,start,end,pitch,velocity
0,25.338949125,25.620718083333333,67.0,59.0
1,25.622062166666666,25.944642166666664,67.0,58.0
2,25.944642166666664,26.256324354166665,69.0,57.0
3,26.256324354166665,26.795739227083335,72.0,61.0
4,26.796865354166666,27.066009727083333,72.0,48.0
5,27.067135854166665,27.336280227083332,72.0,58.0
6,27.337406354166667,27.87794735416667,72.0,67.0
7,27.87794735416667,28.148217854166667,69.0,58.0
8,28.148217854166667,29.769840854166667,76.0,61.0
9,29.769840854166667,30.04221625,67.0,73.0
10,30.04221625,30.32259025,69.0,73.0
11,30.32259025,30.870003727083333,72.0,63.0
12,30.871129854166668,31.140274227083335,72.0,73.0
13,31.141400354166667,31.410544727083334,72.0,76.0
14,31.411670854166665,32.222482354166665,72.0,85.0
15,32.222482354166665,32.49275285416667,76.0,75.0
16,32.49275285416667,34.65379072708333,79.0,80.0
17,34.654916854166665,34.92518735416667,79.0,70.0
18,34.92518735416667,35.19545785416667,81.0,72.0
19,35.19545785416667,35.465728354166664,79.0,64.0
20,35.465728354166664,35.73599885416667,81.0,70.0
21,35.73599885416667,36.00626935416667,79.0,62.0
22,36.00626935416667,36.54681035416667,81.0,78.0
23,36.54681035416667,36.81708085416667,79.0,80.0
24,36.81708085416667,37.357621854166666,76.0,73.0
25,37.357621854166666,37.62789235416667,74.0,69.0
26,37.62789235416667,38.43757772708334,72.0,49.0
27,38.43870385416667,38.70784822708333,72.0,75.0
28,38.70897435416667,38.979244854166666,72.0,70.0
29,38.979244854166666,39.24951535416667,69.0,70.0
30,39.24951535416667,39.788930227083334,72.0,70.0
31,39.790056354166666,40.06032685416667,72.0,80.0
32,40.06032685416667,40.33059735416667,69.0,80.0
33,40.33059735416667,40.600867854166665,72.0,63.0
34,40.600867854166665,41.411679354166665,76.0,70.0
35,41.411679354166665,44.991594291666665,74.0,88.0
36,44.991594291666665,45.27461329166666,67.0,76.0
37,45.27461329166666,45.557632291666664,69.0,67.0
38,45.557632291666664,46.107139727083336,72.0,64.0
39,46.10826585416667,46.37741022708333,72.0,70.0
40,46.37853635416667,46.64768072708333,72.0,78.0
41,46.648806854166665,46.917951227083336,72.0,76.0
42,46.91907735416667,47.18822172708333,72.0,76.0
43,47.18934785416667,47.459618354166665,72.0,72.0
44,47.459618354166665,47.72988885416667,69.0,72.0
45,47.72988885416667,48.270429854166665,74.0,78.0
46,49.35151185416667,49.62178235416667,67.0,82.0
47,49.62178235416667,49.892052854166664,69.0,73.0
48,48.270429854166665,50.15781884583333,76.0,78.0
49,49.892052854166664,50.43146772708333,72.0,88.0
50,50.43259385416667,50.70173822708333,72.0,85.0
51,50.702864354166664,50.972008727083335,72.0,76.0
52,50.973134854166666,51.24227922708333,72.0,69.0
53,51.24340535416667,51.783946354166666,72.0,73.0
54,51.783946354166666,52.05421685416667,76.0,76.0
55,52.05421685416667,54.215254727083334,79.0,88.0
56,54.216380854166665,54.48665135416667,79.0,95.0
57,54.48665135416667,54.75692185416666,81.0,88.0
58,54.75692185416666,55.027192354166665,79.0,93.0
59,55.027192354166665,55.29746285416667,81.0,91.0
60,55.29746285416667,55.56773335416666,79.0,80.0
61,55.56773335416666,56.10714822708333,81.0,99.0
62,56.10827435416667,56.37854485416666,81.0,99.0
63,56.37854485416666,56.649848479166664,79.0,80.0
64,56.649848479166664,57.20030747916667,76.0,91.0
65,57.20030747916667,57.47553697916667,74.0,91.0
66,57.47553697916667,58.025995979166666,72.0,95.0
67,58.025995979166666,58.30007868958333,69.0,73.0
68,58.30122547916667,58.57645497916667,69.0,75.0
69,58.57645497916667,58.850651354166665,72.0,72.0
70,58.850651354166665,59.39119235416667,67.0,75.0
71,59.39119235416667,59.661462854166665,76.0,64.0
72,59.661462854166665,59.93173335416667,74.0,88.0
73,59.93173335416667,60.472274354166665,72.0,88.0
74,60.472274354166665,60.74254485416667,69.0,75.0
75,60.74254485416667,61.28195972708333,72.0,69.0
76,61.283085854166664,64.52633185416667,72.0,76.0
77,64.52633185416667,64.79660235416667,79.0,91.0
78,64.79660235416667,65.06687285416666,81.0,76.0
79,65.06687285416666,65.33714335416667,84.0,69.0
80,65.33714335416667,65.87655822708334,81.0,99.0
81,65.87768435416666,66.14795485416667,81.0,91.0
82,66.14795485416667,66.41822535416667,79.0,76.0
83,66.41822535416667,66.68849585416666,81.0,101.0
84,66.68849585416666,66.95876635416667,79.0,75.0
85,66.95876635416667,67.22903685416667,76.0,88.0
86,67.22903685416667,68.84953372708333,79.0,88.0
87,68.85065985416666,69.12093035416666,79.0,82.0
88,69.12093035416666,69.39120085416667,81.0,80.0
89,69.39120085416667,69.66147135416666,84.0,64.0
90,69.66147135416666,70.20088622708333,81.0,93.0
91,70.20201235416667,70.47228285416666,81.0,82.0
92,70.47228285416666,70.74255335416666,79.0,73.0
93,70.74255335416666,71.01282385416667,81.0,93.0
94,71.01282385416667,71.28309435416666,79.0,78.0
95,71.28309435416666,71.82363535416667,81.0,73.0
96,71.82363535416667,73.17386172708333,72.0,82.0
97,73.17498785416666,73.44525835416667,72.0,99.0
98,73.44525835416667,73.71552885416666,74.0,78.0
99,73.71552885416666,73.98579935416666,76.0,91.0
100,73.98579935416666,74.25494372708333,74.0,91.0
101,74.25606985416667,74.52521422708332,74.0,76.0
102,74.52634035416666,74.79661085416666,74.0,88.0
103,74.79661085416666,75.06688135416667,72.0,91.0
104,75.06688135416667,75.33715185416666,74.0,93.0
105,75.33715185416666,75.60742235416666,72.0,93.0
106,75.60742235416666,75.87769285416667,69.0,72.0
107,75.87769285416667,76.41245258333333,76.0,85.0
108,76.41245258333333,77.47439658333333,74.0,85.0
109,77.47439658333333,77.73988258333333,79.0,93.0
110,77.73988258333333,78.00536858333334,81.0,69.0
111,78.00536858333334,78.27185135416666,76.0,82.0
112,78.27185135416666,78.81126622708332,79.0,88.0
113,78.81239235416666,79.08266285416666,79.0,88.0
114,79.08266285416666,79.35293335416665,76.0,85.0
115,79.35293335416665,79.75833910416665,79.0,93.0
116,79.75833910416665,80.43401535416666,76.0,69.0
117,80.43401535416666,80.85333879166666,81.0,97.0
118,80.70983470833332,81.00994043749999,79.0,73.0
119,81.00994043749999,81.32573164583332,81.0,88.0
120,81.32573164583332,81.65732700833333,79.0,66.0
121,81.65877591666666,82.00915518125,79.0,95.0
122,82.0106875625,82.38251572916667,79.0,95.0
123,82.38251572916667,82.76975922916667,81.0,95.0
124,82.76975922916667,83.13532144166666,84.0,95.0
125,83.13532144166666,83.68972003333333,81.0,95.0
126,83.69087744166667,83.96865544166667,81.0,88.0
127,83.96865544166667,84.24486937916667,79.0,85.0
128,84.24486937916667,84.51513987916667,81.0,88.0
129,84.51513987916667,84.78541037916668,79.0,82.0
130,84.78541037916668,85.05568087916667,76.0,91.0
131,85.05568087916667,86.67617775208335,79.0,85.0
132,86.67730387916667,86.94757437916667,79.0,76.0
133,86.94757437916667,87.21784487916668,81.0,80.0
134,87.21784487916668,87.48811537916667,84.0,73.0
135,87.48811537916667,88.02753025208334,81.0,80.0
136,88.02865637916668,88.29892687916667,81.0,67.0
137,88.29892687916667,88.56919737916667,79.0,59.0
138,88.56919737916667,88.83946787916668,81.0,59.0
139,88.83946787916668,89.10973837916667,79.0,54.0
140,89.10973837916667,89.38000887916667,81.0,59.0
141,89.38000887916667,89.64928260833335,79.0,60.0
142,89.64928260833335,90.97560641666668,72.0,48.0
143,90.97671260833334,91.24219860833334,72.0,91.0
144,91.24219860833334,91.50768460833335,74.0,82.0
145,91.50768460833335,91.77416737916667,76.0,69.0
146,91.77416737916667,92.31358225208334,77.0,88.0
147,92.31470837916667,92.58497887916667,77.0,93.0
148,92.58497887916667,92.85412325208334,79.0,85.0
149,92.85524937916666,93.39466425208334,79.0,75.0
150,93.39579037916667,93.66606087916666,79.0,78.0
151,93.66606087916666,94.20660187916667,81.0,72.0
152,94.20660187916667,94.74714287916667,84.0,80.0
153,94.74714287916667,95.28768387916668,81.0,97.0
154,95.28768387916668,95.55795437916667,84.0,78.0
155,95.55795437916667,95.82822487916667,83.0,82.0
156,95.82822487916667,96.36876587916667,81.0,75.0
157,96.36876587916667,97.17845125208333,79.0,75.0
158,97.17957737916667,97.44984787916667,79.0,69.0
159,97.44984787916667,97.72011837916668,67.0,72.0
160,97.72011837916668,98.26065937916667,81.0,76.0
161,98.26065937916667,99.47237212083334,79.0,78.0
162,99.34174137916668,99.47237212083334,79.0,85.0
163,99.61201187916667,99.88228237916667,81.0,64.0
164,99.88228237916667,100.28768812916667,84.0,78.0
165,100.28768812916667,100.69309387916667,76.0,49.0
166,100.69309387916667,100.82822912916667,74.0,43.0
167,100.82822912916667,100.96336437916668,76.0,64.0
168,100.96336437916668,101.09849962916667,74.0,64.0
169,101.09849962916667,104.730517025,72.0,64.0
170,127.78564400416667,128.05972671458332,67.0,59.0
171,128.06087350416666,128.33610300416666,67.0,58.0
172,128.33610300416666,128.6102993791667,69.0,57.0
173,128.6102993791667,129.14971425208336,72.0,61.0
174,129.15084037916668,129.41998475208334,72.0,48.0
175,129.4211108791667,129.69025525208335,72.0,58.0
176,129.69138137916667,130.2319223791667,72.0,67.0
177,130.2319223791667,130.50219287916667,69.0,58.0
178,130.50219287916667,132.12381587916667,76.0,61.0
179,132.12381587916667,132.39408637916668,67.0,73.0
180,132.39408637916668,132.6643568791667,69.0,73.0
181,132.6643568791667,133.20377175208336,72.0,63.0
182,133.20489787916668,133.47404225208334,72.0,73.0
183,133.4751683791667,133.74431275208335,72.0,76.0
184,133.74543887916667,134.55625037916667,72.0,85.0
185,134.55625037916667,134.82652087916668,76.0,75.0
186,134.82652087916668,136.98755875208334,79.0,80.0
187,136.98868487916667,137.25895537916668,79.0,70.0
188,137.25895537916668,137.5292258791667,81.0,72.0
189,137.5292258791667,137.79949637916667,79.0,64.0
190,137.79949637916667,138.06976687916668,81.0,70.0
191,138.06976687916668,138.3400373791667,79.0,62.0
192,138.3400373791667,138.88057837916668,81.0,78.0
193,138.88057837916668,139.1508488791667,79.0,80.0
194,139.1508488791667,139.70046144166668,76.0,73.0
195,139.70046144166668,139.9782394416667,74.0,69.0
196,139.9782394416667,140.81041603333335,72.0,49.0
197,140.8115734416667,141.08819403333334,72.0,75.0
198,141.08935144166668,141.3671294416667,72.0,70.0
199,141.3671294416667,141.6433433791667,69.0,70.0
200,141.6433433791667,142.18275825208337,72.0,70.0
201,142.1838843791667,142.4541548791667,72.0,80.0
202,142.4541548791667,142.7244253791667,69.0,80.0
203,142.7244253791667,142.9946958791667,72.0,63.0
204,142.9946958791667,143.8055073791667,76.0,70.0
205,143.8055073791667,147.3448520041667,74.0,88.0
206,147.3448520041667,147.6200815041667,67.0,76.0
207,147.6200815041667,147.8953110041667,69.0,67.0
208,147.8953110041667,148.43865175208336,72.0,64.0
209,148.43977787916668,148.70892225208337,72.0,70.0
210,148.7100483791667,148.97919275208335,72.0,78.0
211,148.9803188791667,149.24946325208336,72.0,76.0
212,149.25058937916668,149.51973375208337,72.0,76.0
213,149.5208598791667,149.7911303791667,72.0,72.0
214,149.7911303791667,150.06140087916668,69.0,72.0
215,150.06140087916668,150.6019418791667,74.0,78.0
216,151.68302387916668,151.9532943791667,67.0,82.0
217,151.9532943791667,152.2235648791667,69.0,73.0
218,150.6019418791667,152.49028134583335,76.0,78.0
219,152.2235648791667,152.76895121458335,72.0,88.0
220,152.7700980041667,153.04418071458338,72.0,85.0
221,153.0453275041667,153.31941021458337,72.0,76.0
222,153.3205570041667,153.59463971458337,72.0,69.0
223,153.5957865041667,154.1462455041667,72.0,73.0
224,154.1462455041667,154.4214750041667,76.0,76.0
225,154.4214750041667,156.58685200208336,79.0,88.0
226,156.5879781291667,156.85876040000002,79.0,95.0
227,156.85876040000002,157.13148740000003,81.0,88.0
228,157.13148740000003,157.40421440000003,79.0,93.0
229,157.40421440000003,157.6769414,81.0,91.0
230,157.6769414,157.9496684,79.0,80.0
231,157.9496684,158.4939860375,81.0,99.0
232,158.4951224,158.76784940000002,81.0,99.0
233,158.76784940000002,159.0400646291667,79.0,80.0
234,159.0400646291667,159.58060562916668,76.0,91.0
235,159.58060562916668,159.8508761291667,74.0,91.0
236,159.8508761291667,160.39141712916668,72.0,95.0
237,160.39141712916668,160.66056150208334,69.0,73.0
238,160.6616876291667,160.93195812916667,69.0,75.0
239,160.93195812916667,161.20222862916668,72.0,72.0
240,161.20222862916668,161.74276962916667,67.0,75.0
241,161.74276962916667,162.01304012916668,76.0,64.0
242,162.01304012916668,162.28382240000002,74.0,88.0
243,162.28382240000002,162.82927640000003,72.0,88.0
244,162.82927640000003,163.1020034,69.0,75.0
245,163.1020034,163.6463210375,72.0,69.0
246,163.6474574,166.8948168166667,72.0,76.0
247,166.8948168166667,167.16267381666668,79.0,91.0
248,167.16267381666668,167.4305308166667,81.0,76.0
249,167.4305308166667,167.69940240000003,84.0,69.0
250,167.69940240000003,168.24372003750003,81.0,99.0
251,168.24485640000003,168.5175834,81.0,91.0
252,168.5175834,168.7903104,79.0,76.0
253,168.7903104,169.0630374,81.0,101.0
254,169.0630374,169.33576440000002,79.0,75.0
255,169.33576440000002,169.60849140000002,76.0,88.0
256,169.60849140000002,171.18200863125003,79.0,88.0
257,171.18309558750002,171.4439650875,79.0,82.0
258,171.4439650875,171.70483458750002,81.0,80.0
259,171.70483458750002,171.96666585833333,84.0,64.0
260,171.96666585833333,172.49653166666667,81.0,93.0
261,172.49763785833335,172.76312385833333,81.0,82.0
262,172.76312385833333,173.02860985833334,79.0,73.0
263,173.02860985833334,173.29409585833335,81.0,93.0
264,173.29409585833335,173.55958185833333,79.0,78.0
265,173.55958185833333,174.09055385833332,81.0,73.0
266,174.09055385833332,175.41687766666666,72.0,82.0
267,175.41798385833334,175.68346985833332,72.0,99.0
268,175.68346985833332,175.94895585833333,74.0,78.0
269,175.94895585833333,176.2146295625,76.0,91.0
270,176.2146295625,176.48137049166667,74.0,91.0
271,176.48248656250001,176.74922749166666,74.0,76.0
272,176.7503435625,177.0182005625,74.0,88.0
273,177.0182005625,177.2860575625,72.0,91.0
274,177.2860575625,177.5539145625,74.0,93.0
275,177.5539145625,177.8217715625,72.0,93.0
276,177.8217715625,178.0896285625,69.0,72.0
277,178.0896285625,178.6253425625,76.0,85.0
278,178.6253425625,179.6967705625,74.0,85.0
279,179.6967705625,179.9646275625,79.0,93.0
280,179.9646275625,180.2324845625,81.0,69.0
281,180.2324845625,180.5003415625,76.0,82.0
282,180.5003415625,181.03493949166668,79.0,88.0
283,181.0360555625,181.30391256250002,79.0,88.0
284,181.30391256250002,181.5717695625,76.0,85.0
285,181.5717695625,181.9735550625,79.0,93.0
286,181.9735550625,182.6431975625,76.0,69.0
287,182.6431975625,183.0577392041667,81.0,97.0
288,182.91624143750002,183.21196918750002,79.0,73.0
289,183.21196918750002,183.52227020833337,81.0,88.0
290,183.52227020833337,183.84722534583338,79.0,66.0
291,183.84864277083338,184.19137746875003,79.0,95.0
292,184.1928759166667,184.55704685416669,79.0,95.0
293,184.55704685416669,184.94362816666668,81.0,95.0
294,184.94362816666668,185.32164958333337,84.0,95.0
295,185.32164958333337,185.85624751250003,81.0,95.0
296,185.85736358333338,186.12522058333337,81.0,88.0
297,186.12522058333337,186.39307758333337,79.0,85.0
298,186.39307758333337,186.6609345833334,81.0,88.0
299,186.6609345833334,186.92879158333338,79.0,82.0
300,186.92879158333338,187.19664858333337,76.0,91.0
301,187.19664858333337,188.84104223125004,79.0,85.0
302,188.8421890208334,189.11741852083338,79.0,76.0
303,189.11741852083338,189.39264802083338,81.0,80.0
304,189.39264802083338,189.6775022916667,84.0,73.0
305,189.6775022916667,190.20875200833336,86.0,80.0
306,190.20428772500003,190.20875200833336,86.0,67.0
307,190.4676804416667,190.73665351250003,84.0,59.0
308,190.73665351250003,191.00562658333337,86.0,59.0
309,191.00562658333337,191.8186114166667,88.0,54.0
310,191.9316548666667,193.1446980416667,79.0,48.0
311,193.1120893541667,193.4012197166667,77.0,91.0
312,193.3936110229167,193.4012197166667,77.0,82.0
313,193.6262196604167,193.91667726666668,79.0,69.0
314,193.91667726666668,194.44654307500002,81.0,88.0
315,194.44764926666667,194.70871050000002,81.0,93.0
316,194.692117625,194.95649743333334,79.0,85.0
317,194.95760362500002,195.48746943333336,79.0,75.0
318,195.488575625,195.75406162500002,79.0,78.0
319,195.75406162500002,196.285033625,81.0,72.0
320,196.285033625,196.816005625,84.0,80.0
321,196.816005625,197.34697762500002,81.0,97.0
322,197.34697762500002,197.612463625,84.0,78.0
323,197.612463625,197.877949625,83.0,82.0
324,197.877949625,198.408921625,81.0,75.0
325,198.408921625,199.20427343333336,79.0,75.0
326,199.205379625,199.47086562500002,79.0,69.0
327,199.47086562500002,199.73635162500003,67.0,72.0
328,199.73635162500003,200.26732362500002,81.0,76.0
329,200.26732362500002,201.45758585833335,79.0,78.0
330,201.329267625,201.45758585833335,79.0,85.0
331,201.594753625,201.86023962500002,81.0,64.0
332,201.86023962500002,202.258468625,84.0,78.0
333,202.258468625,202.65669762500002,76.0,49.0
334,202.65669762500002,202.78944062500003,74.0,43.0
335,202.78944062500003,202.922183625,76.0,64.0
336,202.922183625,203.054926625,74.0,64.0
337,203.054926625,205.84252962500003,72.0,64.0
338,205.84252962500003,206.108015625,79.0,91.0
339,206.108015625,206.37350162500002,81.0,76.0
340,206.37350162500002,206.63898762500003,84.0,69.0
341,206.63898762500003,207.16885343333334,81.0,99.0
342,207.16995962500002,207.435445625,81.0,91.0
343,207.435445625,207.700931625,79.0,76.0
344,207.700931625,207.96641762500002,81.0,101.0
345,207.96641762500002,208.231903625,79.0,75.0
346,208.231903625,208.497389625,76.0,88.0
347,208.497389625,210.08919943333336,79.0,88.0
348,210.090305625,210.35579162500002,79.0,82.0
349,210.35579162500002,210.621277625,81.0,80.0
350,210.621277625,210.88676362500001,84.0,64.0
351,210.88676362500001,211.41662943333336,81.0,93.0
352,211.417735625,211.68322162500002,81.0,82.0
353,211.68322162500002,211.94870762500003,79.0,73.0
354,211.94870762500003,212.214193625,81.0,93.0
355,212.214193625,212.47967962500002,79.0,78.0
356,212.47967962500002,213.010651625,81.0,73.0
357,213.010651625,214.33697543333335,72.0,82.0
358,214.33808162500003,214.603567625,72.0,99.0
359,214.603567625,214.86905362500002,74.0,78.0
360,214.86905362500002,215.134539625,76.0,91.0
361,215.134539625,215.39891943333333,74.0,91.0
362,215.400025625,215.66440543333334,74.0,76.0
363,215.66551162500002,215.930997625,74.0,88.0
364,215.930997625,216.196483625,72.0,91.0
365,216.196483625,216.46196962500002,74.0,93.0
366,216.46196962500002,216.727455625,72.0,93.0
367,216.727455625,216.99294162500001,69.0,72.0
368,216.99294162500001,217.523913625,76.0,85.0
369,217.523913625,218.58585762500002,74.0,85.0
370,218.58585762500002,218.85134362500003,79.0,93.0
371,218.85134362500003,219.116829625,81.0,69.0
372,219.116829625,219.38231562500002,76.0,82.0
373,219.38231562500002,219.91218143333336,79.0,88.0
374,219.913287625,220.17877362500002,79.0,88.0
375,220.17877362500002,220.44425962500003,76.0,85.0
376,220.44425962500003,220.84248862500002,79.0,93.0
377,220.84248862500002,221.50669758333336,76.0,69.0
378,221.50669758333336,221.92123922500002,81.0,97.0
379,221.77974145833335,222.07546920833335,79.0,73.0
380,222.07546920833335,222.3857702291667,81.0,88.0
381,222.3857702291667,222.7107253666667,79.0,66.0
382,222.7121427916667,223.05487748958336,79.0,95.0
383,223.05637593750004,223.420546875,79.0,95.0
384,223.420546875,223.8071281875,81.0,95.0
385,223.8071281875,224.1856423604167,84.0,95.0
386,224.1856423604167,224.72505723333336,81.0,95.0
387,224.7261833604167,224.9964538604167,81.0,88.0
388,224.9964538604167,225.2667243604167,79.0,85.0
389,225.2667243604167,225.5369948604167,81.0,88.0
390,225.5369948604167,225.8072653604167,79.0,82.0
391,225.8072653604167,226.0775358604167,76.0,91.0
392,226.0775358604167,227.69803273333338,79.0,85.0
393,227.6991588604167,227.9694293604167,79.0,76.0
394,227.9694293604167,228.2396998604167,81.0,80.0
395,228.2396998604167,228.5099703604167,84.0,73.0
396,228.5099703604167,229.04938523333337,81.0,80.0
397,229.0505113604167,229.3207818604167,81.0,67.0
398,229.3207818604167,229.5910523604167,79.0,59.0
399,229.5910523604167,229.8613228604167,81.0,59.0
400,229.8613228604167,230.1315933604167,79.0,54.0
401,230.1315933604167,230.4018638604167,81.0,59.0
402,230.4018638604167,230.67113758958337,79.0,60.0
403,230.67113758958337,231.9974613979167,72.0,48.0
404,231.9985675895834,232.26405358958337,72.0,91.0
405,232.26405358958337,232.52953958958338,74.0,82.0
406,232.52953958958338,232.79406381875003,76.0,69.0
407,232.79406381875003,233.31471586250004,77.0,88.0
408,233.31580281875003,233.57667231875004,77.0,93.0
409,233.57667231875004,233.83645486250003,79.0,85.0
410,233.83754181875003,234.35819386250003,79.0,75.0
411,234.35928081875002,234.62015031875004,79.0,78.0
412,234.62015031875004,235.15324886041668,81.0,72.0
413,235.15324886041668,235.6937898604167,84.0,80.0
414,235.6937898604167,236.2343308604167,81.0,97.0
415,236.2343308604167,236.5046013604167,84.0,78.0
416,236.5046013604167,236.77487186041668,83.0,82.0
417,236.77487186041668,237.31090835208335,81.0,75.0
418,237.18027761041668,238.12509823333335,79.0,75.0
419,238.1262243604167,238.39649486041668,79.0,69.0
420,238.39649486041668,238.6667653604167,67.0,72.0
421,238.6667653604167,239.20730636041668,81.0,76.0
422,239.20730636041668,240.41901910208335,79.0,78.0
423,240.1532531104167,240.41901910208335,79.0,85.0
424,240.5586588604167,240.82892936041668,81.0,64.0
425,240.82892936041668,241.23433511041668,84.0,78.0
426,241.23433511041668,241.63974086041668,76.0,49.0
427,241.63974086041668,241.7748761104167,74.0,43.0
428,241.7748761104167,241.9100113604167,76.0,64.0
429,241.9100113604167,242.04514661041668,74.0,64.0
430,242.04514661041668,245.63749200625003,72.0,64.0
