,start,end,pitch,velocity
0,2.0833351041666663,2.7815338958333333,60.0,52.0
1,2.1801820333333333,2.8445970125,67.0,49.0
2,2.13851533125,2.9380655604166663,62.0,46.0
3,2.1801820333333333,3.01013769375,64.0,55.0
4,2.2184703541666666,3.3445974375,71.0,50.0
5,3.2995523541666665,3.5056336104166665,60.0,49.0
6,2.2184703541666666,3.59459765,55.0,55.0
7,3.5698228541666666,3.690318452083333,62.0,78.0
8,3.5698228541666666,3.7015797229166663,67.0,90.0
9,2.2184703541666666,3.7646428395833333,48.0,44.0
10,4.110363854166667,4.601355262499999,53.0,18.0
11,4.110363854166667,4.679058031249999,60.0,46.0
12,4.110363854166667,4.761265308333333,57.0,52.0
13,4.245499104166666,4.770274325,64.0,1.0
14,4.110363854166667,4.846850966666667,65.0,46.0
15,4.110363854166667,5.807370583333333,41.0,67.0
16,5.760801979166667,5.9188901354166665,55.0,62.0
17,5.760801979166667,5.9274685625,60.0,74.0
18,6.638186354166667,6.7778261125,36.0,28.0
19,6.638186354166667,6.973772225,48.0,60.0
20,6.638186354166667,6.981655114583333,55.0,54.0
21,6.638186354166667,7.07174528125,64.0,62.0
22,6.638186354166667,7.096520077083333,59.0,58.0
23,7.989538854166667,8.15958404375,62.0,52.0
24,8.259809354166666,8.674224120833333,67.0,69.0
25,8.530079854166667,8.972647797916666,74.0,53.0
26,9.070620854166666,9.3994499625,71.0,53.0
27,9.611161854166667,9.83526114375,62.0,78.0
28,9.611161854166667,10.069495577083334,67.0,88.0
29,10.151702854166667,10.25418041875,48.0,58.0
30,10.421973354166667,10.580757272916667,59.0,65.0
31,10.692243854166666,10.9670188625,47.0,54.0
32,10.962514354166666,11.417469695833333,64.0,61.0
33,10.962514354166666,11.47715443125,55.0,71.0
34,10.692243854166666,11.518821133333333,60.0,62.0
35,11.773325854166666,11.917470120833332,55.0,30.0
36,12.043596354166667,12.211389289583334,60.0,74.0
37,11.503055354166666,12.263191135416665,52.0,45.0
38,10.962514354166666,12.408461529166665,45.0,60.0
39,12.313866854166665,12.499677822916667,62.0,65.0
40,12.584137354166666,12.803732135416666,64.0,53.0
41,12.854407854166666,13.428732666666665,59.0,59.0
42,12.854407854166666,13.611165254166666,62.0,48.0
43,12.854407854166666,13.634813922916667,67.0,71.0
44,13.935489854166665,14.2913460125,62.0,74.0
45,13.935489854166665,14.37580554375,55.0,73.0
46,13.665219354166666,14.541346225,52.0,38.0
47,13.124678354166665,14.55148136875,40.0,45.0
48,14.476030854166666,14.597652579166667,59.0,77.0
49,15.151707104166666,15.740671568749999,64.0,29.0
50,15.286842354166666,15.740671568749999,64.0,34.0
51,15.016571854166667,15.802608558333333,60.0,49.0
52,15.286842354166666,15.830761735416667,57.0,57.0
53,15.827383354166667,16.365672099999998,53.0,55.0
54,16.097653854166666,16.67423092083333,55.0,70.0
55,16.097653854166666,16.684366064583333,60.0,83.0
56,16.638194854166667,16.942249166666667,53.0,56.0
57,15.286842354166666,17.208015158333332,41.0,67.0
58,15.557112854166666,17.251934114583335,48.0,58.0
59,16.908465354166665,17.266573766666667,55.0,69.0
60,17.178735854166668,17.384817110416666,64.0,66.0
61,18.259817854166666,18.380313452083335,57.0,74.0
62,18.259817854166666,18.648331697916667,65.0,81.0
63,17.989547354166668,18.795854345833334,53.0,64.0
64,18.800358854166667,19.113422183333334,55.0,80.0
65,18.800358854166667,19.1224312,64.0,77.0
66,17.449006354166666,19.129187962499998,41.0,55.0
67,17.719276854166665,19.14945825,48.0,49.0
68,19.611682124999998,20.253726937499998,60.0,78.0
69,19.611682124999998,20.416226775,67.0,83.0
70,21.94122525,22.0969069125,67.0,57.0
71,22.116225075,22.252588574999997,69.0,49.0
72,22.242361312499998,22.357133925,71.0,60.0
73,22.40486115,22.602588224999998,72.0,74.0
74,22.570770075,22.730997187499998,74.0,66.0
75,22.7173608375,22.8423607125,76.0,69.0
76,22.878724312499997,23.0548605,77.0,59.0
77,23.028724162499998,23.184405825,79.0,61.0
78,23.193496725,23.3094057,81.0,62.0
79,23.3469056625,23.5628145375,83.0,60.0
80,23.5730418,23.7605416125,84.0,49.0
81,23.7605416125,24.009405,86.0,40.0
82,23.930995987499998,24.202586625,88.0,45.0
83,24.157132124999997,24.275313824999998,89.0,52.0
84,24.52304085,25.359403649999997,91.0,29.0
85,19.611682124999998,25.529858025,43.0,61.0
86,20.429863124999997,25.5423580125,55.0,47.0
87,20.157136124999997,25.605933166666667,50.0,39.0
88,26.256324354166665,26.911730316666667,62.0,48.0
89,26.256324354166665,26.9500186375,64.0,50.0
90,26.256324354166665,26.96803667083333,67.0,61.0
91,27.337406354166667,27.999569079166665,62.0,34.0
92,27.337406354166667,28.02772225625,64.0,42.0
93,27.337406354166667,28.03898352708333,67.0,42.0
94,28.418488354166666,28.90047074583333,62.0,32.0
95,28.418488354166666,28.941011320833333,64.0,35.0
96,28.418488354166666,28.944389702083335,67.0,45.0
97,29.229299854166666,29.647093002083334,60.0,48.0
98,29.499570354166668,29.667363289583335,67.0,79.0
99,29.499570354166668,29.921868010416667,62.0,66.0
100,26.256324354166665,30.0211882,55.0,49.0
101,26.256324354166665,30.078431225,48.0,51.0
102,30.04221625,30.244319175,62.0,58.0
103,30.600859354166666,31.157166133333334,60.0,50.0
104,30.600859354166666,31.177436420833335,67.0,46.0
105,30.600859354166666,31.179688675,55.0,51.0
106,31.681941354166668,32.24387876875,67.0,32.0
107,31.681941354166668,32.27653645416667,60.0,46.0
108,31.681941354166668,32.286671597916666,64.0,40.0
109,31.681941354166668,32.314824775,55.0,35.0
110,30.600859354166666,32.62338359583333,52.0,59.0
111,30.600859354166666,32.63689712083333,45.0,44.0
112,32.76302335416667,33.28554632083333,62.0,62.0
113,32.76302335416667,33.36550134375,55.0,41.0
114,32.76302335416667,33.39365452083334,59.0,61.0
115,33.844105354166665,34.152664175,55.0,61.0
116,32.76302335416667,34.23149307083333,40.0,50.0
117,33.57383485416667,34.34635803333333,52.0,46.0
118,34.11437585416667,34.438700454166664,62.0,53.0
119,34.38464635416667,34.582844720833336,67.0,74.0
120,34.92518735416667,35.43419679583333,65.0,52.0
121,34.92518735416667,35.465728354166664,57.0,49.0
122,34.92518735416667,35.52316083541667,60.0,58.0
123,36.00626935416667,36.39703545208333,57.0,44.0
124,34.92518735416667,36.41392735833333,41.0,47.0
125,36.00626935416667,36.47473822083333,60.0,56.0
126,36.00626935416667,36.504017525,65.0,49.0
127,34.92518735416667,36.5513148625,53.0,55.0
128,37.087351354166664,37.4972616125,64.0,48.0
129,37.087351354166664,37.52766704375,60.0,49.0
130,37.898162854166664,38.112127,59.0,55.0
131,38.168433354166666,38.294559587500004,60.0,62.0
132,37.087351354166664,38.547938181250004,45.0,51.0
133,37.357621854166666,38.623388695833334,52.0,43.0
134,37.62789235416667,38.674064414583334,57.0,39.0
135,38.43870385416667,38.7269923875,64.0,54.0
136,38.70897435416667,38.98149710833333,67.0,73.0
137,38.979244854166666,39.35199291875,72.0,48.0
138,39.24951535416667,39.97361506875,65.0,56.0
139,39.24951535416667,39.993885356250004,69.0,51.0
140,39.24951535416667,39.99838986458333,60.0,57.0
141,40.33059735416667,40.56933629583333,65.0,54.0
142,40.33059735416667,40.577219185416666,69.0,53.0
143,39.24951535416667,40.61550750625,57.0,50.0
144,40.33059735416667,40.6323994125,60.0,52.0
145,39.24951535416667,40.6459129375,50.0,45.0
146,41.411679354166665,41.741634589583335,65.0,49.0
147,41.411679354166665,41.774292275,57.0,48.0
148,41.411679354166665,41.78555354583333,60.0,57.0
149,41.411679354166665,42.0918601125,43.0,46.0
150,41.95222035416667,42.12451779791667,55.0,68.0
151,41.68194985416667,42.14253583125,50.0,48.0
152,42.222490854166665,42.62226596875,60.0,71.0
153,42.49276135416667,43.28442869375,56.0,57.0
154,42.49276135416667,43.34298730208333,65.0,61.0
155,43.438708104166665,43.5989049625,60.0,47.0
156,43.576499291666664,43.714471054166665,62.0,50.0
157,43.71800879166666,43.768716362499994,65.0,69.0
158,42.49276135416667,45.01282071666667,43.0,53.0
159,42.49276135416667,45.091830187499994,55.0,51.0
160,46.648806854166665,47.081239654166666,62.0,60.0
161,46.37853635416667,47.308717325,60.0,51.0
162,47.18934785416667,47.319978595833334,67.0,77.0
163,46.10826585416667,47.50241118333334,55.0,49.0
164,45.837995354166665,47.5046634375,48.0,44.0
165,47.72988885416667,47.96074490625,62.0,53.0
166,47.72988885416667,48.10263691875,67.0,72.0
167,48.81097085416667,49.19498018958333,60.0,52.0
168,48.00015935416667,49.22876400208333,48.0,48.0
169,49.081241354166664,49.281691975,67.0,70.0
170,49.081241354166664,49.377412777083336,76.0,60.0
171,48.54070035416667,49.45286329166667,55.0,38.0
172,49.486647104166664,49.57561114375,74.0,55.0
173,49.486647104166664,49.638674260416664,67.0,61.0
174,49.892052854166664,50.04858451875,72.0,66.0
175,50.162323354166666,50.416828075,72.0,37.0
176,50.973134854166666,51.31209910625,59.0,56.0
177,50.702864354166664,51.53732452291666,57.0,55.0
178,51.783946354166666,51.85038785208333,57.0,60.0
179,50.43259385416667,51.91682935,52.0,45.0
180,50.162323354166666,51.94047801875,45.0,56.0
181,51.513675854166664,51.99002761041667,60.0,82.0
182,52.32448735416666,52.79295622083333,52.0,42.0
183,52.32448735416666,52.922460835416665,59.0,53.0
184,52.05421685416667,52.94273112291667,62.0,52.0
185,52.32448735416666,52.94273112291667,62.0,19.0
186,52.32448735416666,52.957370775,67.0,70.0
187,53.405569354166666,53.68822725208334,62.0,57.0
188,53.405569354166666,53.77831741875,55.0,65.0
189,52.32448735416666,53.973137404166664,40.0,48.0
190,53.67583985416667,53.97426353125,60.0,69.0
191,53.13529885416666,54.0316960125,52.0,39.0
192,53.94611035416666,54.13079519583333,62.0,58.0
193,54.216380854166665,54.36502962916667,67.0,61.0
194,54.48665135416667,55.12066090208333,57.0,61.0
195,54.48665135416667,55.305345743749996,64.0,67.0
196,54.48665135416667,55.343634064583334,60.0,72.0
197,54.48665135416667,56.003544535416665,41.0,48.0
198,55.56773335416666,56.069986033333336,57.0,55.0
199,54.48665135416667,56.155571691666665,53.0,57.0
200,55.56773335416666,56.24003122291667,64.0,66.0
201,55.56773335416666,56.31435561041667,60.0,71.0
202,56.649848479166664,57.074160625,59.0,49.0
203,56.649848479166664,57.25650016875,62.0,61.0
204,57.47553697916667,57.81383990625,59.0,49.0
205,57.47553697916667,57.876913333333334,62.0,67.0
206,57.20030747916667,58.094803354166665,57.0,47.0
207,56.925077979166666,58.263381422916666,52.0,53.0
208,56.649848479166664,58.27599610833333,45.0,57.0
209,58.025995979166666,58.38264753958333,60.0,72.0
210,58.025995979166666,58.4090237,64.0,65.0
211,58.850651354166665,59.21101202083333,55.0,62.0
212,58.850651354166665,59.445246454166664,62.0,61.0
213,58.850651354166665,59.471147377083334,59.0,60.0
214,58.850651354166665,59.483534775,67.0,55.0
215,58.850651354166665,59.5713726875,43.0,48.0
216,59.93173335416667,60.58826544375,43.0,49.0
217,59.93173335416667,60.62204925625,55.0,53.0
218,59.93173335416667,60.637815035416665,57.0,56.0
219,59.93173335416667,60.663715958333334,60.0,68.0
220,59.93173335416667,60.779707047916666,65.0,61.0
221,61.01281535416667,61.20538308541666,55.0,54.0
222,61.01281535416667,61.32925706458333,60.0,61.0
223,61.01281535416667,61.40695983333333,64.0,56.0
224,61.82362685416667,62.43961836875,62.0,73.0
225,61.283085854166664,62.57362749166666,55.0,38.0
226,61.55335635416667,63.427231820833335,60.0,57.0
227,62.364167854166666,64.2200252875,67.0,77.0
228,62.904708854166664,64.32362897916667,55.0,35.0
229,61.01281535416667,64.33601637708334,48.0,60.0
230,63.44524985416667,64.36529568125,64.0,47.0
231,64.25606135416666,64.8416474375,67.0,69.0
232,64.25606135416666,64.85966547083333,62.0,69.0
233,64.25606135416666,64.861917725,43.0,65.0
234,64.79660235416667,65.38669294583333,55.0,69.0
235,65.33714335416667,66.01507185833333,64.0,66.0
236,65.33714335416667,66.06574757708333,67.0,68.0
237,66.41822535416667,66.888946475,62.0,77.0
238,66.41822535416667,67.0105682,67.0,79.0
239,66.95876635416667,67.0173249625,64.0,73.0
240,65.87768435416666,67.132189925,55.0,59.0
241,65.33714335416667,67.22791072708333,48.0,74.0
242,66.14795485416667,67.43061360208333,60.0,66.0
243,67.22903685416667,67.54322631041667,55.0,27.0
244,67.22903685416667,67.91710050208333,64.0,69.0
245,67.22903685416667,68.36755133541666,72.0,68.0
246,68.31011885416666,68.54210103333334,62.0,64.0
247,68.03984835416666,68.65809212291667,60.0,67.0
248,68.31011885416666,68.84502921875,71.0,79.0
249,67.76957785416667,68.97228157916666,55.0,61.0
250,68.85065985416666,69.15471416666666,62.0,77.0
251,67.49930735416666,69.18174121666667,48.0,59.0
252,69.12093035416666,69.21552502916667,55.0,57.0
253,68.85065985416666,69.41259726875,67.0,74.0
254,69.39120085416667,69.60741725416666,62.0,59.0
255,69.59390372916667,69.86642648333333,55.0,66.0
256,69.63219205,70.22791327708333,60.0,75.0
257,69.66147135416666,70.41935488125,64.0,70.0
258,70.47228285416666,70.84277866458334,60.0,74.0
259,70.20201235416667,71.09052662291667,57.0,49.0
260,71.01282385416667,71.3011123875,59.0,66.0
261,71.01282385416667,71.40133769791666,62.0,78.0
262,69.66147135416666,71.43849989166667,45.0,71.0
263,71.28309435416666,71.51395040625,57.0,42.0
264,69.93174185416666,71.62994149583334,52.0,69.0
265,71.55336485416666,71.65696854583334,60.0,82.0
266,71.55336485416666,71.69187848541667,64.0,75.0
267,72.63444685416667,72.69638384375,64.0,54.0
268,72.63444685416667,72.75043794375,72.0,82.0
269,72.09390585416666,72.90021284583334,52.0,55.0
270,72.90471735416666,72.9767894875,62.0,68.0
271,72.90471735416666,72.99142913958333,71.0,75.0
272,72.36417635416666,73.08264543333334,57.0,45.0
273,73.03985260416667,73.38444749166666,52.0,38.0
274,73.31012310416666,73.43061870208334,59.0,52.0
275,71.82363535416667,73.44638448124999,45.0,55.0
276,73.31012310416666,73.4767899125,67.0,81.0
277,73.71552885416666,73.94525877916666,62.0,61.0
278,73.98579935416666,74.39796186666666,50.0,53.0
279,73.98579935416666,74.6321963,65.0,60.0
280,73.98579935416666,74.72791710208332,57.0,61.0
281,73.98579935416666,74.75832253333333,60.0,65.0
282,74.79661085416666,75.24931394166667,50.0,40.0
283,75.06688135416667,75.6592242,60.0,74.0
284,75.06688135416667,75.66372870833334,57.0,64.0
285,75.06688135416667,75.67161159791667,65.0,67.0
286,73.98579935416666,75.68174674166667,38.0,56.0
287,75.87769285416667,76.04773804375,57.0,60.0
288,76.14696658333334,76.35935538333334,38.0,59.0
289,76.41245258333333,76.46997455,60.0,74.0
290,76.41245258333333,76.53634604999999,57.0,63.0
291,76.41245258333333,76.71333671666666,65.0,74.0
292,75.60742235416666,77.07174281666667,50.0,41.0
293,76.94342458333333,77.13479574166666,55.0,73.0
294,76.94342458333333,77.27970685,60.0,63.0
295,76.94342458333333,77.31952975,64.0,73.0
296,77.20891058333333,77.48435230833333,50.0,49.0
297,77.20891058333333,77.67904204166666,38.0,42.0
298,77.47439658333333,77.90138656666666,60.0,75.0
299,77.47439658333333,77.90249275833334,57.0,76.0
300,77.73988258333333,77.92240420833333,50.0,61.0
301,77.47439658333333,77.93457231666666,65.0,79.0
302,78.00536858333334,78.07837723333333,40.0,66.0
303,78.27185135416666,78.83266264166666,65.0,75.0
304,78.27185135416666,78.95090598541665,57.0,65.0
305,78.27185135416666,78.99032043333332,60.0,76.0
306,79.08266285416666,79.391221675,57.0,64.0
307,79.35293335416665,79.64910477708332,60.0,78.0
308,79.62320385416666,79.74933008749998,64.0,72.0
309,78.27185135416666,79.96442036041665,41.0,68.0
310,78.81239235416666,80.07928532291666,53.0,39.0
311,79.89347435416666,80.08153757708332,65.0,66.0
312,80.16374485416665,80.44640275208333,69.0,80.0
313,80.43401535416666,80.69004104166666,72.0,86.0
314,80.43401535416666,80.70241208333333,65.0,77.0
315,80.43401535416666,80.78282385416665,53.0,59.0
316,80.43401535416666,80.85333879166666,41.0,54.0
317,81.00994043749999,81.29830018749999,60.0,64.0
318,81.00994043749999,81.30515805208333,65.0,52.0
319,81.00994043749999,81.34904838541665,41.0,42.0
320,81.00994043749999,81.37510827083332,53.0,54.0
321,81.00994043749999,81.46288893749998,69.0,78.0
322,81.65877591666666,81.95092469375,67.0,77.0
323,81.65877591666666,81.99383136875,60.0,62.0
324,81.65877591666666,82.23135046249999,43.0,53.0
325,82.38251572916667,82.61486182916667,67.0,49.0
326,82.38251572916667,82.69392404375,55.0,56.0
327,82.38251572916667,82.72458082083334,43.0,59.0
328,82.38251572916667,82.75201056875,56.0,65.0
329,83.13532144166666,83.39226609166667,60.0,83.0
330,83.13532144166666,83.445506875,64.0,73.0
331,83.96865544166667,84.28878833541667,62.0,74.0
332,84.24486937916667,84.28878833541667,62.0,10.0
333,83.96865544166667,84.34509468958333,67.0,90.0
334,84.24486937916667,84.34509468958333,67.0,13.0
335,83.41309944166667,84.53428403958334,55.0,61.0
336,84.51513987916667,84.58158137708334,64.0,67.0
337,83.69087744166667,84.60072553750001,60.0,71.0
338,83.13532144166666,84.73248240625001,48.0,61.0
339,84.78541037916668,85.11198723333334,55.0,58.0
340,85.05568087916667,85.46784339166668,67.0,75.0
341,85.32595137916667,85.49036593333334,79.0,66.0
342,85.32595137916667,85.61761829375001,48.0,59.0
343,85.59622187916668,85.77865446666668,74.0,62.0
344,85.59622187916668,85.84059145625001,55.0,58.0
345,85.86649237916667,86.11649259166667,76.0,72.0
346,85.86649237916667,86.17842958125001,60.0,64.0
347,85.86649237916667,86.45095233541667,67.0,69.0
348,86.40703337916668,86.5196460875,64.0,70.0
349,86.13676287916667,86.54104250208334,72.0,89.0
350,86.13676287916667,86.57482631458335,62.0,74.0
351,86.67730387916667,86.83383554375001,67.0,82.0
352,86.94757437916667,87.21559262500001,71.0,77.0
353,87.35298012916667,87.43518740625001,71.0,29.0
354,87.21784487916668,87.53203433541667,47.0,54.0
355,87.48811537916667,87.95771037291668,45.0,64.0
356,87.75838587916667,88.08271047916668,52.0,61.0
357,88.02865637916668,88.42054860416667,55.0,58.0
358,87.48811537916667,88.61874697083334,64.0,61.0
359,87.48811537916667,88.62325147916667,67.0,72.0
360,87.48811537916667,88.63676500416668,72.0,78.0
361,88.56919737916667,88.82032371875,60.0,61.0
362,88.29892687916667,88.84172013333334,57.0,51.0
363,88.83946787916668,89.03203561041667,64.0,64.0
364,89.10973837916667,89.3980269125,71.0,77.0
365,89.38000887916667,89.67251263333334,67.0,84.0
366,89.38000887916667,89.74994605,62.0,65.0
367,89.78202560833334,90.05967971666668,67.0,20.0
368,89.91476860833335,90.54419166666668,52.0,58.0
369,90.44574060833334,90.62715604166668,59.0,68.0
370,90.44574060833334,90.69795230833334,64.0,70.0
371,90.18025460833334,90.82516435000001,57.0,54.0
372,90.71122660833335,91.09507511666668,52.0,46.0
373,89.64928260833335,91.21565000833334,45.0,56.0
374,90.97671260833334,91.25547290833335,57.0,50.0
375,90.97671260833334,91.31852583333334,62.0,81.0
376,91.50768460833335,91.65148952500002,64.0,64.0
377,91.37494160833334,91.67140097500001,62.0,40.0
378,91.77416737916667,92.02078921041667,38.0,68.0
379,92.04443787916667,92.36200571666667,50.0,53.0
380,91.77416737916667,92.6300239625,65.0,61.0
381,91.77416737916667,92.65817713958334,57.0,65.0
382,91.77416737916667,92.65817713958334,60.0,60.0
383,92.31470837916667,93.16943883541667,52.0,66.0
384,92.58497887916667,93.17957397916668,53.0,65.0
385,92.85524937916666,93.19984426666667,57.0,71.0
386,93.12551987916667,93.43182644583334,60.0,76.0
387,93.39579037916667,93.73588075833334,64.0,68.0
388,93.66606087916666,93.76853844375,40.0,71.0
389,93.66606087916666,93.77416907916667,65.0,64.0
390,93.93633137916667,94.29443979166668,57.0,54.0
391,93.93633137916667,94.30795331666667,60.0,65.0
392,93.93633137916667,94.31808846041667,65.0,66.0
393,94.47687237916666,94.636782425,57.0,54.0
394,94.20660187916667,94.91831419583333,53.0,57.0
395,94.74714287916667,95.12214319791667,57.0,68.0
396,94.74714287916667,95.29556676875,65.0,78.0
397,94.74714287916667,95.29781902291667,60.0,74.0
398,95.28768387916668,95.61426073333334,53.0,55.0
399,93.93633137916667,95.84286453125,41.0,70.0
400,95.55795437916667,95.8462429125,64.0,80.0
401,95.82822487916667,95.88227897916667,65.0,65.0
402,95.82822487916667,95.89466637708334,53.0,37.0
403,95.55795437916667,95.91268441041667,57.0,74.0
404,95.82822487916667,96.01403584791667,60.0,69.0
405,96.09849537916668,96.59286516875001,59.0,68.0
406,96.09849537916668,96.66268504791667,67.0,89.0
407,96.09849537916668,96.71673914791667,60.0,78.0
408,96.90930687916668,97.13115391458334,57.0,61.0
409,96.63903637916667,97.21673957291667,55.0,69.0
410,97.17957737916667,97.42169470208334,57.0,35.0
411,97.17957737916667,97.53768579166668,60.0,86.0
412,96.09849537916668,97.82034368958334,43.0,68.0
413,97.44984787916667,97.84849686666666,55.0,62.0
414,96.36876587916667,98.1030015875,50.0,64.0
415,97.72011837916668,98.16831695833334,62.0,61.0
416,98.26065937916667,98.96561493333334,56.0,52.0
417,98.26065937916667,99.07484926041667,65.0,49.0
418,98.26065937916667,99.15930879166667,60.0,47.0
419,98.26065937916667,99.72349846041666,55.0,53.0
420,99.34174137916668,99.84061567708333,57.0,72.0
421,98.26065937916667,99.84849856666668,43.0,47.0
422,99.34174137916668,99.92620133541666,65.0,60.0
423,99.34174137916668,100.00165185,60.0,64.0
424,100.42282337916667,101.015166225,64.0,53.0
425,100.42282337916667,101.11313928125,60.0,66.0
426,100.42282337916667,101.123274425,55.0,65.0
427,100.42282337916667,101.57710363958334,48.0,59.0
428,101.50390537916667,101.85638315625,55.0,70.0
429,101.50390537916667,101.87214893541667,62.0,71.0
430,100.42282337916667,102.11877076666667,36.0,47.0
431,101.77417587916668,102.46674403541667,48.0,58.0
432,102.31471687916667,102.64335998333333,60.0,75.0
433,102.04444637916667,102.64450677291667,55.0,67.0
434,102.31471687916667,102.64450677291667,55.0,32.0
435,102.31471687916667,102.66744256458333,65.0,79.0
436,102.86125000416666,103.23395661875,60.0,75.0
437,102.86125000416666,103.24083735625,55.0,69.0
438,102.86125000416666,103.3750117375,64.0,74.0
439,103.41170900416667,103.64794765833334,55.0,68.0
440,102.44985212916667,103.684644925,36.0,14.0
441,103.41170900416667,103.71560824375,60.0,72.0
442,103.68693850416666,103.80161746249999,48.0,81.0
443,104.78682337916666,105.34988692083333,48.0,61.0
444,104.78682337916666,105.51655372916666,55.0,49.0
445,104.78682337916666,105.55934655833333,64.0,45.0
446,104.78682337916666,105.61340065833333,59.0,64.0
447,106.13817587916667,106.32849135625,55.0,69.0
448,106.13817587916667,106.34313100833333,59.0,72.0
449,104.92195862916667,106.38479771041666,36.0,48.0
450,106.13817587916667,106.57623931458333,64.0,75.0
451,106.40844637916666,106.69223040416666,40.0,62.0
452,106.67871687916666,107.1426812375,57.0,65.0
453,106.67871687916666,107.25304169166667,64.0,61.0
454,106.67871687916666,107.33074446041667,60.0,77.0
455,108.03006937916666,108.16070012083333,57.0,48.0
456,108.03006937916666,108.17984428125,60.0,65.0
457,108.03006937916666,108.26092543125,65.0,60.0
458,107.89493412916667,108.26317768541666,53.0,23.0
459,106.67871687916666,108.47038506874999,41.0,69.0
460,108.57061037916667,108.84876376874999,72.0,56.0
461,109.11115137916667,109.16520547916666,62.0,25.0
462,109.11115137916667,109.76205283333333,67.0,72.0
463,109.11115137916667,109.919710625,64.0,33.0
464,109.11115137916667,109.96137732708333,71.0,70.0
465,110.19223337916667,110.40507139791666,62.0,25.0
466,109.11115137916667,110.79358524166666,60.0,44.0
467,111.54358587916667,111.69336078125,84.0,69.0
468,111.81385637916667,112.12804583541666,83.0,62.0
469,112.08412687916666,112.35664963333333,79.0,46.0
470,112.35439737916667,112.70687515624999,72.0,77.0
471,111.27331537916666,112.82399237291666,60.0,46.0
472,109.11115137916667,112.90394739583333,55.0,49.0
473,109.11115137916667,112.9534969875,48.0,56.0
474,112.75980312916667,113.17196564166666,74.0,69.0
475,113.43547937916667,113.97939876041667,64.0,68.0
476,113.16520887916667,114.38367838333333,72.0,71.0
477,114.24629087916666,114.74066066875,57.0,49.0
478,113.43547937916667,114.84989499583332,45.0,54.0
479,114.78683187916667,115.00530053333333,67.0,82.0
480,114.78683187916667,115.00980504166667,62.0,61.0
481,115.05710237916666,115.31498548124999,72.0,53.0
482,115.32737287916666,115.69561643541667,67.0,69.0
483,115.32737287916666,115.74403989999999,71.0,71.0
484,115.32737287916666,115.78120209375,62.0,55.0
485,115.32737287916666,116.13030148958333,52.0,51.0
486,116.40845487916667,116.74854525833334,59.0,67.0
487,116.40845487916667,116.77669843541666,67.0,84.0
488,116.40845487916667,116.96814003958333,52.0,8.0
489,116.81386062916667,116.96814003958333,52.0,6.0
490,116.94899587916666,117.16859066041667,59.0,76.0
491,115.32737287916666,117.23390603125,40.0,53.0
492,116.94899587916666,117.23503215833333,62.0,80.0
493,117.21926637916667,117.271068225,52.0,67.0
494,117.75980737916666,118.28683485416667,53.0,59.0
495,117.75980737916666,118.34426733541666,60.0,71.0
496,117.75980737916666,118.3724205125,65.0,62.0
497,117.75980737916666,118.42760073958333,57.0,65.0
498,118.57061887916666,118.92872729166666,53.0,38.0
499,118.84088937916667,119.21138518958332,57.0,65.0
500,118.84088937916667,119.27895281458333,60.0,74.0
501,118.84088937916667,119.30710599166666,65.0,69.0
502,119.11115987916666,119.48503407083334,53.0,49.0
503,119.38143037916666,119.6359351,64.0,69.0
504,117.75980737916666,119.95800744583333,41.0,56.0
505,119.65170087916667,120.00643091041667,65.0,77.0
506,119.65170087916667,120.18773737083333,57.0,64.0
507,119.65170087916667,120.29584557083334,60.0,72.0
508,120.46251237916667,120.61228728124999,57.0,58.0
509,120.19224187916666,120.75868380208333,53.0,57.0
510,120.73278287916666,121.26318873541666,57.0,64.0
511,120.73278287916666,121.29922480208333,65.0,77.0
512,120.73278287916666,121.32287347083333,60.0,82.0
513,120.19224187916666,121.63030616458333,41.0,12.0
514,121.54359437916666,121.85440545416667,57.0,74.0
515,121.27332387916667,121.973774925,53.0,66.0
516,122.08413537916667,122.76882064583333,57.0,71.0
517,122.08413537916667,122.84089277916667,65.0,79.0
518,121.81386487916666,122.92760456458333,60.0,75.0
519,122.92760456458333,123.8183710875,55.0,59.0
520,123.66521780416666,123.87580356875,65.0,60.0
521,123.86003778958333,124.0210739625,67.0,65.0
522,124.00981269166667,124.09765060416666,68.0,75.0
523,124.19562366041666,124.36566884999999,72.0,64.0
524,124.39607428125,124.62805646041666,74.0,57.0
525,124.61341680833333,124.67197541666667,76.0,39.0
526,124.87017378333333,124.98954325416666,77.0,56.0
527,125.17422809583333,125.26769664375,78.0,57.0
528,125.42760668958333,125.54585003333332,79.0,57.0
529,125.70801233333333,125.85328272708333,84.0,58.0
530,125.98166121458333,126.04922883958332,86.0,57.0
531,126.29922905208333,126.4003221875,89.0,53.0
532,126.641148,127.02188214166667,90.0,53.0
533,127.19734094791666,127.30743274791666,91.0,59.0
534,124.48391219375,127.46798328958333,55.0,9.0
535,122.6697214625,127.71454305,50.0,48.0
536,122.08413537916667,127.7351852625,43.0,65.0
537,128.6102993791667,129.2657053416667,62.0,48.0
538,128.6102993791667,129.3039936625,64.0,50.0
539,128.6102993791667,129.32201169583334,67.0,61.0
540,129.69138137916667,130.35354410416667,62.0,34.0
541,129.69138137916667,130.38169728125,64.0,42.0
542,129.69138137916667,130.39295855208334,67.0,42.0
543,130.77246337916668,131.25444577083334,62.0,32.0
544,130.77246337916668,131.29498634583334,64.0,35.0
545,130.77246337916668,131.29836472708334,67.0,45.0
546,131.58327487916668,132.00106802708333,60.0,48.0
547,131.8535453791667,132.02133831458335,67.0,79.0
548,131.8535453791667,132.27584303541667,62.0,66.0
549,128.6102993791667,132.37381609166667,55.0,49.0
550,128.6102993791667,132.42899631875002,48.0,51.0
551,132.39408637916668,132.58890636458335,62.0,58.0
552,132.93462737916667,133.49093415833335,60.0,50.0
553,132.93462737916667,133.51120444583336,67.0,46.0
554,132.93462737916667,133.5134567,55.0,51.0
555,134.01570937916668,134.57764679375,67.0,32.0
556,134.01570937916668,134.61030447916667,60.0,46.0
557,134.01570937916668,134.62043962291668,64.0,40.0
558,134.01570937916668,134.64859280000002,55.0,35.0
559,132.93462737916667,134.95715162083334,52.0,59.0
560,132.93462737916667,134.97066514583335,45.0,44.0
561,135.0967913791667,135.61931434583335,62.0,62.0
562,135.0967913791667,135.69926936875,55.0,41.0
563,135.0967913791667,135.72742254583335,59.0,61.0
564,136.17787337916667,136.48643220000002,55.0,61.0
565,135.0967913791667,136.56526109583334,40.0,50.0
566,135.9076028791667,136.68012605833334,52.0,46.0
567,136.44814387916668,136.7724684791667,62.0,53.0
568,136.7184143791667,136.91661274583333,67.0,74.0
569,137.25895537916668,137.76796482083336,65.0,52.0
570,137.25895537916668,137.79949637916667,57.0,49.0
571,137.25895537916668,137.85692886041667,60.0,58.0
572,138.3400373791667,138.73080347708336,57.0,44.0
573,137.25895537916668,138.74769538333334,41.0,47.0
574,138.3400373791667,138.80850624583334,60.0,56.0
575,138.3400373791667,138.83778555,65.0,49.0
576,137.25895537916668,138.8850828875,53.0,55.0
577,139.4226834416667,139.84398007500002,64.0,48.0
578,139.4226834416667,139.8752301,60.0,49.0
579,140.25601744166667,140.475925025,59.0,55.0
580,140.53379544166668,140.66342517500001,60.0,62.0
581,139.4226834416667,140.92384205000002,45.0,51.0
582,139.70046144166668,141.00138840833336,52.0,43.0
583,139.9782394416667,141.05347178333335,57.0,39.0
584,140.8115734416667,141.10786997500003,64.0,54.0
585,141.08935144166668,141.36944425833335,67.0,73.0
586,141.3671294416667,141.74582094375003,72.0,48.0
587,141.6433433791667,142.36744309375004,65.0,56.0
588,141.6433433791667,142.38771338125002,69.0,51.0
589,141.6433433791667,142.39221788958335,60.0,57.0
590,142.7244253791667,142.96316432083336,65.0,54.0
591,142.7244253791667,142.97104721041669,69.0,53.0
592,141.6433433791667,143.00933553125003,57.0,50.0
593,142.7244253791667,143.02622743750004,60.0,52.0
594,141.6433433791667,143.03974096250002,50.0,45.0
595,143.8055073791667,144.13546261458336,65.0,49.0
596,143.8055073791667,144.16812030000003,57.0,48.0
597,143.8055073791667,144.17938157083336,60.0,57.0
598,143.8055073791667,144.48568813750003,43.0,46.0
599,144.3460483791667,144.5183458229167,55.0,68.0
600,144.0757778791667,144.53636385625003,50.0,48.0
601,144.6163188791667,145.01609399375002,60.0,71.0
602,144.8865893791667,145.67825671875002,56.0,57.0
603,144.8865893791667,145.73681532708335,65.0,61.0
604,145.8325361291667,145.99049350625003,60.0,47.0
605,145.9687045041667,146.10287888541671,62.0,50.0
606,146.1063192541667,146.15563120625004,65.0,69.0
607,144.8865893791667,147.36549421666672,43.0,53.0
608,144.8865893791667,147.44232911875002,55.0,51.0
609,148.9803188791667,149.4127516791667,62.0,60.0
610,148.7100483791667,149.64022935000003,60.0,51.0
611,149.5208598791667,149.65149062083336,67.0,77.0
612,148.43977787916668,149.83392320833335,55.0,49.0
613,148.1695073791667,149.83617546250002,48.0,44.0
614,150.06140087916668,150.29225693125002,62.0,53.0
615,150.06140087916668,150.43414894375002,67.0,72.0
616,151.1424828791667,151.52649221458336,60.0,52.0
617,150.3316713791667,151.56027602708335,48.0,48.0
618,151.4127533791667,151.61320400000002,67.0,70.0
619,151.4127533791667,151.70892480208335,76.0,60.0
620,150.87221237916668,151.78437531666668,55.0,38.0
621,151.8181591291667,151.90712316875002,74.0,55.0
622,151.8181591291667,151.9701862854167,67.0,61.0
623,152.2235648791667,152.38009654375003,72.0,66.0
624,152.4948685041667,152.75404295000004,72.0,37.0
625,153.3205570041667,153.66574066875003,59.0,56.0
626,153.0453275041667,153.8950985854167,57.0,55.0
627,154.1462455041667,154.21390608958336,57.0,60.0
628,152.7700980041667,154.28156667500002,52.0,45.0
629,152.4948685041667,154.30564925625004,45.0,56.0
630,153.8710160041667,154.3561079979167,60.0,82.0
631,154.69608462916668,155.16455349583336,52.0,42.0
632,154.69608462916668,155.2940581104167,59.0,53.0
633,154.4214750041667,155.31432839791668,62.0,52.0
634,154.69608462916668,155.31432839791668,62.0,19.0
635,154.69608462916668,155.32896805000001,67.0,70.0
636,155.7771666291667,156.05982452708335,62.0,57.0
637,155.7771666291667,156.14991469375002,55.0,65.0
638,154.69608462916668,156.3447346791667,40.0,48.0
639,156.0474371291667,156.34586080625002,60.0,69.0
640,155.50689612916668,156.40329328750002,52.0,39.0
641,156.31770762916668,156.50239247083334,62.0,58.0
642,156.5879781291667,156.73662690416668,67.0,61.0
643,156.85876040000002,157.49853248750003,57.0,61.0
644,156.85876040000002,157.68489593750002,64.0,67.0
645,156.85876040000002,157.72353226250002,60.0,72.0
646,156.85876040000002,158.3894406875,41.0,48.0
647,157.9496684,158.45648607500002,57.0,55.0
648,156.85876040000002,158.542849625,53.0,57.0
649,157.9496684,158.6280768125,64.0,66.0
650,157.9496684,158.70307673750003,60.0,71.0
651,159.0400646291667,159.45673165000002,59.0,49.0
652,159.0400646291667,159.63578585625,62.0,61.0
653,159.8508761291667,160.18308361875,59.0,49.0
654,159.8508761291667,160.24502060833333,62.0,67.0
655,159.58060562916668,160.4589847541667,57.0,47.0
656,159.31033512916667,160.62452543541667,52.0,53.0
657,159.0400646291667,160.63691283333335,45.0,57.0
658,160.39141712916668,160.74164265208336,60.0,72.0
659,160.39141712916668,160.76754357500002,64.0,65.0
660,161.20222862916668,161.56258929583333,55.0,62.0
661,161.20222862916668,161.79682372916668,62.0,61.0
662,161.20222862916668,161.82272465208334,59.0,60.0
663,161.20222862916668,161.83511205000002,67.0,55.0
664,161.20222862916668,161.9229499625,43.0,48.0
665,162.28382240000002,162.9463217375,43.0,49.0
666,162.28382240000002,162.9804126125,55.0,53.0
667,162.28382240000002,162.9963216875,57.0,56.0
668,162.28382240000002,163.02245802500002,60.0,68.0
669,162.28382240000002,163.13950336250002,65.0,61.0
670,163.3747304,163.5690483875,55.0,54.0
671,163.3747304,163.69404826250002,60.0,61.0
672,163.3747304,163.77245727500002,64.0,56.0
673,164.1929114,164.8145016875,62.0,73.0
674,163.6474574,164.94972882500002,55.0,38.0
675,163.9201844,165.80553168333336,60.0,57.0
676,164.73836540000002,166.59124555000002,67.0,77.0
677,165.28381940000003,166.69392406666668,55.0,35.0
678,163.3747304,166.70620084583337,48.0,60.0
679,165.8233888166667,166.73521868750004,64.0,47.0
680,166.6269598166667,167.20731665000002,67.0,69.0
681,166.6269598166667,167.22517378333336,62.0,69.0
682,166.6269598166667,167.22740592500003,43.0,65.0
683,167.16267381666668,167.69940240000003,55.0,69.0
684,167.69940240000003,168.38349262500003,64.0,66.0
685,167.69940240000003,168.4346289375,67.0,68.0
686,168.7903104,169.26530992500003,62.0,77.0
687,168.7903104,169.38803707500003,67.0,79.0
688,169.33576440000002,169.39485525,64.0,73.0
689,168.24485640000003,169.51076422500003,55.0,59.0
690,167.69940240000003,169.6073550375,48.0,74.0
691,168.5175834,169.8119002875,60.0,66.0
692,169.60849140000002,169.92113938125001,55.0,27.0
693,169.60849140000002,170.28200885625003,64.0,69.0
694,169.60849140000002,170.71679135625,72.0,68.0
695,170.66135658750002,170.88526957500002,62.0,64.0
696,170.4004870875,170.99722606875002,60.0,67.0
697,170.66135658750002,171.17766080625,71.0,79.0
698,170.13961758750003,171.3004868625,55.0,61.0
699,171.18309558750002,171.47657377500002,62.0,77.0
700,169.8787480875,171.50266072500003,48.0,59.0
701,171.4439650875,171.5352694125,55.0,57.0
702,171.18309558750002,171.72548675625,67.0,74.0
703,171.70483458750002,171.91356865833333,62.0,59.0
704,171.90048671250003,172.16799274166667,55.0,66.0
705,171.93790487500002,172.52308026666668,60.0,75.0
706,171.96666585833333,172.71113285,64.0,70.0
707,172.76312385833333,173.12706091666666,60.0,74.0
708,172.49763785833335,173.37042308333335,57.0,49.0
709,173.29409585833335,173.577280925,59.0,66.0
710,173.29409585833335,173.67573198333335,62.0,78.0
711,171.96666585833333,173.71223630833333,45.0,71.0
712,173.55958185833333,173.78635115,57.0,42.0
713,172.23215185833334,173.90028889166666,52.0,69.0
714,173.82506785833334,173.92683749166667,60.0,82.0
715,173.82506785833334,173.96112943333333,64.0,75.0
716,174.88701185833332,174.94785240000002,64.0,54.0
717,174.88701185833332,175.0009496,72.0,82.0
718,174.35603985833333,175.14807309166667,52.0,55.0
719,175.15249785833333,175.223294125,62.0,68.0
720,175.15249785833333,175.23767461666668,71.0,75.0
721,174.62152585833334,175.32727614166666,57.0,45.0
722,175.28524085833334,175.62373550833334,52.0,38.0
723,175.55072685833335,175.66908936666667,59.0,52.0
724,174.09055385833332,175.68457605,45.0,55.0
725,175.55072685833335,175.714443225,67.0,81.0
726,175.94895585833333,176.17461895833333,62.0,61.0
727,176.2146295625,176.6231114875,50.0,53.0
728,176.2146295625,176.85525422083333,65.0,60.0
729,176.2146295625,176.95012024166667,57.0,61.0
730,176.2146295625,176.98025415416666,60.0,65.0
731,177.0182005625,177.4668610375,50.0,40.0
732,177.2860575625,177.87311082083335,60.0,74.0
733,177.2860575625,177.87757510416668,57.0,64.0
734,177.2860575625,177.8853876,65.0,67.0
735,176.2146295625,177.89543223750002,38.0,56.0
736,178.0896285625,178.25815525833335,57.0,60.0
737,178.35748556250002,178.5717711625,38.0,59.0
738,178.6253425625,178.68337824583332,60.0,74.0
739,178.6253425625,178.75034249583334,57.0,63.0
740,178.6253425625,178.92891382916667,65.0,74.0
741,177.8217715625,179.29052077916668,50.0,41.0
742,179.1610565625,179.35413681666668,55.0,73.0
743,179.1610565625,179.50034209583333,60.0,63.0
744,179.1610565625,179.54052064583334,64.0,73.0
745,179.42891356250001,179.7068152,50.0,49.0
746,179.42891356250001,179.90324366666667,38.0,42.0
747,179.6967705625,180.12757390416667,60.0,75.0
748,179.6967705625,180.12868997500001,57.0,76.0
749,179.9646275625,180.14877925000002,50.0,61.0
750,179.6967705625,180.16105602916667,65.0,79.0
751,180.2324845625,180.3061452375,40.0,66.0
752,180.5003415625,181.0561448375,65.0,75.0
753,180.5003415625,181.173332275,57.0,65.0
754,180.5003415625,181.21239475416667,60.0,76.0
755,181.30391256250002,181.60971597083335,57.0,64.0
756,181.5717695625,181.86529619166666,60.0,78.0
757,181.8396265625,181.96462649583333,64.0,72.0
758,180.5003415625,182.177796025,41.0,68.0
759,181.0360555625,182.29163525,53.0,39.0
760,182.1074835625,182.29386739166668,65.0,66.0
761,182.3753405625,182.65547434166666,69.0,80.0
762,182.6431975625,182.89672450416668,72.0,86.0
763,182.6431975625,182.90892258750003,65.0,77.0
764,182.6431975625,182.98821012916667,53.0,59.0
765,182.6431975625,183.0577392041667,41.0,54.0
766,183.21196918750002,183.49537533333336,60.0,64.0
767,183.21196918750002,183.50209905208337,65.0,52.0
768,183.21196918750002,183.54513085208336,41.0,42.0
769,183.21196918750002,183.57068098333335,53.0,54.0
770,183.21196918750002,183.65674458333336,69.0,78.0
771,183.84864277083338,184.1344364479167,67.0,77.0
772,183.84864277083338,184.17639298958338,60.0,62.0
773,183.84864277083338,184.4086524166667,43.0,53.0
774,184.55704685416669,184.7859084541667,67.0,49.0
775,184.55704685416669,184.86409368958337,55.0,56.0
776,184.55704685416669,184.89624592500002,43.0,59.0
777,185.32164958333337,185.56941730833339,60.0,83.0
778,185.32164958333337,185.6207565666667,64.0,73.0
779,186.12522058333337,186.43660434583336,62.0,74.0
780,186.39307758333337,186.43660434583336,62.0,10.0
781,186.12522058333337,186.49240788750004,67.0,90.0
782,186.39307758333337,186.49240788750004,67.0,13.0
783,185.58950658333336,186.67990778750004,55.0,61.0
784,186.6609345833334,186.72678276250005,64.0,67.0
785,185.85736358333338,186.7457559666667,60.0,71.0
786,185.32164958333337,186.87633625416672,48.0,61.0
787,186.92879158333338,187.25245212500005,55.0,58.0
788,187.19664858333337,187.61053700833338,67.0,75.0
789,187.4660415208334,187.63347280000005,79.0,66.0
790,187.4660415208334,187.7630600229167,48.0,59.0
791,187.74127102083338,187.9270509333334,74.0,62.0
792,187.74127102083338,187.9901243604167,55.0,58.0
793,188.01650052083338,188.2710878083334,76.0,72.0
794,188.01650052083338,188.3341612354167,60.0,64.0
795,188.01650052083338,188.61168431458339,67.0,69.0
796,188.5669595208334,188.6816384791667,64.0,70.0
797,188.29173002083337,188.70342748125006,72.0,89.0
798,188.29173002083337,188.73783116875003,62.0,74.0
799,188.8421890208334,189.00159277291672,67.0,82.0
800,189.11741852083338,189.39035444166672,71.0,77.0
801,189.5302627708334,189.6138862541667,71.0,29.0
802,189.39264802083338,189.70986834583337,47.0,54.0
803,189.66634158333338,190.13174312083336,45.0,64.0
804,189.93419858333337,190.25562698333337,52.0,61.0
805,190.20205558333336,190.59044823333338,55.0,58.0
806,189.66634158333338,190.78687670000002,64.0,61.0
807,189.66634158333338,190.79134098333336,67.0,72.0
808,189.66634158333338,190.80473383333336,72.0,78.0
809,190.73776958333337,190.9866533791667,60.0,61.0
810,190.46991258333335,191.00785872500003,57.0,51.0
811,191.00562658333337,191.19647469583336,64.0,64.0
812,191.27348358333336,191.5591977166667,71.0,77.0
813,191.54134058333338,191.8305679354167,67.0,84.0
814,191.54134058333338,191.9066548729167,62.0,65.0
815,191.9381766041667,192.2110026229167,67.0,20.0
816,192.0686113541667,192.6870894604167,52.0,58.0
817,192.5903503541667,192.7686111791667,59.0,68.0
818,192.5903503541667,192.8381763791667,64.0,70.0
819,192.3294808541667,192.9631763479167,57.0,54.0
820,192.8512198541667,193.2283936729167,52.0,46.0
821,191.8077418541667,193.3468719041667,45.0,56.0
822,193.1120893541667,193.3860023291667,57.0,50.0
823,193.1120893541667,193.4479588354167,62.0,81.0
824,193.6338283541667,193.7751326666667,64.0,64.0
825,193.5033936041667,193.7946978791667,62.0,40.0
826,193.895659625,194.1379156,38.0,68.0
827,194.16114562500002,194.473091675,50.0,53.0
828,193.895659625,194.7363652916667,65.0,61.0
829,193.895659625,194.76402008333335,57.0,65.0
830,193.895659625,194.76402008333335,60.0,60.0
831,194.42663162500003,195.26623110000003,52.0,66.0
832,194.692117625,195.27618682500002,53.0,65.0
833,194.95760362500002,195.29609827500002,57.0,71.0
834,195.22308962500003,195.52397375833334,60.0,76.0
835,195.488575625,195.82264550833335,64.0,68.0
836,195.75406162500002,195.85472506666667,40.0,71.0
837,195.75406162500002,195.860256025,65.0,64.0
838,196.019547625,196.371316575,57.0,54.0
839,196.019547625,196.38459087500001,60.0,65.0
840,196.019547625,196.3945466,65.0,66.0
841,196.55051962500002,196.70759884166668,57.0,54.0
842,196.285033625,196.98414675833334,53.0,57.0
843,196.816005625,197.18436745000002,57.0,68.0
844,196.816005625,197.3547209666667,65.0,78.0
845,196.816005625,197.35693335000002,60.0,74.0
846,197.34697762500002,197.66777320833336,53.0,55.0
847,196.019547625,197.89233011666667,41.0,70.0
848,197.612463625,197.89564869166668,64.0,80.0
849,197.877949625,197.931046825,65.0,65.0
850,197.877949625,197.94321493333334,53.0,37.0
851,197.612463625,197.960914,57.0,74.0
852,197.877949625,198.06047125,60.0,69.0
853,198.14343562500002,198.6290537666667,59.0,68.0
854,198.14343562500002,198.69763765000002,67.0,89.0
855,198.14343562500002,198.75073485000001,60.0,78.0
856,198.93989362500002,199.15781338333335,57.0,61.0
857,198.67440762500001,199.24188395000002,55.0,69.0
858,199.205379625,199.44321083333335,57.0,35.0
859,199.205379625,199.557148575,60.0,86.0
860,198.14343562500002,199.83480268333335,43.0,68.0
861,199.47086562500002,199.862457475,55.0,62.0
862,198.408921625,200.1124567916667,50.0,64.0
863,199.73635162500003,200.17661590833336,62.0,61.0
864,200.26732362500002,200.95979960833336,56.0,52.0
865,200.26732362500002,201.06710020000003,65.0,49.0
866,200.26732362500002,201.15006457500002,60.0,47.0
867,200.26732362500002,201.7042666,55.0,53.0
868,201.329267625,201.81931053333335,57.0,72.0
869,200.26732362500002,201.82705387500002,43.0,47.0
870,201.329267625,201.90338110000002,65.0,60.0
871,201.329267625,201.9774959416667,60.0,64.0
872,202.391211625,202.97306844166667,64.0,53.0
873,202.391211625,203.0693071166667,60.0,66.0
874,202.391211625,203.0792628416667,55.0,65.0
875,202.391211625,203.52505808333333,48.0,59.0
876,203.45315562500002,203.7993936166667,55.0,70.0
877,203.45315562500002,203.81488030000003,62.0,71.0
878,202.391211625,204.057136275,36.0,47.0
879,203.718641625,204.39894950000001,48.0,58.0
880,204.24961362500002,204.57040920833336,60.0,75.0
881,203.984127625,204.5715154,55.0,67.0
882,204.24961362500002,204.5715154,55.0,32.0
883,204.24961362500002,204.59363923333333,65.0,79.0
884,204.78058562500001,205.1400979166667,60.0,75.0
885,204.78058562500001,205.14673506666668,55.0,69.0
886,204.78058562500001,205.27615949166668,64.0,74.0
887,205.311557625,205.53943310833336,55.0,68.0
888,204.382356625,205.5748312416667,36.0,14.0
889,205.311557625,205.60469841666668,60.0,72.0
890,205.57704362500002,205.68766279166667,48.0,81.0
891,206.63898762500003,207.30491500833335,64.0,66.0
892,206.63898762500003,207.35469363333334,67.0,68.0
893,207.700931625,208.16331974166667,62.0,77.0
894,207.700931625,208.28278844166667,67.0,79.0
895,208.231903625,208.28942559166669,64.0,73.0
896,207.16995962500002,208.40225714166667,55.0,59.0
897,206.63898762500003,208.49628343333336,48.0,74.0
898,207.435445625,208.69539793333334,60.0,66.0
899,208.497389625,208.80601710000002,55.0,27.0
900,208.497389625,209.17327273333333,64.0,69.0
901,208.497389625,209.61574940000003,72.0,68.0
902,209.55933362500002,209.78720910833334,62.0,64.0
903,209.293847625,209.90114685,60.0,67.0
904,209.55933362500002,210.08477466666668,71.0,79.0
905,209.028361625,210.209774325,55.0,61.0
906,210.090305625,210.38897737500002,62.0,77.0
907,208.76287562500002,210.415525975,48.0,59.0
908,210.35579162500002,210.448711725,55.0,57.0
909,210.090305625,210.64229526666668,67.0,74.0
910,210.621277625,210.83366642500002,62.0,59.0
911,210.820392125,211.08809050833335,55.0,66.0
912,210.85800264166667,211.44317803333334,60.0,75.0
913,210.88676362500001,211.63123061666667,64.0,70.0
914,211.68322162500002,212.04715868333335,60.0,74.0
915,211.417735625,212.29052085,57.0,49.0
916,212.214193625,212.49737869166668,59.0,66.0
917,212.214193625,212.59582975,62.0,78.0
918,210.88676362500001,212.63233407500002,45.0,71.0
919,212.47967962500002,212.7064489166667,57.0,42.0
920,211.15224962500002,212.82038665833335,52.0,69.0
921,212.74516562500003,212.84693525833336,60.0,82.0
922,212.74516562500003,212.8812272,64.0,75.0
923,213.807109625,213.86795016666667,64.0,54.0
924,213.807109625,213.92104736666667,72.0,82.0
925,213.27613762500002,214.06817085833336,52.0,55.0
926,214.07259562500002,214.14339189166668,62.0,68.0
927,214.07259562500002,214.15777238333334,71.0,75.0
928,213.541623625,214.24737390833334,57.0,45.0
929,214.20533862500002,214.54383327500003,52.0,38.0
930,214.470824625,214.58918713333335,59.0,52.0
931,213.010651625,214.6046738166667,45.0,55.0
932,214.470824625,214.63454099166668,67.0,81.0
933,214.86905362500002,215.094716725,62.0,61.0
934,215.134539625,215.539405775,50.0,53.0
935,215.134539625,215.76949364166668,65.0,60.0
936,215.134539625,215.86351993333335,57.0,61.0
937,215.134539625,215.89338710833334,60.0,65.0
938,215.930997625,216.37568667500003,50.0,40.0
939,216.196483625,216.77834044166667,60.0,74.0
940,216.196483625,216.78276520833336,57.0,64.0
941,216.196483625,216.79050855000003,65.0,67.0
942,215.134539625,216.80046427500002,38.0,56.0
943,216.99294162500001,217.15997656666667,57.0,60.0
944,217.25842762500002,217.470816425,38.0,59.0
945,217.523913625,217.5814355916667,60.0,74.0
946,217.523913625,217.6478070916667,57.0,63.0
947,217.523913625,217.82479775833335,65.0,74.0
948,216.727455625,218.18320385833334,50.0,41.0
949,218.05488562500003,218.24625678333334,55.0,73.0
950,218.05488562500003,218.39116789166667,60.0,63.0
951,218.05488562500003,218.4309907916667,64.0,73.0
952,218.320371625,218.59581335000001,50.0,49.0
953,218.320371625,218.79050308333336,38.0,42.0
954,218.58585762500002,219.01284760833335,60.0,75.0
955,218.58585762500002,219.01395380000002,57.0,76.0
956,218.85134362500003,219.03386525000002,50.0,61.0
957,218.58585762500002,219.04603335833335,65.0,79.0
958,219.116829625,219.189838275,40.0,66.0
959,219.38231562500002,219.933199075,65.0,75.0
960,219.38231562500002,220.04934920000002,57.0,65.0
961,219.38231562500002,220.08806590833336,60.0,76.0
962,220.17877362500002,220.4818701416667,57.0,64.0
963,220.44425962500003,220.73518803333334,60.0,78.0
964,220.709745625,220.83363909166667,64.0,72.0
965,219.38231562500002,221.0449217,41.0,68.0
966,219.913287625,221.15775325,53.0,39.0
967,220.97523162500002,221.15996563333334,65.0,66.0
968,221.240717625,221.51897436250002,69.0,80.0
969,221.50669758333336,221.760224525,72.0,86.0
970,221.50669758333336,221.77242260833336,65.0,77.0
971,221.50669758333336,221.85171015,53.0,59.0
972,221.50669758333336,221.92123922500002,41.0,54.0
973,222.07546920833335,222.35887535416668,60.0,64.0
974,222.07546920833335,222.3655990729167,65.0,52.0
975,222.07546920833335,222.4086308729167,41.0,42.0
976,222.07546920833335,222.43418100416667,53.0,54.0
977,222.07546920833335,222.5202446041667,69.0,78.0
978,222.7121427916667,222.99793646875003,67.0,77.0
979,222.7121427916667,223.0398930104167,60.0,62.0
980,222.7121427916667,223.27215243750004,43.0,53.0
981,223.420546875,223.64940847500003,67.0,49.0
982,223.420546875,223.7275937104167,55.0,56.0
983,223.420546875,223.75974594583334,43.0,59.0
984,223.420546875,223.7885137354167,56.0,65.0
985,224.1856423604167,224.4356425729167,60.0,83.0
986,224.1856423604167,224.48744441875004,64.0,73.0
987,224.9964538604167,225.3106433166667,62.0,74.0
988,225.2667243604167,225.3106433166667,62.0,10.0
989,224.9964538604167,225.36694967083338,67.0,90.0
990,225.2667243604167,225.36694967083338,67.0,13.0
991,224.4559128604167,225.55613902083337,55.0,61.0
992,225.5369948604167,225.60343635833337,64.0,67.0
993,224.7261833604167,225.62258051875003,60.0,71.0
994,224.1856423604167,225.75433738750004,48.0,61.0
995,225.8072653604167,226.13384221458335,55.0,58.0
996,226.0775358604167,226.4896983729167,67.0,75.0
997,226.3478063604167,226.51222091458337,79.0,66.0
998,226.3478063604167,226.63947327500003,48.0,59.0
999,226.6180768604167,226.8005094479167,74.0,62.0
1000,226.6180768604167,226.86244643750004,55.0,58.0
1001,226.8883473604167,227.1383475729167,76.0,72.0
1002,226.8883473604167,227.20028456250003,60.0,64.0
1003,226.8883473604167,227.4728073166667,67.0,69.0
1004,227.4288883604167,227.54150106875002,64.0,70.0
1005,227.1586178604167,227.56289748333336,72.0,89.0
1006,227.1586178604167,227.59668129583338,62.0,74.0
1007,227.6991588604167,227.85569052500003,67.0,82.0
1008,227.9694293604167,228.23744760625004,71.0,77.0
1009,228.3748351104167,228.45704238750002,71.0,29.0
1010,228.2396998604167,228.5538893166667,47.0,54.0
1011,228.5099703604167,228.9795653541667,45.0,64.0
1012,228.7802408604167,229.1045654604167,52.0,61.0
1013,229.0505113604167,229.4424035854167,55.0,58.0
1014,228.5099703604167,229.64060195208336,64.0,61.0
1015,228.5099703604167,229.6451064604167,67.0,72.0
1016,228.5099703604167,229.6586199854167,72.0,78.0
1017,229.5910523604167,229.84217870000003,60.0,61.0
1018,229.3207818604167,229.86357511458337,57.0,51.0
1019,229.8613228604167,230.0538905916667,64.0,64.0
1020,230.1315933604167,230.41988189375004,71.0,77.0
1021,230.4018638604167,230.69436761458337,67.0,84.0
1022,230.4018638604167,230.77180103125005,62.0,65.0
1023,230.80388058958337,231.0815346979167,67.0,20.0
1024,230.93662358958338,231.56604664791672,52.0,58.0
1025,231.46759558958337,231.6490110229167,59.0,68.0
1026,231.46759558958337,231.71980728958337,64.0,70.0
1027,231.2021095895834,231.84701933125004,57.0,54.0
1028,231.73308158958338,232.1169300979167,52.0,46.0
1029,230.67113758958337,232.23750498958339,45.0,56.0
1030,231.9985675895834,232.27732788958338,57.0,50.0
1031,231.9985675895834,232.34038081458337,62.0,81.0
1032,232.52953958958338,232.67334450625003,64.0,64.0
1033,232.39679658958337,232.69325595625003,62.0,40.0
1034,232.79406381875003,233.03210723750004,38.0,68.0
1035,233.05493331875005,233.36145498125003,50.0,53.0
1036,232.79406381875003,233.62015056875003,65.0,61.0
1037,232.79406381875003,233.64732447500003,57.0,65.0
1038,232.79406381875003,233.64732447500003,60.0,60.0
1039,233.31580281875003,234.14080261250004,52.0,66.0
1040,233.57667231875004,234.15058521875002,53.0,65.0
1041,233.83754181875003,234.17015043125002,57.0,71.0
1042,234.09841131875004,234.39406341875002,60.0,76.0
1043,234.35928081875002,234.68754160625002,64.0,68.0
1044,234.62015031875004,234.71906333750005,40.0,71.0
1045,234.62015031875004,234.72449811875003,65.0,64.0
1046,234.8829783604167,235.24108677291667,57.0,54.0
1047,234.8829783604167,235.25460029791668,60.0,65.0
1048,234.8829783604167,235.2647354416667,65.0,66.0
1049,235.4235193604167,235.58342940625002,57.0,54.0
1050,235.15324886041668,235.86496117708336,53.0,57.0
1051,235.6937898604167,236.06879017916668,57.0,68.0
1052,235.6937898604167,236.24221375000002,65.0,78.0
1053,235.6937898604167,236.2444660041667,60.0,74.0
1054,236.2343308604167,236.56090771458335,53.0,55.0
1055,234.8829783604167,236.7895115125,41.0,70.0
1056,236.5046013604167,236.79288989375002,64.0,80.0
1057,236.77487186041668,236.82892596041668,65.0,65.0
1058,236.77487186041668,236.84131335833337,53.0,37.0
1059,236.5046013604167,236.8593313916667,57.0,74.0
1060,236.77487186041668,236.9606828291667,60.0,69.0
1061,237.0451423604167,237.53951215,59.0,68.0
1062,237.0451423604167,237.6093320291667,67.0,89.0
1063,237.0451423604167,237.6633861291667,60.0,78.0
1064,237.8559538604167,238.07780089583335,57.0,61.0
1065,237.58568336041668,238.1633865541667,55.0,69.0
1066,238.1262243604167,238.36834168333334,57.0,35.0
1067,238.1262243604167,238.4843327729167,60.0,86.0
1068,237.0451423604167,238.76699067083337,43.0,68.0
1069,238.39649486041668,238.79514384791668,55.0,62.0
1070,237.3154128604167,239.04964856875003,50.0,64.0
1071,238.6667653604167,239.11496393958336,62.0,61.0
1072,239.20730636041668,239.91226191458335,56.0,52.0
1073,239.20730636041668,240.02149624166668,65.0,49.0
1074,239.20730636041668,240.1059557729167,60.0,47.0
1075,239.20730636041668,240.67014544166668,55.0,53.0
1076,240.2883883604167,240.78726265833336,57.0,72.0
1077,239.20730636041668,240.7951455479167,43.0,47.0
1078,240.2883883604167,240.87284831666668,65.0,60.0
1079,240.2883883604167,240.94829883125,60.0,64.0
1080,241.38185775833335,241.9235248854167,67.0,69.0
1081,241.37622712291667,241.93703841041668,64.0,62.0
1082,241.36834423333335,241.95618257083336,71.0,69.0
1083,241.37960550416668,241.95956095208336,62.0,58.0
1084,242.17915573333335,242.39199375208335,62.0,62.0
1085,242.44830010625003,242.65775974375003,64.0,63.0
1086,242.70393095416668,242.96181405625003,67.0,63.0
1087,242.95505729375003,243.08456190833334,71.0,66.0
1088,243.21744490416668,243.41676939791668,72.0,73.0
1089,243.52262534375,243.6904182791667,76.0,66.0
1090,243.8356886729167,243.98996808333337,79.0,52.0
1091,244.13411235,244.2985269041667,83.0,59.0
1092,241.90212847083336,244.54965324375002,59.0,64.0
1093,244.42690539166668,244.57104965833335,84.0,62.0
1094,241.37847937708335,244.58231092916668,48.0,76.0
1095,241.65100213125,244.58231092916668,55.0,55.0
1096,244.78163542291668,244.94830223125,83.0,72.0
1097,245.15888799583337,245.29852775416668,79.0,75.0
1098,245.54289733125003,245.82330297500002,76.0,63.0
1099,246.09244734791667,246.3289340354167,76.0,53.0
1100,246.36046559375,246.57442973958337,77.0,56.0
1101,246.64988025416667,246.73546591250002,65.0,52.0
1102,246.34132143333335,246.76024070833336,60.0,48.0
1103,246.64988025416667,246.8424479854167,64.0,51.0
1104,246.62397933125,246.88749306875002,76.0,70.0
1105,246.89988046666667,247.19830414375002,77.0,62.0
1106,246.90100659375003,247.29289881875002,60.0,61.0
1107,247.20280865208335,247.36384482500003,76.0,62.0
1108,247.19830414375002,247.61947567291668,65.0,49.0
1109,247.48546655,247.71519647500003,72.0,53.0
1110,246.10708700000004,247.97871021250003,53.0,62.0
1111,247.81992629375003,248.0485300916667,60.0,43.0
1112,247.8086650229167,248.05303460000002,74.0,56.0
1113,248.11947609791667,248.4539358416667,76.0,67.0
1114,248.51699895833335,248.7489811375,67.0,46.0
1115,248.50573768750002,248.7579901541667,74.0,66.0
1116,248.7748820604167,248.93253985208335,72.0,59.0
1117,248.51925121250002,248.97195430000002,52.0,48.0
1118,248.73997212083336,249.01587325625002,60.0,51.0
1119,249.0248822729167,249.24109867291668,67.0,49.0
1120,249.01925163750002,249.31091855208336,64.0,50.0
1121,249.2579905791667,249.36159427083336,65.0,64.0
1122,249.27375635833334,249.51699980833337,79.0,66.0
1123,249.55190974791668,249.75686487708336,67.0,46.0
1124,249.84920729791668,250.00799121666668,72.0,56.0
1125,250.16452288125,250.40889245833336,74.0,53.0
1126,250.4978564979167,250.69830711875002,76.0,56.0
1127,250.90551450208335,251.14425344375002,69.0,47.0
1128,250.8931271041667,251.2039381791667,76.0,60.0
1129,251.20506430625002,251.3559653354167,74.0,66.0
1130,250.88862259583334,251.58569526041668,50.0,59.0
1131,251.17691112916668,251.61047005625002,57.0,44.0
1132,251.51812763541668,251.6431277416667,67.0,59.0
1133,251.51024474583335,251.66114577500002,74.0,73.0
1134,251.5012357291667,251.66790253750003,62.0,53.0
1135,251.86610090416667,252.09808308333336,72.0,46.0
1136,252.33794815208336,252.89875943958336,74.0,53.0
1137,252.32781300833335,252.98209284375002,68.0,55.0
1138,253.22984080208334,253.4336698041667,72.0,72.0
1139,253.4302914229167,253.50686806458336,74.0,54.0
1140,253.64087718750002,253.85709358750003,77.0,40.0
1141,253.85146295208335,253.99898560000003,80.0,48.0
1142,254.06317484375,254.17916593333337,84.0,56.0
1143,254.34020210625002,254.5384004729167,86.0,56.0
1144,254.65889607083335,254.79403132083337,89.0,42.0
1145,254.9606981291667,255.0868243625,92.0,95.0
1146,253.0282640541667,255.44155439375,65.0,55.0
1147,255.3492119729167,255.44943728333334,96.0,91.0
1148,252.30754272083334,255.47759046041668,53.0,61.0
1149,252.85484048333336,255.5868247875,60.0,55.0
1150,252.60821865208337,255.70619425833337,56.0,56.0
1151,256.81542943541666,256.9539430666667,36.0,58.0
1152,256.6498887541667,257.40889840833336,83.0,73.0
1153,256.8052942916667,257.4708353979167,79.0,58.0
1154,256.91227636458336,257.47308765208334,76.0,67.0
1155,256.96633046458334,257.48660117708334,72.0,49.0
1156,257.9516916625,258.1622774270834,62.0,64.0
1157,258.11160170833335,258.22646667083336,64.0,60.0
1158,258.28277302500004,258.4269172916667,67.0,62.0
1159,258.4066470041667,258.48209751875004,71.0,59.0
1160,258.59020571875004,258.7850257041667,72.0,63.0
1161,258.92804384375,259.0789448729167,74.0,27.0
1162,259.00687273958334,259.2377287916667,77.0,62.0
1163,259.2377287916667,259.309800925,83.0,44.0
1164,259.42128750625,259.62173812708335,84.0,75.0
1165,259.69944089583333,260.02376549583335,88.0,44.0
1166,257.78052034583334,260.37286489166667,60.0,72.0
1167,257.58682648750005,260.41565772083334,55.0,55.0
1168,257.35033980000003,260.4933604895833,48.0,64.0
1169,260.3086756479167,260.51250465000004,95.0,54.0
1170,260.7489913375,260.90890138333333,96.0,41.0
1171,261.7580012041667,261.89989321666667,91.0,45.0
