,start,end,pitch,velocity
0,12.655046389583333,12.737979070833333,76.0,85.0
1,12.799277139583333,12.890623281249999,77.0,78.0
2,12.943507889583334,13.03485403125,79.0,74.0
3,13.231969389583332,13.320911685416666,77.0,78.0
4,13.520430889583333,13.616584722916667,76.0,81.0
5,13.808892389583333,13.895430839583334,77.0,80.0
6,14.097353889583333,14.188700031249999,79.0,78.0
7,14.385815389583334,14.481969222916666,77.0,80.0
8,14.674276889583332,14.786055720833334,76.0,81.0
9,14.962738389583333,15.074517220833332,77.0,80.0
10,15.251199889583333,15.372594104166666,79.0,76.0
11,15.539661389583333,15.614180610416666,79.0,76.0
12,15.683892139583334,15.748795977083333,79.0,71.0
13,15.828122889583334,15.969949793749999,79.0,74.0
14,16.116584389583334,16.30168051875,88.0,80.0
15,16.405045889583334,16.98196888958333,84.0,75.0
16,17.270430389583332,17.349757302083333,74.0,81.0
17,17.414661139583334,17.587738039583332,76.0,75.0
18,17.558891889583332,17.669468797916664,77.0,77.0
19,17.847353389583333,17.9783629875,76.0,76.0
20,18.135814889583333,18.271632179166666,77.0,76.0
21,18.424276389583333,18.539660989583332,86.0,79.0
22,18.712737889583334,19.111776297916666,83.0,75.0
23,19.57812238958333,19.670670454166665,74.0,81.0
24,19.722353139583333,19.818506972916666,76.0,78.0
25,19.86658388958333,19.987978104166665,77.0,78.0
26,20.155045389583332,20.266824220833332,76.0,80.0
27,20.443506889583333,20.587737639583334,77.0,74.0
28,20.731968389583333,20.882208754166665,81.0,76.0
29,21.020429889583333,21.346151,79.0,75.0
30,21.885814389583334,21.968747070833334,76.0,85.0
31,22.030045139583333,22.12139128125,77.0,78.0
32,22.17427588958333,22.26562203125,79.0,74.0
33,22.46273738958333,22.551679685416666,77.0,78.0
34,22.751198889583332,22.847352722916668,76.0,81.0
35,23.039660389583332,23.12619883958333,77.0,80.0
36,23.328121889583333,23.41946803125,79.0,78.0
37,23.616583389583333,23.712737222916665,77.0,80.0
38,23.905044889583333,24.016823720833333,76.0,81.0
39,24.193506389583334,24.305285220833333,77.0,80.0
40,24.481967889583334,24.603362104166667,79.0,76.0
41,24.77042938958333,24.844948610416665,79.0,76.0
42,24.914660139583333,24.979563977083334,79.0,71.0
43,25.05889088958333,25.200717793749998,79.0,74.0
44,25.34735238958333,25.532448518749998,88.0,80.0
45,25.635813889583332,26.212736889583333,86.0,75.0
46,26.501198389583333,26.580525302083334,74.0,81.0
47,26.64542913958333,26.818506039583333,76.0,75.0
48,26.789659889583334,26.900236797916666,77.0,77.0
49,27.078121389583334,27.2091309875,76.0,76.0
50,27.366582889583334,27.502400179166667,77.0,76.0
51,27.65504438958333,27.770428989583333,86.0,79.0
52,27.94350588958333,28.19230393333333,84.0,72.0
53,28.231967389583332,28.353361604166665,83.0,76.0
54,28.520428889583332,28.70552501875,81.0,75.0
55,28.808890389583333,28.969948060416666,83.0,75.0
56,29.097351889583333,30.459130554166666,84.0,75.0
57,30.82812088958333,31.27283236875,79.0,76.0
58,31.405043889583332,31.830524602083333,79.0,74.0
59,31.981966889583333,32.1418226375,88.0,74.0
60,32.27042838958333,32.430284137499996,88.0,76.0
61,32.558889889583334,33.00961098333333,84.0,78.0
62,33.135812889583335,33.66345705,79.0,78.0
63,33.712851639583334,35.29357110625,76.0,79.0
64,35.44778763958334,35.82007598958334,79.0,76.0
65,36.026099639583336,36.481520339583334,77.0,80.0
66,36.60441163958333,36.75380890625,86.0,69.0
67,36.89356763958334,37.09959128958334,86.0,77.0
68,37.18272363958334,37.60440947291667,83.0,74.0
69,37.76103563958333,38.241757489583335,77.0,75.0
70,38.33934763958334,39.81645287291667,74.0,74.0
71,40.36343963958333,40.447776806250005,76.0,78.0
72,40.508017639583336,40.60319815625,77.0,75.0
73,40.65259563958334,40.74898097291667,79.0,75.0
74,40.94175163958334,41.04536587291667,77.0,74.0
75,41.230907639583336,41.33211223958334,76.0,81.0
76,41.520063639583334,41.62849713958334,77.0,75.0
77,41.80921963958333,41.916448322916665,79.0,74.0
78,42.09837563958334,42.199580239583334,77.0,76.0
79,42.38753163958334,42.51162775625,76.0,76.0
80,42.67658635833333,42.80999980208333,77.0,75.0
81,42.965047858333335,43.072018997916665,79.0,75.0
82,43.25350935833333,43.37009588125,79.0,74.0
83,43.39774010833333,43.51432663125,79.0,74.0
84,43.541970858333336,43.674182379166666,79.0,75.0
85,43.83043235833333,43.94822080416667,84.0,78.0
86,44.11889385833333,44.623701483333335,88.0,78.0
87,44.984278358333334,45.07201873125,74.0,78.0
88,45.12850910833333,45.21985525,76.0,78.0
89,45.27273985833333,45.358076385416666,77.0,74.0
90,45.561201358333335,45.666970575,76.0,83.0
91,45.84966285833333,45.98908591666667,77.0,69.0
92,46.138124358333336,46.265528187499996,86.0,78.0
93,46.42658585833333,46.54918199583333,84.0,78.0
94,46.71504735833334,46.854470416666665,83.0,75.0
95,47.003604352083336,47.13492936875,81.0,74.0
96,47.292760352083334,47.45179615208334,83.0,74.0
97,47.58191635208334,49.35540648541667,84.0,78.0
98,61.16031742083334,61.24325010208334,76.0,85.0
99,61.304548170833336,61.395894312500005,77.0,78.0
100,61.448778920833334,61.5401250625,79.0,74.0
101,61.73724042083334,61.82618271666667,77.0,78.0
102,62.025701920833335,62.12185575416667,76.0,81.0
103,62.31416342083334,62.40070187083334,77.0,80.0
104,62.602624920833335,62.693971062500005,79.0,78.0
105,62.89108642083333,62.98724025416667,77.0,80.0
106,63.179547920833336,63.291326752083336,76.0,81.0
107,63.46800942083333,63.57978825208333,77.0,80.0
108,63.75647092083334,63.87786513541667,79.0,76.0
109,64.04493242083333,64.11945164166667,79.0,76.0
110,64.18916317083334,64.25406700833334,79.0,71.0
111,64.33339392083333,64.47522082500001,79.0,74.0
112,64.62185542083334,64.80695155000001,88.0,80.0
113,64.91031692083334,65.48723992083333,84.0,75.0
114,65.77570142083334,65.85502833333334,74.0,81.0
115,65.91993217083333,66.09300907083333,76.0,75.0
116,66.06416292083334,66.17473982916667,77.0,77.0
117,66.35262442083334,66.48363401875,76.0,76.0
118,66.64108592083333,66.77690321041666,77.0,76.0
119,66.92954742083333,67.04493202083333,86.0,79.0
120,67.21800892083334,67.61704732916667,83.0,75.0
121,68.08339342083333,68.17594148541667,74.0,81.0
122,68.22762417083334,68.32377800416667,76.0,78.0
123,68.37185492083333,68.49324913541668,77.0,78.0
124,68.66031642083334,68.77209525208333,76.0,80.0
125,68.94877792083334,69.09300867083334,77.0,74.0
126,69.23723942083333,69.38747978541667,81.0,76.0
127,69.52570092083333,69.85142203125,79.0,75.0
128,70.39108542083333,70.47401810208333,76.0,85.0
129,70.53531617083334,70.6266623125,77.0,78.0
130,70.67954692083333,70.77089306250001,79.0,74.0
131,70.96800842083334,71.05695071666668,77.0,78.0
132,71.25646992083334,71.35262375416667,76.0,81.0
133,71.54493142083334,71.63146987083334,77.0,80.0
134,71.83339292083333,71.92473906250001,79.0,78.0
135,72.12185442083333,72.21800825416668,77.0,80.0
136,72.41031592083334,72.52209475208333,76.0,81.0
137,72.69877742083334,72.81055625208333,77.0,80.0
138,72.98746752708334,73.10915401041666,79.0,76.0
139,73.27662352708333,73.35132216041667,79.0,76.0
140,73.42120152708333,73.48626162708334,79.0,71.0
141,73.56577952708334,73.70794789375,79.0,74.0
142,73.85493552708333,74.04047729375,88.0,80.0
143,74.14409152708333,74.72240352708333,86.0,75.0
144,75.01155952708334,75.09107742708333,74.0,81.0
145,75.15613752708333,75.32963112708333,76.0,75.0
146,75.30071552708333,75.41155866041666,77.0,77.0
147,75.58987152708333,75.72119654375,76.0,76.0
148,75.87902752708334,76.01517181041666,77.0,76.0
149,76.16818352708333,76.28384592708333,86.0,79.0
150,76.45733952708333,76.70673657708333,84.0,72.0
151,76.74649552708333,76.86818201041666,83.0,76.0
152,77.03565152708333,77.22119329375,81.0,75.0
153,77.32480752708334,77.48625296041666,83.0,75.0
154,77.61396352708333,78.97902081041667,84.0,75.0
155,79.34889952708333,79.79468169375,79.0,76.0
156,79.92721152708333,80.35371662708333,79.0,74.0
157,80.50552352708333,80.66576414375,88.0,74.0
158,80.79467952708333,80.95492014375,88.0,76.0
159,81.08383552708334,81.53564177708333,84.0,78.0
160,81.66214752708333,82.19106204375,79.0,78.0
161,82.24045952708333,83.82117899375,76.0,79.0
162,83.97539552708334,84.34768387708333,79.0,76.0
163,84.55370752708333,85.00912822708334,77.0,80.0
164,85.13201952708333,85.28141679375,86.0,69.0
165,85.42117552708334,85.62719917708333,86.0,77.0
166,85.71033152708333,86.13201736041667,83.0,74.0
167,86.28864352708334,86.76936537708333,77.0,75.0
168,86.86695552708333,88.34256469166665,74.0,74.0
169,88.88823769583333,88.97237229999999,76.0,78.0
170,89.03246844583333,89.12742035624998,77.0,75.0
171,89.17669919583332,89.27285302916665,79.0,75.0
172,89.46516069583332,89.56852606666666,77.0,74.0
173,89.75362219583333,89.85458372083332,76.0,81.0
174,90.04208369583333,90.15025675833333,77.0,75.0
175,90.33054519583332,90.43751633541666,79.0,74.0
176,90.61900669583332,90.71996822083332,77.0,76.0
177,90.90746819583333,91.03126625624999,76.0,76.0
178,91.19592969583333,91.32934313958333,77.0,75.0
179,91.48439119583333,91.59136233541666,79.0,75.0
180,91.77285269583332,91.88943921875,79.0,74.0
181,91.91708344583333,92.03366996874999,79.0,74.0
182,92.06131419583332,92.19352571666666,79.0,75.0
183,92.34977569583333,92.46756414166666,84.0,78.0
184,92.63823719583333,93.14304482083332,88.0,78.0
185,93.50362169583333,93.59136206874999,74.0,78.0
186,93.64785244583332,93.7391985875,76.0,78.0
187,93.79208319583333,93.87741972291666,77.0,74.0
188,94.08054469583332,94.1863139125,76.0,83.0
189,94.36900619583332,94.50842925416666,77.0,69.0
190,94.65746769583332,94.78487152499999,86.0,78.0
191,94.94592919583333,95.06852533333333,84.0,78.0
192,95.23439069583333,95.37381375416666,83.0,75.0
193,95.52285219583332,95.65386179375,81.0,74.0
194,95.81131369583332,95.96996752083332,83.0,74.0
195,96.09977519583333,97.86900572916666,84.0,78.0
