,start,end,pitch,velocity
0,18.74781959375,19.101985906249997,71.0,78.0
1,19.202364593749998,19.54895515625,71.0,78.0
2,19.656909593749997,19.98077290625,71.0,79.0
3,20.111454593749997,20.46562090625,71.0,78.0
4,20.56599959375,20.73645396875,71.0,76.0
5,20.793272093749998,21.23645346875,72.0,79.0
6,21.247817093749997,21.893649781249998,74.0,79.0
7,21.92963459375,22.24402821875,69.0,74.0
8,22.384179593749998,22.61145209375,69.0,73.0
9,22.61145209375,23.15122428125,69.0,78.0
10,23.293269593749997,23.50349665625,67.0,71.0
11,23.52054209375,24.340617031249998,69.0,78.0
12,26.020539593749998,26.19288790625,64.0,78.0
13,26.24781209375,26.406902843749997,67.0,71.0
14,26.475084593749997,26.98455378125,72.0,78.0
15,27.15690209375,27.317886781249996,64.0,71.0
16,27.384174593749997,27.545159281249997,64.0,79.0
17,27.611447093749998,27.815992343749997,67.0,67.0
18,27.83871959375,28.20235559375,72.0,74.0
19,28.293264593749996,28.75159746875,72.0,77.0
20,28.74780959375,28.93152153125,71.0,73.0
21,28.975082093749997,30.761065156249998,71.0,78.0
22,31.702352093749997,31.910685218749997,71.0,73.0
23,31.92962459375,32.333033281249996,72.0,73.0
24,32.38416959375,32.815987343749995,71.0,80.0
25,32.83871459375,33.11522946875,69.0,77.0
26,33.293259593749994,33.60386534375,69.0,75.0
27,33.74780459375,34.11712240625,69.0,78.0
28,34.20234959375,34.35765246875,78.0,74.0
29,34.42962209375,35.18909103125,78.0,78.0
30,35.33871209375,35.514848281249996,69.0,73.0
31,35.56598459375,35.92772665625,71.0,74.0
32,36.02052959375,36.310302031249996,69.0,77.0
33,36.475074593749994,36.80272578125,67.0,69.0
34,36.92961959375,37.23643746875,76.0,77.0
35,37.38416459375,37.72696728125,76.0,79.0
36,37.838709593749996,38.29325459375,76.0,75.0
37,38.29325459375,40.24022234375,76.0,77.0
38,40.56597959375,40.73643396875,76.0,79.0
39,40.79325209375,40.93150953125,74.0,79.0
40,41.02052459375,41.51673621875,76.0,80.0
41,41.70234209375,41.853857093749994,67.0,74.0
42,41.92961459375,42.15688709375,76.0,76.0
43,42.15688709375,42.27999303125,74.0,79.0
44,42.38415959375,42.77809859375,76.0,73.0
45,42.838704593749995,43.28946171875,76.0,79.0
46,43.29324959375,43.698552218749995,71.0,78.0
47,43.74779459375,44.20612746875,74.0,79.0
48,44.20233959375,44.65688459374999,71.0,79.0
49,44.65688459374999,47.38415459375,69.0,76.0
50,47.83869959374999,48.06597209375,71.0,78.0
51,48.06597209375,48.29324459375,71.0,78.0
52,48.29324459375,48.97506209375,71.0,78.0
53,49.202334593749995,49.556500906249994,71.0,78.0
54,49.65687959375,49.82733396875,71.0,76.0
55,49.88415209375,50.32733346875,72.0,79.0
56,50.33869709375,50.984529781250004,74.0,79.0
57,51.02051459374999,51.33490821875,69.0,74.0
58,51.475059593750004,51.70233209375,69.0,73.0
59,51.70233209375,52.24210428124999,69.0,78.0
60,52.384149593749996,52.83869459374999,67.0,71.0
61,52.83869459374999,53.65876953125,67.0,78.0
62,55.11141959375,55.28376790624999,64.0,78.0
63,55.33869209375,55.49778284375,67.0,71.0
64,55.565964593749996,56.07543378125,72.0,78.0
65,56.247782093750004,56.408766781249994,64.0,71.0
66,56.47505459375,56.63603928124999,64.0,79.0
67,56.70232709375,56.906872343749995,67.0,67.0
68,56.92959959375,57.29323559375,72.0,74.0
69,57.384144593749994,57.79323509375,76.0,79.0
70,57.838689593750004,57.98831065624999,74.0,78.0
71,58.06596209375,58.53755253125,74.0,80.0
72,58.52050709375,60.037551031250004,71.0,74.0
73,60.79323209374999,61.00156521875,71.0,73.0
74,61.020504593750005,61.423913281249995,72.0,73.0
75,61.47504959375,61.906867343749994,71.0,80.0
76,61.92959459375,62.20610946875,69.0,77.0
77,62.38413959374999,62.69474534375,69.0,75.0
78,62.83868459375,63.20800240625,69.0,78.0
79,63.29322959375,63.44853246875,78.0,74.0
80,63.52050209375,64.27997103125,78.0,78.0
81,64.42959209375,64.60572828125,69.0,73.0
82,64.65686459375,65.01860665625,71.0,74.0
83,65.11140959375,65.40118203125,69.0,77.0
84,65.56595459374999,65.89360578125,67.0,69.0
85,66.02049959375,66.32731746875,76.0,77.0
86,66.47504459375,66.81784728125,76.0,79.0
87,66.92958959375,67.38413459375,76.0,75.0
88,67.38413459375,69.33110234375,76.0,77.0
89,69.65685959375,69.82731396875,76.0,79.0
90,69.88413209375,70.02199082291666,74.0,79.0
91,70.11033662499999,70.60281747916666,76.0,80.0
92,70.78702787499999,70.93740370833332,67.0,74.0
93,71.012591625,71.23963484999999,76.0,76.0
94,71.23963484999999,71.36320892291666,74.0,79.0
95,71.46777159999999,71.86435368958333,76.0,73.0
96,71.92612968958333,72.38558868958333,76.0,79.0
97,72.38944968958333,72.62110968958334,74.0,78.0
98,72.62110968958334,73.08329514791666,79.0,79.0
99,73.30848585624999,73.53749335625,79.0,79.0
100,73.53749335625,73.99550835624999,79.0,79.0
101,73.99550835624999,74.45352335624999,79.0,79.0
102,74.45352335624999,74.68253085625,76.0,79.0
103,74.68253085625,75.59856085624999,74.0,76.0
104,75.59856085624999,75.99550718958332,71.0,80.0
105,76.05657585624999,76.50365966874999,74.0,84.0
106,76.51515391874999,77.88353371041666,79.0,78.0
107,77.85963667708333,78.20338631041666,83.0,80.0
108,78.30081267708333,79.06367951041666,83.0,81.0
109,79.18316467708333,79.50853197708332,71.0,81.0
110,79.62434067708332,79.95706091041666,74.0,79.0
111,80.06551667708332,81.23830954374999,78.0,74.0
112,81.38904467708332,81.82903982708332,81.0,75.0
113,81.82903982708332,83.58086182708333,81.0,78.0
114,84.01881732708333,84.17392656666667,79.0,77.0
115,84.23779507708332,84.36735691249999,78.0,74.0
116,84.45677282708333,84.96772091041666,79.0,78.0
117,85.11370607708332,85.26334087291666,81.0,75.0
118,85.33268382708333,85.64472712083332,78.0,75.0
119,85.77063932708333,86.06990891874999,74.0,78.0
120,86.20859482708333,86.61552847916666,74.0,78.0
121,86.64655032708333,87.08085619791666,71.0,80.0
122,87.08450582708332,88.61735007708333,76.0,79.0
123,89.71223882708333,90.05712878333333,76.0,80.0
124,90.15019432708333,90.50055872708333,79.0,79.0
125,90.58814982708333,91.757855975,83.0,78.0
126,91.90201632708333,92.33084775416665,81.0,78.0
127,92.33997182708333,93.05894877291666,76.0,79.0
128,93.21588282708332,93.54617426666665,76.0,82.0
129,93.65383832708332,93.98230495208333,79.0,80.0
130,94.09179382708332,94.96770482708332,78.0,80.0
131,95.40566032708333,95.70857954791666,79.0,78.0
132,95.84361582708333,97.55894153541666,79.0,78.0
133,98.47134882708332,98.80528989583333,76.0,79.0
134,98.90930432708333,99.33996056875,79.0,79.0
135,99.34725982708332,100.09908343541666,83.0,79.0
136,100.00419307708333,100.27244082083332,81.0,74.0
137,100.22317082708332,101.10638108541666,76.0,79.0
138,101.09908182708332,101.67024879166667,78.0,72.0
139,101.75601507708333,104.52608361458333,79.0,74.0
140,115.55161332708332,115.77059107708332,71.0,78.0
141,115.77059107708332,115.98956882708333,71.0,78.0
142,115.98956882708333,116.64650207708333,71.0,78.0
143,116.86547982708333,117.20672015416666,71.0,78.0
144,117.30343532708332,117.46766863958332,71.0,76.0
145,117.52241307708333,117.94941968958332,72.0,79.0
146,117.96036857708333,118.58263034999999,74.0,79.0
147,118.61730182708332,118.92022104791667,69.0,74.0
148,119.05525732708332,119.27423507708332,69.0,73.0
149,119.27423507708332,119.79430723333333,69.0,78.0
150,119.93116832708333,120.36912382708333,67.0,71.0
151,120.36912382708333,121.15926854166666,67.0,78.0
152,122.55890132708333,122.72495945416665,64.0,78.0
153,122.77787907708333,122.93116350208334,67.0,71.0
154,122.99685682708332,123.48773194999998,72.0,78.0
155,123.65379007708333,123.80889931666667,64.0,71.0
156,123.87276782708332,124.02787706666666,64.0,79.0
157,124.09174557708332,124.28882555208332,67.0,67.0
158,124.31072332708332,124.66108772708333,72.0,74.0
159,124.74867882708332,125.14283877708333,76.0,79.0
160,125.18663432708333,125.33079467916666,74.0,78.0
161,125.40561207708333,125.85999090833332,74.0,80.0
162,125.84356757708332,127.30524405833333,71.0,74.0
163,128.0333450770833,128.23407468124998,71.0,73.0
164,128.25232282708333,128.64100833333333,72.0,73.0
165,128.69027832708332,129.10633605208332,71.0,80.0
166,129.12823382708333,129.39465675625,69.0,77.0
167,129.56618932708332,129.86545891875,69.0,75.0
168,130.00414482708334,130.35998367083334,69.0,78.0
169,130.44210032708332,130.59173512291665,78.0,74.0
170,130.66107807708332,131.392828725,78.0,78.0
171,131.53698907708332,131.70669683333333,69.0,73.0
172,131.75596682708334,132.1045064125,71.0,74.0
173,132.19392232708333,132.47311895833332,69.0,77.0
174,132.63187782708331,132.94757074999998,67.0,69.0
175,133.06983332708333,133.36545328958334,76.0,77.0
176,133.50778882708332,133.83808026666665,76.0,79.0
177,133.94574432708333,134.38369982708332,76.0,75.0
178,134.38369982708332,136.25960921875,76.0,77.0
179,136.5734773270833,136.73771063958333,76.0,79.0
180,136.79245507708333,136.92566654166666,74.0,79.0
181,137.01143282708333,137.48953424791665,76.0,80.0
182,137.66836607708333,137.81435124375,67.0,74.0
183,137.88734382708333,138.10632157708332,76.0,76.0
184,138.10632157708332,138.22493452499998,74.0,79.0
185,138.32529932708331,138.70486076041666,76.0,73.0
186,138.76325482708333,139.19756069791666,76.0,79.0
187,139.20121032708332,139.4201880770833,74.0,78.0
188,139.4201880770833,139.86179320624998,79.0,79.0
189,140.07712132708332,140.29609907708334,79.0,79.0
190,140.29609907708334,140.73405457708333,79.0,79.0
191,140.73405457708333,141.1720100770833,79.0,79.0
192,141.1720100770833,141.39098782708334,76.0,79.0
193,141.39098782708334,142.26577487916666,74.0,76.0
194,142.26577487916666,142.64258594583333,71.0,80.0
195,142.70055687916667,143.12446932916666,74.0,84.0
196,143.13533887916665,144.46323557083332,79.0,78.0
197,144.43968487916666,144.77845252083333,83.0,80.0
198,144.87446687916668,145.62627742083333,83.0,81.0
199,145.74403087916667,146.06468260416668,71.0,81.0
200,146.17881287916666,146.50671097083332,74.0,79.0
201,146.61359487916667,147.7693903625,78.0,74.0
202,147.91794087916668,148.35272287916666,81.0,75.0
203,148.35272287916666,150.09185087916666,81.0,78.0
204,150.52663287916667,150.68061817083333,79.0,77.0
205,150.74402387916666,150.8726468875,78.0,74.0
206,150.96141487916665,151.46866054583333,79.0,78.0
207,151.61358787916666,151.76213839583335,81.0,75.0
208,151.83097887916668,152.14076105416666,78.0,75.0
209,152.26576087916666,152.5628619125,74.0,78.0
210,152.70054287916668,153.10452782083334,74.0,78.0
211,153.13532487916666,153.56648369583334,71.0,80.0
212,153.57010687916667,155.09184387916667,76.0,79.0
213,156.17879887916666,156.52118970416666,76.0,80.0
214,156.61358087916668,156.96140647916667,79.0,79.0
215,157.04836287916666,158.2095931375,83.0,78.0
216,158.35270887916667,158.77843292083332,81.0,78.0
217,158.78749087916668,159.50125799583333,76.0,79.0
218,159.65705487916668,159.98495297083332,76.0,82.0
219,160.09183687916666,160.41792337916667,79.0,80.0
220,160.52661887916668,161.39618287916667,78.0,80.0
221,161.83096487916666,162.13168909583334,79.0,78.0
222,162.26574687916667,163.96864304583335,79.0,78.0
223,164.87443887916666,165.20596015416666,76.0,79.0
224,165.30922087916667,165.7367565125,79.0,79.0
225,165.74400287916666,166.17878487916667,83.0,79.0
226,166.17878487916667,166.44508885416667,81.0,74.0
227,166.39617587916666,166.83095787916668,76.0,79.0
228,166.83095787916668,167.39510570416667,78.0,72.0
229,167.47963794583333,167.56057307083333,81.0,69.0
230,167.69546494583332,167.78898997916667,81.0,79.0
231,167.91129194583334,168.0174068875,81.0,78.0
232,168.12711894583333,168.43467242083332,81.0,79.0
233,168.55877294583334,168.8807148875,81.0,79.0
234,168.99042694583332,169.10913179583332,81.0,80.0
235,169.20625394583334,169.56416705416666,81.0,79.0
236,169.63790794583332,169.77819549583333,79.0,79.0
237,169.85373494583334,170.24761922083331,78.0,79.0
238,170.28538894583332,170.82135932916665,76.0,79.0
239,170.93286994583332,171.04617912083333,83.0,78.0
240,171.14869694583334,171.24222197916666,83.0,78.0
241,171.36452394583333,171.48862447083332,83.0,79.0
242,171.58035094583332,171.8861058625,83.0,78.0
243,172.01200494583333,172.34293967916665,83.0,80.0
244,172.44365894583333,172.55337100416665,83.0,74.0
245,172.65948594583332,173.0030105875,83.0,79.0
246,173.09113994583333,173.47603142916665,81.0,79.0
247,173.5227939458333,173.66488005416667,79.0,78.0
248,173.73862094583333,174.2763898875,78.0,80.0
249,174.38610194583333,174.67387127916666,81.0,79.0
250,174.8177559458333,174.93646079583334,81.0,76.0
251,175.03358294583333,175.34293497916667,81.0,78.0
252,175.46523694583334,175.8519269875,83.0,79.0
253,176.11271794583334,176.54077482916665,81.0,78.0
254,176.54437194583332,176.66307679583332,79.0,72.0
255,176.76019894583334,177.14509042916666,78.0,78.0
256,177.19185294583332,177.77638440416666,76.0,83.0
257,177.83933394583332,179.03177812083334,83.0,80.0
258,179.13429594583332,179.52818022083332,81.0,77.0
259,179.56594994583332,181.01738652083333,76.0,78.0
260,181.29256594583333,182.4022764375,83.0,79.0
261,182.58752794583333,182.94544105416665,81.0,73.0
262,183.01918194583334,184.6432801208333,74.0,81.0
263,184.74579794583332,185.4832068625,83.0,80.0
264,185.60910594583333,186.4130615208333,81.0,79.0
265,186.47241394583332,187.24759258749998,76.0,79.0
266,187.3357219458333,188.02816690416665,78.0,68.0
267,188.19902994583333,189.79301736666665,79.0,76.0
268,189.96455615,190.97604328125004,81.0,74.0
269,190.94884663125003,191.38580905625003,72.0,80.0
270,191.4538941229167,191.9517661729167,75.0,84.0
271,191.9645321229167,193.42456176458336,80.0,78.0
272,193.40118050625003,193.73751091458337,84.0,80.0
273,193.83283450625004,194.57923621458337,84.0,81.0
274,194.69614250625003,195.01448733125002,72.0,81.0
275,195.12779650625004,195.45333556458337,75.0,79.0
276,195.55945050625002,196.7069307229167,79.0,74.0
277,196.85441250625004,197.28606650625002,82.0,75.0
278,197.28606650625002,199.0076983229167,82.0,78.0
279,199.4362693229167,199.5880548854167,80.0,77.0
280,199.6505548229167,199.7773404104167,79.0,74.0
281,199.8648403229167,200.3648398229167,80.0,78.0
282,200.5076968229167,200.6541252479167,82.0,75.0
283,200.72198232291672,201.02733916041672,79.0,75.0
284,201.1505533229167,201.4434101729167,75.0,78.0
285,201.5791243229167,201.9773382104167,75.0,78.0
286,202.0076953229167,202.4326948979167,72.0,80.0
287,202.4362663229167,203.9362648229167,77.0,79.0
288,205.0076923229167,205.3451919854167,77.0,80.0
289,205.43626332291672,205.7791201229167,80.0,79.0
290,205.8648343229167,207.0094760354167,84.0,78.0
291,207.1505473229167,207.5701897604167,82.0,78.0
292,207.5791183229167,208.2826890479167,77.0,79.0
293,208.4362603229167,208.7594742854167,77.0,82.0
294,208.8648313229167,209.1862595729167,80.0,80.0
295,209.2934023229167,210.15054432291672,79.0,80.0
296,210.5791153229167,210.8755435979167,80.0,78.0
297,211.0076863229167,212.6862560729167,80.0,78.0
298,213.5791123229167,213.9058977104167,77.0,79.0
299,214.0076833229167,214.4291114729167,80.0,79.0
300,214.4362543229167,215.1719678729167,84.0,79.0
301,215.0791108229167,215.3416105604167,82.0,74.0
302,215.2933963229167,216.1576811729167,77.0,79.0
303,216.1505383229167,216.7094663354167,79.0,72.0
304,216.7933948229167,219.5041063979167,80.0,74.0
305,223.4362453229167,223.5969594479167,80.0,79.0
306,223.6505308229167,223.8451734854167,79.0,78.0
307,223.8648163229167,224.4594585854167,80.0,79.0
308,224.5076728229167,224.7058869104167,82.0,76.0
309,224.7219583229167,225.1112436479167,84.0,82.0
310,225.1505293229167,225.5362432229167,79.0,70.0
311,225.5791003229167,225.9576713729167,75.0,81.0
312,226.0076713229167,226.3969566479167,72.0,85.0
313,226.4362423229167,227.2933843229167,79.0,79.0
314,227.2933843229167,228.7040971979167,77.0,78.0
315,229.00766832291671,229.34695369791672,77.0,84.0
316,229.43623932291672,229.86302461041672,80.0,83.0
317,229.8648103229167,231.1648090229167,84.0,84.0
318,231.1505233229167,231.6255228479167,85.0,80.0
319,231.57909432291672,232.2844507604167,77.0,84.0
320,232.4362363229167,232.79516453541672,77.0,80.0
321,232.8648073229167,233.2398069479167,80.0,80.0
322,233.2933783229167,234.42730576041671,79.0,73.0
323,234.5790913229167,234.9130195604167,80.0,78.0
324,235.0076623229167,236.8273033604167,80.0,79.0
325,237.5790883229167,237.9005165729167,77.0,80.0
326,237.97015936041672,238.37015896041672,80.0,80.0
327,238.4505160229167,238.8469441979167,84.0,81.0
328,238.9237298354167,239.2112295479167,82.0,74.0
329,239.2487295104167,240.3790855229167,77.0,78.0
330,240.3219427229167,240.9487278104167,79.0,80.0
331,240.9272992604167,243.9094391354167,80.0,78.0
332,244.4772957104167,244.8094382354167,77.0,79.0
333,244.9344381104167,245.4326518979167,80.0,73.0
334,245.4469375979167,246.4005080729167,84.0,74.0
335,246.8487219104167,247.6344354104167,82.0,71.0
336,247.64872111041672,248.4665774354167,77.0,74.0
337,248.4022917854167,249.02550544791671,79.0,84.0
338,249.0112197479167,251.23621752291672,80.0,70.0
