,start,end,pitch,velocity
0,4.194028033333334,5.660445308333333,50.0,55.0
1,4.641789033333334,6.164176433333333,59.0,59.0
2,4.641789033333334,6.1958928375,55.0,62.0
3,5.985072033333333,6.985693254166668,50.0,46.0
4,3.7462670333333334,7.165617316666667,43.0,76.0
5,6.432833033333334,7.447814004166667,59.0,70.0
6,6.432833033333334,7.459177629166668,55.0,67.0
7,7.797387170833334,8.065586337500001,55.0,60.0
8,8.257157170833334,8.435318045833334,60.0,67.0
9,8.257157170833334,8.464053670833334,55.0,67.0
10,9.636467170833335,9.843363670833334,55.0,53.0
11,10.096237170833334,10.243746712500002,60.0,71.0
12,10.096237170833334,10.262903795833335,55.0,71.0
13,7.339859566666667,10.339532129166667,48.0,70.0
14,11.015777170833335,11.584742545833334,59.0,64.0
15,11.015777170833335,11.617309587500001,55.0,63.0
16,11.935317170833335,12.1115623375,62.0,69.0
17,11.935317170833335,12.136466545833335,55.0,66.0
18,11.475547170833334,12.884972283333335,50.0,60.0
19,13.73780821875,13.920138916666668,59.0,72.0
20,13.73780821875,13.931417104166668,55.0,69.0
21,13.287957183333335,13.957732875,50.0,50.0
22,11.015777170833335,14.192695114583334,43.0,71.0
23,14.64228459375,14.905541906249999,55.0,62.0
24,14.64228459375,15.23698096875,60.0,67.0
25,15.09682959375,15.35629903125,55.0,62.0
26,15.55137459375,15.77107134375,60.0,72.0
27,15.55137459375,15.77296528125,55.0,67.0
28,14.64228459375,15.83925309375,48.0,70.0
29,16.46046459375,17.687235614583333,48.0,64.0
30,16.46046459375,18.30026228125,63.0,61.0
31,16.46046459375,18.30600940625,60.0,63.0
32,19.202364593749998,19.77054584375,59.0,72.0
33,19.202364593749998,19.990242593749997,55.0,71.0
34,18.74781959375,20.298954406249997,50.0,56.0
35,20.111454593749997,20.49781784375,62.0,73.0
36,20.56599959375,21.23077165625,50.0,57.0
37,21.02054459375,21.397438156249997,62.0,75.0
38,21.02054459375,21.41448359375,59.0,73.0
39,18.28876803125,21.454256281249997,43.0,78.0
40,21.47508959375,21.611453093749997,55.0,78.0
41,21.92963459375,22.412588656249998,57.0,68.0
42,21.92963459375,22.918269968749996,53.0,70.0
43,22.838724593749998,23.535693593749997,60.0,70.0
44,23.74781459375,23.834935718749996,60.0,60.0
45,23.74781459375,24.11334453125,65.0,73.0
46,24.65690459375,25.039479968749998,57.0,73.0
47,22.384179593749998,25.060313281249996,48.0,49.0
48,21.92963459375,25.064101156249997,41.0,74.0
49,24.65690459375,25.069782968749998,60.0,75.0
50,25.56599459375,25.798948906249997,55.0,71.0
51,25.56599459375,26.111448593749998,60.0,73.0
52,26.020539593749998,26.259175718749997,55.0,67.0
53,26.475084593749997,26.662584406249998,55.0,74.0
54,26.475084593749997,26.91069021875,62.0,73.0
55,27.384174593749997,27.55652290625,55.0,73.0
56,27.384174593749997,28.07735571875,64.0,78.0
57,27.83871959375,28.111446593749996,55.0,65.0
58,28.293264593749996,28.465612906249998,55.0,74.0
59,25.56599459375,28.62280971875,48.0,78.0
60,28.293264593749996,28.64174909375,60.0,76.0
61,29.202354593749998,29.87849028125,55.0,70.0
62,29.202354593749998,29.97886896875,62.0,69.0
63,30.11144459375,30.541368406249997,57.0,66.0
64,31.02053459375,31.971291218749997,55.0,66.0
65,31.02053459375,32.05462446875,59.0,69.0
66,31.92962459375,32.29326059375,62.0,77.0
67,29.656899593749998,32.391745343749996,50.0,61.0
68,29.202354593749998,32.42583621875,43.0,70.0
69,32.83871459375,33.050835593749994,57.0,63.0
70,32.83871459375,33.50727453125,62.0,72.0
71,33.293259593749994,33.87091053125,57.0,61.0
72,32.83871459375,33.92962259375,50.0,77.0
73,33.74780459375,33.92962259375,62.0,74.0
74,33.74780459375,34.09818303125,66.0,69.0
75,34.656894593749996,35.32545453125,59.0,70.0
76,34.656894593749996,35.33492421875,63.0,73.0
77,35.11143959375,35.78189346875,54.0,57.0
78,34.656894593749996,35.91257515625,47.0,73.0
79,35.56598459375,36.40878678125,59.0,79.0
80,36.02052959375,36.42393828125,63.0,80.0
81,36.475074593749994,36.67015015625,59.0,69.0
82,36.475074593749994,36.94098321875,52.0,82.0
83,36.475074593749994,36.94098321875,64.0,75.0
84,36.92961959375,37.101967906249996,59.0,74.0
85,37.38416459375,37.590603781249996,57.0,74.0
86,37.38416459375,37.827345968749995,62.0,78.0
87,37.38416459375,37.84060353125,50.0,78.0
88,37.38416459375,37.84817928125,66.0,71.0
89,37.838709593749996,37.92583071875,57.0,65.0
90,38.29325459375,38.52620890625,55.0,76.0
91,38.29325459375,38.84439040625,60.0,73.0
92,38.74779959375,39.00158721875,55.0,66.0
93,38.29325459375,39.19666278125,48.0,75.0
94,39.20234459375,39.32166265625,55.0,68.0
95,39.20234459375,39.34249596875,60.0,67.0
96,39.20234459375,39.43719284375,64.0,74.0
97,39.656889593749995,40.00348015625,59.0,72.0
98,39.656889593749995,40.029995281249995,47.0,79.0
99,39.656889593749995,40.10954065625,62.0,74.0
100,40.11143459375,40.68719159375,60.0,77.0
101,40.11143459375,40.71560065625,57.0,71.0
102,41.02052459375,41.18340321875,57.0,72.0
103,41.02052459375,41.55272103125,60.0,78.0
104,41.02052459375,41.56029678125,64.0,79.0
105,41.47506959375,41.79325109375,57.0,58.0
106,40.56597959375,42.103856843749995,52.0,58.0
107,41.92961459375,42.21559915624999,57.0,66.0
108,41.92961459375,42.226962781249995,60.0,72.0
109,42.38415959375,42.92771965625,52.0,51.0
110,42.838704593749995,42.99590140625,57.0,76.0
111,40.11143459375,43.01294684375,45.0,77.0
112,42.838704593749995,43.17961334375,60.0,80.0
113,42.838704593749995,43.17961334375,64.0,80.0
114,43.29324959375,43.65688559375,57.0,71.0
115,43.74779459375,43.90309746875,38.0,79.0
116,43.74779459375,44.314081906249996,57.0,70.0
117,43.74779459375,44.44476359375,62.0,75.0
118,44.65688459374999,45.23264159375,57.0,78.0
119,45.11142959375,45.276202156249994,62.0,72.0
120,45.56597459375,45.83301978125,57.0,76.0
121,45.56597459375,46.149307343749996,66.0,71.0
122,46.47506459375,46.66067046875,57.0,69.0
123,46.47506459375,46.764837031249996,62.0,73.0
124,44.20233959375,46.876579343749995,50.0,67.0
125,47.38415459375,47.89930559375,62.0,72.0
126,47.38415459375,47.93339646875,55.0,71.0
127,47.83869959374999,48.44097171875,50.0,57.0
128,48.29324459375,48.68718359375,59.0,71.0
129,48.29324459375,48.702335093749994,55.0,72.0
130,48.74778959375,49.26483453125,50.0,53.0
131,49.202334593749995,49.51104640625,55.0,67.0
132,49.202334593749995,49.51104640625,59.0,71.0
133,49.65687959375,50.19286390625,50.0,49.0
134,50.11142459375,50.36521221875,55.0,75.0
135,50.11142459375,50.46937878125,59.0,79.0
136,50.11142459375,50.545136281249995,62.0,79.0
137,47.38415459375,50.793242093749996,43.0,79.0
138,50.56596959375,51.037560031249996,50.0,72.0
139,51.02051459374999,51.528089843749996,57.0,73.0
140,51.02051459374999,51.62657459374999,53.0,73.0
141,51.475059593750004,52.07543778125,48.0,47.0
142,51.92960459375,52.143619531249996,57.0,76.0
143,51.92960459375,52.16066496875,53.0,74.0
144,51.92960459375,52.16445284375,60.0,74.0
145,52.83869459374999,53.101951906249994,57.0,71.0
146,52.83869459374999,53.240209343749996,60.0,74.0
147,53.29323959375,53.81786028124999,48.0,44.0
148,53.74778459375,54.12846603125,53.0,75.0
149,51.02051459374999,54.287556781250004,41.0,77.0
150,53.74778459375,54.31028403124999,60.0,78.0
151,54.202329593749994,54.47884446875,48.0,73.0
152,54.656874593750004,54.89172284375,55.0,72.0
153,55.11141959375,55.60573728125,55.0,66.0
154,54.656874593750004,55.60573728125,60.0,74.0
155,55.565964593749996,56.09437315625,64.0,80.0
156,54.656874593750004,56.134145843750005,48.0,78.0
157,56.02050959374999,56.72126646875,55.0,66.0
158,56.47505459375,56.95043290625,60.0,75.0
159,56.92959959375,57.05270553125,55.0,50.0
160,57.384144593749994,57.81596234375,64.0,82.0
161,57.384144593749994,57.880356218749995,55.0,79.0
162,56.47505459375,58.04512878125,48.0,73.0
163,57.838689593750004,58.05270453125,60.0,75.0
164,58.29323459375,59.07353684374999,59.0,72.0
165,58.29323459375,59.230733656249996,55.0,72.0
166,59.20232459374999,59.73830890625,62.0,76.0
167,59.65686959375,60.19095996874999,55.0,79.0
168,60.11141459375,60.36709615625,67.0,75.0
169,60.565959593749994,60.76292909375,55.0,71.0
170,61.020504593750005,61.40497390624999,55.0,79.0
171,58.29323459375,61.46747384375,43.0,76.0
172,58.747779593749996,61.47315565625,50.0,65.0
173,61.020504593750005,61.48451928125,59.0,79.0
174,61.47504959375,61.60573128125,60.0,78.0
175,61.92959459375,62.170124656249996,57.0,74.0
176,61.92959459375,62.59626059375,62.0,77.0
177,62.38413959374999,62.971260218750004,57.0,67.0
178,61.92959459375,63.270502343749996,50.0,79.0
179,62.83868459375,63.27618415625,62.0,76.0
180,62.83868459375,63.350047718750005,66.0,67.0
181,63.29322959375,63.584895968750004,57.0,79.0
182,63.747774593749995,64.52050109375,63.0,74.0
183,63.747774593749995,64.73640996875,59.0,79.0
184,64.20231959375,64.75724328125,54.0,62.0
185,63.747774593749995,64.86330378125,47.0,80.0
186,64.65686459375,65.25156096875,66.0,77.0
187,64.65686459375,65.27997003125,63.0,74.0
188,65.56595459374999,65.96936328125,67.0,74.0
189,65.56595459374999,65.99019659375,64.0,79.0
190,65.56595459374999,66.07731771875,40.0,80.0
191,66.02049959375,66.24587815625,59.0,80.0
192,66.47504459375,66.81027153125,38.0,79.0
193,66.47504459375,66.87277146875,66.0,70.0
194,66.47504459375,66.87466540625,62.0,73.0
195,67.38413459375,68.06405815625,60.0,73.0
196,67.38413459375,68.09057328125,64.0,78.0
197,67.38413459375,68.22504284375,48.0,75.0
198,67.83867959375,68.27996703125,55.0,64.0
199,68.29322459375,68.52428496875,60.0,73.0
200,68.29322459375,68.53375465625,64.0,78.0
201,68.29322459375,68.63981515625,48.0,71.0
202,68.74776959375,68.92390578125,62.0,73.0
203,68.74776959375,69.02807234375,59.0,71.0
204,68.74776959375,69.09436015625,47.0,71.0
205,69.20231459375,69.79701096875,60.0,73.0
206,69.20231459375,69.86329878125,57.0,72.0
207,70.11033662499999,70.33965977083332,57.0,73.0
208,70.11033662499999,70.44116345833332,60.0,77.0
209,70.11033662499999,70.44680255208333,64.0,79.0
210,69.65685959375,70.69680237499999,52.0,61.0
211,69.20231459375,70.84153911458333,45.0,78.0
212,71.012591625,71.48678299583332,55.0,76.0
213,71.012591625,71.48678299583332,60.0,75.0
214,71.46777159999999,72.06126468958333,52.0,65.0
215,71.012591625,72.10759668958333,45.0,78.0
216,71.92612968958333,72.12111018958333,55.0,79.0
217,71.92612968958333,72.35470068958332,64.0,80.0
218,71.92612968958333,72.44543418958332,60.0,80.0
219,72.38944968958333,72.55740318958333,55.0,74.0
220,72.85047085625,73.37337131458332,57.0,67.0
221,72.85047085625,73.40581404375,62.0,75.0
222,72.85047085625,73.44016516874999,66.0,70.0
223,73.30848585624999,73.85237866874999,45.0,57.0
224,72.85047085625,73.87718781458332,38.0,79.0
225,73.76650085624999,73.92871450208332,57.0,77.0
226,73.76650085624999,74.02795108541666,62.0,79.0
227,74.22451585625,74.52795079375,57.0,79.0
228,74.68253085625,75.19016414791666,57.0,79.0
229,74.68253085625,75.20352291875,62.0,78.0
230,74.68253085625,75.23024046041665,66.0,71.0
231,75.59856085624999,76.40978996041666,57.0,78.0
232,75.59856085624999,76.42319991874999,62.0,78.0
233,75.59856085624999,76.44618841874998,66.0,78.0
234,74.68253085625,76.53431100208333,50.0,76.0
235,76.51515391874999,77.04366269166665,62.0,74.0
236,76.97223417083332,77.44787241041665,55.0,71.0
237,77.19683005208333,77.46074004375,59.0,74.0
238,77.41846067708332,77.84125434375,62.0,74.0
239,76.51515391874999,78.17029811041665,43.0,78.0
240,76.7447621125,78.17213634374998,50.0,66.0
241,77.63904867708332,78.42029784374999,55.0,72.0
242,77.85963667708333,78.46625367708333,59.0,72.0
243,78.08022467708332,78.49750364375,62.0,71.0
244,78.30081267708333,78.68684167708332,67.0,73.0
245,78.74198867708333,79.05632657708333,55.0,72.0
246,78.96257667708332,79.09125301041665,59.0,76.0
247,78.52140067708332,79.32470864374999,50.0,69.0
248,79.18316467708333,79.62066421041666,55.0,79.0
249,79.18316467708333,79.62434067708332,59.0,83.0
250,78.30081267708333,79.66478181041666,43.0,79.0
251,79.18316467708333,79.68316414374999,62.0,80.0
252,79.62434067708332,79.75485524374999,50.0,78.0
253,80.06551667708332,80.32654581041666,59.0,73.0
254,80.06551667708332,80.47176624374998,62.0,78.0
255,80.50669267708332,80.96257454375,59.0,73.0
256,80.94786867708332,81.17948607708333,62.0,71.0
257,80.72728067708333,81.27139774374999,66.0,72.0
258,80.28610467708333,81.63904441041666,54.0,61.0
259,80.06551667708332,81.67575540208333,47.0,80.0
260,81.60963267708333,81.88013463541665,66.0,82.0
261,81.38904467708332,81.95860166249999,62.0,75.0
262,81.16845667708333,82.0242949875,59.0,74.0
263,81.82903982708332,82.50422122291666,71.0,81.0
264,82.26699532708332,82.65750564791666,66.0,79.0
265,82.04801757708333,82.75422082083332,54.0,66.0
266,82.48597307708333,82.79254192708332,62.0,73.0
267,82.70495082708332,82.98232264375,59.0,82.0
268,82.92392857708333,83.11005966458333,54.0,72.0
269,81.82903982708332,83.17392817499999,47.0,79.0
270,83.14290632708332,83.48779628333332,59.0,79.0
271,83.36188407708333,83.60823404583333,62.0,69.0
272,83.58086182708333,84.11918212916666,64.0,78.0
273,84.45677282708333,84.65567761666667,59.0,72.0
274,84.01881732708333,84.68122502083332,47.0,66.0
275,83.58086182708333,84.70494761041665,40.0,79.0
276,84.45677282708333,84.93122461875,64.0,79.0
277,84.45677282708333,84.98414424166666,67.0,72.0
278,84.89472832708333,85.12465496458333,59.0,68.0
279,85.33268382708333,85.95494559999999,62.0,71.0
280,85.77063932708333,86.28341222499999,57.0,63.0
281,85.33268382708333,86.42757257708332,50.0,79.0
282,86.20859482708333,86.62830218124999,66.0,72.0
283,86.20859482708333,86.64290069791666,62.0,73.0
284,86.64655032708333,86.81260845416666,57.0,73.0
285,87.08450582708332,87.28523543124999,55.0,69.0
286,87.08450582708332,87.67939538124999,60.0,72.0
287,87.52246132708332,88.03158459583332,55.0,70.0
288,87.96041682708332,88.43851824791666,64.0,80.0
289,88.17939457708333,88.44946713541665,55.0,71.0
290,88.39837232708332,88.72136450833332,60.0,74.0
291,87.08450582708332,88.74326228333332,48.0,78.0
292,88.61735007708333,88.97136410625,55.0,67.0
293,88.83632782708332,89.36187442708332,60.0,65.0
294,88.83632782708332,89.42939256666666,48.0,76.0
295,89.27428332708332,89.44034145416666,55.0,67.0
296,88.83632782708332,89.53523181249999,64.0,77.0
297,89.71223882708333,89.92574213333333,59.0,78.0
298,89.71223882708333,90.29800430833333,62.0,77.0
299,89.71223882708333,90.35092393125,47.0,82.0
300,90.15019432708333,90.47318650833333,50.0,79.0
301,90.36917207708332,90.52063168749999,59.0,78.0
302,90.58814982708333,90.82172609374999,57.0,78.0
303,90.58814982708333,91.00055792291666,60.0,77.0
304,91.02610532708333,91.37646972708333,57.0,75.0
305,91.24508307708332,91.47318489999999,60.0,73.0
306,90.80712757708332,91.59544747708333,52.0,71.0
307,91.46406082708333,91.82537411458333,64.0,81.0
308,90.58814982708333,92.1629648125,45.0,79.0
309,91.68303857708332,92.21588443541665,52.0,73.0
310,91.90201632708333,92.45675996041666,57.0,73.0
311,92.12099407708332,92.50055551041666,60.0,61.0
312,92.33997182708333,92.84362065208333,69.0,79.0
313,92.77792732708332,93.11186839583333,57.0,78.0
314,92.99690507708333,93.13741579999999,60.0,78.0
315,92.55894957708333,93.36369280833333,52.0,78.0
316,92.33997182708333,93.50967797499999,45.0,76.0
317,93.21588282708332,93.60091870416666,57.0,75.0
318,93.21588282708332,93.60456833333333,60.0,78.0
319,93.21588282708332,93.64836388333333,64.0,82.0
320,93.65383832708332,93.69945869166666,45.0,45.0
321,93.65383832708332,93.97318087916666,52.0,80.0
322,94.09179382708332,94.66661042083332,59.0,74.0
323,94.09179382708332,94.72682930208333,62.0,75.0
324,94.52974932708332,95.06077037083332,54.0,68.0
325,95.18668257708333,95.33996700208333,54.0,74.0
326,94.09179382708332,95.35456551875,47.0,83.0
327,94.96770482708332,95.44398143333332,66.0,84.0
328,95.62463807708332,95.8855865625,62.0,71.0
329,95.40566032708333,95.88741137708332,59.0,78.0
330,95.84361582708333,96.26514799583333,64.0,77.0
331,96.28157132708333,96.59361462083332,59.0,79.0
332,96.50054907708332,96.75602311875,64.0,79.0
333,96.06259357708333,96.90748272916666,47.0,74.0
334,95.84361582708333,96.94945346458333,40.0,81.0
335,96.71952682708333,96.9914242,67.0,79.0
336,96.93850457708332,97.16660639999999,64.0,80.0
337,97.15748232708333,97.28886897708333,59.0,76.0
338,97.59543782708333,98.05894073124999,57.0,72.0
339,97.59543782708333,98.12645887083332,60.0,76.0
340,98.25237107708332,98.5352173375,57.0,79.0
341,98.03339332708333,98.62098362291665,52.0,78.0
342,98.47134882708332,98.70674990833332,59.0,80.0
343,98.69032657708333,98.89288099583332,60.0,80.0
344,97.59543782708333,99.03521653333333,45.0,81.0
345,98.90930432708333,99.11368356041666,52.0,78.0
346,99.12828207708333,99.26514317083333,57.0,80.0
347,99.34725982708332,99.5863105375,57.0,75.0
348,99.34725982708332,99.92025160624999,62.0,82.0
349,99.78521532708332,100.12463083958332,57.0,71.0
350,100.22317082708332,100.45127264999999,66.0,66.0
351,100.22317082708332,100.4622215375,62.0,73.0
352,100.22317082708332,100.49141857083333,57.0,71.0
353,99.34725982708332,100.5060170875,50.0,83.0
354,101.53703732708333,102.97134158958332,50.0,55.0
355,101.97499282708333,103.46404152708332,59.0,59.0
356,101.97499282708333,103.495063375,55.0,62.0
357,103.28885932708333,104.26148549999999,50.0,46.0
358,101.09908182708332,104.43484288541666,43.0,76.0
359,103.72681482708333,104.70674025833333,59.0,70.0
360,103.72681482708333,104.71768914583333,55.0,67.0
361,105.04068132708332,105.29615536875,55.0,60.0
362,105.47863682708332,105.64834458333333,60.0,67.0
363,105.47863682708332,105.67571680208333,55.0,67.0
364,106.79250332708332,106.98958330208333,55.0,53.0
365,107.23045882708332,107.37096954999998,60.0,71.0
366,107.23045882708332,107.38921769583332,55.0,71.0
367,104.60272582708333,107.46221027916665,48.0,70.0
368,108.10636982708333,108.64833975833332,59.0,64.0
369,108.10636982708333,108.67936160625,55.0,63.0
370,108.98228082708333,109.15016376874999,62.0,69.0
371,108.98228082708333,109.17388635833333,55.0,66.0
372,108.54432532708333,109.90198737708333,50.0,60.0
373,110.73410282708332,110.91110984166666,59.0,72.0
374,110.73410282708332,110.92205872916666,55.0,69.0
375,110.29614732708333,110.94760613333332,50.0,50.0
376,108.10636982708333,111.17570795625,43.0,71.0
377,111.61001382708332,111.86366305416666,55.0,62.0
378,111.61001382708332,112.18300560624999,60.0,67.0
379,112.04796932708332,112.29796892499999,55.0,62.0
380,112.48592482708332,112.69760331875,60.0,72.0
381,112.48592482708332,112.69942813333333,55.0,67.0
382,111.61001382708332,112.76329664375,48.0,70.0
383,113.36183582708333,114.54066604791666,48.0,64.0
384,113.36183582708333,115.12460671458334,63.0,61.0
385,113.36183582708333,115.13008115833333,60.0,63.0
386,115.11365782708333,115.61000739375,62.0,72.0
387,115.11365782708333,115.64285405625,55.0,71.0
388,115.55161332708332,116.13190436458333,50.0,57.0
389,115.98956882708333,116.36913026041665,59.0,71.0
390,115.98956882708333,116.38372877708332,55.0,72.0
391,116.42752432708332,116.92569870833333,50.0,53.0
392,116.86547982708333,117.16292460416666,55.0,67.0
393,116.86547982708333,117.16292460416666,59.0,71.0
394,117.30343532708332,117.81985785416666,50.0,49.0
395,117.74139082708334,117.98591598125,55.0,75.0
396,117.74139082708334,118.08628078333334,59.0,79.0
397,117.74139082708334,118.15927336666667,62.0,79.0
398,115.11365782708333,118.39832407708332,43.0,79.0
399,118.17934632708332,118.63372515833333,50.0,72.0
400,118.61730182708332,119.10635213541666,57.0,73.0
401,118.61730182708332,119.20124249374999,53.0,73.0
402,119.05525732708332,119.63372354999998,48.0,47.0
403,119.49321282708333,119.699416875,57.0,76.0
404,119.49321282708333,119.71584020625,53.0,74.0
405,119.49321282708333,119.71948983541665,60.0,74.0
406,120.36912382708333,120.62277305416666,57.0,71.0
407,120.36912382708333,120.75598451874998,60.0,74.0
408,120.80707932708333,121.31255296666666,48.0,44.0
409,121.24503482708332,121.61182255833333,53.0,75.0
410,118.61730182708332,121.76510698333333,41.0,77.0
411,121.24503482708332,121.78700475833332,60.0,78.0
412,121.68299032708333,121.94941325624998,48.0,73.0
413,122.12094582708332,122.34722283541666,55.0,72.0
414,122.55890132708333,123.03517793333333,55.0,66.0
415,122.12094582708332,123.03517793333333,60.0,74.0
416,122.99685682708332,123.50598009583334,64.0,80.0
417,122.12094582708332,123.54430120208332,48.0,78.0
418,123.43481232708334,124.10999372291667,55.0,66.0
419,123.87276782708332,124.3307962875,60.0,75.0
420,124.31072332708332,124.429336275,55.0,50.0
421,124.74867882708332,125.16473655208333,64.0,82.0
422,124.74867882708332,125.22678024791665,55.0,79.0
423,123.87276782708332,125.38553911666665,48.0,73.0
424,125.18663432708333,125.392838375,60.0,75.0
425,125.62458982708333,126.37641343541665,59.0,72.0
426,125.62458982708333,126.52787304583333,55.0,72.0
427,126.50050082708333,127.01692335416666,62.0,76.0
428,126.93845632708333,127.45305403958332,55.0,79.0
429,127.37641182708333,127.62276179583333,67.0,75.0
430,127.81436732708332,128.00414804374998,55.0,71.0
431,128.25232282708333,128.62276018749998,55.0,79.0
432,125.62458982708333,128.68297906875,43.0,76.0
433,126.06254532708333,128.6884535125,50.0,65.0
434,128.25232282708333,128.6994024,59.0,79.0
435,128.69027832708332,128.81619053333333,60.0,78.0
436,129.12823382708333,129.35998527916666,57.0,74.0
437,129.12823382708333,129.77056856041668,62.0,77.0
438,129.56618932708332,130.13188184791665,57.0,67.0
439,129.12823382708333,130.4202025520833,50.0,79.0
440,130.00414482708334,130.42567699583333,62.0,76.0
441,130.00414482708334,130.49684476458333,66.0,67.0
442,130.44210032708332,130.72312177291667,57.0,79.0
443,130.8800558270833,131.62458017708332,63.0,74.0
444,130.8800558270833,131.83260903958333,59.0,79.0
445,131.31801132708333,131.852682,54.0,62.0
446,130.8800558270833,131.95487161666665,47.0,80.0
447,131.75596682708334,132.32895860624998,66.0,77.0
448,131.75596682708334,132.356330825,63.0,74.0
449,132.63187782708331,133.0205633333333,67.0,74.0
450,132.63187782708331,133.04063629375,64.0,79.0
451,132.63187782708331,133.12457776458334,40.0,80.0
452,133.06983332708333,133.2869862625,59.0,80.0
453,133.50778882708332,133.83078100833333,38.0,79.0
454,133.50778882708332,133.89099988958333,66.0,70.0
455,133.50778882708332,133.89282470416666,62.0,73.0
456,134.38369982708332,135.0388082625,60.0,73.0
457,134.38369982708332,135.06435566666664,64.0,78.0
458,134.38369982708332,135.1939175020833,48.0,75.0
459,134.82165532708333,135.24683712499998,55.0,64.0
460,135.25961082708332,135.48223820625,60.0,73.0
461,135.25961082708332,135.49136227916665,64.0,78.0
462,135.25961082708332,135.59355189583334,48.0,71.0
463,135.69756632708334,135.8672740833333,62.0,73.0
464,135.69756632708334,135.96763888541665,59.0,71.0
465,135.69756632708334,136.03150739583333,47.0,71.0
466,136.13552182708332,136.70851360625,60.0,73.0
467,136.13552182708332,136.77238211666668,57.0,72.0
468,137.01143282708333,137.23406020624998,57.0,73.0
469,137.01143282708333,137.33260019375,60.0,77.0
470,137.01143282708333,137.3380746375,64.0,79.0
471,136.5734773270833,137.58077497708334,52.0,61.0
472,136.13552182708332,137.7212857,45.0,78.0
473,137.88734382708333,138.34354747291667,55.0,76.0
474,137.88734382708333,138.34354747291667,60.0,75.0
475,138.32529932708331,138.89099184791667,52.0,65.0
476,137.88734382708333,138.93478739791666,45.0,78.0
477,138.76325482708333,138.9475611,55.0,79.0
478,138.76325482708333,139.16836366458332,64.0,80.0
479,138.76325482708333,139.25412995,60.0,80.0
480,139.20121032708332,139.35996919583334,55.0,74.0
481,139.63916582708333,140.13916502291664,57.0,67.0
482,139.63916582708333,140.17018687083333,62.0,75.0
483,139.63916582708333,140.20303353333333,66.0,70.0
484,140.07712132708332,140.59719348333334,45.0,57.0
485,139.63916582708333,140.62091607291666,38.0,79.0
486,140.51507682708333,140.67018606666664,57.0,77.0
487,140.51507682708333,140.765076425,62.0,79.0
488,140.95303232708332,141.24317784583332,57.0,79.0
489,141.39098782708334,141.87638850625,57.0,79.0
490,141.39098782708334,141.88916220833332,62.0,78.0
491,141.39098782708334,141.9147096125,66.0,71.0
492,142.26577487916666,143.0357013375,57.0,78.0
493,142.26577487916666,143.04838247916666,62.0,78.0
494,142.26577487916666,143.07012157916665,66.0,78.0
495,141.39098782708334,143.15345479583334,50.0,76.0
496,143.13533887916665,143.6389613625,62.0,74.0
497,143.57012087916667,144.03388834583333,55.0,71.0
498,143.78751187916666,144.0465694875,59.0,74.0
499,144.00490287916668,144.4215689625,62.0,74.0
500,143.13533887916665,144.74584387083334,43.0,78.0
501,143.35272987916667,144.7476554625,50.0,66.0
502,144.22229387916667,144.9922203375,55.0,72.0
503,144.43968487916666,145.03751012916666,59.0,72.0
504,144.65707587916665,145.0683071875,62.0,71.0
505,144.87446687916668,145.25490112916665,67.0,73.0
506,145.30924887916666,145.61903105416667,55.0,72.0
507,145.52663987916668,145.65345129583332,59.0,76.0
508,145.09185787916667,145.8835234375,50.0,69.0
509,145.74403087916667,146.17518969583332,55.0,79.0
510,145.74403087916667,146.17881287916666,59.0,83.0
511,144.87446687916668,146.21866789583333,43.0,79.0
512,145.74403087916667,146.2367838125,62.0,80.0
513,146.17881287916666,146.3074358875,50.0,78.0
514,146.61359487916667,146.87084089583334,59.0,73.0
515,146.61359487916667,147.0139566375,62.0,78.0
516,147.04837687916665,147.4976516125,59.0,73.0
517,147.48315887916667,147.71141942916665,62.0,71.0
518,147.26576787916667,147.8019990125,66.0,72.0
519,146.83098587916666,148.16431734583333,54.0,61.0
520,146.61359487916667,148.20054917916667,47.0,80.0
521,148.13533187916667,148.40344744583334,66.0,82.0
522,147.91794087916668,148.4813458875,62.0,75.0
523,147.70054987916666,148.5465631875,59.0,74.0
524,148.35272287916666,149.02301179583333,71.0,81.0
525,148.78750487916668,149.17518549583335,66.0,79.0
526,148.57011387916666,149.27119985416667,54.0,66.0
527,149.00489587916667,149.30924327916668,62.0,73.0
528,149.22228687916666,149.4976488125,59.0,82.0
529,149.43967787916665,149.62446022916666,54.0,72.0
530,148.35272287916666,149.6878659375,47.0,79.0
531,149.65706887916667,149.99945970416667,59.0,79.0
532,149.87445987916666,150.11902475416667,62.0,69.0
533,150.09185087916666,150.62627042083332,64.0,78.0
534,150.96141487916665,151.15887837083332,59.0,72.0
535,150.52663287916667,151.18424065416667,47.0,66.0
536,150.09185087916666,151.20779134583333,40.0,79.0
537,150.96141487916665,151.4324287125,64.0,79.0
538,150.96141487916665,151.48496487083332,67.0,72.0
539,151.39619687916667,151.62445742916665,59.0,68.0
540,151.83097887916668,152.4487316375,62.0,71.0
541,152.26576087916666,152.7748181375,57.0,63.0
542,151.83097887916668,152.91793387916667,50.0,79.0
543,152.70054287916668,153.1172089625,66.0,72.0
544,152.70054287916668,153.13170169583333,62.0,73.0
545,153.13532487916666,153.30017972083334,57.0,73.0
546,153.57010687916667,153.7693819625,55.0,69.0
547,153.57010687916667,154.1606857625,60.0,72.0
548,154.00488887916666,154.51032295416667,55.0,70.0
549,154.43967087916667,154.91430789583333,64.0,80.0
550,154.65706187916666,154.92517744583333,55.0,71.0
551,154.87445287916665,155.19510460416666,60.0,74.0
552,153.57010687916667,155.21684370416668,48.0,78.0
553,155.09184387916667,155.4432926625,55.0,67.0
554,155.30923487916667,155.83097327916667,60.0,65.0
555,155.30923487916667,155.89800217083334,48.0,76.0
556,155.74401687916668,155.90887172083333,55.0,67.0
557,155.30923487916667,156.0030744875,64.0,77.0
558,156.17879887916666,156.39075510416666,59.0,78.0
559,156.17879887916666,156.76031980416667,62.0,77.0
560,156.17879887916666,156.8128559625,47.0,82.0
561,156.61358087916668,156.93423260416668,50.0,79.0
562,156.83097187916667,156.9813339875,59.0,78.0
563,157.04836287916666,157.2802466125,57.0,78.0
564,157.04836287916666,157.45778259583332,60.0,77.0
565,157.48314487916667,157.83097047916667,57.0,75.0
566,157.70053587916667,157.92698483750002,60.0,73.0
567,157.26575387916668,158.04836147916666,52.0,71.0
568,157.91792687916666,158.27662202916667,64.0,81.0
569,157.04836287916666,158.6117664875,45.0,79.0
570,158.13531787916668,158.66430264583335,52.0,73.0
571,158.35270887916667,158.90343274583333,57.0,73.0
572,158.57009987916666,158.94691094583334,60.0,61.0
573,158.78749087916668,159.28749017916667,69.0,79.0
574,159.22227287916667,159.55379415416667,57.0,78.0
575,159.43966387916666,159.5791564375,60.0,78.0
576,159.00488187916667,159.80379380416667,52.0,78.0
577,158.78749087916668,159.9487211375,45.0,76.0
578,159.65705487916668,160.03930072083332,57.0,75.0
579,159.65705487916668,160.04292390416666,60.0,78.0
580,159.65705487916668,160.08640210416667,64.0,82.0
581,160.09183687916666,160.13712667083334,45.0,45.0
582,160.09183687916666,160.40886542083334,52.0,80.0
583,160.52661887916668,161.09727025416666,59.0,74.0
584,160.52661887916668,161.15705277916666,62.0,75.0
585,160.96140087916666,161.48857405416666,54.0,68.0
586,161.61357387916667,161.76574757916666,54.0,74.0
587,160.52661887916668,161.7802403125,47.0,83.0
588,161.39618287916667,161.86900830416667,66.0,84.0
589,162.04835587916668,162.3074134875,62.0,71.0
590,161.83096487916666,162.30922507916668,59.0,78.0
591,162.26574687916667,162.68422455416666,64.0,77.0
592,162.70052887916665,163.01031105416666,59.0,79.0
593,162.91791987916667,163.1715427125,64.0,79.0
594,162.48313787916666,163.32190482083334,47.0,74.0
595,162.26574687916667,163.36357142916665,40.0,81.0
596,163.13531087916667,163.4052380375,67.0,79.0
597,163.35270187916666,163.5791508375,64.0,80.0
598,163.57009287916668,163.70052747916668,59.0,76.0
599,164.00487487916666,164.4650191625,57.0,72.0
600,164.00487487916666,164.53204805416667,60.0,76.0
601,164.65704787916667,164.9378445875,57.0,79.0
602,164.43965687916668,165.02298939583335,52.0,78.0
603,164.87443887916666,165.10813420416667,59.0,80.0
604,165.09182987916668,165.29291655416668,60.0,80.0
605,164.00487487916666,165.43422070416668,45.0,81.0
606,165.30922087916667,165.51211914583334,52.0,78.0
607,165.52661187916667,165.66248125416666,57.0,80.0
608,165.74400287916666,165.9813213875,57.0,75.0
609,165.74400287916666,166.3128426625,62.0,82.0
610,166.17878487916667,166.51574092916667,57.0,71.0
611,166.61356687916668,166.8400158375,66.0,66.0
612,166.61356687916668,166.8508853875,62.0,73.0
613,166.61356687916668,166.87987085416665,57.0,71.0
614,165.74400287916666,166.8943635875,50.0,83.0
615,167.47963794583333,167.75661592916666,62.0,70.0
616,167.47963794583333,167.9364717625,59.0,72.0
617,167.91129194583334,168.13970885416666,62.0,74.0
618,168.12711894583333,168.29978054583333,59.0,73.0
619,168.34294594583332,168.5569743875,59.0,80.0
620,168.34294594583332,168.65049942083334,66.0,82.0
621,167.47963794583333,168.73683022083333,47.0,80.0
622,168.55877294583334,168.79977976249998,54.0,72.0
623,168.77459994583333,168.9994197375,62.0,82.0
624,168.99042694583332,169.13611017083332,59.0,78.0
625,169.20625394583334,169.35733284583333,59.0,76.0
626,169.20625394583334,169.4526564375,64.0,85.0
627,169.63790794583332,169.8627277375,64.0,79.0
628,169.85373494583334,169.98862682083333,59.0,72.0
629,170.06956194583333,170.16848265416667,59.0,80.0
630,169.42208094583333,170.27100047916667,47.0,69.0
631,169.20625394583334,170.3645255125,40.0,83.0
632,170.06956194583333,170.36992118749998,67.0,77.0
633,170.28538894583332,170.4454606375,59.0,78.0
634,170.50121594583334,170.72423717916666,64.0,80.0
635,170.71704294583333,170.81056797916665,59.0,78.0
636,170.93286994583332,171.1522940625,57.0,79.0
637,170.93286994583332,171.16488397083333,60.0,78.0
638,171.36452394583333,171.61452355416665,60.0,72.0
639,171.58035094583332,171.70984714583332,57.0,68.0
640,171.14869694583334,171.8699188375,52.0,66.0
641,171.79617794583334,172.0102063875,57.0,79.0
642,171.79617794583334,172.03538620416666,64.0,84.0
643,171.79617794583334,172.0533717875,60.0,79.0
644,172.01200494583333,172.1882636625,52.0,79.0
645,170.93286994583332,172.2691987875,45.0,78.0
646,172.22783194583332,172.50301137083332,57.0,80.0
647,172.44365894583333,172.58394649583332,60.0,76.0
648,172.65948594583332,172.81236340416666,57.0,79.0
649,172.65948594583332,172.88790285416667,62.0,80.0
650,172.87531294583331,173.1001327375,57.0,74.0
651,173.09113994583333,173.3483337875,62.0,75.0
652,173.30696694583332,173.44185882083332,57.0,77.0
653,173.5227939458333,173.61092330416665,57.0,79.0
654,173.5227939458333,173.7799877875,62.0,81.0
655,172.65948594583332,173.81955607083333,50.0,83.0
656,173.73862094583333,173.9580450625,57.0,74.0
657,173.5227939458333,174.01919604583333,66.0,79.0
658,173.95444794583332,174.24581439583332,62.0,78.0
659,174.1702749458333,174.29077835416666,57.0,73.0
660,174.38610194583333,174.63070587916667,59.0,78.0
661,174.38610194583333,174.6972525375,62.0,81.0
662,174.60192894583332,175.10372672083332,54.0,64.0
663,174.8177559458333,175.10372672083332,59.0,83.0
664,175.03358294583333,175.16847482083332,62.0,78.0
665,175.24940994583332,175.29617246249998,62.0,73.0
666,175.24940994583332,175.5569634208333,66.0,85.0
667,175.46523694583334,175.6576826875,54.0,78.0
668,174.38610194583333,175.67746682916666,47.0,80.0
669,175.68106394583333,176.01199867916665,59.0,83.0
670,175.89689094583332,176.04976840416666,62.0,78.0
671,176.11271794583334,176.56235752916666,64.0,79.0
672,176.54437194583332,176.83034272083333,59.0,78.0
673,176.76019894583334,176.86451532916666,64.0,76.0
674,176.32854494583333,177.07314809583332,47.0,73.0
675,176.97602594583333,177.1145149375,59.0,80.0
676,176.97602594583333,177.11631349583334,64.0,82.0
677,176.97602594583333,177.27278807083331,67.0,79.0
678,176.11271794583334,177.34293184583333,40.0,81.0
679,177.19185294583332,177.3573203125,47.0,78.0
680,177.40767994583334,177.6648737875,59.0,82.0
681,177.62350694583333,177.71163630416666,64.0,80.0
682,177.83933394583332,178.10552057916667,57.0,78.0
683,177.83933394583332,178.1774629125,60.0,82.0
684,178.27098794583333,178.52998034583334,57.0,78.0
685,178.48681494583332,178.56235439583332,60.0,67.0
686,178.05516094583334,178.74400878749998,52.0,72.0
687,178.70264194583334,178.91846894583333,57.0,79.0
688,178.70264194583334,178.9598357875,64.0,82.0
689,177.83933394583332,179.45983500416665,45.0,73.0
690,179.13429594583332,179.46343212083332,57.0,79.0
691,179.35012294583333,179.48501482083333,60.0,79.0
692,178.91846894583333,179.49400761249998,52.0,80.0
693,179.56594994583332,179.6235038125,57.0,46.0
694,179.56594994583332,179.64688507083332,60.0,71.0
695,179.56594994583332,179.97242412916665,64.0,82.0
696,179.99760394583333,180.26379057916665,57.0,79.0
697,180.21343094583332,180.29616462916667,60.0,78.0
698,179.78177694583331,180.47781902083332,52.0,73.0
699,180.4292579458333,180.64688350416665,57.0,81.0
700,180.4292579458333,180.6594734125,60.0,89.0
701,180.4292579458333,180.67745899583332,64.0,89.0
702,179.56594994583332,180.92206292916666,45.0,79.0
703,180.86091194583332,180.9670268875,57.0,84.0
704,180.64508494583333,180.98501247083334,52.0,82.0
705,181.29256594583333,181.39688232916666,59.0,81.0
706,181.29256594583333,181.52457997083332,62.0,80.0
707,181.50839294583332,181.7170257125,59.0,77.0
708,181.72421994583334,181.93824838749998,62.0,71.0
709,181.94004694583333,182.05875179583333,59.0,79.0
710,182.15587394583332,182.37529806249998,59.0,80.0
711,182.15587394583332,182.4184634625,62.0,83.0
712,182.15587394583332,182.42745625416666,66.0,82.0
713,181.29256594583333,182.85911025416667,47.0,80.0
714,182.58752794583333,182.90767132916665,59.0,80.0
715,182.80335494583332,182.94903817083332,62.0,72.0
716,182.3717009458333,182.95982952083332,54.0,68.0
717,183.01918194583334,183.26018876249998,59.0,76.0
718,183.01918194583334,183.3465195625,62.0,79.0
719,183.01918194583334,183.5587494458333,66.0,78.0
720,183.45083594583332,183.72601537083332,59.0,78.0
721,183.66666294583334,183.76558365416665,62.0,78.0
722,183.23500894583333,183.92025967083333,54.0,71.0
723,183.88248994583333,184.1127054125,59.0,82.0
724,183.88248994583333,184.13608667083332,62.0,85.0
725,183.01918194583334,184.14867657916665,47.0,82.0
726,183.88248994583333,184.1504751375,66.0,81.0
727,184.09831694583332,184.22961170416664,54.0,78.0
728,184.31414394583334,184.43284879583334,47.0,80.0
729,184.74579794583332,184.89687684583333,55.0,68.0
730,184.74579794583332,185.03356727916665,60.0,71.0
731,184.96162494583334,185.20982599583334,55.0,78.0
732,185.17745194583333,185.4472356958333,60.0,75.0
733,185.39327894583332,185.62529297083333,55.0,67.0
734,185.60910594583333,185.89687527916666,64.0,80.0
735,185.82493294583332,186.11809795416667,55.0,74.0
736,186.04075994583332,186.33932062916665,60.0,78.0
737,184.74579794583332,186.40946440416667,48.0,85.0
738,186.25658694583333,186.5695360958333,55.0,80.0
739,186.47241394583332,186.75478760416667,60.0,76.0
740,186.68824094583331,186.91126217916667,55.0,77.0
741,186.90406794583333,187.12708917916666,60.0,78.0
742,187.11989494583332,187.25118970416665,55.0,72.0
743,187.3357219458333,187.40406716249998,55.0,79.0
744,187.3357219458333,187.5731316458333,60.0,82.0
745,186.47241394583332,187.62888695416666,48.0,83.0
746,187.55154894583333,187.75658459583332,55.0,71.0
747,187.3357219458333,187.83032548749998,64.0,82.0
748,187.76737594583332,188.04795104583332,60.0,73.0
749,187.98320294583334,188.1162962625,55.0,79.0
750,188.19902994583333,188.3914756875,57.0,80.0
751,188.19902994583333,188.4454324375,62.0,75.0
752,188.6306839458333,188.8555037375,62.0,72.0
753,188.84651094583333,189.03031707083332,57.0,78.0
754,189.06304429583332,189.2921348708333,66.0,82.0
755,189.2812257958333,189.52675580416664,57.0,68.0
756,189.50402855416667,189.52675580416664,57.0,75.0
757,188.41485694583332,189.66880111666666,45.0,57.0
758,189.50402855416667,189.74129324166665,62.0,78.0
759,189.7317147,189.74129324166665,62.0,78.0
760,188.19902994583333,189.74512465833334,38.0,85.0
761,189.96455615,190.06948043125,57.0,65.0
762,189.7317147,190.12503593125,66.0,72.0
763,190.20469370208335,190.30920183958335,57.0,78.0
764,190.45069681458335,190.55400254375002,62.0,79.0
765,190.45069681458335,190.61805209583335,66.0,71.0
766,189.96455615,190.69863056458334,38.0,80.0
767,190.94884663125003,191.31772398958336,37.0,85.0
768,190.94884663125003,191.41985158958337,68.0,72.0
769,190.94884663125003,191.4538941229167,61.0,78.0
770,191.4538941229167,191.9453831979167,63.0,78.0
771,191.4538941229167,191.95389383125004,39.0,80.0
772,191.4538941229167,191.96665978125003,70.0,77.0
773,191.9645321229167,192.56811798541668,63.0,74.0
774,192.48514862708336,192.99830343958337,56.0,71.0
775,192.74715712708337,193.0108933479167,60.0,74.0
776,192.96952650625002,193.3831949229167,63.0,74.0
777,191.9645321229167,193.70513686458335,44.0,78.0
778,192.22314012708335,193.7069354229167,51.0,66.0
779,193.18535350625004,193.9497407979167,56.0,72.0
780,193.40118050625003,193.99470475625003,60.0,72.0
781,193.61700750625002,194.0252802479167,63.0,71.0
782,193.83283450625004,194.21053175625002,68.0,73.0
783,194.26448850625002,194.57204198125004,56.0,72.0
784,194.48031550625004,194.60621458958337,60.0,76.0
785,194.04866150625003,194.8346314979167,51.0,69.0
786,194.69614250625003,195.12419938958337,56.0,79.0
787,194.69614250625003,195.12779650625004,60.0,83.0
788,193.83283450625004,195.16736478958336,44.0,79.0
789,194.69614250625003,195.1853503729167,63.0,80.0
790,195.12779650625004,195.2554941479167,51.0,78.0
791,195.55945050625002,195.81484578958336,60.0,73.0
792,195.55945050625002,195.9569318979167,63.0,78.0
793,195.99110450625002,196.4371469729167,60.0,73.0
794,196.42275850625003,196.64937685625003,63.0,71.0
795,196.20693150625004,196.73930477291668,67.0,72.0
796,195.77527750625003,197.09901643958335,55.0,61.0
797,195.55945050625002,197.13498760625004,48.0,80.0
798,197.07023950625003,197.33642613958335,67.0,82.0
799,196.85441250625004,197.4137641479167,63.0,75.0
800,196.63858550625002,197.47851224791668,60.0,74.0
801,197.28606650625002,197.95153308958336,72.0,81.0
802,197.71772050625003,198.10261198958335,67.0,79.0
803,197.50189350625004,198.19793558125002,55.0,66.0
804,197.93354750625002,198.23570530625003,63.0,73.0
805,198.14937450625004,198.4219846229167,60.0,82.0
806,198.3648418229167,198.5469844979167,55.0,72.0
807,197.28606650625002,198.6094844354167,48.0,79.0
808,198.5791273229167,198.9166269854167,60.0,79.0
809,198.7934128229167,199.0344840104167,63.0,69.0
810,199.0076983229167,199.5344835104167,65.0,78.0
811,199.8648403229167,200.0594829854167,60.0,72.0
812,199.4362693229167,200.0844829604167,48.0,66.0
813,199.0076983229167,200.1076972229167,41.0,79.0
814,199.8648403229167,200.3291255729167,65.0,79.0
815,199.8648403229167,200.3809112354167,68.0,72.0
816,200.2934113229167,200.5184110979167,60.0,68.0
817,200.72198232291672,201.3309102854167,63.0,71.0
818,201.1505533229167,201.6523385354167,58.0,63.0
819,200.72198232291672,201.79340982291671,51.0,79.0
820,201.5791243229167,201.9898381979167,67.0,72.0
821,201.5791243229167,202.0041238979167,63.0,73.0
822,202.0076953229167,202.1701951604167,58.0,73.0
823,202.4362663229167,202.6326946979167,56.0,69.0
824,202.4362663229167,203.0184085979167,61.0,72.0
825,202.8648373229167,203.3630511104167,56.0,70.0
826,203.2934083229167,203.7612649979167,65.0,80.0
827,203.5076938229167,203.7719792729167,56.0,71.0
828,203.7219793229167,204.0380504354167,61.0,74.0
829,202.4362663229167,204.0594789854167,49.0,78.0
830,203.9362648229167,204.2826930479167,56.0,67.0
831,204.1505503229167,204.6648355229167,61.0,65.0
832,204.1505503229167,204.73090688541672,49.0,76.0
833,204.5791213229167,204.7416211604167,56.0,67.0
834,204.1505503229167,204.8344782104167,65.0,77.0
835,205.0076923229167,205.2166206854167,60.0,78.0
836,205.0076923229167,205.58090603541672,63.0,77.0
837,205.0076923229167,205.6326916979167,48.0,82.0
838,205.43626332291672,205.7523344354167,51.0,79.0
839,205.6505488229167,205.7987629604167,60.0,78.0
840,205.8648343229167,206.0934055229167,58.0,78.0
841,205.8648343229167,206.2684053479167,61.0,77.0
842,206.2934053229167,206.6362621229167,58.0,75.0
843,206.50769082291671,206.7309048854167,61.0,73.0
844,206.0791198229167,206.8505476229167,53.0,71.0
845,206.7219763229167,207.0755473979167,65.0,81.0
846,205.8648343229167,207.4059042104167,46.0,79.0
847,206.9362618229167,207.45768987291672,53.0,73.0
848,207.1505473229167,207.6934039229167,58.0,73.0
849,207.3648328229167,207.7362610229167,61.0,61.0
850,207.5791183229167,208.0719749729167,70.0,79.0
851,208.0076893229167,208.3344747104167,58.0,78.0
852,208.2219748229167,208.3594746854167,61.0,78.0
853,207.7934038229167,208.5809030354167,53.0,78.0
854,207.5791183229167,208.72376003541672,46.0,76.0
855,208.4362603229167,208.8130456604167,58.0,75.0
856,208.4362603229167,208.8166170854167,61.0,78.0
857,208.4362603229167,208.8594741854167,65.0,82.0
858,208.8648313229167,208.9094741354167,46.0,45.0
859,208.8648313229167,209.1773310104167,53.0,80.0
860,209.2934023229167,209.8559017604167,60.0,74.0
861,209.2934023229167,209.9148302729167,63.0,75.0
862,209.7219733229167,210.2416156604167,55.0,68.0
863,210.3648298229167,210.5148296729167,55.0,74.0
864,209.2934023229167,210.5291153729167,48.0,83.0
865,210.15054432291672,210.6166152854167,67.0,84.0
866,210.7934008229167,211.0487577104167,63.0,71.0
867,210.5791153229167,211.0505434229167,60.0,78.0
868,211.0076863229167,211.4201859104167,65.0,77.0
869,211.4362573229167,211.7416141604167,60.0,79.0
870,211.6505428229167,211.9005425729167,65.0,79.0
871,211.22197182291671,212.0487567104167,48.0,74.0
872,211.0076863229167,212.0898280979167,41.0,81.0
873,211.8648283229167,212.1308994854167,68.0,79.0
874,212.0791138229167,212.3023278854167,65.0,80.0
875,212.2933993229167,212.42197062291672,60.0,76.0
876,212.72197032291672,213.1755412979167,58.0,72.0
877,212.72197032291672,213.2416126604167,61.0,76.0
878,213.3648268229167,213.6416122604167,58.0,79.0
879,213.1505413229167,213.7255407479167,53.0,78.0
880,213.5791123229167,213.8094692354167,60.0,80.0
881,213.79339782291672,213.9916119104167,61.0,80.0
882,212.72197032291672,214.1308974854167,46.0,81.0
883,214.0076833229167,214.2076831229167,53.0,78.0
884,214.2219688229167,214.3558972604167,58.0,80.0
885,214.4362543229167,214.6701826604167,58.0,75.0
886,214.4362543229167,214.9969680479167,63.0,82.0
887,214.86482532291672,215.1969678479167,58.0,71.0
888,215.2933963229167,215.5166103854167,67.0,66.0
889,215.2933963229167,215.5273246604167,63.0,73.0
890,215.2933963229167,215.5558960604167,58.0,71.0
891,214.4362543229167,215.57018176041672,51.0,83.0
892,216.7469662979167,217.0505374229167,60.0,78.0
893,216.5291093729167,217.0594659854167,56.0,78.0
894,216.9951803354167,217.3987513604167,68.0,81.0
895,217.3719656729167,217.6433939729167,60.0,79.0
896,217.1844658604167,217.6487511104167,56.0,74.0
897,216.3344667104167,217.67553679791672,51.0,73.0
898,216.1148240729167,217.70232248541672,44.0,80.0
899,217.60232258541672,218.31303616041671,63.0,79.0
900,218.2273219604167,218.5541073479167,56.0,76.0
901,218.4344646104167,218.5594644854167,60.0,78.0
902,218.0201793104167,218.7362500229167,51.0,73.0
903,218.66839294791671,218.91303556041672,56.0,83.0
904,217.8166080854167,219.0023211854167,44.0,79.0
905,218.6719643729167,219.0219640229167,60.0,92.0
906,218.8773213104167,219.0451782854167,51.0,80.0
907,218.6701786604167,219.1398210479167,63.0,84.0
908,219.0862496729167,219.35232083541672,56.0,78.0
909,219.2898208979167,219.4451778854167,60.0,79.0
910,219.5255349479167,219.8612488979167,60.0,76.0
911,219.5308920854167,220.1058915104167,63.0,78.0
912,220.17374858541672,220.42910547291672,60.0,82.0
913,219.9701773604167,220.4594625854167,55.0,74.0
914,220.3808912354167,220.6094624354167,63.0,80.0
915,220.5880338854167,220.8416050604167,60.0,81.0
916,220.8058908104167,221.0058906104167,63.0,71.0
917,219.5416063604167,221.1523190354167,48.0,80.0
918,221.02910487291672,221.1558904604167,60.0,74.0
919,221.2469617979167,221.4826758479167,60.0,80.0
920,221.23981894791672,221.6380328354167,64.0,82.0
921,221.6898184979167,221.9880324854167,60.0,82.0
922,221.90588971041672,222.0201753104167,64.0,81.0
923,221.44517588541672,222.15053232291672,55.0,74.0
924,222.1273180604167,222.4898176979167,60.0,89.0
925,222.3023178854167,222.5041033979167,52.0,63.0
926,222.1291037729167,222.5576747729167,64.0,95.0
927,222.1237466354167,222.5791033229167,67.0,87.0
928,222.5362462229167,222.6576746729167,55.0,75.0
929,221.24517608541672,222.66124609791672,48.0,82.0
930,222.7683888479167,222.9094601354167,60.0,89.0
931,222.9755314979167,223.2291026729167,60.0,79.0
932,222.9826743479167,223.3808882354167,65.0,80.0
933,223.41660248541672,223.7255307479167,60.0,78.0
934,223.6576736729167,223.7666021354167,65.0,79.0
935,223.86124489791672,224.1148160729167,68.0,82.0
936,223.1933884229167,224.2594587854167,48.0,72.0
937,224.0594589854167,224.2808873354167,65.0,79.0
938,222.9808886354167,224.3487444104167,41.0,83.0
939,224.2701730604167,224.5737441854167,60.0,79.0
940,224.47195857291672,224.6683869479167,65.0,79.0
941,224.8916010104167,225.1523150354167,58.0,78.0
942,225.1148150729167,225.3683862479167,63.0,78.0
943,225.30410059791672,225.5916003104167,58.0,71.0
944,224.6844583604167,225.8112429479167,51.0,89.0
945,225.5451717854167,225.94874281041672,67.0,81.0
946,225.7433858729167,225.9790999229167,58.0,72.0
947,225.9630285104167,226.1880282854167,63.0,69.0
948,226.1755282979167,226.25945678541672,58.0,66.0
949,226.3773138104167,226.6558849604167,61.0,74.0
950,226.5969564479167,226.8326704979167,56.0,76.0
951,226.8219562229167,227.0933845229167,61.0,74.0
952,227.02017031041672,227.2362415229167,56.0,67.0
953,227.2398129479167,227.5469554979167,65.0,79.0
954,227.4469555979167,227.6915982104167,56.0,78.0
955,227.6773125104167,227.9380265354167,61.0,70.0
956,226.3755280979167,227.94159796041671,49.0,76.0
957,227.88088373541672,228.2398119479167,56.0,72.0
958,228.1023120854167,228.6058830104167,65.0,79.0
959,228.1040977979167,228.6183829979167,61.0,75.0
960,228.5505259229167,228.8076685229167,56.0,77.0
961,228.9880254854167,229.2148109729167,56.0,82.0
962,228.9862397729167,229.2790966229167,61.0,84.0
963,228.9898111979167,229.3755250979167,65.0,87.0
964,228.1023120854167,229.4183821979167,49.0,81.0
965,229.4487393104167,229.6701676604167,60.0,78.0
966,229.8487389104167,230.4094526354167,61.0,80.0
967,229.8505246229167,230.6255238479167,58.0,78.0
968,230.2701670604167,230.8826664479167,53.0,72.0
969,230.7148094729167,230.9880234854167,65.0,79.0
970,230.7094523354167,230.99159491041672,61.0,68.0
971,231.4094516354167,231.5612371979167,58.0,64.0
972,231.4826658479167,231.5933800229167,61.0,68.0
973,231.54695149791672,231.63445141041672,65.0,75.0
974,231.12909477291672,231.6773085104167,53.0,78.0
975,231.5933800229167,231.7969512479167,70.0,78.0
976,231.9808796354167,232.2862364729167,58.0,79.0
977,231.7862369729167,232.3326649979167,53.0,78.0
978,232.1880222854167,232.4719505729167,61.0,81.0
979,232.6201647104167,232.90587871041672,58.0,80.0
980,232.8255216479167,233.0933785229167,61.0,78.0
981,229.8612388979167,233.1148070729167,46.0,80.0
982,232.4362363229167,233.1469498979167,53.0,83.0
983,233.0469499979167,233.2040926979167,65.0,79.0
984,233.2773069104167,233.7594492854167,63.0,79.0
985,233.6862350729167,233.9576633729167,60.0,77.0
986,234.1183774979167,234.3701629604167,60.0,79.0
987,233.2880211854167,234.4237343354167,48.0,82.0
988,234.3130201604167,234.4969485479167,55.0,78.0
989,234.1130203604167,234.6165912854167,67.0,78.0
990,234.5380199354167,234.9505195229167,60.0,79.0
991,234.7523054354167,235.0076623229167,63.0,65.0
992,234.9755194979167,235.4148047729167,65.0,79.0
993,235.3790905229167,235.8183757979167,60.0,74.0
994,235.6040902979167,235.8612328979167,65.0,78.0
995,235.1594478854167,236.04337557291672,48.0,72.0
996,235.8290900729167,236.1023040854167,68.0,78.0
997,234.96659093541672,236.12194692291672,41.0,80.0
998,236.0344470104167,236.24873251041672,65.0,80.0
999,236.2415896604167,236.3415895604167,60.0,78.0
1000,236.6933749229167,237.0005174729167,53.0,59.0
1001,236.7737319854167,237.4058742104167,61.0,69.0
1002,236.7005177729167,237.4255170479167,58.0,63.0
1003,236.8273033604167,237.4505170229167,65.0,70.0
1004,237.1844458604167,237.6951596354167,53.0,64.0
1005,236.5273036604167,237.77730241041672,46.0,78.0
1006,237.62015971041671,237.8005166729167,61.0,70.0
1007,238.3112304479167,238.63087298541672,58.0,55.0
1008,238.38801608541672,238.9683726479167,63.0,69.0
1009,239.7451575854167,240.8165850854167,58.0,66.0
1010,239.3683722479167,240.8255136479167,63.0,73.0
1011,238.4665874354167,240.83087078541672,67.0,68.0
1012,238.8380156354167,240.9433706729167,46.0,52.0
1013,238.40944463541672,241.0005134729167,39.0,77.0
1014,240.8558707604167,241.00229918541672,56.0,51.0
1015,240.9897991979167,241.03087058541672,61.0,34.0
1016,241.3933702229167,241.97551249791672,44.0,50.0
1017,240.96479922291672,242.0933695229167,37.0,62.0
1018,240.9772992104167,242.1219409229167,65.0,76.0
1019,241.81301266041672,242.2665836354167,61.0,71.0
1020,242.6022975854167,242.82908307291672,58.0,41.0
1021,243.1040827979167,243.63979654791672,58.0,63.0
1022,242.6755117979167,243.8022963854167,51.0,72.0
1023,242.6701546604167,243.97372478541672,63.0,67.0
1024,243.5469394979167,244.0362247229167,67.0,65.0
1025,244.38443866041672,244.69515263541672,56.0,63.0
1026,244.9094381354167,245.5630089104167,56.0,65.0
1027,244.4487243104167,245.78443726041672,61.0,67.0
1028,244.4683671479167,246.7808648354167,49.0,73.0
1029,246.0094370354167,246.98265034791672,61.0,66.0
1030,245.4469375979167,247.0094360354167,65.0,77.0
1031,247.68800678541672,250.3451469854167,51.0,67.0
1032,247.41657848541672,250.3844326604167,46.0,63.0
1033,247.9630065104167,250.39336122291672,58.0,70.0
1034,247.16122159791672,250.4183611979167,39.0,74.0
1035,248.3290775729167,250.4237183354167,63.0,70.0
1036,250.8647893229167,252.26835934791671,51.0,55.0
1037,251.29336032291673,252.7505017229167,60.0,59.0
1038,251.29336032291673,252.78085883541672,56.0,62.0
1039,252.5790733229167,253.5308580854167,51.0,46.0
1040,250.43621832291672,253.7005007729167,44.0,76.0
1041,253.00764432291672,253.9665719354167,60.0,70.0
1042,253.00764432291672,253.9772862104167,56.0,67.0
1043,254.2933573229167,254.5433570729167,56.0,60.0
1044,254.7219283229167,254.8879995854167,61.0,67.0
1045,254.7219283229167,254.9147852729167,56.0,67.0
1046,256.0076413229167,256.2004982729167,56.0,53.0
1047,256.43621232291673,256.5737121854167,61.0,71.0
1048,256.43621232291673,256.59156931041673,56.0,71.0
1049,253.8647863229167,256.6629978104167,49.0,70.0
1050,257.2933543229167,257.8237109354167,60.0,64.0
1051,257.2933543229167,257.8540680479167,56.0,63.0
1052,258.1504963229167,258.3147818729167,63.0,69.0
1053,258.1504963229167,258.3379961354167,56.0,66.0
1054,257.7219253229167,259.0504954229167,51.0,60.0
1055,259.8647803229167,260.0379944354167,60.0,72.0
1056,259.8647803229167,260.0487087104167,56.0,69.0
1057,259.43620932291674,260.0737086854167,51.0,50.0
1058,257.2933543229167,260.2969227479167,44.0,71.0
1059,260.7219223229167,260.9701363604167,56.0,62.0
1060,260.7219223229167,261.2826360479167,61.0,67.0
1061,261.1504933229167,261.3951359354167,56.0,62.0
1062,261.5790643229167,261.7862069729167,61.0,72.0
1063,261.5790643229167,261.7879926854167,56.0,67.0
1064,260.7219223229167,261.8504926229167,49.0,70.0
1065,262.4362063229167,263.58977659791674,49.0,64.0
1066,262.4362063229167,264.1612045979167,64.0,61.0
1067,262.4362063229167,264.16656173541674,61.0,63.0
1068,264.6129898604167,266.3558452604167,51.0,56.0
1069,264.2058474104167,266.8040590979167,44.0,63.0
1070,265.63441741041675,267.1272730604167,68.0,71.0
1071,265.0879893854167,267.14334447291674,63.0,74.0
1072,266.2612024979167,267.2254872479167,56.0,52.0
1073,267.54334407291674,268.23262909791674,60.0,59.0
1074,267.47548699791673,268.2433433729167,56.0,53.0
1075,267.3808442354167,268.2594147854167,51.0,64.0
1076,267.56655833541674,268.2594147854167,63.0,59.0
1077,267.3254871479167,268.2897718979167,44.0,38.0
