,start,end,pitch,velocity
0,14.460527520833335,15.218422320833334,53.0,72.0
1,14.460527520833335,15.22500126875,69.0,78.0
2,14.460527520833335,15.259211797916667,65.0,90.0
3,14.460527520833335,15.2605275875,41.0,60.0
4,14.460527520833335,15.263159166666668,60.0,93.0
5,15.407896020833334,15.561843402083333,53.0,47.0
6,15.407896020833334,15.561843402083333,69.0,56.0
7,15.407896020833334,15.564474981250001,41.0,55.0
8,15.407896020833334,15.575001297916668,60.0,55.0
9,15.407896020833334,15.578948666666667,65.0,55.0
10,15.723685520833333,15.8763171125,53.0,62.0
11,15.723685520833333,15.886843429166667,41.0,47.0
12,15.723685520833333,15.890790797916667,69.0,59.0
13,15.723685520833333,15.898685535416668,65.0,61.0
14,15.723685520833333,15.901317114583334,60.0,59.0
15,16.039475020833333,16.178948716666667,53.0,83.0
16,16.039475020833333,16.190790822916668,69.0,69.0
17,16.039475020833333,16.20000135,41.0,63.0
18,16.039475020833333,16.203948718750002,65.0,77.0
19,16.039475020833333,16.21184345625,60.0,77.0
20,16.355264520833334,16.4921066375,65.0,79.0
21,16.355264520833334,16.500001375,69.0,82.0
22,16.355264520833334,16.5078961125,41.0,62.0
23,16.355264520833334,16.513159270833334,60.0,85.0
24,16.355264520833334,16.525001377083335,53.0,76.0
25,16.671054020833335,16.74868560625,69.0,75.0
26,16.671054020833335,16.751317185416667,65.0,93.0
27,16.671054020833335,16.802632979166667,60.0,97.0
28,16.671054020833335,16.910527725,53.0,96.0
29,16.671054020833335,16.953948781250002,41.0,63.0
30,16.986843520833332,19.059212114583335,61.0,127.0
31,16.986843520833332,19.059212114583335,64.0,96.0
32,16.986843520833332,19.157896333333333,45.0,89.0
33,16.986843520833332,19.22631739166667,57.0,102.0
34,19.513159520833334,20.636843825,53.0,72.0
35,19.513159520833334,20.647370141666666,46.0,95.0
36,19.513159520833334,20.650001720833334,65.0,86.0
37,19.513159520833334,20.657896458333333,50.0,85.0
38,19.513159520833334,20.669738564583334,62.0,95.0
39,19.513159520833334,20.673685933333335,58.0,112.0
40,20.776317520833334,21.471054420833333,47.0,88.0
41,20.776317520833334,21.61447548541667,65.0,86.0
42,20.776317520833334,21.650001804166667,62.0,92.0
43,20.776317520833334,21.8289491875,59.0,97.0
44,22.039475520833335,22.242107116666666,64.0,76.0
45,22.039475520833335,22.24342290625,55.0,69.0
46,22.039475520833335,22.24342290625,60.0,78.0
47,22.039475520833335,22.271054487500002,48.0,69.0
48,22.039475520833335,22.290791331250002,36.0,61.0
49,22.355265020833336,22.544738720833333,55.0,48.0
50,22.355265020833336,22.544738720833333,64.0,47.0
51,22.355265020833336,22.55000187916667,60.0,52.0
52,22.355265020833336,22.556580827083334,48.0,55.0
53,22.355265020833336,22.565791354166667,36.0,48.0
54,22.671054520833334,22.860528220833334,48.0,54.0
55,22.671054520833334,22.869738747916667,36.0,46.0
56,22.671054520833334,22.880265064583334,55.0,53.0
57,22.671054520833334,22.88289664375,64.0,53.0
58,22.671054520833334,22.892107170833334,60.0,54.0
59,22.986844020833335,23.155265087500002,36.0,68.0
60,22.986844020833335,23.168422983333336,64.0,69.0
61,22.986844020833335,23.17500193125,60.0,73.0
62,22.986844020833335,23.17763351041667,55.0,74.0
63,22.986844020833335,23.181580879166667,48.0,61.0
64,23.302633520833336,23.792107245833336,64.0,95.0
65,23.302633520833336,23.802633562500002,60.0,96.0
66,23.302633520833336,23.809212510416668,55.0,92.0
67,23.302633520833336,23.97237041875,36.0,79.0
68,23.302633520833336,24.1342125375,48.0,95.0
69,23.934212520833334,24.39079150625,64.0,99.0
70,23.934212520833334,24.47368625,60.0,102.0
71,23.934212520833334,24.644738895833335,55.0,83.0
72,24.565791520833333,25.42500211875,43.0,74.0
73,24.881581020833334,25.56579160416667,50.0,50.0
74,25.197370520833335,25.869738997916667,58.0,93.0
75,25.197370520833335,25.893423210416668,62.0,89.0
76,25.513160020833336,25.955265320833334,55.0,82.0
77,25.828949520833334,26.81052855,45.0,75.0
78,26.144739020833335,26.86842329166667,52.0,61.0
79,26.776318020833333,27.167107527083335,57.0,82.0
80,26.460528520833336,27.317107539583336,64.0,85.0
81,27.407897020833335,27.81579179166667,59.0,60.0
82,27.092107520833334,27.822370739583334,47.0,68.0
83,27.723686520833336,28.268423408333334,65.0,86.0
84,28.039476020833334,28.38816026041667,59.0,63.0
85,28.671055020833336,29.10394979375,50.0,58.0
86,28.355265520833335,29.16710769375,43.0,69.0
87,28.986844520833333,29.635528785416668,62.0,88.0
88,29.302634020833334,29.665791945833334,55.0,77.0
89,30.565792020833335,30.925002577083333,52.0,61.0
90,30.881581520833336,30.989476266666667,55.0,69.0
91,29.934213020833333,34.06316073333333,43.0,40.0
92,29.618423520833336,34.071055470833336,36.0,79.0
93,30.250002520833334,34.150002845833335,48.0,70.0
94,31.671055270833335,34.619739727083335,67.0,68.0
95,31.197371020833334,34.671055520833335,60.0,72.0
96,31.513160520833335,34.671055520833335,64.0,59.0
97,32.14473952083333,34.671055520833335,72.0,83.0
98,34.671055520833335,35.43816084791667,41.0,75.0
99,34.986845020833336,35.50000295833333,48.0,56.0
100,35.61842402083334,35.752634558333334,41.0,77.0
101,36.25000302083333,36.62237147291667,48.0,78.0
102,35.93421352083333,36.62631884166667,41.0,72.0
103,36.881582020833335,37.225003102083335,53.0,72.0
104,36.565792520833334,37.226318891666665,57.0,78.0
105,35.30263452083334,37.226318891666665,60.0,89.0
106,37.197371520833336,38.00395053541667,38.0,68.0
107,37.51316102083334,38.02763474791667,45.0,41.0
108,38.14474002083333,38.25658213541667,38.0,56.0
109,38.46052952083333,39.2605295875,38.0,75.0
110,38.776319020833334,39.42763486458333,45.0,58.0
111,39.092108520833335,39.463161183333334,50.0,69.0
112,39.092108520833335,39.74474015416667,62.0,65.0
113,37.82895052083334,39.780266472916665,65.0,90.0
114,39.407898020833336,39.79342436875,57.0,77.0
115,39.72368752083334,40.48684547916667,36.0,63.0
116,40.03947702083334,40.515792850000004,48.0,73.0
117,40.67105602083333,40.793424452083336,36.0,83.0
118,40.35526652083333,41.36447713125,55.0,66.0
119,40.35526652083333,41.381582395833334,60.0,79.0
120,40.35526652083333,41.41447713541667,64.0,77.0
121,40.986845520833334,41.78026663958334,36.0,67.0
122,41.302635020833335,41.8026350625,43.0,52.0
123,41.61842452083334,41.97500349791667,48.0,73.0
124,41.61842452083334,42.23816141458334,60.0,72.0
125,41.61842452083334,42.242108783333336,64.0,66.0
126,41.93421402083334,42.384214058333335,55.0,74.0
127,42.25000352083334,42.96184568541667,43.0,73.0
128,42.56579302083333,43.007898320833334,50.0,65.0
129,43.197372020833335,43.41710888125,43.0,74.0
130,42.881582520833334,43.55921415625,58.0,95.0
131,42.881582520833334,43.57368784166667,62.0,82.0
132,43.513161520833336,44.276319479166666,36.0,71.0
133,43.82895102083334,44.3368458,43.0,37.0
134,44.46053002083334,44.785530047916666,55.0,75.0
135,44.14474052083334,44.81447741875,64.0,79.0
136,44.14474052083334,44.85658268541667,60.0,81.0
137,44.77631952083333,45.51184589791667,38.0,75.0
138,45.407898520833335,45.62237222291667,50.0,63.0
139,45.092109020833334,45.65263538333333,45.0,56.0
140,45.723688020833336,45.84737224166667,38.0,55.0
141,45.407898520833335,46.59342493541667,65.0,77.0
142,45.407898520833335,46.614477568750004,62.0,81.0
143,46.03947752083334,46.91710917291667,38.0,71.0
144,46.35526702083334,46.93816180625,45.0,67.0
145,46.67105652083333,47.223688145833336,50.0,77.0
146,46.67105652083333,47.384197875000005,65.0,40.0
147,46.67105652083333,47.432830906250004,62.0,39.0
148,46.98684602083333,47.478835125,57.0,79.0
149,47.302635520833334,47.996711187500004,45.0,68.0
150,47.618162187500005,48.0703179375,52.0,51.0
151,48.2490771875,48.45543896875,45.0,58.0
152,47.933619687500006,48.56847790625,64.0,79.0
153,47.933619687500006,48.97594384375,60.0,83.0
154,48.5645346875,49.54113853125,38.0,77.0
155,48.8799921875,49.550339375,45.0,74.0
156,49.1954496875,49.57005546875,50.0,65.0
157,49.1954496875,49.786932500000006,65.0,73.0
158,49.5109071875,49.844766375000006,57.0,86.0
159,49.1954496875,49.8579104375,62.0,88.0
160,49.8263646875,50.6412965625,36.0,69.0
161,50.457279687500005,50.71096009375,48.0,64.0
162,50.141822187500004,50.746449062500005,43.0,52.0
163,50.772737187500006,50.9146930625,36.0,72.0
164,50.457279687500005,51.613957187500006,60.0,77.0
165,50.457279687500005,51.619214812500005,64.0,72.0
166,50.772737187500006,51.648131750000005,55.0,56.0
167,51.0881946875,51.75985628125,36.0,72.0
168,51.4036521875,51.932043500000006,48.0,85.0
169,51.7191096875,52.286933187500004,60.0,95.0
170,51.7191096875,52.31716453125,64.0,90.0
171,52.0345671875,52.48803734375,55.0,74.0
172,52.3500246875,53.05717525,43.0,69.0
173,52.665482187500004,53.12946759375,50.0,66.0
174,53.296397187500006,53.49750134375,43.0,50.0
175,52.980939687500005,53.6644309375,62.0,89.0
176,52.980939687500005,53.787985125000006,58.0,107.0
177,54.2427696875,54.66825885000001,48.0,78.0
178,53.92731218750001,54.67351095000001,43.0,53.0
179,53.6118546875,54.702397500000004,36.0,77.0
180,54.557964750000004,54.90985545000001,55.0,85.0
181,54.2427696875,54.933489900000005,60.0,89.0
182,54.2427696875,54.950559225000006,64.0,88.0
183,54.879655875000005,55.645149450000005,41.0,75.0
184,55.194781875000004,55.70686162500001,48.0,56.0
185,55.825033875,55.958962425,41.0,77.0
186,56.45528587500001,56.826871950000005,48.0,78.0
187,56.14015987500001,56.830811025,41.0,72.0
188,57.08553787500001,57.42823740000001,53.0,72.0
189,56.77041187500001,57.42955042500001,57.0,78.0
190,55.509907875,57.42955042500001,60.0,89.0
191,57.400663875000006,58.20554820000001,38.0,68.0
192,57.715789875000006,58.229182650000006,45.0,41.0
193,58.346041875000004,58.457649,38.0,56.0
194,58.661167875000004,59.459487075000006,38.0,75.0
195,58.976293875,59.62624125000001,45.0,58.0
196,59.291419875,59.661692925000004,50.0,69.0
197,59.291419875,59.94268027500001,62.0,65.0
198,58.030915875000005,59.978131950000005,65.0,90.0
199,59.60654587500001,59.99126220000001,57.0,77.0
200,59.92167187500001,60.683226375000004,36.0,63.0
201,60.23679787500001,60.71211292500001,48.0,73.0
202,60.867049875000006,60.989161200000005,36.0,83.0
203,60.55192387500001,61.55901405000001,55.0,66.0
204,60.55192387500001,61.576083375,60.0,79.0
205,60.55192387500001,61.608909000000004,64.0,77.0
206,61.024612875,61.81636695,36.0,67.0
207,61.497301875000005,61.99625137500001,43.0,52.0
208,61.812427875000004,62.16825765000001,48.0,73.0
209,61.812427875000004,62.43086265000001,60.0,72.0
210,61.812427875000004,62.43480172500001,64.0,66.0
211,62.127553875000004,62.576608425,55.0,74.0
212,62.44267987500001,63.15302640000001,43.0,73.0
213,62.757805875,63.198982275000006,50.0,65.0
214,63.38805787500001,63.60733305000001,43.0,74.0
215,63.07293187500001,63.749139750000005,58.0,95.0
216,63.07293187500001,63.763583025,62.0,82.0
217,63.696618750000006,64.45817325,36.0,71.0
218,64.01174475,64.51857240000001,43.0,37.0
219,64.64199675,64.96631392500001,55.0,75.0
220,64.32687075000001,64.995200475,64.0,79.0
221,64.32687075000001,65.037217275,60.0,81.0
222,64.95712275000001,65.691103725,38.0,75.0
223,65.58737475000001,65.80139782500001,50.0,63.0
224,65.27224875,65.8315974,45.0,56.0
225,65.90250075,66.02592510000001,38.0,55.0
226,65.58737475000001,66.770410275,65.0,77.0
227,65.58737475000001,66.791418675,62.0,81.0
228,66.21762675000001,67.093414425,38.0,71.0
229,66.53275275,67.114422825,45.0,67.0
230,66.84787875,67.39934925,50.0,77.0
231,66.84787875,67.55953830000001,65.0,40.0
232,66.84787875,67.60812022500001,62.0,39.0
233,67.16300475,67.65407610000001,57.0,79.0
234,67.47813075,68.17140795,45.0,68.0
235,67.79325675000001,68.24493735,52.0,51.0
236,68.42350875000001,68.629653675,45.0,58.0
237,68.10838275,68.74257382500001,64.0,79.0
238,68.10838275,69.14961157500001,60.0,83.0
239,68.73863475,69.714212325,38.0,77.0
240,69.05376075000001,69.7234035,45.0,74.0
241,69.36888675,69.743098875,50.0,65.0
242,69.36888675,69.959748,65.0,73.0
243,69.68401275000001,70.01752110000001,57.0,86.0
244,69.36888675,70.03065135,62.0,88.0
245,69.99913875,70.81321425,36.0,69.0
246,70.62939075,70.88280457500001,48.0,64.0
247,70.31426475,70.91825625000001,43.0,52.0
248,70.94451675,71.08632345000001,36.0,72.0
249,70.62939075,71.78485275,60.0,77.0
250,70.62939075,71.79010485,64.0,72.0
251,70.94451675,71.8189914,55.0,56.0
252,71.25964275000001,71.93059852500001,36.0,72.0
253,71.57476875,72.10260480000001,48.0,85.0
254,71.88989475000001,72.45712155000001,60.0,95.0
255,71.88989475000001,72.48732112500001,64.0,90.0
256,72.20502075,72.65801437500001,55.0,74.0
257,72.52014675000001,73.22655420000001,43.0,69.0
258,72.83527275,73.298770575,50.0,66.0
259,73.46552475000001,73.66641757500001,43.0,50.0
260,73.15039875000001,73.83317175,62.0,89.0
261,73.15039875000001,73.95659610000001,58.0,107.0
262,74.41090275,74.83519260000001,48.0,78.0
263,74.09577675,74.8404282,43.0,53.0
264,73.78065075,74.869224,36.0,77.0
265,74.725245,75.0760302,55.0,85.0
266,74.41090275,75.09959040000001,60.0,89.0
267,74.41090275,75.11660610000001,64.0,88.0
268,75.039381,75.81424980000001,41.0,79.0
269,75.667653,75.83257440000001,53.0,58.0
270,75.35351700000001,75.8482812,48.0,72.0
271,75.981789,76.10744340000001,41.0,77.0
272,75.667653,76.72131750000001,60.0,86.0
273,75.667653,76.72917090000001,65.0,86.0
274,75.667653,76.73964210000001,69.0,83.0
275,76.924197,77.11006080000001,53.0,75.0
276,76.610061,77.1349299,48.0,55.0
277,76.29592500000001,77.14016550000001,41.0,75.0
278,76.924197,77.44775700000001,65.0,95.0
279,76.924197,77.44906590000001,69.0,88.0
280,77.23833300000001,77.57472030000001,60.0,90.0
281,77.552469,78.27105510000001,36.0,83.0
282,77.866605,78.33388230000001,43.0,44.0
283,78.18074100000001,78.3482802,48.0,75.0
284,78.494877,78.62707590000001,36.0,72.0
285,78.18074100000001,78.98964120000001,64.0,92.0
286,78.18074100000001,78.9935679,60.0,95.0
287,78.18074100000001,79.0118925,55.0,81.0
288,79.12314900000001,79.35220650000001,64.0,90.0
289,79.12314900000001,79.36005990000001,60.0,95.0
290,79.12314900000001,79.3639866,55.0,83.0
291,78.80901300000001,79.4019447,36.0,85.0
292,79.12314900000001,79.5537771,48.0,89.0
293,79.437285,80.04723240000001,60.0,102.0
294,79.437285,80.05639470000001,64.0,95.0
295,79.75142100000001,80.2239339,55.0,92.0
296,80.379693,80.73702270000001,50.0,81.0
297,80.06555700000001,80.7501117,43.0,81.0
298,80.69382900000001,81.2762895,58.0,122.0
299,80.69382900000001,81.33519000000001,62.0,96.0
300,81.00796500000001,81.7762893,55.0,93.0
301,81.95037300000001,82.20560850000001,48.0,62.0
302,81.322101,82.21346190000001,36.0,83.0
303,81.63623700000001,82.3626765,43.0,61.0
304,81.95037300000001,82.5171267,64.0,83.0
305,82.264509,82.591734,55.0,92.0
306,81.95037300000001,83.0995872,60.0,92.0
307,82.57864500000001,83.33126250000001,38.0,55.0
308,83.206917,83.3980164,50.0,74.0
309,82.89278100000001,83.43073890000001,45.0,55.0
310,83.52105300000001,83.63885400000001,38.0,83.0
311,83.206917,84.031524,65.0,88.0
312,83.206917,84.0393774,62.0,93.0
313,83.206917,84.0433041,57.0,72.0
314,84.149325,84.3574401,65.0,92.0
315,84.149325,84.3744558,62.0,97.0
316,83.83518900000001,84.59696880000001,38.0,82.0
317,84.149325,84.6781206,45.0,74.0
318,84.46346100000001,84.9294294,62.0,102.0
319,84.46346100000001,84.93335610000001,65.0,97.0
320,84.46346100000001,84.9817854,50.0,75.0
321,84.77759700000001,85.1480157,57.0,97.0
322,85.091733,85.82995260000001,43.0,70.0
323,85.40586900000001,85.8718374,50.0,57.0
324,85.72000500000001,86.19251790000001,62.0,96.0
325,85.72000500000001,86.2736697,58.0,107.0
326,86.34827700000001,86.84435010000001,64.0,88.0
327,86.34827700000001,86.8770726,60.0,92.0
328,86.034141,87.00272700000001,55.0,95.0
329,86.34827700000001,87.0969678,36.0,74.0
330,86.66241300000002,87.12969030000001,43.0,50.0
331,86.976549,87.2684337,48.0,69.0
332,86.976549,87.5027268,60.0,89.0
333,87.29068500000001,87.60743880000001,55.0,88.0
334,86.976549,87.70691520000001,64.0,85.0
335,87.918957,88.2841401,52.0,77.0
336,87.604821,88.3364961,45.0,77.0
337,88.23309300000001,88.83256920000001,64.0,92.0
338,88.23309300000001,89.0982759,60.0,99.0
339,88.547229,89.34958470000001,57.0,85.0
340,89.489637,89.6440872,65.0,63.0
341,89.489637,89.6440872,65.0,93.0
342,89.489637,89.65455840000001,62.0,69.0
343,89.489637,89.65455840000001,62.0,96.0
344,88.861365,89.6885898,38.0,81.0
345,89.17550100000001,89.76450600000001,45.0,76.0
346,89.489637,89.95691430000001,50.0,75.0
347,89.803773,90.1506315,65.0,93.0
348,89.803773,90.1519404,62.0,96.0
349,90.11790900000001,90.877071,43.0,72.0
350,90.432045,91.00665210000001,50.0,55.0
351,91.06031700000001,91.2998457,43.0,63.0
352,90.746181,91.62314400000001,58.0,117.0
353,90.746181,91.6440864,62.0,89.0
354,91.68858900000001,92.0878240625,50.0,72.0
355,91.374453,92.12582191666668,43.0,78.0
356,92.00272500000001,92.70234108333334,58.0,102.0
357,92.00272500000001,92.71675406250002,62.0,88.0
358,92.31712145833335,93.1255585625,55.0,88.0
359,92.63158645833335,93.36681947708334,36.0,79.0
360,93.26051645833334,93.44971422083334,48.0,65.0
361,92.94605145833334,93.47076685416667,43.0,62.0
362,93.57603002083334,93.72734582291667,36.0,69.0
363,93.26051645833334,94.04971427083333,64.0,97.0
364,93.26051645833334,94.0602405875,60.0,107.0
365,93.57603002083334,94.11418796041667,55.0,95.0
366,94.20760902083333,94.42208272291667,64.0,93.0
367,94.20760902083333,94.44971430416668,60.0,95.0
368,94.20760902083333,94.4549774625,55.0,72.0
369,94.52339852083334,94.73392485416667,64.0,97.0
370,94.52339852083334,94.75366169791667,60.0,112.0
371,94.20760902083333,95.07339856666667,48.0,90.0
372,93.89181952083334,95.078661725,36.0,40.0
373,94.83918802083333,95.10892488541667,55.0,88.0
374,94.83918802083333,95.12076699166667,60.0,102.0
375,94.83918802083333,95.14313541458334,64.0,93.0
376,95.15497752083334,95.93392495416667,41.0,79.0
377,95.78655652083333,95.95234600833334,53.0,58.0
378,95.47076702083334,95.96813548333334,48.0,72.0
379,96.10234602083334,96.22866182083334,41.0,77.0
380,95.78655652083333,96.84576713541666,60.0,86.0
381,95.78655652083333,96.85366187291667,65.0,86.0
382,95.78655652083333,96.86418818958333,69.0,83.0
383,97.04971452083333,97.23655664166667,53.0,75.0
384,96.73392502083334,97.26155664375,48.0,55.0
385,96.41813552083333,97.26681980208333,41.0,75.0
386,97.04971452083333,97.57603035416668,65.0,95.0
387,97.04971452083333,97.57734614375,69.0,88.0
388,97.36550402083334,97.70366194375,60.0,90.0
389,97.68129352083334,98.40366200208334,36.0,83.0
390,97.99708302083334,98.46681990208333,43.0,44.0
391,98.31287252083334,98.4812935875,48.0,75.0
392,98.62866202083333,98.76155676875,36.0,72.0
393,98.31287252083334,99.12603048333334,64.0,92.0
394,98.31287252083334,99.12997785208334,60.0,95.0
395,98.31287252083334,99.14839890625001,55.0,81.0
396,99.26024102083333,99.49050419791666,64.0,90.0
397,99.26024102083333,99.49839893541667,60.0,95.0
398,99.26024102083333,99.50234630416666,55.0,83.0
399,98.94445152083334,99.54050420208334,36.0,85.0
400,99.26024102083333,99.69313579375,48.0,89.0
401,99.57603052083334,100.18918846666666,60.0,102.0
402,99.57603052083334,100.19839899375,64.0,95.0
403,99.89182002083334,100.36682006041667,55.0,92.0
404,100.52339902083334,100.88260957708334,50.0,81.0
405,100.20760952083333,100.89576747291667,43.0,81.0
406,100.83918852083333,101.42471488541668,58.0,122.0
407,100.83918852083333,101.48392541666666,62.0,96.0
408,101.15497802083334,101.92734650625,55.0,93.0
409,102.10234652083334,102.35892548958334,48.0,62.0
410,101.47076752083333,102.36682022708334,36.0,83.0
411,101.78655702083334,102.51682023958334,43.0,61.0
412,102.10234652083334,102.67208341041668,64.0,83.0
413,102.41813602083334,102.74708341666667,55.0,92.0
414,102.10234652083334,103.257609775,60.0,92.0
415,102.73392552083334,103.49050453125,38.0,55.0
416,103.36550452083334,103.55760980000001,50.0,74.0
417,103.04971502083333,103.59050453958334,45.0,55.0
418,103.68129402083333,103.79971508333334,38.0,83.0
419,103.36550452083334,104.19445195833333,65.0,88.0
420,103.36550452083334,104.20234669583334,62.0,93.0
421,103.36550452083334,104.20629406458333,57.0,72.0
422,104.31287302083334,104.52208356458334,65.0,92.0
423,104.31287302083334,104.53918882916668,62.0,97.0
424,103.99708352083334,104.76287305833334,38.0,82.0
425,104.31287302083334,104.8444520125,45.0,74.0
426,104.62866252083333,105.0970836125,62.0,102.0
427,104.62866252083333,105.10103098125,65.0,97.0
428,104.62866252083333,105.14971519583334,50.0,75.0
429,104.94445202083334,105.31682047291667,57.0,97.0
430,105.26024152083333,106.00234684583333,43.0,70.0
431,105.57603102083334,106.04445211250001,50.0,57.0
432,105.89182052083333,106.36682056041667,62.0,96.0
433,105.89182052083333,106.44839951458334,58.0,107.0
434,106.52339952083334,107.02208377291667,64.0,88.0
435,106.52339952083334,107.0549785125,60.0,92.0
436,106.20761002083334,107.1812943125,55.0,95.0
437,106.52339952083334,107.2760311625,36.0,74.0
438,106.83918902083333,107.30892590208333,43.0,50.0
439,107.15497852083334,107.44839959791668,48.0,69.0
440,107.15497852083334,107.68392593333334,60.0,89.0
441,107.47076802083333,107.7891891,55.0,88.0
442,107.15497852083334,107.88918910833334,64.0,85.0
443,108.10234702083334,108.46945231458334,52.0,77.0
444,107.78655752083334,108.52208389791667,45.0,77.0
445,108.41813652083334,109.02076815000001,64.0,92.0
446,108.41813652083334,109.28787343541667,60.0,99.0
447,108.73392602083334,109.54050503541667,57.0,85.0
448,109.68129452083333,109.83655769166667,65.0,63.0
449,109.68129452083333,109.83655769166667,65.0,93.0
450,109.68129452083333,109.84708400833334,62.0,69.0
451,109.68129452083333,109.84708400833334,62.0,96.0
452,109.04971552083333,109.8812945375,38.0,81.0
453,109.36550502083334,109.95761033333334,45.0,76.0
454,109.68129452083333,110.15103140208333,50.0,75.0
455,109.99708402083334,110.34576826041666,65.0,93.0
456,109.99708402083334,110.34708405,62.0,96.0
457,110.31287352083334,111.07603147916667,43.0,72.0
458,110.62866302083333,111.20629464791668,50.0,55.0
459,111.26024202083335,111.50103151458333,43.0,63.0
460,110.94445252083334,111.82603154166667,58.0,117.0
461,110.94445252083334,111.847084175,62.0,89.0
462,111.89182102083333,112.29313684375,50.0,72.0
463,111.57603152083334,112.33129474166667,43.0,78.0
464,112.20761052083334,112.91024215833333,58.0,102.0
465,112.20761052083334,112.92471584375001,62.0,88.0
466,112.52340002083334,113.33524219375,55.0,88.0
467,112.83918952083334,113.57734747708334,36.0,79.0
468,113.47076852083333,113.66024222083334,48.0,65.0
469,113.15497902083334,113.68129485416667,43.0,62.0
470,113.78655802083334,113.93787382291667,36.0,69.0
471,113.47076852083333,114.26024227083334,64.0,97.0
472,113.47076852083333,114.2707685875,60.0,107.0
473,113.78655802083334,114.32471596041667,55.0,95.0
474,114.41813702083334,114.63261072291667,64.0,93.0
475,114.41813702083334,114.66024230416667,60.0,95.0
476,114.41813702083334,114.66550546250001,55.0,72.0
477,114.73392652083334,114.94401239583334,64.0,97.0
478,114.73392652083334,114.96368917708334,60.0,112.0
479,114.41813702083334,115.28245303333334,48.0,90.0
480,114.10234752083333,115.287700175,36.0,40.0
481,115.04895522916667,115.31787123958334,55.0,88.0
482,115.04895522916667,115.32967730833333,60.0,102.0
483,115.04895522916667,115.35197766041667,64.0,93.0
484,115.36378372916667,116.14036069583334,41.0,79.0
485,115.99344072916666,116.15872569166667,53.0,58.0
486,115.67861222916667,116.17446711666668,48.0,72.0
487,116.30826922916667,116.43420062916667,41.0,77.0
488,115.99344072916666,117.04942798958334,60.0,86.0
489,115.99344072916666,117.05729870208334,65.0,86.0
490,115.99344072916666,117.06779298541667,69.0,83.0
491,117.25275472916667,117.43902825833334,53.0,75.0
492,116.93792622916666,117.46395218125001,48.0,55.0
493,116.62309772916667,117.46919932291667,41.0,75.0
494,117.25275472916667,117.77746889583334,65.0,95.0
495,117.25275472916667,117.77878068125,69.0,88.0
496,117.56758322916667,117.90471208125,60.0,90.0
497,117.88241172916668,118.60258192291667,36.0,83.0
498,118.19724022916667,118.66554762291668,43.0,44.0
499,118.51206872916667,118.6799772625,48.0,75.0
500,118.82689722916668,118.95938755625001,36.0,72.0
501,118.51206872916667,119.32275211666666,64.0,92.0
502,118.51206872916667,119.32668747291667,60.0,95.0
503,118.51206872916667,119.34505246875,55.0,81.0
504,119.45655422916667,119.68611667708333,64.0,90.0
505,119.45655422916667,119.69398738958334,60.0,95.0
506,119.45655422916667,119.69792274583334,55.0,83.0
507,119.14172572916667,119.73596452291667,36.0,85.0
508,119.45655422916667,119.88813163125,48.0,89.0
509,119.77138272916667,120.38267473333333,60.0,102.0
510,119.77138272916667,120.39185723125,64.0,95.0
511,120.08621122916666,120.55976576458333,55.0,92.0
512,120.71586822916667,121.07398564791667,50.0,81.0
513,120.40103972916667,121.08710350208334,43.0,81.0
514,121.03069672916666,121.61444123958334,58.0,122.0
515,121.03069672916666,121.67347158333334,62.0,96.0
516,121.34552522916667,122.11554326875,55.0,93.0
517,122.29001072916667,122.54580888541668,48.0,62.0
518,121.66035372916667,122.55367959791667,36.0,83.0
519,121.97518222916668,122.70322313541666,43.0,61.0
520,122.29001072916667,122.85801381458333,64.0,83.0
521,122.60483922916667,122.93278558333334,55.0,92.0
522,122.29001072916667,123.44175832500001,60.0,92.0
523,122.91966772916668,123.67394434375001,38.0,55.0
524,123.54932472916667,123.7408454,50.0,74.0
525,123.23449622916667,123.77364003541668,45.0,55.0
526,123.86415322916667,123.98221391666667,38.0,83.0
527,123.54932472916667,124.37574954166666,65.0,88.0
528,123.54932472916667,124.38362025416667,62.0,93.0
529,123.54932472916667,124.38755561041667,57.0,72.0
530,124.49381022916667,124.70238411041667,65.0,92.0
531,124.49381022916667,124.71943732083334,62.0,97.0
532,124.17898172916667,124.94244084166667,38.0,82.0
533,124.49381022916667,125.02377153750001,45.0,74.0
534,124.80863872916667,125.27563433750001,62.0,102.0
535,124.80863872916667,125.27956969375,65.0,97.0
536,124.80863872916667,125.32810575416667,50.0,75.0
537,125.12346722916666,125.49470250208334,57.0,97.0
538,125.43829572916667,126.17814270416667,43.0,70.0
539,125.75312422916667,126.22011983750001,50.0,57.0
540,126.06795272916668,126.54150726458334,62.0,96.0
541,126.06795272916668,126.62283796041667,58.0,107.0
542,126.69760972916667,127.19477640208333,64.0,88.0
543,126.69760972916667,127.2275710375,60.0,92.0
544,126.38278122916667,127.3535024375,55.0,95.0
545,126.69760972916667,127.44795098750001,36.0,74.0
546,127.01243822916668,127.48074562291667,43.0,50.0
547,127.32726672916667,127.61979487708334,48.0,69.0
548,127.32726672916667,127.85460446666667,60.0,89.0
549,127.64209522916667,127.9595473,55.0,88.0
550,127.32726672916667,128.05924299166668,64.0,85.0
551,128.27175222916668,128.63774036041667,52.0,77.0
552,127.95692372916668,128.69021177708333,45.0,77.0
553,128.58658072916666,129.18737845,64.0,92.0
554,128.58658072916666,129.45367088958335,60.0,99.0
555,128.90140922916666,129.70553368958335,57.0,85.0
556,129.84589472916667,130.00068540833334,65.0,63.0
557,129.84589472916667,130.00068540833334,65.0,93.0
558,129.84589472916667,130.01117969166668,62.0,69.0
559,129.84589472916667,130.01117969166668,62.0,96.0
560,129.21623772916666,130.0452861125,38.0,81.0
561,129.53106622916667,130.12136966666668,45.0,76.0
562,129.84589472916667,130.31420212291667,50.0,75.0
563,130.16072322916668,130.50834636458333,65.0,93.0
564,130.16072322916668,130.50965815,62.0,96.0
565,130.47555172916668,131.23638727083335,43.0,72.0
566,130.79038022916666,131.36625402708333,50.0,55.0
567,131.42003722916667,131.66009396041667,43.0,63.0
568,131.10520872916666,131.98410495833335,58.0,117.0
569,131.10520872916666,132.005093525,62.0,89.0
570,132.04969422916668,132.44978878125,50.0,72.0
571,131.73486572916667,132.48783055833334,43.0,78.0
572,132.36452272916668,133.06501614166666,58.0,102.0
573,132.36452272916668,133.07944578125,62.0,88.0
574,132.67935122916668,133.48872283125002,55.0,88.0
575,132.99417972916666,133.73009134791667,36.0,79.0
576,133.62383672916667,133.81273382916666,48.0,65.0
577,133.30900822916666,133.83372239583335,43.0,62.0
578,133.93866522916667,134.08952055208334,36.0,69.0
579,133.62383672916667,134.41090797916667,64.0,97.0
580,133.62383672916667,134.4214022625,60.0,107.0
581,133.93866522916667,134.47518546458335,55.0,95.0
582,134.56832222916668,134.78214325208333,64.0,93.0
583,134.56832222916668,134.80969074583334,60.0,95.0
584,134.56832222916668,134.8149378875,55.0,72.0
585,134.88315072916666,135.09303639583334,64.0,97.0
586,134.88315072916666,135.11271317708332,60.0,112.0
587,134.56832222916668,135.43147703333335,48.0,90.0
588,134.25349372916668,135.436724175,36.0,40.0
589,135.19797922916666,135.46689523958332,55.0,88.0
590,135.19797922916666,135.47870130833334,60.0,102.0
591,135.19797922916666,135.50100166041668,64.0,93.0
592,135.51280772916667,136.27757862708333,41.0,75.0
593,135.82763622916667,136.33923254166666,48.0,56.0
594,136.45729322916668,136.59109534166666,41.0,77.0
595,137.08695022916666,137.45818550208332,48.0,78.0
596,136.77212172916666,137.46212085833332,41.0,72.0
597,137.71660722916667,138.05898322291668,53.0,72.0
598,137.40177872916667,138.06029500833333,57.0,78.0
599,136.14246472916668,138.06029500833333,60.0,89.0
600,138.03143572916667,138.83556018958333,38.0,68.0
601,138.34626422916668,138.85917232708334,45.0,41.0
602,138.97592122916666,139.08742298958333,38.0,56.0
603,139.29074972916666,140.0883152625,38.0,75.0
604,139.60557822916667,140.25491201041666,45.0,58.0
605,139.92040672916667,140.29033021666666,50.0,69.0
606,139.92040672916667,140.57105229583334,62.0,65.0
607,138.66109272916668,140.60647050208334,65.0,90.0
608,140.23523522916668,140.61958835625,57.0,77.0
609,140.55006372916668,141.31089927083335,36.0,63.0
610,140.86489222916668,141.33975855,48.0,73.0
611,141.49454922916667,141.61654527291668,36.0,83.0
612,141.17972072916666,142.186612125,55.0,66.0
613,141.17972072916666,142.20370658333334,60.0,79.0
614,141.17972072916666,142.23658054166665,64.0,77.0
615,141.80937772916667,142.60213895833334,36.0,67.0
616,142.12480908333333,142.62449325,43.0,52.0
617,142.44039908333332,142.79675279166668,48.0,73.0
618,142.44039908333332,143.05974445833334,60.0,72.0
619,142.44039908333332,143.06368933333334,64.0,66.0
620,142.75598908333333,143.20570483333333,55.0,74.0
621,143.07157908333332,143.78297154166665,43.0,73.0
622,143.38716908333333,143.82899508333333,50.0,65.0
623,144.01834908333333,144.237947125,43.0,74.0
624,143.70275908333332,144.379962625,58.0,95.0
625,143.70275908333332,144.39442716666667,62.0,82.0
626,144.33393908333332,145.09661491666665,36.0,71.0
627,144.64952908333333,145.157103,43.0,37.0
628,145.28070908333333,145.60550379166668,55.0,75.0
629,144.96511908333332,145.634432875,64.0,79.0
630,144.96511908333332,145.67651154166666,60.0,81.0
631,145.59629908333332,146.33136079166667,38.0,75.0
632,146.22747908333332,146.44181729166667,50.0,63.0
633,145.91188908333334,146.47206133333333,45.0,56.0
634,146.54306908333334,146.66667516666666,38.0,55.0
635,146.22747908333332,147.41225654166666,65.0,77.0
636,146.22747908333332,147.433295875,62.0,81.0
637,146.85865908333332,147.73573629166665,38.0,71.0
638,147.17424908333334,147.756775625,45.0,67.0
639,147.48983908333332,148.04212158333334,50.0,77.0
640,147.48983908333332,148.2025465,65.0,40.0
641,147.48983908333332,148.25119995833333,62.0,39.0
642,147.80542908333334,148.2972235,57.0,79.0
643,148.12101908333332,148.81531708333333,45.0,68.0
644,148.43660908333334,148.88895475,52.0,51.0
645,149.06778908333334,149.27423754166668,45.0,58.0
646,148.75219908333332,149.38732395833333,64.0,79.0
647,148.75219908333332,149.79496104166665,60.0,83.0
648,149.38337908333332,150.360393125,38.0,77.0
649,149.69896908333334,150.36959783333333,45.0,74.0
650,150.01455908333332,150.38932220833334,50.0,65.0
651,150.01455908333332,150.60629033333333,65.0,73.0
652,150.33014908333334,150.6641485,57.0,86.0
653,150.01455908333332,150.67729808333334,62.0,88.0
654,150.64573908333332,151.46101325,36.0,69.0
655,151.27691908333333,151.53070604166666,48.0,64.0
656,150.96132908333334,151.56620991666668,43.0,52.0
657,151.59250908333334,151.73452458333333,36.0,72.0
658,151.27691908333333,152.43408241666666,60.0,77.0
659,151.27691908333333,152.43934225,64.0,72.0
660,151.59250908333334,152.46827133333335,55.0,56.0
661,151.90809908333333,152.58004279166667,36.0,72.0
662,152.22368908333334,152.75230233333332,48.0,85.0
663,152.53927908333333,153.10734108333332,60.0,95.0
664,152.53927908333333,153.137585125,64.0,90.0
665,152.85486908333334,153.30852970833334,55.0,74.0
666,153.17045908333333,153.87790666666666,43.0,69.0
667,153.48604908333334,153.950229375,50.0,66.0
668,154.11722908333334,154.31841770833333,43.0,50.0
669,153.80163908333333,154.48541741666668,62.0,89.0
670,153.80163908333333,154.6090235,58.0,107.0
671,155.06399908333333,155.49004558333334,48.0,78.0
672,154.74840908333334,155.49530541666667,43.0,53.0
673,154.43281908333333,155.5242345,36.0,77.0
674,155.37958908333334,155.73199791666667,55.0,85.0
675,155.06399908333333,155.75566716666665,60.0,89.0
676,155.06399908333333,155.772761625,64.0,88.0
677,155.701753875,156.46837458333334,41.0,75.0
678,156.017343875,156.530177625,48.0,56.0
679,156.648523875,156.782649625,41.0,77.0
680,157.279703875,157.65183708333333,48.0,78.0
681,156.964113875,157.65578195833334,41.0,72.0
682,157.910883875,158.254088,53.0,72.0
683,157.595293875,158.25540295833332,57.0,78.0
684,156.332933875,158.25540295833332,60.0,89.0
685,158.226473875,159.03254333333334,38.0,68.0
686,158.542063875,159.05621258333332,45.0,41.0
687,159.173243875,159.28501533333332,38.0,56.0
688,159.488833875,160.28832854166666,38.0,75.0
689,159.804423875,160.45532825,45.0,58.0
690,160.120013875,160.490832125,50.0,69.0
691,160.120013875,160.77223320833335,62.0,65.0
692,158.857653875,160.80773708333334,65.0,90.0
693,160.435603875,160.82088666666667,57.0,77.0
694,160.751193875,161.51386970833335,36.0,63.0
695,161.066783875,161.54279879166666,48.0,73.0
696,161.697963875,161.820255,36.0,83.0
697,161.382373875,162.39094691666668,55.0,66.0
698,161.382373875,162.408041375,60.0,79.0
699,161.382373875,162.44091533333335,64.0,77.0
700,161.855758875,162.64867875,36.0,67.0
701,162.329143875,162.82882804166667,43.0,52.0
702,162.644733875,163.00108758333334,48.0,73.0
703,162.644733875,163.26407925,60.0,72.0
704,162.644733875,163.268024125,64.0,66.0
705,162.960323875,163.410039625,55.0,74.0
706,163.27591387500001,163.98730633333332,43.0,73.0
707,163.591503875,164.033329875,50.0,65.0
708,164.222683875,164.44228191666667,43.0,74.0
709,163.907093875,164.58429741666666,58.0,95.0
710,163.907093875,164.59876195833334,62.0,82.0
711,164.53169908333334,165.29437491666667,36.0,71.0
712,164.84728908333335,165.354863,43.0,37.0
713,165.47846908333332,165.80326379166667,55.0,75.0
714,165.16287908333334,165.832192875,64.0,79.0
715,165.16287908333334,165.87427154166667,60.0,81.0
716,165.79405908333334,166.52912079166668,38.0,75.0
717,166.42523908333334,166.63957729166668,50.0,63.0
718,166.10964908333332,166.66982133333335,45.0,56.0
719,166.74082908333332,166.86443516666668,38.0,55.0
720,166.42523908333334,167.61001654166668,65.0,77.0
721,166.42523908333334,167.63105587500002,62.0,81.0
722,167.05641908333334,167.93349629166667,38.0,71.0
723,167.37200908333332,167.954535625,45.0,67.0
724,167.68759908333334,168.23988158333333,50.0,77.0
725,167.68759908333334,168.4003065,65.0,40.0
726,167.68759908333334,168.44895995833335,62.0,39.0
727,168.00318908333333,168.4949835,57.0,79.0
728,168.31877908333334,169.01307708333334,45.0,68.0
729,168.63436908333333,169.08671475,52.0,51.0
730,169.26554908333333,169.47199754166667,45.0,58.0
731,168.94995908333334,169.58508395833334,64.0,79.0
732,168.94995908333334,169.99272104166667,60.0,83.0
733,169.58113908333334,170.558153125,38.0,77.0
734,169.89672908333333,170.56735783333335,45.0,74.0
735,170.21231908333334,170.58708220833333,50.0,65.0
736,170.21231908333334,170.80405033333335,65.0,73.0
737,170.52790908333333,170.8619085,57.0,86.0
738,170.21231908333334,170.87505808333333,62.0,88.0
739,170.84349908333334,171.65877325,36.0,69.0
740,171.47467908333334,171.72846604166668,48.0,64.0
741,171.15908908333333,171.76396991666667,43.0,52.0
742,171.79026908333333,171.93228458333334,36.0,72.0
743,171.47467908333334,172.63184241666667,60.0,77.0
744,171.47467908333334,172.63710225,64.0,72.0
745,171.79026908333333,172.66603133333334,55.0,56.0
746,172.10585908333334,172.77780279166666,36.0,72.0
747,172.42144908333333,172.95006233333334,48.0,85.0
748,172.73703908333334,173.30510108333334,60.0,95.0
749,172.73703908333334,173.335345125,64.0,90.0
750,173.05262908333333,173.50628970833333,55.0,74.0
751,173.36821908333334,174.07566666666668,43.0,69.0
752,173.68380908333333,174.147989375,50.0,66.0
753,174.31498908333333,174.51617770833334,43.0,50.0
754,173.99939908333334,174.68317741666667,62.0,89.0
755,173.99939908333334,174.8067835,58.0,107.0
756,175.26175908333335,175.68780558333333,48.0,78.0
757,174.94616908333333,175.69306541666668,43.0,53.0
758,174.63057908333334,175.7219945,36.0,77.0
759,175.57734908333333,175.9297579166667,55.0,85.0
760,175.26175908333335,175.95342716666667,60.0,89.0
761,175.26175908333335,175.970521625,64.0,88.0
762,175.89293908333335,176.67139441666666,41.0,79.0
763,176.52411908333335,176.68980383333334,53.0,58.0
764,176.20852908333333,176.70558333333332,48.0,72.0
765,176.83970908333333,176.96594508333334,41.0,77.0
766,176.52411908333335,177.58266054166666,60.0,86.0
767,176.52411908333335,177.59055029166666,65.0,86.0
768,176.52411908333335,177.60106995833334,69.0,83.0
769,177.78647908333335,177.97320316666668,53.0,75.0
770,177.47088908333333,177.99818737500001,48.0,55.0
771,177.15529908333335,178.00344720833334,41.0,75.0
772,177.78647908333335,178.31246241666668,65.0,95.0
773,177.78647908333335,178.313777375,69.0,88.0
774,178.10206908333333,178.440013375,60.0,90.0
775,178.41765908333335,179.13957120833334,36.0,83.0
776,178.73324908333333,179.20268920833334,43.0,44.0
777,179.04883908333335,179.21715375,48.0,75.0
778,179.36442908333333,179.497239875,36.0,72.0
779,179.04883908333335,179.86148333333335,64.0,92.0
780,179.04883908333335,179.86542820833336,60.0,95.0
781,179.04883908333335,179.883837625,55.0,81.0
782,179.99560908333333,180.22572679166666,64.0,90.0
783,179.99560908333333,180.23361654166666,60.0,95.0
784,179.99560908333333,180.23756141666667,55.0,83.0
785,179.68001908333332,180.27569520833333,36.0,85.0
786,179.99560908333333,180.428230375,48.0,89.0
787,180.31119908333335,180.92396966666666,60.0,102.0
788,180.31119908333335,180.93317437500002,64.0,95.0
789,180.62678908333334,181.10148904166667,55.0,92.0
790,181.25796908333334,181.61695270833334,50.0,81.0
791,180.94237908333332,181.63010229166667,43.0,81.0
792,181.57355908333335,182.15871554166668,58.0,122.0
793,181.57355908333335,182.21788866666668,62.0,96.0
794,181.88914908333334,182.661029625,55.0,93.0
795,182.83591908333335,183.09233595833334,48.0,62.0
796,182.20473908333332,183.10022570833334,36.0,83.0
797,182.52032908333334,183.25013095833333,43.0,61.0
798,182.83591908333335,183.40529604166667,64.0,83.0
799,183.15150908333334,183.48024866666668,55.0,92.0
800,182.83591908333335,183.9904525,60.0,92.0
801,183.46709908333332,184.223200125,38.0,55.0
802,184.09827908333335,184.290263,50.0,74.0
803,183.78268908333334,184.32313695833335,45.0,55.0
804,184.41386908333334,184.53221533333334,38.0,83.0
805,184.09827908333335,184.92670283333334,65.0,88.0
806,184.09827908333335,184.93459258333334,62.0,93.0
807,184.09827908333335,184.93853745833334,57.0,72.0
808,185.04504908333334,185.25412745833333,65.0,92.0
809,185.04504908333334,185.27122191666666,62.0,97.0
810,184.72945908333332,185.49476483333333,38.0,82.0
811,185.04504908333334,185.57629225,45.0,74.0
812,185.36063908333335,185.82876425,62.0,102.0
813,185.36063908333335,185.832709125,65.0,97.0
814,185.36063908333335,185.88136258333333,50.0,75.0
815,185.67622908333334,186.04836229166668,57.0,97.0
816,185.99181908333333,186.73182470416668,43.0,70.0
817,186.30680622916668,186.7738018375,50.0,57.0
818,186.6216347291667,187.09518926458333,62.0,96.0
819,186.6216347291667,187.17651996041667,58.0,107.0
820,187.25129172916667,187.74845840208334,64.0,88.0
821,187.25129172916667,187.7812530375,60.0,92.0
822,186.93646322916666,187.9071844375,55.0,95.0
823,187.25129172916667,188.00163298750002,36.0,74.0
824,187.56612022916667,188.03442762291667,43.0,50.0
825,187.88094872916668,188.17347687708335,48.0,69.0
826,187.88094872916668,188.40828646666668,60.0,89.0
827,188.19577722916668,188.5132293,55.0,88.0
828,187.88094872916668,188.61292499166666,64.0,85.0
829,188.82543422916666,189.19142236041668,52.0,77.0
830,188.51060572916668,189.24389377708334,45.0,77.0
831,189.14026272916666,189.74106045,64.0,92.0
832,189.14026272916666,190.00735288958333,60.0,99.0
833,189.45509122916667,190.25921568958333,57.0,85.0
834,190.39957672916668,190.55436740833335,65.0,63.0
835,190.39957672916668,190.55436740833335,65.0,93.0
836,190.39957672916668,190.56486169166666,62.0,69.0
837,190.39957672916668,190.56486169166666,62.0,96.0
838,189.76991972916667,190.59896811250002,38.0,81.0
839,190.08474822916668,190.67505166666666,45.0,76.0
840,190.39957672916668,190.86788412291668,50.0,75.0
841,190.7144052291667,191.06202836458334,65.0,93.0
842,190.7144052291667,191.06334015000002,62.0,96.0
843,191.02923372916666,191.79006927083333,43.0,72.0
844,191.34406222916667,191.91993602708334,50.0,55.0
845,191.97371922916668,192.21377596041668,43.0,63.0
846,191.65889072916667,192.53778695833333,58.0,117.0
847,191.65889072916667,192.55877552500002,62.0,89.0
848,192.60337622916668,193.00347078125,50.0,72.0
849,192.28854772916668,193.04151255833335,43.0,78.0
850,192.91820472916666,193.61869814166667,58.0,102.0
851,192.91820472916666,193.63312778125,62.0,88.0
852,193.23303322916667,194.04240483125,55.0,88.0
853,193.54786172916667,194.28377334791668,36.0,79.0
854,194.17751872916668,194.36641582916667,48.0,65.0
855,193.86269022916667,194.38740439583333,43.0,62.0
856,194.49234722916668,194.64320255208335,36.0,69.0
857,194.17751872916668,194.96458997916667,64.0,97.0
858,194.17751872916668,194.97508426250002,60.0,107.0
859,194.49234722916668,195.02886746458333,55.0,95.0
860,195.12200422916666,195.33582525208334,64.0,93.0
861,195.12200422916666,195.36337274583335,60.0,95.0
862,195.12200422916666,195.36861988750002,55.0,72.0
863,195.43683272916667,195.64671839583335,64.0,97.0
864,195.43683272916667,195.66639517708333,60.0,112.0
865,195.12200422916666,195.98515903333333,48.0,90.0
866,194.80717572916666,195.990406175,36.0,40.0
867,195.75166122916667,196.02057723958333,55.0,88.0
868,195.75166122916667,196.03238330833335,60.0,102.0
869,195.75166122916667,196.05468366041669,64.0,93.0
870,196.06648972916668,196.84306669583333,41.0,79.0
871,196.69614672916668,196.86143169166667,53.0,58.0
872,196.38131822916668,196.87717311666668,48.0,72.0
873,197.01097522916666,197.13690662916667,41.0,77.0
874,196.69614672916668,197.75213398958334,60.0,86.0
875,196.69614672916668,197.76000470208334,65.0,86.0
876,196.69614672916668,197.77049898541668,69.0,83.0
877,197.95546072916667,198.14173425833334,53.0,75.0
878,197.64063222916667,198.16665818125,48.0,55.0
879,197.32580372916667,198.17190532291667,41.0,75.0
880,197.95546072916667,198.48017489583333,65.0,95.0
881,197.95546072916667,198.48148668125,69.0,88.0
882,198.27028922916668,198.60741808125002,60.0,90.0
883,198.58511772916668,199.30528792291668,36.0,83.0
884,198.8999462291667,199.36825362291668,43.0,44.0
885,199.21477472916666,199.3826832625,48.0,75.0
886,199.52960322916667,199.66209355625,36.0,72.0
887,199.21477472916666,200.02545811666667,64.0,92.0
888,199.21477472916666,200.02939347291667,60.0,95.0
889,199.21477472916666,200.04775846875,55.0,81.0
890,200.15926022916668,200.38882267708334,64.0,90.0
891,200.15926022916668,200.39669338958333,60.0,95.0
892,200.15926022916668,200.40062874583333,55.0,83.0
893,199.84443172916667,200.43867052291668,36.0,85.0
894,200.15926022916668,200.59083763125,48.0,89.0
895,200.47408872916668,201.08538073333335,60.0,102.0
896,200.47408872916668,201.09456323125,64.0,95.0
897,200.78891722916669,201.26247176458332,55.0,92.0
898,201.41857422916667,201.77669164791666,50.0,81.0
899,201.10374572916666,201.78980950208333,43.0,81.0
900,201.73340272916667,202.31714723958333,58.0,122.0
901,201.73340272916667,202.37617758333334,62.0,96.0
902,202.04823122916667,202.81824926875,55.0,93.0
903,202.99271672916666,203.24851488541668,48.0,62.0
904,202.36305972916668,203.25638559791668,36.0,83.0
905,202.67788822916668,203.40592913541667,43.0,61.0
906,202.99271672916666,203.56071981458334,64.0,83.0
907,203.30754522916666,203.63549158333333,55.0,92.0
908,202.99271672916666,204.144464325,60.0,92.0
909,203.62237372916667,204.37665034375001,38.0,55.0
910,204.25203072916668,204.4435514,50.0,74.0
911,203.93720222916667,204.47634603541667,45.0,55.0
912,204.56685922916668,204.68491991666667,38.0,83.0
913,204.25203072916668,205.07845554166667,65.0,88.0
914,204.25203072916668,205.08632625416666,62.0,93.0
915,204.25203072916668,205.09026161041666,57.0,72.0
916,205.19651622916666,205.40509011041667,65.0,92.0
917,205.19651622916666,205.42214332083333,62.0,97.0
918,204.88168772916669,205.64514684166667,38.0,82.0
919,205.19651622916666,205.72647753750002,45.0,74.0
920,205.51134472916667,205.97834033750001,62.0,102.0
921,205.51134472916667,205.98227569375,65.0,97.0
922,205.51134472916667,206.03081175416668,50.0,75.0
923,205.82617322916667,206.19740850208333,57.0,97.0
924,206.14100172916667,206.88084870416668,43.0,70.0
925,206.45583022916668,206.9228258375,50.0,57.0
926,206.77065872916668,207.24421326458335,62.0,96.0
927,206.77065872916668,207.32554396041667,58.0,107.0
928,207.40031572916666,207.89748240208334,64.0,88.0
929,207.40031572916666,207.9302770375,60.0,92.0
930,207.0854872291667,208.0562084375,55.0,95.0
931,207.40031572916666,208.1506569875,36.0,74.0
932,207.71514422916667,208.18345162291666,43.0,50.0
933,208.02997272916667,208.32250087708334,48.0,69.0
934,208.02997272916667,208.55731046666668,60.0,89.0
935,208.34480122916668,208.6622533,55.0,88.0
936,208.02997272916667,208.76194899166666,64.0,85.0
937,208.97445822916666,209.34044636041668,52.0,77.0
938,208.65962972916668,209.39291777708334,45.0,77.0
939,209.28928672916666,209.89008445000002,64.0,92.0
940,209.28928672916666,210.15637688958333,60.0,99.0
941,209.60411522916667,210.40823968958335,57.0,85.0
942,210.54860072916668,210.70339140833335,65.0,63.0
943,210.54860072916668,210.70339140833335,65.0,93.0
944,210.54860072916668,210.71388569166666,62.0,69.0
945,210.54860072916668,210.71388569166666,62.0,96.0
946,209.91894372916667,210.74799211250001,38.0,81.0
947,210.23377222916668,210.82407566666666,45.0,76.0
948,210.54860072916668,211.01690812291667,50.0,75.0
949,210.86342922916668,211.21105236458334,65.0,93.0
950,210.86342922916668,211.21236415,62.0,96.0
951,211.17825772916666,211.93909327083333,43.0,72.0
952,211.49308622916666,212.06896002708334,50.0,55.0
953,212.12274322916667,212.36279996041668,43.0,63.0
954,211.80791472916667,212.68681095833335,58.0,117.0
955,211.80791472916667,212.707799525,62.0,89.0
956,212.75240022916668,213.15249478125,50.0,72.0
957,212.43757172916668,213.19053655833335,43.0,78.0
958,213.0672287291667,213.76772214166667,58.0,102.0
959,213.0672287291667,213.78215178125,62.0,88.0
960,213.38205722916666,214.19142883125,55.0,88.0
961,213.69688572916667,214.43279734791668,36.0,79.0
962,214.32654272916668,214.51543982916667,48.0,65.0
963,214.01171422916667,214.53642839583335,43.0,62.0
964,214.64137122916668,214.79222655208335,36.0,69.0
965,214.32654272916668,215.11361397916667,64.0,97.0
966,214.32654272916668,215.12410826250002,60.0,107.0
967,214.64137122916668,215.17789146458335,55.0,95.0
968,215.27102822916666,215.48484925208334,64.0,93.0
969,215.27102822916666,215.51239674583334,60.0,95.0
970,215.27102822916666,215.51764388750001,55.0,72.0
971,215.58585672916666,215.79574239583334,64.0,97.0
972,215.58585672916666,215.81541917708333,60.0,112.0
973,215.27102822916666,216.13418303333333,48.0,90.0
974,214.95619972916668,216.139430175,36.0,40.0
975,215.90068522916667,216.16960123958333,55.0,88.0
976,215.90068522916667,216.18140730833335,60.0,102.0
977,215.90068522916667,216.20370766041668,64.0,93.0
978,216.21551372916667,217.21247064583335,43.0,79.0
979,216.53034222916668,217.32003705,50.0,71.0
980,216.84517072916668,217.44072130833334,62.0,85.0
981,216.84517072916668,217.44334487916666,58.0,99.0
982,217.15999922916666,217.6112534125,55.0,90.0
983,217.78965622916667,218.03102474583335,55.0,73.0
984,217.78965622916667,218.05594866875,64.0,82.0
985,217.78965622916667,218.059884025,60.0,86.0
986,217.47482772916666,218.15957971666666,48.0,88.0
987,218.41931322916668,218.6816703125,55.0,81.0
988,218.10448472916667,218.78923671666666,60.0,95.0
989,218.10448472916667,218.80104278541666,64.0,88.0
990,218.73414172916668,219.38872265208335,45.0,83.0
991,219.04897022916668,219.40184050625,52.0,69.0
992,219.36379872916666,219.77045220833332,57.0,79.0
993,219.67862722916666,219.86883611458333,45.0,66.0
994,219.36379872916666,220.11545177291669,64.0,86.0
995,219.36379872916666,220.15349355,60.0,90.0
996,219.99345572916667,220.69263735625,38.0,78.0
997,220.30828422916667,220.79233304791666,45.0,50.0
998,220.62311272916668,221.13208547083335,62.0,88.0
999,220.62311272916668,221.13864439791666,65.0,85.0
1000,220.93794122916668,221.2527697291667,57.0,83.0
1001,221.2527697291667,223.13586359375003,64.0,96.0
1002,221.2527697291667,223.13883978125003,67.0,93.0
1003,221.2527697291667,223.14181596875002,55.0,95.0
1004,221.2527697291667,223.14628025000002,60.0,112.0
1005,221.2527697291667,223.18794687500002,36.0,67.0
1006,221.2527697291667,223.18794687500002,43.0,67.0
1007,221.2527697291667,223.18943496875002,48.0,83.0
1008,223.32187531250003,225.15713842083338,67.0,82.0
1009,223.32187531250003,225.1668606479167,64.0,85.0
1010,223.32187531250003,225.16963842708336,55.0,97.0
1011,223.32187531250003,225.1710273166667,60.0,100.0
1012,223.32187531250003,225.18074954375004,48.0,83.0
1013,223.32187531250003,225.1835273229167,36.0,72.0
1014,225.35713852083336,226.61467264583337,36.0,69.0
1015,226.56543018958337,226.61467264583337,36.0,88.0
1016,225.35713852083336,226.61467264583337,48.0,79.0
1017,225.35713852083336,226.61467264583337,55.0,89.0
1018,225.35713852083336,226.61467264583337,60.0,92.0
1019,225.35713852083336,226.61467264583337,64.0,79.0
1020,225.35713852083336,226.61467264583337,67.0,76.0
1021,226.91990928333337,227.3633303729167,43.0,61.0
1022,227.52385670208338,227.61464618333338,36.0,55.0
1023,227.49885670000003,227.65280408125003,48.0,72.0
1024,227.21859351875003,227.9712251604167,55.0,88.0
1025,227.22254088750003,228.0067514791667,60.0,88.0
1026,227.22122509791672,228.0422777979167,64.0,81.0
1027,228.13701464791671,228.55411994583338,55.0,81.0
1028,227.82254093750004,228.8988568166667,36.0,64.0
1029,227.81727777916672,228.93569892500003,48.0,90.0
1030,228.7646462791667,229.25938316250003,55.0,86.0
1031,228.46727783333338,229.46464633750003,64.0,89.0
1032,228.4685936229167,229.48569897083337,60.0,88.0
1033,229.1159620979167,229.86333058125004,36.0,50.0
1034,229.0962252541667,229.87780426666671,48.0,90.0
1035,230.0317516479167,230.1580674479167,36.0,60.0
1036,230.02912006875005,230.1620148166667,48.0,85.0
1037,229.72648846458338,230.5133306354167,60.0,81.0
1038,229.38175159375004,230.51596221458337,55.0,64.0
1039,229.72912004375004,230.5172780041667,64.0,82.0
1040,230.6672780166667,230.90148856250005,55.0,92.0
1041,230.67385696458336,230.90543593125003,64.0,92.0
1042,230.6712253854167,230.90675172083337,60.0,99.0
1043,230.3514885166667,230.9435938291667,36.0,72.0
1044,230.36596220208338,231.10017278958338,48.0,100.0
1045,231.0146464666667,231.61201493750005,60.0,122.0
1046,231.01201488750004,231.62780441250004,64.0,102.0
1047,231.31596228125005,231.68701494375003,55.0,107.0
1048,231.63306757083336,232.40543605625004,41.0,102.0
1049,231.9738570729167,232.44885711250004,48.0,96.0
1050,232.57517291250005,232.7159623979167,41.0,82.0
1051,232.27912025625002,232.75017292708338,57.0,97.0
1052,232.2738570979167,232.75412029583336,53.0,85.0
1053,232.27517288750005,232.7672781916667,60.0,97.0
1054,232.8935939916667,233.0593834791667,57.0,95.0
1055,232.8896466229167,233.06333084791672,53.0,92.0
1056,232.89227820208336,233.0791203229167,60.0,93.0
1057,233.19227822708336,233.34227823958338,57.0,77.0
1058,233.1935940166667,233.34885718750004,53.0,76.0
1059,233.19490980625002,233.36464666250004,60.0,86.0
1060,233.51596246458337,233.6554361604167,57.0,100.0
1061,233.51464667500005,233.65806773958337,53.0,97.0
1062,233.51201509583336,233.66464668750004,60.0,97.0
1063,232.8778045166667,233.67648879375002,41.0,90.0
1064,233.81990985833338,233.93043618333337,53.0,100.0
1065,233.90280460208336,233.95280460625003,45.0,33.0
1066,233.81859406875003,233.95675197500003,57.0,102.0
1067,233.82254143750004,233.96990987083336,60.0,102.0
1068,234.12254146250004,234.94754153125004,52.0,100.0
1069,234.12780462083336,234.9580678479167,45.0,96.0
1070,235.0843836479167,235.19622576250003,52.0,57.0
1071,235.07780470000003,235.20938365833337,45.0,71.0
1072,234.7725415166667,235.51596263125003,57.0,95.0
1073,234.78043625416672,235.52385736875004,64.0,92.0
1074,234.77385730625005,235.52517315833336,61.0,102.0
1075,235.38175209375004,235.9291205604167,52.0,76.0
1076,235.6843836979167,235.93964687708336,61.0,112.0
1077,235.6922784354167,235.9409626666667,57.0,95.0
1078,235.68964685625005,235.94359424583337,64.0,95.0
1079,235.37780472500003,236.19885742500003,45.0,81.0
1080,236.05412057083336,236.21069953125004,57.0,99.0
1081,236.0554363604167,236.31727848750003,64.0,99.0
1082,236.04885741250004,236.3278048041667,52.0,95.0
1083,236.05017320208339,236.36859428125004,61.0,127.0
1084,236.33964691041672,236.6001732479167,57.0,92.0
1085,236.62517325000005,237.42648910625005,46.0,117.0
1086,237.56596280208336,237.84622598333337,46.0,117.0
1087,237.28569962083338,237.8830680916667,58.0,127.0
1088,237.2909627791667,237.94885757083338,65.0,90.0
1089,237.29359435833337,238.01859441875004,62.0,97.0
1090,237.9225417791667,238.60675236250003,47.0,102.0
1091,238.5620155166667,239.22385767708337,65.0,96.0
1092,238.56333130625003,239.2449103104167,62.0,102.0
1093,238.5580681479167,239.53043665000004,59.0,102.0
1094,239.1896471479167,239.9830682666667,36.0,90.0
1095,239.51069980625005,239.98833142500004,43.0,47.0
1096,240.13964722708337,240.2396472354167,36.0,64.0
1097,240.1212261729167,240.25675250000003,48.0,95.0
1098,239.8528050979167,240.60017358125003,64.0,96.0
1099,239.8488577291667,240.60148937083338,55.0,90.0
1100,239.85017351875004,240.60412095000004,60.0,102.0
1101,240.7567525416667,240.96727887500003,64.0,79.0
1102,240.75412096250002,240.9699104541667,60.0,82.0
1103,240.75938412083337,240.97912098125005,55.0,72.0
1104,240.43043672500005,241.03964730208338,36.0,72.0
1105,240.42780514583336,241.17780520833338,48.0,100.0
1106,241.0883315166667,241.66596314375005,64.0,100.0
1107,241.08964730625004,241.68175261875004,60.0,112.0
1108,241.37122627708337,241.7356999916667,55.0,79.0
1109,241.68306840833338,242.47122636875002,43.0,71.0
1110,242.02122633125003,242.98570009583338,50.0,56.0
1111,242.33964741041672,242.98833167500004,58.0,90.0
1112,242.3435947791667,243.01201588750004,62.0,70.0
1113,242.6475421729167,243.08833168333337,55.0,77.0
1114,242.93833167083338,243.7172791041667,45.0,69.0
1115,243.28175275208338,243.84227911458336,52.0,76.0
1116,243.62254225416672,244.2896475729167,64.0,86.0
1117,243.61727909583337,244.30412125833337,60.0,88.0
1118,243.92912122708339,244.31201599583338,57.0,69.0
1119,244.55148970000005,244.98570026250005,53.0,54.0
1120,244.2343844104167,245.0475423729167,47.0,71.0
1121,244.88306867500003,245.52648978125004,65.0,89.0
1122,244.88175288541672,245.53964767708337,62.0,93.0
1123,245.1738581729167,245.6080687354167,59.0,79.0
1124,245.8251740166667,246.25412142083337,50.0,65.0
1125,245.50412135833338,246.30017405625003,43.0,72.0
1126,246.14359509583338,246.71991093333338,62.0,86.0
1127,246.44359512083338,246.7212267229167,55.0,70.0
1128,246.1370161479167,246.74227935625004,58.0,100.0
1129,247.42385836041672,248.1659636854167,48.0,78.0
1130,247.6843846979167,248.7264900479167,55.0,68.0
1131,246.74622672500004,249.14096376666672,36.0,74.0
1132,247.08701622708338,249.1449111354167,43.0,51.0
1133,248.34227948958338,249.1488585041667,48.0,74.0
1134,248.01070051458336,249.39359536666672,64.0,93.0
1135,248.9699111208334,249.39622694583338,55.0,85.0
1136,248.66991109583336,249.4054374729167,60.0,92.0
1137,249.59622696250003,249.84227961458336,60.0,38.0
1138,249.60017433125003,249.84491119375005,64.0,41.0
1139,249.5751743291667,249.84885856250003,55.0,50.0
1140,249.94227962291671,250.15017437708337,55.0,54.0
1141,249.93570067500005,250.15412174583338,60.0,67.0
1142,249.94491120208338,250.1593849041667,64.0,66.0
1143,250.2580691229167,250.4633322979167,60.0,82.0
1144,250.25938491250002,250.46596387708337,55.0,83.0
1145,250.2620164916667,250.4672796666667,64.0,82.0
1146,250.55149020000005,250.77649021875004,55.0,90.0
1147,250.55675335833337,250.7791217979167,60.0,93.0
1148,250.5580691479167,250.7830691666667,64.0,88.0
1149,250.91464812500004,251.1659639354167,60.0,100.0
1150,250.90938496666672,251.16727972500004,55.0,96.0
1151,250.9172797041667,251.1699113041667,64.0,95.0
1152,249.2896479895834,251.46464817083336,48.0,88.0
1153,251.2764902604167,251.55806923125004,55.0,99.0
1154,251.27254289166672,251.56201660000005,60.0,97.0
1155,251.2764902604167,251.56201660000005,64.0,95.0
1156,251.6264902895834,251.8093850416667,48.0,82.0
1157,251.62122713125004,251.81859556875003,43.0,79.0
1158,249.28570062083338,251.82780609583338,36.0,76.0
1159,251.63701660625003,251.82780609583338,36.0,55.0
1160,251.61596397291672,251.83964820208337,55.0,81.0
1161,251.6199113416667,251.84359557083337,60.0,90.0
1162,251.6238587104167,251.85149030833338,64.0,82.0
1163,252.10412190833338,255.22517480000005,36.0,77.0
1164,252.09622717083337,255.2396484854167,48.0,117.0
1165,252.09754296041672,255.24491164375004,43.0,97.0
1166,252.0935955916667,255.24622743333336,60.0,107.0
1167,252.09227980208337,255.25412217083337,55.0,97.0
1168,252.10017453958338,255.2554379604167,64.0,96.0
