,start,end,pitch,velocity
0,14.69420015625,14.90766125,63.0,74.0
1,14.92496890625,15.153814583333334,66.0,76.0
2,15.15573765625,15.62881359375,65.0,77.0
3,15.61727515625,15.87689,63.0,75.0
4,15.84804390625,16.54035015625,65.0,79.0
5,16.54035015625,16.77111890625,66.0,76.0
6,16.77111890625,17.507655833333335,68.0,73.0
7,17.46342515625,17.905731927083334,66.0,76.0
8,17.90188578125,17.905731927083334,66.0,76.0
9,18.221115885416665,18.523038333333332,65.0,79.0
10,18.53842291666667,18.798037760416666,63.0,75.0
11,18.805730052083334,19.27495984375,61.0,79.0
12,19.30957515625,19.69226666666667,63.0,74.0
13,19.77111265625,20.240342447916667,61.0,75.0
14,20.23265015625,20.494188072916668,58.0,71.0
15,20.46341890625,21.717262447916667,56.0,77.0
16,22.07880015625,22.28649203125,54.0,76.0
17,22.30956890625,22.57110682291667,56.0,74.0
18,22.54033765625,23.71918135416667,58.0,74.0
19,23.92495015625,24.04033453125,58.0,77.0
20,24.15571890625,24.384564583333333,58.0,76.0
21,24.38648765625,24.788409895833333,61.0,77.0
22,24.84802515625,25.299947291666665,59.0,76.0
23,25.30956265625,25.80571546875,58.0,74.0
24,25.77110015625,26.265329895833332,59.0,73.0
25,26.23263765625,27.251866302083332,58.0,73.0
26,27.61725015625,27.759557552083333,58.0,75.0
27,27.84801890625,28.023018541666666,58.0,74.0
28,28.07878765625,28.4653253125,63.0,75.0
29,28.54032515625,29.032631822916667,61.0,72.0
30,29.00186265625,29.467246302083332,58.0,71.0
31,29.46340015625,29.911476145833333,54.0,76.0
32,29.924937656250002,30.84801265625,58.0,68.0
33,30.84801265625,31.77108765625,56.0,76.0
34,31.77108765625,32.70954723958334,59.0,68.0
35,32.69416265625,33.15185401041667,56.0,76.0
36,33.15570015625,35.49992604166667,58.0,75.0
37,36.84800015625,37.06146125,63.0,74.0
38,37.07876890625,37.30761458333333,66.0,76.0
39,37.30953765625,37.78261359375,65.0,77.0
40,37.77107515625,38.03069,63.0,75.0
41,38.00184390625,38.694150156250004,65.0,79.0
42,38.694150156250004,38.92491890625,66.0,76.0
43,38.92491890625,39.661455833333335,68.0,73.0
44,39.61722515625,40.059531927083334,66.0,76.0
45,40.05568578125,40.059531927083334,66.0,76.0
46,40.37491588541667,40.676838333333336,65.0,79.0
47,40.692222916666665,40.951837760416666,63.0,75.0
48,40.95953005208333,41.42875984375,61.0,79.0
49,41.46337515625,41.846066666666665,63.0,74.0
50,41.92491265625,42.394142447916664,61.0,75.0
51,42.38645015625,42.64798807291667,58.0,71.0
52,42.61721890625,43.871062447916664,56.0,77.0
53,44.23260015625,44.44029203125,54.0,76.0
54,44.46336890625,44.724906822916665,56.0,74.0
55,44.69413765625,45.87298135416667,58.0,74.0
56,46.07875015625,46.19413453125,63.0,77.0
57,46.30951890625,46.54028765625,61.0,76.0
58,46.54028765625,46.94220989583334,61.0,77.0
59,47.00182515625,47.453747291666666,58.0,76.0
60,47.46336265625,47.95951546875,59.0,74.0
61,47.92490015625,48.15566890625,58.0,73.0
62,48.15566890625,49.30951265625,56.0,73.0
63,51.61720015625,51.76912291666667,58.0,74.0
64,51.84796890625,52.01719932291667,58.0,71.0
65,52.07873765625,52.4883521875,59.0,76.0
66,52.54027515625,52.9268128125,66.0,77.0
67,53.00181265625,53.459504010416666,65.0,82.0
68,53.46335015625,53.672965104166664,63.0,75.0
69,53.69411890625,54.80950119791667,65.0,80.0
70,54.84796265625,55.307577083333335,65.0,77.0
71,55.30950015625,57.43641880208333,63.0,69.0
72,59.00180015625,59.18449208333333,66.0,77.0
73,59.23256890625,59.52295291666667,68.0,76.0
74,59.46333765625,59.89218291666667,70.0,76.0
75,59.92487515625,60.44025869791667,66.0,78.0
76,60.38641265625,61.00756520833333,73.0,76.0
77,61.07871890625,61.3267953125,70.0,76.0
78,61.30948765625,61.7652559375,68.0,75.0
79,61.77102515625,62.230639583333335,61.0,77.0
80,62.23256265625,62.828715260416665,73.0,75.0
81,62.69410015625,63.14602229166667,65.0,75.0
82,63.15563765625,63.33256036458334,63.0,70.0
83,63.38640640625,63.61525208333333,65.0,79.0
84,63.61717515625,63.805636302083336,66.0,74.0
85,63.84794390625,64.08832802083333,63.0,76.0
86,64.07871265625,64.55178859375,66.0,78.0
87,64.54025015625,64.8114034375,68.0,74.0
88,64.77101890625,66.08832385416667,70.0,72.0
89,66.15563140625,66.29216958333333,70.0,76.0
90,66.38640015625,66.49216916666667,70.0,77.0
91,66.61716890625,66.83639921875,70.0,76.0
92,66.84793765625,67.222936875,68.0,81.0
93,67.30947515625,67.50562859375,70.0,76.0
94,67.54024390625,67.99985833333334,71.0,77.0
95,68.00178140625,68.53447260416667,68.0,75.0
96,68.69408765625,69.16331744791667,66.0,76.0
97,69.15562515625,69.42293229166667,68.0,75.0
98,69.38639390625,69.86331598958333,70.0,76.0
99,69.84793140625,70.43446864583333,63.0,68.0
100,70.30946890625,70.43831479166667,58.0,76.0
101,70.54023765625,70.67677583333334,65.0,77.0
102,70.77100640625,70.88446770833333,66.0,77.0
103,71.00177515625,71.1690825,65.0,73.0
104,71.23254390625,71.39408203125,66.0,70.0
105,71.46331265625,71.63446614583333,68.0,75.0
106,71.69408140625,71.94792703125,66.0,67.0
107,71.92485015625,72.12869588541666,65.0,76.0
108,72.15561890625,72.33061854166667,66.0,75.0
109,72.38638765625,72.53254119791667,65.0,75.0
110,72.61715640625,72.79023296875,58.0,71.0
111,72.84792515625,72.97292489583333,65.0,77.0
112,73.07869390625,73.77100015625,63.0,76.0
113,73.77100015625,73.95369208333334,66.0,77.0
114,74.00176890625,74.29215291666667,68.0,76.0
115,74.23253765625,74.66138291666667,70.0,76.0
116,74.69407515625,75.20945869791667,66.0,78.0
117,75.15561265625,75.77676520833333,73.0,76.0
118,75.84791890625,76.0959953125,70.0,76.0
119,76.07868765625,76.5344559375,68.0,75.0
120,76.54022515625,76.99983958333334,61.0,77.0
121,77.00176265625,77.59791526041667,73.0,75.0
122,77.46330015625,77.91522229166667,65.0,75.0
123,77.92483765625,78.10176036458333,63.0,70.0
124,78.15560640625,78.38445208333333,65.0,79.0
125,78.38637515625,78.57483630208334,66.0,74.0
126,78.61714390625,78.85752802083333,63.0,76.0
127,78.84791265625,79.32098859375,66.0,78.0
128,79.30945015625,79.5806034375,68.0,74.0
129,79.54021890625,80.85752385416667,70.0,72.0
130,80.92483140625001,81.06136958333333,70.0,76.0
131,81.15560015625,81.26136916666667,70.0,77.0
132,81.38636890625,81.60559921875,70.0,76.0
133,81.61713765625,81.992136875,68.0,81.0
134,82.07867515625,82.27482859375,70.0,76.0
135,82.30944390625,82.76905833333333,71.0,77.0
136,82.77098140625,83.30367260416666,68.0,75.0
137,83.46328765625,83.93251744791667,66.0,76.0
138,83.92482515625,84.19213229166667,68.0,75.0
139,84.15559390625,84.63251598958334,70.0,76.0
140,84.84790015625,85.0036690625,63.0,76.0
141,85.07866890625,85.3728990625,65.0,74.0
142,85.30943765625,85.73251369791667,66.0,75.0
143,85.77097515625,86.53251203125001,63.0,77.0
144,86.69405015625,86.91328046875,73.0,75.0
145,86.92481890625,87.18635682291666,70.0,74.0
146,87.15558765625,88.64019994791667,68.0,75.0
147,89.46327515625,89.64981322916667,68.0,66.0
148,89.69404390625,89.94404338541666,66.0,75.0
149,89.92481265625,90.35173484375,65.0,86.0
150,90.38635015625,90.87096453125,61.0,78.0
151,90.84788765625,91.33634817708334,58.0,75.0
152,91.30942515625,93.57480505208333,63.0,72.0
153,108.84785015625,109.06131125,63.0,74.0
154,109.07861890625,109.30746458333333,66.0,76.0
155,109.30938765625,109.78246359375,65.0,77.0
156,109.77092515625,110.03054,63.0,75.0
157,110.00169390625,110.69400015625,65.0,79.0
158,110.69400015625,110.92476890625,66.0,76.0
159,110.92476890625,111.66130583333333,68.0,73.0
160,111.61707515625,112.05938192708334,66.0,76.0
161,112.05553578125,112.05938192708334,66.0,76.0
162,112.37476588541666,112.67668833333333,65.0,79.0
163,112.69207291666666,112.95168776041666,63.0,75.0
164,112.95938005208333,113.42860984375,61.0,79.0
165,113.46322515625,113.84591666666667,63.0,74.0
166,113.92476265625,114.39399244791667,61.0,75.0
167,114.38630015625,114.64783807291667,58.0,71.0
168,114.61706890625,115.87091244791667,56.0,77.0
169,116.23245015625,116.44014203125,54.0,76.0
170,116.46321890625,116.72475682291667,56.0,74.0
171,116.69398765625,117.87283135416666,58.0,74.0
172,118.07860015625,118.19398453125,63.0,77.0
173,118.30936890625,118.54013765625,61.0,76.0
174,118.54013765625,118.94205989583334,61.0,77.0
175,119.00167515625,119.45359729166667,58.0,76.0
176,119.46321265625001,119.95936546875001,59.0,74.0
177,119.92475015625,120.15551890625,58.0,73.0
178,120.15551890625,121.30936265625,56.0,73.0
179,123.61705015625,123.76897291666667,58.0,74.0
180,123.84781890625,124.01704932291666,58.0,71.0
181,124.07858765625001,124.48820218750001,59.0,76.0
182,124.54012515625,124.9266628125,66.0,77.0
183,125.00166265625,125.45935401041666,65.0,82.0
184,125.46320015625,125.67281510416667,63.0,75.0
185,125.69396890625,126.80935119791667,65.0,80.0
186,126.84781265625,127.30742708333334,65.0,77.0
187,127.30935015625,129.43626880208333,63.0,69.0
188,131.00165015625,131.18434208333335,66.0,77.0
189,131.23241890625,131.52280291666668,68.0,76.0
190,131.46318765625,131.89203291666666,70.0,76.0
191,131.92472515625,132.44010869791666,66.0,78.0
192,132.38626265625,133.00741520833333,73.0,76.0
193,133.07856890625,133.3266453125,70.0,76.0
194,133.30933765625,133.7651059375,68.0,75.0
195,133.77087515625,134.23048958333334,61.0,77.0
196,134.23241265625,134.82856526041667,73.0,75.0
197,134.69395015625,135.14587229166668,65.0,75.0
198,135.15548765625,135.33241036458332,63.0,70.0
199,135.38625640625,135.61510208333334,65.0,79.0
200,135.61702515625,135.80548630208332,66.0,74.0
201,135.84779390625,136.08817802083334,63.0,76.0
202,136.07856265625,136.55163859375,66.0,78.0
203,136.54010015625,136.8112534375,68.0,74.0
204,136.77086890625,138.08817385416666,70.0,72.0
205,138.15548140625,138.29201958333334,70.0,76.0
206,138.38625015625001,138.49201916666667,70.0,77.0
207,138.61701890625,138.83624921875,70.0,76.0
208,138.84778765625,139.222786875,68.0,81.0
209,139.30932515625,139.50547859375,70.0,76.0
210,139.54009390625,139.99970833333333,71.0,77.0
211,140.00163140625,140.53432260416668,68.0,75.0
212,140.69393765625,141.16316744791666,66.0,76.0
213,141.15547515625,141.42278229166666,68.0,75.0
214,141.38624390625,141.86316598958334,70.0,76.0
215,141.84778140625,142.43431864583334,63.0,68.0
216,142.30931890625,142.43816479166668,58.0,76.0
217,142.54008765625,142.67662583333333,65.0,77.0
218,142.77085640625,142.88431770833333,66.0,77.0
219,143.00162515625001,143.1689325,65.0,73.0
220,143.23239390625,143.39393203125,66.0,70.0
221,143.46316265625,143.63431614583334,68.0,75.0
222,143.69393140625,143.94777703125,66.0,67.0
223,143.92470015625,144.12854588541666,65.0,76.0
224,144.15546890625,144.33046854166668,66.0,75.0
225,144.38623765625,144.53239119791667,65.0,75.0
226,144.61700640625,144.79008296875,58.0,71.0
227,144.84777515625,144.97277489583334,65.0,77.0
228,145.07854390625,145.77085015625,63.0,76.0
229,145.77085015625,145.95354208333333,66.0,77.0
230,146.00161890625,146.29200291666666,68.0,76.0
231,146.23238765625,146.66123291666668,70.0,76.0
232,146.69392515625,147.20930869791667,66.0,78.0
233,147.15546265625,147.77661520833334,73.0,76.0
234,147.84776890625,148.0958453125,70.0,76.0
235,148.07853765625,148.5343059375,68.0,75.0
236,148.54007515625,148.99968958333332,61.0,77.0
237,149.00161265625,149.59776526041668,73.0,75.0
238,149.46315015625,149.91507229166666,65.0,75.0
239,149.92468765625,150.10161036458334,63.0,70.0
240,150.15545640625,150.38430208333332,65.0,79.0
241,150.38622515625,150.57468630208334,66.0,74.0
242,150.61699390625,150.85737802083332,63.0,76.0
243,150.84776265625,151.32083859375,66.0,78.0
244,151.30930015625,151.5804534375,68.0,74.0
245,151.54006890625,152.85737385416667,70.0,72.0
246,152.92468140625,153.06121958333333,70.0,76.0
247,153.15545015625,153.26121916666668,70.0,77.0
248,153.38621890625,153.60544921875,70.0,76.0
249,153.61698765625,153.991986875,68.0,81.0
250,154.07852515625,154.27467859375,70.0,76.0
251,154.30929390625,154.76890833333334,71.0,77.0
252,154.77083140625,155.30352260416666,68.0,75.0
253,155.46313765625,155.93236744791668,66.0,76.0
254,155.92467515625,156.19198229166668,68.0,75.0
255,156.15544390625,156.63236598958335,70.0,76.0
256,156.84775015625002,157.0035190625,63.0,76.0
257,157.07851890625,157.3727490625,65.0,74.0
258,157.30928765625,157.73236369791667,66.0,75.0
259,157.77082515625,158.53236203125,63.0,77.0
260,158.69390015625,158.91313046875,73.0,75.0
261,158.92466890625,159.18620682291666,70.0,74.0
262,159.15543765625,160.64004994791668,68.0,75.0
263,161.46312515625,161.64966322916666,68.0,66.0
264,161.69389390625,161.94389338541666,66.0,75.0
265,161.92466265625,162.35158484375,65.0,86.0
266,162.38620015625,162.87081453125,61.0,78.0
267,162.84773765625,163.33619817708333,58.0,75.0
268,163.30927515625,165.57465505208333,63.0,72.0
269,166.77080640625,167.03234432291666,58.0,77.0
270,167.00157515625,167.23042083333334,63.0,75.0
271,167.23234390625,167.44965114583334,65.0,77.0
272,167.46311265625,167.91503479166667,66.0,76.0
273,167.92465015625,168.35349541666668,63.0,81.0
274,168.38618765625,168.76503302083333,61.0,81.0
275,168.84772515625,168.97080182291666,70.0,77.0
276,169.07849390625,169.25541661458334,70.0,82.0
277,169.30926265625,169.67849265625,68.0,77.0
278,169.77080015625,170.19579927083333,66.0,77.0
279,170.23233765625,170.4573371875,65.0,76.0
280,170.46310640625,170.62464453125,63.0,66.0
281,170.69387515625,170.8611825,65.0,76.0
282,170.92464390625,171.08618203125,63.0,73.0
283,171.15541265625,171.60348864583332,65.0,77.0
284,171.84771890625,172.09771838541667,65.0,77.0
285,172.07848765625,172.315025625,66.0,76.0
286,172.30925640625,172.55925588541666,65.0,79.0
287,172.54002515625,172.79771692708334,63.0,75.0
288,172.77079390625,173.02656260416666,61.0,78.0
289,173.00156265625,173.468869375,63.0,75.0
290,174.15540640625,174.34194447916667,61.0,77.0
291,174.38617515625,174.6342515625,66.0,75.0
292,174.61694390625001,174.82655885416668,68.0,72.0
293,174.84771265625,175.2804040625,70.0,66.0
294,175.30925015625,175.84001828125,66.0,77.0
295,175.77078765625,176.23232515625,73.0,76.0
296,176.23232515625,176.46309390625,73.0,76.0
297,176.46309390625,176.69386265625,73.0,76.0
298,176.69386265625,177.08232338541666,70.0,79.0
299,177.15540015625,177.61693765625,68.0,76.0
300,177.61693765625,178.05924442708334,63.0,75.0
301,178.07847515625,178.28809010416666,65.0,76.0
302,178.30924390625,178.60732020833333,66.0,72.0
303,178.54001265625,179.01308859375,68.0,76.0
304,179.00155015625,179.47654916666667,70.0,75.0
305,179.46308765625,180.26308598958335,65.0,78.0
306,180.38616265625,180.78423875000001,65.0,79.0
307,180.84770015625,181.22846859375,66.0,76.0
308,181.30923765625,181.77654437500001,65.0,77.0
309,181.77077515625,184.12269333333333,63.0,76.0
310,184.54000015625,184.72269208333333,66.0,77.0
311,184.77076890625,185.06115291666666,68.0,76.0
312,185.00153765625,185.43038291666667,70.0,76.0
313,185.46307515625,185.97845869791666,66.0,78.0
314,185.92461265625,186.54576520833334,73.0,76.0
315,186.61691890625,186.8649953125,70.0,76.0
316,186.84768765625,187.3034559375,68.0,75.0
317,187.30922515625,187.76883958333335,61.0,77.0
318,187.77076265625,188.36691526041668,73.0,75.0
319,188.23230015625,188.68422229166666,65.0,75.0
320,188.69383765625,188.87076036458333,63.0,70.0
321,188.92460640625,189.15345208333335,65.0,79.0
322,189.15537515625,189.34383630208333,66.0,74.0
323,189.38614390625,189.62652802083335,63.0,76.0
324,189.61691265625,190.08998859375,66.0,78.0
325,190.07845015625,190.3496034375,68.0,74.0
326,190.30921890625,191.62652385416666,70.0,72.0
327,191.69383140625,191.83036958333332,70.0,76.0
328,191.92460015625,192.03036916666667,70.0,77.0
329,192.15536890625,192.37459921875,70.0,76.0
330,192.38613765625,192.761136875,68.0,81.0
331,192.84767515625,193.04382859375,70.0,76.0
332,193.07844390625002,193.53805833333334,71.0,77.0
333,193.53998140625,194.07267260416666,68.0,75.0
334,194.23228765625,194.70151744791667,66.0,76.0
335,194.69382515625,194.96113229166667,68.0,75.0
336,194.92459390625,195.40151598958334,70.0,76.0
337,195.38613140625,195.97266864583332,63.0,68.0
338,195.84766890625,195.97651479166666,58.0,76.0
339,196.07843765625,196.21497583333334,65.0,77.0
340,196.30920640625,196.42266770833334,66.0,77.0
341,196.53997515625,196.7072825,65.0,73.0
342,196.77074390625,196.93228203125,66.0,70.0
343,197.00151265625001,197.17266614583335,68.0,75.0
344,197.23228140625,197.48612703125,66.0,67.0
345,197.46305015625,197.66689588541666,65.0,76.0
346,197.69381890625,197.86881854166666,66.0,75.0
347,197.92458765625,198.07074119791667,65.0,75.0
348,198.15535640625,198.32843296875,58.0,71.0
349,198.38612515625,198.51112489583335,65.0,77.0
350,198.61689390625,199.30920015625,63.0,76.0
351,199.30920015625,199.49189208333334,66.0,77.0
352,199.53996890625,199.83035291666667,68.0,76.0
353,199.77073765625,200.19958291666666,70.0,76.0
354,200.23227515625,200.74765869791668,66.0,78.0
355,200.69381265625,201.31496520833335,73.0,76.0
356,201.38611890625,201.6341953125,70.0,76.0
357,201.61688765625001,202.0726559375,68.0,75.0
358,202.07842515625,202.53803958333333,61.0,77.0
359,202.53996265625,203.13611526041666,73.0,75.0
360,203.00150015625,203.45342229166667,65.0,75.0
361,203.46303765625,203.63996036458335,63.0,70.0
362,203.69380640625,203.92265208333333,65.0,79.0
363,203.92457515625,204.11303630208334,66.0,74.0
364,204.15534390625,204.39572802083333,63.0,76.0
365,204.38611265625,204.85918859375,66.0,78.0
366,204.84765015625,205.1188034375,68.0,74.0
367,205.07841890625,206.39572385416668,70.0,72.0
368,206.46303140625,206.59956958333333,70.0,76.0
369,206.69380015625,206.79956916666666,70.0,77.0
370,206.92456890625,207.14379921875,70.0,76.0
371,207.15533765625,207.530336875,68.0,81.0
372,207.61687515625,207.81302859375,70.0,76.0
373,207.84764390625,208.30725833333332,71.0,77.0
374,208.30918140625,208.84187260416667,68.0,75.0
375,209.00148765625,209.47071744791666,66.0,76.0
376,209.46302515625,209.73033229166666,68.0,75.0
377,209.69379390625,210.17071598958333,70.0,76.0
378,210.38610015625,210.5418690625,63.0,76.0
379,210.61686890625,210.9110990625,65.0,74.0
380,210.84763765625001,211.27071369791668,66.0,75.0
381,211.30917515625,212.07071203125,63.0,77.0
382,212.23225015625,212.45148046875,73.0,75.0
383,212.46301890625,212.72455682291667,70.0,74.0
384,212.69378765625,214.17839994791666,68.0,75.0
385,215.00147515625,215.18801322916667,68.0,66.0
386,215.23224390625,215.48224338541667,66.0,75.0
387,215.46301265625002,215.88993484375,65.0,86.0
388,215.92455015625,216.40916453125,61.0,78.0
389,216.38608765625,216.87454817708334,58.0,75.0
390,216.84762515625,219.11300505208334,63.0,72.0
