,start,end,pitch,velocity
0,0.84807515625,1.661535,63.0,65.0
1,1.07884390625,1.8596115104166666,70.0,72.0
2,0.38653765625000003,2.030765,51.0,73.0
3,0.61730640625,2.1019186979166666,58.0,53.0
4,1.77115015625,2.1019186979166666,63.0,68.0
5,2.00191890625,2.64807140625,70.0,69.0
6,2.46345640625,3.40960828125,56.0,63.0
7,2.69422515625,3.4519158854166667,61.0,71.0
8,2.23268765625,3.46153125,49.0,76.0
9,2.92499390625,3.9249918229166667,70.0,71.0
10,4.07883765625,4.55191359375,70.0,74.0
11,4.77114390625,5.6922958333333336,70.0,73.0
12,4.30960640625,5.699988125,54.0,50.0
13,4.07883765625,5.788449479166666,47.0,67.0
14,4.54037515625,5.903833854166667,63.0,69.0
15,5.92498765625,6.442294270833333,70.0,70.0
16,6.15575640625,7.207677291666667,53.0,64.0
17,5.92498765625,7.223061875,46.0,74.0
18,6.38652515625,7.353830833333333,58.0,66.0
19,6.6172939062500005,7.694214739583334,70.0,72.0
20,8.00190640625,8.6192128125,58.0,67.0
21,8.23267515625,9.003827395833333,63.0,71.0
22,8.46344390625,9.205750052083333,70.0,75.0
23,7.77113765625,9.3807496875,51.0,77.0
24,9.15575015625,9.65190296875,63.0,70.0
25,8.92498140625,9.676902916666666,58.0,64.0
26,9.38651890625,10.042286770833334,70.0,75.0
27,9.61728765625,10.676900833333333,49.0,76.0
28,9.84805640625,10.6961315625,58.0,68.0
29,10.07882515625,10.855746614583333,61.0,75.0
30,11.00190015625,11.536514427083333,61.0,71.0
31,10.30959390625,11.799975416666667,70.0,75.0
32,11.92497515625,13.123049583333334,63.0,61.0
33,11.46343765625,14.373046979166666,51.0,77.0
34,11.69420640625,14.373046979166666,58.0,63.0
35,15.61727515625,16.155735572916665,63.0,70.0
36,15.38650640625,16.209581614583332,58.0,65.0
37,16.07881265625,16.55958088541667,66.0,75.0
38,15.15573765625,16.730734375,51.0,77.0
39,16.30958140625,16.786503489583332,58.0,70.0
40,16.54035015625,17.04804140625,63.0,73.0
41,17.001887656250002,17.865347395833332,66.0,70.0
42,17.001887656250002,18.4038078125,47.0,76.0
43,17.46342515625,18.4268846875,54.0,63.0
44,17.92496265625,18.86726838541667,63.0,76.0
45,18.84803765625,19.75957421875,66.0,68.0
46,18.84803765625,20.292265416666666,42.0,74.0
47,19.30957515625,20.294188489583334,49.0,71.0
48,19.77111265625,20.386495989583334,61.0,73.0
49,20.23265015625,20.75957213541667,66.0,71.0
50,20.69418765625,21.42110921875,65.0,74.0
51,21.15572515625,21.7038009375,56.0,71.0
52,21.61726265625,22.0961078125,61.0,77.0
53,20.69418765625,22.18264609375,49.0,77.0
54,21.84803140625,22.232645989583332,56.0,71.0
55,22.07880015625,22.32303041666667,65.0,75.0
56,22.54033765625,23.484566458333333,66.0,71.0
57,23.00187515625,23.603796979166667,58.0,64.0
58,23.46341265625,23.95956546875,63.0,77.0
59,22.54033765625,24.142257395833333,51.0,77.0
60,23.69418140625,24.298026302083333,58.0,66.0
61,23.92495015625,24.428795260416667,66.0,71.0
62,24.38648765625,25.267255052083332,65.0,72.0
63,24.84802515625,25.432639322916668,56.0,67.0
64,24.38648765625,25.473023854166666,49.0,76.0
65,25.30956265625,25.85186921875,61.0,79.0
66,25.77110015625,26.224945364583334,65.0,75.0
67,26.23263765625,27.203789479166666,63.0,67.0
68,27.15571265625,27.655711614583332,59.0,76.0
69,26.69417515625,27.83071125,54.0,62.0
70,26.23263765625,27.90571109375,47.0,70.0
71,27.61725015625,28.080710729166668,63.0,75.0
72,28.07878765625,29.015324166666666,65.0,76.0
73,28.54032515625,29.48840010416667,53.0,71.0
74,28.07878765625,29.511476979166666,46.0,75.0
75,29.00186265625,29.5499384375,58.0,75.0
76,29.924937656250002,30.51339796875,63.0,70.0
77,29.924937656250002,30.530705625,56.0,70.0
78,30.38647515625,30.955704739583332,51.0,62.0
79,30.84801265625,31.330703958333334,56.0,74.0
80,30.84801265625,31.434549895833335,59.0,64.0
81,29.924937656250002,31.596088020833335,44.0,75.0
82,31.30955015625,31.61531875,51.0,68.0
83,31.54031890625,31.680703229166667,56.0,76.0
84,31.77108765625,32.057625520833334,56.0,71.0
85,31.77108765625,32.08262546875,61.0,73.0
86,31.77108765625,32.115317708333336,49.0,71.0
87,32.69416265625,32.976854375,50.0,73.0
88,32.69416265625,33.048008072916666,62.0,71.0
89,32.69416265625,33.05377729166667,65.0,76.0
90,33.61723765625,34.18069802083333,66.0,74.0
91,33.61723765625,34.213390260416666,63.0,70.0
92,34.07877515625,34.599927916666665,58.0,60.0
93,34.54031265625,34.79223520833333,63.0,71.0
94,34.54031265625,35.01338859375,70.0,71.0
95,33.61723765625,35.26531114583334,51.0,79.0
96,34.77108140625,35.29223416666667,58.0,61.0
97,35.00185015625,35.42877234375,63.0,75.0
98,35.46338765625,35.62684885416667,63.0,62.0
99,35.46338765625,36.115309375,70.0,72.0
100,35.92492515625,36.7268465625,58.0,58.0
101,35.46338765625,36.738385,51.0,76.0
102,36.38646265625,37.19799942708333,63.0,60.0
103,37.77107515625,38.309535572916666,63.0,70.0
104,37.540306406250004,38.36338161458333,58.0,65.0
105,38.23261265625,38.71338088541667,66.0,75.0
106,37.30953765625,38.884534375,51.0,77.0
107,38.46338140625,38.940303489583336,58.0,70.0
108,38.694150156250004,39.20184140625,63.0,73.0
109,39.15568765625,40.019147395833336,66.0,70.0
110,39.15568765625,40.5576078125,47.0,76.0
111,39.61722515625,40.5806846875,54.0,63.0
112,40.07876265625,41.02106838541667,63.0,76.0
113,41.001837656250004,41.91337421875,66.0,68.0
114,41.001837656250004,42.44606541666667,42.0,74.0
115,41.46337515625,42.44798848958333,49.0,71.0
116,41.92491265625,42.540295989583335,61.0,73.0
117,42.38645015625,42.913372135416665,66.0,71.0
118,42.84798765625,43.57490921875,65.0,74.0
119,43.30952515625,43.8576009375,56.0,71.0
120,43.77106265625,44.2499078125,61.0,77.0
121,42.84798765625,44.33644609375,49.0,77.0
122,44.00183140625,44.386445989583336,56.0,71.0
123,44.23260015625,44.476830416666665,65.0,75.0
124,44.69413765625,45.63836645833334,66.0,71.0
125,45.15567515625,45.757596979166664,58.0,64.0
126,45.61721265625,46.11336546875,63.0,77.0
127,44.69413765625,46.29605739583334,51.0,77.0
128,45.84798140625,46.45182630208333,58.0,66.0
129,46.07875015625,46.58259526041667,66.0,71.0
130,46.54028765625,47.072978854166664,65.0,75.0
131,46.54028765625,47.130671041666666,58.0,69.0
132,47.00182515625,47.52297791666667,53.0,64.0
133,47.46336265625,47.913361718750004,61.0,82.0
134,46.54028765625,48.00566921875,46.0,72.0
135,47.69413140625,48.01720765625,53.0,69.0
136,47.92490015625,48.16913041666667,58.0,76.0
137,48.38643765625,48.922975,61.0,71.0
138,48.84797515625,49.376820208333335,56.0,75.0
139,49.30951265625,49.59605052083333,65.0,76.0
140,49.54028140625,49.79220395833333,61.0,70.0
141,48.38643765625,50.049895729166664,49.0,75.0
142,49.77105015625,50.305664427083336,56.0,75.0
143,50.00181890625,50.54797161458333,61.0,76.0
144,50.46335640625,50.78450958333333,56.0,71.0
145,50.69412515625,50.92489390625,61.0,70.0
146,51.15566265625,51.4729696875,65.0,75.0
147,50.23258765625,51.47681583333333,49.0,75.0
148,51.15566265625,51.48066197916667,61.0,70.0
149,51.15566265625,51.50950807291667,56.0,71.0
150,52.07873765625,52.555659739583334,63.0,71.0
151,52.07873765625,52.57681354166667,56.0,70.0
152,52.54027515625,53.10565859375,51.0,68.0
153,53.00181265625,53.682580468750004,59.0,71.0
154,53.46335015625,53.767195677083336,51.0,75.0
155,52.07873765625,53.782580260416665,44.0,75.0
156,53.69411890625,54.015272083333336,56.0,76.0
157,53.92488765625,54.40757895833333,61.0,76.0
158,54.38642515625,54.90565484375,56.0,75.0
159,53.92488765625,55.08834677083333,49.0,76.0
160,54.84796265625,55.28642328125,61.0,76.0
161,54.84796265625,55.35373083333334,65.0,77.0
162,55.30950015625,55.52296125,56.0,76.0
163,55.77103765625,55.86334515625,39.0,77.0
164,55.77103765625,56.14411380208333,58.0,70.0
165,55.77103765625,56.326805729166665,63.0,70.0
166,56.69411265625,56.99218895833334,66.0,77.0
167,56.69411265625,57.022958125,63.0,75.0
168,57.15565015625,57.40757270833333,65.0,77.0
169,56.23257515625,57.442188020833335,51.0,70.0
170,56.92488140625,57.467187968750004,58.0,63.0
171,57.38641890625,57.65949526041667,66.0,71.0
172,57.61718765625,57.9114178125,58.0,71.0
173,57.61718765625,58.138340416666665,63.0,74.0
174,57.61718765625,58.18449416666667,39.0,77.0
175,58.07872515625,58.2344940625,58.0,76.0
176,58.54026265625,58.980646354166666,37.0,75.0
177,58.54026265625,59.04795390625,61.0,73.0
178,58.54026265625,59.04795390625,65.0,76.0
179,59.00180015625,59.17487671875,56.0,80.0
180,59.46333765625,60.24410526041667,58.0,70.0
181,59.46333765625,60.246028333333335,54.0,69.0
182,60.15564390625,60.44795098958333,61.0,72.0
183,59.92487515625,60.630642916666666,49.0,70.0
184,59.46333765625,60.71141197916667,42.0,76.0
185,60.38641265625,60.717181197916666,66.0,80.0
186,60.61718140625,60.91333463541667,61.0,76.0
187,60.84795015625,60.97679604166667,54.0,75.0
188,61.30948765625,61.54025640625,56.0,69.0
189,61.30948765625,61.85179421875,61.0,69.0
190,61.77102515625,62.3421778125,56.0,73.0
191,61.30948765625,62.430639166666666,49.0,75.0
192,62.23256265625,62.49986979166667,65.0,81.0
193,62.46333140625,62.68640786458333,61.0,71.0
194,62.69410015625,62.86909979166667,56.0,77.0
195,63.15563765625,63.671021197916666,63.0,74.0
196,63.61717515625,64.00178973958333,54.0,75.0
197,63.84794390625,64.09217416666667,59.0,63.0
198,64.07871265625,64.35563515625,63.0,78.0
199,63.15563765625,64.47871182291667,47.0,79.0
200,64.30948140625,64.57101932291667,59.0,74.0
201,64.54025015625,64.66524989583333,54.0,76.0
202,65.00178765625,65.19409494791667,58.0,66.0
203,65.00178765625,65.45563286458334,61.0,73.0
204,65.46332515625,65.74409380208333,58.0,72.0
205,65.69409390625,65.9652471875,61.0,75.0
206,65.92486265625,66.2190928125,66.0,77.0
207,65.23255640625,66.30755416666666,49.0,65.0
208,66.15563140625,66.39409244791666,61.0,76.0
209,65.00178765625,66.51139989583334,42.0,75.0
210,66.38640015625,66.66332265625,58.0,77.0
211,66.84793765625,66.97678354166666,56.0,71.0
212,66.84793765625,67.09793713541667,61.0,72.0
213,67.07870640625,67.361398125,56.0,74.0
214,67.30947515625,67.53255161458334,61.0,70.0
215,67.54024390625,67.66908979166666,56.0,64.0
216,67.77101265625,68.12870421875,65.0,84.0
217,66.84793765625,68.21331942708333,49.0,77.0
218,68.00178140625,68.24024244791667,56.0,70.0
219,68.23255015625,68.46331890625,61.0,71.0
220,68.46331890625,68.6190878125,56.0,67.0
221,68.69408765625,68.89408723958333,63.0,73.0
222,68.92485640625,69.14408671875,58.0,71.0
223,69.15562515625,69.4037015625,63.0,75.0
224,69.38639390625,69.5421628125,58.0,75.0
225,69.61716265625,69.90946973958333,66.0,77.0
226,68.69408765625,69.94023890625,51.0,76.0
227,69.84793140625,70.07677708333334,58.0,73.0
228,70.07870015625,70.29408432291666,63.0,74.0
229,70.30946890625,70.54408380208334,58.0,76.0
230,71.00177515625,71.27677458333334,58.0,76.0
231,71.23254390625,71.32485140625,61.0,81.0
232,70.77100640625,71.53062020833333,53.0,65.0
233,71.46331265625,71.72485057291667,58.0,76.0
234,71.46331265625,71.77292739583334,61.0,80.0
235,71.46331265625,71.84600416666667,65.0,79.0
236,70.54023765625,71.93638859375,46.0,77.0
237,71.69408140625,71.94792703125,53.0,75.0
238,71.92485015625,72.253695625,58.0,74.0
239,72.15561890625,72.32292625,61.0,70.0
240,72.38638765625,72.64215635416667,63.0,75.0
241,72.61715640625,72.94023265625,58.0,76.0
242,72.84792515625,73.13830916666667,63.0,68.0
243,73.07869390625,73.61330817708334,66.0,75.0
244,73.54023140625,73.81330776041666,58.0,76.0
245,72.38638765625,74.07099953125,51.0,76.0
246,73.77100015625,74.07869182291667,63.0,76.0
247,74.00176890625,74.17676854166666,58.0,76.0
248,74.23253765625,74.65945984375,61.0,71.0
249,74.69407515625,74.99792067708333,54.0,72.0
250,74.92484390625,75.10753583333333,58.0,77.0
251,74.46330640625,75.2421509375,49.0,69.0
252,75.15561265625,75.55945796875,61.0,86.0
253,74.23253765625,75.6113809375,42.0,78.0
254,75.38638140625,75.62676552083333,49.0,75.0
255,75.61715015625,75.89214958333334,54.0,77.0
256,75.84791890625,75.99791859375,61.0,76.0
257,76.54022515625,76.84214760416667,56.0,79.0
258,76.77099390625,77.03253182291667,61.0,75.0
259,77.00176265625,77.26522364583333,65.0,79.0
260,76.30945640625,77.46137708333333,53.0,76.0
261,76.07868765625,77.4806078125,49.0,82.0
262,77.23253140625,77.49791546875,61.0,76.0
263,77.46330015625,77.79406869791667,56.0,75.0
264,77.69406890625,77.98445291666667,61.0,76.0
265,77.92483765625,78.43445197916667,59.0,80.0
266,77.92483765625,78.60945161458334,63.0,63.0
267,78.61714390625,78.89791255208334,59.0,75.0
268,78.38637515625,79.00752770833333,54.0,71.0
269,77.92483765625,79.36521927083334,47.0,82.0
270,79.30945015625,79.47098828125,54.0,77.0
271,78.84791265625,79.569065,63.0,82.0
272,79.54021890625,79.76714151041666,59.0,77.0
273,79.77098765625,80.04983322916667,58.0,65.0
274,79.77098765625,80.16137145833333,61.0,69.0
275,80.23252515625,80.51329380208334,58.0,77.0
276,80.46329390625,80.73252411458333,61.0,76.0
277,80.00175640625,81.10752333333333,49.0,71.0
278,80.69406265625,81.13636942708334,66.0,78.0
279,80.92483140625001,81.1729078125,61.0,75.0
280,79.77098765625,81.17675395833334,42.0,76.0
281,81.15560015625,81.4267534375,58.0,76.0
282,81.38636890625,81.52098401041667,61.0,76.0
283,81.61713765625,81.76329119791667,56.0,76.0
284,81.61713765625,81.87290635416667,61.0,76.0
285,81.84790640625,82.09982895833333,56.0,73.0
286,82.07867515625,82.4305975,61.0,72.0
287,82.30944390625,82.5805971875,56.0,69.0
288,82.77098140625,83.04405776041666,56.0,68.0
289,82.54021265625,83.06328848958333,65.0,79.0
290,81.61713765625,83.20944203125,49.0,84.0
291,83.23251890625001,83.46136458333334,56.0,75.0
292,83.00175015625,83.47482609375,61.0,76.0
293,83.46328765625,83.7344409375,63.0,75.0
294,83.69405640625,83.95174817708333,58.0,75.0
295,84.15559390625,84.36520885416667,58.0,71.0
296,83.92482515625,84.41328567708334,63.0,72.0
297,83.46328765625,84.69790046875,51.0,76.0
298,84.38636265625,84.86713088541667,66.0,76.0
299,84.61713140625,84.89790005208333,58.0,67.0
300,84.84790015625,85.09213041666666,63.0,70.0
301,85.77097515625,86.09020526041667,59.0,75.0
302,86.00174390625,86.25751260416666,63.0,75.0
303,86.23251265625,86.49597364583333,66.0,80.0
304,85.54020640625001,86.71712703125,54.0,49.0
305,85.30943765625,86.72866546875,47.0,76.0
306,86.46328140625,86.74789619791667,63.0,69.0
307,86.69405015625,86.84212677083333,59.0,70.0
308,87.15558765625,87.35943338541666,56.0,65.0
309,87.15558765625,87.5998175,61.0,67.0
310,87.61712515625,88.061355,56.0,75.0
311,88.07866265625,88.33250828125,65.0,81.0
312,87.15558765625,88.49789255208333,49.0,76.0
313,88.30943140625,88.55173859375,61.0,75.0
314,88.54020015625,88.75366125000001,56.0,75.0
315,89.00173765625,89.51904427083333,37.0,71.0
316,89.00173765625,90.25750427083334,56.0,67.0
317,89.00173765625,90.49788838541667,61.0,72.0
318,90.84788765625,91.45942484375,63.0,67.0
319,90.84788765625,91.48057864583333,58.0,66.0
320,91.77096265625,91.93442385416667,63.0,74.0
321,91.77096265625,91.94211614583334,66.0,75.0
322,91.30942515625,92.43249973958333,46.0,49.0
323,90.84788765625,92.492115,39.0,76.0
324,92.23250015625,92.53057645833333,58.0,65.0
325,92.69403765625,92.98634473958333,58.0,71.0
326,92.69403765625,93.01903697916667,63.0,69.0
327,93.15557515625,93.42095921875,58.0,72.0
328,92.69403765625,93.945958125,39.0,76.0
329,93.61711265625,94.49788005208333,63.0,70.0
330,93.61711265625,94.50557234375,66.0,71.0
331,95.00172515625,95.815185,63.0,65.0
332,95.23249390625,96.01326151041667,70.0,72.0
333,94.54018765625,96.184415,51.0,73.0
334,94.77095640625,96.25556869791667,58.0,53.0
335,95.92480015625,96.25556869791667,63.0,68.0
336,96.15556890625,96.80172140625,70.0,69.0
337,96.61710640625,97.56325828125,56.0,63.0
338,96.84787515625,97.60556588541667,61.0,71.0
339,96.38633765625,97.61518125,49.0,76.0
340,97.07864390625,98.07864182291667,70.0,71.0
341,98.23248765625,98.70556359375,70.0,74.0
342,98.92479390625,99.84594583333333,70.0,73.0
343,98.46325640625,99.853638125,54.0,50.0
344,98.23248765625,99.94209947916667,47.0,67.0
345,98.69402515625,100.05748385416666,63.0,69.0
346,100.07863765625,100.59594427083333,70.0,70.0
347,100.30940640625,101.36132729166667,53.0,64.0
348,100.07863765625,101.376711875,46.0,74.0
349,100.54017515625,101.50748083333333,58.0,66.0
350,100.77094390625,101.84786473958333,70.0,72.0
351,102.15555640625,102.7728628125,58.0,67.0
352,102.38632515625,103.15747739583334,63.0,71.0
353,102.61709390625,103.35940005208333,70.0,75.0
354,101.92478765625,103.5343996875,51.0,77.0
355,103.30940015625,103.80555296875,63.0,70.0
356,103.07863140625,103.83055291666666,58.0,64.0
357,103.54016890625,104.19593677083333,70.0,75.0
358,103.77093765625,104.83055083333333,49.0,76.0
359,104.00170640625,104.8497815625,58.0,68.0
360,104.23247515625,105.00939661458334,61.0,75.0
361,105.15555015625,105.69016442708333,61.0,71.0
362,104.46324390625,105.95362541666667,70.0,75.0
363,106.07862515625,107.27669958333334,63.0,61.0
364,105.61708765625,108.52669697916667,51.0,77.0
365,105.84785640625,108.52669697916667,58.0,63.0
366,109.77092515625,110.30938557291667,63.0,70.0
367,109.54015640625,110.36323161458333,58.0,65.0
368,110.23246265625001,110.71323088541666,66.0,75.0
369,109.30938765625,110.884384375,51.0,77.0
370,110.46323140625,110.94015348958334,58.0,70.0
371,110.69400015625,111.20169140625,63.0,73.0
372,111.15553765625,112.01899739583334,66.0,70.0
373,111.15553765625,112.5574578125,47.0,76.0
374,111.61707515625,112.5805346875,54.0,63.0
375,112.07861265625,113.02091838541666,63.0,76.0
376,113.00168765625,113.91322421875,66.0,68.0
377,113.00168765625,114.44591541666667,42.0,74.0
378,113.46322515625,114.44783848958333,49.0,71.0
379,113.92476265625,114.54014598958334,61.0,73.0
380,114.38630015625,114.91322213541667,66.0,71.0
381,114.84783765625001,115.57475921875,65.0,74.0
382,115.30937515625,115.8574509375,56.0,71.0
383,115.77091265625,116.24975781250001,61.0,77.0
384,114.84783765625001,116.33629609375001,49.0,77.0
385,116.00168140625,116.38629598958333,56.0,71.0
386,116.23245015625,116.47668041666667,65.0,75.0
387,116.69398765625,117.63821645833333,66.0,71.0
388,117.15552515625001,117.75744697916667,58.0,64.0
389,117.61706265625,118.11321546875,63.0,77.0
390,116.69398765625,118.29590739583334,51.0,77.0
391,117.84783140625,118.45167630208333,58.0,66.0
392,118.07860015625,118.58244526041666,66.0,71.0
393,118.54013765625,119.07282885416667,65.0,75.0
394,118.54013765625,119.13052104166667,58.0,69.0
395,119.00167515625,119.52282791666667,53.0,64.0
396,119.46321265625001,119.91321171875,61.0,82.0
397,118.54013765625,120.00551921875,46.0,72.0
398,119.69398140625,120.01705765625,53.0,69.0
399,119.92475015625,120.16898041666667,58.0,76.0
400,120.38628765625,120.922825,61.0,71.0
401,120.84782515625,121.37667020833334,56.0,75.0
402,121.30936265625,121.59590052083334,65.0,76.0
403,121.54013140625,121.79205395833334,61.0,70.0
404,120.38628765625,122.04974572916667,49.0,75.0
405,121.77090015625001,122.30551442708334,56.0,75.0
406,122.00166890625,122.54782161458333,61.0,76.0
407,122.46320640625,122.78435958333334,56.0,71.0
408,122.69397515625,122.92474390625,61.0,70.0
409,123.15551265625,123.4728196875,65.0,75.0
410,122.23243765625,123.47666583333333,49.0,75.0
411,123.15551265625,123.48051197916666,61.0,70.0
412,123.15551265625,123.50935807291667,56.0,71.0
413,124.07858765625001,124.55550973958333,63.0,71.0
414,124.07858765625001,124.57666354166666,56.0,70.0
415,124.54012515625,125.10550859375,51.0,68.0
416,125.00166265625,125.68243046875,59.0,71.0
417,125.46320015625,125.76704567708333,51.0,75.0
418,124.07858765625001,125.78243026041667,44.0,75.0
419,125.69396890625,126.01512208333334,56.0,76.0
420,125.92473765625,126.40742895833334,61.0,76.0
421,126.38627515625001,126.90550484375,56.0,75.0
422,125.92473765625,127.08819677083333,49.0,76.0
423,126.84781265625,127.28627328125,61.0,76.0
424,126.84781265625,127.35358083333334,65.0,77.0
425,127.30935015625,127.52281125,56.0,76.0
426,127.77088765625,127.86319515625,39.0,77.0
427,127.77088765625,128.14396380208333,58.0,70.0
428,127.77088765625,128.32665572916667,63.0,70.0
429,128.69396265625,128.99203895833332,66.0,77.0
430,128.69396265625,129.022808125,63.0,75.0
431,129.15550015625,129.40742270833334,65.0,77.0
432,128.23242515625,129.44203802083334,51.0,70.0
433,128.92473140625,129.46703796875,58.0,63.0
434,129.38626890625,129.65934526041667,66.0,71.0
435,129.61703765625,129.9112678125,58.0,71.0
436,129.61703765625,130.13819041666667,63.0,74.0
437,129.61703765625,130.18434416666668,39.0,77.0
438,130.07857515625,130.2343440625,58.0,76.0
439,130.54011265625,130.98049635416666,37.0,75.0
440,130.54011265625,131.04780390625,61.0,73.0
441,130.54011265625,131.04780390625,65.0,76.0
442,131.00165015625,131.17472671875,56.0,80.0
443,131.46318765625,132.24395526041667,58.0,70.0
444,131.46318765625,132.24587833333334,54.0,69.0
445,132.15549390625,132.44780098958333,61.0,72.0
446,131.92472515625,132.63049291666667,49.0,70.0
447,131.46318765625,132.71126197916666,42.0,76.0
448,132.38626265625,132.71703119791667,66.0,80.0
449,132.61703140625,132.91318463541666,61.0,76.0
450,132.84780015625,132.97664604166667,54.0,75.0
451,133.30933765625,133.54010640625,56.0,69.0
452,133.30933765625,133.85164421875,61.0,69.0
453,133.77087515625,134.3420278125,56.0,73.0
454,133.30933765625,134.43048916666666,49.0,75.0
455,134.23241265625,134.49971979166668,65.0,81.0
456,134.46318140625,134.68625786458333,61.0,71.0
457,134.69395015625,134.86894979166667,56.0,77.0
458,135.15548765625,135.67087119791665,63.0,74.0
459,135.61702515625,136.00163973958334,54.0,75.0
460,135.84779390625,136.09202416666668,59.0,63.0
461,136.07856265625,136.35548515625,63.0,78.0
462,135.15548765625,136.47856182291667,47.0,79.0
463,136.30933140625,136.57086932291668,59.0,74.0
464,136.54010015625,136.66509989583332,54.0,76.0
465,137.00163765625,137.19394494791666,58.0,66.0
466,137.00163765625,137.45548286458333,61.0,73.0
467,137.46317515625,137.74394380208332,58.0,72.0
468,137.69394390625,137.9650971875,61.0,75.0
469,137.92471265625,138.2189428125,66.0,77.0
470,137.23240640625,138.30740416666666,49.0,65.0
471,138.15548140625,138.39394244791666,61.0,76.0
472,137.00163765625,138.51124989583334,42.0,75.0
473,138.38625015625001,138.66317265625,58.0,77.0
474,138.84778765625,138.97663354166667,56.0,71.0
475,138.84778765625,139.09778713541667,61.0,72.0
476,139.07855640625,139.361248125,56.0,74.0
477,139.30932515625,139.53240161458334,61.0,70.0
478,139.54009390625,139.66893979166667,56.0,64.0
479,139.77086265625,140.12855421875,65.0,84.0
480,138.84778765625,140.21316942708333,49.0,77.0
481,140.00163140625,140.24009244791668,56.0,70.0
482,140.23240015625,140.46316890625,61.0,71.0
483,140.46316890625,140.6189378125,56.0,67.0
484,140.69393765625,140.89393723958332,63.0,73.0
485,140.92470640625,141.14393671875,58.0,71.0
486,141.15547515625,141.4035515625,63.0,75.0
487,141.38624390625,141.5420128125,58.0,75.0
488,141.61701265625,141.90931973958334,66.0,77.0
489,140.69393765625,141.94008890625,51.0,76.0
490,141.84778140625,142.07662708333334,58.0,73.0
491,142.07855015625,142.29393432291667,63.0,74.0
492,142.30931890625,142.54393380208333,58.0,76.0
493,143.00162515625001,143.27662458333333,58.0,76.0
494,143.23239390625,143.32470140625,61.0,81.0
495,142.77085640625,143.53047020833333,53.0,65.0
496,143.46316265625,143.72470057291667,58.0,76.0
497,143.46316265625,143.77277739583334,61.0,80.0
498,143.46316265625,143.84585416666667,65.0,79.0
499,142.54008765625,143.93623859375,46.0,77.0
500,143.69393140625,143.94777703125,53.0,75.0
501,143.92470015625,144.25354562500002,58.0,74.0
502,144.15546890625,144.32277625,61.0,70.0
503,144.38623765625,144.64200635416665,63.0,75.0
504,144.61700640625,144.94008265625,58.0,76.0
505,144.84777515625,145.13815916666667,63.0,68.0
506,145.07854390625,145.61315817708333,66.0,75.0
507,145.54008140625,145.81315776041666,58.0,76.0
508,144.38623765625,146.07084953125,51.0,76.0
509,145.77085015625,146.07854182291666,63.0,76.0
510,146.00161890625,146.17661854166667,58.0,76.0
511,146.23238765625,146.65930984375,61.0,71.0
512,146.69392515625,146.99777067708334,54.0,72.0
513,146.92469390625,147.10738583333332,58.0,77.0
514,146.46315640625,147.2420009375,49.0,69.0
515,147.15546265625,147.55930796875,61.0,86.0
516,146.23238765625,147.6112309375,42.0,78.0
517,147.38623140625,147.62661552083333,49.0,75.0
518,147.61700015625001,147.89199958333333,54.0,77.0
519,147.84776890625,147.99776859375,61.0,76.0
520,148.54007515625,148.84199760416666,56.0,79.0
521,148.77084390625,149.03238182291668,61.0,75.0
522,149.00161265625,149.26507364583333,65.0,79.0
523,148.30930640625,149.46122708333334,53.0,76.0
524,148.07853765625,149.4804578125,49.0,82.0
525,149.23238140625,149.49776546875,61.0,76.0
526,149.46315015625,149.79391869791667,56.0,75.0
527,149.69391890625,149.98430291666668,61.0,76.0
528,149.92468765625,150.43430197916666,59.0,80.0
529,149.92468765625,150.60930161458333,63.0,63.0
530,150.61699390625,150.89776255208332,59.0,75.0
531,150.38622515625,151.00737770833334,54.0,71.0
532,149.92468765625,151.36506927083335,47.0,82.0
533,151.30930015625,151.47083828125,54.0,77.0
534,150.84776265625,151.568915,63.0,82.0
535,151.54006890625,151.76699151041666,59.0,77.0
536,151.77083765625,152.04968322916667,58.0,65.0
537,151.77083765625,152.16122145833333,61.0,69.0
538,152.23237515625001,152.51314380208333,58.0,77.0
539,152.46314390625,152.73237411458334,61.0,76.0
540,152.00160640625,153.10737333333333,49.0,71.0
541,152.69391265625,153.13621942708335,66.0,78.0
542,152.92468140625,153.1727578125,61.0,75.0
543,151.77083765625,153.17660395833335,42.0,76.0
544,153.15545015625,153.4266034375,58.0,76.0
545,153.38621890625,153.52083401041668,61.0,76.0
546,153.61698765625,153.76314119791667,56.0,76.0
547,153.61698765625,153.87275635416665,61.0,76.0
548,153.84775640625,154.09967895833333,56.0,73.0
549,154.07852515625,154.4304475,61.0,72.0
550,154.30929390625,154.5804471875,56.0,69.0
551,154.77083140625,155.04390776041666,56.0,68.0
552,154.54006265625,155.06313848958334,65.0,79.0
553,153.61698765625,155.20929203125,49.0,84.0
554,155.23236890625,155.46121458333334,56.0,75.0
555,155.00160015625,155.47467609375,61.0,76.0
556,155.46313765625,155.7342909375,63.0,75.0
557,155.69390640625,155.95159817708333,58.0,75.0
558,156.15544390625,156.36505885416668,58.0,71.0
559,155.92467515625,156.41313567708335,63.0,72.0
560,155.46313765625,156.69775046875,51.0,76.0
561,156.38621265625,156.86698088541667,66.0,76.0
562,156.61698140625,156.89775005208332,58.0,67.0
563,156.84775015625002,157.09198041666667,63.0,70.0
564,157.77082515625,158.09005526041668,59.0,75.0
565,158.00159390625,158.25736260416667,63.0,75.0
566,158.23236265625,158.49582364583333,66.0,80.0
567,157.54005640625,158.71697703125,54.0,49.0
568,157.30928765625,158.72851546875,47.0,76.0
569,158.46313140625,158.74774619791665,63.0,69.0
570,158.69390015625,158.84197677083333,59.0,70.0
571,159.15543765625,159.35928338541666,56.0,65.0
572,159.15543765625,159.5996675,61.0,67.0
573,159.61697515625,160.061205,56.0,75.0
574,160.07851265625,160.33235828125,65.0,81.0
575,159.15543765625,160.49774255208334,49.0,76.0
576,160.30928140625,160.55158859375,61.0,75.0
577,160.54005015625,160.75351125,56.0,75.0
578,161.00158765625,161.51889427083333,37.0,71.0
579,161.00158765625,162.25735427083333,56.0,67.0
580,161.00158765625,162.49773838541668,61.0,72.0
581,162.84773765625,163.45927484375,63.0,67.0
582,162.84773765625,163.48042864583334,58.0,66.0
583,163.77081265625,163.93427385416666,63.0,74.0
584,163.77081265625,163.94196614583333,66.0,75.0
585,163.30927515625,164.43234973958334,46.0,49.0
586,162.84773765625,164.491965,39.0,76.0
587,164.23235015625,164.53042645833332,58.0,65.0
588,164.69388765625,164.98619473958334,58.0,71.0
589,164.69388765625,165.01888697916667,63.0,69.0
590,165.15542515625,165.42080921875,58.0,72.0
591,164.69388765625,165.945808125,39.0,76.0
592,165.61696265625,166.49773005208334,63.0,70.0
593,165.61696265625,166.50542234375,66.0,71.0
594,167.00157515625,167.28234380208335,59.0,82.0
595,167.23234390625,167.35542057291667,63.0,75.0
596,166.77080640625,167.57849703125,54.0,66.0
597,167.46311265625,167.74388130208334,59.0,81.0
598,166.54003765625,167.75349666666668,47.0,89.0
599,167.46311265625,167.96888083333334,63.0,77.0
600,167.46311265625,167.97849619791666,66.0,76.0
601,167.69388140625,167.99003463541666,54.0,71.0
602,167.92465015625,168.03811145833333,59.0,77.0
603,168.38618765625,168.63811020833333,58.0,68.0
604,168.38618765625,168.81310984375,61.0,71.0
605,168.84772515625,169.1419553125,58.0,70.0
606,169.07849390625,169.22080130208334,61.0,79.0
607,168.61695640625,169.44195468750002,49.0,60.0
608,169.30926265625,169.75926171875,58.0,72.0
609,168.38618765625,169.868876875,42.0,76.0
610,169.77080015625,169.92079984375,49.0,73.0
611,169.30926265625,169.95156901041668,61.0,74.0
612,169.30926265625,170.04579958333335,66.0,77.0
613,170.00156890625001,170.13618401041666,58.0,70.0
614,170.23233765625,170.40349114583333,56.0,76.0
615,170.23233765625,170.52464473958332,61.0,75.0
616,170.46310640625,170.69579822916666,56.0,75.0
617,170.69387515625,170.930413125,61.0,67.0
618,170.92464390625,171.03041291666668,56.0,59.0
619,171.15541265625,171.42848901041665,56.0,77.0
620,170.23233765625,171.51118114583335,49.0,84.0
621,171.15541265625,171.62656552083334,61.0,78.0
622,171.15541265625,171.82848817708333,65.0,78.0
623,171.61695015625,171.89194958333334,49.0,72.0
624,171.84771890625,171.99771859375,56.0,76.0
625,172.07848765625,172.34579479166666,58.0,75.0
626,172.07848765625,172.43425614583333,63.0,69.0
627,172.54002515625,172.80156307291668,63.0,73.0
628,172.07848765625,172.88233213541668,51.0,78.0
629,172.77079390625,172.90156286458333,58.0,68.0
630,173.00156265625,173.24579291666666,58.0,77.0
631,173.00156265625,173.34386963541667,63.0,76.0
632,173.00156265625,173.468869375,51.0,77.0
633,173.00156265625,173.53425385416668,66.0,75.0
634,173.46310015625,173.76117645833332,58.0,75.0
635,173.92463765625,174.4034828125,58.0,70.0
636,173.92463765625,174.51502104166667,66.0,71.0
637,174.61694390625001,174.76309744791666,58.0,72.0
638,174.38617515625,174.96309703125002,49.0,64.0
639,174.84771265625,174.99386619791667,58.0,75.0
640,174.84771265625,175.12463515625,61.0,81.0
641,173.92463765625,175.22848109375,42.0,76.0
642,175.07848140625,175.3265578125,58.0,69.0
643,175.30925015625,175.52655739583332,61.0,68.0
644,175.54001890625,175.69001859375,58.0,63.0
645,175.77078765625,176.01694098958333,56.0,75.0
646,175.77078765625,176.10155619791666,61.0,69.0
647,176.23232515625,176.58232442708334,56.0,69.0
648,175.77078765625,176.86117,49.0,77.0
649,176.69386265625,176.87078536458333,56.0,78.0
650,176.92463140625,177.07655416666668,49.0,77.0
651,176.69386265625,177.15924630208335,65.0,77.0
652,177.15540015625,177.391938125,61.0,77.0
653,177.38616890625,177.5419378125,56.0,76.0
654,177.61693765625,178.12655197916666,63.0,71.0
655,178.07847515625,178.36308994791668,59.0,75.0
656,178.30924390625,178.45924359375,63.0,75.0
657,177.84770640625,178.65732010416667,54.0,50.0
658,177.61693765625,178.72462765625,47.0,79.0
659,178.54001265625,178.85924276041666,59.0,68.0
660,178.77078140625,178.93039645833335,54.0,75.0
661,178.54001265625,179.02655010416666,63.0,69.0
662,179.00155015625,179.11693453125,47.0,80.0
663,178.54001265625,179.14001140625,66.0,76.0
664,179.46308765625,179.91500979166668,58.0,71.0
665,179.46308765625,179.9188559375,65.0,75.0
666,180.15539390625,180.2419321875,58.0,71.0
667,179.92462515625,180.43616255208335,53.0,76.0
668,180.38616265625,180.68231588541667,58.0,77.0
669,179.46308765625,180.74385421875,46.0,76.0
670,180.61693140625,180.80346947916667,53.0,75.0
671,180.38616265625,180.81116177083334,65.0,77.0
672,180.84770015625,181.10539192708333,58.0,79.0
673,181.30923765625,181.47846807291666,58.0,75.0
674,181.30923765625,181.64192927083334,63.0,75.0
675,181.77077515625,181.96692859375,58.0,70.0
676,182.23231265625,182.35923546875,58.0,70.0
677,182.23231265625,182.48615828125,63.0,75.0
678,182.23231265625,182.66308098958334,66.0,72.0
679,181.30923765625,182.84000369791667,51.0,75.0
680,182.69385015625,182.953465,58.0,73.0
681,183.15538765625,183.29000276041666,58.0,76.0
682,183.15538765625,183.64384817708333,63.0,79.0
683,183.61692515625,183.8650015625,58.0,76.0
684,183.15538765625,183.89000151041668,51.0,86.0
685,183.84769390625002,184.01500125,63.0,76.0
686,184.07846265625,184.35346208333334,61.0,73.0
687,184.07846265625,184.53807708333335,65.0,77.0
688,184.54000015625,184.82846109375,61.0,77.0
689,184.30923140625,184.96499927083335,56.0,72.0
690,184.07846265625,184.96884541666668,49.0,80.0
691,184.77076890625,184.97461463541666,65.0,75.0
692,185.00153765625,185.78230526041668,58.0,70.0
693,185.00153765625,185.78422833333335,54.0,69.0
694,185.69384390625,185.98615098958334,61.0,72.0
695,185.46307515625,186.16884291666668,49.0,70.0
696,185.00153765625,186.24961197916667,42.0,76.0
697,185.92461265625,186.25538119791668,66.0,80.0
698,186.15538140625,186.45153463541666,61.0,76.0
699,186.38615015625,186.51499604166668,54.0,75.0
700,186.84768765625,187.07845640625,56.0,69.0
701,186.84768765625,187.38999421875,61.0,69.0
702,187.30922515625,187.8803778125,56.0,73.0
703,186.84768765625,187.96883916666667,49.0,75.0
704,187.77076265625,188.03806979166666,65.0,81.0
705,188.00153140625,188.22460786458333,61.0,71.0
706,188.23230015625,188.40729979166667,56.0,77.0
707,188.69383765625,189.20922119791666,63.0,74.0
708,189.15537515625,189.53998973958335,54.0,75.0
709,189.38614390625,189.63037416666666,59.0,63.0
710,189.61691265625,189.89383515625,63.0,78.0
711,188.69383765625,190.01691182291665,47.0,79.0
712,189.84768140625,190.10921932291666,59.0,74.0
713,190.07845015625,190.20344989583333,54.0,76.0
714,190.53998765625,190.73229494791667,58.0,66.0
715,190.53998765625,190.99383286458334,61.0,73.0
716,191.00152515625,191.28229380208333,58.0,72.0
717,191.23229390625,191.5034471875,61.0,75.0
718,191.46306265625,191.7572928125,66.0,77.0
719,190.77075640625,191.84575416666667,49.0,65.0
720,191.69383140625,191.93229244791667,61.0,76.0
721,190.53998765625,192.04959989583332,42.0,75.0
722,191.92460015625,192.20152265625,58.0,77.0
723,192.38613765625,192.51498354166668,56.0,71.0
724,192.38613765625,192.63613713541667,61.0,72.0
725,192.61690640625,192.899598125,56.0,74.0
726,192.84767515625,193.07075161458334,61.0,70.0
727,193.07844390625002,193.20728979166668,56.0,64.0
728,193.30921265625,193.66690421875,65.0,84.0
729,192.38613765625,193.75151942708334,49.0,77.0
730,193.53998140625,193.77844244791666,56.0,70.0
731,193.77075015625,194.00151890625,61.0,71.0
732,194.00151890625,194.1572878125,56.0,67.0
733,194.23228765625,194.43228723958333,63.0,73.0
734,194.46305640625,194.68228671875,58.0,71.0
735,194.69382515625,194.9419015625,63.0,75.0
736,194.92459390625,195.0803628125,58.0,75.0
737,195.15536265625,195.44766973958335,66.0,77.0
738,194.23228765625,195.47843890625,51.0,76.0
739,195.38613140625,195.61497708333334,58.0,73.0
740,195.61690015625,195.83228432291668,63.0,74.0
741,195.84766890625,196.08228380208334,58.0,76.0
742,196.53997515625,196.81497458333334,58.0,76.0
743,196.77074390625,196.86305140625,61.0,81.0
744,196.30920640625,197.06882020833334,53.0,65.0
745,197.00151265625001,197.26305057291665,58.0,76.0
746,197.00151265625001,197.31112739583332,61.0,80.0
747,197.00151265625001,197.38420416666668,65.0,79.0
748,196.07843765625,197.47458859375,46.0,77.0
749,197.23228140625,197.48612703125,53.0,75.0
750,197.46305015625,197.791895625,58.0,74.0
751,197.69381890625,197.86112625,61.0,70.0
752,197.92458765625,198.18035635416666,63.0,75.0
753,198.15535640625,198.47843265625,58.0,76.0
754,198.38612515625,198.67650916666668,63.0,68.0
755,198.61689390625,199.15150817708334,66.0,75.0
756,199.07843140625,199.35150776041667,58.0,76.0
757,197.92458765625,199.60919953125,51.0,76.0
758,199.30920015625,199.61689182291667,63.0,76.0
759,199.53996890625,199.71496854166668,58.0,76.0
760,199.77073765625,200.19765984375,61.0,71.0
761,200.23227515625,200.53612067708335,54.0,72.0
762,200.46304390625,200.64573583333333,58.0,77.0
763,200.00150640625,200.7803509375,49.0,69.0
764,200.69381265625,201.09765796875,61.0,86.0
765,199.77073765625,201.1495809375,42.0,78.0
766,200.92458140625,201.16496552083333,49.0,75.0
767,201.15535015625,201.43034958333334,54.0,77.0
768,201.38611890625,201.53611859375,61.0,76.0
769,202.07842515625,202.38034760416667,56.0,79.0
770,202.30919390625,202.57073182291666,61.0,75.0
771,202.53996265625,202.80342364583333,65.0,79.0
772,201.84765640625,202.99957708333332,53.0,76.0
773,201.61688765625001,203.0188078125,49.0,82.0
774,202.77073140625,203.03611546875,61.0,76.0
775,203.00150015625,203.33226869791667,56.0,75.0
776,203.23226890625,203.52265291666666,61.0,76.0
777,203.46303765625,203.97265197916667,59.0,80.0
778,203.46303765625,204.14765161458334,63.0,63.0
779,204.15534390625,204.43611255208333,59.0,75.0
780,203.92457515625,204.54572770833335,54.0,71.0
781,203.46303765625,204.90341927083333,47.0,82.0
782,204.84765015625,205.00918828125,54.0,77.0
783,204.38611265625,205.107265,63.0,82.0
784,205.07841890625,205.30534151041667,59.0,77.0
785,205.30918765625,205.58803322916665,58.0,65.0
786,205.30918765625,205.69957145833334,61.0,69.0
787,205.77072515625,206.05149380208334,58.0,77.0
788,206.00149390625,206.27072411458334,61.0,76.0
789,205.53995640625,206.64572333333334,49.0,71.0
790,206.23226265625001,206.67456942708333,66.0,78.0
791,206.46303140625,206.7111078125,61.0,75.0
792,205.30918765625,206.71495395833333,42.0,76.0
793,206.69380015625,206.96495343750001,58.0,76.0
794,206.92456890625,207.05918401041666,61.0,76.0
795,207.15533765625,207.30149119791668,56.0,76.0
796,207.15533765625,207.41110635416666,61.0,76.0
797,207.38610640625,207.63802895833334,56.0,73.0
798,207.61687515625,207.9687975,61.0,72.0
799,207.84764390625,208.1187971875,56.0,69.0
800,208.30918140625,208.58225776041667,56.0,68.0
801,208.07841265625,208.60148848958335,65.0,79.0
802,207.15533765625,208.74764203125,49.0,84.0
803,208.77071890625,208.99956458333332,56.0,75.0
804,208.53995015625,209.01302609375,61.0,76.0
805,209.00148765625,209.2726409375,63.0,75.0
806,209.23225640625,209.48994817708333,58.0,75.0
807,209.69379390625,209.90340885416666,58.0,71.0
808,209.46302515625,209.95148567708333,63.0,72.0
809,209.00148765625,210.23610046875,51.0,76.0
810,209.92456265625,210.40533088541667,66.0,76.0
811,210.15533140625,210.43610005208333,58.0,67.0
812,210.38610015625,210.63033041666668,63.0,70.0
813,211.30917515625,211.62840526041666,59.0,75.0
814,211.53994390625,211.79571260416668,63.0,75.0
815,211.77071265625,212.03417364583333,66.0,80.0
816,211.07840640625,212.25532703125,54.0,49.0
817,210.84763765625001,212.26686546875,47.0,76.0
818,212.00148140625,212.28609619791666,63.0,69.0
819,212.23225015625,212.38032677083334,59.0,70.0
820,212.69378765625,212.89763338541667,56.0,65.0
821,212.69378765625,213.1380175,61.0,67.0
822,213.15532515625,213.599555,56.0,75.0
823,213.61686265625,213.87070828125,65.0,81.0
824,212.69378765625,214.03609255208335,49.0,76.0
825,213.84763140625,214.08993859375,61.0,75.0
826,214.07840015625,214.29186125,56.0,75.0
827,214.53993765625,215.05724427083334,37.0,71.0
828,214.53993765625,215.79570427083334,56.0,67.0
829,214.53993765625,216.03608838541666,61.0,72.0
830,216.38608765625,216.99762484375,63.0,67.0
831,216.38608765625,217.01877864583332,58.0,66.0
832,217.30916265625,217.47262385416667,63.0,74.0
833,217.30916265625,217.48031614583334,66.0,75.0
834,216.84762515625,217.97069973958332,46.0,49.0
835,216.38608765625,218.030315,39.0,76.0
836,217.77070015625,218.06877645833333,58.0,65.0
837,218.23223765625,218.52454473958335,58.0,71.0
838,218.23223765625,218.55723697916667,63.0,69.0
839,218.69377515625,218.95915921875,58.0,72.0
840,218.23223765625,219.484158125,39.0,76.0
841,219.15531265625,220.03608005208332,63.0,70.0
842,219.15531265625,220.04377234375,66.0,71.0
843,220.98992421875,222.35145984375,59.0,77.0
844,221.90723,222.61684390625,66.0,69.0
845,221.43992328125,222.66299765625,63.0,69.0
846,222.83222807291668,223.01876614583333,59.0,76.0
847,220.09954145833333,224.04761015625,47.0,77.0
848,220.51492520833332,224.05145630208332,54.0,66.0
849,223.28991942708333,224.95722364583332,59.0,66.0
850,222.830305,225.29183833333335,63.0,75.0
851,225.6802990625,226.05145213541667,51.0,74.0
852,225.97260614583334,226.31106697916667,58.0,68.0
853,226.30529776041666,226.43798979166667,63.0,77.0
854,226.72452765625,226.9841425,63.0,67.0
855,227.12452682291666,227.50721833333333,63.0,70.0
856,226.71491229166668,227.53991057291668,70.0,69.0
857,227.53029520833334,227.63221807291666,75.0,75.0
858,225.34953052083333,228.93221536458333,46.0,54.0
859,224.94760828125,228.93606151041666,39.0,81.0
860,228.40913953125,229.10529192708333,78.0,63.0
861,228.52452390625,229.10913807291666,87.0,61.0
862,228.33990890625,229.12259958333334,75.0,61.0
