,start,end,pitch,velocity
0,14.171254066666666,15.0041211375,58.0,117.0
1,15.172363066666668,15.3711944375,60.0,95.0
2,15.506066066666667,15.852282929166666,62.0,97.0
3,15.839769066666667,16.5182985,65.0,90.0
4,16.507175066666665,16.845049354166665,62.0,100.0
5,16.840878066666665,17.1857045,60.0,93.0
6,17.17458106666667,17.410954025,58.0,95.0
7,17.50828406666667,18.4871462,58.0,93.0
8,19.510502066666668,20.212668795833334,62.0,112.0
9,20.511611066666667,20.782744754166668,65.0,112.0
10,20.845314066666667,21.1275711875,67.0,96.0
11,21.179017066666667,21.680961995833332,70.0,102.0
12,21.846423066666667,22.064720445833334,67.0,102.0
13,22.180126066666666,22.5541515125,67.0,99.0
14,22.847532066666666,23.684570425,65.0,112.0
15,24.849750066666665,25.6492468375,67.0,112.0
16,25.85085906666667,26.106698033333334,70.0,127.0
17,26.18456206666667,26.747685879166667,72.0,112.0
18,27.185671066666668,27.383112008333335,70.0,127.0
19,27.519374066666668,27.6514648375,72.0,100.0
20,27.853077066666668,28.017147708333333,70.0,127.0
21,28.186780066666667,29.023818425,67.0,102.0
22,29.521592066666667,29.6787105625,65.0,112.0
23,29.855295066666667,29.97626240416667,67.0,99.0
24,30.188998066666667,30.334993129166666,65.0,107.0
25,30.522701066666666,30.8341572,65.0,122.0
26,31.190107066666666,31.3305404125,62.0,97.0
27,31.523810066666666,31.967356970833332,62.0,107.0
28,32.19121606666667,32.56802237083333,60.0,117.0
29,32.52491906666667,32.85862206666667,62.0,93.0
30,32.85862206666667,34.57302122916667,60.0,100.0
31,35.52824606666667,35.6519942625,58.0,107.0
32,35.86194906666667,36.24709794583333,58.0,112.0
33,36.52935506666667,36.698987425,60.0,96.0
34,36.86305806666667,37.109164029166664,62.0,99.0
35,37.19676106666667,37.70982942916667,65.0,97.0
36,37.86416706666667,37.982353545833334,62.0,100.0
37,38.19787006666667,38.495421908333334,60.0,102.0
38,38.53157306666667,38.662273408333334,58.0,96.0
39,38.86527606666667,39.8483094875,58.0,112.0
40,40.867494066666666,41.073277583333336,62.0,112.0
41,41.201197066666666,41.76571130833334,62.0,102.0
42,41.868603066666665,42.13973675416667,65.0,112.0
43,42.202306066666665,42.4845631875,67.0,96.0
44,42.536009066666665,43.037953995833334,70.0,102.0
45,43.203415066666665,43.421712445833336,67.0,102.0
46,43.537118066666665,43.9111435125,67.0,99.0
47,44.204524066666664,45.745119583333334,65.0,112.0
48,46.20674206666667,46.440334166666666,67.0,112.0
49,46.54044506666667,46.945059954166666,67.0,127.0
50,47.20785106666667,47.463690033333336,70.0,127.0
51,47.54155406666667,48.104677879166665,72.0,112.0
52,48.54266306666667,48.74010400833333,70.0,127.0
53,48.87636606666667,49.0084568375,72.0,100.0
54,49.21006906666667,49.37413970833333,70.0,127.0
55,49.54377206666667,50.380810425,67.0,102.0
56,50.87858406666667,51.0357025625,65.0,112.0
57,51.21228706666667,51.33325440416667,67.0,99.0
58,51.54599006666667,51.69198512916667,65.0,107.0
59,51.87969306666667,52.1911492,65.0,122.0
60,52.54709906666667,52.6875324125,62.0,97.0
61,52.88080206666667,53.14220275,62.0,107.0
62,53.38135656666667,53.512056908333335,58.0,102.0
63,53.54820806666667,53.94030909166667,60.0,102.0
64,54.04876256666667,54.691140841666666,62.0,122.0
65,54.54931706666667,56.2998673875,58.0,100.0
66,57.552644066666666,57.8432437625,70.0,127.0
67,57.886347066666666,58.069883716666666,72.0,117.0
68,58.220050066666666,60.889674066666664,74.0,127.0
69,61.557080066666664,61.88800220833333,70.0,117.0
70,61.890783066666664,62.16330718333333,72.0,99.0
71,62.224486066666664,62.51925705,74.0,102.0
72,62.725040566666664,63.2659175125,74.0,112.0
73,63.22559506666667,63.33404854166667,69.0,117.0
74,63.55929806666667,63.68026540416667,67.0,117.0
75,63.89300106666667,64.18081990416667,69.0,117.0
76,64.22670406666667,64.46585788333333,67.0,117.0
77,64.56040706666667,64.8051226,65.0,102.0
78,64.89411006666667,65.39605499583334,67.0,107.0
79,65.56151606666667,65.76590915416666,67.0,107.0
80,65.89521906666667,66.03287155416666,70.0,127.0
81,66.22892206666667,66.44304815833334,72.0,127.0
82,66.72947656666666,66.82124489166667,72.0,112.0
83,66.89632806666667,67.14243402916667,72.0,122.0
84,67.23003106666667,67.3621218375,69.0,107.0
85,67.56373406666667,67.76395586666666,67.0,117.0
86,67.89743706666667,68.033699125,67.0,112.0
87,68.06428856666666,68.23531135416667,69.0,90.0
88,68.23114006666667,68.52313019166667,67.0,112.0
89,68.56484306666667,68.78592130416666,62.0,100.0
90,68.89854606666667,69.27952365833333,65.0,102.0
91,69.23224906666667,69.59515107916667,67.0,97.0
92,69.56595206666667,70.4655597375,65.0,100.0
93,70.90076406666667,71.1913637625,70.0,127.0
94,71.23446706666667,71.41800371666666,72.0,117.0
95,71.56817006666667,74.02644883333333,74.0,127.0
96,74.90520006666667,75.23612220833333,70.0,117.0
97,75.23890306666667,75.51142718333334,72.0,99.0
98,75.57260606666667,75.86737705,74.0,102.0
99,76.07316056666667,76.6140375125,74.0,112.0
100,76.57371506666667,76.68216854166667,69.0,117.0
101,76.90741806666666,77.02838540416667,67.0,117.0
102,77.24112106666666,77.52893990416666,69.0,117.0
103,77.57482406666666,77.81397788333334,67.0,117.0
104,77.90852706666666,78.1532426,65.0,102.0
105,78.24223006666666,78.74417499583333,67.0,107.0
106,78.90963606666666,79.11402915416667,67.0,107.0
107,79.24333906666666,79.38099155416667,70.0,127.0
108,79.57704206666666,79.79116815833333,72.0,127.0
109,80.07759656666667,80.16936489166666,72.0,112.0
110,80.24444806666666,80.49055402916667,72.0,122.0
111,80.57815106666666,80.7102418375,69.0,107.0
112,80.91185406666666,81.11207586666667,67.0,117.0
113,81.24555706666666,81.38738084166667,67.0,112.0
114,81.41240856666667,81.5611844875,62.0,93.0
115,81.57926006666666,81.80729045,65.0,107.0
116,81.91296306666666,82.21746705416666,67.0,102.0
117,82.24666606666666,84.20021904583334,70.0,122.0
118,116.95177806666666,117.78464513750001,58.0,117.0
119,117.95288706666666,118.1517184375,60.0,95.0
120,118.28659006666666,118.63280692916666,62.0,97.0
121,118.62029306666666,119.2988225,65.0,90.0
122,119.28769906666666,119.62557335416666,62.0,100.0
123,119.62140206666666,119.9662285,60.0,93.0
124,119.95510506666666,120.191478025,58.0,95.0
125,120.28880806666666,121.2676702,58.0,93.0
126,122.29102606666667,122.99319279583334,62.0,112.0
127,123.29213506666667,123.56326875416667,65.0,112.0
128,123.62583806666667,123.9080951875,67.0,96.0
129,123.95954106666667,124.46148599583333,70.0,102.0
130,124.62694706666667,124.84524444583333,67.0,102.0
131,124.96065006666667,125.3346755125,67.0,99.0
132,125.62805606666667,126.465094425,65.0,112.0
133,127.63027406666667,128.4297708375,67.0,112.0
134,128.63138306666667,128.88722203333333,70.0,127.0
135,128.96508606666666,129.52820987916667,72.0,112.0
136,129.96619506666667,130.16363600833333,70.0,127.0
137,130.29989806666666,130.4319888375,72.0,100.0
138,130.63360106666667,130.79767170833333,70.0,127.0
139,130.96730406666666,131.804342425,67.0,102.0
140,132.30211606666666,132.4592345625,65.0,112.0
141,132.63581906666667,132.75678640416666,67.0,99.0
142,132.96952206666666,133.11551712916668,65.0,107.0
143,133.30322506666667,133.6146812,65.0,122.0
144,133.97063106666667,134.1110644125,62.0,97.0
145,134.30433406666666,134.74788097083334,62.0,107.0
146,134.97174006666665,135.34854637083333,60.0,117.0
147,135.30544306666667,135.63914606666665,62.0,93.0
148,135.63914606666665,137.35354522916666,60.0,100.0
149,138.30877006666668,138.4325182625,58.0,107.0
150,138.64247306666667,139.02762194583335,58.0,112.0
151,139.30987906666667,139.479511425,60.0,96.0
152,139.64358206666668,139.88968802916668,62.0,99.0
153,139.97728506666667,140.49035342916667,65.0,97.0
154,140.64469106666667,140.76287754583333,62.0,100.0
155,140.97839406666668,141.27594590833334,60.0,102.0
156,141.31209706666667,141.44279740833335,58.0,96.0
157,141.64580006666668,142.6288334875,58.0,112.0
158,143.64801806666668,143.85380158333334,62.0,112.0
159,143.98172106666667,144.54623530833334,62.0,102.0
160,144.64912706666667,144.92026075416666,65.0,112.0
161,144.98283006666668,145.2650871875,67.0,96.0
162,145.31653306666666,145.81847799583335,70.0,102.0
163,145.98393906666666,146.20223644583334,67.0,102.0
164,146.31764206666668,146.6916675125,67.0,99.0
165,146.98504806666668,148.52564358333333,65.0,112.0
166,148.98726606666668,149.22085816666666,67.0,112.0
167,149.32096906666666,149.72558395416667,67.0,127.0
168,149.98837506666666,150.24421403333332,70.0,127.0
169,150.32207806666668,150.88520187916666,72.0,112.0
170,151.32318706666666,151.52062800833335,70.0,127.0
171,151.65689006666668,151.7889808375,72.0,100.0
172,151.99059306666666,152.15466370833335,70.0,127.0
173,152.32429606666668,153.161334425,67.0,102.0
174,153.65910806666668,153.8162265625,65.0,112.0
175,153.99281106666666,154.11377840416668,67.0,99.0
176,154.32651406666668,154.47250912916667,65.0,107.0
177,154.66021706666666,154.9716732,65.0,122.0
178,155.32762306666666,155.4680564125,62.0,97.0
179,155.66132606666667,155.92272675,62.0,107.0
180,156.16188056666667,156.29258090833332,58.0,102.0
181,156.32873206666667,156.72083309166666,60.0,102.0
182,156.82928656666667,157.47166484166667,62.0,122.0
183,157.32984106666666,159.08039138750001,58.0,100.0
184,160.33316806666667,160.6237677625,70.0,127.0
185,160.66687106666666,160.85040771666667,72.0,117.0
186,161.00057406666667,163.67019806666667,74.0,127.0
187,164.33760406666667,164.66852620833333,70.0,117.0
188,164.67130706666666,164.94383118333334,72.0,99.0
189,165.00501006666667,165.29978105,74.0,102.0
190,165.50556456666666,166.0464415125,74.0,112.0
191,166.00611906666666,166.11457254166666,69.0,117.0
192,166.33982206666667,166.46078940416666,67.0,117.0
193,166.67352506666666,166.96134390416668,69.0,117.0
194,167.00722806666667,167.24638188333333,67.0,117.0
195,167.34093106666666,167.5856466,65.0,102.0
196,167.67463406666667,168.17657899583332,67.0,107.0
197,168.34204006666667,168.54643315416666,67.0,107.0
198,168.67574306666666,168.81339555416668,70.0,127.0
199,169.00944606666667,169.22357215833333,72.0,127.0
200,169.51000056666666,169.60176889166667,72.0,112.0
201,169.67685206666667,169.92295802916667,72.0,122.0
202,170.01055506666665,170.1426458375,69.0,107.0
203,170.34425806666667,170.54447986666668,67.0,117.0
204,170.67796106666665,170.814223125,67.0,112.0
205,170.84481256666666,171.01583535416665,69.0,90.0
206,171.01166406666667,171.30365419166668,67.0,112.0
207,171.34536706666668,171.56644530416668,62.0,100.0
208,171.67907006666667,172.06004765833333,65.0,102.0
209,172.01277306666668,172.37567507916665,67.0,97.0
210,172.34647606666667,173.24608373750002,65.0,100.0
211,173.68128806666667,173.9718877625,70.0,127.0
212,174.01499106666668,174.19852771666666,72.0,117.0
213,174.34869406666667,176.80697283333333,74.0,127.0
214,177.68572406666667,178.01664620833333,70.0,117.0
215,178.01942706666668,178.29195118333334,72.0,99.0
216,178.35313006666667,178.64790105,74.0,102.0
217,178.85368456666666,179.3945615125,74.0,112.0
218,179.35423906666668,179.46269254166666,69.0,117.0
219,179.68794206666666,179.80890940416666,67.0,117.0
220,180.02164506666668,180.30946390416668,69.0,117.0
221,180.35534806666666,180.59450188333332,67.0,117.0
222,180.68905106666668,180.9337666,65.0,102.0
223,181.02275406666666,181.52469899583335,67.0,107.0
224,181.69016006666666,181.89455315416666,67.0,107.0
225,182.02386306666668,182.16151555416667,70.0,127.0
226,182.35756606666666,182.57169215833335,72.0,127.0
227,182.85812056666666,182.94988889166666,72.0,112.0
228,183.02497206666666,183.27107802916666,72.0,122.0
229,183.35867506666668,183.4907658375,69.0,107.0
230,183.69237806666666,183.89259986666667,67.0,117.0
231,184.02608106666668,184.16790484166665,67.0,112.0
232,184.19293256666666,184.3417084875,62.0,93.0
233,184.35978406666666,184.58781445,65.0,107.0
234,184.69348706666668,184.99799105416668,67.0,102.0
235,185.02719006666666,186.98074304583332,70.0,122.0
236,188.36422006666666,188.6715049125,70.0,127.0
237,188.69792306666668,189.03301649583332,72.0,102.0
238,189.03162606666666,189.27912245833335,74.0,102.0
239,189.36532906666667,191.987678475,74.0,102.0
240,192.36865606666666,192.6842834875,67.0,112.0
241,192.70235906666667,193.02076734583335,70.0,107.0
242,193.03606206666666,193.31136704166667,72.0,102.0
243,193.36976506666667,195.024375775,72.0,107.0
244,196.37309206666666,196.6636917625,70.0,127.0
245,196.70679506666667,197.059964075,72.0,112.0
246,197.04049806666666,197.28382317083333,74.0,122.0
247,197.37420106666667,199.47792039583334,74.0,112.0
248,200.37752806666666,200.74460136666667,65.0,102.0
249,200.71123106666667,201.0518862125,67.0,96.0
250,201.04493406666666,204.19425612916666,70.0,117.0
