,start,end,pitch,velocity
0,30.845775435416673,31.047610035416675,81.0,94.0
1,31.212747435416674,31.604184235416675,81.0,96.0
2,31.763205435416673,31.919168535416674,78.0,94.0
3,31.946691435416675,32.20204278541667,76.0,95.0
4,32.31366343541667,32.82589518541668,74.0,95.0
5,33.04760743541667,33.31977833541667,76.0,97.0
6,33.41457943541668,33.665343635416676,78.0,95.0
7,33.781551435416674,33.97879888541667,76.0,97.0
8,34.14852343541668,34.371764735416676,76.0,98.0
9,34.515495435416675,35.33812433541667,74.0,99.0
10,35.98338343541668,36.388581685416675,71.0,90.0
11,36.350355435416674,36.533841435416676,74.0,95.0
12,36.533841435416676,36.66381068541668,69.0,88.0
13,36.71732743541668,37.972677485416675,71.0,89.0
14,38.919159435416674,39.45891408541667,71.0,95.0
15,39.653103435416675,41.575119285416676,69.0,95.0
16,42.58887943541667,42.816707885416676,81.0,90.0
17,42.955851435416676,43.195912285416675,81.0,95.0
18,43.32282343541668,43.59958148541668,78.0,95.0
19,43.68979543541668,43.966553485416675,76.0,98.0
20,44.056767435416674,44.62863213541668,74.0,101.0
21,44.790711435416675,45.058295185416675,76.0,94.0
22,45.15768343541668,45.48337108541668,78.0,95.0
23,45.524655435416676,45.749425785416676,76.0,94.0
24,45.89162743541668,46.17297263541668,76.0,100.0
25,46.25859943541668,47.04911828541668,74.0,101.0
26,47.72648743541667,48.08581418541668,71.0,95.0
27,48.093459435416676,48.27694543541668,74.0,95.0
28,48.27694543541668,48.43902473541668,69.0,86.0
29,48.46043143541668,49.42832008541668,71.0,94.0
30,50.662263435416676,50.865627085416676,76.0,96.0
31,51.02923543541668,51.70813363541668,78.0,98.0
32,51.763179435416674,52.05981513541668,76.0,95.0
33,52.13015143541668,52.738713335416676,79.0,95.0
34,52.86409543541668,53.70660198541668,78.0,96.0
35,53.59803943541668,53.96501143541668,76.0,98.0
36,53.96501143541668,54.331983435416674,74.0,95.0
37,54.331983435416674,54.94513248541668,74.0,98.0
38,55.06592743541668,55.305988285416674,74.0,97.0
39,55.43289943541668,55.70812843541668,76.0,96.0
40,55.79987143541668,56.27081883541668,74.0,101.0
41,56.53381543541668,56.74788243541668,86.0,95.0
42,56.900787435416674,57.17754548541668,85.0,98.0
43,57.26775943541668,57.48182643541668,83.0,94.0
44,57.63473143541668,57.93136713541668,83.0,95.0
45,58.00170343541668,58.79833848541668,81.0,97.0
46,58.73564743541668,58.987940685416675,76.0,89.0
47,59.102619435416685,59.38549368541668,76.0,94.0
48,59.469591435416675,59.84879583541668,74.0,101.0
49,60.20353543541668,60.376318085416685,74.0,96.0
50,60.57050743541668,60.79069063541668,74.0,97.0
51,60.93747943541668,61.18212743541668,74.0,96.0
52,61.30445143541668,61.68824298541668,76.0,98.0
53,61.671423435416685,62.11790603541668,74.0,105.0
54,62.40536743541668,62.67906738541668,76.0,96.0
55,62.77233943541668,64.31362183541668,78.0,93.0
56,66.07508743541669,66.33502593541668,74.0,96.0
57,66.44205943541668,66.70811413541668,74.0,99.0
58,66.80903143541667,67.05062133541668,74.0,100.0
59,67.17600343541667,67.44664528541668,76.0,97.0
60,67.54297543541668,68.07202673541669,74.0,110.0
61,68.27691943541669,68.50627693541668,86.0,95.0
62,68.64389143541669,68.90994613541667,85.0,96.0
63,69.01086343541668,69.23716283541668,83.0,94.0
64,69.37783543541669,69.65306443541668,83.0,100.0
65,69.74480743541667,70.68517318541669,81.0,98.0
66,71.21269543541669,71.41147193541669,86.0,96.0
67,71.57966743541668,72.09189918541668,86.0,96.0
68,72.31361143541668,72.85948228541668,83.0,95.0
69,73.04755543541668,73.45886988541668,78.0,95.0
70,73.41452743541669,74.14847143541668,74.0,103.0
71,74.14847143541668,75.75244488541668,76.0,101.0
72,76.71727543541668,77.32736638541668,78.0,92.0
73,77.45121943541668,79.50661994791668,76.0,95.0
74,80.44037245208335,80.76037245208335,81.0,87.0
75,80.84037245208336,81.49370578541668,78.0,95.0
76,81.63803296875003,81.90867481875001,76.0,98.0
77,82.00500496875001,82.92702211875002,74.0,101.0
78,83.10592096875001,83.35056896875003,69.0,95.0
79,83.47289296875002,83.74200576875002,81.0,96.0
80,83.83986496875002,84.21142411875002,78.0,96.0
81,84.20683696875003,85.30775296875002,76.0,100.0
82,85.30775296875002,86.04169696875002,74.0,99.0
83,86.04169696875002,86.29246116875002,74.0,101.0
84,86.40866896875002,86.62885216875002,86.0,96.0
85,86.77564096875003,87.00652751875002,85.0,95.0
86,87.14261296875002,88.03710721875002,85.0,100.0
87,88.24352896875001,88.81233556875002,83.0,95.0
88,88.97747296875002,89.23894051875001,81.0,94.0
89,89.34444496875003,89.60285441875001,83.0,98.0
90,89.71141696875002,89.87502531875002,81.0,97.0
91,90.07838896875002,90.31233361875002,78.0,95.0
92,90.44536096875002,91.17930496875002,81.0,100.0
93,91.91324896875003,92.17930366875002,74.0,101.0
94,92.28022096875002,92.50652036875002,86.0,95.0
95,92.64719296875002,92.89795716875003,85.0,95.0
96,93.01416496875002,93.97746646875002,85.0,103.0
97,94.11508096875002,94.45453006875002,83.0,95.0
98,94.84902496875003,95.04321431875002,81.0,89.0
99,95.21599696875002,95.48358071875002,81.0,96.0
100,95.58296896875002,95.84443651875003,86.0,97.0
101,95.94994096875003,96.68388496875002,78.0,95.0
102,96.68388496875002,97.29397591875002,76.0,96.0
103,97.41782896875003,97.96217076875003,74.0,100.0
104,98.51874496875003,98.78021251875002,78.0,93.0
105,98.88571696875002,99.11507446875002,79.0,94.0
106,99.25268896875002,99.48969171875002,78.0,97.0
107,99.61966096875003,99.89183186875002,74.0,100.0
108,99.98663296875003,100.23128096875003,71.0,96.0
109,100.35360496875002,101.19611151875003,74.0,98.0
110,101.45452096875002,102.16094206875002,71.0,96.0
111,102.18846496875003,103.40711781875002,69.0,97.0
112,103.65635296875003,103.95298866875002,69.0,96.0
113,104.02332496875002,104.27256011875002,81.0,94.0
114,104.39029696875002,104.65788071875002,78.0,97.0
115,104.75726896875003,105.49121296875002,76.0,103.0
116,105.49121296875002,106.38570721875003,74.0,95.0
117,106.59212896875002,106.75879541875003,69.0,100.0
118,106.95910096875002,107.11200596875003,81.0,93.0
119,107.32607296875003,107.56460476875003,78.0,87.0
120,107.69304496875003,108.38111746875002,76.0,105.0
121,108.79396096875003,109.24350166875003,74.0,108.0
122,109.52790496875002,109.80466301875002,74.0,101.0
123,109.89487696875003,110.19762886875003,86.0,83.0
124,110.26184896875003,110.48661931875003,85.0,96.0
125,110.62882096875002,111.48814706875002,85.0,98.0
126,111.72973696875002,112.19151006875003,83.0,96.0
127,112.46368096875003,112.71444516875002,81.0,94.0
128,112.83065296875003,113.04013281875002,83.0,95.0
129,113.19762496875003,113.42392436875002,81.0,95.0
130,113.56459696875002,113.89640081875002,78.0,95.0
131,113.93156896875003,114.97743916875002,81.0,95.0
132,115.39945696875003,115.67009881875003,74.0,100.0
133,115.76642896875003,115.96979261875003,86.0,100.0
134,116.13340096875002,116.35664226875002,85.0,96.0
135,116.50037296875003,117.41168676875003,85.0,108.0
136,117.60128896875003,118.13645646875003,83.0,95.0
137,118.33523296875003,118.56611951875003,81.0,97.0
138,118.70220496875002,118.95602726875003,81.0,94.0
139,119.06917696875003,119.28324396875003,86.0,96.0
140,119.43614896875002,119.97896171875003,78.0,94.0
141,120.17009296875003,120.72360906875002,76.0,101.0
142,120.90403696875003,121.72513681875003,74.0,99.0
143,122.37192496875002,122.66091541875002,79.0,89.0
144,122.73889696875003,123.01565501875002,78.0,99.0
145,123.10586896875003,123.38415606875003,74.0,103.0
146,123.47284096875003,123.73277946875004,71.0,99.0
147,123.83981296875004,124.98048426875002,74.0,98.0
148,125.30770096875003,125.57375566875004,79.0,94.0
149,125.67467296875003,125.97742486875003,78.0,96.0
150,126.04164496875003,126.31993206875003,74.0,99.0
151,126.40861696875004,126.67620071875004,71.0,98.0
152,126.77558896875003,127.9033137166667,74.0,99.0
153,128.2954702166667,129.0797832166667,76.0,96.0
154,129.0797832166667,131.35985174375003,74.0,100.0
155,152.95615394375002,153.56930299375003,74.0,98.0
156,153.69009794375003,153.93015879375002,74.0,97.0
157,154.05706994375004,154.33229894375003,76.0,96.0
158,154.42404194375004,154.89498934375004,74.0,101.0
159,155.15798594375002,155.37205294375002,86.0,95.0
160,155.52495794375002,155.80171599375004,85.0,98.0
161,155.89192994375003,156.10599694375003,83.0,94.0
162,156.25890194375003,156.55553764375003,83.0,95.0
163,156.62587394375004,157.42250899375003,81.0,97.0
164,157.35981794375004,157.61211119375002,76.0,89.0
165,157.72678994375002,158.00966419375004,76.0,94.0
166,158.09376194375002,158.47296634375004,74.0,101.0
167,158.82770594375003,159.00048859375002,74.0,96.0
168,159.19467794375004,159.41486114375004,74.0,97.0
169,159.56164994375004,159.80629794375002,74.0,96.0
170,159.92862194375004,160.31241349375003,76.0,98.0
171,160.29559394375002,160.74207654375004,74.0,105.0
172,161.02953794375003,161.30323789375004,76.0,96.0
173,161.39650994375003,162.93779234375003,78.0,93.0
174,164.69925794375004,164.95919644375005,74.0,96.0
175,165.06622994375005,165.33228464375003,74.0,99.0
176,165.43320194375002,165.67479184375003,74.0,100.0
177,165.80017394375002,166.07081579375003,76.0,97.0
178,166.16714594375003,166.69619724375002,74.0,110.0
179,166.90108994375004,167.13044744375003,86.0,95.0
180,167.26806194375004,167.53411664375002,85.0,96.0
181,167.63503394375005,167.86133334375003,83.0,94.0
182,168.00200594375002,168.27723494375005,83.0,100.0
183,168.36897794375002,169.30934369375004,81.0,98.0
184,169.83686594375004,170.03564244375002,86.0,96.0
185,170.20383794375005,170.71606969375003,86.0,96.0
186,170.93778194375002,171.48365279375003,83.0,95.0
187,171.67172594375003,172.08304039375003,78.0,95.0
188,172.03869794375004,172.77264194375005,74.0,103.0
189,172.77264194375005,174.37661539375003,76.0,101.0
190,175.34144594375005,175.95153689375002,78.0,92.0
191,176.07538994375003,178.12890409375004,76.0,95.0
192,179.01116594375003,179.30474354375002,81.0,87.0
193,179.37813794375003,179.97752554375003,78.0,95.0
194,180.11208194375004,180.38272379375002,76.0,98.0
195,180.47905394375005,181.40107109375003,74.0,101.0
196,181.57996994375003,181.82461794375004,69.0,95.0
197,181.94694194375003,182.21605474375002,81.0,96.0
198,182.31391394375004,182.68547309375003,78.0,96.0
199,182.68088594375004,183.78180194375003,76.0,100.0
200,183.78180194375003,184.51574594375003,74.0,99.0
201,184.51574594375003,184.76651014375003,74.0,101.0
202,184.88271794375004,185.10290114375005,86.0,96.0
203,185.24968994375004,185.48057649375005,85.0,95.0
204,185.61666194375005,186.51115619375003,85.0,100.0
205,186.71757794375003,187.28638454375005,83.0,95.0
206,187.45152194375004,187.71298949375003,81.0,94.0
207,187.81849394375004,188.07690339375003,83.0,98.0
208,188.18546594375005,188.34907429375005,81.0,97.0
209,188.55243794375002,188.78638259375003,78.0,95.0
210,188.91940994375005,189.65335394375003,81.0,100.0
211,190.38729794375004,190.65335264375005,74.0,101.0
212,190.75426994375005,190.98056934375003,86.0,95.0
213,191.12124194375002,191.37200614375004,85.0,95.0
214,191.48821394375005,192.45151544375005,85.0,103.0
215,192.58912994375004,192.92857904375003,83.0,95.0
216,193.32307394375005,193.51726329375003,81.0,89.0
217,193.69004594375002,193.95762969375005,81.0,96.0
218,194.05701794375005,194.31848549375002,86.0,97.0
219,194.42398994375003,195.15793394375004,78.0,95.0
220,195.15793394375004,195.76802489375004,76.0,96.0
221,195.89187794375005,196.43621974375003,74.0,100.0
222,196.99279394375003,197.25426149375005,78.0,93.0
223,197.35976594375003,197.58912344375005,79.0,94.0
224,197.72673794375004,197.96374069375003,78.0,97.0
225,198.09370994375004,198.36588084375003,74.0,100.0
226,198.46068194375005,198.70532994375003,71.0,96.0
227,198.82765394375002,199.67016049375002,74.0,98.0
228,199.92856994375003,200.63499104375003,71.0,96.0
229,200.66251394375004,201.88116679375003,69.0,97.0
230,202.13040194375003,202.42703764375005,69.0,96.0
231,202.49737394375003,202.74660909375004,81.0,94.0
232,202.86434594375004,203.13192969375004,78.0,97.0
233,203.23131794375004,203.96526194375002,76.0,103.0
234,203.96526194375002,204.85975619375006,74.0,95.0
235,205.06617794375003,205.23284439375004,69.0,100.0
236,205.43314994375004,205.58605494375004,81.0,93.0
237,205.80012194375004,206.03865374375005,78.0,87.0
238,206.16709394375005,206.85516644375002,76.0,105.0
239,207.26800994375003,207.71755064375003,74.0,108.0
240,208.00195394375004,208.27871199375005,74.0,101.0
241,208.36892594375004,208.67167784375005,86.0,83.0
242,208.73589794375005,208.96066829375005,85.0,96.0
243,209.10286994375002,209.96219604375005,85.0,98.0
244,210.20378594375003,210.66555904375002,83.0,96.0
245,210.93772994375004,211.18849414375003,81.0,94.0
246,211.30470194375005,211.51418179375003,83.0,95.0
247,211.67167394375002,211.89797334375004,81.0,95.0
248,212.03864594375005,212.37044979375003,78.0,95.0
249,212.40561794375003,213.45148814375005,81.0,95.0
250,213.87350594375005,214.14414779375005,74.0,100.0
251,214.24047794375002,214.44384159375005,86.0,100.0
252,214.60744994375005,214.83069124375004,85.0,96.0
253,214.97442194375003,215.88573574375005,85.0,108.0
254,216.07533794375004,216.61050544375004,83.0,95.0
255,216.80928194375002,217.04016849375006,81.0,97.0
256,217.17625394375005,217.43007624375002,81.0,94.0
257,217.54322594375003,217.75729294375003,86.0,96.0
258,217.91019794375006,218.45301069375006,78.0,94.0
259,218.64414194375004,219.19765804375004,76.0,101.0
260,219.37808594375002,220.19918579375005,74.0,99.0
261,220.85186381041672,221.14353018541672,79.0,89.0
262,221.22223381041672,221.50155451875005,78.0,99.0
263,221.5926038104167,221.87346772708338,74.0,103.0
264,221.9629738104167,222.2253192270834,71.0,99.0
265,222.33334381041672,223.48457722708338,74.0,98.0
266,223.81482381041673,224.08334206041673,79.0,94.0
267,224.1851938104167,224.4907490604167,78.0,96.0
268,224.55556381041671,224.8364277270834,74.0,99.0
269,224.92593381041672,225.19599526875004,71.0,98.0
270,225.2963038104167,226.40741381041673,74.0,99.0
271,226.7777838104167,227.51852381041672,76.0,96.0
272,227.51852381041672,229.7728485520834,74.0,100.0
273,236.6920434145834,236.9344210270834,78.0,92.0
274,237.04417692708338,237.2987496395834,79.0,95.0
275,237.37649340208338,237.64463523541673,78.0,96.0
276,237.7542030270834,237.98259786041675,74.0,100.0
277,238.11840019375006,238.4162394020834,71.0,89.0
278,238.52426398541672,239.8467935270834,74.0,96.0
279,239.9625341520834,240.2079042770834,79.0,95.0
280,240.33907698541674,240.63074336041674,78.0,95.0
281,240.77117531875007,241.03352073541674,74.0,101.0
282,241.14463173541674,241.41777961041674,71.0,94.0
283,241.51500173541675,242.92240773541673,74.0,98.0
284,243.32672831875007,244.0088264020834,76.0,94.0
285,243.99339431875006,246.19555261041674,74.0,95.0
