,start,end,pitch,velocity
0,1.4801802625000002,1.9527403875000002,57.0,94.0
1,1.8460332625000002,2.2271301375000006,62.0,91.0
2,2.2118862625,2.5640197750000007,66.0,96.0
3,2.5777392625000006,2.9893238875000003,69.0,97.0
4,2.9435922625000006,3.3902378000000004,74.0,99.0
5,3.3094452625000006,4.0167610625000005,78.0,89.0
6,1.1143272625000002,4.064017075000001,50.0,98.0
7,4.407004262500001,4.716454925000001,52.0,93.0
8,4.7728572625000005,4.917674075000001,56.0,94.0
9,5.138710262500001,5.556392437500001,59.0,92.0
10,5.504563262500001,5.996940425000001,64.0,94.0
11,5.870416262500001,6.291147212500001,68.0,101.0
12,6.236269262500001,7.051816575000001,71.0,96.0
13,4.041151262500001,7.0640116750000015,40.0,97.0
14,7.699681262500001,8.085351300000001,50.0,95.0
15,8.065534262500002,8.181387712500001,57.0,95.0
16,8.431387262500001,9.234739475000001,62.0,94.0
17,8.7972402625,9.243885800000001,66.0,94.0
18,9.163093262500002,9.977116187500002,69.0,94.0
19,9.528946262500002,10.041140462500001,74.0,91.0
20,7.333828262500001,10.160042687500003,45.0,88.0
21,6.967975262500001,10.227115737500002,38.0,96.0
22,10.626505262500002,10.850590225000001,52.0,97.0
23,10.992358262500002,11.106687325000001,56.0,97.0
24,11.358211262500001,11.817051900000003,59.0,94.0
25,12.455770262500002,12.713391750000001,59.0,41.0
26,12.089917262500002,12.893269475000002,68.0,101.0
27,11.724064262500002,12.897842637500002,64.0,95.0
28,12.455770262500002,12.955769362500002,71.0,94.0
29,10.260652262500003,13.182903100000003,47.0,83.0
30,9.894799262500001,13.213390850000001,40.0,97.0
31,13.553329262500002,14.251498737500002,53.0,95.0
32,13.919182262500003,14.800278237500002,57.0,94.0
33,14.285035262500003,14.838387925000003,60.0,92.0
34,14.650888262500002,14.885643937500003,65.0,92.0
35,13.187476262500002,15.609728000000002,48.0,88.0
36,12.821623262500003,15.632593812500003,41.0,97.0
37,15.016741262500002,15.839910512500003,69.0,96.0
38,16.480153262500004,17.280456700000002,55.0,94.0
39,16.8460062625,17.365822400000003,62.0,88.0
40,17.211859262500003,17.646309700000003,67.0,88.0
41,17.577712262500004,17.769785087500004,62.0,89.0
42,16.114300262500002,18.554844650000003,50.0,89.0
43,15.748447262500003,18.565515362500005,43.0,96.0
44,17.9435652625,18.643259125000004,71.0,93.0
45,19.406977262500003,20.661548175000004,57.0,97.0
46,19.772830262500005,20.722523675000005,61.0,94.0
47,20.138683262500003,20.743865100000004,64.0,94.0
48,20.870389262500005,21.592948937500005,64.0,94.0
49,19.041124262500002,21.602095262500004,52.0,93.0
50,21.236242262500003,21.652400050000004,57.0,89.0
51,20.504536262500004,21.687460962500005,69.0,91.0
52,18.675271262500004,21.882582562500005,45.0,97.0
53,22.333801262500003,23.208799687500004,55.0,98.0
54,22.699654262500005,23.498433312500005,62.0,90.0
55,23.065507262500002,23.713371950000003,67.0,92.0
56,23.431360262500004,24.036542100000005,55.0,88.0
57,21.602095262500004,24.280444100000004,43.0,99.0
58,21.967948262500006,24.291114812500005,50.0,87.0
59,24.163066262500003,24.544163137500004,55.0,84.0
60,23.797213262500005,24.586845987500006,62.0,94.0
61,23.797213262500005,25.285015462500006,67.0,90.0
62,25.260625262500003,26.027392175000003,57.0,94.0
63,25.626478262500004,26.092940837500006,61.0,80.0
64,24.528919262500004,27.272816762500003,45.0,95.0
65,26.358184262500004,27.489279787500006,61.0,71.0
66,27.455743262500004,27.489279787500006,61.0,86.0
67,27.089890262500006,27.501474887500006,57.0,84.0
68,27.455743262500004,27.501474887500006,57.0,82.0
69,25.992331262500006,27.515194375000004,64.0,91.0
70,27.455743262500004,27.515194375000004,64.0,89.0
71,26.724037262500005,27.522816312500005,69.0,87.0
72,24.894772262500005,27.626474662500005,52.0,89.0
73,27.821596262500005,29.792058643750003,52.0,84.0
74,27.455743262500004,29.843505510416673,45.0,96.0
75,28.187449262500007,30.40620561458334,57.0,77.0
76,28.925030362500006,30.41263647291667,69.0,83.0
77,28.925030362500006,30.49462991666667,61.0,81.0
78,31.212747435416674,32.30296008541667,50.0,84.0
79,31.579719435416674,32.327424885416676,54.0,91.0
80,30.845775435416673,32.781552735416675,45.0,80.0
81,30.46086791041667,32.835069485416675,38.0,100.0
82,32.680635435416676,33.21886103541667,54.0,81.0
83,32.31366343541667,33.263203485416675,57.0,76.0
84,31.946691435416675,33.669930785416675,62.0,95.0
85,34.14852343541668,34.669929485416674,59.0,94.0
86,34.515495435416675,34.922222735416675,61.0,95.0
87,33.781551435416674,35.07054058541667,54.0,80.0
88,34.88246743541667,35.75402593541668,62.0,97.0
89,35.249439435416676,35.81824603541668,54.0,79.0
90,35.61641143541667,35.93598288541668,59.0,86.0
91,33.41457943541668,35.945157185416676,47.0,94.0
92,37.084299435416675,37.882463535416676,55.0,88.0
93,37.45127143541667,37.897754035416675,59.0,79.0
94,36.71732743541668,38.92374658541667,50.0,80.0
95,36.350355435416674,39.03383818541668,43.0,95.0
96,38.18521543541667,39.321299585416675,55.0,83.0
97,38.55218743541668,39.33964818541668,59.0,75.0
98,37.818243435416676,39.364112985416675,62.0,91.0
99,38.55218743541668,40.139341335416674,67.0,83.0
100,40.387047435416676,40.631695435416674,62.0,81.0
101,40.02007543541667,40.787658535416675,57.0,83.0
102,40.75401943541668,41.26013498541668,64.0,94.0
103,39.653103435416675,41.60417123541667,52.0,83.0
104,41.487963435416674,41.93597508541667,57.0,94.0
105,41.487963435416674,42.01701473541668,61.0,92.0
106,39.28613143541668,42.07511863541667,45.0,90.0
107,41.85493543541668,42.136280635416675,52.0,91.0
108,42.955851435416676,43.35799158541668,62.0,89.0
109,42.58887943541667,43.36563683541668,57.0,88.0
110,43.32282343541668,43.500193235416674,64.0,93.0
111,43.68979543541668,44.293770185416676,66.0,92.0
112,44.056767435416674,44.33811263541668,57.0,81.0
113,42.221907435416675,44.694381285416675,50.0,93.0
114,44.42373943541668,45.18520633541668,57.0,91.0
115,44.42373943541668,45.65003753541668,62.0,94.0
116,45.89162743541668,46.33352288541668,59.0,90.0
117,46.25859943541668,46.552177035416676,61.0,89.0
118,45.524655435416676,46.79988313541668,54.0,78.0
119,46.625571435416674,47.46807798541668,62.0,94.0
120,46.99254343541668,47.67144163541668,54.0,83.0
121,45.15768343541668,47.81823043541668,47.0,96.0
122,47.35951543541668,48.88856543541668,59.0,94.0
123,48.82740343541668,49.260124585416676,55.0,90.0
124,49.194375435416674,49.59498653541668,57.0,87.0
125,48.46043143541668,49.72648483541668,50.0,85.0
126,49.56134743541668,50.16685123541668,59.0,93.0
127,49.92831943541668,50.43137688541668,50.0,75.0
128,48.093459435416676,50.49865508541668,43.0,95.0
129,50.29529143541668,50.70966398541668,59.0,93.0
130,50.29529143541668,50.747890235416676,55.0,91.0
131,50.29529143541668,50.84727848541668,62.0,95.0
132,51.02923543541668,51.47113088541668,54.0,86.0
133,51.02923543541668,51.828928585416676,59.0,88.0
134,52.13015143541668,52.26012068541668,59.0,82.0
135,51.763179435416674,52.278469285416676,54.0,93.0
136,51.39620743541668,52.694370885416674,49.0,76.0
137,52.49712343541668,52.86256638541668,58.0,86.0
138,51.02923543541668,53.29070038541668,42.0,95.0
139,52.86409543541668,53.295287535416676,49.0,82.0
140,53.231067435416676,53.40843723541668,54.0,96.0
141,53.231067435416676,53.45277968541668,58.0,95.0
142,53.96501143541668,54.52923088541668,59.0,86.0
143,53.96501143541668,54.83656993541668,62.0,90.0
144,54.331983435416674,54.91608053541668,54.0,79.0
145,54.69895543541668,55.50017763541668,59.0,87.0
146,55.06592743541668,55.509351935416674,62.0,87.0
147,55.79987143541668,56.22953448541668,54.0,65.0
148,53.96501143541668,56.31821938541668,47.0,96.0
149,55.43289943541668,56.31974843541668,66.0,95.0
150,56.16684343541668,56.365619935416674,59.0,93.0
151,57.63473143541668,57.74176493541668,54.0,89.0
152,58.00170343541668,58.43595363541668,57.0,89.0
153,58.36867543541668,58.741763635416675,61.0,94.0
154,56.900787435416674,59.070509385416685,42.0,101.0
155,57.26775943541668,59.11943898541668,49.0,83.0
156,59.102619435416685,59.78304668541668,61.0,85.0
157,59.102619435416685,59.897725435416675,66.0,83.0
158,59.469591435416675,59.90384163541668,57.0,86.0
159,60.93747943541668,61.36867153541668,55.0,88.0
160,60.57050743541668,62.09038313541668,52.0,90.0
161,61.671423435416685,62.17295183541668,55.0,82.0
162,61.30445143541668,62.18977138541668,59.0,88.0
163,59.83656343541668,62.26928198541668,40.0,89.0
164,60.20353543541668,62.27234008541668,47.0,91.0
165,62.40536743541668,62.54145288541668,55.0,42.0
166,62.40536743541668,62.56897578541668,59.0,41.0
167,62.03839543541668,62.62860873541668,64.0,94.0
168,62.40536743541668,62.70047408541668,52.0,86.0
169,62.77233943541668,63.25399018541668,54.0,92.0
170,62.77233943541668,63.57356163541668,59.0,86.0
171,63.506283435416684,63.97875988541668,54.0,97.0
172,63.87325543541668,64.05521238541668,59.0,79.0
173,63.13931143541668,64.52157263541667,49.0,83.0
174,64.24022743541667,64.84114408541669,58.0,94.0
175,64.24022743541667,64.84726028541668,54.0,84.0
176,62.77233943541668,65.15612838541668,42.0,98.0
177,64.60719943541667,65.16988983541668,49.0,74.0
178,64.97417143541668,65.21729038541667,54.0,96.0
179,64.97417143541668,65.28609763541668,61.0,96.0
180,65.70811543541669,66.24939913541668,59.0,90.0
181,65.70811543541669,66.51545383541668,62.0,93.0
182,66.44205943541668,67.18670678541667,59.0,94.0
183,66.80903143541667,67.26774643541668,62.0,92.0
184,66.07508743541669,67.37019278541669,54.0,82.0
185,67.17600343541667,67.98639993541669,66.0,99.0
186,67.54297543541668,67.99710328541669,54.0,71.0
187,65.70811543541669,68.06591053541669,47.0,96.0
188,67.90994743541668,68.12401443541668,62.0,95.0
189,67.90994743541668,68.18670548541668,59.0,94.0
190,68.64389143541669,69.02462488541669,57.0,85.0
191,68.64389143541669,69.47722368541667,61.0,94.0
192,69.37783543541669,70.18058668541669,57.0,87.0
193,69.74480743541667,70.18823193541668,61.0,94.0
194,70.47875143541668,70.96193123541669,57.0,86.0
195,69.01086343541668,70.97110553541668,49.0,75.0
196,68.64389143541669,70.99251223541668,42.0,96.0
197,70.11177943541668,71.07202283541667,66.0,96.0
198,70.84572343541669,71.16835298541667,61.0,92.0
199,71.21269543541669,71.27079933541668,57.0,68.0
200,71.57966743541668,72.17446788541668,55.0,87.0
201,71.57966743541668,72.35642483541668,59.0,89.0
202,72.31361143541668,73.06131688541669,62.0,90.0
203,72.68058343541668,73.14541463541669,59.0,82.0
204,71.94663943541669,74.33042838541668,50.0,85.0
205,71.57966743541668,74.35795128541668,43.0,95.0
206,73.78149943541669,74.42675853541668,55.0,90.0
207,74.14847143541668,74.59189593541669,59.0,91.0
208,73.41452743541669,74.61636073541669,62.0,89.0
209,73.04755543541668,74.69128418541669,67.0,93.0
210,75.61635943541668,75.85642028541668,58.0,90.0
211,75.24938743541668,76.78761173541668,55.0,94.0
212,76.35030343541669,77.36559263541668,58.0,54.0
213,75.98333143541669,77.39770268541668,62.0,92.0
214,77.08424743541669,77.45580658541668,55.0,83.0
215,76.71727543541668,77.49250378541669,67.0,90.0
216,74.88241543541668,77.50932333541668,50.0,85.0
217,74.51544343541669,77.52308478541669,43.0,96.0
218,78.55213543541669,79.02002473541668,61.0,98.0
219,78.18516343541668,79.42095022916668,57.0,89.0
220,79.28607943541668,79.78312940416669,61.0,82.0
221,79.65771017916668,80.02537245208335,67.0,81.0
222,78.91910743541669,80.09870578541668,64.0,94.0
223,80.04037245208335,81.21870578541669,57.0,73.0
224,77.81819143541668,81.23203911875002,52.0,88.0
225,80.44037245208335,81.25203911875002,61.0,78.0
226,80.44037245208335,81.26203911875002,64.0,86.0
227,77.45121943541668,81.26537245208335,45.0,98.0
228,80.44037245208335,81.28037245208336,69.0,84.0
229,82.00500496875001,82.39797081875003,62.0,90.0
230,82.37197696875002,82.68543221875002,64.0,99.0
231,81.63803296875003,83.02335226875002,45.0,82.0
232,82.73894896875002,83.36127231875003,62.0,94.0
233,82.73894896875002,83.62732701875002,66.0,97.0
234,81.24037245208335,83.69613426875001,38.0,90.0
235,83.47289296875002,83.78634821875002,62.0,92.0
236,83.10592096875001,83.78940631875003,45.0,71.0
237,84.94078096875002,85.30010771875001,59.0,95.0
238,85.30775296875002,85.63191156875001,61.0,96.0
239,84.57380896875001,85.72059646875002,54.0,84.0
240,86.04169696875002,86.34444886875002,54.0,61.0
241,85.67472496875001,86.46065666875002,62.0,90.0
242,84.20683696875003,86.49888291875001,47.0,95.0
243,86.40866896875002,86.56157396875003,66.0,96.0
244,87.14261296875002,87.58603746875002,55.0,89.0
245,87.14261296875002,87.92548656875002,59.0,90.0
246,87.87655696875002,88.08144966875003,55.0,96.0
247,87.50958496875002,88.16860551875001,50.0,83.0
248,87.14261296875002,88.26952281875002,43.0,94.0
249,88.24352896875001,88.63190766875002,54.0,88.0
250,88.97747296875002,89.52640191875003,47.0,86.0
251,88.61050096875002,89.57533151875002,40.0,96.0
252,88.61050096875002,90.04780796875002,52.0,97.0
253,89.34444496875003,90.06156941875003,55.0,90.0
254,90.81233296875001,90.94230221875002,54.0,87.0
255,91.17930496875002,91.64872331875002,57.0,88.0
256,91.54627696875002,91.99887576875003,61.0,99.0
257,91.91324896875003,92.36584776875002,57.0,87.0
258,90.07838896875002,92.42548071875002,42.0,97.0
259,90.44536096875002,92.45300361875002,49.0,78.0
260,92.28022096875002,93.28021966875002,66.0,95.0
261,93.74810896875002,94.51875016875002,55.0,93.0
262,94.11508096875002,94.56003451875003,59.0,94.0
263,94.84902496875003,95.28633326875003,55.0,89.0
264,93.38113696875003,95.49428406875002,50.0,84.0
265,93.01416496875002,95.51874886875002,43.0,95.0
266,94.48205296875003,95.63495666875002,62.0,92.0
267,95.58296896875002,95.82302981875003,55.0,90.0
268,95.21599696875002,96.09520071875002,67.0,90.0
269,95.94994096875003,96.43159171875003,50.0,98.0
270,96.31691296875002,96.49886991875002,62.0,94.0
271,96.68388496875002,97.04168266875003,61.0,85.0
272,96.68388496875002,97.13954186875003,49.0,92.0
273,96.68388496875002,97.30620831875002,64.0,90.0
274,97.41782896875003,97.91782831875003,59.0,87.0
275,97.41782896875003,98.24045786875003,62.0,89.0
276,97.78480096875002,98.30314891875003,54.0,81.0
277,97.41782896875003,98.47593156875003,47.0,90.0
278,98.51874496875003,98.98357616875002,62.0,88.0
279,98.15177296875002,99.00804096875002,59.0,92.0
280,99.98663296875003,100.41935411875002,55.0,88.0
281,99.61966096875003,101.12730426875002,52.0,97.0
282,99.25268896875002,101.15482716875002,47.0,83.0
283,98.88571696875002,101.17776291875002,40.0,100.0
284,100.72057696875002,101.69611086875003,55.0,77.0
285,100.35360496875002,101.70222706875002,59.0,92.0
286,101.08754896875003,102.48357161875002,64.0,95.0
287,102.55543696875003,102.97439666875002,57.0,95.0
288,102.92240896875002,103.21751561875003,59.0,95.0
289,102.18846496875003,103.46675076875002,52.0,91.0
290,103.28938096875002,103.52179656875002,57.0,92.0
291,103.28938096875002,103.68387586875002,61.0,105.0
292,103.65635296875003,104.23280481875003,52.0,92.0
293,101.82149296875002,104.59518966875002,45.0,96.0
294,104.02332496875002,104.65635166875002,61.0,96.0
295,104.02332496875002,104.72210081875002,64.0,99.0
296,104.02332496875002,104.75726896875003,57.0,94.0
297,105.12424096875003,105.58142691875003,57.0,93.0
298,105.49121296875002,105.91170171875002,62.0,91.0
299,105.85818496875002,106.03096761875003,64.0,95.0
300,106.22515696875003,106.58295466875002,66.0,97.0
301,106.59212896875002,107.01261771875002,57.0,93.0
302,106.95910096875002,107.31689866875003,62.0,89.0
303,104.75726896875003,107.32301486875002,50.0,97.0
304,107.32607296875003,107.72974216875002,61.0,95.0
305,107.69304496875003,108.30925211875002,59.0,89.0
306,108.06001696875002,108.58906826875003,54.0,83.0
307,108.42698896875002,109.01873131875003,61.0,95.0
308,108.79396096875003,109.22974021875002,54.0,82.0
309,109.16093296875002,109.42698766875003,62.0,94.0
310,109.16093296875002,109.91322556875002,59.0,92.0
311,109.52790496875002,109.93616131875002,54.0,79.0
312,107.69304496875003,110.07836296875003,47.0,96.0
313,109.89487696875003,110.62576286875003,66.0,98.0
314,110.26184896875003,110.69151201875002,59.0,97.0
315,110.62882096875002,111.10435551875003,55.0,86.0
316,110.62882096875002,111.16398846875003,62.0,90.0
317,111.36276496875003,111.81536376875002,59.0,94.0
318,111.72973696875002,111.94992016875003,62.0,89.0
319,112.09670896875002,112.49273291875002,67.0,90.0
320,112.09670896875002,112.56154016875003,55.0,95.0
321,112.83065296875003,113.00802276875002,55.0,93.0
322,110.99579296875002,113.09059146875003,50.0,87.0
323,110.62882096875002,113.14105011875003,43.0,95.0
324,112.83065296875003,113.53554501875003,62.0,93.0
325,113.19762496875003,113.60129416875003,55.0,90.0
326,114.29854096875002,114.41321971875003,54.0,99.0
327,114.66551296875002,115.02942686875002,57.0,84.0
328,115.03248496875003,115.47132231875003,61.0,95.0
329,115.39945696875003,115.78936471875002,57.0,82.0
330,113.56459696875002,115.92239206875003,42.0,95.0
331,113.93156896875003,115.95908926875003,49.0,86.0
332,115.76642896875003,116.49884391875003,66.0,94.0
333,116.13340096875002,116.56765116875002,57.0,92.0
334,117.23431696875002,117.94991236875003,55.0,96.0
335,117.60128896875003,118.02789391875002,59.0,93.0
336,117.96826096875003,118.58905526875003,62.0,89.0
337,118.70220496875002,118.77254126875002,62.0,66.0
338,118.33523296875003,118.79853511875002,55.0,84.0
339,116.50037296875003,118.90709766875003,43.0,96.0
340,116.86734496875002,118.92238816875002,50.0,83.0
341,119.06917696875003,119.16397806875003,55.0,94.0
342,118.70220496875002,119.24501771875003,67.0,94.0
343,119.43614896875002,119.78018521875003,66.0,87.0
344,119.43614896875002,119.81994051875003,62.0,90.0
345,119.43614896875002,119.87498631875002,50.0,97.0
346,119.80312096875002,120.10587286875003,57.0,87.0
347,120.17009296875003,120.52483256875003,61.0,83.0
348,120.17009296875003,120.58293646875003,49.0,95.0
349,120.17009296875003,120.81535206875003,64.0,92.0
350,120.90403696875003,121.37039721875003,59.0,88.0
351,120.90403696875003,121.69914296875002,62.0,92.0
352,121.27100896875002,121.86122226875003,54.0,86.0
353,120.90403696875003,121.89027421875002,47.0,95.0
354,121.63798096875003,122.36275066875002,59.0,95.0
355,122.00495296875002,122.41320931875003,62.0,89.0
356,123.10586896875003,123.92238166875003,52.0,93.0
357,123.47284096875003,123.98507271875002,55.0,90.0
358,123.83981296875004,124.43461341875002,59.0,90.0
359,122.73889696875003,124.79852731875002,47.0,89.0
360,122.37192496875002,124.86886361875003,40.0,95.0
361,124.57375696875002,125.25877136875002,55.0,94.0
362,124.94072896875002,125.28629426875003,52.0,92.0
363,124.57375696875002,125.39332776875003,59.0,94.0
364,126.04164496875003,126.46519181875003,55.0,94.0
365,125.30770096875003,126.49271471875002,43.0,99.0
366,125.67467296875003,126.60280631875003,50.0,89.0
367,126.40861696875004,126.88262246875003,59.0,88.0
368,126.77558896875003,127.23215468750003,57.0,87.0
369,126.77558896875003,128.8199795354167,45.0,95.0
370,127.14256096875002,128.87063308333336,52.0,81.0
371,126.77558896875003,128.90984873333338,61.0,94.0
372,127.5193997916667,128.98501206250003,57.0,80.0
373,129.0797832166667,129.63814144375002,62.0,89.0
374,129.0797832166667,129.68401294375002,66.0,83.0
375,129.0797832166667,129.82774364375,69.0,89.0
376,129.83691794375002,130.22988379375002,62.0,91.0
377,130.20388994375003,130.51275804375,64.0,95.0
378,130.57086194375003,131.38890369375002,62.0,89.0
379,129.46994594375002,131.48217574375002,45.0,77.0
380,129.0797832166667,131.48829194375003,38.0,96.0
381,130.57086194375003,131.95312314375002,66.0,92.0
382,132.03874994375002,132.51887164375003,62.0,93.0
383,132.03874994375002,132.56474314375004,59.0,88.0
384,132.77269394375003,133.11061399375004,61.0,96.0
385,133.13966594375003,133.47452789375004,62.0,91.0
386,132.40572194375002,133.65801389375002,54.0,81.0
387,133.50663794375004,133.68859489375004,66.0,100.0
388,133.87360994375,134.28186629375003,54.0,76.0
389,132.03874994375002,134.42865509375002,47.0,96.0
390,134.24058194375002,134.42865509375002,62.0,96.0
391,134.24058194375002,134.47146849375002,59.0,94.0
392,134.97452594375002,135.50510629375003,55.0,90.0
393,134.97452594375002,135.75434144375004,59.0,93.0
394,135.34149794375003,136.26198604375003,50.0,87.0
395,134.97452594375002,136.26963129375002,43.0,92.0
396,135.70846994375003,136.52804074375,62.0,89.0
397,136.07544194375004,136.55556364375002,59.0,81.0
398,136.44241394375,137.04791774375002,67.0,91.0
399,136.80938594375002,137.27880429375003,55.0,79.0
400,137.17635794375002,137.46687744375004,43.0,95.0
401,137.17635794375002,137.48981319375002,59.0,94.0
402,137.17635794375002,137.49592939375003,62.0,92.0
403,137.91030194375003,138.43323704375,54.0,87.0
404,137.91030194375003,138.72987274375004,66.0,94.0
405,138.64424594375004,139.39042234375003,54.0,90.0
406,139.01121794375,139.41794524375,57.0,92.0
407,139.37818994375002,139.89042169375003,61.0,84.0
408,137.91030194375003,140.00510044375002,42.0,105.0
409,138.27727394375003,140.00968759375002,49.0,79.0
410,139.74516194375002,140.22222554375003,54.0,83.0
411,140.11213394375002,140.28491659375004,66.0,95.0
412,140.84607794375003,141.63506774375003,59.0,94.0
413,140.84607794375003,142.43170279375002,55.0,94.0
414,141.58002194375,142.48827764375002,62.0,92.0
415,141.94699394375002,142.77573904375004,59.0,86.0
416,142.68093794375002,143.11213004375003,55.0,91.0
417,141.21304994375004,143.25891884375002,50.0,85.0
418,140.84607794375003,143.26656409375002,43.0,96.0
419,143.04790994375003,143.44546294375002,59.0,95.0
420,143.41488194375003,143.51427019375004,55.0,96.0
421,142.31396594375002,143.56931599375002,67.0,94.0
422,143.78185394375004,144.10754159375003,66.0,86.0
423,143.78185394375004,144.21916224375002,62.0,90.0
424,143.78185394375004,144.22833654375003,50.0,100.0
425,144.51579794375002,144.80937554375004,49.0,95.0
426,144.51579794375002,144.81090459375002,61.0,96.0
427,144.51579794375002,145.04179114375003,64.0,95.0
428,145.24974194375002,145.65646924375002,59.0,90.0
429,145.61671394375003,145.97756974375002,54.0,77.0
430,145.24974194375002,146.00662169375002,62.0,94.0
431,145.24974194375002,146.03108649375002,47.0,96.0
432,145.98368594375003,146.46839479375004,59.0,88.0
433,146.35065794375004,146.49133054375002,62.0,86.0
434,146.71762994375,147.87053364375004,55.0,91.0
435,146.71762994375,147.92710849375004,59.0,96.0
436,147.45157394375002,147.93322469375002,62.0,89.0
437,147.08460194375002,148.95157199375004,50.0,85.0
438,146.71762994375,148.95921724375003,43.0,95.0
439,148.55248994375003,149.00661779375002,55.0,83.0
440,148.18551794375003,149.05860549375004,62.0,90.0
441,147.81854594375002,149.05860549375004,67.0,91.0
442,148.91946194375004,149.09988984375002,59.0,85.0
443,149.65340594375002,150.24361924375003,54.0,95.0
444,149.65340594375002,150.48062199375002,59.0,95.0
445,150.38734994375002,150.79866439375002,54.0,99.0
446,149.65340594375002,150.98367944375002,42.0,96.0
447,150.75432194375003,151.02037664375004,59.0,93.0
448,150.02037794375002,151.02343474375002,49.0,84.0
449,151.12129394375003,151.63046759375004,58.0,99.0
450,151.12129394375003,151.74820444375004,54.0,92.0
451,151.85523794375004,152.52343279375003,54.0,88.0
452,151.85523794375004,152.54025234375004,61.0,86.0
453,151.48826594375004,152.58612384375002,49.0,82.0
454,151.12129394375003,152.59224004375002,42.0,98.0
455,152.58918194375002,153.15340139375002,59.0,86.0
456,152.58918194375002,153.46074044375004,62.0,90.0
457,152.95615394375002,153.54025104375003,54.0,79.0
458,153.32312594375003,154.12434814375004,59.0,87.0
459,153.69009794375003,154.13352244375002,62.0,87.0
460,154.42404194375004,154.85370499375003,54.0,65.0
461,152.58918194375002,154.94238989375003,47.0,96.0
462,154.05706994375004,154.94391894375002,66.0,95.0
463,154.79101394375004,154.98979044375002,59.0,93.0
464,156.25890194375003,156.36593544375003,54.0,89.0
465,156.62587394375004,157.06012414375004,57.0,89.0
466,156.99284594375004,157.36593414375002,61.0,94.0
467,155.52495794375002,157.69467989375002,42.0,101.0
468,155.89192994375003,157.74360949375003,49.0,83.0
469,157.72678994375002,158.40721719375003,61.0,85.0
470,157.72678994375002,158.52189594375002,66.0,83.0
471,158.09376194375002,158.52801214375003,57.0,86.0
472,158.46073394375003,158.64116184375004,41.0,68.0
473,159.56164994375004,159.99284204375004,55.0,88.0
474,159.19467794375004,160.71455364375004,52.0,90.0
475,160.29559394375002,160.79712234375003,55.0,82.0
476,159.92862194375004,160.81394189375004,59.0,88.0
477,158.46073394375003,160.89345249375003,40.0,89.0
478,158.82770594375003,160.89651059375004,47.0,91.0
479,161.02953794375003,161.16562339375002,55.0,42.0
480,161.02953794375003,161.19314629375003,59.0,41.0
481,160.66256594375002,161.25277924375004,64.0,94.0
482,161.02953794375003,161.32464459375004,52.0,86.0
483,161.39650994375003,161.87816069375003,54.0,92.0
484,161.39650994375003,162.19773214375004,59.0,86.0
485,162.13045394375004,162.60293039375003,54.0,97.0
486,162.49742594375005,162.67938289375002,59.0,79.0
487,161.76348194375004,163.14574314375002,49.0,83.0
488,162.86439794375002,163.46531459375004,58.0,94.0
489,162.86439794375002,163.47143079375002,54.0,84.0
490,161.39650994375003,163.78029889375003,42.0,98.0
491,163.23136994375002,163.79406034375003,49.0,74.0
492,163.59834194375003,163.84146089375002,54.0,96.0
493,163.59834194375003,163.91026814375005,61.0,96.0
494,164.33228594375004,164.87356964375005,59.0,90.0
495,164.33228594375004,165.13962434375003,62.0,93.0
496,165.06622994375005,165.81087729375002,59.0,94.0
497,165.43320194375002,165.89191694375003,62.0,92.0
498,164.69925794375004,165.99436329375004,54.0,82.0
499,165.80017394375002,166.61057044375002,66.0,99.0
500,166.16714594375003,166.62127379375005,54.0,71.0
501,164.33228594375004,166.69008104375004,47.0,96.0
502,166.53411794375003,166.74818494375003,62.0,95.0
503,166.53411794375003,166.81087599375002,59.0,94.0
504,167.26806194375004,167.64879539375005,57.0,85.0
505,167.26806194375004,168.10139419375002,61.0,94.0
506,168.00200594375002,168.80475719375005,57.0,87.0
507,168.36897794375002,168.81240244375005,61.0,94.0
508,169.10292194375003,169.58610174375002,57.0,86.0
509,167.63503394375005,169.59527604375003,49.0,75.0
510,167.26806194375004,169.61668274375003,42.0,96.0
511,168.73594994375003,169.69619334375002,66.0,96.0
512,169.46989394375004,169.79252349375002,61.0,92.0
513,169.83686594375004,169.89496984375003,57.0,68.0
514,170.20383794375005,170.79863839375002,55.0,87.0
515,170.20383794375005,170.98059534375002,59.0,89.0
516,170.93778194375002,171.68548739375004,62.0,90.0
517,171.30475394375003,171.76958514375002,59.0,82.0
518,170.57080994375002,172.95459889375002,50.0,85.0
519,170.20383794375005,172.98212179375003,43.0,95.0
520,172.40566994375004,173.05092904375005,55.0,90.0
521,172.77264194375005,173.21606644375004,59.0,91.0
522,172.03869794375004,173.24053124375004,62.0,89.0
523,171.67172594375003,173.31545469375004,67.0,93.0
524,174.24052994375003,174.48059079375003,58.0,90.0
525,173.87355794375003,175.41178224375003,55.0,94.0
526,174.97447394375004,175.98976314375003,58.0,54.0
527,174.60750194375004,176.02187319375003,62.0,92.0
528,175.70841794375002,176.07997709375002,55.0,83.0
529,175.34144594375005,176.11667429375004,67.0,90.0
530,173.50658594375003,176.13349384375005,50.0,85.0
531,173.13961394375002,176.14725529375005,43.0,96.0
532,177.17630594375004,177.64419524375003,61.0,98.0
533,176.80933394375003,178.04480634375003,57.0,89.0
534,177.91024994375005,178.39954594375004,61.0,82.0
535,178.27722194375002,178.63043249375005,67.0,81.0
536,177.54327794375004,178.69771069375003,64.0,94.0
537,178.64419394375003,179.72523229375003,57.0,73.0
538,176.44236194375003,179.73746469375004,52.0,88.0
539,179.01116594375003,179.75581329375004,61.0,78.0
540,179.01116594375003,179.76498759375005,64.0,86.0
541,176.07538994375003,179.76804569375003,45.0,98.0
542,179.01116594375003,179.78180714375003,69.0,84.0
543,180.47905394375005,180.87201979375004,62.0,90.0
544,180.84602594375002,181.15948119375003,64.0,99.0
545,180.11208194375004,181.49740124375003,45.0,82.0
546,181.21299794375003,181.83532129375004,62.0,94.0
547,181.21299794375003,182.10137599375003,66.0,97.0
548,179.74510994375004,182.17018324375005,38.0,90.0
549,181.94694194375003,182.26039719375004,62.0,92.0
550,181.57996994375003,182.26345529375004,45.0,71.0
551,183.41482994375002,183.77415669375003,59.0,95.0
552,183.78180194375003,184.10596054375003,61.0,96.0
553,183.04785794375005,184.19464544375003,54.0,84.0
554,184.51574594375003,184.81849784375004,54.0,61.0
555,184.14877394375003,184.93470564375002,62.0,90.0
556,182.68088594375004,184.97293189375003,47.0,95.0
557,184.88271794375004,185.03562294375004,66.0,96.0
558,185.61666194375005,186.06008644375004,55.0,89.0
559,185.61666194375005,186.39953554375003,59.0,90.0
560,186.35060594375003,186.55549864375004,55.0,96.0
561,185.98363394375002,186.64265449375003,50.0,83.0
562,185.61666194375005,186.74357179375005,43.0,94.0
563,186.71757794375003,187.10595664375003,54.0,88.0
564,187.45152194375004,188.00045089375004,47.0,86.0
565,187.08454994375003,188.04938049375005,40.0,96.0
566,187.08454994375003,188.52185694375004,52.0,97.0
567,187.81849394375004,188.53561839375004,55.0,90.0
568,189.28638194375003,189.41635119375005,54.0,87.0
569,189.65335394375003,190.12277229375005,57.0,88.0
570,190.02032594375004,190.47292474375004,61.0,99.0
571,190.38729794375004,190.83989674375005,57.0,87.0
572,188.55243794375002,190.89952969375003,42.0,97.0
573,188.91940994375005,190.92705259375003,49.0,78.0
574,190.75426994375005,191.75426864375004,66.0,95.0
575,192.22215794375003,192.99279914375003,55.0,93.0
576,192.58912994375004,193.03408349375005,59.0,94.0
577,193.32307394375005,193.76038224375003,55.0,89.0
578,191.85518594375003,193.96833304375002,50.0,84.0
579,191.48821394375005,193.99279784375005,43.0,95.0
580,192.95610194375004,194.10900564375004,62.0,92.0
581,194.05701794375005,194.29707879375002,55.0,90.0
582,193.69004594375002,194.56924969375004,67.0,90.0
583,194.42398994375003,194.90564069375006,50.0,98.0
584,194.79096194375003,194.97291889375003,62.0,94.0
585,195.15793394375004,195.51573164375003,61.0,85.0
586,195.15793394375004,195.61359084375005,49.0,92.0
587,195.15793394375004,195.78025729375003,64.0,90.0
588,195.89187794375005,196.39187729375004,59.0,87.0
589,195.89187794375005,196.71450684375003,62.0,89.0
590,196.25884994375002,196.77719789375004,54.0,81.0
591,195.89187794375005,196.94998054375003,47.0,90.0
592,196.99279394375003,197.45762514375002,62.0,88.0
593,196.62582194375005,197.48208994375005,59.0,92.0
594,198.46068194375005,198.89340309375004,55.0,88.0
595,198.09370994375004,199.60135324375005,52.0,97.0
596,197.72673794375004,199.62887614375003,47.0,83.0
597,197.35976594375003,199.65181189375005,40.0,100.0
598,199.19462594375005,200.17015984375004,55.0,77.0
599,198.82765394375002,200.17627604375002,59.0,92.0
600,199.56159794375003,200.95762059375005,64.0,95.0
601,201.02948594375005,201.44844564375003,57.0,95.0
602,201.39645794375002,201.69156459375006,59.0,95.0
603,200.66251394375004,201.94079974375003,52.0,91.0
604,201.76342994375005,201.99584554375002,57.0,92.0
605,201.76342994375005,202.15792484375004,61.0,105.0
606,202.13040194375003,202.70685379375004,52.0,92.0
607,200.29554194375004,203.06923864375005,45.0,96.0
608,202.49737394375003,203.13040064375002,61.0,96.0
609,202.49737394375003,203.19614979375004,64.0,99.0
610,202.49737394375003,203.23131794375004,57.0,94.0
611,203.59828994375005,204.05547589375004,57.0,93.0
612,203.96526194375002,204.38575069375003,62.0,91.0
613,204.33223394375005,204.50501659375004,64.0,95.0
614,204.69920594375003,205.05700364375002,66.0,97.0
615,205.06617794375003,205.48666669375004,57.0,93.0
616,205.43314994375004,205.79094764375003,62.0,89.0
617,203.23131794375004,205.79706384375004,50.0,97.0
618,205.80012194375004,206.20379114375004,61.0,95.0
619,206.16709394375005,206.78330109375003,59.0,89.0
620,206.53406594375002,207.06311724375004,54.0,83.0
621,206.90103794375005,207.49278029375006,61.0,95.0
622,207.26800994375003,207.70378919375003,54.0,82.0
623,207.63498194375003,207.90103664375005,62.0,94.0
624,207.63498194375003,208.38727454375004,59.0,92.0
625,208.00195394375004,208.41021029375003,54.0,79.0
626,206.16709394375005,208.55241194375003,47.0,96.0
627,208.36892594375004,209.09981184375005,66.0,98.0
628,208.73589794375005,209.16556099375003,59.0,97.0
629,209.10286994375002,209.57840449375004,55.0,86.0
630,209.10286994375002,209.63803744375002,62.0,90.0
631,209.83681394375003,210.28941274375003,59.0,94.0
632,210.20378594375003,210.42396914375004,62.0,89.0
633,210.57075794375004,210.96678189375004,67.0,90.0
634,210.57075794375004,211.03558914375003,55.0,95.0
635,211.30470194375005,211.48207174375005,55.0,93.0
636,209.46984194375005,211.56464044375002,50.0,87.0
637,209.10286994375002,211.61509909375005,43.0,95.0
638,211.30470194375005,212.00959399375006,62.0,93.0
639,211.67167394375002,212.07534314375005,55.0,90.0
640,212.77258994375003,212.88726869375006,54.0,99.0
641,213.13956194375004,213.50347584375004,57.0,84.0
642,213.50653394375004,213.94537129375004,61.0,95.0
643,213.87350594375005,214.26341369375004,57.0,82.0
644,212.03864594375005,214.39644104375003,42.0,95.0
645,212.40561794375003,214.43313824375002,49.0,86.0
646,214.24047794375002,214.97289289375004,66.0,94.0
647,214.60744994375005,215.04170014375006,57.0,92.0
648,215.70836594375004,216.42396134375002,55.0,96.0
649,216.07533794375004,216.50194289375003,59.0,93.0
650,216.44230994375005,217.06310424375005,62.0,89.0
651,217.17625394375005,217.24659024375006,62.0,66.0
652,216.80928194375002,217.27258409375003,55.0,84.0
653,214.97442194375003,217.38114664375004,43.0,96.0
654,215.34139394375006,217.39643714375006,50.0,83.0
655,217.54322594375003,217.63802704375004,55.0,94.0
656,217.17625394375005,217.71906669375005,67.0,94.0
657,217.91019794375006,218.25423419375005,66.0,87.0
658,217.91019794375006,218.29398949375005,62.0,90.0
659,217.91019794375006,218.34903529375003,50.0,97.0
660,218.27716994375004,218.57992184375004,57.0,87.0
661,218.64414194375004,218.99888154375003,61.0,83.0
662,218.64414194375004,219.05698544375002,49.0,95.0
663,218.64414194375004,219.28940104375005,64.0,92.0
664,219.37808594375002,219.84444619375006,59.0,88.0
665,219.37808594375002,220.17319194375006,62.0,92.0
666,219.74505794375006,220.33643222708338,54.0,86.0
667,219.37808594375002,220.3657531854167,47.0,95.0
668,220.11202994375003,220.8426045604167,59.0,95.0
669,220.4814938104167,220.89353043541672,62.0,89.0
670,221.5926038104167,222.4166770604167,52.0,93.0
671,221.9629738104167,222.47994860208337,55.0,90.0
672,222.33334381041672,222.9336518520834,59.0,90.0
673,221.22223381041672,223.3009354354167,47.0,89.0
674,220.85186381041672,223.37192301875004,40.0,95.0
675,223.0740838104167,223.76544114375005,55.0,94.0
676,223.44445381041672,223.79321889375004,52.0,92.0
677,223.0740838104167,223.90124347708337,59.0,94.0
678,224.55556381041671,224.98303251875004,55.0,94.0
679,223.81482381041673,225.01081026875005,43.0,99.0
680,224.1851938104167,225.12192126875004,50.0,89.0
681,224.92593381041672,225.40432839375003,59.0,88.0
682,225.2963038104167,225.75617989375004,57.0,87.0
683,225.2963038104167,227.2731536854167,45.0,95.0
684,225.6666738104167,227.32099314375006,52.0,81.0
685,225.2963038104167,227.35803014375006,61.0,94.0
686,226.03704381041672,227.4290177270834,57.0,80.0
687,228.2545586020834,228.7271187270834,52.0,95.0
688,227.8887056020834,229.1569960020834,45.0,78.0
689,228.9862646020834,229.8719337395834,50.0,92.0
690,227.51852381041672,230.1966282770834,38.0,98.0
691,229.7179706020834,230.2194940895834,45.0,87.0
692,228.6204116020834,230.35668896458338,54.0,100.0
693,230.08382360208338,230.5030301645834,50.0,88.0
694,228.9862646020834,230.6310787145834,57.0,90.0
695,231.1813826020834,231.7896132145834,52.0,94.0
696,231.5472356020834,231.7926619895834,55.0,88.0
697,230.8155296020834,232.3216244520834,47.0,87.0
698,231.9130886020834,232.77131876458338,52.0,93.0
699,231.9130886020834,233.1051596270834,55.0,94.0
700,231.9130886020834,233.2896105145834,59.0,94.0
701,232.6447946020834,233.3307689770834,47.0,93.0
702,233.0106476020834,233.33839091458339,52.0,89.0
703,230.4496766020834,233.3429640770834,40.0,98.0
704,233.37650060208338,233.8627802145834,50.0,88.0
705,233.37650060208338,233.9252801020834,55.0,85.0
706,233.37650060208338,233.9771092770834,59.0,90.0
707,233.37650060208338,233.9816824395834,43.0,85.0
708,234.10820660208338,234.7652176145834,40.0,90.0
709,234.10820660208338,234.7713151645834,52.0,91.0
710,234.10820660208338,234.7880834270834,55.0,90.0
711,234.8322906645834,236.07466647708338,45.0,84.0
712,234.97253431458338,236.1539346270834,52.0,89.0
713,234.9847294145834,236.3322879645834,61.0,80.0
714,234.9633879895834,236.3505806145834,57.0,86.0
715,237.3261886145834,239.37765819375008,50.0,82.0
716,236.9527136770834,239.4486457770834,43.0,96.0
717,238.48877019375007,239.55204073541674,67.0,93.0
718,238.07519036041674,239.56747281875008,59.0,90.0
719,237.73722773541672,239.59988019375007,55.0,94.0
720,240.34524981875006,241.0551256520834,47.0,82.0
721,239.9764230270834,241.12302681875008,40.0,99.0
722,240.8236444020834,241.3004957770834,55.0,95.0
723,241.20481686041674,241.86685323541673,57.0,85.0
724,242.01963086041673,243.63691319375008,52.0,91.0
725,241.59370536041675,243.67240698541673,45.0,97.0
726,242.51037111041674,243.8606784020834,61.0,87.0
727,242.9856792770834,243.91314748541674,64.0,91.0
728,244.17857931875008,245.51962736041673,53.0,71.0
729,243.87765369375006,246.28968831875008,46.0,101.0
730,244.5736406520834,246.5690090270834,58.0,95.0
731,244.88691194375008,246.61067565208342,62.0,86.0
732,245.25728194375006,247.03505794375008,65.0,93.0
733,246.99339131875007,248.4069701520834,55.0,86.0
734,247.34369961041673,248.87301906875007,60.0,95.0
735,247.74647698541673,248.87764869375007,67.0,87.0
736,248.16777286041673,248.97795723541674,72.0,94.0
737,248.60758723541673,249.0458584020834,55.0,75.0
738,246.62147811041675,249.1106731520834,48.0,97.0
739,249.0365991520834,250.53968406875006,60.0,92.0
740,249.03351273541674,250.5551161520834,67.0,90.0
741,251.18320194375008,251.46560906875007,50.0,94.0
742,251.56437440208342,251.66776936041674,54.0,97.0
743,251.91776911041674,252.7125214020834,57.0,96.0
744,250.8236344020834,252.81128673541673,45.0,80.0
745,250.46406686041675,252.81437315208342,38.0,100.0
746,252.2634477770834,253.42702686041673,62.0,87.0
747,252.64462023541674,253.47332311041674,66.0,84.0
748,254.07826077708341,254.3606679020834,52.0,94.0
749,254.44245794375007,254.57517386041673,56.0,96.0
750,253.73721173541674,255.68628386041675,47.0,87.0
751,253.35295286041674,255.73258011041673,40.0,99.0
752,254.79276623541674,257.2943069437501,59.0,94.0
753,255.14153131875008,257.44554136041677,64.0,89.0
754,255.6060370270834,257.4578870270834,68.0,83.0
755,258.9162189020834,259.1029471104167,50.0,90.0
756,259.15387298541674,259.2850456937501,54.0,80.0
757,259.3730085687501,259.6446132354167,57.0,89.0
758,259.6029466104167,259.88535373541674,62.0,86.0
759,259.8699216520834,260.03813136041674,66.0,94.0
760,260.1476991520834,260.4949210270834,69.0,89.0
761,260.4378223187501,260.7773281520834,74.0,90.0
762,260.7510936104167,261.08442661041676,78.0,93.0
763,261.07979698541675,261.23103140208343,81.0,90.0
764,261.46096944375006,261.6368951937501,81.0,67.0
765,261.45479661041674,261.6476976520834,86.0,71.0
766,261.92547515208344,262.11528977708343,81.0,76.0
767,261.9038702354167,262.12609223541676,90.0,83.0
768,262.42238823541675,262.53504244375006,81.0,65.0
769,262.41775861041674,262.6060300270834,93.0,88.0
770,258.6446142354167,263.53349823541674,45.0,77.0
771,258.16467644375007,263.5643624020834,38.0,99.0
