,start,end,pitch,velocity
0,13.380275,13.79576775,68.0,91.0
1,13.80281,14.85210525,69.0,91.0
2,14.8591475,15.06337275,64.0,67.0
3,15.070415,15.27464025,64.0,64.0
4,15.2816825,15.485907749999999,64.0,56.0
5,15.49295,15.83802025,69.0,85.0
6,15.8450625,16.19013275,71.0,76.0
7,16.197175,16.54224525,71.0,82.0
8,16.5492875,16.75351275,69.0,75.0
9,16.760555,16.96478025,68.0,70.0
10,16.9718225,18.02111775,69.0,66.0
11,18.02816,18.23238525,64.0,44.0
12,18.2394275,18.44365275,64.0,56.0
13,18.450695,18.866187749999998,64.0,66.0
14,18.87323,19.07745525,69.0,64.0
15,19.0844975,19.49999025,71.0,72.0
16,19.5070325,19.92252525,71.0,91.0
17,19.9295675,20.13379275,69.0,75.0
18,20.140835,20.55632775,68.0,80.0
19,20.56337,21.82393275,69.0,67.0
20,21.830975,22.03520025,64.0,67.0
21,22.0422425,22.24646775,64.0,80.0
22,22.25351,22.66900275,66.0,72.0
23,22.676045,22.88027025,69.0,76.0
24,22.8873125,23.51407275,71.0,69.0
25,23.521114999999998,23.72534025,69.0,82.0
26,23.7323825,26.89435275,73.0,72.0
27,26.901395,27.31688775,68.0,91.0
28,27.32393,28.37322525,69.0,91.0
29,28.3802675,28.58449275,64.0,67.0
30,28.591535,28.79576025,64.0,64.0
31,28.8028025,29.00702775,64.0,56.0
32,29.01407,29.35914025,69.0,85.0
33,29.3661825,29.71125275,71.0,76.0
34,29.718295,30.06336525,71.0,82.0
35,30.070407499999998,30.27463275,69.0,75.0
36,30.281675,30.48590025,68.0,70.0
37,30.492942499999998,31.542237749999998,69.0,66.0
38,31.54928,31.75350525,64.0,44.0
39,31.7605475,31.964772749999998,64.0,56.0
40,31.971815,32.38730775,64.0,66.0
41,32.39435,32.598575249999996,69.0,64.0
42,32.6056175,33.02111025,71.0,72.0
43,33.0281525,33.44364525,71.0,91.0
44,33.4506875,33.65491275,69.0,75.0
45,33.661955,34.07744775,68.0,80.0
46,34.08449,35.34505275,69.0,67.0
47,35.352095,35.55632025,64.0,67.0
48,35.5633625,35.76758775,64.0,80.0
49,35.77463,36.19012275,66.0,72.0
50,36.197165,36.40139025,69.0,76.0
51,36.408432499999996,37.03519275,71.0,69.0
52,37.042235,37.45772775,69.0,82.0
53,37.46477,37.88026275,68.0,93.0
54,37.887305,40.83800775,69.0,80.0
55,40.84505,41.89434525,73.0,91.0
56,41.9013875,42.10561275,73.0,97.0
57,42.112655,42.31688025,71.0,80.0
58,42.3239225,42.52814775,69.0,88.0
59,42.53519,42.73941525,71.0,78.0
60,42.7464575,43.16195025,69.0,91.0
61,43.1689925,43.58448525,71.0,85.0
62,43.5915275,43.79575275,73.0,97.0
63,43.802794999999996,44.21828775,71.0,97.0
64,44.22533,44.42955525,69.0,80.0
65,44.4365975,45.27462525,66.0,80.0
66,45.2816675,45.48589275,73.0,97.0
67,45.492935,45.697160249999996,71.0,70.0
68,45.7042025,45.90842775,69.0,85.0
69,45.91547,46.11969525,71.0,80.0
70,46.1267375,46.542230249999996,69.0,78.0
71,46.5492725,46.96476525,71.0,88.0
72,46.9718075,47.59856775,73.0,91.0
73,47.60561,47.80983525,69.0,85.0
74,47.8168775,48.65490525,66.0,82.0
75,48.6619475,48.86617275,64.0,78.0
76,48.873215,49.07744025,64.0,75.0
77,49.0844825,49.28870775,64.0,70.0
78,49.29575,49.49997525,66.0,82.0
79,49.507017499999996,49.92251025,69.0,88.0
80,49.9295525,50.55631275,71.0,93.0
81,50.563355,50.76758025,69.0,76.0
82,50.7746225,52.66898775,73.0,97.0
83,52.67603,53.091522749999996,73.0,95.0
84,53.098565,53.30279025,71.0,88.0
85,53.3098325,53.72532525,71.0,88.0
86,53.7323675,54.35912775,69.0,88.0
87,54.36617,55.41546525,73.0,97.0
88,55.4225075,55.62673275,73.0,97.0
89,55.633775,55.83800025,71.0,75.0
90,55.8450425,56.04926775,69.0,93.0
91,56.056309999999996,56.26053525,71.0,88.0
92,56.2675775,56.68307025,69.0,101.0
93,56.6901125,57.105605249999996,71.0,97.0
94,57.1126475,57.73940775,73.0,99.0
95,57.746449999999996,58.795745249999996,66.0,97.0
96,58.8027875,59.00701275,73.0,95.0
97,59.014055,59.21828025,71.0,80.0
98,59.2253225,59.42954775,69.0,91.0
99,59.43659,59.640815249999996,71.0,78.0
100,59.6478575,60.06335025,69.0,88.0
101,60.0703925,60.48588525,71.0,97.0
102,60.4929275,61.11968775,73.0,103.0
103,61.12673,62.38729275,66.0,93.0
104,62.394335,62.80982775,64.0,91.0
105,62.81687,63.23236275,66.0,88.0
106,63.239405,63.44363025,69.0,78.0
107,63.450672499999996,64.07743275,71.0,69.0
108,64.084475,64.28870025,69.0,88.0
109,64.2957425,67.88024775,69.0,85.0
110,67.88729,68.30278275,73.0,109.0
111,68.309825,68.51405025,73.0,101.0
112,68.5210925,68.93658525,73.0,99.0
113,68.9436275,69.57038775,73.0,103.0
114,69.57742999999999,69.99292275,71.0,101.0
115,69.999965,70.20419025,68.0,101.0
116,70.2112325,70.62672524999999,68.0,101.0
117,70.6337675,71.26052775,71.0,95.0
118,71.26756999999999,72.95066775,69.0,101.0
119,72.95771,73.37320275,68.0,99.0
120,73.380245,73.58447025,64.0,88.0
121,73.5915125,74.00700525,64.0,88.0
122,74.0140475,74.64080775,68.0,97.0
123,74.64785,76.33094774999999,66.0,97.0
124,76.33799,76.75348275,71.0,103.0
125,76.760525,76.96475025,71.0,95.0
126,76.97179249999999,77.38728525,71.0,91.0
127,77.3943275,78.02108774999999,69.0,95.0
128,78.02813,81.40136775,64.0,97.0
129,81.40841,81.82390275,73.0,109.0
130,81.830945,82.03517025,73.0,101.0
131,82.0422125,82.45770525,73.0,99.0
132,82.4647475,83.09150775,73.0,103.0
133,83.09855,83.51404275,71.0,101.0
134,83.521085,83.72531024999999,68.0,101.0
135,83.7323525,84.14784525,68.0,101.0
136,84.1548875,84.78164775,71.0,95.0
137,84.78869,86.47178775,69.0,101.0
138,86.47883,86.89432275,68.0,99.0
139,86.901365,87.10559024999999,64.0,88.0
140,87.1126325,87.52812525,64.0,88.0
141,87.5351675,88.16192775,68.0,97.0
142,88.16897,89.85206775,66.0,97.0
143,89.85911,90.27460275,71.0,103.0
144,90.281645,90.48587025,71.0,95.0
145,90.4929125,91.11967274999999,71.0,91.0
146,91.126715,91.33094025,69.0,95.0
147,91.3379825,91.54220775,68.0,95.0
148,91.54925,94.92248775,69.0,97.0
149,94.92953,95.34502275,73.0,109.0
150,95.352065,95.55629025,73.0,101.0
151,95.5633325,95.97882525,73.0,99.0
152,95.9858675,96.61262775,73.0,103.0
153,96.61967,97.03516275,76.0,101.0
154,97.042205,97.24643025,76.0,101.0
155,97.2534725,97.66896525,76.0,101.0
156,97.6760075,98.30276775,71.0,95.0
157,98.30981,99.99290775,69.0,101.0
158,99.99995,100.41544275,68.0,99.0
159,100.422485,100.62671025,64.0,88.0
160,100.6337525,101.04924525,64.0,88.0
161,101.0562875,101.68304775,68.0,97.0
162,101.69009,103.37318775,66.0,97.0
163,103.38023,103.79572275,71.0,103.0
164,103.802765,104.00699025,71.0,95.0
165,104.0140325,104.64079275,71.0,91.0
166,104.647835,105.06332775,69.0,95.0
167,105.07037,108.44360775,64.0,97.0
168,108.45065,108.86614275,73.0,109.0
169,108.87318499999999,109.07741025,73.0,101.0
170,109.0844525,109.49994525,73.0,99.0
171,109.5069875,110.13374775,73.0,103.0
172,110.14079,110.55628275,76.0,101.0
173,110.56332499999999,110.76755025,76.0,101.0
174,110.7745925,111.19008525,76.0,101.0
175,111.1971275,111.82388775,78.0,95.0
176,111.83093,112.66895775,78.0,101.0
177,112.676,113.09149275,73.0,93.0
178,113.098535,113.30276024999999,73.0,91.0
179,113.3098025,113.72529525,71.0,99.0
180,113.7323375,114.35909775,69.0,93.0
181,114.36614,114.78163275,73.0,95.0
182,114.788675,114.99290025,73.0,85.0
183,114.9999425,115.41543525,71.0,95.0
184,115.4224775,116.89430775,69.0,99.0
185,116.90135,117.31684274999999,71.0,103.0
186,117.323885,117.52811025,71.0,95.0
187,117.5351525,117.95064525,71.0,91.0
188,117.95768749999999,118.58444775,73.0,97.0
189,118.59149,119.21825025,71.0,97.0
190,119.2252925,119.3080389375,73.0,103.0
191,119.3150811875,119.42951775,71.0,103.0
192,119.43656,121.96472775,69.0,103.0
193,135.49289,136.54218525,73.0,91.0
194,136.5492275,136.75345275,73.0,97.0
195,136.760495,136.96472025,71.0,80.0
196,136.9717625,137.17598775,69.0,88.0
197,137.18303,137.38725525,71.0,78.0
198,137.3942975,137.80979025,69.0,91.0
199,137.8168325,138.23232525,71.0,85.0
200,138.2393675,138.44359275,73.0,97.0
201,138.450635,138.86612775,71.0,97.0
202,138.87317,139.07739525,69.0,80.0
203,139.0844375,139.92246525,66.0,80.0
204,139.9295075,140.13373275,73.0,97.0
205,140.140775,140.34500025,71.0,70.0
206,140.3520425,140.55626775,69.0,85.0
207,140.56331,140.76753525,71.0,80.0
208,140.7745775,141.19007025,69.0,78.0
209,141.1971125,141.61260525,71.0,88.0
210,141.61964749999999,142.24640775,73.0,91.0
211,142.25345,142.45767525,69.0,85.0
212,142.4647175,143.30274525,66.0,82.0
213,143.3097875,143.51401275,64.0,78.0
214,143.521055,143.72528025,64.0,75.0
215,143.7323225,143.93654775,64.0,70.0
216,143.94359,144.14781525,66.0,82.0
217,144.1548575,144.57035025,69.0,88.0
218,144.5773925,145.20415275,71.0,93.0
219,145.211195,145.41542025,69.0,76.0
220,145.4224625,147.31682775,73.0,97.0
221,147.32387,147.73936275,73.0,95.0
222,147.746405,147.95063025,71.0,88.0
223,147.9576725,148.37316525,71.0,88.0
224,148.3802075,149.00696775,69.0,88.0
225,149.01400999999998,150.06330524999998,73.0,97.0
226,150.0703475,150.27457275,73.0,97.0
227,150.281615,150.48584025,71.0,75.0
228,150.4928825,150.69710775,69.0,93.0
229,150.70415,150.90837525,71.0,88.0
230,150.9154175,151.33091025,69.0,101.0
231,151.3379525,151.75344525,71.0,97.0
232,151.7604875,152.38724775,73.0,99.0
233,152.39428999999998,153.44358524999998,66.0,97.0
234,153.4506275,153.65485275,73.0,95.0
235,153.661895,153.86612025,71.0,80.0
236,153.8731625,154.07738774999999,69.0,91.0
237,154.08443,154.28865525,71.0,78.0
238,154.2956975,154.71119025,69.0,88.0
239,154.7182325,155.13372525,71.0,97.0
240,155.1407675,155.76752775,73.0,103.0
241,155.77457,157.03513275,66.0,93.0
242,157.042175,157.45766774999998,64.0,91.0
243,157.46471,157.88020275,66.0,88.0
244,157.887245,158.09147025,69.0,78.0
245,158.0985125,158.72527275,71.0,69.0
246,158.732315,158.93654025,69.0,88.0
247,158.9435825,162.52808775,69.0,85.0
248,162.53513,162.95062275,73.0,109.0
249,162.957665,163.16189025,73.0,101.0
250,163.1689325,163.58442525,73.0,99.0
251,163.5914675,164.21822775,73.0,103.0
252,164.22527,164.64076275,71.0,101.0
253,164.647805,164.85203024999998,68.0,101.0
254,164.8590725,165.27456525,68.0,101.0
255,165.2816075,165.90836775,71.0,95.0
256,165.91541,167.59850775,69.0,101.0
257,167.60555,168.02104275,68.0,99.0
258,168.028085,168.23231024999998,64.0,88.0
259,168.2393525,168.65484525,64.0,88.0
260,168.6618875,169.28864775,68.0,97.0
261,169.29569,170.97878775,66.0,97.0
262,170.98583,171.40132275,71.0,103.0
263,171.408365,171.61259025,71.0,95.0
264,171.6196325,172.03512525,71.0,91.0
265,172.0421675,172.66892775,69.0,95.0
266,172.67597,176.04920775,64.0,97.0
267,176.05625,176.47174275,73.0,109.0
268,176.478785,176.68301025,73.0,101.0
269,176.6900525,177.10554525,73.0,99.0
270,177.1125875,177.73934775,73.0,103.0
271,177.74639,178.16188275,71.0,101.0
272,178.168925,178.37315025,68.0,101.0
273,178.3801925,178.79568525,68.0,101.0
274,178.8027275,179.42948775,71.0,95.0
275,179.43653,181.11962775,69.0,101.0
276,181.12667,181.54216275,68.0,99.0
277,181.549205,181.75343025,64.0,88.0
278,181.7604725,182.17596525,64.0,88.0
279,182.1830075,182.80976775,68.0,97.0
280,182.81681,184.49990775,66.0,97.0
281,184.50695,184.92244275,71.0,103.0
282,184.929485,185.13371025,71.0,95.0
283,185.1407525,185.76751275,71.0,91.0
284,185.774555,185.97878025,69.0,95.0
285,185.98582249999998,186.19004775,68.0,95.0
286,186.19709,189.57032775,69.0,97.0
287,189.57737,189.99286275,73.0,109.0
288,189.99990499999998,190.20413025,73.0,101.0
289,190.2111725,190.62666525,73.0,99.0
290,190.63370749999999,191.26046775,73.0,103.0
291,191.26751,191.68300274999999,76.0,101.0
292,191.690045,191.89427025,76.0,101.0
293,191.9013125,192.31680525,76.0,101.0
294,192.3238475,192.95060775,71.0,95.0
295,192.95765,194.64074775,69.0,101.0
296,194.64779,195.06328274999998,68.0,99.0
297,195.070325,195.27455025,64.0,88.0
298,195.2815925,195.69708525,64.0,88.0
299,195.7041275,196.33088775,68.0,97.0
300,196.33793,198.02102775,66.0,97.0
301,198.02806999999999,198.44356274999998,71.0,103.0
302,198.450605,198.65483025,71.0,95.0
303,198.6618725,199.28863275,71.0,91.0
304,199.295675,199.71116775,69.0,95.0
305,199.71821,203.09144775,64.0,97.0
306,203.09849,203.51398275,73.0,109.0
307,203.521025,203.72525025,73.0,101.0
308,203.7322925,204.14778525,73.0,99.0
309,204.1548275,204.78158775,73.0,103.0
310,204.78862999999998,205.20412275,76.0,101.0
311,205.211165,205.41539025,76.0,101.0
312,205.42243249999999,205.83792524999998,76.0,101.0
313,205.8449675,206.47172774999999,78.0,95.0
314,206.47877,207.31679775,78.0,101.0
315,207.32384,207.73933275,73.0,93.0
316,207.746375,207.95060025,73.0,91.0
317,207.9576425,208.37313525,71.0,99.0
318,208.3801775,209.00693775,69.0,93.0
319,209.01398,209.42947275,73.0,95.0
320,209.43651499999999,209.64074025,73.0,85.0
321,209.6477825,210.06327525,71.0,95.0
322,210.0703175,211.54214775,69.0,99.0
323,211.54919,211.96468275,71.0,103.0
324,211.971725,212.17595025,71.0,95.0
325,212.18299249999998,212.59848525,71.0,91.0
326,212.6055275,213.23228774999998,73.0,97.0
327,213.23933,213.86609024999998,71.0,97.0
328,213.8731325,213.9558789375,73.0,103.0
329,213.9629211875,214.07735775,71.0,103.0
330,214.0844,216.61256775,69.0,103.0
331,218.2903838125,219.094960875,76.0,100.0
332,219.9523548125,220.489326375,81.0,100.0
333,220.897776875,221.109044375,73.0,100.0
334,221.306227375,221.51749487499998,73.0,100.0
335,221.69003,221.876649625,71.0,100.0
336,221.90833975,222.4453113125,69.0,100.0
337,222.538621125,222.74988862499998,73.0,100.0
338,222.9347476875,223.14601518749998,73.0,100.0
339,223.390733375,223.602000875,71.0,100.0
340,223.633691,223.8449585,69.0,100.0
341,225.073831125,225.285098625,71.0,100.0
342,225.5632675,225.774535,71.0,100.0
343,225.7903800625,226.00164756249998,71.0,100.0
344,226.2657319375,226.47699943749998,73.0,100.0
345,226.6530556875,226.8643231875,71.0,100.0
346,227.0755906875,227.728759375,69.0,100.0
