,start,end,pitch,velocity
0,0.704225,1.2376754375,76.0,63.0
1,0.28169,2.0228863125,69.0,85.0
2,2.394365,2.8644351875,76.0,63.0
3,1.97183,3.5651390625,68.0,69.0
4,4.084505,4.531687875,76.0,51.0
5,4.084505,4.968307375,69.0,52.0
6,3.66197,5.0475326874999995,66.0,67.0
7,4.50704,5.3714761875,73.0,63.0
8,6.1971799999999995,6.644362875,73.0,49.0
9,5.35211,6.8855599375,65.0,49.0
10,5.774645,6.9330951249999995,69.0,47.0
11,7.464785,7.9524608125,52.0,62.0
12,7.04225,8.1813339375,45.0,66.0
13,7.88732,8.3292211875,57.0,59.0
14,8.309855,8.764080125,52.0,72.0
15,8.73239,9.5299248125,44.0,67.0
16,9.154925,9.637319125,52.0,61.0
17,9.57746,10.0017555625,56.0,46.0
18,9.999995,10.1038681875,52.0,67.0
19,10.42253,11.144360625,41.0,67.0
20,10.845065,11.3010506875,57.0,44.0
21,11.2676,11.3943605,61.0,67.0
22,11.690135,11.7904870625,65.0,63.0
23,13.80281,14.897879875,64.0,63.0
24,13.80281,14.90844325,57.0,73.0
25,13.80281,14.926048875,61.0,64.0
26,13.80281,14.9454150625,45.0,60.0
27,13.80281,15.49999225,69.0,70.0
28,15.49295,15.49999225,69.0,62.0
29,15.49295,16.5968226875,59.0,59.0
30,15.49295,16.5968226875,64.0,63.0
31,15.49295,16.6813296875,44.0,55.0
32,15.49295,16.7165409375,56.0,48.0
33,16.742949375,17.116188625,68.0,49.0
34,17.18309,18.30985,69.0,58.0
35,17.18309,18.318652812499998,42.0,63.0
36,17.18309,18.334497875,54.0,55.0
37,17.18309,18.334497875,64.0,67.0
38,17.18309,18.3468218125,61.0,61.0
39,18.87323,20.0087928125,65.0,54.0
40,18.87323,20.0087928125,69.0,66.0
41,18.87323,20.0422435,61.0,59.0
42,18.87323,20.059849125,53.0,61.0
43,20.56337,21.764073624999998,69.0,67.0
44,20.56337,21.799284875,54.0,57.0
45,20.56337,21.8080876875,64.0,73.0
46,20.56337,21.809848249999998,61.0,64.0
47,20.56337,21.8714679375,42.0,53.0
48,22.25351,23.1989320625,57.0,67.0
49,22.25351,23.2235799375,69.0,60.0
50,22.25351,23.267594,38.0,67.0
51,22.25351,23.3397770625,50.0,59.0
52,22.25351,23.341537625,66.0,72.0
53,22.25351,23.355622125,62.0,72.0
54,23.943649999999998,24.4066779375,61.0,72.0
55,23.943649999999998,24.426044125,64.0,73.0
56,23.943649999999998,24.7799171875,69.0,73.0
57,25.211255,26.338015,59.0,35.0
58,24.366184999999998,26.771113375,52.0,38.0
59,24.788719999999998,26.772873937499998,57.0,40.0
60,26.47886,26.8221696875,71.0,60.0
61,23.943649999999998,26.8256908125,45.0,70.0
62,27.32393,27.7270988125,61.0,66.0
63,27.32393,27.7306199375,64.0,70.0
64,27.32393,27.820408625,69.0,72.0
65,28.169,28.5087885625,59.0,49.0
66,27.746465,28.52815475,57.0,33.0
67,28.169,28.552802624999998,68.0,55.0
68,27.32393,28.6461124375,45.0,76.0
69,28.591535,28.7746335,69.0,52.0
70,29.01407,29.52815425,68.0,61.0
71,29.01407,29.55632325,59.0,57.0
72,29.01407,29.55632325,64.0,56.0
73,29.01407,30.23237925,56.0,47.0
74,29.01407,30.285196125,44.0,52.0
75,30.070407499999998,30.378505937499998,66.0,46.0
76,30.281675,30.6337875,68.0,61.0
77,30.70421,31.355618125,61.0,58.0
78,30.70421,31.5123081875,69.0,72.0
79,30.70421,31.5158293125,64.0,63.0
80,30.70421,31.6672376875,42.0,40.0
81,30.70421,31.8186460625,54.0,42.0
82,32.39435,33.5158283125,53.0,80.0
83,32.39435,33.559842375,65.0,61.0
84,32.39435,33.5827296875,69.0,64.0
85,32.39435,33.595053625,61.0,64.0
86,34.08449,34.785193875,64.0,53.0
87,34.08449,34.8151234375,61.0,58.0
88,34.08449,34.8714614375,69.0,64.0
89,35.1408275,35.267587999999996,61.0,54.0
90,34.08449,35.2869541875,54.0,62.0
91,34.08449,35.34505275,42.0,60.0
92,35.352095,35.4982216875,64.0,48.0
93,35.5633625,35.9630101875,69.0,69.0
94,35.77463,36.137305875,50.0,64.0
95,35.77463,36.179559375,57.0,69.0
96,35.77463,36.186601625,66.0,66.0
97,35.77463,36.193643875,62.0,73.0
98,37.46477,38.1285020625,64.0,49.0
99,37.46477,38.168995,61.0,62.0
100,37.46477,38.1954034375,69.0,69.0
101,39.15491,39.774628,71.0,37.0
102,39.99998,40.545754375,69.0,47.0
103,37.46477,40.5792050625,45.0,69.0
104,40.84505,41.2517399375,69.0,69.0
105,40.84505,41.2834300625,64.0,73.0
106,40.84505,41.30279625,61.0,69.0
107,41.69012,41.9700494375,69.0,61.0
108,40.84505,42.00702125,57.0,64.0
109,41.69012,42.02110575,61.0,60.0
110,41.69012,42.02110575,64.0,62.0
111,40.84505,42.0615986875,45.0,64.0
112,42.53519,43.0897671875,68.0,66.0
113,42.53519,43.11969675,59.0,70.0
114,42.53519,43.1249784375,64.0,69.0
115,42.53519,43.1971615,71.0,60.0
116,42.53519,43.528147249999996,56.0,58.0
117,43.38026,43.7482175625,71.0,67.0
118,43.38026,43.75349925,59.0,67.0
119,43.38026,43.7763865625,64.0,78.0
120,43.38026,43.7763865625,68.0,51.0
121,42.53519,43.8925836875,44.0,58.0
122,43.802794999999996,43.933076625,56.0,55.0
123,44.22533,44.5545551875,54.0,63.0
124,44.22533,44.7464565,69.0,66.0
125,44.22533,44.75349875,61.0,64.0
126,44.22533,44.771104375,64.0,72.0
127,44.22533,45.23237175,42.0,67.0
128,44.8591325,45.2939914375,54.0,31.0
129,45.0704,45.4489209375,69.0,66.0
130,45.0704,45.4630054375,61.0,67.0
131,45.0704,45.4665265625,64.0,70.0
132,45.492935,45.577442,54.0,49.0
133,45.492935,45.61265325,42.0,54.0
134,45.91547,46.3714556875,71.0,64.0
135,45.91547,46.3890613125,68.0,66.0
136,45.91547,46.4594838125,65.0,70.0
137,45.91547,46.575680937499996,59.0,60.0
138,45.91547,46.96476525,53.0,66.0
139,46.76054,47.0615961875,71.0,67.0
140,46.76054,47.1496243125,65.0,78.0
141,46.76054,47.1672299375,68.0,54.0
142,46.76054,47.2235679375,59.0,66.0
143,45.91547,47.26053975,41.0,38.0
144,47.183075,47.3256805625,53.0,58.0
145,47.60561,47.8961028125,64.0,66.0
146,47.60561,47.95068025,54.0,72.0
147,47.60561,48.1637083125,66.0,42.0
148,47.60561,48.2094829375,62.0,47.0
149,47.60561,48.225328,57.0,85.0
150,48.2394125,48.628496812499996,54.0,31.0
151,48.45068,48.8292009375,66.0,69.0
152,48.45068,48.86617275,62.0,80.0
153,48.45068,48.869693874999996,57.0,78.0
154,48.873215,48.96476425,54.0,53.0
155,47.60561,48.9700459375,42.0,70.0
156,49.29575,49.630256875,38.0,69.0
157,49.29575,49.630256875,50.0,69.0
158,49.29575,49.6953976875,62.0,75.0
159,49.29575,49.7059610625,66.0,72.0
160,49.29575,49.721806125,57.0,70.0
161,49.29575,49.7763835625,69.0,72.0
162,50.14082,50.455960687499996,68.0,56.0
163,50.14082,50.4700451875,59.0,60.0
164,50.14082,50.475326875,64.0,59.0
165,50.98589,51.390819375,61.0,67.0
166,50.98589,51.3943405,64.0,73.0
167,50.98589,51.4788475,69.0,73.0
168,51.408425,51.92250925,57.0,31.0
169,51.83096,52.2306076875,59.0,60.0
170,51.83096,52.234128812499996,68.0,64.0
171,52.253495,52.785184875,57.0,41.0
172,52.67603,53.0228608125,59.0,67.0
173,52.67603,53.045748124999996,71.0,73.0
174,52.67603,53.098565,64.0,67.0
175,53.098565,53.249973374999996,57.0,57.0
176,50.98589,53.334480375,45.0,72.0
177,53.5211,54.0140575,61.0,78.0
178,53.5211,54.017578625,64.0,78.0
179,53.5211,54.2094799375,69.0,78.0
180,53.943635,54.2130010625,40.0,69.0
181,54.1549025,54.433071375,44.0,53.0
182,54.36617,54.72532475,45.0,73.0
183,54.36617,54.8644091875,69.0,73.0
184,54.36617,54.8925781875,64.0,80.0
185,54.36617,54.8996204375,61.0,72.0
186,55.21124,55.5158173125,69.0,73.0
187,55.21124,55.6196905,64.0,76.0
188,55.21124,55.623211624999996,61.0,73.0
189,55.633775,55.7200425625,57.0,64.0
190,54.788705,55.748211562499996,45.0,72.0
191,56.056309999999996,56.2587746875,56.0,73.0
192,56.056309999999996,56.299267625,59.0,80.0
193,56.056309999999996,56.3080704375,64.0,91.0
194,56.056309999999996,56.34504225,68.0,72.0
195,56.056309999999996,56.369690125,71.0,75.0
196,56.6901125,56.9524363125,56.0,47.0
197,56.901379999999996,57.1848305625,68.0,75.0
198,56.901379999999996,57.2059573125,76.0,75.0
199,56.056309999999996,57.2799009375,44.0,67.0
200,57.323915,57.658421875,71.0,58.0
201,57.746449999999996,58.0228583125,54.0,70.0
202,57.746449999999996,58.0985625,69.0,75.0
203,57.746449999999996,58.1073653125,73.0,73.0
204,57.746449999999996,58.1108864375,64.0,72.0
205,58.59152,58.9313085625,61.0,76.0
206,58.59152,58.9629986875,69.0,78.0
207,58.59152,58.96475925,64.0,76.0
208,59.014055,59.10560425,54.0,58.0
209,57.746449999999996,59.1390549375,42.0,64.0
210,59.43659,59.728843375,52.0,61.0
211,59.43659,59.96475875,65.0,72.0
212,59.43659,60.003491125,68.0,72.0
213,59.43659,60.0334206875,59.0,69.0
214,60.0703925,60.24644875,52.0,39.0
215,59.43659,60.249969875,40.0,70.0
216,60.28166,60.7059555625,68.0,75.0
217,60.28166,60.7182795,59.0,88.0
218,60.28166,60.721800625,65.0,101.0
219,61.12673,61.4559551875,54.0,64.0
220,61.12673,61.6390536875,64.0,73.0
221,61.12673,61.6707438125,61.0,76.0
222,61.12673,61.700673375,69.0,76.0
223,61.9718,62.179546375,64.0,82.0
224,61.9718,62.1989125625,61.0,85.0
225,61.9718,62.2939829375,69.0,78.0
226,62.394335,62.47179975,69.0,51.0
227,61.12673,62.5052504375,42.0,66.0
228,62.394335,62.584475749999996,57.0,67.0
229,62.394335,62.6742644375,62.0,67.0
230,62.394335,62.714757375,66.0,59.0
231,62.81687,63.2869401875,68.0,76.0
232,62.81687,63.3291936875,59.0,82.0
233,62.81687,63.348559875,64.0,85.0
234,63.66194,63.86616525,52.0,58.0
235,63.66194,64.0545454375,57.0,93.0
236,63.66194,64.080953875,40.0,66.0
237,63.66194,64.0897566875,69.0,63.0
238,63.66194,64.1267285,66.0,64.0
239,63.66194,64.1531369375,62.0,76.0
240,64.084475,64.186587625,52.0,54.0
241,64.50701,64.8115873125,57.0,64.0
242,64.50701,64.954192875,61.0,82.0
243,64.50701,64.9700379375,64.0,82.0
244,64.50701,65.00700975,69.0,76.0
245,64.929545,65.42954475,57.0,45.0
246,64.50701,65.595037625,45.0,69.0
247,64.50701,65.637291125,52.0,70.0
248,65.35208,65.742924875,59.0,91.0
249,65.35208,65.8045445625,64.0,93.0
250,65.774615,65.841516375,57.0,64.0
251,65.774615,65.85207975,52.0,61.0
252,65.774615,65.8820093125,45.0,64.0
253,65.774615,66.084474,69.0,72.0
254,66.19715,66.422502,59.0,82.0
255,66.19715,66.48588225,64.0,85.0
256,66.19715,66.573910375,68.0,75.0
257,66.19715,66.6566568125,40.0,80.0
258,66.19715,66.707713125,52.0,67.0
259,66.619685,66.834473625,69.0,72.0
260,66.619685,66.8538398125,61.0,61.0
261,66.619685,66.92250175,64.0,60.0
262,66.619685,67.098558,42.0,67.0
263,67.04222,67.1531354375,64.0,80.0
264,67.04222,67.19010725,71.0,73.0
265,67.04222,67.4876423125,44.0,70.0
266,67.464755,67.54221975,76.0,63.0
267,67.6760225,67.7622900625,74.0,62.0
268,67.88729,68.2024306875,69.0,72.0
269,67.88729,68.214754625,73.0,82.0
270,67.88729,68.2235574375,64.0,63.0
271,68.73236,69.0298950625,59.0,82.0
272,68.5210925,69.1144020625,57.0,73.0
273,68.9436275,69.14785275,64.0,49.0
274,67.88729,69.17602175,45.0,91.0
275,68.309825,69.20419075,52.0,63.0
276,69.154895,69.4559511875,69.0,73.0
277,69.57742999999999,69.926021375,56.0,76.0
278,69.57742999999999,70.0615846875,68.0,76.0
279,69.57742999999999,70.14785225,59.0,93.0
280,69.57742999999999,70.2763733125,64.0,91.0
281,70.2112325,70.6214435625,56.0,51.0
282,70.4225,70.72531675,59.0,91.0
283,69.57742999999999,70.73059843749999,44.0,76.0
284,70.4225,70.8010209375,64.0,95.0
285,70.4225,70.876725125,68.0,95.0
286,70.845035,71.073908125,50.0,63.0
287,71.0563025,71.285175625,66.0,56.0
288,71.16193625,71.30278125,68.0,66.0
289,71.26756999999999,71.79221762499999,69.0,75.0
290,71.26756999999999,71.7939781875,61.0,76.0
291,71.26756999999999,71.8186260625,64.0,80.0
292,71.690105,72.1601751875,49.0,37.0
293,72.11264,72.4665130625,54.0,59.0
294,72.11264,72.4805975625,69.0,80.0
295,72.11264,72.5298933125,61.0,82.0
296,72.11264,72.5298933125,64.0,93.0
297,71.26756999999999,72.5686256875,42.0,72.0
298,72.535175,73.0545409375,49.0,50.0
299,72.95771,73.228836625,59.0,88.0
300,72.95771,73.2816535,64.0,88.0
301,72.95771,73.3291886875,68.0,76.0
302,73.380245,73.4665125625,64.0,62.0
303,73.380245,73.4841181875,61.0,64.0
304,73.380245,73.5298928125,69.0,72.0
305,73.5915125,73.75348425,59.0,85.0
306,73.5915125,73.8503151875,68.0,88.0
307,73.380245,74.0052446875,49.0,58.0
308,73.80278,74.158413625,52.0,47.0
309,74.0140475,74.2869346875,64.0,93.0
310,72.95771,74.28869525,40.0,73.0
311,74.0140475,74.3045403125,59.0,82.0
312,74.225315,74.313343125,49.0,66.0
313,74.64785,74.9154555,50.0,78.0
314,74.64785,75.23235675,66.0,76.0
315,74.64785,75.249962375,69.0,59.0
316,74.64785,75.2834130625,62.0,80.0
317,74.64785,75.2869341875,57.0,97.0
318,75.070385,75.56862418749999,50.0,48.0
319,75.49292,75.947145125,69.0,76.0
320,75.49292,75.9665113125,66.0,101.0
321,75.49292,75.971793,57.0,95.0
322,74.64785,75.9770746875,38.0,78.0
323,75.49292,75.9805958125,62.0,101.0
324,75.915455,76.017567625,50.0,88.0
325,76.33799,76.524609625,50.0,78.0
326,76.33799,76.7834123125,62.0,93.0
327,76.33799,76.8115813125,57.0,88.0
328,76.33799,76.8291869375,65.0,97.0
329,76.33799,76.8362291875,69.0,80.0
330,76.760525,77.355595125,50.0,61.0
331,77.18306,77.454186625,57.0,69.0
332,77.18306,77.5351725,59.0,70.0
333,76.33799,77.5615809375,38.0,73.0
334,77.605595,77.9665103125,50.0,95.0
335,78.02813,78.28869325,61.0,91.0
336,78.02813,78.2974960625,64.0,95.0
337,78.02813,78.30982,69.0,85.0
338,78.450665,78.580946625,59.0,62.0
339,78.450665,78.83798875,68.0,61.0
340,78.8732,78.93658025,64.0,70.0
341,78.8732,78.96474925,61.0,76.0
342,78.450665,78.9665098125,52.0,61.0
343,78.8732,78.9876365625,69.0,70.0
344,78.8732,79.334467375,57.0,66.0
345,78.02813,79.34503074999999,45.0,82.0
346,79.295735,79.6214390625,71.0,57.0
347,79.295735,79.6812981875,52.0,66.0
348,79.71827,79.8608755625,69.0,73.0
349,79.71827,79.883762875,73.0,73.0
350,79.71827,79.887284,64.0,82.0
351,79.71827,80.32742462499999,45.0,70.0
352,80.140805,80.3291851875,57.0,80.0
353,79.9295375,80.37319925,52.0,54.0
354,80.3520725,80.535171,59.0,78.0
355,80.56334,80.6320019375,59.0,34.0
356,80.56334,80.721790625,61.0,70.0
357,80.56334,80.84503,40.0,80.0
358,80.7746075,81.045734125,69.0,66.0
359,80.7746075,81.04925525,42.0,63.0
360,80.985875,81.1390439375,44.0,60.0
361,80.985875,81.228832625,68.0,62.0
362,81.1971425,81.3538325625,66.0,56.0
363,81.40841,81.9453815625,61.0,91.0
364,81.40841,81.9453815625,69.0,76.0
365,81.40841,82.0369308125,64.0,80.0
366,82.0422125,82.3186208125,57.0,60.0
367,82.25348,82.50524043749999,61.0,97.0
368,82.25348,82.5334094375,69.0,75.0
369,82.25348,82.5474939375,64.0,99.0
370,82.4647475,82.6900995,57.0,70.0
371,81.40841,82.71122625,45.0,76.0
372,81.830945,82.8027755,52.0,61.0
373,82.67601499999999,82.841507875,61.0,66.0
374,82.8872825,83.070381,69.0,67.0
375,83.09855,83.158409125,69.0,53.0
376,83.09855,83.461225875,56.0,80.0
377,83.09855,83.5932680625,68.0,88.0
378,83.09855,83.7869299375,59.0,85.0
379,83.09855,83.799253875,64.0,88.0
380,83.7323525,84.0985495,56.0,56.0
381,83.09855,84.2059438125,44.0,75.0
382,83.94362,84.2112255,59.0,78.0
383,83.94362,84.2305916875,64.0,91.0
384,83.94362,84.2446761875,68.0,93.0
385,84.1548875,84.2904508125,50.0,76.0
386,84.36615499999999,84.538690125,66.0,69.0
387,84.5774225,84.6672111875,66.0,43.0
388,84.5774225,84.73939425,68.0,64.0
389,84.78869,85.1601686875,42.0,73.0
390,84.9999575,85.20418275,49.0,69.0
391,85.211225,85.4700276875,54.0,48.0
392,84.78869,85.6196755,69.0,80.0
393,84.78869,85.6460839375,61.0,82.0
394,84.78869,85.6636895625,64.0,80.0
395,85.63376,85.7270698125,57.0,70.0
396,85.4224925,85.75699937499999,56.0,62.0
397,85.8450275,86.0017175625,61.0,72.0
398,86.056295,86.24643575,64.0,78.0
399,86.2675625,86.5897454375,69.0,69.0
400,86.47883,86.820379125,52.0,58.0
401,86.47883,86.961224125,68.0,85.0
402,86.47883,87.179533875,64.0,82.0
403,86.47883,87.1812944375,59.0,78.0
404,87.1126325,87.44361825,52.0,58.0
405,87.3239,87.5650970625,64.0,95.0
406,87.3239,87.66897025,68.0,95.0
407,87.3239,87.71122375,59.0,82.0
408,86.47883,87.848547625,40.0,76.0
409,87.746435,87.8608715625,52.0,85.0
410,87.9577025,88.2376319375,64.0,67.0
411,88.16897,88.5545331875,50.0,82.0
412,88.16897,88.6918570625,66.0,75.0
413,88.16897,88.8925611875,57.0,88.0
414,88.16897,88.8960823125,62.0,80.0
415,88.8027725,89.1812934375,50.0,45.0
416,88.16897,89.3362229375,38.0,73.0
417,89.01404,89.5087580625,57.0,75.0
418,89.01404,89.5193214375,62.0,93.0
419,89.01404,89.524603125,66.0,95.0
420,89.436575,89.566856625,50.0,69.0
421,89.85911,90.1425605625,50.0,80.0
422,89.85911,90.54220825,69.0,80.0
423,89.85911,90.5492505,62.0,78.0
424,89.85911,90.5580533125,65.0,85.0
425,89.85911,90.566856125,57.0,78.0
426,89.85911,90.8872785,38.0,73.0
427,90.4929125,90.9700249375,50.0,46.0
428,90.70418,91.183053,65.0,106.0
429,90.70418,91.1883346875,57.0,93.0
430,90.70418,91.1971375,62.0,103.0
431,90.70418,91.2200248125,69.0,85.0
432,91.126715,91.2376304375,38.0,67.0
433,91.54925,91.8784751875,45.0,80.0
434,91.54925,92.197137,69.0,82.0
435,91.54925,92.24643275,64.0,97.0
436,91.54925,92.24819331249999,61.0,95.0
437,92.1830525,92.6038269375,45.0,44.0
438,92.39432,92.855587375,69.0,82.0
439,92.39432,92.86615075,61.0,91.0
440,92.39432,92.8714324375,64.0,95.0
441,91.54925,92.8925591875,33.0,69.0
442,92.816855,92.961221125,45.0,85.0
443,93.23939,93.383756125,45.0,85.0
444,93.23939,93.6073475625,57.0,93.0
445,93.23939,93.6425588125,66.0,97.0
446,93.23939,93.756995375,62.0,99.0
447,93.661925,93.9242488125,45.0,76.0
448,93.8731925,93.92600937499999,59.0,73.0
449,93.8731925,94.1003050625,61.0,91.0
450,93.8731925,94.1267135,69.0,93.0
451,93.8731925,94.1425585625,64.0,103.0
452,93.23939,94.2834035625,33.0,82.0
453,94.08445999999999,94.3291781875,45.0,85.0
454,94.2957275,94.517558375,68.0,82.0
455,94.2957275,94.54220624999999,59.0,97.0
456,94.2957275,94.55453018749999,64.0,95.0
457,94.7182625,94.7939666875,64.0,60.0
458,94.7182625,94.80981175,61.0,40.0
459,94.506995,94.8573469375,40.0,101.0
460,94.92953,95.2939664375,45.0,95.0
461,94.92953,95.5510085625,69.0,75.0
462,94.92953,95.630233875,61.0,95.0
463,94.92953,95.6496000625,64.0,88.0
464,95.5633325,95.84150137499999,45.0,85.0
465,95.77459999999999,96.0263604375,69.0,82.0
466,95.77459999999999,96.031642125,61.0,95.0
467,94.92953,96.0422055,33.0,75.0
468,95.77459999999999,96.045726625,64.0,101.0
469,95.9858675,96.1460786875,45.0,93.0
470,96.197135,96.3221349375,64.0,66.0
471,96.197135,96.3520645,61.0,80.0
472,96.61967,96.9066416875,56.0,91.0
473,96.61967,96.9488951875,59.0,91.0
474,96.4084025,96.982345875,71.0,75.0
475,96.61967,97.0017120625,64.0,93.0
476,96.61967,97.02107825,68.0,88.0
477,97.2534725,97.5334019375,56.0,78.0
478,97.46473999999999,97.7517116875,71.0,99.0
479,97.46473999999999,97.76755675,68.0,91.0
480,97.6760075,97.774599,56.0,88.0
481,96.61967,97.81861306249999,44.0,76.0
482,97.46473999999999,97.841500375,76.0,80.0
483,97.887275,98.116148125,71.0,75.0
484,97.887275,98.1548805,43.0,40.0
485,98.0985425,98.5228380625,73.0,78.0
486,98.30981,98.6073450625,69.0,93.0
487,98.30981,98.630232375,64.0,97.0
488,98.9436125,99.2059363125,54.0,73.0
489,99.15487999999999,99.242908125,61.0,82.0
490,99.15487999999999,99.30276725,69.0,72.0
491,99.3661475,99.4770629375,59.0,70.0
492,99.3661475,99.53868262499999,68.0,63.0
493,99.577415,99.6812881875,61.0,70.0
494,98.30981,99.69713325,42.0,80.0
495,99.577415,99.71121775,69.0,80.0
496,99.7886825,99.8643866875,59.0,72.0
497,98.732345,99.9066401875,49.0,72.0
498,99.7886825,99.954175375,68.0,61.0
499,99.99995,100.426006125,64.0,93.0
500,99.99995,100.468259625,59.0,85.0
501,100.84502,101.0193156875,57.0,85.0
502,101.0562875,101.1038226875,59.0,55.0
503,100.6337525,101.130231125,52.0,80.0
504,101.0562875,101.1918508125,61.0,56.0
505,100.422485,101.23234375,49.0,64.0
506,99.99995,101.2622733125,40.0,73.0
507,101.267555,101.4841041875,64.0,73.0
508,101.47882249999999,101.9858645,69.0,75.0
509,101.69009,102.140794,57.0,93.0
510,101.69009,102.1495968125,66.0,75.0
511,101.69009,102.1548785,62.0,85.0
512,102.3238925,102.5157938125,50.0,56.0
513,102.53516,102.7657936875,69.0,75.0
514,102.53516,102.788681,57.0,97.0
515,102.53516,102.82389225,66.0,97.0
516,102.53516,102.834455625,62.0,103.0
517,101.69009,102.8749485625,38.0,72.0
518,102.112625,102.8925541875,45.0,66.0
519,102.7464275,102.91896262499999,50.0,67.0
520,103.16896249999999,103.2059343125,62.0,47.0
521,102.957695,103.23586387499999,57.0,75.0
522,103.16896249999999,103.271075125,69.0,56.0
523,103.38023,103.73938475,50.0,85.0
524,103.38023,104.02283531249999,69.0,85.0
525,103.38023,104.038680375,62.0,97.0
526,103.38023,104.0510043125,65.0,109.0
527,103.38023,104.0791733125,57.0,97.0
528,104.0140325,104.362623875,50.0,49.0
529,103.38023,104.38727175,38.0,72.0
530,104.2253,104.6055815,69.0,88.0
531,104.2253,104.62670825,65.0,106.0
532,104.2253,104.6425533125,57.0,95.0
533,104.2253,104.6425533125,62.0,101.0
534,104.647835,104.7024124375,50.0,58.0
535,104.647835,104.75522931249999,38.0,78.0
536,105.07037,105.264031875,45.0,85.0
537,105.07037,105.61262325,61.0,97.0
538,105.07037,105.6319894375,64.0,103.0
539,105.492905,105.6425528125,45.0,62.0
540,105.07037,105.661919,69.0,93.0
541,105.7041725,105.7974823125,73.0,88.0
542,105.7041725,105.8221301875,81.0,75.0
543,105.91544,106.112623,45.0,70.0
544,106.1267075,106.207693375,80.0,93.0
545,106.1267075,106.2112145,71.0,78.0
546,106.337975,106.595017125,45.0,52.0
547,106.5492425,106.721777625,69.0,85.0
548,106.5492425,106.8045240625,76.0,88.0
549,106.9717775,107.1108619375,64.0,72.0
550,107.18304499999999,107.334453375,69.0,82.0
551,105.07037,107.42952375,33.0,91.0
552,107.18304499999999,107.475298375,45.0,58.0
553,107.3943125,107.5333969375,71.0,85.0
554,107.60558,107.693608125,64.0,59.0
555,107.60558,107.827410875,73.0,95.0
556,107.8168475,107.933044625,64.0,50.0
557,107.60558,107.9559319375,37.0,80.0
558,107.8168475,107.961213625,69.0,70.0
559,108.028115,108.264030375,71.0,82.0
560,108.2393825,108.394312,73.0,85.0
561,108.028115,108.397833125,40.0,76.0
562,108.45065,108.6002978125,33.0,73.0
563,108.45065,108.651354125,45.0,82.0
564,108.45065,109.1689595,73.0,66.0
565,108.45065,109.17248062499999,76.0,82.0
566,108.45065,109.186565125,69.0,82.0
567,108.45065,109.1988890625,64.0,85.0
568,109.29572,109.3819875625,57.0,48.0
569,109.29572,109.5791705625,76.0,85.0
570,109.29572,109.6002973125,64.0,91.0
571,109.29572,109.616142375,69.0,101.0
572,109.29572,109.6249451875,73.0,95.0
573,109.5069875,109.6707198125,57.0,85.0
574,109.0844525,109.806283125,45.0,59.0
575,109.718255,109.9242408125,71.0,85.0
576,110.14079,110.475296875,56.0,91.0
577,109.9295225,110.4770574375,76.0,78.0
578,110.14079,110.531634875,71.0,78.0
579,110.14079,110.535156,68.0,95.0
580,110.14079,110.5545221875,64.0,95.0
581,110.7745925,111.0562825,56.0,67.0
582,110.98586,111.28339506249999,59.0,97.0
583,111.1971275,111.2869161875,56.0,62.0
584,110.14079,111.2974795625,44.0,73.0
585,110.98586,111.31684575,64.0,97.0
586,110.98586,111.34501475,68.0,99.0
587,111.408395,111.718254,66.0,85.0
588,111.408395,111.7235356875,43.0,82.0
589,111.6196625,111.77107087499999,68.0,80.0
590,111.83093,112.4312818125,69.0,64.0
591,111.83093,112.52811275,61.0,93.0
592,111.83093,112.5510000625,64.0,95.0
593,112.4647325,112.72881687499999,54.0,67.0
594,112.676,112.9418449375,61.0,95.0
595,112.676,112.9594505625,69.0,85.0
596,112.676,112.97881675,64.0,101.0
597,112.8872675,113.07740825,54.0,73.0
598,111.83093,113.1495913125,42.0,82.0
599,112.25346499999999,113.172478625,49.0,52.0
600,113.098535,113.179520875,64.0,54.0
601,113.098535,113.267549,61.0,85.0
602,113.3098025,113.47353481249999,69.0,69.0
603,113.52107,113.86966137499999,52.0,88.0
604,113.52107,114.1883231875,68.0,88.0
605,113.52107,114.22353443749999,59.0,91.0
606,113.52107,114.2305766875,64.0,85.0
607,114.1548725,114.4348019375,52.0,62.0
608,114.36614,114.6179004375,64.0,101.0
609,114.36614,114.6337455,68.0,97.0
610,114.36614,114.644308875,59.0,95.0
611,114.57740749999999,114.78515387499999,52.0,72.0
612,113.52107,114.806280625,40.0,76.0
613,114.788675,115.0017030625,64.0,85.0
614,115.21121,115.5193084375,50.0,85.0
615,115.21121,115.83444912499999,62.0,85.0
616,115.21121,115.8397308125,57.0,95.0
617,115.21121,115.8538153125,66.0,76.0
618,115.8450125,116.140787,50.0,76.0
619,116.478815,116.647829,50.0,78.0
620,115.21121,116.6495895625,38.0,75.0
621,116.05628,116.7059275625,57.0,103.0
622,116.05628,116.788674,62.0,101.0
623,116.05628,116.79571625,66.0,88.0
624,114.9999425,116.8256458125,69.0,76.0
625,116.90135,117.242899125,50.0,78.0
626,116.90135,117.62670175,57.0,91.0
627,116.90135,117.62670175,62.0,85.0
628,116.90135,117.6390256875,65.0,97.0
629,116.90135,117.6566313125,69.0,72.0
630,116.90135,118.0703635,38.0,75.0
631,117.5351525,118.1319831875,50.0,43.0
632,117.74642,118.1531099375,65.0,95.0
633,117.74642,118.17599725,62.0,88.0
634,117.74642,118.1848000625,57.0,85.0
635,117.74642,118.235856375,69.0,73.0
636,118.168955,118.2904338125,40.0,101.0
637,118.59149,118.9101518125,45.0,82.0
638,118.59149,119.2534615,69.0,88.0
639,118.59149,119.28867275,61.0,97.0
640,118.59149,119.2904333125,64.0,97.0
641,119.2252925,119.5474754375,45.0,47.0
642,119.43656,119.8538133125,61.0,85.0
643,119.43656,119.869658375,64.0,97.0
644,119.43656,119.87317949999999,69.0,78.0
645,119.859095,120.433038375,45.0,91.0
646,120.28162999999999,120.5862073125,57.0,80.0
647,120.28162999999999,120.785150875,66.0,88.0
648,120.28162999999999,120.85557337499999,62.0,93.0
649,118.59149,121.27458725,33.0,76.0
650,120.704165,121.36789706249999,45.0,46.0
651,121.1267,121.4524040625,61.0,91.0
652,121.1267,121.492897,64.0,88.0
653,121.1267,121.5193054375,69.0,76.0
654,121.97176999999999,122.3855021875,85.0,66.0
655,122.394305,122.9277554375,76.0,63.0
656,121.97176999999999,123.7129663125,69.0,85.0
657,122.81684,123.7376141875,88.0,69.0
658,123.66190999999999,124.1002900625,83.0,63.0
659,124.084445,124.5545151875,76.0,63.0
660,123.66190999999999,125.2552190625,68.0,69.0
661,124.50698,125.3678950625,88.0,57.0
662,125.35204999999999,125.7833878125,81.0,63.0
663,125.774585,126.221767875,76.0,51.0
664,125.774585,126.658387375,69.0,52.0
665,125.35204999999999,126.7376126875,66.0,67.0
666,126.19712,126.8432464375,83.0,63.0
667,126.19712,127.0615561875,73.0,63.0
668,127.04219,127.88726,77.0,58.0
669,127.88726,128.334442875,73.0,49.0
670,127.04219,128.5756399375,65.0,49.0
671,127.464725,128.623175125,69.0,47.0
672,127.88726,128.73233,76.0,58.0
673,128.73233,129.559794375,73.0,88.0
674,129.154865,129.6425408125,52.0,62.0
675,128.73233,129.8714139375,45.0,66.0
676,129.5774,130.0193011875,57.0,59.0
677,129.5774,130.3221179375,76.0,76.0
678,129.999935,130.454160125,52.0,72.0
679,130.42247,131.2200048125,44.0,67.0
680,130.42247,131.2728216875,71.0,67.0
681,130.845005,131.327399125,52.0,61.0
682,131.26754,131.6918355625,56.0,46.0
683,131.690075,131.7939481875,52.0,67.0
684,131.26754,132.320356375,76.0,73.0
685,132.11261,132.714722375,73.0,75.0
686,132.11261,132.83444062499998,42.0,67.0
687,132.535145,132.9911306875,50.0,44.0
688,132.95768,133.0844405,53.0,67.0
689,133.380215,133.4805670625,57.0,63.0
690,133.80275,134.609087625,40.0,54.0
691,133.80275,134.7587354375,53.0,64.0
692,133.80275,135.214721125,62.0,63.0
693,134.64782,135.552749125,57.0,45.0
694,135.49289,135.552749125,57.0,64.0
695,135.49289,135.8995799375,69.0,69.0
696,135.49289,135.9312700625,64.0,73.0
697,135.49289,135.95063625,61.0,69.0
698,136.33796,136.6178894375,69.0,61.0
699,136.33796,136.66894575,61.0,60.0
700,136.33796,136.66894575,64.0,62.0
701,135.49289,136.7094386875,45.0,64.0
702,137.18303,137.7376071875,68.0,66.0
703,137.18303,137.76753675,59.0,70.0
704,137.18303,137.7728184375,64.0,69.0
705,137.18303,137.8450015,71.0,60.0
706,137.18303,138.17598725,56.0,58.0
707,138.0281,138.3960575625,71.0,67.0
708,138.0281,138.40133925,59.0,67.0
709,138.0281,138.4242265625,64.0,78.0
710,138.0281,138.4242265625,68.0,51.0
711,137.18303,138.5404236875,44.0,58.0
712,138.450635,138.580916625,56.0,55.0
713,138.87317,139.2023951875,54.0,63.0
714,138.87317,139.3942965,69.0,66.0
715,138.87317,139.40133875,61.0,64.0
716,138.87317,139.418944375,64.0,72.0
717,138.87317,139.88021175,42.0,67.0
718,139.5069725,139.94183143749999,54.0,31.0
719,139.71824,140.0967609375,69.0,66.0
720,139.71824,140.1108454375,61.0,67.0
721,139.71824,140.1143665625,64.0,70.0
722,140.140775,140.225282,54.0,49.0
723,140.140775,140.26049325,42.0,54.0
724,140.56331,141.0192956875,71.0,64.0
725,140.56331,141.0369013125,68.0,66.0
726,140.56331,141.1073238125,65.0,70.0
727,140.56331,141.22352093749998,59.0,60.0
728,140.56331,141.61260525,53.0,66.0
729,141.40838,141.7094361875,71.0,67.0
730,141.40838,141.7974643125,65.0,78.0
731,141.40838,141.8150699375,68.0,54.0
732,141.40838,141.8714079375,59.0,66.0
733,140.56331,141.90837975,41.0,38.0
734,141.830915,141.9735205625,53.0,58.0
735,142.25345,142.5439428125,64.0,66.0
736,142.25345,142.59852025,54.0,72.0
737,142.25345,142.8115483125,66.0,42.0
738,142.25345,142.8573229375,62.0,47.0
739,142.25345,142.873168,57.0,85.0
740,142.8872525,143.2763368125,54.0,31.0
741,143.09852,143.4770409375,66.0,69.0
742,143.09852,143.51401275,62.0,80.0
743,143.09852,143.517533875,57.0,78.0
744,143.521055,143.61260425,54.0,53.0
745,142.25345,143.6178859375,42.0,70.0
746,143.94359,144.278096875,38.0,69.0
747,143.94359,144.278096875,50.0,69.0
748,143.94359,144.3432376875,62.0,75.0
749,143.94359,144.3538010625,66.0,72.0
750,143.94359,144.369646125,57.0,70.0
751,143.94359,144.4242235625,69.0,72.0
752,144.78866,145.10380068749998,68.0,56.0
753,144.78866,145.1178851875,59.0,60.0
754,144.78866,145.123166875,64.0,59.0
755,145.63372999999999,146.038659375,61.0,67.0
756,145.63372999999999,146.0421805,64.0,73.0
757,145.63372999999999,146.1266875,69.0,73.0
758,146.056265,146.57034925,57.0,31.0
759,146.4788,146.8784476875,59.0,60.0
760,146.4788,146.8819688125,68.0,64.0
761,146.901335,147.433024875,57.0,41.0
762,147.32387,147.6707008125,59.0,67.0
763,147.32387,147.693588125,71.0,73.0
764,147.32387,147.746405,64.0,67.0
765,147.746405,147.897813375,57.0,57.0
766,145.63372999999999,147.982320375,45.0,72.0
767,148.16894,148.6618975,61.0,78.0
768,148.16894,148.665418625,64.0,78.0
769,148.16894,148.8573199375,69.0,78.0
770,148.591475,148.8608410625,40.0,69.0
771,148.8027425,149.080911375,44.0,53.0
772,149.01400999999998,149.37316475,45.0,73.0
773,149.01400999999998,149.5122491875,69.0,73.0
774,149.01400999999998,149.5404181875,64.0,80.0
775,149.01400999999998,149.5474604375,61.0,72.0
776,149.85908,150.1636573125,69.0,73.0
777,149.85908,150.2675305,64.0,76.0
778,149.85908,150.27105162499998,61.0,73.0
779,150.281615,150.3678825625,57.0,64.0
780,149.436545,150.3960515625,45.0,72.0
781,150.70415,150.9066146875,56.0,73.0
782,150.70415,150.947107625,59.0,80.0
783,150.70415,150.9559104375,64.0,91.0
784,150.70415,150.99288225,68.0,72.0
785,150.70415,151.017530125,71.0,75.0
786,151.3379525,151.6002763125,56.0,47.0
787,151.54922,151.8326705625,68.0,75.0
788,151.54922,151.8537973125,76.0,75.0
789,150.70415,151.9277409375,44.0,67.0
790,151.971755,152.306261875,71.0,58.0
791,152.39428999999998,152.6706983125,54.0,70.0
792,152.39428999999998,152.7464025,69.0,75.0
793,152.39428999999998,152.7552053125,73.0,73.0
794,152.39428999999998,152.7587264375,64.0,72.0
795,153.23936,153.5791485625,61.0,76.0
796,153.23936,153.6108386875,69.0,78.0
797,153.23936,153.61259925,64.0,76.0
798,153.661895,153.75344425,54.0,58.0
799,152.39428999999998,153.7868949375,42.0,64.0
800,154.08443,154.376683375,52.0,61.0
801,154.08443,154.61259875,65.0,72.0
802,154.08443,154.65133112499998,68.0,72.0
803,154.08443,154.6812606875,59.0,69.0
804,154.7182325,154.89428875,52.0,39.0
805,154.08443,154.897809875,40.0,70.0
806,154.9295,155.3537955625,68.0,75.0
807,154.9295,155.3661195,59.0,88.0
808,154.9295,155.369640625,65.0,101.0
809,155.77457,156.1037951875,54.0,64.0
810,155.77457,156.2868936875,64.0,73.0
811,155.77457,156.3185838125,61.0,76.0
812,155.77457,156.348513375,69.0,76.0
813,156.61964,156.827386375,64.0,82.0
814,156.61964,156.8467525625,61.0,85.0
815,156.61964,156.9418229375,69.0,78.0
816,157.042175,157.11963975,69.0,51.0
817,155.77457,157.1530904375,42.0,66.0
818,157.042175,157.23231575,57.0,67.0
819,157.042175,157.3221044375,62.0,67.0
820,157.042175,157.362597375,66.0,59.0
821,157.46471,157.9347801875,68.0,76.0
822,157.46471,157.9770336875,59.0,82.0
823,157.46471,157.996399875,64.0,85.0
824,158.30978,158.51400525,52.0,58.0
825,158.30978,158.7023854375,57.0,93.0
826,158.30978,158.728793875,40.0,66.0
827,158.30978,158.7375966875,69.0,63.0
828,158.30978,158.7745685,66.0,64.0
829,158.30978,158.8009769375,62.0,76.0
830,158.732315,158.834427625,52.0,54.0
831,159.15485,159.4594273125,57.0,64.0
832,159.15485,159.602032875,61.0,82.0
833,159.15485,159.6178779375,64.0,82.0
834,159.15485,159.65484975,69.0,76.0
835,159.577385,160.07738475,57.0,45.0
836,159.15485,160.242877625,45.0,69.0
837,159.15485,160.285131125,52.0,70.0
838,159.99992,160.390764875,59.0,91.0
839,159.99992,160.4523845625,64.0,93.0
840,160.42245499999999,160.489356375,57.0,64.0
841,160.42245499999999,160.49991975,52.0,61.0
842,160.42245499999999,160.5298493125,45.0,64.0
843,160.42245499999999,160.732314,69.0,72.0
844,160.84499,161.070342,59.0,82.0
845,160.84499,161.13372225,64.0,85.0
846,160.84499,161.221750375,68.0,75.0
847,160.84499,161.3044968125,40.0,80.0
848,160.84499,161.355553125,52.0,67.0
849,161.267525,161.482313625,69.0,72.0
850,161.267525,161.5016798125,61.0,61.0
851,161.267525,161.57034175,64.0,60.0
852,161.267525,161.746398,42.0,67.0
853,161.69006,161.8009754375,64.0,80.0
854,161.69006,161.83794724999998,71.0,73.0
855,161.69006,162.1354823125,44.0,70.0
856,162.112595,162.19005975,76.0,63.0
857,162.3238625,162.4101300625,74.0,62.0
858,162.53513,162.8502706875,69.0,72.0
859,162.53513,162.86259462499999,73.0,82.0
860,162.53513,162.8713974375,64.0,63.0
861,163.3802,163.6777350625,59.0,82.0
862,163.1689325,163.7622420625,57.0,73.0
863,163.5914675,163.79569275,64.0,49.0
864,162.53513,163.82386175,45.0,91.0
865,162.957665,163.85203075,52.0,63.0
866,163.80273499999998,164.1037911875,69.0,73.0
867,164.22527,164.573861375,56.0,76.0
868,164.22527,164.7094246875,68.0,76.0
869,164.22527,164.79569225,59.0,93.0
870,164.22527,164.9242133125,64.0,91.0
871,164.8590725,165.2692835625,56.0,51.0
872,165.07034,165.37315675,59.0,91.0
873,164.22527,165.3784384375,44.0,76.0
874,165.07034,165.4488609375,64.0,95.0
875,165.07034,165.524565125,68.0,95.0
876,165.492875,165.721748125,50.0,63.0
877,165.7041425,165.933015625,66.0,56.0
878,165.80977625,165.95062125,68.0,66.0
879,165.91541,166.440057625,69.0,75.0
880,165.91541,166.4418181875,61.0,76.0
881,165.91541,166.4664660625,64.0,80.0
882,166.337945,166.8080151875,49.0,37.0
883,166.76048,167.1143530625,54.0,59.0
884,166.76048,167.1284375625,69.0,80.0
885,166.76048,167.1777333125,61.0,82.0
886,166.76048,167.1777333125,64.0,93.0
887,165.91541,167.2164656875,42.0,72.0
888,167.183015,167.7023809375,49.0,50.0
889,167.60555,167.876676625,59.0,88.0
890,167.60555,167.9294935,64.0,88.0
891,167.60555,167.9770286875,68.0,76.0
892,168.028085,168.1143525625,64.0,62.0
893,168.028085,168.1319581875,61.0,64.0
894,168.028085,168.1777328125,69.0,72.0
895,168.2393525,168.40132425,59.0,85.0
896,168.2393525,168.4981551875,68.0,88.0
897,168.028085,168.65308468749998,49.0,58.0
898,168.45062,168.806253625,52.0,47.0
899,168.6618875,168.9347746875,64.0,93.0
900,167.60555,168.93653525,40.0,73.0
901,168.6618875,168.9523803125,59.0,82.0
902,168.873155,168.961183125,49.0,66.0
903,169.29569,169.5632955,50.0,78.0
904,169.29569,169.88019675,66.0,76.0
905,169.29569,169.897802375,69.0,59.0
906,169.29569,169.9312530625,62.0,80.0
907,169.29569,169.9347741875,57.0,97.0
908,169.718225,170.2164641875,50.0,48.0
909,170.14076,170.594985125,69.0,76.0
910,170.14076,170.6143513125,66.0,91.0
911,170.14076,170.619633,57.0,85.0
912,169.29569,170.6249146875,38.0,78.0
913,170.14076,170.6284358125,62.0,91.0
914,170.563295,170.665407625,50.0,88.0
915,170.98583,171.17244962499998,50.0,78.0
916,170.98583,171.4312523125,62.0,83.0
917,170.98583,171.45942131249998,57.0,78.0
918,170.98583,171.4770269375,65.0,87.0
919,170.98583,171.48406918749998,69.0,80.0
920,171.408365,172.003435125,50.0,61.0
921,171.83089999999999,172.102026625,57.0,69.0
922,171.83089999999999,172.1830125,59.0,70.0
923,170.98583,172.2094209375,38.0,73.0
924,172.253435,172.6143503125,50.0,95.0
925,172.67597,172.93653325,61.0,91.0
926,172.67597,172.9453360625,64.0,95.0
927,172.67597,172.95766,69.0,85.0
928,173.098505,173.228786625,59.0,62.0
929,173.098505,173.48582875,68.0,61.0
930,173.52104,173.58442025,64.0,70.0
931,173.52104,173.61258924999998,61.0,76.0
932,173.098505,173.6143498125,52.0,61.0
933,173.52104,173.6354765625,69.0,70.0
934,173.52104,173.982307375,57.0,66.0
935,172.67597,173.99287075,45.0,82.0
936,173.943575,174.2692790625,71.0,57.0
937,173.943575,174.3291381875,52.0,66.0
938,174.36611,174.5087155625,69.0,73.0
939,174.36611,174.531602875,73.0,73.0
940,174.36611,174.535124,64.0,82.0
941,174.36611,174.975264625,45.0,70.0
942,174.788645,174.9770251875,57.0,80.0
943,174.5773775,175.02103925,52.0,54.0
944,174.9999125,175.183011,59.0,78.0
945,175.21117999999998,175.2798419375,59.0,34.0
946,175.21117999999998,175.36963062499999,61.0,70.0
947,175.21117999999998,175.49287,40.0,80.0
948,175.4224475,175.693574125,69.0,66.0
949,175.4224475,175.69709525,42.0,63.0
950,175.633715,175.7868839375,44.0,60.0
951,175.633715,175.876672625,68.0,62.0
952,175.8449825,176.0016725625,66.0,56.0
953,176.05625,176.5932215625,61.0,91.0
954,176.05625,176.5932215625,69.0,76.0
955,176.05625,176.6847708125,64.0,80.0
956,176.6900525,176.9664608125,57.0,60.0
957,176.90132,177.1530804375,61.0,97.0
958,176.90132,177.18124943749999,69.0,75.0
959,176.90132,177.1953339375,64.0,99.0
960,177.1125875,177.3379395,57.0,70.0
961,176.05625,177.35906624999998,45.0,76.0
962,176.478785,177.4506155,52.0,61.0
963,177.323855,177.489347875,61.0,66.0
964,177.5351225,177.718221,69.0,67.0
965,177.74639,177.806249125,69.0,53.0
966,177.74639,178.109065875,56.0,80.0
967,177.74639,178.2411080625,68.0,88.0
968,177.74639,178.4347699375,59.0,85.0
969,177.74639,178.447093875,64.0,88.0
970,178.3801925,178.7463895,56.0,56.0
971,177.74639,178.85378381249998,44.0,75.0
972,178.59145999999998,178.85906549999999,59.0,78.0
973,178.59145999999998,178.8784316875,64.0,91.0
974,178.59145999999998,178.8925161875,68.0,93.0
975,178.8027275,178.9382908125,50.0,76.0
976,179.013995,179.186530125,66.0,69.0
977,179.22526249999999,179.3150511875,66.0,43.0
978,179.22526249999999,179.38723425,68.0,64.0
979,179.43653,179.8080086875,42.0,73.0
980,179.6477975,179.85202275,49.0,69.0
981,179.859065,180.1178676875,54.0,48.0
982,179.43653,180.2675155,69.0,80.0
983,179.43653,180.2939239375,61.0,82.0
984,179.43653,180.3115295625,64.0,80.0
985,180.2816,180.3749098125,57.0,70.0
986,180.0703325,180.404839375,56.0,62.0
987,180.4928675,180.6495575625,61.0,72.0
988,180.704135,180.89427575,64.0,78.0
989,180.9154025,181.2375854375,69.0,69.0
990,181.12667,181.468219125,52.0,58.0
991,181.12667,181.609064125,68.0,85.0
992,181.12667,181.827373875,64.0,82.0
993,181.12667,181.8291344375,59.0,78.0
994,181.7604725,182.09145825,52.0,58.0
995,181.97174,182.2129370625,64.0,95.0
996,181.97174,182.31681025,68.0,95.0
997,181.97174,182.35906375,59.0,82.0
998,181.12667,182.496387625,40.0,76.0
999,182.394275,182.5087115625,52.0,85.0
1000,182.60554249999998,182.8854719375,64.0,67.0
1001,182.81681,183.2023731875,50.0,82.0
1002,182.81681,183.3396970625,66.0,75.0
1003,182.81681,183.5404011875,57.0,88.0
1004,182.81681,183.5439223125,62.0,80.0
1005,183.4506125,183.8291334375,50.0,45.0
1006,182.81681,183.9840629375,38.0,73.0
1007,183.66188,184.1565980625,57.0,75.0
1008,183.66188,184.1671614375,62.0,93.0
1009,183.66188,184.172443125,66.0,95.0
1010,184.084415,184.214696625,50.0,69.0
1011,184.50695,184.7904005625,50.0,80.0
1012,184.50695,185.19004825,69.0,80.0
1013,184.50695,185.1970905,62.0,78.0
1014,184.50695,185.2058933125,65.0,85.0
1015,184.50695,185.214696125,57.0,78.0
1016,184.50695,185.5351185,38.0,73.0
1017,185.1407525,185.6178649375,50.0,46.0
1018,185.35202,185.830893,65.0,106.0
1019,185.35202,185.8361746875,57.0,93.0
1020,185.35202,185.8449775,62.0,103.0
1021,185.35202,185.8678648125,69.0,85.0
1022,185.774555,185.8854704375,38.0,67.0
1023,186.19709,186.5263151875,45.0,80.0
1024,186.19709,186.844977,69.0,82.0
1025,186.19709,186.89427275,64.0,97.0
1026,186.19709,186.8960333125,61.0,95.0
1027,186.8308925,187.2516669375,45.0,44.0
1028,187.04216,187.503427375,69.0,82.0
1029,187.04216,187.51399075,61.0,91.0
1030,187.04216,187.5192724375,64.0,95.0
1031,186.19709,187.5403991875,33.0,69.0
1032,187.464695,187.609061125,45.0,85.0
1033,187.88723,188.031596125,45.0,85.0
1034,187.88723,188.2551875625,57.0,93.0
1035,187.88723,188.2903988125,66.0,97.0
1036,187.88723,188.404835375,62.0,99.0
1037,188.309765,188.5720888125,45.0,76.0
1038,188.5210325,188.573849375,59.0,73.0
1039,188.5210325,188.7481450625,61.0,91.0
1040,188.5210325,188.7745535,69.0,93.0
1041,188.5210325,188.7903985625,64.0,103.0
1042,187.88723,188.9312435625,33.0,82.0
1043,188.7323,188.9770181875,45.0,85.0
1044,188.9435675,189.165398375,68.0,82.0
1045,188.9435675,189.19004625,59.0,97.0
1046,188.9435675,189.2023701875,64.0,95.0
1047,189.3661025,189.4418066875,64.0,60.0
1048,189.3661025,189.45765175,61.0,40.0
1049,189.154835,189.50518693749999,40.0,101.0
1050,189.57737,189.9418064375,45.0,95.0
1051,189.57737,190.1988485625,69.0,75.0
1052,189.57737,190.278073875,61.0,95.0
1053,189.57737,190.2974400625,64.0,88.0
1054,190.2111725,190.489341375,45.0,85.0
1055,190.42244,190.6742004375,69.0,82.0
1056,190.42244,190.679482125,61.0,95.0
1057,189.57737,190.6900455,33.0,75.0
1058,190.42244,190.693566625,64.0,101.0
1059,190.63370749999999,190.7939186875,45.0,93.0
1060,190.844975,190.96997493749998,64.0,66.0
1061,190.844975,190.99990449999999,61.0,80.0
1062,191.26751,191.5544816875,56.0,91.0
1063,191.26751,191.5967351875,59.0,91.0
1064,191.0562425,191.630185875,71.0,75.0
1065,191.26751,191.6495520625,64.0,93.0
1066,191.26751,191.66891825,68.0,88.0
1067,191.9013125,192.1812419375,56.0,78.0
1068,192.11258,192.3995516875,71.0,99.0
1069,192.11258,192.41539674999999,68.0,91.0
1070,192.3238475,192.422439,56.0,88.0
1071,191.26751,192.4664530625,44.0,76.0
1072,192.11258,192.48934037499998,76.0,80.0
1073,192.535115,192.763988125,71.0,75.0
1074,192.535115,192.8027205,43.0,40.0
1075,192.7463825,193.1706780625,73.0,78.0
1076,192.95765,193.2551850625,69.0,93.0
1077,192.95765,193.278072375,64.0,97.0
1078,193.5914525,193.8537763125,54.0,73.0
1079,193.80272,193.890748125,61.0,82.0
1080,193.80272,193.95060725,69.0,72.0
1081,194.01398749999998,194.1249029375,59.0,70.0
1082,194.01398749999998,194.186522625,68.0,63.0
1083,194.225255,194.3291281875,61.0,70.0
1084,192.95765,194.34497325,42.0,80.0
1085,194.225255,194.35905775,69.0,80.0
1086,194.4365225,194.5122266875,59.0,72.0
1087,193.38018499999998,194.5544801875,49.0,72.0
1088,194.4365225,194.602015375,68.0,61.0
1089,194.64779,195.073846125,64.0,93.0
1090,194.64779,195.116099625,59.0,85.0
1091,195.49286,195.66715568749999,57.0,85.0
1092,195.7041275,195.7516626875,59.0,55.0
1093,195.2815925,195.778071125,52.0,80.0
1094,195.7041275,195.8396908125,61.0,56.0
1095,195.070325,195.88018375,49.0,64.0
1096,194.64779,195.9101133125,40.0,73.0
1097,195.915395,196.1319441875,64.0,73.0
1098,196.1266625,196.6337045,69.0,75.0
1099,196.33793,196.788634,57.0,93.0
1100,196.33793,196.7974368125,66.0,75.0
1101,196.33793,196.8027185,62.0,85.0
1102,196.9717325,197.1636338125,50.0,56.0
1103,197.183,197.4136336875,69.0,75.0
1104,197.183,197.436521,57.0,97.0
1105,197.183,197.47173225,66.0,97.0
1106,197.183,197.482295625,62.0,103.0
1107,196.33793,197.5227885625,38.0,72.0
1108,196.760465,197.5403941875,45.0,66.0
1109,197.39426749999998,197.566802625,50.0,67.0
1110,197.8168025,197.8537743125,62.0,47.0
1111,197.605535,197.883703875,57.0,75.0
1112,197.8168025,197.91891512499998,69.0,56.0
1113,198.02806999999999,198.38722475,50.0,85.0
1114,198.02806999999999,198.6706753125,69.0,85.0
1115,198.02806999999999,198.686520375,62.0,97.0
1116,198.02806999999999,198.6988443125,65.0,109.0
1117,198.02806999999999,198.7270133125,57.0,97.0
1118,198.6618725,199.010463875,50.0,49.0
1119,198.02806999999999,199.03511175,38.0,72.0
1120,198.87314,199.2534215,69.0,88.0
1121,198.87314,199.27454825,65.0,106.0
1122,198.87314,199.2903933125,57.0,95.0
1123,198.87314,199.2903933125,62.0,101.0
1124,199.295675,199.3502524375,50.0,58.0
1125,199.295675,199.4030693125,38.0,78.0
1126,199.71821,199.911871875,45.0,85.0
1127,199.71821,200.26046325,61.0,97.0
1128,199.71821,200.27982943749998,64.0,103.0
1129,200.140745,200.2903928125,45.0,62.0
1130,199.71821,200.30975899999999,69.0,93.0
1131,200.3520125,200.4453223125,73.0,88.0
1132,200.3520125,200.4699701875,81.0,75.0
1133,200.56328,200.760463,45.0,70.0
1134,200.7745475,200.855533375,80.0,93.0
1135,200.7745475,200.85905449999998,71.0,78.0
1136,200.985815,201.242857125,45.0,52.0
1137,201.1970825,201.369617625,69.0,85.0
1138,201.1970825,201.4523640625,76.0,88.0
1139,201.6196175,201.7587019375,64.0,72.0
1140,201.830885,201.98229337499998,69.0,82.0
1141,199.71821,202.07736375,33.0,91.0
1142,201.830885,202.123138375,45.0,58.0
1143,202.0421525,202.1812369375,71.0,85.0
1144,202.25342,202.341448125,64.0,59.0
1145,202.25342,202.475250875,73.0,95.0
1146,202.4646875,202.580884625,64.0,50.0
1147,202.25342,202.6037719375,37.0,80.0
1148,202.4646875,202.609053625,69.0,70.0
1149,202.675955,202.911870375,71.0,82.0
1150,202.8872225,203.042152,73.0,85.0
1151,202.675955,203.045673125,40.0,76.0
1152,203.09849,203.2481378125,33.0,73.0
1153,203.09849,203.29919412499999,45.0,82.0
1154,203.09849,203.8167995,73.0,66.0
1155,203.09849,203.820320625,76.0,82.0
1156,203.09849,203.834405125,69.0,82.0
1157,203.09849,203.8467290625,64.0,85.0
1158,203.94356,204.0298275625,57.0,48.0
1159,203.94356,204.2270105625,76.0,85.0
1160,203.94356,204.2481373125,64.0,91.0
1161,203.94356,204.26398237499998,69.0,101.0
1162,203.94356,204.2727851875,73.0,95.0
1163,204.1548275,204.31855981249998,57.0,85.0
1164,203.7322925,204.454123125,45.0,59.0
1165,204.366095,204.5720808125,71.0,85.0
1166,204.78862999999998,205.123136875,56.0,91.0
1167,204.5773625,205.1248974375,76.0,78.0
1168,204.78862999999998,205.179474875,71.0,78.0
1169,204.78862999999998,205.182996,68.0,95.0
1170,204.78862999999998,205.2023621875,64.0,95.0
1171,205.42243249999999,205.7041225,56.0,67.0
1172,205.6337,205.9312350625,59.0,97.0
1173,205.8449675,205.9347561875,56.0,62.0
1174,204.78862999999998,205.9453195625,44.0,73.0
1175,205.6337,205.96468575,64.0,97.0
1176,205.6337,205.99285475,68.0,99.0
1177,206.056235,206.366094,66.0,85.0
1178,206.056235,206.3713756875,43.0,82.0
1179,206.2675025,206.418910875,68.0,80.0
1180,206.47877,207.0791218125,69.0,64.0
1181,206.47877,207.17595275,61.0,93.0
1182,206.47877,207.1988400625,64.0,95.0
1183,207.1125725,207.376656875,54.0,67.0
1184,207.32384,207.5896849375,61.0,95.0
1185,207.32384,207.6072905625,69.0,85.0
1186,207.32384,207.62665675,64.0,101.0
1187,207.5351075,207.72524825,54.0,73.0
1188,206.47877,207.7974313125,42.0,82.0
1189,206.901305,207.820318625,49.0,52.0
1190,207.746375,207.827360875,64.0,54.0
1191,207.746375,207.915389,61.0,85.0
1192,207.9576425,208.1213748125,69.0,69.0
1193,208.16891,208.517501375,52.0,88.0
1194,208.16891,208.8361631875,68.0,88.0
1195,208.16891,208.8713744375,59.0,91.0
1196,208.16891,208.8784166875,64.0,85.0
1197,208.80271249999998,209.0826419375,52.0,62.0
1198,209.01398,209.2657404375,64.0,101.0
1199,209.01398,209.2815855,68.0,97.0
1200,209.01398,209.292148875,59.0,95.0
1201,209.2252475,209.432993875,52.0,72.0
1202,208.16891,209.454120625,40.0,76.0
1203,209.43651499999999,209.6495430625,64.0,85.0
1204,209.85905,210.1671484375,50.0,85.0
1205,209.85905,210.482289125,62.0,85.0
1206,209.85905,210.4875708125,57.0,95.0
1207,209.85905,210.5016553125,66.0,76.0
1208,210.4928525,210.788627,50.0,76.0
1209,211.126655,211.295669,50.0,78.0
1210,209.85905,211.29742956249999,38.0,75.0
1211,210.70412,211.3537675625,57.0,103.0
1212,210.70412,211.436514,62.0,101.0
1213,210.70412,211.44355625,66.0,88.0
1214,209.6477825,211.4734858125,69.0,76.0
1215,211.54919,211.890739125,50.0,78.0
1216,211.54919,212.27454175,57.0,91.0
1217,211.54919,212.27454175,62.0,85.0
1218,211.54919,212.28686568749998,65.0,97.0
1219,211.54919,212.3044713125,69.0,72.0
1220,211.54919,212.7182035,38.0,75.0
1221,212.18299249999998,212.7798231875,50.0,43.0
1222,212.39426,212.8009499375,65.0,95.0
1223,212.39426,212.82383725,62.0,88.0
1224,212.39426,212.8326400625,57.0,85.0
1225,212.39426,212.883696375,69.0,73.0
1226,212.81679499999998,212.9382738125,40.0,101.0
1227,213.23933,213.5579918125,45.0,82.0
1228,213.23933,213.9013015,69.0,88.0
1229,213.23933,213.93651275,61.0,97.0
1230,213.23933,213.9382733125,64.0,97.0
1231,213.8731325,214.1953154375,45.0,47.0
1232,214.0844,214.5016533125,61.0,85.0
1233,214.0844,214.517498375,64.0,97.0
1234,214.0844,214.5210195,69.0,78.0
1235,214.506935,215.080878375,45.0,91.0
1236,214.92947,215.2340473125,57.0,80.0
1237,214.92947,215.432990875,66.0,88.0
1238,214.92947,215.503413375,62.0,93.0
1239,213.23933,215.92242725,33.0,76.0
1240,215.352005,216.0157370625,45.0,46.0
1241,215.77454,216.1002440625,61.0,91.0
1242,215.77454,216.140737,64.0,88.0
1243,215.77454,216.1671454375,69.0,76.0
1244,216.5544691875,216.62665225,69.0,38.0
1245,216.5016523125,216.778060625,64.0,37.0
1246,216.61961,217.0843985,73.0,73.0
1247,216.61961,217.64073625,45.0,69.0
1248,217.46468,217.7340460625,64.0,55.0
1249,217.46468,217.82383475,73.0,67.0
1250,218.30975,218.68651037499998,64.0,61.0
1251,218.30975,218.6988343125,71.0,69.0
1252,219.15482,219.27453825,76.0,73.0
1253,218.732285,219.2939044375,61.0,40.0
1254,218.30975,219.32031287499998,56.0,58.0
1255,219.99989,220.432988375,64.0,57.0
1256,219.99989,220.7551713125,69.0,64.0
1257,219.99989,221.2762978125,54.0,60.0
1258,220.84496,221.28862175,64.0,47.0
1259,220.422425,221.54214275,61.0,44.0
1260,221.69003,221.8748890625,68.0,54.0
1261,221.9012975,222.165381875,69.0,58.0
1262,222.112565,222.2375649375,71.0,64.0
1263,221.69003,222.313269125,52.0,61.0
1264,222.3238325,222.4805225625,73.0,64.0
1265,222.5351,222.7586914375,64.0,60.0
1266,222.5351,222.7586914375,76.0,48.0
1267,222.112565,222.844959,61.0,56.0
1268,222.7463675,222.9593955625,80.0,54.0
1269,222.957635,223.411860125,81.0,62.0
1270,223.38017,224.2093949375,78.0,66.0
1271,224.22523999999999,224.4770004375,62.0,46.0
1272,223.802705,224.5016483125,57.0,43.0
1273,223.38017,224.503408875,50.0,66.0
1274,224.22523999999999,224.5227750625,69.0,47.0
1275,224.22523999999999,224.609042625,74.0,57.0
1276,225.07031,225.7551688125,69.0,56.0
1277,225.07031,225.80974625,49.0,60.0
1278,225.07031,225.90833775,76.0,56.0
1279,226.65481625,227.179463875,74.0,48.0
1280,226.6319289375,227.1882666875,69.0,45.0
1281,226.76045,227.376646875,77.0,63.0
1282,227.60551999999998,227.735801625,76.0,64.0
1283,228.44354775,229.28861775,64.0,43.0
1284,228.5086885625,229.3537585625,45.0,45.0
1285,228.5086885625,229.3537585625,69.0,61.0
1286,226.76045,229.3784064375,50.0,38.0
1287,228.552702625,229.397772625,57.0,37.0
1288,228.6108011875,229.4558711875,73.0,56.0
