,start,end,pitch,velocity
0,51.70874838750001,52.001430787500006,73.0,73.0
1,51.89167488750001,52.05021118750001,75.0,76.0
2,52.07460138750001,52.80861257500001,77.0,78.0
3,52.42343838750001,52.90599623750001,68.0,61.0
4,52.77227538750001,53.17925188750001,73.0,76.0
5,53.12111238750001,53.72867016250001,77.0,70.0
6,54.86529738750001,55.21620072708334,75.0,78.0
7,55.22674288750001,55.643911235416674,68.0,57.0
8,55.588188387500004,55.92403149791667,70.0,70.0
9,55.949633887500006,57.24330757291668,75.0,52.0
10,57.63637955416667,57.89215543750001,65.0,43.0
11,57.72824695208334,57.90833190000001,70.0,62.0
12,57.75686138750001,58.29509641250001,73.0,83.0
13,58.10980238750001,58.55244922500001,65.0,69.0
14,58.46274338750001,59.40686056250001,70.0,76.0
15,58.815684387500006,59.54803696250001,73.0,80.0
16,60.22744838750001,60.37303655000001,72.0,75.0
17,60.40391888750001,60.73366304375001,75.0,81.0
18,60.58038938750001,60.91818666875001,72.0,80.0
19,57.75686138750001,62.72324438750001,89.0,127.0
20,62.72324438750001,63.42264845000001,84.0,114.0
21,64.28022563750001,64.44314691250001,72.0,79.0
22,64.44876488750002,64.6116861625,73.0,83.0
23,63.437529387500014,64.78303440000002,82.0,113.0
24,64.61730413750001,65.62292166250002,75.0,86.0
25,65.62853963750001,65.79146091250001,72.0,71.0
26,65.79707888750002,65.96000016250001,73.0,84.0
27,65.96561813750002,66.12853941250002,75.0,86.0
28,64.95438263750002,66.18169251875001,80.0,127.0
29,66.13415738750001,66.97218414583334,77.0,86.0
30,66.23626989166668,66.97218414583334,77.0,116.0
31,66.9792263875,67.1560553375,72.0,79.0
32,67.1621528875,67.3389818375,73.0,84.0
33,67.34507938750001,67.52190833750001,75.0,79.0
34,67.5280058875,67.52953027500001,77.0,78.0
35,67.67587147500001,68.4365408375,73.0,124.0
36,67.71093238750001,68.4365408375,73.0,84.0
37,68.44263838750001,68.62618277083334,73.0,94.0
38,68.65782835416668,68.78757524583334,82.0,127.0
39,68.63251188750002,68.81605627083334,75.0,84.0
40,68.79706892083334,68.99960065416668,84.0,124.0
41,68.8223853875,69.00592977083335,77.0,75.0
42,69.01225888750001,69.19580327083334,80.0,84.0
43,68.97903102500001,69.20055010833335,85.0,127.0
44,69.20213238750001,69.55755379583334,78.0,90.0
45,69.56357788750002,69.91899929583334,77.0,82.0
46,69.92502338750002,70.28044479583335,75.0,83.0
47,70.28646888750002,70.64189029583335,73.0,101.0
48,69.20213238750001,70.98375749791668,87.0,127.0
49,70.64791438750001,71.00333579583335,77.0,90.0
50,71.00935988750001,71.36478129583335,75.0,90.0
51,71.37080538750001,71.72622679583336,73.0,90.0
52,70.64791438750001,72.07863615833335,82.0,126.0
53,71.73225088750002,72.08767229583334,72.0,90.0
54,72.09369638750002,74.27263170833335,80.0,127.0
55,72.09369638750002,74.87977487916669,68.0,90.0
56,75.26501638750001,75.63843427083334,75.0,79.0
57,75.64476338750002,76.08621927500002,78.0,82.0
58,76.02451038750002,77.07672603333334,75.0,82.0
59,76.40425738750002,78.83780315000003,68.0,100.0
60,88.7000073875,89.1198787625,89.0,83.0
61,89.08462238749999,89.47404507499999,84.0,78.0
62,89.4692373875,89.87391412291666,85.0,79.0
63,89.8538523875,90.6686674875,82.0,60.0
64,106.41406793750001,106.54211648750001,80.0,84.0
65,106.49790925,106.772299,82.0,80.0
66,106.7479088,107.1152861875,80.0,76.0
67,107.1259569,107.22961525000001,75.0,80.0
68,107.15949342500001,107.48571235000001,77.0,75.0
69,107.5055293875,107.85766290000001,75.0,79.0
70,107.8713823875,108.29068636666668,73.0,76.0
71,109.77011738750001,110.13245931666667,89.0,84.0
72,110.1498643875,110.45207970833334,87.0,84.0
73,110.52961138750001,110.8998647125,85.0,91.0
74,110.9093583875,111.715759375,84.0,84.0
75,178.10134238749998,178.39354988749997,85.0,73.0
76,178.29614738749999,178.47796538749998,87.0,54.0
77,178.4909523875,179.14841926249997,89.0,79.0
78,179.27017238749997,179.8619447958333,89.0,79.0
79,180.02966638749996,180.38409692083331,89.0,68.0
80,180.40941338749997,180.72270466249998,87.0,60.0
81,180.78916038749998,181.16416054999996,85.0,73.0
82,181.16890738749996,181.58154913749996,89.0,61.0
83,181.54865438749997,182.13253619999998,87.0,72.0
84,183.32497088749997,183.97529550833332,92.0,2.0
85,182.73286538749997,184.0728981520833,80.0,50.0
86,184.53351413749996,184.7389933875,82.0,53.0
87,184.7389933875,184.9601470125,84.0,83.0
88,184.9313008875,185.48258238749997,85.0,82.0
89,185.50822338749998,185.77982842083333,85.0,82.0
90,186.2489643875,186.48198916041665,77.0,76.0
91,186.2489643875,186.59927315208333,85.0,83.0
92,186.61933488749997,186.92797697083333,84.0,78.0
93,186.98970538749998,187.36624872916664,82.0,75.0
94,187.3600758875,187.67180439166665,85.0,80.0
95,187.7304463875,188.37859476249997,75.0,73.0
96,187.7304463875,188.45729849375,84.0,81.0
97,188.85580238749998,189.2863034833333,89.0,79.0
98,189.24041738749997,189.99041771249998,84.0,77.0
99,189.99991138749996,190.2195060333333,72.0,76.0
100,190.20261413749995,190.42558716249997,73.0,82.0
101,190.40531688749996,190.62322234374997,75.0,80.0
102,190.60801963749995,190.89245307499996,77.0,78.0
103,190.81072238749996,191.82674701249996,78.0,91.0
104,191.96456738749995,192.39084901249996,82.0,69.0
105,192.34918238749995,193.07834832499995,80.0,75.0
106,193.50302738749997,193.69052719999996,85.0,79.0
107,193.69533488749997,193.84918088749995,87.0,80.0
108,193.88764238749997,194.83956451249998,84.0,94.0
109,195.04148738749996,195.41328188749998,80.0,84.0
110,195.42610238749995,196.57906337499995,82.0,86.0
111,197.00505038749995,197.34271238749994,78.0,95.0
112,197.39466038749995,197.70310163749994,77.0,90.0
113,197.78427038749996,198.15764663749994,75.0,86.0
114,198.17388038749996,198.55862026249994,73.0,84.0
115,198.56349038749994,199.78426838749994,70.0,95.0
116,199.34271038749995,200.13816413749996,77.0,84.0
117,200.12193038749996,201.52614976249995,75.0,82.0
118,201.29076038749994,201.61705876249994,73.0,86.0
119,201.68037038749995,202.39140863749995,71.0,94.0
120,202.45959038749996,203.26316101249995,69.0,84.0
121,203.23881038749994,205.08475009999995,68.0,90.0
122,210.90786793749996,211.03591648749995,80.0,84.0
123,210.99170924999996,211.26609899999994,82.0,80.0
124,211.24170879999994,211.60908618749994,80.0,76.0
125,211.61975689999994,211.72566388749993,75.0,80.0
126,211.65378888749993,211.98816388749995,77.0,75.0
127,212.00847638749994,212.36941388749995,75.0,79.0
128,212.38347638749994,212.78743907499995,73.0,76.0
129,214.21274138749993,214.56182612499995,89.0,84.0
130,214.57859438749995,214.86975239999995,87.0,84.0
131,214.94444738749993,215.30115406249993,85.0,91.0
132,215.31030038749995,216.1266586979166,84.0,84.0
133,218.25519438749996,218.92135172499994,82.0,84.0
134,218.25519438749996,218.92744927499996,70.0,90.0
135,219.71860638749996,220.73689723749996,80.0,98.0
136,219.71860638749996,220.75671427499995,68.0,86.0
137,221.18201838749994,221.98079743749994,68.0,90.0
138,221.18201838749994,222.02043151249995,80.0,95.0
139,222.64543038749994,223.27805119999996,65.0,74.0
140,222.64543038749994,223.34817302499994,77.0,84.0
141,229.30396038749996,229.65761828749996,68.0,83.0
142,229.48688688749996,229.73688643749995,70.0,98.0
143,229.66981338749994,229.88780079999995,73.0,98.0
144,229.85273988749995,230.06158097499994,75.0,94.0
145,230.03566638749996,232.04595338749996,80.0,86.0
146,234.09663738749995,234.16675921249995,84.0,84.0
147,234.09663738749995,234.16828359999997,96.0,96.0
148,234.46249038749997,234.50364884999996,80.0,86.0
149,234.46249038749997,234.51279517499995,92.0,103.0
150,243.9275413875,244.399599975,73.0,78.0
151,244.2804823875,244.6395209375,82.0,94.0
152,244.63342338750002,245.11360545000002,80.0,84.0
153,246.4626883875,246.91543147500002,73.0,70.0
154,246.82854138750002,247.208113875,75.0,77.0
155,247.1943943875,247.61381876250002,77.0,74.0
156,247.56024738750003,249.02750782500001,75.0,79.0
157,254.48265188750003,254.55672598750004,68.0,81.0
158,254.48265188750003,254.55981240833336,80.0,98.0
159,254.85302238750003,254.9147508041667,73.0,86.0
160,254.85302238750003,254.91629401458337,85.0,103.0
161,257.4320633875,257.50370960000004,84.0,84.0
162,257.4320633875,257.50370960000004,96.0,95.0
163,257.79791638750004,257.84669678750004,80.0,86.0
164,257.79791638750004,257.84974556250006,92.0,101.0
165,260.70711038750005,260.8637367708334,85.0,94.0
166,260.70711038750005,260.87126688541673,77.0,83.0
167,261.06855588750005,261.1574112395834,85.0,90.0
168,261.06855588750005,261.15891726250004,77.0,84.0
169,261.43000138750006,261.5128326479167,75.0,90.0
170,261.43000138750006,261.54295310625,84.0,86.0
171,261.79144688750006,261.89084440000005,82.0,80.0
172,261.79144688750006,261.90289258333337,77.0,81.0
173,262.15289238750006,262.94204839583335,72.0,82.0
174,262.15289238750006,262.99174715208335,80.0,90.0
175,274.4539983875,274.94027800000003,73.0,84.0
176,274.8198513875,275.90978845,75.0,101.0
177,275.18570438750004,276.00582486250005,80.0,90.0
178,309.53974788750014,309.6801800354168,75.0,90.0
179,309.53974788750014,309.7079578229168,84.0,95.0
180,309.9101183875002,310.0196863270835,75.0,84.0
181,309.9101183875002,310.0505505354168,84.0,91.0
182,310.28048888750016,310.3838839854168,77.0,84.0
183,310.28048888750016,310.39777287916684,85.0,90.0
184,310.65085938750013,310.75326894583344,75.0,81.0
185,310.65085938750013,310.78941349583346,84.0,75.0
186,311.01230488750014,311.10116023958346,72.0,86.0
187,311.01230488750014,311.13278672083345,80.0,90.0
188,311.37375038750014,311.71712361250013,73.0,90.0
189,311.37375038750014,311.77134043750016,82.0,86.0
