,start,end,pitch,velocity
0,77.54349838750002,77.72704277083335,73.0,78.0
1,77.73337188750001,77.91691627083335,75.0,82.0
2,77.92324538750002,78.27866679583335,77.0,81.0
3,78.28469088750002,78.64011229583335,77.0,83.0
4,78.64613638750002,78.97391432916669,77.0,83.0
5,78.97946988750002,79.30724782916668,77.0,77.0
6,79.31280338750003,79.6405813291667,77.0,79.0
7,79.64613688750002,79.97391482916669,75.0,82.0
8,79.97947038750002,80.36762843750002,73.0,73.0
9,80.37420738750002,80.76236543750001,77.0,71.0
10,80.76894438750001,81.15710243750001,75.0,79.0
11,81.16368138750002,81.55183943750002,75.0,77.0
12,81.55841838750001,81.94657643750001,72.0,80.0
13,81.95315538750002,82.14394493750001,70.0,68.0
14,82.15052388750001,83.41336751250002,68.0,79.0
15,83.41931988750001,83.5919387625,70.0,79.0
16,83.59789113750001,83.77051001250001,72.0,84.0
17,83.7764623875,84.1546671375,73.0,78.0
18,84.1610773875,84.53928213750001,73.0,82.0
19,84.5456923875,84.9238971375,73.0,84.0
20,84.93030738750001,85.3085121375,73.0,69.0
21,85.3149223875,85.68834027083334,73.0,80.0
22,85.6946693875,86.06808727083333,72.0,77.0
23,86.07441638750001,86.44783427083334,70.0,72.0
24,86.4541633875,86.82758127083333,73.0,79.0
25,86.8339103875,87.56847854583333,72.0,82.0
26,87.5746513875,87.93884904583334,72.0,79.0
27,87.9450218875,88.30921954583333,65.0,74.0
28,88.3153923875,89.4628271375,68.0,77.0
29,89.4692373875,89.8474421375,68.0,83.0
30,89.8538523875,90.58842054583333,70.0,82.0
31,90.5945933875,90.95879104583334,66.0,80.0
32,90.9649638875,91.32916154583333,65.0,80.0
33,91.3353343875,92.4827691375,63.0,78.0
34,92.4891793875,92.8673841375,70.0,61.0
35,92.8737943875,93.60836254583333,68.0,79.0
36,93.6145353875,93.97873304583334,65.0,78.0
37,93.9849058875,94.34910354583333,63.0,82.0
38,94.3552763875,95.51947404583333,61.0,84.0
39,95.5256468875,95.70465929583332,63.0,84.0
40,95.71083213749999,95.88984454583333,65.0,79.0
41,95.8960173875,96.2791338875,66.0,80.0
42,96.2856273875,96.6687438875,66.0,83.0
43,96.67523738749999,97.05835388749999,66.0,84.0
44,97.0648473875,97.4479638875,65.0,79.0
45,97.4544573875,97.7974804375,66.0,82.0
46,97.8032943875,98.1463174375,68.0,79.0
47,98.1521313875,98.51632904583334,70.0,75.0
48,98.52250188750001,98.88669954583334,73.0,93.0
49,98.8928723875,99.99781104583334,72.0,83.0
50,100.00398388750001,100.36818154583334,70.0,78.0
51,100.3743543875,101.56768772083333,68.0,79.0
52,101.57435438750001,101.76768772083334,73.0,78.0
53,101.77435438750001,101.96768772083334,75.0,82.0
54,101.9743543875,102.3214130375,77.0,81.0
55,102.3272953875,102.6743540375,77.0,83.0
56,102.6802363875,103.0272950375,77.0,83.0
57,103.0331773875,103.3802360375,77.0,77.0
58,103.3861183875,103.7692348875,77.0,79.0
59,103.77572838750001,104.15884488750001,75.0,82.0
60,104.1653383875,104.5484548875,73.0,73.0
61,104.5549483875,104.9380648875,77.0,71.0
62,104.94455838750001,105.3043138375,75.0,79.0
63,105.31041138750001,105.6701668375,75.0,77.0
64,105.67626438750001,106.0360198375,72.0,80.0
65,106.04211738750001,106.21894633750001,70.0,68.0
66,106.22504388750001,107.49943183750001,68.0,79.0
67,107.5055293875,107.6823583375,70.0,79.0
68,107.68845588750001,107.86528483750001,72.0,84.0
69,107.8713823875,108.24480027083334,73.0,78.0
70,108.2511293875,108.62454727083333,73.0,82.0
71,108.63087638750001,109.00429427083334,73.0,84.0
72,109.0106233875,109.38404127083334,73.0,69.0
73,109.39037038750001,109.76378827083334,73.0,80.0
74,109.77011738750001,110.14353527083334,72.0,77.0
75,110.1498643875,110.52328227083333,70.0,72.0
76,110.52961138750001,110.90302927083334,73.0,79.0
77,110.9093583875,111.6349668375,72.0,82.0
78,111.64106438750001,112.0008198375,72.0,79.0
79,112.00691738750001,112.3666728375,65.0,74.0
80,112.37277038750001,113.50312512916666,68.0,77.0
81,113.5098818875,113.90853062916666,68.0,83.0
82,113.9152873875,114.6880138875,70.0,82.0
83,114.6945073875,115.06792527083333,66.0,80.0
84,115.07425438749999,115.44767227083332,65.0,80.0
85,115.4540013875,116.59339112916666,63.0,78.0
86,116.6001478875,116.99879662916666,70.0,61.0
87,117.0055533875,117.74012154583333,68.0,79.0
88,117.7462943875,118.5190208875,72.0,90.0
89,118.5255143875,119.49806772083333,73.0,90.0
90,119.50473438750001,119.89806772083334,70.0,82.0
91,119.9047343875,120.09806772083334,68.0,79.0
92,120.1047343875,121.6367841375,70.0,79.0
93,121.6431943875,122.0213991375,70.0,82.0
94,122.0278093875,122.40601413750001,72.0,84.0
95,122.4124243875,122.7906291375,73.0,84.0
96,122.7970393875,123.1752441375,70.0,83.0
97,123.1816543875,125.14789827083334,75.0,84.0
98,125.1542273875,125.52764527083333,68.0,86.0
99,125.5339743875,125.94369595416666,68.0,83.0
100,125.9506403875,126.36036195416666,68.0,83.0
101,126.3673063875,127.1400328875,77.0,80.0
102,127.14652638749999,128.2652763875,77.0,83.0
103,128.2715263875,128.6402763875,77.0,84.0
104,128.6465263875,129.0152763875,75.0,82.0
105,129.0215263875,129.3902763875,73.0,91.0
106,129.3965263875,130.20058062916667,80.0,84.0
107,130.2073373875,131.3402492708333,75.0,86.0
108,131.3465783875,131.71999627083332,77.0,84.0
109,131.7263253875,132.09974327083333,75.0,84.0
110,132.10607238749998,132.4794902708333,73.0,90.0
111,132.4858193875,132.85923727083332,73.0,46.0
112,132.4858193875,132.85923727083332,73.0,90.0
113,132.8655663875,133.23898427083333,73.0,93.0
114,133.2453133875,133.61873127083334,73.0,94.0
115,133.62506038749999,133.99847827083332,85.0,86.0
116,134.0048073875,134.37822527083333,85.0,90.0
117,134.3845543875,134.75797227083333,84.0,86.0
118,134.76430138749998,135.13771927083332,82.0,84.0
119,135.1440483875,135.51746627083332,80.0,50.0
120,135.5237953875,135.89721327083333,82.0,78.0
121,135.90354238749998,136.2769602708333,80.0,81.0
122,136.2832893875,137.4162012708333,80.0,81.0
123,137.4225303875,137.79594827083332,73.0,98.0
124,137.8022773875,138.17569527083333,73.0,95.0
125,138.18202438749998,138.55544227083334,73.0,86.0
126,138.5617713875,139.31493627083333,73.0,98.0
127,139.32126538749998,140.45417727083333,82.0,94.0
128,140.4605063875,140.83392427083334,73.0,91.0
129,140.84025338749998,141.21367127083332,73.0,91.0
130,141.2200003875,141.59341827083333,73.0,94.0
131,141.5997473875,142.35291227083331,73.0,98.0
132,142.3592413875,143.4921532708333,80.0,90.0
133,143.4984823875,143.87190027083332,73.0,98.0
134,143.8782293875,144.25164727083333,73.0,90.0
135,144.25797638749998,144.6313942708333,73.0,83.0
136,144.6377233875,145.01114127083332,78.0,80.0
137,145.0174703875,145.39088827083333,78.0,90.0
138,145.3972173875,145.77063527083334,78.0,84.0
139,145.7769643875,146.15038227083332,80.0,78.0
140,146.1567113875,146.72000277083333,82.0,84.0
141,146.72633188749998,147.28962327083332,85.0,83.0
142,147.2959523875,147.66937027083333,77.0,83.0
143,147.6756993875,149.58802072083333,75.0,83.0
144,149.5946873875,149.9880207208333,68.0,82.0
145,149.9946873875,150.3880207208333,68.0,83.0
146,150.39468738749997,150.78802072083332,68.0,83.0
147,150.79468738749998,151.54785227083332,77.0,86.0
148,151.55418138749997,152.71232412916666,77.0,91.0
149,152.71908088749998,153.11772962916666,77.0,56.0
150,153.12448638749999,153.5026911375,75.0,86.0
151,153.50910138749998,153.8873061375,73.0,80.0
152,153.89371638749998,154.65653613749998,80.0,86.0
153,154.66294638749997,155.81038113749997,75.0,84.0
154,155.8167913875,156.1949961375,77.0,90.0
155,156.2014063875,156.5796111375,75.0,84.0
156,156.58602138749998,156.9642261375,73.0,84.0
157,156.97063638749998,157.3488411375,73.0,93.0
158,157.35525138749998,157.73345613749999,73.0,90.0
159,157.73986638749997,158.1040640458333,73.0,90.0
160,158.11023688749998,158.4744345458333,85.0,90.0
161,158.4806073875,158.8448050458333,85.0,91.0
162,158.85097788749997,159.21517554583332,84.0,79.0
163,159.22134838749997,159.59955313749998,82.0,84.0
164,159.60596338749997,159.98416813749998,80.0,84.0
165,159.99057838749997,160.36878313749997,82.0,80.0
166,160.37519338749996,160.75339813749997,80.0,84.0
167,160.75980838749996,161.84880688749996,80.0,91.0
168,161.85530038749997,162.23841688749997,72.0,98.0
169,162.24491038749997,162.62311513749998,73.0,95.0
170,162.62952538749997,163.00773013749998,72.0,90.0
171,163.01414038749996,163.77696013749997,73.0,79.0
172,163.78337038749996,164.93080513749996,82.0,79.0
173,164.93721538749998,165.31542013749998,82.0,90.0
174,165.32183038749997,165.67302051249996,84.0,90.0
175,165.67897288749998,166.03016301249997,85.0,91.0
176,166.03611538749996,166.74444801249996,85.0,98.0
177,166.75040038749998,167.94432788749998,80.0,86.0
178,167.95082138749999,168.33393788749999,73.0,94.0
179,168.3404313875,168.7235478875,73.0,95.0
180,168.7300413875,169.1131578875,73.0,91.0
181,169.11965138749997,169.4750727958333,78.0,91.0
182,169.48109688749997,169.83651829583332,78.0,91.0
183,169.84254238749998,170.19796379583332,78.0,90.0
184,170.20398788749998,170.5594092958333,80.0,82.0
185,170.56543338749998,171.1359456375,82.0,90.0
186,171.14235588749997,171.71286813749998,85.0,93.0
187,171.71927838749997,172.09748313749998,77.0,84.0
188,172.10389338749997,173.67717762916666,75.0,98.0
189,173.6839343875,174.09942664583332,78.0,91.0
190,174.1064688875,174.9444956458333,77.0,90.0
191,174.9515378875,175.15576289583333,75.0,90.0
192,175.1628051375,175.36703014583333,73.0,83.0
193,175.37407238749998,178.48445888749998,73.0,91.0
194,206.08296338749994,206.29010603749995,73.0,78.0
195,206.29724888749996,206.50439153749997,75.0,82.0
196,206.51153438749995,206.87128983749994,77.0,81.0
197,206.87738738749994,207.23714283749996,77.0,83.0
198,207.24324038749995,207.60299583749995,77.0,83.0
199,207.60909338749994,207.96884883749996,77.0,77.0
200,207.97494638749995,208.33470183749995,77.0,79.0
201,208.34079938749994,208.70055483749994,75.0,82.0
202,208.70665238749996,209.06640783749995,73.0,73.0
203,209.07250538749994,209.43226083749994,77.0,71.0
204,209.43835838749996,209.79811383749995,75.0,79.0
205,209.80421138749995,210.16396683749994,75.0,77.0
206,210.17006438749996,210.52981983749996,72.0,80.0
207,210.53591738749995,210.71274633749994,70.0,68.0
208,210.71884388749996,212.00222638749995,68.0,79.0
209,212.00847638749994,212.18972638749995,70.0,79.0
210,212.19597638749994,212.37722638749995,72.0,84.0
211,212.38347638749994,212.74323183749993,73.0,78.0
212,212.74932938749993,213.10908483749995,73.0,82.0
213,213.11518238749994,213.47493783749994,73.0,84.0
214,213.48103538749993,213.84079083749995,73.0,69.0
215,213.84688838749994,214.20664383749994,73.0,80.0
216,214.21274138749993,214.57249683749993,72.0,77.0
217,214.57859438749995,214.93834983749994,70.0,72.0
218,214.94444738749993,215.30420283749993,73.0,79.0
219,215.31030038749995,216.04486854583328,72.0,82.0
220,216.05104138749996,216.4152390458333,72.0,79.0
221,216.42141188749994,216.7856095458333,65.0,74.0
222,216.79178238749995,217.88324383749995,68.0,77.0
223,217.88934138749994,218.24909683749996,68.0,83.0
224,218.25519438749996,218.98080283749994,70.0,82.0
225,218.98690038749996,219.34665583749995,66.0,80.0
226,219.35275338749994,219.71250883749994,65.0,80.0
227,219.71860638749996,220.81006783749996,63.0,78.0
228,220.81616538749995,221.17592083749994,70.0,61.0
229,221.18201838749994,221.90762683749995,68.0,79.0
230,221.91372438749994,222.63933283749995,72.0,90.0
231,222.64543038749994,223.55396533749996,73.0,90.0
232,223.56006288749995,223.91981833749995,70.0,82.0
233,223.92591588749994,224.10274483749996,68.0,79.0
234,224.10884238749995,225.56615683749996,70.0,79.0
235,225.57225438749995,225.94100438749996,70.0,82.0
236,225.94725438749995,226.31600438749996,72.0,84.0
237,226.32225438749995,226.69100438749996,73.0,84.0
238,226.69725438749995,227.06600438749996,70.0,83.0
239,227.07225438749995,228.93200983749995,75.0,84.0
240,228.93810738749994,229.29786283749996,68.0,86.0
241,229.30396038749996,229.66371583749995,68.0,83.0
242,229.66981338749994,230.02956883749997,68.0,83.0
243,230.03566638749996,230.76127483749994,77.0,80.0
244,230.76737238749996,231.86782838749997,77.0,83.0
245,231.87407838749996,232.24282838749997,77.0,84.0
246,232.24907838749996,232.61782838749997,75.0,82.0
247,232.62407838749996,232.99282838749997,73.0,91.0
248,232.99907838749996,233.72468683749997,80.0,84.0
249,233.73078438749997,234.82224583749996,75.0,86.0
250,234.82834338749996,235.18809883749995,77.0,84.0
251,235.19419638749997,235.55395183749997,75.0,84.0
252,235.56004938749996,235.91980483749995,73.0,90.0
253,235.92590238749997,236.28565783749997,73.0,46.0
254,235.92590238749997,236.28565783749997,73.0,90.0
255,236.29175538749996,236.65151083749996,73.0,93.0
256,236.65760838749998,237.01302979583332,73.0,94.0
257,237.01905388749998,237.37447529583332,85.0,86.0
258,237.38049938749998,237.72352243749998,85.0,90.0
259,237.72933638749998,238.07235943749998,84.0,86.0
260,238.0781733875,238.4211964375,82.0,84.0
261,238.4270103875,238.7700334375,80.0,50.0
262,238.7758473875,239.1356028375,82.0,78.0
263,239.14170038749998,239.5014558375,80.0,81.0
264,239.5075533875,240.5990148375,80.0,81.0
265,240.6051123875,240.96486783749998,73.0,98.0
266,240.9709653875,241.3307208375,73.0,95.0
267,241.3368183875,241.69657383749998,73.0,86.0
268,241.7026713875,242.45583627083334,73.0,98.0
269,242.4621653875,243.56871803750002,82.0,94.0
270,243.5746003875,243.9216590375,73.0,91.0
271,243.9275413875,244.27460003750002,73.0,91.0
272,244.2804823875,244.6275410375,73.0,94.0
273,244.63342338750002,245.35903183750003,73.0,98.0
274,245.36512938750002,246.45659083750002,80.0,90.0
275,246.4626883875,246.8224438375,73.0,98.0
276,246.82854138750002,247.18829683750002,73.0,90.0
277,247.1943943875,247.5541498375,73.0,83.0
278,247.56024738750003,247.91143751250002,78.0,80.0
279,247.91738988750004,248.26858001250002,78.0,90.0
280,248.27453238750002,248.62572251250003,78.0,84.0
281,248.63167488750003,248.9828650125,80.0,78.0
282,248.98881738750003,249.51857876250003,82.0,84.0
283,249.52453113750002,250.0542925125,85.0,83.0
284,250.06024488750003,250.41143501250002,77.0,83.0
285,250.4173873875,252.26788383750002,75.0,83.0
286,252.27398138750002,252.63373683750004,68.0,82.0
287,252.63983438750003,252.99958983750003,68.0,83.0
288,253.00568738750002,253.36544283750004,68.0,83.0
289,253.37154038750003,254.10610854583337,77.0,86.0
290,254.11228138750005,255.21722004583336,77.0,91.0
291,255.22339288750004,255.58759054583336,77.0,56.0
292,255.59376338750005,255.95796104583337,75.0,86.0
293,255.96413388750003,256.32833154583335,73.0,80.0
294,256.33450438750003,257.0601128375,80.0,86.0
295,257.0662103875,258.15767183750006,75.0,84.0
296,258.16376938750005,258.5235248375,77.0,90.0
297,258.5296223875,258.88937783750004,75.0,84.0
298,258.8954753875,259.25523083750005,73.0,84.0
299,259.26132838750004,259.61674979583336,73.0,93.0
300,259.62277388750005,259.97819529583336,73.0,90.0
301,259.98421938750005,260.33964079583336,73.0,90.0
302,260.34566488750005,260.70108629583336,85.0,90.0
303,260.70711038750005,261.06253179583337,85.0,91.0
304,261.06855588750005,261.42397729583337,84.0,79.0
305,261.43000138750006,261.78542279583337,82.0,84.0
306,261.79144688750006,262.14686829583337,80.0,84.0
307,262.15289238750006,262.5083137958334,82.0,80.0
308,262.51433788750006,262.8697592958334,80.0,84.0
309,262.87578338750006,263.9540957958334,80.0,91.0
310,263.96011988750007,264.3155412958334,72.0,98.0
311,264.3215653875,264.6769867958334,73.0,95.0
312,264.6830108875,265.0384322958334,72.0,90.0
313,265.0444563875,265.7613232958334,73.0,79.0
314,265.7673473875,266.87228604583333,82.0,79.0
315,266.8784588875,267.24265654583337,82.0,90.0
316,267.24882938750005,267.61302704583335,84.0,90.0
317,267.61919988750003,267.9833975458334,85.0,91.0
318,267.9895703875,268.7064372958333,85.0,98.0
319,268.7124613875,269.79510783750004,80.0,86.0
320,269.80120538750003,270.1609608375,73.0,94.0
321,270.1670583875,270.5268138375,73.0,95.0
322,270.5329113875,270.89266683750003,73.0,91.0
323,270.8987643875,271.24582303750003,78.0,91.0
324,271.2517053875,271.5987640375,78.0,91.0
325,271.6046463875,271.9517050375,78.0,90.0
326,271.95758738750004,272.30464603750005,80.0,82.0
327,272.3105283875,272.83405753750003,82.0,90.0
328,272.8399398875,273.3634690375,85.0,93.0
329,273.36935138750005,273.7164100375,77.0,84.0
330,273.72229238750003,275.17960683750005,75.0,98.0
331,275.55155738750005,275.9113128375,68.0,86.0
332,275.9174103875,276.27716583750004,68.0,83.0
333,276.2832633875,276.64301883750005,68.0,83.0
334,276.64911638750004,277.3747248375,77.0,80.0
335,277.3808223875,278.45555143750005,77.0,83.0
336,278.46136538750005,278.80438843750005,77.0,84.0
337,278.81020238750006,279.15322543750005,75.0,82.0
338,279.15903938750006,279.50206243750006,73.0,91.0
339,279.50787638750006,280.2247432958334,80.0,84.0
340,280.23076738750007,281.3090797958334,75.0,86.0
341,281.3151038875001,281.6705252958334,77.0,84.0
342,281.6765493875001,282.0319707958334,75.0,84.0
343,282.0379948875001,282.3934162958334,73.0,90.0
344,282.3994403875001,282.7464990375001,73.0,46.0
345,282.3994403875001,282.7464990375001,73.0,90.0
346,282.75238138750007,283.0994400375001,73.0,93.0
347,283.10532238750005,283.45238103750006,73.0,94.0
348,283.4582633875001,283.8053220375001,85.0,86.0
349,283.8112043875001,284.1582630375001,85.0,90.0
350,284.16414538750007,284.5112040375001,84.0,86.0
351,284.51708638750006,284.86414503750007,82.0,84.0
352,284.8700273875001,285.21708603750005,80.0,50.0
353,285.2229683875001,285.5700270375001,82.0,78.0
354,285.5759093875001,285.9229680375001,80.0,81.0
355,285.92885038750006,287.04760038750004,80.0,81.0
356,287.05385038750006,287.42260038750004,73.0,98.0
357,287.42885038750006,287.79760038750004,73.0,95.0
358,287.80385038750006,288.17260038750004,73.0,86.0
359,288.17885038750006,288.87885003750006,73.0,98.0
360,288.88473238750004,289.9460357958334,82.0,94.0
361,289.95205988750007,290.3074812958334,73.0,91.0
362,290.3135053875001,290.6689267958334,73.0,91.0
363,290.6749508875001,291.0303722958334,73.0,94.0
364,291.0363963875001,291.7532632958334,73.0,98.0
365,291.7592873875001,292.85092838750006,80.0,90.0
366,292.8571783875001,293.22592838750006,73.0,98.0
367,293.2321783875001,293.60092838750006,73.0,90.0
368,293.6071783875001,293.97592838750006,73.0,83.0
369,293.9821783875001,294.3375997958334,78.0,80.0
370,294.3436238875001,294.6990452958334,78.0,90.0
371,294.7050693875001,295.0604907958334,78.0,84.0
372,295.0665148875001,295.4219362958334,80.0,78.0
373,295.4279603875001,295.9454019375001,82.0,84.0
374,295.9512158875001,296.4686574375001,85.0,83.0
375,296.4744713875001,296.8174944375001,77.0,83.0
376,296.8233083875001,298.6161490375001,75.0,83.0
377,298.6220313875001,298.9690900375001,68.0,82.0
378,298.9749723875001,299.3220310375001,68.0,83.0
379,299.32791338750013,299.67497203750014,68.0,83.0
380,299.6808543875001,300.39772129583343,77.0,86.0
381,300.4037453875001,301.4953863875001,77.0,91.0
382,301.5016363875001,301.8703863875001,77.0,56.0
383,301.8766363875001,302.2453863875001,75.0,86.0
384,302.2516363875001,302.6203863875001,73.0,80.0
385,302.6266363875001,303.3522448375001,80.0,86.0
386,303.3583423875001,304.44980383750016,75.0,84.0
387,304.45590138750015,304.8156568375001,77.0,90.0
388,304.8217543875001,305.18150983750013,75.0,84.0
389,305.1876073875001,305.54736283750015,73.0,84.0
390,305.55346038750014,305.9132158375001,73.0,93.0
391,305.91931338750015,306.2790688375001,73.0,90.0
392,306.2851663875001,306.64492183750014,73.0,90.0
393,306.6510193875001,307.01077483750015,85.0,90.0
394,307.01687238750014,307.36393103750015,85.0,91.0
395,307.36981338750013,307.71687203750014,84.0,79.0
396,307.7227543875001,308.0698130375001,82.0,84.0
397,308.07569538750016,308.42275403750017,80.0,84.0
398,308.42863638750015,308.7928340458335,82.0,80.0
399,308.7990068875001,309.1632045458335,80.0,84.0
400,309.16937738750016,310.2743160458335,80.0,91.0
401,310.28048888750016,310.6446865458335,72.0,98.0
402,310.65085938750013,311.00628079583345,73.0,95.0
403,311.01230488750014,311.36772629583345,72.0,90.0
404,311.37375038750014,312.09061729583345,73.0,79.0
405,312.09664138750014,313.17495379583346,82.0,79.0
406,313.18097788750015,313.53639929583346,82.0,90.0
407,313.54242338750015,313.89784479583346,84.0,90.0
408,313.90386888750015,314.25929029583347,85.0,91.0
409,314.26531438750015,314.99092283750014,85.0,98.0
410,314.99702038750013,316.0884818375002,80.0,86.0
411,316.0945793875002,316.45433483750014,73.0,94.0
412,316.46043238750013,316.82018783750016,73.0,95.0
413,316.82628538750015,317.1860408375002,73.0,91.0
414,317.19213838750017,317.55189383750013,78.0,91.0
415,317.5579913875002,317.91774683750015,78.0,91.0
416,317.92384438750014,318.28359983750016,78.0,90.0
417,318.28969738750015,318.6494528375002,80.0,82.0
418,318.65555038750017,319.19823233750014,82.0,90.0
419,319.20432988750014,319.74701183750017,85.0,93.0
420,319.75310938750016,320.1128648375002,77.0,84.0
421,320.1189623875002,321.63356343750013,75.0,98.0
422,321.64014238750013,322.01834713750014,78.0,91.0
423,322.02475738750013,322.78757713750014,77.0,90.0
424,322.7939873875001,322.9798846375001,75.0,90.0
425,322.98629488750015,323.17219213750013,73.0,83.0
426,323.1786023875001,326.19237154583345,73.0,91.0
427,327.3908508875001,327.82999202500014,68.0,80.0
428,327.7995042750001,328.3604788750001,78.0,82.0
429,328.3101740875001,328.8147463500001,77.0,83.0
430,328.78883176250014,329.21718465000015,75.0,79.0
431,329.1699286375001,331.5906559875001,77.0,78.0
432,335.01100888750017,335.1900212958335,73.0,78.0
433,335.1961941375002,335.3752065458335,75.0,82.0
434,335.3813793875002,335.7455770458335,77.0,81.0
435,335.7517498875002,336.11594754583354,77.0,83.0
436,336.1221203875002,336.4863180458335,77.0,83.0
437,336.4924908875002,336.85668854583355,77.0,77.0
438,336.8628613875002,337.2270590458335,77.0,79.0
439,337.2332318875002,337.5974295458335,75.0,82.0
440,337.6036023875002,337.9867188875002,73.0,73.0
441,337.9932123875002,338.37632888750016,77.0,71.0
442,338.3828223875002,338.7258454375002,75.0,79.0
443,338.7316593875002,339.0746824375002,75.0,77.0
444,339.0804963875002,339.4587011375002,72.0,80.0
445,339.4651113875002,339.6510086375002,70.0,68.0
446,339.6574188875002,340.9971611375002,68.0,79.0
447,341.0035713875002,341.1894686375002,70.0,79.0
448,341.1958788875002,341.3817761375002,72.0,84.0
449,341.3881863875002,341.7479418375002,73.0,78.0
450,341.7540393875002,342.11379483750017,73.0,82.0
451,342.11989238750016,342.4796478375002,73.0,84.0
452,342.4857453875002,342.8455008375002,73.0,69.0
453,342.8515983875002,343.2298031375002,73.0,80.0
454,343.2362133875002,343.6144181375002,72.0,77.0
455,343.6208283875002,343.98502604583354,70.0,72.0
456,343.99119888750016,344.3553965458335,73.0,79.0
457,344.3615693875002,345.1053193875002,72.0,82.0
458,345.1115693875002,345.4803193875002,72.0,79.0
459,345.4865693875002,345.8553193875002,65.0,74.0
460,345.8615693875002,346.9956437208335,68.0,77.0
461,347.0023103875002,347.39564372083356,68.0,83.0
462,347.4023103875002,348.11917729583354,70.0,82.0
463,348.1252013875002,348.47639151250024,66.0,80.0
464,348.48234388750024,348.83353401250025,65.0,80.0
465,348.83948638750024,349.92718927083354,63.0,78.0
466,349.9335183875002,350.30693627083355,70.0,61.0
467,350.3132653875002,351.02159801250025,68.0,79.0
468,351.02755038750024,351.3787405125002,65.0,78.0
469,351.38469288750025,351.7358830125002,63.0,82.0
470,351.7418353875002,352.83432513750023,61.0,84.0
471,352.8407353875002,353.0266326375002,63.0,84.0
472,353.03304288750024,353.2189401375002,65.0,79.0
473,353.2253503875002,353.57654051250023,66.0,80.0
474,353.5824928875002,353.93368301250024,66.0,83.0
475,353.93963538750023,354.1777303875002,73.0,98.0
476,356.0385358875002,356.5191715791669,63.0,79.0
477,356.26930513750017,356.5886159125002,65.0,73.0
478,356.5000743875002,356.86812935416685,66.0,79.0
479,357.3334063875002,358.6180090625002,75.0,86.0
480,358.16673838750023,359.76249081250023,70.0,86.0
481,359.18368638750025,361.06683881250024,72.0,86.0
482,360.48803438750025,362.37118681250024,73.0,86.0
