,start,end,pitch,velocity
0,52.07460138750001,53.746112012500014,49.0,82.0
1,55.949633887500006,56.97372947083334,60.0,47.0
2,54.86529738750001,57.09421130416668,48.0,76.0
3,55.22674288750001,57.14541608333334,56.0,55.0
4,57.75686138750001,59.75980156250001,58.0,70.0
5,60.937531887500015,61.53128129375001,65.0,60.0
6,61.29467438750001,61.717293012500015,68.0,71.0
7,60.937531887500015,62.361637606250014,60.0,62.0
8,60.58038938750001,62.412232793750015,53.0,84.0
9,61.65181688750001,62.508958887500015,72.0,68.0
10,63.437529387500014,63.92629321250001,66.0,73.0
11,63.437529387500014,63.968428025000016,70.0,80.0
12,63.437529387500014,64.06112461250001,61.0,47.0
13,63.77460788750001,64.31674247500001,54.0,57.0
14,63.437529387500014,64.42348400000002,42.0,69.0
15,64.78584338750001,65.66224748750001,44.0,58.0
16,64.78584338750001,65.69735983125001,68.0,69.0
17,64.78584338750001,65.70719128750001,63.0,68.0
18,64.78584338750001,65.73247217500001,60.0,61.0
19,64.78584338750001,65.79286540625002,56.0,57.0
20,66.13415738750001,67.0676408625,63.0,71.0
21,66.13415738750001,67.09355545000001,68.0,61.0
22,66.13415738750001,67.0981286125,53.0,72.0
23,66.13415738750001,67.102701775,60.0,54.0
24,67.71093238750001,68.114895075,58.0,57.0
25,67.71093238750001,68.40605308750001,61.0,78.0
26,67.71093238750001,68.45054978333334,65.0,71.0
27,68.44263838750001,68.75276510416668,58.0,58.0
28,67.71093238750001,68.77017017500002,46.0,71.0
29,69.01225888750001,69.48526469583335,66.0,76.0
30,69.01225888750001,69.50333697083335,63.0,72.0
31,69.01225888750001,69.54098754375002,70.0,73.0
32,69.38285513750002,70.55755301250001,59.0,59.0
33,69.92502338750002,71.04851648333334,63.0,60.0
34,70.28646888750002,71.23225127916668,70.0,78.0
35,71.00935988750001,71.46417880833334,59.0,34.0
36,69.01225888750001,71.51538358750001,47.0,81.0
37,71.37080538750001,71.65544371875002,66.0,61.0
38,72.09369638750002,72.52025888750002,66.0,75.0
39,72.09369638750002,72.52650888750001,61.0,74.0
40,72.84369638750002,73.30905746875001,61.0,68.0
41,73.20514188750002,73.56658738750002,66.0,70.0
42,73.56658738750002,73.72318087500003,68.0,61.0
43,74.39076363750002,74.62977475000002,75.0,76.0
44,72.46869638750002,74.64488464791668,56.0,52.0
45,72.09369638750002,74.78636823750003,44.0,73.0
46,74.88526938750002,76.01976355000002,70.0,39.0
47,74.88526938750002,76.11944713750002,78.0,76.0
48,74.88526938750002,76.12419397500001,54.0,21.0
49,74.88526938750002,76.16533323333336,73.0,59.0
50,77.92324538750002,78.60246172291669,68.0,56.0
51,77.92324538750002,78.69752530208335,73.0,72.0
52,77.92324538750002,78.83641426041669,77.0,71.0
53,78.97946988750002,79.80724807916668,68.0,56.0
54,79.31280338750003,79.89613701250002,80.0,57.0
55,79.97947038750002,80.35118106250002,68.0,50.0
56,77.92324538750002,80.37749686250001,61.0,60.0
57,80.37420738750002,80.74427332500001,77.0,73.0
58,80.76894438750001,81.12749716250002,75.0,80.0
59,81.55841838750001,82.16368178750001,80.0,57.0
60,82.34789238750001,82.62318973125001,84.0,71.0
61,81.95315538750002,82.6931301375,72.0,48.0
62,82.34789238750001,82.71842773125002,75.0,57.0
63,81.16368138750002,83.14253445000001,68.0,42.0
64,80.76894438750001,83.19759391875002,60.0,78.0
65,83.41931988750001,83.60681970000002,73.0,48.0
66,83.59789113750001,83.81011620000001,75.0,69.0
67,83.7764623875,84.09857745000001,68.0,59.0
68,83.7764623875,84.537679575,73.0,76.0
69,84.1610773875,84.9944098875,65.0,62.0
70,84.5456923875,85.07774313750001,70.0,60.0
71,84.93030738750001,85.4051123,77.0,53.0
72,85.3149223875,86.0127075,75.0,69.0
73,86.07441638750001,86.2832772375,73.0,74.0
74,86.07441638750001,86.32283421666668,68.0,43.0
75,86.07441638750001,86.35606207916668,65.0,57.0
76,83.7764623875,86.3592266375,58.0,61.0
77,86.8339103875,87.15952778541667,63.0,63.0
78,86.8339103875,87.33699698333334,72.0,71.0
79,86.8339103875,87.48514518333333,68.0,59.0
80,87.2042808875,87.78607121458333,60.0,46.0
81,87.5746513875,87.95428115,65.0,58.0
82,87.9450218875,88.4371871375,75.0,72.0
83,88.3153923875,88.7352637625,63.0,52.0
84,88.3153923875,88.80417394999999,72.0,72.0
85,89.08462238749999,89.3282118875,63.0,62.0
86,88.3153923875,89.3410323875,60.0,59.0
87,89.08462238749999,89.34904519999999,68.0,73.0
88,86.8339103875,89.441993825,53.0,67.0
89,89.4692373875,89.7865447625,66.0,75.0
90,89.8538523875,89.97576601041666,68.0,68.0
91,89.8538523875,90.14397594583333,61.0,68.0
92,89.8538523875,90.36619824583333,70.0,78.0
93,90.2242228875,90.93409967916666,61.0,59.0
94,89.8538523875,90.9649638875,54.0,68.0
95,90.5945933875,90.98965525416666,66.0,67.0
96,90.9649638875,91.26897633958333,73.0,80.0
97,91.3353343875,91.6750776375,68.0,57.0
98,91.3353343875,91.83212876249999,72.0,75.0
99,92.10456438749999,92.3161026375,68.0,54.0
100,91.7199493875,92.4314871375,63.0,52.0
101,91.3353343875,92.481166575,56.0,72.0
102,92.10456438749999,92.513217825,75.0,73.0
103,92.10456438749999,92.5276408875,72.0,62.0
104,92.8737943875,93.24570809791666,72.0,79.0
105,92.8737943875,93.32132540833334,63.0,54.0
106,93.2441648875,93.79663421666666,60.0,74.0
107,92.8737943875,93.86607868541667,53.0,70.0
108,93.6145353875,93.97873304583334,68.0,78.0
109,93.9849058875,94.28274549791666,72.0,75.0
110,94.1700911375,94.6452763875,65.0,52.0
111,94.3552763875,94.68360972083333,73.0,73.0
112,94.3552763875,94.78194305416666,68.0,68.0
113,95.1552763875,95.46700489166666,68.0,47.0
114,94.3552763875,95.48398020625,46.0,53.0
115,94.7552763875,95.54725183333333,53.0,63.0
116,95.1552763875,95.61515309166666,58.0,59.0
117,95.1552763875,95.61515309166666,61.0,61.0
118,95.5256468875,95.70620250625,65.0,75.0
119,95.8960173875,96.3327052625,66.0,78.0
120,95.8960173875,96.3359520125,61.0,69.0
121,96.67523738749999,96.9317306375,61.0,76.0
122,97.0648473875,97.3765353875,70.0,75.0
123,96.2856273875,97.5067829375,58.0,62.0
124,97.4544573875,97.54021315,66.0,76.0
125,97.4544573875,97.5620154625,73.0,79.0
126,97.4544573875,97.9806198625,63.0,59.0
127,95.8960173875,98.23237832916668,51.0,76.0
128,98.1521313875,98.27867464166667,70.0,63.0
129,98.1521313875,98.34966232083335,63.0,57.0
130,97.8032943875,98.46540310208334,58.0,39.0
131,98.1521313875,98.69997108541668,78.0,82.0
132,98.52250188750001,98.75552666041668,68.0,57.0
133,98.52250188750001,98.91447733333334,77.0,73.0
134,98.8928723875,99.253983625,68.0,57.0
135,99.6336133875,99.79410727083334,61.0,42.0
136,99.81879863750001,99.88669989583335,63.0,61.0
137,98.8928723875,100.10429256458335,44.0,58.0
138,100.00398388750001,100.13207035208335,66.0,71.0
139,99.4484281375,100.16602098125,56.0,58.0
140,100.1891691375,100.36046549375001,73.0,77.0
141,99.26324288750001,100.39935438750001,51.0,76.0
142,100.3743543875,100.65768772083334,80.0,57.0
143,100.3743543875,100.68602105416667,68.0,62.0
144,100.3743543875,100.75102105416667,44.0,55.0
145,100.77435438750001,101.17935438750001,56.0,49.0
146,101.1743543875,101.33268772083333,78.0,81.0
147,101.1743543875,101.42768772083333,66.0,40.0
148,101.1743543875,101.58935438750001,58.0,56.0
149,101.57435438750001,101.61768772083335,60.0,52.0
150,101.77435438750001,102.2096483875,63.0,39.0
151,101.9743543875,102.3140601,68.0,73.0
152,101.9743543875,102.3258248,73.0,76.0
153,101.9743543875,102.358177725,65.0,68.0
154,101.9743543875,102.6214128875,49.0,79.0
155,102.3272953875,102.7140599,56.0,68.0
156,102.6802363875,102.93170685,68.0,69.0
157,102.6802363875,103.0067068125,77.0,78.0
158,102.6802363875,103.0625891375,61.0,58.0
159,103.0331773875,103.2684713875,68.0,60.0
160,103.0331773875,103.4689105125,63.0,58.0
161,103.0331773875,103.47540401250001,75.0,76.0
162,103.3861183875,103.7124167625,68.0,69.0
163,103.3861183875,103.7335206375,73.0,80.0
164,103.3861183875,103.9039750125,65.0,72.0
165,104.1653383875,104.4624160125,77.0,81.0
166,103.77572838750001,104.51111726250001,63.0,69.0
167,104.1653383875,104.52248088750001,68.0,75.0
168,104.5549483875,104.9380648875,80.0,69.0
169,104.94455838750001,105.33022842500002,48.0,75.0
170,105.31041138750001,105.71742285,60.0,62.0
171,104.94455838750001,105.799739775,68.0,69.0
172,104.94455838750001,106.04516616250001,75.0,80.0
173,106.04211738750001,106.82412817500001,65.0,76.0
174,106.40797038750001,106.83327450000002,72.0,80.0
175,106.77382338750002,107.20065188750002,73.0,80.0
176,106.40797038750001,107.24943228750001,68.0,44.0
177,107.1396763875,107.49638306250002,75.0,79.0
178,105.67626438750001,107.86985800000001,63.0,72.0
179,107.1396763875,107.86985800000001,65.0,71.0
180,107.5055293875,107.90777480833334,77.0,80.0
181,107.86985800000001,108.27486357500001,73.0,82.0
182,107.86985800000001,108.33815474166667,68.0,67.0
183,108.2511293875,108.77011695416667,65.0,75.0
184,108.63087638750001,108.98688920000001,70.0,75.0
185,108.63087638750001,109.02169934166668,68.0,54.0
186,109.0106233875,109.28752224166668,73.0,79.0
187,107.86985800000001,109.77011738750001,58.0,78.0
188,109.39037038750001,109.80492752916668,73.0,52.0
189,109.39037038750001,109.850813625,68.0,73.0
190,109.39037038750001,109.87771237083334,65.0,74.0
191,109.77011738750001,110.54226962083334,46.0,60.0
192,110.52961138750001,110.68783930416667,65.0,71.0
193,110.1498643875,110.69416842083334,58.0,50.0
194,110.52961138750001,110.8476495,73.0,81.0
195,110.9093583875,111.48710125000001,63.0,71.0
196,110.9093583875,111.5130158375,72.0,81.0
197,111.64106438750001,112.13953910000001,60.0,68.0
198,112.00691738750001,112.3666728375,68.0,68.0
199,112.37277038750001,112.71423318750001,65.0,73.0
200,111.27521138750001,112.7721599125,56.0,71.0
201,112.37277038750001,113.10954395625,60.0,58.0
202,113.1044763875,113.37981428958334,73.0,68.0
203,110.9093583875,113.44738187291667,53.0,69.0
204,113.1044763875,113.560557575,65.0,58.0
205,113.5098818875,113.67711165625,72.0,75.0
206,113.9152873875,114.2740532625,42.0,75.0
207,113.9152873875,114.4899621375,66.0,77.0
208,113.9152873875,114.5987282625,61.0,58.0
209,113.9152873875,114.72931752916666,70.0,75.0
210,114.3048973875,114.76254539166666,54.0,59.0
211,114.6945073875,114.84957074583333,56.0,71.0
212,114.6945073875,114.87330493333333,61.0,34.0
213,114.6945073875,114.98722903333334,68.0,78.0
214,115.07425438749999,115.3875456625,66.0,78.0
215,115.4540013875,115.77498915416666,72.0,80.0
216,115.4540013875,115.80276694166666,63.0,69.0
217,115.4540013875,115.82591509791666,68.0,72.0
218,115.4540013875,116.13455718125,44.0,53.0
219,115.8243718875,116.1669646,51.0,57.0
220,116.1947423875,116.51737759791666,68.0,75.0
221,116.1947423875,116.54609382083333,73.0,79.0
222,116.1947423875,116.61703978333334,56.0,61.0
223,116.6001478875,116.975147975,58.0,61.0
224,117.0055533875,117.34197325833334,63.0,78.0
225,117.0055533875,117.41759056875,68.0,80.0
226,117.7462943875,117.9443461375,65.0,63.0
227,117.37592388750001,118.0498655125,60.0,68.0
228,117.0055533875,118.0969433875,53.0,72.0
229,117.7462943875,118.0985667625,72.0,80.0
230,117.7462943875,118.1894757625,68.0,75.0
231,118.1359043875,118.2738912625,75.0,79.0
232,118.5255143875,118.8209686375,73.0,82.0
233,118.5255143875,118.8225920125,65.0,72.0
234,118.9151243875,119.3547343875,53.0,69.0
235,119.3047343875,119.6547343875,58.0,53.0
236,119.3047343875,119.66640105416667,61.0,71.0
237,119.3047343875,119.66640105416667,70.0,76.0
238,118.5255143875,119.69806772083334,46.0,72.0
239,119.70473438750001,119.80140105416667,53.0,78.0
240,120.1047343875,120.430054575,61.0,75.0
241,120.1047343875,120.532618575,70.0,73.0
242,120.1047343875,120.583900575,66.0,77.0
243,120.4893493875,120.9252463875,58.0,54.0
244,120.8739643875,121.276207575,65.0,75.0
245,120.8739643875,121.333899825,63.0,54.0
246,121.2585793875,121.7024892,58.0,54.0
247,120.8739643875,121.71370713750001,68.0,76.0
248,121.6431943875,121.9605017625,63.0,70.0
249,121.6431943875,121.987745325,66.0,77.0
250,121.6431943875,122.0406298875,70.0,78.0
251,122.0278093875,122.5101807,58.0,60.0
252,122.4124243875,122.8050522,66.0,78.0
253,122.4124243875,122.8290906375,61.0,74.0
254,122.4124243875,122.84832138750001,73.0,83.0
255,122.7970393875,122.8739623875,58.0,72.0
256,120.1047343875,122.9028085125,51.0,73.0
257,123.1816543875,123.59484817083333,61.0,76.0
258,123.1816543875,123.60700092916667,73.0,73.0
259,123.1816543875,123.6087370375,66.0,80.0
260,123.1816543875,123.6243620125,70.0,75.0
261,123.59832038750001,123.99936141250001,51.0,71.0
262,124.0149863875,124.21118900416667,61.0,79.0
263,124.0149863875,124.29821435833334,68.0,76.0
264,123.1816543875,124.39631566666667,44.0,82.0
265,124.0149863875,124.47384734583333,56.0,55.0
266,124.3947333875,124.56245497916667,66.0,80.0
267,124.3947333875,124.75391075833333,51.0,80.0
268,124.7744803875,124.88365765,63.0,83.0
269,124.7744803875,124.9073918375,72.0,94.0
270,125.1542273875,125.27131604583333,65.0,82.0
271,125.1542273875,125.282392,73.0,82.0
272,124.7744803875,125.55307157916666,44.0,79.0
273,125.1542273875,125.55307157916666,51.0,75.0
274,125.5339743875,125.62946034583332,66.0,82.0
275,125.5339743875,125.65723807916666,75.0,86.0
276,125.5339743875,125.93154319583333,56.0,68.0
277,125.9506403875,126.05827910416666,58.0,78.0
278,126.3673063875,126.6725008875,77.0,81.0
279,126.3673063875,126.6757476375,73.0,83.0
280,126.3673063875,126.7017216375,68.0,76.0
281,126.7569163875,127.17465138749999,56.0,76.0
282,127.14652638749999,127.48090138749998,65.0,34.0
283,127.14652638749999,127.4996513875,63.0,62.0
284,127.14652638749999,127.51058888749999,73.0,59.0
285,127.14652638749999,127.51996388749998,68.0,72.0
286,127.14652638749999,128.00277638749998,61.0,52.0
287,127.89652638749999,128.17621388749998,70.0,60.0
288,127.89652638749999,128.2402763875,63.0,69.0
289,127.89652638749999,128.2512138875,68.0,78.0
290,127.89652638749999,128.2652763875,65.0,71.0
291,127.89652638749999,128.30902638749998,73.0,71.0
292,127.52152638749999,128.72308888749998,56.0,56.0
293,128.2715263875,128.8199638875,61.0,52.0
294,128.6465263875,128.92465138749998,73.0,70.0
295,128.6465263875,128.9527763875,70.0,72.0
296,128.6465263875,128.98871388749998,68.0,80.0
297,126.3673063875,128.99496388749998,49.0,90.0
298,128.6465263875,128.9996513875,63.0,76.0
299,128.6465263875,129.0059013875,65.0,75.0
300,129.0215263875,129.44889126458332,56.0,73.0
301,129.3965263875,129.77490485416666,72.0,76.0
302,129.3965263875,129.8086886458333,63.0,78.0
303,129.3965263875,129.81882378333333,68.0,76.0
304,130.2073373875,130.36556530416667,72.0,63.0
305,129.8019318875,130.44784382083333,56.0,69.0
306,130.2073373875,130.48423624166665,63.0,71.0
307,130.2073373875,130.48423624166665,68.0,72.0
308,130.2073373875,131.05385674166666,60.0,47.0
309,130.96683138749998,131.2975277333333,63.0,72.0
310,130.96683138749998,131.31018596666667,72.0,76.0
311,130.96683138749998,131.31493280416666,68.0,73.0
312,130.5870843875,131.75322413333333,56.0,68.0
313,131.7263253875,131.77854059999999,68.0,55.0
314,131.3465783875,131.98581917083334,60.0,57.0
315,131.7263253875,131.98898372916665,75.0,84.0
316,129.3965263875,132.00005968333332,48.0,80.0
317,131.7263253875,132.0301229875,63.0,73.0
318,131.9161988875,132.14246480833333,56.0,78.0
319,132.10607238749998,132.376642125,70.0,75.0
320,132.29594588749998,132.46683203749998,72.0,83.0
321,132.4858193875,132.85449043333332,68.0,76.0
322,132.4858193875,132.85449043333332,73.0,83.0
323,132.4858193875,132.87664234166667,65.0,73.0
324,132.8655663875,133.45733879583332,53.0,76.0
325,133.2453133875,133.56968061666666,65.0,75.0
326,133.2453133875,133.58392112916667,61.0,75.0
327,133.2453133875,133.6345540625,70.0,79.0
328,133.2453133875,133.96208585,58.0,51.0
329,134.0048073875,134.18993404999998,61.0,78.0
330,134.0048073875,134.28803535833333,68.0,82.0
331,134.3845543875,134.4541746708333,61.0,81.0
332,133.62506038749999,134.4731620208333,53.0,59.0
333,134.3845543875,134.49056709166666,70.0,79.0
334,134.3845543875,134.750060875,58.0,17.0
335,134.76430138749998,134.80860520416667,65.0,54.0
336,134.76430138749998,134.83392167083332,63.0,57.0
337,134.76430138749998,134.86714953333333,72.0,78.0
338,134.76430138749998,135.0111369375,53.0,76.0
339,132.4858193875,135.20733955416665,46.0,73.0
340,135.1440483875,135.414618125,73.0,90.0
341,135.1440483875,135.51588399166667,53.0,79.0
342,135.5237953875,135.90512466666667,72.0,80.0
343,135.5237953875,135.908289225,65.0,73.0
344,135.5237953875,135.9177829,68.0,79.0
345,135.5237953875,136.55069456666666,53.0,79.0
346,135.90354238749998,136.61398573333332,60.0,78.0
347,136.2832893875,136.73265667083334,65.0,76.0
348,136.6630363875,136.7706313708333,75.0,84.0
349,137.04278338749998,137.46366964583333,65.0,72.0
350,137.04278338749998,137.47316332083332,68.0,75.0
351,137.04278338749998,137.48265699583334,71.0,86.0
352,137.4225303875,137.89879641666667,61.0,73.0
353,137.8022773875,138.02696102916667,73.0,84.0
354,137.8022773875,138.0617711708333,65.0,76.0
355,137.04278338749998,138.16461931666666,49.0,76.0
356,138.5617713875,138.92569559583333,42.0,78.0
357,138.5617713875,138.99848043749998,66.0,47.0
358,138.5617713875,139.01113867083333,61.0,75.0
359,138.5617713875,139.01588550833333,70.0,55.0
360,138.9415183875,139.40037934583333,54.0,68.0
361,139.32126538749998,139.66145540833332,61.0,72.0
362,139.32126538749998,139.70892378333332,68.0,78.0
363,139.32126538749998,139.7864554625,56.0,69.0
364,139.7010123875,139.79120229999998,58.0,75.0
365,140.0807593875,140.61398746666666,61.0,58.0
366,140.4605063875,140.79120273333334,66.0,80.0
367,140.84025338749998,141.25481052916666,70.0,80.0
368,141.2200003875,141.6282284125,73.0,84.0
369,141.5997473875,141.946266525,63.0,78.0
370,141.5997473875,142.07126657916666,68.0,71.0
371,141.5997473875,142.117152675,72.0,84.0
372,142.3592413875,142.44784902083333,68.0,80.0
373,141.97949438749998,142.63139340416666,60.0,61.0
374,142.3592413875,142.84658337083332,65.0,71.0
375,142.7389883875,143.1946847875,60.0,68.0
376,143.11873538749998,143.21208985833331,89.0,84.0
377,143.11873538749998,143.21525441666665,77.0,79.0
378,143.8782293875,143.9636724625,85.0,83.0
379,143.8782293875,143.98424209166666,73.0,83.0
380,143.4984823875,144.10291302916664,60.0,68.0
381,141.5997473875,144.2105080125,53.0,80.0
382,144.6377233875,145.02379950416665,66.0,82.0
383,144.6377233875,145.02854634166667,61.0,77.0
384,144.6377233875,145.02854634166667,73.0,73.0
385,144.6377233875,145.07601471666666,70.0,73.0
386,144.6377233875,145.63139470416667,51.0,82.0
387,145.3972173875,145.7010149875,61.0,84.0
388,145.0174703875,145.70734410416665,58.0,79.0
389,145.7769643875,146.04911640416665,68.0,78.0
390,146.1567113875,146.53645838749998,67.0,79.0
391,146.1567113875,146.57285080833333,63.0,79.0
392,146.1567113875,146.65987616249998,73.0,84.0
393,146.91620538749999,147.13297763333333,67.0,71.0
394,146.91620538749999,147.15829409999998,75.0,82.0
395,146.91620538749999,147.18361056666666,63.0,75.0
396,146.1567113875,147.32918024999998,51.0,80.0
397,146.53645838749998,147.35607899583331,58.0,61.0
398,147.6756993875,148.003231175,66.0,79.0
399,147.6756993875,148.0079780125,61.0,80.0
400,147.6756993875,148.01905396666666,73.0,84.0
401,147.6756993875,148.40513008333332,44.0,82.0
402,148.05544638749998,148.42253515416667,51.0,76.0
403,148.4351933875,148.50797822916667,63.0,73.0
404,148.4351933875,148.55069976666667,72.0,91.0
405,148.4351933875,148.8671556,56.0,70.0
406,148.8149403875,148.90671257916665,65.0,83.0
407,148.8149403875,148.9193708125,73.0,86.0
408,149.19468738749998,149.29468738749998,66.0,84.0
409,149.19468738749998,149.3096873875,75.0,91.0
410,148.8149403875,149.3696873875,58.0,72.0
411,149.19468738749998,149.58635405416666,60.0,82.0
412,149.5946873875,149.67635405416664,68.0,80.0
413,149.5946873875,149.70635405416664,77.0,86.0
414,149.5946873875,150.04635405416664,61.0,78.0
415,149.9946873875,150.11468738749997,78.0,86.0
416,149.9946873875,150.12968738749998,70.0,80.0
417,150.39468738749997,150.44302072083332,73.0,76.0
418,149.9946873875,150.46635405416666,63.0,83.0
419,150.39468738749997,150.48468738749997,65.0,90.0
420,150.39468738749997,150.4880207208333,80.0,78.0
421,150.79468738749998,151.08899131249999,73.0,84.0
422,150.79468738749998,151.10481410416665,68.0,75.0
423,150.79468738749998,151.10481410416665,77.0,82.0
424,151.17443438749999,151.67759916249997,56.0,78.0
425,151.55418138749997,151.90228280416665,68.0,74.0
426,151.55418138749997,151.90544736249998,63.0,78.0
427,151.55418138749997,151.90544736249998,65.0,73.0
428,151.55418138749997,151.91968787499997,73.0,76.0
429,151.55418138749997,152.33901323125,61.0,53.0
430,152.31367538749998,152.67854033749998,68.0,82.0
431,152.31367538749998,152.68360790625,65.0,82.0
432,152.31367538749998,152.68698628541665,63.0,82.0
433,152.31367538749998,152.70725656041665,73.0,82.0
434,152.92178363749997,153.0738107,63.0,81.0
435,152.71908088749998,153.17737094999998,61.0,71.0
436,151.93392838749998,153.33281951249998,56.0,75.0
437,153.12448638749999,153.39051176249998,65.0,84.0
438,153.31679388749998,153.47224244999998,66.0,81.0
439,150.79468738749998,153.51230651249998,49.0,91.0
440,153.50910138749998,153.68858838749998,68.0,82.0
441,153.50910138749998,153.7815370125,56.0,73.0
442,153.70140888749998,153.97063938749997,70.0,81.0
443,153.89371638749998,154.20942119999998,63.0,79.0
444,153.89371638749998,154.2478827,68.0,82.0
445,153.89371638749998,154.4866645125,48.0,83.0
446,154.27833138749997,154.64852332499999,56.0,71.0
447,154.66294638749997,154.9770486375,63.0,77.0
448,154.66294638749997,155.00749732499997,75.0,83.0
449,154.66294638749997,155.01551013749997,68.0,79.0
450,154.66294638749997,155.08762545,60.0,75.0
451,155.0475613875,155.14371513749998,61.0,83.0
452,155.4321763875,155.59724032499997,70.0,78.0
453,155.6244838875,155.78954782499997,72.0,83.0
454,155.8167913875,155.9482015125,73.0,84.0
455,156.0090988875,156.27031657499998,63.0,47.0
456,156.2014063875,156.3776882625,75.0,86.0
457,156.39371388749998,156.61326494999997,63.0,60.0
458,156.58602138749998,156.8007647625,68.0,75.0
459,156.77832888749998,156.9642261375,72.0,82.0
460,156.2014063875,157.04755938749997,48.0,79.0
461,156.97063638749998,157.31518732499998,73.0,84.0
462,156.97063638749998,157.31839244999998,68.0,71.0
463,156.97063638749998,157.35525138749998,65.0,76.0
464,157.35525138749998,157.7985083833333,53.0,79.0
465,157.73986638749997,158.03153315624996,61.0,79.0
466,157.73986638749997,158.03153315624996,65.0,75.0
467,157.73986638749997,158.0346195770833,68.0,78.0
468,157.73986638749997,158.11486651874998,58.0,50.0
469,156.97063638749998,158.7383235270833,46.0,83.0
470,158.4806073875,158.86640999166664,61.0,82.0
471,158.4806073875,158.9049902520833,65.0,79.0
472,158.4806073875,158.95282977499997,70.0,84.0
473,158.11023688749998,159.30468163749998,53.0,79.0
474,158.85097788749997,159.44089944999996,58.0,58.0
475,159.22134838749997,159.60756594999998,68.0,84.0
476,159.22134838749997,159.61077107499997,61.0,84.0
477,159.22134838749997,159.62519413749996,65.0,84.0
478,159.60596338749997,160.06109113749997,53.0,83.0
479,159.99057838749997,160.34794982499997,68.0,80.0
480,159.99057838749997,160.39602669999996,65.0,78.0
481,159.99057838749997,160.40083438749997,61.0,79.0
482,160.37519338749996,160.84216128749995,53.0,79.0
483,160.75980838749996,160.96569063749996,56.0,71.0
484,160.75980838749996,161.06863176249996,65.0,79.0
485,160.75980838749996,161.07451411249997,68.0,82.0
486,159.99057838749997,161.14804348749996,44.0,79.0
487,160.75980838749996,161.20098463749997,61.0,82.0
488,161.11274938749995,161.47056051249996,56.0,72.0
489,161.46569038749996,161.74166413749995,68.0,60.0
490,161.46569038749996,161.80659913749997,65.0,78.0
491,161.46569038749996,161.81309263749995,61.0,75.0
492,161.46569038749996,161.81471601249996,71.0,86.0
493,161.46569038749996,162.18646888749996,49.0,79.0
494,161.85530038749997,162.22542988749996,53.0,83.0
495,162.24491038749997,162.55741007499998,71.0,83.0
496,162.24491038749997,162.62311513749998,65.0,81.0
497,162.24491038749997,162.62311513749998,73.0,86.0
498,162.24491038749997,162.63753819999997,61.0,82.0
499,162.62952538749997,162.73529451249996,37.0,84.0
500,163.01414038749996,163.37471694999996,73.0,41.0
501,163.01414038749996,163.39394769999998,66.0,84.0
502,163.01414038749996,163.40837076249997,61.0,80.0
503,163.01414038749996,163.42599894999998,70.0,82.0
504,163.01414038749996,163.64394744999998,42.0,84.0
505,163.39875538749996,163.75452426249998,49.0,76.0
506,163.78337038749996,164.19362638749996,61.0,78.0
507,163.78337038749996,164.20324176249997,66.0,86.0
508,163.78337038749996,164.25612632499997,54.0,61.0
509,164.55260038749998,164.70965151249996,61.0,86.0
510,164.55260038749998,164.73208738749997,73.0,90.0
511,164.93721538749998,165.15676644999996,72.0,84.0
512,164.93721538749998,165.16317669999998,63.0,58.0
513,165.32183038749997,165.48849688749996,65.0,78.0
514,164.16798538749998,165.50040163749998,56.0,78.0
515,165.32183038749997,165.51528257499996,73.0,90.0
516,165.32183038749997,165.65813957499998,58.0,68.0
517,165.67897288749998,165.78165135624997,66.0,68.0
518,165.67897288749998,165.79206801249998,75.0,84.0
519,166.03611538749996,166.40813882499998,72.0,79.0
520,166.03611538749996,166.46022210624997,68.0,77.0
521,166.03611538749996,166.47807923124998,63.0,78.0
522,166.39325788749997,167.01560315208332,53.0,70.0
523,166.75040038749998,167.10344101041665,70.0,81.0
524,166.03611538749996,167.18452211041665,41.0,82.0
525,167.15580588749998,167.50884651041665,72.0,84.0
526,167.56121138749998,168.04984726249998,73.0,86.0
527,167.56121138749998,168.10504201249998,65.0,75.0
528,167.56121138749998,168.15374326249997,68.0,83.0
529,168.3404313875,168.4849117625,65.0,81.0
530,168.3404313875,168.49465201249998,72.0,86.0
531,167.15580588749998,168.7186777625,53.0,68.0
532,168.7300413875,168.99465151249998,61.0,76.0
533,168.7300413875,169.0563397625,68.0,74.0
534,169.11965138749997,169.49916916249998,66.0,83.0
535,169.11965138749997,169.51272336874996,70.0,81.0
536,169.11965138749997,169.51422939166665,61.0,84.0
537,169.84254238749998,170.26422880416663,61.0,90.0
538,170.20398788749998,170.5413370208333,66.0,76.0
539,170.56543338749998,170.69684351249998,66.0,56.0
540,169.11965138749997,170.74652294999999,51.0,80.0
541,169.48109688749997,170.788189575,58.0,73.0
542,170.56543338749998,170.87312538749998,70.0,79.0
543,170.95004838749998,171.30741982499998,67.0,81.0
544,171.33466338749997,171.43402226249998,73.0,57.0
545,170.56543338749998,171.58466313749997,55.0,84.0
546,171.33466338749997,171.97408582499997,61.0,95.0
547,171.71927838749997,171.98209863749997,73.0,83.0
548,172.10389338749997,172.56863651249998,66.0,84.0
549,172.10389338749997,172.60549544999998,70.0,83.0
550,172.10389338749997,172.6070980125,73.0,79.0
551,172.10389338749997,172.6199185125,61.0,83.0
552,172.8731233875,173.04373153541664,61.0,79.0
553,173.07582613749997,173.28866402499997,66.0,80.0
554,173.2785288875,173.39339377916664,68.0,75.0
555,173.48123163749997,173.75435680416666,70.0,79.0
556,172.6808158875,173.97442685624998,56.0,76.0
557,173.6839343875,174.13991953541665,73.0,83.0
558,174.52900338749998,174.69449606666666,70.0,75.0
559,172.10389338749997,174.8758337895833,44.0,82.0
560,172.4885083875,174.91456611874997,51.0,78.0
561,174.52900338749998,174.92689004166667,78.0,84.0
562,174.52900338749998,175.152241775,56.0,62.0
563,175.37407238749998,175.74420188749997,77.0,78.0
564,175.37407238749998,175.74744863749999,73.0,82.0
565,175.37407238749998,175.77666938749996,68.0,71.0
566,175.37407238749998,177.3253691375,49.0,82.0
567,178.4909523875,179.3255521583333,61.0,75.0
568,178.8805623875,179.35086862499998,68.0,57.0
569,179.27017238749997,179.73061562499996,73.0,60.0
570,180.02966638749996,180.54232483749996,77.0,61.0
571,179.64991938749998,180.6831476833333,75.0,62.0
572,181.54865438749997,182.29372047499996,60.0,55.0
573,181.94339138749996,182.30852311249996,68.0,41.0
574,182.33812838749998,182.84141806249997,72.0,20.0
575,182.73286538749997,183.79207633749996,75.0,53.0
576,185.12360838749998,185.51748264999998,65.0,59.0
577,184.7389933875,185.5437172270833,58.0,62.0
578,185.50822338749998,185.92643341041665,68.0,71.0
579,185.8785938875,187.04371775208332,73.0,59.0
580,186.2489643875,187.20729805624998,72.0,71.0
581,186.98970538749998,187.20729805624998,77.0,57.0
582,187.7304463875,188.35698981666664,56.0,60.0
583,188.10081688749997,188.43106391666666,65.0,58.0
584,188.47118738749998,188.9102895125,68.0,60.0
585,188.85580238749998,189.46035419166665,73.0,61.0
586,189.24041738749997,189.49199977499998,72.0,75.0
587,189.99991138749996,190.0928168145833,68.0,72.0
588,191.19533738749996,191.69693944999997,61.0,82.0
589,191.57995238749996,192.03347757499998,66.0,79.0
590,190.81072238749996,192.08475957499996,54.0,84.0
591,191.96456738749995,192.32514394999995,61.0,71.0
592,192.34918238749995,192.37001569999995,65.0,45.0
593,192.34918238749995,192.70014357499997,68.0,51.0
594,192.34918238749995,192.93091257499995,63.0,59.0
595,192.73379738749998,192.96296382499997,72.0,84.0
596,193.11841238749997,193.31552757499998,68.0,67.0
597,193.11841238749997,193.42450182499996,61.0,79.0
598,192.34918238749995,193.43251463749996,54.0,76.0
599,193.11841238749997,193.54789913749997,63.0,30.0
600,193.11841238749997,193.60398882499996,75.0,81.0
601,193.50302738749997,194.16969338749996,72.0,79.0
602,193.88764238749997,194.31552657499998,63.0,74.0
603,193.88764238749997,194.40366751249996,68.0,82.0
604,194.27225738749996,194.87321832499995,60.0,75.0
605,194.65687238749996,194.95014132499998,63.0,68.0
606,193.88764238749997,194.96616694999997,53.0,82.0
607,194.65687238749996,195.02385919999998,72.0,80.0
608,195.42610238749995,195.65801037499995,68.0,80.0
609,195.42610238749995,195.69912881249996,65.0,74.0
610,195.42610238749995,195.70406302499995,73.0,82.0
611,196.21557638749996,196.43432647499995,58.0,59.0
612,196.21557638749996,196.50833966249996,65.0,73.0
613,195.42610238749995,196.53958967499995,46.0,73.0
614,196.21557638749996,196.56261599999996,61.0,76.0
615,195.82083938749994,196.57412916249996,53.0,68.0
616,196.21557638749996,196.61360286249996,68.0,76.0
617,196.61031338749996,197.01966076249994,58.0,55.0
618,197.00505038749995,197.44173826249994,70.0,73.0
619,197.00505038749995,197.51641351249995,61.0,57.0
620,197.00505038749995,197.51641351249995,66.0,75.0
621,197.00505038749995,198.06186751249996,51.0,78.0
622,197.39466038749995,198.11543888749995,58.0,76.0
623,197.78427038749996,198.16576351249995,61.0,76.0
624,198.17388038749996,198.49693201249994,68.0,79.0
625,198.56349038749994,198.95147701249994,67.0,78.0
626,198.56349038749994,198.96446401249995,61.0,73.0
627,198.56349038749994,199.01965876249994,70.0,76.0
628,199.34271038749995,199.61056726249996,67.0,62.0
629,198.95310038749994,199.61381401249994,58.0,72.0
630,198.56349038749994,199.66900876249994,55.0,73.0
631,199.34271038749995,199.67063213749995,61.0,78.0
632,199.34271038749995,199.68037238749994,73.0,90.0
633,200.12193038749996,200.87679976249996,71.0,80.0
634,200.12193038749996,200.96121526249996,63.0,73.0
635,200.12193038749996,200.99855288749995,66.0,80.0
636,200.90115038749994,201.76640926249996,59.0,59.0
637,201.29076038749994,201.78264301249996,61.0,79.0
638,202.06998038749995,202.20796726249995,59.0,46.0
639,201.68037038749995,202.21121401249994,66.0,81.0
640,200.12193038749996,202.23718801249996,47.0,81.0
641,200.51154038749996,202.25829188749995,54.0,72.0
642,202.45959038749996,202.81348613749995,69.0,72.0
643,202.45959038749996,202.81997963749996,61.0,79.0
644,202.45959038749996,202.84433026249994,45.0,95.0
645,203.23881038749994,203.63329051249994,61.0,83.0
646,203.23881038749994,203.65277101249995,58.0,73.0
647,203.23881038749994,203.66251126249995,66.0,83.0
648,203.82322538749995,204.03913426249994,61.0,72.0
649,204.01803038749995,204.10082251249995,63.0,80.0
650,204.36543263749994,204.57484801249996,73.0,42.0
651,204.50341951249996,204.65439338749994,75.0,76.0
652,204.63653626249996,204.68686088749996,77.0,76.0
653,204.77776988749994,204.94189309999996,80.0,69.0
654,204.89010743749995,205.09189294999996,85.0,71.0
655,205.03475014999995,205.19546427499995,87.0,75.0
656,205.13296433749997,205.25439278749997,89.0,75.0
657,205.22582138749996,205.31867843749995,92.0,80.0
658,203.62842038749994,205.56510676249997,56.0,61.0
659,203.23881038749994,205.65617809999995,44.0,84.0
660,206.51153438749995,206.86366789999994,68.0,73.0
661,206.51153438749995,206.87586299999995,73.0,76.0
662,206.51153438749995,206.90939952499994,65.0,68.0
663,206.51153438749995,207.18226488749994,49.0,79.0
664,206.87738738749994,207.27830129999995,56.0,68.0
665,207.24324038749995,207.50391064999994,68.0,69.0
666,207.24324038749995,207.58165441249994,77.0,78.0
667,207.24324038749995,207.63958113749996,61.0,58.0
668,207.60909338749994,207.85299538749996,68.0,60.0
669,207.60909338749994,208.05269014999996,63.0,58.0
670,207.60909338749994,208.05878769999995,75.0,76.0
671,207.97494638749995,208.28134827499994,68.0,69.0
672,207.97494638749995,208.30116531249996,73.0,80.0
673,207.97494638749995,208.46122599999995,65.0,72.0
674,208.70665238749996,208.98561529999995,77.0,81.0
675,208.34079938749994,209.03134692499995,63.0,69.0
676,208.70665238749996,209.04201763749995,68.0,75.0
677,209.07250538749994,209.43226083749994,80.0,69.0
678,209.43835838749996,209.82402842499994,48.0,75.0
679,209.80421138749995,210.21122284999996,60.0,62.0
680,209.43835838749996,210.29353977499994,68.0,69.0
681,209.43835838749996,210.53896616249995,75.0,80.0
682,210.53591738749995,211.31792817499996,65.0,76.0
683,210.90177038749994,211.32707449999995,72.0,80.0
684,211.26762338749995,211.69597638749994,73.0,80.0
685,210.90177038749994,211.74597638749995,68.0,44.0
686,211.63347638749994,211.99910138749993,75.0,79.0
687,210.17006438749996,212.38191388749993,63.0,72.0
688,211.63347638749994,212.38191388749993,65.0,71.0
689,212.00847638749994,212.41853729999994,77.0,80.0
690,212.38191388749993,212.77219519999994,73.0,82.0
691,212.38191388749993,212.83317069999993,68.0,67.0
692,212.74932938749993,213.24932848749995,65.0,75.0
693,213.11518238749994,213.45816957499994,70.0,75.0
694,213.11518238749994,213.49170609999993,68.0,54.0
695,213.48103538749993,213.74780319999994,73.0,79.0
696,212.38191388749993,214.21274138749993,58.0,78.0
697,213.84688838749994,214.24627791249995,73.0,52.0
698,213.84688838749994,214.29048514999994,68.0,73.0
699,213.84688838749994,214.31639973749995,65.0,74.0
700,214.21274138749993,214.95664248749995,46.0,60.0
701,214.94444738749993,215.09688613749995,65.0,71.0
702,214.57859438749995,215.10298368749994,58.0,50.0
703,214.94444738749993,215.25084927499995,73.0,81.0
704,215.31030038749995,215.89517713541662,63.0,71.0
705,215.31030038749995,215.92141171249995,72.0,81.0
706,216.05104138749996,216.55567119374996,60.0,68.0
707,216.42141188749994,216.7856095458333,68.0,68.0
708,216.79178238749995,217.13324518749994,65.0,73.0
709,215.68067088749996,217.19117191249995,56.0,71.0
710,216.79178238749995,217.52806154999996,60.0,58.0
711,217.52348838749995,217.77196354999995,73.0,68.0
712,215.31030038749995,217.83293904999994,53.0,69.0
713,217.52348838749995,217.93507301249994,65.0,58.0
714,217.88934138749994,218.04025574999994,72.0,75.0
715,218.25519438749996,218.59208402499996,42.0,75.0
716,218.25519438749996,218.79482756249996,66.0,77.0
717,218.25519438749996,218.89696152499994,61.0,58.0
718,218.25519438749996,219.02043691249995,70.0,75.0
719,218.62104738749994,219.05244904999995,54.0,59.0
720,218.98690038749996,219.13629036249995,56.0,71.0
721,218.98690038749996,219.15915617499996,61.0,34.0
722,218.98690038749996,219.26891207499995,68.0,78.0
723,219.35275338749994,219.65458211249995,66.0,78.0
724,219.71860638749996,220.03567898749995,72.0,80.0
725,219.71860638749996,220.06311796249994,63.0,69.0
726,219.71860638749996,220.08598377499996,68.0,72.0
727,219.71860638749996,220.39086127499996,44.0,53.0
728,220.08445938749995,220.42287341249994,51.0,57.0
729,220.45031238749996,220.74147039999994,68.0,75.0
730,220.45031238749996,220.76738498749995,73.0,79.0
731,220.45031238749996,220.83140926249996,56.0,61.0
732,220.81616538749995,221.15457941249994,58.0,61.0
733,221.18201838749994,221.51433486249994,63.0,78.0
734,221.18201838749994,221.58902984999995,68.0,80.0
735,221.91372438749994,222.09969966249994,65.0,63.0
736,221.54787138749995,222.19878484999995,60.0,68.0
737,221.18201838749994,222.24299208749994,53.0,72.0
738,221.91372438749994,222.24451647499995,72.0,80.0
739,221.91372438749994,222.32988217499994,68.0,75.0
740,222.27957738749996,222.40915032499996,75.0,79.0
741,222.64543038749994,222.92286891249995,73.0,82.0
742,222.64543038749994,222.92439329999996,65.0,72.0
743,223.01128338749996,223.42286801249995,53.0,69.0
744,223.37713638749995,223.69725776249996,58.0,53.0
745,223.37713638749995,223.70792847499996,61.0,71.0
746,223.37713638749995,223.70792847499996,70.0,76.0
747,222.64543038749994,223.73689183749994,46.0,72.0
748,223.74298938749996,223.83140386249994,53.0,78.0
749,224.10884238749995,224.41829304999996,61.0,75.0
750,224.10884238749995,224.51585384999996,70.0,73.0
751,224.10884238749995,224.56463424999995,66.0,77.0
752,224.47469538749996,224.88932878749995,58.0,54.0
753,224.84054838749995,225.22316964999996,65.0,75.0
754,224.84054838749995,225.27804759999995,63.0,54.0
755,225.20640138749997,225.63006688749996,58.0,54.0
756,224.84054838749995,225.64100438749995,68.0,76.0
757,225.57225438749995,225.88162938749994,63.0,70.0
758,225.57225438749995,225.90819188749995,66.0,77.0
759,225.57225438749995,225.95975438749994,70.0,78.0
760,225.94725438749995,226.41756688749996,58.0,60.0
761,226.32225438749995,226.70506688749995,66.0,78.0
762,226.32225438749995,226.72850438749995,61.0,74.0
763,226.32225438749995,226.74725438749996,73.0,83.0
764,226.69725438749995,226.77225438749994,58.0,72.0
765,224.10884238749995,226.80037938749996,51.0,73.0
766,227.07225438749995,227.44412938749994,61.0,76.0
767,227.07225438749995,227.45506688749995,73.0,73.0
768,227.07225438749995,227.45662938749996,66.0,80.0
769,227.07225438749995,227.47069188749995,70.0,75.0
770,227.44725438749995,227.80819188749996,51.0,71.0
771,227.82225438749995,228.01600438749995,61.0,79.0
772,227.82225438749995,228.10194188749995,68.0,76.0
773,227.07225438749995,228.19881688749996,44.0,82.0
774,227.82225438749995,228.27537938749995,56.0,55.0
775,228.19725438749995,228.36287938749996,66.0,80.0
776,228.19725438749995,228.55194188749996,51.0,80.0
777,228.57225438749995,228.67743712499995,63.0,83.0
778,228.57225438749995,228.70030293749994,72.0,94.0
779,228.93810738749994,229.05091206249995,65.0,82.0
780,228.93810738749994,229.06158277499995,73.0,82.0
781,228.57225438749995,229.32072864999995,44.0,79.0
782,228.93810738749994,229.32072864999995,51.0,75.0
783,229.30396038749996,229.38780169999995,66.0,82.0
784,229.30396038749996,229.41219189999995,75.0,86.0
785,229.30396038749996,229.65304512499995,56.0,68.0
786,229.66981338749994,229.76432541249994,58.0,78.0
787,230.03566638749996,230.32225123749996,77.0,81.0
788,230.03566638749996,230.32530001249995,73.0,83.0
789,230.03566638749996,230.34969021249995,68.0,76.0
790,230.40151938749995,230.79481136249996,56.0,76.0
791,230.76737238749996,231.09359131249997,65.0,34.0
792,230.76737238749996,231.11188396249995,63.0,62.0
793,230.76737238749996,231.12255467499995,73.0,59.0
794,230.76737238749996,231.13170099999996,68.0,72.0
795,230.76737238749996,231.60532838749995,61.0,52.0
796,231.49907838749996,231.77876588749996,70.0,60.0
797,231.49907838749996,231.84282838749996,63.0,69.0
798,231.49907838749996,231.85376588749997,68.0,78.0
799,231.49907838749996,231.86782838749997,65.0,71.0
800,231.49907838749996,231.91157838749996,73.0,71.0
801,231.13322538749995,232.32564088749996,56.0,56.0
802,231.87407838749996,232.42251588749997,61.0,52.0
803,232.24907838749996,232.52720338749995,73.0,70.0
804,232.24907838749996,232.55532838749997,70.0,72.0
805,232.24907838749996,232.59126588749996,68.0,80.0
806,230.03566638749996,232.59751588749995,49.0,90.0
807,232.24907838749996,232.60220338749997,63.0,76.0
808,232.24907838749996,232.60845338749996,65.0,75.0
809,232.62407838749996,233.04633439999995,56.0,73.0
810,232.99907838749996,233.34054118749995,72.0,76.0
811,232.99907838749996,233.37102893749997,63.0,78.0
812,232.99907838749996,233.38017526249996,68.0,76.0
813,233.73078438749997,233.88322313749995,72.0,63.0
814,233.36493138749995,233.96249128749997,56.0,69.0
815,233.73078438749997,233.99755219999997,63.0,71.0
816,233.73078438749997,233.99755219999997,68.0,72.0
817,233.73078438749997,234.54633169999997,60.0,47.0
818,234.46249038749997,234.78108737499997,63.0,72.0
819,234.46249038749997,234.79328247499996,72.0,76.0
820,234.46249038749997,234.79785563749996,68.0,73.0
821,234.09663738749995,235.22011097499995,56.0,68.0
822,235.19419638749997,235.24450117499995,68.0,55.0
823,234.82834338749996,235.44419593749996,60.0,57.0
824,235.19419638749997,235.44724471249995,75.0,84.0
825,232.99907838749996,235.45791542499995,48.0,80.0
826,235.19419638749997,235.48687878749996,63.0,73.0
827,235.37712288749995,235.59511029999996,56.0,78.0
828,235.56004938749996,235.82071964999997,70.0,75.0
829,235.74297588749997,235.90760973749997,72.0,83.0
830,235.92590238749997,236.28108467499996,68.0,76.0
831,235.92590238749997,236.28108467499996,73.0,83.0
832,235.92590238749997,236.30242609999996,65.0,73.0
833,236.29175538749996,236.8594154583333,53.0,76.0
834,236.65760838749998,236.96634308541664,65.0,75.0
835,236.65760838749998,236.97989729166665,61.0,75.0
836,236.65760838749998,237.02809002499998,70.0,79.0
837,236.65760838749998,237.33983676875,58.0,51.0
838,237.38049938749998,237.550557425,61.0,78.0
839,237.38049938749998,237.64067364999997,68.0,82.0
840,237.72933638749998,237.79328983749997,61.0,81.0
841,237.01905388749998,237.81073168749998,53.0,59.0
842,237.72933638749998,237.82672004999998,70.0,79.0
843,237.72933638749998,238.065092,58.0,17.0
844,238.0781733875,238.11887103749999,65.0,54.0
845,238.0781733875,238.14212683749997,63.0,57.0
846,238.0781733875,238.17265007499998,72.0,78.0
847,238.0781733875,238.3049174375,53.0,76.0
848,235.92590238749997,238.48514988749997,46.0,73.0
849,238.4270103875,238.67555674999997,73.0,90.0
850,238.4270103875,238.76857994999997,53.0,79.0
851,238.7758473875,239.143224775,72.0,80.0
852,238.7758473875,239.14627355,65.0,73.0
853,238.7758473875,239.155419875,68.0,79.0
854,238.7758473875,239.76517487499999,53.0,79.0
855,239.14170038749998,239.826150375,60.0,78.0
856,239.5075533875,239.9404794375,65.0,76.0
857,239.87340638749998,239.9770647375,75.0,84.0
858,240.2392593875,240.6447464625,65.0,72.0
859,240.2392593875,240.65389278749998,68.0,75.0
860,240.2392593875,240.6630391125,71.0,86.0
861,240.6051123875,241.063953025,61.0,73.0
862,240.9709653875,241.1874284125,73.0,84.0
863,240.9709653875,241.22096493749999,65.0,76.0
864,240.2392593875,241.320050125,49.0,76.0
865,241.7026713875,242.06659559583335,42.0,78.0
866,241.7026713875,242.1393804375,66.0,47.0
867,241.7026713875,242.15203867083335,61.0,75.0
868,241.7026713875,242.15678550833334,70.0,55.0
869,242.0824183875,242.54127934583335,54.0,68.0
870,242.4621653875,242.80235540833334,61.0,72.0
871,242.4621653875,242.84982378333333,68.0,78.0
872,242.4621653875,242.9273554625,56.0,69.0
873,242.8419123875,242.9321023,58.0,75.0
874,243.2216593875,243.717247375,61.0,58.0
875,243.5746003875,243.881953175,66.0,80.0
876,243.9275413875,244.3128353125,70.0,80.0
877,244.2804823875,244.6608623625,73.0,84.0
878,244.63342338750002,244.96726425000003,63.0,78.0
879,244.63342338750002,245.0876908625,68.0,71.0
880,244.63342338750002,245.13189810000003,72.0,84.0
881,245.36512938750002,245.45049508750003,68.0,80.0
882,244.9992763875,245.62732403750002,60.0,61.0
883,245.36512938750002,245.83464073750002,65.0,71.0
884,245.7309823875,246.17000598750002,60.0,68.0
885,246.09683538750002,246.18677425,89.0,84.0
886,246.09683538750002,246.189823025,77.0,79.0
887,246.82854138750002,246.9108583125,85.0,83.0
888,246.82854138750002,246.93067535000003,73.0,83.0
889,246.4626883875,247.04500441250002,60.0,68.0
890,244.63342338750002,247.1486627625,53.0,80.0
891,247.56024738750003,247.92334226250003,66.0,82.0
892,247.56024738750003,247.92780654375002,61.0,77.0
893,247.56024738750003,247.92780654375002,73.0,73.0
894,247.56024738750003,247.97244935625002,70.0,73.0
895,247.56024738750003,248.49477026250003,51.0,82.0
896,248.27453238750002,248.56024638750003,61.0,84.0
897,247.91738988750004,248.56619876250002,58.0,79.0
898,248.63167488750003,248.88762701250002,68.0,78.0
899,248.98881738750003,249.34595988750002,67.0,79.0
900,248.98881738750003,249.38018604375003,63.0,79.0
901,248.98881738750003,249.4620312,73.0,84.0
902,249.70310238750002,249.90697123125003,67.0,71.0
903,249.70310238750002,249.93078073125002,75.0,82.0
904,249.70310238750002,249.95459023125002,63.0,75.0
905,248.98881738750003,250.09149485625002,51.0,80.0
906,249.34595988750002,250.11679245000002,58.0,61.0
907,250.4173873875,250.73683194375002,66.0,79.0
908,250.4173873875,250.74146157500002,61.0,80.0
909,250.4173873875,250.75226404791667,73.0,84.0
910,250.4173873875,251.12880738958336,44.0,82.0
911,250.78775788750002,251.1457827041667,51.0,76.0
912,251.15812838750003,251.23000338750003,63.0,73.0
913,251.15812838750003,251.27219088750002,72.0,91.0
914,251.15812838750003,251.58469088750002,56.0,70.0
915,251.53312838750003,251.62375338750002,65.0,83.0
916,251.53312838750003,251.63625338750003,73.0,86.0
917,251.90812838750003,251.99959163750003,66.0,84.0
918,251.90812838750003,252.01331112500003,75.0,91.0
919,251.53312838750003,252.06818907500002,58.0,72.0
920,251.90812838750003,252.26635945000004,60.0,82.0
921,252.27398138750002,252.34867637500003,68.0,80.0
922,252.27398138750002,252.37611535000002,77.0,86.0
923,252.27398138750002,252.68709040000002,61.0,78.0
924,252.63983438750003,252.74959028750004,78.0,86.0
925,252.63983438750003,252.76330977500004,70.0,80.0
926,253.00568738750002,253.04989462500004,73.0,76.0
927,252.63983438750003,253.07123605000004,63.0,83.0
928,253.00568738750002,253.08800431250003,65.0,90.0
929,253.00568738750002,253.09105308750003,80.0,78.0
930,253.37154038750003,253.65857752500003,73.0,84.0
931,253.37154038750003,253.6740096291667,68.0,75.0
932,253.37154038750003,253.6740096291667,77.0,82.0
933,253.74191088750004,254.23265180000004,56.0,78.0
934,254.11228138750005,254.4517876791667,68.0,74.0
935,254.11228138750005,254.45487410000004,63.0,78.0
936,254.11228138750005,254.45487410000004,65.0,73.0
937,254.11228138750005,254.46876299375003,73.0,76.0
938,254.11228138750005,254.87617054375002,61.0,53.0
939,254.85302238750003,255.18635583750003,68.0,82.0
940,254.85302238750003,255.19098546875003,65.0,82.0
941,254.85302238750003,255.19407188958337,63.0,82.0
942,254.85302238750003,255.21259041458336,73.0,82.0
943,255.40857813750003,255.54746707500004,63.0,81.0
944,255.22339288750004,255.64468933125002,61.0,71.0
945,254.48265188750003,255.7943807416667,56.0,75.0
946,255.59376338750005,255.8499363166667,65.0,84.0
947,255.77894863750004,255.9286400479167,66.0,81.0
948,253.37154038750003,255.96722030833337,49.0,91.0
949,255.96413388750003,256.1369734541667,68.0,82.0
950,255.96413388750003,256.22647965833335,56.0,73.0
951,256.1493191375,256.40767498750006,70.0,81.0
952,256.33450438750003,256.634808725,63.0,79.0
953,256.33450438750003,256.67139402500004,68.0,82.0
954,256.33450438750003,256.8985277625,48.0,83.0
955,256.70035738750005,257.0524909,56.0,71.0
956,257.0662103875,257.36499033750005,63.0,77.0
957,257.0662103875,257.39395370000005,75.0,83.0
958,257.0662103875,257.40157563750006,68.0,79.0
959,257.0662103875,257.47017307500005,60.0,75.0
960,257.4320633875,257.5235266375,61.0,83.0
961,257.79791638750004,257.9549283,70.0,78.0
962,257.98084288750005,258.1378548,72.0,83.0
963,258.16376938750005,258.28876916250005,73.0,84.0
964,258.3466958875,258.59517105000003,63.0,47.0
965,258.5296223875,258.6973050125,75.0,86.0
966,258.7125488875,258.921389975,63.0,60.0
967,258.8954753875,259.09974331250004,68.0,75.0
968,259.07840188750004,259.25523083750005,72.0,82.0
969,258.5296223875,259.3336174875,48.0,79.0
970,259.26132838750004,259.58512331458337,73.0,84.0
971,259.26132838750004,259.5881353604167,68.0,71.0
972,259.26132838750004,259.62277388750005,65.0,76.0
973,259.62277388750005,260.0414482583334,53.0,79.0
974,259.98421938750005,260.26885771875004,61.0,79.0
975,259.98421938750005,260.26885771875004,65.0,75.0
976,259.98421938750005,260.27186976458336,68.0,78.0
977,259.98421938750005,260.35018295625,58.0,50.0
978,259.26132838750004,260.9586162145834,46.0,83.0
979,260.70711038750005,261.0836161166667,61.0,82.0
980,260.70711038750005,261.12126668958336,65.0,79.0
981,260.70711038750005,261.16795340000004,70.0,84.0
982,260.34566488750005,261.5083145791667,53.0,79.0
983,261.06855588750005,261.6363265270834,58.0,58.0
984,261.43000138750006,261.7929529104167,68.0,84.0
985,261.43000138750006,261.79596495625003,61.0,84.0
986,261.43000138750006,261.80951916250007,65.0,84.0
987,261.79144688750006,262.21915739583335,53.0,83.0
988,262.15289238750006,262.4887354979167,68.0,80.0
989,262.15289238750006,262.53391618541673,65.0,78.0
990,262.15289238750006,262.5384342541667,61.0,79.0
991,262.51433788750006,262.96012067083336,53.0,79.0
992,262.87578338750006,263.08662659583337,56.0,71.0
993,262.87578338750006,263.19204820000004,65.0,79.0
994,262.87578338750006,263.19807229166673,68.0,82.0
995,262.15289238750006,263.2733734375,44.0,79.0
996,262.87578338750006,263.32759026250005,61.0,82.0
997,263.23722888750007,263.60319245625004,56.0,72.0
998,263.59867438750007,263.8546982833334,68.0,60.0
999,263.59867438750007,263.91493920000005,65.0,78.0
1000,263.59867438750007,263.92096329166674,61.0,75.0
1001,263.59867438750007,263.9224693145834,71.0,86.0
1002,263.59867438750007,264.26734856250005,49.0,79.0
1003,263.96011988750007,264.30349311250006,53.0,83.0
1004,264.3215653875,264.61523985625007,71.0,83.0
1005,264.3215653875,264.6769867958334,65.0,81.0
1006,264.3215653875,264.6769867958334,73.0,86.0
1007,264.3215653875,264.69054100208336,61.0,82.0
1008,264.6830108875,264.78240840000007,37.0,84.0
1009,265.0444563875,265.38331154375004,73.0,41.0
1010,265.0444563875,265.40138381875005,66.0,84.0
1011,265.0444563875,265.414938025,61.0,80.0
1012,265.0444563875,265.4315042770834,70.0,82.0
1013,265.0444563875,265.63632339375005,42.0,84.0
1014,265.4059018875,265.74023897500007,49.0,76.0
1015,265.7673473875,266.1624092541667,61.0,78.0
1016,265.7673473875,266.17166851666667,66.0,86.0
1017,265.7673473875,266.2225944604167,54.0,61.0
1018,266.50808838750004,266.65932300833333,61.0,86.0
1019,266.50808838750004,266.6809279541667,73.0,90.0
1020,266.8784588875,267.08987871458334,72.0,84.0
1021,266.8784588875,267.09605155625,63.0,58.0
1022,267.24882938750005,267.4216689541667,65.0,78.0
1023,266.1377178875,267.4340146375,56.0,78.0
1024,267.24882938750005,267.4494467416667,73.0,90.0
1025,267.24882938750005,267.59759494166667,58.0,68.0
1026,267.61919988750003,267.72568140625003,66.0,68.0
1027,267.61919988750003,267.7364838791667,75.0,84.0
1028,267.9895703875,268.3660761166667,72.0,79.0
1029,267.9895703875,268.41878691875,68.0,77.0
1030,267.9895703875,268.43685919375,63.0,78.0
1031,268.3510158875,268.94890698541667,53.0,70.0
1032,268.7124613875,269.02722017708334,70.0,81.0
1033,267.9895703875,269.09950927708337,41.0,82.0
1034,269.0739068875,269.38866567708334,72.0,84.0
1035,269.4353523875,269.894193025,73.0,86.0
1036,269.4353523875,269.9460222,65.0,75.0
1037,269.4353523875,269.99175382500005,68.0,83.0
1038,270.1670583875,270.302728875,65.0,81.0
1039,270.1670583875,270.31187520000003,72.0,86.0
1040,269.0739068875,270.52224067500003,53.0,68.0
1041,270.5329113875,270.78138655000004,61.0,76.0
1042,270.5329113875,270.839313275,68.0,74.0
1043,270.8987643875,271.2693524375,66.0,83.0
1044,270.8987643875,271.28258772500004,70.0,81.0
1045,270.8987643875,271.2840583125,61.0,84.0
1046,271.6046463875,272.0164108875,61.0,90.0
1047,271.95758738750004,272.2869989875,66.0,76.0
1048,272.3105283875,272.43111656250005,66.0,56.0
1049,270.8987643875,272.47670477500003,51.0,80.0
1050,271.2517053875,272.51494005,58.0,73.0
1051,272.3105283875,272.59288118750004,70.0,79.0
1052,272.6634693875,272.9914104,67.0,81.0
1053,273.0164103875,273.1075868125,73.0,57.0
1054,272.3105283875,273.24582203750003,55.0,84.0
1055,273.0164103875,273.60317480000003,61.0,95.0
1056,273.36935138750005,273.61052773750004,73.0,83.0
1057,273.72229238750003,274.16436476250004,66.0,84.0
1058,273.72229238750003,274.19942567500004,70.0,83.0
1059,273.72229238750003,274.20095006250006,73.0,79.0
1060,273.72229238750003,274.21314516250004,61.0,83.0
1061,274.4539983875,274.607961525,61.0,79.0
1062,274.6369248875,274.82899771250004,66.0,80.0
1063,274.8198513875,274.9235097375,68.0,75.0
1064,275.00277788750003,275.2466798875,70.0,79.0
1065,274.27107188750006,275.43722832500004,56.0,76.0
1066,275.18570438750004,275.58052075,73.0,83.0
1067,275.9174103875,276.06070281250004,70.0,75.0
1068,273.72229238750003,276.217714725,44.0,82.0
1069,274.08814538750005,276.25125125000005,51.0,78.0
1070,275.9174103875,276.2619219625,78.0,84.0
1071,275.9174103875,276.4570435625,56.0,62.0
1072,277.01496938750006,277.45246860000003,65.0,55.0
1073,276.64911638750004,277.52563920000006,80.0,63.0
1074,277.3808223875,277.7314315125,75.0,76.0
1075,277.74667538750003,278.23171436250004,65.0,50.0
1076,278.11252838750005,278.87270235000005,80.0,61.0
1077,278.81020238750006,279.05002782500003,65.0,69.0
1078,278.98462088750006,279.18665565000003,68.0,63.0
1079,276.64911638750004,279.22153935000006,61.0,62.0
1080,279.15903938750006,279.3189230125,75.0,82.0
1081,279.50787638750006,279.9461290562501,68.0,67.0
1082,279.50787638750006,280.00938201875005,75.0,83.0
1083,279.33345788750006,280.0997433937501,80.0,76.0
1084,280.59221288750007,281.0108872583334,73.0,78.0
1085,280.95365838750007,281.6328747229167,80.0,75.0
1086,281.3151038875001,281.69612768541674,68.0,48.0
1087,281.6765493875001,282.11932012500006,75.0,78.0
1088,279.50787638750006,282.28950071458337,60.0,82.0
1089,282.0379948875001,282.58620500000006,80.0,73.0
1090,282.3994403875001,282.8126754750001,68.0,41.0
1091,282.3994403875001,282.8141460625001,73.0,83.0
1092,282.75238138750007,283.42002811250006,65.0,63.0
1093,283.10532238750005,283.51708688750006,68.0,62.0
1094,283.4582633875001,283.6464985875001,73.0,86.0
1095,284.16414538750007,284.3317923625001,77.0,72.0
1096,284.16414538750007,284.46708641250007,85.0,82.0
1097,284.51708638750006,284.63326280000007,84.0,86.0
1098,284.51708638750006,284.66561572500007,75.0,79.0
1099,284.51708638750006,284.7391451000001,70.0,72.0
1100,282.3994403875001,284.9170861875001,58.0,71.0
1101,284.16414538750007,284.9670861625001,65.0,53.0
1102,285.2229683875001,285.31120363750006,72.0,59.0
1103,285.2229683875001,286.11635038750006,80.0,77.0
1104,285.5759093875001,286.39760038750006,65.0,60.0
1105,285.92885038750006,286.4007253875001,68.0,67.0
1106,286.30385038750006,286.71791288750006,72.0,80.0
1107,286.67885038750006,287.02416288750004,73.0,80.0
1108,286.67885038750006,287.26478788750006,65.0,68.0
1109,287.05385038750006,287.42572538750005,75.0,79.0
1110,285.2229683875001,287.53822538750006,56.0,71.0
1111,287.42885038750006,287.7444753875001,77.0,75.0
1112,287.80385038750006,288.1429128875001,73.0,82.0
1113,288.17885038750006,288.3464973625001,68.0,43.0
1114,288.17885038750006,288.8626735750001,70.0,71.0
1115,288.88473238750004,289.20973222500004,66.0,78.0
1116,288.53179138750005,289.28620277500005,61.0,76.0
1117,289.2376733875001,289.58179086250004,68.0,72.0
1118,289.4141438875001,289.66290348750005,70.0,76.0
1119,289.59061438750007,290.2999511812501,61.0,77.0
1120,289.59061438750007,290.36019209791675,73.0,83.0
1121,288.17885038750006,290.6869990708334,54.0,76.0
1122,290.49422813750004,290.7186255520834,61.0,73.0
1123,290.6749508875001,290.8752519354167,68.0,76.0
1124,290.3135053875001,291.09211923541676,49.0,68.0
1125,291.0363963875001,291.27284198541673,41.0,63.0
1126,291.0363963875001,291.48519121666675,61.0,72.0
1127,291.0363963875001,291.59663691250006,68.0,78.0
1128,290.85567363750005,291.6222393020834,73.0,81.0
1129,291.7592873875001,292.3722387145834,53.0,42.0
1130,292.1207328875001,292.42494951666674,61.0,75.0
1131,292.4821783875001,292.5743658875001,61.0,37.0
1132,292.4821783875001,292.8368658875001,68.0,84.0
1133,292.8571783875001,293.2743658875001,61.0,73.0
1134,293.2321783875001,293.6134283875001,63.0,82.0
1135,293.6071783875001,293.9587408875001,66.0,75.0
1136,293.9821783875001,294.3586841166668,68.0,82.0
1137,293.9821783875001,294.38579252916674,61.0,82.0
1138,294.3436238875001,294.78940667083344,58.0,38.0
1139,294.7050693875001,295.0198281770834,70.0,79.0
1140,294.7050693875001,295.0439245437501,66.0,77.0
1141,294.7050693875001,295.05898477291674,61.0,63.0
1142,293.9821783875001,295.10868352916674,51.0,74.0
1143,295.0665148875001,295.4773789625001,58.0,58.0
1144,295.4279603875001,295.8378438625001,70.0,83.0
1145,295.4279603875001,295.86691361250007,67.0,82.0
1146,295.4279603875001,295.9250531125001,61.0,83.0
1147,295.7767973875001,296.4366807125001,58.0,63.0
1148,295.4279603875001,296.4497621000001,51.0,83.0
1149,296.1256343875001,296.5122620625001,61.0,82.0
1150,296.4744713875001,296.54714576250007,66.0,82.0
1151,296.8233083875001,297.20583820833343,66.0,86.0
1152,296.8233083875001,297.2133683229168,61.0,90.0
1153,296.8233083875001,297.35644050000013,58.0,80.0
1154,297.5461993875001,297.69680167916675,58.0,90.0
1155,297.7269221375001,297.9513195520834,60.0,71.0
1156,297.9076448875001,298.02662069791677,61.0,95.0
1157,296.8233083875001,298.04017490416675,44.0,84.0
1158,297.3654766375001,298.1184880958334,56.0,93.0
1159,297.1847538875001,298.1787290125001,51.0,84.0
1160,298.0883676375001,298.32791388750013,63.0,84.0
1161,298.2690903875001,298.4705608750001,65.0,83.0
1162,298.4455608875001,298.5573255375001,66.0,93.0
1163,298.6220313875001,298.8396783375001,68.0,84.0
1164,298.7985018875001,299.0367370625001,70.0,80.0
1165,298.2690903875001,299.0749723375001,44.0,84.0
1166,298.9749723875001,299.16908993750013,56.0,84.0
1167,298.9749723875001,299.2279134375001,72.0,90.0
1168,299.15144288750014,299.3558545500001,73.0,80.0
1169,299.6808543875001,300.02874568125014,68.0,86.0
1170,299.6808543875001,300.0618781854168,73.0,93.0
1171,299.6808543875001,300.13115523958345,65.0,84.0
1172,300.0422998875001,300.41880561666676,56.0,52.0
1173,299.6808543875001,300.5091669916668,49.0,98.0
1174,300.4037453875001,300.53627540416676,61.0,83.0
1175,300.4037453875001,300.55434767916677,65.0,80.0
1176,300.7651908875001,300.82241975833347,68.0,81.0
1177,300.7651908875001,300.8435040791668,61.0,84.0
1178,300.7651908875001,300.8525402166668,65.0,84.0
1179,300.7651908875001,300.87663658333344,49.0,96.0
1180,300.7651908875001,300.8886847666668,73.0,90.0
1181,301.1266363875001,301.3469488875001,59.0,82.0
1182,301.1266363875001,301.5875738875001,71.0,86.0
1183,301.1266363875001,301.6125738875001,63.0,83.0
1184,301.1266363875001,301.6125738875001,66.0,86.0
1185,301.1266363875001,302.0141363875001,47.0,95.0
1186,301.8766363875001,302.16413638750015,71.0,91.0
1187,301.8766363875001,302.17194888750015,63.0,86.0
1188,301.8766363875001,302.1860113875001,66.0,90.0
1189,302.2516363875001,302.29694888750015,59.0,56.0
1190,302.2516363875001,302.3735113875001,47.0,86.0
1191,302.6266363875001,303.02145275000015,56.0,79.0
1192,302.6266363875001,303.1495013000001,63.0,84.0
1193,302.6266363875001,303.1586476250001,72.0,91.0
1194,302.6266363875001,303.1998060875001,68.0,84.0
1195,303.3583423875001,303.6129151000001,56.0,73.0
1196,303.7241953875001,303.76078068750013,68.0,62.0
1197,302.6266363875001,303.7805977250001,44.0,86.0
1198,303.7241953875001,303.8202318000001,56.0,81.0
1199,303.7241953875001,303.8217561875001,63.0,82.0
1200,303.7241953875001,303.9741949375001,72.0,96.0
1201,304.09004838750013,304.2988894750001,57.0,84.0
1202,304.09004838750013,304.50315740000013,69.0,82.0
1203,304.09004838750013,304.5427914750001,60.0,83.0
1204,304.09004838750013,304.6906570625001,65.0,75.0
1205,304.63882788750016,304.8446202000001,57.0,81.0
1206,304.8217543875001,305.0748027125001,60.0,90.0
1207,304.8217543875001,305.09766852500013,69.0,83.0
1208,304.09004838750013,305.1510220875001,45.0,90.0
1209,305.0046808875001,305.1799854500001,57.0,91.0
1210,305.1876073875001,305.47724101250014,65.0,84.0
1211,305.37053388750013,305.51839947500014,68.0,75.0
1212,305.55346038750014,305.80498432500013,61.0,86.0
1213,305.55346038750014,305.8080331000001,65.0,86.0
1214,305.55346038750014,305.8522403375001,70.0,90.0
1215,306.1022398875001,306.2653493500001,65.0,78.0
1216,306.1022398875001,306.45589778750013,73.0,96.0
1217,306.2851663875001,306.5946170500001,58.0,72.0
1218,306.6510193875001,306.75772651250014,63.0,83.0
1219,305.91931338750015,306.8385190500001,53.0,80.0
1220,306.83394588750014,306.8385190500001,53.0,31.0
1221,306.6510193875001,306.86900680000014,72.0,93.0
1222,306.6510193875001,306.88272628750013,58.0,63.0
1223,305.55346038750014,306.9696163750001,46.0,90.0
1224,307.01687238750014,307.5389309500001,73.0,90.0
1225,307.01687238750014,307.54775447500015,65.0,86.0
1226,307.7227543875001,307.8639307875001,65.0,93.0
1227,307.01687238750014,307.99628366250016,46.0,83.0
1228,307.89922488750017,308.02422482500015,70.0,83.0
1229,307.5462838875001,308.05363657500016,58.0,90.0
1230,307.36981338750013,308.16834240000014,53.0,84.0
1231,308.07569538750016,308.2536364750001,72.0,84.0
1232,308.25216588750015,308.4124599250001,73.0,99.0
1233,308.42863638750015,308.8422167791668,72.0,91.0
1234,308.42863638750015,308.88079703958346,44.0,83.0
1235,308.7990068875001,308.98110571666683,53.0,80.0
1236,308.42863638750015,309.1338835479168,63.0,84.0
1237,308.98419213750014,309.21413048958345,56.0,75.0
1238,308.42863638750015,309.2218465416668,68.0,84.0
1239,309.16937738750016,309.4409824208335,58.0,76.0
1240,309.53974788750014,309.7635133979168,63.0,84.0
1241,309.72493313750016,309.86536528541683,68.0,77.0
1242,309.3545626375001,310.0937604270835,60.0,84.0
1243,309.9101183875002,310.1477727916668,63.0,83.0
1244,309.9101183875002,310.2496246791668,72.0,98.0
1245,310.28048888750016,310.4903655041668,65.0,82.0
1246,310.28048888750016,310.5320321854168,73.0,90.0
1247,310.28048888750016,310.54900750000013,60.0,80.0
1248,310.65085938750013,310.7879074729168,60.0,86.0
1249,310.65085938750013,310.7879074729168,72.0,93.0
1250,310.65085938750013,310.8376062291668,63.0,84.0
1251,311.01230488750014,311.12977467500014,68.0,90.0
1252,311.1930276375001,311.2532685541668,68.0,56.0
1253,311.37375038750014,311.50025631250014,68.0,98.0
1254,311.37375038750014,311.7246537270835,42.0,84.0
1255,311.37375038750014,312.0514607000001,61.0,90.0
1256,311.73519588750014,312.1207377541668,54.0,58.0
1257,311.4641117625001,312.48519530000016,70.0,84.0
1258,312.45808688750014,312.74272521875014,61.0,91.0
1259,312.81953238750015,313.1764598187501,66.0,98.0
1260,313.3617006375001,313.51531497500014,66.0,86.0
1261,313.54242338750015,313.7427244354168,70.0,86.0
1262,313.18097788750015,313.7909171687501,61.0,84.0
1263,312.09664138750014,313.8496520625001,58.0,82.0
1264,313.7231461375001,313.94453150625014,73.0,90.0
1265,313.90386888750015,314.1312783479168,72.0,90.0
1266,314.0845916375001,314.1749530125001,70.0,72.0
1267,314.26531438750015,314.82019143750017,61.0,83.0
1268,314.26531438750015,314.84000847500016,64.0,95.0
1269,314.26531438750015,314.9406180500002,69.0,90.0
1270,314.26531438750015,316.4101276000002,57.0,81.0
1271,314.26531438750015,316.45433483750014,45.0,109.0
1272,315.63726313750016,316.45738361250017,76.0,81.0
1273,315.60829977500015,316.47110310000016,73.0,72.0
1274,315.80189698750013,316.4863469750002,81.0,71.0
1275,317.19213838750017,317.94366142500013,66.0,76.0
1276,317.19213838750017,317.96652723750015,61.0,71.0
1277,317.19213838750017,318.00463692500017,70.0,78.0
1278,318.65555038750017,319.33237843750015,73.0,72.0
1279,318.28969738750015,319.3430491500002,61.0,60.0
1280,317.19213838750017,319.34609792500015,51.0,68.0
1281,317.92384438750014,319.35981741250015,58.0,54.0
1282,320.1189623875002,322.7427053875001,44.0,59.0
1283,320.1189623875002,322.79078226250016,61.0,73.0
1284,320.1189623875002,322.8084104500001,66.0,58.0
1285,320.1189623875002,322.9157821375001,58.0,48.0
1286,322.98629488750015,323.76994795000013,63.0,59.0
1287,322.98629488750015,323.8019992000001,68.0,72.0
1288,323.75552488750014,324.4077678250001,61.0,22.0
1289,324.14013988750014,324.9115069000001,63.0,37.0
1290,324.14013988750014,324.9578032125001,68.0,68.0
1291,324.9022476375001,325.50718612083347,61.0,39.0
1292,322.98629488750015,325.5828034312501,56.0,63.0
1293,322.98629488750015,325.6429886375001,49.0,60.0
1294,325.2726181375001,325.64916147916676,63.0,54.0
1295,325.6429886375001,325.9084208291668,68.0,53.0
1296,326.1244702875001,328.1897474750001,66.0,80.0
1297,326.1059517625001,328.2263327750001,61.0,69.0
1298,326.1892851250001,328.2552961375001,73.0,75.0
1299,326.1676801791668,328.3010277625001,70.0,73.0
1300,326.1244702875001,328.3299911250001,56.0,62.0
1301,329.2004163875001,330.36504843750015,65.0,63.0
1302,329.2004163875001,330.4290727125001,68.0,73.0
1303,329.2004163875001,330.47632872500014,73.0,79.0
1304,330.66382838750013,331.4961439625001,70.0,69.0
1305,330.66382838750013,331.5159610000001,66.0,71.0
1306,330.66382838750013,331.65772903750013,73.0,54.0
1307,332.0327283625001,332.2305011125001,92.0,62.0
1308,331.9290700125001,332.2812256791668,85.0,53.0
1309,331.9687040875001,332.3102111458335,89.0,62.0
1310,332.14173312083346,332.3718052625001,97.0,61.0
1311,329.2004163875001,334.59440555625014,49.0,73.0
1312,335.3813793875002,336.07736728541687,68.0,56.0
1313,335.3813793875002,336.1792191729169,73.0,72.0
1314,335.3813793875002,336.33354021458354,77.0,71.0
1315,336.4924908875002,337.41224429583355,68.0,56.0
1316,336.8628613875002,337.5110097625002,80.0,57.0
1317,337.6036023875002,337.9704851375002,68.0,50.0
1318,335.3813793875002,337.9964591375002,61.0,60.0
1319,337.9932123875002,338.3584717625002,77.0,73.0
1320,338.3828223875002,338.6996826625002,75.0,80.0
1321,339.0804963875002,339.6702393875002,80.0,57.0
1322,339.8497263875002,340.1462004500002,84.0,71.0
1323,339.4651113875002,340.2215208875002,72.0,48.0
1324,339.8497263875002,340.2487644500002,75.0,57.0
1325,338.7316593875002,340.7054947625002,68.0,42.0
1326,338.3828223875002,340.7647895750002,60.0,78.0
1327,341.0035713875002,341.2054942625002,73.0,48.0
1328,341.1958788875002,341.42019852500016,75.0,69.0
1329,341.3881863875002,341.69458827500017,68.0,59.0
1330,341.3881863875002,342.1122704500002,73.0,76.0
1331,341.7540393875002,342.54672088750016,65.0,62.0
1332,342.11989238750016,342.6259890375002,70.0,60.0
1333,342.4857453875002,342.9429444500002,77.0,53.0
1334,342.8515983875002,343.5583284500002,75.0,69.0
1335,343.6208283875002,343.8245321625002,73.0,74.0
1336,343.6208283875002,343.86311242291686,68.0,43.0
1337,343.6208283875002,343.89551984166684,65.0,57.0
1338,341.3881863875002,343.8986062625002,58.0,61.0
1339,344.3615693875002,344.6912568875002,63.0,63.0
1340,344.3615693875002,344.8709443875002,72.0,71.0
1341,344.3615693875002,345.0209443875002,68.0,59.0
1342,344.7365693875002,345.3256318875002,60.0,46.0
1343,345.1115693875002,345.4959443875002,65.0,58.0
1344,345.4865693875002,345.9788533791669,75.0,72.0
1345,345.8615693875002,346.26589051666684,63.0,52.0
1346,345.8615693875002,346.33224856458355,72.0,72.0
1347,346.6023103875002,346.85564372083354,63.0,62.0
1348,345.8615693875002,346.86897705416686,60.0,59.0
1349,346.6023103875002,346.8773103875002,68.0,73.0
1350,344.3615693875002,346.9739770541669,53.0,67.0
1351,347.0023103875002,347.33231038750023,66.0,75.0
1352,347.4023103875002,347.5212861979169,68.0,68.0
1353,347.4023103875002,347.68544269583356,61.0,68.0
1354,347.4023103875002,347.90230999583355,70.0,78.0
1355,347.7637558875002,348.4525820125002,61.0,59.0
1356,347.4023103875002,348.48234388750024,54.0,68.0
1357,348.1252013875002,348.5061533875002,66.0,67.0
1358,348.48234388750024,348.77549835625024,73.0,80.0
1359,348.83948638750024,349.15496226250025,68.0,57.0
1360,348.83948638750024,349.30079545000024,72.0,75.0
1361,349.5537713875002,349.7626322375002,68.0,54.0
1362,349.19662888750025,349.87655633750023,63.0,52.0
1363,348.83948638750024,349.9256069916669,56.0,72.0
1364,349.5537713875002,349.9572525750002,75.0,73.0
1365,349.5537713875002,349.9714930875002,72.0,62.0
1366,350.3132653875002,350.6718959812502,72.0,79.0
1367,350.3132653875002,350.7448125750002,63.0,54.0
1368,350.67040788750023,351.20314545000025,60.0,74.0
1369,350.3132653875002,351.27010966875025,53.0,70.0
1370,351.02755038750024,351.3787405125002,68.0,78.0
1371,351.38469288750025,351.6718949812502,72.0,75.0
1372,351.5632641375002,352.0007637000002,65.0,52.0
1373,351.7418353875002,352.0349898562502,73.0,73.0
1374,351.7418353875002,352.12278738750024,68.0,68.0
1375,352.4561203875002,352.7798380125002,68.0,47.0
1376,351.7418353875002,352.7974662000002,46.0,53.0
1377,352.0989778875002,352.8631712625002,53.0,63.0
1378,352.4561203875002,352.93368401250024,58.0,59.0
1379,352.4561203875002,352.93368401250024,61.0,61.0
1380,352.8407353875002,353.0282352000002,65.0,75.0
1381,353.2253503875002,353.6256476062502,66.0,78.0
1382,353.2253503875002,353.6286237937502,61.0,69.0
1383,353.93963538750023,354.1747542000002,61.0,76.0
1384,354.29677788750024,354.5824918875002,70.0,75.0
1385,353.5824928875002,354.7231511625002,58.0,62.0
1386,354.6539203875002,354.76738193541684,66.0,76.0
1387,354.6539203875002,354.7962280916669,73.0,79.0
1388,354.6539203875002,355.3500742916669,63.0,59.0
1389,353.25808845000023,355.71930509166685,51.0,76.0
1390,355.5827666187502,355.7385358625002,70.0,63.0
1391,355.61545892916683,355.8596897187502,63.0,57.0
1392,355.1789204312502,356.03084357916686,58.0,39.0
1393,355.58661277291685,356.2673820604169,78.0,82.0
1394,356.04045896458354,356.3308436041669,68.0,57.0
1395,356.0443051187502,356.52958822916685,77.0,73.0
1396,356.51222714583355,356.8594488125002,66.0,80.0
1397,356.5156993625002,356.89243487083354,61.0,75.0
1398,356.5226437958335,356.9167403875002,73.0,58.0
1399,356.50701882083354,356.94104590416686,70.0,75.0
1400,357.44451732083354,357.73097519583354,78.0,78.0
1401,357.44104510416685,357.73791962916687,70.0,61.0
1402,357.44451732083354,357.74139184583356,73.0,79.0
1403,358.2917382458336,358.6519073291669,80.0,73.0
1404,358.3108060208336,358.68156831250025,75.0,82.0
1405,358.2917382458336,358.71970386250024,72.0,72.0
1406,359.1349576291669,359.5369473041669,73.0,74.0
1407,359.1286017041669,359.5858603541669,78.0,71.0
1408,356.5156993625002,359.6021647041669,56.0,73.0
1409,359.1201271375002,359.6266212291669,70.0,57.0
1410,360.56140396250026,361.2624910125002,49.0,69.0
1411,360.9255344458336,361.29781710416694,56.0,50.0
1412,360.5423822208336,361.3711866791669,77.0,69.0
1413,361.3385779791669,361.76520847083356,61.0,47.0
1414,361.3249910208336,362.1402085208336,75.0,73.0
1415,362.1402085208336,362.73531729583357,73.0,73.0
1416,362.1456433041669,363.1266216958336,65.0,63.0
1417,362.7679259958336,363.2380347541669,68.0,61.0
1418,361.7135780291669,363.3684695541669,63.0,61.0
1419,363.22716518750025,363.4445565208336,66.0,72.0
1420,363.71629568750024,363.8820565791669,63.0,72.0
1421,364.84944801250026,364.9662958541669,37.0,84.0
1422,364.78423061250027,365.0315132541669,51.0,63.0
1423,364.8141219208336,365.13205674583355,53.0,79.0
1424,364.8929262791669,365.1646654458336,56.0,71.0
1425,364.97716542083356,365.29510024583357,61.0,71.0
1426,365.4336872208336,365.7326003041669,49.0,60.0
1427,365.58586115416693,365.77064378750026,56.0,69.0
1428,365.7353176958336,365.81140466250025,61.0,76.0
1429,365.8820568458336,366.0478177375002,63.0,73.0
1430,366.03694817083357,366.2407525458336,65.0,78.0
1431,366.15379601250027,366.36575256250023,68.0,76.0
1432,366.3114047291669,366.50162214583355,73.0,73.0
1433,366.4771656208336,366.6537960791669,75.0,48.0
1434,366.6076004208336,366.75433957083357,77.0,51.0
1435,366.79510044583355,366.8929265458336,80.0,62.0
1436,366.97716568750025,367.1239048375002,85.0,63.0
1437,367.13749179583357,367.4146657458336,87.0,69.0
1438,367.3086874708336,367.4826005375002,89.0,68.0
1439,367.49618749583357,367.6646657791669,92.0,72.0
1440,367.7108614375002,367.76520927083357,97.0,62.0
