,start,end,pitch,velocity
0,34.137906,34.39221615833333,65.0,64.0
1,34.3965265,34.65083665833333,65.0,66.0
2,34.655147,34.90945715833333,67.0,74.0
3,34.9137675,35.16807765833333,68.0,65.0
4,35.172388,35.42669815833334,72.0,83.0
5,35.431008500000004,35.68531865833334,70.0,90.0
6,35.689629000000004,35.943939158333336,68.0,89.0
7,35.9482495,37.366351908333336,67.0,85.0
8,37.37066225,37.75428265833334,68.0,103.0
9,37.758593000000005,38.01290315833334,67.0,97.0
10,38.017213500000004,39.047385158333334,65.0,96.0
11,39.0516955,39.30600565833333,63.0,92.0
12,39.310316,39.82324665833333,65.0,94.0
13,39.827557,42.40945165833333,65.0,99.0
14,42.413762,42.66807215833334,65.0,82.0
15,42.672382500000005,42.92669265833334,65.0,76.0
16,42.931003000000004,43.18531315833334,67.0,66.0
17,43.1896235,43.443933658333336,68.0,68.0
18,43.448244,43.702554158333335,72.0,79.0
19,43.7068645,43.961174658333334,70.0,96.0
20,43.965485,44.21979515833333,68.0,84.0
21,44.2241055,45.51289765833334,67.0,90.0
22,45.517208000000004,46.030138658333335,68.0,93.0
23,46.034449,46.288759158333335,67.0,83.0
24,46.2930695,46.80600015833333,68.0,79.0
25,46.8103105,47.32324115833333,65.0,80.0
26,47.3275515,47.58186165833334,65.0,77.0
27,47.586172000000005,48.09910265833334,63.0,80.0
28,48.103413,50.685307658333336,72.0,87.0
29,50.689618,50.943928158333335,73.0,65.0
30,50.9482385,51.202548658333335,73.0,87.0
31,51.206859,51.461169158333334,73.0,77.0
32,51.4654795,51.71978965833333,73.0,89.0
33,51.7241,51.97841015833333,73.0,89.0
34,51.9827205,52.23703065833334,73.0,92.0
35,52.241341000000006,52.49565115833334,75.0,84.0
36,52.499961500000005,53.271512658333336,72.0,76.0
37,53.275823,54.047374158333334,70.0,63.0
38,54.0516845,54.30599465833333,68.0,90.0
39,54.310305,54.56461515833333,70.0,87.0
40,54.5689255,55.08185615833334,77.0,90.0
41,55.086166500000004,55.599097158333336,75.0,98.0
42,55.6034075,56.116338158333335,70.0,97.0
43,56.1206485,56.374958658333334,72.0,82.0
44,56.379269,56.89219965833333,70.0,90.0
45,56.89651,58.185302158333336,68.0,90.0
46,58.1896125,58.443922658333335,65.0,82.0
47,58.448233,58.702543158333334,67.0,81.0
48,58.7068535,59.47840465833333,68.0,90.0
49,59.482715,60.25426615833334,65.0,68.0
50,60.258576500000004,60.512886658333336,67.0,97.0
51,60.517197,60.771507158333335,68.0,86.0
52,60.7758175,61.288748158333334,70.0,96.0
53,61.2930585,61.80598915833333,68.0,90.0
54,61.8102995,62.06460965833334,67.0,76.0
55,62.068920000000006,62.58185065833334,70.0,100.0
56,62.586161000000004,63.099091658333336,67.0,93.0
57,63.103402,63.357712158333335,68.0,62.0
58,63.3620225,67.23701965833334,67.0,74.0
59,67.24133,67.49564015833333,65.0,82.0
60,67.4999505,67.75426065833334,65.0,90.0
61,67.758571,68.01288115833334,67.0,79.0
62,68.0171915,68.27150165833334,68.0,76.0
63,68.275812,68.53012215833334,72.0,90.0
64,68.53443250000001,68.78874265833333,70.0,96.0
65,68.793053,69.04736315833334,68.0,92.0
66,69.0516735,70.59908615833334,67.0,101.0
67,70.6033965,70.85770665833334,68.0,103.0
68,70.86201700000001,71.11632715833333,67.0,77.0
69,71.1206375,71.63356815833333,65.0,93.0
70,71.6378785,72.15080915833333,65.0,96.0
71,72.1551195,72.40942965833334,63.0,94.0
72,72.41374,72.92667065833334,65.0,91.0
73,72.930981,75.51287565833334,65.0,95.0
74,75.51718600000001,75.77149615833333,65.0,93.0
75,75.7758065,76.03011665833334,65.0,91.0
76,76.03442700000001,76.28873715833333,67.0,71.0
77,76.2930475,76.54735765833334,68.0,84.0
78,76.551668,76.80597815833333,72.0,86.0
79,76.8102885,77.06459865833334,70.0,84.0
80,77.068909,77.32321915833333,68.0,72.0
81,77.3275295,77.45252940833333,70.0,65.0
82,77.45683975,77.58183965833334,68.0,68.0
83,77.58615,78.61632165833333,67.0,65.0
84,78.620632,79.13356265833333,68.0,100.0
85,79.137873,79.39218315833334,67.0,90.0
86,79.3964935,79.90942415833334,68.0,91.0
87,79.9137345,80.42666515833334,65.0,92.0
88,80.4309755,80.68528565833334,65.0,91.0
89,80.68959600000001,81.20252665833334,63.0,86.0
90,81.20683700000001,81.71976765833334,72.0,103.0
91,81.724078,81.97838815833333,73.0,92.0
92,81.9826985,82.49562915833333,72.0,96.0
93,82.4999395,82.75424965833334,70.0,96.0
94,82.75856,83.78873165833333,68.0,90.0
95,83.793042,84.04735215833334,73.0,104.0
96,84.0516625,84.30597265833333,73.0,97.0
97,84.310283,84.56459315833334,73.0,96.0
98,84.5689035,84.82321365833333,73.0,96.0
99,84.827524,85.08183415833334,73.0,95.0
100,85.0861445,85.34045465833334,73.0,92.0
101,85.34476500000001,85.59907515833333,75.0,91.0
102,85.6033855,86.37493665833334,72.0,99.0
103,86.379247,87.15079815833333,70.0,61.0
104,87.1551085,87.40941865833334,68.0,91.0
105,87.413729,87.66803915833334,70.0,93.0
106,87.67234950000001,88.18528015833334,77.0,90.0
107,88.18959050000001,88.70252115833334,75.0,98.0
108,88.7068315,89.21976215833334,70.0,91.0
109,89.2240725,89.47838265833333,72.0,87.0
110,89.482693,89.99562365833334,70.0,93.0
111,89.99993400000001,91.28872615833333,68.0,91.0
112,91.2930365,91.54734665833334,65.0,93.0
113,91.551657,91.80596715833333,67.0,93.0
114,91.8102775,92.58182865833334,68.0,97.0
115,92.586139,93.35769015833334,65.0,84.0
116,93.36200050000001,93.61631065833333,67.0,97.0
117,93.620621,93.87493115833334,68.0,91.0
118,93.8792415,94.39217215833334,70.0,99.0
119,94.3964825,94.90941315833334,68.0,87.0
120,94.9137235,95.16803365833334,68.0,93.0
121,95.17234400000001,95.68527465833334,70.0,93.0
122,95.68958500000001,96.20251565833334,72.0,97.0
123,96.206826,96.46113615833333,73.0,96.0
124,96.4654465,99.56458215833334,72.0,95.0
125,99.5688925,99.82320265833334,75.0,105.0
126,99.82751300000001,100.08182315833334,72.0,84.0
127,100.0861335,100.72837440833334,80.0,91.0
128,100.73268475,101.50423590833334,77.0,106.0
129,101.50854625000001,101.76285640833333,75.0,101.0
130,101.76716675,102.15078715833334,77.0,97.0
131,102.15509750000001,102.92664865833333,72.0,100.0
132,102.930959,103.70251015833334,70.0,87.0
133,103.7068205,103.96113065833333,70.0,97.0
134,103.965441,104.21975115833334,72.0,85.0
135,104.2240615,104.99561265833334,79.0,96.0
136,104.99992300000001,105.51285365833334,75.0,100.0
137,105.51716400000001,105.77147415833333,70.0,94.0
138,105.7757845,106.03009465833334,70.0,94.0
139,106.034405,106.28871515833333,72.0,98.0
140,106.2930255,107.06457665833334,70.0,99.0
141,107.068887,107.84043815833334,68.0,97.0
142,107.84474850000001,108.09905865833333,65.0,91.0
143,108.103369,108.35767915833334,68.0,91.0
144,108.3619895,108.74560990833334,72.0,103.0
145,108.74992025,109.13354065833333,70.0,101.0
146,109.137851,109.39216115833334,68.0,92.0
147,109.3964715,109.65078165833334,70.0,100.0
148,109.65509200000001,110.03871240833334,68.0,101.0
149,110.04302275,110.42664315833333,65.0,87.0
150,110.4309535,110.94388415833333,77.0,81.0
151,110.9481945,111.46112515833333,75.0,101.0
152,111.4654355,111.71974565833334,75.0,103.0
153,111.724056,112.23698665833334,72.0,95.0
154,112.241297,112.49560715833334,63.0,91.0
155,112.49991750000001,116.11629415833333,72.0,97.0
156,116.1206045,116.37491465833334,75.0,105.0
157,116.379225,116.63353515833334,72.0,94.0
158,116.63784550000001,117.40939665833334,80.0,97.0
159,117.413707,118.18525815833334,77.0,109.0
160,118.18956850000001,118.44387865833333,75.0,111.0
161,118.448189,118.70249915833334,77.0,90.0
162,118.7068095,119.47836065833334,72.0,97.0
163,119.48267100000001,120.25422215833333,70.0,108.0
164,120.2585325,120.51284265833334,70.0,105.0
165,120.51715300000001,120.77146315833333,72.0,93.0
166,120.7757735,121.54732465833334,79.0,97.0
167,121.551635,122.32318615833334,75.0,105.0
168,122.32749650000001,122.58180665833333,70.0,103.0
169,122.586117,122.84042715833334,72.0,90.0
170,122.84473750000001,123.61628865833333,70.0,94.0
171,123.620599,124.39215015833334,68.0,103.0
172,124.3964605,124.65077065833334,65.0,91.0
173,124.65508100000001,124.90939115833334,68.0,82.0
174,124.9137015,125.16801165833334,72.0,97.0
175,125.17232200000001,125.42663215833333,70.0,90.0
176,125.4309425,125.68525265833334,70.0,83.0
177,125.689563,125.94387315833333,68.0,87.0
178,125.9481835,126.46111415833334,70.0,97.0
179,126.46542450000001,126.71973465833334,68.0,97.0
180,126.724045,126.97835515833334,65.0,94.0
181,126.98266550000001,127.49559615833334,77.0,90.0
182,127.49990650000001,128.01283715833333,75.0,98.0
183,128.0171475,128.27145765833333,72.0,109.0
184,128.275768,128.53007815833334,70.0,97.0
185,128.5343885,128.78869865833335,68.0,97.0
186,128.793009,129.04731915833335,65.0,87.0
187,129.05162950000002,133.1895575,68.0,87.0
188,166.551602,166.80591215833334,65.0,64.0
189,166.8102225,167.06453265833335,65.0,66.0
190,167.06884300000002,167.32315315833333,67.0,74.0
191,167.3274635,167.58177365833333,68.0,65.0
192,167.586084,167.84039415833334,72.0,83.0
193,167.8447045,168.09901465833335,70.0,90.0
194,168.103325,168.48694540833333,68.0,89.0
195,168.36194550000002,169.78004790833333,67.0,85.0
196,169.9136685,170.29728890833334,68.0,103.0
197,170.172289,170.42659915833335,67.0,97.0
198,170.4309095,170.94384015833333,65.0,96.0
199,170.9481505,171.46108115833334,65.0,96.0
200,171.4653915,171.71970165833335,63.0,92.0
201,171.72401200000002,172.23694265833333,65.0,94.0
202,172.241253,174.82314765833334,65.0,99.0
203,174.827458,175.08176815833335,65.0,82.0
204,175.0860785,175.34038865833335,65.0,76.0
205,175.34469900000002,175.59900915833333,67.0,66.0
206,175.6033195,175.85762965833334,68.0,68.0
207,175.86194,176.11625015833334,72.0,79.0
208,176.1205605,176.37487065833335,70.0,96.0
209,176.37918100000002,176.63349115833333,68.0,84.0
210,176.6378015,177.92659365833333,67.0,90.0
211,178.06021425,178.44383465833334,68.0,93.0
212,178.448145,178.70245515833335,67.0,83.0
213,178.70676550000002,179.21969615833333,68.0,79.0
214,179.2240065,179.73693715833335,65.0,80.0
215,179.74124750000001,179.99555765833335,65.0,77.0
216,179.99986800000002,180.51279865833334,63.0,80.0
217,180.517109,181.15934990833335,72.0,87.0
218,181.16366025000002,181.41797040833333,73.0,87.0
219,181.42228075,182.06452165833335,72.0,87.0
220,182.06883200000001,182.32314215833335,70.0,87.0
221,182.32745250000002,182.96969340833334,68.0,87.0
222,182.8446935,183.35762415833335,73.0,96.0
223,183.36193450000002,183.87486515833334,73.0,98.0
224,183.8791755,184.39210615833335,73.0,99.0
225,184.39641650000002,184.65072665833335,72.0,101.0
226,184.65503700000002,184.90934715833333,73.0,95.0
227,184.9136575,185.16796765833334,72.0,93.0
228,185.172278,185.42658815833335,73.0,92.0
229,185.4308985,185.68520865833335,72.0,85.0
230,185.68951900000002,186.33175990833334,70.0,97.0
231,186.4653805,186.71969065833335,68.0,90.0
232,186.72400100000002,186.97831115833333,70.0,87.0
233,186.9826215,187.49555215833334,77.0,90.0
234,187.4998625,188.14210340833333,75.0,98.0
235,188.01710350000002,188.53003415833334,70.0,97.0
236,188.5343445,188.78865465833334,72.0,82.0
237,188.792965,189.30589565833333,70.0,90.0
238,189.310206,190.46968790833333,68.0,90.0
239,190.6033085,190.85761865833334,65.0,82.0
240,190.861929,191.11623915833334,67.0,81.0
241,191.1205495,192.02141090833334,68.0,90.0
242,191.896411,192.66796215833335,65.0,68.0
243,192.67227250000002,192.92658265833333,67.0,97.0
244,192.930893,193.18520315833334,68.0,86.0
245,193.1895135,193.70244415833335,70.0,96.0
246,193.70675450000002,194.21968515833333,68.0,90.0
247,194.2239955,194.47830565833334,68.0,76.0
248,194.482616,194.99554665833335,70.0,100.0
249,194.99985700000002,195.38347740833333,72.0,93.0
250,195.38778775,195.64209790833334,73.0,62.0
251,195.64640825,198.87485415833333,72.0,74.0
252,198.8791645,199.13347465833334,75.0,105.0
253,199.137785,199.39209515833335,72.0,84.0
254,199.39640550000001,200.03864640833334,80.0,91.0
255,200.172267,200.94381815833333,77.0,106.0
256,200.9481285,201.33174890833334,75.0,101.0
257,201.206749,201.46105915833334,77.0,97.0
258,201.4653695,202.23692065833333,72.0,100.0
259,202.241231,203.01278215833335,70.0,87.0
260,203.01709250000002,203.27140265833333,70.0,97.0
261,203.275713,203.53002315833334,72.0,85.0
262,203.5343335,204.30588465833335,79.0,96.0
263,204.31019500000002,204.82312565833334,75.0,100.0
264,204.827436,205.08174615833335,70.0,94.0
265,205.0860565,205.34036665833335,70.0,94.0
266,205.34467700000002,205.59898715833333,72.0,98.0
267,205.6032975,206.37484865833335,70.0,99.0
268,206.37915900000002,207.15071015833334,68.0,97.0
269,207.1550205,207.40933065833335,65.0,91.0
270,207.413641,207.66795115833335,68.0,91.0
271,207.67226150000002,208.05588190833333,72.0,103.0
272,208.06019225,208.44381265833334,70.0,101.0
273,208.448123,208.70243315833335,68.0,92.0
274,208.70674350000002,208.96105365833336,70.0,100.0
275,208.96536400000002,209.34898440833334,68.0,101.0
276,209.35329475,209.73691515833335,65.0,87.0
277,209.7412255,210.12484590833336,77.0,81.0
278,210.2584665,210.90070740833335,75.0,101.0
279,210.7757075,210.90070740833335,75.0,103.0
280,211.16363825000002,211.54725865833333,72.0,95.0
281,211.551569,211.80587915833334,63.0,91.0
282,211.8101895,215.42656615833334,72.0,97.0
283,215.4308765,215.68518665833335,75.0,105.0
284,215.68949700000002,215.94380715833333,72.0,94.0
285,215.9481175,216.71966865833335,80.0,97.0
286,216.723979,217.49553015833334,77.0,109.0
287,217.4998405,217.75415065833334,75.0,111.0
288,217.758461,218.01277115833335,77.0,90.0
289,218.01708150000002,218.78863265833334,72.0,97.0
290,218.792943,219.56449415833333,70.0,108.0
291,219.5688045,219.82311465833334,70.0,105.0
292,219.827425,220.08173515833334,72.0,93.0
293,220.0860455,220.85759665833334,79.0,97.0
294,220.861907,221.63345815833335,75.0,105.0
295,221.63776850000002,221.89207865833333,70.0,103.0
296,221.896389,222.15069915833334,72.0,90.0
297,222.1550095,222.92656065833333,70.0,94.0
298,222.930871,223.70242215833335,68.0,103.0
299,223.70673250000002,223.96104265833335,65.0,91.0
300,223.96535300000002,224.21966315833333,68.0,82.0
301,224.2239735,224.47828365833334,72.0,97.0
302,224.482594,224.73690415833335,70.0,90.0
303,224.7412145,224.99552465833335,70.0,83.0
304,224.99983500000002,225.25414515833333,68.0,87.0
305,225.2584555,225.77138615833334,70.0,97.0
306,225.7756965,226.03000665833335,68.0,97.0
307,226.03431700000002,226.28862715833336,65.0,94.0
308,226.29293750000002,226.80586815833334,77.0,90.0
309,226.8101785,227.32310915833335,75.0,98.0
310,227.32741950000002,227.58172965833333,72.0,109.0
311,227.58604,227.96966040833334,68.0,97.0
312,228.103281,228.48690140833335,65.0,87.0
313,228.36190150000002,228.61621165833336,70.0,105.0
314,228.62052200000002,231.97827815833335,68.0,105.0
315,231.98258850000002,232.23689865833333,75.0,105.0
316,232.241209,232.49551915833334,72.0,94.0
317,232.4998295,233.27138065833336,80.0,97.0
318,233.27569100000002,234.04724215833335,77.0,109.0
319,234.0515525,234.30586265833335,75.0,111.0
320,234.31017300000002,234.56448315833333,77.0,90.0
321,234.5687935,235.34034465833335,72.0,97.0
322,235.34465500000002,236.11620615833334,70.0,108.0
323,236.1205165,236.37482665833335,70.0,105.0
324,236.37913700000001,236.63344715833335,72.0,93.0
325,236.63775750000002,237.40930865833334,79.0,97.0
326,237.413619,237.92654965833333,75.0,105.0
327,237.93086,238.18517015833334,70.0,100.0
328,238.1894805,238.44379065833334,70.0,103.0
329,238.448101,238.70241115833335,72.0,90.0
330,238.70672150000001,239.47827265833334,70.0,94.0
331,239.482583,240.25413415833333,68.0,103.0
332,240.2584445,240.51275465833334,65.0,91.0
333,240.517065,240.77137515833334,68.0,82.0
334,240.7756855,241.02999565833335,72.0,97.0
335,241.03430600000002,241.54723665833333,70.0,90.0
336,241.551547,241.80585715833334,68.0,87.0
337,241.8101675,242.19378790833335,70.0,97.0
338,242.19809825000002,242.58171865833333,68.0,97.0
339,242.586029,242.84033915833334,65.0,94.0
340,242.8446495,243.35758015833335,77.0,90.0
341,243.36189050000002,243.87482115833333,75.0,98.0
342,243.8791315,244.13344165833334,77.0,109.0
343,244.137752,244.65068265833335,75.0,97.0
344,244.65499300000002,245.29723390833334,70.0,87.0
345,245.30154425,248.52999015833333,72.0,105.0
346,248.5343005,248.78861065833334,75.0,105.0
347,248.792921,249.04723115833335,72.0,94.0
348,249.0515415,249.82309265833334,80.0,97.0
349,249.827403,250.59895415833336,77.0,109.0
350,250.60326450000002,250.85757465833333,75.0,111.0
351,250.861885,251.11619515833334,77.0,90.0
352,251.1205055,251.89205665833333,72.0,97.0
353,251.896367,252.66791815833335,70.0,108.0
354,252.67222850000002,252.92653865833336,70.0,105.0
355,252.93084900000002,253.18515915833333,72.0,93.0
356,253.1894695,253.96102065833335,79.0,97.0
357,253.96533100000002,254.47826165833334,75.0,105.0
358,254.482572,254.99550265833335,70.0,100.0
359,254.99981300000002,255.25412315833336,72.0,90.0
360,255.25843350000002,256.0299846583333,70.0,94.0
361,256.034295,256.80584615833334,68.0,103.0
362,256.8101565,257.06446665833334,65.0,91.0
363,257.068777,257.32308715833335,68.0,82.0
364,257.3273975,257.58170765833336,72.0,97.0
365,257.586018,258.09894865833337,70.0,90.0
366,258.10325900000004,258.3575691583333,68.0,87.0
367,258.3618795,258.74549990833333,70.0,97.0
368,258.74981025,259.13343065833334,68.0,97.0
369,259.137741,259.39205115833335,65.0,94.0
370,259.3963615,259.90929215833336,77.0,90.0
371,259.9136025,260.42653315833337,75.0,98.0
372,260.43084350000004,260.6851536583333,72.0,109.0
373,260.689464,261.20239465833333,68.0,97.0
374,261.206705,261.71963565833335,65.0,87.0
375,261.723946,263.55153086666667,68.0,105.0
