,start,end,pitch,velocity
0,0.7758615,1.0344820000000001,41.0,73.0
1,1.0344820000000001,1.2855594020833334,48.0,62.0
2,1.2931025,1.5441799020833333,53.0,62.0
3,1.551723,1.8028004020833335,65.0,62.0
4,1.8103435,2.0614209020833334,72.0,62.0
5,2.0689640000000002,2.3200414020833335,77.0,62.0
6,2.3275845,2.5786619020833332,80.0,62.0
7,3.620687,3.8749971583333336,55.0,72.0
8,3.8793075000000004,4.023703945833334,56.0,61.0
9,3.3620665,4.308186495833334,53.0,66.0
10,3.103446,4.33512613125,48.0,52.0
11,4.1379280000000005,4.4547381125,60.0,69.0
12,2.8448255000000002,4.4935311875,41.0,64.0
13,4.3965485,4.636850047916667,65.0,59.0
14,4.655169,4.9547377458333335,68.0,66.0
15,4.9137895,5.368530545833334,39.0,43.0
16,5.17241,5.4234874020833335,46.0,50.0
17,5.4310305,5.707969952083333,51.0,46.0
18,4.9137895,5.9094784250000005,63.0,61.0
19,4.9137895,5.955814597916667,58.0,58.0
20,4.9137895,5.955814597916667,67.0,69.0
21,5.6896510000000005,6.129305850000001,53.0,57.0
22,5.948271500000001,6.156245485416667,55.0,66.0
23,6.206892,6.562495187500001,58.0,73.0
24,6.724133,6.79202088125,58.0,29.0
25,6.724133,7.062494820833334,63.0,60.0
26,6.9827535,7.321115320833334,67.0,64.0
27,6.9827535,7.37391700625,39.0,64.0
28,7.241374,7.45150315625,46.0,52.0
29,7.241374,7.494606572916667,63.0,55.0
30,7.499994500000001,7.799563245833333,51.0,40.0
31,7.499994500000001,7.853442516666667,58.0,40.0
32,6.4655125,8.038787208333334,70.0,75.0
33,7.758615000000001,8.061416502083334,63.0,57.0
34,8.0172355,8.299562879166666,67.0,60.0
35,8.0172355,8.425640372916668,55.0,64.0
36,7.758615000000001,8.445036910416666,53.0,63.0
37,8.275856000000001,8.616372991666667,58.0,48.0
38,8.5344765,8.836200416666667,63.0,58.0
39,8.793097,9.131458820833334,68.0,56.0
40,9.0517175,9.521544741666666,37.0,54.0
41,9.310338,9.575424012500001,44.0,59.0
42,9.5689585,9.88900136875,49.0,46.0
43,9.0517175,10.035552985416667,61.0,61.0
44,9.0517175,10.061415035416667,56.0,59.0
45,9.0517175,10.062492620833334,65.0,56.0
46,9.827579,10.272621777083334,51.0,67.0
47,10.086199500000001,10.300638997916668,53.0,67.0
48,10.34482,10.724130066666667,56.0,56.0
49,10.6034405,10.973052297916666,61.0,67.0
50,10.862061,11.116371158333333,63.0,66.0
51,11.1206815,11.58943115625,37.0,64.0
52,11.379302000000001,11.653008695833334,44.0,61.0
53,11.6379225,11.984905004166666,49.0,50.0
54,11.1206815,12.089430789583334,56.0,56.0
55,11.1206815,12.091585960416667,61.0,54.0
56,11.1206815,12.17132728125,65.0,61.0
57,11.896543000000001,12.457965002083334,51.0,49.0
58,12.1551635,12.477361539583335,53.0,72.0
59,12.413784,12.60451661875,56.0,54.0
60,12.6724045,12.980593929166668,61.0,60.0
61,13.189645500000001,13.415938437500001,36.0,64.0
62,13.448266,13.780162308333335,48.0,48.0
63,13.706886500000001,13.965507,53.0,66.0
64,12.931025,14.011843172916667,65.0,60.0
65,13.965507,14.2241275,55.0,49.0
66,14.2241275,14.556023808333334,60.0,53.0
67,14.482748,14.798480527083333,65.0,62.0
68,14.7413685,15.006454512500001,67.0,58.0
69,14.999989000000001,15.590505808333335,70.0,44.0
70,15.2586095,15.685333325,64.0,63.0
71,15.7758505,16.136841614583332,60.0,52.0
72,16.034471,16.67778949375,72.0,76.0
73,16.551712000000002,16.798479060416668,70.0,58.0
74,15.2586095,16.804944572916668,36.0,70.0
75,15.517230000000001,16.922401383333334,48.0,64.0
76,16.8103325,17.04309095,68.0,60.0
77,17.068953,17.329728670833333,67.0,59.0
78,17.3275735,17.497831995833334,56.0,73.0
79,17.3275735,17.55494402291667,60.0,75.0
80,17.3275735,17.613133635416666,65.0,76.0
81,17.586194,17.745676641666666,56.0,50.0
82,17.586194,17.83619381666667,63.0,67.0
83,17.3275735,17.937486845833334,53.0,67.0
84,17.844814500000002,18.00752989791667,65.0,63.0
85,17.844814500000002,18.00752989791667,65.0,101.0
86,17.844814500000002,18.090503975,60.0,66.0
87,18.103435,18.142228075000002,56.0,46.0
88,18.103435,18.144383245833335,65.0,66.0
89,18.103435,18.4202451125,67.0,85.0
90,18.103435,18.45580543125,53.0,85.0
91,18.3620555,18.54308985,60.0,75.0
92,18.3620555,18.575417412500002,68.0,78.0
93,18.3620555,18.575417412500002,68.0,88.0
94,18.620676,18.681020783333334,60.0,31.0
95,18.620676,18.891149939583332,72.0,85.0
96,18.620676,19.013994677083335,53.0,58.0
97,18.879296500000002,19.07002911875,60.0,80.0
98,18.879296500000002,19.099123925,67.0,85.0
99,17.3275735,19.13576182916667,41.0,66.0
100,18.879296500000002,19.17132214791667,77.0,95.0
101,19.137917,19.289856543750002,48.0,72.0
102,19.137917,19.334037545833333,68.0,69.0
103,19.137917,19.450416770833336,80.0,101.0
104,19.3965375,19.468735722916666,68.0,69.0
105,19.3965375,19.75321827291667,63.0,85.0
106,19.3965375,19.78770100625,58.0,88.0
107,19.3965375,19.804942372916667,39.0,78.0
108,19.655158,19.883606108333336,46.0,61.0
109,19.3965375,19.894381962500002,67.0,93.0
110,19.3965375,20.05278701875,79.0,106.0
111,19.9137785,20.079726654166667,58.0,54.0
112,19.9137785,20.14761453541667,65.0,63.0
113,19.9137785,20.255373077083334,51.0,55.0
114,20.172399000000002,20.530157358333334,67.0,88.0
115,20.172399000000002,20.538778041666667,58.0,66.0
116,20.177786927083336,20.68964,75.0,106.0
117,20.68964,20.85451056875,58.0,97.0
118,20.4310195,20.949338085416667,55.0,70.0
119,20.172399000000002,20.992441502083334,53.0,78.0
120,20.9482605,21.173475852083335,63.0,91.0
121,21.07757075,21.325415395833335,65.0,69.0
122,21.206881,21.382527422916667,67.0,67.0
123,21.465501500000002,21.86313051875,37.0,70.0
124,21.724122,21.952570108333333,44.0,73.0
125,21.465501500000002,21.952570108333333,56.0,97.0
126,21.9827425,22.37067325,49.0,75.0
127,21.465501500000002,22.39976805625,61.0,91.0
128,21.465501500000002,22.43209561875,65.0,93.0
129,21.336191250000002,22.487052475000002,68.0,72.0
130,22.499983500000003,22.873905639583334,53.0,91.0
131,22.241363,22.89545734791667,51.0,75.0
132,22.758604000000002,22.937483179166666,56.0,95.0
133,23.0172245,23.23381916875,61.0,97.0
134,23.275845,23.729508460416668,68.0,75.0
135,23.793086000000002,23.84157734375,56.0,47.0
136,23.793086000000002,23.95795656875,68.0,45.0
137,24.0517065,24.104508185416666,68.0,39.0
138,24.0517065,24.221964995833336,56.0,85.0
139,24.0517065,24.2521373875,65.0,88.0
140,23.5344655,24.28769770625,37.0,75.0
141,23.793086000000002,24.30062873125,49.0,76.0
142,24.310327,24.348042489583335,65.0,43.0
143,24.310327,24.48597342291667,68.0,82.0
144,24.5689475,24.94825756666667,58.0,91.0
145,24.5689475,25.036619570833334,67.0,103.0
146,25.086188500000002,25.185326358333334,58.0,54.0
147,25.086188500000002,25.1896367,70.0,78.0
148,24.827568,25.202567725,51.0,64.0
149,25.086188500000002,25.311403852083334,63.0,99.0
150,24.5689475,25.373903806250002,39.0,76.0
151,25.344809,25.450412370833334,67.0,82.0
152,25.344809,25.491360616666668,51.0,75.0
153,25.344809,25.605584670833334,65.0,85.0
154,25.6034295,26.012911958333333,60.0,85.0
155,25.6034295,26.03985159375,41.0,78.0
156,25.86205,26.091575693750002,48.0,66.0
157,25.6034295,26.173472185416667,68.0,66.0
158,26.120670500000003,26.281230727083333,60.0,76.0
159,25.6034295,26.36097204791667,63.0,75.0
160,26.120670500000003,26.417006489583333,65.0,99.0
161,26.120670500000003,26.468730589583334,53.0,69.0
162,26.379291000000002,26.662695964583335,67.0,80.0
163,26.379291000000002,26.69717869791667,60.0,72.0
164,26.6379115,26.798471727083335,68.0,85.0
165,26.6379115,27.157307670833333,56.0,69.0
166,26.379291000000002,27.160540427083333,55.0,59.0
167,26.896532,27.225195552083335,72.0,97.0
168,26.896532,27.238126577083335,60.0,97.0
169,27.1551525,27.41161782916667,77.0,99.0
170,27.1551525,27.452566075,65.0,93.0
171,27.28446275,27.473040197916667,67.0,70.0
172,27.413773000000003,27.647609035416668,80.0,97.0
173,27.413773000000003,27.718729672916666,68.0,70.0
174,27.672393500000002,28.074332860416668,39.0,72.0
175,27.931014,28.161617279166666,46.0,47.0
176,27.672393500000002,28.388987802083335,79.0,106.0
177,27.672393500000002,28.415927437500002,63.0,73.0
178,28.1896345,28.53015149166667,51.0,66.0
179,27.672393500000002,28.712263427083336,58.0,76.0
180,27.672393500000002,28.723039281250003,67.0,75.0
181,28.448255,28.971961512500002,75.0,106.0
182,28.836185750000002,29.00859941666667,58.0,76.0
183,28.706875500000002,29.14437517916667,55.0,72.0
184,28.965496,29.14437517916667,63.0,62.0
185,29.09480625,29.187478595833333,65.0,80.0
186,28.448255,29.216573402083334,53.0,54.0
187,29.2241165,29.449331852083336,67.0,88.0
188,29.35342675,29.57433176041667,68.0,69.0
189,29.482737,29.676702375,70.0,64.0
190,29.61204725,29.745667841666666,72.0,70.0
191,29.7413575,30.098038272916668,37.0,78.0
192,29.999978000000002,30.231658864583334,44.0,70.0
193,29.7413575,30.52045175625,73.0,48.0
194,30.2585985,30.59588273541667,49.0,59.0
195,30.7758395,31.15191681041667,53.0,73.0
196,30.517219,31.17131334791667,51.0,53.0
197,31.034460000000003,31.2348908875,56.0,85.0
198,31.293080500000002,31.504287241666667,61.0,80.0
199,31.551701,31.75320947291667,63.0,73.0
200,31.8103215,32.20687293333334,61.0,80.0
201,31.8103215,32.20902810416667,56.0,82.0
202,31.8103215,32.21980395833334,68.0,75.0
203,31.8103215,32.51937270416667,37.0,75.0
204,32.3275625,32.544157168750004,56.0,80.0
205,32.068942,32.55601060833334,49.0,66.0
206,32.586183,32.77476044791667,68.0,66.0
207,32.844803500000005,33.193941175,63.0,93.0
208,32.844803500000005,33.19717393125,58.0,88.0
209,32.844803500000005,33.2262687375,67.0,99.0
210,33.103424000000004,33.431009966666664,51.0,73.0
211,32.844803500000005,33.47734613958333,39.0,85.0
212,33.3620445,33.5883374375,65.0,78.0
213,33.620665,33.776914885416666,67.0,72.0
214,33.8792855,34.34156964375,41.0,62.0
215,34.137906,34.40622476875,48.0,53.0
216,34.3965265,34.74243141875,53.0,47.0
217,33.8792855,34.89975888958333,60.0,70.0
218,33.8792855,34.92993128125,68.0,78.0
219,34.655147,35.0883363375,55.0,59.0
220,34.9137675,35.127129412500004,56.0,73.0
221,35.172388,35.36419820416667,60.0,54.0
222,35.431008500000004,35.656223852083336,65.0,62.0
223,35.689629000000004,35.91915469375,68.0,66.0
224,35.9482495,36.3943698625,39.0,70.0
225,36.20687,36.4331629375,46.0,49.0
226,36.4654905,36.82432644375,51.0,48.0
227,35.9482495,37.01936940416667,63.0,61.0
228,35.9482495,37.13574862916667,67.0,67.0
229,35.9482495,37.21225719375,58.0,54.0
230,36.724111,37.43639496041667,53.0,43.0
231,36.9827315,37.43747254583334,55.0,73.0
232,37.4999725,37.99889454791667,63.0,60.0
233,38.017213500000004,38.37604944375,56.0,66.0
234,38.017213500000004,38.40514425,61.0,69.0
235,38.017213500000004,38.46656661875,65.0,66.0
236,38.5344545,38.6443682125,56.0,45.0
237,38.5344545,38.743506070833334,63.0,61.0
238,38.5344545,38.86850597916667,49.0,46.0
239,38.793075,38.981652447916666,56.0,66.0
240,38.793075,39.15945404166667,65.0,72.0
241,39.0516955,39.328634952083334,49.0,40.0
242,39.310316,39.50966930208333,58.0,61.0
243,39.310316,39.63466921041667,68.0,69.0
244,38.275834,39.864194904166666,44.0,47.0
245,38.017213500000004,39.910531077083334,37.0,63.0
246,39.5689365,39.920229345833334,49.0,44.0
247,39.827557,40.04953959583334,67.0,57.0
248,39.827557,40.14759986875,58.0,53.0
249,40.344798000000004,40.675616722916665,67.0,67.0
250,40.0861775,40.67669430833333,37.0,61.0
251,40.344798000000004,40.74673736041667,49.0,53.0
252,40.603418500000004,40.786608020833334,56.0,61.0
253,40.862039,40.97518546875,84.0,69.0
254,40.603418500000004,41.05708196041667,68.0,66.0
255,40.862039,41.05708196041667,68.0,66.0
256,40.99134925,41.15406464791667,85.0,70.0
257,41.1206595,41.384667927083335,63.0,66.0
258,41.1206595,41.3986765375,67.0,64.0
259,41.37928,41.59156432708333,65.0,62.0
260,40.862039,41.6443660125,75.0,58.0
261,41.37928,41.66484013541667,61.0,34.0
262,41.1206595,41.676693575,39.0,72.0
263,41.37928,41.71009872291667,46.0,47.0
264,41.6379005,41.74027111458334,63.0,55.0
265,41.1206595,41.77152109166667,84.0,61.0
266,41.6379005,41.87281412083333,51.0,53.0
267,41.6379005,41.992426102083336,67.0,64.0
268,41.896521,42.02259849375,68.0,69.0
269,42.1551415,42.554925689583335,41.0,73.0
270,42.413762,42.64544286458334,48.0,51.0
271,42.672382500000005,42.983804685416665,53.0,46.0
272,42.1551415,43.085097714583334,65.0,64.0
273,42.1551415,43.120658033333335,68.0,56.0
274,43.1896235,43.54630427291667,56.0,64.0
275,42.931003000000004,43.562468054166665,55.0,61.0
276,43.448244,43.64113178958333,60.0,61.0
277,43.7068645,43.945010877083334,65.0,54.0
278,43.965485,44.17130381458333,68.0,63.0
279,44.2241055,44.530139758333334,63.0,61.0
280,44.2241055,44.55492422291667,67.0,62.0
281,44.2241055,44.585096614583335,58.0,57.0
282,44.7413465,45.30600125833333,51.0,49.0
283,44.999967000000005,45.422380483333335,55.0,62.0
284,44.999967000000005,45.422380483333335,63.0,76.0
285,45.517208000000004,45.82647501458334,58.0,73.0
286,44.2241055,45.863112918750005,39.0,58.0
287,44.482726,45.8857422125,46.0,56.0
288,45.7758285,45.886819797916665,51.0,59.0
289,46.2930695,46.798457060416666,61.0,66.0
290,46.2930695,46.83401737916667,56.0,67.0
291,46.2930695,46.8555690875,53.0,60.0
292,47.068931,47.168068858333335,61.0,35.0
293,46.8103105,47.34910320833333,49.0,53.0
294,47.068931,47.49349965416667,53.0,50.0
295,47.45686175,47.648671954166666,49.0,40.0
296,47.586172000000005,47.82970630416667,61.0,67.0
297,47.586172000000005,47.89112867291667,56.0,72.0
298,47.586172000000005,47.893283843750005,53.0,67.0
299,46.2930695,47.913757966666665,37.0,70.0
300,46.55169,47.96871482291667,44.0,53.0
301,47.844792500000004,47.979490677083334,49.0,61.0
302,48.103413,48.245654275,61.0,45.0
303,48.3620335,48.45793860208334,51.0,47.0
304,48.3620335,48.61095573125,56.0,73.0
305,48.3620335,48.67022292916667,60.0,72.0
306,48.8792745,49.22517941875,56.0,67.0
307,49.137895,49.2607397375,75.0,70.0
308,49.26720525,49.46440338125,77.0,54.0
309,49.137895,49.47733440625,63.0,70.0
310,49.137895,49.47841199166667,58.0,63.0
311,49.3965155,49.67776529375,56.0,57.0
312,49.655136,49.770437639583335,58.0,50.0
313,49.3965155,49.865265156250004,72.0,69.0
314,48.620654,49.98379955208333,51.0,61.0
315,49.913756500000005,50.03121331041667,56.0,61.0
316,49.655136,50.03121331041667,60.0,72.0
317,48.3620335,50.03444606666667,44.0,73.0
318,50.172377000000004,50.28660105416667,63.0,48.0
319,49.913756500000005,50.48164401458334,68.0,61.0
320,50.430997500000004,50.5861698,56.0,58.0
321,50.430997500000004,50.89112647291667,70.0,62.0
322,50.430997500000004,50.927764377083335,65.0,58.0
323,50.430997500000004,50.966557452083336,61.0,63.0
324,51.206859,51.52797945416667,60.0,63.0
325,51.4654795,51.65728970416667,61.0,70.0
326,50.9482385,51.89974642291667,58.0,55.0
327,50.689618,51.95254810833333,53.0,52.0
328,50.430997500000004,52.049530795833334,46.0,64.0
329,51.7241,52.05707389375,65.0,76.0
330,51.9827205,52.2478065125,67.0,52.0
331,52.241341000000006,52.52043562291667,70.0,56.0
332,52.499961500000005,52.90513361666667,39.0,69.0
333,52.758582000000004,52.987030108333336,46.0,57.0
334,53.0172025,53.36849534583334,51.0,47.0
335,52.499961500000005,53.42345220208333,68.0,69.0
336,53.5344435,53.94608112916667,55.0,62.0
337,53.275823,53.96008973958334,53.0,66.0
338,53.793064,54.08832240416667,58.0,54.0
339,54.0516845,54.3038394875,63.0,55.0
340,54.310305,54.6012530625,70.0,66.0
341,54.5689255,55.2348732875,44.0,67.0
342,55.086166500000004,55.2865973875,56.0,59.0
343,54.5689255,55.31892495,68.0,88.0
344,54.827546000000005,55.540907545833335,51.0,53.0
345,55.344787000000004,55.66590745416667,72.0,69.0
346,55.6034075,56.02258822708333,70.0,66.0
347,56.1206485,56.30383802083333,55.0,61.0
348,55.862028,56.3081483625,51.0,51.0
349,55.6034075,56.31676904583333,43.0,56.0
350,56.379269,56.77474284791667,75.0,56.0
351,56.6378895,57.03659610416667,41.0,67.0
352,56.89651,57.145432231250005,48.0,53.0
353,56.6378895,57.45577683125,68.0,70.0
354,57.155130500000006,57.50211300416667,53.0,56.0
355,57.672371500000004,58.07538844583333,56.0,67.0
356,57.413751000000005,58.08400912916667,55.0,56.0
357,57.930992,58.23379350208334,65.0,53.0
358,58.1896125,58.460086439583336,67.0,57.0
359,58.448233,59.016120514583335,68.0,59.0
360,58.7068535,59.35771509166667,61.0,70.0
361,59.482715,59.80491303958333,60.0,61.0
362,59.741335500000005,60.05060251458334,61.0,60.0
363,59.2240945,60.0969386875,58.0,59.0
364,59.999956000000005,60.20792998541667,63.0,54.0
365,58.965474,60.27366269583334,53.0,52.0
366,58.7068535,60.31568852708334,46.0,67.0
367,60.258576500000004,60.48917977916667,65.0,58.0
368,60.517197,60.876032943750005,68.0,48.0
369,60.7758175,61.147584468750004,56.0,70.0
370,60.7758175,61.183144787500005,61.0,72.0
371,60.7758175,61.454696312500005,65.0,67.0
372,61.034438,62.14435097916667,53.0,57.0
373,61.2930585,62.31891981666667,56.0,61.0
374,61.551679,62.32969567083334,61.0,62.0
375,62.068920000000006,62.37172150208334,65.0,88.0
376,60.7758175,62.39111803958333,49.0,63.0
377,62.327540500000005,62.42129043125,53.0,55.0
378,62.586161000000004,62.97301416458333,60.0,54.0
379,62.8447815,63.05491065625,36.0,72.0
380,63.103402,63.40512591666667,48.0,60.0
381,62.8447815,63.651892977083335,67.0,69.0
382,63.8792635,64.07861680208333,60.0,60.0
383,63.620643,64.25965115208334,55.0,64.0
384,63.3620225,64.26180632291667,53.0,76.0
385,64.137884,64.42236655,65.0,57.0
386,64.3965045,64.48055616250001,67.0,64.0
387,64.9137455,65.52042608958334,36.0,63.0
388,64.9137455,65.63141738750001,84.0,56.0
389,64.655125,65.75102936875,72.0,61.0
390,65.9482275,66.12387392291667,79.0,70.0
391,66.20684800000001,66.4590029875,79.0,45.0
392,66.4654685,66.55706326041667,75.0,72.0
393,66.9827095,67.22732138958334,72.0,63.0
394,67.24133,67.49132981666666,67.0,47.0
395,67.4999505,67.81460544166667,68.0,63.0
396,67.758571,68.06568284375,70.0,70.0
397,68.0171915,68.31137231875,72.0,73.0
398,67.24133,68.33831195416667,60.0,54.0
399,68.0171915,68.52150147500001,65.0,60.0
400,68.275812,68.60663072291666,67.0,57.0
401,66.9827095,68.66158757916666,53.0,63.0
402,68.53443250000001,69.00102698541667,68.0,69.0
403,68.53443250000001,69.10986311250001,60.0,62.0
404,68.793053,69.11417345416668,72.0,60.0
405,69.0516735,69.56352657291667,70.0,69.0
406,69.310294,70.12925891666667,60.0,57.0
407,69.827535,70.17128474791667,67.0,62.0
408,69.5689145,70.20792265208334,63.0,61.0
409,70.0861555,70.42990524791666,68.0,66.0
410,70.344776,70.6551206,60.0,72.0
411,69.0516735,70.71115504166667,51.0,59.0
412,70.6033965,70.80921531458334,67.0,80.0
413,70.86201700000001,71.04089617916667,68.0,54.0
414,70.99132725,71.1917581375,67.0,57.0
415,71.1206375,71.71115430833333,65.0,69.0
416,71.37925800000001,71.95684378333334,56.0,57.0
417,71.6378785,72.43852446458334,61.0,59.0
418,71.896499,72.46654168541667,63.0,82.0
419,72.41374,72.63680018125001,65.0,67.0
420,71.1206375,72.74779147916666,49.0,69.0
421,72.6723605,72.77365352916667,56.0,63.0
422,72.930981,73.21438596458334,56.0,64.0
423,73.965463,74.07968705416667,72.0,58.0
424,73.965463,74.08723015208334,80.0,63.0
425,73.70684250000001,74.19283352291667,49.0,49.0
426,74.2240835,74.34800582291668,80.0,61.0
427,74.2240835,74.35016099375001,72.0,60.0
428,74.482704,74.6443418125,49.0,59.0
429,74.61201425,74.72516071875,79.0,70.0
430,74.61201425,74.72623830416667,70.0,67.0
431,73.18960150000001,74.83722960208334,37.0,38.0
432,73.448222,74.91158299583334,44.0,61.0
433,74.7413245,74.97947087708333,49.0,62.0
434,74.999945,75.14326386041667,67.0,61.0
435,74.999945,75.15188454375,75.0,64.0
436,75.2585655,75.7305479125,41.0,70.0
437,75.51718600000001,75.75964271875,48.0,56.0
438,75.2585655,75.85123747916667,77.0,66.0
439,75.2585655,75.866323675,68.0,61.0
440,75.7758065,76.08184075833334,53.0,51.0
441,76.03442700000001,76.46546116666667,55.0,64.0
442,76.2930475,76.47300426458334,56.0,64.0
443,76.551668,76.79304713333333,60.0,64.0
444,76.8102885,77.0624434875,65.0,67.0
445,77.068909,77.28550366875,68.0,60.0
446,77.3275295,77.77364986250001,39.0,69.0
447,77.58615,77.81890845000001,46.0,55.0
448,77.84477050000001,78.18420990625,51.0,47.0
449,77.3275295,78.23808917708334,63.0,66.0
450,77.3275295,78.34369254791667,67.0,75.0
451,77.3275295,78.42774421041668,58.0,59.0
452,78.103391,78.78765773958334,53.0,53.0
453,78.36201150000001,78.80489910625,55.0,61.0
454,78.620632,78.96976967500001,58.0,59.0
455,78.8792525,79.15188161041667,63.0,67.0
456,79.3964935,79.80813112916667,37.0,63.0
457,79.655114,79.88895003541667,44.0,54.0
458,79.9137345,80.24563080833333,49.0,47.0
459,79.3964935,80.47731167291667,61.0,64.0
460,79.3964935,80.50101855208334,56.0,64.0
461,79.3964935,80.50640647916667,65.0,62.0
462,79.137873,80.55166506666667,68.0,66.0
463,80.68959600000001,80.86955276458333,56.0,56.0
464,80.4309755,80.96222511041667,53.0,59.0
465,80.172355,80.96976820833333,51.0,57.0
466,80.9482165,81.36524205625,61.0,59.0
467,81.4654575,81.92774164375,63.0,73.0
468,81.4654575,81.94606059583333,60.0,67.0
469,81.20683700000001,81.99239676875,68.0,62.0
470,81.4654575,82.28981034375,44.0,73.0
471,81.9826985,82.29843102708334,56.0,55.0
472,81.724078,82.32213790625,51.0,47.0
473,82.241319,82.39433612916667,63.0,70.0
474,82.241319,82.40080164166667,58.0,70.0
475,82.75856,83.07321494166666,45.0,58.0
476,82.75856,83.1012321625,57.0,73.0
477,82.75856,83.18097348333333,63.0,76.0
478,82.75856,83.20252519166667,60.0,75.0
479,83.275801,83.49778359583334,68.0,56.0
480,83.53442150000001,83.80274026875,58.0,56.0
481,83.53442150000001,84.01394701041667,61.0,72.0
482,83.53442150000001,84.02795562083334,65.0,75.0
483,84.18097275000001,84.39002432083333,60.0,49.0
484,84.18097275000001,84.400800175,63.0,64.0
485,83.92235225,84.4719208125,58.0,32.0
486,84.43959325,84.51286905833334,60.0,44.0
487,84.43959325,84.91696358958333,61.0,70.0
488,84.43959325,84.93528254166667,65.0,75.0
489,84.827524,85.0279548875,58.0,58.0
490,83.53442150000001,85.05273935208334,53.0,64.0
491,83.53442150000001,85.10877379375,46.0,62.0
492,85.0861445,85.27256677708334,65.0,53.0
493,85.0861445,85.30489433958334,60.0,67.0
494,85.34476500000001,85.56567001041667,68.0,61.0
495,85.6033855,86.04735069166667,39.0,69.0
496,85.86200600000001,86.09799720625,46.0,48.0
497,85.6033855,86.3275229,63.0,64.0
498,85.6033855,86.42666075833334,67.0,73.0
499,86.1206265,86.44390212500001,51.0,40.0
500,85.6033855,86.71653123541667,58.0,63.0
501,86.6378675,86.98053966250001,55.0,61.0
502,86.379247,86.99131551666667,53.0,62.0
503,86.896488,87.24993601666667,58.0,66.0
504,87.1551085,87.45144448958334,60.0,59.0
505,87.413729,87.63032366875001,61.0,62.0
506,87.67234950000001,88.21221979375001,63.0,72.0
507,87.93097,88.35553865416666,51.0,55.0
508,87.67234950000001,88.41480585208333,60.0,69.0
509,88.18959050000001,88.43743514583333,56.0,55.0
510,87.67234950000001,88.512866125,44.0,72.0
511,88.448211,88.6745039375,63.0,58.0
512,88.448211,88.70790908541667,51.0,49.0
513,88.7068315,89.33614138333334,58.0,57.0
514,88.7068315,89.41803787500001,43.0,69.0
515,89.2240725,89.43420165625,55.0,61.0
516,88.965452,89.45683095,51.0,52.0
517,89.482693,89.78549450208334,63.0,66.0
518,89.7413135,90.25316657291667,60.0,69.0
519,89.7413135,90.3102786,56.0,62.0
520,90.51717500000001,90.87708852916667,55.0,58.0
521,89.7413135,91.32967440416667,41.0,70.0
522,89.99993400000001,91.33290716041667,48.0,52.0
523,90.7757955,91.34045025833333,56.0,49.0
524,90.2585545,91.34152784375,53.0,56.0
525,91.2930365,91.74993271666666,60.0,54.0
526,91.8102775,92.10445831875,46.0,39.0
527,91.8102775,92.392173625,53.0,72.0
528,91.8102775,92.586139,61.0,66.0
529,92.586139,93.2908798625,53.0,73.0
530,93.10338,93.3038108875,56.0,78.0
531,92.32751850000001,93.30919881458334,49.0,55.0
532,92.068898,93.32751776666667,48.0,64.0
533,93.36200050000001,93.56674172916667,63.0,58.0
534,93.620621,94.03333621458334,68.0,58.0
535,93.8792415,94.32643944791667,37.0,72.0
536,94.137862,94.37385320625,44.0,55.0
537,94.3964825,94.73161156458333,49.0,47.0
538,93.8792415,94.8619994,61.0,72.0
539,93.8792415,94.89971488958334,65.0,63.0
540,93.8792415,94.91049074375,56.0,61.0
541,94.655103,94.92449935416667,68.0,1.0
542,94.9137235,95.29949907916667,53.0,62.0
543,94.655103,95.31027493333333,51.0,56.0
544,95.17234400000001,95.40941279166667,56.0,75.0
545,95.4309645,95.5279471875,65.0,60.0
546,95.9482055,96.17342085208334,36.0,66.0
547,95.9482055,96.37708449583334,55.0,54.0
548,95.9482055,96.38786035,53.0,66.0
549,95.9482055,96.41911032708333,60.0,67.0
550,96.206826,96.54411023541667,48.0,54.0
551,96.4654465,97.357687225,53.0,72.0
552,96.9826875,97.39324754375001,60.0,85.0
553,96.724067,97.41803200833334,55.0,75.0
554,97.241308,97.44604922916668,65.0,70.0
555,97.49992850000001,97.745617975,67.0,73.0
556,97.758549,97.93958335,72.0,45.0
557,97.758549,98.05811774583334,70.0,44.0
558,98.01716950000001,98.3857037125,60.0,67.0
559,98.01716950000001,98.4503588375,48.0,69.0
560,98.01716950000001,98.4503588375,64.0,75.0
561,98.27579,98.45359159375,55.0,61.0
562,98.5344105,98.69820348333333,60.0,66.0
563,98.793031,99.17557382291668,60.0,67.0
564,98.793031,99.17988416458334,70.0,76.0
565,98.793031,99.19173760416668,64.0,91.0
566,99.310272,99.4137202,60.0,70.0
567,99.310272,99.43527190833333,68.0,82.0
568,100.0861335,100.4546677125,56.0,73.0
569,100.0861335,100.48160734791666,61.0,76.0
570,100.0861335,100.48807286041666,65.0,75.0
571,100.34475400000001,101.13031376875,53.0,59.0
572,100.86199500000001,101.42664975833334,61.0,76.0
573,100.6033745,101.43096010000001,56.0,62.0
574,101.379236,101.64863235416666,53.0,69.0
575,100.0861335,101.70574438125,49.0,72.0
576,101.6378565,101.84798565625,56.0,75.0
577,101.6378565,101.86630460833334,65.0,80.0
578,101.896477,102.21113194166666,68.0,75.0
579,102.15509750000001,102.61738164375001,39.0,72.0
580,102.413718,102.67233850000001,46.0,64.0
581,102.67233850000001,103.04302788333334,51.0,55.0
582,102.15509750000001,103.10768300833334,58.0,75.0
583,102.15509750000001,103.21975189166668,63.0,72.0
584,102.15509750000001,103.27039840625001,67.0,73.0
585,103.4482,103.62707917916667,58.0,60.0
586,103.18957950000001,103.74884633125001,55.0,70.0
587,102.930959,103.76716528333334,53.0,58.0
588,103.7068205,103.90617380208333,63.0,75.0
589,103.965441,104.12815639791667,68.0,73.0
590,104.2240615,104.52255266041666,58.0,72.0
591,104.2240615,104.77578523333334,67.0,56.0
592,104.2240615,104.80272486875,63.0,70.0
593,104.48268200000001,105.46867265625,55.0,52.0
594,105.2585435,105.60337083333334,63.0,78.0
595,104.99992300000001,105.62923288333334,60.0,73.0
596,105.51716400000001,105.711129375,65.0,67.0
597,104.2240615,105.79302586666667,48.0,69.0
598,105.7757845,106.06457739166667,67.0,75.0
599,106.034405,106.17125834791668,70.0,70.0
600,106.2930255,106.61306836875,60.0,69.0
601,106.2930255,106.74130103333334,41.0,69.0
602,106.551646,106.76069757083334,48.0,51.0
603,106.2930255,106.80595615833333,68.0,82.0
604,106.8102665,106.94496467708333,58.0,52.0
605,106.8102665,107.04518012083334,67.0,59.0
606,106.8102665,107.15186107708334,53.0,54.0
607,107.068887,107.42125743125,60.0,66.0
608,107.068887,107.47513670208333,68.0,69.0
609,107.32750750000001,107.65832622291667,56.0,75.0
610,107.068887,107.68742102916667,55.0,70.0
611,107.586128,107.78763647291667,60.0,72.0
612,107.84474850000001,108.09367073125,63.0,80.0
613,108.103369,108.27686025208334,68.0,69.0
614,108.3619895,108.69927373541667,58.0,64.0
615,108.3619895,108.92664425833334,65.0,67.0
616,108.3619895,108.93418735625,61.0,67.0
617,108.3619895,108.93957528333334,68.0,56.0
618,109.137851,109.30487673958334,63.0,75.0
619,109.137851,109.30703191041667,60.0,70.0
620,109.3964715,109.4934541875,61.0,63.0
621,108.62061,109.51069555416667,53.0,59.0
622,109.3964715,109.53548001875001,65.0,67.0
623,108.8792305,109.7391436625,58.0,62.0
624,109.65509200000001,109.90401423125,53.0,55.0
625,108.3619895,109.92556593958334,46.0,72.0
626,109.9137125,110.01931587083334,61.0,88.0
627,109.9137125,110.03224689583334,68.0,76.0
628,110.17233300000001,110.30272083541666,67.0,80.0
629,110.4309535,110.58828097083334,58.0,67.0
630,110.4309535,110.59797923958334,63.0,69.0
631,110.4309535,110.69711709791667,67.0,70.0
632,110.4309535,110.86845317916666,39.0,69.0
633,110.68957400000001,110.92448762083333,46.0,60.0
634,110.9481945,111.27254771041667,51.0,55.0
635,111.206815,111.32858215208334,72.0,67.0
636,111.206815,111.37491832500001,80.0,75.0
637,111.4654355,111.64862502083334,70.0,70.0
638,111.206815,111.65509053333334,53.0,60.0
639,111.4654355,111.724056,55.0,53.0
640,111.4654355,111.79302146666667,79.0,59.0
641,111.85336625000001,111.98159891458334,77.0,80.0
642,111.724056,112.05595230833333,56.0,66.0
643,111.85336625000001,112.10336606666667,70.0,61.0
644,112.11198675,112.20142633958334,60.0,78.0
645,111.98267650000001,112.25207285416667,58.0,61.0
646,112.241297,112.44927098541667,73.0,75.0
647,112.49991750000001,112.64970187291667,72.0,82.0
648,113.275779,113.46543403333334,58.0,82.0
649,113.01715850000001,113.51823571875,56.0,85.0
650,113.5343995,113.87168373541667,60.0,80.0
651,113.79302,114.02685603541667,56.0,72.0
652,112.758538,114.15939904166667,51.0,48.0
653,112.49991750000001,114.16370938333334,44.0,78.0
654,114.0516405,114.27793343750001,58.0,85.0
655,114.31026100000001,114.51607981458334,60.0,78.0
656,114.5688815,114.94711398125,58.0,78.0
657,114.5688815,114.96651051875,61.0,93.0
658,114.82750200000001,115.20034655416667,51.0,60.0
659,115.0861225,115.31133785208334,60.0,80.0
660,115.0861225,115.35013092708334,56.0,62.0
661,114.5688815,115.36198436666668,44.0,70.0
662,115.34474300000001,115.40939812500001,60.0,49.0
663,115.34474300000001,115.48159634791668,51.0,41.0
664,115.34474300000001,115.54840664375,61.0,85.0
665,115.6033635,115.88676846458334,63.0,93.0
666,115.6033635,115.93957015000001,46.0,78.0
667,115.6033635,115.97836322500001,58.0,91.0
668,115.861984,116.20250099166667,48.0,57.0
669,116.1206045,116.33612158333334,63.0,95.0
670,116.63784550000001,117.08935378958334,37.0,73.0
671,116.896466,117.16370718333334,44.0,69.0
672,116.63784550000001,117.4848276375,56.0,78.0
673,117.15508650000001,117.48806039375,49.0,56.0
674,116.63784550000001,117.63245683958334,65.0,76.0
675,116.379225,117.71327574583334,68.0,88.0
676,116.63784550000001,117.71650850208334,61.0,73.0
677,117.413707,118.0796547875,51.0,73.0
678,117.67232750000001,118.08504271458334,53.0,67.0
679,117.930948,118.11737027708334,56.0,75.0
680,118.18956850000001,118.46327519583333,61.0,91.0
681,118.448189,118.51392171041667,67.0,41.0
682,118.31887875000001,118.5322406625,63.0,62.0
683,118.448189,118.53762858958333,65.0,39.0
684,118.57749925,118.82103355416668,68.0,67.0
685,118.7068095,119.14323159375,37.0,72.0
686,118.96543,119.20680913333334,44.0,64.0
687,118.7068095,119.34366248125,63.0,82.0
688,118.7068095,119.36305901875001,67.0,93.0
689,119.2240505,119.54624853958333,49.0,50.0
690,119.48267100000001,119.81348972291667,58.0,80.0
691,119.48267100000001,119.88892070208334,65.0,75.0
692,119.7412915,120.05810161250001,53.0,54.0
693,119.48267100000001,120.21650666875,51.0,64.0
694,119.99991200000001,120.35982552916667,58.0,80.0
695,120.2585325,120.37706689583334,53.0,58.0
696,119.99991200000001,120.40508411666667,63.0,93.0
697,120.51715300000001,120.68094598333334,70.0,73.0
698,120.7757735,121.27146279166666,63.0,76.0
699,120.7757735,121.30702311041667,67.0,82.0
700,121.034394,121.85659167291666,55.0,49.0
701,121.551635,121.89322957708333,63.0,93.0
702,121.81025550000001,122.03978119375,65.0,73.0
703,121.2930145,122.11521217291667,60.0,75.0
704,120.7757735,122.21003968958334,48.0,76.0
705,122.068876,122.24560000833334,55.0,73.0
706,122.068876,122.29732410833334,67.0,80.0
707,122.32749650000001,122.5796514875,68.0,63.0
708,122.586117,122.90077194166668,72.0,73.0
709,122.84473750000001,123.27038373958334,41.0,73.0
710,123.103358,123.32103025416667,48.0,67.0
711,122.84473750000001,123.65508173333333,70.0,76.0
712,123.3619785,123.69926273541667,53.0,62.0
713,123.620599,124.02038318958334,68.0,91.0
714,123.8792195,124.33503813125,56.0,73.0
715,123.620599,124.34904674166667,55.0,73.0
716,124.13784000000001,124.48158974791667,60.0,80.0
717,124.3964605,124.63460687708334,65.0,66.0
718,124.65508100000001,125.06025311666667,68.0,73.0
719,124.9137015,125.5020631375,65.0,69.0
720,124.9137015,125.57749411666667,61.0,72.0
721,125.689563,126.06240755416667,60.0,85.0
722,125.9481835,126.26930395416667,61.0,85.0
723,126.206804,126.42555383958334,65.0,52.0
724,125.4309425,126.46434691458334,58.0,80.0
725,125.17232200000001,126.56563994375,53.0,48.0
726,124.9137015,126.59150199375,46.0,78.0
727,126.46542450000001,126.70033812083334,68.0,69.0
728,126.724045,126.99559652500001,70.0,56.0
729,126.98266550000001,127.35551005416667,67.0,75.0
730,127.49990650000001,128.35012139375002,51.0,75.0
731,127.758527,128.37382827291668,55.0,80.0
732,126.98266550000001,128.60443155208333,39.0,70.0
733,127.241286,128.6443022125,46.0,63.0
734,128.275768,128.70356941041666,58.0,85.0
735,128.5343885,128.98481920416668,51.0,51.0
736,128.793009,129.1098191125,63.0,73.0
737,129.05162950000002,129.82641341458333,61.0,82.0
738,129.31025,130.02899947291667,51.0,50.0
739,129.827491,130.36089578125,60.0,70.0
740,131.1205935,131.96326529583334,75.0,73.0
741,130.6033525,132.30593745833335,63.0,82.0
742,130.861973,132.31563572708333,68.0,64.0
743,130.344732,132.64537686458334,51.0,56.0
744,129.5688705,132.64645445,56.0,72.0
745,132.41369600000002,132.67016132916666,72.0,64.0
746,132.1550755,132.7240406,73.0,76.0
747,129.05162950000002,132.78330779791668,44.0,73.0
748,132.6723165,132.93416975625001,68.0,61.0
749,132.930937,133.11628169166667,63.0,47.0
750,133.1895575,133.67016059583335,60.0,53.0
751,133.1895575,133.75528984375,68.0,61.0
752,133.965419,134.29839289375,60.0,57.0
753,134.2240395,134.47296173125,67.0,61.0
754,133.70679850000002,134.59796163958333,53.0,44.0
755,134.48266,134.67985813125,68.0,57.0
756,134.74128050000002,134.935245875,67.0,58.0
757,134.999901,135.3684352125,60.0,38.0
758,135.2585215,135.46110755833334,53.0,42.0
759,135.2585215,135.47080582708332,67.0,50.0
760,133.1895575,135.57425402708333,41.0,63.0
761,133.448178,135.60011607708333,48.0,34.0
762,135.517142,135.79300386666668,68.0,47.0
763,135.7757625,135.94494341041667,67.0,44.0
764,136.034383,136.45356372708335,60.0,44.0
765,136.2930035,136.55054641458335,67.0,53.0
766,135.7757625,136.91477028541667,39.0,59.0
767,136.2930035,136.94278750625,48.0,54.0
768,136.8102445,136.9460202625,51.0,54.0
769,136.8102445,136.98481333750001,67.0,58.0
770,136.551624,137.1830890541667,68.0,57.0
771,137.06886500000002,137.42015784583333,60.0,46.0
772,137.3274855,137.63675251458335,67.0,60.0
773,137.3274855,137.78114896041666,37.0,47.0
774,137.586106,137.86843337916667,44.0,48.0
775,137.586106,137.88244198958333,68.0,44.0
776,137.8447265,138.0710194375,67.0,58.0
777,137.8447265,138.18201073541667,49.0,50.0
778,138.103347,138.38459679375,60.0,44.0
779,138.3619675,138.72834654166667,65.0,59.0
780,138.620588,138.81563096041668,53.0,47.0
781,138.103347,138.82209647291668,51.0,48.0
782,138.8792085,139.1442945125,60.0,47.0
783,139.137829,139.36627710833335,67.0,47.0
784,139.39644950000002,139.66692343958334,68.0,44.0
785,139.39644950000002,139.82425091041668,37.0,48.0
786,139.65507,139.874897425,67.0,49.0
787,139.65507,139.94494047708335,44.0,48.0
788,139.9136905,140.11196621666667,65.0,49.0
789,139.9136905,140.35765569166668,49.0,43.0
790,140.172311,140.49235386875,58.0,58.0
791,140.4309315,140.69170717083333,63.0,58.0
792,140.689552,141.01175003958335,58.0,44.0
793,140.4309315,141.03653450416667,39.0,49.0
794,140.689552,141.11843099583334,46.0,44.0
795,140.9481725,141.22511195208335,63.0,59.0
796,140.9481725,141.33394807916667,51.0,56.0
797,141.206793,141.44170662083334,65.0,60.0
798,141.4654135,141.8339477125,41.0,53.0
799,141.4654135,141.84472356666666,68.0,59.0
800,141.72403400000002,141.97942174375,48.0,47.0
801,141.72403400000002,142.02252516041668,60.0,44.0
802,141.9826545,142.1960164125,67.0,55.0
803,141.9826545,142.34041285833334,53.0,48.0
804,142.241275,142.461102425,68.0,53.0
805,142.241275,142.58610233333334,55.0,49.0
806,142.4998955,142.59903335833334,56.0,57.0
807,142.4998955,142.70140397291667,67.0,61.0
808,142.75851600000001,143.10549850416666,60.0,51.0
809,143.0171365,143.2175673875,67.0,61.0
810,143.275757,143.61411882083334,68.0,51.0
811,143.5343775,143.73804114375,67.0,51.0
812,143.5343775,143.90829963958333,39.0,46.0
813,143.792998,143.99127371666668,68.0,53.0
814,143.792998,144.02360127916668,46.0,50.0
815,144.05161850000002,144.12273913750002,68.0,36.0
816,144.05161850000002,144.2391183625,67.0,55.0
817,144.05161850000002,144.400756175,51.0,47.0
818,144.310239,144.63459221041668,60.0,59.0
819,144.5688595,144.85872997708333,67.0,57.0
820,144.5688595,144.90614373541666,55.0,46.0
821,144.310239,144.92230751666668,53.0,62.0
822,145.08610050000001,145.23696245833335,67.0,48.0
823,144.82748,145.33933307291667,68.0,66.0
824,145.344721,145.61303976875,63.0,47.0
825,145.6033415,145.8296344375,65.0,60.0
826,145.6033415,145.95786710208333,37.0,48.0
827,145.861962,146.00743603125,67.0,60.0
828,145.861962,146.06778081458333,44.0,47.0
829,146.1205825,146.45247880833332,49.0,37.0
830,146.1205825,146.47726327291667,68.0,64.0
831,146.37920300000002,146.71217689375,60.0,49.0
832,146.6378235,146.88782331666667,67.0,44.0
833,146.896444,147.04730595833334,68.0,63.0
834,147.41368500000002,147.68954686666666,60.0,55.0
835,147.930926,148.41691702291666,60.0,40.0
836,147.6723055,148.4934255875,72.0,64.0
837,146.896444,149.28976121041669,53.0,50.0
838,146.37920300000002,149.30053706458335,51.0,54.0
839,149.2240285,149.30053706458335,51.0,45.0
840,149.2240285,149.39967492291666,39.0,47.0
841,149.2240285,149.43954558333334,58.0,57.0
842,149.2240285,149.46864038958333,63.0,61.0
843,149.2240285,149.65398508125,67.0,62.0
844,149.74126950000002,150.0192865375,65.0,66.0
845,149.74126950000002,150.0192865375,65.0,85.0
846,149.74126950000002,150.05376927083333,77.0,75.0
847,149.74126950000002,150.21648466875,41.0,64.0
848,149.99989,150.24234671875,48.0,54.0
849,150.2585105,150.54622580625,72.0,67.0
850,150.2585105,150.55161373333334,84.0,66.0
851,150.2585105,150.57101027083334,53.0,51.0
852,149.74126950000002,150.61519127291666,60.0,57.0
853,149.74126950000002,150.78113942708333,68.0,58.0
854,150.7757515,150.98157031458334,70.0,70.0
855,150.7757515,151.02036338958334,56.0,75.0
856,150.7757515,151.03868234166669,82.0,72.0
857,150.517131,151.06777714791667,55.0,56.0
858,151.03437200000002,151.22402703333333,60.0,55.0
859,151.2929925,151.37596657708335,72.0,72.0
860,151.2929925,151.38027691875,84.0,72.0
861,151.2929925,151.55269058541668,65.0,66.0
862,151.8102335,151.96756097083335,67.0,44.0
863,151.8102335,151.96756097083335,67.0,70.0
864,151.8102335,152.10764707500002,65.0,39.0
865,151.8102335,152.18307805416669,58.0,29.0
866,151.551613,152.24557800833333,68.0,69.0
867,151.8102335,152.84040515833334,79.0,76.0
868,152.3274745,152.94277577291666,51.0,48.0
869,152.586095,152.94277577291666,55.0,32.0
870,152.97402575,153.31454274166668,51.0,41.0
871,152.8447155,153.35872374375,58.0,63.0
872,152.06885400000002,153.41044784375,46.0,58.0
873,151.8102335,153.43092196666666,39.0,61.0
874,153.36195650000002,153.45462884583333,80.0,67.0
875,153.36195650000002,153.46324952916666,68.0,73.0
876,153.36195650000002,153.49557709166666,55.0,58.0
877,153.36195650000002,153.53437016666666,63.0,75.0
878,153.620577,153.72187002916667,79.0,67.0
879,153.620577,153.72725795625,67.0,66.0
880,153.8791975,154.1895421,65.0,66.0
881,153.8791975,154.23372310208333,77.0,69.0
882,153.8791975,154.32424027708333,61.0,67.0
883,153.8791975,154.37811954791667,53.0,60.0
884,153.8791975,154.38674023125,56.0,69.0
885,154.39643850000002,154.96324842916667,49.0,49.0
886,154.9136795,155.03113631041668,72.0,61.0
887,154.9136795,155.05268801875002,84.0,67.0
888,154.9136795,155.22186892916667,61.0,52.0
889,154.655059,155.2304896125,53.0,48.0
890,154.9136795,155.23587753958333,56.0,67.0
891,155.4309205,155.64751516875,53.0,40.0
892,155.1723,155.78113576041667,49.0,41.0
893,155.68954100000002,155.78329093125,53.0,42.0
894,155.9481615,156.02359247916667,89.0,59.0
895,155.9481615,156.04083384583333,77.0,70.0
896,155.68954100000002,156.08285967708335,56.0,78.0
897,153.8791975,156.30160951666667,37.0,66.0
898,156.07747175,156.3102302,49.0,37.0
899,154.137818,156.31561812708333,44.0,52.0
900,156.206782,156.31777329791666,56.0,76.0
901,156.206782,156.31885088333334,53.0,66.0
902,156.206782,156.33285949375,61.0,75.0
903,156.72402300000002,156.84147981041667,56.0,51.0
904,156.9826435,157.04837621041668,79.0,57.0
905,156.9826435,157.0860917,91.0,80.0
906,156.9826435,157.2735915625,63.0,57.0
907,156.9826435,157.28221224583334,55.0,70.0
908,156.9826435,157.32639324791668,58.0,59.0
909,157.4998845,157.56777238125,92.0,67.0
910,157.4998845,157.57208272291666,80.0,76.0
911,156.9826435,157.58070340625,39.0,69.0
912,157.241264,157.69492746041666,51.0,56.0
913,157.4998845,157.86626354166668,55.0,75.0
914,157.758505,157.92014281250002,63.0,62.0
915,158.01712550000002,158.10979784583333,65.0,72.0
916,158.01712550000002,158.14212540833333,77.0,82.0
917,158.275746,158.49772859583334,48.0,43.0
918,158.01712550000002,158.51928030416667,41.0,70.0
919,158.01712550000002,158.52897857291669,56.0,69.0
920,158.01712550000002,158.56992681875002,60.0,64.0
921,158.5343665,158.60871989375,72.0,80.0
922,158.5343665,158.61518540625,84.0,78.0
923,158.5343665,158.87811624791667,53.0,51.0
924,159.05160750000002,159.12380572291667,70.0,82.0
925,159.05160750000002,159.14427984583335,82.0,73.0
926,159.05160750000002,159.23264185,56.0,62.0
927,158.792987,159.27359009583333,55.0,61.0
928,159.310228,159.45354686041668,60.0,64.0
929,159.310228,159.57854676875002,68.0,76.0
930,159.5688485,159.63889155208335,84.0,75.0
931,159.5688485,159.6399691375,72.0,76.0
932,159.5688485,159.74126216666667,58.0,66.0
933,159.5688485,159.80591729166667,67.0,52.0
934,159.827469,160.14751186875,68.0,69.0
935,160.0860895,160.47940817708334,39.0,49.0
936,160.34471,160.56022708333333,46.0,46.0
937,160.0860895,160.9589336875,67.0,64.0
938,160.0860895,160.9589336875,67.0,82.0
939,160.0860895,160.97294229791666,75.0,80.0
940,160.0860895,160.97294229791666,87.0,80.0
941,160.6033305,161.004192275,51.0,49.0
942,160.0860895,161.15720940416668,63.0,57.0
943,160.0860895,161.19708006458333,58.0,62.0
944,161.1205715,161.41798507500002,55.0,64.0
945,160.861951,161.47509710208334,53.0,57.0
946,161.37919200000002,161.55807117916666,58.0,64.0
947,161.6378125,161.73802794375,79.0,91.0
948,161.6378125,161.76927792083333,91.0,72.0
949,161.6378125,161.93953641666667,63.0,58.0
950,162.1550535,162.43199295208333,37.0,56.0
951,162.1550535,162.62811349791667,79.0,82.0
952,162.1550535,162.65613071875,91.0,72.0
953,162.41367400000001,162.75095823541668,49.0,63.0
954,162.6658289875,162.78328579791668,80.0,59.0
955,162.65505313333335,162.80160475,92.0,88.0
956,162.1550535,162.97940634375001,56.0,63.0
957,162.1550535,163.02897527291668,61.0,63.0
958,162.1550535,163.47078529375,65.0,60.0
959,163.1895355,163.51604388125,56.0,49.0
960,163.448156,163.7692764541667,61.0,59.0
961,161.896433,163.78651782083335,68.0,66.0
962,162.6722945,163.87056948333333,51.0,50.0
963,163.70677650000002,163.98048319583333,63.0,50.0
964,162.930915,164.65828442291667,53.0,62.0
965,163.965397,164.73910332916668,65.0,63.0
966,162.95893222083333,164.74772401250002,77.0,80.0
967,162.97725117291668,164.75634469583335,89.0,57.0
968,164.87056875000002,165.0580686125,68.0,32.0
969,165.2584995,165.78328359791666,58.0,62.0
970,165.2584995,165.80375772083335,51.0,61.0
971,165.2584995,165.83931803958333,39.0,63.0
972,165.2584995,165.85117147916668,63.0,67.0
973,165.2584995,165.88565421250001,67.0,56.0
974,166.2929815,166.75526564375,41.0,62.0
975,166.551602,166.81992076875,48.0,53.0
976,166.8102225,167.15612741875,53.0,47.0
977,166.2929815,167.31345488958334,60.0,70.0
978,166.2929815,167.34362728125,68.0,78.0
979,167.06884300000002,167.5020323375,55.0,59.0
980,167.3274635,167.5408254125,56.0,73.0
981,167.586084,167.77789420416667,60.0,54.0
982,167.8447045,168.06991985208333,65.0,62.0
983,168.103325,168.33285069375,68.0,66.0
984,168.36194550000002,168.8080658625,39.0,70.0
985,168.620566,168.8468589375,46.0,49.0
986,168.8791865,169.23802244375,51.0,48.0
987,168.36194550000002,169.43306540416668,63.0,61.0
988,168.36194550000002,169.5494446291667,67.0,67.0
989,168.36194550000002,169.62595319375,58.0,54.0
990,169.137807,169.85009096041668,53.0,43.0
991,169.39642750000002,169.85116854583333,55.0,73.0
992,169.9136685,170.41259054791666,63.0,60.0
993,170.4309095,170.78974544375,56.0,66.0
994,170.4309095,170.81884025,61.0,69.0
995,170.4309095,170.88026261875,65.0,66.0
996,170.9481505,171.0580642125,56.0,45.0
997,170.9481505,171.15720207083334,63.0,61.0
998,170.9481505,171.28220197916667,49.0,46.0
999,171.206771,171.39534844791666,56.0,66.0
1000,171.206771,171.57315004166668,65.0,72.0
1001,171.4653915,171.74233095208334,49.0,40.0
1002,171.72401200000002,171.92336530208334,58.0,61.0
1003,171.72401200000002,172.04836521041668,68.0,69.0
1004,170.68953000000002,172.27789090416667,44.0,47.0
1005,170.4309095,172.32422707708335,37.0,63.0
1006,171.9826325,172.33392534583334,49.0,44.0
1007,172.241253,172.46323559583334,67.0,57.0
1008,172.241253,172.56129586875,58.0,53.0
1009,172.758494,173.08931272291667,67.0,67.0
1010,172.4998735,173.09039030833333,37.0,61.0
1011,172.758494,173.16043336041668,49.0,53.0
1012,173.01711450000002,173.20030402083333,56.0,61.0
1013,173.275735,173.38888146875001,84.0,69.0
1014,173.01711450000002,173.47077796041668,68.0,66.0
1015,173.275735,173.47077796041668,68.0,66.0
1016,173.40504525,173.56776064791669,85.0,70.0
1017,173.5343555,173.79836392708333,63.0,66.0
1018,173.5343555,173.8123725375,67.0,64.0
1019,173.792976,174.00526032708333,65.0,62.0
1020,173.275735,174.05806201250002,75.0,58.0
1021,173.792976,174.07853613541667,61.0,34.0
1022,173.5343555,174.09038957500002,39.0,72.0
1023,173.792976,174.12379472291667,46.0,47.0
1024,174.05159650000002,174.15396711458334,63.0,55.0
1025,173.5343555,174.1852170916667,84.0,61.0
1026,174.05159650000002,174.28651012083333,51.0,53.0
1027,174.05159650000002,174.40612210208334,67.0,64.0
1028,174.310217,174.43629449375,68.0,69.0
1029,174.5688375,174.96862168958333,41.0,73.0
1030,174.827458,175.05913886458333,48.0,51.0
1031,175.0860785,175.39750068541667,53.0,46.0
1032,174.5688375,175.49879371458334,65.0,64.0
1033,174.5688375,175.53435403333333,68.0,56.0
1034,175.6033195,175.9600002729167,56.0,64.0
1035,175.34469900000002,175.97616405416667,55.0,61.0
1036,175.86194,176.05482778958333,60.0,61.0
1037,176.1205605,176.35870687708334,65.0,54.0
1038,176.37918100000002,176.58499981458334,68.0,63.0
1039,176.6378015,176.94383575833334,63.0,61.0
1040,176.6378015,176.96862022291668,67.0,62.0
1041,176.6378015,176.99879261458335,58.0,57.0
1042,177.1550425,177.71969725833333,51.0,49.0
1043,177.413663,177.83607648333333,55.0,62.0
1044,177.413663,177.83607648333333,63.0,76.0
1045,177.930904,178.24017101458335,58.0,73.0
1046,176.6378015,178.27680891875002,39.0,58.0
1047,176.896422,178.2994382125,46.0,56.0
1048,178.1895245,178.30051579791666,51.0,59.0
1049,178.70676550000002,179.21215306041668,61.0,66.0
1050,178.70676550000002,179.24771337916667,56.0,67.0
1051,178.70676550000002,179.2692650875,53.0,60.0
1052,179.482627,179.58176485833334,61.0,35.0
1053,179.2240065,179.76279920833335,49.0,53.0
1054,179.482627,179.90719565416669,53.0,50.0
1055,179.87055775000002,180.06236795416666,49.0,40.0
1056,179.99986800000002,180.24340230416666,61.0,67.0
1057,179.99986800000002,180.30482467291668,56.0,72.0
1058,179.99986800000002,180.30697984375,53.0,67.0
1059,178.70676550000002,180.32745396666667,37.0,70.0
1060,178.965386,180.38241082291668,44.0,53.0
1061,180.2584885,180.39318667708335,49.0,61.0
1062,180.517109,180.659350275,61.0,45.0
1063,180.7757295,180.87163460208333,51.0,47.0
1064,180.7757295,181.02465173125,56.0,73.0
1065,180.7757295,181.08391892916669,60.0,72.0
1066,181.2929705,181.63887541875002,56.0,67.0
1067,181.551591,181.6744357375,75.0,70.0
1068,181.68090125,181.87809938125,77.0,54.0
1069,181.551591,181.89103040625,63.0,70.0
1070,181.551591,181.89210799166668,58.0,63.0
1071,181.8102115,182.09146129375,56.0,57.0
1072,182.06883200000001,182.18413363958334,58.0,50.0
1073,181.8102115,182.27896115625,72.0,69.0
1074,181.03435000000002,182.39749555208334,51.0,61.0
1075,182.32745250000002,182.44490931041668,56.0,61.0
1076,182.06883200000001,182.44490931041668,60.0,72.0
1077,180.7757295,182.44814206666666,44.0,73.0
1078,182.586073,182.70029705416667,63.0,48.0
1079,182.32745250000002,182.89534001458335,68.0,61.0
1080,182.8446935,182.9998658,56.0,58.0
1081,182.8446935,183.30482247291667,70.0,62.0
1082,182.8446935,183.34146037708334,65.0,58.0
1083,182.8446935,183.38025345208334,61.0,63.0
1084,183.620555,183.94167545416667,60.0,63.0
1085,183.8791755,184.07098570416667,61.0,70.0
1086,183.36193450000002,184.31344242291667,58.0,55.0
1087,183.103314,184.36624410833335,53.0,52.0
1088,182.8446935,184.46322679583335,46.0,64.0
1089,184.137796,184.47076989375,65.0,76.0
1090,184.39641650000002,184.6615025125,67.0,52.0
1091,184.65503700000002,184.93413162291668,70.0,56.0
1092,184.9136575,185.31882961666668,39.0,69.0
1093,185.172278,185.40072610833334,46.0,57.0
1094,185.4308985,185.78219134583335,51.0,47.0
1095,184.9136575,185.83714820208334,68.0,69.0
1096,185.9481395,186.35977712916667,55.0,62.0
1097,185.68951900000002,186.37378573958335,53.0,66.0
1098,186.20676,186.50201840416668,58.0,54.0
1099,186.4653805,186.71753548750002,63.0,55.0
1100,186.72400100000002,187.0149490625,70.0,66.0
1101,186.9826215,187.6485692875,44.0,67.0
1102,187.4998625,187.7002933875,56.0,59.0
1103,186.9826215,187.73262095,68.0,88.0
1104,187.241242,187.95460354583335,51.0,53.0
1105,187.758483,188.0796034541667,72.0,69.0
1106,188.01710350000002,188.43628422708335,70.0,66.0
1107,188.5343445,188.71753402083334,55.0,61.0
1108,188.275724,188.7218443625,51.0,51.0
1109,188.01710350000002,188.73046504583334,43.0,56.0
1110,188.792965,189.18843884791667,75.0,56.0
1111,189.05158550000002,189.45029210416666,41.0,67.0
1112,189.310206,189.55912823125,48.0,53.0
1113,189.05158550000002,189.86947283125,68.0,70.0
1114,189.5688265,189.91580900416668,53.0,56.0
1115,190.0860675,190.48908444583333,56.0,67.0
1116,189.827447,190.49770512916666,55.0,56.0
1117,190.34468800000002,190.64748950208335,65.0,53.0
1118,190.6033085,190.87378243958335,67.0,57.0
1119,190.861929,191.42981651458334,68.0,59.0
1120,191.1205495,191.77141109166666,61.0,70.0
1121,191.896411,192.21860903958333,60.0,61.0
1122,192.1550315,192.46429851458333,61.0,60.0
1123,191.6377905,192.51063468750002,58.0,59.0
1124,192.413652,192.62162598541667,63.0,54.0
1125,191.37917000000002,192.68735869583335,53.0,52.0
1126,191.1205495,192.72938452708334,46.0,67.0
1127,192.67227250000002,192.90287577916666,65.0,58.0
1128,192.930893,193.28972894375002,68.0,48.0
1129,193.1895135,193.56128046875,56.0,70.0
1130,193.1895135,193.5968407875,61.0,72.0
1131,193.1895135,193.86839231250002,65.0,67.0
1132,193.448134,194.55804697916668,53.0,57.0
1133,193.70675450000002,194.73261581666668,56.0,61.0
1134,193.965375,194.74339167083335,61.0,62.0
1135,194.482616,194.78541750208333,65.0,88.0
1136,193.1895135,194.80481403958333,49.0,63.0
1137,194.7412365,194.83498643125,53.0,55.0
1138,194.99985700000002,195.38671016458335,60.0,54.0
1139,195.2584775,195.46860665625002,36.0,72.0
1140,195.517098,195.81882191666668,48.0,60.0
1141,195.2584775,196.06558897708334,67.0,69.0
1142,196.2929595,196.49231280208335,60.0,60.0
1143,196.03433900000002,196.67334715208335,55.0,64.0
1144,195.7757185,196.67550232291669,53.0,76.0
1145,196.55158,196.83606255,65.0,57.0
1146,196.8102005,196.8942521625,67.0,64.0
1147,197.32744150000002,197.93412208958335,36.0,63.0
1148,197.32744150000002,198.0451133875,84.0,56.0
1149,197.068821,198.16472536875,72.0,61.0
1150,198.36192350000002,198.53756992291667,79.0,70.0
1151,198.620544,198.8726989875,79.0,45.0
1152,198.8791645,198.97075926041668,75.0,72.0
1153,199.39640550000001,199.64101738958334,72.0,63.0
1154,199.65502600000002,199.90502581666667,67.0,47.0
1155,199.9136465,200.22830144166667,68.0,63.0
1156,200.172267,200.47937884375,70.0,70.0
1157,200.4308875,200.72506831875,72.0,73.0
1158,199.65502600000002,200.7520079541667,60.0,54.0
1159,200.4308875,200.935197475,65.0,60.0
1160,200.68950800000002,201.02032672291668,67.0,57.0
1161,199.39640550000001,201.07528357916667,53.0,63.0
1162,200.9481285,201.4147229854167,68.0,69.0
1163,200.9481285,201.5235591125,60.0,62.0
1164,201.206749,201.52786945416668,72.0,60.0
1165,201.4653695,201.97722257291667,70.0,69.0
1166,201.72399000000001,202.54295491666667,60.0,57.0
1167,202.241231,202.5849807479167,67.0,62.0
1168,201.98261050000002,202.62161865208333,63.0,61.0
1169,202.4998515,202.84360124791667,68.0,66.0
1170,202.758472,203.06881660000002,60.0,72.0
1171,201.4653695,203.1248510416667,51.0,59.0
1172,203.01709250000002,203.22291131458334,67.0,80.0
1173,203.275713,203.45459217916667,68.0,54.0
1174,203.40502325,203.6054541375,67.0,57.0
1175,203.5343335,204.12485030833335,65.0,69.0
1176,203.792954,204.37053978333333,56.0,57.0
1177,204.05157450000002,204.85222046458335,61.0,59.0
1178,204.31019500000002,204.8802376854167,63.0,82.0
1179,204.827436,205.05049618125,65.0,67.0
1180,203.5343335,205.16148747916668,49.0,69.0
1181,205.0860565,205.18734952916668,56.0,63.0
1182,205.34467700000002,205.62808196458334,56.0,64.0
1183,206.37915900000002,206.49338305416669,72.0,58.0
1184,206.37915900000002,206.50092615208334,80.0,63.0
1185,206.1205385,206.60652952291667,49.0,49.0
1186,206.63777950000002,206.76170182291668,80.0,61.0
1187,206.63777950000002,206.76385699375,72.0,60.0
1188,206.8964,207.0580378125,49.0,59.0
1189,207.02571025,207.13885671875002,79.0,70.0
1190,207.02571025,207.13993430416667,70.0,67.0
1191,205.6032975,207.25092560208333,37.0,38.0
1192,205.861918,207.32527899583334,44.0,61.0
1193,207.1550205,207.39316687708333,49.0,62.0
1194,207.413641,207.55695986041667,67.0,61.0
1195,207.413641,207.56558054375,75.0,64.0
1196,207.67226150000002,208.1442439125,41.0,70.0
1197,207.930882,208.17333871875002,48.0,56.0
1198,207.67226150000002,208.26493347916667,77.0,66.0
1199,207.67226150000002,208.280019675,68.0,61.0
1200,208.1895025,208.49553675833334,53.0,51.0
1201,208.448123,208.8791571666667,55.0,64.0
1202,208.70674350000002,208.88670026458334,56.0,64.0
1203,208.96536400000002,209.20674313333333,60.0,64.0
1204,209.2239845,209.4761394875,65.0,67.0
1205,209.482605,209.69919966875,68.0,60.0
1206,209.7412255,210.1873458625,39.0,69.0
1207,209.99984600000002,210.23260445,46.0,55.0
1208,210.2584665,210.59790590625002,51.0,47.0
1209,209.7412255,210.65178517708335,63.0,66.0
1210,209.7412255,210.75738854791666,67.0,75.0
1211,209.7412255,210.84144021041666,58.0,59.0
1212,210.517087,211.20135373958334,53.0,53.0
1213,210.7757075,211.21859510625,55.0,61.0
1214,211.03432800000002,211.383465675,58.0,59.0
1215,211.2929485,211.56557761041668,63.0,67.0
1216,211.8101895,212.22182712916668,37.0,63.0
1217,212.06881,212.30264603541667,44.0,54.0
1218,212.32743050000002,212.65932680833333,49.0,47.0
1219,211.8101895,212.8910076729167,61.0,64.0
1220,211.8101895,212.91471455208335,56.0,64.0
1221,211.8101895,212.92010247916667,65.0,62.0
1222,211.551569,212.96536106666667,68.0,66.0
1223,213.103292,213.28324876458333,56.0,56.0
1224,212.8446715,213.37592111041667,53.0,59.0
1225,212.586051,213.38346420833335,51.0,57.0
1226,213.36191250000002,213.77893805625,61.0,59.0
1227,213.8791535,214.34143764375,63.0,73.0
1228,213.8791535,214.35975659583335,60.0,67.0
1229,213.620533,214.40609276875,68.0,62.0
1230,213.8791535,214.70350634375,44.0,73.0
1231,214.3963945,214.71212702708334,56.0,55.0
1232,214.137774,214.73583390625,51.0,47.0
1233,214.65501500000002,214.80803212916666,63.0,70.0
1234,214.65501500000002,214.81449764166666,58.0,70.0
1235,215.172256,215.48691094166668,45.0,58.0
1236,215.172256,215.5149281625,57.0,73.0
1237,215.172256,215.59466948333335,63.0,76.0
1238,215.172256,215.61622119166668,60.0,75.0
1239,215.68949700000002,215.91147959583336,68.0,56.0
1240,215.9481175,216.21643626875002,58.0,56.0
1241,215.9481175,216.4276430104167,61.0,72.0
1242,215.9481175,216.44165162083334,65.0,75.0
1243,216.59466875,216.80372032083335,60.0,49.0
1244,216.59466875,216.81449617500002,63.0,64.0
1245,216.33604825,216.88561681250002,58.0,32.0
1246,216.85328925000002,216.92656505833335,60.0,44.0
1247,216.85328925000002,217.33065958958335,61.0,70.0
1248,216.85328925000002,217.34897854166667,65.0,75.0
1249,217.24122,217.4416508875,58.0,58.0
1250,215.9481175,217.46643535208335,53.0,64.0
1251,215.9481175,217.52246979375002,46.0,62.0
1252,217.4998405,217.68626277708333,65.0,53.0
1253,217.4998405,217.71859033958333,60.0,67.0
1254,217.758461,217.97936601041667,68.0,61.0
1255,218.01708150000002,218.46104669166667,39.0,69.0
1256,218.275702,218.51169320625002,46.0,48.0
1257,218.01708150000002,218.7412189,63.0,64.0
1258,218.01708150000002,218.84035675833334,67.0,73.0
1259,218.5343225,218.857598125,51.0,40.0
1260,218.01708150000002,219.13022723541667,58.0,63.0
1261,219.05156350000001,219.3942356625,55.0,61.0
1262,218.792943,219.40501151666666,53.0,62.0
1263,219.31018400000002,219.66363201666667,58.0,66.0
1264,219.5688045,219.86514048958335,60.0,59.0
1265,219.827425,220.04401966875,61.0,62.0
1266,220.0860455,220.62591579375,63.0,72.0
1267,220.34466600000002,220.76923465416667,51.0,55.0
1268,220.0860455,220.82850185208335,60.0,69.0
1269,220.6032865,220.85113114583334,56.0,55.0
1270,220.0860455,220.926562125,44.0,72.0
1271,220.861907,221.0881999375,63.0,58.0
1272,220.861907,221.1216050854167,51.0,49.0
1273,221.1205275,221.74983738333333,58.0,57.0
1274,221.1205275,221.831733875,43.0,69.0
1275,221.63776850000002,221.84789765625,55.0,61.0
1276,221.37914800000001,221.87052695,51.0,52.0
1277,221.896389,222.19919050208335,63.0,66.0
1278,222.1550095,222.66686257291667,60.0,69.0
1279,222.1550095,222.72397460000002,56.0,62.0
1280,222.930871,223.29078452916667,55.0,58.0
1281,222.1550095,223.74337040416668,41.0,70.0
1282,222.41363,223.74660316041667,48.0,52.0
1283,223.1894915,223.75414625833335,56.0,49.0
1284,222.67225050000002,223.75522384375,53.0,56.0
1285,223.70673250000002,224.16362871666666,60.0,54.0
1286,224.2239735,224.51815431875002,46.0,39.0
1287,224.2239735,224.805869625,53.0,72.0
1288,224.2239735,224.99983500000002,61.0,66.0
1289,224.99983500000002,225.7045758625,53.0,73.0
1290,225.517076,225.7175068875,56.0,78.0
1291,224.7412145,225.72289481458336,49.0,55.0
1292,224.482594,225.74121376666668,48.0,64.0
1293,225.7756965,225.98043772916668,63.0,58.0
1294,226.03431700000002,226.29293750000002,68.0,58.0
1295,226.29293750000002,226.80802332916667,39.0,73.0
1296,226.551558,226.82526469583334,46.0,56.0
1297,226.8101785,227.16685927291667,51.0,63.0
1298,226.29293750000002,227.32310915833335,63.0,70.0
1299,226.29293750000002,227.34250569583335,67.0,73.0
1300,226.29293750000002,227.39207462500002,58.0,69.0
1301,227.58604,227.78754847291668,58.0,66.0
1302,227.32741950000002,227.79509157083334,55.0,72.0
1303,227.068799,227.7994019125,53.0,64.0
1304,227.8446605,228.12914305,63.0,78.0
1305,228.103281,228.43409972291667,70.0,70.0
1306,228.36190150000002,228.74983225,44.0,73.0
1307,228.62052200000002,228.87375457291668,51.0,58.0
1308,228.8791425,229.20134053958336,56.0,53.0
1309,228.36190150000002,229.2929353,68.0,85.0
1310,229.65500400000002,230.03539165208335,61.0,80.0
1311,229.9136245,230.12375365625002,65.0,61.0
1312,230.172245,230.42871032916668,68.0,59.0
1313,230.4308655,231.20995975625002,73.0,75.0
1314,231.206727,231.38345100833334,72.0,60.0
1315,231.33603725,231.4922871354167,70.0,53.0
1316,229.3963835,231.50952850208336,60.0,62.0
1317,229.137763,231.77676968541667,58.0,70.0
1318,231.4653475,231.81233000416668,72.0,73.0
1319,232.4998295,233.16469970208334,65.0,69.0
1320,232.4998295,233.23366516875,61.0,66.0
1321,232.4998295,233.36082024791668,56.0,63.0
1322,233.5343115,234.13991450416668,65.0,61.0
1323,233.5343115,234.15284552916668,56.0,60.0
1324,233.5343115,234.16900931041667,61.0,66.0
1325,232.4998295,234.23258685000002,49.0,60.0
1326,234.31017300000002,234.62913828333333,68.0,58.0
1327,234.5687935,235.28323263125,63.0,56.0
1328,234.5687935,235.31771536458334,67.0,62.0
1329,234.5687935,235.36189636666668,58.0,60.0
1330,235.6032755,235.84573221875002,63.0,72.0
1331,235.6032755,235.85435290208335,67.0,63.0
1332,234.5687935,236.13883545208336,49.0,58.0
1333,235.6032755,236.20995608958333,58.0,63.0
1334,236.1205165,236.34788702291667,65.0,69.0
1335,236.63775750000002,236.77030050625,58.0,55.0
1336,236.63775750000002,237.15176574375002,63.0,66.0
1337,236.37913700000001,237.19810191666667,70.0,67.0
1338,237.413619,237.85004109375,63.0,63.0
1339,237.1549985,238.03538578541668,60.0,64.0
1340,236.896378,238.13021330208335,55.0,61.0
1341,236.63775750000002,238.14206674166667,48.0,72.0
1342,237.93086,238.26383389375002,70.0,59.0
1343,238.1894805,238.39422172916667,72.0,63.0
1344,238.448101,238.74766974583335,75.0,69.0
1345,238.70672150000001,239.10973844583333,41.0,73.0
1346,238.96534200000002,239.2239625,48.0,61.0
1347,238.70672150000001,239.27029867291668,72.0,73.0
1348,239.2239625,239.53322951458335,53.0,46.0
1349,239.7412035,240.20348764375,56.0,64.0
1350,239.99982400000002,240.2239617666667,80.0,73.0
1351,239.99982400000002,240.23258245,72.0,52.0
1352,239.482583,240.2390479625,55.0,66.0
1353,240.2584445,240.43624609375001,79.0,56.0
1354,240.517065,240.77353032916668,75.0,69.0
1355,240.7756855,241.08495251458334,73.0,64.0
1356,240.7756855,241.14745246875,68.0,63.0
1357,241.551547,241.8565036729167,60.0,76.0
1358,241.8101675,241.99335702083334,61.0,70.0
1359,241.29292650000002,242.06447765833335,58.0,69.0
1360,241.03430600000002,242.26814130208334,53.0,47.0
1361,240.7756855,242.30908954791667,46.0,70.0
1362,242.068788,242.40607223541667,65.0,70.0
1363,242.32740850000002,242.63452034375,68.0,42.0
1364,242.586029,242.89206325833334,73.0,67.0
1365,242.8446495,243.33387327916668,39.0,69.0
1366,242.8446495,243.35219223125,72.0,91.0
1367,243.10327,243.36727842708333,46.0,69.0
1368,243.36189050000002,243.67762302708334,51.0,85.0
1369,243.8791315,244.00520899375002,55.0,76.0
1370,243.62051100000002,244.02460553125002,53.0,51.0
1371,244.137752,244.45240694166668,56.0,85.0
1372,244.3963725,244.60865682708334,58.0,62.0
1373,244.65499300000002,244.86404457083333,61.0,66.0
1374,244.9136135,245.27244944375002,60.0,88.0
1375,245.4308545,245.84356971458334,56.0,75.0
1376,245.68947500000002,245.85973349583335,58.0,95.0
1377,245.94809550000002,246.30908661458335,60.0,75.0
1378,246.206716,246.38451759375002,61.0,85.0
1379,245.172234,246.42869859583334,51.0,58.0
1380,244.9136135,246.52675886875002,44.0,75.0
1381,246.4653365,246.62481914166668,63.0,78.0
1382,247.241198,247.46964610833334,60.0,82.0
1383,247.241198,247.53106847708335,56.0,88.0
1384,247.241198,247.55369777083334,63.0,85.0
1385,247.241198,247.58063740625002,44.0,69.0
1386,247.62912875,247.85865444375,56.0,82.0
1387,247.62912875,247.90606820208333,61.0,95.0
1388,247.62912875,247.96210264375,46.0,76.0
1389,248.01705950000002,248.26598173125,56.0,88.0
1390,248.01705950000002,248.29076619583336,63.0,93.0
1391,248.40499025,248.60865389375002,51.0,82.0
1392,248.01705950000002,248.64098145625002,48.0,80.0
1393,248.40499025,248.6571452375,56.0,85.0
1394,248.40499025,248.77891238958335,65.0,95.0
1395,248.792921,248.98904154583335,68.0,78.0
1396,249.0515415,249.51382564375,37.0,93.0
1397,249.31016200000002,249.56986008541668,44.0,62.0
1398,249.0515415,249.67438587083333,65.0,88.0
1399,249.0515415,249.70024792083333,56.0,97.0
1400,249.0515415,249.70671343333333,68.0,66.0
1401,249.0515415,249.74227375208335,61.0,88.0
1402,249.5687825,249.84248919583334,49.0,64.0
1403,249.827403,249.94701498125002,56.0,76.0
1404,249.95671325,250.08817867083334,61.0,69.0
1405,250.0860235,250.26059233750001,65.0,82.0
1406,250.21533375,250.34141124375,68.0,67.0
1407,250.34464400000002,250.40283361250002,70.0,64.0
1408,250.42115256458334,250.48796286041667,72.0,62.0
1409,249.69809275,250.64205757500002,51.0,62.0
1410,250.47395425000002,250.67654030833333,75.0,82.0
1411,249.95671325,250.69162650416666,53.0,60.0
1412,250.60326450000002,250.7519712875,77.0,44.0
1413,250.60326450000002,250.76059197083333,80.0,61.0
1414,250.73257475,250.8036953875,85.0,78.0
1415,251.896367,251.97072039375,55.0,88.0
1416,251.896367,251.97503073541668,58.0,99.0
1417,251.63774650000002,251.97826349166667,51.0,80.0
1418,251.896367,252.01166863958335,63.0,73.0
1419,252.413608,252.49550449166668,68.0,48.0
1420,252.1549875,252.52890963958333,51.0,45.0
1421,252.413608,252.53106481041667,79.0,80.0
1422,251.1205055,252.79399565208334,39.0,91.0
1423,252.67222850000002,252.8058490916667,68.0,85.0
1424,251.379126,252.82740080000002,46.0,70.0
1425,252.67222850000002,252.84571975208334,79.0,82.0
1426,252.67222850000002,252.84679733750002,51.0,60.0
1427,252.93084900000002,252.97071966041668,79.0,55.0
1428,252.93084900000002,253.04291788333333,68.0,69.0
1429,252.93084900000002,253.12373678958335,77.0,91.0
1430,253.1894695,253.5709347375,58.0,73.0
1431,253.1894695,253.82093455416668,63.0,76.0
1432,253.44809,254.19808945,55.0,63.0
1433,253.7067105,254.7411925,58.0,67.0
1434,253.96533100000002,254.79614935625,70.0,73.0
1435,254.482572,254.89636480000001,67.0,72.0
1436,253.1894695,255.05908019791667,48.0,69.0
1437,254.7411925,255.10218361458334,55.0,70.0
1438,254.99981300000002,255.1980887166667,63.0,72.0
1439,255.25843350000002,255.88235545625,68.0,73.0
1440,255.25843350000002,255.88235545625,72.0,75.0
1441,255.517054,256.4157602375,60.0,60.0
1442,256.034295,256.4168378229167,67.0,82.0
1443,255.7756745,256.65067385833333,65.0,66.0
1444,256.2929155,256.65067385833333,68.0,80.0
1445,256.551536,256.78644962083337,70.0,78.0
1446,255.25843350000002,256.89528574791666,53.0,69.0
1447,256.8101565,256.9146822854167,60.0,75.0
1448,256.8101565,257.11295800208336,72.0,69.0
1449,257.068777,257.2131734458333,75.0,70.0
1450,257.3273975,257.77675061875,46.0,67.0
1451,257.586018,257.82739713333336,53.0,57.0
1452,257.84463850000003,258.16899171041666,58.0,58.0
1453,257.3273975,258.40390533125003,65.0,66.0
1454,257.3273975,258.426534625,73.0,91.0
1455,258.3618795,258.71424993125004,61.0,66.0
1456,258.10325900000004,258.72933612708334,60.0,58.0
1457,258.6205,258.80476710625,65.0,63.0
1458,258.8791205,259.01274109166667,65.0,41.0
1459,258.8791205,259.10541343750003,72.0,54.0
1460,259.137741,259.4631717958333,73.0,62.0
1461,259.3963615,259.83924910625,72.0,78.0
1462,259.3963615,259.93730937916666,63.0,69.0
1463,260.17222300000003,260.47933484375,56.0,78.0
1464,260.43084350000004,260.55692099375,58.0,66.0
1465,259.3963615,260.8651104229167,39.0,76.0
1466,259.654982,260.89851557083335,46.0,66.0
1467,259.9136025,260.96424828125004,51.0,80.0
1468,260.689464,261.012739625,61.0,76.0
1469,260.9480845,261.21209292708335,63.0,85.0
1470,261.4653255,262.1657560208333,60.0,70.0
1471,261.9825665,262.30799729583333,56.0,66.0
1472,261.206705,262.3133852229167,68.0,69.0
1473,262.241187,262.8683417125,65.0,82.0
1474,262.241187,262.8726520541667,61.0,80.0
1475,262.75842800000004,263.2088587041667,56.0,53.0
1476,261.4653255,263.25519487708334,44.0,76.0
1477,263.0170485,263.30153105,63.0,63.0
1478,263.5342895,264.64420247916667,60.0,69.0
1479,263.5342895,264.7551937770833,63.0,70.0
1480,263.275669,264.82308165833336,68.0,69.0
1481,263.5342895,264.8338575125,44.0,67.0
1482,263.5342895,264.8575643916667,56.0,67.0
1483,261.723946,264.8704954166667,51.0,64.0
1484,265.6032535,265.84463263333333,72.0,64.0
1485,265.861874,266.14096862291666,67.0,49.0
1486,266.1204945,266.36941673125,68.0,44.0
1487,266.379115,266.75088196875004,75.0,59.0
1488,266.6377355,266.8489422416667,67.0,37.0
1489,266.896356,267.13881271875,68.0,44.0
1490,267.15497650000003,267.4717866125,75.0,51.0
1491,266.6377355,267.5407520791667,65.0,44.0
1492,267.41359700000004,267.6398899375,67.0,39.0
1493,267.6722175,267.9901051979167,68.0,49.0
1494,267.930838,268.14312232708335,70.0,63.0
1495,268.1894585,268.4620876104167,67.0,49.0
1496,265.861874,268.52889790625,60.0,51.0
1497,268.448079,268.58708751875,68.0,62.0
1498,268.7066995,268.97501826875003,72.0,69.0
1499,267.930838,268.9954923916667,65.0,42.0
1500,268.96532,269.1506646916667,77.0,48.0
1501,265.6032535,269.15497503333336,53.0,60.0
1502,269.2239405,269.43299207083334,79.0,48.0
1503,268.7066995,269.56337990625,60.0,46.0
1504,269.48256100000003,269.78967284375,80.0,56.0
1505,269.74118150000004,270.21855183958337,51.0,53.0
1506,269.999802,270.22178459583336,60.0,44.0
1507,270.2584225,270.53212919583336,63.0,44.0
1508,269.74118150000004,270.66574978750003,79.0,59.0
1509,270.7756635,271.09462878333335,67.0,61.0
1510,270.517043,271.10971497916665,65.0,58.0
1511,271.034284,271.21100800833335,70.0,53.0
1512,271.2929045,271.564456025,75.0,48.0
1513,271.551525,271.81337825625,82.0,62.0
1514,271.81014550000003,272.1280331979167,70.0,46.0
1515,272.068766,272.2454900083333,75.0,54.0
1516,272.3273865,272.55260185208334,79.0,49.0
1517,272.586007,272.84031715833333,70.0,53.0
1518,272.8446275,273.00626531250003,80.0,63.0
1519,272.97393775,273.1463514166667,79.0,55.0
1520,273.103248,273.2217823958333,75.0,57.0
1521,273.23255825,273.38234262291667,70.0,63.0
1522,272.586007,273.42975638125,58.0,44.0
1523,273.3618685,273.48363565208336,68.0,64.0
1524,271.81014550000003,273.53320458125,51.0,50.0
1525,273.49117875,273.659282075,67.0,69.0
1526,273.620489,273.81014403333336,65.0,55.0
1527,273.74979925,273.8715664020833,67.0,62.0
1528,273.8791095,274.44484184375,68.0,69.0
1529,274.654971,274.8597122291667,63.0,57.0
1530,274.3963505,274.92867769583336,61.0,52.0
1531,274.9135915,275.18729819583336,68.0,58.0
1532,275.172212,275.3252291291667,70.0,62.0
1533,273.8791095,275.62264270416665,49.0,49.0
1534,275.4308325,275.64311682708336,72.0,69.0
1535,275.689453,275.7939787854167,75.0,54.0
1536,274.13773000000003,275.8252287625,56.0,38.0
1537,276.07738375,276.20453882916667,80.0,50.0
1538,276.07738375,276.20884917083333,79.0,54.0
1539,275.9480735,276.38988352083334,49.0,63.0
1540,276.206694,276.4189783270833,56.0,41.0
1541,276.46531450000003,276.77242634375,61.0,44.0
1542,276.206694,276.9243658875,80.0,58.0
1543,276.9825555,277.36725349375,65.0,66.0
1544,276.9825555,277.37264142083336,79.0,66.0
1545,276.723935,277.4232879354167,63.0,60.0
1546,277.37048625,277.64419294583337,77.0,64.0
1547,277.758417,277.85971002916665,75.0,32.0
1548,277.758417,277.89527034791666,79.0,54.0
1549,277.88772725,278.02027025625,80.0,45.0
1550,278.0170375,278.20130460625,79.0,64.0
1551,278.5342785,278.93837303125,63.0,58.0
1552,278.79289900000003,279.1894504333333,67.0,69.0
1553,279.31014,279.40604510208334,70.0,49.0
1554,279.5687605,279.65065699166666,63.0,48.0
1555,278.14634775,279.72824314166667,51.0,63.0
1556,278.40496825,279.7347086541667,58.0,53.0
1557,279.827381,280.16897557708336,67.0,57.0
1558,280.0860015,280.254104825,75.0,72.0
1559,281.1118628166667,281.2541040916667,70.0,51.0
1560,281.10863006041666,281.30259543541666,63.0,61.0
1561,281.1150955729167,281.35324195,60.0,50.0
1562,280.0860015,281.58492281458336,48.0,67.0
1563,280.6032425,281.65604345208334,55.0,53.0
1564,281.6872934291667,283.85216253125003,67.0,61.0
1565,285.18944603333335,286.36185896666666,63.0,46.0
1566,285.06229095416666,286.3941865291667,60.0,32.0
1567,285.32091145416666,286.44698821458337,68.0,57.0
1568,286.85216033125,287.07629809791666,55.0,47.0
1569,287.0709101708334,287.15711700416665,56.0,54.0
1570,287.26595313125,287.40496165,60.0,56.0
1571,287.45345299375003,287.6959097125,65.0,49.0
1572,287.65927180833336,287.80690101041665,67.0,45.0
1573,287.85754752500003,287.97284916458335,68.0,47.0
1574,288.0956939020833,288.36509025625,72.0,49.0
1575,288.42974538125003,288.6603486604167,80.0,42.0
1576,288.79289166666666,289.1517276104167,79.0,40.0
1577,289.20776205208335,289.39310674375,77.0,43.0
1578,289.70560651458334,290.40172669375,89.0,48.0
1579,286.34677277083335,290.5008645520833,48.0,37.0
1580,286.61185878333333,290.50733006458336,53.0,39.0
1581,285.2368597916667,290.59030414166665,41.0,55.0
