,start,end,pitch,velocity
0,3.1008066583333336,3.268145379166667,70.0,112.0
1,3.3427421583333334,3.631048629166667,71.0,97.0
2,3.5846776583333333,3.8629034833333336,70.0,117.0
3,3.8266131583333336,3.9233873583333336,68.0,112.0
4,4.0685486583333335,4.237903508333334,66.0,112.0
5,4.310484158333334,5.028226141666667,63.0,112.0
6,5.036290658333334,5.574597145833334,68.0,122.0
7,7.697581158333334,7.9657263375000005,63.0,127.0
8,8.181452158333334,9.471774825,66.0,127.0
9,9.633065158333334,10.002016795833335,68.0,107.0
10,10.116936158333333,10.622984579166667,63.0,112.0
11,10.600807158333334,10.925403954166667,61.0,90.0
12,10.842742658333334,11.872904,63.0,97.0
13,20.783259204166665,21.18008462083333,61.0,107.0
14,21.259449704166663,21.65032273958333,56.0,112.0
15,21.735640204166664,23.551116485416664,58.0,97.0
16,24.592783204166665,24.820957818749996,65.0,96.0
17,24.830878454166665,25.10865624583333,66.0,82.0
18,25.068973704166666,25.38246578333333,61.0,100.0
19,25.545164204166664,26.856672206249996,63.0,100.0
20,28.64040245416666,28.78127547708333,58.0,82.0
21,28.878497704166662,29.05111676041666,59.0,85.0
22,29.116592954166663,29.241592960416664,58.0,86.0
23,29.354688204166663,29.5531009125,59.0,78.0
24,29.592783454166664,29.691989808333332,58.0,74.0
25,29.830878704166665,30.489608895833328,59.0,82.0
26,31.735640704166663,31.945958174999998,66.0,99.0
27,31.973735954166663,32.18802167916667,65.0,99.0
28,32.688021704166665,33.0292915625,56.0,102.0
29,32.926116954166666,34.54318052708333,58.0,92.0
30,36.49754570416667,36.791196512499994,63.0,115.0
31,36.97373620416666,37.201910818749994,61.0,110.0
32,37.21183145416666,38.36064103541666,63.0,110.0
33,38.40230770416666,38.87849820416666,65.0,95.0
34,38.87849820416666,39.11659345416666,66.0,105.0
35,39.11659345416666,39.59278395416666,65.0,110.0
36,39.59278395416666,40.06699032708333,63.0,115.0
37,40.068974454166664,40.545164954166665,63.0,115.0
38,40.545164954166665,41.25945070416667,61.0,86.0
39,41.49754595416667,41.592784054166664,61.0,93.0
40,41.73564120416667,41.830879304166665,61.0,97.0
41,41.97373645416666,42.07095868125,61.0,99.0
42,42.21183170416666,42.42016504791667,63.0,127.0
43,42.688022204166664,42.82294284583333,64.0,96.0
44,42.926117454166665,43.09080000208333,63.0,117.0
45,43.40230795416666,43.64437145833333,61.0,112.0
46,43.87849845416666,44.23564132916667,61.0,112.0
47,44.35468895416666,45.134450897916665,59.0,81.0
48,45.307069954166664,45.43206996041667,59.0,89.0
49,45.545165204166665,45.664212829166665,59.0,81.0
50,45.783260454166665,45.94397474791666,59.0,79.0
51,46.021355704166666,46.247546191666665,61.0,117.0
52,46.25945095416667,46.80905415625,62.0,89.0
53,46.97373670416667,47.152308141666666,61.0,127.0
54,47.21183195416666,47.396355772916664,59.0,93.0
55,47.68802245416666,47.815006587499994,61.0,102.0
56,47.926117704166664,48.39437169583333,58.0,107.0
57,48.402308204166665,49.816990814583335,56.0,89.0
58,51.262911499999994,51.378911499999994,61.0,112.0
59,51.502911499999996,51.624911499999996,61.0,99.0
60,51.74291149999999,52.02891149999999,56.0,93.0
61,51.98291149999999,53.5789115,58.0,82.0
62,54.862911499999996,55.06291149999999,65.0,100.0
63,55.10291149999999,55.30291149999999,66.0,112.0
64,55.582911499999994,56.0329115,61.0,112.0
65,56.06291149999999,58.222911499999995,63.0,92.0
66,59.182911499999996,59.28491149999999,58.0,112.0
67,59.4229115,59.560911499999996,59.0,99.0
68,59.66291149999999,59.780911499999995,58.0,99.0
69,59.902911499999995,60.042911499999995,59.0,92.0
70,60.1429115,60.256911499999994,58.0,81.0
71,60.38291149999999,61.378911499999994,59.0,112.0
72,62.30291149999999,62.45291149999999,65.0,96.0
73,62.542911499999995,62.948911499999994,70.0,122.0
74,63.262911499999994,63.7129115,63.0,117.0
75,63.74291149999999,64.0309115,58.0,59.0
76,63.98291149999999,64.39091149999999,63.0,107.0
77,64.2229115,65.7529115,61.0,102.0
78,66.6229115,66.7529115,61.0,107.0
79,66.8629115,67.0129115,61.0,102.0
80,67.10291149999999,67.53491149999999,63.0,127.0
81,67.5829115,67.8309115,61.0,112.0
82,67.82291149999999,68.51691149999999,63.0,127.0
83,68.5429115,68.64491149999999,63.0,112.0
84,68.7829115,68.90691149999999,63.0,102.0
85,69.02291149999999,69.1369115,65.0,97.0
86,69.2629115,69.38491149999999,65.0,95.0
87,69.5029115,69.6129115,63.0,100.0
88,69.74291149999999,70.29091149999999,65.0,122.0
89,70.46291149999999,70.58491149999999,61.0,107.0
90,70.7029115,70.8309115,61.0,102.0
91,70.9429115,71.36691149999999,70.0,117.0
92,71.4229115,71.87891149999999,68.0,127.0
93,71.90291149999999,72.0629115,66.0,122.0
94,71.90291149999999,72.3689115,65.0,95.0
95,72.62291149999999,73.13876635416666,63.0,112.0
96,73.10449215833333,74.30408901249999,58.0,90.0
97,74.31416965833333,74.43312127916666,58.0,107.0
98,74.55610515833332,74.70126645833332,58.0,100.0
99,74.79804065833332,75.10852455,59.0,112.0
100,75.28191165833333,75.40691166666666,58.0,117.0
101,75.52384715833333,76.02586332083332,59.0,102.0
102,76.00771815833333,76.25570204583333,61.0,122.0
103,76.49158915833333,76.86658918333333,63.0,127.0
104,76.97546015833332,77.12465371666666,66.0,117.0
105,77.45933115833333,77.77989569583333,66.0,107.0
106,77.94320215833332,78.507718325,70.0,117.0
107,78.66900865833333,78.96537964583332,68.0,127.0
108,78.91094415833332,81.338363675,66.0,90.0
109,81.33029915833333,81.43917013333332,70.0,117.0
110,81.57223465833333,81.75167015416666,71.0,127.0
111,81.81417015833333,81.92908952083333,70.0,122.0
112,82.05610565833332,82.24965405833333,68.0,127.0
113,82.29804115833332,82.40489600416666,66.0,107.0
114,82.53997665833333,83.09844443749999,63.0,127.0
115,83.26578315833332,84.63271873333332,68.0,127.0
116,85.20126715833332,85.3000574875,68.0,122.0
117,85.44320265833332,85.56013815,70.0,117.0
118,85.68513815833333,85.77183171249999,68.0,117.0
119,85.92707365833333,86.0621543125,66.0,127.0
120,86.16900915833332,86.27183174583332,63.0,117.0
121,86.41094465833332,86.67505757916666,61.0,122.0
122,86.65288015833333,86.67505757916666,61.0,127.0
123,86.89481565833333,86.98352534166666,61.0,127.0
124,87.13675115833333,87.24562213333333,61.0,117.0
125,87.37868665833332,87.54199312083333,61.0,122.0
126,87.62062215833333,87.90892862916667,61.0,117.0
127,88.10449315833333,88.23554155416666,58.0,102.0
128,88.34642865833332,88.50570286249999,68.0,127.0
129,88.58836415833332,88.72747707083333,66.0,107.0
130,88.83029965833333,89.42505776249999,66.0,122.0
131,89.79804165833332,89.95933199166666,66.0,122.0
132,90.03997715833333,90.16900942499998,65.0,96.0
133,90.28191265833333,90.58433203333333,66.0,127.0
134,90.76578365833333,90.88070302083332,59.0,112.0
135,91.00771915833333,91.48755789999998,59.0,102.0
136,91.73352565833332,91.84642889166666,66.0,127.0
137,91.97546115833333,92.12263858749999,68.0,107.0
138,92.21739665833333,92.48150957916666,66.0,127.0
139,92.70126765833332,92.80409024583332,61.0,107.0
140,92.94320315833332,93.27384834166666,61.0,117.0
141,93.42707415833333,93.50368706666666,61.0,127.0
142,93.66900965833332,93.75368708333332,61.0,127.0
143,93.91094515833333,94.02384839166666,61.0,117.0
144,94.15288065833333,94.34441292916667,63.0,127.0
145,94.39481615833333,94.61255810833333,66.0,117.0
146,94.87868715833332,94.9774774875,66.0,122.0
147,95.12062265833333,95.3766710625,70.0,127.0
148,95.36255815833333,95.5944130125,68.0,127.0
149,95.84642915833332,96.00771949166666,66.0,117.0
150,96.81417115833332,96.92304213333333,70.0,112.0
151,96.08836465833332,96.93715503749999,68.0,127.0
152,97.05610665833333,97.33231635416666,71.0,102.0
153,97.29804215833333,97.402880875,70.0,117.0
154,97.53997765833333,97.76376799583332,68.0,127.0
155,97.78191315833332,97.9230422,66.0,102.0
156,98.02384865833332,98.36659061666666,63.0,127.0
157,98.50771965833333,98.72344547916666,70.0,117.0
158,98.74965515833333,99.83836490833333,68.0,117.0
159,100.68513915833333,100.78191335833333,68.0,127.0
160,100.92707465833332,101.07021982916666,70.0,127.0
161,101.16901015833332,101.36860694583333,68.0,127.0
162,101.41094565833333,101.54804244166667,66.0,122.0
163,101.65288115833333,101.76175213333333,63.0,122.0
164,101.89481665833333,102.19521990416666,61.0,127.0
165,102.13675215833332,102.2294941,60.0,117.0
166,102.37868765833332,102.48755863333332,61.0,127.0
167,102.62062315833333,102.72142961666665,60.0,112.0
168,102.86255865833333,103.02183286249999,61.0,127.0
169,103.58836515833333,103.68917161666666,73.0,127.0
170,103.83030065833333,104.27586520416666,68.0,117.0
171,104.31417165833332,105.08836525833333,70.0,127.0
172,105.28191365833334,105.38675237499999,68.0,127.0
173,105.52384915833332,105.6165911,70.0,117.0
174,105.76578465833333,106.07626855,71.0,112.0
175,106.24965565833332,106.34441372916666,70.0,127.0
176,106.49159115833334,106.80409117916666,71.0,127.0
177,107.21739765833333,107.39078476666666,70.0,122.0
178,107.45933315833332,107.64683317083333,71.0,92.0
179,107.70126865833333,108.02586545416666,73.0,122.0
180,108.18513965833333,108.28191385833333,66.0,112.0
181,108.42707515833334,108.69522033749999,66.0,127.0
182,108.91094615833333,109.00570422916667,61.0,117.0
183,109.15288165833333,109.24763972916666,61.0,122.0
184,109.39481715833332,109.48554297083334,61.0,112.0
185,109.63675265833334,109.96336558333333,63.0,127.0
186,110.12062365833333,110.23554302083332,66.0,127.0
187,110.36255915833333,110.71941402083333,66.0,112.0
188,111.57223665833334,111.94925281249999,70.0,127.0
189,112.05610765833333,112.14078508333333,68.0,122.0
190,112.29804315833333,112.79199480416666,66.0,127.0
191,112.78191415833334,113.30610774166666,65.0,112.0
192,113.50772065833333,115.15086592916666,66.0,117.0
193,124.52350140833333,124.6435801625,61.0,127.0
194,124.75972190833333,124.86995814166667,61.0,102.0
195,124.99594240833333,125.50775349166666,56.0,107.0
196,125.46838340833334,126.78334419166667,58.0,117.0
197,128.30302940833334,128.46247824583332,65.0,102.0
198,128.53924990833335,128.8246830125,66.0,112.0
199,129.01169090833332,129.26956495416667,61.0,117.0
200,129.48413190833332,131.5412187625,63.0,122.0
201,132.31877790833335,132.39554957083334,58.0,102.0
202,132.55499840833335,132.69673070833335,59.0,95.0
203,132.79121890833335,132.88570710833335,58.0,102.0
204,133.02743940833335,133.17310871666666,59.0,93.0
205,133.26365990833332,133.36995913333334,58.0,93.0
206,133.49988040833333,133.80696705833333,59.0,102.0
207,135.38964440833334,135.62980191666668,65.0,107.0
208,135.62586490833334,136.01562873333333,70.0,122.0
209,136.33452640833335,136.78728236666666,63.0,127.0
210,136.80696740833332,137.04318790833332,58.0,107.0
211,137.04318790833332,137.499880875,63.0,117.0
212,137.51562890833333,138.917203875,61.0,112.0
213,139.63826075,139.737870125,61.0,127.0
214,139.87263575,139.987870125,61.0,112.0
215,140.10701075,140.41951075,63.0,127.0
216,140.57576075,140.690995125,61.0,122.0
217,140.81013575,141.56013575,63.0,122.0
218,141.51326075,141.56013575,63.0,127.0
219,141.74763575,141.8687295,63.0,107.0
220,141.98201075,142.09919825,65.0,107.0
221,142.21638575,142.339432625,65.0,96.0
222,142.45076075,142.548417,63.0,107.0
223,142.68513575,143.069901375,65.0,117.0
224,143.38826075,143.48982325,61.0,117.0
225,143.62263575,143.718338875,61.0,107.0
226,143.85701075,144.249588875,70.0,117.0
227,144.32576075,144.472245125,68.0,96.0
228,144.79451075,145.026932625,66.0,127.0
229,145.02888575,145.57576075,65.0,122.0
230,145.73201075,146.284745125,63.0,127.0
231,146.20076075,147.126542,58.0,102.0
232,147.13826075,147.237870125,58.0,112.0
233,147.37263575,147.485917,58.0,97.0
234,147.60701075,148.085526375,59.0,112.0
235,148.07576075,148.282792,58.0,102.0
236,148.31013575,148.860917,59.0,100.0
237,148.77888575,149.08357325,61.0,102.0
238,149.24763575,149.6343545,63.0,122.0
239,149.95076075,150.126542,66.0,117.0
240,150.18513575,150.4156045,66.0,122.0
241,150.65388575,150.987870125,70.0,122.0
242,151.12263575,151.511307625,66.0,127.0
243,151.59138575,152.273026375,68.0,117.0
244,152.29451075,153.860062825,66.0,107.0
245,153.930156175,154.0352962,70.0,117.0
246,154.163800675,154.3370870125,71.0,127.0
247,154.397445175,154.5084263125,70.0,122.0
248,154.631089675,154.818005275,68.0,127.0
249,154.864734175,154.9679271625,66.0,107.0
250,155.098378675,155.6377080625,63.0,127.0
251,155.799312175,157.1194036,68.0,127.0
252,157.668468175,157.7638730125,68.0,122.0
253,157.902112675,158.01504085,70.0,117.0
254,158.135757175,158.2194797875,68.0,117.0
255,158.369401675,158.4998531875,66.0,127.0
256,158.603046175,158.7023450875,63.0,117.0
257,158.836690675,159.0917525875,61.0,122.0
258,159.070335175,159.0917525875,61.0,127.0
259,159.303979675,159.389649325,61.0,127.0
260,159.537624175,159.6427642,61.0,117.0
261,159.771268675,159.9289787125,61.0,122.0
262,160.004913175,160.2833395375,61.0,117.0
263,160.472202175,160.5987596125,58.0,102.0
264,160.705846675,160.8596626375,68.0,127.0
265,160.939491175,161.0738367625,66.0,107.0
266,161.173135675,161.7475117375,66.0,122.0
267,162.107713675,162.263476675,66.0,122.0
268,162.341358175,162.465968575,65.0,96.0
269,162.575002675,162.8670583,66.0,127.0
270,163.042291675,163.1532728125,59.0,112.0
271,163.275936175,163.73933110000002,59.0,102.0
272,163.976869675,164.085903775,66.0,127.0
273,164.21051417500001,164.3526479125,68.0,107.0
274,164.444158675,164.6992205875,66.0,127.0
275,164.911447675,165.0107465875,61.0,107.0
276,165.145092175,165.464406325,61.0,117.0
277,165.612381175,165.6863686,61.0,127.0
278,165.846025675,165.92780125000002,61.0,127.0
279,166.079670175,166.188704275,61.0,117.0
280,166.31331467500002,166.4982832375,63.0,127.0
281,166.546959175,166.757239225,66.0,117.0
282,167.014248175,167.1096530125,66.0,122.0
283,167.247892675,167.4951664375,70.0,127.0
284,167.481537175,167.7054464875,68.0,127.0
285,167.948826175,168.104589175,66.0,117.0
286,168.883404175,168.9885442,70.0,112.0
287,168.182470675,169.0021734625,68.0,127.0
288,169.117048675,169.3837928125,71.0,102.0
289,169.350693175,169.451939125,70.0,117.0
290,169.584337675,169.8004588375,68.0,127.0
291,169.817982175,169.9542748,66.0,102.0
292,170.051626675,170.38262305,63.0,127.0
293,170.51891567500002,170.7272486875,70.0,117.0
294,170.752560175,171.803960425,68.0,117.0
295,172.62171617500002,172.715173975,68.0,127.0
296,172.85536067500001,172.9936003375,70.0,127.0
297,173.089005175,173.2817618875,68.0,127.0
298,173.322649675,173.455048225,66.0,122.0
299,173.556294175,173.6614342,63.0,122.0
300,173.789938675,174.0800472625,61.0,127.0
301,174.023583175,174.1131469,60.0,117.0
302,174.257227675,174.3623677,61.0,127.0
303,174.490872175,174.58822405,60.0,112.0
304,174.72451667500002,174.8783326375,61.0,127.0
305,175.425450175,175.52280205,73.0,127.0
306,175.659094675,176.0893899625,68.0,117.0
307,176.126383675,176.874046075,70.0,127.0
308,177.060961675,177.162207625,68.0,127.0
309,177.294606175,177.38416990000002,70.0,117.0
310,177.528250675,177.82809445,71.0,112.0
311,177.995539675,178.0870504375,70.0,127.0
312,178.229184175,178.5309749875,71.0,127.0
313,178.930117675,179.0975629,70.0,122.0
314,179.163762175,179.3448366625,71.0,92.0
315,179.397406675,179.7108797125,73.0,122.0
316,179.864695675,179.95815347500002,66.0,112.0
317,180.098340175,180.3572961625,66.0,127.0
318,180.565629175,180.6571399375,61.0,117.0
319,180.799273675,180.8907844375,61.0,122.0
320,181.032918175,181.1205348625,61.0,112.0
321,181.266562675,181.58198275,63.0,127.0
322,181.733851675,181.8448328125,66.0,127.0
323,181.967496175,182.3121218125,66.0,112.0
324,183.135718675,183.4998146875,70.0,127.0
325,183.60300767500001,183.68478325,68.0,122.0
326,183.836652175,184.31367636250002,66.0,127.0
327,184.303941175,184.810170925,65.0,112.0
328,185.004874675,186.5917102375,66.0,117.0
329,189.21313754583335,189.30326295,63.0,117.0
330,189.44824729583334,189.54033194791668,63.0,102.0
331,189.68335704583333,189.83030063958333,63.0,127.0
332,189.91846679583333,190.08500286875,65.0,97.0
333,190.15357654583335,190.25937593333333,66.0,112.0
334,190.62379604583333,190.88633526666666,65.0,127.0
335,191.09401554583334,191.18414095,65.0,127.0
336,191.32912529583334,191.4192507,65.0,96.0
337,191.56423504583333,191.75428209375,65.0,112.0
338,191.79934479583335,191.94628838958334,66.0,127.0
339,192.03445454583334,192.15396866875,68.0,122.0
340,192.50467404583333,192.90631986875002,70.0,127.0
341,193.68022279583334,193.94863976041668,73.0,127.0
342,194.15044229583333,194.28758965,70.0,122.0
343,194.38555204583335,195.68061491875,70.0,115.0
344,196.73664954583333,196.81697871041666,66.0,127.0
345,196.97175929583335,197.05208846041666,66.0,117.0
346,197.20686904583334,197.31266843333333,66.0,127.0
347,197.44197879583334,197.58892238958333,68.0,127.0
348,197.67708854583333,197.76329545416667,70.0,117.0
349,198.14730804583334,198.40005102708335,70.0,127.0
350,198.61752754583333,198.84675955208334,70.0,127.0
351,199.08774704583334,199.22881289583333,70.0,127.0
352,199.32285679583333,199.51486309166665,75.0,127.0
353,199.79307629583334,199.98508259166667,70.0,127.0
354,200.02818604583334,200.50036479375,70.0,127.0
355,200.73351529583334,202.53210488333335,68.0,127.0
356,202.61439329583334,202.72019268333332,70.0,117.0
357,202.84950304583333,203.02387611041667,71.0,127.0
358,203.08461279583332,203.19628992708334,70.0,122.0
359,203.31972254583334,203.55553433333336,68.0,127.0
360,203.61803433333336,203.75605516666667,66.0,107.0
361,203.93053433333336,204.64258790625001,63.0,127.0
362,204.80727045416668,206.16198123333334,68.0,127.0
363,206.73052965833335,206.8293199875,68.0,122.0
364,206.97246515833334,207.08940065000002,70.0,117.0
365,207.21440065833335,207.3010942125,68.0,117.0
366,207.45633615833336,207.59141681250003,66.0,127.0
367,207.69827165833334,207.80109424583335,63.0,117.0
368,207.94020715833335,208.20432007916668,61.0,122.0
369,208.18214265833336,208.20432007916668,61.0,127.0
370,208.42407815833334,208.5127878416667,61.0,127.0
371,208.66601365833336,208.77488463333336,61.0,117.0
372,208.90794915833334,209.07125562083334,61.0,122.0
373,209.14988465833335,209.43819112916668,61.0,117.0
374,209.63375565833334,209.7648040541667,58.0,102.0
375,209.87569115833335,210.0349653625,68.0,127.0
376,210.11762665833334,210.25673957083336,66.0,107.0
377,210.35956215833335,210.9543202625,66.0,122.0
378,211.32730415833336,211.48859449166667,66.0,122.0
379,211.56923965833334,211.69827192500003,65.0,96.0
380,211.81117515833336,212.11359453333336,66.0,127.0
381,212.29504615833335,212.40996552083334,59.0,112.0
382,212.53698165833336,213.01682040000003,59.0,102.0
383,213.26278815833334,213.3756913916667,66.0,127.0
384,213.50472365833335,213.65190108750002,68.0,107.0
385,213.74665915833336,214.01077207916668,66.0,127.0
386,214.23053015833335,214.33335274583334,61.0,107.0
387,214.47246565833336,214.8031108416667,61.0,117.0
388,214.95633665833336,215.03294956666667,61.0,127.0
389,215.19827215833334,215.28294958333333,61.0,127.0
390,215.44020765833335,215.55311089166668,61.0,117.0
391,215.68214315833336,215.8736754291667,63.0,127.0
392,215.92407865833334,216.14182060833335,66.0,117.0
393,216.40794965833334,216.50673998750003,66.0,122.0
394,216.64988515833335,216.90593356250002,70.0,127.0
395,216.89182065833336,217.12367551250003,73.0,127.0
396,217.37569165833335,217.5369819916667,70.0,117.0
397,217.61762715833333,218.25270784583336,68.0,127.0
398,218.34343365833334,218.45230463333334,70.0,112.0
399,218.58536915833335,218.86157885416668,71.0,102.0
400,218.82730465833336,218.932143375,70.0,117.0
401,219.06924015833334,219.29303049583336,68.0,127.0
402,219.31117565833335,219.4523047,66.0,102.0
403,219.55311115833334,219.89585311666667,63.0,127.0
404,220.03698215833336,220.94827254166668,75.0,127.0
405,221.24665965833336,221.8716597,73.0,127.0
406,222.21440165833334,222.31117585833334,68.0,127.0
407,222.45633715833335,222.59948232916668,70.0,127.0
408,222.69827265833334,222.89786944583335,68.0,127.0
409,222.94020815833335,223.07730494166668,66.0,122.0
410,223.18214365833336,223.29101463333336,63.0,122.0
411,223.42407915833334,223.72448240416668,61.0,127.0
412,223.66601465833335,223.75875660000003,60.0,117.0
413,223.90795015833334,224.01682113333334,61.0,127.0
414,224.14988565833335,224.2506921166667,60.0,112.0
415,224.39182115833336,224.5510953625,61.0,127.0
416,225.11762765833336,225.21843411666669,73.0,127.0
417,225.35956315833334,225.8051277041667,68.0,117.0
418,225.84343415833334,228.26278915833336,70.0,127.0
419,228.74666015833336,228.851498875,68.0,127.0
420,228.98859565833334,229.0813376,70.0,117.0
421,229.23053115833335,229.54101505000003,71.0,112.0
422,229.71440215833334,229.80916022916668,70.0,127.0
423,229.95633765833335,230.2688376791667,71.0,127.0
424,230.68214415833336,230.85553126666667,70.0,122.0
425,230.92407965833334,231.11157967083335,71.0,92.0
426,231.16601515833335,231.4906119541667,73.0,122.0
427,231.64988615833335,231.74666035833334,66.0,112.0
428,231.89182165833336,232.1599668375,66.0,127.0
429,232.37569265833335,232.47045072916669,61.0,117.0
430,232.61762815833336,232.71238622916667,61.0,122.0
431,232.85956365833334,232.95028947083335,61.0,112.0
432,233.10149915833335,233.42811208333336,63.0,127.0
433,233.58537015833335,233.70028952083334,66.0,127.0
434,233.82730565833336,234.18416052083336,66.0,112.0
435,235.03698315833336,235.4139993125,70.0,127.0
436,235.52085415833335,235.60553158333335,68.0,122.0
437,235.76278965833336,236.2567413041667,66.0,127.0
438,236.24666065833335,236.77085424166668,65.0,112.0
439,236.97246715833336,238.61561242916667,73.0,117.0
440,238.90795115833333,240.92004806666668,72.0,127.0
441,240.84343515833336,241.81117715833335,71.0,127.0
442,242.05311265833336,242.28295138333334,73.0,107.0
443,242.29504815833334,242.79706432083336,68.0,102.0
444,242.77891915833334,245.29706448750002,70.0,122.0
