,start,end,pitch,velocity
0,5.036290658333334,5.161290666666667,56.0,55.0
1,4.7943551583333335,5.3286293875,52.0,69.0
2,5.036290658333334,5.836693937500001,59.0,67.0
3,4.310484158333334,6.163306862500001,40.0,79.0
4,4.552419658333333,6.3447584875,47.0,58.0
5,5.5201616583333335,6.4778230125,52.0,54.0
6,6.004032658333333,6.772177870833334,59.0,69.0
7,5.036290658333334,6.836694004166667,63.0,69.0
8,5.762097158333334,6.8447585208333335,56.0,61.0
9,6.9717746583333335,7.066532729166667,56.0,40.0
10,6.729839158333333,7.322581133333333,52.0,73.0
11,7.455645658333333,7.7358876125,52.0,46.0
12,6.9717746583333335,7.804436004166667,59.0,72.0
13,7.939516658333334,8.060484408333334,59.0,33.0
14,6.2459681583333335,8.149194091666667,40.0,66.0
15,6.487903658333334,8.157258608333334,47.0,50.0
16,6.9717746583333335,8.1774199,63.0,68.0
17,7.697581158333334,8.187500545833334,56.0,69.0
18,8.665323158333333,9.1028231875,51.0,81.0
19,8.907258658333333,9.441532887500001,54.0,82.0
20,8.907258658333333,9.733871616666667,58.0,63.0
21,8.907258658333333,10.153226483333334,63.0,71.0
22,8.423387658333334,10.163307129166666,46.0,34.0
23,9.391129658333334,10.193549066666668,51.0,55.0
24,9.633065158333334,10.195565195833334,54.0,76.0
25,8.181452158333334,10.199597454166668,39.0,88.0
26,10.600807158333334,11.1350813875,56.0,68.0
27,13.380612333333334,13.471758166666666,47.0,62.0
28,10.842742658333334,13.635820666666666,63.0,69.0
29,11.326613658333335,13.659258166666666,56.0,31.0
30,10.842742658333334,13.6644665,68.0,63.0
31,13.380612333333334,13.6644665,68.0,90.0
32,10.358871658333333,13.672279,51.0,54.0
33,10.842742658333334,13.6800915,60.0,62.0
34,10.116936158333333,13.700924833333334,44.0,74.0
35,13.380612333333334,14.018633166666666,64.0,86.0
36,13.380612333333334,14.044674833333334,40.0,69.0
37,13.380612333333334,14.044674833333334,59.0,93.0
38,13.380612333333334,14.077990195833333,52.0,79.0
39,14.532731241666667,14.96807575,66.0,99.0
40,14.532731241666667,14.972386091666666,70.0,97.0
41,14.532731241666667,14.976696433333332,54.0,54.0
42,14.532731241666667,15.0004033125,42.0,54.0
43,14.532731241666667,15.011179166666667,61.0,93.0
44,16.485767,16.651767,50.0,38.0
45,16.006116204166666,16.661766999999998,45.0,38.0
46,15.529925704166667,16.669767,62.0,100.0
47,15.529925704166667,16.673766999999998,57.0,102.0
48,15.529925704166667,16.679767,38.0,88.0
49,15.529925704166667,16.717767,66.0,100.0
50,17.445767,18.211830504166663,61.0,100.0
51,17.925767,18.664211479166664,49.0,67.0
52,17.445767,18.85667180625,65.0,92.0
53,17.445767,19.160243249999997,68.0,99.0
54,18.402306704166666,19.201909918749998,61.0,92.0
55,18.878497204166663,19.233655952083332,49.0,54.0
56,17.445767,20.652306816666663,37.0,99.0
57,19.354687704166665,20.92413222708333,49.0,56.0
58,19.354687704166665,21.021354454166662,65.0,69.0
59,19.354687704166665,21.03722747083333,68.0,63.0
60,19.354687704166665,21.184052875,61.0,63.0
61,22.211830704166665,22.307068804166665,61.0,30.0
62,21.735640204166664,23.517386324999997,54.0,42.0
63,22.211830704166665,23.80508475208333,70.0,93.0
64,23.164211704166664,24.07889428958333,66.0,58.0
65,22.688021204166663,24.197941914583332,61.0,59.0
66,21.259449704166663,24.26341810833333,42.0,92.0
67,23.640402204166662,24.53722764583333,54.0,48.0
68,24.592783204166665,25.001513383333332,66.0,58.0
69,24.116592704166663,25.009449891666662,70.0,122.0
70,25.545164204166664,26.38246583333333,54.0,53.0
71,26.02135470416666,28.06103734583333,59.0,67.0
72,26.497545204166663,28.104688141666664,54.0,38.0
73,28.164211954166664,28.31103735833333,54.0,55.0
74,25.068973704166666,28.368577043749998,47.0,71.0
75,26.735640454166663,28.783259604166666,66.0,72.0
76,28.402307204166664,28.890402466666664,59.0,59.0
77,27.926116704166663,28.916196118749998,63.0,102.0
78,29.354688204166663,30.00746601458333,56.0,45.0
79,29.830878704166665,30.116593004166663,63.0,112.0
80,30.068973954166665,30.148339037499998,56.0,52.0
81,29.830878704166665,30.16818030833333,59.0,83.0
82,28.878497704166662,30.225719993749998,44.0,107.0
83,31.25945020416666,31.892386743749995,49.0,66.0
84,31.497545454166662,32.003497860416665,61.0,66.0
85,30.783259704166664,32.04516452916666,37.0,85.0
86,31.973735954166663,32.23365660208333,49.0,61.0
87,32.211831204166664,32.69992646666667,65.0,63.0
88,31.735640704166663,32.7197677375,68.0,122.0
89,32.449926454166665,32.76540266041666,61.0,63.0
90,33.40230745416666,33.747545566666666,54.0,67.0
91,33.87849795416666,35.0173869,54.0,51.0
92,33.64040270416666,35.47770438333333,58.0,83.0
93,34.11659320416666,35.47770438333333,61.0,41.0
94,34.59278370416666,35.47770438333333,66.0,82.0
95,35.068974204166665,35.54913295833333,54.0,33.0
96,33.16421220416666,35.83087900416666,49.0,38.0
97,32.688021704166665,35.870561545833326,42.0,74.0
98,35.545164704166666,35.969767899999994,58.0,72.0
99,35.78325995416667,35.98762504375,54.0,62.0
100,35.545164704166666,35.99754567916666,61.0,107.0
101,35.545164704166666,36.16619648125,66.0,100.0
102,36.49754570416667,37.30508542708333,63.0,89.0
103,36.49754570416667,37.313021935416664,66.0,83.0
104,36.49754570416667,37.322942570833334,59.0,83.0
105,36.49754570416667,37.69397433541666,47.0,69.0
106,36.97373620416666,37.807069579166665,54.0,56.0
107,37.449926704166664,38.01341879583333,59.0,73.0
108,37.449926704166664,38.03921244791667,63.0,92.0
109,37.926117204166665,38.088815624999995,54.0,26.0
110,38.16421245416666,38.25151404583333,54.0,19.0
111,37.449926704166664,38.334847383333326,66.0,79.0
112,38.87849820416666,39.30905378125,59.0,73.0
113,38.64040295416666,39.586831572916665,54.0,63.0
114,39.59278395416666,39.9816728625,54.0,64.0
115,38.40230770416666,40.04714905624999,47.0,83.0
116,39.11659345416666,40.26937128958333,63.0,70.0
117,39.11659345416666,40.28524430624999,70.0,53.0
118,39.83087920416666,40.299133195833335,59.0,85.0
119,39.11659345416666,40.31103795833333,66.0,66.0
120,40.545164954166665,41.430085633333334,53.0,64.0
121,40.783260204166666,41.57889516458333,58.0,57.0
122,41.02135545416667,41.83286343125,61.0,75.0
123,41.49754595416667,42.12056185833333,53.0,58.0
124,41.73564120416667,42.17016503541666,58.0,55.0
125,41.25945070416667,42.17016503541666,65.0,69.0
126,41.97373645416666,42.180085670833336,61.0,65.0
127,40.307069704166665,42.19992694166666,46.0,82.0
128,42.21183170416666,43.07889523958333,39.0,69.0
129,42.44992695416666,43.35072065,46.0,63.0
130,42.688022204166664,43.660244475,51.0,42.0
131,43.164212704166665,44.04318100208333,58.0,112.0
132,43.64040320416666,44.06103814583333,55.0,83.0
133,43.164212704166665,44.074927035416664,63.0,99.0
134,44.35468895416666,45.07492708541666,56.0,72.0
135,45.307069954166664,45.461831866666664,56.0,54.0
136,44.11659370416666,45.54913345833333,44.0,82.0
137,44.59278420416666,45.58286361875,59.0,72.0
138,44.83087945416666,45.89635569791666,68.0,107.0
139,45.783260454166665,45.91421284166667,59.0,64.0
140,45.545165204166665,45.938022366666665,63.0,90.0
141,46.021355704166666,46.1245303125,59.0,72.0
142,46.021355704166666,46.303101749999996,62.0,92.0
143,46.021355704166666,46.541197,66.0,107.0
144,46.49754620416667,46.94794305208333,59.0,78.0
145,46.25945095416667,47.116593854166666,54.0,82.0
146,47.21183195416666,47.40230815416666,54.0,60.0
147,46.021355704166666,47.479689110416665,47.0,82.0
148,47.44992720416666,47.94199072083333,62.0,100.0
149,47.68802245416666,47.94992722916666,59.0,79.0
150,46.73564145416667,47.95984786458333,66.0,122.0
151,48.164212954166665,48.86460981458333,49.0,52.0
152,48.402308204166665,49.03524474375,53.0,63.0
153,48.64040345416666,49.40826063541667,56.0,97.0
154,47.926117704166664,49.65032413958333,37.0,96.0
155,49.11659395416666,51.19091149999999,49.0,57.0
156,49.35468920416666,51.61491149999999,53.0,68.0
157,49.83087970416666,51.63291149999999,56.0,95.0
158,49.83087970416666,51.646911499999995,37.0,81.0
159,49.83087970416666,51.658911499999995,61.0,93.0
160,51.98291149999999,52.58091149999999,54.0,89.0
161,52.222911499999995,53.0149115,58.0,71.0
162,51.74291149999999,53.454911499999994,42.0,95.0
163,52.70291149999999,53.6489115,54.0,53.0
164,52.4629115,54.14491149999999,66.0,102.0
165,53.4229115,54.146911499999995,58.0,42.0
166,53.182911499999996,54.512911499999994,61.0,69.0
167,54.1429115,54.66291149999999,54.0,71.0
168,53.66291149999999,54.932911499999996,42.0,81.0
169,54.862911499999996,55.14491149999999,54.0,90.0
170,55.10291149999999,55.548911499999996,61.0,71.0
171,55.34291149999999,55.55291149999999,58.0,71.0
172,54.622911499999994,55.640911499999994,66.0,117.0
173,56.06291149999999,56.6729115,54.0,39.0
174,55.582911499999994,57.372911499999994,47.0,72.0
175,56.7829115,57.448911499999994,54.0,52.0
176,57.262911499999994,57.570911499999994,59.0,74.0
177,57.02291149999999,57.59891149999999,63.0,65.0
178,56.542911499999995,57.624911499999996,66.0,122.0
179,57.98291149999999,58.51691149999999,59.0,63.0
180,57.74291149999999,58.73291149999999,54.0,43.0
181,57.502911499999996,58.814911499999994,47.0,59.0
182,58.942911499999994,59.438911499999996,63.0,97.0
183,58.4629115,59.45891149999999,66.0,127.0
184,59.182911499999996,59.47691149999999,59.0,65.0
185,59.902911499999995,60.5789115,56.0,83.0
186,59.4229115,60.826911499999994,44.0,100.0
187,60.38291149999999,61.27291149999999,63.0,122.0
188,60.862911499999996,61.34891149999999,59.0,93.0
189,61.34291149999999,62.774911499999995,37.0,99.0
190,61.8229115,62.93091149999999,49.0,62.0
191,62.7829115,63.22691149999999,53.0,72.0
192,62.30291149999999,63.22691149999999,56.0,107.0
193,63.74291149999999,64.3029115,54.0,82.0
194,64.2229115,64.7649115,61.0,122.0
195,63.262911499999994,65.0469115,42.0,96.0
196,64.9429115,65.1049115,54.0,20.0
197,64.2229115,65.8149115,66.0,122.0
198,64.7029115,65.87091149999999,58.0,68.0
199,65.66291149999999,66.2229115,54.0,97.0
200,65.18291149999999,66.4649115,42.0,112.0
201,66.38291149999999,66.6229115,54.0,100.0
202,66.8629115,67.0309115,58.0,96.0
203,66.6229115,67.0309115,61.0,112.0
204,66.1429115,67.0949115,66.0,127.0
205,67.82291149999999,68.14491149999999,59.0,86.0
206,67.5829115,68.18291149999999,54.0,74.0
207,68.3029115,68.6549115,54.0,66.0
208,68.5429115,68.7709115,63.0,100.0
209,67.10291149999999,68.8369115,47.0,88.0
210,68.0629115,68.9609115,66.0,122.0
211,69.02291149999999,69.6549115,70.0,100.0
212,69.02291149999999,69.85891149999999,59.0,92.0
213,69.02291149999999,69.85891149999999,63.0,92.0
214,69.02291149999999,69.90091149999999,66.0,81.0
215,69.5029115,70.3029115,54.0,48.0
216,69.02291149999999,70.8089115,47.0,74.0
217,70.46291149999999,70.8689115,59.0,99.0
218,69.9829115,70.8749115,63.0,127.0
219,69.9829115,70.89691149999999,66.0,102.0
220,69.9829115,70.89691149999999,70.0,99.0
221,70.9429115,71.02291149999999,65.0,107.0
222,70.9429115,71.1489115,37.0,95.0
223,70.9429115,71.2169115,68.0,102.0
224,70.9429115,71.27291149999999,61.0,100.0
225,71.90291149999999,72.25491149999999,58.0,127.0
226,71.90291149999999,72.2689115,46.0,117.0
227,71.90291149999999,72.2709115,62.0,102.0
228,71.90291149999999,72.29091149999999,65.0,93.0
229,72.8629115,73.41094379166665,70.0,99.0
230,72.8629115,73.67304058333333,63.0,102.0
231,72.8629115,73.67707284166666,66.0,127.0
232,72.8629115,74.19723416666666,39.0,97.0
233,73.34642765833333,74.26779868749999,51.0,93.0
234,73.83029865833332,74.70126645833332,70.0,127.0
235,74.31416965833333,74.73150839583333,66.0,122.0
236,75.28191165833333,75.85046008333333,56.0,83.0
237,74.79804065833332,76.08029880833332,44.0,100.0
238,75.76578265833332,76.717395625,63.0,127.0
239,76.24965365833333,76.73352465833332,59.0,96.0
240,76.73352465833332,77.97546022499999,37.0,107.0
241,77.21739565833333,78.2355408875,49.0,92.0
242,77.70126665833332,78.73352479166665,68.0,127.0
243,78.18513765833333,78.8101377,61.0,85.0
244,79.15287965833332,81.87868629166665,49.0,67.0
245,78.66900865833333,81.88271854999999,42.0,90.0
246,79.63675065833333,81.9855411375,54.0,95.0
247,80.60449265833333,82.0460250125,61.0,97.0
248,80.60449265833333,82.0520734,66.0,100.0
249,80.12062165833332,82.06417017499999,58.0,92.0
250,83.02384765833332,83.57425092083332,47.0,97.0
251,83.26578315833332,83.74562189999999,59.0,88.0
252,82.53997665833333,83.80207351666667,35.0,88.0
253,82.78191215833333,83.83433158333332,42.0,85.0
254,83.74965415833333,83.93513804166666,47.0,99.0
255,83.50771865833333,84.46941227083333,66.0,127.0
256,83.99158965833333,84.4895735625,63.0,112.0
257,84.23352515833332,84.50570259583333,59.0,99.0
258,84.95933165833333,85.52788008333333,49.0,96.0
259,85.20126715833332,85.56013815,53.0,90.0
260,84.71739615833333,85.81417042499999,44.0,66.0
261,84.47546065833333,85.82626719999999,37.0,83.0
262,85.68513815833333,85.99562205,49.0,97.0
263,85.44320265833332,85.99562205,56.0,127.0
264,85.92707365833333,86.298041425,53.0,96.0
265,86.16900915833332,86.4069124,56.0,127.0
266,87.13675115833333,87.33836407499999,61.0,89.0
267,86.89481565833333,87.44118666249999,58.0,112.0
268,86.65288015833333,87.64884796666666,53.0,70.0
269,87.62062215833333,87.77788023333332,58.0,95.0
270,86.41094465833332,87.78997700833332,46.0,86.0
271,87.37868665833332,87.96336411666667,65.0,122.0
272,87.86255765833333,88.24763832916666,61.0,102.0
273,88.10449315833333,88.41497704999999,65.0,89.0
274,88.83029965833333,89.40892872916666,51.0,92.0
275,89.07223515833333,89.55409002916666,54.0,96.0
276,88.58836415833332,89.68513842499999,46.0,63.0
277,88.34642865833332,89.71336423333332,39.0,77.0
278,89.55610615833334,89.79199327083333,51.0,93.0
279,89.79804165833332,90.12667071249999,58.0,68.0
280,89.31417065833332,90.1750578125,63.0,112.0
281,90.03997715833333,90.22344491249999,54.0,99.0
282,90.76578365833333,91.29400949999999,56.0,96.0
283,90.52384815833332,91.55207403333333,51.0,34.0
284,90.28191265833333,91.59642887499999,44.0,92.0
285,91.49159015833332,91.65691274999999,56.0,95.0
286,91.00771915833333,91.66296113749999,59.0,82.0
287,91.73352565833332,92.1831224625,63.0,102.0
288,91.97546115833333,92.18917085,59.0,95.0
289,91.24965465833333,92.21739665833333,68.0,117.0
290,92.94320315833332,93.144816075,61.0,100.0
291,92.70126765833332,93.27384834166666,58.0,100.0
292,93.18513865833333,93.72747740416666,65.0,89.0
293,93.42707415833333,93.8524774125,58.0,99.0
294,93.66900965833332,93.94118709583333,61.0,107.0
295,92.45933215833332,93.95731612916666,53.0,73.0
296,92.21739665833333,94.01175161666666,46.0,97.0
297,93.91094515833333,94.2274774375,65.0,100.0
298,94.39481615833333,94.7718323125,59.0,107.0
299,94.15288065833333,95.03594523333332,47.0,107.0
300,94.63675165833332,95.05610652499999,66.0,127.0
301,94.87868715833332,95.11054201249999,63.0,122.0
302,95.12062265833333,95.55207429999999,48.0,100.0
303,95.12062265833333,95.67707430833333,60.0,117.0
304,95.60449365833333,96.06215497916666,63.0,127.0
305,95.84642915833332,96.10046143333332,60.0,99.0
306,96.79602599583333,97.10247762916666,49.0,85.0
307,96.096429175,97.27183247916666,37.0,94.0
308,97.0460260125,97.32626796666666,56.0,108.0
309,97.0460260125,97.39280022916665,65.0,95.0
310,97.0460260125,97.47142926666666,61.0,90.0
311,97.53392927083333,97.572235725,37.0,85.0
312,97.28392925416667,97.58433249999999,49.0,79.0
313,98.02989704583332,98.38675190833332,59.0,71.0
314,98.02989704583332,98.3887680375,54.0,67.0
315,98.0258647875,98.40288094166667,71.0,73.0
316,98.0137680125,98.40489707083333,66.0,68.0
317,98.02183252916666,98.41296158749999,63.0,72.0
318,98.04602607916667,98.63271966666666,47.0,63.0
319,98.50771965833333,98.74360677083332,71.0,47.0
320,98.49965514166666,98.75167128749999,59.0,38.0
321,98.49965514166666,98.75570354583333,63.0,63.0
322,98.4855422375,98.76376806249999,66.0,62.0
323,99.00973582083333,99.12062292499999,47.0,77.0
324,99.01376807916665,99.2960261625,59.0,75.0
325,99.01376807916665,99.2960261625,71.0,76.0
326,99.00368743333333,99.3262681,63.0,67.0
327,98.99763904583332,99.32828422916666,66.0,64.0
328,99.26780035416667,99.52586488749999,47.0,53.0
329,99.49159069166666,99.54602617916666,59.0,81.0
330,99.51376811249999,99.56215521249999,63.0,74.0
331,99.50771972499999,99.56417134166666,66.0,75.0
332,99.49763907916666,99.57828424583333,71.0,79.0
333,99.01981646666667,99.61255844166666,35.0,79.0
334,99.95933265833332,100.34642945833332,73.0,82.0
335,99.95126814166666,100.37062300833333,61.0,80.0
336,99.97546169166665,100.37465526666666,65.0,66.0
337,99.96336491666666,100.37667139583333,68.0,79.0
338,100.44320365833333,100.61054237916666,73.0,71.0
339,100.44118752916665,100.62465528333333,61.0,65.0
340,99.95126814166666,100.63473592916665,49.0,75.0
341,100.44925204583333,100.64078431666667,65.0,60.0
342,100.44723591666666,100.67102625416666,68.0,66.0
343,100.69320367499999,101.00368756666666,49.0,81.0
344,100.94118756249999,101.18917144999999,73.0,101.0
345,100.93715530416667,101.21538112916666,61.0,104.0
346,100.94521982083333,101.22546177499999,65.0,76.0
347,100.94521982083333,101.23957467916667,68.0,84.0
348,99.95933265833332,101.32626823333332,37.0,85.0
349,101.39078436666667,101.44320372499999,37.0,84.0
350,101.15086499583333,101.45328437083333,49.0,75.0
351,101.91901020833333,102.12868764166666,66.0,56.0
352,101.90691343333333,102.13675215833332,70.0,76.0
353,101.927074725,102.16699409583333,63.0,51.0
354,101.89683278749999,102.58836509166666,46.0,95.0
355,102.61457477083333,102.89280059583334,70.0,99.0
356,102.61457477083333,102.92304253333333,58.0,104.0
357,102.62062315833333,102.92304253333333,65.0,78.0
358,102.61457477083333,102.943203825,61.0,88.0
359,102.86659091666667,103.18312319583333,46.0,95.0
360,101.89481665833333,103.31417159166666,34.0,92.0
361,103.09038125416666,103.35046191666666,70.0,92.0
362,103.09844577083332,103.36860707916667,65.0,79.0
363,103.09038125416666,103.39280062916666,58.0,102.0
364,103.09239738333332,103.41094579166666,61.0,79.0
365,103.53796192916666,103.58030064166667,34.0,90.0
366,103.33231675416667,103.58433289999999,46.0,87.0
367,103.82223614166666,104.11255874166666,63.0,85.0
368,103.82022001249999,104.11860712916666,55.0,88.0
369,103.82626839999999,104.13876842083333,58.0,75.0
370,103.814171625,104.43513940833333,51.0,99.0
371,104.30812327083333,104.50772005833332,63.0,87.0
372,104.3040910125,104.62465555,55.0,100.0
373,104.31215552916666,104.63675232499999,58.0,92.0
374,104.58634909583333,104.87667169583332,51.0,92.0
375,103.82022001249999,105.06215557916667,39.0,94.0
376,104.78191362499999,105.08634912916666,55.0,108.0
377,104.806107175,105.13675235833333,58.0,79.0
378,104.78191362499999,105.18917171666666,63.0,106.0
379,105.02788138333332,105.31618785416666,51.0,90.0
380,105.28997817499999,105.39481689166666,39.0,88.0
381,105.51175238333333,105.55409109583333,37.0,90.0
382,105.50772012499999,105.55409109583333,49.0,90.0
383,105.76578465833333,106.16699436249999,56.0,97.0
384,105.76578465833333,106.16901049166665,63.0,95.0
385,105.822236275,106.17102662083333,59.0,41.0
386,105.76175239999999,106.5843331,44.0,92.0
387,106.48957502916666,107.03997829166667,56.0,110.0
388,106.49562341666666,107.04401055,63.0,104.0
389,106.49763954583332,107.05207506666666,59.0,95.0
390,105.76175239999999,107.22949443333333,32.0,99.0
391,107.22142991666666,107.38070412083333,56.0,91.0
392,107.22546217499999,107.42102670416666,59.0,80.0
393,107.22142991666666,107.46336541666666,63.0,92.0
394,106.98151054583333,107.491591225,44.0,97.0
395,107.43312347916665,107.53997832499999,32.0,100.0
396,107.70530091666666,108.07425255416666,65.0,86.0
397,107.70530091666666,108.08030094166666,58.0,97.0
398,107.70530091666666,108.08836545833333,61.0,85.0
399,107.709333175,108.74159130833333,46.0,102.0
400,108.40288160833333,108.93513970833334,58.0,88.0
401,108.39683322083333,108.94320422499999,65.0,84.0
402,108.40288160833333,108.95731712916665,61.0,81.0
403,107.70530091666666,109.17505907916666,34.0,94.0
404,109.13876875416666,109.31013973333333,58.0,100.0
405,109.13876875416666,109.34239779999999,65.0,92.0
406,109.13876875416666,109.36659135,61.0,84.0
407,108.894817125,109.39481715833332,46.0,108.0
408,109.34038167083332,109.40691393333333,34.0,91.0
409,109.61457523749999,109.87868815833332,59.0,79.0
410,109.60651072083333,109.87868815833332,63.0,99.0
411,109.60046233333333,109.88272041666666,54.0,102.0
412,109.97344622916665,110.1347365625,54.0,84.0
413,109.9774784875,110.14280107916666,63.0,74.0
414,109.98151074583333,110.15691398333333,59.0,75.0
415,109.60651072083333,110.35046238333334,47.0,97.0
416,109.61054297916667,110.44118819583332,35.0,96.0
417,110.32223657499999,110.68917208333332,54.0,97.0
418,110.33433335,110.69522047083333,59.0,84.0
419,110.32223657499999,110.6972366,63.0,92.0
420,110.5581236875,110.85449467499998,35.0,20.0
421,110.588365625,111.12868824166665,47.0,100.0
422,110.84441402916667,111.144817275,54.0,97.0
423,110.84441402916667,111.1629624375,59.0,75.0
424,110.83433338333333,111.18513985833333,63.0,87.0
425,111.06820436666666,111.35247857916667,35.0,103.0
426,111.29401083333332,111.38473664583333,47.0,100.0
427,111.5621560125,111.82022054583334,65.0,92.0
428,111.55812375416666,111.84038183749999,56.0,104.0
429,111.5621560125,111.85651087083332,61.0,91.0
430,112.06013991666666,112.21336573333332,56.0,81.0
431,112.06013991666666,112.2153818625,66.0,94.0
432,112.064172175,112.23554315416666,61.0,67.0
433,111.55409149583332,112.50570446249999,49.0,92.0
434,112.30005928749999,112.61054317916665,61.0,72.0
435,112.30207541666667,112.65489802083333,56.0,97.0
436,112.30207541666667,112.66094640833333,68.0,91.0
437,111.5621560125,112.9048980375,37.0,90.0
438,112.77384964166666,113.06618837083333,56.0,94.0
439,112.7839302875,113.09239804999999,61.0,79.0
440,112.58634962916666,113.0984464375,49.0,80.0
441,113.06215611249999,113.10247869583333,37.0,80.0
442,112.77989802916666,113.1105432125,65.0,87.0
443,113.99159165833333,114.54602717916666,54.0,93.0
444,113.74965615833332,114.56215621249999,49.0,56.0
445,113.50772065833333,114.66094654166666,42.0,69.0
446,114.23352715833333,115.07828527916666,58.0,99.0
447,115.20126915833333,115.3605433625,58.0,54.0
448,114.95933365833332,115.39280142916667,63.0,107.0
449,115.92707565833334,116.59643054166666,46.0,51.0
450,115.44320465833333,116.64078538333334,39.0,90.0
451,116.41094665833333,116.73151119583332,51.0,53.0
452,116.89481765833332,117.15691444999999,54.0,69.0
453,116.41094665833333,117.29804349166666,63.0,78.0
454,117.86255965833332,118.47949518333333,54.0,62.0
455,117.37868865833333,118.58433389999999,47.0,76.0
456,118.34643065833333,119.23151136249999,66.0,117.0
457,118.83030165833333,119.23957587916667,63.0,79.0
458,119.79804365833333,120.3620836,49.0,72.0
459,119.31417265833332,120.65342221666667,37.0,117.0
460,120.50775290833333,120.6750757625,49.0,99.0
461,120.27153240833333,121.14948526666667,56.0,127.0
462,120.27153240833333,121.1711388125,61.0,122.0
463,120.74397340833333,121.177044325,53.0,97.0
464,121.45263490833334,121.99987906666667,54.0,73.0
465,121.21641440833334,122.05893419166667,47.0,88.0
466,121.68885540833334,122.0805877375,59.0,85.0
467,122.16129640833333,122.2459420875,62.0,127.0
468,121.92507590833334,122.24987909583334,66.0,122.0
469,122.63373740833333,124.62586362500001,49.0,74.0
470,122.63373740833333,124.69869827916666,61.0,112.0
471,122.63373740833333,124.71641481666667,65.0,107.0
472,122.63373740833333,124.75775340416666,68.0,99.0
473,122.63373740833333,124.7735014375,37.0,71.0
474,125.23216290833334,125.82074565416667,54.0,89.0
475,125.46838340833334,126.24791105833333,58.0,71.0
476,124.99594240833333,126.68098197500001,42.0,95.0
477,125.94082440833334,126.87192687916667,54.0,53.0
478,125.70460390833334,127.3601159125,66.0,102.0
479,126.64948590833333,127.36208441666668,58.0,42.0
480,126.41326540833333,127.72232067916667,61.0,69.0
481,127.35814740833334,127.86995849166667,54.0,71.0
482,126.88570640833333,128.13570655416666,42.0,81.0
483,128.06680890833334,128.34436799583332,54.0,90.0
484,128.30302940833334,128.74200583750002,61.0,71.0
485,128.53924990833335,128.74594284583333,58.0,71.0
486,127.83058840833334,128.83255702916668,66.0,117.0
487,129.24791140833332,129.84830517916666,54.0,39.0
488,128.77547040833335,130.5372816375,47.0,72.0
489,129.95657290833333,130.61208479583334,54.0,52.0
490,130.42901390833333,130.73216355,59.0,74.0
491,130.19279340833333,130.75972260833333,63.0,65.0
492,129.72035240833333,130.78531316250002,66.0,122.0
493,131.13767540833334,131.66326602083333,59.0,63.0
494,130.90145490833333,131.87586447083333,54.0,43.0
495,130.66523440833333,131.95657314166667,47.0,59.0
496,132.08255740833334,132.57074644166667,63.0,97.0
497,131.61011640833334,132.59043148333333,66.0,127.0
498,132.31877790833335,132.60814802083334,59.0,65.0
499,133.02743940833335,133.69279381666666,56.0,83.0
500,132.55499840833335,133.93688833333334,44.0,100.0
501,133.49988040833333,134.37586476250002,63.0,122.0
502,133.97232140833333,134.45066792083333,59.0,93.0
503,134.44476240833333,135.85421139166667,37.0,99.0
504,134.91720340833334,136.00775471666668,49.0,62.0
505,135.86208540833334,136.29909333333333,53.0,72.0
506,135.38964440833334,136.29909333333333,56.0,107.0
507,136.80696740833332,137.358148575,54.0,82.0
508,137.27940840833332,137.8128730375,61.0,122.0
509,136.33452640833335,138.090432125,42.0,96.0
510,137.98806990833333,138.14751874583334,54.0,20.0
511,137.27940840833332,138.846337725,66.0,122.0
512,137.75184940833333,138.90145584166666,58.0,68.0
513,138.69673140833333,139.24763575,54.0,97.0
514,138.22429040833333,139.483963875,42.0,112.0
515,139.40388575,139.63826075,54.0,100.0
516,139.87263575,140.03669825,58.0,96.0
517,139.63826075,140.03669825,61.0,112.0
518,139.16917240833334,140.09919825,66.0,127.0
519,140.81013575,141.124588875,59.0,86.0
520,140.57576075,141.16169825,54.0,74.0
521,141.27888575,141.62263575,54.0,66.0
522,141.51326075,141.735917,63.0,100.0
523,140.10701075,141.800370125,47.0,88.0
524,141.04451075,141.921463875,66.0,122.0
525,141.98201075,142.59919825,70.0,100.0
526,141.98201075,142.798417,59.0,92.0
527,141.98201075,142.798417,63.0,92.0
528,141.98201075,142.839432625,66.0,81.0
529,142.45076075,143.23201075,54.0,48.0
530,141.98201075,143.726151375,47.0,74.0
531,143.38826075,143.784745125,59.0,99.0
532,142.91951075,143.7906045,63.0,127.0
533,142.91951075,143.812088875,66.0,102.0
534,142.91951075,143.812088875,70.0,99.0
535,143.85701075,143.93513575,65.0,107.0
536,143.85701075,144.058182625,37.0,95.0
537,143.85701075,144.124588875,68.0,102.0
538,143.85701075,144.179276375,61.0,100.0
539,144.79451075,145.13826075,58.0,127.0
540,144.79451075,145.151932625,46.0,117.0
541,144.79451075,145.15388575,62.0,102.0
542,144.79451075,145.173417,65.0,93.0
543,145.73201075,146.26326075,70.0,99.0
544,145.73201075,146.517167,63.0,102.0
545,145.73201075,146.52107325,66.0,127.0
546,145.73201075,147.0249795,39.0,97.0
547,146.20076075,147.093338875,51.0,93.0
548,146.66951075,147.51326075,70.0,127.0
549,147.13826075,147.542557625,66.0,122.0
550,148.07576075,148.626542,56.0,83.0
551,147.60701075,148.84919825,44.0,100.0
552,148.54451075,149.46638575,63.0,127.0
553,149.01326075,149.48201075,59.0,96.0
554,149.48201075,150.68513575,37.0,107.0
555,149.95076075,150.937088875,49.0,92.0
556,150.41951075,151.41951075,68.0,127.0
557,150.88826075,151.4937295,61.0,85.0
558,152.064042,152.3627909875,54.0,64.0
559,151.829667,152.5536006625,49.0,47.0
560,152.298417,152.7405162625,61.0,87.0
561,151.360917,152.7911392375,42.0,87.0
562,152.298417,152.7911392375,58.0,100.0
563,152.298417,152.7911392375,66.0,95.0
564,152.53218325,152.8359211,54.0,44.0
565,152.76582775,152.85928555,49.0,36.0
566,152.99947225,153.2623223125,68.0,103.0
567,152.99947225,153.2740045375,58.0,100.0
568,152.99947225,153.2973689875,61.0,91.0
569,152.99947225,153.5037549625,54.0,72.0
570,153.46676125,153.7023527875,70.0,95.0
571,153.46676125,153.766605025,61.0,68.0
572,153.46676125,153.8328043,58.0,88.0
573,153.93405025,154.2124766125,54.0,72.0
574,152.99947225,154.4149685125,42.0,69.0
575,154.16769475,154.4461211125,58.0,99.0
576,154.16769475,154.4539092625,61.0,88.0
577,154.16769475,154.4694855625,68.0,103.0
578,154.63498375,154.7576471125,58.0,97.0
579,154.63498375,154.7985349,61.0,92.0
580,154.63498375,154.8433167625,66.0,94.0
581,154.40133925,154.8511049125,54.0,88.0
582,154.86862825,154.9134101125,42.0,61.0
583,155.10227275,155.4118517125,59.0,76.0
584,155.10227275,155.42937505,63.0,75.0
585,155.10227275,155.6221317625,47.0,102.0
586,155.56956175,155.775947725,71.0,82.0
587,155.56956175,155.7973651375,63.0,55.0
588,155.56956175,155.7973651375,66.0,76.0
589,155.56956175,155.8012592125,59.0,91.0
590,155.80320625,156.1225204,47.0,97.0
591,156.03685075,156.1984548625,59.0,108.0
592,156.03685075,156.2023489375,71.0,108.0
593,156.03685075,156.2257133875,63.0,106.0
594,156.03685075,156.227660425,66.0,105.0
595,156.27049525,156.44572862500002,59.0,100.0
596,156.27049525,156.4515697375,71.0,99.0
597,156.27049525,156.4593578875,66.0,62.0
598,156.27049525,156.465199,63.0,57.0
599,156.50413975,156.5800742125,47.0,64.0
600,155.10227275,156.6034386625,35.0,103.0
601,156.73778425,156.776725,63.0,79.0
602,156.73778425,156.776725,66.0,80.0
603,156.73778425,156.78840722500001,59.0,97.0
604,156.73778425,156.7981424125,35.0,59.0
605,156.73778425,156.7981424125,47.0,59.0
606,156.73778425,156.8234539,71.0,87.0
607,156.97142875,157.17392065,65.0,75.0
608,156.97142875,157.17392065,73.0,95.0
609,156.97142875,157.177814725,68.0,86.0
610,156.97142875,157.18949695,61.0,100.0
611,157.20507325,157.364730325,65.0,63.0
612,157.20507325,157.3744655125,73.0,101.0
613,156.97142875,157.37641255,49.0,81.0
614,157.20507325,157.388094775,61.0,90.0
615,157.20507325,157.4017240375,68.0,73.0
616,157.67236225,157.9936234375,73.0,105.0
617,157.67236225,158.0091997375,61.0,104.0
618,157.67236225,158.0403523375,65.0,80.0
619,157.67236225,158.0715049375,68.0,78.0
620,156.97142875,158.0909753125,37.0,92.0
621,158.13965125000001,158.2428442375,37.0,94.0
622,157.90600675,158.4433891,49.0,102.0
623,158.37329575,158.4998531875,37.0,100.0
624,158.8503199375,159.0060829375,58.0,95.0
625,158.84837290000002,159.05865295,70.0,101.0
626,158.8581080875,159.0878585125,61.0,80.0
627,158.8581080875,159.24556855,46.0,106.0
628,159.19105150000001,159.3370793125,70.0,91.0
629,159.1929985375,159.3799141375,58.0,97.0
630,159.202733725,159.3838082125,65.0,73.0
631,159.18326335,159.4110667375,61.0,53.0
632,159.5278889875,159.802421275,70.0,92.0
633,159.5278889875,159.82189165,58.0,95.0
634,159.5434652875,159.8296798,65.0,73.0
635,159.5278889875,159.8549912875,61.0,59.0
636,158.8581080875,160.0458009625,34.0,104.0
637,160.0010191,160.1626232125,58.0,95.0
638,160.0010191,160.176252475,70.0,92.0
639,160.2599750875,160.2950217625,58.0,63.0
640,160.2502399,160.316439175,56.0,84.0
641,160.00880725,160.32033325,65.0,63.0
642,160.0010191,160.355379925,61.0,51.0
643,160.2443987875,160.4001617875,68.0,89.0
644,160.2346636,160.5247721875,34.0,79.0
645,159.77516275,160.5403484875,46.0,106.0
646,160.5014077375,160.557871825,61.0,20.0
647,160.4624669875,160.5831833125,58.0,88.0
648,160.4624669875,160.6026536875,70.0,89.0
649,160.705846675,160.8947093125,51.0,97.0
650,161.0426841625,161.09914825,63.0,45.0
651,161.0271078625,161.11472455,54.0,69.0
652,160.947279325,161.476873525,51.0,110.0
653,161.4184624,161.733882475,58.0,81.0
654,161.406780175,161.73777655,54.0,97.0
655,161.406780175,161.75335285,63.0,95.0
656,161.656000975,161.9422154875,51.0,92.0
657,161.9071688125,161.9577917875,58.0,81.0
658,160.7116877875,161.9811562375,39.0,94.0
659,162.014255875,162.1447073875,58.0,24.0
660,161.8993806625,162.1680718375,54.0,97.0
661,161.897433625,162.170018875,63.0,88.0
662,162.12718405,162.2576355625,51.0,91.0
663,162.3355170625,162.388087075,54.0,90.0
664,162.3433052125,162.473756725,61.0,87.0
665,162.6003141625,162.855376075,56.0,99.0
666,162.61004935,162.855376075,59.0,84.0
667,162.6003141625,162.855376075,63.0,94.0
668,162.941045725,163.10849095,56.0,81.0
669,162.9468868375,163.1182261375,59.0,76.0
670,162.941045725,163.1182261375,63.0,72.0
671,162.61004935,163.318771,44.0,97.0
672,163.3129298875,163.618614775,59.0,87.0
673,163.3090358125,163.63224403750002,63.0,85.0
674,163.3090358125,163.63808515,56.0,104.0
675,162.61004935,163.797742225,32.0,100.0
676,163.758801475,164.008022275,59.0,80.0
677,163.5504684625,164.0508571,44.0,106.0
678,163.7451722125,164.0528041375,56.0,87.0
679,163.7490662875,164.093691925,63.0,77.0
680,164.2046730625,164.2475078875,44.0,102.0
681,163.9827107875,164.280607525,32.0,90.0
682,164.4383175625,164.6330213125,58.0,102.0
683,164.4383175625,164.6524916875,61.0,90.0
684,164.4422116375,164.6524916875,65.0,89.0
685,164.4422116375,164.8978184125,46.0,102.0
686,164.7985195,164.9601236125,65.0,90.0
687,164.794625425,164.97764695,58.0,100.0
688,164.80630765,165.0107465875,61.0,84.0
689,165.1314629125,165.456618175,58.0,97.0
690,165.121727725,165.495558925,61.0,50.0
691,165.1353569875,165.495558925,65.0,80.0
692,165.38263075,165.69415675,46.0,99.0
693,164.4383175625,165.8732842,34.0,95.0
694,165.60069895,165.9180660625,65.0,76.0
695,165.5948578375,165.94921866250002,61.0,67.0
696,165.6084871,165.955059775,58.0,108.0
697,165.830449375,166.07772313750002,46.0,91.0
698,166.03683535,166.0894053625,34.0,77.0
699,166.30163245,166.4827069375,66.0,99.0
700,166.297738375,166.48854805,54.0,106.0
701,166.3094206,166.500230275,63.0,91.0
702,166.3094206,166.5138595375,59.0,88.0
703,166.6384699375,166.7981270125,66.0,99.0
704,166.632628825,166.8078622,54.0,99.0
705,166.6384699375,166.8078622,59.0,63.0
706,166.632628825,166.8137033125,63.0,61.0
707,166.3035794875,167.1252293125,47.0,90.0
708,167.014248175,167.372503075,66.0,107.0
709,167.01814225,167.3978145625,63.0,85.0
710,167.01814225,167.4133908625,54.0,108.0
711,167.0239833625,167.42312605,59.0,88.0
712,166.3094206,167.6898701875,35.0,95.0
713,167.738546125,167.78138095,59.0,83.0
714,167.722969825,167.81448058750001,54.0,110.0
715,167.722969825,167.8670506,66.0,109.0
716,167.7249168625,167.87483875,63.0,94.0
717,167.45427865,167.9897139625,47.0,110.0
718,167.95272025,167.9936080375,35.0,98.0
719,168.2077821625,168.4570029625,68.0,105.0
720,168.2077821625,168.564090025,56.0,108.0
721,168.2097292,168.6283422625,61.0,90.0
722,168.2097292,168.6556007875,49.0,104.0
723,168.2077821625,168.6750711625,65.0,93.0
724,168.8503045375,169.1618305375,49.0,97.0
725,169.1423601625,169.194930175,61.0,68.0
726,169.12094275,169.2475001875,68.0,105.0
727,169.1189957125,169.2552883375,56.0,110.0
728,169.1287309,169.3098053875,65.0,75.0
729,169.3448520625,169.4383098625,58.0,106.0
730,169.3798987375,169.4402569,61.0,20.0
731,169.342905025,169.4422039375,70.0,109.0
732,169.592125825,169.6485899125,68.0,91.0
733,168.21751735,169.6524839875,37.0,100.0
734,169.6583251,169.7070010375,66.0,34.0
735,169.5901787875,169.7108951125,56.0,102.0
736,169.8140881,169.8471877375,37.0,92.0
737,169.584337675,169.856922925,49.0,79.0
738,170.0808322375,170.24243635,59.0,97.0
739,170.0808322375,170.2677478375,71.0,92.0
740,170.0808322375,170.285271175,66.0,89.0
741,170.0808322375,170.28916525,63.0,91.0
742,170.4235108375,170.53838605,59.0,92.0
743,170.425457875,170.557856425,71.0,89.0
744,170.4235108375,170.56953865,66.0,64.0
745,170.417669725,170.573432725,63.0,63.0
746,170.0808322375,170.8284946375,47.0,87.0
747,170.78760685,171.103026925,59.0,104.0
748,170.783712775,171.11470915,66.0,94.0
749,170.783712775,171.1166561875,71.0,99.0
750,170.78760685,171.1244443375,63.0,91.0
751,170.0847263125,171.2101139875,35.0,85.0
752,171.235425475,171.39508255,59.0,99.0
753,171.2373725125,171.39702958750001,71.0,86.0
754,171.2373725125,171.4281821875,66.0,64.0
755,171.2315314,171.4320762625,63.0,68.0
756,171.46128182500001,171.508010725,35.0,96.0
757,171.0154102375,171.531375175,47.0,99.0
758,171.8993652625,172.11159235,61.0,100.0
759,171.8993652625,172.1174334625,73.0,101.0
760,171.9110474875,172.1291156875,65.0,76.0
761,171.905206375,172.131062725,68.0,86.0
762,171.8993652625,172.349130925,49.0,102.0
763,172.271249425,172.395859825,61.0,102.0
764,172.26735535,172.427012425,73.0,107.0
765,172.2751435,172.49321170000002,65.0,71.0
766,172.59445765,172.7443795375,49.0,90.0
767,172.59445765,172.808631775,75.0,97.0
768,172.6022458,172.8378373375,61.0,94.0
769,172.271249425,172.9040366125,68.0,82.0
770,172.62561025,172.925454025,65.0,25.0
771,171.8993652625,173.112369625,37.0,97.0
772,173.0831640625,173.1474163,68.0,51.0
773,173.0753759125,173.236980025,73.0,103.0
774,173.0753759125,173.2934441125,61.0,104.0
775,172.83589030000002,173.361590425,49.0,69.0
776,173.287603,173.377166725,37.0,94.0
777,173.7529449625,173.9554368625,70.0,101.0
778,173.754892,173.96517205,58.0,100.0
779,173.7607331125,173.9788013125,61.0,84.0
780,173.7607331125,173.99632465,65.0,79.0
781,173.754892,174.2708569375,46.0,99.0
782,174.124829125,174.30785065,58.0,99.0
783,174.1150939375,174.3175858375,70.0,99.0
784,174.109252825,174.3526325125,65.0,53.0
785,174.124829125,174.377944,61.0,59.0
786,174.46361365,174.755669275,70.0,105.0
787,174.4694547625,174.76735150000002,58.0,100.0
788,174.4694547625,174.83744485,65.0,56.0
789,174.459719575,174.8705444875,61.0,69.0
790,173.754892,175.000996,34.0,95.0
791,174.9698434,175.0340956375,61.0,56.0
792,174.96205525,175.11003010000002,56.0,76.0
793,174.9445319125,175.11781825,68.0,83.0
794,175.15091788750001,175.25800495000001,61.0,27.0
795,174.70309926250002,175.27358125,46.0,100.0
796,174.9542671,175.27358125,65.0,35.0
797,175.1626001125,175.277475325,34.0,85.0
798,175.38261535,175.4235031375,70.0,89.0
799,175.394297575,175.4351853625,58.0,87.0
800,175.9686736375,176.0115084625,55.0,85.0
801,175.970620675,176.0270847625,63.0,87.0
802,175.9959321625,176.0387669875,58.0,55.0
803,175.64741245,176.383392625,51.0,100.0
804,175.6552006,176.679342325,39.0,94.0
805,176.3386107625,176.7007597375,63.0,100.0
806,176.3386107625,176.780588275,55.0,100.0
807,176.3425048375,176.81563495,58.0,91.0
808,176.601460825,176.8759931125,51.0,102.0
809,176.81563495,176.9227220125,39.0,92.0
810,177.0590146375,177.099902425,55.0,85.0
811,177.06290871250002,177.10574353750002,58.0,72.0
812,177.0512264875,177.1661017,63.0,91.0
813,177.2848709875,177.3685936,65.0,66.0
814,177.5224095625,177.78136555,66.0,87.0
815,177.5301977125,177.7833125875,56.0,72.0
816,177.87482335,178.0948385875,66.0,82.0
817,177.8845585375,178.1065208125,56.0,87.0
818,177.5068332625,178.3031716,44.0,102.0
819,178.221396025,178.5893861125,56.0,90.0
820,178.221396025,178.6088564875,66.0,95.0
821,177.5068332625,178.6127505625,32.0,100.0
822,178.6945261375,178.9106473,56.0,81.0
823,178.90285915,178.9398528625,32.0,97.0
824,178.45504052500002,178.94958805,44.0,97.0
825,178.688685025,178.9787936125,66.0,80.0
826,179.3487307375,179.6174219125,58.0,100.0
827,179.3565188875,179.6174219125,61.0,85.0
828,179.350677775,179.646627475,65.0,90.0
829,179.3565188875,179.8783249375,46.0,92.0
830,179.7147737875,179.997094225,58.0,87.0
831,179.71282675,180.02045867500001,61.0,67.0
832,179.71282675,180.0535583125,65.0,89.0
833,180.08471091250001,180.448806925,58.0,92.0
834,180.08471091250001,180.4585421125,61.0,87.0
835,180.0924990625,180.4741184125,65.0,86.0
836,179.3565188875,180.6298814125,34.0,94.0
837,180.55394695,180.846002575,58.0,85.0
838,180.550052875,180.8518436875,61.0,67.0
839,180.55394695,180.8596318375,65.0,80.0
840,180.7817503375,180.8946785125,34.0,99.0
841,180.347560975,180.92193703750002,46.0,102.0
842,181.02123595,181.08354115,46.0,46.0
843,180.9920303875,181.11469375000001,34.0,63.0
844,181.2626686,181.5118894,66.0,92.0
845,181.266562675,181.523571625,59.0,102.0
846,181.266562675,181.5333068125,63.0,92.0
847,181.6053472,181.8234154,59.0,97.0
848,181.6053472,181.8370446625,66.0,75.0
849,181.6053472,181.8389917,63.0,90.0
850,181.2724037875,181.8565150375,71.0,99.0
851,181.9811254375,182.1057358375,63.0,91.0
852,181.9811254375,182.107682875,59.0,111.0
853,181.9811254375,182.11157695,66.0,97.0
854,181.97528432500002,182.131047325,71.0,90.0
855,181.282138975,182.3004395875,47.0,84.0
856,182.2128229,182.4600966625,59.0,108.0
857,182.2128229,182.46788481250002,66.0,83.0
858,182.2128229,182.473725925,71.0,100.0
859,182.2186640125,182.4795670375,63.0,90.0
860,181.282138975,182.520454825,35.0,89.0
861,182.559395575,182.715158575,59.0,108.0
862,182.55355446250002,182.715158575,71.0,102.0
863,182.559395575,182.71905265,63.0,94.0
864,182.559395575,182.71905265,66.0,89.0
865,182.8417160125,182.8806567625,35.0,95.0
866,182.8456100875,182.89039195,59.0,99.0
867,182.426997025,182.9001271375,47.0,95.0
868,182.847557125,182.9195975125,71.0,90.0
869,182.8456100875,182.925438625,66.0,71.0
870,182.8456100875,182.93712085,63.0,75.0
871,183.1143012625,183.213600175,37.0,100.0
872,183.1143012625,183.2233353625,65.0,82.0
873,183.1143012625,183.229176475,68.0,94.0
874,183.1143012625,183.23307055,73.0,103.0
875,183.1143012625,183.2350175875,61.0,102.0
876,183.1143012625,183.23891166250002,49.0,104.0
877,183.3479457625,183.40440985,65.0,64.0
878,183.3479457625,183.4297213375,49.0,84.0
879,183.3479457625,183.43556245,61.0,80.0
880,183.3479457625,183.43556245,68.0,56.0
881,183.3479457625,183.439456525,37.0,63.0
882,183.3479457625,183.4433506,73.0,80.0
883,183.58159026250001,184.04303815,65.0,71.0
884,183.58159026250001,184.0644555625,73.0,87.0
885,183.58159026250001,184.07419075,68.0,80.0
886,183.58159026250001,184.0917140875,61.0,102.0
887,183.58159026250001,184.35651118750002,49.0,111.0
888,183.58159026250001,184.545373825,37.0,88.0
889,184.2825237625,184.67777237500002,73.0,101.0
890,184.701136825,184.740077575,37.0,79.0
891,184.5161682625,184.7517598,49.0,88.0
892,184.2825237625,184.7673361,65.0,76.0
893,184.2825237625,184.771230175,61.0,97.0
894,184.2825237625,184.7731772125,68.0,83.0
895,185.0009806,185.043815425,30.0,84.0
896,185.0009806,185.0457624625,42.0,79.0
897,184.9873513375,185.3748118,66.0,91.0
898,184.989298375,185.3767588375,58.0,94.0
899,184.99319245,185.38454698750002,61.0,83.0
900,185.698020025,186.0893745625,58.0,94.0
901,185.698020025,186.09521567500002,66.0,95.0
902,185.698020025,186.11273901250001,61.0,85.0
903,186.1945145875,186.2646079375,66.0,43.0
904,186.1906205125,186.37364203750002,61.0,74.0
905,186.173097175,186.3814301875,68.0,95.0
906,185.7019141,186.42621205,54.0,84.0
907,186.1692031,186.4281590875,58.0,84.0
908,186.6150746875,186.8604014125,70.0,89.0
909,186.624809875,186.9324418,61.0,72.0
910,186.6150746875,186.9635944,58.0,90.0
911,187.0667873875,187.3685782,54.0,102.0
912,187.3043259625,187.3899956125,66.0,95.0
913,187.3004318875,187.4951356375,58.0,99.0
914,187.3043259625,187.512658975,61.0,84.0
915,185.7077552125,187.7910853375,42.0,71.0
916,187.773562,187.94100722500002,58.0,106.0
917,187.773562,187.95268945,68.0,103.0
918,187.773562,187.9702127875,61.0,90.0
919,188.0072065,188.050041325,42.0,99.0
920,187.5399175,188.0539354,54.0,104.0
921,188.2544802625,188.2973150875,58.0,102.0
922,188.2466921125,188.361567325,70.0,109.0
923,188.2466921125,188.36546140000002,61.0,72.0
924,188.7061929625,188.9623538125,59.0,100.0
925,188.71203407500002,188.96431306041666,63.0,90.0
926,188.7022988875,188.97215005208335,66.0,87.0
927,188.71203407500002,188.9858647875,71.0,95.0
928,189.07011244791667,189.28367047083333,63.0,67.0
929,189.07011244791667,189.28562971875002,66.0,67.0
930,189.07011244791667,189.28954821458333,59.0,91.0
931,189.07011244791667,189.30326295,71.0,83.0
932,188.719822225,189.53053570833333,47.0,91.0
933,189.46000278333335,189.98899972083333,59.0,108.0
934,189.46000278333335,189.98899972083333,71.0,108.0
935,189.46000278333335,189.99095896875,63.0,102.0
936,189.46000278333335,189.99487746458334,66.0,103.0
937,188.7178751875,190.21823172708335,35.0,95.0
938,190.1614135375,190.39064554375,66.0,92.0
939,190.1614135375,190.39456403958334,63.0,94.0
940,190.15161729791666,190.40631952708333,71.0,102.0
941,190.37105306458335,190.41219727083333,35.0,79.0
942,190.15161729791666,190.41611576666668,59.0,106.0
943,189.93218153125,190.44158598958333,47.0,102.0
944,190.60224431875,190.82755782916666,59.0,102.0
945,190.60616281458334,190.83735406875002,66.0,94.0
946,190.60028507083334,190.83735406875002,71.0,96.0
947,190.60616281458334,190.84127256458333,63.0,92.0
948,190.972542175,191.16454847083332,59.0,102.0
949,190.96862367916668,191.16454847083332,71.0,86.0
950,190.96666443125,191.18610019791666,63.0,83.0
951,190.972542175,191.19197794166666,66.0,78.0
952,190.61008131041666,191.395739725,47.0,99.0
953,191.29777732916668,191.81110028333333,71.0,99.0
954,191.29777732916668,191.81501877916668,59.0,106.0
955,191.29385883333333,191.81501877916668,66.0,67.0
956,191.29385883333333,191.82481501875,63.0,67.0
957,190.61008131041666,191.99722883541668,35.0,92.0
958,191.99722883541668,192.08539499166667,59.0,108.0
959,191.99722883541668,192.09910972708334,71.0,102.0
960,191.99722883541668,192.10498747083335,66.0,97.0
961,191.99722883541668,192.12849844583334,63.0,100.0
962,192.21078685833334,192.24409407291668,35.0,87.0
963,191.75820058958334,192.2538903125,47.0,104.0
964,192.4654890875,192.712354325,54.0,95.0
965,192.47136683125,192.712354325,66.0,89.0
966,192.48704081458334,192.71627282083332,63.0,77.0
967,192.48116307083333,192.7241098125,58.0,83.0
968,192.81619446458333,192.99448602500001,54.0,77.0
969,192.81227596875001,193.00036376875,66.0,56.0
970,192.82011296041668,193.0062415125,63.0,58.0
971,192.82011296041668,193.01016000833334,58.0,67.0
972,192.47528532708333,193.27465847708334,51.0,102.0
973,193.16494059375,193.6763043,66.0,103.0
974,193.182573825,193.68218204375,63.0,88.0
975,193.182573825,193.6880597875,58.0,92.0
976,193.16494059375,193.70373377083334,54.0,104.0
977,193.87418833958333,194.02505042916667,58.0,83.0
978,192.48116307083333,194.03484666875,39.0,102.0
979,193.86635134791666,194.0407244125,54.0,95.0
980,193.86635134791666,194.04464290833334,66.0,89.0
981,193.87810683541667,194.05052065208335,63.0,74.0
982,193.63516009375002,194.0524799,51.0,99.0
983,194.36204107083333,194.56580285416666,67.0,101.0
984,194.36204107083333,194.58931382916666,55.0,100.0
985,194.36791881458333,194.60106931666667,63.0,91.0
986,194.36204107083333,194.60302856458333,43.0,110.0
987,194.36791881458333,194.6049878125,58.0,92.0
988,194.36204107083333,194.60890630833333,51.0,111.0
989,194.734298175,194.89495650416666,63.0,62.0
990,194.734298175,194.89691575208334,58.0,59.0
991,194.72842043125002,194.91454898333333,55.0,88.0
992,194.734298175,194.91454898333333,67.0,86.0
993,194.72842043125002,195.17708820416667,51.0,83.0
994,195.12027001458333,195.22802865,65.0,86.0
995,195.12027001458333,195.25545812083334,55.0,94.0
996,195.12027001458333,195.26721360833335,58.0,84.0
997,195.34950202083334,195.48273087916667,51.0,100.0
998,195.345583525,195.58657101875,67.0,107.0
999,195.345583525,195.60028575416666,55.0,79.0
1000,195.34950202083334,195.64338920833333,58.0,88.0
1001,194.734298175,195.73155536458333,43.0,90.0
1002,195.79033280208333,195.94119489166667,55.0,94.0
1003,195.79816979375,195.95882812291666,58.0,77.0
1004,195.79033280208333,195.96666511458335,65.0,90.0
1005,195.53758982083335,196.03719803958333,51.0,99.0
1006,196.01368706458334,196.05287202291666,43.0,84.0
1007,196.25859305416668,196.47998806875,56.0,106.0
1008,196.27034854166666,196.4858658125,63.0,100.0
1009,196.27034854166666,196.50349904375,59.0,97.0
1010,196.27818553333333,196.69354609166666,44.0,102.0
1011,196.60537993541666,196.77779375208334,63.0,76.0
1012,196.61125767916667,196.80914171875,59.0,72.0
1013,196.60929843125,196.82089720625,56.0,88.0
1014,196.991351775,197.30287219375,56.0,94.0
1015,196.99331102291666,197.32442392083334,59.0,88.0
1016,196.98547403125,197.32638316875,63.0,84.0
1017,197.22842077291668,197.53994119166668,44.0,111.0
1018,197.44785653958334,197.75349921458334,63.0,67.0
1019,197.44785653958334,197.75349921458334,68.0,103.0
1020,197.44785653958334,197.77505094166668,59.0,75.0
1021,197.44785653958334,197.79660266875,56.0,113.0
1022,196.27818553333333,197.93766851875,32.0,100.0
1023,197.85733935416667,197.94158701458335,44.0,90.0
1024,198.10616383958333,198.31776261458333,56.0,106.0
1025,198.11204158333334,198.34911058125,63.0,95.0
1026,198.11596007916665,198.35106982916668,59.0,91.0
1027,198.1081230875,198.51564665416666,44.0,99.0
1028,198.44315448125,198.75271565208334,56.0,85.0
1029,198.4372767375,198.75271565208334,63.0,69.0
1030,198.43923598541667,198.7664303875,59.0,77.0
1031,199.07599155833333,199.13280974791667,59.0,79.0
1032,198.83304481666667,199.13476899583333,44.0,104.0
1033,199.06423607083335,199.18570944166666,56.0,106.0
1034,199.07011381458335,199.20138342500002,63.0,87.0
1035,199.060317575,199.20922041666668,68.0,103.0
1036,199.39926746458335,199.50114835625,58.0,99.0
1037,199.39926746458335,199.530537075,70.0,103.0
1038,198.10616383958333,199.64809195,32.0,97.0
1039,199.40514520833332,199.67552142083335,44.0,88.0
1040,199.70295089166666,199.74409509791667,59.0,88.0
1041,199.69903239583334,199.74801359375,71.0,92.0
1042,199.99683807916668,200.24370331666668,68.0,94.0
1043,199.99683807916668,200.24566256458334,73.0,105.0
1044,199.98900108750001,200.25545880416666,61.0,102.0
1045,200.00467507083334,200.26329579583333,65.0,76.0
1046,199.99683807916668,200.59636794166667,49.0,102.0
1047,200.34558420833335,200.65318613125,73.0,74.0
1048,200.73155604791668,200.88829588125,73.0,15.0
1049,200.35146195208333,200.9294400875,61.0,79.0
1050,200.35146195208333,200.9529510625,65.0,66.0
1051,200.35146195208333,200.96470655000002,68.0,73.0
1052,200.70020808125,201.24096050625,49.0,63.0
1053,201.20177554791667,201.35459688541667,73.0,107.0
1054,201.20177554791667,201.35851538125002,61.0,106.0
1055,201.2115717875,201.38202635625,65.0,78.0
1056,201.20961253958333,201.43884454583335,68.0,86.0
1057,201.66219880833333,201.73273173333334,49.0,72.0
1058,200.000756575,201.73469098125,37.0,99.0
1059,201.67591354375,201.9521675,59.0,91.0
1060,201.66807655208333,201.96588223541667,71.0,93.0
1061,201.90906404583333,202.26760641458333,49.0,106.0
1062,202.13633680416666,202.39495752916667,70.0,103.0
1063,202.13829605208335,202.47136819791666,58.0,99.0
1064,201.90710479791667,203.03955009375,37.0,102.0
1065,202.633985775,203.24135262916667,56.0,72.0
1066,202.63202652708333,203.45136766666667,68.0,66.0
1067,205.76278765833334,207.33738453750001,58.0,69.0
1068,206.00472315833335,207.77488456666669,61.0,79.0
1069,205.52155620416667,207.7869813416667,54.0,69.0
1070,205.28346095416669,207.87770715416667,51.0,64.0
1071,205.04536570416667,207.91198135000002,52.0,77.0
1072,204.55553433333336,207.92407812500002,47.0,69.0
1073,203.93053433333336,208.01883619583336,40.0,89.0
1074,208.18214265833336,208.5006910666667,65.0,64.0
1075,208.18214265833336,208.5349652625,61.0,64.0
1076,208.42407815833334,208.5349652625,61.0,72.0
1077,208.18214265833336,208.54101365000002,68.0,64.0
1078,208.18214265833336,208.94020722500002,58.0,64.0
1079,207.94020715833335,209.2688362791667,46.0,74.0
1080,209.14988465833335,209.30109434583335,58.0,95.0
1081,209.14988465833335,209.48859435833336,61.0,127.0
1082,209.39182015833336,209.48859435833336,61.0,88.0
1083,208.90794915833334,209.8656105125,65.0,99.0
1084,209.63375565833334,210.12972343333334,58.0,127.0
1085,210.35956215833335,210.4462557125,63.0,102.0
1086,210.35956215833335,210.57730410833335,61.0,48.0
1087,210.60149765833336,210.90391703333336,63.0,122.0
1088,210.84343315833334,210.90391703333336,63.0,127.0
1089,210.35956215833335,210.94625574583335,51.0,71.0
1090,209.87569115833335,211.21238479583334,39.0,96.0
1091,211.08536865833335,211.37367512916668,51.0,75.0
1092,211.32730415833336,211.6579493416667,54.0,86.0
1093,212.29504615833335,212.87569135833334,56.0,92.0
1094,211.81117515833336,213.19020750833334,44.0,102.0
1095,213.02085265833335,213.37165913333334,56.0,81.0
1096,212.77891715833334,213.71641722083336,68.0,107.0
1097,212.77891715833334,213.75069141666668,63.0,100.0
1098,213.26278815833334,213.7849656125,59.0,72.0
1099,213.98859465833334,214.79706245416668,58.0,96.0
1100,213.74665915833336,215.061175375,46.0,117.0
1101,214.71440115833335,215.07327215,61.0,127.0
1102,214.95633665833336,215.14988505833335,58.0,71.0
1103,214.71440115833335,215.2869818416667,65.0,112.0
1104,215.19827215833334,215.5470625041667,61.0,122.0
1105,215.68214315833336,215.883756075,47.0,117.0
1106,215.68214315833336,215.91198188333334,59.0,90.0
1107,215.68214315833336,215.92004640000002,66.0,107.0
1108,215.68214315833336,215.92407865833334,63.0,122.0
1109,215.92407865833334,216.11561092916668,47.0,117.0
1110,215.92407865833334,216.1216593166667,63.0,122.0
1111,215.92407865833334,216.12367544583336,66.0,112.0
1112,215.92407865833334,216.12972383333334,59.0,96.0
1113,216.40794965833334,216.5631916041667,59.0,96.0
1114,216.40794965833334,216.57327225,63.0,127.0
1115,216.40794965833334,216.585369025,66.0,117.0
1116,216.40794965833334,216.58940128333336,47.0,100.0
1117,216.64988515833335,216.83940130000002,48.0,122.0
1118,216.64988515833335,216.86964323750001,60.0,117.0
1119,216.64988515833335,216.87165936666668,66.0,122.0
1120,216.64988515833335,216.87972388333336,63.0,127.0
1121,216.89182065833336,217.08940131666668,63.0,127.0
1122,216.89182065833336,217.09141744583334,48.0,112.0
1123,216.89182065833336,217.09746583333336,66.0,127.0
1124,216.89182065833336,217.10351422083335,60.0,102.0
1125,217.37569165833335,217.46036908333335,63.0,127.0
1126,217.37569165833335,217.50069166666668,66.0,117.0
1127,217.37569165833335,217.51077231250002,60.0,112.0
1128,217.37569165833335,217.53294973333334,48.0,117.0
1129,217.61762715833333,217.89585298333336,65.0,127.0
1130,217.61762715833333,217.90190137083334,68.0,127.0
1131,217.61762715833333,217.90794975833336,61.0,127.0
1132,217.61762715833333,217.99665944166668,49.0,127.0
1133,218.34343365833334,218.47649818333335,65.0,107.0
1134,218.34343365833334,218.4865788291667,68.0,117.0
1135,218.34343365833334,218.496659475,61.0,102.0
1136,218.34343365833334,218.50674012083334,49.0,127.0
1137,218.58536915833335,218.7043207791667,65.0,100.0
1138,218.58536915833335,218.71238529583334,68.0,122.0
1139,218.58536915833335,218.72044981250002,49.0,127.0
1140,218.58536915833335,218.72448207083335,61.0,117.0
1141,218.82730465833336,218.91198208333336,65.0,117.0
1142,218.82730465833336,218.932143375,68.0,127.0
1143,218.82730465833336,218.94827240833334,61.0,127.0
1144,218.82730465833336,218.96036918333334,49.0,127.0
1145,219.06924015833334,219.1680304875,61.0,122.0
1146,219.06924015833334,219.1680304875,65.0,99.0
1147,219.06924015833334,219.1801272625,68.0,112.0
1148,219.06924015833334,219.21641758750002,49.0,122.0
1149,219.31117565833335,219.52891760833336,49.0,127.0
1150,219.31117565833335,219.52891760833336,65.0,102.0
1151,219.31117565833335,219.5692401916667,61.0,127.0
1152,219.31117565833335,219.57528857916668,68.0,127.0
1153,220.03698215833336,220.47044992916668,59.0,107.0
1154,219.79504665833335,220.62569187500003,54.0,107.0
1155,220.27891765833334,220.6579499416667,63.0,127.0
1156,220.76278865833336,221.30714353333335,54.0,97.0
1157,219.55311115833334,221.3293209541667,47.0,90.0
1158,220.52085315833335,221.33133708333335,66.0,127.0
1159,221.00472415833335,221.33335321250001,63.0,127.0
1160,221.24665965833336,221.4301274125,59.0,96.0
1161,221.73053065833335,222.06117584166668,61.0,127.0
1162,222.21440165833334,222.55714361666668,61.0,112.0
1163,221.48859515833334,222.62569200833335,47.0,102.0
1164,222.45633715833335,222.754724275,70.0,95.0
1165,222.69827265833334,222.95633719166668,47.0,92.0
1166,221.97246615833336,222.97649848333336,65.0,69.0
1167,222.94020815833335,223.26682108333335,61.0,117.0
1168,222.45633715833335,223.4160146416667,68.0,89.0
1169,223.18214365833336,223.4381920625,65.0,74.0
1170,223.66601465833335,224.50270826250002,58.0,100.0
1171,223.90795015833334,224.5510953625,61.0,107.0
1172,224.14988565833335,224.7648050541667,65.0,74.0
1173,224.63375665833334,224.80311150833336,58.0,100.0
1174,223.42407915833334,224.87972441666668,46.0,122.0
1175,224.39182115833336,225.2002889541667,70.0,99.0
1176,224.87569215833335,225.30311154166668,61.0,122.0
1177,225.11762765833336,225.319240575,65.0,58.0
1178,225.35956315833334,228.29303109583336,39.0,99.0
1179,225.84343415833334,228.30916012916668,51.0,36.0
1180,225.35956315833334,228.343434325,67.0,95.0
1181,225.35956315833334,228.34948271250002,63.0,112.0
1182,225.35956315833334,228.35351497083334,70.0,107.0
1183,230.19827315833334,230.2446441291667,59.0,43.0
1184,229.23053115833335,230.55311189166667,44.0,92.0
1185,229.71440215833334,230.78295061666668,56.0,50.0
1186,230.19827315833334,231.1458538666667,68.0,92.0
1187,230.19827315833334,231.1881925791667,63.0,81.0
1188,230.68214415833336,231.2607732291667,59.0,49.0
1189,231.64988615833335,232.26077329583336,58.0,67.0
1190,231.16601515833335,232.66198300000002,46.0,77.0
1191,232.13375715833334,232.96440237500002,61.0,100.0
1192,232.13375715833334,232.96843463333335,65.0,86.0
1193,234.06924115833334,234.38174117916668,59.0,90.0
1194,233.10149915833335,234.4825476375,47.0,86.0
1195,233.58537015833335,234.48657989583336,54.0,53.0
1196,235.52085415833335,237.15593491250002,49.0,30.0
1197,235.03698315833336,237.2406123375,61.0,77.0
1198,236.97246715833336,237.2406123375,61.0,67.0
1199,235.03698315833336,237.24666072500003,37.0,97.0
1200,235.03698315833336,237.2587575,65.0,65.0
1201,236.97246715833336,237.5208542916667,70.0,65.0
1202,236.97246715833336,237.8474672166667,66.0,63.0
1203,237.94020915833335,238.48053177500003,66.0,55.0
1204,237.94020915833335,238.52085435833334,70.0,89.0
1205,236.97246715833336,238.75674147083333,42.0,78.0
1206,238.66601565833335,238.85149954166667,66.0,46.0
1207,237.45633815833335,238.87569309166668,49.0,31.0
1208,238.18214465833336,238.9462576125,54.0,55.0
1209,238.90795115833333,239.76278992500002,70.0,68.0
1210,238.90795115833333,239.79706412083334,66.0,54.0
1211,238.42408015833337,240.13174156250003,61.0,62.0
1212,239.87569315833335,240.440209325,66.0,58.0
1213,239.87569315833335,240.7204512791667,70.0,66.0
1214,238.90795115833333,240.73456418333336,42.0,83.0
1215,240.35956415833334,240.77891902500002,61.0,62.0
1216,239.39182215833335,240.803112575,49.0,27.0
1217,240.11762865833336,241.31520938333335,54.0,42.0
1218,240.84343515833336,241.67408037500002,70.0,66.0
1219,240.84343515833336,241.7365803791667,66.0,63.0
1220,240.84343515833336,242.1458546,61.0,59.0
1221,241.81117715833335,242.31117719166667,66.0,59.0
1222,240.84343515833336,242.68214495833337,42.0,76.0
1223,241.32730615833336,242.76682238333336,49.0,40.0
1224,241.81117715833335,243.45230630000003,70.0,93.0
1225,242.53698365833336,243.61158050416668,66.0,48.0
1226,243.74666115833335,243.79706438750003,66.0,43.0
1227,242.05311265833336,243.84746761666668,54.0,48.0
1228,242.29504815833334,244.0289192416667,61.0,58.0
1229,242.77891915833334,244.58738702083335,42.0,77.0
1230,243.26279015833336,244.7164192875,49.0,29.0
1231,243.74666115833335,245.50270966250002,70.0,90.0
1232,244.47246765833336,245.58537095833336,66.0,51.0
1233,244.23053215833335,245.82125807083335,61.0,64.0
1234,244.71440315833334,246.48053230833335,42.0,71.0
1235,246.16601615833335,247.12367751250002,61.0,47.0
1236,245.68214515833336,247.3777097875,70.0,74.0
1237,245.68214515833336,247.3898065625,66.0,58.0
1238,247.13375815833336,247.8736775625,61.0,51.0
1239,246.64988715833334,248.49666147500002,42.0,63.0
1240,245.19827415833333,248.5873872875,49.0,28.0
1241,248.10150015833335,250.22448417083336,61.0,48.0
1242,249.06924215833334,251.45230683333335,49.0,55.0
1243,250.52085515833335,251.49061328750003,61.0,52.0
1244,248.58537115833334,251.55311329166668,42.0,56.0
1245,249.79504865833334,251.59746813333334,66.0,53.0
1246,247.61762915833336,251.62166168333334,70.0,65.0
1247,243.98859665833334,251.67004878333336,54.0,39.0
1248,251.97246815833336,256.456339425,66.0,51.0
1249,251.97246815833336,256.48658136250003,54.0,60.0
1250,251.97246815833336,256.48859749166667,49.0,38.0
1251,251.73053265833335,256.4946458791667,42.0,47.0
1252,251.97246815833336,256.57327491666666,61.0,57.0
1253,252.21440365833337,256.59343620833334,70.0,42.0
