,start,end,pitch,velocity
0,41.76645223125,41.98703998125,59.0,100.0
1,41.98703998125,42.20762773125,57.0,100.0
2,42.20762773125,42.64880323125,59.0,114.0
3,42.64880323125,42.86939098125,60.0,94.0
4,42.86939098125,44.63409298125,57.0,114.0
5,44.63409298125,45.29585623125,55.0,108.0
6,45.29585623125,45.7351935,57.0,105.0
7,45.73703173125,46.17820723125,57.0,105.0
8,46.17820723125,46.39879498125,52.0,87.0
9,46.39879498125,48.82526023125,53.0,76.0
10,48.82526023125,49.2645975,59.0,100.0
11,49.26643573125,49.70761123125,59.0,102.0
12,49.70761123125,49.92819898125,57.0,100.0
13,49.92819898125,50.64510916875,55.0,100.0
14,50.58996223125,50.64510916875,55.0,100.0
15,50.81054998125,51.03113773125,55.0,97.0
16,51.03113773125,51.47231323125,57.0,102.0
17,51.47231323125,51.91348873125,59.0,108.0
18,51.91348873125,55.88406823125,52.0,114.0
19,55.88406823125,56.32524373125,55.0,102.0
20,56.32524373125,56.76641923125,53.0,100.0
21,56.76641923125,56.98700698125,52.0,94.0
22,56.98700698125,58.08994573125,53.0,102.0
23,58.08994573125,58.53112123125,52.0,111.0
24,58.53112123125,58.9704585,64.0,111.0
25,58.97229673125,59.8528095,64.0,108.0
26,59.85464773125,60.29582323125,64.0,108.0
27,60.29582323125,60.51457275,62.0,100.0
28,60.51641098125,60.95758648125,62.0,105.0
29,60.95758648125,62.058687,60.0,105.0
30,62.06052523125,62.28111298125,60.0,105.0
31,62.28111298125,62.50170073125,59.0,108.0
32,62.50170073125,63.16346398125,62.0,108.0
33,63.16346398125,63.823389,57.0,108.0
34,63.82522723125,64.04581498125,57.0,111.0
35,64.04581498125,64.26640273125,59.0,82.0
36,64.26640273125,64.93370899791665,60.0,102.0
37,64.93557466875,65.60721616874999,60.0,100.0
38,65.60721616874999,66.05497716874999,57.0,114.0
39,66.05497716874999,66.72475299791665,59.0,111.0
40,66.72661866874999,70.07848784583332,59.0,105.0
41,70.08032607708333,70.30091382708332,59.0,100.0
42,70.30091382708332,70.52150157708333,57.0,100.0
43,70.52150157708333,70.96267707708333,59.0,114.0
44,70.96267707708333,71.18326482708332,60.0,94.0
45,71.18326482708332,72.94796682708332,57.0,114.0
46,72.94796682708332,73.60973007708333,55.0,108.0
47,73.60973007708333,74.04906734583332,57.0,105.0
48,74.05090557708333,74.49208107708333,57.0,105.0
49,74.49208107708333,74.71266882708332,52.0,87.0
50,74.71266882708332,77.13913407708333,53.0,76.0
51,77.13913407708333,77.57847134583332,59.0,100.0
52,77.58030957708333,78.02148507708333,59.0,102.0
53,78.02148507708333,78.24207282708332,57.0,100.0
54,78.24207282708332,78.95898301458332,55.0,100.0
55,78.90383607708333,78.95898301458332,55.0,100.0
56,79.12442382708332,79.34501157708333,55.0,97.0
57,79.34501157708333,79.78618707708333,57.0,102.0
58,79.78618707708333,80.22736257708333,59.0,108.0
59,80.22736257708333,84.19794207708333,52.0,114.0
60,84.19794207708333,84.63911757708333,55.0,102.0
61,84.63911757708333,85.08029307708333,53.0,100.0
62,85.08029307708333,85.30088082708332,52.0,94.0
63,85.30088082708332,86.40381957708333,53.0,102.0
64,86.40381957708333,86.84499507708333,52.0,111.0
65,86.84499507708333,87.28433234583332,64.0,111.0
66,87.28617057708333,88.16668334583332,64.0,108.0
67,88.16852157708333,88.60969707708333,64.0,108.0
68,88.60969707708333,88.82844659583333,62.0,100.0
69,88.83028482708332,89.27146032708332,62.0,105.0
70,89.27146032708332,90.37256084583332,60.0,105.0
71,90.37439907708332,90.59498682708332,60.0,105.0
72,90.59498682708332,90.81557457708332,59.0,108.0
73,90.81557457708332,91.47733782708332,62.0,108.0
74,91.47733782708332,92.13726284583332,57.0,108.0
75,92.13910107708332,92.35785059583333,57.0,111.0
76,92.35968882708332,92.58027657708332,57.0,82.0
77,92.58027657708332,93.02145207708332,59.0,102.0
78,93.02145207708332,93.46262757708332,59.0,102.0
79,93.46262757708332,93.90380307708332,60.0,100.0
80,93.90380307708332,94.12255259583333,59.0,97.0
81,94.12439082708332,94.78615407708332,59.0,105.0
82,94.78615407708332,101.40378657708332,57.0,100.0
83,101.40378657708332,101.62253609583331,65.0,97.0
84,101.62437432708332,101.84312384583332,65.0,105.0
85,101.84496207708332,102.06554982708332,65.0,108.0
86,102.06554982708332,102.28613757708332,64.0,100.0
87,102.28613757708332,102.72731307708332,65.0,111.0
88,102.72731307708332,102.94606259583333,64.0,100.0
89,102.94790082708332,103.60966407708332,64.0,108.0
90,103.60966407708332,104.26958909583331,62.0,108.0
91,104.27142732708333,104.49017684583332,62.0,100.0
92,104.49201507708332,104.71076459583333,62.0,102.0
93,104.71260282708332,104.93319057708332,62.0,100.0
94,104.93319057708332,105.37252784583332,64.0,105.0
95,105.37436607708332,105.81370334583332,64.0,102.0
96,105.81554157708332,106.25671707708332,64.0,108.0
97,106.25671707708332,106.47546659583332,62.0,97.0
98,106.47730482708332,107.13906807708332,62.0,108.0
99,107.13906807708332,108.02141907708332,60.0,111.0
100,108.02141907708332,108.24200682708332,64.0,108.0
101,108.24200682708332,108.46259457708332,60.0,102.0
102,108.46259457708332,108.68134409583331,62.0,100.0
103,108.68318232708333,108.90193184583332,62.0,89.0
104,108.90377007708332,109.34310734583332,62.0,102.0
105,109.34494557708332,109.78612107708332,62.0,111.0
106,109.78612107708332,110.00670882708332,57.0,108.0
107,110.00670882708332,110.44788432708333,59.0,111.0
108,110.44788432708333,111.55082307708332,59.0,111.0
109,111.55082307708332,111.77141082708332,57.0,117.0
110,111.77141082708332,111.99199857708332,59.0,111.0
111,111.99199857708332,112.43133584583332,60.0,114.0
112,112.43317407708332,112.65192359583332,60.0,94.0
113,112.65376182708331,112.87251134583332,60.0,105.0
114,112.87434957708332,113.31552507708332,60.0,111.0
115,113.31552507708332,113.53611282708331,62.0,100.0
116,113.53611282708331,115.52140257708332,64.0,108.0
117,115.52140257708332,115.74015209583331,65.0,102.0
118,115.74199032708333,115.96073984583332,65.0,100.0
119,115.96257807708332,116.18316582708331,65.0,105.0
120,116.18316582708331,116.40375357708332,64.0,94.0
121,116.40375357708332,116.84309084583332,65.0,111.0
122,116.84492907708332,117.06551682708331,65.0,100.0
123,117.06551682708331,117.72728007708332,67.0,111.0
124,117.72728007708332,118.38720509583331,62.0,114.0
125,118.38904332708333,118.60779284583332,62.0,89.0
126,118.60963107708332,118.82838059583332,62.0,92.0
127,118.83021882708331,119.05080657708332,62.0,108.0
128,119.05080657708332,119.26955609583331,64.0,111.0
129,119.27139432708333,119.71256982708331,64.0,102.0
130,119.71256982708331,120.37433307708332,67.0,117.0
131,120.37433307708332,120.81550857708332,64.0,97.0
132,120.81550857708332,121.25668407708332,62.0,111.0
133,121.25668407708332,122.13903507708332,60.0,111.0
134,122.13903507708332,122.35778459583332,60.0,111.0
135,122.35962282708331,122.58021057708332,60.0,102.0
136,122.58021057708332,122.79896009583332,62.0,105.0
137,122.80079832708333,123.24013559583332,62.0,100.0
138,123.24197382708331,123.46072334583332,62.0,92.0
139,123.46256157708332,123.90373707708332,62.0,105.0
140,123.90373707708332,124.12432482708331,60.0,100.0
141,124.12432482708331,124.78608807708332,59.0,108.0
142,124.78608807708332,125.00483759583332,59.0,94.0
143,125.00667582708331,125.22542534583332,59.0,94.0
144,125.22726357708332,125.44601309583332,59.0,92.0
145,125.44785132708333,125.88718859583332,59.0,105.0
146,125.88902682708331,126.10961457708332,59.0,100.0
147,126.10961457708332,126.55079007708332,60.0,111.0
148,126.55079007708332,127.43314107708332,59.0,105.0
149,127.43314107708332,129.78423884583333,57.0,108.0
150,167.16629334166666,167.38688109166665,59.0,100.0
151,167.38688109166665,167.60746884166664,57.0,100.0
152,167.60746884166664,168.04864434166666,59.0,114.0
153,168.04864434166666,168.26923209166665,60.0,94.0
154,168.26923209166665,170.03393409166665,57.0,114.0
155,170.03393409166665,170.69569734166666,55.0,108.0
156,170.69569734166666,171.13503461041665,57.0,105.0
157,171.13687284166664,171.57804834166666,57.0,105.0
158,171.57804834166666,171.79863609166665,52.0,87.0
159,171.79863609166665,174.22510134166666,53.0,76.0
160,174.22510134166666,174.66443861041665,59.0,100.0
161,174.66627684166664,175.10745234166666,59.0,102.0
162,175.10745234166666,175.32804009166665,57.0,100.0
163,175.32804009166665,176.04495027916664,55.0,100.0
164,175.98980334166666,176.04495027916664,55.0,100.0
165,176.21039109166665,176.43097884166664,55.0,97.0
166,176.43097884166664,176.87215434166666,57.0,102.0
167,176.87215434166666,177.31332984166664,59.0,108.0
168,177.31332984166664,181.28390934166666,52.0,114.0
169,181.28390934166666,181.72508484166664,55.0,102.0
170,181.72508484166664,182.16626034166666,53.0,100.0
171,182.16626034166666,182.38684809166665,52.0,94.0
172,182.38684809166665,183.48978684166664,53.0,102.0
173,183.48978684166664,183.93096234166666,52.0,111.0
174,183.93096234166666,184.37029961041665,64.0,111.0
175,184.37213784166664,185.25265061041665,64.0,108.0
176,185.25448884166664,185.69566434166666,64.0,108.0
177,185.69566434166666,185.91441386041666,62.0,100.0
178,185.91625209166665,186.35742759166666,62.0,105.0
179,186.35742759166666,187.45852811041664,60.0,105.0
180,187.46036634166666,187.68095409166665,60.0,105.0
181,187.68095409166665,187.90154184166664,59.0,108.0
182,187.90154184166664,188.56330509166665,62.0,108.0
183,188.56330509166665,189.22323011041667,57.0,108.0
184,189.22506834166666,189.44565609166665,57.0,111.0
185,189.44565609166665,189.66624384166664,59.0,82.0
186,189.66624384166664,190.32616886041666,60.0,102.0
187,190.32800709166665,190.98977034166666,60.0,100.0
188,190.98977034166666,191.43094584166664,57.0,114.0
189,191.43094584166664,192.09087086041666,59.0,111.0
190,192.09270909166665,195.39968711041666,59.0,105.0
191,195.40152534166666,195.62211309166665,59.0,100.0
192,195.62211309166665,195.84270084166664,57.0,100.0
193,195.84270084166664,196.28387634166666,59.0,114.0
194,196.28387634166666,196.50446409166665,60.0,94.0
195,196.50446409166665,198.26916609166665,57.0,114.0
196,198.26916609166665,198.93092934166665,55.0,108.0
197,198.93092934166665,199.37026661041665,57.0,105.0
198,199.37210484166667,199.81328034166665,57.0,105.0
199,199.81328034166665,200.03386809166665,52.0,87.0
200,200.03386809166665,202.46033334166665,53.0,76.0
201,202.46033334166665,202.89967061041665,59.0,100.0
202,202.90150884166667,203.34268434166665,59.0,102.0
203,203.34268434166665,203.56327209166665,57.0,100.0
204,203.56327209166665,204.28018227916664,55.0,100.0
205,204.22503534166665,204.28018227916664,55.0,100.0
206,204.44562309166665,204.66621084166667,55.0,97.0
207,204.66621084166667,205.10738634166665,57.0,102.0
208,205.10738634166665,205.54856184166664,59.0,108.0
209,205.54856184166664,209.51914134166665,52.0,114.0
210,209.51914134166665,209.96031684166667,55.0,102.0
211,209.96031684166667,210.40149234166665,53.0,100.0
212,210.40149234166665,210.62208009166665,52.0,94.0
213,210.62208009166665,211.72501884166667,53.0,102.0
214,211.72501884166667,212.16619434166665,52.0,111.0
215,212.16619434166665,212.60553161041665,64.0,111.0
216,212.60736984166664,213.48788261041665,64.0,108.0
217,213.48972084166667,213.93089634166665,64.0,108.0
218,213.93089634166665,214.14964586041665,62.0,100.0
219,214.15148409166665,214.59265959166666,62.0,105.0
220,214.59265959166666,215.69376011041666,60.0,105.0
221,215.69559834166665,215.91618609166665,60.0,105.0
222,215.91618609166665,216.13677384166664,59.0,108.0
223,216.13677384166664,216.79853709166665,62.0,108.0
224,216.79853709166665,217.45846211041666,57.0,108.0
225,217.46030034166665,217.67904986041665,57.0,111.0
226,217.68088809166665,217.90147584166664,57.0,82.0
227,217.90147584166664,218.34265134166665,59.0,102.0
228,218.34265134166665,218.78382684166667,59.0,102.0
229,218.78382684166667,219.22500234166665,60.0,100.0
230,219.22500234166665,219.44375186041665,59.0,97.0
231,219.44559009166665,220.10735334166665,59.0,105.0
232,220.10735334166665,226.72498584166664,57.0,100.0
233,226.72498584166664,226.94373536041667,65.0,97.0
234,226.94557359166666,227.16432311041666,65.0,105.0
235,227.16616134166665,227.38674909166664,65.0,108.0
236,227.38674909166664,227.60733684166667,64.0,100.0
237,227.60733684166667,228.04851234166665,65.0,111.0
238,228.04851234166665,228.26726186041665,64.0,100.0
239,228.26910009166664,228.93086334166665,64.0,108.0
240,228.93086334166665,229.59078836041664,62.0,108.0
241,229.59262659166666,229.81137611041666,62.0,100.0
242,229.81321434166665,230.03196386041665,62.0,102.0
243,230.03380209166664,230.25438984166664,62.0,100.0
244,230.25438984166664,230.69372711041666,64.0,105.0
245,230.69556534166665,231.13490261041665,64.0,102.0
246,231.13674084166666,231.57791634166665,64.0,108.0
247,231.57791634166665,231.79666586041665,62.0,97.0
248,231.79850409166664,232.46026734166665,62.0,108.0
249,232.46026734166665,233.34261834166665,60.0,111.0
250,233.34261834166665,233.56320609166664,64.0,108.0
251,233.56320609166664,233.78379384166664,60.0,102.0
252,233.78379384166664,234.00254336041667,62.0,100.0
253,234.00438159166666,234.22313111041666,62.0,89.0
254,234.22496934166665,234.66430661041665,62.0,102.0
255,234.66614484166666,235.10732034166665,62.0,111.0
256,235.10732034166665,235.32790809166664,57.0,108.0
257,235.32790809166664,235.76908359166666,59.0,111.0
258,235.76908359166666,236.87202234166665,59.0,111.0
259,236.87202234166665,237.09261009166664,57.0,117.0
260,237.09261009166664,237.31319784166664,59.0,111.0
261,237.31319784166664,237.75253511041666,60.0,114.0
262,237.75437334166665,237.97312286041665,60.0,94.0
263,237.97496109166667,238.19371061041664,60.0,105.0
264,238.19554884166666,238.63672434166665,60.0,111.0
265,238.63672434166665,238.85731209166664,62.0,100.0
266,238.85731209166664,240.84260184166664,64.0,108.0
267,240.84260184166664,241.06135136041667,65.0,102.0
268,241.06318959166666,241.28193911041666,65.0,100.0
269,241.28377734166665,241.50436509166667,65.0,105.0
270,241.50436509166667,241.72495284166666,64.0,94.0
271,241.72495284166666,242.16429011041663,65.0,111.0
272,242.16612834166665,242.38671609166664,65.0,100.0
273,242.38671609166664,243.04847934166665,67.0,111.0
274,243.04847934166665,243.70840436041664,62.0,114.0
275,243.71024259166666,243.92899211041663,62.0,89.0
276,243.93083034166665,244.14957986041665,62.0,92.0
277,244.15141809166664,244.37200584166663,62.0,108.0
278,244.37200584166663,244.59075536041667,64.0,111.0
279,244.59259359166666,245.03376909166667,64.0,102.0
280,245.03376909166667,245.69553234166665,67.0,117.0
281,245.69553234166665,246.13670784166663,64.0,97.0
282,246.13670784166663,246.57788334166665,62.0,111.0
283,246.57788334166665,247.46023434166665,60.0,111.0
284,247.46023434166665,247.67898386041665,60.0,111.0
285,247.68082209166664,247.90140984166663,60.0,102.0
286,247.90140984166663,248.12015936041666,62.0,105.0
287,248.12199759166666,248.56133486041665,62.0,100.0
288,248.56317309166667,248.78192261041664,62.0,92.0
289,248.78376084166666,249.22493634166665,62.0,105.0
290,249.22493634166665,249.44552409166664,60.0,100.0
291,249.44552409166664,250.10728734166665,59.0,108.0
292,250.10728734166665,250.32603686041665,59.0,94.0
293,250.32787509166667,250.54662461041664,59.0,94.0
294,250.54846284166666,250.76721236041664,59.0,92.0
295,250.76905059166666,251.20838786041665,59.0,105.0
296,251.21022609166664,251.43081384166663,59.0,100.0
297,251.43081384166663,251.87198934166665,60.0,111.0
298,251.87198934166665,252.75434034166665,59.0,105.0
299,252.75434034166665,254.96940899791664,57.0,108.0
300,254.96021784166663,255.17896736041666,65.0,97.0
301,255.18080559166665,255.39955511041666,65.0,105.0
302,255.40139334166665,255.62198109166667,65.0,108.0
303,255.62198109166667,255.84256884166666,64.0,100.0
304,255.84256884166666,256.28374434166665,65.0,111.0
305,256.28374434166665,256.5024938604166,64.0,100.0
306,256.50433209166664,257.1660953416666,64.0,108.0
307,257.1660953416666,257.82602036041663,62.0,108.0
308,257.82785859166665,258.0466081104166,62.0,100.0
309,258.04844634166665,258.2671958604167,62.0,102.0
310,258.26903409166664,258.48962184166663,62.0,100.0
311,258.48962184166663,258.92895911041666,64.0,105.0
312,258.9307973416667,259.37013461041664,64.0,102.0
313,259.37197284166666,259.81314834166665,64.0,108.0
314,259.81314834166665,260.0318978604166,62.0,97.0
315,260.03373609166664,260.6954993416666,62.0,108.0
316,260.6954993416666,261.57785034166665,60.0,111.0
317,261.57785034166665,261.79843809166664,64.0,108.0
318,261.79843809166664,262.01902584166663,60.0,102.0
319,262.01902584166663,262.23777536041666,62.0,100.0
320,262.2396135916666,262.45836311041666,62.0,89.0
321,262.4602013416667,262.89953861041664,62.0,102.0
322,262.90137684166666,263.34255234166665,62.0,111.0
323,263.34255234166665,263.56314009166664,57.0,108.0
324,263.56314009166664,264.0043155916667,59.0,111.0
325,264.0043155916667,265.10725434166665,59.0,111.0
326,265.10725434166665,265.32784209166664,57.0,117.0
327,265.32784209166664,265.54842984166663,59.0,111.0
328,265.54842984166663,265.98776711041666,60.0,114.0
329,265.9896053416667,266.20835486041665,60.0,94.0
330,266.21019309166667,266.42894261041664,60.0,105.0
331,266.43078084166666,266.87195634166665,60.0,111.0
332,266.87195634166665,267.09254409166664,62.0,100.0
333,267.09254409166664,269.07783384166663,64.0,108.0
334,269.07783384166663,269.29658336041666,65.0,102.0
335,269.2984215916666,269.51717111041665,65.0,100.0
336,269.5190093416667,269.73959709166667,65.0,105.0
337,269.73959709166667,269.96018484166666,64.0,94.0
338,269.96018484166666,270.3995221104167,65.0,111.0
339,270.40136034166665,270.62194809166664,65.0,100.0
340,270.62194809166664,271.2837113416666,67.0,111.0
341,271.2837113416666,271.94363636041663,62.0,114.0
342,271.94547459166665,272.1642241104166,62.0,89.0
343,272.16606234166665,272.3848118604167,62.0,92.0
344,272.38665009166664,272.60723784166663,62.0,108.0
345,272.60723784166663,272.82598736041666,64.0,111.0
346,272.8278255916666,273.26900109166667,64.0,102.0
347,273.26900109166667,273.93076434166665,67.0,117.0
348,273.93076434166665,274.37193984166663,64.0,97.0
349,274.37193984166663,274.8131153416666,62.0,111.0
350,274.8131153416666,275.69546634166664,60.0,111.0
351,275.69546634166664,275.9142158604167,60.0,111.0
352,275.91605409166664,276.13664184166663,60.0,102.0
353,276.13664184166663,276.35539136041666,62.0,105.0
354,276.3572295916666,276.79656686041665,62.0,100.0
355,276.79840509166667,277.01715461041664,62.0,92.0
356,277.01899284166666,277.46016834166664,62.0,105.0
357,277.46016834166664,277.68075609166664,60.0,100.0
358,277.68075609166664,278.3425193416666,59.0,108.0
359,278.3425193416666,278.56126886041665,59.0,94.0
360,278.56310709166667,278.78185661041664,59.0,94.0
361,278.78369484166666,279.00244436041663,59.0,92.0
362,279.00428259166665,279.4436198604167,59.0,105.0
363,279.44545809166664,279.66604584166663,59.0,100.0
364,279.66604584166663,280.1072213416667,60.0,111.0
365,280.1072213416667,280.98957234166664,59.0,105.0
366,280.98957234166664,283.3406701104167,57.0,108.0
