,start,end,pitch,velocity
0,0.73713073125,1.40992336875,64.0,87.0
1,0.73713073125,1.44668799375,57.0,78.0
2,0.73713073125,1.44668799375,59.0,92.0
3,1.6194817312499998,2.03492199375,57.0,89.0
4,1.6194817312499998,2.0588189999999997,64.0,97.0
5,1.6194817312499998,2.07903954375,59.0,97.0
6,2.50183273125,3.0643314937499997,64.0,92.0
7,2.50183273125,3.20771353125,59.0,100.0
8,3.38418373125,4.0477852125,64.0,105.0
9,3.38418373125,4.0808733749999995,59.0,102.0
10,0.73713073125,4.11947623125,45.0,94.0
11,4.26653473125,4.98712138125,64.0,89.0
12,4.26653473125,5.00550369375,57.0,80.0
13,4.26653473125,5.02020954375,59.0,87.0
14,5.14888573125,5.47976735625,64.0,87.0
15,5.14888573125,5.49814966875,57.0,78.0
16,5.14888573125,5.55329660625,59.0,89.0
17,6.03123673125,6.49814746875,64.0,89.0
18,6.03123673125,6.6323383499999995,59.0,87.0
19,4.26653473125,7.27939575,45.0,100.0
20,6.91358773125,7.301454525,64.0,105.0
21,6.91358773125,7.31064568125,59.0,102.0
22,7.35476323125,7.79593873125,40.0,114.0
23,7.79593873125,8.46873136875,64.0,87.0
24,7.79593873125,8.50549599375,57.0,78.0
25,7.79593873125,8.50549599375,59.0,92.0
26,8.67828973125,9.09372999375,57.0,89.0
27,8.67828973125,9.117626999999999,64.0,97.0
28,8.67828973125,9.13784754375,59.0,97.0
29,9.56064073125,10.12313949375,64.0,92.0
30,9.56064073125,10.26652153125,59.0,100.0
31,7.79593873125,10.88416723125,45.0,94.0
32,10.44299173125,11.1065932125,64.0,105.0
33,10.44299173125,11.139681375,59.0,102.0
34,10.88416723125,11.32534273125,40.0,114.0
35,11.32534273125,11.85475333125,57.0,97.0
36,11.32534273125,11.874973875,65.0,89.0
37,11.32534273125,11.8786503375,62.0,97.0
38,12.20769373125,12.74078079375,62.0,108.0
39,12.20769373125,12.770192493749999,65.0,97.0
40,12.64886923125,12.95033915625,57.0,55.0
41,13.09004473125,13.832690156249999,62.0,97.0
42,13.09004473125,13.84371954375,65.0,92.0
43,13.09004473125,13.84739600625,57.0,97.0
44,13.97239573125,14.2058511,57.0,100.0
45,11.32534273125,14.41357123125,50.0,108.0
46,13.97239573125,14.753644012499999,65.0,102.0
47,13.97239573125,14.75915870625,62.0,105.0
48,14.41357123125,14.825335031249999,57.0,114.0
49,14.41357123125,14.85474673125,45.0,114.0
50,14.85474673125,15.42827488125,55.0,78.0
51,14.85474673125,15.4411425,62.0,87.0
52,15.73709773125,16.257317175,55.0,100.0
53,15.73709773125,16.270184793749998,62.0,94.0
54,16.61944873125,17.19297688125,59.0,102.0
55,16.61944873125,17.202168037499998,62.0,100.0
56,16.61944873125,17.27753551875,55.0,89.0
57,15.29592223125,17.70400516875,50.0,58.0
58,14.85474673125,17.71871101875,43.0,102.0
59,17.50179973125,17.994445706249998,59.0,108.0
60,17.50179973125,18.04959264375,62.0,105.0
61,17.50179973125,18.121283662499998,55.0,97.0
62,17.94297523125,18.382312499999998,43.0,111.0
63,18.38415073125,19.04223751875,55.0,82.0
64,18.38415073125,19.051428675,60.0,87.0
65,18.38415073125,19.066134525,64.0,94.0
66,19.26650173125,19.538559956249998,55.0,97.0
67,19.26650173125,19.71503015625,60.0,102.0
68,19.26650173125,19.8528975,64.0,100.0
69,20.14885273125,20.46502850625,55.0,102.0
70,20.14885273125,20.5256901375,60.0,108.0
71,20.14885273125,20.874954074999998,64.0,100.0
72,21.03120373125,21.30326195625,55.0,97.0
73,18.38415073125,21.47237923125,48.0,105.0
74,21.47237923125,21.84370194375,55.0,71.0
75,21.03120373125,21.845540175,59.0,108.0
76,21.03120373125,21.867598949999998,64.0,102.0
77,21.47237923125,21.91355473125,40.0,114.0
78,21.91355473125,22.63414138125,62.0,84.0
79,21.91355473125,22.63414138125,65.0,94.0
80,21.91355473125,22.64884723125,57.0,89.0
81,22.79590573125,23.124949125,62.0,100.0
82,22.79590573125,23.124949125,65.0,100.0
83,23.67825673125,24.036711824999998,65.0,97.0
84,23.67825673125,24.07899114375,57.0,100.0
85,23.67825673125,24.093696993749997,62.0,97.0
86,21.91355473125,24.7903866375,50.0,102.0
87,24.56060773125,25.3345030875,57.0,105.0
88,24.56060773125,25.3345030875,62.0,108.0
89,24.56060773125,25.374944175,65.0,108.0
90,25.00178323125,25.393326487499998,50.0,117.0
91,25.44295873125,26.148839531249997,60.0,94.0
92,25.44295873125,26.1580306875,57.0,89.0
93,26.325309731249998,26.806926318749998,64.0,97.0
94,26.325309731249998,26.816117475,60.0,97.0
95,26.325309731249998,26.8933231875,57.0,92.0
96,27.207660731249998,27.74074779375,64.0,97.0
97,27.207660731249998,27.74810071875,60.0,94.0
98,27.207660731249998,27.795894731249998,57.0,97.0
99,25.44295873125,28.35839349375,45.0,108.0
100,25.88413423125,28.39148165625,52.0,78.0
101,28.090011731249998,28.94662749375,57.0,105.0
102,28.090011731249998,28.95030395625,60.0,102.0
103,28.090011731249998,28.959495112499997,64.0,102.0
104,28.531187231249998,28.972362731249998,40.0,111.0
105,28.972362731249998,29.654346524999998,60.0,89.0
106,28.972362731249998,29.658022987499997,65.0,94.0
107,28.972362731249998,29.669052375,57.0,84.0
108,28.972362731249998,30.13044841875,41.0,97.0
109,29.854713731249998,30.669050175,57.0,100.0
110,29.854713731249998,30.67824133125,60.0,108.0
111,29.854713731249998,30.7021383375,65.0,94.0
112,30.295889231249998,30.71500595625,41.0,97.0
113,30.737064731249998,31.4999307,57.0,92.0
114,30.737064731249998,31.5036071625,62.0,87.0
115,30.737064731249998,31.509121856249998,65.0,94.0
116,31.619415731249997,31.9447826625,57.0,100.0
117,31.619415731249997,32.4411051,65.0,100.0
118,31.619415731249997,32.45764918125,62.0,100.0
119,32.06059123125,32.47603149375,53.0,111.0
120,30.737064731249998,32.5256637375,46.0,102.0
121,32.50176673125,33.2168386875,59.0,100.0
122,32.50176673125,33.22602984375,64.0,100.0
123,33.38411773125,33.73705813125,64.0,102.0
124,33.38411773125,33.78117568125,59.0,102.0
125,33.38411773125,33.790366837499995,68.0,93.0
126,32.50176673125,34.10470438125,52.0,108.0
127,34.26646873125,34.906173206249996,64.0,84.0
128,34.26646873125,34.92823198125,59.0,82.0
129,34.26646873125,34.93190844375,68.0,79.0
130,32.50176673125,37.13410948125,40.0,108.0
131,34.26646873125,37.61572606875,52.0,100.0
132,37.79587273125,40.66351348125,40.0,114.0
133,37.79587273125,41.139615375,64.0,57.0
134,37.79587273125,41.15983591875,59.0,53.0
135,37.79587273125,41.169027074999995,68.0,38.0
136,37.79587273125,41.23704163125,52.0,80.0
137,41.32527673125,41.863878487499996,57.0,73.0
138,41.32527673125,41.88777549375,59.0,89.0
139,41.32527673125,41.89880488125,64.0,89.0
140,42.20762773125,42.389612625,57.0,82.0
141,42.20762773125,42.4153478625,59.0,89.0
142,41.76645223125,42.4300537125,52.0,39.0
143,42.20762773125,42.4374066375,64.0,89.0
144,42.64880323125,43.2315225375,52.0,21.0
145,43.08997873125,43.389610425,64.0,94.0
146,43.08997873125,43.42453681875,57.0,94.0
147,43.53115423125,44.15247639375,52.0,30.0
148,41.32527673125,44.249902649999996,45.0,100.0
149,43.97232973125,44.36938768125,60.0,94.0
150,43.97232973125,44.39512291875,64.0,94.0
151,43.97232973125,44.4006376125,57.0,89.0
152,44.41350523125,44.711298693749995,45.0,87.0
153,44.85468073125,45.446591193749995,65.0,89.0
154,44.85468073125,45.46129704375,62.0,80.0
155,44.85468073125,45.48335581875,57.0,80.0
156,45.73703173125,46.08629566875,65.0,89.0
157,45.73703173125,46.1175456,62.0,92.0
158,46.61938273125,46.874896875,62.0,84.0
159,46.61938273125,47.00541129375,65.0,84.0
160,47.50173373125,47.7682772625,57.0,97.0
161,47.50173373125,48.04217371875,62.0,100.0
162,44.85468073125,48.051364875,50.0,78.0
163,47.94290923125,48.18187929375,57.0,97.0
164,47.50173373125,48.22232038125,65.0,97.0
165,48.38408473125,48.91349533125,59.0,82.0
166,48.38408473125,48.94658349375,55.0,78.0
167,48.38408473125,49.0035686625,62.0,82.0
168,48.82526023125,49.521949875,50.0,46.0
169,49.26643573125,49.7094494625,59.0,84.0
170,49.26643573125,49.8344491875,62.0,87.0
171,49.70761123125,50.29584523125,50.0,30.0
172,50.14878673125,50.4741536625,59.0,67.0
173,50.14878673125,50.5109182875,62.0,67.0
174,48.38408473125,51.2241520125,43.0,100.0
175,50.58996223125,51.2903283375,50.0,13.0
176,51.03113773125,51.404298675,59.0,114.0
177,51.03113773125,51.45393091875,55.0,102.0
178,51.03113773125,51.57157771875,62.0,111.0
179,51.47231323125,51.830768325,43.0,94.0
180,51.91348873125,52.433708175,60.0,78.0
181,51.91348873125,52.52745796875,55.0,87.0
182,52.79583973125,53.058706799999996,60.0,84.0
183,52.79583973125,53.28848570625,64.0,87.0
184,53.67819073125,54.075248681249995,64.0,97.0
185,53.67819073125,54.189219018749995,60.0,102.0
186,51.91348873125,54.85465873125,48.0,100.0
187,54.56054173125,55.286643075,55.0,102.0
188,54.56054173125,55.385907562499995,60.0,105.0
189,54.56054173125,55.41348103125,64.0,100.0
190,55.00171723125,55.4410545,43.0,105.0
191,55.44289273125,56.21494985625,57.0,82.0
192,55.44289273125,56.21494985625,62.0,82.0
193,55.44289273125,56.220464549999996,65.0,87.0
194,56.32524373125,56.95391881875,65.0,105.0
195,56.32524373125,57.016418681249995,62.0,102.0
196,57.20759473125,57.45391771875,57.0,97.0
197,57.20759473125,57.74068179375,65.0,102.0
198,57.20759473125,57.82156396875,62.0,100.0
199,55.44289273125,58.378548037499996,50.0,87.0
200,58.08994573125,58.8491352375,57.0,105.0
201,58.08994573125,58.904282175,62.0,102.0
202,58.08994573125,58.90612040625,65.0,97.0
203,58.53112123125,58.93553210625,50.0,105.0
204,58.97229673125,59.656118756249995,60.0,84.0
205,58.97229673125,59.698398075,57.0,92.0
206,59.85464773125,60.24067629375,64.0,97.0
207,59.85464773125,60.32155846875,60.0,100.0
208,59.85464773125,60.40244064375,57.0,97.0
209,59.41347223125,60.89141015625,52.0,84.0
210,60.73699873125,61.21861531875,60.0,80.0
211,60.73699873125,61.24802701875,64.0,82.0
212,60.73699873125,61.2903063375,57.0,76.0
213,58.97229673125,61.88037856875,45.0,108.0
214,61.17817423125,61.96493720625,52.0,36.0
215,61.61934973125,62.115672168749995,60.0,111.0
216,61.61934973125,62.181848493749996,57.0,105.0
217,62.06052523125,62.31787760625,43.0,89.0
218,61.61934973125,62.330745225,64.0,108.0
219,62.50170073125,63.078905343749994,57.0,100.0
220,62.50170073125,63.13037581875,60.0,94.0
221,62.50170073125,63.292140168749995,53.0,87.0
222,63.38405173125,64.04581498125,57.0,114.0
223,63.38405173125,64.0991236875,60.0,108.0
224,63.38405173125,64.14140300625,65.0,89.0
225,62.94287623125,64.32154966875,48.0,32.0
226,64.26640273125,64.82363441874999,57.0,94.0
227,64.26640273125,64.88520155625,65.0,87.0
228,64.26640273125,64.90199259375,60.0,92.0
229,62.50170073125,65.60348482708332,41.0,100.0
230,65.15945516874999,65.62960421874999,57.0,108.0
231,65.15945516874999,65.69117135625,60.0,105.0
232,65.60721616874999,65.74714148125,53.0,100.0
233,65.15945516874999,65.80870861874999,65.0,97.0
234,66.05497716874999,66.80497684375,64.0,100.0
235,66.05497716874999,66.80870818541666,59.0,105.0
236,66.95049916874999,67.24900650208332,59.0,100.0
237,66.95049916874999,67.68557347708332,68.0,99.0
238,66.95049916874999,67.70423018541666,64.0,100.0
239,67.84602116874999,68.55124474374999,59.0,100.0
240,67.84602116874999,68.57549846458332,68.0,102.0
241,67.84602116874999,68.58855816041665,64.0,97.0
242,68.74154316874998,69.27699069791666,64.0,92.0
243,68.74154316874998,69.29564740625,71.0,102.0
244,66.05497716874999,69.30870710208333,52.0,117.0
245,68.74154316874998,69.33109515208332,59.0,102.0
246,69.63706516874998,70.28804620833333,64.0,92.0
247,69.63706516874998,70.29907559583332,60.0,82.0
248,69.63706516874998,70.30826675208333,57.0,80.0
249,70.08032607708333,70.74944225208333,52.0,49.0
250,70.52150157708333,71.01047108958332,64.0,87.0
251,70.52150157708333,71.03069163333332,57.0,92.0
252,70.52150157708333,71.05091217708332,60.0,89.0
253,71.40385257708333,71.83216045833332,64.0,97.0
254,71.40385257708333,71.84686630833332,57.0,102.0
255,71.40385257708333,71.87627800833332,60.0,102.0
256,71.84502807708333,72.46083554583332,52.0,76.0
257,69.63706516874998,72.56010003333333,45.0,105.0
258,72.28620357708333,72.64833513333332,57.0,97.0
259,72.28620357708333,72.65936452083332,60.0,105.0
260,72.28620357708333,72.66855567708332,64.0,100.0
261,72.72737907708333,73.10054002083332,45.0,105.0
262,73.16855457708333,73.72737687708332,65.0,82.0
263,73.16855457708333,73.73289157083332,62.0,87.0
264,73.16855457708333,73.74208272708331,57.0,80.0
265,74.05090557708333,74.53436039583332,62.0,100.0
266,74.05090557708333,74.55090447708332,65.0,97.0
267,74.49208107708333,74.74575698958333,57.0,58.0
268,74.93325657708333,75.18693248958333,57.0,97.0
269,74.93325657708333,75.53803465833332,65.0,97.0
270,74.93325657708333,75.62626975833332,62.0,105.0
271,75.37443207708333,75.64097560833332,57.0,84.0
272,73.16855457708333,76.04354825208333,50.0,97.0
273,75.81560757708333,76.52148837708332,62.0,105.0
274,75.81560757708333,76.52700307083332,57.0,102.0
275,76.25678307708333,76.54906184583332,50.0,114.0
276,75.81560757708333,76.58950293333332,65.0,102.0
277,76.69795857708333,76.93325217708332,53.0,60.0
278,76.69795857708333,77.06192836458332,55.0,53.0
279,76.69795857708333,77.42405992083332,59.0,89.0
280,76.69795857708333,77.44060400208332,62.0,92.0
281,76.91854632708332,77.53986848958333,50.0,82.0
282,77.58030957708333,77.90935297083333,59.0,100.0
283,77.58030957708333,77.96817637083332,55.0,92.0
284,77.58030957708333,77.99207337708332,62.0,97.0
285,78.46266057708333,78.51045458958332,55.0,27.0
286,78.02148507708333,78.71266002708332,50.0,47.0
287,78.46266057708333,78.97185063333332,59.0,102.0
288,78.46266057708333,79.00310056458332,67.0,92.0
289,78.46266057708333,79.03435049583332,62.0,97.0
290,78.90383607708333,79.50126123333332,50.0,41.0
291,76.69795857708333,79.52332000833331,43.0,102.0
292,79.34501157708333,79.73287837083332,59.0,108.0
293,79.34501157708333,79.76045183958333,67.0,84.0
294,79.34501157708333,79.78067238333333,55.0,97.0
295,79.34501157708333,79.88361333333332,62.0,102.0
296,79.78618707708333,80.17221563958333,43.0,102.0
297,80.22736257708333,80.87993467083332,55.0,78.0
298,80.22736257708333,80.87993467083332,60.0,89.0
299,80.22736257708333,80.89647875208333,64.0,94.0
300,81.10971357708333,81.31927193958332,55.0,84.0
301,81.10971357708333,81.63544771458332,60.0,97.0
302,81.10971357708333,81.68140349583332,64.0,97.0
303,81.55088907708333,81.81007968333333,55.0,34.0
304,81.99206457708333,82.29721096458331,55.0,97.0
305,81.99206457708333,82.70162183958332,60.0,108.0
306,81.99206457708333,82.73471000208332,64.0,102.0
307,82.43324007708333,82.76228347083332,55.0,53.0
308,80.22736257708333,83.04904754583332,48.0,84.0
309,82.87441557708333,83.34684100833331,55.0,94.0
310,82.87441557708333,83.35051747083332,60.0,108.0
311,82.87441557708333,83.42404672083332,64.0,105.0
312,83.31559107708333,83.64095800833331,48.0,114.0
313,83.75676657708333,84.40933867083332,62.0,92.0
314,83.75676657708333,84.41117690208333,65.0,92.0
315,83.75676657708333,84.43323567708332,57.0,92.0
316,84.63911757708333,85.29168967083332,65.0,92.0
317,84.63911757708333,85.33580722083332,62.0,94.0
318,84.63911757708333,85.35970422708331,57.0,100.0
319,85.52146857708333,86.16668774583331,62.0,102.0
320,85.52146857708333,86.16668774583331,65.0,105.0
321,83.75676657708333,86.27330515833333,50.0,108.0
322,85.96264407708333,86.30087862708332,57.0,66.0
323,86.40381957708333,86.45896651458332,57.0,53.0
324,86.40381957708333,86.87256854583332,62.0,97.0
325,86.40381957708333,87.01043588958332,50.0,100.0
326,86.40381957708333,87.16300908333332,65.0,97.0
327,86.84499507708333,87.16484731458331,57.0,76.0
328,87.28617057708333,87.86337518958332,60.0,94.0
329,87.28617057708333,87.89646335208332,64.0,92.0
330,87.28617057708333,87.93506620833332,57.0,102.0
331,87.72734607708333,88.34866823958332,52.0,39.0
332,88.16852157708333,88.41300633333333,60.0,94.0
333,88.16852157708333,88.42219748958333,64.0,94.0
334,89.05087257708333,89.10785774583331,57.0,55.0
335,88.60969707708333,89.34866603958332,52.0,45.0
336,89.05087257708333,89.49020984583332,69.0,89.0
337,89.05087257708333,89.52145977708332,60.0,105.0
338,89.05087257708333,89.54719501458332,64.0,108.0
339,89.49204807708333,89.78248861458331,57.0,82.0
340,89.93322357708333,90.18138479583332,57.0,94.0
341,89.49204807708333,90.39461962083332,52.0,40.0
342,87.28617057708333,90.43873717083332,45.0,94.0
343,89.93322357708333,90.46079594583333,60.0,111.0
344,89.93322357708333,90.46263417708332,69.0,89.0
345,89.93322357708333,90.47917825833332,64.0,105.0
346,90.37439907708332,90.57660451458332,57.0,84.0
347,90.81557457708332,91.37255864583332,57.0,89.0
348,90.81557457708332,91.49204367708332,53.0,80.0
349,90.81557457708332,91.86520462083332,41.0,102.0
350,91.25675007708332,91.86704285208332,48.0,50.0
351,91.69792557708332,91.90380747708332,53.0,102.0
352,91.69792557708332,91.90564570833332,57.0,94.0
353,91.69792557708332,91.93138094583333,60.0,111.0
354,91.69792557708332,92.01410135208332,65.0,92.0
355,92.58027657708332,92.85417303333332,59.0,94.0
356,92.58027657708332,93.28064268333333,64.0,100.0
357,92.58027657708332,93.29167207083333,68.0,65.0
358,93.02145207708332,93.35968662708332,59.0,66.0
359,92.58027657708332,93.53064213333332,52.0,108.0
360,93.46262757708332,93.64461247083332,64.0,102.0
361,93.46262757708332,93.66850947708332,68.0,99.0
362,93.46262757708332,93.69056825208332,59.0,102.0
363,94.34497857708332,95.02144767708332,60.0,94.0
364,94.34497857708332,95.05637407083333,57.0,97.0
365,94.78615407708332,95.36703515208332,52.0,67.0
366,95.22732957708332,95.63909337708333,60.0,105.0
367,95.22732957708332,95.78982833958332,57.0,102.0
368,95.66850507708332,96.23284207083333,52.0,39.0
369,96.10968057708332,96.39276818958332,60.0,80.0
370,96.10968057708332,96.39276818958332,64.0,84.0
371,96.10968057708332,96.87622300833331,57.0,80.0
372,96.55085607708332,97.15563415833333,52.0,22.0
373,96.99203157708332,97.26776626458332,57.0,92.0
374,96.99203157708332,97.26960449583332,60.0,92.0
375,96.99203157708332,97.29166327083333,64.0,94.0
376,94.34497857708332,97.48100108958332,45.0,102.0
377,97.43320707708332,97.61519197083332,52.0,78.0
378,97.87438257708332,98.35232270208331,69.0,100.0
379,97.87438257708332,98.43320487708331,57.0,111.0
380,98.31555807708332,98.82107167083332,52.0,87.0
381,98.75673357708332,98.97180663333332,64.0,105.0
382,98.75673357708332,98.98283602083332,57.0,114.0
383,98.75673357708332,98.98283602083332,60.0,97.0
384,98.97732132708332,99.36518812083332,52.0,94.0
385,99.19790907708332,99.43687913958331,57.0,114.0
386,97.87438257708332,99.45709968333333,45.0,108.0
387,99.41849682708332,99.58577587083332,59.0,105.0
388,99.63908457708332,99.92033395833332,61.0,99.0
389,99.63908457708332,100.00121613333332,57.0,100.0
390,100.08026007708332,100.16481871458332,57.0,58.0
391,100.30084782708332,100.38356823333332,61.0,93.0
392,100.30084782708332,100.39643585208333,64.0,97.0
393,99.63908457708332,100.62070006458332,52.0,105.0
394,99.63908457708332,100.65930292083331,45.0,114.0
395,100.52143557708332,101.09864018958332,61.0,112.0
396,100.52143557708332,101.15930182083332,57.0,120.0
397,100.52143557708332,101.25856630833331,64.0,114.0
398,101.40378657708332,102.20157893958333,65.0,92.0
399,101.40378657708332,102.20525540208331,62.0,89.0
400,101.40378657708332,102.20893186458332,57.0,82.0
401,102.28613757708332,102.52510763958333,57.0,102.0
402,102.28613757708332,102.56371049583332,62.0,102.0
403,101.40378657708332,102.58576927083331,50.0,92.0
404,102.28613757708332,102.82290110208332,65.0,102.0
405,102.72731307708332,102.85231280208332,57.0,100.0
406,103.16848857708332,103.60414938333332,62.0,73.0
407,103.16848857708332,103.60966407708332,59.0,62.0
408,103.16848857708332,103.85966352708331,55.0,87.0
409,103.60966407708332,104.12988352083332,50.0,48.0
410,104.05083957708332,104.28980963958332,55.0,111.0
411,104.05083957708332,104.34679480833333,67.0,89.0
412,104.05083957708332,104.36517712083332,62.0,100.0
413,104.27142732708333,104.60230895208332,50.0,64.0
414,103.16848857708332,104.67583820208333,43.0,102.0
415,104.49201507708332,104.68870582083332,55.0,73.0
416,104.93319057708332,105.15929302083332,55.0,84.0
417,104.93319057708332,105.53796865833331,60.0,92.0
418,105.37436607708332,105.65010076458333,55.0,55.0
419,104.93319057708332,106.02142347708332,48.0,94.0
420,105.81554157708332,106.05818810208332,55.0,102.0
421,105.81554157708332,106.06370279583332,60.0,102.0
422,105.81554157708332,106.17951136458332,64.0,97.0
423,106.69789257708332,107.18134739583331,57.0,92.0
424,106.69789257708332,107.23281787083332,60.0,87.0
425,106.69789257708332,107.25671487708331,65.0,94.0
426,107.13906807708332,107.70340507083333,48.0,55.0
427,106.69789257708332,107.73281677083332,41.0,94.0
428,107.58024357708332,107.75671377708332,57.0,92.0
429,107.58024357708332,108.03796315833333,60.0,102.0
430,108.02141907708332,108.14641880208332,57.0,102.0
431,107.58024357708332,108.21810982083332,65.0,100.0
432,108.46259457708332,109.16479891458332,59.0,82.0
433,108.46259457708332,109.22178408333332,62.0,84.0
434,108.90377007708332,109.45707768333332,53.0,73.0
435,108.46259457708332,109.53979808958331,47.0,102.0
436,109.34494557708332,109.64457727083331,59.0,94.0
437,109.34494557708332,109.86884148333331,62.0,92.0
438,109.78612107708332,109.94972365833331,59.0,66.0
439,109.78612107708332,109.95340012083332,47.0,87.0
440,109.34494557708332,110.16479671458332,69.0,100.0
441,110.22729657708332,110.49567833958332,59.0,102.0
442,110.22729657708332,110.90192744583332,64.0,100.0
443,110.66847207708332,110.97361846458332,59.0,82.0
444,111.10964757708332,111.34861763958332,59.0,105.0
445,110.22729657708332,111.52876430208332,52.0,114.0
446,111.10964757708332,111.55449953958332,64.0,100.0
447,111.10964757708332,111.57655831458332,68.0,102.0
448,111.55082307708332,111.64641110208332,59.0,92.0
449,111.99199857708332,112.42030645833333,57.0,102.0
450,111.99199857708332,112.46626223958333,60.0,100.0
451,112.65376182708331,112.75854100833331,57.0,97.0
452,112.43317407708332,112.95890821458332,52.0,76.0
453,112.87434957708332,113.09493732708333,57.0,117.0
454,112.87434957708332,113.20890766458332,64.0,108.0
455,113.09493732708333,113.50670112708332,52.0,64.0
456,113.31552507708332,113.60045092083331,57.0,102.0
457,111.99199857708332,113.60228915208333,45.0,102.0
458,113.53611282708331,113.65743608958331,64.0,76.0
459,113.75670057708332,114.05633227083332,57.0,117.0
460,114.19787607708332,114.28978763958332,57.0,108.0
461,113.75670057708332,114.29714056458332,52.0,114.0
462,113.75670057708332,114.30081702708333,45.0,111.0
463,114.41846382708331,114.87802163958332,59.0,108.0
464,114.41846382708331,114.99015374583331,47.0,108.0
465,114.85963932708333,114.99383020833332,57.0,92.0
466,115.08022707708332,115.22728557708332,57.0,102.0
467,115.08022707708332,115.32838829583332,49.0,105.0
468,115.08022707708332,115.33390298958332,61.0,102.0
469,115.30081482708331,115.42765278333331,57.0,84.0
470,115.52140257708332,115.82103427083332,57.0,105.0
471,115.52140257708332,116.19787167708333,62.0,100.0
472,115.52140257708332,116.20706283333331,65.0,82.0
473,115.96257807708332,116.26220977083332,57.0,97.0
474,116.40375357708332,116.60595901458332,57.0,111.0
475,115.52140257708332,116.76956159583332,50.0,117.0
476,116.62434132708333,116.90742893958333,53.0,42.0
477,116.40375357708332,116.95154648958332,65.0,111.0
478,116.84492907708332,117.05632567083332,57.0,111.0
479,117.28610457708332,117.74566238958332,59.0,82.0
480,117.28610457708332,117.76220647083332,62.0,89.0
481,117.28610457708332,117.81000048333331,55.0,80.0
482,117.72728007708332,118.29896999583332,50.0,73.0
483,117.28610457708332,118.47727842708332,43.0,102.0
484,118.16845557708332,118.61330753958332,55.0,105.0
485,118.16845557708332,118.62249869583331,59.0,108.0
486,118.16845557708332,118.69602794583332,62.0,108.0
487,118.60963107708332,118.94418916458332,43.0,97.0
488,119.05080657708332,119.31367364583332,55.0,94.0
489,119.05080657708332,119.66477581458332,60.0,102.0
490,119.05080657708332,119.69602574583331,64.0,100.0
491,119.49198207708332,119.75117268333332,55.0,80.0
492,119.05080657708332,120.41477416458332,48.0,100.0
493,120.37433307708332,120.58940613333331,52.0,94.0
494,119.93315757708332,120.62065606458333,64.0,97.0
495,120.81550857708332,121.24381645833333,57.0,94.0
496,120.81550857708332,121.36881618333332,60.0,100.0
497,120.81550857708332,121.40741903958332,65.0,100.0
498,121.69785957708332,121.83388868958332,57.0,108.0
499,121.25668407708332,121.85778569583331,48.0,45.0
500,120.81550857708332,121.97543249583332,41.0,102.0
501,121.69785957708332,121.97910895833331,60.0,105.0
502,121.91844732708333,122.16109385208333,57.0,60.0
503,121.69785957708332,122.22359371458332,65.0,100.0
504,122.13903507708332,122.40006391458331,60.0,87.0
505,122.58021057708332,123.14822403333332,62.0,84.0
506,122.58021057708332,123.16109165208331,59.0,82.0
507,123.02138607708332,123.66660524583332,53.0,66.0
508,123.46256157708332,123.74013449583332,59.0,105.0
509,123.46256157708332,123.74564918958332,62.0,111.0
510,122.58021057708332,123.76770796458331,47.0,100.0
511,124.34491257708332,125.05446983958332,59.0,82.0
512,124.34491257708332,125.10410208333332,68.0,63.0
513,125.22726357708332,125.54711581458332,59.0,97.0
514,125.22726357708332,125.58571867083332,64.0,100.0
515,125.22726357708332,125.61329213958332,68.0,90.0
516,124.34491257708332,125.70704193333333,52.0,94.0
517,126.10961457708332,126.64821633333332,60.0,64.0
518,126.10961457708332,126.69784857708332,64.0,84.0
519,126.10961457708332,126.71439265833331,57.0,44.0
520,126.55079007708332,127.13902407708332,52.0,42.0
521,126.99196557708332,127.21806802083333,57.0,97.0
522,126.99196557708332,127.33203835833332,60.0,102.0
523,126.99196557708332,127.45887631458332,64.0,97.0
524,127.43314107708332,128.0581397020833,52.0,34.0
525,127.87431657708332,128.30997738333332,57.0,82.0
526,127.87431657708332,128.33203615833332,60.0,76.0
527,127.87431657708332,128.4037271770833,64.0,89.0
528,128.31549207708332,128.81181451458332,52.0,40.0
529,128.7566675770833,128.96806417083332,57.0,102.0
530,128.7566675770833,128.98277002083333,60.0,108.0
531,128.7566675770833,129.28791640833333,64.0,105.0
532,128.97725532708333,129.3320339583333,52.0,69.0
533,129.19784307708332,129.35960742708332,57.0,100.0
534,126.10961457708332,129.4312984458333,45.0,80.0
535,129.63901857708333,130.31548767708333,57.0,108.0
536,129.63901857708333,130.3357082208333,64.0,108.0
537,129.63901857708333,130.58570767083333,52.0,105.0
538,130.5213695770833,130.73644263333333,57.0,114.0
539,130.5213695770833,130.8026189583333,64.0,114.0
540,130.74195732708333,131.2290886083333,52.0,82.0
541,129.63901857708333,131.24195622708334,45.0,108.0
542,130.96254507708332,131.24379445833333,57.0,94.0
543,131.1831328270833,131.30813255208332,69.0,94.0
544,131.40372057708333,131.67577880208333,57.0,114.0
545,131.40372057708333,131.91291063333333,69.0,105.0
546,131.40372057708333,131.92577825208332,45.0,108.0
547,131.40372057708333,131.92577825208332,52.0,94.0
548,131.84489607708332,132.00666042708332,57.0,67.0
549,132.0654838270833,132.66107075208333,59.0,108.0
550,132.0654838270833,132.71070299583332,47.0,111.0
551,132.72724707708332,133.1095991770833,57.0,97.0
552,132.72724707708332,133.1095991770833,61.0,105.0
553,132.72724707708332,133.12430502708332,49.0,116.0
554,133.16842257708333,133.96621493958332,65.0,92.0
555,133.16842257708333,133.9698914020833,62.0,89.0
556,133.16842257708333,133.97356786458332,57.0,82.0
557,134.0507735770833,134.28974363958332,57.0,102.0
558,134.0507735770833,134.32834649583333,62.0,102.0
559,133.16842257708333,134.35040527083333,50.0,92.0
560,134.0507735770833,134.58753710208333,65.0,102.0
561,134.49194907708332,134.6169488020833,57.0,100.0
562,134.93312457708333,135.36878538333332,62.0,73.0
563,134.93312457708333,135.37430007708332,59.0,62.0
564,134.93312457708333,135.62429952708334,55.0,87.0
565,135.37430007708332,135.8945195208333,50.0,48.0
566,135.8154755770833,136.05444563958332,55.0,111.0
567,135.8154755770833,136.11143080833332,67.0,89.0
568,135.8154755770833,136.12981312083332,62.0,100.0
569,136.0360633270833,136.36694495208332,50.0,64.0
570,134.93312457708333,136.44047420208332,43.0,102.0
571,136.25665107708332,136.45334182083332,55.0,73.0
572,136.69782657708333,136.92392902083333,55.0,84.0
573,136.69782657708333,137.30260465833334,60.0,92.0
574,137.13900207708332,137.41473676458332,55.0,55.0
575,136.69782657708333,137.7860594770833,48.0,94.0
576,137.5801775770833,137.8228241020833,55.0,102.0
577,137.5801775770833,137.8283387958333,60.0,102.0
578,137.5801775770833,137.94414736458333,64.0,97.0
579,138.46252857708333,138.9459833958333,57.0,92.0
580,138.46252857708333,138.99745387083334,60.0,87.0
581,138.46252857708333,139.0213508770833,65.0,94.0
582,138.90370407708332,139.46804107083332,48.0,55.0
583,138.46252857708333,139.49745277083332,41.0,94.0
584,139.3448795770833,139.52134977708332,57.0,92.0
585,139.3448795770833,139.80259915833332,60.0,102.0
586,139.78605507708332,139.9110548020833,57.0,102.0
587,139.3448795770833,139.98274582083332,65.0,100.0
588,140.22723057708333,140.92943491458334,59.0,82.0
589,140.22723057708333,140.98642008333331,62.0,84.0
590,140.66840607708332,141.22171368333332,53.0,73.0
591,140.22723057708333,141.3044340895833,47.0,102.0
592,141.1095815770833,141.40921327083333,59.0,94.0
593,141.1095815770833,141.6334774833333,62.0,92.0
594,141.55075707708332,141.7143596583333,59.0,66.0
595,141.55075707708332,141.71803612083332,47.0,87.0
596,141.1095815770833,141.9294327145833,69.0,100.0
597,141.99193257708333,142.26031433958332,59.0,102.0
598,141.99193257708333,142.66656344583333,64.0,100.0
599,142.43310807708332,142.73825446458332,59.0,82.0
600,142.8742835770833,143.11325363958332,59.0,105.0
601,141.99193257708333,143.2934003020833,52.0,114.0
602,142.8742835770833,143.31913553958333,64.0,100.0
603,142.8742835770833,143.34119431458333,68.0,102.0
604,143.31545907708332,143.41104710208333,59.0,92.0
605,143.75663457708333,144.18494245833332,57.0,102.0
606,143.75663457708333,144.23089823958333,60.0,100.0
607,144.4183978270833,144.52317700833333,57.0,97.0
608,144.19781007708332,144.7235442145833,52.0,76.0
609,144.6389855770833,144.85957332708333,57.0,117.0
610,144.6389855770833,144.9735436645833,64.0,108.0
611,144.85957332708333,145.2713371270833,52.0,64.0
612,145.08016107708332,145.36508692083333,57.0,102.0
613,143.75663457708333,145.36692515208333,45.0,102.0
614,145.30074882708334,145.4220720895833,64.0,76.0
615,145.52133657708333,145.8209682708333,57.0,117.0
616,145.96251207708332,146.05442363958332,57.0,108.0
617,145.52133657708333,146.0617765645833,52.0,114.0
618,145.52133657708333,146.06545302708332,45.0,111.0
619,146.1830998270833,146.64265763958332,59.0,108.0
620,146.1830998270833,146.7547897458333,47.0,108.0
621,146.62427532708332,146.75846620833332,57.0,92.0
622,146.84486307708332,146.9919215770833,57.0,102.0
623,146.84486307708332,147.09302429583332,49.0,105.0
624,146.84486307708332,147.09853898958332,61.0,102.0
625,147.06545082708334,147.1922887833333,57.0,84.0
626,147.28603857708333,147.5856702708333,57.0,105.0
627,147.28603857708333,147.96250767708332,62.0,100.0
628,147.28603857708333,147.97169883333333,65.0,82.0
629,147.72721407708332,148.02684577083332,57.0,97.0
630,148.1683895770833,148.37059501458333,57.0,111.0
631,147.28603857708333,148.53419759583332,50.0,117.0
632,148.38897732708332,148.67206493958332,53.0,42.0
633,148.1683895770833,148.71618248958333,65.0,111.0
634,148.60956507708332,148.8209616708333,57.0,111.0
635,149.05074057708333,149.5102983895833,59.0,82.0
636,149.05074057708333,149.52684247083332,62.0,89.0
637,149.05074057708333,149.57463648333334,55.0,80.0
638,149.49191607708332,150.0636059958333,50.0,73.0
639,149.05074057708333,150.24191442708332,43.0,102.0
640,149.9330915770833,150.37794353958333,55.0,105.0
641,149.9330915770833,150.3871346958333,59.0,108.0
642,149.9330915770833,150.46066394583332,62.0,108.0
643,150.37426707708332,150.70882516458332,43.0,97.0
644,150.81544257708333,151.06360379583333,59.0,92.0
645,150.81544257708333,151.51580868333332,68.0,77.0
646,150.81544257708333,151.52316160833334,64.0,92.0
647,151.25661807708332,151.5360292270833,59.0,73.0
648,150.81544257708333,151.81544037708332,52.0,92.0
649,151.6977935770833,151.96617533958332,59.0,108.0
650,151.6977935770833,152.00845465833333,64.0,114.0
651,151.6977935770833,152.05624867083333,68.0,109.0
652,152.58014457708333,153.06727585833332,64.0,94.0
653,152.58014457708333,153.06727585833332,69.0,108.0
654,153.02132007708332,153.63161285208332,52.0,78.0
655,152.58014457708333,153.75661257708333,45.0,102.0
656,153.4624955770833,154.20514100208334,64.0,108.0
657,153.4624955770833,154.2400673958333,69.0,114.0
658,153.4624955770833,154.26947909583333,72.0,114.0
659,153.90367107708332,154.31359664583331,52.0,80.0
660,153.90367107708332,154.3154348770833,45.0,76.0
661,154.34484657708333,154.85955132708332,65.0,84.0
662,154.34484657708333,154.92205118958333,70.0,102.0
663,154.78602207708332,155.36690315208332,53.0,49.0
664,154.34484657708333,155.5139616520833,46.0,105.0
665,155.2271975770833,155.51763811458332,65.0,102.0
666,155.2271975770833,155.73638763333332,70.0,109.0
667,155.44778532708332,155.79704926458334,53.0,76.0
668,155.66837307708332,156.00293116458332,65.0,102.0
669,155.88896082708334,156.0268281708333,70.0,79.0
670,156.10954857708333,156.70513550208332,65.0,82.0
671,156.10954857708333,156.79704706458332,70.0,90.0
672,156.10954857708333,157.19042855208332,53.0,71.0
673,156.10954857708333,157.22167848333333,46.0,65.0
674,156.9918995770833,157.2492519520833,65.0,100.0
675,156.9918995770833,157.42572215208332,70.0,112.0
676,157.87425057708333,158.01395615208332,65.0,71.0
677,157.87425057708333,158.56542552708333,59.0,66.0
678,157.87425057708333,158.5893225333333,64.0,80.0
679,158.7566015770833,159.00108633333332,59.0,100.0
680,158.7566015770833,159.26579163333332,68.0,99.0
681,157.87425057708333,159.50476169583334,52.0,89.0
682,158.7566015770833,159.54704101458333,64.0,100.0
683,159.19777707708332,159.56909978958333,59.0,94.0
684,159.63895257708333,161.2713019270833,52.0,105.0
685,159.63895257708333,161.2878460083333,59.0,92.0
686,159.63895257708333,161.2915224708333,64.0,94.0
687,159.63895257708333,161.34483117708334,71.0,105.0
688,161.40365457708333,161.75659497708332,52.0,100.0
689,161.40365457708333,161.77681552083334,64.0,80.0
690,161.84483007708332,162.06357959583332,50.0,105.0
691,161.84483007708332,162.09850598958332,62.0,105.0
692,162.2860055770833,162.5672549583333,47.0,97.0
693,162.2860055770833,162.81909263958332,59.0,105.0
694,162.72718107708332,162.9937246083333,45.0,87.0
695,162.72718107708332,163.00291576458332,57.0,97.0
696,163.16835657708333,166.55846924583332,52.0,87.0
697,163.16835657708333,166.6069766875,56.0,82.0
698,163.16835657708333,166.6293647375,44.0,96.0
699,166.72264827916666,167.26371959791666,57.0,73.0
700,166.72264827916666,167.28761660416666,59.0,89.0
701,166.72264827916666,167.29864599166666,64.0,89.0
702,167.60746884166664,167.78945373541666,57.0,82.0
703,167.60746884166664,167.81518897291664,59.0,89.0
704,167.16629334166666,167.82989482291666,52.0,39.0
705,167.60746884166664,167.83724774791665,64.0,89.0
706,168.04864434166666,168.63136364791666,52.0,21.0
707,168.48981984166664,168.78945153541665,64.0,94.0
708,168.48981984166664,168.82437792916664,57.0,94.0
709,168.93099534166666,169.55231750416667,52.0,30.0
710,166.72264827916666,169.64974376041664,45.0,100.0
711,169.37217084166664,169.76922879166665,60.0,94.0
712,169.37217084166664,169.79496402916666,64.0,94.0
713,169.37217084166664,169.80047872291667,57.0,89.0
714,169.81334634166666,170.11113980416664,45.0,87.0
715,170.25452184166664,170.84643230416665,65.0,89.0
716,170.25452184166664,170.86113815416667,62.0,80.0
717,170.25452184166664,170.88319692916664,57.0,80.0
718,171.13687284166664,171.48613677916666,65.0,89.0
719,171.13687284166664,171.51738671041664,62.0,92.0
720,172.01922384166664,172.27473798541666,62.0,84.0
721,172.01922384166664,172.40525240416665,65.0,84.0
722,172.90157484166664,173.16811837291667,57.0,97.0
723,172.90157484166664,173.44201482916665,62.0,100.0
724,170.25452184166664,173.45120598541666,50.0,78.0
725,173.34275034166666,173.58172040416665,57.0,97.0
726,172.90157484166664,173.62216149166665,65.0,97.0
727,173.78392584166664,174.31333644166665,59.0,82.0
728,173.78392584166664,174.34642460416666,55.0,78.0
729,173.78392584166664,174.40340977291666,62.0,82.0
730,174.22510134166666,174.92179098541666,50.0,46.0
731,174.66627684166664,175.10929057291665,59.0,84.0
732,174.66627684166664,175.23429029791666,62.0,87.0
733,175.10745234166666,175.69568634166666,50.0,30.0
734,175.54862784166664,175.87399477291666,59.0,67.0
735,175.54862784166664,175.91075939791665,62.0,67.0
736,173.78392584166664,176.62399312291666,43.0,100.0
737,175.98980334166666,176.69016944791665,50.0,13.0
738,176.43097884166664,176.80413978541665,59.0,114.0
739,176.43097884166664,176.85377202916666,55.0,102.0
740,176.43097884166664,176.97141882916665,62.0,111.0
741,176.87215434166666,177.23060943541665,43.0,94.0
742,177.31332984166664,177.83354928541667,60.0,78.0
743,177.31332984166664,177.92729907916666,55.0,87.0
744,178.19568084166664,178.45854791041666,60.0,84.0
745,178.19568084166664,178.68832681666666,64.0,87.0
746,179.07803184166664,179.47508979166665,64.0,97.0
747,179.07803184166664,179.58906012916665,60.0,102.0
748,177.31332984166664,180.25449984166664,48.0,100.0
749,179.96038284166664,180.68648418541665,55.0,102.0
750,179.96038284166664,180.78574867291667,60.0,105.0
751,179.96038284166664,180.81332214166665,64.0,100.0
752,180.40155834166666,180.84089561041665,43.0,105.0
753,180.84273384166664,181.61479096666665,57.0,82.0
754,180.84273384166664,181.61479096666665,62.0,82.0
755,180.84273384166664,181.62030566041665,65.0,87.0
756,181.72508484166664,182.35375992916664,65.0,105.0
757,181.72508484166664,182.41625979166665,62.0,102.0
758,182.60743584166664,182.85375882916665,57.0,97.0
759,182.60743584166664,183.14052290416666,65.0,102.0
760,182.60743584166664,183.22140507916666,62.0,100.0
761,180.84273384166664,183.77838914791664,50.0,87.0
762,183.48978684166664,184.24897634791665,57.0,105.0
763,183.48978684166664,184.30412328541667,62.0,102.0
764,183.48978684166664,184.30596151666666,65.0,97.0
765,183.93096234166666,184.33537321666665,50.0,105.0
766,184.37213784166664,185.05595986666665,60.0,84.0
767,184.37213784166664,185.09823918541665,57.0,92.0
768,185.25448884166664,185.64051740416664,64.0,97.0
769,185.25448884166664,185.72139957916664,60.0,100.0
770,185.25448884166664,185.80228175416664,57.0,97.0
771,184.81331334166666,186.29125126666665,52.0,84.0
772,186.13683984166664,186.61845642916666,60.0,80.0
773,186.13683984166664,186.64786812916665,64.0,82.0
774,186.13683984166664,186.69014744791664,57.0,76.0
775,184.37213784166664,187.28021967916666,45.0,108.0
776,186.57801534166666,187.36477831666664,52.0,36.0
777,187.01919084166664,187.51551327916667,60.0,111.0
778,187.01919084166664,187.58168960416666,57.0,105.0
779,187.46036634166666,187.71771871666664,43.0,89.0
780,187.01919084166664,187.73058633541666,64.0,108.0
781,187.90154184166664,188.47874645416664,57.0,100.0
782,187.90154184166664,188.53021692916664,60.0,94.0
783,187.90154184166664,188.69198127916667,53.0,87.0
784,188.78389284166664,189.44565609166665,57.0,114.0
785,188.78389284166664,189.49896479791664,60.0,108.0
786,188.78389284166664,189.54124411666666,65.0,89.0
787,188.34271734166666,189.72139077916665,48.0,32.0
788,189.66624384166664,190.21771321666665,57.0,94.0
789,189.66624384166664,190.27837484791667,65.0,87.0
790,189.66624384166664,190.29491892916664,60.0,92.0
791,187.90154184166664,190.98609387916665,41.0,100.0
792,190.54859484166664,191.01182911666666,57.0,108.0
793,190.54859484166664,191.07249074791665,60.0,105.0
794,190.98977034166666,191.12763768541666,53.0,100.0
795,190.54859484166664,191.18829931666664,65.0,97.0
796,191.43094584166664,192.16991480416664,64.0,100.0
797,191.43094584166664,192.17359126666665,59.0,105.0
798,192.31329684166664,192.60741384166664,59.0,100.0
799,192.31329684166664,193.03755995416665,68.0,99.0
800,192.31329684166664,193.05594226666665,64.0,100.0
801,193.19564784166664,193.89049925416666,59.0,100.0
802,193.19564784166664,193.91439626041665,68.0,102.0
803,193.19564784166664,193.92726387916665,64.0,97.0
804,194.07799884166664,194.60557121041666,64.0,92.0
805,194.07799884166664,194.62395352291665,71.0,102.0
806,191.43094584166664,194.63682114166664,52.0,117.0
807,194.07799884166664,194.65887991666665,59.0,102.0
808,194.96034984166664,195.60924547291665,64.0,92.0
809,194.96034984166664,195.62027486041666,60.0,82.0
810,194.96034984166664,195.62946601666664,57.0,80.0
811,195.40152534166666,196.07064151666665,52.0,49.0
812,195.84270084166664,196.33167035416665,64.0,87.0
813,195.84270084166664,196.35189089791666,57.0,92.0
814,195.84270084166664,196.37211144166665,60.0,89.0
815,196.72505184166664,197.15335972291666,64.0,97.0
816,196.72505184166664,197.16806557291665,57.0,102.0
817,196.72505184166664,197.19747727291664,60.0,102.0
818,197.16622734166666,197.78203481041666,52.0,76.0
819,194.96034984166664,197.88129929791666,45.0,105.0
820,197.60740284166664,197.96953439791665,57.0,97.0
821,197.60740284166664,197.98056378541665,60.0,105.0
822,197.60740284166664,197.98975494166666,64.0,100.0
823,198.04857834166665,198.42173928541666,45.0,105.0
824,198.48975384166664,199.04857614166664,65.0,82.0
825,198.48975384166664,199.05409083541664,62.0,87.0
826,198.48975384166664,199.06328199166666,57.0,80.0
827,199.37210484166667,199.85555966041665,62.0,100.0
828,199.37210484166667,199.87210374166665,65.0,97.0
829,199.81328034166665,200.06695625416666,57.0,58.0
830,200.25445584166664,200.50813175416664,57.0,97.0
831,200.25445584166664,200.85923392291664,65.0,97.0
832,200.25445584166664,200.94746902291666,62.0,105.0
833,200.69563134166665,200.96217487291665,57.0,84.0
834,198.48975384166664,201.36474751666665,50.0,97.0
835,201.13680684166667,201.84268764166666,62.0,105.0
836,201.13680684166667,201.84820233541666,57.0,102.0
837,201.57798234166665,201.87026111041666,50.0,114.0
838,201.13680684166667,201.91070219791663,65.0,102.0
839,202.01915784166664,202.25445144166665,53.0,60.0
840,202.01915784166664,202.38312762916667,55.0,53.0
841,202.01915784166664,202.74525918541664,59.0,89.0
842,202.01915784166664,202.76180326666665,62.0,92.0
843,202.23974559166666,202.86106775416664,50.0,82.0
844,202.90150884166667,203.23055223541667,59.0,100.0
845,202.90150884166667,203.28937563541666,55.0,92.0
846,202.90150884166667,203.31327264166666,62.0,97.0
847,203.78385984166664,203.83165385416666,55.0,27.0
848,203.34268434166665,204.03385929166666,50.0,47.0
849,203.78385984166664,204.29304989791666,59.0,102.0
850,203.78385984166664,204.32429982916665,67.0,92.0
851,203.78385984166664,204.35554976041664,62.0,97.0
852,204.22503534166665,204.82246049791667,50.0,41.0
853,202.01915784166664,204.84451927291664,43.0,102.0
854,204.66621084166667,205.05407763541666,59.0,108.0
855,204.66621084166667,205.08165110416667,67.0,84.0
856,204.66621084166667,205.10187164791665,55.0,97.0
857,204.66621084166667,205.20481259791666,62.0,102.0
858,205.10738634166665,205.49341490416666,43.0,102.0
859,205.54856184166664,206.20113393541664,55.0,78.0
860,205.54856184166664,206.20113393541664,60.0,89.0
861,205.54856184166664,206.21767801666664,64.0,94.0
862,206.43091284166667,206.64047120416666,55.0,84.0
863,206.43091284166667,206.95664697916663,60.0,97.0
864,206.43091284166667,207.00260276041666,64.0,97.0
865,206.87208834166665,207.13127894791666,55.0,34.0
866,207.31326384166664,207.61841022916664,55.0,97.0
867,207.31326384166664,208.02282110416667,60.0,108.0
868,207.31326384166664,208.05590926666665,64.0,102.0
869,207.75443934166665,208.08348273541665,55.0,53.0
870,205.54856184166664,208.37024681041666,48.0,84.0
871,208.19561484166667,208.66804027291664,55.0,94.0
872,208.19561484166667,208.67171673541665,60.0,108.0
873,208.19561484166667,208.74524598541666,64.0,105.0
874,208.63679034166665,208.96215727291664,48.0,114.0
875,209.07796584166664,209.73053793541663,62.0,92.0
876,209.07796584166664,209.73237616666665,65.0,92.0
877,209.07796584166664,209.75443494166666,57.0,92.0
878,209.96031684166667,210.61288893541666,65.0,92.0
879,209.96031684166667,210.65700648541664,62.0,94.0
880,209.96031684166667,210.68090349166664,57.0,100.0
881,210.84266784166664,211.48788701041664,62.0,102.0
882,210.84266784166664,211.48788701041664,65.0,105.0
883,209.07796584166664,211.59450442291666,50.0,108.0
884,211.28384334166665,211.62207789166666,57.0,66.0
885,211.72501884166667,211.78016577916665,57.0,53.0
886,211.72501884166667,212.19376781041666,62.0,97.0
887,211.72501884166667,212.33163515416666,50.0,100.0
888,211.72501884166667,212.48420834791665,65.0,97.0
889,212.16619434166665,212.48604657916667,57.0,76.0
890,212.60736984166664,213.18457445416664,60.0,94.0
891,212.60736984166664,213.21766261666664,64.0,92.0
892,212.60736984166664,213.25626547291665,57.0,102.0
893,213.04854534166665,213.66986750416666,52.0,39.0
894,213.48972084166667,213.73420559791666,60.0,94.0
895,213.48972084166667,213.74339675416667,64.0,94.0
896,214.37207184166664,214.42905701041664,57.0,55.0
897,213.93089634166665,214.66986530416665,52.0,45.0
898,214.37207184166664,214.81140911041666,69.0,89.0
899,214.37207184166664,214.84265904166665,60.0,105.0
900,214.37207184166664,214.86839427916664,64.0,108.0
901,214.81324734166665,215.10368787916664,57.0,82.0
902,215.25442284166667,215.50258406041667,57.0,94.0
903,214.81324734166665,215.71581888541664,52.0,40.0
904,212.60736984166664,215.75993643541665,45.0,94.0
905,215.25442284166667,215.78199521041665,60.0,111.0
906,215.25442284166667,215.78383344166664,69.0,89.0
907,215.25442284166667,215.80037752291665,64.0,105.0
908,215.69559834166665,215.89780377916665,57.0,84.0
909,216.13677384166664,216.69375791041665,57.0,89.0
910,216.13677384166664,216.81324294166666,53.0,80.0
911,216.13677384166664,217.18640388541667,41.0,102.0
912,216.57794934166665,217.18824211666666,48.0,50.0
913,217.01912484166667,217.22500674166665,53.0,102.0
914,217.01912484166667,217.22684497291664,57.0,94.0
915,217.01912484166667,217.25258021041665,60.0,111.0
916,217.01912484166667,217.33530061666664,65.0,92.0
917,217.90147584166664,218.17537229791665,59.0,94.0
918,217.90147584166664,218.60184194791665,64.0,100.0
919,217.90147584166664,218.61287133541666,68.0,65.0
920,218.34265134166665,218.68088589166666,59.0,66.0
921,217.90147584166664,218.85184139791664,52.0,108.0
922,218.78382684166667,218.96581173541665,64.0,102.0
923,218.78382684166667,218.98970874166665,68.0,99.0
924,218.78382684166667,219.01176751666665,59.0,102.0
925,219.66617784166664,220.34264694166666,60.0,94.0
926,219.66617784166664,220.37757333541666,57.0,97.0
927,220.10735334166665,220.68823441666666,52.0,67.0
928,220.54852884166667,220.96029264166665,60.0,105.0
929,220.54852884166667,221.11102760416665,57.0,102.0
930,220.98970434166665,221.55404133541666,52.0,39.0
931,221.43087984166664,221.71396745416666,60.0,80.0
932,221.43087984166664,221.71396745416666,64.0,84.0
933,221.43087984166664,222.19742227291664,57.0,80.0
934,221.87205534166665,222.47683342291666,52.0,22.0
935,222.31323084166667,222.58896552916664,57.0,92.0
936,222.31323084166667,222.59080376041666,60.0,92.0
937,222.31323084166667,222.61286253541664,64.0,94.0
938,219.66617784166664,222.80220035416664,45.0,102.0
939,222.75440634166665,222.93639123541664,52.0,78.0
940,223.19558184166664,223.67352196666667,69.0,100.0
941,223.19558184166664,223.75440414166667,57.0,111.0
942,223.63675734166665,224.14227093541666,52.0,87.0
943,224.07793284166667,224.29300589791666,64.0,105.0
944,224.07793284166667,224.30403528541666,57.0,114.0
945,224.07793284166667,224.30403528541666,60.0,97.0
946,224.29852059166666,224.68638738541665,52.0,94.0
947,224.51910834166665,224.75807840416667,57.0,114.0
948,223.19558184166664,224.77829894791665,45.0,108.0
949,224.73969609166664,224.90697513541664,59.0,105.0
950,224.96028384166664,225.24153322291664,61.0,99.0
951,224.96028384166664,225.32241539791664,57.0,100.0
952,225.40145934166665,225.48601797916666,57.0,58.0
953,225.62204709166664,225.70476749791663,61.0,93.0
954,225.62204709166664,225.71763511666666,64.0,97.0
955,224.96028384166664,225.94189932916666,52.0,105.0
956,224.96028384166664,225.98050218541664,45.0,114.0
957,225.84263484166667,226.41983945416666,61.0,112.0
958,225.84263484166667,226.48050108541665,57.0,120.0
959,225.84263484166667,226.57976557291664,64.0,114.0
960,226.72498584166664,227.52277820416666,65.0,92.0
961,226.72498584166664,227.52645466666667,62.0,89.0
962,226.72498584166664,227.53013112916665,57.0,82.0
963,227.60733684166667,227.84630690416665,57.0,102.0
964,227.60733684166667,227.88490976041666,62.0,102.0
965,226.72498584166664,227.90696853541664,50.0,92.0
966,227.60733684166667,228.14410036666663,65.0,102.0
967,228.04851234166665,228.17351206666666,57.0,100.0
968,228.48968784166664,228.92534864791665,62.0,73.0
969,228.48968784166664,228.93086334166665,59.0,62.0
970,228.48968784166664,229.18086279166664,55.0,87.0
971,228.93086334166665,229.45108278541665,50.0,48.0
972,229.37203884166667,229.61100890416665,55.0,111.0
973,229.37203884166667,229.66799407291666,67.0,89.0
974,229.37203884166667,229.68637638541665,62.0,100.0
975,229.59262659166666,229.92350821666665,50.0,64.0
976,228.48968784166664,229.99703746666665,43.0,102.0
977,229.81321434166665,230.00990508541665,55.0,73.0
978,230.25438984166664,230.48049228541666,55.0,84.0
979,230.25438984166664,230.85916792291664,60.0,92.0
980,230.69556534166665,230.97130002916666,55.0,55.0
981,230.25438984166664,231.34262274166664,48.0,94.0
982,231.13674084166666,231.37938736666666,55.0,102.0
983,231.13674084166666,231.38490206041666,60.0,102.0
984,231.13674084166666,231.50071062916663,64.0,97.0
985,232.01909184166664,232.50254666041667,57.0,92.0
986,232.01909184166664,232.55401713541664,60.0,87.0
987,232.01909184166664,232.57791414166667,65.0,94.0
988,232.46026734166665,233.02460433541665,48.0,55.0
989,232.01909184166664,233.05401603541665,41.0,94.0
990,232.90144284166666,233.07791304166665,57.0,92.0
991,232.90144284166666,233.35916242291665,60.0,102.0
992,233.34261834166665,233.46761806666666,57.0,102.0
993,232.90144284166666,233.53930908541665,65.0,100.0
994,233.78379384166664,234.48599817916664,59.0,82.0
995,233.78379384166664,234.54298334791665,62.0,84.0
996,234.22496934166665,234.77827694791665,53.0,73.0
997,233.78379384166664,234.86099735416667,47.0,102.0
998,234.66614484166666,234.96577653541664,59.0,94.0
999,234.66614484166666,235.19004074791667,62.0,92.0
1000,235.10732034166665,235.27092292291667,59.0,66.0
1001,235.10732034166665,235.27459938541665,47.0,87.0
1002,234.66614484166666,235.48599597916666,69.0,100.0
1003,235.54849584166664,235.81687760416665,59.0,102.0
1004,235.54849584166664,236.22312671041664,64.0,100.0
1005,235.98967134166665,236.29481772916665,59.0,82.0
1006,236.43084684166666,236.66981690416665,59.0,105.0
1007,235.54849584166664,236.84996356666664,52.0,114.0
1008,236.43084684166666,236.87569880416663,64.0,100.0
1009,236.43084684166666,236.89775757916664,68.0,102.0
1010,236.87202234166665,236.96761036666663,59.0,92.0
1011,237.31319784166664,237.74150572291666,57.0,102.0
1012,237.31319784166664,237.78746150416666,60.0,100.0
1013,237.97496109166667,238.07974027291664,57.0,97.0
1014,237.75437334166665,238.28010747916665,52.0,76.0
1015,238.19554884166666,238.41613659166666,57.0,117.0
1016,238.19554884166666,238.53010692916666,64.0,108.0
1017,238.41613659166666,238.82790039166665,52.0,64.0
1018,238.63672434166665,238.92165018541664,57.0,102.0
1019,237.31319784166664,238.92348841666666,45.0,102.0
1020,238.85731209166664,238.97863535416667,64.0,76.0
1021,239.07789984166664,239.37753153541667,57.0,117.0
1022,239.51907534166665,239.61098690416665,57.0,108.0
1023,239.07789984166664,239.61833982916664,52.0,114.0
1024,239.07789984166664,239.62201629166665,45.0,111.0
1025,239.73966309166667,240.19922090416665,59.0,108.0
1026,239.73966309166667,240.31135301041667,47.0,108.0
1027,240.18083859166666,240.31502947291665,57.0,92.0
1028,240.40142634166665,240.54848484166666,57.0,102.0
1029,240.40142634166665,240.64958756041665,49.0,105.0
1030,240.40142634166665,240.65510225416665,61.0,102.0
1031,240.62201409166664,240.74885204791667,57.0,84.0
1032,240.84260184166664,241.14223353541666,57.0,105.0
1033,240.84260184166664,241.51907094166666,62.0,100.0
1034,240.84260184166664,241.52826209791664,65.0,82.0
1035,241.28377734166665,241.58340903541665,57.0,97.0
1036,241.72495284166666,241.92715827916663,57.0,111.0
1037,240.84260184166664,242.09076086041665,50.0,117.0
1038,241.94554059166666,242.22862820416665,53.0,42.0
1039,241.72495284166666,242.27274575416664,65.0,111.0
1040,242.16612834166665,242.37752493541666,57.0,111.0
1041,242.60730384166663,243.06686165416664,59.0,82.0
1042,242.60730384166663,243.08340573541665,62.0,89.0
1043,242.60730384166663,243.13119974791664,55.0,80.0
1044,243.04847934166665,243.62016926041665,50.0,73.0
1045,242.60730384166663,243.79847769166665,43.0,102.0
1046,243.48965484166666,243.93450680416663,55.0,105.0
1047,243.48965484166666,243.94369796041667,59.0,108.0
1048,243.48965484166666,244.01722721041665,62.0,108.0
1049,243.93083034166665,244.26538842916665,43.0,97.0
1050,244.37200584166663,244.63487291041665,55.0,94.0
1051,244.37200584166663,244.98597507916665,60.0,102.0
1052,244.37200584166663,245.01722501041667,64.0,100.0
1053,244.81318134166665,245.07237194791665,55.0,80.0
1054,244.37200584166663,245.73597342916665,48.0,100.0
1055,245.69553234166665,245.91060539791664,52.0,94.0
1056,245.25435684166666,245.94185532916666,64.0,97.0
1057,246.13670784166663,246.56501572291666,57.0,94.0
1058,246.13670784166663,246.69001544791666,60.0,100.0
1059,246.13670784166663,246.72861830416664,65.0,100.0
1060,247.01905884166666,247.15508795416665,57.0,108.0
1061,246.57788334166665,247.17898496041664,48.0,45.0
1062,246.13670784166663,247.29663176041663,41.0,102.0
1063,247.01905884166666,247.30030822291667,60.0,105.0
1064,247.23964659166666,247.48229311666665,57.0,60.0
1065,247.01905884166666,247.54479297916663,65.0,100.0
1066,247.46023434166665,247.72126317916667,60.0,87.0
1067,247.90140984166663,248.46942329791665,62.0,84.0
1068,247.90140984166663,248.48229091666667,59.0,82.0
1069,248.34258534166665,248.98780451041665,53.0,66.0
1070,248.78376084166666,249.06133376041663,59.0,105.0
1071,248.78376084166666,249.06684845416663,62.0,111.0
1072,247.90140984166663,249.08890722916664,47.0,100.0
1073,249.66611184166663,250.37566910416666,59.0,82.0
1074,249.66611184166663,250.42530134791664,68.0,63.0
1075,250.54846284166666,250.86831507916665,59.0,97.0
1076,250.54846284166666,250.90691793541663,64.0,100.0
1077,250.54846284166666,250.93449140416664,68.0,90.0
1078,249.66611184166663,251.02824119791666,52.0,94.0
1079,251.43081384166663,252.10728294166665,57.0,108.0
1080,251.43081384166663,252.12750348541664,64.0,108.0
1081,251.43081384166663,252.37750293541666,52.0,105.0
1082,252.31316484166666,252.52823789791665,57.0,114.0
1083,252.31316484166666,252.59441422291667,64.0,114.0
1084,252.53375259166666,253.02088387291667,52.0,82.0
1085,251.43081384166663,253.03375149166664,45.0,108.0
1086,252.75434034166665,253.03558972291665,57.0,94.0
1087,252.97492809166664,253.09992781666665,69.0,94.0
1088,253.19551584166663,253.46757406666666,57.0,114.0
1089,253.19551584166663,253.70470589791665,69.0,105.0
1090,253.19551584166663,253.71757351666665,45.0,108.0
1091,253.19551584166663,253.71757351666665,52.0,94.0
1092,253.63669134166665,253.79845569166665,57.0,67.0
1093,253.85727909166667,254.45286601666663,59.0,108.0
1094,253.85727909166667,254.50249826041664,47.0,111.0
1095,254.51904234166665,254.90139444166664,57.0,97.0
1096,254.51904234166665,254.90139444166664,61.0,105.0
1097,254.51904234166665,254.91610029166665,49.0,116.0
1098,254.96021784166663,255.75801020416665,65.0,92.0
1099,254.96021784166663,255.76168666666666,62.0,89.0
1100,254.96021784166663,255.76536312916664,57.0,82.0
1101,255.84256884166666,256.0815389041667,57.0,102.0
1102,255.84256884166666,256.12014176041663,62.0,102.0
1103,254.96021784166663,256.14220053541663,50.0,92.0
1104,255.84256884166666,256.37933236666663,65.0,102.0
1105,256.28374434166665,256.40874406666666,57.0,100.0
1106,256.72491984166663,257.1605806479166,62.0,73.0
1107,256.72491984166663,257.1660953416666,59.0,62.0
1108,256.72491984166663,257.41609479166664,55.0,87.0
1109,257.1660953416666,257.68631478541664,50.0,48.0
1110,257.60727084166666,257.8462409041666,55.0,111.0
1111,257.60727084166666,257.90322607291665,67.0,89.0
1112,257.60727084166666,257.9216083854167,62.0,100.0
1113,257.82785859166665,258.1587402166666,50.0,64.0
1114,256.72491984166663,258.23226946666665,43.0,102.0
1115,258.04844634166665,258.2451370854167,55.0,73.0
1116,258.48962184166663,258.7157242854166,55.0,84.0
1117,258.48962184166663,259.09439992291664,60.0,92.0
1118,258.9307973416667,259.2065320291666,55.0,55.0
1119,258.48962184166663,259.57785474166667,48.0,94.0
1120,259.37197284166666,259.61461936666666,55.0,102.0
1121,259.37197284166666,259.62013406041666,60.0,102.0
1122,259.37197284166666,259.73594262916663,64.0,97.0
1123,260.25432384166663,260.73777866041667,57.0,92.0
1124,260.25432384166663,260.78924913541664,60.0,87.0
1125,260.25432384166663,260.81314614166666,65.0,94.0
1126,260.6954993416666,261.25983633541665,48.0,55.0
1127,260.25432384166663,261.2892480354167,41.0,94.0
1128,261.13667484166666,261.31314504166664,57.0,92.0
1129,261.13667484166666,261.59439442291665,60.0,102.0
1130,261.57785034166665,261.70285006666666,57.0,102.0
1131,261.13667484166666,261.7745410854167,65.0,100.0
1132,262.01902584166663,262.72123017916664,59.0,82.0
1133,262.01902584166663,262.77821534791667,62.0,84.0
1134,262.4602013416667,263.01350894791665,53.0,73.0
1135,262.01902584166663,263.09622935416667,47.0,102.0
1136,262.90137684166666,263.20100853541663,59.0,94.0
1137,262.90137684166666,263.42527274791667,62.0,92.0
1138,263.34255234166665,263.50615492291666,59.0,66.0
1139,263.34255234166665,263.50983138541665,47.0,87.0
1140,262.90137684166666,263.72122797916666,69.0,100.0
1141,263.78372784166663,264.0521096041666,59.0,102.0
1142,263.78372784166663,264.45835871041663,64.0,100.0
1143,264.2249033416666,264.53004972916665,59.0,82.0
1144,264.66607884166666,264.9050489041666,59.0,105.0
1145,263.78372784166663,265.08519556666664,52.0,114.0
1146,264.66607884166666,265.1109308041666,64.0,100.0
1147,264.66607884166666,265.13298957916663,68.0,102.0
1148,265.10725434166665,265.20284236666663,59.0,92.0
1149,265.54842984166663,265.97673772291665,57.0,102.0
1150,265.54842984166663,266.0226935041667,60.0,100.0
1151,266.21019309166667,266.31497227291663,57.0,97.0
1152,265.9896053416667,266.51533947916664,52.0,76.0
1153,266.43078084166666,266.65136859166665,57.0,117.0
1154,266.43078084166666,266.76533892916666,64.0,108.0
1155,266.65136859166665,267.06313239166667,52.0,64.0
1156,266.87195634166665,267.15688218541663,57.0,102.0
1157,265.54842984166663,267.15872041666665,45.0,102.0
1158,267.09254409166664,267.21386735416667,64.0,76.0
1159,267.31313184166663,267.61276353541666,57.0,117.0
1160,267.7543073416666,267.8462189041667,57.0,108.0
1161,267.31313184166663,267.85357182916664,52.0,114.0
1162,267.31313184166663,267.8572482916667,45.0,111.0
1163,267.97489509166667,268.4344529041666,59.0,108.0
1164,267.97489509166667,268.54658501041666,47.0,108.0
1165,268.41607059166665,268.55026147291665,57.0,92.0
1166,268.63665834166665,268.78371684166666,57.0,102.0
1167,268.63665834166665,268.88481956041664,49.0,105.0
1168,268.63665834166665,268.89033425416665,61.0,102.0
1169,268.85724609166664,268.98408404791667,57.0,84.0
1170,269.07783384166663,269.37746553541666,57.0,105.0
1171,269.07783384166663,269.75430294166665,62.0,100.0
1172,269.07783384166663,269.76349409791663,65.0,82.0
1173,269.5190093416667,269.81864103541665,57.0,97.0
1174,269.96018484166666,270.16239027916663,57.0,111.0
1175,269.07783384166663,270.32599286041665,50.0,117.0
1176,270.18077259166665,270.4638602041666,53.0,42.0
1177,269.96018484166666,270.50797775416663,65.0,111.0
1178,270.40136034166665,270.61275693541666,57.0,111.0
1179,270.84253584166663,271.30209365416664,59.0,82.0
1180,270.84253584166663,271.31863773541664,62.0,89.0
1181,270.84253584166663,271.36643174791664,55.0,80.0
1182,271.2837113416666,271.85540126041667,50.0,73.0
1183,270.84253584166663,272.0337096916667,43.0,102.0
1184,271.72488684166666,272.1697388041666,55.0,105.0
1185,271.72488684166666,272.17892996041667,59.0,108.0
1186,271.72488684166666,272.25245921041665,62.0,108.0
1187,272.16606234166665,272.50062042916664,43.0,97.0
1188,272.60723784166663,272.87010491041667,55.0,94.0
1189,272.60723784166663,273.2212070791667,60.0,102.0
1190,272.60723784166663,273.25245701041666,64.0,100.0
1191,273.0484133416667,273.3076039479166,55.0,80.0
1192,272.60723784166663,273.9712054291666,48.0,100.0
1193,273.93076434166665,274.14583739791664,52.0,94.0
1194,273.48958884166666,274.1770873291666,64.0,97.0
1195,274.37193984166663,274.80024772291665,57.0,94.0
1196,274.37193984166663,274.92524744791666,60.0,100.0
1197,274.37193984166663,274.96385030416667,65.0,100.0
1198,275.25429084166666,275.39031995416667,57.0,108.0
1199,274.8131153416666,275.41421696041664,48.0,45.0
1200,274.37193984166663,275.5318637604166,41.0,102.0
1201,275.25429084166666,275.53554022291667,60.0,105.0
1202,275.47487859166665,275.71752511666665,57.0,60.0
1203,275.25429084166666,275.7800249791667,65.0,100.0
1204,275.69546634166664,275.95649517916667,60.0,87.0
1205,276.13664184166663,276.70465529791664,62.0,84.0
1206,276.13664184166663,276.71752291666667,59.0,82.0
1207,276.5778173416667,277.22303651041665,53.0,66.0
1208,277.01899284166666,277.2965657604167,59.0,105.0
1209,277.01899284166666,277.3020804541667,62.0,111.0
1210,276.13664184166663,277.32413922916663,47.0,100.0
1211,277.90134384166663,278.61090110416666,59.0,82.0
1212,277.90134384166663,278.66053334791667,68.0,63.0
1213,278.78369484166666,279.1035470791667,59.0,97.0
1214,278.78369484166666,279.1421499354167,64.0,100.0
1215,278.78369484166666,279.16972340416663,68.0,90.0
1216,277.90134384166663,279.26347319791665,52.0,94.0
1217,279.66604584166663,280.33883847916667,64.0,87.0
1218,279.66604584166663,280.37560310416666,57.0,78.0
1219,279.66604584166663,280.37560310416666,59.0,92.0
1220,280.54839684166666,280.96383710416666,57.0,89.0
1221,280.54839684166666,280.9877341104167,64.0,97.0
1222,280.54839684166666,281.00795465416667,59.0,97.0
1223,281.43074784166663,281.99324660416664,64.0,92.0
1224,281.43074784166663,282.1366286416667,59.0,100.0
1225,282.31309884166666,282.97670032291666,64.0,105.0
1226,282.31309884166666,283.00978848541666,59.0,102.0
1227,279.66604584166663,283.0483913416666,45.0,94.0
1228,283.19544984166663,283.91603649166666,64.0,89.0
1229,283.19544984166663,283.9344188041666,57.0,80.0
1230,283.19544984166663,283.94912465416667,59.0,87.0
1231,284.07780084166666,284.4086824666666,64.0,87.0
1232,284.07780084166666,284.42706477916664,57.0,78.0
1233,284.07780084166666,284.48221171666665,59.0,89.0
1234,284.96015184166663,285.42706257916666,64.0,89.0
1235,284.96015184166663,285.56125346041665,59.0,87.0
1236,283.19544984166663,286.20831086041665,45.0,100.0
1237,285.84250284166666,286.23036963541665,64.0,105.0
1238,285.84250284166666,286.23956079166663,59.0,102.0
1239,286.28367834166664,286.72485384166663,40.0,114.0
1240,286.6752215979167,290.35352232916665,45.0,92.0
1241,286.68441275416666,290.3994781104167,57.0,47.0
1242,286.85536826041664,290.4049928041667,64.0,66.0
1243,286.78000077916664,290.41786042291665,60.0,78.0
1244,286.92705927916666,290.43256627291663,69.0,94.0
