,start,end,pitch,velocity
0,29.8375,30.335416666666667,67.0,114.0
1,30.3375,30.8375,67.0,108.0
2,30.8375,31.3375,69.0,117.0
3,31.3375,31.835416666666667,71.0,114.0
4,31.8375,32.0875,71.0,116.0
5,32.0875,32.58541666666667,69.0,114.0
6,32.5875,33.33541666666667,69.0,119.0
7,33.3375,33.5875,69.0,117.0
8,33.5875,33.8375,71.0,110.0
9,33.8375,34.08541666666667,74.0,117.0
10,34.0875,34.5875,74.0,114.0
11,34.5875,34.8375,71.0,114.0
12,34.8375,35.3375,74.0,116.0
13,35.3375,35.604166666666664,76.0,117.0
14,35.5875,37.8375,67.0,116.0
15,37.8375,38.08541666666667,74.0,116.0
16,38.0875,38.5875,74.0,117.0
17,38.5875,38.8375,71.0,117.0
18,38.8375,39.3375,74.0,116.0
19,39.3375,39.5875,76.0,116.0
20,39.5875,40.3375,67.0,113.0
21,40.3375,40.5875,64.0,108.0
22,40.5875,41.0875,67.0,117.0
23,41.0875,41.5875,71.0,110.0
24,41.5875,45.8375,69.0,116.0
25,45.8375,46.08541666666667,71.0,110.0
26,46.0875,46.58541666666667,71.0,116.0
27,46.5875,46.83541666666667,71.0,114.0
28,46.8375,47.3375,71.0,113.0
29,47.3375,47.5875,69.0,108.0
30,47.5875,47.8375,71.0,114.0
31,47.8375,48.08541666666667,74.0,116.0
32,48.0875,48.58541666666667,74.0,114.0
33,48.5875,48.83541666666667,74.0,116.0
34,48.8375,49.33541666666667,74.0,114.0
35,49.3375,49.58541666666667,74.0,113.0
36,49.5875,49.8375,74.0,114.0
37,49.8375,50.1,71.0,110.0
38,50.0875,50.1,71.0,110.0
39,50.5875,50.83541666666667,71.0,113.0
40,50.8375,51.3375,71.0,113.0
41,51.3375,51.5875,78.0,116.0
42,51.5875,52.0875,79.0,116.0
43,52.0875,53.33541666666667,76.0,113.0
44,53.3375,53.5875,76.0,110.0
45,53.5875,53.8375,78.0,109.0
46,53.8375,54.09375,79.0,116.0
47,54.0875,54.5875,78.0,116.0
48,54.5875,54.83541666666667,76.0,107.0
49,54.8375,55.0875,76.0,116.0
50,55.0875,55.5875,74.0,110.0
51,55.5875,55.8375,71.0,113.0
52,55.8375,56.12916666666666,69.0,107.0
53,56.0875,56.5875,71.0,114.0
54,56.5875,57.8375,74.0,114.0
55,57.8375,58.3375,69.0,114.0
56,58.3375,58.83541666666667,67.0,102.0
57,58.8375,59.33541666666667,67.0,114.0
58,59.3375,59.66458333333333,67.0,110.0
59,59.5875,60.0875,64.0,102.0
60,60.0875,65.3375,67.0,113.0
61,65.3375,65.8375,71.0,116.0
62,65.8375,66.0875,76.0,114.0
63,66.0875,66.33541666666666,74.0,104.0
64,66.3375,66.5875,74.0,110.0
65,66.5875,66.83541666666666,71.0,108.0
66,66.8375,67.0875,71.0,114.0
67,67.0875,67.3375,69.0,107.0
68,67.3375,67.5875,71.0,108.0
69,67.5875,67.8375,74.0,113.0
70,67.8375,68.0875,76.0,116.0
71,68.0875,68.3375,74.0,108.0
72,68.3375,68.5875,71.0,102.0
73,68.5875,69.3375,74.0,110.0
74,69.3375,69.8375,71.0,116.0
75,69.8375,70.08541666666666,79.0,114.0
76,70.0875,70.33541666666666,79.0,110.0
77,70.3375,70.58541666666666,79.0,110.0
78,70.5875,70.8375,79.0,113.0
79,70.8375,71.3375,76.0,116.0
80,71.3375,71.5875,74.0,110.0
81,71.5875,73.58541666666666,71.0,114.0
82,73.5875,73.8375,71.0,104.0
83,73.8375,74.08541666666666,79.0,116.0
84,74.0875,74.33541666666666,79.0,113.0
85,74.3375,74.5875,79.0,108.0
86,74.5875,74.8375,76.0,114.0
87,74.8375,75.0875,81.0,119.0
88,75.0875,75.5875,79.0,114.0
89,75.5875,76.08541666666666,74.0,98.0
90,76.0875,76.33541666666666,74.0,107.0
91,76.3375,76.5875,74.0,108.0
92,76.5875,76.8375,71.0,116.0
93,76.8375,77.0875,76.0,116.0
94,77.0875,77.8375,74.0,116.0
95,77.8375,78.0875,69.0,117.0
96,78.0875,78.34166666666667,67.0,110.0
97,78.3375,78.59375,69.0,107.0
98,78.5875,78.8375,67.0,108.0
99,78.8375,79.3375,69.0,110.0
100,79.3375,79.5875,67.0,117.0
101,79.5875,81.3375,69.0,116.0
102,81.3375,81.8375,71.0,116.0
103,81.8375,82.0875,76.0,114.0
104,82.0875,82.33541666666666,74.0,104.0
105,82.3375,82.5875,74.0,110.0
106,82.5875,82.83541666666666,71.0,108.0
107,82.8375,83.0875,71.0,114.0
108,83.0875,83.3375,69.0,107.0
109,83.3375,83.5875,71.0,108.0
110,83.5875,83.8375,74.0,113.0
111,83.8375,84.0875,76.0,116.0
112,84.0875,84.3375,74.0,108.0
113,84.3375,84.5875,71.0,102.0
114,84.5875,85.3375,74.0,110.0
115,85.3375,85.58541666666666,71.0,116.0
116,85.5875,85.8375,71.0,116.0
117,85.8375,86.08541666666666,79.0,114.0
118,86.0875,86.33541666666666,79.0,110.0
119,86.3375,86.58541666666666,79.0,110.0
120,86.5875,86.8375,79.0,113.0
121,86.8375,87.0875,81.0,110.0
122,87.0875,87.3375,79.0,98.0
123,87.3375,87.61458333333333,76.0,108.0
124,87.5875,87.8375,71.0,89.0
125,87.8375,89.5875,74.0,104.0
126,89.5875,89.8375,71.0,104.0
127,89.8375,90.08541666666666,79.0,116.0
128,90.0875,90.33541666666666,79.0,113.0
129,90.3375,90.5875,79.0,108.0
130,90.5875,90.8375,76.0,114.0
131,90.8375,91.0875,81.0,119.0
132,91.0875,91.3375,79.0,114.0
133,91.3375,91.5875,76.0,108.0
134,91.5875,91.8375,79.0,110.0
135,91.8375,92.0875,76.0,110.0
136,92.0875,92.3375,74.0,107.0
137,92.3375,92.5875,71.0,113.0
138,92.5875,92.8375,74.0,108.0
139,92.8375,93.8375,71.0,116.0
140,93.8375,94.0875,69.0,113.0
141,94.0875,94.3375,71.0,114.0
142,94.3375,94.5875,74.0,113.0
143,94.5875,94.8375,71.0,114.0
144,94.8375,95.0875,69.0,117.0
145,95.0875,95.3375,67.0,113.0
146,95.3375,95.5875,64.0,100.0
147,95.5875,95.83541666666666,67.0,116.0
148,95.8375,105.83541666666666,67.0,116.0
149,105.83749999999999,106.33541666666666,67.0,114.0
150,106.33749999999999,106.83749999999999,67.0,108.0
151,106.83749999999999,107.33749999999999,69.0,117.0
152,107.33749999999999,107.83541666666666,71.0,114.0
153,107.83749999999999,108.08749999999999,71.0,116.0
154,108.08749999999999,108.58541666666666,69.0,114.0
155,108.58749999999999,109.33541666666666,69.0,119.0
156,109.33749999999999,109.58749999999999,69.0,117.0
157,109.58749999999999,109.83749999999999,71.0,110.0
158,109.83749999999999,110.08541666666666,74.0,117.0
159,110.08749999999999,110.58749999999999,74.0,114.0
160,110.58749999999999,110.83749999999999,71.0,114.0
161,110.83749999999999,111.33749999999999,74.0,116.0
162,111.33749999999999,111.60416666666667,76.0,117.0
163,111.58749999999999,113.83749999999999,67.0,116.0
164,113.83749999999999,114.08541666666666,74.0,116.0
165,114.08749999999999,114.58749999999999,74.0,117.0
166,114.58749999999999,114.83749999999999,71.0,117.0
167,114.83749999999999,115.33749999999999,74.0,116.0
168,115.33749999999999,115.58749999999999,76.0,116.0
169,115.58749999999999,116.33749999999999,67.0,113.0
170,116.33749999999999,116.58749999999999,64.0,108.0
171,116.58749999999999,117.08749999999999,67.0,117.0
172,117.08749999999999,117.58749999999999,71.0,110.0
173,117.58749999999999,121.83749999999999,69.0,116.0
174,121.83749999999999,122.08541666666666,71.0,110.0
175,122.08749999999999,122.58541666666666,71.0,116.0
176,122.58749999999999,122.83541666666666,71.0,114.0
177,122.83749999999999,123.33749999999999,71.0,113.0
178,123.33749999999999,123.58749999999999,69.0,108.0
179,123.58749999999999,123.83749999999999,71.0,114.0
180,123.83749999999999,124.08541666666666,74.0,116.0
181,124.08749999999999,124.58541666666666,74.0,114.0
182,124.58749999999999,124.83541666666666,74.0,116.0
183,124.83749999999999,125.33541666666666,74.0,114.0
184,125.33749999999999,125.58541666666666,74.0,113.0
185,125.58749999999999,125.83749999999999,74.0,114.0
186,125.83749999999999,126.1,71.0,110.0
187,126.08749999999999,126.1,71.0,110.0
188,126.58749999999999,126.83541666666666,71.0,113.0
189,126.83749999999999,127.33749999999999,71.0,113.0
190,127.33749999999999,127.58749999999999,78.0,116.0
191,127.58749999999999,128.0875,79.0,116.0
192,128.0875,129.33541666666667,76.0,113.0
193,129.3375,129.5875,76.0,110.0
194,129.5875,129.8375,78.0,109.0
195,129.8375,130.09375,79.0,116.0
196,130.0875,130.5875,78.0,116.0
197,130.5875,130.83541666666667,76.0,107.0
198,130.8375,131.0875,76.0,116.0
199,131.0875,131.5875,74.0,110.0
200,131.5875,131.8375,71.0,113.0
201,131.8375,132.12916666666666,69.0,107.0
202,132.0875,132.5875,71.0,114.0
203,132.5875,133.8375,74.0,114.0
204,133.8375,134.3375,69.0,114.0
205,134.3375,134.83541666666667,67.0,102.0
206,134.8375,135.33541666666667,67.0,114.0
207,135.3375,135.66458333333333,67.0,110.0
208,135.5875,136.0875,64.0,102.0
209,136.0875,141.3375,67.0,113.0
210,141.3375,141.8375,71.0,116.0
211,141.8375,142.0875,76.0,114.0
212,142.0875,142.33541666666667,74.0,104.0
213,142.3375,142.5875,74.0,110.0
214,142.5875,142.83541666666667,71.0,108.0
215,142.8375,143.0875,71.0,114.0
216,143.0875,143.3375,69.0,107.0
217,143.3375,143.5875,71.0,108.0
218,143.5875,143.8375,74.0,113.0
219,143.8375,144.0875,76.0,116.0
220,144.0875,144.3375,74.0,108.0
221,144.3375,144.5875,71.0,102.0
222,144.5875,145.3375,74.0,110.0
223,145.3375,145.8375,71.0,116.0
224,145.8375,146.08541666666667,79.0,114.0
225,146.0875,146.33541666666667,79.0,110.0
226,146.3375,146.58541666666667,79.0,110.0
227,146.5875,146.8375,79.0,113.0
228,146.8375,147.3375,76.0,116.0
229,147.3375,147.5875,74.0,110.0
230,147.5875,149.58541666666667,71.0,114.0
231,149.5875,149.8375,71.0,104.0
232,149.8375,150.08541666666667,79.0,116.0
233,150.0875,150.33541666666667,79.0,113.0
234,150.3375,150.5875,79.0,108.0
235,150.5875,150.8375,76.0,114.0
236,150.8375,151.0875,81.0,119.0
237,151.0875,151.5875,79.0,114.0
238,151.5875,152.08541666666667,74.0,98.0
239,152.0875,152.33541666666667,74.0,107.0
240,152.3375,152.5875,74.0,108.0
241,152.5875,152.8375,71.0,116.0
242,152.8375,153.0875,76.0,116.0
243,153.0875,153.8375,74.0,116.0
244,153.8375,154.0875,69.0,117.0
245,154.0875,154.34166666666667,67.0,110.0
246,154.3375,154.59375,69.0,107.0
247,154.5875,154.8375,67.0,108.0
248,154.8375,155.3375,69.0,110.0
249,155.3375,155.5875,67.0,117.0
250,155.5875,157.3375,69.0,116.0
251,157.3375,157.8375,71.0,116.0
252,157.8375,158.0875,76.0,114.0
253,158.0875,158.33541666666667,74.0,104.0
254,158.3375,158.5875,74.0,110.0
255,158.5875,158.83541666666667,71.0,108.0
256,158.8375,159.0875,71.0,114.0
257,159.0875,159.3375,69.0,107.0
258,159.3375,159.5875,71.0,108.0
259,159.5875,159.8375,74.0,113.0
260,159.8375,160.0875,76.0,116.0
261,160.0875,160.3375,74.0,108.0
262,160.3375,160.5875,71.0,102.0
263,160.5875,161.3375,74.0,110.0
264,161.3375,161.58541666666667,71.0,116.0
265,161.5875,161.8375,71.0,116.0
266,161.8375,162.08541666666667,79.0,114.0
267,162.0875,162.33541666666667,79.0,110.0
268,162.3375,162.58541666666667,79.0,110.0
269,162.5875,162.8375,79.0,113.0
270,162.8375,163.0875,81.0,110.0
271,163.0875,163.3375,79.0,98.0
272,163.3375,163.61458333333334,76.0,108.0
273,163.5875,163.8375,71.0,89.0
274,163.8375,165.5875,74.0,104.0
275,165.5875,165.8375,71.0,104.0
276,165.8375,166.08541666666667,79.0,116.0
277,166.0875,166.33541666666667,79.0,113.0
278,166.3375,166.5875,79.0,108.0
279,166.5875,166.8375,76.0,114.0
280,166.8375,167.0875,81.0,119.0
281,167.0875,167.3375,79.0,114.0
282,167.3375,167.5875,76.0,108.0
283,167.5875,167.8375,79.0,110.0
284,167.8375,168.0875,76.0,110.0
285,168.0875,168.3375,74.0,107.0
286,168.3375,168.5875,71.0,113.0
287,168.5875,168.8375,74.0,108.0
288,168.8375,169.8375,71.0,116.0
289,169.8375,170.0875,69.0,113.0
290,170.0875,170.3375,71.0,114.0
291,170.3375,170.5875,74.0,113.0
292,170.5875,170.8375,71.0,114.0
293,170.8375,171.0875,69.0,117.0
294,171.0875,171.3375,67.0,113.0
295,171.3375,171.5875,64.0,100.0
296,171.5875,171.83541666666667,67.0,116.0
297,171.8375,201.3375,67.0,116.0
298,201.3375,201.8375,71.0,116.0
299,201.8375,202.0875,76.0,114.0
300,202.0875,202.33541666666667,74.0,104.0
301,202.3375,202.5875,74.0,110.0
302,202.5875,202.83541666666667,71.0,108.0
303,202.8375,203.0875,71.0,114.0
304,203.0875,203.3375,69.0,107.0
305,203.3375,203.5875,71.0,108.0
306,203.5875,203.8375,74.0,113.0
307,203.8375,204.0875,76.0,116.0
308,204.0875,204.3375,74.0,108.0
309,204.3375,204.5875,71.0,102.0
310,204.5875,205.3375,74.0,110.0
311,205.3375,205.8375,71.0,116.0
312,205.8375,206.08541666666667,79.0,114.0
313,206.0875,206.33541666666667,79.0,110.0
314,206.3375,206.58541666666667,79.0,110.0
315,206.5875,206.8375,79.0,113.0
316,206.8375,207.3375,76.0,116.0
317,207.3375,207.5875,74.0,110.0
318,207.5875,209.58541666666667,71.0,114.0
319,209.5875,209.8375,71.0,104.0
320,209.8375,210.08541666666667,79.0,116.0
321,210.0875,210.33541666666667,79.0,113.0
322,210.3375,210.5875,79.0,108.0
323,210.5875,210.8375,76.0,114.0
324,210.8375,211.0875,81.0,119.0
325,211.0875,211.5875,79.0,114.0
326,211.5875,212.08541666666667,74.0,98.0
327,212.0875,212.33541666666667,74.0,107.0
328,212.3375,212.5875,74.0,108.0
329,212.5875,212.8375,71.0,116.0
330,212.8375,213.0875,76.0,116.0
331,213.0875,213.8375,74.0,116.0
332,213.8375,214.0875,69.0,117.0
333,214.0875,214.34166666666667,67.0,110.0
334,214.3375,214.59375,69.0,107.0
335,214.5875,214.8375,67.0,108.0
336,214.8375,215.3375,69.0,110.0
337,215.3375,215.5875,67.0,117.0
338,215.5875,217.3375,69.0,116.0
339,217.3375,217.8375,71.0,116.0
340,217.8375,218.0875,76.0,114.0
341,218.0875,218.33541666666667,74.0,104.0
342,218.3375,218.5875,74.0,110.0
343,218.5875,218.83541666666667,71.0,108.0
344,218.8375,219.0875,71.0,114.0
345,219.0875,219.3375,69.0,107.0
346,219.3375,219.5875,71.0,108.0
347,219.5875,219.8375,74.0,113.0
348,219.8375,220.0875,76.0,116.0
349,220.0875,220.3375,74.0,108.0
350,220.3375,220.5875,71.0,102.0
351,220.5875,221.3375,74.0,110.0
352,221.3375,221.58541666666667,71.0,116.0
353,221.5875,221.8375,71.0,116.0
354,221.8375,222.08541666666667,79.0,114.0
355,222.0875,222.33541666666667,79.0,110.0
356,222.3375,222.58541666666667,79.0,110.0
357,222.5875,222.8375,79.0,113.0
358,222.8375,223.0875,81.0,110.0
359,223.0875,223.3375,79.0,98.0
360,223.3375,223.61458333333334,76.0,108.0
361,223.5875,223.8375,71.0,89.0
362,223.8375,225.5875,74.0,104.0
363,225.5875,225.8375,71.0,104.0
364,225.8375,226.08541666666667,79.0,116.0
365,226.0875,226.33541666666667,79.0,113.0
366,226.3375,226.5875,79.0,108.0
367,226.5875,226.8375,76.0,114.0
368,226.8375,227.0875,81.0,119.0
369,227.0875,227.3375,79.0,114.0
370,227.3375,227.5875,76.0,108.0
371,227.5875,227.8375,79.0,110.0
372,227.8375,228.0875,76.0,110.0
373,228.0875,228.3375,74.0,107.0
374,228.3375,228.5875,71.0,113.0
375,228.5875,228.8375,74.0,108.0
376,228.8375,229.8375,71.0,116.0
377,229.8375,230.0875,69.0,113.0
378,230.0875,230.3375,71.0,114.0
379,230.3375,230.5875,74.0,113.0
380,230.5875,230.8375,71.0,114.0
381,230.8375,231.0875,69.0,117.0
382,231.0875,231.3375,67.0,113.0
383,231.3375,231.5875,64.0,100.0
384,231.5875,231.83541666666667,67.0,116.0
385,231.8375,233.5875,67.0,116.0
386,233.5875,233.8375,71.0,104.0
387,233.8375,234.08541666666667,79.0,116.0
388,234.0875,234.33541666666667,79.0,113.0
389,234.3375,234.5875,79.0,108.0
390,234.5875,234.8375,76.0,114.0
391,234.8375,235.0875,81.0,119.0
392,235.0875,235.3375,79.0,114.0
393,235.3375,235.5875,76.0,108.0
394,235.5875,235.8375,79.0,110.0
395,235.8375,236.0875,76.0,110.0
396,236.0875,236.3375,74.0,107.0
397,236.3375,236.5875,71.0,113.0
398,236.5875,236.8375,74.0,108.0
399,236.8375,237.8375,71.0,116.0
400,237.8375,238.0875,69.0,113.0
401,238.0875,238.3375,71.0,114.0
402,238.3375,238.5875,74.0,113.0
403,238.5875,238.8375,71.0,114.0
404,238.8375,239.0875,69.0,117.0
405,239.0875,239.3375,67.0,113.0
406,239.3375,239.5875,64.0,100.0
407,239.5875,239.83541666666667,67.0,116.0
408,239.8375,244.3375,67.0,116.0
