,start,end,pitch,velocity
0,20.30121800416667,20.66392271666667,70.0,84.0
1,20.79302100416667,21.16802079166667,70.0,83.0
2,21.28482400416667,21.65367625416667,70.0,83.0
3,21.77662700416667,22.15777432916667,70.0,86.0
4,22.26843000416667,22.448757770833335,68.0,80.0
5,22.51433150416667,23.065560700000002,67.0,81.0
6,23.25203600416667,23.413921158333338,67.0,85.0
7,23.49793750416667,23.643429225000002,68.0,84.0
8,23.74383900416667,24.098347000000004,70.0,84.0
9,24.23564200416667,24.584002462500003,70.0,83.0
10,24.72744500416667,25.06555956666667,70.0,85.0
11,25.21924800416667,25.46514950416667,68.0,86.0
12,25.46514950416667,26.44875550416667,67.0,86.0
13,26.69465700416667,26.87293559166667,67.0,85.0
14,26.94055850416667,27.34629597916667,75.0,94.0
15,27.43236150416667,27.594246658333336,75.0,88.0
16,27.67826300416667,28.147525033333338,72.0,72.0
17,28.17006600416667,28.34834459166667,70.0,78.0
18,28.41596750416667,29.096294987500006,72.0,84.0
19,28.90777050416667,29.422114475000004,75.0,92.0
20,29.64547500416667,30.034002633333337,74.0,87.0
21,30.133596052083337,30.281969920833337,72.0,83.0
22,30.37749830208334,30.830749983333337,72.0,86.0
23,30.865302802083338,31.56042421458334,74.0,89.0
24,31.59700955208334,33.613268152083336,70.0,87.0
25,34.036032052083335,34.50351136458334,67.0,86.0
26,34.52383655208334,35.007576014583336,68.0,84.0
27,35.011641052083334,35.52790081458334,70.0,89.0
28,35.49944555208334,36.50147729583334,72.0,86.0
29,36.475054552083336,37.23928160208334,67.0,85.0
30,37.206761302083336,38.31528717083334,65.0,84.0
31,38.432571083333336,38.85232403333334,65.0,90.0
32,38.92639808333334,39.29059549583334,74.0,83.0
33,39.420225083333335,40.28030710833334,70.0,87.0
34,40.40787908333334,41.01898999583334,68.0,84.0
35,41.148619583333335,42.44491545833334,67.0,81.0
36,42.877014083333336,43.290594195833336,67.0,85.0
37,43.37084108333334,43.81940060833334,68.0,85.0
38,43.86466808333334,44.37495598333334,67.0,89.0
39,44.35849508333334,44.874955820833335,68.0,82.0
40,44.85232208333334,45.337968745833344,67.0,86.0
41,45.34406630208334,46.13268357708334,68.0,84.0
42,46.31967530208334,46.80747980208334,70.0,90.0
43,46.80747980208334,49.297315270833344,65.0,92.0
44,51.68552480208334,52.04534726250001,70.0,84.0
45,52.17444555000001,52.54944533750001,70.0,83.0
46,52.666248550000006,53.03510080000001,70.0,83.0
47,53.15805155000001,53.53919887500001,70.0,86.0
48,53.64985455000001,53.83018231666667,68.0,80.0
49,53.89575605000001,54.44698524583334,67.0,81.0
50,54.63346055000001,54.79534570416668,67.0,85.0
51,54.87936205000001,55.02485377083334,68.0,84.0
52,55.12526355000001,55.479771545833344,70.0,84.0
53,55.61706655000001,55.96542700833334,70.0,83.0
54,56.10886955000001,56.44698411250001,70.0,85.0
55,56.600672550000006,56.84657405000001,68.0,86.0
56,56.84657405000001,57.338377050000005,68.0,86.0
57,57.338377050000005,57.83018005000001,67.0,86.0
58,58.07608155000001,58.25436013750001,67.0,85.0
59,58.32198305000001,58.72772052500001,75.0,94.0
60,59.05968755000001,59.52894957916668,72.0,72.0
61,59.55149055000001,59.72976913750001,70.0,78.0
62,59.79739205000001,60.47771953333334,72.0,84.0
63,60.28919505000001,60.80353902083334,75.0,92.0
64,61.02689955000001,61.41829277083335,74.0,87.0
65,61.51870255000001,61.66829262916668,72.0,83.0
66,61.76460405000001,62.22157100416668,72.0,86.0
67,62.25640705000001,62.95722632500001,74.0,89.0
68,62.994111550000014,65.01715093958335,70.0,87.0
69,65.43991483958334,65.90739415208334,67.0,86.0
70,65.92771933958335,66.41145880208335,68.0,84.0
71,66.41552383958334,66.93178360208334,70.0,89.0
72,66.90332833958334,67.90536008333335,72.0,86.0
73,67.87893733958335,68.64316438958335,79.0,85.0
74,68.61064408958335,69.71430177083334,77.0,84.0
75,69.83015533958334,70.24478916458334,74.0,90.0
76,70.31795983958334,70.67771565833334,72.0,83.0
77,70.80576433958335,71.65535717708335,70.0,87.0
78,71.78137333958334,72.38503140833335,80.0,84.0
79,72.51308008958334,73.79356690208334,79.0,81.0
80,74.22039583958335,74.62893210833334,67.0,85.0
81,74.70820033958334,75.15128942708334,68.0,85.0
82,75.19600483958334,75.70006948958334,70.0,89.0
83,75.68380933958335,76.19397154583335,72.0,82.0
84,76.17161383958334,76.65332078333334,74.0,86.0
85,76.65941833958334,77.88219503125002,75.0,84.0
86,78.12809653125001,78.61989953125001,77.0,90.0
87,78.61989953125001,81.13014401041669,75.0,92.0
88,82.06252053125002,82.32686464375001,74.0,84.0
89,82.30842203125002,82.57276614375002,75.0,90.0
90,82.55432353125002,83.05842160625002,82.0,86.0
91,83.04612653125001,83.53792953125001,75.0,89.0
92,83.53792953125001,84.28383074791668,75.0,89.0
93,84.52153553125001,84.89858449791669,74.0,94.0
94,85.01333853125001,85.17112532708335,75.0,99.0
95,85.25924003125002,85.70391191041668,77.0,87.0
96,85.75104303125002,85.92932161875001,75.0,88.0
97,85.99694453125002,86.17522311875001,77.0,99.0
98,86.24284603125001,86.40268200625002,75.0,90.0
99,86.48874753125001,86.89448500625002,82.0,86.0
100,86.98055053125002,87.22645203125002,74.0,89.0
101,87.22645203125002,87.78792712291668,74.0,86.0
102,88.21005803125001,88.35759893125001,70.0,86.0
103,88.45595953125002,88.61374632708335,70.0,87.0
104,88.70186103125002,89.05841820625001,74.0,85.0
105,89.19366403125002,89.72235225625002,75.0,97.0
106,89.93136853125002,90.18136838958335,72.0,87.0
107,90.17727003125002,90.31251585625002,74.0,80.0
108,90.42317153125002,90.82276146875002,75.0,94.0
109,90.91497453125001,91.06046625208334,68.0,83.0
110,91.16087603125001,91.80841664791669,68.0,84.0
111,91.89858053125002,92.04407225208335,75.0,94.0
112,92.14448203125002,92.29612128958335,77.0,87.0
113,92.39038353125002,92.76538331875001,75.0,94.0
114,92.88218653125001,93.02153071458335,70.0,85.0
115,93.12808803125002,93.91497283125003,70.0,87.0
116,94.11169403125001,94.27357918541668,70.0,90.0
117,94.35759553125001,95.09530003125002,80.0,88.0
118,95.09530003125002,95.72849639375002,82.0,85.0
119,95.83300453125003,95.98259461041668,77.0,82.0
120,96.07890603125001,96.92316784791669,79.0,84.0
121,97.55431503125001,97.81865914375001,75.0,84.0
122,97.80021653125002,98.06456064375001,77.0,84.0
123,98.04611803125002,98.31046214375002,75.0,90.0
124,98.29201953125002,98.79611760625002,82.0,86.0
125,98.78382253125002,99.27562553125001,75.0,89.0
126,99.27562553125001,100.02152674791668,75.0,89.0
127,100.25923153125002,100.63628049791669,74.0,94.0
128,100.75103453125001,100.90882132708336,75.0,99.0
129,100.99693603125002,101.44160791041668,77.0,87.0
130,101.48873903125002,101.66701761875002,75.0,88.0
131,101.73464053125002,101.91291911875001,77.0,99.0
132,101.98054203125002,102.14037800625002,75.0,90.0
133,102.22644353125003,102.63218100625002,82.0,86.0
134,102.71824653125002,102.96414803125002,74.0,89.0
135,102.96414803125002,103.52562312291668,74.0,86.0
136,103.94775403125001,104.09529493125002,70.0,86.0
137,104.19365553125002,104.35144232708335,70.0,87.0
138,104.43955703125002,104.79556441250001,74.0,85.0
139,104.92971065,105.45410048750001,75.0,97.0
140,105.6614174,105.90938468750001,72.0,87.0
141,105.90531965000001,106.03946588750001,74.0,80.0
142,106.14922190000001,106.54556305625002,75.0,94.0
143,106.63702640000001,106.78133523125001,68.0,83.0
144,106.88092865000002,107.52320457500001,68.0,84.0
145,107.85653765,108.00084648125001,75.0,94.0
146,108.10043990000001,108.47239083125001,74.0,94.0
147,108.58824440000001,108.72645567500001,75.0,85.0
148,108.83214665000001,109.56385340000001,75.0,87.0
149,109.56385340000001,109.75491016250001,77.0,86.0
150,109.80775565000002,110.48051935625001,77.0,87.0
151,110.5394624,113.11958102083335,75.0,87.0
152,126.22094873958335,126.58665102083336,70.0,84.0
153,126.71681623958335,127.09491520833335,70.0,83.0
154,127.21268373958335,127.58412892708334,70.0,83.0
155,127.70657767708335,128.08616880208334,70.0,86.0
156,128.19637267708336,128.37596417708335,68.0,80.0
157,128.44127017708334,128.99024873958334,67.0,81.0
158,129.17596267708333,129.33718686458334,67.0,85.0
159,129.42086017708334,129.56575786458336,68.0,84.0
160,129.66575767708335,130.01881823958334,70.0,84.0
161,130.15555267708334,130.50249080208334,70.0,83.0
162,130.64534767708335,130.98208173958335,70.0,85.0
163,131.13514267708334,131.38004017708334,68.0,86.0
164,131.38004017708334,132.35963017708335,67.0,86.0
165,132.60452767708335,132.78207836458336,67.0,85.0
166,132.84942517708333,133.25350605208334,75.0,94.0
167,133.33922017708335,133.50044436458336,75.0,88.0
168,133.58411767708336,134.05146373958334,72.0,72.0
169,134.07391267708334,134.25146336458334,70.0,78.0
170,134.31881017708335,134.99635992708335,72.0,84.0
171,134.80860517708334,135.32084911458335,75.0,92.0
172,135.54329767708336,135.93309286458336,74.0,87.0
173,136.03309267708335,136.18207198958333,72.0,83.0
174,136.27799017708335,136.73309136458334,72.0,86.0
175,136.76778517708334,137.46574305208335,74.0,89.0
176,137.50247767708333,139.52696367708336,70.0,87.0
177,139.95145267708335,140.42083955208335,67.0,86.0
178,140.44124767708334,140.92696105208336,68.0,84.0
179,140.93104267708335,141.44940905208335,70.0,89.0
180,141.42083767708334,142.42695823958334,72.0,86.0
181,142.40042767708334,143.16777317708335,67.0,85.0
182,143.13512017708334,144.24328136458334,65.0,84.0
183,144.35960767708335,144.77593342708334,65.0,90.0
184,144.84940267708333,145.21062648958335,74.0,83.0
185,145.33919767708335,146.19225730208336,70.0,87.0
186,146.31878767708335,146.92490898958334,68.0,84.0
187,147.05348017708334,148.33919205208335,67.0,81.0
188,148.76776267708334,149.17796598958336,67.0,85.0
189,149.25755767708335,149.70245480208334,68.0,85.0
190,149.74735267708334,150.25347417708335,67.0,89.0
191,150.23714767708336,150.74939161458335,68.0,82.0
192,150.72694267708334,151.21061523958335,67.0,86.0
193,151.21673767708336,152.00857292708335,68.0,84.0
194,152.19632767708336,152.68612267708335,70.0,90.0
195,152.68612267708335,155.18611798958335,65.0,92.0
196,157.58407267708336,157.94529648958334,70.0,84.0
197,158.07386767708334,158.44733636458335,70.0,83.0
198,158.56366267708336,158.93100892708335,70.0,83.0
199,159.05345767708334,159.43304880208336,70.0,86.0
200,159.54325267708336,159.72284417708335,68.0,80.0
201,159.78815017708337,160.33712873958336,67.0,81.0
202,160.52284267708336,160.68406686458334,67.0,85.0
203,160.76774017708334,160.91263786458336,68.0,84.0
204,161.01263767708335,161.36569823958337,70.0,84.0
205,161.50243267708333,161.84937080208334,70.0,83.0
206,161.99222767708335,162.32896173958335,70.0,85.0
207,162.48202267708336,162.72692017708334,68.0,86.0
208,162.72692017708334,163.21671517708336,68.0,86.0
209,163.21671517708336,163.70651017708335,67.0,86.0
210,163.95140767708335,164.12895836458335,67.0,85.0
211,164.19630517708333,164.60038605208337,75.0,94.0
212,164.93099767708335,165.39834373958334,72.0,72.0
213,165.42079267708334,165.59834336458334,70.0,78.0
214,165.66569017708335,166.34323992708335,72.0,84.0
215,166.15548517708334,166.66772911458335,75.0,92.0
216,166.89017767708336,167.27997286458336,74.0,87.0
217,167.37997267708334,167.52895198958333,72.0,83.0
218,167.62487017708335,168.07997136458334,72.0,86.0
219,168.11466517708334,168.81262305208335,74.0,89.0
220,168.84935767708333,170.87384367708336,70.0,87.0
221,171.29833267708335,171.76771955208335,67.0,86.0
222,171.78812767708337,172.27384105208336,68.0,84.0
223,172.27792267708335,172.79628905208335,70.0,89.0
224,172.76771767708334,173.77383823958334,72.0,86.0
225,173.74730767708334,174.51465317708335,79.0,85.0
226,174.48200017708336,175.59016136458337,77.0,84.0
227,175.70648767708335,176.12281342708334,74.0,90.0
228,176.19628267708336,176.55750648958335,72.0,83.0
229,176.68607767708335,177.53913730208336,70.0,87.0
230,177.66566767708335,178.27178898958334,80.0,84.0
231,178.40036017708334,179.68607205208335,79.0,81.0
232,180.11464267708334,180.52484598958335,67.0,85.0
233,180.60443767708335,181.04933480208337,68.0,85.0
234,181.09423267708334,181.60035417708335,70.0,89.0
235,181.58402767708336,182.09627161458334,72.0,82.0
236,182.07382267708334,182.55749523958335,74.0,86.0
237,182.56361767708336,183.78810517708337,75.0,84.0
238,184.03300267708335,184.52279767708336,77.0,90.0
239,184.52279767708336,187.02279298958337,75.0,92.0
240,187.95136267708335,188.21462748958334,74.0,84.0
241,188.19626017708336,188.45952498958334,75.0,90.0
242,188.44115767708337,188.94319755208335,82.0,86.0
243,188.93095267708335,189.42074767708334,75.0,89.0
244,189.42074767708334,190.16360342708336,75.0,89.0
245,190.40033767708334,190.77584717708334,74.0,94.0
246,190.89013267708336,191.04727523958334,75.0,99.0
247,191.13503017708337,191.57788648958336,77.0,87.0
248,191.62482517708335,191.80237586458335,75.0,88.0
249,191.86972267708336,192.04727336458336,77.0,99.0
250,192.11462017708334,192.27380355208334,75.0,90.0
251,192.35951767708335,192.76359855208335,82.0,86.0
252,192.84931267708333,193.09421017708337,74.0,89.0
253,193.09421017708337,193.65339280208335,74.0,86.0
254,194.07380017708334,194.22073867708335,70.0,86.0
255,194.31869767708335,194.47584023958336,70.0,87.0
256,194.56359517708336,194.91869655208336,74.0,85.0
257,195.05339017708334,195.57991980208334,75.0,97.0
258,195.78808267708337,196.03706180208337,72.0,87.0
259,196.03298017708335,196.16767380208336,74.0,80.0
260,196.27787767708335,196.67583611458335,75.0,94.0
261,196.76767267708334,196.91257036458336,68.0,83.0
262,197.01257017708335,197.65746692708336,68.0,84.0
263,197.74726267708337,197.89216036458333,75.0,94.0
264,197.99216017708335,198.14318030208335,77.0,87.0
265,198.23705767708336,198.61052636458334,75.0,94.0
266,198.72685267708334,198.86562792708335,70.0,85.0
267,198.97175017708335,199.75542217708335,70.0,87.0
268,199.95134017708335,200.11256436458336,70.0,90.0
269,200.19623767708333,200.93093017708335,80.0,88.0
270,200.93093017708335,201.56154123958333,82.0,85.0
271,201.66562267708335,201.81460198958337,77.0,82.0
272,201.91052017708336,202.75133492708335,79.0,84.0
273,203.37990517708334,203.64316998958336,75.0,84.0
274,203.62480267708335,203.88806748958336,77.0,84.0
275,203.86970017708336,204.13296498958334,75.0,90.0
276,204.11459767708334,204.61663755208335,82.0,86.0
277,204.60439267708335,205.09418767708337,75.0,89.0
278,205.09418767708337,205.83704342708336,75.0,89.0
279,206.07377767708334,206.44928717708336,74.0,94.0
280,206.56357267708336,206.72071523958334,75.0,99.0
281,206.80847017708334,207.25132648958333,77.0,87.0
282,207.29826517708335,207.47581586458335,75.0,88.0
283,207.54316267708333,207.72071336458333,77.0,99.0
284,207.78806017708337,207.94724355208336,75.0,90.0
285,208.03295767708335,208.43703855208335,82.0,86.0
286,208.52275267708336,208.76765017708334,74.0,89.0
287,208.76765017708334,209.32683280208335,74.0,86.0
288,209.74724017708337,209.89417867708335,70.0,86.0
289,209.99213767708335,210.14928023958333,70.0,87.0
290,210.23703517708336,210.59213655208333,74.0,85.0
291,210.72683017708334,211.25335980208337,75.0,97.0
292,211.46152267708334,211.71050180208334,72.0,87.0
293,211.70642017708334,211.84111380208336,74.0,80.0
294,211.95131767708335,212.34927611458335,75.0,94.0
295,212.44111267708337,212.58601036458333,68.0,83.0
296,212.68601017708335,213.33530852708338,68.0,84.0
297,213.67275697708337,213.81884746458337,75.0,94.0
298,213.91967047708337,214.29621356458338,74.0,94.0
299,214.41349747708338,214.55341512708338,75.0,85.0
300,214.66041097708336,215.40115147708337,75.0,87.0
301,215.40115147708337,215.59456705208336,77.0,86.0
302,216.14189197708336,216.26534872708336,70.0,72.0
303,215.64806497708338,216.32913471458338,77.0,87.0
304,216.38880547708337,216.50403177708338,70.0,74.0
305,216.63571897708337,216.74065721458336,70.0,74.0
306,216.88263247708338,217.03078057708336,70.0,74.0
307,217.12954597708338,217.28592452708338,67.0,71.0
308,217.37645947708336,217.55958698958338,70.0,79.0
309,217.87028647708337,217.99580083958338,70.0,73.0
310,218.11719997708337,218.24271433958336,70.0,73.0
311,218.36411347708338,218.47933977708337,70.0,75.0
312,218.61102697708338,218.72625327708337,70.0,76.0
313,216.38880547708337,218.98962767708338,75.0,87.0
314,218.85794047708336,219.00608857708337,70.0,74.0
315,219.10485397708337,219.22213788958337,67.0,71.0
316,219.35176747708337,219.64806367708337,70.0,75.0
317,220.09250797708336,220.23859846458336,70.0,71.0
318,220.33942147708336,220.45464777708338,70.0,72.0
319,220.58633497708337,220.70567650208338,70.0,74.0
320,220.83324847708337,220.95670522708338,70.0,75.0
321,221.08016197708338,221.19538827708337,70.0,77.0
322,221.32707547708338,221.44641700208336,70.0,75.0
323,221.57398897708336,221.68921527708338,70.0,77.0
324,221.82090247708337,221.94024400208338,70.0,78.0
325,222.06781597708337,222.18921511458336,70.0,77.0
326,222.31472947708338,222.43201338958337,70.0,76.0
327,222.56164297708338,222.67069643958337,70.0,78.0
328,222.80855647708336,222.92378277708337,70.0,77.0
329,223.05546997708336,223.20156046458337,67.0,70.0
330,223.30238347708337,223.75300061458336,70.0,81.0
331,224.04312397708338,224.16863833958337,70.0,76.0
332,224.29003747708336,224.42172467708338,70.0,78.0
333,224.53695097708336,224.66658056458337,70.0,81.0
334,224.78386447708337,224.92172451458336,70.0,83.0
335,225.03077797708337,225.36205358958338,72.0,80.0
336,225.52442932083338,225.85166483958338,70.0,83.0
337,226.01223382083336,226.12605487083337,70.0,79.0
338,226.25613607083338,226.36589208333336,70.0,78.0
339,226.50003832083337,226.59963173958337,70.0,73.0
340,226.74394057083336,226.90044451458337,70.0,74.0
341,226.98784282083338,227.37605390208336,72.0,73.0
342,227.47564732083336,229.67076757083336,70.0,81.0
343,231.86588782083336,231.98783894583337,70.0,72.0
344,232.10979007083336,232.22361112083337,70.0,74.0
345,232.35369232083337,232.45735077708338,70.0,74.0
346,232.59759457083337,232.74393592083337,70.0,74.0
347,232.84149682083336,232.99596824583338,67.0,71.0
348,233.08539907083338,233.26629323958338,70.0,79.0
349,233.57320357083336,233.69718721458338,70.0,73.0
350,233.81710582083338,233.94108946458337,70.0,73.0
351,234.06100807083337,234.17482912083338,70.0,75.0
352,234.30491032083336,234.41873137083337,70.0,76.0
353,234.54881257083338,234.69515392083338,70.0,74.0
354,234.79271482083337,234.90856838958337,67.0,71.0
355,235.03661707083336,235.32929977083336,70.0,75.0
356,235.76832382083336,235.91263265208337,70.0,71.0
357,236.01222607083338,236.12604712083336,70.0,72.0
358,236.25612832083337,236.37401440833338,70.0,74.0
359,236.50003057083336,236.62198169583337,70.0,75.0
360,236.74393282083338,236.85775387083336,70.0,77.0
361,236.98783507083337,237.10572115833338,70.0,75.0
362,237.23173732083336,237.34555837083337,70.0,77.0
363,237.47563957083338,237.59352565833336,70.0,78.0
364,237.71954182083337,237.83946042708337,70.0,77.0
365,237.96344407083336,238.07929763958336,70.0,76.0
366,238.20734632083338,238.31506981458338,70.0,78.0
367,238.45124857083337,238.56506962083336,70.0,77.0
368,238.69515082083336,238.83945965208338,67.0,70.0
369,238.93905307083338,239.38417467708337,70.0,81.0
370,239.67075982083338,239.79474346458338,70.0,76.0
371,239.91466207083337,240.04474327083338,70.0,78.0
372,240.15856432083336,240.28678098125005,70.0,81.0
373,240.40454951250004,240.54297918958338,70.0,83.0
374,240.65248326250006,240.98512771041672,72.0,80.0
375,241.14835076250003,241.48099521041672,70.0,83.0
376,241.64421826250003,241.7599206791667,70.0,79.0
377,241.89215201250005,242.00372220000006,70.0,78.0
378,242.14008576250004,242.24132537708337,70.0,73.0
379,242.38801951250005,242.5471103354167,70.0,74.0
380,242.63595326250004,243.0305811479167,77.0,73.0
381,243.13182076250004,245.3494601791667,75.0,81.0
382,246.81884517916671,247.0821099916667,74.0,84.0
383,247.06374267916672,247.3270074916667,75.0,90.0
384,247.3086401791667,247.8106800541667,82.0,86.0
385,247.79843517916672,248.2882301791667,75.0,89.0
386,248.2882301791667,249.03108592916672,75.0,89.0
387,249.2678201791667,249.6433296791667,74.0,94.0
388,249.75761517916672,249.9147577416667,75.0,99.0
389,250.0025126791667,250.44536899166673,77.0,87.0
390,250.49230767916671,250.66985836666672,75.0,88.0
391,250.73720517916672,250.91475586666672,77.0,99.0
392,250.9821026791667,251.1412860541667,75.0,90.0
393,251.2270001791667,251.6310810541667,82.0,86.0
394,251.71679517916672,251.9616926791667,74.0,89.0
395,251.9616926791667,252.5208753041667,74.0,86.0
396,252.9412826791667,253.0882211791667,70.0,86.0
397,253.1861801791667,253.34332274166673,70.0,87.0
398,253.43107767916672,253.78617905416672,74.0,85.0
399,253.9208726791667,254.4474023041667,75.0,97.0
400,254.6555651791667,254.9045443041667,72.0,87.0
401,254.9004626791667,255.03515630416672,74.0,80.0
402,255.14536017916672,255.5433186166667,75.0,94.0
403,255.6351551791667,255.78005286666672,68.0,83.0
404,255.8800526791667,256.5249494291667,68.0,84.0
405,256.61474517916673,256.7596428666667,75.0,94.0
406,256.8596426791667,257.0106628041667,77.0,87.0
407,257.1045401791667,257.4780088666667,75.0,94.0
408,257.5943351791667,257.7331104291667,70.0,85.0
409,257.8392326791667,258.6229046791667,70.0,87.0
410,258.8188226791667,258.9800468666667,70.0,90.0
411,259.0637201791667,259.7984126791667,80.0,88.0
412,259.7984126791667,260.4290237416667,82.0,85.0
413,260.5331051791667,260.6820844916667,77.0,82.0
414,260.7780026791667,261.6188174291667,79.0,84.0
415,262.2473876791667,262.5106524916667,75.0,84.0
416,262.4922851791667,262.7555499916667,77.0,84.0
417,262.7371826791667,263.0004474916667,75.0,90.0
418,262.9820801791667,263.48412005416674,82.0,86.0
419,263.4718751791667,263.96167017916673,75.0,89.0
420,263.96167017916673,264.7045259291667,75.0,89.0
421,264.9412601791667,265.3167696791667,74.0,94.0
422,265.4310551791667,265.5881977416667,75.0,99.0
423,265.6759526791667,266.1188089916667,77.0,87.0
424,266.1657476791667,266.3432983666667,75.0,88.0
425,266.4106451791667,266.5881958666667,77.0,99.0
426,266.65554267916673,266.8147260541667,75.0,90.0
427,266.9004401791667,267.3045210541667,82.0,86.0
428,267.3902351791667,267.6351326791667,74.0,89.0
429,267.6351326791667,268.1943153041667,74.0,86.0
430,268.61472267916673,268.7616611791667,70.0,86.0
431,268.8596201791667,269.0167627416667,70.0,87.0
432,269.1045176791667,269.4596190541667,74.0,85.0
433,269.5943126791667,270.12084230416673,75.0,97.0
434,270.3290051791667,270.5779843041667,72.0,87.0
435,270.57390267916674,270.7085963041667,74.0,80.0
436,270.8188001791667,271.2167586166667,75.0,94.0
437,271.30859517916673,271.4534928666667,68.0,83.0
438,271.5534926791667,272.1983894291667,68.0,84.0
439,272.53308267916674,272.6779803666667,75.0,94.0
440,272.7779801791667,273.1514488666667,74.0,94.0
441,273.26777517916673,273.4065504291667,75.0,85.0
442,273.5126726791667,274.2473651791667,75.0,87.0
443,274.2473651791667,274.4392015541667,77.0,86.0
444,274.49226267916674,275.1677716166667,77.0,87.0
445,275.22695517916674,277.80654217916674,75.0,87.0
