,start,end,pitch,velocity
0,0.13729500416666668,0.6413930791666668,70.0,79.0
1,0.13729500416666668,0.7663930083333335,65.0,77.0
2,0.13729500416666668,1.5225401208333336,51.0,84.0
3,1.1209010041666667,1.6577859458333335,65.0,78.0
4,1.612704004166667,1.7315563958333335,63.0,66.0
5,0.6290980041666667,1.8872940125000002,58.0,75.0
6,1.1209010041666667,2.0163923,70.0,80.0
7,2.104507004166667,3.1290965875000003,70.0,80.0
8,2.104507004166667,3.1475392000000006,65.0,85.0
9,2.596310004166667,3.225408008333334,58.0,59.0
10,2.104507004166667,3.2499981583333337,50.0,77.0
11,3.088113004166667,3.280735845833334,62.0,84.0
12,4.071719004166667,5.151636425,67.0,77.0
13,4.071719004166667,5.190570829166667,63.0,74.0
14,4.563522004166667,5.260242920833334,55.0,66.0
15,4.071719004166667,5.485652629166667,48.0,81.0
16,5.055325004166668,5.649586962500001,60.0,84.0
17,5.547128004166668,5.680324650000001,67.0,83.0
18,6.038931004166668,6.629094604166667,58.0,65.0
19,6.038931004166668,6.635242141666668,67.0,68.0
20,6.038931004166668,6.752045354166667,62.0,68.0
21,6.530734004166668,7.403684329166667,53.0,74.0
22,6.038931004166668,7.467208883333335,46.0,79.0
23,7.022537004166668,7.637290754166668,58.0,88.0
24,7.514340004166668,7.680323516666668,62.0,78.0
25,8.006143004166669,8.735650787500001,60.0,76.0
26,8.006143004166669,8.846306462500001,56.0,76.0
27,8.989749004166669,9.1536833375,60.0,78.0
28,8.989749004166669,9.157781695833334,63.0,83.0
29,8.497946004166668,9.184421025,51.0,68.0
30,8.006143004166669,9.225404608333335,44.0,82.0
31,9.973355004166669,10.981551154166668,62.0,71.0
32,9.973355004166669,11.2069608625,43.0,81.0
33,9.973355004166669,11.227452654166669,67.0,75.0
34,10.465158004166668,11.229501833333336,50.0,69.0
35,10.956961004166669,11.278682133333335,58.0,85.0
36,11.940567004166668,12.649582995833335,65.0,78.0
37,11.940567004166668,12.665976429166669,60.0,75.0
38,12.924173004166668,13.512287425000002,60.0,83.0
39,12.924173004166668,13.612697204166668,68.0,77.0
40,13.907779004166668,15.051220979166668,65.0,81.0
41,13.907779004166668,15.059417695833336,60.0,72.0
42,12.432370004166668,15.06351605416667,48.0,64.0
43,11.940567004166668,15.120893070833336,41.0,84.0
44,15.874991004166668,16.45285952916667,65.0,78.0
45,15.874991004166668,16.747941329166668,58.0,67.0
46,15.874991004166668,16.774580658333335,62.0,73.0
47,16.85859700416667,17.303268883333335,65.0,83.0
48,16.366794004166668,17.70695717916667,53.0,79.0
49,15.874991004166668,17.717203075000004,46.0,78.0
50,17.10449850416667,19.21925140416667,58.0,79.0
51,17.35040000416667,19.303267750000003,62.0,80.0
52,17.84220300416667,19.325808720833336,70.0,71.0
53,17.84220300416667,19.389333275000002,46.0,78.0
54,17.596301504166668,19.44056275416667,65.0,75.0
55,19.80941500416667,20.090152550000003,58.0,72.0
56,19.80941500416667,20.588103087500002,63.0,76.0
57,20.30121800416667,20.87293899166667,58.0,69.0
58,20.79302100416667,21.411873112500004,67.0,78.0
59,20.79302100416667,21.42006982916667,63.0,83.0
60,21.77662700416667,22.29302015416667,63.0,79.0
61,21.77662700416667,22.377036500000003,67.0,75.0
62,22.26843000416667,22.602446208333337,58.0,79.0
63,19.80941500416667,22.897528008333335,39.0,84.0
64,22.76023300416667,22.971298458333337,58.0,84.0
65,22.76023300416667,23.22744585416667,62.0,87.0
66,22.76023300416667,23.426216233333335,67.0,83.0
67,23.74383900416667,24.344248500000003,63.0,75.0
68,23.74383900416667,24.350396037500005,60.0,74.0
69,23.74383900416667,24.35859275416667,67.0,75.0
70,24.72744500416667,24.93646127916667,60.0,80.0
71,24.72744500416667,25.31351024583334,63.0,83.0
72,25.21924800416667,25.35449382916667,60.0,64.0
73,24.72744500416667,25.383182337500003,67.0,75.0
74,25.71105100416667,25.90162466666667,60.0,75.0
75,25.71105100416667,26.256132662500004,63.0,74.0
76,26.20285400416667,26.30121460416667,60.0,45.0
77,25.71105100416667,26.372935875000003,67.0,70.0
78,24.23564200416667,26.75203402083334,55.0,63.0
79,26.69465700416667,26.877033950000005,60.0,83.0
80,23.74383900416667,26.913919175000004,48.0,83.0
81,26.69465700416667,26.96105029583334,63.0,83.0
82,26.69465700416667,27.110640375000003,67.0,79.0
83,27.18646000416667,27.31145993333334,58.0,85.0
84,27.67826300416667,28.290967575000003,60.0,78.0
85,27.67826300416667,28.33604951666667,56.0,80.0
86,28.66186900416667,28.813508262500005,56.0,83.0
87,28.17006600416667,29.032770433333337,51.0,67.0
88,27.67826300416667,29.057360583333338,44.0,83.0
89,28.66186900416667,29.16596707916667,60.0,85.0
90,28.66186900416667,29.252032604166672,63.0,83.0
91,29.15367200416667,29.301212904166672,56.0,83.0
92,29.64547500416667,30.288067477083338,58.0,76.0
93,29.64547500416667,30.371400745833338,62.0,74.0
94,30.621400552083337,30.82668494583334,62.0,77.0
95,30.621400552083337,30.84497761458334,58.0,79.0
96,30.133596052083337,30.867335320833337,53.0,69.0
97,29.64547500416667,30.962863702083336,46.0,78.0
98,31.59700955208334,32.001480783333335,39.0,81.0
99,31.59700955208334,32.10310672083334,63.0,75.0
100,31.59700955208334,32.11936687083334,67.0,73.0
101,32.57261855208334,32.72708997708334,63.0,83.0
102,32.57261855208334,32.79619561458334,67.0,78.0
103,33.06042305208334,33.62343074583334,58.0,63.0
104,33.54822755208334,34.06651983333334,63.0,83.0
105,33.54822755208334,34.11326776458334,67.0,77.0
106,34.036032052083335,34.22302377708334,58.0,52.0
107,34.52383655208334,34.676275458333336,51.0,81.0
108,34.52383655208334,34.99944593958334,67.0,77.0
109,34.52383655208334,35.00554349583334,63.0,83.0
110,35.011641052083334,35.14578728958334,58.0,84.0
111,35.49944555208334,36.15391658958334,63.0,75.0
112,35.49944555208334,36.16611170208334,60.0,72.0
113,35.49944555208334,36.30025793958334,56.0,75.0
114,35.49944555208334,36.94863142083334,44.0,83.0
115,35.98725005208334,36.952696458333335,51.0,69.0
116,36.475054552083336,37.01163950208334,60.0,83.0
117,36.475054552083336,37.03399720833334,63.0,83.0
118,36.96285905208334,37.08277765833334,56.0,87.0
119,37.45066355208334,38.16096623333334,62.0,73.0
120,37.45066355208334,38.245328345833336,58.0,77.0
121,37.93874408333334,38.78236520833334,53.0,72.0
122,37.45066355208334,38.82763268333334,46.0,82.0
123,38.432571083333336,38.85232403333334,65.0,85.0
124,38.432571083333336,38.89553389583334,62.0,84.0
125,38.92639808333334,39.15685068333334,58.0,79.0
126,39.420225083333335,40.060142570833335,62.0,77.0
127,39.420225083333335,40.08071869583334,67.0,73.0
128,40.40787908333334,40.90787892083334,62.0,97.0
129,39.420225083333335,40.992241033333336,43.0,83.0
130,39.91405208333334,41.00252909583334,50.0,66.0
131,40.90170608333334,41.04368134583334,58.0,84.0
132,41.39553308333334,42.045738633333336,63.0,79.0
133,41.39553308333334,42.088948495833336,60.0,79.0
134,41.88936008333334,42.502528608333336,55.0,68.0
135,42.38318708333334,42.55602653333334,60.0,79.0
136,41.39553308333334,42.67948328333334,48.0,81.0
137,42.38318708333334,42.84820750833334,67.0,83.0
138,42.38318708333334,42.87084124583334,63.0,84.0
139,42.877014083333336,42.98812515833334,60.0,85.0
140,43.37084108333334,44.24944162083334,63.0,79.0
141,43.37084108333334,44.31940044583334,56.0,78.0
142,44.35849508333334,44.905820008333336,60.0,85.0
143,43.86466808333334,45.13627260833334,51.0,71.0
144,43.37084108333334,45.189594877083344,44.0,81.0
145,45.34406630208334,45.976179633333345,63.0,78.0
146,44.85232208333334,46.02292756458334,56.0,79.0
147,46.31967530208334,46.54934992083334,56.0,84.0
148,46.31967530208334,46.60422792708334,68.0,81.0
149,46.563577552083345,46.84813017708334,63.0,79.0
150,45.831870802083344,46.93959352083334,51.0,63.0
151,46.80747980208334,46.947723595833345,56.0,84.0
152,45.34406630208334,46.95991870833334,44.0,79.0
153,47.295284302083346,48.29121848958334,58.0,79.0
154,47.295284302083346,48.325771308333344,62.0,75.0
155,48.270893302083344,48.872518852083346,65.0,84.0
156,47.78308880208334,48.986339902083344,53.0,75.0
157,48.75869780208334,49.00869760833334,58.0,84.0
158,47.295284302083346,49.01682768333335,46.0,83.0
159,49.24650230208334,50.02089194583334,70.0,77.0
160,49.24650230208334,50.03918461458334,62.0,77.0
161,49.24650230208334,50.12861543958334,58.0,79.0
162,49.24650230208334,50.40707050833334,46.0,81.0
163,50.22211130208334,50.75869625208334,70.0,83.0
164,50.22211130208334,50.78715151458334,62.0,83.0
165,50.709915802083344,50.894875008333344,41.0,85.0
166,51.19772030208334,51.52089078333334,58.0,71.0
167,51.19772030208334,51.83999622708335,63.0,76.0
168,51.68552480208334,52.22157667083334,58.0,72.0
169,52.17444555000001,52.58018302500001,67.0,82.0
170,52.17444555000001,52.635510862500006,63.0,84.0
171,51.19772030208334,52.96133035000001,39.0,90.0
172,53.15805155000001,53.38141207916667,58.0,74.0
173,53.15805155000001,53.64370701250001,63.0,79.0
174,53.15805155000001,53.651903729166676,67.0,74.0
175,53.15805155000001,53.723625000000006,39.0,74.0
176,53.64985455000001,53.80969052500001,58.0,70.0
177,54.141657550000005,54.31788695833334,58.0,78.0
178,54.141657550000005,54.41624755833334,50.0,75.0
179,54.141657550000005,54.58837860833334,62.0,84.0
180,55.12526355000001,55.74821401666667,63.0,82.0
181,55.12526355000001,55.75231237500001,60.0,78.0
182,56.10886955000001,56.31583664583334,60.0,82.0
183,56.10886955000001,56.701082329166674,67.0,78.0
184,56.10886955000001,56.854770766666675,63.0,84.0
185,56.600672550000006,56.920344500000006,60.0,74.0
186,57.09247555000001,57.340426229166674,60.0,76.0
187,57.09247555000001,57.45722944166668,63.0,75.0
188,57.09247555000001,57.49821302500001,67.0,72.0
189,55.61706655000001,58.19083558333334,55.0,64.0
190,55.12526355000001,58.32813058750001,48.0,83.0
191,58.07608155000001,58.479769845833346,63.0,85.0
192,58.07608155000001,58.487966562500006,67.0,84.0
193,58.07608155000001,58.50231081666668,60.0,84.0
194,58.56788455000001,58.71542545000001,46.0,78.0
195,59.05968755000001,59.65804786666668,60.0,76.0
196,59.05968755000001,59.676490479166674,56.0,77.0
197,60.04329355000001,60.22771967500001,56.0,83.0
198,59.55149055000001,60.36296550000001,51.0,63.0
199,59.05968755000001,60.44698184583334,44.0,79.0
200,60.04329355000001,60.535096550000006,60.0,87.0
201,60.04329355000001,60.596571925000006,63.0,84.0
202,60.535096550000006,60.66829319583334,56.0,88.0
203,61.02689955000001,61.66624345000001,63.0,77.0
204,61.02689955000001,61.67034180833334,58.0,76.0
205,61.51870255000001,62.186734958333346,53.0,79.0
206,61.02689955000001,62.23181690000001,46.0,83.0
207,62.01050555000001,62.49616101250001,62.0,89.0
208,62.01050555000001,62.62525930000001,58.0,84.0
209,62.50230855000001,62.68058713750001,46.0,83.0
210,62.994111550000014,63.25845566250001,58.0,76.0
211,62.994111550000014,63.598619404166676,63.0,82.0
212,63.48591455000001,64.08015979583334,58.0,75.0
213,63.97650133958334,64.51918384583334,63.0,87.0
214,63.97650133958334,64.55170414583334,67.0,88.0
215,62.994111550000014,64.80780150833334,39.0,84.0
216,64.46430583958335,65.01715093958335,58.0,80.0
217,64.95211033958334,65.47446765833334,61.0,84.0
218,64.95211033958334,65.59235374583335,67.0,81.0
219,65.43991483958334,65.86471125833334,58.0,75.0
220,64.95211033958334,66.26714997083334,39.0,84.0
221,65.92771933958335,66.36674338958335,63.0,87.0
222,65.92771933958335,66.37893850208334,67.0,86.0
223,66.41552383958334,66.53950748333334,58.0,83.0
224,66.90332833958334,67.54357174583335,63.0,79.0
225,66.90332833958334,67.57812456458335,56.0,77.0
226,67.39113283958335,68.20617285833335,51.0,72.0
227,66.90332833958334,68.29763620208334,44.0,83.0
228,67.87893733958335,68.33015650208334,60.0,86.0
229,67.87893733958335,68.41145725208335,63.0,84.0
230,68.36674183958334,68.52324578333335,56.0,86.0
231,68.85454633958335,69.49885478333334,62.0,82.0
232,68.85454633958335,69.54560271458334,58.0,78.0
233,69.83015533958334,70.06999255208335,65.0,85.0
234,69.83015533958334,70.12080552083334,58.0,81.0
235,69.34235083958335,70.14113070833335,53.0,74.0
236,68.85454633958335,70.17365100833334,46.0,81.0
237,69.83015533958334,70.23665908958334,62.0,87.0
238,70.80576433958335,71.38096714583334,62.0,82.0
239,70.80576433958335,71.44194270833334,67.0,78.0
240,71.78137333958334,71.94397483958335,58.0,79.0
241,70.80576433958335,72.04356825833335,43.0,84.0
242,71.29356883958334,72.06999100208334,50.0,66.0
243,71.78137333958334,72.31186073333335,62.0,86.0
244,72.26917783958335,72.41551918958335,58.0,84.0
245,71.78137333958334,72.60047839583335,67.0,78.0
246,72.75698233958335,73.46836390208334,60.0,78.0
247,72.75698233958335,73.47039642083334,63.0,78.0
248,72.75698233958335,73.48259153333335,67.0,72.0
249,73.73259133958334,73.91755054583335,60.0,84.0
250,73.24478683958334,73.93177817708334,55.0,71.0
251,72.75698233958335,74.09234715833334,48.0,83.0
252,73.73259133958334,74.18381050208335,67.0,84.0
253,73.73259133958334,74.20007065208334,63.0,86.0
254,74.22039583958335,74.33624940833334,60.0,85.0
255,74.70820033958334,75.39519167708335,56.0,78.0
256,74.70820033958334,75.75698001458335,53.0,80.0
257,75.68380933958335,76.21632925208334,56.0,87.0
258,75.19600483958334,76.23665443958335,48.0,75.0
259,74.70820033958334,76.26917473958335,41.0,84.0
260,75.68380933958335,76.40535349583334,60.0,88.0
261,76.17161383958334,76.43380875833334,53.0,85.0
262,77.14722283958335,77.46226324583334,58.0,83.0
263,76.65941833958334,77.90883436041668,46.0,90.0
264,76.90332058958334,77.94571958541668,53.0,78.0
265,77.63629353125002,78.26744071458334,62.0,86.0
266,77.63629353125002,78.45596519791668,58.0,85.0
267,78.61989953125001,78.91088297291668,58.0,80.0
268,78.61989953125001,79.31866962708335,63.0,83.0
269,79.11170253125002,79.69776777291668,58.0,82.0
270,79.60350553125002,80.11784950208335,63.0,87.0
271,79.60350553125002,80.15678390625001,68.0,84.0
272,78.61989953125001,80.39243951041668,39.0,88.0
273,80.09530853125001,80.68547213125001,58.0,84.0
274,80.58711153125002,81.15063580208334,63.0,81.0
275,80.58711153125002,81.22030789375002,67.0,77.0
276,81.07891453125002,81.26538983541668,58.0,68.0
277,81.57071753125001,81.82686492708335,58.0,84.0
278,81.57071753125001,81.96825828958335,63.0,90.0
279,81.57071753125001,82.09940575625002,67.0,87.0
280,80.58711153125002,82.11784836875002,39.0,84.0
281,81.81661903125001,82.11784836875002,46.0,76.0
282,82.06252053125002,82.20186471458335,58.0,87.0
283,82.55432353125002,83.19776578958334,56.0,79.0
284,82.55432353125002,83.22030676041668,60.0,83.0
285,82.55432353125002,83.22030676041668,63.0,83.0
286,83.04612653125001,83.61374916041669,51.0,83.0
287,83.53792953125001,83.81456871875001,56.0,86.0
288,83.53792953125001,83.91088013958336,60.0,92.0
289,83.53792953125001,83.95186372291668,63.0,90.0
290,82.55432353125002,84.10965051875002,44.0,84.0
291,83.78383103125002,84.18547014791669,51.0,84.0
292,84.02973253125002,84.33096186875002,56.0,85.0
293,84.27563403125002,84.47440441041668,60.0,79.0
294,84.52153553125001,84.95391233541669,62.0,86.0
295,84.52153553125001,85.05432211458336,58.0,79.0
296,85.01333853125001,85.58915787708335,53.0,75.0
297,84.52153553125001,85.79817415208335,46.0,85.0
298,85.50514153125002,85.96005930625002,58.0,86.0
299,85.50514153125002,85.97030520208335,65.0,92.0
300,85.50514153125002,85.98874781458335,62.0,94.0
301,86.48874753125001,86.74489492708335,58.0,81.0
302,86.48874753125001,87.01333739791669,62.0,80.0
303,86.98055053125002,87.29407494375002,58.0,83.0
304,87.22645203125002,87.35145196041668,62.0,83.0
305,86.73464903125002,87.61374689375002,50.0,72.0
306,86.48874753125001,87.76333697291668,43.0,85.0
307,87.47235353125002,87.84120578125001,58.0,84.0
308,87.71825503125001,87.95391063541669,50.0,75.0
309,87.47235353125002,87.99899257708336,62.0,94.0
310,87.96415653125001,88.07891056458335,43.0,84.0
311,87.47235353125002,88.29612355625002,67.0,85.0
312,88.45595953125002,88.77153312291668,60.0,80.0
313,88.45595953125002,88.96825432291668,63.0,82.0
314,88.45595953125002,89.05022148958335,67.0,76.0
315,88.94776253125002,89.53177859375002,55.0,71.0
316,88.45595953125002,89.73874568958335,48.0,87.0
317,89.43956553125001,89.75513912291669,60.0,86.0
318,89.68546703125001,89.86784397708335,55.0,79.0
319,89.43956553125001,89.86784397708335,63.0,94.0
320,89.43956553125001,89.96005703958335,67.0,88.0
321,89.93136853125002,90.07276189375001,48.0,83.0
322,90.42317153125002,91.04202363958335,65.0,84.0
323,90.42317153125002,91.06456461041668,68.0,79.0
324,90.42317153125002,91.08095804375002,60.0,80.0
325,90.91497453125001,91.52562992291668,48.0,68.0
326,91.40677753125001,91.83710515625002,60.0,86.0
327,91.40677753125001,91.88423627708335,65.0,97.0
328,90.42317153125002,91.97644933958335,41.0,85.0
329,91.89858053125002,92.01948210208334,48.0,84.0
330,91.40677753125001,92.02358046041668,68.0,85.0
331,92.14448203125002,92.26128524375002,60.0,85.0
332,92.39038353125002,93.04202250625002,58.0,83.0
333,92.39038353125002,93.06456347708335,65.0,72.0
334,92.88218653125001,93.47644848958335,53.0,85.0
335,92.39038353125002,93.65062871875001,46.0,85.0
336,93.37398953125002,93.71415327291669,58.0,84.0
337,93.37398953125002,93.73464506458335,62.0,87.0
338,93.37398953125002,93.75308767708336,65.0,88.0
339,93.61989103125002,93.76538275208335,53.0,83.0
340,93.86579253125002,94.02767768541668,46.0,84.0
341,94.35759553125001,94.46415284791668,39.0,88.0
342,94.35759553125001,95.07070988125002,63.0,84.0
343,94.35759553125001,95.13423443541669,67.0,78.0
344,94.84939853125002,95.24489011041669,58.0,83.0
345,95.34120153125002,95.40472608541668,61.0,83.0
346,95.34120153125002,95.64243086875001,58.0,78.0
347,94.84939853125002,95.84325042708335,51.0,83.0
348,95.34120153125002,95.87398811458336,63.0,83.0
349,95.34120153125002,96.10144700208335,67.0,88.0
350,95.83300453125003,96.15882401875001,58.0,85.0
351,96.32480753125002,96.60349589791669,58.0,84.0
352,96.32480753125002,96.80021709791669,61.0,88.0
353,96.32480753125002,97.01128255208334,67.0,86.0
354,96.32480753125002,97.06865956875002,51.0,92.0
355,96.81661053125002,97.12398740625002,58.0,84.0
356,97.30841353125001,97.54611831458335,58.0,88.0
357,97.30841353125001,97.69365921458335,55.0,87.0
358,97.30841353125001,97.70800346875002,51.0,92.0
359,97.30841353125001,97.80636406875001,67.0,92.0
360,97.30841353125001,97.81660996458335,61.0,99.0
361,97.80021653125002,97.91497056458336,58.0,87.0
362,98.29201953125002,98.58915051041669,56.0,84.0
363,98.29201953125002,98.78587171041669,63.0,82.0
364,98.78382253125002,99.18751082708334,56.0,84.0
365,99.02972403125003,99.20185508125002,60.0,80.0
366,99.27562553125001,99.40882217708335,60.0,73.0
367,98.53792103125002,99.42726478958335,51.0,76.0
368,98.29201953125002,99.69365808125002,44.0,84.0
369,99.76742853125002,99.80841211458335,44.0,29.0
370,99.52152703125002,99.86578913125001,56.0,87.0
371,99.76742853125002,100.01128085208336,51.0,87.0
372,99.27562553125001,100.05431361458335,68.0,92.0
373,100.01333003125002,100.13423160208335,56.0,84.0
374,100.75103453125001,100.87603446041669,62.0,88.0
375,100.75103453125001,101.08914909375002,58.0,89.0
376,100.50513303125001,101.33095223541669,53.0,83.0
377,100.25923153125002,101.76947657708335,46.0,85.0
378,101.24283753125002,101.79406672708335,65.0,94.0
379,101.24283753125002,101.80021426458336,58.0,84.0
380,101.24283753125002,101.81660769791668,62.0,92.0
381,101.73464053125002,101.85964046041668,53.0,81.0
382,102.22644353125003,102.73668914375003,62.0,84.0
383,102.22644353125003,102.78382026458335,67.0,83.0
384,102.71824653125002,103.07480370625002,58.0,80.0
385,102.96414803125002,103.13218072291669,62.0,87.0
386,102.47234503125001,103.55226245208335,50.0,70.0
387,102.22644353125003,103.63832797708335,43.0,86.0
388,103.45595103125002,103.71209842708335,62.0,86.0
389,103.70185253125001,103.71209842708335,62.0,84.0
390,103.21004953125002,103.94365567291669,67.0,97.0
391,103.70185253125001,103.98259007708336,58.0,80.0
392,104.19365553125002,104.49283568958336,60.0,83.0
393,104.19365553125002,104.72644211458335,63.0,84.0
394,104.68545853125002,104.98865369375001,60.0,83.0
395,104.92971065,105.04556421875002,63.0,78.0
396,104.43955703125002,105.45206796875001,55.0,73.0
397,104.19365553125002,105.56995405625001,48.0,85.0
398,105.17361290000001,105.68987266250001,63.0,87.0
399,105.17361290000001,105.70613281250002,67.0,85.0
400,105.17361290000001,105.7305230375,60.0,84.0
401,105.6614174,105.83011645625001,48.0,86.0
402,106.14922190000001,106.41141681875001,60.0,80.0
403,106.14922190000001,106.71832715000001,65.0,83.0
404,106.63702640000001,106.88092865000002,60.0,76.0
405,107.1248309,107.42970871250002,60.0,84.0
406,107.1248309,107.58214761875001,65.0,88.0
407,107.1248309,107.61466791875002,68.0,82.0
408,107.36873315000001,107.66548088750001,48.0,81.0
409,106.14922190000001,107.67564348125,41.0,87.0
410,107.61263540000002,107.93174084375,60.0,84.0
411,107.85653765,107.94800099375001,65.0,81.0
412,108.10043990000001,108.75897597500001,62.0,82.0
413,108.10043990000001,108.77117108750001,58.0,78.0
414,108.10043990000001,109.33011374375002,46.0,84.0
415,108.58824440000001,109.3971868625,53.0,82.0
416,109.07604890000002,109.52930058125001,65.0,86.0
417,109.07604890000002,109.54962576875,62.0,90.0
418,109.07604890000002,109.59840621875001,58.0,83.0
419,109.56385340000001,109.91954418125002,46.0,84.0
420,110.05165790000001,110.28539755625002,58.0,76.0
421,110.05165790000001,110.58824285000001,63.0,79.0
422,110.05165790000001,110.59027536875001,67.0,71.0
423,111.02978902083335,111.54203295833335,63.0,83.0
424,111.02978902083335,111.56652270833335,67.0,83.0
425,110.05165790000001,111.69305308333335,51.0,83.0
426,111.51958402083335,111.71754283333335,58.0,74.0
427,112.00937902083335,112.59101058333336,65.0,79.0
428,112.00937902083335,112.59509220833336,62.0,65.0
429,112.00937902083335,112.61958195833336,58.0,68.0
430,112.00937902083335,113.11958102083335,46.0,80.0
431,112.98896902083335,113.13794833333336,58.0,67.0
432,112.98896902083335,113.13998914583335,62.0,64.0
433,112.49917402083335,113.19100945833335,53.0,68.0
434,112.98896902083335,113.20121352083335,65.0,73.0
435,113.96855902083335,114.58896602083335,60.0,69.0
436,113.96855902083335,114.79712889583335,63.0,71.0
437,114.94814902083336,115.23590358333335,60.0,84.0
438,114.45835402083335,115.32774014583335,55.0,72.0
439,115.19304652083335,115.43386239583336,62.0,83.0
440,113.96855902083335,115.46243377083336,48.0,80.0
441,115.43794402083336,115.64814770833335,63.0,81.0
442,115.92773902083336,117.00936964583335,58.0,68.0
443,115.92773902083336,117.07059402083335,62.0,72.0
444,117.15222652083335,117.40324645833336,58.0,84.0
445,116.41753402083336,117.47467489583335,53.0,60.0
446,116.90732902083334,117.47467489583335,70.0,83.0
447,115.92773902083336,117.49712383333335,46.0,82.0
448,117.39712402083335,117.51140952083335,65.0,75.0
449,117.88691902083335,118.87263145833334,56.0,72.0
450,117.88691902083335,118.93385583333335,60.0,74.0
451,117.88691902083335,119.25834502083335,44.0,79.0
452,118.37671402083335,119.34609995833335,51.0,67.0
453,118.86650902083335,119.37263052083335,63.0,83.0
454,119.35630402083335,119.45630383333335,56.0,84.0
455,119.84609902083335,120.51548552083335,58.0,72.0
456,119.84609902083335,120.55222014583335,62.0,75.0
457,120.33589402083335,120.94201533333336,53.0,69.0
458,119.84609902083335,121.09303545833335,46.0,76.0
459,120.82568902083335,121.15630064583335,62.0,74.0
460,120.82568902083335,121.19711689583335,58.0,78.0
461,121.80527902083335,121.92568695833336,39.0,84.0
462,121.80527902083335,122.09915602083335,58.0,69.0
463,121.80527902083335,122.34609433333335,63.0,75.0
464,123.02976652083335,123.32568433333336,65.0,78.0
465,122.78486902083336,123.47874527083336,58.0,72.0
466,122.29507402083335,123.55629614583336,51.0,80.0
467,123.27466402083336,123.56650020833335,67.0,76.0
468,123.76445902083336,124.40119252083335,67.0,67.0
469,123.76445902083336,124.45629445833335,63.0,59.0
470,124.74404902083336,124.95221189583336,63.0,71.0
471,123.76445902083336,125.02364033333335,51.0,72.0
472,124.74404902083336,125.07057902083335,67.0,69.0
473,124.74404902083336,125.08894633333335,70.0,78.0
474,125.72508123958335,126.00813893750002,58.0,72.0
475,125.72508123958335,126.51020478125002,63.0,76.0
476,126.22094873958335,126.79739470833336,58.0,69.0
477,126.71681623958335,127.34078284375002,67.0,78.0
478,126.71681623958335,127.34904730208335,63.0,83.0
479,127.70657767708335,128.22086242708335,63.0,79.0
480,127.70657767708335,128.30453573958334,67.0,75.0
481,128.19637267708336,128.52902511458333,58.0,79.0
482,125.72508123958335,128.82290211458334,39.0,84.0
483,128.68616767708335,128.89637136458336,58.0,84.0
484,128.68616767708335,129.15147292708335,62.0,87.0
485,128.68616767708335,129.34943173958334,67.0,83.0
486,129.66575767708335,130.26371573958335,63.0,75.0
487,129.66575767708335,130.26983817708336,60.0,74.0
488,129.66575767708335,130.27800142708335,67.0,75.0
489,130.64534767708335,130.85351055208335,60.0,80.0
490,130.64534767708335,131.22902005208334,63.0,83.0
491,131.13514267708334,131.26983630208335,60.0,64.0
492,130.64534767708335,131.29840767708336,67.0,75.0
493,131.62493767708335,131.81473323958335,60.0,75.0
494,131.62493767708335,132.16779380208334,63.0,74.0
495,132.11473267708334,132.21269167708334,60.0,45.0
496,131.62493767708335,132.28412011458335,67.0,70.0
497,130.15555267708334,132.66167042708335,55.0,63.0
498,132.60452767708335,132.78615998958335,60.0,83.0
499,129.66575767708335,132.82289461458333,48.0,83.0
500,132.60452767708335,132.86983330208335,63.0,83.0
501,132.60452767708335,133.01881261458334,67.0,79.0
502,133.09432267708334,133.21881223958334,58.0,85.0
503,133.58411767708336,134.19432061458335,60.0,78.0
504,133.58411767708336,134.23921848958335,56.0,80.0
505,134.56370767708336,134.71472780208336,56.0,83.0
506,134.07391267708334,134.93309473958334,51.0,67.0
507,133.58411767708336,134.95758448958335,44.0,83.0
508,134.56370767708336,135.06574755208334,60.0,85.0
509,134.56370767708336,135.15146167708335,63.0,83.0
510,135.05350267708334,135.20044117708335,56.0,83.0
511,135.54329767708336,136.18819442708335,58.0,76.0
512,135.54329767708336,136.27186773958334,62.0,74.0
513,136.52288767708336,136.72900973958335,62.0,77.0
514,136.52288767708336,136.74737705208335,58.0,79.0
515,136.03309267708335,136.76982598958335,53.0,69.0
516,135.54329767708336,136.86574417708334,46.0,78.0
517,137.50247767708333,137.90859936458335,39.0,81.0
518,137.50247767708333,138.01063998958335,63.0,75.0
519,137.50247767708333,138.02696648958334,67.0,73.0
520,138.48206767708334,138.63716942708334,63.0,83.0
521,138.48206767708334,138.70655705208335,67.0,78.0
522,138.97186267708335,139.53716773958334,58.0,63.0
523,139.46165767708334,139.98206486458335,63.0,83.0
524,139.46165767708334,140.02900355208334,67.0,77.0
525,139.95145267708335,140.13920742708333,58.0,52.0
526,140.44124767708334,140.59430861458335,51.0,81.0
527,140.44124767708334,140.91879780208336,67.0,77.0
528,140.44124767708334,140.92492023958334,63.0,83.0
529,140.93104267708335,141.06573630208334,58.0,84.0
530,141.42083767708334,142.07797930208335,63.0,75.0
531,141.42083767708334,142.09022417708334,60.0,72.0
532,141.42083767708334,142.22491780208335,56.0,75.0
533,141.42083767708334,142.87593698958335,44.0,83.0
534,141.91063267708336,142.88001861458335,51.0,69.0
535,142.40042767708334,142.93920217708336,60.0,83.0
536,142.40042767708334,142.96165111458336,63.0,83.0
537,142.89022267708336,143.01063061458336,56.0,87.0
538,143.38001767708334,144.09022042708335,62.0,73.0
539,143.38001767708334,144.17389373958335,58.0,77.0
540,143.86981267708336,144.70654580208335,53.0,72.0
541,143.38001767708334,144.75144367708336,46.0,82.0
542,144.35960767708335,144.77593342708334,65.0,85.0
543,144.35960767708335,144.81879048958336,62.0,84.0
544,144.84940267708333,145.07797367708335,58.0,79.0
545,145.33919767708335,145.97389036458335,62.0,77.0
546,145.33919767708335,145.99429848958334,67.0,73.0
547,146.31878767708335,146.81470511458335,62.0,97.0
548,145.33919767708335,146.89837842708334,43.0,83.0
549,145.82899267708336,146.90858248958335,50.0,66.0
550,146.80858267708334,146.94939873958336,58.0,84.0
551,147.29837767708335,147.94327442708334,63.0,79.0
552,147.29837767708335,147.98613148958336,60.0,79.0
553,147.78817267708334,148.39633480208335,55.0,68.0
554,148.27796767708335,148.44939592708334,60.0,79.0
555,147.29837767708335,148.57184467708333,48.0,81.0
556,148.27796767708335,148.73919130208336,67.0,83.0
557,148.27796767708335,148.76164023958336,63.0,84.0
558,148.76776267708334,148.87796655208334,60.0,85.0
559,149.25755767708335,150.12898461458335,63.0,79.0
560,149.25755767708335,150.19837223958336,56.0,78.0
561,150.23714767708336,150.78000380208334,60.0,85.0
562,149.74735267708334,151.00857480208336,51.0,71.0
563,149.25755767708335,151.06163592708336,44.0,81.0
564,151.21673767708336,151.85143036458334,63.0,78.0
565,150.72694267708334,151.89836905208335,56.0,79.0
566,152.19632767708336,152.42693948958333,56.0,84.0
567,152.19632767708336,152.48204142708335,68.0,81.0
568,152.44122517708334,152.72693892708335,63.0,79.0
569,151.70653267708335,152.81877548958335,51.0,63.0
570,152.68612267708335,152.82693873958334,56.0,84.0
571,151.21673767708336,152.83918361458336,44.0,79.0
572,153.17591767708336,154.17591580208335,58.0,79.0
573,153.17591767708336,154.21060961458335,62.0,75.0
574,154.15550767708334,154.75958817708334,65.0,84.0
575,153.66571267708335,154.87387367708334,53.0,75.0
576,154.64530267708335,154.89632261458334,58.0,84.0
577,153.17591767708336,154.90448586458336,46.0,83.0
578,155.13509767708334,155.91264723958335,70.0,77.0
579,155.13509767708334,155.93101455208335,62.0,77.0
580,155.13509767708334,156.02081030208336,58.0,79.0
581,155.13509767708334,156.30040161458334,46.0,81.0
582,156.11468767708334,156.65346217708336,70.0,83.0
583,156.11468767708334,156.68203355208334,62.0,83.0
584,156.60448267708335,156.79019661458335,41.0,85.0
585,157.09427767708334,157.41876686458335,58.0,71.0
586,157.09427767708334,157.73917442708336,63.0,76.0
587,157.58407267708336,158.12080636458336,58.0,72.0
588,158.07386767708334,158.47794855208335,67.0,82.0
589,158.07386767708334,158.53305048958336,63.0,84.0
590,157.09427767708334,158.85753967708334,39.0,90.0
591,159.05345767708334,159.27590623958335,58.0,74.0
592,159.05345767708334,159.53713023958335,63.0,79.0
593,159.05345767708334,159.54529348958334,67.0,74.0
594,159.05345767708334,159.61672192708335,39.0,74.0
595,159.54325267708336,159.70243605208336,58.0,70.0
596,160.03304767708335,160.20855755208333,58.0,78.0
597,160.03304767708335,160.30651655208334,50.0,75.0
598,160.03304767708335,160.47794480208336,62.0,84.0
599,161.01263767708335,161.63304467708335,63.0,82.0
600,161.01263767708335,161.63712630208335,60.0,78.0
601,161.99222767708335,162.19834973958336,60.0,82.0
602,161.99222767708335,162.58202248958335,67.0,78.0
603,161.99222767708335,162.73508342708334,63.0,84.0
604,162.48202267708336,162.80038942708336,60.0,74.0
605,162.97181767708335,163.21875598958334,60.0,76.0
606,162.97181767708335,163.33508230208335,63.0,75.0
607,162.97181767708335,163.37589855208336,67.0,72.0
608,161.50243267708333,164.06569317708335,55.0,64.0
609,161.01263767708335,164.20242761458334,48.0,83.0
610,163.95140767708335,164.35344773958334,63.0,85.0
611,163.95140767708335,164.36161098958334,67.0,84.0
612,163.95140767708335,164.37589667708335,60.0,84.0
613,164.44120267708334,164.58814117708334,46.0,78.0
614,164.93099767708335,165.52691492708334,60.0,76.0
615,164.93099767708335,165.54528223958334,56.0,77.0
616,165.91058767708336,166.09426080208334,56.0,83.0
617,165.42079267708334,166.22895442708335,51.0,63.0
618,164.93099767708335,166.31262773958335,44.0,79.0
619,165.91058767708336,166.40038267708334,60.0,87.0
620,165.91058767708336,166.46160705208337,63.0,84.0
621,166.40038267708334,166.53303548958334,56.0,88.0
622,166.89017767708336,167.52691117708335,63.0,77.0
623,166.89017767708336,167.53099280208335,58.0,76.0
624,167.37997267708334,168.04527755208335,53.0,79.0
625,166.89017767708336,168.09017542708335,46.0,83.0
626,167.86976767708336,168.35344023958334,62.0,89.0
627,167.86976767708336,168.48201142708336,58.0,84.0
628,168.35956267708335,168.53711336458335,46.0,83.0
629,168.84935767708333,169.11262248958334,58.0,76.0
630,168.84935767708333,169.45139736458336,63.0,82.0
631,169.33915267708335,169.93302911458335,58.0,75.0
632,169.82894767708336,170.37384461458333,63.0,87.0
633,169.82894767708336,170.40649761458334,67.0,88.0
634,168.84935767708333,170.66363998958334,39.0,84.0
635,170.31874267708335,170.87384367708336,58.0,80.0
636,170.80853767708334,171.33302648958335,61.0,84.0
637,170.80853767708334,171.45139361458337,67.0,81.0
638,171.29833267708335,171.72486248958336,58.0,75.0
639,170.80853767708334,172.12894336458334,39.0,84.0
640,171.78812767708337,172.22894317708335,63.0,87.0
641,171.78812767708337,172.24118805208334,67.0,86.0
642,172.27792267708335,172.40241223958336,58.0,83.0
643,172.76771767708334,173.41057361458334,63.0,79.0
644,172.76771767708334,173.44526742708337,56.0,77.0
645,173.25751267708335,174.07587848958335,51.0,72.0
646,172.76771767708334,174.16771505208334,44.0,83.0
647,173.74730767708334,174.20036805208335,60.0,86.0
648,173.74730767708334,174.28200055208333,63.0,84.0
649,174.23710267708336,174.39424523958334,56.0,86.0
650,174.72689767708334,175.37383523958334,62.0,82.0
651,174.72689767708334,175.42077392708336,58.0,78.0
652,175.70648767708335,175.94730355208335,65.0,85.0
653,175.70648767708335,175.99832386458334,58.0,81.0
654,175.21669267708336,176.01873198958336,53.0,74.0
655,174.72689767708334,176.05138498958334,46.0,81.0
656,175.70648767708335,176.11465017708335,62.0,87.0
657,176.68607767708335,177.26362761458336,62.0,82.0
658,176.68607767708335,177.32485198958335,67.0,78.0
659,177.66566767708335,177.82893267708334,58.0,79.0
660,176.68607767708335,177.92893248958336,43.0,84.0
661,177.17587267708336,177.95546305208336,50.0,66.0
662,177.66566767708335,178.19831973958335,62.0,86.0
663,178.15546267708334,178.30240117708334,58.0,84.0
664,177.66566767708335,178.48811511458337,67.0,78.0
665,178.64525767708335,179.35954205208336,60.0,78.0
666,178.64525767708335,179.36158286458334,63.0,78.0
667,178.64525767708335,179.37382773958336,67.0,72.0
668,179.62484767708335,179.81056161458335,60.0,84.0
669,179.13505267708337,179.82484730208336,55.0,71.0
670,178.64525767708335,179.98607148958337,48.0,83.0
671,179.62484767708335,180.07790805208336,67.0,84.0
672,179.62484767708335,180.09423455208335,63.0,86.0
673,180.11464267708334,180.23096898958335,60.0,85.0
674,180.60443767708335,181.29423230208334,56.0,78.0
675,180.60443767708335,181.65749692708334,53.0,80.0
676,181.58402767708336,182.11872055208335,56.0,87.0
677,181.09423267708334,182.13912867708336,48.0,75.0
678,180.60443767708335,182.17178167708335,41.0,84.0
679,181.58402767708336,182.30851611458334,60.0,88.0
680,182.07382267708334,182.33708748958335,53.0,85.0
681,183.05341267708334,183.36973861458335,58.0,83.0
682,182.56361767708336,183.81463573958337,46.0,90.0
683,182.80851517708334,183.85137036458335,53.0,78.0
684,183.54320767708336,184.17177792708335,62.0,86.0
685,183.54320767708336,184.35953267708334,58.0,85.0
686,184.52279767708336,184.81259305208334,58.0,80.0
687,184.52279767708336,185.21871473958333,63.0,83.0
688,185.01259267708335,185.59626505208337,58.0,82.0
689,185.50238767708333,186.01463161458335,63.0,87.0
690,185.50238767708333,186.05340705208334,68.0,84.0
691,184.52279767708336,186.28810048958334,39.0,88.0
692,185.99218267708335,186.57993667708337,58.0,84.0
693,186.48197767708336,187.04320111458335,63.0,81.0
694,186.48197767708336,187.11258873958334,67.0,77.0
695,186.97177267708335,187.15748661458335,58.0,68.0
696,187.46156767708334,187.71666923958335,58.0,84.0
697,187.46156767708334,187.85748530208335,63.0,90.0
698,187.46156767708334,187.98809730208336,67.0,87.0
699,186.48197767708336,188.00646461458336,39.0,84.0
700,187.70646517708334,188.00646461458336,46.0,76.0
701,187.95136267708335,188.09013792708333,58.0,87.0
702,188.44115767708337,189.08197280208336,56.0,79.0
703,188.44115767708337,189.10442173958336,60.0,83.0
704,188.44115767708337,189.10442173958336,63.0,83.0
705,188.93095267708335,189.49625773958334,51.0,83.0
706,189.42074767708334,189.69625736458335,56.0,86.0
707,189.42074767708334,189.79217555208334,60.0,92.0
708,189.42074767708334,189.83299180208334,63.0,90.0
709,188.44115767708337,189.99013436458335,44.0,84.0
710,189.66564517708335,190.06564442708336,51.0,84.0
711,189.91054267708336,190.21054211458335,56.0,85.0
712,190.15544017708334,190.35339898958335,60.0,79.0
713,190.40033767708334,190.83094911458335,62.0,86.0
714,190.40033767708334,190.93094892708336,58.0,79.0
715,190.89013267708336,191.46360098958334,53.0,75.0
716,190.40033767708334,191.67176386458334,46.0,85.0
717,191.37992767708334,191.83298805208335,58.0,86.0
718,191.37992767708334,191.84319211458336,65.0,92.0
719,191.37992767708334,191.86155942708336,62.0,94.0
720,192.35951767708335,192.61461923958336,58.0,81.0
721,192.35951767708335,192.88196567708334,62.0,80.0
722,192.84931267708333,193.16155698958335,58.0,83.0
723,193.09421017708337,193.21869973958337,62.0,83.0
724,192.60441517708335,193.47992373958334,50.0,72.0
725,192.35951767708335,193.62890305208333,43.0,85.0
726,193.33910767708335,193.70645392708334,58.0,84.0
727,193.58400517708336,193.81869861458335,50.0,75.0
728,193.33910767708335,193.86359648958336,62.0,94.0
729,193.82890267708336,193.94318817708336,43.0,84.0
730,193.33910767708335,194.15951430208335,67.0,85.0
731,194.31869767708335,194.63298280208335,60.0,80.0
732,194.31869767708335,194.82890080208335,63.0,82.0
733,194.31869767708335,194.91053330208337,67.0,76.0
734,194.80849267708334,195.39012423958334,55.0,71.0
735,194.31869767708335,195.59624630208333,48.0,87.0
736,195.29828767708335,195.61257280208335,60.0,86.0
737,195.54318517708333,195.72481748958336,55.0,79.0
738,195.29828767708335,195.72481748958336,63.0,94.0
739,195.29828767708335,195.81665405208335,67.0,88.0
740,195.78808267708337,195.92889873958336,48.0,83.0
741,196.27787767708335,196.89420305208336,65.0,84.0
742,196.27787767708335,196.91665198958336,68.0,79.0
743,196.27787767708335,196.93297848958335,60.0,80.0
744,196.76767267708334,197.37583480208335,48.0,68.0
745,197.25746767708335,197.68603830208335,60.0,86.0
746,197.25746767708335,197.73297698958334,65.0,97.0
747,196.27787767708335,197.82481355208336,41.0,85.0
748,197.74726267708337,197.86767061458335,48.0,84.0
749,197.25746767708335,197.87175223958334,68.0,85.0
750,197.99216017708335,198.10848648958336,60.0,85.0
751,198.23705767708336,198.88603605208334,58.0,83.0
752,198.23705767708336,198.90848498958337,65.0,72.0
753,198.72685267708334,199.31868830208333,53.0,85.0
754,198.23705767708336,199.49215736458336,46.0,85.0
755,199.21664767708336,199.55542255208337,58.0,84.0
756,199.21664767708336,199.57583067708333,62.0,87.0
757,199.21664767708336,199.59419798958334,65.0,88.0
758,199.46154517708334,199.60644286458336,53.0,83.0
759,199.70644267708334,199.86766686458336,46.0,84.0
760,200.19623767708333,200.30235992708333,39.0,88.0
761,200.19623767708333,200.90644042708334,63.0,84.0
762,200.19623767708333,200.96970561458335,67.0,78.0
763,200.68603267708335,201.07990948958337,58.0,83.0
764,201.17582767708336,201.23909286458337,61.0,83.0
765,201.17582767708336,201.47582711458335,58.0,78.0
766,200.68603267708335,201.67582673958336,51.0,83.0
767,201.17582767708336,201.70643892708335,63.0,83.0
768,201.17582767708336,201.93296911458333,67.0,88.0
769,201.66562267708335,201.99011186458335,58.0,85.0
770,202.15541767708334,202.43296817708335,58.0,84.0
771,202.15541767708334,202.62888617708336,61.0,88.0
772,202.15541767708334,202.83908986458334,67.0,86.0
773,202.15541767708334,202.89623261458337,51.0,92.0
774,202.64521267708335,202.95133455208335,58.0,84.0
775,203.13500767708337,203.37174192708335,58.0,88.0
776,203.13500767708337,203.51868042708335,55.0,87.0
777,203.13500767708337,203.53296611458336,51.0,92.0
778,203.13500767708337,203.63092511458336,67.0,92.0
779,203.13500767708337,203.64112917708337,61.0,99.0
780,203.62480267708335,203.73908817708335,58.0,87.0
781,204.11459767708334,204.41051548958336,56.0,84.0
782,204.11459767708334,204.60643348958337,63.0,82.0
783,204.60439267708335,205.00643273958335,56.0,84.0
784,204.84929017708333,205.02071842708335,60.0,80.0
785,205.09418767708337,205.22684048958337,60.0,73.0
786,204.35949517708335,205.24520780208337,51.0,76.0
787,204.11459767708334,205.51051342708337,44.0,84.0
788,205.58398267708336,205.62479892708336,44.0,29.0
789,205.33908517708335,205.68194167708333,56.0,87.0
790,205.58398267708336,205.82683936458335,51.0,87.0
791,205.09418767708337,205.86969642708334,68.0,92.0
792,205.82888017708336,205.94928811458334,56.0,84.0
793,206.56357267708336,206.68806223958336,62.0,88.0
794,206.56357267708336,206.90030673958336,58.0,89.0
795,206.31867517708335,207.14112261458337,53.0,83.0
796,206.07377767708334,207.57785648958335,46.0,85.0
797,207.05336767708337,207.60234623958337,65.0,94.0
798,207.05336767708337,207.60846867708335,58.0,84.0
799,207.05336767708337,207.62479517708334,62.0,92.0
800,207.54316267708333,207.66765223958333,53.0,81.0
801,208.03295767708335,208.54111998958336,62.0,84.0
802,208.03295767708335,208.58805867708335,67.0,83.0
803,208.52275267708336,208.87785405208336,58.0,80.0
804,208.76765017708334,208.93499680208333,62.0,87.0
805,208.27785517708335,209.35336336458334,50.0,70.0
806,208.03295767708335,209.43907748958335,43.0,86.0
807,209.25744517708335,209.51254673958334,62.0,86.0
808,209.50234267708333,209.51254673958334,62.0,84.0
809,209.01254767708335,209.74315855208334,67.0,97.0
810,209.50234267708333,209.78193398958337,58.0,80.0
811,209.99213767708335,210.29009630208336,60.0,83.0
812,209.99213767708335,210.52274892708334,63.0,84.0
813,210.48193267708336,210.78601373958335,60.0,83.0
814,210.72683017708334,210.84315648958335,63.0,78.0
815,210.23703517708336,211.25131898958335,55.0,73.0
816,209.99213767708335,211.36968611458335,48.0,85.0
817,210.97172767708335,211.49009405208335,63.0,87.0
818,210.97172767708335,211.50642055208334,67.0,85.0
819,210.97172767708335,211.53091030208336,60.0,84.0
820,211.46152267708334,211.63091011458334,48.0,86.0
821,211.95131767708335,212.21458248958334,60.0,80.0
822,211.95131767708335,212.52274517708335,65.0,83.0
823,212.44111267708337,212.68601017708335,60.0,76.0
824,212.93201647708338,213.24065835208336,60.0,84.0
825,212.93201647708338,213.39497928958338,65.0,88.0
826,212.93201647708338,213.42790108958337,68.0,82.0
827,213.17892997708338,213.47934140208338,48.0,81.0
828,211.95131767708335,213.48962946458337,41.0,87.0
829,213.42584347708336,213.74888863958338,60.0,84.0
830,213.67275697708337,213.76534953958338,65.0,81.0
831,213.91967047708337,214.58633692708338,62.0,82.0
832,213.91967047708337,214.59868260208336,58.0,78.0
833,213.91967047708337,215.16452603958336,46.0,84.0
834,214.41349747708338,215.23242725208337,53.0,82.0
835,214.90732447708336,215.36617206458337,65.0,86.0
836,214.90732447708336,215.38674818958336,62.0,90.0
837,214.90732447708336,215.43613088958338,58.0,83.0
838,215.40115147708337,215.76123366458336,46.0,84.0
839,215.89497847708338,216.54106880208337,56.0,79.0
840,215.89497847708338,216.56370253958337,60.0,83.0
841,215.89497847708338,216.56370253958337,63.0,83.0
842,216.38880547708337,216.95876413958337,51.0,83.0
843,216.88263247708338,217.16041016458337,56.0,86.0
844,216.88263247708338,217.25711795208338,60.0,92.0
845,216.88263247708338,217.29827020208336,63.0,90.0
846,215.89497847708338,217.45670636458337,44.0,84.0
847,217.12954597708338,217.53283802708336,51.0,84.0
848,217.37645947708336,217.67892851458336,56.0,85.0
849,217.62337297708336,217.82296138958338,60.0,79.0
850,217.87028647708337,218.30444271458336,62.0,86.0
851,217.87028647708337,218.40526572708336,58.0,79.0
852,218.36411347708338,218.94230258958336,53.0,75.0
853,217.87028647708337,219.15217906458338,46.0,85.0
854,218.85794047708336,219.31473045208338,58.0,86.0
855,218.85794047708336,219.32501851458338,65.0,92.0
856,218.85794047708336,219.34353702708336,62.0,94.0
857,219.84559447708338,220.10279603958338,58.0,81.0
858,219.84559447708338,220.37234327708336,62.0,80.0
859,220.33942147708336,220.65423618958337,58.0,83.0
860,220.58633497708337,220.71184933958338,62.0,83.0
861,220.09250797708336,220.97522373958338,50.0,72.0
862,219.84559447708338,221.12542945208338,43.0,85.0
863,220.83324847708337,221.20361872708338,58.0,84.0
864,221.08016197708338,221.31678741458336,50.0,75.0
865,220.83324847708337,221.36205488958336,62.0,94.0
866,221.32707547708338,221.44230177708337,43.0,84.0
867,220.83324847708337,221.66040870208337,67.0,85.0
868,221.82090247708337,222.13777480208338,60.0,80.0
869,221.82090247708337,222.33530560208337,63.0,82.0
870,221.82090247708337,222.41761010208336,67.0,76.0
871,222.31472947708338,222.90114903958337,55.0,71.0
872,221.82090247708337,223.10896790208338,48.0,87.0
873,222.80855647708336,223.12542880208338,60.0,86.0
874,223.05546997708336,223.23859748958338,55.0,79.0
875,222.80855647708336,223.23859748958338,63.0,94.0
876,222.80855647708336,223.33119005208337,67.0,88.0
877,223.30238347708337,223.44435873958338,48.0,83.0
878,223.79621047708338,224.41760945208338,65.0,84.0
879,223.79621047708338,224.44024318958338,68.0,79.0
880,223.79621047708338,224.45670408958338,60.0,80.0
881,224.29003747708336,224.90320600208338,48.0,68.0
882,224.78386447708337,225.21596310208338,60.0,86.0
883,224.78386447708337,225.26328818958336,65.0,97.0
884,223.79621047708338,225.35588075208338,41.0,85.0
885,225.27769147708338,225.39909061458337,48.0,84.0
886,224.78386447708337,225.40320583958336,68.0,85.0
887,225.52442932083338,225.64028288958337,60.0,85.0
888,225.76833157083337,226.41467253333337,58.0,83.0
889,225.76833157083337,226.43703023958338,65.0,72.0
890,226.25613607083338,226.84556650833338,53.0,85.0
891,225.76833157083337,227.01833060208338,46.0,85.0
892,226.74394057083336,227.08133868333337,58.0,84.0
893,226.74394057083336,227.10166387083336,62.0,87.0
894,226.74394057083336,227.11995653958337,65.0,88.0
895,226.98784282083338,227.13215165208337,53.0,83.0
896,227.23174507083337,227.39231405208338,46.0,84.0
897,227.71954957083338,227.82524054583337,39.0,88.0
898,227.71954957083338,228.42686609583336,63.0,84.0
899,227.71954957083338,228.48987417708338,67.0,78.0
900,228.20735407083336,228.59963018958337,58.0,83.0
901,228.69515857083337,228.75816665208336,61.0,83.0
902,228.69515857083337,228.99393882708335,58.0,78.0
903,228.20735407083336,229.19312566458336,51.0,83.0
904,228.69515857083337,229.22361344583337,63.0,83.0
905,228.69515857083337,229.44922302708338,67.0,88.0
906,229.18296307083338,229.50613355208336,58.0,85.0
907,229.67076757083336,229.94719012083337,58.0,84.0
908,229.67076757083336,230.14231192083338,61.0,88.0
909,229.67076757083336,230.35166135208337,67.0,86.0
910,229.67076757083336,230.40857187708338,51.0,92.0
911,230.15857207083337,230.46344988333337,58.0,84.0
912,230.64637657083338,230.88214874583338,58.0,88.0
913,230.64637657083338,231.02849009583338,55.0,87.0
914,230.64637657083338,231.04271772708336,51.0,92.0
915,230.64637657083338,231.14027862708338,67.0,92.0
916,230.64637657083338,231.15044122083336,61.0,99.0
917,231.13418107083336,231.24800212083338,58.0,87.0
918,231.62198557083337,231.91670078958336,56.0,84.0
919,231.62198557083337,232.11182258958337,63.0,82.0
920,232.10979007083336,232.51019626458336,56.0,84.0
921,232.35369232083337,232.52442389583337,60.0,80.0
922,232.59759457083337,232.72970828958336,60.0,73.0
923,231.86588782083336,232.74800095833336,51.0,76.0
924,231.62198557083337,233.01222839583338,44.0,84.0
925,233.08539907083338,233.12604944583336,44.0,29.0
926,232.84149682083336,233.18295997083337,56.0,87.0
927,233.08539907083338,233.32726880208338,51.0,87.0
928,232.59759457083337,233.36995169583338,68.0,92.0
929,233.32930132083337,233.44921992708336,56.0,84.0
930,234.06100807083337,234.18499171458336,62.0,88.0
931,234.06100807083337,234.39637366458336,58.0,89.0
932,233.81710582083338,234.63621087708336,53.0,83.0
933,233.57320357083336,235.07116988958336,46.0,85.0
934,234.54881257083338,235.09556011458338,65.0,94.0
935,234.54881257083338,235.10165767083336,58.0,84.0
936,234.54881257083338,235.11791782083338,62.0,92.0
937,235.03661707083336,235.16060071458338,53.0,81.0
938,235.52442157083337,236.03051873958336,62.0,84.0
939,235.52442157083337,236.07726667083338,67.0,83.0
940,236.01222607083338,236.36588433333338,58.0,80.0
941,236.25612832083337,236.42279485833336,62.0,87.0
942,235.76832382083336,236.83946120208336,50.0,70.0
943,235.52442157083337,236.92482698958338,43.0,86.0
944,236.74393282083338,236.99799766458338,62.0,86.0
945,236.98783507083337,236.99799766458338,62.0,84.0
946,236.50003057083336,237.22767228333336,67.0,97.0
947,236.98783507083337,237.26629013958336,58.0,80.0
948,237.47563957083338,237.77238730833338,60.0,83.0
949,237.47563957083338,238.00409444583337,63.0,84.0
950,237.96344407083336,238.26628936458337,60.0,83.0
951,238.20734632083338,238.32319988958338,63.0,78.0
952,237.71954182083337,238.72970363958336,55.0,73.0
953,237.47563957083338,238.84758972708337,48.0,85.0
954,238.45124857083337,238.96750833333337,63.0,87.0
955,238.45124857083337,238.98376848333336,67.0,85.0
956,238.45124857083337,239.00815870833338,60.0,84.0
957,238.93905307083338,239.10775212708336,48.0,86.0
958,239.42685757083336,239.68905248958336,60.0,80.0
959,239.42685757083336,239.99596282083337,65.0,83.0
960,239.91466207083337,240.15856432083336,60.0,76.0
961,240.40454951250004,240.71446670000003,60.0,84.0
962,240.40454951250004,240.86942529375006,65.0,88.0
963,240.40454951250004,240.90248312708337,68.0,82.0
964,240.65248326250006,240.9541359916667,48.0,81.0
965,239.42685757083336,240.96446656458338,41.0,87.0
966,240.90041701250004,241.22479700208336,60.0,84.0
967,241.14835076250003,241.24132591875005,65.0,81.0
968,241.39628451250005,242.06570563750003,62.0,82.0
969,241.39628451250005,242.07810232500003,58.0,78.0
970,241.39628451250005,242.6462838354167,46.0,84.0
971,241.89215201250005,242.7144656166667,53.0,82.0
972,242.38801951250005,242.84876306458338,65.0,86.0
973,242.38801951250005,242.8694242104167,62.0,90.0
974,242.38801951250005,242.9190109604167,58.0,83.0
975,242.88388701250005,243.24545706458338,46.0,84.0
976,243.37975451250003,244.0409111791667,63.0,84.0
977,243.37975451250003,244.05537398125003,67.0,84.0
978,243.87562201250003,244.20413423125004,46.0,68.0
979,243.37975451250003,244.2515030541667,39.0,89.0
980,244.36987017916672,244.6412982416667,63.0,85.0
981,244.36987017916672,244.6780328666667,67.0,89.0
982,244.36987017916672,244.6902777416667,70.0,85.0
983,245.3494601791667,245.6249698666667,63.0,83.0
984,245.3494601791667,245.69435749166672,75.0,84.0
985,245.3494601791667,245.7004799291667,67.0,85.0
986,245.3494601791667,245.7106839916667,70.0,84.0
987,245.8392551791667,245.9392549916667,63.0,84.0
988,246.08415267916672,246.20864224166672,70.0,84.0
989,246.08415267916672,246.2106830541667,63.0,85.0
990,246.08415267916672,246.2106830541667,67.0,86.0
991,245.5943576791667,246.4229275541667,46.0,78.0
992,246.3290501791667,246.5657844291667,63.0,88.0
993,246.3290501791667,246.8249676166667,67.0,90.0
994,246.3290501791667,246.89435524166672,70.0,88.0
995,247.06374267916672,247.20455874166672,70.0,56.0
996,246.81884517916671,247.2698647416667,63.0,90.0
997,247.06374267916672,247.2821096166667,67.0,86.0
998,245.3494601791667,247.31680342916673,39.0,85.0
999,246.5739476791667,247.3392523666667,46.0,81.0
1000,247.3086401791667,247.94945530416672,56.0,79.0
1001,247.3086401791667,247.97190424166672,60.0,83.0
1002,247.3086401791667,247.97190424166672,63.0,83.0
1003,247.79843517916672,248.3637402416667,51.0,83.0
1004,248.2882301791667,248.5637398666667,56.0,86.0
1005,248.2882301791667,248.6596580541667,60.0,92.0
1006,248.2882301791667,248.7004743041667,63.0,90.0
1007,247.3086401791667,248.85761686666672,44.0,84.0
1008,248.5331276791667,248.93312692916672,51.0,84.0
1009,248.77802517916672,249.0780246166667,56.0,85.0
1010,249.0229226791667,249.22088149166672,60.0,79.0
1011,249.2678201791667,249.6984316166667,62.0,86.0
1012,249.2678201791667,249.79843142916673,58.0,79.0
1013,249.75761517916672,250.3310834916667,53.0,75.0
1014,249.2678201791667,250.5392463666667,46.0,85.0
1015,250.2474101791667,250.7004705541667,58.0,86.0
1016,250.2474101791667,250.71067461666672,65.0,92.0
1017,250.2474101791667,250.7290419291667,62.0,94.0
1018,251.2270001791667,251.48210174166672,58.0,81.0
1019,251.2270001791667,251.7494481791667,62.0,80.0
1020,251.71679517916672,252.0290394916667,58.0,83.0
1021,251.9616926791667,252.0861822416667,62.0,83.0
1022,251.47189767916672,252.3474062416667,50.0,72.0
1023,251.2270001791667,252.49638555416672,43.0,85.0
1024,252.2065901791667,252.5739364291667,58.0,84.0
1025,252.45148767916672,252.68618111666672,50.0,75.0
1026,252.2065901791667,252.73107899166672,62.0,94.0
1027,252.69638517916673,252.81067067916672,43.0,84.0
1028,252.2065901791667,253.0269968041667,67.0,85.0
1029,253.1861801791667,253.5004653041667,60.0,80.0
1030,253.1861801791667,253.69638330416672,63.0,82.0
1031,253.1861801791667,253.7780158041667,67.0,76.0
1032,253.6759751791667,254.2576067416667,55.0,71.0
1033,253.1861801791667,254.46372880416672,48.0,87.0
1034,254.1657701791667,254.4800553041667,60.0,86.0
1035,254.41066767916672,254.59229999166672,55.0,79.0
1036,254.1657701791667,254.59229999166672,63.0,94.0
1037,254.1657701791667,254.6841365541667,67.0,88.0
1038,254.6555651791667,254.79638124166672,48.0,83.0
1039,255.14536017916672,255.76168555416672,65.0,84.0
1040,255.14536017916672,255.78413449166672,68.0,79.0
1041,255.14536017916672,255.8004609916667,60.0,80.0
1042,255.6351551791667,256.24331730416674,48.0,68.0
1043,256.1249501791667,256.55352080416674,60.0,86.0
1044,256.1249501791667,256.6004594916667,65.0,97.0
1045,255.14536017916672,256.6922960541667,41.0,85.0
1046,256.61474517916673,256.7351531166667,48.0,84.0
1047,256.1249501791667,256.73923474166673,68.0,85.0
1048,256.8596426791667,256.9759689916667,60.0,85.0
1049,257.1045401791667,257.7535185541667,58.0,83.0
1050,257.1045401791667,257.77596749166673,65.0,72.0
1051,257.5943351791667,258.1861708041667,53.0,85.0
1052,257.1045401791667,258.3596398666667,46.0,85.0
1053,258.0841301791667,258.42290505416673,58.0,84.0
1054,258.0841301791667,258.4433131791667,62.0,87.0
1055,258.0841301791667,258.4616804916667,65.0,88.0
1056,258.3290276791667,258.4739253666667,53.0,83.0
1057,258.57392517916674,258.7351493666667,46.0,84.0
1058,259.0637201791667,259.1698424291667,39.0,88.0
1059,259.0637201791667,259.7739229291667,63.0,84.0
1060,259.0637201791667,259.8371881166667,67.0,78.0
1061,259.5535151791667,259.94739199166673,58.0,83.0
1062,260.0433101791667,260.10657536666673,61.0,83.0
1063,260.0433101791667,260.3433096166667,58.0,78.0
1064,259.5535151791667,260.5433092416667,51.0,83.0
1065,260.0433101791667,260.5739214291667,63.0,83.0
1066,260.0433101791667,260.8004516166667,67.0,88.0
1067,260.5331051791667,260.8575943666667,58.0,85.0
1068,261.0229001791667,261.3004506791667,58.0,84.0
1069,261.0229001791667,261.4963686791667,61.0,88.0
1070,261.0229001791667,261.7065723666667,67.0,86.0
1071,261.0229001791667,261.76371511666673,51.0,92.0
1072,261.5126951791667,261.8188170541667,58.0,84.0
1073,262.0024901791667,262.2392244291667,58.0,88.0
1074,262.0024901791667,262.3861629291667,55.0,87.0
1075,262.0024901791667,262.4004486166667,51.0,92.0
1076,262.0024901791667,262.4984076166667,67.0,92.0
1077,262.0024901791667,262.50861167916673,61.0,99.0
1078,262.4922851791667,262.60657067916674,58.0,87.0
1079,262.9820801791667,263.2779979916667,56.0,84.0
1080,262.9820801791667,263.47391599166673,63.0,82.0
1081,263.4718751791667,263.87391524166674,56.0,84.0
1082,263.7167726791667,263.8882009291667,60.0,80.0
1083,263.96167017916673,264.09432299166673,60.0,73.0
1084,263.22697767916674,264.11269030416673,51.0,76.0
1085,262.9820801791667,264.37799592916673,44.0,84.0
1086,264.4514651791667,264.4922814291667,44.0,29.0
1087,264.2065676791667,264.5494241791667,56.0,87.0
1088,264.4514651791667,264.6943218666667,51.0,87.0
1089,263.96167017916673,264.7371789291667,68.0,92.0
1090,264.6963626791667,264.8167706166667,56.0,84.0
1091,265.4310551791667,265.5555447416667,62.0,88.0
1092,265.4310551791667,265.7677892416667,58.0,89.0
1093,265.18615767916674,266.00860511666673,53.0,83.0
1094,264.9412601791667,266.4453389916667,46.0,85.0
1095,265.92085017916673,266.46982874166673,65.0,94.0
1096,265.92085017916673,266.4759511791667,58.0,84.0
1097,265.92085017916673,266.4922776791667,62.0,92.0
1098,266.4106451791667,266.5351347416667,53.0,81.0
1099,266.9004401791667,267.4086024916667,62.0,84.0
1100,266.9004401791667,267.4555411791667,67.0,83.0
1101,267.3902351791667,267.7453365541667,58.0,80.0
1102,267.6351326791667,267.8024793041667,62.0,87.0
1103,267.1453376791667,268.2208458666667,50.0,70.0
1104,266.9004401791667,268.3065599916667,43.0,86.0
1105,268.1249276791667,268.3800292416667,62.0,86.0
1106,268.3698251791667,268.3800292416667,62.0,84.0
1107,267.88003017916674,268.6106410541667,67.0,97.0
1108,268.3698251791667,268.6494164916667,58.0,80.0
1109,268.8596201791667,269.1575788041667,60.0,83.0
1110,268.8596201791667,269.3902314291667,63.0,84.0
1111,269.3494151791667,269.6534962416667,60.0,83.0
1112,269.5943126791667,269.7106389916667,63.0,78.0
1113,269.1045176791667,270.1188014916667,55.0,73.0
1114,268.8596201791667,270.23716861666674,48.0,85.0
1115,269.8392101791667,270.3575765541667,63.0,87.0
1116,269.8392101791667,270.3739030541667,67.0,85.0
1117,269.8392101791667,270.3983928041667,60.0,84.0
1118,270.3290051791667,270.4983926166667,48.0,86.0
1119,270.8188001791667,271.0820649916667,60.0,80.0
1120,270.8188001791667,271.39022767916674,65.0,83.0
1121,271.30859517916673,271.5534926791667,60.0,76.0
1122,271.7983901791667,272.1045120541667,60.0,84.0
1123,271.7983901791667,272.25757299166673,65.0,88.0
1124,271.7983901791667,272.2902259916667,68.0,82.0
1125,272.0432876791667,272.3412463041667,48.0,81.0
1126,270.8188001791667,272.3514503666667,41.0,87.0
1127,272.2881851791667,272.6085927416667,60.0,84.0
1128,272.53308267916674,272.6249192416667,65.0,81.0
1129,272.7779801791667,273.4392034291667,62.0,82.0
1130,272.7779801791667,273.4514483041667,58.0,78.0
1131,272.7779801791667,274.01267174166674,46.0,84.0
1132,273.26777517916673,274.0800185541667,53.0,82.0
1133,273.7575701791667,274.2126713666667,65.0,86.0
1134,273.7575701791667,274.23307949166673,62.0,90.0
1135,273.7575701791667,274.2820589916667,58.0,83.0
1136,274.2473651791667,274.6045073666667,46.0,84.0
1137,274.65144605416674,274.9555271166667,58.0,83.0
1138,274.6555276791667,275.23511842916673,63.0,84.0
1139,275.1412410541667,275.34124067916673,58.0,79.0
1140,275.6800155541667,275.9208314291667,74.0,89.0
1141,276.17593299166674,276.3187898666667,70.0,85.0
1142,276.69021774166674,276.81266649166673,67.0,77.0
1143,276.70654424166673,276.8228705541667,63.0,74.0
1144,274.6779766166667,277.3759307416667,39.0,87.0
1145,277.2351146791667,277.4085837416667,63.0,76.0
1146,278.4534797416667,278.86980549166674,58.0,68.0
1147,278.5963366166667,278.8983768666667,63.0,59.0
1148,278.6493977416667,278.9065401166667,67.0,70.0
1149,278.3759288666667,279.2698047416667,46.0,71.0
1150,278.1942965541667,279.3147026166667,39.0,62.0
