,start,end,pitch,velocity
0,25.340046500000003,25.606590333333337,80.0,120.0
1,25.781222500000002,25.89519296666667,80.0,117.0
2,26.0018105,26.2444573,80.0,108.0
3,26.663574500000003,26.773868500000003,71.0,113.0
4,26.884162500000002,26.994456500000002,71.0,110.0
5,28.4282785,28.69114586666667,80.0,117.0
6,28.869454500000003,29.117616,78.0,114.0
7,29.310630500000002,29.40254216666667,78.0,113.0
8,29.5312185,29.814306433333336,78.0,110.0
9,30.192982500000003,30.442982233333336,75.0,114.0
10,30.6341585,30.884158233333334,73.0,110.0
11,30.8547465,31.13415796666667,71.0,98.0
12,32.3988625,32.61761226666667,76.0,116.0
13,32.840038500000006,32.930111933333336,76.0,108.0
14,33.060626500000005,33.35474383333334,76.0,108.0
15,33.7223905,33.91908146666667,75.0,113.0
16,33.9429785,34.192978233333335,73.0,116.0
17,34.8253305,34.9576833,68.0,107.0
18,35.045918500000006,35.34003583333334,78.0,114.0
19,35.487094500000005,35.73893246666667,76.0,114.0
20,35.9282705,36.21871136666667,76.0,116.0
21,36.3694465,36.58819626666667,75.0,110.0
22,36.5900345,36.82532836666667,73.0,110.0
23,37.0312105,37.23709263333333,75.0,113.0
24,37.692974500000005,37.963194800000004,71.0,108.0
25,39.4576785,39.67459003333334,80.0,119.0
26,39.898854500000006,39.999957333333334,80.0,119.0
27,40.119442500000005,40.31980993333334,80.0,117.0
28,40.7812065,40.871279933333334,71.0,108.0
29,41.0017945,41.24260306666667,71.0,108.0
30,42.545910500000005,42.7885573,80.0,117.0
31,42.987086500000004,43.21686566666667,78.0,117.0
32,43.4282625,43.51465946666667,78.0,108.0
33,43.6488505,43.885982600000006,78.0,110.0
34,44.0900265,44.371276200000004,75.0,98.0
35,44.751790500000006,44.96134910000001,73.0,102.0
36,44.972378500000005,45.23524586666667,71.0,88.0
37,46.5164945,46.7591413,76.0,114.0
38,46.957670500000006,47.05509686666667,76.0,108.0
39,47.178258500000005,47.448478800000004,76.0,113.0
40,47.8400225,48.04774286666667,75.0,116.0
41,48.0606105,48.310610233333335,73.0,116.0
42,48.94296250000001,49.06060943333334,68.0,107.0
43,49.16355050000001,49.439285500000004,78.0,116.0
44,49.604726500000005,49.89884383333334,76.0,116.0
45,50.045902500000004,50.32531396666667,76.0,116.0
46,50.9282545,51.24259240000001,78.0,114.0
47,51.590018500000006,51.88045936666667,78.0,117.0
48,52.6929585,52.942958233333336,80.0,119.0
49,53.1341345,53.36023720000001,78.0,117.0
50,53.57531050000001,54.03119236666667,76.0,116.0
51,54.237074500000006,54.336339100000004,71.0,107.0
52,54.457662500000005,54.718691633333336,80.0,119.0
53,54.898838500000004,55.12861766666667,78.0,117.0
54,55.3400145,55.6378083,76.0,116.0
55,56.22236650000001,56.494425033333336,76.0,117.0
56,56.663542500000005,56.91354223333334,78.0,116.0
57,57.104718500000004,57.37126233333334,80.0,117.0
58,57.5458945,57.83082066666667,78.0,117.0
59,57.9870705,58.2793496,76.0,117.0
60,58.42824650000001,58.84552546666667,85.0,119.0
61,59.310598500000005,59.7131716,80.0,119.0
62,59.7517745,60.06427416666667,78.0,120.0
63,60.1929505,60.4135385,76.0,119.0
64,60.4135385,60.63412650000001,73.0,114.0
65,60.63412650000001,60.9650085,76.0,114.0
66,62.3988305,62.80508006666667,73.0,114.0
67,62.8400065,63.1819179,75.0,113.0
68,63.28118250000001,63.64331446666667,76.0,113.0
69,63.722358500000006,63.97603470000001,80.0,113.0
70,64.16353450000001,64.5716223,80.0,119.0
71,65.48706250000001,65.72787106666667,76.0,107.0
72,65.9282385,66.1267677,80.0,114.0
73,66.1488265,66.39882623333334,78.0,113.0
74,67.6929425,67.99992746666668,80.0,116.0
75,68.1341185,68.271986,78.0,110.0
76,68.3547065,68.77566193333334,80.0,116.0
77,69.01647050000001,69.23889673333333,83.0,117.0
78,69.45764650000001,69.70396976666667,87.0,120.0
79,69.89882250000001,70.00727826666667,88.0,114.0
80,70.1194105,70.3620573,88.0,120.0
81,70.7811745,71.02014483333333,90.0,117.0
82,71.2223505,71.46499730000001,92.0,117.0
83,71.6635265,71.8399969,93.0,119.0
84,71.88411450000001,72.1653642,90.0,120.0
85,72.32529050000001,72.70212833333333,92.0,119.0
86,72.9870545,73.2297013,88.0,110.0
87,74.75175850000001,74.99808176666667,85.0,114.0
88,75.1929345,75.36205196666667,83.0,114.0
89,75.4135225,75.65800753333333,85.0,117.0
90,76.0752865,76.34366856666668,83.0,116.0
91,76.5164625,76.7591093,85.0,117.0
92,76.9576385,77.20580000000001,83.0,113.0
93,77.3988145,77.57160843333334,76.0,113.0
94,77.6194025,77.8951375,83.0,114.0
95,78.28116650000001,78.67454843333334,80.0,120.0
96,81.8105745,82.11755946666668,80.0,116.0
97,82.2517505,82.38961800000001,78.0,110.0
98,82.4723385,82.89329393333334,80.0,116.0
99,83.13410250000001,83.35652873333333,83.0,117.0
100,83.57527850000001,83.82160176666667,87.0,120.0
101,84.01645450000001,84.12491026666667,88.0,114.0
102,84.2370425,84.4796893,88.0,120.0
103,84.8988065,85.13777683333333,90.0,117.0
104,85.3399825,85.58262930000001,92.0,117.0
105,85.7811585,85.9576289,93.0,119.0
106,86.00174650000001,86.2829962,90.0,120.0
107,86.44292250000001,86.81976033333333,92.0,119.0
108,87.1046865,87.3473333,88.0,110.0
109,87.98703850000001,88.2572588,88.0,120.0
110,88.42821450000001,88.67086130000001,87.0,119.0
111,88.86939050000001,89.1782137,85.0,119.0
112,89.53115450000001,89.61387500000001,90.0,117.0
113,90.6340945,90.95762356666667,88.0,114.0
114,91.0752705,91.3179173,87.0,117.0
115,91.5164465,91.69659336666668,85.0,119.0
116,91.73703450000001,92.03850476666668,87.0,117.0
117,92.39879850000001,92.74806283333334,88.0,117.0
118,99.4576145,99.72415833333334,80.0,120.0
119,99.8987905,100.01276096666668,80.0,117.0
120,100.11937850000001,100.36202530000001,80.0,108.0
121,100.7811425,100.89143650000001,71.0,113.0
122,101.00173050000001,101.1120245,71.0,110.0
123,102.54584650000001,102.80871386666668,80.0,117.0
124,102.98702250000001,103.235184,78.0,114.0
125,103.42819850000001,103.52011016666667,78.0,113.0
126,103.64878650000001,103.93187443333333,78.0,110.0
127,104.3105505,104.56055023333334,80.0,114.0
128,104.7517265,105.00172623333334,80.0,110.0
129,104.97231450000001,105.25172596666667,78.0,98.0
130,106.51643050000001,106.73518026666667,76.0,116.0
131,106.95760650000001,107.04767993333334,76.0,108.0
132,107.1781945,107.47231183333334,76.0,108.0
133,107.83995850000001,108.03664946666667,75.0,113.0
134,108.06054650000002,108.31054623333334,73.0,116.0
135,108.94289850000001,109.0752513,68.0,107.0
136,109.1634865,109.45760383333334,78.0,114.0
137,109.6046625,109.85650046666667,76.0,114.0
138,110.0458385,110.33627936666667,76.0,116.0
139,110.48701450000002,110.70576426666668,75.0,110.0
140,110.92819050000001,111.16348436666668,73.0,110.0
141,111.1487785,111.35466063333334,75.0,113.0
142,111.81054250000001,112.0807628,71.0,108.0
143,113.5752465,113.79215803333334,80.0,119.0
144,114.0164225,114.11752533333335,80.0,119.0
145,114.23701050000001,114.43737793333334,80.0,117.0
146,114.8987745,114.98884793333335,71.0,108.0
147,115.11936250000001,115.36017106666668,71.0,108.0
148,116.66347850000001,116.90612530000001,80.0,117.0
149,117.10465450000001,117.33443366666667,78.0,117.0
150,117.54583050000001,117.63222746666668,78.0,108.0
151,117.76641850000001,118.00355060000001,78.0,110.0
152,118.20759450000001,118.4888442,75.0,98.0
153,118.8693585,119.07891710000001,73.0,102.0
154,119.08994650000001,119.35281386666668,71.0,88.0
155,120.63406250000001,120.87670930000002,76.0,114.0
156,121.07523850000001,121.17266486666668,76.0,108.0
157,121.2958265,121.56604680000001,76.0,113.0
158,121.95759050000001,122.16531086666667,75.0,116.0
159,122.17817850000002,122.42817823333334,73.0,116.0
160,123.06053050000001,123.17817743333335,68.0,107.0
161,123.2811185,123.5568535,78.0,116.0
162,123.7222945,124.01641183333334,76.0,116.0
163,124.1634705,124.44288196666668,76.0,116.0
164,125.04582250000001,125.36016040000001,78.0,114.0
165,125.7075865,125.99802736666668,78.0,117.0
166,126.81052650000001,127.06052623333335,80.0,119.0
167,127.25170250000001,127.4778052,78.0,117.0
168,127.6928785,128.14876036666666,76.0,116.0
169,128.5752305,128.83625963333336,85.0,119.0
170,129.01640650000002,129.1267005,78.0,117.0
171,129.2369945,129.34728850000002,78.0,117.0
172,129.4575825,129.75537630000002,76.0,116.0
173,130.3399345,130.61199303333333,76.0,117.0
174,130.7811105,131.03111023333335,78.0,116.0
175,131.22228650000002,131.48883033333334,80.0,117.0
176,131.6634625,131.9483886666667,78.0,117.0
177,132.10463850000002,132.39691760000002,76.0,117.0
178,132.5458145,132.96309346666666,85.0,119.0
179,133.4281665,133.83073960000002,80.0,119.0
180,133.86934250000002,134.18184216666668,78.0,120.0
181,134.3105185,134.53110650000002,76.0,119.0
182,134.53110650000002,134.7516945,73.0,114.0
183,134.7516945,135.08257650000002,76.0,114.0
184,136.5163985,136.92264806666668,73.0,114.0
185,136.95757450000002,137.2994859,75.0,113.0
186,137.3987505,137.7608824666667,76.0,113.0
187,137.83992650000002,138.09360270000002,80.0,113.0
188,138.2811025,138.6891903,80.0,119.0
189,139.6046305,139.84543906666667,76.0,107.0
190,140.0458065,140.24433570000002,80.0,114.0
191,140.26639450000002,140.51639423333336,78.0,113.0
192,141.81051050000002,142.11749546666667,80.0,116.0
193,142.2516865,142.389554,78.0,110.0
194,142.4722745,142.89322993333334,80.0,116.0
195,143.1340385,143.35646473333335,83.0,117.0
196,143.57521450000002,143.82153776666667,87.0,120.0
197,144.0163905,144.12484626666668,88.0,114.0
198,144.23697850000002,144.4796253,88.0,120.0
199,144.8987425,145.13771283333335,90.0,117.0
200,145.3399185,145.5825653,92.0,117.0
201,145.78109450000002,145.95756490000002,93.0,119.0
202,146.00168250000002,146.2829322,90.0,120.0
203,146.4428585,146.81969633333335,92.0,119.0
204,147.1046225,147.34726930000002,88.0,110.0
205,148.8693265,149.11564976666668,85.0,114.0
206,149.3105025,149.4796199666667,83.0,114.0
207,149.5310905,149.77557553333335,85.0,117.0
208,150.1928545,150.46123656666668,83.0,116.0
209,150.63403050000002,150.8766773,85.0,117.0
210,151.0752065,151.32336800000002,83.0,113.0
211,151.51638250000002,151.68917643333336,76.0,113.0
212,151.7369705,152.0127055,83.0,114.0
213,152.39873450000002,152.79211643333335,80.0,120.0
214,155.9281425,156.23512746666668,80.0,116.0
215,156.36931850000002,156.50718600000002,78.0,110.0
216,156.5899065,157.01086193333336,80.0,116.0
217,157.25167050000002,157.47409673333334,83.0,117.0
218,157.6928465,157.93916976666668,87.0,120.0
219,158.13402250000001,158.24247826666667,88.0,114.0
220,158.3546105,158.59725730000002,88.0,120.0
221,159.0163745,159.25534483333334,90.0,117.0
222,159.45755050000002,159.7001973,92.0,117.0
223,159.8987265,160.0751969,93.0,119.0
224,160.1193145,160.40056420000002,90.0,120.0
225,160.56049050000001,160.93732833333334,92.0,119.0
226,161.22225450000002,161.4649013,88.0,110.0
227,162.10460650000002,162.37482680000002,88.0,120.0
228,162.5457825,162.78842930000002,87.0,119.0
229,162.98695850000001,163.29578170000002,85.0,119.0
230,163.64872250000002,163.731443,90.0,117.0
231,164.7516625,165.0751915666667,88.0,114.0
232,165.19283850000002,165.4354853,87.0,117.0
233,165.6340145,165.81416136666667,85.0,119.0
234,165.8546025,166.15607276666668,87.0,117.0
235,166.5163665,166.86563083333334,88.0,117.0
236,183.72223050000002,183.92443616666668,73.0,119.0
237,183.94281850000002,184.06046543333335,75.0,117.0
238,184.1634065,184.3784798,76.0,120.0
239,184.60458250000002,184.7957587666667,76.0,119.0
240,184.8251705,185.0843614,76.0,114.0
241,185.48693450000002,185.77186066666667,75.0,117.0
242,185.9281105,186.24428663333336,76.0,120.0
243,187.2516385,187.51818233333336,73.0,119.0
244,187.69281450000003,187.95935833333334,71.0,119.0
245,188.1339905,188.42994606666667,81.0,119.0
246,188.57516650000002,188.83251916666669,80.0,119.0
247,189.0163425,189.19465113333334,78.0,119.0
248,189.23693050000003,189.44097440000002,78.0,119.0
249,189.45751850000002,189.73509173333335,76.0,114.0
250,190.7810465,190.96670806666668,73.0,117.0
251,191.00163450000002,191.1064138,75.0,114.0
252,191.22222250000002,191.4207517,76.0,117.0
253,191.66339850000003,191.7516337,76.0,119.0
254,191.88398650000002,192.07332453333333,76.0,119.0
255,192.3251625,192.58067693333334,75.0,113.0
256,192.76633850000002,193.0255294,78.0,116.0
257,192.9869265,193.23692623333335,76.0,114.0
258,194.08986650000003,194.24611633333336,71.0,119.0
259,194.31045450000002,194.47221903333335,73.0,117.0
260,194.7516305,195.05677723333335,73.0,120.0
261,195.19280650000002,195.75162943333333,71.0,120.0
262,198.28103850000002,198.58802346666667,80.0,116.0
263,198.7222145,198.860082,78.0,110.0
264,198.94280250000003,199.36375793333335,80.0,116.0
265,199.6045665,199.82699273333336,83.0,117.0
266,200.04574250000002,200.2920657666667,87.0,120.0
267,200.4869185,200.59537426666668,88.0,114.0
268,200.70750650000002,200.9501533,88.0,120.0
269,201.36927050000003,201.60824083333335,90.0,117.0
270,201.8104465,202.05309330000003,92.0,117.0
271,202.25162250000002,202.42809290000002,93.0,119.0
272,202.47221050000002,202.7534602,90.0,120.0
273,202.9133865,203.29022433333336,92.0,119.0
274,203.5751505,203.81779730000002,88.0,110.0
275,205.33985450000003,205.58617776666668,85.0,114.0
276,205.7810305,205.9501479666667,83.0,114.0
277,206.0016185,206.24610353333335,85.0,117.0
278,206.6633825,206.9317645666667,83.0,116.0
279,207.10455850000002,207.3472053,85.0,117.0
280,207.5457345,207.79389600000002,83.0,113.0
281,207.98691050000002,208.15970443333336,76.0,113.0
282,208.2074985,208.4832335,83.0,114.0
283,208.86926250000002,209.26264443333335,80.0,120.0
284,212.3986705,212.70565546666668,80.0,116.0
285,212.83984650000002,212.97771400000002,78.0,110.0
286,213.0604345,213.48138993333336,80.0,116.0
287,213.72219850000002,213.94462473333334,83.0,117.0
288,214.1633745,214.40969776666668,87.0,120.0
289,214.60455050000002,214.7130062666667,88.0,114.0
290,214.8251385,215.06778530000003,88.0,120.0
291,215.4869025,215.72587283333334,90.0,117.0
292,215.92807850000003,216.17072530000002,92.0,117.0
293,216.3692545,216.5457249,93.0,119.0
294,216.5898425,216.87109220000002,90.0,120.0
295,217.03101850000002,217.40785633333334,92.0,119.0
296,217.69278250000002,217.9354293,88.0,110.0
297,218.57513450000002,218.84535480000002,88.0,120.0
298,219.0163105,219.25895730000002,87.0,119.0
299,219.45748650000002,219.76630970000002,85.0,119.0
300,220.11925050000002,220.20197100000001,90.0,117.0
301,221.2221905,221.5457195666667,88.0,114.0
302,221.66336650000002,221.9060133,87.0,117.0
303,222.1045425,222.2846893666667,85.0,119.0
304,222.32513050000003,222.62660076666668,87.0,117.0
305,222.9868945,223.33615883333334,88.0,117.0
306,226.51630250000002,226.82328746666667,80.0,116.0
307,226.9574785,227.095346,78.0,110.0
308,227.17806650000003,227.59902193333335,80.0,116.0
309,227.8398305,228.06225673333336,83.0,117.0
310,228.28100650000002,228.5273297666667,87.0,120.0
311,228.72218250000003,228.83063826666668,88.0,114.0
312,228.94277050000002,229.1854173,88.0,120.0
313,229.60453450000003,229.84350483333336,90.0,117.0
314,230.0457105,230.28835730000003,92.0,117.0
315,230.48688650000003,230.66335690000003,93.0,119.0
316,230.70747450000002,230.9887242,90.0,120.0
317,231.14865050000003,231.52548833333336,92.0,119.0
318,231.8104145,232.05306130000002,88.0,110.0
319,233.57511850000003,233.82144176666668,85.0,114.0
320,234.01629450000001,234.1854119666667,83.0,114.0
321,234.2368825,234.48136753333335,85.0,117.0
322,234.8986465,235.1670285666667,83.0,116.0
323,235.33982250000003,235.5824693,85.0,117.0
324,235.7809985,236.02916000000002,83.0,113.0
325,236.22217450000002,236.39496843333336,76.0,113.0
326,236.44276250000001,236.7184975,83.0,114.0
327,237.10452650000002,237.49790843333335,80.0,120.0
328,240.6339345,240.94091946666668,80.0,116.0
329,241.07511050000002,241.21297800000002,78.0,110.0
330,241.29569850000001,241.71665393333336,80.0,116.0
331,241.95746250000002,242.17988873333334,83.0,117.0
332,242.39863850000003,242.64496176666668,87.0,120.0
333,242.83981450000002,242.9482702666667,88.0,114.0
334,243.0604025,243.30304930000003,88.0,120.0
335,243.72216650000001,243.96113683333334,90.0,117.0
336,244.16334250000003,244.40598930000002,92.0,117.0
337,244.6045185,244.7809889,93.0,119.0
338,244.82510650000003,245.10635620000002,90.0,120.0
339,245.26628250000002,245.64312033333334,92.0,119.0
340,245.92804650000002,246.1706933,88.0,110.0
341,246.81039850000002,247.08061880000002,88.0,120.0
342,247.25157450000003,247.49422130000002,87.0,119.0
343,247.69275050000002,248.00157370000002,85.0,119.0
344,248.35451450000002,248.43723500000002,90.0,117.0
345,249.4574545,249.7809835666667,88.0,114.0
346,249.89863050000002,250.1412773,87.0,117.0
347,250.3398065,250.5199533666667,85.0,119.0
348,250.56039450000003,250.86186476666668,87.0,117.0
349,251.2221585,251.57142283333334,88.0,117.0
350,253.99421436666668,254.35450810000003,88.0,119.0
351,254.53097850000003,254.77914,87.0,119.0
352,255.01259563333335,255.61185970000002,85.0,120.0
353,255.93538876666668,256.6302409666667,90.0,113.0
354,256.59531453333335,257.0162699666667,88.0,100.0
355,257.3489902,257.7405339,88.0,93.0
356,258.16700403333334,258.5438418666667,87.0,102.0
357,258.89494443333336,259.7901640666667,85.0,108.0
358,260.4500898333334,260.5971485,83.0,108.0
359,260.8857511333334,261.3306036,83.0,114.0
360,261.2901624666667,261.6614856,81.0,100.0
361,261.562221,261.8802353666667,80.0,104.0
362,261.8875883,262.1578086,81.0,100.0
363,262.2478820333333,262.37472013333337,80.0,94.0
364,262.46295533333335,262.7294991666667,78.0,86.0
365,262.67251393333333,262.9739842,76.0,100.0
366,262.9997194666667,263.4408954666667,78.0,100.0
367,263.4096455,264.0897918333334,76.0,100.0
