,start,end,pitch,velocity
0,4.1635985,14.753660733333334,45.0,75.0
1,4.1635985,14.7683666,69.0,83.0
2,4.1635985,14.786748933333335,57.0,73.0
3,4.1635985,14.808807733333335,64.0,89.0
4,4.1635985,14.865792966666667,61.0,86.0
5,18.281230500000003,25.178281966666667,52.0,80.0
6,18.281230500000003,25.191149600000003,40.0,74.0
7,18.281230500000003,25.215046633333337,59.0,73.0
8,18.281230500000003,25.220561333333336,68.0,76.0
9,18.281230500000003,25.22239956666667,64.0,72.0
10,25.340046500000003,25.9576929,71.0,77.0
11,25.340046500000003,26.2610014,68.0,81.0
12,26.2223985,27.1102652,71.0,75.0
13,25.340046500000003,27.123132833333337,64.0,76.0
14,25.340046500000003,28.215043433333335,52.0,74.0
15,27.1047505,28.224234600000003,59.0,70.0
16,28.4282785,28.9907779,71.0,89.0
17,28.869454500000003,29.90989456666667,66.0,80.0
18,29.310630500000002,31.1139374,54.0,65.0
19,28.869454500000003,31.141510900000004,47.0,80.0
20,28.869454500000003,31.555113400000003,63.0,76.0
21,31.516510500000003,31.555113400000003,63.0,83.0
22,31.516510500000003,32.0514364,60.0,81.0
23,31.516510500000003,32.150701000000005,68.0,86.0
24,31.516510500000003,32.4043772,44.0,82.0
25,32.3988625,33.72606696666667,64.0,84.0
26,32.3988625,33.74077283333334,68.0,77.0
27,32.3988625,33.8106257,61.0,81.0
28,32.3988625,33.9429785,49.0,76.0
29,33.281214500000004,33.9429785,56.0,64.0
30,34.1635665,34.882315733333336,66.0,88.0
31,34.1635665,34.95400683333334,61.0,88.0
32,35.045918500000006,35.45216806666667,61.0,88.0
33,34.1635665,35.47422686666667,46.0,81.0
34,35.045918500000006,35.66724136666667,66.0,89.0
35,35.487094500000005,35.86393233333334,64.0,87.0
36,35.9282705,36.266505433333336,59.0,82.0
37,35.9282705,36.7775343,63.0,87.0
38,35.9282705,37.12679863333334,66.0,65.0
39,37.2517985,37.665401,64.0,84.0
40,36.8106225,38.128635800000005,59.0,78.0
41,37.692974500000005,38.59922353333334,63.0,87.0
42,38.3547385,38.7242234,59.0,83.0
43,35.9282705,38.98157606666667,47.0,74.0
44,36.3694465,38.9834143,54.0,62.0
45,38.5753265,39.00363486666667,61.0,90.0
46,39.2370905,39.514663733333336,59.0,72.0
47,39.0165025,39.79775166666667,64.0,88.0
48,39.4576785,39.8492222,68.0,86.0
49,40.340030500000005,40.979735700000006,71.0,85.0
50,40.340030500000005,41.11392673333334,64.0,84.0
51,39.898854500000006,41.34738236666667,59.0,67.0
52,41.2223825,41.806940700000006,71.0,83.0
53,41.2223825,41.9227494,64.0,80.0
54,39.4576785,42.56061636666667,52.0,83.0
55,41.8841465,42.57532223333334,59.0,70.0
56,42.104734500000006,42.9926012,71.0,96.0
57,42.545910500000005,43.04590996666667,68.0,89.0
58,42.987086500000004,43.3565714,66.0,87.0
59,43.4282625,43.797747400000006,66.0,70.0
60,43.4282625,44.29590863333333,54.0,50.0
61,43.8694385,44.393335,66.0,79.0
62,42.987086500000004,44.42458496666667,47.0,82.0
63,42.987086500000004,44.73708463333334,63.0,79.0
64,44.751790500000006,45.244437033333334,63.0,40.0
65,45.6341425,46.05142146666667,44.0,84.0
66,45.6341425,46.066127333333334,60.0,85.0
67,46.0753185,46.5606121,63.0,86.0
68,46.5164945,47.12494973333334,64.0,84.0
69,45.6341425,47.1948026,68.0,86.0
70,46.5164945,47.31980246666667,61.0,78.0
71,47.398846500000005,48.03671346666667,68.0,83.0
72,47.398846500000005,48.0606105,63.0,87.0
73,46.957670500000006,48.08450753333334,56.0,38.0
74,46.5164945,48.11208103333334,49.0,81.0
75,48.2811985,49.54222656666667,46.0,85.0
76,48.7223745,49.66722643333334,58.0,81.0
77,49.16355050000001,49.79038806666667,68.0,92.0
78,49.604726500000005,50.0128143,64.0,85.0
79,50.045902500000004,50.45950500000001,59.0,81.0
80,50.9282545,51.43928336666667,59.0,82.0
81,50.045902500000004,51.45398923333334,66.0,83.0
82,50.4870785,51.51648916666667,54.0,73.0
83,51.36943050000001,51.84920940000001,64.0,88.0
84,51.810606500000006,52.516488100000004,63.0,91.0
85,52.472370500000004,52.87126713333334,59.0,81.0
86,51.810606500000006,53.0072964,54.0,79.0
87,50.045902500000004,53.117590400000005,47.0,81.0
88,52.6929585,53.14516390000001,63.0,92.0
89,53.1341345,53.643325133333335,64.0,88.0
90,53.57531050000001,53.643325133333335,64.0,83.0
91,53.57531050000001,54.08633936666667,68.0,87.0
92,53.57531050000001,54.22236863333334,61.0,80.0
93,53.57531050000001,54.810603300000004,49.0,77.0
94,54.237074500000006,54.9098679,56.0,76.0
95,54.457662500000005,54.96869136666667,63.0,86.0
96,54.898838500000004,55.31244100000001,64.0,84.0
97,55.3400145,56.00729320000001,68.0,84.0
98,55.3400145,56.04957256666667,63.0,82.0
99,56.22236650000001,56.56427790000001,68.0,86.0
100,56.22236650000001,56.69846893333334,63.0,82.0
101,56.663542500000005,57.11390966666667,68.0,86.0
102,55.3400145,57.12493906666667,48.0,72.0
103,57.104718500000004,57.661703200000005,59.0,80.0
104,57.104718500000004,57.73339430000001,66.0,84.0
105,57.104718500000004,57.845526533333334,63.0,81.0
106,57.9870705,58.319790733333335,59.0,73.0
107,57.9870705,58.47236410000001,66.0,81.0
108,57.9870705,58.613908066666674,63.0,82.0
109,57.104718500000004,58.95581946666667,47.0,82.0
110,58.869422500000006,59.46868656666667,64.0,84.0
111,58.869422500000006,59.50177476666667,61.0,83.0
112,58.42824650000001,59.564274700000006,68.0,86.0
113,58.869422500000006,59.95214193333334,58.0,74.0
114,58.869422500000006,60.02015656666667,46.0,82.0
115,59.7517745,60.226038700000004,61.0,85.0
116,59.7517745,60.23339163333334,68.0,87.0
117,60.1929505,60.610229466666674,63.0,83.0
118,60.63412650000001,61.126773033333336,68.0,84.0
119,61.516478500000005,61.957654500000004,64.0,84.0
120,61.07530250000001,62.635962600000006,57.0,72.0
121,61.957654500000004,62.92640346666667,68.0,78.0
122,60.63412650000001,63.09184446666667,61.0,80.0
123,63.28118250000001,63.729711433333335,64.0,89.0
124,60.63412650000001,63.80324076666667,45.0,84.0
125,62.8400065,63.82529956666667,57.0,76.0
126,63.722358500000006,64.09000516666667,68.0,86.0
127,64.16353450000001,64.58448993333334,59.0,86.0
128,64.16353450000001,64.70397510000001,66.0,87.0
129,64.16353450000001,64.82162203333334,63.0,91.0
130,65.04588650000001,65.4705184,66.0,91.0
131,65.04588650000001,65.4815478,63.0,91.0
132,65.48706250000001,66.26647343333333,59.0,77.0
133,65.9282385,66.45029676666667,63.0,91.0
134,65.9282385,66.49992906666667,66.0,91.0
135,66.59000250000001,67.23706063333334,59.0,78.0
136,66.8105905,67.23889886666667,63.0,88.0
137,64.60471050000001,67.29588410000001,54.0,73.0
138,64.16353450000001,67.30875173333334,47.0,84.0
139,67.2517665,67.6212514,66.0,86.0
140,67.6929425,68.27933893333334,64.0,88.0
141,67.6929425,68.44110346666668,56.0,84.0
142,67.6929425,68.47786813333335,59.0,88.0
143,67.6929425,68.68375026666668,40.0,83.0
144,68.5752945,69.12492626666668,56.0,91.0
145,68.5752945,69.12676450000001,64.0,92.0
146,68.5752945,69.19477913333334,59.0,94.0
147,69.01647050000001,69.43007300000001,40.0,78.0
148,69.45764650000001,69.99441063333335,63.0,91.0
149,69.45764650000001,70.02933706666667,54.0,90.0
150,69.45764650000001,70.22786626666667,59.0,92.0
151,69.45764650000001,70.4723513,39.0,88.0
152,70.33999850000001,70.8418362,54.0,92.0
153,70.33999850000001,70.88227733333333,63.0,96.0
154,70.33999850000001,70.93926256666667,59.0,100.0
155,70.7811745,71.2444093,39.0,90.0
156,71.2223505,71.77749696666667,59.0,108.0
157,71.2223505,71.95948206666667,63.0,102.0
158,71.2223505,71.98521733333334,56.0,93.0
159,71.2223505,72.08632016666667,44.0,89.0
160,72.1047025,72.76830473333334,56.0,94.0
161,72.1047025,72.88043696666668,60.0,109.0
162,72.1047025,72.91352516666667,63.0,107.0
163,72.1047025,72.95764276666667,48.0,84.0
164,72.9870545,73.74440663333334,64.0,100.0
165,72.9870545,73.81242126666668,56.0,93.0
166,72.9870545,73.8473477,61.0,107.0
167,72.9870545,74.16352383333334,49.0,84.0
168,73.86940650000001,74.38962653333334,56.0,107.0
169,73.86940650000001,74.44109706666667,61.0,107.0
170,73.86940650000001,74.47418526666667,64.0,93.0
171,74.31058250000001,74.70947913333333,49.0,89.0
172,74.75175850000001,75.37491960000001,66.0,94.0
173,75.4135225,75.7609486,54.0,80.0
174,74.75175850000001,76.02933066666667,57.0,86.0
175,74.75175850000001,76.03300713333334,42.0,84.0
176,76.0752865,76.41535966666667,66.0,87.0
177,75.6341105,76.43558023333334,61.0,96.0
178,76.0752865,76.52013896666668,54.0,84.0
179,76.5164625,76.88410916666668,59.0,89.0
180,76.5164625,77.00543256666667,63.0,93.0
181,76.5164625,77.07712366666668,66.0,87.0
182,76.9576385,77.30138813333333,54.0,80.0
183,76.5164625,77.85285813333334,47.0,87.0
184,77.8399905,77.95396096666667,54.0,84.0
185,77.3988145,77.9557992,59.0,98.0
186,77.8399905,78.21682833333334,63.0,81.0
187,77.3988145,78.23888713333334,66.0,100.0
188,78.28116650000001,78.62491613333334,64.0,98.0
189,78.28116650000001,78.639622,68.0,93.0
190,78.28116650000001,78.94109226666667,59.0,89.0
191,79.16351850000001,79.36572416666667,54.0,86.0
192,79.3841065,79.47417993333335,56.0,88.0
193,78.28116650000001,79.94476766666668,40.0,87.0
194,79.60469450000001,79.98153233333333,59.0,84.0
195,79.8252825,80.0017529,64.0,74.0
196,78.9429305,80.03667933333334,52.0,87.0
197,80.0458705,80.66719336666667,68.0,94.0
198,80.0458705,80.67638453333333,59.0,100.0
199,80.0458705,80.72785506666668,64.0,104.0
200,80.9282225,80.95211953333335,65.0,87.0
201,80.9282225,81.34550146666668,68.0,89.0
202,80.0458705,81.37858966666667,40.0,88.0
203,80.70763450000001,81.40616316666667,52.0,82.0
204,80.9282225,81.56608946666667,59.0,104.0
205,81.3693985,81.69844226666667,66.0,87.0
206,81.3693985,81.7333687,63.0,98.0
207,81.8105745,82.50358846666667,68.0,96.0
208,81.8105745,82.5219708,59.0,92.0
209,81.8105745,82.54954430000001,64.0,102.0
210,81.8105745,83.14880836666667,40.0,87.0
211,82.69292650000001,83.27380823333334,68.0,91.0
212,82.69292650000001,83.40616103333333,59.0,100.0
213,82.69292650000001,83.43557276666667,64.0,98.0
214,83.57527850000001,84.18373373333334,63.0,104.0
215,83.57527850000001,84.20579253333334,66.0,96.0
216,83.57527850000001,84.24071896666668,59.0,91.0
217,83.57527850000001,84.68557143333334,51.0,88.0
218,84.45763050000001,84.96682113333334,59.0,100.0
219,84.45763050000001,85.11939450000001,66.0,93.0
220,84.8988065,85.12123273333334,63.0,81.0
221,84.8988065,85.15799740000001,51.0,87.0
222,85.3399825,85.79954083333334,60.0,107.0
223,85.3399825,85.81792316666667,56.0,92.0
224,85.3399825,85.84917313333334,63.0,102.0
225,85.3399825,86.28115796666667,48.0,88.0
226,86.2223345,86.66167226666667,56.0,91.0
227,86.2223345,86.66167226666667,60.0,91.0
228,86.2223345,86.7903486,66.0,104.0
229,86.2223345,86.8068927,44.0,87.0
230,86.2223345,87.021966,63.0,107.0
231,87.1046865,87.72233290000001,56.0,92.0
232,87.1046865,87.79953870000001,61.0,102.0
233,87.1046865,87.81975926666668,64.0,96.0
234,87.98703850000001,88.47600856666668,61.0,102.0
235,87.7664505,88.47968503333334,56.0,82.0
236,87.1046865,88.48152326666667,49.0,87.0
237,88.42821450000001,88.83078760000001,63.0,94.0
238,88.86939050000001,89.59549266666667,64.0,98.0
239,88.86939050000001,89.61387500000001,61.0,89.0
240,89.53115450000001,89.88225706666667,57.0,85.0
241,89.31056650000001,90.16902146666668,52.0,68.0
242,88.86939050000001,90.22968316666667,45.0,91.0
243,90.1929185,90.3969624,57.0,84.0
244,89.7517425,90.49438876666667,64.0,107.0
245,89.7517425,90.496227,61.0,104.0
246,90.6340945,91.22232916666667,59.0,89.0
247,90.6340945,91.27379970000001,66.0,93.0
248,90.6340945,91.28666733333334,63.0,100.0
249,90.6340945,91.72232863333333,47.0,87.0
250,91.29585850000001,91.80688736666667,54.0,80.0
251,91.95762250000001,92.04953416666667,47.0,87.0
252,91.5164465,92.05688710000001,59.0,104.0
253,91.95762250000001,92.32159270000001,63.0,87.0
254,91.5164465,92.3271074,66.0,98.0
255,92.39879850000001,93.17085650000001,56.0,88.0
256,92.39879850000001,93.25909170000001,59.0,92.0
257,92.39879850000001,93.50909143333334,64.0,91.0
258,93.5017385,93.80872346666668,54.0,86.0
259,92.39879850000001,93.87673810000001,40.0,87.0
260,93.28115050000001,93.96681153333334,52.0,87.0
261,93.72232650000001,94.12306136666668,56.0,87.0
262,93.0605625,94.20210540000001,47.0,77.0
263,94.1635025,95.08261916666667,40.0,83.0
264,94.1635025,95.11386913333334,52.0,82.0
265,94.1635025,95.33629536666668,56.0,80.0
266,93.9429145,95.45026583333335,59.0,80.0
267,94.1635025,95.46313346666668,64.0,88.0
268,95.9282065,96.01460346666667,45.0,97.0
269,95.9282065,96.02011816666668,57.0,95.0
270,95.9282065,96.02379463333334,64.0,108.0
271,95.9282065,96.03114756666668,68.0,102.0
272,95.9282065,96.03666226666667,61.0,96.0
273,96.14879450000001,96.23519146666668,45.0,103.0
274,96.14879450000001,96.26460320000001,57.0,100.0
275,96.14879450000001,96.286662,68.0,102.0
276,96.14879450000001,96.29217670000001,64.0,108.0
277,96.14879450000001,96.30320610000001,61.0,93.0
278,97.25173450000001,98.05504246666668,59.0,92.0
279,97.25173450000001,98.06974833333334,63.0,107.0
280,97.25173450000001,98.07526303333334,66.0,102.0
281,97.25173450000001,98.09180713333335,47.0,90.0
282,99.4576145,100.0752609,71.0,77.0
283,99.4576145,100.3785694,68.0,81.0
284,100.3399665,101.2278332,71.0,75.0
285,99.4576145,101.24070083333334,64.0,76.0
286,99.4576145,102.33261143333334,52.0,74.0
287,101.22231850000001,102.34180260000001,59.0,70.0
288,102.54584650000001,103.1083459,71.0,89.0
289,102.98702250000001,104.02746256666667,66.0,80.0
290,103.42819850000001,105.2315054,54.0,65.0
291,102.98702250000001,105.2590789,47.0,80.0
292,102.98702250000001,105.6726814,63.0,76.0
293,105.6340785,105.6726814,63.0,83.0
294,105.6340785,106.1690044,60.0,81.0
295,105.6340785,106.268269,68.0,86.0
296,105.6340785,106.5219452,44.0,82.0
297,106.51643050000001,107.84363496666667,64.0,84.0
298,106.51643050000001,107.85834083333334,68.0,77.0
299,106.51643050000001,107.92819370000001,61.0,81.0
300,106.51643050000001,108.06054650000002,49.0,76.0
301,107.39878250000001,108.06054650000002,56.0,64.0
302,108.28113450000001,108.99988373333335,66.0,88.0
303,108.28113450000001,109.07157483333334,61.0,88.0
304,109.1634865,109.56973606666668,61.0,88.0
305,108.28113450000001,109.59179486666667,46.0,81.0
306,109.1634865,109.78480936666668,66.0,89.0
307,109.6046625,109.98150033333334,64.0,87.0
308,110.0458385,110.38407343333334,59.0,82.0
309,110.0458385,110.8951023,63.0,87.0
310,110.0458385,111.24436663333334,66.0,65.0
311,111.36936650000001,111.78296900000001,64.0,84.0
312,110.92819050000001,112.2462038,59.0,78.0
313,111.81054250000001,112.71679153333334,63.0,87.0
314,112.4723065,112.8417914,59.0,83.0
315,110.0458385,113.09914406666668,47.0,74.0
316,110.48701450000002,113.10098230000001,54.0,62.0
317,112.69289450000001,113.12120286666668,61.0,90.0
318,113.35465850000001,113.63223173333334,59.0,72.0
319,113.1340705,113.91531966666668,64.0,88.0
320,113.5752465,113.9667902,68.0,86.0
321,114.4575985,115.09730370000001,71.0,85.0
322,114.4575985,115.23149473333334,64.0,84.0
323,114.0164225,115.46495036666667,59.0,67.0
324,115.33995050000001,115.9245087,71.0,83.0
325,115.33995050000001,116.0403174,64.0,80.0
326,113.5752465,116.67818436666667,52.0,83.0
327,116.0017145,116.69289023333334,59.0,70.0
328,116.22230250000001,117.11016920000002,71.0,96.0
329,116.66347850000001,117.16347796666668,68.0,89.0
330,117.10465450000001,117.47413940000001,66.0,87.0
331,117.54583050000001,117.91531540000001,66.0,70.0
332,117.54583050000001,118.41347663333335,54.0,50.0
333,117.9870065,118.51090300000001,66.0,79.0
334,117.10465450000001,118.54215296666668,47.0,82.0
335,117.10465450000001,118.85465263333334,63.0,79.0
336,118.8693585,119.36200503333335,63.0,40.0
337,119.75171050000002,120.16898946666667,44.0,84.0
338,119.75171050000002,120.18369533333335,60.0,85.0
339,120.19288650000001,120.6781801,63.0,86.0
340,120.63406250000001,121.24251773333334,64.0,84.0
341,119.75171050000002,121.31237060000001,68.0,86.0
342,120.63406250000001,121.43737046666668,61.0,78.0
343,121.51641450000001,122.15428146666667,68.0,83.0
344,121.51641450000001,122.17817850000002,63.0,87.0
345,121.07523850000001,122.20207553333334,56.0,38.0
346,120.63406250000001,122.22964903333335,49.0,81.0
347,122.39876650000001,123.65979456666668,46.0,85.0
348,122.8399425,123.78479443333335,58.0,81.0
349,123.2811185,123.90795606666667,68.0,92.0
350,123.7222945,124.13038230000001,64.0,85.0
351,124.1634705,124.57707300000001,59.0,81.0
352,125.04582250000001,125.55685136666668,59.0,82.0
353,124.1634705,125.57155723333334,66.0,83.0
354,124.60464650000002,125.63405716666668,54.0,73.0
355,125.48699850000001,125.96677740000001,64.0,88.0
356,125.92817450000001,126.63405610000001,63.0,91.0
357,126.58993850000002,126.98883513333334,59.0,81.0
358,125.92817450000001,127.1248644,54.0,79.0
359,124.1634705,127.2351584,47.0,81.0
360,126.81052650000001,127.2627319,63.0,92.0
361,127.25170250000001,127.76089313333334,64.0,88.0
362,127.6928785,127.76089313333334,64.0,83.0
363,127.6928785,128.20390736666667,68.0,87.0
364,127.6928785,128.33993663333334,61.0,80.0
365,127.6928785,128.9281713,49.0,77.0
366,128.3546425,129.0274359,56.0,76.0
367,128.5752305,129.08625936666667,63.0,86.0
368,129.01640650000002,129.430009,64.0,84.0
369,129.4575825,130.1248612,68.0,84.0
370,129.4575825,130.1671405666667,63.0,82.0
371,130.3399345,130.6818459,68.0,86.0
372,130.3399345,130.81603693333335,63.0,82.0
373,130.7811105,131.23147766666668,68.0,86.0
374,129.4575825,131.2425070666667,48.0,72.0
375,131.22228650000002,131.7792712,59.0,80.0
376,131.22228650000002,131.85096230000002,66.0,84.0
377,131.22228650000002,131.96309453333333,63.0,81.0
378,132.10463850000002,132.43735873333335,59.0,73.0
379,132.10463850000002,132.5899321,66.0,81.0
380,132.10463850000002,132.7314760666667,63.0,82.0
381,131.22228650000002,133.07338746666667,47.0,82.0
382,132.98699050000002,133.58625456666667,64.0,84.0
383,132.98699050000002,133.61934276666668,61.0,83.0
384,132.5458145,133.6818427,68.0,86.0
385,132.98699050000002,134.06970993333334,58.0,74.0
386,132.98699050000002,134.1377245666667,46.0,82.0
387,133.86934250000002,134.3436067,61.0,85.0
388,133.86934250000002,134.35095963333333,68.0,87.0
389,134.3105185,134.7277974666667,63.0,83.0
390,134.7516945,135.24434103333334,68.0,84.0
391,135.6340465,136.07522250000002,64.0,84.0
392,135.1928705,136.7535306,57.0,72.0
393,136.07522250000002,137.04397146666668,68.0,78.0
394,134.7516945,137.20941246666666,61.0,80.0
395,137.3987505,137.84727943333334,64.0,89.0
396,134.7516945,137.92080876666668,45.0,84.0
397,136.95757450000002,137.94286756666668,57.0,76.0
398,137.83992650000002,138.2075731666667,68.0,86.0
399,138.2811025,138.70205793333335,59.0,86.0
400,138.2811025,138.8215431,66.0,87.0
401,138.2811025,138.93919003333335,63.0,91.0
402,139.1634545,139.5880864,66.0,91.0
403,139.1634545,139.59911580000002,63.0,91.0
404,139.6046305,140.38404143333335,59.0,77.0
405,140.0458065,140.56786476666667,63.0,91.0
406,140.0458065,140.6174970666667,66.0,91.0
407,140.7075705,141.35462863333333,59.0,78.0
408,140.92815850000002,141.35646686666666,63.0,88.0
409,138.72227850000002,141.4134521,54.0,73.0
410,138.2811025,141.42631973333334,47.0,84.0
411,141.3693345,141.7388194,66.0,86.0
412,141.81051050000002,142.39690693333336,64.0,88.0
413,141.81051050000002,142.55867146666668,56.0,84.0
414,141.81051050000002,142.59543613333335,59.0,88.0
415,141.81051050000002,142.80131826666667,40.0,83.0
416,142.69286250000002,143.24249426666668,56.0,91.0
417,142.69286250000002,143.2443325,64.0,92.0
418,142.69286250000002,143.31234713333333,59.0,94.0
419,143.1340385,143.547641,40.0,78.0
420,143.57521450000002,144.11197863333334,63.0,91.0
421,143.57521450000002,144.14690506666668,54.0,90.0
422,143.57521450000002,144.34543426666667,59.0,92.0
423,143.57521450000002,144.58991930000002,39.0,88.0
424,144.4575665,144.95940420000002,54.0,92.0
425,144.4575665,144.99984533333335,63.0,96.0
426,144.4575665,145.0568305666667,59.0,100.0
427,144.8987425,145.3619773,39.0,90.0
428,145.3399185,145.89506496666667,59.0,108.0
429,145.3399185,146.0770500666667,63.0,102.0
430,145.3399185,146.10278533333334,56.0,93.0
431,145.3399185,146.20388816666667,44.0,89.0
432,146.2222705,146.88587273333334,56.0,94.0
433,146.2222705,146.99800496666668,60.0,109.0
434,146.2222705,147.03109316666666,63.0,107.0
435,146.2222705,147.0752107666667,48.0,84.0
436,147.1046225,147.86197463333335,64.0,100.0
437,147.1046225,147.92998926666667,56.0,93.0
438,147.1046225,147.9649157,61.0,107.0
439,147.1046225,148.28109183333333,49.0,84.0
440,147.9869745,148.50719453333335,56.0,107.0
441,147.9869745,148.5586650666667,61.0,107.0
442,147.9869745,148.59175326666667,64.0,93.0
443,148.42815050000002,148.82704713333334,49.0,89.0
444,148.8693265,149.4924876,66.0,94.0
445,149.5310905,149.8785166,54.0,80.0
446,148.8693265,150.1468986666667,57.0,86.0
447,148.8693265,150.15057513333335,42.0,84.0
448,150.1928545,150.53292766666667,66.0,87.0
449,149.75167850000003,150.55314823333333,61.0,96.0
450,150.1928545,150.63770696666668,54.0,84.0
451,150.63403050000002,151.00167716666667,59.0,89.0
452,150.63403050000002,151.1230005666667,63.0,93.0
453,150.63403050000002,151.19469166666667,66.0,87.0
454,151.0752065,151.41895613333335,54.0,80.0
455,150.63403050000002,151.97042613333335,47.0,87.0
456,151.9575585,152.07152896666668,54.0,84.0
457,151.51638250000002,152.0733672,59.0,98.0
458,151.9575585,152.33439633333336,63.0,81.0
459,151.51638250000002,152.35645513333336,66.0,100.0
460,152.39873450000002,152.74248413333333,64.0,98.0
461,152.39873450000002,152.75719,68.0,93.0
462,152.39873450000002,153.0586602666667,59.0,89.0
463,153.28108650000001,153.48329216666667,54.0,86.0
464,153.5016745,153.59174793333335,56.0,88.0
465,152.39873450000002,154.06233566666668,40.0,87.0
466,153.7222625,154.09910033333335,59.0,84.0
467,153.94285050000002,154.11932090000002,64.0,74.0
468,153.06049850000002,154.15424733333336,52.0,87.0
469,154.1634385,154.7847613666667,68.0,94.0
470,154.1634385,154.79395253333334,59.0,100.0
471,154.1634385,154.84542306666668,64.0,104.0
472,155.0457905,155.06968753333334,65.0,87.0
473,155.0457905,155.46306946666667,68.0,89.0
474,154.1634385,155.49615766666668,40.0,88.0
475,154.82520250000002,155.5237311666667,52.0,82.0
476,155.0457905,155.6836574666667,59.0,104.0
477,155.48696650000002,155.81601026666667,66.0,87.0
478,155.48696650000002,155.8509367,63.0,98.0
479,155.9281425,156.6211564666667,68.0,96.0
480,155.9281425,156.63953880000003,59.0,92.0
481,155.9281425,156.6671123,64.0,102.0
482,155.9281425,157.2663763666667,40.0,87.0
483,156.8104945,157.39137623333335,68.0,91.0
484,156.8104945,157.52372903333335,59.0,100.0
485,156.8104945,157.55314076666667,64.0,98.0
486,157.6928465,158.30130173333333,63.0,104.0
487,157.6928465,158.32336053333336,66.0,96.0
488,157.6928465,158.35828696666667,59.0,91.0
489,157.6928465,158.80313943333334,51.0,88.0
490,158.5751985,159.08438913333333,59.0,100.0
491,158.5751985,159.2369625,66.0,93.0
492,159.0163745,159.23880073333333,63.0,81.0
493,159.0163745,159.2755654,51.0,87.0
494,159.45755050000002,159.91710883333334,64.0,107.0
495,159.45755050000002,159.93549116666668,61.0,92.0
496,159.45755050000002,159.96674113333336,68.0,102.0
497,159.45755050000002,160.3987259666667,44.0,88.0
498,160.33990250000002,160.77924026666668,60.0,91.0
499,160.33990250000002,160.90791660000002,68.0,104.0
500,160.33990250000002,160.92446070000003,48.0,87.0
501,160.33990250000002,161.13953400000003,63.0,107.0
502,161.22225450000002,161.8399009,61.0,92.0
503,161.22225450000002,161.9171067,64.0,102.0
504,161.22225450000002,161.93732726666667,68.0,96.0
505,162.10460650000002,162.59357656666668,61.0,102.0
506,161.88401850000002,162.59725303333335,56.0,82.0
507,161.22225450000002,162.59909126666668,49.0,87.0
508,162.5457825,162.9483556,63.0,94.0
509,162.98695850000001,163.71306066666668,64.0,98.0
510,162.98695850000001,163.731443,61.0,89.0
511,163.64872250000002,163.9998250666667,57.0,85.0
512,163.4281345,164.28658946666667,52.0,68.0
513,162.98695850000001,164.34725116666667,45.0,91.0
514,164.31048650000002,164.5145304,57.0,84.0
515,163.8693105,164.61195676666668,64.0,107.0
516,163.8693105,164.613795,61.0,104.0
517,164.7516625,165.33989716666667,59.0,89.0
518,164.7516625,165.39136770000002,66.0,93.0
519,164.7516625,165.40423533333333,63.0,100.0
520,164.7516625,165.83989663333335,47.0,87.0
521,165.4134265,165.92445536666668,54.0,80.0
522,166.07519050000002,166.16710216666667,47.0,87.0
523,165.6340145,166.17445510000002,59.0,104.0
524,166.07519050000002,166.4391607,63.0,87.0
525,165.6340145,166.44467540000002,66.0,98.0
526,166.5163665,167.28842450000002,56.0,88.0
527,166.5163665,167.3766597,59.0,92.0
528,166.5163665,167.62665943333334,64.0,91.0
529,167.61930650000002,167.92629146666667,54.0,86.0
530,166.5163665,167.99430610000002,40.0,87.0
531,167.3987185,168.08437953333333,52.0,87.0
532,167.8398945,168.24062936666667,56.0,87.0
533,167.1781305,168.3196734,47.0,77.0
534,168.28107050000003,169.20018716666667,40.0,83.0
535,168.28107050000003,169.23143713333334,52.0,82.0
536,168.28107050000003,169.45386336666667,56.0,80.0
537,168.0604825,169.56783383333334,59.0,80.0
538,168.28107050000003,169.58070146666668,64.0,88.0
539,170.04577450000002,170.51452400000002,66.0,83.0
540,170.04577450000002,170.85092070000002,60.0,84.0
541,170.04577450000002,170.91342063333335,63.0,87.0
542,170.92812650000002,171.54209643333334,63.0,78.0
543,170.92812650000002,171.54761113333333,66.0,86.0
544,170.92812650000002,171.60827283333336,60.0,85.0
545,171.58989050000002,172.12297816666668,56.0,38.0
546,171.81047850000002,172.41341903333335,66.0,84.0
547,171.81047850000002,172.4667278,60.0,76.0
548,172.47224250000002,173.06415363333335,56.0,77.0
549,170.04577450000002,173.11378593333333,44.0,79.0
550,172.6928305,173.17077116666667,60.0,103.0
551,173.13400650000003,173.5420943,66.0,89.0
552,173.5751825,174.33988756666668,61.0,90.0
553,173.5751825,174.35643166666668,64.0,88.0
554,174.4575345,175.1082691,61.0,89.0
555,174.4575345,175.12848966666667,64.0,87.0
556,175.1192985,175.5641509666667,57.0,34.0
557,175.3398865,176.01451813333335,64.0,83.0
558,175.3398865,176.05128280000002,61.0,87.0
559,176.2222385,176.29760606666667,61.0,77.0
560,176.0016505,176.54392933333335,57.0,77.0
561,176.2222385,176.6946644666667,64.0,88.0
562,173.5751825,176.7681938,45.0,86.0
563,176.66341450000002,177.06782583333336,63.0,84.0
564,177.1045905,177.83253090000002,66.0,91.0
565,177.1045905,177.8876779,58.0,88.0
566,177.1045905,177.9078984666667,61.0,94.0
567,177.98694250000003,178.68547116666667,66.0,92.0
568,177.98694250000003,178.7737063666667,58.0,89.0
569,177.98694250000003,178.80679456666667,61.0,94.0
570,177.1045905,179.41708803333336,46.0,86.0
571,178.86929450000002,179.5567937666667,66.0,90.0
572,178.86929450000002,179.59907313333335,58.0,88.0
573,178.86929450000002,179.6339995666667,61.0,91.0
574,179.5310585,179.93730806666667,46.0,87.0
575,179.75164650000002,180.25532243333333,58.0,96.0
576,179.75164650000002,180.3178223666667,66.0,93.0
577,179.75164650000002,180.44282223333335,61.0,98.0
578,180.1928225,180.4851016,46.0,83.0
579,180.63399850000002,180.9759099,49.0,86.0
580,180.63399850000002,181.02002750000003,68.0,90.0
581,180.63399850000002,181.0402480666667,61.0,87.0
582,181.0751745,181.39135063333336,49.0,89.0
583,181.0751745,181.44833586666667,68.0,93.0
584,181.0751745,181.45017410000003,61.0,86.0
585,181.51635050000002,181.79392373333334,49.0,91.0
586,181.51635050000002,181.86010013333333,68.0,93.0
587,181.51635050000002,181.86929130000001,61.0,88.0
588,181.9575265,182.23877620000002,49.0,89.0
589,181.9575265,182.31598200000002,61.0,89.0
590,181.9575265,182.31965846666668,68.0,91.0
591,182.3987025,183.1744369666667,61.0,91.0
592,182.3987025,183.2038487,68.0,96.0
593,182.3987025,183.21487810000002,65.0,100.0
594,182.3987025,183.57701006666667,49.0,91.0
595,183.2810545,184.1339947666667,61.0,96.0
596,183.2810545,184.18730353333333,65.0,97.0
597,183.72223050000002,184.20384763333334,49.0,88.0
598,183.2810545,184.2075241,68.0,93.0
599,184.1634065,184.2075241,68.0,88.0
600,184.1634065,184.73877353333336,61.0,84.0
601,184.1634065,184.75531763333333,64.0,89.0
602,184.8251705,185.38950813333335,57.0,74.0
603,185.0457585,185.79575770000002,61.0,89.0
604,185.0457585,185.80311063333335,68.0,89.0
605,185.7075225,186.39318353333334,57.0,75.0
606,185.9281105,186.64134503333335,68.0,88.0
607,185.9281105,186.64685973333334,61.0,88.0
608,186.5898745,187.07149163333335,57.0,84.0
609,186.81046250000003,187.13215333333335,61.0,96.0
610,184.1634065,187.27737376666667,45.0,89.0
611,187.03105050000002,187.29391786666667,64.0,89.0
612,187.2516385,187.60090283333335,68.0,94.0
613,187.69281450000003,188.33619616666667,63.0,86.0
614,187.69281450000003,188.35090203333334,56.0,84.0
615,187.69281450000003,188.38950493333334,59.0,87.0
616,187.69281450000003,188.5089901,44.0,86.0
617,188.57516650000002,189.06965126666668,48.0,89.0
618,188.57516650000002,189.0714895,63.0,94.0
619,188.57516650000002,189.36744506666668,56.0,89.0
620,188.57516650000002,189.39318033333333,60.0,88.0
621,189.45751850000002,189.54391546666668,56.0,85.0
622,189.45751850000002,189.86192983333333,61.0,94.0
623,189.45751850000002,190.2130324,64.0,94.0
624,190.11928250000003,190.80310530000003,56.0,77.0
625,189.45751850000002,190.8361935,49.0,87.0
626,190.33987050000002,190.88766403333335,61.0,102.0
627,190.7810465,191.1597225666667,63.0,91.0
628,191.22222250000002,191.81597186666667,64.0,91.0
629,191.22222250000002,191.88766296666668,61.0,96.0
630,191.22222250000002,191.8986923666667,58.0,88.0
631,192.1045745,192.74795616666668,64.0,92.0
632,192.1045745,192.8711178,61.0,98.0
633,192.1045745,192.8876619,58.0,94.0
634,191.22222250000002,193.47405833333335,46.0,87.0
635,192.9869265,193.64501403333335,64.0,89.0
636,192.9869265,193.70751396666668,58.0,88.0
637,192.9869265,193.7093522,61.0,88.0
638,193.64869050000001,194.0678077,46.0,82.0
639,193.8692785,194.3637632666667,58.0,93.0
640,193.8692785,194.4372926,64.0,91.0
641,193.8692785,194.45016023333335,61.0,96.0
642,194.31045450000002,194.58986596666668,46.0,79.0
643,194.7516305,195.4005268666667,63.0,87.0
644,194.7516305,195.4299386,54.0,85.0
645,194.7516305,195.43729153333334,59.0,89.0
646,194.7516305,195.7589823666667,47.0,86.0
647,195.6339825,195.94832040000003,54.0,92.0
648,195.6339825,196.08802613333336,59.0,104.0
649,195.6339825,196.08802613333336,63.0,98.0
650,196.07515850000001,196.3655993666667,47.0,84.0
651,196.51633450000003,196.70567253333334,59.0,91.0
652,196.51633450000003,196.93545170000002,63.0,108.0
653,196.51633450000003,196.9887604666667,66.0,98.0
654,197.39868650000003,197.70015676666668,63.0,108.0
655,196.51633450000003,197.79206843333336,47.0,87.0
656,196.9575105,197.8325095666667,54.0,79.0
657,197.61927450000002,197.94280356666667,66.0,104.0
658,197.1780985,197.95750943333334,59.0,88.0
659,197.8398625,198.67993513333334,71.0,108.0
660,198.28103850000002,198.86743493333336,64.0,88.0
661,198.28103850000002,199.02919946666668,56.0,84.0
662,198.28103850000002,199.06596413333335,59.0,88.0
663,198.28103850000002,199.27184626666667,40.0,83.0
664,199.16339050000002,199.71302226666668,56.0,91.0
665,199.16339050000002,199.71486050000001,64.0,92.0
666,199.16339050000002,199.78287513333333,59.0,94.0
667,199.6045665,200.01816900000003,40.0,78.0
668,200.04574250000002,200.58250663333334,63.0,91.0
669,200.04574250000002,200.61743306666668,54.0,90.0
670,200.04574250000002,200.81596226666667,59.0,92.0
671,200.04574250000002,201.06044730000002,39.0,88.0
672,200.92809450000001,201.42993220000002,54.0,92.0
673,200.92809450000001,201.47037333333336,63.0,96.0
674,200.92809450000001,201.5273585666667,59.0,100.0
675,201.36927050000003,201.8325053,39.0,90.0
676,201.8104465,202.36559296666667,59.0,108.0
677,201.8104465,202.5475780666667,63.0,102.0
678,201.8104465,202.57331333333335,56.0,93.0
679,201.8104465,202.67441616666667,44.0,89.0
680,202.6927985,203.35640073333334,56.0,94.0
681,202.6927985,203.4685329666667,60.0,109.0
682,202.6927985,203.5016211666667,63.0,107.0
683,202.6927985,203.5457387666667,48.0,84.0
684,203.5751505,204.33250263333335,64.0,100.0
685,203.5751505,204.40051726666667,56.0,93.0
686,203.5751505,204.4354437,61.0,107.0
687,203.5751505,204.75161983333334,49.0,84.0
688,204.4575025,204.97772253333335,56.0,107.0
689,204.4575025,205.0291930666667,61.0,107.0
690,204.4575025,205.06228126666667,64.0,93.0
691,204.89867850000002,205.29757513333334,49.0,89.0
692,205.33985450000003,205.9630156,66.0,94.0
693,206.0016185,206.3490446,54.0,80.0
694,205.33985450000003,206.6174266666667,57.0,86.0
695,205.33985450000003,206.62110313333335,42.0,84.0
696,206.6633825,207.0034556666667,66.0,87.0
697,206.22220650000003,207.02367623333336,61.0,96.0
698,206.6633825,207.10823496666669,54.0,84.0
699,207.10455850000002,207.47220516666667,59.0,89.0
700,207.10455850000002,207.5935285666667,63.0,93.0
701,207.10455850000002,207.66521966666667,66.0,87.0
702,207.5457345,207.88948413333335,54.0,80.0
703,207.10455850000002,208.44095413333335,47.0,87.0
704,208.4280865,208.54205696666668,54.0,84.0
705,207.98691050000002,208.5438952,59.0,98.0
706,208.4280865,208.80492433333336,63.0,81.0
707,207.98691050000002,208.82698313333336,66.0,100.0
708,208.86926250000002,209.21301213333334,64.0,98.0
709,208.86926250000002,209.227718,68.0,93.0
710,208.86926250000002,209.5291882666667,59.0,89.0
711,209.75161450000002,209.95382016666667,54.0,86.0
712,209.9722025,210.06227593333335,56.0,88.0
713,208.86926250000002,210.53286366666669,40.0,87.0
714,210.19279050000003,210.56962833333336,59.0,84.0
715,210.41337850000002,210.58984890000002,64.0,74.0
716,209.53102650000002,210.62477533333336,52.0,87.0
717,210.6339665,211.2552893666667,68.0,94.0
718,210.6339665,211.26448053333334,59.0,100.0
719,210.6339665,211.31595106666668,64.0,104.0
720,211.5163185,211.54021553333334,65.0,87.0
721,211.5163185,211.93359746666667,68.0,89.0
722,210.6339665,211.96668566666668,40.0,88.0
723,211.29573050000002,211.9942591666667,52.0,82.0
724,211.5163185,212.1541854666667,59.0,104.0
725,211.95749450000002,212.2865382666667,66.0,87.0
726,211.95749450000002,212.3214647,63.0,98.0
727,212.3986705,213.0916844666667,68.0,96.0
728,212.3986705,213.11006680000003,59.0,92.0
729,212.3986705,213.13764030000002,64.0,102.0
730,212.3986705,213.7369043666667,40.0,87.0
731,213.2810225,213.86190423333335,68.0,91.0
732,213.2810225,213.99425703333335,59.0,100.0
733,213.2810225,214.02366876666667,64.0,98.0
734,214.1633745,214.77182973333336,63.0,104.0
735,214.1633745,214.79388853333336,66.0,96.0
736,214.1633745,214.82881496666667,59.0,91.0
737,214.1633745,215.27366743333334,51.0,88.0
738,215.04572650000003,215.55491713333336,59.0,100.0
739,215.04572650000003,215.7074905,66.0,93.0
740,215.4869025,215.70932873333334,63.0,81.0
741,215.4869025,215.7460934,51.0,87.0
742,215.95565200000001,216.41521033333336,60.0,107.0
743,215.95565200000001,216.43359266666667,56.0,92.0
744,215.95565200000001,216.46484263333335,63.0,102.0
745,215.95565200000001,216.89682746666668,48.0,88.0
746,216.838004,217.2773417666667,56.0,91.0
747,216.838004,217.2773417666667,60.0,91.0
748,216.838004,217.4060181,66.0,104.0
749,216.838004,217.42256220000002,44.0,87.0
750,216.838004,217.63763550000002,63.0,107.0
751,217.720356,218.33800240000002,56.0,92.0
752,217.720356,218.41520820000002,61.0,102.0
753,217.720356,218.4354287666667,64.0,96.0
754,218.602708,219.09167806666667,61.0,102.0
755,218.38212000000001,219.09535453333336,56.0,82.0
756,217.720356,219.0971927666667,49.0,87.0
757,219.04388400000002,219.4464571,63.0,94.0
758,219.45748650000002,220.18358866666668,64.0,98.0
759,219.45748650000002,220.20197100000001,61.0,89.0
760,220.11925050000002,220.4703530666667,57.0,85.0
761,219.89866250000003,220.75711746666667,52.0,68.0
762,219.45748650000002,220.8177791666667,45.0,91.0
763,220.78101450000003,220.9850584,57.0,84.0
764,220.3398385,221.08248476666668,64.0,107.0
765,220.3398385,221.084323,61.0,104.0
766,221.2221905,221.81042516666668,59.0,89.0
767,221.2221905,221.86189570000002,66.0,93.0
768,221.2221905,221.87476333333336,63.0,100.0
769,221.2221905,222.31042463333335,47.0,87.0
770,221.88395450000002,222.39498336666668,54.0,80.0
771,222.54571850000002,222.6376301666667,47.0,87.0
772,222.1045425,222.64498310000002,59.0,104.0
773,222.54571850000002,222.9096887,63.0,87.0
774,222.1045425,222.91520340000002,66.0,98.0
775,222.9868945,223.75895250000002,56.0,88.0
776,222.9868945,223.8471877,59.0,92.0
777,222.9868945,224.09718743333335,64.0,91.0
778,224.08983450000002,224.39681946666667,54.0,86.0
779,222.9868945,224.46483410000002,40.0,87.0
780,223.86924650000003,224.55490753333336,52.0,87.0
781,224.31042250000002,224.7111573666667,56.0,87.0
782,223.6486585,224.79020140000003,47.0,77.0
783,224.75159850000003,225.6707151666667,40.0,83.0
784,224.75159850000003,225.70196513333335,52.0,82.0
785,224.75159850000003,225.9243913666667,56.0,80.0
786,224.5310105,226.03836183333334,59.0,80.0
787,224.75159850000003,226.05122946666668,64.0,88.0
788,226.51630250000002,227.10269893333336,64.0,88.0
789,226.51630250000002,227.26446346666668,56.0,84.0
790,226.51630250000002,227.30122813333335,59.0,88.0
791,226.51630250000002,227.50711026666667,40.0,83.0
792,227.39865450000002,227.94828626666668,56.0,91.0
793,227.39865450000002,227.95012450000002,64.0,92.0
794,227.39865450000002,228.01813913333336,59.0,94.0
795,227.8398305,228.25343300000003,40.0,78.0
796,228.28100650000002,228.81777063333334,63.0,91.0
797,228.28100650000002,228.85269706666668,54.0,90.0
798,228.28100650000002,229.05122626666667,59.0,92.0
799,228.28100650000002,229.29571130000002,39.0,88.0
800,229.16335850000002,229.66519620000003,54.0,92.0
801,229.16335850000002,229.70563733333336,63.0,96.0
802,229.16335850000002,229.7626225666667,59.0,100.0
803,229.60453450000003,230.0677693,39.0,90.0
804,230.0457105,230.6008569666667,59.0,108.0
805,230.0457105,230.7828420666667,63.0,102.0
806,230.0457105,230.80857733333335,56.0,93.0
807,230.0457105,230.90968016666667,44.0,89.0
808,230.9280625,231.59166473333335,56.0,94.0
809,230.9280625,231.7037969666667,60.0,109.0
810,230.9280625,231.7368851666667,63.0,107.0
811,230.9280625,231.7810027666667,48.0,84.0
812,231.8104145,232.56776663333335,64.0,100.0
813,231.8104145,232.6357812666667,56.0,93.0
814,231.8104145,232.6707077,61.0,107.0
815,231.8104145,232.98688383333334,49.0,84.0
816,232.6927665,233.21298653333335,56.0,107.0
817,232.6927665,233.2644570666667,61.0,107.0
818,232.6927665,233.29754526666667,64.0,93.0
819,233.13394250000002,233.53283913333334,49.0,89.0
820,233.57511850000003,234.1982796,66.0,94.0
821,234.2368825,234.5843086,54.0,80.0
822,233.57511850000003,234.8526906666667,57.0,86.0
823,233.57511850000003,234.85636713333335,42.0,84.0
824,234.8986465,235.2387196666667,66.0,87.0
825,234.45747050000003,235.25894023333336,61.0,96.0
826,234.8986465,235.3434989666667,54.0,84.0
827,235.33982250000003,235.7074691666667,59.0,89.0
828,235.33982250000003,235.8287925666667,63.0,93.0
829,235.33982250000003,235.90048366666667,66.0,87.0
830,235.7809985,236.12474813333336,54.0,80.0
831,235.33982250000003,236.67621813333335,47.0,87.0
832,236.6633505,236.77732096666668,54.0,84.0
833,236.22217450000002,236.7791592,59.0,98.0
834,236.6633505,237.04018833333336,63.0,81.0
835,236.22217450000002,237.06224713333336,66.0,100.0
836,237.10452650000002,237.44827613333334,64.0,98.0
837,237.10452650000002,237.462982,68.0,93.0
838,237.10452650000002,237.7644522666667,59.0,89.0
839,237.98687850000002,238.18908416666667,54.0,86.0
840,238.2074665,238.29753993333335,56.0,88.0
841,237.10452650000002,238.7681276666667,40.0,87.0
842,238.42805450000003,238.80489233333336,59.0,84.0
843,238.64864250000002,238.82511290000002,64.0,74.0
844,237.76629050000003,238.86003933333336,52.0,87.0
845,238.86923050000001,239.4905533666667,68.0,94.0
846,238.86923050000001,239.49974453333334,59.0,100.0
847,238.86923050000001,239.55121506666669,64.0,104.0
848,239.7515825,239.77547953333334,65.0,87.0
849,239.7515825,240.1688614666667,68.0,89.0
850,238.86923050000001,240.20194966666668,40.0,88.0
851,239.53099450000002,240.2295231666667,52.0,82.0
852,239.7515825,240.3894494666667,59.0,104.0
853,240.19275850000002,240.5218022666667,66.0,87.0
854,240.19275850000002,240.5567287,63.0,98.0
855,240.6339345,241.3269484666667,68.0,96.0
856,240.6339345,241.34533080000003,59.0,92.0
857,240.6339345,241.37290430000002,64.0,102.0
858,240.6339345,241.9721683666667,40.0,87.0
859,241.5162865,242.09716823333335,68.0,91.0
860,241.5162865,242.22952103333336,59.0,100.0
861,241.5162865,242.25893276666667,64.0,98.0
862,242.39863850000003,243.00709373333336,63.0,104.0
863,242.39863850000003,243.02915253333336,66.0,96.0
864,242.39863850000003,243.0640789666667,59.0,91.0
865,242.39863850000003,243.50893143333334,51.0,88.0
866,243.28099050000003,243.79018113333336,59.0,100.0
867,243.28099050000003,243.9427545,66.0,93.0
868,243.72216650000001,243.94459273333337,63.0,81.0
869,243.72216650000001,243.9813574,51.0,87.0
870,244.19091600000002,244.65047433333336,60.0,107.0
871,244.19091600000002,244.6688566666667,56.0,92.0
872,244.19091600000002,244.70010663333335,63.0,102.0
873,244.19091600000002,245.13209146666668,48.0,88.0
874,245.073268,245.5126057666667,56.0,91.0
875,245.073268,245.5126057666667,60.0,91.0
876,245.073268,245.6412821,66.0,104.0
877,245.073268,245.65782620000002,44.0,87.0
878,245.073268,245.87289950000002,63.0,107.0
879,245.95562,246.57326640000002,56.0,92.0
880,245.95562,246.65047220000002,61.0,102.0
881,245.95562,246.6706927666667,64.0,96.0
882,246.837972,247.32694206666667,61.0,102.0
883,246.61738400000002,247.33061853333336,56.0,82.0
884,245.95562,247.3324567666667,49.0,87.0
885,247.27914800000002,247.68172110000003,63.0,94.0
886,247.69275050000002,248.41885266666668,64.0,98.0
887,247.69275050000002,248.43723500000002,61.0,89.0
888,248.35451450000002,248.7056170666667,57.0,85.0
889,248.13392650000003,248.99238146666667,52.0,68.0
890,247.69275050000002,249.0530431666667,45.0,91.0
891,249.01627850000003,249.22032240000001,57.0,84.0
892,248.5751025,249.31774876666668,64.0,107.0
893,248.5751025,249.319587,61.0,104.0
894,249.4574545,250.04568916666668,59.0,89.0
895,249.4574545,250.09715970000002,66.0,93.0
896,249.4574545,250.11002733333336,63.0,100.0
897,249.4574545,250.54568863333336,47.0,87.0
898,250.11921850000002,250.63024736666668,54.0,80.0
899,250.78098250000002,250.8728941666667,47.0,87.0
900,250.3398065,250.88024710000002,59.0,104.0
901,250.78098250000002,251.14495270000003,63.0,87.0
902,250.3398065,251.15046740000003,66.0,98.0
903,251.2221585,251.99421650000002,56.0,88.0
904,251.2221585,252.0824517,59.0,92.0
905,251.2221585,252.33245143333335,64.0,91.0
906,252.32509850000002,252.6320834666667,54.0,86.0
907,251.2221585,252.70009810000002,40.0,87.0
908,252.10451050000003,252.79017153333336,52.0,87.0
909,252.54568650000002,252.9464213666667,56.0,87.0
910,251.8839225,253.02546540000003,47.0,77.0
911,252.98686250000003,253.9059791666667,40.0,83.0
912,252.98686250000003,253.93722913333335,52.0,82.0
913,252.98686250000003,254.1596553666667,56.0,80.0
914,252.7662745,254.27362583333334,59.0,80.0
915,252.98686250000003,254.28649346666668,64.0,88.0
916,254.89862516666668,256.50524110000003,45.0,83.0
917,255.45928633333335,256.64678506666667,57.0,71.0
918,255.94825640000002,257.6339163666667,69.0,82.0
919,256.43355,257.66148986666667,64.0,86.0
920,258.44273903333334,259.20928233333336,59.0,76.0
921,258.77362103333337,259.2570764,66.0,80.0
922,259.11185596666667,259.3765615666667,63.0,75.0
923,258.0217836,260.4886927333334,54.0,78.0
924,257.53281353333335,260.65781020000003,47.0,84.0
925,259.51075260000005,260.7129572,71.0,81.0
926,261.23133900000005,261.5089122333334,64.0,68.0
927,261.3618535666667,261.71847083333336,68.0,64.0
928,261.15413320000005,261.8232501333334,59.0,61.0
929,262.1173674666667,262.9684695,54.0,78.0
930,262.49052883333337,263.0070724,56.0,71.0
931,263.38023376666666,264.15596823333334,59.0,67.0
932,262.9464107,264.15780646666667,64.0,78.0
933,263.94640963333336,264.50339433333335,56.0,64.0
934,261.7717796,266.0989808666667,52.0,71.0
935,261.26810366666666,266.1265543666667,40.0,75.0
936,264.5567031,266.33978943333335,68.0,77.0
