,start,end,pitch,velocity
0,27.093214739583335,27.764856239583334,62.0,102.0
1,27.764856239583334,28.436497739583334,60.0,92.0
2,28.436497739583334,30.208965141666667,55.0,94.0
3,30.208965141666667,30.429552891666667,52.0,105.0
4,30.429552891666667,30.650140641666667,55.0,100.0
5,30.650140641666667,31.31006566041667,59.0,100.0
6,31.311903891666667,31.973667141666667,59.0,102.0
7,31.973667141666667,32.41484264166667,60.0,89.0
8,32.41484264166667,33.95711866041667,57.0,94.0
9,33.958956891666666,34.179544641666666,57.0,100.0
10,34.179544641666666,34.620720141666666,64.0,97.0
11,34.620720141666666,35.061895641666666,62.0,97.0
12,35.061895641666666,35.503071141666666,60.0,102.0
13,35.503071141666666,37.26593491041667,57.0,108.0
14,37.267773141666666,37.488360891666666,57.0,105.0
15,37.488360891666666,37.708948641666666,59.0,94.0
16,37.708948641666666,38.58946141041667,60.0,92.0
17,38.591299641666666,39.473650641666666,60.0,97.0
18,39.473650641666666,41.23651441041667,62.0,89.0
19,41.238352641666665,41.900115891666665,62.0,105.0
20,41.900115891666665,42.561879141666665,60.0,108.0
21,42.561879141666665,44.326581141666665,55.0,105.0
22,44.326581141666665,44.54716889166667,52.0,111.0
23,44.54716889166667,44.767756641666665,55.0,100.0
24,44.767756641666665,45.42768166041667,59.0,102.0
25,45.42951989166667,46.091283141666665,59.0,105.0
26,46.091283141666665,46.532458641666665,60.0,94.0
27,46.532458641666665,48.297160641666665,57.0,89.0
28,48.297160641666665,48.95074553958334,64.0,80.0
29,48.95074553958334,49.602918539583335,62.0,94.0
30,49.602918539583335,51.34023494791667,57.0,111.0
31,51.342046539583336,51.559437539583335,57.0,105.0
32,51.559437539583335,51.776828539583335,59.0,89.0
33,51.776828539583335,52.20979894791667,60.0,97.0
34,52.21161053958333,52.427189947916666,60.0,84.0
35,52.42900153958333,53.08117453958334,60.0,105.0
36,53.08117453958334,53.51414494791667,62.0,108.0
37,53.515956539583335,55.69490142083333,62.0,82.0
38,55.69490142083333,56.134238689583334,64.0,102.0
39,56.13607692083333,56.796001939583334,64.0,102.0
40,56.79784017083333,57.01842792083333,64.0,94.0
41,57.01842792083333,57.45960342083333,65.0,87.0
42,57.45960342083333,57.898940689583334,64.0,105.0
43,57.90077892083333,58.34195442083333,64.0,97.0
44,58.34195442083333,58.56254217083333,62.0,100.0
45,58.56254217083333,58.78312992083333,62.0,100.0
46,58.78312992083333,59.22430542083333,62.0,108.0
47,59.22430542083333,60.10665642083333,60.0,100.0
48,60.10665642083333,60.54783192083333,59.0,105.0
49,60.54783192083333,61.88054957708333,60.0,97.0
50,61.87135842083333,62.09194617083333,62.0,114.0
51,62.09194617083333,62.31253392083333,64.0,80.0
52,62.31253392083333,62.75370942083333,65.0,102.0
53,62.75370942083333,63.19488492083333,64.0,102.0
54,63.19488492083333,63.41547267083333,60.0,108.0
55,63.41547267083333,64.07723592083333,57.0,111.0
56,64.07723592083333,64.51841142083333,65.0,111.0
57,64.51841142083333,64.95958692083333,64.0,108.0
58,64.95958692083333,65.40076242083333,65.0,92.0
59,65.40076242083333,65.84193792083333,64.0,100.0
60,65.84193792083333,67.60663992083333,60.0,111.0
61,67.60663992083333,69.81251742083333,62.0,102.0
62,69.81251742083333,70.25185468958333,64.0,108.0
63,70.25369292083333,70.69303018958334,64.0,105.0
64,70.69486842083333,71.13604392083333,64.0,105.0
65,71.13604392083333,71.57721942083333,65.0,108.0
66,71.57721942083333,72.01655668958333,64.0,105.0
67,72.01839492083333,73.34008318958334,64.0,100.0
68,73.34192142083333,73.78125868958332,64.0,114.0
69,73.78309692083333,74.22427242083333,64.0,114.0
70,74.22427242083333,74.66544792083333,69.0,117.0
71,74.66544792083333,75.17279974583333,64.0,117.0
72,75.10662342083333,75.32537293958333,62.0,87.0
73,75.32721117083332,75.98713618958334,62.0,100.0
74,75.98897442083333,76.20956217083334,62.0,108.0
75,76.20956217083334,76.43014992083333,64.0,114.0
76,76.43014992083333,76.87132542083333,65.0,111.0
77,76.87132542083333,77.31250092083333,64.0,111.0
78,77.31250092083333,77.53308867083334,60.0,108.0
79,77.53308867083334,78.19485192083333,57.0,120.0
80,78.19485192083333,78.63602742083333,65.0,117.0
81,78.63602742083333,79.07720292083333,64.0,108.0
82,79.07720292083333,79.51837842083333,65.0,111.0
83,79.51837842083333,82.1426279375,67.0,108.0
84,82.1426279375,82.5774099375,55.0,120.0
85,82.5774099375,83.01219193749999,60.0,114.0
86,83.01219193749999,83.44516234583332,67.0,111.0
87,83.44697393749999,85.65146617916666,67.0,114.0
88,85.65146617916666,86.09264167916666,55.0,117.0
89,86.09264167916666,86.53381717916666,60.0,114.0
90,86.53381717916666,86.97315444791666,67.0,114.0
91,86.97499267916666,87.85734367916666,67.0,111.0
92,87.85734367916666,88.29851917916666,65.0,114.0
93,88.29851917916666,88.51910692916665,64.0,111.0
94,88.51910692916665,89.40145792916665,65.0,100.0
95,89.40145792916665,89.62204567916666,57.0,108.0
96,89.62204567916666,90.06322117916666,60.0,117.0
97,90.06322117916666,90.50255844791666,69.0,114.0
98,90.50439667916666,92.71027417916666,69.0,111.0
99,92.71027417916666,93.15144967916666,65.0,108.0
100,93.15144967916666,93.59262517916666,67.0,111.0
101,93.59262517916666,94.03196244791665,69.0,108.0
102,94.03380067916666,94.69556392916665,69.0,111.0
103,94.69556392916665,95.35732717916666,67.0,108.0
104,95.35732717916666,96.23967817916666,65.0,100.0
105,96.23967817916666,96.68085367916666,55.0,120.0
106,96.68085367916666,97.12202917916666,60.0,114.0
107,97.12202917916666,97.56136644791665,67.0,111.0
108,97.56320467916666,99.76908217916666,67.0,114.0
109,99.76908217916666,100.21025767916666,55.0,117.0
110,100.21025767916666,100.65143317916666,60.0,114.0
111,100.65143317916666,101.09077044791665,67.0,114.0
112,101.09260867916666,101.53378417916666,67.0,111.0
113,101.53378417916666,101.97495967916666,65.0,114.0
114,101.97495967916666,102.41613517916666,65.0,114.0
115,102.41613517916666,102.63637661458333,64.0,111.0
116,102.63637661458333,104.15811361458333,65.0,100.0
117,104.15811361458333,104.37550461458332,62.0,111.0
118,104.37550461458332,104.59393455833333,64.0,108.0
119,104.59393455833333,105.25569780833332,65.0,105.0
120,105.25569780833332,105.91746105833333,64.0,111.0
121,105.91746105833333,107.24098755833333,57.0,117.0
122,107.24098755833333,108.12150032708333,59.0,111.0
123,108.12333855833333,108.56451405833333,59.0,117.0
124,108.56451405833333,125.71060597291667,60.0,108.0
125,125.71060597291667,126.37236922291667,62.0,102.0
126,126.37236922291667,127.03413247291667,60.0,92.0
127,127.03413247291667,128.79883447291667,55.0,94.0
128,128.79883447291667,129.01942222291666,52.0,105.0
129,129.01942222291666,129.24000997291668,55.0,100.0
130,129.24000997291668,129.89993499166667,59.0,100.0
131,129.9017732229167,130.56353647291667,59.0,102.0
132,130.56353647291667,131.00471197291668,60.0,89.0
133,131.00471197291668,132.54698799166667,57.0,94.0
134,132.54882622291666,132.76941397291668,57.0,100.0
135,132.76941397291668,133.21058947291667,64.0,97.0
136,133.21058947291667,133.65176497291668,62.0,97.0
137,133.65176497291668,134.09294047291667,60.0,102.0
138,134.09294047291667,135.85580424166668,57.0,108.0
139,135.85764247291667,136.07823022291666,57.0,105.0
140,136.07823022291666,136.29881797291668,59.0,94.0
141,136.29881797291668,137.17933074166666,60.0,92.0
142,137.18116897291668,138.06351997291668,60.0,97.0
143,138.06351997291668,139.8263837416667,62.0,89.0
144,139.82822197291668,140.48586630625002,62.0,105.0
145,140.48586630625002,141.14279955625003,60.0,108.0
146,141.14279955625003,142.89462155625003,55.0,105.0
147,142.89462155625003,143.11359930625002,52.0,111.0
148,143.11359930625002,143.33257705625002,55.0,100.0
149,143.33257705625002,143.9876854916667,59.0,102.0
150,143.98951030625003,144.64644355625,59.0,105.0
151,144.64644355625,145.08439905625002,60.0,94.0
152,145.08439905625002,146.83622105625003,57.0,89.0
153,146.83622105625003,147.49315430625,64.0,80.0
154,147.49315430625,148.15008755625,62.0,94.0
155,148.15008755625,149.9000847416667,57.0,111.0
156,149.90190955625002,150.12088730625,57.0,105.0
157,150.12088730625,150.33986505625,59.0,89.0
158,150.33986505625,150.7759957416667,60.0,97.0
159,150.77782055625002,150.99497349166668,60.0,84.0
160,150.99679830625,151.65373155625002,60.0,105.0
161,151.65373155625002,152.08986224166668,62.0,108.0
162,152.09168705625,154.2968534729167,62.0,82.0
163,154.2968534729167,154.7361907416667,64.0,102.0
164,154.73802897291668,155.3979539916667,64.0,102.0
165,155.3997922229167,155.62037997291668,64.0,94.0
166,155.62037997291668,156.0615554729167,65.0,87.0
167,156.0615554729167,156.5008927416667,64.0,105.0
168,156.50273097291668,156.9439064729167,64.0,97.0
169,156.9439064729167,157.1644942229167,62.0,100.0
170,157.1644942229167,157.38508197291668,62.0,100.0
171,157.38508197291668,157.8262574729167,62.0,108.0
172,157.8262574729167,158.7086084729167,60.0,100.0
173,158.7086084729167,159.14978397291668,59.0,105.0
174,159.14978397291668,160.48250162916668,60.0,97.0
175,160.4733104729167,160.6938982229167,62.0,114.0
176,160.6938982229167,160.91448597291668,64.0,80.0
177,160.91448597291668,161.3556614729167,65.0,102.0
178,161.3556614729167,161.79683697291668,64.0,102.0
179,161.79683697291668,162.01742472291667,60.0,108.0
180,162.01742472291667,162.67918797291668,57.0,111.0
181,162.67918797291668,163.1203634729167,65.0,111.0
182,163.1203634729167,163.56153897291668,64.0,108.0
183,163.56153897291668,164.0027144729167,65.0,92.0
184,164.0027144729167,164.44388997291668,64.0,100.0
185,164.44388997291668,166.20859197291668,60.0,111.0
186,166.20859197291668,168.4144694729167,62.0,102.0
187,168.4144694729167,168.8538067416667,64.0,108.0
188,168.85564497291668,169.29498224166667,64.0,105.0
189,169.2968204729167,169.73799597291668,64.0,105.0
190,169.73799597291668,170.1791714729167,65.0,108.0
191,170.1791714729167,170.6185087416667,64.0,105.0
192,170.62034697291668,171.94203524166667,64.0,100.0
193,171.9438734729167,172.3832107416667,64.0,114.0
194,172.38504897291668,172.8262244729167,64.0,114.0
195,172.8262244729167,173.26739997291668,69.0,117.0
196,173.26739997291668,173.77475179791668,64.0,117.0
197,173.7085754729167,173.9273249916667,62.0,87.0
198,173.92916322291669,174.58908824166667,62.0,100.0
199,174.5909264729167,174.81151422291668,62.0,108.0
200,174.81151422291668,175.03210197291668,64.0,114.0
201,175.03210197291668,175.4732774729167,65.0,111.0
202,175.4732774729167,175.91445297291668,64.0,111.0
203,175.91445297291668,176.13504072291667,60.0,108.0
204,176.13504072291667,176.79680397291668,57.0,120.0
205,176.79680397291668,177.2379794729167,65.0,117.0
206,177.2379794729167,177.67915497291668,64.0,108.0
207,177.67915497291668,178.1203304729167,65.0,111.0
208,178.1203304729167,180.7673834729167,67.0,108.0
209,180.7673834729167,181.20855897291668,55.0,120.0
210,181.20855897291668,181.6497344729167,60.0,114.0
211,181.6497344729167,182.0890717416667,67.0,111.0
212,182.09090997291668,184.2967874729167,67.0,114.0
213,184.2967874729167,184.73796297291668,55.0,117.0
214,184.73796297291668,185.17712900208335,60.0,114.0
215,185.17712900208335,185.61389801666667,67.0,114.0
216,185.61572550208334,186.49291850208334,67.0,111.0
217,186.49291850208334,186.93151500208336,65.0,114.0
218,186.93151500208336,187.15081325208334,64.0,111.0
219,187.15081325208334,188.02800625208334,65.0,100.0
220,188.02800625208334,188.24730450208335,57.0,108.0
221,188.24730450208335,188.68590100208334,60.0,117.0
222,188.68590100208334,189.1226700166667,69.0,114.0
223,189.12449750208336,191.31748000208336,69.0,111.0
224,191.31748000208336,191.75607650208335,65.0,108.0
225,191.75607650208335,192.19467300208333,67.0,111.0
226,192.19467300208333,192.63144201666668,69.0,108.0
227,192.63326950208335,193.29116425208335,69.0,111.0
228,193.29116425208335,193.94905900208335,67.0,108.0
229,193.94905900208335,194.82625200208335,65.0,100.0
230,194.82625200208335,195.26484850208334,55.0,120.0
231,195.26484850208334,195.70344500208336,60.0,114.0
232,195.70344500208336,196.14021401666668,67.0,111.0
233,196.14204150208334,198.33502400208334,67.0,114.0
234,198.33502400208334,198.77362050208336,55.0,117.0
235,198.77362050208336,199.21221700208335,60.0,114.0
236,199.21221700208335,199.64898601666667,67.0,114.0
237,199.65081350208334,200.08941000208335,67.0,111.0
238,200.08941000208335,200.52800650208334,65.0,114.0
239,200.52800650208334,200.96660300208336,65.0,114.0
240,200.96660300208336,201.18590125208334,64.0,111.0
241,201.18590125208334,202.72098900208334,65.0,100.0
242,202.72098900208334,202.94028725208335,62.0,111.0
243,202.94028725208335,203.15958550208336,64.0,108.0
244,203.15958550208336,203.81748025208336,65.0,105.0
245,203.81748025208336,204.47537500208335,64.0,111.0
246,204.47537500208335,205.79808481875,57.0,117.0
247,205.79808481875,206.6785975875,59.0,111.0
248,206.68043581875,207.12161131875,59.0,117.0
249,207.12161131875,208.88631331875,60.0,108.0
250,208.88631331875,209.32748881875,55.0,120.0
251,209.32748881875,209.76866431875,60.0,114.0
252,209.76866431875,210.2080015875,67.0,111.0
253,210.20983981875,212.41571731875,67.0,114.0
254,212.41571731875,212.85689281875,55.0,117.0
255,212.85689281875,213.29806831875,60.0,114.0
256,213.29806831875,213.7374055875,67.0,114.0
257,213.73924381875,214.62159481875,67.0,111.0
258,214.62159481875,215.06277031875,65.0,114.0
259,215.06277031875,215.28335806875,64.0,111.0
260,215.28335806875,216.16570906875,65.0,100.0
261,216.16570906875,216.38629681875,57.0,108.0
262,216.38629681875,216.82747231875,60.0,117.0
263,216.82747231875,217.2668095875,69.0,114.0
264,217.26864781875,219.47452531875,69.0,111.0
265,219.47452531875,219.91570081875,65.0,108.0
266,219.91570081875,220.35687631875,67.0,111.0
267,220.35687631875,220.7962135875,69.0,108.0
268,220.79805181875,221.45981506875,69.0,111.0
269,221.45981506875,222.12157831875,67.0,108.0
270,222.12157831875,223.00392931875,65.0,100.0
271,223.00392931875,223.44510481875,55.0,120.0
272,223.44510481875,223.88628031875,60.0,114.0
273,223.88628031875,224.3256175875,67.0,111.0
274,224.32745581875,226.53333331875,67.0,114.0
275,226.53333331875,226.97450881875,55.0,117.0
276,226.97450881875,227.41568431875,60.0,114.0
277,227.41568431875,227.8550215875,67.0,114.0
278,227.85685981875,228.29803531875,67.0,111.0
279,228.29803531875,228.73921081875,65.0,114.0
280,228.73921081875,229.18038631875,65.0,114.0
281,229.18038631875,229.40097406875,64.0,111.0
282,229.40097406875,230.94508831875,65.0,100.0
283,230.94508831875,231.16567606875,62.0,111.0
284,231.16567606875,231.38626381875,64.0,108.0
285,231.38626381875,232.04802706875,65.0,105.0
286,232.04802706875,232.70979031875,64.0,111.0
287,232.70979031875,234.03331681875,57.0,117.0
288,234.03331681875,234.9138295875,59.0,111.0
289,234.91566781875,235.35684331875,59.0,117.0
290,235.35684331875,238.542498075,60.0,108.0
