,start,end,pitch,velocity
0,5.0620356541666665,6.1642236625,52.0,82.0
1,5.4926918958333335,7.076630954166667,60.0,94.0
2,5.91239925,7.6532723625,67.0,92.0
3,7.34122906875,8.191592664583334,60.0,82.0
4,7.784659012500001,9.282831785416667,67.0,94.0
5,8.235388214583333,9.313853633333334,72.0,108.0
6,9.474437316666666,12.197060675,60.0,97.0
7,9.92516651875,12.447060272916668,69.0,87.0
8,9.01640885625,12.833920964583333,53.0,89.0
9,12.937935395833334,13.536474579166667,60.0,76.0
10,12.934285766666667,13.855817131250001,65.0,82.0
11,13.813846395833334,14.257276339583333,60.0,105.0
12,12.934285766666667,14.284648558333334,50.0,82.0
13,13.377715710416666,14.313845591666666,57.0,87.0
14,14.229904120833334,14.618589627083333,65.0,82.0
15,14.706180727083334,15.308369539583333,64.0,78.0
16,14.700706283333334,15.3612891625,67.0,80.0
17,15.598515058333334,16.41785680625,64.0,102.0
18,14.718954429166667,16.445229025,52.0,97.0
19,16.032820929166668,16.454353097916666,67.0,94.0
20,15.13683696875,16.459827541666666,59.0,82.0
21,16.401433475,17.094863016666668,53.0,55.0
22,16.509097535416668,18.417853589583334,57.0,82.0
23,17.35946113125,18.436101735416667,53.0,44.0
24,16.926980075,18.516393577083335,48.0,60.0
25,16.490849389583335,18.523692835416668,41.0,89.0
26,19.065662766666666,20.076610045833334,55.0,53.0
27,19.957997097916667,20.076610045833334,55.0,62.0
28,19.156903495833333,20.082084489583334,59.0,67.0
29,19.229896079166668,20.0912085625,62.0,40.0
30,19.178801270833333,20.114931152083333,43.0,100.0
31,20.023690422916665,20.717119964583333,60.0,82.0
32,20.071135602083334,20.749966627083335,64.0,80.0
33,20.903251052083334,21.166024352083333,60.0,89.0
34,20.439748147916667,21.25726508125,55.0,52.0
35,20.90690068125,21.33208247916667,64.0,92.0
36,21.390476545833334,22.005439060416666,55.0,82.0
37,21.385002102083334,22.470766779166667,59.0,94.0
38,21.385002102083334,22.496314183333332,62.0,80.0
39,22.207993479166667,22.73536489375,55.0,38.0
40,20.049237827083335,23.428794435416666,48.0,89.0
41,22.6751460125,23.454341839583332,59.0,87.0
42,23.056532260416667,23.4744148,55.0,24.0
43,22.68062045625,23.483538872916668,62.0,76.0
44,23.585728489583335,24.204340633333334,62.0,89.0
45,23.585728489583335,24.2079902625,55.0,73.0
46,24.461639489583334,24.7554346375,62.0,69.0
47,24.456165045833334,24.77003315416667,55.0,66.0
48,24.01638473125,24.812003889583334,50.0,50.0
49,23.58207886041667,24.886821287500002,43.0,100.0
50,24.923317579166667,25.46634977291667,55.0,82.0
51,24.899594989583335,25.95888687291667,60.0,87.0
52,24.905069433333335,25.986871935416666,64.0,73.0
53,26.16224499375,27.01299089375,64.0,71.0
54,26.171573347916667,27.022319247916666,60.0,62.0
55,25.69023027291667,27.02418491875,55.0,69.0
56,24.923317579166667,27.061498335416665,48.0,76.0
57,27.988736739583334,29.12440870416667,48.0,67.0
58,28.436497739583334,29.57477536041667,55.0,73.0
59,28.436497739583334,29.86337766666667,60.0,78.0
60,29.326614141666667,30.23102391666667,48.0,55.0
61,29.767789641666667,30.28984731666667,52.0,100.0
62,27.093214739583335,30.52146445416667,36.0,82.0
63,27.540975739583335,30.569258466666668,43.0,52.0
64,30.208965141666667,30.716316966666668,60.0,94.0
65,30.650140641666667,31.71080007291667,52.0,69.0
66,31.091316141666667,31.71080007291667,52.0,76.0
67,30.650140641666667,32.41484264166667,45.0,82.0
68,30.650140641666667,32.41484264166667,57.0,87.0
69,30.650140641666667,32.41484264166667,59.0,84.0
70,32.85601814166667,33.13542929166667,52.0,39.0
71,33.29719364166667,34.16851525416667,52.0,73.0
72,33.29719364166667,34.16851525416667,57.0,69.0
73,32.41484264166667,34.20895634166667,60.0,92.0
74,34.179544641666666,34.69792585416667,62.0,67.0
75,34.179544641666666,35.10785142291667,65.0,78.0
76,34.620720141666666,37.03247954166667,57.0,78.0
77,35.061895641666666,37.067405935416666,62.0,71.0
78,34.179544641666666,37.13725872291667,50.0,94.0
79,35.503071141666666,37.33578769791667,65.0,84.0
80,35.503071141666666,37.41299341041667,69.0,94.0
81,37.267773141666666,37.67034578541667,62.0,84.0
82,37.708948641666666,38.04718319166667,62.0,51.0
83,37.708948641666666,38.07291842916667,67.0,80.0
84,38.591299641666666,39.293503979166665,55.0,97.0
85,39.032475141666666,39.339459760416666,62.0,80.0
86,38.150124141666666,39.800855804166666,50.0,60.0
87,39.473650641666666,40.223648991666664,67.0,84.0
88,39.473650641666666,40.22548722291667,55.0,94.0
89,39.473650641666666,40.23835484166667,62.0,97.0
90,39.914826141666666,40.56188354166667,50.0,82.0
91,40.356001641666666,41.017764891666666,65.0,89.0
92,40.356001641666666,41.197911554166666,55.0,92.0
93,40.356001641666666,41.22732325416667,62.0,92.0
94,40.797177141666666,41.273279035416664,50.0,71.0
95,37.708948641666666,41.27511726666667,43.0,78.0
96,41.238352641666665,41.49019032291667,55.0,71.0
97,41.238352641666665,41.80452786666667,60.0,73.0
98,41.238352641666665,41.933204054166666,64.0,89.0
99,42.120703641666665,42.429526491666664,62.0,80.0
100,41.679528141666665,42.955260629166666,55.0,58.0
101,42.561879141666665,42.955260629166666,55.0,84.0
102,42.561879141666665,43.479156535416664,67.0,94.0
103,42.561879141666665,43.48834769166667,60.0,87.0
104,42.561879141666665,43.604156260416666,64.0,94.0
105,43.444230141666665,44.113346316666664,55.0,23.0
106,43.885405641666665,44.113346316666664,55.0,87.0
107,43.885405641666665,44.12621393541667,60.0,80.0
108,41.238352641666665,44.20893434166667,48.0,87.0
109,43.885405641666665,44.22731665416667,64.0,89.0
110,44.767756641666665,45.33944656041667,60.0,80.0
111,44.767756641666665,45.690548729166665,57.0,67.0
112,45.650107641666665,46.10598899166666,59.0,76.0
113,45.208932141666665,46.55635564791667,52.0,43.0
114,46.532458641666665,46.55635564791667,52.0,69.0
115,46.091283141666665,46.97179591041667,60.0,73.0
116,46.973634141666665,47.15745726666667,57.0,47.0
117,46.973634141666665,47.58576514791667,52.0,44.0
118,47.414809641666665,47.97179371041667,57.0,84.0
119,47.414809641666665,48.01958772291667,60.0,89.0
120,47.414809641666665,48.061867041666666,64.0,100.0
121,44.767756641666665,48.18502853541666,45.0,89.0
122,47.855985141666665,48.20524907916666,52.0,46.0
123,48.297160641666665,48.88915142291667,57.0,80.0
124,48.297160641666665,49.34204933958333,62.0,71.0
125,49.16813653958334,49.39639708958333,57.0,67.0
126,49.602918539583335,50.40364205625,57.0,92.0
127,49.602918539583335,50.48154049791667,65.0,92.0
128,48.297160641666665,50.97610502291667,50.0,89.0
129,48.73335453958333,51.05400346458333,53.0,47.0
130,50.90726453958334,51.11197439791667,57.0,97.0
131,50.90726453958334,51.36559723125,62.0,84.0
132,51.342046539583336,51.43806089791667,57.0,51.0
133,51.776828539583335,52.38914652291667,55.0,78.0
134,51.776828539583335,52.758711222916666,62.0,80.0
135,52.64639253958333,53.21523232291667,55.0,97.0
136,53.08117453958334,53.37465238958333,62.0,67.0
137,52.21161053958333,53.78044892291667,50.0,76.0
138,53.515956539583335,54.13370929791667,67.0,97.0
139,53.515956539583335,54.19892659791667,55.0,94.0
140,53.515956539583335,54.204361372916665,62.0,92.0
141,54.38552053958333,55.017766031250005,62.0,82.0
142,54.38552053958333,55.169939731250004,55.0,78.0
143,54.82030253958334,55.20979474791667,60.0,89.0
144,53.950738539583334,55.244214989583334,50.0,60.0
145,51.776828539583335,55.28588159791667,43.0,94.0
146,55.255084539583336,55.78497475208333,52.0,80.0
147,55.255084539583336,56.18203270208333,59.0,87.0
148,56.13607692083333,56.39342929583333,52.0,97.0
149,55.69490142083333,56.91364873958333,47.0,67.0
150,56.57725242083333,57.50923566458333,56.0,90.0
151,56.57725242083333,57.571735527083334,52.0,94.0
152,57.90077892083333,58.185704764583335,52.0,92.0
153,57.90077892083333,58.279454558333335,59.0,82.0
154,57.45960342083333,58.43018952083333,47.0,38.0
155,55.255084539583336,58.49085115208333,40.0,100.0
156,58.78312992083333,59.367687458333336,52.0,80.0
157,58.78312992083333,59.762907177083335,57.0,87.0
158,59.66548092083333,59.85481873958333,52.0,78.0
159,60.10665642083333,60.80702252708333,52.0,111.0
160,60.10665642083333,61.29047734583333,60.0,105.0
161,61.43018292083333,61.63790305208333,52.0,89.0
162,59.22430542083333,61.82356440833333,48.0,76.0
163,61.43018292083333,61.841946720833334,59.0,92.0
164,58.78312992083333,61.86032903333333,45.0,89.0
165,62.31253392083333,62.924664927083334,53.0,89.0
166,62.31253392083333,63.058855808333334,50.0,64.0
167,63.19488492083333,63.36032573333333,57.0,78.0
168,63.63606042083333,64.51105849583334,50.0,94.0
169,63.63606042083333,64.72061685833333,60.0,102.0
170,64.95958692083333,65.27760092708333,50.0,100.0
171,62.75370942083333,65.29046854583333,45.0,73.0
172,62.31253392083333,65.30701262708334,38.0,97.0
173,64.95958692083333,65.30701262708334,57.0,97.0
174,65.84193792083333,66.42281899583332,50.0,82.0
175,65.84193792083333,66.85112687708333,55.0,84.0
176,65.84193792083333,66.85664157083333,59.0,89.0
177,66.72428892083333,66.91914143333334,50.0,47.0
178,67.16546442083333,67.61583107708333,50.0,97.0
179,67.16546442083333,68.05149188333333,55.0,92.0
180,67.16546442083333,68.13605052083334,59.0,94.0
181,68.04781542083333,68.41913813333333,50.0,97.0
182,68.48899092083333,68.76840207083333,50.0,100.0
183,68.48899092083333,69.31068028958333,55.0,105.0
184,68.93016642083333,69.32906260208333,50.0,105.0
185,65.84193792083333,69.42281239583333,43.0,84.0
186,69.37134192083333,70.50001590833332,50.0,92.0
187,70.25369292083333,70.56067753958334,56.0,93.0
188,70.69486842083333,71.22244078958333,50.0,89.0
189,69.81251742083333,71.31802881458333,47.0,78.0
190,70.69486842083333,71.39891098958333,59.0,94.0
191,72.01839492083333,72.30148253333333,52.0,100.0
192,72.01839492083333,72.30332076458333,56.0,99.0
193,71.57721942083333,72.37133532083334,44.0,29.0
194,72.01839492083333,72.37317355208333,59.0,100.0
195,69.37134192083333,72.55148198333333,40.0,102.0
196,72.90074592083333,73.17648060833334,52.0,94.0
197,72.90074592083333,73.61949433958333,60.0,94.0
198,73.34192142083333,73.90258195208332,52.0,55.0
199,72.90074592083333,74.50736003333333,45.0,97.0
200,74.22427242083333,74.75184478958333,52.0,92.0
201,74.22427242083333,74.80331526458333,59.0,89.0
202,75.10662342083333,75.34926994583333,52.0,89.0
203,74.66544792083333,75.81801891458333,45.0,71.0
204,75.54779892083333,76.00368027083333,52.0,105.0
205,75.54779892083333,76.02757727708334,57.0,100.0
206,76.43014992083333,77.01286922708333,53.0,84.0
207,76.43014992083333,77.16360418958334,50.0,82.0
208,77.09191317083334,77.44669180208334,57.0,67.0
209,76.87132542083333,78.00735233333333,45.0,64.0
210,77.75367642083333,78.63786565208333,57.0,92.0
211,77.75367642083333,78.65992442708333,50.0,100.0
212,76.43014992083333,79.12315870208333,38.0,94.0
213,78.41543967083334,79.19484972083333,45.0,36.0
214,79.07720292083333,79.29595243958333,53.0,87.0
215,79.07720292083333,79.32352590833332,50.0,87.0
216,79.07720292083333,79.37131992083333,57.0,97.0
217,79.95955392083333,80.21506806458333,50.0,89.0
218,79.95955392083333,80.23528860833333,55.0,89.0
219,79.95955392083333,80.39705295833333,59.0,94.0
220,80.40072942083333,80.63176048749999,50.0,84.0
221,80.83828193749999,80.9415426625,55.0,76.0
222,80.83828193749999,80.97052812916665,50.0,84.0
223,80.83828193749999,80.9795860875,59.0,87.0
224,79.95955392083333,81.03031065416666,43.0,78.0
225,81.2730639375,81.42886082083332,55.0,80.0
226,81.2730639375,81.43248400416665,50.0,82.0
227,81.2730639375,81.43610718749999,43.0,82.0
228,81.2730639375,81.46328106249999,59.0,87.0
229,81.7078459375,82.05567153749999,50.0,92.0
230,81.7078459375,82.05929472083332,55.0,87.0
231,81.7078459375,82.07016427083333,59.0,92.0
232,81.7078459375,82.15168589583332,43.0,105.0
233,83.44697393749999,84.01176390416666,64.0,89.0
234,83.44697393749999,84.39411600416666,67.0,97.0
235,84.32793967916666,84.57793912916667,64.0,94.0
236,83.88676417916666,85.21396714166666,59.0,87.0
237,83.44697393749999,85.39962849791667,52.0,102.0
238,84.76911517916666,85.85734807916666,64.0,102.0
239,85.65146617916666,85.91984794166666,52.0,64.0
240,84.76911517916666,85.93823025416665,71.0,89.0
241,86.09264167916666,86.37021459791666,64.0,76.0
242,86.09264167916666,86.55403772291666,59.0,87.0
243,86.09264167916666,86.57793472916666,52.0,97.0
244,86.09264167916666,86.57793472916666,67.0,87.0
245,86.53381717916666,86.68455214166666,64.0,76.0
246,86.97499267916666,87.49888858541667,62.0,89.0
247,86.97499267916666,87.90697592291666,65.0,89.0
248,87.85734367916666,88.08896081666666,60.0,94.0
249,88.29851917916666,88.48234230416666,60.0,35.0
250,87.41616817916666,88.73417998541666,57.0,66.0
251,88.29851917916666,89.40145792916665,69.0,92.0
252,88.29851917916666,89.41248731666666,65.0,92.0
253,86.97499267916666,89.80770703541666,50.0,97.0
254,89.62204567916666,89.88675097916666,60.0,87.0
255,89.62204567916666,89.89594213541666,65.0,94.0
256,89.62204567916666,89.94925084166665,69.0,94.0
257,89.18087017916666,90.00255954791666,57.0,71.0
258,90.06322117916666,90.19925029166666,50.0,49.0
259,90.50439667916666,90.88491054791666,43.0,100.0
260,90.50439667916666,91.88490834791666,67.0,94.0
261,90.50439667916666,91.90696712291665,62.0,87.0
262,91.38674767916666,92.52461282291665,55.0,62.0
263,91.82792317916666,92.57424506666666,59.0,78.0
264,92.26909867916666,92.98600886666665,67.0,105.0
265,92.26909867916666,93.00255294791666,62.0,108.0
266,92.26909867916666,93.04850872916666,71.0,105.0
267,93.15144967916666,93.36100804166666,62.0,105.0
268,92.71027417916666,93.56505171041665,50.0,44.0
269,93.15144967916666,93.58343402291666,67.0,114.0
270,93.59262517916666,93.79483061666666,62.0,94.0
271,94.03380067916666,94.60916706041667,60.0,92.0
272,94.03380067916666,94.60916706041667,64.0,89.0
273,94.47497617916666,95.04115140416665,55.0,64.0
274,94.91615167916666,95.62019424791666,64.0,97.0
275,94.91615167916666,95.65328241041667,67.0,100.0
276,94.91615167916666,95.67166472291666,60.0,97.0
277,95.79850267916666,96.01541396666666,60.0,92.0
278,95.79850267916666,96.22681056041665,72.0,100.0
279,95.79850267916666,96.51725109791666,64.0,102.0
280,95.79850267916666,96.54482456666666,67.0,102.0
281,96.23967817916666,96.54666279791665,60.0,92.0
282,94.03380067916666,96.55401572291666,48.0,102.0
283,96.68085367916666,96.97129421666666,59.0,67.0
284,96.68085367916666,97.32239638541665,64.0,82.0
285,96.68085367916666,97.32239638541665,67.0,80.0
286,96.68085367916666,97.37019039791666,47.0,102.0
287,97.12202917916666,97.37202862916666,59.0,46.0
288,95.35732717916666,97.50989597291667,55.0,62.0
289,97.56320467916666,98.04849772916666,60.0,76.0
290,97.56320467916666,98.31320302916666,67.0,89.0
291,98.44555567916666,98.48783499791666,67.0,20.0
292,97.56320467916666,98.83342247291665,48.0,102.0
293,98.00438017916666,98.90327526041666,55.0,69.0
294,98.44555567916666,98.93452519166667,60.0,114.0
295,98.88673117916666,99.00989267291666,64.0,67.0
296,99.32790667916666,99.89959659791666,67.0,94.0
297,99.32790667916666,99.91614067916666,64.0,78.0
298,99.76908217916666,100.44003658541666,59.0,73.0
299,100.21025767916666,100.47496297916666,64.0,92.0
300,99.32790667916666,100.48783059791666,52.0,102.0
301,100.21025767916666,100.59260977916665,67.0,105.0
302,100.21025767916666,100.65327141041666,71.0,97.0
303,101.09260867916666,101.59628404166666,60.0,89.0
304,101.09260867916666,101.73415138541665,65.0,92.0
305,101.53378417916666,102.21760620416666,57.0,55.0
306,101.97495967916666,102.34995885416666,60.0,89.0
307,101.97495967916666,102.69072436458332,65.0,89.0
308,101.97495967916666,102.71246346458332,69.0,94.0
309,102.41613517916666,103.10920203958332,57.0,60.0
310,102.85376761458332,103.54217244791666,65.0,97.0
311,102.85376761458332,103.55485358958332,60.0,105.0
312,103.50594061458332,103.90267918958332,57.0,15.0
313,103.72333161458332,103.92441828958333,60.0,114.0
314,103.72333161458332,104.37731620624999,69.0,105.0
315,103.94072261458332,104.41717122291665,57.0,84.0
316,104.15811361458333,104.42622918125,60.0,89.0
317,101.09260867916666,104.50775080624999,50.0,97.0
318,104.59393455833333,105.18216855833333,62.0,94.0
319,104.59393455833333,105.22077141458333,67.0,92.0
320,105.47628555833333,105.71341738958333,62.0,102.0
321,105.91746105833333,106.21709275208333,62.0,69.0
322,105.47628555833333,106.26121030208333,71.0,102.0
323,106.35863655833333,106.98547341458332,67.0,84.0
324,106.35863655833333,107.04613504583332,62.0,84.0
325,107.24098755833333,107.47444292708333,62.0,100.0
326,107.24098755833333,107.75753053958333,67.0,97.0
327,105.03511005833333,107.76488346458333,59.0,58.0
328,104.59393455833333,107.77039815833332,55.0,100.0
329,107.68216305833333,107.88988318958333,62.0,60.0
330,107.24098755833333,107.92480958333333,71.0,100.0
331,108.12333855833333,108.50752888958333,60.0,78.0
332,108.12333855833333,108.53142589583332,65.0,92.0
333,108.56451405833333,108.90091037708333,55.0,47.0
334,108.78510180833332,109.02039540833333,64.0,76.0
335,108.78510180833332,109.03326302708332,60.0,76.0
336,108.12333855833333,109.25568900833333,48.0,102.0
337,109.00568955833333,109.28142424583334,55.0,50.0
338,109.44686505833333,111.60311031458333,60.0,82.0
339,109.44686505833333,111.60862500833333,64.0,92.0
340,109.44686505833333,111.66928663958333,48.0,89.0
341,111.65274255833333,112.70972552708332,64.0,78.0
342,111.65274255833333,112.72810783958333,67.0,80.0
343,111.65274255833333,113.05163653958333,72.0,84.0
344,112.53509355833333,113.31082714583333,59.0,41.0
345,112.97626905833333,113.68398808958332,64.0,73.0
346,113.41744455833333,114.36781011458334,59.0,12.0
347,111.65274255833333,114.44317759583333,52.0,82.0
348,114.29979555833333,114.51303038333333,64.0,94.0
349,114.29979555833333,114.79427976458332,67.0,97.0
350,114.74097105833333,114.86780901458333,64.0,60.0
351,115.18214655833333,115.75383647708333,60.0,60.0
352,115.18214655833333,116.11045333958333,65.0,73.0
353,116.06449755833333,116.36780571458333,60.0,47.0
354,116.50567305833333,116.97626025833333,60.0,89.0
355,116.50567305833333,117.51302378333332,72.0,84.0
356,117.38802405833333,117.54059725208333,60.0,28.0
357,117.82554993541666,118.14801325208333,60.0,92.0
358,115.18214655833333,118.18424508541666,53.0,55.0
359,115.62332205833333,118.29475217708334,57.0,46.0
360,117.82554993541666,118.32011446041666,69.0,92.0
361,118.69511393541667,119.22409870208334,62.0,80.0
362,118.69511393541667,119.57373589375,65.0,87.0
363,118.69511393541667,119.95235855208334,50.0,97.0
364,119.56467793541667,120.07373519375,62.0,87.0
365,119.12989593541667,120.12445976041667,57.0,53.0
366,119.99945993541667,120.35090871875,65.0,97.0
367,120.43424193541667,121.02482081875,64.0,92.0
368,120.43424193541667,121.36540005208333,67.0,92.0
369,121.30380593541666,121.80987926041668,64.0,108.0
370,120.43424193541667,122.03598170416667,52.0,100.0
371,121.74002647291667,122.06355517291668,67.0,78.0
372,120.86902393541666,122.13708442291667,59.0,73.0
373,122.18120197291667,122.72164196041668,62.0,84.0
374,122.18120197291667,123.14627337916667,67.0,92.0
375,122.18120197291667,123.80436016666667,43.0,100.0
376,123.06355297291667,123.81355132291668,62.0,78.0
377,123.50472847291667,123.81355132291668,67.0,78.0
378,122.62237747291667,123.81722778541668,50.0,50.0
379,123.94590397291667,125.71795889791667,62.0,76.0
380,123.94590397291667,125.73450297916668,43.0,69.0
381,123.94590397291667,125.73450297916668,71.0,92.0
382,123.94590397291667,125.73634121041667,67.0,84.0
383,126.59295697291667,127.71427803541667,48.0,67.0
384,127.03413247291667,128.16464469166667,55.0,73.0
385,127.03413247291667,128.45324699791666,60.0,78.0
386,127.91648347291667,128.82089324791667,48.0,55.0
387,128.35765897291668,128.87971664791667,52.0,100.0
388,125.71060597291667,129.11133378541666,36.0,82.0
389,126.15178147291667,129.15912779791668,43.0,52.0
390,128.79883447291667,129.30618629791667,60.0,94.0
391,129.24000997291668,130.30066940416668,52.0,69.0
392,129.68118547291667,130.30066940416668,52.0,76.0
393,129.24000997291668,131.00471197291668,45.0,82.0
394,129.24000997291668,131.00471197291668,57.0,87.0
395,129.24000997291668,131.00471197291668,59.0,84.0
396,131.44588747291667,131.72529862291668,52.0,39.0
397,131.88706297291668,132.75838458541668,52.0,73.0
398,131.88706297291668,132.75838458541668,57.0,69.0
399,131.00471197291668,132.79882567291668,60.0,92.0
400,132.76941397291668,133.28779518541668,62.0,67.0
401,132.76941397291668,133.69772075416668,65.0,78.0
402,133.21058947291667,135.62234887291666,57.0,78.0
403,133.65176497291668,135.65727526666666,62.0,71.0
404,132.76941397291668,135.72712805416668,50.0,94.0
405,134.09294047291667,135.92565702916667,65.0,84.0
406,134.09294047291667,136.00286274166666,69.0,94.0
407,135.85764247291667,136.26021511666667,62.0,84.0
408,136.29881797291668,136.63705252291666,62.0,51.0
409,136.29881797291668,136.66278776041668,67.0,80.0
410,137.18116897291668,137.8833733104167,55.0,97.0
411,137.62234447291667,137.92932909166666,62.0,80.0
412,136.73999347291667,138.3907251354167,50.0,60.0
413,138.06351997291668,138.81351832291668,67.0,84.0
414,138.06351997291668,138.81535655416667,55.0,94.0
415,138.06351997291668,138.82822417291666,62.0,97.0
416,138.50469547291667,139.1517528729167,50.0,82.0
417,138.94587097291668,139.60763422291666,65.0,89.0
418,138.94587097291668,139.78778088541668,55.0,92.0
419,138.94587097291668,139.81719258541668,62.0,92.0
420,139.38704647291667,139.86314836666668,50.0,71.0
421,136.29881797291668,139.86498659791667,43.0,78.0
422,139.82822197291668,140.0789326541667,55.0,71.0
423,139.82822197291668,140.39097594791667,60.0,73.0
424,139.82822197291668,140.51871296875,64.0,89.0
425,140.70484405625,141.01141290625003,62.0,80.0
426,140.26688855625002,141.53330987708335,55.0,58.0
427,141.14279955625003,141.53330987708335,55.0,84.0
428,141.14279955625003,142.05338203333335,67.0,94.0
429,141.14279955625003,142.06250610625003,60.0,87.0
430,141.14279955625003,142.17746942500003,64.0,94.0
431,142.01871055625003,142.68294306458336,55.0,23.0
432,142.45666605625001,142.68294306458336,55.0,87.0
433,142.45666605625001,142.6957167666667,60.0,80.0
434,139.82822197291668,142.77783342291667,48.0,87.0
435,142.45666605625001,142.79608156875003,64.0,89.0
436,143.33257705625002,143.90009439166667,60.0,80.0
437,143.33257705625002,144.24863397708336,57.0,67.0
438,144.20848805625002,144.66104207291667,59.0,76.0
439,143.77053255625,145.10812164583334,52.0,43.0
440,145.08439905625002,145.10812164583334,52.0,69.0
441,144.64644355625,145.52052974166668,60.0,73.0
442,145.52235455625,145.70483601458335,57.0,47.0
443,145.52235455625,146.13001781250003,52.0,44.0
444,145.96031005625002,146.513228875,57.0,84.0
445,145.96031005625002,146.5606740541667,60.0,89.0
446,145.96031005625002,146.60264478958334,64.0,100.0
447,143.33257705625002,146.72490736666668,45.0,89.0
448,146.39826555625,146.74498032708334,52.0,46.0
449,146.83622105625003,147.43111061041668,57.0,80.0
450,146.83622105625003,147.88731425625002,62.0,71.0
451,147.71213205625003,147.94205869375003,57.0,67.0
452,148.15008755625,148.95665560208334,57.0,92.0
453,148.15008755625,149.0351226291667,65.0,92.0
454,146.83622105625003,149.53329701041667,50.0,89.0
455,147.27417655625,149.61176403750002,53.0,47.0
456,149.46395405625,149.6701581041667,57.0,97.0
457,149.46395405625,149.92563214583336,62.0,84.0
458,149.90190955625002,149.9986247291667,57.0,51.0
459,150.33986505625,150.95665238541667,55.0,78.0
460,150.33986505625,151.32891456041668,62.0,80.0
461,151.21577605625,151.78876783541668,55.0,97.0
462,151.65373155625002,151.94935151875,62.0,67.0
463,150.77782055625002,152.3593577354167,50.0,76.0
464,152.09168705625,152.7178128291667,67.0,97.0
465,152.09168705625,152.78398915416668,55.0,94.0
466,152.09168705625,152.78950384791668,62.0,92.0
467,152.97332697291668,153.61486967916667,62.0,82.0
468,152.97332697291668,153.76928110416668,55.0,78.0
469,153.4145024729167,153.80972219166668,60.0,89.0
470,152.5321514729167,153.84464858541668,50.0,60.0
471,150.33986505625,153.8869279041667,43.0,94.0
472,153.85567797291668,154.38692680416668,52.0,80.0
473,153.85567797291668,154.78398475416668,59.0,87.0
474,154.73802897291668,154.9953813479167,52.0,97.0
475,154.2968534729167,155.51560079166669,47.0,67.0
476,155.1792044729167,156.11118771666668,56.0,90.0
477,155.1792044729167,156.17368757916668,52.0,94.0
478,156.50273097291668,156.7876568166667,52.0,92.0
479,156.50273097291668,156.8814066104167,59.0,82.0
480,156.0615554729167,157.0321415729167,47.0,38.0
481,153.85567797291668,157.09280320416667,40.0,100.0
482,157.38508197291668,157.9696395104167,52.0,80.0
483,157.38508197291668,158.36485922916668,57.0,87.0
484,158.26743297291668,158.45677079166668,52.0,78.0
485,158.7086084729167,159.40897457916668,52.0,111.0
486,158.7086084729167,159.8924293979167,60.0,105.0
487,160.03213497291668,160.23985510416668,52.0,89.0
488,157.8262574729167,160.42551646041667,48.0,76.0
489,160.03213497291668,160.4438987729167,59.0,92.0
490,157.38508197291668,160.4622810854167,45.0,89.0
491,160.91448597291668,161.52661697916668,53.0,89.0
492,160.91448597291668,161.6608078604167,50.0,64.0
493,161.79683697291668,161.9622777854167,57.0,78.0
494,162.2380124729167,163.11301054791667,50.0,94.0
495,162.2380124729167,163.3225689104167,60.0,102.0
496,163.56153897291668,163.87955297916668,50.0,100.0
497,161.3556614729167,163.89242059791667,45.0,73.0
498,160.91448597291668,163.90896467916667,38.0,97.0
499,163.56153897291668,163.90896467916667,57.0,97.0
500,164.44388997291668,165.0247710479167,50.0,82.0
501,164.44388997291668,165.45307892916668,55.0,84.0
502,164.44388997291668,165.45859362291668,59.0,89.0
503,165.32624097291668,165.52109348541669,50.0,47.0
504,165.7674164729167,166.2177831291667,50.0,97.0
505,165.7674164729167,166.65344393541668,55.0,92.0
506,165.7674164729167,166.73800257291668,59.0,94.0
507,166.6497674729167,167.02109018541668,50.0,97.0
508,167.09094297291668,167.3703541229167,50.0,100.0
509,167.09094297291668,167.9126323416667,55.0,105.0
510,167.5321184729167,167.9310146541667,50.0,105.0
511,164.44388997291668,168.02476444791668,43.0,84.0
512,167.97329397291668,169.1019679604167,50.0,92.0
513,168.85564497291668,169.16262959166667,56.0,93.0
514,169.2968204729167,169.82439284166668,50.0,89.0
515,168.4144694729167,169.9199808666667,47.0,78.0
516,169.2968204729167,170.0008630416667,59.0,94.0
517,170.62034697291668,170.90343458541668,52.0,100.0
518,170.62034697291668,170.9052728166667,56.0,99.0
519,170.1791714729167,170.97328737291667,44.0,29.0
520,170.62034697291668,170.9751256041667,59.0,100.0
521,167.97329397291668,171.1534340354167,40.0,102.0
522,171.50269797291668,171.77843266041668,52.0,94.0
523,171.50269797291668,172.2214463916667,60.0,94.0
524,171.9438734729167,172.5045340041667,52.0,55.0
525,171.50269797291668,173.1093120854167,45.0,97.0
526,172.8262244729167,173.35379684166668,52.0,92.0
527,172.8262244729167,173.40526731666668,59.0,89.0
528,173.7085754729167,173.9512219979167,52.0,89.0
529,173.26739997291668,174.41997096666668,45.0,71.0
530,174.14975097291668,174.60563232291668,52.0,105.0
531,174.14975097291668,174.62952932916667,57.0,100.0
532,175.03210197291668,175.61482127916668,53.0,84.0
533,175.03210197291668,175.76555624166667,50.0,82.0
534,175.69386522291668,176.0486438541667,57.0,67.0
535,175.4732774729167,176.6093043854167,45.0,64.0
536,176.3556284729167,177.23981770416668,57.0,92.0
537,176.3556284729167,177.2618764791667,50.0,100.0
538,175.03210197291668,177.72511075416668,38.0,94.0
539,177.01739172291667,177.7968017729167,45.0,36.0
540,177.67915497291668,177.89790449166668,53.0,87.0
541,177.67915497291668,177.92547796041669,50.0,87.0
542,177.67915497291668,177.97327197291668,57.0,97.0
543,178.56150597291668,178.8170201166667,50.0,89.0
544,178.56150597291668,178.83724066041668,55.0,89.0
545,178.56150597291668,178.99900501041668,59.0,94.0
546,179.0026814729167,179.2342986104167,50.0,84.0
547,179.44385697291668,179.54863615416667,55.0,76.0
548,179.44385697291668,179.5780478541667,50.0,84.0
549,179.44385697291668,179.58723901041668,59.0,87.0
550,178.56150597291668,179.63870948541668,43.0,78.0
551,179.8850324729167,180.04312036041668,55.0,80.0
552,179.8850324729167,180.0467968229167,50.0,82.0
553,179.8850324729167,180.05047328541667,43.0,82.0
554,179.8850324729167,180.07804675416668,59.0,87.0
555,180.32620797291668,180.67914837291667,50.0,92.0
556,180.32620797291668,180.68282483541668,55.0,87.0
557,180.32620797291668,180.69385422291668,59.0,92.0
558,180.32620797291668,180.77657462916667,43.0,105.0
559,182.09090997291668,182.65708519791667,64.0,89.0
560,182.09090997291668,183.0394372979167,67.0,97.0
561,182.97326097291668,183.22326042291667,64.0,94.0
562,182.5320854729167,183.8592884354167,59.0,87.0
563,182.09090997291668,184.04494979166668,52.0,102.0
564,183.4144364729167,184.50266937291667,64.0,102.0
565,184.2967874729167,184.56516923541668,52.0,64.0
566,183.4144364729167,184.58355154791667,71.0,89.0
567,184.73796297291668,185.01448280000002,64.0,76.0
568,184.73796297291668,185.19723134166668,59.0,87.0
569,184.73796297291668,185.22098865208335,52.0,97.0
570,184.73796297291668,185.22098865208335,67.0,87.0
571,185.17712900208335,185.32698280625002,64.0,76.0
572,185.61572550208334,186.13655884583335,62.0,89.0
573,185.61572550208334,186.54226060833335,65.0,89.0
574,186.49291850208334,186.72318166458334,60.0,94.0
575,186.93151500208336,187.11426354375,60.0,35.0
576,186.05432200208335,187.36462904583334,57.0,66.0
577,186.93151500208336,188.02800625208334,69.0,92.0
578,186.93151500208336,188.03897116458336,65.0,92.0
579,185.61572550208334,188.43188052916668,50.0,97.0
580,188.24730450208335,188.51046240208333,60.0,87.0
581,188.24730450208335,188.51959982916668,65.0,94.0
582,188.24730450208335,188.57259690625003,69.0,94.0
583,187.80870800208334,188.62559398333335,57.0,71.0
584,188.68590100208334,188.82113492291668,50.0,49.0
585,189.12449750208336,189.50278698333335,43.0,100.0
586,189.12449750208336,190.49693905,67.0,94.0
587,189.12449750208336,190.518868875,62.0,87.0
588,190.00169050208333,191.132903975,55.0,62.0
589,190.44028700208335,191.18224608125,59.0,78.0
590,190.87888350208334,191.59160281458335,67.0,105.0
591,190.87888350208334,191.60805018333335,62.0,108.0
592,190.87888350208334,191.65373731875002,71.0,105.0
593,191.75607650208335,191.96440983958334,62.0,105.0
594,191.31748000208336,192.16726072083335,50.0,44.0
595,191.75607650208335,192.18553557500002,67.0,114.0
596,192.19467300208333,192.39569639791668,62.0,94.0
597,192.63326950208335,193.2052724375,60.0,92.0
598,192.63326950208335,193.2052724375,64.0,89.0
599,193.07186600208334,193.63473151041669,55.0,64.0
600,193.51046250208336,194.2103894166667,64.0,97.0
601,193.51046250208336,194.24328415416667,67.0,100.0
602,193.51046250208336,194.26155900833334,60.0,97.0
603,194.38765550208336,194.60329878125,60.0,92.0
604,194.38765550208336,194.81345960416667,72.0,100.0
605,194.38765550208336,195.10220230000002,64.0,102.0
606,194.38765550208336,195.12961458125002,67.0,102.0
607,194.82625200208335,195.1314420666667,60.0,92.0
608,192.63326950208335,195.13875200833334,48.0,102.0
609,195.26484850208334,195.5535911979167,59.0,67.0
610,195.26484850208334,195.9026409125,64.0,82.0
611,195.26484850208334,195.9026409125,67.0,80.0
612,195.26484850208334,195.95015553333334,47.0,102.0
613,195.70344500208336,195.95198301875,59.0,46.0
614,193.94905900208335,196.08904442500003,55.0,62.0
615,196.14204150208334,196.62449765208333,60.0,76.0
616,196.14204150208334,196.88765555208334,67.0,89.0
617,197.01923450208335,197.06126666666668,67.0,20.0
618,196.14204150208334,197.40483392500002,48.0,102.0
619,196.58063800208333,197.47427837083336,55.0,69.0
620,197.01923450208335,197.50534562291668,60.0,114.0
621,197.45783100208334,197.58027252500003,64.0,67.0
622,197.89642750208336,198.46477546666668,67.0,94.0
623,197.89642750208336,198.48122283541667,64.0,78.0
624,198.33502400208334,199.0020561791667,59.0,73.0
625,198.77362050208336,199.03677840208334,64.0,92.0
626,197.89642750208336,199.04957080000003,52.0,102.0
627,198.77362050208336,199.15373746875002,67.0,105.0
628,198.77362050208336,199.21404448750002,71.0,97.0
629,199.65081350208334,200.15154450625002,60.0,89.0
630,199.65081350208334,200.2886059125,65.0,92.0
631,200.08941000208335,200.76923457708335,57.0,55.0
632,200.52800650208334,200.90081352708336,60.0,89.0
633,200.52800650208334,201.24072581458336,65.0,89.0
634,200.52800650208334,201.26265563958336,69.0,94.0
635,200.96660300208336,201.66287494583335,57.0,60.0
636,201.40519950208335,202.09964396041667,65.0,97.0
637,201.40519950208335,202.11243635833335,60.0,105.0
638,202.06309425208335,202.46331355833334,57.0,15.0
639,202.28239250208335,202.48524338333334,60.0,114.0
640,202.28239250208335,202.94211473750002,69.0,105.0
641,202.50169075208333,202.98231941666668,57.0,84.0
642,202.72098900208334,202.99145684375003,60.0,89.0
643,199.65081350208334,203.07369368750003,50.0,97.0
644,203.15958550208336,203.74438083541668,62.0,94.0
645,203.15958550208336,203.78275802916667,67.0,92.0
646,204.03677850208334,204.27252412083334,62.0,102.0
647,204.47537500208335,204.77419001250001,62.0,69.0
648,204.03677850208334,204.8183075625,71.0,102.0
649,204.91573381875,205.542570675,67.0,84.0
650,204.91573381875,205.60323230625,62.0,84.0
651,205.79808481875,206.0315401875,62.0,100.0
652,205.79808481875,206.3146278,67.0,97.0
653,203.59818200208335,206.321980725,59.0,58.0
654,203.15958550208336,206.32749541875,55.0,100.0
655,206.23926031875,206.44698045,62.0,60.0
656,205.79808481875,206.48190684375,71.0,100.0
657,206.68043581875,207.1859494125,55.0,73.0
658,206.68043581875,207.35690491875002,62.0,82.0
659,207.34219906875,207.8035951125,55.0,97.0
660,207.56278681875,207.84587443125,62.0,76.0
661,207.12161131875,207.8624185125,50.0,78.0
662,206.68043581875,207.8844772875,43.0,105.0
663,208.00396231875,209.0793276,55.0,84.0
664,208.00396231875,209.26498895625,62.0,102.0
665,208.00396231875,209.27601834375,67.0,102.0
666,208.88631331875,209.60322350625,50.0,66.0
667,209.32748881875,210.18778104375,55.0,100.0
668,209.32748881875,210.1969722,62.0,105.0
669,209.32748881875,210.21167805000002,67.0,97.0
670,210.20983981875,210.21167805000002,67.0,97.0
671,209.76866431875,210.2153545125,50.0,87.0
672,208.00396231875,210.29072199375,43.0,102.0
673,210.20983981875,210.6491770875,52.0,102.0
674,210.20983981875,210.77601504375,64.0,89.0
675,210.6565300125,210.89182361250002,40.0,127.0
676,210.89366184375,211.11424959375,69.0,100.0
677,210.88998538125,211.1418230625,60.0,100.0
678,210.8771177625,211.27785217500002,41.0,127.0
679,210.87895599375,211.27969040625,53.0,87.0
680,211.31645503125,211.97638005000002,43.0,127.0
681,211.32013149375,211.97821828125,55.0,100.0
682,211.31645503125,212.40468793125,64.0,102.0
683,211.31645503125,212.48557010625,71.0,89.0
684,212.85689281875,213.1344657375,64.0,76.0
685,212.85689281875,213.3182888625,59.0,87.0
686,212.85689281875,213.34218586875,52.0,97.0
687,212.85689281875,213.34218586875,67.0,87.0
688,213.29806831875,213.44880328125,64.0,76.0
689,213.73924381875,214.263139725,62.0,89.0
690,213.73924381875,214.6712270625,65.0,89.0
691,214.62159481875,214.85321195625,60.0,94.0
692,215.06277031875,215.24659344375002,60.0,35.0
693,214.18041931875,215.498431125,57.0,66.0
694,215.06277031875,216.16570906875,69.0,92.0
695,215.06277031875,216.17673845625,65.0,92.0
696,213.73924381875,216.57195817500002,50.0,97.0
697,216.38629681875,216.65100211875,60.0,87.0
698,216.38629681875,216.660193275,65.0,94.0
699,216.38629681875,216.71350198125,69.0,94.0
700,215.94512131875,216.7668106875,57.0,71.0
701,216.82747231875,216.96350143125,50.0,49.0
702,217.26864781875,217.6491616875,43.0,100.0
703,217.26864781875,218.64915948750001,67.0,94.0
704,217.26864781875,218.67121826250002,62.0,87.0
705,218.15099881875,219.28886396250002,55.0,62.0
706,218.59217431875,219.33849620625,59.0,78.0
707,219.03334981875,219.75026000625002,67.0,105.0
708,219.03334981875,219.76680408750002,62.0,108.0
709,219.03334981875,219.81275986875,71.0,105.0
710,219.91570081875,220.12525918125002,62.0,105.0
711,219.47452531875,220.32930285,50.0,44.0
712,219.91570081875,220.3476851625,67.0,114.0
713,220.35687631875,220.55908175625,62.0,94.0
714,220.79805181875,221.3734182,60.0,92.0
715,220.79805181875,221.3734182,64.0,89.0
716,221.23922731875,221.80540254375,55.0,64.0
717,221.68040281875,222.3844453875,64.0,97.0
718,221.68040281875,222.41753355,67.0,100.0
719,221.68040281875,222.4359158625,60.0,97.0
720,222.56275381875,222.77966510625,60.0,92.0
721,222.56275381875,222.99106170000002,72.0,100.0
722,222.56275381875,223.2815022375,64.0,102.0
723,222.56275381875,223.30907570625,67.0,102.0
724,223.00392931875,223.3109139375,60.0,92.0
725,220.79805181875,223.3182668625,48.0,102.0
726,223.44510481875,223.73554535625001,59.0,67.0
727,223.44510481875,224.08664752500002,64.0,82.0
728,223.44510481875,224.08664752500002,67.0,80.0
729,223.44510481875,224.1344415375,47.0,102.0
730,223.88628031875,224.13627976875,59.0,46.0
731,222.12157831875,224.2741471125,55.0,62.0
732,224.32745581875,224.81274886875002,60.0,76.0
733,224.32745581875,225.07745416875,67.0,89.0
734,225.20980681875,225.25208613750002,67.0,20.0
735,224.32745581875,225.59767361250002,48.0,102.0
736,224.76863131875,225.6675264,55.0,69.0
737,225.20980681875,225.69877633125,60.0,114.0
738,225.65098231875,225.7741438125,64.0,67.0
739,226.09215781875,226.66384773750002,67.0,94.0
740,226.09215781875,226.68039181875,64.0,78.0
741,226.53333331875,227.204287725,59.0,73.0
742,226.97450881875,227.23921411875,64.0,92.0
743,226.09215781875,227.25208173750002,52.0,102.0
744,226.97450881875,227.35686091875002,67.0,105.0
745,226.97450881875,227.41752255,71.0,97.0
746,227.85685981875,228.36053518125001,60.0,89.0
747,227.85685981875,228.49840252500002,65.0,92.0
748,228.29803531875,228.98185734375,57.0,55.0
749,228.73921081875,229.11420999375,60.0,89.0
750,228.73921081875,229.45612100625002,65.0,89.0
751,228.73921081875,229.47817978125,69.0,94.0
752,229.18038631875,229.880752425,57.0,60.0
753,229.62156181875,230.32008969375,65.0,97.0
754,229.62156181875,230.3329573125,60.0,105.0
755,230.28332506875,230.6858977125,57.0,15.0
756,230.50391281875,230.7079564875,60.0,114.0
757,230.50391281875,231.1675143,69.0,105.0
758,230.72450056875002,231.20795538750002,57.0,84.0
759,230.94508831875,231.21714654375,60.0,89.0
760,227.85685981875,231.29986695,50.0,97.0
761,231.38626381875,231.97449781875,62.0,94.0
762,231.38626381875,232.013100675,67.0,92.0
763,232.26861481875,232.50574665,62.0,102.0
764,232.70979031875,233.0094220125,62.0,69.0
765,232.26861481875,233.05353956250002,71.0,102.0
766,233.15096581875,233.777802675,67.0,84.0
767,233.15096581875,233.83846430625002,62.0,84.0
768,234.03331681875,234.2667721875,62.0,100.0
769,234.03331681875,234.5498598,67.0,97.0
770,231.82743931875,234.557212725,59.0,58.0
771,231.38626381875,234.56272741875,55.0,100.0
772,234.47449231875,234.68221245,62.0,60.0
773,234.03331681875,234.71713884375,71.0,100.0
774,234.91566781875,235.23919651875002,65.0,94.0
775,234.91566781875,235.24287298125,60.0,78.0
776,235.35684331875,235.6638279375,64.0,82.0
777,235.13625556875002,235.99287133125,55.0,67.0
778,235.79801881875,236.027797725,62.0,97.0
779,234.91566781875,236.0682388125,48.0,97.0
780,236.23919431875,238.4138218875,64.0,84.0
781,236.23919431875,238.42301304375002,60.0,71.0
782,238.37889549375,238.42301304375002,60.0,57.0
783,236.23919431875,238.4432335875,48.0,100.0
784,238.46345413125,239.71712784375,65.0,89.0
785,238.4358806625,239.79801001875,50.0,97.0
786,240.72815503125,244.601308275,50.0,64.0
787,241.1380806,244.6123376625,55.0,108.0
788,241.55535909375,244.62336705,62.0,78.0
789,240.2373472875,244.63991113125002,43.0,51.0
790,241.87521133125,244.64726405625,67.0,33.0
791,245.513070975,246.04799626875,52.0,78.0
792,245.5093945125,246.37520143125,55.0,84.0
793,246.34578973125002,246.83475924375,52.0,100.0
794,245.5241003625,246.89358264375,40.0,100.0
795,245.9285112375,246.95240604375,47.0,78.0
796,246.75755353125,247.13255270625,55.0,62.0
797,247.233655425,247.395419775,41.0,100.0
798,247.23917011875,248.02409486250002,53.0,89.0
799,247.23917011875,248.02960955625002,57.0,94.0
800,248.61232886250002,249.5608561875,57.0,31.0
801,248.5976230125,249.59578258125,55.0,48.0
802,248.6086524,250.395413175,50.0,55.0
803,248.37152056875001,250.498354125,43.0,100.0
804,248.67115226250002,250.7667358875,59.0,44.0
805,249.733649925,250.79430935625,55.0,5.0
806,248.8145343,250.86232391250002,67.0,32.0
807,248.7557109,250.866000375,62.0,29.0
808,251.88621871875,252.10680646875,60.0,50.0
809,252.06636538125,252.24099735000001,62.0,71.0
810,252.31268836875,252.6564376125,64.0,58.0
811,253.20606875625,258.43767489375,64.0,1.0
812,251.68401328125,258.44870428125,55.0,64.0
813,252.5167320375,258.4799542125,67.0,62.0
814,251.468940225,258.5240717625,48.0,100.0
815,252.7557021,258.5240717625,72.0,80.0
