,start,end,pitch,velocity
0,22.171565268749998,22.464807766666663,55.0,62.0
1,22.49588876875,22.68913152083333,59.0,76.0
2,23.144535768749996,23.264805733333333,59.0,85.0
3,23.46885926875,23.612102147916666,59.0,79.0
4,23.793182768749997,23.931020256249997,57.0,81.0
5,24.11750626875,24.301289585416665,55.0,77.0
6,24.441829768749997,25.278314129166663,59.0,90.0
7,25.739123768749998,25.886420691666665,57.0,86.0
8,26.063447268749997,26.202636104166665,55.0,71.0
9,26.38777076875,26.522905560416664,57.0,77.0
10,26.712094268749997,27.795875297916663,59.0,92.0
11,28.333711768749996,28.45803577708333,59.0,81.0
12,28.658035268749998,28.77019714583333,57.0,74.0
13,28.982358768749997,29.07830447083333,57.0,79.0
14,29.30668226875,29.44316840833333,55.0,86.0
15,29.631005768749997,29.740464949999996,57.0,78.0
16,29.955329268749995,30.295868943749998,57.0,97.0
17,30.928299768749998,31.06613725625,55.0,82.0
18,31.252623268749996,31.693162689583332,57.0,79.0
19,32.225593768749995,32.42829595625,55.0,85.0
20,32.549917268749994,32.687754756249994,57.0,74.0
21,32.87424076875,33.01478095208333,57.0,79.0
22,33.19856426875,33.34315849583333,55.0,72.0
23,33.522887768749996,33.66072525625,55.0,79.0
24,33.847211268749994,33.98234606041667,55.0,81.0
25,34.17153476875,34.313426299999996,57.0,89.0
26,34.49585826875,34.602614754166666,59.0,86.0
27,34.82018176875,35.12558639791666,57.0,88.0
28,37.09044626875,37.391796854166664,57.0,93.0
29,37.41476976875,37.720174397916665,55.0,73.0
30,37.73909326875,37.94449815208333,57.0,72.0
31,38.063416768749995,38.25260547708333,57.0,89.0
32,38.387740268749994,39.75260166458333,59.0,89.0
33,40.982328268749995,41.233678981249994,59.0,79.0
34,41.306651768749994,41.42827308125,57.0,72.0
35,41.63097526875,41.930974506249996,55.0,77.0
36,41.95529876875,42.147190172916666,57.0,83.0
37,42.603945768749995,43.09989045416666,57.0,83.0
38,43.57691626875,43.81745619791666,54.0,73.0
39,43.901239768749996,44.01745568958333,50.0,53.0
40,44.87421026875,45.04312875833333,59.0,86.0
41,45.522857268749995,45.67961362708333,55.0,79.0
42,45.84718076874999,46.06069373958333,62.0,88.0
43,46.17150426875,46.668800302083326,64.0,95.0
44,47.79312176875,47.95663486666666,64.0,85.0
45,48.11744526875,48.23366118958333,62.0,81.0
46,48.441768768749995,48.56474142916666,64.0,82.0
47,48.76609226874999,48.91068649583333,62.0,90.0
48,49.41473926875,49.56338753958333,62.0,83.0
49,49.739062768749996,50.21203453958333,57.0,86.0
50,52.657974268749996,53.10256773333333,57.0,85.0
51,53.30662126874999,55.26337305208333,59.0,83.0
52,56.54985626874999,56.797152937499995,59.0,83.0
53,56.87417976875,57.157962831249996,57.0,78.0
54,57.198503268749995,57.52417811666666,55.0,69.0
55,57.522826768749994,57.693096606249995,59.0,85.0
56,57.84715026874999,58.107960416666664,59.0,89.0
57,58.495797268749996,58.82958020416666,57.0,83.0
58,59.14444426874999,59.301200627083325,59.0,95.0
59,59.46876776874999,59.69849691458333,57.0,82.0
60,59.79309126875,60.00795558749999,59.0,92.0
61,60.441738268749994,60.81471029375,59.0,90.0
62,61.09038526875,61.29308745624999,55.0,78.0
63,61.414708768749996,61.64173521874999,62.0,95.0
64,61.739032268749995,61.93092367291666,64.0,93.0
65,63.360649768749994,63.583622174999995,64.0,89.0
66,63.68497326874999,63.8187567125,62.0,75.0
67,64.00929676874999,64.30794465833333,62.0,83.0
68,64.33362026875,64.53767380416666,64.0,85.0
69,64.98226726875,65.18767215208332,64.0,89.0
70,65.30659076875,65.51875239166667,62.0,83.0
71,66.27956126874999,66.60658746458333,62.0,95.0
72,66.92820826875,67.24307233333333,57.0,82.0
73,68.22550226874999,68.52955555,62.0,95.0
74,68.87414926874999,70.34036175833333,59.0,96.0
75,72.44170776874999,72.61738299791666,55.0,79.0
76,72.76603126875,72.92413897499999,55.0,75.0
77,73.09035476874999,73.44711061874999,59.0,88.0
78,73.73900176874999,74.0025146125,57.0,92.0
79,74.06332526874999,74.24035184583333,59.0,73.0
80,74.38764876875,74.91197176041666,54.0,90.0
81,76.00926626875,76.19710362916666,59.0,78.0
82,76.33358976874999,76.51737308541666,57.0,72.0
83,76.65791326875,76.81466962708333,55.0,81.0
84,76.98223676875,77.28493870208332,62.0,92.0
85,77.30656026874999,77.69304577291666,64.0,92.0
86,80.54979526874999,80.72411914999999,50.0,76.0
87,80.87411876875,81.08763173958333,62.0,88.0
88,81.19844226874999,82.38087169583332,59.0,81.0
89,82.49573626875,82.68222228124999,57.0,93.0
90,82.82005976874999,84.36735313333332,57.0,89.0
91,84.44167726875,84.71059550416666,62.0,82.0
92,84.76600076874999,85.215999625,71.0,92.0
93,85.41464776874999,85.61194456458333,71.0,97.0
94,85.73897126874999,85.9376194125,71.0,92.0
95,86.06329476875,86.26599695624999,69.0,97.0
96,86.38761826874999,86.74032007499999,67.0,78.0
97,86.71194176875,86.99302213541665,71.0,100.0
98,87.36058876874999,87.97545207083333,66.0,102.0
99,88.33355926875,88.51599123749999,66.0,107.0
100,88.65788276874999,89.05788175208332,71.0,100.0
101,89.30652976875,89.92950115833332,71.0,112.0
102,90.27950026874998,90.50247267499999,69.0,107.0
103,90.60382376874999,91.08490362708332,71.0,112.0
104,91.57679426874999,91.74165871458332,67.0,85.0
105,91.90111776875,92.02409042916666,67.0,93.0
106,92.22544126874999,92.383548975,67.0,86.0
107,92.54976476875,92.97003397083333,72.0,99.0
108,93.19841176874999,93.38624912916666,72.0,112.0
109,93.52273526875,93.7943562,72.0,112.0
110,94.17138226875,94.35651693333332,71.0,100.0
111,94.49570576874999,94.66462425833332,69.0,93.0
112,94.82002926874999,95.68083789166666,72.0,112.0
113,96.11732326874998,96.31597141249999,74.0,97.0
114,96.44164676874999,97.08218568125,69.0,100.0
115,97.41461726874999,97.96866991458333,67.0,100.0
116,98.38758776875,99.42001757708333,69.0,99.0
117,100.00920526875,100.27812350416666,62.0,82.0
118,100.33352876874999,100.78352762499999,71.0,92.0
119,100.98217576875,101.17947256458332,71.0,97.0
120,101.30649926874999,101.5051474125,71.0,92.0
121,101.63082276875,101.83352495624999,69.0,97.0
122,101.95514626874998,102.307848075,67.0,78.0
123,102.27946976874999,102.56055013541666,71.0,100.0
124,103.25244026875,103.60649342291666,71.0,102.0
125,103.90108726874999,104.09297867291666,67.0,93.0
126,104.22541076875,104.87405776874999,66.0,97.0
127,105.19838126874998,106.17810850833332,74.0,102.0
128,106.81999876875,107.00648478125,62.0,99.0
129,107.14432226874999,107.56999686249999,71.0,97.0
130,107.79296926874999,107.94837427916666,71.0,112.0
131,108.11729276874999,108.27675182291665,72.0,112.0
132,108.44161626875,108.54972410208332,71.0,112.0
133,108.76593976874999,109.09161461666666,69.0,100.0
134,109.09026326875,109.09161461666666,69.0,99.0
135,109.73891026874999,109.89836932291665,71.0,90.0
136,110.06323376875,110.21728743124999,72.0,95.0
137,110.38755726874999,111.33214946249998,69.0,97.0
138,112.00917476874999,112.25376874166666,67.0,99.0
139,112.33349826874999,112.50917349791666,69.0,93.0
140,112.65782176874998,112.82538891041665,71.0,95.0
141,112.98214526874999,114.46051988958332,69.0,117.0
142,146.06314226875,146.40908733541664,57.0,100.0
143,146.71178926874998,146.97665346041666,55.0,88.0
144,147.03611276874997,147.38340918333333,57.0,92.0
145,147.36043626875,149.17664786875,59.0,95.0
146,149.95502426874998,150.2023209375,59.0,83.0
147,150.27934776874997,150.56313083125,57.0,78.0
148,150.60367126875,150.92934611666666,55.0,69.0
149,150.92799476874998,151.09826460624998,59.0,85.0
150,151.25231826874997,151.51312841666666,59.0,89.0
151,151.90096526874999,152.23474820416666,57.0,83.0
152,152.54961226875,152.70636862708332,59.0,95.0
153,152.87393576875,153.1036649145833,57.0,82.0
154,153.19825926874998,153.4131235875,59.0,92.0
155,153.84690626875,154.21987829374999,59.0,90.0
156,154.49555326874997,154.69825545625,55.0,78.0
157,154.81987676875,155.04690321874997,62.0,95.0
158,155.14420026874998,155.33609167291667,64.0,93.0
159,156.76581776875,156.988790175,64.0,89.0
160,157.09014126875,157.22392471249998,62.0,75.0
161,157.41446476874998,157.71311265833333,62.0,83.0
162,157.73878826874997,157.94284180416665,64.0,85.0
163,158.38743526874998,158.5928401520833,64.0,89.0
164,158.71175876874997,158.92392039166666,62.0,83.0
165,159.68472926874998,160.01175546458333,62.0,95.0
166,160.33337626875,160.64824033333332,57.0,82.0
167,161.63067026874998,161.93472354999997,62.0,95.0
168,162.27931726875,163.7455297583333,59.0,96.0
169,165.84687576874998,166.02255099791665,55.0,79.0
170,166.17119926874997,166.32930697499998,55.0,75.0
171,166.49552276875,166.85227861874998,59.0,88.0
172,167.14416976874998,167.4076826125,57.0,92.0
173,167.46849326875,167.64551984583332,59.0,73.0
174,167.79281676875,168.31713976041664,54.0,90.0
175,169.41443426874997,169.60227162916664,59.0,78.0
176,169.73875776875,169.92254108541664,57.0,72.0
177,170.06308126874998,170.2198376270833,55.0,81.0
178,170.38740476874997,170.6901067020833,62.0,92.0
179,170.71172826875,171.09821377291664,64.0,92.0
180,173.95496326875,174.12928714999998,50.0,76.0
181,174.27928676874998,174.49279973958332,62.0,88.0
182,174.60361026874997,175.78603969583332,59.0,81.0
183,175.90090426875,176.08739028124998,57.0,93.0
184,176.22522776875,177.77252113333333,57.0,89.0
185,177.84684526874997,178.11576350416664,62.0,82.0
186,178.17116876875,178.62116762499997,71.0,92.0
187,178.81981576874998,179.01711256458333,71.0,97.0
188,179.14413926875,179.34278741249997,71.0,92.0
189,179.46846276875,179.67116495624998,69.0,97.0
190,179.79278626874998,180.14548807499997,67.0,78.0
191,180.11710976874997,180.39819013541666,71.0,100.0
192,180.76575676874998,181.38062007083332,66.0,102.0
193,181.73872726874998,181.92115923749998,66.0,107.0
194,182.06305076874997,182.46304975208332,71.0,100.0
195,182.71169776874999,183.33466915833333,71.0,112.0
196,183.68466826875,183.90764067499998,69.0,107.0
197,184.00899176874998,184.49007162708332,71.0,112.0
198,184.98196226874998,185.1468267145833,67.0,85.0
199,185.30628576874997,185.42925842916665,67.0,93.0
200,185.63060926875,185.78871697499997,67.0,86.0
201,185.95493276874998,186.3752019708333,72.0,99.0
202,186.60357976875,186.79141712916666,72.0,112.0
203,186.92790326875,187.19952419999998,72.0,112.0
204,187.57655026874997,187.76168493333333,71.0,100.0
205,187.90087376875,188.0697922583333,69.0,93.0
206,188.22519726874998,189.08600589166664,72.0,112.0
207,189.52249126874997,189.72113941249998,74.0,97.0
208,189.84681476875,190.48735368124997,69.0,100.0
209,190.81978526875,191.3738379145833,67.0,100.0
210,191.79275576874997,192.82518557708332,69.0,99.0
211,193.41437326874998,193.68329150416665,62.0,82.0
212,193.73869676874997,194.18869562499998,71.0,92.0
213,194.38734376875,194.5846405645833,71.0,97.0
214,194.71166726874998,194.91031541249998,71.0,92.0
215,195.03599076874997,195.23869295625,69.0,97.0
216,195.36031426875,195.71301607499998,67.0,78.0
217,195.68463776874998,195.96571813541664,71.0,100.0
218,196.65760826874998,197.01166142291666,71.0,102.0
219,197.30625526875,197.49814667291665,67.0,93.0
220,197.63057876874998,198.27922576875,66.0,97.0
221,198.60354926875,199.5832765083333,74.0,102.0
222,200.22516676874997,200.41165278124998,62.0,99.0
223,200.54949026875,200.97516486249998,71.0,97.0
224,201.19813726874997,201.35354227916665,71.0,112.0
225,201.52246076875,201.68191982291665,72.0,112.0
226,201.84678426874999,201.9548921020833,71.0,112.0
227,202.17110776874998,202.49678261666665,69.0,100.0
228,202.49543126874997,202.49678261666665,69.0,99.0
229,203.14407826874998,203.30353732291664,71.0,90.0
230,203.46840176874997,203.62245543125,72.0,95.0
231,203.79272526875,204.7373174625,69.0,97.0
232,205.41434276874998,205.65893674166665,67.0,99.0
233,205.73866626874997,205.91434149791664,69.0,93.0
234,206.06298976875,206.23055691041665,71.0,95.0
235,206.38731326874998,206.71163676874997,69.0,117.0
236,207.36028376874998,208.42514592708332,74.0,127.0
237,208.98190126875,209.14946841041666,74.0,112.0
238,209.30622476874998,209.64406174791665,74.0,112.0
239,209.95487176874997,210.09270925624998,74.0,127.0
240,210.27919526875,210.43865432291665,74.0,102.0
241,210.60351876874998,210.81973443541665,72.0,117.0
242,210.92784226874997,211.20621993958332,71.0,89.0
243,211.25216576875,211.6116243145833,74.0,127.0
244,211.90081276874997,212.52243281041666,71.0,112.0
245,212.87378326874997,213.15486363541666,71.0,99.0
246,213.19810676874997,213.60080844791665,74.0,127.0
247,213.84675376874998,214.52513042291665,74.0,122.0
248,214.81972426874998,215.07918306874998,71.0,112.0
249,215.14404776874997,215.57107371041664,74.0,117.0
250,216.11701826874997,216.30755832499997,74.0,102.0
251,216.44134176875,216.57647656041664,74.0,99.0
252,216.76566526874998,216.9156648875,74.0,112.0
253,217.08998876874998,217.60079828124998,76.0,127.0
254,217.73863576875,217.96295952291663,76.0,122.0
255,218.06295926874998,218.41160703124999,76.0,107.0
256,218.71160626875,218.88728149791663,74.0,112.0
257,219.03592976874998,219.22646982499998,72.0,117.0
258,219.36025326874997,219.7156577708333,76.0,112.0
259,220.65754726874997,220.81700632291665,76.0,100.0
260,220.98187076874999,221.9413277895833,74.0,95.0
261,221.95484126875,222.53456952499997,71.0,100.0
262,222.60348826874997,222.6953799270833,74.0,102.0
263,222.92781176875,224.2197003770833,74.0,112.0
264,224.54942926874998,224.7142937145833,62.0,96.0
265,224.87375276874997,225.26429231666665,74.0,107.0
266,225.52239976874998,225.66293995208332,74.0,122.0
267,225.84672326874997,226.23591146874998,74.0,122.0
268,226.49537026874998,226.7494236770833,71.0,89.0
269,226.81969376874997,227.2642872333333,74.0,112.0
270,227.79266426874997,228.12374450833332,74.0,112.0
271,228.44131126874998,228.5777974083333,71.0,99.0
272,228.76563476874998,229.58590295416664,71.0,102.0
273,229.73860526874998,230.39671170416665,78.0,127.0
274,230.71157576874998,231.09265588124998,74.0,100.0
275,231.36022276875,231.55751956458332,67.0,95.0
276,231.68454626874998,232.09941007916663,74.0,102.0
277,232.33319326874997,232.46967940833332,74.0,112.0
278,232.65751676874999,232.95346196249997,76.0,102.0
279,232.98184026874998,233.1669749333333,74.0,122.0
280,233.30616376874997,233.42102834166664,72.0,112.0
281,233.63048726875,234.3021071833333,72.0,117.0
282,234.27913426874997,234.4439987145833,74.0,112.0
283,234.60345776875,234.73048447291666,76.0,92.0
284,234.92778126874998,235.52507704791665,72.0,112.0
285,236.54939876874997,236.7223713020833,69.0,100.0
286,236.87372226875,237.03858671458332,69.0,99.0
287,237.19804576874998,237.3345319083333,71.0,102.0
288,237.52236926874997,238.16831357291665,69.0,112.0
289,241.41425126874998,241.8020881208333,67.0,86.0
290,242.06289826875,242.18992497291666,66.0,89.0
291,242.54938351874998,242.79127479583332,66.0,86.0
292,242.87370701874997,245.09126894999997,67.0,83.0
