,start,end,pitch,velocity
0,13.04605785,13.205597387500001,71.0,117.0
1,13.44079485,13.57237385,71.0,99.0
2,13.638163350000001,13.746716025,69.0,86.0
3,13.83553185,14.036189825000001,71.0,112.0
4,14.62500585,14.8009927625,69.0,117.0
5,15.01974285,15.1365192125,69.0,107.0
6,15.21711135,15.3684272,67.0,83.0
7,15.41447985,15.651322050000001,69.0,117.0
8,16.20395385,16.3536249625,71.0,122.0
9,16.59869085,16.76974355,71.0,112.0
10,16.79605935,16.91448045,69.0,92.0
11,16.99342785,17.200664775,71.0,102.0
12,17.38816485,17.6003359875,74.0,122.0
13,17.782901850000002,18.8371785875,69.0,117.0
14,19.36184985,19.490139375000002,71.0,122.0
15,19.75658685,19.876652687500002,71.0,107.0
16,19.95395535,20.0526396,69.0,88.0
17,20.15132385,20.3306002375,71.0,117.0
18,20.94079785,21.055929475,69.0,122.0
19,21.335534850000002,21.4523112125,69.0,117.0
20,21.53290335,21.6315876,67.0,97.0
21,21.73027185,21.9128377125,69.0,127.0
22,22.51974585,22.6200748375,71.0,127.0
23,22.91448285,23.0608644875,71.0,122.0
24,23.111851350000002,23.226982975,69.0,96.0
25,23.30921985,23.470404125,71.0,127.0
26,23.70395685,23.8865227125,74.0,122.0
27,24.09869385,24.944088925,69.0,127.0
28,25.67764185,25.832247175,71.0,127.0
29,26.07237885,26.2631684,71.0,117.0
30,26.26974735,26.3947474,69.0,88.0
31,26.46711585,26.6562606625,71.0,117.0
32,26.861852850000002,26.970405525,74.0,127.0
33,27.25658985,27.67764265,69.0,107.0
34,28.04606385,28.371721875,69.0,117.0
35,28.44080085,28.648037775,69.0,127.0
36,28.638169350000002,28.726985175,71.0,99.0
37,28.83553785,29.108564275,64.0,96.0
38,29.23027485,29.388169650000002,67.0,97.0
39,29.62501185,29.871722475000002,67.0,112.0
40,30.01974885,30.207248925000002,71.0,102.0
41,30.414485850000002,30.608564875,71.0,127.0
42,31.99343385,32.12501285,71.0,117.0
43,32.38817085,32.5740261875,71.0,127.0
44,32.58553935,32.7319209875,69.0,89.0
45,32.78290785,33.023039525,71.0,117.0
46,33.17764485,33.3306054375,74.0,127.0
47,33.57238185,33.8371845875,76.0,127.0
48,33.96711885,34.0542899375,74.0,122.0
49,34.16448735,34.4457374625,74.0,117.0
50,34.75659285,34.924356075,74.0,117.0
51,34.95396135,35.0394877,76.0,74.0
52,35.15132985,35.4062641625,64.0,102.0
53,35.54606685,35.819093275,67.0,112.0
54,35.94080385,36.1069223375,67.0,117.0
55,36.13817235,36.259882925,69.0,93.0
56,36.33554085,36.6365278125,64.0,97.0
57,36.73027785,37.4128439125,67.0,99.0
58,37.91448885,38.1184363,71.0,107.0
59,38.30922585,38.6135022875,64.0,99.0
60,38.70396285,39.32238415,67.0,102.0
61,39.49343685,39.7500159,67.0,117.0
62,39.88817385,40.4424503875,71.0,122.0
63,41.07238485,41.26975335,71.0,97.0
64,41.46712185,41.871727275,64.0,95.0
65,41.86185885,42.256595850000004,67.0,99.0
66,42.65133285,42.9490303375,74.0,112.0
67,43.04606985,43.9490307375,71.0,107.0
68,44.62501785,44.7187678875,64.0,100.0
69,44.82238635,45.01975485,67.0,99.0
70,45.21712335,45.30922865,67.0,100.0
71,45.41449185,45.6595577375,67.0,112.0
72,45.809228850000004,46.0444263125,64.0,112.0
73,46.20396585,46.3733738125,76.0,127.0
74,46.40133435,46.575676525,74.0,112.0
75,46.59870285,46.6957423625,71.0,127.0
76,46.79607135,47.1184399,69.0,122.0
77,47.19080835,47.7220585625,67.0,102.0
78,47.78291385,48.064163962500004,64.0,107.0
79,48.17765085,48.41449305,67.0,112.0
80,48.57238785,48.79607215,69.0,117.0
81,48.76975635,48.9260064125,67.0,96.0
82,48.96712485,49.2631776,64.0,99.0
83,49.361861850000004,50.3273227625,67.0,112.0
84,52.51975785,52.6052842,74.0,112.0
85,52.71712635,52.799363225,74.0,96.0
86,52.914494850000004,52.9950869875,74.0,88.0
87,53.11186335,53.1858765375,74.0,97.0
88,53.30923185,53.4605477,74.0,117.0
89,53.70396885,53.87502155,74.0,112.0
90,54.09870585,54.3996928125,67.0,107.0
91,54.88817985,55.148048375,64.0,112.0
92,55.28291685,55.529627475,62.0,107.0
93,55.67765385,55.957259225,74.0,122.0
94,56.07239085,56.279627775,74.0,127.0
95,56.46712785,56.57897,74.0,127.0
96,56.86186485,57.115154425,66.0,112.0
97,57.25660185,57.8174573375,67.0,107.0
98,58.63818135,58.7483787625,64.0,95.0
99,58.83554985,59.055944675,69.0,102.0
100,59.23028685,59.3635105875,69.0,117.0
101,59.42765535,59.57239225,71.0,112.0
102,59.62502385,59.807589712500004,69.0,107.0
103,60.01976085,60.11186615,69.0,112.0
104,60.21712935,60.29607675,71.0,97.0
105,60.414497850000004,60.62502425,71.0,102.0
106,60.80923485,60.9737086,69.0,107.0
107,61.20397185,61.3289719,67.0,112.0
108,61.59870885,61.96713005,64.0,100.0
109,61.99344585,62.9062751625,69.0,117.0
110,63.17765685,63.562525425000004,71.0,117.0
111,63.57239385,64.15627566250001,69.0,100.0
112,65.15134185,65.3421314,74.0,127.0
113,65.54607885,65.641473625,74.0,112.0
114,65.74344735,65.82239475,74.0,99.0
115,65.94081585,66.1398290875,74.0,122.0
116,66.33555285,66.53292135,76.0,117.0
117,66.73028985,67.1184479,67.0,112.0
118,68.30923785,68.470422125,74.0,127.0
119,68.70397485,68.78292225,74.0,102.0
120,68.90134335,68.970422325,74.0,99.0
121,69.09871185,69.2483829625,74.0,112.0
122,69.49344885000001,69.7105542,66.0,117.0
123,69.88818585,70.088843825,67.0,122.0
124,71.46713385,71.66614708750001,69.0,127.0
125,71.86187085,71.96713405,69.0,122.0
126,72.05923935,72.1842394,71.0,95.0
127,72.25660785,72.4260158125,69.0,117.0
128,72.65134485,72.759897525,69.0,122.0
129,72.84871335,72.930950225,71.0,96.0
130,73.04608185000001,73.2418056125,71.0,117.0
131,73.44081885,73.74345055,69.0,117.0
132,73.83555585,74.1825954625,67.0,102.0
133,74.23029285,74.5789772,64.0,100.0
134,74.62502985,76.0131883,74.0,127.0
135,75.80924085,76.1710831,76.0,127.0
136,76.20397785,76.78292545000001,74.0,122.0
137,76.99345185,77.3700967375,71.0,107.0
138,77.38818885,77.6727284375,74.0,122.0
139,77.78292585,77.8569390375,79.0,127.0
140,77.98029435,78.055952275,79.0,112.0
141,78.17766285,78.2516760375,79.0,122.0
142,78.37503135,78.4457550625,79.0,127.0
143,78.57239985,78.8503604875,76.0,127.0
144,78.96713685,79.148057975,76.0,127.0
145,79.16450535,79.2631896,74.0,92.0
146,79.36187385,79.6710845,74.0,122.0
147,79.75661085,79.8240450875,74.0,107.0
148,79.95397935,80.04608465,74.0,107.0
149,80.15134785000001,80.4852295625,69.0,112.0
150,80.54608485,80.8075981125,67.0,100.0
151,80.94082185,81.0115455625,69.0,127.0
152,81.13819035,81.2105588,69.0,97.0
153,81.33555885,81.42766415,69.0,102.0
154,81.53292735,81.6168089625,67.0,107.0
155,81.73029585,81.90134855,69.0,127.0
156,82.12503285,82.312532925,74.0,127.0
157,82.51976985,82.8026647,71.0,127.0
158,83.30924385,83.6497045125,71.0,112.0
159,83.70398085000001,83.9358888375,74.0,127.0
160,84.09871785,84.1727310375,79.0,122.0
161,84.29608635,84.3700995375,79.0,100.0
162,84.49345485,84.5641785625,79.0,100.0
163,84.69082335,84.759902325,79.0,100.0
164,84.88819185,85.134902475,76.0,127.0
165,85.28292885,85.463849975,74.0,112.0
166,85.67766585,85.7483895625,74.0,127.0
167,85.87503435,85.950692275,74.0,100.0
168,86.07240285,86.1464160375,74.0,112.0
169,86.26977135,86.3552977,74.0,127.0
170,86.46713985,86.825692625,69.0,127.0
171,86.86187685,87.174376975,67.0,117.0
172,87.25661385000001,87.325692825,69.0,127.0
173,87.45398235,87.5131929,69.0,100.0
174,87.65135085,87.8141798625,69.0,122.0
175,87.84871935,87.9079299,71.0,112.0
176,88.04608785,88.266482675,67.0,127.0
177,88.44082485,88.70398285,64.0,100.0
178,88.83556185,89.549377925,67.0,127.0
179,89.62503585,89.878325425,71.0,112.0
180,90.01977285,90.2105624,74.0,117.0
181,90.41450985,90.4819440875,79.0,127.0
182,90.61187835,90.67766785,79.0,99.0
183,90.80924685000001,90.8832600375,79.0,107.0
184,91.00661535,91.0921417,79.0,102.0
185,91.20398385,91.4556286875,76.0,127.0
186,91.59872085,91.74345775,74.0,117.0
187,91.99345785,92.05924735,74.0,127.0
188,92.19082635,92.2615500625,74.0,107.0
189,92.38819485,92.457273825,74.0,102.0
190,92.58556335,92.6562870625,74.0,117.0
191,92.78293185,93.08556355,69.0,107.0
192,93.17766885,93.3898399875,67.0,112.0
193,93.57240585,93.6365506125,69.0,107.0
194,93.76977435,93.83556385,69.0,92.0
195,93.96714285,94.036221825,69.0,93.0
196,94.16451135,94.24345875,69.0,93.0
197,94.36187985,94.5411562375,69.0,100.0
198,94.75661685,95.06089328750001,74.0,122.0
199,95.15135385,95.657933,71.0,100.0
200,95.94082785,96.1974069,71.0,112.0
201,96.33556485,96.5806307375,74.0,122.0
202,96.73030185,96.8010255625,79.0,122.0
203,96.92767035,96.9983940625,79.0,102.0
204,97.12503885,97.19576256250001,79.0,102.0
205,97.32240735,97.404644225,79.0,122.0
206,97.51977585,97.6842496,76.0,127.0
207,97.91451285,98.08556555,74.0,127.0
208,98.30924985,98.3701051375,74.0,127.0
209,98.50661835,98.57240785,74.0,96.0
210,98.70398685,98.7648421375,74.0,96.0
211,98.90135535,98.9852369625,74.0,99.0
212,99.09872385,99.266487075,69.0,127.0
213,99.49346085,99.6694477625,67.0,107.0
214,99.88819785,99.95727682500001,69.0,127.0
215,100.08556635000001,100.1497111125,69.0,88.0
216,100.28293485,100.40135595,69.0,102.0
217,100.48030335,100.5806323375,71.0,117.0
218,100.67767185,100.8536587625,69.0,127.0
219,100.87504035,101.0312904125,67.0,85.0
220,101.07240885,101.3964221375,64.0,100.0
221,101.46714585,102.33556725,67.0,117.0
222,115.67767785,115.832283175,71.0,127.0
223,116.07241485,116.2632044,71.0,117.0
224,116.26978335,116.3947834,69.0,88.0
225,116.46715185000001,116.6562966625,71.0,117.0
226,116.86188885,116.970441525,74.0,127.0
227,117.25662585,117.67767865,69.0,107.0
228,118.04609985,118.371757875,69.0,117.0
229,118.44083685,118.648073775,69.0,127.0
230,118.63820535,118.727021175,71.0,99.0
231,118.83557385,119.108600275,64.0,96.0
232,119.23031085,119.38820565,67.0,97.0
233,119.62504785,119.87175847500001,67.0,112.0
234,120.01978485000001,120.207284925,71.0,102.0
235,120.41452185,120.60860087500001,71.0,127.0
236,121.99346985,122.12504885,71.0,117.0
237,122.38820685,122.5740621875,71.0,127.0
238,122.58557535,122.7319569875,69.0,89.0
239,122.78294385,123.023075525,71.0,117.0
240,123.17768085,123.3306414375,74.0,127.0
241,123.57241785000001,123.8372205875,76.0,127.0
242,123.96715485,124.0543259375,74.0,122.0
243,124.16452335,124.4457734625,74.0,117.0
244,124.75662885,124.924392075,74.0,117.0
245,124.95399735,125.0395237,76.0,74.0
246,125.15136585,125.4063001625,64.0,102.0
247,125.54610285,125.819129275,67.0,112.0
248,125.94083985,126.1069583375,67.0,117.0
249,126.13820835,126.25991892500001,69.0,93.0
250,126.33557685,126.6365638125,64.0,97.0
251,126.73031385,127.4128799125,67.0,99.0
252,127.91452485,128.1184723,71.0,107.0
253,128.30926185,128.6135382875,64.0,99.0
254,128.70399885,129.32242015,67.0,102.0
255,129.49347285,129.7500519,67.0,117.0
256,129.88820985,130.4424863875,71.0,122.0
257,131.07242085000001,131.26978935,71.0,97.0
258,131.46715785,131.871763275,64.0,95.0
259,131.86189485,132.25663185,67.0,99.0
260,132.65136885,132.9490663375,74.0,112.0
261,133.04610585,133.9490667375,71.0,107.0
262,134.62505385,134.7188038875,64.0,100.0
263,134.82242235,135.01979085,67.0,99.0
264,135.21715935,135.30926465,67.0,100.0
265,135.41452785,135.6595937375,67.0,112.0
266,135.80926485,136.0444623125,64.0,112.0
267,136.20400185,136.3734098125,76.0,127.0
268,136.40137035,136.575712525,74.0,112.0
269,136.59873885,136.6957783625,71.0,127.0
270,136.79610735,137.1184759,69.0,122.0
271,137.19084435,137.7220945625,67.0,102.0
272,137.78294985,138.0641999625,64.0,107.0
273,138.17768685000001,138.41452905,67.0,112.0
274,138.57242385,138.79610815,69.0,117.0
275,138.76979235,138.9260424125,67.0,96.0
276,138.96716085,139.2632136,64.0,99.0
277,139.36189785,140.3273587625,67.0,112.0
278,142.500057,142.58558335,74.0,112.0
279,142.6974255,142.77966237500002,74.0,96.0
280,142.894794,142.9753861375,74.0,88.0
281,143.0921625,143.16617568750002,74.0,97.0
282,143.289531,143.44084685,74.0,117.0
283,143.684268,143.8553207,74.0,112.0
284,144.079005,144.37999196250001,67.0,107.0
285,144.868479,145.128347525,64.0,112.0
286,145.263216,145.509926625,62.0,107.0
287,145.657953,145.937558375,74.0,122.0
288,146.05269,146.259926925,74.0,127.0
289,146.447427,146.55926915,74.0,127.0
290,146.842164,147.095453575,66.0,112.0
291,147.236901,147.7977564875,67.0,107.0
292,148.6184805,148.7286779125,64.0,95.0
293,148.81584900000001,149.036243825,69.0,102.0
294,149.210586,149.3438097375,69.0,117.0
295,149.4079545,149.55269140000001,71.0,112.0
296,149.605323,149.7878888625,69.0,107.0
297,150.00006,150.0921653,69.0,112.0
298,150.1974285,150.2763759,71.0,97.0
299,150.394797,150.6053234,71.0,102.0
300,150.789534,150.95400775,69.0,107.0
301,151.184271,151.30927105,67.0,112.0
302,151.579008,151.9474292,64.0,100.0
303,151.973745,152.8865743125,69.0,117.0
304,153.157956,153.542824575,71.0,117.0
305,153.552693,154.13657481250002,69.0,100.0
306,155.131641,155.32243055,74.0,127.0
307,155.526378,155.621772775,74.0,112.0
308,155.7237465,155.8026939,74.0,99.0
309,155.92111500000001,156.1201282375,74.0,122.0
310,156.315852,156.5132205,76.0,117.0
311,156.710589,157.09874705000001,67.0,112.0
312,158.289537,158.450721275,74.0,127.0
313,158.684274,158.7632214,74.0,102.0
314,158.8816425,158.950721475,74.0,99.0
315,159.079011,159.2286821125,74.0,112.0
316,159.473748,159.69085335,66.0,117.0
317,159.868485,160.069142975,67.0,122.0
318,161.447433,161.64644623750002,69.0,127.0
319,161.84217,161.9474332,69.0,122.0
320,162.0395385,162.16453855,71.0,95.0
321,162.236907,162.4063149625,69.0,117.0
322,162.631644,162.740196675,69.0,122.0
323,162.8290125,162.911249375,71.0,96.0
324,163.02638100000001,163.2221047625,71.0,117.0
325,163.421118,163.7237497,69.0,117.0
326,163.815855,164.1628946125,67.0,102.0
327,164.210592,164.55927635,64.0,100.0
328,164.605329,165.99348745,74.0,127.0
329,165.78954,166.15138225,76.0,127.0
330,166.20401385,166.78296145,74.0,122.0
331,166.99348785,167.3701327375,71.0,107.0
332,167.38822485,167.6727644375,74.0,122.0
333,167.78296185,167.8569750375,79.0,127.0
334,167.98033035,168.055988275,79.0,112.0
335,168.17769885,168.2517120375,79.0,122.0
336,168.37506735,168.4457910625,79.0,127.0
337,168.57243585,168.8503964875,76.0,127.0
338,168.96717285,169.148093975,76.0,127.0
339,169.16454135,169.2632256,74.0,92.0
340,169.36190985,169.6711205,74.0,122.0
341,169.75664685,169.8240810875,74.0,107.0
342,169.95401535,170.04612065,74.0,107.0
343,170.15138385,170.4852655625,69.0,112.0
344,170.54612085,170.8076341125,67.0,100.0
345,170.94085785000001,171.0115815625,69.0,127.0
346,171.13822635,171.2105948,69.0,97.0
347,171.315858,171.4079633,69.0,102.0
348,171.5132265,171.5971081125,67.0,107.0
349,171.710595,171.8816477,69.0,127.0
350,172.105332,172.292832075,74.0,127.0
351,172.500069,172.78296385000002,71.0,127.0
352,173.289543,173.6300036625,71.0,112.0
353,173.68428,173.9161879875,74.0,127.0
354,174.079017,174.1530301875,79.0,122.0
355,174.2763855,174.3503986875,79.0,100.0
356,174.473754,174.5444777125,79.0,100.0
357,174.6711225,174.740201475,79.0,100.0
358,174.868491,175.115201625,76.0,127.0
359,175.263228,175.444149125,74.0,112.0
360,175.657965,175.7286887125,74.0,127.0
361,175.8553335,175.930991425,74.0,100.0
362,176.052702,176.1267151875,74.0,112.0
363,176.2500705,176.33559685,74.0,127.0
364,176.447439,176.805991775,69.0,127.0
365,176.842176,177.154676125,67.0,117.0
366,177.23691300000002,177.305991975,69.0,127.0
367,177.4342815,177.49349205000001,69.0,100.0
368,177.63165,177.7944790125,69.0,122.0
369,177.8290185,177.88822905,71.0,112.0
370,178.026387,178.246781825,67.0,127.0
371,178.421124,178.684282,64.0,100.0
372,178.815861,179.529677075,67.0,127.0
373,179.605335,179.858624575,71.0,112.0
374,180.000072,180.19086155,74.0,117.0
375,180.394809,180.4622432375,79.0,127.0
376,180.5921775,180.657967,79.0,99.0
377,180.789546,180.86355918750002,79.0,107.0
378,180.9869145,181.07244085,79.0,102.0
379,181.184283,181.4359278375,76.0,127.0
380,181.57902,181.7237569,74.0,117.0
381,181.973757,182.0395465,74.0,127.0
382,182.1711255,182.2418492125,74.0,107.0
383,182.368494,182.437572975,74.0,102.0
384,182.5658625,182.6365862125,74.0,117.0
385,182.763231,183.0658627,69.0,107.0
386,183.157968,183.3701391375,67.0,112.0
387,183.552705,183.6168497625,69.0,107.0
388,183.7500735,183.815863,69.0,92.0
389,183.947442,184.016520975,69.0,93.0
390,184.1448105,184.2237579,69.0,93.0
391,184.34217900000002,184.5214553875,69.0,100.0
392,184.736916,185.0411924375,74.0,122.0
393,185.131653,185.63823215,71.0,100.0
394,185.921127,186.17770605,71.0,112.0
395,186.315864,186.5609298875,74.0,122.0
396,186.710601,186.7813247125,79.0,122.0
397,186.9079695,186.9786932125,79.0,102.0
398,187.105338,187.1760617125,79.0,102.0
399,187.3027065,187.384943375,79.0,122.0
400,187.500075,187.66454875,76.0,127.0
401,187.894812,188.0658647,74.0,127.0
402,188.289549,188.3504042875,74.0,127.0
403,188.4869175,188.552707,74.0,96.0
404,188.68428600000001,188.7451412875,74.0,96.0
405,188.8816545,188.9655361125,74.0,99.0
406,189.079023,189.246786225,69.0,127.0
407,189.47376,189.6497469125,67.0,107.0
408,189.868497,189.93757597500002,69.0,127.0
409,190.0658655,190.1300102625,69.0,88.0
410,190.263234,190.3816551,69.0,102.0
411,190.4606025,190.5609314875,71.0,117.0
412,190.657971,190.8339579125,69.0,127.0
413,190.8553395,191.0115895625,67.0,85.0
414,191.052708,191.3767212875,64.0,100.0
415,191.44744500000002,192.3158664,67.0,117.0
