,start,end,pitch,velocity
0,0.41447385000000003,0.8930924625,67.0,58.0
1,0.41447385000000003,0.8930924625,67.0,85.0
2,0.80921085,1.2138162750000001,74.0,93.0
3,1.20394785,1.5970401125,69.0,67.0
4,1.20394785,1.8815797,66.0,63.0
5,1.59868485,2.003290275,74.0,82.0
6,0.41447385000000003,2.2187508875,62.0,52.0
7,1.99342185,2.6611852750000002,67.0,63.0
8,2.38815885,2.7105274,74.0,86.0
9,0.41447385000000003,3.0394749,71.0,49.0
10,2.78289585,3.1430933625,69.0,75.0
11,1.20394785,3.1990144375000003,50.0,34.0
12,0.41447385000000003,3.2582249875000002,43.0,58.0
13,1.99342185,3.2927644750000002,64.0,68.0
14,0.41447385000000003,3.299343425,55.0,49.0
15,2.78289585,3.4753303375,62.0,56.0
16,3.17763285,3.5707251125,74.0,74.0
17,3.57236985,4.1628306125,67.0,62.0
18,3.57236985,4.1628306125,67.0,67.0
19,3.96710685,4.319080675,74.0,100.0
20,3.57236985,4.4325675625,62.0,63.0
21,4.36184385,4.7976992875,69.0,66.0
22,4.75658085,5.141449425,74.0,81.0
23,5.15131785,5.54605485,67.0,65.0
24,5.15131785,5.8108575875,64.0,45.0
25,5.54605485,5.917765525,74.0,70.0
26,3.57236985,6.062502425,71.0,63.0
27,5.94079185,6.411186775,69.0,64.0
28,3.57236985,6.5115157625,43.0,63.0
29,3.57236985,6.5312526125,55.0,66.0
30,4.36184385,6.5773052625,66.0,60.0
31,5.94079185,6.6184237,62.0,53.0
32,6.33552885,6.7023053125,74.0,82.0
33,6.73026585,7.1365160125000004,67.0,65.0
34,6.73026585,7.1365160125000004,67.0,82.0
35,7.12500285,7.5180951125,74.0,78.0
36,7.51973985,7.9720426625,69.0,69.0
37,6.73026585,7.976976875,62.0,58.0
38,7.91447685,8.2878322625,74.0,81.0
39,8.30921385,8.7286219125,67.0,65.0
40,8.30921385,8.92763515,64.0,59.0
41,8.70395085,9.09868785,74.0,69.0
42,6.73026585,9.3141484625,55.0,71.0
43,9.29605635,9.3141484625,55.0,42.0
44,9.09868785,9.582240675,69.0,66.0
45,6.73026585,9.7845433875,43.0,49.0
46,7.51973985,9.8437539375,66.0,60.0
47,7.12500285,9.868425,50.0,36.0
48,9.49342485,9.8733592125,74.0,72.0
49,9.88816185,10.286188325,67.0,62.0
50,9.88816185,10.286188325,67.0,63.0
51,10.28289885,10.6842148,74.0,67.0
52,9.09868785,10.6924384875,62.0,71.0
53,10.28289885,10.7615174625,50.0,52.0
54,10.67763585,11.233557125,55.0,56.0
55,10.67763585,11.24342555,69.0,59.0
56,11.07237285,11.452307212500001,74.0,71.0
57,11.07237285,11.62500465,50.0,39.0
58,11.46710985,12.0016495375,55.0,59.0
59,11.46710985,12.0049390125,64.0,68.0
60,11.861846850000001,12.3536233625,50.0,52.0
61,11.46710985,12.4819128875,67.0,70.0
62,9.88816185,12.96711045,43.0,72.0
63,12.25658385,12.9983604625,55.0,58.0
64,6.73026585,13.0740183875,71.0,55.0
65,12.25658385,13.090465762500001,62.0,70.0
66,10.67763585,13.095399975,66.0,59.0
67,13.83553185,14.0526372,55.0,69.0
68,13.44079485,14.1463872375,50.0,57.0
69,13.04605785,14.1661240875,43.0,73.0
70,13.83553185,14.470400525,71.0,62.0
71,13.83553185,14.53290055,67.0,75.0
72,14.23026885,14.6200716375,62.0,60.0
73,14.62500585,15.1184271,67.0,72.0
74,14.62500585,15.2319139875,71.0,68.0
75,14.62500585,15.2746771625,62.0,69.0
76,15.41447985,15.54605885,71.0,58.0
77,15.41447985,16.1069143375,67.0,81.0
78,15.41447985,16.121716975000002,62.0,65.0
79,15.80921685,16.3684276,55.0,72.0
80,16.20395385,16.9161251875,67.0,76.0
81,16.20395385,17.0641515625,62.0,67.0
82,16.59869085,17.286191125,55.0,71.0
83,14.62500585,17.500007,43.0,82.0
84,15.01974285,17.8240202875,50.0,42.0
85,16.99342785,18.4325731625,71.0,82.0
86,16.99342785,18.4490205375,67.0,69.0
87,18.57237585,19.2352050625,67.0,70.0
88,18.96711285,19.4786262125,55.0,41.0
89,19.36184985,19.9325737625,71.0,64.0
90,19.36184985,20.0115211625,67.0,69.0
91,17.38816485,20.0411264375,62.0,83.0
92,19.75658685,20.24342915,55.0,63.0
93,17.782901850000002,20.62500825,43.0,66.0
94,18.17763885,20.99342945,50.0,41.0
95,20.15132385,21.4457322625,71.0,95.0
96,20.15132385,21.4654691125,67.0,96.0
97,20.54606085,21.578956,62.0,81.0
98,20.94079785,22.2056009875,43.0,81.0
99,21.335534850000002,22.5740221875,50.0,51.0
100,21.73027185,22.983561825,71.0,95.0
101,21.73027185,23.019746050000002,67.0,99.0
102,22.12500885,23.154614525,62.0,86.0
103,23.30921985,23.779614775,71.0,73.0
104,23.30921985,23.7845489875,67.0,82.0
105,23.30921985,23.8026411,62.0,74.0
106,23.70395685,25.1727074375,55.0,47.0
107,22.51974585,25.500010200000002,43.0,83.0
108,22.91448285,25.6266549875,50.0,39.0
109,24.09869385,26.101984125,62.0,73.0
110,24.09869385,26.1431025625,71.0,77.0
111,24.09869385,26.1710631,67.0,83.0
112,25.67764185,26.63816855,43.0,85.0
113,26.07237885,26.6447475,50.0,56.0
114,26.46711585,27.0789582,71.0,86.0
115,26.46711585,27.08553715,67.0,90.0
116,26.861852850000002,27.2121819375,62.0,73.0
117,27.84869535,27.9194190625,45.0,20.0
118,27.25658985,27.9424453875,38.0,88.0
119,27.65132685,28.134879675,62.0,85.0
120,27.65132685,28.13816915,66.0,86.0
121,27.65132685,28.1496823125,57.0,73.0
122,28.04606385,28.4621824375,50.0,61.0
123,28.44080085,28.6973799,66.0,95.0
124,28.44080085,28.71711675,62.0,92.0
125,28.44080085,28.786195725,57.0,78.0
126,28.83553785,29.300998562500002,36.0,72.0
127,29.23027485,29.5608670875,55.0,83.0
128,29.23027485,29.5707355125,60.0,89.0
129,29.23027485,29.5773144625,64.0,82.0
130,29.62501185,30.08553835,38.0,66.0
131,30.01974885,30.5082358875,62.0,97.0
132,30.01974885,30.5115253625,66.0,100.0
133,30.80922285,31.3289599,50.0,68.0
134,31.20395985,31.667775825,59.0,90.0
135,30.414485850000002,31.825670625,43.0,72.0
136,31.40132835,31.95396015,50.0,70.0
137,31.59869685,32.0000128,55.0,89.0
138,31.79606535,32.0181049125,59.0,62.0
139,31.20395985,32.029618075,62.0,93.0
140,31.99343385,32.5115261625,43.0,72.0
141,32.38817085,32.7056051875,55.0,70.0
142,32.38817085,32.7253420375,62.0,92.0
143,32.38817085,32.726986775,59.0,85.0
144,33.17764485,33.51975025,62.0,86.0
145,33.17764485,33.5608686875,59.0,89.0
146,33.17764485,33.575671325,55.0,79.0
147,33.57238185,34.3338953125,38.0,73.0
148,33.96711885,34.3569216375,62.0,90.0
149,33.96711885,34.360211112500004,66.0,88.0
150,33.96711885,34.36185585,57.0,82.0
151,34.36185585,34.9227113375,50.0,66.0
152,34.75659285,35.0789614,62.0,85.0
153,34.75659285,35.0789614,66.0,85.0
154,34.75659285,35.115145625000004,57.0,81.0
155,35.15132985,35.562514225,36.0,88.0
156,35.54606685,35.8700801375,64.0,82.0
157,35.54606685,35.8766590875,60.0,92.0
158,35.54606685,35.8963959375,55.0,83.0
159,35.94080385,36.2845539875,38.0,82.0
160,36.33554085,36.7352120625,66.0,88.0
161,36.33554085,36.7483699625,62.0,86.0
162,36.33554085,36.773041025,57.0,78.0
163,37.12501485,37.5789624,50.0,59.0
164,36.73027785,37.838830925,43.0,82.0
165,37.71712035,37.8437651375,50.0,74.0
166,37.51975185,37.957252025,59.0,92.0
167,37.51975185,38.2023179125,62.0,93.0
168,38.11185735,38.286199525,59.0,76.0
169,37.91448885,38.3931074625,55.0,90.0
170,38.70396285,39.1825814625,48.0,75.0
171,38.30922585,39.366792062500004,36.0,82.0
172,38.50659435,39.4079105,43.0,78.0
173,39.29606835,39.496726325,48.0,65.0
174,38.90133135,39.5658053,55.0,79.0
175,39.49343685,39.930937025,60.0,74.0
176,39.09869985,39.9424501875,64.0,93.0
177,40.28291085,40.779621575,50.0,53.0
178,39.88817385,40.92764795,43.0,73.0
179,41.07238485,41.4325823625,59.0,79.0
180,40.67764785,41.4358718375,62.0,102.0
181,41.26975335,41.9292930875,55.0,60.0
182,41.46712185,42.450674875,36.0,82.0
183,41.86185885,42.457253825,43.0,40.0
184,42.256595850000004,42.6727144375,48.0,63.0
185,42.65133285,43.134885675,60.0,67.0
186,42.256595850000004,43.148043575,64.0,93.0
187,42.45396435,43.1661356875,55.0,77.0
188,43.44080685,43.970412325,50.0,55.0
189,43.04606985,44.1184387,43.0,73.0
190,43.83554385,44.5263336,62.0,107.0
191,44.032912350000004,44.57238625,59.0,59.0
192,44.23028085,44.7746889625,55.0,96.0
193,44.62501785,45.595412975,36.0,85.0
194,45.01975485,45.65133405,55.0,89.0
195,45.809228850000004,46.1891632125,60.0,93.0
196,45.41449185,46.21712375,64.0,100.0
197,46.20396585,46.6661370875,47.0,83.0
198,46.59870285,47.0707425125,59.0,100.0
199,46.99343985,47.4210716,40.0,82.0
200,47.38817685,47.7352164625,67.0,90.0
201,47.38817685,47.759887525,64.0,93.0
202,47.78291385,48.5542957375,45.0,85.0
203,48.17765085,48.6398220875,57.0,95.0
204,48.57238785,49.3240328875,50.0,53.0
205,48.57238785,49.3371907875,66.0,99.0
206,48.57238785,49.338835525,62.0,93.0
207,48.96712485,49.361861850000004,57.0,86.0
208,49.361861850000004,52.0444287125,55.0,69.0
209,49.361861850000004,52.0641655625,71.0,71.0
210,49.361861850000004,52.0740339875,43.0,67.0
211,49.361861850000004,52.0773234625,67.0,76.0
212,49.361861850000004,52.113507687500004,50.0,66.0
213,49.361861850000004,52.12502085,62.0,83.0
214,52.914494850000004,53.490152975,54.0,64.0
215,52.51975785,53.694100425,47.0,95.0
216,53.30923185,53.8207452125,62.0,95.0
217,53.30923185,54.1233769125,66.0,97.0
218,53.90133735,54.1299558625,62.0,52.0
219,53.70396885,54.9161403875,59.0,83.0
220,54.09870585,55.04607465,40.0,77.0
221,54.49344285,55.134890475,47.0,58.0
222,54.88817985,55.2450878875,52.0,59.0
223,54.88817985,55.6316012,67.0,83.0
224,54.88817985,55.6332459375,64.0,89.0
225,55.28291685,55.858574975,59.0,65.0
226,56.07239085,56.5411410375,54.0,65.0
227,55.67765385,56.6167989625,47.0,72.0
228,56.46712785,56.9983780625,66.0,93.0
229,56.46712785,57.38818085,62.0,82.0
230,56.86186485,57.7911415375,59.0,75.0
231,57.25660185,58.2549575125,40.0,62.0
232,57.65133885,58.2812733125,47.0,47.0
233,58.04607585,58.4161417875,52.0,69.0
234,58.04607585,58.71712875,67.0,83.0
235,58.04607585,58.7483787625,64.0,88.0
236,58.44081285,58.868444600000004,59.0,82.0
237,59.62502385,60.0394977,60.0,88.0
238,58.83554985,60.299366225,45.0,78.0
239,59.23028685,60.396405737500004,52.0,53.0
240,59.62502385,60.8816033,64.0,82.0
241,60.01976085,61.049366525,57.0,71.0
242,60.80923485,61.307590312500004,52.0,66.0
243,60.414497850000004,61.4983798625,45.0,78.0
244,61.20397185,62.0674590375,64.0,88.0
245,61.20397185,62.253314375,61.0,100.0
246,61.59870885,62.345419675,57.0,72.0
247,62.78291985,63.003314675,57.0,90.0
248,62.98028835,63.1842358,50.0,65.0
249,62.78291985,63.258248987500004,62.0,97.0
250,62.78291985,63.2648279375,66.0,107.0
251,61.99344585,63.3996964125,38.0,86.0
252,62.38818285,63.57239385,45.0,58.0
253,63.17765685,64.0115387625,57.0,88.0
254,63.37502535,64.03292035,62.0,86.0
255,63.37502535,64.0477229875,66.0,89.0
256,63.57239385,64.4325915625,38.0,78.0
257,63.76976235,64.44081525,45.0,63.0
258,63.967130850000004,64.4950915875,50.0,78.0
259,64.16449935,64.5148284375,57.0,95.0
260,64.55923635,64.9523286125,62.0,78.0
261,64.75660485,65.1233813125,57.0,96.0
262,64.36186785,65.1365392125,66.0,117.0
263,65.74344735,66.0082500875,59.0,59.0
264,65.54607885,66.0608816875,54.0,67.0
265,66.13818435,66.2878554625,54.0,70.0
266,65.94081585,66.384894975,62.0,81.0
267,65.15134185,66.4161449875,47.0,78.0
268,65.94081585,66.6200924375,66.0,102.0
269,66.53292135,66.7500267,62.0,81.0
270,66.33555285,66.8207504125,59.0,92.0
271,66.73028985,67.73029025,40.0,77.0
272,67.12502685,67.7516718375,47.0,58.0
273,67.51976385,67.8569350375,52.0,56.0
274,67.51976385,68.240158875,67.0,92.0
275,67.51976385,68.2500273,64.0,95.0
276,67.91450085,68.371737875,59.0,77.0
277,68.90134335,69.1727250375,59.0,72.0
278,68.70397485,69.20397505,54.0,66.0
279,69.29608035,69.4029882875,54.0,88.0
280,68.30923785,69.4605541,47.0,81.0
281,69.09871185,69.858580575,66.0,100.0
282,69.09871185,69.9589095625,62.0,77.0
283,69.49344885000001,70.404633425,59.0,92.0
284,70.48029135,70.6233835125,59.0,36.0
285,70.48029135,70.7418046125,52.0,76.0
286,69.88818585,70.98522576250001,40.0,76.0
287,70.28292285,70.996738925,47.0,59.0
288,70.87502835,71.0937784375,52.0,81.0
289,70.67765985,71.11187055,64.0,93.0
290,70.67765985,71.4128575125,67.0,97.0
291,71.26976535,71.5016733375,64.0,88.0
292,71.07239685,71.5526602,59.0,99.0
293,71.86187085,72.332265775,52.0,64.0
294,72.25660785,72.71548961250001,60.0,93.0
295,72.45397635,72.904634425,52.0,70.0
296,71.46713385,72.9079239,45.0,97.0
297,72.25660785,72.9342397,64.0,95.0
298,72.65134485,72.96713445,57.0,95.0
299,73.04608185000001,73.549371525,64.0,93.0
300,73.04608185000001,73.7105558,61.0,97.0
301,73.04608185000001,73.720424225,57.0,89.0
302,73.44081885,73.8684506,52.0,66.0
303,74.03292435,74.1628586125,52.0,74.0
304,73.04608185000001,74.174371775,45.0,85.0
305,73.83555585,74.5543061375,61.0,112.0
306,73.83555585,74.5872008875,64.0,97.0
307,74.23029285,74.66450355,57.0,95.0
308,75.01976685,75.4523328125,50.0,96.0
309,75.21713535,75.6727276375,57.0,92.0
310,75.61187235,75.852004025,50.0,99.0
311,74.62502985,76.049372525,38.0,82.0
312,75.41450385,76.0641751625,66.0,127.0
313,75.80924085,76.0921357,62.0,107.0
314,76.00660935,76.128319925,57.0,112.0
315,74.82239835,76.2056225875,45.0,89.0
316,76.20397785,76.852004425,62.0,102.0
317,76.20397785,76.8635175875,66.0,100.0
318,76.20397785,76.865162325,57.0,122.0
319,76.59871485000001,76.9622018375,50.0,64.0
320,77.19082035,77.33555725000001,50.0,96.0
321,76.99345185,77.37174147500001,62.0,107.0
322,76.20397785,77.4194388625,38.0,97.0
323,76.99345185,77.7286495125,66.0,122.0
324,77.58555735,77.74016267500001,62.0,112.0
325,77.38818885,77.825689025,57.0,107.0
326,78.17766285,78.6497025125,48.0,100.0
327,78.37503135,78.7631894,55.0,107.0
328,77.78292585,78.8503604875,36.0,96.0
329,77.98029435,78.8635183875,43.0,102.0
330,78.76976835,78.97371580000001,48.0,97.0
331,78.57239985,79.299373825,64.0,117.0
332,78.96713685,79.30430803750001,60.0,112.0
333,79.16450535,79.365163325,55.0,100.0
334,79.75661085,79.937531975,55.0,97.0
335,79.95397935,80.1825978625,59.0,99.0
336,79.55924235,80.220426825,50.0,81.0
337,79.36187385,80.733584925,43.0,72.0
338,80.54608485,80.8816113,59.0,112.0
339,80.15134785000001,80.90134815,62.0,100.0
340,80.34871635,80.91450605,50.0,97.0
341,80.74345335,80.921085,55.0,92.0
342,81.33555885,81.5608878875,57.0,92.0
343,81.53292735,81.69082215,60.0,93.0
344,81.13819035,81.78950640000001,52.0,78.0
345,81.92766435,82.1266775875,52.0,88.0
346,80.94082185,82.1825986625,45.0,86.0
347,82.12503285,82.45233561250001,60.0,117.0
348,81.73029585,82.463848775,64.0,99.0
349,82.32240135,82.542796175,57.0,93.0
350,82.91450685,83.3931254625,55.0,88.0
351,83.11187535,83.50661235,59.0,95.0
352,83.50661235,83.634901875,55.0,97.0
353,82.71713835,83.6727308375,50.0,67.0
354,82.51976985,83.7187834875,43.0,75.0
355,83.30924385,83.977007275,67.0,100.0
356,83.70398085000001,83.9868757,62.0,102.0
357,83.90134935,84.1069415375,59.0,102.0
358,84.49345485,84.9424681875,48.0,88.0
359,84.09871785,85.128323525,36.0,81.0
360,84.69082335,85.134902475,55.0,92.0
361,84.29608635,85.1497051125,43.0,89.0
362,85.08556035,85.2895078,48.0,86.0
363,84.88819185,85.5707579125,64.0,102.0
364,85.28292885,85.6168105625,60.0,107.0
365,85.48029735,85.687534275,55.0,102.0
366,86.07240285,86.2714160875,55.0,89.0
367,86.26977135,86.437534575,59.0,97.0
368,86.46713985,86.490166175,61.0,66.0
369,85.87503435,86.5411530375,50.0,82.0
370,85.67766585,87.0921401,43.0,77.0
371,86.86187685,87.1595743375,59.0,102.0
372,86.46713985,87.161219075,62.0,102.0
373,86.66450835,87.1974033,50.0,78.0
374,87.05924535,87.233587525,55.0,92.0
375,87.25661385000001,87.6694429625,45.0,89.0
376,87.65135085,87.9490483375,64.0,97.0
377,87.84871935,88.026351,60.0,99.0
378,87.45398235,88.115166825,57.0,97.0
379,88.04608785,88.50661435,38.0,83.0
380,88.24345635,88.5904959625,45.0,86.0
381,88.63819335,88.779640775,57.0,39.0
382,88.44082485,88.8076013125,50.0,92.0
383,88.63819335,88.8536539625,62.0,89.0
384,89.23029885,89.45398315,55.0,90.0
385,89.42766735000001,89.65135165,59.0,96.0
386,89.03293035,89.680956925,50.0,75.0
387,88.83556185,89.9474044,43.0,83.0
388,89.82240435,89.9687859875,50.0,88.0
389,90.01977285,90.2763519,59.0,107.0
390,89.62503585,90.2845755875,62.0,99.0
391,90.21714135,90.8865495125,55.0,95.0
392,90.80924685000001,91.259904925,48.0,82.0
393,91.00661535,91.477010275,55.0,100.0
394,90.41450985,91.4786550125,36.0,85.0
395,90.61187835,91.5016813375,43.0,58.0
396,91.40135235,91.58556295,48.0,86.0
397,91.20398385,91.91286571250001,64.0,99.0
398,91.59872085,91.9556288875,60.0,97.0
399,91.79608935,92.003326275,55.0,97.0
400,92.38819485,92.6053002,55.0,86.0
401,92.58556335,92.7500371,59.0,95.0
402,92.19082635,92.845431875,50.0,75.0
403,91.99345785,93.3437873375,43.0,70.0
404,93.17766885,93.4951031875,59.0,99.0
405,92.78293185,93.4983926625,62.0,99.0
406,93.37503735,93.5658269,55.0,95.0
407,92.98030035000001,93.56911637500001,50.0,79.0
408,93.76977435,94.0181297125,52.0,89.0
409,93.57240585,94.049379725,45.0,88.0
410,94.16451135,94.3569456375,60.0,102.0
411,93.96714285,94.437537775,57.0,96.0
412,94.36187985,94.9622090375,38.0,83.0
413,94.55924835,95.03293275,45.0,76.0
414,94.75661685,95.154643325,50.0,92.0
415,94.95398535,95.1990512375,66.0,102.0
416,94.95398535,95.2056301875,62.0,99.0
417,95.54609085,95.7352356625,55.0,97.0
418,95.34872235,95.95398575,50.0,86.0
419,95.74345935,96.069117375,59.0,75.0
420,95.74345935,96.19082795,62.0,85.0
421,95.94082785,96.2451042875,55.0,99.0
422,96.13819635,96.29444641250001,50.0,97.0
423,95.15135385,96.3141832625,43.0,82.0
424,96.33556485,96.6727360375,62.0,97.0
425,96.33556485,96.7023413125,59.0,102.0
426,96.53293335000001,96.79115713750001,55.0,89.0
427,97.12503885,97.358591575,64.0,85.0
428,97.12503885,97.37503895,60.0,86.0
429,97.32240735,97.6299732625,48.0,65.0
430,96.73030185,97.773065425,36.0,86.0
431,96.92767035,97.805960175,43.0,79.0
432,97.71714435,97.9605655,48.0,78.0
433,97.51977585,97.9737234,55.0,88.0
434,97.91451285,98.1661576875,64.0,93.0
435,97.91451285,98.246749825,60.0,99.0
436,98.11188135,98.338855125,55.0,88.0
437,98.30924985,99.01813171250001,43.0,63.0
438,98.70398685,99.049381725,62.0,93.0
439,98.50661835,99.0806317375,50.0,86.0
440,98.70398685,99.0937896375,59.0,88.0
441,98.90135535,99.12503965,55.0,95.0
442,99.09872385,99.6842504,43.0,79.0
443,99.49346085,99.7747109625,62.0,83.0
444,99.49346085,99.7845793875,59.0,88.0
445,99.29609235,99.878329425,50.0,93.0
446,99.69082935,99.8799741625,55.0,97.0
447,100.08556635000001,100.33556645,52.0,93.0
448,99.88819785,100.358592775,45.0,92.0
449,100.28293485,100.575698125,64.0,93.0
450,100.28293485,100.6365534125,60.0,92.0
451,100.48030335,100.7089218625,57.0,85.0
452,100.67767185,101.1694483625,38.0,90.0
453,100.87504035,101.1974089,45.0,78.0
454,101.07240885,101.365172125,66.0,96.0
455,101.07240885,101.3898431875,62.0,90.0
456,101.26977735,101.4622116375,57.0,89.0
457,101.86188285,102.154646125,55.0,78.0
458,101.66451435,102.332277775,50.0,60.0
459,102.45398835,102.7089226625,50.0,35.0
460,101.46714585,103.0806333375,43.0,72.0
461,103.04609385,103.0806333375,43.0,58.0
462,102.65135685,103.121751775,55.0,76.0
463,103.04609385,103.121751775,55.0,49.0
464,102.25661985,103.1316202,62.0,88.0
465,103.04609385,103.1316202,62.0,52.0
466,102.05925135,103.14148862500001,59.0,67.0
467,103.04609385,103.5247124625,67.0,58.0
468,103.04609385,103.5247124625,67.0,85.0
469,103.44083085,103.845436275,74.0,93.0
470,103.83556785,104.2286601125,69.0,67.0
471,103.83556785,104.5131997,66.0,63.0
472,104.23030485,104.634910275,74.0,82.0
473,104.62504185,105.292805275,67.0,63.0
474,105.01977885,105.3421474,74.0,86.0
475,103.04609385,105.6710949,71.0,49.0
476,105.41451585,105.7747133625,69.0,75.0
477,103.83556785,105.8306344375,50.0,34.0
478,104.62504185,105.924384475,64.0,68.0
479,105.41451585,106.1069503375,62.0,56.0
480,105.80925285000001,106.2023451125,74.0,74.0
481,106.20398985,106.7944506125,67.0,62.0
482,106.20398985,106.7944506125,67.0,67.0
483,106.59872685,106.95070067500001,74.0,100.0
484,106.20398985,107.0641875625,62.0,63.0
485,106.99346385,107.42931928750001,69.0,66.0
486,107.38820085,107.773069425,74.0,81.0
487,107.78293785,108.17767485,67.0,65.0
488,107.78293785,108.44247758750001,64.0,45.0
489,108.17767485,108.549385525,74.0,70.0
490,106.20398985,108.694122425,71.0,63.0
491,108.57241185,109.042806775,69.0,64.0
492,106.20398985,109.1431357625,43.0,63.0
493,106.20398985,109.1628726125,55.0,66.0
494,106.99346385,109.2089252625,66.0,60.0
495,108.57241185,109.2500437,62.0,53.0
496,108.96714885,109.3339253125,74.0,82.0
497,109.36188585000001,109.76813601250001,67.0,65.0
498,109.36188585000001,109.76813601250001,67.0,82.0
499,109.75662285,110.1497151125,74.0,78.0
500,110.15135985,110.6036626625,69.0,69.0
501,109.36188585000001,110.608596875,62.0,58.0
502,110.54609685,110.9194522625,74.0,81.0
503,110.94083385,111.3602419125,67.0,65.0
504,110.94083385,111.55925515,64.0,59.0
505,111.33557085,111.73030785,74.0,69.0
506,109.36188585000001,111.9457684625,55.0,71.0
507,111.92767635,111.9457684625,55.0,42.0
508,111.73030785,112.213860675,69.0,66.0
509,109.36188585000001,112.4161633875,43.0,49.0
510,110.15135985,112.4753739375,66.0,60.0
511,109.75662285,112.500045,50.0,36.0
512,112.12504485,112.5049792125,74.0,72.0
513,112.51978185,112.917808325,67.0,62.0
514,112.51978185,112.917808325,67.0,63.0
515,112.91451885000001,113.3158348,74.0,67.0
516,111.73030785,113.3240584875,62.0,71.0
517,112.91451885000001,113.39313746250001,50.0,52.0
518,113.30925585,113.865177125,55.0,56.0
519,113.30925585,113.87504555,69.0,59.0
520,113.70399285,114.0839272125,74.0,71.0
521,113.70399285,114.25662465,50.0,39.0
522,114.09872985,114.6332695375,55.0,59.0
523,114.09872985,114.6365590125,64.0,68.0
524,114.49346685,114.9852433625,50.0,52.0
525,114.09872985,115.1135328875,67.0,70.0
526,112.51978185,115.59873045,43.0,72.0
527,114.88820385,115.6299804625,55.0,58.0
528,114.88820385,115.67767785,62.0,70.0
529,113.30925585,115.67767785,66.0,59.0
530,109.36188585000001,115.67767785,71.0,55.0
531,115.67767785,116.63820455,43.0,85.0
532,116.07241485,116.6447835,50.0,56.0
533,116.46715185000001,117.0789942,71.0,86.0
534,116.46715185000001,117.08557315,67.0,90.0
535,116.86188885,117.2122179375,62.0,73.0
536,117.84873135000001,117.9194550625,45.0,20.0
537,117.25662585,117.9424813875,38.0,88.0
538,117.65136285,118.134915675,62.0,85.0
539,117.65136285,118.13820515,66.0,86.0
540,117.65136285,118.1497183125,57.0,73.0
541,118.04609985,118.4622184375,50.0,61.0
542,118.44083685,118.6974159,66.0,95.0
543,118.44083685,118.71715275,62.0,92.0
544,118.44083685,118.78623172500001,57.0,78.0
545,118.83557385,119.3010345625,36.0,72.0
546,119.23031085,119.5609030875,55.0,83.0
547,119.23031085,119.5707715125,60.0,89.0
548,119.23031085,119.57735046250001,64.0,82.0
549,119.62504785,120.08557435,38.0,66.0
550,120.01978485000001,120.5082718875,62.0,97.0
551,120.01978485000001,120.5115613625,66.0,100.0
552,120.80925885,121.3289959,50.0,68.0
553,121.20399585,121.667811825,59.0,90.0
554,120.41452185,121.825706625,43.0,72.0
555,121.40136435,121.95399615,50.0,70.0
556,121.59873285,122.0000488,55.0,89.0
557,121.79610135,122.0181409125,59.0,62.0
558,121.20399585,122.029654075,62.0,93.0
559,121.99346985,122.5115621625,43.0,72.0
560,122.38820685,122.7056411875,55.0,70.0
561,122.38820685,122.72537803750001,62.0,92.0
562,122.38820685,122.727022775,59.0,85.0
563,123.17768085,123.51978625,62.0,86.0
564,123.17768085,123.5609046875,59.0,89.0
565,123.17768085,123.575707325,55.0,79.0
566,123.57241785000001,124.3339313125,38.0,73.0
567,123.96715485,124.3569576375,62.0,90.0
568,123.96715485,124.3602471125,66.0,88.0
569,123.96715485,124.36189185,57.0,82.0
570,124.36189185,124.9227473375,50.0,66.0
571,124.75662885,125.0789974,62.0,85.0
572,124.75662885,125.0789974,66.0,85.0
573,124.75662885,125.115181625,57.0,81.0
574,125.15136585,125.562550225,36.0,88.0
575,125.54610285,125.8701161375,64.0,82.0
576,125.54610285,125.8766950875,60.0,92.0
577,125.54610285,125.8964319375,55.0,83.0
578,125.94083985,126.2845899875,38.0,82.0
579,126.33557685,126.7352480625,66.0,88.0
580,126.33557685,126.7484059625,62.0,86.0
581,126.33557685,126.773077025,57.0,78.0
582,127.12505085000001,127.5789984,50.0,59.0
583,126.73031385,127.838866925,43.0,82.0
584,127.71715635,127.8438011375,50.0,74.0
585,127.51978785,127.957288025,59.0,92.0
586,127.51978785,128.2023539125,62.0,93.0
587,128.11189335,128.286235525,59.0,76.0
588,127.91452485,128.3931434625,55.0,90.0
589,128.70399885,129.1826174625,48.0,75.0
590,128.30926185,129.3668280625,36.0,82.0
591,128.50663035,129.4079465,43.0,78.0
592,129.29610435,129.496762325,48.0,65.0
593,128.90136735000002,129.5658413,55.0,79.0
594,129.49347285,129.93097302500001,60.0,74.0
595,129.09873585,129.9424861875,64.0,93.0
596,130.28294685,130.779657575,50.0,53.0
597,129.88820985,130.92768395,43.0,73.0
598,131.07242085000001,131.4326183625,59.0,79.0
599,130.67768385,131.4359078375,62.0,102.0
600,131.26978935,131.9293290875,55.0,60.0
601,131.46715785,132.450710875,36.0,82.0
602,131.86189485,132.457289825,43.0,40.0
603,132.25663185,132.6727504375,48.0,63.0
604,132.65136885,133.13492167500002,60.0,67.0
605,132.25663185,133.148079575,64.0,93.0
606,132.45400035,133.1661716875,55.0,77.0
607,133.44084285,133.970448325,50.0,55.0
608,133.04610585,134.1184747,43.0,73.0
609,133.83557985,134.5263696,62.0,107.0
610,134.03294835,134.57242225,59.0,59.0
611,134.23031685,134.7747249625,55.0,96.0
612,134.62505385,135.595448975,36.0,85.0
613,135.01979085,135.65137005,55.0,89.0
614,135.80926485,136.1891992125,60.0,93.0
615,135.41452785,136.21715975,64.0,100.0
616,136.20400185,136.6661730875,47.0,83.0
617,136.59873885,137.0707785125,59.0,100.0
618,136.99347585,137.4211076,40.0,82.0
619,137.38821285,137.7352524625,67.0,90.0
620,137.38821285,137.759923525,64.0,93.0
621,137.78294985,138.5543317375,45.0,85.0
622,138.17768685000001,138.6398580875,57.0,95.0
623,138.57242385,139.3240688875,50.0,53.0
624,138.57242385,139.33722678750001,66.0,99.0
625,138.57242385,139.338871525,62.0,93.0
626,138.96716085,139.36189785,57.0,86.0
627,139.36189785,142.0444647125,55.0,69.0
628,139.36189785,142.0642015625,71.0,71.0
629,139.36189785,142.0740699875,43.0,67.0
630,139.36189785,142.0773594625,67.0,76.0
631,139.36189785,142.1135436875,50.0,66.0
632,139.36189785,142.12505685,62.0,83.0
633,142.91453085,143.490188975,54.0,64.0
634,142.51979385,143.694136425,47.0,95.0
635,143.30926785,143.8207812125,62.0,95.0
636,143.30926785,144.12341291250002,66.0,97.0
637,143.90137335,144.1299918625,62.0,52.0
638,143.70400485,144.9161763875,59.0,83.0
639,144.09874185,145.04611065,40.0,77.0
640,144.49347885,145.13492647500001,47.0,58.0
641,144.88821585,145.2451238875,52.0,59.0
642,144.88821585,145.6316372,67.0,83.0
643,144.88821585,145.63328193750002,64.0,89.0
644,145.28295285000002,145.858610975,59.0,65.0
645,146.07242685,146.5411770375,54.0,65.0
646,145.67768985,146.6168349625,47.0,72.0
647,146.46716385,146.9984140625,66.0,93.0
648,146.46716385,147.38821685,62.0,82.0
649,146.86190085,147.7911775375,59.0,75.0
650,147.25663785,148.2549935125,40.0,62.0
651,147.65137485,148.2813093125,47.0,47.0
652,148.04611185,148.4161777875,52.0,69.0
653,148.04611185,148.71716475,67.0,83.0
654,148.04611185,148.7484147625,64.0,88.0
655,148.44084885,148.8684806,59.0,82.0
656,149.62505985,150.0395337,60.0,88.0
657,148.83558585,150.299402225,45.0,78.0
658,149.23032285,150.3964417375,52.0,53.0
659,149.62505985,150.8816393,64.0,82.0
660,150.01979685,151.049402525,57.0,71.0
661,150.80927085,151.3076263125,52.0,66.0
662,150.41453385,151.4984158625,45.0,78.0
663,151.20400785,152.0674950375,64.0,88.0
664,151.20400785,152.253350375,61.0,100.0
665,151.59874485,152.345455675,57.0,72.0
666,152.78295585,153.003350675,57.0,90.0
667,152.98032435,153.1842718,50.0,65.0
668,152.78295585,153.2582849875,62.0,97.0
669,152.78295585,153.2648639375,66.0,107.0
670,151.99348185,153.39973241250001,38.0,86.0
671,152.38821885000002,153.57242985,45.0,58.0
672,153.17769285,154.0115747625,57.0,88.0
673,153.37506135,154.03295635,62.0,86.0
674,153.37506135,154.0477589875,66.0,89.0
675,153.57242985,154.4326275625,38.0,78.0
676,153.76979835,154.44085125,45.0,63.0
677,153.96716685,154.4951275875,50.0,78.0
678,154.16453535,154.5148644375,57.0,95.0
679,154.55927235000001,154.9523646125,62.0,78.0
680,154.75664085,155.1234173125,57.0,96.0
681,154.36190385,155.1365752125,66.0,117.0
682,155.74348335,156.0082860875,59.0,59.0
683,155.54611485,156.0609176875,54.0,67.0
684,156.13822035,156.2878914625,54.0,70.0
685,155.94085185,156.384930975,62.0,81.0
686,155.15137785,156.4161809875,47.0,78.0
687,155.94085185,156.6201284375,66.0,102.0
688,156.53295735,156.7500627,62.0,81.0
689,156.33558885,156.8207864125,59.0,92.0
690,156.73032585,157.73032625,40.0,77.0
691,157.12506285,157.7517078375,47.0,58.0
692,157.51979985,157.8569710375,52.0,56.0
693,157.51979985,158.24019487500001,67.0,92.0
694,157.51979985,158.2500633,64.0,95.0
695,157.91453685,158.371773875,59.0,77.0
696,158.90137935,159.1727610375,59.0,72.0
697,158.70401085,159.20401105,54.0,66.0
698,159.29611635,159.4030242875,54.0,88.0
699,158.30927385,159.4605901,47.0,81.0
700,159.09874785,159.858616575,66.0,100.0
701,159.09874785,159.9589455625,62.0,77.0
702,159.49348485000002,160.404669425,59.0,92.0
703,160.48032735,160.6234195125,59.0,36.0
704,160.48032735,160.7418406125,52.0,76.0
705,159.88822185,160.9852617625,40.0,76.0
706,160.28295885,160.996774925,47.0,59.0
707,160.87506435,161.09381443750001,52.0,81.0
708,160.67769585,161.11190655000001,64.0,93.0
709,160.67769585,161.4128935125,67.0,97.0
710,161.26980135,161.5017093375,64.0,88.0
711,161.07243285,161.5526962,59.0,99.0
712,161.86190685,162.332301775,52.0,64.0
713,162.25664385,162.7155256125,60.0,93.0
714,162.45401235,162.904670425,52.0,70.0
715,161.46716985,162.9079599,45.0,97.0
716,162.25664385,162.9342757,64.0,95.0
717,162.65138085,162.96717045,57.0,95.0
718,163.04611785,163.549407525,64.0,93.0
719,163.04611785,163.7105918,61.0,97.0
720,163.04611785,163.720460225,57.0,89.0
721,163.44085485,163.8684866,52.0,66.0
722,164.03296035,164.1628946125,52.0,74.0
723,163.04611785,164.174407775,45.0,85.0
724,163.83559185000001,164.55434213750002,61.0,112.0
725,163.83559185000001,164.5872368875,64.0,97.0
726,164.23032885,164.66453955,57.0,95.0
727,165.01980285,165.4523688125,50.0,96.0
728,165.21717135,165.6727636375,57.0,92.0
729,165.61190835,165.852040025,50.0,99.0
730,164.62506585,166.049408525,38.0,82.0
731,165.41453985,166.06421116250002,66.0,127.0
732,165.80927685,166.0921717,62.0,107.0
733,166.00664535,166.128355925,57.0,112.0
734,164.82243435,166.2056585875,45.0,89.0
735,166.20401385,166.852040425,62.0,102.0
736,166.20401385,166.8635535875,66.0,100.0
737,166.20401385,166.865198325,57.0,122.0
738,166.59875085000002,166.9622378375,50.0,64.0
739,167.19085635,167.33559325,50.0,96.0
740,166.99348785,167.37177747500002,62.0,107.0
741,166.20401385,167.4194748625,38.0,97.0
742,166.99348785,167.7286855125,66.0,122.0
743,167.58559335,167.740198675,62.0,112.0
744,167.38822485,167.825725025,57.0,107.0
745,168.157962,168.6300016625,48.0,100.0
746,168.3553305,168.74348855,55.0,107.0
747,167.763225,168.8306596375,36.0,96.0
748,167.96059350000002,168.8438175375,43.0,102.0
749,168.7500675,168.95401495000002,48.0,97.0
750,168.552699,169.279672975,64.0,117.0
751,168.947436,169.2846071875,60.0,112.0
752,169.1448045,169.345462475,55.0,100.0
753,169.73691,169.917831125,55.0,97.0
754,169.9342785,170.1628970125,59.0,99.0
755,169.5395415,170.200725975,50.0,81.0
756,169.342173,170.713884075,43.0,72.0
757,170.526384,170.86191045,59.0,112.0
758,170.13164700000002,170.8816473,62.0,100.0
759,170.3290155,170.8948052,50.0,97.0
760,170.7237525,170.90138415,55.0,92.0
761,171.315858,171.5411870375,57.0,92.0
762,171.5132265,171.6711213,60.0,93.0
763,171.1184895,171.76980555,52.0,78.0
764,171.9079635,172.1069767375,52.0,88.0
765,170.921121,172.1628978125,45.0,86.0
766,172.105332,172.43263476250002,60.0,117.0
767,171.710595,172.444147925,64.0,99.0
768,172.30270050000001,172.523095325,57.0,93.0
769,172.894806,173.3734246125,55.0,88.0
770,173.0921745,173.4869115,59.0,95.0
771,173.4869115,173.615201025,55.0,97.0
772,172.6974375,173.6530299875,50.0,67.0
773,172.500069,173.6990826375,43.0,75.0
774,173.289543,173.957306425,67.0,100.0
775,173.68428,173.96717485,62.0,102.0
776,173.8816485,174.0872406875,59.0,102.0
777,174.473754,174.9227673375,48.0,88.0
778,174.079017,175.108622675,36.0,81.0
779,174.6711225,175.115201625,55.0,92.0
780,174.2763855,175.1300042625,43.0,89.0
781,175.06585950000002,175.26980695,48.0,86.0
782,174.868491,175.5510570625,64.0,102.0
783,175.263228,175.59710971250001,60.0,107.0
784,175.4605965,175.667833425,55.0,102.0
785,176.052702,176.2517152375,55.0,89.0
786,176.2500705,176.417833725,59.0,97.0
787,175.8553335,176.5214521875,50.0,82.0
788,175.657965,177.07243925,43.0,77.0
789,176.842176,177.1398734875,59.0,102.0
790,176.447439,177.141518225,62.0,102.0
791,176.6448075,177.17770245,50.0,78.0
792,177.0395445,177.213886675,55.0,92.0
793,177.23691300000002,177.6497421125,45.0,89.0
794,177.63165,177.9293474875,64.0,97.0
795,177.8290185,178.00665015,60.0,99.0
796,177.4342815,178.095465975,57.0,97.0
797,178.026387,178.4869135,38.0,83.0
798,178.2237555,178.5707951125,45.0,86.0
799,178.6184925,178.759939925,57.0,39.0
800,178.421124,178.7879004625,50.0,92.0
801,178.6184925,178.8339531125,62.0,89.0
802,179.210598,179.4342823,55.0,90.0
803,179.40796650000001,179.6316508,59.0,96.0
804,179.0132295,179.661256075,50.0,75.0
805,178.815861,179.92770355,43.0,83.0
806,179.8027035,179.9490851375,50.0,88.0
807,180.000072,180.25665105,59.0,107.0
808,179.605335,180.2648747375,62.0,99.0
809,180.1974405,180.8668486625,55.0,95.0
810,180.789546,181.240204075,48.0,82.0
811,180.9869145,181.457309425,55.0,100.0
812,180.394809,181.4589541625,36.0,85.0
813,180.5921775,181.4819804875,43.0,58.0
814,181.3816515,181.5658621,48.0,86.0
815,181.184283,181.89316486250002,64.0,99.0
816,181.57902,181.9359280375,60.0,97.0
817,181.7763885,181.983625425,55.0,97.0
818,182.368494,182.58559935,55.0,86.0
819,182.5658625,182.73033625,59.0,95.0
820,182.1711255,182.825731025,50.0,75.0
821,181.973757,183.3240864875,43.0,70.0
822,183.157968,183.47540233750001,59.0,99.0
823,182.763231,183.4786918125,62.0,99.0
824,183.3553365,183.54612605,55.0,95.0
825,182.9605995,183.549415525,50.0,79.0
826,183.7500735,183.9984288625,52.0,89.0
827,183.552705,184.029678875,45.0,88.0
828,184.1448105,184.3372447875,60.0,102.0
829,183.947442,184.417836925,57.0,96.0
830,184.34217900000002,184.9425081875,38.0,83.0
831,184.5395475,185.0132319,45.0,76.0
832,184.736916,185.134942475,50.0,92.0
833,184.9342845,185.1793503875,66.0,102.0
834,184.9342845,185.1859293375,62.0,99.0
835,185.52639,185.7155348125,55.0,97.0
836,185.3290215,185.9342849,50.0,86.0
837,185.7237585,186.049416525,59.0,75.0
838,185.7237585,186.1711271,62.0,85.0
839,185.921127,186.2254034375,55.0,99.0
840,186.1184955,186.27474556250002,50.0,97.0
841,185.131653,186.2944824125,43.0,82.0
842,186.315864,186.6530351875,62.0,97.0
843,186.315864,186.6826404625,59.0,102.0
844,186.51323250000002,186.7714562875,55.0,89.0
845,187.105338,187.338890725,64.0,85.0
846,187.105338,187.3553381,60.0,86.0
847,187.3027065,187.6102724125,48.0,65.0
848,186.710601,187.753364575,36.0,86.0
849,186.9079695,187.786259325,43.0,79.0
850,187.6974435,187.94086465,48.0,78.0
851,187.500075,187.95402255,55.0,88.0
852,187.894812,188.1464568375,64.0,93.0
853,187.894812,188.227048975,60.0,99.0
854,188.0921805,188.319154275,55.0,88.0
855,188.289549,188.99843086250002,43.0,63.0
856,188.68428600000001,189.029680875,62.0,93.0
857,188.4869175,189.0609308875,50.0,86.0
858,188.68428600000001,189.0740887875,59.0,88.0
859,188.8816545,189.1053388,55.0,95.0
860,189.079023,189.66454955,43.0,79.0
861,189.47376,189.7550101125,62.0,83.0
862,189.47376,189.7648785375,59.0,88.0
863,189.2763915,189.858628575,50.0,93.0
864,189.6711285,189.8602733125,55.0,97.0
865,190.0658655,190.3158656,52.0,93.0
866,189.868497,190.338891925,45.0,92.0
867,190.263234,190.555997275,64.0,93.0
868,190.263234,190.61685256250001,60.0,92.0
869,190.4606025,190.6892210125,57.0,85.0
870,190.657971,191.1497475125,38.0,90.0
871,190.8553395,191.17770805,45.0,78.0
872,191.052708,191.345471275,66.0,96.0
873,191.052708,191.3701423375,62.0,90.0
874,191.26981335,191.4622476375,57.0,89.0
875,191.842182,192.134945275,55.0,78.0
876,191.6448135,192.312576925,50.0,60.0
877,192.4342875,192.6892218125,50.0,35.0
878,191.44744500000002,193.026393,43.0,72.0
879,192.631656,193.026393,55.0,76.0
880,192.0395505,193.026393,59.0,67.0
881,192.236919,193.026393,62.0,88.0
882,193.42113,193.8833012375,55.0,76.0
883,193.61849850000002,194.2813277125,62.0,83.0
884,193.026393,194.4918541125,43.0,81.0
885,194.0132355,194.555998875,55.0,71.0
886,193.2237615,194.6333015375,50.0,43.0
887,194.4079725,195.0477753875,62.0,69.0
888,194.210604,195.12507805,59.0,60.0
889,195.000078,195.4606045,55.0,68.0
890,195.5921835,195.944157325,55.0,64.0
891,194.605341,195.99349945,43.0,69.0
892,194.8027095,196.1300126625,50.0,41.0
893,195.78955200000001,196.641526025,62.0,69.0
894,195.9869205,196.713894475,59.0,55.0
895,196.579026,197.0313288125,55.0,74.0
896,196.7763945,197.4096184375,62.0,71.0
897,196.184289,197.6727764375,43.0,60.0
898,197.1711315,197.7583027875,55.0,57.0
899,196.3816575,197.792842275,50.0,48.0
900,195.1974465,198.227052975,67.0,83.0
901,197.5658685,198.246789825,62.0,61.0
902,197.3685,198.2944872125,59.0,66.0
903,198.157974,198.6201452375,55.0,62.0
904,198.3553425,198.720474225,59.0,32.0
905,197.763237,199.21389547500002,43.0,62.0
906,198.7500795,199.34382973750002,55.0,58.0
907,197.9606055,199.36192185000002,50.0,42.0
908,198.947448,199.832316775,62.0,61.0
909,198.3553425,199.8421852,67.0,73.0
910,199.736922,200.1859353375,55.0,75.0
911,199.342185,200.79613295000001,43.0,81.0
912,199.5395535,200.9194882625,50.0,59.0
913,200.3290275,200.950738275,55.0,61.0
914,200.526396,201.3208042125,59.0,66.0
915,200.72376450000002,201.3685016,67.0,66.0
916,199.9342905,201.4293568875,62.0,81.0
917,201.31587,201.759949125,55.0,66.0
918,200.921133,202.325738825,43.0,66.0
919,201.9079755,202.4589625625,55.0,60.0
920,201.1185015,202.48034415,50.0,47.0
921,201.5132385,202.9622522375,62.0,71.0
922,202.105344,203.0379101625,59.0,61.0
923,202.89481800000001,203.279686575,55.0,66.0
924,203.0921865,203.7763973,62.0,77.0
925,202.500081,203.911265775,43.0,70.0
926,202.6974495,204.0115947625,50.0,57.0
927,203.4869235,204.0148842375,55.0,56.0
928,204.079029,205.7517270375,43.0,56.0
929,204.079029,205.845477075,50.0,52.0
930,204.079029,205.8504112875,55.0,62.0
931,203.8816605,205.8635691875,67.0,49.0
932,203.684292,205.8833060375,59.0,61.0
933,203.8816605,205.8948192,62.0,69.0
934,206.2221219625,210.46718945,50.0,46.0
935,206.25666145,210.4688341875,55.0,38.0
936,206.1694903625,210.48034735000002,43.0,52.0
937,206.3142272625,210.5000842,62.0,56.0
938,206.233635125,210.5050184125,59.0,39.0
939,206.3800167625,210.509952625,67.0,71.0
