,start,end,pitch,velocity
0,21.269380954166667,21.531234210416667,59.0,84.0
1,21.528001454166667,21.794165052083333,57.0,79.0
2,21.786621954166666,22.341578443750002,59.0,84.0
3,22.303862954166668,22.870672883333334,62.0,94.0
4,22.821103954166666,23.396534566666666,64.0,80.0
5,23.33834495416667,23.627137845833335,59.0,77.0
6,23.596965454166668,24.91485241875,62.0,85.0
7,25.148688454166667,25.38467966041667,59.0,79.0
8,25.407308954166666,25.63252430625,62.0,85.0
9,25.66592945416667,25.928860295833335,64.0,78.0
10,25.924549954166668,26.300627264583333,67.0,79.0
11,26.441790954166667,26.85450616875,67.0,80.0
12,26.95903195416667,27.202566258333334,67.0,78.0
13,27.217652454166668,27.713341745833333,69.0,81.0
14,27.734893454166667,27.969807075000002,71.0,80.0
15,27.99351395416667,28.434246389583336,62.0,92.0
16,28.510754954166668,29.437478412500003,62.0,82.0
17,29.803857454166668,29.98165904791667,62.0,85.0
18,30.062477954166667,30.307089843750003,64.0,80.0
19,30.321098454166666,30.498900047916667,64.0,80.0
20,30.57971895416667,30.783382597916667,64.0,85.0
21,30.838339454166668,30.974115216666668,62.0,82.0
22,31.096959954166667,31.355580454166667,64.0,80.0
23,31.355580454166667,31.73381293541667,71.0,82.0
24,31.87282145416667,32.338338354166666,69.0,80.0
25,32.39006245416667,32.60450195208333,67.0,78.0
26,32.64868295416667,32.825406962500004,69.0,82.0
27,32.907303454166666,33.11096709791667,71.0,79.0
28,33.165923954166665,33.40514791666667,69.0,81.0
29,33.42454445416667,33.97842335833334,67.0,84.0
30,34.20040595416667,34.610965997916665,64.0,85.0
31,34.71764695416667,35.081870825,67.0,82.0
32,35.234887954166666,35.443939525000005,67.0,82.0
33,35.493508454166665,35.95579259791667,64.0,83.0
34,36.01074945416667,37.48919664583333,69.0,79.0
35,37.821092954166666,37.99242903541667,71.0,80.0
36,38.079713454166665,38.23811851041667,69.0,81.0
37,38.33833395416667,38.72087677708333,71.0,84.0
38,38.85557495416667,39.18531609166667,71.0,83.0
39,39.37281595416667,39.78337599791667,71.0,83.0
40,39.89005695416667,40.109884379166665,64.0,82.0
41,40.148677454166666,41.67992633125,67.0,79.0
42,41.95902095416667,42.165917354166666,64.0,80.0
43,42.21764145416667,42.45794300208333,62.0,85.0
44,42.47626195416667,42.646520450000004,71.0,81.0
45,42.734882454166666,43.078632202083334,71.0,81.0
46,43.25212345416667,43.92884709583333,71.0,81.0
47,44.02798495416667,44.248889964583334,64.0,83.0
48,44.28660545416667,45.062466954166666,69.0,79.0
49,45.062466954166666,46.09694895416667,67.0,79.0
50,46.09694895416667,46.27475054791667,64.0,82.0
51,46.35556945416667,46.53013829166667,67.0,80.0
52,46.61418995416667,46.991344850000004,69.0,79.0
53,47.13143095416667,47.5344479,69.0,79.0
54,47.648671954166666,48.011818239583334,69.0,79.0
55,48.16591295416667,48.338326620833335,71.0,82.0
56,48.42453345416667,49.83186000833334,64.0,82.0
57,49.976256454166666,50.133583925,62.0,80.0
58,50.234876954166666,50.391126839583336,64.0,82.0
59,50.49349745416667,50.676686975,67.0,80.0
60,50.75211795416667,51.4202209125,69.0,80.0
61,51.52797945416667,52.22409963333334,71.0,79.0
62,52.30384095416667,52.543064916666665,64.0,79.0
63,52.562461454166666,53.98918454583333,62.0,87.0
64,54.37280495416667,54.63465821041667,59.0,84.0
65,54.63142545416667,54.89758905208333,57.0,79.0
66,54.890045954166666,55.44500244375,59.0,84.0
67,55.40728695416667,55.97409688333334,62.0,94.0
68,55.92452795416667,56.49995856666667,64.0,80.0
69,56.44176895416667,56.730561845833336,59.0,77.0
70,56.70038945416667,58.018276418750006,62.0,85.0
71,58.25211245416667,58.48810366041667,62.0,79.0
72,58.51073295416667,58.73594830625,62.0,85.0
73,58.76935345416667,59.032284295833335,64.0,78.0
74,59.02797395416667,59.40405126458334,67.0,79.0
75,59.54521495416667,59.95793016875,67.0,80.0
76,60.062455954166666,60.30599025833334,67.0,78.0
77,60.32107645416667,60.81676574583334,69.0,81.0
78,60.83831745416667,61.073231075,71.0,80.0
79,61.09693795416667,61.53767038958333,62.0,92.0
80,61.61417895416667,62.5409024125,62.0,82.0
81,62.64866095416667,62.90728145416667,64.0,79.0
82,62.90728145416667,63.08508304791667,62.0,85.0
83,63.16590195416667,63.41051384375,64.0,80.0
84,63.42452245416667,63.60232404791667,64.0,80.0
85,63.68314295416667,63.88680659791667,64.0,85.0
86,63.94176345416667,64.07753921666666,62.0,82.0
87,64.20038395416667,64.45900445416667,64.0,80.0
88,64.45900445416667,64.83723693541667,71.0,82.0
89,64.97624545416667,65.44176235416667,69.0,80.0
90,65.49348645416667,65.70792595208333,67.0,78.0
91,65.75210695416666,65.9288309625,69.0,82.0
92,66.01072745416667,66.21439109791667,71.0,79.0
93,66.26934795416668,66.50857191666667,69.0,81.0
94,66.52796845416667,67.08184735833333,67.0,84.0
95,67.30382995416667,67.71438999791667,64.0,85.0
96,67.82107095416667,68.185294825,67.0,82.0
97,68.33831195416667,68.54736352500001,67.0,82.0
98,68.59693245416666,69.05921659791667,64.0,83.0
99,69.11417345416668,70.59262064583334,69.0,79.0
100,70.92451695416666,71.09585303541667,71.0,80.0
101,71.18313745416667,71.34154251041667,69.0,81.0
102,71.44175795416668,71.82430077708334,71.0,84.0
103,71.95899895416667,72.28874009166667,71.0,83.0
104,72.47623995416667,72.88679999791667,71.0,83.0
105,72.99348095416667,73.21330837916668,64.0,82.0
106,73.25210145416666,74.78335033125,67.0,79.0
107,75.06244495416666,75.26934135416667,64.0,80.0
108,75.32106545416667,75.56136700208333,62.0,85.0
109,75.57968595416666,75.74994445,71.0,81.0
110,75.83830645416667,76.18205620208333,71.0,81.0
111,76.35554745416667,77.03227109583334,71.0,81.0
112,77.13140895416667,77.35231396458333,64.0,83.0
113,77.39002945416667,78.16589095416667,69.0,79.0
114,78.16589095416667,79.20037295416667,67.0,79.0
115,79.20037295416667,79.37817454791667,64.0,82.0
116,79.45899345416667,79.63356229166666,67.0,80.0
117,79.71761395416667,80.09476885000001,69.0,79.0
118,80.23485495416666,80.63787190000001,69.0,79.0
119,80.75209595416666,81.11524223958334,69.0,79.0
120,81.26933695416668,81.44175062083333,71.0,82.0
121,81.52795745416667,82.93528400833334,64.0,82.0
122,83.07968045416666,83.237007925,62.0,80.0
123,83.33830095416667,83.49455083958334,64.0,82.0
124,83.59692145416668,83.780110975,67.0,80.0
125,83.85554195416667,84.5236449125,69.0,80.0
126,84.63140345416667,85.32752363333334,71.0,79.0
127,85.40726495416666,85.92450595416668,69.0,79.0
128,85.92450595416668,87.09260854583334,67.0,87.0
129,89.54519295416667,89.75963245208334,67.0,81.0
130,89.80381345416667,90.03333914791666,69.0,80.0
131,90.06243395416666,90.22945969375,71.0,79.0
132,90.32105445416667,90.45790780208334,71.0,77.0
133,90.57967495416668,90.788726525,71.0,82.0
134,90.83829545416667,91.05920046458334,69.0,82.0
135,91.09691595416668,91.32320889166667,71.0,81.0
136,91.35553645416667,91.53333804791667,74.0,80.0
137,91.61415695416667,91.77579476666666,76.0,79.0
138,91.87277745416667,92.27794957083334,71.0,76.0
139,92.39001845416666,92.56243212083334,71.0,82.0
140,92.64863895416667,92.79519057083334,69.0,80.0
141,92.90725945416666,93.06889726666667,67.0,80.0
142,93.16587995416667,93.33721603541667,69.0,80.0
143,93.42450045416668,93.68312095416667,71.0,85.0
144,93.68312095416667,94.20036195416667,74.0,79.0
145,94.20036195416667,94.71760295416667,69.0,79.0
146,94.71760295416667,95.12493024166668,71.0,80.0
147,95.23484395416666,95.66156777916667,69.0,80.0
148,95.75208495416668,96.00316235625,67.0,81.0
149,96.01070545416667,97.45898025416668,64.0,82.0
150,98.33828995416667,98.49669501041667,64.0,82.0
151,98.59691045416668,98.75962585208333,64.0,80.0
152,98.85553095416667,99.00100498541667,64.0,84.0
153,99.11415145416667,99.27578926666666,62.0,82.0
154,99.37277195416667,99.607685575,64.0,85.0
155,99.63139245416667,100.10660762291667,67.0,80.0
156,100.14863345416667,100.54949522916667,71.0,72.0
157,100.66587445416667,100.84798638958334,71.0,81.0
158,100.92449495416668,101.08074483958333,71.0,78.0
159,101.18311545416667,101.39647736666667,69.0,84.0
160,101.44173595416667,101.62923581666666,71.0,83.0
161,101.70035645416667,102.17664920833333,62.0,78.0
162,102.47621795416667,102.71436433125001,64.0,84.0
163,102.73483845416668,102.88139007083333,62.0,85.0
164,102.99345895416667,103.14539849791667,64.0,80.0
165,103.25207945416668,103.42018277916667,67.0,79.0
166,103.51069995416667,103.67772569375,69.0,82.0
167,103.76932045416667,103.97082892708333,71.0,82.0
168,104.02794095416667,104.20035462083334,69.0,79.0
169,104.28656145416667,104.46436304791668,67.0,80.0
170,104.54518195416667,105.62815529791668,69.0,84.0
171,106.09690495416667,106.31134445208333,67.0,81.0
172,106.35552545416667,106.58505114791667,69.0,80.0
173,106.61414595416667,106.78117169375001,71.0,79.0
174,106.87276645416667,107.00961980208334,71.0,77.0
175,107.13138695416667,107.34043852500001,71.0,82.0
176,107.39000745416666,107.61091246458334,69.0,82.0
177,107.64862795416667,107.87492089166668,71.0,81.0
178,107.90724845416668,108.08505004791667,74.0,80.0
179,108.16586895416667,108.32750676666667,76.0,79.0
180,108.42448945416668,108.82966157083334,71.0,76.0
181,108.94173045416667,109.11414412083334,71.0,82.0
182,109.20035095416667,109.34690257083334,69.0,80.0
183,109.45897145416667,109.62060926666668,67.0,80.0
184,109.71759195416666,109.88892803541667,69.0,80.0
185,109.97621245416667,110.23483295416668,71.0,85.0
186,110.23483295416668,110.75207395416668,74.0,79.0
187,110.75207395416668,111.26931495416667,69.0,79.0
188,111.26931495416667,111.67664224166667,71.0,80.0
189,111.78655595416667,112.21367928541666,69.0,80.0
190,112.30443113541666,112.55615948124999,67.0,81.0
191,112.56372213541667,114.01575173541667,64.0,82.0
192,114.89734113541667,115.05615687291666,64.0,82.0
193,115.15663213541667,115.31976938958333,64.0,80.0
194,115.41592313541666,115.56177432291666,64.0,84.0
195,115.67521413541667,115.83727101041667,62.0,82.0
196,115.93450513541667,116.17002779375,64.0,85.0
197,116.19379613541666,116.67024334791667,67.0,80.0
198,116.71237813541667,117.11427918541666,71.0,72.0
199,117.23096013541667,117.41354421458333,71.0,81.0
200,117.49025113541667,117.64690611458333,71.0,78.0
201,117.74954213541666,117.96345721041666,69.0,84.0
202,118.00883313541667,118.19681911041667,71.0,83.0
203,118.26812413541667,118.52741513541666,62.0,78.0
204,118.52741513541666,118.78670613541667,62.0,78.0
205,118.78670613541667,119.04599713541667,62.0,78.0
206,119.04599713541667,119.56457913541666,71.0,84.0
207,119.56457913541666,120.86103413541666,69.0,79.0
208,122.15748913541667,122.62637369375,64.0,78.0
209,122.67607113541666,123.19033161875,62.0,84.0
210,123.19465313541667,125.21172103958332,67.0,64.0
211,139.26914739791664,139.53100065416666,59.0,84.0
212,139.52776789791665,139.79393149583333,57.0,79.0
213,139.78638839791665,140.3413448875,59.0,84.0
214,140.30362939791667,140.87043932708332,62.0,94.0
215,140.82087039791665,141.39630101041666,64.0,80.0
216,141.33811139791666,141.6269042895833,59.0,77.0
217,141.59673189791664,142.9146188625,62.0,85.0
218,143.14845489791665,143.38444610416664,62.0,79.0
219,143.40707539791666,143.63229074999998,62.0,85.0
220,143.66569589791666,143.9286267395833,64.0,78.0
221,143.92431639791664,144.30039370833333,67.0,79.0
222,144.44155739791665,144.85427261249998,67.0,80.0
223,144.95879839791667,145.2023327020833,67.0,78.0
224,145.21741889791664,145.71310818958332,69.0,81.0
225,145.73465989791666,145.96957351875,71.0,80.0
226,145.99328039791666,146.43401283333333,62.0,92.0
227,146.51052139791665,147.43724485624998,62.0,82.0
228,147.54500339791664,147.80362389791665,64.0,79.0
229,147.80362389791665,147.98142549166664,62.0,85.0
230,148.06224439791666,148.30685628749998,64.0,80.0
231,148.32086489791666,148.49866649166665,64.0,80.0
232,148.57948539791664,148.78314904166666,64.0,85.0
233,148.83810589791665,148.97388166041665,62.0,82.0
234,149.09672639791665,149.35534689791666,64.0,80.0
235,149.35534689791666,149.73357937916666,71.0,82.0
236,149.87258789791665,150.33810479791666,69.0,80.0
237,150.38982889791666,150.60426839583332,67.0,78.0
238,150.64844939791666,150.82517340624997,69.0,82.0
239,150.90706989791664,151.11073354166666,71.0,79.0
240,151.16569039791665,151.40491436041665,69.0,81.0
241,151.42431089791665,151.9781898020833,67.0,84.0
242,152.20017239791665,152.61073244166664,64.0,85.0
243,152.71741339791666,153.08163726875,67.0,82.0
244,153.23465439791664,153.44370596874998,67.0,82.0
245,153.49327489791665,153.95555904166665,64.0,83.0
246,154.01051589791666,155.4889630895833,69.0,79.0
247,155.82085939791665,155.99219547916664,71.0,80.0
248,156.07947989791666,156.23788495416665,69.0,81.0
249,156.33810039791666,156.72064322083332,71.0,84.0
250,156.85534139791665,157.18508253541665,71.0,83.0
251,157.37258239791666,157.78314244166666,71.0,83.0
252,157.88982339791664,158.10965082291665,64.0,82.0
253,158.14844389791665,159.67969277499998,67.0,79.0
254,159.95878739791667,160.16568379791664,64.0,80.0
255,160.21740789791664,160.45770944583333,62.0,85.0
256,160.47602839791665,160.64628689375,71.0,81.0
257,160.73464889791666,161.07839864583332,71.0,81.0
258,161.25188989791667,161.92861353958332,71.0,81.0
259,162.02775139791666,162.24865640833332,64.0,83.0
260,162.28637189791667,163.06223339791666,69.0,79.0
261,163.06223339791666,164.09671539791665,67.0,79.0
262,164.09671539791665,164.27451699166664,64.0,82.0
263,164.35533589791666,164.52990473541666,67.0,80.0
264,164.61395639791667,164.99111129374998,69.0,79.0
265,165.13119739791665,165.53421434375,69.0,79.0
266,165.64843839791666,166.01158468333333,69.0,79.0
267,166.16567939791665,166.33809306458332,71.0,82.0
268,166.42429989791665,167.83162645208333,64.0,82.0
269,167.97602289791666,168.13335036874997,62.0,80.0
270,168.23464339791667,168.39089328333333,64.0,82.0
271,168.49326389791665,168.67645341875,67.0,80.0
272,168.75188439791665,169.41998735624998,69.0,80.0
273,169.52774589791665,170.22386607708333,71.0,79.0
274,170.30360739791666,170.82084839791665,69.0,79.0
275,170.82084839791665,171.98895098958332,67.0,87.0
276,174.44153539791665,174.6559748958333,67.0,81.0
277,174.70015589791666,174.92968159166665,69.0,80.0
278,174.95877639791667,175.1258021375,71.0,79.0
279,175.21739689791667,175.35425024583333,71.0,77.0
280,175.47601739791665,175.68506896875,71.0,82.0
281,175.73463789791666,175.9555429083333,69.0,82.0
282,175.99325839791666,176.21955133541667,71.0,81.0
283,176.25187889791664,176.42968049166666,74.0,80.0
284,176.51049939791665,176.67213721041665,76.0,79.0
285,176.76911989791665,177.17429201458333,71.0,76.0
286,177.28636089791667,177.45877456458334,71.0,82.0
287,177.54498139791667,177.6915330145833,69.0,80.0
288,177.80360189791665,177.96523971041665,67.0,80.0
289,178.06222239791666,178.23355847916665,69.0,80.0
290,178.32084289791666,178.57946339791664,71.0,85.0
291,178.57946339791664,179.09670439791665,74.0,79.0
292,179.09670439791665,179.61394539791667,69.0,79.0
293,179.61394539791667,180.02127268541665,71.0,80.0
294,180.13118639791665,180.55791022291666,69.0,80.0
295,180.64842739791666,180.8995048,67.0,81.0
296,180.90704789791664,182.35532269791665,64.0,82.0
297,183.23463239791664,183.39303745416666,64.0,82.0
298,183.49325289791665,183.65596829583333,64.0,80.0
299,183.75187339791665,183.89734742916664,64.0,84.0
300,184.01049389791666,184.17213171041666,62.0,82.0
301,184.26911439791667,184.50402801874998,64.0,85.0
302,184.52773489791667,185.00295006666664,67.0,80.0
303,185.04497589791666,185.44583767291664,71.0,72.0
304,185.56221689791664,185.74432883333333,71.0,81.0
305,185.82083739791665,185.97708728333333,71.0,78.0
306,186.07945789791665,186.29281981041666,69.0,84.0
307,186.33807839791666,186.52557826041667,71.0,83.0
308,186.59669889791667,187.07299165208332,62.0,78.0
309,187.37256039791666,187.61070677499998,64.0,84.0
310,187.63118089791666,187.7777325145833,62.0,85.0
311,187.88980139791664,188.04174094166666,64.0,80.0
312,188.14842189791665,188.31652522291665,67.0,79.0
313,188.40704239791665,188.57406813749998,69.0,82.0
314,188.66566289791666,188.86717137083332,71.0,82.0
315,188.92428339791667,189.09669706458334,69.0,79.0
316,189.18290389791665,189.36070549166666,67.0,80.0
317,189.44152439791665,190.52449774166666,69.0,84.0
318,190.99324739791666,191.20768689583332,67.0,81.0
319,191.25186789791667,191.48139359166666,69.0,80.0
320,191.51048839791665,191.6775141375,71.0,79.0
321,191.76910889791665,191.90596224583334,71.0,77.0
322,192.02772939791666,192.23678096875,71.0,82.0
323,192.28634989791666,192.50725490833332,69.0,82.0
324,192.54497039791664,192.77126333541665,71.0,81.0
325,192.80359089791665,192.98139249166667,74.0,80.0
326,193.06221139791666,193.22384921041666,76.0,79.0
327,193.32083189791666,193.72600401458334,71.0,76.0
328,193.83807289791665,194.01048656458332,71.0,82.0
329,194.09669339791665,194.24324501458332,69.0,80.0
330,194.35531389791666,194.51695171041666,67.0,80.0
331,194.61393439791667,194.78527047916666,69.0,80.0
332,194.87255489791664,195.13117539791665,71.0,85.0
333,195.13117539791665,195.64841639791666,74.0,79.0
334,195.64841639791666,196.16565739791665,69.0,79.0
335,196.16565739791665,196.57298468541666,71.0,80.0
336,196.68289839791666,197.10962222291664,69.0,80.0
337,197.20013939791664,197.4512168,67.0,81.0
338,197.45875989791665,198.90703469791666,64.0,82.0
339,199.78634439791665,199.94474945416664,64.0,82.0
340,200.04496489791666,200.2076802958333,64.0,80.0
341,200.30358539791666,200.44905942916665,64.0,84.0
342,200.56220589791667,200.72384371041665,62.0,82.0
343,200.82082639791665,201.05574001875,64.0,85.0
344,201.07944689791665,201.55466206666665,67.0,80.0
345,201.59668789791667,201.99754967291665,71.0,72.0
346,202.11392889791665,202.29604083333334,71.0,81.0
347,202.37254939791666,202.5287992833333,71.0,78.0
348,202.63116989791666,202.84453181041664,69.0,84.0
349,202.88979039791667,203.07729026041665,71.0,83.0
350,203.14841089791668,203.40703139791665,62.0,78.0
351,203.40703139791665,203.66565189791666,62.0,78.0
352,203.66565189791666,203.92427239791664,62.0,78.0
353,203.92427239791664,204.44151339791665,71.0,84.0
354,204.44151339791665,205.73461589791665,69.0,79.0
355,207.02771839791666,207.49539046874997,64.0,78.0
356,207.54495939791667,208.05789005625,62.0,84.0
357,208.06220039791665,210.07405237083333,67.0,64.0
358,211.68288739791666,211.89732689583332,67.0,81.0
359,211.94150789791667,212.17103359166666,69.0,80.0
360,212.20012839791667,212.3671541375,71.0,79.0
361,212.45874889791668,212.59560224583333,71.0,77.0
362,212.71736939791666,212.92642096875,71.0,82.0
363,212.97598989791666,213.19689490833332,69.0,82.0
364,213.23461039791664,213.46090333541667,71.0,81.0
365,213.49323089791665,213.67103249166667,74.0,80.0
366,213.75185139791665,213.91348921041666,76.0,79.0
367,214.01047189791666,214.41564401458334,71.0,76.0
368,214.52771289791667,214.70012656458334,71.0,82.0
369,214.78633339791668,214.93288501458332,69.0,80.0
370,215.04495389791666,215.20659171041666,67.0,80.0
371,215.30357439791666,215.47491047916665,69.0,80.0
372,215.56219489791664,215.82081539791665,71.0,85.0
373,215.82081539791665,216.33805639791666,74.0,79.0
374,216.33805639791666,216.85529739791667,69.0,79.0
375,216.85529739791667,217.26262468541665,71.0,80.0
376,217.37253839791666,217.79926222291664,69.0,80.0
377,217.88977939791664,218.1408568,67.0,81.0
378,218.14839989791665,219.59667469791665,64.0,82.0
379,220.47598439791665,220.63438945416664,64.0,82.0
380,220.73460489791665,220.8973202958333,64.0,80.0
381,220.99322539791666,221.13869942916665,64.0,84.0
382,221.25184589791667,221.41348371041664,62.0,82.0
383,221.51046639791667,221.74538001874998,64.0,85.0
384,221.76908689791665,222.24430206666665,67.0,80.0
385,222.28632789791666,222.68718967291665,71.0,72.0
386,222.80356889791665,222.98568083333333,71.0,81.0
387,223.06218939791665,223.21843928333334,71.0,78.0
388,223.32080989791666,223.53417181041664,69.0,84.0
389,223.57943039791667,223.76693026041664,71.0,83.0
390,223.83805089791667,224.31434365208332,62.0,78.0
391,224.61391239791666,224.852058775,64.0,84.0
392,224.87253289791664,225.0190845145833,62.0,85.0
393,225.13115339791665,225.28309294166667,64.0,80.0
394,225.38977389791665,225.55787722291666,67.0,79.0
395,225.64839439791666,225.81542013749998,69.0,82.0
396,225.90701489791667,226.10852337083332,71.0,82.0
397,226.16563539791667,226.33804906458334,69.0,79.0
398,226.42425589791665,226.60205749166664,67.0,80.0
399,226.68287639791666,227.76584974166667,69.0,84.0
400,228.23459939791667,228.44903889583333,67.0,81.0
401,228.49321989791667,228.72274559166664,69.0,80.0
402,228.75184039791665,228.9188661375,71.0,79.0
403,229.01046089791666,229.14731424583334,71.0,77.0
404,229.26908139791664,229.47813296875,71.0,82.0
405,229.52770189791664,229.74860690833333,69.0,82.0
406,229.78632239791665,230.01261533541665,71.0,81.0
407,230.04494289791666,230.22274449166667,74.0,80.0
408,230.30356339791666,230.46520121041664,76.0,79.0
409,230.56218389791667,230.96735601458334,71.0,76.0
410,231.07942489791665,231.25183856458332,71.0,82.0
411,231.33804539791666,231.48459701458333,69.0,80.0
412,231.59666589791664,231.75830371041667,67.0,80.0
413,231.85528639791664,232.02662247916666,69.0,80.0
414,232.11390689791665,232.37252739791666,71.0,85.0
415,232.37252739791666,232.88976839791667,74.0,79.0
416,232.88976839791667,233.40700939791665,69.0,79.0
417,233.40700939791665,233.81433668541666,71.0,80.0
418,233.92425039791664,234.35097422291665,69.0,80.0
419,234.44149139791665,234.6925688,67.0,81.0
420,234.70011189791666,236.14838669791666,64.0,82.0
421,237.02769639791666,237.18610145416665,64.0,82.0
422,237.28631689791666,237.44903229583332,64.0,80.0
423,237.54493739791667,237.69041142916666,64.0,84.0
424,237.80355789791668,237.96519571041665,62.0,82.0
425,238.06217839791665,238.29709201875,64.0,85.0
426,238.32079889791666,238.79601406666666,67.0,80.0
427,238.83803989791664,239.23890167291665,71.0,72.0
428,239.35528089791666,239.53739283333334,71.0,81.0
429,239.61390139791666,239.77015128333332,71.0,78.0
430,239.87252189791667,240.08588381041665,69.0,84.0
431,240.13114239791668,240.31864226041665,71.0,83.0
432,240.38976289791665,240.64838339791666,62.0,78.0
433,240.64838339791666,240.90700389791664,62.0,78.0
434,240.90700389791664,241.16562439791664,62.0,78.0
435,241.16562439791664,241.68286539791666,71.0,84.0
436,241.68286539791666,242.97596789791666,69.0,79.0
437,244.26907039791666,244.73674246874998,64.0,78.0
438,244.78631139791668,245.29924205625,62.0,84.0
439,245.30355239791666,247.31540437083333,67.0,64.0
