,start,end,pitch,velocity
0,5.752150954166667,6.18426270625,67.0,63.0
1,6.010771454166667,6.44288320625,69.0,75.0
2,5.493530454166667,6.595900335416667,62.0,65.0
3,5.234909954166667,6.671331314583334,55.0,78.0
4,6.269391954166667,7.904089031250001,71.0,76.0
5,7.821114954166667,8.150856091666666,62.0,77.0
6,8.079735454166666,8.351286979166668,67.0,68.0
7,7.303873954166667,8.971976179166667,52.0,79.0
8,7.562494454166667,8.991372716666667,59.0,69.0
9,8.855596954166668,9.169174310416667,64.0,68.0
10,8.338355954166667,9.19719153125,71.0,72.0
11,9.114217454166667,9.8986996375,67.0,66.0
12,9.372837954166666,10.230595945833334,48.0,69.0
13,9.631458454166667,10.2866303875,55.0,67.0
14,9.890078954166666,10.358828610416667,60.0,71.0
15,10.665940454166668,11.329733070833333,57.0,65.0
16,10.407319954166667,11.373914072916667,50.0,80.0
17,10.924560954166667,11.684258672916668,62.0,78.0
18,12.217663454166667,12.538783908333334,67.0,66.0
19,11.959042954166668,12.547404591666668,62.0,71.0
20,12.476283954166668,12.787706139583333,69.0,78.0
21,11.700422454166667,12.818956116666667,59.0,61.0
22,11.441801954166667,12.8857664125,55.0,74.0
23,12.734904454166667,13.068955933333333,67.0,73.0
24,12.993524954166666,13.836196750000001,62.0,78.0
25,14.028006954166667,14.368523945833333,55.0,78.0
26,13.769386454166668,14.409472191666667,50.0,74.0
27,14.286627454166668,14.837273602083334,62.0,77.0
28,14.803868454166667,15.131454420833334,55.0,82.0
29,14.545247954166667,15.295247404166668,50.0,78.0
30,13.510765954166667,15.39761801875,43.0,77.0
31,15.321109454166667,15.667014372916666,55.0,82.0
32,15.062488954166668,16.142229541666666,62.0,80.0
33,16.096970954166668,16.751065302083333,52.0,74.0
34,16.355591454166667,16.751065302083333,55.0,78.0
35,15.838350454166667,17.127142612500002,47.0,66.0
36,15.579729954166668,17.15623741875,40.0,81.0
37,16.872832454166666,17.213349445833334,55.0,79.0
38,17.13145295416667,17.451495822916666,52.0,89.0
39,17.390073454166668,17.624987075,55.0,78.0
40,16.614211954166667,17.7930904,64.0,75.0
41,17.648693954166667,18.212271127083334,60.0,71.0
42,18.165934954166666,18.505374360416667,55.0,79.0
43,18.42455545416667,18.711193175000002,60.0,79.0
44,17.907314454166666,18.8986930375,43.0,65.0
45,17.648693954166667,18.995675725,36.0,76.0
46,18.683175954166668,19.002141237500002,64.0,82.0
47,18.941796454166667,19.220891077083333,60.0,79.0
48,19.200416954166666,19.530158091666667,55.0,78.0
49,19.45903745416667,19.748907931250002,60.0,78.0
50,19.71765795416667,20.196105879166666,62.0,76.0
51,20.493519454166666,20.86097608125,62.0,76.0
52,20.234898954166667,20.868519179166668,57.0,78.0
53,19.976278454166668,20.90084674166667,45.0,64.0
54,19.71765795416667,20.90407949791667,38.0,81.0
55,20.75213995416667,21.108820727083334,66.0,74.0
56,21.786621954166666,22.5193800375,62.0,73.0
57,22.562483454166667,23.035543452083335,59.0,76.0
58,22.303862954166668,23.058172745833335,55.0,72.0
59,22.04524245416667,23.177784727083335,50.0,63.0
60,21.786621954166666,23.23381916875,43.0,75.0
61,23.07972445416667,23.34157771041667,62.0,70.0
62,23.855585954166667,24.399766589583333,62.0,72.0
63,23.855585954166667,25.06032645,38.0,81.0
64,24.114206454166666,25.062481620833335,45.0,65.0
65,24.37282695416667,25.193947041666668,57.0,78.0
66,24.63144745416667,25.201490139583335,62.0,78.0
67,25.148688454166667,25.50752439791667,66.0,79.0
68,25.66592945416667,25.78446385,57.0,62.0
69,25.407308954166666,25.78877419166667,62.0,72.0
70,25.924549954166668,26.52584261666667,64.0,74.0
71,26.441790954166667,26.815713093750002,59.0,77.0
72,26.700411454166666,27.245669675000002,67.0,70.0
73,26.183170454166667,27.479505710416667,47.0,66.0
74,27.217652454166668,27.498902247916668,64.0,79.0
75,25.924549954166668,27.545238420833336,40.0,78.0
76,27.476272954166667,27.62390215625,59.0,78.0
77,27.99351395416667,28.55924629791667,66.0,78.0
78,28.510754954166668,28.835108164583335,62.0,72.0
79,28.25213445416667,29.135754495833336,45.0,62.0
80,27.99351395416667,29.168082058333333,38.0,79.0
81,28.769375454166667,29.320021602083333,57.0,79.0
82,29.28661645416667,29.579719687500003,62.0,74.0
83,29.54523695416667,29.6185127625,57.0,68.0
84,30.062477954166667,30.587262052083336,64.0,78.0
85,30.57971895416667,30.913770433333333,60.0,81.0
86,30.321098454166666,31.32002013541667,55.0,69.0
87,30.838339454166668,31.407304554166668,67.0,80.0
88,30.062477954166667,31.41915799375,48.0,80.0
89,31.355580454166667,31.633597491666666,64.0,79.0
90,31.61420095416667,31.909459358333336,60.0,79.0
91,31.87282145416667,32.13467471041667,64.0,73.0
92,32.13144195416667,32.678855345833334,62.0,75.0
93,32.64868295416667,33.0193723375,59.0,79.0
94,32.907303454166666,33.49027716458333,66.0,81.0
95,32.39006245416667,33.561397802083334,54.0,76.0
96,32.13144195416667,33.68639771041667,47.0,78.0
97,33.42454445416667,33.707949418750005,62.0,76.0
98,33.68316495416667,33.82432864375,59.0,80.0
99,34.20040595416667,34.456871283333335,57.0,72.0
100,34.20040595416667,34.7585952,60.0,73.0
101,34.71764695416667,35.10450011875,57.0,79.0
102,34.97626745416667,35.43962918333334,64.0,78.0
103,34.45902645416667,35.73273241666667,52.0,67.0
104,35.493508454166665,35.771525491666665,60.0,78.0
105,34.20040595416667,35.84049095833333,45.0,78.0
106,35.752128954166665,36.07324940833333,57.0,79.0
107,36.01074945416667,36.32540439583333,60.0,79.0
108,36.26936995416667,36.748895464583335,62.0,74.0
109,36.78661095416667,37.144369312500004,57.0,78.0
110,37.04523145416667,37.549541429166666,62.0,72.0
111,37.56247245416667,37.88790325,66.0,80.0
112,36.52799045416667,37.89544634791667,45.0,59.0
113,36.26936995416667,37.926696325,38.0,79.0
114,37.821092954166666,38.155144433333334,62.0,75.0
115,38.079713454166665,38.31031673333334,57.0,76.0
116,38.85557495416667,39.58402269583333,55.0,89.0
117,39.11419545416667,39.72087604375,62.0,78.0
118,38.59695445416667,40.03660857083334,50.0,78.0
119,38.33833395416667,40.16484123541667,43.0,80.0
120,39.89005695416667,40.52583235,55.0,85.0
121,39.63143645416667,40.5452288875,67.0,76.0
122,40.148677454166666,40.564625425,62.0,76.0
123,40.92453895416667,41.4633316625,52.0,74.0
124,41.18315945416667,41.49781439583334,59.0,77.0
125,40.665918454166665,41.64759876875,47.0,65.0
126,40.407297954166665,41.698245283333335,40.0,82.0
127,41.44177995416667,41.909452025,64.0,81.0
128,41.70040045416667,41.98165024791667,59.0,79.0
129,41.95902095416667,42.05384847083334,52.0,89.0
130,42.47626195416667,43.01182190625,62.0,74.0
131,42.734882454166666,43.34587338541667,54.0,71.0
132,43.51074395416667,43.794148918750004,54.0,71.0
133,42.993502954166665,43.81246787083334,59.0,79.0
134,43.25212345416667,43.81785579791667,66.0,87.0
135,42.47626195416667,43.89651953333333,47.0,78.0
136,43.76936445416667,44.04738149166667,62.0,79.0
137,44.02798495416667,44.170226229166666,59.0,80.0
138,44.54522595416667,44.73057064583333,55.0,73.0
139,44.54522595416667,45.01613078125,64.0,78.0
140,45.062466954166666,45.317854697916665,60.0,75.0
141,44.80384645416667,45.321087454166666,55.0,77.0
142,45.321087454166666,45.840483625000005,64.0,81.0
143,44.54522595416667,46.039836927083336,48.0,79.0
144,45.83832845416667,46.15621615208334,62.0,83.0
145,46.09694895416667,46.359879795833336,60.0,83.0
146,46.35556945416667,46.46656075208333,59.0,66.0
147,46.61418995416667,46.928844895833336,57.0,73.0
148,46.61418995416667,47.16699127291667,60.0,73.0
149,47.13143095416667,47.28660325416667,57.0,78.0
150,46.87281045416667,47.772594277083336,52.0,73.0
151,47.39005145416667,47.998887214583334,57.0,79.0
152,47.907292454166665,48.2262577375,52.0,77.0
153,47.39005145416667,48.227335322916666,60.0,79.0
154,46.61418995416667,48.271516325,45.0,77.0
155,47.39005145416667,48.33401627916667,64.0,80.0
156,48.16591295416667,48.38250762291667,57.0,79.0
157,48.68315395416667,48.99780889583334,59.0,76.0
158,48.68315395416667,49.322162106250005,64.0,78.0
159,49.20039495416667,49.48379991875,59.0,79.0
160,49.45901545416667,49.52690333541667,64.0,45.0
161,49.45901545416667,49.910523743750005,67.0,77.0
162,49.976256454166666,50.207937318750005,66.0,77.0
163,48.94177445416667,50.24673039375,47.0,72.0
164,48.68315395416667,50.30923034791667,40.0,81.0
165,50.234876954166666,50.51828191875,64.0,81.0
166,50.49349745416667,50.94931608541667,62.0,80.0
167,50.75211795416667,51.104488385416666,57.0,72.0
168,50.75211795416667,51.33724683541667,60.0,73.0
169,51.26935895416667,51.9762549875,57.0,83.0
170,51.52797945416667,52.00858255,64.0,80.0
171,51.01073845416667,52.068927333333335,52.0,73.0
172,50.75211795416667,52.166987606250004,45.0,79.0
173,52.04522045416667,52.294142685416666,60.0,84.0
174,52.30384095416667,52.660521727083335,57.0,77.0
175,52.562461454166666,52.8555646875,60.0,78.0
176,52.821081954166665,53.17560755625,62.0,81.0
177,53.33832295416667,53.7090123375,50.0,80.0
178,53.59694345416667,53.716555435416666,54.0,71.0
179,53.07970245416667,53.95577939791667,45.0,69.0
180,52.821081954166665,54.112029283333335,38.0,82.0
181,53.85556395416667,54.75750294791667,50.0,78.0
182,53.85556395416667,54.769356387500004,54.0,82.0
183,53.85556395416667,54.795218437500004,62.0,78.0
184,53.85556395416667,54.79629602291667,57.0,78.0
185,54.890045954166666,55.6228040375,62.0,73.0
186,55.66590745416667,56.138967452083335,59.0,76.0
187,55.40728695416667,56.161596745833336,55.0,72.0
188,55.148666454166666,56.28120872708334,50.0,63.0
189,54.890045954166666,56.33724316875,43.0,75.0
190,56.18314845416667,56.44500171041667,62.0,70.0
191,56.95900995416667,57.50319058958333,62.0,72.0
192,56.95900995416667,58.16375045,38.0,81.0
193,57.21763045416667,58.165905620833335,45.0,65.0
194,57.476250954166666,58.29737104166667,57.0,78.0
195,57.73487145416667,58.30491413958334,62.0,78.0
196,58.25211245416667,58.610948397916665,66.0,79.0
197,58.76935345416667,58.887887850000006,57.0,62.0
198,58.51073295416667,58.89219819166667,62.0,72.0
199,59.02797395416667,59.62926661666667,64.0,74.0
200,59.54521495416667,59.91913709375,59.0,77.0
201,59.803835454166666,60.349093675,67.0,70.0
202,59.28659445416667,60.58292971041667,47.0,66.0
203,60.32107645416667,60.60232624791667,64.0,79.0
204,59.02797395416667,60.64866242083333,40.0,78.0
205,60.57969695416667,60.72732615625,59.0,78.0
206,61.09693795416667,61.66267029791667,66.0,78.0
207,61.61417895416667,61.938532164583336,62.0,72.0
208,61.35555845416667,62.239178495833336,45.0,62.0
209,61.09693795416667,62.27150605833334,38.0,79.0
210,61.87279945416667,62.42344560208333,57.0,79.0
211,62.390040454166666,62.6831436875,62.0,74.0
212,62.64866095416667,62.7219367625,57.0,68.0
213,63.16590195416667,63.690686052083336,64.0,78.0
214,63.68314295416667,64.01719443333333,60.0,81.0
215,63.42452245416667,64.42344413541667,55.0,69.0
216,63.94176345416667,64.51072855416668,67.0,80.0
217,63.16590195416667,64.52258199375001,48.0,80.0
218,64.45900445416667,64.73702149166667,64.0,79.0
219,64.71762495416667,65.01288335833334,60.0,79.0
220,64.97624545416667,65.23809871041666,64.0,73.0
221,65.23486595416666,65.78227934583333,62.0,75.0
222,65.75210695416666,66.1227963375,59.0,79.0
223,66.01072745416667,66.59370116458334,66.0,81.0
224,65.49348645416667,66.66482180208334,54.0,76.0
225,65.23486595416666,66.78982171041667,47.0,78.0
226,66.52796845416667,66.81137341875001,62.0,76.0
227,66.78658895416667,66.92775264375,59.0,80.0
228,67.30382995416667,67.56029528333333,57.0,72.0
229,67.30382995416667,67.8620192,60.0,73.0
230,67.82107095416667,68.20792411875,57.0,79.0
231,68.07969145416666,68.54305318333334,64.0,78.0
232,67.56245045416667,68.83615641666667,52.0,67.0
233,68.59693245416666,68.87494949166667,60.0,78.0
234,67.30382995416667,68.94391495833334,45.0,78.0
235,68.85555295416667,69.17667340833333,57.0,79.0
236,69.11417345416668,69.42882839583334,60.0,79.0
237,69.37279395416667,69.85231946458333,62.0,74.0
238,69.89003495416667,70.24779331250001,57.0,78.0
239,70.14865545416667,70.65296542916667,62.0,72.0
240,70.66589645416667,70.99132725,66.0,80.0
241,69.63141445416667,70.99887034791666,45.0,59.0
242,69.37279395416667,71.030120325,38.0,79.0
243,70.92451695416666,71.25856843333334,62.0,75.0
244,71.18313745416667,71.41374073333334,57.0,76.0
245,71.95899895416667,72.68744669583333,55.0,89.0
246,72.21761945416667,72.82430004375,62.0,78.0
247,71.70037845416667,73.14003257083334,50.0,78.0
248,71.44175795416668,73.26826523541666,43.0,80.0
249,72.99348095416667,73.62925635,55.0,85.0
250,72.73486045416666,73.6486528875,67.0,76.0
251,73.25210145416666,73.668049425,62.0,76.0
252,74.02796295416667,74.5667556625,52.0,74.0
253,74.28658345416667,74.60123839583333,59.0,77.0
254,73.76934245416668,74.75102276875,47.0,65.0
255,73.51072195416667,74.80166928333334,40.0,82.0
256,74.54520395416667,75.012876025,64.0,81.0
257,74.80382445416667,75.08507424791667,59.0,79.0
258,75.06244495416666,75.15727247083333,52.0,89.0
259,75.57968595416666,76.11524590625001,62.0,74.0
260,75.83830645416667,76.44929738541667,54.0,71.0
261,76.61416795416667,76.89757291875,54.0,71.0
262,76.09692695416668,76.91589187083333,59.0,79.0
263,76.35554745416667,76.92127979791667,66.0,87.0
264,75.57968595416666,76.99994353333334,47.0,78.0
265,76.87278845416667,77.15080549166667,62.0,79.0
266,77.13140895416667,77.27365022916668,59.0,80.0
267,77.64864995416667,77.83399464583334,55.0,73.0
268,77.64864995416667,78.11955478125,64.0,78.0
269,78.16589095416667,78.42127869791668,60.0,75.0
270,77.90727045416666,78.42451145416668,55.0,77.0
271,78.42451145416668,78.94390762500001,64.0,81.0
272,77.64864995416667,79.14326092708333,48.0,79.0
273,78.94175245416668,79.25964015208334,62.0,83.0
274,79.20037295416667,79.46330379583334,60.0,83.0
275,79.45899345416667,79.56998475208334,59.0,66.0
276,79.71761395416667,80.03226889583334,57.0,73.0
277,79.71761395416667,80.27041527291667,60.0,73.0
278,80.23485495416666,80.39002725416667,57.0,78.0
279,79.97623445416667,80.87601827708333,52.0,73.0
280,80.49347545416667,81.10231121458334,57.0,79.0
281,81.01071645416667,81.3296817375,52.0,77.0
282,80.49347545416667,81.33075932291666,60.0,79.0
283,79.71761395416667,81.374940325,45.0,77.0
284,80.49347545416667,81.43744027916667,64.0,80.0
285,81.26933695416668,81.48593162291667,57.0,79.0
286,81.78657795416667,82.10123289583333,59.0,76.0
287,81.78657795416667,82.42558610625001,64.0,78.0
288,82.30381895416667,82.58722391875,59.0,79.0
289,82.56243945416666,82.63032733541667,64.0,45.0
290,82.56243945416666,83.01394774375001,67.0,77.0
291,83.07968045416666,83.31136131875,66.0,77.0
292,82.04519845416667,83.35015439375,47.0,72.0
293,81.78657795416667,83.41265434791667,40.0,81.0
294,83.33830095416667,83.62170591875001,64.0,81.0
295,83.59692145416668,84.05274008541667,62.0,80.0
296,83.85554195416667,84.16911931041668,57.0,74.0
297,83.85554195416667,84.35338641666667,60.0,74.0
298,84.11416245416667,84.39756741875,52.0,76.0
299,83.85554195416667,84.42342946875,45.0,80.0
300,84.37278295416667,84.74023958125001,57.0,84.0
301,84.63140345416667,84.943903225,60.0,92.0
302,84.89002395416667,85.4029546125,62.0,81.0
303,84.89002395416667,85.52795452083333,38.0,83.0
304,85.14864445416667,85.53118727708333,45.0,69.0
305,85.40726495416666,85.66911821041667,57.0,82.0
306,85.92450595416668,86.211143675,55.0,77.0
307,85.92450595416668,86.42019524583334,59.0,74.0
308,86.44174695416667,86.5796778875,55.0,79.0
309,86.70036745416667,87.08398786250001,62.0,77.0
310,86.70036745416667,87.10230681458334,55.0,81.0
311,86.18312645416667,87.840452825,50.0,72.0
312,85.92450595416668,87.85769419166667,43.0,79.0
313,87.21760845416667,88.19390084166668,59.0,83.0
314,87.73484945416666,88.23269391666668,55.0,80.0
315,87.21760845416667,88.54734885833334,62.0,82.0
316,88.51071095416667,88.874934825,55.0,79.0
317,88.76933145416668,88.90510721666666,59.0,80.0
318,89.02795195416667,89.61739117708333,67.0,78.0
319,88.25209045416668,89.6960549125,50.0,72.0
320,89.02795195416667,89.69928766875,59.0,89.0
321,89.02795195416667,89.7089859375,62.0,82.0
322,89.02795195416667,89.71221869375,55.0,82.0
323,87.99346995416667,89.73053764583334,43.0,83.0
324,90.06243395416666,90.60553700416666,59.0,79.0
325,90.06243395416666,90.64971800625,62.0,77.0
326,90.57967495416668,90.75424379166667,55.0,79.0
327,90.32105445416667,90.94282123958334,50.0,67.0
328,90.83829545416667,91.49023463125,55.0,82.0
329,91.61415695416667,91.82213093958333,50.0,78.0
330,90.06243395416666,91.84152747708333,43.0,79.0
331,91.35553645416667,91.91157052916667,59.0,79.0
332,90.83829545416667,91.96221704375,62.0,80.0
333,91.87277745416667,92.00639804583334,55.0,78.0
334,92.64863895416667,92.81889745000001,59.0,84.0
335,92.90725945416666,93.28441435,59.0,84.0
336,92.90725945416666,93.30488847291667,64.0,84.0
337,92.39001845416666,93.44497457708334,47.0,81.0
338,92.13139795416667,93.49454350625,40.0,82.0
339,93.42450045416668,93.69712956458334,64.0,81.0
340,93.42450045416668,93.72622437083334,67.0,78.0
341,93.68312095416667,93.80381052083334,59.0,80.0
342,94.20036195416667,94.48376691875,57.0,72.0
343,94.20036195416667,94.73053397916667,60.0,74.0
344,94.71760295416667,94.83398217916667,57.0,76.0
345,94.97622345416667,95.33505939791667,57.0,79.0
346,94.97622345416667,95.38139557083333,64.0,80.0
347,94.45898245416667,95.573205775,52.0,72.0
348,95.49346445416667,95.67665397500001,57.0,80.0
349,95.49346445416667,95.82859351875,60.0,82.0
350,94.20036195416667,95.83936937291666,45.0,79.0
351,95.75208495416668,95.87924003333333,52.0,77.0
352,96.26932595416667,96.52148094166667,59.0,73.0
353,96.26932595416667,96.78441178333334,64.0,79.0
354,96.78656695416667,96.90079100833334,59.0,78.0
355,96.52794645416667,97.17880804583334,47.0,72.0
356,97.04518745416667,97.49561815833334,67.0,78.0
357,97.04518745416667,97.56242845416666,59.0,83.0
358,97.30380795416667,97.72729902291667,47.0,70.0
359,96.26932595416667,97.7779455375,40.0,80.0
360,97.56242845416666,97.8619972,64.0,78.0
361,97.82104895416667,98.16803145833333,62.0,82.0
362,98.33828995416667,98.63247077291668,60.0,78.0
363,98.33828995416667,98.68742762916668,64.0,80.0
364,98.85553095416667,98.99669464375,60.0,80.0
365,98.59691045416668,99.25423755833334,55.0,78.0
366,99.11415145416667,99.6788062125,60.0,79.0
367,98.33828995416667,99.71113377500001,48.0,80.0
368,99.11415145416667,99.83074575625001,67.0,79.0
369,99.11415145416667,99.83182334166668,64.0,80.0
370,99.63139245416667,99.96113359166667,55.0,80.0
371,100.14863345416667,100.28979714375001,64.0,66.0
372,99.89001295416666,100.29841782708334,60.0,85.0
373,100.40725395416668,100.70897787083334,59.0,79.0
374,100.40725395416668,100.88462429375001,62.0,79.0
375,100.92449495416668,101.030098325,59.0,79.0
376,100.66587445416667,101.29302916666667,54.0,78.0
377,101.18311545416667,101.55919276458334,59.0,82.0
378,101.18311545416667,101.65402028125,66.0,79.0
379,100.40725395416668,101.71867540625,47.0,80.0
380,101.70035645416667,102.00962346875001,59.0,80.0
381,101.95897695416667,102.13246820625001,54.0,74.0
382,101.70035645416667,102.22083021041666,62.0,80.0
383,102.21759745416666,102.31781289791667,59.0,79.0
384,102.47621795416667,102.74345913750001,57.0,78.0
385,102.47621795416667,103.0020796375,60.0,76.0
386,102.99345895416667,103.14001057083334,57.0,80.0
387,102.73483845416668,103.3964759,52.0,74.0
388,103.25207945416668,103.57535507916667,57.0,79.0
389,103.25207945416668,103.5969067875,60.0,85.0
390,103.51069995416667,103.83505316458334,52.0,76.0
391,102.47621795416667,103.89647553333334,45.0,79.0
392,103.76932045416667,103.96975134166667,57.0,78.0
393,103.76932045416667,104.23483735416667,64.0,81.0
394,103.76932045416667,104.26177698958334,60.0,83.0
395,104.28656145416667,104.41802687500001,57.0,77.0
396,104.54518195416667,104.78871625833334,57.0,81.0
397,104.54518195416667,104.92772477708334,62.0,82.0
398,105.06242295416668,105.1744918375,57.0,72.0
399,104.80380245416667,105.50746573125001,45.0,71.0
400,105.32104345416667,105.65078459166666,62.0,87.0
401,105.32104345416667,105.67341388541666,57.0,79.0
402,105.32104345416667,105.7305259125,66.0,80.0
403,105.57966395416668,105.95574126458334,45.0,75.0
404,105.83828445416667,105.97513780208334,57.0,83.0
405,104.54518195416667,106.04410326875,38.0,81.0
406,105.83828445416667,106.13246527291668,62.0,85.0
407,106.09690495416667,106.43742194583334,57.0,85.0
408,106.61414595416667,107.12276627083334,62.0,78.0
409,107.13138695416667,107.27147305833334,55.0,79.0
410,106.87276645416667,107.52578321666667,50.0,78.0
411,107.39000745416666,107.70466239583334,55.0,79.0
412,107.39000745416666,107.77793820416667,59.0,79.0
413,107.90724845416668,108.20466202916667,55.0,84.0
414,106.61414595416667,108.32211883958334,43.0,80.0
415,107.39000745416666,108.33720503541667,62.0,80.0
416,108.16586895416667,108.34798088958334,50.0,78.0
417,108.42448945416668,108.79410125208334,55.0,79.0
418,108.68310995416667,109.25530781041667,59.0,79.0
419,109.20035095416667,109.31996293541667,55.0,79.0
420,109.45897145416667,109.81565222708333,59.0,83.0
421,109.45897145416667,109.8425918625,55.0,79.0
422,109.45897145416667,109.92233318333334,64.0,81.0
423,108.94173045416667,109.98914347916667,47.0,77.0
424,108.68310995416667,110.20789331875001,40.0,79.0
425,109.97621245416667,110.26069500416668,59.0,84.0
426,110.23483295416668,110.55272065208334,55.0,84.0
427,110.49345345416667,110.68095331666667,59.0,80.0
428,110.75207395416668,111.04302201666667,57.0,72.0
429,110.75207395416668,111.14000470416667,60.0,80.0
430,111.26931495416667,111.39539244791668,57.0,79.0
431,111.01069445416667,111.6270733125,52.0,79.0
432,111.52793545416667,111.84043522500001,57.0,78.0
433,111.52793545416667,111.89323691041668,64.0,80.0
434,112.04517645416666,112.22772421458333,57.0,79.0
435,111.78655595416667,112.28498431041666,52.0,73.0
436,110.75207395416668,112.28930582708333,45.0,77.0
437,112.04517645416666,112.45568421875,60.0,83.0
438,112.56372213541667,112.70957332291667,57.0,74.0
439,112.82301313541666,113.19142243125,55.0,74.0
440,112.82301313541666,113.38156916458333,59.0,73.0
441,113.34159513541667,113.64410130208333,55.0,79.0
442,113.60088613541666,113.73053163541667,59.0,80.0
443,113.08230413541666,113.95308974375,47.0,70.0
444,112.82301313541666,114.24587249791666,40.0,82.0
445,113.86017713541666,114.28368576875,55.0,78.0
446,114.11946813541667,114.29124842291667,47.0,76.0
447,113.86017713541666,114.37443761875,64.0,84.0
448,114.37875913541666,114.60779951875,59.0,83.0
449,114.63805013541666,114.77849942708333,55.0,73.0
450,114.89734113541667,115.22361564375,60.0,67.0
451,115.15663213541667,115.51747877708333,55.0,80.0
452,115.41592313541666,115.69358058125,60.0,76.0
453,115.67521413541667,116.09332087291666,64.0,78.0
454,114.89734113541667,116.33208466875,48.0,83.0
455,116.19379613541666,116.47469471875,60.0,85.0
456,116.45308713541667,116.77612050625,55.0,79.0
457,116.71237813541667,116.88199766458334,60.0,74.0
458,116.97166913541666,117.28281833541666,59.0,75.0
459,116.97166913541666,117.28605947291666,62.0,73.0
460,117.49025113541667,117.65446876875,59.0,80.0
461,117.23096013541667,117.87270536041666,54.0,64.0
462,117.74954213541666,118.04772678541667,59.0,84.0
463,117.74954213541666,118.11687105208333,66.0,78.0
464,118.00883313541667,118.39344811875,54.0,72.0
465,118.26812413541667,118.40965380624999,59.0,79.0
466,116.97166913541666,118.49932527708333,47.0,79.0
467,118.26812413541667,118.54794233958333,62.0,82.0
468,118.52741513541666,118.65165873958333,59.0,83.0
469,119.04599713541667,119.31933306458333,57.0,72.0
470,119.04599713541667,119.56890065208333,60.0,73.0
471,119.56457913541666,119.85844226875,55.0,79.0
472,119.30528813541666,119.90165743541667,52.0,68.0
473,119.82387013541667,120.22253004791666,60.0,84.0
474,120.08316113541666,120.44292739791666,52.0,74.0
475,120.34245213541666,120.55204569375,57.0,74.0
476,119.04599713541667,120.61362730625,45.0,78.0
477,120.34245213541666,120.67088740208334,64.0,81.0
478,120.60174313541667,120.71194181041666,52.0,78.0
479,120.34245213541666,120.89452588958333,60.0,81.0
480,120.86103413541666,121.20135357291666,57.0,75.0
481,121.12032513541666,121.42391168124999,62.0,78.0
482,121.63890713541666,121.77827604791666,57.0,77.0
483,121.89819813541666,122.26984856874999,57.0,78.0
484,121.89819813541666,122.34871624791667,66.0,79.0
485,121.37961613541667,122.47404023125,45.0,68.0
486,121.12032513541666,122.52481805208333,38.0,82.0
487,122.41678013541666,122.70848251041666,62.0,79.0
488,122.67607113541666,122.81652042708333,57.0,75.0
489,123.19465313541667,123.51336498958334,55.0,76.0
490,123.19465313541667,123.74456613125,62.0,77.0
491,123.71323513541667,123.84612177291666,55.0,79.0
492,123.97252613541667,124.36146263541667,55.0,80.0
493,123.97252613541667,124.37766832291666,59.0,79.0
494,123.45394413541666,124.61967325625,50.0,73.0
495,123.19465313541667,124.81630226458333,43.0,79.0
496,124.49110813541667,125.16958625208333,59.0,80.0
497,124.49110813541667,125.18903307708334,62.0,81.0
498,125.26898113541667,125.65359611875,59.0,79.0
499,125.78756313541666,125.90316370625,52.0,79.0
500,126.04685413541667,126.37853053958332,52.0,80.0
501,126.04685413541667,126.43795139375,59.0,77.0
502,125.52827213541667,126.68859936041666,47.0,71.0
503,126.56543613541666,126.70804618541666,52.0,80.0
504,125.26898113541667,126.71668921874999,40.0,84.0
505,126.56543613541666,126.88414798958333,55.0,79.0
506,126.82472713541667,126.95869415208332,52.0,80.0
507,127.34330913541666,127.50212487291667,55.0,77.0
508,127.34330913541666,127.64041340624999,60.0,75.0
509,127.60260013541667,127.96884867291666,55.0,79.0
510,127.86189113541667,128.00342080625,60.0,80.0
511,128.12118213541666,128.51768128958332,55.0,80.0
512,128.12118213541666,128.63544261875,64.0,81.0
513,127.34330913541666,128.80830328541666,48.0,81.0
514,128.63976413541667,128.91850196041668,60.0,83.0
515,128.89905513541666,129.20804357708334,55.0,77.0
516,129.15834613541665,129.46517381875,60.0,73.0
517,129.41763713541667,129.84762804375,62.0,74.0
518,129.93621913541665,130.24520757708333,57.0,80.0
519,130.19551013541667,130.31435184375,62.0,79.0
520,130.45480113541666,130.66871621041668,57.0,77.0
521,130.45480113541666,130.70112758541666,66.0,83.0
522,129.41763713541667,130.79620095208332,38.0,82.0
523,129.67692813541666,130.79620095208332,45.0,66.0
524,130.71409213541665,130.95825782708334,62.0,83.0
525,130.97338313541667,131.31694371041667,57.0,80.0
526,131.23267413541666,131.92735793958332,62.0,79.0
527,132.01054713541666,132.35734884791665,55.0,84.0
528,132.26983813541665,132.60259491875,59.0,85.0
529,131.75125613541667,132.86620743541667,50.0,76.0
530,132.78842013541666,133.01854089791667,55.0,76.0
531,131.49196513541665,133.11253388541667,43.0,81.0
532,133.04771113541665,133.17303511875,50.0,79.0
533,132.78842013541666,133.18167815208332,59.0,81.0
534,132.78842013541666,133.23569711041665,62.0,79.0
535,133.30700213541667,133.59330261458334,55.0,79.0
536,133.56629313541666,134.16374281458332,64.0,81.0
537,134.08487513541667,134.40898888541668,55.0,79.0
538,134.34416613541666,134.72553998125,59.0,82.0
539,133.82558413541668,134.92432974791666,47.0,74.0
540,133.56629313541666,135.07234169375,40.0,80.0
541,134.86274813541667,135.12960178958332,55.0,79.0
542,135.12203913541666,135.27869411458335,47.0,71.0
543,134.86274813541667,135.39861620208333,59.0,84.0
544,134.86274813541667,135.46451933125,64.0,80.0
545,135.38133013541668,135.54122625208333,55.0,78.0
546,135.64062113541667,135.95068995625,60.0,79.0
547,135.89991213541666,136.27912522291666,55.0,78.0
548,136.15920313541667,136.49304029791665,60.0,78.0
549,136.41849413541667,136.91438817291666,64.0,81.0
550,135.64062113541667,136.91654893125,48.0,80.0
551,136.93707613541667,137.24498419791666,60.0,84.0
552,137.19636713541666,137.51940050625,55.0,78.0
553,137.45565813541666,137.73547633958333,60.0,73.0
554,137.71494913541667,138.00989264791667,57.0,73.0
555,137.71494913541667,138.05202743541668,62.0,76.0
556,138.23353113541665,138.33400639791665,57.0,54.0
557,138.49282213541667,138.7723805208333,57.0,78.0
558,138.49282213541667,138.88983733125,66.0,75.0
559,139.01052689791666,139.50837136041665,62.0,76.0
560,137.97424013541666,139.65492297708332,45.0,67.0
561,137.71494913541667,139.65923331874998,38.0,83.0
562,139.78638839791665,140.51914648124998,62.0,73.0
563,140.56224989791664,141.0353098958333,59.0,76.0
564,140.30362939791667,141.05793918958332,55.0,72.0
565,140.04500889791666,141.1775511708333,50.0,63.0
566,139.78638839791665,141.23358561249998,43.0,75.0
567,141.07949089791666,141.34134415416665,62.0,70.0
568,141.85535239791665,142.3995330333333,62.0,72.0
569,141.85535239791665,143.06009289374998,38.0,81.0
570,142.11397289791665,143.06224806458331,45.0,65.0
571,142.37259339791666,143.19371348541665,57.0,78.0
572,142.63121389791667,143.20125658333333,62.0,78.0
573,143.14845489791665,143.50729084166665,66.0,79.0
574,143.66569589791666,143.78423029375,57.0,62.0
575,143.40707539791666,143.78854063541667,62.0,72.0
576,143.92431639791664,144.52560906041666,64.0,74.0
577,144.44155739791665,144.81547953749998,59.0,77.0
578,144.70017789791666,145.24543611874998,67.0,70.0
579,144.18293689791665,145.47927215416667,47.0,66.0
580,145.21741889791664,145.49866869166667,64.0,79.0
581,143.92431639791664,145.54500486458332,40.0,78.0
582,145.47603939791665,145.62366859999997,59.0,78.0
583,145.99328039791666,146.55901274166666,66.0,78.0
584,146.51052139791665,146.8348746083333,62.0,72.0
585,146.25190089791664,147.13552093958333,45.0,62.0
586,145.99328039791666,147.16784850208333,38.0,79.0
587,146.76914189791665,147.31978804583332,57.0,79.0
588,147.28638289791667,147.57948613124998,62.0,74.0
589,147.54500339791664,147.61827920624998,57.0,68.0
590,148.06224439791666,148.58702849583332,64.0,78.0
591,148.57948539791664,148.91353687708332,60.0,81.0
592,148.32086489791666,149.31978657916665,55.0,69.0
593,148.83810589791665,149.40707099791666,67.0,80.0
594,148.06224439791666,149.41892443749998,48.0,80.0
595,149.35534689791666,149.63336393541667,64.0,79.0
596,149.61396739791667,149.9092258020833,60.0,79.0
597,149.87258789791665,150.13444115416667,64.0,73.0
598,150.13120839791665,150.67862178958333,62.0,75.0
599,150.64844939791666,151.01913878124998,59.0,79.0
600,150.90706989791664,151.4900436083333,66.0,81.0
601,150.38982889791666,151.5611642458333,54.0,76.0
602,150.13120839791665,151.68616415416665,47.0,78.0
603,151.42431089791665,151.70771586249998,62.0,76.0
604,151.68293139791666,151.82409508749998,59.0,80.0
605,152.20017239791665,152.45663772708332,57.0,72.0
606,152.20017239791665,152.75836164375,60.0,73.0
607,152.71741339791666,153.1042665625,57.0,79.0
608,152.97603389791666,153.43939562708331,64.0,78.0
609,152.45879289791665,153.73249886041665,52.0,67.0
610,153.49327489791665,153.77129193541666,60.0,78.0
611,152.20017239791665,153.84025740208332,45.0,78.0
612,153.75189539791666,154.07301585208333,57.0,79.0
613,154.01051589791666,154.32517083958334,60.0,79.0
614,154.26913639791667,154.74866190833333,62.0,74.0
615,154.78637739791665,155.14413575625,57.0,78.0
616,155.04499789791666,155.54930787291664,62.0,72.0
617,155.56223889791664,155.88766969374998,66.0,80.0
618,154.52775689791665,155.89521279166667,45.0,59.0
619,154.26913639791667,155.92646276874999,38.0,79.0
620,155.82085939791665,156.15491087708332,62.0,75.0
621,156.07947989791666,156.31008317708333,57.0,76.0
622,156.85534139791665,157.58378913958333,55.0,89.0
623,157.11396189791665,157.7206424875,62.0,78.0
624,156.59672089791667,158.0363750145833,50.0,78.0
625,156.33810039791666,158.16460767916666,43.0,80.0
626,157.88982339791664,158.52559879375,55.0,85.0
627,157.63120289791667,158.54499533125,67.0,76.0
628,158.14844389791665,158.56439186875,62.0,76.0
629,158.92430539791667,159.46309810625,52.0,74.0
630,159.18292589791665,159.49758083958332,59.0,77.0
631,158.66568489791666,159.64736521249998,47.0,65.0
632,158.40706439791666,159.69801172708333,40.0,82.0
633,159.44154639791665,159.90921846875,64.0,81.0
634,159.70016689791666,159.98141669166665,59.0,79.0
635,159.95878739791667,160.0536149145833,52.0,89.0
636,160.47602839791665,161.01158834999998,62.0,74.0
637,160.73464889791666,161.34563982916666,54.0,71.0
638,161.51051039791665,161.7939153625,54.0,71.0
639,160.99326939791666,161.81223431458332,59.0,79.0
640,161.25188989791667,161.81762224166664,66.0,87.0
641,160.47602839791665,161.89628597708332,47.0,78.0
642,161.76913089791665,162.04714793541666,62.0,79.0
643,162.02775139791666,162.16999267291666,59.0,80.0
644,162.54499239791664,162.73033708958332,55.0,73.0
645,162.54499239791664,163.015897225,64.0,78.0
646,163.06223339791666,163.31762114166665,60.0,75.0
647,162.80361289791665,163.32085389791666,55.0,77.0
648,163.32085389791666,163.84025006874998,64.0,81.0
649,162.54499239791664,164.03960337083333,48.0,79.0
650,163.83809489791665,164.15598259583334,62.0,83.0
651,164.09671539791665,164.35964623958333,60.0,83.0
652,164.35533589791666,164.46632719583332,59.0,66.0
653,164.61395639791667,164.9286113395833,57.0,73.0
654,164.61395639791667,165.16675771666667,60.0,73.0
655,165.13119739791665,165.28636969791665,57.0,78.0
656,164.87257689791664,165.77236072083332,52.0,73.0
657,165.38981789791666,165.99865365833332,57.0,79.0
658,165.90705889791667,166.22602418124998,52.0,77.0
659,165.38981789791666,166.22710176666666,60.0,79.0
660,164.61395639791667,166.27128276874998,45.0,77.0
661,165.38981789791666,166.33378272291665,64.0,80.0
662,166.16567939791665,166.38227406666667,57.0,79.0
663,166.68292039791666,166.9975753395833,59.0,76.0
664,166.68292039791666,167.32192855,64.0,78.0
665,167.20016139791665,167.4835663625,59.0,79.0
666,167.45878189791665,167.52666977916667,64.0,45.0
667,167.45878189791665,167.91029018749998,67.0,77.0
668,167.97602289791666,168.2077037625,66.0,77.0
669,166.94154089791667,168.2464968375,47.0,72.0
670,166.68292039791666,168.30899679166666,40.0,81.0
671,168.23464339791667,168.5180483625,64.0,81.0
672,168.49326389791665,168.94908252916665,62.0,80.0
673,168.75188439791665,169.06546175416665,57.0,74.0
674,168.75188439791665,169.24972886041667,60.0,74.0
675,169.01050489791666,169.2939098625,52.0,76.0
676,168.75188439791665,169.3197719125,45.0,80.0
677,169.26912539791667,169.636582025,57.0,84.0
678,169.52774589791665,169.84024566875,60.0,92.0
679,169.78636639791665,170.29929705625,62.0,81.0
680,169.78636639791665,170.42429696458333,38.0,83.0
681,170.04498689791666,170.42752972083332,45.0,69.0
682,170.30360739791666,170.56546065416666,57.0,82.0
683,170.82084839791665,171.10748611875,55.0,77.0
684,170.82084839791665,171.31653768958333,59.0,74.0
685,171.33808939791666,171.47602033125,55.0,79.0
686,171.59670989791664,171.98033030624998,62.0,77.0
687,171.59670989791664,171.99864925833333,55.0,81.0
688,171.07946889791666,172.73679526874997,50.0,72.0
689,170.82084839791665,172.75403663541664,43.0,79.0
690,172.11395089791665,173.09024328541665,59.0,83.0
691,172.63119189791666,173.12903636041665,55.0,80.0
692,172.11395089791665,173.44369130208332,62.0,82.0
693,173.40705339791666,173.77127726875,55.0,79.0
694,173.66567389791666,173.80144966041667,59.0,80.0
695,173.92429439791664,174.5137336208333,67.0,78.0
696,173.14843289791665,174.59239735625,50.0,72.0
697,173.92429439791664,174.59563011249998,59.0,89.0
698,173.92429439791664,174.60532838125,62.0,82.0
699,173.92429439791664,174.60856113749998,55.0,82.0
700,172.88981239791667,174.62688008958332,43.0,83.0
701,174.95877639791667,175.50187944791665,59.0,79.0
702,174.95877639791667,175.54606045,62.0,77.0
703,175.47601739791665,175.65058623541665,55.0,79.0
704,175.21739689791667,175.8391636833333,50.0,67.0
705,175.73463789791666,176.386577075,55.0,82.0
706,176.51049939791665,176.71847338333333,50.0,78.0
707,174.95877639791667,176.7378699208333,43.0,79.0
708,176.25187889791664,176.80791297291665,59.0,79.0
709,175.73463789791666,176.85855948749997,62.0,80.0
710,176.76911989791665,176.90274048958332,55.0,78.0
711,177.54498139791667,177.71523989374998,59.0,84.0
712,177.80360189791665,178.18075679375,59.0,84.0
713,177.80360189791665,178.20123091666665,64.0,84.0
714,177.28636089791667,178.34131702083332,47.0,81.0
715,177.02774039791666,178.39088594999998,40.0,82.0
716,178.32084289791666,178.59347200833332,64.0,81.0
717,178.32084289791666,178.6225668145833,67.0,78.0
718,178.57946339791664,178.7001529645833,59.0,80.0
719,179.09670439791665,179.38010936249998,57.0,72.0
720,179.09670439791665,179.62687642291667,60.0,74.0
721,179.61394539791667,179.73032462291667,57.0,76.0
722,179.87256589791667,180.23140184166664,57.0,79.0
723,179.87256589791667,180.27773801458332,64.0,80.0
724,179.35532489791666,180.46954821875,52.0,72.0
725,180.38980689791666,180.57299641875,57.0,80.0
726,180.38980689791666,180.72493596249998,60.0,82.0
727,179.09670439791665,180.73571181666665,45.0,79.0
728,180.64842739791666,180.77558247708333,52.0,77.0
729,181.16566839791665,181.41782338541665,59.0,73.0
730,181.16566839791665,181.68075422708333,64.0,79.0
731,181.68290939791666,181.79713345208333,59.0,78.0
732,181.42428889791665,182.07515048958334,47.0,72.0
733,181.94152989791667,182.39196060208332,67.0,78.0
734,181.94152989791667,182.45877089791665,59.0,83.0
735,182.20015039791667,182.62364146666664,47.0,70.0
736,181.16566839791665,182.67428798125,40.0,80.0
737,182.45877089791665,182.75833964375,64.0,78.0
738,182.71739139791666,183.06437390208333,62.0,82.0
739,183.23463239791664,183.52881321666666,60.0,78.0
740,183.23463239791664,183.58377007291665,64.0,80.0
741,183.75187339791665,183.89303708749998,60.0,80.0
742,183.49325289791665,184.15058000208333,55.0,78.0
743,184.01049389791666,184.57514865624998,60.0,79.0
744,183.23463239791664,184.60747621874998,48.0,80.0
745,184.01049389791666,184.7270882,67.0,79.0
746,184.01049389791666,184.72816578541665,64.0,80.0
747,184.52773489791667,184.85747603541665,55.0,80.0
748,185.04497589791666,185.18613958749998,64.0,66.0
749,184.78635539791665,185.1947602708333,60.0,85.0
750,185.30359639791666,185.6053203145833,59.0,79.0
751,185.30359639791666,185.7809667375,62.0,79.0
752,185.82083739791665,185.92644076874998,59.0,79.0
753,185.56221689791664,186.18937161041666,54.0,78.0
754,186.07945789791665,186.45553520833332,59.0,82.0
755,186.07945789791665,186.55036272499999,66.0,79.0
756,185.30359639791666,186.61501785,47.0,80.0
757,186.59669889791667,186.9059659125,59.0,80.0
758,186.85531939791667,187.02881065,54.0,74.0
759,186.59669889791667,187.11717265416667,62.0,80.0
760,187.11393989791665,187.21415534166664,59.0,79.0
761,187.37256039791666,187.63980158125,57.0,78.0
762,187.37256039791666,187.89842208124998,60.0,76.0
763,187.88980139791664,188.0363530145833,57.0,80.0
764,187.63118089791666,188.29281834374999,52.0,74.0
765,188.14842189791665,188.47169752291666,57.0,79.0
766,188.14842189791665,188.49324923125,60.0,85.0
767,188.40704239791665,188.73139560833332,52.0,76.0
768,187.37256039791666,188.79281797708333,45.0,79.0
769,188.66566289791666,188.86609378541667,57.0,78.0
770,188.66566289791666,189.13117979791667,64.0,81.0
771,188.66566289791666,189.15811943333333,60.0,83.0
772,189.18290389791665,189.31436931874998,57.0,77.0
773,189.44152439791665,189.68505870208332,57.0,81.0
774,189.44152439791665,189.8240672208333,62.0,82.0
775,189.95876539791666,190.07083428124997,57.0,72.0
776,189.70014489791666,190.403808175,45.0,71.0
777,190.21738589791664,190.54712703541665,62.0,87.0
778,190.21738589791664,190.56975632916667,57.0,79.0
779,190.21738589791664,190.62686835625,66.0,80.0
780,190.47600639791665,190.85208370833334,45.0,75.0
781,190.73462689791666,190.8714802458333,57.0,83.0
782,189.44152439791665,190.94044571249998,38.0,81.0
783,190.73462689791666,191.02880771666665,62.0,85.0
784,190.99324739791666,191.33376438958334,57.0,85.0
785,191.51048839791665,192.01910871458333,62.0,78.0
786,192.02772939791666,192.16781550208333,55.0,79.0
787,191.76910889791665,192.42212566041667,50.0,78.0
788,192.28634989791666,192.6010048395833,55.0,79.0
789,192.28634989791666,192.67428064791665,59.0,79.0
790,192.80359089791665,193.10100447291666,55.0,84.0
791,191.51048839791665,193.21846128333334,43.0,80.0
792,192.28634989791666,193.23354747916665,62.0,80.0
793,193.06221139791666,193.2443233333333,50.0,78.0
794,193.32083189791666,193.69044369583332,55.0,79.0
795,193.57945239791667,194.15165025416667,59.0,79.0
796,194.09669339791665,194.21630537916667,55.0,79.0
797,194.35531389791666,194.71199467083332,59.0,83.0
798,194.35531389791666,194.73893430624997,55.0,79.0
799,194.35531389791666,194.81867562708334,64.0,81.0
800,193.83807289791665,194.88548592291664,47.0,77.0
801,193.57945239791667,195.1042357625,40.0,79.0
802,194.87255489791664,195.15703744791665,59.0,84.0
803,195.13117539791665,195.4490630958333,55.0,84.0
804,195.38979589791666,195.57729576041666,59.0,80.0
805,195.64841639791666,195.93936446041664,57.0,72.0
806,195.64841639791666,196.03634714791667,60.0,80.0
807,196.16565739791665,196.29173489166666,57.0,79.0
808,195.90703689791667,196.52341575625,52.0,79.0
809,196.42427789791665,196.73677766875,57.0,78.0
810,196.42427789791665,196.78957935416665,64.0,80.0
811,196.94151889791667,197.12363083333332,57.0,79.0
812,196.68289839791666,197.18074286041667,52.0,73.0
813,195.64841639791666,197.18505320208334,45.0,77.0
814,196.94151889791667,197.35100135624998,60.0,83.0
815,197.45875989791665,197.60423392916664,57.0,74.0
816,197.71738039791666,198.08483702499998,55.0,74.0
817,197.71738039791666,198.27449205833332,59.0,73.0
818,198.23462139791667,198.53634531458331,55.0,79.0
819,198.49324189791665,198.62255214791665,59.0,80.0
820,197.97600089791666,198.84453474375,47.0,70.0
821,197.71738039791666,199.13656039166665,40.0,82.0
822,198.75186239791665,199.17427588125,55.0,78.0
823,199.01048289791666,199.18181897916665,47.0,76.0
824,198.75186239791665,199.26479305625,64.0,84.0
825,199.26910339791667,199.49755150624998,59.0,83.0
826,199.52772389791664,199.6678100020833,55.0,73.0
827,199.78634439791665,200.11177519375,60.0,67.0
828,200.04496489791666,200.40487842708333,55.0,80.0
829,200.30358539791666,200.58052485,60.0,76.0
830,200.56220589791667,200.97923145416667,64.0,78.0
831,199.78634439791665,201.21737783125,48.0,83.0
832,201.07944689791665,201.35961910625,60.0,85.0
833,201.33806739791666,201.6602654375,55.0,79.0
834,201.59668789791667,201.76586880833332,60.0,74.0
835,201.85530839791664,202.16565299791665,59.0,75.0
836,201.85530839791664,202.16888575416667,62.0,73.0
837,202.37254939791666,202.53634238125,59.0,80.0
838,202.11392889791665,202.75401463541664,54.0,64.0
839,202.63116989791666,202.92858347291667,59.0,84.0
840,202.63116989791666,202.99754893958334,66.0,78.0
841,202.88979039791667,203.27341080624998,54.0,72.0
842,203.14841089791668,203.2895745875,59.0,79.0
843,201.85530839791664,203.37901417708332,47.0,79.0
844,203.14841089791668,203.42750552083334,62.0,82.0
845,203.40703139791665,203.53095372083334,59.0,83.0
846,203.92427239791664,204.19690150833333,57.0,72.0
847,203.92427239791664,204.44582373958332,60.0,73.0
848,204.44151339791665,204.73461663125,55.0,79.0
849,204.18289289791664,204.77772004791666,52.0,68.0
850,204.70013389791666,205.09776291666665,60.0,84.0
851,204.95875439791666,205.31759034166666,52.0,74.0
852,205.21737489791667,205.42642646874998,57.0,74.0
853,203.92427239791664,205.4878488375,45.0,78.0
854,205.21737489791667,205.54496086458332,64.0,81.0
855,205.47599539791668,205.58590911041665,52.0,78.0
856,205.21737489791667,205.76802104583334,60.0,81.0
857,205.73461589791665,206.07405530416668,57.0,75.0
858,205.99323639791666,206.2960379,62.0,78.0
859,206.51047739791665,206.64948591666666,57.0,77.0
860,206.76909789791665,207.13978728125,57.0,78.0
861,206.76909789791665,207.21845101666668,66.0,79.0
862,206.25185689791664,207.34345092499998,45.0,68.0
863,205.99323639791666,207.39409743958333,38.0,82.0
864,207.28633889791666,207.57728696041664,62.0,79.0
865,207.54495939791667,207.6850455020833,57.0,75.0
866,208.57944139791664,209.30681155416664,55.0,80.0
867,208.83806189791665,209.4016390708333,62.0,79.0
868,208.32082089791666,209.59344927499998,50.0,73.0
869,208.06220039791665,209.7022854020833,43.0,89.0
870,209.35530289791666,209.72491469583332,67.0,79.0
871,209.61392339791666,209.79819050416666,55.0,82.0
872,210.13116439791668,210.41995728958332,55.0,79.0
873,210.13116439791668,210.56758649166665,60.0,78.0
874,210.13116439791668,210.68288813125,64.0,79.0
875,210.64840539791666,210.87793109166665,55.0,85.0
876,210.13116439791668,210.97168102291664,36.0,79.0
877,210.38978489791666,211.02663787916666,43.0,79.0
878,210.90702589791664,211.10206885833333,60.0,84.0
879,211.16564639791665,211.4167238,57.0,82.0
880,211.16564639791665,211.42857723958332,62.0,79.0
881,211.68288739791666,212.13547327291667,66.0,79.0
882,211.42426689791665,212.20228356874998,45.0,68.0
883,211.16564639791665,212.205516325,38.0,85.0
884,211.94150789791667,212.23030078958334,57.0,80.0
885,212.20012839791667,212.74323144791666,59.0,79.0
886,212.20012839791667,212.78741244999998,62.0,77.0
887,212.71736939791666,212.89193823541666,55.0,79.0
888,212.45874889791668,213.08051568333332,50.0,67.0
889,212.97598989791666,213.627929075,55.0,82.0
890,213.75185139791665,213.95982538333334,50.0,78.0
891,212.20012839791667,213.9792219208333,43.0,79.0
892,213.49323089791665,214.04926497291666,59.0,79.0
893,212.97598989791666,214.09991148749998,62.0,80.0
894,214.01047189791666,214.14409248958333,55.0,78.0
895,214.78633339791668,214.95659189375,59.0,84.0
896,215.04495389791666,215.42210879375,59.0,84.0
897,215.04495389791666,215.44258291666665,64.0,84.0
898,214.52771289791667,215.58266902083332,47.0,81.0
899,214.26909239791667,215.63223795,40.0,82.0
900,215.56219489791664,215.83482400833333,64.0,81.0
901,215.56219489791664,215.86391881458331,67.0,78.0
902,215.82081539791665,215.94150496458332,59.0,80.0
903,216.33805639791666,216.62146136249999,57.0,72.0
904,216.33805639791666,216.86822842291667,60.0,74.0
905,216.85529739791667,216.97167662291668,57.0,76.0
906,217.11391789791665,217.47275384166664,57.0,79.0
907,217.11391789791665,217.51909001458333,64.0,80.0
908,216.59667689791667,217.71090021875,52.0,72.0
909,217.63115889791666,217.81434841875,57.0,80.0
910,217.63115889791666,217.9662879625,60.0,82.0
911,216.33805639791666,217.97706381666666,45.0,79.0
912,217.88977939791664,218.01693447708334,52.0,77.0
913,218.40702039791665,218.65917538541666,59.0,73.0
914,218.40702039791665,218.9221062270833,64.0,79.0
915,218.92426139791667,219.0384854520833,59.0,78.0
916,218.66564089791666,219.31650248958334,47.0,72.0
917,219.18288189791667,219.63331260208332,67.0,78.0
918,219.18288189791667,219.70012289791666,59.0,83.0
919,219.44150239791665,219.86499346666665,47.0,70.0
920,218.40702039791665,219.91563998125,40.0,80.0
921,219.70012289791666,219.99969164375,64.0,78.0
922,219.95874339791666,220.30572590208334,62.0,82.0
923,220.47598439791665,220.77016521666667,60.0,78.0
924,220.47598439791665,220.82512207291666,64.0,80.0
925,220.99322539791666,221.13438908749998,60.0,80.0
926,220.73460489791665,221.3919320020833,55.0,78.0
927,221.25184589791667,221.81650065624999,60.0,79.0
928,220.47598439791665,221.84882821875,48.0,80.0
929,221.25184589791667,221.96844019999997,67.0,79.0
930,221.25184589791667,221.96951778541666,64.0,80.0
931,221.76908689791665,222.09882803541666,55.0,80.0
932,222.28632789791666,222.4274915875,64.0,66.0
933,222.02770739791666,222.43611227083332,60.0,85.0
934,222.54494839791664,222.84667231458332,59.0,79.0
935,222.54494839791664,223.02231873749997,62.0,79.0
936,223.06218939791665,223.16779276875,59.0,79.0
937,222.80356889791665,223.43072361041666,54.0,78.0
938,223.32080989791666,223.69688720833332,59.0,82.0
939,223.32080989791666,223.791714725,66.0,79.0
940,222.54494839791664,223.85636985,47.0,80.0
941,223.83805089791667,224.1473179125,59.0,80.0
942,224.09667139791665,224.27016264999997,54.0,74.0
943,223.83805089791667,224.35852465416667,62.0,80.0
944,224.35529189791666,224.45550734166665,59.0,79.0
945,224.61391239791666,224.88115358124998,57.0,78.0
946,224.61391239791666,225.13977408124998,60.0,76.0
947,225.13115339791665,225.27770501458332,57.0,80.0
948,224.87253289791664,225.53417034375,52.0,74.0
949,225.38977389791665,225.71304952291666,57.0,79.0
950,225.38977389791665,225.73460123125,60.0,85.0
951,225.64839439791666,225.97274760833332,52.0,76.0
952,224.61391239791666,226.0341699770833,45.0,79.0
953,225.90701489791667,226.10744578541664,57.0,78.0
954,225.90701489791667,226.37253179791665,64.0,81.0
955,225.90701489791667,226.3994714333333,60.0,83.0
956,226.42425589791665,226.55572131875,57.0,77.0
957,226.68287639791666,226.92641070208333,57.0,81.0
958,226.68287639791666,227.06541922083332,62.0,82.0
959,227.20011739791664,227.31218628124998,57.0,72.0
960,226.94149689791666,227.645160175,45.0,71.0
961,227.45873789791665,227.78847903541666,62.0,87.0
962,227.45873789791665,227.81110832916664,57.0,79.0
963,227.45873789791665,227.86822035625,66.0,80.0
964,227.71735839791666,228.09343570833335,45.0,75.0
965,227.97597889791666,228.11283224583332,57.0,83.0
966,226.68287639791666,228.18179771249999,38.0,81.0
967,227.97597889791666,228.27015971666665,62.0,85.0
968,228.23459939791667,228.57511638958334,57.0,85.0
969,228.75184039791665,229.26046071458333,62.0,78.0
970,229.26908139791664,229.40916750208333,55.0,79.0
971,229.01046089791666,229.66347766041667,50.0,78.0
972,229.52770189791664,229.84235683958332,55.0,79.0
973,229.52770189791664,229.91563264791665,59.0,79.0
974,230.04494289791666,230.34235647291666,55.0,84.0
975,228.75184039791665,230.45981328333332,43.0,80.0
976,229.52770189791664,230.47489947916665,62.0,80.0
977,230.30356339791666,230.48567533333332,50.0,78.0
978,230.56218389791667,230.93179569583333,55.0,79.0
979,230.82080439791667,231.39300225416667,59.0,79.0
980,231.33804539791666,231.45765737916668,55.0,79.0
981,231.59666589791664,231.95334667083333,59.0,83.0
982,231.59666589791664,231.98028630624998,55.0,79.0
983,231.59666589791664,232.06002762708334,64.0,81.0
984,231.07942489791665,232.12683792291665,47.0,77.0
985,230.82080439791667,232.34558776249997,40.0,79.0
986,232.11390689791665,232.39838944791666,59.0,84.0
987,232.37252739791666,232.69041509583332,55.0,84.0
988,232.63114789791666,232.81864776041664,59.0,80.0
989,232.88976839791667,233.18071646041665,57.0,72.0
990,232.88976839791667,233.27769914791668,60.0,80.0
991,233.40700939791665,233.53308689166664,57.0,79.0
992,233.14838889791667,233.76476775625,52.0,79.0
993,233.66562989791666,233.97812966875,57.0,78.0
994,233.66562989791666,234.03093135416665,64.0,80.0
995,234.18287089791664,234.36498283333333,57.0,79.0
996,233.92425039791664,234.42209486041668,52.0,73.0
997,232.88976839791667,234.42640520208334,45.0,77.0
998,234.18287089791664,234.59235335625,60.0,83.0
999,234.70011189791666,234.84558592916665,57.0,74.0
1000,234.95873239791666,235.326189025,55.0,74.0
1001,234.95873239791666,235.51584405833333,59.0,73.0
1002,235.47597339791668,235.77769731458332,55.0,79.0
1003,235.73459389791665,235.86390414791666,59.0,80.0
1004,235.21735289791667,236.08588674375,47.0,70.0
1005,234.95873239791666,236.37791239166665,40.0,82.0
1006,235.99321439791666,236.41562788124997,55.0,78.0
1007,236.25183489791664,236.42317097916666,47.0,76.0
1008,235.99321439791666,236.50614505624998,64.0,84.0
1009,236.51045539791664,236.73890350624998,59.0,83.0
1010,236.76907589791665,236.90916200208332,55.0,73.0
1011,237.02769639791666,237.35312719375,60.0,67.0
1012,237.28631689791666,237.6462304270833,55.0,80.0
1013,237.54493739791667,237.82187685,60.0,76.0
1014,237.80355789791668,238.22058345416667,64.0,78.0
1015,237.02769639791666,238.45872983125,48.0,83.0
1016,238.32079889791666,238.60097110624997,60.0,85.0
1017,238.57941939791664,238.9016174375,55.0,79.0
1018,238.83803989791664,239.00722080833333,60.0,74.0
1019,239.09666039791665,239.40700499791666,59.0,75.0
1020,239.09666039791665,239.41023775416664,62.0,73.0
1021,239.61390139791666,239.77769438125,59.0,80.0
1022,239.35528089791666,239.99536663541664,54.0,64.0
1023,239.87252189791667,240.16993547291668,59.0,84.0
1024,239.87252189791667,240.23890093958335,66.0,78.0
1025,240.13114239791668,240.51476280625,54.0,72.0
1026,240.38976289791665,240.5309265875,59.0,79.0
1027,239.09666039791665,240.62036617708333,47.0,79.0
1028,240.38976289791665,240.66885752083334,62.0,82.0
1029,240.64838339791666,240.77230572083334,59.0,83.0
1030,241.16562439791664,241.43825350833333,57.0,72.0
1031,241.16562439791664,241.68717573958332,60.0,73.0
1032,241.68286539791666,241.97596863125,55.0,79.0
1033,241.42424489791665,242.01907204791667,52.0,68.0
1034,241.94148589791666,242.33911491666666,60.0,84.0
1035,242.20010639791667,242.55894234166666,52.0,74.0
1036,242.45872689791668,242.66777846875,57.0,74.0
1037,241.16562439791664,242.7292008375,45.0,78.0
1038,242.45872689791668,242.78631286458332,64.0,81.0
1039,242.71734739791665,242.82726111041666,52.0,78.0
1040,242.45872689791668,243.00937304583334,60.0,81.0
1041,242.97596789791666,243.31540730416665,57.0,75.0
1042,243.23458839791664,243.5373899,62.0,78.0
1043,243.75182939791665,243.89083791666667,57.0,77.0
1044,244.01044989791666,244.38113928125,57.0,78.0
1045,244.01044989791666,244.45980301666665,66.0,79.0
1046,243.49320889791665,244.584802925,45.0,68.0
1047,243.23458839791664,244.63544943958334,38.0,82.0
1048,244.52769089791667,244.81863896041665,62.0,79.0
1049,244.78631139791668,244.92639750208332,57.0,75.0
1050,245.30355239791666,245.62144009583332,55.0,76.0
1051,245.30355239791666,245.852043375,62.0,77.0
1052,245.82079339791665,245.95333640416666,55.0,79.0
1053,246.07941389791665,246.46734464791666,55.0,80.0
1054,246.07941389791665,246.48350842916665,59.0,79.0
1055,245.56217289791664,246.7248875625,50.0,73.0
1056,245.30355239791666,246.92100810833333,43.0,79.0
1057,246.59665489791666,247.27337853958332,59.0,80.0
1058,246.59665489791666,247.29277507708332,62.0,81.0
1059,247.37251639791666,247.75613680625,59.0,79.0
1060,247.88975739791664,248.0050590375,52.0,79.0
1061,248.14837789791665,248.4791966208333,52.0,80.0
1062,248.14837789791665,248.53846381875,59.0,77.0
1063,247.63113689791666,248.78846363541666,47.0,71.0
1064,248.66561889791666,248.80786017291666,52.0,80.0
1065,247.37251639791666,248.81648085625,40.0,84.0
1066,248.66561889791666,248.98350659583332,55.0,79.0
1067,248.92423939791666,249.05785998958333,52.0,80.0
1068,249.44148039791668,249.59988545416667,55.0,77.0
1069,249.44148039791668,249.7378163875,60.0,75.0
1070,249.70010089791666,250.06540235416668,55.0,79.0
1071,249.95872139791666,250.0998850875,60.0,80.0
1072,250.21734189791664,250.61281574583333,55.0,80.0
1073,250.21734189791664,250.73027255625,64.0,81.0
1074,249.44148039791668,250.90268622291666,48.0,81.0
1075,250.73458289791665,251.01259993541666,60.0,83.0
1076,250.99320339791666,251.3013928270833,55.0,77.0
1077,251.25182389791667,251.55785815625,60.0,73.0
1078,251.51044439791667,251.93932339375,62.0,74.0
1079,252.02768539791666,252.33587482708333,57.0,80.0
1080,252.28630589791666,252.40484029375,62.0,79.0
1081,252.54492639791664,252.75828831041667,57.0,77.0
1082,252.54492639791664,252.79061587291665,66.0,83.0
1083,251.51044439791667,252.88544338958332,38.0,82.0
1084,251.76906489791668,252.88544338958332,45.0,66.0
1085,252.80354689791665,253.04708120208332,62.0,83.0
1086,253.06216739791665,253.40483956041666,57.0,80.0
1087,253.32078789791666,254.01367532083333,62.0,79.0
1088,254.09664939791668,254.44255431666664,55.0,84.0
1089,254.35526989791666,254.68716620625,59.0,85.0
1090,253.83802889791667,254.95009704791664,50.0,76.0
1091,254.87251089791664,255.10203659166666,55.0,76.0
1092,253.57940839791667,255.19578652291665,43.0,81.0
1093,255.13113139791665,255.25613130624998,50.0,79.0
1094,254.87251089791664,255.26475198958332,59.0,81.0
1095,254.87251089791664,255.31863126041665,62.0,79.0
1096,255.38975189791665,255.67531203333334,55.0,79.0
1097,255.64837239791666,256.2442771333333,64.0,81.0
1098,256.1656133979167,256.4888890229166,55.0,79.0
1099,256.4242338979167,256.80462155,59.0,82.0
1100,255.90699289791667,257.00289726666665,47.0,74.0
1101,255.64837239791666,257.15052646875,40.0,80.0
1102,256.9414748979167,257.2076384958333,55.0,79.0
1103,257.20009539791664,257.3563452833333,47.0,71.0
1104,256.9414748979167,257.4759572645833,59.0,84.0
1105,256.9414748979167,257.541689975,64.0,80.0
1106,257.45871589791665,257.6181985395833,55.0,78.0
1107,257.71733639791665,258.0266034125,60.0,79.0
1108,257.97595689791666,258.35418937916666,55.0,78.0
1109,258.23457739791667,258.56755129166663,60.0,78.0
1110,258.4931978979167,258.98780960416667,64.0,81.0
1111,257.71733639791665,258.989964775,48.0,80.0
1112,259.01043889791663,259.31755074166665,60.0,84.0
1113,259.26905939791664,259.59125743749996,55.0,78.0
1114,259.52767989791664,259.8067745208333,60.0,73.0
1115,259.78630039791665,260.08048121666667,57.0,73.0
1116,259.78630039791665,260.12250704791666,62.0,76.0
1117,260.30354139791666,260.4037568416667,57.0,54.0
1118,260.56216189791667,260.8412565208333,57.0,78.0
1119,260.56216189791667,260.95871333125,66.0,75.0
1120,261.0794028979167,261.57724736041666,62.0,76.0
1121,260.04492089791665,261.72379897708333,45.0,67.0
1122,259.78630039791665,261.72810931875,38.0,83.0
1123,262.08586767708334,263.2906081729167,55.0,70.0
1124,262.19039346249997,263.40914256875,59.0,69.0
1125,262.31647095625,263.4306942770833,62.0,70.0
1126,262.4102208875,263.4727201083333,67.0,67.0
1127,261.98241947708334,263.5082804270833,50.0,73.0
1128,261.79815237083335,263.63435792083334,43.0,78.0
