,start,end,pitch,velocity
0,15.944197552083333,16.32111984375,74.0,87.0
1,16.405735052083333,16.784580416666667,67.0,84.0
2,16.86727255208333,17.02496453125,67.0,85.0
3,17.098041302083335,17.30765625,69.0,78.0
4,17.328810052083334,17.507655833333335,70.0,84.0
5,17.559578802083333,17.715347708333333,74.0,89.0
6,17.790347552083333,18.19034671875,72.0,83.0
7,18.251885052083335,18.61726890625,69.0,82.0
8,18.713422552083333,18.901883697916666,65.0,82.0
9,18.944191302083333,19.084575625,67.0,79.0
10,19.174960052083332,19.330728958333335,69.0,83.0
11,19.405728802083335,19.559574635416666,72.0,83.0
12,19.636497552083334,19.986496822916667,70.0,84.0
13,20.098035052083333,20.438418958333333,67.0,82.0
14,20.559572552083335,20.705726093750002,67.0,83.0
15,20.790341302083334,20.949956354166666,69.0,82.0
16,21.021110052083333,21.221109635416667,70.0,85.0
17,21.251878802083333,21.428801510416665,67.0,82.0
18,21.482647552083332,21.857646770833334,69.0,84.0
19,21.944185052083334,22.2461075,62.0,84.0
20,22.867260052083335,22.986490572916665,60.0,83.0
21,23.098028802083334,23.263413072916666,62.0,82.0
22,23.328797552083333,23.661489166666666,63.0,82.0
23,23.790335052083332,24.115334375,70.0,83.0
24,24.251872552083334,24.39802609375,72.0,85.0
25,24.482641302083334,24.665333229166666,70.0,84.0
26,24.713410052083333,24.87302510416667,69.0,85.0
27,24.944178802083332,25.11340921875,67.0,81.0
28,25.174947552083335,25.555715989583334,69.0,83.0
29,25.636485052083334,26.098022552083332,65.0,84.0
30,26.559560052083334,26.724944322916667,60.0,82.0
31,26.790328802083334,26.969174583333334,60.0,83.0
32,27.021097552083333,27.374942968750002,63.0,83.0
33,27.482635052083335,27.713403802083334,63.0,85.0
34,27.713403802083334,28.038403125,65.0,83.0
35,28.405710052083332,28.867247552083334,60.0,83.0
36,28.867247552083334,29.6422459375,62.0,82.0
37,30.713397552083332,31.09031984375,74.0,87.0
38,31.174935052083335,31.553780416666665,67.0,84.0
39,31.636472552083333,31.79416453125,67.0,85.0
40,31.867241302083332,32.07685625,69.0,78.0
41,32.09801005208333,32.276855833333336,70.0,84.0
42,32.328778802083335,32.48454770833333,74.0,89.0
43,32.55954755208333,32.95954671875,72.0,83.0
44,33.021085052083336,33.38646890625,69.0,82.0
45,33.482622552083335,33.671083697916664,65.0,82.0
46,33.71339130208333,33.853775625,67.0,79.0
47,33.94416005208333,34.09992895833334,69.0,83.0
48,34.174928802083336,34.328774635416664,72.0,83.0
49,34.40569755208333,34.75569682291667,70.0,84.0
50,34.86723505208333,35.207618958333335,67.0,82.0
51,35.328772552083336,35.47492609375,67.0,83.0
52,35.55954130208333,35.719156354166664,69.0,82.0
53,35.790310052083335,35.990309635416665,70.0,85.0
54,36.02107880208333,36.19800151041667,67.0,82.0
55,36.25184755208333,36.62684677083333,69.0,84.0
56,36.71338505208333,37.0153075,62.0,84.0
57,37.636460052083336,37.75569057291667,60.0,83.0
58,37.86722880208333,38.03261307291667,62.0,82.0
59,38.097997552083335,38.43068916666667,63.0,82.0
60,38.55953505208333,38.884534375,70.0,83.0
61,39.02107255208333,39.16722609375,72.0,85.0
62,39.251841302083335,39.43453322916667,70.0,84.0
63,39.48261005208333,39.64222510416667,69.0,85.0
64,39.713378802083334,39.88260921875,67.0,81.0
65,39.94414755208334,40.32491598958333,69.0,83.0
66,40.405685052083335,40.86868727708333,65.0,84.0
67,41.333082777083334,41.49949116458333,65.0,82.0
68,41.56528052708333,41.74523378333333,65.0,83.0
69,41.797478277083336,42.153514827083335,72.0,83.0
70,42.26187377708333,42.494071527083335,74.0,85.0
71,42.494071527083335,42.82108335833333,75.0,83.0
72,43.190664777083335,43.42286252708333,72.0,83.0
73,43.42286252708333,44.58385127708333,74.0,82.0
74,44.58385127708333,44.734779814583334,74.0,88.0
75,44.81604902708333,44.96697756458333,72.0,85.0
76,45.048246777083335,45.23593995833333,70.0,86.0
77,45.28044452708333,45.43717800833333,69.0,85.0
78,45.51264227708333,45.868678827083336,70.0,87.0
79,45.97703777708333,46.124096352083335,70.0,86.0
80,46.208949727083336,46.77048701875,70.0,89.0
81,46.670487227083335,47.13587087291667,74.0,93.0
82,47.362793477083336,48.04356128958334,72.0,86.0
83,48.28586847708333,48.46471425833333,74.0,89.0
84,48.516637227083336,48.658944622916664,72.0,80.0
85,48.74740597708333,48.93202097708333,70.0,88.0
86,48.978174727083335,49.095482175,69.0,85.0
87,49.20894347708334,49.59548113333334,69.0,91.0
88,49.670480977083336,50.02624946666667,77.0,91.0
89,50.132018477083335,50.48586389375,77.0,84.0
90,50.593555977083334,50.75124795625,75.0,87.0
91,50.82432472708334,51.1839393625,75.0,84.0
92,51.285862227083335,51.87432253958333,74.0,93.0
93,51.97816847708334,52.166629622916666,74.0,89.0
94,52.20893722708333,52.35124462291667,72.0,77.0
95,52.439705977083335,52.66662858125,70.0,87.0
96,52.67047472708333,52.872397383333336,69.0,83.0
97,52.901243477083334,53.25124274791667,70.0,85.0
98,53.36278097708333,53.50893451875,70.0,88.0
99,53.593549727083335,53.951241289583336,70.0,87.0
100,54.055087227083334,54.6916243625,74.0,96.0
101,54.747393477083335,55.06854665416667,72.0,86.0
102,55.67046847708333,56.09354451875,77.0,83.0
103,56.13200597708334,56.49931290416667,72.0,84.0
104,56.59354347708334,57.20892681041667,75.0,86.0
105,57.28584972708333,58.94738472708333,74.0,93.0
106,59.362768477083335,59.69353701875,74.0,99.0
107,59.824305977083334,60.27430503958333,74.0,84.0
108,60.28584347708333,60.66084269583334,82.0,86.0
109,60.74738097708334,61.05507264375,81.0,85.0
110,61.20891847708334,61.58007155,81.0,86.0
111,61.670455977083336,61.8108403,79.0,85.0
112,61.90122472708333,62.587761758333336,81.0,87.0
113,62.59353097708333,62.94353024791667,74.0,96.0
114,63.05506847708334,63.48006759166667,74.0,98.0
115,63.51660597708333,63.91468207083334,77.0,87.0
116,63.978143477083336,64.34929655,79.0,83.0
117,64.43968097708333,64.76083415416667,77.0,89.0
118,64.90121847708333,65.22044858125,79.0,84.0
119,65.36275597708334,65.526217175,70.0,82.0
120,65.59352472708333,65.95121628958333,72.0,82.0
121,66.05506222708334,66.89159894583334,74.0,96.0
122,67.20890597708333,67.36659795625,72.0,87.0
123,67.43967472708334,67.5915974875,74.0,89.0
124,67.67044347708334,67.91659681041666,75.0,91.0
125,67.9954428,68.22428847708333,75.0,89.0
126,68.31851905,68.51467248750001,75.0,88.0
127,68.61467227916667,68.87428712291667,75.0,89.0
128,68.92813316458333,69.21082488333333,74.0,98.0
129,69.23774790416667,69.36274764375,72.0,85.0
130,69.49351660208333,69.78005446666667,70.0,86.0
131,69.97813097708334,70.14543832083334,72.0,84.0
132,70.20889972708333,70.92428285208334,74.0,89.0
133,71.13197472708333,71.29351285208334,70.0,84.0
134,71.36274347708334,71.72043503958334,79.0,86.0
135,71.82428097708333,71.96081915416667,81.0,88.0
136,72.05504972708334,72.72235602916666,82.0,83.0
137,72.74735597708333,73.11658597708333,79.0,84.0
138,73.20889347708334,74.07427628958334,81.0,89.0
139,74.13196847708333,74.50696769583334,74.0,99.0
140,74.59350597708334,74.98581285208334,74.0,98.0
141,75.05504347708333,75.43004269583334,82.0,86.0
142,75.51658097708334,75.82427264374999,81.0,85.0
143,75.97811847708334,76.34927155,81.0,86.0
144,76.43965597708333,76.58004030000001,79.0,85.0
145,76.67042472708333,77.35696175833334,81.0,87.0
146,77.36273097708333,77.71273024791667,74.0,96.0
147,77.82426847708334,78.24926759166667,74.0,98.0
148,78.28580597708333,78.68388207083333,77.0,87.0
149,78.74734347708333,79.11849655,79.0,83.0
150,79.20888097708334,79.53003415416667,77.0,89.0
151,79.67041847708333,79.98964858125001,79.0,84.0
152,80.13195597708334,80.29541717500001,70.0,82.0
153,80.36272472708333,80.72041628958334,72.0,82.0
154,80.82426222708334,81.66079894583333,74.0,96.0
155,81.97810597708335,82.13579795625,72.0,87.0
156,82.20887472708333,82.36079748750001,74.0,89.0
157,82.43964347708334,82.68579681041666,75.0,91.0
158,82.7646428,82.99348847708333,75.0,89.0
159,83.08771905,83.28387248749999,75.0,88.0
160,83.38387227916667,83.64348712291667,75.0,89.0
161,83.69733316458334,83.98002488333333,74.0,98.0
162,84.00694790416667,84.13194764375001,72.0,85.0
163,84.26271660208334,84.54925446666667,70.0,86.0
164,84.74733097708334,84.91463832083333,72.0,84.0
165,84.97809972708333,85.69348285208333,74.0,89.0
166,85.90117472708334,86.06271285208334,70.0,84.0
167,86.13194347708333,86.48963503958333,79.0,86.0
168,86.59348097708333,86.73001915416667,81.0,88.0
169,86.82424972708333,87.49155602916667,82.0,83.0
170,87.51655597708333,87.88578597708334,79.0,84.0
171,87.97809347708333,88.84347628958334,81.0,89.0
172,88.90116847708333,89.30693686250001,79.0,88.0
173,89.36270597708334,90.26078102916667,78.0,89.0
174,90.28578097708333,92.387699675,79.0,87.0
175,126.74724347708333,127.12416576875,74.0,87.0
176,127.20878097708334,127.58762634166666,67.0,84.0
177,127.67031847708334,127.82801045625,67.0,85.0
178,127.90108722708334,128.110702175,69.0,78.0
179,128.13185597708332,128.31070175833332,70.0,84.0
180,128.36262472708333,128.51839363333335,74.0,89.0
181,128.59339347708334,128.99339264374998,72.0,83.0
182,129.05493097708333,129.42031483124998,69.0,82.0
183,129.51646847708332,129.70492962291667,65.0,82.0
184,129.74723722708333,129.88762155,67.0,79.0
185,129.97800597708334,130.13377488333333,69.0,83.0
186,130.20877472708332,130.36262056041667,72.0,83.0
187,130.43954347708333,130.78954274791667,70.0,84.0
188,130.90108097708332,131.24146488333332,67.0,82.0
189,131.36261847708334,131.50877201875,67.0,83.0
190,131.59338722708333,131.75300227916665,69.0,82.0
191,131.82415597708334,132.02415556041666,70.0,85.0
192,132.05492472708335,132.23184743541668,67.0,82.0
193,132.28569347708333,132.66069269583335,69.0,84.0
194,132.74723097708335,133.049153425,62.0,84.0
195,133.67030597708333,133.78953649791669,60.0,83.0
196,133.90107472708334,134.06645899791667,62.0,82.0
197,134.13184347708335,134.46453509166668,63.0,82.0
198,134.5933809770833,134.9183803,70.0,83.0
199,135.05491847708333,135.20107201874998,72.0,85.0
200,135.28568722708332,135.46837915416666,70.0,84.0
201,135.51645597708335,135.67607102916668,69.0,85.0
202,135.74722472708333,135.91645514375,67.0,81.0
203,135.97799347708332,136.35876191458334,69.0,83.0
204,136.43953097708334,136.90106847708333,65.0,84.0
205,137.36260597708332,137.52799024791665,60.0,82.0
206,137.59337472708333,137.77222050833333,60.0,83.0
207,137.82414347708334,138.17798889375,63.0,83.0
208,138.28568097708333,138.51644972708334,63.0,85.0
209,138.51644972708334,138.84144905,65.0,83.0
210,139.20875597708334,139.67029347708333,60.0,83.0
211,139.67029347708333,140.4452918625,62.0,82.0
212,141.51644347708333,141.89336576875002,74.0,87.0
213,141.97798097708335,142.35682634166668,67.0,84.0
214,142.43951847708334,142.59721045625,67.0,85.0
215,142.67028722708335,142.87990217499998,69.0,78.0
216,142.90105597708333,143.07990175833334,70.0,84.0
217,143.13182472708334,143.28759363333333,74.0,89.0
218,143.36259347708335,143.76259264375,72.0,83.0
219,143.8241309770833,144.18951483125,69.0,82.0
220,144.28566847708333,144.47412962291668,65.0,82.0
221,144.51643722708332,144.65682155000002,67.0,79.0
222,144.74720597708335,144.90297488333334,69.0,83.0
223,144.97797472708334,145.13182056041666,72.0,83.0
224,145.20874347708332,145.55874274791665,70.0,84.0
225,145.67028097708334,146.01066488333333,67.0,82.0
226,146.13181847708333,146.27797201875,67.0,83.0
227,146.36258722708334,146.52220227916666,69.0,82.0
228,146.59335597708332,146.79335556041667,70.0,85.0
229,146.82412472708333,147.00104743541667,67.0,82.0
230,147.05489347708334,147.42989269583333,69.0,84.0
231,147.51643097708333,147.818353425,62.0,84.0
232,148.43950597708334,148.55873649791667,60.0,83.0
233,148.67027472708332,148.83565899791665,62.0,82.0
234,148.90104347708333,149.2337350916667,63.0,82.0
235,149.36258097708333,149.6875803,70.0,83.0
236,149.82411847708335,149.97027201875,72.0,85.0
237,150.05488722708333,150.23757915416667,70.0,84.0
238,150.28565597708334,150.44527102916666,69.0,85.0
239,150.51642472708335,150.68565514375,67.0,81.0
240,150.74719347708333,151.12796191458335,69.0,83.0
241,151.20873097708335,151.67026847708334,65.0,84.0
242,152.13180597708333,152.29719024791666,65.0,82.0
243,152.36257472708334,152.54142050833332,65.0,83.0
244,152.59334347708335,152.94718889375,72.0,83.0
245,153.05488097708331,153.28564972708335,74.0,85.0
246,153.28564972708335,153.61064905,75.0,83.0
247,153.97795597708335,154.20872472708334,72.0,83.0
248,154.20872472708334,155.36256847708333,74.0,82.0
249,155.36256847708333,155.51256816458334,74.0,88.0
250,155.59333722708334,155.74333691458332,72.0,85.0
251,155.82410597708332,156.01064405,70.0,86.0
252,156.05487472708333,156.21064363333335,69.0,85.0
253,156.28564347708334,156.63948889375,70.0,87.0
254,156.74718097708333,156.89333451875,70.0,86.0
255,156.97794972708334,157.53948701874998,70.0,89.0
256,157.43948722708333,157.90487087291666,74.0,93.0
257,158.13179347708333,158.81256128958333,72.0,86.0
258,159.05486847708335,159.23371425833335,74.0,89.0
259,159.28563722708333,159.42794462291667,72.0,80.0
260,159.51640597708334,159.70102097708332,70.0,88.0
261,159.74717472708335,159.864482175,69.0,85.0
262,159.97794347708333,160.36448113333333,69.0,91.0
263,160.43948097708335,160.7952494666667,77.0,91.0
264,160.90101847708334,161.25486389374998,77.0,84.0
265,161.36255597708333,161.52024795625,75.0,87.0
266,161.59332472708334,161.9529393625,75.0,84.0
267,162.05486222708333,162.64332253958332,74.0,93.0
268,162.74716847708333,162.93562962291668,74.0,89.0
269,162.97793722708332,163.1202446229167,72.0,77.0
270,163.20870597708335,163.43562858125,70.0,87.0
271,163.43947472708334,163.64139738333336,69.0,83.0
272,163.67024347708332,164.02024274791665,70.0,85.0
273,164.13178097708334,164.27793451875,70.0,88.0
274,164.36254972708332,164.72024128958333,70.0,87.0
275,164.82408722708334,165.4606243625,74.0,96.0
276,165.51639347708334,165.83754665416666,72.0,86.0
277,166.43946847708332,166.86254451874998,77.0,83.0
278,166.90100597708334,167.26831290416666,72.0,84.0
279,167.36254347708334,167.97792681041665,75.0,86.0
280,168.05484972708334,169.71638472708332,74.0,93.0
281,170.13176847708334,170.46253701875,74.0,99.0
282,170.59330597708333,171.04330503958334,74.0,84.0
283,171.05484347708335,171.42984269583332,82.0,86.0
284,171.51638097708332,171.82407264375001,81.0,85.0
285,171.97791847708334,172.34907155000002,81.0,86.0
286,172.43945597708336,172.5798403,79.0,85.0
287,172.67022472708334,173.35676175833333,81.0,87.0
288,173.36253097708334,173.71253024791667,74.0,96.0
289,173.82406847708333,174.24906759166666,74.0,98.0
290,174.28560597708332,174.68368207083333,77.0,87.0
291,174.74714347708334,175.11829655,79.0,83.0
292,175.20868097708333,175.52983415416668,77.0,89.0
293,175.67021847708332,175.98944858125,79.0,84.0
294,176.13175597708334,176.295217175,70.0,82.0
295,176.36252472708333,176.72021628958333,72.0,82.0
296,176.82406222708335,177.66059894583333,74.0,96.0
297,177.97790597708334,178.13559795625,72.0,87.0
298,178.20867472708335,178.3605974875,74.0,89.0
299,178.43944347708333,178.68559681041665,75.0,91.0
300,178.7644428,178.99328847708333,75.0,89.0
301,179.08751905,179.2836724875,75.0,88.0
302,179.38367227916666,179.64328712291666,75.0,89.0
303,179.69713316458333,179.97982488333332,74.0,98.0
304,180.00674790416667,180.13174764375,72.0,85.0
305,180.26251660208334,180.54905446666666,70.0,86.0
306,180.74713097708334,180.91443832083334,72.0,84.0
307,180.97789972708333,181.69328285208334,74.0,89.0
308,181.90097472708334,182.06251285208333,70.0,84.0
309,182.13174347708335,182.48943503958333,79.0,86.0
310,182.59328097708334,182.72981915416668,81.0,88.0
311,182.82404972708335,183.49135602916667,82.0,83.0
312,183.51635597708332,183.88558597708334,79.0,84.0
313,183.97789347708334,184.84327628958334,81.0,89.0
314,184.90096847708332,185.27596769583334,74.0,99.0
315,185.36250597708334,185.75481285208335,74.0,98.0
316,185.82404347708334,186.19904269583333,82.0,86.0
317,186.28558097708333,186.59327264375,81.0,85.0
318,186.74711847708335,187.11827155,81.0,86.0
319,187.20865597708334,187.3490403,79.0,85.0
320,187.43942472708335,188.12596175833335,81.0,87.0
321,188.13173097708332,188.48173024791666,74.0,96.0
322,188.59326847708334,189.01826759166667,74.0,98.0
323,189.05480597708333,189.45288207083334,77.0,87.0
324,189.51634347708332,189.88749655,79.0,83.0
325,189.97788097708334,190.29903415416666,77.0,89.0
326,190.43941847708334,190.75864858125001,79.0,84.0
327,190.90095597708333,191.064417175,70.0,82.0
328,191.13172472708334,191.48941628958335,72.0,82.0
329,191.59326222708333,192.42979894583334,74.0,96.0
330,192.74710597708332,192.90479795625,72.0,87.0
331,192.97787472708333,193.1297974875,74.0,89.0
332,193.20864347708334,193.45479681041667,75.0,91.0
333,193.5336428,193.76248847708334,75.0,89.0
334,193.85671905,194.0528724875,75.0,88.0
335,194.15287227916667,194.41248712291667,75.0,89.0
336,194.46633316458335,194.74902488333333,74.0,98.0
337,194.77594790416666,194.90094764375002,72.0,85.0
338,195.03171660208332,195.31825446666667,70.0,86.0
339,195.51633097708333,195.68363832083332,72.0,84.0
340,195.74709972708334,196.46248285208333,74.0,89.0
341,196.67017472708335,196.83171285208334,70.0,84.0
342,196.90094347708333,197.25863503958334,79.0,86.0
343,197.36248097708332,197.49901915416666,81.0,88.0
344,197.59324972708333,198.26055602916668,82.0,83.0
345,198.28555597708333,198.65478597708332,79.0,84.0
346,198.74709347708333,199.61247628958333,81.0,89.0
347,199.67016847708334,200.01055238333333,82.0,93.0
348,200.13170597708333,200.53362821666667,81.0,88.0
349,200.59324347708335,201.31631889375,79.0,89.0
350,201.51631847708333,201.69901040416667,79.0,85.0
351,201.74708722708334,202.40862431041666,86.0,84.0
352,202.43939347708334,203.16439196666667,81.0,88.0
353,203.36246847708333,203.67208321666666,82.0,82.0
354,203.82400597708335,204.15092837291667,81.0,82.0
355,204.28554347708334,204.61438894583333,79.0,85.0
356,204.74708097708333,205.0605418625,77.0,85.0
357,205.20861847708335,205.34515665416666,79.0,84.0
358,205.43938722708333,206.10284738333334,77.0,86.0
359,206.13169347708333,206.96438405,74.0,91.0
360,207.05476847708334,207.3682293625,72.0,88.0
361,207.51630597708333,207.83938222708335,74.0,89.0
362,207.97784347708333,208.80284175833333,75.0,83.0
363,208.90091847708334,209.29322535208334,74.0,91.0
364,209.36245597708333,209.71822446666667,72.0,84.0
365,209.82399347708335,210.58937649791667,74.0,93.0
366,210.74706847708333,211.1066831125,74.0,96.0
367,211.20860597708332,211.52398993541667,74.0,93.0
368,211.67014347708334,212.02014274791668,79.0,86.0
369,212.13168097708333,212.26437300833334,81.0,84.0
370,212.36244972708334,212.94706389375,82.0,83.0
371,213.05475597708335,213.19706337291666,79.0,84.0
372,213.28552472708333,214.15667675833333,81.0,85.0
373,216.28551847708334,216.61628701875,74.0,99.0
374,216.74705597708333,217.19705503958335,74.0,84.0
375,217.20859347708333,217.58359269583335,82.0,86.0
376,217.67013097708335,217.97782264375,81.0,85.0
377,218.13166847708334,218.50282155,81.0,86.0
378,218.59320597708333,218.7335903,79.0,85.0
379,218.82397472708334,219.51051175833334,81.0,87.0
380,219.51628097708334,219.86628024791668,74.0,96.0
381,219.97781847708333,220.40281759166666,74.0,98.0
382,220.43935597708332,220.83743207083333,77.0,87.0
383,220.90089347708334,221.27204655,79.0,83.0
384,221.36243097708333,221.68358415416668,77.0,89.0
385,221.82396847708333,222.14319858125,79.0,84.0
386,222.28550597708335,222.448967175,70.0,82.0
387,222.51627472708333,222.87396628958334,72.0,82.0
388,222.97781222708335,223.81434894583333,74.0,96.0
389,224.13165597708334,224.28934795625,72.0,87.0
390,224.36242472708332,224.5143474875,74.0,89.0
391,224.59319347708333,224.83934681041666,75.0,91.0
392,224.9181928,225.14703847708333,75.0,89.0
393,225.24126905,225.43742248750002,75.0,88.0
394,225.53742227916666,225.79703712291666,75.0,89.0
395,225.85088316458334,226.13357488333332,74.0,98.0
396,226.16049790416668,226.28549764375,72.0,85.0
397,226.41626660208334,226.70280446666666,70.0,86.0
398,226.90088097708335,227.06818832083334,72.0,84.0
399,227.13164972708333,227.84703285208334,74.0,89.0
400,228.05472472708334,228.21626285208333,70.0,84.0
401,228.28549347708335,228.64318503958333,79.0,86.0
402,228.74703097708334,228.88356915416668,81.0,88.0
403,228.97779972708332,229.64510602916667,82.0,83.0
404,229.67010597708332,230.03933597708334,79.0,84.0
405,230.13164347708334,230.99702628958335,81.0,89.0
406,231.05471847708333,231.42971769583335,74.0,99.0
407,231.51625597708335,231.90856285208335,74.0,98.0
408,231.97779347708334,232.35279269583333,82.0,86.0
409,232.43933097708333,232.74702264375,81.0,85.0
410,232.90086847708335,233.27202155,81.0,86.0
411,233.36240597708334,233.50279030000002,79.0,85.0
412,233.59317472708332,234.27971175833335,81.0,87.0
413,234.28548097708332,234.63548024791666,74.0,96.0
414,234.74701847708334,235.17201759166667,74.0,98.0
415,235.20855597708334,235.60663207083334,77.0,87.0
416,235.67009347708333,236.04124655,79.0,83.0
417,236.13163097708335,236.45278415416666,77.0,89.0
418,236.59316847708334,236.91239858125,79.0,84.0
419,237.05470597708333,237.218167175,70.0,82.0
420,237.28547472708334,237.64316628958335,72.0,82.0
421,237.74701222708333,238.58354894583334,74.0,96.0
422,238.90085597708332,239.05854795625,72.0,87.0
423,239.13162472708333,239.28354748750002,74.0,89.0
424,239.36239347708334,239.60854681041667,75.0,91.0
425,239.6873928,239.91623847708334,75.0,89.0
426,240.01046905,240.2066224875,75.0,88.0
427,240.30662227916667,240.56623712291668,75.0,89.0
428,240.62008316458335,240.90277488333334,74.0,98.0
429,240.92969790416666,241.05469764375,72.0,85.0
430,241.18546660208332,241.47200446666668,70.0,86.0
431,241.67008097708333,241.83738832083333,72.0,84.0
432,241.90084972708334,242.61623285208333,74.0,89.0
433,242.82392472708332,242.98546285208334,70.0,84.0
434,243.05469347708333,243.41238503958334,79.0,86.0
435,243.51623097708332,243.65276915416666,81.0,88.0
436,243.74699972708333,244.41430602916668,82.0,83.0
437,244.43930597708334,244.80853597708332,79.0,84.0
438,244.90084347708333,245.76622628958333,81.0,89.0
439,245.82391847708334,246.2296868625,79.0,88.0
440,246.28545597708333,247.18353102916666,78.0,89.0
441,247.20853097708334,249.310449675,79.0,87.0
