,start,end,pitch,velocity
0,2.0980725520833334,2.6980713020833336,62.0,76.0
1,1.1749975520833333,2.724994322916667,43.0,82.0
2,1.6365350520833333,3.001916822916667,50.0,72.0
3,2.5596100520833334,3.2115317708333335,55.0,74.0
4,3.4826850520833332,4.0249916145833335,53.0,83.0
5,3.0211475520833333,4.180760520833333,41.0,77.0
6,3.944222552083333,4.842297604166666,60.0,75.0
7,4.8672975520833335,5.79806484375,39.0,69.0
8,4.8672975520833335,5.823064791666667,58.0,67.0
9,5.328835052083333,5.840372447916667,46.0,63.0
10,5.790372552083333,6.38652515625,55.0,83.0
11,6.251910052083334,6.717293697916666,58.0,75.0
12,6.713447552083333,7.434599895833333,57.0,75.0
13,7.174985052083334,7.663445572916666,45.0,68.0
14,6.713447552083333,7.709599322916667,38.0,77.0
15,7.636522552083333,9.353826666666667,62.0,82.0
16,9.251903802083334,9.746133541666667,58.0,67.0
17,9.021135052083334,9.748056614583334,55.0,79.0
18,9.482672552083333,9.805748802083333,67.0,82.0
19,8.790366302083333,10.223055625,50.0,72.0
20,8.559597552083334,10.24036328125,43.0,82.0
21,9.713441302083334,10.476901250000001,62.0,75.0
22,9.944210052083333,10.517285781250001,55.0,82.0
23,11.098053802083333,11.344207135416667,57.0,71.0
24,10.867285052083334,11.369207083333334,53.0,78.0
25,11.328822552083333,11.6653603125,60.0,80.0
26,10.636516302083333,11.684591041666668,48.0,70.0
27,10.405747552083334,11.744206302083333,41.0,81.0
28,11.559591302083334,11.82112921875,57.0,78.0
29,11.790360052083333,12.10959015625,53.0,79.0
30,12.021128802083334,12.2653590625,57.0,76.0
31,12.713435052083334,13.151895677083333,55.0,71.0
32,12.944203802083333,13.221126302083334,58.0,71.0
33,12.251897552083333,13.24612625,39.0,84.0
34,12.482666302083333,13.288433854166668,46.0,68.0
35,13.174972552083334,13.503818020833334,63.0,85.0
36,13.405741302083333,13.619202395833334,58.0,83.0
37,13.636510052083333,13.969201666666667,55.0,81.0
38,13.867278802083334,14.155739739583334,58.0,83.0
39,14.559585052083333,14.77496921875,50.0,80.0
40,14.790353802083333,14.932661197916667,54.0,65.0
41,14.098047552083333,15.64612125,38.0,85.0
42,14.328816302083334,15.6576596875,45.0,68.0
43,15.021122552083334,15.890351510416666,57.0,74.0
44,15.944197552083333,16.769195833333335,62.0,78.0
45,16.405735052083333,17.355733072916667,50.0,69.0
46,16.86727255208333,17.38457916666667,58.0,71.0
47,16.86727255208333,17.396117604166665,62.0,77.0
48,15.944197552083333,17.436502135416667,43.0,81.0
49,17.328810052083334,17.824962864583334,55.0,77.0
50,17.790347552083333,18.776883958333332,57.0,73.0
51,17.790347552083333,18.8653453125,41.0,74.0
52,18.251885052083335,18.874960677083333,48.0,67.0
53,18.713422552083333,19.02111421875,53.0,80.0
54,19.636497552083334,20.615341666666666,58.0,72.0
55,19.636497552083334,20.75187984375,39.0,67.0
56,20.098035052083333,20.799956666666667,46.0,68.0
57,20.559572552083335,21.067263802083332,55.0,82.0
58,21.021110052083333,21.471109114583335,63.0,77.0
59,21.482647552083332,22.190338385416666,62.0,76.0
60,21.944185052083334,22.230722916666668,57.0,70.0
61,21.482647552083332,22.5576453125,50.0,82.0
62,22.405722552083333,22.755721822916666,57.0,75.0
63,22.405722552083333,22.946106041666667,62.0,75.0
64,23.328797552083333,23.944180885416667,60.0,82.0
65,23.790335052083332,24.484564375,55.0,79.0
66,23.328797552083333,24.6807178125,48.0,80.0
67,24.251872552083334,24.699948541666668,63.0,80.0
68,24.713410052083333,25.094178489583335,55.0,54.0
69,25.174947552083335,25.849946145833332,62.0,78.0
70,25.636485052083334,26.611483020833333,53.0,78.0
71,25.174947552083335,26.69417515625,46.0,73.0
72,26.098022552083332,26.698021302083333,62.0,82.0
73,26.098022552083332,26.72302125,58.0,81.0
74,27.021097552083333,27.390327552083335,55.0,75.0
75,27.021097552083333,28.3037871875,39.0,78.0
76,27.482635052083335,28.340325572916665,46.0,70.0
77,27.021097552083333,28.365325520833334,58.0,65.0
78,27.944172552083334,28.444171510416666,63.0,84.0
79,28.405710052083332,28.530709791666666,55.0,86.0
80,28.867247552083334,29.121093177083335,57.0,72.0
81,28.867247552083334,29.349938854166666,62.0,78.0
82,29.328785052083333,29.859553177083335,57.0,75.0
83,28.867247552083334,30.001860572916666,50.0,82.0
84,29.790322552083335,30.151860260416665,66.0,77.0
85,29.790322552083335,30.153783333333333,62.0,80.0
86,30.713397552083332,31.655703281250002,58.0,61.0
87,30.713397552083332,31.717241614583333,62.0,78.0
88,30.713397552083332,32.119163854166665,43.0,81.0
89,31.636472552083333,32.15185609375,55.0,87.0
90,31.174935052083335,32.4114709375,50.0,70.0
91,32.09801005208333,32.48647078125,62.0,56.0
92,32.09801005208333,32.57877828125,58.0,78.0
93,32.55954755208333,33.17685395833333,57.0,82.0
94,32.55954755208333,33.52685322916667,53.0,78.0
95,33.021085052083336,33.70185286458334,48.0,70.0
96,33.482622552083335,33.7037759375,57.0,83.0
97,32.55954755208333,33.73839125,41.0,82.0
98,33.482622552083335,33.7960834375,60.0,82.0
99,34.40569755208333,35.31146489583333,55.0,78.0
100,34.40569755208333,35.40184932291667,58.0,71.0
101,34.40569755208333,35.45377229166667,39.0,78.0
102,34.86723505208333,35.505695260416665,46.0,71.0
103,35.328772552083336,35.85761760416667,63.0,87.0
104,35.790310052083335,35.99415578125,55.0,84.0
105,36.25184755208333,36.81338484375,62.0,80.0
106,36.71338505208333,36.9806921875,57.0,79.0
107,36.25184755208333,37.37107598958333,50.0,82.0
108,37.17492255208333,37.41146052083333,57.0,82.0
109,37.17492255208333,37.503768020833334,62.0,82.0
110,38.097997552083335,38.653765625,60.0,77.0
111,38.55953505208333,39.140303072916666,55.0,74.0
112,38.097997552083335,39.228764427083334,48.0,81.0
113,39.02107255208333,39.474917760416666,63.0,83.0
114,39.48261005208333,39.601840572916664,60.0,75.0
115,39.94414755208334,40.53645401041667,58.0,76.0
116,40.405685052083335,40.95189147083333,53.0,80.0
117,39.94414755208334,41.10862495208333,46.0,82.0
118,40.86868727708333,41.21311393958334,58.0,75.0
119,40.86868727708333,41.356302552083335,62.0,78.0
120,41.797478277083336,41.93292696458333,39.0,81.0
121,41.797478277083336,42.147709883333334,58.0,82.0
122,41.797478277083336,42.14964486458334,55.0,79.0
123,42.72626927708333,42.93137728958333,38.0,84.0
124,42.72626927708333,43.10359062083333,57.0,77.0
125,42.72626927708333,43.113265527083335,62.0,82.0
126,43.65506027708334,44.32649877083333,55.0,77.0
127,43.65506027708334,44.43679270208333,62.0,80.0
128,44.58385127708333,44.787024308333336,58.0,91.0
129,44.81604902708333,44.95730265833333,55.0,83.0
130,43.65506027708334,45.33462400208333,43.0,76.0
131,44.11945577708333,45.34236392708333,50.0,81.0
132,45.28044452708333,45.47587763333333,58.0,84.0
133,45.048246777083335,45.493292464583334,62.0,82.0
134,45.51264227708333,45.77579972708333,60.0,77.0
135,45.51264227708333,45.895768564583335,63.0,78.0
136,45.51264227708333,45.963492908333336,67.0,77.0
137,45.97703777708333,46.520487539583335,60.0,74.0
138,45.744840027083335,46.55510285208334,55.0,74.0
139,45.51264227708333,46.72433326875,48.0,84.0
140,46.43971847708333,46.76664087291667,63.0,88.0
141,46.670487227083335,46.81279462291667,55.0,77.0
142,46.90125597708334,47.253178320833335,60.0,83.0
143,47.362793477083336,47.603177591666665,60.0,78.0
144,47.362793477083336,47.62048524791667,65.0,76.0
145,47.824330977083335,48.38971441458334,48.0,70.0
146,48.28586847708333,48.41086821666667,57.0,81.0
147,48.28586847708333,48.4377912375,53.0,82.0
148,48.28586847708333,48.48009884166667,60.0,82.0
149,47.362793477083336,48.49932957083333,41.0,82.0
150,48.74740597708333,48.95894399791667,41.0,83.0
151,49.20894347708334,49.32240477916667,38.0,83.0
152,49.20894347708334,49.89932665416667,62.0,81.0
153,49.20894347708334,50.095480091666666,66.0,81.0
154,49.90124972708333,50.355094935416666,57.0,75.0
155,50.132018477083335,50.42432556041667,62.0,86.0
156,49.670480977083336,50.478171602083336,50.0,79.0
157,50.36278722708333,50.60894056041667,66.0,87.0
158,50.593555977083334,50.77047868541667,62.0,77.0
159,51.05509347708333,51.510861758333334,62.0,80.0
160,51.05509347708333,51.63970764375,67.0,78.0
161,51.747399727083334,51.8993224875,62.0,79.0
162,51.97816847708334,52.20893722708333,70.0,84.0
163,52.20893722708333,52.376244570833336,62.0,83.0
164,51.51663097708334,52.401244518750005,50.0,73.0
165,51.05509347708333,52.43778290416667,43.0,82.0
166,52.439705977083335,52.974320247916665,69.0,84.0
167,52.901243477083334,53.387780925,67.0,78.0
168,53.13201222708334,53.755087852083335,58.0,72.0
169,53.36278097708333,54.29547134166667,63.0,80.0
170,52.901243477083334,54.34162509166667,51.0,76.0
171,54.28585597708334,54.42047108125,58.0,78.0
172,54.51662472708333,54.75316269583333,63.0,73.0
173,53.593549727083335,54.797393372916666,67.0,83.0
174,54.747393477083335,54.999316029166664,53.0,75.0
175,54.747393477083335,55.15508493541667,60.0,77.0
176,55.208930977083334,55.937775612500005,53.0,77.0
177,54.747393477083335,55.94354483125,41.0,83.0
178,54.97816222708333,55.94739097708333,48.0,74.0
179,55.43969972708334,55.95508326875,57.0,83.0
180,56.13200597708334,56.247390352083336,53.0,87.0
181,55.901237227083335,56.337774779166665,65.0,85.0
182,56.59354347708334,56.83969681041667,57.0,76.0
183,56.59354347708334,57.08585014375,62.0,76.0
184,57.055080977083335,57.33584962291667,57.0,79.0
185,56.59354347708334,57.54738764375,50.0,84.0
186,57.516618477083334,57.70507962291667,57.0,83.0
187,57.516618477083334,57.91469457083333,62.0,85.0
188,57.516618477083334,58.049309675,66.0,86.0
189,57.97815597708333,58.27815535208333,57.0,75.0
190,58.208924727083335,58.333924466666666,62.0,75.0
191,58.43969347708334,58.670462227083334,57.0,82.0
192,58.43969347708334,58.76084665416667,62.0,83.0
193,58.43969347708334,58.78200045625,38.0,88.0
194,58.43969347708334,58.78584660208333,66.0,84.0
195,58.670462227083334,58.82623113333334,45.0,77.0
196,58.90123097708334,59.005076914583334,57.0,83.0
197,59.13199972708333,59.33776852916667,57.0,84.0
198,59.13199972708333,59.38392227916667,62.0,86.0
199,59.13199972708333,59.464691341666665,66.0,83.0
200,59.362768477083335,59.858921289583336,50.0,87.0
201,59.59353722708333,59.88199816458334,57.0,82.0
202,60.05507472708334,60.25892045625,66.0,83.0
203,59.824305977083334,60.26276660208333,62.0,91.0
204,60.28584347708333,60.568535195833334,62.0,83.0
205,60.28584347708333,60.61276587291667,70.0,84.0
206,60.74738097708334,60.84161155,62.0,84.0
207,60.978149727083334,61.095457175,62.0,83.0
208,60.978149727083334,61.09738024791667,67.0,84.0
209,60.516612227083336,61.28391832083334,50.0,78.0
210,61.20891847708334,61.508917852083336,67.0,86.0
211,61.20891847708334,61.52814858125,62.0,85.0
212,60.28584347708333,61.68776363333333,43.0,82.0
213,61.43968722708333,61.708917435416666,50.0,79.0
214,61.670455977083336,61.76660962291667,62.0,84.0
215,61.670455977083336,61.858917122916665,67.0,84.0
216,61.670455977083336,61.956993841666666,70.0,85.0
217,62.131993477083334,62.41083905,69.0,84.0
218,62.131993477083334,62.426223633333336,65.0,77.0
219,62.824299727083336,62.92045337291667,53.0,71.0
220,62.59353097708333,63.15314519583333,48.0,73.0
221,63.05506847708334,63.28968337291667,57.0,82.0
222,63.05506847708334,63.297375664583335,53.0,84.0
223,63.05506847708334,63.35506785208334,60.0,82.0
224,62.131993477083334,63.568528945833336,41.0,82.0
225,63.51660597708333,63.62814420625,48.0,83.0
226,63.978143477083336,64.07045097708334,39.0,88.0
227,63.978143477083336,64.16852769583333,58.0,75.0
228,63.978143477083336,64.233912175,63.0,83.0
229,64.43968097708333,64.75506493541667,51.0,72.0
230,64.67044972708334,64.91660306041666,58.0,82.0
231,64.90121847708333,65.16467946666667,63.0,91.0
232,65.13198722708333,65.27429462291667,67.0,82.0
233,65.36275597708334,65.47237113333333,70.0,91.0
234,65.82429347708333,65.92621634166667,38.0,86.0
235,65.82429347708333,66.35313852916667,62.0,75.0
236,65.82429347708333,66.45698446666667,69.0,82.0
237,66.51659972708333,66.63775332083333,62.0,85.0
238,66.28583097708334,66.83198368541667,57.0,84.0
239,66.05506222708334,67.03967556041667,50.0,82.0
240,66.74736847708334,67.14544457083333,66.0,83.0
241,66.74736847708334,67.17044451875,69.0,83.0
242,66.74736847708334,67.19352139375,62.0,84.0
243,67.20890597708333,67.372367175,50.0,83.0
244,67.67044347708334,68.1454424875,55.0,82.0
245,67.67044347708334,68.41659576875,63.0,82.0
246,68.36274972708333,68.50505712291667,55.0,78.0
247,68.59351847708334,68.66082602916667,55.0,74.0
248,68.13198097708333,68.71467207083333,43.0,61.0
249,67.67044347708334,68.7454412375,36.0,81.0
250,68.59351847708334,69.03967139375,60.0,89.0
251,68.59351847708334,69.07428670625,63.0,83.0
252,69.05505597708333,69.23582483125,55.0,87.0
253,69.51659347708333,69.71659306041667,62.0,83.0
254,69.51659347708333,69.74543915416666,58.0,82.0
255,69.97813097708334,70.31274566458333,58.0,71.0
256,69.51659347708333,70.66466800833334,46.0,89.0
257,69.74736222708333,70.72236019583333,53.0,70.0
258,70.43966847708333,70.84159071666667,58.0,83.0
259,70.43966847708333,70.86659066458333,62.0,83.0
260,70.90120597708334,71.00120576875,46.0,87.0
261,71.36274347708334,71.69158894583333,55.0,83.0
262,71.36274347708334,71.87428087291667,58.0,79.0
263,71.82428097708333,72.15312644583334,55.0,82.0
264,71.36274347708334,72.52620259166667,39.0,86.0
265,72.28581847708334,72.55504868541666,55.0,88.0
266,72.28581847708334,72.56466405,58.0,86.0
267,72.28581847708334,72.61851009166666,63.0,82.0
268,72.74735597708333,72.8531249875,39.0,93.0
269,73.20889347708334,73.30504712291668,38.0,86.0
270,73.20889347708334,73.54735431041667,57.0,81.0
271,73.20889347708334,73.61081571666666,62.0,83.0
272,73.90119972708334,74.203122175,57.0,82.0
273,74.13196847708333,74.4223524875,62.0,85.0
274,73.67043097708333,74.433890925,50.0,81.0
275,74.36273722708333,74.51273691458334,57.0,84.0
276,74.13196847708333,74.55504451875001,66.0,84.0
277,74.82427472708333,75.11658181041668,66.0,88.0
278,74.59350597708334,75.15312019583334,62.0,87.0
279,75.51658097708334,75.91850321666666,55.0,83.0
280,75.74734972708333,75.9223493625,58.0,85.0
281,75.97811847708334,76.01657993541667,55.0,66.0
282,75.97811847708334,76.04734910208333,58.0,71.0
283,75.97811847708334,76.24157946666666,67.0,87.0
284,75.28581222708334,76.42042524791667,50.0,75.0
285,76.20888722708334,76.48004050833333,62.0,82.0
286,75.05504347708333,76.6723478,43.0,87.0
287,76.43965597708333,76.7069631125,58.0,84.0
288,76.67042472708333,76.78965524791667,55.0,84.0
289,76.90119347708334,77.49734608125,57.0,83.0
290,76.90119347708334,77.68388415416666,53.0,82.0
291,77.59349972708333,77.72234561249999,57.0,68.0
292,77.59349972708333,77.73003790416666,60.0,80.0
293,77.36273097708333,77.9531143625,48.0,79.0
294,77.82426847708334,78.09734483125,53.0,84.0
295,77.82426847708334,78.11657556041666,57.0,84.0
296,77.82426847708334,78.12426785208334,60.0,83.0
297,77.82426847708334,78.28388290416666,65.0,84.0
298,76.90119347708334,78.35888274791667,41.0,84.0
299,78.28580597708333,78.41849800833333,48.0,81.0
300,78.74734347708333,79.04734285208333,63.0,78.0
301,78.74734347708333,79.095419675,58.0,74.0
302,79.43964972708334,79.70118764375,58.0,88.0
303,79.20888097708334,79.70503378958333,55.0,83.0
304,78.74734347708333,79.8684949875,39.0,84.0
305,78.97811222708333,79.91272566458333,46.0,75.0
306,79.67041847708333,79.95695634166667,63.0,93.0
307,79.90118722708334,80.16464821666668,58.0,84.0
308,80.13195597708334,80.16464821666668,58.0,75.0
309,80.13195597708334,80.42041691458334,55.0,84.0
310,80.59349347708334,80.87618519583333,57.0,78.0
311,80.59349347708334,80.99541571666667,62.0,82.0
312,81.05503097708333,81.33195347708333,57.0,88.0
313,80.59349347708334,81.72041420625,50.0,84.0
314,81.51656847708333,81.94156759166667,66.0,87.0
315,81.51656847708333,81.95887524791667,62.0,85.0
316,81.51656847708333,81.99541363333333,57.0,83.0
317,81.97810597708335,82.11079800833333,50.0,85.0
318,82.43964347708334,82.60118160208333,55.0,81.0
319,82.43964347708334,82.70502753958334,60.0,81.0
320,82.43964347708334,82.73964285208334,63.0,84.0
321,83.13194972708334,83.35310311250001,63.0,84.0
322,82.90118097708333,83.43964139375001,60.0,85.0
323,82.67041222708333,83.46079519583333,55.0,77.0
324,82.43964347708334,83.69733316458334,48.0,89.0
325,83.36271847708333,83.82233290416667,67.0,84.0
326,83.59348722708333,83.93771727916666,63.0,91.0
327,83.82425597708334,84.0684862375,60.0,83.0
328,84.05502472708334,84.20117826875,55.0,79.0
329,84.28579347708333,84.58579285208333,58.0,83.0
330,84.51656222708334,84.79348472708332,53.0,82.0
331,84.74733097708334,85.02617655,58.0,83.0
332,84.97809972708333,85.05694571666666,53.0,65.0
333,84.28579347708333,85.4069449875,46.0,85.0
334,85.20886847708334,85.50694477916667,53.0,83.0
335,85.20886847708334,85.695405925,62.0,84.0
336,85.20886847708334,85.71463665416667,58.0,87.0
337,85.67040597708333,85.77232884166668,46.0,87.0
338,86.13194347708333,86.32232769583334,55.0,77.0
339,86.13194347708333,86.7684806125,63.0,79.0
340,86.13194347708333,86.84924967500001,58.0,78.0
341,86.82424972708333,86.98194170625,55.0,79.0
342,86.13194347708333,87.19732587291666,39.0,93.0
343,86.59348097708333,87.24540269583333,46.0,79.0
344,87.05501847708334,87.31271024791667,55.0,82.0
345,87.05501847708334,87.32040253958334,58.0,86.0
346,87.05501847708334,87.39924852916667,63.0,82.0
347,87.51655597708333,87.67232488333333,39.0,73.0
348,87.97809347708333,88.0838624875,38.0,86.0
349,87.97809347708333,88.35309269583334,57.0,80.0
350,87.97809347708333,88.42232332083333,62.0,82.0
351,88.67039972708334,89.15886024791666,57.0,81.0
352,88.90116847708333,89.17616790416668,62.0,83.0
353,88.43963097708334,89.29924457083334,50.0,83.0
354,89.13193722708334,89.40309050833334,66.0,85.0
355,89.36270597708334,89.71847446666666,62.0,76.0
356,89.82424347708334,90.26655024791667,67.0,78.0
357,90.28578097708333,91.09154852916666,50.0,68.0
358,89.82424347708334,91.19731753958334,43.0,81.0
359,90.74731847708333,91.25885587291667,58.0,70.0
360,90.74731847708333,91.26077894583334,62.0,75.0
361,91.20885597708333,91.65500889375,55.0,82.0
362,91.67039347708334,92.59154540416667,57.0,69.0
363,92.59346847708333,92.75116045625,53.0,86.0
364,92.13193097708333,92.75308352916667,48.0,72.0
365,91.67039347708334,92.78385269583333,41.0,72.0
366,93.51654347708333,94.43192618541667,55.0,74.0
367,93.51654347708333,94.59346431041666,39.0,78.0
368,93.97808097708334,94.60692582083334,46.0,65.0
369,93.51654347708333,94.83577149791667,58.0,72.0
370,94.43961847708334,94.97230967499999,63.0,83.0
371,94.90115597708333,95.04346337291668,55.0,78.0
372,95.36269347708333,95.52038545625001,62.0,77.0
373,95.36269347708333,95.52807774791667,57.0,71.0
374,95.36269347708333,95.53577003958333,66.0,72.0
375,95.59346222708334,95.710769675,62.0,82.0
376,95.59346222708334,95.7223081125,66.0,75.0
377,95.59346222708334,95.72423118541667,57.0,73.0
378,95.36269347708333,95.73000040416667,38.0,84.0
379,95.82423097708333,95.93961535208334,57.0,73.0
380,95.82423097708333,95.94346149791667,62.0,81.0
381,95.82423097708333,95.94730764375001,38.0,88.0
382,95.82423097708333,95.95692300833333,66.0,74.0
383,96.05499972708333,96.17615332083334,62.0,84.0
384,96.05499972708333,96.18576868541666,57.0,83.0
385,96.05499972708333,96.18961483125,38.0,91.0
386,96.05499972708333,96.21076863333334,66.0,83.0
387,96.28576847708334,96.39346056041667,62.0,85.0
388,96.28576847708334,96.40499899791666,38.0,89.0
389,96.28576847708334,96.40499899791666,57.0,83.0
390,96.28576847708334,96.42230665416668,66.0,83.0
391,96.51653722708333,96.64730618541667,38.0,91.0
392,96.51653722708333,96.65499847708332,62.0,87.0
393,96.51653722708333,96.65884462291666,57.0,83.0
394,96.51653722708333,96.67230613333334,66.0,86.0
395,96.74730597708333,96.89538259166667,62.0,85.0
396,96.74730597708333,96.89922873750001,57.0,83.0
397,96.74730597708333,96.90499795625,38.0,89.0
398,96.74730597708333,96.91269024791666,66.0,83.0
399,96.97807472708334,97.15499743541667,57.0,77.0
400,96.97807472708334,97.16268972708333,62.0,82.0
401,96.97807472708334,97.1761512375,38.0,85.0
402,96.97807472708334,97.17999738333333,66.0,78.0
403,97.20884347708333,97.49153519583334,62.0,83.0
404,97.20884347708333,97.53576587291667,70.0,84.0
405,97.67038097708334,97.76461155,62.0,84.0
406,97.90114972708334,98.01845717500001,62.0,83.0
407,97.90114972708334,98.02038024791668,67.0,84.0
408,97.43961222708333,98.20691832083332,50.0,78.0
409,98.13191847708333,98.43191785208333,67.0,86.0
410,98.13191847708333,98.45114858125001,62.0,85.0
411,97.20884347708333,98.61076363333333,43.0,82.0
412,98.36268722708334,98.63191743541667,50.0,79.0
413,98.59345597708334,98.68960962291666,62.0,84.0
414,98.59345597708334,98.78191712291667,67.0,84.0
415,98.59345597708334,98.87999384166667,70.0,85.0
416,99.05499347708334,99.33383905,69.0,84.0
417,99.05499347708334,99.34922363333334,65.0,77.0
418,99.74729972708334,99.84345337291667,53.0,71.0
419,99.51653097708333,100.07614519583333,48.0,73.0
420,99.97806847708333,100.21268337291667,57.0,82.0
421,99.97806847708333,100.22037566458334,53.0,84.0
422,99.97806847708333,100.27806785208332,60.0,82.0
423,99.05499347708334,100.49152894583334,41.0,82.0
424,100.43960597708333,100.55114420625,48.0,83.0
425,100.90114347708334,100.99345097708334,39.0,88.0
426,100.90114347708334,101.09152769583334,58.0,75.0
427,100.90114347708334,101.156912175,63.0,83.0
428,101.36268097708333,101.67806493541667,51.0,72.0
429,101.59344972708334,101.83960306041666,58.0,82.0
430,101.82421847708333,102.08767946666667,63.0,91.0
431,102.05498722708333,102.19729462291667,67.0,82.0
432,102.28575597708334,102.39537113333333,70.0,91.0
433,102.74729347708333,102.84921634166668,38.0,86.0
434,102.74729347708333,103.27613852916667,62.0,75.0
435,102.74729347708333,103.37998446666667,69.0,82.0
436,103.43959972708333,103.56075332083333,62.0,85.0
437,103.20883097708334,103.75498368541668,57.0,84.0
438,102.97806222708334,103.96267556041667,50.0,82.0
439,103.67036847708334,104.06844457083334,66.0,83.0
440,103.67036847708334,104.09344451875,69.0,83.0
441,103.67036847708334,104.11652139374999,62.0,84.0
442,104.13190597708333,104.295367175,50.0,83.0
443,104.59344347708333,105.0684424875,55.0,82.0
444,104.59344347708333,105.33959576875,63.0,82.0
445,105.28574972708333,105.42805712291667,55.0,78.0
446,105.51651847708334,105.58382602916666,55.0,74.0
447,105.05498097708333,105.63767207083333,43.0,61.0
448,104.59344347708333,105.66844123749999,36.0,81.0
449,105.51651847708334,105.96267139375,60.0,89.0
450,105.51651847708334,105.99728670625001,63.0,83.0
451,105.97805597708333,106.15882483125,55.0,87.0
452,106.43959347708333,106.63959306041667,62.0,83.0
453,106.43959347708333,106.66843915416666,58.0,82.0
454,106.90113097708334,107.23574566458333,58.0,71.0
455,106.43959347708333,107.58766800833334,46.0,89.0
456,106.67036222708333,107.64536019583333,53.0,70.0
457,107.36266847708333,107.76459071666667,58.0,83.0
458,107.36266847708333,107.78959066458333,62.0,83.0
459,107.82420597708334,107.92420576875,46.0,87.0
460,108.28574347708334,108.61458894583333,55.0,83.0
461,108.28574347708334,108.79728087291667,58.0,79.0
462,108.74728097708334,109.07612644583332,55.0,82.0
463,108.28574347708334,109.44920259166668,39.0,86.0
464,109.20881847708333,109.47804868541667,55.0,88.0
465,109.20881847708333,109.48766405,58.0,86.0
466,109.20881847708333,109.54151009166667,63.0,82.0
467,109.67035597708333,109.7761249875,39.0,93.0
468,110.13189347708334,110.22804712291666,38.0,86.0
469,110.13189347708334,110.47035431041667,57.0,81.0
470,110.13189347708334,110.53381571666667,62.0,83.0
471,110.82419972708334,111.126122175,57.0,82.0
472,111.05496847708334,111.34535248750001,62.0,85.0
473,110.59343097708333,111.356890925,50.0,81.0
474,111.28573722708333,111.43573691458333,57.0,84.0
475,111.05496847708334,111.47804451875,66.0,84.0
476,111.74727472708334,112.03958181041666,66.0,88.0
477,111.51650597708334,112.07612019583334,62.0,87.0
478,112.43958097708334,112.84150321666667,55.0,83.0
479,112.67034972708333,112.8453493625,58.0,85.0
480,112.90111847708333,112.93957993541667,55.0,66.0
481,112.90111847708333,112.97034910208333,58.0,71.0
482,112.90111847708333,113.16457946666667,67.0,87.0
483,112.20881222708333,113.34342524791667,50.0,75.0
484,113.13188722708334,113.40304050833333,62.0,82.0
485,111.97804347708333,113.5953478,43.0,87.0
486,113.36265597708334,113.62996311250001,58.0,84.0
487,113.59342472708333,113.71265524791667,55.0,84.0
488,113.82419347708334,114.42034608125,57.0,83.0
489,113.82419347708334,114.60688415416666,53.0,82.0
490,114.51649972708333,114.6453456125,57.0,68.0
491,114.51649972708333,114.65303790416667,60.0,80.0
492,114.28573097708333,114.8761143625,48.0,79.0
493,114.74726847708334,115.02034483125,53.0,84.0
494,114.74726847708334,115.03957556041667,57.0,84.0
495,114.74726847708334,115.04726785208334,60.0,83.0
496,114.74726847708334,115.20688290416666,65.0,84.0
497,113.82419347708334,115.28188274791667,41.0,84.0
498,115.20880597708333,115.34149800833333,48.0,81.0
499,115.67034347708334,115.97034285208333,63.0,78.0
500,115.67034347708334,116.018419675,58.0,74.0
501,116.36264972708334,116.62418764375,58.0,88.0
502,116.13188097708334,116.62803378958334,55.0,83.0
503,115.67034347708334,116.7914949875,39.0,84.0
504,115.90111222708333,116.83572566458334,46.0,75.0
505,116.59341847708333,116.87995634166667,63.0,93.0
506,116.82418722708333,117.08764821666666,58.0,84.0
507,117.05495597708334,117.08764821666666,58.0,75.0
508,117.05495597708334,117.34341691458333,55.0,84.0
509,117.51649347708333,117.79918519583333,57.0,78.0
510,117.51649347708333,117.91841571666667,62.0,82.0
511,117.97803097708334,118.25495347708333,57.0,88.0
512,117.51649347708333,118.64341420625,50.0,84.0
513,118.43956847708334,118.86456759166667,66.0,87.0
514,118.43956847708334,118.88187524791667,62.0,85.0
515,118.43956847708334,118.91841363333333,57.0,83.0
516,118.90110597708333,119.03379800833333,50.0,85.0
517,119.36264347708334,119.52418160208333,55.0,81.0
518,119.36264347708334,119.62802753958333,60.0,81.0
519,119.36264347708334,119.66264285208334,63.0,84.0
520,120.05494972708334,120.2761031125,63.0,84.0
521,119.82418097708333,120.36264139375,60.0,85.0
522,119.59341222708333,120.38379519583333,55.0,77.0
523,119.36264347708334,120.62033316458333,48.0,89.0
524,120.28571847708334,120.74533290416667,67.0,84.0
525,120.51648722708333,120.86071727916666,63.0,91.0
526,120.74725597708334,120.9914862375,60.0,83.0
527,120.97802472708334,121.12417826875,55.0,79.0
528,121.20879347708333,121.50879285208333,58.0,83.0
529,121.43956222708333,121.71648472708334,53.0,82.0
530,121.67033097708334,121.94917655,58.0,83.0
531,121.90109972708333,121.97994571666666,53.0,65.0
532,121.20879347708333,122.3299449875,46.0,85.0
533,122.13186847708333,122.42994477916668,53.0,83.0
534,122.13186847708333,122.618405925,62.0,84.0
535,122.13186847708333,122.63763665416667,58.0,87.0
536,122.59340597708334,122.69532884166667,46.0,87.0
537,123.05494347708334,123.24532769583334,55.0,77.0
538,123.05494347708334,123.6914806125,63.0,79.0
539,123.05494347708334,123.772249675,58.0,78.0
540,123.74724972708333,123.90494170625,55.0,79.0
541,123.05494347708334,124.12032587291667,39.0,93.0
542,123.51648097708333,124.16840269583334,46.0,79.0
543,123.97801847708334,124.23571024791667,55.0,82.0
544,123.97801847708334,124.24340253958333,58.0,86.0
545,123.97801847708334,124.32224852916667,63.0,82.0
546,124.43955597708333,124.59532488333333,39.0,73.0
547,124.90109347708334,125.0068624875,38.0,86.0
548,124.90109347708334,125.27609269583334,57.0,80.0
549,124.90109347708334,125.34532332083333,62.0,82.0
550,125.59339972708334,126.08186024791667,57.0,81.0
551,125.82416847708333,126.09916790416666,62.0,83.0
552,125.36263097708334,126.22224457083334,50.0,83.0
553,126.05493722708333,126.32609050833334,66.0,85.0
554,126.28570597708334,126.64147446666666,62.0,76.0
555,126.74724347708333,127.57224175833333,62.0,78.0
556,127.20878097708334,128.15877899791667,50.0,69.0
557,127.67224155,128.1683943625,55.0,77.0
558,127.67031847708334,128.1876250916667,58.0,71.0
559,127.67031847708334,128.19916352916667,62.0,77.0
560,126.74724347708333,128.23954806041667,43.0,81.0
561,128.36839394583333,128.59916269583334,43.0,79.0
562,128.59339347708334,129.6683912375,41.0,74.0
563,129.05493097708333,129.67800660208331,48.0,67.0
564,129.51646847708332,129.82416014375002,53.0,84.0
565,129.52223769583333,130.32800524791668,60.0,83.0
566,130.22031316458333,130.43185118541666,41.0,79.0
567,129.51646847708332,130.50300488333335,57.0,84.0
568,130.43954347708333,131.27992634166668,58.0,72.0
569,130.43954347708333,131.55492576875,39.0,67.0
570,130.90108097708332,131.60300259166667,46.0,68.0
571,131.35684925833334,131.80300217500002,58.0,75.0
572,131.36646462291668,131.85877128958333,63.0,76.0
573,131.36261847708334,131.87030972708334,55.0,75.0
574,132.06069394583335,132.38184712291667,51.0,77.0
575,132.28569347708333,132.99338431041667,62.0,76.0
576,132.74723097708335,133.03376884166667,57.0,70.0
577,132.28569347708333,133.36069123750002,50.0,82.0
578,133.20876847708334,133.55876774791665,57.0,75.0
579,133.20876847708334,133.74915196666666,62.0,75.0
580,133.67992134166667,133.86069019583334,38.0,74.0
581,133.91645931041666,134.13953576875002,50.0,87.0
582,134.13184347708335,134.74722681041666,60.0,82.0
583,134.5933809770833,134.85107274791667,55.0,79.0
584,135.04914925833333,135.42991769583335,55.0,77.0
585,135.06068769583334,135.47799451875,60.0,97.0
586,134.13184347708335,135.4837637375,48.0,80.0
587,135.05491847708333,135.50299446666668,63.0,77.0
588,135.97799347708332,136.65299207083333,62.0,78.0
589,136.43953097708334,137.41452894583335,53.0,78.0
590,136.90106847708333,137.49337493541668,65.0,74.0
591,135.97799347708332,137.49722108125002,46.0,73.0
592,136.90106847708333,137.50106722708335,62.0,74.0
593,136.90106847708333,137.526067175,58.0,74.0
594,137.59145165416666,137.79337431041665,34.0,75.0
595,137.82414347708334,138.51260358125,58.0,65.0
596,137.82414347708334,139.1068331125,39.0,78.0
597,138.74529540416665,139.11452540416667,55.0,75.0
598,138.28568097708333,139.1433714979167,46.0,70.0
599,138.74721847708332,139.24721743541667,63.0,84.0
600,138.74914155,139.29721733125,58.0,97.0
601,139.20875597708334,139.33375571666667,55.0,86.0
602,139.67029347708333,139.92413910208333,57.0,72.0
603,139.67029347708333,140.15298477916667,62.0,78.0
604,140.13183097708333,140.66259910208333,57.0,75.0
605,139.67029347708333,140.80490649791665,50.0,82.0
606,140.59336847708335,140.9549061854167,66.0,77.0
607,140.59336847708335,140.95682925833333,62.0,80.0
608,141.06452134166665,141.33375155,38.0,74.0
609,141.29144394583335,141.52221269583333,50.0,74.0
610,141.51644347708333,142.92220977916668,43.0,81.0
611,142.43951847708334,142.95490201875,55.0,87.0
612,142.43759540416667,143.19720920625002,58.0,61.0
613,141.97798097708335,143.2145168625,50.0,70.0
614,142.43759540416667,143.25874753958334,62.0,78.0
615,143.13759394583332,143.43567024791668,43.0,78.0
616,143.36259347708335,143.97989988333333,57.0,82.0
617,143.8241309770833,144.50489878958334,48.0,70.0
618,144.28566847708333,144.5068218625,57.0,83.0
619,143.36259347708335,144.541437175,41.0,82.0
620,144.28566847708333,144.5991293625,60.0,82.0
621,144.75489826875,145.02220540416667,29.0,75.0
622,144.98759009166668,145.20105118541667,41.0,78.0
623,144.27989925833333,145.24720493541668,53.0,78.0
624,145.20874347708332,146.20489524791668,58.0,71.0
625,145.20874347708332,146.25681821666666,39.0,78.0
626,145.67028097708334,146.30874118541666,46.0,71.0
627,146.13181847708333,146.66066352916667,63.0,87.0
628,146.60297134166666,146.78374019583333,39.0,97.0
629,146.12604925833335,147.03181660208332,55.0,78.0
630,146.8375862375,147.04143196666666,51.0,84.0
631,147.05489347708334,147.61643076875,62.0,80.0
632,147.51643097708333,147.7837381125,57.0,79.0
633,147.05489347708334,148.17412191458334,50.0,82.0
634,147.97796847708332,148.21450644583334,57.0,82.0
635,147.97796847708332,148.30681394583334,62.0,82.0
636,148.67412087291666,148.86258201875,50.0,84.0
637,149.36258097708333,149.94334899791667,55.0,74.0
638,148.90104347708333,150.03181035208334,48.0,81.0
639,149.82796462291668,150.20488691458334,67.0,97.0
640,149.82411847708335,150.27796368541667,63.0,83.0
641,149.81834925833334,150.37411733125,60.0,77.0
642,150.28950212291667,150.40873264375,48.0,75.0
643,150.74719347708333,151.33949993541665,58.0,76.0
644,151.20873097708335,151.7529606125,53.0,80.0
645,150.74719347708333,151.90872951875002,46.0,82.0
646,151.67026847708334,152.01257545625,58.0,75.0
647,151.67026847708334,152.15488285208335,62.0,78.0
648,152.37795931041666,152.60103576875,46.0,97.0
649,152.59334347708335,152.72795858125,39.0,81.0
650,152.59334347708335,152.94141967500002,58.0,82.0
651,152.59334347708335,152.9433427479167,55.0,79.0
652,153.51641847708333,153.72026420625002,38.0,84.0
653,153.51641847708333,153.89141769583335,57.0,77.0
654,153.51641847708333,153.90103306041667,62.0,82.0
655,154.43949347708332,155.10679977916666,55.0,77.0
656,154.43949347708332,155.21641493541665,62.0,80.0
657,155.36256847708333,155.56449113333332,58.0,91.0
658,155.59333722708334,155.73372154999998,55.0,83.0
659,154.43949347708332,156.10872076875,43.0,76.0
660,154.90103097708334,156.11641306041668,50.0,81.0
661,156.05487472708333,156.24910509166665,58.0,84.0
662,155.82410597708332,156.26641274791666,62.0,82.0
663,156.28564347708334,156.54718139375,60.0,77.0
664,156.28564347708334,156.66641191458334,63.0,78.0
665,156.28564347708334,156.73371946666668,67.0,77.0
666,156.74718097708333,157.28948753958332,60.0,74.0
667,156.51641222708332,157.32410285208334,55.0,74.0
668,156.28564347708334,157.49333326875,48.0,84.0
669,157.20871847708332,157.53564087291667,63.0,88.0
670,157.43948722708333,157.58179462291668,55.0,77.0
671,157.67025597708334,158.02217832083335,60.0,83.0
672,158.13179347708333,158.37217759166668,60.0,78.0
673,158.13179347708333,158.38948524791667,65.0,76.0
674,158.59333097708333,159.15871441458333,48.0,70.0
675,159.05486847708335,159.17986821666665,57.0,81.0
676,159.05486847708335,159.2067912375,53.0,82.0
677,159.05486847708335,159.24909884166667,60.0,82.0
678,158.13179347708333,159.26832957083332,41.0,82.0
679,159.51640597708334,159.72794399791667,41.0,83.0
680,159.97794347708333,160.09140477916668,38.0,83.0
681,159.97794347708333,160.66832665416666,62.0,81.0
682,159.97794347708333,160.86448009166668,66.0,81.0
683,160.67024972708333,161.12409493541668,57.0,75.0
684,160.90101847708334,161.19332556041667,62.0,86.0
685,160.43948097708335,161.24717160208334,50.0,79.0
686,161.13178722708335,161.37794056041668,66.0,87.0
687,161.36255597708333,161.53947868541667,62.0,77.0
688,161.82409347708335,162.27986175833334,62.0,80.0
689,161.82409347708335,162.40870764375,67.0,78.0
690,162.51639972708335,162.6683224875,62.0,79.0
691,162.74716847708333,162.97793722708332,70.0,84.0
692,162.97793722708332,163.14524457083334,62.0,83.0
693,162.28563097708331,163.17024451875,50.0,73.0
694,161.82409347708335,163.2067829041667,43.0,82.0
695,163.20870597708335,163.74332024791667,69.0,84.0
696,163.67024347708332,164.15678092500002,67.0,78.0
697,163.90101222708336,164.52408785208334,58.0,72.0
698,164.13178097708334,165.06447134166666,63.0,80.0
699,163.67024347708332,165.11062509166666,51.0,76.0
700,165.05485597708332,165.18947108125002,58.0,78.0
701,165.28562472708333,165.52216269583334,63.0,73.0
702,164.36254972708332,165.56639337291665,67.0,83.0
703,165.51639347708334,165.76831602916667,53.0,75.0
704,165.51639347708334,165.92408493541666,60.0,77.0
705,165.97793097708333,166.7067756125,53.0,77.0
706,165.51639347708334,166.71254483125,41.0,83.0
707,165.74716222708332,166.71639097708334,48.0,74.0
708,166.20869972708334,166.72408326875,57.0,83.0
709,166.90100597708334,167.01639035208333,53.0,87.0
710,166.67023722708333,167.10677477916667,65.0,85.0
711,167.36254347708334,167.6086968104167,57.0,76.0
712,167.36254347708334,167.85485014375,62.0,76.0
713,167.82408097708333,168.10484962291667,57.0,79.0
714,167.36254347708334,168.31638764375,50.0,84.0
715,168.28561847708335,168.47407962291666,57.0,83.0
716,168.28561847708335,168.68369457083332,62.0,85.0
717,168.28561847708335,168.818309675,66.0,86.0
718,168.74715597708334,169.04715535208334,57.0,75.0
719,168.97792472708335,169.10292446666665,62.0,75.0
720,169.20869347708333,169.43946222708334,57.0,82.0
721,169.20869347708333,169.52984665416668,62.0,83.0
722,169.20869347708333,169.55100045625,38.0,88.0
723,169.20869347708333,169.55484660208333,66.0,84.0
724,169.43946222708334,169.59523113333333,45.0,77.0
725,169.67023097708335,169.77407691458333,57.0,83.0
726,169.90099972708333,170.1067685291667,57.0,84.0
727,169.90099972708333,170.15292227916666,62.0,86.0
728,169.90099972708333,170.23369134166666,66.0,83.0
729,170.13176847708334,170.62792128958336,50.0,87.0
730,170.36253722708335,170.65099816458334,57.0,82.0
731,170.8240747270833,171.02792045625,66.0,83.0
732,170.59330597708333,171.03176660208334,62.0,91.0
733,171.05484347708335,171.33753519583334,62.0,83.0
734,171.05484347708335,171.38176587291667,70.0,84.0
735,171.51638097708332,171.61061155,62.0,84.0
736,171.74714972708335,171.86445717499998,62.0,83.0
737,171.74714972708335,171.86638024791665,67.0,84.0
738,171.28561222708333,172.05291832083333,50.0,78.0
739,171.97791847708334,172.27791785208333,67.0,86.0
740,171.97791847708334,172.29714858124998,62.0,85.0
741,171.05484347708335,172.45676363333334,43.0,82.0
742,172.20868722708332,172.47791743541666,50.0,79.0
743,172.43945597708336,172.53560962291667,62.0,84.0
744,172.43945597708336,172.62791712291667,67.0,84.0
745,172.43945597708336,172.72599384166665,70.0,85.0
746,172.90099347708332,173.17983905,69.0,84.0
747,172.90099347708332,173.19522363333334,65.0,77.0
748,173.59329972708332,173.68945337291666,53.0,71.0
749,173.36253097708334,173.92214519583334,48.0,73.0
750,173.82406847708333,174.05868337291668,57.0,82.0
751,173.82406847708333,174.06637566458335,53.0,84.0
752,173.82406847708333,174.12406785208333,60.0,82.0
753,172.90099347708332,174.33752894583333,41.0,82.0
754,174.28560597708332,174.39714420625,48.0,83.0
755,174.74714347708334,174.83945097708335,39.0,88.0
756,174.74714347708334,174.93752769583332,58.0,75.0
757,174.74714347708334,175.002912175,63.0,83.0
758,175.20868097708333,175.52406493541667,51.0,72.0
759,175.43944972708334,175.68560306041667,58.0,82.0
760,175.67021847708332,175.93367946666666,63.0,91.0
761,175.90098722708333,176.04329462291668,67.0,82.0
762,176.13175597708334,176.24137113333333,70.0,91.0
763,176.59329347708334,176.69521634166668,38.0,86.0
764,176.59329347708334,177.12213852916668,62.0,75.0
765,176.59329347708334,177.22598446666666,69.0,82.0
766,177.28559972708334,177.40675332083333,62.0,85.0
767,177.05483097708333,177.60098368541668,57.0,84.0
768,176.82406222708335,177.80867556041667,50.0,82.0
769,177.51636847708335,177.91444457083333,66.0,83.0
770,177.51636847708335,177.93944451875,69.0,83.0
771,177.51636847708335,177.96252139375,62.0,84.0
772,177.97790597708334,178.141367175,50.0,83.0
773,178.43944347708333,178.9144424875,55.0,82.0
774,178.43944347708333,179.18559576875,63.0,82.0
775,179.13174972708333,179.27405712291667,55.0,78.0
776,179.36251847708334,179.42982602916666,55.0,74.0
777,178.90098097708332,179.48367207083334,43.0,61.0
778,178.43944347708333,179.5144412375,36.0,81.0
779,179.36251847708334,179.80867139375,60.0,89.0
780,179.36251847708334,179.84328670625,63.0,83.0
781,179.82405597708333,180.00482483125,55.0,87.0
782,180.28559347708332,180.48559306041668,62.0,83.0
783,180.28559347708332,180.51443915416667,58.0,82.0
784,180.74713097708334,181.08174566458334,58.0,71.0
785,180.28559347708332,181.43366800833334,46.0,89.0
786,180.51636222708333,181.49136019583332,53.0,70.0
787,181.20866847708334,181.61059071666668,58.0,83.0
788,181.20866847708334,181.63559066458333,62.0,83.0
789,181.67020597708333,181.77020576875,46.0,87.0
790,182.13174347708335,182.46058894583334,55.0,83.0
791,182.13174347708335,182.64328087291668,58.0,79.0
792,182.59328097708334,182.92212644583333,55.0,82.0
793,182.13174347708335,183.29520259166668,39.0,86.0
794,183.05481847708333,183.32404868541667,55.0,88.0
795,183.05481847708333,183.33366405,58.0,86.0
796,183.05481847708333,183.38751009166666,63.0,82.0
797,183.51635597708332,183.6221249875,39.0,93.0
798,183.97789347708334,184.07404712291668,38.0,86.0
799,183.97789347708334,184.31635431041667,57.0,81.0
800,183.97789347708334,184.37981571666666,62.0,83.0
801,184.67019972708334,184.972122175,57.0,82.0
802,184.90096847708332,185.1913524875,62.0,85.0
803,184.43943097708333,185.202890925,50.0,81.0
804,185.13173722708333,185.28173691458335,57.0,84.0
805,184.90096847708332,185.32404451875001,66.0,84.0
806,185.59327472708333,185.88558181041668,66.0,88.0
807,185.36250597708334,185.92212019583334,62.0,87.0
808,186.28558097708333,186.68750321666667,55.0,83.0
809,186.51634972708334,186.6913493625,58.0,85.0
810,186.74711847708335,186.78557993541668,55.0,66.0
811,186.74711847708335,186.81634910208334,58.0,71.0
812,186.74711847708335,187.01057946666666,67.0,87.0
813,186.05481222708335,187.18942524791666,50.0,75.0
814,186.97788722708333,187.24904050833334,62.0,82.0
815,185.82404347708334,187.4413478,43.0,87.0
816,187.20865597708334,187.4759631125,58.0,84.0
817,187.43942472708335,187.55865524791668,55.0,84.0
818,187.67019347708333,188.26634608125,57.0,83.0
819,187.67019347708333,188.45288415416667,53.0,82.0
820,188.36249972708333,188.4913456125,57.0,68.0
821,188.36249972708333,188.49903790416667,60.0,80.0
822,188.13173097708332,188.7221143625,48.0,79.0
823,188.59326847708334,188.86634483125,53.0,84.0
824,188.59326847708334,188.88557556041667,57.0,84.0
825,188.59326847708334,188.89326785208334,60.0,83.0
826,188.59326847708334,189.05288290416667,65.0,84.0
827,187.67019347708333,189.12788274791666,41.0,84.0
828,189.05480597708333,189.18749800833334,48.0,81.0
829,189.51634347708332,189.81634285208332,63.0,78.0
830,189.51634347708332,189.864419675,58.0,74.0
831,190.20864972708333,190.47018764375,58.0,88.0
832,189.97788097708334,190.47403378958333,55.0,83.0
833,189.51634347708332,190.6374949875,39.0,84.0
834,189.74711222708333,190.68172566458333,46.0,75.0
835,190.43941847708334,190.72595634166666,63.0,93.0
836,190.67018722708335,190.93364821666668,58.0,84.0
837,190.90095597708333,190.93364821666668,58.0,75.0
838,190.90095597708333,191.18941691458335,55.0,84.0
839,191.36249347708335,191.64518519583334,57.0,78.0
840,191.36249347708335,191.76441571666666,62.0,82.0
841,191.82403097708334,192.10095347708332,57.0,88.0
842,191.36249347708335,192.48941420625,50.0,84.0
843,192.28556847708333,192.71056759166666,66.0,87.0
844,192.28556847708333,192.72787524791667,62.0,85.0
845,192.28556847708333,192.76441363333333,57.0,83.0
846,192.74710597708332,192.87979800833332,50.0,85.0
847,193.20864347708334,193.37018160208333,55.0,81.0
848,193.20864347708334,193.47402753958335,60.0,81.0
849,193.20864347708334,193.50864285208334,63.0,84.0
850,193.90094972708334,194.1221031125,63.0,84.0
851,193.67018097708333,194.20864139375,60.0,85.0
852,193.43941222708332,194.22979519583333,55.0,77.0
853,193.20864347708334,194.46633316458335,48.0,89.0
854,194.13171847708333,194.59133290416668,67.0,84.0
855,194.36248722708334,194.70671727916667,63.0,91.0
856,194.59325597708334,194.8374862375,60.0,83.0
857,194.82402472708333,194.97017826875,55.0,79.0
858,195.05479347708334,195.35479285208334,58.0,83.0
859,195.28556222708335,195.56248472708333,53.0,82.0
860,195.51633097708333,195.79517655,58.0,83.0
861,195.74709972708334,195.82594571666667,53.0,65.0
862,195.05479347708334,196.1759449875,46.0,85.0
863,195.97786847708335,196.27594477916668,53.0,83.0
864,195.97786847708335,196.464405925,62.0,84.0
865,195.97786847708335,196.48363665416667,58.0,87.0
866,196.43940597708334,196.54132884166665,46.0,87.0
867,196.90094347708333,197.09132769583334,55.0,77.0
868,196.90094347708333,197.5374806125,63.0,79.0
869,196.90094347708333,197.61824967500002,58.0,78.0
870,197.59324972708333,197.75094170625,55.0,79.0
871,196.90094347708333,197.96632587291666,39.0,93.0
872,197.36248097708332,198.01440269583333,46.0,79.0
873,197.82401847708334,198.08171024791667,55.0,82.0
874,197.82401847708334,198.08940253958335,58.0,86.0
875,197.82401847708334,198.16824852916668,63.0,82.0
876,198.28555597708333,198.44132488333332,39.0,73.0
877,198.74709347708333,198.8528624875,38.0,86.0
878,198.74709347708333,199.12209269583335,57.0,80.0
879,198.74709347708333,199.19132332083333,62.0,82.0
880,199.43939972708333,199.92786024791667,57.0,81.0
881,199.67016847708334,199.94516790416668,62.0,83.0
882,199.20863097708335,200.06824457083334,50.0,83.0
883,199.90093722708335,200.17209050833333,66.0,85.0
884,200.13170597708333,200.48747446666667,62.0,76.0
885,200.59324347708335,200.87593519583334,62.0,83.0
886,200.59324347708335,200.92016587291667,70.0,84.0
887,201.05478097708334,201.14901155,62.0,84.0
888,201.28554972708335,201.402857175,62.0,83.0
889,201.28554972708335,201.40478024791668,67.0,84.0
890,200.82401222708333,201.59131832083332,50.0,78.0
891,201.51631847708333,201.81631785208333,67.0,86.0
892,201.51631847708333,201.83554858125,62.0,85.0
893,200.59324347708335,201.99516363333333,43.0,82.0
894,201.74708722708334,202.01631743541668,50.0,79.0
895,201.97785597708332,202.07400962291666,62.0,84.0
896,201.97785597708332,202.16631712291667,67.0,84.0
897,201.97785597708332,202.26439384166667,70.0,85.0
898,202.43939347708334,202.71823905,69.0,84.0
899,202.43939347708334,202.73362363333334,65.0,77.0
900,203.13169972708334,203.22785337291666,53.0,71.0
901,202.90093097708333,203.46054519583333,48.0,73.0
902,203.36246847708333,203.59708337291667,57.0,82.0
903,203.36246847708333,203.60477566458334,53.0,84.0
904,203.36246847708333,203.66246785208332,60.0,82.0
905,202.43939347708334,203.87592894583332,41.0,82.0
906,203.82400597708335,203.93554420625,48.0,83.0
907,204.28554347708334,204.37785097708334,39.0,88.0
908,204.28554347708334,204.47592769583335,58.0,75.0
909,204.28554347708334,204.541312175,63.0,83.0
910,204.74708097708333,205.06246493541667,51.0,72.0
911,204.97784972708334,205.22400306041666,58.0,82.0
912,205.20861847708335,205.47207946666666,63.0,91.0
913,205.43938722708333,205.58169462291667,67.0,82.0
914,205.67015597708334,205.77977113333333,70.0,91.0
915,206.13169347708333,206.23361634166667,38.0,86.0
916,206.13169347708333,206.66053852916667,62.0,75.0
917,206.13169347708333,206.76438446666666,69.0,82.0
918,206.82399972708333,206.94515332083333,62.0,85.0
919,206.59323097708332,207.13938368541668,57.0,84.0
920,206.36246222708334,207.34707556041667,50.0,82.0
921,207.05476847708334,207.45284457083335,66.0,83.0
922,207.05476847708334,207.47784451875,69.0,83.0
923,207.05476847708334,207.50092139375,62.0,84.0
924,207.51630597708333,207.679767175,50.0,83.0
925,207.97784347708333,208.4528424875,55.0,82.0
926,207.97784347708333,208.72399576875,63.0,82.0
927,208.67014972708333,208.81245712291667,55.0,78.0
928,208.90091847708334,208.96822602916666,55.0,74.0
929,208.43938097708335,209.02207207083333,43.0,61.0
930,207.97784347708333,209.0528412375,36.0,81.0
931,208.90091847708334,209.34707139375,60.0,89.0
932,208.90091847708334,209.38168670625,63.0,83.0
933,209.36245597708333,209.54322483125,55.0,87.0
934,209.82399347708335,210.02399306041667,62.0,83.0
935,209.82399347708335,210.05283915416666,58.0,82.0
936,210.28553097708334,210.62014566458333,58.0,71.0
937,209.82399347708335,210.97206800833334,46.0,89.0
938,210.05476222708333,211.02976019583335,53.0,70.0
939,210.74706847708333,211.14899071666667,58.0,83.0
940,210.74706847708333,211.17399066458333,62.0,83.0
941,211.20860597708332,211.30860576875,46.0,87.0
942,211.67014347708334,212.19514238333335,55.0,81.0
943,211.67014347708334,212.20668082083333,63.0,80.0
944,211.67014347708334,212.22206540416667,58.0,72.0
945,211.67014347708334,212.7451412375,39.0,96.0
946,212.59321847708333,212.94514082083333,55.0,84.0
947,212.59321847708333,212.95475618541667,58.0,87.0
948,212.59321847708333,212.96244847708334,63.0,83.0
949,212.13168097708333,212.987448425,46.0,62.0
950,213.05475597708335,213.14898655,55.0,83.0
951,213.05475597708335,213.1605249875,58.0,85.0
952,213.05475597708335,213.17398649791667,39.0,85.0
953,213.05475597708335,213.20090951875,63.0,82.0
954,213.28552472708333,214.81052155,38.0,91.0
955,213.28552472708333,215.73167347708335,57.0,84.0
956,213.28552472708333,215.76628878958334,62.0,87.0
957,217.20859347708333,218.18359144583334,58.0,73.0
958,217.20859347708333,218.65089816458334,43.0,75.0
959,218.13166847708334,218.71435957083332,55.0,85.0
960,217.67013097708335,218.7335903,50.0,68.0
961,218.59320597708333,218.73935951875,58.0,67.0
962,219.05474347708335,219.61435769583335,57.0,75.0
963,219.05474347708335,220.01627993541666,53.0,67.0
964,219.97781847708333,220.07781826875,57.0,82.0
965,219.97781847708333,220.11243358125,60.0,78.0
966,219.51628097708334,220.13551045625,48.0,62.0
967,219.05474347708335,220.19704878958333,41.0,79.0
968,220.90089347708334,221.45473847708334,63.0,72.0
969,221.36243097708333,221.85858378958335,46.0,60.0
970,220.90089347708334,221.86819915416666,39.0,69.0
971,221.82396847708333,222.06627566458334,58.0,83.0
972,221.82396847708333,222.16435238333332,63.0,80.0
973,222.74704347708334,223.17396566458333,62.0,79.0
974,222.74704347708334,223.233580925,57.0,74.0
975,223.20858097708333,223.787425925,45.0,63.0
976,222.74704347708334,223.80281050833332,38.0,83.0
977,223.67011847708335,223.85473347708333,62.0,84.0
978,223.67011847708335,223.85857962291666,57.0,83.0
979,224.59319347708333,225.17973071666668,60.0,73.0
980,224.59319347708333,225.21434602916668,63.0,70.0
981,224.59319347708333,225.42588405,67.0,75.0
982,224.59319347708333,225.88742155,48.0,82.0
983,225.05473097708332,225.88934462291667,55.0,77.0
984,225.51626847708334,226.02011358125,60.0,78.0
985,225.97780597708334,226.42780503958335,63.0,87.0
986,226.43934347708333,227.36818769583334,62.0,83.0
987,226.90088097708335,227.6297256125,53.0,69.0
988,227.36241847708334,227.66049477916667,58.0,89.0
989,226.43934347708333,227.73934076875,46.0,75.0
990,228.28549347708335,228.81433852916666,63.0,78.0
991,228.28549347708335,228.82395389375,58.0,70.0
992,228.74703097708334,229.02010733125,55.0,76.0
993,228.28549347708335,229.02587655,51.0,84.0
994,229.20856847708333,229.44318337291668,55.0,83.0
995,229.20856847708333,229.45087566458332,58.0,85.0
996,229.20856847708333,229.50664477916666,63.0,79.0
997,230.13164347708334,230.39510446666668,57.0,84.0
998,230.13164347708334,230.50856576875,62.0,85.0
999,230.59318097708334,230.895103425,57.0,83.0
1000,230.82394972708335,230.90856493541668,62.0,77.0
1001,230.36241222708333,231.17010285208335,45.0,83.0
1002,231.05471847708333,231.37202550833334,57.0,89.0
1003,231.05471847708333,231.55856358125,62.0,96.0
1004,231.05471847708333,231.74510165416666,66.0,93.0
1005,231.51625597708335,231.82202457083335,57.0,85.0
1006,231.28548722708334,231.85663988333334,45.0,83.0
1007,230.13164347708334,231.85856295625,38.0,89.0
1008,231.74702472708333,231.87394753958333,62.0,79.0
1009,232.43933097708333,232.84125321666667,55.0,83.0
1010,232.67009972708334,232.8450993625,58.0,85.0
1011,232.90086847708335,232.93932993541668,55.0,66.0
1012,232.90086847708335,232.97009910208334,58.0,71.0
1013,232.90086847708335,233.16432946666666,67.0,87.0
1014,232.20856222708335,233.34317524791666,50.0,75.0
1015,233.13163722708333,233.40279050833334,62.0,82.0
1016,231.97779347708334,233.5950978,43.0,87.0
1017,233.36240597708334,233.6297131125,58.0,84.0
1018,233.59317472708332,233.71240524791668,55.0,84.0
1019,233.82394347708333,234.42009608125,57.0,83.0
1020,233.82394347708333,234.60663415416667,53.0,82.0
1021,234.51624972708333,234.6450956125,57.0,68.0
1022,234.51624972708333,234.65278790416667,60.0,80.0
1023,234.28548097708332,234.8758643625,48.0,79.0
1024,234.74701847708334,235.02009483125,53.0,84.0
1025,234.74701847708334,235.03932556041667,57.0,84.0
1026,234.74701847708334,235.04701785208334,60.0,83.0
1027,234.74701847708334,235.20663290416667,65.0,84.0
1028,233.82394347708333,235.28163274791666,41.0,84.0
1029,235.20855597708334,235.34124800833334,48.0,81.0
1030,235.67009347708333,235.97009285208333,63.0,78.0
1031,235.67009347708333,236.018169675,58.0,74.0
1032,236.36239972708333,236.62393764375,58.0,88.0
1033,236.13163097708335,236.62778378958333,55.0,83.0
1034,235.67009347708333,236.7912449875,39.0,84.0
1035,235.90086222708334,236.83547566458333,46.0,75.0
1036,236.59316847708334,236.87970634166666,63.0,93.0
1037,236.82393722708335,237.08739821666666,58.0,84.0
1038,237.05470597708333,237.08739821666666,58.0,75.0
1039,237.05470597708333,237.34316691458335,55.0,84.0
1040,237.51624347708332,237.79893519583334,57.0,78.0
1041,237.51624347708332,237.91816571666666,62.0,82.0
1042,237.97778097708334,238.25470347708332,57.0,88.0
1043,237.51624347708332,238.64316420625,50.0,84.0
1044,238.43931847708333,238.86431759166666,66.0,87.0
1045,238.43931847708333,238.88162524791667,62.0,85.0
1046,238.43931847708333,238.91816363333334,57.0,83.0
1047,238.90085597708332,239.03354800833333,50.0,85.0
1048,239.36239347708334,239.52393160208334,55.0,81.0
1049,239.36239347708334,239.62777753958335,60.0,81.0
1050,239.36239347708334,239.66239285208334,63.0,84.0
1051,240.05469972708335,240.27585311250002,63.0,84.0
1052,239.82393097708334,240.36239139375002,60.0,85.0
1053,239.59316222708333,240.38354519583334,55.0,77.0
1054,239.36239347708334,240.62008316458335,48.0,89.0
1055,240.28546847708333,240.74508290416668,67.0,84.0
1056,240.51623722708334,240.86046727916667,63.0,91.0
1057,240.74700597708335,240.9912362375,60.0,83.0
1058,240.97777472708333,241.12392826875,55.0,79.0
1059,241.20854347708334,241.50854285208334,58.0,83.0
1060,241.43931222708335,241.71623472708333,53.0,82.0
1061,241.67008097708333,241.94892655,58.0,83.0
1062,241.90084972708334,241.97969571666667,53.0,65.0
1063,241.20854347708334,242.3296949875,46.0,85.0
1064,242.13161847708332,242.42969477916668,53.0,83.0
1065,242.13161847708332,242.618155925,62.0,84.0
1066,242.13161847708332,242.63738665416668,58.0,87.0
1067,242.59315597708334,242.69507884166666,46.0,87.0
1068,243.05469347708333,243.24507769583334,55.0,77.0
1069,243.05469347708333,243.6912306125,63.0,79.0
1070,243.05469347708333,243.771999675,58.0,78.0
1071,243.74699972708333,243.90469170625,55.0,79.0
1072,243.05469347708333,244.12007587291666,39.0,93.0
1073,243.51623097708332,244.16815269583333,46.0,79.0
1074,243.97776847708334,244.23546024791668,55.0,82.0
1075,243.97776847708334,244.24315253958335,58.0,86.0
1076,243.97776847708334,244.32199852916668,63.0,82.0
1077,244.43930597708334,244.59507488333333,39.0,73.0
1078,244.90084347708333,245.0066124875,38.0,86.0
1079,244.90084347708333,245.27584269583335,57.0,80.0
1080,244.90084347708333,245.34507332083334,62.0,82.0
1081,245.59314972708333,246.08161024791667,57.0,81.0
1082,245.82391847708334,246.09891790416668,62.0,83.0
1083,245.36238097708335,246.22199457083335,50.0,83.0
1084,246.05468722708335,246.32584050833333,66.0,85.0
1085,246.28545597708333,246.64122446666667,62.0,76.0
1086,248.59314347708334,249.19314222708334,62.0,76.0
1087,247.67006847708333,249.22006524791666,43.0,82.0
1088,248.13160597708332,249.49698774791668,50.0,72.0
1089,249.05468097708334,249.70660269583334,55.0,74.0
1090,249.97775597708335,250.52006253958334,53.0,83.0
1091,249.51621847708333,250.67583144583332,41.0,77.0
1092,250.43929347708334,251.33736852916667,60.0,75.0
1093,251.36236847708332,252.29313576875,39.0,69.0
1094,251.36236847708332,252.31813571666666,58.0,67.0
1095,251.82390597708334,252.33544337291667,46.0,63.0
1096,252.28544347708333,252.88159608125,55.0,83.0
1097,252.74698097708333,253.21236462291668,58.0,75.0
1098,253.20851847708335,253.92967082083334,57.0,75.0
1099,253.67005597708334,254.15851649791668,45.0,68.0
1100,253.20851847708335,254.20467024791668,38.0,77.0
1101,254.13159347708333,255.84889759166666,62.0,82.0
1102,255.74697472708334,256.24120446666666,58.0,67.0
1103,255.51620597708333,256.2431275395833,55.0,79.0
1104,255.97774347708332,256.3008197270833,67.0,82.0
1105,255.28543722708335,256.71812654999997,50.0,72.0
1106,255.05466847708334,256.73543420625003,43.0,82.0
1107,256.20851222708336,256.971972175,62.0,75.0
1108,256.43928097708334,257.01235670625,55.0,82.0
1109,257.59312472708336,257.83927806041663,57.0,71.0
1110,257.3623559770833,257.8642780083334,53.0,78.0
1111,257.82389347708335,258.1604312375,60.0,80.0
1112,257.13158722708334,258.1796619666667,48.0,70.0
1113,256.90081847708336,258.23927722708333,41.0,81.0
1114,258.0546622270833,258.31620014375,57.0,78.0
1115,258.28543097708337,258.60466108125,53.0,79.0
1116,258.51619972708335,258.7604299875,57.0,76.0
1117,259.20850597708335,259.64696660208335,55.0,71.0
1118,259.43927472708333,259.71619722708334,58.0,71.0
1119,258.7469684770833,259.741197175,39.0,84.0
1120,258.97773722708337,259.78350477916666,46.0,68.0
1121,259.67004347708337,259.9988889458333,63.0,85.0
1122,259.90081222708335,260.1142733208334,58.0,83.0
1123,260.13158097708333,260.46427259166666,55.0,81.0
1124,260.36234972708337,260.65081066458333,58.0,83.0
1125,261.18734800833334,262.08157691458337,50.0,75.0
1126,261.3450399875,262.1796536333334,54.0,68.0
1127,260.9200408729167,262.1854228520833,45.0,68.0
1128,261.46427050833336,262.2988841541667,57.0,60.0
1129,260.5854261854167,262.3046533729167,38.0,84.0
1130,261.51234733125,262.3238841020833,62.0,66.0
