,start,end,pitch,velocity
0,25.12215941666667,25.386047645833333,73.0,84.0
1,25.455491916666666,25.824935437500002,73.0,89.0
2,25.788824416666667,26.17215679166667,75.0,93.0
3,26.12215691666667,26.45132276041667,77.0,89.0
4,26.45548941666667,26.711044333333334,72.0,89.0
5,26.788821916666667,27.083265625000003,72.0,88.0
6,27.122154416666667,27.374931562500002,70.0,83.0
7,27.45548691666667,27.755486166666667,68.0,84.0
8,27.78881941666667,30.156869052083334,70.0,88.0
9,30.45547941666667,30.68881216666667,73.0,88.0
10,30.788811916666667,31.072144541666667,73.0,90.0
11,31.122144416666668,31.386032645833335,75.0,93.0
12,31.45547691666667,31.740198427083335,77.0,89.0
13,31.78880941666667,32.14714185416667,72.0,90.0
14,32.12214191666667,32.4415855625,70.0,88.0
15,32.45547441666667,32.7582514375,65.0,95.0
16,32.788806916666665,33.466583,72.0,87.0
17,33.45547191666667,34.905468291666665,70.0,84.0
18,35.455466916666666,35.77213279166667,68.0,88.0
19,35.78879941666667,36.656852802083336,70.0,87.0
20,36.78879691666667,37.086018395833335,73.0,88.0
21,37.12212941666667,37.88462751041667,75.0,89.0
22,38.122126916666666,38.39573734375,68.0,86.0
23,38.45545941666667,39.02212466666667,77.0,84.0
24,39.12212441666667,39.33879054166667,75.0,89.0
25,39.45545691666667,39.72906734375,77.0,87.0
26,39.78878941666667,40.537398656250005,73.0,88.0
27,41.12211941666667,41.4582296875,70.0,89.0
28,41.45545191666667,41.7082290625,73.0,89.0
29,41.78878441666667,42.03045047916667,73.0,86.0
30,42.12211691666667,42.35683855208334,73.0,88.0
31,42.45544941666667,42.69989325,73.0,91.0
32,42.78878191666667,43.286002895833334,70.0,90.0
33,43.455446916666666,43.694335208333335,73.0,90.0
34,43.78877941666667,46.22905109375,75.0,89.0
35,46.45543941666667,46.71932764583334,73.0,84.0
36,46.78877191666667,47.158215437500004,73.0,89.0
37,47.122104416666666,47.50543679166667,75.0,93.0
38,47.45543691666667,47.78460276041667,77.0,89.0
39,47.78876941666667,48.044324333333336,72.0,89.0
40,48.12210191666667,48.416545625000005,72.0,88.0
41,48.45543441666667,48.708211562500004,70.0,83.0
42,48.78876691666667,49.088766166666666,68.0,84.0
43,49.12209941666667,51.49014905208334,70.0,88.0
44,51.78875941666667,52.02209216666667,73.0,88.0
45,52.12209191666667,52.40542454166667,73.0,90.0
46,52.455424416666666,52.719312645833334,75.0,93.0
47,52.78875691666667,53.07347842708334,77.0,89.0
48,53.12208941666667,53.48042185416667,72.0,90.0
49,53.45542191666667,53.774865562500004,70.0,88.0
50,53.78875441666667,54.0915314375,65.0,95.0
51,54.12208691666667,54.799863,72.0,87.0
52,54.78875191666667,56.23874829166667,70.0,84.0
53,56.78874691666667,57.10541279166667,68.0,88.0
54,57.12207941666667,57.99013280208334,70.0,87.0
55,58.12207691666667,58.41929839583334,73.0,88.0
56,58.45540941666667,59.21790751041667,75.0,89.0
57,59.45540691666667,59.72901734375,68.0,86.0
58,59.78873941666667,60.07346092708334,77.0,84.0
59,60.12207191666667,60.406793427083336,77.0,84.0
60,60.45540441666667,60.67207054166667,75.0,89.0
61,60.78873691666667,61.062347343750005,77.0,87.0
62,61.12206941666667,61.87067865625,73.0,88.0
63,62.45539941666667,62.7915096875,70.0,89.0
64,62.78873191666667,63.041509062500005,73.0,89.0
65,63.12206441666667,63.36373047916667,75.0,86.0
66,63.45539691666667,63.690118552083334,77.0,88.0
67,63.78872941666667,64.03317325,75.0,91.0
68,64.12206191666667,64.38595014583333,73.0,88.0
69,64.45539441666666,64.76094920833334,75.0,95.0
70,64.78872691666668,65.05678180208334,77.0,84.0
71,65.12205941666667,68.77621694791667,80.0,90.0
72,70.45537941666667,70.83037847916667,77.0,89.0
73,70.78871191666667,71.116488875,80.0,88.0
74,71.12204441666667,71.50259902083334,77.0,89.0
75,71.45537691666667,71.80259827083334,75.0,97.0
76,71.78870941666668,72.96926202083334,73.0,92.0
77,73.12203941666667,73.48314962500001,75.0,89.0
78,73.45537191666666,73.78870441666668,77.0,89.0
79,73.78870441666668,74.1414813125,72.0,89.0
80,74.12203691666667,74.4664805,70.0,87.0
81,74.45536941666667,75.41508923958334,68.0,89.0
82,75.78869941666667,76.05675430208333,73.0,90.0
83,76.12203191666667,76.72897484375001,75.0,99.0
84,76.78869691666667,77.09425170833333,77.0,92.0
85,77.12202941666668,78.28035985416668,80.0,89.0
86,78.45535941666667,79.08313562500001,82.0,94.0
87,79.12202441666668,79.43869029166667,77.0,90.0
88,79.45535691666667,79.78174498958333,73.0,91.0
89,79.78868941666667,81.06229734375,75.0,92.0
90,81.12201941666667,81.34424108333334,75.0,97.0
91,81.45535191666667,82.10257252083333,75.0,92.0
92,82.12201691666667,82.399794,73.0,87.0
93,82.45534941666668,83.19006980208334,75.0,95.0
94,83.45534691666667,83.7247906875,77.0,92.0
95,83.78867941666667,84.05256764583334,80.0,90.0
96,84.12201191666666,84.36367797916667,82.0,88.0
97,84.45534441666668,84.75395478125,80.0,91.0
98,84.78867691666667,85.11923164583334,77.0,89.0
99,85.12200941666667,85.60950819791667,80.0,91.0
100,85.78867441666667,86.15395128125,77.0,89.0
101,86.12200691666668,86.46645050000001,80.0,90.0
102,86.45533941666667,86.69839436458334,82.0,89.0
103,86.78867191666667,87.00117138541667,82.0,90.0
104,87.12200441666667,87.45255914583333,82.0,92.0
105,87.45533691666667,87.78589164583333,82.0,92.0
106,87.78866941666666,88.37477906250001,80.0,90.0
107,88.45533441666667,88.77200029166667,80.0,88.0
108,88.78866691666667,89.15255489583333,77.0,89.0
109,89.12199941666667,91.65393753125001,80.0,89.0
110,91.78865941666668,92.16365847916667,77.0,89.0
111,92.12199191666667,92.449768875,80.0,88.0
112,92.45532441666667,92.83587902083333,77.0,89.0
113,92.78865691666667,93.13587827083335,75.0,97.0
114,93.12198941666666,94.30254202083334,73.0,92.0
115,94.45531941666667,94.81642962500001,75.0,89.0
116,94.78865191666667,95.12198441666668,77.0,89.0
117,95.12198441666668,95.47476131250001,72.0,89.0
118,95.45531691666667,95.7997605,70.0,87.0
119,95.78864941666667,96.74836923958334,68.0,89.0
120,97.12197941666668,97.39003430208334,73.0,90.0
121,97.45531191666667,98.06225484375001,75.0,99.0
122,98.12197691666667,98.42753170833333,77.0,92.0
123,98.45530941666667,99.61363985416668,80.0,89.0
124,99.78863941666667,100.416415625,82.0,94.0
125,100.45530441666668,100.77197029166668,77.0,90.0
126,100.78863691666668,101.11502498958333,73.0,91.0
127,101.12196941666667,102.39557734375,75.0,92.0
128,102.45529941666668,102.67752108333333,75.0,97.0
129,102.78863191666667,103.43585252083334,75.0,92.0
130,103.45529691666667,103.733074,73.0,87.0
131,103.78862941666667,104.52334980208335,75.0,95.0
132,104.78862691666667,105.0580706875,77.0,92.0
133,105.12195941666667,105.38584764583334,80.0,90.0
134,105.45529191666667,105.69695797916667,82.0,88.0
135,105.78862441666668,106.08723478125,80.0,91.0
136,106.12195691666668,106.45251164583334,77.0,89.0
137,106.45528941666667,106.94278819791667,80.0,91.0
138,107.12195441666667,107.48723128125,77.0,89.0
139,107.45528691666667,107.79973050000001,80.0,90.0
140,107.78861941666668,108.03167436458334,82.0,89.0
141,108.12195191666667,108.33445138541667,82.0,90.0
142,108.45528441666667,108.78583914583334,82.0,92.0
143,108.78861691666667,109.11917164583333,77.0,92.0
144,109.12194941666667,109.45250414583334,75.0,90.0
145,109.45528191666668,110.11916914583334,77.0,88.0
146,110.12194691666667,110.48583489583334,75.0,89.0
147,110.45527941666667,112.98721753125001,73.0,89.0
148,134.45521941666667,134.71910764583333,73.0,84.0
149,134.78855191666668,135.1579954375,73.0,89.0
150,135.12188441666666,135.50521679166667,75.0,93.0
151,135.45521691666667,135.78438276041666,77.0,89.0
152,135.78854941666668,136.04410433333334,72.0,89.0
153,136.12188191666667,136.416325625,72.0,88.0
154,136.45521441666668,136.7079915625,70.0,83.0
155,136.78854691666666,137.08854616666667,68.0,84.0
156,137.12187941666667,139.48992905208334,70.0,88.0
157,139.78853941666668,140.02187216666667,73.0,88.0
158,140.12187191666666,140.40520454166668,73.0,90.0
159,140.45520441666667,140.71909264583334,75.0,93.0
160,140.7885369166667,141.07325842708335,77.0,89.0
161,141.12186941666667,141.48020185416667,72.0,90.0
162,141.45520191666668,141.7746455625,70.0,88.0
163,141.78853441666666,142.0913114375,65.0,95.0
164,142.12186691666668,142.799643,72.0,87.0
165,142.78853191666667,144.23852829166668,70.0,84.0
166,144.78852691666668,145.10519279166667,68.0,88.0
167,145.12185941666667,145.98991280208335,70.0,87.0
168,146.12185691666667,146.41907839583334,73.0,88.0
169,146.45518941666668,147.21768751041668,75.0,89.0
170,147.45518691666666,147.72879734375002,68.0,86.0
171,147.78851941666667,148.07324092708333,77.0,84.0
172,148.12185191666669,148.40657342708334,77.0,84.0
173,148.45518441666667,148.67185054166669,75.0,89.0
174,148.78851691666668,149.06212734375,77.0,87.0
175,149.12184941666666,149.87045865625,73.0,88.0
176,150.45517941666668,150.7912896875,70.0,89.0
177,150.78851191666666,151.0412890625,73.0,89.0
178,151.12184441666668,151.36351047916668,75.0,86.0
179,151.4551769166667,151.68989855208335,77.0,88.0
180,151.78850941666667,152.03295325000002,75.0,91.0
181,152.12184191666668,152.38573014583335,73.0,88.0
182,152.45517441666667,152.76072920833334,75.0,95.0
183,152.78850691666668,153.05656180208334,77.0,84.0
184,153.1218394166667,156.77599694791667,80.0,90.0
185,158.45515941666667,158.83015847916667,77.0,89.0
186,158.7884919166667,159.116268875,80.0,88.0
187,159.12182441666667,159.50237902083333,77.0,89.0
188,159.45515691666668,159.80237827083334,75.0,97.0
189,159.78848941666666,160.96904202083334,73.0,92.0
190,161.12181941666668,161.482929625,75.0,89.0
191,161.45515191666667,161.78848441666668,77.0,89.0
192,161.78848441666668,162.1412613125,72.0,89.0
193,162.1218169166667,162.4662605,70.0,87.0
194,162.45514941666667,163.41486923958334,68.0,89.0
195,163.7884794166667,164.05653430208335,73.0,90.0
196,164.12181191666667,164.72875484375,75.0,99.0
197,164.78847691666667,165.09403170833335,77.0,92.0
198,165.12180941666668,166.28013985416666,80.0,89.0
199,166.45513941666667,167.082915625,82.0,94.0
200,167.12180441666666,167.43847029166668,77.0,90.0
201,167.45513691666667,167.78152498958335,73.0,91.0
202,167.7884694166667,169.06207734375002,75.0,92.0
203,169.12179941666668,169.34402108333333,75.0,97.0
204,169.4551319166667,170.10235252083334,75.0,92.0
205,170.12179691666668,170.399574,73.0,87.0
206,170.45512941666667,171.18984980208333,75.0,95.0
207,171.45512691666667,171.7245706875,77.0,92.0
208,171.78845941666668,172.05234764583335,80.0,90.0
209,172.12179191666667,172.36345797916667,82.0,88.0
210,172.45512441666668,172.75373478125002,80.0,91.0
211,172.7884569166667,173.11901164583335,77.0,89.0
212,173.12178941666667,173.60928819791667,80.0,91.0
213,173.78845441666667,174.15373128125,77.0,89.0
214,174.12178691666668,174.46623050000002,80.0,90.0
215,174.45511941666666,174.69817436458334,82.0,89.0
216,174.78845191666667,175.00095138541667,82.0,90.0
217,175.12178441666669,175.45233914583335,82.0,92.0
218,175.45511691666667,175.78567164583333,82.0,92.0
219,175.78844941666668,176.3745590625,80.0,90.0
220,176.45511441666667,176.7717802916667,80.0,88.0
221,176.7884469166667,177.15233489583335,77.0,89.0
222,177.12177941666667,179.65371753125,80.0,89.0
223,179.78843941666668,180.16343847916667,77.0,89.0
224,180.1217719166667,180.449548875,80.0,88.0
225,180.45510441666667,180.83565902083333,77.0,89.0
226,180.78843691666668,181.13565827083335,75.0,97.0
227,181.12176941666667,182.30232202083334,73.0,92.0
228,182.45509941666668,182.816209625,75.0,89.0
229,182.78843191666667,183.12176441666668,77.0,89.0
230,183.12176441666668,183.4745413125,72.0,89.0
231,183.4550969166667,183.7995405,70.0,87.0
232,183.78842941666667,184.74814923958334,68.0,89.0
233,185.12175941666666,185.38981430208335,73.0,90.0
234,185.45509191666667,186.06203484375,75.0,99.0
235,186.12175691666667,186.42731170833335,77.0,92.0
236,186.45508941666668,187.61341985416666,80.0,89.0
237,187.78841941666667,188.416195625,82.0,94.0
238,188.45508441666666,188.77175029166668,77.0,90.0
239,188.78841691666668,189.11480498958335,73.0,91.0
240,189.1217494166667,190.39535734375002,75.0,92.0
241,190.45507941666668,190.67730108333333,75.0,97.0
242,190.7884119166667,191.43563252083334,75.0,92.0
243,191.45507691666668,191.732854,73.0,87.0
244,191.78840941666667,192.52312980208333,75.0,95.0
245,192.78840691666667,193.0578506875,77.0,92.0
246,193.12173941666668,193.38562764583335,80.0,90.0
247,193.45507191666667,193.69673797916667,82.0,88.0
248,193.78840441666668,194.08701478125002,80.0,91.0
249,194.12173691666666,194.45229164583336,77.0,89.0
250,194.45506941666667,194.94256819791667,80.0,91.0
251,195.12173441666667,195.48701128125,77.0,89.0
252,195.45506691666668,195.7995105,80.0,90.0
253,195.78839941666666,196.03145436458334,82.0,89.0
254,196.12173191666668,196.33423138541667,82.0,90.0
255,196.4550644166667,196.78561914583335,82.0,92.0
256,196.78839691666667,197.11895164583333,77.0,92.0
257,197.12172941666668,197.45228414583335,75.0,90.0
258,197.45506191666666,198.11894914583334,77.0,88.0
259,198.1217269166667,198.48561489583335,75.0,89.0
260,198.45505941666667,200.98699753125,73.0,89.0
261,201.12171941666668,201.49671847916667,77.0,89.0
262,201.4550519166667,201.782828875,80.0,88.0
263,201.78838441666667,202.16893902083334,77.0,89.0
264,202.12171691666668,202.46893827083335,75.0,97.0
265,202.45504941666667,203.63560202083335,73.0,92.0
266,203.7883794166667,204.149489625,75.0,89.0
267,204.12171191666667,204.45504441666668,77.0,89.0
268,204.45504441666668,204.8078213125,72.0,89.0
269,204.78837691666666,205.1328205,70.0,87.0
270,205.12170941666668,206.08142923958334,68.0,89.0
271,206.45503941666666,206.72309430208335,73.0,90.0
272,206.78837191666668,207.39531484375001,75.0,99.0
273,207.45503691666667,207.76059170833335,77.0,92.0
274,207.78836941666668,208.94669985416667,80.0,89.0
275,209.12169941666667,209.749475625,82.0,94.0
276,209.78836441666667,210.10503029166668,77.0,90.0
277,210.12169691666668,210.44808498958335,73.0,91.0
278,210.4550294166667,211.72863734375002,75.0,92.0
279,211.78835941666668,212.01058108333334,75.0,97.0
280,212.1216919166667,212.76891252083334,75.0,92.0
281,212.7883569166667,213.066134,73.0,87.0
282,213.12168941666667,213.85640980208333,75.0,95.0
283,214.12168691666668,214.3911306875,77.0,92.0
284,214.4550194166667,214.71890764583335,80.0,90.0
285,214.78835191666667,215.03001797916667,82.0,88.0
286,215.12168441666668,215.42029478125002,80.0,91.0
287,215.45501691666666,215.78557164583336,77.0,89.0
288,215.78834941666668,216.27584819791667,80.0,91.0
289,216.45501441666667,216.82029128125,77.0,89.0
290,216.78834691666668,217.1327905,80.0,90.0
291,217.12167941666667,217.36473436458334,82.0,89.0
292,217.45501191666668,217.66751138541667,82.0,90.0
293,217.7883444166667,218.11889914583335,82.0,92.0
294,218.12167691666667,218.45223164583334,82.0,92.0
295,218.45500941666668,219.0411190625,80.0,90.0
296,219.12167441666668,219.4383402916667,80.0,88.0
297,219.4550069166667,219.81889489583335,77.0,89.0
298,219.78833941666667,222.32027753125,80.0,89.0
299,222.45499941666668,222.82999847916668,77.0,89.0
300,222.7883319166667,223.116108875,80.0,88.0
301,223.12166441666668,223.50221902083334,77.0,89.0
302,223.4549969166667,223.80221827083335,75.0,97.0
303,223.78832941666667,224.96888202083335,73.0,92.0
304,225.1216594166667,225.482769625,75.0,89.0
305,225.45499191666667,225.78832441666668,77.0,89.0
306,225.78832441666668,226.1411013125,72.0,89.0
307,226.12165691666667,226.4661005,70.0,87.0
308,226.45498941666668,227.41470923958335,68.0,89.0
309,227.78831941666667,228.05637430208336,73.0,90.0
310,228.12165191666668,228.72859484375002,75.0,99.0
311,228.78831691666667,229.09387170833335,77.0,92.0
312,229.12164941666668,230.27997985416667,80.0,89.0
313,230.45497941666667,231.082755625,82.0,94.0
314,231.12164441666667,231.43831029166668,77.0,90.0
315,231.45497691666668,231.78136498958335,73.0,91.0
316,231.7883094166667,233.06191734375003,75.0,92.0
317,233.12163941666668,233.34386108333334,75.0,97.0
318,233.4549719166667,234.10219252083334,75.0,92.0
319,234.1216369166667,234.399414,73.0,87.0
320,234.45496941666667,235.18968980208334,75.0,95.0
321,235.45496691666668,235.7244106875,77.0,92.0
322,235.7882994166667,236.05218764583336,80.0,90.0
323,236.12163191666667,236.36329797916667,82.0,88.0
324,236.45496441666668,236.75357478125002,80.0,91.0
325,236.78829691666667,237.11885164583336,77.0,89.0
326,237.12162941666668,237.60912819791668,80.0,91.0
327,237.78829441666667,238.15357128125,77.0,89.0
328,238.12162691666668,238.4660705,80.0,90.0
329,238.45495941666667,238.69801436458334,82.0,89.0
330,238.78829191666668,239.00079138541668,82.0,90.0
331,239.1216244166667,239.45217914583336,82.0,92.0
332,239.45495691666667,239.78551164583334,77.0,92.0
333,239.7882894166667,240.11884414583335,75.0,90.0
334,240.12162191666667,240.78550914583334,77.0,88.0
335,240.7882869166667,241.15217489583335,75.0,89.0
336,241.12161941666668,242.78550414583336,73.0,89.0
337,243.1216144166667,243.48689128125002,77.0,89.0
338,243.45494691666667,243.79939050000002,80.0,90.0
339,243.78827941666668,244.03133436458336,82.0,89.0
340,244.12161191666667,244.3341113854167,82.0,90.0
341,244.45494441666668,244.78549914583334,82.0,92.0
342,244.7882769166667,245.11883164583335,77.0,92.0
343,245.12160941666667,245.45216414583334,75.0,90.0
344,245.45494191666668,246.11882914583336,77.0,88.0
345,246.12160691666668,246.48549489583334,75.0,89.0
346,246.4549394166667,248.98687753125,73.0,89.0
