,start,end,pitch,velocity
0,3.709712947916667,5.629152593750001,61.0,84.0
1,3.6333242500000003,5.655541416666667,56.0,77.0
2,3.730546229166667,5.731930114583333,49.0,86.0
3,3.763879479166667,5.780541104166667,65.0,88.0
4,6.297206479166667,6.81248296875,53.0,75.0
5,6.359706322916667,7.137482156250001,56.0,77.0
6,6.3916506875,7.515258989583334,60.0,81.0
7,7.066649,8.213868354166667,53.0,84.0
8,6.705538791666667,8.2249794375,48.0,76.0
9,7.39581484375,8.22914609375,56.0,81.0
10,6.3749840625,8.261090458333333,41.0,91.0
11,9.047199604166668,9.5249761875,58.0,69.0
12,9.097199479166667,9.797197729166667,61.0,77.0
13,9.76247559375,10.21247446875,58.0,94.0
14,10.072197041666668,10.27080765625,61.0,87.0
15,10.44580721875,11.173583177083334,65.0,87.0
16,9.41247646875,11.251360760416667,53.0,86.0
17,9.10414390625,11.298582864583334,46.0,89.0
18,11.65413753125,12.186080645833334,54.0,74.0
19,11.711081833333333,12.472191041666667,58.0,79.0
20,12.411080083333333,12.577746333333334,54.0,79.0
21,11.768026135416667,12.593024072916668,61.0,76.0
22,11.765248364583334,12.780523604166667,42.0,88.0
23,12.065247614583335,12.798579114583333,49.0,77.0
24,12.997189729166667,13.294411208333335,56.0,76.0
25,13.063856229166667,13.574966062500001,60.0,80.0
26,13.106911677083334,13.772187791666667,63.0,78.0
27,13.723576802083334,13.862465343750001,56.0,92.0
28,13.384688760416667,13.983298375,51.0,83.0
29,13.07913396875,14.04579821875,44.0,89.0
30,14.286075395833334,14.451352760416668,56.0,73.0
31,14.354130781250001,14.676352197916668,61.0,80.0
32,14.427741708333334,15.087462281250001,65.0,89.0
33,15.076351197916667,15.448572489583334,61.0,89.0
34,14.740240927083335,15.468016885416667,56.0,92.0
35,15.409683697916668,15.613849854166668,63.0,90.0
36,14.423575052083335,15.713849604166667,49.0,94.0
37,16.047182104166666,16.83884679166667,56.0,75.0
38,15.747182854166667,17.07912396875,65.0,92.0
39,17.088846166666666,17.890233052083335,60.0,84.0
40,17.776344447916667,18.213843354166666,56.0,83.0
41,18.07078815625,18.838841791666667,53.0,84.0
42,18.426342822916666,19.006896927083336,60.0,85.0
43,17.416623125,19.116618875,48.0,78.0
44,17.083290625,19.145785468750002,41.0,89.0
45,19.759672822916666,20.544393083333336,39.0,89.0
46,20.0916164375,20.548559739583336,46.0,77.0
47,19.75411728125,20.762448093750002,66.0,86.0
48,20.40550454166667,20.836059020833336,58.0,91.0
49,20.766614750000002,21.801334385416666,63.0,89.0
50,21.416613125,22.094389208333336,51.0,86.0
51,21.084669510416667,22.10550029166667,44.0,89.0
52,21.752723395833335,22.240222177083336,56.0,94.0
53,22.397166229166668,22.940220427083336,61.0,87.0
54,22.73883204166667,23.091608937500002,56.0,84.0
55,23.069386770833333,23.551330010416667,63.0,84.0
56,23.398552614583334,23.806884927083335,56.0,83.0
57,23.731885114583335,24.52910534375,65.0,86.0
58,22.416610625,24.602716270833334,49.0,89.0
59,25.12215941666667,25.806879927083333,65.0,89.0
60,25.788824416666667,26.095768093750003,61.0,88.0
61,25.12215941666667,26.29576759375,49.0,91.0
62,25.455491916666666,26.576322447916667,56.0,77.0
63,26.45548941666667,26.856877302083333,60.0,77.0
64,26.45548941666667,27.166598750000002,63.0,84.0
65,26.788821916666667,27.494375708333333,56.0,81.0
66,26.45548941666667,27.530486729166668,48.0,88.0
67,27.122154416666667,27.573542177083336,60.0,88.0
68,27.78881941666667,28.47076215625,61.0,81.0
69,28.122151916666667,28.590206302083335,53.0,75.0
70,28.455484416666668,29.22076028125,58.0,84.0
71,28.78881691666667,29.286037895833335,53.0,82.0
72,27.78881941666667,29.829092093750003,46.0,85.0
73,29.12214941666667,29.829092093750003,61.0,86.0
74,29.12214941666667,29.859647572916668,65.0,89.0
75,29.455481916666667,29.863814229166668,53.0,76.0
76,29.788814416666668,29.87075865625,58.0,77.0
77,30.45547941666667,30.84575621875,61.0,80.0
78,30.45547941666667,31.123533302083334,65.0,87.0
79,30.45547941666667,31.6082543125,49.0,88.0
80,31.122144416666668,31.741587312500002,61.0,97.0
81,31.45547691666667,31.838809291666667,65.0,88.0
82,30.788811916666667,31.944364583333336,56.0,78.0
83,31.78880941666667,32.51241871875,63.0,83.0
84,32.12214191666667,32.68464051041667,56.0,73.0
85,31.78880941666667,32.706862677083336,48.0,83.0
86,32.45547441666667,32.78602914583333,60.0,81.0
87,33.12213941666667,33.54436058333334,58.0,76.0
88,33.12213941666667,33.873526427083334,61.0,83.0
89,33.45547191666667,33.87630419791667,53.0,73.0
90,33.78880441666667,34.531858114583336,58.0,89.0
91,34.12213691666667,34.536024770833336,53.0,77.0
92,34.455469416666666,35.08602339583334,65.0,87.0
93,34.455469416666666,35.149912125,61.0,82.0
94,34.78880191666667,35.22907859375,53.0,75.0
95,33.12213941666667,35.33602277083334,46.0,87.0
96,35.12213441666667,35.487411281250004,58.0,89.0
97,35.455466916666666,35.71518848958333,56.0,92.0
98,35.78879941666667,36.49296432291667,54.0,81.0
99,35.78879941666667,36.52629757291667,58.0,82.0
100,36.12213191666667,36.583241875,49.0,78.0
101,35.78879941666667,36.665186114583335,42.0,89.0
102,36.45546441666667,36.78879691666667,61.0,88.0
103,37.12212941666667,37.523517302083334,56.0,80.0
104,37.12212941666667,37.79573884375,60.0,82.0
105,37.45546191666667,37.948516239583334,51.0,80.0
106,37.12212941666667,38.033238250000004,44.0,84.0
107,37.78879441666667,38.308237562500004,56.0,89.0
108,38.45545941666667,38.63045897916667,56.0,85.0
109,38.45545941666667,39.16934652083334,65.0,89.0
110,38.78879191666667,39.183235375,56.0,89.0
111,38.45545941666667,39.615178739583335,49.0,89.0
112,39.12212441666667,39.63323425,63.0,90.0
113,39.45545691666667,39.64712310416667,56.0,90.0
114,39.78878941666667,40.50267652083333,61.0,88.0
115,40.788786916666666,40.97628644791667,61.0,90.0
116,40.45545441666667,40.98045310416667,58.0,90.0
117,39.78878941666667,40.99711972916667,46.0,88.0
118,40.12212191666667,40.998508614583336,53.0,81.0
119,41.12211941666667,41.590173802083335,58.0,81.0
120,41.12211941666667,42.016561625,66.0,87.0
121,41.78878441666667,42.1915611875,58.0,91.0
122,42.12211691666667,42.28739428125,61.0,93.0
123,41.45545191666667,42.59711572916667,49.0,76.0
124,42.45544941666667,42.97211479166667,58.0,84.0
125,42.45544941666667,43.156836552083334,66.0,88.0
126,41.12211941666667,43.208225312500005,42.0,88.0
127,42.78878191666667,43.24294744791667,49.0,75.0
128,43.12211441666667,43.4582246875,61.0,89.0
129,43.455446916666666,43.637390906250005,58.0,88.0
130,43.78877941666667,44.51377760416667,56.0,89.0
131,44.78877691666667,45.155442666666666,56.0,92.0
132,44.455444416666666,45.20544254166667,63.0,88.0
133,44.12211191666667,45.248497989583335,51.0,82.0
134,45.45544191666667,45.583219375000006,56.0,76.0
135,45.12210941666667,45.58599714583334,68.0,90.0
136,45.78877441666667,46.179051218750004,60.0,78.0
137,45.45544191666667,46.37905071875,51.0,88.0
138,43.78877941666667,46.39849511458333,44.0,88.0
139,46.12210691666667,46.43877279166667,56.0,99.0
140,46.45543941666667,47.14015992708334,65.0,89.0
141,47.122104416666666,47.429048093750005,61.0,88.0
142,46.45543941666667,47.62904759375,49.0,91.0
143,46.78877191666667,47.90960244791667,56.0,77.0
144,47.78876941666667,48.190157302083335,60.0,77.0
145,47.78876941666667,48.49987875,63.0,84.0
146,48.12210191666667,48.82765570833334,56.0,81.0
147,47.78876941666667,48.86376672916667,48.0,88.0
148,48.45543441666667,48.906822177083335,60.0,88.0
149,49.12209941666667,49.804042156250006,61.0,81.0
150,49.45543191666667,49.92348630208333,53.0,75.0
151,49.788764416666666,50.55404028125,58.0,84.0
152,50.12209691666667,50.61931789583333,53.0,82.0
153,49.12209941666667,51.16237209375,46.0,85.0
154,50.45542941666667,51.16237209375,61.0,86.0
155,50.45542941666667,51.192927572916666,65.0,89.0
156,50.78876191666667,51.197094229166666,53.0,76.0
157,51.12209441666667,51.204038656250006,58.0,77.0
158,51.78875941666667,52.17903621875,61.0,80.0
159,51.78875941666667,52.45681330208333,65.0,87.0
160,51.78875941666667,52.9415343125,49.0,88.0
161,52.455424416666666,53.074867312500004,61.0,97.0
162,52.78875691666667,53.17208929166667,65.0,88.0
163,52.12209191666667,53.277644583333334,56.0,78.0
164,53.12208941666667,53.84569871875,63.0,83.0
165,53.45542191666667,54.01792051041667,56.0,73.0
166,53.12208941666667,54.04014267708334,48.0,83.0
167,53.78875441666667,54.119309145833334,60.0,81.0
168,54.45541941666667,54.87764058333334,58.0,76.0
169,54.45541941666667,55.206806427083336,61.0,83.0
170,54.78875191666667,55.20958419791667,53.0,73.0
171,55.12208441666667,55.86513811458334,58.0,89.0
172,55.45541691666667,55.86930477083334,53.0,77.0
173,55.78874941666667,56.41930339583334,65.0,87.0
174,55.78874941666667,56.483192125,61.0,82.0
175,56.12208191666667,56.562358593750005,53.0,75.0
176,54.45541941666667,56.66930277083333,46.0,87.0
177,56.45541441666667,56.82069128125001,58.0,89.0
178,56.78874691666667,57.048468489583335,56.0,92.0
179,57.12207941666667,57.82624432291667,54.0,81.0
180,57.12207941666667,57.85957757291667,58.0,82.0
181,57.45541191666667,57.916521875,49.0,78.0
182,57.12207941666667,57.99846611458334,42.0,89.0
183,57.78874441666667,58.12207691666667,61.0,88.0
184,58.45540941666667,58.856797302083336,56.0,80.0
185,58.45540941666667,59.12901884375,60.0,82.0
186,58.78874191666667,59.281796239583336,51.0,80.0
187,58.45540941666667,59.366518250000006,44.0,84.0
188,59.12207441666667,59.641517562500006,56.0,89.0
189,59.78873941666667,59.96373897916667,56.0,85.0
190,59.78873941666667,60.50262652083334,65.0,89.0
191,60.12207191666667,60.516515375000004,56.0,89.0
192,59.78873941666667,60.94845873958334,49.0,89.0
193,60.45540441666667,60.96651425,63.0,90.0
194,60.78873691666667,60.98040310416667,56.0,90.0
195,61.12206941666667,61.835956520833335,61.0,88.0
196,62.12206691666667,62.30956644791667,61.0,90.0
197,61.78873441666667,62.31373310416667,58.0,90.0
198,61.12206941666667,62.33039972916667,46.0,88.0
199,61.45540191666667,62.33178861458334,53.0,81.0
200,62.45539941666667,62.92345380208334,58.0,81.0
201,62.45539941666667,63.349841625,66.0,87.0
202,63.12206441666667,63.5248411875,58.0,91.0
203,63.45539691666667,63.620674281250004,61.0,93.0
204,62.78873191666667,63.93039572916667,49.0,76.0
205,63.78872941666667,64.30539479166667,58.0,84.0
206,63.78872941666667,64.49011655208334,66.0,88.0
207,62.45539941666667,64.54150531250001,42.0,88.0
208,64.12206191666667,64.57622744791666,49.0,75.0
209,64.45539441666666,64.79150468750001,61.0,89.0
210,64.78872691666668,64.97067090625,58.0,88.0
211,65.12205941666667,65.84705760416666,56.0,89.0
212,66.12205691666666,66.48872266666667,56.0,92.0
213,65.78872441666667,66.53872254166667,63.0,88.0
214,65.45539191666667,66.58177798958334,51.0,82.0
215,66.78872191666667,66.916499375,56.0,76.0
216,66.45538941666668,66.91927714583333,68.0,90.0
217,67.12205441666667,67.51233121875,60.0,78.0
218,66.78872191666667,67.71233071875001,51.0,88.0
219,65.12205941666667,67.73177511458334,44.0,88.0
220,67.45538691666667,67.77205279166667,56.0,99.0
221,67.78871941666667,68.19427395833334,56.0,81.0
222,67.78871941666667,68.31094033333333,63.0,83.0
223,69.12204941666667,69.96232509375001,68.0,84.0
224,68.45538441666667,70.01510273958334,56.0,93.0
225,68.78871691666667,70.016491625,63.0,88.0
226,68.12205191666666,70.03315825,51.0,79.0
227,67.78871941666667,70.08732478125,44.0,89.0
228,70.45537941666667,70.65954557291667,56.0,76.0
229,70.45537941666667,70.73454538541667,61.0,89.0
230,70.78871191666667,70.97482256250001,56.0,76.0
231,71.12204441666667,71.30121063541667,61.0,84.0
232,71.45537691666667,71.55398778125,56.0,87.0
233,71.62204316666667,71.69982075,61.0,87.0
234,71.78870941666668,71.91509798958333,56.0,108.0
235,71.78870941666668,71.9748200625,65.0,100.0
236,72.12204191666667,72.28037485416667,56.0,66.0
237,72.45537441666667,72.55398528125001,56.0,78.0
238,72.45537441666667,72.62342955208334,61.0,97.0
239,70.45537941666667,72.95259539583334,49.0,92.0
240,72.78870691666667,72.96787313541667,56.0,73.0
241,73.12203941666667,73.38592764583333,61.0,87.0
242,73.12203941666667,73.45398303125,58.0,84.0
243,73.45537191666666,73.95537066666667,53.0,71.0
244,73.78870441666668,73.99287057291667,58.0,89.0
245,73.78870441666668,74.01509273958334,61.0,89.0
246,73.12203941666667,74.19703672916667,46.0,97.0
247,74.12203691666667,74.31092533333334,53.0,80.0
248,74.45536941666667,74.76647975,56.0,92.0
249,74.45536941666667,74.78453526041667,60.0,97.0
250,74.95536816666667,75.08453451041667,56.0,84.0
251,75.12203441666666,75.27203404166667,60.0,102.0
252,74.78870191666667,75.41508923958334,51.0,78.0
253,74.45536941666667,75.44286694791667,44.0,97.0
254,75.45536691666668,75.5748110625,56.0,84.0
255,75.78869941666667,76.06786538541667,58.0,89.0
256,75.78869941666667,76.13453188541668,54.0,76.0
257,76.45536441666667,76.69841936458334,61.0,78.0
258,75.78869941666667,76.96508536458333,42.0,97.0
259,76.78869691666667,76.99008530208334,54.0,66.0
260,76.12203191666667,76.99286307291668,49.0,44.0
261,77.12202941666668,77.3081400625,53.0,100.0
262,77.12202941666668,77.45397303125,56.0,102.0
263,77.45536191666667,77.60258377083333,53.0,69.0
264,77.62202816666667,77.68175023958334,56.0,41.0
265,77.78869441666667,77.89702747916667,56.0,105.0
266,77.78869441666667,77.91369410416667,53.0,102.0
267,77.78869441666667,78.00536054166668,60.0,105.0
268,77.12202941666668,78.17202679166667,41.0,93.0
269,78.12202691666667,78.36508186458333,53.0,78.0
270,78.45535941666667,78.64424783333334,58.0,92.0
271,78.45535941666667,78.83869179166668,63.0,89.0
272,78.78869191666666,78.94285819791668,58.0,60.0
273,78.45535941666667,79.20396865625,51.0,84.0
274,79.12202441666668,79.23452413541668,58.0,92.0
275,79.12202441666668,79.52757895833334,66.0,94.0
276,79.45535691666667,79.69563409375,58.0,60.0
277,79.62202316666666,79.70257852083334,63.0,71.0
278,79.78868941666667,80.11785526041668,56.0,73.0
279,79.78868941666667,80.13591077083333,60.0,97.0
280,80.12202191666667,80.63313175,51.0,87.0
281,80.45535441666667,80.65257614583334,56.0,89.0
282,80.45535441666667,80.71924264583333,63.0,97.0
283,79.78868941666667,80.87202004166667,44.0,97.0
284,80.78868691666668,81.0247974375,51.0,92.0
285,80.95535316666667,81.07479731250001,56.0,94.0
286,81.12201941666667,81.29701897916667,58.0,94.0
287,81.12201941666667,81.48729628125001,63.0,87.0
288,81.45535191666667,81.58868491666667,58.0,73.0
289,81.78868441666667,81.91923964583334,58.0,89.0
290,81.78868441666667,81.983128375,66.0,94.0
291,82.12201691666667,82.31229421875,58.0,67.0
292,81.12201941666667,82.34840523958334,51.0,87.0
293,82.28868316666667,82.3581274375,63.0,62.0
294,82.45534941666668,82.63034897916667,58.0,82.0
295,82.45534941666668,82.67062665625001,66.0,89.0
296,83.12201441666667,83.23034747916667,58.0,80.0
297,82.78868191666668,83.2664585,51.0,71.0
298,83.12201441666667,83.33173611458334,63.0,82.0
299,83.45534691666667,83.58451326041667,58.0,67.0
300,83.78867941666667,83.99006780208333,60.0,69.0
301,83.78867941666667,84.13034522916666,65.0,76.0
302,84.12201191666666,84.29284482291668,60.0,64.0
303,84.45534441666668,84.59562184375001,60.0,84.0
304,84.45534441666668,84.67062165625,65.0,84.0
305,84.78867691666667,85.02617632291667,60.0,80.0
306,84.95534316666667,85.05395403125,65.0,87.0
307,85.12200941666667,85.32339780208333,60.0,100.0
308,85.12200941666667,85.63589702083334,68.0,73.0
309,85.45534191666667,85.649785875,60.0,71.0
310,83.78867941666667,85.93034072916667,53.0,84.0
311,85.78867441666667,86.03172936458334,65.0,97.0
312,86.12200691666668,86.19700672916667,60.0,89.0
313,86.45533941666667,86.64839448958334,54.0,73.0
314,86.45533941666667,86.79422745833334,58.0,76.0
315,86.78867191666667,86.98311587500001,54.0,51.0
316,87.12200441666667,87.31783726041667,61.0,97.0
317,87.62200316666667,87.67616969791668,58.0,55.0
318,87.45533691666667,87.68033635416667,54.0,87.0
319,87.78866941666666,87.91922464583334,54.0,71.0
320,87.78866941666666,87.96228009375001,58.0,92.0
321,87.78866941666666,88.16505736458333,61.0,89.0
322,88.12200191666668,88.31227921875,54.0,71.0
323,86.45533941666667,88.53588977083334,42.0,84.0
324,88.45533441666667,88.62616732291667,58.0,100.0
325,88.45533441666667,88.83588902083333,61.0,92.0
326,88.78866691666667,88.88727778125,54.0,92.0
327,89.12199941666667,89.47616519791667,56.0,73.0
328,89.12199941666667,89.53588727083334,60.0,87.0
329,89.45533191666667,89.94699735416667,51.0,84.0
330,89.12199941666667,90.04699710416668,44.0,78.0
331,89.78866441666668,90.05949707291667,56.0,108.0
332,90.12199691666667,90.35810743750001,51.0,80.0
333,90.12199691666667,90.36088520833334,44.0,43.0
334,90.45532941666667,90.78449526041668,56.0,92.0
335,90.45532941666667,90.78588414583334,60.0,102.0
336,90.45532941666667,90.81782851041667,63.0,89.0
337,90.95532816666667,91.03310575,56.0,89.0
338,90.78866191666667,91.29421620833334,51.0,64.0
339,90.45532941666667,91.32893834375001,44.0,102.0
340,91.12199441666667,91.76504836458334,56.0,97.0
341,91.12199441666667,91.76504836458334,60.0,100.0
342,91.45532691666668,91.76643725000001,44.0,89.0
343,91.45532691666668,91.78727053125,51.0,82.0
344,91.78865941666668,91.99282557291667,56.0,76.0
345,91.78865941666668,92.06782538541667,61.0,89.0
346,92.12199191666667,92.30810256250001,56.0,76.0
347,92.45532441666667,92.63449063541667,61.0,84.0
348,92.78865691666667,92.88726778125,56.0,87.0
349,92.95532316666667,93.03310075,61.0,87.0
350,93.12198941666666,93.24837798958333,56.0,108.0
351,93.12198941666666,93.3081000625,65.0,100.0
352,93.45532191666668,93.61365485416667,56.0,66.0
353,93.78865441666667,93.88726528125001,56.0,78.0
354,93.78865441666667,93.95670955208334,61.0,97.0
355,91.78865941666668,94.28587539583334,49.0,92.0
356,94.12198691666667,94.30115313541667,56.0,73.0
357,94.45531941666667,94.71920764583334,61.0,87.0
358,94.45531941666667,94.78726303125,58.0,84.0
359,94.78865191666667,95.28865066666667,53.0,71.0
360,95.12198441666668,95.32615057291667,58.0,89.0
361,95.12198441666668,95.34837273958334,61.0,89.0
362,94.45531941666667,95.53031672916667,46.0,97.0
363,95.45531691666667,95.64420533333333,53.0,80.0
364,95.78864941666667,96.09975975,56.0,92.0
365,95.78864941666667,96.11781526041668,60.0,97.0
366,96.28864816666668,96.41781451041668,56.0,84.0
367,96.45531441666667,96.60531404166667,60.0,102.0
368,96.12198191666667,96.74836923958334,51.0,78.0
369,95.78864941666667,96.77614694791667,44.0,97.0
370,96.78864691666668,96.9080910625,56.0,84.0
371,97.12197941666668,97.40114538541667,58.0,89.0
372,97.12197941666668,97.46781188541667,54.0,76.0
373,97.78864441666667,98.03169936458333,61.0,78.0
374,97.12197941666668,98.29836536458333,42.0,97.0
375,98.12197691666667,98.32336530208333,54.0,66.0
376,97.45531191666667,98.32614307291666,49.0,44.0
377,98.45530941666667,98.6414200625,53.0,100.0
378,98.45530941666667,98.78725303125,56.0,102.0
379,98.78864191666668,98.93586377083334,53.0,69.0
380,98.95530816666667,99.01503023958334,56.0,41.0
381,99.12197441666667,99.23030747916667,56.0,105.0
382,99.12197441666667,99.24697410416667,53.0,102.0
383,99.12197441666667,99.33864054166668,60.0,105.0
384,98.45530941666667,99.50530679166667,41.0,93.0
385,99.45530691666667,99.69836186458333,53.0,78.0
386,99.78863941666667,99.97752783333334,58.0,92.0
387,99.78863941666667,100.17197179166668,63.0,89.0
388,100.12197191666667,100.27613819791667,58.0,60.0
389,99.78863941666667,100.53724865625,51.0,84.0
390,100.45530441666668,100.56780413541667,58.0,92.0
391,100.45530441666668,100.86085895833334,66.0,94.0
392,100.78863691666668,101.02891409375,58.0,60.0
393,100.95530316666667,101.03585852083334,63.0,71.0
394,101.12196941666667,101.45113526041668,56.0,73.0
395,101.12196941666667,101.46919077083334,60.0,97.0
396,101.45530191666667,101.96641175,51.0,87.0
397,101.78863441666667,101.98585614583334,56.0,89.0
398,101.78863441666667,102.05252264583333,63.0,97.0
399,101.12196941666667,102.20530004166667,44.0,97.0
400,102.12196691666668,102.3580774375,51.0,92.0
401,102.28863316666667,102.40807731250001,56.0,94.0
402,102.45529941666668,102.63029897916667,58.0,94.0
403,102.45529941666668,102.82057628125,63.0,87.0
404,102.78863191666667,102.92196491666667,58.0,73.0
405,103.12196441666667,103.25251964583335,58.0,89.0
406,103.12196441666667,103.31640837500001,66.0,94.0
407,103.45529691666667,103.64557421875,58.0,67.0
408,102.45529941666668,103.68168523958335,51.0,87.0
409,103.62196316666667,103.6914074375,63.0,62.0
410,103.78862941666667,103.96362897916667,58.0,82.0
411,103.78862941666667,104.00390665625001,66.0,89.0
412,104.45529441666667,104.56362747916667,58.0,80.0
413,104.12196191666668,104.5997385,51.0,71.0
414,104.45529441666667,104.66501611458334,63.0,82.0
415,104.78862691666667,104.91779326041667,58.0,67.0
416,105.12195941666667,105.32334780208333,60.0,69.0
417,105.12195941666667,105.46362522916667,65.0,76.0
418,105.45529191666667,105.62612482291667,60.0,64.0
419,105.78862441666668,105.92890184375001,60.0,84.0
420,105.78862441666668,106.00390165625001,65.0,84.0
421,106.12195691666668,106.35945632291667,60.0,80.0
422,106.28862316666667,106.38723403125,65.0,87.0
423,106.45528941666667,106.65667780208334,60.0,100.0
424,106.45528941666667,106.96917702083334,68.0,73.0
425,106.78862191666667,106.98306587500001,60.0,71.0
426,105.12195941666667,107.26362072916668,53.0,84.0
427,107.12195441666667,107.36500936458334,65.0,97.0
428,107.45528691666667,107.53028672916668,60.0,89.0
429,107.78861941666668,108.00667442708334,54.0,46.0
430,107.78861941666668,108.13584077083334,58.0,76.0
431,108.12195191666667,108.4747288125,54.0,76.0
432,107.78861941666668,108.64139506250001,42.0,89.0
433,108.45528441666667,108.81917239583333,61.0,78.0
434,108.78861691666667,109.0247274375,54.0,102.0
435,108.95528316666667,109.15250489583335,58.0,80.0
436,109.78861441666668,110.18028010416667,56.0,89.0
437,109.12194941666667,110.41500173958335,44.0,105.0
438,109.45528191666668,110.42889059375001,51.0,73.0
439,110.12194691666667,110.43305725,60.0,89.0
440,110.45527941666667,110.93583377083334,61.0,89.0
441,110.78861191666667,111.14833323958334,56.0,91.0
442,111.12194441666668,111.39138818750001,63.0,90.0
443,111.45527691666668,111.63999867708334,56.0,86.0
444,111.78860941666667,111.95944232291667,56.0,92.0
445,112.12194191666667,112.50388540625,56.0,83.0
446,111.78860941666667,112.50944094791667,65.0,89.0
447,112.78860691666667,113.09138393750001,56.0,88.0
448,112.96638425,113.09138393750001,56.0,77.0
449,112.45527441666667,113.11916164583334,63.0,88.0
450,110.45527941666667,113.13999492708334,49.0,88.0
451,113.06360622916667,113.13999492708334,49.0,86.0
452,113.04277294791667,114.96221259375001,61.0,84.0
453,113.09693947916668,115.11360110416668,65.0,88.0
454,115.63026647916668,116.14554296875001,53.0,75.0
455,115.69276632291667,116.47054215625,56.0,77.0
456,115.72471068750001,116.84831898958333,60.0,81.0
457,116.399709,117.54692835416667,53.0,84.0
458,116.03859879166667,117.5580394375,48.0,76.0
459,116.72887484375,117.56220609375,56.0,81.0
460,115.70804406250001,117.59415045833335,41.0,91.0
461,118.38025960416667,118.8580361875,58.0,69.0
462,118.43025947916668,119.13025772916667,61.0,77.0
463,119.09553559375,119.54553446875,58.0,94.0
464,119.40525704166667,119.60386765625,61.0,87.0
465,119.77886721875001,120.50664317708333,65.0,87.0
466,118.74553646875,120.58442076041668,53.0,86.0
467,118.43720390625,120.63164286458334,46.0,89.0
468,120.98719753125,121.51914064583335,54.0,74.0
469,121.04414183333334,121.80525104166668,58.0,79.0
470,121.74414008333333,121.91080633333334,54.0,79.0
471,121.10108613541668,121.92608407291668,61.0,76.0
472,121.09830836458335,122.11358360416668,42.0,88.0
473,121.39830761458335,122.13163911458334,49.0,77.0
474,122.33024972916667,122.62747120833335,56.0,76.0
475,122.39691622916668,122.90802606250001,60.0,80.0
476,122.43997167708334,123.10524779166667,63.0,78.0
477,123.05663680208335,123.19552534375,56.0,92.0
478,122.71774876041667,123.31635837500001,51.0,83.0
479,122.41219396875,123.37885821875001,44.0,89.0
480,123.61913539583334,123.78441276041667,56.0,73.0
481,123.68719078125001,124.00941219791667,61.0,80.0
482,123.76080170833335,124.42052228125,65.0,89.0
483,124.40941119791667,124.78163248958334,61.0,89.0
484,124.07330092708334,124.80107688541668,56.0,92.0
485,124.74274369791668,124.94690985416668,63.0,90.0
486,123.75663505208334,125.04690960416667,49.0,94.0
487,125.38024210416667,126.17190679166667,56.0,75.0
488,125.08024285416667,126.41218396875,65.0,92.0
489,126.42190616666667,127.22329305208333,60.0,84.0
490,127.10940444791667,127.54690335416667,56.0,83.0
491,127.40384815625,128.17190179166667,53.0,84.0
492,127.75940282291667,128.33995692708334,60.0,85.0
493,126.749683125,128.44967887500002,48.0,78.0
494,126.416350625,128.47884546875,41.0,89.0
495,129.09273282291667,129.87745308333334,39.0,89.0
496,129.4246764375,129.88161973958333,46.0,77.0
497,129.08717728125,130.09550809375,66.0,86.0
498,129.73856454166668,130.16911902083334,58.0,91.0
499,130.09967475000002,131.13439438541667,63.0,89.0
500,130.74967312500002,131.42744920833334,51.0,86.0
501,130.41772951041668,131.43856029166668,44.0,89.0
502,131.08578339583335,131.57328217708334,56.0,94.0
503,131.73022622916668,132.27328042708334,61.0,87.0
504,132.07189204166667,132.4246689375,56.0,84.0
505,132.40244677083334,132.88439001041667,63.0,84.0
506,132.73161261458333,133.13994492708335,56.0,83.0
507,133.06494511458334,133.86216534375,65.0,86.0
508,131.749670625,133.93577627083334,49.0,89.0
509,134.45521941666667,135.13993992708333,65.0,89.0
510,135.12188441666666,135.42882809375,61.0,88.0
511,134.45521941666667,135.62882759375,49.0,91.0
512,134.78855191666668,135.90938244791667,56.0,77.0
513,135.78854941666668,136.18993730208334,60.0,77.0
514,135.78854941666668,136.49965875,63.0,84.0
515,136.12188191666667,136.82743570833335,56.0,81.0
516,135.78854941666668,136.86354672916667,48.0,88.0
517,136.45521441666668,136.90660217708333,60.0,88.0
518,137.12187941666667,137.80382215625002,61.0,81.0
519,137.45521191666668,137.92326630208333,53.0,75.0
520,137.78854441666667,138.55382028125,58.0,84.0
521,138.12187691666668,138.61909789583333,53.0,82.0
522,137.12187941666667,139.16215209375,46.0,85.0
523,138.45520941666666,139.16215209375,61.0,86.0
524,138.45520941666666,139.19270757291667,65.0,89.0
525,138.78854191666667,139.19687422916667,53.0,76.0
526,139.12187441666669,139.20381865625,58.0,77.0
527,139.78853941666668,140.17881621875,61.0,80.0
528,139.78853941666668,140.45659330208335,65.0,87.0
529,139.78853941666668,140.9413143125,49.0,88.0
530,140.45520441666667,141.07464731250002,61.0,97.0
531,140.7885369166667,141.17186929166667,65.0,88.0
532,140.12187191666666,141.27742458333333,56.0,78.0
533,141.12186941666667,141.84547871875,63.0,83.0
534,141.45520191666668,142.0177005104167,56.0,73.0
535,141.12186941666667,142.03992267708335,48.0,83.0
536,141.78853441666666,142.11908914583333,60.0,81.0
537,142.4551994166667,142.87742058333333,58.0,76.0
538,142.4551994166667,143.20658642708335,61.0,83.0
539,142.78853191666667,143.20936419791667,53.0,73.0
540,143.12186441666668,143.86491811458333,58.0,89.0
541,143.45519691666667,143.86908477083335,53.0,77.0
542,143.78852941666668,144.41908339583335,65.0,87.0
543,143.78852941666668,144.482972125,61.0,82.0
544,144.1218619166667,144.56213859375,53.0,75.0
545,142.4551994166667,144.66908277083334,46.0,87.0
546,144.45519441666667,144.82047128125,58.0,89.0
547,144.78852691666668,145.04824848958333,56.0,92.0
548,145.12185941666667,145.82602432291668,54.0,81.0
549,145.12185941666667,145.85935757291668,58.0,82.0
550,145.45519191666668,145.91630187500002,49.0,78.0
551,145.12185941666667,145.99824611458334,42.0,89.0
552,145.78852441666666,146.12185691666667,61.0,88.0
553,146.45518941666668,146.85657730208334,56.0,80.0
554,146.45518941666668,147.12879884375002,60.0,82.0
555,146.78852191666667,147.28157623958333,51.0,80.0
556,146.45518941666668,147.36629825,44.0,84.0
557,147.12185441666668,147.6412975625,56.0,89.0
558,147.78851941666667,147.96351897916668,56.0,85.0
559,147.78851941666667,148.50240652083335,65.0,89.0
560,148.12185191666669,148.516295375,56.0,89.0
561,147.78851941666667,148.94823873958333,49.0,89.0
562,148.45518441666667,148.96629425,63.0,90.0
563,148.78851691666668,148.98018310416668,56.0,90.0
564,149.12184941666666,149.83573652083334,61.0,88.0
565,150.12184691666667,150.30934644791668,61.0,90.0
566,149.7885144166667,150.31351310416667,58.0,90.0
567,149.12184941666666,150.33017972916667,46.0,88.0
568,149.45518191666667,150.33156861458335,53.0,81.0
569,150.45517941666668,150.92323380208333,58.0,81.0
570,150.45517941666668,151.349621625,66.0,87.0
571,151.12184441666668,151.5246211875,58.0,91.0
572,151.4551769166667,151.62045428125,61.0,93.0
573,150.78851191666666,151.93017572916668,49.0,76.0
574,151.78850941666667,152.30517479166667,58.0,84.0
575,151.78850941666667,152.48989655208334,66.0,88.0
576,150.45517941666668,152.5412853125,42.0,88.0
577,152.12184191666668,152.57600744791668,49.0,75.0
578,152.45517441666667,152.7912846875,61.0,89.0
579,152.78850691666668,152.97045090625002,58.0,88.0
580,153.1218394166667,153.84683760416667,56.0,89.0
581,154.12183691666667,154.48850266666668,56.0,92.0
582,153.78850441666668,154.53850254166667,63.0,88.0
583,153.45517191666667,154.58155798958333,51.0,82.0
584,154.78850191666666,154.91627937500002,56.0,76.0
585,154.45516941666668,154.91905714583334,68.0,90.0
586,155.12183441666667,155.51211121875002,60.0,78.0
587,154.78850191666666,155.71211071875,51.0,88.0
588,153.1218394166667,155.73155511458333,44.0,88.0
589,155.45516691666668,155.77183279166667,56.0,99.0
590,155.78849941666667,156.19405395833334,56.0,81.0
591,155.78849941666667,156.31072033333334,63.0,83.0
592,157.12182941666669,157.96210509375,68.0,84.0
593,156.45516441666666,158.01488273958333,56.0,93.0
594,156.78849691666667,158.016271625,63.0,88.0
595,156.12183191666668,158.03293825,51.0,79.0
596,155.78849941666667,158.08710478125002,44.0,89.0
597,158.45515941666667,158.65932557291669,56.0,76.0
598,158.45515941666667,158.73432538541667,61.0,89.0
599,158.7884919166667,158.9746025625,56.0,76.0
600,159.12182441666667,159.30099063541667,61.0,84.0
601,159.45515691666668,159.55376778125,56.0,87.0
602,159.62182316666667,159.69960075,61.0,87.0
603,159.78848941666666,159.91487798958335,56.0,108.0
604,159.78848941666666,159.9746000625,65.0,100.0
605,160.12182191666668,160.28015485416668,56.0,66.0
606,160.4551544166667,160.55376528125,56.0,78.0
607,160.4551544166667,160.62320955208335,61.0,97.0
608,158.45515941666667,160.95237539583334,49.0,92.0
609,160.78848691666667,160.96765313541667,56.0,73.0
610,161.12181941666668,161.38570764583335,61.0,87.0
611,161.12181941666668,161.45376303125002,58.0,84.0
612,161.45515191666667,161.95515066666667,53.0,71.0
613,161.78848441666668,161.9926505729167,58.0,89.0
614,161.78848441666668,162.01487273958335,61.0,89.0
615,161.12181941666668,162.19681672916667,46.0,97.0
616,162.1218169166667,162.31070533333335,53.0,80.0
617,162.45514941666667,162.76625975000002,56.0,92.0
618,162.45514941666667,162.78431526041666,60.0,97.0
619,162.95514816666667,163.08431451041668,56.0,84.0
620,163.12181441666667,163.2718140416667,60.0,102.0
621,162.78848191666668,163.41486923958334,51.0,78.0
622,162.45514941666667,163.44264694791667,44.0,97.0
623,163.45514691666668,163.57459106250002,56.0,84.0
624,163.7884794166667,164.06764538541668,58.0,89.0
625,163.7884794166667,164.13431188541668,54.0,76.0
626,164.45514441666668,164.69819936458333,61.0,78.0
627,163.7884794166667,164.96486536458335,42.0,97.0
628,164.78847691666667,164.98986530208333,54.0,66.0
629,164.12181191666667,164.99264307291668,49.0,44.0
630,165.12180941666668,165.30792006250002,53.0,100.0
631,165.12180941666668,165.45375303125002,56.0,102.0
632,165.45514191666666,165.60236377083334,53.0,69.0
633,165.62180816666668,165.68153023958334,56.0,41.0
634,165.78847441666667,165.89680747916668,56.0,105.0
635,165.78847441666667,165.91347410416668,53.0,102.0
636,165.78847441666667,166.00514054166666,60.0,105.0
637,165.12180941666668,166.17180679166668,41.0,93.0
638,166.12180691666669,166.36486186458333,53.0,78.0
639,166.45513941666667,166.64402783333335,58.0,92.0
640,166.45513941666667,166.83847179166668,63.0,89.0
641,166.78847191666668,166.94263819791666,58.0,60.0
642,166.45513941666667,167.20374865625,51.0,84.0
643,167.12180441666666,167.23430413541666,58.0,92.0
644,167.12180441666666,167.52735895833334,66.0,94.0
645,167.45513691666667,167.69541409375,58.0,60.0
646,167.62180316666667,167.70235852083334,63.0,71.0
647,167.7884694166667,168.11763526041668,56.0,73.0
648,167.7884694166667,168.13569077083335,60.0,97.0
649,168.12180191666667,168.63291175,51.0,87.0
650,168.45513441666668,168.65235614583335,56.0,89.0
651,168.45513441666668,168.71902264583335,63.0,97.0
652,167.7884694166667,168.8718000416667,44.0,97.0
653,168.78846691666666,169.0245774375,51.0,92.0
654,168.95513316666668,169.0745773125,56.0,94.0
655,169.12179941666668,169.29679897916668,58.0,94.0
656,169.12179941666668,169.48707628125,63.0,87.0
657,169.4551319166667,169.58846491666668,58.0,73.0
658,169.78846441666667,169.91901964583334,58.0,89.0
659,169.78846441666667,169.98290837500002,66.0,94.0
660,170.12179691666668,170.31207421875,58.0,67.0
661,169.12179941666668,170.34818523958333,51.0,87.0
662,170.28846316666667,170.35790743750002,63.0,62.0
663,170.45512941666667,170.63012897916667,58.0,82.0
664,170.45512941666667,170.67040665625,66.0,89.0
665,171.1217944166667,171.23012747916667,58.0,80.0
666,170.78846191666668,171.26623850000001,51.0,71.0
667,171.1217944166667,171.33151611458334,63.0,82.0
668,171.45512691666667,171.58429326041667,58.0,67.0
669,171.78845941666668,171.98984780208335,60.0,69.0
670,171.78845941666668,172.13012522916668,65.0,76.0
671,172.12179191666667,172.29262482291668,60.0,64.0
672,172.45512441666668,172.59540184375,60.0,84.0
673,172.45512441666668,172.67040165625002,65.0,84.0
674,172.7884569166667,173.02595632291667,60.0,80.0
675,172.95512316666668,173.05373403125,65.0,87.0
676,173.12178941666667,173.32317780208334,60.0,100.0
677,173.12178941666667,173.63567702083336,68.0,73.0
678,173.45512191666668,173.649565875,60.0,71.0
679,171.78845941666668,173.93012072916667,53.0,84.0
680,173.78845441666667,174.03150936458334,65.0,97.0
681,174.12178691666668,174.1967867291667,60.0,89.0
682,174.45511941666666,174.64817448958334,54.0,73.0
683,174.45511941666666,174.79400745833334,58.0,76.0
684,174.78845191666667,174.982895875,54.0,51.0
685,175.12178441666669,175.31761726041668,61.0,97.0
686,175.6217831666667,175.67594969791668,58.0,55.0
687,175.45511691666667,175.68011635416667,54.0,87.0
688,175.78844941666668,175.91900464583335,54.0,71.0
689,175.78844941666668,175.96206009375,58.0,92.0
690,175.78844941666668,176.16483736458335,61.0,89.0
691,176.12178191666666,176.31205921875002,54.0,71.0
692,174.45511941666666,176.53566977083335,42.0,84.0
693,176.45511441666667,176.6259473229167,58.0,100.0
694,176.45511441666667,176.83566902083334,61.0,92.0
695,176.7884469166667,176.88705778125,54.0,92.0
696,177.12177941666667,177.47594519791667,56.0,73.0
697,177.12177941666667,177.53566727083333,60.0,87.0
698,177.45511191666668,177.94677735416667,51.0,84.0
699,177.12177941666667,178.04677710416667,44.0,78.0
700,177.78844441666666,178.05927707291667,56.0,108.0
701,178.12177691666668,178.3578874375,51.0,80.0
702,178.12177691666668,178.36066520833333,44.0,43.0
703,178.4551094166667,178.78427526041668,56.0,92.0
704,178.4551094166667,178.78566414583335,60.0,102.0
705,178.4551094166667,178.81760851041668,63.0,89.0
706,178.9551081666667,179.03288575000002,56.0,89.0
707,178.78844191666667,179.29399620833334,51.0,64.0
708,178.4551094166667,179.32871834375,44.0,102.0
709,179.12177441666668,179.76482836458334,56.0,97.0
710,179.12177441666668,179.76482836458334,60.0,100.0
711,179.45510691666667,179.76621725,44.0,89.0
712,179.45510691666667,179.78705053125,51.0,82.0
713,179.78843941666668,179.9926055729167,56.0,76.0
714,179.78843941666668,180.06760538541667,61.0,89.0
715,180.1217719166667,180.3078825625,56.0,76.0
716,180.45510441666667,180.63427063541667,61.0,84.0
717,180.78843691666668,180.88704778125,56.0,87.0
718,180.95510316666667,181.03288075,61.0,87.0
719,181.12176941666667,181.24815798958335,56.0,108.0
720,181.12176941666667,181.3078800625,65.0,100.0
721,181.45510191666668,181.61343485416668,56.0,66.0
722,181.7884344166667,181.88704528125,56.0,78.0
723,181.7884344166667,181.95648955208335,61.0,97.0
724,179.78843941666668,182.28565539583334,49.0,92.0
725,182.12176691666667,182.30093313541667,56.0,73.0
726,182.45509941666668,182.71898764583335,61.0,87.0
727,182.45509941666668,182.78704303125002,58.0,84.0
728,182.78843191666667,183.28843066666667,53.0,71.0
729,183.12176441666668,183.3259305729167,58.0,89.0
730,183.12176441666668,183.34815273958336,61.0,89.0
731,182.45509941666668,183.53009672916667,46.0,97.0
732,183.4550969166667,183.64398533333335,53.0,80.0
733,183.78842941666667,184.09953975000002,56.0,92.0
734,183.78842941666667,184.11759526041666,60.0,97.0
735,184.28842816666668,184.41759451041668,56.0,84.0
736,184.45509441666667,184.6050940416667,60.0,102.0
737,184.12176191666669,184.74814923958334,51.0,78.0
738,183.78842941666667,184.77592694791667,44.0,97.0
739,184.78842691666668,184.90787106250002,56.0,84.0
740,185.12175941666666,185.40092538541668,58.0,89.0
741,185.12175941666666,185.46759188541668,54.0,76.0
742,185.7884244166667,186.03147936458333,61.0,78.0
743,185.12175941666666,186.29814536458335,42.0,97.0
744,186.12175691666667,186.32314530208333,54.0,66.0
745,185.45509191666667,186.32592307291668,49.0,44.0
746,186.45508941666668,186.64120006250002,53.0,100.0
747,186.45508941666668,186.78703303125002,56.0,102.0
748,186.78842191666666,186.93564377083334,53.0,69.0
749,186.95508816666668,187.01481023958334,56.0,41.0
750,187.12175441666668,187.23008747916668,56.0,105.0
751,187.12175441666668,187.24675410416668,53.0,102.0
752,187.12175441666668,187.33842054166666,60.0,105.0
753,186.45508941666668,187.50508679166668,41.0,93.0
754,187.4550869166667,187.69814186458333,53.0,78.0
755,187.78841941666667,187.97730783333336,58.0,92.0
756,187.78841941666667,188.17175179166668,63.0,89.0
757,188.12175191666668,188.27591819791667,58.0,60.0
758,187.78841941666667,188.53702865625002,51.0,84.0
759,188.45508441666666,188.56758413541667,58.0,92.0
760,188.45508441666666,188.86063895833334,66.0,94.0
761,188.78841691666668,189.02869409375,58.0,60.0
762,188.95508316666667,189.03563852083334,63.0,71.0
763,189.1217494166667,189.45091526041668,56.0,73.0
764,189.1217494166667,189.46897077083335,60.0,97.0
765,189.45508191666667,189.96619175,51.0,87.0
766,189.78841441666668,189.98563614583335,56.0,89.0
767,189.78841441666668,190.05230264583335,63.0,97.0
768,189.1217494166667,190.2050800416667,44.0,97.0
769,190.12174691666667,190.3578574375,51.0,92.0
770,190.2884131666667,190.4078573125,56.0,94.0
771,190.45507941666668,190.63007897916668,58.0,94.0
772,190.45507941666668,190.82035628125,63.0,87.0
773,190.7884119166667,190.92174491666668,58.0,73.0
774,191.12174441666667,191.25229964583335,58.0,89.0
775,191.12174441666667,191.31618837500002,66.0,94.0
776,191.45507691666668,191.64535421875001,58.0,67.0
777,190.45507941666668,191.68146523958333,51.0,87.0
778,191.62174316666668,191.69118743750002,63.0,62.0
779,191.78840941666667,191.96340897916667,58.0,82.0
780,191.78840941666667,192.00368665625,66.0,89.0
781,192.4550744166667,192.56340747916667,58.0,80.0
782,192.12174191666668,192.59951850000002,51.0,71.0
783,192.4550744166667,192.66479611458334,63.0,82.0
784,192.78840691666667,192.91757326041667,58.0,67.0
785,193.12173941666668,193.32312780208335,60.0,69.0
786,193.12173941666668,193.46340522916668,65.0,76.0
787,193.45507191666667,193.62590482291668,60.0,64.0
788,193.78840441666668,193.92868184375,60.0,84.0
789,193.78840441666668,194.00368165625002,65.0,84.0
790,194.12173691666666,194.35923632291667,60.0,80.0
791,194.28840316666668,194.38701403125,65.0,87.0
792,194.45506941666667,194.65645780208334,60.0,100.0
793,194.45506941666667,194.96895702083336,68.0,73.0
794,194.7884019166667,194.982845875,60.0,71.0
795,193.12173941666668,195.26340072916668,53.0,84.0
796,195.12173441666667,195.36478936458334,65.0,97.0
797,195.45506691666668,195.5300667291667,60.0,89.0
798,195.78839941666666,196.00645442708336,54.0,46.0
799,195.78839941666666,196.13562077083336,58.0,76.0
800,196.12173191666668,196.4745088125,54.0,76.0
801,195.78839941666666,196.6411750625,42.0,89.0
802,196.4550644166667,196.81895239583335,61.0,78.0
803,196.78839691666667,197.0245074375,54.0,102.0
804,196.9550631666667,197.15228489583333,58.0,80.0
805,197.78839441666668,198.18006010416667,56.0,89.0
806,197.12172941666668,198.41478173958333,44.0,105.0
807,197.45506191666666,198.42867059375,51.0,73.0
808,198.1217269166667,198.43283725,60.0,89.0
809,198.45505941666667,198.93561377083336,61.0,89.0
810,198.78839191666668,199.14811323958335,56.0,91.0
811,199.12172441666667,199.3911681875,63.0,90.0
812,199.45505691666668,199.63977867708334,56.0,86.0
813,199.7883894166667,199.95922232291667,56.0,92.0
814,200.12172191666667,200.50366540625,56.0,83.0
815,199.7883894166667,200.50922094791667,65.0,89.0
816,200.78838691666667,201.0911639375,56.0,88.0
817,200.45505441666668,201.11894164583333,63.0,88.0
818,198.45505941666667,201.13977492708335,49.0,88.0
819,201.12171941666668,201.13977492708335,49.0,93.0
820,201.12171941666668,201.32033003125002,56.0,89.0
821,201.12171941666668,201.49532959375,61.0,89.0
822,201.4550519166667,201.82588432291666,56.0,86.0
823,201.78838441666667,202.02310605208334,61.0,81.0
824,202.12171691666668,202.21893889583333,56.0,74.0
825,202.45504941666667,202.83560402083336,56.0,90.0
826,202.45504941666667,202.99115918750002,65.0,90.0
827,203.1217144166667,203.41754701041668,56.0,97.0
828,202.78838191666668,203.55782443750002,49.0,87.0
829,203.45504691666667,203.68282412500002,61.0,88.0
830,203.7883794166667,204.20087838541667,58.0,80.0
831,203.7883794166667,204.21476723958335,61.0,85.0
832,204.12171191666667,204.6133773541667,53.0,79.0
833,203.7883794166667,204.67726608333334,46.0,89.0
834,204.78837691666666,204.99948750000001,61.0,86.0
835,204.45504441666668,205.0078208125,58.0,93.0
836,205.12170941666668,205.52309730208336,56.0,88.0
837,205.12170941666668,205.81892989583335,60.0,88.0
838,205.12170941666668,205.92309630208334,44.0,88.0
839,205.4550419166667,205.9383740416667,51.0,82.0
840,205.78837441666667,205.94948512500002,56.0,94.0
841,206.45503941666666,206.82309405208335,54.0,83.0
842,206.45503941666666,207.12031553125001,58.0,80.0
843,206.78837191666668,207.49392570833334,49.0,80.0
844,207.1217044166667,207.52031453125002,54.0,91.0
845,206.45503941666666,207.5328145,42.0,89.0
846,207.45503691666667,207.57864771875,58.0,94.0
847,207.78836941666668,208.24531271875,56.0,85.0
848,207.78836941666668,208.29947925000002,65.0,88.0
849,207.78836941666668,208.57031190625,41.0,90.0
850,208.12170191666667,208.582811875,48.0,80.0
851,208.45503441666668,208.60781181250002,56.0,90.0
852,208.45503441666668,208.62864509375,60.0,90.0
853,209.12169941666667,209.27308792708334,58.0,86.0
854,209.12169941666667,209.51197621875002,63.0,89.0
855,209.45503191666668,209.64253144791667,58.0,88.0
856,209.12169941666667,209.97864171875,51.0,93.0
857,209.78836441666667,210.11058583333335,58.0,87.0
858,209.78836441666667,210.11058583333335,63.0,92.0
859,210.12169691666668,210.27586319791666,61.0,91.0
860,210.4550294166667,210.816139625,56.0,85.0
861,210.4550294166667,210.85225064583335,63.0,88.0
862,211.12169441666668,211.282805125,56.0,89.0
863,210.78836191666667,211.28974955208335,51.0,90.0
864,210.4550294166667,211.33141611458333,44.0,89.0
865,211.12169441666668,211.44391583333334,60.0,91.0
866,211.45502691666667,211.68280412500002,56.0,95.0
867,211.78835941666668,212.19669172916667,58.0,85.0
868,211.78835941666668,212.41752451041668,63.0,85.0
869,212.45502441666667,212.8508567604167,58.0,93.0
870,212.7883569166667,212.94530096875002,63.0,90.0
871,212.1216919166667,213.19530034375,46.0,77.0
872,211.78835941666668,213.3050222916667,39.0,91.0
873,213.12168941666667,213.57307717708335,66.0,89.0
874,213.12168941666667,213.61196596875,58.0,90.0
875,213.45502191666668,213.68418801041668,46.0,82.0
876,213.78835441666666,214.21335335416668,63.0,95.0
877,214.12168691666668,214.25085326041668,58.0,72.0
878,214.4550194166667,214.89807386458335,60.0,88.0
879,214.4550194166667,214.9911291875,65.0,90.0
880,215.45501691666666,215.78696053125,65.0,93.0
881,215.12168441666668,215.88140473958333,60.0,77.0
882,215.78834941666668,216.16334847916667,68.0,88.0
883,214.78835191666667,216.24945937500001,48.0,75.0
884,216.1216819166667,216.266126,65.0,104.0
885,214.4550194166667,216.31334810416666,41.0,91.0
886,216.45501441666667,216.77168029166668,60.0,88.0
887,216.78834691666668,216.86056895833335,65.0,91.0
888,217.12167941666667,217.53556727083335,54.0,79.0
889,217.12167941666667,217.6091781979167,58.0,80.0
890,217.7883444166667,218.29806536458335,54.0,90.0
891,218.12167691666667,218.34389858333336,61.0,88.0
892,217.45501191666668,218.50500929166668,49.0,78.0
893,217.12167941666667,218.58417576041668,42.0,89.0
894,218.45500941666668,218.84806398958335,61.0,88.0
895,218.45500941666668,218.85639730208334,66.0,88.0
896,218.45500941666668,218.94667485416667,54.0,90.0
897,218.78834191666667,218.9744525625,49.0,88.0
898,219.12167441666668,219.44806248958335,58.0,76.0
899,219.4550069166667,219.61889539583333,54.0,89.0
900,219.78833941666667,220.38556014583335,56.0,78.0
901,219.78833941666667,220.40639342708334,60.0,80.0
902,220.45500441666667,220.79250357291667,63.0,88.0
903,220.78833691666668,220.95361428125003,56.0,90.0
904,220.12167191666668,221.19666922916667,51.0,78.0
905,219.78833941666667,221.3077800625,44.0,90.0
906,221.1216694166667,221.32861334375002,56.0,93.0
907,221.1216694166667,221.40361315625,68.0,88.0
908,221.7883344166667,221.9244451875,56.0,83.0
909,221.45500191666667,222.38833291666668,51.0,87.0
910,221.7883344166667,222.43555502083333,63.0,84.0
911,222.12166691666667,222.43833279166668,56.0,87.0
912,222.45499941666668,222.6591655729167,56.0,76.0
913,222.45499941666668,222.73416538541667,61.0,89.0
914,222.7883319166667,222.9744425625,56.0,76.0
915,223.12166441666668,223.30083063541667,61.0,84.0
916,223.4549969166667,223.55360778125,56.0,87.0
917,223.62166316666668,223.69944075,61.0,87.0
918,223.78832941666667,223.91471798958335,56.0,108.0
919,223.78832941666667,223.9744400625,65.0,100.0
920,224.12166191666668,224.2799948541667,56.0,66.0
921,224.45499441666666,224.55360528125001,56.0,78.0
922,224.45499441666666,224.62304955208336,61.0,97.0
923,222.45499941666668,224.95221539583335,49.0,92.0
924,224.78832691666668,224.96749313541667,56.0,73.0
925,225.1216594166667,225.38554764583336,61.0,87.0
926,225.1216594166667,225.45360303125003,58.0,84.0
927,225.45499191666667,225.95499066666667,53.0,71.0
928,225.78832441666668,225.99249057291667,58.0,89.0
929,225.78832441666668,226.01471273958336,61.0,89.0
930,225.1216594166667,226.19665672916668,46.0,97.0
931,226.12165691666667,226.31054533333335,53.0,80.0
932,226.45498941666668,226.76609975000002,56.0,92.0
933,226.45498941666668,226.78415526041667,60.0,97.0
934,226.95498816666668,227.08415451041668,56.0,84.0
935,227.12165441666667,227.27165404166666,60.0,102.0
936,226.7883219166667,227.41470923958335,51.0,78.0
937,226.45498941666668,227.44248694791668,44.0,97.0
938,227.45498691666668,227.57443106250003,56.0,84.0
939,227.78831941666667,228.0674853854167,58.0,89.0
940,227.78831941666667,228.13415188541668,54.0,76.0
941,228.4549844166667,228.69803936458334,61.0,78.0
942,227.78831941666667,228.96470536458335,42.0,97.0
943,228.78831691666667,228.98970530208334,54.0,66.0
944,228.12165191666668,228.99248307291668,49.0,44.0
945,229.12164941666668,229.30776006250002,53.0,100.0
946,229.12164941666668,229.45359303125002,56.0,102.0
947,229.45498191666667,229.60220377083334,53.0,69.0
948,229.6216481666667,229.68137023958334,56.0,41.0
949,229.78831441666668,229.8966474791667,56.0,105.0
950,229.78831441666668,229.9133141041667,53.0,102.0
951,229.78831441666668,230.00498054166667,60.0,105.0
952,229.12164941666668,230.1716467916667,41.0,93.0
953,230.1216469166667,230.36470186458334,53.0,78.0
954,230.45497941666667,230.64386783333333,58.0,92.0
955,230.45497941666667,230.83831179166668,63.0,89.0
956,230.7883119166667,230.94247819791667,58.0,60.0
957,230.45497941666667,231.20358865625002,51.0,84.0
958,231.12164441666667,231.23414413541667,58.0,92.0
959,231.12164441666667,231.52719895833334,66.0,94.0
960,231.45497691666668,231.69525409375,58.0,60.0
961,231.62164316666667,231.70219852083335,63.0,71.0
962,231.7883094166667,232.11747526041668,56.0,73.0
963,231.7883094166667,232.13553077083336,60.0,97.0
964,232.12164191666668,232.63275175,51.0,87.0
965,232.4549744166667,232.65219614583336,56.0,89.0
966,232.4549744166667,232.71886264583335,63.0,97.0
967,231.7883094166667,232.87164004166667,44.0,97.0
968,232.78830691666667,233.0244174375,51.0,92.0
969,232.9549731666667,233.0744173125,56.0,94.0
970,233.12163941666668,233.2966389791667,58.0,94.0
971,233.12163941666668,233.48691628125002,63.0,87.0
972,233.4549719166667,233.5883049166667,58.0,73.0
973,233.78830441666668,233.91885964583335,58.0,89.0
974,233.78830441666668,233.982748375,66.0,94.0
975,234.1216369166667,234.31191421875002,58.0,67.0
976,233.12163941666668,234.34802523958334,51.0,87.0
977,234.28830316666668,234.35774743750002,63.0,62.0
978,234.45496941666667,234.62996897916668,58.0,82.0
979,234.45496941666667,234.67024665625001,66.0,89.0
980,235.12163441666667,235.22996747916667,58.0,80.0
981,234.78830191666668,235.26607850000002,51.0,71.0
982,235.12163441666667,235.33135611458334,63.0,82.0
983,235.45496691666668,235.58413326041668,58.0,67.0
984,235.7882994166667,235.98968780208335,60.0,69.0
985,235.7882994166667,236.1299652291667,65.0,76.0
986,236.12163191666667,236.29246482291668,60.0,64.0
987,236.45496441666668,236.59524184375002,60.0,84.0
988,236.45496441666668,236.67024165625,65.0,84.0
989,236.78829691666667,237.02579632291668,60.0,80.0
990,236.9549631666667,237.05357403125,65.0,87.0
991,237.12162941666668,237.32301780208334,60.0,100.0
992,237.12162941666668,237.63551702083333,68.0,73.0
993,237.4549619166667,237.649405875,60.0,71.0
994,235.7882994166667,237.92996072916668,53.0,84.0
995,237.78829441666667,238.03134936458335,65.0,97.0
996,238.12162691666668,238.19662672916667,60.0,89.0
997,238.45495941666667,238.67301442708336,54.0,46.0
998,238.45495941666667,238.80218077083336,58.0,76.0
999,238.78829191666668,239.1410688125,54.0,76.0
1000,238.45495941666667,239.3077350625,42.0,89.0
1001,239.1216244166667,239.48551239583335,61.0,78.0
1002,239.45495691666667,239.6910674375,54.0,102.0
1003,239.62162316666667,239.81884489583334,58.0,80.0
1004,240.45495441666668,240.84662010416667,56.0,89.0
1005,239.7882894166667,241.08134173958334,44.0,105.0
1006,240.12162191666667,241.09523059375002,51.0,73.0
1007,240.7882869166667,241.09939725,60.0,89.0
1008,241.12161941666668,241.60217377083336,61.0,89.0
1009,241.4549519166667,241.81467323958336,56.0,91.0
1010,241.78828441666667,242.0577281875,63.0,90.0
1011,242.12161691666668,242.30633867708335,56.0,86.0
1012,242.4549494166667,242.62578232291668,56.0,92.0
1013,242.78828191666668,243.17022540625,56.0,83.0
1014,242.4549494166667,243.17578094791668,65.0,89.0
1015,243.45494691666667,243.7577239375,56.0,88.0
1016,243.1216144166667,243.78550164583334,63.0,88.0
1017,241.12161941666668,243.80633492708336,49.0,88.0
1018,243.78827941666668,244.47022215625,58.0,81.0
1019,244.12161191666667,244.73966592708334,49.0,83.0
1020,243.78827941666668,244.7577214375,42.0,89.0
1021,244.45494441666668,244.79383245833336,61.0,93.0
1022,243.78827941666668,244.80355465625001,66.0,86.0
1023,244.7882769166667,244.97022090625,58.0,91.0
1024,245.12160941666667,245.53827504166668,56.0,88.0
1025,245.12160941666667,245.80632992708334,60.0,86.0
1026,245.45494191666668,246.01327385416667,51.0,79.0
1027,245.12160941666667,246.06882927083333,44.0,89.0
1028,245.78827441666667,246.18827341666668,56.0,90.0
1029,246.4549394166667,246.93549377083335,61.0,89.0
1030,246.78827191666667,247.14799323958334,56.0,91.0
1031,247.12160441666668,247.39104818750002,63.0,90.0
1032,247.45493691666667,247.63965867708333,56.0,86.0
1033,247.78826941666668,247.9591023229167,56.0,92.0
1034,248.1216019166667,248.50354540625003,56.0,83.0
1035,247.78826941666668,248.5091009479167,65.0,89.0
1036,248.7882669166667,249.09104393750002,56.0,88.0
1037,249.02298855208335,249.09104393750002,56.0,76.0
1038,248.45493441666667,249.11882164583335,63.0,88.0
1039,246.4549394166667,249.13965492708334,49.0,88.0
1040,249.09937725,250.51881814583334,37.0,88.0
1041,249.16187709375,250.5243736875,65.0,87.0
1042,249.07993285416669,250.52854034375002,61.0,79.0
