,start,end,pitch,velocity
0,0.8057424375000001,1.3479716250000002,56.0,60.0
1,2.0219574375000002,2.6587811250000004,65.0,66.0
2,1.2111474375000002,2.7010108125000003,61.0,97.0
3,1.6165524375000002,2.8530376875,56.0,43.0
4,0.40033743750000006,3.0337807500000005,49.0,100.0
5,2.8327674375000003,3.20945625,65.0,100.0
6,2.8327674375000003,3.2871588750000003,68.0,94.0
7,3.2381724375000003,3.3969560625,61.0,67.0
8,3.6435774375000003,4.1706039375,58.0,82.0
9,3.6435774375000003,4.523644125000001,54.0,67.0
10,4.4543874375,4.80404925,58.0,105.0
11,3.6435774375000003,4.810806,42.0,84.0
12,4.0489824375,4.8243195000000005,49.0,66.0
13,4.8597924375,4.983103125,54.0,19.0
14,4.4543874375,5.016886875000001,61.0,89.0
15,5.2651974375,5.756751,56.0,60.0
16,5.2651974375,6.14188575,60.0,66.0
17,5.6706024375,6.221277562500001,51.0,40.0
18,5.2651974375,6.6773581875,44.0,89.0
19,6.4814124375,6.687493312500001,60.0,108.0
20,6.0760074375,6.74999325,56.0,84.0
21,6.8868174375,7.407087187500001,56.0,80.0
22,6.8868174375,7.7719516875000005,61.0,87.0
23,7.6976274375000004,8.346275437500001,56.0,97.0
24,8.103032437500001,8.405397,63.0,62.0
25,8.508437437500001,9.104720625,65.0,100.0
26,8.913842437500001,9.1165449375,56.0,73.0
27,9.319247437500001,9.483098625,56.0,80.0
28,7.2922224375,9.6807335625,53.0,45.0
29,9.319247437500001,9.692557875,61.0,108.0
30,6.8868174375,9.7178956875,49.0,89.0
31,9.724652437500001,9.8631658125,56.0,92.0
32,10.130057437500001,10.621611000000001,58.0,92.0
33,10.130057437500001,10.9982998125,54.0,82.0
34,10.130057437500001,11.2550563125,42.0,92.0
35,10.535462437500001,11.280394125,49.0,62.0
36,10.940867437500001,11.415529125,58.0,92.0
37,11.346272437500001,11.5219479375,54.0,82.0
38,10.940867437500001,11.564177625000001,61.0,89.0
39,11.751677437500001,12.251676937500001,60.0,92.0
40,11.751677437500001,12.5320820625,56.0,80.0
41,12.157082437500002,12.981405937500002,51.0,67.0
42,12.562487437500002,12.981405937500002,60.0,105.0
43,11.751677437500001,13.069243687500002,44.0,97.0
44,12.562487437500002,13.224648937500001,63.0,94.0
45,12.967892437500002,13.461135187500002,56.0,92.0
46,13.373297437500002,14.319242437500002,61.0,97.0
47,13.778702437500002,14.364850500000001,53.0,38.0
48,14.589512437500002,15.116538937500001,53.0,26.0
49,14.184107437500002,15.1368091875,56.0,105.0
50,14.994917437500002,15.8969435625,65.0,97.0
51,15.400322437500002,16.1368081875,53.0,40.0
52,13.373297437500002,16.1841054375,49.0,97.0
53,15.805727437500002,16.244916187500003,61.0,97.0
54,16.2111324375,16.3969430625,56.0,102.0
55,16.6165374375,17.1216045,54.0,78.0
56,16.6165374375,17.469577125,58.0,89.0
57,16.6165374375,17.7719416875,42.0,89.0
58,17.0219424375,17.812482187500002,49.0,44.0
59,17.4273474375,17.902009125000003,54.0,97.0
60,17.8327524375,18.162144,58.0,78.0
61,18.2381574375,18.7888325625,60.0,89.0
62,18.2381574375,18.8243055,56.0,87.0
63,19.0489674375,19.261805062500002,60.0,92.0
64,19.0489674375,19.331061750000003,56.0,82.0
65,18.2381574375,19.386804937500003,44.0,102.0
66,18.6435624375,19.388494125,51.0,58.0
67,19.8597774375,20.7753170625,61.0,89.0
68,19.8597774375,21.027006000000004,65.0,89.0
69,20.670587437500004,21.5557216875,56.0,89.0
70,21.075992437500002,21.579370312500004,61.0,76.0
71,21.886802437500002,22.168896750000002,56.0,34.0
72,21.481397437500004,22.2753155625,65.0,94.0
73,22.292207437500004,22.456058625,56.0,87.0
74,20.265182437500002,22.7111259375,53.0,57.0
75,19.8597774375,22.7685583125,49.0,89.0
76,22.292207437500004,22.773625875,61.0,100.0
77,22.697612437500002,22.939166250000003,56.0,78.0
78,23.103017437500004,23.508422437500002,61.0,78.0
79,23.103017437500004,23.749976250000003,58.0,80.0
80,23.508422437500002,23.989840875000002,54.0,100.0
81,23.103017437500004,24.405381000000002,42.0,82.0
82,23.913827437500004,24.483083625000003,61.0,92.0
83,24.319232437500002,24.5050430625,54.0,80.0
84,24.724637437500004,25.559096062500004,56.0,76.0
85,24.724637437500004,25.5895014375,60.0,87.0
86,24.724637437500004,26.266865625,44.0,76.0
87,25.940852437500002,26.273622375000002,56.0,94.0
88,25.535447437500004,26.288825062500003,63.0,92.0
89,25.130042437500002,26.300649375000003,51.0,80.0
90,26.341189875,27.194229562500002,68.0,87.0
91,26.253352125000003,27.200986312500003,65.0,78.0
92,26.182406250000003,27.275310562500003,61.0,67.0
93,26.760108375,27.521931937500003,56.0,49.0
94,26.29051425,27.562472437500002,49.0,102.0
95,27.949296375000003,28.386795937500004,65.0,84.0
96,27.8766613125,28.427336437500003,61.0,80.0
97,27.8023370625,28.454363437500003,58.0,62.0
98,28.787133375000003,28.978011562500004,65.0,82.0
99,28.790511750000004,28.9813899375,61.0,62.0
100,28.320917625000003,29.042200687500003,53.0,37.0
101,28.790511750000004,29.054025000000003,58.0,71.0
102,27.937472062500003,29.140173562500003,46.0,92.0
103,29.476321875000004,30.081051000000002,54.0,40.0
104,29.604700125000004,30.408753375000003,61.0,73.0
105,29.535443437500003,30.422266875000002,58.0,87.0
106,29.972943000000004,30.829361062500002,49.0,40.0
107,30.395239875,30.856388062500002,54.0,82.0
108,29.5962541875,30.891861000000002,42.0,92.0
109,30.783753000000004,31.052333812500002,58.0,87.0
110,31.18240125,31.62159,60.0,71.0
111,31.175644500000004,31.800643875000002,56.0,78.0
112,31.971251812500004,32.2111164375,60.0,87.0
113,31.974630187500004,32.24996775,63.0,78.0
114,31.974630187500004,32.260102875,56.0,82.0
115,31.5590900625,32.287129875000005,51.0,66.0
116,31.179022875,32.34456225,44.0,92.0
117,32.6908456875,33.648615,56.0,57.0
118,32.8226023125,34.1232766875,65.0,82.0
119,32.783751,34.160438812500004,49.0,89.0
120,32.756724000000006,34.175641500000005,61.0,82.0
121,34.0286821875,34.207736062500004,56.0,92.0
122,34.374965625,34.959424500000004,58.0,87.0
123,34.513479000000004,35.273613375000004,65.0,94.0
124,34.456046625000006,35.278680937500006,61.0,84.0
125,34.793884125000005,35.358072750000005,53.0,69.0
126,35.249964750000004,35.408748375,58.0,105.0
127,34.418884500000004,35.429018625000005,46.0,92.0
128,35.92563975,36.596247187500005,54.0,69.0
129,36.016855875000005,36.929017125,58.0,84.0
130,36.087801750000004,36.95266575,61.0,92.0
131,36.8597604375,37.378341000000006,54.0,82.0
132,36.084423375,37.4611111875,42.0,89.0
133,36.432396000000004,37.511786812500006,49.0,49.0
134,37.270233000000005,37.526989500000006,58.0,102.0
135,37.677327187500005,38.314150875,60.0,108.0
136,37.653678562500005,38.324286,56.0,66.0
137,38.476312875000005,38.74827206250001,60.0,102.0
138,38.4729345,38.751650437500004,63.0,84.0
139,38.4813804375,38.797258500000005,56.0,87.0
140,38.062461937500004,38.9036773125,51.0,62.0
141,37.6891515,38.9881366875,44.0,97.0
142,39.3192174375,39.831041250000006,61.0,76.0
143,39.3192174375,40.168878750000005,65.0,92.0
144,39.7246224375,40.28374350000001,56.0,71.0
145,40.130027437500004,40.73813493750001,61.0,111.0
146,40.535432437500006,41.101310250000004,56.0,44.0
147,40.9408374375,41.273607375000005,65.0,71.0
148,40.9408374375,41.312458687500005,68.0,80.0
149,41.751647437500004,41.907052687500006,61.0,92.0
150,41.751647437500004,41.971241812500004,65.0,102.0
151,41.3462424375,42.055701187500006,56.0,41.0
152,41.751647437500004,42.0928633125,68.0,94.0
153,39.3192174375,42.16887675,49.0,100.0
154,42.5624574375,43.074281250000006,58.0,76.0
155,42.5624574375,43.4070511875,61.0,76.0
156,42.9678624375,43.4712403125,53.0,53.0
157,43.373267437500004,44.22292875,58.0,111.0
158,43.778672437500006,44.280361125000006,53.0,44.0
159,44.1840774375,44.359752937500005,61.0,57.0
160,44.1840774375,44.408739375,65.0,87.0
161,44.994887437500005,45.189144000000006,58.0,97.0
162,44.994887437500005,45.197589937500005,61.0,94.0
163,44.994887437500005,45.395224875000004,65.0,89.0
164,44.5894824375,45.422251875,53.0,34.0
165,42.5624574375,45.481373437500004,46.0,94.0
166,45.400292437500006,45.594549,56.0,82.0
167,45.8056974375,46.356372562500006,58.0,94.0
168,45.8056974375,46.6908316875,54.0,87.0
169,47.021912437500006,47.49150656250001,54.0,44.0
170,46.616507437500005,47.891844000000006,58.0,105.0
171,46.616507437500005,47.89860075000001,61.0,94.0
172,47.4273174375,47.91211425,66.0,84.0
173,47.8327224375,48.3259651875,54.0,100.0
174,46.2111024375,48.44758668750001,49.0,48.0
175,45.8056974375,48.4999515,42.0,94.0
176,48.238127437500005,48.6638026875,58.0,111.0
177,48.643532437500006,48.802316062500005,54.0,108.0
178,48.238127437500005,48.895221375000006,61.0,100.0
179,49.0489374375,49.949274375,56.0,92.0
180,50.26515243750001,50.76515193750001,56.0,64.0
181,49.0489374375,51.128327250000005,60.0,92.0
182,49.859747437500005,51.162111,63.0,94.0
183,50.6705574375,51.2415028125,68.0,94.0
184,51.0759624375,51.5540025,56.0,73.0
185,49.0489374375,51.614813250000005,44.0,94.0
186,49.4543424375,51.621570000000006,51.0,46.0
187,51.481367437500005,51.85467787500001,60.0,111.0
188,51.481367437500005,51.9779885625,63.0,97.0
189,51.88677243750001,51.999948,56.0,102.0
190,51.481367437500005,52.11312356250001,68.0,94.0
191,52.2921774375,52.773595875000005,65.0,100.0
192,52.2921774375,52.89690656250001,61.0,92.0
193,53.102987437500005,53.234744062500006,61.0,102.0
194,52.6975824375,53.24825756250001,56.0,66.0
195,52.2921774375,53.300622375,49.0,97.0
196,53.102987437500005,53.4746086875,65.0,111.0
197,53.102987437500005,53.5455545625,68.0,100.0
198,53.50839243750001,53.66379768750001,61.0,92.0
199,53.9137974375,54.395215875000005,61.0,80.0
200,53.9137974375,54.61143187500001,58.0,80.0
201,54.724607437500005,54.84453975,65.0,105.0
202,54.3192024375,54.86312081250001,53.0,62.0
203,54.724607437500005,54.91041806250001,61.0,105.0
204,53.9137974375,54.976296375000004,46.0,92.0
205,54.927309937500006,55.08947193750001,65.0,4.0
206,55.13001243750001,55.2989311875,58.0,94.0
207,55.53541743750001,56.0894709375,58.0,94.0
208,55.53541743750001,56.20940325000001,54.0,87.0
209,55.9408224375,56.619875812500005,49.0,67.0
210,55.53541743750001,56.768524312500006,42.0,92.0
211,56.346227437500005,56.83609181250001,58.0,105.0
212,56.346227437500005,56.84453775000001,61.0,97.0
213,56.75163243750001,56.942510625000004,54.0,102.0
214,57.15703743750001,57.662104500000005,60.0,89.0
215,57.15703743750001,57.72291525000001,56.0,84.0
216,57.967847437500005,58.1739283125,56.0,97.0
217,57.15703743750001,58.20095531250001,44.0,97.0
218,57.5624424375,58.2212255625,51.0,53.0
219,57.967847437500005,58.3631173125,60.0,114.0
220,57.967847437500005,58.37156325000001,63.0,100.0
221,58.37325243750001,58.635076500000004,56.0,111.0
222,58.37325243750001,58.726292625000006,44.0,94.0
223,58.77865743750001,58.984738312500006,56.0,84.0
224,58.77865743750001,59.23304887500001,61.0,94.0
225,59.1840624375,59.69588625000001,56.0,92.0
226,58.77865743750001,59.983048125,49.0,87.0
227,59.589467437500005,60.050615625000006,61.0,105.0
228,59.589467437500005,60.053994,65.0,111.0
229,59.99487243750001,60.200953312500005,56.0,94.0
230,60.40027743750001,60.861425625,61.0,82.0
231,60.40027743750001,60.98980387500001,58.0,87.0
232,61.211087437500005,61.368181875000005,58.0,102.0
233,60.8056824375,61.5354114375,53.0,67.0
234,60.40027743750001,61.59115462500001,46.0,94.0
235,61.211087437500005,61.597911375,61.0,111.0
236,61.211087437500005,61.699262625,65.0,100.0
237,61.61649243750001,61.76345175000001,58.0,92.0
238,62.02189743750001,62.56074825,58.0,94.0
239,62.02189743750001,62.668856250000005,54.0,87.0
240,62.4273024375,63.01007212500001,49.0,53.0
241,62.02189743750001,63.04892343750001,42.0,92.0
242,62.832707437500005,63.155342250000004,54.0,94.0
243,62.832707437500005,63.2043286875,58.0,108.0
244,62.832707437500005,63.233044875000004,61.0,100.0
245,63.23811243750001,63.50500406250001,42.0,97.0
246,63.64351743750001,64.16040881250001,60.0,92.0
247,63.64351743750001,64.2144628125,56.0,80.0
248,63.64351743750001,64.6367596875,44.0,100.0
249,64.04892243750001,64.672232625,51.0,82.0
250,64.45432743750001,64.84621893750001,60.0,117.0
251,64.45432743750001,64.8698675625,63.0,105.0
252,64.45432743750001,64.8766243125,56.0,97.0
253,64.8597324375,65.17729968750001,44.0,100.0
254,65.2651374375,65.729664,65.0,92.0
255,65.2651374375,65.7313531875,61.0,89.0
256,66.0759474375,66.1874338125,61.0,87.0
257,65.6705424375,66.22797431250001,56.0,69.0
258,66.0759474375,66.42223087500001,65.0,114.0
259,66.0759474375,66.4408119375,68.0,108.0
260,66.48135243750001,67.08608156250001,56.0,51.0
261,66.88675743750001,67.5218919375,65.0,102.0
262,66.88675743750001,67.56074325,61.0,100.0
263,67.29216243750001,67.8242565,56.0,84.0
264,67.69756743750001,67.915472625,68.0,102.0
265,65.2651374375,67.93743206250001,49.0,102.0
266,67.69756743750001,67.93912125,61.0,105.0
267,67.69756743750001,67.94756718750001,65.0,105.0
268,68.1029724375,68.25331012500001,49.0,94.0
269,68.5083774375,68.9864175,65.0,94.0
270,68.5083774375,69.0134445,61.0,89.0
271,68.5083774375,69.06243093750001,58.0,84.0
272,68.9137824375,69.43743056250001,53.0,57.0
273,69.3191874375,69.4475656875,61.0,105.0
274,69.3191874375,69.456011625,65.0,94.0
275,69.72459243750001,70.27188918750001,53.0,60.0
276,70.12999743750001,70.63844287500001,65.0,100.0
277,70.12999743750001,70.64182125,58.0,97.0
278,70.12999743750001,70.64688881250001,61.0,105.0
279,70.94080743750001,71.11479375,61.0,102.0
280,70.94080743750001,71.13844237500001,58.0,97.0
281,70.94080743750001,71.17729368750001,65.0,100.0
282,68.5083774375,71.18573962500001,46.0,100.0
283,70.53540243750001,71.19756393750001,53.0,58.0
284,71.3462124375,71.59114462500001,56.0,89.0
285,71.3462124375,71.6131040625,44.0,92.0
286,71.7516174375,72.2296575,58.0,92.0
287,71.7516174375,72.23303587500001,61.0,78.0
288,71.7516174375,72.3259411875,54.0,71.0
289,72.5624274375,72.73641375000001,54.0,102.0
290,72.1570224375,72.7381029375,49.0,69.0
291,71.7516174375,72.74823806250001,42.0,97.0
292,72.5624274375,72.7718866875,58.0,114.0
293,72.5624274375,72.7989136875,61.0,105.0
294,72.96783243750001,73.15026468750001,54.0,105.0
295,73.37323743750001,73.91208825000001,61.0,94.0
296,73.37323743750001,73.99316925000001,58.0,100.0
297,73.77864243750001,74.35634456250001,53.0,73.0
298,73.37323743750001,74.67897937500001,46.0,97.0
299,74.18404743750001,74.96276287500001,61.0,111.0
300,74.18404743750001,74.9644520625,65.0,105.0
301,74.5894524375,74.9813439375,58.0,105.0
302,74.9948574375,75.55397850000001,60.0,94.0
303,74.9948574375,75.6620865,56.0,89.0
304,75.8056674375,75.98809968750001,56.0,89.0
305,75.4002624375,76.0455320625,51.0,50.0
306,74.9948574375,76.11647793750001,44.0,100.0
307,75.8056674375,76.162086,60.0,105.0
308,75.8056674375,76.1671535625,63.0,94.0
309,76.21107243750001,76.46613975000001,56.0,89.0
310,76.61647743750001,77.1705309375,61.0,100.0
311,76.61647743750001,77.20262550000001,56.0,89.0
312,76.61647743750001,78.12830025000001,49.0,97.0
313,77.02188243750001,78.138435375,53.0,46.0
314,77.8326924375,78.185732625,56.0,94.0
315,77.42728743750001,78.1874218125,65.0,97.0
316,77.42728743750001,78.19417856250001,61.0,108.0
317,78.2380974375,78.4239080625,56.0,97.0
318,78.2380974375,78.7161375,61.0,105.0
319,78.6435024375,78.9070156875,56.0,102.0
320,79.0489074375,79.10633981250001,56.0,66.0
321,79.0489074375,79.49823131250001,61.0,114.0
322,79.0489074375,79.49823131250001,65.0,114.0
323,79.45431243750001,79.62829875000001,56.0,105.0
324,78.2380974375,79.72627162500001,49.0,102.0
325,79.85971743750001,80.0725550625,58.0,102.0
326,79.85971743750001,80.293838625,61.0,100.0
327,80.26512243750001,80.6367436875,58.0,114.0
328,80.67052743750001,81.06579731250001,65.0,102.0
329,80.67052743750001,81.09620268750001,61.0,97.0
330,79.85971743750001,81.17052693750001,46.0,97.0
331,81.0759324375,81.584377875,58.0,111.0
332,81.4813374375,81.9205261875,61.0,87.0
333,81.8867424375,82.16545837500001,54.0,97.0
334,82.2921474375,82.3428230625,54.0,64.0
335,81.4813374375,82.678971375,42.0,94.0
336,82.2921474375,82.7144443125,58.0,105.0
337,82.2921474375,82.756674,61.0,102.0
338,82.2921474375,82.81579556250001,49.0,62.0
339,82.69755243750001,82.85295768750001,54.0,105.0
340,83.10295743750001,83.31072750000001,56.0,89.0
341,83.10295743750001,83.537078625,60.0,102.0
342,83.50836243750001,83.8242405,56.0,89.0
343,83.91376743750001,84.351267,63.0,92.0
344,84.3191724375,84.47795606250001,61.0,102.0
345,83.10295743750001,84.48133443750001,44.0,100.0
346,84.7245774375,84.86140162500001,56.0,78.0
347,84.7245774375,85.2296445,61.0,87.0
348,84.7245774375,85.23977962500001,65.0,92.0
349,85.1299824375,85.42559025000001,56.0,66.0
350,85.5353874375,85.76511693750001,61.0,102.0
351,85.5353874375,85.98133293750001,65.0,102.0
352,84.7245774375,85.98977887500001,49.0,102.0
353,85.94079243750001,86.22288675,63.0,87.0
354,86.34619743750001,86.783697,58.0,94.0
355,86.34619743750001,86.814102375,61.0,94.0
356,87.15700743750001,87.2921424375,58.0,102.0
357,86.75160243750001,87.49991250000001,53.0,84.0
358,87.15700743750001,87.5252503125,61.0,114.0
359,86.34619743750001,87.564101625,46.0,89.0
360,87.15700743750001,87.62997993750001,65.0,102.0
361,87.5624124375,87.6975474375,58.0,108.0
362,87.9678174375,88.4711953125,58.0,89.0
363,87.9678174375,88.5961951875,54.0,89.0
364,87.9678174375,89.2009243125,42.0,94.0
365,88.3732224375,89.27187018750001,49.0,69.0
366,88.7786274375,89.2820053125,61.0,111.0
367,88.7786274375,89.29382962500001,58.0,100.0
368,89.18403243750001,89.38504575,54.0,100.0
369,89.58943743750001,89.79551831250001,56.0,92.0
370,89.58943743750001,90.026937,60.0,105.0
371,89.99484243750001,90.27862593750001,56.0,108.0
372,90.40024743750001,90.8191659375,60.0,105.0
373,90.40024743750001,90.827611875,56.0,100.0
374,90.40024743750001,90.83774700000001,63.0,97.0
375,89.58943743750001,91.016800875,44.0,94.0
376,90.80565243750002,91.026936,61.0,58.0
377,91.2110574375,91.38673293750001,56.0,82.0
378,91.2110574375,91.76511093750001,65.0,94.0
379,91.2110574375,91.81240818750001,61.0,87.0
380,91.6164624375,91.89855675000001,56.0,76.0
381,92.0218674375,92.22456993750001,61.0,108.0
382,92.0218674375,92.37152925000001,56.0,100.0
383,92.0218674375,92.47456968750001,65.0,100.0
384,91.2110574375,92.5759209375,49.0,84.0
385,92.42727243750001,92.7701775,63.0,100.0
386,92.83267743750001,93.192474375,61.0,94.0
387,92.83267743750001,93.43064981250001,58.0,92.0
388,93.64348743750001,93.7955143125,61.0,108.0
389,93.64348743750001,93.8597034375,65.0,108.0
390,93.23808243750001,94.226257125,53.0,80.0
391,94.04889243750002,94.2515949375,60.0,67.0
392,92.83267743750001,94.2988921875,46.0,94.0
393,94.4542974375,94.90868887500001,58.0,100.0
394,94.4542974375,94.94754018750001,54.0,92.0
395,95.2651074375,95.66375568750001,61.0,92.0
396,94.4542974375,95.71443131250001,42.0,97.0
397,95.2651074375,95.7380799375,54.0,100.0
398,94.8597024375,95.915444625,49.0,94.0
399,95.67051243750001,95.97625537500001,58.0,114.0
400,96.07591743750001,96.4576738125,60.0,92.0
401,96.07591743750001,96.50666025000001,56.0,92.0
402,96.48132243750001,97.02355162500001,51.0,87.0
403,96.88672743750001,97.10125425000001,56.0,89.0
404,96.07591743750001,97.38672693750001,44.0,102.0
405,96.88672743750001,97.611388875,60.0,102.0
406,97.29213243750002,97.64010506250001,56.0,108.0
407,96.88672743750001,97.658686125,63.0,97.0
408,97.6975374375,97.8833480625,56.0,97.0
409,97.6975374375,98.1755775,61.0,105.0
410,98.1029424375,98.36645568750001,56.0,102.0
411,98.5083474375,98.56577981250001,56.0,66.0
412,98.5083474375,98.95767131250001,61.0,114.0
413,98.5083474375,98.95767131250001,65.0,114.0
414,98.91375243750001,99.08773875000001,56.0,105.0
415,97.6975374375,99.18571162500001,49.0,102.0
416,99.31915743750001,99.5319950625,58.0,102.0
417,99.31915743750001,99.75327862500001,61.0,100.0
418,99.72456243750001,100.09618368750002,58.0,114.0
419,100.12996743750001,100.52523731250001,65.0,102.0
420,100.12996743750001,100.55564268750001,61.0,97.0
421,99.31915743750001,100.62996693750001,46.0,97.0
422,100.53537243750002,101.043817875,58.0,111.0
423,100.9407774375,101.3799661875,61.0,87.0
424,101.3461824375,101.62489837500001,54.0,97.0
425,101.7515874375,101.8022630625,54.0,64.0
426,100.9407774375,102.138411375,42.0,94.0
427,101.7515874375,102.17388431250001,58.0,105.0
428,101.7515874375,102.216114,61.0,102.0
429,101.7515874375,102.27523556250001,49.0,62.0
430,102.15699243750001,102.31239768750001,54.0,105.0
431,102.56239743750001,102.77016750000001,56.0,89.0
432,102.56239743750001,102.99651862500001,60.0,102.0
433,102.96780243750001,103.2836805,56.0,89.0
434,103.37320743750001,103.81070700000001,63.0,92.0
435,103.77861243750002,103.93739606250001,61.0,102.0
436,102.56239743750001,103.94077443750001,44.0,100.0
437,104.1840174375,104.32084162500001,56.0,78.0
438,104.1840174375,104.6890845,61.0,87.0
439,104.1840174375,104.69921962500001,65.0,92.0
440,104.5894224375,104.88503025000001,56.0,66.0
441,104.9948274375,105.22455693750001,61.0,102.0
442,104.9948274375,105.44077293750001,65.0,102.0
443,104.1840174375,105.44921887500001,49.0,102.0
444,105.40023243750001,105.68232675000002,63.0,87.0
445,105.80563743750001,106.243137,58.0,94.0
446,105.80563743750001,106.273542375,61.0,94.0
447,106.61644743750001,106.7515824375,58.0,102.0
448,106.21104243750001,106.95935250000001,53.0,84.0
449,106.61644743750001,106.9846903125,61.0,114.0
450,105.80563743750001,107.02354162500001,46.0,89.0
451,106.61644743750001,107.08941993750001,65.0,102.0
452,107.02185243750002,107.1569874375,58.0,108.0
453,107.4272574375,107.93063531250002,58.0,89.0
454,107.4272574375,108.05563518750002,54.0,89.0
455,107.4272574375,108.66036431250001,42.0,94.0
456,107.8326624375,108.73131018750001,49.0,69.0
457,108.2380674375,108.7414453125,61.0,111.0
458,108.2380674375,108.75326962500002,58.0,100.0
459,108.64347243750001,108.84448575,54.0,100.0
460,109.04887743750001,109.25495831250001,56.0,92.0
461,109.04887743750001,109.486377,60.0,105.0
462,109.45428243750001,109.73806593750001,56.0,108.0
463,109.85968743750001,110.2786059375,60.0,105.0
464,109.85968743750001,110.287051875,56.0,100.0
465,109.85968743750001,110.29718700000001,63.0,97.0
466,109.04887743750001,110.47624087500002,44.0,94.0
467,110.26509243750002,110.486376,61.0,58.0
468,110.6704974375,110.84617293750001,56.0,82.0
469,110.6704974375,111.22455093750001,65.0,94.0
470,110.6704974375,111.27184818750001,61.0,87.0
471,111.0759024375,111.35799675000001,56.0,76.0
472,111.4813074375,111.68400993750001,61.0,108.0
473,111.4813074375,111.83096925000001,56.0,100.0
474,111.4813074375,111.93400968750001,65.0,100.0
475,110.6704974375,112.03536093750002,49.0,84.0
476,111.88671243750001,112.2296175,63.0,100.0
477,112.29211743750001,112.651914375,61.0,94.0
478,112.29211743750001,112.89008981250001,58.0,92.0
479,113.10292743750001,113.2549543125,61.0,108.0
480,113.10292743750001,113.31914343750002,65.0,108.0
481,112.69752243750001,113.685697125,53.0,80.0
482,113.50833243750002,113.71103493750002,60.0,67.0
483,112.29211743750001,113.75833218750002,46.0,94.0
484,113.9137374375,114.36812887500001,58.0,100.0
485,113.9137374375,114.40698018750001,54.0,92.0
486,114.72454743750001,115.12319568750002,61.0,92.0
487,113.9137374375,115.17387131250001,42.0,97.0
488,114.72454743750001,115.1975199375,54.0,100.0
489,114.3191424375,115.374884625,49.0,94.0
490,115.12995243750001,115.43569537500001,58.0,114.0
491,115.53535743750001,115.9171138125,60.0,92.0
492,115.53535743750001,115.96610025000001,56.0,92.0
493,115.94076243750001,116.48299162500001,51.0,87.0
494,116.34616743750001,116.56069425000001,56.0,89.0
495,115.53535743750001,116.84616693750002,44.0,102.0
496,116.34616743750001,117.070828875,60.0,102.0
497,116.75157243750002,117.09954506250001,56.0,108.0
498,116.34616743750001,117.118126125,63.0,97.0
499,117.1569774375,117.3427880625,56.0,97.0
500,117.1569774375,117.6350175,61.0,105.0
501,117.5623824375,117.82589568750001,56.0,102.0
502,117.96778743750001,118.02521981250001,56.0,66.0
503,117.96778743750001,118.41711131250001,61.0,114.0
504,117.96778743750001,118.41711131250001,65.0,114.0
505,118.37319243750001,118.54717875000001,56.0,105.0
506,117.1569774375,118.64515162500001,49.0,102.0
507,118.77859743750001,118.99143506250002,58.0,102.0
508,118.77859743750001,119.21271862500001,61.0,100.0
509,119.18400243750001,119.55562368750002,58.0,114.0
510,119.58940743750001,119.98467731250001,65.0,102.0
511,119.58940743750001,120.01508268750001,61.0,97.0
512,118.77859743750001,120.08940693750002,46.0,97.0
513,119.99481243750002,120.50325787500002,58.0,111.0
514,120.4002174375,120.83940618750002,61.0,87.0
515,120.8056224375,121.08433837500002,54.0,97.0
516,121.21102743750001,121.2617030625,54.0,64.0
517,120.4002174375,121.597851375,42.0,94.0
518,121.21102743750001,121.63332431250001,58.0,105.0
519,121.21102743750001,121.675554,61.0,102.0
520,121.21102743750001,121.73467556250002,49.0,62.0
521,121.61643243750001,121.77183768750001,54.0,105.0
522,122.02183743750001,122.22960750000001,56.0,89.0
523,122.02183743750001,122.45595862500001,60.0,102.0
524,122.42724243750001,122.74312050000002,56.0,89.0
525,122.83264743750001,123.27014700000001,63.0,92.0
526,123.23805243750002,123.39683606250001,61.0,102.0
527,122.02183743750001,123.40021443750001,44.0,100.0
528,123.6434574375,123.78028162500001,56.0,78.0
529,123.6434574375,124.14852450000001,61.0,87.0
530,123.6434574375,124.15865962500001,65.0,92.0
531,124.0488624375,124.34447025000001,56.0,66.0
532,124.45426743750001,124.68399693750001,61.0,102.0
533,124.45426743750001,124.90021293750002,65.0,102.0
534,123.6434574375,124.90865887500001,49.0,102.0
535,124.85967243750001,125.14176675000002,63.0,87.0
536,125.26507743750001,125.702577,58.0,94.0
537,125.26507743750001,125.732982375,61.0,94.0
538,126.07588743750001,126.2110224375,58.0,102.0
539,125.67048243750001,126.41879250000001,53.0,84.0
540,126.07588743750001,126.44413031250001,61.0,114.0
541,125.26507743750001,126.48298162500001,46.0,89.0
542,126.07588743750001,126.54885993750001,65.0,102.0
543,126.48129243750002,126.61642743750001,58.0,108.0
544,126.88669743750002,127.39007531250002,58.0,89.0
545,126.88669743750002,127.51507518750002,54.0,89.0
546,126.88669743750002,128.1198043125,42.0,94.0
547,127.2921024375,128.19075018750002,49.0,69.0
548,127.69750743750001,128.20088531250002,61.0,111.0
549,127.69750743750001,128.212709625,58.0,100.0
550,128.1029124375,128.30392575000002,54.0,100.0
551,128.5083174375,128.7211550625,60.0,94.0
552,128.7110199375,128.7211550625,60.0,87.0
553,128.5083174375,128.98635750000003,65.0,89.0
554,128.5083174375,129.45386641250002,53.0,105.0
555,129.31887741250003,129.51967355000002,65.0,114.0
556,129.31887741250003,129.53485981250003,68.0,100.0
557,129.31887741250003,129.56523233750002,60.0,108.0
558,130.12881141250003,130.31104656250002,42.0,97.0
559,130.12881141250003,130.326232825,58.0,102.0
560,130.12881141250003,130.32960755000002,54.0,89.0
561,130.12881141250003,130.36841688750002,61.0,89.0
562,130.93874541250003,131.28296736250002,65.0,84.0
563,130.93874541250003,131.3335882375,60.0,89.0
564,130.93874541250003,131.42301845000003,68.0,89.0
565,130.93874541250003,131.581630525,53.0,105.0
566,131.74867941250002,131.85329588750002,66.0,82.0
567,131.74867941250002,132.418562325,58.0,94.0
568,131.74867941250002,132.43374858750002,63.0,92.0
569,131.74867941250002,132.45399693750002,51.0,105.0
570,132.55861341250002,133.07325897500002,60.0,97.0
571,132.55861341250002,133.17450072500003,44.0,100.0
572,132.55861341250002,133.17787545000002,56.0,84.0
573,133.36854741250002,136.35011695000003,60.0,89.0
574,133.36854741250002,136.40073782500002,32.0,76.0
575,133.36854741250002,136.40073782500002,56.0,76.0
576,133.36854741250002,136.42098617500002,44.0,100.0
577,133.36854741250002,136.4631702375,68.0,97.0
578,136.60828341250001,137.55320641250003,61.0,97.0
579,137.0132504125,137.59876520000003,53.0,38.0
580,137.8231844125,138.34964151250003,53.0,26.0
581,137.4182174125,138.36988986250003,56.0,105.0
582,138.2281514125,139.1292029875,65.0,97.0
583,138.6331184125,139.36880846250003,53.0,40.0
584,136.60828341250001,139.41605461250003,49.0,97.0
585,139.0380854125,139.4767996625,61.0,97.0
586,139.4430524125,139.62866228750002,56.0,102.0
587,139.8480194125,140.3525408,54.0,78.0
588,139.8480194125,140.70013747500002,58.0,89.0
589,139.8480194125,141.00217536250003,42.0,89.0
590,140.25298641250004,141.04267206250003,49.0,44.0
591,140.65795341250004,141.13210227500002,54.0,97.0
592,141.06292041250003,141.39195610000002,58.0,78.0
593,141.46788741250003,142.0179675875,60.0,89.0
594,141.46788741250003,142.05340220000002,56.0,87.0
595,142.27782141250003,142.49042908750002,60.0,92.0
596,142.27782141250003,142.55961095000004,56.0,82.0
597,141.46788741250003,142.61529391250002,44.0,102.0
598,141.87285441250003,142.61698127500003,51.0,58.0
599,143.08269332500004,143.93481138750002,68.0,87.0
600,142.99495047500002,143.94156083750002,65.0,78.0
601,142.92408125000003,144.01580478750003,61.0,67.0
602,143.501159225,144.26215971250002,56.0,49.0
603,143.03207245000002,144.30265641250003,49.0,102.0
604,144.68906242500003,145.12608931250003,65.0,84.0
605,144.61650583750003,145.16658601250003,61.0,80.0
606,144.54226188750002,145.19358381250004,58.0,62.0
607,145.52599422500003,145.7166661875,65.0,82.0
608,145.52936895000002,145.72004091250002,61.0,62.0
609,145.06028217500003,145.78078596250003,53.0,37.0
610,145.52936895000002,145.79259750000003,58.0,71.0
611,144.6772508875,145.87865298750003,46.0,92.0
612,146.21443812500002,146.81851390000003,54.0,40.0
613,146.34267767500003,147.14586222500003,61.0,73.0
614,146.27349581250002,147.15936112500003,58.0,87.0
615,146.7105227,147.5660154875,49.0,40.0
616,147.13236332500003,147.5930132875,54.0,82.0
617,146.33424086250002,147.62844790000003,42.0,92.0
618,147.5204567,147.7887473375,58.0,87.0
619,147.91867425000004,148.3573885,60.0,71.0
620,147.9119248,148.53624892500002,56.0,78.0
621,148.70667253750003,148.94627801250002,60.0,87.0
622,148.7100472625,148.98508735000001,63.0,78.0
623,148.7100472625,148.99521152500003,56.0,82.0
624,148.29495608750003,149.02220932500003,51.0,66.0
625,147.91529952500002,149.07957965000003,44.0,92.0
626,149.42548896250003,150.3822235,56.0,57.0
627,149.55710323750003,150.85637236250003,65.0,82.0
628,149.51829390000003,150.89349433750002,49.0,89.0
629,149.49129610000003,150.90868060000003,61.0,82.0
630,150.7618800625,150.94074048750002,56.0,92.0
631,151.10778937500004,151.69161680000002,58.0,87.0
632,151.24615310000002,152.00546622500002,65.0,94.0
633,151.18878277500002,152.0105283125,61.0,84.0
634,151.526255275,152.08983435000002,53.0,69.0
635,151.98184315000003,152.14045522500004,58.0,105.0
636,151.15166080000003,152.160703575,46.0,92.0
637,152.65678815,153.32667106250003,54.0,69.0
638,152.747905725,153.65908147500002,58.0,84.0
639,152.81877495000003,153.68270455000004,61.0,92.0
640,153.58989961250003,154.1079199,54.0,82.0
641,152.81540022500002,154.19060066250003,42.0,89.0
642,153.16299690000002,154.24122153750002,49.0,49.0
643,153.99992870000003,154.25640780000003,58.0,102.0
644,154.40658306250003,155.04271872500001,60.0,108.0
645,154.38295998750002,155.05284290000003,56.0,66.0
646,155.204705525,155.47637088750002,60.0,102.0
647,155.20133080000002,155.47974561250004,63.0,84.0
648,155.20976761250003,155.52530440000004,56.0,87.0
649,154.79130171250003,155.63160823750002,51.0,62.0
650,154.41839460000003,155.71597636250002,44.0,97.0
651,156.04669941250003,156.55797025000004,61.0,76.0
652,156.04669941250003,156.89544275000003,65.0,92.0
653,156.45166641250003,157.01018340000002,56.0,71.0
654,156.85663341250003,157.46408391250003,61.0,111.0
655,157.26160041250003,157.82686685000002,56.0,44.0
656,157.66656741250003,157.99897782500003,65.0,71.0
657,157.66656741250003,158.03778716250002,68.0,80.0
658,158.47650141250003,158.63173876250002,61.0,92.0
659,158.47650141250003,158.69585853750002,65.0,102.0
660,158.07153441250003,158.7802266625,56.0,41.0
661,158.47650141250003,158.81734863750003,68.0,94.0
662,156.04669941250003,158.89327995000002,49.0,100.0
663,159.28643541250003,159.79770625000003,58.0,76.0
664,159.28643541250003,160.13011666250003,61.0,76.0
665,159.69140241250003,160.19423643750002,53.0,53.0
666,160.09636941250002,160.94511275000002,58.0,111.0
667,160.50133641250002,161.00248307500001,53.0,44.0
668,160.90630341250002,161.08178911250002,61.0,57.0
669,160.90630341250002,161.13072262500003,65.0,87.0
670,161.71623741250002,161.9102841,58.0,97.0
671,161.71623741250002,161.91872091250002,61.0,94.0
672,161.71623741250002,162.11614232500003,65.0,89.0
673,161.31127041250002,162.14314012500003,53.0,34.0
674,159.28643541250003,162.20219781250003,46.0,94.0
675,162.12120441250002,162.3152511,56.0,82.0
676,162.52617141250002,163.07625158750002,58.0,94.0
677,162.52617141250002,163.41034936250003,54.0,87.0
678,163.74107241250002,164.21015918750004,54.0,44.0
679,163.33610541250002,164.61006410000002,58.0,105.0
680,163.33610541250002,164.61681355000002,61.0,94.0
681,164.14603941250002,164.63031245000002,66.0,84.0
682,164.55100641250004,165.04371626250003,54.0,100.0
683,162.93113841250002,165.16520636250004,49.0,48.0
684,162.52617141250002,165.21751460000002,42.0,94.0
685,164.95597341250004,165.38118876250002,58.0,111.0
686,165.36094041250004,165.51955248750002,54.0,108.0
687,164.95597341250004,165.61235742500003,61.0,100.0
688,165.76590741250004,166.66527162500003,56.0,92.0
689,166.98080841250004,167.48026771250002,56.0,64.0
690,165.76590741250004,167.84305065000004,60.0,92.0
691,166.57584141250004,167.87679790000004,63.0,94.0
692,167.38577541250004,167.95610393750002,68.0,94.0
693,167.79074241250004,168.26826600000004,56.0,73.0
694,165.76590741250004,168.32901105000002,44.0,94.0
695,166.17087441250004,168.33576050000002,51.0,46.0
696,168.19570941250004,168.56861652500004,60.0,111.0
697,168.19570941250004,168.69179398750003,63.0,97.0
698,168.60067641250004,168.71372970000004,56.0,102.0
699,168.19570941250004,168.82678298750002,68.0,94.0
700,169.00564341250004,169.95056641250002,61.0,97.0
701,169.41061041250003,169.99612520000002,53.0,38.0
702,170.22054441250003,170.74700151250002,53.0,26.0
703,169.81557741250003,170.76724986250002,56.0,105.0
704,170.62551141250003,171.52656298750003,65.0,97.0
705,171.03047841250003,171.76616846250002,53.0,40.0
706,169.00564341250004,171.81341461250003,49.0,97.0
707,171.43544541250003,171.87415966250003,61.0,97.0
708,171.84041241250003,172.02602228750004,56.0,102.0
709,172.24537941250003,172.74990080000003,54.0,78.0
710,172.24537941250003,173.097497475,58.0,89.0
711,172.24537941250003,173.39953536250002,42.0,89.0
712,172.65034641250003,173.44003206250002,49.0,44.0
713,173.05531341250003,173.52946227500001,54.0,97.0
714,173.46028041250003,173.78931610000004,58.0,78.0
715,173.86524741250003,174.41553928750002,60.0,89.0
716,173.86524741250003,174.45101222500003,56.0,87.0
717,174.67567416250003,174.88851178750002,60.0,92.0
718,174.67567416250003,174.95776847500002,56.0,82.0
719,173.86524741250003,175.01351166250004,44.0,102.0
720,174.27026916250003,175.01520085000004,51.0,58.0
721,175.48648416250003,175.67229478750002,56.0,97.0
722,175.48648416250003,175.96452422500002,61.0,105.0
723,175.89188916250004,176.15540241250002,56.0,102.0
724,176.29729416250004,176.35472653750003,56.0,66.0
725,176.29729416250004,176.74661803750004,61.0,114.0
726,176.29729416250004,176.74661803750004,65.0,114.0
727,176.70269916250004,176.87668547500004,56.0,105.0
728,175.48648416250003,176.97465835000003,49.0,102.0
729,177.10810416250004,177.32094178750003,58.0,102.0
730,177.10810416250004,177.54222535000002,61.0,100.0
731,177.51350916250004,177.88513041250002,58.0,114.0
732,177.91891416250004,178.31418403750004,65.0,102.0
733,177.91891416250004,178.34458941250003,61.0,97.0
734,177.10810416250004,178.41891366250005,46.0,97.0
735,178.32431916250005,178.83276460000002,58.0,111.0
736,178.72972416250002,179.16891291250002,61.0,87.0
737,179.13512916250002,179.41384510000003,54.0,97.0
738,179.54053416250002,179.59120978750002,54.0,64.0
739,178.72972416250002,179.92735810000002,42.0,94.0
740,179.54053416250002,179.96283103750002,58.0,105.0
741,179.54053416250002,180.00506072500002,61.0,102.0
742,179.54053416250002,180.06418228750005,49.0,62.0
743,179.94593916250003,180.10134441250003,54.0,105.0
744,180.35134416250003,180.55911422500003,56.0,89.0
745,180.35134416250003,180.78546535000004,60.0,102.0
746,180.75674916250003,181.07262722500002,56.0,89.0
747,181.16215416250003,181.59965372500002,63.0,92.0
748,181.56755916250003,181.72634278750004,61.0,102.0
749,180.35134416250003,181.72972116250003,44.0,100.0
750,181.97296416250003,182.10978835000003,56.0,78.0
751,181.97296416250003,182.47803122500002,61.0,87.0
752,181.97296416250003,182.48816635000003,65.0,92.0
753,182.37836916250004,182.67397697500004,56.0,66.0
754,182.78377416250004,183.01350366250003,61.0,102.0
755,182.78377416250004,183.22971966250003,65.0,102.0
756,181.97296416250003,183.23816560000003,49.0,102.0
757,183.18917916250004,183.47127347500003,63.0,87.0
758,183.59458416250004,184.03208372500004,58.0,94.0
759,183.59458416250004,184.06248910000002,61.0,94.0
760,184.40539416250004,184.54052916250004,58.0,102.0
761,183.99998916250004,184.74829922500004,53.0,84.0
762,184.40539416250004,184.77363703750004,61.0,114.0
763,183.59458416250004,184.81248835000002,46.0,89.0
764,184.40539416250004,184.87836666250004,65.0,102.0
765,184.81079916250002,184.94593416250004,58.0,108.0
766,185.21620416250002,185.71958203750003,58.0,89.0
767,185.21620416250002,185.84458191250002,54.0,89.0
768,185.21620416250002,186.44931103750002,42.0,94.0
769,185.62160916250002,186.52025691250003,49.0,69.0
770,186.02701416250002,186.53039203750004,61.0,111.0
771,186.02701416250002,186.54221635000005,58.0,100.0
772,186.43241916250003,186.63343247500003,54.0,100.0
773,186.83782416250003,187.04390503750002,56.0,92.0
774,186.83782416250003,187.27532372500002,60.0,105.0
775,187.24322916250003,187.52701266250003,56.0,108.0
776,187.64863416250003,188.06755266250002,60.0,105.0
777,187.64863416250003,188.07599860000002,56.0,100.0
778,187.64863416250003,188.08613372500002,63.0,97.0
779,186.83782416250003,188.26518760000005,44.0,94.0
780,188.05403916250003,188.27532272500002,61.0,58.0
781,188.45944416250003,188.63511966250005,56.0,82.0
782,188.45944416250003,189.01349766250004,65.0,94.0
783,188.45944416250003,189.06079491250003,61.0,87.0
784,188.86484916250004,189.14694347500003,56.0,76.0
785,189.27025416250004,189.47295666250002,61.0,108.0
786,189.27025416250004,189.61991597500003,56.0,100.0
787,189.27025416250004,189.72295641250003,65.0,100.0
788,188.45944416250003,189.82430766250002,49.0,84.0
789,189.67565916250004,190.01856422500003,63.0,100.0
790,190.08106416250004,190.44086110000003,61.0,94.0
791,190.08106416250004,190.67903653750002,58.0,92.0
792,190.89187416250005,191.04390103750004,61.0,108.0
793,190.89187416250005,191.10809016250005,65.0,108.0
794,190.48646916250004,191.47464385000004,53.0,80.0
795,191.29727916250005,191.49998166250003,60.0,67.0
796,190.08106416250004,191.54727891250002,46.0,94.0
797,191.70268416250002,192.15707560000004,58.0,100.0
798,191.70268416250002,192.19592691250003,54.0,92.0
799,192.51349416250002,192.91214241250003,61.0,92.0
800,191.70268416250002,192.96281803750003,42.0,97.0
801,192.51349416250002,192.98646666250002,54.0,100.0
802,192.10808916250002,193.16383135000004,49.0,94.0
803,192.91889916250003,193.22464210000004,58.0,114.0
804,193.32430416250003,193.70606053750004,60.0,92.0
805,193.32430416250003,193.75504697500003,56.0,92.0
806,193.72970916250003,194.27193835000003,51.0,87.0
807,194.13511416250003,194.34964097500003,56.0,89.0
808,193.32430416250003,194.63511366250003,44.0,102.0
809,194.13511416250003,194.85977560000003,60.0,102.0
810,194.54051916250003,194.88849178750004,56.0,108.0
811,194.13511416250003,194.90707285000002,63.0,97.0
812,194.94592416250003,195.13173478750002,56.0,97.0
813,194.94592416250003,195.42396422500002,61.0,105.0
814,195.35132916250004,195.61484241250002,56.0,102.0
815,195.75673416250004,195.81416653750003,56.0,66.0
816,195.75673416250004,196.20605803750004,61.0,114.0
817,195.75673416250004,196.20605803750004,65.0,114.0
818,196.16213916250004,196.33612547500005,56.0,105.0
819,194.94592416250003,196.43409835000003,49.0,102.0
820,196.56754416250004,196.78038178750003,58.0,102.0
821,196.56754416250004,197.00166535000002,61.0,100.0
822,196.97294916250004,197.34457041250005,58.0,114.0
823,197.37835416250005,197.77362403750004,65.0,102.0
824,197.37835416250005,197.80402941250003,61.0,97.0
825,196.56754416250004,197.87835366250005,46.0,97.0
826,197.78375916250002,198.29220460000005,58.0,111.0
827,198.18916416250005,198.62835291250002,61.0,87.0
828,198.59456916250002,198.87328510000003,54.0,97.0
829,198.99997416250002,199.05064978750005,54.0,64.0
830,198.18916416250005,199.38679810000002,42.0,94.0
831,198.99997416250002,199.42227103750002,58.0,105.0
832,198.99997416250002,199.46450072500002,61.0,102.0
833,198.99997416250002,199.52362228750002,49.0,62.0
834,199.40537916250003,199.56078441250003,54.0,105.0
835,199.81078416250003,200.01855422500003,56.0,89.0
836,199.81078416250003,200.24490535000004,60.0,102.0
837,200.21618916250003,200.53206722500005,56.0,89.0
838,200.62159416250003,201.05909372500003,63.0,92.0
839,201.02699916250003,201.18578278750005,61.0,102.0
840,199.81078416250003,201.18916116250003,44.0,100.0
841,201.43240416250003,201.56922835000003,56.0,78.0
842,201.43240416250003,201.93747122500002,61.0,87.0
843,201.43240416250003,201.94760635000003,65.0,92.0
844,201.83780916250004,202.13341697500005,56.0,66.0
845,202.24321416250004,202.47294366250003,61.0,102.0
846,202.24321416250004,202.68915966250003,65.0,102.0
847,201.43240416250003,202.69760560000003,49.0,102.0
848,202.64861916250004,202.93071347500003,63.0,87.0
849,203.05402416250004,203.49152372500004,58.0,94.0
850,203.05402416250004,203.52192910000002,61.0,94.0
851,203.86483416250005,203.99996916250004,58.0,102.0
852,203.45942916250004,204.20773922500004,53.0,84.0
853,203.86483416250005,204.23307703750004,61.0,114.0
854,203.05402416250004,204.27192835000002,46.0,89.0
855,203.86483416250005,204.33780666250004,65.0,102.0
856,204.27023916250005,204.40537416250004,58.0,108.0
857,204.67564416250002,205.17902203750003,58.0,89.0
858,204.67564416250002,205.30402191250005,54.0,89.0
859,204.67564416250002,205.90875103750002,42.0,94.0
860,205.08104916250002,205.97969691250003,49.0,69.0
861,205.48645416250002,205.98983203750004,61.0,111.0
862,205.48645416250002,206.00165635000002,58.0,100.0
863,205.89185916250003,206.09287247500004,54.0,100.0
864,206.29726416250003,206.50334503750003,56.0,92.0
865,206.29726416250003,206.73476372500005,60.0,105.0
866,206.70266916250003,206.98645266250003,56.0,108.0
867,207.10807416250003,207.52699266250005,60.0,105.0
868,207.10807416250003,207.53543860000002,56.0,100.0
869,207.10807416250003,207.54557372500003,63.0,97.0
870,206.29726416250003,207.72462760000002,44.0,94.0
871,207.51347916250003,207.73476272500002,61.0,58.0
872,207.91888416250004,208.09455966250005,56.0,82.0
873,207.91888416250004,208.47293766250004,65.0,94.0
874,207.91888416250004,208.52023491250003,61.0,87.0
875,208.32428916250004,208.60638347500003,56.0,76.0
876,208.72969416250004,208.93239666250003,61.0,108.0
877,208.72969416250004,209.07935597500003,56.0,100.0
878,208.72969416250004,209.18239641250003,65.0,100.0
879,207.91888416250004,209.28374766250005,49.0,84.0
880,209.13509916250004,209.47800422500003,63.0,100.0
881,209.54050416250004,209.90030110000004,61.0,94.0
882,209.54050416250004,210.13847653750003,58.0,92.0
883,210.35131416250005,210.50334103750004,61.0,108.0
884,210.35131416250005,210.56753016250002,65.0,108.0
885,209.94590916250004,210.93408385000004,53.0,80.0
886,210.75671916250002,210.95942166250003,60.0,67.0
887,209.54050416250004,211.00671891250005,46.0,94.0
888,211.16212416250005,211.61651560000004,58.0,100.0
889,211.16212416250005,211.65536691250003,54.0,92.0
890,211.97293416250002,212.37158241250003,61.0,92.0
891,211.16212416250005,212.42225803750003,42.0,97.0
892,211.97293416250002,212.44590666250002,54.0,100.0
893,211.56752916250002,212.62327135000004,49.0,94.0
894,212.37833916250003,212.68408210000004,58.0,114.0
895,212.78374416250003,213.16550053750004,60.0,92.0
896,212.78374416250003,213.21448697500003,56.0,92.0
897,213.18914916250003,213.73137835000003,51.0,87.0
898,213.59455416250003,213.80908097500003,56.0,89.0
899,212.78374416250003,214.09438393750003,44.0,102.0
900,213.59455416250003,214.31880315000004,60.0,102.0
901,213.9998916375,214.34748831250002,56.0,108.0
902,213.59455416250003,214.36604930000001,63.0,97.0
903,214.4048586375,214.59046851250002,56.0,97.0
904,214.4048586375,214.88238222500001,61.0,105.0
905,214.80982563750004,215.07305418750002,56.0,102.0
906,215.21479263750004,215.27216296250003,56.0,66.0
907,215.21479263750004,215.66363106250003,61.0,114.0
908,215.21479263750004,215.66363106250003,65.0,114.0
909,215.61975963750004,215.79355797500003,56.0,105.0
910,214.4048586375,215.89142500000003,49.0,102.0
911,216.02472663750004,216.23733431250002,58.0,102.0
912,216.02472663750004,216.45837880000002,61.0,100.0
913,216.42969363750004,216.80091338750003,58.0,114.0
914,216.83466063750004,217.22950346250002,65.0,102.0
915,216.83466063750004,217.25987598750004,61.0,97.0
916,216.02472663750004,217.33411993750002,46.0,97.0
917,217.23962763750004,217.74752375000003,58.0,111.0
918,217.64459463750003,218.0831880791667,61.0,87.0
919,218.04945899583336,218.32772393333337,54.0,97.0
920,218.45420799583337,218.50480162083335,54.0,64.0
921,217.64459463750003,218.84040600000003,42.0,94.0
922,218.45420799583337,218.87582153750003,58.0,105.0
923,218.45420799583337,218.9179828916667,61.0,102.0
924,218.45420799583337,218.97700878750004,49.0,62.0
925,218.85895699583335,219.01411077916669,54.0,105.0
926,219.26370599583336,219.47113985833337,56.0,89.0
927,219.26370599583336,219.6971247166667,60.0,102.0
928,219.66845499583337,219.98382192500003,56.0,89.0
929,220.07320399583335,220.50999562500002,63.0,92.0
930,220.47795299583336,220.63647968750004,61.0,102.0
931,219.26370599583336,220.63985259583336,44.0,100.0
932,220.88270199583337,221.01930478333335,56.0,78.0
933,220.88270199583337,221.3869517916667,61.0,87.0
934,220.88270199583337,221.3970705166667,65.0,92.0
935,221.28745099583335,221.58258047500004,56.0,66.0
936,221.69219999583336,221.92155776250002,61.0,102.0
937,221.69219999583336,222.13742389583336,65.0,102.0
938,220.88270199583337,222.1458561666667,49.0,102.0
939,222.09694899583337,222.3785868416667,63.0,87.0
940,222.50169799583335,222.93848962500002,58.0,94.0
941,222.50169799583335,222.96884580000003,61.0,94.0
942,223.31119599583337,223.44611232916668,58.0,102.0
943,222.90644699583336,223.6535461916667,53.0,84.0
944,223.31119599583337,223.6788430041667,61.0,114.0
945,222.50169799583335,223.71763145000003,46.0,89.0
946,223.31119599583337,223.78340316250004,65.0,102.0
947,223.71594499583335,223.8508613291667,58.0,108.0
948,224.12069399583336,224.62325733750004,58.0,89.0
949,224.12069399583336,224.74805494583336,54.0,89.0
950,224.12069399583336,225.35180553750004,42.0,94.0
951,224.52544299583337,225.4226366125,49.0,69.0
952,224.93019199583335,225.43275533750003,61.0,111.0
953,224.93019199583335,225.44456051666668,58.0,100.0
954,225.33494099583336,225.5356290416667,54.0,100.0
955,225.73968999583337,225.95218322083338,60.0,94.0
956,225.94206449583336,225.95218322083338,60.0,87.0
957,225.73968999583337,226.21695652500003,65.0,89.0
958,225.73968999583337,226.6841043291667,53.0,105.0
959,226.54918799583336,226.7498760416667,65.0,114.0
960,226.54918799583336,226.76505412916669,68.0,100.0
961,226.54918799583336,226.7954103041667,60.0,108.0
962,227.35868599583335,227.54082304583335,42.0,97.0
963,227.35868599583335,227.55600113333335,58.0,102.0
964,227.35868599583335,227.5593740416667,54.0,89.0
965,227.35868599583335,227.59816248750002,61.0,89.0
966,228.16818399583337,228.51222064583337,65.0,84.0
967,228.16818399583337,228.56281427083337,60.0,89.0
968,228.16818399583337,228.6521963416667,68.0,89.0
969,228.16818399583337,228.81072303333337,53.0,105.0
970,228.97768199583336,229.0822421541667,66.0,82.0
971,228.97768199583336,229.64720430000003,58.0,94.0
972,228.97768199583336,229.66238238750003,63.0,92.0
973,228.97768199583336,229.68261983750003,51.0,105.0
974,229.78717999583336,230.30154851666668,60.0,97.0
975,229.78717999583336,230.4027357666667,44.0,100.0
976,229.78717999583336,230.40610867500004,56.0,84.0
977,230.59667799583337,233.580567575,60.0,89.0
978,230.59667799583337,233.63124320000003,32.0,76.0
979,230.59667799583337,233.63124320000003,56.0,76.0
980,230.59667799583337,233.65151345,44.0,100.0
981,230.59667799583337,233.6937431375,68.0,97.0
982,233.8390132625,234.03326982500002,56.0,87.0
983,233.8390132625,234.3660397625,61.0,89.0
984,234.2444182625,234.45725588750003,56.0,48.0
985,234.6498232625,234.78157988750002,56.0,87.0
986,234.6498232625,235.15320113750002,65.0,97.0
987,234.6498232625,235.19205245,61.0,97.0
988,233.8390132625,235.21570107500003,49.0,111.0
989,235.0552282625,235.37786307500002,56.0,51.0
990,235.4606332625,235.5619845125,56.0,62.0
991,235.4606332625,235.952186825,65.0,92.0
992,235.4606332625,235.9606327625,61.0,76.0
993,235.8660382625,236.09407857500003,56.0,80.0
994,235.4606332625,236.49610520000002,49.0,89.0
995,236.27144326250001,236.864348075,56.0,102.0
996,236.27144326250001,236.9234696375,61.0,111.0
997,236.27144326250001,236.93022638750003,65.0,108.0
998,236.67684826250002,237.22076663750002,44.0,111.0
999,237.08225326250002,237.2680638875,56.0,97.0
1000,237.08225326250002,237.560293325,61.0,105.0
1001,237.48765826250002,237.7511715125,56.0,102.0
1002,237.89306326250002,237.9504956375,56.0,66.0
1003,237.89306326250002,238.34238713750003,61.0,114.0
1004,237.89306326250002,238.34238713750003,65.0,114.0
1005,238.29846826250002,238.47245457500003,56.0,105.0
1006,237.08225326250002,238.57042745,49.0,102.0
1007,238.70387326250003,238.91671088750002,58.0,102.0
1008,238.70387326250003,239.13799445,61.0,100.0
1009,239.10927826250003,239.4808995125,58.0,114.0
1010,239.51468326250003,239.90995313750003,65.0,102.0
1011,239.51468326250003,239.9403585125,61.0,97.0
1012,238.70387326250003,240.0146827625,46.0,97.0
1013,239.92008826250003,240.4285337,58.0,111.0
1014,240.3254932625,240.7646820125,61.0,87.0
1015,240.7308982625,241.00961420000002,54.0,97.0
1016,241.1363032625,241.1869788875,54.0,64.0
1017,240.3254932625,241.5231272,42.0,94.0
1018,241.1363032625,241.5586001375,58.0,105.0
1019,241.1363032625,241.600829825,61.0,102.0
1020,241.1363032625,241.65995138750003,49.0,62.0
1021,241.5417082625,241.6971135125,54.0,105.0
1022,241.9471132625,242.15488332500001,56.0,89.0
1023,241.9471132625,242.38123445000002,60.0,102.0
1024,242.3525182625,242.668396325,56.0,89.0
1025,242.75792326250001,243.195422825,63.0,92.0
1026,243.16332826250002,243.32211188750003,61.0,102.0
1027,241.9471132625,243.3254902625,44.0,100.0
1028,243.56873326250002,243.70555745000001,56.0,78.0
1029,243.56873326250002,244.073800325,61.0,87.0
1030,243.56873326250002,244.08393545,65.0,92.0
1031,243.97413826250002,244.26974607500003,56.0,66.0
1032,244.37954326250002,244.6092727625,61.0,102.0
1033,244.37954326250002,244.82548876250002,65.0,102.0
1034,243.56873326250002,244.83393470000001,49.0,102.0
1035,244.78494826250002,245.06704257500002,63.0,87.0
1036,245.19035326250003,245.62785282500002,58.0,94.0
1037,245.19035326250003,245.6582582,61.0,94.0
1038,246.00116326250003,246.13629826250002,58.0,102.0
1039,245.59575826250003,246.34406832500002,53.0,84.0
1040,246.00116326250003,246.36940613750002,61.0,114.0
1041,245.19035326250003,246.40825745,46.0,89.0
1042,246.00116326250003,246.47413576250003,65.0,102.0
1043,246.4065682625,246.54170326250002,58.0,108.0
1044,246.8119732625,247.31535113750002,58.0,89.0
1045,246.8119732625,247.4403510125,54.0,89.0
1046,246.8119732625,248.0450801375,42.0,94.0
1047,247.2173782625,248.11602601250001,49.0,69.0
1048,247.6227832625,248.12616113750002,61.0,111.0
1049,247.6227832625,248.13798545000003,58.0,100.0
1050,248.0281882625,248.22920157500002,54.0,100.0
1051,248.4335932625,248.6396741375,56.0,92.0
1052,248.4335932625,248.871092825,60.0,105.0
1053,248.8389982625,249.1227817625,56.0,108.0
1054,249.24440326250001,249.6633217625,60.0,105.0
1055,249.24440326250001,249.67176770000003,56.0,100.0
1056,249.24440326250001,249.681902825,63.0,97.0
1057,248.4335932625,249.86095670000003,44.0,94.0
1058,249.64980826250002,249.871091825,61.0,58.0
1059,250.05521326250002,250.2308887625,56.0,82.0
1060,250.05521326250002,250.60926676250003,65.0,94.0
1061,250.05521326250002,250.6565640125,61.0,87.0
1062,250.46061826250002,250.742712575,56.0,76.0
1063,250.86602326250002,251.0687257625,61.0,108.0
1064,250.86602326250002,251.215685075,56.0,100.0
1065,250.86602326250002,251.3187255125,65.0,100.0
1066,250.05521326250002,251.4200767625,49.0,84.0
1067,251.27142826250002,251.61433332500002,63.0,100.0
1068,251.67683326250003,252.03663020000002,61.0,94.0
1069,251.67683326250003,252.2748056375,58.0,92.0
1070,252.48764326250003,252.63967013750002,61.0,108.0
1071,252.48764326250003,252.70385926250003,65.0,108.0
1072,252.08223826250003,253.07041295000002,53.0,80.0
1073,252.89304826250003,253.09575076250002,60.0,67.0
1074,251.67683326250003,253.1430480125,46.0,94.0
1075,253.2984532625,253.75284470000003,58.0,100.0
1076,253.2984532625,253.7916960125,54.0,92.0
1077,254.1092632625,254.50791151250002,61.0,92.0
1078,253.2984532625,254.5585871375,42.0,97.0
1079,254.1092632625,254.5822357625,54.0,100.0
1080,253.7038582625,254.75960045000002,49.0,94.0
1081,254.5146682625,254.82041120000002,58.0,114.0
1082,254.9200732625,255.30182963750002,60.0,92.0
1083,254.9200732625,255.350816075,56.0,92.0
1084,255.3254782625,255.86770745,51.0,87.0
1085,255.73088326250002,255.945410075,56.0,89.0
1086,254.9200732625,256.2308827625,44.0,102.0
1087,255.73088326250002,256.4555447,60.0,102.0
1088,256.1362882625,256.4842608875,56.0,108.0
1089,255.73088326250002,256.50284195,63.0,97.0
1090,256.5416932625,256.7275038875,56.0,97.0
1091,256.5416932625,257.019733325,61.0,105.0
1092,256.9470982625,257.2106115125,56.0,102.0
1093,257.3525032625,257.40993563750004,56.0,66.0
1094,257.3525032625,257.8018271375,61.0,114.0
1095,257.3525032625,257.8018271375,65.0,114.0
1096,257.7579082625,257.931894575,56.0,105.0
1097,256.5416932625,258.02986745000004,49.0,102.0
1098,258.1633132625,258.3761508875,58.0,102.0
1099,258.1633132625,258.59743445000004,61.0,100.0
1100,258.5687182625,258.94033951250003,58.0,114.0
1101,258.97412326250003,259.3693931375,65.0,102.0
1102,258.97412326250003,259.3997985125,61.0,97.0
1103,258.1633132625,259.47412276250003,46.0,97.0
1104,259.3795282625,259.88797370000003,58.0,111.0
1105,259.78493326250003,260.2241220125,61.0,87.0
1106,260.1903382625,260.4690542,54.0,97.0
1107,260.59574326250004,260.64641888750003,54.0,64.0
1108,259.78493326250003,260.9825672,42.0,94.0
1109,260.59574326250004,261.0180401375,58.0,105.0
1110,260.59574326250004,261.06026982500003,61.0,102.0
1111,260.59574326250004,261.1193913875,49.0,62.0
1112,261.0011482625,261.1565535125,54.0,105.0
1113,261.40655326250004,261.61432332500004,56.0,89.0
1114,261.40655326250004,261.84067445,60.0,102.0
1115,261.8119582625,262.12783632500003,56.0,89.0
1116,262.21736326250004,262.654862825,63.0,92.0
1117,262.6227682625,262.78155188750003,61.0,102.0
1118,261.40655326250004,262.78493026250004,44.0,100.0
1119,263.0281732625,263.16499745,56.0,78.0
1120,263.0281732625,263.533240325,61.0,87.0
1121,263.0281732625,263.54337545000004,65.0,92.0
1122,263.4335782625,263.72918607500003,56.0,66.0
1123,263.8389832625,264.0687127625,61.0,102.0
1124,263.8389832625,264.28492876250004,65.0,102.0
1125,263.0281732625,264.2933747,49.0,102.0
1126,264.2443882625,264.52648257500005,63.0,87.0
1127,264.6497932625,265.087292825,58.0,94.0
1128,264.6497932625,265.1176982,61.0,94.0
1129,265.4606032625,265.59573826250005,58.0,102.0
1130,265.0551982625,265.803508325,53.0,84.0
1131,265.4606032625,265.8288461375,61.0,114.0
1132,264.6497932625,265.86769745000004,46.0,89.0
1133,265.4606032625,265.9335757625,65.0,102.0
1134,265.86600826250003,266.0011432625,58.0,108.0
1135,266.2714132625,266.7747911375,58.0,89.0
1136,266.2714132625,266.89979101250003,54.0,89.0
1137,266.2714132625,267.50452013750004,42.0,94.0
1138,266.67681826250003,267.5754660125,49.0,69.0
1139,267.0822232625,267.5856011375,61.0,111.0
1140,267.0822232625,267.59742545,58.0,100.0
1141,267.48762826250004,267.688641575,54.0,100.0
1142,267.8930332625,268.0991141375,56.0,92.0
1143,267.8930332625,268.33053282500003,60.0,105.0
1144,268.29843826250004,268.5822217625,56.0,108.0
1145,268.7038432625,269.12276176250003,60.0,105.0
1146,268.7038432625,269.1312077,56.0,100.0
1147,268.7038432625,269.14134282500004,63.0,97.0
1148,267.8930332625,269.3203967,44.0,94.0
1149,269.10924826250005,269.33053182500004,61.0,58.0
1150,269.5146532625,269.69032876250003,56.0,82.0
1151,269.5146532625,270.0687067625,65.0,94.0
1152,269.5146532625,270.1160040125,61.0,87.0
1153,269.9200582625,270.202152575,56.0,76.0
1154,270.3254632625,270.5281657625,61.0,108.0
1155,270.3254632625,270.67512507500004,56.0,100.0
1156,270.3254632625,270.77816551250004,65.0,100.0
1157,269.5146532625,270.87951676250003,49.0,84.0
1158,270.7308682625,271.07377332500005,63.0,100.0
1159,271.1362732625,271.4960702,61.0,94.0
1160,271.1362732625,271.7342456375,58.0,92.0
1161,271.94708326250003,272.0991101375,61.0,108.0
1162,271.94708326250003,272.1632992625,65.0,108.0
1163,271.5416782625,272.52985295,53.0,80.0
1164,272.3524882625,272.55519076250005,60.0,67.0
1165,271.1362732625,272.60248801250003,46.0,94.0
1166,272.75789326250003,273.2122847,58.0,100.0
1167,272.75789326250003,273.2511360125,54.0,92.0
1168,273.56870326250004,273.96735151250004,61.0,92.0
1169,272.75789326250003,274.01802713750004,42.0,97.0
1170,273.56870326250004,274.0416757625,54.0,100.0
1171,273.1632982625,274.21904045,49.0,94.0
1172,273.9741082625,274.2798512,58.0,114.0
1173,274.37951326250004,274.76126963750005,60.0,92.0
1174,274.37951326250004,274.81025607500004,56.0,92.0
1175,274.7849182625,275.32714745000004,51.0,87.0
1176,275.1903232625,275.404850075,56.0,89.0
1177,274.37951326250004,275.69032276250005,44.0,102.0
1178,275.1903232625,275.9149847,60.0,102.0
1179,275.5957282625,275.94370088750003,56.0,108.0
1180,275.1903232625,275.96228195000003,63.0,97.0
1181,276.00113326250005,276.18694388750004,56.0,97.0
1182,276.00113326250005,276.47917332500003,61.0,105.0
1183,276.4065382625,276.67005151250004,56.0,102.0
1184,276.8119432625,276.8693756375,56.0,66.0
1185,276.8119432625,277.2612671375,61.0,114.0
1186,276.8119432625,277.2612671375,65.0,114.0
1187,277.2173482625,277.39133457500003,56.0,105.0
1188,276.00113326250005,277.48930745,49.0,102.0
1189,277.6227532625,277.8355908875,58.0,102.0
1190,277.6227532625,278.05687445,61.0,100.0
1191,278.0281582625,278.3997795125,58.0,114.0
1192,278.4335632625,278.8288331375,65.0,102.0
1193,278.4335632625,278.85923851250004,61.0,97.0
1194,277.6227532625,278.9335627625,46.0,97.0
1195,278.83896826250003,279.3474137,58.0,111.0
1196,279.2443732625,279.68356201250003,61.0,87.0
1197,279.64977826250004,279.92849420000005,54.0,97.0
1198,280.0551832625,280.1058588875,54.0,64.0
1199,279.2443732625,280.44200720000003,42.0,94.0
1200,280.0551832625,280.47748013750004,58.0,105.0
1201,280.0551832625,280.519709825,61.0,102.0
1202,280.0551832625,280.57883138750003,49.0,62.0
1203,280.46058826250004,280.61599351250004,54.0,105.0
1204,280.8659932625,281.073763325,56.0,89.0
1205,280.8659932625,281.30011445,60.0,102.0
1206,281.27139826250004,281.587276325,56.0,89.0
1207,281.6768032625,282.11430282500004,63.0,92.0
1208,282.0822082625,282.2409918875,61.0,102.0
1209,280.8659932625,282.2443702625,44.0,100.0
1210,282.4876132625,282.62443745,56.0,78.0
1211,282.4876132625,282.99268032500004,61.0,87.0
1212,282.4876132625,283.00281545,65.0,92.0
1213,282.89301826250005,283.188626075,56.0,66.0
1214,283.2984232625,283.52815276250004,61.0,102.0
1215,283.2984232625,283.7443687625,65.0,102.0
1216,282.4876132625,283.75281470000004,49.0,102.0
1217,283.7038282625,283.985922575,63.0,87.0
1218,284.1092332625,284.54673282500005,58.0,94.0
1219,284.1092332625,284.57713820000004,61.0,94.0
1220,284.92004326250003,285.0551782625,58.0,102.0
1221,284.5146382625,285.262948325,53.0,84.0
1222,284.92004326250003,285.2882861375,61.0,114.0
1223,284.1092332625,285.32713745,46.0,89.0
1224,284.92004326250003,285.3930157625,65.0,102.0
1225,285.3254482625,285.4605832625,58.0,108.0
1226,285.73085326250003,286.23423113750005,58.0,89.0
1227,285.73085326250003,286.3592310125,54.0,89.0
1228,285.73085326250003,286.9639601375,42.0,94.0
1229,286.1362582625,287.0349060125,49.0,69.0
1230,286.54166326250004,287.0450411375,61.0,111.0
1231,286.54166326250004,287.05686545000003,58.0,100.0
1232,286.9470682625,287.148081575,54.0,100.0
1233,287.35247326250004,287.5653108875,60.0,94.0
1234,287.5551757625,287.5653108875,60.0,87.0
1235,287.35247326250004,287.830513325,65.0,89.0
1236,287.35247326250004,288.29841826250004,53.0,105.0
1237,288.16328326250004,288.364296575,65.0,114.0
1238,288.16328326250004,288.3794992625,68.0,100.0
1239,288.16328326250004,288.4099046375,60.0,108.0
1240,288.9740932625,289.1565255125,42.0,97.0
1241,288.9740932625,289.1717282,58.0,102.0
1242,288.9740932625,289.17510657500003,54.0,89.0
1243,288.9740932625,289.21395788750004,61.0,89.0
1244,289.78490326250005,290.12949751250005,65.0,84.0
1245,289.78490326250005,290.1801731375,60.0,89.0
1246,289.78490326250005,290.269700075,68.0,89.0
1247,289.78490326250005,290.4284837,53.0,105.0
1248,290.5957132625,290.7004428875,66.0,82.0
1249,290.5957132625,291.26632070000005,58.0,94.0
1250,290.5957132625,291.28152338750004,63.0,92.0
1251,290.5957132625,291.3017936375,51.0,105.0
1252,291.4065232625,291.92172545,60.0,97.0
1253,291.4065232625,292.02307670000005,44.0,100.0
1254,291.4065232625,292.026455075,56.0,84.0
1255,292.2173332625,295.5475451625,60.0,89.0
1256,292.2173332625,295.6054511625,32.0,76.0
1257,292.2173332625,295.6054511625,56.0,76.0
1258,292.2173332625,295.6286135625,44.0,100.0
1259,292.2173332625,295.67686856250003,68.0,97.0
1260,295.8428657625,296.8452076875,61.0,97.0
1261,296.3046676875,296.89081575,53.0,38.0
1262,297.1154776875,297.64250418750004,53.0,26.0
1263,296.71007268750003,297.66277443750005,56.0,105.0
1264,297.52088268750003,298.4229088125,65.0,97.0
1265,297.9262876875,298.66277343750005,53.0,40.0
1266,295.8428657625,298.71007068750004,49.0,97.0
1267,298.33169268750004,298.7708814375,61.0,97.0
1268,298.7370976875,298.9229083125,56.0,102.0
1269,299.14250268750004,299.64756975,54.0,78.0
1270,299.14250268750004,299.995542375,58.0,89.0
1271,299.14250268750004,300.29790693750004,42.0,89.0
1272,299.5479076875,300.3384474375,49.0,44.0
1273,299.95331268750004,300.427974375,54.0,97.0
1274,300.3587176875,300.68810925,58.0,78.0
1275,300.76412268750005,301.31479781250005,60.0,89.0
1276,300.76412268750005,301.35027075000005,56.0,87.0
1277,301.57493268750005,301.7877703125,60.0,92.0
1278,301.57493268750005,301.857027,56.0,82.0
1279,300.76412268750005,301.91277018750003,44.0,102.0
1280,301.1695276875,301.91445937500004,51.0,58.0
1281,302.3857426875,303.3012823125,61.0,89.0
1282,302.3857426875,303.55297125000004,65.0,89.0
1283,303.1965526875,304.0816869375,56.0,89.0
1284,303.60195768750003,304.10533556250004,61.0,76.0
1285,304.41276768750004,304.694862,56.0,34.0
1286,304.0073626875,304.8012808125,65.0,94.0
1287,304.8181726875,304.98202387500004,56.0,87.0
1288,302.79114768750003,305.2370911875,53.0,57.0
1289,302.3857426875,305.29452356250005,49.0,89.0
1290,304.8181726875,305.299591125,61.0,100.0
1291,305.22357768750004,305.46513150000004,56.0,78.0
1292,305.6289826875,306.03438768750004,61.0,78.0
1293,305.6289826875,306.27594150000004,58.0,80.0
1294,306.03438768750004,306.52107374999997,54.0,100.0
1295,305.6289826875,306.9483942,42.0,82.0
1296,306.442905375,307.02829965,61.0,92.0
1297,306.859803375,307.050881625,54.0,80.0
1298,307.28748855000003,308.19560242500006,56.0,76.0
1299,307.28748855000003,308.22933555000003,60.0,87.0
1300,307.28748855000003,309.0296499875,44.0,76.0
1301,308.63454682083335,309.0378386541667,56.0,94.0
1302,308.16936555,309.0562631541667,63.0,92.0
1303,307.72493355,309.0705933208334,51.0,80.0
1304,309.2343666541667,311.2487786541667,56.0,64.0
1305,309.0460273208334,311.2549201541667,49.0,100.0
1306,309.53939448750003,311.26925032083335,68.0,76.0
1307,309.4616021541667,311.2876748208334,65.0,69.0
1308,309.3469608208334,311.28972198750006,61.0,80.0
1309,309.69497915416673,311.30814648750004,73.0,82.0
