,start,end,pitch,velocity
0,0.6250000416666667,0.8366936041666667,72.0,93.0
1,0.8669355416666668,1.1068549125,80.0,100.0
2,1.1088710416666667,1.3427420250000002,79.0,89.0
3,1.3508065416666668,4.290322866666667,80.0,107.0
4,4.495968041666667,4.6995970875,72.0,74.0
5,4.737903541666667,4.973790654166667,80.0,117.0
6,4.979839041666667,5.245968091666667,79.0,82.0
7,5.221774541666667,8.192332847916667,80.0,117.0
8,8.357015395833335,8.553443977083335,72.0,86.0
9,8.595110645833334,8.813364625,80.0,107.0
10,8.833205895833334,9.06931701875,79.0,97.0
11,9.071301145833335,10.607015508333333,80.0,117.0
12,10.499872645833335,10.724079006250001,82.0,122.0
13,11.452253645833334,11.668523497916667,75.0,107.0
14,10.737967895833334,11.733999691666668,79.0,107.0
15,11.690348895833335,12.200269556250001,70.0,102.0
16,12.404634645833333,12.628841006250001,75.0,107.0
17,12.642729895833334,14.343126806250002,72.0,100.0
18,15.976063395833334,16.196301502083333,72.0,90.0
19,16.214158645833336,16.460190404166667,80.0,112.0
20,16.452253895833334,16.704238035416665,79.0,95.0
21,16.690349145833334,19.432412775000003,80.0,127.0
22,19.785587395833332,20.037571535416667,72.0,77.0
23,20.023682645833333,20.281619166666665,80.0,117.0
24,20.261777895833333,20.53360330625,79.0,93.0
25,20.499873145833334,22.790995920833335,80.0,117.0
26,23.63575404166667,23.827286312500004,72.0,89.0
27,23.87768954166667,24.117608912500003,80.0,117.0
28,24.11962504166667,24.369625058333337,79.0,100.0
29,24.36156054166667,25.865592900000003,80.0,127.0
30,25.81317354166667,26.010754200000004,84.0,122.0
31,26.055109041666668,27.88172206666667,82.0,122.0
32,27.74865754166667,27.98454465416667,77.0,95.0
33,27.99059304166667,31.094471875000004,79.0,117.0
34,32.113817312500004,32.63613895,39.0,67.0
35,32.3816745625,32.71203183750001,46.0,95.0
36,32.64953181250001,33.125109200000004,51.0,69.0
37,32.88981533333334,33.18025620000001,58.0,93.0
38,33.11040333333334,33.29974136666667,55.0,100.0
39,33.11040333333334,33.34202073333334,63.0,107.0
40,33.330991333333344,33.88679466875001,61.0,95.0
41,33.330991333333344,34.250634100000006,53.0,82.0
42,82.27156654166667,83.23930854166667,68.0,122.0
43,82.27156654166667,83.23930854166667,80.0,122.0
44,83.23930854166667,84.24737312500001,69.0,127.0
45,83.23930854166667,84.24737312500001,81.0,127.0
46,84.20705054166667,86.65261522083334,70.0,127.0
47,84.20705054166667,86.65261522083334,82.0,127.0
48,99.11648564583334,99.33473962500001,77.0,79.0
49,99.23553327083334,99.49743804583335,79.0,89.0
50,99.35458089583334,99.64823170416668,80.0,99.0
51,99.47362852083334,99.73950155000001,82.0,112.0
52,99.59267614583334,100.34862856458334,85.0,127.0
53,106.08493204166668,106.28049657083335,85.0,127.0
54,106.32686754166667,106.61315788333334,84.0,102.0
55,106.56880304166668,106.83896435000001,82.0,127.0
56,106.81073854166668,107.06073855833334,80.0,100.0
57,107.05267404166668,107.48210955416668,79.0,89.0
58,107.29460954166667,108.05670636666667,82.0,127.0
59,114.55267454166668,115.00831973333335,60.0,95.0
60,115.03654554166668,116.36719079166667,67.0,96.0
61,116.48815854166668,116.87928760000001,63.0,117.0
62,116.97202954166667,119.50220702083335,65.0,99.0
63,120.11318429166668,120.32352072916669,72.0,93.0
64,118.90751354166667,120.45773540833335,60.0,96.0
65,120.35356879166669,120.59195008750002,80.0,100.0
66,120.59395329166668,120.82632497500002,79.0,89.0
67,120.83433779166668,123.75500946666669,80.0,107.0
68,123.95933629166669,124.16165991250001,72.0,74.0
69,124.19972079166669,124.43409567916669,80.0,117.0
70,124.44010529166668,124.70452824166668,79.0,82.0
71,124.68048979166669,127.63922234583336,80.0,117.0
72,127.80548829166669,128.00380550416668,72.0,86.0
73,128.04587279166668,128.26622525000002,80.0,107.0
74,128.2862572916667,128.52463858750002,79.0,97.0
75,128.5266417916667,130.07712181666668,80.0,117.0
76,129.9689487916667,130.1953108625,82.0,122.0
77,130.93048679166668,131.14883604583335,75.0,107.0
78,130.2093332916667,131.21494178333336,79.0,107.0
79,131.17087129166669,131.68569476250002,70.0,102.0
80,131.8920247916667,132.11838686250002,75.0,107.0
81,132.13240929166668,133.8491552625,72.0,100.0
82,135.49779229166668,135.7201479541667,72.0,90.0
83,135.7381767916667,135.98657410833334,80.0,112.0
84,135.9785612916667,136.23296822083336,79.0,95.0
85,136.2189457916667,138.98737395,80.0,127.0
86,139.34394429166667,139.59835122083337,72.0,77.0
87,139.58432879166668,139.84474533333335,80.0,117.0
88,139.82471329166668,140.0991522625,79.0,93.0
89,140.0650977916667,142.35075374583334,80.0,117.0
90,143.1900962916667,143.3804006875,72.0,89.0
91,143.4304807916667,143.66886208750003,80.0,117.0
92,143.6708652916667,143.91926260833336,79.0,100.0
93,143.91124979166668,145.40564010000003,80.0,127.0
94,145.35355679166668,145.5498708,84.0,122.0
95,145.59394129166668,147.40884426666668,82.0,122.0
96,147.27663279166669,147.51100767916668,77.0,95.0
97,147.5170172916667,150.62198375000003,79.0,117.0
98,151.60355379166668,152.07230356666668,39.0,67.0
99,151.8439382916667,152.14041250833336,46.0,95.0
100,152.0843227916667,152.58367657500003,51.0,69.0
101,152.3256120416667,152.64416045000002,58.0,93.0
102,152.5675475416667,152.77520884583336,55.0,100.0
103,152.5675475416667,152.82157981666668,63.0,107.0
104,152.8094830416667,153.37198307916668,61.0,95.0
105,152.8094830416667,153.70061213333335,53.0,82.0
106,186.2914195416667,187.25916154166669,68.0,122.0
107,186.2914195416667,187.25916154166669,80.0,122.0
108,187.25916154166669,188.26722612500004,69.0,127.0
109,187.25916154166669,188.26722612500004,81.0,127.0
110,188.2269035416667,190.67246822083337,70.0,127.0
111,188.2269035416667,190.67246822083337,82.0,127.0
112,201.71384754166672,202.5626379208334,80.0,127.0
113,201.71384754166672,202.58279921250005,68.0,117.0
114,203.16546054166673,203.38531462500006,77.0,79.0
115,202.6815895416667,203.41309240416672,81.0,100.0
116,202.6815895416667,203.46269558125005,69.0,117.0
117,203.28610827083338,203.5480130458334,79.0,89.0
118,203.4051558958334,203.6988067041667,80.0,99.0
119,203.5242035208334,203.79007655000007,82.0,112.0
120,203.6432511458334,204.3992035645834,85.0,127.0
121,210.13550704166673,210.3310715708334,85.0,127.0
122,210.37744254166674,210.6637328833334,84.0,102.0
123,210.61937804166672,210.88953935000006,82.0,127.0
124,210.86131354166673,211.1113135583334,80.0,100.0
125,211.11332968750006,211.54276520000008,80.0,89.0
126,211.34518454166673,212.10728136666674,82.0,127.0
127,231.83289704166674,232.0647518958334,72.0,95.0
128,232.07483254166672,232.30870352500006,80.0,127.0
129,232.31676804166673,232.5667680583334,79.0,99.0
130,232.55870354166674,233.59902619166672,80.0,117.0
131,233.76838104166674,234.0183810583334,72.0,90.0
132,234.01031654166673,234.2421713958334,80.0,122.0
133,234.25225204166674,234.48007463750005,79.0,92.0
134,234.49418754166675,235.67967149166674,80.0,117.0
135,235.70386504166675,235.95588118750007,72.0,83.0
136,235.94580054166673,236.18571991250008,80.0,122.0
137,236.18773604166674,236.41152637916673,79.0,92.0
138,236.42967154166672,237.66117442916672,80.0,122.0
139,237.8675236458334,238.07387286250005,82.0,127.0
140,238.1056188958334,239.39331737291673,79.0,112.0
141,239.5341903958334,239.75839675625008,72.0,92.0
142,239.7722856458334,240.00839676875006,80.0,122.0
143,240.0103808958334,240.22268249375006,79.0,89.0
144,240.2484761458334,241.2150020583334,80.0,117.0
145,241.44887304166676,241.65855047500008,72.0,95.0
146,241.69080854166674,241.92669565416674,80.0,117.0
147,241.93274404166675,242.16459889583342,79.0,89.0
148,242.17467954166673,243.37629252500008,80.0,122.0
149,243.38435704166673,243.57992157083342,72.0,74.0
150,243.62629254166674,243.86217965416674,80.0,107.0
151,243.86822804166675,244.1061312833334,79.0,82.0
152,244.11016354166674,245.4246797583334,80.0,112.0
153,245.56177654166675,245.80169591250007,82.0,127.0
154,245.80371204166676,253.10008349583342,79.0,117.0
