,start,end,pitch,velocity
0,34.0675983125,34.839920006250004,72.0,112.0
1,34.85380889583334,34.94904699583334,72.0,88.0
2,35.09190414583334,35.278412091666674,72.0,92.0
3,35.32999939583334,35.99865022291667,70.0,100.0
4,36.04428514583334,37.087935991666676,68.0,95.0
5,37.94904714583334,38.43317415416667,72.0,102.0
6,38.665573041666676,38.764363370833344,72.0,85.0
7,38.90750854166668,39.09904081250001,72.0,93.0
8,39.149444041666676,39.37928276666668,70.0,96.0
9,39.39137954166667,39.53049245416668,68.0,107.0
10,39.63331504166668,40.040573133333346,75.0,88.0
11,41.326863541666675,41.60105710833334,72.0,95.0
12,41.56879904166668,41.81879905833334,75.0,107.0
13,41.810734541666676,42.15549262916667,80.0,102.0
14,42.05267004166667,42.15549262916667,80.0,122.0
15,42.53654104166668,42.645412016666675,80.0,102.0
16,42.77847654166668,43.074847529166675,80.0,102.0
17,43.26234754166668,43.44379916666668,80.0,102.0
18,43.504283041666675,43.79258951250001,79.0,97.0
19,43.988154041666675,44.63129924583335,77.0,96.0
20,44.955896041666676,45.127267020833344,77.0,93.0
21,45.19783154166667,45.35307348750001,75.0,96.0
22,45.43976704166668,45.55670253333334,77.0,100.0
23,45.681702541666674,45.790573516666676,79.0,117.0
24,45.92363804166668,46.03250901666668,79.0,95.0
25,46.165573541666674,46.272428387500014,79.0,95.0
26,46.40750904166668,46.69581551250001,79.0,112.0
27,47.133315541666676,47.310734908333345,70.0,107.0
28,47.37525104166667,48.426070360416674,72.0,93.0
29,49.53122914583334,50.02726091666668,72.0,97.0
30,50.24775504166667,50.35259375833334,72.0,90.0
31,50.489690541666675,50.657029262500004,72.0,92.0
32,50.73162604166667,51.13686800416667,70.0,96.0
33,51.21549704166667,52.42517454166667,68.0,112.0
34,53.39291654166667,53.88485205833334,72.0,102.0
35,54.11872304166667,54.21751337083334,72.0,85.0
36,54.36065854166667,54.55219081250001,72.0,93.0
37,54.60259404166667,54.83243276666667,70.0,96.0
38,54.844529541666674,54.98364245416667,68.0,107.0
39,55.08646504166667,55.49372313333334,75.0,88.0
40,56.780013541666676,57.05420710833334,72.0,95.0
41,57.02194904166667,57.27194905833334,75.0,107.0
42,57.26388454166667,57.608642629166674,80.0,102.0
43,57.505820041666674,57.608642629166674,80.0,122.0
44,57.989691041666674,58.098562016666676,80.0,102.0
45,58.23162654166667,58.52799752916667,80.0,102.0
46,58.71549754166667,58.89694916666667,80.0,102.0
47,58.957433041666675,59.24573951250001,79.0,97.0
48,59.44130404166667,60.08444924583334,77.0,96.0
49,60.89291704166667,61.038078341666676,77.0,93.0
50,61.134852541666675,61.22557835416667,75.0,96.0
51,61.37678804166667,61.47154611250001,75.0,100.0
52,61.618723541666675,61.72356225833334,75.0,112.0
53,61.86065904166667,61.951384854166676,77.0,99.0
54,62.102594541666676,62.396949400000004,79.0,117.0
55,62.58646554166667,62.68525587083334,70.0,107.0
56,62.82840104166667,64.06832047916667,72.0,96.0
57,65.00582054166668,65.71549800625002,72.0,112.0
58,65.72938689583334,65.82462499583335,72.0,88.0
59,65.96748214583334,66.15399009166667,72.0,92.0
60,66.20557739583334,66.87422822291668,70.0,100.0
61,66.91986314583335,67.96351399166667,68.0,95.0
62,68.82462514583334,69.30875215416668,72.0,102.0
63,69.53891089583334,69.63613312291668,72.0,85.0
64,69.77700614583334,69.96549821875001,72.0,93.0
65,70.01510139583334,70.24129188333335,70.0,96.0
66,70.25319664583334,70.39010141458334,68.0,107.0
67,70.49129189583334,71.50121258125002,75.0,88.0
68,72.15795864583335,72.42779992916668,72.0,95.0
69,72.39605389583335,72.64208565416668,75.0,107.0
70,72.63414914583335,72.97343487708335,80.0,102.0
71,72.87224439583335,72.97343487708335,80.0,122.0
72,73.34843489583335,73.45557775833335,80.0,102.0
73,73.58653014583335,73.87819682708334,80.0,102.0
74,74.06272064583334,74.24129208333335,80.0,102.0
75,74.30081589583334,74.58454606875002,79.0,97.0
76,74.77700639583334,75.41471124583335,77.0,96.0
77,75.73930804166667,75.91067902083334,77.0,93.0
78,75.98124354166667,76.13648548750001,75.0,96.0
79,76.22317904166667,76.34011453333335,77.0,100.0
80,76.46511454166668,76.77963069166668,79.0,117.0
81,76.94898554166667,77.43285654166668,79.0,95.0
82,78.15866304166667,78.25946950000001,79.0,95.0
83,78.40059854166668,78.67479210833334,79.0,117.0
84,78.88446954166668,79.12035665416667,79.0,112.0
85,79.36834054166667,79.53769539166667,80.0,107.0
86,79.61027604166668,80.29575995833335,79.0,97.0
87,80.33608254166667,81.75745360416667,77.0,112.0
88,83.96511504166668,84.11632472916668,84.0,122.0
89,84.20705054166667,84.53971185416668,85.0,127.0
90,84.69092154166668,84.97519575416668,85.0,127.0
91,85.17479254166668,85.30584093750001,85.0,127.0
92,85.41672804166667,85.98124420833334,84.0,127.0
93,86.14253454166668,87.11213265416667,82.0,127.0
94,87.34229139583334,87.43752949583335,75.0,117.0
95,87.58038664583334,87.67959300000001,75.0,102.0
96,87.81848189583334,87.92364063125001,75.0,122.0
97,88.05657714583334,88.15776762708335,84.0,107.0
98,88.29467239583335,88.39387875000001,84.0,102.0
99,88.53276764583335,88.61411685625,84.0,112.0
100,88.77310304166669,88.85778046666668,84.0,112.0
101,89.01503854166668,89.12189338750001,84.0,100.0
102,89.49890954166668,89.79931278750001,82.0,127.0
103,89.98278054166668,91.36181289166669,80.0,117.0
104,91.91826454166669,91.99689357916668,82.0,127.0
105,92.16020004166668,92.23681295000002,82.0,102.0
106,92.40213554166668,92.47068393333335,82.0,112.0
107,92.64407104166668,92.7146355625,82.0,112.0
108,92.88600654166667,92.96261945000002,82.0,127.0
109,93.12794204166669,93.37592592916668,82.0,122.0
110,93.61181304166668,93.71463562916668,80.0,127.0
111,93.85374854166668,94.33761954166668,79.0,127.0
112,94.33761954166668,94.78318408750002,79.0,127.0
113,95.54505689583334,95.63831086875001,79.0,92.0
114,95.78315214583334,95.86450135625,80.0,122.0
115,96.02124739583334,96.12442200416668,79.0,90.0
116,96.25934264583334,96.35061249166668,80.0,127.0
117,96.49743789583334,96.59069186875001,79.0,89.0
118,96.73553314583334,96.86251727916668,80.0,127.0
119,96.97362839583334,97.25339031458334,82.0,112.0
120,97.44981889583335,98.62839038333334,84.0,112.0
121,99.59267614583334,99.92005711458334,85.0,127.0
122,100.06886664583334,100.34862856458334,85.0,127.0
123,100.54505714583334,100.67402540625001,85.0,127.0
124,100.78315239583334,101.33870797916667,84.0,127.0
125,101.49743814583334,102.46396405833335,82.0,127.0
126,102.93977054166668,103.04057700000001,75.0,102.0
127,103.18170604166667,103.28856088750001,75.0,122.0
128,103.42364154166668,103.52646412916668,84.0,107.0
129,103.90751254166668,103.99017383750001,84.0,112.0
130,104.39138354166668,104.49823838750001,84.0,100.0
131,104.63331904166668,104.72807711250002,84.0,122.0
132,104.87525454166668,105.17565778750001,82.0,127.0
133,105.35912554166669,106.73815789166667,80.0,117.0
134,107.05267404166668,107.22202889166668,80.0,127.0
135,107.29460954166667,107.37323857916668,82.0,127.0
136,107.77848054166668,107.84702893333335,82.0,112.0
137,108.02041604166668,108.09098056250001,82.0,112.0
138,108.26235154166667,108.77646447916668,82.0,127.0
139,108.74622254166668,109.01033546250001,80.0,127.0
140,109.59299679166668,110.165577475,79.0,127.0
141,111.40751304166668,111.49622272500001,79.0,97.0
142,111.64944854166669,111.74622274166668,79.0,88.0
143,111.89138404166668,112.00428727500001,79.0,92.0
144,112.13331954166668,112.33291632916668,80.0,112.0
145,112.37525504166668,112.88331959166668,79.0,100.0
146,113.10106154166668,113.33694865416668,77.0,96.0
147,113.58493254166667,116.32081982083335,77.0,112.0
148,153.53528954166669,154.03932183333336,72.0,97.0
149,154.2610960416667,154.36593475833337,72.0,90.0
150,154.5030315416667,154.67037026250003,72.0,92.0
151,154.74496704166668,155.1502090041667,70.0,96.0
152,155.2288380416667,156.4385155416667,68.0,112.0
153,157.4062575416667,157.89819305833336,72.0,102.0
154,158.1320640416667,158.23085437083336,72.0,85.0
155,158.3739995416667,158.56553181250004,72.0,93.0
156,158.6159350416667,158.8457737666667,70.0,96.0
157,158.8578705416667,158.9969834541667,68.0,107.0
158,159.09980604166668,159.50706413333336,75.0,88.0
159,160.7933545416667,161.06754810833337,72.0,95.0
160,161.03529004166668,161.28529005833337,75.0,107.0
161,161.2772255416667,161.6219836291667,80.0,102.0
162,161.5191610416667,161.6219836291667,80.0,122.0
163,162.0030320416667,162.1119030166667,80.0,102.0
164,162.2449675416667,162.5413385291667,80.0,102.0
165,162.7288385416667,162.9102901666667,80.0,102.0
166,162.9707740416667,163.25908051250002,79.0,97.0
167,163.4546450416667,164.09779024583335,77.0,96.0
168,164.9062580416667,165.0514193416667,77.0,93.0
169,165.1481935416667,165.23891935416668,75.0,96.0
170,165.39012904166668,165.48488711250002,75.0,100.0
171,165.6320645416667,165.73690325833337,75.0,112.0
172,165.8740000416667,165.9647258541667,77.0,99.0
173,166.1159355416667,166.41029040000004,79.0,117.0
174,166.5998065416667,166.69859687083337,70.0,107.0
175,166.8417420416667,168.07835500000002,72.0,96.0
176,169.00835500000002,169.714355,72.0,112.0
177,169.72835500000002,169.82435500000003,72.0,88.0
178,169.96835500000003,170.15635500000002,72.0,92.0
179,170.208355,170.88235500000002,70.0,100.0
180,170.928355,171.98035500000003,68.0,95.0
181,172.84835500000003,173.33635500000003,72.0,102.0
182,173.56835500000003,173.666355,72.0,85.0
183,173.808355,173.99835500000003,72.0,93.0
184,174.04835500000002,174.27635500000002,70.0,96.0
185,174.28835500000002,174.42635500000003,68.0,107.0
186,174.52835500000003,175.546355,75.0,88.0
187,176.208355,176.48035500000003,72.0,95.0
188,176.44835500000002,176.696355,75.0,107.0
189,176.68835500000003,177.03035500000001,80.0,102.0
190,176.928355,177.03035500000001,80.0,122.0
191,177.40835500000003,177.51635500000003,80.0,102.0
192,177.648355,177.94235500000002,80.0,102.0
193,178.12835500000003,178.308355,80.0,102.0
194,178.368355,178.654355,79.0,97.0
195,178.84835500000003,179.48635500000003,77.0,96.0
196,179.808355,179.97835500000002,77.0,93.0
197,180.04835500000002,180.202355,75.0,96.0
198,180.28835500000002,180.404355,77.0,100.0
199,180.52835500000003,180.84035500000002,79.0,117.0
200,181.00835500000002,181.488355,79.0,95.0
201,182.208355,182.308355,79.0,95.0
202,182.44835500000002,182.720355,79.0,117.0
203,182.928355,183.16235500000002,79.0,112.0
204,183.40835500000003,183.576355,80.0,107.0
205,183.648355,184.32835500000002,79.0,97.0
206,184.368355,187.46883897500004,77.0,112.0
207,187.9849680416667,188.1361777291667,84.0,122.0
208,188.2269035416667,188.5595648541667,85.0,127.0
209,188.7107745416667,188.9950487541667,85.0,127.0
210,189.1946455416667,189.32569393750003,85.0,127.0
211,189.4365810416667,190.00109720833336,84.0,127.0
212,190.1623875416667,191.13819405833337,82.0,127.0
213,191.3720650416667,191.4688392416667,75.0,117.0
214,191.61400054166668,191.71480700000004,75.0,102.0
215,191.8559360416667,191.96279088750003,75.0,122.0
216,192.0978715416667,192.2006941291667,84.0,107.0
217,192.3398070416667,192.44061350000004,84.0,102.0
218,192.5817425416667,192.66440383750003,84.0,112.0
219,192.8236780416667,192.9083554666667,84.0,112.0
220,193.0656135416667,193.17246838750003,84.0,100.0
221,193.5494845416667,193.84988778750002,82.0,127.0
222,194.0333555416667,195.4123878916667,80.0,117.0
223,195.9627591458334,196.04014010208337,82.0,127.0
224,196.20085439583337,196.27625122500004,82.0,102.0
225,196.43894964583336,196.5064099666667,82.0,112.0
226,196.67704489583338,196.74648934375003,82.0,112.0
227,196.91514014583336,196.99053697500005,82.0,127.0
228,197.15323539583338,197.39728302708338,82.0,122.0
229,197.62942589583338,197.73061637708338,80.0,127.0
230,197.86752114583336,198.34371164583337,79.0,127.0
231,198.34371164583337,198.78220373125004,79.0,127.0
232,199.5364280416667,199.63118611250005,79.0,92.0
233,199.77836354166672,199.86102483750005,80.0,122.0
234,200.02029904166673,200.12513775833338,79.0,90.0
235,200.26223454166671,200.3549764833334,80.0,127.0
236,200.50417004166673,200.59892811250006,79.0,89.0
237,200.7461055416667,200.8751378083334,80.0,127.0
238,200.98804104166672,201.27231525416673,82.0,112.0
239,201.4719120416667,202.6694927666667,84.0,112.0
240,203.6432511458334,203.9706321145834,85.0,127.0
241,204.11944164583338,204.3992035645834,85.0,127.0
242,204.59563214583338,204.72460040625006,85.0,127.0
243,204.8337273958334,205.38928297916672,84.0,127.0
244,205.54801314583338,206.51453905833338,82.0,127.0
245,206.99034554166673,207.09115200000005,75.0,102.0
246,207.23228104166674,207.33913588750008,75.0,122.0
247,207.47421654166672,207.57703912916674,84.0,107.0
248,207.95808754166674,208.04074883750008,84.0,112.0
249,208.44195854166674,208.54881338750008,84.0,100.0
250,208.68389404166672,208.77865211250005,84.0,122.0
251,208.92582954166673,209.22623278750007,82.0,127.0
252,209.40970054166672,210.78873289166674,80.0,117.0
253,211.10324904166674,211.27260389166673,80.0,127.0
254,211.34518454166673,211.42381357916673,82.0,127.0
255,211.82905554166672,211.8976039333334,82.0,112.0
256,212.07099104166673,212.14155556250006,82.0,112.0
257,212.31292654166674,212.82703947916673,82.0,127.0
258,212.79679754166673,213.06091046250006,80.0,127.0
259,213.49841049166673,214.21615247500006,79.0,127.0
260,215.45808804166674,215.54679772500006,79.0,97.0
261,215.70002354166672,215.79679774166672,79.0,88.0
262,215.94195904166673,216.05486227500006,79.0,92.0
263,216.18389454166675,216.38349132916673,80.0,112.0
264,216.42583004166673,216.93389459166673,79.0,100.0
265,217.15163654166673,217.38752365416673,77.0,96.0
266,217.63550754166673,218.7625237458334,77.0,112.0
267,219.08712054166674,220.7809250395834,79.0,122.0
268,221.00116314583337,222.07457589791673,80.0,122.0
269,222.1916393958334,222.4535441708334,80.0,127.0
270,222.6678298958334,222.82656006250005,80.0,122.0
271,222.90592514583338,223.75314741041672,79.0,127.0
272,224.81676754166674,226.79257412500007,77.0,107.0
273,226.75225154166674,228.43975165416674,79.0,117.0
274,228.68773554166674,229.88330013750007,80.0,127.0
275,229.89741304166674,230.17967112500006,80.0,127.0
276,230.38128404166673,230.53652598750006,80.0,112.0
277,230.62321954166674,231.82080026666674,79.0,127.0
278,231.83289704166674,232.0949938333334,79.0,102.0
279,232.31676804166673,232.4881390208334,79.0,102.0
280,232.55870354166674,235.55668761250007,77.0,127.0
