,start,end,pitch,velocity
0,2.318548541666667,2.866935675,67.0,89.0
1,2.8024195416666666,5.372984229166667,65.0,88.0
2,5.221774541666667,5.372984229166667,65.0,79.0
3,1.8346775416666667,5.403226166666667,48.0,41.0
4,2.318548541666667,5.429435845833334,53.0,44.0
5,1.3508065416666668,5.560484241666667,41.0,75.0
6,5.221774541666667,5.822581033333334,61.0,81.0
7,5.221774541666667,5.8245971625,68.0,96.0
8,6.673387541666667,7.532258566666667,56.0,40.0
9,6.189516541666667,7.811380447916667,68.0,88.0
10,6.189516541666667,7.847094735416667,65.0,75.0
11,6.673387541666667,8.0157455375,61.0,83.0
12,7.641129541666667,8.184396339583333,56.0,56.0
13,5.705645541666667,8.216142372916668,53.0,52.0
14,5.221774541666667,8.253840787500001,49.0,67.0
15,8.118920145833334,8.436380479166667,65.0,81.0
16,8.118920145833334,8.45026936875,68.0,88.0
17,9.071301145833335,9.228047185416667,58.0,64.0
18,9.071301145833335,9.275666235416667,61.0,81.0
19,9.547491645833334,10.493920264583334,58.0,49.0
20,9.071301145833335,10.547491695833333,46.0,97.0
21,10.023682145833334,10.684396464583333,61.0,89.0
22,10.023682145833334,10.726063133333334,65.0,92.0
23,11.452253645833334,12.077253677083334,55.0,59.0
24,10.976063145833335,12.212174318750002,48.0,76.0
25,11.928444145833334,12.934396577083334,67.0,78.0
26,11.928444145833334,12.954237847916668,63.0,83.0
27,11.928444145833334,12.964158483333335,60.0,71.0
28,13.357015645833334,15.0157458875,48.0,67.0
29,13.833206145833334,15.601063377083335,60.0,82.0
30,13.833206145833334,15.636777664583335,56.0,93.0
31,14.309396645833335,15.7538411625,53.0,85.0
32,12.880825145833334,16.329238016666668,41.0,78.0
33,15.737968145833335,16.589158664583334,56.0,66.0
34,15.737968145833335,16.61693644375,60.0,85.0
35,15.261777645833334,16.620904697916668,48.0,37.0
36,17.642730145833333,18.180428585416667,67.0,96.0
37,17.642730145833333,18.55344447708333,53.0,57.0
38,18.118920645833335,18.6943175,65.0,96.0
39,19.071301645833334,19.53757151041667,53.0,49.0
40,17.166539645833332,19.78360326875,48.0,48.0
41,16.690349145833334,19.8490794625,41.0,89.0
42,19.547492145833335,20.07725407708333,56.0,102.0
43,19.547492145833335,20.079238204166668,60.0,88.0
44,20.023682645833333,20.422492189583334,53.0,46.0
45,20.976063645833335,21.51881841666667,58.0,83.0
46,21.45833454166667,22.823253987500003,65.0,90.0
47,21.45833454166667,22.962366900000003,61.0,102.0
48,20.499873145833334,23.43615725416667,46.0,102.0
49,21.94220554166667,23.512770162500004,58.0,85.0
50,23.39381854166667,23.746641145833337,65.0,68.0
51,24.36156054166667,25.52889932916667,53.0,69.0
52,24.36156054166667,25.54704449166667,37.0,82.0
53,24.84543154166667,25.736560633333337,49.0,58.0
54,25.32930254166667,26.29099615416667,61.0,90.0
55,24.36156054166667,26.343415512500002,56.0,99.0
56,26.297044541666672,28.055109175000005,39.0,86.0
57,26.78091554166667,28.282931770833336,51.0,83.0
58,27.26478654166667,29.331318937500004,58.0,100.0
59,28.71639954166667,34.0229554375,51.0,47.0
60,29.68414154166667,34.03858044375001,58.0,56.0
61,29.20027054166667,34.043044731250006,55.0,63.0
62,30.161932145833337,34.043044731250006,63.0,77.0
63,28.23252854166667,34.07429474375,39.0,89.0
64,34.0675983125,34.616705675000006,72.0,69.0
65,34.0675983125,34.683669987500004,68.0,93.0
66,34.0675983125,34.73674539791667,63.0,93.0
67,34.60331281250001,35.30023748958334,56.0,72.0
68,35.09190414583334,35.38357082708334,63.0,90.0
69,35.09190414583334,35.453015275000006,72.0,69.0
70,34.0675983125,35.53833273958334,44.0,93.0
71,35.09190414583334,35.964920062500006,68.0,99.0
72,36.04428514583334,36.137539118750006,68.0,60.0
73,36.04428514583334,36.37960262291667,65.0,82.0
74,36.04428514583334,37.34587251250001,41.0,76.0
75,36.520475645833336,37.38555505416667,48.0,55.0
76,36.99666614583334,37.40738045208334,53.0,47.0
77,36.99666614583334,37.51849156875001,65.0,76.0
78,36.99666614583334,37.55420585625001,68.0,88.0
79,37.47285664583334,37.55618998333334,60.0,37.0
80,37.94904714583334,38.337936054166676,72.0,76.0
81,37.94904714583334,38.39745986666667,68.0,88.0
82,37.94904714583334,39.15347630000001,44.0,92.0
83,38.90750854166668,39.17766985000001,72.0,65.0
84,38.90750854166668,39.20387952916668,68.0,73.0
85,38.42523764583334,39.294605341666674,56.0,62.0
86,39.875250541666674,40.643395754166676,60.0,74.0
87,39.875250541666674,40.661540916666674,67.0,75.0
88,39.875250541666674,40.67363769166668,63.0,81.0
89,40.60105704166668,40.93371835416668,55.0,58.0
90,41.08492804166668,41.18573450000001,55.0,57.0
91,39.875250541666674,41.18775062916668,48.0,72.0
92,40.842992541666675,41.46597645416668,67.0,107.0
93,41.326863541666675,41.49621839166667,63.0,86.0
94,41.810734541666676,42.369202320833345,60.0,81.0
95,41.810734541666676,42.46194426250001,65.0,81.0
96,41.810734541666676,42.599041045833346,68.0,97.0
97,42.77847654166668,42.93371848750001,65.0,89.0
98,42.77847654166668,42.93775074583334,68.0,96.0
99,41.810734541666676,42.94379913333334,41.0,69.0
100,42.29460554166668,42.96799268333334,48.0,40.0
101,42.77847654166668,43.050653979166675,53.0,61.0
102,43.74621854166668,44.470008912500006,65.0,82.0
103,43.74621854166668,44.49218633333334,62.0,68.0
104,43.74621854166668,44.51637988333334,58.0,92.0
105,44.71396054166668,44.88734765000001,58.0,96.0
106,43.74621854166668,44.91355732916668,46.0,97.0
107,44.71396054166668,44.91355732916668,62.0,82.0
108,44.71396054166668,45.01436378750001,65.0,73.0
109,45.681702541666674,46.425654204166676,67.0,85.0
110,45.681702541666674,46.451863883333345,70.0,88.0
111,45.681702541666674,46.52847679166668,63.0,86.0
112,46.165573541666674,46.84299294166668,55.0,27.0
113,46.649444541666675,46.98008972500001,58.0,70.0
114,45.681702541666674,47.05065424583334,51.0,78.0
115,47.133315541666676,47.55267040833334,63.0,33.0
116,46.649444541666675,47.57283170000001,67.0,60.0
117,46.649444541666675,47.691783320833345,70.0,64.0
118,48.34075289583334,48.69789577083334,63.0,55.0
119,48.10105754166668,48.701864025000006,56.0,66.0
120,48.81694339583334,49.003451341666675,56.0,95.0
121,47.617186541666676,49.02527673958334,44.0,85.0
122,49.05503864583334,49.414165647916676,68.0,56.0
123,48.57884814583334,49.513372002083344,72.0,86.0
124,49.29313389583334,49.559006925000006,63.0,58.0
125,49.56495930625001,50.05305456875001,72.0,69.0
126,49.56495930625001,50.11065825833334,68.0,93.0
127,49.56495930625001,50.16106148750001,63.0,93.0
128,50.041149806250004,50.735658300000004,56.0,72.0
129,50.52396473750001,50.81831959583334,63.0,90.0
130,50.52396473750001,50.888884116666674,72.0,69.0
131,49.56495930625001,50.97557767083334,44.0,93.0
132,50.52396473750001,51.41106157083334,68.0,99.0
133,51.4917067375,51.58646480833334,68.0,60.0
134,51.4917067375,51.830416437500006,65.0,82.0
135,51.4917067375,52.81428747083334,41.0,76.0
136,51.975577737500004,52.85461005416667,48.0,55.0
137,52.459448737500004,52.87477134583334,53.0,47.0
138,52.459448737500004,52.98767457916667,65.0,76.0
139,52.459448737500004,53.02598103333334,68.0,88.0
140,52.943319737500005,53.02799716250001,60.0,37.0
141,53.427190737500005,53.82033592500001,72.0,76.0
142,53.427190737500005,53.882835929166674,68.0,88.0
143,53.427190737500005,54.640900495833336,44.0,92.0
144,54.39493273750001,54.66509404583334,72.0,65.0
145,54.39493273750001,54.68928759583334,68.0,73.0
146,53.911061737500006,54.78001340833334,56.0,62.0
147,55.36267473750001,56.13081995,60.0,74.0
148,55.36267473750001,56.14694898333334,67.0,75.0
149,55.36267473750001,56.15904575833334,63.0,81.0
150,56.088481237500005,56.421142550000006,55.0,58.0
151,56.572352237500006,56.67315869583334,55.0,57.0
152,55.36267473750001,56.675174825000006,48.0,72.0
153,56.3304167375,56.95138452083334,67.0,107.0
154,56.81428773750001,56.98364258750001,63.0,86.0
155,57.2981587375,57.8546103875,60.0,81.0
156,57.2981587375,57.94735232916668,65.0,81.0
157,57.2981587375,58.08646524166667,68.0,97.0
158,58.265900737500004,58.419126554166674,65.0,89.0
159,58.265900737500004,58.42517494166667,68.0,96.0
160,57.2981587375,58.42920720000001,41.0,69.0
161,57.782029737500004,58.45541687916668,48.0,40.0
162,58.265900737500004,58.53807817500001,53.0,61.0
163,59.233642737500006,59.95743310833334,65.0,82.0
164,59.233642737500006,59.97759440000001,62.0,68.0
165,59.233642737500006,60.00178795000001,58.0,92.0
166,60.20138473750001,60.37477184583334,58.0,96.0
167,59.233642737500006,60.400981525000006,46.0,97.0
168,60.20138473750001,60.400981525000006,62.0,82.0
169,60.20138473750001,60.501787983333344,65.0,73.0
170,61.16912673750001,61.9130784,67.0,85.0
171,61.16912673750001,61.93928807916667,70.0,88.0
172,61.16912673750001,62.015900987500004,63.0,86.0
173,61.65299773750001,62.33041713750001,55.0,27.0
174,62.13686873750001,62.46549779166667,58.0,70.0
175,61.16912673750001,62.53807844166667,51.0,78.0
176,62.6207397375,63.038078475000006,63.0,33.0
177,62.13686873750001,63.058239766666674,67.0,60.0
178,62.13686873750001,63.17920751666667,70.0,64.0
179,63.83041723750001,64.19130435833334,63.0,55.0
180,63.588481737500004,64.19735274583334,56.0,66.0
181,64.31428823750001,64.50178825,56.0,95.0
182,63.10461073750001,64.52598180000001,44.0,85.0
183,64.5562237375,64.92114311666667,68.0,56.0
184,64.07235273750001,65.02194957500001,72.0,86.0
185,64.7981592375,65.06832054583334,63.0,58.0
186,65.0400947375,65.06832054583334,63.0,93.0
187,65.0400947375,65.53606251250001,72.0,69.0
188,65.0400947375,65.59446625416668,68.0,93.0
189,65.5239657375,66.20954565000001,56.0,72.0
190,66.00121230625001,66.29089486041667,63.0,90.0
191,66.00121230625001,66.36033930833334,72.0,69.0
192,65.0400947375,66.44565677291668,44.0,93.0
193,66.00121230625001,66.87422822291668,68.0,99.0
194,66.95359330625001,67.04684727916668,68.0,60.0
195,66.95359330625001,67.28692665625002,65.0,82.0
196,66.95359330625001,68.25518067291668,41.0,76.0
197,67.42978380625001,68.29486321458334,48.0,55.0
198,67.90597430625002,68.31470448541668,53.0,47.0
199,67.90597430625002,68.42581560208335,65.0,76.0
200,67.90597430625002,68.46351401666668,68.0,88.0
201,68.38216480625002,68.46549814375001,60.0,37.0
202,68.85835530625,69.24526008750001,72.0,76.0
203,68.85835530625,69.30676802708335,68.0,88.0
204,68.85835530625,70.05279981041667,44.0,92.0
205,69.81073630625,70.07660933541668,72.0,65.0
206,69.81073630625,70.10041886041668,68.0,73.0
207,69.33454580625,70.18970457916667,56.0,62.0
208,70.76311730625001,71.51906972500001,60.0,74.0
209,70.76311730625001,71.53494274166668,67.0,75.0
210,70.76311730625001,71.54684750416668,63.0,81.0
211,71.47740305625001,71.804784025,55.0,58.0
212,71.95359355625001,72.05279991041668,55.0,57.0
213,70.76311730625001,72.05478403750001,48.0,72.0
214,71.71549830625001,72.32660944791668,67.0,107.0
215,72.19168880625001,72.35835548125002,63.0,86.0
216,72.66787930625001,73.21549838125001,60.0,81.0
217,72.66787930625001,73.30676822708334,65.0,81.0
218,72.66787930625001,73.44367299583334,68.0,97.0
219,73.62026030625,73.77105396458334,65.0,89.0
220,73.62026030625,73.77700634583334,68.0,96.0
221,72.66787930625001,73.78097460000001,41.0,69.0
222,73.14406980625002,73.80676825208334,48.0,40.0
223,73.62026030625,73.8881174625,53.0,61.0
224,74.57264130625,75.28769510833334,65.0,82.0
225,74.57264130625,75.3078564,62.0,68.0
226,74.57264130625,75.33204995000001,58.0,92.0
227,75.53164673750001,75.70503384583334,58.0,96.0
228,74.57264130625,75.73124352500001,46.0,97.0
229,75.53164673750001,75.73124352500001,62.0,82.0
230,75.53164673750001,75.83204998333335,65.0,73.0
231,76.46511454166668,76.95906618750001,67.0,82.0
232,76.46511454166668,77.02559845,70.0,83.0
233,76.46511454166668,77.21914685000002,63.0,92.0
234,76.94898554166667,77.60221139166667,51.0,59.0
235,77.43285654166668,77.93487270416668,67.0,99.0
236,77.43285654166668,77.95906625416667,70.0,92.0
237,77.43285654166668,78.03971142083334,63.0,88.0
238,77.91672754166667,78.69092114166668,51.0,37.0
239,78.40059854166668,78.82801792500001,67.0,99.0
240,78.40059854166668,78.91672760833335,63.0,96.0
241,78.40059854166668,78.91874373750001,70.0,92.0
242,78.88446954166668,79.33406634583334,51.0,42.0
243,76.46511454166668,79.4147115125,39.0,74.0
244,79.36834054166667,79.65866314166668,67.0,96.0
245,79.36834054166667,79.72922766250001,70.0,100.0
246,80.33608254166667,81.10624388333335,60.0,100.0
247,80.33608254166667,81.12237291666668,65.0,95.0
248,80.33608254166667,81.1324535625,68.0,99.0
249,81.30382454166667,81.88648587083334,60.0,89.0
250,81.30382454166667,82.11430846666667,68.0,96.0
251,81.30382454166667,82.11632459583335,65.0,95.0
252,81.78769554166668,82.60422785416668,53.0,36.0
253,82.27156654166667,82.70100205416668,68.0,102.0
254,82.27156654166667,83.04777627083334,65.0,97.0
255,82.27156654166667,83.05382465833334,60.0,90.0
256,80.33608254166667,83.05987304583334,41.0,79.0
257,82.75543754166668,83.09414724166668,53.0,37.0
258,80.81995354166668,83.12640530833335,48.0,35.0
259,83.23930854166667,83.29979241666668,48.0,66.0
260,83.23930854166667,84.19495376666667,60.0,99.0
261,83.23930854166667,84.19898602500001,53.0,102.0
262,83.23930854166667,84.19898602500001,63.0,127.0
263,83.23930854166667,84.21914731666668,65.0,107.0
264,84.20705054166667,84.21914731666668,65.0,93.0
265,83.23930854166667,84.22519570416668,69.0,117.0
266,83.23930854166667,84.24737312500001,41.0,78.0
267,84.20705054166667,84.779631225,73.0,107.0
268,84.20705054166667,84.97317962500001,70.0,112.0
269,84.69092154166668,85.25342157916667,58.0,92.0
270,85.17479254166668,85.47116352916667,65.0,95.0
271,84.20705054166667,85.52761514583334,46.0,117.0
272,85.41672804166667,85.54374417916668,58.0,85.0
273,85.17479254166668,85.66067967083335,70.0,127.0
274,85.17479254166668,85.66672805833335,73.0,127.0
275,85.65866354166667,85.83003452083334,65.0,107.0
276,86.14253454166668,86.19898615833334,39.0,107.0
277,86.14253454166668,86.74903739791668,67.0,97.0
278,86.14253454166668,86.75300565208335,70.0,100.0
279,86.14253454166668,86.9772120125,63.0,99.0
280,87.10419614583334,87.38991044583334,63.0,96.0
281,87.34229139583334,87.4534025125,58.0,107.0
282,87.10419614583334,87.52681521458334,67.0,122.0
283,87.10419614583334,87.54467235833334,70.0,122.0
284,87.58038664583334,87.79467237083334,63.0,112.0
285,88.05657714583334,88.50300573958334,72.0,93.0
286,88.05657714583334,88.55062478958334,63.0,107.0
287,88.05657714583334,88.56054542500002,68.0,107.0
288,88.53276764583335,89.08157080416667,56.0,85.0
289,89.01503854166668,89.29326436666668,63.0,102.0
290,88.05657714583334,89.30334501250002,44.0,100.0
291,89.25697404166668,89.41019985833334,56.0,100.0
292,89.01503854166668,89.47269986250001,68.0,122.0
293,89.01503854166668,89.48882889583335,72.0,97.0
294,89.49890954166668,89.58761922500001,63.0,102.0
295,89.98278054166668,90.45253863750001,65.0,99.0
296,89.98278054166668,90.48882896250001,68.0,102.0
297,89.98278054166668,90.50495799583335,61.0,112.0
298,89.98278054166668,90.96463544583335,56.0,102.0
299,90.95052254166669,91.16221610416667,61.0,93.0
300,90.70858704166668,91.21463546250001,53.0,33.0
301,89.98278054166668,91.27108707916668,49.0,73.0
302,91.19245804166668,91.30334514583335,56.0,100.0
303,90.95052254166669,91.37189353750001,65.0,122.0
304,90.95052254166669,91.39003870000002,68.0,122.0
305,91.43439354166668,91.49487741666668,61.0,102.0
306,91.91826454166669,92.67632910833335,55.0,107.0
307,91.91826454166669,92.70253878750002,61.0,112.0
308,91.91826454166669,92.72068395000001,58.0,117.0
309,92.40213554166668,92.91221622083334,50.0,56.0
310,92.88600654166667,92.91221622083334,50.0,66.0
311,91.91826454166669,93.13802268750001,43.0,85.0
312,92.88600654166667,93.38399044583335,58.0,127.0
313,92.88600654166667,93.40818399583335,61.0,117.0
314,93.36987754166668,93.43439367500001,55.0,89.0
315,93.85374854166668,94.48479697083334,60.0,100.0
316,93.85374854166668,94.65011956250001,64.0,96.0
317,93.85374854166668,94.65415182083335,67.0,96.0
318,94.33761954166668,94.88802280416668,55.0,38.0
319,95.06342604166667,95.17028088750001,55.0,82.0
320,93.85374854166668,95.18439379166668,48.0,83.0
321,94.82149054166668,95.32955509166668,67.0,112.0
322,94.82149054166668,95.36181315833335,64.0,122.0
323,95.30536154166668,95.61053308958334,60.0,97.0
324,95.78315214583334,96.56688234375001,60.0,102.0
325,95.78315214583334,96.59664425000001,65.0,112.0
326,95.78315214583334,96.60061250416668,68.0,127.0
327,96.49743789583334,96.82878711875001,53.0,75.0
328,96.73553314583334,97.07878713125001,60.0,97.0
329,96.97362839583334,97.17005697708335,53.0,83.0
330,96.73553314583334,97.22362840833334,68.0,127.0
331,96.73553314583334,97.35259666875001,65.0,117.0
332,95.78315214583334,97.54307286875,41.0,93.0
333,97.44981889583335,97.54307286875,65.0,37.0
334,97.21172364583335,97.56489826666667,60.0,86.0
335,96.25934264583334,97.66608874791667,48.0,36.0
336,97.68791414583335,98.48156497916668,69.0,107.0
337,97.68791414583335,98.48751736041667,63.0,127.0
338,97.68791414583335,98.48751736041667,65.0,117.0
339,97.68791414583335,98.49743799583334,60.0,107.0
340,98.64029514583333,98.91807293750001,60.0,102.0
341,98.16410464583335,99.03116818125001,48.0,42.0
342,97.68791414583335,99.03513643541667,41.0,89.0
343,98.64029514583333,99.14823167916667,65.0,122.0
344,99.11648564583334,99.16013644166668,60.0,82.0
345,98.64029514583333,99.16013644166668,69.0,117.0
346,98.64029514583333,99.16212056875001,63.0,127.0
347,98.87839039583334,99.17204120416667,53.0,90.0
348,99.59267614583334,100.17600950833334,73.0,117.0
349,99.59267614583334,100.33473967500001,65.0,93.0
350,99.59267614583334,100.36251745416668,70.0,122.0
351,100.06886664583334,100.57085079791668,58.0,88.0
352,100.54505714583334,100.63632699166668,65.0,73.0
353,99.59267614583334,100.88434287708334,46.0,112.0
354,100.78315239583334,100.92600954583334,58.0,102.0
355,100.54505714583334,100.99942224791667,73.0,127.0
356,100.54505714583334,101.0252159,70.0,127.0
357,101.02124764583334,101.18989844791668,65.0,107.0
358,101.49743814583334,102.24622210833334,63.0,97.0
359,101.49743814583334,102.25227049583334,67.0,96.0
360,101.49743814583334,102.25831888333335,70.0,93.0
361,102.21396404166669,102.47202857500001,58.0,83.0
362,101.97362864583334,102.78856085416668,55.0,59.0
363,101.49743814583334,102.79460924166668,51.0,93.0
364,102.69783504166668,102.82081892083335,58.0,96.0
365,102.45589954166668,102.90348021666668,67.0,122.0
366,102.45589954166668,102.96799635,70.0,122.0
367,102.93977054166668,103.02848022500001,63.0,100.0
368,103.42364154166668,103.99017383750001,60.0,89.0
369,103.42364154166668,104.06073835833334,63.0,99.0
370,104.14944804166667,104.32283515000002,60.0,72.0
371,103.90751254166668,104.4377545125,56.0,92.0
372,103.42364154166668,104.70791582083335,44.0,97.0
373,104.63331904166668,104.78654485833334,56.0,95.0
374,104.39138354166668,104.82283518333334,63.0,107.0
375,104.39138354166668,104.86517389583335,68.0,127.0
376,104.87525454166668,104.95791583750001,60.0,93.0
377,105.35912554166669,106.02444816666667,65.0,95.0
378,105.35912554166669,106.07686752500001,68.0,97.0
379,105.35912554166669,106.11920623750001,61.0,100.0
380,106.08493204166668,106.40348045000002,56.0,65.0
381,106.32686754166667,106.57283530000001,61.0,93.0
382,105.84299654166668,106.69178692083335,53.0,40.0
383,106.56880304166668,106.74823853750001,56.0,63.0
384,106.32686754166667,106.75428692500002,65.0,117.0
385,106.32686754166667,106.76839982916668,68.0,117.0
386,105.35912554166669,106.77243208750001,49.0,82.0
387,106.81073854166668,106.87122241666668,61.0,92.0
388,107.29460954166667,108.084932175,58.0,122.0
389,107.29460954166667,108.09501282083335,61.0,112.0
390,107.29460954166667,108.50630317083335,46.0,89.0
391,108.26235154166667,108.66759350416667,58.0,127.0
392,108.26235154166667,108.69985157083335,61.0,117.0
393,108.26235154166667,108.76436770416667,65.0,96.0
394,108.74622254166668,108.81275480416667,46.0,89.0
395,109.23009354166668,110.00025488333334,60.0,99.0
396,109.23009354166668,110.03049682083335,64.0,93.0
397,109.23009354166668,110.03049682083335,67.0,93.0
398,109.71396454166668,110.22404522083335,55.0,38.0
399,109.23009354166668,110.33090006666669,48.0,74.0
400,110.19783554166668,112.32081955416668,67.0,86.0
401,111.16557754166668,112.37928730000002,60.0,42.0
402,110.19783554166668,112.49823892083334,64.0,92.0
403,113.10106154166668,114.3208196875,60.0,79.0
404,113.10106154166668,114.46598098750002,41.0,73.0
405,113.58493254166667,114.46598098750002,48.0,42.0
406,113.10106154166668,114.52444873333334,65.0,81.0
407,113.10106154166668,114.57485196250002,68.0,88.0
408,114.06880354166668,114.57686809166668,53.0,75.0
409,114.55267454166668,114.63936809583335,60.0,78.0
410,115.03654554166668,115.73614236250002,70.0,95.0
411,115.03654554166668,115.83896495000002,67.0,93.0
412,115.03654554166668,116.11517464583335,63.0,95.0
413,115.03654554166668,116.24219078333334,51.0,97.0
414,115.76235204166667,116.25227142916668,55.0,31.0
415,116.00428754166668,116.54461015833334,70.0,96.0
416,116.48815854166668,116.68977145833335,63.0,83.0
417,116.97202954166667,118.16557800833334,61.0,96.0
418,117.45590054166668,118.20993285000002,53.0,52.0
419,117.93977154166669,118.24219091666669,56.0,85.0
420,116.97202954166667,118.24420704583335,49.0,83.0
421,116.97202954166667,118.37928770000002,65.0,97.0
422,116.97202954166667,118.49017480416668,68.0,100.0
423,118.42364254166668,118.524449,61.0,70.0
424,118.90751354166667,119.80869725833335,67.0,83.0
425,118.90751354166667,119.82672609583335,64.0,85.0
426,118.90751354166667,119.83674211666668,60.0,93.0
427,120.11318429166668,120.63602057916668,55.0,52.0
428,119.87279979166668,120.66807184583335,67.0,85.0
429,118.90751354166667,120.71614874583335,48.0,70.0
430,119.87279979166668,120.72416156250002,64.0,85.0
431,120.35356879166669,120.80028332083336,60.0,90.0
432,120.83433779166668,121.68770276666669,60.0,93.0
433,120.83433779166668,121.70372840000002,65.0,93.0
434,120.83433779166668,121.70573160416669,68.0,102.0
435,121.79587579166669,122.60917668333336,60.0,95.0
436,121.79587579166669,122.62319911250002,68.0,97.0
437,121.79587579166669,122.63121192916668,65.0,96.0
438,122.27664479166668,122.85356759166669,53.0,56.0
439,122.75741379166669,123.35236542916668,65.0,82.0
440,122.75741379166669,123.35436863333335,60.0,85.0
441,122.75741379166669,123.36238145000002,68.0,82.0
442,123.47856729166669,123.62480119583336,65.0,78.0
443,123.47856729166669,123.62480119583336,68.0,90.0
444,123.23818279166669,123.81310238750002,53.0,44.0
445,120.83433779166668,124.03345484583335,41.0,88.0
446,121.3151067916667,124.03946445833336,48.0,55.0
447,123.71895179166668,124.1215958291667,65.0,100.0
448,123.95933629166669,124.12359903333335,53.0,89.0
449,123.71895179166668,124.25781371250002,68.0,127.0
450,124.19972079166669,124.33393547083335,60.0,92.0
451,124.68048979166669,125.17928762916668,65.0,82.0
452,124.68048979166669,125.23137093750002,68.0,88.0
453,124.68048979166669,125.50781311250002,61.0,90.0
454,124.68048979166669,125.53986437916669,56.0,95.0
455,125.64202779166669,126.00861415416668,65.0,97.0
456,125.64202779166669,126.02263658333335,68.0,102.0
457,125.88241229166668,126.51141840000003,56.0,93.0
458,126.36318129166669,127.31470327083335,68.0,107.0
459,126.36318129166669,127.32471929166668,65.0,82.0
460,126.12279679166669,127.36878978333336,61.0,100.0
461,127.08433479166669,127.60116146666668,56.0,59.0
462,127.56510379166669,127.71534410416669,61.0,86.0
463,125.40164329166669,127.85556839583336,53.0,33.0
464,124.68048979166669,127.92367733750002,49.0,89.0
465,127.80548829166669,127.94971899166669,56.0,97.0
466,127.56510379166669,128.02383754583335,65.0,96.0
467,127.56510379166669,128.08193046666668,68.0,99.0
468,128.04587279166668,128.14402979583335,61.0,89.0
469,128.5266417916667,128.97936593333336,65.0,65.0
470,128.5266417916667,129.33994268333336,58.0,93.0
471,128.5266417916667,129.3659843375,61.0,95.0
472,128.5266417916667,129.60837204166668,46.0,95.0
473,129.7285642916667,129.86678537916669,46.0,85.0
474,129.48817979166668,129.87880460416667,65.0,60.0
475,129.48817979166668,129.9869776291667,61.0,102.0
476,129.9689487916667,130.06710579583336,58.0,66.0
477,130.4497177916667,131.0486758375,67.0,85.0
478,130.4497177916667,131.21093537500002,60.0,93.0
479,130.4497177916667,131.2550058666667,63.0,96.0
480,130.93048679166668,131.50340318333335,55.0,53.0
481,130.4497177916667,131.74178447916668,48.0,81.0
482,131.6516402916667,131.75981331666668,55.0,60.0
483,131.4112557916667,131.87599915833334,67.0,93.0
484,131.4112557916667,132.00821063333336,63.0,112.0
485,131.8920247916667,132.25660795000002,60.0,89.0
486,132.37279379166668,132.69530966250002,65.0,96.0
487,132.37279379166668,132.70532568333334,68.0,112.0
488,132.37279379166668,132.79546987083336,60.0,62.0
489,133.3343317916667,133.38240869166668,60.0,69.0
490,133.57471629166668,133.86518089583336,53.0,49.0
491,132.37279379166668,134.15965190833336,41.0,86.0
492,133.81510079166668,134.32992426250001,55.0,53.0
493,132.8535627916667,134.3559659166667,48.0,39.0
494,134.2958697916667,134.47215175833335,60.0,33.0
495,133.3343317916667,134.80067724166668,56.0,112.0
496,134.7766387916667,135.3235135291667,53.0,82.0
497,134.5362542916667,135.40364169583336,48.0,71.0
498,135.01702329166667,135.76822485416668,60.0,96.0
499,135.7381767916667,135.79426650833335,56.0,63.0
500,134.2958697916667,135.81229534583335,41.0,73.0
501,135.49779229166668,136.2129361791667,48.0,61.0
502,136.2189457916667,137.05828833750002,60.0,90.0
503,136.2189457916667,137.09033960416667,65.0,97.0
504,136.2189457916667,137.09234280833334,68.0,100.0
505,136.94009929166668,137.292663225,53.0,63.0
506,137.1804837916667,137.74138095833337,68.0,107.0
507,137.1804837916667,137.74338416250004,65.0,96.0
508,137.4208682916667,137.77142902083335,53.0,60.0
509,136.2189457916667,137.9837686625,41.0,79.0
510,136.69971479166668,138.2001147125,48.0,43.0
511,137.6612527916667,138.81109198333337,60.0,72.0
512,137.9016372916667,138.86918490416667,65.0,70.0
513,137.9016372916667,138.98937715416668,68.0,69.0
514,138.6227907916667,139.4260756625,48.0,36.0
515,139.1035597916667,139.4621333375,65.0,107.0
516,138.14202179166668,139.46613974583335,41.0,85.0
517,139.34394429166667,139.50820703333335,53.0,89.0
518,139.1035597916667,139.56429675,68.0,127.0
519,139.58432879166668,139.94690874583335,60.0,74.0
520,140.0650977916667,140.32551433333336,58.0,97.0
521,140.0650977916667,140.36157200833335,61.0,93.0
522,140.5458667916667,141.18088251250003,58.0,79.0
523,141.26702029166668,141.42727662500002,58.0,59.0
524,140.7862512916667,141.45532148333336,61.0,107.0
525,140.7862512916667,141.47335032083336,65.0,96.0
526,140.0650977916667,141.85596231666668,46.0,122.0
527,141.7477892916667,142.53905493750003,65.0,76.0
528,141.7477892916667,142.79746827500003,58.0,82.0
529,141.7477892916667,142.79746827500003,61.0,96.0
530,141.9881737916667,143.10796492083335,46.0,81.0
531,142.9497117916667,143.2321635791667,58.0,92.0
532,143.1900962916667,143.29426290833337,46.0,86.0
533,142.9497117916667,143.40243593333335,65.0,76.0
534,142.9497117916667,143.45051283333336,61.0,117.0
535,143.4304807916667,143.5025961416667,58.0,92.0
536,143.91124979166668,144.4400956916667,65.0,97.0
537,143.91124979166668,144.65243533333336,68.0,99.0
538,143.91124979166668,144.6985090291667,61.0,97.0
539,144.3920187916667,144.9509127541667,56.0,59.0
540,144.8727877916667,145.15123317083336,61.0,90.0
541,143.91124979166668,145.20131327500002,49.0,90.0
542,145.11317229166667,145.23136133750003,56.0,83.0
543,144.8727877916667,145.2634126041667,65.0,102.0
544,144.8727877916667,145.38560805833336,68.0,112.0
545,145.35355679166668,145.45772340833335,61.0,92.0
546,145.83432579166669,146.33112042500002,65.0,89.0
547,145.83432579166669,146.36717810000002,68.0,89.0
548,145.83432579166669,146.619581825,61.0,88.0
549,146.3150947916667,146.98416498333336,49.0,56.0
550,145.83432579166669,147.05628033333335,37.0,66.0
551,146.79586379166668,147.05828353750002,65.0,96.0
552,146.79586379166668,147.14241811250002,61.0,95.0
553,146.79586379166668,147.1624501541667,68.0,89.0
554,147.7574017916667,148.00780231250002,67.0,93.0
555,147.7574017916667,148.03584717083336,70.0,92.0
556,147.7574017916667,148.04986960000002,63.0,86.0
557,148.23817079166668,148.89522175833335,51.0,79.0
558,148.71893979166668,149.58632719583335,58.0,96.0
559,147.7574017916667,151.6736659375,39.0,89.0
560,149.1997087916667,153.53528954166669,51.0,40.0
561,148.71893979166668,153.54940244583335,55.0,75.0
562,149.6804777916667,153.5594830916667,58.0,67.0
563,149.6804777916667,153.57964438333337,63.0,77.0
564,153.56956373750003,153.57964438333337,63.0,93.0
565,153.56956373750003,154.06553151250003,72.0,69.0
566,153.56956373750003,154.12399925833336,68.0,93.0
567,154.05343473750003,154.74899930000004,56.0,72.0
568,154.53730573750002,154.83166059583337,63.0,90.0
569,154.53730573750002,154.9022251166667,72.0,69.0
570,153.56956373750003,154.98891867083336,44.0,93.0
571,154.53730573750002,155.42440257083337,68.0,99.0
572,155.50504773750004,155.59980580833337,68.0,60.0
573,155.50504773750004,155.84375743750002,65.0,82.0
574,155.50504773750004,156.82762847083336,41.0,76.0
575,155.98891873750003,156.8679510541667,48.0,55.0
576,156.47278973750002,156.88811234583335,53.0,47.0
577,156.47278973750002,157.0010155791667,65.0,76.0
578,156.47278973750002,157.03932203333335,68.0,88.0
579,156.95666073750002,157.04133816250004,60.0,37.0
580,157.44053173750004,157.83367692500002,72.0,76.0
581,157.44053173750004,157.8961769291667,68.0,88.0
582,157.44053173750004,158.65424149583336,44.0,92.0
583,158.40827373750002,158.67843504583337,72.0,65.0
584,158.40827373750002,158.70262859583337,68.0,73.0
585,157.92440273750003,158.79335440833336,56.0,62.0
586,159.37601573750004,160.14416095000004,60.0,74.0
587,159.37601573750004,160.16028998333337,67.0,75.0
588,159.37601573750004,160.17238675833337,63.0,81.0
589,160.10182223750002,160.43448355000004,55.0,58.0
590,160.58569323750004,160.68649969583336,55.0,57.0
591,159.37601573750004,160.68851582500002,48.0,72.0
592,160.34375773750003,160.96472552083335,67.0,107.0
593,160.82762873750002,160.99698358750004,63.0,86.0
594,161.31149973750001,161.86795138750003,60.0,81.0
595,161.31149973750001,161.9606933291667,65.0,81.0
596,161.31149973750001,162.0998062416667,68.0,97.0
597,162.27924173750003,162.4324675541667,65.0,89.0
598,162.27924173750003,162.4385159416667,68.0,96.0
599,161.31149973750001,162.44254820000003,41.0,69.0
600,161.79537073750004,162.4687578791667,48.0,40.0
601,162.27924173750003,162.55141917500004,53.0,61.0
602,163.24698373750002,163.97077410833336,65.0,82.0
603,163.24698373750002,163.99093540000004,62.0,68.0
604,163.24698373750002,164.01512895000002,58.0,92.0
605,164.21472573750003,164.38811284583335,58.0,96.0
606,163.24698373750002,164.41432252500002,46.0,97.0
607,164.21472573750003,164.41432252500002,62.0,82.0
608,164.21472573750003,164.51512898333337,65.0,73.0
609,165.18246773750002,165.92641940000004,67.0,85.0
610,165.18246773750002,165.95262907916668,70.0,88.0
611,165.18246773750002,166.02924198750003,63.0,86.0
612,165.66633873750004,166.34375813750003,55.0,27.0
613,166.15020973750003,166.4788387916667,58.0,70.0
614,165.18246773750002,166.5514194416667,51.0,78.0
615,166.63408073750003,167.05141947500002,63.0,33.0
616,166.15020973750003,167.0715807666667,67.0,60.0
617,166.15020973750003,167.1925485166667,70.0,64.0
618,167.84235500000003,168.20035500000003,63.0,55.0
619,167.60182273750002,168.20635500000003,56.0,66.0
620,168.32235500000002,168.50835500000002,56.0,95.0
621,167.11795173750002,168.53235500000002,44.0,85.0
622,168.56235500000003,168.92435500000002,68.0,56.0
623,168.082355,169.024355,72.0,86.0
624,168.802355,169.070355,63.0,58.0
625,169.04235500000001,169.070355,63.0,93.0
626,169.04235500000001,169.53435500000003,72.0,69.0
627,169.04235500000001,169.59235500000003,68.0,93.0
628,169.52235500000003,170.21235500000003,56.0,72.0
629,170.00235500000002,170.29435500000002,63.0,90.0
630,170.00235500000002,170.36435500000002,72.0,69.0
631,169.04235500000001,170.45035500000003,44.0,93.0
632,170.00235500000002,170.88235500000002,68.0,99.0
633,170.96235500000003,171.05635500000002,68.0,60.0
634,170.96235500000003,171.29835500000002,65.0,82.0
635,170.96235500000003,172.274355,41.0,76.0
636,171.44235500000002,172.314355,48.0,55.0
637,171.922355,172.33435500000002,53.0,47.0
638,171.922355,172.446355,65.0,76.0
639,171.922355,172.48435500000002,68.0,88.0
640,172.40235500000003,172.48635500000003,60.0,37.0
641,172.88235500000002,173.27235500000003,72.0,76.0
642,172.88235500000002,173.33435500000002,68.0,88.0
643,172.88235500000002,174.08635500000003,44.0,92.0
644,173.84235500000003,174.11035500000003,72.0,65.0
645,173.84235500000003,174.13435500000003,68.0,73.0
646,173.362355,174.22435500000003,56.0,62.0
647,174.80235500000003,175.564355,60.0,74.0
648,174.80235500000003,175.58035500000003,67.0,75.0
649,174.80235500000003,175.59235500000003,63.0,81.0
650,175.52235500000003,175.85235500000002,55.0,58.0
651,176.00235500000002,176.10235500000002,55.0,57.0
652,174.80235500000003,176.10435500000003,48.0,72.0
653,175.762355,176.37835500000003,67.0,107.0
654,176.24235500000003,176.410355,63.0,86.0
655,176.72235500000002,177.274355,60.0,81.0
656,176.72235500000002,177.36635500000003,65.0,81.0
657,176.72235500000002,177.50435500000003,68.0,97.0
658,177.68235500000003,177.83435500000002,65.0,89.0
659,177.68235500000003,177.84035500000002,68.0,96.0
660,176.72235500000002,177.844355,41.0,69.0
661,177.202355,177.87035500000002,48.0,40.0
662,177.68235500000003,177.952355,53.0,61.0
663,178.642355,179.36035500000003,65.0,82.0
664,178.642355,179.380355,62.0,68.0
665,178.642355,179.404355,58.0,92.0
666,179.60235500000002,179.774355,58.0,96.0
667,178.642355,179.80035500000002,46.0,97.0
668,179.60235500000002,179.80035500000002,62.0,82.0
669,179.60235500000002,179.90035500000002,65.0,73.0
670,180.52835500000003,181.018355,67.0,82.0
671,180.52835500000003,181.08435500000002,70.0,83.0
672,180.52835500000003,181.27635500000002,63.0,92.0
673,181.00835500000002,181.65635500000002,51.0,59.0
674,181.488355,181.98635500000003,67.0,99.0
675,181.488355,182.01035500000003,70.0,92.0
676,181.488355,182.09035500000002,63.0,88.0
677,181.96835500000003,182.73635500000003,51.0,37.0
678,182.44835500000002,182.87235500000003,67.0,99.0
679,182.44835500000002,182.96035500000002,63.0,96.0
680,182.44835500000002,182.96235500000003,70.0,92.0
681,182.928355,183.374355,51.0,42.0
682,180.52835500000003,183.45435500000002,39.0,74.0
683,183.40835500000003,183.696355,67.0,96.0
684,183.40835500000003,183.76635500000003,70.0,100.0
685,184.368355,185.13235500000002,60.0,100.0
686,184.368355,185.148355,65.0,95.0
687,184.368355,185.15835500000003,68.0,99.0
688,185.32835500000002,185.90635500000002,60.0,89.0
689,185.32835500000002,186.13416146666668,68.0,96.0
690,185.32835500000002,186.13617759583337,65.0,95.0
691,185.808355,186.6240808541667,53.0,36.0
692,186.2914195416667,186.7208550541667,68.0,102.0
693,186.2914195416667,187.06762927083335,65.0,97.0
694,186.2914195416667,187.07367765833337,60.0,90.0
695,184.368355,187.07972604583335,41.0,79.0
696,186.7752905416667,187.1140002416667,53.0,37.0
697,184.84835500000003,187.14625830833336,48.0,35.0
698,187.25916154166669,187.3196454166667,48.0,66.0
699,187.25916154166669,188.2148067666667,60.0,99.0
700,187.25916154166669,188.21883902500002,53.0,102.0
701,187.25916154166669,188.21883902500002,63.0,127.0
702,187.25916154166669,188.2390003166667,65.0,107.0
703,188.2269035416667,188.2390003166667,65.0,93.0
704,187.25916154166669,188.2450487041667,69.0,117.0
705,187.25916154166669,188.26722612500004,41.0,78.0
706,188.2269035416667,188.79948422500001,73.0,107.0
707,188.2269035416667,188.99303262500004,70.0,112.0
708,188.7107745416667,189.2732745791667,58.0,92.0
709,189.1946455416667,189.4910165291667,65.0,95.0
710,188.2269035416667,189.54746814583336,46.0,117.0
711,189.4365810416667,189.5635971791667,58.0,85.0
712,189.1946455416667,189.68053267083337,70.0,127.0
713,189.1946455416667,189.68658105833336,73.0,127.0
714,189.67851654166668,189.84988752083336,65.0,107.0
715,190.1623875416667,190.21883915833337,39.0,107.0
716,190.1623875416667,190.76924242083336,67.0,97.0
717,190.1623875416667,190.7732746791667,70.0,100.0
718,190.1623875416667,191.00109727500003,63.0,99.0
719,191.1301295416667,191.4204521416667,63.0,96.0
720,191.3720650416667,191.48496827500003,58.0,107.0
721,191.1301295416667,191.55956505416668,67.0,122.0
722,191.1301295416667,191.5777102166667,70.0,122.0
723,191.61400054166668,191.8317424916667,63.0,112.0
724,192.0978715416667,192.5515006041667,72.0,93.0
725,192.0978715416667,192.5998877041667,63.0,107.0
726,192.0978715416667,192.60996835000003,68.0,107.0
727,192.5817425416667,193.1321458041667,56.0,85.0
728,193.0656135416667,193.34383936666669,63.0,102.0
729,192.0978715416667,193.35392001250003,44.0,100.0
730,193.3075490416667,193.46077485833337,56.0,100.0
731,193.0656135416667,193.52327486250002,68.0,122.0
732,193.0656135416667,193.53940389583337,72.0,97.0
733,193.5494845416667,193.63819422500003,63.0,102.0
734,194.0333555416667,194.50311363750004,65.0,99.0
735,194.0333555416667,194.53940396250002,68.0,102.0
736,194.0333555416667,194.55553299583337,61.0,112.0
737,194.0333555416667,195.01521044583336,56.0,102.0
738,195.0010975416667,195.21279110416668,61.0,93.0
739,194.75916204166668,195.26521046250002,53.0,33.0
740,194.0333555416667,195.32166207916669,49.0,73.0
741,195.2430330416667,195.35392014583337,56.0,100.0
742,195.0010975416667,195.42246853750004,65.0,122.0
743,195.0010975416667,195.44061370000003,68.0,122.0
744,195.4849685416667,195.5454524166667,61.0,102.0
745,195.9627591458334,196.7087909291667,55.0,107.0
746,195.9627591458334,196.73458458125003,61.0,112.0
747,195.9627591458334,196.75244172500004,58.0,117.0
748,196.43894964583336,196.9409337979167,50.0,56.0
749,196.91514014583336,196.9409337979167,50.0,66.0
750,195.9627591458334,197.16315603125005,43.0,85.0
751,196.91514014583336,197.4052195354167,58.0,127.0
752,196.91514014583336,197.4290290604167,61.0,117.0
753,197.39133064583336,197.45482271250003,55.0,89.0
754,197.86752114583336,198.4885529229167,60.0,100.0
755,197.86752114583336,198.65125134375003,64.0,96.0
756,197.86752114583336,198.6552195979167,67.0,96.0
757,198.34371164583337,198.88537833958338,55.0,38.0
758,199.05799739583338,199.16315613125005,55.0,82.0
759,197.86752114583336,199.17704502083336,48.0,83.0
760,198.81990214583337,199.3199021708334,67.0,112.0
761,198.81990214583337,199.3516482041667,64.0,122.0
762,199.29609264583337,199.60296030416671,60.0,97.0
763,199.77836354166672,200.57473456250005,60.0,102.0
764,199.77836354166672,200.60497650000005,65.0,112.0
765,199.77836354166672,200.60900875833337,68.0,127.0
766,200.50417004166673,200.84086361250004,53.0,75.0
767,200.7461055416667,201.09489588750006,60.0,97.0
768,200.98804104166672,201.1876378291667,53.0,83.0
769,200.7461055416667,201.2420733166667,68.0,127.0
770,200.7461055416667,201.37312171250005,65.0,117.0
771,199.77836354166672,201.56667011250005,41.0,93.0
772,201.4719120416667,201.56667011250005,65.0,37.0
773,201.22997654166673,201.5888475333334,60.0,86.0
774,200.26223454166671,201.69167012083338,48.0,36.0
775,201.71384754166672,202.52634759583339,63.0,127.0
776,201.71384754166672,202.52634759583339,65.0,117.0
777,201.71384754166672,202.53642824166673,60.0,107.0
778,202.6815895416667,202.96384762500006,60.0,102.0
779,202.19771854166672,203.07876698750005,48.0,42.0
780,201.71384754166672,203.08279924583337,41.0,89.0
781,202.6815895416667,203.1977186083334,65.0,122.0
782,203.16546054166673,203.2098153833334,60.0,82.0
783,202.6815895416667,203.2098153833334,69.0,117.0
784,202.6815895416667,203.21183151250005,63.0,127.0
785,202.92352504166672,203.2219121583334,53.0,90.0
786,203.6432511458334,204.2265845083334,73.0,117.0
787,203.6432511458334,204.38531467500005,65.0,93.0
788,203.6432511458334,204.41309245416673,70.0,122.0
789,204.11944164583338,204.62142579791671,58.0,88.0
790,204.59563214583338,204.68690199166673,65.0,73.0
791,203.6432511458334,204.9349178770834,46.0,112.0
792,204.8337273958334,204.9765845458334,58.0,102.0
793,204.59563214583338,205.04999724791674,73.0,127.0
794,204.59563214583338,205.07579090000004,70.0,127.0
795,205.07182264583338,205.2404734479167,65.0,107.0
796,205.54801314583338,206.2967971083334,63.0,97.0
797,205.54801314583338,206.3028454958334,67.0,96.0
798,205.54801314583338,206.3088938833334,70.0,93.0
799,206.26453904166672,206.52260357500006,58.0,83.0
800,206.02420364583338,206.83913585416673,55.0,59.0
801,205.54801314583338,206.84518424166674,51.0,93.0
802,206.74841004166674,206.87139392083338,58.0,96.0
803,206.50647454166673,206.95405521666672,67.0,122.0
804,206.50647454166673,207.01857135000006,70.0,122.0
805,206.99034554166673,207.07905522500008,63.0,100.0
806,207.47421654166672,208.04074883750008,60.0,89.0
807,207.47421654166672,208.1113133583334,63.0,99.0
808,208.20002304166673,208.37341015000007,60.0,72.0
809,207.95808754166674,208.48832951250006,56.0,92.0
810,207.47421654166672,208.7584908208334,44.0,97.0
811,208.68389404166672,208.8371198583334,56.0,95.0
812,208.44195854166674,208.8734101833334,63.0,107.0
813,208.44195854166674,208.9157488958334,68.0,127.0
814,208.92582954166673,209.00849083750006,60.0,93.0
815,209.40970054166672,210.07502316666674,65.0,95.0
816,209.40970054166672,210.12744252500008,68.0,97.0
817,209.40970054166672,210.16978123750008,61.0,100.0
818,210.13550704166673,210.45405545000006,56.0,65.0
819,210.37744254166674,210.62341030000007,61.0,93.0
820,209.89357154166674,210.7423619208334,53.0,40.0
821,210.61937804166672,210.79881353750005,56.0,63.0
822,210.37744254166674,210.80486192500007,65.0,117.0
823,210.37744254166674,210.81897482916673,68.0,117.0
824,209.40970054166672,210.82300708750006,49.0,82.0
825,210.86131354166673,210.92179741666672,61.0,92.0
826,211.34518454166673,212.13550717500007,58.0,122.0
827,211.34518454166673,212.14558782083338,61.0,112.0
828,211.34518454166673,212.5568781708334,46.0,89.0
829,212.31292654166674,212.71816850416673,58.0,127.0
830,212.31292654166674,212.75042657083338,61.0,117.0
831,212.31292654166674,212.81494270416673,65.0,96.0
832,212.79679754166673,212.86332980416674,46.0,89.0
833,213.28066854166673,217.28470106666674,64.0,90.0
834,213.28066854166673,217.28873332500007,60.0,89.0
835,217.15163654166673,217.28873332500007,60.0,89.0
836,213.28066854166673,217.29679784166672,67.0,89.0
837,213.28066854166673,217.3109107458334,48.0,78.0
838,214.24841054166674,217.3653462333334,55.0,37.0
839,217.15163654166673,217.89962046250005,65.0,93.0
840,217.15163654166673,217.91373336666672,68.0,95.0
841,217.63550754166673,218.3391366208334,48.0,52.0
842,218.11937854166672,218.5447817958334,65.0,95.0
843,218.11937854166672,218.5931688958334,68.0,99.0
844,218.11937854166672,218.62542696250006,60.0,77.0
845,217.15163654166673,218.63953986666672,41.0,78.0
846,219.08712054166674,219.68171863541673,70.0,95.0
847,219.08712054166674,219.80671864166672,67.0,97.0
848,219.08712054166674,219.82655991250004,63.0,95.0
849,219.08712054166674,220.33846470000006,51.0,92.0
850,220.0487821458334,220.5606869333334,67.0,117.0
851,220.0487821458334,220.58449645833338,70.0,99.0
852,220.0487821458334,220.69957582916672,63.0,97.0
853,220.52497264583337,220.92775044375006,51.0,66.0
854,221.00116314583337,221.55275047500004,65.0,117.0
855,221.00116314583337,221.59838539791673,68.0,102.0
856,221.00116314583337,221.72338540416672,61.0,100.0
857,221.00116314583337,222.24521082708338,49.0,90.0
858,221.95354414583338,222.4079092479167,65.0,122.0
859,221.95354414583338,222.43370290000004,61.0,100.0
860,221.95354414583338,222.45552829791671,68.0,107.0
861,222.42973464583338,222.7829092666667,49.0,56.0
862,222.90592514583338,223.41386167916673,70.0,96.0
863,222.90592514583338,223.49322676250006,67.0,88.0
864,222.90592514583338,223.5210045416667,63.0,112.0
865,223.38211564583338,223.94560773750004,51.0,49.0
866,223.85830614583338,224.76031592500007,63.0,122.0
867,223.85830614583338,224.76838044166672,67.0,92.0
868,222.90592514583338,224.7764449583334,39.0,93.0
869,223.85830614583338,224.78652560416674,70.0,88.0
870,224.33449664583338,224.8066868958334,51.0,77.0
871,224.81676754166674,225.3147514458334,65.0,96.0
872,224.81676754166674,225.34700951250005,72.0,96.0
873,224.81676754166674,225.35305790000007,68.0,122.0
874,225.30063854166673,225.87926761250006,55.0,64.0
875,225.78450954166672,226.26636441250005,72.0,97.0
876,225.78450954166672,226.2885418333334,68.0,127.0
877,224.81676754166674,226.3490257083334,48.0,78.0
878,226.26838054166674,226.3913644208334,55.0,75.0
879,226.75225154166674,227.25829996250008,67.0,85.0
880,226.75225154166674,227.2865257708334,70.0,93.0
881,226.75225154166674,227.29660641666672,63.0,92.0
882,227.71999354166672,228.17362260416672,67.0,112.0
883,226.75225154166674,228.24418712500005,51.0,96.0
884,227.71999354166672,228.25628390000006,70.0,99.0
885,227.71999354166672,228.3328968083334,63.0,97.0
886,227.23612254166673,228.53047746666672,55.0,31.0
887,228.20386454166675,228.59700972916673,58.0,78.0
888,228.68773554166674,229.3006388083334,68.0,88.0
889,228.68773554166674,229.32684848750006,65.0,89.0
890,228.68773554166674,229.34700977916674,61.0,92.0
891,228.68773554166674,229.9054775583334,49.0,88.0
892,229.65547754166673,230.24217112916673,61.0,96.0
893,229.65547754166673,230.55063889166672,65.0,100.0
894,229.65547754166673,230.55467115000008,68.0,100.0
895,230.13934854166672,230.59700986250007,49.0,95.0
896,230.62321954166674,231.16757441666672,67.0,90.0
897,230.62321954166674,231.21596151666674,64.0,93.0
898,230.62321954166674,231.2845099083334,60.0,100.0
899,231.10709054166674,231.79660671666673,55.0,50.0
900,230.62321954166674,232.5062841833334,48.0,79.0
901,231.59096154166673,232.51434870000006,64.0,95.0
902,231.59096154166673,232.51636482916672,67.0,90.0
903,232.07483254166672,232.53854225000006,60.0,100.0
904,232.55870354166674,233.0990261583334,65.0,95.0
905,232.55870354166674,233.0990261583334,68.0,95.0
906,232.55870354166674,233.1050745458334,60.0,88.0
907,233.04257454166674,233.8006391083334,53.0,62.0
908,233.52644554166673,233.93168750416675,65.0,99.0
909,232.55870354166674,234.0607197708334,41.0,73.0
910,233.52644554166673,234.0970100958334,68.0,117.0
911,234.01031654166673,234.1574939708334,53.0,56.0
912,234.49418754166675,235.03854241666673,65.0,93.0
913,234.49418754166675,235.0587037083334,68.0,93.0
914,234.49418754166675,235.07483274166674,61.0,93.0
915,234.49418754166675,235.75830052916672,49.0,89.0
916,235.46192954166673,236.0627360333334,61.0,97.0
917,235.46192954166673,236.27241346666673,65.0,112.0
918,235.94580054166673,236.27846185416672,49.0,89.0
919,235.46192954166673,236.2865263708334,68.0,97.0
920,236.42967154166672,237.0062844833334,65.0,79.0
921,236.42967154166672,237.22069821666673,58.0,107.0
922,236.42967154166672,237.2365712333334,61.0,97.0
923,236.42967154166672,237.6532379208334,46.0,88.0
924,237.3913331458334,237.94688872916674,58.0,107.0
925,237.3913331458334,238.07982524375007,65.0,77.0
926,237.3913331458334,238.1353808020834,61.0,96.0
927,237.8675236458334,238.31196811250007,46.0,92.0
928,238.3437141458334,239.01236497291674,60.0,93.0
929,238.3437141458334,239.14926974166673,67.0,85.0
930,238.3437141458334,239.17307926666675,64.0,92.0
931,238.8199046458334,240.1532380458334,55.0,52.0
932,238.3437141458334,240.16911106250006,48.0,88.0
933,239.2960951458334,240.2008570958334,64.0,99.0
934,239.2960951458334,240.2068094770834,67.0,95.0
935,239.7722856458334,240.22069836666674,60.0,93.0
936,240.2484761458334,240.7722856958334,68.0,96.0
937,240.2484761458334,240.77625395000007,65.0,95.0
938,240.2484761458334,240.8020476020834,60.0,93.0
939,240.7246666458334,241.41863110416674,53.0,73.0
940,241.20693754166675,241.6162117625001,65.0,95.0
941,240.2484761458334,241.73717951250006,41.0,71.0
942,241.20693754166675,241.78758274166674,60.0,92.0
943,241.20693754166675,241.8319375833334,68.0,97.0
944,241.69080854166674,242.1242763125001,53.0,66.0
945,242.17467954166673,242.7210505458334,65.0,97.0
946,242.17467954166673,242.73717957916674,68.0,97.0
947,242.17467954166673,242.88032475000009,61.0,97.0
948,242.17467954166673,243.46298607916674,49.0,78.0
949,243.14242154166675,243.74726029166675,65.0,112.0
950,243.14242154166675,243.77346997083342,68.0,102.0
951,243.14242154166675,243.78355061666673,61.0,96.0
952,243.62629254166674,244.0637925708334,49.0,57.0
953,244.11016354166674,244.6323409958334,65.0,82.0
954,244.11016354166674,244.83597004166674,58.0,100.0
955,244.11016354166674,244.84806681666674,61.0,99.0
956,244.11016354166674,245.37427652916674,46.0,97.0
957,245.07790554166675,245.96097011666674,58.0,117.0
958,245.07790554166675,245.9871797958334,65.0,77.0
959,245.56177654166675,245.99121205416674,46.0,95.0
960,245.07790554166675,245.99726044166675,61.0,97.0
961,246.03355076666674,248.83193805000008,48.0,73.0
962,246.0375830250001,248.84605095416674,36.0,58.0
963,246.0295185083334,249.04363161250006,64.0,90.0
964,246.0355668958334,249.06379290416675,67.0,85.0
965,246.03153463750007,249.0718574208334,60.0,93.0
966,253.32790609166673,254.45895455416675,68.0,83.0
967,253.3238738333334,254.4670190708334,65.0,77.0
968,253.32588996250007,254.5093577833334,60.0,82.0
969,255.13032556666676,255.59000301666674,56.0,60.0
970,255.56580946666674,255.64443850416674,60.0,57.0
971,256.0698417583334,256.17064821666673,65.0,86.0
972,256.6020998583334,256.70290631666677,68.0,102.0
973,257.12629344166675,257.2190353833334,72.0,70.0
974,257.7996805833334,257.90451930000006,77.0,122.0
975,254.25330937916675,258.57589031250006,48.0,40.0
976,254.67064811666674,258.57790644166676,53.0,50.0
977,253.31984157500008,258.59806773333344,41.0,85.0
