,start,end,pitch,velocity
0,25.20025930208333,25.811228791666665,73.0,95.0
1,25.811228791666665,26.448983999999996,72.0,97.0
2,26.423473791666662,27.34311680208333,70.0,68.0
3,27.34311680208333,27.688780124999997,68.0,86.0
4,27.64923930208333,27.964290374999997,70.0,68.0
5,27.954086291666663,28.26913736458333,68.0,66.0
6,28.261484302083332,28.590565989583332,65.0,81.0
7,28.56760680208333,30.096943791666664,68.0,90.0
8,30.096943791666664,30.709188791666662,73.0,101.0
9,30.709188791666662,31.321433791666664,72.0,105.0
10,31.321433791666664,32.24107680208333,70.0,94.0
11,32.24107680208333,32.56760746875,68.0,71.0
12,32.54592379166667,32.89668915625,70.0,72.0
13,32.85204629166666,33.15816879166666,73.0,89.0
14,33.15816879166666,33.46429129166666,75.0,97.0
15,33.46429129166666,34.99362828125,77.0,84.0
16,34.994903791666665,35.60714879166666,77.0,103.0
17,35.60842430208333,36.252557062499996,77.0,98.0
18,36.22066930208333,37.13776129166666,75.0,103.0
19,37.13776129166666,37.47577155208333,73.0,100.0
20,37.443883791666664,37.7678634375,75.0,97.0
21,37.750006291666665,38.056128791666666,73.0,93.0
22,38.056128791666666,38.36225129166667,70.0,87.0
23,38.36225129166667,39.89286379166666,73.0,97.0
24,39.89413930208333,40.505108791666665,73.0,103.0
25,40.505108791666665,41.14158848958333,72.0,103.0
26,41.117353791666666,42.03572129166666,70.0,97.0
27,42.03699680208333,42.34311930208333,70.0,101.0
28,42.34311930208333,42.64796629166666,68.0,95.0
29,42.64796629166666,42.96046634375,65.0,91.0
30,42.95408879166666,43.28061945833333,68.0,100.0
31,43.260211291666664,47.24107930208333,70.0,103.0
32,47.24107930208333,47.85204879166666,73.0,95.0
33,47.85204879166666,48.48852848958333,72.0,97.0
34,48.46429379166666,49.383936802083326,70.0,68.0
35,49.383936802083326,49.72832461458333,68.0,86.0
36,49.69005930208333,50.003834864583325,70.0,68.0
37,49.99490629166666,50.308681854166664,68.0,66.0
38,50.30230430208333,50.63138598958333,65.0,81.0
39,50.60842680208333,52.137763791666664,68.0,90.0
40,52.137763791666664,52.75000879166666,73.0,101.0
41,52.75000879166666,53.36225379166666,72.0,105.0
42,53.36225379166666,54.28189680208333,70.0,94.0
43,54.28189680208333,54.607151958333326,68.0,71.0
44,54.58674379166666,54.937509156249995,70.0,72.0
45,54.892866291666664,55.198988791666665,73.0,89.0
46,55.198988791666665,55.50511129166666,75.0,97.0
47,55.50511129166666,57.03572379166666,77.0,84.0
48,57.03699930208333,57.64796879166666,77.0,103.0
49,57.649244302083325,58.29337706249999,77.0,98.0
50,58.261489302083326,59.17858129166666,75.0,103.0
51,59.17858129166666,59.51659155208333,73.0,100.0
52,59.48470379166666,59.808683437499994,75.0,97.0
53,59.79082629166666,60.09694879166666,73.0,93.0
54,60.09694879166666,60.40307129166666,70.0,87.0
55,60.40307129166666,61.93368379166666,73.0,97.0
56,61.93495930208333,62.54592879166666,73.0,103.0
57,62.54592879166666,63.18240848958333,72.0,103.0
58,63.15817379166666,64.07654129166666,70.0,97.0
59,64.07781680208333,64.392867875,70.0,101.0
60,64.38393930208333,64.68878629166666,68.0,95.0
61,64.68878629166666,65.00128634375,65.0,91.0
62,64.99490879166666,65.32143945833333,68.0,100.0
63,65.30103129166666,69.28189930208333,70.0,103.0
64,69.28189930208333,69.91455246874999,73.0,98.0
65,69.89414430208333,70.54082808333332,75.0,98.0
66,70.50638930208332,71.42475680208332,77.0,100.0
67,71.42475680208332,71.76659359374999,75.0,97.0
68,71.73087930208332,72.10205283333333,77.0,91.0
69,72.03700180208332,72.47577738541666,75.0,83.0
70,72.34312430208333,72.70154272916666,77.0,93.0
71,72.64924680208333,73.26149180208333,80.0,90.0
72,73.26149180208333,74.17985930208333,75.0,76.0
73,74.17985930208333,74.79210430208333,73.0,100.0
74,74.79210430208333,75.40434930208333,75.0,97.0
75,75.40434930208333,76.32271680208332,82.0,92.0
76,76.32271680208332,76.668380125,80.0,101.0
77,76.62883930208332,76.98470670833332,82.0,98.0
78,76.93496180208332,77.24108430208332,80.0,83.0
79,77.24108430208332,77.55103333333332,77.0,91.0
80,77.54720680208332,78.16965588541666,80.0,99.0
81,78.15945180208332,79.07781930208333,77.0,99.0
82,79.07781930208333,79.69006430208333,80.0,103.0
83,79.69006430208333,79.99618680208333,82.0,108.0
84,79.99618680208333,81.21940129166666,85.0,114.0
85,81.21940129166666,81.83292180208332,82.0,109.0
86,81.83292180208332,82.13776879166666,80.0,98.0
87,82.13776879166666,82.44389129166666,77.0,98.0
88,82.44389129166666,83.05741180208332,80.0,100.0
89,83.05741180208332,83.97322828124999,77.0,97.0
90,83.97450379166666,84.58547328124999,77.0,109.0
91,84.58674879166666,85.20026930208333,77.0,101.0
92,85.20026930208333,85.81123879166665,75.0,111.0
93,85.81251430208333,86.44771848958332,75.0,106.0
94,86.42475930208333,86.78700426041665,73.0,101.0
95,86.73088180208333,87.38139211458332,75.0,99.0
96,87.34185129166666,88.87373930208332,77.0,105.0
97,88.87373930208332,89.52552512499999,73.0,106.0
98,89.48470879166666,90.09695379166666,75.0,103.0
99,90.09695379166666,91.01532129166665,77.0,105.0
100,91.01532129166665,91.32909685416666,75.0,98.0
101,91.32144379166665,91.67858670833333,77.0,100.0
102,91.62756629166665,91.93879083333333,75.0,98.0
103,91.93368879166665,92.23981129166665,77.0,97.0
104,92.23981129166665,92.85588282291666,80.0,92.0
105,92.85205629166666,93.77042379166666,75.0,106.0
106,93.77042379166666,94.40435246874999,73.0,97.0
107,94.38266879166666,94.99491379166666,75.0,103.0
108,94.99491379166666,95.91328129166666,82.0,97.0
109,95.91328129166666,96.21940379166666,80.0,106.0
110,96.21940379166666,96.52935282291666,82.0,93.0
111,96.52552629166665,96.83802634374999,80.0,92.0
112,96.83164879166665,97.17603660416665,77.0,97.0
113,97.13777129166665,97.75001629166665,80.0,108.0
114,97.75001629166665,98.66838379166666,77.0,97.0
115,98.66838379166666,99.32399614583332,80.0,101.0
116,99.28062879166666,99.58675129166666,82.0,103.0
117,99.58675129166666,100.81124129166666,85.0,109.0
118,100.81124129166666,101.43624139583332,82.0,103.0
119,101.42348629166666,101.72960879166666,80.0,99.0
120,101.72960879166666,102.04338435416666,77.0,99.0
121,102.03573129166665,102.64797629166665,80.0,106.0
122,102.64797629166665,103.56506828124999,77.0,100.0
123,103.56634379166665,104.17731328125,77.0,101.0
124,104.17858879166666,104.84185420833332,77.0,98.0
125,104.79083379166666,105.40180328125,75.0,98.0
126,105.40307879166666,106.01659930208332,75.0,90.0
127,106.01659930208332,106.33930343749999,73.0,90.0
128,106.32272180208332,106.93369129166666,75.0,93.0
129,106.93369129166666,110.91455930208332,77.0,101.0
130,110.91455930208332,111.52552879166666,73.0,95.0
131,111.52552879166666,112.16200848958333,72.0,97.0
132,112.13777379166666,113.05741680208332,70.0,68.0
133,113.05741680208332,113.40180461458333,68.0,86.0
134,113.36353930208332,113.67731486458332,70.0,68.0
135,113.66838629166665,113.98216185416666,68.0,66.0
136,113.97578430208333,114.58802930208333,65.0,81.0
137,114.58802930208333,115.81124379166666,68.0,90.0
138,115.81124379166666,116.42348879166666,73.0,101.0
139,116.42348879166666,117.03573379166666,72.0,105.0
140,117.03573379166666,117.95537680208332,70.0,94.0
141,117.95537680208332,118.28190746874999,68.0,71.0
142,118.26022379166666,118.60971364583332,70.0,72.0
143,118.56634629166666,118.87246879166666,73.0,89.0
144,118.87246879166666,119.17859129166665,75.0,97.0
145,119.17859129166665,120.70792828124999,77.0,84.0
146,120.70920379166665,121.32144879166665,77.0,103.0
147,121.32272430208332,121.93496930208332,77.0,98.0
148,121.93496930208332,122.85206129166666,75.0,103.0
149,122.85206129166666,123.16328583333332,73.0,100.0
150,123.15818379166666,123.48088792708332,75.0,97.0
151,123.46430629166666,123.77042879166666,73.0,93.0
152,123.77042879166666,124.07655129166666,70.0,87.0
153,124.07655129166666,125.60716379166665,73.0,97.0
154,125.60843930208333,126.21940879166665,73.0,103.0
155,126.21940879166665,126.85588848958332,72.0,103.0
156,126.83165379166665,127.75002129166666,70.0,97.0
157,127.75129680208332,128.05741930208333,70.0,101.0
158,128.05741930208333,128.36226629166666,68.0,95.0
159,128.36226629166666,128.67349083333332,65.0,91.0
160,128.66838879166664,128.99491945833333,68.0,100.0
161,128.97451129166666,131.72961379166665,70.0,103.0
162,177.0370193020833,177.66839695833332,73.0,98.0
163,177.6492643020833,178.29722359374998,75.0,98.0
164,178.2615093020833,179.17987680208333,77.0,100.0
165,179.17987680208333,179.5433972708333,75.0,97.0
166,179.48599930208331,179.85717283333332,77.0,91.0
167,179.79212180208333,180.23089738541665,75.0,83.0
168,180.09824430208332,180.45538721875,77.0,93.0
169,180.4043668020833,181.0166118020833,80.0,90.0
170,181.0166118020833,181.93497930208332,75.0,76.0
171,181.93497930208332,182.54722430208332,73.0,100.0
172,182.54722430208332,183.15946930208332,75.0,97.0
173,183.15946930208332,184.0778368020833,82.0,92.0
174,184.0778368020833,184.42350012499998,80.0,101.0
175,184.38395930208333,184.74110221874997,82.0,98.0
176,184.6900818020833,184.99620430208333,80.0,83.0
177,184.99620430208333,185.30615333333333,77.0,91.0
178,185.30232680208331,185.92605139583333,80.0,99.0
179,185.91457180208332,186.8329393020833,77.0,99.0
180,186.8329393020833,187.4451843020833,80.0,103.0
181,187.4451843020833,187.77043945833333,82.0,108.0
182,187.75130680208332,188.97452129166666,85.0,114.0
183,188.97452129166666,189.58804180208332,82.0,109.0
184,189.58804180208332,189.89288879166665,80.0,98.0
185,189.89288879166665,190.19901129166664,77.0,98.0
186,190.19901129166664,190.81253180208333,80.0,100.0
187,190.81253180208333,191.72834828125,77.0,97.0
188,191.72962379166665,192.34059328125,77.0,109.0
189,192.34186879166666,192.95538930208332,77.0,101.0
190,192.95538930208332,193.56635879166666,75.0,111.0
191,193.56763430208332,194.20156297916665,75.0,106.0
192,194.17987930208332,194.54084874999998,73.0,101.0
193,194.4860018020833,195.13651211458333,75.0,99.0
194,195.09697129166665,196.62885930208333,77.0,105.0
195,196.62885930208333,197.28192063541664,73.0,106.0
196,197.23982879166664,197.85207379166664,75.0,103.0
197,197.85207379166664,198.77044129166666,77.0,105.0
198,198.77044129166666,199.08294134374998,75.0,98.0
199,199.07656379166664,199.43498221874998,77.0,100.0
200,199.38268629166666,199.69391083333332,75.0,98.0
201,199.68880879166664,199.99493129166666,77.0,97.0
202,199.99493129166666,200.60972731249998,80.0,92.0
203,200.60717629166666,201.52554379166665,75.0,106.0
204,201.52554379166665,202.15819695833332,73.0,97.0
205,202.13778879166665,202.75003379166665,75.0,103.0
206,202.75003379166665,203.66840129166664,82.0,97.0
207,203.66840129166664,203.97452379166666,80.0,106.0
208,203.97452379166666,204.28447282291665,82.0,93.0
209,204.28064629166664,204.5918708333333,80.0,92.0
210,204.58676879166666,204.93115660416666,77.0,97.0
211,204.89289129166664,205.50513629166664,80.0,108.0
212,205.50513629166664,206.42350379166666,77.0,97.0
213,206.42350379166666,207.07784063541663,80.0,101.0
214,207.03574879166663,207.34187129166665,82.0,103.0
215,207.34187129166665,208.56636129166665,85.0,109.0
216,208.56636129166665,209.19136139583333,82.0,103.0
217,209.17860629166665,209.48472879166664,80.0,99.0
218,209.48472879166664,209.79850435416665,77.0,99.0
219,209.79085129166666,210.40309629166666,80.0,106.0
220,210.40309629166666,211.32018828124998,77.0,100.0
221,211.32146379166664,211.93243328124998,77.0,101.0
222,211.93370879166665,212.5969742083333,77.0,98.0
223,212.54595379166665,213.15692328125,75.0,98.0
224,213.15819879166665,213.7717193020833,75.0,90.0
225,213.7717193020833,214.09442343749998,73.0,90.0
226,214.07784180208333,214.6900868020833,75.0,93.0
227,214.68881129166664,218.66967930208332,77.0,101.0
228,218.66967930208332,219.28064879166664,73.0,95.0
229,219.28064879166664,219.91840399999998,72.0,97.0
230,219.89289379166664,220.81253680208332,70.0,68.0
231,220.81253680208332,221.15820012499998,68.0,86.0
232,221.1186593020833,221.43371037499998,70.0,68.0
233,221.42350629166665,221.7385573645833,68.0,66.0
234,221.7309043020833,222.03702680208332,65.0,81.0
235,222.03702680208332,223.56636379166665,68.0,90.0
236,223.56636379166665,224.17860879166665,73.0,101.0
237,224.17860879166665,224.79085379166665,72.0,105.0
238,224.79085379166665,225.7104968020833,70.0,94.0
239,225.7104968020833,226.03575195833332,68.0,71.0
240,226.01534379166665,226.36610915625,70.0,72.0
241,226.32146629166664,226.62758879166665,73.0,89.0
242,226.62758879166665,226.93371129166664,75.0,97.0
243,226.93371129166664,228.46304828124997,77.0,84.0
244,228.46432379166666,229.07656879166663,77.0,103.0
245,229.07784430208332,229.69008930208332,77.0,98.0
246,229.69008930208332,230.60718129166665,75.0,103.0
247,230.60718129166665,230.9184058333333,73.0,100.0
248,230.91330379166664,231.23728343749997,75.0,97.0
249,231.21942629166665,231.52554879166664,73.0,93.0
250,231.52554879166664,231.83167129166665,70.0,87.0
251,231.83167129166665,233.36228379166664,73.0,97.0
252,233.3635593020833,233.97452879166664,73.0,103.0
253,233.97452879166664,234.60973297916664,72.0,103.0
254,234.58677379166664,235.50514129166663,70.0,97.0
255,235.50641680208332,235.8125393020833,70.0,101.0
256,235.8125393020833,236.11738629166663,68.0,95.0
257,236.11738629166663,236.42988634374998,65.0,91.0
258,236.42350879166665,236.7500394583333,68.0,100.0
259,236.72963129166664,239.48473379166666,70.0,103.0
