,start,end,pitch,velocity
0,5.301021291666666,5.534439697916667,60.0,51.0
1,5.607143791666666,5.815051989583333,61.0,59.0
2,5.913266291666666,6.15306225,63.0,56.0
3,4.688776291666667,6.239796958333333,53.0,45.0
4,4.382653791666666,6.24107246875,46.0,61.0
5,4.9948987916666665,6.265307166666666,58.0,53.0
6,6.219388791666666,6.457909239583333,65.0,50.0
7,6.525511291666666,6.820154197916666,70.0,50.0
8,6.831633791666666,7.367348166666666,68.0,43.0
9,7.443878791666666,7.779338031249999,63.0,52.0
10,7.137756291666666,8.377552416666665,60.0,57.0
11,7.750001291666666,8.506378968749999,68.0,56.0
12,8.362246291666667,8.72449125,65.0,69.0
13,8.668368791666666,8.770409625,60.0,57.0
14,6.831633791666666,8.792093302083332,53.0,59.0
15,9.280613791666665,9.83801184375,61.0,60.0
16,9.280613791666665,9.896685322916666,65.0,62.0
17,9.280613791666665,9.931124104166665,58.0,53.0
18,10.198981291666666,10.631379322916665,58.0,48.0
19,9.892858791666665,10.803573229166666,54.0,48.0
20,9.280613791666665,11.123726343749999,42.0,63.0
21,9.586736291666666,11.142859,49.0,41.0
22,10.811226291666665,11.198981458333332,61.0,52.0
23,11.117348791666666,11.654338677083333,54.0,46.0
24,11.423471291666665,11.710461135416665,63.0,37.0
25,11.729593791666666,12.204083666666666,65.0,44.0
26,11.729593791666666,12.330359197916666,49.0,36.0
27,12.035716291666665,12.354593895833332,56.0,60.0
28,12.341838791666666,12.718114364583332,61.0,56.0
29,12.647961291666665,13.395410395833332,63.0,49.0
30,12.954083791666665,13.410716520833333,65.0,49.0
31,13.260206291666666,13.451532854166665,68.0,43.0
32,13.566328791666665,14.06250234375,72.0,59.0
33,15.096941291666665,15.602043416666666,65.0,55.0
34,14.484696291666666,15.632655666666665,58.0,48.0
35,14.790818791666664,15.779339364583333,63.0,54.0
36,15.709186291666665,16.030614916666664,66.0,60.0
37,14.178573791666665,16.0943904375,51.0,57.0
38,16.015308791666666,16.172196572916665,58.0,59.0
39,16.627553791666664,17.140308979166665,65.0,42.0
40,16.627553791666664,17.213013072916667,61.0,48.0
41,17.545921291666666,17.727043770833333,60.0,42.0
42,17.545921291666666,17.821431541666666,63.0,49.0
43,16.933676291666664,17.95791115625,53.0,40.0
44,17.239798791666665,18.301023458333333,58.0,44.0
45,17.852043791666667,18.321431625,65.0,55.0
46,17.852043791666667,18.33291121875,61.0,55.0
47,16.627553791666664,18.548472479166666,46.0,55.0
48,18.464288791666664,18.553574520833333,53.0,61.0
49,19.076533791666666,19.561227749999997,65.0,57.0
50,19.076533791666666,19.604595104166666,61.0,57.0
51,19.076533791666666,19.61862571875,58.0,51.0
52,19.076533791666666,19.778064520833333,42.0,52.0
53,19.382656291666663,19.834186979166663,49.0,49.0
54,19.688778791666664,19.836737999999997,54.0,49.0
55,20.301023791666665,20.806125916666666,41.0,57.0
56,20.301023791666665,20.806125916666666,60.0,53.0
57,20.301023791666665,20.855870822916664,63.0,56.0
58,20.301023791666665,20.88903409375,56.0,47.0
59,20.301023791666665,20.89923817708333,53.0,53.0
60,21.219391291666664,21.66454442708333,65.0,55.0
61,21.219391291666664,21.729595458333332,61.0,58.0
62,22.137758791666666,22.386483322916664,60.0,44.0
63,22.443881291666663,22.64796295833333,61.0,56.0
64,22.750003791666664,23.10076915625,65.0,34.0
65,23.362248791666666,23.568881479166663,70.0,47.0
66,23.668371291666663,23.8852080625,72.0,52.0
67,23.974493791666664,24.593116343749998,65.0,40.0
68,21.831636291666666,24.596942874999996,58.0,37.0
69,23.974493791666664,24.602044916666664,70.0,33.0
70,23.974493791666664,24.640310229166666,73.0,48.0
71,21.219391291666664,24.64923880208333,46.0,61.0
72,26.423473791666662,27.130106562499996,70.0,57.0
73,26.423473791666662,27.13265758333333,65.0,54.0
74,26.423473791666662,27.14031064583333,73.0,52.0
75,27.035718791666664,27.74872911458333,58.0,49.0
76,27.341841291666665,27.968116906249996,73.0,50.0
77,27.341841291666665,27.98214752083333,70.0,54.0
78,27.341841291666665,27.985974052083332,65.0,52.0
79,26.423473791666662,28.122453666666665,46.0,46.0
80,26.729596291666663,28.178576124999996,53.0,54.0
81,27.954086291666663,28.34184145833333,58.0,36.0
82,28.260208791666663,28.528065979166662,65.0,56.0
83,28.566331291666664,28.795923166666665,73.0,56.0
84,28.872453791666665,29.258933447916665,68.0,55.0
85,28.872453791666665,29.266586510416666,63.0,53.0
86,28.872453791666665,29.285719166666663,72.0,61.0
87,29.484698791666663,29.943882541666664,63.0,44.0
88,29.178576291666666,30.122453999999998,60.0,42.0
89,29.790821291666663,30.39413771875,68.0,54.0
90,30.403066291666665,30.780617375,60.0,40.0
91,30.709188791666662,30.922199031249995,63.0,55.0
92,30.709188791666662,31.224494999999997,72.0,69.0
93,31.015311291666663,31.22704602083333,60.0,47.0
94,28.872453791666665,31.235974593749997,53.0,60.0
95,31.321433791666664,31.681127729166665,66.0,53.0
96,31.321433791666664,31.68622977083333,61.0,58.0
97,31.321433791666664,31.830362447916663,70.0,58.0
98,31.627556291666664,32.419648260416665,58.0,48.0
99,31.933678791666665,32.660719729166665,61.0,52.0
100,32.239801291666666,32.931127937499994,70.0,67.0
101,32.239801291666666,32.98342386458333,66.0,76.0
102,31.321433791666664,33.04719938541666,54.0,59.0
103,32.85204629166666,33.29464840625,58.0,56.0
104,33.15816879166666,33.42219944791666,63.0,56.0
105,33.15816879166666,33.46429129166666,68.0,63.0
106,33.46429129166666,33.74490358333333,70.0,59.0
107,33.77041379166666,34.21429141666666,63.0,53.0
108,33.77041379166666,34.42219961458333,68.0,59.0
109,34.382658791666664,34.8750058125,61.0,48.0
110,34.688781291666665,35.14413851041666,68.0,63.0
111,34.688781291666665,35.20663852083333,63.0,54.0
112,34.688781291666665,35.34822017708333,65.0,59.0
113,33.77041379166666,35.74617942708333,49.0,60.0
114,34.07653629166666,35.767863104166665,56.0,46.0
115,35.60714879166666,35.859699854166664,61.0,58.0
116,35.76021004166666,35.954087625,63.0,61.0
117,35.91327129166666,36.161995822916666,65.0,60.0
118,36.06633254166666,36.27041420833333,68.0,61.0
119,36.21939379166666,36.602046916666666,66.0,67.0
120,36.83163879166666,37.423475624999995,63.0,45.0
121,37.13776129166666,37.79337364583333,70.0,55.0
122,37.13776129166666,37.80995528125,66.0,56.0
123,37.750006291666665,38.105873697916664,63.0,46.0
124,36.21939379166666,38.23087371875,51.0,69.0
125,38.056128791666666,38.25128188541666,65.0,49.0
126,36.52551629166666,38.27679209375,58.0,54.0
127,38.36225129166667,38.57015948958333,70.0,52.0
128,38.66837379166666,39.24235347916666,61.0,53.0
129,38.66837379166666,39.294649406249995,65.0,55.0
130,38.66837379166666,39.32271063541666,70.0,58.0
131,39.58674129166666,39.964292375,61.0,60.0
132,39.28061879166666,40.239802624999996,58.0,47.0
133,38.66837379166666,40.29720059375,46.0,57.0
134,40.198986291666664,40.47959858333333,70.0,66.0
135,39.89286379166666,40.51276185416666,65.0,63.0
136,38.97449629166666,40.52934348958333,53.0,53.0
137,40.505108791666665,40.858425177083326,61.0,52.0
138,40.505108791666665,41.05102725,44.0,57.0
139,40.505108791666665,41.057404802083326,68.0,62.0
140,41.117353791666666,41.70791511458333,61.0,46.0
141,41.117353791666666,41.709190625,66.0,55.0
142,41.117353791666666,41.720670218749994,70.0,41.0
143,41.117353791666666,41.88010902083333,42.0,63.0
144,41.42347629166666,41.934955968749996,49.0,47.0
145,41.72959879166666,41.954088625,54.0,53.0
146,42.34184379166666,42.70153772916666,72.0,51.0
147,42.34184379166666,42.705364260416665,68.0,51.0
148,42.34184379166666,42.73342548958333,63.0,55.0
149,42.34184379166666,42.750007124999996,41.0,59.0
150,42.64796629166666,42.886486739583326,53.0,46.0
151,42.95408879166666,43.216843937499995,72.0,52.0
152,43.260211291666664,44.052303260416664,65.0,54.0
153,43.566333791666665,44.161997156249996,46.0,61.0
154,43.872456291666666,44.161997156249996,53.0,59.0
155,43.260211291666664,44.188782874999994,68.0,60.0
156,44.17857879166666,44.55485436458333,58.0,53.0
157,43.260211291666664,44.69516051041666,73.0,55.0
158,44.48470129166666,45.089293229166664,60.0,57.0
159,44.79082379166666,45.14286466666666,61.0,61.0
160,45.09694629166666,45.27551775,65.0,50.0
161,45.40306879166666,45.67985455208333,72.0,47.0
162,45.70919129166666,45.927303572916664,73.0,56.0
163,46.015313791666664,46.81888535416666,70.0,40.0
164,46.015313791666664,46.83929352083333,65.0,41.0
165,46.015313791666664,46.88393638541666,73.0,28.0
166,46.015313791666664,46.91072210416666,46.0,58.0
167,48.46429379166666,48.8035795625,65.0,49.0
168,48.46429379166666,48.80740609375,73.0,56.0
169,48.46429379166666,48.815059156249994,70.0,57.0
170,49.076538791666664,49.36735516666666,70.0,40.0
171,49.076538791666664,49.39031435416666,65.0,38.0
172,49.076538791666664,49.44133477083333,73.0,41.0
173,49.382661291666665,50.12500835416666,58.0,35.0
174,48.46429379166666,50.350773697916665,46.0,64.0
175,49.99490629166666,50.35204920833333,70.0,43.0
176,49.688783791666665,50.42475330208333,65.0,44.0
177,50.30102879166666,50.43113085416666,58.0,49.0
178,50.30102879166666,50.682406406249996,73.0,62.0
179,50.60715129166666,50.77806968749999,72.0,46.0
180,50.91327379166666,51.31761059375,68.0,51.0
181,50.91327379166666,51.32909018749999,63.0,49.0
182,50.91327379166666,51.346947333333326,72.0,44.0
183,51.21939629166666,52.12373317708333,60.0,48.0
184,51.52551879166666,52.247457687499995,63.0,36.0
185,51.831641291666664,52.41327404166666,68.0,56.0
186,51.831641291666664,52.42858016666666,72.0,47.0
187,52.75000879166666,52.977049645833326,63.0,59.0
188,52.443886291666665,53.09694762499999,60.0,44.0
189,50.91327379166666,53.11735579166666,53.0,57.0
190,52.90307004166666,53.170927229166665,68.0,53.0
191,53.05613129166666,53.23470275,70.0,61.0
192,53.36225379166666,53.81123345833333,61.0,61.0
193,53.36225379166666,53.95153960416666,66.0,62.0
194,53.36225379166666,53.97067226041666,70.0,49.0
195,53.97449879166666,54.256386593749994,68.0,57.0
196,53.97449879166666,54.28444782291666,61.0,53.0
197,54.28062129166666,54.54720296874999,70.0,66.0
198,53.36225379166666,54.61608053124999,54.0,58.0
199,54.58674379166666,54.99618263541666,63.0,53.0
200,54.58674379166666,55.12628469791666,68.0,61.0
201,54.58674379166666,55.223223489583326,56.0,54.0
202,55.198988791666665,55.39031535416666,66.0,59.0
203,55.50511129166666,56.19898895833333,65.0,73.0
204,55.50511129166666,56.20153997916666,63.0,57.0
205,55.50511129166666,56.306131833333325,68.0,64.0
206,56.42347879166666,56.93495846875,61.0,52.0
207,56.72960129166666,57.144142177083324,68.0,45.0
208,56.72960129166666,57.28444832291666,63.0,59.0
209,56.72960129166666,57.340570781249994,65.0,62.0
210,57.34184629166666,57.68240757291666,61.0,39.0
211,56.11735629166666,57.707917781249996,56.0,63.0
212,57.64796879166666,57.91965251041666,65.0,63.0
213,57.64796879166666,57.92858108333333,63.0,55.0
214,55.81123379166666,57.98342803124999,49.0,58.0
215,57.64796879166666,58.05868314583333,68.0,63.0
216,57.954091291666664,58.25383623958333,56.0,53.0
217,58.26021379166666,58.64796895833333,61.0,59.0
218,58.26021379166666,58.705366927083325,66.0,44.0
219,58.26021379166666,58.705366927083325,70.0,58.0
220,58.87245879166666,59.10587719791666,61.0,55.0
221,58.56633629166666,59.209193541666664,58.0,55.0
222,59.17858129166666,59.63393851041666,66.0,61.0
223,59.17858129166666,59.677305864583325,70.0,49.0
224,59.79082629166666,60.06378552083333,58.0,58.0
225,58.26021379166666,60.33802026041666,51.0,62.0
226,60.09694879166666,60.38904067708333,70.0,46.0
227,60.40307129166666,60.66072439583333,72.0,53.0
228,60.709193791666664,61.20791836458333,65.0,57.0
229,60.709193791666664,61.303581645833326,73.0,61.0
230,60.709193791666664,61.40944901041666,70.0,55.0
231,61.32143879166666,61.79210213541666,58.0,47.0
232,61.62756129166666,62.21557159374999,65.0,60.0
233,60.709193791666664,62.341847124999994,46.0,54.0
234,61.62756129166666,62.341847124999994,73.0,56.0
235,62.23980629166666,62.38138794791666,58.0,43.0
236,61.01531629166666,62.38776549999999,53.0,38.0
237,62.54592879166666,62.807408427083324,63.0,53.0
238,62.54592879166666,62.954092124999995,72.0,60.0
239,62.54592879166666,62.996183968749996,44.0,40.0
240,63.15817379166666,63.658173874999996,66.0,62.0
241,63.15817379166666,63.66582693749999,61.0,62.0
242,63.15817379166666,63.76531675,70.0,61.0
243,63.15817379166666,63.95026576041666,42.0,53.0
244,63.770418791666664,63.969398416666664,54.0,46.0
245,63.46429629166666,64.04720455208333,49.0,48.0
246,64.07654129166666,64.19516376041666,61.0,49.0
247,64.07654129166666,64.32143929166666,70.0,51.0
248,64.38266379166666,64.74745977083333,63.0,49.0
249,64.38266379166666,64.75256181249999,68.0,61.0
250,64.38266379166666,64.89286795833333,41.0,50.0
251,64.68878629166666,65.04848022916666,53.0,39.0
252,64.99490879166666,65.21429658333332,63.0,48.0
253,65.30103129166666,65.50383744791667,68.0,55.0
254,65.60715379166666,66.20026613541665,65.0,59.0
255,65.60715379166666,66.21174572916667,61.0,51.0
256,66.52552129166666,66.86863359374999,60.0,58.0
257,66.83164379166666,66.9872560625,61.0,69.0
258,66.21939879166666,67.02679688541666,58.0,55.0
259,67.13776629166667,67.36863367708332,65.0,62.0
260,65.91327629166666,67.4158275625,53.0,48.0
261,67.44388879166667,67.70154189583333,73.0,63.0
262,67.44388879166667,67.72067455208332,58.0,46.0
263,65.60715379166666,67.76021537499999,46.0,63.0
264,67.75001129166667,68.005113375,53.0,59.0
265,67.75001129166667,68.04465419791666,72.0,61.0
266,68.05613379166667,68.81888902083332,65.0,52.0
267,68.05613379166667,68.85205229166667,70.0,61.0
268,68.05613379166667,68.91327679166666,46.0,62.0
269,70.50511379166666,70.87883834374999,68.0,57.0
270,70.50511379166666,70.897971,65.0,54.0
271,70.50511379166666,70.91710365624999,73.0,57.0
272,71.11735879166666,71.38138944791666,65.0,48.0
273,70.81123629166666,71.59950172916666,61.0,48.0
274,71.42348129166666,72.03062424999999,68.0,63.0
275,71.42348129166666,72.03572629166666,73.0,60.0
276,72.03572629166666,72.35460389583332,61.0,57.0
277,72.34184879166666,72.60332842708333,65.0,60.0
278,72.34184879166666,72.60460393749999,68.0,62.0
279,70.50511379166666,72.76914478124999,49.0,64.0
280,72.34184879166666,72.79465498958332,73.0,69.0
281,72.95409379166666,73.43368570833333,63.0,51.0
282,72.95409379166666,73.44006326041666,72.0,56.0
283,72.95409379166666,73.44771632291666,68.0,56.0
284,73.56633879166667,74.11480827083332,56.0,54.0
285,73.87246129166665,74.17730828124999,63.0,60.0
286,73.26021629166667,74.21429808333333,51.0,50.0
287,73.87246129166665,74.39669607291665,68.0,70.0
288,74.48470629166665,74.97705331249999,56.0,55.0
289,72.95409379166666,74.98980841666666,44.0,63.0
290,74.48470629166665,75.00128801041666,51.0,14.0
291,74.79082879166666,75.09440027083333,60.0,70.0
292,74.79082879166666,75.15434926041667,63.0,72.0
293,75.09695129166666,75.33036969791667,68.0,53.0
294,75.40307379166666,75.98725756249999,61.0,64.0
295,75.40307379166666,76.02807389583333,65.0,64.0
296,76.01531879166666,76.28190046875,60.0,49.0
297,76.01531879166666,76.35077803124999,63.0,58.0
298,75.70919629166666,76.38521681249999,53.0,52.0
299,76.32144129166666,76.88266587499999,61.0,53.0
300,76.32144129166666,76.90945159374999,65.0,67.0
301,76.93368629166666,77.22832919791666,53.0,45.0
302,76.32144129166666,77.27042104166667,58.0,49.0
303,75.40307379166666,77.41200269791666,46.0,64.0
304,77.23980879166666,77.42985984375,61.0,70.0
305,77.23980879166666,77.43623739583333,60.0,63.0
306,77.23980879166666,77.44644147916667,65.0,66.0
307,77.85205379166666,78.21940079166666,68.0,52.0
308,77.85205379166666,78.22577834375,60.0,62.0
309,77.85205379166666,78.23980895833333,63.0,63.0
310,77.85205379166666,78.24235997916666,56.0,57.0
311,78.46429879166666,78.68368658333333,56.0,52.0
312,78.15817629166666,79.08674787499999,53.0,45.0
313,78.77042129166666,79.3699111875,63.0,66.0
314,78.77042129166666,79.39924792708332,60.0,63.0
315,78.77042129166666,79.42475813541665,56.0,45.0
316,78.77042129166666,79.51149284374999,68.0,47.0
317,79.38266629166665,79.73853369791667,53.0,54.0
318,79.68878879166665,79.93878883333332,60.0,60.0
319,79.68878879166665,79.94516638541666,56.0,56.0
320,79.68878879166665,79.98343169791666,63.0,63.0
321,79.68878879166665,80.0204215,68.0,47.0
322,77.85205379166666,80.02424803125,41.0,69.0
323,79.99491129166665,80.16072764583332,53.0,70.0
324,80.30103379166665,80.94261553125,61.0,70.0
325,80.30103379166665,80.95919716666666,58.0,62.0
326,80.30103379166665,81.03062575,66.0,69.0
327,81.21940129166666,81.42220744791666,58.0,53.0
328,81.21940129166666,81.49746256249999,65.0,57.0
329,80.91327879166666,81.66072789583333,54.0,61.0
330,81.52552379166666,81.94644222916666,66.0,67.0
331,81.52552379166666,81.94899324999999,61.0,69.0
332,81.83164629166666,82.21047288541666,54.0,51.0
333,80.60715629166666,82.25384023958333,49.0,49.0
334,80.30103379166665,82.29975861458333,42.0,73.0
335,82.13776879166666,82.33164637499999,61.0,55.0
336,82.13776879166666,82.38904434374999,58.0,60.0
337,82.44389129166666,82.67093214583332,66.0,67.0
338,82.75001379166666,83.20664652083333,65.0,63.0
339,82.75001379166666,83.21685060416665,41.0,70.0
340,82.75001379166666,83.24108530208332,56.0,50.0
341,82.75001379166666,83.28317714583332,61.0,62.0
342,83.05613629166666,83.40690165624999,49.0,60.0
343,83.66838129166666,84.11736095833332,56.0,70.0
344,83.66838129166666,84.23725893749999,61.0,73.0
345,83.36225879166666,84.59312634374999,53.0,70.0
346,84.28062629166666,84.69134064583332,56.0,67.0
347,84.58674879166666,84.73343248958332,49.0,67.0
348,84.28062629166666,84.76149371874999,65.0,73.0
349,84.89287129166667,85.19516726041665,68.0,67.0
350,85.19899379166665,85.46302444791665,63.0,66.0
351,85.19899379166665,85.55868772916666,66.0,44.0
352,85.81123879166665,86.29720826041665,63.0,48.0
353,86.11736129166665,86.55996340624999,65.0,60.0
354,86.11736129166665,86.68113689583332,70.0,59.0
355,86.11736129166665,86.70792261458332,66.0,60.0
356,86.72960629166666,87.00129001041665,63.0,59.0
357,85.50511629166665,87.13011656249999,58.0,55.0
358,85.19899379166665,87.14287166666666,51.0,67.0
359,87.03572879166666,87.27935128124999,65.0,54.0
360,87.34185129166666,87.65690236458333,70.0,60.0
361,87.64797379166666,88.02424936458333,57.0,60.0
362,87.64797379166666,88.06761671874999,65.0,58.0
363,87.64797379166666,88.08292284375,60.0,49.0
364,88.26021879166666,88.55103516666667,63.0,72.0
365,88.26021879166666,88.63521885416665,57.0,75.0
366,87.95409629166666,88.64032089583333,53.0,54.0
367,88.56634129166666,88.91710665624998,60.0,75.0
368,88.56634129166666,89.03317810416665,65.0,76.0
369,87.64797379166666,89.31123937499999,41.0,60.0
370,88.87246379166666,89.34822917708333,53.0,51.0
371,89.17858629166666,89.47833123958333,60.0,70.0
372,89.17858629166666,89.51914757291665,63.0,61.0
373,89.48470879166666,89.61608636458332,61.0,72.0
374,89.48470879166666,89.63011697916666,58.0,58.0
375,89.48470879166666,89.63521902083332,44.0,66.0
376,90.09695379166666,90.6811375625,65.0,59.0
377,90.09695379166666,90.71430083333333,63.0,51.0
378,90.09695379166666,90.71557634374999,68.0,64.0
379,90.70919879166665,91.31506623958333,61.0,56.0
380,91.01532129166665,91.40690298958333,63.0,59.0
381,91.01532129166665,91.4770560625,68.0,59.0
382,91.01532129166665,91.71430099999999,65.0,60.0
383,90.40307629166666,91.90562756249999,56.0,59.0
384,91.62756629166665,92.0586888125,61.0,60.0
385,91.93368879166665,92.1428725,63.0,64.0
386,91.93368879166665,92.17731128124998,65.0,69.0
387,91.93368879166665,92.1811378125,68.0,67.0
388,90.09695379166666,92.23343373958332,49.0,75.0
389,92.23981129166665,92.53062766666666,56.0,61.0
390,92.54593379166666,92.99236243749999,48.0,63.0
391,92.54593379166666,93.01277060416666,63.0,66.0
392,92.54593379166666,93.0229746875,68.0,72.0
393,92.85205629166666,93.58675029166666,56.0,55.0
394,93.46430129166666,93.99746464583332,63.0,60.0
395,93.46430129166666,94.06506669791666,68.0,78.0
396,93.15817879166666,94.42476063541666,60.0,54.0
397,94.38266879166666,94.60205658333332,63.0,59.0
398,94.38266879166666,94.61353617708332,75.0,73.0
399,94.68879129166666,94.75384232291665,70.0,37.0
400,94.68879129166666,94.95409745833332,72.0,66.0
401,94.07654629166666,94.96557705208332,48.0,47.0
402,94.99491379166666,95.53445469791666,65.0,60.0
403,94.99491379166666,95.53700571875,73.0,69.0
404,94.99491379166666,95.63522002083333,68.0,61.0
405,95.91328129166666,96.06251601041666,65.0,60.0
406,95.91328129166666,96.08675070833333,68.0,59.0
407,95.60715879166666,96.17858745833333,58.0,48.0
408,95.91328129166666,96.40180178124999,73.0,70.0
409,96.37246504166666,96.61098548958333,58.0,40.0
410,96.52552629166665,96.91073043749999,63.0,69.0
411,96.52552629166665,96.95282228125,72.0,67.0
412,96.83164879166665,97.01277127083333,58.0,52.0
413,94.99491379166666,97.0790978125,46.0,73.0
414,95.30103629166666,97.24108763541666,53.0,56.0
415,97.13777129166665,97.35715908333333,72.0,47.0
416,97.44389379166665,97.84567957291665,72.0,62.0
417,97.44389379166665,97.85843467708332,63.0,61.0
418,97.44389379166665,97.86481222916666,68.0,62.0
419,98.05613879166665,98.27425107291666,63.0,49.0
420,97.75001629166665,98.57782255208332,60.0,47.0
421,98.36226129166666,98.88777158333332,72.0,58.0
422,98.36226129166666,98.94644506249999,68.0,61.0
423,98.97450629166666,99.23471041666666,60.0,48.0
424,97.44389379166665,99.38139411458333,53.0,63.0
425,99.28062879166666,99.49236352083332,63.0,57.0
426,99.28062879166666,99.84695541666666,68.0,60.0
427,99.89287379166666,100.31506773958333,61.0,49.0
428,99.89287379166666,100.33802692708332,66.0,61.0
429,100.04593504166665,100.35715958333333,68.0,28.0
430,99.89287379166666,100.43241469791666,42.0,57.0
431,99.89287379166666,100.46302694791666,70.0,57.0
432,100.19899629166666,100.47068001041666,49.0,50.0
433,100.50511879166666,100.698996375,61.0,42.0
434,100.50511879166666,100.84185354166665,54.0,40.0
435,100.50511879166666,100.86098619791666,68.0,45.0
436,100.81124129166666,101.14670053124999,61.0,51.0
437,100.81124129166666,101.17476176041666,66.0,62.0
438,101.42348629166666,101.60078223958332,61.0,56.0
439,101.11736379166666,101.64542510416666,58.0,46.0
440,100.81124129166666,101.65180265624998,56.0,61.0
441,101.72960879166666,101.99108842708333,66.0,66.0
442,102.03573129166665,102.29338439583333,70.0,60.0
443,102.34185379166665,102.65180282291665,65.0,60.0
444,102.34185379166665,102.70282323958332,68.0,58.0
445,102.95409879166665,103.67986421874998,65.0,46.0
446,102.34185379166665,103.92858874999999,61.0,57.0
447,103.87246629166665,104.21557859375,72.0,72.0
448,103.87246629166665,104.26787452083332,65.0,67.0
449,103.26022129166665,104.29083370833332,73.0,61.0
450,104.17858879166666,104.30869085416666,61.0,62.0
451,102.34185379166665,104.32782351041665,53.0,57.0
452,104.48471129166666,104.78318072916666,68.0,63.0
453,104.79083379166666,105.20537467708333,70.0,49.0
454,104.79083379166666,105.22195631249998,61.0,48.0
455,104.79083379166666,105.23216039583332,66.0,59.0
456,105.40307879166666,105.79210946874998,61.0,54.0
457,105.09695629166666,105.92986459375,58.0,59.0
458,105.70920129166666,106.239813625,66.0,67.0
459,105.70920129166666,106.27935444791666,70.0,61.0
460,106.32144629166666,106.67348716666666,58.0,55.0
461,104.79083379166666,106.69261982291665,51.0,66.0
462,106.62756879166666,106.69389533333333,66.0,66.0
463,106.62756879166666,106.72195656249998,70.0,61.0
464,106.62756879166666,106.73598717708332,61.0,72.0
465,107.23981379166666,107.60460977083332,60.0,73.0
466,107.23981379166666,107.63011997916665,57.0,70.0
467,107.23981379166666,107.66838529166665,65.0,63.0
468,107.85205879166665,108.15435476041665,57.0,66.0
469,107.54593629166666,108.47450787499999,53.0,53.0
470,108.15818129166665,108.53955890625,60.0,73.0
471,108.46430379166665,108.7117528125,63.0,69.0
472,108.77042629166665,109.15690594791666,65.0,59.0
473,109.07654879166665,109.35333455208333,70.0,37.0
474,109.38267129166665,109.67093664583332,72.0,70.0
475,109.68879379166665,110.62119190624999,77.0,46.0
476,109.68879379166665,110.62374292708333,53.0,54.0
477,109.68879379166665,110.647977625,65.0,50.0
478,109.68879379166665,110.66583477083333,69.0,59.0
479,107.23981379166666,110.67986538541666,41.0,72.0
480,112.13777379166666,112.47705956249999,65.0,49.0
481,112.13777379166666,112.48088609374999,73.0,56.0
482,112.13777379166666,112.48853915624998,70.0,57.0
483,112.75001879166666,113.04083516666665,70.0,40.0
484,112.75001879166666,113.06379435416666,65.0,38.0
485,112.75001879166666,113.11481477083332,73.0,41.0
486,113.05614129166666,113.79848835416665,58.0,35.0
487,112.13777379166666,114.02425369791665,46.0,64.0
488,113.66838629166665,114.02552920833332,70.0,43.0
489,113.36226379166665,114.09823330208333,65.0,44.0
490,113.97450879166665,114.10461085416665,58.0,49.0
491,113.97450879166665,114.35588640625,73.0,62.0
492,114.28063129166665,114.45154968749999,72.0,46.0
493,114.58675379166665,114.99109059374999,68.0,51.0
494,114.58675379166665,115.00257018749998,63.0,49.0
495,114.58675379166665,115.02042733333332,72.0,44.0
496,114.89287629166665,115.79721317708332,60.0,48.0
497,115.19899879166665,115.92093768749999,63.0,36.0
498,115.50512129166665,116.08675404166665,68.0,56.0
499,115.50512129166665,116.10206016666666,72.0,47.0
500,116.42348879166666,116.65052964583332,63.0,59.0
501,116.11736629166666,116.77042762499998,60.0,44.0
502,114.58675379166665,116.79083579166665,53.0,57.0
503,116.57655004166665,116.84440722916665,68.0,53.0
504,116.72961129166666,116.90818275,70.0,61.0
505,117.03573379166666,117.48471345833332,61.0,61.0
506,117.03573379166666,117.62501960416665,66.0,62.0
507,117.03573379166666,117.64415226041666,70.0,49.0
508,117.64797879166666,117.92986659374999,68.0,57.0
509,117.64797879166666,117.95792782291666,61.0,53.0
510,117.95410129166666,118.22068296874998,70.0,66.0
511,117.03573379166666,118.28956053124999,54.0,58.0
512,118.26022379166666,118.66966263541666,63.0,53.0
513,118.26022379166666,118.79976469791666,68.0,61.0
514,118.26022379166666,118.89670348958332,56.0,54.0
515,118.87246879166666,119.06379535416666,66.0,59.0
516,119.17859129166665,119.87246895833333,65.0,73.0
517,119.17859129166665,119.87501997916665,63.0,57.0
518,119.17859129166665,119.97961183333332,68.0,64.0
519,120.09695879166665,120.60843846875,61.0,52.0
520,120.40308129166665,120.81762217708332,68.0,45.0
521,120.40308129166665,120.95792832291666,63.0,59.0
522,120.40308129166665,121.01405078124999,65.0,62.0
523,121.01532629166665,121.35588757291666,61.0,39.0
524,119.79083629166665,121.38139778124999,56.0,63.0
525,121.32144879166665,121.59313251041665,65.0,63.0
526,121.32144879166665,121.60206108333333,63.0,55.0
527,119.48471379166665,121.65690803124998,49.0,58.0
528,121.32144879166665,121.73216314583333,68.0,63.0
529,121.62757129166665,121.92731623958332,56.0,53.0
530,121.93369379166666,122.32144895833332,61.0,59.0
531,121.93369379166666,122.37884692708332,66.0,44.0
532,121.93369379166666,122.37884692708332,70.0,58.0
533,122.54593879166666,122.77935719791665,61.0,55.0
534,122.23981629166666,122.88267354166665,58.0,55.0
535,122.85206129166666,123.30741851041665,66.0,61.0
536,122.85206129166666,123.35078586458332,70.0,49.0
537,123.46430629166666,123.73726552083332,58.0,58.0
538,121.93369379166666,124.01150026041665,51.0,62.0
539,123.77042879166666,124.06252067708333,70.0,46.0
540,124.07655129166666,124.33420439583332,72.0,53.0
541,124.38267379166666,124.88139836458332,65.0,57.0
542,124.38267379166666,124.97706164583332,73.0,61.0
543,124.38267379166666,125.08292901041665,70.0,55.0
544,124.99491879166665,125.46558213541665,58.0,47.0
545,125.30104129166665,125.88905159374998,65.0,60.0
546,124.38267379166666,126.01532712499998,46.0,54.0
547,125.30104129166665,126.01532712499998,73.0,56.0
548,125.91328629166665,126.05486794791665,58.0,43.0
549,124.68879629166665,126.06124549999998,53.0,38.0
550,126.21940879166665,126.48088842708331,63.0,53.0
551,126.21940879166665,126.62757212499999,72.0,60.0
552,126.21940879166665,126.66966396874999,44.0,40.0
553,126.83165379166665,127.33165387499999,66.0,62.0
554,126.83165379166665,127.33930693749998,61.0,62.0
555,126.83165379166665,127.43879675,70.0,61.0
556,126.83165379166665,127.62374576041665,42.0,53.0
557,127.44389879166665,127.64287841666666,54.0,46.0
558,127.13777629166665,127.72068455208333,49.0,48.0
559,127.75002129166666,127.86864376041666,61.0,49.0
560,127.75002129166666,127.99491929166665,70.0,51.0
561,128.05614379166664,128.42093977083331,63.0,49.0
562,128.05614379166664,128.4260418125,68.0,61.0
563,128.05614379166664,128.56634795833332,41.0,50.0
564,128.36226629166666,128.72196022916665,53.0,39.0
565,128.66838879166664,128.88777658333333,63.0,48.0
566,128.97451129166666,129.17731744791666,68.0,55.0
567,129.28063379166665,129.87374613541667,65.0,59.0
568,129.28063379166665,129.88522572916665,61.0,51.0
569,130.19900129166666,130.54211359374997,60.0,58.0
570,130.50512379166665,130.66073606249998,61.0,69.0
571,129.89287879166665,130.70027688541666,58.0,55.0
572,130.81124629166666,131.0421136770833,65.0,62.0
573,129.58675629166666,131.08930756249998,53.0,48.0
574,131.11736879166665,131.37502189583333,73.0,63.0
575,131.11736879166665,131.3941545520833,58.0,46.0
576,129.28063379166665,131.43369537499999,46.0,63.0
577,131.42349129166666,131.678593375,53.0,59.0
578,131.42349129166666,131.71813419791664,72.0,61.0
579,131.72961379166665,132.4923690208333,65.0,52.0
580,131.72961379166665,132.52553229166665,70.0,61.0
581,131.72961379166665,132.58675679166666,46.0,62.0
582,134.17859379166666,134.47961425,46.0,61.0
583,134.48471629166664,134.78573674999998,53.0,45.0
584,134.79083879166666,135.09185925,58.0,53.0
585,135.09696129166664,135.39798174999999,60.0,51.0
586,135.40308379166666,135.70410425,61.0,59.0
587,135.70920629166665,136.01022675,63.0,56.0
588,136.01532879166666,136.31634924999997,65.0,50.0
589,136.32145129166665,136.62247175,70.0,50.0
590,136.62757379166666,136.92859424999997,53.0,59.0
591,136.62757379166666,136.92859424999997,68.0,43.0
592,136.93369629166665,137.23471675,60.0,57.0
593,137.23981879166666,137.54083924999998,63.0,52.0
594,137.54594129166665,137.84696175,68.0,56.0
595,138.15818629166665,138.45920675,65.0,69.0
596,138.46430879166667,139.07145175,60.0,57.0
597,139.07655379166664,139.37757424999998,42.0,63.0
598,139.07655379166664,139.37757424999998,58.0,53.0
599,139.07655379166664,139.37757424999998,61.0,60.0
600,139.07655379166664,139.37757424999998,65.0,62.0
601,139.38267629166666,139.68369675,49.0,41.0
602,139.68879879166664,139.98981924999998,54.0,48.0
603,139.99492129166666,140.29594175,58.0,48.0
604,140.60716629166666,140.90818675,61.0,52.0
605,140.91328879166664,141.21430924999999,54.0,46.0
606,141.21941129166666,141.52043175,63.0,37.0
607,141.52553379166665,141.82655425,49.0,61.0
608,141.52553379166665,141.82655425,65.0,44.0
609,141.83165629166666,142.13267674999997,56.0,60.0
610,142.13777879166665,142.43879925,61.0,56.0
611,142.44390129166666,142.74492174999997,63.0,49.0
612,142.75002379166665,142.89798299999998,65.0,49.0
613,143.05614629166666,143.35716674999998,68.0,43.0
614,143.36226879166665,143.96941174999998,72.0,59.0
615,143.97451379166665,144.27553425,51.0,57.0
616,144.28063629166667,144.58165674999998,58.0,48.0
617,144.58675879166665,144.88777925,63.0,54.0
618,144.89288129166664,145.19390174999998,65.0,55.0
619,145.50512629166664,145.80614674999998,66.0,60.0
620,145.81124879166666,146.11226925,58.0,59.0
621,146.42349379166666,146.72451425,46.0,55.0
622,146.42349379166666,146.72451425,61.0,48.0
623,146.42349379166666,146.72451425,65.0,42.0
624,146.72961629166664,147.03063674999999,53.0,40.0
625,147.03573879166666,147.33675925,58.0,44.0
626,147.34186129166665,147.64288175,60.0,42.0
627,147.34186129166665,147.64288175,63.0,49.0
628,147.64798379166666,147.795943,61.0,55.0
629,147.64798379166666,147.795943,65.0,55.0
630,148.26022879166666,148.86737175,53.0,61.0
631,148.87247379166666,149.17349424999998,42.0,52.0
632,148.87247379166666,149.17349424999998,58.0,51.0
633,148.87247379166666,149.17349424999998,61.0,57.0
634,148.87247379166666,149.17349424999998,65.0,57.0
635,149.17859629166665,149.47961675,49.0,49.0
636,149.48471879166667,149.78573924999998,54.0,49.0
637,150.09696379166664,150.39798424999998,41.0,57.0
638,150.09696379166664,150.39798424999998,53.0,53.0
639,150.09696379166664,150.39798424999998,56.0,47.0
640,150.09696379166664,150.39798424999998,60.0,53.0
641,150.09696379166664,150.39798424999998,63.0,56.0
642,151.01533129166666,151.62247424999998,46.0,61.0
643,151.01533129166666,151.62247424999998,61.0,58.0
644,151.01533129166666,151.62247424999998,65.0,55.0
645,151.62757629166666,151.92859675,58.0,37.0
646,151.93369879166664,152.23471924999998,60.0,44.0
647,152.23982129166666,152.54084175,61.0,56.0
648,152.54594379166664,153.15308674999997,65.0,34.0
649,153.77043379166665,154.0638011875,65.0,40.0
650,156.21941379166665,156.28446482291665,58.0,39.0
651,156.21941379166665,156.52553629166664,34.0,70.0
652,156.21941379166665,156.52936282291665,46.0,62.0
653,156.21941379166665,156.596964875,65.0,60.0
654,156.21941379166665,156.60844446874998,70.0,59.0
655,156.21941379166665,156.62119957291665,73.0,58.0
656,156.83165879166665,157.00257718749998,65.0,49.0
657,156.52553629166664,157.00767922916665,58.0,45.0
658,156.83165879166665,157.19773028125,72.0,59.0
659,157.13778129166664,157.46686297916665,61.0,63.0
660,157.13778129166664,157.67094464583332,70.0,58.0
661,157.13778129166664,157.75002629166664,73.0,73.0
662,157.13778129166664,157.76405690624998,65.0,63.0
663,157.75002629166664,158.07528144791667,61.0,40.0
664,156.98472004166666,158.24237331249998,60.0,53.0
665,158.05614879166666,158.32017944791664,70.0,63.0
666,158.05614879166666,158.33803659375,73.0,67.0
667,158.05614879166666,158.40181211458332,65.0,61.0
668,158.36227129166664,158.61992439583332,61.0,63.0
669,158.66839379166666,158.99109792708333,72.0,67.0
670,158.66839379166666,159.01533262499999,68.0,67.0
671,158.66839379166666,159.0178836458333,63.0,67.0
672,159.28063879166666,159.5306388333333,63.0,38.0
673,158.97451629166665,159.71941437499999,60.0,49.0
674,159.58676129166665,160.0242613645833,72.0,64.0
675,159.58676129166665,160.1581899583333,63.0,55.0
676,159.58676129166665,160.20410833333332,68.0,67.0
677,158.66839379166666,160.4770675625,41.0,67.0
678,160.19900629166665,160.59824105208332,60.0,53.0
679,158.66839379166666,160.6365063645833,53.0,67.0
680,160.50512879166666,160.75385332291665,68.0,70.0
681,160.50512879166666,160.79084312499998,72.0,73.0
682,160.50512879166666,160.84186354166664,63.0,69.0
683,160.81125129166665,161.09058807291666,53.0,65.0
684,160.81125129166665,161.11737379166667,41.0,65.0
685,161.11737379166667,161.45410854166664,70.0,81.0
686,161.11737379166667,161.45793507291665,66.0,81.0
687,161.11737379166667,161.53701671874998,61.0,81.0
688,161.72961879166664,161.95028209375,61.0,57.0
689,161.42349629166665,162.29722092708332,58.0,47.0
690,162.03574129166665,162.46686381249998,70.0,66.0
691,162.03574129166665,162.66584343749997,66.0,70.0
692,162.03574129166665,162.71048630208332,61.0,66.0
693,162.64798629166665,162.96941491666666,58.0,50.0
694,161.11737379166667,163.11482310416665,42.0,81.0
695,162.95410879166664,163.22961904166664,66.0,70.0
696,162.95410879166664,163.25385373958332,61.0,70.0
697,162.95410879166664,163.30232313541666,70.0,70.0
698,161.11737379166667,163.44135377083333,54.0,81.0
699,163.26023129166666,163.49109867708333,56.0,62.0
700,163.26023129166666,163.53319052083333,68.0,70.0
701,163.56635379166664,164.03701713541665,37.0,70.0
702,163.56635379166664,164.09313959374998,65.0,70.0
703,163.56635379166664,164.10334367708333,68.0,70.0
704,163.56635379166664,164.13268041666666,49.0,70.0
705,163.56635379166664,164.14926205208332,73.0,70.0
706,163.87247629166666,164.16329266666665,56.0,52.0
707,164.17859879166664,164.51405803125,61.0,58.0
708,165.09696629166666,165.29467040625,68.0,57.0
709,165.09696629166666,165.30232346875,73.0,54.0
710,165.40308879166665,165.47706839583333,73.0,57.0
711,164.79084379166665,165.59186433333332,65.0,67.0
712,164.48472129166666,165.61609903124997,63.0,64.0
713,165.40308879166665,165.74365007291664,68.0,64.0
714,165.70921129166666,166.01023174999997,73.0,67.0
715,166.01533379166665,166.22069096874998,61.0,75.0
716,166.01533379166665,166.61099715625,39.0,75.0
717,166.01533379166665,166.6212012395833,70.0,75.0
718,166.01533379166665,166.63268083333332,73.0,75.0
719,166.01533379166665,166.67987471874997,66.0,75.0
720,166.62757879166665,167.06252784375,63.0,54.0
721,166.93370129166664,167.21176256249998,65.0,63.0
722,166.93370129166664,167.24492583333333,66.0,70.0
723,166.93370129166664,167.2908442083333,70.0,61.0
724,166.01533379166665,167.98344636458333,51.0,75.0
725,166.32145629166666,167.99875248958332,58.0,57.0
726,167.54594629166664,168.02298718749998,63.0,61.0
727,167.85206879166665,168.15308925,75.0,67.0
728,167.85206879166665,168.15564027083332,70.0,76.0
729,168.15819129166664,168.30615049999997,73.0,67.0
730,168.31125254166665,168.45921174999998,70.0,67.0
731,168.46431379166665,168.9247730520833,34.0,71.0
732,168.46431379166665,169.02681388541666,46.0,71.0
733,168.46431379166665,169.03574245833332,73.0,71.0
734,168.46431379166665,169.03574245833332,73.0,71.0
735,168.77043629166664,169.06125266666666,53.0,51.0
736,169.07655879166666,169.43625272916665,58.0,40.0
737,169.38268129166664,169.70666093749998,70.0,58.0
738,169.99492629166664,170.29977328125,61.0,64.0
739,170.30104879166666,170.44518146874998,65.0,66.0
740,170.30104879166666,170.46176310416666,70.0,75.0
741,170.30104879166666,170.49747739583333,73.0,69.0
742,170.45411004166664,170.5740080208333,61.0,66.0
743,169.38268129166664,170.59441618749997,60.0,69.0
744,170.60717129166665,170.71814069791665,65.0,48.0
745,170.76023254166665,170.86737541666665,68.0,55.0
746,170.91329379166666,171.28956936458331,70.0,71.0
747,170.91329379166666,171.29849793749997,61.0,71.0
748,170.91329379166666,171.31763059374998,66.0,71.0
749,170.91329379166666,171.49875307291666,42.0,71.0
750,171.21941629166665,171.61610003124997,58.0,59.0
751,170.91329379166666,171.62502860416666,54.0,71.0
752,171.52553879166666,171.7882939375,61.0,66.0
753,171.83166129166665,172.07145724999998,70.0,66.0
754,172.13778379166666,172.67604918749998,68.0,63.0
755,172.13778379166666,172.8393145208333,41.0,64.0
756,172.13778379166666,172.85972268749998,72.0,58.0
757,172.13778379166666,172.86482472916666,63.0,63.0
758,172.13778379166666,172.88268187499997,53.0,59.0
759,173.36227379166664,173.8852330625,34.0,68.0
760,173.36227379166664,173.94645756249997,46.0,68.0
761,173.66839629166665,173.95411062499997,53.0,57.0
762,173.97451879166664,174.41712090624998,58.0,59.0
763,173.36227379166664,174.61227399999999,65.0,68.0
764,173.36227379166664,174.6416107395833,73.0,68.0
765,174.89288629166666,175.35462106249997,65.0,59.0
766,175.19900879166664,175.52809047916665,73.0,63.0
767,174.58676379166664,175.53957007291666,61.0,63.0
768,175.50513129166666,175.84314155208332,70.0,62.0
769,175.81125379166664,176.5242641145833,61.0,57.0
770,175.81125379166664,176.62120290624998,65.0,48.0
771,175.81125379166664,176.75385598958331,72.0,61.0
772,174.28064129166665,177.20028463541664,60.0,64.0
773,176.72962129166666,177.20283565625,61.0,30.0
774,177.03574379166665,177.23344790624998,70.0,49.0
775,178.26023379166665,178.63395834374998,68.0,57.0
776,178.26023379166665,178.653091,65.0,54.0
777,178.26023379166665,178.67222365625,73.0,57.0
778,178.87247879166665,179.13650944791664,65.0,48.0
779,178.56635629166664,179.35462172916664,61.0,48.0
780,179.17860129166664,179.78574425,68.0,63.0
781,179.17860129166664,179.79084629166664,73.0,60.0
782,179.79084629166664,180.10972389583333,61.0,57.0
783,180.09696879166665,180.35844842708332,65.0,60.0
784,180.09696879166665,180.35972393749998,68.0,62.0
785,178.26023379166665,180.52426478125,49.0,64.0
786,180.09696879166665,180.5497749895833,73.0,69.0
787,180.70921379166666,181.18880570833332,63.0,51.0
788,180.70921379166666,181.19518326041666,72.0,56.0
789,180.70921379166666,181.20283632291665,68.0,56.0
790,181.32145879166666,181.86992827083333,56.0,54.0
791,181.62758129166664,181.93242828124997,63.0,60.0
792,181.01533629166664,181.96941808333332,51.0,50.0
793,181.62758129166664,182.15181607291666,68.0,70.0
794,182.23982629166665,182.73217331249998,56.0,55.0
795,180.70921379166666,182.74492841666665,44.0,63.0
796,182.23982629166665,182.75640801041666,51.0,14.0
797,182.54594879166666,182.84952027083332,60.0,70.0
798,182.54594879166666,182.90946926041664,63.0,72.0
799,182.85207129166665,183.08548969791664,68.0,53.0
800,183.15819379166666,183.7423775625,61.0,64.0
801,183.15819379166666,183.7831938958333,65.0,64.0
802,183.77043879166666,184.03702046874997,60.0,49.0
803,183.77043879166666,184.10589803124998,63.0,58.0
804,183.46431629166665,184.14033681249998,53.0,52.0
805,184.07656129166665,184.637785875,61.0,53.0
806,184.07656129166665,184.66457159374997,65.0,67.0
807,184.68880629166665,184.98344919791666,53.0,45.0
808,184.07656129166665,185.02554104166666,58.0,49.0
809,183.15819379166666,185.16712269791665,46.0,64.0
810,184.99492879166664,185.18497984374997,61.0,70.0
811,184.99492879166664,185.1913573958333,60.0,63.0
812,184.99492879166664,185.20156147916666,65.0,66.0
813,185.60717379166664,185.97452079166666,68.0,52.0
814,185.60717379166664,185.98089834374997,60.0,62.0
815,185.60717379166664,185.9949289583333,63.0,63.0
816,185.60717379166664,185.99747997916666,56.0,57.0
817,186.21941879166664,186.4388065833333,56.0,52.0
818,185.91329629166665,186.841867875,53.0,45.0
819,186.52554129166666,187.12503118749999,63.0,66.0
820,186.52554129166666,187.1543679270833,60.0,63.0
821,186.52554129166666,187.17987813541666,56.0,45.0
822,186.52554129166666,187.26661284374998,68.0,47.0
823,187.13778629166666,187.49365369791664,53.0,54.0
824,187.44390879166664,187.69390883333332,60.0,60.0
825,187.44390879166664,187.70028638541666,56.0,56.0
826,187.44390879166664,187.73855169791665,63.0,63.0
827,187.44390879166664,187.77554149999997,68.0,47.0
828,185.60717379166664,187.77936803125,41.0,69.0
829,187.75003129166666,187.9158476458333,53.0,70.0
830,188.05615379166665,188.69773553124998,61.0,70.0
831,188.05615379166665,188.71431716666666,58.0,62.0
832,188.05615379166665,188.78574575,66.0,69.0
833,188.97452129166666,189.17732744791664,58.0,53.0
834,188.97452129166666,189.25258256249998,65.0,57.0
835,188.66839879166665,189.4158478958333,54.0,61.0
836,189.28064379166665,189.70156222916665,66.0,67.0
837,189.28064379166665,189.70411324999998,61.0,69.0
838,189.58676629166663,189.96559288541664,54.0,51.0
839,188.36227629166666,190.0089602395833,49.0,49.0
840,188.05615379166665,190.05487861458332,42.0,73.0
841,189.89288879166665,190.08676637499997,61.0,55.0
842,189.89288879166665,190.14416434375,58.0,60.0
843,190.19901129166664,190.42605214583332,66.0,67.0
844,190.50513379166665,190.96176652083332,65.0,63.0
845,190.50513379166665,190.97197060416664,41.0,70.0
846,190.50513379166665,190.99620530208333,56.0,50.0
847,190.50513379166665,191.03829714583333,61.0,62.0
848,190.81125629166664,191.16202165624998,49.0,60.0
849,191.42350129166664,191.8724809583333,56.0,70.0
850,191.42350129166664,191.99237893749998,61.0,73.0
851,191.11737879166665,192.34824634375,53.0,70.0
852,192.03574629166664,192.44646064583333,56.0,67.0
853,192.34186879166666,192.48855248958333,49.0,67.0
854,192.03574629166664,192.51661371875,65.0,73.0
855,192.64799129166664,192.95028726041664,68.0,67.0
856,192.95411379166666,193.21814444791664,63.0,66.0
857,192.95411379166666,193.31380772916665,66.0,44.0
858,193.56635879166666,194.05232826041666,63.0,48.0
859,193.87248129166665,194.31508340624998,65.0,60.0
860,193.87248129166665,194.4362568958333,70.0,59.0
861,193.87248129166665,194.46304261458332,66.0,60.0
862,194.48472629166665,194.75641001041666,63.0,59.0
863,193.26023629166664,194.88523656249998,58.0,55.0
864,192.95411379166666,194.89799166666666,51.0,67.0
865,194.79084879166666,195.03447128124998,65.0,54.0
866,195.09697129166665,195.41202236458332,70.0,60.0
867,195.40309379166663,195.77936936458332,57.0,60.0
868,195.40309379166663,195.82273671874998,65.0,58.0
869,195.40309379166663,195.83804284374997,60.0,49.0
870,196.01533879166664,196.30615516666666,63.0,72.0
871,196.01533879166664,196.39033885416666,57.0,75.0
872,195.70921629166665,196.3954408958333,53.0,54.0
873,196.32146129166665,196.67222665625,60.0,75.0
874,196.32146129166665,196.78829810416664,65.0,76.0
875,195.40309379166663,197.066359375,41.0,60.0
876,196.62758379166664,197.10334917708332,53.0,51.0
877,196.93370629166665,197.2334512395833,60.0,70.0
878,196.93370629166665,197.27426757291664,63.0,61.0
879,197.23982879166664,197.37120636458332,61.0,72.0
880,197.23982879166664,197.38523697916665,58.0,58.0
881,197.23982879166664,197.39033902083332,44.0,66.0
882,197.85207379166664,198.43625756249997,65.0,59.0
883,197.85207379166664,198.46942083333332,63.0,51.0
884,197.85207379166664,198.47069634374998,68.0,64.0
885,198.46431879166664,199.0701862395833,61.0,56.0
886,198.77044129166666,199.1620229895833,63.0,59.0
887,198.77044129166666,199.23217606249997,68.0,59.0
888,198.77044129166666,199.46942099999998,65.0,60.0
889,198.15819629166666,199.66074756249998,56.0,59.0
890,199.38268629166666,199.81380881249999,61.0,60.0
891,199.68880879166664,199.8979925,63.0,64.0
892,199.68880879166664,199.93243128125,65.0,69.0
893,199.68880879166664,199.93625781249997,68.0,67.0
894,197.85207379166664,199.98855373958332,49.0,75.0
895,199.99493129166666,200.28574766666665,56.0,61.0
896,200.30105379166665,200.74748243749997,48.0,63.0
897,200.30105379166665,200.76789060416664,63.0,66.0
898,200.30105379166665,200.7780946875,68.0,72.0
899,200.60717629166666,201.34187029166665,56.0,55.0
900,201.21942129166663,201.7525846458333,63.0,60.0
901,201.21942129166663,201.82018669791665,68.0,78.0
902,200.91329879166665,202.17988063541665,60.0,54.0
903,202.13778879166665,202.3571765833333,63.0,59.0
904,202.13778879166665,202.36865617708332,75.0,73.0
905,202.44391129166664,202.50896232291666,70.0,37.0
906,202.44391129166664,202.7092174583333,72.0,66.0
907,201.83166629166664,202.72069705208332,48.0,47.0
908,202.75003379166665,203.28957469791663,65.0,60.0
909,202.75003379166665,203.29212571875,73.0,69.0
910,202.75003379166665,203.39034002083332,68.0,61.0
911,203.66840129166664,203.81763601041663,65.0,60.0
912,203.66840129166664,203.84187070833332,68.0,59.0
913,203.36227879166665,203.93370745833332,58.0,48.0
914,203.66840129166664,204.15692178125,73.0,70.0
915,204.12758504166663,204.3661054895833,58.0,40.0
916,204.28064629166664,204.66585043749998,63.0,69.0
917,204.28064629166664,204.70794228124998,72.0,67.0
918,204.58676879166666,204.7678912708333,58.0,52.0
919,202.75003379166665,204.8342178125,46.0,73.0
920,203.05615629166664,204.99620763541665,53.0,56.0
921,204.89289129166664,205.1122790833333,72.0,47.0
922,205.19901379166666,205.60079957291666,72.0,62.0
923,205.19901379166666,205.6135546770833,63.0,61.0
924,205.19901379166666,205.61993222916664,68.0,62.0
925,205.81125879166666,206.02937107291666,63.0,49.0
926,205.50513629166664,206.33294255208332,60.0,47.0
927,206.11738129166665,206.64289158333332,72.0,58.0
928,206.11738129166665,206.70156506249998,68.0,61.0
929,206.72962629166665,206.98983041666665,60.0,48.0
930,205.19901379166666,207.13651411458332,53.0,63.0
931,207.03574879166663,207.24748352083333,63.0,57.0
932,207.03574879166663,207.60207541666665,68.0,60.0
933,207.64799379166664,208.0701877395833,61.0,49.0
934,207.64799379166664,208.09314692708332,66.0,61.0
935,207.80105504166664,208.1122795833333,68.0,28.0
936,207.64799379166664,208.18753469791665,42.0,57.0
937,207.64799379166664,208.21814694791664,70.0,57.0
938,207.95411629166665,208.22580001041663,49.0,50.0
939,208.26023879166664,208.45411637499998,61.0,42.0
940,208.26023879166664,208.59697354166664,54.0,40.0
941,208.26023879166664,208.61610619791665,68.0,45.0
942,208.56636129166665,208.90182053124997,61.0,51.0
943,208.56636129166665,208.92988176041663,66.0,62.0
944,209.17860629166665,209.35590223958332,61.0,56.0
945,208.87248379166664,209.40054510416664,58.0,46.0
946,208.56636129166665,209.40692265624998,56.0,61.0
947,209.48472879166664,209.7462084270833,66.0,66.0
948,209.79085129166666,210.0485043958333,70.0,60.0
949,210.09697379166664,210.40692282291664,65.0,60.0
950,210.09697379166664,210.4579432395833,68.0,58.0
951,210.70921879166664,211.43498421874997,65.0,46.0
952,210.09697379166664,211.68370875,61.0,57.0
953,211.62758629166666,211.97069859374997,72.0,72.0
954,211.62758629166666,212.02299452083332,65.0,67.0
955,211.01534129166666,212.04595370833331,73.0,61.0
956,211.93370879166665,212.06381085416663,61.0,62.0
957,210.09697379166664,212.08294351041664,53.0,57.0
958,212.23983129166663,212.53830072916665,68.0,63.0
959,212.54595379166665,212.96049467708332,70.0,49.0
960,212.54595379166665,212.97707631249997,61.0,48.0
961,212.54595379166665,212.98728039583332,66.0,59.0
962,213.15819879166665,213.54722946874998,61.0,54.0
963,212.85207629166663,213.68498459375,58.0,59.0
964,213.46432129166664,213.994933625,66.0,67.0
965,213.46432129166664,214.03447444791664,70.0,61.0
966,214.07656629166664,214.42860716666664,58.0,55.0
967,212.54595379166665,214.44773982291665,51.0,66.0
968,214.38268879166665,214.4490153333333,66.0,66.0
969,214.38268879166665,214.47707656249997,70.0,61.0
970,214.38268879166665,214.4911071770833,61.0,72.0
971,214.99493379166665,215.35972977083333,60.0,73.0
972,214.99493379166665,215.38523997916664,57.0,70.0
973,214.99493379166665,215.42350529166666,65.0,63.0
974,215.60717879166666,215.90947476041666,57.0,66.0
975,215.30105629166664,216.22962787499998,53.0,53.0
976,215.91330129166664,216.29467890624997,60.0,73.0
977,216.21942379166666,216.4668728125,63.0,69.0
978,216.52554629166664,216.91202594791665,65.0,59.0
979,216.83166879166666,217.10845455208332,70.0,37.0
980,217.13779129166664,217.4260566458333,72.0,70.0
981,217.44391379166666,218.37631190624998,77.0,46.0
982,217.44391379166666,218.3788629270833,53.0,54.0
983,217.44391379166666,218.403097625,65.0,50.0
984,217.44391379166666,218.4209547708333,69.0,59.0
985,214.99493379166665,218.43498538541664,41.0,72.0
986,219.89289379166664,220.23217956249997,65.0,49.0
987,219.89289379166664,220.23600609374998,73.0,56.0
988,219.89289379166664,220.24365915624998,70.0,57.0
989,220.50513879166664,220.79595516666666,70.0,40.0
990,220.50513879166664,220.81891435416665,65.0,38.0
991,220.50513879166664,220.8699347708333,73.0,41.0
992,220.81126129166665,221.55360835416664,58.0,35.0
993,219.89289379166664,221.77937369791664,46.0,64.0
994,221.42350629166665,221.7806492083333,70.0,43.0
995,221.11738379166664,221.85335330208332,65.0,44.0
996,221.72962879166664,221.85973085416666,58.0,49.0
997,221.72962879166664,222.11100640624997,73.0,62.0
998,222.03575129166666,222.20666968749998,72.0,46.0
999,222.34187379166664,222.74621059375,68.0,51.0
1000,222.34187379166664,222.75769018749997,63.0,49.0
1001,222.34187379166664,222.77554733333332,72.0,44.0
1002,222.64799629166666,223.5523331770833,60.0,48.0
1003,222.95411879166664,223.6760576875,63.0,36.0
1004,223.26024129166666,223.84187404166664,68.0,56.0
1005,223.26024129166666,223.85718016666664,72.0,47.0
1006,224.17860879166665,224.4056496458333,63.0,59.0
1007,223.87248629166663,224.52554762499997,60.0,44.0
1008,222.34187379166664,224.54595579166664,53.0,57.0
1009,224.33167004166665,224.59952722916665,68.0,53.0
1010,224.48473129166663,224.66330274999999,70.0,61.0
1011,224.79085379166665,225.23983345833332,61.0,61.0
1012,224.79085379166665,225.38013960416666,66.0,62.0
1013,224.79085379166665,225.39927226041664,70.0,49.0
1014,225.40309879166665,225.68498659374998,68.0,57.0
1015,225.40309879166665,225.71304782291665,61.0,53.0
1016,225.70922129166664,225.97580296874997,70.0,66.0
1017,224.79085379166665,226.04468053124998,54.0,58.0
1018,226.01534379166665,226.42478263541665,63.0,53.0
1019,226.01534379166665,226.55488469791663,68.0,61.0
1020,226.01534379166665,226.6518234895833,56.0,54.0
1021,226.62758879166665,226.81891535416665,66.0,59.0
1022,226.93371129166664,227.62758895833332,65.0,73.0
1023,226.93371129166664,227.63013997916664,63.0,57.0
1024,226.93371129166664,227.7347318333333,68.0,64.0
1025,227.85207879166666,228.36355846874997,61.0,52.0
1026,228.15820129166664,228.5727421770833,68.0,45.0
1027,228.15820129166664,228.71304832291665,63.0,59.0
1028,228.15820129166664,228.76917078124998,65.0,62.0
1029,228.77044629166664,229.11100757291663,61.0,39.0
1030,227.54595629166664,229.13651778124998,56.0,63.0
1031,229.07656879166663,229.34825251041664,65.0,63.0
1032,229.07656879166663,229.3571810833333,63.0,55.0
1033,227.23983379166665,229.41202803124997,49.0,58.0
1034,229.07656879166663,229.48728314583332,68.0,63.0
1035,229.38269129166665,229.68243623958332,56.0,53.0
1036,229.68881379166663,230.07656895833333,61.0,59.0
1037,229.68881379166663,230.13396692708332,66.0,44.0
1038,229.68881379166663,230.13396692708332,70.0,58.0
1039,230.30105879166663,230.53447719791666,61.0,55.0
1040,229.99493629166665,230.63779354166664,58.0,55.0
1041,230.60718129166665,231.06253851041666,66.0,61.0
1042,230.60718129166665,231.10590586458332,70.0,49.0
1043,231.21942629166665,231.49238552083332,58.0,58.0
1044,229.68881379166663,231.76662026041666,51.0,62.0
1045,231.52554879166664,231.81764067708332,70.0,46.0
1046,231.83167129166665,232.0893243958333,72.0,53.0
1047,232.13779379166664,232.6365183645833,65.0,57.0
1048,232.13779379166664,232.73218164583332,73.0,61.0
1049,232.13779379166664,232.83804901041665,70.0,55.0
1050,232.75003879166664,233.22070213541664,58.0,47.0
1051,233.05616129166665,233.64417159374997,65.0,60.0
1052,232.13779379166664,233.77044712499998,46.0,54.0
1053,233.05616129166665,233.77044712499998,73.0,56.0
1054,233.66840629166666,233.80998794791665,58.0,43.0
1055,232.44391629166665,233.8163655,53.0,38.0
1056,233.97452879166664,234.2360084270833,63.0,53.0
1057,233.97452879166664,234.38269212499998,72.0,60.0
1058,233.97452879166664,234.42478396874998,44.0,40.0
1059,234.58677379166664,235.08677387499998,66.0,62.0
1060,234.58677379166664,235.09442693749997,61.0,62.0
1061,234.58677379166664,235.19391674999997,70.0,61.0
1062,234.58677379166664,235.37886576041663,42.0,53.0
1063,235.19901879166665,235.39799841666664,54.0,46.0
1064,234.89289629166663,235.4758045520833,49.0,48.0
1065,235.50514129166663,235.62376376041664,61.0,49.0
1066,235.50514129166663,235.75003929166664,70.0,51.0
1067,235.81126379166665,236.17605977083332,63.0,49.0
1068,235.81126379166665,236.18116181249997,68.0,61.0
1069,235.81126379166665,236.3214679583333,41.0,50.0
1070,236.11738629166663,236.47708022916663,53.0,39.0
1071,236.42350879166665,236.6428965833333,63.0,48.0
1072,236.72963129166664,236.93243744791664,68.0,55.0
1073,237.03575379166665,237.62886613541664,65.0,59.0
1074,237.03575379166665,237.64034572916665,61.0,51.0
1075,237.95412129166664,238.29723359374998,60.0,58.0
1076,238.26024379166665,238.41585606249998,61.0,69.0
1077,237.64799879166665,238.45539688541663,58.0,55.0
1078,238.56636629166664,238.7972336770833,65.0,62.0
1079,237.34187629166664,238.8444275625,53.0,48.0
1080,238.87248879166665,239.1301418958333,73.0,63.0
1081,238.87248879166665,239.1492745520833,58.0,46.0
1082,237.03575379166665,239.188815375,46.0,63.0
1083,239.17861129166664,239.43371337499997,53.0,59.0
1084,239.17861129166664,239.47325419791665,72.0,61.0
1085,239.48473379166666,240.2474890208333,65.0,52.0
1086,239.48473379166666,240.28065229166666,70.0,61.0
1087,239.48473379166666,240.34187679166664,46.0,62.0
1088,241.93371379166663,242.34442814583332,60.0,73.0
1089,241.93371379166663,242.3559077395833,65.0,67.0
1090,241.93371379166663,242.38396896874997,61.0,82.0
1091,242.39289754166666,242.48856082291664,60.0,66.0
1092,242.39289754166666,242.49876490625,63.0,73.0
1093,241.93371379166663,243.12376501041663,58.0,75.0
1094,242.85208129166665,243.4464691458333,68.0,60.0
1095,242.85208129166665,243.45284669791664,60.0,70.0
1096,242.85208129166665,243.45922424999998,65.0,73.0
1097,242.85208129166665,243.4732548645833,61.0,72.0
1098,243.77044879166664,243.83422431249997,68.0,63.0
1099,243.46432629166665,243.84187737499997,58.0,56.0
1100,243.77044879166664,243.9553978020833,60.0,82.0
1101,243.77044879166664,244.02682638541665,65.0,70.0
1102,243.77044879166664,244.0510610833333,61.0,85.0
1103,244.38269379166664,244.66458159374997,68.0,63.0
1104,244.38269379166664,244.71942854166664,60.0,75.0
1105,244.38269379166664,244.73090813541666,65.0,78.0
1106,244.84187754166663,244.89799999999997,60.0,58.0
1107,244.84187754166663,244.89799999999997,68.0,44.0
1108,244.84187754166663,244.90692857291666,65.0,67.0
1109,244.84187754166663,244.91330612499996,61.0,70.0
1110,244.99493879166664,245.1071837083333,56.0,53.0
1111,245.30106129166666,245.88269404166664,65.0,57.0
1112,245.30106129166666,245.892898125,68.0,52.0
1113,245.30106129166666,245.90055118749999,61.0,64.0
1114,245.30106129166666,245.90437771874997,60.0,66.0
1115,246.21942879166664,246.52044924999998,63.0,95.0
1116,246.21942879166664,246.62504110416666,68.0,76.0
1117,246.21942879166664,246.63396967708331,60.0,88.0
1118,246.52555129166663,246.73601051041663,63.0,33.0
1119,246.83167379166665,246.84570440624998,56.0,50.0
1120,246.83167379166665,247.17478609375,66.0,80.0
1121,246.83167379166665,247.1849901770833,58.0,73.0
1122,246.83167379166665,247.18881670833332,61.0,72.0
1123,247.29085754166664,247.3457044895833,61.0,78.0
1124,247.29085754166664,247.35463306249997,66.0,70.0
1125,247.29085754166664,247.36611265624998,58.0,75.0
1126,247.75004129166663,248.34315363541666,66.0,54.0
1127,247.75004129166663,248.36611282291665,65.0,72.0
1128,247.75004129166663,248.3750413958333,61.0,80.0
1129,247.75004129166663,248.38396996874997,58.0,76.0
1130,248.66840879166665,248.7921333020833,66.0,70.0
1131,248.66840879166665,248.86228637499997,65.0,88.0
1132,248.66840879166665,248.86483739583332,61.0,97.0
1133,248.66840879166665,248.89417413541665,58.0,82.0
1134,249.28065379166665,249.57147016666664,65.0,69.0
1135,249.28065379166665,249.60208241666663,56.0,78.0
1136,249.28065379166665,249.60590894791665,60.0,93.0
1137,249.73983754166665,249.78575591666663,61.0,75.0
1138,249.73983754166665,249.78958244791664,60.0,72.0
1139,249.73983754166665,249.81254163541664,56.0,67.0
1140,249.73983754166665,249.8138171458333,65.0,69.0
1141,250.19902129166664,250.76152138541664,63.0,63.0
1142,250.19902129166664,250.77427648958331,65.0,76.0
1143,250.19902129166664,250.89800099999997,61.0,80.0
1144,250.19902129166664,250.90055202083332,56.0,60.0
1145,251.11738879166666,251.33422556249997,56.0,93.0
1146,251.11738879166666,251.33677658333332,61.0,95.0
1147,251.11738879166666,251.4056541458333,65.0,93.0
1148,251.42351129166664,251.69136847916664,63.0,59.0
1149,251.57657254166665,251.7041235833333,65.0,73.0
1150,251.72963379166663,252.16075631249998,66.0,73.0
1151,251.72963379166663,252.2130522395833,61.0,82.0
1152,251.72963379166663,252.5880523020833,58.0,73.0
1153,252.64800129166665,253.30488915624997,66.0,75.0
1154,252.64800129166665,253.31509323958332,61.0,78.0
1155,252.64800129166665,253.37376671874998,58.0,69.0
1156,253.56636879166663,253.83677699999998,66.0,69.0
1157,253.56636879166663,253.89289945833332,58.0,93.0
1158,253.56636879166663,253.93499130208332,61.0,97.0
1159,254.02555254166666,254.0650933645833,65.0,44.0
1160,253.87249129166665,254.09315459374997,63.0,60.0
1161,254.02555254166666,254.2564199270833,68.0,69.0
1162,254.17861379166663,254.49749139583332,61.0,64.0
1163,254.17861379166663,254.49749139583332,61.0,70.0
1164,254.17861379166663,254.54468528124997,65.0,66.0
1165,254.17861379166663,254.54468528124997,65.0,78.0
1166,254.17861379166663,254.89162411458332,70.0,67.0
1167,254.17861379166663,255.30744051041665,58.0,61.0
1168,255.09698129166665,255.76534875,65.0,61.0
1169,255.09698129166665,255.76917528124997,70.0,61.0
1170,255.09698129166665,255.77427732291665,61.0,61.0
1171,256.01534879166667,256.14545085416665,65.0,76.0
1172,255.70922629166665,256.1875426979166,58.0,48.0
1173,256.01534879166667,256.19009371874995,70.0,76.0
1174,256.01534879166667,256.2997876145833,61.0,82.0
1175,256.62759379166664,257.17733878125,58.0,73.0
1176,256.62759379166664,257.2181551145833,66.0,75.0
1177,256.62759379166664,257.2423898125,61.0,70.0
1178,257.54596129166663,258.12631853125,63.0,70.0
1179,257.54596129166663,258.14927771875,60.0,67.0
1180,257.54596129166663,258.21050221875,56.0,61.0
1181,258.4643287916666,258.72453291666665,60.0,70.0
1182,258.4643287916666,258.8023390520833,56.0,66.0
1183,258.4643287916666,258.9133084583333,63.0,73.0
1184,259.07657379166665,259.5217269270833,65.0,82.0
1185,259.07657379166665,259.52810447916664,61.0,80.0
1186,259.6888187916666,259.93116577083333,60.0,64.0
1187,259.6888187916666,259.9502984270833,63.0,70.0
1188,259.99494129166663,260.05106374999997,60.0,48.0
1189,259.99494129166663,260.26662501041665,61.0,76.0
1190,259.99494129166663,260.3712168645833,65.0,76.0
1191,259.99494129166663,260.93626797916664,58.0,78.0
1192,260.9133087916666,261.27172721874996,73.0,82.0
1193,260.9133087916666,261.29085987499997,65.0,78.0
1194,261.21943129166664,261.4847374583333,72.0,62.0
1195,261.52555379166665,261.92223753124995,65.0,72.0
1196,261.52555379166665,262.0281048958333,70.0,66.0
1197,261.52555379166665,262.04085999999995,73.0,70.0
1198,261.9847375416666,262.1237681770833,65.0,64.0
1199,261.9847375416666,262.1849926770833,72.0,67.0
1200,262.1377987916666,262.60846213541663,58.0,51.0
1201,262.44392129166664,262.6390743854166,70.0,66.0
1202,262.44392129166664,262.64927846874997,73.0,69.0
1203,262.44392129166664,262.6671356145833,65.0,69.0
1204,263.36228879166663,263.4821867708333,60.0,73.0
1205,263.36228879166663,263.4898398333333,61.0,85.0
1206,263.0561662916666,263.50259493749996,58.0,58.0
1207,263.36228879166663,263.6403500625,65.0,78.0
1208,263.66841129166664,263.7768296770833,63.0,37.0
1209,263.97453379166666,264.26917669791663,68.0,69.0
1210,263.97453379166666,264.3048909895833,60.0,76.0
1211,263.97453379166666,264.352084875,65.0,72.0
1212,264.4337175416666,264.52172776041664,63.0,72.0
1213,264.4337175416666,264.5281053125,60.0,78.0
1214,264.89290129166665,265.2525952291666,63.0,64.0
1215,264.89290129166665,265.27427890624995,56.0,62.0
1216,264.89290129166665,265.5230034375,60.0,63.0
1217,265.81126879166663,265.974534125,56.0,80.0
1218,265.81126879166663,265.99494229166663,60.0,85.0
1219,265.81126879166663,266.01407494791664,63.0,76.0
1220,266.42351379166666,266.7615240520833,58.0,80.0
1221,266.42351379166666,266.77427915625,66.0,62.0
1222,266.42351379166666,266.78575874999996,61.0,85.0
1223,266.88269754166663,267.0127996041666,65.0,67.0
1224,266.88269754166663,267.02300368749997,58.0,67.0
1225,267.34188129166665,267.7525956458333,58.0,58.0
1226,267.34188129166665,267.7793813645833,61.0,60.0
1227,267.8010650416666,267.88779975,58.0,55.0
1228,267.8010650416666,267.9005548541666,61.0,51.0
1229,267.34188129166665,267.9477487395833,66.0,76.0
1230,268.26024879166664,268.43499371875,66.0,70.0
1231,268.26024879166664,268.4451978020833,61.0,72.0
1232,268.26024879166664,268.47708556249995,58.0,70.0
1233,268.8724937916666,269.20795303125,65.0,73.0
1234,268.8724937916666,269.21560609374995,61.0,80.0
1235,268.8724937916666,269.2219836458333,56.0,82.0
1236,269.33167754166664,269.4273408229166,61.0,64.0
1237,269.33167754166664,269.4273408229166,63.0,56.0
1238,269.33167754166664,269.43116735416663,56.0,58.0
1239,269.33167754166664,269.4400959270833,65.0,57.0
1240,269.79086129166666,270.05489194791664,61.0,88.0
1241,269.79086129166666,270.0599939895833,56.0,82.0
1242,269.79086129166666,270.0599939895833,65.0,75.0
1243,270.2500450416666,270.33805526041664,61.0,73.0
1244,270.2500450416666,270.3469838333333,65.0,62.0
1245,270.2500450416666,270.34825934375,56.0,72.0
1246,270.70922879166665,270.89672882291666,56.0,75.0
1247,270.70922879166665,270.9286165833333,61.0,85.0
1248,270.70922879166665,271.13397376041667,65.0,73.0
1249,271.3214737916666,271.57274934375,66.0,73.0
1250,271.3214737916666,271.63524935416666,58.0,78.0
1251,271.3214737916666,271.637800375,63.0,93.0
1252,271.78065754166664,272.0153514583333,58.0,64.0
1253,271.78065754166664,272.1301473958333,65.0,75.0
1254,272.23984129166666,272.4630556145833,58.0,75.0
1255,272.23984129166666,272.5804025729166,66.0,80.0
1256,272.23984129166666,272.6046372708333,61.0,78.0
1257,273.15820879166665,273.3546373958333,65.0,70.0
1258,273.15820879166665,273.4005557708333,73.0,73.0
1259,273.46433129166667,273.67734153124997,72.0,61.0
1260,273.46433129166667,273.70412725,70.0,67.0
1261,273.7704537916666,274.0536171041666,65.0,73.0
1262,273.7704537916666,274.1084640520833,73.0,66.0
1263,273.7704537916666,274.11356609374997,68.0,73.0
1264,274.22963754166665,274.3380559270833,72.0,45.0
1265,274.22963754166665,274.38142328124997,65.0,66.0
1266,274.38269879166666,274.85336213541666,58.0,52.0
1267,274.6888212916666,274.95540296875,63.0,63.0
1268,274.6888212916666,275.26917853124996,68.0,55.0
1269,275.30106629166664,275.41968876041665,65.0,72.0
1270,275.30106629166664,275.4707091770833,70.0,72.0
1271,275.60718879166666,275.85208679166664,58.0,52.0
1272,275.76025004166667,275.86994393749995,63.0,73.0
1273,275.76025004166667,276.07019907291664,68.0,73.0
1274,276.21943379166663,276.64035222916664,65.0,70.0
1275,276.21943379166663,276.72581142708333,58.0,76.0
1276,276.21943379166663,276.7296379583333,61.0,67.0
1277,276.98474004166667,277.15183190625,58.0,54.0
1278,277.1378012916666,277.32785234374995,61.0,63.0
1279,277.44392379166663,277.76790343749997,63.0,72.0
1280,277.44392379166663,277.78703609375,68.0,75.0
1281,277.44392379166663,277.8967299895833,60.0,76.0
1282,278.05616879166666,278.1110157395833,68.0,61.0
1283,278.05616879166666,278.1378014583333,60.0,70.0
1284,278.05616879166666,278.1454545208333,63.0,85.0
1285,278.3622912916666,278.82402606249997,65.0,85.0
1286,278.3622912916666,279.02428119791665,61.0,88.0
1287,279.4337200416666,279.5957098645833,60.0,75.0
1288,279.28065879166667,279.7015772291666,58.0,75.0
1289,279.5867812916666,279.71178131249997,61.0,73.0
1290,279.73984254166663,279.9694344166666,65.0,66.0
1291,279.89290379166664,280.26662834374997,73.0,75.0
1292,280.19902629166666,280.48601613541666,72.0,66.0
1293,280.5051487916666,280.7398427083333,68.0,55.0
1294,280.8112712916666,280.95285294791665,61.0,49.0
1295,281.11739379166664,281.4324448645833,70.0,66.0
1296,281.11739379166664,281.43754690624996,61.0,60.0
1297,281.11739379166664,281.4630571145833,65.0,63.0
1298,281.57657754166667,281.62632244791666,70.0,53.0
1299,281.57657754166667,281.64035306249997,65.0,56.0
1300,281.57657754166667,281.64417959375,61.0,54.0
1301,281.7296387916666,282.11866946875,58.0,51.0
1302,282.03576129166663,282.68499609375,70.0,59.0
1303,282.03576129166663,282.6862716041666,65.0,63.0
1304,282.03576129166663,282.688822625,61.0,58.0
1305,282.64800629166666,283.04979207291666,58.0,53.0
1306,282.9541287916666,283.1390778020833,61.0,66.0
1307,282.9541287916666,283.34315946874995,70.0,75.0
1308,282.9541287916666,283.35974110416663,65.0,64.0
1309,283.56637379166665,283.86739424999996,60.0,76.0
1310,283.56637379166665,283.88014935416663,68.0,64.0
1311,283.56637379166665,283.8903534375,65.0,76.0
1312,284.0255575416666,284.1071902083333,65.0,55.0
1313,284.0255575416666,284.10846571875,68.0,56.0
1314,284.0255575416666,284.11356776041663,60.0,56.0
1315,284.48474129166664,284.65693519791665,63.0,60.0
1316,284.48474129166664,285.17351691666664,60.0,67.0
1317,284.48474129166664,285.183721,56.0,69.0
1318,285.4031087916666,285.551068,60.0,69.0
1319,285.4031087916666,285.5523435104166,56.0,69.0
1320,285.4031087916666,285.5727516770833,63.0,80.0
1321,286.01535379166666,286.30234363541666,66.0,76.0
1322,286.01535379166666,286.392904875,61.0,75.0
1323,286.01535379166666,286.39418038541663,58.0,75.0
1324,286.4745375416666,286.6403538958333,66.0,69.0
1325,286.4745375416666,286.7513233020833,61.0,70.0
1326,286.4745375416666,286.76535391666664,58.0,63.0
1327,286.93372129166664,287.0255580416666,61.0,39.0
1328,287.23984379166666,287.4860173020833,56.0,73.0
1329,287.23984379166666,287.5931601770833,60.0,61.0
1330,287.23984379166666,287.5957111979166,68.0,49.0
1331,287.23984379166666,287.60208874999995,63.0,66.0
1332,287.5459662916666,287.8648438958333,56.0,48.0
1333,287.85208879166663,287.97836432291666,68.0,62.0
1334,287.85208879166663,288.0013235104166,60.0,70.0
1335,287.85208879166663,288.0293847395833,63.0,78.0
1336,288.46433379166666,288.7679052708333,56.0,60.0
1337,288.46433379166666,288.8061705833333,65.0,63.0
1338,288.46433379166666,288.81509915624997,61.0,64.0
1339,288.9235175416666,288.98091551041665,61.0,60.0
1340,288.9235175416666,288.9872930625,65.0,61.0
1341,288.9235175416666,289.01918082291667,56.0,62.0
1342,289.38270129166665,289.92861975,65.0,61.0
1343,289.38270129166665,290.04724221875,61.0,70.0
1344,289.38270129166665,290.0842320208333,56.0,52.0
1345,290.30106879166664,290.65693619791665,56.0,91.0
1346,290.30106879166664,290.7334668229166,61.0,91.0
1347,290.30106879166664,290.80617091666664,65.0,78.0
1348,290.91331379166667,291.2538750729166,61.0,75.0
1349,290.91331379166667,291.2742832395833,66.0,73.0
1350,290.91331379166667,291.45540571875,58.0,78.0
1351,291.52555879166664,291.8406098645833,61.0,70.0
1352,291.83168129166665,292.49622221874995,66.0,73.0
1353,291.83168129166665,292.5293854895833,58.0,76.0
1354,292.75004879166664,293.265355,58.0,97.0
1355,292.75004879166664,293.4018346145833,66.0,67.0
1356,293.3622937916666,293.57530403124997,58.0,70.0
1357,293.3622937916666,293.7270897708333,61.0,80.0
1358,293.3622937916666,293.74494691666666,65.0,61.0
1359,293.82147754166664,294.1441816770833,60.0,76.0
1360,293.82147754166664,294.20923270833333,63.0,75.0
1361,294.28066129166666,294.36484497916666,61.0,73.0
1362,294.28066129166666,294.41076335416665,65.0,75.0
1363,294.5867837916666,294.8406103645833,58.0,44.0
1364,294.5867837916666,294.8482634270833,65.0,85.0
1365,294.89290629166663,295.17479409375,70.0,93.0
1366,295.19902879166665,295.4796410833333,72.0,63.0
1367,295.6582125416666,295.87887584375,61.0,48.0
1368,295.8112737916666,296.47326369791665,70.0,67.0
1369,295.8112737916666,296.5000494166666,66.0,75.0
1370,295.50515129166666,296.52300860416665,73.0,64.0
1371,296.72964129166667,296.8686719270833,61.0,47.0
1372,296.72964129166667,296.97071276041663,73.0,12.0
1373,297.0357637916666,297.719437375,68.0,72.0
1374,297.0357637916666,297.719437375,72.0,62.0
1375,297.9541312916666,298.0128047708333,73.0,38.0
1376,297.9541312916666,298.1760701041666,63.0,69.0
1377,297.64800879166665,298.18754969791667,56.0,75.0
1378,298.2602537916666,298.6276007916666,70.0,67.0
1379,298.56637629166664,298.91714165624995,72.0,63.0
1380,298.87249879166666,299.17351924999997,73.0,85.0
1381,298.87249879166666,299.23729477083333,58.0,44.0
1382,299.1786212916666,299.3597437708333,77.0,70.0
1383,299.48474379166663,299.7181621979166,82.0,66.0
1384,299.79086629166665,299.9719887708333,84.0,58.0
1385,300.09698879166666,300.2398459583333,85.0,72.0
1386,299.1786212916666,300.34316230208333,60.0,58.0
1387,299.48474379166663,300.3533663854166,61.0,60.0
1388,300.4031112916666,300.47071334375,85.0,37.0
1389,300.4031112916666,300.6901011354166,89.0,75.0
1390,300.70923379166663,301.50515229166666,94.0,72.0
