,start,end,pitch,velocity
0,17.85257113125,18.301863,67.0,80.0
1,18.41860813125,18.9079942875,69.0,84.0
2,18.98464513125,19.2617674125,71.0,85.0
3,19.26766363125,19.4716728,74.0,85.0
4,19.55068213125,19.6980876,74.0,86.0
5,19.83370063125,19.99643626875,74.0,89.0
6,20.11671913125,20.33605846875,74.0,86.0
7,20.39973763125,20.67096369375,71.0,85.0
8,20.68275613125,20.9504444625,69.0,84.0
9,20.96577463125,21.2617648125,67.0,78.0
10,21.24879313125,21.5495002875,69.0,85.0
11,21.53181163125,21.85728290625,71.0,80.0
12,21.81483013125,22.0825184625,69.0,85.0
13,22.09784863125,23.042422875,67.0,80.0
14,23.51294113125,23.7947803875,71.0,87.0
15,23.79595963125,23.98935560625,74.0,85.0
16,24.07897813125,24.2523269625,74.0,89.0
17,24.36199663125,24.55067563125,74.0,89.0
18,24.64501513125,24.8230809375,76.0,83.0
19,24.92803363125,25.08487305,74.0,91.0
20,25.21105213125,25.43039146875,71.0,85.0
21,25.49407063125,26.86435186875,74.0,88.0
22,27.75821863125,27.9598693125,74.0,86.0
23,28.04123713125,28.25114251875,76.0,86.0
24,28.32425563125,28.48699126875,79.0,82.0
25,28.60727413125,28.7900569125,79.0,83.0
26,28.89029263125,29.59312190625,79.0,85.0
27,29.73934813125,30.1485457125,76.0,85.0
28,30.30538513125,30.50821505625,74.0,87.0
29,30.58840363125,30.787695825,76.0,84.0
30,30.87142213125,31.13321424375,74.0,86.0
31,31.15444063125,32.2334486625,71.0,83.0
32,32.56953313125,32.74170271875,69.0,84.0
33,32.85255163125,33.01292878125,69.0,80.0
34,33.13557013125,33.3089189625,69.0,82.0
35,33.41858863125,33.66387133125,67.0,79.0
36,33.70160713125,34.14146505,64.0,86.0
37,34.26764413125,34.75349255625,71.0,84.0
38,34.83368113125,35.9315570625,69.0,81.0
39,35.96575513125,36.43273565625,67.0,85.0
40,36.53179213125,36.97990475625,69.0,86.0
41,37.09782913125,37.3749514125,71.0,85.0
42,37.38084763125,37.5848568,74.0,85.0
43,37.66386613125,37.8112716,74.0,86.0
44,37.94688463125,38.10962026875,74.0,89.0
45,38.22990313125,38.44924246875,74.0,86.0
46,38.51292163125,38.78414769375,71.0,85.0
47,38.79594013125,39.0636284625,69.0,84.0
48,39.078958631249996,39.3749488125,67.0,78.0
49,39.36197713125,39.6626842875,69.0,85.0
50,39.64499563125,39.97046690625,71.0,80.0
51,39.92801413125,40.1957024625,69.0,85.0
52,40.21103263125,41.155606875,67.0,80.0
53,41.62612513125,41.9079643875,71.0,87.0
54,41.90914363125,42.10253960625,74.0,85.0
55,42.19216213125,42.3655109625,74.0,89.0
56,42.47518063125,42.66385963125,74.0,89.0
57,42.75819913125,42.9362649375,76.0,83.0
58,43.04121763125,43.19805705,74.0,91.0
59,43.32423613125,43.54357546875,71.0,85.0
60,43.60725463125,44.97753586875,74.0,88.0
61,45.87140263125,46.0730533125,74.0,86.0
62,46.15442113125,46.36432651875,76.0,86.0
63,46.43743963125,46.60017526875,79.0,82.0
64,46.72045813125,46.9032409125,79.0,83.0
65,47.00347663125,47.70630590625,79.0,85.0
66,47.85253213125,48.2617297125,76.0,85.0
67,48.41856913125,48.62139905625,74.0,87.0
68,48.70158763125,48.900879825,76.0,84.0
69,48.98460613125,49.24639824375,74.0,86.0
70,49.26762463125,50.3466326625,71.0,83.0
71,50.68271713125,50.85488671875,69.0,84.0
72,50.96573563125,51.12611278125,69.0,80.0
73,51.24875413125,51.4221029625,69.0,82.0
74,51.53177263125,51.77705533125,67.0,79.0
75,51.81479113125,52.25464905,64.0,86.0
76,52.38082813125,52.86667655625,69.0,84.0
77,52.94686513125,54.0447410625,67.0,81.0
78,55.49403163125,55.6673804625,71.0,84.0
79,55.77705013125,55.9551159375,71.0,82.0
80,56.06006863125,56.2381344375,71.0,84.0
81,56.34308713125,56.5447378125,71.0,82.0
82,56.62610563125,56.808888412499996,74.0,88.0
83,56.90912413125,57.14025590625,76.0,86.0
84,57.19214263125,57.75582114375,78.0,89.0
85,57.75817963125,58.2994525125,76.0,87.0
86,58.32421663125,59.3041681875,74.0,86.0
87,59.45629063125,59.68034694375,74.0,89.0
88,59.73930913125,59.94449754375,79.0,84.0
89,60.02232763125,60.19685570625,76.0,85.0
90,60.30534613125,60.4904874,76.0,86.0
91,60.58836463125,60.82067565,74.0,88.0
92,60.87138313125,61.39968433125,76.0,83.0
93,61.43742013125,61.740485775,74.0,87.0
94,61.72043863125,63.44920996875,71.0,81.0
95,64.26760513125,64.56477455625,64.0,91.0
96,64.55062363125,64.7239724625,71.0,84.0
97,64.83364213125,65.0117079375,71.0,82.0
98,65.11666063125,65.2947264375,71.0,84.0
99,65.39967913125,65.6013298125,71.0,82.0
100,65.68269763125,65.8654804125,74.0,88.0
101,65.96571613125,66.19684790625,76.0,86.0
102,66.24873463125,66.81241314375,78.0,89.0
103,66.81477163125,67.3560445125,76.0,87.0
104,67.38080863125,68.3607601875,74.0,86.0
105,68.79590113125,69.05297626875,76.0,86.0
106,69.07891963125,69.2829288,79.0,80.0
107,69.36193813125,69.5447209125,79.0,82.0
108,69.64495663125,69.82656016875,79.0,84.0
109,69.92797513125,70.1013239625,79.0,84.0
110,70.21099363125,70.46571028125,79.0,82.0
111,70.49401213125,70.7805683625,76.0,85.0
112,70.77703063125,72.05297236875,81.0,85.0
113,72.19212313125,72.67089609375,74.0,100.0
114,72.75816013125,73.315942425,76.0,93.0
115,73.32419713125,73.76995126875,83.0,88.0
116,73.89023413125,74.3560354125,83.0,86.0
117,74.45627113125,74.721600975,81.0,84.0
118,74.73928963125,74.929147875,79.0,87.0
119,75.02230813125,75.2428267125,71.0,86.0
120,75.30532663125,76.759334175,74.0,88.0
121,77.28645613125,77.5588614375,74.0,86.0
122,77.56947463125,77.7994271625,76.0,85.0
123,77.85249313125,78.0965965875,81.0,85.0
124,78.13551163125,78.297068025,79.0,85.0
125,78.41853013125,78.59069971875,79.0,83.0
126,78.70154863125,78.85838805,79.0,82.0
127,78.98456713125,79.14730276875,76.0,86.0
128,79.26758563125,79.4527269,74.0,86.0
129,79.55060413125,79.7381038875,74.0,86.0
130,79.83362263125,80.9739513375,71.0,84.0
131,81.81475213125,82.02229903125,74.0,93.0
132,82.09777063125,82.363100475,76.0,86.0
133,82.38078913125,82.66970385,79.0,84.0
134,82.66380763125,82.89611865,76.0,87.0
135,82.94682613125,83.108382525,76.0,86.0
136,83.22984463125,83.8701739875,76.0,89.0
137,84.36191863125,84.570644775,74.0,88.0
138,84.64493713125,84.8984745375,76.0,88.0
139,84.92795563125,85.15437043125,74.0,91.0
140,85.21097413125,85.44210590625,86.0,88.0
141,85.49399263125,86.37842544375,83.0,87.0
142,86.34304813125,86.5682836875,74.0,95.0
143,86.62606663125,86.88314176875,76.0,86.0
144,86.90908513125,87.1437546375,79.0,84.0
145,87.19210363125,87.34304683125,79.0,80.0
146,87.47512213125,87.62606533125,79.0,84.0
147,87.75814063125,87.89021593125,76.0,85.0
148,88.04115913125,88.240451325,83.0,85.0
149,88.32417763125,88.48219629375,81.0,80.0
150,88.60719613125,88.75342235625,79.0,80.0
151,88.89021463125,90.30530713125,81.0,86.0
152,90.30530713125,90.78408009375,74.0,100.0
153,90.87134413125,91.42912642499999,76.0,93.0
154,91.43738113125,91.88313526875,83.0,88.0
155,92.00341813125,92.4692194125,83.0,86.0
156,92.56945513125,92.834784975,81.0,84.0
157,92.85247363125,93.042331875,79.0,87.0
158,93.13549213125,93.3560107125,71.0,86.0
159,93.41851063125,94.872518175,74.0,88.0
160,95.39964013125,95.6720454375,74.0,86.0
161,95.68265863124999,95.9126111625,76.0,85.0
162,95.96567713125,96.2097805875,81.0,85.0
163,96.24869563125,96.410252025,79.0,85.0
164,96.53171413125,96.70388371875,79.0,83.0
165,96.81473263125,96.97157205,79.0,82.0
166,97.09775113124999,97.26048676875,76.0,86.0
167,97.38076963125,97.5659109,74.0,86.0
168,97.66378813125,97.85128788749999,74.0,86.0
169,97.94680663125,99.0871353375,71.0,84.0
170,99.92793613125,100.13548303125,74.0,93.0
171,100.21095463125,100.476284475,76.0,86.0
172,100.49397313125,100.78288785,79.0,84.0
173,100.77699163125,101.00930265,76.0,87.0
174,101.06001013125,101.221566525,76.0,86.0
175,101.34302863125,101.9833579875,76.0,89.0
176,102.47510263125,102.683828775,74.0,88.0
177,102.75812113125,103.0116585375,76.0,88.0
178,103.04113963125,103.26755443125,74.0,91.0
179,103.32415813125,103.55528990625,86.0,88.0
180,103.60717663125,104.49160944375,83.0,87.0
181,104.45623213125,104.6814676875,74.0,95.0
182,104.73925063125,104.99632576875,76.0,86.0
183,105.02226913125,105.2569386375,79.0,84.0
184,105.30528763125,105.45623083125,79.0,80.0
185,105.58830613125,105.73924933125,79.0,84.0
186,105.87132463125,106.00339993125,76.0,85.0
187,106.15434313125,107.56943563125,76.0,85.0
188,108.13547263125,108.38665155,74.0,88.0
189,108.41849113125,108.825330225,83.0,88.0
190,108.98452813125,109.22981083125,81.0,82.0
191,109.26754663125,109.8607062375,76.0,89.0
192,109.83358363125,112.38075013125,79.0,85.0
193,135.58826713125,136.037559,67.0,80.0
194,136.15430413125,136.6436902875,69.0,84.0
195,136.72034113125,136.9974634125,71.0,85.0
196,137.00335963125,137.2073688,74.0,85.0
197,137.28637813125,137.4337836,74.0,86.0
198,137.56939663125,137.73213226875,74.0,89.0
199,137.85241513125,138.07175446875,74.0,86.0
200,138.13543363125,138.40665969375,71.0,85.0
201,138.41845213125,138.6861404625,69.0,84.0
202,138.70147063125,138.9974608125,67.0,78.0
203,138.98448913125,139.28519628749999,69.0,85.0
204,139.26750763125,139.59297890625,71.0,80.0
205,139.55052613125,139.8182144625,69.0,85.0
206,139.83354463125,140.778118875,67.0,80.0
207,141.24863713125,141.5304763875,71.0,87.0
208,141.53165563125,141.72505160625,74.0,85.0
209,141.81467413125,141.9880229625,74.0,89.0
210,142.09769263125,142.28637163125,74.0,89.0
211,142.38071113125,142.5587769375,76.0,83.0
212,142.66372963125,142.82056905,74.0,91.0
213,142.94674813125,143.16608746875,71.0,85.0
214,143.22976663125,144.60004786875,74.0,88.0
215,145.49391463125,145.6955653125,74.0,86.0
216,145.77693313125,145.98683851875,76.0,86.0
217,146.05995163125,146.22268726875,79.0,82.0
218,146.34297013125,146.5257529125,79.0,83.0
219,146.62598863125,147.32881790625,79.0,85.0
220,147.47504413125,147.8842417125,76.0,85.0
221,148.04108113125,148.24391105625,74.0,87.0
222,148.32409963125,148.523391825,76.0,84.0
223,148.60711813125,148.86891024375,74.0,86.0
224,148.89013663125,149.96914466249999,71.0,83.0
225,150.30522913125,150.47739871875,69.0,84.0
226,150.58824763125,150.74862478125,69.0,80.0
227,150.87126613125,151.0446149625,69.0,82.0
228,151.15428463125,151.39956733125,67.0,79.0
229,151.43730313125,151.87716105,64.0,86.0
230,152.00334013125,152.48918855625,71.0,84.0
231,152.56937713125,153.6672530625,69.0,81.0
232,153.70145113125,154.16843165625,67.0,85.0
233,154.26748813125,154.71560075625,69.0,86.0
234,154.83352513125,155.1106474125,71.0,85.0
235,155.11654363125,155.3205528,74.0,85.0
236,155.39956213125,155.5469676,74.0,86.0
237,155.68258063125,155.84531626875,74.0,89.0
238,155.96559913125,156.18493846875,74.0,86.0
239,156.24861763125,156.51984369375,71.0,85.0
240,156.53163613125,156.7993244625,69.0,84.0
241,156.81465463125,157.1106448125,67.0,78.0
242,157.09767313125,157.3983802875,69.0,85.0
243,157.38069163125,157.70616290625,71.0,80.0
244,157.66371013125,157.9313984625,69.0,85.0
245,157.94672863125,158.891302875,67.0,80.0
246,159.36182113125,159.6436603875,71.0,87.0
247,159.64483963125,159.83823560625,74.0,85.0
248,159.92785813125,160.1012069625,74.0,89.0
249,160.21087663125,160.39955563125,74.0,89.0
250,160.49389513125,160.6719609375,76.0,83.0
251,160.77691363125,160.93375305,74.0,91.0
252,161.05993213125,161.27927146875,71.0,85.0
253,161.34295063125,162.71323186875,74.0,88.0
254,163.60709863125,163.8087493125,74.0,86.0
255,163.89011713125,164.10002251875,76.0,86.0
256,164.17313563125,164.33587126875,79.0,82.0
257,164.45615413125,164.6389369125,79.0,83.0
258,164.73917263125,165.44200190625,79.0,85.0
259,165.58822813125,165.9974257125,76.0,85.0
260,166.15426513124999,166.35709505625,74.0,87.0
261,166.43728363125,166.636575825,76.0,84.0
262,166.72030213125,166.98209424375,74.0,86.0
263,167.00332063125,168.0823286625,71.0,83.0
264,168.41841313125,168.59058271875,69.0,84.0
265,168.70143163125,168.86180878125,69.0,80.0
266,168.98445013125,169.1577989625,69.0,82.0
267,169.26746863125,169.51275133125,67.0,79.0
268,169.55048713125,169.99034505,64.0,86.0
269,170.11652413125,170.60237255625,69.0,84.0
270,170.68256113125,171.7804370625,67.0,81.0
271,173.22972763125,173.4030764625,71.0,84.0
272,173.51274613125,173.6908119375,71.0,82.0
273,173.79576463125,173.9738304375,71.0,84.0
274,174.07878313125,174.2804338125,71.0,82.0
275,174.36180163125,174.5445844125,74.0,88.0
276,174.64482013125,174.87595190625,76.0,86.0
277,174.92783863125,175.49151714375,78.0,89.0
278,175.49387563125,176.0351485125,76.0,87.0
279,176.05991263125,177.0398641875,74.0,86.0
280,177.19198663125,177.41604294375,74.0,89.0
281,177.47500513125,177.68019354375,79.0,84.0
282,177.75802363125,177.93255170625,76.0,85.0
283,178.04104213125,178.2261834,76.0,86.0
284,178.32406063125,178.55637165,74.0,88.0
285,178.60707913125,179.13538033125,76.0,83.0
286,179.17311613125,179.476181775,74.0,87.0
287,179.45613463125,181.18490596875,71.0,81.0
288,182.00330113125,182.30047055625,64.0,91.0
289,182.28631963125,182.4596684625,71.0,84.0
290,182.56933813125,182.7474039375,71.0,82.0
291,182.85235663125,183.0304224375,71.0,84.0
292,183.13537513125,183.3370258125,71.0,82.0
293,183.41839363125,183.6011764125,74.0,88.0
294,183.70141213125,183.93254390625,76.0,86.0
295,183.98443063125,184.54810914375,78.0,89.0
296,184.55046763125,185.0917405125,76.0,87.0
297,185.11650463125,186.0964561875,74.0,86.0
298,186.53159713125,186.78867226875,76.0,86.0
299,186.81461563125,187.0186248,79.0,80.0
300,187.09763413125,187.2804169125,79.0,82.0
301,187.38065263125,187.56225616875,79.0,84.0
302,187.66367113125,187.8370199625,79.0,84.0
303,187.94668963125,188.20140628125,79.0,82.0
304,188.22970813125,188.5162643625,76.0,85.0
305,188.51272663125,189.78866836875,81.0,85.0
306,189.92781913125,190.40659209375,74.0,100.0
307,190.49385613125,191.051638425,76.0,93.0
308,191.05989313125,191.50564726875,83.0,88.0
309,191.62593013125,192.0917314125,83.0,86.0
310,192.19196713125,192.457296975,81.0,84.0
311,192.47498563125,192.664843875,79.0,87.0
312,192.75800413125,192.9785227125,71.0,86.0
313,193.04102263125,194.495030175,74.0,88.0
314,195.02215213125,195.2945574375,74.0,86.0
315,195.30517063125,195.53512316249999,76.0,85.0
316,195.58818913125,195.8322925875,81.0,85.0
317,195.87120763125,196.032764025,79.0,85.0
318,196.15422613125,196.32639571875,79.0,83.0
319,196.43724463125,196.59408405,79.0,82.0
320,196.72026313125,196.88299876875,76.0,86.0
321,197.00328163125,197.1884229,74.0,86.0
322,197.28630013125,197.4737998875,74.0,86.0
323,197.56931863125,198.7096473375,71.0,84.0
324,199.55044813125,199.75799503125,74.0,93.0
325,199.83346663125,200.098796475,76.0,86.0
326,200.11648513125,200.40539985,79.0,84.0
327,200.39950363125,200.63181465,76.0,87.0
328,200.68252213125,200.844078525,76.0,86.0
329,200.96554063125,201.6058699875,76.0,89.0
330,202.09761463125,202.306340775,74.0,88.0
331,202.38063313125,202.6341705375,76.0,88.0
332,202.66365163125,202.89006643125,74.0,91.0
333,202.94667013125,203.17780190625,86.0,88.0
334,203.22968863125,204.11412144375,83.0,87.0
335,204.07874413125,204.3039796875,74.0,95.0
336,204.36176263125,204.61883776875,76.0,86.0
337,204.64478113125,204.87945063749999,79.0,84.0
338,204.92779963125,205.07874283125,79.0,80.0
339,205.21081813125,205.36176133125,79.0,84.0
340,205.49383663125,205.62591193125,76.0,85.0
341,205.77685513125,205.976147325,83.0,85.0
342,206.05987363124999,206.21789229375,81.0,80.0
343,206.34289213125,206.48911835625,79.0,80.0
344,206.62591063125,208.04100313125,81.0,86.0
345,208.04100313125,208.51977609375,74.0,100.0
346,208.60704013125,209.164822425,76.0,93.0
347,209.17307713125,209.61883126875,83.0,88.0
348,209.73911413125,210.2049154125,83.0,86.0
349,210.30515113125,210.570480975,81.0,84.0
350,210.58816963125,210.778027875,79.0,87.0
351,210.87118813125,211.0917067125,71.0,86.0
352,211.15420663125,212.608214175,74.0,88.0
353,213.13533613125,213.4077414375,74.0,86.0
354,213.41835463125,213.6483071625,76.0,85.0
355,213.70137313125,213.9454765875,81.0,85.0
356,213.98439163125,214.145948025,79.0,85.0
357,214.26741013125,214.43957971875,79.0,83.0
358,214.55042863124999,214.70726805,79.0,82.0
359,214.83344713125,214.99618276875,76.0,86.0
360,215.11646563125,215.3016069,74.0,86.0
361,215.39948413125,215.5869838875,74.0,86.0
362,215.68250263125,216.8228313375,71.0,84.0
363,217.66363213125,217.87117903125,74.0,93.0
364,217.94665063125,218.211980475,76.0,86.0
365,218.22966913125,218.51858385,79.0,84.0
366,218.51268763125,218.74499864999999,76.0,87.0
367,218.79570613125,218.957262525,76.0,86.0
368,219.07872463125,219.7190539875,76.0,89.0
369,220.21079863125,220.419524775,74.0,88.0
370,220.49381713125,220.7473545375,76.0,88.0
371,220.77683563125,221.00325043125,74.0,91.0
372,221.05985413125,221.29098590625,86.0,88.0
373,221.34287263125,222.22730544375,83.0,87.0
374,222.19192813125,222.4171636875,74.0,95.0
375,222.47494663125,222.73202176875,76.0,86.0
376,222.75796513125,222.9926346375,79.0,84.0
377,223.04098363125,223.19192683125,79.0,80.0
378,223.32400213125,223.47494533125,79.0,84.0
379,223.60702063125,223.73909593125,76.0,85.0
380,223.89003913125,225.30513163125,76.0,85.0
381,225.87116863125,226.12234755,74.0,88.0
382,226.15418713125,226.561026225,83.0,88.0
383,226.72022413125,226.96550683125,81.0,82.0
384,227.00324263125,227.5964022375,76.0,89.0
385,227.56927963125,230.11644613125,79.0,85.0
386,230.68248313125,231.16125609375,74.0,100.0
387,231.24852013125,231.806302425,76.0,93.0
388,231.81455713125,232.26031126875,83.0,88.0
389,232.38059413125,232.8463954125,83.0,86.0
390,232.94663113125,233.211960975,81.0,84.0
391,233.22964963125,233.419507875,79.0,87.0
392,233.51266813125,233.7331867125,71.0,86.0
393,233.79568663125,235.249694175,74.0,88.0
394,235.77681613125,236.0492214375,74.0,86.0
395,236.05983463125,236.2897871625,76.0,85.0
396,236.34285313125,236.5869565875,81.0,85.0
397,236.62587163125,236.787428025,79.0,85.0
398,236.90889013125,237.08105971875,79.0,83.0
399,237.19190863125,237.34874805,79.0,82.0
400,237.47492713125,237.63766276875,76.0,86.0
401,237.75794563125,237.9430869,74.0,86.0
402,238.04096413125,238.2284638875,74.0,86.0
403,238.32398263125,239.4643113375,71.0,84.0
404,240.30511213125,240.51265903125,74.0,93.0
405,240.58813063125,240.853460475,76.0,86.0
406,240.87114913125,241.16006385,79.0,84.0
407,241.15416763125,241.38647865,76.0,87.0
408,241.43718613125,241.598742525,76.0,86.0
409,241.72020463125,242.3605339875,76.0,89.0
410,242.85227863125,243.061004775,74.0,88.0
411,243.13529713125,243.3888345375,76.0,88.0
412,243.41831563125,243.64473043125,74.0,91.0
413,243.70133413125,243.93246590625,86.0,88.0
414,243.98435263125,244.86878544375,83.0,87.0
415,244.83340813125,245.0586436875,74.0,95.0
416,245.11642663125,245.37350176875,76.0,86.0
417,245.39944513125,245.6341146375,79.0,84.0
418,245.68246363125,245.83340683125,79.0,80.0
419,245.96548213125,246.11642533124999,79.0,84.0
420,246.24850063125,246.38057593125,76.0,85.0
421,246.53151913125,246.730811325,83.0,85.0
422,246.81453763125,246.97255629375,81.0,80.0
423,247.09755613125,247.24378235625,79.0,80.0
424,247.38057463125,248.79566713125,81.0,86.0
425,248.79566713125,249.27444009375,74.0,100.0
426,249.36170413125,249.919486425,76.0,93.0
427,249.92774113125,250.37349526875,83.0,88.0
428,250.49377813125,250.9595794125,83.0,86.0
429,251.05981513125,251.325144975,81.0,84.0
430,251.34283363125,251.532691875,79.0,87.0
431,251.62585213124999,251.8463707125,71.0,86.0
432,251.90887063125,253.362878175,74.0,88.0
433,253.89000013125,254.1624054375,74.0,86.0
434,254.17301863125,254.4029711625,76.0,85.0
435,254.45603713124999,254.7001405875,81.0,85.0
436,254.73905563125,254.900612025,79.0,85.0
437,255.02207413125,255.19424371875,79.0,83.0
438,255.30509263125,255.46193205,79.0,82.0
439,255.58811113125,255.75084676875,76.0,86.0
440,255.87112963125,256.0562709,74.0,86.0
441,256.15414813125,256.3416478875,74.0,86.0
442,256.43716663125,257.5774953375,71.0,84.0
443,258.41829613125,258.62584303125,74.0,93.0
444,258.70131463125,258.966644475,76.0,86.0
445,258.98433313125,259.27324785,79.0,84.0
446,259.26735163125,259.49966265,76.0,87.0
447,259.55037013125,259.711926525,76.0,86.0
448,259.83338863125,260.4737179875,76.0,89.0
449,260.96546263125,261.174188775,74.0,88.0
450,261.24848113125,261.5020185375,76.0,88.0
451,261.53149963124997,261.75791443125,74.0,91.0
452,261.81451813125,262.04564990625,86.0,88.0
453,262.09753663125,262.98196944375,83.0,87.0
454,262.94659213125,263.1718276875,74.0,95.0
455,263.22961063125,263.48668576875,76.0,86.0
456,263.51262913125,263.7472986375,79.0,84.0
457,263.79564763125,263.94659083125,79.0,80.0
458,264.07866613125,264.22960933125,79.0,84.0
459,264.36168463125,264.49375993125,76.0,85.0
460,264.64470313125,266.05979563125,76.0,85.0
461,266.62583263125,266.87701155,74.0,88.0
462,266.90885113125,267.315690225,83.0,88.0
463,267.47488813125,267.72017083125,81.0,82.0
464,267.75790663125,268.3510662375,76.0,89.0
465,268.32394363125,270.87111013125,79.0,85.0
