,start,end,pitch,velocity
0,1.43749813125,1.7665071375,62.0,79.0
1,1.15447963125,2.30070455625,55.0,74.0
2,2.28655363125,2.70754365,60.0,83.0
3,2.56957213125,2.9245245,55.0,71.0
4,0.87146113125,2.93042071875,48.0,81.0
5,1.72051663125,3.94221185625,67.0,84.0
6,3.41862763125,4.13324934375,54.0,78.0
7,4.26768313125,4.6485788625,54.0,68.0
8,3.98466463125,4.66980525,57.0,85.0
9,3.70164613125,4.69221088125,62.0,79.0
10,3.13560913125,4.86909744375,47.0,84.0
11,4.55070163125,5.0188614,66.0,78.0
12,4.83372013125,5.02711610625,57.0,82.0
13,5.39975713125,6.00117144375,60.0,80.0
14,5.96579413125,6.34079364375,55.0,90.0
15,6.24881263125,6.872632575,60.0,86.0
16,5.68277563125,6.99055695,52.0,75.0
17,5.39975713125,7.061311575,45.0,84.0
18,6.8148496312499995,7.17098124375,64.0,83.0
19,7.09786813125,7.39032058125,55.0,84.0
20,7.66390513125,7.96579153125,55.0,79.0
21,7.66390513125,8.3042344875,59.0,77.0
22,8.22994213125,8.6249887875,55.0,84.0
23,7.94692363125,9.1320636,50.0,74.0
24,8.51296063125,9.155648475,62.0,80.0
25,9.07899763125,9.4363084875,55.0,89.0
26,7.66390513125,9.55305361875,43.0,84.0
27,9.36201613125,9.6532893375,50.0,84.0
28,9.64503463125,9.85258153125,55.0,88.0
29,9.92805313125,10.00588321875,62.0,77.0
30,9.92805313125,10.54597685625,64.0,76.0
31,10.49409013125,11.39031538125,60.0,85.0
32,10.77710863125,11.6061169875,67.0,85.0
33,11.34314563125,11.73465455625,64.0,84.0
34,9.92805313125,11.8042299375,48.0,86.0
35,10.21107163125,11.8561166625,55.0,76.0
36,11.62616413125,12.1580030625,60.0,79.0
37,12.19220113125,12.8325304875,62.0,76.0
38,12.75823813125,13.64502943125,57.0,82.0
39,12.47521963125,13.80304809375,54.0,71.0
40,12.19220113125,13.9363026375,47.0,84.0
41,13.60729363125,13.9363026375,62.0,84.0
42,13.04125663125,14.07663264375,66.0,84.0
43,14.17333063125,14.3089436625,62.0,73.0
44,13.890312131249999,14.41625484375,57.0,79.0
45,14.45634913125,15.03182008125,60.0,74.0
46,15.02238613125,15.40917808125,55.0,85.0
47,15.30540463125,15.8985642375,60.0,86.0
48,14.73936763125,15.9740358375,52.0,76.0
49,14.45634913125,16.1155450875,45.0,83.0
50,15.87144163125,16.23229021875,64.0,86.0
51,16.15446013125,16.54832754375,60.0,81.0
52,16.43747863125,16.7900725125,57.0,70.0
53,16.72049713125,17.25115681875,62.0,79.0
54,17.00351563125,18.2075235,45.0,70.0
55,17.28653413125,18.26530644375,57.0,88.0
56,16.72049713125,18.29360829375,38.0,86.0
57,17.56955263125,18.334881825,66.0,84.0
58,18.98464513125,19.3655408625,55.0,75.0
59,18.98464513125,19.81011575625,62.0,76.0
60,19.55068213125,20.14266249375,55.0,78.0
61,19.83370063125,20.27355855,59.0,77.0
62,19.26766363125,20.466954525,50.0,69.0
63,20.68275613125,20.99407648125,50.0,69.0
64,18.98464513125,20.99643496875,43.0,84.0
65,20.96577463125,21.312472293749998,55.0,80.0
66,20.39973763125,21.382047675,62.0,76.0
67,21.24879313125,21.834877275,59.0,79.0
68,21.81483013125,22.6579894125,55.0,77.0
69,21.53181163125,22.7334610125,47.0,68.0
70,21.24879313125,22.83605521875,40.0,80.0
71,22.09784863125,22.9787437125,64.0,85.0
72,22.66388563125,23.33015835,59.0,69.0
73,22.94690413125,23.66152584375,55.0,80.0
74,24.07897813125,24.47520403125,55.0,84.0
75,24.36199663125,25.0023259875,62.0,82.0
76,24.92803363125,25.2523256625,59.0,84.0
77,23.51294113125,25.2617596125,43.0,84.0
78,23.79595963125,25.282986,50.0,68.0
79,25.21105213125,25.45161785625,55.0,83.0
80,25.77708913125,26.3513808375,62.0,76.0
81,26.34312613125,27.27237020625,57.0,84.0
82,26.06010763125,27.27472869375,54.0,74.0
83,25.77708913125,27.40444550625,47.0,79.0
84,26.62614463125,27.429209625,66.0,79.0
85,27.19218163125,27.53180383125,62.0,81.0
86,27.47520013125,27.66859610625,57.0,75.0
87,28.04123713125,28.23227461875,55.0,77.0
88,28.04123713125,28.39265176875,60.0,77.0
89,28.32425563125,28.85963229375,55.0,78.0
90,28.60727413125,28.93038691875,60.0,78.0
91,28.89029263125,29.52236728125,62.0,78.0
92,29.45632963125,29.74878208125,60.0,80.0
93,28.04123713125,29.787697125,48.0,84.0
94,30.30538513125,30.91151641875,62.0,80.0
95,30.58840363125,30.9174126375,54.0,61.0
96,30.30538513125,30.97991255625,47.0,84.0
97,30.87142213125,31.31717626875,59.0,84.0
98,31.15444063125,31.51882695,62.0,83.0
99,31.43745913125,32.02826025,64.0,84.0
100,31.72047763125,32.09547714375,47.0,68.0
101,31.43745913125,32.12849596875,40.0,85.0
102,32.00349613125,32.19689210625,59.0,86.0
103,32.56953313125,32.91505155,57.0,70.0
104,32.56953313125,33.18509836875,60.0,75.0
105,33.13557013125,33.8277862125,55.0,83.0
106,33.41858863125,34.02707840625,60.0,80.0
107,33.98462563125,34.344294975,64.0,82.0
108,32.85255163125,34.36434211875,52.0,71.0
109,32.56953313125,34.448068425,45.0,83.0
110,34.26764413125,34.797124575,60.0,77.0
111,34.55066263125,34.9810866,57.0,72.0
112,34.83368113125,35.41858603125,62.0,77.0
113,35.39971813125,35.7570289875,57.0,85.0
114,35.68273663125,35.86669865625,62.0,83.0
115,35.96575513125,36.278254725,64.0,87.0
116,36.24877363125,36.57424490625,62.0,85.0
117,35.11669963125,36.665046675,45.0,68.0
118,34.83368113125,36.6957070125,38.0,84.0
119,36.53179213125,36.9433482,57.0,84.0
120,37.09782913125,37.4268381375,55.0,77.0
121,37.09782913125,37.72282831875,59.0,76.0
122,37.66386613125,38.55065743125,55.0,78.0
123,37.94688463125,38.55065743125,62.0,81.0
124,38.51292163125,38.8419306375,59.0,85.0
125,37.38084763125,38.844289125,50.0,67.0
126,37.09782913125,38.99641156875,43.0,83.0
127,38.79594013125,39.40442990625,55.0,83.0
128,39.36197713125,39.9740046375,59.0,80.0
129,39.92801413125,40.6107962625,52.0,80.0
130,39.64499563125,40.83603181875,47.0,59.0
131,39.36197713125,40.96574863125,40.0,84.0
132,40.21103263125,41.3089085625,59.0,85.0
133,40.77706963125,41.382021675,55.0,86.0
134,41.06008813125,41.4315499125,47.0,78.0
135,41.34310663125,41.62612513125,52.0,89.0
136,42.19216213125,42.5164541625,55.0,86.0
137,42.47518063125,42.825416025,57.0,87.0
138,42.75819913125,43.05536855625,59.0,85.0
139,41.90914363125,43.10489679375,50.0,80.0
140,41.62612513125,43.46810386875,43.0,86.0
141,43.32423613125,43.57541505,50.0,79.0
142,43.04121763125,43.70749035,62.0,85.0
143,43.60725463125,43.891452375,55.0,85.0
144,43.89027313125,44.4032441625,62.0,85.0
145,44.45631013125,44.82187569375,57.0,84.0
146,44.17329163125,44.900885025,54.0,74.0
147,44.73932863125,45.37847874375,66.0,85.0
148,45.02234713125,45.42446925,54.0,73.0
149,43.89027313125,45.59781808125,47.0,85.0
150,45.30536563125,45.62847841875,62.0,84.0
151,45.58838413125,45.76762918125,59.0,84.0
152,46.15442113125,46.4527698,60.0,77.0
153,46.15442113125,46.74640149375,64.0,79.0
154,46.72045813125,47.410315725,60.0,84.0
155,47.00347663125,47.5824853125,67.0,74.0
156,46.43743963125,47.6815417875,55.0,72.0
157,46.15442113125,47.8230510375,48.0,85.0
158,47.56951363125,47.9221075125,64.0,87.0
159,47.85253213125,48.1390883625,60.0,91.0
160,48.41856913125,48.7664460375,59.0,78.0
161,48.70158763125,48.96809671875,54.0,71.0
162,48.41856913125,48.9928608375,47.0,84.0
163,48.41856913125,49.00111554375,62.0,84.0
164,48.98460613125,49.59781288125,59.0,80.0
165,49.55064313125,50.165029125,64.0,80.0
166,49.83366163125,50.2452177,47.0,69.0
167,49.55064313125,50.28884971875,40.0,83.0
168,50.11668013125,50.47752871875,59.0,85.0
169,50.39969863125,50.514085275,64.0,79.0
170,50.68271713125,51.06007513125,57.0,74.0
171,50.68271713125,51.28177295625,60.0,69.0
172,50.96573563125,51.6225744,52.0,74.0
173,51.24875413125,51.6296498625,57.0,79.0
174,50.68271713125,51.768800625,45.0,84.0
175,51.53177263125,52.14497938125,60.0,90.0
176,52.09780963125,52.4079507375,57.0,86.0
177,51.81479113125,52.59073351875,50.0,85.0
178,52.38082813125,52.69450696875,62.0,80.0
179,52.66384663125,52.99403488125,60.0,78.0
180,52.94686513125,53.50110969375,59.0,80.0
181,53.51290213125,53.70158113125,55.0,85.0
182,53.22988363125,53.95393929375,50.0,74.0
183,53.79592063125,54.46219335,55.0,84.0
184,53.79592063125,54.6791742,59.0,86.0
185,53.79592063125,54.7051175625,62.0,84.0
186,54.36195763125,54.7805891625,50.0,80.0
187,54.64497613125,54.8183249625,55.0,79.0
188,52.94686513125,54.86195698125,43.0,84.0
189,55.77705013125,56.12138930625,52.0,82.0
190,56.06006863125,56.3890776375,55.0,85.0
191,55.49403163125,56.4527568,47.0,75.0
192,55.21101313125,56.8560581625,40.0,88.0
193,56.62610563125,56.87138833125,47.0,70.0
194,56.34308713125,57.004642875,59.0,93.0
195,56.90912413125,57.08836918125,52.0,85.0
196,57.47516113125,58.1154904875,62.0,84.0
197,58.04119813125,58.44214100625,59.0,84.0
198,57.75817963125,59.023508174999996,54.0,82.0
199,58.89025363125,59.202753225,62.0,86.0
200,57.47516113125,59.2263381,47.0,85.0
201,58.32421663125,59.2475644875,66.0,85.0
202,59.17327213125,59.442139706249996,59.0,83.0
203,59.73930913125,60.10015771875,60.0,77.0
204,59.73930913125,60.3230347875,64.0,82.0
205,60.02232763125,60.495204375,43.0,73.0
206,59.73930913125,60.5069968125,36.0,84.0
207,60.30534613125,60.5258647125,60.0,84.0
208,60.87138313125,61.22515625625,62.0,84.0
209,60.87138313125,61.4173729875,66.0,77.0
210,61.154401631249996,61.542372825,45.0,72.0
211,60.87138313125,61.5635992125,38.0,84.0
212,61.43742013125,61.75345745625,62.0,84.0
213,61.72043863125,62.0635985625,66.0,79.0
214,62.00345713125,62.50581496875,67.0,80.0
215,62.569494131249996,63.0400123875,62.0,80.0
216,62.28647563125,63.231049875,50.0,70.0
217,63.13553113125,63.4645401375,62.0,85.0
218,62.00345713125,63.50109669375,43.0,84.0
219,63.13553113125,63.5918984625,71.0,85.0
220,63.41854963125,63.617841825,50.0,84.0
221,63.70156813125,63.91147351875,62.0,83.0
222,63.70156813125,64.2617089125,69.0,84.0
223,64.26760513125,64.57420850625,64.0,78.0
224,64.26760513125,64.749915825,67.0,78.0
225,64.83364213125,65.183877525,64.0,85.0
226,65.11666063125,65.25463215,67.0,84.0
227,64.55062363125,65.51760350625,47.0,67.0
228,65.39967913125,65.65911275625,64.0,86.0
229,65.39967913125,65.78175410625,67.0,86.0
230,64.26760513125,65.8301031,40.0,85.0
231,65.68269763125,65.8371785625,47.0,76.0
232,65.39967913125,65.93033881875,71.0,87.0
233,65.96571613125,66.2900081625,64.0,90.0
234,66.24873463125,66.580102125,67.0,73.0
235,66.53175313125,66.834818775,66.0,78.0
236,67.09779013125,67.47396888749999,59.0,78.0
237,66.81477163125,67.608402675,54.0,71.0
238,67.38080863125,67.8135910875,62.0,84.0
239,66.53175313125,68.40910918125,47.0,84.0
240,68.22986413125,68.410288425,54.0,74.0
241,67.94684563125,68.57420330625,66.0,83.0
242,67.94684563125,68.61311835,62.0,84.0
243,68.51288263125,68.70627860625,59.0,84.0
244,68.79590113125,69.39731544375,64.0,85.0
245,69.36193813125,69.73222066875,60.0,78.0
246,69.64495663125,69.83835260625,64.0,82.0
247,69.07891963125,70.05061648125,55.0,73.0
248,69.92797513125,70.27467279375,60.0,84.0
249,68.79590113125,70.363116075,48.0,86.0
250,70.21099363125,70.50816305625,55.0,71.0
251,69.92797513125,70.55533280625,67.0,85.0
252,69.92797513125,70.6343421375,64.0,88.0
253,70.49401213125,70.68976659375,48.0,86.0
254,71.06004913125,71.39967133125,57.0,75.0
255,71.06004913125,71.45863351875,62.0,79.0
256,71.62608613125,72.0187743,62.0,79.0
257,71.62608613125,72.0400006875,66.0,68.0
258,72.19212313125,72.5352830625,57.0,85.0
259,72.19212313125,72.64495273125,62.0,89.0
260,72.47514163125,72.7994336625,45.0,77.0
261,71.06004913125,72.80179215,38.0,86.0
262,72.19212313125,72.83363173125,66.0,85.0
263,72.75816013125,72.891414675,57.0,86.0
264,73.32419713125,73.674432525,55.0,84.0
265,73.32419713125,73.68858345,59.0,83.0
266,73.89023413125,74.0116962375,62.0,72.0
267,74.45627113125,74.514054075,67.0,73.0
268,74.45627113125,74.73693114375,55.0,79.0
269,74.45627113125,74.7923556,59.0,89.0
270,73.32419713125,74.8182989625,43.0,85.0
271,74.45627113125,74.82065745,62.0,86.0
272,74.73928963125,74.9432988,50.0,76.0
273,75.02230813125,75.1437702375,55.0,84.0
274,75.58834513125,76.18975944375,59.0,82.0
275,75.58834513125,76.31004230625,62.0,81.0
276,76.43740063125,76.56004198125,59.0,75.0
277,76.15438213125,76.74636249375,54.0,72.0
278,76.72041913125,77.0777299875,59.0,86.0
279,77.00343763125,77.202729825,54.0,80.0
280,75.58834513125,77.2899938625,47.0,85.0
281,76.72041913125,77.334805125,66.0,85.0
282,76.72041913125,77.3465975625,62.0,85.0
283,77.28645613125,77.68975749375,59.0,76.0
284,77.56947463125,77.90437985625,62.0,79.0
285,77.85249313125,78.30296424375,64.0,84.0
286,78.41853013125,78.6862184625,59.0,79.0
287,77.85249313125,78.76404855,40.0,85.0
288,78.98456713125,79.1579159625,59.0,79.0
289,78.98456713125,79.30060445625,64.0,83.0
290,78.98456713125,79.31003840625,67.0,81.0
291,79.26758563125,79.64494363125,59.0,80.0
292,78.98456713125,79.6815001875,40.0,84.0
293,79.55060413125,79.9173489375,64.0,84.0
294,80.11664113125,80.6531970375,59.0,83.0
295,80.11664113125,80.80296099375,62.0,84.0
296,80.11664113125,81.061215375,47.0,84.0
297,80.68267813125,81.08008327499999,54.0,71.0
298,80.96569663125,81.12253605,59.0,80.0
299,81.24871513125,81.4550827875,59.0,83.0
300,81.24871513125,81.54588455625,62.0,84.0
301,81.53173363125,81.81239364375,54.0,60.0
302,81.24871513125,81.9550821375,66.0,84.0
303,81.24871513125,81.966874575,47.0,82.0
304,81.81475213125,82.155553575,59.0,84.0
305,82.09777063125,82.4220626625,62.0,77.0
306,82.38078913125,82.9432884,60.0,77.0
307,82.38078913125,83.0069675625,64.0,85.0
308,82.94682613125,83.60012716875,55.0,76.0
309,83.51286313125,83.8371551625,60.0,84.0
310,82.38078913125,83.85838155,48.0,85.0
311,83.51286313125,83.91616449375,67.0,84.0
312,83.79588163125,83.9314946625,55.0,80.0
313,84.07890013125,84.43739023125,60.0,84.0
314,84.36191863125,84.52937124375,64.0,79.0
315,84.64493713125,85.306492875,59.0,80.0
316,84.64493713125,85.5635680125,62.0,77.0
317,85.21097413125,85.57653969375,54.0,70.0
318,85.49399263125,85.6980018,59.0,84.0
319,84.64493713125,85.7003602875,47.0,86.0
320,85.77701113125,86.06002963125,59.0,80.0
321,85.77701113125,86.3654537625,64.0,84.0
322,85.77701113125,86.4126235125,52.0,90.0
323,86.34304813125,86.53644410625,59.0,88.0
324,86.90908513125,87.5211126375,57.0,78.0
325,86.90908513125,87.56238616875,60.0,80.0
326,87.75814063125,87.8701687875,57.0,81.0
327,87.47512213125,88.0494138375,52.0,76.0
328,86.90908513125,88.08361190625,45.0,82.0
329,88.04115913125,88.38549830625,57.0,85.0
330,88.04115913125,88.45625293125,60.0,95.0
331,88.04115913125,88.45625293125,64.0,90.0
332,88.32417763125,88.617809325,52.0,80.0
333,88.60719613125,88.98455413125,57.0,85.0
334,88.89021463125,89.231016075,60.0,87.0
335,89.17323313125,89.6012986125,62.0,84.0
336,89.73927013125,90.14139225,57.0,85.0
337,90.02228863125,90.1696941,62.0,83.0
338,89.45625163125,90.43030696875,45.0,74.0
339,89.17323313125,90.51757100625,38.0,90.0
340,90.30530713125,90.68030664375,57.0,84.0
341,90.30530713125,90.6862028625,62.0,88.0
342,90.30530713125,90.79587253125,66.0,89.0
343,90.87134413125,91.35719255625,62.0,87.0
344,90.58832563125,91.35955104375,45.0,79.0
345,91.43738113125,91.787616525,55.0,84.0
346,91.43738113125,91.80176745,59.0,83.0
347,92.00341813125,92.1248802375,62.0,72.0
348,92.56945513125,92.627238075,67.0,73.0
349,92.56945513125,92.85011514375,55.0,79.0
350,92.56945513125,92.9055396,59.0,89.0
351,91.43738113125,92.9314829625,43.0,85.0
352,92.56945513125,92.93384145,62.0,86.0
353,92.85247363125,93.0564828,50.0,76.0
354,93.13549213125,93.2569542375,55.0,84.0
355,93.70152913125,94.30294344375,59.0,82.0
356,93.70152913125,94.42322630625,62.0,81.0
357,94.55058463125,94.67322598125,59.0,75.0
358,94.26756613125,94.85954649375,54.0,72.0
359,94.83360313125,95.1909139875,59.0,86.0
360,95.11662163125,95.315913825,54.0,80.0
361,93.70152913125,95.4031778625,47.0,85.0
362,94.83360313125,95.447989125,66.0,85.0
363,94.83360313125,95.4597815625,62.0,85.0
364,95.39964013125,95.80294149375,59.0,76.0
365,95.68265863124999,96.01756385624999,62.0,79.0
366,95.96567713125,96.41614824375,64.0,84.0
367,96.53171413125,96.7994024625,59.0,79.0
368,95.96567713125,96.87723255,40.0,85.0
369,97.09775113124999,97.2710999625,59.0,79.0
370,97.09775113124999,97.41378845625,64.0,83.0
371,97.09775113124999,97.42322240625,67.0,81.0
372,97.38076963125,97.75812763125,59.0,80.0
373,97.09775113124999,97.7946841875,40.0,84.0
374,97.66378813125,98.0305329375,64.0,84.0
375,98.22982513125,98.7663810375,59.0,83.0
376,98.22982513125,98.91614499375,62.0,84.0
377,98.22982513125,99.174399375,47.0,84.0
378,98.79586213125,99.193267275,54.0,71.0
379,99.07888063125,99.23572005,59.0,80.0
380,99.36189913125,99.5682667875,59.0,83.0
381,99.36189913125,99.65906855625,62.0,84.0
382,99.64491763125,99.92557764375,54.0,60.0
383,99.36189913125,100.0682661375,66.0,84.0
384,99.36189913125,100.080058575,47.0,82.0
385,99.92793613125,100.268737575,59.0,84.0
386,100.21095463125,100.5352466625,62.0,77.0
387,100.49397313125,101.0564724,60.0,77.0
388,100.49397313125,101.1201515625,64.0,85.0
389,101.06001013125,101.71331116875,55.0,76.0
390,101.62604713125,101.9503391625,60.0,84.0
391,100.49397313125,101.97156555,48.0,85.0
392,101.62604713125,102.02934849375,67.0,84.0
393,101.90906563125,102.0446786625,55.0,80.0
394,102.19208413125,102.55057423125,60.0,84.0
395,102.47510263125,102.64255524375,64.0,79.0
396,102.75812113125,103.419676875,59.0,80.0
397,102.75812113125,103.6767520125,62.0,77.0
398,103.32415813125,103.68972369375,54.0,70.0
399,103.60717663125,103.8111858,59.0,84.0
400,102.75812113125,103.8135442875,47.0,86.0
401,103.89019513125,104.17321363125,59.0,80.0
402,103.89019513125,104.4786377625,64.0,84.0
403,103.89019513125,104.5258075125,52.0,90.0
404,104.45623213125,104.64962810625,59.0,88.0
405,105.02226913125,105.6342966375,57.0,78.0
406,105.02226913125,105.67557016875,60.0,80.0
407,105.87132463125,105.9833527875,57.0,81.0
408,105.58830613125,106.1625978375,52.0,76.0
409,105.02226913125,106.19679590625,45.0,82.0
410,106.15434313125,106.49868230625,57.0,85.0
411,106.15434313125,106.56943693125,60.0,95.0
412,106.15434313125,106.56943693125,64.0,90.0
413,106.43736163125,106.730993325,52.0,80.0
414,106.72038013125,107.09773813125,57.0,85.0
415,107.00339863125,107.344200075,60.0,87.0
416,107.28641713125,107.7144826125,62.0,84.0
417,107.85245413125,108.25457625,57.0,85.0
418,108.13547263125,108.2828781,62.0,83.0
419,107.56943563125,108.54349096875,45.0,74.0
420,107.28641713125,108.63075500625,38.0,90.0
421,108.41849113125,108.79349064375,57.0,84.0
422,108.41849113125,108.7993868625,62.0,88.0
423,108.41849113125,108.90905653125,66.0,89.0
424,108.98452813125,109.47037655625,62.0,87.0
425,108.70150963125,109.47273504375,45.0,79.0
426,109.55056513125,109.90197976875,55.0,80.0
427,109.55056513125,110.0871210375,62.0,83.0
428,110.11660213125,110.9644783875,55.0,87.0
429,110.39962063125,111.27461949375,62.0,85.0
430,109.55056513125,111.67556236875,43.0,85.0
431,109.83358363125,111.712118925,50.0,70.0
432,111.24867613125,112.1720239875,55.0,85.0
433,111.53169463125,112.45150475625,62.0,79.0
434,110.96565763125,112.49631601875,67.0,84.0
435,112.66376863125,113.96329524375,62.0,84.0
436,112.66376863125,113.97154995,67.0,80.0
437,112.38075013125,113.9833423875,55.0,79.0
438,112.09773163125,113.98688011875,50.0,72.0
439,111.81471313125,114.00338953125,43.0,84.0
440,114.64489813125,114.9739071375,62.0,79.0
441,114.36187963125,115.50810455625,55.0,74.0
442,115.49395363125,115.91494365,60.0,83.0
443,115.77697213125,116.1319245,55.0,71.0
444,114.07886113125,116.13782071875,48.0,81.0
445,114.92791663125,117.14961185625,67.0,84.0
446,116.62602763125,117.34064934375,54.0,78.0
447,117.47508313125,117.8559788625,54.0,68.0
448,117.19206463125,117.87720525,57.0,85.0
449,116.90904613125,117.89961088125,62.0,79.0
450,116.34300913125,118.07649744375,47.0,84.0
451,117.75810163125,118.2262614,66.0,78.0
452,118.04112013125,118.23451610625,57.0,82.0
453,118.60715713125,119.20857144375,60.0,80.0
454,119.17319413125,119.54819364375,55.0,90.0
455,119.45621263125,120.080032575,60.0,86.0
456,118.89017563125,120.19795695,52.0,75.0
457,118.60715713125,120.268711575,45.0,84.0
458,120.02224963125,120.37838124375,64.0,83.0
459,120.30526813125,120.59772058125,55.0,84.0
460,120.87130513125,121.17319153125,55.0,79.0
461,120.87130513125,121.5116344875,59.0,77.0
462,121.43734213125,121.8323887875,55.0,84.0
463,121.15432363125,122.3394636,50.0,74.0
464,121.72036063125,122.363048475,62.0,80.0
465,122.28639763125,122.6437084875,55.0,89.0
466,120.87130513125,122.76045361875,43.0,84.0
467,122.56941613125,122.8606893375,50.0,84.0
468,122.85243463125,123.05998153125,55.0,88.0
469,123.13545313125,123.21328321875,62.0,77.0
470,123.13545313125,123.75337685625,64.0,76.0
471,123.70149013125,124.59771538125,60.0,85.0
472,123.98450863125,124.8135169875,67.0,85.0
473,124.55054563125,124.94205455625,64.0,84.0
474,123.13545313125,125.0116299375,48.0,86.0
475,123.41847163125,125.0635166625,55.0,76.0
476,124.83356413125,125.3654030625,60.0,79.0
477,125.39960113125,126.0399304875,62.0,76.0
478,125.96563813125,126.85242943125,57.0,82.0
479,125.68261963125,127.01044809375,54.0,71.0
480,125.39960113125,127.1437026375,47.0,84.0
481,126.81469363125,127.1437026375,62.0,84.0
482,126.24865663125,127.28403264375,66.0,84.0
483,127.38073063125,127.5163436625,62.0,73.0
484,127.09771213125,127.62365484375,57.0,79.0
485,127.66374913125,128.23922008125,60.0,74.0
486,128.22978613125,128.61657808125,55.0,85.0
487,128.51280463125,129.1059642375,60.0,86.0
488,127.94676763125,129.1814358375,52.0,76.0
489,127.66374913125,129.3229450875,45.0,83.0
490,129.07884163125,129.43969021875,64.0,86.0
491,129.36186013125,129.75572754375,60.0,81.0
492,129.64487863125,129.9974725125,57.0,70.0
493,129.92789713125,130.45855681875,62.0,79.0
494,130.21091563125,131.4149235,45.0,70.0
495,130.49393413125,131.47270644375,57.0,88.0
496,129.92789713125,131.50100829375,38.0,86.0
497,130.77695263125,131.542281825,66.0,84.0
498,132.19204513125,132.54817674375,57.0,77.0
499,132.19204513125,132.86657255625,66.0,78.0
500,132.75808213125,133.09298735625,57.0,79.0
501,133.04110063125,133.46798686875,62.0,85.0
502,132.47506363125,134.21680665,45.0,63.0
503,133.89015613125,134.28166505625,57.0,73.0
504,132.19204513125,134.30289144375,38.0,85.0
505,133.60713763125,134.55524960625,69.0,84.0
506,134.45619313125,134.76515499375,57.0,69.0
507,134.45619313125,134.9408623125,62.0,76.0
508,135.02223013125,135.42435225,57.0,68.0
509,135.30524863125,135.471522,62.0,80.0
510,134.73921163125,136.5918035625,45.0,66.0
511,135.58826713125,136.60005826875,57.0,76.0
512,135.58826713125,136.60241675625,66.0,72.0
513,134.45619313125,136.617746925,38.0,86.0
514,136.72034113125,137.1012368625,55.0,75.0
515,136.72034113125,137.54581175625,62.0,76.0
516,137.28637813125,137.87835849375,55.0,78.0
517,137.56939663125,138.00925455,59.0,77.0
518,137.00335963125,138.202650525,50.0,69.0
519,138.41845213125,138.72977248125,50.0,69.0
520,136.72034113125,138.73213096875,43.0,84.0
521,138.70147063125,139.04816829375,55.0,80.0
522,138.13543363125,139.11774367499999,62.0,76.0
523,138.98448913125,139.570573275,59.0,79.0
524,139.55052613125,140.3936854125,55.0,77.0
525,139.26750763125,140.4691570125,47.0,68.0
526,138.98448913125,140.57175121875,40.0,80.0
527,139.83354463125,140.7144397125,64.0,85.0
528,140.39958163125,141.06585435,59.0,69.0
529,140.68260013125,141.39722184375,55.0,80.0
530,141.81467413125,142.21090003125,55.0,84.0
531,142.09769263125,142.7380219875,62.0,82.0
532,142.66372963125,142.9880216625,59.0,84.0
533,141.24863713125,142.9974556125,43.0,84.0
534,141.53165563125,143.018682,50.0,68.0
535,142.94674813125,143.18731385625,55.0,83.0
536,143.51278513125,144.0870768375,62.0,76.0
537,144.07882213125,145.00806620625,57.0,84.0
538,143.79580363125,145.01042469375,54.0,74.0
539,143.51278513125,145.14014150625,47.0,79.0
540,144.36184063125,145.164905625,66.0,79.0
541,144.92787763125,145.26749983125,62.0,81.0
542,145.21089613125,145.40429210625,57.0,75.0
543,145.77693313125,145.96797061875,55.0,77.0
544,145.77693313125,146.12834776875,60.0,77.0
545,146.05995163125,146.59532829375,55.0,78.0
546,146.34297013125,146.66608291875,60.0,78.0
547,146.62598863125,147.25806328125,62.0,78.0
548,147.19202563125,147.48447808125,60.0,80.0
549,145.77693313125,147.523393125,48.0,84.0
550,148.04108113125,148.64721241875,62.0,80.0
551,148.32409963125,148.6531086375,54.0,61.0
552,148.04108113125,148.71560855625,47.0,84.0
553,148.60711813125,149.05287226875,59.0,84.0
554,148.89013663125,149.25452295,62.0,83.0
555,149.17315513125,149.76395625,64.0,84.0
556,149.45617363125,149.83117314375,47.0,68.0
557,149.17315513125,149.86419196875,40.0,85.0
558,149.73919213125,149.93258810625,59.0,86.0
559,150.30522913125,150.65074755,57.0,70.0
560,150.30522913125,150.92079436875,60.0,75.0
561,150.87126613125,151.5634822125,55.0,83.0
562,151.15428463125,151.76277440625,60.0,80.0
563,151.72032163125,152.079990975,64.0,82.0
564,150.58824763125,152.10003811875,52.0,71.0
565,150.30522913125,152.183764425,45.0,83.0
566,152.00334013125,152.532820575,60.0,77.0
567,152.28635863125,152.7167826,57.0,72.0
568,152.56937713125,153.15428203125,62.0,77.0
569,153.13541413125,153.4927249875,57.0,85.0
570,153.41843263125,153.60239465625,62.0,83.0
571,153.70145113125,154.013950725,64.0,87.0
572,153.98446963125,154.30994090625,62.0,85.0
573,152.85239563125,154.400742675,45.0,68.0
574,152.56937713125,154.4314030125,38.0,84.0
575,154.26748813125,154.6790442,57.0,84.0
576,154.83352513125,155.1625341375,55.0,77.0
577,154.83352513125,155.45852431875,59.0,76.0
578,155.39956213125,156.28635343125,55.0,78.0
579,155.68258063125,156.28635343125,62.0,81.0
580,156.24861763125,156.5776266375,59.0,85.0
581,155.11654363125,156.579985125,50.0,67.0
582,154.83352513125,156.73210756875,43.0,83.0
583,156.53163613125,157.14012590625,55.0,83.0
584,157.09767313125,157.7097006375,59.0,80.0
585,157.66371013125,158.3464922625,52.0,80.0
586,157.38069163125,158.57172781875,47.0,59.0
587,157.09767313125,158.70144463125,40.0,84.0
588,157.94672863125,159.0446045625,59.0,85.0
589,158.51276563125,159.117717675,55.0,86.0
590,158.79578413125,159.1672459125,47.0,78.0
591,159.07880263125,159.36182113125,52.0,89.0
592,159.92785813125,160.2521501625,55.0,86.0
593,160.21087663125,160.561112025,57.0,87.0
594,160.49389513125,160.79106455625,59.0,85.0
595,159.64483963125,160.84059279375,50.0,80.0
596,159.36182113125,161.20379986875,43.0,86.0
597,161.05993213125,161.31111105,50.0,79.0
598,160.77691363125,161.44318635,62.0,85.0
599,161.34295063125,161.627148375,55.0,85.0
600,161.62596913125,162.1389401625,62.0,85.0
601,162.19200613125,162.55757169375,57.0,84.0
602,161.90898763125,162.636581025,54.0,74.0
603,162.47502463125,163.11417474375,66.0,85.0
604,162.75804313125,163.16016525,54.0,73.0
605,161.62596913125,163.33351408125,47.0,85.0
606,163.04106163125,163.36417441875,62.0,84.0
607,163.32408013124999,163.50332518125,59.0,84.0
608,163.89011713125,164.1884658,60.0,77.0
609,163.89011713125,164.48209749375,64.0,79.0
610,164.45615413125,165.146011725,60.0,84.0
611,164.73917263125,165.3181813125,67.0,74.0
612,164.17313563125,165.4172377875,55.0,72.0
613,163.89011713125,165.5587470375,48.0,85.0
614,165.30520963125,165.6578035125,64.0,87.0
615,165.58822813125,165.8747843625,60.0,91.0
616,166.15426513124999,166.5021420375,59.0,78.0
617,166.43728363125,166.70379271875,54.0,71.0
618,166.15426513124999,166.7285568375,47.0,84.0
619,166.15426513124999,166.73681154375,62.0,84.0
620,166.72030213125,167.33350888125,59.0,80.0
621,167.28633913125,167.900725125,64.0,80.0
622,167.56935763125,167.9809137,47.0,69.0
623,167.28633913125,168.02454571875,40.0,83.0
624,167.85237613125,168.21322471875,59.0,85.0
625,168.13539463125,168.249781275,64.0,79.0
626,168.41841313125,168.79577113125,57.0,74.0
627,168.41841313125,169.01746895625,60.0,69.0
628,168.70143163125,169.3582704,52.0,74.0
629,168.98445013125,169.3653458625,57.0,79.0
630,168.41841313125,169.504496625,45.0,84.0
631,169.26746863125,169.88067538125,60.0,90.0
632,169.83350563125,170.1436467375,57.0,86.0
633,169.55048713125,170.32642951875,50.0,85.0
634,170.11652413125,170.43020296875,62.0,80.0
635,170.39954263125,170.72973088125,60.0,78.0
636,170.68256113125,171.23680569375,59.0,80.0
637,171.24859813125,171.43727713125,55.0,85.0
638,170.96557963125,171.68963529375,50.0,74.0
639,171.53161663125,172.19788935,55.0,84.0
640,171.53161663125,172.4148702,59.0,86.0
641,171.53161663125,172.4408135625,62.0,84.0
642,172.09765363125,172.5162851625,50.0,80.0
643,172.38067213125,172.5540209625,55.0,79.0
644,170.68256113125,172.59765298125,43.0,84.0
645,173.51274613125,173.85708530625,52.0,82.0
646,173.79576463125,174.1247736375,55.0,85.0
647,173.22972763125,174.1884528,47.0,75.0
648,172.94670913125,174.5917541625,40.0,88.0
649,174.36180163125,174.60708433125,47.0,70.0
650,174.07878313125,174.740338875,59.0,93.0
651,174.64482013125,174.82406518125,52.0,85.0
652,175.21085713125,175.8511864875,62.0,84.0
653,175.77689413125,176.17783700625,59.0,84.0
654,175.49387563125,176.759204175,54.0,82.0
655,176.62594963125,176.938449225,62.0,86.0
656,175.21085713125,176.9620341,47.0,85.0
657,176.05991263125,176.9832604875,66.0,85.0
658,176.90896813125,177.17783570625,59.0,83.0
659,177.47500513125,177.83585371875,60.0,77.0
660,177.47500513125,178.0587307875,64.0,82.0
661,177.75802363125,178.230900375,43.0,73.0
662,177.47500513125,178.2426928125,36.0,84.0
663,178.04104213125,178.2615607125,60.0,84.0
664,178.60707913125,178.96085225625,62.0,84.0
665,178.60707913125,179.1530689875,66.0,77.0
666,178.89009763125,179.278068825,45.0,72.0
667,178.60707913125,179.2992952125,38.0,84.0
668,179.17311613125,179.48915345625,62.0,84.0
669,179.45613463125,179.7992945625,66.0,79.0
670,179.73915313125,180.24151096875,67.0,80.0
671,180.30519013125,180.7757083875,62.0,80.0
672,180.02217163125,180.966745875,50.0,70.0
673,180.87122713125,181.2002361375,62.0,85.0
674,179.73915313125,181.23679269375,43.0,84.0
675,180.87122713125,181.3275944625,71.0,85.0
676,181.15424563125,181.353537825,50.0,84.0
677,181.43726413125,181.64716951875,62.0,83.0
678,181.43726413125,181.9974049125,69.0,84.0
679,182.00330113125,182.30990450625,64.0,78.0
680,182.00330113125,182.485611825,67.0,78.0
681,182.56933813125,182.919573525,64.0,85.0
682,182.85235663125,182.99032815,67.0,84.0
683,182.28631963125,183.25329950625,47.0,67.0
684,183.13537513125,183.39480875625,64.0,86.0
685,183.13537513125,183.51745010625,67.0,86.0
686,182.00330113125,183.5657991,40.0,85.0
687,183.41839363125,183.5728745625,47.0,76.0
688,183.13537513125,183.66603481875,71.0,87.0
689,183.70141213125,184.0257041625,64.0,90.0
690,183.98443063125,184.315798125,67.0,73.0
691,184.26744913125,184.570514775,66.0,78.0
692,184.83348613125,185.2096648875,59.0,78.0
693,184.55046763125,185.344098675,54.0,71.0
694,185.11650463125,185.5492870875,62.0,84.0
695,184.26744913125,186.14480518125,47.0,84.0
696,185.96556013125,186.145984425,54.0,74.0
697,185.68254163125,186.30989930625,66.0,83.0
698,185.68254163125,186.34881435,62.0,84.0
699,186.24857863125,186.44197460625,59.0,84.0
700,186.53159713125,187.13301144375,64.0,85.0
701,187.09763413125,187.46791666875,60.0,78.0
702,187.38065263125,187.57404860625,64.0,82.0
703,186.81461563125,187.78631248125,55.0,73.0
704,187.66367113125,188.01036879375,60.0,84.0
705,186.53159713125,188.098812075,48.0,86.0
706,187.94668963125,188.24385905625,55.0,71.0
707,187.66367113125,188.29102880625,67.0,85.0
708,187.66367113125,188.3700381375,64.0,88.0
709,188.22970813125,188.42546259375,48.0,86.0
710,188.79574513125,189.13536733125,57.0,75.0
711,188.79574513125,189.19432951875,62.0,79.0
712,189.36178213125,189.7544703,62.0,79.0
713,189.36178213125,189.7756966875,66.0,68.0
714,189.92781913125,190.2709790625,57.0,85.0
715,189.92781913125,190.38064873125,62.0,89.0
716,190.21083763125,190.5351296625,45.0,77.0
717,188.79574513125,190.53748815,38.0,86.0
718,189.92781913125,190.56932773125,66.0,85.0
719,190.49385613125,190.627110675,57.0,86.0
720,191.05989313125,191.410128525,55.0,84.0
721,191.05989313125,191.42427945,59.0,83.0
722,191.62593013125,191.7473922375,62.0,72.0
723,192.19196713125,192.249750075,67.0,73.0
724,192.19196713125,192.47262714375,55.0,79.0
725,192.19196713125,192.5280516,59.0,89.0
726,191.05989313125,192.5539949625,43.0,85.0
727,192.19196713125,192.55635345,62.0,86.0
728,192.47498563125,192.6789948,50.0,76.0
729,192.75800413125,192.8794662375,55.0,84.0
730,193.32404113125,193.92545544375,59.0,82.0
731,193.32404113125,194.04573830625,62.0,81.0
732,194.17309663125,194.29573798125,59.0,75.0
733,193.89007813125,194.48205849375,54.0,72.0
734,194.45611513125,194.8134259875,59.0,86.0
735,194.73913363125,194.938425825,54.0,80.0
736,193.32404113125,195.0256898625,47.0,85.0
737,194.45611513125,195.070501125,66.0,85.0
738,194.45611513125,195.0822935625,62.0,85.0
739,195.02215213125,195.42545349375,59.0,76.0
740,195.30517063125,195.64007585625,62.0,79.0
741,195.58818913125,196.03866024375,64.0,84.0
742,196.15422613125,196.4219144625,59.0,79.0
743,195.58818913125,196.49974455,40.0,85.0
744,196.72026313125,196.8936119625,59.0,79.0
745,196.72026313125,197.03630045625,64.0,83.0
746,196.72026313125,197.04573440625,67.0,81.0
747,197.00328163125,197.38063963125,59.0,80.0
748,196.72026313125,197.4171961875,40.0,84.0
749,197.28630013125,197.6530449375,64.0,84.0
750,197.85233713125,198.3888930375,59.0,83.0
751,197.85233713125,198.53865699375,62.0,84.0
752,197.85233713125,198.796911375,47.0,84.0
753,198.41837413125,198.815779275,54.0,71.0
754,198.70139263125,198.85823205,59.0,80.0
755,198.98441113125,199.1907787875,59.0,83.0
756,198.98441113125,199.28158055625,62.0,84.0
757,199.26742963125,199.54808964375,54.0,60.0
758,198.98441113125,199.6907781375,66.0,84.0
759,198.98441113125,199.702570575,47.0,82.0
760,199.55044813125,199.891249575,59.0,84.0
761,199.83346663125,200.1577586625,62.0,77.0
762,200.11648513125,200.6789844,60.0,77.0
763,200.11648513125,200.7426635625,64.0,85.0
764,200.68252213125,201.33582316875,55.0,76.0
765,201.24855913125,201.5728511625,60.0,84.0
766,200.11648513125,201.59407755,48.0,85.0
767,201.24855913125,201.65186049375,67.0,84.0
768,201.53157763125,201.6671906625,55.0,80.0
769,201.81459613125,202.17308623125,60.0,84.0
770,202.09761463125,202.26506724375,64.0,79.0
771,202.38063313125,203.042188875,59.0,80.0
772,202.38063313125,203.2992640125,62.0,77.0
773,202.94667013125,203.31223569375,54.0,70.0
774,203.22968863125,203.4336978,59.0,84.0
775,202.38063313125,203.4360562875,47.0,86.0
776,203.51270713125,203.79572563125,59.0,80.0
777,203.51270713125,204.1011497625,64.0,84.0
778,203.51270713125,204.1483195125,52.0,90.0
779,204.07874413125,204.27214010625,59.0,88.0
780,204.64478113125,205.2568086375,57.0,78.0
781,204.64478113125,205.29808216875,60.0,80.0
782,205.49383663125,205.6058647875,57.0,81.0
783,205.21081813125,205.7851098375,52.0,76.0
784,204.64478113125,205.81930790625,45.0,82.0
785,205.77685513125,206.12119430625,57.0,85.0
786,205.77685513125,206.19194893125,60.0,95.0
787,205.77685513125,206.19194893125,64.0,90.0
788,206.05987363124999,206.353505325,52.0,80.0
789,206.34289213125,206.72025013125,57.0,85.0
790,206.62591063125,206.966712075,60.0,87.0
791,206.90892913125,207.3369946125,62.0,84.0
792,207.47496613125,207.87708824999999,57.0,85.0
793,207.75798463125,207.9053901,62.0,83.0
794,207.19194763125,208.16600296875,45.0,74.0
795,206.90892913125,208.25326700625,38.0,90.0
796,208.04100313125,208.41600264375,57.0,84.0
797,208.04100313125,208.4218988625,62.0,88.0
798,208.04100313125,208.53156853125,66.0,89.0
799,208.60704013125,209.09288855625,62.0,87.0
800,208.32402163125,209.09524704375,45.0,79.0
801,209.17307713125,209.523312525,55.0,84.0
802,209.17307713125,209.53746345,59.0,83.0
803,209.73911413125,209.8605762375,62.0,72.0
804,210.30515113125,210.362934075,67.0,73.0
805,210.30515113125,210.58581114375,55.0,79.0
806,210.30515113125,210.6412356,59.0,89.0
807,209.17307713125,210.6671789625,43.0,85.0
808,210.30515113125,210.66953745,62.0,86.0
809,210.58816963125,210.7921788,50.0,76.0
810,210.87118813125,210.9926502375,55.0,84.0
811,211.43722513125,212.03863944375,59.0,82.0
812,211.43722513125,212.15892230625,62.0,81.0
813,212.28628063125,212.40892198125,59.0,75.0
814,212.00326213125,212.59524249375,54.0,72.0
815,212.56929913125,212.9266099875,59.0,86.0
816,212.85231763125,213.05160982499999,54.0,80.0
817,211.43722513125,213.1388738625,47.0,85.0
818,212.56929913125,213.183685125,66.0,85.0
819,212.56929913125,213.1954775625,62.0,85.0
820,213.13533613125,213.53863749375,59.0,76.0
821,213.41835463125,213.75325985625,62.0,79.0
822,213.70137313125,214.15184424375,64.0,84.0
823,214.26741013125,214.5350984625,59.0,79.0
824,213.70137313125,214.61292855,40.0,85.0
825,214.83344713125,215.0067959625,59.0,79.0
826,214.83344713125,215.14948445625,64.0,83.0
827,214.83344713125,215.15891840625,67.0,81.0
828,215.11646563125,215.49382363125,59.0,80.0
829,214.83344713125,215.5303801875,40.0,84.0
830,215.39948413125,215.7662289375,64.0,84.0
831,215.96552113125,216.5020770375,59.0,83.0
832,215.96552113125,216.65184099375,62.0,84.0
833,215.96552113125,216.910095375,47.0,84.0
834,216.53155813125,216.928963275,54.0,71.0
835,216.81457663125,216.97141605,59.0,80.0
836,217.09759513125,217.3039627875,59.0,83.0
837,217.09759513125,217.39476455625,62.0,84.0
838,217.38061363125,217.66127364375,54.0,60.0
839,217.09759513125,217.8039621375,66.0,84.0
840,217.09759513125,217.815754575,47.0,82.0
841,217.66363213125,218.004433575,59.0,84.0
842,217.94665063125,218.2709426625,62.0,77.0
843,218.22966913125,218.7921684,60.0,77.0
844,218.22966913125,218.8558475625,64.0,85.0
845,218.79570613125,219.44900716875,55.0,76.0
846,219.36174313125,219.6860351625,60.0,84.0
847,218.22966913125,219.70726155,48.0,85.0
848,219.36174313125,219.76504449375,67.0,84.0
849,219.64476163125,219.7803746625,55.0,80.0
850,219.92778013125,220.28627023125,60.0,84.0
851,220.21079863125,220.37825124375,64.0,79.0
852,220.49381713125,221.155372875,59.0,80.0
853,220.49381713125,221.4124480125,62.0,77.0
854,221.05985413125,221.42541969375,54.0,70.0
855,221.34287263125,221.5468818,59.0,84.0
856,220.49381713125,221.5492402875,47.0,86.0
857,221.62589113125,221.90890963125,59.0,80.0
858,221.62589113125,222.2143337625,64.0,84.0
859,221.62589113125,222.2615035125,52.0,90.0
860,222.19192813125,222.38532410625,59.0,88.0
861,222.75796513125,223.3699926375,57.0,78.0
862,222.75796513125,223.41126616875,60.0,80.0
863,223.60702063125,223.7190487875,57.0,81.0
864,223.32400213125,223.8982938375,52.0,76.0
865,222.75796513125,223.93249190625,45.0,82.0
866,223.89003913125,224.23437830625,57.0,85.0
867,223.89003913125,224.30513293125,60.0,95.0
868,223.89003913125,224.30513293125,64.0,90.0
869,224.17305763125,224.466689325,52.0,80.0
870,224.45607613125,224.83343413125,57.0,85.0
871,224.73909463125,225.079896075,60.0,87.0
872,225.02211313125,225.4501786125,62.0,84.0
873,225.58815013125,225.99027225,57.0,85.0
874,225.87116863125,226.0185741,62.0,83.0
875,225.30513163125,226.27918696875,45.0,74.0
876,225.02211313125,226.36645100625,38.0,90.0
877,226.15418713125,226.52918664375,57.0,84.0
878,226.15418713125,226.5350828625,62.0,88.0
879,226.15418713125,226.64475253125,66.0,89.0
880,226.72022413125,227.20607255625,62.0,87.0
881,226.43720563125,227.20843104375,45.0,79.0
882,227.28626113125,227.63767576875,55.0,80.0
883,227.28626113125,227.8228170375,62.0,83.0
884,227.85229813125,228.7001743875,55.0,87.0
885,228.13531663125,229.01031549375,62.0,85.0
886,227.28626113125,229.41125836875,43.0,85.0
887,227.56927963125,229.447814925,50.0,70.0
888,228.98437213125,229.9077199875,55.0,85.0
889,229.26739063125,230.18720075625,62.0,79.0
890,228.70135363125,230.23201201875,67.0,84.0
891,230.39946463125,231.69899124375,62.0,84.0
892,230.39946463125,231.70724595,67.0,80.0
893,230.11644613125,231.7190383875,55.0,79.0
894,229.83342763125,231.72257611875,50.0,72.0
895,229.55040913125,231.73908553125,43.0,84.0
896,231.81455713125,232.164792525,55.0,84.0
897,231.81455713125,232.17894345,59.0,83.0
898,232.38059413125,232.5020562375,62.0,72.0
899,232.94663113125,233.004414075,67.0,73.0
900,232.94663113125,233.22729114375,55.0,79.0
901,232.94663113125,233.2827156,59.0,89.0
902,231.81455713125,233.3086589625,43.0,85.0
903,232.94663113125,233.31101745,62.0,86.0
904,233.22964963125,233.4336588,50.0,76.0
905,233.51266813125,233.6341302375,55.0,84.0
906,234.07870513125,234.68011944375,59.0,82.0
907,234.07870513125,234.80040230625,62.0,81.0
908,234.92776063125,235.05040198125,59.0,75.0
909,234.64474213125,235.23672249375,54.0,72.0
910,235.21077913125,235.5680899875,59.0,86.0
911,235.49379763125,235.693089825,54.0,80.0
912,234.07870513125,235.7803538625,47.0,85.0
913,235.21077913125,235.825165125,66.0,85.0
914,235.21077913125,235.8369575625,62.0,85.0
915,235.77681613125,236.18011749375,59.0,76.0
916,236.05983463125,236.39473985625,62.0,79.0
917,236.34285313125,236.79332424375,64.0,84.0
918,236.90889013125,237.1765784625,59.0,79.0
919,236.34285313125,237.25440855,40.0,85.0
920,237.47492713125,237.6482759625,59.0,79.0
921,237.47492713125,237.79096445625,64.0,83.0
922,237.47492713125,237.80039840625,67.0,81.0
923,237.75794563125,238.13530363125,59.0,80.0
924,237.47492713125,238.1718601875,40.0,84.0
925,238.04096413125,238.4077089375,64.0,84.0
926,238.60700113125,239.1435570375,59.0,83.0
927,238.60700113125,239.29332099375,62.0,84.0
928,238.60700113125,239.551575375,47.0,84.0
929,239.17303813125,239.570443275,54.0,71.0
930,239.45605663125,239.61289605,59.0,80.0
931,239.73907513125,239.9454427875,59.0,83.0
932,239.73907513125,240.03624455625,62.0,84.0
933,240.02209363125,240.30275364375,54.0,60.0
934,239.73907513125,240.4454421375,66.0,84.0
935,239.73907513125,240.457234575,47.0,82.0
936,240.30511213125,240.645913575,59.0,84.0
937,240.58813063125,240.9124226625,62.0,77.0
938,240.87114913125,241.4336484,60.0,77.0
939,240.87114913125,241.4973275625,64.0,85.0
940,241.43718613125,242.09048716875,55.0,76.0
941,242.00322313125,242.3275151625,60.0,84.0
942,240.87114913125,242.34874155,48.0,85.0
943,242.00322313125,242.40652449375,67.0,84.0
944,242.28624163125,242.4218546625,55.0,80.0
945,242.56926013125,242.92775023125,60.0,84.0
946,242.85227863125,243.01973124375,64.0,79.0
947,243.13529713125,243.796852875,59.0,80.0
948,243.13529713125,244.0539280125,62.0,77.0
949,243.70133413125,244.06689969375,54.0,70.0
950,243.98435263125,244.1883618,59.0,84.0
951,243.13529713125,244.1907202875,47.0,86.0
952,244.26737113125,244.55038963125,59.0,80.0
953,244.26737113125,244.8558137625,64.0,84.0
954,244.26737113125,244.9029835125,52.0,90.0
955,244.83340813125,245.02680410625,59.0,88.0
956,245.39944513125,246.0114726375,57.0,78.0
957,245.39944513125,246.05274616875,60.0,80.0
958,246.24850063125,246.3605287875,57.0,81.0
959,245.96548213125,246.5397738375,52.0,76.0
960,245.39944513125,246.57397190625,45.0,82.0
961,246.53151913125,246.87585830625,57.0,85.0
962,246.53151913125,246.94661293125,60.0,95.0
963,246.53151913125,246.94661293125,64.0,90.0
964,246.81453763125,247.108169325,52.0,80.0
965,247.09755613125,247.47491413125,57.0,85.0
966,247.38057463125,247.721376075,60.0,87.0
967,247.66359313125,248.0916586125,62.0,84.0
968,248.22963013125,248.63175225,57.0,85.0
969,248.51264863125,248.6600541,62.0,83.0
970,247.94661163125,248.92066696875,45.0,74.0
971,247.66359313125,249.00793100625,38.0,90.0
972,248.79566713125,249.17066664375,57.0,84.0
973,248.79566713125,249.1765628625,62.0,88.0
974,248.79566713125,249.28623253125,66.0,89.0
975,249.36170413125,249.84755255625,62.0,87.0
976,249.07868563125,249.84991104375,45.0,79.0
977,249.92774113125,250.27797652499999,55.0,84.0
978,249.92774113125,250.29212745,59.0,83.0
979,250.49377813125,250.6152402375,62.0,72.0
980,251.05981513125,251.117598075,67.0,73.0
981,251.05981513125,251.34047514375,55.0,79.0
982,251.05981513125,251.3958996,59.0,89.0
983,249.92774113125,251.4218429625,43.0,85.0
984,251.05981513125,251.42420145,62.0,86.0
985,251.34283363125,251.5468428,50.0,76.0
986,251.62585213124999,251.7473142375,55.0,84.0
987,252.19188913125,252.79330344375,59.0,82.0
988,252.19188913125,252.91358630625,62.0,81.0
989,253.04094463125,253.16358598125,59.0,75.0
990,252.75792613125,253.34990649375,54.0,72.0
991,253.32396313125,253.6812739875,59.0,86.0
992,253.60698163125,253.806273825,54.0,80.0
993,252.19188913125,253.8935378625,47.0,85.0
994,253.32396313125,253.938349125,66.0,85.0
995,253.32396313125,253.9501415625,62.0,85.0
996,253.89000013125,254.29330149375,59.0,76.0
997,254.17301863125,254.50792385625,62.0,79.0
998,254.45603713124999,254.90650824375,64.0,84.0
999,255.02207413125,255.2897624625,59.0,79.0
1000,254.45603713124999,255.36759255,40.0,85.0
1001,255.58811113125,255.7614599625,59.0,79.0
1002,255.58811113125,255.90414845625,64.0,83.0
1003,255.58811113125,255.91358240625,67.0,81.0
1004,255.87112963125,256.24848763125,59.0,80.0
1005,255.58811113125,256.2850441875,40.0,84.0
1006,256.15414813125,256.5208929375,64.0,84.0
1007,256.72018513125,257.2567410375,59.0,83.0
1008,256.72018513125,257.40650499375,62.0,84.0
1009,256.72018513125,257.664759375,47.0,84.0
1010,257.28622213125,257.683627275,54.0,71.0
1011,257.56924063125,257.72608005,59.0,80.0
1012,257.85225913125,258.0586267875,59.0,83.0
1013,257.85225913125,258.14942855625,62.0,84.0
1014,258.13527763125,258.41593764375,54.0,60.0
1015,257.85225913125,258.5586261375,66.0,84.0
1016,257.85225913125,258.570418575,47.0,82.0
1017,258.41829613125,258.759097575,59.0,84.0
1018,258.70131463125,259.0256066625,62.0,77.0
1019,258.98433313125,259.54683239999997,60.0,77.0
1020,258.98433313125,259.6105115625,64.0,85.0
1021,259.55037013125,260.20367116875,55.0,76.0
1022,260.11640713125,260.4406991625,60.0,84.0
1023,258.98433313125,260.46192555,48.0,85.0
1024,260.11640713125,260.51970849375,67.0,84.0
1025,260.39942563125,260.53503866249997,55.0,80.0
1026,260.68244413125,261.04093423125,60.0,84.0
1027,260.96546263125,261.13291524375,64.0,79.0
1028,261.24848113125,261.910036875,59.0,80.0
1029,261.24848113125,262.1671120125,62.0,77.0
1030,261.81451813125,262.18008369375,54.0,70.0
1031,262.09753663125,262.3015458,59.0,84.0
1032,261.24848113125,262.3039042875,47.0,86.0
1033,262.38055513125,262.66357363125,59.0,80.0
1034,262.38055513125,262.9689977625,64.0,84.0
1035,262.38055513125,263.0161675125,52.0,90.0
1036,262.94659213125,263.13998810625,59.0,88.0
1037,263.51262913125,264.1246566375,57.0,78.0
1038,263.51262913125,264.16593016875,60.0,80.0
1039,264.36168463125,264.4737127875,57.0,81.0
1040,264.07866613125,264.6529578375,52.0,76.0
1041,263.51262913125,264.68715590625,45.0,82.0
1042,264.64470313125,264.98904230625,57.0,85.0
1043,264.64470313125,265.05979693125,60.0,95.0
1044,264.64470313125,265.05979693125,64.0,90.0
1045,264.92772163125,265.221353325,52.0,80.0
1046,265.21074013125,265.58809813125,57.0,85.0
1047,265.49375863125,265.834560075,60.0,87.0
1048,265.77677713125,266.2048426125,62.0,84.0
1049,266.34281413125,266.74493625,57.0,85.0
1050,266.62583263125,266.7732381,62.0,83.0
1051,266.05979563125,267.03385096875,45.0,74.0
1052,265.77677713125,267.12111500625,38.0,90.0
1053,266.90885113125,267.28385064375,57.0,84.0
1054,266.90885113125,267.2897468625,62.0,88.0
1055,266.90885113125,267.39941653125,66.0,89.0
1056,267.47488813125,267.96073655625,62.0,87.0
1057,267.19186963125,267.96309504375,45.0,79.0
1058,268.04092513125,268.39233976875,55.0,80.0
1059,268.04092513125,268.5774810375,62.0,83.0
1060,268.60696213125,269.4548383875,55.0,87.0
1061,268.88998063125,269.76497949375,62.0,85.0
1062,268.04092513125,270.16592236875,43.0,85.0
1063,268.32394363125,270.202478925,50.0,70.0
1064,269.73903613125,270.6623839875,55.0,85.0
1065,270.02205463125,270.94186475625,62.0,79.0
1066,269.45601763125,270.98667601875,67.0,84.0
1067,270.30507313125,272.3581365,43.0,84.0
1068,270.87111013125,272.3887968375,55.0,79.0
1069,271.15412863125,272.45365524375,62.0,84.0
1070,271.15412863125,272.46190995,67.0,80.0
1071,270.58809163125,272.47724011875,50.0,72.0
1072,272.4454005375,276.51497071875,43.0,62.0
1073,272.447759025,276.51497071875,55.0,65.0
1074,272.51497591875,276.532659375,59.0,75.0
1075,272.60931541875,276.53737635,62.0,59.0
1076,272.641155,276.57393290625,67.0,63.0
