,start,end,pitch,velocity
0,20.140625,20.390625,67.0,107.0
1,20.390625,20.640625,69.0,102.0
2,20.640625,21.140625,71.0,110.0
3,21.140625,21.640625,69.0,113.0
4,21.640625,22.140625,71.0,114.0
5,22.140625,22.640625,69.0,100.0
6,22.640625,22.890625,71.0,102.0
7,22.890625,23.389583333333334,74.0,107.0
8,23.390625,24.015625,74.0,104.0
9,24.140625,24.390625,67.0,98.0
10,24.390625,24.640625,69.0,88.0
11,24.640625,25.140625,71.0,102.0
12,25.140625,25.640625,69.0,96.0
13,25.640625,26.140625,71.0,102.0
14,26.140625,26.640625,69.0,100.0
15,26.640625,26.890625,71.0,96.0
16,26.890625,27.390625,76.0,107.0
17,27.390625,27.946875,74.0,114.0
18,28.140625,28.390625,67.0,98.0
19,28.390625,28.640625,69.0,96.0
20,28.640625,29.140625,71.0,93.0
21,29.140625,29.639583333333334,67.0,89.0
22,29.640625,30.36875,67.0,98.0
23,30.640625,31.140625,71.0,113.0
24,31.140625,31.639583333333334,67.0,108.0
25,31.640625,32.420833333333334,67.0,110.0
26,32.640625,33.140625,71.0,113.0
27,33.140625,33.639583333333334,67.0,100.0
28,33.640625,34.140625,67.0,107.0
29,34.140625,34.640625,64.0,98.0
30,34.640625,35.66041666666666,69.0,113.0
31,36.140625,36.390625,67.0,107.0
32,36.390625,36.640625,69.0,102.0
33,36.640625,37.140625,71.0,110.0
34,37.140625,37.640625,69.0,113.0
35,37.640625,38.140625,71.0,114.0
36,38.140625,38.640625,69.0,100.0
37,38.640625,38.890625,71.0,102.0
38,38.890625,39.389583333333334,74.0,107.0
39,39.390625,39.86354166666666,74.0,104.0
40,40.140625,40.390625,67.0,98.0
41,40.390625,40.640625,69.0,88.0
42,40.640625,41.140625,71.0,102.0
43,41.140625,41.640625,69.0,96.0
44,41.640625,42.140625,71.0,102.0
45,42.140625,42.640625,69.0,100.0
46,42.640625,42.890625,71.0,96.0
47,42.890625,43.389583333333334,78.0,107.0
48,43.390625,43.90833333333333,78.0,114.0
49,44.140625,44.409375,74.0,107.0
50,44.390625,44.640625,76.0,98.0
51,44.640625,45.140625,78.0,116.0
52,45.140625,45.640625,74.0,113.0
53,45.640625,46.41875,76.0,113.0
54,46.640625,47.140625,76.0,114.0
55,47.140625,47.640625,71.0,108.0
56,47.640625,48.26770833333333,74.0,113.0
57,48.640625,48.890625,76.0,113.0
58,48.890625,49.140625,74.0,110.0
59,49.140625,49.390625,76.0,108.0
60,49.390625,49.640625,74.0,110.0
61,49.640625,50.140625,76.0,116.0
62,50.140625,50.639583333333334,78.0,119.0
63,50.640625,51.811458333333334,78.0,119.0
64,52.640625,53.640625,79.0,104.0
65,53.640625,54.69479166666667,81.0,114.0
66,55.890625,56.157291666666666,74.0,98.0
67,56.140625,56.45625,79.0,98.0
68,56.390625,56.66354166666667,78.0,103.0
69,56.640625,56.90416666666667,79.0,108.0
70,56.890625,57.16458333333333,78.0,93.0
71,57.140625,57.43125,79.0,98.0
72,57.390625,57.699999999999996,78.0,89.0
73,57.640625,58.140625,71.0,100.0
74,58.140625,58.640625,69.0,107.0
75,58.640625,58.890625,71.0,108.0
76,58.890625,59.389583333333334,74.0,108.0
77,59.390625,59.889583333333334,74.0,110.0
78,59.890625,60.140625,74.0,102.0
79,60.140625,60.390625,79.0,114.0
80,60.390625,60.640625,78.0,103.0
81,60.640625,61.140625,79.0,108.0
82,61.140625,61.640625,69.0,108.0
83,61.640625,62.063541666666666,71.0,107.0
84,62.125,62.389583333333334,74.0,107.0
85,62.390625,63.22604166666667,74.0,110.0
86,63.890625,64.140625,74.0,98.0
87,64.140625,64.390625,76.0,94.0
88,64.390625,64.65833333333333,74.0,96.0
89,64.640625,65.140625,76.0,100.0
90,65.140625,65.68958333333333,79.0,107.0
91,65.890625,66.203125,74.0,88.0
92,66.140625,66.390625,76.0,86.0
93,66.390625,66.64895833333333,74.0,93.0
94,66.640625,67.140625,76.0,92.0
95,67.140625,67.734375,79.0,108.0
96,67.890625,68.16875,74.0,110.0
97,68.140625,68.390625,76.0,102.0
98,68.390625,68.890625,83.0,107.0
99,68.890625,69.140625,74.0,104.0
100,69.140625,69.390625,76.0,96.0
101,69.390625,69.890625,83.0,102.0
102,69.890625,70.140625,74.0,94.0
103,70.140625,70.390625,76.0,100.0
104,70.390625,70.640625,83.0,104.0
105,70.640625,71.140625,79.0,100.0
106,71.140625,71.890625,81.0,108.0
107,71.890625,72.15729166666667,74.0,98.0
108,72.140625,72.45625,79.0,98.0
109,72.390625,72.66354166666666,78.0,103.0
110,72.640625,72.90416666666667,79.0,108.0
111,72.890625,73.16458333333333,78.0,93.0
112,73.140625,73.43125,79.0,98.0
113,73.390625,73.7,78.0,89.0
114,73.640625,74.140625,71.0,100.0
115,74.140625,74.640625,69.0,107.0
116,74.640625,74.890625,71.0,108.0
117,74.890625,75.38958333333333,74.0,108.0
118,75.390625,75.88958333333333,74.0,110.0
119,75.890625,76.140625,74.0,102.0
120,76.140625,76.390625,79.0,114.0
121,76.390625,76.640625,78.0,103.0
122,76.640625,77.13854166666667,79.0,108.0
123,77.390625,77.640625,69.0,100.0
124,77.640625,77.890625,71.0,104.0
125,77.890625,78.5375,76.0,100.0
126,78.640625,78.91041666666666,76.0,116.0
127,78.890625,79.88958333333333,74.0,94.0
128,79.890625,80.140625,74.0,98.0
129,80.140625,80.390625,76.0,94.0
130,80.390625,80.65833333333333,74.0,96.0
131,80.640625,81.140625,76.0,100.0
132,81.140625,81.63229166666666,79.0,107.0
133,81.890625,82.140625,74.0,104.0
134,82.140625,82.390625,76.0,108.0
135,82.390625,82.640625,83.0,108.0
136,82.640625,83.140625,81.0,116.0
137,83.140625,83.625,79.0,114.0
138,83.890625,84.16875,74.0,110.0
139,84.140625,84.390625,76.0,102.0
140,84.390625,84.890625,83.0,107.0
141,84.890625,85.140625,74.0,104.0
142,85.140625,85.390625,76.0,96.0
143,85.390625,85.890625,83.0,102.0
144,85.890625,86.140625,74.0,94.0
145,86.140625,86.390625,76.0,100.0
146,86.390625,86.640625,83.0,104.0
147,86.640625,87.140625,79.0,100.0
148,87.140625,87.640625,81.0,108.0
149,87.640625,88.015625,79.0,113.0
150,88.015625,88.38958333333333,71.0,108.0
151,88.390625,88.640625,71.0,98.0
152,88.640625,89.515625,78.0,119.0
153,89.515625,92.0,79.0,107.0
154,104.140625,104.390625,67.0,107.0
155,104.390625,104.640625,69.0,102.0
156,104.640625,105.140625,71.0,110.0
157,105.140625,105.640625,69.0,113.0
158,105.640625,106.140625,71.0,114.0
159,106.140625,106.640625,69.0,100.0
160,106.640625,106.890625,71.0,102.0
161,106.890625,107.38958333333333,74.0,107.0
162,107.390625,107.90416666666667,74.0,104.0
163,108.140625,108.390625,67.0,98.0
164,108.390625,108.640625,69.0,88.0
165,108.640625,109.140625,71.0,102.0
166,109.140625,109.640625,69.0,96.0
167,109.640625,110.140625,71.0,102.0
168,110.140625,110.640625,69.0,100.0
169,110.640625,110.890625,71.0,96.0
170,110.890625,111.390625,76.0,107.0
171,111.390625,112.140625,74.0,114.0
172,112.140625,112.390625,67.0,98.0
173,112.390625,112.640625,69.0,96.0
174,112.640625,113.140625,71.0,93.0
175,113.140625,113.63958333333333,67.0,89.0
176,113.640625,114.17291666666667,67.0,98.0
177,114.640625,115.140625,71.0,113.0
178,115.140625,115.63958333333333,67.0,108.0
179,115.640625,116.28958333333333,67.0,110.0
180,116.640625,117.140625,71.0,113.0
181,117.140625,117.63958333333333,67.0,100.0
182,117.640625,118.140625,67.0,107.0
183,118.140625,118.640625,64.0,98.0
184,118.640625,119.30104166666666,69.0,113.0
185,120.140625,120.390625,67.0,107.0
186,120.390625,120.640625,69.0,102.0
187,120.640625,121.140625,71.0,110.0
188,121.140625,121.640625,69.0,113.0
189,121.640625,122.140625,71.0,114.0
190,122.140625,122.640625,69.0,100.0
191,122.640625,122.890625,71.0,102.0
192,122.890625,123.38958333333333,74.0,107.0
193,123.390625,123.88020833333333,74.0,104.0
194,124.140625,124.390625,67.0,98.0
195,124.390625,124.640625,69.0,88.0
196,124.640625,125.140625,71.0,102.0
197,125.140625,125.640625,69.0,96.0
198,125.640625,126.140625,71.0,102.0
199,126.140625,126.640625,69.0,100.0
200,126.640625,126.890625,71.0,96.0
201,126.890625,127.38958333333333,78.0,107.0
202,127.390625,127.88958333333333,78.0,114.0
203,128.140625,128.409375,74.0,107.0
204,128.390625,128.640625,76.0,98.0
205,128.640625,129.140625,78.0,116.0
206,129.140625,129.640625,74.0,113.0
207,129.640625,130.33229166666666,76.0,113.0
208,130.640625,131.140625,76.0,114.0
209,131.140625,131.640625,71.0,108.0
210,131.640625,132.640625,74.0,113.0
211,132.640625,132.890625,76.0,113.0
212,132.890625,133.140625,74.0,110.0
213,133.140625,133.390625,76.0,108.0
214,133.390625,133.640625,74.0,110.0
215,133.640625,134.140625,76.0,116.0
216,134.140625,134.63958333333332,78.0,119.0
217,134.640625,135.684375,78.0,119.0
218,136.640625,137.640625,79.0,104.0
219,137.640625,138.81875,81.0,114.0
220,139.890625,140.15729166666665,74.0,98.0
221,140.140625,140.45625,79.0,98.0
222,140.390625,140.66354166666667,78.0,103.0
223,140.640625,140.90416666666667,79.0,108.0
224,140.890625,141.16458333333333,78.0,93.0
225,141.140625,141.43125,79.0,98.0
226,141.390625,141.7,78.0,89.0
227,141.640625,142.140625,71.0,100.0
228,142.140625,142.640625,69.0,107.0
229,142.640625,142.890625,71.0,108.0
230,142.890625,143.38958333333332,74.0,108.0
231,143.390625,143.88958333333332,74.0,110.0
232,143.890625,144.140625,74.0,102.0
233,144.140625,144.390625,79.0,114.0
234,144.390625,144.640625,78.0,103.0
235,144.640625,145.140625,79.0,108.0
236,145.140625,145.640625,69.0,108.0
237,145.640625,146.090625,71.0,107.0
238,146.13125,146.38958333333332,74.0,107.0
239,146.390625,147.27708333333334,74.0,110.0
240,147.890625,148.140625,74.0,98.0
241,148.140625,148.390625,76.0,94.0
242,148.390625,148.65833333333333,74.0,96.0
243,148.640625,149.140625,76.0,100.0
244,149.140625,149.65729166666665,79.0,107.0
245,149.890625,150.203125,74.0,88.0
246,150.140625,150.390625,76.0,86.0
247,150.390625,150.64895833333333,74.0,93.0
248,150.640625,151.140625,76.0,92.0
249,151.140625,151.59479166666665,79.0,108.0
250,151.890625,152.16875,74.0,110.0
251,152.140625,152.390625,76.0,102.0
252,152.390625,152.890625,83.0,107.0
253,152.890625,153.140625,74.0,104.0
254,153.140625,153.390625,76.0,96.0
255,153.390625,153.890625,83.0,102.0
256,153.890625,154.140625,74.0,94.0
257,154.140625,154.390625,76.0,100.0
258,154.390625,154.640625,83.0,104.0
259,154.640625,155.140625,79.0,100.0
260,155.140625,155.61145833333333,81.0,108.0
261,155.890625,156.15729166666665,74.0,98.0
262,156.140625,156.45625,79.0,98.0
263,156.390625,156.66354166666667,78.0,103.0
264,156.640625,156.90416666666667,79.0,108.0
265,156.890625,157.16458333333333,78.0,93.0
266,157.140625,157.43125,79.0,98.0
267,157.390625,157.7,78.0,89.0
268,157.640625,158.140625,71.0,100.0
269,158.140625,158.640625,69.0,107.0
270,158.640625,158.890625,71.0,108.0
271,158.890625,159.38958333333332,74.0,108.0
272,159.390625,159.88958333333332,74.0,110.0
273,159.890625,160.140625,74.0,102.0
274,160.140625,160.390625,79.0,114.0
275,160.390625,160.640625,78.0,103.0
276,160.640625,161.184375,79.0,108.0
277,161.390625,161.640625,69.0,100.0
278,161.640625,161.890625,71.0,104.0
279,161.890625,162.35729166666667,76.0,100.0
280,162.640625,162.91041666666666,76.0,116.0
281,162.890625,163.52916666666667,74.0,94.0
282,163.890625,164.140625,74.0,98.0
283,164.140625,164.390625,76.0,94.0
284,164.390625,164.65833333333333,74.0,96.0
285,164.640625,165.140625,76.0,100.0
286,165.140625,165.65416666666667,79.0,107.0
287,165.890625,166.140625,74.0,104.0
288,166.140625,166.390625,76.0,108.0
289,166.390625,166.640625,83.0,108.0
290,166.640625,167.140625,81.0,116.0
291,167.140625,167.65625,79.0,114.0
292,167.890625,168.16875,74.0,110.0
293,168.140625,168.390625,76.0,102.0
294,168.390625,168.890625,83.0,107.0
295,168.890625,169.140625,74.0,104.0
296,169.140625,169.390625,76.0,96.0
297,169.390625,169.890625,83.0,102.0
298,169.890625,170.140625,74.0,94.0
299,170.140625,170.390625,76.0,100.0
300,170.390625,170.640625,83.0,104.0
301,170.640625,171.140625,79.0,100.0
302,171.140625,171.640625,81.0,108.0
303,171.640625,172.015625,79.0,113.0
304,172.015625,172.38958333333332,71.0,108.0
305,172.390625,172.640625,71.0,98.0
306,172.640625,173.515625,78.0,119.0
307,173.515625,175.35,79.0,107.0
308,187.890625,188.15729166666665,74.0,98.0
309,188.140625,188.45625,79.0,98.0
310,188.390625,188.66354166666667,78.0,103.0
311,188.640625,188.90416666666667,79.0,108.0
312,188.890625,189.16458333333333,78.0,93.0
313,189.140625,189.43125,79.0,98.0
314,189.390625,189.7,78.0,89.0
315,189.640625,190.1125,71.0,100.0
316,190.140625,190.44895833333334,69.0,107.0
317,190.640625,190.81041666666667,71.0,108.0
318,190.890625,191.15,74.0,108.0
319,191.390625,191.615625,74.0,110.0
320,191.890625,192.1375,74.0,102.0
321,192.140625,192.37708333333333,79.0,114.0
322,192.390625,192.596875,78.0,103.0
323,192.640625,192.8,79.0,108.0
324,193.140625,193.44583333333333,69.0,108.0
325,193.640625,193.86458333333334,71.0,107.0
326,193.890625,194.07291666666666,74.0,107.0
327,194.390625,194.65416666666667,74.0,110.0
328,195.890625,196.13125,74.0,98.0
329,196.140625,196.37916666666666,76.0,94.0
330,196.390625,196.65833333333333,74.0,96.0
331,196.640625,196.93541666666667,76.0,100.0
332,197.140625,197.50104166666665,79.0,107.0
333,197.890625,198.203125,74.0,88.0
334,198.140625,198.359375,76.0,86.0
335,198.390625,198.64895833333333,74.0,93.0
336,198.640625,198.93020833333333,76.0,92.0
337,199.140625,199.43645833333332,79.0,108.0
338,199.890625,200.16875,74.0,110.0
339,200.140625,200.24791666666667,76.0,102.0
340,200.390625,200.68958333333333,83.0,107.0
341,200.890625,201.05729166666666,74.0,104.0
342,201.140625,201.24895833333332,76.0,96.0
343,201.390625,201.653125,83.0,102.0
344,201.890625,202.084375,74.0,94.0
345,202.140625,202.2625,76.0,100.0
346,202.390625,202.58125,83.0,104.0
347,202.640625,202.91770833333334,79.0,100.0
348,203.140625,203.51354166666667,81.0,108.0
349,203.890625,204.15729166666665,74.0,98.0
350,204.140625,204.45625,79.0,98.0
351,204.390625,204.66354166666667,78.0,103.0
352,204.640625,204.90416666666667,79.0,108.0
353,204.890625,205.16458333333333,78.0,93.0
354,205.140625,205.43125,79.0,98.0
355,205.390625,205.7,78.0,89.0
356,205.640625,206.11249999999998,71.0,100.0
357,206.140625,206.44895833333334,69.0,107.0
358,206.640625,206.81041666666667,71.0,108.0
359,206.890625,207.15,74.0,108.0
360,207.390625,207.615625,74.0,110.0
361,207.890625,208.1375,74.0,102.0
362,208.140625,208.37708333333333,79.0,114.0
363,208.390625,208.59687499999998,78.0,103.0
364,208.640625,208.79999999999998,79.0,108.0
365,209.390625,209.61770833333333,69.0,100.0
366,209.640625,209.75625,71.0,104.0
367,209.890625,210.36458333333334,76.0,100.0
368,210.640625,210.91041666666666,76.0,116.0
369,210.890625,211.18333333333334,74.0,94.0
370,211.890625,212.13125,74.0,98.0
371,212.140625,212.37916666666666,76.0,94.0
372,212.390625,212.65833333333333,74.0,96.0
373,212.640625,212.93541666666667,76.0,100.0
374,213.140625,213.50104166666665,79.0,107.0
375,213.890625,214.10104166666667,74.0,104.0
376,214.140625,214.23749999999998,76.0,108.0
377,214.390625,214.540625,83.0,108.0
378,214.640625,214.95104166666667,81.0,116.0
379,215.140625,215.44583333333333,79.0,114.0
380,215.890625,216.16875,74.0,110.0
381,216.140625,216.24791666666667,76.0,102.0
382,216.390625,216.68958333333333,83.0,107.0
383,216.890625,217.05729166666666,74.0,104.0
384,217.140625,217.24895833333332,76.0,96.0
385,217.390625,217.653125,83.0,102.0
386,217.890625,218.084375,74.0,94.0
387,218.140625,218.2625,76.0,100.0
388,218.390625,218.58124999999998,83.0,104.0
389,218.640625,218.91770833333334,79.0,100.0
390,219.140625,219.51354166666667,81.0,108.0
391,221.640625,221.928125,79.0,113.0
392,222.015625,222.26770833333333,71.0,108.0
393,222.390625,222.603125,71.0,98.0
394,222.640625,223.2625,79.0,119.0
395,223.515625,224.13020833333334,79.0,107.0
