,start,end,pitch,velocity
0,4.640625,4.895833333333333,71.0,87.0
1,4.640625,4.910416666666666,62.0,88.0
2,4.640625,4.933333333333334,67.0,88.0
3,5.140625,5.48125,71.0,83.0
4,5.140625,5.508333333333333,62.0,80.0
5,5.140625,5.538541666666666,67.0,83.0
6,5.640625,5.959375,71.0,81.0
7,5.640625,5.980208333333334,62.0,84.0
8,5.640625,6.058333333333334,67.0,83.0
9,4.640625,6.247916666666667,43.0,87.0
10,4.640625,6.25,55.0,87.0
11,6.140625,6.434375,71.0,82.0
12,6.140625,6.495833333333334,62.0,82.0
13,6.390625,6.515625,55.0,76.0
14,6.140625,6.544791666666667,67.0,81.0
15,6.640625,7.008333333333333,62.0,83.0
16,6.640625,7.032291666666667,66.0,85.0
17,7.140625,7.566666666666666,62.0,82.0
18,7.140625,7.576041666666667,66.0,84.0
19,7.640625,8.051041666666666,62.0,77.0
20,7.640625,8.051041666666666,66.0,83.0
21,6.640625,8.30625,55.0,80.0
22,6.640625,8.421875,43.0,75.0
23,8.140625,8.432291666666666,62.0,78.0
24,8.140625,8.446875,66.0,83.0
25,8.390625,8.579166666666666,55.0,77.0
26,8.640625,9.014583333333333,60.0,80.0
27,8.640625,9.015625,64.0,84.0
28,9.140625,9.521875,60.0,81.0
29,9.140625,9.536458333333334,64.0,87.0
30,9.640625,9.995833333333334,60.0,78.0
31,9.640625,10.016666666666666,64.0,82.0
32,8.640625,10.265625,48.0,81.0
33,10.140625,10.464583333333334,60.0,80.0
34,10.140625,10.486458333333333,64.0,83.0
35,10.390625,10.515625,48.0,67.0
36,8.640625,10.725,36.0,83.0
37,10.640625,10.979166666666666,62.0,81.0
38,10.640625,10.991666666666667,66.0,82.0
39,11.140625,11.491666666666667,62.0,82.0
40,11.140625,11.527083333333334,66.0,84.0
41,11.640625,11.959375,62.0,83.0
42,11.640625,12.039583333333333,66.0,84.0
43,12.140625,12.544791666666667,62.0,86.0
44,10.640625,12.578125,50.0,79.0
45,10.640625,12.588541666666666,38.0,82.0
46,12.140625,12.589583333333334,66.0,84.0
47,12.640625,12.895833333333334,71.0,87.0
48,12.640625,12.910416666666666,62.0,88.0
49,12.640625,12.933333333333334,67.0,88.0
50,13.140625,13.48125,71.0,83.0
51,13.140625,13.508333333333333,62.0,80.0
52,13.140625,13.538541666666667,67.0,83.0
53,13.640625,13.959375,71.0,81.0
54,13.640625,13.980208333333334,62.0,84.0
55,13.640625,14.058333333333334,67.0,83.0
56,12.640625,14.390625,55.0,87.0
57,14.140625,14.434375,71.0,82.0
58,12.640625,14.45,43.0,87.0
59,14.140625,14.495833333333334,62.0,82.0
60,14.390625,14.515625,55.0,79.0
61,14.140625,14.544791666666667,67.0,81.0
62,14.640625,15.008333333333333,62.0,83.0
63,14.640625,15.032291666666666,66.0,85.0
64,15.140625,15.566666666666666,62.0,82.0
65,15.140625,15.576041666666667,66.0,84.0
66,15.640625,16.051041666666666,62.0,77.0
67,15.640625,16.051041666666666,66.0,83.0
68,14.640625,16.390625,55.0,80.0
69,14.640625,16.421875,43.0,75.0
70,16.140625,16.432291666666668,62.0,78.0
71,16.140625,16.446875,66.0,83.0
72,16.390625,16.515625,55.0,74.0
73,16.640625,17.014583333333334,60.0,80.0
74,16.640625,17.015625,64.0,84.0
75,17.140625,17.521875,60.0,81.0
76,17.140625,17.536458333333332,64.0,87.0
77,17.640625,17.995833333333334,60.0,78.0
78,17.640625,18.016666666666666,64.0,82.0
79,18.140625,18.464583333333334,60.0,80.0
80,18.140625,18.48645833333333,64.0,83.0
81,16.640625,18.664583333333333,48.0,81.0
82,16.640625,18.725,36.0,83.0
83,18.640625,18.979166666666668,62.0,81.0
84,18.640625,18.991666666666667,66.0,82.0
85,19.140625,19.491666666666667,62.0,82.0
86,19.140625,19.527083333333334,66.0,84.0
87,19.640625,19.959375,62.0,83.0
88,19.640625,20.039583333333333,66.0,84.0
89,18.640625,20.390625,50.0,79.0
90,20.390625,20.515625,50.0,74.0
91,20.140625,20.544791666666665,62.0,86.0
92,18.640625,20.588541666666668,38.0,82.0
93,20.140625,20.589583333333334,66.0,84.0
94,20.640625,20.895833333333332,71.0,87.0
95,20.640625,20.910416666666666,62.0,88.0
96,20.640625,20.933333333333334,67.0,88.0
97,21.140625,21.48125,71.0,83.0
98,21.140625,21.508333333333333,62.0,80.0
99,21.140625,21.538541666666667,67.0,83.0
100,21.640625,21.959375,71.0,81.0
101,21.640625,21.980208333333334,62.0,84.0
102,21.640625,22.058333333333334,67.0,83.0
103,20.640625,22.390625,55.0,87.0
104,22.140625,22.434375,71.0,82.0
105,20.640625,22.45,43.0,87.0
106,22.140625,22.495833333333334,62.0,82.0
107,22.390625,22.515625,55.0,68.0
108,22.140625,22.544791666666665,67.0,81.0
109,22.640625,23.008333333333333,62.0,83.0
110,22.640625,23.032291666666666,66.0,85.0
111,23.140625,23.566666666666666,62.0,82.0
112,23.140625,23.576041666666665,66.0,84.0
113,23.640625,24.051041666666666,62.0,77.0
114,23.640625,24.051041666666666,66.0,83.0
115,22.640625,24.390625,55.0,80.0
116,22.640625,24.421875,43.0,75.0
117,24.140625,24.432291666666668,62.0,78.0
118,24.140625,24.446875,66.0,83.0
119,24.390625,24.640625,55.0,78.0
120,24.640625,25.014583333333334,60.0,80.0
121,24.640625,25.015625,64.0,84.0
122,25.140625,25.521875,60.0,81.0
123,25.140625,25.536458333333332,64.0,87.0
124,25.640625,25.995833333333334,60.0,78.0
125,25.640625,26.016666666666666,64.0,82.0
126,26.140625,26.464583333333334,60.0,80.0
127,26.140625,26.48645833333333,64.0,83.0
128,24.640625,26.640625,48.0,81.0
129,24.640625,26.724999999999998,36.0,83.0
130,26.640625,26.979166666666668,62.0,81.0
131,26.640625,26.991666666666667,66.0,82.0
132,27.140625,27.491666666666667,62.0,82.0
133,27.140625,27.527083333333334,66.0,84.0
134,27.640625,27.959374999999998,62.0,83.0
135,27.640625,28.039583333333333,66.0,84.0
136,26.640625,28.265625,50.0,79.0
137,28.140625,28.544791666666665,62.0,86.0
138,26.640625,28.588541666666668,38.0,82.0
139,28.140625,28.589583333333334,66.0,84.0
140,28.390625,28.640625,50.0,70.0
141,28.640625,28.932291666666668,71.0,82.0
142,28.640625,28.989583333333332,62.0,83.0
143,28.640625,28.989583333333332,67.0,83.0
144,29.140625,29.459374999999998,71.0,83.0
145,29.140625,29.496875,62.0,81.0
146,29.140625,29.520833333333332,67.0,83.0
147,29.640625,29.957291666666666,71.0,81.0
148,29.640625,29.992708333333333,62.0,83.0
149,29.640625,30.03333333333333,67.0,84.0
150,28.640625,30.164583333333333,55.0,78.0
151,28.640625,30.192708333333332,43.0,81.0
152,30.140625,30.438541666666666,71.0,80.0
153,30.140625,30.503125,67.0,83.0
154,30.140625,30.510416666666668,62.0,84.0
155,30.390625,30.515625,55.0,77.0
156,30.640625,30.976041666666667,62.0,87.0
157,30.640625,31.022916666666667,66.0,86.0
158,31.140625,31.492708333333333,62.0,84.0
159,31.140625,31.551041666666666,66.0,85.0
160,31.640625,31.9625,62.0,86.0
161,31.640625,32.03854166666667,66.0,84.0
162,30.640625,32.192708333333336,54.0,81.0
163,30.640625,32.21875,42.0,73.0
164,32.140625,32.31041666666667,62.0,87.0
165,32.140625,32.33125,66.0,86.0
166,32.390625,32.640625,54.0,84.0
167,32.640625,32.905208333333334,67.0,78.0
168,32.640625,32.97708333333333,60.0,75.0
169,32.640625,32.990625,64.0,76.0
170,33.140625,33.452083333333334,67.0,38.0
171,33.140625,33.503125,60.0,76.0
172,33.140625,33.57083333333333,64.0,79.0
173,33.640625,34.020833333333336,67.0,82.0
174,33.640625,34.03541666666666,60.0,77.0
175,33.640625,34.05104166666666,64.0,79.0
176,32.640625,34.24583333333333,48.0,77.0
177,32.640625,34.29375,36.0,77.0
178,34.140625,34.327083333333334,67.0,81.0
179,34.140625,34.3375,60.0,80.0
180,34.140625,34.36145833333333,64.0,83.0
181,34.640625,34.96875,69.0,74.0
182,34.640625,35.026041666666664,62.0,78.0
183,34.640625,35.03541666666666,66.0,81.0
184,35.140625,35.41979166666667,69.0,74.0
185,35.140625,35.49791666666667,62.0,75.0
186,35.140625,35.54270833333333,66.0,75.0
187,35.640625,35.925,69.0,82.0
188,35.640625,35.958333333333336,62.0,77.0
189,35.640625,36.03333333333333,66.0,78.0
190,34.640625,36.265625,50.0,81.0
191,36.140625,36.446875,69.0,83.0
192,36.140625,36.465625,62.0,81.0
193,36.140625,36.48125,66.0,79.0
194,34.640625,36.48854166666666,38.0,80.0
195,36.390625,36.640625,50.0,72.0
196,36.640625,36.921875,71.0,82.0
197,36.640625,36.934375,67.0,74.0
198,36.640625,36.946875,62.0,80.0
199,37.140625,37.48645833333333,62.0,76.0
200,37.140625,37.503125,71.0,77.0
201,37.140625,37.53958333333333,67.0,78.0
202,37.640625,37.98854166666666,71.0,80.0
203,37.640625,37.99583333333333,62.0,80.0
204,37.640625,38.020833333333336,67.0,80.0
205,36.640625,38.177083333333336,55.0,77.0
206,36.640625,38.20625,43.0,77.0
207,38.140625,38.440625,71.0,80.0
208,38.140625,38.48125,62.0,80.0
209,38.140625,38.49270833333333,67.0,82.0
210,38.640625,38.98125,66.0,82.0
211,38.640625,38.98229166666667,62.0,78.0
212,38.640625,38.9875,69.0,84.0
213,39.140625,39.432291666666664,69.0,76.0
214,39.140625,39.43958333333333,62.0,75.0
215,39.140625,39.43958333333333,66.0,81.0
216,39.640625,39.91041666666666,62.0,75.0
217,39.640625,39.92604166666666,69.0,75.0
218,39.640625,39.94895833333333,66.0,80.0
219,38.640625,40.083333333333336,54.0,78.0
220,38.640625,40.16354166666667,42.0,75.0
221,40.140625,40.346875,69.0,80.0
222,40.140625,40.35208333333333,66.0,81.0
223,40.140625,40.39895833333333,62.0,80.0
224,40.640625,40.90416666666667,67.0,80.0
225,40.640625,40.93020833333333,64.0,83.0
226,40.640625,40.93958333333333,60.0,79.0
227,41.140625,41.39270833333333,67.0,76.0
228,41.140625,41.458333333333336,64.0,78.0
229,41.140625,41.479166666666664,60.0,74.0
230,41.640625,41.92916666666667,67.0,80.0
231,41.640625,41.94583333333333,60.0,76.0
232,41.640625,41.99166666666667,64.0,81.0
233,40.765625,42.19375,36.0,79.0
234,40.765625,42.266666666666666,48.0,75.0
235,42.140625,42.32083333333333,67.0,75.0
236,42.140625,42.321875,60.0,76.0
237,42.140625,42.3875,64.0,78.0
238,42.640625,42.91770833333333,69.0,77.0
239,42.640625,42.92395833333333,62.0,78.0
240,42.640625,42.98645833333333,66.0,83.0
241,43.140625,43.41770833333333,69.0,78.0
242,43.140625,43.432291666666664,62.0,76.0
243,43.140625,43.503125,66.0,81.0
244,43.640625,43.89479166666666,69.0,76.0
245,43.640625,43.921875,62.0,75.0
246,43.640625,43.94895833333333,66.0,80.0
247,42.640625,43.984375,38.0,75.0
248,42.640625,44.028125,50.0,71.0
249,44.140625,44.290625,62.0,79.0
250,44.140625,44.313541666666666,69.0,76.0
251,44.140625,44.33125,66.0,83.0
252,44.640625,44.946875,67.0,81.0
253,44.640625,44.98125,60.0,77.0
254,44.640625,44.99166666666667,64.0,84.0
255,45.140625,45.41875,64.0,80.0
256,45.140625,45.53854166666667,67.0,77.0
257,45.140625,45.54375,60.0,76.0
258,45.640625,45.95625,60.0,68.0
259,45.640625,45.969791666666666,64.0,73.0
260,45.640625,45.98645833333333,67.0,80.0
261,46.140625,46.26770833333333,60.0,65.0
262,46.140625,46.469791666666666,64.0,76.0
263,46.140625,46.47291666666666,67.0,79.0
264,44.640625,46.670833333333334,48.0,81.0
265,46.640625,46.95104166666667,69.0,87.0
266,46.640625,46.963541666666664,62.0,84.0
267,46.640625,46.98020833333333,66.0,83.0
268,47.140625,47.46041666666667,69.0,82.0
269,47.140625,47.469791666666666,62.0,80.0
270,47.140625,47.47604166666667,66.0,81.0
271,47.640625,47.93020833333333,69.0,79.0
272,47.640625,47.969791666666666,62.0,81.0
273,47.640625,47.97604166666667,66.0,83.0
274,46.640625,48.22083333333333,59.0,42.0
275,46.640625,48.28125,47.0,71.0
276,48.140625,48.3,69.0,78.0
277,48.140625,48.333333333333336,66.0,83.0
278,48.140625,48.34791666666666,62.0,81.0
279,48.640625,48.94583333333333,67.0,83.0
280,48.640625,48.953125,64.0,82.0
281,48.640625,48.958333333333336,60.0,81.0
282,49.140625,49.44895833333333,67.0,74.0
283,49.140625,49.45,64.0,76.0
284,49.140625,49.452083333333334,60.0,74.0
285,49.640625,49.9,60.0,73.0
286,49.640625,49.922916666666666,67.0,76.0
287,49.640625,49.9375,64.0,80.0
288,50.140625,50.24270833333333,60.0,78.0
289,50.140625,50.275,67.0,81.0
290,50.140625,50.307291666666664,64.0,86.0
291,48.640625,50.427083333333336,57.0,81.0
292,48.640625,50.45520833333333,45.0,83.0
293,50.640625,52.00625,59.0,90.0
294,50.640625,52.02395833333333,47.0,90.0
295,50.640625,52.08125,63.0,103.0
296,50.640625,52.08541666666667,66.0,91.0
297,52.640625,53.266666666666666,67.0,87.0
298,52.640625,53.26875,60.0,82.0
299,52.640625,53.31979166666667,64.0,87.0
300,52.640625,53.35,48.0,87.0
301,53.640625,54.99270833333333,50.0,88.0
302,53.640625,55.012499999999996,66.0,87.0
303,53.640625,55.015625,69.0,87.0
304,53.640625,55.01875,62.0,87.0
305,57.390625,57.746874999999996,59.0,81.0
306,57.140625,58.33541666666667,55.0,81.0
307,56.640625,58.37083333333333,43.0,102.0
308,58.390625,58.697916666666664,59.0,81.0
309,56.890625,58.69895833333333,50.0,80.0
310,57.640625,58.699999999999996,67.0,102.0
311,58.140625,58.72708333333333,62.0,84.0
312,59.390625,59.72083333333333,57.0,85.0
313,59.140625,59.723958333333336,54.0,83.0
314,58.640625,60.01145833333333,42.0,85.0
315,58.890625,60.09583333333333,50.0,78.0
316,59.765625,60.16458333333333,54.0,84.0
317,60.015625,60.39375,57.0,86.0
318,59.640625,60.440625,66.0,113.0
319,60.390625,60.71666666666667,62.0,86.0
320,60.640625,60.84583333333333,64.0,86.0
321,61.390625,61.94583333333333,67.0,80.0
322,61.140625,62.12708333333333,64.0,83.0
323,60.640625,62.278124999999996,52.0,86.0
324,61.640625,62.52916666666667,76.0,85.0
325,62.140625,62.56666666666666,71.0,85.0
326,60.890625,62.623958333333334,59.0,72.0
327,62.390625,62.795833333333334,67.0,83.0
328,63.390625,64.02916666666667,62.0,84.0
329,63.890625,64.16145833333333,69.0,110.0
330,64.140625,64.23958333333333,66.0,78.0
331,64.390625,64.65208333333334,69.0,87.0
332,62.640625,64.678125,50.0,77.0
333,64.640625,65.04791666666667,72.0,87.0
334,64.640625,65.384375,64.0,85.0
335,65.390625,65.7625,60.0,80.0
336,65.640625,65.92291666666667,67.0,107.0
337,65.640625,66.02291666666666,62.0,98.0
338,65.890625,66.18333333333334,64.0,74.0
339,64.640625,66.56666666666666,48.0,83.0
340,66.265625,66.59895833333333,67.0,69.0
341,67.140625,67.715625,55.0,84.0
342,66.640625,68.36875,43.0,91.0
343,68.015625,68.40833333333333,59.0,86.0
344,67.765625,68.521875,55.0,86.0
345,68.265625,68.58541666666666,62.0,89.0
346,67.640625,68.62916666666666,67.0,110.0
347,66.890625,68.640625,50.0,77.0
348,69.390625,69.53645833333333,60.0,89.0
349,69.140625,69.69166666666666,57.0,88.0
350,69.640625,70.15833333333333,69.0,116.0
351,68.640625,70.22395833333333,45.0,88.0
352,68.890625,70.27083333333333,52.0,78.0
353,70.140625,70.509375,64.0,107.0
354,69.890625,70.64791666666666,57.0,98.0
355,70.390625,70.77916666666667,69.0,91.0
356,70.640625,70.85,62.0,85.0
357,70.640625,71.0375,66.0,86.0
358,71.140625,71.69791666666667,62.0,88.0
359,71.640625,71.96979166666667,74.0,110.0
360,71.640625,71.97708333333333,66.0,106.0
361,70.640625,72.17395833333333,50.0,87.0
362,70.890625,72.19895833333334,57.0,77.0
363,72.140625,72.5625,69.0,96.0
364,71.890625,72.62395833333333,62.0,93.0
365,72.390625,72.834375,74.0,93.0
366,72.640625,73.15,67.0,84.0
367,72.640625,73.28333333333333,71.0,88.0
368,73.390625,73.55833333333334,69.0,84.0
369,73.140625,73.653125,62.0,77.0
370,73.640625,74.1125,74.0,110.0
371,72.640625,74.13854166666667,55.0,82.0
372,74.140625,74.38645833333334,67.0,89.0
373,73.890625,74.65625,62.0,86.0
374,74.390625,74.67916666666666,69.0,85.0
375,75.140625,75.46041666666666,66.0,81.0
376,75.640625,75.83541666666666,66.0,90.0
377,75.015625,75.86979166666667,62.0,32.0
378,75.390625,75.94791666666667,78.0,119.0
379,74.640625,76.078125,54.0,84.0
380,75.890625,76.39479166666666,74.0,107.0
381,76.390625,76.5,69.0,83.0
382,76.640625,77.20729166666666,71.0,98.0
383,76.640625,77.21458333333334,67.0,89.0
384,77.390625,77.503125,67.0,86.0
385,77.140625,77.61458333333333,64.0,81.0
386,77.640625,77.946875,71.0,108.0
387,77.890625,78.06458333333333,64.0,86.0
388,76.890625,78.14270833333333,59.0,78.0
389,76.640625,78.19479166666666,52.0,84.0
390,78.265625,78.378125,71.0,83.0
391,78.140625,78.42708333333333,67.0,92.0
392,78.640625,79.34583333333333,66.0,87.0
393,78.640625,79.38229166666666,69.0,89.0
394,79.640625,79.97083333333333,64.0,107.0
395,79.390625,80.053125,57.0,81.0
396,78.640625,80.540625,50.0,81.0
397,79.890625,80.60520833333334,69.0,117.0
398,80.640625,81.0625,67.0,96.0
399,80.640625,81.10208333333333,64.0,88.0
400,81.390625,81.95729166666666,60.0,78.0
401,81.640625,82.090625,67.0,94.0
402,80.640625,82.109375,48.0,83.0
403,81.140625,82.11979166666667,55.0,66.0
404,81.640625,82.17395833333333,62.0,100.0
405,82.015625,82.38958333333333,64.0,77.0
406,82.390625,82.49375,67.0,69.0
407,82.515625,83.08645833333333,62.0,84.0
408,82.515625,83.21666666666667,66.0,86.0
409,83.640625,83.92395833333333,69.0,110.0
410,83.390625,84.01041666666667,59.0,81.0
411,83.140625,84.109375,54.0,74.0
412,83.640625,84.14895833333333,62.0,108.0
413,82.640625,84.159375,47.0,80.0
414,83.890625,84.17395833333333,66.0,78.0
415,84.140625,84.52708333333334,69.0,86.0
416,84.640625,86.23125,43.0,87.0
417,85.140625,86.41770833333334,50.0,38.0
418,85.390625,86.50625,55.0,86.0
419,86.015625,86.56145833333333,62.0,84.0
420,86.390625,86.628125,59.0,86.0
421,85.640625,86.73229166666667,67.0,110.0
422,86.640625,87.209375,64.0,84.0
423,86.640625,87.28645833333333,57.0,80.0
424,86.640625,87.434375,45.0,84.0
425,86.640625,87.5375,60.0,84.0
426,87.640625,88.1875,47.0,88.0
427,87.640625,88.44895833333334,66.0,86.0
428,87.640625,88.50520833333333,62.0,89.0
429,87.640625,88.665625,59.0,83.0
430,88.640625,89.12708333333333,71.0,88.0
431,88.640625,89.48125,64.0,87.0
432,89.140625,89.77083333333333,59.0,78.0
433,89.390625,89.928125,67.0,91.0
434,88.640625,90.13958333333333,52.0,87.0
435,89.890625,90.40104166666667,71.0,88.0
436,90.640625,91.38125,62.0,88.0
437,90.640625,91.521875,66.0,88.0
438,90.640625,91.546875,69.0,89.0
439,90.640625,91.665625,54.0,82.0
440,92.515625,92.64583333333333,62.0,89.0
441,92.390625,93.31145833333333,59.0,76.0
442,92.515625,93.45104166666667,43.0,87.0
443,92.640625,93.45520833333333,67.0,108.0
444,93.640625,94.27395833333333,44.0,73.0
445,93.640625,94.2875,56.0,89.0
446,93.640625,94.34791666666666,59.0,89.0
447,93.640625,94.37395833333333,68.0,103.0
448,94.390625,94.48020833333334,62.0,38.0
449,94.515625,94.69895833333334,64.0,80.0
450,94.390625,95.18958333333333,60.0,78.0
451,94.640625,95.30833333333334,69.0,108.0
452,94.640625,96.15625,45.0,86.0
453,95.640625,96.18229166666667,60.0,90.0
454,95.140625,96.2,52.0,70.0
455,95.640625,96.37291666666667,69.0,91.0
456,96.140625,96.59270833333333,64.0,84.0
457,95.390625,96.64791666666666,57.0,80.0
458,96.640625,97.19895833333334,64.0,92.0
459,96.640625,97.209375,67.0,102.0
460,96.640625,97.24270833333333,72.0,94.0
461,97.640625,98.17083333333333,64.0,93.0
462,97.640625,98.22395833333333,67.0,100.0
463,97.640625,98.25416666666666,72.0,89.0
464,98.640625,99.07291666666667,72.0,86.0
465,98.640625,99.096875,64.0,81.0
466,98.640625,99.184375,67.0,78.0
467,99.640625,99.93854166666667,64.0,98.0
468,99.890625,100.16875,67.0,88.0
469,96.640625,100.19895833333334,48.0,90.0
470,99.390625,100.209375,60.0,83.0
471,98.140625,100.26145833333334,55.0,66.0
472,100.140625,100.575,72.0,88.0
473,100.640625,101.39166666666667,62.0,87.0
474,100.640625,101.48645833333333,69.0,88.0
475,100.640625,101.49375,66.0,86.0
476,101.890625,102.01354166666667,62.0,89.0
477,101.390625,102.36979166666667,57.0,84.0
478,102.140625,102.41770833333334,67.0,113.0
479,102.640625,103.2875,57.0,83.0
480,102.640625,103.71875,62.0,87.0
481,102.390625,103.77499999999999,69.0,102.0
482,102.640625,103.78229166666667,66.0,86.0
483,103.890625,104.35729166666667,62.0,98.0
484,103.640625,104.41458333333333,57.0,86.0
485,100.640625,104.503125,50.0,87.0
486,104.140625,104.50625,69.0,110.0
487,105.140625,105.74791666666667,67.0,79.0
488,105.890625,106.21875,67.0,79.0
489,104.640625,106.2875,55.0,88.0
490,104.890625,106.58229166666666,62.0,69.0
491,105.390625,106.61458333333333,79.0,90.0
492,106.390625,106.88437499999999,71.0,83.0
493,106.140625,106.95416666666667,74.0,84.0
494,107.140625,107.64270833333333,66.0,80.0
495,106.765625,108.09791666666666,62.0,86.0
496,107.890625,108.13333333333333,66.0,81.0
497,107.390625,108.16562499999999,78.0,95.0
498,106.640625,108.31979166666666,54.0,85.0
499,108.140625,108.590625,74.0,81.0
500,108.390625,108.72395833333333,69.0,81.0
501,108.640625,109.52083333333333,76.0,86.0
502,109.390625,109.72812499999999,67.0,81.0
503,109.640625,110.14375,71.0,91.0
504,109.140625,110.21979166666667,64.0,82.0
505,108.890625,110.23958333333333,59.0,77.0
506,108.640625,110.28333333333333,52.0,81.0
507,110.390625,110.80520833333333,71.0,89.0
508,110.140625,111.04895833333333,76.0,92.0
509,111.140625,111.72291666666666,62.0,86.0
510,111.390625,111.88854166666667,74.0,93.0
511,111.640625,111.99270833333333,69.0,83.0
512,111.890625,112.33645833333333,62.0,86.0
513,110.890625,112.39583333333333,57.0,73.0
514,112.140625,112.40416666666667,66.0,87.0
515,110.640625,112.47916666666667,50.0,84.0
516,113.140625,113.96770833333333,67.0,80.0
517,112.515625,114.046875,55.0,86.0
518,112.890625,114.05520833333333,62.0,74.0
519,113.890625,114.26458333333333,74.0,85.0
520,113.390625,114.57291666666667,79.0,88.0
521,114.140625,114.70208333333333,71.0,75.0
522,114.390625,114.91354166666666,74.0,86.0
523,115.390625,115.74895833333333,62.0,81.0
524,114.640625,116.13645833333334,47.0,85.0
525,115.890625,116.24270833333333,66.0,70.0
526,114.890625,116.24791666666667,54.0,75.0
527,115.140625,116.25729166666666,59.0,87.0
528,116.140625,116.54375,62.0,79.0
529,116.390625,116.68958333333333,66.0,85.0
530,115.640625,116.83020833333333,71.0,87.0
531,117.390625,117.940625,66.0,81.0
532,116.640625,118.17083333333333,50.0,87.0
533,117.140625,118.175,62.0,88.0
534,117.890625,118.17708333333333,69.0,87.0
535,116.890625,118.22604166666666,57.0,84.0
536,118.140625,118.61666666666666,66.0,84.0
537,117.640625,118.69270833333333,74.0,88.0
538,118.390625,118.73854166666666,69.0,86.0
539,119.390625,119.89895833333333,67.0,86.0
540,119.640625,120.10833333333333,76.0,94.0
541,119.890625,120.12708333333333,62.0,94.0
542,119.890625,120.2,71.0,89.0
543,119.140625,120.23229166666667,64.0,86.0
544,118.890625,120.26458333333333,59.0,79.0
545,120.140625,120.334375,67.0,92.0
546,120.140625,120.334375,67.0,94.0
547,118.640625,120.33749999999999,52.0,87.0
548,121.140625,121.69583333333333,67.0,83.0
549,121.890625,122.20520833333333,67.0,76.0
550,121.390625,122.30104166666666,79.0,98.0
551,120.640625,122.36354166666666,55.0,82.0
552,120.765625,122.54062499999999,62.0,81.0
553,122.015625,122.61979166666667,74.0,85.0
554,122.265625,122.6625,71.0,87.0
555,123.140625,123.80104166666666,66.0,82.0
556,122.890625,123.89270833333333,62.0,74.0
557,123.640625,123.89791666666666,74.0,86.0
558,122.640625,124.09479166666667,54.0,83.0
559,123.390625,124.81041666666667,78.0,87.0
560,123.890625,124.85208333333333,69.0,85.0
561,124.390625,125.35104166666666,74.0,83.0
562,125.640625,125.94895833333334,71.0,86.0
563,125.140625,125.99791666666667,64.0,80.0
564,124.890625,126.06770833333333,59.0,68.0
565,124.640625,126.16458333333333,52.0,81.0
566,125.890625,126.32187499999999,67.0,84.0
567,126.140625,126.54895833333333,71.0,85.0
568,125.390625,126.89270833333333,76.0,87.0
569,127.890625,128.17083333333332,69.0,87.0
570,127.265625,128.41979166666667,57.0,38.0
571,127.390625,128.43125,66.0,85.0
572,126.890625,128.440625,62.0,85.0
573,126.640625,128.48333333333332,50.0,82.0
574,128.140625,128.55,74.0,88.0
575,128.390625,128.56979166666667,69.0,83.0
576,129.140625,129.96458333333334,67.0,73.0
577,128.890625,130.03229166666665,62.0,80.0
578,128.640625,130.14791666666667,55.0,86.0
579,129.890625,130.19583333333333,71.0,79.0
580,129.390625,130.60625,74.0,88.0
581,130.390625,130.69270833333334,71.0,84.0
582,130.140625,130.74895833333332,67.0,84.0
583,131.265625,131.87708333333333,62.0,78.0
584,130.640625,132.09479166666665,47.0,79.0
585,131.140625,132.228125,59.0,83.0
586,131.890625,132.23333333333332,66.0,85.0
587,130.890625,132.23854166666666,54.0,78.0
588,132.140625,132.690625,62.0,83.0
589,131.640625,132.875,71.0,91.0
590,133.390625,133.78125,67.0,84.0
591,133.640625,134.1625,71.0,89.0
592,133.140625,134.34583333333333,64.0,86.0
593,132.890625,134.39270833333333,59.0,80.0
594,132.640625,134.44166666666666,52.0,87.0
595,134.140625,134.48333333333332,74.0,85.0
596,134.640625,135.68229166666666,59.0,89.0
597,134.640625,135.85833333333332,66.0,91.0
598,134.640625,135.8625,63.0,95.0
599,136.140625,136.58645833333333,63.0,93.0
600,135.890625,136.5875,59.0,87.0
601,134.640625,136.60833333333332,47.0,83.0
602,136.390625,136.63645833333334,66.0,87.0
603,136.640625,137.35,60.0,89.0
604,136.640625,137.38645833333334,64.0,94.0
605,136.640625,137.390625,67.0,93.0
606,136.640625,137.41666666666666,48.0,88.0
607,137.640625,139.596875,62.0,89.0
608,137.640625,139.60416666666666,69.0,98.0
609,137.640625,139.60729166666667,66.0,100.0
610,137.640625,139.66770833333334,50.0,89.0
611,141.390625,141.746875,59.0,81.0
612,141.140625,142.33541666666667,55.0,81.0
613,140.640625,142.37083333333334,43.0,102.0
614,142.390625,142.69791666666666,59.0,81.0
615,140.890625,142.69895833333334,50.0,80.0
616,141.640625,142.7,67.0,102.0
617,142.140625,142.72708333333333,62.0,84.0
618,143.390625,143.72083333333333,57.0,85.0
619,143.140625,143.72395833333334,54.0,83.0
620,142.640625,144.01145833333334,42.0,85.0
621,142.890625,144.09583333333333,50.0,78.0
622,143.765625,144.16458333333333,54.0,84.0
623,144.015625,144.39375,57.0,86.0
624,143.640625,144.440625,66.0,113.0
625,144.390625,144.71666666666667,62.0,86.0
626,144.640625,144.84583333333333,64.0,86.0
627,145.390625,145.94583333333333,67.0,80.0
628,145.140625,146.12708333333333,64.0,83.0
629,144.640625,146.278125,52.0,86.0
630,145.640625,146.52916666666667,76.0,85.0
631,146.140625,146.56666666666666,71.0,85.0
632,144.890625,146.62395833333332,59.0,72.0
633,146.390625,146.79583333333332,67.0,83.0
634,147.390625,148.02916666666667,62.0,84.0
635,147.890625,148.16145833333334,69.0,110.0
636,148.140625,148.23958333333334,66.0,78.0
637,148.390625,148.65208333333334,69.0,87.0
638,146.640625,148.678125,50.0,77.0
639,148.640625,149.04791666666665,72.0,87.0
640,148.640625,149.384375,64.0,85.0
641,149.390625,149.7625,60.0,80.0
642,149.640625,149.92291666666665,67.0,107.0
643,149.640625,150.02291666666667,62.0,98.0
644,149.890625,150.18333333333334,64.0,74.0
645,148.640625,150.56666666666666,48.0,83.0
646,150.265625,150.59895833333334,67.0,69.0
647,151.140625,151.715625,55.0,84.0
648,150.640625,152.36875,43.0,91.0
649,152.015625,152.40833333333333,59.0,86.0
650,151.765625,152.521875,55.0,86.0
651,152.265625,152.58541666666667,62.0,89.0
652,151.640625,152.62916666666666,67.0,110.0
653,150.890625,152.640625,50.0,77.0
654,153.390625,153.53645833333334,60.0,89.0
655,153.140625,153.69166666666666,57.0,88.0
656,153.640625,154.15833333333333,69.0,116.0
657,152.640625,154.22395833333334,45.0,88.0
658,152.890625,154.27083333333334,52.0,78.0
659,154.140625,154.509375,64.0,107.0
660,153.890625,154.64791666666667,57.0,98.0
661,154.390625,154.77916666666667,69.0,91.0
662,154.640625,154.85,62.0,85.0
663,154.640625,155.0375,66.0,86.0
664,155.140625,155.69791666666666,62.0,88.0
665,155.640625,155.96979166666665,74.0,110.0
666,155.640625,155.97708333333333,66.0,106.0
667,154.640625,156.17395833333333,50.0,87.0
668,154.890625,156.19895833333334,57.0,77.0
669,156.140625,156.5625,69.0,96.0
670,155.890625,156.62395833333332,62.0,93.0
671,156.390625,156.834375,74.0,93.0
672,156.640625,157.15,67.0,84.0
673,156.640625,157.28333333333333,71.0,88.0
674,157.390625,157.55833333333334,69.0,84.0
675,157.140625,157.653125,62.0,77.0
676,157.640625,158.1125,74.0,110.0
677,156.640625,158.13854166666667,55.0,82.0
678,158.140625,158.38645833333334,67.0,89.0
679,157.890625,158.65625,62.0,86.0
680,158.390625,158.67916666666667,69.0,85.0
681,159.140625,159.46041666666667,66.0,81.0
682,159.640625,159.83541666666667,66.0,90.0
683,159.015625,159.86979166666666,62.0,32.0
684,159.390625,159.94791666666666,78.0,119.0
685,158.640625,160.078125,54.0,84.0
686,159.890625,160.39479166666666,74.0,107.0
687,160.390625,160.5,69.0,83.0
688,160.640625,161.20729166666666,71.0,98.0
689,160.640625,161.21458333333334,67.0,89.0
690,161.390625,161.503125,67.0,86.0
691,161.140625,161.61458333333334,64.0,81.0
692,161.640625,161.946875,71.0,108.0
693,161.890625,162.06458333333333,64.0,86.0
694,160.890625,162.14270833333333,59.0,78.0
695,160.640625,162.19479166666667,52.0,84.0
696,162.265625,162.378125,71.0,83.0
697,162.140625,162.42708333333334,67.0,92.0
698,162.640625,163.34583333333333,66.0,87.0
699,162.640625,163.38229166666667,69.0,89.0
700,163.640625,163.97083333333333,64.0,107.0
701,163.390625,164.053125,57.0,81.0
702,162.640625,164.540625,50.0,81.0
703,163.890625,164.60520833333334,69.0,117.0
704,164.640625,165.0625,67.0,96.0
705,164.640625,165.10208333333333,64.0,88.0
706,165.390625,165.95729166666666,60.0,78.0
707,165.640625,166.090625,67.0,94.0
708,164.640625,166.109375,48.0,83.0
709,165.140625,166.11979166666666,55.0,66.0
710,165.640625,166.17395833333333,62.0,100.0
711,166.015625,166.38958333333332,64.0,77.0
712,166.390625,166.49375,67.0,69.0
713,166.515625,167.08645833333333,62.0,84.0
714,166.515625,167.21666666666667,66.0,86.0
715,167.640625,167.92395833333333,69.0,110.0
716,167.390625,168.01041666666666,59.0,81.0
717,167.140625,168.109375,54.0,74.0
718,167.640625,168.14895833333333,62.0,108.0
719,166.640625,168.159375,47.0,80.0
720,167.890625,168.17395833333333,66.0,78.0
721,168.140625,168.52708333333334,69.0,86.0
722,168.640625,170.23125,43.0,87.0
723,169.140625,170.41770833333334,50.0,38.0
724,169.390625,170.50625,55.0,86.0
725,170.015625,170.56145833333332,62.0,84.0
726,170.390625,170.628125,59.0,86.0
727,169.640625,170.73229166666667,67.0,110.0
728,170.640625,171.209375,64.0,84.0
729,170.640625,171.28645833333334,57.0,80.0
730,170.640625,171.434375,45.0,84.0
731,170.640625,171.5375,60.0,84.0
732,171.640625,172.1875,47.0,88.0
733,171.640625,172.44895833333334,66.0,86.0
734,171.640625,172.50520833333334,63.0,89.0
735,171.640625,172.665625,59.0,83.0
736,172.640625,173.12708333333333,71.0,88.0
737,172.640625,173.48125,64.0,87.0
738,173.140625,173.77083333333334,59.0,78.0
739,173.390625,173.928125,67.0,91.0
740,172.640625,174.13958333333332,52.0,87.0
741,173.890625,174.40104166666666,71.0,88.0
742,174.640625,175.30208333333334,62.0,88.0
743,174.640625,175.32916666666665,69.0,94.0
744,174.640625,175.34166666666667,66.0,100.0
745,175.390625,175.753125,57.0,83.0
746,175.640625,176.03645833333334,62.0,108.0
747,175.640625,176.05208333333334,69.0,110.0
748,175.890625,176.24166666666667,57.0,88.0
749,174.640625,176.26770833333333,50.0,89.0
750,176.140625,176.27291666666667,62.0,84.0
751,176.140625,176.346875,66.0,113.0
752,176.640625,178.103125,62.0,86.0
753,176.640625,178.11770833333333,71.0,87.0
754,176.640625,178.1375,67.0,88.0
755,176.640625,178.2,55.0,81.0
756,176.640625,178.21354166666666,43.0,85.0
757,178.640625,179.871875,59.0,91.0
758,178.640625,179.99166666666667,63.0,93.0
759,178.640625,180.06875,66.0,88.0
760,180.015625,180.36666666666667,59.0,86.0
761,178.640625,180.38645833333334,47.0,88.0
762,180.265625,180.615625,63.0,103.0
763,180.515625,180.64375,66.0,78.0
764,180.640625,181.31354166666665,60.0,88.0
765,180.640625,181.36770833333333,67.0,87.0
766,180.640625,181.45520833333333,64.0,89.0
767,181.390625,181.765625,55.0,71.0
768,181.640625,182.16770833333334,60.0,93.0
769,181.640625,182.51666666666665,67.0,102.0
770,181.640625,182.665625,64.0,98.0
771,182.890625,183.33958333333334,60.0,84.0
772,182.890625,183.41354166666667,67.0,74.0
773,182.890625,183.44479166666667,64.0,83.0
774,183.640625,183.71979166666665,60.0,83.0
775,183.640625,184.37291666666667,67.0,89.0
776,180.640625,184.42291666666665,48.0,91.0
777,183.640625,184.54583333333332,64.0,94.0
778,183.390625,184.61979166666666,55.0,80.0
779,184.640625,185.64270833333333,62.0,88.0
780,184.640625,185.68958333333333,69.0,89.0
781,184.640625,185.79895833333333,66.0,87.0
782,185.515625,186.33958333333334,57.0,83.0
783,185.890625,186.36875,62.0,86.0
784,186.140625,186.3875,67.0,89.0
785,186.390625,186.53645833333334,62.0,72.0
786,186.390625,186.621875,69.0,87.0
787,186.640625,187.475,57.0,88.0
788,186.640625,187.728125,62.0,89.0
789,186.640625,187.77083333333334,69.0,84.0
790,186.640625,187.809375,66.0,103.0
791,187.640625,188.4,57.0,85.0
792,187.890625,188.4,62.0,88.0
793,188.140625,188.40520833333332,66.0,100.0
794,184.640625,188.41458333333333,50.0,85.0
795,188.640625,188.95833333333334,71.0,87.0
796,188.640625,189.00520833333334,67.0,85.0
797,188.640625,189.22083333333333,62.0,86.0
798,189.390625,190.17916666666667,55.0,81.0
799,188.640625,190.25729166666667,43.0,87.0
800,189.640625,190.27291666666667,59.0,87.0
801,189.640625,190.46666666666667,67.0,87.0
802,190.140625,190.56458333333333,62.0,84.0
803,189.140625,190.63854166666667,50.0,77.0
804,190.640625,191.334375,57.0,83.0
805,190.640625,191.378125,66.0,81.0
806,190.640625,192.02291666666667,42.0,77.0
807,191.765625,192.08125,57.0,82.0
808,191.265625,192.10416666666666,54.0,84.0
809,192.015625,192.240625,66.0,90.0
810,192.265625,192.92604166666666,67.0,89.0
811,192.640625,193.75,64.0,87.0
812,193.140625,194.12916666666666,59.0,77.0
813,193.640625,194.12916666666666,67.0,102.0
814,192.640625,194.15625,52.0,87.0
815,194.640625,195.27291666666667,62.0,78.0
816,194.140625,195.34791666666666,69.0,85.0
817,194.640625,195.35208333333333,66.0,84.0
818,195.640625,196.00625,62.0,110.0
819,195.390625,196.04166666666666,57.0,86.0
820,195.890625,196.13854166666667,66.0,116.0
821,196.140625,196.57916666666665,69.0,89.0
822,194.640625,196.61145833333333,50.0,80.0
823,196.640625,197.22916666666666,60.0,84.0
824,196.640625,197.2375,67.0,88.0
825,197.515625,198.06145833333332,67.0,89.0
826,197.515625,198.0875,60.0,91.0
827,196.640625,198.58333333333334,48.0,83.0
828,198.140625,198.60104166666667,69.0,88.0
829,198.640625,199.634375,59.0,87.0
830,198.640625,199.690625,67.0,88.0
831,199.890625,200.17395833333333,59.0,107.0
832,198.640625,200.25520833333334,43.0,83.0
833,200.140625,200.371875,62.0,110.0
834,199.640625,200.54375,55.0,84.0
835,200.390625,200.85416666666666,67.0,82.0
836,200.640625,201.37395833333332,64.0,92.0
837,200.640625,201.46979166666665,60.0,88.0
838,201.640625,201.84791666666666,60.0,107.0
839,201.140625,202.08229166666666,52.0,71.0
840,201.890625,202.12291666666667,64.0,114.0
841,200.640625,202.134375,45.0,83.0
842,201.390625,202.51875,57.0,89.0
843,202.640625,202.88125,62.0,88.0
844,202.640625,202.959375,69.0,89.0
845,202.640625,202.97604166666667,66.0,90.0
846,203.390625,203.70104166666667,62.0,93.0
847,203.640625,203.89166666666665,74.0,94.0
848,203.640625,203.91770833333334,66.0,116.0
849,202.640625,204.234375,50.0,86.0
850,203.140625,204.30625,57.0,80.0
851,203.890625,204.503125,62.0,107.0
852,204.390625,204.578125,74.0,96.0
853,204.140625,204.59166666666667,69.0,107.0
854,204.640625,205.17395833333333,74.0,89.0
855,204.640625,205.25,67.0,91.0
856,204.640625,205.35416666666666,71.0,94.0
857,205.640625,205.93125,67.0,96.0
858,205.890625,206.03541666666666,69.0,89.0
859,204.640625,206.12812499999998,55.0,87.0
860,205.390625,206.14270833333333,62.0,87.0
861,206.140625,206.41354166666667,71.0,108.0
862,206.390625,206.56458333333333,74.0,91.0
863,206.640625,207.23854166666666,66.0,90.0
864,206.640625,207.39479166666666,74.0,89.0
865,206.640625,207.41354166666667,69.0,98.0
866,207.390625,207.671875,66.0,100.0
867,207.640625,207.94479166666667,74.0,110.0
868,207.640625,207.95416666666665,69.0,116.0
869,207.890625,208.05625,66.0,113.0
870,206.640625,208.10520833333334,54.0,82.0
871,208.140625,208.37708333333333,71.0,117.0
872,208.640625,209.21145833333333,64.0,88.0
873,208.640625,209.35729166666667,67.0,93.0
874,208.640625,209.41875,71.0,96.0
875,208.390625,209.43645833333332,74.0,98.0
876,208.640625,209.96145833333333,52.0,86.0
877,209.390625,209.98020833333334,64.0,87.0
878,209.640625,210.234375,67.0,110.0
879,209.640625,210.23854166666666,74.0,94.0
880,210.140625,210.53125,52.0,83.0
881,210.640625,211.15416666666667,62.0,96.0
882,210.640625,211.33854166666666,69.0,108.0
883,210.640625,211.34687499999998,66.0,103.0
884,211.390625,211.67291666666665,59.0,100.0
885,211.140625,211.71875,54.0,74.0
886,211.640625,211.95,69.0,113.0
887,211.640625,211.95104166666667,62.0,114.0
888,210.640625,212.16875,47.0,90.0
889,211.890625,212.25729166666667,59.0,113.0
890,212.140625,212.41041666666666,62.0,100.0
891,212.140625,212.48541666666665,66.0,109.0
892,212.140625,212.49375,69.0,93.0
893,212.640625,213.23541666666665,71.0,100.0
894,212.640625,213.3375,67.0,107.0
895,212.640625,213.33854166666666,64.0,92.0
896,213.390625,213.665625,60.0,87.0
897,213.640625,213.92499999999998,67.0,116.0
898,213.640625,214.08645833333333,64.0,116.0
899,213.015625,214.125,55.0,80.0
900,213.890625,214.13541666666666,60.0,88.0
901,212.640625,214.265625,48.0,102.0
902,214.140625,214.47187499999998,67.0,100.0
903,215.140625,215.65520833333332,55.0,89.0
904,215.640625,215.93854166666665,59.0,110.0
905,215.640625,215.95,67.0,110.0
906,214.640625,216.15937499999998,43.0,94.0
907,215.890625,216.28854166666667,55.0,100.0
908,216.140625,216.30833333333334,62.0,113.0
909,216.140625,216.353125,67.0,93.0
910,216.640625,217.17395833333333,60.0,98.0
911,216.640625,217.25520833333334,69.0,93.0
912,216.640625,217.39374999999998,64.0,110.0
913,217.390625,217.70208333333332,57.0,102.0
914,217.640625,217.92604166666666,60.0,113.0
915,217.640625,217.93229166666666,69.0,107.0
916,216.640625,218.17291666666665,45.0,90.0
917,217.890625,218.30208333333334,57.0,102.0
918,218.140625,218.446875,64.0,114.0
919,218.390625,218.57395833333334,69.0,91.0
920,218.640625,219.25,62.0,93.0
921,218.640625,219.33958333333334,69.0,88.0
922,218.640625,219.40937499999998,66.0,106.0
923,219.765625,220.15729166666665,64.0,110.0
924,220.015625,220.47604166666667,66.0,91.0
925,219.390625,220.58854166666666,57.0,87.0
926,218.640625,220.80208333333334,50.0,86.0
927,220.390625,222.40937499999998,69.0,88.0
928,222.640625,223.83541666666667,67.0,87.0
929,222.640625,223.91041666666666,62.0,87.0
930,224.140625,224.48749999999998,62.0,83.0
931,222.640625,224.546875,55.0,86.0
932,224.390625,224.621875,67.0,81.0
933,224.640625,225.89166666666665,66.0,83.0
934,224.640625,225.92395833333333,62.0,83.0
935,224.640625,226.61979166666666,54.0,83.0
936,226.640625,226.90104166666666,67.0,80.0
937,226.640625,226.90833333333333,64.0,77.0
938,226.640625,226.93125,60.0,76.0
939,227.140625,227.36354166666666,67.0,75.0
940,227.140625,227.39479166666666,64.0,76.0
941,227.140625,227.43854166666665,60.0,72.0
942,227.640625,227.86666666666667,67.0,77.0
943,227.640625,227.89166666666665,60.0,78.0
944,227.640625,227.96666666666667,64.0,80.0
945,228.140625,228.28229166666665,60.0,71.0
946,226.640625,228.31145833333332,48.0,73.0
947,228.140625,228.371875,67.0,76.0
948,228.140625,228.52395833333333,64.0,73.0
949,228.640625,228.96875,62.0,81.0
950,228.640625,228.98229166666667,66.0,81.0
951,229.140625,229.47916666666666,62.0,77.0
952,229.140625,229.48854166666666,66.0,79.0
953,229.640625,229.93229166666666,62.0,77.0
954,229.640625,229.93229166666666,66.0,81.0
955,230.140625,230.30520833333333,62.0,77.0
956,230.140625,230.31875,66.0,82.0
957,228.640625,230.56458333333333,50.0,72.0
958,230.640625,230.928125,67.0,85.0
959,230.640625,230.96666666666667,59.0,82.0
960,231.140625,231.40833333333333,67.0,77.0
961,231.140625,231.465625,59.0,77.0
962,231.640625,231.825,67.0,73.0
963,231.640625,231.93854166666665,59.0,79.0
964,232.140625,232.42395833333333,59.0,78.0
965,232.140625,232.44479166666667,67.0,80.0
966,230.640625,232.5,55.0,68.0
967,232.515625,232.86666666666667,66.0,80.0
968,232.640625,232.95729166666666,62.0,76.0
969,233.015625,233.321875,66.0,78.0
970,233.140625,233.4625,62.0,80.0
971,233.640625,233.92395833333333,66.0,76.0
972,233.640625,233.93854166666665,62.0,79.0
973,234.140625,234.34583333333333,66.0,83.0
974,234.140625,234.60208333333333,62.0,88.0
975,234.390625,234.62083333333334,67.0,84.0
976,232.640625,234.66458333333333,54.0,76.0
977,234.640625,234.96666666666667,64.0,83.0
978,234.640625,234.96979166666665,60.0,81.0
979,235.140625,235.44166666666666,64.0,78.0
980,235.140625,235.45520833333333,60.0,77.0
981,235.640625,235.91041666666666,60.0,71.0
982,235.640625,235.92083333333332,64.0,78.0
983,236.140625,236.365625,60.0,66.0
984,236.140625,236.46979166666665,64.0,76.0
985,234.640625,236.640625,52.0,78.0
986,236.640625,237.00416666666666,62.0,79.0
987,236.640625,237.025,66.0,81.0
988,237.140625,237.52604166666666,62.0,84.0
989,237.140625,237.53437499999998,66.0,81.0
990,237.640625,237.97395833333334,66.0,75.0
991,237.640625,237.984375,62.0,78.0
992,238.140625,238.60729166666667,62.0,80.0
993,236.640625,238.98333333333332,50.0,72.0
994,238.140625,239.00833333333333,66.0,76.0
995,241.32916666666665,241.66145833333334,59.0,69.0
996,241.53125,241.975,62.0,78.0
997,241.86875,242.06145833333332,67.0,77.0
998,241.11979166666666,242.91875,55.0,80.0
999,240.91354166666667,242.92083333333332,50.0,79.0
1000,240.74895833333332,242.94166666666666,43.0,82.0
1001,242.30833333333334,243.00208333333333,71.0,63.0
1002,242.640625,243.01145833333334,79.0,77.0
