,start,end,pitch,velocity
0,36.25,36.75416666666666,61.0,122.0
1,36.75,36.87916666666666,68.0,122.0
2,37.0,37.139583333333334,68.0,112.0
3,37.25,37.72083333333333,68.0,127.0
4,37.75,38.30625,66.0,112.0
5,38.25,38.547916666666666,68.0,112.0
6,38.5,38.760416666666664,66.0,96.0
7,38.75,39.9375,64.0,90.0
8,40.25,40.885416666666664,63.0,112.0
9,41.0,41.266666666666666,61.0,99.0
10,41.25,41.51875,59.0,77.0
11,41.5,41.71458333333333,61.0,99.0
12,41.75,41.947916666666664,56.0,99.0
13,42.0,42.297916666666666,59.0,88.0
14,42.25,43.675,61.0,112.0
15,44.25,44.708333333333336,61.0,89.0
16,44.75,45.85,64.0,97.0
17,45.75,45.87916666666666,61.0,117.0
18,46.0,46.15416666666667,61.0,112.0
19,46.25,46.77291666666667,66.0,117.0
20,46.75,47.235416666666666,64.0,99.0
21,47.0,47.27291666666667,66.0,107.0
22,47.25,48.30833333333333,68.0,112.0
23,48.25,48.6,63.0,117.0
24,48.75,48.979166666666664,63.0,112.0
25,49.0,49.18958333333333,61.0,107.0
26,49.5,49.735416666666666,59.0,96.0
27,49.75,50.041666666666664,56.0,93.0
28,50.0,50.29375,59.0,72.0
29,50.25,52.05625,61.0,112.0
30,52.25,52.75416666666666,61.0,122.0
31,52.75,52.87916666666666,68.0,122.0
32,53.0,53.139583333333334,68.0,112.0
33,53.25,53.72083333333333,68.0,127.0
34,53.75,54.30625,66.0,112.0
35,54.25,54.547916666666666,68.0,112.0
36,54.5,54.760416666666664,66.0,96.0
37,54.75,55.9375,64.0,90.0
38,56.25,56.885416666666664,63.0,112.0
39,57.0,57.266666666666666,61.0,99.0
40,57.25,57.51875,59.0,77.0
41,57.5,57.71458333333333,61.0,99.0
42,57.75,57.947916666666664,56.0,99.0
43,58.0,58.297916666666666,59.0,88.0
44,58.25,59.675,61.0,112.0
45,60.25,60.708333333333336,61.0,89.0
46,60.75,61.85,64.0,97.0
47,61.75,62.14375,61.0,117.0
48,62.25,62.49375,66.0,117.0
49,62.5,62.670833333333334,66.0,112.0
50,62.75,63.235416666666666,64.0,99.0
51,63.0,63.27291666666667,66.0,107.0
52,63.25,64.30833333333334,68.0,112.0
53,64.25,64.36666666666666,71.0,93.0
54,64.5,64.81875,71.0,97.0
55,65.0,65.09791666666666,71.0,85.0
56,65.25,65.45416666666667,71.0,97.0
57,65.5,65.65,68.0,102.0
58,65.75,66.02916666666667,76.0,102.0
59,66.0,66.25625,75.0,117.0
60,66.25,67.67291666666667,73.0,122.0
61,70.25,70.73541666666667,68.0,127.0
62,70.75,71.66875,73.0,112.0
63,71.75,72.12708333333333,71.0,112.0
64,72.25,72.59583333333333,73.0,127.0
65,73.0,73.23333333333333,76.0,100.0
66,73.25,73.71875,73.0,112.0
67,73.75,74.20625,71.0,96.0
68,74.25,74.575,73.0,112.0
69,74.75,75.07291666666667,73.0,122.0
70,75.25,75.825,73.0,127.0
71,75.75,76.02291666666666,64.0,93.0
72,76.0,76.22083333333333,66.0,107.0
73,76.25,77.80208333333333,68.0,122.0
74,78.25,78.54375,66.0,117.0
75,78.75,78.85,66.0,100.0
76,79.0,79.0875,66.0,95.0
77,79.25,79.64166666666667,66.0,112.0
78,79.75,80.12916666666666,68.0,107.0
79,80.25,80.76666666666667,71.0,112.0
80,80.75,81.04166666666667,73.0,127.0
81,81.25,81.59583333333333,73.0,127.0
82,81.75,82.00413223333334,71.0,107.0
83,82.0,82.25000011666667,73.0,95.0
84,82.247934,82.48760353333333,71.0,99.0
85,82.495868,85.1487618,68.0,112.0
86,86.214878,86.63429968333334,68.0,112.0
87,86.710746,87.46281246666666,73.0,127.0
88,87.702482,88.04339125,71.0,99.0
89,88.19835,88.83264781666666,73.0,127.0
90,88.94215200000001,89.19215211666666,76.0,112.0
91,89.19008600000001,89.60330933333333,73.0,127.0
92,89.685954,90.09222133333333,71.0,97.0
93,90.183888,90.47138799999999,73.0,127.0
94,90.683888,90.99430466666666,73.0,127.0
95,91.183888,91.53388799999999,73.0,127.0
96,91.683888,91.93180466666666,64.0,96.0
97,91.933888,92.202638,66.0,107.0
98,92.183888,93.03388799999999,68.0,122.0
99,93.683888,93.78597133333334,68.0,117.0
100,93.933888,94.090138,68.0,127.0
101,94.183888,95.04847133333332,66.0,122.0
102,96.183888,96.62763799999999,71.0,112.0
103,96.933888,97.24222133333333,68.0,117.0
104,97.183888,97.51305466666666,78.0,127.0
105,97.683888,97.93805466666666,76.0,117.0
106,97.933888,98.133888,78.0,112.0
107,98.183888,101.14222133333332,73.0,117.0
108,102.183888,102.60680466666666,68.0,112.0
109,102.683888,103.44222133333332,73.0,127.0
110,103.683888,104.027638,71.0,99.0
111,104.183888,104.82347133333333,73.0,127.0
112,104.933888,105.18597133333333,76.0,112.0
113,105.183888,105.60055466666667,73.0,127.0
114,105.683888,106.09222133333333,71.0,97.0
115,106.183888,106.47138799999999,73.0,127.0
116,106.683888,106.99430466666666,73.0,127.0
117,107.183888,107.53388799999999,73.0,127.0
118,107.683888,107.93180466666666,64.0,96.0
119,107.933888,108.202638,66.0,107.0
120,108.183888,109.03388799999999,68.0,122.0
121,110.183888,110.452638,66.0,127.0
122,110.683888,110.77972133333333,66.0,112.0
123,110.933888,111.027638,66.0,107.0
124,111.183888,111.54430466666666,66.0,117.0
125,111.683888,112.07555466666666,68.0,127.0
126,112.183888,112.62763799999999,71.0,112.0
127,112.683888,113.04430466666666,71.0,102.0
128,113.183888,113.57347133333333,73.0,127.0
129,113.683888,113.96722133333333,71.0,107.0
130,113.933888,114.25680466666667,73.0,100.0
131,114.183888,114.60055466666667,71.0,107.0
132,114.683888,117.208888,68.0,99.0
133,118.183888,118.60680466666666,68.0,112.0
134,118.683888,119.44222133333332,73.0,127.0
135,119.683888,119.91930466666666,73.0,122.0
136,119.933888,120.152638,71.0,93.0
137,120.183888,120.82347133333333,73.0,127.0
138,120.933888,121.18597133333333,76.0,112.0
139,121.183888,121.60055466666667,73.0,127.0
140,121.683888,122.09222133333333,71.0,97.0
141,122.183888,122.47138799999999,73.0,127.0
142,122.683888,122.99430466666666,73.0,127.0
143,123.183888,123.53388799999999,73.0,127.0
144,123.683888,123.93180466666666,64.0,96.0
145,123.933888,124.202638,66.0,107.0
146,124.183888,125.03388799999999,68.0,122.0
147,125.683888,125.78597133333332,68.0,117.0
148,125.933888,126.0906605,68.0,127.0
149,126.184724,127.0521985,66.0,122.0
150,127.68974,128.0388201,68.0,117.0
151,128.19141199999999,128.7662445,71.0,112.0
152,128.94392,129.18012389999998,68.0,127.0
153,129.19475599999998,129.51666219999998,78.0,122.0
154,129.696428,129.8866453,76.0,102.0
155,129.947264,130.1688358,78.0,96.0
156,130.1981,130.4405748,75.0,122.0
157,130.448936,133.3565433,73.0,102.0
158,166.220672,166.72483866666667,61.0,122.0
159,166.720672,166.84983866666667,68.0,122.0
160,166.970672,167.11025533333333,68.0,112.0
161,167.220672,167.69150533333334,68.0,127.0
162,167.720672,168.276922,66.0,112.0
163,168.220672,168.5185886666667,68.0,112.0
164,168.470672,168.73108866666666,66.0,96.0
165,168.720672,169.908172,64.0,90.0
166,170.220672,170.85608866666666,63.0,112.0
167,170.970672,171.2373386666667,61.0,99.0
168,171.220672,171.489422,59.0,77.0
169,171.470672,171.68525533333334,61.0,99.0
170,171.720672,171.91858866666666,56.0,99.0
171,171.970672,172.2685886666667,59.0,88.0
172,172.220672,173.645672,61.0,112.0
173,174.220672,174.67900533333335,61.0,89.0
174,174.720672,175.820672,64.0,97.0
175,175.720672,175.84983866666667,61.0,117.0
176,175.970672,176.12483866666668,61.0,112.0
177,176.220672,176.74358866666668,66.0,117.0
178,176.720672,177.2060886666667,64.0,99.0
179,176.970672,177.24358866666668,66.0,107.0
180,177.220672,178.27900533333334,68.0,112.0
181,178.220672,178.570672,63.0,117.0
182,178.720672,178.94983866666666,63.0,112.0
183,178.970672,179.16025533333334,61.0,107.0
184,179.470672,179.7060886666667,59.0,96.0
185,179.720672,180.01233866666666,56.0,93.0
186,179.970672,180.26442200000002,59.0,72.0
187,180.220672,182.026922,61.0,112.0
188,182.220672,182.72483866666667,61.0,122.0
189,182.720672,182.84983866666667,68.0,122.0
190,182.970672,183.11025533333333,68.0,112.0
191,183.220672,183.69150533333334,68.0,127.0
192,183.720672,184.276922,66.0,112.0
193,184.220672,184.5185886666667,68.0,112.0
194,184.470672,184.73108866666666,66.0,96.0
195,184.720672,185.908172,64.0,90.0
196,186.220672,186.85608866666666,63.0,112.0
197,186.970672,187.2373386666667,61.0,99.0
198,187.220672,187.489422,59.0,77.0
199,187.470672,187.68525533333334,61.0,99.0
200,187.720672,187.91858866666666,56.0,99.0
201,187.970672,188.2685886666667,59.0,88.0
202,188.220672,189.645672,61.0,112.0
203,190.220672,190.67900533333335,61.0,89.0
204,190.720672,191.820672,64.0,97.0
205,191.720672,192.114422,61.0,117.0
206,192.220672,192.464422,66.0,117.0
207,192.470672,192.64150533333333,66.0,112.0
208,192.720672,193.2060886666667,64.0,99.0
209,192.970672,193.24358866666668,66.0,107.0
210,193.220672,194.27900533333334,68.0,112.0
211,194.220672,194.33733866666668,71.0,93.0
212,194.470672,194.789422,71.0,97.0
213,194.970672,195.06858866666667,71.0,85.0
214,195.220672,195.4248386666667,71.0,97.0
215,195.470672,195.620672,68.0,102.0
216,195.720672,195.99983866666668,76.0,102.0
217,195.970672,196.226922,75.0,117.0
218,196.220672,197.6435886666667,73.0,122.0
219,200.220672,200.7060886666667,68.0,127.0
220,200.720672,201.63942200000002,73.0,112.0
221,201.720672,202.09775533333334,71.0,112.0
222,202.220672,202.56650533333334,73.0,127.0
223,202.970672,203.20400533333333,76.0,100.0
224,203.220672,203.689422,73.0,112.0
225,203.720672,204.176922,71.0,96.0
226,204.220672,204.54567200000002,73.0,112.0
227,204.720672,205.04358866666666,73.0,122.0
228,205.220672,205.79567200000002,73.0,127.0
229,205.720672,205.99358866666665,64.0,93.0
230,205.970672,206.19150533333334,66.0,107.0
231,206.220672,207.77275533333335,68.0,122.0
232,208.220672,208.51442200000002,66.0,117.0
233,208.720672,208.820672,66.0,100.0
234,208.970672,209.058172,66.0,95.0
235,209.220672,209.6123386666667,66.0,112.0
236,209.720672,210.09983866666667,68.0,107.0
237,210.220672,210.7373386666667,71.0,112.0
238,210.720672,211.01233866666666,73.0,127.0
239,211.220672,211.56650533333334,73.0,127.0
240,211.720672,211.97483866666667,71.0,107.0
241,211.970672,212.22275533333334,73.0,95.0
242,212.220672,212.46233866666665,71.0,99.0
243,212.470672,215.145672,68.0,112.0
244,216.220672,216.6435886666667,68.0,112.0
245,216.720672,217.47900533333333,73.0,127.0
246,217.720672,218.064422,71.0,99.0
247,218.220672,218.86025533333333,73.0,127.0
248,218.970672,219.22275533333334,76.0,112.0
249,219.220672,219.63733866666666,73.0,127.0
250,219.720672,220.12900533333334,71.0,97.0
251,220.220672,220.508172,73.0,127.0
252,220.720672,221.03108866666668,73.0,127.0
253,221.220672,221.570672,73.0,127.0
254,221.720672,221.96858866666668,64.0,96.0
255,221.970672,222.239422,66.0,107.0
256,222.220672,223.070672,68.0,122.0
257,223.720672,223.82275533333333,68.0,117.0
258,223.970672,224.126922,68.0,127.0
259,224.220672,225.08525533333335,66.0,122.0
260,226.220672,226.664422,71.0,112.0
261,226.970672,227.27900533333334,68.0,117.0
262,227.220672,227.5498386666667,78.0,127.0
263,227.720672,227.97483866666667,76.0,117.0
264,227.970672,228.17067200000002,78.0,112.0
265,228.220672,231.17900533333335,73.0,117.0
266,232.220672,232.6435886666667,68.0,112.0
267,232.720672,233.47900533333333,73.0,127.0
268,233.720672,234.064422,71.0,99.0
269,234.220672,234.86025533333333,73.0,127.0
270,234.970672,235.22275533333334,76.0,112.0
271,235.220672,235.63733866666666,73.0,127.0
272,235.720672,236.12900533333334,71.0,97.0
273,236.220672,236.508172,73.0,127.0
274,236.720672,237.03108866666668,73.0,127.0
275,237.220672,237.570672,73.0,127.0
276,237.720672,237.96858866666668,64.0,96.0
277,237.970672,238.239422,66.0,107.0
278,238.220672,239.070672,68.0,122.0
279,240.220672,240.489422,66.0,127.0
280,240.720672,240.81650533333334,66.0,112.0
281,240.970672,241.064422,66.0,107.0
282,241.220672,241.5810886666667,66.0,117.0
283,241.720672,242.1123386666667,68.0,127.0
284,242.220672,242.664422,71.0,112.0
285,242.720672,243.0810886666667,71.0,102.0
286,243.220672,243.61025533333333,73.0,127.0
287,243.720672,244.00400533333334,71.0,107.0
288,243.970672,244.29358866666666,73.0,100.0
289,244.220672,244.63733866666666,71.0,107.0
290,244.720672,247.245672,68.0,99.0
291,248.220672,248.6435886666667,68.0,112.0
292,248.720672,249.47900533333333,73.0,127.0
293,249.720672,249.9560886666667,73.0,122.0
294,249.970672,250.189422,71.0,93.0
295,250.220672,250.86025533333333,73.0,127.0
296,250.970672,251.22275533333334,76.0,112.0
297,251.220672,251.63733866666666,73.0,127.0
298,251.720672,252.12900533333334,71.0,97.0
299,252.220672,252.508172,73.0,127.0
300,252.720672,253.03108866666668,73.0,127.0
301,253.220672,253.570672,73.0,127.0
302,253.720672,253.96858866666668,64.0,96.0
303,253.970672,254.239422,66.0,107.0
304,254.220672,255.070672,68.0,122.0
305,255.720672,255.82275533333333,68.0,117.0
306,255.970672,256.12692200000004,68.0,127.0
307,256.22067200000004,257.08525533333335,66.0,122.0
308,257.72067200000004,258.06858866666664,68.0,117.0
309,258.22067200000004,258.79358866666666,71.0,112.0
310,258.97067200000004,259.2060886666667,68.0,127.0
311,259.22067200000004,259.54150533333336,78.0,122.0
312,259.72067200000004,259.91025533333334,76.0,102.0
313,259.97067200000004,260.19150533333334,78.0,96.0
314,260.22067200000004,260.46233866666665,75.0,122.0
315,260.47067200000004,263.36858866666665,73.0,102.0
316,264.22067200000004,264.6435886666667,68.0,112.0
317,264.72067200000004,265.47900533333336,73.0,127.0
318,265.72067200000004,266.06442200000004,71.0,99.0
319,266.22067200000004,266.8602553333333,73.0,127.0
320,266.97067200000004,267.22275533333334,76.0,112.0
321,267.22067200000004,267.63733866666666,73.0,127.0
322,267.72067200000004,268.12900533333334,71.0,97.0
323,268.22067200000004,268.508172,73.0,127.0
324,268.72067200000004,269.0310886666667,73.0,127.0
325,269.22067200000004,269.570672,73.0,127.0
326,269.72067200000004,269.9685886666667,64.0,96.0
327,269.97067200000004,270.239422,66.0,107.0
328,270.22067200000004,271.070672,68.0,122.0
329,272.22067200000004,272.489422,66.0,127.0
330,272.72067200000004,272.81650533333334,66.0,112.0
331,272.97067200000004,273.06442200000004,66.0,107.0
332,273.22067200000004,273.5810886666667,66.0,117.0
333,273.72067200000004,274.1123386666667,68.0,127.0
334,274.22067200000004,274.664422,71.0,112.0
335,274.72067200000004,275.0810886666667,71.0,102.0
336,275.22067200000004,275.6102553333333,73.0,127.0
337,275.72067200000004,276.00400533333334,71.0,107.0
338,275.97067200000004,276.29358866666666,73.0,100.0
339,276.22067200000004,276.63733866666666,71.0,107.0
340,276.72067200000004,279.245672,68.0,99.0
341,280.22067200000004,280.6435886666667,68.0,112.0
342,280.72067200000004,281.47900533333336,73.0,127.0
343,281.72067200000004,281.9560886666667,73.0,122.0
344,281.97067200000004,282.18942200000004,71.0,93.0
345,282.22067200000004,282.8602553333333,73.0,127.0
346,282.97067200000004,283.22275533333334,76.0,112.0
347,283.22067200000004,283.63733866666666,73.0,127.0
348,283.72067200000004,284.12900533333334,71.0,97.0
349,284.22067200000004,284.508172,73.0,127.0
350,284.72067200000004,285.0310886666667,73.0,127.0
351,285.22067200000004,285.570672,73.0,127.0
352,285.72067200000004,285.9685886666667,64.0,96.0
353,285.97067200000004,286.239422,66.0,107.0
354,286.22067200000004,287.070672,68.0,122.0
355,287.72067200000004,287.82275533333336,68.0,117.0
356,287.97067200000004,288.12692200000004,68.0,127.0
357,288.22067200000004,289.08525533333335,66.0,122.0
358,289.72067200000004,290.06858866666664,68.0,117.0
359,290.22067200000004,290.79358866666666,71.0,112.0
360,290.97067200000004,292.22067200000004,68.0,127.0
361,293.22067200000004,293.7435886666667,78.0,127.0
362,293.72067200000004,294.01233866666666,76.0,100.0
363,293.97067200000004,294.2435886666667,75.0,112.0
364,294.22067200000004,299.3310886666667,73.0,96.0
