,start,end,pitch,velocity
0,21.150000000000002,21.34375,63.0,61.0
1,21.45,21.650000000000002,63.0,66.0
2,21.75,22.05125,63.0,59.0
3,22.05,22.3425,70.0,77.0
4,22.35,22.82625,70.0,65.0
5,22.95,23.26,70.0,65.0
6,23.25,23.43,68.0,87.0
7,23.55,23.74875,68.0,75.0
8,23.85,24.1625,68.0,71.0
9,24.150000000000002,24.43875,70.0,75.0
10,24.45,24.7525,66.0,71.0
11,24.75,25.255,63.0,64.0
12,25.650000000000002,26.1375,68.0,99.0
13,26.25,26.69875,68.0,93.0
14,26.85,27.16875,68.0,90.0
15,27.150000000000002,28.04375,70.0,97.0
16,28.05,28.325,66.0,96.0
17,28.35,29.74625,63.0,68.0
18,30.75,30.8625,75.0,96.0
19,31.05,31.16875,75.0,95.0
20,31.35,31.47875,75.0,87.0
21,31.650000000000002,31.775000000000002,75.0,94.0
22,31.95,32.09125,75.0,87.0
23,32.25,32.4475,75.0,90.0
24,32.55,32.87375,75.0,66.0
25,32.85,33.1125,73.0,84.0
26,33.15,33.34,70.0,54.0
27,33.45,33.605000000000004,70.0,66.0
28,33.75,34.1175,70.0,66.0
29,34.05,34.335,73.0,91.0
30,34.35,34.8875,70.0,92.0
31,35.25,35.80375,68.0,97.0
32,35.85,36.46125,68.0,101.0
33,36.45,36.79375,66.0,93.0
34,36.75,37.59375,68.0,101.0
35,37.35,38.1075,70.0,98.0
36,39.75,40.03,70.0,82.0
37,40.050000000000004,40.27125,78.0,85.0
38,40.35,40.5125,78.0,92.0
39,40.65,40.9975,78.0,90.0
40,40.95,41.27375,77.0,93.0
41,41.25,41.9,75.0,90.0
42,42.15,42.41875,73.0,91.0
43,42.45,42.625,75.0,66.0
44,42.75,42.92375,75.0,76.0
45,43.050000000000004,43.355000000000004,75.0,73.0
46,43.35,43.65375,73.0,89.0
47,43.65,43.9925,70.0,82.0
48,43.95,44.67875,73.0,100.0
49,44.85,44.98625,68.0,94.0
50,45.15,45.36875,68.0,90.0
51,45.45,45.6025,68.0,79.0
52,45.75,45.93625,68.0,74.0
53,46.050000000000004,46.2275,68.0,76.0
54,46.35,46.65875,68.0,77.0
55,46.65,46.95,66.0,66.0
56,46.95,47.316250000000004,63.0,64.0
57,47.25,47.495,68.0,66.0
58,47.550000000000004,47.7325,70.0,91.0
59,47.85,48.075,70.0,92.0
60,48.15,48.41125,73.0,87.0
61,48.45,49.225,70.0,92.0
62,49.35,49.63875,70.0,93.0
63,49.65,49.86,78.0,94.0
64,49.95,50.09625,78.0,97.0
65,50.25,50.57,78.0,92.0
66,50.550000000000004,50.86875,77.0,100.0
67,50.85,51.58,75.0,105.0
68,52.050000000000004,52.213750000000005,75.0,98.0
69,52.35,52.51,75.0,97.0
70,52.65,52.93375,75.0,96.0
71,52.95,53.25625,70.0,91.0
72,53.25,53.948750000000004,73.0,100.0
73,54.15,54.425000000000004,66.0,79.0
74,54.45,54.870000000000005,68.0,76.0
75,55.050000000000004,55.253750000000004,68.0,87.0
76,55.35,55.52375,68.0,73.0
77,55.65,55.80125,68.0,75.0
78,55.95,56.2575,68.0,66.0
79,56.25,56.5275,66.0,69.0
80,56.550000000000004,56.91125,63.0,61.0
81,56.85,57.045,68.0,59.0
82,57.15,57.40875,70.0,55.0
83,57.45,57.675000000000004,70.0,62.0
84,57.75,58.275,70.0,100.0
85,58.35,58.69,70.0,98.0
86,58.65,58.91375,68.0,89.0
87,58.95,59.31375,66.0,80.0
88,59.25,60.1775,68.0,91.0
89,60.15,61.94625,63.0,62.0
90,63.45,63.63375,63.0,87.0
91,63.75,63.97625,63.0,80.0
92,64.05,64.54,70.0,93.0
93,64.65,64.915,70.0,91.0
94,64.95,65.25,73.0,86.0
95,65.25,65.71875,68.0,90.0
96,65.85,66.155,68.0,71.0
97,66.15,66.41375000000001,70.0,73.0
98,66.45,66.94375,66.0,83.0
99,67.05,67.35625,63.0,56.0
100,67.35,67.97875,61.0,57.0
101,67.95,69.7625,63.0,68.0
102,73.95,74.15625,63.0,66.0
103,74.25,74.4275,63.0,63.0
104,74.55,74.8325,63.0,56.0
105,74.85000000000001,75.05125,70.0,66.0
106,75.15,75.34375,70.0,69.0
107,75.45,75.7325,70.0,87.0
108,75.75,76.095,73.0,69.0
109,76.05,76.24625,68.0,72.0
110,76.35000000000001,76.5625,68.0,66.0
111,76.65,76.9875,68.0,61.0
112,76.95,77.41,66.0,100.0
113,77.25,77.79625,63.0,58.0
114,78.45,78.95375,68.0,91.0
115,79.05,79.49125000000001,68.0,90.0
116,79.65,79.96000000000001,68.0,84.0
117,79.95,80.8425,70.0,92.0
118,80.85000000000001,81.1525,66.0,96.0
119,81.15,82.25,63.0,87.0
120,83.55,83.69375000000001,75.0,96.0
121,83.85000000000001,83.99,75.0,97.0
122,84.15,84.2975,75.0,90.0
123,84.45,84.60375,75.0,90.0
124,84.75,84.90125,75.0,87.0
125,85.05,85.17,75.0,91.0
126,85.35000000000001,85.49375,75.0,91.0
127,85.65,86.23875,73.0,106.0
128,86.25,86.5325,70.0,86.0
129,86.55,87.13250000000001,73.0,92.0
130,87.15,87.67375,70.0,81.0
131,88.05,88.57125,68.0,94.0
132,88.65,88.94,68.0,94.0
133,88.95,89.8525,68.0,91.0
134,89.85000000000001,90.45375,66.0,84.0
135,90.45,91.6975,70.0,101.0
136,92.55,92.815,70.0,83.0
137,92.85000000000001,93.07000000000001,78.0,92.0
138,93.15,93.27125,78.0,97.0
139,93.45,93.77250000000001,78.0,97.0
140,93.75,94.37125,77.0,101.0
141,94.35000000000001,94.7225,75.0,106.0
142,94.95,95.20875,73.0,87.0
143,95.25,95.43125,75.0,93.0
144,95.55,95.72875,75.0,90.0
145,95.85000000000001,96.1675,75.0,91.0
146,96.15,96.44,73.0,97.0
147,96.45,96.78625,70.0,87.0
148,96.75,97.49125000000001,73.0,101.0
149,97.65,97.81,68.0,101.0
150,97.95,98.13375,68.0,90.0
151,98.25,98.42875000000001,68.0,91.0
152,98.55,98.74125000000001,68.0,91.0
153,98.85000000000001,99.03,68.0,89.0
154,99.15,99.4475,68.0,87.0
155,99.45,99.765,66.0,75.0
156,99.75,100.10375,63.0,72.0
157,100.05,100.37375,68.0,68.0
158,100.35000000000001,100.57125,70.0,81.0
159,100.65,100.8325,70.0,91.0
160,100.95,101.85875,70.0,100.0
161,102.15,102.47125,70.0,74.0
162,102.45,102.63625,78.0,94.0
163,102.75,102.9075,78.0,97.0
164,103.05,103.37875,78.0,93.0
165,103.35000000000001,103.71125,77.0,91.0
166,103.65,104.39375,75.0,90.0
167,104.85000000000001,105.02375,75.0,106.0
168,105.15,105.315,75.0,91.0
169,105.45,105.70375,75.0,91.0
170,105.75,106.05375000000001,70.0,93.0
171,106.05,106.7425,73.0,106.0
172,106.95,107.2775,66.0,92.0
173,107.25,107.44125,68.0,93.0
174,107.55,107.735,68.0,97.0
175,107.85000000000001,108.03875000000001,68.0,92.0
176,108.15,108.32000000000001,68.0,95.0
177,108.45,108.5975,68.0,90.0
178,108.75,109.06125,68.0,91.0
179,109.05,109.3125,66.0,85.0
180,109.35000000000001,109.68,63.0,64.0
181,109.65,109.93625,68.0,66.0
182,109.95,110.14375,70.0,87.0
183,110.25,110.425,70.0,97.0
184,110.55,111.05875,70.0,99.0
185,111.15,111.51125,70.0,99.0
186,111.45,111.72125,68.0,97.0
187,111.75,112.10000000000001,66.0,87.0
188,112.05,112.98375,68.0,99.0
189,112.95,114.59625,63.0,86.0
190,116.25,116.4575,63.0,90.0
191,116.55,116.77125000000001,63.0,75.0
192,116.85000000000001,117.32125,70.0,91.0
193,117.45,117.69875,70.0,97.0
194,117.75,118.04125,73.0,87.0
195,118.05,118.49875,68.0,97.0
196,118.65,118.89375,68.0,93.0
197,118.95,119.25875,70.0,96.0
198,119.25,119.85125000000001,66.0,92.0
199,119.85000000000001,120.1525,63.0,89.0
200,120.15,120.79125,61.0,91.0
201,120.75,123.08500000000001,63.0,103.0
202,125.55,125.885,73.0,57.0
203,125.85000000000001,126.1425,75.0,90.0
204,126.15,126.47,78.0,96.0
205,126.45,126.62375,80.0,89.0
206,126.75,126.94375000000001,80.0,87.0
207,127.05,127.245,80.0,87.0
208,127.35000000000001,127.525,80.0,97.0
209,127.65,127.8375,80.0,92.0
210,127.95,128.11625,80.0,91.0
211,128.25,128.55,80.0,97.0
212,128.55,128.905,82.0,89.0
213,128.85,129.165,80.0,97.0
214,129.15,129.7475,78.0,100.0
215,129.75,130.255,75.0,93.0
216,131.25,131.43375,75.0,97.0
217,131.55,131.7275,75.0,101.0
218,131.85,132.0275,75.0,91.0
219,132.15,132.335,75.0,92.0
220,132.45,132.63125,75.0,90.0
221,132.75,132.905,75.0,90.0
222,133.05,133.33125,75.0,90.0
223,133.35,133.63375,78.0,99.0
224,133.65,133.94375,75.0,97.0
225,133.95,134.15375,73.0,91.0
226,134.25,134.8675,73.0,72.0
227,134.85,135.5475,70.0,87.0
228,135.75,136.01125,70.0,103.0
229,136.05,136.35625,68.0,98.0
230,136.35,136.7075,70.0,97.0
231,136.65,136.9175,68.0,97.0
232,136.95000000000002,137.57625000000002,66.0,93.0
233,137.55,137.94625,63.0,100.0
234,138.15,138.46375,70.0,127.0
235,138.45000000000002,138.775,68.0,90.0
236,138.75,139.1225,70.0,87.0
237,139.05,139.355,68.0,84.0
238,139.35,139.9775,66.0,91.0
239,139.95000000000002,140.32750000000001,63.0,82.0
240,140.55,140.83,63.0,76.0
241,140.85,140.96875,75.0,87.0
242,141.15,141.2975,75.0,91.0
243,141.45000000000002,141.6125,75.0,96.0
244,141.75,141.91,75.0,95.0
245,142.05,142.62375,75.0,93.0
246,142.65,142.85625000000002,70.0,100.0
247,142.95000000000002,143.52625,75.0,100.0
248,143.55,144.3675,73.0,100.0
249,144.75,145.00625,73.0,97.0
250,145.05,145.26,75.0,101.0
251,145.35,145.6925,78.0,97.0
252,145.65,146.205,80.0,97.0
253,146.25,146.45125000000002,80.0,94.0
254,146.55,146.71375,80.0,77.0
255,146.85,147.2675,80.0,105.0
256,147.45000000000002,147.77,80.0,100.0
257,147.75,148.0975,82.0,99.0
258,148.05,148.38375,80.0,105.0
259,148.35,148.895,78.0,106.0
260,148.95000000000002,149.60375,75.0,98.0
261,150.15,150.455,73.0,105.0
262,150.45000000000002,150.65,75.0,92.0
263,150.75,150.90625,75.0,96.0
264,151.05,151.23250000000002,75.0,89.0
265,151.35,151.52,75.0,94.0
266,151.65,152.125,75.0,94.0
267,152.25,152.54,75.0,92.0
268,152.55,152.85875000000001,78.0,87.0
269,152.85,153.15625,75.0,93.0
270,153.15,153.32125,73.0,97.0
271,153.45000000000002,153.9975,73.0,85.0
272,154.05,154.5525,70.0,87.0
273,154.95000000000002,155.23375000000001,70.0,98.0
274,155.25,155.5625,68.0,97.0
275,155.55,155.91375,70.0,93.0
276,155.85,156.13,68.0,93.0
277,156.15,156.71375,66.0,92.0
278,156.75,157.14875,63.0,90.0
279,157.35,157.64000000000001,70.0,101.0
280,157.65,157.96375,68.0,97.0
281,157.95000000000002,158.3075,70.0,93.0
282,158.25,158.57375,68.0,93.0
283,158.55,159.14375,66.0,95.0
284,159.15,159.57375,63.0,66.0
285,159.75,159.895,63.0,76.0
286,160.05,160.25,75.0,87.0
287,160.35,160.54,75.0,68.0
288,160.65,160.82500000000002,75.0,98.0
289,160.95000000000002,161.1275,75.0,91.0
290,161.25,161.41,75.0,90.0
291,161.55,161.705,75.0,90.0
292,161.85,162.12875,75.0,90.0
293,162.15,162.435,78.0,90.0
294,162.45000000000002,162.76125,75.0,93.0
295,162.75,163.08375,73.0,91.0
296,163.05,163.36625,75.0,95.0
297,163.35,163.9875,73.0,89.0
298,163.95000000000002,163.9875,73.0,93.0
299,164.25,164.54500000000002,75.0,91.0
300,164.55,164.89375,78.0,87.0
301,164.85,165.0525,80.0,95.0
302,165.15,165.36625,80.0,96.0
303,165.45000000000002,165.645,80.0,93.0
304,165.75,165.92625,80.0,91.0
305,166.05,166.22,80.0,91.0
306,166.35,166.51625,80.0,90.0
307,166.65,166.9775,80.0,97.0
308,166.95000000000002,167.3125,82.0,97.0
309,167.25,167.5525,80.0,93.0
310,167.55,167.71875,78.0,87.0
311,167.85,168.43,78.0,83.0
312,168.45000000000002,169.05375,75.0,96.0
313,169.35,169.655,73.0,108.0
314,169.65,169.85625000000002,75.0,95.0
315,169.95000000000002,170.12875,75.0,92.0
316,170.25,170.44125,75.0,97.0
317,170.55,170.72125,75.0,92.0
318,170.85,171.02125,75.0,94.0
319,171.15,171.32375,75.0,90.0
320,171.45000000000002,171.69625,75.0,99.0
321,171.75,172.01250000000002,78.0,91.0
322,172.05,172.305,75.0,98.0
323,172.35,172.5475,73.0,94.0
324,172.65,173.21625,73.0,91.0
325,173.25,173.94,70.0,90.0
326,174.15,174.42625,70.0,97.0
327,174.45000000000002,174.78,68.0,93.0
328,174.75,175.08875,70.0,89.0
329,175.05,175.32875,68.0,89.0
330,175.35,175.65625,66.0,86.0
331,175.65,176.2275,63.0,71.0
332,176.55,176.85,70.0,90.0
333,176.85,177.1975,68.0,93.0
334,177.15,177.51250000000002,70.0,87.0
335,177.45000000000002,177.77375,68.0,84.0
336,177.75,178.34,66.0,91.0
337,178.35,178.79375000000002,63.0,63.0
338,178.95000000000002,179.20875,63.0,86.0
339,179.25,179.45000000000002,75.0,79.0
340,179.55,179.7275,75.0,90.0
341,179.85,180.01500000000001,75.0,83.0
342,180.15,180.32875,75.0,87.0
343,180.45000000000002,180.67375,75.0,90.0
344,180.75,181.3225,75.0,90.0
345,181.35,181.67875,78.0,89.0
346,181.65,181.96625,75.0,96.0
347,181.95000000000002,182.29875,73.0,90.0
348,182.25,182.51125,75.0,67.0
349,182.55,183.29,73.0,87.0
350,183.15,183.29,73.0,97.0
351,183.45000000000002,183.7075,75.0,95.0
352,183.75,184.135,78.0,97.0
353,184.05,184.22375,80.0,89.0
354,184.35,184.56375,80.0,87.0
355,184.65,184.8375,80.0,90.0
356,184.95000000000002,185.14375,80.0,86.0
357,185.25,185.65375,80.0,97.0
358,185.85,186.195,80.0,101.0
359,186.15,186.49,82.0,96.0
360,186.45000000000002,186.75,80.0,99.0
361,186.75,186.96375,78.0,90.0
362,187.05,187.64375,78.0,90.0
363,187.65,188.38125,75.0,98.0
364,188.85,189.03875,75.0,101.0
365,189.15,189.31,75.0,101.0
366,189.45000000000002,189.605,75.0,95.0
367,189.75,189.9125,75.0,94.0
368,190.05,190.48,75.0,105.0
369,190.65,190.93375,75.0,103.0
370,190.95000000000002,191.21125,78.0,94.0
371,191.25,191.5625,75.0,105.0
372,191.55,191.74625,73.0,97.0
373,191.85,192.4125,73.0,99.0
374,192.45000000000002,193.10125,70.0,98.0
375,193.35,193.6175,70.0,97.0
376,193.65,193.93,68.0,86.0
377,193.95000000000002,194.31125,70.0,95.0
378,194.25,194.5325,68.0,94.0
379,194.55,194.86125,66.0,90.0
380,194.85,195.37875,63.0,77.0
381,195.75,196.10625000000002,70.0,94.0
382,196.05,196.36375,68.0,94.0
383,196.35,196.7175,70.0,92.0
384,196.65,196.9275,68.0,89.0
385,196.95000000000002,197.49625,66.0,91.0
386,197.55,197.91125,63.0,74.0
387,198.75,199.06625,61.0,73.0
388,199.05,199.35500000000002,63.0,73.0
389,199.35,199.5375,66.0,66.0
390,199.65,200.0975,75.0,90.0
391,200.1,200.76125000000002,73.0,94.0
392,200.55,201.61375,70.0,100.0
393,202.05,202.6175,68.0,96.0
394,202.65,202.955,68.0,97.0
395,202.95000000000002,203.25,70.0,91.0
396,203.25,203.54375000000002,66.0,91.0
397,204.15,206.00125,63.0,68.0
398,227.55,227.755,63.0,66.0
399,227.85,228.0275,63.0,63.0
400,228.15,228.4325,63.0,56.0
401,228.45000000000002,228.65125,70.0,66.0
402,228.75,228.94375,70.0,69.0
403,229.05,229.33125,70.0,87.0
404,229.35,229.695,73.0,69.0
405,229.65,229.84625,68.0,72.0
406,229.95000000000002,230.16375,68.0,66.0
407,230.25,230.58875,68.0,61.0
408,230.55,231.01,66.0,100.0
409,230.85,231.39625,63.0,58.0
410,232.05,232.555,68.0,91.0
411,232.65,233.09125,68.0,90.0
412,233.25,233.56,68.0,84.0
413,233.55,234.4425,70.0,92.0
414,234.45000000000002,234.75125,66.0,96.0
415,234.75,235.85125,63.0,87.0
416,237.15,237.29500000000002,75.0,96.0
417,237.45000000000002,237.59,75.0,97.0
418,237.75,237.8975,75.0,90.0
419,238.05,238.20250000000001,75.0,90.0
420,238.35,238.50125,75.0,87.0
421,238.65,238.77,75.0,91.0
422,238.95000000000002,239.0925,75.0,91.0
423,239.25,239.83875,73.0,106.0
424,239.85,240.1325,70.0,86.0
425,240.15,240.73125000000002,73.0,92.0
426,240.75,241.27375,70.0,81.0
427,241.65,242.17125000000001,68.0,94.0
428,242.25,242.54125,68.0,94.0
429,242.55,243.45250000000001,68.0,91.0
430,243.45000000000002,244.05375,66.0,84.0
431,244.05,245.2975,70.0,101.0
432,246.15,246.415,70.0,83.0
433,246.45000000000002,246.67000000000002,78.0,92.0
434,246.75,246.87125,78.0,97.0
435,247.05,247.37125,78.0,97.0
436,247.35,247.9725,77.0,101.0
437,247.95000000000002,248.32375000000002,75.0,106.0
438,248.55,248.81,73.0,87.0
439,248.85,249.03125,75.0,93.0
440,249.15,249.33,75.0,90.0
441,249.45000000000002,249.7675,75.0,91.0
442,249.75,250.04125000000002,73.0,97.0
443,250.05,250.38750000000002,70.0,87.0
444,250.35,251.09125,73.0,101.0
445,251.25,251.41,68.0,101.0
446,251.55,251.73375000000001,68.0,90.0
447,251.85,252.02875,68.0,91.0
448,252.15,252.34125,68.0,91.0
449,252.45000000000002,252.62875,68.0,89.0
450,252.75,253.04625000000001,68.0,87.0
451,253.05,253.365,66.0,75.0
452,253.35,253.70250000000001,63.0,72.0
453,253.65,253.97375,68.0,68.0
454,253.95000000000002,254.17125000000001,70.0,81.0
455,254.25,254.4325,70.0,91.0
456,254.55,255.45875,70.0,100.0
457,255.75,256.07125,70.0,74.0
458,256.05,256.2375,78.0,94.0
459,256.35,256.5075,78.0,97.0
460,256.65,256.97875,78.0,93.0
461,256.95,257.31125000000003,77.0,91.0
462,257.25,257.9925,75.0,90.0
463,258.45,258.625,75.0,106.0
464,258.75,258.915,75.0,91.0
465,259.05,259.30375,75.0,91.0
466,259.35,259.65375,70.0,93.0
467,259.65,260.34375,73.0,106.0
468,260.55,260.8775,66.0,92.0
469,260.85,261.04125,68.0,93.0
470,261.15,261.335,68.0,97.0
471,261.45,261.64,68.0,92.0
472,261.75,261.92,68.0,95.0
473,262.05,262.1975,68.0,90.0
474,262.35,262.66,68.0,91.0
475,262.65,262.91125,66.0,85.0
476,262.95,263.28000000000003,63.0,64.0
477,263.25,263.535,68.0,66.0
478,263.55,263.7425,70.0,87.0
479,263.85,264.02375,70.0,97.0
480,264.15,264.65875,70.0,99.0
481,264.75,265.11125,70.0,99.0
482,265.05,265.3225,68.0,97.0
483,265.35,265.70125,66.0,87.0
484,265.65,266.58375,68.0,99.0
485,266.55,268.1975,63.0,86.0
486,269.85,270.0575,63.0,90.0
487,270.15,270.37125000000003,63.0,75.0
488,270.45,270.92,70.0,91.0
489,271.05,271.29875,70.0,97.0
490,271.35,271.64,73.0,87.0
491,271.65,272.09875,68.0,97.0
492,272.25,272.4925,68.0,93.0
493,272.55,272.85875,70.0,96.0
494,272.85,273.45125,66.0,92.0
495,273.45,273.75375,63.0,89.0
496,273.75,274.39125,61.0,91.0
497,274.35,276.68375000000003,63.0,103.0
498,276.75,277.085,73.0,57.0
499,277.05,277.34250000000003,75.0,90.0
500,277.35,277.67,78.0,96.0
501,277.65000000000003,277.82375,80.0,89.0
502,277.95,278.14375,80.0,87.0
503,278.25,278.445,80.0,87.0
504,278.55,278.725,80.0,97.0
505,278.85,279.0375,80.0,92.0
506,279.15000000000003,279.31625,80.0,91.0
507,279.45,279.75,80.0,97.0
508,279.75,280.105,82.0,89.0
509,280.05,280.365,80.0,97.0
510,280.35,280.94625,78.0,100.0
511,280.95,281.455,75.0,93.0
512,282.45,282.635,75.0,97.0
513,282.75,282.9275,75.0,101.0
514,283.05,283.22625,75.0,91.0
515,283.35,283.535,75.0,92.0
516,283.65000000000003,283.83,75.0,90.0
517,283.95,284.10625,75.0,90.0
518,284.25,284.5325,75.0,90.0
519,284.55,284.83375,78.0,99.0
520,284.85,285.14375,75.0,97.0
521,285.15000000000003,285.355,73.0,91.0
522,285.45,286.0675,73.0,72.0
523,286.05,286.7475,70.0,87.0
524,286.95,287.21125,70.0,103.0
525,287.25,287.555,68.0,98.0
526,287.55,287.90875,70.0,97.0
527,287.85,288.1175,68.0,97.0
528,288.15000000000003,288.77500000000003,66.0,93.0
529,288.75,289.14625,63.0,100.0
530,289.35,289.61625,70.0,100.0
531,289.65000000000003,289.975,68.0,90.0
532,289.95,290.3225,70.0,87.0
533,290.25,290.55625000000003,68.0,84.0
534,290.55,291.1775,66.0,91.0
535,291.15000000000003,291.52875,63.0,82.0
536,291.75,292.03000000000003,63.0,76.0
537,292.05,292.1675,75.0,87.0
538,292.35,292.49625000000003,75.0,91.0
539,292.65000000000003,292.8125,75.0,96.0
540,292.95,293.11,75.0,95.0
541,293.25,293.82375,75.0,93.0
542,293.85,294.05625000000003,70.0,100.0
543,294.15000000000003,294.7275,75.0,100.0
544,294.75,295.56625,73.0,100.0
545,295.95,296.20625,73.0,97.0
546,296.25,296.45875,75.0,101.0
547,296.55,296.8925,78.0,97.0
548,296.85,297.40500000000003,80.0,97.0
549,297.45,297.65250000000003,80.0,94.0
550,297.75,297.915,80.0,77.0
551,298.05,298.46750000000003,80.0,105.0
552,298.65000000000003,298.97,80.0,100.0
553,298.95,299.2975,82.0,99.0
554,299.25,299.5825,80.0,105.0
555,299.55,300.095,78.0,106.0
556,300.15000000000003,300.80375,75.0,98.0
557,301.35,301.65500000000003,73.0,105.0
558,301.65000000000003,301.85125,75.0,92.0
559,301.95,302.1075,75.0,96.0
560,302.25,302.4325,75.0,89.0
561,302.55,302.72125,75.0,94.0
562,302.85,303.32375,75.0,94.0
563,303.45,303.73875,75.0,92.0
564,303.75,304.0575,78.0,87.0
565,304.05,304.35625,75.0,93.0
566,304.35,304.5225,73.0,97.0
567,304.65000000000003,305.19875,73.0,85.0
568,305.25,305.7525,70.0,87.0
569,306.15000000000003,306.43375000000003,70.0,98.0
570,306.45,306.7625,68.0,97.0
571,306.75,307.11375,70.0,93.0
572,307.05,307.33,68.0,93.0
573,307.35,307.91375,66.0,92.0
574,307.95,308.3475,63.0,90.0
575,308.55,308.84000000000003,70.0,101.0
576,308.85,309.16375,68.0,97.0
577,309.15000000000003,309.5075,70.0,93.0
578,309.45,309.77375,68.0,93.0
579,309.75,310.34250000000003,66.0,95.0
580,310.35,310.77375,63.0,66.0
581,310.95,311.25,63.0,76.0
582,311.25,311.45,75.0,87.0
583,311.55,311.74,75.0,68.0
584,311.85,312.02500000000003,75.0,98.0
585,312.15000000000003,312.3275,75.0,91.0
586,312.45,312.60875,75.0,90.0
587,312.75,312.90500000000003,75.0,90.0
588,313.05,313.32875,75.0,90.0
589,313.35,313.63625,78.0,90.0
590,313.65000000000003,313.96250000000003,75.0,93.0
591,313.95,314.28375,73.0,91.0
592,314.25,314.56625,75.0,95.0
593,314.55,315.1875,73.0,89.0
594,315.15000000000003,315.1875,73.0,93.0
595,315.45,315.745,75.0,91.0
596,315.75,316.09375,78.0,87.0
597,316.05,316.25375,80.0,95.0
598,316.35,316.56625,80.0,96.0
599,316.65000000000003,316.84625,80.0,93.0
600,316.95,317.12625,80.0,91.0
601,317.25,317.42,80.0,91.0
602,317.55,317.71625,80.0,90.0
603,317.85,318.1775,80.0,97.0
604,318.15000000000003,318.51375,82.0,97.0
605,318.45,318.7525,80.0,93.0
606,318.75,318.9175,78.0,87.0
607,319.05,319.63,78.0,83.0
608,319.65000000000003,320.2525,75.0,96.0
609,320.55,320.85625,73.0,108.0
610,320.85,321.05625000000003,75.0,95.0
611,321.15000000000003,321.3275,75.0,92.0
612,321.45,321.64125,75.0,97.0
613,321.75,321.92125,75.0,92.0
614,322.05,322.22125,75.0,94.0
615,322.35,322.5225,75.0,90.0
616,322.65000000000003,322.8975,75.0,99.0
617,322.95,323.21250000000003,78.0,91.0
618,323.25,323.505,75.0,98.0
619,323.55,323.74875000000003,73.0,94.0
620,323.85,324.41625,73.0,91.0
621,324.45,325.14,70.0,90.0
622,325.35,325.6275,70.0,97.0
623,325.65000000000003,325.97875,68.0,93.0
624,325.95,326.29,70.0,89.0
625,326.25,326.52875,68.0,89.0
626,326.55,326.85625,66.0,86.0
627,326.85,327.4275,63.0,71.0
628,327.75,328.04875,70.0,90.0
629,328.05,328.39875,68.0,93.0
630,328.35,328.71125,70.0,87.0
631,328.65000000000003,328.97375,68.0,84.0
632,328.95,329.54125,66.0,91.0
633,329.55,329.99375000000003,63.0,63.0
634,330.15000000000003,330.40875,63.0,86.0
635,330.45,330.65000000000003,75.0,79.0
636,330.75,330.92625,75.0,90.0
637,331.05,331.21500000000003,75.0,83.0
638,331.35,331.52875,75.0,87.0
639,331.65000000000003,331.87375000000003,75.0,90.0
640,331.95,332.52375,75.0,90.0
641,332.55,332.87875,78.0,89.0
642,332.85,333.16625,75.0,96.0
643,333.15000000000003,333.4975,73.0,90.0
644,333.45,333.71125,75.0,67.0
645,333.75,334.49125,73.0,87.0
646,334.35,334.49125,73.0,97.0
647,334.65000000000003,334.9075,75.0,95.0
648,334.95,335.33375,78.0,97.0
649,335.25,335.42375,80.0,89.0
650,335.55,335.76375,80.0,87.0
651,335.85,336.03625,80.0,90.0
652,336.15000000000003,336.34375,80.0,86.0
653,336.45,336.85375,80.0,97.0
654,337.05,337.395,80.0,101.0
655,337.35,337.69,82.0,96.0
656,337.65000000000003,337.95,80.0,99.0
657,337.95,338.16375,78.0,90.0
658,338.25,338.84375,78.0,90.0
659,338.85,339.58125,75.0,98.0
660,340.05,340.315,75.0,101.0
661,340.35,340.63875,75.0,101.0
662,340.65000000000003,340.915,75.0,95.0
663,340.95,341.24,75.0,94.0
664,341.25,341.68,75.0,105.0
665,341.85,342.1325,75.0,103.0
666,342.15000000000003,342.41125,78.0,94.0
667,342.45,342.7625,75.0,105.0
668,342.75,342.94625,73.0,97.0
669,343.05,343.61375,73.0,99.0
670,343.65000000000003,344.30125,70.0,98.0
671,344.55,344.8175,70.0,97.0
672,344.85,345.13,68.0,86.0
673,345.15000000000003,345.51125,70.0,95.0
674,345.45,345.7325,68.0,94.0
675,345.75,346.06125000000003,66.0,90.0
676,346.05,346.57875,63.0,77.0
677,346.95,347.3075,70.0,94.0
678,347.25,347.56375,68.0,94.0
679,347.55,347.9175,70.0,92.0
680,347.85,348.1275,68.0,89.0
681,348.15000000000003,348.69625,66.0,91.0
682,348.75,349.11125,63.0,74.0
683,349.95,350.26625,61.0,73.0
684,350.25,350.555,63.0,73.0
685,350.55,350.7375,66.0,66.0
686,350.85,351.29625,75.0,90.0
687,351.3,351.96,73.0,94.0
688,351.75,352.81375,70.0,100.0
689,353.25,353.84000000000003,68.0,96.0
690,353.85,354.15500000000003,68.0,97.0
691,354.15000000000003,354.45,70.0,91.0
692,354.45,354.78375,66.0,91.0
693,354.75,355.21625,63.0,100.0
694,355.35,357.34625,63.0,84.0
695,358.35,358.6675,61.0,66.0
696,358.65000000000003,358.955,63.0,73.0
697,358.95,359.1375,66.0,66.0
698,359.25,359.8125,75.0,90.0
699,359.85,360.37875,73.0,94.0
700,360.15000000000003,361.21500000000003,70.0,100.0
701,361.65000000000003,362.27500000000003,68.0,93.0
702,362.25,362.27500000000003,68.0,97.0
703,362.55,362.85,70.0,91.0
704,362.85,363.18375000000003,66.0,91.0
705,363.15000000000003,363.83125,63.0,100.0
706,363.90000000000003,365.71375,75.0,127.0
707,366.45,368.23125,78.0,100.0
708,368.85,375.97,82.0,127.0
709,418.35,418.60375,73.0,87.0
710,418.65000000000003,418.9075,75.0,95.0
711,418.95,419.33375,78.0,97.0
712,419.25,419.42375,80.0,89.0
713,419.55,419.76375,80.0,87.0
714,419.85,420.0375,80.0,90.0
715,420.15000000000003,420.34375,80.0,86.0
716,420.45,420.6725,80.0,97.0
717,420.75,420.87875,80.0,97.0
718,421.05,421.395,80.0,101.0
719,421.35,421.69,82.0,96.0
720,421.65000000000003,421.95,80.0,99.0
721,421.95,422.59000000000003,78.0,90.0
722,422.55,423.595,75.0,98.0
723,424.05,424.315,75.0,101.0
724,424.35,424.63875,75.0,101.0
725,424.65000000000003,424.915,75.0,95.0
726,424.95,425.24,75.0,94.0
727,425.25,425.4925,75.0,105.0
728,425.55,425.72875,75.0,105.0
729,425.85,426.1325,75.0,103.0
730,426.15000000000003,426.41125,78.0,94.0
731,426.45,426.7625,75.0,105.0
732,426.75,426.94625,73.0,97.0
733,427.05,427.61375,73.0,99.0
734,427.65000000000003,428.30125,70.0,98.0
735,428.55,428.8175,70.0,97.0
736,428.85,429.13,68.0,86.0
737,429.15000000000003,429.51125,70.0,95.0
738,429.45,429.7325,68.0,94.0
739,429.75,430.39125,66.0,90.0
740,430.35,430.8125,63.0,77.0
741,430.95,431.3075,70.0,94.0
742,431.25,431.56375,68.0,94.0
743,431.55,431.9175,70.0,92.0
744,431.85,432.1275,68.0,89.0
745,432.15000000000003,432.69625,66.0,91.0
746,432.75,433.1125,63.0,74.0
747,433.35,433.62875,63.0,76.0
748,433.65000000000003,433.76875,75.0,87.0
749,433.95,434.0975,75.0,91.0
750,434.25,434.41375,75.0,96.0
751,434.55,434.71000000000004,75.0,95.0
752,434.85,435.4225,75.0,93.0
753,435.45,435.65625,70.0,100.0
754,435.75,436.32625,75.0,100.0
755,436.35,437.16625,73.0,100.0
756,437.55,437.80625000000003,73.0,97.0
757,437.85,438.05875000000003,75.0,101.0
758,438.15000000000003,438.49375000000003,78.0,97.0
759,438.45,439.005,80.0,97.0
760,439.05,439.25125,80.0,94.0
761,439.35,439.51375,80.0,77.0
762,439.65000000000003,440.0675,80.0,105.0
763,440.25,440.57,80.0,100.0
764,440.55,440.89625,82.0,99.0
765,440.85,441.1825,80.0,105.0
766,441.15000000000003,441.695,78.0,106.0
767,441.75,442.40250000000003,75.0,98.0
768,442.95,443.255,73.0,105.0
769,443.25,443.45,75.0,92.0
770,443.55,443.7075,75.0,96.0
771,443.85,444.0325,75.0,89.0
772,444.15000000000003,444.32,75.0,94.0
773,444.45,444.925,75.0,94.0
774,445.05,445.34000000000003,75.0,92.0
775,445.35,445.65875,78.0,87.0
776,445.65000000000003,445.955,75.0,93.0
777,445.95,446.12125000000003,73.0,97.0
778,446.25,446.7975,73.0,85.0
779,446.85,447.3525,70.0,87.0
780,447.75,448.03375,70.0,98.0
781,448.05,448.36125,68.0,97.0
782,448.35,448.71375,70.0,93.0
783,448.65000000000003,448.93125000000003,68.0,93.0
784,448.95,449.51375,66.0,92.0
785,449.55,449.94875,63.0,90.0
786,450.15000000000003,450.44,70.0,101.0
787,450.45,450.76375,68.0,97.0
788,450.75,451.1075,70.0,93.0
789,451.05,451.3725,68.0,93.0
790,451.35,451.9425,66.0,95.0
791,451.95,452.37375000000003,63.0,66.0
792,452.55,452.695,63.0,76.0
793,452.85,453.05,75.0,87.0
794,453.15000000000003,453.34000000000003,75.0,68.0
795,453.45,453.62375000000003,75.0,98.0
796,453.75,453.92875000000004,75.0,91.0
797,454.05,454.21000000000004,75.0,90.0
798,454.35,454.505,75.0,90.0
799,454.65000000000003,454.93,75.0,90.0
800,454.95,455.235,78.0,90.0
801,455.25,455.56125000000003,75.0,93.0
802,455.55,455.88375,73.0,91.0
803,455.85,456.165,75.0,95.0
804,456.15000000000003,456.7875,73.0,89.0
805,456.75,456.7875,73.0,93.0
806,457.05,457.34375,75.0,91.0
807,457.35,457.69375,78.0,87.0
808,457.65000000000003,457.85375,80.0,95.0
809,457.95,458.165,80.0,96.0
810,458.25,458.445,80.0,93.0
811,458.55,458.725,80.0,91.0
812,458.85,459.02,80.0,91.0
813,459.15000000000003,459.31625,80.0,90.0
814,459.45,459.77875,80.0,97.0
815,459.75,460.1125,82.0,97.0
816,460.05,460.35125,80.0,93.0
817,460.35,460.5175,78.0,87.0
818,460.65000000000003,461.23125,78.0,83.0
819,461.25,461.8525,75.0,96.0
820,462.15000000000003,462.455,73.0,108.0
821,462.45,462.65625,75.0,95.0
822,462.75,462.92875000000004,75.0,92.0
823,463.05,463.24,75.0,97.0
824,463.35,463.52125,75.0,92.0
825,463.65000000000003,463.82,75.0,94.0
826,463.95,464.1225,75.0,90.0
827,464.25,464.49625000000003,75.0,99.0
828,464.55,464.8125,78.0,91.0
829,464.85,465.105,75.0,98.0
830,465.15000000000003,465.3475,73.0,94.0
831,465.45,466.01625,73.0,91.0
832,466.05,466.74,70.0,90.0
833,466.95,467.22625,70.0,97.0
834,467.25,467.58,68.0,93.0
835,467.55,467.88875,70.0,89.0
836,467.85,468.1275,68.0,89.0
837,468.15000000000003,468.4575,66.0,86.0
838,468.45,469.02750000000003,63.0,71.0
