,start,end,pitch,velocity
0,1.6500000000000001,2.39875,63.0,56.0
1,1.6500000000000001,3.12,70.0,53.0
2,1.6500000000000001,3.1350000000000002,66.0,63.0
3,3.15,3.69375,63.0,28.0
4,1.6500000000000001,3.7175000000000002,51.0,56.0
5,3.45,3.7175000000000002,65.0,48.0
6,3.45,3.75375,68.0,52.0
7,3.75,4.04375,70.0,58.0
8,1.6500000000000001,4.125,58.0,62.0
9,4.05,4.69625,65.0,46.0
10,4.05,4.79875,68.0,60.0
11,4.65,5.34625,63.0,48.0
12,4.95,5.565,66.0,55.0
13,4.95,5.57875,70.0,48.0
14,5.8500000000000005,6.0975,65.0,49.0
15,5.8500000000000005,6.1475,68.0,55.0
16,4.05,6.15875,51.0,53.0
17,5.55,6.18375,63.0,27.0
18,4.3500000000000005,6.28125,58.0,51.0
19,6.15,6.49875,66.0,51.0
20,6.15,6.51625,70.0,59.0
21,6.45,7.09875,65.0,51.0
22,6.45,7.296250000000001,68.0,54.0
23,7.3500000000000005,7.961250000000001,66.0,50.0
24,7.3500000000000005,7.97375,70.0,49.0
25,7.05,8.06125,63.0,51.0
26,6.45,8.1725,51.0,60.0
27,6.75,8.245000000000001,58.0,41.0
28,8.25,8.3375,68.0,59.0
29,8.25,8.3425,65.0,51.0
30,8.85,9.46625,61.0,51.0
31,8.85,9.48375,65.0,51.0
32,8.85,9.50625,68.0,51.0
33,9.75,10.1775,61.0,46.0
34,9.450000000000001,10.42125,58.0,47.0
35,10.05,10.60375,65.0,49.0
36,8.85,10.68375,46.0,56.0
37,9.15,10.71875,53.0,46.0
38,10.35,10.80875,68.0,56.0
39,10.65,10.950000000000001,58.0,63.0
40,11.25,11.7375,63.0,46.0
41,11.25,11.76875,65.0,44.0
42,11.25,11.8025,66.0,47.0
43,12.15,13.06,65.0,40.0
44,11.25,13.095,70.0,44.0
45,11.85,13.1325,63.0,48.0
46,11.25,13.2025,51.0,58.0
47,11.55,13.23,58.0,49.0
48,13.05,13.305,66.0,53.0
49,13.65,13.9825,61.0,59.0
50,13.65,14.01125,68.0,62.0
51,13.65,14.026250000000001,65.0,51.0
52,13.65,14.195,46.0,67.0
53,14.25,14.29875,61.0,29.0
54,13.950000000000001,14.31,58.0,35.0
55,14.55,15.0975,63.0,51.0
56,14.55,15.1425,66.0,66.0
57,14.55,15.64625,51.0,69.0
58,15.450000000000001,15.68875,65.0,58.0
59,15.15,15.71,58.0,46.0
60,15.450000000000001,15.748750000000001,68.0,53.0
61,15.75,15.8775,70.0,47.0
62,16.05,16.5375,65.0,50.0
63,16.05,16.708750000000002,68.0,52.0
64,16.65,17.392500000000002,63.0,45.0
65,16.95,17.5675,66.0,58.0
66,16.95,17.575,70.0,56.0
67,16.05,17.6375,51.0,56.0
68,16.35,17.650000000000002,58.0,47.0
69,18.45,18.7325,68.0,35.0
70,18.45,18.7875,46.0,56.0
71,18.45,18.795,53.0,60.0
72,18.45,18.795,56.0,57.0
73,18.45,18.798750000000002,61.0,64.0
74,18.45,18.835,65.0,60.0
75,19.35,20.03,61.0,60.0
76,19.35,20.06375,58.0,50.0
77,19.35,20.08875,66.0,50.0
78,19.35,20.39125,51.0,46.0
79,19.35,20.41875,39.0,55.0
80,20.25,20.4875,65.0,37.0
81,20.85,21.45,66.0,55.0
82,20.85,21.45,70.0,56.0
83,20.85,21.49875,75.0,63.0
84,21.75,22.181250000000002,65.0,55.0
85,21.45,22.62125,63.0,46.0
86,21.150000000000002,22.65875,58.0,46.0
87,22.05,22.66875,66.0,48.0
88,20.85,22.673750000000002,51.0,56.0
89,23.25,23.5275,44.0,59.0
90,23.55,23.92125,56.0,47.0
91,23.25,24.20625,63.0,53.0
92,23.25,24.295,68.0,57.0
93,23.25,24.79125,71.0,53.0
94,24.75,25.125,63.0,30.0
95,25.05,25.2425,68.0,43.0
96,24.150000000000002,25.423750000000002,59.0,52.0
97,23.85,25.44125,58.0,57.0
98,25.35,25.54,70.0,56.0
99,25.650000000000002,26.00125,63.0,48.0
100,25.650000000000002,26.04625,71.0,67.0
101,25.650000000000002,26.1925,68.0,44.0
102,26.25,26.646250000000002,63.0,48.0
103,26.55,27.181250000000002,68.0,57.0
104,27.150000000000002,27.5125,63.0,45.0
105,27.150000000000002,27.51375,70.0,46.0
106,25.95,27.515,59.0,49.0
107,25.650000000000002,27.535,56.0,44.0
108,28.05,28.65875,70.0,51.0
109,28.05,28.70375,66.0,49.0
110,28.95,29.65625,65.0,46.0
111,28.650000000000002,30.02,63.0,48.0
112,29.85,30.02,66.0,44.0
113,28.05,30.0375,51.0,52.0
114,28.35,30.0775,58.0,31.0
115,30.150000000000002,30.42875,68.0,52.0
116,30.45,31.080000000000002,66.0,50.0
117,30.45,31.122500000000002,70.0,54.0
118,31.35,31.5425,65.0,47.0
119,31.35,31.63375,68.0,46.0
120,31.650000000000002,31.7725,66.0,61.0
121,31.05,31.96875,63.0,49.0
122,31.650000000000002,32.0175,70.0,58.0
123,30.45,32.365,51.0,46.0
124,32.25,32.37,75.0,62.0
125,30.75,32.386250000000004,58.0,44.0
126,32.85,33.2275,61.0,61.0
127,32.85,33.230000000000004,65.0,67.0
128,32.85,33.24,68.0,61.0
129,33.45,33.85375,61.0,52.0
130,33.75,33.9775,65.0,48.0
131,34.05,34.39125,68.0,54.0
132,32.85,34.910000000000004,46.0,66.0
133,33.15,34.97125,58.0,45.0
134,34.35,35.00125,73.0,62.0
135,35.25,35.706250000000004,63.0,44.0
136,35.25,35.81125,68.0,70.0
137,35.25,35.8825,71.0,47.0
138,35.85,36.230000000000004,63.0,44.0
139,36.15,36.59625,68.0,51.0
140,35.550000000000004,36.705,56.0,44.0
141,36.75,37.06125,68.0,66.0
142,35.25,37.0725,44.0,75.0
143,36.75,37.1,63.0,56.0
144,37.050000000000004,37.268750000000004,56.0,44.0
145,37.65,38.05125,65.0,56.0
146,37.65,38.10375,61.0,50.0
147,37.65,38.2675,68.0,53.0
148,38.550000000000004,38.8125,65.0,60.0
149,38.85,39.09375,68.0,64.0
150,39.15,39.52875,70.0,56.0
151,37.65,39.58,46.0,61.0
152,37.95,39.5825,53.0,52.0
153,39.45,39.6825,73.0,36.0
154,38.25,39.9825,58.0,61.0
155,39.75,39.9975,77.0,55.0
156,40.050000000000004,40.64125,66.0,59.0
157,40.050000000000004,40.72,63.0,55.0
158,40.050000000000004,40.77125,70.0,58.0
159,40.95,41.42375,63.0,51.0
160,40.65,41.755,59.0,49.0
161,41.25,41.9075,66.0,57.0
162,40.050000000000004,41.94375,47.0,63.0
163,40.35,41.9675,54.0,55.0
164,41.85,42.0325,59.0,53.0
165,42.15,42.43375,68.0,46.0
166,42.45,43.105000000000004,66.0,56.0
167,42.45,43.14,70.0,50.0
168,43.35,43.58625,65.0,46.0
169,43.35,43.7325,68.0,48.0
170,43.050000000000004,43.75125,63.0,51.0
171,43.65,43.98625,66.0,56.0
172,43.65,44.04375,70.0,52.0
173,42.45,44.36625,51.0,67.0
174,44.25,44.3675,63.0,59.0
175,42.75,44.385,58.0,52.0
176,44.85,45.16375,44.0,57.0
177,45.15,45.5525,56.0,40.0
178,44.85,45.8225,68.0,56.0
179,44.85,45.835,63.0,51.0
180,44.85,45.92125,71.0,54.0
181,45.75,46.43625,59.0,62.0
182,46.050000000000004,46.4775,63.0,53.0
183,46.35,46.58375,68.0,57.0
184,46.65,46.825,71.0,49.0
185,45.45,46.97875,58.0,52.0
186,46.95,47.03,59.0,59.0
187,47.25,47.63375,70.0,51.0
188,47.25,47.65625,65.0,53.0
189,47.25,47.65875,61.0,52.0
190,47.550000000000004,48.4625,58.0,54.0
191,47.85,48.57,61.0,57.0
192,48.15,48.7425,70.0,61.0
193,48.15,48.7625,65.0,67.0
194,47.25,49.09125,46.0,63.0
195,49.050000000000004,49.30875,61.0,58.0
196,48.75,49.4675,58.0,45.0
197,49.35,49.54,70.0,49.0
198,49.65,50.1225,63.0,47.0
199,49.65,50.18375,66.0,46.0
200,49.65,50.25875,70.0,58.0
201,50.25,50.915,59.0,56.0
202,50.550000000000004,51.00125,63.0,50.0
203,50.85,51.167500000000004,66.0,66.0
204,49.95,51.29375,54.0,53.0
205,49.65,51.425000000000004,47.0,60.0
206,51.15,51.46,59.0,53.0
207,51.45,51.64,63.0,49.0
208,52.050000000000004,52.410000000000004,70.0,61.0
209,52.050000000000004,52.417500000000004,66.0,67.0
210,52.050000000000004,52.59625,51.0,72.0
211,52.35,52.7075,58.0,48.0
212,52.65,52.99625,70.0,56.0
213,53.25,53.862500000000004,61.0,56.0
214,53.25,53.89875,65.0,59.0
215,53.25,53.93375,46.0,61.0
216,53.25,53.97375,68.0,55.0
217,54.45,54.74,44.0,62.0
218,54.75,55.11125,56.0,44.0
219,54.45,55.11875,63.0,56.0
220,54.45,55.292500000000004,68.0,53.0
221,54.45,55.34375,71.0,53.0
222,55.35,55.97875,59.0,51.0
223,55.65,56.057500000000005,63.0,40.0
224,55.95,56.29625,68.0,64.0
225,55.050000000000004,56.3675,58.0,70.0
226,56.25,56.38875,71.0,66.0
227,56.85,57.28875,61.0,61.0
228,56.85,57.29625,70.0,62.0
229,56.85,57.3025,65.0,58.0
230,57.45,57.932500000000005,58.0,49.0
231,57.75,57.95375,70.0,33.0
232,57.75,58.213750000000005,61.0,56.0
233,57.15,58.50625,53.0,56.0
234,58.35,58.53,65.0,67.0
235,56.85,58.7125,46.0,66.0
236,58.65,58.715,53.0,26.0
237,58.65,58.77,58.0,49.0
238,59.25,59.99375,66.0,58.0
239,59.25,60.0175,68.0,61.0
240,60.15,60.28375,73.0,37.0
241,60.300000000000004,60.8875,66.0,21.0
242,59.25,61.36,75.0,62.0
243,60.75,61.38125,70.0,51.0
244,59.25,61.38875,51.0,70.0
245,59.85,61.4025,63.0,33.0
246,61.35,61.535000000000004,73.0,33.0
247,61.65,62.253750000000004,66.0,59.0
248,61.65,62.307500000000005,70.0,62.0
249,61.65,62.32625,75.0,64.0
250,62.550000000000004,63.51375,63.0,41.0
251,62.550000000000004,63.525,70.0,24.0
252,62.550000000000004,63.5275,66.0,32.0
253,61.65,63.5675,51.0,72.0
254,62.550000000000004,63.625,75.0,23.0
255,64.05,64.625,65.0,69.0
256,64.05,64.65,70.0,63.0
257,64.05,64.6875,61.0,62.0
258,64.05,64.705,58.0,62.0
259,64.05,64.7425,46.0,60.0
260,65.25,65.79,63.0,66.0
261,65.25,65.79875,66.0,54.0
262,65.25,65.80875,59.0,70.0
263,65.25,65.86125,44.0,58.0
264,65.25,65.88,56.0,58.0
265,66.45,68.355,63.0,59.0
266,66.45,68.3725,75.0,56.0
267,66.45,68.38125000000001,70.0,59.0
268,66.45,68.3875,51.0,58.0
269,66.45,68.3925,66.0,56.0
270,68.85000000000001,71.89,63.0,57.0
271,68.85000000000001,71.89625,66.0,53.0
272,68.85000000000001,71.91625,70.0,62.0
273,68.85000000000001,71.94500000000001,51.0,63.0
274,68.85000000000001,71.96125,75.0,57.0
275,73.65,74.385,66.0,66.0
276,73.65,74.415,70.0,59.0
277,74.55,75.08,63.0,42.0
278,74.55,75.4225,66.0,53.0
279,74.55,75.45625,65.0,52.0
280,74.55,75.50375,70.0,49.0
281,75.45,75.58500000000001,63.0,55.0
282,73.65,75.64875,58.0,56.0
283,73.65,75.6825,51.0,54.0
284,76.05,77.1975,56.0,63.0
285,76.05,77.27625,66.0,69.0
286,76.05,77.42125,63.0,58.0
287,76.05,77.47500000000001,68.0,63.0
288,77.4,77.8875,56.0,17.0
289,76.05,78.03625,71.0,62.0
290,77.85000000000001,78.16125,63.0,47.0
291,77.85000000000001,78.20875,68.0,45.0
292,76.05,78.23625,44.0,69.0
293,78.15,78.3625,56.0,57.0
294,78.45,78.58625,56.0,46.0
295,78.45,79.85625,66.0,60.0
296,78.45,79.9275,63.0,57.0
297,78.45,79.935,68.0,63.0
298,78.45,80.1725,71.0,61.0
299,78.45,80.315,44.0,66.0
300,80.25,80.33500000000001,71.0,40.0
301,79.95,80.45375,56.0,50.0
302,80.25,80.57875,63.0,67.0
303,80.25,80.88125000000001,68.0,72.0
304,80.85000000000001,81.54125,70.0,64.0
305,80.85000000000001,81.81375,66.0,63.0
306,82.05,82.38875,65.0,37.0
307,82.05,82.50750000000001,68.0,43.0
308,82.35000000000001,82.7,63.0,50.0
309,81.15,82.715,58.0,29.0
310,82.65,82.9,70.0,70.0
311,82.65,82.9275,66.0,73.0
312,80.85000000000001,82.9925,51.0,70.0
313,82.95,83.1725,58.0,61.0
314,83.25,84.215,65.0,64.0
315,83.25,84.63,70.0,61.0
316,83.25,84.68375,66.0,67.0
317,84.75,85.05,63.0,46.0
318,85.05,85.1975,65.0,75.0
319,83.25,85.20375,51.0,66.0
320,85.05,85.215,66.0,80.0
321,85.05,85.21625,70.0,75.0
322,85.65,85.78125,58.0,60.0
323,85.65,86.19125,61.0,69.0
324,85.65,87.08125,65.0,73.0
325,85.65,87.10000000000001,68.0,70.0
326,87.15,87.52,58.0,40.0
327,87.45,87.62,65.0,66.0
328,87.45,87.625,61.0,72.0
329,87.45,87.67625,68.0,69.0
330,85.65,87.78750000000001,46.0,72.0
331,87.75,87.84875,58.0,58.0
332,88.05,88.9925,63.0,66.0
333,88.05,89.11875,56.0,58.0
334,88.05,89.55375000000001,66.0,70.0
335,88.05,89.71375,71.0,73.0
336,89.55,89.985,56.0,48.0
337,88.05,89.99375,44.0,64.0
338,89.85000000000001,90.075,63.0,62.0
339,89.85000000000001,90.09,66.0,70.0
340,89.85000000000001,90.10125000000001,71.0,62.0
341,90.45,90.97125,61.0,70.0
342,90.45,91.04375,68.0,69.0
343,90.45,91.04875,65.0,72.0
344,91.05,91.8175,58.0,44.0
345,91.35000000000001,92.01,68.0,56.0
346,91.35000000000001,92.01375,61.0,56.0
347,91.35000000000001,92.01375,65.0,56.0
348,90.45,92.2925,46.0,72.0
349,91.95,92.32000000000001,58.0,46.0
350,92.25,92.43,65.0,69.0
351,92.25,92.44,61.0,70.0
352,92.25,92.49875,68.0,70.0
353,92.85000000000001,94.105,59.0,76.0
354,92.85000000000001,94.41875,63.0,69.0
355,92.85000000000001,94.4325,70.0,66.0
356,92.85000000000001,94.45,66.0,72.0
357,92.85000000000001,94.79625,47.0,75.0
358,94.35000000000001,94.85000000000001,59.0,46.0
359,94.65,94.95875,63.0,66.0
360,94.65,94.99375,68.0,70.0
361,94.95,95.11875,70.0,56.0
362,95.4,96.66250000000001,65.0,35.0
363,95.25,96.71875,70.0,64.0
364,95.25,96.745,66.0,73.0
365,96.75,97.14750000000001,63.0,44.0
366,95.25,97.20125,51.0,67.0
367,97.05,97.28750000000001,65.0,70.0
368,97.05,97.31625,70.0,72.0
369,97.05,97.325,66.0,73.0
370,97.35000000000001,97.41625,51.0,52.0
371,97.65,98.40125,68.0,63.0
372,97.65,99.06,66.0,67.0
373,97.65,99.0775,63.0,63.0
374,97.65,99.2,71.0,70.0
375,99.15,99.51375,56.0,44.0
376,99.45,99.68125,68.0,55.0
377,99.45,99.69625,63.0,62.0
378,99.45,99.7075,66.0,69.0
379,99.45,99.71625,71.0,56.0
380,97.65,99.745,44.0,66.0
381,99.75,99.87,56.0,64.0
382,100.05,100.47125,70.0,66.0
383,100.05,100.53750000000001,61.0,66.0
384,100.05,100.5875,65.0,69.0
385,100.35000000000001,101.42,58.0,41.0
386,100.95,101.61,65.0,61.0
387,100.65,101.62,61.0,44.0
388,100.95,101.63125000000001,70.0,54.0
389,101.55,101.96375,58.0,30.0
390,101.85000000000001,102.02250000000001,61.0,59.0
391,100.05,102.16625,46.0,73.0
392,102.15,102.2625,58.0,63.0
393,102.45,103.28875000000001,70.0,66.0
394,102.45,103.3,66.0,63.0
395,102.45,103.3225,75.0,66.0
396,103.65,104.16,75.0,45.0
397,102.45,104.17750000000001,63.0,58.0
398,103.65,104.19,70.0,50.0
399,103.65,104.22875,66.0,44.0
400,102.45,104.28,51.0,60.0
401,104.85000000000001,105.55375000000001,75.0,61.0
402,104.85000000000001,105.5825,70.0,63.0
403,104.85000000000001,105.60125000000001,66.0,60.0
404,104.85000000000001,105.6025,63.0,49.0
405,104.85000000000001,105.66875,51.0,70.0
406,106.05,106.69375000000001,61.0,51.0
407,106.05,106.7775,49.0,66.0
408,106.05,106.78,65.0,62.0
409,106.05,106.78750000000001,68.0,69.0
410,106.05,106.80125,73.0,64.0
411,107.25,107.705,63.0,67.0
412,107.25,107.71875,68.0,66.0
413,107.25,107.86,71.0,69.0
414,108.15,109.12375,68.0,50.0
415,107.25,109.1375,44.0,64.0
416,108.15,109.14750000000001,71.0,55.0
417,107.85000000000001,109.18125,63.0,40.0
418,107.55,109.24375,56.0,48.0
419,109.65,110.43,70.0,57.0
420,109.65,110.44,65.0,62.0
421,109.65,110.6425,61.0,63.0
422,109.65,111.32125,46.0,67.0
423,110.85000000000001,111.38125000000001,61.0,58.0
424,110.85000000000001,111.38875,65.0,61.0
425,109.65,111.43375,58.0,67.0
426,110.85000000000001,111.43875,70.0,56.0
427,112.05,112.92125,70.0,61.0
428,112.05,112.93375,66.0,62.0
429,112.05,112.94500000000001,75.0,64.0
430,113.25,114.10625,75.0,45.0
431,113.25,114.12,70.0,55.0
432,113.25,114.13875,66.0,44.0
433,112.05,114.32625,51.0,58.0
434,114.45,115.31875000000001,70.0,58.0
435,114.45,115.33375000000001,66.0,50.0
436,114.45,115.37375,75.0,49.0
437,114.45,116.0875,63.0,51.0
438,114.45,116.10000000000001,51.0,41.0
439,115.65,116.2525,70.0,66.0
440,115.65,116.25875,75.0,59.0
441,115.65,116.2825,66.0,56.0
442,116.25,116.3575,63.0,51.0
443,116.25,116.41250000000001,51.0,72.0
444,116.85000000000001,117.58375000000001,65.0,42.0
445,116.85000000000001,117.6025,61.0,61.0
446,116.85000000000001,117.62,46.0,63.0
447,116.85000000000001,117.65375,68.0,53.0
448,116.85000000000001,117.69500000000001,58.0,56.0
449,118.05,118.65,44.0,62.0
450,118.05,118.69,66.0,53.0
451,118.05,118.73,68.0,59.0
452,118.05,118.76,71.0,59.0
453,118.05,118.77250000000001,56.0,60.0
454,118.05,118.85625,63.0,59.0
455,119.25,120.25750000000001,66.0,69.0
456,119.25,120.30625,70.0,60.0
457,120.45,121.135,68.0,49.0
458,120.45,121.185,65.0,49.0
459,120.45,121.3575,63.0,42.0
460,121.05,121.49000000000001,66.0,57.0
461,121.05,121.5425,70.0,52.0
462,122.25,123.4325,66.0,1.0
463,121.65,123.57625,75.0,66.0
464,121.65,123.63625,63.0,32.0
465,119.25,123.64750000000001,51.0,60.0
466,124.05,124.22875,39.0,69.0
467,124.05,124.23,51.0,64.0
468,124.05,124.2375,66.0,64.0
469,124.05,124.24375,58.0,60.0
470,124.05,124.2675,63.0,70.0
471,124.35000000000001,124.58375000000001,58.0,70.0
472,124.35000000000001,124.5875,63.0,73.0
473,124.35000000000001,124.59125,51.0,72.0
474,124.35000000000001,124.59375,39.0,76.0
475,124.35000000000001,124.59375,66.0,72.0
476,125.10000000000001,125.6225,61.0,76.0
477,125.10000000000001,125.64125,58.0,62.0
478,125.10000000000001,125.65,63.0,70.0
479,125.10000000000001,125.6575,66.0,72.0
480,125.10000000000001,125.8925,51.0,73.0
481,125.10000000000001,126.09125,39.0,76.0
482,125.85000000000001,126.14375,58.0,70.0
483,125.85000000000001,126.14375,61.0,73.0
484,125.85000000000001,126.15875,63.0,72.0
485,125.85000000000001,126.17750000000001,66.0,58.0
486,126.15,126.265,51.0,76.0
487,126.45,126.8775,63.0,69.0
488,126.45,126.93875,66.0,80.0
489,126.45,126.98625,71.0,78.0
490,127.05,127.18875,63.0,56.0
491,126.75,127.57125,56.0,39.0
492,127.35000000000001,127.6275,66.0,76.0
493,127.35000000000001,127.66,71.0,69.0
494,127.35000000000001,127.7225,63.0,73.0
495,127.65,127.88000000000001,56.0,55.0
496,127.95,128.12375,63.0,80.0
497,127.95,128.23,70.0,78.0
498,127.95,128.285,66.0,80.0
499,128.25,128.38875000000002,56.0,44.0
500,128.4,128.48250000000002,66.0,76.0
501,128.4,128.50875,63.0,70.0
502,128.4,128.55,71.0,76.0
503,126.45,128.5575,44.0,78.0
504,128.55,128.65875,56.0,62.0
505,128.85,129.17875,70.0,75.0
506,128.85,129.1975,66.0,76.0
507,129.45,129.645,65.0,76.0
508,129.45,129.7,68.0,76.0
509,129.75,129.785,65.0,57.0
510,129.75,129.85125,66.0,78.0
511,129.75,129.8875,70.0,80.0
512,130.2,130.48,63.0,66.0
513,130.35,130.5425,66.0,72.0
514,129.15,130.67625,58.0,32.0
515,128.85,130.69125,51.0,70.0
516,130.5,130.7075,68.0,66.0
517,130.65,130.85125,70.0,66.0
518,130.8,131.085,73.0,75.0
519,131.25,131.64625,66.0,73.0
520,131.25,131.65,63.0,76.0
521,131.25,131.6725,71.0,72.0
522,132.15,132.36875,66.0,69.0
523,132.15,132.37375,71.0,72.0
524,132.15,132.385,63.0,69.0
525,131.7,132.59875,59.0,72.0
526,131.55,132.6175,54.0,49.0
527,132.6,132.6975,66.0,72.0
528,132.6,132.7075,70.0,76.0
529,132.6,132.71125,61.0,76.0
530,133.05,133.1575,54.0,11.0
531,132.9,133.16,59.0,57.0
532,133.05,133.24,66.0,76.0
533,133.05,133.24,71.0,76.0
534,133.05,133.25,63.0,73.0
535,133.35,133.3875,54.0,52.0
536,131.25,133.4475,47.0,75.0
537,133.65,134.0125,70.0,72.0
538,133.65,134.02375,61.0,72.0
539,133.65,134.0275,65.0,75.0
540,134.25,134.52625,61.0,66.0
541,133.95,134.72375,58.0,47.0
542,134.55,135.18,61.0,61.0
543,134.55,135.20125000000002,70.0,72.0
544,134.55,135.21375,65.0,80.0
545,135.15,135.48250000000002,58.0,69.0
546,133.65,135.5825,46.0,82.0
547,135.45,135.6325,61.0,75.0
548,135.45,135.64000000000001,65.0,75.0
549,135.45,135.65875,70.0,78.0
550,135.75,135.82,58.0,47.0
551,135.75,135.89000000000001,46.0,63.0
552,136.05,136.18,66.0,61.0
553,136.05,136.3875,44.0,76.0
554,136.35,136.69625,56.0,61.0
555,136.05,136.98875,68.0,73.0
556,136.05,136.99625,71.0,76.0
557,136.05,137.04875,63.0,61.0
558,136.95000000000002,137.68125,59.0,67.0
559,137.25,137.735,63.0,57.0
560,137.55,137.76375000000002,68.0,66.0
561,137.85,138.065,63.0,66.0
562,137.85,138.065,70.0,66.0
563,136.65,138.10375,58.0,61.0
564,138.15,138.24,59.0,72.0
565,138.45000000000002,138.81375,71.0,76.0
566,138.45000000000002,138.84375,63.0,72.0
567,138.45000000000002,138.875,68.0,69.0
568,139.05,139.22875,63.0,61.0
569,139.05,139.255,71.0,78.0
570,139.35,139.42000000000002,71.0,73.0
571,138.75,139.475,56.0,55.0
572,139.35,139.6725,63.0,70.0
573,139.35,139.81375,70.0,70.0
574,139.65,139.96375,56.0,47.0
575,139.95000000000002,139.9875,70.0,43.0
576,139.95000000000002,140.36375,61.0,73.0
577,138.45000000000002,140.41375,44.0,76.0
578,140.25,140.4625,56.0,55.0
579,139.95000000000002,140.47625,68.0,75.0
580,140.55,140.67375,61.0,48.0
581,140.85,141.38375,66.0,70.0
582,140.85,141.4175,63.0,66.0
583,140.85,141.4475,71.0,69.0
584,141.75,141.94125,63.0,58.0
585,141.75,141.9675,71.0,60.0
586,142.05,142.19875,70.0,69.0
587,142.05,142.21375,63.0,66.0
588,141.45000000000002,142.435,59.0,76.0
589,142.35,142.70125000000002,63.0,58.0
590,142.35,142.7675,71.0,66.0
591,141.15,142.93375,54.0,60.0
592,142.65,142.95000000000002,59.0,62.0
593,140.85,142.95875,47.0,76.0
594,142.95000000000002,143.055,63.0,62.0
595,142.95000000000002,143.095,75.0,67.0
596,143.25,143.62375,65.0,64.0
597,143.25,143.63125,61.0,63.0
598,143.25,143.6575,68.0,72.0
599,143.85,144.04875,61.0,58.0
600,143.55,144.235,58.0,59.0
601,144.15,144.27,61.0,51.0
602,144.15,144.51625,65.0,59.0
603,144.45000000000002,144.63,68.0,64.0
604,144.75,144.85,65.0,51.0
605,144.75,144.89125,61.0,66.0
606,144.75,144.91875000000002,73.0,63.0
607,144.45000000000002,145.13375,58.0,64.0
608,145.05,145.21875,65.0,64.0
609,145.05,145.24,61.0,52.0
610,145.05,145.26625,73.0,67.0
611,143.25,145.41,46.0,73.0
612,145.35,145.4625,61.0,59.0
613,145.35,145.4725,58.0,55.0
614,145.35,145.4875,71.0,59.0
615,145.65,145.9875,44.0,70.0
616,145.65,146.06625,63.0,67.0
617,145.65,146.095,68.0,73.0
618,145.65,146.10750000000002,72.0,73.0
619,145.95000000000002,146.32375,56.0,53.0
620,146.25,146.4875,63.0,55.0
621,146.25,146.72375,70.0,63.0
622,146.55,146.9475,60.0,70.0
623,146.85,147.20000000000002,63.0,73.0
624,146.85,147.205,68.0,72.0
625,146.85,147.24125,72.0,75.0
626,147.15,147.425,60.0,53.0
627,146.25,147.62,58.0,72.0
628,147.45000000000002,147.6425,68.0,69.0
629,147.45000000000002,147.67875,63.0,54.0
630,147.45000000000002,147.7275,75.0,73.0
631,147.75,147.84375,58.0,52.0
632,148.05,148.31,65.0,73.0
633,148.05,148.31375,68.0,69.0
634,148.35,148.50875,63.0,61.0
635,148.35,148.59,66.0,73.0
636,148.65,148.73250000000002,66.0,70.0
637,148.65,148.79,70.0,70.0
638,148.95000000000002,149.3625,63.0,50.0
639,149.25,149.6425,70.0,59.0
640,149.25,149.7075,78.0,66.0
641,148.35,149.79375000000002,58.0,63.0
642,149.55,149.8375,63.0,48.0
643,149.85,149.90125,58.0,46.0
644,149.85,149.99625,70.0,73.0
645,148.05,150.00125,51.0,73.0
646,149.85,150.035,75.0,78.0
647,150.15,150.23,68.0,46.0
648,150.15,150.245,49.0,63.0
649,150.15,150.37875,73.0,60.0
650,150.6,150.925,66.0,11.0
651,150.45000000000002,151.04125,71.0,41.0
652,150.45000000000002,151.09875,63.0,63.0
653,151.35,151.43625,66.0,66.0
654,151.35,151.46625,63.0,69.0
655,151.35,151.52875,71.0,72.0
656,151.65,151.79,61.0,62.0
657,151.65,151.805,70.0,69.0
658,151.05,152.07,59.0,70.0
659,150.75,152.14125,54.0,67.0
660,151.95000000000002,152.175,63.0,63.0
661,151.95000000000002,152.31375,71.0,75.0
662,150.45000000000002,152.5175,47.0,72.0
663,152.25,152.52375,54.0,34.0
664,152.25,152.52375,59.0,56.0
665,152.55,152.60625000000002,66.0,54.0
666,152.55,152.6425,63.0,63.0
667,152.55,152.685,73.0,70.0
668,152.85,153.14375,66.0,58.0
669,152.85,153.1975,61.0,63.0
670,152.85,153.30375,70.0,66.0
671,153.45000000000002,153.68,61.0,59.0
672,153.15,153.8475,58.0,60.0
673,153.75,154.13750000000002,65.0,73.0
674,153.75,154.15375,61.0,70.0
675,153.75,154.1625,68.0,69.0
676,154.05,154.5,58.0,53.0
677,154.35,154.65875,61.0,58.0
678,154.35,154.71,73.0,62.0
679,154.65,154.80625,58.0,52.0
680,152.85,154.84875,46.0,76.0
681,154.65,154.92375,68.0,64.0
682,154.95000000000002,155.21875,73.0,61.0
683,155.25,155.7725,44.0,70.0
684,155.55,155.86,51.0,56.0
685,155.85,156.23375000000001,56.0,69.0
686,155.25,156.495,63.0,59.0
687,155.25,156.5025,71.0,76.0
688,156.15,156.88375,58.0,62.0
689,156.75,156.98250000000002,63.0,62.0
690,156.45000000000002,157.01375000000002,59.0,61.0
691,157.05,157.30375,68.0,69.0
692,157.35,157.55875,70.0,67.0
693,157.65,158.02375,68.0,61.0
694,157.65,158.085,63.0,60.0
695,157.95000000000002,158.22,70.0,76.0
696,157.65,158.245,44.0,70.0
697,157.95000000000002,158.29,51.0,62.0
698,158.25,158.48375000000001,63.0,60.0
699,158.25,158.505,68.0,72.0
700,158.25,158.6025,56.0,60.0
701,158.55,158.9175,63.0,55.0
702,158.55,158.97375,70.0,67.0
703,158.85,159.3625,59.0,63.0
704,158.55,159.43125,58.0,64.0
705,159.15,159.475,68.0,76.0
706,159.15,159.5275,63.0,72.0
707,159.45000000000002,159.62875,66.0,76.0
708,159.75,159.99125,68.0,64.0
709,160.05,160.395,75.0,49.0
710,160.05,160.485,63.0,45.0
711,160.05,160.5825,66.0,59.0
712,160.95000000000002,161.13625,63.0,51.0
713,160.95000000000002,161.13625,75.0,49.0
714,160.95000000000002,161.15,66.0,62.0
715,160.65,161.25,59.0,72.0
716,161.25,161.50875,75.0,73.0
717,161.25,161.53375,63.0,66.0
718,161.25,161.55375,66.0,72.0
719,161.4,161.66875000000002,59.0,49.0
720,161.70000000000002,161.935,63.0,57.0
721,161.70000000000002,161.955,66.0,63.0
722,161.70000000000002,161.9675,73.0,75.0
723,160.35,162.12625,54.0,62.0
724,161.85,162.14375,59.0,62.0
725,160.05,162.1625,47.0,70.0
726,162.15,162.23125000000002,63.0,49.0
727,162.15,162.33625,70.0,66.0
728,162.45000000000002,162.81375,65.0,52.0
729,162.45000000000002,162.82750000000001,68.0,64.0
730,162.45000000000002,162.84,61.0,73.0
731,163.05,163.28,61.0,54.0
732,162.75,163.455,58.0,63.0
733,163.35,163.75,61.0,72.0
734,163.35,163.76500000000001,65.0,73.0
735,163.35,163.77875,68.0,72.0
736,163.65,164.0825,58.0,52.0
737,163.95000000000002,164.18125,68.0,44.0
738,163.95000000000002,164.29875,61.0,72.0
739,162.45000000000002,164.38375,46.0,70.0
740,164.25,164.42375,65.0,75.0
741,164.25,164.43125,58.0,58.0
742,164.55,164.73875,73.0,72.0
743,164.85,165.16,44.0,70.0
744,164.85,165.2525,63.0,59.0
745,164.85,165.30625,68.0,69.0
746,164.85,165.31625,75.0,66.0
747,165.15,165.53,56.0,47.0
748,165.45000000000002,165.6175,63.0,57.0
749,165.45000000000002,165.71,72.0,63.0
750,165.75,166.15375,63.0,69.0
751,165.75,166.18375,70.0,75.0
752,166.05,166.46125,60.0,61.0
753,166.35,166.63625,63.0,70.0
754,166.35,166.665,68.0,75.0
755,165.45000000000002,166.75,58.0,69.0
756,166.65,166.75875,60.0,67.0
757,166.8,166.995,63.0,69.0
758,166.95000000000002,167.185,68.0,72.0
759,167.1,167.46125,75.0,61.0
760,167.25,167.69125,70.0,67.0
761,167.25,167.73,66.0,52.0
762,167.85,168.20375,63.0,66.0
763,168.15,168.32750000000001,65.0,67.0
764,168.15,168.44875,68.0,69.0
765,168.45000000000002,168.5575,66.0,70.0
766,168.45000000000002,168.6775,70.0,72.0
767,167.55,168.8325,58.0,51.0
768,168.45000000000002,168.88125,63.0,56.0
769,167.25,168.91125,51.0,66.0
770,168.75,168.945,73.0,69.0
771,168.75,169.05,66.0,67.0
772,169.05,169.245,65.0,69.0
773,169.05,169.27,49.0,63.0
774,169.05,169.3125,70.0,67.0
775,169.35,169.625,68.0,67.0
776,169.65,170.19875,66.0,66.0
777,169.65,170.2425,70.0,64.0
778,169.65,170.3675,63.0,63.0
779,170.25,170.71625,59.0,60.0
780,170.55,171.22375,66.0,75.0
781,170.55,171.27,63.0,64.0
782,171.15,171.5525,59.0,58.0
783,169.95000000000002,171.5875,54.0,58.0
784,169.65,171.67375,47.0,76.0
785,171.45000000000002,171.715,63.0,76.0
786,171.6,171.92875,66.0,48.0
787,171.75,171.9325,68.0,60.0
788,171.9,172.12125,73.0,29.0
789,172.05,172.465,61.0,60.0
790,172.05,172.4775,66.0,59.0
791,172.05,172.74,70.0,50.0
792,172.65,172.82125,61.0,59.0
793,172.65,172.95125000000002,68.0,62.0
794,172.35,173.0375,54.0,60.0
795,172.95000000000002,173.4,66.0,66.0
796,172.95000000000002,173.42375,61.0,63.0
797,172.95000000000002,173.43625,70.0,66.0
798,173.55,173.7875,61.0,64.0
799,173.25,173.9475,54.0,44.0
800,173.85,174.1875,66.0,78.0
801,172.05,174.20375,42.0,67.0
802,174.15,174.30375,70.0,72.0
803,174.15,174.355,54.0,53.0
804,174.45000000000002,174.9725,44.0,75.0
805,174.75,175.03125,51.0,61.0
806,175.05,175.4,56.0,53.0
807,174.45000000000002,175.61875,68.0,70.0
808,174.45000000000002,175.6425,71.0,61.0
809,174.45000000000002,175.64625,63.0,58.0
810,175.95000000000002,176.05625,66.0,73.0
811,175.65,176.0575,59.0,67.0
812,175.95000000000002,176.09125,78.0,64.0
813,176.25,176.355,68.0,60.0
814,175.35,176.36875,58.0,62.0
815,176.25,176.36875,59.0,64.0
816,176.25,176.37875,80.0,53.0
817,176.55,176.66625,70.0,66.0
818,176.55,176.69625,82.0,76.0
819,176.85,177.26625,80.0,78.0
820,176.85,177.2975,68.0,63.0
821,176.85,177.45250000000001,44.0,69.0
822,177.15,177.4925,51.0,70.0
823,177.45000000000002,177.80125,56.0,67.0
824,177.45000000000002,178.03,80.0,75.0
825,177.45000000000002,178.0575,68.0,54.0
826,178.35,178.44,66.0,58.0
827,178.35,178.49,78.0,67.0
828,177.75,178.71875,58.0,69.0
829,178.05,178.72,59.0,57.0
830,178.65,178.75125,68.0,57.0
831,178.65,178.7975,80.0,67.0
832,178.95000000000002,179.04375000000002,70.0,44.0
833,178.95000000000002,179.0925,82.0,62.0
834,179.25,179.51375000000002,83.0,42.0
835,179.25,179.60875000000001,71.0,52.0
836,179.85,180.2575,59.0,52.0
837,180.15,180.38625,66.0,51.0
838,180.15,180.43625,63.0,63.0
839,180.15,180.43625,71.0,72.0
840,180.75,180.80375,66.0,46.0
841,180.45000000000002,180.83125,59.0,44.0
842,180.75,180.85375,61.0,63.0
843,180.75,180.8825,70.0,61.0
844,181.05,181.20000000000002,66.0,57.0
845,181.05,181.21625,63.0,60.0
846,181.05,181.24875,71.0,53.0
847,179.55,181.26125,54.0,60.0
848,181.05,181.27875,59.0,66.0
849,179.25,181.32125,47.0,72.0
850,181.65,182.02625,65.0,63.0
851,181.65,182.035,61.0,62.0
852,181.65,182.06,73.0,56.0
853,181.65,182.06875,68.0,64.0
854,181.65,182.37,46.0,75.0
855,181.95000000000002,182.40375,58.0,56.0
856,182.25,182.44,61.0,50.0
857,182.55,183.08625,65.0,69.0
858,182.55,183.10875000000001,61.0,69.0
859,182.55,183.125,68.0,69.0
860,182.55,183.135,73.0,47.0
861,183.45000000000002,183.55125,73.0,46.0
862,183.45000000000002,183.555,65.0,61.0
863,183.45000000000002,183.5725,61.0,67.0
864,183.45000000000002,183.65,68.0,70.0
865,184.05,184.3325,44.0,67.0
866,184.35,184.72625,56.0,49.0
867,184.05,184.735,72.0,73.0
868,184.05,184.77375,68.0,73.0
869,184.05,184.78125,63.0,69.0
870,184.95000000000002,185.35750000000002,60.0,72.0
871,185.25,185.3675,68.0,54.0
872,185.25,185.375,63.0,61.0
873,185.25,185.45125000000002,75.0,72.0
874,185.55,185.90875,60.0,60.0
875,184.65,186.07375,58.0,64.0
876,185.85,186.1,80.0,73.0
877,185.85,186.1175,75.0,63.0
878,186.15,186.4325,82.0,61.0
879,186.45000000000002,187.0225,80.0,70.0
880,186.45000000000002,187.03625,75.0,64.0
881,187.05,187.45250000000001,63.0,61.0
882,187.35,187.53625,70.0,63.0
883,187.35,187.75375,75.0,75.0
884,186.75,188.01125,58.0,51.0
885,187.65,188.0575,63.0,41.0
886,187.95000000000002,188.07,68.0,70.0
887,187.95000000000002,188.1425,73.0,72.0
888,188.25,188.32125,68.0,49.0
889,186.45000000000002,188.32875,51.0,72.0
890,188.25,188.38625,58.0,70.0
891,188.25,188.3925,70.0,45.0
892,188.55,188.65,49.0,73.0
893,188.25,188.72875,75.0,56.0
894,188.85,189.15375,75.0,62.0
895,188.85,189.20375,70.0,59.0
896,189.45000000000002,189.86125,59.0,67.0
897,189.75,190.11375,63.0,64.0
898,189.75,190.12,66.0,63.0
899,189.75,190.26,70.0,69.0
900,190.05,190.4375,59.0,58.0
901,190.35,190.51500000000001,61.0,64.0
902,190.35,190.65625,68.0,70.0
903,190.65,190.81,59.0,67.0
904,190.65,190.83375,66.0,55.0
905,190.65,190.8625,63.0,61.0
906,189.15,190.9075,54.0,62.0
907,190.65,190.9425,70.0,69.0
908,190.95000000000002,191.0325,59.0,63.0
909,190.95000000000002,191.04,54.0,46.0
910,188.85,191.04875,47.0,73.0
911,190.95000000000002,191.055,70.0,48.0
912,191.25,191.64000000000001,65.0,66.0
913,191.25,191.6425,61.0,60.0
914,191.25,191.67375,68.0,63.0
915,191.85,192.04625000000001,61.0,67.0
916,191.55,192.5525,58.0,54.0
917,192.15,192.78875,65.0,66.0
918,192.15,192.79,61.0,60.0
919,192.15,192.81625,68.0,62.0
920,192.75,193.09,58.0,45.0
921,193.05,193.1925,65.0,54.0
922,193.05,193.25625,61.0,59.0
923,193.05,193.305,68.0,67.0
924,191.25,193.445,46.0,76.0
925,193.35,193.44875000000002,58.0,69.0
926,193.65,193.955,44.0,70.0
927,193.95000000000002,194.39625,56.0,50.0
928,193.65,194.53,63.0,62.0
929,193.65,194.53,66.0,69.0
930,193.65,194.66125,71.0,69.0
931,194.55,195.2075,59.0,63.0
932,194.85,195.25375,63.0,64.0
933,195.15,195.4475,68.0,73.0
934,194.25,195.5825,58.0,59.0
935,195.45000000000002,195.615,59.0,70.0
936,195.45000000000002,195.715,70.0,63.0
937,195.75,195.95375,71.0,70.0
938,196.05,196.48875,63.0,58.0
939,196.05,196.51,68.0,72.0
940,196.05,196.51500000000001,44.0,72.0
941,196.35,196.67375,51.0,66.0
942,196.35,196.75,70.0,66.0
943,196.65,196.99625,56.0,62.0
944,196.65,196.99875,68.0,69.0
945,196.65,197.35875000000001,63.0,57.0
946,196.95000000000002,197.3675,66.0,66.0
947,197.25,197.71125,59.0,62.0
948,197.55,197.775,63.0,56.0
949,197.85,197.92625,63.0,43.0
950,197.85,197.95250000000001,59.0,63.0
951,196.95000000000002,197.95625,58.0,60.0
952,197.85,198.03875,66.0,73.0
953,198.15,198.44,68.0,63.0
954,198.45000000000002,200.275,42.0,72.0
955,198.45000000000002,200.3075,66.0,70.0
956,198.45000000000002,200.31875,54.0,67.0
957,198.45000000000002,200.34625,61.0,66.0
958,198.45000000000002,200.42875,70.0,67.0
959,200.85,203.595,58.0,62.0
960,200.85,203.72375,46.0,59.0
961,200.85,203.7675,65.0,69.0
962,200.85,203.835,61.0,63.0
963,200.85,203.98625,68.0,64.0
964,204.3,206.98875,63.0,57.0
965,206.85,206.98875,63.0,60.0
966,204.3,207.155,66.0,63.0
967,206.85,207.155,66.0,62.0
968,204.3,207.16750000000002,51.0,70.0
969,206.85,207.16750000000002,51.0,63.0
970,207.15,207.38,65.0,64.0
971,207.15,207.46875,68.0,66.0
972,207.15,207.48375000000001,53.0,53.0
973,207.45000000000002,207.57875,54.0,76.0
974,207.45000000000002,207.61125,66.0,69.0
975,204.3,207.6125,70.0,57.0
976,207.45000000000002,207.6125,70.0,67.0
977,208.05,208.48625,66.0,61.0
978,208.05,208.4975,63.0,58.0
979,208.05,208.52,70.0,58.0
980,208.05,208.53875,73.0,61.0
981,208.05,208.60875000000001,59.0,67.0
982,208.65,209.5725,59.0,48.0
983,208.95000000000002,209.7525,70.0,47.0
984,208.95000000000002,209.85375,66.0,54.0
985,208.95000000000002,209.87125,75.0,48.0
986,208.05,210.06125,54.0,67.0
987,208.05,210.1025,47.0,67.0
988,209.85,210.10625000000002,59.0,56.0
989,210.45000000000002,210.77625,61.0,57.0
990,210.45000000000002,210.83875,65.0,61.0
991,210.45000000000002,210.845,68.0,57.0
992,210.45000000000002,210.905,73.0,57.0
993,211.95000000000002,212.1925,85.0,45.0
994,211.95000000000002,212.19625,80.0,52.0
995,211.95000000000002,212.21625,77.0,50.0
996,211.95000000000002,212.235,73.0,49.0
997,210.45000000000002,212.55,47.0,66.0
998,210.45000000000002,212.58625,59.0,69.0
999,212.85,213.17375,61.0,51.0
1000,212.85,213.33875,65.0,64.0
1001,212.85,213.39125,68.0,62.0
1002,213.45000000000002,213.96875,61.0,49.0
1003,213.75,214.27625,63.0,47.0
1004,213.75,214.29875,68.0,50.0
1005,213.75,214.30625,65.0,54.0
1006,213.75,214.38125,73.0,52.0
1007,214.35,214.7725,61.0,33.0
1008,213.15,214.82625000000002,56.0,49.0
1009,214.65,214.85500000000002,63.0,48.0
1010,212.85,214.98375000000001,49.0,61.0
1011,214.95000000000002,215.32125,65.0,50.0
1012,215.55,216.145,56.0,59.0
1013,215.85,216.1825,61.0,59.0
1014,216.15,216.50375,68.0,56.0
1015,215.25,217.13875000000002,49.0,64.0
1016,216.45000000000002,217.15,56.0,59.0
1017,216.45000000000002,217.155,61.0,52.0
1018,216.45000000000002,217.2575,66.0,64.0
1019,217.65,218.17000000000002,63.0,47.0
1020,217.65,218.225,66.0,48.0
1021,217.65,218.22875,70.0,45.0
1022,218.55,218.98625,63.0,49.0
1023,218.55,219.0475,66.0,49.0
1024,218.25,219.1975,59.0,50.0
1025,219.15,219.42625,65.0,50.0
1026,219.15,219.51875,68.0,61.0
1027,217.95000000000002,219.62625,54.0,43.0
1028,217.65,219.65125,47.0,63.0
1029,219.45000000000002,219.66125,59.0,49.0
1030,219.6,219.68875,63.0,56.0
1031,219.6,219.70875,66.0,64.0
1032,219.6,219.74,70.0,63.0
1033,220.05,220.74375,59.0,58.0
1034,220.05,220.77125,61.0,57.0
1035,220.05,221.02625,65.0,56.0
1036,220.05,221.05,68.0,57.0
1037,220.95000000000002,221.88125,59.0,44.0
1038,220.05,222.04625000000001,47.0,61.0
1039,221.85,222.07375000000002,61.0,46.0
1040,221.85,222.085,65.0,44.0
1041,221.85,222.11375,68.0,49.0
1042,222.45000000000002,223.01625,63.0,60.0
1043,222.45000000000002,223.01875,65.0,61.0
1044,222.45000000000002,223.10125,68.0,64.0
1045,223.05,223.79500000000002,61.0,49.0
1046,223.35,224.00625,63.0,50.0
1047,223.35,224.02,65.0,54.0
1048,223.35,224.05125,68.0,50.0
1049,223.95000000000002,224.48875,61.0,45.0
1050,224.25,224.48875,63.0,49.0
1051,222.75,224.53375,56.0,49.0
1052,222.45000000000002,224.5875,49.0,73.0
1053,224.55,224.77875,65.0,52.0
1054,224.85,225.66,65.0,44.0
1055,224.85,225.67000000000002,63.0,52.0
1056,224.85,225.74625,68.0,55.0
1057,225.75,226.28375,61.0,36.0
1058,226.05,226.5225,63.0,44.0
1059,224.85,226.67125000000001,49.0,66.0
1060,226.05,226.685,65.0,46.0
1061,226.05,226.7475,68.0,42.0
1062,226.65,226.8025,56.0,17.0
1063,227.25,227.985,66.0,66.0
1064,227.25,228.01500000000001,70.0,59.0
1065,228.15,228.68,63.0,42.0
1066,228.15,229.0225,66.0,53.0
1067,228.15,229.05625,65.0,52.0
1068,228.15,229.10375,70.0,49.0
1069,229.05,229.185,63.0,55.0
1070,227.25,229.24875,58.0,56.0
1071,227.25,229.2825,51.0,54.0
1072,229.65,230.7975,56.0,63.0
1073,229.65,230.87625,66.0,69.0
1074,229.65,231.02125,63.0,58.0
1075,229.65,231.07500000000002,68.0,63.0
1076,231.0,231.4875,56.0,17.0
1077,229.65,231.63625000000002,71.0,62.0
1078,231.45000000000002,231.76125000000002,63.0,47.0
1079,231.45000000000002,231.80875,68.0,45.0
1080,229.65,231.83625,44.0,69.0
1081,231.75,231.9625,56.0,57.0
1082,232.05,232.18625,56.0,46.0
1083,232.05,233.45625,66.0,60.0
1084,232.05,233.5275,63.0,57.0
1085,232.05,233.535,68.0,63.0
1086,232.05,233.7725,71.0,61.0
1087,232.05,233.915,44.0,66.0
1088,233.85,233.935,71.0,40.0
1089,233.55,234.05375,56.0,50.0
1090,233.85,234.17875,63.0,67.0
1091,233.85,234.48125000000002,68.0,72.0
1092,234.45000000000002,235.14125,70.0,64.0
1093,234.45000000000002,235.41375,66.0,63.0
1094,235.65,235.98875,65.0,37.0
1095,235.65,236.10750000000002,68.0,43.0
1096,235.95000000000002,236.3,63.0,50.0
1097,234.75,236.315,58.0,29.0
1098,236.25,236.5,70.0,70.0
1099,236.25,236.5275,66.0,73.0
1100,234.45000000000002,236.5925,51.0,70.0
1101,236.55,236.7725,58.0,61.0
1102,236.85,237.815,63.0,64.0
1103,236.85,238.23000000000002,70.0,61.0
1104,236.85,238.28375,66.0,67.0
1105,238.35,238.65,63.0,46.0
1106,238.65,238.7975,63.0,75.0
1107,236.85,238.80375,51.0,66.0
1108,238.65,238.815,66.0,80.0
1109,238.65,238.81625,70.0,75.0
1110,239.25,239.38125,58.0,60.0
1111,239.25,239.79125,61.0,69.0
1112,239.25,240.68125,65.0,73.0
1113,239.25,240.70000000000002,68.0,70.0
1114,240.75,241.12,58.0,40.0
1115,241.05,241.22,65.0,66.0
1116,241.05,241.225,61.0,72.0
1117,241.05,241.27625,68.0,69.0
1118,239.25,241.38750000000002,46.0,72.0
1119,241.35,241.44875000000002,58.0,58.0
1120,241.65,242.5925,63.0,66.0
1121,241.65,242.71875,56.0,58.0
1122,241.65,243.15375,66.0,70.0
1123,241.65,243.31375,71.0,73.0
1124,243.15,243.585,56.0,48.0
1125,241.65,243.59375,44.0,64.0
1126,243.45000000000002,243.675,63.0,62.0
1127,243.45000000000002,243.69,66.0,70.0
1128,243.45000000000002,243.70125000000002,71.0,62.0
1129,244.05,244.57125,61.0,70.0
1130,244.05,244.64375,68.0,69.0
1131,244.05,244.64875,65.0,72.0
1132,244.65,245.41750000000002,58.0,44.0
1133,244.95000000000002,245.61,68.0,56.0
1134,244.95000000000002,245.61375,61.0,56.0
1135,244.95000000000002,245.61375,65.0,56.0
1136,244.05,245.8925,46.0,72.0
1137,245.55,245.92000000000002,58.0,46.0
1138,245.85,246.03,65.0,69.0
1139,245.85,246.04,61.0,70.0
1140,245.85,246.09875,68.0,70.0
1141,246.45000000000002,247.705,59.0,76.0
1142,246.45000000000002,248.01875,63.0,69.0
1143,246.45000000000002,248.0325,70.0,66.0
1144,246.45000000000002,248.05,66.0,72.0
1145,246.45000000000002,248.39625,47.0,75.0
1146,247.95000000000002,248.45000000000002,59.0,46.0
1147,248.25,248.55875,63.0,66.0
1148,248.25,248.59375,68.0,70.0
1149,248.55,248.71875,70.0,56.0
1150,248.85,250.26250000000002,63.0,35.0
1151,248.85,250.31875,70.0,64.0
1152,248.85,250.345,66.0,73.0
1153,250.35,250.7475,63.0,44.0
1154,248.85,250.80125,51.0,67.0
1155,250.65,250.91625000000002,70.0,72.0
1156,250.65,250.925,66.0,73.0
1157,250.95000000000002,251.01625,51.0,52.0
1158,251.25,252.00125,68.0,63.0
1159,251.25,252.6775,63.0,63.0
1160,251.25,252.8,71.0,70.0
1161,252.75,253.11375,56.0,44.0
1162,253.05,253.28125,68.0,55.0
1163,253.05,253.29625000000001,63.0,62.0
1164,253.05,253.3075,66.0,69.0
1165,253.05,253.31625,71.0,56.0
1166,251.25,253.345,44.0,66.0
1167,253.35,253.47,56.0,64.0
1168,253.65,254.07125,70.0,66.0
1169,253.65,254.13750000000002,61.0,66.0
1170,253.65,254.1875,65.0,69.0
1171,253.95000000000002,255.02,58.0,41.0
1172,254.55,255.21,65.0,61.0
1173,254.25,255.22,61.0,44.0
1174,254.55,255.23125000000002,70.0,54.0
1175,255.15,255.56375,58.0,30.0
1176,255.45000000000002,255.6225,61.0,59.0
1177,253.65,255.76625,46.0,73.0
1178,255.75,255.8625,58.0,63.0
1179,256.05,256.88875,70.0,66.0
1180,256.05,256.9,66.0,63.0
1181,256.05,256.9225,75.0,66.0
1182,257.25,257.76,75.0,45.0
1183,256.05,257.77750000000003,63.0,58.0
1184,257.25,257.79,70.0,50.0
1185,257.25,257.82875,66.0,44.0
1186,256.05,257.88,51.0,60.0
1187,258.45,259.15375,75.0,61.0
1188,258.45,259.1825,70.0,63.0
1189,258.45,259.20125,66.0,60.0
1190,258.45,259.2025,63.0,49.0
1191,258.45,259.26875,51.0,70.0
1192,259.65,260.29375,61.0,51.0
1193,259.65,260.3775,49.0,66.0
1194,259.65,260.38,65.0,62.0
1195,259.65,260.3875,68.0,69.0
1196,259.65,260.40125,73.0,64.0
1197,260.85,261.305,63.0,67.0
1198,260.85,261.31875,68.0,66.0
1199,260.85,261.46,71.0,69.0
1200,261.75,262.72375,68.0,50.0
1201,260.85,262.7375,44.0,64.0
1202,261.75,262.7475,71.0,55.0
1203,261.45,262.78125,63.0,40.0
1204,261.15,262.84375,56.0,48.0
1205,263.25,264.03000000000003,70.0,57.0
1206,263.25,264.04,65.0,62.0
1207,263.25,264.2425,61.0,63.0
1208,263.25,264.92125,46.0,67.0
1209,264.45,264.98125,61.0,58.0
1210,264.45,264.98875,65.0,61.0
1211,263.25,265.03375,58.0,67.0
1212,264.45,265.03875,70.0,56.0
1213,265.65,266.52125,70.0,61.0
1214,265.65,266.53375,66.0,62.0
1215,265.65,266.545,75.0,64.0
1216,266.85,267.70625,75.0,45.0
1217,266.85,267.72,70.0,55.0
1218,266.85,267.73875,66.0,44.0
1219,265.65,267.92625,51.0,58.0
1220,268.05,268.91875,70.0,58.0
1221,268.05,268.93375000000003,66.0,50.0
1222,268.05,268.97375,75.0,49.0
1223,268.05,269.6875,63.0,51.0
1224,268.05,269.7,51.0,41.0
1225,269.25,269.8525,70.0,66.0
1226,269.25,269.85875,75.0,59.0
1227,269.25,269.8825,66.0,56.0
1228,269.85,269.9575,63.0,51.0
1229,269.85,270.0125,51.0,72.0
1230,270.45,271.18375000000003,65.0,42.0
1231,270.45,271.2025,61.0,61.0
1232,270.45,271.22,46.0,63.0
1233,270.45,271.25375,68.0,53.0
1234,270.45,271.295,58.0,56.0
1235,271.65,272.25,44.0,62.0
1236,271.65,272.33,68.0,59.0
1237,271.65,272.36,71.0,59.0
1238,271.65,272.3725,56.0,60.0
1239,271.65,272.45625,63.0,59.0
1240,272.85,273.8575,66.0,69.0
1241,272.85,273.90625,70.0,60.0
1242,274.05,274.735,68.0,49.0
1243,274.05,274.785,65.0,49.0
1244,274.05,274.9575,63.0,42.0
1245,274.65000000000003,275.09000000000003,66.0,57.0
1246,274.65000000000003,275.1425,70.0,52.0
1247,275.85,277.0325,66.0,1.0
1248,275.25,277.17625,75.0,66.0
1249,275.25,277.23625,63.0,32.0
1250,272.85,277.2475,51.0,60.0
1251,277.65000000000003,278.0775,63.0,69.0
1252,277.65000000000003,278.13875,66.0,80.0
1253,277.65000000000003,278.18625000000003,71.0,78.0
1254,278.25,278.38875,63.0,56.0
1255,277.95,278.77125,56.0,39.0
1256,278.55,278.8275,66.0,76.0
1257,278.55,278.86,71.0,69.0
1258,278.55,278.9225,63.0,73.0
1259,278.85,279.08,56.0,55.0
1260,279.15000000000003,279.32375,63.0,80.0
1261,279.15000000000003,279.43,70.0,78.0
1262,279.15000000000003,279.485,66.0,80.0
1263,279.45,279.58875,56.0,44.0
1264,279.6,279.6825,66.0,76.0
1265,279.6,279.70875,63.0,70.0
1266,279.6,279.75,71.0,76.0
1267,277.65000000000003,279.7575,44.0,78.0
1268,279.75,279.85875,56.0,62.0
1269,280.05,280.37875,70.0,75.0
1270,280.05,280.3975,66.0,76.0
1271,280.65000000000003,280.845,65.0,76.0
1272,280.65000000000003,280.90000000000003,68.0,76.0
1273,280.95,281.05125,66.0,78.0
1274,280.95,281.08750000000003,70.0,80.0
1275,281.40000000000003,281.68,63.0,66.0
1276,281.55,281.7425,66.0,72.0
1277,280.35,281.87625,58.0,32.0
1278,280.05,281.89125,51.0,70.0
1279,281.7,281.9075,68.0,66.0
1280,281.85,282.05125,70.0,66.0
1281,282.0,282.285,73.0,75.0
1282,282.45,282.84625,66.0,73.0
1283,282.45,282.85,63.0,76.0
1284,282.45,282.8725,71.0,72.0
1285,283.35,283.56875,66.0,69.0
1286,283.35,283.57375,71.0,72.0
1287,283.35,283.585,63.0,69.0
1288,282.90000000000003,283.79875,59.0,72.0
1289,282.75,283.8175,54.0,49.0
1290,283.8,283.8975,66.0,72.0
1291,283.8,283.9075,70.0,76.0
1292,283.8,283.91125,61.0,76.0
1293,284.25,284.3575,54.0,11.0
1294,284.1,284.36,59.0,57.0
1295,284.25,284.44,66.0,76.0
1296,284.25,284.44,71.0,76.0
1297,284.25,284.45,63.0,73.0
1298,284.55,284.58750000000003,54.0,52.0
1299,282.45,284.6475,47.0,75.0
1300,284.85,285.21250000000003,70.0,72.0
1301,284.85,285.22375,61.0,72.0
1302,284.85,285.2275,65.0,75.0
1303,285.45,285.72625,61.0,66.0
1304,285.15000000000003,285.92375,58.0,47.0
1305,285.75,286.38,61.0,61.0
1306,285.75,286.40125,70.0,72.0
1307,285.75,286.41375,65.0,80.0
1308,286.35,286.6825,58.0,69.0
1309,284.85,286.7825,46.0,82.0
1310,286.65000000000003,286.8325,61.0,75.0
1311,286.65000000000003,286.84000000000003,65.0,75.0
1312,286.65000000000003,286.85875,70.0,78.0
1313,286.95,287.02,58.0,47.0
1314,286.95,287.09000000000003,46.0,63.0
1315,287.25,287.58750000000003,44.0,76.0
1316,287.55,287.89625,56.0,61.0
1317,287.25,288.18875,68.0,73.0
1318,287.25,288.19625,71.0,76.0
1319,287.25,288.24875000000003,63.0,61.0
1320,288.15000000000003,288.88125,59.0,67.0
1321,288.45,288.935,63.0,57.0
1322,288.75,288.96375,68.0,66.0
1323,289.05,289.265,63.0,66.0
1324,289.05,289.265,70.0,66.0
1325,287.85,289.30375,58.0,61.0
1326,289.35,289.44,59.0,72.0
1327,289.65000000000003,290.01375,71.0,76.0
1328,289.65000000000003,290.04375,63.0,72.0
1329,289.65000000000003,290.075,68.0,69.0
1330,290.25,290.42875,63.0,61.0
1331,290.25,290.455,71.0,78.0
1332,289.95,290.675,56.0,55.0
1333,290.55,290.8725,63.0,70.0
1334,290.55,291.01375,70.0,70.0
1335,290.85,291.16375,56.0,47.0
1336,291.15000000000003,291.56375,63.0,73.0
1337,289.65000000000003,291.61375,44.0,76.0
1338,291.45,291.6625,56.0,55.0
1339,291.15000000000003,291.67625,68.0,75.0
1340,291.75,291.87375000000003,63.0,48.0
1341,292.05,292.58375,66.0,70.0
1342,292.05,292.6175,63.0,66.0
1343,292.05,292.6475,71.0,69.0
1344,292.95,293.14125,63.0,58.0
1345,292.95,293.1675,71.0,60.0
1346,293.25,293.39875,70.0,69.0
1347,293.25,293.41375,63.0,66.0
1348,292.65000000000003,293.635,59.0,76.0
1349,293.55,293.90125,63.0,58.0
1350,293.55,293.96750000000003,71.0,66.0
1351,292.35,294.13375,54.0,60.0
1352,293.85,294.15000000000003,59.0,62.0
1353,292.05,294.15875,47.0,76.0
1354,294.15000000000003,294.255,63.0,62.0
1355,294.15000000000003,294.295,75.0,67.0
1356,294.45,294.82375,65.0,64.0
1357,294.45,294.83125,61.0,63.0
1358,294.45,294.8575,68.0,72.0
1359,295.05,295.24875000000003,61.0,58.0
1360,294.75,295.435,58.0,59.0
1361,295.35,295.47,61.0,51.0
1362,295.35,295.71625,65.0,59.0
1363,295.65000000000003,295.83,68.0,64.0
1364,295.95,296.05,65.0,51.0
1365,295.95,296.09125,61.0,66.0
1366,295.95,296.11875000000003,73.0,63.0
1367,295.65000000000003,296.33375,58.0,64.0
1368,296.25,296.41875,65.0,64.0
1369,296.25,296.44,61.0,52.0
1370,296.25,296.46625,75.0,67.0
1371,294.45,296.61,46.0,73.0
1372,296.55,296.6625,61.0,59.0
1373,296.55,296.6725,58.0,55.0
1374,296.55,296.6875,71.0,59.0
1375,296.85,297.1875,44.0,70.0
1376,296.85,297.26625,63.0,67.0
1377,296.85,297.295,68.0,73.0
1378,296.85,297.3075,72.0,73.0
1379,297.15000000000003,297.52375,56.0,53.0
1380,297.45,297.6875,63.0,55.0
1381,297.45,297.92375,70.0,63.0
1382,297.75,298.1475,60.0,70.0
1383,298.05,298.40000000000003,63.0,73.0
1384,298.05,298.40500000000003,68.0,72.0
1385,298.05,298.44125,72.0,75.0
1386,298.35,298.625,60.0,53.0
1387,297.45,298.82,58.0,72.0
1388,298.65000000000003,298.84250000000003,68.0,69.0
1389,298.65000000000003,298.87875,63.0,54.0
1390,298.65000000000003,298.9275,75.0,73.0
1391,298.95,299.04375,58.0,52.0
1392,299.25,299.51,66.0,73.0
1393,299.25,299.51375,70.0,69.0
1394,299.55,299.70875,65.0,61.0
1395,299.55,299.79,68.0,73.0
1396,299.85,299.9325,66.0,70.0
1397,299.85,299.99,70.0,70.0
1398,300.15000000000003,300.5625,63.0,50.0
1399,300.45,300.84250000000003,70.0,59.0
1400,300.45,300.9075,78.0,66.0
1401,299.55,300.99375000000003,58.0,63.0
1402,300.75,301.0375,63.0,48.0
1403,301.05,301.10125,58.0,46.0
1404,301.05,301.19625,70.0,73.0
1405,299.25,301.20125,51.0,73.0
1406,301.05,301.235,75.0,78.0
1407,301.35,301.43,68.0,46.0
1408,301.35,301.445,49.0,63.0
1409,301.35,301.57875,73.0,60.0
1410,301.8,302.125,66.0,11.0
1411,301.65000000000003,302.24125,71.0,41.0
1412,301.65000000000003,302.29875,63.0,63.0
1413,302.55,302.63625,66.0,66.0
1414,302.55,302.66625,63.0,69.0
1415,302.55,302.72875,71.0,72.0
1416,302.85,302.99,61.0,62.0
1417,302.85,303.005,70.0,69.0
1418,302.25,303.27,59.0,70.0
1419,301.95,303.34125,54.0,67.0
1420,303.15000000000003,303.375,63.0,63.0
1421,303.15000000000003,303.51375,71.0,75.0
1422,301.65000000000003,303.71750000000003,47.0,72.0
1423,303.45,303.72375,54.0,34.0
1424,303.45,303.72375,59.0,56.0
1425,303.75,303.80625000000003,66.0,54.0
1426,303.75,303.84250000000003,63.0,63.0
1427,303.75,303.885,73.0,70.0
1428,304.05,304.34375,66.0,58.0
1429,304.05,304.3975,61.0,63.0
1430,304.05,304.50375,70.0,66.0
1431,304.65000000000003,304.88,61.0,59.0
1432,304.35,305.0475,58.0,60.0
1433,304.95,305.33750000000003,65.0,73.0
1434,304.95,305.35375,61.0,70.0
1435,304.95,305.3625,68.0,69.0
1436,305.25,305.7,58.0,53.0
1437,305.55,305.85875,61.0,58.0
1438,305.55,305.91,73.0,62.0
1439,305.85,306.00625,58.0,52.0
1440,304.05,306.04875,46.0,76.0
1441,305.85,306.12375000000003,68.0,64.0
1442,306.15000000000003,306.41875,73.0,61.0
1443,306.45,306.9725,44.0,70.0
1444,306.75,307.06,51.0,56.0
1445,307.05,307.43375000000003,56.0,69.0
1446,306.45,307.695,63.0,59.0
1447,306.45,307.7025,71.0,76.0
1448,307.35,308.08375,58.0,62.0
1449,307.95,308.1825,63.0,62.0
1450,307.65000000000003,308.21375,59.0,61.0
1451,308.25,308.50375,68.0,69.0
1452,308.55,308.75875,70.0,67.0
1453,308.85,309.22375,68.0,61.0
1454,308.85,309.285,63.0,60.0
1455,309.15000000000003,309.42,70.0,76.0
1456,308.85,309.445,44.0,70.0
1457,309.15000000000003,309.49,51.0,62.0
1458,309.45,309.68375000000003,63.0,60.0
1459,309.45,309.705,68.0,72.0
1460,309.45,309.8025,56.0,60.0
1461,309.75,310.1175,63.0,55.0
1462,309.75,310.17375,66.0,67.0
1463,310.05,310.5625,59.0,63.0
1464,309.75,310.63125,58.0,64.0
1465,310.35,310.675,63.0,72.0
1466,310.35,310.675,63.0,76.0
1467,311.25,311.595,75.0,48.0
1468,311.25,311.685,63.0,45.0
1469,311.25,311.7825,66.0,59.0
1470,312.15000000000003,312.33625,63.0,51.0
1471,312.15000000000003,312.33625,75.0,49.0
1472,312.15000000000003,312.35,66.0,62.0
1473,311.85,312.45,59.0,72.0
1474,312.45,312.70875,75.0,73.0
1475,312.45,312.73375,63.0,66.0
1476,312.45,312.75375,66.0,72.0
1477,312.6,312.86875000000003,59.0,49.0
1478,312.90000000000003,313.135,63.0,57.0
1479,312.90000000000003,313.15500000000003,66.0,63.0
1480,312.90000000000003,313.1675,73.0,75.0
1481,311.55,313.32625,54.0,62.0
1482,313.05,313.34375,59.0,62.0
1483,311.25,313.3625,47.0,70.0
1484,313.35,313.43125000000003,63.0,49.0
1485,313.35,313.53625,70.0,66.0
1486,313.65000000000003,314.01375,65.0,52.0
1487,313.65000000000003,314.02750000000003,68.0,64.0
1488,313.65000000000003,314.04,61.0,73.0
1489,314.25,314.48,61.0,54.0
1490,313.95,314.65500000000003,58.0,63.0
1491,314.55,314.95,61.0,72.0
1492,314.55,314.96500000000003,65.0,73.0
1493,314.55,314.97875,68.0,72.0
1494,314.85,315.2825,58.0,52.0
1495,315.15000000000003,315.38125,68.0,44.0
1496,315.15000000000003,315.49875000000003,61.0,72.0
1497,313.65000000000003,315.58375,46.0,70.0
1498,315.45,315.62375000000003,65.0,75.0
1499,315.45,315.63125,58.0,58.0
1500,315.75,315.93875,73.0,72.0
1501,316.05,316.36,44.0,70.0
1502,316.05,316.4525,63.0,59.0
1503,316.05,316.50625,68.0,69.0
1504,316.05,316.51625,75.0,66.0
1505,316.35,316.73,56.0,47.0
1506,316.65000000000003,316.8175,63.0,57.0
1507,316.65000000000003,316.91,72.0,63.0
1508,316.95,317.35375,63.0,69.0
1509,316.95,317.38375,70.0,75.0
1510,317.25,317.66125,60.0,61.0
1511,317.55,317.83625,63.0,70.0
1512,317.55,317.865,68.0,75.0
1513,316.65000000000003,317.95,58.0,69.0
1514,317.85,317.95875,60.0,67.0
1515,318.0,318.195,63.0,69.0
1516,318.15000000000003,318.385,68.0,72.0
1517,318.3,318.66125,75.0,61.0
1518,318.45,318.89125,70.0,67.0
1519,318.45,318.93,66.0,52.0
1520,319.05,319.40375,63.0,66.0
1521,319.35,319.52750000000003,65.0,67.0
1522,319.35,319.64875,68.0,69.0
1523,319.65000000000003,319.7575,66.0,70.0
1524,319.65000000000003,319.8775,70.0,72.0
1525,318.75,320.0325,58.0,51.0
1526,319.65000000000003,320.08125,63.0,56.0
1527,318.45,320.11125,51.0,66.0
1528,319.95,320.145,73.0,69.0
1529,319.95,320.43875,66.0,67.0
1530,320.25,320.445,65.0,69.0
1531,320.25,320.47,49.0,63.0
1532,320.25,320.5125,70.0,67.0
1533,320.55,320.825,68.0,67.0
1534,320.85,321.39875,66.0,66.0
1535,320.85,321.4425,70.0,64.0
1536,320.85,321.5675,63.0,63.0
1537,321.45,321.91625,59.0,60.0
1538,321.75,322.42375,66.0,75.0
1539,321.75,322.47,63.0,64.0
1540,322.35,322.7525,59.0,58.0
1541,321.15000000000003,322.7875,54.0,58.0
1542,320.85,322.87375000000003,47.0,76.0
1543,322.65000000000003,322.915,63.0,76.0
1544,322.8,323.12875,66.0,48.0
1545,322.95,323.1325,68.0,60.0
1546,323.1,323.32125,73.0,29.0
1547,323.25,323.665,61.0,60.0
1548,323.25,323.6775,66.0,59.0
1549,323.25,323.94,70.0,50.0
1550,323.85,324.02125,61.0,59.0
1551,323.85,324.15125,68.0,62.0
1552,323.55,324.2375,54.0,60.0
1553,324.15000000000003,324.6,66.0,66.0
1554,324.15000000000003,324.62375000000003,61.0,63.0
1555,324.15000000000003,324.63625,70.0,66.0
1556,324.75,324.9875,61.0,64.0
1557,324.45,325.1475,54.0,44.0
1558,325.05,325.3875,66.0,78.0
1559,323.25,325.40375,42.0,67.0
1560,325.35,325.50375,70.0,72.0
1561,325.35,325.555,54.0,53.0
1562,325.65000000000003,326.1725,44.0,75.0
1563,325.95,326.23125,51.0,61.0
1564,326.25,326.6,56.0,53.0
1565,325.65000000000003,326.81875,68.0,70.0
1566,325.65000000000003,326.84250000000003,71.0,61.0
1567,325.65000000000003,326.84625,63.0,58.0
1568,327.15000000000003,327.25625,66.0,73.0
1569,326.85,327.2575,59.0,67.0
1570,327.15000000000003,327.29125,78.0,64.0
1571,327.45,327.555,68.0,60.0
1572,326.55,327.56875,58.0,62.0
1573,327.45,327.56875,59.0,64.0
1574,327.45,327.57875,80.0,53.0
1575,327.75,327.86625,70.0,66.0
1576,327.75,327.89625,82.0,76.0
1577,328.05,328.46625,80.0,78.0
1578,328.05,328.4975,68.0,63.0
1579,328.05,328.65250000000003,44.0,69.0
1580,328.35,328.6925,51.0,70.0
1581,328.65000000000003,329.00125,56.0,67.0
1582,328.65000000000003,329.23,80.0,75.0
1583,328.65000000000003,329.2575,68.0,54.0
1584,329.55,329.64,66.0,58.0
1585,329.55,329.69,78.0,67.0
1586,328.95,329.91875,58.0,69.0
1587,329.25,329.92,59.0,57.0
1588,329.85,329.95125,68.0,57.0
1589,329.85,329.9975,80.0,67.0
1590,330.15000000000003,330.24375000000003,70.0,44.0
1591,330.15000000000003,330.2925,82.0,62.0
1592,330.45,330.71375,83.0,42.0
1593,330.45,330.80875000000003,71.0,52.0
1594,331.05,331.4575,59.0,52.0
1595,331.35,331.58625,66.0,51.0
1596,331.35,331.63625,63.0,63.0
1597,331.35,331.63625,71.0,72.0
1598,331.95,332.00375,66.0,46.0
1599,331.65000000000003,332.03125,59.0,44.0
1600,331.95,332.05375,61.0,63.0
1601,331.95,332.0825,70.0,61.0
1602,332.25,332.40000000000003,66.0,57.0
1603,332.25,332.41625,63.0,60.0
1604,332.25,332.44875,71.0,53.0
1605,330.75,332.46125,54.0,60.0
1606,332.25,332.47875,59.0,66.0
1607,330.45,332.52125,47.0,72.0
1608,332.85,333.22625,65.0,63.0
1609,332.85,333.235,61.0,62.0
1610,332.85,333.26,73.0,56.0
1611,332.85,333.26875,68.0,64.0
1612,332.85,333.57,46.0,75.0
1613,333.15000000000003,333.60375,58.0,56.0
1614,333.45,333.64,61.0,50.0
1615,333.75,334.28625,65.0,69.0
1616,333.75,334.30875000000003,61.0,69.0
1617,333.75,334.325,68.0,69.0
1618,333.75,334.335,73.0,47.0
1619,334.65000000000003,334.75125,73.0,46.0
1620,334.65000000000003,334.755,65.0,61.0
1621,334.65000000000003,334.7725,61.0,67.0
1622,334.65000000000003,334.85,68.0,70.0
1623,335.25,335.5325,44.0,67.0
1624,335.55,335.92625,56.0,49.0
1625,335.25,335.935,72.0,73.0
1626,335.25,335.97375,68.0,73.0
1627,335.25,335.98125,63.0,69.0
1628,336.15000000000003,336.5575,60.0,72.0
1629,336.45,336.5675,68.0,54.0
1630,336.45,336.575,63.0,61.0
1631,336.45,336.65125,75.0,72.0
1632,336.75,337.10875,60.0,60.0
1633,335.85,337.27375,58.0,64.0
1634,337.05,337.3,80.0,73.0
1635,337.05,337.3175,75.0,63.0
1636,337.35,337.6325,82.0,61.0
1637,337.65000000000003,338.2225,80.0,70.0
1638,337.65000000000003,338.23625,75.0,64.0
1639,338.25,338.65250000000003,63.0,61.0
1640,338.55,338.73625,70.0,63.0
1641,338.55,338.95375,75.0,75.0
1642,337.95,339.21125,58.0,51.0
1643,338.85,339.2575,63.0,41.0
1644,339.15000000000003,339.27,68.0,70.0
1645,339.15000000000003,339.34250000000003,73.0,72.0
1646,339.45,339.52125,68.0,49.0
1647,337.65000000000003,339.52875,51.0,72.0
1648,339.45,339.58625,58.0,70.0
1649,339.45,339.59250000000003,70.0,45.0
1650,339.75,339.85,49.0,73.0
1651,339.45,339.92875,75.0,56.0
1652,340.05,340.35375,75.0,62.0
1653,340.05,340.40375,70.0,59.0
1654,340.65000000000003,341.06125000000003,59.0,67.0
1655,340.95,341.31375,63.0,64.0
1656,340.95,341.32,66.0,63.0
1657,340.95,341.46,70.0,69.0
1658,341.25,341.6375,59.0,58.0
1659,341.55,341.71500000000003,61.0,64.0
1660,341.55,341.85625,68.0,70.0
1661,341.85,342.01,59.0,67.0
1662,341.85,342.03375,66.0,55.0
1663,341.85,342.0625,63.0,61.0
1664,340.35,342.1075,54.0,62.0
1665,341.85,342.1425,70.0,69.0
1666,342.15000000000003,342.2325,59.0,63.0
1667,342.15000000000003,342.24,54.0,46.0
1668,340.05,342.24875000000003,47.0,73.0
1669,342.15000000000003,342.255,70.0,48.0
1670,342.45,342.84000000000003,65.0,66.0
1671,342.45,342.84250000000003,61.0,60.0
1672,342.45,342.87375000000003,68.0,63.0
1673,343.05,343.24625000000003,61.0,67.0
1674,342.75,343.7525,58.0,54.0
1675,343.35,343.98875,65.0,66.0
1676,343.35,343.99,61.0,60.0
1677,343.35,344.01625,68.0,62.0
1678,343.95,344.29,58.0,45.0
1679,344.25,344.3925,65.0,54.0
1680,344.25,344.45625,61.0,59.0
1681,344.25,344.505,68.0,67.0
1682,342.45,344.645,46.0,76.0
1683,344.55,344.64875,58.0,69.0
1684,344.85,345.15500000000003,44.0,70.0
1685,345.15000000000003,345.59625,56.0,50.0
1686,344.85,345.73,63.0,62.0
1687,344.85,345.73,66.0,69.0
1688,344.85,345.86125,71.0,69.0
1689,345.75,346.4075,59.0,63.0
1690,346.05,346.45375,63.0,64.0
1691,346.35,346.6475,68.0,73.0
1692,345.45,346.7825,58.0,59.0
1693,346.65000000000003,346.815,59.0,70.0
1694,346.65000000000003,346.915,70.0,63.0
1695,346.95,347.15375,71.0,70.0
1696,347.25,347.9275,54.0,66.0
1697,347.25,348.145,61.0,63.0
1698,347.25,348.18375000000003,66.0,66.0
1699,347.25,348.195,70.0,66.0
1700,348.15000000000003,348.89625,54.0,45.0
1701,348.45,349.11125,66.0,58.0
1702,348.45,349.13125,61.0,56.0
1703,348.45,349.15250000000003,70.0,52.0
1704,347.25,349.1725,42.0,66.0
1705,349.05,349.18,54.0,64.0
1706,349.65000000000003,350.14625,58.0,61.0
1707,349.65000000000003,350.34125,61.0,57.0
1708,349.65000000000003,350.5325,65.0,64.0
1709,349.65000000000003,350.60875,70.0,57.0
1710,350.55,351.05375,58.0,44.0
1711,349.65000000000003,351.54625,46.0,64.0
1712,350.85,351.5575,65.0,63.0
1713,350.85,351.55875000000003,61.0,58.0
1714,351.45,351.6025,58.0,63.0
1715,350.85,351.61875000000003,70.0,58.0
1716,352.05,352.7225,66.0,64.0
1717,352.05,352.73,70.0,63.0
1718,352.95,353.19875,65.0,58.0
1719,352.65000000000003,353.59250000000003,63.0,72.0
1720,353.25,353.62375000000003,66.0,64.0
1721,353.55,353.8175,68.0,64.0
1722,352.05,354.07625,51.0,73.0
1723,353.85,354.09625,70.0,58.0
1724,353.85,354.16,63.0,51.0
1725,354.15000000000003,354.33875,73.0,66.0
1726,352.35,354.3825,58.0,61.0
1727,354.45,354.81375,75.0,62.0
1728,354.75,355.1625,73.0,48.0
1729,355.05,355.35625,70.0,49.0
1730,355.35,355.6725,68.0,47.0
1731,354.75,355.77500000000003,58.0,56.0
1732,355.35,355.9175,63.0,52.0
1733,355.65000000000003,355.9175,66.0,34.0
1734,354.45,356.10875,51.0,40.0
1735,355.95,356.28375,58.0,66.0
1736,356.25,356.46500000000003,63.0,56.0
1737,356.55,356.755,66.0,66.0
1738,356.85,357.55,70.0,66.0
1739,356.85,357.5525,66.0,70.0
1740,357.45,357.74,63.0,56.0
1741,357.15000000000003,357.75625,58.0,55.0
1742,356.85,357.77750000000003,51.0,67.0
1743,358.05,358.89,61.0,61.0
1744,358.05,358.90625,65.0,59.0
1745,358.05,358.91,46.0,69.0
1746,358.05,358.92375,68.0,58.0
1747,359.25,359.9525,59.0,70.0
1748,359.25,360.08875,63.0,72.0
1749,359.25,360.64625,66.0,66.0
1750,359.25,360.83625,56.0,57.0
1751,360.15000000000003,361.045,58.0,37.0
1752,360.75,361.07625,59.0,72.0
1753,360.75,361.1075,66.0,26.0
1754,359.25,361.1575,44.0,61.0
1755,361.05,361.19375,56.0,48.0
1756,361.65000000000003,363.435,61.0,63.0
1757,361.65000000000003,363.44625,65.0,70.0
1758,361.65000000000003,363.4525,58.0,62.0
1759,361.65000000000003,363.475,46.0,64.0
1760,361.65000000000003,363.52,70.0,70.0
1761,364.05,364.6575,66.0,70.0
1762,364.35,364.69625,54.0,50.0
1763,364.05,364.70875,63.0,70.0
1764,364.05,364.7225,70.0,70.0
1765,364.65000000000003,365.26375,59.0,63.0
1766,364.95,365.60125,66.0,63.0
1767,364.95,365.6075,63.0,62.0
1768,364.95,365.615,70.0,62.0
1769,365.55,365.9475,54.0,34.0
1770,365.55,365.97125,59.0,45.0
1771,365.85,366.12,63.0,64.0
1772,365.85,366.145,66.0,72.0
1773,365.85,366.15125,70.0,67.0
1774,364.05,366.24125,47.0,85.0
1775,366.15000000000003,366.295,59.0,70.0
1776,366.45,367.05125,66.0,76.0
1777,366.45,367.0575,63.0,69.0
1778,366.45,367.07125,70.0,69.0
1779,367.35,367.8775,66.0,70.0
1780,367.35,367.90125,63.0,63.0
1781,367.35,367.90875,70.0,61.0
1782,366.45,368.31,59.0,76.0
1783,366.45,368.3325,47.0,78.0
1784,368.25,368.4825,66.0,73.0
1785,368.25,368.5025,63.0,69.0
1786,368.25,368.51625,70.0,67.0
1787,368.55,368.6375,59.0,62.0
1788,368.55,368.71250000000003,47.0,78.0
1789,368.85,369.26625,65.0,75.0
1790,368.85,369.28375,62.0,85.0
1791,368.85,369.375,70.0,64.0
1792,369.15000000000003,369.59875,58.0,44.0
1793,369.45,369.8675,62.0,66.0
1794,369.45,370.00875,68.0,67.0
1795,369.75,370.10875,58.0,44.0
1796,370.05,370.30625000000003,62.0,67.0
1797,370.05,370.30625000000003,65.0,88.0
1798,370.05,370.40500000000003,70.0,62.0
1799,370.35,370.7525,58.0,49.0
1800,370.65000000000003,370.86125,70.0,67.0
1801,370.65000000000003,370.88875,74.0,73.0
1802,371.40000000000003,371.59250000000003,89.0,56.0
1803,371.40000000000003,373.85375,82.0,60.0
1804,371.40000000000003,373.86875000000003,86.0,66.0
1805,371.40000000000003,373.91125,94.0,64.0
1806,370.95,373.94,58.0,57.0
1807,368.85,374.08,46.0,78.0
1808,374.85,375.27750000000003,58.0,66.0
1809,374.85,375.335,61.0,80.0
1810,374.85,375.35375,65.0,78.0
1811,374.85,375.36875000000003,46.0,67.0
1812,374.85,375.3825,70.0,78.0
1813,376.05,376.4775,51.0,72.0
1814,376.05,376.55375,63.0,70.0
1815,376.05,376.935,70.0,67.0
1816,376.05,376.94375,66.0,72.0
1817,376.95,377.375,51.0,51.0
1818,377.25,377.59875,65.0,76.0
1819,377.25,377.6825,66.0,76.0
1820,377.25,377.79875,70.0,72.0
1821,377.85,378.0375,65.0,62.0
1822,377.85,378.125,68.0,70.0
1823,377.55,378.26125,51.0,46.0
1824,378.15000000000003,378.75,63.0,67.0
1825,378.15000000000003,378.80625000000003,66.0,64.0
1826,378.15000000000003,378.825,70.0,60.0
1827,378.75,379.04375,51.0,44.0
1828,379.35,379.80375,51.0,51.0
1829,379.65000000000003,380.0025,70.0,78.0
1830,379.65000000000003,380.01,63.0,76.0
1831,379.65000000000003,380.0125,66.0,80.0
1832,376.05,380.31125000000003,39.0,76.0
1833,379.95,380.4325,51.0,69.0
1834,380.25,380.49125,61.0,64.0
1835,380.85,381.4375,56.0,69.0
1836,380.85,381.60375,59.0,73.0
1837,380.85,381.6175,68.0,70.0
1838,380.55,381.635,63.0,63.0
1839,381.45,382.12625,56.0,51.0
1840,381.75,382.36625000000004,66.0,70.0
1841,381.75,382.38,63.0,51.0
1842,381.75,382.39375,59.0,69.0
1843,382.35,382.7375,56.0,47.0
1844,382.65000000000003,382.84875,59.0,72.0
1845,382.65000000000003,382.8625,63.0,70.0
1846,382.65000000000003,382.94625,66.0,78.0
1847,380.85,383.0175,44.0,73.0
1848,382.95,383.49375000000003,59.0,70.0
1849,382.95,383.69,63.0,72.0
1850,382.95,383.7,68.0,70.0
1851,383.55,383.77375,59.0,50.0
1852,383.85,384.055,59.0,55.0
1853,383.85,384.0775,63.0,69.0
1854,383.85,384.1375,66.0,70.0
1855,383.25,384.1875,56.0,54.0
1856,383.25,384.20625,44.0,64.0
1857,384.15000000000003,384.36,59.0,67.0
1858,384.15000000000003,384.43,68.0,59.0
1859,384.15000000000003,384.58375,63.0,67.0
1860,384.45,384.85,58.0,49.0
1861,384.75,385.16125,61.0,76.0
1862,384.75,385.18625000000003,68.0,73.0
1863,385.05,385.2275,58.0,61.0
1864,384.75,385.23625,65.0,73.0
1865,384.45,385.285,46.0,70.0
1866,385.2,385.30125,61.0,45.0
1867,385.65000000000003,386.13875,51.0,66.0
1868,385.65000000000003,386.39750000000004,58.0,70.0
1869,385.65000000000003,386.415,66.0,72.0
1870,385.65000000000003,386.45375,61.0,69.0
1871,386.25,386.81125000000003,51.0,45.0
1872,386.55,387.21375,61.0,66.0
1873,386.55,387.21750000000003,58.0,70.0
1874,386.55,387.24375000000003,65.0,78.0
1875,387.45,387.6325,58.0,73.0
1876,387.45,387.66,61.0,80.0
1877,385.65000000000003,387.67125,39.0,73.0
1878,387.15000000000003,387.695,51.0,47.0
1879,387.45,387.71875,65.0,75.0
1880,387.75,388.21500000000003,61.0,76.0
1881,387.75,388.2525,58.0,76.0
1882,387.75,388.46125,66.0,66.0
1883,387.75,388.705,51.0,61.0
1884,388.35,388.7225,56.0,66.0
1885,388.35,388.8225,61.0,64.0
1886,388.35,388.84000000000003,65.0,75.0
1887,388.95,389.4325,61.0,70.0
1888,388.95,389.43625000000003,58.0,70.0
1889,388.95,389.46625,66.0,72.0
1890,389.25,389.66125,51.0,57.0
1891,387.75,389.86875000000003,39.0,73.0
1892,389.55,389.93875,61.0,78.0
1893,389.55,389.945,66.0,70.0
1894,389.55,389.9475,58.0,73.0
1895,389.85,389.96500000000003,51.0,58.0
1896,390.45,390.83500000000004,66.0,72.0
1897,390.45,390.84125,61.0,73.0
1898,390.45,390.8625,63.0,72.0
1899,390.45,391.09250000000003,59.0,66.0
1900,391.35,391.76,63.0,70.0
1901,391.35,391.81125000000003,66.0,70.0
1902,391.2,391.96750000000003,59.0,35.0
1903,391.35,392.02750000000003,70.0,60.0
1904,391.95,392.32125,66.0,61.0
1905,391.95,392.32875,63.0,62.0
1906,390.45,392.63375,54.0,64.0
1907,390.45,392.65500000000003,47.0,78.0
1908,392.25,392.7025,59.0,55.0
1909,392.55,392.91875,63.0,45.0
1910,392.55,392.92625,66.0,35.0
1911,393.45,394.24125000000004,59.0,52.0
1912,393.75,394.38875,61.0,69.0
1913,393.75,394.42875000000004,63.0,67.0
1914,393.75,394.44375,66.0,70.0
1915,393.15000000000003,394.69375,54.0,37.0
1916,394.35,394.74,59.0,60.0
1917,394.65000000000003,394.75375,61.0,64.0
1918,392.85,394.7625,47.0,66.0
1919,394.65000000000003,394.76625,63.0,62.0
1920,394.65000000000003,394.82875,66.0,72.0
1921,395.25,395.80625000000003,59.0,72.0
1922,395.25,395.8125,66.0,55.0
1923,395.25,395.83750000000003,63.0,69.0
1924,395.85,396.4175,56.0,49.0
1925,396.15000000000003,396.76,59.0,73.0
1926,396.15000000000003,396.815,66.0,78.0
1927,396.15000000000003,396.875,63.0,75.0
1928,396.75,397.09000000000003,56.0,39.0
1929,397.05,397.205,66.0,73.0
1930,397.05,397.21500000000003,59.0,78.0
1931,397.05,397.225,63.0,76.0
1932,395.25,397.3475,44.0,67.0
1933,395.55,397.42625,51.0,50.0
1934,397.65000000000003,398.0475,56.0,62.0
1935,397.65000000000003,398.06875,65.0,72.0
1936,397.65000000000003,398.07875,68.0,64.0
1937,397.65000000000003,398.08,61.0,75.0
1938,398.25,398.36875000000003,56.0,43.0
1939,397.95,398.75625,53.0,57.0
1940,398.55,398.96500000000003,56.0,61.0
1941,398.55,399.15000000000003,68.0,41.0
1942,398.55,399.15375,61.0,63.0
1943,398.55,399.1575,65.0,70.0
1944,399.15000000000003,399.55,53.0,47.0
1945,399.45,399.57875,61.0,82.0
1946,399.45,399.61625000000004,65.0,73.0
1947,397.65000000000003,399.77625,46.0,73.0
1948,400.05,400.845,66.0,73.0
1949,400.05,400.8475,63.0,67.0
1950,400.05,400.89,70.0,66.0
1951,400.8,401.46375,59.0,47.0
1952,401.25,401.955,63.0,66.0
1953,401.25,401.9575,66.0,73.0
1954,401.25,401.96375,70.0,69.0
1955,401.85,402.25125,59.0,53.0
1956,402.15000000000003,402.40000000000003,63.0,61.0
1957,402.15000000000003,402.5625,70.0,59.0
1958,402.15000000000003,402.59125,66.0,63.0
1959,402.45,402.79875,59.0,59.0
1960,402.75,402.985,65.0,55.0
1961,402.75,403.27250000000004,68.0,69.0
1962,403.35,403.4375,59.0,30.0
1963,400.5,403.51,54.0,40.0
1964,403.35,403.6725,65.0,58.0
1965,403.35,403.75,66.0,66.0
1966,403.35,403.77250000000004,70.0,62.0
1967,403.65000000000003,404.07375,59.0,63.0
1968,403.65000000000003,404.08,54.0,36.0
1969,404.25,404.3125,54.0,46.0
1970,403.95,404.3125,65.0,67.0
1971,403.95,404.3125,66.0,64.0
1972,404.25,404.33,59.0,64.0
1973,403.95,404.33,70.0,67.0
1974,400.05,404.39750000000004,47.0,76.0
1975,404.7,405.15875,63.0,72.0
1976,404.7,405.39625,70.0,73.0
1977,404.7,405.4525,66.0,75.0
1978,405.45,406.03125,63.0,58.0
1979,405.75,406.17375,65.0,75.0
1980,405.75,406.23625,68.0,78.0
1981,406.35,406.40250000000003,68.0,41.0
1982,406.35,406.41625,65.0,47.0
1983,406.35,406.75125,66.0,73.0
1984,406.35,406.83,70.0,64.0
1985,404.7,406.99625000000003,51.0,72.0
1986,406.95,407.035,66.0,61.0
1987,406.65000000000003,407.045,63.0,39.0
1988,406.95,407.0625,65.0,72.0
1989,405.15000000000003,407.105,58.0,49.0
1990,406.95,407.13625,70.0,59.0
1991,407.55,407.72375,78.0,80.0
1992,407.55,407.735,70.0,59.0
1993,407.85,408.005,70.0,63.0
1994,407.85,408.10625,78.0,72.0
1995,407.85,408.2475,63.0,51.0
1996,408.15000000000003,408.33500000000004,75.0,75.0
1997,408.15000000000003,408.34125,68.0,56.0
1998,408.3,408.84875,63.0,43.0
1999,407.55,408.85875,58.0,46.0
2000,408.75,409.02625,66.0,63.0
2001,408.75,409.07,73.0,73.0
2002,407.25,409.195,51.0,53.0
2003,409.05,409.22625,58.0,49.0
2004,409.65000000000003,410.445,59.0,76.0
2005,409.65000000000003,410.46250000000003,63.0,70.0
2006,409.65000000000003,410.7075,66.0,76.0
2007,409.65000000000003,411.2425,56.0,67.0
2008,409.65000000000003,411.30125,44.0,67.0
2009,410.85,411.44125,58.0,62.0
2010,410.85,411.4575,59.0,73.0
2011,410.85,411.46250000000003,63.0,69.0
2012,410.85,411.5525,66.0,45.0
2013,411.45,411.56375,46.0,72.0
2014,412.05,412.77500000000003,59.0,62.0
2015,412.05,412.98375,63.0,69.0
2016,412.05,413.00875,66.0,75.0
2017,412.05,413.02250000000004,70.0,66.0
2018,412.95,413.72,59.0,55.0
2019,413.25,413.90000000000003,63.0,62.0
2020,413.25,413.91,66.0,73.0
2021,413.25,413.92875000000004,70.0,70.0
2022,412.05,413.99125000000004,47.0,63.0
2023,413.85,413.99375000000003,59.0,66.0
2024,414.45,414.90000000000003,61.0,66.0
2025,414.45,414.91625,68.0,69.0
2026,414.45,414.925,65.0,69.0
2027,415.05,415.25375,61.0,44.0
2028,414.75,415.72875,58.0,45.0
2029,415.35,416.07875,65.0,70.0
2030,415.35,416.105,61.0,56.0
2031,415.35,416.13,68.0,66.0
2032,415.95,416.4125,58.0,41.0
2033,416.25,416.615,61.0,59.0
2034,416.25,416.64375,68.0,60.0
2035,414.45,416.66375,46.0,70.0
2036,416.55,416.75625,58.0,44.0
2037,416.85,417.2375,61.0,62.0
2038,416.85,417.255,65.0,62.0
2039,416.85,417.2675,68.0,62.0
2040,417.15000000000003,417.6275,58.0,50.0
2041,417.45,417.88125,61.0,58.0
2042,417.75,417.9125,68.0,40.0
2043,417.75,417.9825,65.0,69.0
2044,418.05,418.16125,61.0,57.0
2045,418.05,418.18,65.0,55.0
2046,418.05,418.205,68.0,48.0
2047,418.05,418.48,58.0,57.0
2048,418.35,418.735,61.0,76.0
2049,418.35,418.735,65.0,76.0
2050,416.85,418.73625,46.0,63.0
2051,418.35,418.74,68.0,73.0
2052,418.65000000000003,418.7625,58.0,80.0
2053,419.25,419.6775,63.0,69.0
2054,419.25,419.73875,66.0,80.0
2055,419.25,419.78625,71.0,78.0
2056,419.85,419.98875,63.0,56.0
2057,419.55,420.37125000000003,56.0,39.0
2058,420.15000000000003,420.4275,66.0,76.0
2059,420.15000000000003,420.46000000000004,71.0,69.0
2060,420.15000000000003,420.52250000000004,63.0,73.0
2061,420.45,420.68,56.0,55.0
2062,420.75,420.92375,63.0,80.0
2063,420.75,421.03000000000003,70.0,78.0
2064,420.75,421.08500000000004,66.0,80.0
2065,421.05,421.18875,56.0,44.0
2066,421.2,421.2825,66.0,76.0
2067,421.2,421.30875000000003,63.0,70.0
2068,421.2,421.35,71.0,76.0
2069,419.25,421.3575,44.0,78.0
2070,421.35,421.45875,56.0,62.0
2071,421.65000000000003,421.97875,70.0,75.0
2072,421.65000000000003,421.9975,66.0,76.0
2073,422.25,422.445,65.0,76.0
2074,422.25,422.5,68.0,76.0
2075,422.55,422.65125,66.0,78.0
2076,422.55,422.6875,70.0,80.0
2077,423.0,423.28000000000003,63.0,66.0
2078,423.15000000000003,423.34250000000003,66.0,72.0
2079,421.95,423.47625,58.0,32.0
2080,421.65000000000003,423.49125000000004,51.0,70.0
2081,423.3,423.5075,68.0,66.0
2082,423.45,423.65125,70.0,66.0
2083,423.6,423.885,73.0,75.0
2084,424.05,424.44625,66.0,73.0
2085,424.05,424.45,63.0,76.0
2086,424.05,424.4725,71.0,72.0
2087,424.95,425.16875,66.0,69.0
2088,424.95,425.17375,71.0,72.0
2089,424.95,425.185,63.0,69.0
2090,424.5,425.39875,59.0,72.0
2091,424.35,425.4175,54.0,49.0
2092,425.40000000000003,425.4975,66.0,72.0
2093,425.40000000000003,425.5075,70.0,76.0
2094,425.40000000000003,425.51125,61.0,76.0
2095,425.85,425.9575,54.0,11.0
2096,425.7,425.96000000000004,59.0,57.0
2097,425.85,426.04,66.0,76.0
2098,425.85,426.04,71.0,76.0
2099,425.85,426.05,63.0,73.0
2100,426.15000000000003,426.1875,54.0,52.0
2101,424.05,426.2475,47.0,75.0
2102,426.45,426.8125,70.0,72.0
2103,426.45,426.82375,61.0,72.0
2104,426.45,426.8275,65.0,75.0
2105,427.05,427.32625,61.0,66.0
2106,426.75,427.52375,58.0,47.0
2107,427.35,427.98,61.0,61.0
2108,427.35,428.00125,70.0,72.0
2109,427.35,428.01375,65.0,80.0
2110,427.95,428.2825,58.0,69.0
2111,426.45,428.3825,46.0,82.0
2112,428.25,428.4325,61.0,75.0
2113,428.25,428.44,65.0,75.0
2114,428.25,428.45875,70.0,78.0
2115,428.55,428.62,58.0,47.0
2116,428.55,428.69,46.0,63.0
2117,428.85,428.98,66.0,61.0
2118,428.85,429.1875,44.0,76.0
2119,429.15000000000003,429.49625000000003,56.0,61.0
2120,428.85,429.78875,68.0,73.0
2121,428.85,429.79625,71.0,76.0
2122,428.85,429.84875,63.0,61.0
2123,429.75,430.48125,59.0,67.0
2124,430.05,430.535,63.0,57.0
2125,430.35,430.56375,68.0,66.0
2126,430.65000000000003,430.865,63.0,66.0
2127,430.65000000000003,430.865,70.0,66.0
2128,429.45,430.90375,58.0,61.0
2129,430.95,431.04,59.0,72.0
2130,431.25,431.61375,71.0,76.0
2131,431.25,431.64375,63.0,72.0
2132,431.25,431.675,68.0,69.0
2133,431.85,432.02875,63.0,61.0
2134,431.85,432.055,71.0,78.0
2135,431.55,432.27500000000003,56.0,55.0
2136,432.15000000000003,432.4725,63.0,70.0
2137,432.15000000000003,432.61375,70.0,70.0
2138,432.45,432.76375,56.0,47.0
2139,432.75,433.16375,63.0,73.0
2140,431.25,433.21375,44.0,76.0
2141,433.05,433.2625,56.0,55.0
2142,433.35,433.5,63.0,48.0
2143,433.65000000000003,434.18375000000003,66.0,70.0
2144,433.65000000000003,434.21750000000003,63.0,66.0
2145,433.65000000000003,434.2475,71.0,69.0
2146,434.55,434.74125000000004,63.0,58.0
2147,434.55,434.7675,71.0,60.0
2148,434.85,434.99875000000003,70.0,69.0
2149,434.85,435.01375,63.0,66.0
2150,434.25,435.235,59.0,76.0
2151,435.15000000000003,435.50125,63.0,58.0
2152,435.15000000000003,435.5675,71.0,66.0
2153,433.95,435.73375,54.0,60.0
2154,435.45,435.75,59.0,62.0
2155,433.65000000000003,435.75875,47.0,76.0
2156,435.75,435.855,63.0,62.0
2157,435.75,435.895,75.0,67.0
2158,436.05,436.42375,65.0,64.0
2159,436.05,436.43125000000003,61.0,63.0
2160,436.05,436.4575,68.0,72.0
2161,436.65000000000003,436.84875,61.0,58.0
2162,436.35,437.035,58.0,59.0
2163,436.95,437.07,61.0,51.0
2164,436.95,437.31625,65.0,59.0
2165,437.25,437.43,68.0,64.0
2166,437.55,437.65000000000003,65.0,51.0
2167,437.55,437.69125,61.0,66.0
2168,437.55,437.71875,73.0,63.0
2169,437.25,437.93375000000003,58.0,64.0
2170,437.85,438.01875,65.0,64.0
2171,437.85,438.04,61.0,52.0
2172,437.85,438.06625,75.0,67.0
2173,436.05,438.21000000000004,46.0,73.0
2174,438.15000000000003,438.2625,61.0,59.0
2175,438.15000000000003,438.27250000000004,58.0,55.0
2176,438.15000000000003,438.2875,73.0,59.0
2177,438.45,438.7875,44.0,70.0
2178,438.45,438.86625000000004,63.0,67.0
2179,438.45,438.895,68.0,73.0
2180,438.45,438.9075,72.0,73.0
2181,438.75,439.12375000000003,56.0,53.0
2182,439.05,439.2875,63.0,55.0
2183,439.05,439.52375,70.0,63.0
2184,439.35,439.7475,60.0,70.0
2185,439.65000000000003,440.0,63.0,73.0
2186,439.65000000000003,440.005,68.0,72.0
2187,439.65000000000003,440.04125,72.0,75.0
2188,439.95,440.225,60.0,53.0
2189,439.05,440.42,58.0,72.0
2190,440.25,440.4425,68.0,69.0
2191,440.25,440.47875,63.0,54.0
2192,440.25,440.52750000000003,75.0,73.0
2193,440.55,440.64375,58.0,52.0
2194,440.55,440.65250000000003,60.0,70.0
2195,440.85,441.11,66.0,73.0
2196,440.85,441.11375,70.0,69.0
2197,441.15000000000003,441.30875000000003,65.0,61.0
2198,441.15000000000003,441.39,68.0,73.0
2199,441.45,441.5325,66.0,70.0
2200,441.45,441.59000000000003,70.0,70.0
2201,441.75,442.1625,63.0,50.0
2202,442.05,442.4425,70.0,59.0
2203,442.05,442.5075,78.0,66.0
2204,441.15000000000003,442.59375,58.0,63.0
2205,442.35,442.6375,63.0,48.0
2206,442.65000000000003,442.70125,58.0,46.0
2207,442.65000000000003,442.79625,70.0,73.0
2208,440.85,442.80125,51.0,73.0
2209,442.65000000000003,442.83500000000004,75.0,78.0
2210,442.95,443.03000000000003,68.0,46.0
2211,442.95,443.045,49.0,63.0
2212,442.95,443.17875000000004,73.0,60.0
2213,443.40000000000003,443.725,66.0,11.0
2214,443.25,443.84125,71.0,41.0
2215,443.25,443.89875,63.0,63.0
2216,444.15000000000003,444.23625,66.0,66.0
2217,444.15000000000003,444.26625,63.0,69.0
2218,444.15000000000003,444.32875,71.0,72.0
2219,444.45,444.59000000000003,61.0,62.0
2220,444.45,444.605,70.0,69.0
2221,443.85,444.87,59.0,70.0
2222,443.55,444.94125,54.0,67.0
2223,444.75,444.975,63.0,63.0
2224,444.75,445.11375,71.0,75.0
2225,443.25,445.3175,47.0,72.0
2226,445.05,445.32375,54.0,34.0
2227,445.05,445.32375,59.0,56.0
2228,445.35,445.40625,66.0,54.0
2229,445.35,445.4425,63.0,63.0
2230,445.35,445.485,73.0,70.0
2231,445.65000000000003,445.94375,66.0,58.0
2232,445.65000000000003,445.9975,61.0,63.0
2233,445.65000000000003,446.10375,70.0,66.0
2234,446.25,446.48,61.0,59.0
2235,445.95,446.64750000000004,58.0,60.0
2236,446.55,446.9375,65.0,73.0
2237,446.55,446.95375,61.0,70.0
2238,446.55,446.96250000000003,68.0,69.0
2239,446.85,447.3,58.0,53.0
2240,447.15000000000003,447.45875,61.0,58.0
2241,447.15000000000003,447.51,73.0,62.0
2242,447.45,447.60625,58.0,52.0
2243,445.65000000000003,447.64875,46.0,76.0
2244,447.45,447.72375,68.0,64.0
2245,447.75,448.01875,73.0,61.0
2246,448.05,448.5725,44.0,70.0
2247,448.35,448.66,51.0,56.0
2248,448.65000000000003,449.03375,56.0,69.0
2249,448.05,449.295,63.0,59.0
2250,448.05,449.3025,68.0,76.0
2251,448.95,449.68375000000003,58.0,62.0
2252,449.55,449.7825,63.0,62.0
2253,449.25,449.81375,59.0,61.0
2254,449.85,450.10375,68.0,69.0
2255,450.15000000000003,450.35875,70.0,67.0
2256,450.45,450.82375,68.0,61.0
2257,450.45,450.885,63.0,60.0
2258,450.75,451.02,70.0,76.0
2259,450.45,451.045,44.0,70.0
2260,450.75,451.09000000000003,51.0,62.0
2261,451.05,451.28375,63.0,60.0
2262,451.05,451.40250000000003,56.0,60.0
2263,451.35,451.71750000000003,63.0,55.0
2264,451.35,451.77375,70.0,67.0
2265,451.65000000000003,452.1625,59.0,63.0
2266,451.35,452.23125,58.0,64.0
2267,451.95,452.27500000000003,68.0,76.0
2268,451.95,452.3275,63.0,72.0
2269,452.25,452.42875000000004,66.0,76.0
2270,452.55,452.79125,68.0,64.0
2271,452.85,453.195,75.0,49.0
2272,452.85,453.285,63.0,45.0
2273,452.85,453.3825,66.0,59.0
2274,453.75,453.93625000000003,63.0,51.0
2275,453.75,453.93625000000003,75.0,49.0
2276,453.75,453.95,66.0,62.0
2277,453.45,454.05,59.0,72.0
2278,454.05,454.30875000000003,75.0,73.0
2279,454.05,454.33375,63.0,66.0
2280,454.05,454.35375,66.0,72.0
2281,454.2,454.46875,59.0,49.0
2282,454.5,454.735,63.0,57.0
2283,454.5,454.755,66.0,63.0
2284,454.5,454.7675,73.0,75.0
2285,453.15000000000003,454.92625,54.0,62.0
2286,454.65000000000003,454.94375,59.0,62.0
2287,452.85,454.96250000000003,47.0,70.0
2288,454.95,455.03125,63.0,49.0
2289,454.95,455.13625,70.0,66.0
2290,455.25,455.61375,65.0,52.0
2291,455.25,455.6275,68.0,64.0
2292,455.25,455.64,61.0,73.0
2293,455.85,456.08,61.0,54.0
2294,455.55,456.255,58.0,63.0
2295,456.15000000000003,456.55,61.0,72.0
2296,456.15000000000003,456.565,65.0,73.0
2297,456.15000000000003,456.57875,68.0,72.0
2298,456.45,456.8825,58.0,52.0
2299,456.75,456.98125,68.0,44.0
2300,456.75,457.09875,61.0,72.0
2301,455.25,457.18375000000003,46.0,70.0
2302,457.05,457.22375,65.0,75.0
2303,457.05,457.23125,58.0,58.0
2304,457.35,457.53875,73.0,72.0
2305,457.65000000000003,457.96000000000004,44.0,70.0
2306,457.65000000000003,458.0525,63.0,59.0
2307,457.65000000000003,458.10625,68.0,69.0
2308,457.65000000000003,458.11625000000004,75.0,66.0
2309,457.95,458.33,56.0,47.0
2310,458.25,458.4175,63.0,57.0
2311,458.25,458.51,72.0,63.0
2312,458.55,458.95375,63.0,69.0
2313,458.55,458.98375,70.0,75.0
2314,458.85,459.26125,60.0,61.0
2315,459.15000000000003,459.43625000000003,63.0,70.0
2316,459.15000000000003,459.46500000000003,68.0,75.0
2317,458.25,459.55,58.0,69.0
2318,459.45,459.55875000000003,60.0,67.0
2319,459.6,459.795,63.0,69.0
2320,459.75,459.985,68.0,72.0
2321,459.90000000000003,460.26125,75.0,61.0
2322,460.05,460.49125000000004,70.0,67.0
2323,460.05,460.53000000000003,66.0,52.0
2324,460.65000000000003,461.00375,63.0,66.0
2325,460.95,461.1275,65.0,67.0
2326,460.95,461.24875000000003,68.0,69.0
2327,461.25,461.3575,66.0,70.0
2328,461.25,461.4775,70.0,72.0
2329,460.35,461.6325,58.0,51.0
2330,461.25,461.68125000000003,63.0,56.0
2331,460.05,461.71125,51.0,66.0
2332,461.55,461.745,73.0,69.0
2333,461.55,461.85,66.0,67.0
2334,461.85,462.045,65.0,69.0
2335,461.85,462.07,49.0,63.0
2336,461.85,462.1125,70.0,67.0
2337,462.15000000000003,462.425,68.0,67.0
2338,462.45,462.99875000000003,66.0,66.0
2339,462.45,463.0425,70.0,64.0
2340,462.45,463.1675,63.0,63.0
2341,463.05,463.51625,59.0,60.0
2342,463.35,464.02375,66.0,75.0
2343,463.35,464.07,63.0,64.0
2344,463.95,464.3525,59.0,58.0
2345,462.75,464.3875,54.0,58.0
2346,462.45,464.47375,47.0,76.0
2347,464.25,464.515,63.0,76.0
2348,464.40000000000003,464.72875,66.0,48.0
2349,464.55,464.7325,68.0,60.0
2350,464.7,464.92125,73.0,29.0
2351,464.85,465.265,61.0,60.0
2352,464.85,465.27750000000003,66.0,59.0
2353,464.85,465.54,70.0,50.0
2354,465.45,465.62125000000003,61.0,59.0
2355,465.45,465.75125,68.0,62.0
2356,465.15000000000003,465.83750000000003,54.0,60.0
2357,465.75,466.2,66.0,66.0
2358,465.75,466.22375,61.0,63.0
2359,465.75,466.23625,70.0,66.0
2360,466.35,466.58750000000003,61.0,64.0
2361,466.05,466.7475,54.0,44.0
2362,466.65000000000003,466.9875,66.0,78.0
2363,464.85,467.00375,42.0,67.0
2364,466.95,467.10375,70.0,72.0
2365,466.95,467.15500000000003,54.0,53.0
2366,467.25,467.77250000000004,44.0,75.0
2367,467.55,467.83125,51.0,61.0
2368,467.85,468.2,56.0,53.0
2369,467.25,468.41875,68.0,70.0
2370,467.25,468.4425,71.0,61.0
2371,467.25,468.44625,63.0,58.0
2372,468.75,468.85625,68.0,73.0
2373,468.45,468.8575,59.0,67.0
2374,468.75,468.89125,80.0,64.0
2375,469.05,469.15500000000003,70.0,60.0
2376,468.15000000000003,469.16875,58.0,62.0
2377,469.05,469.16875,59.0,64.0
2378,469.05,469.17875000000004,82.0,53.0
2379,469.35,469.46625,71.0,66.0
2380,469.35,469.49625000000003,83.0,76.0
2381,469.65000000000003,470.06625,82.0,78.0
2382,469.65000000000003,470.0975,70.0,63.0
2383,469.65000000000003,470.2525,44.0,69.0
2384,469.95,470.2925,51.0,70.0
2385,470.25,470.60125,56.0,67.0
2386,470.25,470.85,68.0,54.0
2387,470.25,470.85,80.0,75.0
2388,470.55,471.15000000000003,58.0,69.0
