,start,end,pitch,velocity
0,18.5497585,18.688080875,67.0,122.0
1,18.8409635,18.9610855625,67.0,96.0
2,19.1321685,19.2450104375,67.0,107.0
3,19.4233735,19.83288053125,69.0,127.0
4,20.0057835,20.11316534375,67.0,127.0
5,20.2969885,20.44441103125,64.0,117.0
6,20.5881935,20.726515875,64.0,117.0
7,20.733796,20.877578468750002,62.0,90.0
8,20.8793985,20.99042040625,64.0,96.0
9,21.4618085,21.59467078125,60.0,102.0
10,21.7530135,21.92227640625,64.0,112.0
11,22.0442185,22.1716206875,72.0,127.0
12,22.3354235,22.55564728125,72.0,117.0
13,22.6266285,22.77769109375,69.0,102.0
14,22.9178335,23.42926228125,72.0,127.0
15,23.5002435,23.80054865625,69.0,97.0
16,23.7914485,24.1518146875,67.0,107.0
17,25.5386785,25.6515204375,72.0,117.0
18,25.8298835,26.041007125,72.0,112.0
19,26.1210885,26.29035140625,69.0,102.0
20,26.4122935,26.6925783125,72.0,127.0
21,26.9947035,27.15486625,69.0,107.0
22,27.2859085,27.3914703125,67.0,102.0
23,27.5771135,27.7045156875,67.0,97.0
24,27.722716000000002,27.861038375,69.0,97.0
25,27.8683185,28.17954384375,67.0,112.0
26,28.4507285,28.66913225,62.0,93.0
27,28.741933500000002,28.97671753125,64.0,107.0
28,29.0331385,29.2770226875,67.0,93.0
29,29.3243435,29.43900546875,67.0,107.0
30,29.6155485,29.7575109375,69.0,102.0
31,29.9067535,30.09421671875,67.0,127.0
32,30.4891635,30.609285562500002,64.0,107.0
33,30.7803685,31.52476128125,62.0,107.0
34,32.5275985,32.62406015625,67.0,122.0
35,32.8188035,32.9098050625,67.0,99.0
36,33.1100085,33.21375028125,67.0,107.0
37,33.4012135,33.87624165625,69.0,127.0
38,33.9836235,34.101925531250004,67.0,117.0
39,34.2748285,34.36036996875,64.0,127.0
40,34.5660335,34.67705540625,64.0,107.0
41,34.711636,34.835398125,62.0,93.0
42,34.8572385,34.9737205,64.0,107.0
43,35.439648500000004,35.62711171875,60.0,100.0
44,35.7308535,35.8728159375,64.0,112.0
45,36.0220585,36.12580028125,72.0,127.0
46,36.3132635,36.40972515625,72.0,107.0
47,36.6044685,36.76463125,69.0,99.0
48,36.8956735,37.0958769375,72.0,122.0
49,37.1868785,37.43986284375,72.0,112.0
50,37.478083500000004,37.7510881875,69.0,88.0
51,37.7692885,37.973132,67.0,90.0
52,39.516518500000004,39.6366405625,72.0,117.0
53,39.8077235,39.9242055,72.0,102.0
54,40.0989285,40.2845716875,69.0,107.0
55,40.3901335,40.6412978125,72.0,127.0
56,40.9725435,41.090845531250004,69.0,117.0
57,41.2637485,41.48033221875,67.0,122.0
58,41.700556,41.82977821875,69.0,117.0
59,41.8461585,42.3011663125,67.0,100.0
60,42.428568500000004,42.6797328125,60.0,82.0
61,42.7197735,42.9527375,64.0,112.0
62,43.0109785,43.1383806875,72.0,127.0
63,43.3021835,43.44232590625,72.0,122.0
64,43.5933885,43.793591937500004,72.0,122.0
65,43.8845935,44.255879875,69.0,127.0
66,44.1757985,44.4488031875,71.0,127.0
67,44.467003500000004,44.66902696875,72.0,117.0
68,44.7582085,46.041330531250004,74.0,127.0
69,46.505438500000004,46.62010046875,74.0,127.0
70,46.7966435,46.92222565625,74.0,107.0
71,47.0878485,47.266211562500004,67.0,96.0
72,47.3790535,47.76308009375,76.0,127.0
73,47.9614635,48.18168728125,74.0,127.0
74,48.2526685,48.37097053125,72.0,127.0
75,48.543873500000004,48.6785558125,72.0,117.0
76,48.8350785,49.033461906250004,69.0,96.0
77,49.1262835,49.2973664375,74.0,127.0
78,49.7086935,49.93983746875,72.0,107.0
79,49.9998985,50.1345808125,67.0,107.0
80,50.2911035,50.4112255625,67.0,100.0
81,50.5823085,50.800712250000004,64.0,107.0
82,50.8735135,51.13377796875,67.0,122.0
83,51.455923500000004,51.727108156250004,69.0,122.0
84,51.7471285,52.40779984375,67.0,117.0
85,53.494358500000004,53.60174034375,74.0,122.0
86,53.7855635,53.9129656875,74.0,122.0
87,54.0767685,54.2405713125,67.0,96.0
88,54.3679735,54.6118576875,76.0,127.0
89,54.6591785,54.826621375,74.0,112.0
90,54.9503835,55.12328646875,74.0,127.0
91,55.2415885,55.387191,72.0,127.0
92,55.532793500000004,55.68385609375,69.0,100.0
93,55.8239985,55.96050084375,69.0,97.0
94,56.1152035,56.51743040625,74.0,127.0
95,56.6976135,56.9269374375,72.0,127.0
96,56.9888185,57.0943803125,69.0,127.0
97,57.2800235,57.43472615625,69.0,122.0
98,57.571228500000004,57.74777153125,67.0,112.0
99,57.8624335,58.357482000000005,74.0,127.0
100,58.444843500000005,58.725128312500004,76.0,127.0
101,58.7360485,60.98742715625,72.0,117.0
102,74.4611185,74.599440875,67.0,122.0
103,74.7523235,74.8724455625,67.0,96.0
104,75.04352850000001,75.1563704375,67.0,107.0
105,75.3347335,75.74424053125,69.0,127.0
106,75.9171435,76.02452534375,67.0,127.0
107,76.2083485,76.35577103125,64.0,117.0
108,76.4995535,76.637875875,64.0,117.0
109,76.645156,76.78893846875,62.0,90.0
110,76.7907585,76.90178040625,64.0,96.0
111,77.3731685,77.50603078125,60.0,102.0
112,77.6643735,77.83363640625001,64.0,112.0
113,77.9555785,78.0829806875,72.0,127.0
114,78.2467835,78.46700728125,72.0,117.0
115,78.5379885,78.68905109375,69.0,102.0
116,78.8291935,79.34062228125,72.0,127.0
117,79.4116035,79.71190865625,69.0,97.0
118,79.7028085,80.0631746875,67.0,107.0
119,81.4500385,81.5628804375,72.0,117.0
120,81.7412435,81.952367125,72.0,112.0
121,82.0324485,82.20171140625,69.0,102.0
122,82.3236535,82.6039383125,72.0,127.0
123,82.9060635,83.06622625,69.0,107.0
124,83.1972685,83.3028303125,67.0,102.0
125,83.4884735,83.61587568750001,67.0,97.0
126,83.63407600000001,83.772398375,69.0,97.0
127,83.7796785,84.09090384375,67.0,112.0
128,84.3620885,84.58049225,62.0,93.0
129,84.6532935,84.88807753125,64.0,107.0
130,84.9444985,85.1883826875,67.0,93.0
131,85.2357035,85.35036546875,67.0,107.0
132,85.5269085,85.6688709375,69.0,102.0
133,85.8181135,86.00557671875,67.0,127.0
134,86.4005235,86.52064556250001,64.0,107.0
135,86.6917285,87.43612128125,62.0,107.0
136,88.4389585,88.53542015625,67.0,122.0
137,88.7301635,88.8211650625,67.0,99.0
138,89.02136850000001,89.12511028125,67.0,107.0
139,89.3125735,89.78760165625,69.0,127.0
140,89.8949835,90.01328553125,67.0,117.0
141,90.1861885,90.27172996875001,64.0,127.0
142,90.4773935,90.58841540625001,64.0,107.0
143,90.622996,90.746758125,62.0,93.0
144,90.7685985,90.8850805,64.0,107.0
145,91.3510085,91.53847171875,60.0,100.0
146,91.6422135,91.7841759375,64.0,112.0
147,91.9334185,92.03716028125,72.0,127.0
148,92.2246235,92.32108515625,72.0,107.0
149,92.5158285,92.67599125,69.0,99.0
150,92.8070335,93.0072369375,72.0,122.0
151,93.09823850000001,93.35122284375001,72.0,112.0
152,93.3894435,93.6624481875,69.0,88.0
153,93.6806485,93.88449200000001,67.0,90.0
154,95.4278785,95.54800056250001,72.0,117.0
155,95.7190835,95.8355655,72.0,102.0
156,96.0102885,96.1959316875,69.0,107.0
157,96.3014935,96.5526578125,72.0,127.0
158,96.8839035,97.00220553125,69.0,117.0
159,97.17510850000001,97.39169221875,67.0,122.0
160,97.61191600000001,97.74113821875,69.0,117.0
161,97.7575185,98.2125263125,67.0,100.0
162,98.3399285,98.59109281250001,60.0,82.0
163,98.6311335,98.8640975,64.0,112.0
164,98.9223385,99.0497406875,72.0,127.0
165,99.2135435,99.35368590625,72.0,122.0
166,99.5047485,99.7049519375,72.0,122.0
167,99.7959535,100.167239875,69.0,127.0
168,100.0871585,100.3601631875,71.0,127.0
169,100.3783635,100.58038696875,72.0,117.0
170,100.6695685,101.95269053125,74.0,127.0
171,102.4167985,102.53146046875,74.0,127.0
172,102.7080035,102.83358565625001,74.0,107.0
173,102.99920850000001,103.1775715625,67.0,96.0
174,103.2904135,103.67444009375001,76.0,127.0
175,103.8728235,104.09304728125001,74.0,127.0
176,104.1640285,104.28233053125,72.0,127.0
177,104.4552335,104.5899158125,72.0,117.0
178,104.7464385,104.94482190625,69.0,96.0
179,105.0376435,105.2087264375,74.0,127.0
180,105.6200535,105.85119746875,72.0,107.0
181,105.9112585,106.0459408125,67.0,107.0
182,106.20246350000001,106.3225855625,67.0,100.0
183,106.4936685,106.71207225,64.0,107.0
184,106.7848735,107.04513796875,67.0,122.0
185,107.3672835,107.63846815625,69.0,122.0
186,107.6584885,108.31915984375,67.0,117.0
187,109.4057185,109.51310034375,74.0,122.0
188,109.6969235,109.82432568750001,74.0,122.0
189,109.9881285,110.1519313125,67.0,96.0
190,110.2793335,110.52321768750001,76.0,127.0
191,110.5705385,110.737981375,74.0,112.0
192,110.8617435,111.03464646875,74.0,127.0
193,111.15294850000001,111.298551,72.0,127.0
194,111.4441535,111.59521609375,69.0,100.0
195,111.7353585,111.87186084375,69.0,97.0
196,112.02656350000001,112.42879040625,74.0,127.0
197,112.6089735,112.8382974375,72.0,127.0
198,112.9001785,113.0057403125,69.0,127.0
199,113.1913835,113.34608615625,69.0,122.0
200,113.4825885,113.65913153125,67.0,112.0
201,113.7737935,114.268842,74.0,127.0
202,114.3562035,114.6364883125,76.0,127.0
203,114.6474085,116.89878715625001,72.0,117.0
204,130.3724785,130.510800875,67.0,122.0
205,130.6636835,130.7838055625,67.0,96.0
206,130.9548885,131.0677304375,67.0,107.0
207,131.2460935,131.65560053125,69.0,127.0
208,131.8285035,131.93588534375002,67.0,127.0
209,132.1197085,132.26713103125,64.0,117.0
210,132.4109135,132.549235875,64.0,117.0
211,132.55651600000002,132.70029846875,62.0,90.0
212,132.7021185,132.81314040625,64.0,96.0
213,133.2845285,133.41739078125,60.0,102.0
214,133.5757335,133.74499640625,64.0,112.0
215,133.8669385,133.9943406875,72.0,127.0
216,134.1581435,134.37836728125,72.0,117.0
217,134.4493485,134.60041109375,69.0,102.0
218,134.7405535,135.25198228125,72.0,127.0
219,135.32296350000001,135.62326865625,69.0,97.0
220,135.6141685,135.9745346875,67.0,107.0
221,137.3613985,137.47424043750001,72.0,117.0
222,137.6526035,137.863727125,72.0,112.0
223,137.9438085,138.11307140625001,69.0,102.0
224,138.2350135,138.5152983125,72.0,127.0
225,138.8174235,138.97758625,69.0,107.0
226,139.1086285,139.2141903125,67.0,102.0
227,139.3998335,139.5272356875,67.0,97.0
228,139.545436,139.683758375,69.0,97.0
229,139.6910385,140.00226384375,67.0,112.0
230,140.2734485,140.49185225,62.0,93.0
231,140.5646535,140.79943753125,64.0,107.0
232,140.8558585,141.0997426875,67.0,93.0
233,141.1470635,141.26172546875,67.0,107.0
234,141.4382685,141.5802309375,69.0,102.0
235,141.7294735,141.91693671875,67.0,127.0
236,142.3118835,142.4320055625,64.0,107.0
237,142.6030885,143.34748128125,62.0,107.0
238,144.35031850000001,144.44678015625001,67.0,122.0
239,144.6415235,144.7325250625,67.0,99.0
240,144.9327285,145.03647028125,67.0,107.0
241,145.22393350000002,145.69896165625,69.0,127.0
242,145.8063435,145.92464553125,67.0,117.0
243,146.09754850000002,146.18308996875,64.0,127.0
244,146.3887535,146.49977540625,64.0,107.0
245,146.534356,146.65811812500002,62.0,93.0
246,146.6799585,146.79644050000002,64.0,107.0
247,147.2623685,147.44983171875,60.0,100.0
248,147.5535735,147.6955359375,64.0,112.0
249,147.8447785,147.94852028125,72.0,127.0
250,148.1359835,148.23244515625,72.0,107.0
251,148.4271885,148.58735125,69.0,99.0
252,148.7183935,148.9185969375,72.0,122.0
253,149.0095985,149.26258284375,72.0,112.0
254,149.3008035,149.5738081875,69.0,88.0
255,149.5920085,149.795852,67.0,90.0
256,151.3392385,151.4593605625,72.0,117.0
257,151.6304435,151.7469255,72.0,102.0
258,151.9216485,152.1072916875,69.0,107.0
259,152.2128535,152.4640178125,72.0,127.0
260,152.7952635,152.91356553125001,69.0,117.0
261,153.0864685,153.30305221875,67.0,122.0
262,153.523276,153.65249821875,69.0,117.0
263,153.6688785,154.1238863125,67.0,100.0
264,154.25128850000002,154.5024528125,60.0,82.0
265,154.5424935,154.77545750000002,64.0,112.0
266,154.8336985,154.9611006875,72.0,127.0
267,155.12490350000002,155.26504590625,72.0,122.0
268,155.4161085,155.6163119375,72.0,122.0
269,155.7073135,156.078599875,69.0,127.0
270,155.9985185,156.2715231875,71.0,127.0
271,156.2897235,156.49174696875,72.0,117.0
272,156.5809285,157.86405053125,74.0,127.0
273,158.3281585,158.44282046875,74.0,127.0
274,158.6193635,158.74494565625,74.0,107.0
275,158.9105685,159.0889315625,67.0,96.0
276,159.2017735,159.58580009375,76.0,127.0
277,159.7841835,160.00440728125,74.0,127.0
278,160.0753885,160.19369053125,72.0,127.0
279,160.3665935,160.5012758125,72.0,117.0
280,160.6577985,160.85618190625001,69.0,96.0
281,160.9490035,161.1200864375,74.0,127.0
282,161.5314135,161.76255746875,72.0,107.0
283,161.8226185,161.9573008125,67.0,107.0
284,162.1138235,162.2339455625,67.0,100.0
285,162.40502850000001,162.62343225,64.0,107.0
286,162.6962335,162.95649796875,67.0,122.0
287,163.27864350000002,163.54982815625002,69.0,122.0
288,163.5698485,164.23051984375002,67.0,117.0
289,165.3170785,165.42446034375,74.0,122.0
290,165.6082835,165.7356856875,74.0,122.0
291,165.8994885,166.0632913125,67.0,96.0
292,166.1906935,166.4345776875,76.0,127.0
293,166.4818985,166.649341375,74.0,112.0
294,166.7731035,166.94600646875,74.0,127.0
295,167.0643085,167.209911,72.0,127.0
296,167.3555135,167.50657609375,69.0,100.0
297,167.6467185,167.78322084375,69.0,97.0
298,167.9379235,168.34015040625,74.0,127.0
299,168.5203335,168.7496574375,72.0,127.0
300,168.8115385,168.9171003125,69.0,127.0
301,169.1027435,169.25744615625,69.0,122.0
302,169.3939485,169.57049153125,67.0,112.0
303,169.6851535,170.180202,74.0,127.0
304,170.2675635,170.5478483125,76.0,127.0
305,170.5587685,172.30599850000002,72.0,117.0
306,172.30599850000002,172.42066046875001,74.0,127.0
307,172.5972035,172.72278565625,74.0,107.0
308,172.8884085,173.0667715625,67.0,96.0
309,173.17961350000002,173.56364009375,76.0,127.0
310,173.7620235,173.98224728125,74.0,127.0
311,174.05322850000002,174.17153053125,72.0,127.0
312,174.3444335,174.4791158125,72.0,117.0
313,174.6356385,174.83402190625,69.0,96.0
314,174.9268435,175.0979264375,74.0,127.0
315,175.5092535,175.74039746875,72.0,107.0
316,175.8004585,175.9351408125,67.0,107.0
317,176.0916635,176.2117855625,67.0,100.0
318,176.3828685,176.60127225,64.0,107.0
319,176.6740735,176.93433796875001,67.0,122.0
320,177.2564835,177.52766815625,69.0,122.0
321,177.5476885,178.20835984375,67.0,117.0
322,179.2949185,179.40230034375,74.0,122.0
323,179.5861235,179.7135256875,74.0,122.0
324,179.8773285,180.0411313125,67.0,96.0
325,180.1685335,180.4124176875,76.0,127.0
326,180.45973850000001,180.627181375,74.0,112.0
327,180.7509435,180.92384646875,74.0,127.0
328,181.0421485,181.187751,72.0,127.0
329,181.33335350000002,181.48441609375,69.0,100.0
330,181.6245585,181.76106084375002,69.0,97.0
331,181.9157635,182.31799040625,74.0,127.0
332,182.4981735,182.7274974375,72.0,127.0
333,182.7893785,182.8949403125,69.0,127.0
334,183.08058350000002,183.23528615625,69.0,122.0
335,183.3717885,183.54833153125,67.0,112.0
336,183.6629935,184.158042,74.0,127.0
337,184.2454035,184.5256883125,76.0,127.0
338,184.5366085,186.2838385,72.0,117.0
