,start,end,pitch,velocity
0,3.6983035,4.03136921875,67.0,102.0
1,3.9895085,4.29709378125,69.0,117.0
2,4.2807135,4.53005778125,72.0,102.0
3,5.1543285,5.38183240625,55.0,76.0
4,4.8631235,5.53835509375,48.0,90.0
5,4.5719185,6.22996696875,36.0,86.0
6,5.7367385,6.3391688437500004,48.0,92.0
7,5.4455335,6.45929090625,64.0,99.0
8,5.4455335,6.5120718125,60.0,97.0
9,6.0279435,6.52481203125,55.0,86.0
10,6.3191485,6.850597625,36.0,71.0
11,6.6103535,6.8760780625,48.0,90.0
12,6.9015585,7.18730340625,55.0,85.0
13,7.1927635,7.5658699062500006,60.0,85.0
14,7.4839685000000005,7.88983546875,55.0,86.0
15,7.1927635,8.00995753125,64.0,93.0
16,7.7751735,8.013597593750001,60.0,89.0
17,8.6487885,9.04009521875,50.0,77.0
18,8.0663785,9.445962187500001,38.0,69.0
19,9.2311985,9.44778221875,50.0,70.0
20,8.3575835,9.50784325,45.0,57.0
21,8.9399935,9.77902790625,62.0,90.0
22,8.9399935,9.7881280625,65.0,92.0
23,9.5224035,9.8609293125,57.0,83.0
24,10.1048135,10.7127039375,50.0,89.0
25,10.3960185,10.72908421875,55.0,83.0
26,9.8136085,10.76548484375,43.0,66.0
27,10.6872235,11.5280779375,62.0,107.0
28,10.9784285,11.53353803125,59.0,82.0
29,11.2696335,11.553558375,55.0,90.0
30,12.1432485,12.6128165625,50.0,85.0
31,11.8520435,12.78571953125,45.0,50.0
32,11.560838500000001,12.7948196875,38.0,79.0
33,13.0168635,13.431830625,57.0,78.0
34,12.7256585,13.450030937500001,62.0,78.0
35,12.4344535,13.45549103125,65.0,99.0
36,13.8904785,14.35094640625,50.0,89.0
37,13.308068500000001,14.567530125000001,38.0,72.0
38,13.5992735,14.611210875000001,45.0,62.0
39,14.4728885,14.90059584375,50.0,75.0
40,14.1816835,15.02799803125,65.0,112.0
41,14.7640935,15.062578625,62.0,96.0
42,15.6377085,15.94347375,55.0,89.0
43,15.3465035,16.05085559375,50.0,69.0
44,15.055298500000001,16.132757,43.0,77.0
45,16.2201185,16.57502459375,59.0,89.0
46,15.9289135,16.60414509375,62.0,112.0
47,16.5113235,16.780688125,55.0,95.0
48,17.3849385,17.78352534375,48.0,95.0
49,17.676143500000002,18.032869625,64.0,127.0
50,16.8025285,18.305874312500002,36.0,78.0
51,17.9673485,18.31861453125,62.0,102.0
52,17.0937335,18.58069903125,43.0,56.0
53,18.2585535,18.58797915625,64.0,63.0
54,18.5497585,20.144105875,36.0,69.0
55,19.1321685,20.16412621875,48.0,69.0
56,18.8409635,20.1914266875,43.0,58.0
57,20.0057835,20.40801040625,55.0,71.0
58,19.4233735,20.41165046875,64.0,99.0
59,19.714578500000002,20.58637346875,60.0,69.0
60,20.2969885,21.192443875000002,36.0,85.0
61,20.8793985,21.192443875000002,55.0,82.0
62,20.5881935,21.410847625,48.0,69.0
63,21.7530135,22.04239846875,55.0,69.0
64,21.4618085,22.051498625,60.0,83.0
65,21.170603500000002,22.06423884375,64.0,97.0
66,22.6266285,23.14897746875,53.0,83.0
67,22.9178335,23.4019618125,60.0,107.0
68,22.0442185,23.54392425,41.0,72.0
69,23.209038500000002,23.57486478125,57.0,79.0
70,22.3354235,23.62946571875,48.0,42.0
71,23.5002435,23.944331125,60.0,81.0
72,24.0826535,24.56132171875,55.0,48.0
73,24.3738585,24.65050325,60.0,93.0
74,23.7914485,25.123711375,48.0,85.0
75,25.2474735,25.5386785,55.0,85.0
76,24.9562685,25.5386785,60.0,93.0
77,24.6650635,25.5386785,64.0,99.0
78,26.1210885,26.521495375,53.0,90.0
79,25.5386785,26.79632009375,41.0,93.0
80,25.8298835,26.827260625,48.0,65.0
81,26.4122935,27.1439460625,65.0,99.0
82,26.9947035,27.278628375,57.0,97.0
83,26.703498500000002,27.29864871875,60.0,75.0
84,27.8683185,28.09946246875,55.0,77.0
85,27.2859085,28.92575665625,36.0,73.0
86,28.4507285,28.9421369375,60.0,95.0
87,28.741933500000002,28.953057125,55.0,92.0
88,28.1595235,28.967617375,64.0,102.0
89,27.5771135,28.98399765625,48.0,88.0
90,29.6155485,29.884913125,55.0,62.0
91,29.3243435,30.06873628125,48.0,89.0
92,29.0331385,30.452762875,36.0,71.0
93,30.197958500000002,30.7257675625,48.0,76.0
94,29.9067535,30.75306803125,64.0,95.0
95,29.9067535,30.77854846875,60.0,89.0
96,30.4891635,30.80766896875,55.0,88.0
97,31.3627785,31.63942325,55.0,78.0
98,31.0715735,31.956108687500002,50.0,86.0
99,30.7803685,32.025269875,43.0,70.0
100,31.6539835,32.33831525,62.0,112.0
101,31.9451885,32.3856360625,59.0,100.0
102,32.2363935,32.5275985,55.0,93.0
103,33.1100085,33.46491459375,55.0,86.0
104,32.5275985,34.15652646875,36.0,89.0
105,32.8188035,34.34216965625,48.0,83.0
106,33.6924185,34.3658300625,60.0,73.0
107,33.9836235,34.39313053125,55.0,88.0
108,33.4012135,34.420431,64.0,97.0
109,34.2748285,35.16300375,36.0,67.0
110,34.78443725,35.19758434375,55.0,68.0
111,34.49323225,35.27038559375,48.0,73.0
112,35.1484435,35.9965780625,64.0,99.0
113,35.439648500000004,36.000218125,60.0,89.0
114,35.7308535,36.0839395625,55.0,78.0
115,36.6044685,36.93389415625,53.0,66.0
116,36.3132635,37.08313671875,48.0,75.0
117,35.94925725,37.10133703125,41.0,69.0
118,36.8956735,37.73470790625,60.0,102.0
119,37.1868785,37.74198803125,57.0,86.0
120,37.478083500000004,37.77110853125,53.0,86.0
121,37.696487250000004,38.61924309375,36.0,64.0
122,38.3516985,38.80306625,55.0,88.0
123,38.0604935,38.9523088125,48.0,79.0
124,38.9341085,39.44371725,60.0,102.0
125,38.6429035,39.46009753125,64.0,102.0
126,39.2253135,39.47465778125,55.0,93.0
127,40.0989285,40.368293125,53.0,78.0
128,39.8077235,40.5248158125,48.0,42.0
129,39.44371725,40.8160208125,41.0,78.0
130,40.6813385,40.828761031250004,48.0,72.0
131,40.3901335,41.0999456875,57.0,90.0
132,40.3901335,41.110865875,60.0,97.0
133,40.9725435,41.24736821875,53.0,83.0
134,41.8461585,42.113703093750004,55.0,75.0
135,41.5549535,42.2938861875,48.0,78.0
136,41.2637485,42.55961075,36.0,75.0
137,42.428568500000004,42.73979384375,48.0,85.0
138,42.7197735,43.040099,60.0,93.0
139,42.1373635,43.05647928125,64.0,117.0
140,43.0109785,43.52058725,62.0,99.0
141,43.0109785,43.53696753125,66.0,107.0
142,43.5933885,43.78267175,57.0,77.0
143,43.3021835,43.95921478125,50.0,90.0
144,42.93817725,44.24313965625,38.0,72.0
145,44.1757985,44.3541615625,50.0,72.0
146,43.8845935,44.3832820625,62.0,96.0
147,43.8845935,44.4124025625,66.0,112.0
148,44.467003500000004,44.7582085,57.0,95.0
149,44.7582085,44.925651375,59.0,85.0
150,44.7582085,44.92747140625,62.0,95.0
151,45.0494135,45.195016,62.0,69.0
152,45.0494135,45.20411615625,59.0,69.0
153,45.3406185,45.473480781250004,59.0,96.0
154,45.3406185,45.48076090625,55.0,95.0
155,45.0494135,45.48804103125,50.0,52.0
156,45.3406185,45.493501125,62.0,96.0
157,45.6318235,45.788346187500004,59.0,100.0
158,45.6318235,45.79016621875,55.0,99.0
159,45.6318235,45.8029064375,62.0,97.0
160,45.9230285,46.06317090625,55.0,100.0
161,45.9230285,46.068631,59.0,100.0
162,45.9230285,46.09229140625,62.0,100.0
163,44.7582085,46.2906748125,43.0,76.0
164,46.2142335,46.34527575,59.0,100.0
165,46.2142335,46.356195937500004,55.0,96.0
166,46.2142335,46.37257621875,62.0,99.0
167,45.6318235,46.4071568125,50.0,100.0
168,46.505438500000004,46.916765562500004,55.0,102.0
169,46.505438500000004,46.97682659375,59.0,107.0
170,46.505438500000004,46.99138684375,62.0,107.0
171,47.0878485,47.16064975,62.0,45.0
172,47.0878485,47.19887040625,59.0,43.0
173,47.0878485,47.257111406250004,55.0,83.0
174,46.7966435,47.4773351875,50.0,92.0
175,47.59745725,47.7248594375,50.0,92.0
176,46.505438500000004,47.77036021875,43.0,93.0
177,47.3790535,47.99968415625,59.0,112.0
178,47.3790535,48.012424375,62.0,112.0
179,47.9614635,48.216267875,55.0,99.0
180,48.2526685,48.438311687500004,57.0,112.0
181,48.2526685,48.45833203125,60.0,112.0
182,48.8350785,48.91697990625,65.0,47.0
183,48.8350785,49.03710196875,60.0,85.0
184,48.543873500000004,49.293726375,53.0,90.0
185,49.4174885,49.4939298125,53.0,75.0
186,48.2526685,49.56855109375,41.0,72.0
187,49.1262835,49.73599396875,65.0,117.0
188,49.1262835,49.74327409375,69.0,112.0
189,49.63589225,49.9088969375,60.0,92.0
190,49.9998985,50.23832259375,67.0,102.0
191,49.9998985,50.249242781250004,64.0,97.0
192,49.9998985,50.31476390625,60.0,96.0
193,50.5823085,50.7242709375,55.0,68.0
194,50.5823085,50.7533914375,60.0,82.0
195,50.5823085,50.764311625,64.0,82.0
196,50.2911035,50.99909565625,48.0,95.0
197,50.8735135,51.5396449375,60.0,107.0
198,49.9998985,51.594245875,36.0,72.0
199,50.8735135,51.5978859375,64.0,95.0
200,51.455923500000004,51.6706871875,55.0,82.0
201,51.1647185,51.739848375,48.0,86.0
202,51.7471285,52.42600015625,60.0,97.0
203,51.7471285,52.45148059375,55.0,79.0
204,51.7471285,52.467860875,64.0,89.0
205,52.3295385,52.73904553125,48.0,97.0
206,51.7471285,52.96836946875,36.0,92.0
207,52.6207435,53.21771375,60.0,117.0
208,52.6207435,53.2286339375,64.0,107.0
209,52.9119485,53.2359140625,48.0,93.0
210,53.13035225,53.9348060625,55.0,102.0
211,53.494358500000004,54.15502984375,59.0,100.0
212,53.494358500000004,54.18051028125,62.0,107.0
213,54.0767685,54.25331153125,55.0,95.0
214,53.7855635,54.462615125,50.0,73.0
215,53.494358500000004,54.7574601875,43.0,77.0
216,54.6591785,54.78840071875,50.0,99.0
217,54.3679735,54.884862375000004,59.0,100.0
218,54.3679735,55.030464875,62.0,112.0
219,54.9503835,55.212468,55.0,89.0
220,55.2415885,55.321669875,57.0,102.0
221,55.2415885,55.34169021875,60.0,107.0
222,55.8239985,56.22986546875,53.0,92.0
223,56.1152035,56.56839128125,65.0,112.0
224,56.4064085,56.6066119375,53.0,96.0
225,56.1152035,56.610252,69.0,112.0
226,56.1152035,56.61207203125,60.0,112.0
227,55.2415885,56.6976135,41.0,92.0
228,56.62481225,56.8723365,65.0,107.0
229,55.532793500000004,57.0070188125,48.0,65.0
230,56.9888185,57.67315025,62.0,95.0
231,56.9888185,57.6767903125,71.0,96.0
232,56.9888185,57.6877105,67.0,96.0
233,57.571228500000004,57.81329265625,55.0,100.0
234,57.2800235,58.00621596875,50.0,90.0
235,58.08083725,58.1936791875,50.0,100.0
236,56.9888185,58.2082394375,43.0,83.0
237,57.8624335,58.25374021875,62.0,107.0
238,57.8624335,58.410262906250004,71.0,127.0
239,57.8624335,58.43938340625,67.0,127.0
240,58.37204225,58.5212848125,62.0,100.0
241,58.7360485,59.13463534375,64.0,95.0
242,58.7360485,59.136455375000004,60.0,117.0
243,58.7360485,59.14191546875,67.0,97.0
244,59.24565725,59.34939903125,64.0,82.0
245,59.24565725,59.354859125000004,60.0,76.0
246,59.24565725,59.37487946875,67.0,86.0
247,59.172856,59.6861048125,48.0,83.0
248,59.53686225,59.9336290625,64.0,117.0
249,59.6096635,59.98276990625,60.0,127.0
250,59.6096635,60.00825034375,67.0,127.0
251,60.1920735,60.45597803125,64.0,127.0
252,60.1920735,60.474178343750005,60.0,112.0
253,60.1920735,60.474178343750005,67.0,117.0
254,58.7360485,60.492378656250004,36.0,85.0
255,60.483278500000004,60.492378656250004,36.0,86.0
256,59.9008685,60.49965878125,48.0,117.0
257,61.0656885,61.29319240625,55.0,76.0
258,60.7744835,61.44971509375,48.0,90.0
259,61.6480985,62.250528843750004,48.0,92.0
260,61.3568935,62.37065090625,64.0,99.0
261,61.3568935,62.4234318125,60.0,97.0
262,61.9393035,62.43617203125,55.0,86.0
263,62.2305085,62.761957625,36.0,71.0
264,62.521713500000004,62.7874380625,48.0,90.0
265,62.8129185,63.098663406250004,55.0,85.0
266,63.1041235,63.47722990625,60.0,85.0
267,63.3953285,63.80119546875,55.0,86.0
268,63.1041235,63.921317531250004,64.0,93.0
269,63.6865335,63.92495759375,60.0,89.0
270,64.5601485,64.95145521875,50.0,77.0
271,63.9777385,65.3573221875,38.0,69.0
272,65.1425585,65.35914221875,50.0,70.0
273,64.2689435,65.41920325,45.0,57.0
274,64.8513535,65.69038790625,62.0,90.0
275,64.8513535,65.6994880625,65.0,92.0
276,65.4337635,65.7722893125,57.0,83.0
277,66.01617350000001,66.6240639375,50.0,89.0
278,66.3073785,66.64044421875,55.0,83.0
279,65.7249685,66.67684484375,43.0,66.0
280,66.5985835,67.4394379375,62.0,107.0
281,66.8897885,67.44489803125,59.0,82.0
282,67.1809935,67.464918375,55.0,90.0
283,68.0546085,68.5241765625,50.0,85.0
284,67.7634035,68.69707953125,45.0,50.0
285,67.4721985,68.7061796875,38.0,79.0
286,68.9282235,69.343190625,57.0,78.0
287,68.6370185,69.3613909375,62.0,78.0
288,68.3458135,69.36685103125001,65.0,99.0
289,69.8018385,70.26230640625,50.0,89.0
290,69.2194285,70.478890125,38.0,72.0
291,69.5106335,70.522570875,45.0,62.0
292,70.3842485,70.81195584375,50.0,75.0
293,70.09304350000001,70.93935803125,65.0,112.0
294,70.6754535,70.973938625,62.0,96.0
295,71.5490685,71.85483375,55.0,89.0
296,71.2578635,71.96221559375,50.0,69.0
297,70.96665850000001,72.044117,43.0,77.0
298,72.1314785,72.48638459375,59.0,89.0
299,71.8402735,72.51550509375001,62.0,112.0
300,72.4226835,72.692048125,55.0,95.0
301,73.2962985,73.69488534375,48.0,95.0
302,73.5875035,73.944229625,64.0,127.0
303,72.7138885,74.2172343125,36.0,78.0
304,73.8787085,74.22997453125001,62.0,102.0
305,73.0050935,74.49205903125001,43.0,56.0
306,74.1699135,74.49933915625,64.0,63.0
307,74.4611185,76.055465875,36.0,69.0
308,75.04352850000001,76.07548621875,48.0,69.0
309,74.7523235,76.1027866875,43.0,58.0
310,75.9171435,76.31937040625,55.0,71.0
311,75.3347335,76.32301046875,64.0,99.0
312,75.6259385,76.49773346875,60.0,69.0
313,76.2083485,77.103803875,36.0,85.0
314,76.7907585,77.103803875,55.0,82.0
315,76.4995535,77.322207625,48.0,69.0
316,77.6643735,77.95375846875,55.0,69.0
317,77.3731685,77.962858625,60.0,83.0
318,77.0819635,77.97559884375,64.0,97.0
319,78.5379885,79.06033746875,53.0,83.0
320,78.8291935,79.3133218125,60.0,107.0
321,77.9555785,79.45528425,41.0,72.0
322,79.12039850000001,79.48622478125,57.0,79.0
323,78.2467835,79.54082571875,48.0,42.0
324,79.4116035,79.855691125,60.0,81.0
325,79.99401350000001,80.47268171875,55.0,48.0
326,80.2852185,80.56186325,60.0,93.0
327,79.7028085,81.035071375,48.0,85.0
328,81.1588335,81.4500385,55.0,85.0
329,80.8676285,81.4500385,60.0,93.0
330,80.5764235,81.4500385,64.0,99.0
331,82.0324485,82.432855375,53.0,90.0
332,81.4500385,82.70768009375,41.0,93.0
333,81.7412435,82.738620625,48.0,65.0
334,82.3236535,83.05530606250001,65.0,99.0
335,82.9060635,83.189988375,57.0,97.0
336,82.6148585,83.21000871875,60.0,75.0
337,83.7796785,84.01082246875,55.0,77.0
338,83.1972685,84.83711665625,36.0,73.0
339,84.3620885,84.8534969375,60.0,95.0
340,84.6532935,84.864417125,55.0,92.0
341,84.07088350000001,84.878977375,64.0,102.0
342,83.4884735,84.89535765625,48.0,88.0
343,85.5269085,85.796273125,55.0,62.0
344,85.2357035,85.98009628125,48.0,89.0
345,84.9444985,86.364122875,36.0,71.0
346,86.1093185,86.6371275625,48.0,76.0
347,85.8181135,86.66442803125,64.0,95.0
348,85.8181135,86.68990846875,60.0,89.0
349,86.4005235,86.71902896875,55.0,88.0
350,87.2741385,87.55078325,55.0,78.0
351,86.9829335,87.86746868750001,50.0,86.0
352,86.6917285,87.93662987500001,43.0,70.0
353,87.5653435,88.24967525,62.0,112.0
354,87.8565485,88.2969960625,59.0,100.0
355,88.14775350000001,88.4389585,55.0,93.0
356,89.02136850000001,89.37627459375,55.0,86.0
357,88.4389585,90.06788646875,36.0,89.0
358,88.7301635,90.25352965625,48.0,83.0
359,89.6037785,90.2771900625,60.0,73.0
360,89.8949835,90.30449053125,55.0,88.0
361,89.3125735,90.331791,64.0,97.0
362,90.1861885,91.07436375,36.0,67.0
363,90.69579725,91.10894434375,55.0,68.0
364,90.40459225000001,91.18174559375001,48.0,73.0
365,91.0598035,91.90793806250001,64.0,99.0
366,91.3510085,91.911578125,60.0,89.0
367,91.6422135,91.99529956250001,55.0,78.0
368,92.5158285,92.84525415625001,53.0,66.0
369,92.2246235,92.99449671875,48.0,75.0
370,91.86061725,93.01269703125,41.0,69.0
371,92.8070335,93.64606790625,60.0,102.0
372,93.09823850000001,93.65334803125,57.0,86.0
373,93.3894435,93.68246853125,53.0,86.0
374,93.60784725,94.53060309375,36.0,64.0
375,94.2630585,94.71442625,55.0,88.0
376,93.97185350000001,94.8636688125,48.0,79.0
377,94.8454685,95.35507725000001,60.0,102.0
378,94.5542635,95.37145753125,64.0,102.0
379,95.1366735,95.38601778125,55.0,93.0
380,96.0102885,96.279653125,53.0,78.0
381,95.7190835,96.4361758125,48.0,42.0
382,95.35507725000001,96.7273808125,41.0,78.0
383,96.5926985,96.74012103125,48.0,72.0
384,96.3014935,97.0113056875,57.0,90.0
385,96.3014935,97.022225875,60.0,97.0
386,96.8839035,97.15872821875,53.0,83.0
387,97.7575185,98.02506309375,55.0,75.0
388,97.4663135,98.2052461875,48.0,78.0
389,97.17510850000001,98.47097075,36.0,75.0
390,98.3399285,98.65115384375,48.0,85.0
391,98.6311335,98.951459,60.0,93.0
392,98.04872350000001,98.96783928125001,64.0,117.0
393,98.9223385,99.43194725000001,62.0,99.0
394,98.9223385,99.44832753125,66.0,107.0
395,99.5047485,99.69403175000001,57.0,77.0
396,99.2135435,99.87057478125,50.0,90.0
397,98.84953725,100.15449965625,38.0,72.0
398,100.0871585,100.2655215625,50.0,72.0
399,99.7959535,100.2946420625,62.0,96.0
400,99.7959535,100.32376256250001,66.0,112.0
401,100.3783635,100.6695685,57.0,95.0
402,100.6695685,100.837011375,59.0,85.0
403,100.6695685,100.83883140625001,62.0,95.0
404,100.9607735,101.106376,62.0,69.0
405,100.9607735,101.11547615625,59.0,69.0
406,101.2519785,101.38484078125,59.0,96.0
407,101.2519785,101.39212090625,55.0,95.0
408,100.9607735,101.39940103125001,50.0,52.0
409,101.2519785,101.404861125,62.0,96.0
410,101.5431835,101.6997061875,59.0,100.0
411,101.5431835,101.70152621875,55.0,99.0
412,101.5431835,101.7142664375,62.0,97.0
413,101.8343885,101.97453090625,55.0,100.0
414,101.8343885,101.979991,59.0,100.0
415,101.8343885,102.00365140625,62.0,100.0
416,100.6695685,102.2020348125,43.0,76.0
417,102.12559350000001,102.25663575,59.0,100.0
418,102.12559350000001,102.2675559375,55.0,96.0
419,102.12559350000001,102.28393621875,62.0,99.0
420,101.5431835,102.31851681250001,50.0,100.0
421,102.4167985,102.8281255625,55.0,102.0
422,102.4167985,102.88818659375,59.0,107.0
423,102.4167985,102.90274684375001,62.0,107.0
424,102.99920850000001,103.07200975,62.0,45.0
425,102.99920850000001,103.11023040625,59.0,43.0
426,102.99920850000001,103.16847140625,55.0,83.0
427,102.7080035,103.3886951875,50.0,92.0
428,103.50881725,103.6362194375,50.0,92.0
429,102.4167985,103.68172021875,43.0,93.0
430,103.2904135,103.91104415625,59.0,112.0
431,103.2904135,103.923784375,62.0,112.0
432,103.8728235,104.127627875,55.0,99.0
433,104.1640285,104.3496716875,57.0,112.0
434,104.1640285,104.36969203125,60.0,112.0
435,104.7464385,104.82833990625001,65.0,47.0
436,104.7464385,104.94846196875,60.0,85.0
437,104.4552335,105.20508637500001,53.0,90.0
438,105.3288485,105.4052898125,53.0,75.0
439,104.1640285,105.47991109375,41.0,72.0
440,105.0376435,105.64735396875,65.0,117.0
441,105.0376435,105.65463409375,69.0,112.0
442,105.54725225,105.8202569375,60.0,92.0
443,105.9112585,106.14968259375,67.0,102.0
444,105.9112585,106.16060278125,64.0,97.0
445,105.9112585,106.22612390625,60.0,96.0
446,106.4936685,106.6356309375,55.0,68.0
447,106.4936685,106.6647514375,60.0,82.0
448,106.4936685,106.675671625,64.0,82.0
449,106.20246350000001,106.91045565625001,48.0,95.0
450,106.7848735,107.4510049375,60.0,107.0
451,105.9112585,107.505605875,36.0,72.0
452,106.7848735,107.5092459375,64.0,95.0
453,107.3672835,107.5820471875,55.0,82.0
454,107.07607850000001,107.651208375,48.0,86.0
455,107.6584885,108.33736015625,60.0,97.0
456,107.6584885,108.36284059375001,55.0,79.0
457,107.6584885,108.379220875,64.0,89.0
458,108.2408985,108.65040553125,48.0,97.0
459,107.6584885,108.87972946875,36.0,92.0
460,108.5321035,109.12907375,60.0,117.0
461,108.5321035,109.13999393750001,64.0,107.0
462,108.8233085,109.1472740625,48.0,93.0
463,109.04171225,109.8461660625,55.0,102.0
464,109.4057185,110.06638984375,59.0,100.0
465,109.4057185,110.09187028125,62.0,107.0
466,109.9881285,110.16467153125001,55.0,95.0
467,109.6969235,110.373975125,50.0,73.0
468,109.4057185,110.6688201875,43.0,77.0
469,110.5705385,110.69976071875,50.0,99.0
470,110.2793335,110.796222375,59.0,100.0
471,110.2793335,110.94182487500001,62.0,112.0
472,110.8617435,111.123828,55.0,89.0
473,111.15294850000001,111.233029875,57.0,102.0
474,111.15294850000001,111.25305021875,60.0,107.0
475,111.7353585,112.14122546875001,53.0,92.0
476,112.02656350000001,112.47975128125,65.0,112.0
477,112.3177685,112.51797193750001,53.0,96.0
478,112.02656350000001,112.521612,69.0,112.0
479,112.02656350000001,112.52343203125,60.0,112.0
480,111.15294850000001,112.6089735,41.0,92.0
481,112.53617225,112.7836965,65.0,107.0
482,111.4441535,112.91837881250001,48.0,65.0
483,112.9001785,113.58451025000001,62.0,95.0
484,112.9001785,113.5881503125,71.0,96.0
485,112.9001785,113.5990705,67.0,96.0
486,113.4825885,113.72465265625,55.0,100.0
487,113.1913835,113.91757596875,50.0,90.0
488,113.99219725,114.1050391875,50.0,100.0
489,112.9001785,114.1195994375,43.0,83.0
490,113.7737935,114.16510021875,62.0,107.0
491,113.7737935,114.32162290625,71.0,127.0
492,113.7737935,114.35074340625,67.0,127.0
493,114.28340225000001,114.4326448125,62.0,100.0
494,114.6474085,115.04599534375001,64.0,95.0
495,114.6474085,115.047815375,60.0,117.0
496,114.6474085,115.05327546875,67.0,97.0
497,115.15701725,115.26075903125,64.0,82.0
498,115.15701725,115.266219125,60.0,76.0
499,115.15701725,115.28623946875,67.0,86.0
500,115.084216,115.59746481250001,48.0,83.0
501,115.44822225,115.8449890625,64.0,117.0
502,115.5210235,115.89412990625,60.0,127.0
503,115.5210235,115.91961034375001,67.0,127.0
504,116.10343350000001,116.36733803125,64.0,127.0
505,116.10343350000001,116.38553834375,60.0,112.0
506,116.10343350000001,116.38553834375,67.0,117.0
507,114.6474085,116.40373865625,36.0,85.0
508,116.3946385,116.40373865625,36.0,86.0
509,115.8122285,116.41101878125001,48.0,117.0
510,116.97704850000001,117.20455240625,55.0,76.0
511,116.6858435,117.36107509375,48.0,90.0
512,117.5594585,118.16188884375,48.0,92.0
513,117.2682535,118.28201090625001,64.0,99.0
514,117.2682535,118.3347918125,60.0,97.0
515,117.8506635,118.34753203125,55.0,86.0
516,118.1418685,118.673317625,36.0,71.0
517,118.4330735,118.6987980625,48.0,90.0
518,118.7242785,119.01002340625,55.0,85.0
519,119.0154835,119.38858990625,60.0,85.0
520,119.3066885,119.71255546875,55.0,86.0
521,119.0154835,119.83267753125,64.0,93.0
522,119.5978935,119.83631759375,60.0,89.0
523,120.4715085,120.86281521875,50.0,77.0
524,119.8890985,121.2686821875,38.0,69.0
525,121.05391850000001,121.27050221875,50.0,70.0
526,120.18030350000001,121.33056325,45.0,57.0
527,120.7627135,121.60174790625,62.0,90.0
528,120.7627135,121.6108480625,65.0,92.0
529,121.3451235,121.68364931250001,57.0,83.0
530,121.9275335,122.5354239375,50.0,89.0
531,122.2187385,122.55180421875001,55.0,83.0
532,121.6363285,122.58820484375,43.0,66.0
533,122.5099435,123.3507979375,62.0,107.0
534,122.8011485,123.35625803125001,59.0,82.0
535,123.0923535,123.376278375,55.0,90.0
536,123.9659685,124.4355365625,50.0,85.0
537,123.6747635,124.60843953125,45.0,50.0
538,123.3835585,124.6175396875,38.0,79.0
539,124.8395835,125.25455062500001,57.0,78.0
540,124.5483785,125.2727509375,62.0,78.0
541,124.25717350000001,125.27821103125001,65.0,99.0
542,125.7131985,126.17366640625,50.0,89.0
543,125.13078850000001,126.39025012500001,38.0,72.0
544,125.4219935,126.433930875,45.0,62.0
545,126.2956085,126.72331584375,50.0,75.0
546,126.00440350000001,126.85071803125,65.0,112.0
547,126.5868135,126.885298625,62.0,96.0
548,127.4604285,127.76619375,55.0,89.0
549,127.1692235,127.87357559375,50.0,69.0
550,126.8780185,127.955477,43.0,77.0
551,128.04283850000002,128.39774459375,59.0,89.0
552,127.7516335,128.42686509375,62.0,112.0
553,128.3340435,128.60340812500002,55.0,95.0
554,129.2076585,129.60624534375,48.0,95.0
555,129.4988635,129.855589625,64.0,127.0
556,128.6252485,130.1285943125,36.0,78.0
557,129.7900685,130.14133453125,62.0,102.0
558,128.9164535,130.40341903125,43.0,56.0
559,130.0812735,130.41069915625,64.0,63.0
560,130.3724785,130.41069915625,64.0,95.0
561,130.3724785,132.45641428125,48.0,83.0
562,130.3724785,132.50737515625,36.0,72.0
563,130.3724785,132.5383156875,67.0,90.0
564,130.3724785,132.59837671875,60.0,96.0
565,133.8669385,135.56866771875,53.0,92.0
566,133.8669385,135.6614893125,41.0,64.0
567,133.8669385,135.7342905625,60.0,93.0
568,133.8669385,135.73611059375,65.0,93.0
569,133.8669385,135.76523109375,69.0,90.0
570,136.4877835,136.71164734375,48.0,102.0
571,136.4877835,136.72620759375,60.0,107.0
572,136.7789885,136.9791919375,50.0,95.0
573,136.7789885,137.0374329375,62.0,99.0
574,137.07019350000002,137.266756875,64.0,88.0
575,137.07019350000002,137.29951743750001,52.0,99.0
576,137.9438085,138.344215375,53.0,90.0
577,137.3613985,138.61904009375002,41.0,93.0
578,137.6526035,138.649980625,48.0,65.0
579,138.2350135,138.9666660625,65.0,99.0
580,138.8174235,139.10134837500001,57.0,97.0
581,138.5262185,139.12136871875,60.0,75.0
582,139.6910385,139.92218246875,55.0,77.0
583,139.1086285,140.74847665625,36.0,73.0
584,140.2734485,140.7648569375,60.0,95.0
585,140.5646535,140.775777125,55.0,92.0
586,139.9822435,140.790337375,64.0,102.0
587,139.3998335,140.80671765625002,48.0,88.0
588,141.4382685,141.707633125,55.0,62.0
589,141.1470635,141.89145628125002,48.0,89.0
590,140.8558585,142.275482875,36.0,71.0
591,142.0206785,142.54848756250001,48.0,76.0
592,141.7294735,142.57578803125,64.0,95.0
593,141.7294735,142.60126846875,60.0,89.0
594,142.3118835,142.63038896875,55.0,88.0
595,143.1854985,143.46214325,55.0,78.0
596,142.8942935,143.7788286875,50.0,86.0
597,142.6030885,143.847989875,43.0,70.0
598,143.4767035,144.16103525,62.0,112.0
599,143.7679085,144.2083560625,59.0,100.0
600,144.0591135,144.35031850000001,55.0,93.0
601,144.9327285,145.28763459375,55.0,86.0
602,144.35031850000001,145.97924646875,36.0,89.0
603,144.6415235,146.16488965625,48.0,83.0
604,145.5151385,146.1885500625,60.0,73.0
605,145.8063435,146.21585053125,55.0,88.0
606,145.22393350000002,146.243151,64.0,97.0
607,146.09754850000002,146.98572375,36.0,67.0
608,146.60715725,147.02030434375,55.0,68.0
609,146.31595225,147.09310559375,48.0,73.0
610,146.9711635,147.8192980625,64.0,99.0
611,147.2623685,147.822938125,60.0,89.0
612,147.5535735,147.9066595625,55.0,78.0
613,148.4271885,148.75661415625,53.0,66.0
614,148.1359835,148.90585671875002,48.0,75.0
615,147.77197725,148.92405703125002,41.0,69.0
616,148.7183935,149.55742790625,60.0,102.0
617,149.0095985,149.56470803125,57.0,86.0
618,149.3008035,149.59382853125,53.0,86.0
619,149.51920725,150.44196309375,36.0,64.0
620,150.1744185,150.62578625,55.0,88.0
621,149.8832135,150.7750288125,48.0,79.0
622,150.7568285,151.26643725,60.0,102.0
623,150.4656235,151.28281753125,64.0,102.0
624,151.0480335,151.29737778125,55.0,93.0
625,151.9216485,152.191013125,53.0,78.0
626,151.6304435,152.3475358125,48.0,42.0
627,151.26643725,152.6387408125,41.0,78.0
628,152.5040585,152.65148103125,48.0,72.0
629,152.2128535,152.9226656875,57.0,90.0
630,152.2128535,152.933585875,60.0,97.0
631,152.7952635,153.07008821875002,53.0,83.0
632,153.6688785,153.93642309375,55.0,75.0
633,153.37767350000001,154.1166061875,48.0,78.0
634,153.0864685,154.38233075,36.0,75.0
635,154.25128850000002,154.56251384375,48.0,85.0
636,154.5424935,154.862819,60.0,93.0
637,153.9600835,154.87919928125,64.0,117.0
638,154.8336985,155.34330725,62.0,99.0
639,154.8336985,155.35968753125,66.0,107.0
640,155.4161085,155.60539175,57.0,77.0
641,155.12490350000002,155.78193478125002,50.0,90.0
642,154.76089725,156.06585965625,38.0,72.0
643,155.9985185,156.1768815625,50.0,72.0
644,155.7073135,156.2060020625,62.0,96.0
645,155.7073135,156.2351225625,66.0,112.0
646,156.2897235,156.5809285,57.0,95.0
647,156.5809285,156.748371375,59.0,85.0
648,156.5809285,156.75019140625,62.0,95.0
649,156.8721335,157.017736,62.0,69.0
650,156.8721335,157.02683615625,59.0,69.0
651,157.1633385,157.29620078125,59.0,96.0
652,157.1633385,157.30348090625,55.0,95.0
653,156.8721335,157.31076103125,50.0,52.0
654,157.1633385,157.316221125,62.0,96.0
655,157.4545435,157.6110661875,59.0,100.0
656,157.4545435,157.61288621875,55.0,99.0
657,157.4545435,157.62562643750002,62.0,97.0
658,157.7457485,157.88589090625,55.0,100.0
659,157.7457485,157.89135100000001,59.0,100.0
660,157.7457485,157.91501140625002,62.0,100.0
661,156.5809285,158.1133948125,43.0,76.0
662,158.0369535,158.16799575000002,59.0,100.0
663,158.0369535,158.1789159375,55.0,96.0
664,158.0369535,158.19529621875,62.0,99.0
665,157.4545435,158.2298768125,50.0,100.0
666,158.3281585,158.7394855625,55.0,102.0
667,158.3281585,158.79954659375,59.0,107.0
668,158.3281585,158.81410684375,62.0,107.0
669,158.9105685,158.98336975,62.0,45.0
670,158.9105685,159.02159040625,59.0,43.0
671,158.9105685,159.07983140625,55.0,83.0
672,158.6193635,159.3000551875,50.0,92.0
673,159.42017725,159.5475794375,50.0,92.0
674,158.3281585,159.59308021875,43.0,93.0
675,159.2017735,159.82240415625,59.0,112.0
676,159.2017735,159.835144375,62.0,112.0
677,159.7841835,160.038987875,55.0,99.0
678,160.0753885,160.2610316875,57.0,112.0
679,160.0753885,160.28105203125,60.0,112.0
680,160.6577985,160.73969990625,65.0,47.0
681,160.6577985,160.85982196875,60.0,85.0
682,160.3665935,161.116446375,53.0,90.0
683,161.2402085,161.3166498125,53.0,75.0
684,160.0753885,161.39127109375,41.0,72.0
685,160.9490035,161.55871396875,65.0,117.0
686,160.9490035,161.56599409375,69.0,112.0
687,161.45861225000002,161.7316169375,60.0,92.0
688,161.8226185,162.06104259375002,67.0,102.0
689,161.8226185,162.07196278125,64.0,97.0
690,161.8226185,162.13748390625,60.0,96.0
691,162.40502850000001,162.5469909375,55.0,68.0
692,162.40502850000001,162.5761114375,60.0,82.0
693,162.40502850000001,162.587031625,64.0,82.0
694,162.1138235,162.82181565625,48.0,95.0
695,162.6962335,163.3623649375,60.0,107.0
696,161.8226185,163.41696587500002,36.0,72.0
697,162.6962335,163.4206059375,64.0,95.0
698,163.27864350000002,163.4934071875,55.0,82.0
699,162.9874385,163.562568375,48.0,86.0
700,163.5698485,164.24872015625002,60.0,97.0
701,163.5698485,164.27420059375,55.0,79.0
702,163.5698485,164.290580875,64.0,89.0
703,164.15225850000002,164.56176553125,48.0,97.0
704,163.5698485,164.79108946875002,36.0,92.0
705,164.4434635,165.04043375,60.0,117.0
706,164.4434635,165.0513539375,64.0,107.0
707,164.7346685,165.0586340625,48.0,93.0
708,164.95307225,165.7575260625,55.0,102.0
709,165.3170785,165.97774984375,59.0,100.0
710,165.3170785,166.00323028125,62.0,107.0
711,165.8994885,166.07603153125,55.0,95.0
712,165.6082835,166.28533512500002,50.0,73.0
713,165.3170785,166.5801801875,43.0,77.0
714,166.4818985,166.61112071875002,50.0,99.0
715,166.1906935,166.70758237500002,59.0,100.0
716,166.1906935,166.853184875,62.0,112.0
717,166.7731035,167.035188,55.0,89.0
718,167.0643085,167.144389875,57.0,102.0
719,167.0643085,167.16441021875,60.0,107.0
720,167.6467185,168.05258546875,53.0,92.0
721,167.9379235,168.39111128125,65.0,112.0
722,168.2291285,168.4293319375,53.0,96.0
723,167.9379235,168.432972,69.0,112.0
724,167.9379235,168.43479203125,60.0,112.0
725,167.0643085,168.5203335,41.0,92.0
726,168.44753225,168.6950565,65.0,107.0
727,167.3555135,168.8297388125,48.0,65.0
728,168.8115385,169.49587025,62.0,95.0
729,168.8115385,169.4995103125,71.0,96.0
730,168.8115385,169.5104305,67.0,96.0
731,169.3939485,169.63601265625002,55.0,100.0
732,169.1027435,169.82893596875002,50.0,90.0
733,169.90355725,170.0163991875,50.0,100.0
734,168.8115385,170.0309594375,43.0,83.0
735,169.6851535,170.07646021875001,62.0,107.0
736,169.6851535,170.23298290625002,71.0,127.0
737,169.6851535,170.26210340625,67.0,127.0
738,170.19476225,170.3440048125,62.0,100.0
739,170.5587685,170.95735534375,64.0,95.0
740,170.5587685,170.959175375,60.0,117.0
741,170.5587685,170.96463546875,67.0,97.0
742,171.1411785,171.24492028125,64.0,82.0
743,171.1411785,171.250380375,60.0,76.0
744,171.1411785,171.27040071875,67.0,86.0
745,170.995576,171.5088248125,48.0,83.0
746,171.43238350000001,171.80548990625002,60.0,127.0
747,171.43238350000001,171.8291503125,64.0,117.0
748,171.43238350000001,171.83097034375,67.0,127.0
749,172.0147935,172.27869803125,64.0,127.0
750,172.0147935,172.29689834375,60.0,112.0
751,172.0147935,172.29689834375,67.0,117.0
752,170.5587685,172.31509865625,36.0,85.0
753,171.7235885,172.32237878125,48.0,117.0
754,172.30599850000002,172.57354309375,67.0,100.0
755,172.30599850000002,172.57718315625002,55.0,100.0
756,172.30599850000002,172.59174340625,62.0,102.0
757,172.30599850000002,172.59538346875001,50.0,97.0
758,172.30599850000002,172.59902353125,71.0,96.0
759,172.30599850000002,172.6154038125,43.0,72.0
760,174.3444335,174.5155164375,41.0,70.0
761,174.3444335,174.5300766875,60.0,99.0
762,174.3444335,174.5300766875,65.0,100.0
763,174.3444335,174.5300766875,69.0,97.0
764,174.3444335,174.53371675,48.0,90.0
765,174.3444335,174.55009703125,53.0,90.0
766,174.9268435,175.4910531875,55.0,96.0
767,174.9268435,175.51471359375,67.0,99.0
768,174.9268435,175.51835365625,50.0,93.0
769,174.9268435,175.52563378125,62.0,99.0
770,174.9268435,175.54201406250002,71.0,100.0
771,174.9268435,175.54747415625,43.0,71.0
772,175.8004585,176.03888259375,67.0,102.0
773,175.8004585,176.04980278125,64.0,97.0
774,175.8004585,176.11532390625,60.0,96.0
775,176.3828685,176.5248309375,55.0,68.0
776,176.3828685,176.5539514375,60.0,82.0
777,176.3828685,176.564871625,64.0,82.0
778,176.0916635,176.79965565625,48.0,95.0
779,176.6740735,177.3402049375,60.0,107.0
780,175.8004585,177.394805875,36.0,72.0
781,176.6740735,177.39844593750001,64.0,95.0
782,177.2564835,177.4712471875,55.0,82.0
783,176.9652785,177.540408375,48.0,86.0
784,177.5476885,178.22656015625,60.0,97.0
785,177.5476885,178.25204059375,55.0,79.0
786,177.5476885,178.268420875,64.0,89.0
787,178.1300985,178.53960553125,48.0,97.0
788,177.5476885,178.76892946875,36.0,92.0
789,178.4213035,179.01827375,60.0,117.0
790,178.4213035,179.0291939375,64.0,107.0
791,178.7125085,179.0364740625,48.0,93.0
792,178.93091225,179.7353660625,55.0,102.0
793,179.2949185,179.95558984375,59.0,100.0
794,179.2949185,179.98107028125,62.0,107.0
795,179.8773285,180.05387153125,55.0,95.0
796,179.5861235,180.263175125,50.0,73.0
797,179.2949185,180.5580201875,43.0,77.0
798,180.45973850000001,180.58896071875,50.0,99.0
799,180.1685335,180.685422375,59.0,100.0
800,180.1685335,180.831024875,62.0,112.0
801,180.7509435,181.013028,55.0,89.0
802,181.0421485,181.12222987500002,57.0,102.0
803,181.0421485,181.14225021875,60.0,107.0
804,181.6245585,182.03042546875,53.0,92.0
805,181.9157635,182.36895128125,65.0,112.0
806,182.20696850000002,182.4071719375,53.0,96.0
807,181.9157635,182.410812,69.0,112.0
808,181.9157635,182.41263203125,60.0,112.0
809,181.0421485,182.4981735,41.0,92.0
810,182.42537225,182.6728965,65.0,107.0
811,181.33335350000002,182.8075788125,48.0,65.0
812,182.7893785,183.47371025,62.0,95.0
813,182.7893785,183.4773503125,71.0,96.0
814,182.7893785,183.4882705,67.0,96.0
815,183.3717885,183.61385265625,55.0,100.0
816,183.08058350000002,183.80677596875,50.0,90.0
817,183.88139725,183.9942391875,50.0,100.0
818,182.7893785,184.00879943750002,43.0,83.0
819,183.6629935,184.05430021875,62.0,107.0
820,183.6629935,184.21082290625,71.0,127.0
821,183.6629935,184.23994340625,67.0,127.0
822,184.17260225,184.3218448125,62.0,100.0
823,184.5366085,184.93519534375,64.0,95.0
824,184.5366085,184.93701537500002,60.0,117.0
825,184.5366085,184.94247546875,67.0,97.0
826,185.04621725,185.14995903125,64.0,82.0
827,185.04621725,185.155419125,60.0,76.0
828,185.04621725,185.17543946875,67.0,86.0
829,184.97341600000001,185.4866648125,48.0,83.0
830,185.33742225,185.7341890625,64.0,117.0
831,185.4102235,185.78332990625,60.0,127.0
832,185.4102235,185.80881034375,67.0,127.0
833,185.9926335,186.25653803125002,64.0,127.0
834,185.9926335,186.27473834375002,60.0,112.0
835,185.9926335,186.27473834375002,67.0,117.0
836,184.5366085,186.2838385,36.0,85.0
837,185.7014285,186.2838385,48.0,117.0
838,186.8662485,187.09375240625,55.0,76.0
839,186.5750435,187.25027509375,48.0,90.0
840,186.2838385,187.94188696875,36.0,86.0
841,187.4486585,188.05108884375,48.0,92.0
842,187.1574535,188.17121090625,64.0,99.0
843,187.1574535,188.2239918125,60.0,97.0
844,187.7398635,188.23673203125,55.0,86.0
845,188.0310685,188.562517625,36.0,71.0
846,188.3222735,188.5879980625,48.0,90.0
847,188.6134785,188.89922340625,55.0,85.0
848,188.9046835,189.27778990625,60.0,85.0
849,189.1958885,189.60175546875,55.0,86.0
850,188.9046835,189.72187753125002,64.0,93.0
851,189.48709350000001,189.72551759375,60.0,89.0
852,190.36070850000002,190.75201521875002,50.0,77.0
853,189.7782985,191.1578821875,38.0,69.0
854,190.9431185,191.15970221875,50.0,70.0
855,190.0695035,191.21976325,45.0,57.0
856,190.6519135,191.49094790625,62.0,90.0
857,190.6519135,191.5000480625,65.0,92.0
858,191.23432350000002,191.5728493125,57.0,83.0
859,191.8167335,192.4246239375,50.0,89.0
860,192.10793850000002,192.44100421875,55.0,83.0
861,191.5255285,192.47740484375,43.0,66.0
862,192.3991435,193.2399979375,62.0,107.0
863,192.6903485,193.24545803125,59.0,82.0
864,192.9815535,193.26547837500001,55.0,90.0
865,193.8551685,194.3247365625,50.0,85.0
866,193.5639635,194.49763953125,45.0,50.0
867,193.2727585,194.50673968750002,38.0,79.0
868,194.7287835,195.143750625,57.0,78.0
869,194.4375785,195.1619509375,62.0,78.0
870,194.1463735,195.16741103125,65.0,99.0
871,195.6023985,196.06286640625,50.0,89.0
872,195.0199885,196.279450125,38.0,72.0
873,195.3111935,196.323130875,45.0,62.0
874,196.1848085,196.61251584375,50.0,75.0
875,195.8936035,196.73991803125,65.0,112.0
876,196.4760135,196.774498625,62.0,96.0
877,197.3496285,197.65539375,55.0,89.0
878,197.0584235,197.76277559375,50.0,69.0
879,196.7672185,197.844677,43.0,77.0
880,197.9320385,198.28694459375,59.0,89.0
881,197.6408335,198.31606509375,62.0,112.0
882,198.2232435,198.492608125,55.0,95.0
883,198.5544891875,200.1706769375,48.0,95.0
884,198.550849125,200.17249696875,36.0,71.0
885,198.55630921875002,200.3017191875,64.0,95.0
886,198.55630921875002,200.30717928125,60.0,102.0
887,198.55266915625,200.31081934375,55.0,90.0
888,201.1243733125,203.55047496875,48.0,52.0
889,201.03337175000001,203.59415571875002,36.0,67.0
890,201.12073325,203.67787715625,55.0,50.0
891,201.16259396875,203.68333725,60.0,71.0
892,201.244495375,203.72155790625,64.0,95.0
