,start,end,pitch,velocity
0,25.91,26.0475,76.0,95.0
1,26.21,26.35375,73.0,87.0
2,26.51,26.6475,76.0,93.0
3,26.810000000000002,26.9575,73.0,87.0
4,27.11,27.245,76.0,95.0
5,27.41,27.6525,76.0,103.0
6,28.310000000000002,28.45125,75.0,95.0
7,28.61,28.75125,75.0,93.0
8,28.91,29.075,75.0,90.0
9,29.21,29.375,76.0,87.0
10,29.51,30.177500000000002,75.0,103.0
11,30.71,30.9175,76.0,102.0
12,31.01,31.181250000000002,73.0,93.0
13,31.310000000000002,31.4475,76.0,103.0
14,31.61,31.7325,73.0,95.0
15,31.91,32.8025,76.0,102.0
16,33.11,33.26875,75.0,87.0
17,33.410000000000004,33.59625,75.0,93.0
18,33.71,33.86875,75.0,93.0
19,34.01,34.18375,76.0,102.0
20,34.31,35.0525,75.0,102.0
21,35.51,35.705,76.0,102.0
22,35.81,35.9775,73.0,93.0
23,36.11,36.28375,76.0,102.0
24,36.410000000000004,36.542500000000004,73.0,102.0
25,36.71,36.97625,76.0,102.0
26,37.01,37.57875,76.0,102.0
27,37.910000000000004,38.02375,80.0,87.0
28,38.21,38.33875,80.0,80.0
29,38.51,38.675000000000004,80.0,87.0
30,38.81,39.01375,78.0,93.0
31,39.11,39.71,75.0,95.0
32,39.71,39.8875,73.0,93.0
33,40.01,40.19,71.0,87.0
34,40.31,40.823750000000004,73.0,93.0
35,40.910000000000004,41.362500000000004,76.0,105.0
36,41.51,41.6925,76.0,105.0
37,41.81,42.71,76.0,102.0
38,42.71,42.917500000000004,80.0,93.0
39,43.01,43.1725,80.0,93.0
40,43.31,43.475,80.0,102.0
41,43.61,43.7625,83.0,102.0
42,43.910000000000004,44.362500000000004,80.0,103.0
43,44.51,44.695,76.0,105.0
44,44.81,45.018750000000004,78.0,102.0
45,45.11,45.26,80.0,87.0
46,45.71,45.95,80.0,93.0
47,46.31,46.61625,80.0,93.0
48,46.910000000000004,47.06,78.0,93.0
49,47.21,47.3675,76.0,103.0
50,47.51,47.68625,78.0,103.0
51,48.11,48.3325,78.0,87.0
52,48.410000000000004,48.5675,80.0,90.0
53,48.71,49.042500000000004,78.0,95.0
54,49.31,49.475,76.0,87.0
55,49.61,49.775,78.0,87.0
56,49.910000000000004,50.08375,80.0,87.0
57,50.21,50.35375,73.0,90.0
58,50.51,50.6725,73.0,93.0
59,50.81,50.97375,80.0,93.0
60,51.11,51.2725,80.0,95.0
61,51.410000000000004,51.5475,73.0,102.0
62,51.71,51.8725,73.0,103.0
63,52.31,52.47625,80.0,85.0
64,52.61,52.7625,80.0,87.0
65,52.910000000000004,53.097500000000004,80.0,87.0
66,53.21,53.36875,83.0,93.0
67,53.51,53.905,80.0,103.0
68,54.11,54.25,76.0,102.0
69,54.410000000000004,54.557500000000005,78.0,85.0
70,54.71,54.862500000000004,80.0,95.0
71,55.31,55.48125,80.0,93.0
72,55.910000000000004,56.1375,80.0,93.0
73,56.51,56.6475,78.0,93.0
74,56.81,56.9425,76.0,105.0
75,57.11,57.71,78.0,95.0
76,57.71,57.875,78.0,95.0
77,58.01,58.1625,80.0,90.0
78,58.31,58.6725,78.0,103.0
79,58.910000000000004,59.05875,76.0,93.0
80,59.21,59.36875,78.0,87.0
81,59.51,59.65375,80.0,93.0
82,59.81,59.945,73.0,93.0
83,60.11,60.2725,73.0,102.0
84,60.410000000000004,60.55375,80.0,90.0
85,60.71,60.8775,80.0,95.0
86,61.01,61.30125,73.0,102.0
87,61.910000000000004,62.34125,80.0,95.0
88,62.51,62.690000000000005,80.0,93.0
89,62.81,62.98875,78.0,95.0
90,63.11,64.2625,80.0,95.0
91,73.922185125,74.06072416666666,76.0,95.0
92,74.224452125,74.36928839583334,73.0,87.0
93,74.526719125,74.66525816666666,76.0,93.0
94,74.828986125,74.97760073333333,73.0,87.0
95,75.131253125,75.267273275,76.0,95.0
96,75.433520125,75.62747478333333,73.0,93.0
97,75.735787125,75.91588787916666,76.0,105.0
98,76.038054125,76.18666873333333,78.0,95.0
99,76.340321125,76.48263850416667,75.0,95.0
100,76.642588125,76.78490550416667,75.0,93.0
101,76.944855125,77.111101975,75.0,90.0
102,77.247122125,77.413368975,76.0,87.0
103,77.549389125,78.2219332,75.0,103.0
104,78.758457125,78.96752513333334,76.0,102.0
105,79.06072412500001,79.23326820416666,73.0,93.0
106,79.362991125,79.50153016666667,76.0,103.0
107,79.665258125,79.78868381666666,73.0,95.0
108,79.967525125,80.86676944999999,76.0,102.0
109,80.874326125,81.176593125,76.0,100.0
110,81.176593125,81.33654274583333,75.0,87.0
111,81.478860125,81.66651755416666,75.0,93.0
112,81.781127125,81.94107674583333,75.0,93.0
113,82.083394125,82.25845709583334,76.0,102.0
114,82.385661125,82.990195125,75.0,102.0
115,82.990195125,83.15896086666666,73.0,69.0
116,83.292462125,83.45870897500001,71.0,87.0
117,83.594729125,84.1703362,73.0,95.0
118,84.19790504166666,84.65780344583332,76.0,102.0
119,84.79940704166665,84.97108573749999,76.0,95.0
120,85.10015804166666,85.67409119999999,76.0,105.0
121,86.00241104166666,86.60274273333333,80.0,87.0
122,86.90274273333333,87.10649273333333,78.0,93.0
123,87.20274273333332,87.80274273333333,75.0,95.0
124,87.80274273333333,87.98024273333333,73.0,93.0
125,88.10274273333333,88.28274273333332,71.0,87.0
126,88.40274273333333,88.91649273333333,73.0,93.0
127,89.00274273333333,89.45524273333334,76.0,105.0
128,89.60274273333333,89.78524273333333,76.0,105.0
129,89.90274273333333,90.80274273333333,76.0,102.0
130,90.80274273333333,91.01024273333333,80.0,93.0
131,91.10274273333333,91.26524273333332,80.0,93.0
132,91.40274273333333,91.56774273333333,80.0,102.0
133,91.70274273333332,91.85524273333333,83.0,102.0
134,92.00274273333332,92.45524273333334,80.0,103.0
135,92.60274273333333,92.78774273333333,76.0,105.0
136,92.90274273333333,93.11149273333334,78.0,102.0
137,93.20274273333332,93.35274273333333,80.0,87.0
138,93.80274273333333,94.04274273333333,80.0,93.0
139,94.40274273333333,94.70899273333333,80.0,93.0
140,95.00274273333332,95.15274273333333,78.0,93.0
141,95.30274273333333,95.46024273333333,76.0,103.0
142,95.60274273333333,95.77899273333333,78.0,103.0
143,96.20274273333332,96.42524273333333,78.0,87.0
144,96.50274273333332,96.66024273333333,80.0,90.0
145,96.80274273333333,97.13524273333333,78.0,95.0
146,97.40274273333333,97.56774273333333,76.0,87.0
147,97.70274273333332,97.86774273333333,78.0,87.0
148,98.00274273333332,98.17649273333333,80.0,87.0
149,98.30274273333333,98.44649273333333,73.0,90.0
150,98.60274273333333,98.76524273333332,73.0,93.0
151,98.90274273333333,99.06649273333333,80.0,93.0
152,99.20274273333332,99.36524273333333,80.0,95.0
153,99.50274273333332,99.64024273333332,73.0,102.0
154,99.80274273333333,99.96524273333333,73.0,103.0
155,100.40274273333333,100.56899273333333,80.0,85.0
156,100.70274273333332,100.85524273333333,80.0,87.0
157,101.00274273333332,101.19024273333332,80.0,87.0
158,101.30274273333333,101.46149273333333,83.0,93.0
159,101.60274273333333,101.99774273333333,80.0,103.0
160,102.20274273333332,102.34274273333332,76.0,102.0
161,102.50274273333332,102.65024273333333,78.0,85.0
162,102.80274273333333,102.95524273333334,80.0,95.0
163,103.40274273333333,103.57399273333333,80.0,93.0
164,104.00274273333332,104.23024273333333,80.0,93.0
165,104.60274273333333,104.74024273333333,78.0,93.0
166,104.90274273333333,105.03524273333333,76.0,105.0
167,105.20274273333332,105.80274273333333,78.0,95.0
168,105.80274273333333,105.96774273333332,78.0,95.0
169,106.10274273333333,106.25524273333333,80.0,90.0
170,106.40274273333333,106.76524273333332,78.0,103.0
171,107.00274273333332,107.15149273333333,76.0,93.0
172,107.30274273333333,107.46149273333333,78.0,87.0
173,107.60274273333333,107.74649273333333,80.0,93.0
174,107.90274273333333,108.03774273333333,73.0,93.0
175,108.20274273333332,108.36524273333333,73.0,102.0
176,108.50274273333332,108.64649273333333,80.0,90.0
177,108.80274273333333,108.97024273333332,80.0,95.0
178,109.10274273333333,109.39399273333333,73.0,102.0
179,110.00274273333332,110.43399273333333,80.0,95.0
180,110.60274273333333,110.78274273333332,80.0,93.0
181,110.90274273333333,111.08149273333333,78.0,95.0
182,111.20274273333332,111.80274273333333,75.0,95.0
183,111.80274273333333,112.06649273333333,63.0,105.0
184,112.10274273333333,112.25524273333333,64.0,87.0
185,112.25274273333332,112.35524273333333,63.0,93.0
186,112.40274273333333,113.91774273333333,61.0,105.0
187,126.80274273333333,126.94024273333332,76.0,95.0
188,127.10274273333333,127.24649273333333,73.0,87.0
189,127.40274273333333,127.54024273333333,76.0,93.0
190,127.70274273333334,127.85024273333333,73.0,87.0
191,128.00274273333332,128.1377427333333,76.0,95.0
192,128.30274273333333,128.54524273333334,76.0,103.0
193,129.20274273333334,129.34399273333332,75.0,95.0
194,129.50274273333332,129.64399273333333,75.0,93.0
195,129.80274273333333,129.96774273333332,75.0,90.0
196,130.10274273333334,130.26774273333334,76.0,87.0
197,130.40274273333333,131.07024273333332,75.0,103.0
198,131.60274273333334,131.81024273333333,76.0,102.0
199,131.90274273333333,132.07399273333334,73.0,93.0
200,132.20274273333334,132.34024273333333,76.0,103.0
201,132.50274273333332,132.62524273333332,73.0,95.0
202,132.80274273333333,133.69524273333332,76.0,102.0
203,134.00274273333332,134.16149273333332,75.0,87.0
204,134.30274273333333,134.48899273333333,75.0,93.0
205,134.60274273333334,134.76149273333334,75.0,93.0
206,134.90274273333333,135.07649273333334,76.0,102.0
207,135.20274273333334,135.94524273333332,75.0,102.0
208,136.40274273333333,136.59774273333332,76.0,102.0
209,136.70274273333334,136.87024273333333,73.0,93.0
210,137.00274273333332,137.17649273333333,76.0,102.0
211,137.30274273333333,137.43524273333333,73.0,102.0
212,137.60274273333334,137.86899273333333,76.0,102.0
213,137.90274273333333,138.47149273333332,76.0,102.0
214,138.80274273333333,138.9164927333333,80.0,87.0
215,139.10274273333334,139.2314927333333,80.0,80.0
216,139.40274273333333,139.56774273333332,80.0,87.0
217,139.70274273333334,139.90649273333332,78.0,93.0
218,140.00274273333332,140.60274273333334,75.0,95.0
219,140.60274273333334,140.78024273333332,73.0,93.0
220,140.90274273333333,141.08274273333333,71.0,87.0
221,141.20274273333334,141.71649273333333,73.0,93.0
222,141.80274273333333,142.25524273333332,76.0,105.0
223,142.40274273333333,142.58524273333333,76.0,105.0
224,142.70274273333334,143.60274273333334,76.0,102.0
225,143.60274273333334,143.81024273333333,80.0,93.0
226,143.90274273333333,144.06524273333332,80.0,93.0
227,144.20274273333334,144.36774273333333,80.0,102.0
228,144.50274273333332,144.65524273333332,83.0,102.0
229,144.80274273333333,145.25524273333332,80.0,103.0
230,145.40274273333333,145.58774273333333,76.0,105.0
231,145.70274273333334,145.91149273333332,78.0,102.0
232,146.00274273333332,146.15274273333333,80.0,87.0
233,146.60274273333334,146.84274273333332,80.0,93.0
234,147.20274273333334,147.50899273333334,80.0,93.0
235,147.80274273333333,147.95274273333334,78.0,93.0
236,148.10274273333334,148.2602427333333,76.0,103.0
237,148.40274273333333,148.57899273333334,78.0,103.0
238,149.00274273333332,149.22524273333335,78.0,87.0
239,149.30274273333333,149.46024273333333,80.0,90.0
240,149.60274273333334,149.93524273333333,78.0,95.0
241,150.2027427333333,150.36774273333333,76.0,87.0
242,150.50274273333332,150.66774273333334,78.0,87.0
243,150.80274273333333,150.97649273333332,80.0,87.0
244,151.10274273333334,151.24649273333333,73.0,90.0
245,151.40274273333333,151.56524273333332,73.0,93.0
246,151.7027427333333,151.86649273333333,80.0,93.0
247,152.00274273333332,152.16524273333334,80.0,95.0
248,152.30274273333333,152.44024273333332,73.0,102.0
249,152.60274273333334,152.7652427333333,73.0,103.0
250,153.2027427333333,153.36899273333333,80.0,85.0
251,153.50274273333332,153.65524273333332,80.0,87.0
252,153.80274273333333,153.99024273333333,80.0,87.0
253,154.10274273333334,154.26149273333334,83.0,93.0
254,154.40274273333333,154.79774273333334,80.0,103.0
255,155.00274273333332,155.14274273333334,76.0,102.0
256,155.30274273333333,155.4502427333333,78.0,85.0
257,155.60274273333334,155.75524273333332,80.0,95.0
258,156.2027427333333,156.37399273333332,80.0,93.0
259,156.80274273333333,157.03024273333332,80.0,93.0
260,157.40274273333333,157.54024273333334,78.0,93.0
261,157.7027427333333,157.83524273333333,76.0,105.0
262,158.00274273333332,158.60274273333334,78.0,95.0
263,158.60274273333334,158.76774273333334,78.0,95.0
264,158.90274273333333,159.05524273333333,80.0,90.0
265,159.2027427333333,159.56524273333332,78.0,103.0
266,159.80274273333333,159.95149273333334,76.0,93.0
267,160.10274273333334,160.26149273333334,78.0,87.0
268,160.40274273333333,160.5464927333333,80.0,93.0
269,160.7027427333333,160.83774273333333,73.0,93.0
270,161.00274273333332,161.16524273333334,73.0,102.0
271,161.30274273333333,161.44649273333334,80.0,90.0
272,161.60274273333334,161.77024273333333,80.0,95.0
273,161.90274273333333,162.19399273333335,73.0,102.0
274,162.80274273333333,163.2339927333333,80.0,95.0
275,163.40274273333333,163.58274273333333,80.0,93.0
276,163.7027427333333,163.88149273333335,78.0,95.0
277,164.00274273333332,165.15524273333332,80.0,95.0
278,174.80274273333333,174.94024273333332,76.0,95.0
279,175.10274273333334,175.24649273333333,73.0,87.0
280,175.40274273333333,175.54024273333334,76.0,93.0
281,175.7027427333333,175.85024273333335,73.0,87.0
282,176.00274273333332,176.1377427333333,76.0,95.0
283,176.30274273333333,176.49524273333333,73.0,93.0
284,176.60274273333334,176.78149273333332,76.0,105.0
285,176.90274273333333,177.05024273333333,78.0,95.0
286,177.2027427333333,177.34399273333332,75.0,95.0
287,177.50274273333332,177.64399273333333,75.0,93.0
288,177.80274273333333,177.96774273333332,75.0,90.0
289,178.10274273333334,178.26774273333334,76.0,87.0
290,178.40274273333333,179.07024273333332,75.0,103.0
291,179.60274273333334,179.81024273333333,76.0,102.0
292,179.90274273333333,180.07399273333334,73.0,93.0
293,180.2027427333333,180.34024273333333,76.0,103.0
294,180.50274273333332,180.62524273333332,73.0,95.0
295,180.80274273333333,181.69524273333332,76.0,102.0
296,181.7027427333333,182.00274273333332,76.0,100.0
297,182.00274273333332,182.16149273333332,75.0,87.0
298,182.30274273333333,182.48899273333333,75.0,93.0
299,182.60274273333334,182.76149273333334,75.0,93.0
300,182.90274273333333,183.07649273333334,76.0,102.0
301,183.2027427333333,183.80274273333333,75.0,102.0
302,183.80274273333333,183.97024273333335,73.0,69.0
303,184.10274273333334,184.26774273333334,71.0,87.0
304,184.40274273333333,184.97524273333335,73.0,95.0
305,185.00274273333332,185.46149273333333,76.0,102.0
306,185.60274273333334,185.77399273333333,76.0,95.0
307,185.90274273333333,186.47524273333335,76.0,105.0
308,186.80274273333333,187.40274273333333,80.0,87.0
309,187.7027427333333,187.90649273333332,78.0,93.0
310,188.00274273333332,188.60274273333334,75.0,95.0
311,188.60274273333334,188.78024273333332,73.0,93.0
312,188.90274273333333,189.08274273333333,71.0,87.0
313,189.2027427333333,189.71649273333333,73.0,93.0
314,189.80274273333333,190.25524273333332,76.0,105.0
315,190.40274273333333,190.58524273333333,76.0,105.0
316,190.7027427333333,191.60274273333334,76.0,102.0
317,191.60274273333334,191.81024273333333,80.0,93.0
318,191.90274273333333,192.06524273333332,80.0,93.0
319,192.2027427333333,192.36774273333333,80.0,102.0
320,192.50274273333332,192.65524273333332,83.0,102.0
321,192.80274273333333,193.25524273333332,80.0,103.0
322,193.40274273333333,193.58774273333333,76.0,105.0
323,193.7027427333333,193.91149273333332,78.0,102.0
324,194.00274273333332,194.15274273333333,80.0,87.0
325,194.60274273333334,194.84274273333332,80.0,93.0
326,195.2027427333333,195.50899273333334,80.0,93.0
327,195.80274273333333,195.9527427333333,78.0,93.0
328,196.10274273333334,196.2602427333333,76.0,103.0
329,196.40274273333333,196.57899273333334,78.0,103.0
330,197.00274273333332,197.22524273333335,78.0,87.0
331,197.30274273333333,197.46024273333333,80.0,90.0
332,197.60274273333334,197.93524273333333,78.0,95.0
333,198.2027427333333,198.36774273333333,76.0,87.0
334,198.50274273333332,198.66774273333334,78.0,87.0
335,198.80274273333333,198.97649273333332,80.0,87.0
336,199.10274273333334,199.24649273333333,73.0,90.0
337,199.40274273333333,199.56524273333332,73.0,93.0
338,199.7027427333333,199.86649273333333,80.0,93.0
339,200.00274273333332,200.16524273333334,80.0,95.0
340,200.30274273333333,200.44024273333332,73.0,102.0
341,200.60274273333334,200.7652427333333,73.0,103.0
342,201.2027427333333,201.36899273333333,80.0,85.0
343,201.50274273333332,201.65524273333332,80.0,87.0
344,201.80274273333333,201.99024273333333,80.0,87.0
345,202.10274273333334,202.26149273333334,83.0,93.0
346,202.40274273333333,202.79774273333334,80.0,103.0
347,203.00274273333332,203.14274273333334,76.0,102.0
348,203.30274273333333,203.4502427333333,78.0,85.0
349,203.60274273333334,203.75524273333332,80.0,95.0
350,204.2027427333333,204.37399273333332,80.0,93.0
351,204.80274273333333,205.03024273333332,80.0,93.0
352,205.40274273333333,205.54024273333334,78.0,93.0
353,205.7027427333333,205.83524273333333,76.0,105.0
354,206.00274273333332,206.60274273333334,78.0,95.0
355,206.60274273333334,206.76774273333334,78.0,95.0
356,206.90274273333333,207.05545001458333,80.0,90.0
357,207.20369120208335,207.56801276458333,78.0,103.0
358,207.80670620208335,207.95620367083333,76.0,93.0
359,208.10821370208333,208.26776142083335,78.0,87.0
360,208.40972120208335,208.55419354583333,80.0,93.0
361,208.71122870208333,208.84690707708333,73.0,93.0
362,209.01324370208334,209.17738495208334,73.0,102.0
363,209.31627370208335,209.46147557708335,80.0,90.0
364,209.61930370208333,209.78849545208334,80.0,95.0
365,209.92233370208334,210.21652532708333,73.0,102.0
366,210.83142370208333,211.26702932708335,80.0,95.0
367,211.43748370208334,211.61930170208333,80.0,93.0
368,211.74051370208335,211.92106907708333,78.0,95.0
369,212.04354370208335,212.64960370208334,75.0,95.0
370,212.64960370208334,212.91601757708335,63.0,105.0
371,212.95263370208335,213.10667395208336,64.0,87.0
372,213.10414870208334,213.20768395208333,63.0,93.0
373,213.25566370208335,214.77554957708335,61.0,105.0
374,215.06054957708335,215.24554957708335,76.0,105.0
375,215.36054957708336,215.56929957708334,78.0,102.0
376,215.66054957708334,215.81054957708335,80.0,87.0
377,216.26054957708337,216.50054957708335,80.0,93.0
378,216.86054957708336,217.16679957708337,80.0,93.0
379,217.46054957708336,217.61054957708336,78.0,93.0
380,217.76054957708337,217.91804957708337,76.0,103.0
381,218.06054957708335,218.23679957708336,78.0,103.0
382,218.66054957708334,218.88304957708334,78.0,87.0
383,218.96054957708336,219.11804957708335,80.0,90.0
384,219.26054957708337,219.59304957708335,78.0,95.0
385,219.86054957708336,220.02554957708335,76.0,87.0
386,220.16054957708334,220.32554957708336,78.0,87.0
387,220.46054957708336,220.63429957708337,80.0,87.0
388,220.76054957708337,220.90429957708335,73.0,90.0
389,221.06054957708335,221.22304957708334,73.0,93.0
390,221.36054957708336,221.52429957708335,80.0,93.0
391,221.66054957708334,221.82304957708334,80.0,95.0
392,221.96054957708336,222.09804957708334,73.0,102.0
393,222.26054957708334,222.42304957708336,73.0,103.0
394,222.86054957708336,223.02679957708335,80.0,85.0
395,223.16054957708334,223.31304957708335,80.0,87.0
396,223.46054957708336,223.64804957708336,80.0,87.0
397,223.76054957708334,223.91929957708336,83.0,93.0
398,224.06054957708335,224.45554957708336,80.0,103.0
399,224.66054957708334,224.80054957708336,76.0,102.0
400,224.96054957708336,225.10804957708336,78.0,85.0
401,225.26054957708334,225.41304957708334,80.0,95.0
402,225.86054957708336,226.03179957708335,80.0,93.0
403,226.46054957708336,226.68804957708335,80.0,93.0
404,227.06054957708335,227.19804957708334,78.0,93.0
405,227.36054957708336,227.49304957708335,76.0,105.0
406,227.66054957708334,228.26054957708334,78.0,95.0
407,228.26054957708334,228.42554957708336,78.0,95.0
408,228.56054957708335,228.71304957708335,80.0,90.0
409,228.86054957708336,229.22304957708334,78.0,103.0
410,229.46054957708336,229.60929957708336,76.0,93.0
411,229.76054957708334,229.91929957708336,78.0,87.0
412,230.06054957708335,230.20429957708336,80.0,93.0
413,230.36054957708336,230.49554957708335,73.0,93.0
414,230.66054957708334,230.82304957708334,73.0,102.0
415,230.96054957708336,231.10429957708334,80.0,90.0
416,231.26054957708334,231.42804957708336,80.0,95.0
417,231.56054957708335,231.85179957708334,73.0,102.0
418,232.46054957708336,232.89179957708336,80.0,95.0
419,233.06054957708335,233.24054957708336,80.0,93.0
420,233.36054957708336,233.53929957708334,78.0,95.0
421,233.66054957708334,234.26054957708334,75.0,95.0
422,234.26054957708334,234.52429957708335,63.0,105.0
423,234.56054957708335,234.71304957708335,64.0,87.0
424,234.71054957708336,234.81304957708335,63.0,93.0
425,234.86054957708336,236.37554957708335,61.0,105.0
