,start,end,pitch,velocity
0,1.9100000000000001,2.7125,49.0,74.0
1,1.9100000000000001,2.8625000000000003,61.0,74.0
2,1.9100000000000001,3.1375,64.0,68.0
3,3.41,3.5812500000000003,61.0,43.0
4,3.71,3.89875,64.0,87.0
5,2.81,3.9162500000000002,56.0,54.0
6,2.78875,3.9275,49.0,78.0
7,3.71,3.94625,61.0,87.0
8,4.3100000000000005,5.15125,49.0,80.0
9,5.21,5.575,61.0,69.0
10,5.21,5.59,64.0,69.0
11,4.61,6.1850000000000005,56.0,59.0
12,5.2025,6.22875,49.0,78.0
13,6.71,7.0425,61.0,66.0
14,6.71,7.12625,64.0,74.0
15,6.71,7.3925,49.0,80.0
16,7.3100000000000005,7.4575000000000005,61.0,49.0
17,7.61,8.10125,61.0,80.0
18,7.61,8.1175,64.0,87.0
19,7.60625,8.58125,49.0,78.0
20,7.01,8.94375,56.0,53.0
21,9.11,9.625,49.0,74.0
22,9.11,9.82,61.0,66.0
23,9.11,9.856250000000001,64.0,72.0
24,10.01,10.2175,61.0,74.0
25,10.01,10.2225,64.0,69.0
26,10.01,10.22625,68.0,87.0
27,9.71,10.70125,56.0,66.0
28,10.61,10.70875,64.0,72.0
29,10.61,10.71875,61.0,66.0
30,10.01875,10.78875,49.0,78.0
31,10.91,11.20625,56.0,72.0
32,11.06,11.6325,61.0,53.0
33,12.11,12.245000000000001,61.0,80.0
34,11.51,12.26875,49.0,93.0
35,12.41,12.52375,64.0,102.0
36,12.41,12.54125,61.0,102.0
37,13.01,13.1125,61.0,87.0
38,13.01,13.11375,68.0,103.0
39,11.81,13.31875,56.0,70.0
40,12.40625,13.44125,49.0,78.0
41,13.61,13.963750000000001,61.0,74.0
42,13.61,14.01125,64.0,80.0
43,14.51,14.6125,57.0,71.0
44,13.91,14.69875,45.0,80.0
45,14.81,14.9425,57.0,90.0
46,14.81,14.945,64.0,90.0
47,15.41,15.535,57.0,83.0
48,15.41,15.55375,61.0,83.0
49,15.41,15.56875,64.0,80.0
50,14.21,15.59,52.0,53.0
51,14.8025,15.97375,45.0,78.0
52,16.31,16.655,61.0,74.0
53,16.31,16.69625,64.0,83.0
54,16.91,17.03875,61.0,93.0
55,16.31,17.10375,49.0,83.0
56,17.21,17.315,61.0,93.0
57,17.21,17.333750000000002,68.0,102.0
58,16.61,17.87,56.0,74.0
59,17.81,18.1225,61.0,95.0
60,17.81,18.150000000000002,64.0,103.0
61,18.11,18.2425,56.0,67.0
62,17.20625,18.4125,49.0,78.0
63,18.41,18.70125,61.0,80.0
64,18.71,19.30875,64.0,74.0
65,19.31,19.427500000000002,57.0,80.0
66,18.71,19.55875,45.0,71.0
67,19.61,20.01125,57.0,95.0
68,19.61,20.03875,64.0,80.0
69,20.21,20.335,57.0,65.0
70,20.21,20.548750000000002,61.0,80.0
71,19.618750000000002,20.825,45.0,78.0
72,20.51,20.896250000000002,57.0,87.0
73,19.01,21.01125,52.0,37.0
74,21.11,21.52375,56.0,83.0
75,21.11,21.585,61.0,93.0
76,21.41,21.8775,51.0,63.0
77,21.11,21.8825,44.0,87.0
78,21.71,21.905,56.0,83.0
79,22.01,22.75875,56.0,93.0
80,22.01,22.79125,61.0,85.0
81,22.91,23.240000000000002,56.0,105.0
82,22.61,23.3625,51.0,70.0
83,23.21,23.3825,61.0,87.0
84,22.01,23.405,44.0,93.0
85,23.51,23.8425,56.0,80.0
86,23.51,23.905,63.0,80.0
87,24.11,24.2425,56.0,93.0
88,23.81,25.7725,51.0,71.0
89,23.51,25.77625,44.0,93.0
90,24.41,25.7775,56.0,87.0
91,24.41,25.7875,63.0,85.0
92,25.91,26.26,61.0,74.0
93,25.91,26.3775,64.0,80.0
94,26.51,26.63875,56.0,93.0
95,26.810000000000002,26.9575,56.0,103.0
96,26.810000000000002,26.966250000000002,64.0,90.0
97,26.21,27.455000000000002,44.0,65.0
98,25.91,27.46375,37.0,87.0
99,27.71,27.8475,61.0,93.0
100,28.01,28.09375,61.0,29.0
101,28.01,28.1875,56.0,80.0
102,28.310000000000002,28.915,63.0,67.0
103,28.91,29.045,56.0,80.0
104,28.61,29.53875,51.0,68.0
105,29.21,29.77625,59.0,83.0
106,29.21,29.778750000000002,56.0,87.0
107,30.11,30.22375,56.0,87.0
108,30.11,30.40625,63.0,93.0
109,28.310000000000002,30.53375,44.0,80.0
110,29.810000000000002,30.5975,51.0,65.0
111,30.41,30.77,56.0,95.0
112,30.71,31.155,64.0,87.0
113,31.01,31.36625,56.0,93.0
114,31.310000000000002,31.427500000000002,61.0,68.0
115,31.61,31.7325,56.0,90.0
116,31.61,31.751250000000002,64.0,90.0
117,30.71,32.67125,49.0,74.0
118,32.51,32.78625,61.0,93.0
119,32.81,33.17875,56.0,93.0
120,33.11,33.7325,63.0,87.0
121,33.71,33.845,56.0,93.0
122,33.410000000000004,34.2575,51.0,68.0
123,34.01,34.6975,56.0,95.0
124,34.01,34.722500000000004,63.0,90.0
125,34.61,35.05375,51.0,63.0
126,34.910000000000004,35.136250000000004,56.0,87.0
127,34.910000000000004,35.26375,63.0,93.0
128,33.11,35.305,44.0,83.0
129,35.21,35.441250000000004,51.0,85.0
130,35.51,35.98125,64.0,95.0
131,35.81,36.1575,56.0,102.0
132,36.11,36.32,61.0,70.0
133,36.71,36.845,56.0,95.0
134,36.71,37.628750000000004,64.0,87.0
135,37.01,37.70125,56.0,74.0
136,37.61,37.730000000000004,61.0,74.0
137,35.51,37.75875,49.0,74.0
138,37.910000000000004,38.5925,63.0,72.0
139,38.51,38.6475,56.0,83.0
140,38.81,39.16625,56.0,90.0
141,38.81,39.17,63.0,93.0
142,38.21,39.53875,51.0,67.0
143,39.410000000000004,39.71625,56.0,80.0
144,39.410000000000004,39.725,59.0,95.0
145,37.910000000000004,39.847500000000004,44.0,74.0
146,39.71,39.905,51.0,69.0
147,40.31,40.7025,54.0,66.0
148,40.31,41.0,61.0,74.0
149,40.910000000000004,41.0575,54.0,80.0
150,40.61,41.46,49.0,64.0
151,41.21,41.9075,54.0,93.0
152,41.21,42.17375,61.0,83.0
153,40.31,42.37625,42.0,93.0
154,42.11,42.42125,54.0,103.0
155,41.81,42.5075,49.0,68.0
156,42.410000000000004,42.6225,61.0,87.0
157,42.71,43.3175,63.0,80.0
158,43.31,43.487500000000004,56.0,90.0
159,43.01,44.0525,51.0,68.0
160,43.61,44.51375,63.0,93.0
161,44.51,44.79125,56.0,105.0
162,44.21,44.83625,51.0,69.0
163,42.71,44.83875,44.0,87.0
164,45.11,45.25125,56.0,103.0
165,45.11,45.4575,64.0,80.0
166,45.410000000000004,45.59625,56.0,93.0
167,45.71,45.88375,64.0,112.0
168,46.01,46.23625,56.0,102.0
169,46.61,46.7625,56.0,93.0
170,45.11,47.17875,49.0,87.0
171,46.910000000000004,47.191250000000004,64.0,95.0
172,46.910000000000004,47.25875,61.0,93.0
173,47.21,47.36875,56.0,93.0
174,47.51,47.855000000000004,59.0,71.0
175,47.51,47.8725,63.0,93.0
176,47.81,48.1875,54.0,87.0
177,48.11,48.20375,59.0,68.0
178,48.410000000000004,48.5625,54.0,93.0
179,48.410000000000004,48.847500000000004,63.0,95.0
180,49.01,49.136250000000004,59.0,87.0
181,49.31,49.425000000000004,54.0,93.0
182,47.51,49.441250000000004,47.0,83.0
183,49.31,49.53625,59.0,103.0
184,49.31,49.63125,63.0,102.0
185,49.61,49.7775,54.0,87.0
186,49.910000000000004,50.26375,61.0,102.0
187,50.51,50.660000000000004,57.0,74.0
188,50.51,50.878750000000004,61.0,80.0
189,50.81,51.07625,57.0,72.0
190,51.410000000000004,51.5625,57.0,87.0
191,51.71,51.847500000000004,57.0,69.0
192,49.910000000000004,52.05375,45.0,65.0
193,51.71,52.0875,61.0,87.0
194,52.01,52.12375,57.0,61.0
195,50.21,52.1475,52.0,45.0
196,52.31,52.72375,56.0,63.0
197,52.31,52.90625,63.0,74.0
198,52.910000000000004,53.042500000000004,56.0,102.0
199,52.61,53.37375,51.0,71.0
200,53.21,53.66125,56.0,87.0
201,53.21,53.6725,63.0,93.0
202,53.51,53.9475,51.0,80.0
203,53.81,54.22,56.0,95.0
204,53.81,54.34375,63.0,102.0
205,54.11,54.480000000000004,51.0,87.0
206,52.31,54.505,44.0,80.0
207,54.410000000000004,54.575,56.0,102.0
208,54.71,54.8875,56.0,80.0
209,54.71,55.1175,64.0,83.0
210,55.01,55.1625,56.0,85.0
211,55.31,55.43,56.0,93.0
212,55.31,55.5225,64.0,87.0
213,55.61,55.94,56.0,93.0
214,55.61,56.05375,64.0,93.0
215,56.21,56.375,56.0,93.0
216,56.51,56.6725,56.0,87.0
217,54.71,56.785000000000004,49.0,83.0
218,56.51,56.8575,61.0,87.0
219,56.81,56.9525,56.0,93.0
220,57.11,57.46,63.0,93.0
221,57.11,57.49375,59.0,93.0
222,57.410000000000004,57.59,54.0,87.0
223,57.71,57.77375,59.0,44.0
224,57.71,57.8125,63.0,74.0
225,58.01,58.415,63.0,102.0
226,58.01,58.45875,59.0,102.0
227,58.61,58.78375,54.0,83.0
228,58.910000000000004,59.0325,54.0,93.0
229,57.11,59.1725,47.0,71.0
230,58.910000000000004,59.20375,59.0,87.0
231,59.21,59.42875,54.0,80.0
232,59.51,59.82125,57.0,80.0
233,59.51,59.932500000000005,61.0,93.0
234,60.11,60.230000000000004,57.0,93.0
235,60.410000000000004,60.65,64.0,80.0
236,60.410000000000004,60.70125,57.0,87.0
237,59.81,61.1,52.0,69.0
238,61.01,61.393750000000004,57.0,87.0
239,59.51,61.39625,45.0,71.0
240,61.01,61.48875,61.0,93.0
241,61.31,61.70875,52.0,80.0
242,61.61,61.7275,57.0,87.0
243,61.910000000000004,62.300000000000004,56.0,69.0
244,61.910000000000004,62.448750000000004,63.0,70.0
245,62.51,62.6325,56.0,102.0
246,62.21,62.92625,51.0,72.0
247,62.81,63.16625,56.0,93.0
248,62.81,63.475,63.0,85.0
249,63.410000000000004,63.55125,56.0,87.0
250,63.71,63.8725,56.0,102.0
251,64.01,64.22,56.0,93.0
252,63.71,64.2225,63.0,95.0
253,63.11,64.23875,51.0,63.0
254,61.910000000000004,64.2475,44.0,80.0
255,64.31,65.2625,61.0,74.0
256,64.31,65.5375,64.0,68.0
257,65.81,65.98125,61.0,43.0
258,64.31,66.27625,49.0,74.0
259,66.11,66.29875,64.0,87.0
260,65.21000000000001,66.31625,56.0,54.0
261,66.11,66.34625,61.0,87.0
262,67.61,67.975,61.0,69.0
263,67.61,67.99,64.0,69.0
264,67.01,68.58500000000001,56.0,59.0
265,66.71000000000001,68.5925,49.0,80.0
266,69.11,69.4425,61.0,66.0
267,69.11,69.52625,64.0,74.0
268,69.71000000000001,69.8575,61.0,49.0
269,70.01,70.50125,61.0,80.0
270,70.01,70.5175,64.0,87.0
271,69.11,71.31875000000001,49.0,80.0
272,69.41,71.34375,56.0,53.0
273,71.51,72.22,61.0,66.0
274,71.51,72.25625000000001,64.0,72.0
275,72.410850125,72.61991813333333,61.0,74.0
276,72.410850125,72.62495591666666,64.0,69.0
277,72.410850125,72.62873425416667,68.0,87.0
278,72.11,73.10732367083334,56.0,66.0
279,73.015384125,73.11488034583333,64.0,72.0
280,73.015384125,73.1249559125,61.0,66.0
281,71.51,73.22067379583333,49.0,74.0
282,73.317651125,73.6161397875,56.0,72.0
283,73.468784625,74.04561081666667,61.0,53.0
284,73.922185125,74.04561081666667,61.0,74.0
285,73.922185125,74.39321786666666,64.0,80.0
286,74.526719125,74.65644204583333,56.0,93.0
287,74.828986125,74.97760073333333,56.0,103.0
288,74.828986125,74.98641685416666,64.0,90.0
289,74.224452125,75.478860175,44.0,65.0
290,73.922185125,75.48767629583334,37.0,87.0
291,75.735787125,75.87432616666666,61.0,93.0
292,76.038054125,76.12243699583334,61.0,29.0
293,76.038054125,76.21689543333333,56.0,80.0
294,76.340321125,76.94989290833334,63.0,67.0
295,76.944855125,77.080875275,56.0,80.0
296,76.642588125,77.57835637916666,51.0,68.0
297,77.247122125,77.8176510875,59.0,83.0
298,77.247122125,77.82016997916666,56.0,87.0
299,78.153923125,78.26853269583333,56.0,87.0
300,78.153923125,78.4524117875,63.0,93.0
301,76.340321125,78.5808752625,44.0,80.0
302,77.851656125,78.645107,51.0,65.0
303,78.456190125,78.818910525,56.0,95.0
304,78.758457125,79.20681984166667,64.0,87.0
305,79.06072412500001,79.4196661875,56.0,93.0
306,79.362991125,79.48137903333333,61.0,68.0
307,79.665258125,79.78868381666666,56.0,90.0
308,79.665258125,79.80757550416666,64.0,90.0
309,78.758457125,80.7345276375,49.0,74.0
310,80.572059125,80.85039665416667,61.0,93.0
311,80.874326125,81.24586264583334,56.0,93.0
312,81.176593125,81.80379715,63.0,87.0
313,81.781127125,81.917147275,56.0,93.0
314,81.478860125,82.3327644,51.0,68.0
315,82.083394125,82.77608933333333,56.0,95.0
316,82.083394125,82.80127825,63.0,90.0
317,82.687928125,83.13503139583334,51.0,63.0
318,82.990195125,83.21815482083333,56.0,87.0
319,82.990195125,83.34661829583334,63.0,93.0
320,81.176593125,83.38818000833334,44.0,83.0
321,83.292462125,83.52545960416667,51.0,85.0
322,83.594729125,84.06883273749999,64.0,95.0
323,83.896996125,84.24552394999999,56.0,102.0
324,84.19790504166666,84.40843074166666,61.0,70.0
325,84.79940704166665,84.93474499166666,56.0,95.0
326,84.79940704166665,85.72045697916666,64.0,87.0
327,85.10015804166666,85.79313847083333,56.0,74.0
328,85.70166004166666,85.82196044166666,61.0,74.0
329,83.594729125,85.8507824125,49.0,74.0
330,86.00241104166666,86.68524273333333,63.0,72.0
331,86.60274273333333,86.74024273333333,56.0,83.0
332,86.90274273333333,87.25899273333333,56.0,90.0
333,86.90274273333333,87.26274273333333,63.0,93.0
334,86.30274273333333,87.63149273333333,51.0,67.0
335,87.50274273333333,87.80899273333333,56.0,80.0
336,87.50274273333333,87.81774273333333,59.0,95.0
337,86.00241104166666,87.94024273333333,44.0,74.0
338,87.80274273333333,87.99774273333333,51.0,69.0
339,88.40274273333333,88.79524273333332,54.0,66.0
340,88.40274273333333,89.09274273333332,61.0,74.0
341,89.00274273333333,89.15024273333333,54.0,80.0
342,88.70274273333332,89.55274273333333,49.0,64.0
343,89.30274273333333,90.00024273333332,54.0,93.0
344,89.30274273333333,90.26649273333332,61.0,83.0
345,88.40274273333333,90.46899273333332,42.0,93.0
346,90.20274273333332,90.51399273333332,54.0,103.0
347,89.90274273333333,90.60024273333333,49.0,68.0
348,90.50274273333332,90.71524273333333,61.0,87.0
349,90.80274273333333,91.41024273333333,63.0,80.0
350,91.40274273333333,91.58024273333334,56.0,90.0
351,91.10274273333333,92.14524273333333,51.0,68.0
352,91.70274273333332,92.60649273333333,63.0,93.0
353,92.60274273333333,92.88399273333333,56.0,105.0
354,92.30274273333333,92.92899273333333,51.0,69.0
355,90.80274273333333,92.93149273333333,44.0,87.0
356,93.20274273333332,93.34399273333332,56.0,103.0
357,93.20274273333332,93.55024273333333,64.0,80.0
358,93.50274273333332,93.68899273333332,56.0,93.0
359,93.80274273333333,93.97649273333333,64.0,112.0
360,94.10274273333333,94.32899273333332,56.0,102.0
361,94.70274273333332,94.85524273333333,56.0,93.0
362,93.20274273333332,95.27149273333333,49.0,87.0
363,95.00274273333332,95.28399273333332,64.0,95.0
364,95.00274273333332,95.35149273333333,61.0,93.0
365,95.30274273333333,95.46149273333333,56.0,93.0
366,95.60274273333333,95.94774273333333,59.0,71.0
367,95.60274273333333,95.96524273333333,63.0,93.0
368,95.90274273333333,96.28024273333332,54.0,87.0
369,96.20274273333332,96.29649273333332,59.0,68.0
370,96.50274273333332,96.65524273333332,54.0,93.0
371,96.50274273333332,96.94024273333332,63.0,95.0
372,97.10274273333333,97.22899273333333,59.0,87.0
373,97.40274273333333,97.51774273333334,54.0,93.0
374,95.60274273333333,97.53399273333332,47.0,83.0
375,97.40274273333333,97.62899273333333,59.0,103.0
376,97.40274273333333,97.72399273333333,63.0,102.0
377,97.70274273333332,97.87024273333333,54.0,87.0
378,98.00274273333332,98.35649273333333,61.0,102.0
379,98.60274273333333,98.75274273333332,57.0,74.0
380,98.60274273333333,98.97149273333332,61.0,80.0
381,98.90274273333333,99.16899273333333,57.0,72.0
382,99.50274273333332,99.65524273333332,57.0,87.0
383,99.80274273333333,99.94024273333332,57.0,69.0
384,98.00274273333332,100.14649273333333,45.0,65.0
385,99.80274273333333,100.18024273333333,61.0,87.0
386,100.10274273333333,100.21649273333333,57.0,61.0
387,98.30274273333333,100.24024273333333,52.0,45.0
388,100.40274273333333,100.81649273333333,56.0,63.0
389,100.40274273333333,100.99899273333332,63.0,74.0
390,101.00274273333332,101.13524273333333,56.0,102.0
391,100.70274273333332,101.46649273333333,51.0,71.0
392,101.30274273333333,101.75399273333333,56.0,87.0
393,101.30274273333333,101.76524273333332,63.0,93.0
394,101.60274273333333,102.04024273333333,51.0,80.0
395,101.90274273333333,102.31274273333332,56.0,95.0
396,101.90274273333333,102.43649273333332,63.0,102.0
397,102.20274273333332,102.57274273333333,51.0,87.0
398,100.40274273333333,102.59774273333332,44.0,80.0
399,102.50274273333332,102.66774273333333,56.0,102.0
400,102.80274273333333,102.98024273333333,56.0,80.0
401,102.80274273333333,103.21024273333333,64.0,83.0
402,103.10274273333333,103.25524273333333,56.0,85.0
403,103.40274273333333,103.52274273333333,56.0,93.0
404,103.40274273333333,103.61524273333333,64.0,87.0
405,103.70274273333332,104.03274273333332,56.0,93.0
406,103.70274273333332,104.14649273333333,64.0,93.0
407,104.30274273333333,104.46774273333332,56.0,93.0
408,104.60274273333333,104.76524273333332,56.0,87.0
409,102.80274273333333,104.87774273333332,49.0,83.0
410,104.60274273333333,104.95024273333333,61.0,87.0
411,104.90274273333333,105.04524273333332,56.0,93.0
412,105.20274273333332,105.55274273333333,63.0,93.0
413,105.20274273333332,105.58649273333333,59.0,93.0
414,105.50274273333332,105.68274273333333,54.0,87.0
415,105.80274273333333,105.86649273333333,59.0,44.0
416,105.80274273333333,105.90524273333332,63.0,74.0
417,106.10274273333333,106.50774273333333,63.0,102.0
418,106.10274273333333,106.55149273333333,59.0,102.0
419,106.70274273333332,106.87649273333332,54.0,83.0
420,107.00274273333332,107.12524273333332,54.0,93.0
421,105.20274273333332,107.26524273333332,47.0,71.0
422,107.00274273333332,107.29649273333332,59.0,87.0
423,107.30274273333333,107.52149273333333,54.0,80.0
424,107.60274273333333,107.91399273333333,57.0,80.0
425,107.60274273333333,108.02524273333333,61.0,93.0
426,108.20274273333332,108.32274273333333,57.0,93.0
427,108.50274273333332,108.74274273333333,64.0,80.0
428,108.50274273333332,108.79399273333333,57.0,87.0
429,107.90274273333333,109.19274273333333,52.0,69.0
430,109.10274273333333,109.48649273333334,57.0,87.0
431,107.60274273333333,109.48899273333333,45.0,71.0
432,109.10274273333333,109.58149273333333,61.0,93.0
433,109.40274273333333,109.80149273333333,52.0,80.0
434,109.70274273333332,109.82024273333333,57.0,87.0
435,110.00274273333332,110.39274273333334,56.0,69.0
436,110.00274273333332,110.54149273333333,63.0,70.0
437,110.60274273333333,110.72524273333333,56.0,102.0
438,110.30274273333333,111.01899273333333,51.0,72.0
439,110.90274273333333,111.25899273333333,56.0,93.0
440,110.90274273333333,111.56774273333333,63.0,85.0
441,111.50274273333332,111.64399273333333,56.0,87.0
442,111.80274273333333,111.96524273333333,56.0,102.0
443,112.10274273333333,112.31274273333332,56.0,93.0
444,111.80274273333333,112.31524273333332,63.0,95.0
445,111.20274273333332,112.33149273333333,51.0,63.0
446,110.00274273333332,112.34024273333333,44.0,80.0
447,113.00274273333332,113.13774273333333,61.0,80.0
448,113.30274273333333,113.41649273333333,64.0,102.0
449,113.30274273333333,113.43399273333333,61.0,102.0
450,113.90274273333333,114.00524273333333,61.0,87.0
451,113.90274273333333,114.00649273333333,68.0,103.0
452,112.70274273333332,114.21149273333333,56.0,70.0
453,112.40274273333333,114.27149273333333,49.0,93.0
454,114.50274273333332,114.85649273333333,61.0,74.0
455,114.50274273333332,114.90399273333333,64.0,80.0
456,115.40274273333333,115.50524273333333,57.0,71.0
457,115.70274273333332,115.83524273333333,57.0,90.0
458,115.70274273333332,115.83774273333333,64.0,90.0
459,116.30274273333333,116.42774273333333,57.0,83.0
460,116.30274273333333,116.44649273333333,61.0,83.0
461,116.30274273333333,116.46149273333333,64.0,80.0
462,115.10274273333333,116.48274273333332,52.0,53.0
463,114.80274273333333,116.72024273333332,45.0,80.0
464,117.20274273333332,117.54774273333334,61.0,74.0
465,117.20274273333332,117.58899273333333,64.0,83.0
466,117.80274273333333,117.93149273333333,61.0,93.0
467,118.10274273333333,118.20774273333333,61.0,93.0
468,118.10274273333333,118.22649273333333,68.0,102.0
469,117.50274273333332,118.76274273333333,56.0,74.0
470,118.70274273333334,119.01524273333334,61.0,95.0
471,118.70274273333334,119.04274273333333,64.0,103.0
472,117.20274273333332,119.05899273333333,49.0,83.0
473,119.00274273333332,119.13524273333333,56.0,67.0
474,119.30274273333333,119.59399273333332,61.0,80.0
475,119.60274273333333,120.20149273333334,64.0,74.0
476,120.20274273333334,120.32024273333333,57.0,80.0
477,120.50274273333332,120.90399273333333,57.0,95.0
478,120.50274273333332,120.93149273333333,64.0,80.0
479,121.10274273333333,121.22774273333333,57.0,65.0
480,121.10274273333333,121.44149273333332,61.0,80.0
481,121.40274273333333,121.78899273333333,57.0,87.0
482,119.90274273333333,121.90399273333333,52.0,37.0
483,119.60274273333333,121.93024273333333,45.0,71.0
484,122.00274273333332,122.41649273333333,56.0,83.0
485,122.00274273333332,122.47774273333333,61.0,93.0
486,122.30274273333333,122.77024273333333,51.0,63.0
487,122.00274273333332,122.77524273333333,44.0,87.0
488,122.60274273333333,122.79774273333334,56.0,83.0
489,122.90274273333333,123.65149273333333,56.0,93.0
490,122.90274273333333,123.68399273333333,61.0,85.0
491,123.80274273333333,124.13274273333333,56.0,105.0
492,123.50274273333332,124.25524273333332,51.0,70.0
493,124.10274273333333,124.27524273333333,61.0,87.0
494,122.90274273333333,124.29774273333334,44.0,93.0
495,124.40274273333333,124.73524273333334,56.0,80.0
496,124.40274273333333,124.79774273333334,63.0,80.0
497,125.00274273333332,125.13524273333333,56.0,93.0
498,124.70274273333334,126.66524273333333,51.0,71.0
499,124.40274273333333,126.66899273333333,44.0,93.0
500,125.30274273333333,126.67024273333334,56.0,87.0
501,125.30274273333333,126.68024273333333,63.0,85.0
502,126.80274273333333,127.15274273333333,61.0,74.0
503,126.80274273333333,127.27024273333333,64.0,80.0
504,127.40274273333333,127.53149273333332,56.0,93.0
505,127.70274273333334,127.85024273333333,56.0,103.0
506,127.70274273333334,127.85899273333334,64.0,90.0
507,127.10274273333333,128.34774273333332,44.0,65.0
508,126.80274273333333,128.3564927333333,37.0,87.0
509,128.60274273333334,128.74024273333333,61.0,93.0
510,128.90274273333333,128.98649273333334,61.0,29.0
511,128.90274273333333,129.08024273333334,56.0,80.0
512,129.20274273333334,129.80774273333333,63.0,67.0
513,129.80274273333333,129.93774273333332,56.0,80.0
514,129.50274273333332,130.43149273333333,51.0,68.0
515,130.10274273333334,130.6689927333333,59.0,83.0
516,130.10274273333334,130.67149273333334,56.0,87.0
517,131.00274273333332,131.11649273333333,56.0,87.0
518,131.00274273333332,131.29899273333334,63.0,93.0
519,129.20274273333334,131.42649273333333,44.0,80.0
520,130.70274273333334,131.49024273333333,51.0,65.0
521,131.30274273333333,131.66274273333335,56.0,95.0
522,131.60274273333334,132.04774273333334,64.0,87.0
523,131.90274273333333,132.25899273333334,56.0,93.0
524,132.20274273333334,132.32024273333332,61.0,68.0
525,132.50274273333332,132.62524273333332,56.0,90.0
526,132.50274273333332,132.64399273333333,64.0,90.0
527,131.60274273333334,133.56399273333332,49.0,74.0
528,133.40274273333333,133.67899273333333,61.0,93.0
529,133.70274273333334,134.07149273333334,56.0,93.0
530,134.00274273333332,134.62524273333332,63.0,87.0
531,134.60274273333334,134.73774273333333,56.0,93.0
532,134.30274273333333,135.15024273333333,51.0,68.0
533,134.90274273333333,135.59024273333333,56.0,95.0
534,134.90274273333333,135.61524273333333,63.0,90.0
535,135.50274273333332,135.94649273333334,51.0,63.0
536,135.80274273333333,136.02899273333333,56.0,87.0
537,135.80274273333333,136.15649273333332,63.0,93.0
538,134.00274273333332,136.1977427333333,44.0,83.0
539,136.10274273333334,136.33399273333333,51.0,85.0
540,136.40274273333333,136.87399273333332,64.0,95.0
541,136.70274273333334,137.05024273333333,56.0,102.0
542,137.00274273333332,137.21274273333333,61.0,70.0
543,137.60274273333334,137.73774273333333,56.0,95.0
544,137.60274273333334,138.52149273333333,64.0,87.0
545,137.90274273333333,138.59399273333332,56.0,74.0
546,138.50274273333332,138.62274273333333,61.0,74.0
547,136.40274273333333,138.65149273333333,49.0,74.0
548,138.80274273333333,139.48524273333334,63.0,72.0
549,139.40274273333333,139.54024273333334,56.0,83.0
550,139.70274273333334,140.05899273333333,56.0,90.0
551,139.70274273333334,140.06274273333332,63.0,93.0
552,139.10274273333334,140.43149273333333,51.0,67.0
553,140.30274273333333,140.60899273333334,56.0,80.0
554,140.30274273333333,140.61774273333333,59.0,95.0
555,138.80274273333333,140.74024273333333,44.0,74.0
556,140.60274273333334,140.79774273333334,51.0,69.0
557,141.20274273333334,141.59524273333332,54.0,66.0
558,141.20274273333334,141.89274273333334,61.0,74.0
559,141.80274273333333,141.9502427333333,54.0,80.0
560,141.50274273333332,142.35274273333334,49.0,64.0
561,142.10274273333334,142.80024273333333,54.0,93.0
562,142.10274273333334,143.06649273333332,61.0,83.0
563,141.20274273333334,143.26899273333333,42.0,93.0
564,143.00274273333332,143.31399273333332,54.0,103.0
565,142.70274273333334,143.40024273333333,49.0,68.0
566,143.30274273333333,143.51524273333334,61.0,87.0
567,143.60274273333334,144.21024273333333,63.0,80.0
568,144.20274273333334,144.38024273333332,56.0,90.0
569,143.90274273333333,144.94524273333332,51.0,68.0
570,144.50274273333332,145.40649273333332,63.0,93.0
571,145.40274273333333,145.68399273333333,56.0,105.0
572,145.10274273333334,145.7289927333333,51.0,69.0
573,143.60274273333334,145.7314927333333,44.0,87.0
574,146.00274273333332,146.14399273333333,56.0,103.0
575,146.00274273333332,146.35024273333335,64.0,80.0
576,146.30274273333333,146.48899273333333,56.0,93.0
577,146.60274273333334,146.77649273333333,64.0,112.0
578,146.90274273333333,147.12899273333332,56.0,102.0
579,147.50274273333332,147.65524273333332,56.0,93.0
580,146.00274273333332,148.07149273333334,49.0,87.0
581,147.80274273333333,148.08399273333333,64.0,95.0
582,147.80274273333333,148.15149273333333,61.0,93.0
583,148.10274273333334,148.26149273333334,56.0,93.0
584,148.40274273333333,148.74774273333333,59.0,71.0
585,148.40274273333333,148.76524273333334,63.0,93.0
586,148.70274273333334,149.08024273333334,54.0,87.0
587,149.00274273333332,149.09649273333332,59.0,68.0
588,149.30274273333333,149.45524273333334,54.0,93.0
589,149.30274273333333,149.74024273333333,63.0,95.0
590,149.90274273333333,150.02899273333333,59.0,87.0
591,150.2027427333333,150.31774273333332,54.0,93.0
592,148.40274273333333,150.33399273333333,47.0,83.0
593,150.2027427333333,150.42899273333333,59.0,103.0
594,150.2027427333333,150.52399273333333,63.0,102.0
595,150.50274273333332,150.67024273333334,54.0,87.0
596,150.80274273333333,151.15649273333332,61.0,102.0
597,151.40274273333333,151.55274273333333,57.0,74.0
598,151.40274273333333,151.77149273333333,61.0,80.0
599,151.7027427333333,151.96899273333332,57.0,72.0
600,152.30274273333333,152.45524273333334,57.0,87.0
601,152.60274273333334,152.74024273333333,57.0,69.0
602,150.80274273333333,152.94649273333334,45.0,65.0
603,152.60274273333334,152.98024273333334,61.0,87.0
604,152.90274273333333,153.01649273333334,57.0,61.0
605,151.10274273333334,153.04024273333334,52.0,45.0
606,153.2027427333333,153.61649273333333,56.0,63.0
607,153.2027427333333,153.79899273333334,63.0,74.0
608,153.80274273333333,153.93524273333333,56.0,102.0
609,153.50274273333332,154.26649273333334,51.0,71.0
610,154.10274273333334,154.55399273333333,56.0,87.0
611,154.10274273333334,154.56524273333332,63.0,93.0
612,154.40274273333333,154.84024273333333,51.0,80.0
613,154.7027427333333,155.11274273333333,56.0,95.0
614,154.7027427333333,155.23649273333334,63.0,102.0
615,155.00274273333332,155.37274273333333,51.0,87.0
616,153.2027427333333,155.39774273333333,44.0,80.0
617,155.30274273333333,155.46774273333332,56.0,102.0
618,155.60274273333334,155.78024273333332,56.0,80.0
619,155.60274273333334,156.0102427333333,64.0,83.0
620,155.90274273333333,156.05524273333333,56.0,85.0
621,156.2027427333333,156.3227427333333,56.0,93.0
622,156.2027427333333,156.41524273333334,64.0,87.0
623,156.50274273333332,156.83274273333333,56.0,93.0
624,156.50274273333332,156.94649273333334,64.0,93.0
625,157.10274273333334,157.26774273333334,56.0,93.0
626,157.40274273333333,157.56524273333332,56.0,87.0
627,155.60274273333334,157.67774273333333,49.0,83.0
628,157.40274273333333,157.75024273333332,61.0,87.0
629,157.7027427333333,157.84524273333335,56.0,93.0
630,158.00274273333332,158.35274273333334,63.0,93.0
631,158.00274273333332,158.38649273333334,59.0,93.0
632,158.30274273333333,158.48274273333334,54.0,87.0
633,158.60274273333334,158.6664927333333,59.0,44.0
634,158.60274273333334,158.70524273333334,63.0,74.0
635,158.90274273333333,159.30774273333333,63.0,102.0
636,158.90274273333333,159.35149273333332,59.0,102.0
637,159.50274273333332,159.67649273333333,54.0,83.0
638,159.80274273333333,159.92524273333333,54.0,93.0
639,158.00274273333332,160.06524273333332,47.0,71.0
640,159.80274273333333,160.09649273333332,59.0,87.0
641,160.10274273333334,160.32149273333334,54.0,80.0
642,160.40274273333333,160.71399273333333,57.0,80.0
643,160.40274273333333,160.8252427333333,61.0,93.0
644,161.00274273333332,161.12274273333333,57.0,93.0
645,161.30274273333333,161.54274273333334,64.0,80.0
646,161.30274273333333,161.59399273333332,57.0,87.0
647,160.7027427333333,161.99274273333333,52.0,69.0
648,161.90274273333333,162.28649273333332,57.0,87.0
649,160.40274273333333,162.28899273333332,45.0,71.0
650,161.90274273333333,162.38149273333335,61.0,93.0
651,162.2027427333333,162.60149273333332,52.0,80.0
652,162.50274273333332,162.62024273333333,57.0,87.0
653,162.80274273333333,163.19274273333332,56.0,69.0
654,162.80274273333333,163.34149273333333,63.0,70.0
655,163.40274273333333,163.52524273333333,56.0,102.0
656,163.10274273333334,163.81899273333335,51.0,72.0
657,163.7027427333333,164.05899273333333,56.0,93.0
658,163.7027427333333,164.36774273333333,63.0,85.0
659,164.30274273333333,164.44399273333335,56.0,87.0
660,164.60274273333334,164.7652427333333,56.0,102.0
661,164.90274273333333,165.11274273333333,56.0,93.0
662,164.60274273333334,165.11524273333333,63.0,95.0
663,164.00274273333332,165.13149273333335,51.0,63.0
664,162.80274273333333,165.1402427333333,44.0,80.0
665,165.2027427333333,166.15524273333332,61.0,74.0
666,165.2027427333333,166.43024273333333,64.0,68.0
667,166.7027427333333,166.87399273333332,61.0,43.0
668,165.2027427333333,167.1689927333333,49.0,74.0
669,167.00274273333332,167.19149273333335,64.0,87.0
670,166.10274273333334,167.20899273333333,56.0,54.0
671,167.00274273333332,167.23899273333333,61.0,87.0
672,168.50274273333332,168.86774273333333,61.0,69.0
673,168.50274273333332,168.88274273333332,64.0,69.0
674,167.90274273333333,169.47774273333334,56.0,59.0
675,167.60274273333334,169.48524273333334,49.0,80.0
676,170.00274273333332,170.33524273333333,61.0,66.0
677,170.00274273333332,170.4189927333333,64.0,74.0
678,170.60274273333334,170.75024273333332,61.0,49.0
679,170.90274273333333,171.39399273333333,61.0,80.0
680,170.90274273333333,171.41024273333335,64.0,87.0
681,170.00274273333332,172.21149273333333,49.0,80.0
682,170.30274273333333,172.23649273333334,56.0,53.0
683,172.40274273333333,173.11274273333333,61.0,66.0
684,172.40274273333333,173.14899273333333,64.0,72.0
685,173.30274273333333,173.5102427333333,61.0,74.0
686,173.30274273333333,173.5152427333333,64.0,69.0
687,173.30274273333333,173.51899273333333,68.0,87.0
688,173.00274273333332,173.99399273333333,56.0,66.0
689,173.90274273333333,174.00149273333335,64.0,72.0
690,173.90274273333333,174.01149273333334,61.0,66.0
691,172.40274273333333,174.1064927333333,49.0,74.0
692,174.2027427333333,174.49899273333332,56.0,72.0
693,174.35274273333334,174.92524273333333,61.0,53.0
694,174.80274273333333,174.92524273333333,61.0,74.0
695,174.80274273333333,175.27024273333333,64.0,80.0
696,175.40274273333333,175.53149273333332,56.0,93.0
697,175.7027427333333,175.85024273333335,56.0,103.0
698,175.7027427333333,175.8589927333333,64.0,90.0
699,175.10274273333334,176.34774273333335,44.0,65.0
700,174.80274273333333,176.3564927333333,37.0,87.0
701,176.60274273333334,176.74024273333333,61.0,93.0
702,176.90274273333333,176.98649273333334,61.0,29.0
703,176.90274273333333,177.08024273333334,56.0,80.0
704,177.2027427333333,177.80774273333333,63.0,67.0
705,177.80274273333333,177.93774273333332,56.0,80.0
706,177.50274273333332,178.43149273333333,51.0,68.0
707,178.10274273333334,178.6689927333333,59.0,83.0
708,178.10274273333334,178.6714927333333,56.0,87.0
709,179.00274273333332,179.11649273333333,56.0,87.0
710,179.00274273333332,179.29899273333334,63.0,93.0
711,177.2027427333333,179.42649273333333,44.0,80.0
712,178.7027427333333,179.49024273333333,51.0,65.0
713,179.30274273333333,179.66274273333335,56.0,95.0
714,179.60274273333334,180.04774273333334,64.0,87.0
715,179.90274273333333,180.25899273333334,56.0,93.0
716,180.2027427333333,180.32024273333332,61.0,68.0
717,180.50274273333332,180.62524273333332,56.0,90.0
718,180.50274273333332,180.64399273333333,64.0,90.0
719,179.60274273333334,181.56399273333335,49.0,74.0
720,181.40274273333333,181.67899273333333,61.0,93.0
721,181.7027427333333,182.07149273333334,56.0,93.0
722,182.00274273333332,182.62524273333332,63.0,87.0
723,182.60274273333334,182.73774273333333,56.0,93.0
724,182.30274273333333,183.15024273333333,51.0,68.0
725,182.90274273333333,183.59024273333333,56.0,95.0
726,182.90274273333333,183.61524273333333,63.0,90.0
727,183.50274273333332,183.94649273333334,51.0,63.0
728,183.80274273333333,184.02899273333333,56.0,87.0
729,183.80274273333333,184.15649273333332,63.0,93.0
730,182.00274273333332,184.1977427333333,44.0,83.0
731,184.10274273333334,184.33399273333333,51.0,85.0
732,184.40274273333333,184.87399273333332,64.0,95.0
733,184.7027427333333,185.05024273333333,56.0,102.0
734,185.00274273333332,185.21274273333333,61.0,70.0
735,185.60274273333334,185.73774273333333,56.0,95.0
736,185.60274273333334,186.52149273333333,64.0,87.0
737,185.90274273333333,186.59399273333332,56.0,74.0
738,186.50274273333332,186.62274273333333,61.0,74.0
739,184.40274273333333,186.65149273333333,49.0,74.0
740,186.80274273333333,187.48524273333334,63.0,72.0
741,187.40274273333333,187.54024273333334,56.0,83.0
742,187.7027427333333,188.05899273333333,56.0,90.0
743,187.7027427333333,188.06274273333332,63.0,93.0
744,187.10274273333334,188.43149273333333,51.0,67.0
745,188.30274273333333,188.6089927333333,56.0,80.0
746,188.30274273333333,188.61774273333333,59.0,95.0
747,186.80274273333333,188.74024273333333,44.0,74.0
748,188.60274273333334,188.79774273333334,51.0,69.0
749,189.2027427333333,189.59524273333335,54.0,66.0
750,189.2027427333333,189.89274273333334,61.0,74.0
751,189.80274273333333,189.9502427333333,54.0,80.0
752,189.50274273333332,190.35274273333334,49.0,64.0
753,190.10274273333334,190.80024273333333,54.0,93.0
754,190.10274273333334,191.06649273333335,61.0,83.0
755,189.2027427333333,191.26899273333333,42.0,93.0
756,191.00274273333332,191.31399273333335,54.0,103.0
757,190.7027427333333,191.40024273333333,49.0,68.0
758,191.30274273333333,191.5152427333333,61.0,87.0
759,191.60274273333334,192.21024273333333,63.0,80.0
760,192.2027427333333,192.38024273333332,56.0,90.0
761,191.90274273333333,192.94524273333332,51.0,68.0
762,192.50274273333332,193.40649273333332,63.0,93.0
763,193.40274273333333,193.68399273333333,56.0,105.0
764,193.10274273333334,193.7289927333333,51.0,69.0
765,191.60274273333334,193.7314927333333,44.0,87.0
766,194.00274273333332,194.14399273333333,56.0,103.0
767,194.00274273333332,194.35024273333335,64.0,80.0
768,194.30274273333333,194.48899273333333,56.0,93.0
769,194.60274273333334,194.77649273333333,64.0,112.0
770,194.90274273333333,195.12899273333335,56.0,102.0
771,195.50274273333332,195.65524273333332,56.0,93.0
772,194.00274273333332,196.07149273333334,49.0,87.0
773,195.80274273333333,196.08399273333333,64.0,95.0
774,195.80274273333333,196.15149273333333,61.0,93.0
775,196.10274273333334,196.26149273333334,56.0,93.0
776,196.40274273333333,196.74774273333333,59.0,71.0
777,196.40274273333333,196.7652427333333,63.0,93.0
778,196.7027427333333,197.08024273333334,54.0,87.0
779,197.00274273333332,197.09649273333332,59.0,68.0
780,197.30274273333333,197.45524273333334,54.0,93.0
781,197.30274273333333,197.74024273333333,63.0,95.0
782,197.90274273333333,198.02899273333333,59.0,87.0
783,198.2027427333333,198.31774273333332,54.0,93.0
784,196.40274273333333,198.33399273333333,47.0,83.0
785,198.2027427333333,198.42899273333333,59.0,103.0
786,198.2027427333333,198.52399273333333,63.0,102.0
787,198.50274273333332,198.67024273333334,54.0,87.0
788,198.80274273333333,199.15649273333332,61.0,102.0
789,199.40274273333333,199.55274273333333,57.0,74.0
790,199.40274273333333,199.77149273333333,61.0,80.0
791,199.7027427333333,199.96899273333332,57.0,72.0
792,200.30274273333333,200.45524273333334,57.0,87.0
793,200.60274273333334,200.74024273333333,57.0,69.0
794,198.80274273333333,200.94649273333334,45.0,65.0
795,200.60274273333334,200.98024273333334,61.0,87.0
796,200.90274273333333,201.01649273333334,57.0,61.0
797,199.10274273333334,201.04024273333334,52.0,45.0
798,201.2027427333333,201.61649273333333,56.0,63.0
799,201.2027427333333,201.79899273333334,63.0,74.0
800,201.80274273333333,201.93524273333333,56.0,102.0
801,201.50274273333332,202.26649273333334,51.0,71.0
802,202.10274273333334,202.55399273333333,56.0,87.0
803,202.10274273333334,202.56524273333332,63.0,93.0
804,202.40274273333333,202.84024273333333,51.0,80.0
805,202.7027427333333,203.11274273333333,56.0,95.0
806,202.7027427333333,203.23649273333334,63.0,102.0
807,203.00274273333332,203.37274273333333,51.0,87.0
808,201.2027427333333,203.39774273333333,44.0,80.0
809,203.30274273333333,203.46774273333332,56.0,102.0
810,203.60274273333334,203.78024273333332,56.0,80.0
811,203.60274273333334,204.0102427333333,64.0,83.0
812,203.90274273333333,204.05524273333333,56.0,85.0
813,204.2027427333333,204.3227427333333,56.0,93.0
814,204.2027427333333,204.41524273333334,64.0,87.0
815,204.50274273333332,204.83274273333333,56.0,93.0
816,204.50274273333332,204.94649273333334,64.0,93.0
817,205.10274273333334,205.26774273333334,56.0,93.0
818,205.40274273333333,205.56524273333332,56.0,87.0
819,203.60274273333334,205.67774273333333,49.0,83.0
820,205.40274273333333,205.75024273333332,61.0,87.0
821,205.7027427333333,205.84524273333335,56.0,93.0
822,206.00274273333332,206.35274273333334,63.0,93.0
823,206.00274273333332,206.38649273333334,59.0,93.0
824,206.30274273333333,206.48274273333334,54.0,87.0
825,206.60274273333334,206.6664927333333,59.0,44.0
826,206.60274273333334,206.70524273333334,63.0,74.0
827,206.90274273333333,207.30921882708333,63.0,102.0
828,206.90274273333333,207.35318867083333,59.0,102.0
829,207.50519870208333,207.67982179583333,54.0,83.0
830,207.80670620208335,207.92982176458335,54.0,93.0
831,206.00274273333332,208.07052526458335,47.0,71.0
832,207.80670620208335,208.10193229583334,59.0,87.0
833,208.10821370208333,208.32806292083333,54.0,80.0
834,208.40972120208335,208.72253523333333,57.0,80.0
835,208.40972120208335,208.83434426458334,61.0,93.0
836,209.01324370208334,209.13445570208333,57.0,93.0
837,209.31627370208335,209.55869770208335,64.0,80.0
838,209.31627370208335,209.61046532708335,57.0,87.0
839,208.71122870208333,210.01324270208335,52.0,69.0
840,209.92233370208334,210.30995957708333,57.0,87.0
841,208.40972120208335,210.31248482708335,45.0,71.0
842,209.92233370208334,210.40591907708335,61.0,93.0
843,210.22536370208334,210.62814107708334,52.0,80.0
844,210.52839370208335,210.64708045208334,57.0,87.0
845,210.83142370208333,211.22536270208334,56.0,69.0
846,210.83142370208333,211.37561507708335,63.0,70.0
847,211.43748370208334,211.56122095208335,56.0,102.0
848,211.13445370208333,211.85793782708333,51.0,72.0
849,211.74051370208335,212.10036182708333,56.0,93.0
850,211.74051370208335,212.41223020208335,63.0,85.0
851,212.34657370208333,212.48925032708334,56.0,87.0
852,212.64960370208334,212.81374495208334,56.0,102.0
853,212.95263370208335,213.16475470208334,56.0,93.0
854,212.64960370208334,213.16727995208333,63.0,95.0
855,212.04354370208335,213.18369407708335,51.0,63.0
856,210.83142370208333,213.19253245208336,44.0,80.0
857,213.25566370208335,213.48293620208335,56.0,87.0
858,213.25566370208335,213.63066332708334,61.0,87.0
859,213.55869370208333,213.71273395208334,56.0,87.0
860,213.86054957708336,213.94929957708337,56.0,87.0
861,213.25566370208335,213.98179957708336,37.0,93.0
862,213.86054957708336,214.08554957708336,61.0,102.0
863,213.86054957708336,214.20804957708336,64.0,93.0
864,214.16054957708334,214.22929957708337,61.0,28.0
865,214.16054957708334,214.28304957708335,56.0,102.0
866,214.46054957708336,214.57804957708336,59.0,72.0
867,214.46054957708336,214.58304957708336,63.0,83.0
868,214.46054957708336,214.61179957708336,47.0,80.0
869,214.76054957708337,215.58679957708335,59.0,93.0
870,214.76054957708337,215.59054957708335,63.0,105.0
871,214.76054957708337,215.61054957708336,47.0,93.0
872,215.66054957708334,215.80179957708336,56.0,103.0
873,215.66054957708334,216.00804957708334,64.0,80.0
874,215.96054957708336,216.14679957708336,56.0,93.0
875,216.26054957708337,216.43429957708335,64.0,112.0
876,216.56054957708335,216.78679957708334,56.0,102.0
877,217.16054957708334,217.31304957708335,56.0,93.0
878,215.66054957708334,217.72929957708337,49.0,87.0
879,217.46054957708336,217.74179957708336,64.0,95.0
880,217.46054957708336,217.80929957708335,61.0,93.0
881,217.76054957708337,217.91929957708336,56.0,93.0
882,218.06054957708335,218.40554957708335,59.0,71.0
883,218.06054957708335,218.42304957708336,63.0,93.0
884,218.36054957708336,218.73804957708336,54.0,87.0
885,218.66054957708334,218.75429957708334,59.0,68.0
886,218.96054957708336,219.11304957708336,54.0,93.0
887,218.96054957708336,219.39804957708336,63.0,95.0
888,219.56054957708335,219.68679957708335,59.0,87.0
889,219.86054957708336,219.97554957708334,54.0,93.0
890,218.06054957708335,219.99179957708336,47.0,83.0
891,219.86054957708336,220.08679957708335,59.0,103.0
892,219.86054957708336,220.18179957708335,63.0,102.0
893,220.16054957708334,220.32804957708336,54.0,87.0
894,220.46054957708336,220.81429957708335,61.0,102.0
895,221.06054957708335,221.21054957708336,57.0,74.0
896,221.06054957708335,221.42929957708336,61.0,80.0
897,221.36054957708336,221.62679957708335,57.0,72.0
898,221.96054957708336,222.11304957708336,57.0,87.0
899,222.26054957708334,222.39804957708336,57.0,69.0
900,220.46054957708336,222.60429957708334,45.0,65.0
901,222.26054957708334,222.63804957708336,61.0,87.0
902,222.56054957708335,222.67429957708336,57.0,61.0
903,220.76054957708337,222.69804957708334,52.0,45.0
904,222.86054957708336,223.27429957708335,56.0,63.0
905,222.86054957708336,223.45679957708336,63.0,74.0
906,223.46054957708336,223.59304957708335,56.0,102.0
907,223.16054957708334,223.92429957708336,51.0,71.0
908,223.76054957708334,224.21179957708335,56.0,87.0
909,223.76054957708334,224.22304957708334,63.0,93.0
910,224.06054957708335,224.49804957708335,51.0,80.0
911,224.36054957708336,224.77054957708336,56.0,95.0
912,224.36054957708336,224.89429957708336,63.0,102.0
913,224.66054957708334,225.03054957708335,51.0,87.0
914,222.86054957708336,225.05554957708335,44.0,80.0
915,224.96054957708336,225.12554957708335,56.0,102.0
916,225.26054957708334,225.43804957708335,56.0,80.0
917,225.26054957708334,225.66804957708337,64.0,83.0
918,225.56054957708335,225.71304957708335,56.0,85.0
919,225.86054957708336,225.98054957708337,56.0,93.0
920,225.86054957708336,226.07304957708334,64.0,87.0
921,226.16054957708334,226.49054957708336,56.0,93.0
922,226.16054957708334,226.60429957708334,64.0,93.0
923,226.76054957708334,226.92554957708336,56.0,93.0
924,227.06054957708335,227.22304957708334,56.0,87.0
925,225.26054957708334,227.33554957708336,49.0,83.0
926,227.06054957708335,227.40804957708335,61.0,87.0
927,227.36054957708336,227.50304957708335,56.0,93.0
928,227.66054957708334,228.01054957708334,63.0,93.0
929,227.66054957708334,228.04429957708336,59.0,93.0
930,227.96054957708336,228.14054957708336,54.0,87.0
931,228.26054957708334,228.32429957708337,59.0,44.0
932,228.26054957708334,228.36304957708336,63.0,74.0
933,228.56054957708335,228.96554957708335,63.0,102.0
934,228.56054957708335,229.00929957708337,59.0,102.0
935,229.16054957708334,229.33429957708336,54.0,83.0
936,229.46054957708336,229.58304957708336,54.0,93.0
937,227.66054957708334,229.72304957708334,47.0,71.0
938,229.46054957708336,229.75429957708334,59.0,87.0
939,229.76054957708334,229.97929957708334,54.0,80.0
940,230.06054957708335,230.37179957708335,57.0,80.0
941,230.06054957708335,230.48304957708336,61.0,93.0
942,230.66054957708334,230.78054957708335,57.0,93.0
943,230.96054957708336,231.20054957708336,64.0,80.0
944,230.96054957708336,231.25179957708335,57.0,87.0
945,230.36054957708336,231.65054957708335,52.0,69.0
946,231.56054957708335,231.94429957708334,57.0,87.0
947,230.06054957708335,231.94679957708337,45.0,71.0
948,231.56054957708335,232.03929957708334,61.0,93.0
949,231.86054957708336,232.25929957708337,52.0,80.0
950,232.16054957708334,232.27804957708335,57.0,87.0
951,232.46054957708336,232.85054957708334,56.0,69.0
952,232.46054957708336,232.99929957708335,63.0,70.0
953,233.06054957708335,233.18304957708335,56.0,102.0
954,232.76054957708334,233.47679957708334,51.0,72.0
955,233.36054957708336,233.71679957708335,56.0,93.0
956,233.36054957708336,234.02554957708335,63.0,85.0
957,233.96054957708336,234.10179957708334,56.0,87.0
958,234.26054957708334,234.42304957708336,56.0,102.0
959,234.56054957708335,234.77054957708336,56.0,93.0
960,234.26054957708334,234.77304957708336,63.0,95.0
961,233.66054957708334,234.78929957708334,51.0,63.0
962,232.46054957708336,234.79804957708336,44.0,80.0
963,235.46054957708336,235.59554957708335,61.0,80.0
964,235.76054957708334,235.87429957708335,64.0,102.0
965,235.76054957708334,235.89179957708336,61.0,102.0
966,236.36054957708336,236.46304957708335,61.0,87.0
967,236.36054957708336,236.46429957708335,68.0,103.0
968,235.16054957708334,236.66929957708336,56.0,70.0
969,234.86054957708336,236.72929957708334,49.0,93.0
970,236.96054957708336,237.31429957708335,61.0,74.0
971,236.96054957708336,237.36179957708336,64.0,80.0
972,237.86054957708336,237.96304957708335,57.0,71.0
973,238.16054957708334,238.29304957708337,57.0,90.0
974,238.16054957708334,238.29554957708336,64.0,90.0
975,238.76054957708334,238.88554957708334,57.0,83.0
976,238.76054957708334,238.90429957708335,61.0,83.0
977,238.76054957708334,238.91929957708336,64.0,80.0
978,237.56054957708335,238.94054957708335,52.0,53.0
979,237.26054957708334,239.17804957708336,45.0,80.0
980,239.66054957708334,240.00554957708334,61.0,74.0
981,239.66054957708334,240.04679957708336,64.0,83.0
982,240.26054957708334,240.38929957708336,61.0,93.0
983,240.56054957708335,240.66554957708337,61.0,93.0
984,240.56054957708335,240.68429957708335,68.0,102.0
985,239.96054957708336,241.22054957708335,56.0,74.0
986,241.16054957708334,241.47304957708334,61.0,95.0
987,241.16054957708334,241.50054957708335,64.0,103.0
988,239.66054957708334,241.51679957708336,49.0,83.0
989,241.46054957708336,241.59304957708335,56.0,67.0
990,241.76054957708334,242.05179957708336,61.0,80.0
991,242.06054957708335,242.65929957708335,64.0,74.0
992,242.66054957708334,242.77804957708335,57.0,80.0
993,242.96054957708336,243.36179957708336,57.0,95.0
994,242.96054957708336,243.38929957708336,64.0,80.0
995,243.56054957708335,243.68554957708335,57.0,65.0
996,243.56054957708335,243.89929957708335,61.0,80.0
997,243.86054957708336,244.24679957708335,57.0,87.0
998,242.36054957708336,244.36179957708336,52.0,37.0
999,242.06054957708335,244.38804957708336,45.0,71.0
1000,244.46054957708336,244.87429957708335,56.0,83.0
1001,244.46054957708336,244.93554957708335,61.0,93.0
1002,244.76054957708334,245.22804957708337,51.0,63.0
1003,244.46054957708336,245.23304957708336,44.0,87.0
1004,245.06054957708335,245.25554957708334,56.0,83.0
1005,245.36054957708336,246.10929957708336,56.0,93.0
1006,245.36054957708336,246.14179957708336,61.0,85.0
1007,246.26054957708334,246.59054957708335,56.0,105.0
1008,245.96054957708336,246.71304957708335,51.0,70.0
1009,246.56054957708335,246.73304957708336,61.0,87.0
1010,245.36054957708336,246.75554957708334,44.0,93.0
1011,246.86054957708336,247.19304957708334,56.0,80.0
1012,246.86054957708336,247.25554957708334,63.0,80.0
1013,247.46054957708336,247.59304957708335,56.0,93.0
1014,247.16054957708334,249.12304957708335,51.0,71.0
1015,246.86054957708336,249.12679957708335,44.0,93.0
1016,247.76054957708334,249.12804957708335,56.0,87.0
1017,247.76054957708334,249.13804957708336,63.0,85.0
1018,250.15804957708335,250.55304957708336,60.0,68.0
1019,249.86179957708336,251.07679957708336,56.0,61.0
1020,249.57179957708337,251.11929957708335,51.0,67.0
1021,249.27179957708336,251.15179957708335,44.0,71.0
1022,250.45804957708336,251.15554957708335,63.0,49.0
1023,251.64554957708336,253.35929957708336,37.0,87.0
1024,251.96304957708335,253.47179957708335,64.0,68.0
1025,251.77804957708335,253.48679957708336,56.0,65.0
1026,251.86679957708336,253.49804957708335,61.0,64.0
