,start,end,pitch,velocity
0,24.569791666666667,24.88125,64.0,53.0
1,24.819791666666667,25.115625,62.0,60.0
2,25.069791666666667,25.373958333333334,60.0,53.0
3,25.319791666666667,26.069791666666667,67.0,68.0
4,26.069791666666667,26.33125,62.0,95.0
5,26.319791666666667,26.569791666666667,60.0,72.0
6,26.569791666666667,26.867708333333333,59.0,63.0
7,26.819791666666667,27.069791666666667,67.0,83.0
8,27.069791666666667,27.319791666666667,69.0,91.0
9,27.319791666666667,27.569791666666667,71.0,92.0
10,27.569791666666667,28.069791666666667,72.0,97.0
11,28.069791666666667,28.354166666666668,71.0,91.0
12,28.319791666666667,28.819791666666667,72.0,100.0
13,28.819791666666667,29.109375,64.0,90.0
14,29.069791666666667,30.569791666666667,67.0,97.0
15,30.569791666666667,30.833333333333332,69.0,105.0
16,30.819791666666667,31.069791666666667,67.0,83.0
17,31.069791666666667,31.319791666666667,65.0,73.0
18,31.319791666666667,32.092708333333334,69.0,103.0
19,32.06979166666667,32.35,67.0,66.0
20,32.31979166666667,32.56979166666667,65.0,58.0
21,32.56979166666667,32.83645833333333,64.0,45.0
22,32.81979166666667,33.06979166666667,67.0,59.0
23,33.06979166666667,33.33125,62.0,51.0
24,33.31979166666667,33.61145833333333,64.0,56.0
25,33.56979166666667,34.06979166666667,65.0,64.0
26,34.06979166666667,34.358333333333334,64.0,46.0
27,34.31979166666667,34.825,67.0,66.0
28,34.81979166666667,35.104166666666664,64.0,53.0
29,35.06979166666667,36.56979166666667,62.0,58.0
30,36.56979166666667,36.844791666666666,64.0,96.0
31,36.81979166666667,37.06979166666667,62.0,86.0
32,37.06979166666667,37.35729166666667,60.0,71.0
33,37.31979166666667,38.06979166666667,67.0,90.0
34,38.06979166666667,38.31979166666667,62.0,98.0
35,38.31979166666667,38.56979166666667,60.0,64.0
36,38.56979166666667,38.842708333333334,59.0,74.0
37,38.81979166666667,39.23645833333333,67.0,79.0
38,39.06979166666667,39.31979166666667,69.0,83.0
39,39.31979166666667,39.56979166666667,71.0,83.0
40,39.56979166666667,40.06979166666667,72.0,97.0
41,40.06979166666667,40.333333333333336,71.0,91.0
42,40.31979166666667,40.82395833333333,72.0,93.0
43,40.81979166666667,41.110416666666666,64.0,89.0
44,41.06979166666667,42.56979166666667,67.0,87.0
45,42.56979166666667,42.81979166666667,69.0,91.0
46,42.81979166666667,43.06979166666667,67.0,68.0
47,43.06979166666667,43.31979166666667,65.0,66.0
48,43.31979166666667,44.06979166666667,69.0,97.0
49,44.06979166666667,44.31979166666667,67.0,99.0
50,44.31979166666667,44.56979166666667,65.0,87.0
51,44.56979166666667,44.827083333333334,64.0,90.0
52,44.81979166666667,45.56875,62.0,97.0
53,45.56979166666667,46.06979166666667,62.0,105.0
54,46.06979166666667,48.06979166666667,60.0,103.0
55,48.06979166666667,48.31979166666667,69.0,93.0
56,48.31979166666667,48.6125,71.0,72.0
57,48.56979166666667,49.06875,72.0,95.0
58,49.06979166666667,49.31875,72.0,97.0
59,49.31979166666667,49.572916666666664,72.0,93.0
60,49.56979166666667,49.81979166666667,71.0,84.0
61,49.81979166666667,50.06875,69.0,80.0
62,50.06979166666667,50.56979166666667,69.0,87.0
63,50.56979166666667,51.31875,67.0,84.0
64,51.31979166666667,51.59375,67.0,68.0
65,51.56979166666667,52.06979166666667,69.0,87.0
66,52.06979166666667,52.31875,60.0,74.0
67,52.31979166666667,52.56875,60.0,80.0
68,52.56979166666667,52.81979166666667,60.0,69.0
69,52.81979166666667,53.07083333333333,67.0,90.0
70,53.06979166666667,54.56875,64.0,91.0
71,54.56979166666667,55.06875,64.0,101.0
72,55.06979166666667,55.31875,64.0,93.0
73,55.31979166666667,55.56875,64.0,93.0
74,55.56979166666667,55.81979166666667,64.0,91.0
75,55.81979166666667,56.06979166666667,62.0,87.0
76,56.06979166666667,56.56979166666667,60.0,97.0
77,56.56979166666667,56.81979166666667,64.0,93.0
78,56.81979166666667,57.31979166666667,69.0,105.0
79,57.31979166666667,57.56979166666667,71.0,101.0
80,57.56979166666667,58.31979166666667,72.0,106.0
81,58.31979166666667,58.56875,69.0,109.0
82,58.56979166666667,58.83125,69.0,99.0
83,58.81979166666667,59.08125,71.0,103.0
84,59.06979166666667,59.81875,72.0,109.0
85,59.81979166666667,60.06875,72.0,108.0
86,60.06979166666667,60.31979166666667,72.0,93.0
87,60.31979166666667,60.56979166666667,74.0,100.0
88,60.56979166666667,60.81875,76.0,99.0
89,60.81979166666667,61.06875,76.0,98.0
90,61.06979166666667,61.31875,76.0,97.0
91,61.31979166666667,61.60104166666667,76.0,100.0
92,61.56979166666667,61.85520833333333,77.0,103.0
93,61.81979166666667,62.08541666666667,76.0,109.0
94,62.06979166666667,62.81979166666667,74.0,114.0
95,62.81979166666667,63.06979166666667,67.0,97.0
96,63.06979166666667,63.35,72.0,93.0
97,63.31979166666667,63.645833333333336,74.0,100.0
98,63.56979166666667,64.31875,76.0,106.0
99,64.31979166666666,65.06875,76.0,106.0
100,65.06979166666666,65.31875,76.0,101.0
101,65.31979166666666,65.56875,76.0,97.0
102,65.56979166666666,65.81875,76.0,97.0
103,65.81979166666666,66.06979166666666,76.0,97.0
104,66.06979166666666,66.31979166666666,74.0,99.0
105,66.31979166666666,66.59791666666666,72.0,98.0
106,66.56979166666666,67.31979166666666,74.0,103.0
107,67.31979166666666,68.07395833333334,72.0,103.0
108,68.06979166666666,68.81979166666666,71.0,103.0
109,68.81979166666666,69.31979166666666,69.0,94.0
110,69.31979166666666,69.57291666666667,71.0,97.0
111,69.56979166666666,70.31875,72.0,111.0
112,70.31979166666666,71.06875,72.0,109.0
113,71.06979166666666,71.31875,72.0,101.0
114,71.31979166666666,71.56875,72.0,90.0
115,71.56979166666666,71.81875,72.0,97.0
116,71.81979166666666,72.09166666666667,72.0,94.0
117,72.06979166666666,72.334375,71.0,90.0
118,72.31979166666666,72.56875,69.0,93.0
119,72.56979166666666,73.36979166666667,69.0,94.0
120,73.31979166666666,73.81979166666666,67.0,91.0
121,73.81979166666666,74.08645833333333,71.0,94.0
122,74.06979166666666,74.81875,64.0,90.0
123,74.81979166666666,75.31979166666666,64.0,106.0
124,75.31979166666666,75.56979166666666,67.0,106.0
125,75.56979166666666,76.06875,69.0,109.0
126,76.06979166666666,76.31875,69.0,92.0
127,76.31979166666666,76.56979166666666,69.0,95.0
128,76.56979166666666,76.82916666666667,64.0,80.0
129,76.81979166666666,77.06979166666666,69.0,97.0
130,77.06979166666666,77.59270833333333,76.0,97.0
131,77.56979166666666,77.81979166666666,77.0,97.0
132,77.81979166666666,78.56979166666666,74.0,97.0
133,78.56979166666666,79.06875,67.0,92.0
134,79.06979166666666,79.31875,67.0,91.0
135,79.31979166666666,79.56979166666666,67.0,93.0
136,79.56979166666666,79.83958333333334,64.0,87.0
137,79.81979166666666,80.06979166666666,67.0,95.0
138,80.06979166666666,80.81875,72.0,87.0
139,80.81979166666666,81.334375,72.0,105.0
140,81.31979166666666,81.56979166666666,71.0,97.0
141,81.56979166666666,81.83541666666666,69.0,93.0
142,81.81979166666666,82.09270833333333,71.0,91.0
143,82.06979166666666,82.31979166666666,72.0,97.0
144,82.31979166666666,83.06875,69.0,105.0
145,83.06979166666666,83.31979166666666,69.0,108.0
146,83.31979166666666,83.58645833333333,71.0,95.0
147,83.56979166666666,83.81979166666666,72.0,106.0
148,83.81979166666666,84.31979166666666,69.0,103.0
149,84.31979166666666,84.56979166666666,72.0,91.0
150,84.56979166666666,84.81875,76.0,93.0
151,84.81979166666666,85.06875,76.0,103.0
152,85.06979166666666,85.31875,76.0,97.0
153,85.31979166666666,85.56979166666666,76.0,99.0
154,85.56979166666666,85.81979166666666,77.0,100.0
155,85.81979166666666,86.071875,76.0,106.0
156,86.06979166666666,86.81979166666666,74.0,108.0
157,86.81979166666666,87.06979166666666,67.0,97.0
158,87.06979166666666,87.31979166666666,72.0,90.0
159,87.31979166666666,87.60520833333334,74.0,97.0
160,87.56979166666666,88.56875,76.0,101.0
161,88.56979166666666,89.06875,76.0,106.0
162,89.06979166666666,89.31875,76.0,105.0
163,89.31979166666666,89.56875,76.0,97.0
164,89.56979166666666,89.81875,76.0,99.0
165,89.81979166666666,90.06979166666666,76.0,99.0
166,90.06979166666666,90.31979166666666,74.0,98.0
167,90.31979166666666,90.59479166666667,72.0,93.0
168,90.56979166666666,91.31979166666666,74.0,98.0
169,91.31979166666666,92.06979166666666,72.0,108.0
170,92.06979166666666,92.81979166666666,71.0,108.0
171,92.81979166666666,93.34479166666667,69.0,97.0
172,93.31979166666666,93.640625,71.0,97.0
173,93.56979166666666,94.31875,72.0,109.0
174,94.31979166666666,95.06875,72.0,111.0
175,95.06979166666666,95.31875,72.0,111.0
176,95.31979166666666,95.56875,72.0,100.0
177,95.56979166666666,95.81875,72.0,99.0
178,95.81979166666666,96.090625,72.0,94.0
179,96.06979166666666,96.31979166666666,71.0,93.0
180,96.31979166666666,96.56875,69.0,93.0
181,96.56979166666666,97.34791666666666,69.0,97.0
182,97.31979166666666,97.81979166666666,67.0,92.0
183,97.81979166666666,98.08541666666666,71.0,97.0
184,98.06979166666666,98.81875,64.0,96.0
185,98.81979166666666,99.31979166666666,64.0,94.0
186,99.31979166666666,99.56979166666666,67.0,98.0
187,99.56979166666666,99.81875,69.0,98.0
188,99.81979166666666,100.06875,69.0,95.0
189,100.06979166666666,100.31875,69.0,97.0
190,100.31979166666666,100.56979166666666,69.0,97.0
191,100.56979166666666,100.85625,71.0,90.0
192,100.81979166666666,101.06979166666666,72.0,98.0
193,101.06979166666666,101.81875,71.0,108.0
194,101.81979166666666,102.33541666666666,71.0,100.0
195,102.31979166666666,102.59479166666667,69.0,99.0
196,102.56979166666666,103.06979166666666,67.0,98.0
197,103.06979166666666,103.56875,64.0,86.0
198,103.56979166666666,103.81979166666666,64.0,86.0
199,103.81979166666666,104.06979166666666,74.0,91.0
200,104.06979166666666,104.81875,72.0,99.0
201,104.81979166666666,105.328125,72.0,108.0
202,105.31979166666666,105.58854166666667,71.0,99.0
203,105.56979166666666,105.840625,69.0,99.0
204,105.81979166666666,106.08854166666667,71.0,98.0
205,106.06979166666666,107.06979166666666,72.0,106.0
206,107.06979166666666,107.56979166666666,69.0,86.0
207,107.56979166666666,107.81875,72.0,97.0
208,107.81979166666666,108.3625,72.0,98.0
209,108.31979166666666,108.91041666666666,74.0,100.0
210,108.81979166666666,112.01145833333334,72.0,99.0
211,123.56979166666666,123.88229166666666,76.0,53.0
212,123.81979166666666,124.115625,74.0,60.0
213,124.06979166666666,124.37291666666667,72.0,53.0
214,124.31979166666666,125.06979166666666,79.0,68.0
215,125.06979166666666,125.33125,74.0,95.0
216,125.31979166666666,125.56979166666666,72.0,72.0
217,125.56979166666666,125.86770833333333,71.0,63.0
218,125.81979166666666,126.06979166666666,79.0,83.0
219,126.06979166666666,126.31979166666666,81.0,91.0
220,126.31979166666666,126.56979166666666,83.0,92.0
221,126.56979166666666,127.06875,84.0,97.0
222,127.06979166666666,127.31875,84.0,91.0
223,127.31979166666666,127.81979166666666,84.0,100.0
224,127.81979166666666,128.109375,83.0,90.0
225,128.06979166666667,128.56979166666667,81.0,97.0
226,128.56979166666667,129.56979166666667,79.0,97.0
227,129.56979166666667,129.83229166666666,81.0,105.0
228,129.81979166666667,130.06979166666667,79.0,83.0
229,130.06979166666667,130.31979166666667,77.0,73.0
230,130.31979166666667,131.06979166666667,81.0,103.0
231,131.06979166666667,131.35,79.0,66.0
232,131.31979166666667,131.56979166666667,77.0,58.0
233,131.56979166666667,131.81979166666667,76.0,45.0
234,131.81979166666667,132.06979166666667,79.0,59.0
235,132.06979166666667,132.33125,74.0,51.0
236,132.31979166666667,132.61145833333333,76.0,56.0
237,132.56979166666667,133.06979166666667,77.0,64.0
238,133.06979166666667,133.35729166666667,76.0,46.0
239,133.31979166666667,133.82604166666667,79.0,66.0
240,133.81979166666667,134.10416666666666,76.0,53.0
241,134.06979166666667,135.56979166666667,74.0,58.0
242,135.56979166666667,135.81979166666667,76.0,96.0
243,135.81979166666667,136.06979166666667,74.0,86.0
244,136.06979166666667,136.31979166666667,72.0,71.0
245,136.31979166666667,137.06979166666667,79.0,90.0
246,137.06979166666667,137.31979166666667,74.0,98.0
247,137.31979166666667,137.56979166666667,72.0,64.0
248,137.56979166666667,137.84270833333332,71.0,74.0
249,137.81979166666667,138.17291666666665,79.0,79.0
250,138.06979166666667,138.31979166666667,81.0,83.0
251,138.31979166666667,138.56979166666667,83.0,83.0
252,138.56979166666667,139.06979166666667,84.0,97.0
253,139.06979166666667,139.39166666666665,83.0,91.0
254,139.31979166666667,139.57916666666665,84.0,93.0
255,139.56979166666667,140.1125,83.0,89.0
256,139.81979166666667,140.328125,81.0,89.0
257,140.31979166666667,141.56979166666667,79.0,87.0
258,141.56979166666667,141.81979166666667,81.0,91.0
259,141.81979166666667,142.06979166666667,79.0,68.0
260,142.06979166666667,142.31979166666667,77.0,66.0
261,142.31979166666667,143.06979166666667,81.0,97.0
262,143.06979166666667,143.328125,79.0,99.0
263,143.31979166666667,143.56979166666667,77.0,87.0
264,143.56979166666667,143.81979166666667,76.0,90.0
265,143.81979166666667,144.08333333333334,74.0,97.0
266,144.06979166666667,144.08333333333334,74.0,97.0
267,144.31979166666667,144.840625,76.0,105.0
268,144.81979166666667,147.06979166666667,72.0,103.0
269,147.06979166666667,147.31979166666667,81.0,93.0
270,147.31979166666667,147.6125,83.0,72.0
271,147.56979166666667,148.06875,84.0,95.0
272,148.06979166666667,148.31875,84.0,97.0
273,148.31979166666667,148.57291666666666,84.0,93.0
274,148.56979166666667,148.81979166666667,83.0,84.0
275,148.81979166666667,149.06875,81.0,80.0
276,149.06979166666667,149.56979166666667,81.0,87.0
277,149.56979166666667,150.31875,79.0,84.0
278,150.31979166666667,150.59479166666665,79.0,68.0
279,150.56979166666667,151.08125,81.0,87.0
280,151.06979166666667,151.31875,72.0,74.0
281,151.31979166666667,151.56875,72.0,80.0
282,151.56979166666667,151.81979166666667,72.0,69.0
283,151.81979166666667,152.07604166666667,79.0,90.0
284,152.06979166666667,153.56875,76.0,91.0
285,153.56979166666667,154.06875,76.0,101.0
286,154.06979166666667,154.31875,76.0,93.0
287,154.31979166666667,154.56875,76.0,93.0
288,154.56979166666667,154.81979166666667,76.0,91.0
289,154.81979166666667,155.13333333333333,74.0,87.0
290,155.06979166666667,155.56979166666667,72.0,97.0
291,155.56979166666667,155.81979166666667,76.0,93.0
292,155.81979166666667,156.31979166666667,81.0,105.0
293,156.31979166666667,156.56979166666667,83.0,101.0
294,156.56979166666667,157.31979166666667,84.0,106.0
295,157.31979166666667,157.56875,81.0,109.0
296,157.56979166666667,157.83125,81.0,99.0
297,157.81979166666667,158.08125,83.0,103.0
298,158.06979166666667,158.81875,84.0,109.0
299,158.81979166666667,159.06875,84.0,108.0
300,159.06979166666667,159.31979166666667,84.0,93.0
301,159.31979166666667,159.56979166666667,86.0,100.0
302,159.56979166666667,159.81875,88.0,99.0
303,159.81979166666667,160.06875,88.0,98.0
304,160.06979166666667,160.31875,88.0,97.0
305,160.31979166666667,160.60104166666667,88.0,100.0
306,160.56979166666667,160.85520833333334,91.0,103.0
307,160.81979166666667,161.08541666666667,88.0,109.0
308,161.06979166666667,161.81979166666667,86.0,114.0
309,161.81979166666667,162.078125,79.0,97.0
310,162.06979166666667,162.31979166666667,84.0,93.0
311,162.31979166666667,162.578125,86.0,100.0
312,162.56979166666667,163.31875,88.0,106.0
313,163.31979166666667,164.06875,88.0,106.0
314,164.06979166666667,164.31875,88.0,101.0
315,164.31979166666667,164.56875,88.0,97.0
316,164.56979166666667,164.81875,88.0,97.0
317,164.81979166666667,165.06979166666667,88.0,97.0
318,165.06979166666667,165.31979166666667,86.0,99.0
319,165.31979166666667,165.596875,84.0,98.0
320,165.56979166666667,166.31979166666667,86.0,103.0
321,166.31979166666667,167.07395833333334,84.0,103.0
322,167.06979166666667,167.81979166666667,83.0,103.0
323,167.81979166666667,168.31979166666667,81.0,94.0
324,168.31979166666667,168.57291666666666,83.0,97.0
325,168.56979166666667,169.31875,84.0,111.0
326,169.31979166666667,170.06875,84.0,109.0
327,170.06979166666667,170.31875,84.0,101.0
328,170.31979166666667,170.56875,84.0,90.0
329,170.56979166666667,170.81875,84.0,97.0
330,170.81979166666667,171.09166666666667,84.0,94.0
331,171.06979166666667,171.334375,83.0,90.0
332,171.31979166666667,171.56875,81.0,93.0
333,171.56979166666667,172.36979166666666,81.0,94.0
334,172.31979166666667,172.81979166666667,79.0,91.0
335,172.81979166666667,173.0875,83.0,94.0
336,173.06979166666667,173.81875,76.0,90.0
337,173.81979166666667,174.31979166666667,76.0,106.0
338,174.31979166666667,174.56979166666667,79.0,106.0
339,174.56979166666667,175.06875,81.0,109.0
340,175.06979166666667,175.31875,81.0,92.0
341,175.31979166666667,175.56979166666667,81.0,95.0
342,175.56979166666667,175.81979166666667,76.0,80.0
343,175.81979166666667,176.128125,81.0,97.0
344,176.06979166666667,176.56979166666667,88.0,97.0
345,176.56979166666667,176.81979166666667,89.0,97.0
346,176.81979166666667,177.56979166666667,86.0,97.0
347,177.56979166666667,178.06875,79.0,92.0
348,178.06979166666667,178.31875,79.0,91.0
349,178.31979166666667,178.56979166666667,79.0,93.0
350,178.56979166666667,178.940625,76.0,87.0
351,178.81979166666667,179.06979166666667,79.0,95.0
352,179.06979166666667,179.81875,84.0,87.0
353,179.81979166666667,180.334375,84.0,105.0
354,180.31979166666667,180.56979166666667,83.0,97.0
355,180.56979166666667,180.83541666666667,81.0,93.0
356,180.81979166666667,181.09270833333332,83.0,91.0
357,181.06979166666667,181.31979166666667,84.0,97.0
358,181.31979166666667,182.06875,81.0,105.0
359,182.06979166666667,182.31979166666667,81.0,108.0
360,182.31979166666667,182.58645833333333,83.0,95.0
361,182.56979166666667,182.81979166666667,84.0,106.0
362,182.81979166666667,183.31979166666667,81.0,103.0
363,183.31979166666667,183.56979166666667,84.0,91.0
364,183.56979166666667,183.81875,88.0,93.0
365,183.81979166666667,184.06875,88.0,103.0
366,184.06979166666667,184.31875,88.0,97.0
367,184.31979166666667,184.56979166666667,88.0,99.0
368,184.56979166666667,184.81979166666667,89.0,100.0
369,184.81979166666667,185.06979166666667,88.0,106.0
370,185.06979166666667,185.81979166666667,86.0,108.0
371,185.81979166666667,186.06979166666667,79.0,97.0
372,186.06979166666667,186.31979166666667,84.0,90.0
373,186.31979166666667,186.60520833333334,86.0,97.0
374,186.56979166666667,187.31875,88.0,101.0
375,187.31979166666667,188.06875,88.0,106.0
376,188.06979166666667,188.31875,88.0,105.0
377,188.31979166666667,188.56875,88.0,97.0
378,188.56979166666667,188.81875,88.0,99.0
379,188.81979166666667,189.06979166666667,88.0,99.0
380,189.06979166666667,189.31979166666667,86.0,98.0
381,189.31979166666667,189.59375,84.0,93.0
382,189.56979166666667,190.31979166666667,86.0,98.0
383,190.31979166666667,191.06979166666667,84.0,108.0
384,191.06979166666667,191.81979166666667,83.0,108.0
385,191.81979166666667,192.34479166666665,81.0,97.0
386,192.31979166666667,192.640625,83.0,97.0
387,192.56979166666667,193.31875,84.0,109.0
388,193.31979166666667,194.06875,84.0,111.0
389,194.06979166666667,194.31875,84.0,111.0
390,194.31979166666667,194.56875,84.0,100.0
391,194.56979166666667,194.81875,84.0,99.0
392,194.81979166666667,195.090625,84.0,94.0
393,195.06979166666667,195.31979166666667,83.0,93.0
394,195.31979166666667,195.56875,81.0,93.0
395,195.56979166666667,196.31979166666667,81.0,97.0
396,196.31979166666667,196.81979166666667,79.0,92.0
397,196.81979166666667,197.08541666666667,83.0,97.0
398,197.06979166666667,197.81875,76.0,96.0
399,197.81979166666667,198.31979166666667,76.0,94.0
400,198.31979166666667,198.56979166666667,79.0,98.0
401,198.56979166666667,198.81875,81.0,98.0
402,198.81979166666667,199.06875,81.0,95.0
403,199.06979166666667,199.31875,81.0,97.0
404,199.31979166666667,199.56979166666667,81.0,97.0
405,199.56979166666667,199.85625,83.0,90.0
406,199.81979166666667,200.06979166666667,84.0,98.0
407,200.06979166666667,200.81875,83.0,108.0
408,200.81979166666667,201.334375,83.0,100.0
409,201.31979166666667,201.59479166666665,81.0,99.0
410,201.56979166666667,202.06979166666667,79.0,98.0
411,202.06979166666667,202.56875,76.0,86.0
412,202.56979166666667,202.81979166666667,76.0,86.0
413,202.81979166666667,203.06979166666667,86.0,91.0
414,203.06979166666667,203.81875,84.0,99.0
415,203.81979166666667,204.328125,84.0,108.0
416,204.31979166666667,204.58854166666666,83.0,99.0
417,204.56979166666667,204.83958333333334,81.0,99.0
418,204.81979166666667,205.08958333333334,83.0,98.0
419,205.06979166666667,206.06979166666667,84.0,106.0
420,206.06979166666667,206.56979166666667,81.0,86.0
421,206.56979166666667,207.06875,84.0,97.0
422,207.06979166666667,207.60416666666666,84.0,98.0
423,207.56979166666667,208.11249999999998,86.0,100.0
424,208.06979166666667,210.23333333333332,84.0,99.0
425,210.06979166666667,210.23333333333332,84.0,90.0
426,210.31979166666667,210.61979166666666,83.0,90.0
427,210.56979166666667,210.840625,81.0,86.0
428,210.81979166666667,211.09791666666666,83.0,91.0
429,211.06979166666667,212.06979166666667,84.0,98.0
430,212.06979166666667,212.584375,81.0,93.0
431,212.56979166666667,212.84375,84.0,98.0
432,212.81979166666667,212.84375,84.0,97.0
433,213.56979166666667,214.365625,86.0,87.0
434,214.31979166666667,220.01145833333334,84.0,90.0
