,start,end,pitch,velocity
0,0.575,0.875,48.0,56.0
1,0.825,1.0604166666666666,55.0,52.0
2,1.075,1.334375,60.0,64.0
3,1.325,1.6927083333333333,62.0,68.0
4,1.575,1.8729166666666666,64.0,57.0
5,1.825,1.925,67.0,82.0
6,2.075,2.4447916666666667,48.0,89.0
7,2.325,2.5677083333333335,55.0,66.0
8,2.575,2.7916666666666665,60.0,69.0
9,2.825,3.109375,62.0,65.0
10,3.075,3.3562499999999997,64.0,69.0
11,3.3249999999999997,3.370833333333333,67.0,76.0
12,3.5749999999999997,4.014583333333333,45.0,81.0
13,3.8249999999999997,4.09375,52.0,69.0
14,4.075,4.3375,57.0,57.0
15,4.325,4.659375,59.0,61.0
16,4.575,4.851041666666666,60.0,62.0
17,4.825,4.861458333333333,64.0,62.0
18,5.075,5.46875,45.0,49.0
19,5.325,5.554166666666666,52.0,62.0
20,5.575,5.832291666666666,57.0,72.0
21,5.825,6.097916666666666,59.0,70.0
22,6.075,6.359375,60.0,59.0
23,6.325,6.359375,64.0,58.0
24,6.575,6.972916666666666,41.0,74.0
25,6.825,7.084375,48.0,59.0
26,7.075,7.329166666666667,53.0,72.0
27,7.325,7.640625,55.0,59.0
28,7.575,7.84375,57.0,54.0
29,7.825,7.860416666666667,60.0,31.0
30,8.075,8.423958333333333,40.0,74.0
31,8.325,8.5375,48.0,74.0
32,8.575,8.808333333333334,52.0,60.0
33,9.075,9.24375,60.0,34.0
34,8.825,9.352083333333333,55.0,58.0
35,9.325,9.369791666666666,64.0,44.0
36,9.575,9.958333333333334,38.0,82.0
37,9.825,10.096875,45.0,66.0
38,10.075,10.359375,50.0,64.0
39,10.325,10.811458333333333,52.0,65.0
40,10.575,10.878125,53.0,59.0
41,10.825,10.879166666666666,57.0,77.0
42,11.075,11.721875,43.0,62.0
43,11.575,11.746875,55.0,75.0
44,11.325,11.817708333333334,50.0,70.0
45,11.825,12.051041666666666,60.0,70.0
46,11.825,12.11875,55.0,87.0
47,11.825,12.134375,43.0,67.0
48,12.075,12.138541666666667,59.0,51.0
49,12.075,12.230208333333334,62.0,63.0
50,12.075,12.359375,45.0,74.0
51,12.325,12.365625,64.0,53.0
52,12.325,12.36875,47.0,72.0
53,12.325,12.378125,59.0,25.0
54,12.575,13.0125,62.0,77.0
55,12.575,13.071875,67.0,75.0
56,13.075,13.380208333333334,60.0,62.0
57,13.325,13.622916666666667,62.0,80.0
58,12.825,13.670833333333333,55.0,70.0
59,13.325,13.725,67.0,89.0
60,13.575,13.844791666666666,60.0,73.0
61,12.575,13.861458333333333,48.0,90.0
62,13.825,14.063541666666666,55.0,72.0
63,14.075,14.354166666666666,62.0,78.0
64,14.075,14.364583333333334,67.0,86.0
65,14.325,14.903125,55.0,67.0
66,14.575,14.956249999999999,60.0,62.0
67,14.825,15.112499999999999,62.0,82.0
68,14.075,15.155208333333333,48.0,79.0
69,14.825,15.221874999999999,71.0,91.0
70,15.075,15.319791666666667,55.0,75.0
71,15.325,15.457291666666666,47.0,63.0
72,15.825,16.069791666666667,52.0,68.0
73,15.575,16.075,45.0,81.0
74,16.075,16.372916666666665,57.0,74.0
75,15.575,16.492708333333333,64.0,76.0
76,15.575,16.576041666666665,67.0,85.0
77,16.325,16.66875,59.0,72.0
78,16.575,16.6875,60.0,81.0
79,16.825,16.901041666666668,64.0,60.0
80,17.075,17.208333333333332,64.0,68.0
81,17.575,17.616666666666667,62.0,85.0
82,17.575,17.677083333333332,71.0,99.0
83,17.325,17.96875,52.0,65.0
84,17.825,18.036458333333332,57.0,63.0
85,18.075,18.136458333333334,59.0,79.0
86,18.075,18.288541666666667,67.0,91.0
87,18.325,18.365625,52.0,49.0
88,17.075,18.37708333333333,45.0,88.0
89,18.575,18.96875,60.0,77.0
90,18.575,19.077083333333334,65.0,84.0
91,18.575,19.082291666666666,57.0,81.0
92,19.325,19.45625,55.0,86.0
93,19.325,19.515625,60.0,82.0
94,19.075,19.5625,53.0,69.0
95,18.825,19.641666666666666,48.0,65.0
96,19.575,19.746875,62.0,59.0
97,18.575,19.839583333333334,41.0,77.0
98,19.825,20.076041666666665,48.0,46.0
99,19.825,20.128125,65.0,65.0
100,20.075,20.54895833333333,64.0,88.0
101,20.075,20.561458333333334,55.0,79.0
102,20.075,20.594791666666666,60.0,74.0
103,20.325,20.975,48.0,76.0
104,20.825,21.003125,55.0,89.0
105,20.575,21.2,52.0,77.0
106,21.075,21.226041666666667,60.0,71.0
107,20.075,21.390625,40.0,77.0
108,21.325,21.539583333333333,64.0,74.0
109,21.575,21.854166666666668,65.0,87.0
110,21.575,21.95520833333333,57.0,86.0
111,21.575,22.004166666666666,60.0,75.0
112,22.075,22.341666666666665,50.0,71.0
113,22.325,22.375,60.0,76.0
114,22.325,22.40625,57.0,81.0
115,22.325,22.428125,67.0,95.0
116,21.575,22.672916666666666,38.0,81.0
117,22.575,22.707291666666666,65.0,93.0
118,21.825,22.713541666666668,45.0,73.0
119,22.825,22.99375,64.0,81.0
120,23.075,23.992708333333333,55.0,82.0
121,23.075,24.073958333333334,43.0,72.0
122,23.075,24.092708333333334,59.0,85.0
123,23.075,24.108333333333334,50.0,84.0
124,23.075,24.114583333333332,62.0,81.0
125,24.573958333333334,24.938541666666666,67.0,73.0
126,24.823958333333334,24.93958333333333,55.0,53.0
127,25.073958333333334,25.260416666666668,60.0,61.0
128,25.323958333333334,25.655208333333334,67.0,79.0
129,25.573958333333334,25.721875,55.0,57.0
130,25.823958333333334,26.05,60.0,66.0
131,24.573958333333334,26.12708333333333,48.0,59.0
132,26.073958333333334,26.429166666666667,62.0,58.0
133,26.323958333333334,26.551041666666666,55.0,49.0
134,26.573958333333334,26.957291666666666,59.0,52.0
135,26.823958333333334,27.144791666666666,67.0,63.0
136,27.073958333333334,27.284375,55.0,57.0
137,27.323958333333334,27.61145833333333,62.0,61.0
138,26.073958333333334,27.64270833333333,47.0,61.0
139,27.573958333333334,27.903125,60.0,74.0
140,27.823958333333334,28.029166666666665,55.0,65.0
141,28.073958333333334,28.444791666666667,60.0,65.0
142,28.323958333333334,28.640625,67.0,74.0
143,27.573958333333334,28.6875,45.0,70.0
144,28.573958333333334,28.760416666666668,55.0,56.0
145,28.823958333333334,29.058333333333334,60.0,51.0
146,28.948958333333334,29.432291666666668,62.0,25.0
147,29.573958333333334,29.897916666666667,55.0,79.0
148,29.323958333333334,29.901041666666668,52.0,62.0
149,29.823958333333334,30.092708333333334,60.0,78.0
150,29.073958333333334,30.238541666666666,43.0,48.0
151,30.073958333333334,30.379166666666666,64.0,77.0
152,30.323958333333334,30.394791666666666,65.0,66.0
153,30.573958333333334,30.616666666666667,67.0,63.0
154,30.573958333333334,30.889583333333334,65.0,72.0
155,30.823958333333334,31.203125,57.0,71.0
156,31.073958333333334,31.386458333333334,60.0,64.0
157,31.323958333333334,31.60625,65.0,89.0
158,31.573958333333334,31.864583333333332,57.0,53.0
159,30.573958333333334,31.928124999999998,41.0,58.0
160,30.823958333333334,32.026041666666664,48.0,39.0
161,31.823958333333334,32.13229166666667,60.0,66.0
162,32.32395833333333,32.55833333333333,55.0,64.0
163,32.07395833333333,32.686458333333334,67.0,74.0
164,32.57395833333333,32.84166666666667,60.0,58.0
165,32.82395833333333,33.12083333333333,64.0,84.0
166,32.07395833333333,33.235416666666666,40.0,60.0
167,33.07395833333333,33.239583333333336,55.0,60.0
168,33.32395833333333,33.52916666666667,39.0,54.0
169,33.32395833333333,33.540625,62.0,58.0
170,33.57395833333333,34.0625,38.0,62.0
171,33.82395833333333,34.10208333333333,45.0,50.0
172,34.07395833333333,34.34791666666666,48.0,74.0
173,33.57395833333333,34.665625,65.0,87.0
174,34.57395833333333,34.69375,53.0,87.0
175,34.32395833333333,34.708333333333336,50.0,71.0
176,34.82395833333333,35.03125,57.0,71.0
177,35.07395833333333,35.32083333333333,62.0,76.0
178,35.07395833333333,35.47604166666667,43.0,74.0
179,35.32395833333333,35.552083333333336,60.0,71.0
180,35.32395833333333,35.57395833333333,50.0,66.0
181,35.57395833333333,35.78541666666666,59.0,76.0
182,35.57395833333333,35.8625,55.0,71.0
183,35.82395833333333,36.0875,60.0,65.0
184,35.82395833333333,36.140625,57.0,71.0
185,36.07395833333333,36.15833333333333,59.0,78.0
186,36.07395833333333,36.307291666666664,62.0,75.0
187,36.32395833333333,36.58958333333333,64.0,72.0
188,36.82395833333333,37.083333333333336,55.0,44.0
189,36.57395833333333,37.11354166666666,67.0,82.0
190,37.07395833333333,37.51354166666667,60.0,71.0
191,37.32395833333333,37.709375,67.0,85.0
192,37.57395833333333,37.86145833333333,55.0,62.0
193,37.82395833333333,38.09166666666667,62.0,61.0
194,36.57395833333333,38.10729166666667,48.0,74.0
195,38.07395833333333,38.390625,64.0,66.0
196,38.32395833333333,38.6375,55.0,68.0
197,38.57395833333333,38.90208333333333,59.0,69.0
198,38.82395833333333,39.166666666666664,67.0,77.0
199,39.07395833333333,39.26875,55.0,68.0
200,39.32395833333333,39.596875,62.0,67.0
201,38.07395833333333,39.603125,47.0,77.0
202,39.57395833333333,39.833333333333336,60.0,79.0
203,39.82395833333333,40.0125,55.0,66.0
204,40.07395833333333,40.421875,60.0,75.0
205,40.32395833333333,40.68333333333333,67.0,94.0
206,40.57395833333333,40.735416666666666,55.0,60.0
207,40.82395833333333,41.03333333333333,60.0,72.0
208,39.57395833333333,41.041666666666664,45.0,76.0
209,41.07395833333333,41.325,62.0,65.0
210,41.32395833333333,41.53125,55.0,72.0
211,41.57395833333333,41.891666666666666,59.0,64.0
212,41.82395833333333,42.15416666666667,67.0,87.0
213,42.07395833333333,42.24270833333333,55.0,65.0
214,41.07395833333333,42.36875,43.0,57.0
215,42.32395833333333,42.541666666666664,42.0,61.0
216,42.32395833333333,42.60729166666667,60.0,73.0
217,42.69895833333333,42.73854166666666,64.0,21.0
218,42.57395833333333,42.88229166666667,65.0,91.0
219,42.82395833333333,43.153125,57.0,52.0
220,43.07395833333333,43.44479166666667,60.0,74.0
221,43.32395833333333,43.57083333333333,67.0,89.0
222,43.57395833333333,43.780208333333334,57.0,63.0
223,42.57395833333333,44.059375,41.0,76.0
224,43.82395833333333,44.065625,60.0,72.0
225,44.07395833333333,44.33020833333333,65.0,88.0
226,44.32395833333333,44.484375,57.0,64.0
227,44.57395833333333,44.90833333333333,60.0,70.0
228,44.82395833333333,45.06666666666666,67.0,85.0
229,45.07395833333333,45.27291666666667,57.0,63.0
230,45.32395833333333,45.55625,60.0,69.0
231,44.07395833333333,45.56979166666667,43.0,67.0
232,45.57395833333333,45.84166666666667,62.0,71.0
233,45.82395833333333,46.13333333333333,55.0,65.0
234,46.07395833333333,46.40416666666667,60.0,73.0
235,46.32395833333333,46.62708333333333,65.0,84.0
236,46.57395833333333,46.796875,64.0,70.0
237,45.57395833333333,46.92916666666667,48.0,85.0
238,46.82395833333333,47.045833333333334,62.0,63.0
239,47.07395833333333,47.594791666666666,55.0,75.0
240,47.07395833333333,47.71875,60.0,69.0
241,47.07395833333333,47.74166666666667,64.0,79.0
242,47.07395833333333,47.959375,48.0,69.0
243,47.82395833333333,48.092708333333334,55.0,82.0
244,47.82395833333333,48.2,62.0,81.0
245,48.07395833333333,48.494791666666664,48.0,89.0
246,48.32395833333333,48.567708333333336,47.0,73.0
247,48.57395833333333,48.77395833333333,55.0,90.0
248,48.57395833333333,48.94583333333333,60.0,91.0
249,49.07395833333333,49.371875,57.0,74.0
250,49.32395833333333,49.552083333333336,59.0,82.0
251,48.82395833333333,49.65208333333333,52.0,53.0
252,49.32395833333333,49.677083333333336,60.0,80.0
253,49.32395833333333,49.67916666666667,64.0,74.0
254,49.57395833333333,49.815625,57.0,62.0
255,48.57395833333333,49.844791666666666,45.0,87.0
256,49.82395833333333,50.10208333333333,52.0,74.0
257,50.07395833333333,50.43020833333333,59.0,79.0
258,50.07395833333333,50.4875,64.0,80.0
259,50.32395833333333,50.911458333333336,52.0,67.0
260,50.82395833333333,51.01145833333333,64.0,80.0
261,50.57395833333333,51.12916666666666,55.0,75.0
262,51.19895833333333,51.260416666666664,52.0,45.0
263,51.07395833333333,51.28125,71.0,68.0
264,50.07395833333333,51.34166666666667,43.0,76.0
265,51.32395833333333,51.584375,72.0,89.0
266,51.57395833333333,51.93541666666667,65.0,84.0
267,51.57395833333333,51.942708333333336,69.0,87.0
268,51.57395833333333,51.971875,60.0,82.0
269,52.07395833333333,52.43020833333333,53.0,72.0
270,51.82395833333333,52.525,48.0,76.0
271,51.57395833333333,52.53541666666666,41.0,72.0
272,52.32395833333333,52.592708333333334,65.0,88.0
273,52.32395833333333,52.59583333333333,57.0,84.0
274,52.32395833333333,52.61875,60.0,75.0
275,52.57395833333333,52.76145833333333,62.0,87.0
276,52.57395833333333,52.775,43.0,91.0
277,53.07395833333333,53.338541666666664,36.0,84.0
278,53.32395833333333,53.65,48.0,66.0
279,52.82395833333333,53.69479166666667,65.0,86.0
280,53.07395833333333,53.725,64.0,84.0
281,53.07395833333333,53.833333333333336,60.0,80.0
282,53.07395833333333,53.88854166666667,55.0,83.0
283,53.57395833333333,53.90833333333333,50.0,83.0
284,54.07395833333333,54.128125,62.0,66.0
285,54.07395833333333,54.217708333333334,55.0,88.0
286,53.82395833333333,54.385416666666664,52.0,101.0
287,54.32395833333333,54.385416666666664,55.0,36.0
288,54.32395833333333,54.503125,62.0,81.0
289,54.32395833333333,54.51145833333333,47.0,69.0
290,54.57395833333333,54.802083333333336,56.0,62.0
291,54.57395833333333,54.880208333333336,64.0,88.0
292,54.57395833333333,54.91041666666666,59.0,70.0
293,55.07395833333333,55.275,56.0,77.0
294,54.82395833333333,55.34791666666666,52.0,73.0
295,54.57395833333333,55.603125,40.0,80.0
296,55.32395833333333,55.614583333333336,65.0,90.0
297,55.57395833333333,55.639583333333334,52.0,70.0
298,55.57395833333333,55.73854166666666,64.0,84.0
299,55.82395833333333,56.041666666666664,62.0,76.0
300,56.07395833333333,56.290625,55.0,92.0
301,56.07395833333333,56.364583333333336,60.0,92.0
302,56.07395833333333,56.509375,45.0,93.0
303,56.32395833333333,56.68958333333333,52.0,66.0
304,56.57395833333333,56.70625,55.0,78.0
305,56.82395833333333,57.103125,55.0,70.0
306,56.82395833333333,57.14791666666667,59.0,87.0
307,56.82395833333333,57.16354166666667,64.0,90.0
308,57.07395833333333,57.20625,52.0,85.0
309,56.82395833333333,57.22291666666666,43.0,87.0
310,57.32395833333333,57.421875,55.0,86.0
311,57.57395833333333,57.96145833333333,57.0,94.0
312,57.57395833333333,57.96145833333333,65.0,97.0
313,57.57395833333333,58.108333333333334,60.0,91.0
314,58.32395833333333,58.465624999999996,57.0,92.0
315,58.07395833333333,58.58645833333333,53.0,72.0
316,58.57395833333333,58.628125,57.0,38.0
317,57.82395833333333,58.696875,48.0,75.0
318,58.57395833333333,58.72083333333333,60.0,90.0
319,58.82395833333333,58.878125,60.0,26.0
320,58.82395833333333,58.89895833333333,48.0,58.0
321,57.57395833333333,58.903124999999996,41.0,88.0
322,58.82395833333333,58.92395833333333,65.0,86.0
323,58.82395833333333,58.92916666666667,53.0,67.0
324,59.07395833333333,59.309374999999996,66.0,56.0
325,59.07395833333333,59.416666666666664,57.0,97.0
326,59.07395833333333,59.48229166666667,62.0,94.0
327,59.32395833333333,60.00208333333333,54.0,80.0
328,59.57395833333333,60.109375,57.0,84.0
329,59.82395833333333,60.32604166666667,62.0,103.0
330,60.07395833333333,60.34583333333333,66.0,94.0
331,59.07395833333333,60.36666666666667,42.0,81.0
332,60.32395833333333,60.43541666666667,54.0,74.0
333,60.57395833333333,60.89791666666667,65.0,104.0
334,60.57395833333333,60.925,57.0,99.0
335,60.57395833333333,60.94479166666667,60.0,99.0
336,61.07395833333333,61.27291666666667,57.0,93.0
337,61.32395833333333,61.598958333333336,60.0,107.0
338,60.82395833333333,61.606249999999996,55.0,85.0
339,61.57395833333333,61.85104166666667,65.0,105.0
340,61.82395833333333,61.858333333333334,67.0,72.0
341,61.82395833333333,61.864583333333336,69.0,56.0
342,60.57395833333333,61.909375,43.0,102.0
343,61.82395833333333,61.936458333333334,55.0,88.0
344,62.07395833333333,62.427083333333336,62.0,106.0
345,62.07395833333333,62.427083333333336,71.0,102.0
346,62.07395833333333,62.436458333333334,67.0,98.0
347,62.07395833333333,62.596875,55.0,106.0
348,62.07395833333333,62.70104166666667,43.0,110.0
349,62.94895833333333,63.026041666666664,69.0,28.0
350,62.82395833333333,63.14791666666667,60.0,101.0
351,62.82395833333333,63.172916666666666,72.0,100.0
352,62.82395833333333,63.20520833333333,65.0,99.0
353,63.07395833333333,63.21041666666667,43.0,79.0
354,63.07395833333333,63.30520833333333,55.0,103.0
355,63.32395833333333,63.415625,60.0,65.0
356,63.57395833333333,64.090625,64.0,91.0
357,63.57395833333333,64.125,67.0,94.0
358,63.57395833333333,64.17604166666666,72.0,97.0
359,64.07395833333334,64.378125,60.0,75.0
360,64.32395833333334,64.63854166666667,62.0,100.0
361,63.82395833333333,64.66041666666666,55.0,71.0
362,63.57395833333333,64.8125,48.0,89.0
363,64.32395833333334,64.85208333333333,67.0,100.0
364,64.57395833333334,64.85833333333333,60.0,85.0
365,64.82395833333334,65.05104166666666,55.0,75.0
366,65.07395833333334,65.246875,64.0,89.0
367,65.07395833333334,65.75104166666667,72.0,96.0
368,65.57395833333334,65.8875,60.0,90.0
369,65.32395833333334,65.91041666666666,55.0,73.0
370,65.82395833333334,66.13541666666667,62.0,90.0
371,66.07395833333334,66.22395833333333,55.0,71.0
372,65.07395833333334,66.23958333333333,48.0,91.0
373,65.82395833333334,66.26041666666667,71.0,101.0
374,66.32395833333334,66.57083333333333,69.0,89.0
375,66.57395833333334,66.96875,67.0,95.0
376,66.57395833333334,66.9875,71.0,64.0
377,66.57395833333334,67.01770833333333,62.0,94.0
378,67.07395833333334,67.390625,55.0,88.0
379,67.32395833333334,67.509375,59.0,79.0
380,67.32395833333334,67.58645833333333,62.0,77.0
381,66.82395833333334,67.675,50.0,75.0
382,67.57395833333334,67.85833333333333,55.0,83.0
383,66.57395833333334,67.89895833333333,43.0,89.0
384,67.82395833333334,67.99166666666666,50.0,71.0
385,68.32395833333334,68.940625,50.0,77.0
386,68.82395833333334,69.18541666666667,55.0,82.0
387,68.07395833333334,69.35833333333333,43.0,89.0
388,69.32395833333334,69.50520833333333,50.0,75.0
389,70.32395833333334,70.44583333333333,64.0,86.0
390,69.82395833333334,70.45,52.0,86.0
391,70.32395833333334,70.54270833333334,72.0,92.0
392,70.07395833333334,70.57708333333333,57.0,81.0
393,70.57395833333334,70.62916666666666,64.0,36.0
394,70.57395833333334,70.75104166666667,71.0,85.0
395,69.57395833333334,70.853125,45.0,93.0
396,70.82395833333334,70.95416666666667,69.0,76.0
397,70.82395833333334,70.97604166666666,52.0,79.0
398,71.07395833333334,71.40520833333333,72.0,89.0
399,71.07395833333334,71.47604166666666,64.0,87.0
400,71.82395833333334,71.96979166666667,60.0,85.0
401,71.32395833333334,72.09479166666667,52.0,84.0
402,71.57395833333334,72.14375,57.0,82.0
403,72.07395833333334,72.24479166666667,64.0,87.0
404,72.32395833333334,72.42083333333333,52.0,79.0
405,71.07395833333334,72.42291666666667,45.0,88.0
406,72.32395833333334,72.51041666666667,67.0,87.0
407,72.57395833333334,72.86666666666666,64.0,71.0
408,72.57395833333334,72.915625,60.0,93.0
409,72.57395833333334,72.91979166666667,69.0,97.0
410,73.07395833333334,73.38229166666666,52.0,84.0
411,73.32395833333334,73.65520833333333,55.0,96.0
412,73.32395833333334,73.671875,62.0,95.0
413,72.82395833333334,73.67708333333333,47.0,71.0
414,72.57395833333334,73.86145833333333,40.0,92.0
415,73.57395833333334,73.86458333333333,52.0,81.0
416,73.82395833333334,73.93333333333334,55.0,79.0
417,73.82395833333334,73.98645833333333,47.0,67.0
418,74.07395833333334,74.37604166666667,55.0,88.0
419,74.07395833333334,74.38854166666667,67.0,100.0
420,74.07395833333334,74.39583333333333,59.0,84.0
421,74.57395833333334,74.68958333333333,55.0,93.0
422,74.32395833333334,74.825,52.0,83.0
423,74.82395833333334,75.10833333333333,55.0,73.0
424,74.82395833333334,75.153125,59.0,92.0
425,74.82395833333334,75.175,67.0,87.0
426,75.07395833333334,75.2375,52.0,90.0
427,74.07395833333334,75.31979166666666,40.0,96.0
428,75.32395833333334,75.46458333333334,52.0,55.0
429,75.32395833333334,75.57291666666667,62.0,85.0
430,75.44895833333334,75.6125,64.0,84.0
431,75.57395833333334,75.86145833333333,57.0,103.0
432,75.57395833333334,75.92916666666666,60.0,97.0
433,75.57395833333334,75.97916666666667,41.0,81.0
434,75.57395833333334,75.990625,65.0,101.0
435,75.82395833333334,76.06770833333333,48.0,80.0
436,76.07395833333334,76.40833333333333,53.0,81.0
437,76.57395833333334,76.671875,57.0,101.0
438,76.32395833333334,76.67291666666667,55.0,79.0
439,76.82395833333334,76.95520833333333,60.0,83.0
440,77.07395833333334,77.18645833333333,60.0,77.0
441,77.07395833333334,77.396875,69.0,97.0
442,77.07395833333334,77.40520833333333,65.0,77.0
443,77.32395833333334,77.40520833333333,65.0,9.0
444,77.57395833333334,77.65833333333333,67.0,91.0
445,77.57395833333334,77.66354166666666,62.0,98.0
446,77.57395833333334,77.71979166666667,71.0,96.0
447,77.82395833333334,78.03958333333333,53.0,68.0
448,77.32395833333334,78.203125,48.0,82.0
449,78.07395833333334,78.22604166666666,62.0,85.0
450,78.07395833333334,78.23541666666667,67.0,89.0
451,77.07395833333334,78.25208333333333,41.0,91.0
452,78.07395833333334,78.34583333333333,72.0,92.0
453,78.32395833333334,78.36979166666667,53.0,73.0
454,78.57395833333334,78.87916666666666,62.0,93.0
455,78.57395833333334,78.89895833333333,71.0,98.0
456,78.57395833333334,78.90104166666667,67.0,97.0
457,79.07395833333334,79.21666666666667,62.0,91.0
458,78.82395833333334,79.34166666666667,59.0,76.0
459,79.32395833333334,79.503125,67.0,101.0
460,79.57395833333334,79.67604166666666,59.0,90.0
461,78.57395833333334,79.70833333333333,52.0,100.0
462,79.57395833333334,79.72083333333333,69.0,95.0
463,79.82395833333334,80.03854166666666,71.0,92.0
464,80.07395833333334,80.36979166666667,64.0,95.0
465,80.07395833333334,80.43229166666667,72.0,94.0
466,80.07395833333334,80.47604166666666,67.0,94.0
467,80.57395833333334,80.71770833333333,64.0,89.0
468,80.57395833333334,81.02395833333333,71.0,100.0
469,80.82395833333334,81.10520833333334,57.0,69.0
470,81.07395833333334,81.215625,64.0,97.0
471,80.07395833333334,81.30104166666666,45.0,93.0
472,81.07395833333334,81.38958333333333,72.0,103.0
473,80.32395833333334,81.39791666666666,52.0,82.0
474,81.32395833333334,81.41145833333333,57.0,79.0
475,81.32395833333334,81.48854166666666,67.0,92.0
476,81.57395833333334,81.85833333333333,60.0,100.0
477,81.57395833333334,81.89583333333333,65.0,99.0
478,81.57395833333334,81.896875,69.0,98.0
479,82.07395833333334,82.203125,60.0,85.0
480,81.82395833333334,82.37395833333333,57.0,77.0
481,82.32395833333334,82.628125,60.0,88.0
482,82.32395833333334,82.64583333333333,69.0,96.0
483,82.32395833333334,82.65416666666667,65.0,95.0
484,81.57395833333334,82.69375,50.0,96.0
485,82.57395833333334,82.70104166666667,57.0,87.0
486,82.82395833333334,82.93541666666667,60.0,84.0
487,83.07395833333334,83.365625,60.0,87.0
488,83.07395833333334,83.36875,69.0,93.0
489,83.07395833333334,83.38958333333333,65.0,89.0
490,83.07395833333334,83.54583333333333,41.0,101.0
491,83.32395833333334,83.58229166666666,53.0,69.0
492,83.57395833333334,83.69583333333333,60.0,93.0
493,83.82395833333334,83.86041666666667,54.0,70.0
494,83.82395833333334,84.14270833333333,60.0,100.0
495,83.82395833333334,84.165625,69.0,100.0
496,83.82395833333334,84.16979166666667,66.0,90.0
497,83.82395833333334,84.32083333333333,42.0,97.0
498,84.07395833333334,84.353125,54.0,83.0
499,84.32395833333334,84.39375,60.0,71.0
500,84.32395833333334,84.478125,67.0,82.0
501,84.57395833333334,84.95625,69.0,100.0
502,84.57395833333334,85.08854166666667,60.0,99.0
503,84.57395833333334,85.09479166666667,65.0,99.0
504,85.07395833333334,85.371875,55.0,89.0
505,84.82395833333334,85.50208333333333,50.0,85.0
506,85.32395833333334,85.64375,60.0,98.0
507,85.32395833333334,85.64791666666666,69.0,97.0
508,85.32395833333334,85.68333333333334,65.0,90.0
509,85.82395833333334,85.88333333333333,65.0,30.0
510,84.57395833333334,85.90208333333334,43.0,105.0
511,85.57395833333334,85.91458333333333,55.0,90.0
512,85.82395833333334,85.94583333333333,50.0,89.0
513,85.82395833333334,85.95833333333333,60.0,89.0
514,86.07395833333334,86.26770833333333,71.0,94.0
515,86.07395833333334,86.33854166666667,62.0,97.0
516,86.07395833333334,86.39583333333333,67.0,89.0
517,86.32395833333334,86.515625,55.0,86.0
518,86.57395833333334,86.66875,65.0,100.0
519,86.57395833333334,86.74375,72.0,99.0
520,86.82395833333334,86.87291666666667,67.0,39.0
521,86.07395833333334,87.09791666666666,43.0,105.0
522,86.82395833333334,87.10416666666667,55.0,93.0
523,87.07395833333334,87.1875,67.0,78.0
524,87.07395833333334,87.19479166666666,74.0,95.0
525,87.32395833333334,87.409375,67.0,49.0
526,87.32395833333334,87.43854166666667,45.0,91.0
527,87.32395833333334,87.45104166666667,77.0,94.0
528,87.57395833333334,88.04583333333333,48.0,103.0
529,87.82395833333334,88.10625,55.0,84.0
530,87.57395833333334,88.13020833333333,72.0,93.0
531,87.57395833333334,88.13229166666666,67.0,99.0
532,87.57395833333334,88.23958333333333,76.0,101.0
533,88.07395833333334,88.378125,60.0,86.0
534,88.57395833333334,88.64791666666666,76.0,89.0
535,88.32395833333334,88.65520833333333,62.0,85.0
536,88.57395833333334,88.675,64.0,97.0
537,88.57395833333334,88.70625,84.0,97.0
538,88.82395833333334,88.94583333333333,74.0,91.0
539,88.82395833333334,89.053125,83.0,91.0
540,89.07395833333334,89.22708333333333,76.0,103.0
541,89.07395833333334,89.22708333333333,84.0,104.0
542,89.57395833333334,89.846875,67.0,85.0
543,89.57395833333334,89.87604166666667,79.0,107.0
544,89.32395833333334,89.925,55.0,85.0
545,89.82395833333334,90.146875,60.0,91.0
546,90.07395833333334,90.20208333333333,67.0,97.0
547,90.07395833333334,90.20416666666667,74.0,96.0
548,90.32395833333334,90.36145833333333,55.0,81.0
549,89.07395833333334,90.37083333333334,48.0,101.0
550,90.32395833333334,90.49479166666667,76.0,95.0
551,90.57395833333334,90.63541666666667,76.0,37.0
552,90.57395833333334,90.84270833333333,74.0,96.0
553,90.57395833333334,90.85416666666667,67.0,102.0
554,90.57395833333334,90.87916666666666,71.0,95.0
555,91.07395833333334,91.359375,55.0,85.0
556,91.32395833333334,91.42083333333333,59.0,102.0
557,91.32395833333334,91.45208333333333,62.0,105.0
558,90.82395833333334,91.565625,50.0,79.0
559,91.57395833333334,91.84895833333333,55.0,89.0
560,90.57395833333334,91.87291666666667,43.0,103.0
561,91.94895833333334,92.03020833333333,62.0,26.0
562,91.82395833333334,92.04166666666667,50.0,74.0
563,91.94895833333334,92.2,67.0,53.0
564,92.07395833333334,92.22604166666666,69.0,81.0
565,92.07395833333334,92.34479166666667,62.0,100.0
566,92.07395833333334,92.42291666666667,71.0,110.0
567,92.32395833333334,92.5875,55.0,90.0
568,92.57395833333334,92.68125,62.0,99.0
569,92.57395833333334,92.68333333333334,72.0,107.0
570,92.82395833333334,92.86041666666667,74.0,37.0
571,92.82395833333334,92.871875,67.0,26.0
572,92.07395833333334,92.884375,43.0,101.0
573,92.82395833333334,92.88854166666667,62.0,30.0
574,92.82395833333334,92.928125,55.0,93.0
575,93.07395833333334,93.10729166666667,72.0,51.0
576,93.07395833333334,93.121875,71.0,42.0
577,93.07395833333334,93.134375,67.0,48.0
578,93.07395833333334,93.1875,62.0,86.0
579,93.32395833333334,93.359375,62.0,67.0
580,93.32395833333334,93.38645833333334,68.0,76.0
581,93.32395833333334,93.415625,44.0,103.0
582,93.32395833333334,93.43333333333334,56.0,105.0
583,93.32395833333334,93.43958333333333,71.0,67.0
584,93.57395833333334,93.98541666666667,45.0,102.0
585,93.82395833333334,94.09583333333333,52.0,90.0
586,94.07395833333334,94.39791666666666,57.0,92.0
587,93.57395833333334,94.47083333333333,64.0,101.0
588,93.57395833333334,94.53333333333333,72.0,108.0
589,93.57395833333334,94.59270833333333,67.0,100.0
590,94.32395833333334,94.67083333333333,59.0,98.0
591,94.57395833333334,94.69375,60.0,100.0
592,94.82395833333334,95.00416666666666,64.0,90.0
593,94.94895833333334,95.00833333333333,72.0,26.0
594,94.94895833333334,95.10416666666667,67.0,84.0
595,95.07395833333334,95.3125,64.0,100.0
596,95.07395833333334,95.428125,72.0,99.0
597,95.57395833333334,95.69895833333334,62.0,92.0
598,95.82395833333334,95.93020833333333,57.0,81.0
599,95.57395833333334,95.98229166666667,71.0,99.0
600,95.82395833333334,96.03541666666666,64.0,104.0
601,96.07395833333334,96.128125,62.0,80.0
602,95.07395833333334,96.18645833333333,45.0,105.0
603,96.07395833333334,96.19270833333333,57.0,83.0
604,95.82395833333334,96.2,72.0,105.0
605,95.32395833333334,96.2125,52.0,81.0
606,96.07395833333334,96.23020833333334,71.0,100.0
607,96.32395833333334,96.49583333333334,69.0,89.0
608,96.57395833333334,96.81979166666666,40.0,94.0
609,96.82395833333334,97.125,52.0,83.0
610,96.57395833333334,97.36770833333333,62.0,101.0
611,96.57395833333334,97.39270833333333,67.0,100.0
612,96.57395833333334,97.39375,71.0,97.0
613,97.32395833333334,97.47604166666666,59.0,100.0
614,97.07395833333334,97.49166666666666,55.0,90.0
615,97.57395833333334,97.70625,62.0,92.0
616,97.82395833333334,97.978125,67.0,92.0
617,98.07395833333334,98.39791666666666,62.0,98.0
618,98.07395833333334,98.40208333333334,67.0,64.0
619,98.32395833333334,98.40208333333334,67.0,14.0
620,98.07395833333334,98.42916666666666,71.0,106.0
621,98.32395833333334,98.61354166666666,52.0,85.0
622,98.57395833333334,98.80520833333333,74.0,110.0
623,98.57395833333334,98.88645833333334,67.0,53.0
624,98.57395833333334,98.92916666666666,62.0,106.0
625,98.82395833333334,99.01041666666667,52.0,95.0
626,98.07395833333334,99.02291666666666,40.0,97.0
627,99.07395833333334,99.20104166666667,62.0,93.0
628,99.07395833333334,99.22291666666666,71.0,98.0
629,99.32395833333334,99.440625,69.0,81.0
630,99.32395833333334,99.44375,42.0,80.0
631,99.57395833333334,99.90520833333333,60.0,99.0
632,99.57395833333334,99.92916666666666,69.0,86.0
633,99.57395833333334,99.93333333333334,65.0,97.0
634,100.07395833333334,100.18854166666667,60.0,97.0
635,99.82395833333334,100.37395833333333,53.0,80.0
636,100.32395833333334,100.64375,60.0,93.0
637,100.32395833333334,100.678125,65.0,100.0
638,100.32395833333334,100.68125,69.0,105.0
639,100.57395833333334,100.696875,53.0,98.0
640,99.57395833333334,100.70833333333333,41.0,102.0
641,100.82395833333334,100.94791666666667,60.0,88.0
642,101.07395833333334,101.38020833333333,62.0,106.0
643,101.07395833333334,101.38229166666666,71.0,104.0
644,101.07395833333334,101.43854166666667,67.0,97.0
645,101.57395833333334,101.71875,62.0,91.0
646,101.32395833333334,101.86041666666667,55.0,89.0
647,101.82395833333334,102.04895833333333,69.0,107.0
648,101.82395833333334,102.16041666666666,62.0,91.0
649,102.07395833333334,102.18541666666667,55.0,89.0
650,101.07395833333334,102.20104166666667,43.0,103.0
651,102.07395833333334,102.271875,67.0,96.0
652,102.32395833333334,102.49374999999999,69.0,96.0
653,102.57395833333334,102.85520833333334,40.0,99.0
654,102.82395833333334,103.1125,52.0,84.0
655,102.57395833333334,103.37916666666666,62.0,93.0
656,102.57395833333334,103.41458333333333,67.0,107.0
657,103.32395833333334,103.48229166666667,59.0,101.0
658,103.07395833333334,103.51458333333333,55.0,97.0
659,103.57395833333334,103.69479166666666,62.0,91.0
660,103.82395833333334,103.95208333333333,62.0,80.0
661,103.82395833333334,103.975,44.0,93.0
662,103.82395833333334,104.01770833333333,68.0,97.0
663,104.07395833333334,104.59270833333333,64.0,98.0
664,104.07395833333334,104.653125,69.0,107.0
665,104.57395833333334,104.909375,57.0,91.0
666,104.82395833333334,104.96249999999999,64.0,102.0
667,104.82395833333334,105.046875,72.0,109.0
668,105.07395833333334,105.13020833333333,57.0,41.0
669,104.07395833333334,105.14270833333333,45.0,105.0
670,104.32395833333334,105.18020833333333,52.0,92.0
671,105.07395833333334,105.18645833333333,64.0,73.0
672,105.07395833333334,105.203125,71.0,95.0
673,105.32395833333334,105.36041666666667,55.0,86.0
674,105.32395833333334,105.425,64.0,78.0
675,105.32395833333334,105.46145833333333,43.0,95.0
676,105.32395833333334,105.46145833333333,72.0,95.0
677,105.57395833333334,105.6375,72.0,36.0
678,105.57395833333334,105.91875,60.0,102.0
679,105.57395833333334,105.93020833333333,69.0,101.0
680,105.57395833333334,105.97604166666666,65.0,98.0
681,105.57395833333334,106.15833333333333,53.0,105.0
682,106.07395833333334,106.3625,65.0,34.0
683,106.07395833333334,106.39479166666666,69.0,79.0
684,106.07395833333334,106.41770833333334,60.0,94.0
685,106.32395833333334,106.621875,53.0,101.0
686,106.57395833333334,106.73958333333333,65.0,94.0
687,106.57395833333334,106.75520833333333,60.0,90.0
688,106.82395833333334,106.95208333333333,65.0,65.0
689,105.57395833333334,106.95729166666666,41.0,102.0
690,106.57395833333334,106.96145833333333,69.0,94.0
691,106.82395833333334,106.96354166666667,53.0,87.0
692,107.07395833333334,107.35833333333333,62.0,106.0
693,107.07395833333334,107.36145833333333,71.0,105.0
694,107.07395833333334,107.41458333333333,67.0,98.0
695,107.07395833333334,107.61041666666667,55.0,99.0
696,107.57395833333334,107.76666666666667,60.0,89.0
697,107.82395833333334,107.89270833333333,72.0,27.0
698,107.57395833333334,107.93020833333333,65.0,79.0
699,107.57395833333334,107.94583333333333,69.0,94.0
700,107.82395833333334,108.08020833333333,55.0,92.0
701,108.07395833333334,108.28125,65.0,100.0
702,107.07395833333334,108.38125,43.0,105.0
703,108.07395833333334,108.41875,72.0,103.0
704,108.32395833333334,108.45833333333333,55.0,91.0
705,108.57395833333334,109.18958333333333,64.0,95.0
706,108.57395833333334,109.21145833333333,67.0,92.0
707,108.57395833333334,109.21145833333333,72.0,90.0
708,109.32395833333334,109.60833333333333,60.0,97.0
709,109.07395833333334,109.7875,55.0,79.0
710,108.57395833333334,109.83749999999999,48.0,95.0
711,109.57395833333334,109.89583333333333,69.0,103.0
712,109.57395833333334,109.89895833333333,65.0,104.0
713,109.82395833333334,109.96770833333333,60.0,82.0
714,109.94895833333334,109.99479166666667,55.0,19.0
715,109.82395833333334,110.00416666666666,72.0,90.0
716,110.07395833333334,110.609375,72.0,101.0
717,110.07395833333334,110.69479166666666,64.0,106.0
718,110.07395833333334,110.73541666666667,67.0,103.0
719,110.82395833333334,110.8625,72.0,55.0
720,110.82395833333334,110.9875,64.0,102.0
721,110.82395833333334,111.00520833333333,67.0,92.0
722,110.82395833333334,111.11666666666666,60.0,97.0
723,111.07395833333334,111.19583333333333,65.0,92.0
724,111.07395833333334,111.23541666666667,69.0,88.0
725,110.07395833333334,111.32083333333333,48.0,102.0
726,111.32395833333334,111.44270833333333,65.0,94.0
727,111.32395833333334,111.45625,72.0,99.0
728,111.57395833333334,112.01145833333334,62.0,77.0
729,111.57395833333334,112.07083333333333,67.0,75.0
730,112.07395833333334,112.37916666666666,60.0,62.0
731,112.32395833333334,112.621875,62.0,80.0
732,111.82395833333334,112.66979166666667,55.0,70.0
733,112.32395833333334,112.72395833333333,67.0,89.0
734,112.57395833333334,112.84375,60.0,73.0
735,111.57395833333334,112.86041666666667,48.0,90.0
736,112.82395833333334,113.0625,55.0,72.0
737,113.07395833333334,113.35312499999999,62.0,78.0
738,113.07395833333334,113.36354166666666,67.0,86.0
739,113.32395833333334,113.90208333333334,55.0,67.0
740,113.57395833333334,113.95520833333333,60.0,62.0
741,113.82395833333334,114.11145833333333,62.0,82.0
742,113.07395833333334,114.15416666666667,48.0,79.0
743,113.82395833333334,114.22083333333333,71.0,91.0
744,114.07395833333334,114.31875,55.0,75.0
745,114.32395833333334,114.45625,47.0,63.0
746,114.82395833333334,115.06875,52.0,68.0
747,114.57395833333334,115.07395833333334,45.0,81.0
748,115.07395833333334,115.371875,57.0,74.0
749,114.57395833333334,115.49166666666666,64.0,76.0
750,114.57395833333334,115.575,67.0,85.0
751,114.57395833333334,115.59166666666667,72.0,81.0
752,115.32395833333334,115.66770833333334,59.0,72.0
753,115.57395833333334,115.68645833333333,60.0,81.0
754,115.82395833333334,115.89999999999999,64.0,60.0
755,116.07395833333334,116.20729166666666,64.0,68.0
756,116.07395833333334,116.35520833333334,72.0,90.0
757,116.57395833333334,116.615625,62.0,85.0
758,116.57395833333334,116.67604166666666,71.0,99.0
759,116.32395833333334,116.96770833333333,52.0,65.0
760,116.82395833333334,117.03541666666666,57.0,63.0
761,117.07395833333334,117.13541666666667,59.0,79.0
762,117.07395833333334,117.2875,67.0,91.0
763,117.32395833333334,117.36458333333333,52.0,49.0
764,116.07395833333334,117.37604166666667,45.0,88.0
765,117.57395833333334,117.96770833333333,60.0,77.0
766,117.57395833333334,118.07604166666667,65.0,84.0
767,117.57395833333334,118.08125,57.0,81.0
768,118.32395833333334,118.45520833333333,55.0,86.0
769,118.32395833333334,118.51458333333333,60.0,82.0
770,118.07395833333334,118.56145833333333,53.0,69.0
771,117.57395833333334,118.56979166666666,72.0,101.0
772,117.82395833333334,118.640625,48.0,65.0
773,118.57395833333334,118.74583333333334,62.0,59.0
774,117.57395833333334,118.83854166666667,41.0,77.0
775,118.82395833333334,119.075,48.0,46.0
776,118.82395833333334,119.12708333333333,65.0,65.0
777,119.07395833333334,119.54791666666667,64.0,88.0
778,119.07395833333334,119.56041666666667,55.0,79.0
779,119.07395833333334,119.59375,60.0,74.0
780,119.32395833333334,119.97395833333333,48.0,76.0
781,119.82395833333334,120.00208333333333,55.0,89.0
782,119.57395833333334,120.19895833333334,52.0,77.0
783,120.07395833333334,120.225,60.0,71.0
784,119.07395833333334,120.38958333333333,40.0,77.0
785,120.32395833333334,120.53854166666666,64.0,74.0
786,120.57395833333334,120.85312499999999,65.0,87.0
787,120.57395833333334,120.95416666666667,57.0,86.0
788,120.57395833333334,121.003125,60.0,75.0
789,121.07395833333334,121.340625,50.0,71.0
790,121.32395833333334,121.37395833333333,60.0,76.0
791,121.32395833333334,121.40520833333333,57.0,81.0
792,121.32395833333334,121.42708333333333,67.0,95.0
793,120.57395833333334,121.671875,38.0,81.0
794,121.57395833333334,121.70625,65.0,93.0
795,120.82395833333334,121.71249999999999,45.0,73.0
796,121.82395833333334,121.99270833333333,64.0,81.0
797,122.07395833333334,122.99166666666666,55.0,82.0
798,122.07395833333334,123.06979166666666,74.0,93.0
799,122.07395833333334,123.07291666666667,43.0,72.0
800,122.07395833333334,123.09166666666667,59.0,85.0
801,122.07395833333334,123.10729166666667,50.0,84.0
802,122.07395833333334,123.11354166666666,62.0,81.0
803,123.57395833333334,123.93854166666667,67.0,73.0
804,123.82395833333334,123.93958333333333,55.0,53.0
805,124.07395833333334,124.26041666666667,60.0,61.0
806,124.32395833333334,124.65520833333333,67.0,79.0
807,124.57395833333334,124.721875,55.0,57.0
808,124.82395833333334,125.05,60.0,66.0
809,123.57395833333334,125.12708333333333,48.0,59.0
810,125.07395833333334,125.42916666666666,62.0,58.0
811,125.32395833333334,125.55104166666666,55.0,49.0
812,125.57395833333334,125.95729166666666,59.0,52.0
813,125.82395833333334,126.14479166666666,67.0,63.0
814,126.07395833333334,126.284375,55.0,57.0
815,126.32395833333334,126.61145833333333,62.0,61.0
816,125.07395833333334,126.64270833333333,47.0,61.0
817,126.57395833333334,126.903125,60.0,74.0
818,126.82395833333334,127.02916666666667,55.0,65.0
819,127.07395833333334,127.44479166666666,60.0,65.0
820,127.32395833333334,127.640625,67.0,74.0
821,126.57395833333334,127.6875,45.0,70.0
822,127.57395833333334,127.76041666666667,55.0,56.0
823,127.82395833333334,128.05833333333334,60.0,51.0
824,127.94895833333334,128.43229166666666,62.0,25.0
825,128.57395833333334,128.89791666666667,55.0,79.0
826,128.32395833333334,128.90104166666666,52.0,62.0
827,128.82395833333334,129.09270833333332,60.0,78.0
828,128.07395833333334,129.23854166666666,43.0,48.0
829,129.07395833333334,129.37916666666666,64.0,77.0
830,129.32395833333334,129.39479166666666,65.0,66.0
831,129.57395833333334,129.61666666666667,67.0,63.0
832,129.57395833333334,129.88958333333332,65.0,72.0
833,129.82395833333334,130.203125,57.0,71.0
834,130.07395833333334,130.38645833333334,60.0,64.0
835,130.32395833333334,130.60625,65.0,89.0
836,130.57395833333334,130.86458333333334,57.0,53.0
837,129.57395833333334,130.928125,41.0,58.0
838,129.82395833333334,131.02604166666666,48.0,39.0
839,130.82395833333334,131.13229166666667,60.0,66.0
840,131.32395833333334,131.55833333333334,55.0,64.0
841,131.07395833333334,131.68645833333332,67.0,74.0
842,131.57395833333334,131.84166666666667,60.0,58.0
843,131.82395833333334,132.12083333333334,64.0,84.0
844,131.07395833333334,132.23541666666665,40.0,60.0
845,132.07395833333334,132.23958333333334,55.0,60.0
846,132.32395833333334,132.52916666666667,39.0,54.0
847,132.32395833333334,132.540625,62.0,58.0
848,132.57395833333334,133.0625,38.0,62.0
849,132.82395833333334,133.10208333333333,45.0,50.0
850,133.07395833333334,133.34791666666666,48.0,74.0
851,132.57395833333334,133.665625,65.0,87.0
852,133.57395833333334,133.69375,53.0,87.0
853,133.32395833333334,133.70833333333334,50.0,71.0
854,133.82395833333334,134.03125,57.0,71.0
855,134.07395833333334,134.32083333333333,62.0,76.0
856,134.07395833333334,134.47604166666667,43.0,74.0
857,134.32395833333334,134.55208333333334,60.0,71.0
858,134.32395833333334,134.57395833333334,50.0,66.0
859,134.57395833333334,134.78541666666666,59.0,76.0
860,134.57395833333334,134.8625,55.0,71.0
861,134.82395833333334,135.0875,60.0,65.0
862,134.82395833333334,135.140625,57.0,71.0
863,135.07395833333334,135.15833333333333,59.0,78.0
864,135.07395833333334,135.30729166666666,62.0,75.0
865,135.32395833333334,135.58958333333334,64.0,72.0
866,135.82395833333334,136.08333333333334,55.0,44.0
867,135.57395833333334,136.11354166666666,67.0,82.0
868,136.07395833333334,136.51354166666667,60.0,71.0
869,136.32395833333334,136.709375,67.0,85.0
870,136.57395833333334,136.86145833333333,55.0,62.0
871,136.82395833333334,137.09166666666667,62.0,61.0
872,135.57395833333334,137.10729166666667,48.0,74.0
873,137.07395833333334,137.390625,64.0,66.0
874,137.32395833333334,137.6375,55.0,68.0
875,137.57395833333334,137.90208333333334,59.0,69.0
876,137.82395833333334,138.16666666666666,67.0,77.0
877,138.07395833333334,138.26875,55.0,68.0
878,138.32395833333334,138.596875,62.0,67.0
879,137.07395833333334,138.603125,47.0,77.0
880,138.57395833333334,138.83333333333334,60.0,79.0
881,138.82395833333334,139.0125,55.0,66.0
882,139.07395833333334,139.421875,60.0,75.0
883,139.32395833333334,139.68333333333334,67.0,94.0
884,139.57395833333334,139.73541666666665,55.0,60.0
885,139.82395833333334,140.03333333333333,60.0,72.0
886,138.57395833333334,140.04166666666666,45.0,76.0
887,140.07395833333334,140.325,62.0,65.0
888,140.32395833333334,140.53125,55.0,72.0
889,140.57395833333334,140.89166666666665,59.0,64.0
890,140.82395833333334,141.15416666666667,67.0,87.0
891,141.07395833333334,141.24270833333333,55.0,65.0
892,140.07395833333334,141.36875,43.0,57.0
893,141.32395833333334,141.54166666666666,42.0,61.0
894,141.32395833333334,141.60729166666667,60.0,73.0
895,141.69895833333334,141.73854166666666,64.0,21.0
896,141.57395833333334,141.88229166666667,65.0,91.0
897,141.82395833333334,142.153125,57.0,52.0
898,142.07395833333334,142.44479166666667,60.0,74.0
899,142.32395833333334,142.57083333333333,67.0,89.0
900,142.57395833333334,142.78020833333332,57.0,63.0
901,141.57395833333334,143.059375,41.0,76.0
902,142.82395833333334,143.065625,60.0,72.0
903,143.07395833333334,143.33020833333333,65.0,88.0
904,143.32395833333334,143.484375,57.0,64.0
905,143.57395833333334,143.90833333333333,60.0,70.0
906,143.82395833333334,144.06666666666666,67.0,85.0
907,144.07395833333334,144.27291666666667,57.0,63.0
908,144.32395833333334,144.55625,60.0,69.0
909,143.07395833333334,144.56979166666667,43.0,67.0
910,144.57395833333334,144.84166666666667,62.0,71.0
911,144.82395833333334,145.13333333333333,55.0,65.0
912,145.07395833333334,145.40416666666667,60.0,73.0
913,145.32395833333334,145.62708333333333,65.0,84.0
914,145.57395833333334,145.796875,64.0,70.0
915,144.57395833333334,145.92916666666667,48.0,85.0
916,145.82395833333334,146.04583333333332,62.0,63.0
917,146.07395833333334,146.59479166666665,55.0,75.0
918,146.07395833333334,146.71875,60.0,69.0
919,146.07395833333334,146.74166666666667,64.0,79.0
920,146.07395833333334,146.959375,48.0,69.0
921,146.82395833333334,147.09270833333332,55.0,82.0
922,146.82395833333334,147.2,62.0,81.0
923,147.07395833333334,147.49479166666666,48.0,89.0
924,147.32395833333334,147.56770833333334,47.0,73.0
925,147.57395833333334,147.77395833333333,55.0,90.0
926,147.57395833333334,147.94583333333333,60.0,91.0
927,148.07395833333334,148.371875,57.0,74.0
928,148.32395833333334,148.55208333333334,59.0,82.0
929,147.82395833333334,148.65208333333334,52.0,53.0
930,148.32395833333334,148.67708333333334,60.0,80.0
931,148.32395833333334,148.67916666666667,64.0,74.0
932,148.57395833333334,148.815625,57.0,62.0
933,147.57395833333334,148.84479166666665,45.0,87.0
934,148.82395833333334,149.10208333333333,52.0,74.0
935,149.07395833333334,149.43020833333333,59.0,79.0
936,149.07395833333334,149.4875,64.0,80.0
937,149.32395833333334,149.91145833333334,52.0,67.0
938,149.82395833333334,150.01145833333334,64.0,80.0
939,149.57395833333334,150.12916666666666,55.0,75.0
940,150.19895833333334,150.26041666666666,52.0,45.0
941,150.07395833333334,150.28125,71.0,68.0
942,149.07395833333334,150.34166666666667,43.0,76.0
943,150.32395833333334,150.584375,72.0,89.0
944,150.57395833333334,150.93541666666667,65.0,84.0
945,150.57395833333334,150.94270833333334,69.0,87.0
946,150.57395833333334,150.971875,60.0,82.0
947,151.07395833333334,151.43020833333333,53.0,72.0
948,150.82395833333334,151.525,48.0,76.0
949,150.57395833333334,151.53541666666666,41.0,72.0
950,151.32395833333334,151.59270833333332,65.0,88.0
951,151.32395833333334,151.59583333333333,57.0,84.0
952,151.32395833333334,151.61875,60.0,75.0
953,151.57395833333334,151.76145833333334,62.0,87.0
954,151.57395833333334,151.775,43.0,91.0
955,152.07395833333334,152.33854166666666,36.0,84.0
956,152.32395833333334,152.65,48.0,66.0
957,151.82395833333334,152.69479166666667,65.0,86.0
958,152.07395833333334,152.725,64.0,84.0
959,152.07395833333334,152.83333333333334,60.0,80.0
960,152.07395833333334,152.88854166666667,55.0,83.0
961,152.57395833333334,152.90833333333333,50.0,83.0
962,153.07395833333334,153.128125,62.0,66.0
963,153.07395833333334,153.21770833333332,55.0,88.0
964,152.82395833333334,153.38541666666666,52.0,101.0
965,153.32395833333334,153.38541666666666,55.0,36.0
966,153.32395833333334,153.503125,62.0,81.0
967,153.32395833333334,153.51145833333334,47.0,69.0
968,153.57395833333334,153.80208333333334,56.0,62.0
969,153.57395833333334,153.88020833333334,64.0,88.0
970,153.57395833333334,153.91041666666666,59.0,70.0
971,154.07395833333334,154.275,56.0,77.0
972,153.82395833333334,154.34791666666666,52.0,73.0
973,153.57395833333334,154.603125,40.0,80.0
974,154.32395833333334,154.61458333333334,65.0,90.0
975,154.57395833333334,154.63958333333332,52.0,70.0
976,154.57395833333334,154.73854166666666,64.0,84.0
977,154.82395833333334,155.04166666666666,62.0,76.0
978,155.07395833333334,155.290625,55.0,92.0
979,155.07395833333334,155.36458333333334,60.0,92.0
980,155.07395833333334,155.509375,45.0,93.0
981,155.32395833333334,155.68958333333333,52.0,66.0
982,155.57395833333334,155.70625,55.0,78.0
983,155.82395833333334,156.103125,55.0,70.0
984,155.82395833333334,156.14791666666667,59.0,87.0
985,155.82395833333334,156.16354166666667,64.0,90.0
986,156.07395833333334,156.20625,52.0,85.0
987,155.82395833333334,156.22291666666666,43.0,87.0
988,156.32395833333334,156.421875,55.0,86.0
989,156.57395833333334,156.96145833333333,57.0,94.0
990,156.57395833333334,156.96145833333333,65.0,97.0
991,156.57395833333334,157.10833333333332,60.0,91.0
992,157.32395833333334,157.465625,57.0,92.0
993,157.07395833333334,157.58645833333333,53.0,72.0
994,157.57395833333334,157.628125,57.0,38.0
995,156.82395833333334,157.696875,48.0,75.0
996,157.57395833333334,157.72083333333333,60.0,90.0
997,157.82395833333334,157.878125,60.0,26.0
998,157.82395833333334,157.89895833333333,48.0,58.0
999,156.57395833333334,157.903125,41.0,88.0
1000,157.82395833333334,157.92395833333333,65.0,86.0
1001,157.82395833333334,157.92916666666667,53.0,67.0
1002,158.07395833333334,158.309375,66.0,56.0
1003,158.07395833333334,158.41666666666666,57.0,97.0
1004,158.07395833333334,158.48229166666667,62.0,94.0
1005,158.32395833333334,159.00208333333333,54.0,80.0
1006,158.57395833333334,159.109375,57.0,84.0
1007,158.82395833333334,159.32604166666667,62.0,103.0
1008,159.07395833333334,159.34583333333333,66.0,94.0
1009,158.07395833333334,159.36666666666667,42.0,81.0
1010,159.32395833333334,159.43541666666667,54.0,74.0
1011,159.57395833333334,159.89791666666667,65.0,104.0
1012,159.57395833333334,159.925,57.0,99.0
1013,159.57395833333334,159.94479166666667,60.0,99.0
1014,160.07395833333334,160.27291666666667,57.0,93.0
1015,160.32395833333334,160.59895833333334,60.0,107.0
1016,159.82395833333334,160.60625,55.0,85.0
1017,160.57395833333334,160.85104166666667,65.0,105.0
1018,160.82395833333334,160.85833333333332,67.0,72.0
1019,160.82395833333334,160.86458333333334,69.0,56.0
1020,159.57395833333334,160.909375,43.0,102.0
1021,160.82395833333334,160.93645833333332,55.0,88.0
1022,161.07395833333334,161.42708333333334,62.0,106.0
1023,161.07395833333334,161.42708333333334,71.0,102.0
1024,161.07395833333334,161.43645833333332,67.0,98.0
1025,161.07395833333334,161.596875,55.0,106.0
1026,161.07395833333334,161.70104166666667,43.0,110.0
1027,161.94895833333334,162.02604166666666,69.0,28.0
1028,161.82395833333334,162.14791666666667,60.0,101.0
1029,161.82395833333334,162.17291666666665,72.0,100.0
1030,161.82395833333334,162.20520833333333,65.0,99.0
1031,162.07395833333334,162.21041666666667,43.0,79.0
1032,162.07395833333334,162.30520833333333,55.0,103.0
1033,162.32395833333334,162.415625,60.0,65.0
1034,162.57395833333334,163.090625,64.0,91.0
1035,162.57395833333334,163.125,67.0,94.0
1036,162.57395833333334,163.17604166666666,72.0,97.0
1037,163.07395833333334,163.378125,60.0,75.0
1038,163.32395833333334,163.63854166666667,62.0,100.0
1039,162.82395833333334,163.66041666666666,55.0,71.0
1040,162.57395833333334,163.8125,48.0,89.0
1041,163.32395833333334,163.85208333333333,67.0,100.0
1042,163.57395833333334,163.85833333333332,60.0,85.0
1043,163.82395833333334,164.05104166666666,55.0,75.0
1044,164.07395833333334,164.246875,64.0,89.0
1045,164.07395833333334,164.75104166666665,72.0,96.0
1046,164.57395833333334,164.8875,60.0,90.0
1047,164.32395833333334,164.91041666666666,55.0,73.0
1048,164.82395833333334,165.13541666666666,62.0,90.0
1049,165.07395833333334,165.22395833333334,55.0,71.0
1050,164.07395833333334,165.23958333333334,48.0,91.0
1051,164.82395833333334,165.26041666666666,71.0,101.0
1052,165.32395833333334,165.57083333333333,69.0,89.0
1053,165.57395833333334,165.96875,67.0,95.0
1054,165.57395833333334,165.9875,71.0,64.0
1055,165.57395833333334,166.01770833333333,62.0,94.0
1056,166.07395833333334,166.390625,55.0,88.0
1057,166.32395833333334,166.509375,59.0,79.0
1058,166.32395833333334,166.58645833333333,62.0,77.0
1059,165.82395833333334,166.675,50.0,75.0
1060,166.57395833333334,166.85833333333332,55.0,83.0
1061,165.57395833333334,166.89895833333333,43.0,89.0
1062,166.82395833333334,166.99166666666667,50.0,71.0
1063,167.07395833333334,167.146875,67.0,86.0
1064,167.07395833333334,167.196875,79.0,87.0
1065,167.57395833333334,167.625,69.0,92.0
1066,167.57395833333334,167.66666666666666,81.0,94.0
1067,167.32395833333334,167.940625,50.0,77.0
1068,168.07395833333334,168.11770833333333,71.0,94.0
1069,168.07395833333334,168.16979166666667,83.0,93.0
1070,167.82395833333334,168.18541666666667,55.0,82.0
1071,167.07395833333334,168.35833333333332,43.0,89.0
1072,168.32395833333334,168.36354166666666,86.0,90.0
1073,168.32395833333334,168.38229166666667,74.0,82.0
1074,168.32395833333334,168.50520833333334,50.0,75.0
1075,168.57395833333334,168.80520833333333,84.0,97.0
1076,168.57395833333334,168.9,72.0,97.0
1077,169.32395833333334,169.44583333333333,64.0,86.0
1078,168.82395833333334,169.45,52.0,86.0
1079,169.32395833333334,169.54270833333334,72.0,92.0
1080,169.07395833333334,169.57708333333332,57.0,81.0
1081,169.57395833333334,169.62916666666666,64.0,36.0
1082,169.57395833333334,169.75104166666665,71.0,85.0
1083,168.57395833333334,169.853125,45.0,93.0
1084,169.82395833333334,169.95416666666665,69.0,76.0
1085,169.82395833333334,169.97604166666667,52.0,79.0
1086,170.07395833333334,170.40520833333332,72.0,89.0
1087,170.07395833333334,170.47604166666667,64.0,87.0
1088,170.82395833333334,170.96979166666665,60.0,85.0
1089,170.32395833333334,171.09479166666665,52.0,84.0
1090,170.57395833333334,171.14375,57.0,82.0
1091,171.07395833333334,171.24479166666666,64.0,87.0
1092,171.32395833333334,171.42083333333332,52.0,79.0
1093,170.07395833333334,171.42291666666665,45.0,88.0
1094,171.32395833333334,171.51041666666666,67.0,87.0
1095,171.57395833333334,171.86666666666667,64.0,71.0
1096,171.57395833333334,171.915625,60.0,93.0
1097,171.57395833333334,171.91979166666667,69.0,97.0
1098,172.07395833333334,172.38229166666667,52.0,84.0
1099,172.32395833333334,172.65520833333332,55.0,96.0
1100,172.32395833333334,172.671875,62.0,95.0
1101,171.82395833333334,172.67708333333334,47.0,71.0
1102,171.57395833333334,172.86145833333333,40.0,92.0
1103,172.57395833333334,172.86458333333334,52.0,81.0
1104,172.82395833333334,172.93333333333334,55.0,79.0
1105,172.82395833333334,172.98645833333333,47.0,67.0
1106,173.07395833333334,173.37604166666665,55.0,88.0
1107,173.07395833333334,173.38854166666667,67.0,100.0
1108,173.07395833333334,173.39583333333334,59.0,84.0
1109,173.57395833333334,173.68958333333333,55.0,93.0
1110,173.32395833333334,173.825,52.0,83.0
1111,173.82395833333334,174.10833333333332,55.0,73.0
1112,173.82395833333334,174.153125,59.0,92.0
1113,173.82395833333334,174.175,67.0,87.0
1114,174.07395833333334,174.2375,52.0,90.0
1115,173.07395833333334,174.31979166666667,40.0,96.0
1116,174.32395833333334,174.46458333333334,52.0,55.0
1117,174.32395833333334,174.57291666666666,62.0,85.0
1118,174.44895833333334,174.6125,64.0,84.0
1119,174.57395833333334,174.86145833333333,57.0,103.0
1120,174.57395833333334,174.92916666666667,60.0,97.0
1121,174.57395833333334,174.97916666666666,41.0,81.0
1122,174.57395833333334,174.990625,65.0,101.0
1123,174.82395833333334,175.06770833333334,48.0,80.0
1124,175.07395833333334,175.40833333333333,53.0,81.0
1125,175.57395833333334,175.671875,57.0,101.0
1126,175.32395833333334,175.67291666666665,55.0,79.0
1127,175.82395833333334,175.95520833333333,60.0,83.0
1128,176.07395833333334,176.18645833333332,60.0,77.0
1129,176.07395833333334,176.396875,69.0,97.0
1130,176.07395833333334,176.40520833333332,65.0,77.0
1131,176.32395833333334,176.40520833333332,65.0,9.0
1132,176.57395833333334,176.65833333333333,67.0,91.0
1133,176.57395833333334,176.66354166666667,62.0,98.0
1134,176.57395833333334,176.71979166666665,71.0,96.0
1135,176.82395833333334,177.03958333333333,53.0,68.0
1136,176.32395833333334,177.203125,48.0,82.0
1137,177.07395833333334,177.22604166666667,62.0,85.0
1138,177.07395833333334,177.23541666666665,67.0,89.0
1139,176.07395833333334,177.25208333333333,41.0,91.0
1140,177.07395833333334,177.34583333333333,72.0,92.0
1141,177.32395833333334,177.36979166666666,53.0,73.0
1142,177.57395833333334,177.87916666666666,62.0,93.0
1143,177.57395833333334,177.89895833333333,71.0,98.0
1144,177.57395833333334,177.90104166666666,67.0,97.0
1145,178.07395833333334,178.21666666666667,62.0,91.0
1146,177.82395833333334,178.34166666666667,59.0,76.0
1147,178.32395833333334,178.503125,67.0,101.0
1148,178.57395833333334,178.67604166666666,59.0,90.0
1149,177.57395833333334,178.70833333333334,52.0,100.0
1150,178.57395833333334,178.72083333333333,69.0,95.0
1151,178.82395833333334,179.03854166666667,71.0,92.0
1152,179.07395833333334,179.36979166666666,64.0,95.0
1153,179.07395833333334,179.43229166666666,72.0,94.0
1154,179.07395833333334,179.47604166666667,67.0,94.0
1155,179.57395833333334,179.71770833333332,64.0,89.0
1156,179.57395833333334,180.02395833333333,71.0,100.0
1157,179.82395833333334,180.10520833333334,57.0,69.0
1158,180.07395833333334,180.215625,64.0,97.0
1159,179.07395833333334,180.30104166666666,45.0,93.0
1160,180.07395833333334,180.38958333333332,72.0,103.0
1161,179.32395833333334,180.39791666666667,52.0,82.0
1162,180.32395833333334,180.41145833333334,57.0,79.0
1163,180.32395833333334,180.48854166666666,67.0,92.0
1164,180.57395833333334,180.85833333333332,60.0,100.0
1165,180.57395833333334,180.89583333333334,65.0,99.0
1166,180.57395833333334,180.896875,69.0,98.0
1167,181.07395833333334,181.203125,60.0,85.0
1168,180.82395833333334,181.37395833333332,57.0,77.0
1169,181.32395833333334,181.628125,60.0,88.0
1170,181.32395833333334,181.64583333333334,69.0,96.0
1171,181.32395833333334,181.65416666666667,65.0,95.0
1172,180.57395833333334,181.69375,50.0,96.0
1173,181.57395833333334,181.70104166666667,57.0,87.0
1174,181.82395833333334,181.93541666666667,60.0,84.0
1175,182.07395833333334,182.365625,60.0,87.0
1176,182.07395833333334,182.36875,69.0,93.0
1177,182.07395833333334,182.38958333333332,65.0,89.0
1178,182.07395833333334,182.54583333333332,41.0,101.0
1179,182.32395833333334,182.58229166666666,53.0,69.0
1180,182.57395833333334,182.69583333333333,60.0,93.0
1181,182.82395833333334,182.86041666666665,54.0,70.0
1182,182.82395833333334,183.14270833333333,60.0,100.0
1183,182.82395833333334,183.165625,69.0,100.0
1184,182.82395833333334,183.16979166666667,66.0,90.0
1185,182.82395833333334,183.32083333333333,42.0,97.0
1186,183.07395833333334,183.353125,54.0,83.0
1187,183.32395833333334,183.39375,60.0,71.0
1188,183.32395833333334,183.478125,67.0,82.0
1189,183.57395833333334,183.95625,69.0,100.0
1190,183.57395833333334,184.08854166666666,60.0,99.0
1191,183.57395833333334,184.09479166666665,65.0,99.0
1192,184.07395833333334,184.371875,55.0,89.0
1193,183.82395833333334,184.50208333333333,50.0,85.0
1194,184.32395833333334,184.64375,60.0,98.0
1195,184.32395833333334,184.64791666666667,69.0,97.0
1196,184.32395833333334,184.68333333333334,65.0,90.0
1197,184.82395833333334,184.88333333333333,65.0,30.0
1198,183.57395833333334,184.90208333333334,43.0,105.0
1199,184.57395833333334,184.91458333333333,55.0,90.0
1200,184.82395833333334,184.94583333333333,50.0,89.0
1201,184.82395833333334,184.95833333333334,60.0,89.0
1202,185.07395833333334,185.26770833333333,71.0,94.0
1203,185.07395833333334,185.33854166666666,62.0,97.0
1204,185.07395833333334,185.39583333333334,67.0,89.0
1205,185.32395833333334,185.515625,55.0,86.0
1206,185.57395833333334,185.66875,65.0,100.0
1207,185.57395833333334,185.74375,72.0,99.0
1208,185.82395833333334,185.87291666666667,67.0,39.0
1209,185.07395833333334,186.09791666666666,43.0,105.0
1210,185.82395833333334,186.10416666666666,55.0,93.0
1211,186.07395833333334,186.1875,67.0,78.0
1212,186.07395833333334,186.19479166666667,74.0,95.0
1213,186.32395833333334,186.409375,67.0,49.0
1214,186.32395833333334,186.43854166666665,45.0,91.0
1215,186.32395833333334,186.45104166666667,77.0,94.0
1216,186.57395833333334,187.04583333333332,48.0,103.0
1217,186.82395833333334,187.10625,55.0,84.0
1218,186.57395833333334,187.13020833333334,72.0,93.0
1219,186.57395833333334,187.13229166666667,67.0,99.0
1220,186.57395833333334,187.23958333333334,76.0,101.0
1221,187.07395833333334,187.378125,60.0,86.0
1222,187.57395833333334,187.64791666666667,76.0,89.0
1223,187.32395833333334,187.65520833333332,62.0,85.0
1224,187.57395833333334,187.675,64.0,97.0
1225,187.57395833333334,187.70625,84.0,97.0
1226,187.82395833333334,187.94583333333333,74.0,91.0
1227,187.82395833333334,188.053125,83.0,91.0
1228,188.07395833333334,188.22708333333333,76.0,103.0
1229,188.07395833333334,188.22708333333333,84.0,104.0
1230,188.57395833333334,188.846875,67.0,85.0
1231,188.57395833333334,188.87604166666665,79.0,107.0
1232,188.32395833333334,188.925,55.0,85.0
1233,188.82395833333334,189.146875,60.0,91.0
1234,189.07395833333334,189.20208333333332,67.0,97.0
1235,189.07395833333334,189.20416666666665,74.0,96.0
1236,189.32395833333334,189.36145833333333,55.0,81.0
1237,188.07395833333334,189.37083333333334,48.0,101.0
1238,189.32395833333334,189.49479166666666,76.0,95.0
1239,189.57395833333334,189.63541666666666,76.0,37.0
1240,189.57395833333334,189.84270833333332,74.0,96.0
1241,189.57395833333334,189.85416666666666,67.0,102.0
1242,189.57395833333334,189.87916666666666,71.0,95.0
1243,190.07395833333334,190.359375,55.0,85.0
1244,190.32395833333334,190.42083333333332,59.0,102.0
1245,190.32395833333334,190.45208333333332,62.0,105.0
1246,189.82395833333334,190.565625,50.0,79.0
1247,190.57395833333334,190.84895833333334,55.0,89.0
1248,189.57395833333334,190.87291666666667,43.0,103.0
1249,190.94895833333334,191.03020833333332,62.0,26.0
1250,190.82395833333334,191.04166666666666,50.0,74.0
1251,190.94895833333334,191.2,67.0,53.0
1252,191.07395833333334,191.22604166666667,69.0,81.0
1253,191.07395833333334,191.34479166666665,62.0,100.0
1254,191.07395833333334,191.42291666666665,71.0,110.0
1255,191.32395833333334,191.5875,55.0,90.0
1256,191.57395833333334,191.68125,62.0,99.0
1257,191.57395833333334,191.68333333333334,72.0,107.0
1258,191.82395833333334,191.86041666666665,74.0,37.0
1259,191.82395833333334,191.871875,67.0,26.0
1260,191.07395833333334,191.884375,43.0,101.0
1261,191.82395833333334,191.88854166666667,62.0,30.0
1262,191.82395833333334,191.928125,55.0,93.0
1263,192.07395833333334,192.10729166666667,72.0,51.0
1264,192.07395833333334,192.121875,71.0,42.0
1265,192.07395833333334,192.134375,67.0,48.0
1266,192.07395833333334,192.1875,62.0,86.0
1267,192.32395833333334,192.359375,62.0,67.0
1268,192.32395833333334,192.38645833333334,68.0,76.0
1269,192.32395833333334,192.415625,44.0,103.0
1270,192.32395833333334,192.43333333333334,56.0,105.0
1271,192.32395833333334,192.43958333333333,71.0,67.0
1272,192.57395833333334,192.98541666666665,45.0,102.0
1273,192.82395833333334,193.09583333333333,52.0,90.0
1274,193.07395833333334,193.39791666666667,57.0,92.0
1275,192.57395833333334,193.47083333333333,64.0,101.0
1276,192.57395833333334,193.53333333333333,72.0,108.0
1277,192.57395833333334,193.59270833333332,67.0,100.0
1278,193.32395833333334,193.67083333333332,59.0,98.0
1279,193.57395833333334,193.69375,60.0,100.0
1280,193.82395833333334,194.00416666666666,64.0,90.0
1281,193.94895833333334,194.00833333333333,72.0,26.0
1282,193.94895833333334,194.10416666666666,67.0,84.0
1283,194.07395833333334,194.3125,64.0,100.0
1284,194.07395833333334,194.428125,72.0,99.0
1285,194.57395833333334,194.69895833333334,62.0,92.0
1286,194.82395833333334,194.93020833333333,57.0,81.0
1287,194.57395833333334,194.98229166666667,71.0,99.0
1288,194.82395833333334,195.03541666666666,64.0,104.0
1289,195.07395833333334,195.128125,62.0,80.0
1290,194.07395833333334,195.18645833333332,45.0,105.0
1291,195.07395833333334,195.19270833333334,57.0,83.0
1292,194.82395833333334,195.2,72.0,105.0
1293,194.32395833333334,195.2125,52.0,81.0
1294,195.07395833333334,195.23020833333334,71.0,100.0
1295,195.32395833333334,195.49583333333334,69.0,89.0
1296,195.57395833333334,195.81979166666667,40.0,94.0
1297,195.82395833333334,196.125,52.0,83.0
1298,195.57395833333334,196.36770833333333,62.0,101.0
1299,195.57395833333334,196.39270833333333,67.0,100.0
1300,195.57395833333334,196.39375,71.0,97.0
1301,196.32395833333334,196.47604166666667,59.0,100.0
1302,196.07395833333334,196.49166666666667,55.0,90.0
1303,196.57395833333334,196.70625,62.0,92.0
1304,196.82395833333334,196.978125,67.0,92.0
1305,197.07395833333334,197.39791666666667,62.0,98.0
1306,197.07395833333334,197.40208333333334,67.0,64.0
1307,197.32395833333334,197.40208333333334,67.0,14.0
1308,197.07395833333334,197.42916666666667,71.0,106.0
1309,197.32395833333334,197.61354166666666,52.0,85.0
1310,197.57395833333334,197.80520833333333,74.0,110.0
1311,197.57395833333334,197.88645833333334,67.0,53.0
1312,197.57395833333334,197.92916666666667,62.0,106.0
1313,197.82395833333334,198.01041666666666,52.0,95.0
1314,197.07395833333334,198.02291666666667,40.0,97.0
1315,198.07395833333334,198.20104166666667,62.0,93.0
1316,198.07395833333334,198.22291666666666,71.0,98.0
1317,198.32395833333334,198.440625,69.0,81.0
1318,198.32395833333334,198.44375,42.0,80.0
1319,198.57395833333334,198.90520833333332,60.0,99.0
1320,198.57395833333334,198.92916666666667,69.0,86.0
1321,198.57395833333334,198.93333333333334,65.0,97.0
1322,199.07395833333334,199.18854166666665,60.0,97.0
1323,198.82395833333334,199.37395833333332,53.0,80.0
1324,199.32395833333334,199.64375,60.0,93.0
1325,199.32395833333334,199.678125,65.0,100.0
1326,199.32395833333334,199.68125,69.0,105.0
1327,199.57395833333334,199.696875,53.0,98.0
1328,198.57395833333334,199.70833333333334,41.0,102.0
1329,199.82395833333334,199.94791666666666,60.0,88.0
1330,200.07395833333334,200.38020833333334,62.0,106.0
1331,200.07395833333334,200.38229166666667,71.0,104.0
1332,200.07395833333334,200.43854166666665,67.0,97.0
1333,200.57395833333334,200.71875,62.0,91.0
1334,200.32395833333334,200.86041666666665,55.0,89.0
1335,200.82395833333334,201.04895833333333,69.0,107.0
1336,200.82395833333334,201.16041666666666,62.0,91.0
1337,201.07395833333334,201.18541666666667,55.0,89.0
1338,200.07395833333334,201.20104166666667,43.0,103.0
1339,201.07395833333334,201.271875,67.0,96.0
1340,201.32395833333334,201.49375,69.0,96.0
1341,201.57395833333334,201.85520833333334,40.0,99.0
1342,201.82395833333334,202.1125,52.0,84.0
1343,201.57395833333334,202.37916666666666,62.0,93.0
1344,201.57395833333334,202.41458333333333,67.0,107.0
1345,202.32395833333334,202.48229166666667,59.0,101.0
1346,202.07395833333334,202.51458333333332,55.0,97.0
1347,202.57395833333334,202.69479166666667,62.0,91.0
1348,202.82395833333334,202.95208333333332,62.0,80.0
1349,202.82395833333334,202.975,44.0,93.0
1350,202.82395833333334,203.01770833333333,68.0,97.0
1351,203.07395833333334,203.59270833333332,64.0,98.0
1352,203.07395833333334,203.653125,69.0,107.0
1353,203.57395833333334,203.909375,57.0,91.0
1354,203.82395833333334,203.9625,64.0,102.0
1355,203.82395833333334,204.046875,72.0,109.0
1356,204.07395833333334,204.13020833333334,57.0,41.0
1357,203.07395833333334,204.14270833333333,45.0,105.0
1358,203.32395833333334,204.18020833333333,52.0,92.0
1359,204.07395833333334,204.18645833333332,64.0,73.0
1360,204.07395833333334,204.203125,71.0,95.0
1361,204.32395833333334,204.36041666666665,55.0,86.0
1362,204.32395833333334,204.425,64.0,78.0
1363,204.32395833333334,204.46145833333333,43.0,95.0
1364,204.32395833333334,204.46145833333333,72.0,95.0
1365,204.57395833333334,204.67395833333333,53.0,105.0
1366,204.57395833333334,204.68333333333334,41.0,103.0
1367,204.57395833333334,204.68541666666667,65.0,106.0
1368,204.57395833333334,204.69479166666667,69.0,110.0
1369,204.82395833333334,204.92604166666666,53.0,94.0
1370,204.82395833333334,204.94062499999998,41.0,89.0
1371,204.82395833333334,204.94270833333334,65.0,96.0
1372,204.82395833333334,204.965625,71.0,104.0
1373,205.07395833333334,205.15833333333333,65.0,90.0
1374,205.07395833333334,205.16770833333334,53.0,102.0
1375,205.07395833333334,205.17916666666667,41.0,97.0
1376,205.07395833333334,205.18958333333333,72.0,104.0
1377,205.32395833333334,205.39374999999998,53.0,116.0
1378,205.32395833333334,205.39374999999998,67.0,115.0
1379,205.32395833333334,205.39479166666666,41.0,111.0
1380,205.32395833333334,205.40208333333334,77.0,118.0
1381,206.44895833333334,206.79999999999998,53.0,111.0
1382,206.44895833333334,206.80833333333334,41.0,108.0
1383,206.44895833333334,206.8125,69.0,113.0
1384,206.44895833333334,206.83645833333333,72.0,111.0
1385,206.44895833333334,206.83645833333333,77.0,111.0
1386,206.94895833333334,206.98125,77.0,25.0
1387,206.94895833333334,207.04895833333333,72.0,53.0
1388,206.94895833333334,207.22291666666666,55.0,112.0
1389,206.94895833333334,207.33333333333334,71.0,95.0
1390,206.94895833333334,207.37291666666667,67.0,112.0
1391,207.32395833333334,207.421875,55.0,99.0
1392,206.94895833333334,207.42395833333333,43.0,115.0
1393,206.94895833333334,207.45,76.0,109.0
1394,207.69895833333334,207.71875,74.0,17.0
1395,207.57395833333334,207.74895833333332,72.0,114.0
1396,207.57395833333334,207.77083333333334,67.0,113.0
1397,208.19895833333334,208.24375,67.0,44.0
1398,208.19895833333334,208.25729166666667,65.0,31.0
1399,207.82395833333334,208.35,60.0,89.0
1400,208.32395833333334,208.640625,65.0,107.0
1401,208.32395833333334,208.6875,69.0,111.0
1402,208.57395833333334,208.73541666666665,60.0,98.0
1403,207.57395833333334,208.75520833333334,48.0,115.0
1404,208.82395833333334,208.87604166666665,64.0,85.0
1405,208.82395833333334,208.96041666666667,55.0,90.0
1406,208.82395833333334,208.98645833333333,67.0,98.0
1407,209.19895833333334,209.29270833333334,67.0,26.0
1408,209.07395833333334,209.31562499999998,64.0,107.0
1409,209.07395833333334,209.40104166666666,72.0,109.0
1410,209.57395833333334,209.67916666666667,62.0,106.0
1411,209.57395833333334,209.71145833333333,71.0,107.0
1412,209.32395833333334,209.840625,59.0,85.0
1413,209.07395833333334,209.88645833333334,47.0,101.0
1414,209.82395833333334,210.12812499999998,62.0,100.0
1415,209.82395833333334,210.140625,69.0,110.0
1416,210.07395833333334,210.20416666666665,67.0,103.0
1417,210.07395833333334,210.24375,45.0,110.0
1418,210.32395833333334,210.46458333333334,64.0,100.0
1419,210.57395833333334,210.6875,41.0,103.0
1420,210.57395833333334,210.6875,53.0,99.0
1421,210.57395833333334,210.69583333333333,60.0,100.0
1422,210.57395833333334,210.69583333333333,65.0,101.0
1423,210.57395833333334,210.73229166666667,69.0,103.0
1424,210.82395833333334,210.92395833333333,60.0,90.0
1425,210.82395833333334,210.92604166666666,65.0,91.0
1426,210.82395833333334,210.94062499999998,53.0,90.0
1427,210.82395833333334,210.95624999999998,41.0,83.0
1428,210.82395833333334,210.96145833333333,69.0,94.0
1429,211.07395833333334,211.18125,60.0,84.0
1430,211.07395833333334,211.18229166666666,65.0,84.0
1431,211.07395833333334,211.20416666666665,53.0,94.0
1432,211.07395833333334,211.21979166666665,41.0,79.0
1433,211.07395833333334,211.22604166666667,69.0,89.0
1434,211.32395833333334,211.446875,41.0,98.0
1435,211.32395833333334,211.45520833333333,60.0,100.0
1436,211.32395833333334,211.45729166666666,65.0,88.0
1437,211.32395833333334,211.459375,53.0,99.0
1438,211.32395833333334,211.49270833333333,69.0,97.0
1439,212.06979166666667,212.35625,67.0,102.0
1440,212.06979166666667,212.36145833333333,59.0,108.0
1441,212.06979166666667,212.36666666666667,55.0,107.0
1442,212.06979166666667,212.37291666666667,43.0,106.0
1443,212.06979166666667,212.38333333333333,62.0,108.0
1444,212.82395833333334,213.16875,55.0,96.0
1445,212.82395833333334,213.25208333333333,62.0,95.0
1446,212.82395833333334,213.28958333333333,59.0,103.0
1447,212.82395833333334,213.29895833333333,67.0,101.0
1448,212.82395833333334,213.384375,43.0,89.0
1449,213.57395833333334,214.01145833333334,62.0,77.0
1450,213.57395833333334,214.07083333333333,67.0,75.0
1451,214.07395833333334,214.37916666666666,60.0,62.0
1452,214.32395833333334,214.621875,62.0,80.0
1453,213.82395833333334,214.66979166666667,55.0,70.0
1454,214.32395833333334,214.72395833333334,67.0,89.0
1455,214.57395833333334,214.84375,60.0,73.0
1456,213.57395833333334,214.86041666666665,48.0,90.0
1457,214.82395833333334,215.0625,55.0,72.0
1458,215.07395833333334,215.353125,62.0,78.0
1459,215.07395833333334,215.36354166666666,67.0,86.0
1460,215.32395833333334,215.90208333333334,55.0,67.0
1461,215.57395833333334,215.95520833333333,60.0,62.0
1462,215.82395833333334,216.11145833333333,62.0,82.0
1463,215.07395833333334,216.15416666666667,48.0,79.0
1464,215.82395833333334,216.22083333333333,71.0,91.0
1465,216.07395833333334,216.31875,55.0,75.0
1466,216.32395833333334,216.45624999999998,47.0,63.0
1467,216.82395833333334,217.06875,52.0,68.0
1468,216.57395833333334,217.07395833333334,45.0,81.0
1469,217.07395833333334,217.371875,57.0,74.0
1470,216.57395833333334,217.49166666666667,64.0,76.0
1471,216.57395833333334,217.575,67.0,85.0
1472,216.57395833333334,217.59166666666667,72.0,81.0
1473,217.32395833333334,217.66770833333334,59.0,72.0
1474,217.57395833333334,217.68645833333332,60.0,81.0
1475,217.82395833333334,217.9,64.0,60.0
1476,218.07395833333334,218.20729166666666,64.0,68.0
1477,218.07395833333334,218.35520833333334,72.0,90.0
1478,218.57395833333334,218.615625,62.0,85.0
1479,218.57395833333334,218.67604166666666,71.0,99.0
1480,218.32395833333334,218.96770833333332,52.0,65.0
1481,218.82395833333334,219.03541666666666,57.0,63.0
1482,219.07395833333334,219.13541666666666,59.0,79.0
1483,219.07395833333334,219.2875,67.0,91.0
1484,219.32395833333334,219.36458333333334,52.0,49.0
1485,218.07395833333334,219.37604166666665,45.0,88.0
1486,219.57395833333334,219.96770833333332,60.0,77.0
1487,219.57395833333334,220.07604166666667,65.0,84.0
1488,219.57395833333334,220.08124999999998,57.0,81.0
1489,220.32395833333334,220.45520833333333,55.0,86.0
1490,220.32395833333334,220.51458333333332,60.0,82.0
1491,220.07395833333334,220.56145833333332,53.0,69.0
1492,219.57395833333334,220.56979166666667,72.0,101.0
1493,219.82395833333334,220.640625,48.0,65.0
1494,220.57395833333334,220.74583333333334,62.0,59.0
1495,219.57395833333334,220.83854166666666,41.0,77.0
1496,220.82395833333334,221.075,48.0,46.0
1497,220.82395833333334,221.12708333333333,65.0,65.0
1498,221.07395833333334,221.54791666666665,64.0,88.0
1499,221.07395833333334,221.56041666666667,55.0,79.0
1500,221.07395833333334,221.59375,60.0,74.0
1501,221.32395833333334,221.97395833333334,48.0,76.0
1502,221.82395833333334,222.00208333333333,55.0,89.0
1503,221.57395833333334,222.19895833333334,52.0,77.0
1504,222.07395833333334,222.225,60.0,71.0
1505,221.07395833333334,222.38958333333332,40.0,77.0
1506,222.32395833333334,222.53854166666667,64.0,74.0
1507,222.57395833333334,222.853125,65.0,87.0
1508,222.57395833333334,222.95416666666665,57.0,86.0
1509,222.57395833333334,223.00312499999998,60.0,75.0
1510,223.07395833333334,223.340625,50.0,71.0
1511,223.32395833333334,223.37395833333332,60.0,76.0
1512,223.32395833333334,223.40520833333332,57.0,81.0
1513,223.32395833333334,223.42708333333334,67.0,95.0
1514,222.57395833333334,223.671875,38.0,81.0
1515,223.57395833333334,223.70624999999998,65.0,93.0
1516,222.82395833333334,223.7125,45.0,73.0
1517,223.82395833333334,223.99270833333333,64.0,81.0
1518,224.07395833333334,224.99166666666667,55.0,82.0
1519,224.07395833333334,225.07291666666666,43.0,72.0
1520,224.07395833333334,225.09166666666667,59.0,85.0
1521,224.07395833333334,225.10729166666667,50.0,84.0
1522,224.07395833333334,225.11354166666666,62.0,81.0
