,start,end,pitch,velocity
0,16.4653503125,16.826888020833334,71.0,87.0
1,16.9268878125,17.082656718750002,71.0,89.0
2,17.1576565625,17.813424427083334,71.0,90.0
3,18.0807315625,18.261500416666667,62.0,85.0
4,18.3115003125,18.648038072916666,64.0,90.0
5,18.7730378125,18.9345759375,67.0,87.0
6,19.0038065625,19.382651927083334,69.0,89.0
7,19.4653440625,20.0191890625,67.0,85.0
8,20.1576503125,20.5268803125,71.0,82.0
9,20.6191878125,20.749956770833332,71.0,88.0
10,20.8499565625,21.47687833333333,71.0,90.0
11,21.7730315625,21.9345696875,62.0,84.0
12,22.0038003125,22.338415,64.0,91.0
13,22.4653378125,22.623029791666667,67.0,84.0
14,22.6961065625,23.053798125,69.0,85.0
15,23.1576440625,23.773027395833335,67.0,91.0
16,23.8499503125,24.203795729166668,71.0,89.0
17,24.3114878125,24.457641354166668,71.0,89.0
18,24.5422565625,25.209562864583333,71.0,89.0
19,25.4653315625,25.642254270833334,62.0,87.0
20,25.6961003125,26.115330208333333,64.0,89.0
21,26.1576378125,26.448021822916665,67.0,88.0
22,26.388406562500002,27.049943645833334,69.0,90.0
23,27.0807128125,27.44417359375,67.0,89.0
24,27.5422503125,30.157629479166665,67.0,89.0
25,31.2345503125,31.596088020833335,71.0,87.0
26,31.6960878125,31.85185671875,71.0,89.0
27,31.9268565625,32.58262442708333,71.0,90.0
28,32.849931562500004,33.03070041666667,62.0,85.0
29,33.0807003125,33.41723807291667,64.0,90.0
30,33.5422378125,33.7037759375,67.0,87.0
31,33.7730065625,34.151851927083335,69.0,89.0
32,34.2345440625,34.7883890625,67.0,85.0
33,34.9268503125,35.2960803125,71.0,82.0
34,35.3883878125,35.519156770833334,71.0,88.0
35,35.6191565625,36.24607833333334,71.0,90.0
36,36.5422315625,36.7037696875,62.0,84.0
37,36.7730003125,37.107615,64.0,91.0
38,37.2345378125,37.392229791666665,67.0,84.0
39,37.4653065625,37.822998125,69.0,85.0
40,37.9268440625,38.542227395833336,67.0,91.0
41,38.6191503125,38.97299572916667,71.0,89.0
42,39.0806878125,39.226841354166666,71.0,89.0
43,39.3114565625,39.97876286458333,71.0,89.0
44,40.2345315625,40.41145427083333,62.0,87.0
45,40.4653003125,40.88453020833333,64.0,89.0
46,40.9268378125,41.21722182291667,67.0,88.0
47,41.1576065625,41.819143645833336,69.0,90.0
48,41.8499128125,42.21337359375,67.0,89.0
49,42.3114503125,44.92682947916667,67.0,89.0
50,45.7729815625,46.03451947916667,71.0,89.0
51,46.0037503125,46.4652878125,74.0,92.0
52,46.4652878125,46.73836416666667,71.0,87.0
53,46.6960565625,47.3883628125,74.0,91.0
54,47.3883628125,47.86913104166667,71.0,89.0
55,47.8499003125,49.24989739583334,67.0,85.0
56,49.4652815625,49.65374270833333,71.0,78.0
57,49.6960503125,50.11912635416667,74.0,95.0
58,50.1575878125,50.607586875,71.0,90.0
59,50.6191253125,51.088355104166666,74.0,95.0
60,51.0806628125,51.52489265625,71.0,89.0
61,51.5422003125,52.91142822916667,67.0,85.0
62,53.1575815625,53.346042708333336,67.0,86.0
63,53.3883503125,53.77873411458334,69.0,90.0
64,53.8498878125,54.27296385416667,71.0,90.0
65,54.3114253125,54.740270572916664,69.0,89.0
66,54.7729628125,55.15180817708333,71.0,90.0
67,55.2345003125,55.5575765625,74.0,96.0
68,55.6960378125,55.96719109375,76.0,90.0
69,56.1575753125,56.5960359375,74.0,94.0
70,56.6191128125,56.897958385416665,71.0,91.0
71,57.0806503125,59.626798854166665,69.0,95.0
72,59.849875312500004,60.00756729166667,74.0,96.0
73,60.0806440625,60.6575659375,76.0,94.0
74,60.7729503125,61.51525645833333,74.0,93.0
75,61.6960253125,61.861409583333334,74.0,95.0
76,61.9267940625,62.45948526041667,76.0,91.0
77,62.6191003125,63.33832958333333,74.0,93.0
78,63.5421753125,63.99602052083333,74.0,100.0
79,64.0037128125,64.37486588541667,76.0,93.0
80,64.4652503125,64.82871109375,79.0,91.0
81,64.9267878125,65.29217166666666,79.0,90.0
82,65.3883253125,65.81717057291667,76.0,94.0
83,65.8498628125,66.14409296875,74.0,96.0
84,66.3114003125,67.15178317708333,71.0,91.0
85,67.2344753125,67.42485953125001,69.0,89.0
86,67.4652440625,68.10562734375,71.0,89.0
87,68.1575503125,68.94024098958333,69.0,89.0
88,69.0806253125,69.5421628125,69.0,88.0
89,69.5421628125,69.92870046875,71.0,89.0
90,70.0037003125,70.83062166666667,69.0,90.0
91,70.9267753125,71.27677458333334,69.0,90.0
92,71.3883128125,71.81908114583334,71.0,91.0
93,71.8498503125,72.18638807291667,74.0,92.0
94,72.3113878125,72.61715640625,74.0,93.0
95,72.7729253125,73.08061697916666,74.0,95.0
96,73.2344628125,73.5575390625,71.0,90.0
97,73.6960003125,74.45176796875,69.0,89.0
98,74.6190753125,74.77676729166667,74.0,96.0
99,74.8498440625,75.4267659375,76.0,94.0
100,75.5421503125,76.28445645833334,74.0,93.0
101,76.4652253125,76.63060958333334,74.0,95.0
102,76.6959940625,77.22868526041667,76.0,91.0
103,77.38830031250001,78.10752958333333,74.0,93.0
104,78.3113753125,78.76522052083334,74.0,100.0
105,78.7729128125,79.14406588541667,76.0,93.0
106,79.2344503125,79.59791109375,79.0,91.0
107,79.69598781250001,80.06137166666667,79.0,90.0
108,80.1575253125,80.58637057291666,76.0,94.0
109,80.6190628125,80.91329296875,74.0,96.0
110,81.0806003125,81.92098317708333,71.0,91.0
111,82.00367531250001,82.19405953125,69.0,89.0
112,82.2344440625,82.87482734375,71.0,89.0
113,82.9267503125,83.70944098958333,69.0,89.0
114,83.8498253125,84.31136281250001,69.0,88.0
115,84.31136281250001,84.5421315625,71.0,89.0
116,84.5421315625,85.36905291666666,74.0,90.0
117,85.6959753125,85.869051875,69.0,89.0
118,85.9267440625,86.27674333333333,71.0,90.0
119,86.3882815625,86.59020421875,62.0,89.0
120,86.6190503125,86.91712661458334,67.0,89.0
121,87.0805878125,87.4152025,67.0,86.0
122,87.5421253125,87.86327848958334,67.0,88.0
123,88.0036628125,88.38443125,69.0,86.0
124,88.4652003125,90.8517645375,67.0,85.0
125,99.60316484583335,99.96470255416668,71.0,87.0
126,100.06470234583334,100.22047125208334,71.0,89.0
127,100.29547109583335,100.95123896041667,71.0,90.0
128,101.21854609583335,101.39931495000002,62.0,85.0
129,101.44931484583334,101.78585260625002,64.0,90.0
130,101.91085234583335,102.07239047083334,67.0,87.0
131,102.14162109583334,102.52046646041669,69.0,89.0
132,102.60315859583335,103.15700359583334,67.0,85.0
133,103.29546484583335,103.66469484583334,71.0,82.0
134,103.75700234583334,103.88777130416668,71.0,88.0
135,103.98777109583334,104.61469286666667,71.0,90.0
136,104.91084609583335,105.07238422083334,62.0,84.0
137,105.14161484583335,105.47622953333334,64.0,91.0
138,105.60315234583334,105.76084432500001,67.0,84.0
139,105.83392109583335,106.19161265833334,69.0,85.0
140,106.29545859583334,106.91084192916668,67.0,91.0
141,106.98776484583334,107.34161026250001,71.0,89.0
142,107.44930234583335,107.59545588750001,71.0,89.0
143,107.68007109583334,108.34737739791667,71.0,89.0
144,108.60314609583335,108.78006880416667,62.0,87.0
145,108.83391484583335,109.25314474166667,64.0,89.0
146,109.29545234583334,109.58583635625001,67.0,88.0
147,109.52622109583335,110.18775817916668,69.0,90.0
148,110.21852734583334,110.58198812708335,67.0,89.0
149,110.68006484583334,113.29544401250001,67.0,89.0
150,114.37236484583335,114.73390255416668,71.0,87.0
151,114.83390234583334,114.98967125208334,71.0,89.0
152,115.06467109583335,115.72043896041669,71.0,90.0
153,115.98774609583334,116.16851495000002,62.0,85.0
154,116.21851484583334,116.55505260625002,64.0,90.0
155,116.68005234583335,116.84159047083335,67.0,87.0
156,116.91082109583334,117.28966646041668,69.0,89.0
157,117.37235859583335,117.92620359583334,67.0,85.0
158,118.06466484583335,118.43389484583335,71.0,82.0
159,118.52620234583334,118.65697130416667,71.0,88.0
160,118.75697109583334,119.38389286666668,71.0,90.0
161,119.68004609583335,119.84158422083334,62.0,84.0
162,119.91081484583334,120.24542953333335,64.0,91.0
163,120.37235234583335,120.530044325,67.0,84.0
164,120.60312109583334,120.96081265833334,69.0,85.0
165,121.06465859583335,121.68004192916668,67.0,91.0
166,121.75696484583335,122.11081026250001,71.0,89.0
167,122.21850234583334,122.3646558875,71.0,89.0
168,122.44927109583335,123.11657739791667,71.0,89.0
169,123.37234609583334,123.54926880416667,62.0,87.0
170,123.60311484583335,124.02234474166667,64.0,89.0
171,124.06465234583334,124.35503635625001,67.0,88.0
172,124.29542109583335,124.95695817916668,69.0,90.0
173,124.98772734583335,125.35118812708335,67.0,89.0
174,125.44926484583334,128.06464401250003,67.0,89.0
175,128.91079609583335,129.17233401250002,71.0,89.0
176,129.14156484583333,129.60310234583335,74.0,92.0
177,129.60310234583335,129.87617870000003,71.0,87.0
178,129.83387109583333,130.52617734583333,74.0,91.0
179,130.52617734583333,131.006945575,71.0,89.0
180,130.98771484583335,132.38771192916667,67.0,85.0
181,132.60309609583334,132.79155724166668,71.0,78.0
182,132.83386484583335,133.2569408875,74.0,95.0
183,133.29540234583334,133.74540140833335,71.0,90.0
184,133.75693984583336,134.22616963750002,74.0,95.0
185,134.21847734583335,134.66270718958333,71.0,89.0
186,134.68001484583334,136.0492427625,67.0,85.0
187,136.29539609583335,136.48385724166667,67.0,86.0
188,136.52616484583334,136.91654864791667,69.0,90.0
189,136.98770234583336,137.41077838750002,71.0,90.0
190,137.44923984583335,137.87808510625,69.0,89.0
191,137.91077734583334,138.28962271041667,71.0,90.0
192,138.37231484583333,138.69539109583334,74.0,96.0
193,138.83385234583335,139.10500562708336,76.0,90.0
194,139.29538984583334,139.73385047083335,74.0,94.0
195,139.75692734583333,140.03577291875,71.0,91.0
196,140.21846484583335,142.76461338750002,69.0,95.0
197,142.98768984583336,143.14538182500002,74.0,96.0
198,143.21845859583334,143.79538047083335,76.0,94.0
199,143.91076484583334,144.65307099166668,74.0,93.0
200,144.83383984583335,144.99922411666668,74.0,95.0
201,145.06460859583333,145.59729979375,76.0,91.0
202,145.75691484583334,146.4761441166667,74.0,93.0
203,146.67998984583335,147.1338350541667,74.0,100.0
204,147.14152734583334,147.51268041875,76.0,93.0
205,147.60306484583333,147.96652562708334,79.0,91.0
206,148.06460234583335,148.4299862,79.0,90.0
207,148.52613984583334,148.95498510625,76.0,94.0
208,148.98767734583333,149.28190750208336,74.0,96.0
209,149.44921484583335,150.28959771041667,71.0,91.0
210,150.37228984583334,150.56267406458335,69.0,89.0
211,150.60305859583335,151.24344187708334,71.0,89.0
212,151.29536484583335,152.07805552291669,69.0,89.0
213,152.21843984583336,152.67997734583335,69.0,88.0
214,152.67997734583335,153.06651500208335,71.0,89.0
215,153.14151484583334,153.9684362,69.0,90.0
216,154.06458984583335,154.41458911666666,69.0,90.0
217,154.52612734583334,154.95689567916668,71.0,91.0
218,154.98766484583334,155.32420260625003,74.0,92.0
219,155.44920234583333,155.75497093958336,74.0,93.0
220,155.91073984583335,156.21843151250002,74.0,95.0
221,156.37227734583334,156.69535359583335,71.0,90.0
222,156.83381484583333,157.58958250208335,69.0,89.0
223,157.75688984583334,157.91458182500003,74.0,96.0
224,157.98765859583335,158.56458047083333,76.0,94.0
225,158.67996484583335,159.42227099166666,74.0,93.0
226,159.60303984583334,159.76842411666667,74.0,95.0
227,159.83380859583335,160.36649979375,76.0,91.0
228,160.52611484583335,161.24534411666667,74.0,93.0
229,161.44918984583336,161.90303505416668,74.0,100.0
230,161.91072734583335,162.28188041875,76.0,93.0
231,162.37226484583334,162.73572562708335,79.0,91.0
232,162.83380234583336,163.1991862,79.0,90.0
233,163.29533984583333,163.72418510625,76.0,94.0
234,163.75687734583335,164.05110750208334,74.0,96.0
235,164.21841484583337,165.05879771041668,71.0,91.0
236,165.14148984583335,165.33187406458336,69.0,89.0
237,165.37225859583333,166.01264187708335,71.0,89.0
238,166.06456484583333,166.84725552291667,69.0,89.0
239,166.98763984583334,167.44917734583333,69.0,88.0
240,167.44917734583333,167.67994609583334,71.0,89.0
241,167.67994609583334,168.50686745000002,74.0,90.0
242,168.83378984583334,169.00686640833334,69.0,89.0
243,169.06455859583335,169.41455786666668,71.0,90.0
244,169.52609609583334,169.72801875208336,62.0,89.0
245,169.75686484583335,170.05494114791668,67.0,89.0
246,170.21840234583334,170.55301703333333,67.0,86.0
247,170.67993984583336,171.00109302291668,67.0,88.0
248,171.14147734583335,171.52224578333335,69.0,86.0
249,171.60301484583334,173.97224067916667,67.0,85.0
250,189.15931422916668,189.3176148875,74.0,96.0
251,189.3909737291667,189.9701224791667,76.0,94.0
252,190.08595222916668,190.82881509375002,74.0,93.0
253,191.0095839479167,191.17496821875002,74.0,95.0
254,191.2403526979167,191.77304389583335,76.0,91.0
255,191.9326589479167,192.65188821875003,74.0,93.0
256,192.8557339479167,193.30957915625004,74.0,100.0
257,193.31727144791668,193.68842452083337,76.0,93.0
258,193.7788089479167,194.14226972916669,79.0,91.0
259,194.2403464479167,194.60573030208337,79.0,90.0
260,194.70188394791668,195.13072920833335,76.0,94.0
261,195.1634214479167,195.4576516041667,74.0,96.0
262,195.6249589479167,196.46534181250001,71.0,91.0
263,196.5480339479167,196.7384181666667,69.0,89.0
264,196.7788026979167,197.41918597916668,71.0,89.0
265,197.4711089479167,198.25379962500003,69.0,89.0
266,198.3941839479167,198.8557214479167,69.0,88.0
267,198.8557214479167,199.2422591041667,71.0,89.0
268,199.31725894791668,200.14418030208336,69.0,90.0
269,200.2403339479167,200.59033321875003,69.0,90.0
270,200.7018714479167,201.13263978125002,71.0,91.0
271,201.1634089479167,201.49994670833337,74.0,92.0
272,201.6249464479167,201.9307150416667,74.0,93.0
273,202.0864839479167,202.39417561458336,74.0,95.0
274,202.54802144791668,202.8710976979167,71.0,90.0
275,203.0095589479167,203.7653266041667,69.0,89.0
276,203.93263394791668,204.09032592708337,74.0,96.0
277,204.1634026979167,204.7403245729167,76.0,94.0
278,204.8557089479167,205.59801509375004,74.0,93.0
279,205.77878394791668,205.94416821875004,74.0,95.0
280,206.0095526979167,206.54224389583337,76.0,91.0
281,206.7018589479167,207.42108821875001,74.0,93.0
282,207.6249339479167,208.07877915625002,74.0,100.0
283,208.0864714479167,208.45762452083335,76.0,93.0
284,208.54800894791668,208.9114697291667,79.0,91.0
285,209.0095464479167,209.37493030208336,79.0,90.0
286,209.4710839479167,209.89992920833336,76.0,94.0
287,209.9326214479167,210.22685160416668,74.0,96.0
288,210.3941589479167,211.23454181250003,71.0,91.0
289,211.3172339479167,211.5076181666667,69.0,89.0
290,211.5480026979167,212.1883859791667,71.0,89.0
291,212.2403089479167,213.02299962500004,69.0,89.0
292,213.16338394791669,213.6249214479167,69.0,88.0
293,213.6249214479167,213.8556901979167,71.0,89.0
294,213.8556901979167,214.68261155208336,74.0,90.0
295,215.00953394791668,215.18261051041668,69.0,89.0
296,215.2403026979167,215.59030196875003,71.0,90.0
297,215.70184019791668,215.9037628541667,62.0,89.0
298,215.9326089479167,216.23068525000002,67.0,89.0
299,216.39414644791668,216.7287611354167,67.0,86.0
300,216.8556839479167,217.17683712500002,67.0,88.0
301,217.3172214479167,217.6979898854167,69.0,86.0
302,217.77875894791669,220.14798478125002,67.0,85.0
303,220.5479839479167,220.70567592708335,75.0,96.0
304,220.7787526979167,221.35567457291668,77.0,94.0
305,221.4710589479167,222.21336509375004,75.0,93.0
306,222.39413394791669,222.55951821875004,75.0,95.0
307,222.6249026979167,223.15759389583337,77.0,91.0
308,223.3172089479167,224.03643821875002,75.0,93.0
309,224.24028394791668,224.69412915625003,75.0,100.0
310,224.7018214479167,225.07297452083336,77.0,93.0
311,225.1633589479167,225.5268197291667,80.0,91.0
312,225.62489644791668,225.99028030208336,80.0,90.0
313,226.0864339479167,226.51527920833337,77.0,94.0
314,226.5479714479167,226.8422016041667,75.0,96.0
315,227.0095089479167,227.84989181250003,72.0,91.0
316,227.9325839479167,228.12296816666668,70.0,89.0
317,228.1633526979167,228.8037359791667,72.0,89.0
318,228.8556589479167,229.63834962500002,70.0,89.0
319,229.7787339479167,230.2402714479167,70.0,88.0
320,230.2402714479167,230.62680910416668,72.0,89.0
321,230.7018089479167,231.52873030208337,70.0,90.0
322,231.6248839479167,231.97488321875002,70.0,90.0
323,232.08642144791668,232.51718978125,72.0,91.0
324,232.5479589479167,232.88449670833336,75.0,92.0
325,233.0094964479167,233.3152650416667,75.0,93.0
326,233.47103394791668,233.77872561458335,75.0,95.0
327,233.9325714479167,234.2556476979167,72.0,90.0
328,234.3941089479167,235.1498766041667,70.0,89.0
329,235.3171839479167,235.47487592708336,75.0,96.0
330,235.54795269791668,236.1248745729167,77.0,94.0
331,236.2402589479167,236.98256509375003,75.0,93.0
332,237.1633339479167,237.32871821875003,75.0,95.0
333,237.3941026979167,237.92679389583336,77.0,91.0
334,238.0864089479167,238.80563821875003,75.0,93.0
335,239.0094839479167,239.46332915625004,75.0,100.0
336,239.47102144791668,239.84217452083337,77.0,93.0
337,239.9325589479167,240.2960197291667,80.0,91.0
338,240.3940964479167,240.75948030208338,80.0,90.0
339,240.8556339479167,241.28447920833335,77.0,94.0
340,241.31717144791668,241.6114016041667,75.0,96.0
341,241.7787089479167,242.61909181250002,72.0,91.0
342,242.70178394791668,242.8921681666667,70.0,89.0
343,242.9325526979167,243.5729359791667,72.0,89.0
344,243.6248589479167,244.40754962500003,70.0,89.0
345,244.5479339479167,245.0094714479167,70.0,88.0
346,245.0094714479167,245.2402401979167,72.0,89.0
347,245.2402401979167,246.06716155208335,75.0,90.0
348,246.3940839479167,246.5671605104167,70.0,89.0
349,246.6248526979167,246.97485196875004,72.0,90.0
350,247.0863901979167,247.2883128541667,63.0,89.0
351,247.3171589479167,247.61523525,68.0,89.0
352,247.7786964479167,248.1133111354167,68.0,86.0
353,248.2402339479167,248.561387125,68.0,88.0
354,248.70177144791668,249.08253988541668,70.0,86.0
355,249.1633089479167,251.53253478125004,68.0,85.0
356,251.93253394791668,252.1229181666667,70.0,89.0
357,252.1633026979167,252.8036859791667,72.0,89.0
358,252.8556089479167,253.63829962500003,70.0,89.0
359,253.7786839479167,254.0094526979167,70.0,88.0
360,254.0094526979167,254.4709901979167,72.0,89.0
361,254.4709901979167,254.7017589479167,65.0,89.0
362,254.7017589479167,255.52868030208336,75.0,90.0
363,255.6248339479167,255.7979105104167,70.0,89.0
364,255.8556026979167,256.20560196875005,72.0,90.0
365,256.31714019791673,256.5190628541667,63.0,89.0
366,256.5479089479167,256.84598525,68.0,89.0
367,257.0094464479167,257.3440611354167,68.0,86.0
368,257.5940606145833,257.9152137916667,68.0,88.0
369,258.10367493750005,258.484443375,70.0,86.0
370,258.67290452083336,261.04020728125005,68.0,85.0
