,start,end,pitch,velocity
0,1.6961503125,2.2499953125,59.0,83.0
1,1.6961503125,2.2653798958333335,55.0,80.0
2,1.6961503125,2.276918333333333,62.0,85.0
3,2.6192253125000002,2.9173016145833333,55.0,90.0
4,2.6192253125000002,2.9403784895833334,59.0,93.0
5,2.6192253125000002,2.9673015104166667,62.0,91.0
6,1.6961503125,3.4173005729166666,43.0,89.0
7,3.3115315625,3.49037734375,55.0,77.0
8,3.5423003125,3.946145625,59.0,85.0
9,3.5423003125,3.9826840104166665,55.0,83.0
10,3.5423003125,3.9980685937500002,62.0,87.0
11,4.4653753125,4.88652828125,55.0,88.0
12,4.4653753125,4.957681979166667,62.0,87.0
13,3.5423003125,5.034604895833334,43.0,89.0
14,4.9269128125,5.069220208333333,50.0,85.0
15,5.3884503125,5.998064427083333,57.0,83.0
16,5.386527239583334,6.0115259375,60.0,97.0
17,5.3884503125,6.024987447916667,53.0,83.0
18,5.386527239583334,6.0346028125,62.0,82.0
19,6.3115253125,6.486524947916667,57.0,85.0
20,6.3115253125,6.50190953125,60.0,88.0
21,6.3115253125,6.515371041666667,53.0,89.0
22,5.3884503125,7.06729296875,45.0,83.0
23,7.0038315625,7.4653690625,48.0,90.0
24,7.2346003125000005,7.4653690625,48.0,88.0
25,7.2346003125000005,7.578830364583333,55.0,84.0
26,7.2346003125000005,7.849983645833333,60.0,85.0
27,8.1576753125,8.280751979166666,55.0,91.0
28,8.1576753125,8.4115209375,64.0,94.0
29,8.3884440625,8.6192128125,60.0,87.0
30,8.6192128125,8.759597135416668,55.0,89.0
31,9.0807503125,9.623056875,55.0,85.0
32,9.0807503125,9.8422871875,52.0,86.0
33,10.0038253125,10.282670885416668,55.0,93.0
34,10.0038253125,10.319209270833333,59.0,90.0
35,9.0807503125,10.769208333333333,40.0,92.0
36,10.4653628125,10.790362135416666,47.0,71.0
37,10.6961315625,10.838438958333333,52.0,89.0
38,10.9269003125,11.326899479166666,52.0,81.0
39,10.9269003125,11.467283802083333,59.0,83.0
40,10.9269003125,11.49805296875,55.0,82.0
41,11.3884378125,11.915359791666667,47.0,70.0
42,11.8499753125,12.134590104166668,55.0,91.0
43,11.8499753125,12.148051614583334,59.0,91.0
44,11.8499753125,12.15574390625,64.0,93.0
45,12.0807440625,12.180743854166666,47.0,87.0
46,10.9269003125,12.205743802083333,40.0,90.0
47,12.3115128125,12.396128020833334,52.0,96.0
48,12.7730503125,13.288433854166668,57.0,82.0
49,12.7730503125,13.33266453125,62.0,84.0
50,13.6961253125,13.867278802083334,57.0,87.0
51,13.6961253125,13.8807403125,66.0,90.0
52,13.9268940625,14.026893854166667,62.0,75.0
53,14.1576628125,14.217278072916667,57.0,70.0
54,12.7730503125,14.453816041666666,38.0,93.0
55,14.6192003125,15.632659739583334,38.0,93.0
56,14.6192003125,16.278812239583335,62.0,83.0
57,14.6192003125,16.3038121875,57.0,77.0
58,16.4653503125,16.917272447916666,62.0,87.0
59,16.4653503125,17.028810677083335,55.0,84.0
60,16.9268878125,17.461502083333333,50.0,79.0
61,17.3884253125,17.651886302083334,55.0,90.0
62,17.3884253125,17.667270885416666,59.0,91.0
63,16.4653503125,17.696116979166668,43.0,90.0
64,17.3884253125,17.7115015625,62.0,92.0
65,17.6191940625,17.84419359375,50.0,88.0
66,17.8499628125,18.003808645833335,55.0,92.0
67,18.3115003125,18.603807395833332,55.0,84.0
68,18.3115003125,18.84803765625,60.0,84.0
69,18.7730378125,18.96342203125,55.0,77.0
70,19.2345753125,19.423036458333332,62.0,89.0
71,19.2345753125,19.434574895833332,55.0,89.0
72,18.3115003125,19.699958958333333,48.0,86.0
73,19.6961128125,20.067265885416667,60.0,81.0
74,20.1576503125,20.640341614583335,59.0,83.0
75,20.1576503125,20.68264921875,55.0,82.0
76,20.6191878125,21.207648125,50.0,66.0
77,21.0807253125,21.586493489583333,59.0,91.0
78,20.1576503125,21.601878072916666,43.0,91.0
79,21.0807253125,21.72110859375,62.0,89.0
80,21.5422628125,21.763416197916666,50.0,80.0
81,21.7730315625,21.924954322916665,55.0,88.0
82,22.0038003125,22.301876614583332,55.0,88.0
83,22.0038003125,22.613414427083335,60.0,89.0
84,22.4653378125,22.721106510416668,55.0,89.0
85,22.0038003125,23.03649046875,48.0,88.0
86,22.9268753125,23.1691825,59.0,84.0
87,22.9268753125,23.332643697916666,62.0,87.0
88,23.3884128125,23.653796875,55.0,85.0
89,23.3884128125,23.801873489583333,60.0,89.0
90,23.8499503125,24.30187244791667,59.0,84.0
91,23.8499503125,24.328795468750002,55.0,83.0
92,24.7730253125,24.838409791666667,55.0,77.0
93,24.3114878125,24.840332864583335,50.0,68.0
94,24.7730253125,25.017255572916667,59.0,91.0
95,24.7730253125,25.076870833333334,62.0,90.0
96,25.234562812500002,25.3499471875,57.0,69.0
97,25.0037940625,25.371100989583333,50.0,82.0
98,23.8499503125,25.42879317708333,43.0,89.0
99,25.4653315625,25.61725432291667,59.0,81.0
100,25.6961003125,26.132637864583334,60.0,89.0
101,25.6961003125,26.171099322916668,55.0,83.0
102,26.6191753125,26.84417484375,55.0,89.0
103,25.6961003125,26.98263609375,48.0,89.0
104,26.6191753125,26.990328385416667,62.0,91.0
105,27.0807128125,27.326866145833332,55.0,84.0
106,27.0807128125,27.332635364583332,60.0,87.0
107,27.5422503125,28.046095416666667,59.0,84.0
108,27.5422503125,28.071095364583332,55.0,82.0
109,28.4653253125,28.75378625,55.0,85.0
110,28.4653253125,28.809555364583332,59.0,88.0
111,28.4653253125,28.957631979166667,62.0,88.0
112,28.0037878125,29.074939427083333,50.0,73.0
113,28.9268628125,29.101862447916666,55.0,83.0
114,27.5422503125,29.201862239583335,43.0,90.0
115,29.3884003125,29.6422459375,55.0,84.0
116,29.3884003125,30.13262953125,60.0,85.0
117,29.8499378125,30.142244895833333,55.0,78.0
118,30.3114753125,30.786474322916668,60.0,87.0
119,30.3114753125,31.04416609375,55.0,86.0
120,29.3884003125,31.174935052083335,48.0,90.0
121,30.7730128125,31.192242708333332,62.0,83.0
122,31.2345503125,31.686472447916668,62.0,87.0
123,31.2345503125,31.798010677083333,55.0,84.0
124,31.6960878125,32.230702083333334,50.0,79.0
125,32.1576253125,32.42108630208333,55.0,90.0
126,32.1576253125,32.43647088541667,59.0,91.0
127,31.2345503125,32.465316979166666,43.0,90.0
128,32.1576253125,32.4807015625,62.0,92.0
129,32.3883940625,32.61339359375,50.0,88.0
130,32.6191628125,32.773008645833336,55.0,92.0
131,33.0807003125,33.37300739583333,55.0,84.0
132,33.0807003125,33.61723765625,60.0,84.0
133,33.5422378125,33.73262203125,55.0,77.0
134,34.003775312500004,34.19223645833333,62.0,89.0
135,34.003775312500004,34.203774895833334,55.0,89.0
136,33.0807003125,34.46915895833333,48.0,86.0
137,34.4653128125,34.836465885416665,60.0,81.0
138,34.9268503125,35.40954161458333,59.0,83.0
139,34.9268503125,35.45184921875,55.0,82.0
140,35.3883878125,35.976848125000004,50.0,66.0
141,35.8499253125,36.35569348958333,59.0,91.0
142,34.9268503125,36.37107807291667,43.0,91.0
143,35.8499253125,36.49030859375,62.0,89.0
144,36.3114628125,36.53261619791667,50.0,80.0
145,36.5422315625,36.69415432291667,55.0,88.0
146,36.7730003125,37.07107661458333,55.0,88.0
147,36.7730003125,37.38261442708333,60.0,89.0
148,37.2345378125,37.490306510416666,55.0,89.0
149,36.7730003125,37.80569046875,48.0,88.0
150,37.6960753125,37.9383825,59.0,84.0
151,37.6960753125,38.101843697916664,62.0,87.0
152,38.1576128125,38.422996875,55.0,85.0
153,38.1576128125,38.571073489583334,60.0,89.0
154,38.6191503125,39.07107244791667,59.0,84.0
155,38.6191503125,39.09799546875,55.0,83.0
156,39.5422253125,39.60760979166667,55.0,77.0
157,39.0806878125,39.609532864583336,50.0,68.0
158,39.5422253125,39.786455572916665,59.0,91.0
159,39.5422253125,39.846070833333336,62.0,90.0
160,40.0037628125,40.1191471875,57.0,69.0
161,39.7729940625,40.14030098958333,50.0,82.0
162,38.6191503125,40.19799317708333,43.0,89.0
163,40.2345315625,40.38645432291667,59.0,81.0
164,40.4653003125,40.901837864583335,60.0,89.0
165,40.4653003125,40.940299322916665,55.0,83.0
166,41.3883753125,41.61337484375,55.0,89.0
167,40.4653003125,41.75183609375,48.0,89.0
168,41.3883753125,41.759528385416665,62.0,91.0
169,41.8499128125,42.09606614583333,55.0,84.0
170,41.8499128125,42.10183536458333,60.0,87.0
171,42.3114503125,42.815295416666665,59.0,84.0
172,42.3114503125,42.84029536458333,55.0,82.0
173,43.2345253125,43.52298625,55.0,85.0
174,43.2345253125,43.57875536458334,59.0,88.0
175,43.2345253125,43.72683197916667,62.0,88.0
176,42.7729878125,43.844139427083334,50.0,73.0
177,43.6960628125,43.871062447916664,55.0,83.0
178,42.3114503125,43.97106223958333,43.0,90.0
179,44.1576003125,44.66913770833333,57.0,82.0
180,44.1576003125,44.67875307291667,65.0,84.0
181,44.1576003125,44.686445364583335,60.0,83.0
182,44.8499065625,44.97490630208333,57.0,81.0
183,45.0806753125,45.1037521875,65.0,76.0
184,44.6191378125,45.194136614583336,48.0,76.0
185,45.0806753125,45.38452083333333,57.0,91.0
186,45.0806753125,45.59028963541667,60.0,95.0
187,45.5422128125,45.95182734375,57.0,80.0
188,45.7729815625,45.990288802083334,60.0,84.0
189,45.3114440625,46.051827135416666,48.0,85.0
190,44.1576003125,46.07105786458333,41.0,89.0
191,46.0037503125,46.44798015625,59.0,89.0
192,46.0037503125,46.513364635416664,66.0,87.0
193,46.6960565625,46.836440885416664,59.0,81.0
194,46.4652878125,47.055671197916666,54.0,77.0
195,46.9268253125,47.17297864583333,59.0,91.0
196,46.9268253125,47.207593958333334,62.0,94.0
197,47.1575940625,47.344132135416665,54.0,78.0
198,46.0037503125,47.47490109375,47.0,90.0
199,47.3883628125,47.55567015625,59.0,89.0
200,47.8499003125,48.34220697916667,64.0,89.0
201,47.8499003125,48.39412994791667,59.0,85.0
202,48.3114378125,48.82682135416667,47.0,62.0
203,48.7729753125,49.038359375,59.0,91.0
204,48.7729753125,49.10951307291667,67.0,87.0
205,49.0037440625,49.16912833333333,47.0,84.0
206,47.8499003125,49.1883590625,40.0,90.0
207,49.2345128125,49.392204791666664,59.0,93.0
208,49.6960503125,50.21720307291667,59.0,86.0
209,49.6960503125,50.221049218750004,62.0,85.0
210,50.1575878125,50.7806634375,54.0,71.0
211,49.6960503125,50.85566328125,47.0,90.0
212,50.6191253125,50.92489390625,62.0,91.0
213,50.6191253125,50.951816927083335,66.0,86.0
214,50.6191253125,50.95950921875,59.0,90.0
215,51.0806628125,51.18066260416667,54.0,82.0
216,51.3114315625,51.50181578125,59.0,91.0
217,51.5422003125,51.959507135416665,59.0,77.0
218,51.5422003125,52.03643005208333,67.0,84.0
219,51.5422003125,52.042199270833336,64.0,90.0
220,52.0037378125,52.5345059375,47.0,62.0
221,52.4652753125,52.692197916666665,59.0,90.0
222,52.4652753125,52.72296708333334,64.0,94.0
223,52.4652753125,52.74412088541667,67.0,90.0
224,51.5422003125,52.78450541666667,40.0,90.0
225,52.6960440625,52.801813072916666,47.0,75.0
226,52.9268128125,53.05565869791667,59.0,93.0
227,53.3883503125,53.996041354166664,57.0,90.0
228,53.3883503125,53.99796442708333,60.0,90.0
229,53.8498878125,54.39411744791667,52.0,79.0
230,54.3114253125,54.73450135416667,57.0,90.0
231,54.3114253125,54.74603979166667,60.0,91.0
232,54.3114253125,54.76719359375,64.0,93.0
233,53.3883503125,54.94411630208334,45.0,89.0
234,54.7729628125,55.11719286458333,52.0,90.0
235,55.2345003125,55.7421915625,59.0,85.0
236,55.2345003125,55.79411453125,62.0,90.0
237,55.9268065625,55.9960371875,59.0,79.0
238,55.6960378125,56.201805989583335,54.0,77.0
239,56.1575753125,56.422959375,59.0,92.0
240,56.1575753125,56.48642078125,66.0,90.0
241,56.3883440625,56.54603604166667,54.0,86.0
242,55.2345003125,56.63257432291667,47.0,91.0
243,56.6191128125,56.76718942708333,59.0,89.0
244,56.6191128125,56.78257401041667,62.0,90.0
245,57.0806503125,57.161419375,38.0,92.0
246,57.0806503125,57.3575728125,57.0,87.0
247,57.0806503125,57.36911125,62.0,89.0
248,57.0806503125,57.43641880208333,66.0,84.0
249,57.7729565625,58.19603260416667,57.0,90.0
250,57.5421878125,58.23064791666667,50.0,86.0
251,58.0037253125,58.449878229166664,62.0,98.0
252,58.2344940625,58.496031979166666,66.0,96.0
253,58.4652628125,58.721031510416665,69.0,98.0
254,58.6960315625,58.7883390625,62.0,90.0
255,58.9268003125,59.17103057291667,60.0,91.0
256,58.9268003125,59.26333807291667,64.0,95.0
257,58.9268003125,59.48256838541667,48.0,92.0
258,59.1575690625,59.54795286458334,55.0,89.0
259,59.3883378125,59.68064489583333,60.0,92.0
260,59.6191065625,59.75179859375,64.0,96.0
261,59.849875312500004,60.1037209375,62.0,88.0
262,59.849875312500004,60.174874635416664,66.0,92.0
263,60.5421815625,60.78833489583334,66.0,95.0
264,60.3114128125,60.807565625,62.0,92.0
265,60.7729503125,60.807565625,62.0,82.0
266,60.0806440625,60.8652578125,57.0,90.0
267,59.849875312500004,60.88256546875,50.0,93.0
268,60.7729503125,61.39410286458333,55.0,82.0
269,61.6960253125,61.971024739583335,55.0,89.0
270,60.7729503125,61.98064010416667,43.0,89.0
271,61.6960253125,61.98064010416667,59.0,90.0
272,61.2344878125,61.982563177083335,50.0,75.0
273,61.6960253125,62.02871692708333,62.0,90.0
274,62.6191003125,63.15371458333333,62.0,89.0
275,62.6191003125,63.20371447916667,59.0,83.0
276,62.6191003125,63.226791354166664,66.0,84.0
277,63.0806378125,63.65179046875,54.0,75.0
278,62.6191003125,63.94794369791667,47.0,90.0
279,63.5421753125,64.03448197916667,62.0,93.0
280,63.5421753125,64.038328125,59.0,90.0
281,64.0037128125,64.09409723958333,54.0,72.0
282,63.5421753125,64.12678947916666,66.0,90.0
283,64.2344815625,64.38063510416667,59.0,84.0
284,64.4652503125,65.04986447916667,67.0,86.0
285,64.4652503125,65.06717213541667,64.0,89.0
286,64.4652503125,65.12486432291666,59.0,85.0
287,64.4652503125,65.47870973958334,40.0,90.0
288,65.3883253125,65.607555625,64.0,89.0
289,65.3883253125,65.6190940625,67.0,84.0
290,66.3114003125,66.90947598958333,62.0,82.0
291,66.3114003125,66.92101442708334,59.0,79.0
292,66.3114003125,66.95562973958333,66.0,81.0
293,66.7729378125,67.32293666666666,54.0,74.0
294,66.3114003125,67.42870567708333,47.0,84.0
295,67.2344753125,67.44409026041667,59.0,86.0
296,67.2344753125,67.71524354166667,62.0,88.0
297,67.2344753125,67.73639734375,66.0,84.0
298,67.6960128125,67.80755104166667,59.0,81.0
299,68.1575503125,68.63639546875,60.0,81.0
300,68.1575503125,68.68447229166667,57.0,77.0
301,68.6190878125,69.115240625,52.0,67.0
302,69.0806253125,69.33639401041667,57.0,85.0
303,69.0806253125,69.36908625,60.0,90.0
304,69.0806253125,69.39408619791666,64.0,90.0
305,68.1575503125,69.57870119791667,45.0,88.0
306,69.3113940625,69.65562411458333,52.0,84.0
307,69.5421628125,69.66716255208334,57.0,85.0
308,69.7729315625,69.86908520833333,52.0,51.0
309,70.0037003125,70.5806221875,59.0,75.0
310,70.0037003125,70.60562213541667,62.0,86.0
311,70.4652378125,71.10562109375,54.0,73.0
312,70.0037003125,71.2498515625,47.0,89.0
313,70.9267753125,71.32485140625,66.0,89.0
314,70.9267753125,71.35562057291666,59.0,89.0
315,71.3883128125,71.56908166666666,47.0,85.0
316,71.8498503125,72.36908,57.0,78.0
317,71.8498503125,72.44984906250001,60.0,84.0
318,71.84792723958333,72.52292583333333,62.0,97.0
319,72.5421565625,72.69023317708333,57.0,80.0
320,72.3113878125,72.82677135416667,52.0,79.0
321,71.8498503125,73.09407848958334,45.0,89.0
322,73.0036940625,73.12484765625,52.0,90.0
323,72.7729253125,73.26907812500001,64.0,95.0
324,73.2344628125,73.41715473958334,57.0,91.0
325,73.6960003125,74.01330734375,57.0,91.0
326,73.6960003125,74.26330682291666,62.0,89.0
327,74.1575378125,74.47292177083334,57.0,85.0
328,73.6960003125,74.70753666666667,50.0,82.0
329,74.6190753125,74.85369020833333,57.0,89.0
330,74.6190753125,74.89792088541667,62.0,94.0
331,74.8498440625,74.9652284375,50.0,91.0
332,74.6190753125,75.14215114583334,66.0,91.0
333,75.3113815625,75.37291989583333,62.0,81.0
334,75.08061281250001,75.4152275,57.0,90.0
335,75.5421503125,76.05368770833333,59.0,85.0
336,75.5421503125,76.09214916666667,55.0,84.0
337,76.0036878125,76.51522520833333,50.0,73.0
338,76.4652253125,76.90176286458333,55.0,91.0
339,75.5421503125,76.94599354166667,43.0,89.0
340,76.4652253125,76.94599354166667,62.0,90.0
341,76.9267628125,77.03060875,50.0,87.0
342,77.38830031250001,77.90945307291666,59.0,87.0
343,77.38830031250001,77.91137614583333,62.0,89.0
344,78.0806065625,78.17099098958333,59.0,82.0
345,77.8498378125,78.34406755208333,54.0,73.0
346,77.38830031250001,78.59599010416667,47.0,89.0
347,78.3113753125,78.63060541666667,59.0,91.0
348,78.5421440625,78.65945151041667,54.0,89.0
349,78.3113753125,78.72483598958334,66.0,89.0
350,78.7729128125,78.9575278125,62.0,94.0
351,79.0036815625,79.1421428125,59.0,82.0
352,79.2344503125,79.69983395833333,59.0,84.0
353,79.2344503125,79.84791057291666,67.0,82.0
354,79.69598781250001,80.33444802083334,47.0,59.0
355,80.1575253125,80.39021713541666,59.0,89.0
356,79.2344503125,80.43252473958333,40.0,90.0
357,80.1575253125,80.60175515625001,64.0,94.0
358,80.1575253125,80.77290864583334,67.0,90.0
359,80.6190628125,80.884446875,59.0,89.0
360,81.0806003125,81.57483005208333,59.0,84.0
361,81.0806003125,81.61329151041667,62.0,89.0
362,81.5421378125,81.83636796875,54.0,79.0
363,81.0806003125,81.89790630208333,66.0,81.0
364,81.7729065625,82.0729059375,59.0,95.0
365,81.7729065625,82.24790557291666,62.0,91.0
366,82.00367531250001,82.34405921875,54.0,84.0
367,81.0806003125,82.48252046875,47.0,89.0
368,82.2344440625,82.54790494791666,59.0,90.0
369,82.4652128125,82.72098151041666,66.0,89.0
370,82.6959815625,82.84213510416667,59.0,77.0
371,82.9267503125,83.54790286458334,60.0,81.0
372,82.9267503125,83.5959796875,57.0,80.0
373,83.3882878125,84.03059416666667,52.0,73.0
374,82.9267503125,84.09790171875,45.0,89.0
375,83.8498253125,84.52482390625,57.0,88.0
376,83.8498253125,84.53443927083333,60.0,90.0
377,83.8498253125,84.5421315625,64.0,90.0
378,84.31136281250001,84.65559286458334,45.0,90.0
379,84.7729003125,85.44789890625,62.0,83.0
380,84.7729003125,85.45943734375,59.0,84.0
381,84.7729003125,85.46905270833334,66.0,83.0
382,85.2344378125,85.78251359375,54.0,77.0
383,85.6959753125,85.97674395833333,59.0,89.0
384,84.7729003125,86.02482078125,47.0,89.0
385,85.6959753125,86.04405151041666,62.0,90.0
386,85.9267440625,86.08443604166666,54.0,82.0
387,85.6959753125,86.20751270833334,66.0,90.0
388,86.1575128125,86.30558942708333,59.0,92.0
389,86.6190503125,86.81904989583333,57.0,78.0
390,86.6190503125,86.87097286458334,55.0,78.0
391,86.6190503125,87.16904916666667,60.0,85.0
392,87.0805878125,87.26520281250001,55.0,86.0
393,86.6190503125,87.3113565625,48.0,88.0
394,87.5421253125,87.83058625,57.0,80.0
395,87.5421253125,88.084431875,62.0,84.0
396,87.5421253125,88.12673947916667,50.0,89.0
397,88.0036628125,88.176739375,57.0,90.0
398,88.4652003125,89.142465075,62.0,81.0
399,88.4652003125,89.18316268125001,55.0,83.0
400,88.9292871375,89.4874257375,50.0,76.0
401,89.39440263750001,89.6114565375,55.0,85.0
402,89.39440263750001,89.66184405,59.0,87.0
403,88.4652003125,89.82463447500001,43.0,89.0
404,89.6269603875,89.82657245625,50.0,82.0
405,89.8595181375,90.0223085625,55.0,80.0
406,90.0920758875,90.78974913750001,62.0,83.0
407,91.2548646375,91.51261614375001,55.0,88.0
408,90.78974913750001,92.00098741875,50.0,73.0
409,90.3246336375,92.02036723125,43.0,83.0
410,91.2548646375,92.09788648125,59.0,86.0
411,91.7199801375,92.09982446250001,55.0,83.0
412,92.1850956375,92.68315681875,57.0,79.0
413,92.1850956375,92.69866066875001,60.0,86.0
414,92.1850956375,92.74129625625001,53.0,84.0
415,93.1153266375,93.25292330625001,57.0,88.0
416,93.1153266375,93.25873725000001,60.0,89.0
417,93.1153266375,93.32850457500001,65.0,90.0
418,92.65021113750001,93.50679885000001,48.0,77.0
419,92.1850956375,93.87695326875,41.0,93.0
420,94.04555763750001,94.56687459375,60.0,83.0
421,94.04555763750001,94.6269520125,65.0,83.0
422,94.04555763750001,94.70447126250001,69.0,85.0
423,94.5106731375,95.02036220625,48.0,76.0
424,94.9757886375,95.21803629375,60.0,98.0
425,94.9757886375,95.2897416,65.0,94.0
426,94.04555763750001,95.30524545,41.0,90.0
427,95.2083463875,95.35757094375,48.0,85.0
428,95.4409041375,95.56105897500001,60.0,92.0
429,95.90601963750001,96.04361630625,38.0,92.0
430,95.90601963750001,96.88201666875001,66.0,83.0
431,95.90601963750001,96.88393974166668,62.0,84.0
432,97.06470859583334,97.38586177291668,62.0,88.0
433,97.29547734583335,97.50893843958335,67.0,77.0
434,96.83393984583334,97.55509218958335,57.0,83.0
435,96.3711351375,97.60893823125001,50.0,81.0
436,97.52624609583334,98.13009099166668,69.0,82.0
437,98.21855234583334,99.54931880416667,57.0,72.0
438,97.75701484583334,99.55316495000001,50.0,91.0
439,98.68008984583335,99.56854953333334,62.0,78.0
440,98.68008984583335,99.59547255416668,66.0,81.0
441,98.68008984583335,99.62816479375002,74.0,91.0
442,99.60316484583335,100.05508698125001,62.0,87.0
443,99.60316484583335,100.16662521041668,55.0,84.0
444,100.06470234583334,100.59931661666668,50.0,79.0
445,100.52623984583335,100.78970083541668,55.0,90.0
446,100.52623984583335,100.80508541875001,59.0,91.0
447,99.60316484583335,100.83393151250002,43.0,90.0
448,100.52623984583335,100.84931609583334,62.0,92.0
449,100.75700859583334,100.98200812708335,50.0,88.0
450,100.98777734583335,101.14162317916667,55.0,92.0
451,101.44931484583334,101.74162192916668,55.0,84.0
452,101.44931484583334,101.98585218958334,60.0,84.0
453,101.91085234583335,102.10123656458335,55.0,77.0
454,102.37238984583334,102.56085099166668,62.0,89.0
455,102.37238984583334,102.57238942916668,55.0,89.0
456,101.44931484583334,102.83777349166668,48.0,86.0
457,102.83392734583335,103.20508041875001,60.0,81.0
458,103.29546484583335,103.77815614791668,59.0,83.0
459,103.29546484583335,103.82046375208334,55.0,82.0
460,103.75700234583334,104.34546265833335,50.0,66.0
461,104.21853984583335,104.72430802291667,59.0,91.0
462,103.29546484583335,104.73969260625002,43.0,91.0
463,104.21853984583335,104.85892312708334,62.0,89.0
464,104.68007734583334,104.90123073125001,50.0,80.0
465,104.91084609583335,105.06276885625002,55.0,88.0
466,105.14161484583335,105.43969114791668,55.0,88.0
467,105.14161484583335,105.75122896041668,60.0,89.0
468,105.60315234583334,105.85892104375002,55.0,89.0
469,105.14161484583335,106.17430500208334,48.0,88.0
470,106.06468984583334,106.30699703333335,59.0,84.0
471,106.06468984583334,106.47045823125,62.0,87.0
472,106.52622734583335,106.79161140833335,55.0,85.0
473,106.52622734583335,106.93968802291668,60.0,89.0
474,106.98776484583334,107.43968698125,59.0,84.0
475,106.98776484583334,107.46661000208334,55.0,83.0
476,107.91083984583335,107.976224325,55.0,77.0
477,107.44930234583335,107.97814739791667,50.0,68.0
478,107.91083984583335,108.15507010625001,59.0,91.0
479,107.91083984583335,108.21468536666669,62.0,90.0
480,108.37237734583334,108.48776172083335,57.0,69.0
481,108.14160859583335,108.50891552291668,50.0,82.0
482,106.98776484583334,108.56660771041668,43.0,89.0
483,108.60314609583335,108.75506885625,59.0,81.0
484,108.83391484583335,109.27045239791667,60.0,89.0
485,108.83391484583335,109.30891385625002,55.0,83.0
486,109.75698984583335,109.98198937708335,55.0,89.0
487,108.83391484583335,110.12045062708334,48.0,89.0
488,109.75698984583335,110.12814291875002,62.0,91.0
489,110.21852734583334,110.46468067916668,55.0,84.0
490,110.21852734583334,110.47044989791668,60.0,87.0
491,110.68006484583334,111.18390995000001,59.0,84.0
492,110.68006484583334,111.20890989791668,55.0,82.0
493,111.60313984583334,111.89160078333335,55.0,85.0
494,111.60313984583334,111.94736989791667,59.0,88.0
495,111.60313984583334,112.09544651250002,62.0,88.0
496,111.14160234583335,112.21275396041668,50.0,73.0
497,112.06467734583335,112.23967698125001,55.0,83.0
498,110.68006484583334,112.33967677291668,43.0,90.0
499,112.52621484583335,112.78006047083335,55.0,84.0
500,112.52621484583335,113.27044406458334,60.0,85.0
501,112.98775234583334,113.28005942916667,55.0,78.0
502,113.44928984583335,113.92428885625002,60.0,87.0
503,113.44928984583335,114.18198062708335,55.0,86.0
504,112.52621484583335,114.31274958541668,48.0,90.0
505,113.91082734583334,114.33005724166668,62.0,83.0
506,114.37236484583335,114.82428698125001,62.0,87.0
507,114.37236484583335,114.93582521041668,55.0,84.0
508,114.83390234583334,115.36851661666668,50.0,79.0
509,115.29543984583334,115.55890083541668,55.0,90.0
510,115.29543984583334,115.57428541875001,59.0,91.0
511,114.37236484583335,115.60313151250001,43.0,90.0
512,115.29543984583334,115.61851609583334,62.0,92.0
513,115.52620859583334,115.75120812708334,50.0,88.0
514,115.75697734583335,115.91082317916667,55.0,92.0
515,116.21851484583334,116.51082192916668,55.0,84.0
516,116.21851484583334,116.75505218958335,60.0,84.0
517,116.68005234583335,116.87043656458334,55.0,77.0
518,117.14158984583335,117.33005099166668,62.0,89.0
519,117.14158984583335,117.34158942916667,55.0,89.0
520,116.21851484583334,117.60697349166668,48.0,86.0
521,117.60312734583334,117.97428041875001,60.0,81.0
522,118.06466484583335,118.54735614791667,59.0,83.0
523,118.06466484583335,118.58966375208334,55.0,82.0
524,118.52620234583334,119.11466265833334,50.0,66.0
525,118.98773984583335,119.49350802291667,59.0,91.0
526,118.06466484583335,119.50889260625001,43.0,91.0
527,118.98773984583335,119.62812312708334,62.0,89.0
528,119.44927734583334,119.67043073125001,50.0,80.0
529,119.68004609583335,119.83196885625001,55.0,88.0
530,119.91081484583334,120.20889114791667,55.0,88.0
531,119.91081484583334,120.52042896041668,60.0,89.0
532,120.37235234583335,120.62812104375001,55.0,89.0
533,119.91081484583334,120.94350500208334,48.0,88.0
534,120.83388984583334,121.07619703333334,59.0,84.0
535,120.83388984583334,121.23965823125002,62.0,87.0
536,121.29542734583335,121.56081140833334,55.0,85.0
537,121.29542734583335,121.70888802291668,60.0,89.0
538,121.75696484583335,122.20888698125,59.0,84.0
539,121.75696484583335,122.23581000208334,55.0,83.0
540,122.68003984583335,122.74542432500002,55.0,77.0
541,122.21850234583334,122.74734739791668,50.0,68.0
542,122.68003984583335,122.92427010625002,59.0,91.0
543,122.68003984583335,122.98388536666667,62.0,90.0
544,123.14157734583334,123.25696172083335,57.0,69.0
545,122.91080859583334,123.27811552291668,50.0,82.0
546,121.75696484583335,123.33580771041667,43.0,89.0
547,123.37234609583334,123.52426885625002,59.0,81.0
548,123.60311484583335,124.03965239791668,60.0,89.0
549,123.60311484583335,124.07811385625001,55.0,83.0
550,124.52618984583334,124.75118937708335,55.0,89.0
551,123.60311484583335,124.88965062708334,48.0,89.0
552,124.52618984583334,124.89734291875001,62.0,91.0
553,124.98772734583335,125.23388067916667,55.0,84.0
554,124.98772734583335,125.23964989791668,60.0,87.0
555,125.44926484583334,125.95310995000001,59.0,84.0
556,125.44926484583334,125.97810989791668,55.0,82.0
557,126.37233984583335,126.66080078333334,55.0,85.0
558,126.37233984583335,126.71656989791668,59.0,88.0
559,126.37233984583335,126.86464651250002,62.0,88.0
560,125.91080234583335,126.98195396041667,50.0,73.0
561,126.83387734583334,127.00887698125001,55.0,83.0
562,125.44926484583334,127.10887677291667,43.0,90.0
563,127.29541484583335,127.80695224166668,57.0,82.0
564,127.29541484583335,127.81656760625,65.0,84.0
565,127.29541484583335,127.82425989791668,60.0,83.0
566,127.98772109583334,128.11272083541667,57.0,81.0
567,128.21848984583335,128.24156672083333,65.0,76.0
568,127.75695234583334,128.33195114791667,48.0,76.0
569,128.21848984583335,128.52233536666668,57.0,91.0
570,128.21848984583335,128.72810416875,60.0,95.0
571,128.68002734583334,129.08964187708335,57.0,80.0
572,128.91079609583335,129.12810333541668,60.0,84.0
573,128.44925859583336,129.18964166875003,48.0,85.0
574,127.29541484583335,129.20887239791668,41.0,89.0
575,129.14156484583333,129.58579468958334,59.0,89.0
576,129.14156484583333,129.65117916875002,66.0,87.0
577,129.83387109583333,129.97425541875,59.0,81.0
578,129.60310234583335,130.19348573125,54.0,77.0
579,130.06463984583334,130.3107931791667,59.0,91.0
580,130.06463984583334,130.3454084916667,62.0,94.0
581,130.29540859583335,130.48194666875003,54.0,78.0
582,129.14156484583333,130.61271562708333,47.0,90.0
583,130.52617734583333,130.69348468958333,59.0,89.0
584,130.98771484583335,131.4800215125,64.0,89.0
585,130.98771484583335,131.53194448125,59.0,85.0
586,131.44925234583334,131.9646358875,47.0,62.0
587,131.91078984583334,132.17617390833334,59.0,91.0
588,131.91078984583334,132.24732760625,67.0,87.0
589,132.14155859583335,132.30694286666667,47.0,84.0
590,130.98771484583335,132.32617359583335,40.0,90.0
591,132.37232734583336,132.530019325,59.0,93.0
592,132.83386484583335,133.35501760625002,59.0,86.0
593,132.83386484583335,133.35886375208335,62.0,85.0
594,133.29540234583334,133.91847797083335,54.0,71.0
595,132.83386484583335,133.99347781458334,47.0,90.0
596,133.75693984583336,134.06270843958333,62.0,91.0
597,133.75693984583336,134.08963146041668,66.0,86.0
598,133.75693984583336,134.09732375208335,59.0,90.0
599,134.21847734583335,134.3184771375,54.0,82.0
600,134.44924609583336,134.63963031458334,59.0,91.0
601,134.68001484583334,135.09732166875,59.0,77.0
602,134.68001484583334,135.1742445854167,67.0,84.0
603,134.68001484583334,135.18001380416666,64.0,90.0
604,135.14155234583336,135.67232047083334,47.0,62.0
605,135.60308984583335,135.83001245000003,59.0,90.0
606,135.60308984583335,135.86078161666669,64.0,94.0
607,135.60308984583335,135.88193541875,67.0,90.0
608,134.68001484583334,135.92231995,40.0,90.0
609,135.83385859583336,135.93962760625,47.0,75.0
610,136.06462734583334,136.19347323125,59.0,93.0
611,136.52616484583334,137.1338558875,57.0,90.0
612,136.52616484583334,137.13577896041667,60.0,90.0
613,136.98770234583336,137.53193198125,52.0,79.0
614,137.44923984583335,137.8723158875,57.0,90.0
615,137.44923984583335,137.88385432500002,60.0,91.0
616,137.44923984583335,137.90500812708333,64.0,93.0
617,136.52616484583334,138.08193083541667,45.0,89.0
618,137.91077734583334,138.25500739791667,52.0,90.0
619,138.37231484583333,138.88000609583335,59.0,85.0
620,138.37231484583333,138.93192906458336,62.0,90.0
621,139.06462109583333,139.13385172083335,59.0,79.0
622,138.83385234583335,139.33962052291668,54.0,77.0
623,139.29538984583334,139.56077390833335,59.0,92.0
624,139.29538984583334,139.62423531458336,66.0,90.0
625,139.52615859583335,139.683850575,54.0,86.0
626,138.37231484583333,139.77038885625,47.0,91.0
627,139.75692734583333,139.90500396041668,59.0,89.0
628,139.75692734583333,139.92038854375002,62.0,90.0
629,140.21846484583335,140.29923390833335,38.0,92.0
630,140.21846484583335,140.49538734583334,57.0,87.0
631,140.21846484583335,140.50692578333334,62.0,89.0
632,140.21846484583335,140.5742333354167,66.0,84.0
633,140.91077109583335,141.33384713750002,57.0,90.0
634,140.68000234583334,141.36846245,50.0,86.0
635,141.14153984583334,141.5876927625,62.0,98.0
636,141.37230859583335,141.6338465125,66.0,96.0
637,141.60307734583336,141.85884604375002,69.0,98.0
638,141.83384609583334,141.92615359583334,62.0,90.0
639,142.06461484583335,142.30884510625,60.0,91.0
640,142.06461484583335,142.40115260625,64.0,95.0
641,142.06461484583335,142.62038291875,48.0,92.0
642,142.29538359583336,142.68576739791666,55.0,89.0
643,142.52615234583334,142.8184594291667,60.0,92.0
644,142.75692109583335,142.88961312708335,64.0,96.0
645,142.98768984583336,143.24153547083336,62.0,88.0
646,142.98768984583336,143.31268916875,66.0,92.0
647,143.67999609583336,143.92614942916668,66.0,95.0
648,143.44922734583335,143.94538015833334,62.0,92.0
649,143.91076484583334,143.94538015833334,62.0,88.0
650,143.21845859583334,144.00307234583335,57.0,90.0
651,142.98768984583336,144.02038000208336,50.0,93.0
652,143.91076484583334,144.29537942916667,55.0,85.0
653,144.60307109583334,144.70884010625002,55.0,86.0
654,144.37230234583336,144.9107627625,50.0,82.0
655,144.83383984583335,145.11076234583334,55.0,90.0
656,144.83383984583335,145.17806989791669,59.0,91.0
657,145.06460859583333,145.2107621375,50.0,84.0
658,144.83383984583335,145.21268521041668,62.0,91.0
659,143.91076484583334,145.24153130416667,43.0,90.0
660,145.29537734583334,145.39345406458335,55.0,95.0
661,145.75691484583334,146.39537505416666,59.0,80.0
662,145.75691484583334,146.43960573125003,57.0,80.0
663,145.75691484583334,146.57422083541667,62.0,88.0
664,146.21845234583333,146.80498958541668,54.0,72.0
665,146.67998984583335,147.17806573125,57.0,95.0
666,146.67998984583335,147.18960416875,62.0,91.0
667,146.67998984583335,147.1953733875,66.0,90.0
668,145.75691484583334,147.21075797083336,47.0,90.0
669,147.14152734583334,147.22229640833334,54.0,75.0
670,147.37229609583335,147.51268041875,59.0,91.0
671,147.60306484583333,148.33767870000003,64.0,92.0
672,147.60306484583333,148.3396017729167,59.0,89.0
673,148.06460234583335,148.59152432500002,47.0,77.0
674,148.52613984583334,148.74537015833334,59.0,90.0
675,148.52613984583334,148.7876777625,64.0,95.0
676,147.60306484583333,148.82806229375,40.0,84.0
677,148.52613984583334,148.83767765833335,67.0,91.0
678,148.75690859583335,148.85690838750003,47.0,84.0
679,148.98767734583333,149.09729250208335,59.0,91.0
680,149.44921484583335,149.49729166875,60.0,79.0
681,149.44921484583335,150.06267510625003,66.0,82.0
682,149.44921484583335,150.08190583541668,57.0,72.0
683,149.44921484583335,150.08767505416668,62.0,81.0
684,149.91075234583334,150.41459745,54.0,70.0
685,150.37228984583334,150.7953658875,62.0,93.0
686,150.37228984583334,150.80498125208334,57.0,89.0
687,150.37228984583334,150.806904325,66.0,90.0
688,149.44921484583335,150.8319042729167,47.0,90.0
689,150.83382734583336,150.93959635625,54.0,88.0
690,151.29536484583335,151.77613307500002,57.0,81.0
691,151.29536484583335,151.79728687708334,60.0,85.0
692,151.75690234583334,152.27420896041667,52.0,68.0
693,152.21843984583336,152.48382390833333,57.0,91.0
694,152.21843984583336,152.51459307500002,60.0,93.0
695,152.21843984583336,152.55113146041668,64.0,91.0
696,151.29536484583335,152.63190052291668,45.0,89.0
697,152.44920859583334,152.65882354375,52.0,83.0
698,152.67997734583335,152.82805396041667,57.0,91.0
699,153.14151484583334,153.80689807500002,59.0,85.0
700,153.14151484583334,153.83189802291668,66.0,81.0
701,153.14151484583334,153.83574416875,62.0,86.0
702,153.60305234583336,154.13958968958335,54.0,69.0
703,154.06458984583335,154.36074307500002,59.0,90.0
704,154.06458984583335,154.3742045854167,62.0,94.0
705,153.14151484583334,154.37612765833336,47.0,91.0
706,154.29535859583333,154.4415121375,54.0,87.0
707,154.06458984583335,154.45881979375002,66.0,92.0
708,154.52612734583334,154.6492040125,47.0,89.0
709,154.98766484583334,155.27997192916666,55.0,89.0
710,154.98766484583334,155.34920255416668,60.0,90.0
711,154.98766484583334,155.50112531458336,64.0,91.0
712,155.44920234583333,155.74343250208335,55.0,89.0
713,155.67997109583334,155.78381703333335,60.0,88.0
714,155.21843359583335,156.18958541875003,43.0,74.0
715,155.91073984583335,156.28573906458334,55.0,86.0
716,155.91073984583335,156.3530466166667,60.0,90.0
717,154.98766484583334,156.43573875208335,36.0,88.0
718,156.37227734583334,156.46458484583334,43.0,90.0
719,155.91073984583335,156.47612328333335,67.0,89.0
720,156.83381484583333,157.11266041875,57.0,75.0
721,156.83381484583333,157.24342937708334,62.0,83.0
722,157.29535234583335,157.41650593958335,57.0,88.0
723,157.06458359583334,157.59535172083335,45.0,85.0
724,157.52612109583333,157.81265896041668,57.0,92.0
725,157.52612109583333,157.86265885625002,66.0,90.0
726,157.75688984583334,158.08188916875002,45.0,90.0
727,157.98765859583335,158.2261196375,57.0,90.0
728,157.98765859583335,158.30881177291667,62.0,89.0
729,158.44919609583334,158.69150328333336,57.0,85.0
730,156.83381484583333,158.72804166875,38.0,98.0
731,158.21842734583333,158.77996463750003,45.0,86.0
732,158.67996484583335,159.06457942916668,55.0,85.0
733,158.67996484583335,159.12419468958336,62.0,88.0
734,159.37227109583336,159.47804010625,55.0,86.0
735,159.14150234583335,159.6799627625,50.0,82.0
736,159.60303984583334,159.87996234583335,55.0,90.0
737,159.60303984583334,159.94726989791667,59.0,91.0
738,159.83380859583335,159.97996213750002,50.0,84.0
739,159.60303984583334,159.9818852104167,62.0,91.0
740,158.67996484583335,160.01073130416668,43.0,90.0
741,160.06457734583336,160.16265406458334,55.0,95.0
742,160.52611484583335,161.16457505416668,59.0,80.0
743,160.52611484583335,161.20880573125,57.0,80.0
744,160.52611484583335,161.34342083541668,62.0,88.0
745,160.98765234583334,161.57418958541666,54.0,72.0
746,161.44918984583336,161.94726573125,57.0,95.0
747,161.44918984583336,161.95880416875002,62.0,91.0
748,161.44918984583336,161.96457338750002,66.0,90.0
749,160.52611484583335,161.97995797083334,47.0,90.0
750,161.91072734583335,161.99149640833335,54.0,75.0
751,162.14149609583336,162.28188041875,59.0,91.0
752,162.37226484583334,163.1068787,64.0,92.0
753,162.37226484583334,163.10880177291668,59.0,89.0
754,162.83380234583336,163.360724325,47.0,77.0
755,163.29533984583333,163.51457015833336,59.0,90.0
756,163.29533984583333,163.5568777625,64.0,95.0
757,162.37226484583334,163.59726229375002,40.0,84.0
758,163.29533984583333,163.60687765833336,67.0,91.0
759,163.52610859583336,163.6261083875,47.0,84.0
760,163.75687734583335,163.86649250208336,59.0,91.0
761,164.21841484583337,164.26649166875,60.0,79.0
762,164.21841484583337,164.83187510625,66.0,82.0
763,164.21841484583337,164.85110583541666,57.0,72.0
764,164.21841484583337,164.85687505416666,62.0,81.0
765,164.67995234583333,165.18379745000001,54.0,70.0
766,165.14148984583335,165.5645658875,62.0,93.0
767,165.14148984583335,165.57418125208335,57.0,89.0
768,165.14148984583335,165.57610432500002,66.0,90.0
769,164.21841484583337,165.60110427291667,47.0,90.0
770,165.60302734583334,165.70879635625,54.0,88.0
771,166.06456484583333,166.54533307500003,57.0,81.0
772,166.06456484583333,166.56648687708335,60.0,85.0
773,166.52610234583335,167.04340896041668,52.0,68.0
774,166.98763984583334,167.25302390833335,57.0,91.0
775,166.98763984583334,167.283793075,60.0,93.0
776,166.98763984583334,167.3203314604167,64.0,91.0
777,166.06456484583333,167.4011005229167,45.0,89.0
778,167.21840859583335,167.42802354375002,52.0,83.0
779,167.44917734583333,167.59725396041668,57.0,91.0
780,167.91071484583335,168.576098075,59.0,85.0
781,167.91071484583335,168.6010980229167,66.0,81.0
782,167.91071484583335,168.60494416875002,62.0,86.0
783,168.37225234583335,168.90878968958333,54.0,69.0
784,168.83378984583334,169.12994307500003,59.0,90.0
785,168.83378984583334,169.14340458541668,62.0,94.0
786,167.91071484583335,169.14532765833334,47.0,91.0
787,169.06455859583335,169.21071213750002,54.0,87.0
788,168.83378984583334,169.22801979375,66.0,92.0
789,169.29532734583336,169.4184040125,47.0,89.0
790,169.75686484583335,170.05494114791668,60.0,85.0
791,169.75686484583335,170.2145562,64.0,88.0
792,169.75686484583335,170.49724791875002,48.0,91.0
793,170.21840234583334,170.50109406458336,60.0,90.0
794,169.98763359583336,170.53186323125001,55.0,81.0
795,170.44917109583335,170.61647843958335,64.0,91.0
796,170.67993984583336,170.97417000208333,62.0,83.0
797,170.67993984583336,171.14724656458333,50.0,91.0
798,170.91070859583334,171.14724656458333,57.0,73.0
799,170.67993984583336,171.15493885625,66.0,87.0
800,171.14147734583335,171.43378442916668,62.0,90.0
801,171.60301484583334,171.85878354375,67.0,84.0
802,171.60301484583334,171.8895527104167,62.0,85.0
803,172.06455234583336,172.5876281791667,50.0,70.0
804,172.52608984583333,172.70108948125,55.0,90.0
805,172.52608984583333,172.71455099166667,60.0,92.0
806,172.75685859583336,173.19147307500003,50.0,81.0
807,172.98762734583335,173.2030115125,55.0,87.0
808,171.60301484583334,173.26070370000002,43.0,89.0
809,173.44916484583337,173.9549330229167,59.0,82.0
810,173.44916484583337,173.97800989791668,55.0,84.0
811,173.91070234583333,174.20493250208335,50.0,78.0
812,174.14147109583334,174.42031666875002,62.0,91.0
813,174.14147109583334,174.43185510625,55.0,90.0
814,174.37223984583335,174.73570062708336,50.0,82.0
815,174.60300859583333,174.8876233875,55.0,90.0
816,175.06454609583335,175.29339177291666,55.0,87.0
817,174.60300859583333,175.29531484583333,59.0,90.0
818,174.83377734583334,175.34339166875003,50.0,84.0
819,173.44916484583337,175.37031468958332,43.0,90.0
820,175.27993026250002,175.74531390833334,60.0,90.0
821,175.28185333541668,175.78377536666667,53.0,91.0
822,175.729929325,176.26646666875,48.0,70.0
823,176.18569760625002,176.4530047416667,57.0,91.0
824,176.1799283875,176.46262010625003,65.0,89.0
825,176.17800531458334,176.46838932500003,60.0,94.0
826,176.38377411666667,176.95684984583335,48.0,85.0
827,176.63569666875003,176.9722344291667,53.0,80.0
828,175.28762255416666,176.99531130416668,41.0,91.0
829,176.8491577625,177.00492666875002,57.0,89.0
830,177.08954187708335,177.56069474166668,57.0,89.0
831,177.10108031458333,177.5722331791667,53.0,84.0
832,177.09146495000002,177.5837716166667,60.0,89.0
833,177.5780023979167,177.8183865125,48.0,67.0
834,177.78184812708335,178.07030906458334,65.0,89.0
835,177.78569427291666,178.07800135625,53.0,89.0
836,178.0106938041667,178.31261625208333,48.0,89.0
837,178.25684713750002,178.44723135625003,53.0,91.0
838,177.09723416875,178.48376974166666,41.0,90.0
839,178.25107791875,178.50300047083334,57.0,90.0
840,178.27415479375003,178.50492354375,65.0,83.0
841,178.24723177291668,178.52030812708335,60.0,91.0
842,178.43569291875002,178.54146192916667,48.0,85.0
843,178.67800010625,178.8337690125,53.0,89.0
844,178.91838422083333,179.50107531458335,53.0,84.0
845,178.92030729375,179.54530599166668,57.0,84.0
846,178.91646114791666,179.6433827104167,60.0,87.0
847,179.41453703333335,179.97030510625,48.0,75.0
848,179.87992067916667,180.11068942916668,65.0,90.0
849,179.8722283875,180.1260740125,60.0,98.0
850,179.87415146041667,180.12799708541667,57.0,94.0
851,180.09915099166668,180.27799677291668,48.0,89.0
852,178.91069192916666,180.299150575,41.0,90.0
853,180.3414581791667,180.42991953333336,53.0,81.0
854,180.56068849166667,180.67799593958335,57.0,78.0
855,180.55491927291666,180.68953437708336,60.0,85.0
856,180.80299567916668,181.31837922083335,65.0,89.0
857,180.79722646041668,181.32222536666666,57.0,84.0
858,180.79145724166668,181.33184073125,60.0,88.0
859,181.26453317916668,181.52030187708334,48.0,71.0
860,181.50491729375,181.74530140833335,53.0,90.0
861,181.49722500208333,181.82991661666668,57.0,92.0
862,181.48953271041668,181.82991661666668,65.0,91.0
863,181.49530192916666,181.83953198125,60.0,95.0
864,180.79914953333335,181.8933780229167,41.0,90.0
865,181.94145484583333,182.00299317916668,57.0,79.0
866,181.93953177291667,182.03376234583334,60.0,74.0
867,181.71260916875002,182.16453130416667,48.0,85.0
868,181.94530099166667,182.42606922083334,53.0,95.0
869,182.18183896041668,182.54529974166667,57.0,88.0
870,182.39722312708335,182.65491489791668,60.0,86.0
871,182.65106875208335,182.75683776250003,36.0,89.0
872,182.65876104375002,182.88760672083333,48.0,89.0
873,182.65683797083335,182.9202989604167,55.0,88.0
874,183.32606734583334,183.87606620000003,64.0,91.0
875,183.32799041875,183.90106614791668,60.0,91.0
876,183.33568271041668,183.92221995,48.0,91.0
877,184.00875823125,184.08183500208335,64.0,92.0
878,184.00683515833333,184.09145036666666,60.0,89.0
879,184.00491208541666,184.13375797083336,67.0,88.0
880,184.48568031458336,184.57245612916668,38.0,91.0
881,184.49144953333337,185.22496372083336,66.0,85.0
882,184.49721875208334,185.22882471250003,62.0,89.0
883,185.39291685833334,185.53577355000002,66.0,84.0
884,185.38712537083336,185.57824445833336,69.0,85.0
885,185.61106288750003,185.82148693333335,57.0,72.0
886,185.85623585833335,186.20758610000001,62.0,89.0
887,186.3639562625,186.6631831166667,57.0,80.0
888,186.358164775,186.6882795625,60.0,87.0
889,186.36588675833335,186.77708237083334,65.0,86.0
890,186.82920575833336,186.91993906250002,57.0,75.0
891,186.58017179583334,187.1786255041667,48.0,77.0
892,187.0512127791667,187.35816161666668,65.0,89.0
893,187.04928228333335,187.36781409583335,57.0,87.0
894,187.05314327500002,187.37746657500003,60.0,91.0
895,187.52804525000002,187.72688632083336,57.0,89.0
896,187.52611475416668,188.095611025,60.0,92.0
897,186.36781725416668,188.1535259,41.0,90.0
898,187.52032326666668,188.15738689166668,65.0,90.0
899,187.95082383750002,188.19985780000002,57.0,87.0
900,187.73267780833336,188.2037187916667,48.0,86.0
901,188.20564928750002,188.43344779583336,60.0,87.0
902,188.20757978333336,188.4932931666667,64.0,91.0
903,188.2095102791667,188.54927754583335,67.0,89.0
904,188.42379531666668,188.78093704583335,43.0,82.0
905,188.21144077500003,188.8118249791667,36.0,88.0
906,188.64966332916669,188.83306043333334,60.0,92.0
907,189.1554532375,189.3620162916667,62.0,90.0
908,189.14773125416667,189.41413967916668,66.0,89.0
909,189.60911975833335,189.77514240000002,62.0,94.0
910,189.35815530000002,189.96047000000002,45.0,73.0
911,189.14966175,189.98749694166668,38.0,93.0
912,189.84077925833336,190.0820912375,62.0,82.0
913,189.82340479583334,190.10139619583336,69.0,84.0
914,190.08595222916668,190.3692006666667,55.0,84.0
915,190.08595222916668,190.41150827083337,62.0,89.0
916,190.5480464479167,190.8576611875,55.0,95.0
917,190.77881519791669,190.90189186458335,59.0,86.0
918,190.3172776979167,191.14035290625003,50.0,76.0
919,191.0095839479167,191.29612181250002,55.0,81.0
920,191.0095839479167,191.33458327083335,67.0,91.0
921,191.2403526979167,191.52496748958336,50.0,89.0
922,190.08595222916668,191.54996743750002,43.0,90.0
923,191.7018901979167,191.7768900416667,55.0,86.0
924,191.4711214479167,191.78073618750003,62.0,91.0
925,191.9326589479167,192.2268891041667,59.0,84.0
926,191.9326589479167,192.2672736354167,62.0,90.0
927,192.3941964479167,192.64419592708336,62.0,89.0
928,192.62496519791668,192.74804186458337,59.0,91.0
929,192.8557339479167,193.0749642604167,59.0,92.0
930,192.8557339479167,193.18073327083337,66.0,92.0
931,191.9326589479167,193.24996389583336,47.0,91.0
932,193.0865026979167,193.27496384375002,54.0,77.0
933,193.31727144791668,193.5941939479167,62.0,90.0
934,193.5480401979167,193.70573217708335,59.0,89.0
935,193.7788089479167,194.0153469166667,59.0,83.0
936,193.7788089479167,194.0615006666667,64.0,86.0
937,194.2403464479167,194.5345766041667,67.0,82.0
938,194.4711151979167,194.60765337500004,59.0,82.0
939,194.00957769791668,194.78649915625002,47.0,77.0
940,194.70188394791668,194.96149879166668,59.0,93.0
941,193.7788089479167,195.0364986354167,40.0,90.0
942,194.70188394791668,195.0653447291667,64.0,91.0
943,194.9326526979167,195.08072931250004,47.0,87.0
944,195.1634214479167,195.34226722916668,59.0,90.0
945,195.6249589479167,195.90765066666668,59.0,89.0
946,195.6249589479167,195.97303514583336,62.0,90.0
947,195.8557276979167,196.19226545833337,54.0,73.0
948,196.0864964479167,196.38072660416668,59.0,87.0
949,196.3172651979167,196.57880311458337,54.0,83.0
950,196.5480339479167,197.05187905208336,59.0,92.0
951,196.7788026979167,197.10957123958337,54.0,90.0
952,196.5480339479167,197.20380181250002,66.0,92.0
953,195.6249589479167,197.24418634375002,47.0,90.0
954,197.0095714479167,197.2807247291667,62.0,91.0
955,197.24034019791668,197.3614937916667,59.0,86.0
956,197.4711089479167,197.76533910416669,57.0,87.0
957,197.4711089479167,198.0134155104167,60.0,89.0
958,197.93264644791668,198.45572228125002,57.0,90.0
959,197.7018776979167,198.50187603125002,52.0,80.0
960,198.3941839479167,198.92879821875002,64.0,94.0
961,197.4711089479167,199.0499518125,45.0,89.0
962,198.62495269791668,199.13456702083337,52.0,90.0
963,198.8557214479167,199.17687462500004,57.0,91.0
964,199.0864901979167,199.2422591041667,60.0,83.0
965,199.31725894791668,199.66725821875002,59.0,87.0
966,199.31725894791668,199.82879634375,62.0,87.0
967,199.7787964479167,200.2345647291667,66.0,90.0
968,200.0095651979167,200.2980261354167,59.0,89.0
969,200.2403339479167,200.60379472916668,54.0,85.0
970,199.31725894791668,200.76917900000004,47.0,91.0
971,200.4711026979167,200.77494821875004,59.0,90.0
972,200.7018714479167,200.9441786354167,62.0,89.0
973,200.9326401979167,201.0018708229167,59.0,82.0
974,201.1634089479167,201.3076394166667,55.0,83.0
975,201.1634089479167,201.47494676041669,60.0,87.0
976,201.3941776979167,201.66148483333336,55.0,83.0
977,201.6249464479167,201.93840733333337,60.0,86.0
978,201.8557151979167,201.9653303541667,55.0,78.0
979,202.0864839479167,202.22302212500003,55.0,91.0
980,201.1634089479167,202.46532931250002,48.0,91.0
981,202.0864839479167,202.51532920833336,64.0,96.0
982,202.3172526979167,202.5595598854167,55.0,88.0
983,202.54802144791668,202.79994400000004,60.0,87.0
984,202.7787901979167,202.94225139583335,55.0,78.0
985,203.0095589479167,203.26148150000003,57.0,86.0
986,203.0095589479167,203.31340446875004,62.0,91.0
987,203.0095589479167,203.35763514583337,66.0,86.0
988,203.4710964479167,203.57301931250004,57.0,92.0
989,203.24032769791668,203.74032665625003,45.0,89.0
990,203.7018651979167,203.96532618750004,57.0,95.0
991,203.7018651979167,204.1172489479167,64.0,96.0
992,203.93263394791668,204.1980180104167,45.0,93.0
993,204.1634026979167,204.46724821875003,57.0,88.0
994,204.1634026979167,204.52494040625004,62.0,90.0
995,203.0095589479167,204.60955561458337,38.0,95.0
996,204.3941714479167,204.6826323854167,45.0,88.0
997,204.6249401979167,204.76532452083336,57.0,86.0
998,204.6249401979167,204.81340134375003,60.0,89.0
999,204.8557089479167,205.13840066666668,55.0,84.0
1000,204.8557089479167,205.18070827083335,62.0,89.0
1001,205.3172464479167,205.62686118750003,55.0,95.0
1002,205.5480151979167,205.67109186458336,59.0,86.0
1003,205.0864776979167,205.90955290625004,50.0,76.0
1004,205.77878394791668,206.06532181250003,55.0,81.0
1005,205.77878394791668,206.10378327083336,67.0,91.0
1006,206.0095526979167,206.29416748958337,50.0,89.0
1007,204.8557089479167,206.31916743750003,43.0,90.0
1008,206.47109019791668,206.5460900416667,55.0,86.0
1009,206.2403214479167,206.54993618750004,62.0,91.0
1010,206.7018589479167,206.99608910416669,59.0,84.0
1011,206.7018589479167,207.03647363541668,62.0,90.0
1012,207.16339644791668,207.41339592708337,62.0,89.0
1013,207.3941651979167,207.51724186458335,59.0,91.0
1014,207.6249339479167,207.8441642604167,59.0,92.0
1015,207.6249339479167,207.94993327083336,66.0,92.0
1016,206.7018589479167,208.01916389583337,47.0,91.0
1017,207.85570269791668,208.04416384375003,54.0,77.0
1018,208.0864714479167,208.3633939479167,62.0,90.0
1019,208.3172401979167,208.47493217708336,59.0,89.0
1020,208.54800894791668,208.7845469166667,59.0,83.0
1021,208.54800894791668,208.8307006666667,64.0,86.0
1022,209.0095464479167,209.3037766041667,67.0,82.0
1023,209.2403151979167,209.37685337500002,59.0,82.0
1024,208.7787776979167,209.55569915625003,47.0,77.0
1025,209.4710839479167,209.7306987916667,59.0,93.0
1026,208.54800894791668,209.8056986354167,40.0,90.0
1027,209.4710839479167,209.83454472916668,64.0,91.0
1028,209.7018526979167,209.84992931250002,47.0,87.0
1029,209.9326214479167,210.1114672291667,59.0,90.0
1030,210.3941589479167,210.6768506666667,59.0,89.0
1031,210.3941589479167,210.74223514583338,62.0,90.0
1032,210.6249276979167,210.96146545833335,54.0,73.0
1033,210.8556964479167,211.1499266041667,59.0,87.0
1034,211.0864651979167,211.34800311458335,54.0,83.0
1035,211.3172339479167,211.82107905208335,59.0,92.0
1036,211.5480026979167,211.87877123958336,54.0,90.0
1037,211.3172339479167,211.97300181250003,66.0,92.0
1038,210.3941589479167,212.01338634375003,47.0,90.0
1039,211.77877144791668,212.0499247291667,62.0,91.0
1040,212.0095401979167,212.1306937916667,59.0,86.0
1041,212.2403089479167,212.5345391041667,57.0,87.0
1042,212.2403089479167,212.7826155104167,60.0,89.0
1043,212.7018464479167,213.22492228125003,57.0,90.0
1044,212.47107769791668,213.27107603125003,52.0,80.0
1045,213.16338394791669,213.69799821875003,64.0,94.0
1046,212.2403089479167,213.81915181250002,45.0,89.0
1047,213.3941526979167,213.90376702083336,52.0,90.0
1048,213.6249214479167,213.94607462500002,57.0,91.0
1049,213.8556901979167,214.0114591041667,60.0,83.0
1050,214.0864589479167,214.43645821875003,59.0,87.0
1051,214.0864589479167,214.59799634375003,62.0,87.0
1052,214.5479964479167,215.0037647291667,66.0,90.0
1053,214.7787651979167,215.0672261354167,59.0,89.0
1054,215.00953394791668,215.3729947291667,54.0,85.0
1055,214.0864589479167,215.53837900000002,47.0,91.0
1056,215.2403026979167,215.54414821875002,59.0,90.0
1057,215.4710714479167,215.7133786354167,62.0,89.0
1058,215.70184019791668,215.7710708229167,59.0,82.0
1059,215.9326089479167,216.22491603125002,55.0,89.0
1060,216.1633776979167,216.45568478125003,43.0,66.0
1061,215.9326089479167,216.4922231666667,64.0,91.0
1062,215.9326089479167,216.49606931250003,36.0,89.0
1063,216.39414644791668,216.6710689479167,55.0,93.0
1064,216.6249151979167,216.77106873958337,60.0,89.0
1065,216.8556839479167,217.34222139583335,57.0,84.0
1066,216.8556839479167,217.45183655208336,38.0,92.0
1067,216.8556839479167,217.5422209791667,62.0,86.0
1068,217.77875894791669,218.3210655104167,59.0,88.0
1069,217.77875894791669,218.34221931250002,55.0,89.0
1070,218.2402964479167,218.74029540625003,50.0,73.0
1071,218.7018339479167,218.93837191666668,62.0,93.0
1072,218.7018339479167,218.94029498958335,55.0,89.0
1073,218.7018339479167,218.94221806250002,59.0,94.0
1074,218.9326026979167,219.24798665625002,50.0,84.0
1075,217.77875894791669,219.2614481666667,43.0,90.0
1076,219.3941401979167,219.61144743750003,59.0,90.0
1077,219.1633714479167,219.6133705104167,55.0,89.0
1078,219.6249089479167,219.91529295833337,61.0,89.0
1079,219.6249089479167,220.00375431250004,65.0,89.0
1080,219.6249089479167,220.05375420833337,68.0,89.0
1081,219.6249089479167,220.29221525000003,37.0,90.0
1082,219.8556776979167,220.32490748958335,44.0,80.0
1083,220.0864464479167,220.36529202083335,61.0,91.0
1084,220.3172151979167,220.47106103125003,65.0,95.0
1085,220.5479839479167,220.80567571875002,63.0,91.0
1086,220.5479839479167,220.93067545833335,67.0,95.0
1087,221.00952144791668,221.16721342708337,63.0,95.0
1088,221.2402901979167,221.45567436458336,67.0,91.0
1089,220.7787526979167,221.46144358333336,46.0,86.0
1090,220.5479839479167,221.48644353125002,39.0,96.0
1091,221.4710589479167,221.7537506666667,56.0,84.0
1092,221.4710589479167,221.79605827083336,63.0,89.0
1093,221.9325964479167,222.24221118750003,56.0,95.0
1094,222.1633651979167,222.28644186458337,60.0,86.0
1095,221.70182769791668,222.52490290625002,51.0,76.0
1096,222.39413394791669,222.68067181250004,56.0,81.0
1097,222.39413394791669,222.71913327083337,68.0,91.0
1098,222.6249026979167,222.90951748958335,51.0,89.0
1099,221.4710589479167,222.93451743750003,44.0,90.0
1100,223.0864401979167,223.1614400416667,56.0,86.0
1101,222.85567144791668,223.16528618750004,63.0,91.0
1102,223.3172089479167,223.6114391041667,60.0,84.0
1103,223.3172089479167,223.6518236354167,63.0,90.0
1104,223.7787464479167,224.02874592708338,63.0,89.0
1105,224.0095151979167,224.13259186458336,60.0,91.0
1106,224.24028394791668,224.4595142604167,60.0,92.0
1107,224.24028394791668,224.56528327083336,67.0,92.0
1108,223.3172089479167,224.63451389583335,48.0,91.0
1109,224.4710526979167,224.65951384375003,55.0,77.0
1110,224.7018214479167,224.97874394791668,63.0,90.0
1111,224.93259019791668,225.09028217708337,60.0,89.0
1112,225.1633589479167,225.3998969166667,60.0,83.0
1113,225.1633589479167,225.44605066666668,65.0,86.0
1114,225.62489644791668,225.9191266041667,68.0,82.0
1115,225.8556651979167,225.99220337500003,60.0,82.0
1116,225.3941276979167,226.17104915625004,48.0,77.0
1117,226.0864339479167,226.3460487916667,60.0,93.0
1118,225.1633589479167,226.4210486354167,41.0,90.0
1119,226.0864339479167,226.4498947291667,65.0,91.0
1120,226.31720269791668,226.46527931250003,48.0,87.0
1121,226.5479714479167,226.7268172291667,60.0,90.0
1122,227.0095089479167,227.2922006666667,60.0,89.0
1123,227.0095089479167,227.35758514583335,63.0,90.0
1124,227.2402776979167,227.57681545833336,55.0,73.0
1125,227.4710464479167,227.7652766041667,60.0,87.0
1126,227.7018151979167,227.96335311458336,55.0,83.0
1127,227.9325839479167,228.43642905208335,60.0,92.0
1128,228.1633526979167,228.49412123958336,55.0,90.0
1129,227.9325839479167,228.58835181250004,67.0,92.0
1130,227.0095089479167,228.62873634375003,48.0,90.0
1131,228.3941214479167,228.6652747291667,63.0,91.0
1132,228.6248901979167,228.7460437916667,60.0,86.0
1133,228.8556589479167,229.1498891041667,58.0,87.0
1134,228.8556589479167,229.3979655104167,61.0,89.0
1135,229.3171964479167,229.84027228125004,58.0,90.0
1136,229.0864276979167,229.88642603125004,53.0,80.0
1137,229.7787339479167,230.31334821875004,65.0,94.0
1138,228.8556589479167,230.43450181250003,46.0,89.0
1139,230.0095026979167,230.51911702083336,53.0,90.0
1140,230.2402714479167,230.56142462500003,58.0,91.0
1141,230.4710401979167,230.62680910416668,61.0,83.0
1142,230.7018089479167,231.05180821875,60.0,87.0
1143,230.7018089479167,231.21334634375003,63.0,87.0
1144,231.1633464479167,231.6191147291667,67.0,90.0
1145,231.3941151979167,231.6825761354167,60.0,89.0
1146,231.6248839479167,231.9883447291667,55.0,85.0
1147,230.7018089479167,232.15372900000003,48.0,91.0
1148,231.8556526979167,232.15949821875003,60.0,90.0
1149,232.08642144791668,232.3287286354167,63.0,89.0
1150,232.3171901979167,232.3864208229167,60.0,82.0
1151,232.5479589479167,232.69218941666668,56.0,83.0
1152,232.5479589479167,232.8594967604167,61.0,87.0
1153,232.77872769791668,233.04603483333335,56.0,83.0
1154,233.0094964479167,233.32295733333336,61.0,86.0
1155,233.2402651979167,233.3498803541667,56.0,78.0
1156,233.47103394791668,233.60757212500002,56.0,91.0
1157,232.5479589479167,233.84987931250004,49.0,91.0
1158,233.47103394791668,233.89987920833335,65.0,96.0
1159,233.7018026979167,233.9441098854167,56.0,88.0
1160,233.9325714479167,234.18449400000003,61.0,87.0
1161,234.16334019791668,234.32680139583337,56.0,78.0
1162,234.3941089479167,234.64603150000002,58.0,86.0
1163,234.3941089479167,234.69795446875003,63.0,91.0
1164,234.3941089479167,234.74218514583336,67.0,86.0
1165,234.85564644791668,234.95756931250003,58.0,92.0
1166,234.6248776979167,235.12487665625002,46.0,89.0
1167,235.0864151979167,235.34987618750003,58.0,95.0
1168,235.0864151979167,235.5017989479167,65.0,96.0
1169,235.3171839479167,235.5825680104167,46.0,93.0
1170,235.54795269791668,235.85179821875002,58.0,88.0
1171,235.54795269791668,235.90949040625003,63.0,90.0
1172,234.3941089479167,235.99410561458336,39.0,95.0
1173,235.7787214479167,236.0671823854167,46.0,88.0
1174,236.0094901979167,236.14987452083335,58.0,86.0
1175,236.0094901979167,236.19795134375002,61.0,89.0
1176,236.2402589479167,236.5229506666667,56.0,84.0
1177,236.2402589479167,236.56525827083337,63.0,89.0
1178,236.7017964479167,237.01141118750002,56.0,95.0
1179,236.9325651979167,237.05564186458335,60.0,86.0
1180,236.4710276979167,237.29410290625003,51.0,76.0
1181,237.1633339479167,237.44987181250002,56.0,81.0
1182,237.1633339479167,237.48833327083335,68.0,91.0
1183,237.3941026979167,237.67871748958336,51.0,89.0
1184,236.2402589479167,237.70371743750002,44.0,90.0
1185,237.8556401979167,237.9306400416667,56.0,86.0
1186,237.6248714479167,237.93448618750003,63.0,91.0
1187,238.0864089479167,238.3806391041667,60.0,84.0
1188,238.0864089479167,238.4210236354167,63.0,90.0
1189,238.5479464479167,238.79794592708336,63.0,89.0
1190,238.7787151979167,238.90179186458334,60.0,91.0
1191,239.0094839479167,239.2287142604167,60.0,92.0
1192,239.0094839479167,239.33448327083335,67.0,92.0
1193,238.0864089479167,239.40371389583336,48.0,91.0
1194,239.2402526979167,239.42871384375002,55.0,77.0
1195,239.47102144791668,239.7479439479167,63.0,90.0
1196,239.7017901979167,239.85948217708335,60.0,89.0
1197,239.9325589479167,240.1690969166667,60.0,83.0
1198,239.9325589479167,240.2152506666667,65.0,86.0
1199,240.3940964479167,240.6883266041667,68.0,82.0
1200,240.62486519791668,240.76140337500004,60.0,82.0
1201,240.16332769791669,240.94024915625002,48.0,77.0
1202,240.8556339479167,241.1152487916667,60.0,93.0
1203,239.9325589479167,241.1902486354167,41.0,90.0
1204,240.8556339479167,241.2190947291667,65.0,91.0
1205,241.0864026979167,241.2344793125,48.0,87.0
1206,241.31717144791668,241.49601722916668,60.0,90.0
1207,241.7787089479167,242.06140066666669,60.0,89.0
1208,241.7787089479167,242.12678514583337,63.0,90.0
1209,242.00947769791668,242.34601545833337,55.0,73.0
1210,242.2402464479167,242.53447660416668,60.0,87.0
1211,242.4710151979167,242.73255311458337,55.0,83.0
1212,242.70178394791668,243.20562905208337,60.0,92.0
1213,242.9325526979167,243.26332123958338,55.0,90.0
1214,242.70178394791668,243.35755181250002,67.0,92.0
1215,241.7787089479167,243.39793634375002,48.0,90.0
1216,243.1633214479167,243.4344747291667,63.0,91.0
1217,243.39409019791668,243.5152437916667,60.0,86.0
1218,243.6248589479167,243.9190891041667,58.0,87.0
1219,243.6248589479167,244.16716551041668,61.0,89.0
1220,244.08639644791668,244.60947228125002,58.0,90.0
1221,243.8556276979167,244.65562603125002,53.0,80.0
1222,244.5479339479167,245.08254821875002,65.0,94.0
1223,243.6248589479167,245.20370181250001,46.0,89.0
1224,244.77870269791669,245.28831702083335,53.0,90.0
1225,245.0094714479167,245.33062462500004,58.0,91.0
1226,245.2402401979167,245.3960091041667,61.0,83.0
1227,245.4710089479167,245.82100821875002,60.0,87.0
1228,245.4710089479167,245.98254634375002,63.0,87.0
1229,245.9325464479167,246.3883147291667,67.0,90.0
1230,246.1633151979167,246.4517761354167,60.0,89.0
1231,246.3940839479167,246.75754472916668,55.0,85.0
1232,245.4710089479167,246.922929,48.0,91.0
1233,246.6248526979167,246.92869821875001,60.0,90.0
1234,246.8556214479167,247.09792863541668,63.0,89.0
1235,247.0863901979167,247.1556208229167,60.0,82.0
1236,247.3171589479167,247.60946603125004,56.0,89.0
1237,247.5479276979167,247.84023478125002,44.0,66.0
1238,247.3171589479167,247.87677316666668,65.0,91.0
1239,247.3171589479167,247.88061931250002,37.0,89.0
1240,247.7786964479167,248.05561894791668,56.0,93.0
1241,248.0094651979167,248.15561873958336,61.0,89.0
1242,248.2402339479167,248.72677139583337,58.0,84.0
1243,248.2402339479167,248.83638655208335,39.0,92.0
1244,248.2402339479167,248.9267709791667,63.0,86.0
1245,249.1633089479167,249.7056155104167,60.0,88.0
1246,249.1633089479167,249.72676931250004,56.0,89.0
1247,249.6248464479167,250.12484540625002,51.0,73.0
1248,250.0863839479167,250.3229219166667,63.0,93.0
1249,250.0863839479167,250.32484498958337,56.0,89.0
1250,250.0863839479167,250.32676806250004,60.0,94.0
1251,250.3171526979167,250.63253665625,51.0,84.0
1252,249.1633089479167,250.6459981666667,44.0,90.0
1253,250.7786901979167,250.99599743750002,60.0,90.0
1254,250.54792144791668,250.9979205104167,56.0,89.0
1255,251.0094589479167,251.53830400000004,63.0,85.0
1256,251.0094589479167,251.66714988541668,56.0,78.0
1257,251.4709964479167,252.20176415625002,51.0,70.0
1258,251.93253394791668,252.21714873958337,56.0,84.0
1259,251.0094589479167,252.24022561458335,44.0,88.0
1260,251.93253394791668,252.28253321875002,60.0,83.0
1261,251.93253394791668,252.35176384375004,63.0,86.0
1262,252.8556089479167,253.3344541041667,61.0,84.0
1263,252.8556089479167,253.34406946875004,58.0,77.0
1264,252.8556089479167,253.51522295833337,46.0,85.0
1265,253.31714644791668,253.5536844166667,53.0,75.0
1266,253.7786839479167,254.0959909791667,58.0,83.0
1267,253.7786839479167,254.1075294166667,61.0,90.0
1268,253.7786839479167,254.15176009375003,65.0,90.0
1269,254.67098978125003,255.3998344166667,63.0,86.0
1270,254.67675900000003,255.63252623958334,60.0,82.0
1271,255.115219625,255.6998337916667,55.0,73.0
1272,254.66906670833336,255.82867967708336,48.0,81.0
1273,255.61521858333336,256.084448375,67.0,90.0
1274,256.05944842708334,256.16329436458335,60.0,89.0
1275,256.5190628541667,256.75367775,56.0,73.0
1276,256.5363705104167,257.07098478125005,37.0,84.0
1277,256.9882926458333,257.08636936458333,56.0,71.0
1278,256.5248320729167,257.3786764479167,61.0,79.0
1279,257.4902146770834,257.89982920833336,39.0,78.0
1280,257.4882916041667,258.5671355104167,63.0,87.0
1281,257.49213775000004,258.5729047291667,58.0,78.0
1282,259.51521045833334,260.0805938958334,58.0,75.0
1283,260.00174790625005,260.29020884375,60.0,82.0
1284,258.5517509270834,260.37290097916673,44.0,89.0
1285,259.0594421770834,260.3786701979167,51.0,76.0
1286,260.4767469166667,260.67674650000004,56.0,78.0
1287,260.47290077083335,260.72097717708334,63.0,83.0
1288,261.5036678541667,261.69789821875,70.0,72.0
1289,260.9632843645834,262.5017426979167,49.0,71.0
1290,260.4363623854167,262.5363580104167,42.0,89.0
1291,260.4440546770834,262.5536656666667,54.0,75.0
1292,260.44213160416666,262.55558873958336,58.0,74.0
1293,261.44405259375003,262.5594348854167,61.0,78.0
1294,262.66712696875004,266.45750368750004,44.0,75.0
1295,262.6690500416667,266.4651959791667,68.0,62.0
1296,262.77481905208333,266.47673441666666,72.0,80.0
1297,262.869049625,266.4825036354167,75.0,80.0
1298,262.984434,266.48634978125006,80.0,78.0
