,start,end,pitch,velocity
0,13.911666666666667,14.311666666666667,77.0,76.0
1,14.311666666666667,14.711666666666668,76.0,71.0
2,14.711666666666668,15.111666666666668,74.0,64.0
3,15.111666666666668,15.511666666666668,69.0,64.0
4,15.511666666666668,15.911666666666667,74.0,66.0
5,15.911666666666667,16.311666666666667,76.0,67.0
6,16.311666666666667,16.711666666666666,77.0,79.0
7,16.711666666666666,17.111666666666668,76.0,69.0
8,17.111666666666668,17.511666666666667,74.0,60.0
9,17.511666666666667,17.91166666666667,79.0,83.0
10,17.91166666666667,20.310000000000002,81.0,76.0
11,20.311666666666667,20.71166666666667,81.0,69.0
12,20.71166666666667,21.111666666666668,79.0,72.0
13,21.111666666666668,21.511666666666667,81.0,68.0
14,21.511666666666667,21.91166666666667,74.0,71.0
15,21.91166666666667,22.310000000000002,79.0,83.0
16,22.311666666666667,22.71166666666667,79.0,76.0
17,22.71166666666667,23.111666666666668,81.0,65.0
18,23.111666666666668,23.511666666666667,74.0,67.0
19,23.511666666666667,23.91166666666667,79.0,73.0
20,23.91166666666667,24.311666666666667,77.0,67.0
21,24.311666666666667,26.71166666666667,69.0,55.0
22,26.71166666666667,27.111666666666668,77.0,64.0
23,27.111666666666668,27.511666666666667,76.0,63.0
24,27.511666666666667,27.91166666666667,74.0,59.0
25,27.91166666666667,28.468333333333334,69.0,59.0
26,28.311666666666667,28.71166666666667,74.0,61.0
27,28.71166666666667,29.150000000000002,76.0,62.0
28,29.111666666666668,29.51,77.0,64.0
29,29.51166666666667,29.91166666666667,77.0,81.0
30,29.91166666666667,30.311666666666667,74.0,59.0
31,30.311666666666667,30.71166666666667,84.0,47.0
32,30.71166666666667,33.51166666666667,81.0,67.0
33,33.51166666666667,33.91166666666667,74.0,59.0
34,33.91166666666667,34.31166666666667,81.0,71.0
35,34.31166666666667,34.711666666666666,79.0,71.0
36,34.711666666666666,35.11166666666667,81.0,66.0
37,35.11166666666667,35.51166666666667,79.0,74.0
38,35.51166666666667,36.31166666666667,81.0,70.0
39,36.31166666666667,36.711666666666666,76.0,67.0
40,36.711666666666666,37.11166666666667,72.0,63.0
41,37.11166666666667,39.58833333333334,74.0,69.0
42,39.51166666666667,39.93666666666667,77.0,76.0
43,39.91166666666667,40.31166666666667,76.0,71.0
44,40.31166666666667,40.76166666666667,74.0,64.0
45,40.711666666666666,41.11166666666667,69.0,64.0
46,41.11166666666667,41.593333333333334,74.0,66.0
47,41.51166666666667,42.035000000000004,76.0,67.0
48,41.91166666666667,42.410000000000004,77.0,79.0
49,42.31166666666667,42.410000000000004,77.0,69.0
50,42.711666666666666,43.18166666666667,74.0,60.0
51,43.11166666666667,43.52,79.0,83.0
52,43.51166666666667,45.910000000000004,81.0,76.0
53,45.91166666666667,46.32666666666667,81.0,69.0
54,46.31166666666667,46.77166666666667,79.0,72.0
55,46.71166666666667,47.11166666666667,81.0,68.0
56,47.11166666666667,47.568333333333335,74.0,71.0
57,47.51166666666667,47.910000000000004,79.0,83.0
58,47.91166666666667,48.34666666666667,79.0,76.0
59,48.31166666666667,48.715,81.0,65.0
60,48.71166666666667,49.11166666666667,76.0,67.0
61,49.11166666666667,49.545,79.0,73.0
62,49.51166666666667,49.91166666666667,77.0,67.0
63,49.91166666666667,52.31166666666667,69.0,55.0
64,52.31166666666667,52.71166666666667,77.0,64.0
65,52.71166666666667,53.11666666666667,76.0,63.0
66,53.11166666666667,53.53666666666667,74.0,59.0
67,53.51166666666667,54.223333333333336,69.0,59.0
68,53.91166666666667,54.31166666666667,74.0,61.0
69,54.31166666666667,54.71166666666667,76.0,62.0
70,54.71166666666667,55.11000000000001,77.0,64.0
71,55.11166666666667,55.54666666666667,77.0,81.0
72,55.51166666666667,55.976666666666674,74.0,59.0
73,55.91166666666667,56.31166666666667,84.0,47.0
74,56.31166666666667,59.11166666666667,81.0,67.0
75,59.11166666666667,59.51833333333334,74.0,59.0
76,59.51166666666667,59.92,77.0,71.0
77,59.91166666666667,60.31166666666667,79.0,71.0
78,60.31166666666667,60.73166666666667,81.0,66.0
79,60.71166666666667,61.11166666666667,79.0,74.0
80,61.11166666666667,61.91166666666667,81.0,70.0
81,61.91166666666667,62.71166666666667,72.0,62.0
82,62.71166666666667,63.11000000000001,74.0,65.0
83,63.11166666666667,65.11,74.0,70.0
84,65.11166666666666,65.93666666666667,74.0,61.0
85,65.51166666666667,65.99166666666667,77.0,67.0
86,65.91166666666668,66.36833333333334,81.0,64.0
87,66.31166666666667,67.11,86.0,71.0
88,67.11166666666666,67.53,86.0,70.0
89,67.51166666666667,67.91166666666668,84.0,61.0
90,67.91166666666668,68.71166666666667,86.0,70.0
91,68.71166666666667,69.11166666666666,84.0,65.0
92,69.11166666666666,69.57333333333334,81.0,64.0
93,69.51166666666667,69.92833333333334,84.0,69.0
94,69.91166666666668,70.37,81.0,69.0
95,70.31166666666667,70.76833333333333,79.0,70.0
96,70.71166666666667,71.91000000000001,81.0,60.0
97,71.91166666666668,72.31,81.0,70.0
98,72.31166666666667,72.71166666666667,81.0,74.0
99,72.71166666666667,73.11,76.0,65.0
100,73.11166666666666,73.51,76.0,64.0
101,73.51166666666667,73.91166666666668,76.0,70.0
102,73.91166666666668,74.31166666666667,74.0,72.0
103,74.31166666666667,75.11166666666666,73.0,90.0
104,75.11166666666666,75.59166666666667,76.0,75.0
105,75.51166666666667,75.97333333333334,77.0,73.0
106,75.91166666666668,76.39166666666667,79.0,73.0
107,76.31166666666667,77.91166666666668,81.0,81.0
108,77.91166666666668,78.68333333333334,74.0,58.0
109,78.31166666666667,79.03500000000001,77.0,69.0
110,78.71166666666667,79.11166666666668,81.0,65.0
111,79.11166666666668,79.91000000000001,86.0,81.0
112,79.91166666666668,80.31833333333334,86.0,83.0
113,80.31166666666667,80.71166666666667,84.0,61.0
114,80.71166666666667,81.91166666666668,86.0,93.0
115,81.91166666666668,82.36,82.0,81.0
116,82.31166666666667,82.76833333333335,81.0,64.0
117,82.71166666666667,83.17166666666667,82.0,81.0
118,83.11166666666668,83.51166666666667,81.0,60.0
119,83.51166666666667,84.00666666666667,69.0,52.0
120,83.91166666666668,85.51166666666667,77.0,72.0
121,85.51166666666667,86.30333333333334,76.0,67.0
122,85.91166666666668,86.36333333333334,77.0,81.0
123,86.31166666666667,86.765,79.0,67.0
124,86.71166666666667,87.11166666666668,81.0,62.0
125,87.11166666666668,88.31166666666667,74.0,75.0
126,88.31166666666667,88.78833333333334,77.0,65.0
127,88.71166666666667,89.11166666666668,76.0,66.0
128,89.11166666666668,89.59333333333333,74.0,59.0
129,89.51166666666667,90.31166666666667,77.0,72.0
130,90.31166666666667,95.2,76.0,66.0
131,119.51166666666667,119.93666666666667,77.0,76.0
132,119.91166666666668,120.31166666666667,76.0,71.0
133,120.31166666666667,120.76166666666667,74.0,64.0
134,120.71166666666667,121.11166666666668,69.0,64.0
135,121.11166666666668,121.51166666666667,74.0,66.0
136,121.51166666666667,121.91166666666668,76.0,67.0
137,121.91166666666668,122.31,77.0,79.0
138,122.31166666666667,122.75166666666668,77.0,69.0
139,122.71166666666667,123.18166666666667,74.0,60.0
140,123.11166666666668,123.52000000000001,79.0,83.0
141,123.51166666666667,126.31166666666668,81.0,76.0
142,126.31166666666668,126.78333333333335,74.0,75.0
143,126.71166666666667,127.11166666666668,81.0,66.0
144,127.11166666666668,127.51166666666667,79.0,85.0
145,127.51166666666667,127.91166666666668,81.0,70.0
146,127.91166666666668,128.31166666666667,79.0,62.0
147,128.31166666666667,128.71166666666667,81.0,70.0
148,128.71166666666667,129.15,77.0,75.0
149,129.11166666666668,129.91166666666666,79.0,77.0
150,129.91166666666666,130.31166666666667,77.0,68.0
151,130.31166666666667,132.31166666666667,79.0,80.0
152,132.31166666666667,132.71166666666667,77.0,64.0
153,132.71166666666667,133.11666666666667,76.0,63.0
154,133.11166666666668,133.53666666666666,74.0,59.0
155,133.51166666666668,134.22333333333333,69.0,59.0
156,133.91166666666666,134.375,74.0,61.0
157,134.31166666666667,134.71166666666667,76.0,62.0
158,134.71166666666667,135.11,77.0,64.0
159,135.11166666666668,135.54666666666668,77.0,81.0
160,135.51166666666668,136.005,79.0,77.0
161,135.91166666666666,136.31166666666667,84.0,47.0
162,136.31166666666667,139.11166666666668,81.0,67.0
163,139.11166666666668,139.51833333333335,74.0,59.0
164,139.51166666666668,139.92000000000002,77.0,71.0
165,139.91166666666666,140.31166666666667,79.0,71.0
166,140.31166666666667,140.73166666666668,81.0,66.0
167,140.71166666666667,141.11166666666668,79.0,74.0
168,141.11166666666668,141.56166666666667,81.0,70.0
169,141.51166666666668,142.31166666666667,72.0,72.0
170,142.31166666666667,142.71,74.0,66.0
171,142.71166666666667,145.11,74.0,74.0
172,145.11166666666668,145.93666666666667,74.0,61.0
173,145.51166666666668,145.99166666666667,77.0,67.0
174,145.9116666666667,146.36833333333334,81.0,64.0
175,146.31166666666667,147.11,86.0,71.0
176,147.11166666666668,147.53,86.0,70.0
177,147.51166666666668,147.9116666666667,84.0,61.0
178,147.9116666666667,148.71166666666667,86.0,70.0
179,148.71166666666667,149.11166666666668,84.0,65.0
180,149.11166666666668,149.57333333333335,81.0,64.0
181,149.51166666666668,149.92833333333334,84.0,69.0
182,149.9116666666667,150.31166666666667,81.0,69.0
183,150.31166666666667,150.76833333333335,79.0,70.0
184,150.71166666666667,151.91,81.0,60.0
185,151.9116666666667,152.31,81.0,70.0
186,152.31166666666667,152.71166666666667,81.0,74.0
187,152.71166666666667,153.11,76.0,65.0
188,153.11166666666668,153.51000000000002,76.0,64.0
189,153.51166666666668,153.9116666666667,76.0,70.0
190,153.9116666666667,154.31166666666667,74.0,72.0
191,154.31166666666667,155.11166666666668,73.0,68.0
192,155.11166666666668,155.59166666666667,76.0,75.0
193,155.51166666666668,155.97333333333333,77.0,73.0
194,155.9116666666667,156.39166666666668,79.0,73.0
195,156.31166666666667,157.11166666666668,82.0,81.0
196,157.11166666666668,157.9116666666667,81.0,81.0
197,157.9116666666667,158.68333333333334,74.0,58.0
198,158.31166666666667,159.035,77.0,69.0
199,158.71166666666667,159.11166666666668,81.0,65.0
200,159.11166666666668,159.91,86.0,81.0
201,159.9116666666667,160.31833333333336,86.0,83.0
202,160.31166666666667,160.71166666666667,84.0,61.0
203,160.71166666666667,161.9116666666667,86.0,93.0
204,161.9116666666667,162.36,82.0,81.0
205,162.31166666666667,162.76833333333335,81.0,64.0
206,162.71166666666667,163.17166666666668,82.0,81.0
207,163.11166666666668,163.51166666666668,81.0,60.0
208,163.51166666666668,164.0066666666667,69.0,52.0
209,163.9116666666667,165.51166666666668,77.0,72.0
210,165.51166666666668,165.9116666666667,76.0,67.0
211,165.9116666666667,166.36333333333334,77.0,81.0
212,166.31166666666667,166.76500000000001,79.0,67.0
213,166.71166666666667,167.11166666666668,81.0,62.0
214,167.11166666666668,168.31166666666667,74.0,75.0
215,168.31166666666667,168.78833333333336,77.0,65.0
216,168.71166666666667,169.11166666666668,76.0,66.0
217,169.11166666666668,169.51166666666668,74.0,59.0
218,169.51166666666668,170.11166666666668,82.0,72.0
219,170.11166666666668,170.71166666666667,81.0,87.0
220,170.71166666666667,171.5366666666667,74.0,61.0
221,171.11166666666668,171.59166666666667,77.0,67.0
222,171.51166666666668,171.96833333333333,81.0,64.0
223,171.9116666666667,172.71,86.0,71.0
224,172.71166666666667,173.13000000000002,86.0,70.0
225,173.11166666666668,173.51166666666668,84.0,61.0
226,173.51166666666668,174.31,86.0,70.0
227,174.31166666666667,174.71166666666667,86.0,65.0
228,174.71166666666667,175.17333333333335,81.0,64.0
229,175.11166666666668,175.52833333333334,84.0,69.0
230,175.51166666666668,175.97,81.0,69.0
231,175.9116666666667,176.36833333333334,79.0,70.0
232,176.31166666666667,177.51000000000002,81.0,60.0
233,177.51166666666668,177.91000000000003,81.0,70.0
234,177.9116666666667,178.31166666666667,81.0,74.0
235,178.31166666666667,179.11,76.0,65.0
236,179.11166666666668,179.51166666666668,76.0,70.0
237,179.51166666666668,179.9116666666667,74.0,72.0
238,179.9116666666667,180.31166666666667,73.0,90.0
239,180.31166666666667,180.80666666666667,74.0,86.0
240,180.71166666666667,181.1916666666667,76.0,75.0
241,181.11166666666668,181.57333333333335,77.0,73.0
242,181.51166666666668,181.99166666666667,79.0,73.0
243,181.9116666666667,182.71166666666667,82.0,81.0
244,182.71166666666667,183.51166666666668,81.0,83.0
245,183.51166666666668,184.28333333333333,74.0,58.0
246,183.9116666666667,184.63500000000002,77.0,69.0
247,184.31166666666667,184.71166666666667,81.0,65.0
248,184.71166666666667,185.51000000000002,86.0,81.0
249,185.51166666666668,185.91833333333335,86.0,83.0
250,185.9116666666667,186.31166666666667,84.0,61.0
251,186.31166666666667,186.71,86.0,93.0
252,186.71166666666667,187.51166666666668,86.0,111.0
253,187.51166666666668,187.9116666666667,81.0,67.0
254,187.9116666666667,188.31166666666667,84.0,76.0
255,188.31166666666667,188.71166666666667,81.0,68.0
256,188.71166666666667,189.16000000000003,79.0,86.0
257,189.11166666666668,191.11,81.0,93.0
258,191.11166666666668,191.57000000000002,81.0,75.0
259,191.51166666666668,191.96666666666667,82.0,79.0
260,191.9116666666667,192.37,81.0,64.0
261,192.31166666666667,193.11166666666668,82.0,100.0
262,193.11166666666668,193.9116666666667,76.0,72.0
263,193.9116666666667,194.31166666666667,77.0,72.0
264,194.31166666666667,201.9116666666667,74.0,87.0
265,201.9116666666667,202.33,77.0,63.0
266,202.31166666666667,202.71166666666667,76.0,66.0
267,202.71166666666667,203.17333333333335,74.0,64.0
268,203.11166666666668,203.51833333333335,76.0,65.0
269,203.51166666666668,203.91833333333335,74.0,68.0
270,203.9116666666667,204.3216666666667,76.0,67.0
271,204.31166666666667,204.71166666666667,74.0,65.0
272,204.71166666666667,205.11166666666668,79.0,63.0
273,205.11166666666668,208.31166666666667,81.0,75.0
274,208.31166666666667,208.71,69.0,58.0
275,208.71166666666667,209.155,69.0,58.0
276,209.11166666666668,209.55833333333334,77.0,61.0
277,209.51166666666668,210.06,76.0,65.0
278,209.9116666666667,210.51166666666668,77.0,65.0
279,210.51166666666668,215.20000000000002,74.0,50.0
