,start,end,pitch,velocity
0,31.5891945625,31.689778250000003,70.0,127.0
1,31.825862062500004,32.01716829166667,70.0,122.0
2,32.0625295625,32.15325210416667,68.0,96.0
3,32.2991970625,32.37808622916667,68.0,112.0
4,32.5358645625,32.600948125,68.0,100.0
5,32.772532062500005,32.902699187500005,68.0,122.0
6,33.0091995625,33.09597764583334,68.0,102.0
7,33.245867062500004,33.3523674375,68.0,102.0
8,33.4825345625,33.569312645833335,70.0,127.0
9,33.7192020625,33.9203694375,70.0,127.0
10,33.955869562500006,34.03475872916667,68.0,107.0
11,34.1925370625,34.332565333333335,68.0,112.0
12,34.429204562500004,34.59881627083334,68.0,112.0
13,34.6658720625,34.76448352083334,63.0,100.0
14,35.139207062500006,35.35418004166667,68.0,127.0
15,35.3758745625,35.41334691666667,70.0,105.0
16,35.612542062500005,35.8137094375,70.0,106.0
17,35.8492095625,35.91823758333334,68.0,86.0
18,36.0858770625,36.23379425,68.0,117.0
19,36.322544562500006,36.405378187500006,68.0,96.0
20,36.5592120625,36.62824008333334,68.0,127.0
21,36.795879562500005,36.8727965,68.0,107.0
22,37.0325470625,37.119325145833336,68.0,122.0
23,37.269214562500004,37.3402148125,70.0,117.0
24,37.50588206250001,37.58674345833334,70.0,127.0
25,37.7425495625,37.805660895833334,70.0,122.0
26,37.979217062500005,38.06007845833334,70.0,127.0
27,38.2158845625,38.2928015,68.0,107.0
28,38.452552062500004,38.541302375,68.0,117.0
29,38.6892195625,38.825303375000004,68.0,93.0
30,38.9258870625,39.296666145833335,68.0,92.0
31,39.3992220625,39.535305875000006,70.0,127.0
32,39.635889562500005,39.752251083333334,70.0,117.0
33,39.8725570625,39.9790574375,70.0,117.0
34,40.1092245625,40.201919333333336,68.0,117.0
35,40.345892062500006,40.52339268750001,68.0,127.0
36,40.819227062500005,40.90994960416667,70.0,127.0
37,41.0558945625,41.14661710416667,70.0,102.0
38,41.292562062500004,41.37736791666667,70.0,107.0
39,41.52922956250001,41.62784102083334,70.0,102.0
40,41.7658970625,41.86648075,70.0,97.0
41,42.002564562500005,42.13075945833334,65.0,100.0
42,42.2392320625,42.487732937500006,68.0,100.0
43,42.9492345625,43.059679395833335,68.0,102.0
44,43.0675683125,43.189846520833335,69.0,99.0
45,43.185902062500006,43.34368039583334,70.0,127.0
46,43.4225695625,43.48962535416667,68.0,112.0
47,43.659237062500004,43.76376520833334,68.0,122.0
48,43.89590456250001,43.95901589583334,70.0,112.0
49,44.1325720625,44.24893358333334,70.0,127.0
50,44.369239562500006,44.44221204166667,68.0,127.0
51,44.6059070625,44.763685395833335,68.0,117.0
52,44.842574562500005,44.94513047916667,70.0,122.0
53,45.0792420625,45.19363135416667,70.0,127.0
54,45.3159095625,45.392826500000005,68.0,127.0
55,45.552577062500006,45.637382916666674,68.0,99.0
56,45.7892445625,45.9194116875,68.0,97.0
57,46.025912062500005,46.42824681250001,72.0,127.0
58,46.499247062500004,46.870026145833336,70.0,127.0
59,47.209249562500005,47.278277583333335,72.0,117.0
60,47.4459170625,47.668778958333334,75.0,127.0
61,47.67864010416667,47.810779458333336,72.0,97.0
62,47.91925206250001,48.0435025,72.0,122.0
63,48.1559195625,48.35708693750001,75.0,127.0
64,48.392587062500006,48.59769889583334,72.0,127.0
65,48.6292545625,48.81267187500001,75.0,127.0
66,49.10258956250001,49.22881222916667,72.0,127.0
67,49.3392570625,49.575924562500006,75.0,127.0
68,49.575924562500006,49.646924812500004,72.0,107.0
69,49.8125920625,50.04334287500001,75.0,127.0
70,50.049259562500005,50.15970439583334,75.0,115.0
71,50.2859270625,50.457511000000004,75.0,113.0
72,50.522594562500004,50.70798410416667,68.0,102.0
73,50.9959295625,51.05115197916667,65.0,100.0
74,51.11426331250001,51.18131910416667,68.0,100.0
75,51.232597062500005,51.32331960416667,68.0,117.0
76,51.4692645625,51.57970939583334,75.0,122.0
77,51.705932062500004,51.91104389583334,75.0,127.0
78,51.94259956250001,52.03529433333334,70.0,117.0
79,52.1792670625,52.273934062500004,70.0,127.0
80,52.415934562500006,52.50271264583334,70.0,122.0
81,52.6526020625,52.810380395833334,70.0,127.0
82,52.889269562500004,52.978019875,70.0,127.0
83,53.12593706250001,53.327104437500005,70.0,117.0
84,53.3626045625,53.51446620833334,68.0,95.0
85,53.599272062500006,53.798467208333335,75.0,127.0
86,53.8359395625,53.928634333333335,72.0,127.0
87,54.072607062500005,54.516358625,72.0,127.0
88,54.78260956250001,54.8595265,75.0,127.0
89,55.0192770625,55.21847220833334,75.0,127.0
90,55.255944562500005,55.32891704166667,70.0,112.0
91,55.49261206250001,55.67405714583334,70.0,127.0
92,55.729279562500004,55.81802987500001,70.0,117.0
93,55.96594706250001,56.12372539583334,70.0,127.0
94,56.2026145625,56.28939264583334,68.0,112.0
95,56.439282062500006,56.64833835416667,68.0,127.0
96,56.6759495625,56.7528665,75.0,127.0
97,56.912617062500004,57.06447870833334,75.0,127.0
98,57.14928456250001,57.220284812500005,70.0,102.0
99,57.3859520625,57.50034135416667,70.0,117.0
100,57.622619562500006,57.721231020833336,70.0,90.0
101,57.8592870625,57.9894541875,70.0,107.0
102,58.095954562500005,58.178788187500004,68.0,122.0
103,58.33262206250001,58.516039375000005,68.0,127.0
104,59.0426245625,59.115597041666675,68.0,107.0
105,59.279292062500005,59.35423677083334,68.0,107.0
106,59.51595956250001,59.59682095833334,68.0,107.0
107,59.752627062500004,59.95182220833334,68.0,112.0
108,59.98929456250001,60.08001710416667,73.0,127.0
109,60.2259620625,60.43501835416667,73.0,122.0
110,60.462629562500005,60.563213250000004,72.0,127.0
111,60.69929706250001,60.89257552083334,72.0,127.0
112,60.935964562500004,61.02668710416667,70.0,117.0
113,61.17263206250001,61.344216,70.0,127.0
114,61.4092995625,61.55327229166667,68.0,127.0
115,61.645967062500006,61.83530106250001,65.0,100.0
116,61.88263456250001,62.426969812500005,68.0,117.0
117,62.829304562500006,63.05019422916667,68.0,95.0
118,63.0659720625,63.417028854166674,73.0,127.0
119,63.53930706250001,63.935725125000005,73.0,127.0
120,64.0126420625,64.21183720833334,72.0,127.0
121,64.48597706250001,64.8054781875,70.0,117.0
122,64.9593120625,65.20386847916667,70.0,127.0
123,65.43264706250001,65.57859202083334,68.0,112.0
124,65.6693145625,65.78962054166668,70.0,112.0
125,65.9059820625,66.41678941666667,72.0,127.0
126,66.37931706250001,66.61204010416667,70.0,127.0
127,66.6159845625,66.8526520625,68.0,100.0
128,66.8526520625,67.18990325,68.0,117.0
129,67.3259870625,67.66126602083334,68.0,127.0
130,67.79932206250001,68.030072875,68.0,122.0
131,68.0359895625,68.27660152083334,67.0,107.0
132,68.2726570625,68.90771485416667,65.0,102.0
133,69.2193270625,69.35343864583334,68.0,122.0
134,69.45599456250001,69.592078375,70.0,112.0
135,69.6926620625,70.04569108333334,72.0,127.0
136,70.16599706250001,70.32969208333334,70.0,112.0
137,70.40266456250001,70.73005460416667,68.0,107.0
138,71.11266706250001,71.19747291666667,70.0,112.0
139,71.3493345625,71.80491950000001,72.0,127.0
140,72.0593370625,72.15597629166668,70.0,122.0
141,72.2960045625,72.6746725625,72.0,127.0
142,73.0060070625,73.0770073125,77.0,122.0
143,73.2426745625,73.93295477083333,77.0,127.0
144,73.9526770625,74.02170508333334,75.0,112.0
145,74.18934456250001,75.30957072916668,75.0,127.0
146,76.3193520625,76.77296477083334,72.0,112.0
147,76.79268706250001,77.19699404166667,75.0,122.0
148,77.9760245625,78.0706915625,75.0,122.0
149,78.21269206250001,78.30735906250001,75.0,112.0
150,78.4493595625,78.538109875,75.0,112.0
151,78.6860270625,78.80436081250001,75.0,112.0
152,78.92269456250001,79.0055281875,80.0,127.0
153,79.15936206250001,79.3605294375,80.0,127.0
154,79.3960295625,79.49464102083334,79.0,122.0
155,79.6326970625,79.77272533333334,79.0,127.0
156,79.86936456250001,79.94430927083334,77.0,127.0
157,80.1060320625,80.3071994375,77.0,127.0
158,80.57936706250001,80.66022845833334,75.0,127.0
159,80.81603456250001,80.89886818750001,75.0,122.0
160,81.0527020625,81.1828691875,75.0,127.0
161,81.28936956250001,81.36036981250001,72.0,117.0
162,81.52603706250001,81.67789870833334,72.0,112.0
163,81.7627045625,81.84751041666668,75.0,127.0
164,81.9993720625,82.11376135416667,75.0,127.0
165,82.23603956250001,82.31492872916667,72.0,127.0
166,82.4727070625,82.60484641666667,72.0,122.0
167,82.7093745625,82.80601379166667,75.0,127.0
168,82.94604206250001,83.10184816666667,75.0,127.0
169,83.65604456250001,83.89665652083335,72.0,112.0
170,83.89271206250001,84.61652016666667,70.0,127.0
171,84.60271456250001,84.81374308333334,68.0,127.0
172,85.54938456250001,85.62630150000001,75.0,122.0
173,85.7860520625,85.86888568750001,75.0,107.0
174,86.0227195625,86.10949764583334,75.0,112.0
175,86.25938706250001,86.35799852083333,75.0,122.0
176,86.4960545625,86.59269379166668,80.0,127.0
177,86.7327220625,86.84711135416667,80.0,127.0
178,86.96938956250001,87.03644535416667,79.0,127.0
179,87.20605706250001,87.33425195833334,79.0,127.0
180,87.4427245625,87.51569704166667,77.0,122.0
181,87.67939206250001,87.87069829166667,77.0,127.0
182,88.1527270625,88.29275533333335,75.0,127.0
183,88.3893945625,88.47420041666668,77.0,122.0
184,88.62606206250001,88.72861797916667,77.0,127.0
185,88.86272956250001,88.9337298125,75.0,122.0
186,89.0993970625,89.18814737500001,75.0,127.0
187,89.33606456250001,89.41692595833334,77.0,122.0
188,89.57273206250001,89.67134352083335,77.0,127.0
189,89.8093995625,89.86462197916667,75.0,112.0
190,90.0460670625,90.14862297916667,75.0,127.0
191,90.28273456250001,90.35965150000001,77.0,122.0
192,90.5194020625,90.6259024375,77.0,127.0
193,90.7560695625,90.82904204166667,75.0,117.0
194,90.99273706250001,91.3714050625,75.0,127.0
195,91.70273956250001,92.09126870833335,72.0,127.0
196,92.1760745625,92.39893645833334,75.0,127.0
197,93.1227445625,93.22530047916668,75.0,117.0
198,93.35941206250001,93.47380135416668,75.0,112.0
199,93.59607956250001,93.69863547916667,75.0,107.0
200,93.8327470625,93.945164125,75.0,117.0
201,94.06941456250001,94.15027595833334,80.0,127.0
202,94.30608206250001,94.48555491666667,80.0,117.0
203,94.5427495625,94.62952764583333,79.0,127.0
204,94.7794170625,94.92536202083335,79.0,127.0
205,95.01608456250001,95.09497372916667,77.0,127.0
206,95.25275206250001,95.44208606250001,77.0,127.0
207,95.72608706250001,95.803004,75.0,127.0
208,95.96275456250001,96.04164372916668,75.0,112.0
209,96.1994220625,96.38086714583334,75.0,127.0
210,96.4360895625,96.52089541666668,72.0,102.0
211,96.67275706250001,96.78122966666668,72.0,107.0
212,96.9094245625,96.998174875,75.0,127.0
213,97.1460920625,97.28020364583334,75.0,127.0
214,97.38275956250001,97.45375981250001,72.0,100.0
215,97.61942706250001,97.72789966666667,72.0,102.0
216,97.8560945625,97.95273379166667,75.0,122.0
217,98.09276206250001,98.25645708333334,75.0,127.0
218,98.8027645625,99.00393193750001,72.0,112.0
219,99.03943206250001,99.54037827083334,70.0,117.0
220,99.74943456250001,100.04526893750001,68.0,117.0
221,100.69610456250001,100.78091041666667,75.0,102.0
222,100.9327720625,101.01166122916668,75.0,122.0
223,101.1694395625,101.2641065625,75.0,117.0
224,101.40610706250001,101.53232972916668,75.0,117.0
225,101.64277456250001,101.74138602083335,80.0,127.0
226,101.8794420625,101.991859125,80.0,117.0
227,102.11610956250001,102.1930265,82.0,127.0
228,102.35277706250001,102.46913858333335,82.0,117.0
229,102.5894445625,102.68016710416667,79.0,127.0
230,102.8261120625,103.00755714583335,80.0,122.0
231,103.29944706250001,103.40200297916668,77.0,127.0
232,103.5361145625,103.62880933333334,79.0,127.0
233,103.77278206250001,104.0804498125,80.0,127.0
234,104.2461170625,104.54786812500001,79.0,127.0
235,104.71945206250001,104.91470275,77.0,127.0
236,105.1927870625,105.3466209375,75.0,127.0
237,105.42945456250001,105.53003825,77.0,112.0
238,105.66612206250001,105.95012306250001,77.0,127.0
239,106.13945706250001,106.34259666666668,75.0,127.0
240,106.6127920625,107.056543625,72.0,127.0
241,107.08612706250001,107.35040577083335,70.0,117.0
242,107.5594620625,107.75076829166667,70.0,127.0
243,107.79612956250001,107.89474102083334,68.0,99.0
244,108.03279706250001,109.21416233333335,68.0,127.0
245,111.5828095625,111.65183758333335,71.0,117.0
246,111.81947706250001,112.04233895833335,74.0,127.0
247,112.2928120625,112.41706250000001,71.0,122.0
248,112.52947956250001,112.73064693750001,74.0,127.0
249,112.76614706250001,112.97125889583334,71.0,127.0
250,113.0028145625,113.186231875,74.0,127.0
251,113.47614956250001,113.60237222916668,71.0,127.0
252,113.71281706250001,113.9494845625,74.0,127.0
253,113.9494845625,114.02048481250002,71.0,107.0
254,114.18615206250001,114.416902875,74.0,127.0
255,114.6594870625,114.84487660416667,67.0,102.0
256,115.36948956250001,115.42471197916667,64.0,100.0
257,115.48782331250001,115.55487910416667,67.0,100.0
258,115.6061570625,115.69687960416668,67.0,117.0
259,115.84282456250001,115.95326939583335,74.0,122.0
260,116.07949206250001,116.28460389583334,74.0,127.0
261,116.3161595625,116.40885433333334,69.0,117.0
262,116.55282706250001,116.64749406250002,69.0,127.0
263,116.78949456250001,116.87627264583334,69.0,122.0
264,117.0261620625,117.18394039583335,69.0,127.0
265,117.26282956250002,117.35157987500001,69.0,127.0
266,117.49949706250001,117.70066443750001,69.0,117.0
267,117.73616456250001,117.88802620833334,67.0,95.0
268,117.9728320625,118.17202720833335,74.0,127.0
269,118.20949956250001,118.30219433333335,71.0,127.0
270,118.44616706250001,118.889918625,71.0,127.0
271,119.15616956250001,119.23308650000001,74.0,127.0
272,119.3928370625,119.59203220833335,74.0,127.0
273,119.62950456250002,119.70247704166668,69.0,112.0
274,119.86617206250001,120.04761714583334,69.0,127.0
275,120.10283956250001,120.191589875,69.0,117.0
276,120.3395070625,120.49728539583334,69.0,127.0
277,120.57617456250001,120.66295264583334,67.0,112.0
278,120.81284206250001,121.02189835416668,67.0,127.0
279,121.0495095625,121.12642650000001,74.0,127.0
280,121.28617706250002,121.43803870833334,74.0,127.0
281,121.52284456250001,121.59384481250001,69.0,102.0
282,121.75951206250001,121.87390135416668,69.0,117.0
283,121.9961795625,122.09479102083334,69.0,90.0
284,122.23284706250001,122.36301418750001,69.0,107.0
285,122.46951456250001,122.55234818750002,67.0,122.0
286,122.7061820625,122.88959937500002,67.0,127.0
287,123.4161845625,123.48915704166667,67.0,107.0
288,123.65285206250002,123.72779677083335,67.0,107.0
289,123.88951956250001,123.97038095833335,67.0,107.0
290,124.12618706250001,124.32538220833334,67.0,112.0
291,124.3628545625,124.45357710416668,72.0,127.0
292,124.59952206250001,124.80857835416668,72.0,122.0
293,124.83618956250001,124.93677325000002,71.0,127.0
294,125.0728570625,125.26613552083334,71.0,127.0
295,125.30952456250002,125.40024710416668,69.0,117.0
296,125.54619206250001,125.89330439583334,69.0,127.0
297,126.01952706250002,126.2088610625,64.0,100.0
298,126.25619456250001,126.80052981250002,67.0,117.0
299,127.20286456250001,127.42375422916668,67.0,95.0
300,127.4395320625,127.79058885416667,72.0,127.0
301,127.91286706250001,128.309285125,72.0,127.0
302,128.38620206250002,128.58539720833335,71.0,127.0
303,128.8595370625,129.1790381875,69.0,117.0
304,129.3328720625,129.57742847916668,69.0,127.0
305,129.80620706250002,129.95215202083335,67.0,112.0
306,130.0428745625,130.1631805416667,69.0,112.0
307,130.2795420625,130.60101541666668,71.0,127.0
308,130.7528770625,130.95207220833333,71.0,127.0
309,130.98954456250001,131.36821256250002,76.0,122.0
310,131.4628795625,131.6877136875,71.0,107.0
311,131.69954706250002,132.05849277083334,74.0,127.0
312,132.1728820625,132.51210547916668,76.0,127.0
313,133.5928870625,133.72699864583333,67.0,122.0
314,133.82955456250002,133.965638375,69.0,112.0
315,134.0662220625,134.41925108333334,71.0,127.0
316,134.53955706250002,134.70325208333335,69.0,112.0
317,134.7762245625,135.10361460416667,67.0,107.0
318,135.4862270625,135.57103291666667,69.0,112.0
319,135.72289456250002,136.1784795,71.0,127.0
320,136.43289706250002,136.5295362916667,69.0,122.0
321,136.6695645625,137.0482325625,71.0,127.0
322,137.3795670625,137.4505673125,76.0,122.0
323,137.6162345625,138.30651477083333,76.0,127.0
324,138.32426483333336,139.6831307291667,74.0,127.0
325,139.9829095625,140.23338266666667,74.0,127.0
326,140.2195770625,140.43455004166668,79.0,100.0
327,140.45624456250002,141.0025520416667,83.0,117.0
328,141.16624706250002,141.4029145625,78.0,97.0
329,141.420664625,142.1799728541667,79.0,127.0
330,142.3495845625,142.4442515625,74.0,122.0
331,142.58625206250002,142.6809190625,74.0,112.0
332,142.8229195625,142.911669875,74.0,112.0
333,143.05958706250001,143.17792081250002,74.0,112.0
334,143.29625456250002,143.3790881875,79.0,127.0
335,143.5329220625,143.73408943750002,79.0,127.0
336,143.76958956250002,143.86820102083334,78.0,122.0
337,144.00625706250003,144.14628533333334,78.0,127.0
338,144.2429245625,144.31786927083334,76.0,127.0
339,144.47959206250002,144.6807594375,76.0,127.0
340,144.9529270625,145.03378845833333,74.0,127.0
341,145.18959456250002,145.27242818750003,74.0,122.0
342,145.4262620625,145.55642918750002,74.0,127.0
343,145.6629295625,145.7339298125,71.0,117.0
344,145.89959706250002,146.05145870833334,71.0,112.0
345,146.1362645625,146.2210704166667,74.0,127.0
346,146.3729320625,146.48732135416668,74.0,127.0
347,146.60959956250002,146.6884887291667,71.0,127.0
348,146.8462670625,146.97840641666667,71.0,122.0
349,147.08293456250001,147.17957379166668,74.0,127.0
350,147.31960206250002,147.47540816666668,74.0,127.0
351,148.02960456250003,148.27021652083334,71.0,112.0
352,148.2662720625,148.99008016666667,69.0,127.0
353,148.9762745625,149.18730308333335,67.0,127.0
354,149.92294456250002,149.9998615,74.0,122.0
355,150.1596120625,150.2424456875,74.0,107.0
356,150.3962795625,150.48305764583336,74.0,112.0
357,150.63294706250002,150.73155852083335,74.0,122.0
358,150.8696145625,150.96625379166667,79.0,127.0
359,151.10628206250001,151.22067135416668,79.0,127.0
360,151.34294956250002,151.41000535416669,78.0,127.0
361,151.5796170625,151.70781195833334,78.0,127.0
362,151.81628456250002,151.88925704166667,76.0,122.0
363,152.05295206250003,152.24425829166668,76.0,127.0
364,152.52628706250002,152.66631533333336,74.0,127.0
365,152.7629545625,152.8477604166667,76.0,122.0
366,152.9996220625,153.10217797916667,76.0,127.0
367,153.23628956250002,153.30728981250002,74.0,122.0
368,153.4729570625,153.56170737500003,74.0,127.0
369,153.7096245625,153.79048595833333,76.0,122.0
370,153.94629206250002,154.04490352083334,76.0,127.0
371,154.1829595625,154.23818197916668,74.0,112.0
372,154.4196270625,154.52218297916667,74.0,127.0
373,154.65629456250002,154.7332115,76.0,122.0
374,154.8929620625,154.9994624375,76.0,127.0
375,155.1296295625,155.2026020416667,74.0,117.0
376,155.36629706250002,155.7449650625,74.0,127.0
377,156.07629956250003,156.46482870833336,71.0,127.0
378,156.54963456250002,156.77249645833334,74.0,127.0
379,157.4963045625,157.5988604791667,74.0,117.0
380,157.7329720625,157.84736135416668,74.0,112.0
381,157.96963956250002,158.07219547916668,74.0,107.0
382,158.2063070625,158.31872412500002,74.0,117.0
383,158.4429745625,158.52383595833334,79.0,127.0
384,158.67964206250002,158.85911491666667,79.0,117.0
385,158.9163095625,159.00308764583335,78.0,127.0
386,159.1529770625,159.29892202083334,78.0,127.0
387,159.38964456250002,159.4685337291667,76.0,127.0
388,159.6263120625,159.8156460625,76.0,127.0
389,160.09964706250003,160.176564,74.0,127.0
390,160.3363145625,160.41520372916668,74.0,112.0
391,160.57298206250002,160.75442714583335,74.0,127.0
392,160.80964956250003,160.8944554166667,71.0,102.0
393,161.0463170625,161.1547896666667,71.0,107.0
394,161.28298456250002,161.37173487500002,74.0,127.0
395,161.5196520625,161.65376364583335,74.0,127.0
396,161.7563195625,161.8273198125,71.0,100.0
397,161.99298706250002,162.10145966666667,71.0,102.0
398,162.2296545625,162.32629379166667,74.0,122.0
399,162.4663220625,162.63001708333334,74.0,127.0
400,163.1763245625,163.37749193750003,71.0,112.0
401,163.41299206250002,163.91393827083334,69.0,117.0
402,164.12299456250003,164.41882893750002,67.0,117.0
403,165.0696645625,165.15447041666667,74.0,102.0
404,165.30633206250002,165.3852212291667,74.0,122.0
405,165.5429995625,165.63766656250002,74.0,117.0
406,165.7796670625,165.9058897291667,74.0,117.0
407,166.01633456250002,166.11494602083334,79.0,127.0
408,166.2530020625,166.36541912500002,79.0,117.0
409,166.4896695625,166.56658650000003,81.0,127.0
410,166.72633706250002,166.84269858333334,81.0,117.0
411,166.9630045625,167.05372710416668,78.0,127.0
412,167.1996720625,167.38111714583334,79.0,122.0
413,167.6730070625,167.7755629791667,76.0,127.0
414,167.90967456250002,168.00236933333335,78.0,127.0
415,168.14634206250003,168.4540098125,79.0,127.0
416,168.61967706250002,168.921428125,78.0,127.0
417,169.0930120625,169.28826275,76.0,127.0
418,169.56634706250003,169.7201809375,74.0,127.0
419,169.8030145625,169.90359825000002,76.0,112.0
420,170.03968206250002,170.3236830625,76.0,127.0
421,170.5130170625,170.71615666666668,74.0,127.0
422,170.9863520625,171.43010362500002,71.0,127.0
423,171.45968706250002,171.72396577083336,69.0,117.0
424,172.4063570625,172.67063577083334,76.0,127.0
425,172.87969206250003,173.19722095833336,76.0,127.0
426,173.35302706250002,173.68830602083335,76.0,127.0
427,173.8263620625,174.1774188541667,78.0,127.0
428,174.2996970625,174.4180308125,78.0,127.0
429,174.5363645625,174.8203655625,78.0,127.0
430,175.2463670625,175.34497852083334,78.0,112.0
431,175.48303456250002,175.58756270833334,78.0,96.0
432,175.7197020625,175.98989745833336,79.0,127.0
433,176.19303706250003,176.28178737500002,79.0,127.0
434,176.4297045625,176.8793728125,81.0,127.0
435,177.1397070625,177.28762425000002,78.0,112.0
436,177.37637456250002,177.94437656250003,79.0,127.0
437,178.79637956250002,178.95415789583336,64.0,127.0
438,179.0330470625,179.23224220833336,76.0,117.0
439,179.2697145625,179.36240933333335,78.0,117.0
440,179.50638206250002,179.76671631250002,79.0,127.0
441,179.97971706250001,180.07832852083334,78.0,127.0
442,180.21638456250002,180.4727743541667,76.0,127.0
443,180.92638706250003,181.0111929166667,78.0,127.0
444,181.1630545625,181.58905606250002,79.0,127.0
445,181.8730570625,181.97561297916667,74.0,127.0
446,182.10972456250002,182.34836429166668,74.0,127.0
447,182.5830595625,182.8493105,81.0,127.0
448,183.0563945625,184.23973206250002,81.0,127.0
449,184.4763995625,184.59078885416668,79.0,107.0
450,184.71306706250002,184.83337304166668,86.0,122.0
451,184.94973456250003,185.03848487500002,83.0,117.0
452,185.1864020625,186.08376633333336,81.0,127.0
453,187.7897445625,187.88441156250002,75.0,122.0
454,188.02641206250001,188.12107906250003,75.0,112.0
455,188.26307956250002,188.35182987500002,75.0,112.0
456,188.4997470625,188.6180808125,75.0,112.0
457,188.73641456250002,188.81924818750002,80.0,127.0
458,188.97308206250003,189.1742494375,80.0,127.0
459,189.2097495625,189.30836102083336,79.0,122.0
460,189.44641706250002,189.58644533333336,79.0,127.0
461,189.68308456250003,189.75802927083336,77.0,127.0
462,189.9197520625,190.12091943750002,77.0,127.0
463,190.39308706250003,190.47394845833335,75.0,127.0
464,190.6297545625,190.71258818750002,75.0,122.0
465,190.86642206250002,190.9965891875,75.0,127.0
466,191.1030895625,191.17408981250003,72.0,117.0
467,191.3397570625,191.49161870833336,72.0,112.0
468,191.57642456250002,191.66123041666668,75.0,127.0
469,191.8130920625,191.92748135416667,75.0,127.0
470,192.04975956250001,192.12864872916668,72.0,127.0
471,192.28642706250002,192.4185664166667,72.0,122.0
472,192.5230945625,192.61973379166668,75.0,127.0
473,192.75976206250002,192.91556816666667,75.0,127.0
474,193.46976456250002,193.71037652083334,72.0,112.0
475,193.70643206250003,194.4302401666667,70.0,127.0
476,194.41643456250003,194.62746308333334,68.0,127.0
477,195.3631045625,195.44002150000003,75.0,122.0
478,195.59977206250002,195.68260568750003,75.0,107.0
479,195.8364395625,195.92321764583335,75.0,112.0
480,196.07310706250001,196.17171852083334,75.0,122.0
481,196.30977456250002,196.4064137916667,80.0,127.0
482,196.5464420625,196.66083135416667,80.0,127.0
483,196.78310956250002,196.85016535416668,79.0,127.0
484,197.01977706250003,197.14797195833336,79.0,127.0
485,197.2564445625,197.3294170416667,77.0,122.0
486,197.49311206250002,197.68441829166667,77.0,127.0
487,197.9664470625,198.10647533333335,75.0,127.0
488,198.20311456250002,198.28792041666668,77.0,122.0
489,198.43978206250003,198.5423379791667,77.0,127.0
490,198.6764495625,198.7474498125,75.0,122.0
491,198.91311706250002,199.00186737500002,75.0,127.0
492,199.14978456250003,199.23064595833335,77.0,122.0
493,199.3864520625,199.48506352083336,77.0,127.0
494,199.62311956250002,199.67834197916667,75.0,112.0
495,199.8597870625,199.9623429791667,75.0,127.0
496,200.0964545625,200.17337150000003,77.0,122.0
497,200.33312206250002,200.43962243750002,77.0,127.0
498,200.5697895625,200.64276204166669,75.0,117.0
499,200.80645706250002,201.18512506250002,75.0,127.0
500,201.51645956250002,201.90498870833335,72.0,127.0
501,201.9897945625,202.21265645833336,75.0,127.0
502,202.93646456250002,203.03902047916668,75.0,117.0
503,203.17313206250003,203.28752135416667,75.0,112.0
504,203.4097995625,203.51235547916667,75.0,107.0
505,203.64646706250002,203.758884125,75.0,117.0
506,203.8831345625,203.96399595833336,80.0,127.0
507,204.1198020625,204.2992749166667,80.0,117.0
508,204.35646956250002,204.44324764583334,79.0,127.0
509,204.5931370625,204.73908202083334,79.0,127.0
510,204.82980456250002,204.90869372916669,77.0,127.0
511,205.06647206250003,205.25580606250003,77.0,127.0
512,205.53980706250002,205.616724,75.0,127.0
513,205.77647456250003,205.8553637291667,75.0,112.0
514,206.0131420625,206.19458714583334,75.0,127.0
515,206.24980956250002,206.33461541666668,72.0,102.0
516,206.48647706250003,206.59494966666668,72.0,107.0
517,206.7231445625,206.811894875,75.0,127.0
518,206.95981206250002,207.09392364583334,75.0,127.0
519,207.19647956250003,207.26747981250003,72.0,100.0
520,207.4331470625,207.5416196666667,72.0,102.0
521,207.66981456250002,207.7664537916667,75.0,122.0
522,207.9064820625,208.07017708333336,75.0,127.0
523,208.6164845625,208.81765193750002,72.0,112.0
524,208.85315206250002,209.35409827083336,70.0,117.0
525,209.56315456250002,209.85898893750002,68.0,117.0
526,210.50982456250003,210.5946304166667,75.0,102.0
527,210.7464920625,210.82538122916668,75.0,122.0
528,210.98315956250002,211.0778265625,75.0,117.0
529,211.21982706250003,211.34604972916668,75.0,117.0
530,211.4564945625,211.55510602083336,80.0,127.0
531,211.69316206250002,211.805579125,80.0,117.0
532,211.92982956250003,212.00674650000002,82.0,127.0
533,212.1664970625,212.28285858333336,82.0,117.0
534,212.40316456250002,212.49388710416667,79.0,127.0
535,212.6398320625,212.82127714583336,80.0,122.0
536,213.11316706250003,213.21572297916669,77.0,127.0
537,213.3498345625,213.44252933333334,79.0,127.0
538,213.58650206250002,213.89416981250002,80.0,127.0
539,214.0598370625,214.36158812500003,79.0,127.0
540,214.53317206250003,214.72842275000002,77.0,127.0
541,215.00650706250002,215.16034093750002,75.0,127.0
542,215.24317456250003,215.34375825,77.0,112.0
543,215.4798420625,215.76384306250003,77.0,127.0
544,215.95317706250003,216.1563166666667,75.0,127.0
545,216.42651206250002,216.870263625,72.0,127.0
546,216.89984706250002,217.16412577083335,70.0,117.0
547,217.13651456250003,217.33176525000002,63.0,99.0
548,217.3731820625,217.5644882916667,70.0,127.0
549,217.60984956250002,217.70846102083334,68.0,99.0
550,217.3731820625,218.93913202083334,72.0,127.0
551,217.84651706250003,219.02788233333337,68.0,127.0
552,219.26652206250003,220.15599741666668,73.0,127.0
553,220.6865270625,220.9133334166667,72.0,122.0
554,220.92319456250002,222.11244875000003,68.0,97.0
555,223.01770193750002,223.13800791666668,68.0,102.0
556,223.1675913541667,223.38848102083335,70.0,89.0
557,223.3372030625,223.52259260416668,72.0,86.0
558,223.4930091666667,224.0491777916667,75.0,102.0
559,224.70987456250003,224.88934741666668,63.0,100.0
560,224.94654206250001,226.34485254166668,72.0,112.0
561,226.8398820625,227.48480100000003,73.0,127.0
562,227.5498845625,228.14549777083334,72.0,112.0
563,228.2598870625,228.3308873125,68.0,95.0
564,228.49655456250002,230.64628435416668,68.0,102.0
