,start,end,pitch,velocity
0,14.785699500000002,15.236095875000002,62.0,84.0
1,15.261889500000002,15.581333625000001,64.0,86.0
2,15.738079500000001,16.073396625,71.0,86.0
3,16.21412507916667,18.160325379166668,71.0,87.0
4,18.58754007916667,18.811036658333336,71.0,89.0
5,18.82488157916667,18.959375095833337,74.0,88.0
6,19.06222307916667,19.273852583333337,74.0,87.0
7,19.29956457916667,19.556684537500004,71.0,86.0
8,19.53690607916667,19.95225370416667,76.0,87.0
9,20.01158907916667,20.51593976666667,74.0,87.0
10,20.48627207916667,22.110083508333336,71.0,84.0
11,22.38500407916667,22.61641204166667,69.0,86.0
12,22.62234557916667,22.879465537500003,71.0,81.0
13,22.85968707916667,23.148452570833335,69.0,89.0
14,23.09702857916667,23.397661145833336,67.0,82.0
15,23.33437007916667,23.854543533333338,69.0,88.0
16,23.80905307916667,24.054305962500003,71.0,85.0
17,24.04639457916667,25.89172474166667,69.0,85.0
18,26.182468079166668,26.417831733333337,64.0,91.0
19,26.41980957916667,26.552325250000003,67.0,79.0
20,26.65715107916667,26.908337500000002,67.0,81.0
21,26.89449257916667,27.157546075000006,64.0,88.0
22,27.131834079166673,27.622339845833338,69.0,87.0
23,27.60651707916667,27.86165919166667,71.0,81.0
24,27.84385857916667,28.148446837500003,69.0,74.0
25,28.08120007916667,29.821704412500004,71.0,85.0
26,29.979932079166673,30.29243172083334,62.0,88.0
27,30.217273579166672,30.90450147083334,64.0,89.0
28,30.92207959583334,31.391076804166673,71.0,81.0
29,31.391076804166673,32.81512580416667,71.0,82.0
30,33.764491804166674,33.98996622916667,71.0,94.0
31,34.001833304166674,34.13039328333334,74.0,88.0
32,34.23917480416667,34.45080430833334,74.0,89.0
33,34.47651630416667,34.72374703333334,71.0,87.0
34,34.71385780416667,35.137116812500004,76.0,88.0
35,35.18854080416667,35.44961645416667,74.0,88.0
36,35.42588230416667,35.669157341666676,71.0,86.0
37,35.66322380416667,37.29692446250001,74.0,87.0
38,37.56195580416667,37.819075762500006,69.0,83.0
39,37.79929730416667,38.10784125416667,71.0,85.0
40,38.03663880416667,38.30167014583334,69.0,86.0
41,38.27398030416667,38.58845779166667,67.0,76.0
42,38.51132180416667,39.00776110833334,69.0,86.0
43,38.98600480416667,39.23916907083334,71.0,85.0
44,39.223346304166675,40.441467100000004,69.0,83.0
45,41.364085225000004,41.641862725,64.0,87.0
46,41.602180225000005,41.754957850000004,67.0,85.0
47,41.840275225000006,42.104163850000006,67.0,82.0
48,42.07837022500001,42.34622710000001,64.0,89.0
49,42.31646522500001,42.85813135000001,69.0,85.0
50,42.792655225000004,43.058527975000004,71.0,83.0
51,43.030750225000006,43.292654725000006,69.0,78.0
52,43.26884522500001,43.7430511,71.0,83.0
53,43.74503522500001,45.0525736,69.0,80.0
54,45.173605225,45.393843100000005,74.0,91.0
55,45.411700225000004,46.078366225,76.0,86.0
56,46.12598522500001,46.61209585,71.0,89.0
57,46.602175225,46.852174975000004,69.0,80.0
58,46.840270225000005,48.48312572500001,67.0,84.0
59,48.98534407916667,49.21497655833334,71.0,86.0
60,49.22496057916668,49.37072728333334,74.0,85.0
61,49.46457707916667,49.68023192916667,74.0,89.0
62,49.70419357916667,50.43702070833334,71.0,90.0
63,50.423043079166675,50.858346387500006,76.0,89.0
64,50.902276079166676,52.649479725000006,74.0,87.0
65,52.81920807916667,53.116731900000005,71.0,87.0
66,53.058824579166675,53.21058169583334,72.0,83.0
67,53.29844107916667,53.56002242500001,74.0,92.0
68,53.538057579166676,54.25690707916667,71.0,83.0
69,54.25690707916667,54.49852038333334,69.0,80.0
70,54.49652357916668,55.90427051666667,67.0,75.0
71,56.65307207916668,56.81081960833334,67.0,78.0
72,56.89268857916667,57.06042012916667,67.0,86.0
73,57.13230507916667,57.33198549583334,64.0,87.0
74,57.371921579166674,57.609541275000005,62.0,84.0
75,57.61153807916667,58.114732729166676,69.0,91.0
76,58.09077107916667,58.33837479583334,71.0,85.0
77,58.330387579166675,58.53605840833334,69.0,75.0
78,58.57000407916667,59.514492450000006,71.0,84.0
79,60.486936079166675,60.67064206250001,74.0,89.0
80,60.72655257916667,61.86672775833334,76.0,87.0
81,61.92463507916668,62.18222281666667,71.0,85.0
82,62.164251579166674,62.72335674583334,69.0,80.0
83,62.643484579166675,64.10115162083333,71.0,83.0
84,64.32080007916667,64.51848369166667,71.0,89.0
85,64.56041657916667,64.70818008750001,74.0,87.0
86,64.80003307916667,65.03166236250001,74.0,89.0
87,65.03964957916668,65.30322772916668,71.0,86.0
88,65.27926607916667,65.7505118625,76.0,87.0
89,65.75849907916667,65.92223702083334,74.0,87.0
90,65.99811557916667,66.51129425,74.0,89.0
91,66.47734857916667,66.73293951250001,76.0,85.0
92,66.71696507916667,67.98293892083333,71.0,85.0
93,68.15466407916668,68.39679105000002,69.0,85.0
94,68.39478140416668,68.68216075833335,71.0,83.0
95,68.63593890416668,68.92331825833335,69.0,84.0
96,68.87709640416668,69.17050469583334,67.0,77.0
97,69.11825390416668,69.61463642500001,69.0,84.0
98,69.60056890416668,69.85579392500001,71.0,81.0
99,69.84172640416668,70.95908948750001,69.0,78.0
100,72.00831708750002,72.27189523750002,64.0,90.0
101,72.24793358750001,72.38970668333334,67.0,84.0
102,72.48714051250002,72.71965217500002,67.0,83.0
103,72.72561401250002,72.98992214166668,64.0,85.0
104,72.96408751250002,73.50575097916669,69.0,82.0
105,73.4407904104167,73.71441220000003,67.0,74.0
106,73.6770106604167,74.19866371250002,69.0,85.0
107,74.14945116041669,74.88370243750002,71.0,83.0
108,74.8581119104167,75.73241947083336,74.0,74.0
109,76.73632572083336,76.88476322083336,76.0,91.0
110,76.97070072083336,77.10741947083336,76.0,86.0
111,77.20507572083336,77.35351322083336,76.0,86.0
112,77.43945072083336,77.56640384583336,76.0,86.0
113,77.67382572083336,77.80859134583336,76.0,86.0
114,77.90820072083336,78.04491947083336,76.0,86.0
115,78.14257572083336,78.26952884583336,76.0,86.0
116,78.37695072083336,79.21288822083336,76.0,87.0
117,79.54882572083336,79.90429447083336,76.0,90.0
118,80.01757572083336,80.21288822083336,76.0,89.0
119,80.25195072083336,80.48241947083336,71.0,86.0
120,80.48632572083336,80.85351322083336,74.0,96.0
121,80.95507572083336,81.08593509583336,76.0,88.0
122,81.18945072083336,81.69140384583336,76.0,92.0
123,81.65820072083336,82.86132572083336,74.0,91.0
124,84.23154056458337,84.36762129375003,76.0,87.0
125,84.46482181458336,84.5911824916667,76.0,86.0
126,84.69810306458336,84.82835176250003,76.0,85.0
127,84.93138431458337,85.05385697083337,76.0,86.0
128,85.16466556458336,85.2910262416667,76.0,86.0
129,85.39794681458336,85.52625150208337,76.0,87.0
130,85.63122806458337,85.76536478333337,76.0,87.0
131,85.86450931458336,86.85598765625002,76.0,86.0
132,87.02793491458335,87.38728536458336,76.0,90.0
133,87.49161291458336,87.71572394791669,76.0,87.0
134,87.72345191458336,87.94369896458336,71.0,86.0
135,87.95529091458336,88.34168924791669,74.0,89.0
136,88.41896891458336,88.57739223125003,76.0,88.0
137,88.65080791458335,89.34052893958336,76.0,87.0
138,89.34632491458336,90.78565870625002,74.0,94.0
139,91.66471491458336,92.02986133958336,76.0,87.0
140,92.12839291458336,93.93480512291669,76.0,87.0
141,93.98310491458336,94.35404731458335,76.0,91.0
142,94.44678291458337,94.87761705625003,76.0,88.0
143,94.91046091458335,95.39152683958336,72.0,87.0
144,95.37413891458336,96.33240678125003,74.0,91.0
145,96.30149491458336,96.78835681458335,76.0,84.0
146,96.76517291458336,98.8439959479167,71.0,85.0
147,99.08356291458335,99.98966700625003,71.0,86.0
148,100.01091891458336,100.96725478958336,69.0,86.0
149,100.93827491458336,101.7014116229167,64.0,85.0
150,101.86563091458336,102.25009725625003,69.0,87.0
151,102.32930891458336,103.21802508125003,71.0,87.0
152,103.25676391458336,105.63253771458336,69.0,83.0
153,121.42444591458336,121.57196128125003,76.0,91.0
154,121.65736491458335,121.79323433125003,76.0,86.0
155,121.89028391458336,122.03779928125003,76.0,86.0
156,122.12320291458336,122.2493673729167,76.0,86.0
157,122.35612191458335,122.49005033958336,76.0,86.0
158,122.58904091458336,122.72491033125003,76.0,86.0
159,122.82195991458336,122.9481243729167,76.0,86.0
160,123.05487891458336,123.88562334791669,76.0,87.0
161,124.21761682083336,124.5686967166667,76.0,90.0
162,124.68057932083336,124.87348036250003,76.0,89.0
163,124.91206057083336,125.13968380000003,71.0,86.0
164,125.14354182083336,125.50619577916669,74.0,96.0
165,125.60650432083335,125.73574801875003,76.0,88.0
166,125.83798557083335,126.33374124791669,76.0,92.0
167,126.30094807083336,127.48921848750003,74.0,91.0
168,128.84121609583335,128.97562470000003,76.0,87.0
169,129.07163084583337,129.19629790208336,76.0,86.0
170,129.3014202041667,129.42947828125003,76.0,85.0
171,129.5307779541667,129.6511907729167,76.0,86.0
172,129.7601357041667,129.88437115208336,76.0,86.0
173,129.98949345416668,130.1156402166667,76.0,87.0
174,130.2188512041667,130.3507319104167,76.0,87.0
175,130.4482089541667,131.42489070625,76.0,86.0
176,131.5949977041667,131.95050221666668,76.0,90.0
177,132.05371320416668,132.27542569583335,76.0,87.0
178,132.2830709541667,132.5009608166667,71.0,86.0
179,132.5124287041667,132.89469162083336,74.0,89.0
180,132.9711442041667,133.12787200000002,76.0,88.0
181,133.2005019541667,133.88284126041668,76.0,87.0
182,133.8885752041667,135.31250456875003,74.0,94.0
183,136.1821527041667,136.5433911604167,76.0,87.0
184,136.64086820416668,138.42794733958337,76.0,87.0
185,138.4757302041667,138.8427026041667,76.0,91.0
186,138.9344457041667,139.36066885625002,76.0,88.0
187,139.3931612041667,139.8690785354167,72.0,87.0
188,139.8518767041667,140.79988873750003,74.0,91.0
189,140.7693077041667,141.25095897916668,76.0,84.0
190,141.2280232041667,143.28459769583336,71.0,85.0
191,143.5216007041667,144.41800724375003,71.0,86.0
192,144.4390317041667,145.1271049541667,69.0,86.0
193,145.32397035625002,145.70432195833337,69.0,89.0
194,145.76739533958335,146.40768572500002,74.0,96.0
195,146.68482633958337,147.59078945208336,76.0,90.0
196,147.6500402041667,150.8610487041667,74.0,94.0
197,150.8610487041667,153.15035866041669,75.0,94.0
198,153.1731897104167,155.92623382291669,80.0,89.0
199,155.9015001854167,156.21453687708336,77.0,89.0
200,156.33877232500004,156.74588233125002,77.0,96.0
201,156.75161627500003,158.11692749583338,75.0,89.0
202,159.11553633958337,159.33703089166673,80.0,86.0
203,159.3466610895834,159.4872619791667,77.0,85.0
204,159.57778583958338,159.78579811458337,77.0,89.0
205,159.80891058958338,160.0400353395834,77.0,90.0
206,160.0400353395834,160.50228483958338,77.0,90.0
207,160.50228483958338,160.92216146875006,77.0,89.0
208,160.9645343395834,162.64981897500004,75.0,87.0
209,162.8135323395834,163.10051223750006,72.0,87.0
210,163.04465708958338,163.1910360979167,73.0,83.0
211,163.27578183958337,163.52809302500006,75.0,92.0
212,163.5069065895834,164.20028083958337,72.0,83.0
213,164.20028083958337,164.43333162916673,70.0,80.0
214,164.4314055895834,165.78926349583338,68.0,75.0
215,166.51152833958338,166.66368546666672,80.0,78.0
216,166.74265308958337,166.90444041458338,80.0,86.0
217,166.9737778395834,167.16638179791673,77.0,87.0
218,167.20490258958338,167.43410130000007,75.0,84.0
219,167.43602733958338,167.9213893145834,77.0,91.0
220,167.8982768395834,168.1371057479167,79.0,85.0
221,168.12940158958338,168.32778366666673,77.0,75.0
222,168.36052633958337,169.27154306250006,75.0,84.0
223,170.2095243395834,170.38671998125005,75.0,89.0
224,170.4406490895834,171.54041769166673,77.0,87.0
225,171.59627283958338,171.8447319458334,72.0,85.0
226,171.82739758958337,172.36668867291672,70.0,80.0
227,172.28964708958338,173.69565598541672,72.0,83.0
228,173.90752033958339,174.09819825833338,72.0,89.0
229,174.13864508958338,174.28117201875006,75.0,87.0
230,174.3697698395834,174.59319043125004,75.0,89.0
231,174.6008945895834,174.8551318145834,72.0,86.0
232,174.83201933958338,175.28656468125004,77.0,87.0
233,175.2942688395834,175.45220408541672,75.0,87.0
234,175.5253935895834,176.0224158458334,75.0,89.0
235,175.9894701645834,176.2375317645834,77.0,85.0
236,176.22202791458338,177.45070802708338,72.0,85.0
237,177.61737441458337,177.85187014583337,70.0,85.0
238,177.84993216458338,178.1270634833334,72.0,83.0
239,178.0824899145834,178.35962123333337,70.0,84.0
240,178.31504766458337,178.59799292708337,68.0,77.0
241,178.5476054145834,179.02722130416672,70.0,84.0
242,179.01361323125005,179.2605025541667,72.0,81.0
243,179.24689448125005,180.3277642729167,70.0,78.0
244,181.35188935625004,181.61136023958338,72.0,90.0
245,181.58773810625004,181.72786876875006,70.0,84.0
246,181.8246300895834,182.05567242708338,68.0,83.0
247,182.0615965895834,182.3256811604167,70.0,85.0
248,182.2998053645834,185.1729263645834,68.0,82.0
249,186.0769263645834,187.3829263645834,73.0,89.0
250,187.5509263645834,187.7709263645834,72.0,86.0
251,187.7349263645834,187.97492636458338,70.0,81.0
252,187.9589263645834,188.79692636458338,68.0,70.0
253,189.1749263645834,189.7929263645834,80.0,65.0
254,189.7469263645834,190.1149263645834,82.0,75.0
255,190.0509263645834,190.8389263645834,84.0,87.0
256,190.80292636458339,191.0369263645834,82.0,76.0
257,190.99292636458338,191.2289263645834,80.0,73.0
258,191.1969263645834,191.4649263645834,82.0,77.0
259,191.4169263645834,192.5689263645834,80.0,78.0
260,192.8349263645834,193.3829263645834,87.0,92.0
261,193.5069263645834,193.7149263645834,85.0,86.0
262,193.7629263645834,194.10492636458338,84.0,89.0
263,194.2089263645834,194.4289263645834,85.0,87.0
264,194.4309263645834,194.9109263645834,84.0,86.0
265,194.87892636458338,196.7469263645834,80.0,75.0
266,197.3829263645834,197.7029263645834,75.0,77.0
267,197.6809263645834,198.0129263645834,77.0,80.0
268,197.9229263645834,198.2149263645834,80.0,86.0
269,198.1329263645834,198.4829263645834,82.0,85.0
270,198.3929263645834,198.78492636458338,84.0,80.0
271,198.70092636458338,199.02892636458338,80.0,80.0
272,198.92092636458338,200.5269263645834,82.0,77.0
273,200.8069263645834,201.1549263645834,80.0,79.0
274,201.09292636458338,201.3649263645834,82.0,76.0
275,201.3389263645834,201.5669263645834,84.0,87.0
276,201.5369263645834,201.7769263645834,80.0,79.0
277,201.7509263645834,202.6109263645834,82.0,70.0
278,202.5569263645834,205.2209263645834,80.0,80.0
