,start,end,pitch,velocity
0,2.0694423750000004,2.5119022500000003,60.0,76.0
1,2.132934375,2.6726163750000005,64.0,78.0
2,2.1785692500000002,2.7142830000000004,67.0,69.0
3,2.2579342500000004,2.7301560000000005,71.0,74.0
4,2.2480136250000005,2.7996003750000003,55.0,33.0
5,2.0535693750000004,2.8769812500000005,48.0,75.0
6,3.2539650000000004,3.8392818750000006,66.0,72.0
7,3.2281713750000005,3.8452342500000003,62.0,67.0
8,3.1904730000000003,3.8749961250000005,59.0,56.0
9,3.2559491250000003,3.8908691250000005,47.0,78.0
10,3.3749966250000005,3.8968215000000006,69.0,57.0
11,4.363090875,5.888883000000001,52.0,68.0
12,4.172614875000001,5.904756000000001,45.0,68.0
13,4.305551250000001,6.013882875000001,57.0,70.0
14,4.45634475,6.015867000000001,64.0,72.0
15,4.40872575,6.025787625,60.0,69.0
16,6.89285025,7.269834,60.0,71.0
17,6.9563422500000005,7.321421250000001,64.0,71.0
18,6.847215375000001,7.384913250000001,48.0,84.0
19,7.0079295,7.515865500000001,67.0,63.0
20,8.015865000000002,8.579356500000001,62.0,56.0
21,8.144833125000002,8.59126125,71.0,45.0
22,7.8888810000000005,8.62300725,47.0,76.0
23,7.894833375000001,8.62300725,59.0,70.0
24,9.07538775,10.176577125000001,52.0,69.0
25,8.908721250000001,10.218243750000001,45.0,73.0
26,9.053562375,11.07538575,55.0,65.0
27,9.317451,11.089274625000002,64.0,73.0
28,9.18649875,11.101179375000001,60.0,47.0
29,11.156734875000001,12.545622375,57.0,72.0
30,11.031735000000001,12.654749250000002,50.0,75.0
31,11.232131625000001,12.904749,67.0,70.0
32,11.140861875,12.960304500000001,62.0,67.0
33,13.2301455,13.765859250000002,57.0,63.0
34,13.335304125000002,13.769827500000002,62.0,66.0
35,13.053558375000001,13.7857005,50.0,67.0
36,13.42458975,13.801573500000002,66.0,68.0
37,13.468240500000002,13.805541750000001,69.0,70.0
38,15.738079500000001,16.1349045,62.0,81.0
39,15.738079500000001,16.19632446666667,55.0,78.0
40,16.68880807916667,16.799567445833336,59.0,75.0
41,16.68880807916667,16.805500983333335,62.0,85.0
42,17.63817407916667,17.766734058333338,62.0,79.0
43,17.63817407916667,17.788490362500003,59.0,75.0
44,18.11285707916667,18.38579980416667,55.0,72.0
45,16.21412507916667,18.648853300000003,50.0,59.0
46,15.738079500000001,18.68049883333334,43.0,85.0
47,18.58754007916667,18.688410216666668,59.0,74.0
48,18.58754007916667,18.704232983333338,62.0,81.0
49,19.53690607916667,19.67931097916667,57.0,67.0
50,19.53690607916667,19.85731710416667,59.0,66.0
51,19.53690607916667,20.185639512500003,66.0,73.0
52,19.53690607916667,20.211351508333337,62.0,78.0
53,20.48627207916667,20.597031445833338,57.0,73.0
54,20.48627207916667,20.59900929166667,66.0,72.0
55,20.48627207916667,20.602964983333337,62.0,80.0
56,20.01158907916667,21.621555587500005,54.0,51.0
57,21.43563807916667,21.750115566666672,66.0,69.0
58,21.43563807916667,21.79165032916667,62.0,78.0
59,21.91032107916667,22.45620652916667,54.0,43.0
60,22.38500407916667,22.57487727916667,57.0,75.0
61,19.53690607916667,22.689592337500002,47.0,81.0
62,22.38500407916667,22.81221877916667,62.0,79.0
63,22.38500407916667,22.83001939166667,66.0,77.0
64,23.33437007916667,23.836742920833338,55.0,78.0
65,23.33437007916667,23.856521379166672,60.0,78.0
66,24.283736079166673,24.38460621666667,55.0,70.0
67,24.283736079166673,24.41229605833334,60.0,78.0
68,24.283736079166673,24.416251750000004,64.0,82.0
69,23.80905307916667,24.47360927916667,52.0,58.0
70,23.33437007916667,24.68721662916667,45.0,85.0
71,25.23310207916667,25.415063895833335,55.0,73.0
72,25.23310207916667,25.440775891666668,60.0,74.0
73,26.182468079166668,26.40200896666667,55.0,83.0
74,26.182468079166668,26.4811228,60.0,80.0
75,26.182468079166668,26.56221447916667,64.0,85.0
76,26.65715107916667,26.813400900000005,45.0,85.0
77,27.131834079166673,27.44037802916667,57.0,74.0
78,27.131834079166673,27.780567512500006,62.0,78.0
79,27.60651707916667,27.837925041666672,57.0,70.0
80,28.08120007916667,28.233494208333337,57.0,71.0
81,28.08120007916667,28.24140559166667,62.0,76.0
82,28.08120007916667,28.273051125000002,66.0,74.0
83,27.131834079166673,28.921784558333336,38.0,87.0
84,29.030566079166668,29.584362912500005,57.0,73.0
85,29.030566079166668,29.61205275416667,62.0,77.0
86,29.50524907916667,30.076846525000004,45.0,57.0
87,29.979932079166673,30.094647137500004,62.0,85.0
88,29.979932079166673,30.106514212500002,57.0,81.0
89,29.979932079166673,30.112447750000005,66.0,77.0
90,29.030566079166668,30.120359133333338,38.0,86.0
91,30.92207959583334,31.35762647083334,62.0,82.0
92,30.92207959583334,31.412833108333338,55.0,74.0
93,31.86575980416667,31.974541325000004,57.0,76.0
94,31.86575980416667,31.986408400000006,62.0,81.0
95,31.391076804166673,32.3720883375,50.0,68.0
96,30.92207959583334,32.40966740833334,43.0,84.0
97,32.34044280416667,32.52240462083334,55.0,67.0
98,32.81512580416667,33.232451275,55.0,70.0
99,32.81512580416667,33.23442912083334,62.0,83.0
100,33.764491804166674,33.843605637500005,57.0,74.0
101,33.28980880416667,33.88909609166667,50.0,61.0
102,33.764491804166674,33.90096316666667,55.0,80.0
103,33.764491804166674,33.9741434625,59.0,73.0
104,32.81512580416667,34.033478837500006,43.0,84.0
105,33.764491804166674,34.06116867916667,62.0,80.0
106,34.23917480416667,34.353889862500004,55.0,85.0
107,34.71385780416667,35.26369894583334,62.0,79.0
108,34.71385780416667,35.27754386666667,66.0,78.0
109,34.71385780416667,35.29534447916667,59.0,78.0
110,35.66322380416667,35.80562870416667,59.0,80.0
111,35.66322380416667,35.80760655,62.0,81.0
112,35.66322380416667,35.843207775,66.0,79.0
113,35.18854080416667,36.12801757500001,54.0,60.0
114,34.71385780416667,36.16757449166667,47.0,85.0
115,36.612589804166674,36.921133754166675,62.0,77.0
116,36.612589804166674,36.923111600000006,59.0,76.0
117,36.612589804166674,36.9765134375,66.0,77.0
118,36.612589804166674,37.25341185416667,47.0,85.0
119,37.08727280416667,37.318680766666674,54.0,64.0
120,37.56195580416667,37.76171823333334,62.0,85.0
121,37.56195580416667,37.77754100000001,59.0,83.0
122,37.56195580416667,37.7953416125,66.0,84.0
123,38.51132180416667,39.029517412500006,55.0,73.0
124,38.51132180416667,39.035450950000005,60.0,75.0
125,39.460687804166675,39.729674837500006,60.0,77.0
126,39.460687804166675,39.743519758333335,55.0,81.0
127,39.460687804166675,39.75340898750001,64.0,86.0
128,38.98600480416667,40.022816725000006,52.0,60.0
129,38.51132180416667,40.08829285000001,45.0,85.0
130,40.411705225000006,41.106148975,55.0,76.0
131,40.411705225000006,41.1319426,60.0,75.0
132,41.364085225000004,41.53471997500001,55.0,87.0
133,40.88789522500001,41.55257710000001,52.0,58.0
134,40.411705225000006,41.578370725000006,45.0,80.0
135,41.364085225000004,41.590275475000006,60.0,86.0
136,41.840275225000006,41.985116350000006,55.0,85.0
137,42.31646522500001,42.905750350000005,62.0,77.0
138,42.31646522500001,42.9494011,57.0,75.0
139,43.26884522500001,43.417654600000006,57.0,81.0
140,43.26884522500001,43.417654600000006,62.0,81.0
141,43.26884522500001,43.453368850000004,66.0,79.0
142,42.792655225000004,43.572416350000005,45.0,62.0
143,42.31646522500001,43.79067010000001,38.0,88.0
144,43.74503522500001,43.987098475,57.0,72.0
145,44.221225225000005,44.649796225,57.0,77.0
146,44.221225225000005,44.653764475,62.0,78.0
147,44.221225225000005,44.743050100000005,66.0,78.0
148,45.173605225,45.375985975000006,57.0,85.0
149,45.649795225000005,46.076382100000004,57.0,86.0
150,45.173605225,46.08035035,62.0,87.0
151,44.69741522500001,46.08630272500001,45.0,64.0
152,45.173605225,46.10019160000001,66.0,82.0
153,44.221225225000005,46.12400110000001,38.0,86.0
154,46.12598522500001,46.584318100000004,62.0,78.0
155,46.12598522500001,46.66765135000001,55.0,75.0
156,46.602175225,47.14979372500001,50.0,68.0
157,47.078365225000006,47.27677772500001,59.0,87.0
158,47.078365225000006,47.32638085000001,55.0,85.0
159,47.078365225000006,47.364079225000005,62.0,85.0
160,47.31646022500001,47.69542810000001,50.0,68.0
161,46.12598522500001,47.754951850000005,43.0,85.0
162,47.55455522500001,47.83431685000001,57.0,71.0
163,47.792650225,48.42757022500001,59.0,81.0
164,48.50693522500001,49.037260987500005,50.0,67.0
165,48.98534407916667,49.18502449583334,55.0,81.0
166,48.98534407916667,49.23294779583334,59.0,86.0
167,48.030745225000004,49.25890625000001,43.0,86.0
168,48.98534407916667,49.31281996250001,62.0,85.0
169,49.46457707916667,49.65826708333334,43.0,86.0
170,49.943810079166674,50.57879380416667,57.0,76.0
171,49.943810079166674,50.62671710416667,62.0,77.0
172,50.423043079166675,50.96617381250001,54.0,72.0
173,50.902276079166676,51.12991175416667,57.0,85.0
174,50.902276079166676,51.135902166666675,62.0,87.0
175,50.902276079166676,51.28366567500001,66.0,85.0
176,49.943810079166674,51.56920867083334,47.0,87.0
177,51.14189257916667,51.64508722916668,54.0,66.0
178,51.381509079166676,51.71098176666667,62.0,80.0
179,51.62112557916667,51.90866537916667,66.0,78.0
180,51.86074207916667,52.37791435833334,62.0,79.0
181,52.33997507916667,52.89908024583334,54.0,70.0
182,52.81920807916667,53.32839314166667,62.0,88.0
183,52.81920807916667,53.34237077083334,57.0,86.0
184,51.86074207916667,53.39029407083334,47.0,88.0
185,53.29844107916667,53.45618860833334,54.0,80.0
186,53.77767407916667,54.28885594583334,60.0,79.0
187,53.77767407916667,54.316811204166676,55.0,86.0
188,54.25690707916667,54.802034616666674,52.0,70.0
189,54.736140079166674,54.99572462083334,55.0,85.0
190,54.736140079166674,54.99772142500001,60.0,88.0
191,54.736140079166674,55.06760957083334,64.0,86.0
192,53.77767407916667,55.50490968333334,45.0,85.0
193,54.97575657916667,55.53885535416667,52.0,85.0
194,55.215373079166675,55.5907722625,55.0,87.0
195,55.694606079166675,56.32958980416667,55.0,81.0
196,55.694606079166675,56.33558021666667,60.0,81.0
197,56.173839079166676,56.92064383750001,52.0,67.0
198,55.694606079166675,56.952592704166676,45.0,86.0
199,56.65307207916668,57.00051600416667,55.0,88.0
200,56.65307207916668,57.04244889166667,60.0,89.0
201,57.13230507916667,57.31601106250001,45.0,86.0
202,57.61153807916667,57.75131437083334,38.0,87.0
203,57.61153807916667,57.909061900000005,57.0,76.0
204,57.61153807916667,58.05083499583334,62.0,81.0
205,58.57000407916667,58.81760779583334,62.0,87.0
206,58.57000407916667,59.053230687500005,66.0,90.0
207,58.809620579166676,59.25490790833334,57.0,74.0
208,58.09077107916667,59.286856775000004,50.0,73.0
209,59.04923707916667,59.39668100416667,62.0,79.0
210,59.28885357916667,59.45059471666667,66.0,77.0
211,59.528470079166674,59.90386926250001,69.0,81.0
212,59.528470079166674,59.92982771666667,62.0,80.0
213,59.528470079166674,59.93581812916668,66.0,81.0
214,60.24731957916667,60.35315020000001,62.0,81.0
215,60.007703079166674,60.53286257500001,57.0,74.0
216,60.486936079166675,60.724555775000006,62.0,90.0
217,60.486936079166675,60.782463095833336,74.0,89.0
218,59.528470079166674,60.81241515833334,50.0,91.0
219,60.72655257916667,60.8803065,57.0,85.0
220,60.966169079166676,61.06201567916668,62.0,90.0
221,61.44540207916667,61.930625491666675,55.0,80.0
222,61.44540207916667,61.93661590416667,62.0,81.0
223,61.92463507916668,62.51968272083334,50.0,71.0
224,62.40386807916667,62.58358045416667,57.0,86.0
225,62.40386807916667,62.59755808333334,62.0,87.0
226,62.643484579166675,62.85514582083334,50.0,73.0
227,61.44540207916667,62.89508190416667,43.0,86.0
228,62.88310107916667,63.206583354166675,55.0,87.0
229,63.36233407916667,63.83158305833334,62.0,80.0
230,63.36233407916667,63.871519141666674,55.0,80.0
231,63.36233407916667,63.875512750000006,59.0,74.0
232,63.84156707916667,64.38070420416668,50.0,70.0
233,64.32080007916667,64.55043255833334,55.0,90.0
234,64.32080007916667,64.61033668333334,59.0,91.0
235,64.32080007916667,64.61632709583334,62.0,91.0
236,63.36233407916667,64.65825998333334,43.0,85.0
237,64.56041657916667,64.71816410833334,50.0,87.0
238,64.80003307916667,64.94579978333334,43.0,86.0
239,65.27926607916667,65.85434567916667,62.0,81.0
240,65.27926607916667,65.9182434125,57.0,78.0
241,65.75849907916667,66.355543525,54.0,75.0
242,66.23773207916668,66.69300342916668,57.0,86.0
243,66.23773207916668,66.71696507916667,62.0,91.0
244,66.23773207916668,66.762891575,66.0,86.0
245,65.27926607916667,66.99052725000001,47.0,87.0
246,66.71696507916667,67.146277975,54.0,71.0
247,67.19619807916668,67.80122974166667,62.0,85.0
248,66.95658157916668,67.83717221666667,57.0,80.0
249,67.67543107916667,68.21856181250001,54.0,69.0
250,68.15466407916668,68.40281998750001,57.0,86.0
251,68.39478140416668,68.56560130000001,54.0,70.0
252,68.15466407916668,68.59976527916668,62.0,87.0
253,68.15466407916668,68.66809323750002,66.0,86.0
254,67.19619807916668,68.69622827916668,47.0,87.0
255,68.63593890416668,68.83489384166668,57.0,86.0
256,69.11825390416668,69.73119588333334,60.0,80.0
257,69.11825390416668,69.78545632083335,55.0,86.0
258,69.60056890416668,70.12307682083335,52.0,67.0
259,70.08288390416668,70.33207998750001,55.0,87.0
260,69.11825390416668,70.38232113333335,45.0,85.0
261,70.08288390416668,70.39236936250002,60.0,87.0
262,70.32404140416668,70.61744969583334,52.0,83.0
263,70.08288390416668,70.62347863333335,64.0,90.0
264,70.56519890416668,70.82846250833335,55.0,86.0
265,70.80635640416668,71.05354284166668,60.0,81.0
266,71.04751390416668,71.32283538333334,57.0,80.0
267,71.04751390416668,71.41526625000002,62.0,83.0
268,71.52908408750001,71.72876450416669,57.0,78.0
269,72.00831708750002,72.17804544166668,57.0,85.0
270,71.04751390416668,72.25392400000001,50.0,85.0
271,72.00831708750002,72.43547125416669,66.0,86.0
272,72.00831708750002,72.47720411666668,62.0,86.0
273,72.48714051250002,72.59246630833336,57.0,81.0
274,72.96408751250002,73.41716838541669,62.0,83.0
275,72.96408751250002,73.5234674979167,55.0,80.0
276,73.4407904104167,74.04708905208336,50.0,68.0
277,73.91323091041669,74.2380337541667,55.0,84.0
278,73.91323091041669,74.42110444791669,59.0,85.0
279,72.96408751250002,74.67504121666668,43.0,86.0
280,74.38567141041669,74.72031676458336,50.0,86.0
281,73.91323091041669,74.73606478125002,62.0,86.0
282,74.6218916604167,74.77346632083336,55.0,85.0
283,74.8581119104167,75.48241947083336,60.0,86.0
284,74.8581119104167,75.56445072083336,55.0,90.0
285,75.33007572083336,75.83593509583336,50.0,90.0
286,75.79882572083336,76.07616947083336,55.0,88.0
287,74.8581119104167,76.08593509583336,43.0,87.0
288,75.79882572083336,76.23046634583336,59.0,90.0
289,75.79882572083336,76.24218509583336,62.0,99.0
290,76.26757572083336,76.58007572083336,55.0,94.0
291,76.50195072083336,76.66601322083336,62.0,87.0
292,76.03320072083336,76.67382572083336,50.0,91.0
293,76.73632572083336,76.99218509583336,55.0,86.0
294,76.73632572083336,77.09374759583336,60.0,88.0
295,77.20507572083336,77.31640384583336,55.0,86.0
296,76.73632572083336,77.76757572083336,48.0,94.0
297,77.67382572083336,78.06640384583336,60.0,80.0
298,77.67382572083336,78.08007572083336,64.0,88.0
299,77.67382572083336,78.09570072083336,55.0,86.0
300,78.37695072083336,78.65429447083336,55.0,86.0
301,78.37695072083336,78.71874759583336,60.0,88.0
302,78.37695072083336,78.75195072083336,64.0,90.0
303,78.84570072083336,78.99413822083336,55.0,90.0
304,79.08007572083336,79.16406009583336,55.0,59.0
305,79.08007572083336,79.27343509583336,60.0,74.0
306,79.31445072083336,79.37890384583336,55.0,79.0
307,78.61132572083336,79.65234134583336,48.0,74.0
308,79.54882572083336,79.76952884583336,55.0,92.0
309,79.54882572083336,79.82616947083336,62.0,91.0
310,79.78320072083336,79.89257572083336,48.0,92.0
311,80.01757572083336,80.13671634583336,55.0,87.0
312,80.01757572083336,80.14257572083336,60.0,86.0
313,80.48632572083336,81.01562259583336,57.0,78.0
314,80.48632572083336,81.03124759583336,62.0,81.0
315,80.95507572083336,81.51171634583336,54.0,74.0
316,81.42382572083336,81.81640384583336,62.0,89.0
317,81.42382572083336,81.87695072083336,66.0,89.0
318,81.42382572083336,81.87890384583336,57.0,88.0
319,80.48632572083336,82.07226322083336,47.0,87.0
320,81.89257572083336,82.33398197083336,54.0,58.0
321,82.12695072083336,82.46288822083336,57.0,87.0
322,82.12695072083336,82.62109134583336,62.0,94.0
323,82.59570072083336,82.95312259583336,54.0,87.0
324,82.83007572083336,82.99023197083336,57.0,94.0
325,83.06445072083336,83.36645592916669,54.0,85.0
326,83.29841556458337,83.5764090541667,57.0,94.0
327,83.29841556458337,83.66388952291669,62.0,99.0
328,83.53169681458337,83.6872176479167,54.0,79.0
329,82.36132572083336,83.80774629375003,47.0,87.0
330,83.76497806458336,83.87578665833337,57.0,86.0
331,84.23154056458337,84.4162215541667,55.0,89.0
332,84.23154056458337,84.7253192104167,60.0,87.0
333,84.69810306458336,84.88278405416669,55.0,85.0
334,84.23154056458337,85.25214603333336,48.0,94.0
335,85.16466556458336,85.38045072083337,60.0,88.0
336,85.16466556458336,85.3960028041667,55.0,87.0
337,85.16466556458336,85.4309949916667,64.0,92.0
338,85.39794681458336,85.49320332500002,48.0,87.0
339,85.63122806458337,86.1716629604167,55.0,89.0
340,85.86450931458336,86.33884785625003,60.0,92.0
341,86.09779056458336,86.43021634583336,36.0,86.0
342,86.33107181458337,86.4516004604167,55.0,87.0
343,86.56425691458335,86.85598765625002,60.0,86.0
344,86.79609591458336,86.9274713479167,55.0,83.0
345,87.02793491458335,87.22693005625003,55.0,87.0
346,87.02793491458335,87.33125760625002,60.0,87.0
347,87.49161291458336,87.58628050625002,55.0,87.0
348,87.02793491458335,87.7794796729167,48.0,91.0
349,87.49161291458336,87.8084595479167,62.0,86.0
350,87.72345191458336,87.81232353125003,55.0,83.0
351,87.95529091458336,88.41510493125003,62.0,86.0
352,87.95529091458336,88.44408480625003,57.0,77.0
353,88.41896891458336,88.9560625979167,54.0,73.0
354,88.88264691458336,89.09902998125003,57.0,86.0
355,88.88264691458336,89.14732977291669,62.0,88.0
356,88.88264691458336,89.42167258958335,66.0,92.0
357,89.34632491458336,89.44292449791669,57.0,85.0
358,87.95529091458336,89.6110077729167,47.0,88.0
359,89.57816391458336,89.76943108958336,57.0,87.0
360,89.57816391458336,89.80034295625002,62.0,87.0
361,89.11448591458335,89.81000291458336,54.0,80.0
362,89.81000291458336,90.07661776458336,57.0,81.0
363,89.81000291458336,90.26788493958335,65.0,85.0
364,89.81000291458336,90.29300083125003,60.0,87.0
365,89.81000291458336,90.48619999791669,38.0,90.0
366,90.04184191458336,90.53063580625003,45.0,82.0
367,90.27368091458337,90.71997098958336,57.0,89.0
368,90.50551991458336,91.3150244229167,65.0,90.0
369,90.96919791458336,91.40582803125002,50.0,87.0
370,90.73735891458335,91.47537973125003,43.0,86.0
371,91.20103691458336,91.5526593979167,55.0,90.0
372,91.43287591458336,91.58550325625002,59.0,88.0
373,91.66471491458336,91.92166980625002,55.0,83.0
374,91.66471491458336,92.14771283125003,60.0,85.0
375,92.12839291458336,92.39500776458335,55.0,80.0
376,91.66471491458336,92.69060248958336,48.0,96.0
377,92.59207091458336,92.91857750625003,60.0,92.0
378,92.59207091458336,92.93016945625003,55.0,86.0
379,92.59207091458336,92.94755738125002,64.0,90.0
380,93.28758791458336,93.5696586979167,55.0,90.0
381,93.28758791458336,93.60636653958336,60.0,92.0
382,93.75126591458336,94.14925619791669,64.0,85.0
383,93.98310491458336,94.19755598958336,55.0,91.0
384,94.21494391458336,94.31540748125002,60.0,79.0
385,93.51942691458336,94.56077042291669,48.0,81.0
386,94.44678291458337,94.69987382291669,55.0,92.0
387,94.44678291458337,94.74430963125002,60.0,101.0
388,94.67862191458336,94.80806535625003,48.0,87.0
389,94.91046091458335,95.02058443958336,55.0,87.0
390,95.37413891458336,95.6851895729167,62.0,85.0
391,95.37413891458336,95.73928533958336,57.0,84.0
392,95.83781691458336,96.37104661458336,54.0,74.0
393,96.30149491458336,96.56810976458335,57.0,87.0
394,96.30149491458336,96.64925341458336,62.0,88.0
395,95.37413891458336,96.70914515625003,47.0,87.0
396,96.53333391458335,96.74971698125003,54.0,75.0
397,96.30149491458336,96.97382801458336,66.0,88.0
398,96.76517291458336,97.08974751458337,57.0,88.0
399,96.99701191458335,97.2558987979167,62.0,82.0
400,97.22885091458336,97.77367256458336,64.0,85.0
401,97.69252891458336,98.01130753958336,52.0,89.0
402,97.46068991458336,98.21609865625003,47.0,76.0
403,98.15620691458336,98.43441371458336,52.0,94.0
404,97.22885091458336,98.53874126458336,40.0,90.0
405,98.38804591458336,98.55033321458336,47.0,85.0
406,98.15620691458336,98.66045673958337,59.0,88.0
407,98.61988491458337,98.74932835625003,52.0,87.0
408,99.08356291458335,99.67088838125002,60.0,79.0
409,99.08356291458335,99.71532418958336,57.0,77.0
410,99.54724091458336,100.19059413958335,52.0,71.0
411,100.01091891458336,100.26400982291669,57.0,85.0
412,99.08356291458335,100.32583355625003,45.0,85.0
413,100.01091891458336,100.53642064791669,60.0,89.0
414,100.01091891458336,100.6697280729167,64.0,88.0
415,100.47459691458336,100.82621939791669,57.0,79.0
416,100.93827491458336,101.45991266458336,64.0,86.0
417,100.93827491458336,101.51787241458337,60.0,86.0
418,101.40195291458336,101.95257053958336,52.0,78.0
419,101.86563091458336,102.10326588958335,55.0,89.0
420,100.93827491458336,102.14770169791669,45.0,87.0
421,101.86563091458336,102.15542966458337,60.0,90.0
422,101.86563091458336,102.16702161458336,64.0,90.0
423,102.09746991458336,102.22691335625002,52.0,85.0
424,102.32930891458336,102.6287676229167,55.0,85.0
425,102.56114791458336,102.80071488125003,60.0,87.0
426,103.48968291458336,103.87011728125003,54.0,96.0
427,103.25676391458336,103.90311413958337,50.0,86.0
428,103.95552091458336,103.99045876458337,50.0,72.0
429,102.79298691458337,104.05839347291669,38.0,92.0
430,103.02482591458336,104.05839347291669,45.0,72.0
431,103.95552091458336,104.2447286729167,62.0,85.0
432,103.95552091458336,104.26607958125003,54.0,87.0
433,104.18843991458336,104.31072238958336,50.0,85.0
434,104.65427791458336,105.39379573958337,54.0,81.0
435,104.65427791458336,105.40738268125003,59.0,78.0
436,104.65427791458336,105.53742912291669,51.0,68.0
437,105.58595391458336,105.9159224979167,54.0,86.0
438,105.58595391458336,106.21095323125003,59.0,87.0
439,105.81887291458337,106.43804925625003,51.0,75.0
440,106.05179191458336,106.48657404791669,54.0,80.0
441,104.65427791458336,106.49821999791669,39.0,80.0
442,106.51762991458337,106.6146794979167,36.0,85.0
443,106.51762991458337,106.89612328958336,55.0,86.0
444,106.51762991458337,107.04169766458337,64.0,86.0
445,107.44930591458336,107.58517533125003,62.0,85.0
446,107.68222491458336,107.8957339979167,60.0,79.0
447,107.68222491458336,107.89961598125002,62.0,85.0
448,107.68222491458336,107.96560969791669,67.0,86.0
449,107.21638691458337,108.23540753958336,55.0,81.0
450,106.98346791458336,108.23928952291669,48.0,85.0
451,108.14806291458336,108.2451124979167,60.0,77.0
452,108.38098191458336,108.82740999791669,67.0,79.0
453,108.38098191458336,108.8565248729167,60.0,85.0
454,108.84681991458336,109.38447460625002,55.0,78.0
455,109.31265791458335,109.53587195625002,60.0,89.0
456,109.31265791458335,109.56886881458335,64.0,91.0
457,108.38098191458336,109.5902197229167,48.0,89.0
458,109.31265791458335,109.60768864791669,67.0,87.0
459,109.54557691458336,109.67562335625003,55.0,85.0
460,109.77849591458336,109.87942748125003,60.0,87.0
461,110.24433391458336,110.66941108958336,62.0,85.0
462,110.24433391458336,110.68688001458337,57.0,86.0
463,110.71017191458336,111.03625851458337,54.0,63.0
464,110.94309091458337,111.19541983125002,57.0,90.0
465,110.94309091458337,111.25364958125003,66.0,87.0
466,111.40892891458336,111.55062130625002,57.0,86.0
467,111.40892891458336,111.5642082479167,62.0,86.0
468,110.24433391458336,111.56809023125003,47.0,87.0
469,111.17600991458336,111.57197221458335,54.0,74.0
470,111.87476691458336,111.98540343958337,57.0,76.0
471,112.10768591458336,112.89378753958336,62.0,85.0
472,112.10768591458336,112.93260737291669,57.0,80.0
473,112.57352391458336,113.14611645625003,54.0,72.0
474,113.03936191458337,113.35186157291669,57.0,85.0
475,113.03936191458337,113.37903545625002,62.0,89.0
476,113.27228091458336,113.48190801458335,54.0,84.0
477,113.03936191458337,113.4916129729167,66.0,87.0
478,112.10768591458336,113.53625578125002,47.0,87.0
479,113.50519991458336,113.77887973958336,57.0,99.0
480,113.97103791458336,114.57856830625002,57.0,84.0
481,113.97103791458336,114.61156516458335,60.0,82.0
482,114.43687591458337,114.96288465625003,52.0,73.0
483,114.90271391458336,115.1453378729167,55.0,87.0
484,114.90271391458336,115.2093905979167,60.0,88.0
485,114.90271391458336,115.22297753958335,64.0,90.0
486,113.97103791458336,115.50053934791669,45.0,86.0
487,115.13563291458335,115.5704150479167,52.0,81.0
488,115.36855191458336,116.10224676458336,55.0,84.0
489,115.60147091458336,116.27693601458336,60.0,78.0
490,116.30022791458336,116.41280543125002,55.0,89.0
491,116.06730891458336,116.59914063125002,52.0,82.0
492,116.53314691458336,116.88446640625003,55.0,99.0
493,116.53314691458336,116.88446640625003,60.0,96.0
494,115.83438991458335,116.99704392291669,45.0,86.0
495,116.76606591458336,117.02809978958337,52.0,86.0
496,116.99898491458336,117.17173317291669,55.0,92.0
497,116.99898491458336,117.23190391458336,60.0,94.0
498,116.99898491458336,117.27654672291669,64.0,94.0
499,117.23190391458336,117.34254043958336,45.0,86.0
500,117.46482291458337,117.51917068125003,60.0,65.0
501,117.46482291458337,117.59486935625003,55.0,85.0
502,117.69774191458336,117.91901496458335,38.0,90.0
503,117.69774191458336,117.97530372291669,57.0,87.0
504,117.69774191458336,117.99665463125002,62.0,77.0
505,118.16357991458337,118.47607957291669,57.0,77.0
506,118.16357991458337,118.59059808125002,62.0,79.0
507,118.86233691458335,119.07778698958336,64.0,99.0
508,118.16357991458337,119.2854730979167,50.0,86.0
509,119.09525591458336,119.34758483125003,57.0,73.0
510,118.62941791458336,119.36893573958336,54.0,83.0
511,119.32817491458336,119.42910648125003,62.0,75.0
512,119.56109391458335,119.83089175625003,62.0,90.0
513,119.56109391458335,119.85224266458336,66.0,94.0
514,120.02693191458336,120.07545670625002,66.0,72.0
515,120.02693191458336,120.13368645625002,69.0,79.0
516,119.79401291458336,120.33554958958337,57.0,81.0
517,120.25985091458335,120.55294065625003,62.0,92.0
518,120.25985091458335,120.60340643958335,74.0,90.0
519,120.25985091458335,120.61505238958335,66.0,94.0
520,120.25985091458335,120.62087536458336,69.0,94.0
521,119.56109391458335,120.7936236229167,50.0,94.0
522,120.49276991458336,121.06342146458336,57.0,86.0
523,120.72568891458336,121.07894939791669,62.0,96.0
524,120.95860791458335,121.11582823958335,50.0,43.0
525,121.19152691458336,121.40115401458335,62.0,91.0
526,120.95860791458335,121.41862293958336,54.0,94.0
527,121.42444591458336,121.6787158229167,55.0,86.0
528,121.42444591458336,121.77964738958336,60.0,88.0
529,121.89028391458336,122.00092043958335,55.0,86.0
530,121.42444591458336,122.44928951458336,48.0,94.0
531,122.35612191458335,122.74626123958336,60.0,80.0
532,122.35612191458335,122.75984818125002,64.0,88.0
533,122.35612191458335,122.77537611458337,55.0,86.0
534,123.05487891458336,123.33049973125003,55.0,86.0
535,123.05487891458336,123.39455245625003,60.0,88.0
536,123.05487891458336,123.42754931458336,64.0,90.0
537,123.52071691458336,123.66823228125003,55.0,90.0
538,123.75363591458336,123.83709855625003,55.0,59.0
539,123.75363591458336,123.94562635208337,60.0,74.0
540,123.98613557083335,124.04979291458336,55.0,79.0
541,123.28779791458336,124.3198543729167,48.0,74.0
542,124.21761682083336,124.4355949979167,55.0,92.0
543,124.21761682083336,124.49153630000002,62.0,91.0
544,124.44909807083336,124.55712265416669,48.0,92.0
545,124.68057932083336,124.79824895625002,55.0,87.0
546,124.68057932083336,124.80403598750003,60.0,86.0
547,125.14354182083336,125.66630364375003,57.0,78.0
548,125.14354182083336,125.68173572708336,62.0,81.0
549,125.60650432083335,126.15627228958336,54.0,74.0
550,126.06946682083336,126.45719791458336,62.0,89.0
551,126.06946682083336,126.51699723750002,66.0,89.0
552,126.06946682083336,126.5189262479167,57.0,88.0
553,125.14354182083336,126.7098982791667,47.0,87.0
554,126.53242932083336,126.96838567500002,54.0,58.0
555,126.76391057083336,127.09570036250003,57.0,87.0
556,126.76391057083336,127.25195020625003,62.0,94.0
557,127.22687307083336,127.57969533958335,54.0,87.0
558,127.45835432083337,127.61617767500002,57.0,94.0
559,127.68914234583336,127.9867613979167,54.0,85.0
560,127.91955709583335,128.1941346729167,57.0,94.0
561,127.91955709583335,128.2805402041667,62.0,99.0
562,128.14997184583336,128.30358167916668,54.0,79.0
563,126.99539182083336,128.4226293,47.0,87.0
564,128.38038659583336,128.48983360208337,57.0,86.0
565,128.84121609583335,129.02362777291668,55.0,89.0
566,128.84121609583335,129.32817860833336,60.0,87.0
567,129.3014202041667,129.48299508958337,55.0,85.0
568,128.84121609583335,129.8461448604167,48.0,94.0
569,129.7601357041667,129.97229162291669,60.0,88.0
570,129.7601357041667,129.98758213958337,55.0,87.0
571,129.7601357041667,130.02198580208335,64.0,92.0
572,129.98949345416668,130.08314786875002,48.0,87.0
573,130.2188512041667,130.75019665833335,55.0,89.0
574,130.4482089541667,130.91456971250003,60.0,92.0
575,130.67756670416668,131.0044014979167,36.0,86.0
576,130.9069244541667,131.02542595833336,55.0,87.0
577,131.1362822041667,131.42489070625,60.0,86.0
578,131.36563995416668,131.49560934583334,55.0,83.0
579,131.5949977041667,131.79186310625002,55.0,87.0
580,131.5949977041667,131.89507409375003,60.0,87.0
581,132.05371320416668,132.14736761875002,55.0,87.0
582,131.5949977041667,132.33849907708336,48.0,91.0
583,132.05371320416668,132.36716879583335,62.0,86.0
584,132.2830709541667,132.37099142500003,55.0,83.0
585,132.5124287041667,132.96732157500003,62.0,86.0
586,132.5124287041667,132.99599129375002,57.0,77.0
587,132.9711442041667,133.50248965833336,54.0,73.0
588,133.4298597041667,133.64392693750003,57.0,86.0
589,133.4298597041667,133.69170980208335,62.0,88.0
590,133.4298597041667,133.96311647291668,66.0,92.0
591,133.8885752041667,133.98414093333335,57.0,85.0
592,132.5124287041667,134.15042530208336,47.0,88.0
593,134.1179329541667,134.30715309791668,57.0,87.0
594,134.1179329541667,134.33773413125002,62.0,87.0
595,133.65921745416668,134.34729070416668,54.0,80.0
596,134.34729070416668,134.61105211666668,57.0,81.0
597,134.34729070416668,134.8002722604167,65.0,85.0
598,134.34729070416668,134.82511935000002,60.0,87.0
599,134.34729070416668,135.01625080833335,38.0,90.0
600,134.5766484541667,135.06021104375003,45.0,82.0
601,134.8060062041667,135.24751987291668,57.0,89.0
602,135.03536395416668,135.83620476458336,65.0,90.0
603,135.4940794541667,135.92603655000002,50.0,87.0
604,135.2647217041667,135.99484387500002,43.0,86.0
605,135.7234372041667,136.07129645833336,55.0,90.0
606,135.95279495416668,136.10378880625004,59.0,88.0
607,136.1821527041667,136.43635754375003,55.0,83.0
608,136.1821527041667,136.65998135000004,60.0,85.0
609,136.64086820416668,136.90462961666668,55.0,80.0
610,136.1821527041667,137.19706074791668,48.0,96.0
611,137.0995837041667,137.42259586875002,60.0,92.0
612,137.0995837041667,137.43406375625003,55.0,86.0
613,137.0995837041667,137.45126558750002,64.0,90.0
614,137.7876569541667,138.06670888333335,55.0,90.0
615,137.7876569541667,138.1030238604167,60.0,92.0
616,138.2463724541667,138.64010325833337,64.0,85.0
617,138.4757302041667,138.6878861229167,55.0,91.0
618,138.7050879541667,138.80447631250001,60.0,79.0
619,138.01701470416668,139.04721326458335,48.0,81.0
620,138.9344457041667,139.18482791458337,55.0,92.0
621,138.9344457041667,139.22878815,60.0,101.0
622,139.1638034541667,139.29186153125002,48.0,87.0
623,139.3931612041667,139.50210613541668,55.0,87.0
624,139.8518767041667,140.15959835208335,62.0,85.0
625,139.8518767041667,140.2131151604167,57.0,84.0
626,140.31059220416668,140.8381150291667,54.0,74.0
627,140.7693077041667,141.0330691166667,57.0,87.0
628,140.7693077041667,141.1133443291667,62.0,88.0
629,139.8518767041667,141.17259508125002,47.0,87.0
630,140.99866545416668,141.21273268750002,54.0,75.0
631,140.7693077041667,141.4344451791667,66.0,88.0
632,141.2280232041667,141.5491240541667,57.0,88.0
633,141.4573809541667,141.71349710833337,62.0,82.0
634,141.6867387041667,142.2257294166667,64.0,85.0
635,142.1454542041667,142.4608211104167,52.0,89.0
636,141.91609645416668,142.66342045625004,47.0,76.0
637,142.60416970416668,142.8793990041667,52.0,94.0
638,141.6867387041667,142.9826099916667,40.0,90.0
639,142.8335274541667,142.9940778791667,47.0,85.0
640,142.60416970416668,143.1030228104167,59.0,88.0
641,143.0628852041667,143.19094328125001,52.0,87.0
642,143.5216007041667,144.10264033750002,60.0,79.0
643,143.5216007041667,144.1466005729167,57.0,77.0
644,143.98031620416668,144.61678396041668,52.0,71.0
645,144.4390317041667,144.68941391458335,57.0,85.0
646,143.5216007041667,144.75057598125002,45.0,85.0
647,144.4390317041667,144.95890927083335,60.0,89.0
648,144.4390317041667,145.09078997708335,64.0,88.0
649,144.8977472041667,145.24560645833336,57.0,79.0
650,145.3564627041667,145.8725176416667,64.0,86.0
651,145.3564627041667,145.92985707916668,60.0,86.0
652,145.8151782041667,146.3599028604167,52.0,78.0
653,146.27389370416668,146.5089853979167,55.0,89.0
654,145.3564627041667,146.55294563333337,45.0,87.0
655,146.27389370416668,146.5605908916667,60.0,90.0
656,146.27389370416668,146.5720587791667,64.0,90.0
657,146.5032514541667,146.63130953125003,52.0,85.0
658,146.7326092041667,147.02886296458337,55.0,85.0
659,146.96196695416668,147.19896996250003,60.0,87.0
660,147.87939795416668,148.2540156125,54.0,96.0
661,147.6500402041667,148.28650796041669,50.0,86.0
662,148.3381134541667,148.3725171166667,50.0,72.0
663,147.1913247041667,148.43941312708336,38.0,92.0
664,147.4206824541667,148.43941312708336,45.0,72.0
665,148.3381134541667,148.62289932708336,62.0,85.0
666,148.3381134541667,148.64392378750003,54.0,87.0
667,148.56747120416668,148.6878840229167,50.0,85.0
668,149.0261867041667,149.12748637708336,38.0,89.0
669,149.0261867041667,149.29950468958336,50.0,82.0
670,149.0261867041667,149.3415536104167,54.0,72.0
671,149.0261867041667,149.3587554416667,57.0,75.0
672,149.0261867041667,149.51548323750004,62.0,81.0
673,149.7142599541667,150.2303148916667,57.0,90.0
674,149.94361770416668,150.2704524979167,62.0,96.0
675,150.1729754541667,150.31250141875003,66.0,101.0
676,149.4849022041667,150.4673179,50.0,87.0
677,150.4023332041667,150.49789893333335,57.0,86.0
678,150.8610487041667,151.1190761729167,39.0,80.0
679,150.8610487041667,151.13627800416668,46.0,79.0
680,150.8610487041667,151.1878834979167,63.0,83.0
681,150.8610487041667,151.1993513854167,75.0,72.0
682,151.3197642041667,151.55676721250003,39.0,80.0
683,151.3197642041667,151.57588035833336,46.0,81.0
684,151.3197642041667,151.6351311104167,63.0,86.0
685,151.3197642041667,151.6351311104167,75.0,78.0
686,151.7784797041667,152.06135426250003,39.0,85.0
687,151.7784797041667,152.06899952083336,46.0,86.0
688,151.7784797041667,152.07855609375002,63.0,86.0
689,151.7784797041667,152.0995805541667,75.0,79.0
690,152.2371166604167,152.5491410104167,39.0,87.0
691,152.2371166604167,152.5510435979167,46.0,87.0
692,152.2371166604167,152.5929005229167,63.0,89.0
693,152.2371166604167,152.5986082854167,75.0,86.0
694,152.6937376604167,154.83414859791668,75.0,87.0
695,152.6937376604167,154.9806478354167,63.0,101.0
696,152.6937376604167,155.3744834479167,39.0,90.0
697,152.6937376604167,155.3897041479167,46.0,92.0
698,156.3483288979167,156.79000718333336,63.0,78.0
699,156.3483288979167,156.87077624583338,56.0,75.0
700,156.80731483958337,157.33808296458338,51.0,68.0
701,157.26885233958336,157.46115963125004,60.0,87.0
702,157.26885233958336,157.5092364541667,56.0,85.0
703,157.26885233958336,157.54577483958337,63.0,85.0
704,157.49962108958337,157.8669280166667,51.0,68.0
705,156.3483288979167,157.9246202041667,44.0,85.0
706,157.73038983958338,158.00154312083336,58.0,71.0
707,157.96115858958336,158.5765419229167,60.0,81.0
708,158.65346483958336,159.16561336875006,51.0,67.0
709,159.11553633958337,159.3081402979167,56.0,81.0
710,159.11553633958337,159.35436524791672,60.0,86.0
711,158.19192733958337,159.37940376250006,44.0,86.0
712,159.11553633958337,159.43140683125006,63.0,85.0
713,159.57778583958338,159.7646116791667,44.0,86.0
714,160.0400353395834,160.65251592708339,58.0,76.0
715,160.0400353395834,160.6987408770834,63.0,77.0
716,160.50228483958338,161.02616760625006,55.0,72.0
717,160.9645343395834,161.18410285208338,58.0,85.0
718,160.9645343395834,161.18988097083337,63.0,87.0
719,160.9645343395834,161.33240790000005,67.0,85.0
720,160.0400353395834,161.6078315604167,48.0,87.0
721,161.1956590895834,161.68102106458338,55.0,66.0
722,161.42678383958338,161.74458037083338,63.0,80.0
723,161.65790858958337,161.93525828958337,67.0,78.0
724,161.8890333395834,162.38787759166672,63.0,79.0
725,162.35128283958338,162.89057392291673,55.0,70.0
726,162.8135323395834,163.3046724333334,63.0,88.0
727,162.8135323395834,163.3181547104167,58.0,86.0
728,161.8890333395834,163.36437966041672,48.0,88.0
729,163.27578183958337,163.42793896666672,55.0,80.0
730,163.7380313395834,164.23109747291673,61.0,79.0
731,163.7380313395834,164.25806202708338,56.0,86.0
732,164.20028083958337,164.72608964583338,53.0,70.0
733,164.66253033958338,164.9129154854167,56.0,85.0
734,164.66253033958338,164.91484152500004,61.0,88.0
735,164.66253033958338,164.98225291041672,65.0,86.0
736,163.7380313395834,165.4040555791667,46.0,85.0
737,164.89365508958338,165.43679825208338,53.0,85.0
738,165.1247798395834,165.48687528125004,56.0,87.0
739,165.58702933958338,166.1995099270834,56.0,81.0
740,165.58702933958338,166.20528804583338,61.0,81.0
741,166.0492788395834,166.76961764375005,53.0,67.0
742,165.58702933958338,166.80043427708338,46.0,86.0
743,166.51152833958338,166.8466592270834,56.0,88.0
744,166.51152833958338,166.8871060583334,61.0,89.0
745,166.9737778395834,167.15097348125005,46.0,86.0
746,167.43602733958338,167.57085011041673,39.0,87.0
747,167.43602733958338,167.72300723750004,58.0,76.0
748,167.43602733958338,167.8597560479167,63.0,81.0
749,168.36052633958337,168.59935524791672,63.0,87.0
750,168.36052633958337,168.82662791875006,67.0,90.0
751,168.5916510895834,169.0211579166667,58.0,74.0
752,167.8982768395834,169.05197455000004,51.0,73.0
753,168.8227758395834,169.15790672708337,63.0,79.0
754,169.05390058958338,169.2099097958334,67.0,77.0
755,169.2850253395834,169.64712078125004,70.0,81.0
756,169.2850253395834,169.67215929583338,63.0,80.0
757,169.2850253395834,169.6779374145834,67.0,81.0
758,169.97839958958338,170.08047968750006,63.0,81.0
759,169.74727483958338,170.25382325000004,58.0,74.0
760,170.2095243395834,170.43872305000005,63.0,90.0
761,170.2095243395834,170.49457819791672,75.0,89.0
762,169.2850253395834,170.52346879166672,51.0,91.0
763,170.4406490895834,170.58895413750005,58.0,85.0
764,170.67177383958338,170.76422373958337,63.0,90.0
765,171.1340233395834,171.6020509583334,56.0,80.0
766,171.1340233395834,171.60782907708338,63.0,81.0
767,171.59627283958338,172.1702326354167,51.0,71.0
768,172.0585223395834,172.23186590208337,58.0,86.0
769,172.0585223395834,172.2453481791667,63.0,87.0
770,172.28964708958338,172.49380728541672,51.0,73.0
771,171.1340233395834,172.53232807708338,44.0,86.0
772,172.52077183958338,172.83279025208338,56.0,87.0
773,172.9830213395834,173.4356406416667,63.0,80.0
774,172.9830213395834,173.4741614333334,56.0,80.0
775,172.9830213395834,173.47801351250004,60.0,74.0
776,173.44527083958337,173.9653015270834,51.0,70.0
777,173.90752033958339,174.1290148916667,56.0,90.0
778,173.90752033958339,174.18679607916673,60.0,91.0
779,173.90752033958339,174.1925741979167,63.0,91.0
780,172.9830213395834,174.2330210291667,44.0,85.0
781,174.13864508958338,174.29080221666672,51.0,87.0
782,174.3697698395834,174.5103707291667,44.0,86.0
783,174.83201933958338,175.3867187395834,63.0,81.0
784,174.83201933958338,175.44835200625005,58.0,78.0
785,175.2942688395834,175.8712533083334,55.0,75.0
786,175.75691241458338,176.19877213958338,58.0,86.0
787,175.75691241458338,176.22202791458338,63.0,91.0
788,175.75691241458338,176.26660148333337,67.0,86.0
789,174.83201933958338,176.4875313458334,48.0,87.0
790,176.22202791458338,176.6386938833334,55.0,71.0
791,176.68714341458337,177.2743517333334,63.0,85.0
792,176.4545856645834,177.30923539583338,58.0,80.0
793,177.15225891458337,177.67938981458337,55.0,69.0
794,177.61737441458337,177.8576840895834,58.0,86.0
795,177.84993216458338,178.01466057083337,55.0,70.0
796,177.61737441458337,178.04760625208337,63.0,87.0
797,177.61737441458337,178.1134976145834,67.0,86.0
798,176.68714341458337,178.14062935208338,48.0,87.0
799,178.0824899145834,178.27435005833337,58.0,86.0
800,178.5476054145834,179.13997390833336,61.0,80.0
801,178.5476054145834,179.19246218958338,56.0,86.0
802,179.01361323125005,179.51905593958338,53.0,67.0
803,179.48017573125003,179.7212330229167,56.0,87.0
804,178.5476054145834,179.76983328333338,46.0,85.0
805,179.48017573125003,179.7795533354167,61.0,87.0
806,179.71345698125003,179.99728250208338,53.0,83.0
807,179.48017573125003,180.00311453333336,65.0,90.0
808,179.94673823125004,180.20140359583337,56.0,86.0
809,180.18001948125004,180.41913276250003,61.0,81.0
810,180.41330073125005,180.68071479375004,58.0,80.0
811,180.41330073125005,180.77055854375004,63.0,83.0
812,180.88188666875004,181.07719916875004,58.0,78.0
813,181.35188935625004,181.51894888750004,58.0,85.0
814,180.41330073125005,181.59363432500004,51.0,85.0
815,181.35188935625004,181.77328734791672,67.0,86.0
816,181.35188935625004,181.81475648541672,63.0,86.0
817,181.8246300895834,181.92929029375006,58.0,81.0
818,182.2580060020834,182.83125440208337,60.0,75.0
819,182.2818913520834,182.90490089791672,56.0,82.0
820,182.1525123729167,182.93475758541672,63.0,75.0
821,182.69391363958337,183.4303785979167,51.0,71.0
822,183.19749643541672,183.5378626729167,63.0,81.0
823,182.2779104604167,183.68316521875005,44.0,85.0
824,183.20346777291672,183.71302190625005,56.0,82.0
825,183.7110314604167,184.13492636458338,51.0,73.0
826,184.0209263645834,184.92092636458338,56.0,80.0
827,184.1149263645834,185.26092636458338,60.0,78.0
828,184.1729263645834,185.3649263645834,44.0,81.0
829,184.71292636458338,185.3809263645834,51.0,70.0
830,184.18292636458338,185.4069263645834,63.0,81.0
831,184.2349263645834,185.4229263645834,68.0,76.0
832,186.5869263645834,186.9609263645834,56.0,82.0
833,186.7769263645834,187.1309263645834,61.0,76.0
834,186.9709263645834,187.45692636458338,65.0,76.0
835,187.1789263645834,188.2229263645834,58.0,70.0
836,186.1729263645834,188.2389263645834,46.0,86.0
837,187.41492636458338,188.24892636458338,61.0,80.0
838,187.6569263645834,188.27892636458338,65.0,80.0
839,186.41492636458338,188.2949263645834,53.0,82.0
840,187.9769263645834,188.39092636458338,70.0,60.0
841,189.32092636458339,190.26092636458338,58.0,72.0
842,189.4169263645834,190.4189263645834,63.0,82.0
843,189.5009263645834,190.64692636458338,67.0,73.0
844,190.1089263645834,190.6609263645834,55.0,75.0
845,189.3829263645834,190.8049263645834,48.0,86.0
846,190.4009263645834,190.9609263645834,58.0,79.0
847,190.6369263645834,190.9969263645834,63.0,85.0
848,190.9289263645834,191.42692636458338,67.0,86.0
849,191.6429263645834,191.81492636458339,65.0,75.0
850,191.55892636458339,192.4769263645834,48.0,80.0
851,191.3709263645834,192.6229263645834,41.0,85.0
852,191.73692636458338,192.7929263645834,68.0,74.0
853,193.9409263645834,194.7149263645834,61.0,75.0
854,193.8309263645834,194.7769263645834,56.0,73.0
855,194.03492636458338,194.8349263645834,65.0,74.0
856,195.1669263645834,195.41492636458338,61.0,86.0
857,195.1689263645834,195.4469263645834,56.0,83.0
858,195.6609263645834,195.9729263645834,56.0,79.0
859,195.65892636458338,196.0369263645834,60.0,77.0
860,193.7589263645834,196.4729263645834,53.0,79.0
861,193.5869263645834,196.5509263645834,46.0,84.0
862,196.1629263645834,196.64692636458338,58.0,73.0
863,197.53492636458338,197.7649263645834,58.0,70.0
864,197.5969263645834,199.4609263645834,63.0,75.0
865,197.6449263645834,200.8329263645834,67.0,77.0
866,200.7749263645834,201.1189263645834,63.0,80.0
867,201.0629263645834,201.4289263645834,60.0,87.0
868,200.4229263645834,201.7709263645834,55.0,39.0
869,197.5389263645834,201.9889263645834,48.0,85.0
870,201.3849263645834,202.1149263645834,63.0,72.0
871,201.7629263645834,202.14092636458338,60.0,43.0
872,203.3729263645834,203.6509263645834,56.0,85.0
873,203.59292636458338,203.7229263645834,67.0,92.0
874,203.8649263645834,204.0749263645834,63.0,83.0
875,204.1269263645834,204.3409263645834,56.0,80.0
876,204.4589263645834,204.71892636458338,60.0,63.0
877,204.72492636458338,205.0629263645834,56.0,70.0
878,205.0689263645834,205.1789263645834,63.0,80.0
879,205.3949263645834,205.5149263645834,67.0,75.0
880,205.7269263645834,205.8689263645834,70.0,74.0
881,206.0489263645834,206.3269263645834,72.0,62.0
882,206.3749263645834,206.49292636458338,75.0,78.0
883,206.7649263645834,206.9409263645834,79.0,80.0
884,207.2109263645834,207.7169263645834,77.0,75.0
885,207.7229263645834,207.8329263645834,82.0,74.0
886,208.4089263645834,208.5269263645834,79.0,64.0
887,208.5069263645834,208.6149263645834,87.0,83.0
888,203.1629263645834,209.7509263645834,51.0,72.0
889,202.89092636458338,209.80892636458339,44.0,80.0
