,start,end,pitch,velocity
0,0.7343738249999999,0.84374865,64.0,96.0
1,0.932290175,1.0381927833333333,64.0,73.0
2,1.1597203666666667,1.4392338083333334,64.0,100.0
3,1.6111085333333333,1.723955575,67.0,90.0
4,1.8211776416666665,1.9305524666666667,67.0,88.0
5,2.05208005,2.3420101416666665,67.0,112.0
6,2.5121487583333333,2.6527735333333333,67.0,112.0
7,2.7326345166666663,2.9166619999999996,69.0,107.0
8,3.2204809583333334,3.567702625,71.0,122.0
9,3.736105133333333,3.9114520749999997,69.0,112.0
10,4.105896208333333,4.23957655,69.0,122.0
11,4.567701025,4.7291590999999995,69.0,117.0
12,4.980894808333333,5.2031166749999995,64.0,97.0
13,5.274297116666666,6.5642256083333335,69.0,112.0
14,7.494779674999999,7.602418391666666,69.0,97.0
15,7.725682083333333,7.821168041666667,69.0,96.0
16,7.960056708333333,8.09373705,69.0,117.0
17,8.352417191666666,8.472208666666667,69.0,102.0
18,8.592000141666666,8.911444075,74.0,127.0
19,9.065957716666666,9.215263033333333,74.0,127.0
20,9.40623495,9.513873666666667,74.0,117.0
21,9.642345683333334,9.876720308333333,74.0,127.0
22,10.064220008333333,10.328108474999999,69.0,127.0
23,10.524288716666666,10.928801958333333,67.0,112.0
24,10.973940774999999,11.328106875,69.0,127.0
25,11.595467558333333,11.777758933333333,67.0,107.0
26,12.05206405,12.171855525,69.0,127.0
27,12.26039705,13.348936974999999,71.0,127.0
28,14.333310399999998,14.463518525,71.0,127.0
29,14.576365566666666,14.762129158333332,71.0,127.0
30,14.923587233333333,15.142336883333332,71.0,112.0
31,15.164906291666666,15.4791419,76.0,127.0
32,15.638863866666666,15.777752533333333,76.0,127.0
33,15.890599575,16.093724249999998,76.0,127.0
34,16.184001883333334,16.487820841666665,74.0,112.0
35,16.612820641666666,16.77254260833333,74.0,112.0
36,16.963514525,17.2708057,74.0,127.0
37,17.411430475,17.590249633333332,72.0,107.0
38,17.803790958333334,18.38538725,72.0,127.0
39,18.541636999999998,18.682261775,71.0,122.0
40,18.829830983333334,19.17705265,71.0,122.0
41,19.362816241666664,20.171842724999998,69.0,112.0
42,20.352397991666667,20.55205045,71.0,122.0
43,20.571147641666666,20.744758474999998,69.0,78.0
44,20.765591775,20.911424874999998,67.0,93.0
45,20.98954975,21.121493983333334,64.0,99.0
46,21.215243833333332,21.390590775,67.0,112.0
47,21.428785158333334,21.558993283333333,64.0,96.0
48,21.628437616666666,21.859340024999998,67.0,127.0
49,22.032950858333333,22.376700308333334,71.0,127.0
50,22.550311141666665,23.091976941666665,69.0,127.0
51,23.907947858333333,24.2082946,64.0,95.0
52,24.326349966666665,26.305513466666664,64.0,95.0
53,28.052038449999998,28.150996624999998,64.0,97.0
54,28.260371449999997,28.36627405833333,64.0,92.0
55,28.468704449999997,28.784676166666664,64.0,102.0
56,28.88537045,28.979120299999998,67.0,107.0
57,29.09370345,29.196133841666665,67.0,92.0
58,29.30203645,29.650994224999998,67.0,107.0
59,29.71870245,29.789882891666664,67.0,122.0
60,29.927035449999998,30.0207853,67.0,99.0
61,30.135368449999998,30.364534749999997,69.0,127.0
62,30.552034449999997,30.796825724999998,71.0,127.0
63,30.96870045,31.263838866666664,69.0,127.0
64,31.38536645,31.914879491666664,69.0,127.0
65,32.21869845,32.82980858333333,71.0,127.0
66,33.05203045,33.98084840833333,69.0,117.0
67,34.71869445,34.81070819166666,69.0,112.0
68,34.92702745,35.01383286666667,69.0,99.0
69,35.13536045,35.24647138333333,69.0,112.0
70,35.343693449999996,35.51035985,69.0,107.0
71,35.760359449999996,35.932234175,69.0,112.0
72,35.96869245,36.33153909166666,74.0,127.0
73,36.38535845,36.473899974999995,74.0,107.0
74,36.59369145,36.673552433333334,74.0,107.0
75,36.80202445,37.069385133333334,74.0,127.0
76,37.21869045,37.479106699999996,69.0,127.0
77,37.635356449999996,38.00688363333333,67.0,117.0
78,38.88535445,39.453061874999996,71.0,122.0
79,39.71868645,41.025976025,71.0,127.0
80,41.38535045,41.463475325,71.0,127.0
81,41.59368345,41.666599999999995,71.0,107.0
82,41.802016449999996,42.015557775,71.0,122.0
83,42.218682449999996,42.307223975,71.0,107.0
84,42.42701545,42.53812638333333,71.0,102.0
85,42.635348449999995,42.88534805,76.0,127.0
86,43.05201445,43.13361154166667,76.0,127.0
87,43.26034745,43.378402816666664,76.0,102.0
88,43.46868045,43.746457783333334,74.0,127.0
89,43.88534645,44.05201285,74.0,127.0
90,44.30201245,44.61451195,74.0,127.0
91,44.71867845,44.864511549999996,72.0,127.0
92,45.13534445,45.34020523333333,72.0,127.0
93,45.55201045,45.69610744166666,71.0,100.0
94,45.76034345,46.194370533333334,72.0,127.0
95,46.385342449999996,47.04853583333333,69.0,122.0
96,47.218674449999995,47.354090899999996,71.0,127.0
97,47.42700745,47.55895168333333,69.0,117.0
98,47.63534045,47.763812466666664,67.0,93.0
99,47.84367345,47.95999270833333,64.0,89.0
100,48.05200645,48.182214574999996,67.0,96.0
101,48.26033945,48.411380875,64.0,93.0
102,48.46867245,48.727352591666666,67.0,127.0
103,48.88533845,49.15617135,71.0,127.0
104,49.30200445,49.617976166666665,69.0,127.0
105,49.71867045,49.80547586666666,69.0,127.0
106,49.92700345,50.01207275833333,69.0,96.0
107,50.13533645,50.38533605,69.0,107.0
108,50.552002449999996,51.20651529166666,64.0,112.0
109,51.385334449999995,53.03810958333333,64.0,100.0
110,54.093663449999994,54.31067699166666,59.0,89.0
111,54.30199645,54.60581540833333,71.0,127.0
112,54.71866245,54.999911999999995,71.0,117.0
113,55.135328449999996,55.42005021666667,71.0,127.0
114,55.551994449999995,55.640535975,71.0,112.0
115,55.76032745,56.187410099999994,71.0,127.0
116,56.38532645,56.94782555,69.0,127.0
117,57.010325449999996,57.13358914166666,69.0,117.0
118,57.21865845,57.334977708333334,71.0,112.0
119,57.426991449999996,57.578032875,69.0,122.0
120,57.63532445,57.87837961666666,67.0,122.0
121,58.05199045,58.2707401,64.0,127.0
122,58.46865645,58.69435053333333,64.0,127.0
123,58.88532245,59.005113924999996,62.0,127.0
124,59.09365545,60.156153749999994,64.0,122.0
125,60.76031945,60.932194175,59.0,107.0
126,60.96865245,61.197818749999996,71.0,112.0
127,61.38531845,62.045039616666664,71.0,127.0
128,62.21865045,62.357539116666665,71.0,127.0
129,62.63531645,63.046774125,71.0,127.0
130,63.05198245,63.60059268333333,69.0,127.0
131,63.67698145,63.779411841666665,69.0,122.0
132,63.885314449999996,63.994689275,71.0,112.0
133,64.09364744999999,64.18566119166667,69.0,117.0
134,64.30198045,64.6248966,67.0,127.0
135,64.71864645,64.9582294,64.0,117.0
136,65.13531245,65.30545106666666,64.0,107.0
137,65.34364545,65.58149229166666,67.0,112.0
138,65.55197845,65.73774204166666,69.0,97.0
139,65.76031145,66.8123931,71.0,127.0
140,67.42697545,67.619683475,59.0,107.0
141,67.63530845,67.916558,71.0,127.0
142,68.05197445,68.31586291666666,71.0,127.0
143,68.46864045,68.72037615833332,71.0,127.0
144,68.88530645,68.963431325,71.0,122.0
145,69.09363945,69.598846975,71.0,127.0
146,69.71863845,70.42523454166667,69.0,127.0
147,70.34363745,70.42523454166667,69.0,127.0
148,70.55197045,70.66828970833333,71.0,112.0
149,70.76030345,70.921761525,69.0,117.0
150,70.96863644999999,71.23252491666666,67.0,112.0
151,71.38530245,71.66307978333333,64.0,127.0
152,71.80196844999999,72.046759725,64.0,127.0
153,72.21863445,72.50509232499999,62.0,122.0
154,72.42696744999999,73.48772964166666,64.0,102.0
155,74.09363144999999,74.25161730833332,59.0,90.0
156,74.30196445,74.43564479166666,71.0,127.0
157,74.51029745,74.61099173333334,71.0,95.0
158,74.71863044999999,74.98772724166666,71.0,127.0
159,75.13529645,75.45994870833333,71.0,127.0
160,75.55196244999999,75.63008732499999,71.0,127.0
161,75.76029545,76.21168361666666,71.0,127.0
162,76.38529445,76.80196045,69.0,120.0
163,77.01029344999999,77.17001541666666,69.0,127.0
164,77.21862645,77.380084525,71.0,117.0
165,77.42695945,77.60230639166666,69.0,117.0
166,77.63529245,77.89918091666667,67.0,127.0
167,78.05195845,78.32626356666667,64.0,112.0
168,78.46862445,78.70994350833332,67.0,127.0
169,78.88529045,79.01029025,69.0,127.0
170,79.30195644999999,80.31931593333333,71.0,127.0
171,80.55195445,80.84709286666666,71.0,117.0
172,80.96862045,81.24813389166667,76.0,127.0
173,81.38528645,81.67695264999999,76.0,127.0
174,81.80195245,82.11445195,78.0,127.0
175,82.21861845,83.14743640833333,76.0,127.0
176,83.88528244999999,84.14222648333333,71.0,122.0
177,84.30194845,84.69430893333333,76.0,127.0
178,84.71861444999999,85.32625236666667,76.0,127.0
179,85.55194645,85.76375166666666,74.0,127.0
180,85.76027945,85.98423742499999,72.0,107.0
181,86.17694544999999,86.3540285,74.0,127.0
182,86.38527845,87.30020754166667,72.0,117.0
183,88.05194245,88.30715037499999,72.0,122.0
184,88.46860844999999,88.73770524166666,74.0,127.0
185,88.88527445,89.09360745,76.0,127.0
186,89.30194044999999,89.54499561666667,76.0,127.0
187,89.51027345,90.05888368333333,74.0,127.0
188,90.55193845,90.7290215,67.0,100.0
189,90.96860445,91.16825690833333,74.0,127.0
190,91.17693745,91.38527045,72.0,112.0
191,91.38527045,91.90436684166666,71.0,102.0
192,92.01026945,92.18561639166666,69.0,112.0
193,92.21860244999999,92.38006052499999,67.0,85.0
194,92.42693545,92.55019914166667,69.0,112.0
195,92.63526845,93.57276695,71.0,127.0
196,94.09359945,94.24637698333333,71.0,96.0
197,94.30193245,94.55540426666666,76.0,112.0
198,94.71859845,95.01894519166666,76.0,122.0
199,95.13526445,95.432138975,78.0,127.0
200,95.55193045,95.76026345,78.0,117.0
201,95.76026345,97.00852534166667,76.0,122.0
202,97.21859445,97.37137198333333,71.0,117.0
203,97.63526044999999,97.97032935833333,76.0,127.0
204,98.05192645,98.68560599166666,76.0,127.0
205,98.88525845,99.07623036666666,74.0,127.0
206,99.09359144999999,99.28629947499999,72.0,102.0
207,99.51025745,99.70643769166666,74.0,122.0
208,99.71859045,100.62136678333333,72.0,99.0
209,101.38525444999999,101.63699015833333,67.0,102.0
210,101.80192045,102.05712837499999,67.0,107.0
211,102.21858644999999,102.32796127499999,67.0,97.0
212,102.63525245,103.19601544166666,71.0,127.0
213,103.05191845,103.65955636666666,69.0,117.0
214,103.88525045,104.11615285833332,66.0,127.0
215,104.30191645,104.56580491666666,67.0,127.0
216,104.51024944999999,104.74288796666666,66.0,99.0
217,104.71858245,106.44774634999999,64.0,92.0
218,114.71856645,114.81752462499999,64.0,97.0
219,114.92689945,115.03280205833333,64.0,92.0
220,115.13523244999999,115.45120416666666,64.0,102.0
221,115.55189845,115.64564829999999,67.0,107.0
222,115.76023144999999,115.86266184166666,67.0,92.0
223,115.96856444999999,116.31752222499999,67.0,107.0
224,116.38523045,116.45641089166666,67.0,122.0
225,116.59356344999999,116.6873133,67.0,99.0
226,116.80189645,117.03106274999999,69.0,127.0
227,117.21856245,117.46335372499999,71.0,127.0
228,117.63522845,117.93036686666666,69.0,127.0
229,118.05189444999999,118.58140749166667,69.0,127.0
230,118.88522644999999,119.49633658333333,71.0,127.0
231,119.71855844999999,120.64737640833333,69.0,117.0
232,121.38522245,121.47723619166666,69.0,112.0
233,121.59355545,121.68036086666666,69.0,99.0
234,121.80188844999999,121.91299938333333,69.0,112.0
235,122.01022144999999,122.17688785,69.0,107.0
236,122.42688745,122.59876217499999,69.0,112.0
237,122.63522044999999,122.99806709166666,74.0,127.0
238,123.05188645,123.140427975,74.0,107.0
239,123.26021945,123.34008043333333,74.0,107.0
240,123.46855244999999,123.73591313333333,74.0,127.0
241,123.88521845,124.14563469999999,69.0,127.0
242,124.30188444999999,124.67341163333333,67.0,117.0
243,125.55188245,126.11958987499999,71.0,122.0
244,126.38521444999999,127.69250402499999,71.0,127.0
245,128.05187845,128.130003325,71.0,127.0
246,128.26021144999999,128.333128,71.0,107.0
247,128.46854445,128.682085775,71.0,122.0
248,128.88521045,128.973751975,71.0,107.0
249,129.09354345,129.20465438333332,71.0,102.0
250,129.30187644999998,129.55187605,76.0,127.0
251,129.71854245,129.80013954166665,76.0,127.0
252,129.92687544999998,130.04493081666666,76.0,102.0
253,130.13520845,130.41298578333334,74.0,127.0
254,130.55187444999999,130.71854084999998,74.0,127.0
255,130.96854045,131.28103995,74.0,127.0
256,131.38520645,131.53103955,72.0,127.0
257,131.80187245,132.00673323333334,72.0,127.0
258,132.21853844999998,132.36263544166667,71.0,100.0
259,132.42687145,132.86089853333334,72.0,127.0
260,133.05187045,133.71506383333332,69.0,122.0
261,133.88520244999998,134.0206189,71.0,127.0
262,134.09353545,134.22547968333333,69.0,117.0
263,134.30186845,134.43034046666665,67.0,93.0
264,134.51020144999998,134.62652070833332,64.0,89.0
265,134.71853445,134.848742575,67.0,96.0
266,134.92686745,135.077908875,64.0,93.0
267,135.13520044999999,135.39388059166666,67.0,127.0
268,135.55186645,135.82269935,71.0,127.0
269,135.96853245,136.28450416666666,69.0,127.0
270,136.38519845,136.47200386666665,69.0,127.0
271,136.59353145,136.67860075833332,69.0,96.0
272,136.80186444999998,137.05186405,69.0,107.0
273,137.21853045,137.87304329166665,64.0,112.0
274,138.05186245,139.70463758333332,64.0,100.0
275,140.76019144999998,140.97720499166667,59.0,89.0
276,140.96852445,141.2723434083333,71.0,127.0
277,141.38519044999998,141.66644,71.0,117.0
278,141.80185645,142.08657821666665,71.0,127.0
279,142.21852245,142.307063975,71.0,112.0
280,142.42685545,142.8539381,71.0,127.0
281,143.05185445,143.61435355,69.0,127.0
282,143.67685344999998,143.80011714166665,69.0,117.0
283,143.88518645,144.00150570833333,71.0,112.0
284,144.09351945,144.244560875,69.0,122.0
285,144.30185244999998,144.54490761666665,67.0,122.0
286,144.71851845,144.93726809999998,64.0,127.0
287,145.13518445,145.36087853333333,64.0,127.0
288,145.55185045,145.671641925,62.0,127.0
289,145.76018345,146.82268175,64.0,122.0
290,147.42684745,147.598722175,59.0,107.0
291,147.63518045,147.86434674999998,71.0,112.0
292,148.05184645,148.71156761666666,71.0,127.0
293,148.88517844999998,149.02406711666666,71.0,127.0
294,149.30184445,149.71330212499998,71.0,127.0
295,149.71851045,150.26712068333333,69.0,127.0
296,150.34350945,150.44593984166667,69.0,122.0
297,150.55184244999998,150.66121727499998,71.0,112.0
298,150.76017545,150.85218919166667,69.0,117.0
299,150.96850845,151.2914246,67.0,127.0
300,151.38517445,151.6247574,64.0,117.0
301,151.80184045,151.97197906666665,64.0,107.0
302,152.01017345,152.24802029166665,67.0,112.0
303,152.21850645,152.40427004166665,69.0,97.0
304,152.42683945,153.47892109999998,71.0,127.0
305,154.09350345,154.286211475,59.0,107.0
306,154.30183645,154.58308599999998,71.0,127.0
307,154.71850245,154.98239091666665,71.0,127.0
308,155.13516844999998,155.38690415833332,71.0,127.0
309,155.55183445,155.629959325,71.0,122.0
310,155.76016744999998,156.265374975,71.0,127.0
311,156.38516644999999,157.09176254166667,69.0,127.0
312,157.01016545,157.09176254166667,69.0,127.0
313,157.21849845,157.33481770833333,71.0,112.0
314,157.42683144999998,157.588289525,69.0,117.0
315,157.63516445,157.89905291666665,67.0,112.0
316,158.05183044999998,158.32960778333333,64.0,127.0
317,158.46849645,158.713287725,64.0,127.0
318,158.88516245,159.171620325,62.0,122.0
319,159.09349545,160.15425764166665,64.0,102.0
320,160.76015945,160.91814530833332,59.0,90.0
321,160.96849244999999,161.10217279166665,71.0,127.0
322,161.17682545,161.27751973333332,71.0,95.0
323,161.38515845,161.65425524166665,71.0,127.0
324,161.80182445,162.1264767083333,71.0,127.0
325,162.21849045,162.296615325,71.0,127.0
326,162.42682345,162.87821161666665,71.0,127.0
327,163.05182245,163.46848845,69.0,120.0
328,163.67682145,163.83654341666667,69.0,127.0
329,163.88515445,164.046612525,71.0,117.0
330,164.09348745,164.26883439166667,69.0,117.0
331,164.30182044999998,164.56570891666667,67.0,127.0
332,164.71848645,164.99279156666665,64.0,112.0
333,165.13515245,165.37647150833334,67.0,127.0
334,165.55181844999998,165.67681825,69.0,127.0
335,165.96848445,166.9858439333333,71.0,127.0
336,167.21848244999998,167.51362086666666,71.0,117.0
337,167.63514845,167.91466189166667,76.0,127.0
338,168.05181445,168.34348065,76.0,127.0
339,168.46848045,168.78097995,78.0,127.0
340,168.88514644999998,169.81396440833333,76.0,127.0
341,170.55181045,170.80875448333333,71.0,122.0
342,170.96847645,171.36083693333333,76.0,127.0
343,171.38514245,171.99278036666666,76.0,127.0
344,172.21847445,172.43027966666665,74.0,127.0
345,172.42680744999998,172.650765425,72.0,107.0
346,172.84347345,173.0205565,74.0,127.0
347,173.05180645,173.96673554166665,72.0,117.0
348,174.71847044999998,174.973678375,72.0,122.0
349,175.13513645,175.40423324166665,74.0,127.0
350,175.55180245,175.76013544999998,76.0,127.0
351,175.96846845,176.21152361666665,76.0,127.0
352,176.17680145,176.72541168333333,74.0,127.0
353,177.21846645,177.3955495,67.0,100.0
354,177.63513245,177.83478490833332,74.0,127.0
355,177.84346545,178.05179844999998,72.0,112.0
356,178.05179844999998,178.57089484166667,71.0,102.0
357,178.67679744999998,178.85214439166666,69.0,112.0
358,178.88513045,179.046588525,67.0,85.0
359,179.09346345,179.21672714166667,69.0,112.0
360,179.30179644999998,180.23929495,71.0,127.0
361,180.76012745,180.91290498333333,71.0,96.0
362,180.96846044999998,181.22193226666667,76.0,112.0
363,181.38512645,181.68547319166666,76.0,122.0
364,181.80179245,182.098666975,78.0,127.0
365,182.21845844999999,182.42679145,78.0,117.0
366,182.42679145,183.67505334166665,76.0,122.0
367,183.88512244999998,184.03789998333332,71.0,117.0
368,184.30178845,184.63685735833332,76.0,127.0
369,184.71845445,185.35213399166665,76.0,127.0
370,185.55178644999998,185.74275836666666,74.0,127.0
371,185.76011945,185.952827475,72.0,102.0
372,186.17678544999998,186.37296569166665,74.0,122.0
373,186.38511845,187.28789478333331,72.0,99.0
374,188.05178245,188.30351815833333,67.0,102.0
375,188.46844844999998,188.723656375,67.0,107.0
376,188.88511445,188.99448927499998,67.0,97.0
377,189.30178045,189.86254344166665,71.0,127.0
378,189.71844645,190.32608436666666,69.0,117.0
379,190.55177845,190.78268085833332,66.0,127.0
380,190.96844445,191.23233291666665,67.0,127.0
381,191.17677745,191.40941596666667,66.0,99.0
382,191.38511044999998,193.11427435,64.0,92.0
383,220.57960645,220.87698503333334,71.0,117.0
384,221.018114075,221.34271087083334,76.0,127.0
385,221.50198507500002,221.8391613625,76.0,127.0
386,221.9659217125,222.2828225875,78.0,127.0
387,222.3884562125,223.33035603541666,76.0,127.0
388,224.0785942125,224.33915715416666,71.0,122.0
389,224.5011287125,224.89901536666667,76.0,127.0
390,224.9236632125,225.53985935833333,76.0,127.0
391,225.7687322125,225.98352058333333,74.0,127.0
392,225.9799994625,226.20711175625,72.0,107.0
393,226.4025339625,226.582111125,74.0,127.0
394,226.6138012125,227.54161655208333,72.0,117.0
395,228.3039392125,228.56274159375,72.0,122.0
396,228.7264737125,228.99936057708334,74.0,127.0
397,229.1490082125,229.3602754625,76.0,127.0
398,229.5715427125,229.81802117083333,76.0,127.0
399,229.7828099625,230.33914705416666,74.0,127.0
400,230.8391462125,231.018723375,67.0,100.0
401,231.2616807125,231.46414516041668,74.0,127.0
402,231.4729479625,231.6842152125,72.0,112.0
403,231.6842152125,232.21062277708333,71.0,102.0
404,232.3180169625,232.49583356458334,69.0,112.0
405,232.5292842125,232.69301633125,67.0,85.0
406,232.7405514625,232.86555125208332,69.0,112.0
407,232.9518187125,233.9025213375,71.0,127.0
408,234.4306894625,234.58561877916668,71.0,96.0
409,234.6419567125,234.89899853333333,76.0,112.0
410,235.0644912125,235.36906816458333,76.0,122.0
411,235.48702571249999,235.78808154375,78.0,127.0
412,235.9095602125,236.1208274625,78.0,117.0
413,236.1208274625,237.38667040208333,76.0,122.0
414,237.5996982125,237.75462752916667,71.0,117.0
415,238.0222327125,238.36202087291667,76.0,127.0
416,238.4447672125,239.08737176458334,76.0,127.0
417,239.2898362125,239.48349785833332,74.0,127.0
418,239.5011034625,239.69652566874998,72.0,102.0
419,239.9236379625,240.12258128958334,74.0,122.0
420,240.1349052125,241.05039662916667,72.0,99.0
421,241.8250432125,242.08032447291666,67.0,102.0
422,242.2475777125,242.50638009375,67.0,107.0
423,242.6701122125,242.78102751875,67.0,97.0
424,243.0926467125,243.66130772708334,71.0,127.0
425,243.5151812125,244.13137735833334,69.0,117.0
426,244.3602502125,244.59440474791666,66.0,127.0
427,244.7827847125,245.05038989583335,67.0,127.0
428,244.9940519625,245.22996705833333,66.0,99.0
429,245.2053192125,246.9588373875,64.0,92.0
