,start,end,pitch,velocity
0,24.30204445,24.753432616666665,64.0,89.0
1,24.30204445,24.80377975833333,67.0,92.0
2,24.71871045,25.182251375,59.0,76.0
3,25.13537645,25.590236833333332,64.0,88.0
4,25.13537645,25.607597916666666,52.0,66.0
5,25.13537645,25.67704225,67.0,88.0
6,25.55204245,26.057249974999998,59.0,73.0
7,25.968708449999998,26.670096216666664,67.0,81.0
8,25.968708449999998,26.6874573,64.0,75.0
9,26.38537445,26.880165325,59.0,58.0
10,26.80204045,27.39231728333333,64.0,86.0
11,26.80204045,27.421831124999997,67.0,89.0
12,24.30204445,27.557247574999998,40.0,79.0
13,24.71871045,27.63537245,47.0,52.0
14,25.968708449999998,27.63537245,52.0,41.0
15,27.21870645,27.63537245,59.0,58.0
16,27.63537245,28.097177266666666,64.0,93.0
17,27.63537245,28.118010566666666,67.0,92.0
18,28.052038449999998,28.53120435,59.0,75.0
19,28.052038449999998,28.703079074999998,47.0,51.0
20,28.468704449999997,28.900995424999998,52.0,58.0
21,28.468704449999997,28.958287,64.0,86.0
22,28.468704449999997,28.97043975833333,67.0,88.0
23,28.88537045,29.175300541666665,47.0,49.0
24,28.88537045,29.364536349999998,59.0,72.0
25,29.30203645,29.739535749999998,52.0,66.0
26,29.30203645,29.815924516666666,64.0,77.0
27,29.30203645,29.8332856,67.0,77.0
28,29.71870245,30.145785099999998,59.0,69.0
29,29.71870245,30.451340166666665,47.0,39.0
30,27.63537245,30.585020508333333,40.0,76.0
31,30.552034449999997,30.616270458333332,47.0,34.0
32,30.135368449999998,30.619742674999998,64.0,92.0
33,30.135368449999998,30.619742674999998,67.0,90.0
34,30.552034449999997,30.960019908333333,59.0,86.0
35,30.135368449999998,30.97564488333333,52.0,78.0
36,30.96870045,31.675296541666665,64.0,82.0
37,30.96870045,31.680504866666666,61.0,82.0
38,31.80203245,31.914879491666664,61.0,117.0
39,31.80203245,31.92356003333333,64.0,93.0
40,31.38536645,32.003421016666664,52.0,76.0
41,32.21869845,32.739530949999995,52.0,70.0
42,32.63536445,33.0624471,57.0,81.0
43,32.63536445,33.317655025,69.0,96.0
44,32.63536445,33.31939113333333,73.0,107.0
45,33.67702945,33.76904319166667,57.0,96.0
46,33.05203045,33.7707793,52.0,76.0
47,30.96870045,33.84543195833333,45.0,68.0
48,33.468696449999996,33.850640283333334,69.0,122.0
49,33.468696449999996,33.85584860833333,73.0,127.0
50,33.885362449999995,34.150987025,64.0,102.0
51,34.30202845,34.812444299999996,66.0,107.0
52,34.30202845,34.86626365833333,69.0,95.0
53,34.30202845,34.90966636666666,62.0,97.0
54,35.13536045,35.46001270833333,54.0,49.0
55,35.13536045,35.567651425,73.0,82.0
56,35.13536045,35.70133176666666,66.0,122.0
57,35.13536045,35.74126225833333,69.0,93.0
58,35.13536045,35.767303883333334,62.0,96.0
59,35.55202645,36.10237279166667,54.0,56.0
60,35.96869245,36.510358249999996,62.0,102.0
61,35.96869245,36.59369145,73.0,81.0
62,35.96869245,36.68396908333333,69.0,95.0
63,35.96869245,36.69785795,66.0,127.0
64,34.71869445,37.07459345833333,50.0,49.0
65,36.38535845,37.07980178333333,54.0,59.0
66,34.30202845,37.11626005833333,42.0,89.0
67,36.80202445,37.369731875,69.0,96.0
68,36.80202445,37.47563448333333,66.0,127.0
69,37.21869045,37.690911916666664,62.0,102.0
70,37.635356449999996,38.321119241666665,71.0,112.0
71,37.635356449999996,38.338480325,67.0,100.0
72,38.052022449999996,38.59368825,50.0,56.0
73,38.468688449999995,38.79854903333333,71.0,100.0
74,38.468688449999995,38.807229575,67.0,102.0
75,38.468688449999995,38.89924331666666,55.0,74.0
76,37.635356449999996,38.923548833333335,43.0,79.0
77,38.88535445,39.305492666666666,50.0,83.0
78,39.30202045,40.03118595,66.0,89.0
79,39.30202045,40.036394275,63.0,93.0
80,39.30202045,40.04333870833333,59.0,88.0
81,39.30202045,40.42701865,47.0,58.0
82,40.343685449999995,40.44785195,54.0,90.0
83,40.13535245,40.605837808333334,63.0,127.0
84,40.13535245,40.77424031666666,66.0,127.0
85,40.55201845,41.09194814166666,59.0,102.0
86,40.96868445,41.32285055,64.0,90.0
87,41.38535045,41.88361354166666,47.0,88.0
88,41.802016449999996,42.253404616666664,52.0,77.0
89,41.802016449999996,42.51034865,64.0,89.0
90,41.802016449999996,42.51034865,67.0,83.0
91,42.218682449999996,42.73951495,47.0,69.0
92,42.635348449999995,43.097153266666666,52.0,75.0
93,42.635348449999995,43.35583340833333,67.0,96.0
94,42.635348449999995,43.37666670833333,64.0,99.0
95,40.96868445,43.66312458333333,40.0,88.0
96,43.05201445,43.71694394166666,47.0,40.0
97,43.46868045,44.178748758333334,52.0,76.0
98,43.46868045,44.269026391666664,64.0,97.0
99,43.46868045,44.28812358333333,67.0,96.0
100,43.88534645,44.28985969166666,59.0,79.0
101,44.71867845,45.20652489166667,52.0,59.0
102,45.13534445,45.876662708333335,69.0,88.0
103,45.13534445,45.89228768333333,64.0,82.0
104,45.13534445,46.144023391666664,57.0,73.0
105,45.96867645,46.468675649999994,72.0,78.0
106,45.96867645,46.72214746666666,69.0,79.0
107,45.96867645,46.746452983333334,64.0,69.0
108,46.385342449999996,46.85061948333333,57.0,85.0
109,46.802008449999995,46.86798056666667,64.0,33.0
110,45.55201045,47.020758099999995,52.0,42.0
111,44.30201245,47.071105241666665,45.0,99.0
112,46.802008449999995,47.30374375833333,72.0,122.0
113,47.218674449999995,47.317632624999995,69.0,73.0
114,47.63534045,48.31936713333333,60.0,93.0
115,47.63534045,48.328047675,67.0,89.0
116,47.63534045,48.34714486666667,64.0,90.0
117,48.05200645,48.529436241666666,43.0,44.0
118,47.63534045,48.54853343333333,36.0,74.0
119,48.46867245,48.642283283333335,48.0,72.0
120,48.46867245,48.92700505,64.0,96.0
121,48.46867245,48.939157808333334,67.0,92.0
122,48.88533845,49.0624215,60.0,89.0
123,49.30200445,50.03811438333333,62.0,85.0
124,49.30200445,50.046794925,59.0,89.0
125,49.30200445,50.04853103333333,66.0,97.0
126,49.71867045,50.17353083333333,54.0,43.0
127,49.30200445,50.21519743333333,47.0,71.0
128,50.13533645,50.503391416666666,62.0,102.0
129,50.13533645,50.51207195833333,66.0,127.0
130,50.968668449999996,51.44088991666666,69.0,90.0
131,50.968668449999996,51.46866765,71.0,92.0
132,50.968668449999996,51.49123705833333,64.0,89.0
133,51.59366745,51.650959025,69.0,32.0
134,51.59366745,51.67352843333333,71.0,27.0
135,51.385334449999995,51.881861433333334,47.0,45.0
136,51.802000449999994,52.27943024166667,69.0,96.0
137,51.802000449999994,52.515540975,71.0,93.0
138,51.802000449999994,52.525957625,64.0,93.0
139,52.21866645,52.61623525833333,47.0,93.0
140,50.968668449999996,52.62144358333333,40.0,68.0
141,52.63533245,53.640539175,44.0,93.0
142,52.63533245,54.23081600833333,64.0,88.0
143,52.63533245,54.237760441666666,71.0,85.0
144,52.63533245,54.249913199999995,68.0,102.0
145,54.30199645,55.65442484166667,40.0,96.0
146,54.71866245,55.71171641666666,47.0,61.0
147,55.551994449999995,55.973868775,52.0,54.0
148,55.135328449999996,55.97560488333333,59.0,97.0
149,56.38532645,57.086714216666664,52.0,73.0
150,55.968660449999994,57.15615855,45.0,82.0
151,57.21865845,57.61622725833333,61.0,100.0
152,56.80199245,57.63532445,64.0,112.0
153,57.63532445,58.40789265833333,36.0,100.0
154,58.05199045,58.459975908333334,60.0,102.0
155,58.46865645,58.833239199999994,38.0,72.0
156,58.46865645,59.258585741666664,62.0,127.0
157,58.88532245,59.38184943333333,59.0,81.0
158,59.718654449999995,60.17525094166666,47.0,59.0
159,60.135320449999995,60.553722558333334,52.0,83.0
160,59.301988449999996,60.829763783333334,40.0,79.0
161,60.551986449999994,61.046777324999994,59.0,69.0
162,60.135320449999995,61.05198565,67.0,95.0
163,60.551986449999994,61.06413840833333,47.0,79.0
164,60.96865245,62.0415674,40.0,95.0
165,61.38531845,62.06587291666666,47.0,64.0
166,61.80198445,62.30371975833333,52.0,83.0
167,62.21865045,62.63878866666666,64.0,86.0
168,61.80198445,62.640524774999996,67.0,122.0
169,63.05198245,63.770731299999994,52.0,66.0
170,62.63531645,63.86100893333333,45.0,99.0
171,63.885314449999996,64.25684163333334,61.0,100.0
172,63.468648449999996,64.25684163333334,64.0,117.0
173,64.30198045,65.07281255,36.0,97.0
174,64.71864645,65.15267353333333,60.0,122.0
175,65.13531245,65.432186975,38.0,61.0
176,65.13531245,66.02940824166666,62.0,102.0
177,65.96864445,66.35058828333334,67.0,100.0
178,65.96864445,66.66135167499999,43.0,72.0
179,66.38531044999999,66.84190694166666,50.0,92.0
180,66.80197645,67.24294796666666,47.0,68.0
181,66.80197645,67.421767125,66.0,96.0
182,66.80197645,67.44086431666666,63.0,99.0
183,67.21864244999999,67.63530845,59.0,88.0
184,68.05197445,68.57975138333333,47.0,53.0
185,68.46864045,68.880098125,52.0,95.0
186,67.63530845,68.91308418333332,40.0,95.0
187,68.46864045,68.96169521666667,67.0,100.0
188,68.88530645,69.13704215833333,47.0,85.0
189,68.88530645,69.35231959166666,64.0,97.0
190,69.71863845,70.39398459166667,52.0,85.0
191,69.30197245,70.41134567499999,45.0,86.0
192,70.13530444999999,70.88703935833333,64.0,102.0
193,70.55197045,70.90960876666666,61.0,100.0
194,71.38530245,71.7915518,60.0,99.0
195,70.96863644999999,71.80023234166666,48.0,97.0
196,71.80196844999999,72.13703735833333,50.0,79.0
197,71.80196844999999,72.57974498333333,62.0,99.0
198,72.21863445,72.77766133333333,59.0,88.0
199,73.05196645,73.52418791666666,47.0,60.0
200,73.46863245,73.817590225,52.0,90.0
201,72.63530045,74.12488139999999,40.0,95.0
202,73.67696545,74.25161730833332,47.0,73.0
203,73.88529845,74.30022834166667,64.0,92.0
204,73.46863245,74.32626996666666,67.0,99.0
205,74.09363144999999,74.36620045833332,59.0,75.0
206,74.71863044999999,75.18911580833333,47.0,65.0
207,75.13529645,75.567587425,52.0,71.0
208,74.30196445,75.57626796666666,40.0,88.0
209,75.55196244999999,75.69432333333333,47.0,65.0
210,75.55196244999999,75.994670075,64.0,96.0
211,75.13529645,76.00161450833333,67.0,102.0
212,76.38529445,76.91827970833333,52.0,59.0
213,77.01029344999999,77.1457099,52.0,85.0
214,75.96862845,77.16307098333333,45.0,79.0
215,77.21862645,77.499876,61.0,117.0
216,77.42695945,77.59362585,57.0,88.0
217,76.80196045,77.92869475833334,64.0,102.0
218,77.63529245,78.42695785,36.0,99.0
219,78.05195845,78.50681883333333,60.0,100.0
220,78.46862445,78.80022114166667,38.0,90.0
221,78.46862445,78.94084591666666,62.0,112.0
222,78.88529045,79.29848423333333,60.0,127.0
223,79.30195644999999,79.77244180833333,43.0,81.0
224,79.71862245,79.95994150833333,55.0,95.0
225,80.13528844999999,80.22730219166667,59.0,86.0
226,80.13528844999999,80.63875986666666,47.0,93.0
227,80.13528844999999,80.85056508333334,66.0,112.0
228,80.13528844999999,80.90785665833333,63.0,112.0
229,80.55195445,80.92174552499999,59.0,97.0
230,80.96862045,81.64743880833333,71.0,102.0
231,80.96862045,81.65611935,69.0,100.0
232,81.38528645,81.8540357,47.0,59.0
233,81.80195245,82.44778475,52.0,88.0
234,80.96862045,82.49639578333333,40.0,69.0
235,81.80195245,82.49639578333333,71.0,112.0
236,82.21861845,82.67521494166667,64.0,100.0
237,82.63528445,83.30889448333333,71.0,96.0
238,82.63528445,83.317575025,68.0,122.0
239,83.05195044999999,83.5623663,47.0,59.0
240,83.46861645,83.86792136666666,52.0,81.0
241,82.63528445,83.8748658,40.0,82.0
242,83.88528244999999,83.98250451666667,47.0,86.0
243,83.46861645,84.348823375,71.0,107.0
244,83.88528244999999,84.35750391666666,64.0,85.0
245,83.46861645,84.35750391666666,68.0,127.0
246,84.71861444999999,84.95125296666666,57.0,112.0
247,84.92694745,85.10055828333333,60.0,117.0
248,84.51028145,85.244655275,52.0,82.0
249,84.30194845,85.8540293,45.0,86.0
250,85.34361344999999,85.93736249999999,52.0,100.0
251,85.55194645,85.95472358333333,60.0,112.0
252,85.13528045,85.9581958,64.0,102.0
253,85.76027945,85.973820775,57.0,97.0
254,86.38527845,86.58493090833333,57.0,93.0
255,86.59361145,86.73944455,60.0,112.0
256,86.17694544999999,86.87833321666666,52.0,90.0
257,87.01027744999999,87.15784665833333,52.0,102.0
258,85.96861245,87.18562439166666,45.0,92.0
259,87.21861045,87.52416551666666,60.0,117.0
260,86.80194445,87.536318275,64.0,117.0
261,87.42694345,87.650901425,57.0,99.0
262,88.05194245,88.51201115833332,50.0,97.0
263,88.26027545,88.70992750833332,57.0,102.0
264,88.67694145,88.838399525,50.0,100.0
265,87.63527644999999,89.0831908,38.0,83.0
266,88.46860844999999,89.161315675,66.0,127.0
267,87.84360945,89.29846823333332,45.0,69.0
268,88.88527445,89.33492650833333,62.0,97.0
269,89.09360745,89.33666261666666,57.0,92.0
270,89.92693944999999,90.119647475,57.0,100.0
271,89.71860645,90.17693905,50.0,93.0
272,89.30194044999999,90.45471638333333,38.0,82.0
273,89.51027345,90.46513303333333,45.0,70.0
274,90.13527245,90.765479775,66.0,127.0
275,90.34360545,90.80888248333333,50.0,95.0
276,90.55193845,90.93041006666667,62.0,93.0
277,90.76027144999999,90.95124336666666,57.0,99.0
278,91.38527045,91.8540197,55.0,99.0
279,91.59360344999999,91.87658910833333,59.0,107.0
280,90.96860445,92.16478309166666,43.0,79.0
281,91.17693745,92.21686634166666,50.0,90.0
282,92.01026945,92.34533835833332,55.0,112.0
283,92.21860244999999,92.49117145833333,62.0,100.0
284,91.80193645,92.50332421666666,67.0,117.0
285,92.42693545,92.63353234166667,59.0,112.0
286,93.05193444999999,93.30193405,59.0,99.0
287,93.26026745,93.48596153333332,63.0,127.0
288,92.84360145,93.60401689999999,54.0,100.0
289,93.67693344999999,93.80366935833332,54.0,107.0
290,92.63526845,93.88353034166666,47.0,89.0
291,93.46860045,94.07971058333332,66.0,127.0
292,93.88526644999999,94.23075200833333,63.0,127.0
293,94.09359945,94.27241860833333,59.0,122.0
294,94.71859845,95.22901429999999,52.0,95.0
295,94.92693145,95.24116705833333,64.0,112.0
296,95.34359744999999,95.51720828333333,52.0,100.0
297,95.13526445,95.525888825,69.0,127.0
298,94.30193245,95.86269384166667,40.0,97.0
299,94.51026544999999,95.96859644999999,47.0,83.0
300,95.76026345,95.96859644999999,64.0,73.0
301,95.55193045,95.96859644999999,71.0,117.0
302,96.59359545,96.94949765833333,56.0,102.0
303,96.80192844999999,96.99637258333333,59.0,78.0
304,95.96859644999999,97.24637218333334,40.0,78.0
305,96.17692944999999,97.28109434999999,47.0,90.0
306,97.21859445,97.48942735,56.0,117.0
307,97.42692745,97.57623276666666,59.0,75.0
308,97.01026145,97.58144109166666,64.0,96.0
309,96.38526245,97.60748271666667,52.0,100.0
310,98.05192645,98.33491210833333,57.0,97.0
311,98.26025944999999,98.42866195833332,60.0,117.0
312,97.84359345,98.53803678333333,52.0,82.0
313,97.63526044999999,99.166508,45.0,75.0
314,98.88525845,99.24116065833333,60.0,93.0
315,99.09359144999999,99.25852174166666,57.0,95.0
316,98.46859244999999,99.26199395833333,64.0,117.0
317,98.67692545,99.26893839166667,52.0,96.0
318,99.71859045,100.04845103333332,57.0,89.0
319,99.92692344999999,100.23768684166666,64.0,92.0
320,99.51025745,100.24289516666666,52.0,61.0
321,100.34358945,100.47726979166666,52.0,74.0
322,99.30192445,100.50851974166666,45.0,71.0
323,100.13525645,100.83664421666666,72.0,127.0
324,100.55192244999999,100.87310249166666,69.0,86.0
325,100.76025544999999,100.96858845,64.0,93.0
326,101.38525444999999,101.85921202499999,48.0,96.0
327,101.59358745,101.88351754166666,60.0,100.0
328,100.96858845,102.046711725,36.0,97.0
329,101.17692145,102.067545025,43.0,88.0
330,102.01025345,102.21511423333332,48.0,85.0
331,102.21858644999999,102.48247491666666,64.0,102.0
332,101.80192045,102.48941934999999,67.0,117.0
333,102.42691945,102.65955796666667,60.0,107.0
334,103.05191845,103.56059819166666,54.0,100.0
335,103.26025145,103.57101484166667,59.0,95.0
336,102.63525245,103.76372286666667,47.0,75.0
337,102.84358544999999,103.80191724999999,50.0,68.0
338,103.67691744999999,103.80538946666667,54.0,102.0
339,103.46858445,104.05191685,66.0,127.0
340,103.88525045,104.14913891666666,62.0,102.0
341,104.09358345,104.35747191666667,59.0,92.0
342,104.71858245,105.17344283333333,52.0,90.0
343,105.34358145,105.48941454999999,52.0,85.0
344,104.30191645,105.86094173333333,40.0,90.0
345,104.51024944999999,106.00851094166666,47.0,65.0
346,104.92691545,106.015455375,59.0,85.0
347,105.13524844999999,106.02239980833333,67.0,99.0
348,105.55191445,106.03281645833333,66.0,86.0
349,105.76024745,106.057121975,64.0,67.0
350,106.38524645,106.86094013333333,52.0,85.0
351,106.59357945,107.06927313333333,59.0,100.0
352,107.01024545,107.171703525,52.0,97.0
353,105.96858044999999,107.47205026666666,40.0,86.0
354,106.80191244999999,107.54496681666666,67.0,117.0
355,107.21857845,107.59705006666667,64.0,100.0
356,106.17691345,107.60052228333333,47.0,86.0
357,107.42691144999999,107.609202825,59.0,100.0
358,108.05191045,108.505034725,57.0,99.0
359,108.26024344999999,108.55538186666666,60.0,107.0
360,108.67690945,108.80538146666666,57.0,107.0
361,107.63524445,109.14739480833333,45.0,100.0
362,108.46857645,109.265450175,69.0,122.0
363,107.84357745,109.317533425,52.0,97.0
364,108.88524244999999,109.33142229166666,64.0,89.0
365,109.09357544999999,109.33663061666667,60.0,107.0
366,109.71857444999999,109.94079631666666,57.0,99.0
367,109.92690745,110.19079591666666,60.0,100.0
368,109.51024145,110.22899029999999,52.0,69.0
369,109.30190845,110.48940655,45.0,75.0
370,110.34357345,110.49808709166666,52.0,100.0
371,110.13524045,110.74287836666666,69.0,122.0
372,110.55190644999999,110.83141989166666,64.0,107.0
373,110.76023945,110.94773914999999,60.0,122.0
374,111.59357145,111.79496001666666,60.0,107.0
375,111.38523844999999,111.86266824166667,48.0,112.0
376,110.96857245,112.24113985833333,36.0,79.0
377,111.17690544999999,112.24113985833333,43.0,83.0
378,112.01023744999999,112.4789867,48.0,102.0
379,111.80190445,112.505028325,67.0,127.0
380,112.21857045,112.51370886666666,64.0,127.0
381,112.42690345,112.619611475,60.0,107.0
382,113.05190245,113.34877697499999,59.0,96.0
383,113.26023545,113.44599904166667,62.0,122.0
384,112.84356944999999,113.54322110833333,54.0,100.0
385,113.67690144999999,113.81926233333333,54.0,96.0
386,112.63523645,113.84704006666666,47.0,93.0
387,113.46856844999999,114.14391459166666,66.0,127.0
388,113.88523445,114.17690065,62.0,112.0
389,114.09356745,114.30190044999999,59.0,100.0
390,114.71856645,115.30884328333333,47.0,85.0
391,115.13523244999999,115.52932904166666,52.0,95.0
392,114.30190044999999,115.81405080833333,40.0,90.0
393,115.13523244999999,115.87307849166666,64.0,96.0
394,115.55189845,116.01717548333333,59.0,66.0
395,115.55189845,116.03280045833333,47.0,90.0
396,115.96856444999999,116.47724419166666,64.0,79.0
397,115.96856444999999,116.973771175,67.0,92.0
398,116.38523045,116.98592393333332,47.0,71.0
399,116.80189645,117.21161801666666,52.0,81.0
400,115.96856444999999,117.23245131666665,40.0,81.0
401,117.21856245,117.32446505833333,47.0,74.0
402,116.80189645,117.609186825,64.0,122.0
403,117.21856245,117.66647839999999,59.0,90.0
404,118.05189444999999,118.66821290833333,52.0,86.0
405,118.46856045,119.34008683333333,61.0,127.0
406,118.46856045,119.38696175833333,64.0,96.0
407,117.63522845,119.61439195,45.0,81.0
408,118.88522644999999,119.74807229166666,52.0,90.0
409,119.30189245,120.15258553333332,57.0,99.0
410,120.34355744999999,120.45640449166666,52.0,79.0
411,119.71855844999999,120.47029335833332,45.0,90.0
412,120.13522445,120.9164732,64.0,93.0
413,120.13522445,120.92862595833333,61.0,102.0
414,120.55189044999999,120.96855645,57.0,107.0
415,121.38522245,121.96334652499999,54.0,82.0
416,121.80188844999999,122.25154050833332,62.0,102.0
417,121.80188844999999,122.38869306666666,66.0,102.0
418,121.80188844999999,122.51890119166666,57.0,92.0
419,122.21855445,122.74112305833333,54.0,58.0
420,122.63522044999999,123.23938615,66.0,122.0
421,122.63522044999999,123.327927675,62.0,107.0
422,120.96855645,123.61264944166666,42.0,107.0
423,123.05188645,123.62827441666666,54.0,93.0
424,123.46855244999999,124.18035686666666,66.0,127.0
425,123.88521845,124.22375957499999,62.0,100.0
426,124.71855045,125.4581326,50.0,58.0
427,124.30188444999999,125.46854925,43.0,86.0
428,125.13521644999999,125.70118776666666,55.0,83.0
429,125.13521644999999,125.91125687499999,71.0,112.0
430,125.55188245,125.95986790833332,67.0,85.0
431,126.38521444999999,126.79146379999999,59.0,97.0
432,126.59354744999999,126.84528315833333,63.0,102.0
433,126.17688145,126.87306089166665,54.0,93.0
434,127.01021345,127.13174103333333,54.0,86.0
435,125.96854845,127.22375477499999,47.0,74.0
436,127.21854644999999,127.62653190833333,63.0,92.0
437,126.80188045,127.63521245,66.0,122.0
438,127.63521245,128.3122947,64.0,78.0
439,128.05187845,128.57618316666665,47.0,40.0
440,128.46854445,128.900835425,52.0,78.0
441,128.46854445,129.19597384166667,69.0,117.0
442,128.46854445,129.20118216666665,71.0,112.0
443,127.63521245,129.23764044166666,40.0,86.0
444,128.88521045,129.28451536666665,47.0,40.0
445,129.30187644999998,129.744584075,44.0,85.0
446,129.30187644999998,129.97027815833331,71.0,97.0
447,129.30187644999998,129.97201426666666,68.0,127.0
448,129.71854245,130.22027775833334,64.0,79.0
449,130.13520845,130.92860995833334,71.0,112.0
450,130.13520845,130.93034606666666,68.0,127.0
451,130.55187444999999,130.93381828333332,64.0,83.0
452,131.38520645,131.8296501833333,52.0,63.0
453,131.80187245,132.24284396666667,57.0,73.0
454,132.21853844999998,132.87825961666667,52.0,90.0
455,133.05187045,133.55881408333332,52.0,93.0
456,130.96854045,133.82617476666667,45.0,90.0
457,133.67686945,133.848744175,52.0,75.0
458,133.88520244999998,134.14735480833332,57.0,93.0
459,132.63520445,134.275826825,64.0,122.0
460,133.46853645,134.27756293333331,60.0,127.0
461,134.71853445,135.30013074166666,55.0,89.0
462,134.30186845,135.38346394166666,48.0,93.0
463,135.13520044999999,135.93033806666665,67.0,112.0
464,135.55186645,135.96506023333333,64.0,96.0
465,136.38519845,136.90776705833332,54.0,85.0
466,135.96853245,137.09526675833334,47.0,82.0
467,136.80186444999998,137.53276605833332,66.0,127.0
468,137.21853045,137.62304369166665,62.0,95.0
469,138.05186245,138.58137549166665,47.0,55.0
470,138.46852844999998,138.83137509166667,52.0,35.0
471,137.63519645,139.18033286666667,40.0,81.0
472,138.46852844999998,139.21331892499998,69.0,100.0
473,138.46852844999998,139.22199946666666,71.0,102.0
474,138.88519445,139.31401320833334,47.0,56.0
475,139.30186045,140.06053979166666,71.0,77.0
476,139.30186045,140.07442865833332,68.0,95.0
477,139.30186045,140.08137309166665,64.0,90.0
478,139.92685945,140.24109505833331,47.0,59.0
479,140.13519245,140.60567780833333,68.0,127.0
480,139.30186045,140.73067760833334,40.0,88.0
481,140.13519245,140.93033006666667,71.0,112.0
482,140.34352545,140.9581078,47.0,100.0
483,140.55185845,140.96158001666666,64.0,93.0
484,141.38519044999998,141.89907851666666,47.0,70.0
485,141.80185645,142.20463358333333,52.0,85.0
486,140.96852445,142.223730775,40.0,97.0
487,142.21852245,142.3122723,47.0,78.0
488,141.80185645,142.59352185,59.0,117.0
489,142.21852245,142.61261904166665,55.0,99.0
490,143.05185445,143.619561875,52.0,82.0
491,143.67685344999998,143.754978325,52.0,35.0
492,142.63518845,143.79664492499998,45.0,99.0
493,143.46852045,144.20636649166667,64.0,127.0
494,143.88518645,144.234144225,61.0,112.0
495,144.30185244999998,144.94594864166666,36.0,99.0
496,144.71851845,145.07268455,60.0,107.0
497,145.13518445,145.56226709999999,38.0,92.0
498,145.55185045,145.994558075,62.0,100.0
499,146.38518245,146.7289319,52.0,96.0
500,146.59351544999998,146.838306725,55.0,107.0
501,146.17684945,146.89907051666665,47.0,82.0
502,146.80184845,147.32094484166666,59.0,102.0
503,145.96851644999998,147.51712508333333,40.0,82.0
504,147.21851445,147.55358335833333,55.0,97.0
505,147.42684745,147.62129158333332,59.0,55.0
506,147.01018145,147.63518045,47.0,95.0
507,148.05184645,148.61608165833331,47.0,37.0
508,147.63518045,148.72198426666665,40.0,97.0
509,148.46851245,148.86608125833334,52.0,93.0
510,148.46851245,149.30010834166666,67.0,117.0
511,148.88517844999998,149.31399720833332,64.0,95.0
512,149.09351145,149.32094164166665,59.0,78.0
513,149.71851045,150.23587073333331,52.0,78.0
514,150.34350945,150.46677314166666,52.0,88.0
515,149.30184445,150.49281476666667,45.0,88.0
516,150.55184244999998,150.82093924166665,61.0,112.0
517,150.76017545,150.91121687499998,57.0,82.0
518,150.13517645,151.41468829166666,64.0,117.0
519,150.96850845,151.73239611666665,36.0,93.0
520,151.38517445,151.74281276666665,60.0,107.0
521,151.80184045,152.04142339999999,38.0,72.0
522,151.80184045,152.52926984166666,66.0,117.0
523,151.80184045,152.5622559,62.0,102.0
524,152.21850645,152.65600575,57.0,95.0
525,153.05183845,153.28447696666666,55.0,95.0
526,152.63517245,153.51885159166665,43.0,78.0
527,153.46850444999998,153.64385139166666,59.0,79.0
528,153.46850444999998,153.8955871,47.0,70.0
529,153.46850444999998,154.2289199,66.0,107.0
530,153.46850444999998,154.2306560083333,63.0,107.0
531,153.88517045,154.54836383333333,59.0,76.0
532,154.92683545,155.067460225,59.0,27.0
533,154.30183645,155.26711268333332,40.0,93.0
534,154.71850245,155.33655701666666,47.0,77.0
535,155.13516844999998,155.942458825,67.0,122.0
536,155.55183445,155.97023655833334,64.0,92.0
537,155.76016744999998,156.01190315833333,59.0,96.0
538,156.38516644999999,156.90426284166665,52.0,69.0
539,157.01016545,157.12822081666667,52.0,92.0
540,155.96850045,157.15426244166665,45.0,78.0
541,157.21849845,157.52752573333333,61.0,99.0
542,157.42683144999998,157.61606725833332,57.0,95.0
543,156.80183245,157.68377548333333,64.0,127.0
544,157.84349745,158.30530226666667,55.0,95.0
545,157.63516445,158.35217719166667,36.0,95.0
546,158.05183044999998,158.41120487499998,64.0,99.0
547,158.26016345,158.57613516666666,60.0,112.0
548,158.46849645,158.92509294166666,38.0,85.0
549,158.67682944999999,158.93377348333334,57.0,89.0
550,158.88516245,159.2080786,62.0,107.0
551,159.09349545,159.317453425,57.0,90.0
552,159.71849444999998,160.202868675,52.0,73.0
553,159.92682745,160.26189635833333,59.0,99.0
554,160.34349344999998,160.53099315,52.0,85.0
555,160.13516045,160.65425684166667,67.0,112.0
556,159.30182845,160.7914094,40.0,74.0
557,160.34349344999998,160.80529826666665,66.0,122.0
558,160.55182645,160.85911762499998,64.0,79.0
559,160.76015945,161.00842294166665,62.0,83.0
560,159.51016145,161.041409,47.0,61.0
561,160.96849244999999,161.68897740833333,64.0,55.0
562,161.38515845,161.89036597499998,52.0,78.0
563,161.59349145,161.90772705833334,59.0,81.0
564,160.96849244999999,162.1247406,40.0,77.0
565,161.17682545,162.13689335833334,47.0,77.0
566,162.01015744999998,162.254948725,52.0,79.0
567,161.80182445,162.55529546666665,67.0,112.0
568,162.21849045,162.59869817499998,64.0,97.0
569,162.42682345,162.66467029166665,59.0,96.0
570,163.05182245,163.57265495,52.0,86.0
571,163.67682145,163.83654341666667,52.0,96.0
572,162.63515644999998,163.98758484166666,45.0,72.0
573,163.88515445,164.13689015833333,61.0,112.0
574,164.09348745,164.275778825,57.0,88.0
575,163.46848845,164.47716739166665,64.0,122.0
576,164.51015345,164.59001443333332,64.0,36.0
577,164.51015345,165.00668043333332,55.0,97.0
578,164.30182044999998,165.10216639166666,48.0,99.0
579,164.92681944999998,165.10563860833332,64.0,85.0
580,164.71848645,165.13862466666666,60.0,112.0
581,165.34348545,165.85042908333332,57.0,81.0
582,165.55181844999998,165.89209568333334,66.0,117.0
583,165.13515245,165.952859475,50.0,100.0
584,165.76015145,165.95633169166666,62.0,102.0
585,166.38515045,166.62126118333333,55.0,97.0
586,166.59348344999998,166.69938605833332,59.0,100.0
587,165.96848445,166.70633049166665,43.0,71.0
588,166.17681745,166.76883039166665,50.0,93.0
589,166.80181645,167.3330656,47.0,99.0
590,167.01014945,167.51882919166667,59.0,107.0
591,167.21848244999998,167.54139859999998,63.0,117.0
592,167.42681545,167.609106825,66.0,127.0
593,168.05181445,168.51361926666667,52.0,107.0
594,168.26014745,168.577855275,64.0,112.0
595,168.67681345,168.84347985,52.0,112.0
596,168.46848045,168.94070191666665,71.0,127.0
597,167.63514845,169.03445176666665,40.0,97.0
598,168.88514644999998,169.19764594999998,69.0,127.0
599,167.84348144999998,169.30702077499998,47.0,102.0
600,169.09347945,169.31570131666666,71.0,107.0
601,169.30181245,169.87299209166665,68.0,127.0
602,169.71847845,170.19590824166667,52.0,107.0
603,169.92681145,170.26882479166665,64.0,89.0
604,169.30181245,170.53965769166666,40.0,89.0
605,169.51014544999998,170.54833823333334,47.0,96.0
606,170.55181045,170.8122267,68.0,127.0
607,170.13514444999998,170.86257384166666,71.0,127.0
608,170.34347745,170.87299049166666,52.0,122.0
609,170.76014345,170.97368477499998,64.0,112.0
610,171.38514245,171.82264175,57.0,112.0
611,171.59347545,172.08653021666666,64.0,102.0
612,172.01014145,172.23930775,57.0,100.0
613,172.21847445,172.34521035833333,64.0,35.0
614,171.80180844999998,172.45979350833332,72.0,127.0
615,170.96847645,172.48583513333332,45.0,85.0
616,172.21847445,172.55007114166665,71.0,122.0
617,171.17680944999998,172.65597375,52.0,92.0
618,172.42680744999998,172.66291818333332,69.0,93.0
619,173.05180645,173.29486161666665,57.0,100.0
620,173.26013945,173.50145850833331,60.0,122.0
621,172.84347345,173.567430625,52.0,92.0
622,172.63514045,173.8243746583333,45.0,88.0
623,173.67680545,173.82958298333332,52.0,97.0
624,173.46847244999998,174.02229100833333,64.0,122.0
625,173.88513845,174.12992972499998,60.0,127.0
626,174.09347144999998,174.32610996666665,57.0,102.0
627,174.71847044999998,175.1681225083333,50.0,102.0
628,174.92680345,175.32784447499998,57.0,112.0
629,175.34346945,175.504927525,50.0,100.0
630,174.30180445,175.70110776666667,38.0,95.0
631,175.13513645,175.8747186,66.0,127.0
632,174.51013745,175.97541288333332,45.0,100.0
633,175.55180245,175.98062120833333,62.0,127.0
634,175.76013544999998,176.01707948333333,57.0,107.0
635,176.38513444999998,176.86603645833333,50.0,92.0
636,176.59346745,176.8955503,57.0,100.0
637,176.17680145,177.12298049166665,45.0,81.0
638,175.96846845,177.12645270833332,38.0,82.0
639,176.80180045,177.38860506666666,66.0,127.0
640,177.01013344999998,177.49971599999998,50.0,96.0
641,177.42679945,177.60735471666666,57.0,99.0
642,177.21846645,177.60735471666666,62.0,107.0
643,178.05179844999998,178.525756025,55.0,107.0
644,178.26013145,178.55179765,59.0,100.0
645,177.63513245,178.78964449166665,43.0,82.0
646,177.84346545,178.83131109166666,50.0,93.0
647,178.67679744999998,179.06568571666665,55.0,102.0
648,178.88513045,179.150755025,62.0,99.0
649,178.46846445,179.16638,67.0,122.0
650,179.09346345,179.29311590833333,59.0,107.0
651,179.71846245,179.98929535,59.0,112.0
652,179.92679545,180.14033677499998,63.0,127.0
653,179.51012945,180.202836675,54.0,112.0
654,180.34346144999998,180.484086225,54.0,117.0
655,179.30179644999998,180.54485001666666,47.0,79.0
656,180.13512845,180.85734951666666,66.0,127.0
657,180.55179445,180.952835475,63.0,127.0
658,180.76012745,181.02227980833334,59.0,96.0
659,181.38512645,181.44068191666665,50.0,70.0
660,181.38512645,181.90595894999998,52.0,79.0
661,181.59345944999998,182.03443096666666,64.0,99.0
662,181.80179245,182.16811130833332,69.0,127.0
663,182.01012545,182.20977790833334,52.0,102.0
664,182.21845844999999,182.44762475,64.0,35.0
665,180.96846044999998,182.50144410833332,40.0,77.0
666,182.21845844999999,182.556999575,71.0,112.0
667,181.17679345,182.66984661666666,47.0,93.0
668,182.42679145,183.30873448333332,68.0,127.0
669,183.05179045,183.52748413333333,52.0,107.0
670,183.26012344999998,183.60213679166665,64.0,102.0
671,182.63512444999998,183.75144210833332,40.0,97.0
672,182.84345745,183.81046979166666,47.0,97.0
673,183.46845645,184.17505254166664,71.0,117.0
674,183.88512244999998,184.18026086666666,68.0,127.0
675,183.67678945,184.192413625,52.0,102.0
676,184.09345545,184.78616267499999,64.0,107.0
677,184.71845445,185.1663704,57.0,102.0
678,184.92678744999998,185.27400911666666,64.0,102.0
679,185.34345345,185.52921704166667,57.0,99.0
680,184.30178845,185.86428594999998,45.0,90.0
681,185.13512045,185.88685535833332,72.0,127.0
682,184.51012144999999,186.02053569999998,52.0,88.0
683,185.76011945,186.45109056666666,64.0,102.0
684,185.55178644999998,186.5413682,69.0,100.0
685,186.38511845,186.84518715833332,57.0,97.0
686,186.59345145,186.90595095,64.0,100.0
687,187.01011745,187.213242125,57.0,102.0
688,185.96845245,187.26879759166667,45.0,83.0
689,186.17678544999998,187.56046379166665,52.0,79.0
690,186.80178444999999,187.5743526583333,72.0,127.0
691,187.21845044999998,187.58129709166667,69.0,96.0
692,187.42678345,187.65074142499998,64.0,99.0
693,188.05178245,188.25664323333334,60.0,99.0
694,188.26011545,188.43372628333333,64.0,127.0
695,187.84344944999998,188.56914273333334,55.0,93.0
696,188.67678145,188.84692006666666,55.0,112.0
697,187.63511645,188.85733671666665,48.0,83.0
698,188.46844844999998,188.90594775,67.0,122.0
699,188.88511445,189.22018335833332,64.0,117.0
700,189.09344744999999,189.27400271666667,67.0,95.0
701,189.71844645,189.98927935,59.0,93.0
702,189.92677945,190.06914033333334,62.0,122.0
703,189.51011344999998,190.19066791666665,54.0,95.0
704,190.34344545,190.46844525,54.0,117.0
705,189.30178045,190.48580633333333,47.0,92.0
706,190.55177845,190.86601405833332,62.0,102.0
707,190.13511244999998,190.88511125,66.0,122.0
708,190.76011144999998,190.973652775,59.0,99.0
709,191.59344345,191.890317975,59.0,90.0
710,191.38511044999998,191.89379019166665,52.0,95.0
711,191.80177644999998,192.12642870833332,67.0,127.0
712,192.01010945,192.23927575,52.0,102.0
713,192.21844245,192.50837254166666,67.0,117.0
714,190.96844445,192.54483081666666,40.0,76.0
715,192.42677544999998,192.60212239166665,66.0,117.0
716,191.17677745,192.63510845,47.0,78.0
717,192.63510845,192.88337194166667,52.0,97.0
718,192.63510845,192.89378859166666,47.0,81.0
719,192.63510845,192.89552469999998,64.0,122.0
720,192.63510845,192.90767745833332,68.0,127.0
721,192.63510845,192.90767745833332,71.0,127.0
722,192.63510845,192.911149675,40.0,64.0
723,194.3044729375,195.12620035416666,71.0,99.0
724,194.3044729375,195.12968225,64.0,99.0
725,194.3044729375,195.13316414583332,69.0,100.0
726,194.3044729375,195.46046235416665,57.0,99.0
727,195.14012793749998,195.80342909375,71.0,112.0
728,195.14012793749998,195.81039288541666,69.0,122.0
729,195.14012793749998,195.82432046875,64.0,112.0
730,195.5579554375,196.174251,57.0,77.0
731,195.9757829375,196.61645177083332,64.0,117.0
732,195.9757829375,196.61645177083332,69.0,117.0
733,195.9757829375,196.61645177083332,71.0,117.0
734,196.3936104375,196.93156334374999,57.0,112.0
735,197.02035168749998,197.10217623958332,57.0,107.0
736,194.3044729375,197.19096458333334,45.0,66.0
737,194.3044729375,197.19270553125,52.0,81.0
738,196.8114379375,197.29890335416667,69.0,127.0
739,196.8114379375,197.32675852083332,71.0,127.0
740,197.2292654375,197.54089511458332,64.0,122.0
741,197.4381791875,197.55308175,71.0,25.0
742,197.6470929375,198.33128546875,64.0,122.0
743,197.6470929375,198.33476736458334,71.0,100.0
744,197.6470929375,198.37306821875,68.0,122.0
745,198.0649204375,198.59939144791667,47.0,55.0
746,198.4827479375,198.93017155208332,52.0,93.0
747,197.6470929375,199.13734435416666,40.0,85.0
748,198.4827479375,199.13734435416666,71.0,107.0
749,198.4827479375,199.18434994791667,68.0,127.0
750,198.4827479375,199.18783184375,64.0,100.0
751,198.90057543749998,199.33058957291667,47.0,83.0
752,199.3184029375,199.84765110416666,71.0,127.0
753,199.3184029375,199.86331963541667,68.0,127.0
754,199.73623043749998,200.24458722916665,52.0,117.0
755,199.9451441875,200.28288808333332,64.0,127.0
756,199.5273166875,200.54577121875,47.0,96.0
757,199.3184029375,200.5509940625,40.0,95.0
758,200.3629716875,200.88177416666667,52.0,102.0
759,200.5718854375,200.97578535416667,68.0,127.0
760,200.1540579375,200.97752630208333,71.0,127.0
761,200.7807991875,200.99841767708332,64.0,122.0
762,201.4075404375,201.65649598958333,57.0,107.0
763,201.61645418749998,201.877596375,60.0,127.0
764,201.1986266875,201.91415628125,52.0,99.0
765,200.9897129375,202.52348805208334,45.0,93.0
766,202.0342816875,202.65405914583332,52.0,90.0
767,202.45210918749999,202.66624578124998,59.0,83.0
768,201.8253679375,202.68365526041666,64.0,112.0
769,202.2431954375,202.68713715625,60.0,92.0
770,203.0788504375,203.553592025,57.0,89.0
771,203.2877641875,203.605675275,64.0,92.0
772,203.70463345,203.83831379166668,57.0,100.0
773,202.8699366875,203.84178600833334,52.0,90.0
774,202.6610229375,203.87303595833333,45.0,90.0
775,203.49630045,203.949424725,72.0,127.0
776,204.12129945,204.30706304166665,72.0,107.0
777,203.91296645,204.31574358333333,69.0,107.0
778,204.303590825,205.022339675,57.0,93.0
779,204.30532693333333,205.03622854166667,60.0,99.0
780,204.324424125,205.35914469166667,42.0,122.0
781,204.30879915,205.37476966666665,54.0,100.0
782,205.168172775,205.73761630833334,57.0,100.0
783,205.17164499166665,205.85393556666668,60.0,112.0
784,205.56053325833332,205.93553265833333,54.0,117.0
785,205.53969995833333,206.01712975,42.0,112.0
786,205.99629645,206.26712935,47.0,117.0
787,205.98414369166667,206.69073978333333,66.0,107.0
788,205.97719925833334,206.69768421666666,59.0,95.0
789,205.98240758333333,206.70636475833334,63.0,127.0
790,206.616087125,206.73240638333334,47.0,90.0
791,206.84178120833334,207.12823908333334,47.0,102.0
792,206.80879515,207.59351611666668,63.0,122.0
793,207.1942112,207.60219665833333,54.0,72.0
794,206.81053125833333,207.60740498333334,66.0,117.0
795,206.81226736666667,207.62823828333333,59.0,96.0
796,207.251502775,207.63518271666666,47.0,117.0
797,207.66296044999999,208.17511240833332,57.0,79.0
798,207.66296044999999,208.407750925,71.0,127.0
799,207.66296044999999,208.40948703333333,69.0,127.0
800,207.66296044999999,208.41295925,64.0,112.0
801,208.07962645,208.595250625,52.0,49.0
802,207.67684931666668,208.69594490833333,47.0,127.0
803,208.93552785833333,209.043166575,47.0,102.0
804,208.49629245,209.17511080833333,64.0,117.0
805,208.49629245,209.17684691666668,71.0,127.0
806,208.49629245,209.18379135,69.0,102.0
807,208.49629245,209.44767981666666,57.0,96.0
808,209.35045775,209.47545755,47.0,112.0
809,209.32962445,209.819207,69.0,117.0
810,209.32962445,209.834831975,71.0,112.0
811,209.32962445,210.00497059166668,64.0,117.0
812,210.16295645,210.22372024166665,64.0,95.0
813,209.74629045,210.23760910833334,57.0,96.0
814,208.91295845,210.4233727,52.0,58.0
815,210.37128945,210.491080925,57.0,99.0
816,210.16295645,210.636914025,71.0,117.0
817,210.16295645,210.63865013333333,69.0,127.0
818,209.75323488333333,210.66642786666665,47.0,112.0
819,210.57962245,210.90080249166667,64.0,127.0
820,210.99628845,211.438996075,64.0,112.0
821,210.99628845,211.53969035833333,68.0,117.0
822,210.99628845,211.55878755,71.0,97.0
823,211.41295445,211.8817037,52.0,100.0
824,211.62128745,211.91642586666666,64.0,100.0
825,211.01885785833332,212.04142566666667,40.0,112.0
826,212.03795345,212.319203,52.0,117.0
827,212.251494775,212.48239718333332,40.0,117.0
828,211.82962045,212.5900359,71.0,127.0
829,212.24628644999999,212.616077525,68.0,127.0
830,211.20462145,212.64211914999998,47.0,102.0
831,212.45461945,212.67510520833332,64.0,100.0
832,212.68552185833335,212.87475766666665,40.0,127.0
833,213.28795145,213.569201,56.0,112.0
834,213.07961845,213.58308986666665,52.0,97.0
835,213.08309066666666,213.74628404999999,40.0,122.0
836,212.87128545,213.85392276666667,47.0,93.0
837,213.91295045,214.188991675,56.0,112.0
838,213.70461745,214.19246389166668,52.0,99.0
839,214.12128345,214.303574825,59.0,86.0
840,213.49628445,214.3191998,64.0,88.0
841,213.907742125,214.35218585833334,40.0,117.0
842,214.74628245,215.22544835,57.0,102.0
843,214.95461545,215.44940632499998,64.0,102.0
844,215.37128145,215.54662839166667,57.0,112.0
845,215.16294845,215.87301675833334,72.0,127.0
846,214.32961645,215.90600281666667,45.0,83.0
847,214.53794944999999,216.01711375,52.0,97.0
848,215.78794745,216.480654675,64.0,102.0
849,215.57961445,216.52058516666668,69.0,107.0
850,216.41294645,216.89558456666666,57.0,112.0
851,216.62127945,216.91468175833333,64.0,107.0
852,217.03794545,217.21329239166667,57.0,102.0
853,215.99628045,217.28100061666666,45.0,86.0
854,216.20461345,217.54662519166666,52.0,95.0
855,216.82961244999998,217.5900279,72.0,127.0
856,217.24627845,217.59870844166667,69.0,127.0
857,217.45461145,217.62995839166666,64.0,122.0
858,218.07961045,218.397318275,59.0,107.0
859,218.28794345,218.543151375,63.0,127.0
860,217.87127745,218.59697073333334,54.0,117.0
861,218.49627645,218.94245629166667,66.0,127.0
862,217.66294445,219.19245589166667,47.0,90.0
863,218.91294245,219.23759470833332,63.0,127.0
864,219.12127544999998,219.27058076666665,66.0,97.0
865,218.70460945,219.27926130833333,54.0,122.0
866,219.32960845,219.55009420833332,47.0,122.0
867,219.32960845,219.56571918333333,66.0,100.0
868,219.32960845,219.58134415833334,63.0,127.0
869,219.32960845,219.58308026666666,59.0,100.0
870,219.60738578333334,219.76884385833333,47.0,100.0
871,219.60738578333334,219.7775244,59.0,88.0
872,219.60738578333334,219.78446883333334,66.0,92.0
873,219.60738578333334,219.79141326666667,63.0,89.0
874,219.88516311666666,220.05182951666666,47.0,122.0
875,219.88516311666666,220.05530173333332,66.0,122.0
876,219.88516311666666,220.05877395,59.0,97.0
877,219.88516311666666,220.07092670833333,63.0,107.0
878,220.16294045,220.33134295833332,59.0,93.0
879,220.16294045,220.33828739166665,47.0,127.0
880,220.16294045,220.34870404166668,66.0,127.0
881,220.16294045,220.3608568,63.0,117.0
882,220.44071778333333,220.60217585833334,47.0,127.0
883,220.44071778333333,220.62300915833333,59.0,93.0
884,220.44071778333333,220.62821748333334,66.0,122.0
885,220.44071778333333,220.64384245833332,63.0,122.0
886,220.71849511666667,220.94351729583335,59.0,99.0
887,220.71849511666667,220.96771084583335,63.0,117.0
888,220.71849511666667,220.97375923333334,66.0,122.0
889,220.71849511666667,220.97980762083336,47.0,127.0
890,221.743920575,222.07683701875,64.0,102.0
891,221.50198507500002,222.07859757916665,52.0,95.0
892,222.1771889625,222.36028724583332,52.0,122.0
893,221.9659217125,222.50289263958334,71.0,127.0
894,221.9659217125,222.525779925,69.0,100.0
895,221.018114075,222.64021635208334,40.0,107.0
896,222.3884562125,222.74056829583333,64.0,122.0
897,222.5997234625,222.74408941666667,71.0,68.0
898,222.5997234625,222.74937109791668,69.0,47.0
899,221.260049575,222.8743708875,47.0,102.0
900,222.8109907125,222.8954976125,64.0,77.0
901,222.8109907125,222.9166243375,68.0,117.0
902,222.8109907125,222.92190601875,71.0,102.0
903,223.2335252125,223.45711638541667,52.0,112.0
904,223.4447924625,223.60676402083334,56.0,127.0
905,223.0222579625,223.77225669999999,47.0,100.0
906,222.8109907125,223.91838321458334,40.0,102.0
907,223.8673269625,223.962397225,47.0,112.0
908,224.0785942125,224.38669228541667,56.0,127.0
909,223.6560597125,224.39373452708332,59.0,127.0
910,224.2898614625,224.4377485375,52.0,93.0
911,225.1349304625,225.25464857083333,72.0,107.0
912,225.1349304625,225.25640913125,76.0,122.0
913,224.9236632125,225.399014525,57.0,117.0
914,225.3461977125,225.68598587291666,72.0,117.0
915,225.3461977125,225.69302811458334,76.0,127.0
916,225.5574649625,225.7053520375,57.0,127.0
917,225.7687322125,225.87260527708332,76.0,74.0
918,225.7687322125,225.91485872708333,72.0,77.0
919,224.5011287125,226.02049235208332,45.0,90.0
920,224.7123959625,226.19478783333332,52.0,112.0
921,225.9799994625,226.21415399791667,76.0,102.0
922,225.9799994625,226.21943567916668,72.0,102.0
923,225.9799994625,226.22823848125,69.0,127.0
924,226.6138012125,226.77929389166667,57.0,117.0
925,226.82506846249998,226.96063161458332,64.0,117.0
926,226.82506846249998,226.96767385625,60.0,117.0
927,226.4025339625,227.13844821666666,52.0,95.0
928,227.2476029625,227.36203938958334,52.0,112.0
929,226.1912667125,227.36556051041666,45.0,96.0
930,227.0363357125,227.49232086041667,60.0,122.0
931,227.0363357125,227.68422194583334,64.0,122.0
932,227.6701374625,227.82330621875,60.0,99.0
933,227.4588702125,227.98351721666666,57.0,122.0
934,227.8814047125,228.03457346875,62.0,122.0
935,227.8814047125,228.03457346875,66.0,127.0
936,228.5152064625,228.568023275,69.0,58.0
937,228.5152064625,228.60675560416666,66.0,63.0
938,228.5152064625,228.62612176875,62.0,100.0
939,228.3039392125,228.77048772291667,50.0,112.0
940,228.9377409625,229.15076877291668,50.0,102.0
941,228.7264737125,229.21414894791667,69.0,122.0
942,228.7264737125,229.22647287083333,66.0,127.0
943,227.8814047125,229.40605003333334,38.0,85.0
944,228.0926719625,229.582106075,45.0,107.0
945,229.1490082125,229.75464099583334,62.0,100.0
946,229.3602754625,229.76872547916668,66.0,127.0
947,229.3602754625,230.0152039375,69.0,122.0
948,230.2053444625,230.28104856041668,69.0,50.0
949,230.2053444625,230.28280912083332,66.0,52.0
950,230.2053444625,230.37611882291668,62.0,100.0
951,229.9940772125,230.469428525,50.0,102.0
952,229.5715427125,230.75287875208335,38.0,93.0
953,229.7828099625,230.80217444375,45.0,100.0
954,230.4166117125,230.90604750833333,66.0,127.0
955,230.4166117125,231.07858242916666,69.0,122.0
956,230.6278789625,231.15604708749999,50.0,107.0
957,231.0504134625,231.18069493333334,66.0,127.0
958,230.8391462125,231.18245549375,62.0,127.0
959,231.2616807125,231.32682144791667,62.0,81.0
960,231.2616807125,231.4623846,71.0,127.0
961,231.2616807125,231.49231412708332,67.0,127.0
962,231.6842152125,231.99231328541666,55.0,122.0
963,231.8954824625,232.09618635,59.0,112.0
964,231.4729479625,232.2229467,50.0,117.0
965,232.1067497125,232.45181955416666,62.0,127.0
966,231.2616807125,232.50111524583332,43.0,96.0
967,232.3180169625,232.58386158541666,50.0,112.0
968,232.5292842125,232.814495,59.0,122.0
969,232.7405514625,232.92188918541666,62.0,107.0
970,233.3743532125,233.62963447291668,59.0,107.0
971,233.5856204625,233.68245128541668,66.0,107.0
972,233.5856204625,233.69829632916668,63.0,127.0
973,233.1630859625,233.87611293125,54.0,127.0
974,233.7968877125,234.1560420375,66.0,127.0
975,234.0081549625,234.16484483958334,54.0,122.0
976,233.7968877125,234.1982954875,63.0,127.0
977,232.9518187125,234.21237997083333,47.0,96.0
978,234.4306894625,234.57681597708333,63.0,127.0
979,234.4306894625,234.5785765375,66.0,127.0
980,234.2194222125,234.59794270208334,59.0,117.0
981,235.2757584625,235.30920911041667,71.0,44.0
982,235.2757584625,235.32681471458332,69.0,40.0
983,235.0644912125,235.55216644791668,52.0,95.0
984,235.2757584625,235.58561709583333,64.0,117.0
985,235.6982929625,235.85498283958333,52.0,117.0
986,235.48702571249999,235.96589814583334,71.0,117.0
987,235.48702571249999,235.96941926666668,69.0,127.0
988,234.6419567125,236.20709492291667,40.0,99.0
989,236.1208274625,236.24054557083332,69.0,88.0
990,236.1208274625,236.29864406458333,71.0,112.0
991,234.8532239625,236.36202423958332,47.0,100.0
992,235.9095602125,236.8602628375,64.0,97.0
993,236.3320947125,236.86730507916667,68.0,127.0
994,236.3320947125,236.87610788125,71.0,63.0
995,237.1771637125,237.20005099791666,70.0,100.0
996,236.7546292125,237.23878332708333,52.0,89.0
997,236.9658964625,237.24934668958332,64.0,112.0
998,236.3320947125,237.483501225,40.0,99.0
999,236.5433619625,237.51167019166667,47.0,85.0
1000,237.3884309625,237.67364175,52.0,107.0
1001,237.1771637125,237.6842051125,68.0,127.0
1002,237.1771637125,238.01871159166666,71.0,122.0
1003,237.8109654625,238.03103551458332,68.0,127.0
1004,237.5996982125,238.03983831666667,64.0,117.0
1005,238.4447672125,238.66131614375,57.0,112.0
1006,238.2334999625,238.962371975,52.0,96.0
1007,238.6560344625,238.98349869999998,60.0,122.0
1008,238.0222327125,239.50814570416668,45.0,90.0
1009,238.8673017125,239.66483558125,64.0,127.0
1010,239.2898362125,239.6701172625,60.0,97.0
1011,239.07856896250001,239.680680625,52.0,102.0
1012,239.5011034625,239.680680625,57.0,112.0
1013,240.1349052125,240.5891298,57.0,107.0
1014,240.3461724625,240.78103088541667,64.0,99.0
1015,240.7687069625,240.9271574,57.0,112.0
1016,239.7123707125,241.00814317916667,45.0,97.0
1017,239.9236379625,241.11905848541667,52.0,96.0
1018,240.5574397125,241.32328349375,72.0,127.0
1019,240.9799742125,241.3602552625,69.0,117.0
1020,241.1912414625,241.37433974583334,64.0,127.0
1021,241.8250432125,242.04511326458334,60.0,107.0
1022,242.0363104625,242.2053242625,64.0,122.0
1023,241.6137759625,242.33736629375,55.0,96.0
1024,242.4588449625,242.64194324583332,55.0,107.0
1025,241.4025087125,242.66483053125,48.0,89.0
1026,242.2475777125,242.70884454166668,67.0,127.0
1027,242.6701122125,243.02574541666667,64.0,127.0
1028,242.8813794625,243.0926467125,67.0,100.0
1029,243.5151812125,243.71764566041668,59.0,102.0
1030,243.7264484625,243.96412411875,62.0,127.0
1031,243.3039139625,244.02574373333334,54.0,107.0
1032,244.14898296249999,244.2546165875,54.0,117.0
1033,243.0926467125,244.27222219166666,47.0,89.0
1034,243.9377157125,244.645461,66.0,127.0
1035,244.3602502125,244.65426380208334,62.0,122.0
1036,244.5715174625,244.75813686666666,59.0,107.0
1037,244.7827847125,245.48348775833333,64.0,92.0
1038,244.7827847125,245.49405112083332,69.0,102.0
1039,244.7827847125,245.49581168125,71.0,107.0
1040,245.62785371249998,245.74052957916666,52.0,43.0
1041,245.62785371249998,246.35496516458335,64.0,107.0
1042,244.7827847125,246.36376796666667,40.0,92.0
1043,245.62785371249998,246.36904964791665,71.0,117.0
1044,245.62785371249998,246.37609188958334,69.0,122.0
1045,245.2053192125,246.51517616249998,47.0,96.0
1046,246.4729227125,247.17890743958333,71.0,97.0
1047,246.4729227125,247.180668,64.0,100.0
1048,246.4729227125,247.18242856041667,69.0,97.0
1049,246.0503882125,247.38665356875,52.0,85.0
1050,247.74052621250001,248.05918764791667,52.0,92.0
1051,246.4729227125,248.06270876874999,40.0,78.0
1052,247.3179917125,248.06975101041667,69.0,122.0
1053,247.3179917125,248.07327213125,71.0,112.0
1054,247.3179917125,248.08031437291666,64.0,112.0
1055,246.8954572125,248.1102439,47.0,48.0
1056,248.1630607125,250.71587331666666,52.0,89.0
1057,248.1630607125,250.79685909583333,47.0,78.0
1058,248.1630607125,250.90249272083332,40.0,66.0
1059,248.1630607125,250.99932354375,64.0,100.0
1060,248.1630607125,251.07678820208332,68.0,112.0
1061,248.1630607125,251.09087268541666,71.0,92.0
1062,251.5433367125,252.25988480208332,64.0,95.0
1063,251.5433367125,252.27396928541665,71.0,99.0
1064,251.5433367125,252.28101152708334,69.0,93.0
1065,251.5433367125,252.64896865416665,57.0,78.0
1066,251.5433367125,253.05565811041666,47.0,59.0
1067,252.3884057125,253.08910875833334,64.0,100.0
1068,252.3884057125,253.096151,71.0,99.0
1069,252.3884057125,253.11199604375,69.0,99.0
1070,252.8109402125,253.1489678125,57.0,59.0
1071,253.2334747125,253.94826224166667,71.0,83.0
1072,253.2334747125,253.962346725,68.0,99.0
1073,253.2334747125,253.96586784583332,64.0,95.0
1074,254.0785437125,254.35143057708333,64.0,45.0
1075,253.2334747125,254.42361355416665,57.0,70.0
1076,253.2334747125,254.67713425416667,47.0,74.0
1077,251.5433367125,254.77924675833333,52.0,66.0
1078,254.5010782125,254.84086637291665,64.0,75.0
1079,254.0785437125,254.84262693333335,68.0,122.0
1080,254.0785437125,254.85847197708333,71.0,99.0
1081,255.76868171249998,256.89720093958334,57.0,107.0
1082,256.6137507125,257.3038903958333,69.0,97.0
1083,257.0362852125,257.36198888958336,57.0,69.0
1084,256.6137507125,257.3866367354167,64.0,85.0
1085,256.1912162125,257.58029838125,60.0,89.0
1086,255.3461472125,257.71410097291664,52.0,54.0
1087,254.92361271250002,257.7792417083333,45.0,95.0
1088,257.45881971250003,257.91832598125,69.0,117.0
1089,257.8813542125,258.2598747020833,64.0,92.0
1090,258.3038887125,259.0609296916667,67.0,83.0
1091,258.3038887125,259.0626902520833,64.0,77.0
1092,258.3038887125,259.0996620208333,60.0,92.0
1093,259.1489577125,259.28804198541667,60.0,45.0
1094,259.1489577125,259.4570557854167,48.0,74.0
1095,258.7264232125,259.4588163458333,43.0,47.0
1096,259.1489577125,259.6524779916667,67.0,92.0
1097,259.1489577125,259.6700835958333,64.0,79.0
1098,259.5714922125,259.89895645,60.0,78.0
1099,258.3038887125,259.9940267125,36.0,78.0
1100,260.0714913708333,260.93240541458334,59.0,92.0
1101,260.06797025000003,260.9676166229167,47.0,75.0
1102,260.07501249166666,260.9887433479167,54.0,63.0
1103,260.0697308104167,261.0045883916667,71.0,97.0
1104,260.0644491291667,261.03627847916664,62.0,100.0
1105,260.06268856875,261.06268688541667,66.0,122.0
1106,261.38134832083335,262.16831882708334,59.0,81.0
1107,261.3743060791667,262.23522012291664,54.0,90.0
1108,261.3760666395833,262.28803693541664,71.0,100.0
1109,261.37254551875003,262.29155805625,47.0,68.0
1110,261.37958776041665,262.29860029791666,66.0,122.0
1111,261.3760666395833,262.3690227145833,62.0,112.0
1112,262.56268436041665,265.31267973125,52.0,93.0
1113,262.55564211875003,265.3197219729167,47.0,92.0
1114,262.5503604375,265.3672571041667,71.0,90.0
1115,262.5609238,265.3725387854167,40.0,85.0
1116,262.55740267916667,265.38310214791665,67.0,95.0
1117,262.5591632395833,265.39190495,64.0,102.0
1118,262.5591632395833,265.39366551041667,59.0,99.0
