,start,end,pitch,velocity
0,19.188097841666664,19.462369558333332,63.0,80.0
1,19.479359841666664,19.737854866666662,65.0,85.0
2,19.770621841666664,20.224505124999997,68.0,82.0
3,20.353145841666663,20.595864174999996,68.0,81.0
4,20.644407841666663,20.870135891666663,70.0,81.0
5,20.935669841666662,21.124990141666665,72.0,84.0
6,21.226931841666662,21.456300666666664,72.0,85.0
7,21.518193841666665,21.79246555833333,70.0,86.0
8,21.809455841666665,22.154115875,68.0,77.0
9,22.100717841666665,22.40411575833333,65.0,72.0
10,22.391979841666664,23.589794816666664,68.0,83.0
11,23.848289841666663,24.047318875,63.0,81.0
12,24.139551841666663,24.334940099999997,65.0,86.0
13,24.430813841666662,24.58493998333333,68.0,82.0
14,24.722075841666662,24.86892043333333,68.0,83.0
15,25.01333784166666,25.217221241666664,68.0,81.0
16,25.304599841666665,25.497560916666664,70.0,86.0
17,25.595861841666665,26.07765773333333,72.0,85.0
18,26.178385841666664,26.60192933333333,77.0,88.0
19,26.760909841666663,27.01697768333333,75.0,85.0
20,27.052171841666663,27.634695841666662,72.0,83.0
21,27.634695841666662,28.21721984166666,75.0,86.0
22,28.50848184166666,28.70629728333333,72.0,86.0
23,28.79974384166666,29.003627241666663,75.0,88.0
24,29.091005841666664,29.851927816666663,77.0,83.0
25,29.964791841666663,30.168675241666662,80.0,80.0
26,30.256053841666663,30.674742966666663,80.0,85.0
27,30.838577841666662,31.31673295833333,77.0,87.0
28,31.421101841666662,31.839790966666662,75.0,86.0
29,32.00362584166666,32.20750924166666,72.0,82.0
30,32.294887841666664,32.77668373333333,70.0,82.0
31,32.877411841666664,33.58493578333333,72.0,81.0
32,33.75119784166666,34.190518024999996,70.0,83.0
33,34.33372184166666,34.55338193333333,70.0,84.0
34,34.62498384166666,34.80702259166666,68.0,81.0
35,34.916245841666665,35.12134283333333,65.0,86.0
36,35.20750784166666,35.439303849999995,65.0,85.0
37,35.498769841666665,35.720857116666664,72.0,85.0
38,35.79003184166666,37.223283599999995,70.0,82.0
39,37.82886584166666,38.10313755833333,63.0,80.0
40,38.12012784166666,38.37862286666666,65.0,85.0
41,38.41138984166666,38.702651841666665,68.0,82.0
42,38.702651841666665,38.99391384166666,68.0,82.0
43,38.99391384166666,39.236632175,68.0,81.0
44,39.285175841666664,39.510903891666665,70.0,81.0
45,39.57643784166666,40.15896184166666,72.0,84.0
46,40.15896184166666,40.43323355833333,70.0,86.0
47,40.45022384166666,40.794883875,68.0,77.0
48,40.74148584166666,41.04488375833333,65.0,72.0
49,41.03274784166666,42.23056281666666,68.0,83.0
50,42.489057841666664,42.688086874999996,63.0,81.0
51,42.78031984166666,42.97570809999999,65.0,86.0
52,43.071581841666664,43.22570798333333,68.0,82.0
53,43.36284384166666,43.50968843333333,68.0,83.0
54,43.65410584166666,43.85798924166666,68.0,81.0
55,43.94536784166666,44.13832891666666,70.0,86.0
56,44.23662984166666,44.718425733333326,72.0,85.0
57,44.81915384166666,45.242697333333325,77.0,88.0
58,45.40167784166666,45.657745683333324,75.0,85.0
59,45.69293984166666,46.275463841666664,72.0,83.0
60,46.275463841666664,46.85798784166666,75.0,86.0
61,47.14924984166666,47.34706528333333,72.0,86.0
62,47.44051184166666,47.64439524166666,75.0,88.0
63,47.73177384166666,48.49269581666666,77.0,83.0
64,48.60555984166666,48.80944324166666,80.0,80.0
65,48.89682184166666,49.31551096666666,80.0,85.0
66,49.47934584166666,49.95750095833333,77.0,87.0
67,50.06186984166666,50.35313184166666,75.0,86.0
68,50.35313184166666,50.64439384166666,75.0,86.0
69,50.64439384166666,50.84827724166666,72.0,82.0
70,50.93565584166666,51.41745173333333,70.0,82.0
71,51.51817984166666,52.22570378333333,72.0,81.0
72,52.39196584166666,52.83128602499999,70.0,83.0
73,52.97448984166666,53.19414993333333,70.0,84.0
74,53.265751841666656,53.44779059166666,68.0,81.0
75,53.55701384166666,54.13953784166666,65.0,86.0
76,54.13953784166666,54.36162511666666,65.0,85.0
77,54.43079984166666,54.72206184166666,70.0,86.0
78,54.72206184166666,55.86405159999999,68.0,82.0
79,56.469633841666656,56.70628421666666,75.0,89.0
80,56.76089584166666,56.974487974999995,77.0,81.0
81,57.052157841666656,57.469633374999994,77.0,86.0
82,57.63468184166666,58.469632908333324,77.0,87.0
83,58.50846784166666,58.74875899166666,72.0,83.0
84,58.79972984166666,59.04244817499999,77.0,86.0
85,59.09099184166666,60.63953480833332,75.0,86.0
86,61.12982584166666,61.343417974999994,72.0,84.0
87,61.42108784166666,61.71720420833333,70.0,85.0
88,61.71234984166666,62.17108749166666,68.0,78.0
89,62.29487384166666,62.53516499166666,68.0,79.0
90,62.58613584166666,62.85433959999999,65.0,86.0
91,62.87739784166666,63.13953364166666,68.0,78.0
92,63.16865984166666,63.68564989166666,75.0,85.0
93,63.75118384166666,65.28759089166665,72.0,80.0
94,65.79001784166665,65.98297891666665,72.0,83.0
95,66.08127984166666,66.33734768333332,70.0,85.0
96,66.37254184166666,66.84098822499999,68.0,79.0
97,66.95506584166665,67.15773564999999,68.0,76.0
98,67.24632784166666,67.77302662499999,68.0,81.0
99,67.82885184166666,68.03880319999999,68.0,81.0
100,68.12011384166665,68.36040499166666,65.0,87.0
101,68.41137584166665,68.61525924166666,63.0,85.0
102,68.70263784166666,68.90045328333332,75.0,89.0
103,68.99389984166666,69.20263760833332,77.0,86.0
104,69.28516184166666,69.55700637499999,70.0,81.0
105,69.57642384166665,69.80579266666666,75.0,84.0
106,69.86768584166666,70.47084089999998,72.0,75.0
107,70.74147184166665,70.93807369166666,72.0,87.0
108,71.03273384166665,71.20506385833332,77.0,87.0
109,71.32399584166666,71.49147149166666,77.0,80.0
110,71.61525784166666,71.77181116666665,77.0,85.0
111,71.90651984166665,72.33370410833332,77.0,79.0
112,72.48904384166666,72.97933487499999,77.0,87.0
113,73.07156784166666,73.30093666666666,77.0,83.0
114,73.36282984166665,75.76882327499999,75.0,83.0
115,77.46028422291666,77.73955210833333,80.0,79.0
116,77.75296672291665,78.01150293124999,82.0,83.0
117,78.04564922291665,78.22175614583333,87.0,84.0
118,78.33704735416666,78.4814647625,87.0,86.0
119,78.62830935416666,78.85161022083332,87.0,86.0
120,78.91957135416666,79.09796932916666,84.0,81.0
121,79.21083335416665,79.81520200416666,84.0,82.0
122,79.79335735416666,80.01787181249999,80.0,80.0
123,80.08461935416666,81.8673855125,82.0,85.0
124,82.70597735416666,82.9304918125,79.0,87.0
125,82.99723935416665,83.17927810416666,79.0,86.0
126,83.28850135416666,83.46689932916667,79.0,84.0
127,83.57976335416666,83.76665647083333,79.0,85.0
128,83.87102535416666,84.37345230416666,79.0,87.0
129,84.45354935416665,84.69869487083332,75.0,87.0
130,84.74481135416666,86.37830573749999,80.0,86.0
131,87.36616935416666,87.59553817916665,77.0,87.0
132,87.65743135416666,88.09675153749998,80.0,85.0
133,88.23995535416665,89.10524621249999,80.0,86.0
134,89.11374135416666,89.80063423749999,77.0,87.0
135,89.69626535416666,90.26543984583333,89.0,85.0
136,90.27878935416666,90.8200512375,87.0,85.0
137,90.86131335416665,91.50694412083332,80.0,85.0
138,92.02636135416665,92.22539038749998,80.0,83.0
139,92.31762335416666,92.48509900416666,80.0,83.0
140,92.60888535416666,92.77636100416666,80.0,87.0
141,92.90014735416666,93.06276863749999,80.0,87.0
142,93.19140935416665,93.76543821249999,80.0,87.0
143,93.77393335416666,94.06276817083332,77.0,81.0
144,94.06519535416666,94.71446689583333,84.0,86.0
145,94.64771935416665,95.94019447916665,82.0,81.0
146,96.10402935416666,96.38194184583332,80.0,79.0
147,96.39529135416666,96.65257278749999,82.0,83.0
148,96.68655335416665,96.86252414583332,87.0,84.0
149,96.97781535416665,97.12223276249999,87.0,86.0
150,97.26907735416665,97.49237822083333,87.0,86.0
151,97.56033935416666,97.73873732916665,84.0,81.0
152,97.85160135416666,98.45597000416666,84.0,82.0
153,98.43412535416665,98.65863981249998,80.0,80.0
154,98.72538735416666,100.50815351249999,82.0,85.0
155,101.34674535416666,101.57125981249999,79.0,87.0
156,101.63800735416666,101.82004610416666,79.0,86.0
157,101.92926935416665,102.10766732916666,79.0,84.0
158,102.22053135416665,102.40742447083332,79.0,85.0
159,102.51179335416666,103.01422030416666,79.0,87.0
160,103.09431735416666,103.33946287083333,75.0,87.0
161,103.38557935416665,105.01907373749998,80.0,86.0
162,106.00693735416665,106.23630617916666,77.0,87.0
163,106.29819935416666,106.73751953749999,80.0,85.0
164,106.88072335416666,107.74601421249999,80.0,86.0
165,107.75450935416666,108.44140223749999,77.0,87.0
166,108.33703335416665,108.90620784583332,89.0,85.0
167,108.91955735416666,109.46081923749999,87.0,85.0
168,109.50208135416665,110.37586735416664,80.0,85.0
169,110.66712935416666,110.86615838749998,77.0,83.0
170,110.95839135416665,111.54091535416666,80.0,83.0
171,111.54091535416666,112.70596335416666,80.0,87.0
172,113.87101135416665,114.06518602083332,82.0,85.0
173,114.16227335416664,114.74237017083331,82.0,84.0
174,114.74479735416665,115.0858166125,77.0,86.0
175,115.03605935416665,115.61494257916665,82.0,81.0
176,115.61858335416665,117.73872799583333,80.0,86.0
177,138.04575735416665,138.3200290708333,63.0,80.0
178,138.33701935416664,138.59551437916664,65.0,85.0
179,138.62828135416666,138.91954335416665,68.0,82.0
180,138.91954335416665,139.21080535416667,68.0,82.0
181,139.21080535416667,139.45352368749997,68.0,81.0
182,139.50206735416666,139.72779540416664,70.0,81.0
183,139.79332935416664,140.37585335416665,72.0,84.0
184,140.37585335416665,140.65012507083333,70.0,86.0
185,140.66711535416664,141.0117753875,68.0,77.0
186,140.95837735416666,141.2617752708333,65.0,72.0
187,141.24963935416665,142.44745432916665,68.0,83.0
188,142.70594935416665,142.90497838749997,63.0,81.0
189,142.99721135416667,143.19259961249998,65.0,86.0
190,143.28847335416665,143.44259949583332,68.0,82.0
191,143.57973535416664,143.72657994583332,68.0,83.0
192,143.87099735416666,144.07488075416666,68.0,81.0
193,144.16225935416665,144.35522042916665,70.0,86.0
194,144.45352135416664,144.93531724583332,72.0,85.0
195,145.03604535416665,145.4595888458333,77.0,88.0
196,145.61856935416665,145.87463719583332,75.0,85.0
197,145.90983135416667,146.49235535416665,72.0,83.0
198,146.49235535416665,147.07487935416665,75.0,86.0
199,147.36614135416664,147.56395679583332,72.0,86.0
200,147.65740335416666,147.86128675416666,75.0,88.0
201,147.94866535416665,148.70958732916665,77.0,83.0
202,148.82245135416665,149.02633475416667,80.0,80.0
203,149.11371335416663,149.53240247916665,80.0,85.0
204,149.69623735416667,150.1743924708333,77.0,87.0
205,150.27876135416665,150.57002335416666,75.0,86.0
206,150.57002335416666,150.86128535416665,75.0,86.0
207,150.86128535416665,151.06516875416665,72.0,82.0
208,151.15254735416664,151.63434324583332,70.0,82.0
209,151.73507135416665,152.4425952958333,72.0,81.0
210,152.60885735416664,153.04817753749998,70.0,83.0
211,153.19138135416665,153.41104144583332,70.0,84.0
212,153.48264335416667,153.66468210416664,68.0,81.0
213,153.77390535416663,154.35642935416666,65.0,86.0
214,154.35642935416666,154.57851662916664,65.0,85.0
215,154.64769135416665,154.93895335416664,70.0,86.0
216,154.93895335416664,156.0809431125,68.0,82.0
217,156.68652535416663,156.92317572916664,75.0,89.0
218,156.97778735416665,157.1913794875,77.0,81.0
219,157.26904935416667,157.68652488749998,77.0,86.0
220,157.85157335416665,158.6865244208333,77.0,87.0
221,158.72535935416664,158.96565050416666,72.0,83.0
222,159.01662135416666,159.2593396875,77.0,86.0
223,159.30788335416665,160.8564263208333,75.0,86.0
224,161.34671735416663,161.56030948749998,72.0,84.0
225,161.63797935416665,161.9340957208333,70.0,85.0
226,161.92924135416666,162.38797900416665,68.0,78.0
227,162.51176535416664,162.75205650416666,68.0,79.0
228,162.80302735416666,163.0712311125,65.0,86.0
229,163.09428935416665,163.35642515416663,68.0,78.0
230,163.38555135416664,163.90254140416664,75.0,85.0
231,163.96807535416664,165.50448240416665,72.0,80.0
232,166.00690935416665,166.19987042916665,72.0,83.0
233,166.29817135416664,166.5542391958333,70.0,85.0
234,166.58943335416666,167.05787973749997,68.0,79.0
235,167.17195735416664,167.37462716249996,68.0,76.0
236,167.46321935416665,167.98991813749998,68.0,81.0
237,168.04574335416663,168.25569471249997,68.0,81.0
238,168.33700535416665,168.57729650416664,65.0,87.0
239,168.62826735416667,168.83215075416666,63.0,85.0
240,168.91952935416663,169.11734479583333,75.0,89.0
241,169.21079135416664,169.41952912083332,77.0,86.0
242,169.50205335416666,169.77389788749997,70.0,81.0
243,169.79331535416665,170.02268417916665,75.0,84.0
244,170.08457735416664,170.6877324125,72.0,75.0
245,170.95836335416664,171.15496520416664,72.0,87.0
246,171.24962535416665,171.4219553708333,77.0,87.0
247,171.54088735416664,171.70836300416664,77.0,80.0
248,171.83214935416663,171.98870267916664,77.0,85.0
249,172.12341135416665,172.5505956208333,77.0,79.0
250,172.70593535416663,173.19622638749996,77.0,87.0
251,173.28845935416666,173.51782817916666,77.0,83.0
252,173.57972135416665,175.97413771249998,75.0,83.0
253,177.65738935416664,177.9353018458333,80.0,79.0
254,177.94865135416666,178.2059327875,82.0,83.0
255,178.23991335416665,178.41588414583333,87.0,84.0
256,178.53117535416663,178.67559276249997,87.0,86.0
257,178.82243735416665,179.0457382208333,87.0,86.0
258,179.11369935416664,179.29209732916667,84.0,81.0
259,179.40496135416663,180.00933000416666,84.0,82.0
260,179.98748535416667,180.21199981249998,80.0,80.0
261,180.27874735416663,182.06151351249997,82.0,85.0
262,182.90010535416664,183.1246198125,79.0,87.0
263,183.19136735416663,183.37340610416663,79.0,86.0
264,183.48262935416665,183.66102732916664,79.0,84.0
265,183.77389135416666,183.96078447083332,79.0,85.0
266,184.06515335416663,184.56758030416665,79.0,87.0
267,184.64767735416666,184.8928228708333,75.0,87.0
268,184.93893935416665,186.57243373749998,80.0,86.0
269,187.56029735416666,187.78966617916666,77.0,87.0
270,187.85155935416662,188.29087953749996,80.0,85.0
271,188.43408335416666,189.29937421249997,80.0,86.0
272,189.30786935416666,189.99476223749997,77.0,87.0
273,189.89039335416663,190.4595678458333,89.0,85.0
274,190.47291735416664,191.01417923749997,87.0,85.0
275,191.05544135416665,191.70107212083332,80.0,85.0
276,192.22048935416666,192.41951838749998,80.0,83.0
277,192.51175135416665,192.67922700416665,80.0,83.0
278,192.80301335416664,192.97048900416664,80.0,87.0
279,193.09427535416665,193.25689663749998,80.0,87.0
280,193.38553735416664,193.95956621249996,80.0,87.0
281,193.96806135416665,194.25689617083333,77.0,81.0
282,194.25932335416664,194.9085948958333,84.0,86.0
283,194.84184735416665,196.13432247916666,82.0,81.0
284,196.29815735416665,196.57606984583333,80.0,79.0
285,196.58941935416664,196.84670078749997,82.0,83.0
286,196.88068135416665,197.0566521458333,87.0,84.0
287,197.17194335416664,197.31636076249998,87.0,86.0
288,197.46320535416663,197.6865062208333,87.0,86.0
289,197.75446735416665,197.93286532916665,84.0,81.0
290,198.04572935416664,198.65009800416664,84.0,82.0
291,198.62825335416665,198.85276781249996,80.0,80.0
292,198.91951535416666,200.70228151249998,82.0,85.0
293,201.54087335416665,201.76538781249997,79.0,87.0
294,201.83213535416664,202.01417410416664,79.0,86.0
295,202.12339735416663,202.30179532916662,79.0,84.0
296,202.41465935416664,202.60155247083333,79.0,85.0
297,202.70592135416666,203.20834830416663,79.0,87.0
298,203.28844535416664,203.5335908708333,75.0,87.0
299,203.57970735416666,205.21320173749996,80.0,86.0
300,206.20106535416664,206.43043417916664,77.0,87.0
301,206.49232735416666,206.9316475375,80.0,85.0
302,207.07485135416664,207.94014221249995,80.0,86.0
303,207.94863735416664,208.63553023749995,77.0,87.0
304,208.5311613541666,209.10033584583329,89.0,85.0
305,209.11368535416665,209.65494723749998,87.0,85.0
306,209.69620935416663,210.56999535416662,80.0,85.0
307,210.86125735416664,211.06028638749996,77.0,83.0
308,211.15251935416666,211.73504335416663,80.0,83.0
309,211.73504335416663,212.90009135416665,80.0,87.0
310,214.06513935416666,214.2593140208333,82.0,85.0
311,214.35640135416662,214.93649817083332,82.0,84.0
312,214.93892535416666,215.27994461249995,77.0,86.0
313,215.23018735416662,215.80907057916664,82.0,81.0
314,215.81271135416665,217.93285599583328,80.0,86.0
315,219.59911735416665,219.8770298458333,80.0,79.0
316,219.8903793541666,220.1476607875,82.0,83.0
317,220.18164135416663,220.3576121458333,87.0,84.0
318,220.47290335416665,220.61732076249996,87.0,86.0
319,220.76416535416666,220.9874662208333,87.0,86.0
320,221.05542735416662,221.23382532916662,84.0,81.0
321,221.34668935416664,221.9510580041666,84.0,82.0
322,221.92921335416662,222.1537278125,80.0,80.0
323,222.22047535416664,224.00324151249998,82.0,85.0
324,224.84183335416662,225.0663478125,79.0,87.0
325,225.13309535416664,225.31513410416665,79.0,86.0
326,225.42435735416666,225.60275532916665,79.0,84.0
327,225.71561935416662,225.9025124708333,79.0,85.0
328,226.00688135416664,226.50930830416667,79.0,87.0
329,226.58940535416662,226.8345508708333,75.0,87.0
330,226.88066735416663,228.5141617375,80.0,86.0
331,229.50202535416662,229.7313941791666,77.0,87.0
332,229.79328735416664,230.23260753749997,80.0,85.0
333,230.37581135416661,231.24110221249998,80.0,86.0
334,231.2495973541666,231.93649023749998,77.0,87.0
335,231.83212135416665,232.40129584583332,89.0,85.0
336,232.41464535416662,232.95590723749996,87.0,85.0
337,232.99716935416666,233.64280012083333,80.0,85.0
338,234.16221735416661,234.3612463875,80.0,83.0
339,234.45347935416663,234.62095500416666,80.0,83.0
340,234.74474135416665,234.91221700416662,80.0,87.0
341,235.0360033541666,235.19862463749996,80.0,87.0
342,235.32726535416663,235.90129421249998,80.0,87.0
343,235.90978935416666,236.19862417083328,77.0,81.0
344,236.20105135416662,236.8503228958333,84.0,86.0
345,236.78357535416666,238.0760504791666,82.0,81.0
346,238.23988535416663,238.5177978458333,80.0,79.0
347,238.53114735416665,238.78842878749998,82.0,83.0
348,238.8224093541666,238.99838014583332,87.0,84.0
349,239.11367135416663,239.2580887625,87.0,86.0
350,239.40493335416664,239.6282342208333,87.0,86.0
351,239.69619535416666,239.87459332916666,84.0,81.0
352,239.98745735416662,240.59182600416665,84.0,82.0
353,240.56998135416666,240.79449581249997,80.0,80.0
354,240.86124335416662,242.64400951249996,82.0,85.0
355,243.48260135416666,243.70711581249998,79.0,87.0
356,243.77386335416662,243.95590210416663,79.0,86.0
357,244.06512535416664,244.24352332916663,79.0,84.0
358,244.35638735416666,244.54328047083328,79.0,85.0
359,244.64764935416662,245.15007630416665,79.0,87.0
360,245.23017335416665,245.4753188708333,75.0,87.0
361,245.5214353541666,247.15492973749997,80.0,86.0
362,248.14279335416666,248.37216217916665,77.0,87.0
363,248.43405535416662,248.87337553749995,80.0,85.0
364,249.01657935416665,249.88187021249996,80.0,86.0
365,249.89036535416665,250.57725823749996,77.0,87.0
366,250.47288935416663,251.0420638458333,89.0,85.0
367,251.05541335416666,251.5966752375,87.0,85.0
368,251.63793735416664,252.51172335416663,80.0,85.0
369,252.80298535416665,253.00201438749997,77.0,83.0
370,253.0942473541666,253.67677135416665,80.0,83.0
371,253.67677135416665,254.84181935416666,80.0,87.0
372,256.0068673541666,256.2010420208333,82.0,85.0
373,256.29812935416663,256.87822617083333,82.0,84.0
374,256.8806533541666,257.22167261249996,77.0,86.0
375,257.17191535416663,257.75079857916666,82.0,81.0
376,257.7544393541666,259.8745839958333,80.0,86.0
377,262.1318644958333,262.5323497458333,77.0,91.0
378,262.53113615416663,263.13186402916665,80.0,87.0
379,263.27264066249995,265.4813774958333,80.0,87.0
380,266.6172992958333,267.09181363749997,82.0,84.0
381,267.1500660375,268.0517646458333,82.0,80.0
382,268.2435121291666,268.71317210416663,77.0,83.0
383,268.6088032208333,269.27991941249996,82.0,79.0
384,269.3223951208333,271.5760348458333,80.0,85.0
