,start,end,pitch,velocity
0,1.4211158416666665,2.132280558333333,51.0,72.0
1,1.1298538416666666,2.1334941499999998,44.0,85.0
2,1.7123778416666664,2.6796103999999996,56.0,86.0
3,2.0036398416666663,2.9611636666666663,63.0,83.0
4,2.586163841666666,3.1165033999999996,51.0,73.0
5,2.2949018416666664,3.129852908333333,44.0,75.0
6,2.8774258416666663,3.253639258333333,56.0,83.0
7,3.1686878416666664,4.024269966666666,63.0,79.0
8,3.459949841666666,4.3737843666666665,43.0,70.0
9,3.751211841666666,4.450240641666666,51.0,75.0
10,4.624997841666666,4.7099492583333324,51.0,66.0
11,4.042473841666666,4.844657933333333,58.0,85.0
12,4.333735841666666,5.230580083333333,63.0,85.0
13,4.624997841666666,5.427181933333332,43.0,73.0
14,4.916259841666666,5.570385749999999,51.0,81.0
15,5.207521841666666,5.587376033333332,58.0,85.0
16,5.498783841666666,6.032764175,63.0,85.0
17,6.081307841666666,6.770627908333332,55.0,70.0
18,5.790045841666666,6.781550233333332,48.0,84.0
19,6.372569841666666,7.331307258333332,58.0,74.0
20,6.663831841666666,7.599511016666666,67.0,85.0
21,7.246355841666666,7.637132358333332,55.0,69.0
22,6.955093841666666,7.756064341666666,48.0,82.0
23,7.537617841666665,7.934462316666665,58.0,85.0
24,7.828879841666666,8.3883456,67.0,80.0
25,8.702665841666665,9.081306441666666,60.0,85.0
26,8.993927841666666,9.332519916666666,65.0,85.0
27,8.411403841666665,9.398053866666665,48.0,72.0
28,8.120141841666666,10.01213125,41.0,87.0
29,9.576451841666666,10.024267166666665,48.0,66.0
30,9.285189841666666,10.222082608333332,68.0,85.0
31,9.867713841666665,10.239072891666666,60.0,82.0
32,10.158975841666665,11.066742408333331,65.0,81.0
33,10.450237841666665,11.347082083333332,49.0,85.0
34,10.741499841666664,11.394412158333331,56.0,76.0
35,11.032761841666666,11.883489599999999,61.0,79.0
36,11.324023841666666,12.246353508333332,68.0,81.0
37,11.615285841666665,12.623780516666665,49.0,85.0
38,11.906547841666665,12.680819324999998,56.0,74.0
39,12.197809841666665,12.837372649999999,61.0,81.0
40,12.489071841666664,13.226935574999999,68.0,80.0
41,12.780333841666666,13.771838233333332,49.0,86.0
42,13.071595841666666,13.782760558333331,56.0,71.0
43,13.362857841666665,14.263342858333331,61.0,78.0
44,13.654119841666665,14.567954366666665,64.0,87.0
45,14.236643841666664,14.648051416666664,56.0,78.0
46,13.945381841666665,14.706303816666665,49.0,81.0
47,14.527905841666664,14.951449333333331,61.0,85.0
48,14.819167841666665,15.364070499999999,64.0,85.0
49,15.110429841666665,16.08494395,51.0,81.0
50,15.692953841666665,16.216011849999997,63.0,81.0
51,15.401691841666665,16.266982699999996,58.0,78.0
52,16.566739841666664,16.922322199999996,58.0,79.0
53,16.275477841666664,16.938098891666666,51.0,81.0
54,15.984215841666664,16.940526074999998,67.0,80.0
55,16.858001841666663,17.24999195,63.0,81.0
56,17.440525841666663,18.77426308333333,39.0,62.0
57,17.440525841666663,19.133486216666665,63.0,77.0
58,17.149263841666663,19.220864816666666,58.0,73.0
59,19.770621841666664,20.779116516666665,44.0,76.0
60,20.061883841666663,20.779116516666665,51.0,81.0
61,20.353145841666663,21.58494138333333,63.0,81.0
62,20.644407841666663,21.620135541666663,68.0,80.0
63,21.226931841666662,21.645620966666662,51.0,73.0
64,20.935669841666662,21.76455295,44.0,74.0
65,21.518193841666665,21.93809655833333,56.0,86.0
66,21.809455841666665,22.72814473333333,63.0,82.0
67,22.391979841666664,23.101930966666664,48.0,65.0
68,22.683241841666664,23.12862998333333,56.0,76.0
69,22.100717841666665,23.133484349999996,41.0,86.0
70,23.265765841666664,23.37984345833333,56.0,47.0
71,22.974503841666664,23.866493716666664,63.0,85.0
72,23.557027841666663,24.1164936,48.0,72.0
73,23.265765841666664,24.163823674999996,41.0,80.0
74,23.848289841666663,24.22814403333333,56.0,80.0
75,24.139551841666663,24.54853223333333,63.0,81.0
76,24.722075841666662,25.343434774999995,51.0,75.0
77,24.430813841666662,25.39319203333333,44.0,82.0
78,25.01333784166666,25.927172366666664,56.0,79.0
79,25.304599841666665,26.22328873333333,63.0,81.0
80,25.595861841666665,26.446589599999996,44.0,69.0
81,25.887123841666664,26.47086143333333,51.0,73.0
82,26.178385841666664,26.521832283333328,56.0,85.0
83,26.469647841666664,27.343433841666663,63.0,78.0
84,27.343433841666663,27.677171549999997,58.0,74.0
85,26.760909841666663,27.689307466666662,48.0,81.0
86,27.052171841666663,27.703870566666662,55.0,65.0
87,27.634695841666662,28.533967266666664,63.0,80.0
88,28.21721984166666,28.566734241666662,55.0,72.0
89,27.925957841666662,28.737850666666663,48.0,80.0
90,28.50848184166666,28.89197680833333,58.0,85.0
91,28.79974384166666,29.41988918333333,63.0,81.0
92,29.091005841666664,30.05338403333333,49.0,85.0
93,29.382267841666664,30.334937299999996,56.0,79.0
94,29.673529841666664,30.586150774999997,61.0,80.0
95,29.964791841666663,30.88348073333333,65.0,85.0
96,30.547315841666663,30.893189466666662,56.0,79.0
97,30.838577841666662,31.151684491666664,61.0,85.0
98,30.256053841666663,31.16988836666666,49.0,81.0
99,31.129839841666662,31.408965924999997,56.0,84.0
100,31.421101841666662,32.057023875,63.0,79.0
101,31.71236384166666,32.10435395,55.0,68.0
102,32.00362584166666,32.378625666666665,60.0,85.0
103,31.421101841666662,32.44415961666666,48.0,80.0
104,32.294887841666664,32.66988766666666,63.0,83.0
105,32.58614984166666,32.956295299999994,65.0,85.0
106,32.877411841666664,33.22328546666666,60.0,81.0
107,32.58614984166666,33.572799866666664,53.0,82.0
108,33.16867384166666,33.75847939166666,65.0,80.0
109,33.75119784166666,34.08736273333333,58.0,74.0
110,33.75119784166666,34.382265508333326,61.0,78.0
111,33.75119784166666,34.75483815,46.0,82.0
112,34.04245984166666,34.78153716666666,53.0,72.0
113,34.33372184166666,35.11770205833333,58.0,83.0
114,34.62498384166666,35.54245914166666,61.0,86.0
115,35.20750784166666,35.71721634166666,53.0,80.0
116,34.916245841666665,35.76211923333333,46.0,77.0
117,35.498769841666665,35.87376966666666,58.0,86.0
118,35.79003184166666,36.10192489999999,61.0,85.0
119,36.081293841666664,36.63105086666666,63.0,79.0
120,36.66381784166666,37.055807949999995,58.0,85.0
121,36.95507984166666,37.331293258333325,63.0,82.0
122,36.37255584166666,37.831293024999994,46.0,69.0
123,36.081293841666664,37.860419224999994,39.0,86.0
124,37.24634184166666,37.889545424999994,67.0,86.0
125,37.53760384166666,37.946584233333326,63.0,79.0
126,37.82886584166666,38.09464241666666,58.0,69.0
127,38.41138984166666,38.79124403333333,56.0,75.0
128,38.41138984166666,39.035175958333326,60.0,77.0
129,38.702651841666665,39.41624374166666,51.0,72.0
130,38.99391384166666,39.61041840833333,56.0,84.0
131,39.285175841666664,40.13104923333333,63.0,85.0
132,39.86769984166666,40.232990933333326,56.0,79.0
133,39.57643784166666,40.41988404999999,51.0,79.0
134,38.41138984166666,40.43687433333333,44.0,82.0
135,40.15896184166666,40.64075773333333,60.0,87.0
136,40.45022384166666,41.05459249166666,56.0,85.0
137,41.32400984166666,41.71599995,53.0,84.0
138,41.03274784166666,41.73056304999999,48.0,71.0
139,41.61527184166666,42.25847542499999,56.0,86.0
140,41.61527184166666,42.30337831666666,60.0,84.0
141,40.74148584166666,42.53638791666666,41.0,86.0
142,42.19779584166666,42.538815099999994,53.0,79.0
143,41.90653384166666,42.55459179166666,48.0,67.0
144,42.489057841666664,43.09706726666666,56.0,82.0
145,43.36284384166666,44.0825037,51.0,72.0
146,43.65410584166666,44.661386924999995,56.0,79.0
147,43.94536784166666,44.853134408333325,63.0,81.0
148,43.071581841666664,45.078862458333326,44.0,85.0
149,44.52789184166666,45.106775066666664,51.0,71.0
150,44.81915384166666,45.39560988333333,60.0,84.0
151,45.11041584166666,45.410172983333325,56.0,83.0
152,45.40167784166666,45.89682324166666,63.0,80.0
153,45.98420184166666,46.37983272499999,60.0,84.0
154,45.69293984166666,46.84949269999999,55.0,68.0
155,46.275463841666664,46.92837615833333,67.0,72.0
156,47.14924984166666,47.274249783333325,55.0,69.0
157,45.40167784166666,47.36890993333333,48.0,78.0
158,46.85798784166666,47.42473515,63.0,86.0
159,47.44051184166666,47.53517199166666,60.0,79.0
160,47.73177384166666,48.09949211666666,61.0,80.0
161,48.31429784166666,48.43929778333333,61.0,75.0
162,48.02303584166666,48.45264729166666,56.0,82.0
163,48.60555984166666,48.98905480833333,56.0,82.0
164,48.60555984166666,49.19536539166666,65.0,85.0
165,49.18808384166666,49.33128765833332,56.0,80.0
166,49.18808384166666,49.51939436666666,61.0,81.0
167,47.73177384166666,49.55580211666666,49.0,85.0
168,49.47934584166666,49.63104479999999,56.0,82.0
169,50.06186984166666,50.43444248333333,60.0,79.0
170,50.06186984166666,50.67716081666666,63.0,82.0
171,50.35313184166666,50.71963652499999,55.0,70.0
172,50.06186984166666,50.88832576666666,48.0,86.0
173,50.64439384166666,51.282743058333324,60.0,79.0
174,51.22691784166666,51.59099534166666,65.0,85.0
175,51.51817984166666,51.83371367499999,60.0,85.0
176,51.22691784166666,51.982985449999994,53.0,84.0
177,51.80944184166666,52.186868849999996,68.0,81.0
178,52.10070384166666,52.22570378333333,60.0,82.0
179,52.39196584166666,52.764538483333325,58.0,71.0
180,52.39196584166666,53.020606324999996,61.0,74.0
181,52.39196584166666,53.402887699999994,46.0,84.0
182,52.68322784166666,53.433227491666656,53.0,78.0
183,52.97448984166666,53.57157694166666,58.0,80.0
184,53.55701384166666,53.92837289166666,63.0,80.0
185,54.13953784166666,54.218421299999996,63.0,79.0
186,53.84827584166666,54.35919793333333,58.0,73.0
187,54.43079984166666,54.61890654999999,61.0,83.0
188,53.55701384166666,54.64681915833333,51.0,85.0
189,54.72206184166666,55.32157612499999,60.0,82.0
190,55.30458584166666,55.44657606666666,56.0,81.0
191,55.01332384166666,55.83371180833333,51.0,77.0
192,55.59584784166666,56.273031991666656,56.0,85.0
193,55.59584784166666,56.523031874999994,60.0,86.0
194,56.17837184166666,56.79487640833332,51.0,75.0
195,54.72206184166666,56.80943950833333,44.0,81.0
196,56.469633841666656,57.00846854166666,56.0,86.0
197,56.76089584166666,57.48783724999999,60.0,75.0
198,57.63468184166666,58.808224983333325,53.0,89.0
199,57.052157841666656,58.82885604166666,41.0,90.0
200,57.34341984166666,58.834923999999994,48.0,77.0
201,58.50846784166666,58.88468125833332,56.0,78.0
202,57.92594384166666,58.94414724999999,60.0,85.0
203,59.09099184166666,59.314292708333326,53.0,92.0
204,59.09099184166666,59.36040919166666,60.0,43.0
205,58.79972984166666,59.566719774999996,65.0,86.0
206,59.67351584166666,60.63832121666666,55.0,77.0
207,59.96477784166666,60.77788425833332,60.0,87.0
208,60.838563841666655,61.11162196666666,55.0,72.0
209,60.256039841666656,61.203854933333325,67.0,87.0
210,59.38225384166666,61.38225290833333,48.0,86.0
211,61.12982584166666,61.43807812499999,63.0,86.0
212,61.42108784166666,61.620116874999994,60.0,82.0
213,61.71234984166666,62.070359383333326,58.0,83.0
214,61.71234984166666,62.347058283333325,61.0,81.0
215,62.00361184166666,62.64074746666666,53.0,77.0
216,62.29487384166666,62.680795991666656,58.0,86.0
217,61.71234984166666,62.823999808333326,46.0,82.0
218,62.58613584166666,63.205067591666655,61.0,87.0
219,63.16865984166666,63.47084416666666,58.0,90.0
220,63.459921841666656,63.78395081666666,63.0,86.0
221,62.87739784166666,63.89196047499999,51.0,85.0
222,63.75118384166666,64.04001865833332,61.0,87.0
223,64.04244584166666,64.61890188333332,60.0,83.0
224,64.62496984166665,64.96598909999999,56.0,88.0
225,64.33370784166665,65.26331905833332,51.0,78.0
226,64.91623184166666,65.86404693333333,60.0,80.0
227,64.91623184166666,65.89195954166665,63.0,85.0
228,65.49875584166666,65.92108574166666,51.0,80.0
229,64.04244584166666,65.97327018333333,44.0,83.0
230,65.79001784166665,66.34584282499999,56.0,91.0
231,66.08127984166666,66.93079400833332,60.0,86.0
232,66.95506584166665,67.31307538333333,53.0,85.0
233,66.66380384166666,67.61890048333332,48.0,75.0
234,67.24632784166666,68.09948278333333,60.0,86.0
235,67.24632784166666,68.10919151666666,56.0,84.0
236,66.37254184166666,68.15530799999999,41.0,89.0
237,67.82885184166666,68.19050215833333,48.0,74.0
238,68.12011384166665,68.44899718333332,53.0,90.0
239,68.70263784166666,69.10069590833332,60.0,79.0
240,68.70263784166666,69.20627838333333,63.0,85.0
241,68.99389984166666,69.6261811,55.0,75.0
242,69.28516184166666,69.66744321666665,60.0,88.0
243,68.70263784166666,69.97084113333332,48.0,81.0
244,69.57642384166665,70.40045258333332,67.0,85.0
245,70.45020984166666,70.62860781666666,55.0,81.0
246,70.15894784166666,70.74996698333332,63.0,83.0
247,70.74147184166665,70.98783094999999,60.0,85.0
248,71.03273384166665,71.377393875,61.0,74.0
249,71.32399584166666,71.705063625,56.0,85.0
250,71.61525784166666,71.76817039166666,61.0,88.0
251,71.90651984166665,72.27909248333333,61.0,92.0
252,71.90651984166665,72.316713825,56.0,87.0
253,71.90651984166665,72.52545159166665,65.0,89.0
254,72.48904384166666,72.79972330833333,61.0,87.0
255,72.78030584166666,73.110402775,56.0,86.0
256,71.03273384166665,73.28637356666665,49.0,85.0
257,73.07156784166666,73.39321698333332,61.0,80.0
258,73.36282984166665,73.61760689999998,58.0,77.0
259,73.36282984166665,73.68102144166666,63.0,83.0
260,73.65541172291665,74.08224036874999,58.0,74.0
261,73.94809422291665,74.29809371249999,63.0,81.0
262,74.24077672291665,74.92980010833332,67.0,85.0
263,74.82614172291666,75.17370219166665,63.0,86.0
264,73.36282984166665,75.56760405624999,51.0,86.0
265,75.11882422291666,75.61638447291665,58.0,82.0
266,75.41150672291666,75.65175027499998,63.0,76.0
267,75.72492089999999,76.69199266041666,58.0,80.0
268,75.74443306666666,76.73101699374999,63.0,86.0
269,75.78467691041665,76.7712608375,75.0,86.0
270,75.70418922291665,76.78223643124998,39.0,85.0
271,78.04564922291665,78.42563954583332,56.0,80.0
272,78.04564922291665,78.69505689583333,63.0,80.0
273,78.33704735416666,79.12830912083332,51.0,75.0
274,78.62830935416666,79.28971681249999,56.0,85.0
275,78.91957135416666,79.61010501249999,60.0,89.0
276,79.79335735416666,79.88923109583332,56.0,80.0
277,78.04564922291665,80.09918245416665,44.0,86.0
278,79.50209535416666,80.20597852083333,51.0,83.0
279,79.79335735416666,80.21811443749999,63.0,86.0
280,80.08461935416666,80.24238627083332,56.0,80.0
281,79.79335735416666,80.28243479583332,60.0,89.0
282,80.37588135416667,80.88923062916666,63.0,83.0
283,80.95840535416666,81.12588100416666,58.0,82.0
284,81.24966735416666,81.67927880416666,58.0,85.0
285,81.24966735416666,81.6889875375,67.0,85.0
286,81.83219135416665,82.16471547083333,63.0,87.0
287,80.37588135416667,82.23753097083332,43.0,86.0
288,80.66714335416665,82.28000667916666,51.0,75.0
289,82.12345335416666,82.35403577083332,58.0,85.0
290,82.70597735416666,83.06155971249999,60.0,85.0
291,82.70597735416666,83.25816156249999,63.0,84.0
292,83.28850135416666,83.40500615416666,60.0,79.0
293,82.99723935416665,83.73388949583332,55.0,72.0
294,83.57976335416666,83.99117092916666,60.0,87.0
295,83.57976335416666,84.05063692083333,67.0,80.0
296,83.87102535416666,84.4122872375,55.0,78.0
297,84.16228735416666,84.47296682083332,60.0,85.0
298,82.70597735416666,84.59675317083332,48.0,86.0
299,84.16228735416666,84.78364628749999,63.0,86.0
300,84.74481135416666,85.1586461125,60.0,87.0
301,85.03607335416666,85.62102453749999,65.0,85.0
302,85.61859735416665,85.7702963125,60.0,81.0
303,85.90985935416666,86.34553876249998,60.0,85.0
304,85.90985935416666,86.50330567916666,68.0,83.0
305,85.32733535416666,86.59675223749998,48.0,76.0
306,85.03607335416666,87.06398502916666,41.0,87.0
307,86.78364535416665,87.08825686249999,48.0,73.0
308,86.49238335416666,87.12102383749999,65.0,86.0
309,87.07490735416665,87.3685965375,63.0,86.0
310,87.36616935416666,87.7217517125,61.0,78.0
311,87.36616935416666,87.9802467375,65.0,86.0
312,87.94869335416666,88.07733407083333,61.0,80.0
313,88.23995535416665,88.61616877083333,61.0,86.0
314,88.23995535416665,88.67684835416665,68.0,84.0
315,87.65743135416666,88.98388704583333,56.0,69.0
316,88.82247935416666,89.4037897625,61.0,85.0
317,87.36616935416666,89.52878970416666,49.0,86.0
318,88.82247935416666,89.58704210416666,65.0,86.0
319,89.40500335416665,89.67199352083333,56.0,79.0
320,89.69626535416666,90.1173816625,60.0,85.0
321,89.69626535416666,90.34432330416666,63.0,80.0
322,89.98752735416666,90.36009999583332,55.0,75.0
323,89.69626535416666,90.72175031249999,48.0,86.0
324,90.27878935416666,90.79577940416665,60.0,90.0
325,90.86131335416665,91.36738107916666,68.0,81.0
326,91.15257535416666,91.49844897916665,60.0,86.0
327,90.86131335416665,91.55912856249999,53.0,85.0
328,91.44383735416666,91.71568188749998,65.0,88.0
329,91.73509935416666,91.88194394583333,60.0,86.0
330,92.02636135416665,92.43534174583333,58.0,74.0
331,92.02636135416665,92.67563289583332,61.0,79.0
332,92.60888535416666,92.77029304583333,58.0,81.0
333,92.90014735416666,93.2411666125,58.0,85.0
334,92.90014735416666,93.25208893749999,65.0,85.0
335,92.31762335416666,93.58218587083333,53.0,80.0
336,92.02636135416665,93.64529263749999,46.0,83.0
337,93.48267135416665,93.87951582916665,58.0,82.0
338,93.48267135416665,94.14529240416665,61.0,85.0
339,94.06519535416666,94.28606903749998,58.0,80.0
340,94.35645735416665,94.86009789583332,63.0,84.0
341,94.93898135416666,95.07004925416666,58.0,86.0
342,95.23024335416666,95.53849563749999,67.0,84.0
343,95.23024335416666,95.60645677083332,58.0,85.0
344,94.64771935416665,95.91956342083333,46.0,72.0
345,94.35645735416665,95.9462624375,39.0,89.0
346,95.81276735416665,95.97660222916666,58.0,85.0
347,95.81276735416665,96.14286428749999,63.0,87.0
348,96.10402935416666,96.38922339583333,58.0,81.0
349,96.39529135416666,96.67563102916665,63.0,76.0
350,96.68655335416665,97.04820367083332,56.0,79.0
351,96.68655335416665,97.3297569375,60.0,78.0
352,97.26907735416665,97.40135884583333,56.0,79.0
353,97.56033935416666,97.89164987916666,63.0,81.0
354,97.56033935416666,97.93655277083332,56.0,87.0
355,98.14286335416665,98.40014478749998,56.0,85.0
356,98.14286335416665,98.77029024583332,60.0,85.0
357,96.68655335416665,98.77271742916665,44.0,85.0
358,98.72538735416666,98.87708631249998,56.0,84.0
359,96.97781535416665,99.07611534583333,51.0,71.0
360,99.01664935416666,99.55305687083333,63.0,86.0
361,99.59917335416665,99.80791112083332,58.0,86.0
362,99.89043535416666,100.30427011249999,58.0,82.0
363,99.89043535416666,100.37951279583332,67.0,79.0
364,100.47295935416665,100.82732812083333,63.0,86.0
365,99.01664935416666,100.90378439583333,43.0,77.0
366,99.30791135416666,100.92077467916666,51.0,78.0
367,100.76422135416665,100.92562904583332,58.0,86.0
368,101.34674535416666,101.67805587916666,60.0,83.0
369,101.34674535416666,101.97174506249999,67.0,77.0
370,101.92926935416665,102.10159937083333,60.0,85.0
371,101.63800735416666,102.45839532083332,55.0,73.0
372,102.22053135416665,102.65499717083333,60.0,85.0
373,102.22053135416665,102.66349231249998,63.0,84.0
374,102.80305535416666,103.16591926249998,60.0,85.0
375,102.80305535416666,103.21567652083333,67.0,82.0
376,103.09431735416666,103.23023962083332,55.0,68.0
377,101.34674535416666,103.3188318125,48.0,85.0
378,103.38557935416665,103.69989959583333,63.0,85.0
379,103.67684135416665,104.33824881249998,65.0,85.0
380,104.25936535416665,104.42441382083332,60.0,85.0
381,104.55062735416665,104.94504464583332,68.0,85.0
382,104.55062735416665,105.18412220416666,60.0,86.0
383,103.96810335416666,105.5032968125,48.0,69.0
384,103.67684135416665,105.55184047916666,41.0,85.0
385,105.13315135416666,105.70111225416666,67.0,87.0
386,105.71567535416665,106.02756841249999,63.0,79.0
387,106.00693735416665,106.36980126249999,61.0,78.0
388,106.00693735416665,106.66227685416666,65.0,84.0
389,106.58946135416666,106.71931566249998,61.0,79.0
390,106.88072335416666,107.22295620416665,61.0,85.0
391,106.88072335416666,107.41227650416666,68.0,84.0
392,106.29819935416666,107.58703370416666,56.0,76.0
393,107.46324735416665,107.83946077083331,61.0,85.0
394,106.00693735416665,107.90620831249998,49.0,86.0
395,107.75450935416666,108.15135382916665,56.0,73.0
396,107.46324735416665,108.16955770416665,65.0,87.0
397,108.04577135416665,108.23023728749999,61.0,78.0
398,108.33703335416665,108.6962564875,60.0,84.0
399,108.33703335416665,108.94868355416665,63.0,83.0
400,108.62829535416665,108.97295538749998,55.0,75.0
401,108.33703335416665,109.13679026249999,48.0,84.0
402,108.91955735416666,109.38436296249999,60.0,86.0
403,109.50208135416665,109.88436272916665,68.0,80.0
404,109.79334335416665,110.11737232916666,60.0,87.0
405,109.50208135416665,110.21567325416666,53.0,84.0
406,110.08460535416665,110.39771200416666,65.0,85.0
407,110.37586735416664,110.53970222916666,60.0,84.0
408,110.66712935416666,111.26785722916665,61.0,79.0
409,110.95839135416665,111.8782938375,53.0,80.0
410,111.24965335416665,112.06882772916666,58.0,86.0
411,112.12343935416666,112.40863339583332,53.0,84.0
412,110.66712935416666,112.44989551249998,46.0,85.0
413,111.54091535416666,112.48873044583331,65.0,86.0
414,112.41470135416665,112.80183709583332,58.0,86.0
415,112.70596335416666,113.96324432083333,61.0,83.0
416,113.57974935416665,114.50207902083332,51.0,87.0
417,113.28848735416665,114.50450620416666,46.0,77.0
418,112.99722535416666,114.56639937916665,39.0,89.0
419,113.87101135416665,114.68047699583332,58.0,85.0
420,115.32732135416666,115.73266097083332,56.0,79.0
421,115.32732135416666,115.93290359583332,61.0,78.0
422,115.90984535416666,116.07125304583332,56.0,87.0
423,115.61858335416665,116.56033048749998,51.0,82.0
424,116.20110735416665,116.96324292083332,61.0,86.0
425,116.20110735416665,116.97537883749999,56.0,87.0
426,117.07489335416665,117.34309711249999,60.0,77.0
427,115.32732135416666,117.49115529583332,44.0,80.0
428,116.78363135416666,117.52999022916666,51.0,74.0
429,117.36615535416665,117.54698051249999,58.0,71.0
430,117.65741735416665,118.03120358749999,56.0,84.0
431,117.65741735416665,118.28727142916665,60.0,82.0
432,118.23994135416666,118.41227137083331,56.0,74.0
433,117.94867935416664,119.02998952916666,51.0,72.0
434,118.53120335416665,119.06639727916665,63.0,80.0
435,118.53120335416665,119.06882446249999,56.0,80.0
436,118.53120335416665,119.07853319583333,60.0,78.0
437,117.65741735416665,119.08945552083333,44.0,86.0
438,120.27877535416665,121.01785267916665,48.0,74.0
439,119.98751335416665,121.17197882083332,41.0,89.0
440,120.57003735416666,121.54091068749999,53.0,86.0
441,120.86129935416665,121.82489113749999,60.0,86.0
442,121.44382335416665,122.07125024583331,48.0,72.0
443,121.73508535416664,122.21566765416665,53.0,87.0
444,122.02634735416666,122.45959957916665,56.0,86.0
445,122.90013335416666,123.58702623749998,51.0,89.0
446,122.60887135416665,123.88799697083331,46.0,74.0
447,122.31760935416665,124.11736579583332,39.0,87.0
448,123.77391935416665,124.14891917916665,58.0,86.0
449,124.06518135416665,124.34430743749999,51.0,89.0
450,123.19139535416664,124.41833652916665,63.0,86.0
451,124.35644335416666,124.47658892916665,58.0,80.0
452,124.64770535416665,124.87464699583332,56.0,83.0
453,124.64770535416665,125.00207412083333,61.0,84.0
454,124.93896735416665,125.28484097916666,56.0,81.0
455,125.23022935416665,125.35644288749998,61.0,79.0
456,125.52149135416664,125.64770488749998,56.0,85.0
457,125.52149135416664,125.64891847916665,65.0,87.0
458,124.64770535416665,126.23144247916665,49.0,85.0
459,126.10401535416665,126.34430650416665,56.0,85.0
460,126.10401535416665,126.45352975416665,61.0,86.0
461,126.97780135416664,127.59551951249998,63.0,85.0
462,127.56032535416665,127.68289811249998,60.0,86.0
463,127.26906335416666,127.96809215416665,55.0,75.0
464,127.85158735416665,128.27998521249998,60.0,89.0
465,127.85158735416665,128.4183346625,67.0,85.0
466,128.14284935416666,128.46323755416665,55.0,66.0
467,128.43411135416665,128.59066467916665,60.0,84.0
468,126.97780135416664,128.6537714458333,48.0,85.0
469,128.43411135416665,128.76299469583333,63.0,85.0
470,128.72537335416666,129.14042170416664,60.0,82.0
471,129.01663535416665,129.35765461249997,63.0,79.0
472,129.30789735416664,129.9074116375,65.0,83.0
473,129.89042135416665,130.04697467916665,60.0,81.0
474,130.18168335416664,130.48750845416666,60.0,86.0
475,130.18168335416664,130.63071227083333,68.0,85.0
476,129.59915935416666,130.90983835416665,48.0,73.0
477,130.76420735416664,130.94988687916666,60.0,85.0
478,130.76420735416664,131.1052266125,65.0,87.0
479,129.30789735416664,131.1197897125,41.0,86.0
480,131.05546935416666,131.3952750208333,60.0,87.0
481,131.34673135416665,131.62585743749997,65.0,81.0
482,131.63799335416667,132.01299317916664,63.0,85.0
483,131.92925535416666,132.30425517916666,58.0,80.0
484,132.22051735416665,132.3321677875,63.0,74.0
485,132.51177935416666,132.75813846249997,58.0,85.0
486,132.51177935416666,132.92925488749998,67.0,85.0
487,133.09430335416664,133.24600231249997,58.0,86.0
488,133.09430335416664,133.42561387916666,63.0,87.0
489,131.63799335416667,133.6938176375,51.0,85.0
490,133.38556535416666,133.94503111249998,58.0,85.0
491,133.67682735416665,134.04211844583332,63.0,83.0
492,134.55061335416664,134.93410832083333,62.0,99.0
493,134.84187535416666,135.26299166249999,65.0,85.0
494,134.25935135416665,135.5639623958333,56.0,75.0
495,133.96808935416664,135.56517598749997,50.0,86.0
496,135.42439935416667,135.65012740416665,62.0,85.0
497,135.42439935416667,135.89770010416666,65.0,88.0
498,135.42439935416667,136.00692335416664,68.0,81.0
499,136.29818535416666,136.6610492625,61.0,82.0
500,136.29818535416666,136.86007829583332,65.0,86.0
501,136.88070935416664,137.0493985958333,61.0,86.0
502,137.17197135416666,137.35522369583333,61.0,86.0
503,137.17197135416666,137.40255377083332,68.0,83.0
504,136.58944735416665,138.07488355416666,44.0,73.0
505,136.29818535416666,138.10765052916665,37.0,81.0
506,137.75449535416664,138.56032022083332,61.0,84.0
507,137.75449535416664,138.5785240958333,73.0,85.0
508,138.62828135416666,139.0081355458333,56.0,75.0
509,138.62828135416666,139.2520674708333,60.0,77.0
510,138.91954335416665,139.63313525416666,51.0,72.0
511,139.21080535416667,139.82730992083333,56.0,84.0
512,139.50206735416666,140.3479407458333,63.0,85.0
513,140.08459135416666,140.4498824458333,56.0,79.0
514,139.79332935416664,140.6367755625,51.0,79.0
515,138.62828135416666,140.65376584583333,44.0,82.0
516,140.37585335416665,140.85764924583333,60.0,87.0
517,140.66711535416664,141.27148400416667,56.0,85.0
518,141.54090135416664,141.93289146249998,53.0,84.0
519,141.24963935416665,141.94745456249998,48.0,71.0
520,141.83216335416665,142.47536693749998,56.0,86.0
521,141.83216335416665,142.52026982916664,60.0,84.0
522,140.95837735416666,142.75327942916664,41.0,86.0
523,142.41468735416663,142.75570661249998,53.0,79.0
524,142.12342535416667,142.77148330416665,48.0,67.0
525,142.70594935416665,143.31395877916665,56.0,82.0
526,143.57973535416664,144.29939521249997,51.0,72.0
527,143.87099735416666,144.8782784375,56.0,79.0
528,144.16225935416665,145.0700259208333,63.0,81.0
529,143.28847335416665,145.29575397083332,44.0,85.0
530,144.74478335416666,145.32366657916666,51.0,71.0
531,145.03604535416665,145.6125013958333,60.0,84.0
532,145.32730735416663,145.6270644958333,56.0,83.0
533,145.61856935416665,146.11371475416666,63.0,80.0
534,146.20109335416663,146.59672423749998,60.0,84.0
535,145.90983135416667,147.0663842125,55.0,68.0
536,146.49235535416665,147.14526767083333,67.0,72.0
537,147.36614135416664,147.4911412958333,55.0,69.0
538,145.61856935416665,147.5858014458333,48.0,78.0
539,147.07487935416665,147.6416266625,63.0,86.0
540,147.65740335416666,147.75206350416664,60.0,79.0
541,147.94866535416665,148.31638362916664,61.0,80.0
542,148.53118935416666,148.65618929583331,61.0,75.0
543,148.23992735416664,148.66953880416665,56.0,82.0
544,148.82245135416665,149.20594632083333,56.0,82.0
545,148.82245135416665,149.41225690416667,65.0,85.0
546,149.40497535416665,149.54817917083332,56.0,80.0
547,149.40497535416665,149.73628587916664,61.0,81.0
548,147.94866535416665,149.77269362916667,49.0,85.0
549,149.69623735416667,149.8479363125,56.0,82.0
550,150.27876135416665,150.6513339958333,60.0,79.0
551,150.27876135416665,150.89405232916664,63.0,82.0
552,150.57002335416666,150.93652803749998,55.0,70.0
553,150.27876135416665,151.10521727916665,48.0,86.0
554,150.86128535416665,151.49963457083334,60.0,79.0
555,151.44380935416666,151.80788685416667,65.0,85.0
556,151.73507135416665,152.05060518749997,60.0,85.0
557,151.44380935416666,152.19987696249999,53.0,84.0
558,152.02633335416664,152.40376036249998,68.0,81.0
559,152.31759535416666,152.4425952958333,60.0,82.0
560,152.60885735416664,152.9814299958333,58.0,71.0
561,152.60885735416664,153.23749783749997,61.0,74.0
562,152.60885735416664,153.61977921249996,46.0,84.0
563,152.90011935416663,153.65011900416664,53.0,78.0
564,153.19138135416665,153.78846845416666,58.0,80.0
565,153.77390535416663,154.14526440416665,63.0,80.0
566,154.35642935416666,154.4353128125,63.0,79.0
567,154.06516735416665,154.5760894458333,58.0,73.0
568,154.64769135416665,154.83579806249998,61.0,83.0
569,153.77390535416663,154.8637106708333,51.0,85.0
570,154.93895335416664,155.5384676375,60.0,82.0
571,155.52147735416665,155.66346757916665,56.0,81.0
572,155.23021535416666,156.05060332083332,51.0,77.0
573,155.81273935416664,156.48992350416665,56.0,85.0
574,155.81273935416664,156.73992338749997,60.0,86.0
575,156.39526335416664,157.01176792083334,51.0,75.0
576,154.93895335416664,157.0263310208333,44.0,81.0
577,156.68652535416663,157.22536005416663,56.0,86.0
578,156.97778735416665,157.7047287625,60.0,75.0
579,157.85157335416665,159.02511649583332,53.0,89.0
580,157.26904935416667,159.04574755416667,41.0,90.0
581,157.56031135416663,159.05181551249999,48.0,77.0
582,158.72535935416664,159.10157277083331,56.0,78.0
583,158.14283535416666,159.16103876249997,60.0,85.0
584,159.30788335416665,159.53118422083332,53.0,92.0
585,159.30788335416665,159.57730070416665,60.0,43.0
586,159.01662135416666,159.78361128749998,65.0,86.0
587,159.89040735416665,160.85521272916665,55.0,77.0
588,160.18166935416664,160.99477577083331,60.0,87.0
589,161.05545535416667,161.32851347916665,55.0,72.0
590,160.47293135416663,161.42074644583332,67.0,87.0
591,159.59914535416664,161.5991444208333,48.0,86.0
592,161.34671735416663,161.65496963749996,63.0,86.0
593,161.63797935416665,161.83700838749996,60.0,82.0
594,161.92924135416666,162.28725089583332,58.0,83.0
595,161.92924135416666,162.5639497958333,61.0,81.0
596,162.22050335416665,162.85763897916667,53.0,77.0
597,162.51176535416664,162.89768750416664,58.0,86.0
598,161.92924135416666,163.0408913208333,46.0,82.0
599,162.80302735416666,163.42195910416666,61.0,87.0
600,163.38555135416664,163.68773567916665,58.0,90.0
601,163.67681335416665,164.00084232916663,63.0,86.0
602,163.09428935416665,164.10885198749997,51.0,85.0
603,163.96807535416664,164.2569101708333,61.0,87.0
604,164.25933735416663,164.83579339583332,60.0,83.0
605,164.84186135416667,165.18288061249999,56.0,88.0
606,164.55059935416665,165.48021057083332,51.0,78.0
607,165.13312335416663,166.0809384458333,60.0,80.0
608,165.13312335416663,166.10885105416665,63.0,85.0
609,165.71564735416666,166.13797725416663,51.0,80.0
610,164.25933735416663,166.1901616958333,44.0,83.0
611,166.00690935416665,166.5627343375,56.0,91.0
612,166.29817135416664,167.1476855208333,60.0,86.0
613,167.17195735416664,167.5299668958333,53.0,85.0
614,166.88069535416665,167.83579199583332,48.0,75.0
615,167.46321935416665,168.31637429583333,60.0,86.0
616,167.46321935416665,168.32608302916665,56.0,84.0
617,166.58943335416666,168.37219951249998,41.0,89.0
618,168.04574335416663,168.4073936708333,48.0,74.0
619,168.33700535416665,168.6658886958333,53.0,90.0
620,168.91952935416663,169.31758742083332,60.0,79.0
621,168.91952935416663,169.42316989583333,63.0,85.0
622,169.21079135416664,169.84307261249998,55.0,75.0
623,169.50205335416666,169.88433472916665,60.0,88.0
624,168.91952935416663,170.1877326458333,48.0,81.0
625,169.79331535416665,170.61734409583332,67.0,85.0
626,170.66710135416665,170.84549932916664,55.0,81.0
627,170.37583935416666,170.96685849583332,63.0,83.0
628,170.95836335416664,171.20472246249997,60.0,85.0
629,171.24962535416665,171.59428538749998,61.0,74.0
630,171.54088735416664,171.9219551375,56.0,85.0
631,171.83214935416663,171.98506190416663,61.0,88.0
632,172.12341135416665,172.4959839958333,61.0,92.0
633,172.12341135416665,172.53360533749998,56.0,87.0
634,172.12341135416665,172.74234310416665,65.0,89.0
635,172.70593535416663,173.0166148208333,61.0,87.0
636,172.99719735416664,173.32729428749997,56.0,86.0
637,171.24962535416665,173.50326507916665,49.0,85.0
638,173.28845935416666,173.6100611458333,61.0,80.0
639,173.57972135416665,173.83336201249998,58.0,77.0
640,173.57972135416665,173.89646877916664,63.0,83.0
641,173.87098335416664,174.29574043749997,58.0,74.0
642,174.16224535416666,174.51054616249996,63.0,81.0
643,174.45350735416665,175.13918664583332,67.0,85.0
644,175.03603135416665,175.38190497916665,63.0,86.0
645,173.57972135416665,175.77389508749997,51.0,86.0
646,175.32729335416664,175.82243875416663,58.0,82.0
647,175.61855535416663,175.85763291249998,63.0,76.0
648,175.93044841249997,176.89282660416666,58.0,80.0
649,175.94986587916665,176.93166153749996,63.0,86.0
650,175.98991440416665,176.9717100625,75.0,86.0
651,175.90981735416665,176.98263238749996,39.0,85.0
652,178.23991335416665,178.61976754583333,56.0,80.0
653,178.23991335416665,178.8891848958333,63.0,80.0
654,178.53117535416663,179.3224371208333,51.0,75.0
655,178.82243735416665,179.48384481249997,56.0,85.0
656,179.11369935416664,179.8042330125,60.0,89.0
657,179.98748535416667,180.08335909583332,56.0,80.0
658,178.23991335416665,180.29331045416666,44.0,86.0
659,179.69622335416665,180.40010652083333,51.0,83.0
660,179.98748535416667,180.41224243749997,63.0,86.0
661,180.27874735416663,180.4365142708333,56.0,80.0
662,179.98748535416667,180.47656279583333,60.0,89.0
663,180.57000935416664,181.08335862916664,63.0,83.0
664,181.15253335416665,181.32000900416665,58.0,82.0
665,181.44379535416664,181.87340680416665,58.0,85.0
666,181.44379535416664,181.88311553749998,67.0,85.0
667,182.02631935416665,182.3588434708333,63.0,87.0
668,180.57000935416664,182.43165897083333,43.0,86.0
669,180.86127135416666,182.47413467916664,51.0,75.0
670,182.31758135416663,182.5481637708333,58.0,85.0
671,182.90010535416664,183.2556877125,60.0,85.0
672,182.90010535416664,183.45228956249997,63.0,84.0
673,183.48262935416665,183.59913415416665,60.0,79.0
674,183.19136735416663,183.92801749583333,55.0,72.0
675,183.77389135416666,184.18529892916666,60.0,87.0
676,183.77389135416666,184.2447649208333,67.0,80.0
677,184.06515335416663,184.60641523749996,55.0,78.0
678,184.35641535416664,184.6670948208333,60.0,85.0
679,182.90010535416664,184.7908811708333,48.0,86.0
680,184.35641535416664,184.97777428749998,63.0,86.0
681,184.93893935416665,185.35277411249996,60.0,87.0
682,185.23020135416664,185.81515253749998,65.0,85.0
683,185.81272535416664,185.96442431249997,60.0,81.0
684,186.10398735416663,186.53966676249996,60.0,85.0
685,186.10398735416663,186.69743367916664,68.0,83.0
686,185.52146335416666,186.79088023749998,48.0,76.0
687,185.23020135416664,187.25811302916665,41.0,87.0
688,186.97777335416663,187.28238486249998,48.0,73.0
689,186.68651135416664,187.31515183749997,65.0,86.0
690,187.26903535416665,187.56272453749997,63.0,86.0
691,187.56029735416666,187.9158797125,61.0,78.0
692,187.56029735416666,188.1743747375,65.0,86.0
693,188.14282135416664,188.2714620708333,61.0,80.0
694,188.43408335416666,188.8102967708333,61.0,86.0
695,188.43408335416666,188.87097635416666,68.0,84.0
696,187.85155935416662,189.17801504583332,56.0,69.0
697,189.01660735416664,189.59791776249997,61.0,85.0
698,187.56029735416666,189.72291770416666,49.0,86.0
699,189.01660735416664,189.78117010416665,65.0,86.0
700,189.59913135416664,189.8661215208333,56.0,79.0
701,189.89039335416663,190.3115096625,60.0,85.0
702,189.89039335416663,190.53845130416664,63.0,80.0
703,190.18165535416665,190.55422799583332,55.0,75.0
704,189.89039335416663,190.91587831249996,48.0,86.0
705,190.47291735416664,190.98990740416664,60.0,90.0
706,191.05544135416665,191.56150907916663,68.0,81.0
707,191.34670335416666,191.69257697916663,60.0,86.0
708,191.05544135416665,191.75325656249998,53.0,85.0
709,191.63796535416662,191.9098098875,65.0,88.0
710,191.92922735416664,192.0760719458333,60.0,86.0
711,192.22048935416666,192.62946974583332,58.0,74.0
712,192.22048935416666,192.8697608958333,61.0,79.0
713,192.80301335416664,192.96442104583332,58.0,81.0
714,193.09427535416665,193.43529461249997,58.0,85.0
715,193.09427535416665,193.44621693749997,65.0,85.0
716,192.51175135416665,193.7763138708333,53.0,80.0
717,192.22048935416666,193.83942063749998,46.0,83.0
718,193.67679935416663,194.07364382916666,58.0,82.0
719,193.67679935416663,194.33942040416665,61.0,85.0
720,194.25932335416664,194.48019703749998,58.0,80.0
721,194.55058535416663,195.05422589583333,63.0,84.0
722,195.13310935416666,195.26417725416664,58.0,86.0
723,195.42437135416662,195.73262363749996,67.0,84.0
724,195.42437135416662,195.80058477083332,58.0,85.0
725,194.84184735416665,196.1136914208333,46.0,72.0
726,194.55058535416663,196.14039043749997,39.0,89.0
727,196.00689535416666,196.17073022916662,58.0,85.0
728,196.00689535416666,196.33699228749998,63.0,87.0
729,196.29815735416665,196.5833513958333,58.0,81.0
730,196.58941935416664,196.86975902916663,63.0,76.0
731,196.88068135416665,197.24233167083332,56.0,79.0
732,196.88068135416665,197.5238849375,60.0,78.0
733,197.46320535416663,197.5954868458333,56.0,79.0
734,197.75446735416665,198.08577787916664,63.0,81.0
735,197.75446735416665,198.1306807708333,56.0,87.0
736,198.33699135416663,198.59427278749996,56.0,85.0
737,198.33699135416663,198.96441824583331,60.0,85.0
738,196.88068135416665,198.96684542916665,44.0,85.0
739,198.91951535416666,199.0712143125,56.0,84.0
740,197.17194335416664,199.2702433458333,51.0,71.0
741,199.21077735416662,199.7471848708333,63.0,86.0
742,199.79330135416666,200.0020391208333,58.0,86.0
743,200.08456335416665,200.49839811249996,58.0,82.0
744,200.08456335416665,200.5736407958333,67.0,79.0
745,200.66708735416665,201.0214561208333,63.0,86.0
746,199.21077735416662,201.0979123958333,43.0,77.0
747,199.50203935416664,201.11490267916665,51.0,78.0
748,200.95834935416664,201.1197570458333,58.0,86.0
749,201.54087335416665,201.87218387916664,60.0,83.0
750,201.54087335416665,202.16587306249997,67.0,77.0
751,202.12339735416663,202.2957273708333,60.0,85.0
752,201.83213535416664,202.65252332083332,55.0,73.0
753,202.41465935416664,202.8491251708333,60.0,85.0
754,202.41465935416664,202.8576203125,63.0,84.0
755,202.99718335416662,203.36004726249996,60.0,85.0
756,202.99718335416662,203.4098045208333,67.0,82.0
757,203.28844535416664,203.42436762083332,55.0,68.0
758,201.54087335416665,203.51295981249996,48.0,85.0
759,203.57970735416666,203.8940275958333,63.0,85.0
760,203.87096935416665,204.5323768125,65.0,85.0
761,204.45349335416665,204.61854182083331,60.0,85.0
762,204.74475535416664,205.1391726458333,68.0,85.0
763,204.74475535416664,205.37825020416665,60.0,86.0
764,204.16223135416664,205.69742481249997,48.0,69.0
765,203.87096935416665,205.74596847916663,41.0,85.0
766,205.32727935416665,205.89524025416665,67.0,87.0
767,205.90980335416663,206.22169641249997,63.0,79.0
768,206.20106535416664,206.56392926249998,61.0,78.0
769,206.20106535416664,206.85640485416667,65.0,84.0
770,206.78358935416662,206.91344366249996,61.0,79.0
771,207.07485135416664,207.41708420416666,61.0,85.0
772,207.07485135416664,207.60640450416662,68.0,84.0
773,206.49232735416666,207.78116170416666,56.0,76.0
774,207.65737535416662,208.03358877083332,61.0,85.0
775,206.20106535416664,208.10033631249996,49.0,86.0
776,207.94863735416664,208.34548182916666,56.0,73.0
777,207.65737535416662,208.36368570416664,65.0,87.0
778,208.23989935416665,208.4243652875,61.0,78.0
779,208.5311613541666,208.8903844875,60.0,84.0
780,208.5311613541666,209.14281155416666,63.0,83.0
781,208.82242335416663,209.16708338749999,55.0,75.0
782,208.5311613541666,209.33091826249995,48.0,84.0
783,209.11368535416665,209.57849096249998,60.0,86.0
784,209.69620935416663,210.07849072916662,68.0,80.0
785,209.98747135416664,210.31150032916662,60.0,87.0
786,209.69620935416663,210.40980125416667,53.0,84.0
787,210.27873335416666,210.5918400041666,65.0,85.0
788,210.56999535416662,210.73383022916664,60.0,84.0
789,210.86125735416664,211.46198522916666,61.0,79.0
790,211.15251935416666,212.07242183749997,53.0,80.0
791,211.44378135416662,212.26295572916666,58.0,86.0
792,212.3175673541666,212.60276139583328,53.0,84.0
793,210.86125735416664,212.64402351249998,46.0,85.0
794,211.73504335416663,212.6828584458333,65.0,86.0
795,212.60882935416663,212.9959650958333,58.0,86.0
796,212.90009135416665,214.1573723208333,61.0,83.0
797,213.77387735416664,214.6962070208333,51.0,87.0
798,213.48261535416663,214.69863420416664,46.0,77.0
799,213.19135335416667,214.76052737916666,39.0,89.0
800,214.06513935416666,214.8746049958333,58.0,85.0
801,215.52144935416663,215.9267889708333,56.0,79.0
802,215.52144935416663,216.12703159583333,61.0,78.0
803,216.1039733541666,216.2653810458333,56.0,87.0
804,215.81271135416665,216.75445848749996,51.0,82.0
805,216.39523535416663,217.15737092083333,61.0,86.0
806,216.39523535416663,217.16950683749997,56.0,87.0
807,217.26902135416663,217.53722511249998,60.0,77.0
808,215.52144935416663,217.6852832958333,44.0,80.0
809,216.97775935416666,217.72411822916666,51.0,74.0
810,217.56028335416664,217.74110851249998,58.0,71.0
811,217.85154535416666,218.22533158749997,56.0,84.0
812,217.85154535416666,218.48139942916663,60.0,82.0
813,218.43406935416664,218.6063993708333,56.0,74.0
814,218.14280735416662,219.22411752916662,51.0,72.0
815,218.72533135416666,219.26052527916664,63.0,80.0
816,218.72533135416666,219.26295246249998,56.0,80.0
817,218.72533135416666,219.27266119583328,60.0,78.0
818,217.85154535416666,219.2835835208333,44.0,86.0
819,220.18164135416663,220.37096165416665,63.0,80.0
820,220.18164135416663,220.67921393749998,72.0,81.0
821,220.47290335416665,220.83334007916665,63.0,78.0
822,220.76416535416666,220.87581578749996,68.0,74.0
823,221.05542735416662,221.27508744583332,63.0,78.0
824,221.05542735416662,221.52508732916664,72.0,80.0
825,220.18164135416663,221.63552417083332,56.0,79.0
826,221.63795135416666,221.79571827083333,63.0,75.0
827,221.63795135416666,222.00445603749995,68.0,78.0
828,221.92921335416662,222.2593102875,63.0,80.0
829,222.22047535416664,222.5566402458333,72.0,79.0
830,222.51173735416666,223.2010574208333,70.0,74.0
831,223.09426135416663,223.26659137083328,63.0,61.0
832,223.38552335416665,223.76659113749997,67.0,86.0
833,223.96804735416663,224.09426088749996,63.0,72.0
834,222.80299935416662,224.39887239583328,58.0,68.0
835,222.51173735416666,224.44013451249998,51.0,81.0
836,224.25930935416665,224.48018303749996,63.0,85.0
837,224.25930935416665,224.80542560416666,67.0,87.0
838,224.84183335416662,225.44256122916664,63.0,81.0
839,225.42435735416666,225.65858054583333,60.0,83.0
840,225.71561935416662,226.22290067083333,67.0,85.0
841,225.13309535416664,226.3940170958333,55.0,67.0
842,226.29814335416665,226.64158979583328,63.0,84.0
843,226.58940535416662,226.8236285458333,60.0,84.0
844,224.84183335416662,227.10032744583333,48.0,78.0
845,226.88066735416663,227.21076428749996,70.0,86.0
846,227.17192935416665,227.7775115958333,68.0,81.0
847,227.75445335416663,227.93527851249996,60.0,80.0
848,228.04571535416665,228.33333657916666,60.0,85.0
849,228.04571535416665,228.62095780416666,68.0,77.0
850,228.62823935416662,228.98867607916662,65.0,80.0
851,227.17192935416665,229.05056925416665,53.0,77.0
852,228.91950135416664,229.2010546208333,60.0,80.0
853,229.21076335416666,229.52629718749995,63.0,81.0
854,229.50202535416662,229.8709572208333,61.0,79.0
855,229.50202535416662,230.1294522458333,65.0,87.0
856,230.08454935416665,230.22047162083328,61.0,70.0
857,230.37581135416661,230.68891800416662,61.0,81.0
858,230.37581135416661,230.9195004208333,68.0,82.0
859,230.95833535416665,231.29450024583332,61.0,79.0
860,230.95833535416665,231.3127041208333,65.0,80.0
861,229.79328735416664,231.40008272083332,56.0,73.0
862,229.50202535416662,231.43527687916662,49.0,85.0
863,231.54085935416663,231.7920728291666,65.0,85.0
864,231.83212135416665,232.40979098749995,63.0,78.0
865,232.12338335416666,232.5942569208333,55.0,71.0
866,231.83212135416665,232.70954812916665,48.0,84.0
867,232.41464535416662,232.99231498749998,60.0,86.0
868,232.99716935416666,233.6245962458333,68.0,79.0
869,233.28843135416662,233.63430497916664,60.0,85.0
870,232.99716935416666,233.6792078708333,53.0,81.0
871,233.57969335416664,233.85881943749996,65.0,83.0
872,233.87095535416665,234.01294557916663,60.0,86.0
873,234.16221735416661,234.5432851375,58.0,68.0
874,234.16221735416661,234.8151296708333,61.0,73.0
875,234.74474135416665,235.11610040416662,58.0,81.0
876,235.0360033541666,235.65250792083333,65.0,86.0
877,235.61852735416664,235.90614857916665,61.0,86.0
878,234.45347935416663,235.92313886249997,53.0,70.0
879,234.16221735416661,236.0056630958333,46.0,75.0
880,235.90978935416666,236.30663382916663,58.0,83.0
881,236.20105135416662,236.5190123708333,61.0,87.0
882,236.49231335416664,236.84182775416662,63.0,81.0
883,237.07483735416662,237.19498292916666,63.0,85.0
884,237.36609935416664,237.83575932916665,63.0,88.0
885,237.36609935416664,237.8636719375,67.0,92.0
886,237.9486233541666,238.08575921249997,68.0,89.0
887,238.23988535416663,238.53114735416665,70.0,89.0
888,238.53114735416665,238.7204676541666,68.0,86.0
889,236.78357535416666,238.82483653749995,46.0,73.0
890,236.49231335416664,238.83575886249997,39.0,89.0
891,238.8224093541666,239.18405967083328,56.0,79.0
892,238.8224093541666,239.4656129375,60.0,78.0
893,239.40493335416664,239.53721484583332,56.0,79.0
894,239.69619535416666,240.02750587916665,63.0,81.0
895,239.69619535416666,240.0724087708333,56.0,87.0
896,240.27871935416664,240.53600078749997,56.0,85.0
897,240.27871935416664,240.90614624583333,60.0,85.0
898,238.8224093541666,240.90857342916667,44.0,85.0
899,240.86124335416662,241.01294231249994,56.0,84.0
900,239.11367135416663,241.21197134583332,51.0,71.0
901,241.15250535416664,241.6889128708333,63.0,86.0
902,241.7350293541666,241.9437671208333,58.0,86.0
903,242.02629135416663,242.44012611249997,58.0,82.0
904,242.02629135416663,242.5153687958333,67.0,79.0
905,242.6088153541666,242.96318412083332,63.0,86.0
906,241.15250535416664,243.03964039583332,43.0,77.0
907,241.44376735416665,243.05663067916663,51.0,78.0
908,242.90007735416663,243.0614850458333,58.0,86.0
909,243.48260135416666,243.81391187916665,60.0,83.0
910,243.48260135416666,244.10760106249995,67.0,77.0
911,244.06512535416664,244.2374553708333,60.0,85.0
912,243.77386335416662,244.59425132083328,55.0,73.0
913,244.35638735416666,244.79085317083332,60.0,85.0
914,244.35638735416666,244.79934831249994,63.0,84.0
915,244.93891135416663,245.30177526249997,60.0,85.0
916,244.93891135416663,245.3515325208333,67.0,82.0
917,245.23017335416665,245.36609562083328,55.0,68.0
918,243.48260135416666,245.45468781249997,48.0,85.0
919,245.5214353541666,245.8357555958333,63.0,85.0
920,245.81269735416663,246.47410481249995,65.0,85.0
921,246.3952213541666,246.5602698208333,60.0,85.0
922,246.68648335416663,247.0809006458333,68.0,85.0
923,246.68648335416663,247.31997820416666,60.0,86.0
924,246.10395935416665,247.63915281249996,48.0,69.0
925,245.81269735416663,247.68769647916662,41.0,85.0
926,247.26900735416666,247.83696825416666,67.0,87.0
927,247.85153135416664,248.16342441249998,63.0,79.0
928,248.14279335416666,248.5056572625,61.0,78.0
929,248.14279335416666,248.79813285416662,65.0,84.0
930,248.72531735416663,248.85517166249997,61.0,79.0
931,249.01657935416665,249.3588122041666,61.0,85.0
932,249.01657935416665,249.54813250416663,68.0,84.0
933,248.43405535416662,249.72288970416662,56.0,76.0
934,249.59910335416663,249.97531677083333,61.0,85.0
935,248.14279335416666,250.04206431249997,49.0,86.0
936,249.89036535416665,250.2872098291666,56.0,73.0
937,249.59910335416663,250.30541370416665,65.0,87.0
938,250.1816273541666,250.36609328749995,61.0,78.0
939,250.47288935416663,250.83211248749996,60.0,84.0
940,250.47288935416663,251.0845395541666,63.0,83.0
941,250.76415135416664,251.10881138749994,55.0,75.0
942,250.47288935416663,251.27264626249996,48.0,84.0
943,251.05541335416666,251.5202189625,60.0,86.0
944,251.63793735416664,252.02021872916663,68.0,80.0
945,251.92919935416666,252.25322832916663,60.0,87.0
946,251.63793735416664,252.35152925416662,53.0,84.0
947,252.22046135416662,252.53356800416663,65.0,85.0
948,252.51172335416663,252.67555822916665,60.0,84.0
949,252.80298535416665,253.4037132291666,61.0,79.0
950,253.0942473541666,254.01414983749999,53.0,80.0
951,253.38550935416663,254.20468372916662,58.0,86.0
952,254.25929535416662,254.5444893958333,53.0,84.0
953,252.80298535416665,254.5857515125,46.0,85.0
954,253.67677135416665,254.6245864458333,65.0,86.0
955,254.55055735416664,254.9376930958333,58.0,86.0
956,254.84181935416666,256.0991003208333,61.0,83.0
957,255.71560535416666,256.6379350208333,51.0,87.0
958,255.42434335416664,256.64036220416665,46.0,77.0
959,255.13308135416662,256.7022553791666,39.0,89.0
960,256.0068673541666,256.8163329958333,58.0,85.0
961,257.46317735416665,257.8685169708333,56.0,79.0
962,257.46317735416665,258.0687595958333,61.0,78.0
963,258.0457013541666,258.2071090458333,56.0,87.0
964,257.7544393541666,258.6961864875,51.0,82.0
965,258.33696335416664,259.0990989208333,61.0,86.0
966,258.33696335416664,259.1112348375,56.0,87.0
967,259.21074935416664,259.4789531125,60.0,77.0
968,257.46317735416665,259.6270112958333,44.0,80.0
969,258.9194873541666,259.6658462291666,51.0,74.0
970,259.50201135416665,259.6828365125,58.0,71.0
971,259.6634190458333,260.1440013458333,56.0,74.0
972,259.77871025416664,260.4376905291666,60.0,82.0
973,260.0566227458333,261.5966705708333,51.0,78.0
974,259.7362345458333,261.6658452958333,44.0,78.0
975,260.36366143749996,262.1100198458333,56.0,86.0
976,260.7338068958333,262.1755537958333,60.0,78.0
977,260.7180302041666,262.21317513749995,63.0,72.0
978,262.8466699875,263.6561356291666,61.0,75.0
979,262.91948548749997,263.6561356291666,65.0,75.0
980,262.69982539583333,263.6816210541666,58.0,71.0
981,263.9995820708333,264.7762807375,70.0,68.0
982,262.5432720708333,264.7835622875,53.0,74.0
983,262.3418158541666,264.8296787708333,46.0,85.0
984,264.4740964125,264.98016413749997,58.0,52.0
985,266.1439985458333,266.3648722291666,55.0,69.0
986,265.8818627458333,267.63186192916663,46.0,68.0
987,266.06632867916665,267.6622017208333,51.0,72.0
988,265.66827061249995,267.7204541208333,39.0,90.0
989,266.2459402458333,267.7981239875,58.0,65.0
990,266.36001786249994,267.8539492041666,63.0,74.0
991,269.3029776541666,269.6864726208333,65.0,77.0
992,269.36001646249997,269.7811327708333,53.0,86.0
993,269.6609871958333,269.82724925416665,60.0,62.0
994,269.33938540416665,269.8284628458333,68.0,73.0
995,269.9158414458333,270.0687539958333,67.0,74.0
996,269.9061327125,270.26778302916665,51.0,84.0
997,269.9219094041666,270.2726373958333,63.0,77.0
998,270.18283161249997,270.3078315541666,58.0,69.0
999,270.4352586791666,270.72287990416663,61.0,76.0
1000,270.4073460708333,270.8345303375,49.0,83.0
1001,270.7071032125,270.90855942916664,56.0,67.0
1002,270.43404508749995,270.95103513749996,65.0,80.0
1003,270.96923901249994,271.2046757958333,60.0,73.0
1004,270.96681182916666,271.3563747541666,48.0,79.0
1005,270.9740933791666,271.48986983749995,63.0,74.0
1006,271.4874426541666,271.75686000416664,61.0,77.0
1007,271.4850154708333,271.7981221208333,58.0,70.0
1008,271.4704523708333,271.91705410416665,46.0,80.0
1009,271.7714231041666,271.9498210791666,53.0,76.0
1010,272.0554035541666,272.3770053458333,56.0,77.0
1011,272.04812200416666,272.42554901249997,60.0,71.0
1012,272.05054918749994,272.5044324708333,44.0,78.0
1013,272.3879276708333,272.5517625458333,51.0,78.0
1014,272.4935101458333,272.7228789708333,54.0,62.0
1015,272.5699664208333,272.8066167958333,42.0,76.0
1016,272.5602576875,272.93889828749997,58.0,71.0
1017,272.9037041291666,273.06632541249996,54.0,73.0
1018,273.20588845416665,273.4619562958333,52.0,70.0
1019,273.1779758458333,273.63064553749996,40.0,69.0
1020,273.19496612916663,273.66098532916664,56.0,72.0
1021,273.50443200416663,273.69375230416665,47.0,52.0
1022,274.1160822041666,275.23744090416665,49.0,74.0
1023,273.9388978208333,275.32724668749995,42.0,74.0
1024,274.22045108749995,275.60758636249994,54.0,60.0
1025,275.3503049291666,275.60758636249994,54.0,72.0
1026,274.4231208958333,275.9267609708333,58.0,68.0
1027,274.55904316249996,276.08088711249997,61.0,71.0
1028,275.6003048125,276.3296734041666,56.0,77.0
1029,276.4073432708333,277.2969059625,56.0,81.0
1030,277.2884108208333,279.42797292916663,54.0,80.0
1031,280.02141925416663,280.28355505416664,56.0,66.0
1032,280.2313706125,280.4971471875,58.0,75.0
1033,280.4449627458333,280.8151082041666,60.0,65.0
1034,280.75321502916665,281.35637008749995,63.0,57.0
1035,279.79933197916665,282.35151525416666,51.0,61.0
1036,279.53719617916664,282.4255443458333,44.0,77.0
