,start,end,pitch,velocity
0,36.28876649166667,36.657300704166666,63.0,112.0
1,36.80600749166667,36.90730052083333,56.0,97.0
2,37.06462799166667,37.301696783333334,56.0,96.0
3,37.32324849166667,37.60126552916667,59.0,112.0
4,37.58186899166667,37.73488612083334,61.0,93.0
5,37.840489491666666,38.2047133625,63.0,100.0
6,38.357730491666665,39.370660783333335,61.0,112.0
7,40.426694491666666,40.767211483333334,61.0,107.0
8,40.94393549166667,41.04738369166667,54.0,83.0
9,41.20255599166667,41.336176583333334,54.0,67.0
10,41.46117649166667,41.963331295833335,59.0,112.0
11,41.97841749166667,42.43962405,58.0,102.0
12,42.49565849166667,43.519364637500004,56.0,97.0
13,44.04738149166667,44.245657208333334,59.0,127.0
14,44.30600199166667,44.49996736666667,61.0,95.0
15,44.56462249166667,44.86850157916667,63.0,117.0
16,45.08186349166667,45.163759983333335,63.0,112.0
17,45.340483991666666,45.4331563375,63.0,102.0
18,45.599104491666665,45.896518066666665,63.0,122.0
19,46.11634549166667,46.288759158333335,61.0,112.0
20,46.37496599166667,46.5969485875,59.0,97.0
21,46.63358649166667,47.49996516666667,61.0,107.0
22,47.926688991666666,48.0322923625,61.0,102.0
23,48.18530949166667,48.407292087500004,61.0,100.0
24,48.44392999166667,48.6723781,63.0,96.0
25,48.70255049166667,49.13358465833333,66.0,107.0
26,49.21979149166667,49.54737745833334,66.0,112.0
27,49.73703249166667,49.99565299166667,66.0,117.0
28,50.254273491666666,50.48703194166667,63.0,127.0
29,50.512893991666665,50.75642829583334,61.0,81.0
30,50.77151449166667,51.63573799583334,63.0,102.0
31,52.840478491666666,53.20901270416667,63.0,112.0
32,53.35771949166667,53.45901252083333,56.0,97.0
33,53.61633999166667,53.853408783333336,56.0,96.0
34,53.87496049166667,54.15297752916667,59.0,112.0
35,54.13358099166667,54.28659812083333,61.0,93.0
36,54.39220149166667,54.7564253625,63.0,100.0
37,54.90944249166667,55.92237278333334,61.0,112.0
38,56.97840649166667,57.318923483333336,61.0,107.0
39,57.495647491666666,57.59909569166667,54.0,83.0
40,57.754267991666666,57.887888583333336,54.0,67.0
41,58.01288849166667,58.51504329583334,59.0,112.0
42,58.53012949166667,58.99133605,58.0,102.0
43,59.04737049166667,60.0710766375,56.0,97.0
44,60.59909349166667,60.797369208333336,59.0,127.0
45,60.85771399166667,61.05167936666667,61.0,95.0
46,61.11633449166667,61.42021357916667,63.0,117.0
47,61.63357549166667,61.71547198333334,63.0,112.0
48,61.89219599166667,61.984868337500004,63.0,102.0
49,62.15081649166667,62.44823006666667,63.0,122.0
50,62.668057491666666,62.84047115833334,61.0,112.0
51,62.92667799166667,63.148660587500004,59.0,97.0
52,63.18529849166667,64.05167716666666,61.0,107.0
53,64.47840099166667,64.5840043625,61.0,102.0
54,64.73702149166667,64.9590040875,61.0,100.0
55,64.99564199166667,65.2240901,63.0,96.0
56,65.25426249166667,65.68529665833334,66.0,107.0
57,65.77150349166666,66.09908945833334,66.0,112.0
58,66.28874449166666,66.54736499166667,66.0,117.0
59,66.80598549166668,67.29520927083334,70.0,127.0
60,67.32322649166667,68.83400124583333,68.0,107.0
61,69.13356999166668,69.4072766875,63.0,96.0
62,69.39219049166667,69.70253509166668,71.0,127.0
63,69.90943149166667,70.4999483,71.0,127.0
64,70.94391349166666,71.12279267083333,68.0,102.0
65,71.20253399166667,71.340464925,70.0,107.0
66,71.46115449166668,72.39003312083334,71.0,127.0
67,73.01287749166667,73.18744632916668,70.0,127.0
68,73.27149799166666,73.39434272916667,68.0,95.0
69,73.53011849166667,74.20684213333334,70.0,117.0
70,74.56460049166667,74.97192777916666,70.0,127.0
71,75.08184149166667,75.29951374583334,66.0,99.0
72,75.34046199166667,76.47192667916667,68.0,112.0
73,77.15080549166667,77.314598475,63.0,99.0
74,77.40942599166667,77.55813277916667,66.0,112.0
75,77.66804649166667,78.0322703625,68.0,127.0
76,78.18528749166667,78.297356375,68.0,102.0
77,78.44390799166666,78.96114899166668,68.0,127.0
78,79.21976949166667,79.3253728625,66.0,112.0
79,79.47838999166667,79.83399317916667,66.0,112.0
80,79.99563099166667,80.64002707083334,63.0,112.0
81,81.28873349166668,81.43959545,59.0,127.0
82,81.54735399166667,81.67450907083334,61.0,107.0
83,81.80597449166667,82.13356045833333,63.0,122.0
84,82.32321549166667,82.40942232500001,63.0,127.0
85,82.58183599166667,83.1270942125,63.0,127.0
86,83.35769749166667,83.54304218333334,66.0,122.0
87,83.61631799166668,84.46976564166667,63.0,117.0
88,85.68528199166667,85.95898868750001,63.0,96.0
89,85.94390249166668,86.25424709166667,71.0,127.0
90,86.46114349166668,87.05166030000001,71.0,127.0
91,87.49562549166667,87.67450467083334,68.0,102.0
92,87.75424599166666,87.892176925,70.0,107.0
93,88.01286649166667,88.94174512083333,71.0,127.0
94,89.56458949166667,89.73915832916667,70.0,127.0
95,89.82320999166667,89.94605472916668,68.0,95.0
96,90.08183049166666,90.75855413333333,70.0,117.0
97,91.11631249166668,91.52363977916667,70.0,127.0
98,91.63355349166667,91.85122574583333,66.0,99.0
99,91.89217399166667,93.02363867916667,68.0,112.0
100,93.70251749166667,93.866310475,63.0,99.0
101,93.96113799166667,94.10984477916666,66.0,112.0
102,94.21975849166667,94.58398236250001,68.0,127.0
103,94.73699949166667,94.849068375,68.0,102.0
104,94.99561999166667,95.51286099166667,68.0,127.0
105,95.77148149166668,95.8770848625,66.0,112.0
106,96.03010199166667,96.38570517916666,66.0,112.0
107,96.54734299166667,97.19173907083334,63.0,112.0
108,97.84044549166667,97.99992813333334,68.0,102.0
109,98.09906599166668,98.2176003875,70.0,100.0
110,98.35768649166667,99.82966817083334,71.0,127.0
111,100.42665049166668,101.0882879375,70.0,127.0
112,101.46113249166667,101.69389094166667,70.0,127.0
113,101.71975299166667,101.8253563625,68.0,102.0
114,101.97837349166667,102.3102698,66.0,112.0
115,102.49561449166667,104.185268425,68.0,127.0
116,139.73696649166666,140.10550070416667,63.0,112.0
117,140.25420749166668,140.35550052083335,56.0,97.0
118,140.51282799166668,140.74989678333333,56.0,96.0
119,140.77144849166666,141.04946552916667,59.0,112.0
120,141.03006899166667,141.18308612083334,61.0,93.0
121,141.28868949166667,141.65291336250002,63.0,100.0
122,141.8059304916667,142.81886078333335,61.0,112.0
123,143.87489449166668,144.21541148333333,61.0,107.0
124,144.39213549166666,144.49558369166667,54.0,83.0
125,144.65075599166667,144.78437658333334,54.0,67.0
126,144.90937649166668,145.41153129583333,59.0,112.0
127,145.42661749166666,145.88782405,58.0,102.0
128,145.94385849166667,146.9675646375,56.0,97.0
129,147.49558149166668,147.69385720833333,59.0,127.0
130,147.75420199166666,147.94816736666667,61.0,95.0
131,148.01282249166667,148.31670157916668,63.0,117.0
132,148.53006349166668,148.61195998333335,63.0,112.0
133,148.78868399166666,148.8813563375,63.0,102.0
134,149.04730449166667,149.34471806666667,63.0,122.0
135,149.56454549166668,149.73695915833335,61.0,112.0
136,149.82316599166668,150.0451485875,59.0,97.0
137,150.08178649166666,150.94816516666668,61.0,107.0
138,151.37488899166667,151.4804923625,61.0,102.0
139,151.63350949166667,151.8554920875,61.0,100.0
140,151.89212999166668,152.12057810000002,63.0,96.0
141,152.15075049166668,152.58178465833333,66.0,107.0
142,152.66799149166667,152.99557745833334,66.0,112.0
143,153.18523249166668,153.44385299166666,66.0,117.0
144,153.70247349166667,153.93523194166667,63.0,127.0
145,153.96109399166667,154.20462829583334,61.0,81.0
146,154.21971449166668,155.08393799583334,63.0,102.0
147,156.28867849166667,156.65721270416668,63.0,112.0
148,156.80591949166669,156.90721252083333,56.0,97.0
149,157.06453999166666,157.30160878333334,56.0,96.0
150,157.32316049166667,157.60117752916668,59.0,112.0
151,157.58178099166668,157.73479812083335,61.0,93.0
152,157.84040149166668,158.2046253625,63.0,100.0
153,158.35764249166667,159.37057278333333,61.0,112.0
154,160.42660649166666,160.76712348333334,61.0,107.0
155,160.94384749166667,161.04729569166668,54.0,83.0
156,161.20246799166668,161.33608858333335,54.0,67.0
157,161.4610884916667,161.96324329583334,59.0,112.0
158,161.97832949166667,162.43953605000002,58.0,102.0
159,162.49557049166668,163.5192766375,56.0,97.0
160,164.04729349166666,164.24556920833334,59.0,127.0
161,164.30591399166667,164.49987936666668,61.0,95.0
162,164.56453449166668,164.86841357916668,63.0,117.0
163,165.08177549166666,165.16367198333333,63.0,112.0
164,165.34039599166667,165.4330683375,63.0,102.0
165,165.59901649166667,165.89643006666668,63.0,122.0
166,166.1162574916667,166.28867115833333,61.0,112.0
167,166.37487799166666,166.5968605875,59.0,97.0
168,166.63349849166667,167.49987716666666,61.0,107.0
169,167.92660099166667,168.0322043625,61.0,102.0
170,168.18522149166668,168.40720408750002,61.0,100.0
171,168.4438419916667,168.6722901,63.0,96.0
172,168.70246249166667,169.13349665833334,66.0,107.0
173,169.21970349166668,169.54728945833335,66.0,112.0
174,169.73694449166666,169.99556499166667,66.0,117.0
175,170.25418549166668,170.74340927083335,70.0,127.0
176,170.77142649166666,172.28220124583333,68.0,107.0
177,172.58176999166668,172.85547668750002,63.0,96.0
178,172.84039049166668,173.15073509166666,71.0,127.0
179,173.35763149166667,173.9481483,71.0,127.0
180,174.39211349166666,174.57099267083333,68.0,102.0
181,174.65073399166667,174.788664925,70.0,107.0
182,174.90935449166668,175.83823312083334,71.0,127.0
183,176.46107749166669,176.63564632916666,70.0,127.0
184,176.71969799166666,176.84254272916667,68.0,95.0
185,176.97831849166667,177.65504213333335,70.0,117.0
186,178.01280049166667,178.42012777916668,70.0,127.0
187,178.53004149166668,178.74771374583335,66.0,99.0
188,178.7886619916667,179.92012667916669,68.0,112.0
189,180.59900549166667,180.762798475,63.0,99.0
190,180.85762599166668,181.00633277916668,66.0,112.0
191,181.1162464916667,181.4804703625,68.0,127.0
192,181.63348749166667,181.745556375,68.0,102.0
193,181.89210799166668,182.40934899166666,68.0,127.0
194,182.66796949166667,182.7735728625,66.0,112.0
195,182.92658999166667,183.28219317916668,66.0,112.0
196,183.4438309916667,184.08822707083334,63.0,112.0
197,184.73693349166666,184.88779545,59.0,127.0
198,184.99555399166667,185.12270907083334,61.0,107.0
199,185.25417449166667,185.58176045833335,63.0,122.0
200,185.7714154916667,185.857622325,63.0,127.0
201,186.03003599166667,186.5752942125,63.0,127.0
202,186.80589749166668,186.99124218333333,66.0,122.0
203,187.06451799166666,187.91796564166668,63.0,117.0
204,189.13348199166668,189.4071886875,63.0,96.0
205,189.39210249166666,189.70244709166667,71.0,127.0
206,189.90934349166668,190.4998603,71.0,127.0
207,190.94382549166667,191.12270467083334,68.0,102.0
208,191.20244599166668,191.34037692500002,70.0,107.0
209,191.46106649166668,192.38994512083335,71.0,127.0
210,193.01278949166667,193.18735832916667,70.0,127.0
211,193.27140999166667,193.39425472916668,68.0,95.0
212,193.53003049166668,194.20675413333333,70.0,117.0
213,194.56451249166668,194.9718397791667,70.0,127.0
214,195.08175349166666,195.29942574583333,66.0,99.0
215,195.34037399166667,196.47183867916667,68.0,112.0
216,197.15071749166668,197.31451047500002,63.0,99.0
217,197.40933799166666,197.55804477916666,66.0,112.0
218,197.66795849166667,198.0321823625,68.0,127.0
219,198.18519949166668,198.29726837500002,68.0,102.0
220,198.4438199916667,198.96106099166667,68.0,127.0
221,199.21968149166668,199.3252848625,66.0,112.0
222,199.47830199166668,199.83390517916666,66.0,112.0
223,199.99554299166667,200.63993907083335,63.0,112.0
224,201.28864549166667,201.44812813333334,68.0,102.0
225,201.54726599166668,201.6658003875,70.0,100.0
226,201.80588649166668,203.27786817083333,71.0,127.0
227,203.87485049166668,204.5364879375,70.0,127.0
228,204.90933249166667,205.14209094166668,70.0,127.0
229,205.16795299166668,205.27355636250002,68.0,102.0
230,205.4265734916667,205.7584698,66.0,112.0
231,205.94381449166667,207.63346842500002,68.0,127.0
232,226.37483399166666,226.6485406875,63.0,96.0
233,226.63345449166667,226.94379909166668,71.0,127.0
234,227.15069549166668,227.7412123,71.0,127.0
235,228.18517749166668,228.36405667083335,68.0,102.0
236,228.44379799166668,228.58172892500002,70.0,107.0
237,228.70241849166666,229.63129712083335,71.0,127.0
238,230.25414149166667,230.42871032916668,70.0,127.0
239,230.51276199166668,230.63560672916668,68.0,95.0
240,230.77138249166669,231.44810613333334,70.0,117.0
241,231.80586449166668,232.21319177916666,70.0,127.0
242,232.32310549166667,232.54077774583334,66.0,99.0
243,232.58172599166667,233.71319067916667,68.0,112.0
244,234.3920694916667,234.555862475,63.0,99.0
245,234.65068999166667,234.79939677916667,66.0,112.0
246,234.90931049166667,235.27353436250002,68.0,127.0
247,235.4265514916667,235.53862037500002,68.0,102.0
248,235.68517199166666,236.20241299166668,68.0,127.0
249,236.46103349166668,236.56663686250002,66.0,112.0
250,236.7196539916667,237.07525717916667,66.0,112.0
251,237.23689499166667,237.88129107083336,63.0,112.0
252,238.52999749166668,238.68085945,59.0,127.0
253,238.78861799166668,238.91577307083335,61.0,107.0
254,239.0472384916667,239.37482445833334,63.0,122.0
255,239.56447949166667,239.650686325,63.0,127.0
256,239.82309999166668,240.3683582125,63.0,127.0
257,240.59896149166667,240.78430618333334,66.0,122.0
258,240.85758199166668,241.71102964166667,63.0,117.0
259,242.92654599166667,243.2002526875,63.0,96.0
260,243.18516649166668,243.49551109166669,71.0,127.0
261,243.70240749166666,244.2929243,71.0,127.0
262,244.7368894916667,244.91576867083333,68.0,102.0
263,244.99550999166667,245.133440925,70.0,107.0
264,245.25413049166667,246.18300912083333,71.0,127.0
265,246.80585349166668,246.9804223291667,70.0,127.0
266,247.0644739916667,247.18731872916666,68.0,95.0
267,247.32309449166667,247.99981813333335,70.0,117.0
268,248.35757649166666,248.76490377916667,70.0,127.0
269,248.87481749166668,249.09248974583335,66.0,99.0
270,249.13343799166668,250.26490267916668,68.0,112.0
271,250.94378149166667,251.107574475,63.0,99.0
272,251.20240199166668,251.35110877916668,66.0,112.0
273,251.46102249166668,251.8252463625,68.0,127.0
274,251.97826349166667,252.090332375,68.0,102.0
275,252.23688399166667,252.75412499166669,68.0,127.0
276,253.01274549166666,253.1183488625,66.0,112.0
277,253.27136599166667,253.62696917916668,66.0,112.0
278,253.78860699166668,254.43300307083334,63.0,112.0
279,255.0817094916667,255.24119213333336,68.0,102.0
280,255.34032999166666,255.4588643875,70.0,100.0
281,255.59895049166667,257.0709321708333,71.0,127.0
282,257.6679144916667,258.3295519375,70.0,127.0
283,258.70239649166666,258.93515494166667,70.0,127.0
284,258.96101699166667,259.06662036250003,68.0,102.0
285,259.2196374916667,259.5515338,66.0,112.0
286,259.7368784916667,261.426532425,68.0,127.0
