,start,end,pitch,velocity
0,16.362295933333336,16.576063750000003,67.0,83.0
1,16.586933300000002,16.759034508333336,70.0,82.0
2,16.853237275,17.06700509166667,70.0,84.0
3,17.17026581666667,17.40396114166667,70.0,91.0
4,17.423888650000002,17.644902833333337,67.0,82.0
5,17.67569989166667,17.98910525,74.0,87.0
6,18.092365975000003,18.28982946666667,74.0,84.0
7,18.391278600000003,19.014466133333336,74.0,88.0
8,19.201060075000004,19.42388585,67.0,82.0
9,19.434755400000004,19.690189825000004,70.0,80.0
10,19.64308844166667,20.26265279166667,67.0,74.0
11,23.356851358333337,23.56699599166667,67.0,79.0
12,23.565184400000003,23.70286536666667,70.0,78.0
13,23.81156086666667,24.092357575000005,70.0,83.0
14,24.210111033333337,24.449241133333338,70.0,83.0
15,24.451052725000004,24.85503766666667,74.0,85.0
16,24.96373316666667,25.173877800000003,74.0,84.0
17,25.266268975000003,25.423877450000003,74.0,87.0
18,25.52351499166667,25.85503626666667,74.0,86.0
19,25.960108583333337,26.210108233333337,70.0,84.0
20,26.26807916666667,27.476410808333338,72.0,77.0
21,29.432929808333338,29.58329191666667,65.0,78.0
22,29.657567175000004,29.80611769166667,65.0,81.0
23,29.893074091666673,30.081479625000004,67.0,83.0
24,30.175682391666673,30.362276333333337,70.0,79.0
25,30.44923273333334,30.617710758333338,70.0,82.0
26,30.70829034166667,30.93836248333334,70.0,83.0
27,31.01807251666667,31.201043275000004,70.0,86.0
28,31.287999675000005,31.452854516666672,70.0,85.0
29,31.541622508333337,31.766259875000006,74.0,91.0
30,31.865897416666673,32.06336090833334,74.0,86.0
31,32.157563675000006,32.36589671666667,74.0,87.0
32,32.43292560833334,32.679302075,79.0,85.0
33,32.78256280000001,32.976403108333336,79.0,83.0
34,33.09053338333334,33.278938916666675,79.0,84.0
35,33.30248960833334,33.71190932500001,77.0,84.0
36,33.74814115833334,33.92024236666667,74.0,86.0
37,34.00176399166667,35.813355658333336,74.0,89.0
38,35.98183368333334,36.24089129166667,74.0,93.0
39,36.29342745,36.5434271,72.0,84.0
40,36.54886187500001,36.795238341666675,70.0,83.0
41,36.80067311666667,37.18110736666667,67.0,82.0
42,37.233643525000005,37.42748383333334,72.0,83.0
43,37.51806341666667,38.266250775,72.0,82.0
44,39.81878483333334,40.041610608333336,67.0,80.0
45,40.02711787500001,40.25356683333334,70.0,78.0
46,40.23545091666667,41.51262304166667,67.0,83.0
47,44.18834393333334,44.40211175000001,67.0,83.0
48,44.412981300000006,44.58508250833334,70.0,82.0
49,44.679285275000005,44.89305309166667,70.0,84.0
50,44.99631381666667,45.23000914166667,70.0,91.0
51,45.24993665000001,45.47095083333334,67.0,82.0
52,45.501747891666675,45.81515325000001,74.0,87.0
53,45.91841397500001,46.115877466666674,74.0,84.0
54,46.21732660000001,46.84051413333334,74.0,88.0
55,47.02710807500001,47.249933850000005,67.0,82.0
56,47.26080340000001,47.516237825000005,70.0,80.0
57,47.46913644166668,48.088700791666675,67.0,74.0
58,51.182899358333344,51.39304399166667,67.0,79.0
59,51.39123240000001,51.52891336666667,70.0,78.0
60,51.637608866666675,51.91840557500001,70.0,83.0
61,52.03615903333334,52.27528913333334,70.0,83.0
62,52.27528913333334,52.51441923333334,70.0,83.0
63,52.47094103333334,52.681085666666675,74.0,85.0
64,52.78978116666668,52.99992580000001,74.0,84.0
65,53.09231697500001,53.249925450000006,67.0,87.0
66,53.34956299166667,53.68108426666667,74.0,86.0
67,53.786156583333344,54.036156233333344,70.0,84.0
68,54.094127166666674,55.30245880833334,72.0,77.0
69,57.25897780833334,57.409339916666674,65.0,78.0
70,57.48361517500001,57.63216569166668,65.0,81.0
71,57.71912209166668,57.90752762500001,67.0,83.0
72,58.001730391666676,58.18832433333334,70.0,79.0
73,58.27528073333334,58.443758758333345,70.0,82.0
74,58.534338341666675,58.76441048333334,70.0,83.0
75,58.84412051666668,59.02709127500001,70.0,86.0
76,59.11404767500001,59.278902516666676,70.0,85.0
77,59.36767050833334,59.59230787500001,74.0,91.0
78,59.69194541666668,59.889408908333344,74.0,86.0
79,59.983611675000006,60.191944716666676,74.0,87.0
80,60.25897360833334,60.50535007500001,79.0,85.0
81,60.60861080000001,60.802451108333344,79.0,83.0
82,60.916581383333344,61.104986916666675,79.0,84.0
83,61.128537608333346,61.53795732500001,77.0,84.0
84,61.57418915833334,61.74629036666668,74.0,86.0
85,61.82781199166668,63.63940365833334,74.0,89.0
86,63.80788168333334,64.06693929166667,74.0,93.0
87,64.11947545000001,64.36947510000002,72.0,84.0
88,64.37490987500001,64.62128634166667,70.0,83.0
89,64.62672111666667,65.00715536666668,67.0,82.0
90,65.059691525,65.25353183333334,72.0,83.0
91,65.34411141666668,66.092298775,72.0,82.0
92,67.64483283333334,67.86765860833334,67.0,80.0
93,67.85316587500002,68.07961483333334,70.0,78.0
94,68.06149891666668,69.33867104166667,67.0,83.0
95,70.29700303333334,70.61040839166668,67.0,87.0
96,70.73178503333334,71.03975561666668,70.0,91.0
97,71.16656703333335,71.51258104166668,74.0,89.0
98,71.60134903333335,73.64844761666667,79.0,83.0
99,73.99265003333335,74.15931646666668,67.0,79.0
100,74.21004103333334,74.60134483333334,67.0,82.0
101,74.64482303333334,74.88938790833335,79.0,80.0
102,74.86221403333334,76.90025465833334,77.0,86.0
103,77.65931156666667,77.97815170000001,67.0,88.0
104,78.06148491666669,78.45097712500001,70.0,87.0
105,78.53068715833335,79.6520624,79.0,88.0
106,79.8477143,79.983583675,79.0,86.0
107,80.04698938333334,80.24988765000002,82.0,84.0
108,80.28249630000002,80.74082899166667,81.0,87.0
109,80.72995944166668,80.84952449166668,77.0,83.0
110,80.95459680833335,81.61039299166669,77.0,84.0
111,81.60495821666667,81.97995769166668,72.0,75.0
112,81.99626201666668,84.13031700000002,74.0,88.0
113,84.21002703333335,84.52162080000001,67.0,71.0
114,84.66111335833335,85.00712736666668,70.0,84.0
115,85.06690989166668,85.49263393333335,74.0,86.0
116,85.50350348333335,87.16654463333334,79.0,83.0
117,87.85494946666668,88.02705067500001,67.0,82.0
118,88.11400707500002,88.47994859166668,67.0,83.0
119,88.53610793333334,88.68284685833335,79.0,83.0
120,88.76255689166668,89.42197625833334,79.0,84.0
121,89.40748352500002,90.26980115833335,77.0,83.0
122,90.24262728333335,91.29516204166669,74.0,86.0
123,91.55421965000001,91.78429179166667,74.0,89.0
124,91.87305978333335,92.21001583333334,72.0,83.0
125,92.25168244166669,92.45639230000002,70.0,83.0
126,92.48718935833335,94.33863604166667,72.0,83.0
127,94.58320091666668,94.72812825000001,65.0,80.0
128,94.81146146666669,94.98356267500002,65.0,82.0
129,95.06146111666668,95.45276491666668,70.0,86.0
130,95.47812720000002,95.70819934166668,69.0,82.0
131,95.67740228333335,95.92377875000001,70.0,80.0
132,95.91834397500001,99.28971606666668,67.0,78.0
133,99.84043993333334,100.05420775000002,67.0,83.0
134,100.06507730000001,100.23717850833334,70.0,82.0
135,100.33138127500001,100.54514909166669,70.0,84.0
136,100.64840981666669,100.88210514166668,70.0,91.0
137,100.90203265000001,101.12304683333335,67.0,82.0
138,101.15384389166668,101.46724925000001,74.0,87.0
139,101.57050997500002,101.76797346666669,74.0,84.0
140,101.86942260000002,102.49261013333334,74.0,88.0
141,102.67920407500002,102.90202985000002,67.0,82.0
142,102.91289940000001,103.16833382500002,70.0,80.0
143,103.12123244166668,103.74079679166668,67.0,74.0
144,106.83499535833334,107.04513999166669,67.0,79.0
145,107.04332840000002,107.18100936666669,70.0,78.0
146,107.28970486666668,107.57050157500002,70.0,83.0
147,107.68825503333335,107.92738513333335,70.0,83.0
148,107.92738513333335,108.16651523333336,70.0,83.0
149,108.12303703333335,108.33318166666669,74.0,85.0
150,108.44187716666669,108.65202180000001,74.0,84.0
151,108.74441297500002,108.90202145000002,74.0,87.0
152,109.00165899166669,109.33318026666669,77.0,86.0
153,109.43825258333335,109.68825223333334,70.0,84.0
154,109.74622316666668,110.95455480833336,72.0,77.0
155,112.91107380833336,113.06143591666668,65.0,78.0
156,113.13571117500001,113.28426169166669,65.0,81.0
157,113.37121809166669,113.55962362500001,67.0,83.0
158,113.65382639166668,113.84042033333336,70.0,79.0
159,113.92737673333335,114.09585475833335,70.0,82.0
160,114.18643434166668,114.41650648333335,70.0,83.0
161,114.49621651666668,114.67918727500002,70.0,86.0
162,114.76614367500002,114.93099851666669,70.0,85.0
163,115.01976650833335,115.24440387500002,74.0,91.0
164,115.34404141666668,115.54150490833335,74.0,86.0
165,115.63570767500002,115.84404071666668,74.0,87.0
166,115.91106960833335,116.15744607500002,79.0,85.0
167,116.26070680000002,116.45454710833336,79.0,83.0
168,116.56867738333335,116.75708291666669,79.0,84.0
169,116.78063360833335,117.19005332500002,77.0,84.0
170,117.22628515833335,117.39838636666668,74.0,86.0
171,117.47990799166668,119.29149965833335,74.0,89.0
172,119.45997768333335,119.71903529166669,74.0,93.0
173,119.77157145000002,120.02157110000002,72.0,84.0
174,120.02700587500001,120.27338234166669,70.0,83.0
175,120.27881711666669,120.65925136666668,67.0,82.0
176,120.71178752500002,120.90562783333336,72.0,83.0
177,120.99620741666669,121.74439477500002,72.0,82.0
178,123.29692883333335,123.51975460833336,67.0,80.0
179,123.50526187500002,123.73171083333335,70.0,78.0
180,123.71359491666668,124.99076704166669,67.0,83.0
181,125.94909903333335,126.26250439166668,67.0,87.0
182,126.38388103333335,126.69185161666668,70.0,91.0
183,126.81866303333335,127.16467704166669,74.0,89.0
184,127.25344503333335,129.3005436166667,79.0,83.0
185,129.64474603333335,129.8114124666667,67.0,79.0
186,129.86213703333334,130.25344083333334,67.0,82.0
187,130.29691903333335,130.54148390833336,79.0,80.0
188,130.51431003333335,132.55235065833335,77.0,86.0
189,133.31140756666667,133.6302477,67.0,88.0
190,133.7135809166667,134.103073125,70.0,87.0
191,134.18278315833336,135.30415840000003,79.0,88.0
192,135.4998103,135.63567967500003,79.0,86.0
193,135.69908538333334,135.90198365000003,82.0,84.0
194,135.93459230000002,136.3929249916667,81.0,87.0
195,136.3820554416667,136.5016204916667,77.0,83.0
196,136.60669280833335,137.2624889916667,77.0,84.0
197,137.2570542166667,137.6320536916667,72.0,75.0
198,137.6483580166667,139.78241300000002,74.0,88.0
199,139.86212303333335,140.17371680000002,67.0,71.0
200,140.31320935833335,140.65922336666668,70.0,84.0
201,140.71900589166668,141.14472993333337,74.0,86.0
202,141.15559948333336,142.81864063333336,79.0,83.0
203,143.50704546666668,143.67914667500003,67.0,82.0
204,143.76610307500002,144.1320445916667,67.0,83.0
205,144.18820393333337,144.33494285833336,79.0,83.0
206,144.4146528916667,145.07407225833336,79.0,84.0
207,145.05957952500003,145.92189715833337,77.0,83.0
208,145.89472328333335,146.9472580416667,74.0,86.0
209,147.20631565000002,147.4363877916667,74.0,89.0
210,147.52515578333336,147.86211183333336,72.0,83.0
211,147.9037784416667,148.10848830000003,70.0,83.0
212,148.13928535833335,149.9907320416667,72.0,83.0
213,150.2352969166667,150.38022425000003,77.0,80.0
214,150.46355746666669,150.63565867500003,77.0,82.0
215,150.7135571166667,151.1048609166667,82.0,86.0
216,151.13022320000002,151.3602953416667,81.0,82.0
217,151.32949828333335,151.57587475000003,82.0,80.0
218,151.57043997500003,154.9418120666667,79.0,78.0
219,167.68817103333336,168.0015763916667,67.0,87.0
220,168.12295303333335,168.4309236166667,70.0,91.0
221,168.55773503333336,168.90374904166669,74.0,89.0
222,168.99251703333337,171.03961561666668,79.0,83.0
223,171.38381803333337,171.5504844666667,67.0,79.0
224,171.60120903333336,171.99251283333336,67.0,82.0
225,172.03599103333335,172.28055590833335,79.0,80.0
226,172.25338203333337,174.29142265833337,77.0,86.0
227,175.0504795666667,175.36931970000003,67.0,88.0
228,175.4526529166667,175.84214512500003,70.0,87.0
229,175.92185515833336,177.04323040000003,79.0,88.0
230,177.23888230000003,177.37475167500003,79.0,86.0
231,177.43815738333336,177.64105565000003,82.0,84.0
232,177.67366430000004,178.13199699166668,81.0,87.0
233,178.1211274416667,178.2406924916667,77.0,83.0
234,178.34576480833337,179.0015609916667,77.0,84.0
235,178.99612621666668,179.3711256916667,72.0,75.0
236,179.38743001666668,181.52148500000004,74.0,88.0
237,181.60119503333337,181.91278880000002,67.0,71.0
238,182.05228135833337,182.3982953666667,70.0,84.0
239,182.4580778916667,182.88380193333336,74.0,86.0
240,182.89467148333335,184.55771263333335,79.0,83.0
241,185.2461174666667,185.41821867500002,67.0,82.0
242,185.50517507500004,185.8711165916667,67.0,83.0
243,185.92727593333336,186.07401485833336,79.0,83.0
244,186.15372489166668,186.81314425833335,79.0,84.0
245,186.79865152500003,187.66096915833336,77.0,83.0
246,187.63379528333337,188.6863300416667,74.0,86.0
247,188.94538765000004,189.1754597916667,74.0,89.0
248,189.26422778333335,189.60118383333335,72.0,83.0
249,189.6428504416667,189.84756030000003,70.0,83.0
250,189.87835735833337,191.7298040416667,72.0,83.0
251,191.9743689166667,192.11929625000002,77.0,80.0
252,192.2026294666667,192.37473067500002,77.0,82.0
253,192.45262911666669,192.8439329166667,82.0,86.0
254,192.86929520000004,193.0993673416667,81.0,82.0
255,193.06857028333337,193.31494675000002,82.0,80.0
256,193.7515403416667,195.26603097500004,79.0,78.0
257,195.51421903333338,195.8276243916667,67.0,87.0
258,195.94900103333336,196.2569716166667,70.0,91.0
259,196.38378303333337,196.7297970416667,74.0,89.0
260,196.81856503333336,198.8656636166667,79.0,83.0
261,199.20986603333336,199.3765324666667,82.0,79.0
262,199.42725703333338,199.81856083333335,82.0,82.0
263,199.86203903333336,200.10660390833337,77.0,80.0
264,200.07943003333335,200.6591393666667,79.0,86.0
265,200.7189218916667,202.00334038333335,77.0,97.0
266,202.8765275666667,203.19536770000002,67.0,88.0
267,203.2787009166667,203.66819312500004,70.0,87.0
268,203.74790315833337,204.86927840000004,79.0,88.0
269,205.06493030000004,205.20079967500004,79.0,86.0
270,205.26420538333338,205.46710365000004,82.0,84.0
271,205.49971230000003,205.9580449916667,81.0,87.0
272,205.9471754416667,206.0667404916667,77.0,83.0
273,206.17181280833336,206.8276089916667,77.0,84.0
274,206.8167394416667,207.1917389166667,72.0,75.0
275,207.2515214416667,207.46166607500004,74.0,88.0
276,207.4689124416667,207.73340482500004,72.0,97.0
277,207.6863034416667,208.6808672666667,74.0,97.0
278,209.42724303333335,209.73883680000003,67.0,71.0
279,209.87832935833336,210.2243433666667,70.0,84.0
280,210.2841258916667,210.70984993333337,74.0,86.0
281,210.72071948333337,212.38376063333337,79.0,83.0
282,213.0721654666667,213.24426667500003,67.0,82.0
283,213.33122307500003,213.6971645916667,67.0,83.0
284,213.75332393333338,213.90006285833337,79.0,83.0
285,213.9797728916667,214.63919225833337,79.0,84.0
286,214.62469952500004,215.48701715833337,77.0,83.0
287,215.45984328333336,216.5123780416667,74.0,86.0
288,216.77143565000003,217.0015077916667,74.0,89.0
289,217.09027578333337,217.42723183333337,72.0,83.0
290,217.4688984416667,217.67360830000004,70.0,83.0
291,217.70440535833336,219.5558520416667,72.0,83.0
292,219.8221560166667,219.98882245000004,65.0,84.0
293,220.0830252166667,220.3058509916667,65.0,84.0
294,220.40548853333337,220.88918350833336,70.0,82.0
295,220.9417196666667,222.64099265000004,69.0,83.0
296,222.9254125416667,223.86381702500003,70.0,83.0
297,223.85838225000003,226.60837840000005,67.0,79.0
