,start,end,pitch,velocity
0,2.0362290333333335,2.9891262500000004,51.0,71.0
1,2.2536200333333336,3.012676941666667,58.0,61.0
2,2.4710110333333337,3.039850816666667,63.0,82.0
3,2.688402033333334,3.1394883583333337,70.0,74.0
4,3.775357033333334,4.432964808333334,69.0,75.0
5,4.210139033333334,4.811587466666667,48.0,67.0
6,3.775357033333334,4.874993175000001,41.0,71.0
7,4.427530033333334,4.907601825,65.0,74.0
8,4.8623120333333345,5.003616183333334,69.0,75.0
9,5.514485033333334,5.942020666666668,70.0,82.0
10,5.949267033333334,6.273541941666668,62.0,73.0
11,6.166658033333334,6.666657333333334,70.0,73.0
12,6.818831033333335,6.967381550000001,69.0,66.0
13,5.731876033333334,7.088758191666668,50.0,76.0
14,5.514485033333334,7.092381375000001,43.0,79.0
15,7.253613033333335,7.697452991666668,67.0,69.0
16,7.036222033333335,7.731873233333334,70.0,70.0
17,7.688395033333334,8.3478144,62.0,82.0
18,7.471004033333334,8.364118725,50.0,73.0
19,7.253613033333335,8.438393983333334,43.0,72.0
20,7.905786033333334,8.545277891666668,70.0,83.0
21,8.992741033333335,9.436580991666668,70.0,73.0
22,8.992741033333335,9.998174408333336,51.0,82.0
23,9.210132033333334,10.088753991666668,58.0,69.0
24,9.427523033333335,10.097811950000002,63.0,72.0
25,9.644914033333334,10.144913333333335,70.0,71.0
26,10.731869033333336,11.233679925000002,69.0,65.0
27,11.166651033333334,11.463752066666668,60.0,80.0
28,11.384042033333335,11.856867458333335,65.0,83.0
29,10.949260033333335,12.043461400000002,48.0,69.0
30,10.731869033333336,12.095997558333336,41.0,80.0
31,12.036215033333335,12.429330425000002,65.0,74.0
32,11.818824033333335,12.465562258333335,69.0,81.0
33,13.123170033333336,13.55070566666667,55.0,83.0
34,13.557952033333336,14.059762925000003,62.0,76.0
35,12.470997033333335,14.182951158333335,67.0,76.0
36,12.905779033333335,15.715557708333336,50.0,66.0
37,12.470997033333335,15.804325700000003,43.0,82.0
38,13.775343033333336,15.932948708333337,55.0,82.0
39,14.210125033333336,15.943818258333335,67.0,73.0
40,14.210125033333336,15.952876216666668,62.0,73.0
41,17.253599033333337,17.78439539166667,55.0,74.0
42,16.818817033333335,17.83874314166667,62.0,79.0
43,17.688381033333336,18.11048189166667,67.0,78.0
44,16.384035033333337,18.69743759166667,50.0,57.0
45,18.557945033333336,18.775336033333335,55.0,70.0
46,15.949253033333337,18.818814233333335,43.0,79.0
47,18.557945033333336,18.88221994166667,62.0,68.0
48,19.427509033333337,20.324246908333336,58.0,71.0
49,20.297073033333337,20.934753300000004,55.0,74.0
50,20.731855033333336,21.128593608333336,58.0,55.0
51,19.427509033333337,21.25721661666667,39.0,76.0
52,19.862291033333335,21.28982526666667,46.0,48.0
53,21.166637033333338,21.42025986666667,58.0,70.0
54,21.166637033333338,21.43112941666667,63.0,72.0
55,22.036201033333338,22.28438909166667,53.0,75.0
56,22.036201033333338,22.286200683333337,41.0,82.0
57,22.036201033333338,22.32243251666667,57.0,74.0
58,22.90576503333334,23.157576275000004,55.0,75.0
59,22.90576503333334,23.541633708333336,58.0,70.0
60,23.123156033333338,24.32786449166667,50.0,73.0
61,22.90576503333334,24.34054563333334,43.0,82.0
62,23.340547033333337,24.731849433333338,55.0,77.0
63,23.557938033333336,25.123153233333337,62.0,72.0
64,24.644893033333336,25.21373281666667,67.0,71.0
65,25.079675033333338,25.75177554166667,50.0,62.0
66,24.644893033333336,25.84416671666667,43.0,73.0
67,25.514457033333336,25.954673808333336,62.0,77.0
68,25.514457033333336,25.95829699166667,58.0,77.0
69,25.94923903333334,26.11590546666667,55.0,81.0
70,26.384021033333337,27.25901980833334,53.0,74.0
71,26.384021033333337,27.29162845833334,57.0,69.0
72,27.253585033333337,27.556120841666672,60.0,77.0
73,27.470976033333336,28.168438825000003,53.0,76.0
74,27.68836703333334,28.35140958333334,60.0,76.0
75,28.123149033333338,28.786191583333338,65.0,78.0
76,28.557931033333336,28.896698675000003,53.0,64.0
77,26.81880303333334,29.298872025000005,48.0,65.0
78,28.992713033333338,29.298872025000005,57.0,75.0
79,28.992713033333338,29.34959659166667,60.0,78.0
80,26.384021033333337,29.36227773333334,41.0,77.0
81,29.86227703333334,30.724594666666672,55.0,75.0
82,29.86227703333334,30.79524674166667,58.0,71.0
83,30.73184103333334,31.400318358333337,63.0,79.0
84,31.166623033333337,31.690173025000004,55.0,67.0
85,31.60140503333334,31.862274233333338,58.0,68.0
86,32.47096903333334,32.768070066666674,63.0,84.0
87,29.86227703333334,32.82241781666667,39.0,83.0
88,30.297059033333337,32.83147577500001,46.0,62.0
89,32.68836003333334,32.93835968333334,58.0,83.0
90,32.90575103333334,33.03075085833334,55.0,83.0
91,33.34053303333334,33.55067766666667,53.0,73.0
92,33.775315033333335,34.208285441666675,53.0,52.0
93,33.34053303333334,34.503574883333336,58.0,70.0
94,34.21009703333334,34.83328456666667,62.0,80.0
95,34.64487903333334,35.048863975,53.0,66.0
96,33.34053303333334,35.29524044166667,46.0,79.0
97,35.07966103333334,35.31879113333334,58.0,58.0
98,36.16661603333334,36.31154336666667,46.0,75.0
99,35.94922503333334,36.34596360833334,62.0,86.0
100,36.38400703333334,36.652122600000006,53.0,80.0
101,36.60139803333334,36.82603540000001,58.0,80.0
102,36.81878903333334,37.23002034166667,60.0,76.0
103,37.25357103333334,37.73545441666667,55.0,71.0
104,36.81878903333334,37.86588901666667,48.0,80.0
105,37.68835303333334,38.105019116666675,63.0,82.0
106,38.12313503333334,38.23726530833334,55.0,82.0
107,38.55791703333334,39.21733640000001,57.0,73.0
108,38.55791703333334,39.22820595,53.0,74.0
109,38.99269903333334,39.56516200000001,48.0,70.0
110,39.427481033333336,39.57965473333334,53.0,74.0
111,38.55791703333334,39.58508950833334,41.0,80.0
112,39.427481033333336,39.60501701666667,57.0,73.0
113,40.29704503333334,41.17385540000001,62.0,77.0
114,40.29704503333334,41.20646405000001,55.0,72.0
115,40.73182703333334,41.47276802500001,50.0,65.0
116,41.16660903333334,41.63218809166667,58.0,83.0
117,42.03617303333334,42.300665416666675,67.0,79.0
118,42.47095503333334,42.57965053333334,55.0,27.0
119,41.60139103333334,43.18291055833334,50.0,64.0
120,40.29704503333334,43.28617128333334,43.0,82.0
121,42.90573703333334,43.795228541666674,58.0,72.0
122,42.90573703333334,43.860445841666674,62.0,79.0
123,43.34051903333334,43.94559065000001,55.0,82.0
124,44.21008303333334,44.55428545000001,55.0,82.0
125,44.42747403333334,45.16116865833334,62.0,81.0
126,43.77530103333334,45.38580602500001,43.0,84.0
127,43.99269203333334,45.387617616666674,50.0,71.0
128,45.07964703333334,45.57058837500001,67.0,75.0
129,45.51442903333334,46.02710947500001,62.0,75.0
130,45.297038033333344,46.07964563333334,55.0,80.0
131,45.94921103333334,46.56877538333334,50.0,63.0
132,46.38399303333334,46.57239856666667,55.0,81.0
133,45.51442903333334,46.64667382500001,43.0,82.0
134,46.38399303333334,46.885803925000005,58.0,82.0
135,46.81877503333334,47.38218004166667,55.0,82.0
136,47.253557033333344,48.20101947500001,58.0,76.0
137,48.12312103333334,48.51985960833334,63.0,83.0
138,48.34051203333334,48.768047666666675,55.0,74.0
139,47.253557033333344,48.81152586666668,39.0,74.0
140,47.68833903333334,48.90210545000001,46.0,68.0
141,48.99268503333334,49.610437791666676,39.0,82.0
142,48.55790303333334,49.65753917500001,58.0,65.0
143,49.42746703333334,49.66659713333334,46.0,68.0
144,48.77529403333334,49.71188692500001,63.0,70.0
145,49.64485803333334,49.75355353333334,55.0,82.0
146,49.86224903333334,50.32239331666668,53.0,82.0
147,49.86224903333334,50.347755600000006,41.0,82.0
148,49.86224903333334,50.79159555833334,57.0,83.0
149,50.73181303333334,51.12674001666667,58.0,77.0
150,50.73181303333334,51.43833378333334,55.0,82.0
151,51.60137703333334,51.871304191666674,62.0,82.0
152,51.81876803333334,52.115869066666676,58.0,77.0
153,50.73181303333334,52.31876733333334,43.0,83.0
154,51.166595033333344,52.32963688333334,50.0,65.0
155,52.03615903333334,52.57601335000001,55.0,83.0
156,52.47094103333334,52.57601335000001,58.0,28.0
157,52.47094103333334,53.143041541666676,67.0,81.0
158,52.905723033333345,53.40028755833334,50.0,48.0
159,53.34050503333334,53.68108426666667,62.0,82.0
160,52.47094103333334,53.749924750000005,43.0,78.0
161,53.55789603333334,53.762605891666674,50.0,73.0
162,53.34050503333334,53.82601160000001,58.0,82.0
163,53.77528703333334,53.95282301666668,55.0,85.0
164,54.21006903333334,55.04883597500001,53.0,78.0
165,54.21006903333334,55.08687940000001,57.0,70.0
166,55.079633033333344,55.34774860000001,60.0,79.0
167,55.297024033333344,55.60137143333334,53.0,72.0
168,54.64485103333334,55.824197208333345,48.0,53.0
169,54.21006903333334,55.833255166666675,41.0,81.0
170,55.73180603333334,56.025283883333344,53.0,80.0
171,55.51441503333334,56.327819691666676,60.0,76.0
172,55.94919703333334,56.55970342500001,65.0,82.0
173,56.818761033333345,56.96368836666667,57.0,79.0
174,56.38397903333334,56.97636950833334,48.0,66.0
175,55.94919703333334,57.05426795000001,41.0,82.0
176,56.818761033333345,57.24629666666667,60.0,82.0
177,57.253543033333344,57.36223853333334,53.0,82.0
178,57.68832503333334,58.49810650833334,55.0,77.0
179,57.68832503333334,58.57600495000001,58.0,69.0
180,58.55788903333334,58.81875823333334,63.0,87.0
181,57.68832503333334,59.18288815833334,39.0,81.0
182,58.12310703333334,59.24810545833334,46.0,65.0
183,58.775280033333345,59.52709057500001,55.0,75.0
184,59.210062033333344,59.54882967500001,63.0,80.0
185,58.992671033333345,59.79339455000001,58.0,78.0
186,59.42745303333334,60.13940855833334,67.0,80.0
187,59.42745303333334,60.30969817500001,39.0,83.0
188,59.86223503333334,60.327814091666674,46.0,61.0
189,60.29701703333334,60.74991495000001,58.0,82.0
190,60.29701703333334,60.74991495000001,63.0,79.0
191,60.731799033333346,60.94375525833334,55.0,78.0
192,61.60136303333334,62.06150731666668,53.0,73.0
193,61.166581033333344,62.19556510000001,58.0,76.0
194,62.25353603333334,62.60498481666668,53.0,83.0
195,61.166581033333344,62.80607149166668,46.0,73.0
196,62.470927033333346,62.93650609166668,58.0,81.0
197,62.03614503333334,62.954622008333345,65.0,79.0
198,63.34049103333334,63.58867909166668,53.0,71.0
199,62.905709033333345,63.63759206666668,62.0,75.0
200,62.905709033333345,63.90570763333334,46.0,71.0
201,63.77527303333334,63.97817130000001,53.0,83.0
202,63.77527303333334,63.98904085000001,58.0,78.0
203,64.64483703333335,64.92201055833334,55.0,76.0
204,64.64483703333335,65.34411141666668,60.0,78.0
205,65.07961903333334,65.59048788333334,55.0,72.0
206,65.51440103333334,66.01983510833334,63.0,86.0
207,64.64483703333335,66.03976261666668,48.0,81.0
208,65.94918303333334,66.18287835833334,55.0,83.0
209,66.38396503333334,66.82418180833335,53.0,73.0
210,66.38396503333334,67.07055827500001,57.0,75.0
211,67.03613803333334,67.30968837500001,60.0,80.0
212,66.81874703333334,67.65389079166668,48.0,67.0
213,66.38396503333334,67.68468785000002,41.0,82.0
214,67.47092003333334,67.74265878333334,53.0,82.0
215,67.25352903333335,67.80244130833334,65.0,84.0
216,67.68831103333335,67.83504995833334,57.0,76.0
217,68.12309303333335,69.00171499166667,55.0,76.0
218,68.12309303333335,69.04157000833334,58.0,72.0
219,68.99265703333334,69.45098972500001,62.0,83.0
220,68.55787503333335,69.57417795833335,50.0,65.0
221,68.12309303333335,69.64120685000002,43.0,82.0
222,69.42743903333334,69.71548210833335,55.0,71.0
223,69.86222103333334,70.28251030000001,55.0,83.0
224,69.86222103333334,70.34953919166668,58.0,79.0
225,69.86222103333334,70.37490147500002,62.0,83.0
226,70.51439403333335,70.62308953333334,55.0,75.0
227,70.29700303333334,70.84048053333335,50.0,70.0
228,70.73178503333334,70.97272672500002,55.0,88.0
229,70.73178503333334,71.02163970000001,62.0,87.0
230,70.73178503333334,71.03432084166668,67.0,82.0
231,70.73178503333334,71.04337880000001,58.0,89.0
232,69.86222103333334,71.04700198333335,43.0,84.0
233,70.94917603333334,71.09591495833334,50.0,87.0
234,71.16656703333335,71.27526253333335,43.0,84.0
235,71.60134903333335,71.85316027500001,63.0,84.0
236,71.60134903333335,71.85859505,58.0,83.0
237,72.25352203333334,72.66656493333335,51.0,83.0
238,72.47091303333335,72.76801406666668,55.0,78.0
239,71.60134903333335,72.99265143333335,39.0,86.0
240,72.03613103333335,73.10678170833334,46.0,67.0
241,72.68830403333334,73.14482513333334,63.0,83.0
242,72.90569503333334,73.29156405833335,51.0,86.0
243,73.12308603333335,73.58685350000002,55.0,77.0
244,73.34047703333334,73.99989640000001,63.0,77.0
245,73.34047703333334,74.12308463333335,39.0,87.0
246,73.77525903333334,74.13395418333334,51.0,84.0
247,73.99265003333335,74.16475124166668,55.0,76.0
248,74.21004103333334,74.30243220833334,51.0,76.0
249,73.55786803333335,74.36040314166668,46.0,63.0
250,74.21004103333334,74.64663462500002,55.0,82.0
251,74.21004103333334,74.72815625000001,63.0,88.0
252,74.64482303333334,74.73359102500001,51.0,82.0
253,75.07960503333335,75.28431489166668,53.0,80.0
254,75.07960503333335,75.603155025,58.0,76.0
255,75.07960503333335,75.73177803333334,46.0,83.0
256,75.51438703333335,75.98358927500001,53.0,70.0
257,75.94916903333335,76.40931331666668,62.0,83.0
258,75.94916903333335,76.44373355833335,58.0,83.0
259,76.38395103333335,76.71184912500001,53.0,74.0
260,76.81873303333334,76.96003718333334,53.0,78.0
261,76.81873303333334,77.10858770000002,58.0,74.0
262,77.03612403333335,77.29880482500002,53.0,74.0
263,77.25351503333334,77.52887696666667,58.0,71.0
264,76.81873303333334,77.83684755000002,46.0,84.0
265,77.68829703333334,77.88757211666668,53.0,84.0
266,77.90568803333335,78.00532557500001,46.0,82.0
267,77.68829703333334,78.01076035000001,58.0,82.0
268,77.68829703333334,78.20822384166668,62.0,82.0
269,78.12307903333334,78.24807885833334,53.0,85.0
270,78.55786103333334,79.02887486666668,55.0,82.0
271,78.55786103333334,79.03974441666668,58.0,75.0
272,78.55786103333334,79.61764215833334,39.0,83.0
273,78.99264303333335,79.63213489166668,46.0,70.0
274,79.42742503333335,79.70459855833334,63.0,91.0
275,79.64481603333334,80.048800975,55.0,84.0
276,79.86220703333335,80.10858350000001,58.0,89.0
277,80.07959803333334,80.21184422500001,63.0,82.0
278,80.29698903333335,80.52343799166668,53.0,78.0
279,80.29698903333335,80.77887241666667,57.0,81.0
280,80.73177103333335,81.13756756666668,53.0,84.0
281,80.94916203333335,81.22452396666668,60.0,82.0
282,81.16655303333334,81.52162500000001,65.0,86.0
283,80.51438003333334,81.60676980833334,48.0,76.0
284,81.38394403333335,81.66655233333334,60.0,83.0
285,80.29698903333335,81.6737987,41.0,82.0
286,81.60133503333334,81.81691444166668,53.0,82.0
287,82.03611703333334,82.22271097500001,53.0,81.0
288,82.03611703333334,82.54155110833335,58.0,78.0
289,82.47089903333335,82.68466685000001,53.0,62.0
290,82.90568103333335,83.02524608333334,53.0,84.0
291,83.34046303333335,83.43285420833335,53.0,73.0
292,82.03611703333334,83.44553535000001,46.0,83.0
293,82.90568103333335,83.47089763333335,62.0,84.0
294,83.55785403333334,83.70459295833335,58.0,80.0
295,83.77524503333335,83.93104191666669,53.0,80.0
296,83.77524503333335,84.20096907500002,58.0,83.0
297,83.77524503333335,84.28430229166668,62.0,82.0
298,83.77524503333335,84.49263533333334,46.0,91.0
299,84.42741803333335,84.54154830833335,53.0,83.0
300,84.64480903333335,84.92922892500002,53.0,89.0
301,84.64480903333335,85.11219968333334,58.0,88.0
302,84.64480903333335,85.15930106666669,46.0,89.0
303,85.07959103333334,85.27705452500001,57.0,91.0
304,85.51437303333334,85.84227112500001,58.0,80.0
305,85.51437303333334,85.85314067500002,55.0,82.0
306,85.94915503333334,86.45821229166668,46.0,71.0
307,86.38393703333335,86.55060346666669,55.0,89.0
308,85.51437303333334,86.66473374166668,39.0,96.0
309,86.38393703333335,86.9129218,63.0,85.0
310,86.60132803333335,87.10132733333334,46.0,77.0
311,86.81871903333335,87.43828338333334,55.0,79.0
312,87.03611003333334,87.72813805000001,58.0,81.0
313,87.68828303333335,88.00531157500001,55.0,82.0
314,87.90567403333334,88.03248545000001,58.0,93.0
315,87.47089203333334,88.22089098333335,46.0,72.0
316,87.25350103333335,88.34589080833335,39.0,83.0
317,88.12306503333335,88.47089063333334,58.0,89.0
318,88.12306503333335,88.48538336666668,63.0,88.0
319,88.12306503333335,88.51074565000002,55.0,85.0
320,88.34045603333335,88.51255724166668,46.0,72.0
321,88.55784703333335,88.67560049166669,39.0,87.0
322,88.99262903333334,89.42378785000001,53.0,72.0
323,88.99262903333334,89.49262833333334,57.0,76.0
324,89.64480203333335,89.74443957500002,53.0,83.0
325,88.99262903333334,89.93646829166669,38.0,84.0
326,89.42741103333334,89.93646829166669,45.0,66.0
327,89.86219303333334,90.00712036666668,53.0,89.0
328,89.86219303333334,90.03610583333335,57.0,91.0
329,90.29697503333335,91.44008937500001,55.0,78.0
330,90.29697503333335,91.46182847500002,58.0,84.0
331,91.38393003333334,91.54516169166668,62.0,80.0
332,91.16653903333335,91.69552380000002,50.0,85.0
333,91.60132103333335,91.81690044166668,55.0,73.0
334,91.60132103333335,91.86762500833335,58.0,71.0
335,91.60132103333335,91.91110320833334,62.0,74.0
336,91.60132103333335,91.99443642500002,67.0,86.0
337,91.81871203333334,92.07958123333334,50.0,81.0
338,90.29697503333335,92.11762465833334,43.0,84.0
339,92.03610303333335,92.36400112500002,55.0,83.0
340,92.47088503333335,92.71907309166669,55.0,79.0
341,92.47088503333335,92.99624661666668,60.0,83.0
342,92.47088503333335,93.09407256666668,63.0,82.0
343,92.90566703333334,93.09950734166668,55.0,74.0
344,93.34044903333334,93.48537636666669,60.0,84.0
345,92.47088503333335,93.80240490833334,48.0,81.0
346,93.77523103333334,94.17921597500002,58.0,75.0
347,94.21001303333335,94.47631700833335,53.0,73.0
348,94.21001303333335,94.70457755833336,57.0,78.0
349,94.64479503333335,94.90747582500002,60.0,78.0
350,94.42740403333335,95.02160610000001,48.0,78.0
351,95.29696803333334,95.56870678333335,60.0,82.0
352,94.21001303333335,95.57595315000002,41.0,82.0
353,95.07957703333335,95.58682270000001,48.0,67.0
354,94.86218603333334,95.60312702500002,65.0,84.0
355,95.51435903333335,95.60856180000002,53.0,82.0
356,95.94914103333335,96.85131368333334,55.0,78.0
357,95.94914103333335,96.87667596666668,58.0,67.0
358,96.81870503333334,97.46182007500002,62.0,79.0
359,97.25348703333334,97.76073270000002,55.0,76.0
360,96.38392303333335,97.82776159166669,50.0,62.0
361,97.68826903333336,98.14841331666668,67.0,82.0
362,98.12305103333335,98.22812335000002,55.0,70.0
363,98.12305103333335,98.62667351666668,50.0,74.0
364,98.55783303333335,98.80420950000001,58.0,85.0
365,98.55783303333335,98.86580361666668,55.0,82.0
366,98.99261503333335,99.23899150000001,57.0,65.0
367,98.77522403333334,99.29696243333335,50.0,66.0
368,95.94914103333335,99.33862904166668,43.0,82.0
369,99.21000603333334,99.42015066666669,58.0,71.0
370,99.86217903333335,100.20638145000001,55.0,82.0
371,100.07957003333335,100.81326465833335,62.0,81.0
372,99.42739703333335,101.03790202500002,43.0,84.0
373,99.64478803333336,101.03971361666669,50.0,71.0
374,100.73174303333334,101.22268437500001,67.0,75.0
375,101.16652503333334,101.67920547500002,62.0,75.0
376,100.94913403333335,101.73174163333334,55.0,80.0
377,101.60130703333336,102.22087138333335,50.0,63.0
378,102.03608903333335,102.22449456666668,55.0,81.0
379,101.16652503333334,102.29876982500002,43.0,82.0
380,102.03608903333335,102.53789992500002,58.0,82.0
381,102.47087103333335,103.03427604166669,55.0,82.0
382,102.90565303333335,103.85311547500001,58.0,76.0
383,103.77521703333335,104.17195560833335,63.0,83.0
384,103.99260803333335,104.42014366666669,55.0,74.0
385,102.90565303333335,104.46362186666668,39.0,74.0
386,103.34043503333335,104.55420145000002,46.0,68.0
387,104.64478103333335,105.26253379166668,39.0,82.0
388,104.20999903333335,105.30963517500001,58.0,65.0
389,105.07956303333334,105.31869313333335,46.0,68.0
390,104.42739003333335,105.36398292500002,63.0,70.0
391,105.29695403333335,105.40564953333335,55.0,82.0
392,105.51434503333336,105.97448931666668,53.0,82.0
393,105.51434503333336,105.99985160000001,41.0,82.0
394,105.51434503333336,106.44369155833336,57.0,83.0
395,106.38390903333335,106.77883601666669,58.0,77.0
396,106.38390903333335,107.09042978333335,55.0,82.0
397,107.25347303333335,107.52340019166668,62.0,82.0
398,107.47086403333336,107.76796506666669,58.0,77.0
399,106.38390903333335,107.97086333333336,43.0,83.0
400,106.81869103333335,107.98173288333335,50.0,65.0
401,107.68825503333335,108.22810935000001,55.0,83.0
402,108.12303703333335,108.22810935000001,58.0,28.0
403,108.12303703333335,108.79513754166669,67.0,81.0
404,108.55781903333335,109.05238355833335,50.0,48.0
405,108.99260103333334,109.33318026666669,62.0,82.0
406,108.12303703333335,109.40202075000002,43.0,78.0
407,109.20999203333335,109.41470189166668,50.0,73.0
408,108.99260103333334,109.47810760000002,58.0,82.0
409,109.42738303333336,109.60491901666668,55.0,85.0
410,109.86216503333335,110.70093197500002,53.0,78.0
411,109.86216503333335,110.73897540000002,57.0,70.0
412,110.73172903333335,110.99984460000002,60.0,79.0
413,110.94912003333334,111.25346743333336,53.0,72.0
414,110.29694703333335,111.47629320833335,48.0,53.0
415,109.86216503333335,111.48535116666669,41.0,81.0
416,111.38390203333336,111.67737988333334,53.0,80.0
417,111.16651103333335,111.97991569166669,60.0,76.0
418,111.60129303333335,112.21179942500002,65.0,82.0
419,112.47085703333335,112.61578436666669,57.0,79.0
420,112.03607503333335,112.62846550833335,48.0,66.0
421,111.60129303333335,112.70636395000001,41.0,82.0
422,112.47085703333335,112.89839266666668,60.0,82.0
423,112.90563903333334,113.01433453333335,53.0,82.0
424,113.34042103333336,114.15020250833335,55.0,77.0
425,113.34042103333336,114.22810095000001,58.0,69.0
426,114.20998503333335,114.47085423333336,63.0,87.0
427,113.34042103333336,114.83498415833336,39.0,81.0
428,113.77520303333336,114.90020145833336,46.0,65.0
429,114.42737603333335,115.17918657500002,55.0,75.0
430,114.86215803333336,115.20092567500002,63.0,80.0
431,114.64476703333335,115.44549055000002,58.0,78.0
432,115.07954903333335,115.79150455833336,67.0,80.0
433,115.07954903333335,115.96179417500002,39.0,83.0
434,115.51433103333335,115.97991009166668,46.0,61.0
435,115.94911303333335,116.40201095000002,58.0,82.0
436,115.94911303333335,116.40201095000002,63.0,79.0
437,116.38389503333335,116.59585125833335,55.0,78.0
438,117.25345903333336,117.71360331666669,53.0,73.0
439,116.81867703333336,117.84766110000002,58.0,76.0
440,117.90563203333335,118.25708081666669,53.0,83.0
441,116.81867703333336,118.45816749166669,46.0,73.0
442,118.12302303333335,118.58860209166669,58.0,81.0
443,117.68824103333336,118.60671800833335,65.0,79.0
444,118.99258703333335,119.24077509166669,53.0,71.0
445,118.55780503333335,119.28968806666668,62.0,75.0
446,118.55780503333335,119.55780363333335,46.0,71.0
447,119.42736903333335,119.63026730000001,53.0,83.0
448,119.42736903333335,119.64113685000002,58.0,78.0
449,120.29693303333335,120.57410655833336,55.0,76.0
450,120.29693303333335,120.99620741666669,60.0,78.0
451,120.73171503333336,121.24258388333335,55.0,72.0
452,121.16649703333336,121.67193110833335,63.0,86.0
453,120.29693303333335,121.69185861666669,48.0,81.0
454,121.60127903333336,121.83497435833335,55.0,83.0
455,122.03606103333335,122.47627780833335,53.0,73.0
456,122.03606103333335,122.72265427500002,57.0,75.0
457,122.68823403333336,122.96178437500002,60.0,80.0
458,122.47084303333335,123.30598679166668,48.0,67.0
459,122.03606103333335,123.33678385000002,41.0,82.0
460,123.12301603333336,123.39475478333335,53.0,82.0
461,122.90562503333335,123.45453730833336,65.0,84.0
462,123.34040703333335,123.48714595833336,57.0,76.0
463,123.77518903333335,124.65381099166669,55.0,76.0
464,123.77518903333335,124.69366600833335,58.0,72.0
465,124.64475303333336,125.10308572500001,62.0,83.0
466,124.20997103333335,125.22627395833335,50.0,65.0
467,123.77518903333335,125.29330285000002,43.0,82.0
468,125.07953503333336,125.36757810833335,55.0,71.0
469,125.51431703333336,125.93460630000001,55.0,83.0
470,125.51431703333336,126.00163519166668,58.0,79.0
471,125.51431703333336,126.02699747500002,62.0,83.0
472,126.16649003333335,126.27518553333336,55.0,75.0
473,125.94909903333335,126.49257653333335,50.0,70.0
474,126.38388103333335,126.62482272500002,55.0,88.0
475,126.38388103333335,126.67373570000002,62.0,87.0
476,126.38388103333335,126.68641684166668,67.0,82.0
477,126.38388103333335,126.69547480000001,58.0,89.0
478,125.51431703333336,126.69909798333336,43.0,84.0
479,126.60127203333336,126.74801095833335,50.0,87.0
480,126.81866303333335,126.92735853333335,43.0,84.0
481,127.25344503333335,127.50525627500002,63.0,84.0
482,127.25344503333335,127.51069105000002,58.0,83.0
483,127.90561803333335,128.31866093333335,51.0,83.0
484,128.12300903333335,128.4201100666667,55.0,78.0
485,127.25344503333335,128.64474743333335,39.0,86.0
486,127.68822703333335,128.75887770833336,46.0,67.0
487,128.34040003333337,128.79692113333334,63.0,83.0
488,128.55779103333336,128.94366005833336,51.0,86.0
489,128.77518203333335,129.23894950000002,55.0,77.0
490,128.99257303333334,129.6519924,63.0,77.0
491,128.99257303333334,129.77518063333335,39.0,87.0
492,129.42735503333336,129.78605018333334,51.0,84.0
493,129.64474603333335,129.8168472416667,55.0,76.0
494,129.86213703333334,129.95452820833336,51.0,76.0
495,129.20996403333336,130.0124991416667,46.0,63.0
496,129.86213703333334,130.29873062500002,55.0,82.0
497,129.86213703333334,130.38025225,63.0,88.0
498,130.29691903333335,130.385687025,51.0,82.0
499,130.73170103333337,130.9364108916667,53.0,80.0
500,130.73170103333337,131.255251025,58.0,76.0
501,130.73170103333337,131.38387403333334,46.0,83.0
502,131.16648303333335,131.63568527500001,53.0,70.0
503,131.60126503333336,132.0614093166667,62.0,83.0
504,131.60126503333336,132.09582955833335,58.0,83.0
505,132.03604703333335,132.36394512500001,53.0,74.0
506,132.47082903333336,132.61213318333336,53.0,78.0
507,132.47082903333336,132.76068370000002,58.0,74.0
508,132.68822003333335,132.95090082500002,53.0,74.0
509,132.90561103333334,133.1809729666667,58.0,71.0
510,132.47082903333336,133.48894355000002,46.0,84.0
511,133.34039303333336,133.5396681166667,53.0,84.0
512,133.55778403333335,133.65742157500003,46.0,82.0
513,133.34039303333336,133.66285635000003,58.0,82.0
514,133.34039303333336,133.8603198416667,62.0,82.0
515,133.77517503333334,133.90017485833334,53.0,85.0
516,134.20995703333335,134.68097086666668,55.0,82.0
517,134.20995703333335,134.69184041666668,58.0,75.0
518,134.20995703333335,135.26973815833335,39.0,83.0
519,134.64473903333337,135.28423089166668,46.0,70.0
520,135.07952103333335,135.35669455833334,63.0,91.0
521,135.29691203333334,135.70089697500003,55.0,84.0
522,135.51430303333336,135.7606795,58.0,89.0
523,135.73169403333335,135.86394022500002,63.0,82.0
524,135.94908503333335,136.1755339916667,53.0,78.0
525,135.94908503333335,136.4309684166667,57.0,81.0
526,136.38386703333336,136.7896635666667,53.0,84.0
527,136.60125803333335,136.87661996666668,60.0,82.0
528,136.81864903333334,137.17372100000003,65.0,86.0
529,136.16647603333337,137.25886580833335,48.0,76.0
530,137.03604003333336,137.31864833333336,60.0,83.0
531,135.94908503333335,137.32589470000002,41.0,82.0
532,137.25343103333336,137.46901044166668,53.0,82.0
533,137.68821303333334,137.874806975,53.0,81.0
534,137.68821303333334,138.19364710833335,58.0,78.0
535,138.12299503333335,138.33676285,53.0,62.0
536,138.55777703333337,138.67734208333334,53.0,84.0
537,138.99255903333335,139.08495020833337,53.0,73.0
538,137.68821303333334,139.09763135000003,46.0,83.0
539,138.55777703333337,139.12299363333335,62.0,84.0
540,139.20995003333334,139.35668895833336,58.0,80.0
541,139.42734103333336,139.5831379166667,53.0,80.0
542,139.42734103333336,139.85306507500002,58.0,83.0
543,139.42734103333336,139.93639829166668,62.0,82.0
544,139.42734103333336,140.14473133333337,46.0,91.0
545,140.07951403333337,140.19364430833335,53.0,83.0
546,140.29690503333336,140.58132492500002,53.0,89.0
547,140.29690503333336,140.76429568333336,58.0,88.0
548,140.29690503333336,140.8113970666667,46.0,89.0
549,140.73168703333334,140.929150525,57.0,91.0
550,141.16646903333336,141.49436712500002,58.0,80.0
551,141.16646903333336,141.50523667500002,55.0,82.0
552,141.60125103333337,142.11030829166668,46.0,71.0
553,142.03603303333335,142.2026994666667,55.0,89.0
554,141.16646903333336,142.31682974166668,39.0,96.0
555,142.03603303333335,142.56501780000002,63.0,85.0
556,142.25342403333335,142.75342333333336,46.0,77.0
557,142.47081503333337,143.09037938333336,55.0,79.0
558,142.68820603333336,143.38023405,58.0,81.0
559,143.34037903333336,143.65740757500004,55.0,82.0
560,143.55777003333336,143.68458145000002,58.0,93.0
561,143.12298803333334,143.87298698333336,46.0,72.0
562,142.90559703333335,143.99798680833337,39.0,83.0
563,143.77516103333335,144.12298663333337,58.0,89.0
564,143.77516103333335,144.1374793666667,63.0,88.0
565,143.77516103333335,144.16284165000002,55.0,85.0
566,143.99255203333337,144.16465324166668,46.0,72.0
567,144.20994303333336,144.3276964916667,39.0,87.0
568,144.64472503333334,145.07588385000003,53.0,72.0
569,144.64472503333334,145.14472433333336,57.0,76.0
570,145.29689803333335,145.39653557500003,53.0,83.0
571,144.64472503333334,145.5885642916667,38.0,84.0
572,145.07950703333336,145.5885642916667,45.0,66.0
573,145.51428903333337,145.6592163666667,53.0,89.0
574,145.51428903333337,145.68820183333335,57.0,91.0
575,145.94907103333335,147.092185375,55.0,78.0
576,145.94907103333335,147.11392447500003,58.0,84.0
577,147.03602603333334,147.1972576916667,62.0,80.0
578,146.81863503333335,147.34761980000002,50.0,85.0
579,147.25341703333336,147.4689964416667,55.0,73.0
580,147.25341703333336,147.51972100833336,58.0,71.0
581,147.25341703333336,147.56319920833334,62.0,74.0
582,147.25341703333336,147.64653242500003,67.0,86.0
583,147.47080803333336,147.73167723333336,50.0,81.0
584,145.94907103333335,147.76972065833337,43.0,84.0
585,147.68819903333335,148.01609712500002,55.0,83.0
586,148.12298103333336,148.3711690916667,55.0,79.0
587,148.12298103333336,148.6483426166667,60.0,83.0
588,148.12298103333336,148.74616856666668,63.0,82.0
589,148.55776303333334,148.75160334166668,55.0,74.0
590,148.99254503333336,149.13747236666669,60.0,84.0
591,148.12298103333336,149.45450090833336,48.0,81.0
592,149.42732703333337,149.83131197500003,58.0,75.0
593,149.86210903333335,150.12841300833335,53.0,73.0
594,149.86210903333335,150.35667355833337,57.0,78.0
595,150.29689103333337,150.55957182500003,60.0,78.0
596,150.07950003333335,150.6737021,48.0,78.0
597,150.94906403333334,151.22080278333337,60.0,82.0
598,149.86210903333335,151.22804915000003,41.0,82.0
599,150.73167303333335,151.23891870000003,48.0,67.0
600,150.51428203333336,151.25522302500002,65.0,84.0
601,151.16645503333336,151.26065780000002,53.0,82.0
602,151.60123703333335,152.50340968333336,55.0,78.0
603,151.60123703333335,152.52877196666668,58.0,67.0
604,152.47080103333334,153.11391607500002,62.0,79.0
605,152.90558303333336,153.41282870000003,55.0,76.0
606,152.03601903333336,153.4798575916667,50.0,62.0
607,153.3385534416667,153.798697725,67.0,82.0
608,153.77514703333335,153.88021935000003,55.0,70.0
609,153.77514703333335,154.2787695166667,50.0,74.0
610,154.2081174416667,154.45449390833335,58.0,85.0
611,154.2081174416667,154.51608802500002,55.0,82.0
612,154.64289944166669,154.88927590833336,57.0,65.0
613,154.4255084416667,154.9472468416667,50.0,66.0
614,151.59942544166668,154.98891345,43.0,82.0
615,154.86029044166668,155.07043507500003,58.0,71.0
616,155.0776814416667,155.34036223333337,51.0,77.0
617,155.0776814416667,155.49434752500002,55.0,82.0
618,155.0776814416667,155.55231845833336,58.0,74.0
619,155.51246344166668,155.80956447500003,51.0,82.0
620,155.7298544416667,156.0668104916667,55.0,78.0
621,155.2950724416667,156.08673800000003,46.0,65.0
622,155.0776814416667,156.24253488333335,39.0,88.0
623,156.1646364416667,156.30231740833335,46.0,80.0
624,155.9472454416667,156.42912882500002,63.0,93.0
625,156.38202744166668,156.62296913333336,51.0,91.0
626,156.5994184416667,156.70992553333335,55.0,74.0
627,156.8168094416667,157.07949023333336,53.0,75.0
628,156.8168094416667,157.1918089166667,57.0,83.0
629,157.2515914416667,157.5341997416667,53.0,82.0
630,157.4689824416667,157.57767794166668,57.0,83.0
631,157.03420044166668,157.73347482500003,48.0,78.0
632,156.8168094416667,157.9418078666667,41.0,84.0
633,157.6863734416667,157.94543105000002,53.0,84.0
634,157.6863734416667,157.95086582500002,57.0,85.0
635,157.6863734416667,157.9907208416667,60.0,86.0
636,157.90376444166668,158.04506859166668,48.0,79.0
637,158.1211554416667,158.24072049166668,41.0,82.0
638,158.55593744166669,158.65014020833337,38.0,86.0
639,158.55593744166669,158.70811114166668,57.0,82.0
640,158.55593744166669,158.82405300833335,62.0,82.0
641,158.77332844166668,159.0178933166667,57.0,76.0
642,158.9907194416667,159.26970455833336,62.0,76.0
643,159.2081104416667,159.85303707500003,65.0,78.0
644,159.42550144166668,159.87839935833335,50.0,87.0
645,159.6428924416667,159.9744137166667,57.0,74.0
646,159.8602834416667,160.07042807500002,62.0,84.0
647,160.0776744416667,160.17912357500003,65.0,83.0
648,160.29506544166668,160.55593464166668,55.0,80.0
649,160.29506544166668,160.59760125000003,58.0,83.0
650,160.7298474416667,160.8439777166667,55.0,82.0
651,160.94723844166668,161.01970210833335,55.0,82.0
652,160.94723844166668,161.0994121416667,62.0,82.0
653,161.1646294416667,161.23709310833337,62.0,72.0
654,160.5124564416667,161.30774518333337,50.0,77.0
655,161.1646294416667,161.51064345000003,67.0,91.0
656,161.3820204416667,161.61571576666668,55.0,83.0
657,160.29506544166668,161.78057060833336,43.0,84.0
658,161.5994114416667,161.83491835833337,62.0,83.0
659,161.81680244166668,161.95267181666668,55.0,84.0
660,162.0341934416667,162.14288894166668,55.0,85.0
661,162.0341934416667,162.27875831666668,60.0,84.0
662,162.2515844416667,162.47259862500002,55.0,82.0
663,162.4689754416667,162.67912007500001,60.0,78.0
664,162.68636644166668,162.7896271666667,55.0,83.0
665,162.9037574416667,163.04143840833336,55.0,89.0
666,162.0341934416667,163.0450615916667,48.0,93.0
667,162.9037574416667,163.15013390833334,60.0,91.0
668,163.1211484416667,163.23165553333337,48.0,85.0
669,162.9037574416667,163.35303217500004,63.0,87.0
670,163.33853944166668,163.59578545833335,55.0,86.0
671,163.5559304416667,163.68093026666668,63.0,66.0
672,163.7733214416667,164.01245154166668,56.0,84.0
673,163.7733214416667,164.04868337500002,63.0,78.0
674,164.20810344166668,164.34397281666668,56.0,84.0
675,163.9907124416667,164.53056675833335,51.0,78.0
676,163.7733214416667,164.56317540833336,44.0,89.0
677,164.4254944416667,164.6917984166667,56.0,91.0
678,164.4254944416667,164.72259547500002,60.0,85.0
679,164.6428854416667,164.7733200416667,51.0,84.0
680,164.4254944416667,164.8928850916667,63.0,88.0
681,164.86027644166668,165.10665290833336,56.0,87.0
682,165.0776674416667,165.11208768333336,63.0,74.0
683,165.5124494416667,165.63926085833336,50.0,83.0
684,165.5124494416667,165.6483188166667,57.0,82.0
685,165.5124494416667,165.65013040833335,54.0,78.0
686,165.5124494416667,165.8494054916667,38.0,86.0
687,165.72984044166668,165.89650687500003,50.0,86.0
688,165.72984044166668,165.8983184666667,54.0,88.0
689,165.72984044166668,165.91099960833336,57.0,84.0
690,166.3820134416667,166.51607122500002,54.0,82.0
691,166.3820134416667,166.51969440833335,50.0,83.0
692,166.3820134416667,166.52331759166668,57.0,82.0
693,166.3820134416667,166.53599873333337,62.0,82.0
694,166.3820134416667,166.55230305833337,38.0,91.0
695,166.5994044416667,166.71172312500002,38.0,83.0
696,166.5994044416667,166.74976655000003,54.0,91.0
697,166.5994044416667,166.7787520166667,57.0,87.0
698,166.5994044416667,166.7787520166667,62.0,84.0
699,166.5994044416667,166.78056360833335,50.0,86.0
700,167.25157744166668,167.33128747500004,38.0,96.0
701,167.25157744166668,167.42911342500003,50.0,86.0
702,167.25157744166668,167.4798379916667,54.0,77.0
703,167.25157744166668,167.48889595000003,57.0,83.0
704,167.25157744166668,167.6320116916667,62.0,85.0
705,167.9037504416667,168.1483153166667,54.0,75.0
706,167.6863594416667,168.16280805000002,50.0,82.0
707,168.12114144166668,168.2570108166667,57.0,87.0
708,168.3385324416667,168.74795215833336,62.0,99.0
709,168.55773503333336,168.77150285000002,66.0,93.0
710,168.77512603333335,168.95990838333336,69.0,82.0
711,168.99251703333337,169.24432827500002,63.0,84.0
712,168.99251703333337,169.24976305,58.0,83.0
713,169.64469003333335,170.05773293333337,51.0,83.0
714,169.86208103333337,170.1591820666667,55.0,78.0
715,168.99251703333337,170.38381943333337,39.0,86.0
716,169.42729903333336,170.49794970833335,46.0,67.0
717,170.07947203333336,170.53599313333336,63.0,83.0
718,170.29686303333335,170.68273205833336,51.0,86.0
719,170.51425403333337,170.97802150000004,55.0,77.0
720,170.73164503333336,171.39106440000003,63.0,77.0
721,170.73164503333336,171.51425263333337,39.0,87.0
722,171.16642703333335,171.52512218333337,51.0,84.0
723,171.38381803333337,171.5559192416667,55.0,76.0
724,171.60120903333336,171.69360020833335,51.0,76.0
725,170.94903603333336,171.7515711416667,46.0,63.0
726,171.60120903333336,172.03780262500004,55.0,82.0
727,171.60120903333336,172.11932425000003,63.0,88.0
728,172.03599103333335,172.12475902500003,51.0,82.0
729,172.47077303333336,172.6754828916667,53.0,80.0
730,172.47077303333336,172.99432302500003,58.0,76.0
731,172.47077303333336,173.12294603333336,46.0,83.0
732,172.90555503333337,173.37475727500004,53.0,70.0
733,173.34033703333336,173.8004813166667,62.0,83.0
734,173.34033703333336,173.83490155833337,58.0,83.0
735,173.77511903333337,174.10301712500004,53.0,74.0
736,174.20990103333335,174.35120518333335,53.0,78.0
737,174.20990103333335,174.49975570000004,58.0,74.0
738,174.42729203333337,174.68997282500004,53.0,74.0
739,174.64468303333337,174.9200449666667,58.0,71.0
740,174.20990103333335,175.22801555000004,46.0,84.0
741,175.07946503333335,175.27874011666668,53.0,84.0
742,175.29685603333337,175.39649357500002,46.0,82.0
743,175.07946503333335,175.40192835000002,58.0,82.0
744,175.07946503333335,175.5993918416667,62.0,82.0
745,175.51424703333336,175.63924685833337,53.0,85.0
746,175.94902903333337,176.4200428666667,55.0,82.0
747,175.94902903333337,176.4309124166667,58.0,75.0
748,175.94902903333337,177.00881015833335,39.0,83.0
749,176.38381103333336,177.0233028916667,46.0,70.0
750,176.81859303333337,177.09576655833337,63.0,91.0
751,177.03598403333336,177.43996897500003,55.0,84.0
752,177.25337503333336,177.49975150000003,58.0,89.0
753,177.47076603333335,177.60301222500001,63.0,82.0
754,177.68815703333337,177.9146059916667,53.0,78.0
755,177.68815703333337,178.1700404166667,57.0,81.0
756,178.12293903333335,178.52873556666668,53.0,84.0
757,178.34033003333337,178.6156919666667,60.0,82.0
758,178.55772103333337,178.91279300000002,65.0,86.0
759,177.90554803333336,178.99793780833335,48.0,76.0
760,178.77511203333336,179.05772033333335,60.0,83.0
761,177.68815703333337,179.06496670000004,41.0,82.0
762,178.99250303333335,179.2080824416667,53.0,82.0
763,179.42728503333336,179.61387897500003,53.0,81.0
764,179.42728503333336,179.93271910833337,58.0,78.0
765,179.86206703333337,180.07583485000004,53.0,62.0
766,180.29684903333336,180.41641408333336,53.0,84.0
767,180.73163103333337,180.82402220833336,53.0,73.0
768,179.42728503333336,180.83670335000002,46.0,83.0
769,180.29684903333336,180.86206563333337,62.0,84.0
770,180.94902203333336,181.09576095833336,58.0,80.0
771,181.16641303333336,181.3222099166667,53.0,80.0
772,181.16641303333336,181.59213707500004,58.0,83.0
773,181.16641303333336,181.6754702916667,62.0,82.0
774,181.16641303333336,181.88380333333336,46.0,91.0
775,181.81858603333336,181.93271630833337,53.0,83.0
776,182.03597703333335,182.32039692500004,53.0,89.0
777,182.03597703333335,182.50336768333335,58.0,88.0
778,182.03597703333335,182.5504690666667,46.0,89.0
779,182.47075903333337,182.66822252500003,57.0,91.0
780,182.90554103333335,183.23343912500002,58.0,80.0
781,182.90554103333335,183.24430867500004,55.0,82.0
782,183.34032303333336,183.8493802916667,46.0,71.0
783,183.77510503333338,183.9417714666667,55.0,89.0
784,182.90554103333335,184.0559017416667,39.0,96.0
785,183.77510503333338,184.30408980000004,63.0,85.0
786,183.99249603333337,184.49249533333335,46.0,77.0
787,184.20988703333336,184.82945138333335,55.0,79.0
788,184.42727803333335,185.11930605000003,58.0,81.0
789,185.07945103333336,185.39647957500003,55.0,82.0
790,185.29684203333335,185.42365345000002,58.0,93.0
791,184.86206003333336,185.61205898333336,46.0,72.0
792,184.64466903333337,185.73705880833336,39.0,83.0
793,185.51423303333337,185.86205863333336,58.0,89.0
794,185.51423303333337,185.8765513666667,63.0,88.0
795,185.51423303333337,185.90191365000004,55.0,85.0
796,185.73162403333336,185.9037252416667,46.0,72.0
797,185.94901503333335,186.0667684916667,39.0,87.0
798,186.38379703333337,186.81495585000002,53.0,72.0
799,186.38379703333337,186.88379633333335,57.0,76.0
800,187.03597003333337,187.13560757500002,53.0,83.0
801,186.38379703333337,187.3276362916667,38.0,84.0
802,186.81857903333335,187.3276362916667,45.0,66.0
803,187.25336103333336,187.3982883666667,53.0,89.0
804,187.25336103333336,187.42727383333337,57.0,91.0
805,187.68814303333338,188.83125737500004,55.0,78.0
806,187.68814303333338,188.85299647500003,58.0,84.0
807,188.77509803333336,188.93632969166669,62.0,80.0
808,188.55770703333337,189.08669180000004,50.0,85.0
809,188.99248903333336,189.20806844166668,55.0,73.0
810,188.99248903333336,189.25879300833336,58.0,71.0
811,188.99248903333336,189.30227120833337,62.0,74.0
812,188.99248903333336,189.38560442500003,67.0,86.0
813,189.20988003333338,189.47074923333335,50.0,81.0
814,187.68814303333338,189.50879265833336,43.0,84.0
815,189.42727103333337,189.75516912500004,55.0,83.0
816,189.86205303333335,190.1102410916667,55.0,79.0
817,189.86205303333335,190.3874146166667,60.0,83.0
818,189.86205303333335,190.4852405666667,63.0,82.0
819,190.29683503333337,190.4906753416667,55.0,74.0
820,190.73161703333335,190.8765443666667,60.0,84.0
821,189.86205303333335,191.19357290833335,48.0,81.0
822,191.16639903333336,191.57038397500003,58.0,75.0
823,191.60118103333338,191.86748500833338,53.0,73.0
824,191.60118103333338,192.09574555833336,57.0,78.0
825,192.03596303333336,192.29864382500003,60.0,78.0
826,191.81857203333337,192.41277410000004,48.0,78.0
827,192.68813603333336,192.95987478333336,60.0,82.0
828,191.60118103333338,192.96712115000003,41.0,82.0
829,192.47074503333337,192.97799070000002,48.0,67.0
830,192.25335403333335,192.99429502500004,65.0,84.0
831,192.90552703333336,192.99972980000004,53.0,82.0
832,193.34030903333337,194.24248168333335,55.0,78.0
833,193.34030903333337,194.2678439666667,58.0,67.0
834,194.20987303333337,194.85298807500004,62.0,79.0
835,194.64465503333335,195.15190070000003,55.0,76.0
836,193.77509103333335,195.2189295916667,50.0,62.0
837,195.07943703333336,195.5395813166667,67.0,82.0
838,195.51421903333338,195.61929135000003,55.0,70.0
839,195.51421903333338,196.0178415166667,50.0,74.0
840,195.94900103333336,196.19537750000003,58.0,85.0
841,195.94900103333336,196.2569716166667,55.0,82.0
842,196.38378303333337,196.63015950000002,57.0,65.0
843,196.16639203333335,196.68813043333336,50.0,66.0
844,193.34030903333337,196.7297970416667,43.0,82.0
845,196.60117403333336,196.8113186666667,58.0,71.0
846,196.81856503333336,196.90552143333338,58.0,75.0
847,196.81856503333336,196.9091446166667,39.0,87.0
848,196.81856503333336,196.92182575833337,55.0,79.0
849,196.81856503333336,196.93813008333336,63.0,78.0
850,197.25334703333337,197.53776692500003,39.0,89.0
851,197.25334703333337,197.5504480666667,58.0,81.0
852,197.25334703333337,197.55407125000002,63.0,82.0
853,197.25334703333337,197.5776219416667,55.0,82.0
854,197.90552003333337,198.2189253916667,53.0,77.0
855,197.90552003333337,198.24972245000004,41.0,85.0
856,197.90552003333337,198.25515722500003,57.0,83.0
857,197.90552003333337,198.2678383666667,60.0,82.0
858,197.90552003333337,198.29138905833335,65.0,83.0
859,198.55769303333335,198.99790980833336,55.0,80.0
860,198.55769303333335,199.06493870000003,58.0,77.0
861,198.55769303333335,199.07399665833336,62.0,83.0
862,199.20986603333336,199.34030063333336,55.0,78.0
863,198.99247503333336,199.53051775833336,50.0,72.0
864,199.42725703333338,199.71530010833337,55.0,84.0
865,199.42725703333338,199.79682173333336,58.0,87.0
866,199.42725703333338,199.82037242500004,62.0,85.0
867,199.42725703333338,199.84211152500004,67.0,82.0
868,198.55769303333335,200.03051705833337,43.0,84.0
869,199.64464803333337,200.11928505000003,50.0,83.0
870,199.86203903333336,200.18450235000003,55.0,83.0
871,200.07943003333335,200.22798055000004,58.0,74.0
872,200.29682103333337,200.5015308916667,53.0,80.0
873,200.29682103333337,200.82037102500004,58.0,76.0
874,200.29682103333337,200.94899403333338,46.0,83.0
875,200.73160303333336,201.20080527500002,53.0,70.0
876,201.16638503333337,201.6265293166667,62.0,83.0
877,201.16638503333337,201.66094955833336,58.0,83.0
878,201.60116703333335,201.92906512500002,53.0,74.0
879,202.03594903333337,202.17725318333336,53.0,78.0
880,202.03594903333337,202.32580370000002,58.0,74.0
881,202.25334003333336,202.51602082500003,53.0,74.0
882,202.47073103333335,202.7460929666667,58.0,71.0
883,202.03594903333337,203.05406355000002,46.0,84.0
884,202.90551303333336,203.1047881166667,53.0,84.0
885,203.12290403333336,203.22254157500004,46.0,82.0
886,202.90551303333336,203.22797635000003,58.0,82.0
887,202.90551303333336,203.4254398416667,62.0,82.0
888,203.34029503333338,203.46529485833335,53.0,85.0
889,203.77507703333336,204.2460908666667,55.0,82.0
890,203.77507703333336,204.2569604166667,58.0,75.0
891,203.77507703333336,204.83485815833336,39.0,83.0
892,204.20985903333337,204.8493508916667,46.0,70.0
893,204.64464103333336,204.92181455833335,63.0,91.0
894,204.86203203333338,205.26601697500004,55.0,84.0
895,205.07942303333337,205.32579950000004,58.0,89.0
896,205.29681403333336,205.42906022500003,63.0,82.0
897,205.51420503333335,205.7406539916667,53.0,78.0
898,205.51420503333335,205.9960884166667,57.0,81.0
899,205.94898703333337,206.3547835666667,53.0,84.0
900,206.16637803333336,206.4417399666667,60.0,82.0
901,206.38376903333338,206.73884100000004,65.0,86.0
902,205.73159603333337,206.82398580833336,48.0,76.0
903,206.60116003333337,206.88376833333336,60.0,83.0
904,205.51420503333335,206.89101470000003,41.0,82.0
905,206.81855103333336,207.0341304416667,53.0,82.0
906,207.25333303333338,207.43992697500002,53.0,81.0
907,207.25333303333338,207.75876710833336,58.0,78.0
908,207.68811503333336,207.90188285000002,53.0,62.0
909,208.12289703333337,208.24246208333338,53.0,84.0
910,208.55767903333336,208.65007020833337,53.0,73.0
911,207.25333303333338,208.66275135000004,46.0,83.0
912,208.12289703333337,208.68811363333336,62.0,84.0
913,208.77507003333338,208.92180895833337,58.0,80.0
914,208.99246103333337,209.1482579166667,53.0,80.0
915,208.99246103333337,209.41818507500003,58.0,83.0
916,208.99246103333337,209.5015182916667,62.0,82.0
917,208.99246103333337,209.70985133333338,46.0,91.0
918,209.64463403333338,209.75876430833335,53.0,83.0
919,209.86202503333337,210.14644492500003,53.0,89.0
920,209.86202503333337,210.32941568333337,58.0,88.0
921,209.86202503333337,210.3765170666667,46.0,89.0
922,210.29680703333338,210.49427052500002,57.0,91.0
923,210.73158903333336,211.05948712500003,58.0,80.0
924,210.73158903333336,211.07035667500003,55.0,82.0
925,211.16637103333338,211.6754282916667,46.0,71.0
926,211.60115303333336,211.7678194666667,55.0,89.0
927,210.73158903333336,211.8819497416667,39.0,96.0
928,211.60115303333336,212.13013780000003,63.0,85.0
929,211.81854403333335,212.31854333333337,46.0,77.0
930,212.03593503333337,212.65549938333336,55.0,79.0
931,212.25332603333337,212.94535405000002,58.0,81.0
932,212.90549903333337,213.22252757500004,55.0,82.0
933,213.12289003333336,213.24970145000003,58.0,93.0
934,212.68810803333338,213.43810698333337,46.0,72.0
935,212.47071703333336,213.56310680833337,39.0,83.0
936,213.34028103333335,213.68810663333338,58.0,89.0
937,213.34028103333335,213.7025993666667,63.0,88.0
938,213.34028103333335,213.72796165000003,55.0,85.0
939,213.55767203333338,213.7297732416667,46.0,72.0
940,213.77506303333337,213.8928164916667,39.0,87.0
941,214.20984503333338,214.64100385000003,53.0,72.0
942,214.20984503333338,214.70984433333336,57.0,76.0
943,214.86201803333336,214.96165557500004,53.0,83.0
944,214.20984503333338,215.1536842916667,38.0,84.0
945,214.64462703333336,215.1536842916667,45.0,66.0
946,215.07940903333338,215.2243363666667,53.0,89.0
947,215.07940903333338,215.25332183333336,57.0,91.0
948,215.51419103333336,216.65730537500002,55.0,78.0
949,215.51419103333336,216.67904447500004,58.0,84.0
950,216.60114603333338,216.7623776916667,62.0,80.0
951,216.38375503333336,216.91273980000003,50.0,85.0
952,216.81853703333337,217.0341164416667,55.0,73.0
953,216.81853703333337,217.08484100833337,58.0,71.0
954,216.81853703333337,217.12831920833338,62.0,74.0
955,216.81853703333337,217.21165242500004,67.0,86.0
956,217.03592803333336,217.29679723333336,50.0,81.0
957,215.51419103333336,217.33484065833338,43.0,84.0
958,217.25331903333336,217.58121712500002,55.0,83.0
959,217.68810103333337,217.9362890916667,55.0,79.0
960,217.68810103333337,218.2134626166667,60.0,83.0
961,217.68810103333337,218.3112885666667,63.0,82.0
962,218.12288303333338,218.3167233416667,55.0,74.0
963,218.55766503333336,218.7025923666667,60.0,84.0
964,217.68810103333337,219.01962090833337,48.0,81.0
965,218.99244703333338,219.39643197500004,58.0,75.0
966,219.3004176166667,220.9091110166667,53.0,70.0
967,219.3765044666667,220.96708195000002,57.0,73.0
968,219.43991017500002,220.98882105000004,60.0,78.0
969,219.48701155833336,220.99787900833337,65.0,63.0
970,220.7949807416667,222.39642777500003,48.0,50.0
971,221.11925565000004,222.44896393333337,53.0,70.0
972,219.36925810000002,222.4743262166667,41.0,80.0
973,221.7297620416667,222.4743262166667,65.0,71.0
974,221.39099440000004,222.4906305416667,60.0,66.0
975,224.64461303333337,225.0884529916667,67.0,69.0
976,225.07939503333336,225.73881440000002,62.0,82.0
977,224.86200403333336,225.75511872500005,50.0,73.0
978,224.64461303333337,225.82939398333338,43.0,72.0
979,225.29678603333338,225.9362778916667,70.0,83.0
980,226.38374103333337,226.8275809916667,70.0,73.0
981,226.38374103333337,227.38917440833336,51.0,82.0
982,226.60113203333336,227.4797539916667,58.0,69.0
983,226.81852303333338,227.48881195000004,63.0,72.0
984,227.03591403333337,227.53591333333338,70.0,71.0
985,228.12286903333336,228.62467992500004,69.0,65.0
986,228.55765103333337,228.8547520666667,60.0,80.0
987,228.77504203333336,229.24786745833336,65.0,83.0
988,228.34026003333338,229.43446140000003,48.0,69.0
989,228.12286903333336,229.48699755833337,41.0,80.0
990,229.42721503333337,229.82033042500004,65.0,74.0
991,229.20982403333338,229.85656225833335,69.0,81.0
992,230.51417003333336,230.9417056666667,55.0,83.0
993,230.94895203333337,231.45076292500005,62.0,76.0
994,229.86199703333338,231.57395115833336,67.0,76.0
995,230.29677903333337,233.10655770833338,50.0,66.0
996,229.86199703333338,233.19532570000004,43.0,82.0
997,231.16634303333336,233.32394870833338,55.0,82.0
998,231.60112503333337,233.33481825833337,67.0,73.0
999,231.60112503333337,233.3438762166667,62.0,73.0
