,start,end,pitch,velocity
0,27.69225,28.1884028125,66.0,92.0
1,28.1537875,28.463402239583335,68.0,89.0
2,28.615325,29.098016302083334,69.0,87.0
3,29.0768625,29.53263078125,68.0,97.0
4,29.5384,30.419167395833334,66.0,91.0
5,30.461475,30.742243645833334,64.0,97.0
6,30.69224375,31.074935260416666,61.0,97.0
7,31.15378125,34.7999275,64.0,96.0
8,35.07685,35.52300291666667,66.0,95.0
9,35.5383875,36.00761729166667,68.0,97.0
10,35.999925,36.438385625,69.0,92.0
11,36.4614625,36.95184609375,68.0,92.0
12,36.923,37.38646057291667,66.0,87.0
13,37.3845375,37.876844166666665,64.0,97.0
14,37.846075,38.2960740625,61.0,97.0
15,38.3076125,38.77299614583333,64.0,94.0
16,38.76915,39.21722598958333,71.0,94.0
17,39.2306875,41.10568359375,73.0,88.0
18,41.0768375,41.10568359375,73.0,96.0
19,41.538375,42.86144916666667,73.0,97.0
20,42.9229875,43.36337119791667,71.0,97.0
21,43.384525000000004,44.8037528125,74.0,97.0
22,44.99990625,45.24029036458333,71.0,96.0
23,45.230675,45.24029036458333,71.0,96.0
24,46.6152875,47.12682489583333,69.0,89.0
25,47.076825,48.707590833333335,73.0,96.0
26,48.69220625,48.707590833333335,73.0,87.0
27,48.922975,48.978744114583336,73.0,97.0
28,49.3845125,49.847973072916666,66.0,97.0
29,49.84605,50.294125989583335,69.0,82.0
30,50.307587500000004,51.67873848958333,66.0,94.0
31,51.6922,52.15950671875,69.0,90.0
32,52.1537375,52.405660052083334,71.0,96.0
33,52.615275,54.27488692708334,66.0,96.0
34,54.461425,57.2421884375,64.0,96.0
35,57.23065,57.665264479166666,66.0,96.0
36,57.6921875,58.149878854166666,68.0,97.0
37,58.153725,58.61718557291667,69.0,96.0
38,58.6152625,59.0652615625,68.0,97.0
39,59.0768,59.536414427083336,66.0,96.0
40,59.5383375,59.999875,64.0,105.0
41,59.999875,60.459489427083334,61.0,97.0
42,60.4614125,64.63448072916667,64.0,98.0
43,64.61525,65.03255682291666,66.0,92.0
44,65.0767875,65.55755572916667,68.0,91.0
45,65.30755625,65.94986260416667,69.0,96.0
46,65.9998625,66.45563078125,68.0,95.0
47,66.4614,66.93639901041666,66.0,96.0
48,66.9229375,67.4190903125,64.0,98.0
49,67.384475,67.85370479166667,61.0,98.0
50,67.8460125,68.29985770833333,64.0,96.0
51,68.30755,68.76524135416666,71.0,97.0
52,68.7690875,70.62100671875,73.0,96.0
53,70.6152375,70.62100671875,73.0,98.0
54,71.076775,71.08446729166667,73.0,98.0
55,72.4613875,72.71138697916666,71.0,97.0
56,72.922925,74.53638317708334,74.0,98.0
57,74.53830625,74.82869026041666,71.0,91.0
58,74.769075,74.82869026041666,71.0,94.0
59,76.1536875,76.59022505208334,69.0,94.0
60,76.615225,78.21714473958333,73.0,97.0
61,78.23060625,78.50175953125,66.0,105.0
62,78.461375,78.87868182291666,73.0,103.0
63,78.9229125,79.16329661458333,66.0,92.0
64,79.15368125,79.61714182291666,69.0,96.0
65,79.61521875,80.31714036458334,71.0,96.0
66,80.307525,80.31714036458334,71.0,96.0
67,81.6921375,82.14021348958333,69.0,98.0
68,82.153675,82.6267509375,76.0,98.0
69,82.6152125,83.099826875,73.0,93.0
70,83.07675,83.51713369791666,71.0,98.0
71,83.5382875,83.79405619791666,69.0,96.0
72,83.76905625,84.89405390625,71.0,96.0
73,84.9229,85.3844375,73.0,97.0
74,85.3844375,85.87097494791666,69.0,96.0
75,85.845975,86.29212791666667,66.0,97.0
76,86.3075125,86.54789661458334,73.0,98.0
77,86.53828125,87.65366354166667,71.0,95.0
78,87.692125,88.15750864583333,73.0,97.0
79,88.1536625,88.62289229166667,78.0,100.0
80,88.38443125,88.84789182291667,76.0,103.0
81,88.84596875,89.08635286458333,73.0,97.0
82,89.07673750000001,89.29019859375,71.0,96.0
83,89.30750625,89.58635182291667,69.0,91.0
84,89.538275,90.45942692708333,71.0,97.0
85,90.46135,90.92481057291667,66.0,98.0
86,90.9228875,92.74211447916667,73.0,97.0
87,92.7690375,92.99403703125,69.0,98.0
88,92.99980625,93.26711338541666,71.0,97.0
89,93.230575,93.67865098958333,73.0,99.0
90,93.69211250000001,93.94403505208334,76.0,99.0
91,93.92288125,94.57287989583334,74.0,100.0
92,94.6151875,94.84595625,69.0,97.0
93,94.84595625,95.11710953125,71.0,96.0
94,95.076725,95.51903177083334,73.0,96.0
95,95.5382625,95.78826197916666,76.0,99.0
96,95.76903125,96.46902979166667,74.0,100.0
97,96.4613375,96.69402932291666,69.0,88.0
98,96.69210625,96.945951875,71.0,97.0
99,96.922875,96.945951875,71.0,96.0
100,97.3844125,98.30171828125,73.0,98.0
101,98.30748750000001,99.24017786458333,76.0,98.0
102,99.2305625,99.6921,73.0,98.0
103,99.6921,100.1536375,71.0,97.0
104,100.1536375,100.63248265625,69.0,97.0
105,100.61517500000001,101.03825104166667,66.0,100.0
106,101.0767125,101.32671197916667,73.0,99.0
107,101.30748125,102.44017119791667,71.0,94.0
108,102.461325,102.94017015625,73.0,102.0
109,102.9228625,103.37093848958334,78.0,98.0
110,103.3844,103.62478411458333,76.0,99.0
111,103.61516875,103.84978364583334,78.0,102.0
112,103.8459375,104.06324473958334,80.0,96.0
113,104.07670625,104.32093651041667,81.0,91.0
114,104.307475,104.77478171875,80.0,107.0
115,104.7690125,105.01324276041667,76.0,101.0
116,104.99978125,105.01324276041667,76.0,101.0
117,105.46131875,105.91708703125,71.0,100.0
118,105.92285625,107.49977604166666,73.0,94.0
119,107.5382375,107.7574678125,69.0,96.0
120,107.76900625,108.01515958333333,71.0,96.0
121,107.999775,108.50938932291666,73.0,98.0
122,108.4613125,108.71131197916667,76.0,96.0
123,108.69208125,109.315156875,74.0,96.0
124,109.3843875,109.87284802083333,69.0,97.0
125,109.845925,110.76323078125,73.0,98.0
126,110.769,111.73245953125,71.0,98.0
127,111.692075,114.04976239583334,69.0,94.0
128,127.42728896666668,127.92344177916668,66.0,92.0
129,127.88882646666669,128.158056675,68.0,89.0
130,128.11959521666668,128.75036313333334,69.0,87.0
131,128.81190146666668,129.22920828958334,68.0,97.0
132,129.27343896666667,129.80420709166668,66.0,91.0
133,129.7349764666667,130.188821675,64.0,97.0
134,130.19651396666669,130.66574375833335,61.0,97.0
135,130.65805146666668,134.80996589375002,64.0,96.0
136,134.8118889666667,135.25804188333336,66.0,95.0
137,135.27342646666668,135.74265625833334,68.0,97.0
138,135.73496396666667,136.17342459166667,69.0,92.0
139,136.1965014666667,136.68688506041667,68.0,92.0
140,136.65803896666668,137.12149953958334,66.0,87.0
141,137.11957646666667,137.61188313333335,64.0,97.0
142,137.5811139666667,138.03111302916668,61.0,97.0
143,138.04265146666668,138.5080351125,64.0,94.0
144,138.50418896666667,138.95226495625002,71.0,94.0
145,138.9657264666667,140.84072256041668,73.0,88.0
146,140.8118764666667,140.84072256041668,73.0,96.0
147,141.27341396666668,142.59648813333334,73.0,97.0
148,142.65802646666668,143.09841016458336,71.0,97.0
149,143.11956396666668,144.53879177916667,74.0,97.0
150,144.50417646666668,144.96186782083333,71.0,96.0
151,144.96571396666667,146.33686495625003,71.0,96.0
152,146.35032646666667,146.8618638625,69.0,89.0
153,146.8118639666667,148.44262980000002,73.0,96.0
154,148.42724521666668,148.44262980000002,73.0,87.0
155,148.6580139666667,148.71378308125003,73.0,97.0
156,149.11955146666668,149.58301203958334,66.0,97.0
157,149.58108896666667,150.02916495625,69.0,82.0
158,150.0426264666667,151.41377745625002,66.0,94.0
159,151.4272389666667,151.8945456854167,69.0,90.0
160,151.88877646666668,152.3676216229167,71.0,96.0
161,152.35031396666668,154.1656948,66.0,96.0
162,154.19646396666667,156.97722740416668,64.0,96.0
163,156.96568896666668,157.40030344583334,66.0,96.0
164,157.4272264666667,157.88491782083335,68.0,97.0
165,157.8887639666667,158.28491698750003,69.0,96.0
166,158.35030146666668,158.8003005291667,68.0,97.0
167,158.8118389666667,159.27145339375002,66.0,96.0
168,159.2733764666667,159.73491396666668,64.0,105.0
169,159.73491396666668,160.19452839375,61.0,97.0
170,160.19645146666667,164.36951969583333,64.0,98.0
171,164.35028896666668,164.76759578958334,66.0,92.0
172,164.81182646666667,165.29259469583334,68.0,91.0
173,165.2733639666667,165.71951688333334,69.0,96.0
174,165.73490146666668,166.19066974791667,68.0,95.0
175,166.19643896666668,166.67143797708334,66.0,96.0
176,166.6579764666667,167.15412927916668,64.0,98.0
177,167.1195139666667,167.58874375833335,61.0,98.0
178,167.58105146666668,168.03489667500003,64.0,96.0
179,168.0425889666667,168.50028032083335,71.0,97.0
180,168.5041264666667,170.3560456854167,73.0,96.0
181,170.35027646666668,170.3560456854167,73.0,98.0
182,170.81181396666668,170.81950625833335,73.0,98.0
183,172.19642646666668,172.44642594583334,71.0,97.0
184,172.4271952166667,174.22526839375,74.0,98.0
185,174.27334521666668,174.56372922708334,71.0,91.0
186,174.5041139666667,174.56372922708334,71.0,94.0
187,175.8887264666667,176.32526401875,69.0,94.0
188,176.3502639666667,177.95218370625003,73.0,97.0
189,177.96564521666667,178.23679849791668,66.0,105.0
190,178.19641396666668,178.61372078958334,73.0,103.0
191,178.65795146666667,178.89833558125002,66.0,92.0
192,178.88872021666668,179.35218078958334,69.0,96.0
193,179.35025771666668,180.05217933125002,71.0,96.0
194,180.04256396666668,180.05217933125002,71.0,96.0
195,181.42717646666668,181.87525245625002,69.0,98.0
196,181.88871396666667,182.3617899041667,76.0,98.0
197,182.3502514666667,182.83486584166667,73.0,93.0
198,182.81178896666668,183.25217266458336,71.0,98.0
199,183.27332646666667,183.52909516458334,69.0,96.0
200,183.50409521666668,184.67716969583336,71.0,96.0
201,184.65793896666668,185.1194764666667,73.0,97.0
202,185.1194764666667,185.5810139666667,69.0,96.0
203,185.5810139666667,186.04255146666668,66.0,97.0
204,186.04255146666668,186.2733202166667,73.0,98.0
205,186.2733202166667,187.42716396666668,71.0,95.0
206,187.42716396666668,187.88870146666667,73.0,97.0
207,187.88870146666667,188.35023896666667,78.0,100.0
208,188.35023896666667,188.58100771666668,76.0,103.0
209,188.58100771666668,188.8117764666667,73.0,97.0
210,188.8117764666667,189.04254521666667,71.0,96.0
211,189.04254521666667,189.27331396666668,69.0,91.0
212,189.27331396666668,190.1963889666667,71.0,97.0
213,190.1963889666667,190.65792646666668,66.0,98.0
214,190.65792646666668,192.50407646666667,73.0,97.0
215,192.50407646666667,192.73484521666668,69.0,98.0
216,192.73484521666668,192.9656139666667,71.0,97.0
217,192.9656139666667,193.4271514666667,73.0,99.0
218,193.4271514666667,193.6579202166667,76.0,99.0
219,193.6579202166667,194.3502264666667,74.0,100.0
220,194.3502264666667,194.58099521666668,69.0,97.0
221,194.58099521666668,194.8117639666667,71.0,96.0
222,194.8117639666667,195.27330146666668,73.0,96.0
223,195.27330146666668,195.50407021666666,76.0,99.0
224,195.50407021666666,196.20406875833334,74.0,100.0
225,196.19637646666666,196.4271452166667,69.0,88.0
226,196.4271452166667,196.65599089375002,71.0,97.0
227,196.65791396666668,197.1194514666667,71.0,96.0
228,197.1194514666667,198.0425264666667,73.0,98.0
229,198.0425264666667,198.96560146666667,76.0,98.0
230,198.96560146666667,199.4271389666667,73.0,98.0
231,199.4271389666667,199.88867646666668,71.0,97.0
232,199.88867646666668,200.35021396666667,69.0,97.0
233,200.35021396666667,200.8117514666667,66.0,100.0
234,200.8117514666667,201.04252021666667,73.0,99.0
235,201.04252021666667,202.1963639666667,71.0,94.0
236,202.1963639666667,202.6579014666667,73.0,102.0
237,202.6579014666667,203.11943896666668,78.0,98.0
238,203.11943896666668,203.3502077166667,76.0,99.0
239,203.3502077166667,203.5809764666667,78.0,102.0
240,203.5809764666667,203.81174521666668,80.0,96.0
241,203.81174521666668,204.04251396666666,81.0,91.0
242,204.04251396666666,204.50405146666668,80.0,107.0
243,204.50405146666668,204.74828172708334,76.0,101.0
244,204.73482021666666,204.74828172708334,76.0,101.0
245,205.19635771666668,205.6578952166667,71.0,100.0
246,205.6578952166667,207.2732764666667,73.0,94.0
247,207.2732764666667,207.50404521666667,69.0,96.0
248,207.50404521666667,207.73481396666668,71.0,96.0
249,207.73481396666668,208.19635146666667,73.0,98.0
250,208.19635146666667,208.42712021666668,76.0,96.0
251,208.42712021666668,209.11942646666668,74.0,96.0
252,209.11942646666668,209.58096396666667,69.0,97.0
253,209.58096396666667,210.50403896666668,73.0,98.0
254,210.50403896666668,211.45211391458335,71.0,98.0
255,211.4271139666667,214.1963389666667,69.0,94.0
256,214.1963389666667,214.65787646666666,73.0,97.0
257,214.65787646666666,215.11941396666668,69.0,96.0
258,215.11941396666668,215.58095146666668,66.0,97.0
259,215.58095146666668,215.81172021666669,73.0,98.0
260,215.81172021666669,216.96556396666668,71.0,95.0
261,216.96556396666668,217.42710146666667,73.0,97.0
262,217.42710146666667,217.8886389666667,78.0,100.0
263,217.8886389666667,218.11940771666667,76.0,103.0
264,218.11940771666667,218.35017646666668,73.0,97.0
265,218.35017646666668,218.5809452166667,71.0,96.0
266,218.5809452166667,218.81171396666667,69.0,91.0
267,218.81171396666667,219.73478896666668,71.0,97.0
268,219.73478896666668,220.19632646666668,66.0,98.0
269,220.19632646666668,222.0424764666667,73.0,97.0
270,222.0424764666667,222.27324521666668,69.0,98.0
271,222.27324521666668,222.50401396666666,71.0,97.0
272,222.50401396666666,222.96555146666668,73.0,99.0
273,222.96555146666668,223.19632021666666,76.0,99.0
274,223.19632021666666,223.88862646666666,74.0,100.0
275,223.88862646666666,224.1193952166667,69.0,97.0
276,224.1193952166667,224.35016396666668,71.0,96.0
277,224.35016396666668,224.81170146666668,73.0,96.0
278,224.81170146666668,225.0424702166667,76.0,99.0
279,225.0424702166667,225.74246875833336,74.0,100.0
280,225.7347764666667,225.96554521666667,69.0,88.0
281,225.96554521666667,226.19439089375,71.0,97.0
282,226.19631396666668,226.65785146666667,71.0,96.0
283,226.65785146666667,227.58092646666668,73.0,98.0
284,227.58092646666668,228.5040014666667,76.0,98.0
285,228.5040014666667,228.96553896666668,73.0,98.0
286,228.96553896666668,229.42707646666668,71.0,97.0
287,229.42707646666668,229.8886139666667,69.0,97.0
288,229.8886139666667,230.3501514666667,66.0,100.0
289,230.3501514666667,230.5809202166667,73.0,99.0
290,230.5809202166667,231.73476396666666,71.0,94.0
291,231.73476396666666,232.19630146666668,73.0,102.0
292,232.19630146666668,232.6578389666667,78.0,98.0
293,232.6578389666667,232.88860771666668,76.0,99.0
294,232.88860771666668,233.11937646666667,78.0,102.0
295,233.11937646666667,233.35014521666668,80.0,96.0
296,233.35014521666668,233.58091396666669,81.0,91.0
297,233.58091396666669,234.04245146666668,80.0,107.0
298,234.04245146666668,234.28668172708336,76.0,101.0
299,234.2732202166667,234.28668172708336,76.0,101.0
300,234.73475771666668,235.19629521666667,71.0,100.0
301,235.19629521666667,236.81167646666668,73.0,94.0
302,236.81167646666668,237.0424452166667,69.0,96.0
303,237.0424452166667,237.27321396666667,71.0,96.0
304,237.27321396666667,237.7347514666667,73.0,98.0
305,237.7347514666667,237.96552021666668,76.0,96.0
306,237.96552021666668,238.65782646666668,74.0,96.0
307,238.65782646666668,239.1193639666667,69.0,97.0
308,239.1193639666667,240.04243896666668,73.0,98.0
309,240.04243896666668,240.99051391458335,71.0,98.0
310,240.96551396666666,244.21743026875004,69.0,94.0
311,244.1962764666667,244.21743026875004,69.0,97.0
312,244.42704521666667,244.73473688333337,71.0,97.0
313,244.8885827166667,245.4193508416667,73.0,102.0
314,245.35012021666668,245.65588881041668,76.0,97.0
315,245.5808889666667,246.311656675,74.0,97.0
316,246.2731952166667,246.77511724791668,69.0,94.0
317,246.9655014666667,248.3443447479167,73.0,96.0
318,248.1193452166667,248.82703605,71.0,96.0
319,248.8116514666667,248.82703605,71.0,95.0
320,249.27318896666668,252.04049089375002,69.0,84.0
