,start,end,pitch,velocity
0,0.6346140625,1.0076902083333334,62.0,90.0
1,0.6307679166666667,1.0115363541666667,66.0,89.0
2,1.1115361458333333,1.2576896875,73.0,87.0
3,1.3480741145833333,1.52884296875,71.0,96.0
4,0.62884484375,3.2961469791666667,50.0,98.0
5,4.2346065625,4.81729765625,59.0,87.0
6,4.223068125,4.8269130208333335,61.0,88.0
7,4.688451770833334,4.842297604166666,73.0,95.0
8,4.21729890625,5.888449270833333,49.0,79.0
9,4.2076835416666665,5.89037234375,56.0,82.0
10,4.9288358854166665,6.630755416666667,71.0,92.0
11,8.251905885416667,8.621135885416667,68.0,84.0
12,8.25575203125,8.64805890625,64.0,87.0
13,8.742289479166667,8.899981458333333,73.0,88.0
14,8.978827447916666,9.099981041666666,71.0,98.0
15,8.257675104166667,11.0653615625,40.0,97.0
16,11.999975000000001,12.52497390625,68.0,90.0
17,11.999975000000001,12.626896770833334,61.0,86.0
18,12.4615125,13.057665104166666,49.0,60.0
19,12.92305,13.313433802083333,68.0,85.0
20,12.92305,13.42497203125,61.0,87.0
21,13.3845875,13.98458625,49.0,59.0
22,13.846125,14.303816354166667,69.0,92.0
23,13.846125,14.507662083333333,61.0,85.0
24,14.3076625,14.8730459375,49.0,63.0
25,14.7692,15.57112140625,61.0,92.0
26,14.7692,15.598044427083334,68.0,88.0
27,11.999975000000001,15.644198177083334,42.0,86.0
28,15.2307375,15.70958265625,49.0,93.0
29,15.692275,16.31150447916667,47.0,66.0
30,15.92304375,16.336504427083334,54.0,66.0
31,16.1538125,16.451888802083335,59.0,69.0
32,16.38458125,16.71342671875,62.0,69.0
33,17.0768875,17.332656197916666,61.0,84.0
34,16.61535,17.344194635416667,49.0,75.0
35,16.84611875,17.37111765625,57.0,77.0
36,17.30765625,17.58457875,64.0,93.0
37,17.538425,17.988424062500002,62.0,86.0
38,17.538425,18.032654739583332,66.0,85.0
39,17.538425,22.184569166666666,38.0,109.0
40,17.9999625,22.38456875,57.0,90.0
41,17.76919375,22.41341484375,50.0,81.0
42,18.23073125,22.9961059375,62.0,91.0
43,26.674944427083332,27.690326927083333,57.0,80.0
44,26.744175052083335,27.711480729166666,62.0,87.0
45,26.8037903125,27.769172916666665,66.0,82.0
46,26.769175,27.92878796875,47.0,91.0
47,28.615325,28.9268628125,40.0,85.0
48,28.590325052083333,29.559553802083332,64.0,83.0
49,28.63263265625,29.56339994791667,68.0,82.0
50,28.726863229166668,29.58455375,71.0,75.0
51,30.461475,31.017243072916667,61.0,86.0
52,30.461475,31.248011822916666,57.0,82.0
53,31.38455,31.88647203125,59.0,92.0
54,31.8460875,32.18454833333333,61.0,101.0
55,30.9230125,32.43647088541667,52.0,80.0
56,32.307625,32.934546770833336,57.0,83.0
57,32.307625,32.98070052083333,64.0,96.0
58,30.461475,33.415315,45.0,93.0
59,33.2307,33.59416078125,57.0,90.0
60,33.2307,33.59416078125,61.0,91.0
61,34.153775,34.861465833333334,57.0,78.0
62,34.6153125,35.182619010416666,54.0,55.0
63,35.07685,35.21723432291667,57.0,81.0
64,34.153775,35.219157395833335,62.0,86.0
65,34.153775,35.330695625,47.0,92.0
66,35.999925,36.7499234375,64.0,77.0
67,35.999925,36.89030776041667,71.0,90.0
68,35.999925,36.9345384375,52.0,98.0
69,36.4614625,36.95184609375,59.0,82.0
70,35.999925,36.978769114583336,68.0,86.0
71,36.923,37.105691927083335,64.0,85.0
72,37.846075,38.17876661458333,61.0,77.0
73,37.846075,38.542227395833336,64.0,77.0
74,37.846075,38.79607302083333,57.0,87.0
75,38.76915,39.23837979166667,59.0,96.0
76,39.2306875,39.488379270833335,61.0,98.0
77,38.3076125,39.94222447916667,52.0,85.0
78,39.692225,40.14030098958333,64.0,97.0
79,39.692225,40.24607,57.0,87.0
80,40.1537625,40.7191459375,52.0,57.0
81,37.846075,40.76145354166667,45.0,94.0
82,40.6153,40.76145354166667,61.0,93.0
83,40.6153,40.78645348958333,57.0,95.0
84,41.30760625,41.534528854166666,68.0,81.0
85,41.538375,42.044143177083335,74.0,85.0
86,41.538375,42.06337390625,71.0,94.0
87,41.9999125,42.56914208333333,68.0,74.0
88,41.538375,42.97106432291667,44.0,88.0
89,42.46145,43.371063489583335,74.0,100.0
90,43.384525000000004,44.50759958333333,49.0,88.0
91,43.8460625,44.55375333333333,56.0,87.0
92,44.3076,44.776829791666664,68.0,93.0
93,44.3076,44.80182973958333,61.0,88.0
94,45.230675,45.47682833333334,57.0,97.0
95,45.230675,45.482597552083334,54.0,85.0
96,45.692212500000004,46.42105713541667,54.0,83.0
97,45.230675,46.65182588541667,42.0,91.0
98,46.15375,46.911440729166664,66.0,91.0
99,46.15375,46.92105609375,73.0,90.0
100,47.076825,47.77490046875,68.0,87.0
101,47.076825,47.801823489583334,63.0,83.0
102,47.076825,47.9075925,59.0,82.0
103,47.5383625,48.880667395833335,54.0,55.0
104,47.999900000000004,48.892205833333335,59.0,91.0
105,47.999900000000004,48.899898125,63.0,84.0
106,47.999900000000004,48.92105192708333,68.0,91.0
107,47.076825,48.95182109375,47.0,89.0
108,48.922975,48.95182109375,47.0,89.0
109,48.922975,49.599896666666666,62.0,85.0
110,48.922975,49.94220364583333,57.0,80.0
111,49.3845125,50.06335723958333,54.0,54.0
112,49.84605,50.42874109375,62.0,95.0
113,50.769125,51.47873890625,57.0,86.0
114,50.769125,51.6575846875,66.0,89.0
115,50.307587500000004,51.72104609375,54.0,72.0
116,51.6922,51.89027651041667,57.0,87.0
117,51.6922,52.22873734375,62.0,94.0
118,52.1537375,52.346044791666664,57.0,87.0
119,52.615275,52.703736354166665,40.0,97.0
120,52.615275,52.936428177083336,59.0,91.0
121,52.615275,53.051812552083334,64.0,90.0
122,53.9998875,54.38257901041667,69.0,89.0
123,53.53835,54.601809322916665,59.0,96.0
124,54.461425,54.9229625,64.0,91.0
125,54.461425,54.93065479166667,71.0,92.0
126,55.15373125,55.386423072916664,64.0,80.0
127,55.3845,55.52296125,68.0,82.0
128,55.3845,55.913345052083336,76.0,97.0
129,54.9229625,55.92296041666667,59.0,79.0
130,55.3845,55.92488348958334,71.0,93.0
131,53.0768125,55.99796026041667,52.0,79.0
132,56.307575,56.94026598958333,66.0,84.0
133,56.307575,56.96718901041667,62.0,87.0
134,56.307575,56.984496666666665,69.0,82.0
135,57.23065,57.36911125,62.0,86.0
136,56.7691125,57.405649635416665,57.0,78.0
137,56.307575,57.45949567708333,50.0,96.0
138,57.23065,57.64795682291667,66.0,88.0
139,57.23065,57.776802708333335,69.0,91.0
140,58.153725,58.38449375,40.0,91.0
141,58.153725,59.18833822916667,64.0,91.0
142,59.0768,59.376799375,59.0,96.0
143,58.6152625,59.39795317708333,52.0,93.0
144,58.153725,59.403722395833334,68.0,89.0
145,59.5383375,59.8267984375,64.0,97.0
146,59.999875,60.29218208333334,64.0,88.0
147,59.999875,60.37295114583333,69.0,84.0
148,60.4614125,60.9575653125,52.0,84.0
149,60.92295,61.697948385416666,59.0,91.0
150,61.3844875,61.9498709375,52.0,83.0
151,61.846025,62.35371625,64.0,98.0
152,61.846025,62.42486994791667,57.0,89.0
153,59.999875,62.87871515625,45.0,88.0
154,62.3075625,62.951791927083335,52.0,84.0
155,62.7691,62.9883303125,61.0,96.0
156,62.7691,62.99602260416667,57.0,94.0
157,63.692175,64.35755822916667,59.0,88.0
158,64.1537125,64.67486526041667,54.0,80.0
159,63.692175,64.67486526041667,62.0,92.0
160,63.692175,64.88448020833333,47.0,94.0
161,64.61525,65.33447927083333,59.0,94.0
162,65.538325,65.65947859375,40.0,95.0
163,65.538325,65.78447833333334,59.0,90.0
164,65.538325,65.84601666666667,64.0,95.0
165,66.4614,66.83063,59.0,97.0
166,65.9998625,66.87293760416667,52.0,87.0
167,66.9229375,67.42101338541667,68.0,98.0
168,67.384475,67.83832020833333,64.0,92.0
169,67.384475,67.8806278125,69.0,93.0
170,68.30755,68.79793359375,59.0,90.0
171,68.7690875,69.13447135416666,61.0,101.0
172,67.8460125,69.3113940625,52.0,85.0
173,69.230625,69.91331588541667,61.0,91.0
174,69.230625,69.91908510416667,64.0,97.0
175,69.230625,69.92677739583334,57.0,89.0
176,70.1537,70.23062291666666,61.0,90.0
177,70.1537,70.26331515625,57.0,91.0
178,70.1537,70.31139197916667,64.0,97.0
179,69.6921625,70.4190840625,52.0,73.0
180,67.384475,70.48446854166667,45.0,96.0
181,71.076775,71.36908208333334,68.0,89.0
182,71.076775,71.64023536458333,71.0,97.0
183,71.076775,71.64408151041667,74.0,97.0
184,71.99985,72.24792640625,71.0,95.0
185,71.99985,72.27869557291666,68.0,88.0
186,71.99985,72.32292625,74.0,99.0
187,71.076775,72.3575415625,44.0,94.0
188,72.922925,73.54407755208334,68.0,90.0
189,72.922925,73.62484661458333,61.0,92.0
190,73.3844625,74.01330734375,56.0,77.0
191,72.922925,74.08446104166667,49.0,86.0
192,73.846,74.44984489583334,68.0,92.0
193,73.846,74.48638328125,61.0,98.0
194,74.769075,75.76330369791667,42.0,97.0
195,75.2306125,75.76714984375,54.0,98.0
196,75.69215,76.1536875,57.0,94.0
197,76.1536875,76.54407130208334,54.0,75.0
198,75.69215,76.62484036458333,61.0,91.0
199,76.615225,76.88253213541667,63.0,87.0
200,76.615225,77.42099255208333,69.0,86.0
201,76.615225,77.62676135416666,66.0,78.0
202,76.615225,77.76137645833333,51.0,88.0
203,77.0767625,77.8036840625,57.0,74.0
204,77.5383,78.07676041666667,63.0,92.0
205,77.9998375,78.50175953125,69.0,92.0
206,78.461375,79.05560453125,59.0,89.0
207,78.461375,79.40944994791667,62.0,92.0
208,78.461375,79.453680625,66.0,89.0
209,78.9229125,79.50368052083333,54.0,80.0
210,79.38445,80.11521770833333,59.0,97.0
211,79.8459875,80.47098619791667,54.0,81.0
212,80.307525,80.90944682291666,59.0,91.0
213,80.307525,80.94406213541667,66.0,87.0
214,80.7690625,81.34790744791667,54.0,65.0
215,81.2306,81.37675354166667,59.0,96.0
216,81.2306,81.39021505208333,62.0,86.0
217,78.461375,81.44598416666666,47.0,88.0
218,81.6921375,81.85752177083333,47.0,96.0
219,82.153675,82.32290541666667,40.0,96.0
220,82.153675,83.09021151041667,64.0,88.0
221,82.153675,83.25174963541667,68.0,90.0
222,83.07675,83.91328671875,59.0,100.0
223,82.6152125,83.91713286458334,52.0,88.0
224,83.5382875,84.22290145833334,64.0,110.0
225,83.999825,84.37097807291667,76.0,97.0
226,83.999825,84.4036703125,71.0,92.0
227,83.999825,84.5190546875,68.0,83.0
228,84.4613625,84.77674645833333,64.0,98.0
229,84.23059375,84.86713088541667,59.0,91.0
230,83.999825,85.2344378125,52.0,101.0
231,84.9229,85.24405317708333,56.0,98.0
232,85.15366875,85.36520677083334,59.0,96.0
233,84.69213125,85.42482203125,68.0,103.0
234,85.3844375,85.50943723958333,64.0,98.0
235,85.845975,86.50751208333334,66.0,91.0
236,85.845975,86.79020380208334,62.0,93.0
237,86.3075125,87.23827979166667,57.0,80.0
238,85.845975,87.24981822916666,50.0,99.0
239,86.76905000000001,87.27289510416666,66.0,96.0
240,86.76905000000001,87.36712567708334,69.0,93.0
241,87.2305875,87.3805871875,62.0,96.0
242,87.692125,88.35366208333333,64.0,92.0
243,87.692125,88.38250817708334,68.0,91.0
244,88.1536625,88.730584375,59.0,83.0
245,88.6152,88.74596895833334,68.0,92.0
246,87.692125,88.75366125000001,52.0,98.0
247,88.6152,88.76904583333334,64.0,98.0
248,89.538275,90.18250442708333,64.0,98.0
249,89.538275,90.44788848958333,49.0,97.0
250,89.9998125,90.45750385416667,56.0,78.0
251,89.538275,90.51519604166667,61.0,89.0
252,90.46135,90.76519552083333,64.0,101.0
253,90.46135,90.81134927083333,68.0,98.0
254,91.38442500000001,91.89596239583334,57.0,92.0
255,91.38442500000001,91.89788546875,61.0,89.0
256,91.38442500000001,92.04980822916667,54.0,88.0
257,91.8459625,92.55365333333333,49.0,84.0
258,91.38442500000001,92.5728840625,42.0,96.0
259,92.3075,92.57865328125,54.0,96.0
260,92.3075,92.77096057291666,66.0,91.0
261,93.230575,93.91903510416667,59.0,91.0
262,93.230575,93.94211197916667,62.0,96.0
263,93.69211250000001,94.18826531250001,54.0,80.0
264,93.230575,94.29211125,47.0,97.0
265,94.15365,94.69211041666667,59.0,98.0
266,94.6151875,94.73441802083333,62.0,97.0
267,95.076725,95.72864671875,64.0,96.0
268,95.076725,95.7805696875,68.0,91.0
269,95.5382625,96.15364583333333,59.0,90.0
270,95.076725,96.2767225,52.0,100.0
271,95.99980000000001,96.46326057291667,68.0,93.0
272,95.99980000000001,96.50556817708333,64.0,96.0
273,96.922875,97.35941255208333,69.0,91.0
274,96.922875,97.39210479166667,64.0,92.0
275,97.3844125,97.9959496875,52.0,90.0
276,96.922875,98.63825604166666,45.0,96.0
277,97.84595,98.66325598958333,59.0,95.0
278,98.30748750000001,98.70940973958334,52.0,96.0
279,98.769025,99.27287010416667,61.0,92.0
280,98.769025,99.3574853125,64.0,99.0
281,98.769025,99.530561875,57.0,92.0
282,99.2305625,99.86133041666666,52.0,96.0
283,98.769025,99.94017640625,45.0,98.0
284,99.6921,100.17479130208334,61.0,98.0
285,99.6921,100.31902177083333,64.0,99.0
286,99.6921,100.3728678125,57.0,97.0
287,100.1536375,100.50171369791667,45.0,96.0
288,100.61517500000001,100.88248213541667,57.0,92.0
289,100.61517500000001,101.29209666666667,62.0,96.0
290,101.0767125,101.40171182291667,57.0,84.0
291,101.53825,101.79594177083334,57.0,95.0
292,100.61517500000001,101.81901864583334,50.0,96.0
293,101.53825,101.84017244791667,62.0,98.0
294,101.53825,101.90171078125,66.0,92.0
295,102.461325,103.1074775,68.0,96.0
296,102.461325,103.14016973958333,64.0,98.0
297,102.9228625,103.42286145833333,59.0,89.0
298,102.461325,103.44786140625,52.0,99.0
299,103.3844,103.76324536458334,68.0,96.0
300,103.3844,103.84401442708334,71.0,96.0
301,104.307475,105.00939661458334,64.0,97.0
302,104.307475,105.08631953125,61.0,86.0
303,104.307475,105.38439583333333,49.0,96.0
304,104.7690125,105.38439583333333,56.0,80.0
305,105.23055,105.41901114583334,61.0,97.0
306,105.23055,105.57478005208334,64.0,101.0
307,105.23055,105.62477994791666,68.0,91.0
308,106.153625,106.684393125,61.0,91.0
309,106.153625,106.70170078125,57.0,97.0
310,106.153625,106.86708505208334,54.0,90.0
311,106.6151625,107.23439197916667,49.0,77.0
312,106.153625,107.24016119791666,42.0,97.0
313,107.0767,107.36516093750001,54.0,89.0
314,107.0767,107.48439145833333,66.0,95.0
315,107.999775,108.67861973958334,59.0,87.0
316,107.999775,108.68823510416667,66.0,89.0
317,107.999775,108.69977354166667,62.0,95.0
318,108.4613125,109.03054208333333,54.0,82.0
319,107.999775,109.1420803125,47.0,96.0
320,108.92285,109.15746489583333,59.0,94.0
321,108.92285,109.1882340625,62.0,97.0
322,108.92285,109.21708015625,66.0,94.0
323,109.845925,110.08246296875001,40.0,84.0
324,109.845925,110.88246130208333,68.0,89.0
325,109.845925,110.90169203125001,64.0,92.0
326,110.769,111.21322984375,59.0,99.0
327,110.3074625,111.2420759375,52.0,96.0
328,109.845925,111.30938348958334,71.0,91.0
329,111.2305375,111.85745927083333,64.0,101.0
330,111.692075,112.27476609375,66.0,88.0
331,111.692075,112.62861151041666,69.0,96.0
332,111.692075,112.67476526041666,42.0,90.0
333,112.1536125,112.72284208333333,49.0,80.0
334,112.61515,112.96514927083334,66.0,91.0
335,113.30745625,113.9189934375,62.0,81.0
336,113.538225,114.0343778125,69.0,84.0
337,113.538225,114.10937765625,66.0,83.0
338,113.9997625,114.70745333333333,57.0,83.0
339,113.538225,114.78822239583333,50.0,97.0
340,114.69206875,115.25552911458334,66.0,98.0
341,114.4613,115.26129833333333,62.0,96.0
342,114.9228375,115.46129791666667,69.0,95.0
343,115.15360625,115.47860557291666,74.0,95.0
344,116.07668125000001,116.26129625,54.0,84.0
345,116.192065625,116.29783463541666,57.0,79.0
346,115.8459125,116.41321901041667,49.0,84.0
347,115.384375,116.42668052083333,42.0,96.0
348,116.30745,116.43821895833334,61.0,92.0
349,116.99975625,117.34975552083334,69.0,79.0
350,117.115140625,117.4036015625,66.0,84.0
351,117.230525,117.79783151041667,62.0,84.0
352,117.6920625,117.92283125,64.0,97.0
353,117.46129375,117.97283114583334,57.0,90.0
354,117.92283125,118.23629213541666,66.0,105.0
355,117.230525,118.4189840625,50.0,101.0
356,118.1536,118.42859942708333,57.0,96.0
357,118.38436875000001,118.65359895833333,69.0,99.0
358,118.6151375,118.71513729166666,62.0,81.0
359,119.076675,119.46705880208333,69.0,96.0
360,119.30744375,119.61513541666666,61.0,96.0
361,119.5382125,119.82090421875,66.0,90.0
362,119.076675,119.93628859375,42.0,96.0
363,119.076675,119.93628859375,42.0,98.0
364,119.76898125,119.9420578125,61.0,92.0
365,119.99975,120.17667270833333,42.0,81.0
366,119.99975,120.207441875,49.0,87.0
367,119.99975,120.28244171875001,66.0,96.0
368,119.99975,120.29398015625,69.0,92.0
369,120.23051875,120.51128739583334,61.0,96.0
370,120.4612875,120.73051770833334,66.0,86.0
371,120.4612875,120.79013296875,69.0,91.0
372,120.922825,121.18436291666667,66.0,88.0
373,120.922825,121.21705515625,69.0,96.0
374,121.15359375,121.45551619791667,62.0,83.0
375,121.3843625,121.61897739583334,66.0,89.0
376,121.61513125,121.7882078125,62.0,85.0
377,121.8459,122.07282260416667,66.0,99.0
378,121.8459,122.12859171875,69.0,96.0
379,120.922825,122.30359135416667,38.0,96.0
380,122.07666875,122.34397588541667,62.0,88.0
381,122.3074375,122.5497446875,66.0,94.0
382,122.53820625,122.67282135416667,62.0,87.0
383,122.768975,123.28243546875,68.0,94.0
384,123.46128125,123.715126875,64.0,99.0
385,123.69205,123.85935734375,68.0,98.0
386,123.92281875,124.11320296875,64.0,98.0
387,123.2305125,124.39012546875,59.0,88.0
388,122.99974375000001,124.39781776041667,52.0,96.0
389,122.768975,124.545894375,40.0,98.0
390,124.38435625,124.54974052083334,68.0,97.0
391,124.1535875,124.56897125,71.0,92.0
392,124.615125,125.16486314583334,76.0,95.0
393,124.615125,125.19807069791668,68.0,89.0
394,124.615125,125.24690533333334,71.0,87.0
395,124.615125,125.25862564583335,64.0,87.0
396,124.615125,125.67530302500002,52.0,100.0
397,125.07917113125,125.68717301250001,59.0,85.0
398,125.54895346250001,126.32342538125,71.0,94.0
399,125.54895346250001,126.32543214375,64.0,96.0
400,125.54895346250001,126.32543214375,68.0,96.0
401,126.50421396666668,127.28498157083335,62.0,92.0
402,126.96575146666669,127.34075068541668,54.0,79.0
403,127.19652021666668,127.72344219583334,59.0,95.0
404,127.42728896666668,127.80421125833335,54.0,76.0
405,127.65805771666668,127.86767266458335,66.0,97.0
406,126.50421396666668,127.87921110208335,47.0,95.0
407,128.3503639666667,129.0022856854167,64.0,90.0
408,128.3503639666667,129.17920839375,68.0,43.0
409,128.81190146666668,129.83689933125,59.0,85.0
410,128.3503639666667,129.90420688333336,52.0,98.0
411,129.7349764666667,129.911899175,56.0,90.0
412,129.96574521666668,130.3349752166667,68.0,86.0
413,130.4272827166667,130.88497407083335,52.0,88.0
414,130.65805146666668,130.93305089375002,59.0,96.0
415,130.19651396666669,131.8618951125,45.0,94.0
416,131.5811264666667,131.86766433125,52.0,78.0
417,130.8888202166667,132.03689474791668,61.0,101.0
418,132.04266396666668,132.68689339375,64.0,97.0
419,131.81189521666667,132.85612381041668,57.0,83.0
420,132.9657389666667,133.22343073750002,59.0,96.0
421,132.50420146666667,133.23112302916667,52.0,77.0
422,132.04266396666668,133.32343052916667,45.0,92.0
423,133.19650771666667,133.5195839666667,61.0,97.0
424,133.42727646666668,133.58304537291667,57.0,84.0
425,133.88881396666667,134.41381287291668,59.0,89.0
426,133.88881396666667,134.63688933125002,62.0,88.0
427,134.3503514666667,135.07919610208336,54.0,84.0
428,134.58112021666668,135.127272925,57.0,90.0
429,133.88881396666667,135.15611901875002,47.0,96.0
430,135.04265771666667,135.32534943541668,62.0,92.0
431,135.27342646666668,135.46573375833336,66.0,87.0
432,135.73496396666667,136.7215003729167,64.0,88.0
433,136.65803896666668,137.02919203958334,68.0,96.0
434,136.1965014666667,137.10996110208336,59.0,90.0
435,135.73496396666667,137.13688412291668,52.0,97.0
436,137.5811139666667,137.91765172708335,69.0,88.0
437,137.5811139666667,137.9618824041667,64.0,88.0
438,138.04265146666668,138.35034313333335,52.0,85.0
439,138.2734202166667,138.82918828958336,59.0,92.0
440,138.50418896666667,139.08111084166669,52.0,83.0
441,138.73495771666668,139.096495425,61.0,102.0
442,137.5811139666667,139.2464951125,45.0,95.0
443,139.4272639666667,140.07341646666669,64.0,97.0
444,139.4272639666667,140.1195702166667,57.0,85.0
445,140.35033896666667,140.49649250833335,61.0,90.0
446,140.35033896666667,140.53687703958335,64.0,98.0
447,140.35033896666667,140.55033855000002,57.0,91.0
448,139.4272639666667,140.63110761250002,45.0,94.0
449,139.88880146666668,140.64264605000002,52.0,77.0
450,141.27341396666668,141.89264344583336,62.0,89.0
451,141.27341396666668,141.9311049041667,59.0,90.0
452,141.27341396666668,141.94264334166667,56.0,84.0
453,142.1964889666667,142.29648875833334,56.0,90.0
454,142.1964889666667,142.29841183125,59.0,97.0
455,141.27341396666668,142.3291809979167,44.0,86.0
456,142.1964889666667,142.35225787291668,62.0,97.0
457,143.11956396666668,143.58687068541667,66.0,90.0
458,143.11956396666668,143.82340865416668,61.0,87.0
459,143.58110146666667,144.2214847479167,56.0,77.0
460,143.11956396666668,144.28302308125,49.0,93.0
461,144.0426389666667,144.33686912291668,65.0,95.0
462,144.0426389666667,144.35225370625002,61.0,90.0
463,144.96571396666667,145.50225131041668,69.0,96.0
464,144.96571396666667,145.65417407083334,66.0,87.0
465,144.96571396666667,146.4714800604167,42.0,92.0
466,145.4272514666667,146.50801844583336,49.0,70.0
467,145.88878896666668,146.73686412291667,66.0,94.0
468,145.88878896666668,146.74455641458334,73.0,92.0
469,146.8118639666667,147.38686276875,66.0,87.0
470,146.8118639666667,147.38878584166667,63.0,87.0
471,146.8118639666667,147.4387857375,69.0,87.0
472,146.8118639666667,147.83301568541668,59.0,86.0
473,147.27340146666668,147.91570782083335,54.0,75.0
474,146.8118639666667,148.15609193541667,47.0,92.0
475,147.73493896666668,148.2368609979167,63.0,87.0
476,147.73493896666668,148.3695530291667,66.0,84.0
477,148.1964764666667,148.373399175,59.0,89.0
478,148.6580139666667,149.44070464375002,62.0,90.0
479,148.6580139666667,149.63878115416668,59.0,90.0
480,149.11955146666668,149.75416552916667,54.0,73.0
481,149.58108896666667,150.11378016458335,66.0,97.0
482,150.0426264666667,150.61954834166667,54.0,75.0
483,150.50416396666668,151.19262407083335,62.0,88.0
484,150.50416396666668,151.23300860208334,59.0,85.0
485,150.96570146666667,151.46570042500002,54.0,58.0
486,148.6580139666667,151.63300776875002,47.0,95.0
487,151.4272389666667,151.6464692791667,59.0,96.0
488,151.4272389666667,151.66377693541668,62.0,96.0
489,152.35031396666668,153.3656964666667,64.0,91.0
490,152.35031396666668,153.40223485208335,40.0,94.0
491,152.35031396666668,153.42338865416667,68.0,89.0
492,153.2733889666667,154.02531047708334,59.0,100.0
493,152.81185146666667,154.10992568541667,52.0,77.0
494,154.19646396666667,154.64261688333335,76.0,96.0
495,153.73492646666668,154.65030917500002,64.0,107.0
496,154.19646396666667,154.72530901875,68.0,85.0
497,154.19646396666667,154.99069308125001,71.0,95.0
498,154.6580014666667,155.00800073750003,59.0,86.0
499,154.88877021666667,155.02915453958335,64.0,92.0
500,155.11953896666668,155.42338448750002,64.0,102.0
501,155.11953896666668,155.57723032083334,68.0,97.0
502,155.11953896666668,155.619537925,76.0,98.0
503,154.19646396666667,155.6560763104167,52.0,101.0
504,155.11953896666668,156.02146016458335,71.0,98.0
505,155.3503077166667,156.05222933125,59.0,93.0
506,155.58107646666667,156.05799855,56.0,99.0
507,156.0426139666667,157.06761183125002,62.0,86.0
508,156.0426139666667,157.15991933125002,38.0,88.0
509,156.0426139666667,157.20991922708333,66.0,88.0
510,156.50415146666668,157.52145703958334,50.0,72.0
511,156.96568896666668,157.53876469583335,57.0,98.0
512,157.19645771666669,157.604149175,62.0,96.0
513,157.8887639666667,158.48683964375002,64.0,93.0
514,158.35030146666668,158.81760818541667,59.0,88.0
515,157.8887639666667,158.85414657083334,52.0,96.0
516,158.8118389666667,159.727221675,64.0,101.0
517,159.2733764666667,159.78876000833336,68.0,97.0
518,159.73491396666668,160.1387592791667,69.0,92.0
519,160.65798896666666,160.93298839375,59.0,95.0
520,160.88875771666667,161.12914183125002,61.0,102.0
521,160.19645146666667,161.38298745625002,52.0,81.0
522,161.11952646666668,161.42337198750002,64.0,99.0
523,159.73491396666668,161.43875657083333,45.0,92.0
524,161.58106396666668,162.28298558125002,64.0,96.0
525,161.58106396666668,162.29452401875002,61.0,89.0
526,161.35029521666667,162.3002932375,57.0,87.0
527,162.04260146666667,162.7233692791667,52.0,82.0
528,161.58106396666668,162.7502923,45.0,96.0
529,162.5041389666667,162.81567677916667,61.0,96.0
530,162.5041389666667,162.82336907083334,57.0,92.0
531,162.5041389666667,163.01952250833335,64.0,99.0
532,163.42721396666667,164.14067401875002,62.0,90.0
533,163.42721396666667,164.42721188333334,57.0,91.0
534,163.8887514666667,164.46375026875,54.0,76.0
535,164.5810577166667,164.7599034979167,54.0,87.0
536,163.42721396666667,164.77144193541668,47.0,91.0
537,164.35028896666668,164.8406725604167,62.0,96.0
538,164.35028896666668,164.89067245625,66.0,93.0
539,164.81182646666667,165.1349027166667,57.0,90.0
540,165.04259521666668,165.32913308125,62.0,96.0
541,165.73490146666668,166.33682328958335,47.0,85.0
542,165.2733639666667,166.38490011250002,40.0,96.0
543,166.19643896666668,166.72528401875002,56.0,98.0
544,166.6579764666667,166.84066839375,52.0,94.0
545,165.2733639666667,166.92143745625003,64.0,98.0
546,167.1195139666667,167.6964358416667,61.0,90.0
547,167.1195139666667,168.081050425,57.0,87.0
548,168.0425889666667,168.34066526875,59.0,97.0
549,168.27335771666668,168.5310494875,61.0,103.0
550,167.58105146666668,168.68681839375,52.0,91.0
551,168.5041264666667,168.69643375833334,64.0,98.0
552,167.1195139666667,168.76181823750002,45.0,96.0
553,168.96566396666668,169.58681651875003,61.0,87.0
554,168.96566396666668,169.61950875833335,64.0,94.0
555,168.73489521666667,169.62720105000002,57.0,85.0
556,169.88873896666666,169.95796959166668,61.0,98.0
557,169.88873896666666,169.99450797708334,57.0,97.0
558,169.88873896666666,170.04450787291668,64.0,102.0
559,169.42720146666667,170.1695076125,52.0,88.0
560,168.96566396666668,170.204122925,45.0,96.0
561,170.81181396666668,171.08681339375002,68.0,87.0
562,170.81181396666668,171.42335115416668,74.0,98.0
563,170.81181396666668,171.51373558125002,71.0,97.0
564,171.7348889666667,171.84835026875,71.0,96.0
565,171.7348889666667,171.86565792500002,68.0,88.0
566,171.7348889666667,171.86950407083336,74.0,97.0
567,170.81181396666668,172.050272925,44.0,90.0
568,172.65796396666667,173.05988620625,61.0,96.0
569,172.65796396666667,173.14834756041668,66.0,98.0
570,172.65796396666667,173.51757756041667,37.0,100.0
571,173.1195014666667,173.53103907083334,44.0,77.0
572,173.58103896666668,173.90796136250003,61.0,91.0
573,173.58103896666668,174.01373037291668,65.0,98.0
574,173.58103896666668,174.04257646666667,37.0,87.0
575,174.5041139666667,175.12334344583334,66.0,89.0
576,174.5041139666667,175.16372797708334,61.0,72.0
577,174.5041139666667,175.16757412291668,69.0,91.0
578,174.5041139666667,175.55411177916667,42.0,91.0
579,174.96565146666669,175.57526558125002,49.0,76.0
580,175.42718896666668,175.66757308125,61.0,95.0
581,175.42718896666668,175.98680318541668,66.0,95.0
582,175.8887264666667,176.06564917500003,61.0,84.0
583,175.42718896666668,176.12141828958335,69.0,97.0
584,176.3502639666667,176.90410896666668,69.0,91.0
585,176.3502639666667,176.9771857375,66.0,87.0
586,176.3502639666667,177.02526256041668,63.0,62.0
587,176.81180146666668,177.29256969583335,59.0,54.0
588,176.3502639666667,177.33872344583335,51.0,86.0
589,177.2733389666667,177.5271845916667,63.0,92.0
590,177.2733389666667,177.53679995625,66.0,92.0
591,177.2733389666667,177.65026125833336,69.0,98.0
592,178.19641396666668,178.84833568541669,62.0,90.0
593,178.19641396666668,178.8694894875,59.0,89.0
594,178.65795146666667,179.2867963104167,54.0,80.0
595,179.11948896666667,179.40218068541668,66.0,94.0
596,179.11948896666667,179.76179532083336,59.0,98.0
597,178.19641396666668,179.93102573750002,47.0,96.0
598,179.58102646666669,180.05602547708335,54.0,75.0
599,180.04256396666668,180.57140901875002,66.0,88.0
600,180.04256396666668,180.61179355000002,59.0,91.0
601,180.50410146666667,181.0060234979167,54.0,84.0
602,180.04256396666668,181.14063860208336,47.0,95.0
603,180.9656389666667,181.14256167500002,59.0,97.0
604,180.9656389666667,181.68294516458334,62.0,98.0
605,181.42717646666668,181.973329175,59.0,93.0
606,181.88871396666667,182.3617899041667,64.0,97.0
607,182.3502514666667,182.78678901875003,47.0,105.0
608,181.88871396666667,182.80601974791668,40.0,98.0
609,182.81178896666668,183.08871146666667,52.0,101.0
610,183.0425577166667,183.24640344583335,56.0,103.0
611,183.27332646666667,183.3887108416667,59.0,96.0
612,183.7348639666667,183.9829403729167,64.0,97.0
613,183.7348639666667,184.05217099791668,68.0,91.0
614,184.19640146666669,184.49640084166668,64.0,110.0
615,184.4271702166667,184.54640073750002,71.0,97.0
616,183.96563271666668,184.69447735208334,59.0,98.0
617,184.65793896666668,184.93293839375002,64.0,103.0
618,183.7348639666667,184.9406306854167,52.0,100.0
619,184.8887077166667,185.04639969583334,59.0,96.0
620,184.65793896666668,185.0887073,76.0,98.0
621,184.65793896666668,185.14447641458335,71.0,96.0
622,185.1194764666667,185.2752453729167,64.0,101.0
623,185.5810139666667,186.22524339375002,62.0,92.0
624,185.5810139666667,186.23678183125003,66.0,92.0
625,186.50408896666667,186.68678089375,62.0,96.0
626,186.04255146666668,186.72908849791668,45.0,92.0
627,185.5810139666667,186.79062683125002,38.0,96.0
628,186.50408896666667,186.99831870625002,66.0,99.0
629,186.50408896666667,187.03293401875,69.0,98.0
630,186.9656264666667,187.06370318541667,62.0,97.0
631,187.42716396666668,187.66754808125,64.0,101.0
632,187.42716396666668,187.91370141458336,68.0,96.0
633,187.88870146666667,188.18870084166667,64.0,98.0
634,188.11947021666668,188.23485459166668,68.0,100.0
635,187.65793271666666,188.44062339375,47.0,87.0
636,187.42716396666668,188.57139235208336,40.0,99.0
637,188.35023896666667,188.60600766458336,68.0,102.0
638,188.35023896666667,188.61369995625,64.0,102.0
639,188.35023896666667,188.61369995625,71.0,97.0
640,189.27331396666668,189.5771594875,61.0,96.0
641,189.27331396666668,189.75985141458335,64.0,101.0
642,189.5040827166667,190.0233124041667,56.0,81.0
643,189.73485146666667,190.27138881041668,61.0,91.0
644,190.1963889666667,190.48869605000002,56.0,96.0
645,189.27331396666668,190.50023448750002,49.0,102.0
646,189.96562021666668,190.5425420916667,68.0,88.0
647,190.65792646666668,190.7213878729167,64.0,91.0
648,190.42715771666667,190.75215703958335,61.0,96.0
649,191.11946396666667,191.39638646666668,54.0,93.0
650,191.11946396666667,191.5810014666667,61.0,95.0
651,191.35023271666668,191.88292391458333,49.0,86.0
652,191.5810014666667,192.09061578958335,54.0,86.0
653,191.81177021666667,192.1002311541667,57.0,90.0
654,191.11946396666667,192.15407719583334,42.0,97.0
655,192.04253896666668,192.24253855,49.0,88.0
656,192.2733077166667,192.38869209166668,57.0,97.0
657,192.2733077166667,192.40792282083333,54.0,96.0
658,192.2733077166667,192.46561500833334,61.0,97.0
659,192.9656139666667,193.29061328958335,59.0,87.0
660,192.9656139666667,193.46561292500002,62.0,92.0
661,193.19638271666668,193.70984318541667,54.0,81.0
662,193.4271514666667,193.89638125833335,59.0,95.0
663,193.6579202166667,194.14061151875,62.0,97.0
664,193.88868896666668,194.19830370625002,54.0,92.0
665,192.9656139666667,194.32330344583335,47.0,98.0
666,194.1194577166667,194.58099521666668,66.0,98.0
667,194.3502264666667,194.68868730000003,59.0,96.0
668,194.58099521666668,194.73868719583334,62.0,89.0
669,194.8117639666667,195.00214818541667,59.0,94.0
670,194.8117639666667,195.0367634979167,64.0,96.0
671,195.27330146666668,195.58291620625002,64.0,96.0
672,195.50407021666666,195.62906995625002,68.0,98.0
673,195.0425327166667,195.80791573750002,47.0,91.0
674,195.7348389666667,195.99060766458337,64.0,101.0
675,195.7348389666667,196.05406907083335,68.0,100.0
676,195.7348389666667,196.0848382375,71.0,101.0
677,194.8117639666667,196.25599172708337,40.0,98.0
678,195.96560771666668,196.27522245625002,47.0,97.0
679,196.19637646666666,196.3232992791667,64.0,98.0
680,196.65791396666668,196.86368276875,69.0,96.0
681,196.65791396666668,196.90022115416667,64.0,98.0
682,197.1194514666667,197.62906578958336,52.0,87.0
683,197.58098896666667,197.7944500604167,59.0,102.0
684,197.58098896666667,197.82521922708335,64.0,101.0
685,198.0425264666667,198.13098782083335,57.0,98.0
686,197.81175771666668,198.1463724041667,52.0,95.0
687,196.65791396666668,198.31560282083336,45.0,97.0
688,198.27329521666667,198.3886795916667,57.0,97.0
689,198.27329521666667,198.39829495625003,61.0,97.0
690,198.27329521666667,198.40406417500003,64.0,101.0
691,198.50406396666668,198.7579095916667,57.0,97.0
692,198.50406396666668,198.80406334166668,61.0,97.0
693,198.50406396666668,198.90021698750002,64.0,102.0
694,198.96560146666667,199.09060120625003,57.0,93.0
695,199.19637021666668,199.33290839375002,59.0,100.0
696,198.7348327166667,199.4386774041667,52.0,92.0
697,199.4271389666667,199.64829235208333,57.0,93.0
698,199.4271389666667,199.64829235208333,61.0,117.0
699,198.50406396666668,199.75021521666667,45.0,98.0
700,199.65790771666667,199.78867667500003,52.0,102.0
701,199.88867646666668,200.250214175,57.0,103.0
702,200.35021396666667,200.41559844583335,62.0,92.0
703,200.35021396666667,200.45213683125002,38.0,99.0
704,200.35021396666667,200.66367485208335,57.0,91.0
705,200.35021396666667,200.75790542500002,66.0,96.0
706,201.27328896666668,201.57136526875001,54.0,105.0
707,200.8117514666667,201.65213433125,50.0,96.0
708,201.5040577166667,201.70982651875002,57.0,98.0
709,201.73482646666668,202.0232874041667,62.0,100.0
710,201.96559521666669,202.26367151875002,66.0,94.0
711,202.1963639666667,202.46367110208337,64.0,97.0
712,202.1963639666667,202.49059412291666,68.0,97.0
713,202.6579014666667,202.97136235208336,64.0,96.0
714,202.42713271666668,203.22520797708336,47.0,92.0
715,203.11943896666668,203.37328459166667,68.0,102.0
716,203.11943896666668,203.38097688333335,71.0,98.0
717,202.1963639666667,203.3905922479167,40.0,97.0
718,203.11943896666668,203.40020761250003,64.0,103.0
719,204.04251396666666,204.55020521666668,61.0,96.0
720,204.04251396666666,204.588666675,64.0,100.0
721,204.04251396666666,204.77905089375002,68.0,97.0
722,204.73482021666666,204.94251209166669,61.0,98.0
723,204.50405146666668,205.04251188333336,56.0,89.0
724,204.9655889666667,205.14828089375,61.0,89.0
725,204.9655889666667,205.19635771666668,68.0,102.0
726,204.04251396666666,205.25212683125,49.0,100.0
727,205.19635771666668,205.45404948750001,56.0,91.0
728,205.42712646666666,205.53481855,49.0,97.0
729,205.88866396666668,206.59443172708336,69.0,90.0
730,205.88866396666668,206.6309701125,61.0,91.0
731,205.88866396666668,206.63673933125,66.0,90.0
732,205.88866396666668,206.9771232375,42.0,98.0
733,206.35020146666668,207.01173855000002,49.0,87.0
734,206.81173896666667,207.06173844583333,66.0,96.0
735,206.81173896666667,207.0694307375,61.0,96.0
736,206.81173896666667,207.1867381854167,69.0,99.0
737,207.73481396666668,208.50019698750003,57.0,90.0
738,207.73481396666668,208.51750464375002,62.0,96.0
739,208.19635146666667,208.82327323750002,54.0,84.0
740,208.6578889666667,208.88481157083334,57.0,96.0
741,207.73481396666668,208.90788844583335,47.0,97.0
742,208.6578889666667,208.91558073750002,62.0,96.0
743,208.6578889666667,208.96942677916667,66.0,93.0
744,209.58096396666667,209.90596328958335,68.0,87.0
745,209.58096396666667,209.9309632375,64.0,92.0
746,210.0425014666667,210.98096105000002,47.0,84.0
747,210.50403896666668,210.98480719583335,52.0,97.0
748,209.58096396666667,210.99249948750003,40.0,97.0
749,210.96557646666668,211.09442235208334,56.0,103.0
750,211.4271139666667,212.19249698750002,57.0,98.0
751,211.8886514666667,212.50211172708333,52.0,86.0
752,212.35018896666668,212.68672672708334,61.0,100.0
753,212.35018896666668,212.69826516458335,57.0,98.0
754,212.35018896666668,212.70018823750002,64.0,100.0
755,211.4271139666667,212.99249532083334,45.0,98.0
756,212.8117264666667,213.05211058125002,61.0,97.0
757,212.8117264666667,213.07518745625003,64.0,98.0
758,212.8117264666667,213.09441818541669,57.0,97.0
759,212.8117264666667,213.09634125833335,69.0,94.0
760,213.27326396666666,213.37326375833334,40.0,98.0
761,213.27326396666666,213.86941657083335,68.0,97.0
762,213.27326396666666,213.9694163625,64.0,98.0
763,213.27326396666666,213.98672401875,71.0,97.0
764,213.96557021666666,214.26941573750003,59.0,97.0
765,213.73480146666668,214.52326136250002,52.0,97.0
766,214.1963389666667,214.55018438333335,68.0,98.0
767,214.1963389666667,214.56172282083335,64.0,103.0
768,214.42710771666668,214.61364578958336,59.0,89.0
769,214.1963389666667,214.6290303729167,76.0,97.0
770,214.1963389666667,215.03095261250002,71.0,98.0
771,214.65787646666666,215.09826016458334,52.0,100.0
772,215.11941396666668,215.21364453958336,38.0,99.0
773,215.11941396666668,215.81172021666669,62.0,93.0
774,215.11941396666668,215.82710480000003,66.0,94.0
775,215.11941396666668,215.85595089375002,69.0,94.0
776,216.04248896666667,216.15595026875002,62.0,101.0
777,215.81172021666669,216.38287287291666,57.0,96.0
778,215.58095146666668,216.45979578958335,50.0,96.0
779,216.27325771666668,216.54056485208335,62.0,101.0
780,216.27325771666668,216.54248792500002,66.0,101.0
781,216.27325771666668,216.56748787291667,69.0,101.0
782,216.96556396666668,217.33671703958333,64.0,101.0
783,217.42710146666667,217.46940907083336,64.0,84.0
784,216.96556396666668,217.48479365416668,68.0,98.0
785,216.96556396666668,217.8232544875,59.0,97.0
786,217.65787021666668,217.91748506041668,68.0,105.0
787,217.65787021666668,217.92517735208335,64.0,107.0
788,217.65787021666668,217.92710042500002,71.0,101.0
789,217.8886389666667,218.08094625833337,59.0,90.0
790,216.96556396666668,218.17133068541668,52.0,100.0
791,218.11940771666667,218.22133058125002,64.0,105.0
792,218.11940771666667,218.34440724791668,71.0,105.0
793,218.11940771666667,218.39056099791668,68.0,107.0
794,218.35017646666668,218.4194070916667,64.0,96.0
795,218.81171396666667,219.31748214375,61.0,98.0
796,218.81171396666667,219.47517412291668,68.0,97.0
797,218.81171396666667,219.5270970916667,64.0,102.0
798,219.50402021666667,219.6136353729167,61.0,82.0
799,219.2732514666667,219.82517339375002,56.0,71.0
800,219.73478896666668,219.89632709166668,64.0,105.0
801,219.73478896666668,219.95209620625002,61.0,100.0
802,219.73478896666668,219.9597884979167,68.0,99.0
803,218.81171396666667,219.99632688333335,49.0,105.0
804,220.6578639666667,221.12709375833333,61.0,97.0
805,220.6578639666667,221.13093990416667,66.0,96.0
806,220.6578639666667,221.13863219583334,69.0,99.0
807,221.3501702166667,221.67324646666668,69.0,101.0
808,221.3501702166667,221.67709261250002,61.0,100.0
809,220.6578639666667,221.6963233416667,42.0,98.0
810,221.58093896666668,221.7347848,49.0,91.0
811,221.8117077166667,221.95786125833337,61.0,103.0
812,221.8117077166667,222.03863032083336,66.0,107.0
813,222.0424764666667,222.09439943541668,61.0,84.0
814,221.8117077166667,222.16555313333333,69.0,105.0
815,222.50401396666666,223.00208985208334,57.0,98.0
816,222.50401396666666,223.22324323750001,62.0,97.0
817,222.96555146666668,223.3347814666667,54.0,81.0
818,223.19632021666666,223.51939646666668,57.0,97.0
819,223.4270889666667,223.69247302916668,54.0,85.0
820,223.65785771666668,223.79439589375002,57.0,96.0
821,222.50401396666666,223.81554969583334,47.0,97.0
822,223.65785771666668,223.97516474791666,62.0,98.0
823,223.88862646666666,223.99247240416668,57.0,85.0
824,223.65785771666668,224.0097800604167,66.0,93.0
825,224.35016396666668,224.43670224791668,40.0,103.0
826,224.35016396666668,224.66939407083333,59.0,92.0
827,224.35016396666668,224.71747089375003,64.0,97.0
828,225.0424702166667,225.32131578958337,56.0,97.0
829,224.81170146666668,225.3693926125,52.0,94.0
830,225.27323896666667,225.4809308416667,59.0,98.0
831,225.50400771666668,225.81746860208335,64.0,110.0
832,225.7347764666667,226.02323740416668,68.0,103.0
833,225.96554521666667,226.10400646666668,69.0,90.0
834,226.19631396666668,226.41554427916668,69.0,96.0
835,226.19631396666668,226.42131349791669,64.0,97.0
836,226.4270827166667,226.88669714375,52.0,92.0
837,226.65785146666667,226.91169709166667,59.0,97.0
838,226.88862021666668,227.07515828958333,61.0,107.0
839,227.1193889666667,227.3732345916667,52.0,96.0
840,227.35015771666667,227.49823433125002,64.0,103.0
841,227.35015771666667,227.50208047708335,57.0,97.0
842,226.19631396666668,227.59823412291667,45.0,99.0
843,227.58092646666668,227.65400323750004,52.0,88.0
844,227.8116952166667,227.95015646666667,61.0,85.0
845,227.8116952166667,227.97323334166668,69.0,96.0
846,228.04246396666667,228.2886173,57.0,98.0
847,228.04246396666667,228.34823256041668,61.0,100.0
848,228.04246396666667,228.34823256041668,69.0,98.0
849,228.5040014666667,228.59823203958337,57.0,92.0
850,228.27323271666668,228.72130870625,52.0,92.0
851,228.04246396666667,228.77323167500003,45.0,98.0
852,228.73477021666667,228.98861584166667,67.0,96.0
853,228.73477021666667,229.01361578958335,57.0,98.0
854,228.73477021666667,229.02707730000003,61.0,105.0
855,228.96553896666668,229.25784605,52.0,97.0
856,228.96553896666668,229.2828459979167,45.0,96.0
857,229.1963077166667,229.45399948750003,57.0,97.0
858,229.1963077166667,229.47515328958335,61.0,97.0
859,229.1963077166667,229.49630709166667,64.0,97.0
860,229.42707646666668,229.51361474791668,52.0,97.0
861,229.42707646666668,229.55207620625004,45.0,96.0
862,229.6578452166667,229.82515256041668,57.0,98.0
863,229.8886139666667,229.99053683125,38.0,105.0
864,229.8886139666667,230.18669026875,57.0,97.0
865,229.8886139666667,230.25207474791668,62.0,96.0
866,229.8886139666667,230.30592078958335,66.0,90.0
867,230.5809202166667,230.87130422708333,54.0,100.0
868,230.3501514666667,231.06361151875,50.0,95.0
869,230.81168896666668,231.07514995625002,57.0,97.0
870,231.0424577166667,231.21168813333335,62.0,112.0
871,231.2732264666667,231.3924569875,62.0,83.0
872,231.2732264666667,231.46168761250001,66.0,98.0
873,231.73476396666666,232.25976287291667,64.0,102.0
874,231.73476396666666,232.3001474041667,68.0,94.0
875,232.19630146666668,232.5232238625,47.0,88.0
876,232.42707021666666,232.63091594583335,64.0,96.0
877,232.42707021666666,232.75014646666668,68.0,87.0
878,231.73476396666666,232.9174538104167,40.0,101.0
879,232.6578389666667,232.927069175,47.0,91.0
880,232.42707021666666,232.94629990416666,71.0,94.0
881,232.88860771666668,233.15014563333335,76.0,97.0
882,233.11937646666667,233.22322240416668,64.0,96.0
883,233.58091396666669,234.127066675,61.0,92.0
884,233.58091396666669,234.3193739666667,64.0,99.0
885,233.58091396666669,234.35014313333335,68.0,92.0
886,234.04245146666668,234.61360412291668,56.0,81.0
887,233.58091396666669,234.63283485208336,49.0,89.0
888,234.2732202166667,234.6366809979167,61.0,88.0
889,234.50398896666667,234.65206558125,64.0,99.0
890,234.73475771666668,234.85014209166667,61.0,79.0
891,234.73475771666668,235.00206485208335,64.0,96.0
892,234.9655264666667,235.21552594583335,68.0,101.0
893,235.19629521666667,235.3289872479167,61.0,83.0
894,235.42706396666668,235.74629407083336,42.0,98.0
895,235.42706396666668,236.09437026875003,69.0,97.0
896,235.42706396666668,236.1886008416667,61.0,92.0
897,236.3501389666667,236.54629240416668,61.0,96.0
898,236.3501389666667,236.64629219583335,54.0,97.0
899,236.3501389666667,236.83475334166667,66.0,93.0
900,236.81167646666668,236.92129162291667,61.0,98.0
901,237.27321396666667,237.96359714375,62.0,92.0
902,237.27321396666667,238.00975089375,59.0,90.0
903,237.7347514666667,238.30590412291667,54.0,82.0
904,238.19628896666669,238.40975006041668,59.0,96.0
905,237.27321396666667,238.44821151875,47.0,97.0
906,238.19628896666669,238.67128797708335,66.0,88.0
907,238.65782646666668,238.96551813333335,59.0,85.0
908,239.1193639666667,239.388594175,59.0,92.0
909,239.1193639666667,239.48859396666668,64.0,96.0
910,239.1193639666667,239.74051651875,40.0,97.0
911,239.8116702166667,240.13282339375002,56.0,92.0
912,240.04243896666668,240.57513016458336,59.0,99.0
913,240.27320771666666,240.58666860208336,64.0,105.0
914,239.5809014666667,240.65782230000002,52.0,90.0
915,240.5039764666667,240.70205297708335,68.0,99.0
916,240.96551396666666,241.1732058416667,64.0,93.0
917,240.96551396666666,241.64628177916669,69.0,94.0
918,241.42705146666668,241.72320469583335,64.0,84.0
919,241.8885889666667,242.16166532083335,64.0,98.0
920,241.8885889666667,242.33281881041668,71.0,96.0
921,242.35012646666667,242.61358745625,69.0,86.0
922,242.81166396666669,243.034740425,64.0,96.0
923,242.81166396666669,243.24050922708335,73.0,96.0
924,243.27320146666668,243.5501239666667,64.0,84.0
925,240.96551396666666,243.95589235208337,57.0,93.0
926,243.73473896666667,244.050122925,64.0,90.0
927,243.73473896666667,244.08281516458334,69.0,88.0
928,244.65781396666668,245.26742808125002,59.0,88.0
929,244.65781396666668,245.38281245625,62.0,90.0
930,245.11935146666667,245.84819610208336,54.0,71.0
931,244.8885827166667,245.88088834166666,66.0,90.0
932,245.5808889666667,245.94242667500004,57.0,96.0
933,244.65781396666668,245.95781125833335,47.0,97.0
934,245.81165771666667,246.11550323750004,62.0,96.0
935,246.04242646666668,246.18858000833336,66.0,98.0
936,246.73473271666668,246.84434787291667,40.0,97.0
937,246.73473271666668,247.20396250833335,68.0,82.0
938,246.73473271666668,247.30203922708336,64.0,85.0
939,247.47126964375002,247.84434578958334,56.0,85.0
940,246.9655014666667,247.85780730000002,71.0,89.0
941,247.7385767791667,247.97126860208334,64.0,80.0
942,247.81742276875002,247.97511474791668,68.0,80.0
943,247.6693461541667,248.02703771666668,59.0,81.0
944,247.91549948750003,248.03473000833336,71.0,83.0
945,247.19627021666668,248.07319146666669,52.0,92.0
946,247.94819172708335,248.13665287291667,76.0,96.0
947,248.80203610208335,249.2308813625,66.0,73.0
948,248.75972849791668,249.39626563333334,69.0,90.0
949,248.88088209166668,249.5078038625,62.0,84.0
950,249.35203495625,249.89241844583336,45.0,64.0
951,248.85011292500002,249.97511058125002,38.0,97.0
952,249.82318782083337,249.97511058125002,64.0,93.0
953,249.81741860208336,250.1443409979167,69.0,86.0
954,250.79049349791669,251.82318365416668,64.0,87.0
955,250.78857042500002,251.95395261250002,69.0,88.0
956,251.83279901875,252.27510578958334,47.0,70.0
957,250.80780115416667,252.38087480000002,40.0,87.0
958,252.37125943541668,252.67895110208335,68.0,82.0
959,252.09433693541666,252.680874175,64.0,90.0
960,252.62510506041667,253.33279589375002,69.0,87.0
961,253.40587266458334,253.70779511250004,64.0,86.0
962,253.15971933125002,253.72317969583335,57.0,80.0
963,253.90587162291666,254.19240948750002,57.0,83.0
964,253.65971828958334,254.24433245625002,66.0,102.0
965,252.90010448750002,254.27125547708334,50.0,97.0
966,254.527024175,254.72894683125003,62.0,43.0
967,254.16548646666666,254.84817735208333,69.0,93.0
968,254.99817703958337,255.14817672708335,40.0,87.0
969,254.99240782083336,255.59817578958337,69.0,87.0
970,255.77317542500003,256.16355922708334,56.0,81.0
971,255.50009907083336,256.2654820916667,52.0,86.0
972,256.00779032083335,256.29240511250003,59.0,93.0
973,256.2597128729167,256.5539430291667,64.0,91.0
974,256.50202006041667,256.6058659979167,68.0,76.0
975,257.0500958416667,258.04432453958333,62.0,73.0
976,257.04624969583335,258.06355526875,66.0,82.0
977,258.01547844583337,258.3250931854167,57.0,84.0
978,257.0674034979167,258.3712469354167,50.0,94.0
979,258.2616317791667,258.83663058125,62.0,87.0
980,258.496246675,259.08086084166666,66.0,88.0
981,258.7577845916667,259.0847069875,74.0,97.0
982,259.51355224791666,259.7270133416667,52.0,92.0
983,259.7635517270833,259.8693207375,56.0,94.0
984,259.2500912583333,260.5231655291667,47.0,83.0
985,259.0173994354167,260.67508828958336,40.0,95.0
986,261.15393344583333,261.36354839375,38.0,97.0
987,261.90393188333337,262.23854657083336,54.0,72.0
988,262.40585391458336,262.74623782083336,62.0,91.0
989,262.6577764666667,262.98854500833335,64.0,94.0
990,262.9154682375,263.13469855,66.0,83.0
991,263.3539288625,263.7346973,68.0,64.0
992,262.1500852166667,264.28085000833335,57.0,91.0
993,261.6693169875,264.43084969583333,50.0,86.0
994,267.54815089375,267.7846888625,59.0,84.0
995,267.74430433125,267.93276547708336,61.0,83.0
996,268.01545761250003,268.3635338104167,64.0,92.0
997,268.30968776875,268.5616103208333,69.0,81.0
998,268.650071675,268.93276339375,71.0,84.0
999,269.00007094583333,269.18276287291667,76.0,95.0
1000,269.37122401875,269.81930000833336,73.0,79.0
1001,269.74430016458336,270.12506860208333,71.0,80.0
1002,270.126991675,270.29429901875,76.0,89.0
1003,270.59237532083336,270.82122099791667,81.0,85.0
1004,271.0346820916667,271.3385276125,83.0,83.0
1005,271.5673732895834,271.67891151875,88.0,91.0
1006,267.33276672708337,271.9635263104167,52.0,81.0
1007,272.50390980000003,274.67890526875004,52.0,72.0
1008,272.63467875833334,274.71159750833334,81.0,59.0
1009,267.10776719583333,274.79044349791667,45.0,93.0
