,start,end,pitch,velocity
0,20.251770729166665,20.369417395833334,63.0,92.0
1,20.472358229166666,20.58081375,63.0,94.0
2,20.692945729166667,21.172723541666667,63.0,102.0
3,21.354708229166665,21.496251875,65.0,102.0
4,21.575295729166665,21.893309374999998,67.0,96.0
5,22.016470729166667,22.297719791666665,70.0,105.0
6,22.457645729166668,22.6322775,67.0,105.0
7,22.678233229166665,22.788526979166665,65.0,100.0
8,22.898820729166665,23.2499225,63.0,108.0
9,23.339995729166667,25.7205025,60.0,108.0
10,27.310570729166667,27.437408541666667,63.0,97.0
11,27.531158229166667,27.6451284375,63.0,97.0
12,27.751745729166664,28.2186559375,63.0,100.0
13,28.358361354166664,28.510934374999998,65.0,92.0
14,28.606522291666664,28.952109375,67.0,109.0
15,29.047697291666665,29.351005104166667,70.0,100.0
16,29.488872291666667,29.689239270833333,67.0,105.0
17,29.709459791666667,29.841812291666667,65.0,97.0
18,29.930047291666664,30.264605,63.0,97.0
19,30.398795729166665,31.8362909375,65.0,105.0
20,34.42451760416667,34.55319364583333,72.0,105.0
21,34.617531666666665,34.73517833333333,72.0,97.0
22,34.838119166666665,34.9465746875,72.0,97.0
23,35.058706666666666,35.371205625,72.0,102.0
24,35.44473479166667,35.610175416666664,70.0,100.0
25,35.692895729166665,36.04583572916667,72.0,111.0
26,36.134070729166666,36.90428875,75.0,111.0
27,37.07156760416667,37.19840541666667,72.0,105.0
28,37.264581666666665,37.402448854166664,72.0,94.0
29,37.45759572916666,37.738844791666665,70.0,102.0
30,37.87119729166667,38.18553447916666,70.0,114.0
31,38.781120729166666,39.07339916666667,67.0,105.0
32,39.00170822916667,39.168987083333334,65.0,105.0
33,39.22229572916667,40.11199864583333,63.0,97.0
34,41.428170729166666,41.54581739583333,65.0,105.0
35,41.64875822916667,41.77559604166667,65.0,89.0
36,41.86934572916667,41.98699239583333,65.0,97.0
37,42.08993322916667,42.409785104166666,65.0,100.0
38,42.53110822916666,42.672651875,63.0,100.0
39,42.75169572916666,43.10463572916667,67.0,102.0
40,43.192870729166664,43.312355625,65.0,105.0
41,43.413458229166665,43.634045729166665,65.0,114.0
42,43.634045729166665,43.999853333333334,63.0,105.0
43,44.075220729166666,44.242499583333334,60.0,94.0
44,44.29580822916667,44.415293125,63.0,108.0
45,44.51639572916667,47.90976677083333,65.0,105.0
46,48.486970729166664,48.60461739583333,63.0,92.0
47,48.707558229166665,48.816013749999996,63.0,94.0
48,48.928145729166665,49.40792354166666,63.0,102.0
49,49.58990822916667,49.731451875,65.0,102.0
50,49.81049572916667,50.128509375,67.0,96.0
51,50.25167072916666,50.532919791666664,70.0,105.0
52,50.69284572916666,50.8674775,67.0,105.0
53,50.913433229166664,51.02372697916667,65.0,100.0
54,51.134020729166664,51.485122499999996,63.0,108.0
55,51.575195729166666,53.9557025,60.0,108.0
56,55.54577072916666,55.67260854166666,63.0,97.0
57,55.76635822916666,55.8803284375,63.0,97.0
58,55.98694572916666,56.453855937499995,63.0,100.0
59,56.59356135416667,56.746134375,65.0,92.0
60,56.84172229166666,57.187309375,67.0,109.0
61,57.282897291666664,57.586205104166666,70.0,100.0
62,57.724072291666666,57.92443927083333,67.0,105.0
63,57.944659791666666,58.07701229166666,65.0,97.0
64,58.16524729166667,58.499804999999995,63.0,97.0
65,58.633995729166664,60.071490937499995,65.0,105.0
66,62.60457072916667,62.73324677083333,72.0,105.0
67,62.82515822916667,62.94280489583333,72.0,97.0
68,63.04574572916666,63.15420125,72.0,97.0
69,63.26633322916666,63.5788321875,72.0,102.0
70,63.70750822916666,63.872948854166665,70.0,100.0
71,63.928095729166664,64.28103572916666,72.0,111.0
72,64.36927072916666,65.13948875,75.0,111.0
73,65.25162072916666,65.37845854166666,72.0,105.0
74,65.47220822916667,65.61007541666666,72.0,94.0
75,65.69279572916666,65.97404479166667,70.0,102.0
76,66.13397072916666,66.44830791666666,70.0,114.0
77,67.01632072916667,67.30859916666667,67.0,105.0
78,67.23690822916666,67.40418708333333,65.0,105.0
79,67.45749572916667,68.34719864583333,63.0,97.0
80,69.66337072916666,69.78101739583333,65.0,105.0
81,69.88395822916667,70.01079604166667,65.0,89.0
82,70.10454572916666,70.22219239583333,65.0,97.0
83,70.32513322916667,70.64498510416666,65.0,100.0
84,70.76630822916667,70.90785187499999,67.0,100.0
85,70.98689572916666,71.33983572916667,68.0,102.0
86,71.42807072916666,71.86924572916666,75.0,105.0
87,71.86924572916666,72.08983322916666,72.0,114.0
88,72.08983322916666,72.31042072916667,70.0,105.0
89,72.53100822916666,72.75159572916667,72.0,108.0
90,72.75159572916667,76.14496677083334,70.0,105.0
91,76.72217072916666,76.8581996875,79.0,112.0
92,76.94275822916667,77.0787871875,79.0,93.0
93,77.16334572916666,77.28650708333333,79.0,93.0
94,77.38393322916666,77.67621166666666,79.0,109.0
95,78.04569572916667,78.3912828125,79.0,112.0
96,78.48687072916667,78.78650208333333,77.0,111.0
97,78.92804572916667,79.06039822916667,75.0,108.0
98,79.14863322916666,79.62841104166667,77.0,111.0
99,79.81039572916666,79.951939375,75.0,105.0
100,80.03098322916667,82.6706803125,72.0,114.0
101,83.78097072916667,83.90780854166667,77.0,105.0
102,84.00155822916666,84.121043125,77.0,105.0
103,84.22214572916667,84.3250865625,77.0,102.0
104,84.44273322916666,84.78832031249999,77.0,108.0
105,84.88390822916666,85.04934885416667,75.0,94.0
106,85.10449572916666,85.37103895833333,79.0,116.0
107,85.54567072916666,85.82691979166667,77.0,105.0
108,85.98684572916666,86.10449239583333,75.0,111.0
109,86.20743322916667,86.53647624999999,72.0,108.0
110,86.64860822916667,86.77176958333332,75.0,102.0
111,86.86919572916666,89.95190604166666,77.0,100.0
112,90.83977072916666,90.970285,79.0,109.0
113,91.06035822916667,91.16881375,79.0,96.0
114,91.28094572916666,91.55668010416666,79.0,109.0
115,91.72212072916666,91.841605625,79.0,109.0
116,91.94270822916667,92.06035489583333,79.0,109.0
117,92.16329572916666,92.66697052083333,77.0,114.0
118,92.82505822916666,93.19638052083333,79.0,112.0
119,93.48682072916667,93.61549677083333,77.0,102.0
120,93.70740822916666,93.826893125,79.0,112.0
121,93.92799572916667,94.35446489583333,82.0,108.0
122,94.58975822916666,94.89490427083334,79.0,109.0
123,95.03093322916666,95.326888125,77.0,105.0
124,95.47210822916666,95.60997541666666,75.0,105.0
125,95.69269572916666,97.4555575,72.0,111.0
126,97.89857072916666,98.018055625,77.0,102.0
127,98.11915822916666,98.24231958333333,77.0,94.0
128,98.33974572916667,98.64856822916667,77.0,114.0
129,98.78092072916667,98.91878791666666,77.0,108.0
130,99.00150822916666,99.14672833333333,75.0,89.0
131,99.22209572916667,99.50702125,79.0,116.0
132,99.66327072916667,99.78091739583333,77.0,94.0
133,99.88385822916666,100.01253427083333,77.0,94.0
134,100.10444572916667,100.44084166666666,75.0,108.0
135,100.54562072916666,100.68900260416666,72.0,108.0
136,100.76620822916666,100.89304604166666,75.0,94.0
137,100.98679572916666,101.32319166666666,72.0,114.0
138,101.42797072916666,104.415093125,70.0,111.0
139,104.95737072916667,105.0933996875,79.0,112.0
140,105.17795822916666,105.3139871875,79.0,93.0
141,105.39854572916667,105.52170708333333,79.0,93.0
142,105.61913322916666,105.91141166666667,79.0,109.0
143,106.28089572916666,106.6264828125,79.0,112.0
144,106.72207072916666,107.02170208333332,77.0,111.0
145,107.16324572916666,107.29559822916666,75.0,108.0
146,107.38383322916667,107.86361104166666,77.0,111.0
147,108.04559572916666,108.187139375,75.0,105.0
148,108.26618322916666,110.9058803125,72.0,114.0
149,112.01617072916666,112.14300854166666,77.0,105.0
150,112.23675822916667,112.35624312499999,77.0,105.0
151,112.45734572916666,112.5602865625,77.0,102.0
152,112.67793322916667,113.0235203125,77.0,108.0
153,113.11910822916667,113.28454885416666,75.0,94.0
154,113.33969572916666,113.60623895833334,79.0,116.0
155,113.78087072916667,114.06211979166666,77.0,105.0
156,114.22204572916667,114.33969239583332,75.0,111.0
157,114.44263322916666,114.77167625,72.0,108.0
158,114.88380822916666,115.00696958333333,75.0,102.0
159,115.10439572916667,118.18710604166667,77.0,100.0
160,119.07497072916667,119.205485,79.0,109.0
161,119.29555822916666,119.40401374999999,79.0,96.0
162,119.51614572916667,119.79188010416667,79.0,109.0
163,119.95732072916667,120.07680562499999,79.0,109.0
164,120.17790822916666,120.29555489583333,79.0,109.0
165,120.39849572916667,120.90217052083332,77.0,114.0
166,121.06025822916666,121.43158052083334,79.0,112.0
167,121.72202072916666,121.85069677083332,77.0,102.0
168,121.94260822916667,122.06209312499999,79.0,112.0
169,122.16319572916666,122.58966489583332,82.0,108.0
170,122.82495822916667,123.13010427083333,79.0,109.0
171,123.26613322916667,123.562088125,77.0,105.0
172,123.70730822916666,123.84517541666666,75.0,105.0
173,123.92789572916666,125.69075749999999,72.0,111.0
174,126.13377072916666,126.253255625,77.0,102.0
175,126.35435822916666,126.47751958333333,77.0,94.0
176,126.57494572916666,126.88376822916666,77.0,114.0
177,127.01612072916666,127.15398791666667,77.0,108.0
178,127.23670822916667,127.38192833333333,75.0,89.0
179,127.45729572916666,127.74222125,79.0,116.0
180,127.89847072916666,128.33964572916668,77.0,94.0
181,128.33964572916668,128.67604166666666,75.0,108.0
182,128.78082072916666,128.92420260416665,72.0,108.0
183,129.00140822916666,129.44258322916667,75.0,94.0
184,129.66317072916667,132.75139572916666,75.0,114.0
185,164.95717072916665,165.07481739583332,63.0,92.0
186,165.17775822916667,165.28621375,63.0,94.0
187,165.39834572916666,165.87812354166667,63.0,102.0
188,166.06010822916667,166.20165187499998,65.0,102.0
189,166.28069572916667,166.598709375,67.0,96.0
190,166.72187072916665,167.00311979166665,70.0,105.0
191,167.16304572916667,167.33767749999998,67.0,105.0
192,167.38363322916666,167.49392697916667,65.0,100.0
193,167.60422072916666,167.9553225,63.0,108.0
194,168.04539572916667,170.4259025,60.0,108.0
195,172.01597072916667,172.14280854166665,63.0,97.0
196,172.23655822916666,172.3505284375,63.0,97.0
197,172.45714572916665,172.9240559375,63.0,100.0
198,173.06376135416667,173.216334375,65.0,92.0
199,173.31192229166666,173.657509375,67.0,109.0
200,173.75309729166665,174.05640510416666,70.0,100.0
201,174.19427229166666,174.39463927083332,67.0,105.0
202,174.41485979166666,174.54721229166665,65.0,97.0
203,174.63544729166665,174.970005,63.0,97.0
204,175.10419572916666,176.5416909375,65.0,105.0
205,179.07477072916666,179.20344677083332,72.0,105.0
206,179.29535822916665,179.41300489583332,72.0,97.0
207,179.51594572916667,179.62440125,72.0,97.0
208,179.73653322916667,180.0490321875,72.0,102.0
209,180.17770822916665,180.34314885416666,70.0,100.0
210,180.39829572916665,180.75123572916667,72.0,111.0
211,180.83947072916666,181.60968875,75.0,111.0
212,181.72182072916667,181.84865854166665,72.0,105.0
213,181.94240822916666,182.08027541666667,72.0,94.0
214,182.16299572916665,182.44424479166665,70.0,102.0
215,182.60417072916667,182.91850791666667,70.0,114.0
216,183.48652072916667,183.77879916666666,67.0,105.0
217,183.70710822916666,183.87438708333332,65.0,105.0
218,183.92769572916666,184.81739864583332,63.0,97.0
219,186.13357072916665,186.25121739583332,65.0,105.0
220,186.35415822916667,186.48099604166666,65.0,89.0
221,186.57474572916666,186.69239239583334,65.0,97.0
222,186.79533322916666,187.11518510416667,65.0,100.0
223,187.23650822916667,187.37805187499998,67.0,100.0
224,187.45709572916667,187.81003572916666,68.0,102.0
225,187.89827072916665,188.33944572916667,75.0,105.0
226,188.33944572916667,188.56003322916666,72.0,114.0
227,188.56003322916666,188.78062072916666,70.0,105.0
228,189.00120822916665,189.22179572916667,72.0,108.0
229,189.22179572916667,192.61516677083333,70.0,105.0
230,193.19237072916667,193.3283996875,79.0,112.0
231,193.41295822916666,193.5489871875,79.0,93.0
232,193.63354572916666,193.75670708333334,79.0,93.0
233,193.85413322916665,194.14641166666667,79.0,109.0
234,194.51589572916666,194.8614828125,79.0,112.0
235,194.95707072916667,195.25670208333332,77.0,111.0
236,195.39824572916666,195.53059822916666,75.0,108.0
237,195.61883322916665,196.09861104166666,77.0,111.0
238,196.28059572916666,196.422139375,75.0,105.0
239,196.50118322916666,199.1408803125,72.0,114.0
240,200.25117072916666,200.37800854166667,77.0,105.0
241,200.47175822916665,200.591243125,77.0,105.0
242,200.69234572916668,200.7952865625,77.0,102.0
243,200.91293322916667,201.2585203125,77.0,108.0
244,201.35410822916666,201.51954885416666,75.0,94.0
245,201.57469572916665,201.84123895833332,79.0,116.0
246,202.01587072916666,202.29711979166666,77.0,105.0
247,202.45704572916665,202.57469239583332,75.0,111.0
248,202.67763322916667,203.00667625,72.0,108.0
249,203.11880822916666,203.24196958333332,75.0,102.0
250,203.33939572916665,206.42210604166667,77.0,100.0
251,207.30997072916665,207.440485,79.0,109.0
252,207.53055822916667,207.63901375,79.0,96.0
253,207.75114572916667,208.02688010416665,79.0,109.0
254,208.19232072916665,208.311805625,79.0,109.0
255,208.41290822916667,208.53055489583332,79.0,109.0
256,208.63349572916667,209.13717052083334,77.0,114.0
257,209.29525822916665,209.66658052083332,79.0,112.0
258,209.95702072916666,210.08569677083332,77.0,102.0
259,210.17760822916665,210.297093125,79.0,112.0
260,210.39819572916667,210.82466489583334,82.0,108.0
261,211.05995822916665,211.3651042708333,79.0,109.0
262,211.50113322916667,211.797088125,77.0,105.0
263,211.94230822916666,212.08017541666666,75.0,105.0
264,212.16289572916665,213.9257575,72.0,111.0
265,214.36877072916667,214.488255625,77.0,102.0
266,214.58935822916666,214.71251958333332,77.0,94.0
267,214.80994572916666,215.11876822916665,77.0,114.0
268,215.25112072916667,215.38898791666665,77.0,108.0
269,215.47170822916667,215.61692833333333,75.0,89.0
270,215.69229572916666,215.97722124999999,79.0,116.0
271,216.13347072916667,216.25111739583332,77.0,94.0
272,216.35405822916667,216.48273427083333,77.0,94.0
273,216.57464572916666,216.91104166666665,75.0,108.0
274,217.01582072916665,217.15920260416667,72.0,108.0
275,217.23640822916667,217.36324604166666,75.0,94.0
276,217.45699572916666,217.79339166666665,72.0,114.0
277,217.89817072916665,220.885293125,70.0,111.0
278,221.42757072916666,221.5635996875,79.0,112.0
279,221.64815822916665,221.78418718749998,79.0,93.0
280,221.86874572916665,221.99190708333333,79.0,93.0
281,222.08933322916667,222.38161166666666,79.0,109.0
282,222.75109572916665,223.0966828125,79.0,112.0
283,223.19227072916667,223.49190208333331,77.0,111.0
284,223.63344572916665,223.76579822916665,75.0,108.0
285,223.85403322916667,224.33381104166665,77.0,111.0
286,224.51579572916665,224.657339375,75.0,105.0
287,224.73638322916665,227.3760803125,72.0,114.0
288,228.48637072916665,228.61320854166667,77.0,105.0
289,228.70695822916667,228.826443125,77.0,105.0
290,228.92754572916667,229.0304865625,77.0,102.0
291,229.14813322916666,229.4937203125,77.0,108.0
292,229.58930822916665,229.75474885416665,75.0,94.0
293,229.80989572916667,230.0764389583333,79.0,116.0
294,230.25107072916666,230.53231979166665,77.0,105.0
295,230.69224572916667,230.80989239583332,75.0,111.0
296,230.91283322916667,231.24187625,72.0,108.0
297,231.35400822916665,231.47716958333334,75.0,102.0
298,231.57459572916667,234.65730604166666,77.0,100.0
299,235.54517072916667,235.675685,79.0,109.0
300,235.76575822916666,235.87421375,79.0,96.0
301,235.98634572916666,236.26208010416667,79.0,109.0
302,236.42752072916667,236.547005625,79.0,109.0
303,236.64810822916667,236.76575489583334,79.0,109.0
304,236.86869572916666,237.37237052083333,77.0,114.0
305,237.53045822916667,237.9017805208333,79.0,112.0
306,238.19222072916665,238.32089677083331,77.0,102.0
307,238.41280822916667,238.532293125,79.0,112.0
308,238.63339572916666,239.05986489583333,82.0,108.0
309,239.29515822916667,239.60030427083333,79.0,109.0
310,239.73633322916666,240.03228812499998,77.0,105.0
311,240.17750822916665,240.31537541666665,75.0,105.0
312,240.39809572916667,242.1609575,72.0,111.0
313,242.60397072916666,242.72345562499999,77.0,102.0
314,242.82455822916666,242.94771958333334,77.0,94.0
315,243.04514572916665,243.35396822916667,77.0,114.0
316,243.48632072916666,243.62418791666667,77.0,108.0
317,243.70690822916666,243.85212833333333,75.0,89.0
318,243.92749572916665,244.21242125,79.0,116.0
319,244.36867072916667,244.80984572916665,77.0,94.0
320,244.80984572916665,245.14624166666667,75.0,108.0
321,245.25102072916667,245.39440260416666,72.0,108.0
322,245.47160822916666,245.91278322916665,75.0,94.0
323,246.13337072916667,249.22159572916667,75.0,114.0
324,249.671961875,249.83004958333333,77.0,100.0
325,249.92931395833332,250.07821052083332,77.0,105.0
326,250.2068865625,250.41276822916666,77.0,114.0
327,250.51754729166666,250.730781875,77.0,102.0
328,250.78776697916666,251.02673677083334,75.0,102.0
329,251.0892365625,251.7179109375,79.0,99.0
330,251.75835197916666,254.27121125,77.0,111.0
331,254.95687072916667,255.61495677083332,75.0,105.0
332,255.61863322916665,256.0947345833333,72.0,108.0
333,256.05980822916666,256.94032,75.0,111.0
334,257.16274572916666,261.5358929166667,75.0,117.0
