,start,end,pitch,velocity
0,2.1635957291666665,2.66910875,70.0,94.0
1,2.1635957291666665,2.6782998958333333,63.0,87.0
2,2.1635957291666665,2.6856528125,67.0,99.0
3,2.6047707291666664,3.224253958333333,58.0,71.0
4,3.0459457291666667,3.4209444791666668,70.0,102.0
5,3.0459457291666667,3.450356145833333,63.0,102.0
6,3.4871207291666666,4.1617508333333335,58.0,62.0
7,3.9282957291666665,4.3841765624999995,63.0,105.0
8,3.9282957291666665,4.422779375,70.0,94.0
9,4.590058229166667,4.707704895833333,63.0,66.0
10,4.369470729166666,4.948512916666666,58.0,66.0
11,2.1635957291666665,5.0257185416666665,39.0,92.0
12,2.1635957291666665,5.0257185416666665,51.0,102.0
13,4.810645729166667,5.038586145833333,67.0,112.0
14,4.810645729166667,5.062483125,63.0,102.0
15,4.810645729166667,5.075350729166667,70.0,100.0
16,5.251820729166666,5.378658541666667,39.0,87.0
17,5.251820729166666,5.378658541666667,51.0,97.0
18,5.692995729166666,6.055126875,60.0,87.0
19,5.692995729166666,6.077185625,67.0,63.0
20,5.692995729166666,6.101082604166667,63.0,78.0
21,6.134170729166667,6.7113746875,55.0,68.0
22,6.575345729166666,6.9760796874999995,60.0,102.0
23,6.575345729166666,7.2849021875,67.0,96.0
24,6.575345729166666,7.290416875,63.0,102.0
25,7.237108229166666,7.378651875,60.0,66.0
26,7.0165207291666665,7.6599009375,55.0,45.0
27,7.457695729166667,7.87497375,70.0,97.0
28,7.457695729166667,7.876811979166667,67.0,72.0
29,7.457695729166667,7.900708958333333,63.0,94.0
30,7.457695729166667,7.913576562499999,60.0,97.0
31,8.119458229166666,8.251810729166666,60.0,58.0
32,7.898870729166666,8.437471875,55.0,38.0
33,8.340045729166667,8.658059375,60.0,100.0
34,8.340045729166667,8.797764791666667,67.0,102.0
35,8.781220729166666,8.9723965625,63.0,92.0
36,8.781220729166666,8.9944553125,60.0,89.0
37,5.692995729166666,9.073499166666666,36.0,84.0
38,5.692995729166666,9.073499166666666,48.0,94.0
39,9.222395729166667,9.459527291666667,60.0,89.0
40,9.222395729166667,9.7554821875,65.0,92.0
41,9.663570729166667,9.8437171875,60.0,69.0
42,10.104745729166666,10.299598020833333,60.0,102.0
43,10.104745729166666,10.637832187499999,68.0,105.0
44,10.104745729166666,10.7812140625,65.0,108.0
45,9.222395729166667,10.863934375,41.0,95.0
46,9.222395729166667,10.863934375,53.0,105.0
47,10.545920729166667,10.8694490625,60.0,64.0
48,10.987095729166667,11.215036145833333,60.0,89.0
49,10.987095729166667,11.540402708333334,68.0,94.0
50,10.987095729166667,11.645181770833332,65.0,97.0
51,11.428270729166666,11.683784583333333,60.0,48.0
52,11.869445729166666,12.064298020833332,68.0,100.0
53,11.869445729166666,12.079003854166666,65.0,105.0
54,11.869445729166666,12.3032678125,60.0,100.0
55,10.987095729166667,12.411723333333333,41.0,82.0
56,10.987095729166667,12.411723333333333,53.0,92.0
57,12.751795729166666,13.290396874999999,58.0,100.0
58,12.751795729166666,13.310617395833333,65.0,97.0
59,13.192970729166666,13.779365833333333,53.0,62.0
60,13.634145729166667,13.889659583333334,58.0,114.0
61,13.634145729166667,13.922747708333333,65.0,102.0
62,12.751795729166666,14.158041041666666,34.0,84.0
63,12.751795729166666,14.158041041666666,46.0,94.0
64,14.075320729166666,14.36024625,63.0,57.0
65,14.516495729166666,14.9392884375,58.0,82.0
66,14.516495729166666,14.941126666666666,65.0,92.0
67,15.398845729166666,15.647006666666666,58.0,108.0
68,15.398845729166666,16.117593333333332,62.0,105.0
69,14.957670729166667,16.12862270833333,53.0,58.0
70,14.516495729166666,16.13413739583333,34.0,87.0
71,14.516495729166666,16.13413739583333,46.0,97.0
72,15.398845729166666,16.1745784375,65.0,100.0
73,15.840020729166666,16.180093125,58.0,78.0
74,16.281195729166665,17.898837395833333,62.0,72.0
75,16.281195729166665,17.904352083333333,58.0,89.0
76,16.281195729166665,17.9282490625,65.0,92.0
77,18.045895729166666,19.216847708333333,62.0,57.0
78,18.045895729166666,19.325303229166668,70.0,97.0
79,18.045895729166666,19.39883239583333,58.0,87.0
80,16.281195729166665,19.601037604166667,34.0,84.0
81,16.281195729166665,19.601037604166667,46.0,94.0
82,19.810595729166668,20.323461666666667,58.0,82.0
83,19.810595729166668,20.396990833333334,63.0,87.0
84,20.692945729166667,21.012797604166668,63.0,80.0
85,20.692945729166667,21.06426802083333,67.0,93.0
86,21.575295729166665,21.7995596875,58.0,84.0
87,21.575295729166665,22.0973528125,63.0,94.0
88,21.575295729166665,22.099191041666668,67.0,93.0
89,22.457645729166668,22.613895208333332,63.0,102.0
90,22.457645729166668,22.700291979166668,58.0,94.0
91,22.457645729166668,22.8032328125,67.0,105.0
92,19.810595729166668,23.143305208333334,51.0,80.0
93,23.339995729166667,23.942934895833332,63.0,87.0
94,23.339995729166667,24.034846354166667,60.0,76.0
95,24.222345729166666,24.5789621875,63.0,76.0
96,24.222345729166666,24.646976666666667,67.0,93.0
97,25.104695729166664,25.336312604166665,60.0,71.0
98,25.104695729166664,25.626752812499998,63.0,92.0
99,25.104695729166664,25.680061458333334,67.0,102.0
100,25.545870729166666,25.783002291666666,60.0,60.0
101,25.987045729166667,26.18373625,60.0,97.0
102,25.987045729166667,26.191089166666664,63.0,82.0
103,25.987045729166667,26.205795,67.0,96.0
104,26.428220729166664,26.696602187499998,58.0,105.0
105,23.339995729166667,26.702116874999998,48.0,82.0
106,26.869395729166666,27.57711395833333,63.0,84.0
107,26.869395729166666,27.6451284375,58.0,92.0
108,27.751745729166664,28.146964999999998,63.0,92.0
109,27.751745729166664,28.165347291666667,67.0,102.0
110,29.075270729166665,29.174535104166665,58.0,37.0
111,28.634095729166667,29.237034895833332,63.0,87.0
112,28.634095729166667,29.237034895833332,67.0,87.0
113,29.516445729166666,29.692915729166664,58.0,100.0
114,29.516445729166666,29.98703239583333,63.0,102.0
115,29.516445729166666,30.045855729166664,67.0,102.0
116,29.957620729166667,30.084458541666667,58.0,58.0
117,26.869395729166666,30.34548708333333,51.0,76.0
118,30.398795729166665,30.641441979166665,60.0,82.0
119,30.398795729166665,31.042175937499998,65.0,89.0
120,30.839970729166666,31.376733645833333,60.0,64.0
121,31.281145729166667,31.7039384375,65.0,87.0
122,31.281145729166667,31.762761770833333,68.0,87.0
123,32.16349572916666,32.657979375,65.0,64.0
124,32.16349572916666,32.687391041666665,68.0,73.0
125,32.60467072916666,32.9557725,60.0,64.0
126,33.045845729166665,33.10099260416666,60.0,32.0
127,33.045845729166665,33.15613947916667,65.0,102.0
128,33.045845729166665,33.187389375,68.0,100.0
129,30.398795729166665,33.6340790625,53.0,87.0
130,33.487020729166666,33.672681875,55.0,105.0
131,33.92819572916667,34.523781979166664,60.0,80.0
132,33.92819572916667,34.665325625,56.0,52.0
133,34.81054572916666,34.952089375,60.0,87.0
134,34.81054572916666,34.987015729166664,63.0,87.0
135,35.692895729166665,36.025615208333335,60.0,89.0
136,35.692895729166665,36.077085625,63.0,84.0
137,36.57524572916667,36.7223040625,56.0,92.0
138,36.57524572916667,36.8215684375,60.0,117.0
139,36.57524572916667,36.87855354166667,63.0,102.0
140,33.92819572916667,37.06789114583333,44.0,92.0
141,36.57524572916667,37.08811166666666,68.0,89.0
142,34.36937072916667,37.11752333333333,51.0,44.0
143,37.45759572916666,37.87855020833333,63.0,92.0
144,37.45759572916666,37.974138124999996,58.0,76.0
145,37.45759572916666,38.227813749999996,51.0,92.0
146,38.339945729166665,38.911635,62.0,99.0
147,38.339945729166665,38.9502378125,58.0,94.0
148,38.339945729166665,39.09178145833333,46.0,92.0
149,39.22229572916667,39.45575083333333,60.0,82.0
150,39.22229572916667,39.83074958333333,63.0,84.0
151,39.66347072916667,39.89508760416667,60.0,57.0
152,40.10464572916666,40.30501270833333,60.0,94.0
153,40.10464572916666,40.479644479166666,63.0,94.0
154,40.10464572916666,40.51824729166667,67.0,105.0
155,40.545820729166664,40.66898208333333,60.0,52.0
156,39.22229572916667,40.823393333333335,48.0,94.0
157,40.986995729166665,41.24250958333333,60.0,73.0
158,40.986995729166665,41.566037916666666,68.0,89.0
159,40.986995729166665,41.5752290625,65.0,87.0
160,41.86934572916667,42.058683333333335,60.0,100.0
161,41.86934572916667,42.073389166666665,68.0,97.0
162,41.86934572916667,42.222285729166664,65.0,105.0
163,42.75169572916666,43.01272427083333,60.0,100.0
164,42.75169572916666,43.33625260416667,65.0,108.0
165,42.75169572916666,43.39691416666667,69.0,99.0
166,43.634045729166665,43.805001041666664,60.0,82.0
167,43.634045729166665,43.83808916666666,65.0,92.0
168,43.634045729166665,43.865662604166666,69.0,79.0
169,40.986995729166665,43.9355153125,53.0,102.0
170,44.51639572916667,44.7958065625,58.0,80.0
171,44.51639572916667,45.00168822916667,62.0,70.0
172,44.95757072916667,45.157937708333336,58.0,69.0
173,44.51639572916667,45.168967083333335,65.0,87.0
174,45.39874572916666,45.59359802083333,58.0,94.0
175,45.39874572916666,45.608303854166664,62.0,99.0
176,45.39874572916666,45.68183302083333,65.0,92.0
177,44.51639572916667,46.11565510416666,46.0,92.0
178,45.839920729166664,46.157934374999996,63.0,87.0
179,46.281095729166665,46.60830052083333,58.0,84.0
180,46.281095729166665,46.65241802083333,62.0,68.0
181,46.72227072916667,47.4263125,53.0,76.0
182,47.16344572916667,47.762708437499995,62.0,105.0
183,47.16344572916667,47.871163958333334,58.0,105.0
184,46.281095729166665,47.972266562499996,46.0,94.0
185,47.16344572916667,48.001678229166664,70.0,94.0
186,47.60462072916666,48.00903114583333,53.0,92.0
187,48.04579572916666,48.558661666666666,58.0,82.0
188,48.04579572916666,48.63219083333333,63.0,87.0
189,48.928145729166665,49.24799760416666,63.0,80.0
190,48.928145729166665,49.29946802083333,67.0,93.0
191,49.81049572916667,50.0347596875,58.0,84.0
192,49.81049572916667,50.3325528125,63.0,94.0
193,49.81049572916667,50.33439104166666,67.0,93.0
194,50.69284572916666,50.84909520833333,63.0,102.0
195,50.69284572916666,50.93549197916666,58.0,94.0
196,50.69284572916666,51.0384328125,67.0,105.0
197,48.04579572916666,51.37850520833333,39.0,69.0
198,48.04579572916666,51.37850520833333,51.0,80.0
199,51.134020729166664,51.41894625,62.0,102.0
200,51.575195729166666,52.17813489583333,63.0,87.0
201,51.575195729166666,52.270046354166666,60.0,76.0
202,52.45754572916667,52.814162187499996,63.0,76.0
203,52.45754572916667,52.882176666666666,67.0,93.0
204,53.33989572916666,53.571512604166664,60.0,71.0
205,53.33989572916666,53.8619528125,63.0,92.0
206,53.33989572916666,53.91526145833333,67.0,102.0
207,53.781070729166665,54.01820229166667,60.0,60.0
208,54.222245729166666,54.41893625,60.0,97.0
209,54.222245729166666,54.42628916666666,63.0,82.0
210,54.222245729166666,54.440995,67.0,96.0
211,54.66342072916667,54.9318021875,58.0,105.0
212,51.575195729166666,54.937316875,36.0,71.0
213,51.575195729166666,54.937316875,48.0,82.0
214,55.10459572916667,55.812313958333334,63.0,84.0
215,55.10459572916667,55.8803284375,58.0,92.0
216,55.98694572916666,56.382165,63.0,92.0
217,55.98694572916666,56.40054729166666,67.0,102.0
218,57.31047072916667,57.409735104166664,58.0,37.0
219,56.869295729166666,57.47223489583333,63.0,87.0
220,56.869295729166666,57.47223489583333,67.0,87.0
221,57.75164572916667,57.92811572916666,58.0,100.0
222,57.75164572916667,58.22223239583333,63.0,102.0
223,57.75164572916667,58.28105572916667,67.0,102.0
224,58.19282072916666,58.31965854166666,58.0,58.0
225,55.10459572916667,58.58068708333333,39.0,65.0
226,55.10459572916667,58.58068708333333,51.0,76.0
227,58.633995729166664,58.87664197916666,60.0,82.0
228,58.633995729166664,59.2773759375,65.0,89.0
229,59.075170729166665,59.61193364583333,60.0,64.0
230,59.516345729166666,59.9391384375,65.0,87.0
231,59.516345729166666,59.997961770833335,68.0,87.0
232,60.39869572916667,60.893179374999995,65.0,64.0
233,60.39869572916667,60.922591041666664,68.0,73.0
234,60.83987072916666,61.1909725,60.0,64.0
235,61.281045729166664,61.33619260416666,60.0,32.0
236,61.281045729166664,61.39133947916667,65.0,102.0
237,61.281045729166664,61.422589375,68.0,100.0
238,58.633995729166664,61.8692790625,41.0,76.0
239,58.633995729166664,61.8692790625,53.0,87.0
240,61.722220729166665,61.907881875,55.0,105.0
241,62.163395729166666,62.75898197916666,60.0,80.0
242,62.163395729166666,62.900525625,56.0,52.0
243,63.04574572916666,63.187289375,60.0,87.0
244,63.04574572916666,63.22221572916666,63.0,87.0
245,63.928095729166664,64.26081520833333,60.0,89.0
246,63.928095729166664,64.312285625,63.0,84.0
247,64.81044572916666,64.95750406249999,56.0,92.0
248,64.81044572916666,65.0567684375,60.0,117.0
249,64.81044572916666,65.11375354166667,63.0,102.0
250,62.163395729166666,65.30309114583333,32.0,81.0
251,62.163395729166666,65.30309114583333,44.0,92.0
252,64.81044572916666,65.32331166666667,68.0,89.0
253,62.60457072916667,65.35272333333333,39.0,33.0
254,62.60457072916667,65.35272333333333,51.0,44.0
255,65.69279572916666,66.11375020833333,63.0,92.0
256,65.69279572916666,66.209338125,58.0,76.0
257,65.69279572916666,66.46301375,39.0,81.0
258,65.69279572916666,66.46301375,51.0,92.0
259,66.57514572916666,67.146835,62.0,99.0
260,66.57514572916666,67.1854378125,58.0,94.0
261,66.57514572916666,67.32698145833334,34.0,81.0
262,66.57514572916666,67.32698145833334,46.0,92.0
263,67.45749572916667,67.69095083333333,60.0,82.0
264,67.45749572916667,68.06594958333334,63.0,84.0
265,67.89867072916667,68.13028760416667,60.0,57.0
266,68.33984572916667,68.54021270833333,60.0,94.0
267,68.33984572916667,68.71484447916666,63.0,94.0
268,68.33984572916667,68.75344729166666,67.0,105.0
269,68.78102072916667,68.90418208333332,60.0,52.0
270,67.45749572916667,69.05859333333333,36.0,83.0
271,67.45749572916667,69.05859333333333,48.0,94.0
272,69.22219572916667,69.47770958333334,60.0,73.0
273,69.22219572916667,69.80123791666666,68.0,89.0
274,69.22219572916667,69.81042906249999,65.0,87.0
275,70.10454572916666,70.29388333333333,60.0,100.0
276,70.10454572916666,70.30858916666666,68.0,97.0
277,70.10454572916666,70.45748572916666,65.0,105.0
278,70.98689572916666,71.24792427083334,60.0,100.0
279,70.98689572916666,71.57145260416667,65.0,108.0
280,70.98689572916666,71.63211416666667,69.0,99.0
281,71.86924572916666,72.04020104166666,60.0,82.0
282,71.86924572916666,72.07328916666667,65.0,92.0
283,71.86924572916666,72.10086260416666,69.0,79.0
284,69.22219572916667,72.1707153125,41.0,91.0
285,69.22219572916667,72.1707153125,53.0,102.0
286,72.75159572916667,73.0310065625,58.0,80.0
287,72.75159572916667,73.23688822916667,62.0,70.0
288,73.19277072916667,73.39313770833333,58.0,69.0
289,72.75159572916667,73.40416708333333,65.0,87.0
290,73.63394572916667,73.82879802083333,58.0,94.0
291,73.63394572916667,73.84350385416667,62.0,99.0
292,73.63394572916667,73.91703302083333,65.0,92.0
293,72.75159572916667,74.35085510416667,34.0,81.0
294,72.75159572916667,74.35085510416667,46.0,92.0
295,74.07512072916667,74.393134375,63.0,87.0
296,74.51629572916667,74.84350052083333,58.0,84.0
297,74.51629572916667,74.88761802083333,62.0,68.0
298,74.95747072916666,75.6615125,53.0,76.0
299,75.39864572916666,75.9979084375,62.0,105.0
300,75.39864572916666,76.10636395833333,58.0,105.0
301,74.51629572916667,76.2074665625,34.0,83.0
302,74.51629572916667,76.2074665625,46.0,94.0
303,75.39864572916666,76.23687822916666,70.0,94.0
304,75.83982072916666,76.24423114583333,53.0,92.0
305,76.28099572916666,76.72217072916666,63.0,82.0
306,76.28099572916666,76.75158239583332,70.0,94.0
307,76.28099572916666,76.77180291666666,67.0,99.0
308,76.72217072916666,77.3104040625,58.0,50.0
309,77.16334572916666,77.51628572916667,63.0,97.0
310,77.16334572916666,77.558565,70.0,102.0
311,77.16334572916666,77.56775614583333,67.0,109.0
312,76.28099572916666,77.9390784375,39.0,100.0
313,76.28099572916666,77.9390784375,51.0,100.0
314,77.60452072916667,77.9611371875,58.0,64.0
315,77.82510822916666,77.98135770833333,63.0,87.0
316,78.04569572916667,78.540179375,63.0,78.0
317,78.04569572916667,78.55856166666666,67.0,99.0
318,78.04569572916667,78.5787821875,70.0,87.0
319,78.70745822916666,78.83981072916666,63.0,76.0
320,78.48687072916667,79.02914833333332,58.0,58.0
321,78.92804572916667,79.16150083333333,63.0,97.0
322,78.92804572916667,79.23686822916666,67.0,102.0
323,78.92804572916667,79.40782354166666,70.0,100.0
324,79.14863322916666,79.43723520833333,58.0,80.0
325,78.04569572916667,79.47399979166667,39.0,102.0
326,78.04569572916667,79.47399979166667,51.0,102.0
327,79.36922072916667,79.50708791666666,63.0,100.0
328,79.81039572916666,80.1008359375,60.0,76.0
329,79.81039572916666,80.32509989583333,63.0,87.0
330,80.25157072916666,80.4758346875,60.0,73.0
331,79.81039572916666,80.8949509375,36.0,105.0
332,79.81039572916666,80.8949509375,48.0,105.0
333,80.69274572916666,81.06406802083333,60.0,111.0
334,80.69274572916666,81.13024427083333,63.0,102.0
335,80.69274572916666,81.45009614583333,67.0,105.0
336,81.35450822916667,81.48318427083333,60.0,66.0
337,81.13392072916666,81.92803572916667,55.0,39.0
338,81.57509572916666,82.0640646875,60.0,100.0
339,81.57509572916666,82.0971528125,63.0,102.0
340,82.23685822916667,82.34899020833333,60.0,80.0
341,82.45744572916666,82.70009197916666,60.0,111.0
342,82.45744572916666,82.78465052083332,63.0,108.0
343,82.89862072916667,83.194575625,60.0,102.0
344,82.01627072916666,83.22031083333333,36.0,57.0
345,82.01627072916666,83.22031083333333,48.0,57.0
346,83.33979572916667,83.55486854166666,60.0,92.0
347,83.33979572916667,83.87655864583333,65.0,92.0
348,83.78097072916667,83.9721465625,60.0,69.0
349,83.33979572916667,84.26258677083334,41.0,92.0
350,83.33979572916667,84.26258677083334,53.0,92.0
351,84.22214572916667,84.4133215625,60.0,97.0
352,84.22214572916667,84.72030583333333,65.0,108.0
353,84.22214572916667,84.72582052083334,68.0,102.0
354,84.66332072916667,85.02177541666667,60.0,89.0
355,85.10449572916666,85.312215625,60.0,76.0
356,85.10449572916666,85.61000874999999,65.0,82.0
357,85.10449572916666,85.65228802083332,68.0,87.0
358,85.54567072916666,85.74419947916667,60.0,71.0
359,85.10449572916666,86.08611010416666,41.0,76.0
360,85.10449572916666,86.08611010416666,53.0,76.0
361,85.98684572916666,86.13758052083332,60.0,105.0
362,85.98684572916666,86.20191854166666,65.0,114.0
363,85.98684572916666,86.48868229166666,68.0,102.0
364,86.42802072916666,86.53647624999999,60.0,84.0
365,86.86919572916666,87.08059208333333,65.0,84.0
366,86.86919572916666,87.12470958333333,58.0,89.0
367,86.86919572916666,87.1265478125,62.0,96.0
368,87.31037072916666,87.82507489583332,41.0,24.0
369,87.31037072916666,87.82507489583332,53.0,24.0
370,86.86919572916666,87.87838354166666,34.0,97.0
371,86.86919572916666,87.87838354166666,46.0,97.0
372,87.75154572916666,88.01625072916666,58.0,108.0
373,87.75154572916666,88.09713281249999,65.0,105.0
374,87.75154572916666,88.135735625,70.0,87.0
375,87.75154572916666,88.15595614583333,62.0,109.0
376,88.19272072916667,88.31955854166667,41.0,84.0
377,88.19272072916667,88.31955854166667,53.0,84.0
378,88.41330822916666,88.56955770833333,58.0,114.0
379,88.63389572916667,89.24234958333334,58.0,92.0
380,88.63389572916667,89.24234958333334,65.0,97.0
381,88.63389572916667,89.25154072916666,62.0,96.0
382,89.07507072916667,89.51808395833334,41.0,67.0
383,89.07507072916667,89.51808395833334,53.0,67.0
384,88.63389572916667,89.525436875,34.0,102.0
385,88.63389572916667,89.525436875,46.0,102.0
386,89.51624572916667,89.72028916666666,58.0,108.0
387,89.51624572916667,89.88205333333333,62.0,112.0
388,89.51624572916667,89.9831559375,65.0,108.0
389,89.95742072916667,90.04197927083334,58.0,102.0
390,89.51624572916667,90.08242031249999,70.0,84.0
391,90.39859572916666,90.90778520833334,63.0,80.0
392,90.39859572916666,90.96293208333333,67.0,96.0
393,90.39859572916666,91.49418031249999,39.0,94.0
394,90.39859572916666,91.49418031249999,51.0,94.0
395,90.83977072916666,91.5493271875,58.0,71.0
396,91.28094572916666,92.00520802083334,63.0,92.0
397,91.28094572916666,92.01439916666666,67.0,112.0
398,91.28094572916666,92.01439916666666,70.0,105.0
399,91.72212072916666,92.12653114583333,58.0,94.0
400,92.16329572916666,92.7294703125,63.0,82.0
401,92.16329572916666,92.80116124999999,70.0,89.0
402,92.16329572916666,92.82138177083333,67.0,70.0
403,93.04564572916667,93.29380666666667,67.0,109.0
404,92.16329572916666,93.297483125,39.0,102.0
405,92.16329572916666,93.297483125,51.0,102.0
406,92.60447072916666,93.36733583333333,58.0,66.0
407,93.04564572916667,93.47027666666666,63.0,97.0
408,93.04564572916667,93.50336479166667,70.0,102.0
409,93.48682072916667,93.61549677083333,38.0,102.0
410,93.48682072916667,93.61549677083333,50.0,102.0
411,93.92799572916667,94.20373010416667,60.0,71.0
412,93.92799572916667,94.56953770833333,63.0,71.0
413,94.36917072916667,94.61733166666666,60.0,76.0
414,93.92799572916667,95.1614475,36.0,105.0
415,93.92799572916667,95.1614475,48.0,105.0
416,94.81034572916667,95.5088728125,60.0,108.0
417,94.81034572916667,95.52357864583333,67.0,105.0
418,94.81034572916667,95.52541687499999,63.0,105.0
419,95.69269572916666,96.34894354166667,63.0,82.0
420,95.69269572916666,96.35078177083334,60.0,87.0
421,95.69269572916666,96.37100229166667,67.0,85.0
422,96.13387072916666,96.694530625,55.0,31.0
423,95.69269572916666,96.83607427083334,36.0,94.0
424,95.69269572916666,96.83607427083334,48.0,94.0
425,96.57504572916666,97.0309265625,60.0,100.0
426,96.57504572916666,97.0309265625,63.0,102.0
427,96.57504572916666,97.069529375,67.0,102.0
428,97.01622072916666,97.12099979166666,39.0,82.0
429,97.01622072916666,97.12099979166666,51.0,82.0
430,97.45739572916666,98.062173125,68.0,87.0
431,97.45739572916666,98.12467291666667,65.0,78.0
432,98.33974572916667,98.547465625,65.0,97.0
433,97.45739572916666,98.8232,41.0,108.0
434,97.45739572916666,98.8232,53.0,108.0
435,98.33974572916667,98.8618028125,72.0,94.0
436,97.89857072916666,98.87467041666666,60.0,71.0
437,98.33974572916667,98.88569979166667,68.0,94.0
438,98.78092072916667,99.08974322916666,65.0,60.0
439,99.22209572916667,99.79194677083333,65.0,97.0
440,99.22209572916667,99.81584375,69.0,109.0
441,99.66327072916667,100.1301809375,60.0,73.0
442,99.22209572916667,100.15959260416666,41.0,102.0
443,99.22209572916667,100.15959260416666,53.0,102.0
444,100.10444572916667,100.28826864583333,65.0,102.0
445,100.10444572916667,100.598929375,69.0,109.0
446,100.10444572916667,100.61363520833333,72.0,100.0
447,100.54562072916666,100.77356114583333,65.0,92.0
448,100.98679572916666,101.42797072916666,62.0,41.0
449,100.98679572916666,101.42980895833333,65.0,89.0
450,100.98679572916666,101.45738239583333,58.0,73.0
451,101.42797072916666,102.05113041666667,53.0,67.0
452,100.98679572916666,102.05848333333333,34.0,102.0
453,100.98679572916666,102.05848333333333,46.0,102.0
454,101.86914572916666,102.34892354166666,70.0,92.0
455,101.86914572916666,102.5014965625,65.0,97.0
456,101.86914572916666,102.52723177083332,62.0,109.0
457,102.31032072916666,102.76068687499999,53.0,92.0
458,102.75149572916666,103.38568479166666,62.0,77.0
459,102.75149572916666,103.41877291666667,65.0,92.0
460,102.75149572916666,103.42612583333333,58.0,82.0
461,103.19267072916666,103.76252177083333,53.0,60.0
462,102.75149572916666,103.97575635416666,34.0,94.0
463,102.75149572916666,103.97575635416666,46.0,94.0
464,103.63384572916667,104.42979895833334,58.0,102.0
465,103.63384572916667,104.42979895833334,62.0,112.0
466,103.63384572916667,104.43347541666667,70.0,87.0
467,103.63384572916667,104.44634302083332,65.0,100.0
468,104.07502072916667,104.459210625,53.0,94.0
469,104.51619572916667,104.95737072916667,63.0,82.0
470,104.51619572916667,104.98678239583333,70.0,94.0
471,104.51619572916667,105.00700291666666,67.0,99.0
472,104.95737072916667,105.54560406249999,58.0,50.0
473,105.39854572916667,105.75148572916666,63.0,97.0
474,105.39854572916667,105.793765,70.0,102.0
475,105.39854572916667,105.80295614583333,67.0,109.0
476,104.51619572916667,106.17427843749999,39.0,100.0
477,104.51619572916667,106.17427843749999,51.0,100.0
478,105.83972072916666,106.19633718749999,58.0,64.0
479,106.06030822916667,106.21655770833333,63.0,87.0
480,106.28089572916666,106.775379375,63.0,78.0
481,106.28089572916666,106.79376166666667,67.0,99.0
482,106.28089572916666,106.8139821875,70.0,87.0
483,106.94265822916667,107.07501072916666,63.0,76.0
484,106.72207072916666,107.26434833333333,58.0,58.0
485,107.16324572916666,107.39670083333333,63.0,97.0
486,107.16324572916666,107.47206822916667,67.0,102.0
487,107.16324572916666,107.64302354166666,70.0,100.0
488,107.38383322916667,107.67243520833333,58.0,80.0
489,106.28089572916666,107.70919979166666,39.0,102.0
490,106.28089572916666,107.70919979166666,51.0,102.0
491,107.60442072916666,107.74228791666667,63.0,100.0
492,108.04559572916666,108.3360359375,60.0,76.0
493,108.04559572916666,108.56029989583332,63.0,87.0
494,108.48677072916666,108.7110346875,60.0,73.0
495,108.04559572916666,109.13015093749999,36.0,105.0
496,108.04559572916666,109.13015093749999,48.0,105.0
497,108.92794572916667,109.29926802083332,60.0,111.0
498,108.92794572916667,109.36544427083334,63.0,102.0
499,108.92794572916667,109.68529614583333,67.0,105.0
500,109.58970822916666,109.71838427083333,60.0,66.0
501,109.36912072916667,110.16323572916666,55.0,39.0
502,109.81029572916667,110.2992646875,60.0,100.0
503,109.81029572916667,110.33235281249999,63.0,102.0
504,110.47205822916666,110.58419020833333,60.0,80.0
505,110.69264572916666,110.93529197916666,60.0,111.0
506,110.69264572916666,111.01985052083333,63.0,108.0
507,111.13382072916666,111.42977562499999,60.0,102.0
508,110.25147072916667,111.45551083333334,36.0,57.0
509,110.25147072916667,111.45551083333334,48.0,57.0
510,111.57499572916666,111.79006854166667,60.0,92.0
511,111.57499572916666,112.11175864583333,65.0,92.0
512,112.01617072916666,112.20734656249999,60.0,69.0
513,111.57499572916666,112.49778677083333,41.0,92.0
514,111.57499572916666,112.49778677083333,53.0,92.0
515,112.45734572916666,112.6485215625,60.0,97.0
516,112.45734572916666,112.95550583333333,65.0,108.0
517,112.45734572916666,112.96102052083333,68.0,102.0
518,112.89852072916666,113.25697541666666,60.0,89.0
519,113.33969572916666,113.547415625,60.0,76.0
520,113.33969572916666,113.84520875,65.0,82.0
521,113.33969572916666,113.88748802083333,68.0,87.0
522,113.78087072916667,113.97939947916666,60.0,71.0
523,113.33969572916666,114.32131010416667,41.0,76.0
524,113.33969572916666,114.32131010416667,53.0,76.0
525,114.22204572916667,114.37278052083333,60.0,105.0
526,114.22204572916667,114.43711854166666,65.0,114.0
527,114.22204572916667,114.72388229166667,68.0,102.0
528,114.66322072916667,114.77167625,60.0,84.0
529,115.10439572916667,115.31579208333333,65.0,84.0
530,115.10439572916667,115.35990958333333,58.0,89.0
531,115.10439572916667,115.3617478125,62.0,96.0
532,115.54557072916667,116.06027489583333,41.0,24.0
533,115.54557072916667,116.06027489583333,53.0,24.0
534,115.10439572916667,116.11358354166666,34.0,97.0
535,115.10439572916667,116.11358354166666,46.0,97.0
536,115.98674572916666,116.25145072916666,58.0,108.0
537,115.98674572916666,116.3323328125,65.0,105.0
538,115.98674572916666,116.370935625,70.0,87.0
539,115.98674572916666,116.39115614583334,62.0,109.0
540,116.42792072916666,116.55475854166666,41.0,84.0
541,116.42792072916666,116.55475854166666,53.0,84.0
542,116.64850822916667,116.80475770833333,58.0,114.0
543,116.86909572916666,117.47754958333333,58.0,92.0
544,116.86909572916666,117.47754958333333,65.0,97.0
545,116.86909572916666,117.48674072916667,62.0,96.0
546,117.31027072916666,117.75328395833333,41.0,67.0
547,117.31027072916666,117.75328395833333,53.0,67.0
548,116.86909572916666,117.760636875,34.0,102.0
549,116.86909572916666,117.760636875,46.0,102.0
550,117.75144572916666,117.95548916666667,58.0,108.0
551,117.75144572916666,118.11725333333332,62.0,112.0
552,117.75144572916666,118.2183559375,65.0,108.0
553,118.19262072916666,118.27717927083333,58.0,102.0
554,117.75144572916666,118.3176203125,70.0,84.0
555,118.63379572916666,119.14298520833333,63.0,80.0
556,118.63379572916666,119.19813208333333,67.0,96.0
557,118.63379572916666,119.7293803125,39.0,94.0
558,118.63379572916666,119.7293803125,51.0,94.0
559,119.07497072916667,119.78452718749999,58.0,71.0
560,119.51614572916667,120.24040802083333,63.0,92.0
561,119.51614572916667,120.24959916666667,67.0,112.0
562,119.51614572916667,120.24959916666667,70.0,105.0
563,119.95732072916667,120.36173114583333,58.0,94.0
564,120.39849572916667,120.96467031249999,63.0,82.0
565,120.39849572916667,121.03636125,70.0,89.0
566,120.39849572916667,121.05658177083333,67.0,70.0
567,121.28084572916666,121.52900666666666,67.0,109.0
568,120.39849572916667,121.53268312499999,39.0,102.0
569,120.39849572916667,121.53268312499999,51.0,102.0
570,120.83967072916667,121.60253583333333,58.0,66.0
571,121.28084572916666,121.70547666666667,63.0,97.0
572,121.28084572916666,121.73856479166666,70.0,102.0
573,121.72202072916666,121.85069677083332,38.0,102.0
574,121.72202072916666,121.85069677083332,50.0,102.0
575,122.16319572916666,122.43893010416666,60.0,71.0
576,122.16319572916666,122.80473770833333,63.0,71.0
577,122.60437072916666,122.85253166666666,60.0,76.0
578,122.16319572916666,123.3966475,36.0,105.0
579,122.16319572916666,123.3966475,48.0,105.0
580,123.04554572916666,123.7440728125,60.0,108.0
581,123.04554572916666,123.75877864583333,67.0,105.0
582,123.04554572916666,123.760616875,63.0,105.0
583,123.92789572916666,124.58414354166666,63.0,82.0
584,123.92789572916666,124.58598177083333,60.0,87.0
585,123.92789572916666,124.60620229166666,67.0,85.0
586,124.36907072916667,124.92973062499999,55.0,31.0
587,123.92789572916666,125.07127427083333,36.0,94.0
588,123.92789572916666,125.07127427083333,48.0,94.0
589,124.81024572916667,125.26612656249999,60.0,100.0
590,124.81024572916667,125.26612656249999,63.0,102.0
591,124.81024572916667,125.304729375,67.0,102.0
592,125.25142072916667,125.35619979166667,39.0,82.0
593,125.25142072916667,125.35619979166667,51.0,82.0
594,125.69259572916667,126.297373125,68.0,87.0
595,125.69259572916667,126.35987291666666,65.0,78.0
596,126.57494572916666,126.78266562499999,65.0,97.0
597,125.69259572916667,127.05839999999999,41.0,108.0
598,125.69259572916667,127.05839999999999,53.0,108.0
599,126.57494572916666,127.0970028125,72.0,94.0
600,126.13377072916666,127.10987041666667,60.0,71.0
601,126.57494572916666,127.12089979166666,68.0,94.0
602,127.01612072916666,127.32494322916666,65.0,60.0
603,127.45729572916666,127.9572940625,65.0,89.0
604,127.45729572916666,128.02714677083333,58.0,97.0
605,128.33964572916668,128.50692458333333,58.0,105.0
606,127.89847072916666,128.55655677083334,53.0,78.0
607,127.45729572916666,128.558395,34.0,97.0
608,127.45729572916666,128.558395,46.0,97.0
609,128.33964572916668,128.66868875,62.0,105.0
610,128.33964572916668,128.84883520833333,65.0,102.0
611,128.78082072916666,129.07493739583333,58.0,111.0
612,129.22199572916665,129.43155385416665,58.0,100.0
613,129.22199572916665,129.7881703125,63.0,92.0
614,129.66317072916667,129.8433171875,58.0,82.0
615,130.10434572916665,130.290006875,58.0,102.0
616,130.10434572916665,130.74404947916668,67.0,109.0
617,130.10434572916665,130.775299375,63.0,111.0
618,130.54552072916667,130.86904906249998,58.0,55.0
619,130.98669572916666,131.19625385416666,58.0,84.0
620,130.98669572916666,131.51059104166666,63.0,84.0
621,131.86904572916666,132.672351875,63.0,100.0
622,131.86904572916666,132.70544,67.0,112.0
623,131.42787072916667,132.71463114583332,58.0,52.0
624,129.22199572916665,132.75139572916666,39.0,94.0
625,129.22199572916665,132.75139572916666,51.0,94.0
626,133.63374572916666,134.1227146875,65.0,69.0
627,134.07492072916665,135.264255,67.0,87.0
628,132.75139572916666,135.50873947916665,51.0,78.0
629,133.19257072916668,135.517930625,58.0,80.0
630,137.16314572916667,137.49586520833333,58.0,108.0
631,137.60432072916666,137.84880520833332,58.0,32.0
632,137.60432072916666,138.08961322916667,63.0,76.0
633,136.72197072916666,138.60247916666665,55.0,38.0
634,136.28079572916667,138.96277208333333,48.0,84.0
635,138.04549572916667,139.01608072916667,67.0,48.0
636,139.81019572916665,140.73298677083332,68.0,73.0
637,140.69254572916665,142.003203125,63.0,92.0
638,140.25137072916667,142.03629125,60.0,64.0
639,141.13372072916667,142.0528353125,68.0,51.0
640,139.81019572916665,142.08040875,53.0,92.0
641,143.33959572916666,143.90209385416665,65.0,82.0
642,143.33959572916666,143.94253489583332,58.0,71.0
643,143.78077072916668,144.39841572916666,53.0,82.0
644,143.33959572916666,144.54915052083334,46.0,92.0
645,144.22194572916666,144.66495895833333,58.0,111.0
646,144.22194572916666,144.716429375,62.0,112.0
647,144.22194572916666,144.74400281249999,65.0,108.0
648,144.66312072916665,144.98297260416666,53.0,76.0
649,144.88370822916667,145.0307665625,58.0,92.0
650,145.10429572916667,145.39289770833332,70.0,102.0
651,145.10429572916667,145.40392708333334,62.0,96.0
652,145.10429572916667,145.40760354166667,65.0,102.0
653,145.10429572916667,145.40944177083333,58.0,89.0
654,145.54547072916665,145.77892583333332,70.0,82.0
655,145.54547072916665,145.78260229166665,65.0,94.0
656,145.10429572916667,145.78995520833334,46.0,108.0
657,145.54547072916665,145.80098458333333,58.0,84.0
658,145.54547072916665,145.80282281249998,62.0,96.0
659,145.10429572916667,145.8083375,53.0,102.0
660,145.98664572916667,146.381865,58.0,105.0
661,145.98664572916667,146.67598166666667,62.0,109.0
662,145.98664572916667,146.80098125,70.0,100.0
663,145.98664572916667,146.85796635416665,53.0,108.0
664,145.98664572916667,146.8671575,46.0,108.0
665,146.42782072916665,146.89289270833333,50.0,96.0
666,146.86899572916667,147.37450875,70.0,94.0
667,146.86899572916667,147.38369989583333,63.0,87.0
668,146.86899572916667,147.3910528125,67.0,99.0
669,147.31017072916666,147.92965395833332,58.0,71.0
670,147.75134572916667,148.12634447916668,70.0,102.0
671,147.75134572916667,148.15575614583332,63.0,102.0
672,148.19252072916666,148.86715083333334,58.0,62.0
673,148.63369572916667,149.08957656249999,63.0,105.0
674,148.63369572916667,149.128179375,70.0,94.0
675,149.29545822916666,149.41310489583333,63.0,66.0
676,149.07487072916666,149.65391291666666,58.0,66.0
677,146.86899572916667,149.73111854166666,39.0,92.0
678,146.86899572916667,149.73111854166666,51.0,102.0
679,149.51604572916665,149.74398614583333,67.0,112.0
680,149.51604572916665,149.767883125,63.0,102.0
681,149.51604572916665,149.78075072916667,70.0,100.0
682,149.95722072916666,150.08405854166665,39.0,87.0
683,149.95722072916666,150.08405854166665,51.0,97.0
684,150.39839572916665,150.76052687499998,60.0,87.0
685,150.39839572916665,150.782585625,67.0,63.0
686,150.39839572916665,150.80648260416666,63.0,78.0
687,150.83957072916667,151.4167746875,55.0,68.0
688,151.28074572916665,151.6814796875,60.0,102.0
689,151.28074572916665,151.9903021875,67.0,96.0
690,151.28074572916665,151.995816875,63.0,102.0
691,151.94250822916666,152.084051875,60.0,66.0
692,151.72192072916667,152.3653009375,55.0,45.0
693,152.16309572916666,152.58037375,70.0,97.0
694,152.16309572916666,152.58221197916666,67.0,72.0
695,152.16309572916666,152.60610895833332,63.0,94.0
696,152.16309572916666,152.6189765625,60.0,97.0
697,152.82485822916667,152.95721072916666,60.0,58.0
698,152.60427072916667,153.142871875,55.0,38.0
699,153.04544572916666,153.363459375,60.0,100.0
700,153.04544572916666,153.50316479166665,67.0,102.0
701,153.48662072916667,153.6777965625,63.0,92.0
702,153.48662072916667,153.6998553125,60.0,89.0
703,150.39839572916665,153.77889916666666,36.0,84.0
704,150.39839572916665,153.77889916666666,48.0,94.0
705,153.92779572916666,154.16492729166666,60.0,89.0
706,153.92779572916666,154.4608821875,65.0,92.0
707,154.36897072916668,154.5491171875,60.0,69.0
708,154.81014572916666,155.00499802083334,60.0,102.0
709,154.81014572916666,155.3432321875,68.0,105.0
710,154.81014572916666,155.4866140625,65.0,108.0
711,153.92779572916666,155.56933437499998,41.0,95.0
712,153.92779572916666,155.56933437499998,53.0,105.0
713,155.25132072916665,155.5748490625,60.0,64.0
714,155.69249572916667,155.92043614583332,60.0,89.0
715,155.69249572916667,156.24580270833331,68.0,94.0
716,155.69249572916667,156.35058177083332,65.0,97.0
717,156.13367072916665,156.38918458333333,60.0,48.0
718,156.57484572916667,156.76969802083332,68.0,100.0
719,156.57484572916667,156.78440385416667,65.0,105.0
720,156.57484572916667,157.0086678125,60.0,100.0
721,155.69249572916667,157.11712333333332,41.0,82.0
722,155.69249572916667,157.11712333333332,53.0,92.0
723,157.45719572916667,157.995796875,58.0,100.0
724,157.45719572916667,158.01601739583333,65.0,97.0
725,157.89837072916666,158.48476583333334,53.0,62.0
726,158.33954572916667,158.59505958333332,58.0,114.0
727,158.33954572916667,158.62814770833333,65.0,102.0
728,157.45719572916667,158.86344104166668,34.0,84.0
729,157.45719572916667,158.86344104166668,46.0,94.0
730,158.78072072916666,159.06564625,63.0,57.0
731,159.22189572916668,159.6446884375,58.0,82.0
732,159.22189572916668,159.64652666666666,65.0,92.0
733,160.10424572916665,160.35240666666667,58.0,108.0
734,160.10424572916665,160.82299333333333,62.0,105.0
735,159.66307072916666,160.83402270833332,53.0,58.0
736,159.22189572916668,160.83953739583333,34.0,87.0
737,159.22189572916668,160.83953739583333,46.0,97.0
738,160.10424572916665,160.8799784375,65.0,100.0
739,160.54542072916666,160.88549312499998,58.0,78.0
740,160.98659572916665,162.60423739583334,62.0,72.0
741,160.98659572916665,162.60975208333332,58.0,89.0
742,160.98659572916665,162.63364906249998,65.0,92.0
743,162.75129572916666,163.92224770833332,62.0,57.0
744,162.75129572916666,164.03070322916668,70.0,97.0
745,162.75129572916666,164.10423239583332,58.0,87.0
746,160.98659572916665,164.30643760416666,34.0,84.0
747,160.98659572916665,164.30643760416666,46.0,94.0
748,164.51599572916666,165.02886166666667,58.0,82.0
749,164.51599572916666,165.10239083333332,63.0,87.0
750,165.39834572916666,165.71819760416668,63.0,80.0
751,165.39834572916666,165.76966802083334,67.0,93.0
752,166.28069572916667,166.5049596875,58.0,84.0
753,166.28069572916667,166.8027528125,63.0,94.0
754,166.28069572916667,166.80459104166667,67.0,93.0
755,167.16304572916667,167.31929520833333,63.0,102.0
756,167.16304572916667,167.40569197916668,58.0,94.0
757,167.16304572916667,167.5086328125,67.0,105.0
758,164.51599572916666,167.84870520833334,39.0,69.0
759,164.51599572916666,167.84870520833334,51.0,80.0
760,168.04539572916667,168.64833489583333,63.0,87.0
761,168.04539572916667,168.74024635416666,60.0,76.0
762,168.92774572916667,169.2843621875,63.0,76.0
763,168.92774572916667,169.35237666666666,67.0,93.0
764,169.81009572916668,170.04171260416666,60.0,71.0
765,169.81009572916668,170.3321528125,63.0,92.0
766,169.81009572916668,170.38546145833334,67.0,102.0
767,170.25127072916666,170.48840229166666,60.0,60.0
768,170.69244572916665,170.88913625,60.0,97.0
769,170.69244572916665,170.89648916666667,63.0,82.0
770,170.69244572916665,170.911195,67.0,96.0
771,171.13362072916667,171.4020021875,58.0,105.0
772,168.04539572916667,171.407516875,36.0,71.0
773,168.04539572916667,171.407516875,48.0,82.0
774,171.57479572916665,172.28251395833334,63.0,84.0
775,171.57479572916665,172.3505284375,58.0,92.0
776,172.45714572916665,172.852365,63.0,92.0
777,172.45714572916665,172.87074729166667,67.0,102.0
778,173.78067072916667,173.87993510416666,58.0,37.0
779,173.33949572916666,173.94243489583332,63.0,87.0
780,173.33949572916666,173.94243489583332,67.0,87.0
781,174.22184572916666,174.39831572916665,58.0,100.0
782,174.22184572916666,174.69243239583332,63.0,102.0
783,174.22184572916666,174.75125572916667,67.0,102.0
784,174.66302072916667,174.78985854166666,58.0,58.0
785,171.57479572916665,175.05088708333332,39.0,65.0
786,171.57479572916665,175.05088708333332,51.0,76.0
787,175.10419572916666,175.34684197916667,60.0,82.0
788,175.10419572916666,175.7475759375,65.0,89.0
789,175.54537072916665,176.08213364583332,60.0,64.0
790,175.98654572916666,176.4093384375,65.0,87.0
791,175.98654572916666,176.46816177083332,68.0,87.0
792,176.86889572916667,177.363379375,65.0,64.0
793,176.86889572916667,177.39279104166667,68.0,73.0
794,177.31007072916665,177.6611725,60.0,64.0
795,177.75124572916667,177.80639260416666,60.0,32.0
796,177.75124572916667,177.86153947916665,65.0,102.0
797,177.75124572916667,177.892789375,68.0,100.0
798,175.10419572916666,178.3394790625,41.0,76.0
799,175.10419572916666,178.3394790625,53.0,87.0
800,178.19242072916666,178.378081875,55.0,105.0
801,178.63359572916667,179.22918197916667,60.0,80.0
802,178.63359572916667,179.370725625,56.0,52.0
803,179.51594572916667,179.65748937499998,60.0,87.0
804,179.51594572916667,179.69241572916667,63.0,87.0
805,180.39829572916665,180.73101520833333,60.0,89.0
806,180.39829572916665,180.782485625,63.0,84.0
807,181.28064572916665,181.4277040625,56.0,92.0
808,181.28064572916665,181.5269684375,60.0,117.0
809,181.28064572916665,181.58395354166666,63.0,102.0
810,178.63359572916667,181.77329114583333,32.0,81.0
811,178.63359572916667,181.77329114583333,44.0,92.0
812,181.28064572916665,181.79351166666666,68.0,89.0
813,179.07477072916666,181.82292333333334,39.0,33.0
814,179.07477072916666,181.82292333333334,51.0,44.0
815,182.16299572916665,182.58395020833333,63.0,92.0
816,182.16299572916665,182.679538125,58.0,76.0
817,182.16299572916665,182.93321375,39.0,81.0
818,182.16299572916665,182.93321375,51.0,92.0
819,183.04534572916666,183.617035,62.0,99.0
820,183.04534572916666,183.6556378125,58.0,94.0
821,183.04534572916666,183.79718145833334,34.0,81.0
822,183.04534572916666,183.79718145833334,46.0,92.0
823,183.92769572916666,184.16115083333332,60.0,82.0
824,183.92769572916666,184.53614958333333,63.0,84.0
825,184.36887072916667,184.60048760416666,60.0,57.0
826,184.81004572916666,185.01041270833332,60.0,94.0
827,184.81004572916666,185.18504447916666,63.0,94.0
828,184.81004572916666,185.22364729166665,67.0,105.0
829,185.25122072916668,185.37438208333333,60.0,52.0
830,183.92769572916666,185.52879333333334,36.0,83.0
831,183.92769572916666,185.52879333333334,48.0,94.0
832,185.69239572916666,185.94790958333334,60.0,73.0
833,185.69239572916666,186.27143791666666,68.0,89.0
834,185.69239572916666,186.2806290625,65.0,87.0
835,186.57474572916666,186.76408333333333,60.0,100.0
836,186.57474572916666,186.77878916666666,68.0,97.0
837,186.57474572916666,186.92768572916665,65.0,105.0
838,187.45709572916667,187.71812427083333,60.0,100.0
839,187.45709572916667,188.04165260416667,65.0,108.0
840,187.45709572916667,188.10231416666667,69.0,99.0
841,188.33944572916667,188.51040104166665,60.0,82.0
842,188.33944572916667,188.54348916666666,65.0,92.0
843,188.33944572916667,188.57106260416666,69.0,79.0
844,185.69239572916666,188.6409153125,41.0,91.0
845,185.69239572916666,188.6409153125,53.0,102.0
846,189.22179572916667,189.5012065625,58.0,80.0
847,189.22179572916667,189.70708822916666,62.0,70.0
848,189.66297072916666,189.86333770833332,58.0,69.0
849,189.22179572916667,189.87436708333334,65.0,87.0
850,190.10414572916667,190.29899802083332,58.0,94.0
851,190.10414572916667,190.31370385416665,62.0,99.0
852,190.10414572916667,190.38723302083332,65.0,92.0
853,189.22179572916667,190.82105510416667,34.0,81.0
854,189.22179572916667,190.82105510416667,46.0,92.0
855,190.54532072916666,190.863334375,63.0,87.0
856,190.98649572916665,191.31370052083332,58.0,84.0
857,190.98649572916665,191.35781802083332,62.0,68.0
858,191.42767072916666,192.1317125,53.0,76.0
859,191.86884572916665,192.4681084375,62.0,105.0
860,191.86884572916665,192.57656395833334,58.0,105.0
861,190.98649572916665,192.6776665625,34.0,83.0
862,190.98649572916665,192.6776665625,46.0,94.0
863,191.86884572916665,192.70707822916665,70.0,94.0
864,192.31002072916667,192.71443114583332,53.0,92.0
865,192.75119572916665,193.19237072916667,63.0,82.0
866,192.75119572916665,193.22178239583332,70.0,94.0
867,192.75119572916665,193.24200291666665,67.0,99.0
868,193.19237072916667,193.7806040625,58.0,50.0
869,193.63354572916666,193.98648572916667,63.0,97.0
870,193.63354572916666,194.028765,70.0,102.0
871,193.63354572916666,194.03795614583333,67.0,109.0
872,192.75119572916665,194.4092784375,39.0,100.0
873,192.75119572916665,194.4092784375,51.0,100.0
874,194.07472072916667,194.4313371875,58.0,64.0
875,194.29530822916666,194.45155770833333,63.0,87.0
876,194.51589572916666,195.01037937499999,63.0,78.0
877,194.51589572916666,195.02876166666667,67.0,99.0
878,194.51589572916666,195.0489821875,70.0,87.0
879,195.17765822916667,195.31001072916666,63.0,76.0
880,194.95707072916667,195.49934833333333,58.0,58.0
881,195.39824572916666,195.63170083333333,63.0,97.0
882,195.39824572916666,195.70706822916665,67.0,102.0
883,195.39824572916666,195.87802354166666,70.0,100.0
884,195.61883322916665,195.90743520833334,58.0,80.0
885,194.51589572916666,195.94419979166665,39.0,102.0
886,194.51589572916666,195.94419979166665,51.0,102.0
887,195.83942072916665,195.97728791666665,63.0,100.0
888,196.28059572916666,196.5710359375,60.0,76.0
889,196.28059572916666,196.79529989583332,63.0,87.0
890,196.72177072916665,196.9460346875,60.0,73.0
891,196.28059572916666,197.3651509375,36.0,105.0
892,196.28059572916666,197.3651509375,48.0,105.0
893,197.16294572916667,197.53426802083334,60.0,111.0
894,197.16294572916667,197.60044427083332,63.0,102.0
895,197.16294572916667,197.92029614583333,67.0,105.0
896,197.82470822916667,197.95338427083334,60.0,66.0
897,197.60412072916665,198.39823572916666,55.0,39.0
898,198.04529572916667,198.53426468749998,60.0,100.0
899,198.04529572916667,198.5673528125,63.0,102.0
900,198.70705822916665,198.81919020833334,60.0,80.0
901,198.92764572916667,199.17029197916665,60.0,111.0
902,198.92764572916667,199.25485052083332,63.0,108.0
903,199.36882072916666,199.664775625,60.0,102.0
904,198.48647072916665,199.69051083333332,36.0,57.0
905,198.48647072916665,199.69051083333332,48.0,57.0
906,199.80999572916667,200.02506854166666,60.0,92.0
907,199.80999572916667,200.34675864583332,65.0,92.0
908,200.25117072916666,200.4423465625,60.0,69.0
909,199.80999572916667,200.73278677083331,41.0,92.0
910,199.80999572916667,200.73278677083331,53.0,92.0
911,200.69234572916668,200.8835215625,60.0,97.0
912,200.69234572916668,201.19050583333333,65.0,108.0
913,200.69234572916668,201.19602052083332,68.0,102.0
914,201.13352072916666,201.49197541666666,60.0,89.0
915,201.57469572916665,201.782415625,60.0,76.0
916,201.57469572916665,202.08020875,65.0,82.0
917,201.57469572916665,202.12248802083332,68.0,87.0
918,202.01587072916666,202.21439947916667,60.0,71.0
919,201.57469572916665,202.55631010416667,41.0,76.0
920,201.57469572916665,202.55631010416667,53.0,76.0
921,202.45704572916665,202.60778052083333,60.0,105.0
922,202.45704572916665,202.67211854166666,65.0,114.0
923,202.45704572916665,202.95888229166667,68.0,102.0
924,202.89822072916667,203.00667625,60.0,84.0
925,203.33939572916665,203.55079208333333,65.0,84.0
926,203.33939572916665,203.59490958333333,58.0,89.0
927,203.33939572916665,203.59674781249998,62.0,96.0
928,203.78057072916667,204.29527489583333,41.0,24.0
929,203.78057072916667,204.29527489583333,53.0,24.0
930,203.33939572916665,204.34858354166667,34.0,97.0
931,203.33939572916665,204.34858354166667,46.0,97.0
932,204.22174572916666,204.48645072916665,58.0,108.0
933,204.22174572916666,204.56733281249998,65.0,105.0
934,204.22174572916666,204.605935625,70.0,87.0
935,204.22174572916666,204.62615614583333,62.0,109.0
936,204.66292072916667,204.78975854166666,41.0,84.0
937,204.66292072916667,204.78975854166666,53.0,84.0
938,204.88350822916667,205.03975770833333,58.0,114.0
939,205.10409572916666,205.71254958333333,58.0,92.0
940,205.10409572916666,205.71254958333333,65.0,97.0
941,205.10409572916666,205.72174072916667,62.0,96.0
942,205.54527072916667,205.98828395833334,41.0,67.0
943,205.54527072916667,205.98828395833334,53.0,67.0
944,205.10409572916666,205.995636875,34.0,102.0
945,205.10409572916666,205.995636875,46.0,102.0
946,205.98644572916666,206.19048916666665,58.0,108.0
947,205.98644572916666,206.35225333333332,62.0,112.0
948,205.98644572916666,206.4533559375,65.0,108.0
949,206.42762072916665,206.51217927083331,58.0,102.0
950,205.98644572916666,206.55262031249998,70.0,84.0
951,206.86879572916666,207.3779852083333,63.0,80.0
952,206.86879572916666,207.43313208333333,67.0,96.0
953,206.86879572916666,207.9643803125,39.0,94.0
954,206.86879572916666,207.9643803125,51.0,94.0
955,207.30997072916665,208.0195271875,58.0,71.0
956,207.75114572916667,208.47540802083333,63.0,92.0
957,207.75114572916667,208.48459916666667,67.0,112.0
958,207.75114572916667,208.48459916666667,70.0,105.0
959,208.19232072916665,208.59673114583333,58.0,94.0
960,208.63349572916667,209.1996703125,63.0,82.0
961,208.63349572916667,209.27136124999998,70.0,89.0
962,208.63349572916667,209.29158177083332,67.0,70.0
963,209.51584572916667,209.76400666666666,67.0,109.0
964,208.63349572916667,209.767683125,39.0,102.0
965,208.63349572916667,209.767683125,51.0,102.0
966,209.07467072916666,209.83753583333333,58.0,66.0
967,209.51584572916667,209.94047666666665,63.0,97.0
968,209.51584572916667,209.97356479166666,70.0,102.0
969,209.95702072916666,210.08569677083332,38.0,102.0
970,209.95702072916666,210.08569677083332,50.0,102.0
971,210.39819572916667,210.67393010416666,60.0,71.0
972,210.39819572916667,211.03973770833332,63.0,71.0
973,210.83937072916666,211.08753166666665,60.0,76.0
974,210.39819572916667,211.63164749999999,36.0,105.0
975,210.39819572916667,211.63164749999999,48.0,105.0
976,211.28054572916665,211.9790728125,60.0,108.0
977,211.28054572916665,211.99377864583332,67.0,105.0
978,211.28054572916665,211.995616875,63.0,105.0
979,212.16289572916665,212.81914354166665,63.0,82.0
980,212.16289572916665,212.82098177083333,60.0,87.0
981,212.16289572916665,212.84120229166666,67.0,85.0
982,212.60407072916666,213.164730625,55.0,31.0
983,212.16289572916665,213.3062742708333,36.0,94.0
984,212.16289572916665,213.3062742708333,48.0,94.0
985,213.04524572916665,213.5011265625,60.0,100.0
986,213.04524572916665,213.5011265625,63.0,102.0
987,213.04524572916665,213.539729375,67.0,102.0
988,213.48642072916667,213.59119979166667,39.0,82.0
989,213.48642072916667,213.59119979166667,51.0,82.0
990,213.92759572916665,214.532373125,68.0,87.0
991,213.92759572916665,214.59487291666667,65.0,78.0
992,214.80994572916666,215.017665625,65.0,97.0
993,213.92759572916665,215.2934,41.0,108.0
994,213.92759572916665,215.2934,53.0,108.0
995,214.80994572916666,215.3320028125,72.0,94.0
996,214.36877072916667,215.34487041666665,60.0,71.0
997,214.80994572916666,215.35589979166667,68.0,94.0
998,215.25112072916667,215.55994322916666,65.0,60.0
999,215.69229572916666,216.26214677083334,65.0,97.0
1000,215.69229572916666,216.28604375,69.0,109.0
1001,216.13347072916667,216.6003809375,60.0,73.0
1002,215.69229572916666,216.62979260416665,41.0,102.0
1003,215.69229572916666,216.62979260416665,53.0,102.0
1004,216.57464572916666,216.75846864583332,65.0,102.0
1005,216.57464572916666,217.069129375,69.0,109.0
1006,216.57464572916666,217.08383520833334,72.0,100.0
1007,217.01582072916665,217.24376114583333,65.0,92.0
1008,217.45699572916666,217.89817072916665,62.0,41.0
1009,217.45699572916666,217.90000895833333,65.0,89.0
1010,217.45699572916666,217.92758239583333,58.0,73.0
1011,217.89817072916665,218.52133041666667,53.0,67.0
1012,217.45699572916666,218.52868333333333,34.0,102.0
1013,217.45699572916666,218.52868333333333,46.0,102.0
1014,218.33934572916667,218.81912354166667,70.0,92.0
1015,218.33934572916667,218.9716965625,65.0,97.0
1016,218.33934572916667,218.99743177083332,62.0,109.0
1017,218.78052072916665,219.23088687499998,53.0,92.0
1018,219.22169572916667,219.85588479166665,62.0,77.0
1019,219.22169572916667,219.88897291666666,65.0,92.0
1020,219.22169572916667,219.89632583333332,58.0,82.0
1021,219.66287072916666,220.23272177083334,53.0,60.0
1022,219.22169572916667,220.44595635416667,34.0,94.0
1023,219.22169572916667,220.44595635416667,46.0,94.0
1024,220.10404572916667,220.89999895833333,58.0,102.0
1025,220.10404572916667,220.89999895833333,62.0,112.0
1026,220.10404572916667,220.90367541666666,70.0,87.0
1027,220.10404572916667,220.91654302083333,65.0,100.0
1028,220.54522072916666,220.929410625,53.0,94.0
1029,220.98639572916667,221.42757072916666,63.0,82.0
1030,220.98639572916667,221.45698239583334,70.0,94.0
1031,220.98639572916667,221.47720291666667,67.0,99.0
1032,221.42757072916666,222.0158040625,58.0,50.0
1033,221.86874572916665,222.22168572916667,63.0,97.0
1034,221.86874572916665,222.26396499999998,70.0,102.0
1035,221.86874572916665,222.27315614583333,67.0,109.0
1036,220.98639572916667,222.6444784375,39.0,100.0
1037,220.98639572916667,222.6444784375,51.0,100.0
1038,222.30992072916666,222.66653718749998,58.0,64.0
1039,222.53050822916666,222.68675770833332,63.0,87.0
1040,222.75109572916665,223.245579375,63.0,78.0
1041,222.75109572916665,223.26396166666666,67.0,99.0
1042,222.75109572916665,223.2841821875,70.0,87.0
1043,223.41285822916666,223.54521072916666,63.0,76.0
1044,223.19227072916667,223.73454833333332,58.0,58.0
1045,223.63344572916665,223.86690083333332,63.0,97.0
1046,223.63344572916665,223.94226822916667,67.0,102.0
1047,223.63344572916665,224.11322354166666,70.0,100.0
1048,223.85403322916667,224.14263520833333,58.0,80.0
1049,222.75109572916665,224.17939979166667,39.0,102.0
1050,222.75109572916665,224.17939979166667,51.0,102.0
1051,224.07462072916667,224.21248791666665,63.0,100.0
1052,224.51579572916665,224.8062359375,60.0,76.0
1053,224.51579572916665,225.03049989583332,63.0,87.0
1054,224.95697072916667,225.1812346875,60.0,73.0
1055,224.51579572916665,225.6003509375,36.0,105.0
1056,224.51579572916665,225.6003509375,48.0,105.0
1057,225.39814572916666,225.76946802083333,60.0,111.0
1058,225.39814572916666,225.8356442708333,63.0,102.0
1059,225.39814572916666,226.15549614583333,67.0,105.0
1060,226.05990822916667,226.18858427083333,60.0,66.0
1061,225.83932072916667,226.63343572916665,55.0,39.0
1062,226.28049572916666,226.7694646875,60.0,100.0
1063,226.28049572916666,226.80255281249998,63.0,102.0
1064,226.94225822916667,227.05439020833333,60.0,80.0
1065,227.16284572916666,227.40549197916667,60.0,111.0
1066,227.16284572916666,227.49005052083334,63.0,108.0
1067,227.60402072916665,227.899975625,60.0,102.0
1068,226.72167072916665,227.92571083333334,36.0,57.0
1069,226.72167072916665,227.92571083333334,48.0,57.0
1070,228.04519572916666,228.26026854166665,60.0,92.0
1071,228.04519572916666,228.58195864583334,65.0,92.0
1072,228.48637072916665,228.6775465625,60.0,69.0
1073,228.04519572916666,228.96798677083333,41.0,92.0
1074,228.04519572916666,228.96798677083333,53.0,92.0
1075,228.92754572916667,229.11872156249999,60.0,97.0
1076,228.92754572916667,229.42570583333332,65.0,108.0
1077,228.92754572916667,229.43122052083334,68.0,102.0
1078,229.36872072916665,229.72717541666665,60.0,89.0
1079,229.80989572916667,230.017615625,60.0,76.0
1080,229.80989572916667,230.31540875,65.0,82.0
1081,229.80989572916667,230.35768802083334,68.0,87.0
1082,230.25107072916666,230.44959947916666,60.0,71.0
1083,229.80989572916667,230.79151010416666,41.0,76.0
1084,229.80989572916667,230.79151010416666,53.0,76.0
1085,230.69224572916667,230.84298052083332,60.0,105.0
1086,230.69224572916667,230.90731854166665,65.0,114.0
1087,230.69224572916667,231.19408229166666,68.0,102.0
1088,231.13342072916666,231.24187625,60.0,84.0
1089,231.57459572916667,231.78599208333333,65.0,84.0
1090,231.57459572916667,231.83010958333332,58.0,89.0
1091,231.57459572916667,231.8319478125,62.0,96.0
1092,232.01577072916666,232.53047489583332,41.0,24.0
1093,232.01577072916666,232.53047489583332,53.0,24.0
1094,231.57459572916667,232.58378354166666,34.0,97.0
1095,231.57459572916667,232.58378354166666,46.0,97.0
1096,232.45694572916665,232.72165072916667,58.0,108.0
1097,232.45694572916665,232.8025328125,65.0,105.0
1098,232.45694572916665,232.841135625,70.0,87.0
1099,232.45694572916665,232.86135614583333,62.0,109.0
1100,232.89812072916666,233.02495854166665,41.0,84.0
1101,232.89812072916666,233.02495854166665,53.0,84.0
1102,233.11870822916666,233.27495770833332,58.0,114.0
1103,233.33929572916665,233.94774958333332,58.0,92.0
1104,233.33929572916665,233.94774958333332,65.0,97.0
1105,233.33929572916665,233.95694072916666,62.0,96.0
1106,233.78047072916667,234.22348395833333,41.0,67.0
1107,233.78047072916667,234.22348395833333,53.0,67.0
1108,233.33929572916665,234.230836875,34.0,102.0
1109,233.33929572916665,234.230836875,46.0,102.0
1110,234.22164572916665,234.42568916666667,58.0,108.0
1111,234.22164572916665,234.58745333333331,62.0,112.0
1112,234.22164572916665,234.68855593749998,65.0,108.0
1113,234.66282072916667,234.74737927083333,58.0,102.0
1114,234.22164572916665,234.7878203125,70.0,84.0
1115,235.10399572916666,235.61318520833333,63.0,80.0
1116,235.10399572916666,235.66833208333333,67.0,96.0
1117,235.10399572916666,236.1995803125,39.0,94.0
1118,235.10399572916666,236.1995803125,51.0,94.0
1119,235.54517072916667,236.25472718749998,58.0,71.0
1120,235.98634572916666,236.71060802083332,63.0,92.0
1121,235.98634572916666,236.71979916666666,67.0,112.0
1122,235.98634572916666,236.71979916666666,70.0,105.0
1123,236.42752072916667,236.83193114583332,58.0,94.0
1124,236.86869572916666,237.43487031249998,63.0,82.0
1125,236.86869572916666,237.50656125,70.0,89.0
1126,236.86869572916666,237.52678177083334,67.0,70.0
1127,237.75104572916666,237.99920666666665,67.0,109.0
1128,236.86869572916666,238.00288312499998,39.0,102.0
1129,236.86869572916666,238.00288312499998,51.0,102.0
1130,237.30987072916665,238.07273583333333,58.0,66.0
1131,237.75104572916666,238.17567666666665,63.0,97.0
1132,237.75104572916666,238.20876479166665,70.0,102.0
1133,238.19222072916665,238.32089677083331,38.0,102.0
1134,238.19222072916665,238.32089677083331,50.0,102.0
1135,238.63339572916666,238.90913010416665,60.0,71.0
1136,238.63339572916666,239.27493770833334,63.0,71.0
1137,239.07457072916665,239.32273166666667,60.0,76.0
1138,238.63339572916666,239.8668475,36.0,105.0
1139,238.63339572916666,239.8668475,48.0,105.0
1140,239.51574572916667,240.21427281249998,60.0,108.0
1141,239.51574572916667,240.22897864583334,67.0,105.0
1142,239.51574572916667,240.230816875,63.0,105.0
1143,240.39809572916667,241.05434354166667,63.0,82.0
1144,240.39809572916667,241.05618177083332,60.0,87.0
1145,240.39809572916667,241.07640229166665,67.0,85.0
1146,240.83927072916666,241.399930625,55.0,31.0
1147,240.39809572916667,241.54147427083333,36.0,94.0
1148,240.39809572916667,241.54147427083333,48.0,94.0
1149,241.28044572916667,241.73632656249998,60.0,100.0
1150,241.28044572916667,241.73632656249998,63.0,102.0
1151,241.28044572916667,241.774929375,67.0,102.0
1152,241.72162072916666,241.82639979166666,39.0,82.0
1153,241.72162072916666,241.82639979166666,51.0,82.0
1154,242.16279572916665,242.76757312499998,68.0,87.0
1155,242.16279572916665,242.83007291666667,65.0,78.0
1156,243.04514572916665,243.252865625,65.0,97.0
1157,242.16279572916665,243.52859999999998,41.0,108.0
1158,242.16279572916665,243.52859999999998,53.0,108.0
1159,243.04514572916665,243.5672028125,72.0,94.0
1160,242.60397072916666,243.58007041666667,60.0,71.0
1161,243.04514572916665,243.59109979166666,68.0,94.0
1162,243.48632072916666,243.79514322916665,65.0,60.0
1163,243.92749572916665,244.4274940625,65.0,89.0
1164,243.92749572916665,244.49734677083333,58.0,97.0
1165,244.80984572916665,244.97712458333334,58.0,105.0
1166,244.36867072916667,245.02675677083332,53.0,78.0
1167,243.92749572916665,245.028595,34.0,97.0
1168,243.92749572916665,245.028595,46.0,97.0
1169,244.80984572916665,245.13888875,62.0,105.0
1170,244.80984572916665,245.31903520833333,65.0,102.0
1171,245.25102072916667,245.54513739583334,58.0,111.0
1172,245.69219572916666,245.90175385416666,58.0,100.0
1173,245.69219572916666,246.2583703125,63.0,92.0
1174,246.13337072916667,246.3135171875,58.0,82.0
1175,246.57454572916666,246.760206875,58.0,102.0
1176,246.57454572916666,247.21424947916665,67.0,109.0
1177,246.57454572916666,247.24549937499998,63.0,111.0
1178,247.01572072916667,247.3392490625,58.0,55.0
1179,247.45689572916666,247.66645385416666,58.0,84.0
1180,247.45689572916666,247.98079104166666,63.0,84.0
1181,248.33924572916666,249.14255187499998,63.0,100.0
1182,248.33924572916666,249.17564,67.0,112.0
1183,247.89807072916665,249.18483114583333,58.0,52.0
1184,245.69219572916666,249.22159572916667,39.0,94.0
1185,245.69219572916666,249.22159572916667,51.0,94.0
1186,249.5340946875,250.44585635416666,60.0,58.0
1187,249.31534541666667,250.47342979166666,53.0,102.0
1188,249.31718364583332,250.66828208333334,65.0,71.0
1189,249.46975666666665,250.69401729166665,68.0,92.0
1190,251.06533958333333,256.18113135416667,46.0,53.0
1191,251.20688322916666,256.201351875,53.0,46.0
1192,251.31350052083332,256.58738,58.0,66.0
1193,251.4017355208333,256.620468125,62.0,37.0
1194,251.51202927083332,256.6995119791667,65.0,57.0
1195,251.6554111458333,257.49730343749997,70.0,78.0
1196,257.40906843749997,257.8208317708333,63.0,87.0
1197,257.76752312499997,258.11127197916664,65.0,105.0
1198,258.18296291666667,258.22891864583335,65.0,12.0
1199,258.18296291666667,258.50649125,67.0,105.0
1200,258.64803489583335,258.9642103125,63.0,62.0
1201,258.62965260416667,258.96788677083333,70.0,84.0
1202,259.15354791666664,259.510164375,63.0,43.0
1203,259.14068031249997,259.75464885416665,70.0,67.0
1204,257.0248785416667,259.8649426041667,58.0,67.0
1205,259.76384,260.13148583333333,63.0,29.0
1206,259.72707541666665,260.19214739583333,68.0,53.0
1207,256.69215906249997,260.83001291666665,51.0,87.0
1208,260.31714697916664,261.1590559375,65.0,94.0
1209,261.10574729166666,264.43845677083334,51.0,66.0
1210,261.2693496875,264.44764791666665,58.0,49.0
1211,261.341040625,264.62411791666665,63.0,39.0
1212,261.41273156249997,264.627794375,65.0,69.0
1213,261.5083194791667,264.6369855208333,70.0,62.0
