,start,end,pitch,velocity
0,34.965625,35.755208333333336,66.0,119.0
1,35.965625,36.75208333333333,73.0,119.0
2,36.965625,37.56458333333333,66.0,120.0
3,37.465625,37.946875,69.0,119.0
4,37.965625,38.45520833333333,66.0,110.0
5,38.465625,38.91875,64.0,117.0
6,38.965625,39.41770833333333,61.0,113.0
7,41.465625,42.05104166666666,73.0,117.0
8,41.965625,42.50729166666667,71.0,107.0
9,42.465625,42.95104166666667,69.0,119.0
10,42.965625,43.526041666666664,64.0,117.0
11,43.965625,44.40208333333333,71.0,114.0
12,44.965625,45.46458333333333,64.0,107.0
13,45.465625,45.96875,68.0,114.0
14,45.965625,46.427083333333336,66.0,100.0
15,46.465625,46.97083333333333,64.0,113.0
16,46.965625,47.346875,66.0,108.0
17,50.965625,51.755208333333336,66.0,119.0
18,51.965624999999996,52.75208333333333,73.0,119.0
19,52.965624999999996,53.56458333333333,66.0,120.0
20,53.465624999999996,53.946875,69.0,119.0
21,53.965624999999996,54.45520833333333,66.0,110.0
22,54.465624999999996,54.918749999999996,64.0,117.0
23,54.965624999999996,55.41770833333333,61.0,113.0
24,57.465624999999996,58.05104166666666,73.0,117.0
25,57.965624999999996,58.50729166666667,71.0,107.0
26,58.465624999999996,58.95104166666667,69.0,119.0
27,58.965624999999996,59.526041666666664,64.0,117.0
28,59.965624999999996,60.40208333333333,71.0,114.0
29,60.965624999999996,61.46458333333333,64.0,107.0
30,61.465624999999996,61.96875,68.0,114.0
31,61.965624999999996,62.427083333333336,66.0,100.0
32,62.465624999999996,62.97083333333333,64.0,113.0
33,62.965624999999996,63.346875,66.0,108.0
34,66.965625,67.059375,69.0,119.0
35,67.215625,67.29895833333333,69.0,106.0
36,67.465625,67.64166666666667,69.0,109.0
37,67.715625,67.93229166666667,64.0,108.0
38,67.965625,68.25,69.0,113.0
39,68.465625,68.58541666666666,71.0,107.0
40,68.715625,68.86145833333333,73.0,102.0
41,68.965625,69.05416666666666,71.0,98.0
42,69.215625,69.296875,71.0,100.0
43,69.465625,69.6,71.0,104.0
44,69.715625,69.825,69.0,109.0
45,69.965625,70.24583333333334,71.0,110.0
46,70.965625,71.053125,71.0,110.0
47,71.215625,71.296875,71.0,96.0
48,71.465625,71.64375,71.0,102.0
49,71.715625,71.88125,69.0,113.0
50,71.965625,72.21770833333333,71.0,107.0
51,72.465625,72.74791666666667,73.0,114.0
52,72.965625,73.04375,66.0,108.0
53,73.215625,73.29375,66.0,104.0
54,73.465625,73.6875,66.0,102.0
55,73.715625,74.003125,64.0,100.0
56,73.965625,74.28333333333333,66.0,96.0
57,74.965625,75.04166666666667,69.0,113.0
58,75.215625,75.29479166666667,69.0,109.0
59,75.465625,75.67083333333333,69.0,109.0
60,75.715625,75.96145833333333,64.0,110.0
61,75.965625,76.228125,69.0,116.0
62,76.465625,76.78958333333333,73.0,119.0
63,76.965625,77.04270833333334,71.0,108.0
64,77.215625,77.29166666666667,71.0,107.0
65,77.465625,77.66979166666667,71.0,108.0
66,77.715625,77.884375,69.0,106.0
67,77.965625,78.328125,71.0,110.0
68,78.465625,78.72291666666666,73.0,108.0
69,78.715625,78.87604166666667,76.0,93.0
70,78.965625,79.06666666666666,78.0,100.0
71,79.215625,79.303125,78.0,96.0
72,79.465625,79.54479166666667,78.0,102.0
73,79.715625,79.784375,78.0,102.0
74,79.965625,80.13333333333333,78.0,110.0
75,80.465625,80.59791666666666,73.0,110.0
76,80.715625,80.81979166666666,78.0,108.0
77,80.965625,81.40208333333334,76.0,116.0
78,82.965625,83.278125,73.0,119.0
79,83.465625,83.73229166666667,78.0,119.0
80,83.965625,84.23333333333333,81.0,119.0
81,84.465625,84.68854166666667,78.0,116.0
82,84.715625,84.9375,76.0,110.0
83,84.965625,85.184375,73.0,117.0
84,85.215625,85.31145833333333,73.0,113.0
85,85.465625,85.67291666666667,73.0,110.0
86,85.715625,85.90520833333333,71.0,114.0
87,85.965625,86.14791666666666,73.0,117.0
88,86.215625,86.484375,76.0,113.0
89,86.465625,86.68229166666667,73.0,110.0
90,86.715625,86.95625,69.0,109.0
91,86.965625,87.26666666666667,71.0,108.0
92,87.465625,87.71458333333334,71.0,114.0
93,87.715625,87.94270833333333,69.0,109.0
94,87.965625,88.12916666666666,71.0,114.0
95,88.465625,88.721875,71.0,116.0
96,88.715625,88.94791666666667,69.0,113.0
97,88.965625,89.15625,71.0,94.0
98,89.215625,89.33020833333333,73.0,116.0
99,89.465625,89.68541666666667,73.0,113.0
100,89.715625,89.91354166666666,71.0,114.0
101,89.965625,90.22083333333333,73.0,119.0
102,90.965625,91.278125,73.0,119.0
103,91.465625,91.73229166666667,78.0,119.0
104,91.965625,92.23333333333333,81.0,119.0
105,92.465625,92.68854166666667,78.0,116.0
106,92.715625,92.9375,76.0,110.0
107,92.965625,93.184375,73.0,117.0
108,93.215625,93.31145833333333,73.0,113.0
109,93.465625,93.67291666666667,73.0,110.0
110,93.715625,93.90520833333333,71.0,114.0
111,93.965625,94.14791666666666,73.0,117.0
112,94.215625,94.484375,76.0,113.0
113,94.465625,94.68229166666667,73.0,110.0
114,94.715625,94.95625,69.0,109.0
115,94.965625,95.26666666666667,71.0,108.0
116,95.465625,95.71458333333334,71.0,114.0
117,95.715625,95.94270833333333,69.0,109.0
118,95.965625,96.12916666666666,71.0,114.0
119,96.465625,96.69479166666666,71.0,116.0
120,96.715625,96.96354166666667,73.0,108.0
121,96.965625,97.21145833333333,71.0,116.0
122,97.215625,97.43333333333334,69.0,113.0
123,97.465625,97.68541666666667,66.0,108.0
124,97.715625,97.921875,64.0,107.0
125,97.965625,98.3,66.0,116.0
126,98.965625,99.278125,73.0,119.0
127,99.465625,99.73229166666667,78.0,119.0
128,99.965625,100.23333333333333,81.0,119.0
129,100.465625,100.68854166666667,78.0,116.0
130,100.715625,100.9375,76.0,110.0
131,100.965625,101.184375,73.0,117.0
132,101.215625,101.31145833333333,73.0,113.0
133,101.465625,101.67291666666667,73.0,110.0
134,101.715625,101.90520833333333,71.0,114.0
135,101.965625,102.14791666666666,73.0,117.0
136,102.215625,102.484375,76.0,113.0
137,102.465625,102.68229166666667,73.0,110.0
138,102.715625,102.95625,69.0,109.0
139,102.965625,103.26666666666667,71.0,108.0
140,103.465625,103.71458333333334,71.0,114.0
141,103.715625,103.94270833333333,69.0,109.0
142,103.965625,104.12916666666666,71.0,114.0
143,104.465625,104.721875,71.0,116.0
144,104.715625,104.94791666666667,69.0,113.0
145,104.965625,105.15625,71.0,94.0
146,105.215625,105.33020833333333,73.0,116.0
147,105.465625,105.68541666666667,73.0,113.0
148,105.715625,105.91354166666666,76.0,114.0
149,105.965625,106.22083333333333,73.0,119.0
150,106.965625,107.278125,73.0,119.0
151,107.465625,107.73229166666667,78.0,119.0
152,107.965625,108.23333333333333,81.0,119.0
153,108.465625,108.68854166666667,78.0,116.0
154,108.715625,108.9375,76.0,110.0
155,108.965625,109.184375,73.0,117.0
156,109.215625,109.31145833333333,73.0,113.0
157,109.465625,109.67291666666667,73.0,110.0
158,109.715625,109.90520833333333,71.0,114.0
159,109.965625,110.14791666666666,73.0,117.0
160,110.215625,110.484375,76.0,113.0
161,110.465625,110.68229166666667,73.0,110.0
162,110.715625,110.95625,69.0,109.0
163,110.965625,111.26666666666667,71.0,108.0
164,111.465625,111.71458333333334,71.0,114.0
165,111.715625,111.94270833333333,69.0,109.0
166,111.965625,112.12916666666666,71.0,114.0
167,112.465625,112.69479166666666,73.0,116.0
168,112.965625,113.21145833333333,64.0,116.0
169,113.215625,113.43333333333334,69.0,113.0
170,113.465625,113.68541666666667,66.0,108.0
171,113.715625,113.921875,64.0,107.0
172,113.965625,114.3,66.0,116.0
173,130.965625,131.75520833333334,66.0,119.0
174,131.965625,132.75208333333333,73.0,119.0
175,132.965625,133.56458333333333,66.0,120.0
176,133.465625,133.946875,69.0,119.0
177,133.965625,134.45520833333333,66.0,110.0
178,134.465625,134.91875,64.0,117.0
179,134.965625,135.41770833333334,61.0,113.0
180,137.465625,138.05104166666666,73.0,117.0
181,137.965625,138.50729166666667,71.0,107.0
182,138.465625,138.95104166666667,69.0,119.0
183,138.965625,139.52604166666666,64.0,117.0
184,139.965625,140.40208333333334,71.0,114.0
185,140.965625,141.46458333333334,64.0,107.0
186,141.465625,141.96875,68.0,114.0
187,141.965625,142.42708333333334,66.0,100.0
188,142.465625,142.97083333333333,64.0,113.0
189,142.965625,143.346875,66.0,108.0
190,146.965625,147.75520833333334,66.0,119.0
191,147.965625,148.75208333333333,73.0,119.0
192,148.965625,149.56458333333333,66.0,120.0
193,149.465625,149.946875,69.0,119.0
194,149.965625,150.45520833333333,66.0,110.0
195,150.465625,150.91875,64.0,117.0
196,150.965625,151.41770833333334,61.0,113.0
197,153.465625,154.05104166666666,73.0,117.0
198,153.965625,154.50729166666667,71.0,107.0
199,154.465625,154.95104166666667,69.0,119.0
200,154.965625,155.52604166666666,64.0,117.0
201,155.965625,156.40208333333334,71.0,114.0
202,156.965625,157.46458333333334,64.0,107.0
203,157.465625,157.96875,68.0,114.0
204,157.965625,158.42708333333334,66.0,100.0
205,158.465625,158.97083333333333,64.0,113.0
206,158.965625,159.346875,66.0,108.0
207,162.965625,163.059375,69.0,119.0
208,163.215625,163.29895833333333,69.0,106.0
209,163.465625,163.64166666666665,69.0,109.0
210,163.715625,163.93229166666666,64.0,108.0
211,163.965625,164.25,69.0,113.0
212,164.465625,164.58541666666667,71.0,107.0
213,164.715625,164.86145833333333,73.0,102.0
214,164.965625,165.05416666666667,71.0,98.0
215,165.215625,165.296875,71.0,100.0
216,165.465625,165.6,71.0,104.0
217,165.715625,165.825,69.0,109.0
218,165.965625,166.24583333333334,71.0,110.0
219,166.965625,167.053125,71.0,110.0
220,167.215625,167.296875,71.0,96.0
221,167.465625,167.64375,71.0,102.0
222,167.715625,167.88125,69.0,113.0
223,167.965625,168.21770833333332,71.0,107.0
224,168.465625,168.74791666666667,73.0,114.0
225,168.965625,169.04375,66.0,108.0
226,169.215625,169.29375,66.0,104.0
227,169.465625,169.6875,66.0,102.0
228,169.715625,170.003125,64.0,100.0
229,169.965625,170.28333333333333,66.0,96.0
230,170.965625,171.04166666666666,69.0,113.0
231,171.215625,171.29479166666667,69.0,109.0
232,171.465625,171.67083333333332,69.0,109.0
233,171.715625,171.96145833333333,64.0,110.0
234,171.965625,172.228125,69.0,116.0
235,172.465625,172.78958333333333,73.0,119.0
236,172.965625,173.04270833333334,71.0,108.0
237,173.215625,173.29166666666666,71.0,107.0
238,173.465625,173.66979166666667,71.0,108.0
239,173.715625,173.884375,69.0,106.0
240,173.965625,174.328125,71.0,110.0
241,174.465625,174.72291666666666,73.0,108.0
242,174.715625,174.87604166666665,76.0,93.0
243,174.965625,175.06666666666666,78.0,100.0
244,175.215625,175.303125,78.0,96.0
245,175.465625,175.54479166666667,78.0,102.0
246,175.715625,175.784375,78.0,102.0
247,175.965625,176.13333333333333,78.0,110.0
248,176.465625,176.59791666666666,73.0,110.0
249,176.715625,176.81979166666667,78.0,108.0
250,176.965625,177.40208333333334,76.0,116.0
251,178.965625,179.278125,73.0,119.0
252,179.465625,179.73229166666667,78.0,119.0
253,179.965625,180.23333333333332,81.0,119.0
254,180.465625,180.68854166666665,78.0,116.0
255,180.715625,180.9375,76.0,110.0
256,180.965625,181.184375,73.0,117.0
257,181.215625,181.31145833333332,73.0,113.0
258,181.465625,181.67291666666665,73.0,110.0
259,181.715625,181.90520833333332,71.0,114.0
260,181.965625,182.14791666666667,73.0,117.0
261,182.215625,182.484375,76.0,113.0
262,182.465625,182.68229166666666,73.0,110.0
263,182.715625,182.95625,69.0,109.0
264,182.965625,183.26666666666665,71.0,108.0
265,183.465625,183.71458333333334,71.0,114.0
266,183.715625,183.94270833333334,69.0,109.0
267,183.965625,184.12916666666666,71.0,114.0
268,184.465625,184.721875,71.0,116.0
269,184.715625,184.94791666666666,69.0,113.0
270,184.965625,185.15625,71.0,94.0
271,185.215625,185.33020833333333,73.0,116.0
272,185.465625,185.68541666666667,73.0,113.0
273,185.715625,185.91354166666667,71.0,114.0
274,185.965625,186.22083333333333,73.0,119.0
275,186.965625,187.278125,73.0,119.0
276,187.465625,187.73229166666667,78.0,119.0
277,187.965625,188.23333333333332,81.0,119.0
278,188.465625,188.68854166666665,78.0,116.0
279,188.715625,188.9375,76.0,110.0
280,188.965625,189.184375,73.0,117.0
281,189.215625,189.31145833333332,73.0,113.0
282,189.465625,189.67291666666665,73.0,110.0
283,189.715625,189.90520833333332,71.0,114.0
284,189.965625,190.14791666666667,73.0,117.0
285,190.215625,190.484375,76.0,113.0
286,190.465625,190.68229166666666,73.0,110.0
287,190.715625,190.95625,69.0,109.0
288,190.965625,191.26666666666665,71.0,108.0
289,191.465625,191.71458333333334,71.0,114.0
290,191.715625,191.94270833333334,69.0,109.0
291,191.965625,192.12916666666666,71.0,114.0
292,192.465625,192.69479166666667,71.0,116.0
293,192.715625,192.96354166666666,73.0,108.0
294,192.965625,193.21145833333333,71.0,116.0
295,193.215625,193.43333333333334,69.0,113.0
296,193.465625,193.68541666666667,66.0,108.0
297,193.715625,193.921875,64.0,107.0
298,193.965625,194.3,66.0,116.0
299,194.965625,195.278125,73.0,119.0
300,195.465625,195.73229166666667,78.0,119.0
301,195.965625,196.23333333333332,81.0,119.0
302,196.465625,196.68854166666665,78.0,116.0
303,196.715625,196.9375,76.0,110.0
304,196.965625,197.184375,73.0,117.0
305,197.215625,197.31145833333332,73.0,113.0
306,197.465625,197.67291666666665,73.0,110.0
307,197.715625,197.90520833333332,71.0,114.0
308,197.965625,198.14791666666667,73.0,117.0
309,198.215625,198.484375,76.0,113.0
310,198.465625,198.68229166666666,73.0,110.0
311,198.715625,198.95625,69.0,109.0
312,198.965625,199.26666666666665,71.0,108.0
313,199.465625,199.71458333333334,71.0,114.0
314,199.715625,199.94270833333334,69.0,109.0
315,199.965625,200.12916666666666,71.0,114.0
316,200.465625,200.721875,71.0,116.0
317,200.715625,200.94791666666666,69.0,113.0
318,200.965625,201.15625,71.0,94.0
319,201.215625,201.33020833333333,73.0,116.0
320,201.465625,201.68541666666667,73.0,113.0
321,201.715625,201.91354166666667,76.0,114.0
322,201.965625,202.22083333333333,73.0,119.0
323,202.965625,203.278125,73.0,119.0
324,203.465625,203.73229166666667,78.0,119.0
325,203.965625,204.23333333333332,81.0,119.0
326,204.465625,204.68854166666665,78.0,116.0
327,204.715625,204.9375,76.0,110.0
328,204.965625,205.184375,73.0,117.0
329,205.215625,205.31145833333332,73.0,113.0
330,205.465625,205.67291666666665,73.0,110.0
331,205.715625,205.90520833333332,71.0,114.0
332,205.965625,206.14791666666667,73.0,117.0
333,206.215625,206.484375,76.0,113.0
334,206.465625,206.68229166666666,73.0,110.0
335,206.715625,206.95624999999998,69.0,109.0
336,206.965625,207.26666666666665,71.0,108.0
337,207.465625,207.71458333333334,71.0,114.0
338,207.715625,207.94270833333334,69.0,109.0
339,207.965625,208.12916666666666,71.0,114.0
340,208.465625,208.69479166666667,73.0,116.0
341,208.965625,209.21145833333333,64.0,116.0
342,209.215625,209.43333333333334,69.0,113.0
343,209.465625,209.68541666666667,66.0,108.0
344,209.715625,209.921875,64.0,107.0
345,209.965625,210.29999999999998,66.0,116.0
346,226.965625,227.278125,73.0,119.0
347,227.465625,227.73229166666667,78.0,119.0
348,227.965625,228.23333333333332,81.0,119.0
349,228.465625,228.68854166666665,78.0,116.0
350,228.715625,228.9375,76.0,110.0
351,228.965625,229.184375,73.0,117.0
352,229.215625,229.31145833333332,73.0,113.0
353,229.465625,229.67291666666665,73.0,110.0
354,229.715625,229.90520833333332,71.0,114.0
355,229.965625,230.14791666666667,73.0,117.0
356,230.215625,230.484375,76.0,113.0
357,230.465625,230.68229166666666,73.0,110.0
358,230.715625,230.95624999999998,69.0,109.0
359,230.965625,231.26666666666665,71.0,108.0
360,231.465625,231.71458333333334,71.0,114.0
361,231.715625,231.94270833333334,69.0,109.0
362,231.965625,232.12916666666666,71.0,114.0
363,232.465625,232.72187499999998,71.0,116.0
364,232.715625,232.94791666666666,69.0,113.0
365,232.965625,233.15625,71.0,94.0
366,233.215625,233.33020833333333,73.0,116.0
367,233.465625,233.68541666666667,73.0,113.0
368,233.715625,233.91354166666667,71.0,114.0
369,233.965625,234.22083333333333,73.0,119.0
370,234.965625,235.278125,73.0,119.0
371,235.465625,235.73229166666667,78.0,119.0
372,235.965625,236.23333333333332,81.0,119.0
373,236.465625,236.68854166666665,78.0,116.0
374,236.715625,236.9375,76.0,110.0
375,236.965625,237.184375,73.0,117.0
376,237.215625,237.31145833333332,73.0,113.0
377,237.465625,237.67291666666665,73.0,110.0
378,237.715625,237.90520833333332,71.0,114.0
379,237.965625,238.14791666666667,73.0,117.0
380,238.215625,238.484375,76.0,113.0
381,238.465625,238.68229166666666,73.0,110.0
382,238.715625,238.95624999999998,69.0,109.0
383,238.965625,239.26666666666665,71.0,108.0
384,239.465625,239.71458333333334,71.0,114.0
385,239.715625,239.94270833333334,69.0,109.0
386,239.965625,240.12916666666666,71.0,114.0
387,240.465625,240.69479166666667,71.0,116.0
388,240.715625,240.96354166666666,73.0,108.0
389,240.965625,241.21145833333333,71.0,116.0
390,241.215625,241.43333333333334,69.0,113.0
391,241.465625,241.68541666666667,66.0,108.0
392,241.715625,241.921875,64.0,107.0
393,241.965625,242.29999999999998,66.0,116.0
394,242.965625,243.278125,73.0,119.0
395,243.465625,243.73229166666667,78.0,119.0
396,243.965625,244.23333333333332,81.0,119.0
397,244.465625,244.68854166666665,78.0,116.0
398,244.715625,244.9375,76.0,110.0
399,244.965625,245.184375,73.0,117.0
400,245.215625,245.31145833333332,73.0,113.0
401,245.465625,245.67291666666665,73.0,110.0
402,245.715625,245.90520833333332,71.0,114.0
403,245.965625,246.14791666666667,73.0,117.0
404,246.215625,246.484375,76.0,113.0
405,246.465625,246.68229166666666,73.0,110.0
406,246.715625,246.95624999999998,69.0,109.0
407,246.965625,247.26666666666665,71.0,108.0
408,247.465625,247.71458333333334,71.0,114.0
409,247.715625,247.94270833333334,69.0,109.0
410,247.965625,248.12916666666666,71.0,114.0
411,248.465625,248.72187499999998,71.0,116.0
412,248.715625,248.94791666666666,69.0,113.0
413,248.965625,249.15625,71.0,94.0
414,249.215625,249.33020833333333,73.0,116.0
415,249.465625,249.68541666666667,73.0,113.0
416,249.715625,249.91354166666667,76.0,114.0
417,249.965625,250.22083333333333,73.0,119.0
418,250.965625,251.278125,73.0,119.0
419,251.465625,251.73229166666667,78.0,119.0
420,251.965625,252.23333333333332,81.0,119.0
421,252.465625,252.68854166666665,78.0,116.0
422,252.715625,252.9375,76.0,110.0
423,252.965625,253.184375,73.0,117.0
424,253.215625,253.31145833333332,73.0,113.0
425,253.465625,253.67291666666665,73.0,110.0
426,253.715625,253.90520833333332,71.0,114.0
427,253.965625,254.14791666666667,73.0,117.0
428,254.215625,254.484375,76.0,113.0
429,254.465625,254.68229166666666,73.0,110.0
430,254.715625,254.95624999999998,69.0,109.0
431,254.965625,255.26666666666665,71.0,108.0
432,255.465625,255.71458333333334,71.0,114.0
433,255.715625,255.94270833333334,69.0,109.0
434,255.965625,256.12916666666666,71.0,114.0
435,256.465625,256.6947916666667,73.0,116.0
436,256.965625,257.2114583333333,64.0,116.0
437,257.215625,257.43333333333334,69.0,113.0
438,257.465625,257.68541666666664,66.0,108.0
439,257.715625,257.921875,64.0,107.0
440,257.965625,258.3,66.0,116.0
441,258.965625,259.2729166666667,66.0,110.0
442,259.465625,259.57708333333335,66.0,107.0
443,259.715625,259.83125,66.0,107.0
444,259.965625,260.31666666666666,73.0,117.0
445,260.465625,260.76666666666665,69.0,116.0
446,260.965625,261.37291666666664,66.0,117.0
447,261.965625,262.328125,73.0,117.0
448,262.465625,262.7552083333333,76.0,119.0
449,262.965625,263.1510416666667,66.0,117.0
450,263.215625,263.41979166666664,69.0,109.0
451,263.465625,263.6979166666667,66.0,108.0
452,263.715625,263.9458333333333,64.0,108.0
453,263.965625,264.25,61.0,114.0
454,264.465625,264.6645833333333,71.0,110.0
455,264.715625,264.94375,69.0,100.0
456,264.965625,265.340625,66.0,108.0
