,start,end,pitch,velocity
0,18.965625,19.521875,69.0,93.0
1,19.090625,19.532291666666666,54.0,86.0
2,18.965625,19.535416666666666,61.0,102.0
3,18.965625,19.544791666666665,66.0,108.0
4,19.590625,20.09375,54.0,81.0
5,19.715625,20.255208333333332,69.0,90.0
6,19.715625,20.282291666666666,66.0,94.0
7,19.715625,20.2875,61.0,93.0
8,20.215625,20.529166666666665,54.0,85.0
9,19.090625,20.790625,42.0,88.0
10,20.465625,20.848958333333332,69.0,87.0
11,20.465625,20.864583333333332,61.0,93.0
12,20.465625,20.898958333333333,66.0,98.0
13,20.965625,21.396875,54.0,84.0
14,20.965625,21.590625,69.0,87.0
15,20.965625,21.608333333333334,61.0,89.0
16,20.965625,21.617708333333333,66.0,89.0
17,21.465625,22.0,54.0,84.0
18,21.715625,22.270833333333332,69.0,90.0
19,21.715625,22.277083333333334,61.0,96.0
20,21.715625,22.292708333333334,66.0,100.0
21,22.215625,22.525,54.0,88.0
22,20.965625,22.578125,42.0,88.0
23,22.465625,22.728125,61.0,110.0
24,22.465625,22.759375,69.0,100.0
25,22.465625,22.764583333333334,66.0,113.0
26,22.965625,23.576041666666665,61.0,102.0
27,22.965625,23.582291666666666,69.0,93.0
28,22.965625,23.586458333333333,64.0,108.0
29,23.465625,24.010416666666668,57.0,78.0
30,23.715625,24.264583333333334,61.0,104.0
31,23.715625,24.280208333333334,64.0,113.0
32,23.715625,24.294791666666665,69.0,95.0
33,24.215625,24.51875,57.0,86.0
34,22.965625,24.703125,45.0,97.0
35,24.465625,24.819791666666667,61.0,93.0
36,24.465625,24.826041666666665,69.0,88.0
37,24.465625,24.829166666666666,64.0,102.0
38,24.715625,25.008333333333333,57.0,83.0
39,24.965625,25.520833333333332,61.0,94.0
40,24.965625,25.525,64.0,104.0
41,24.965625,25.541666666666668,69.0,90.0
42,25.465625,25.929166666666667,57.0,81.0
43,25.715625,26.264583333333334,69.0,97.0
44,25.715625,26.269791666666666,61.0,104.0
45,25.715625,26.297916666666666,64.0,113.0
46,26.215625,26.51875,57.0,97.0
47,24.965625,26.568749999999998,45.0,86.0
48,26.465625,26.80625,64.0,110.0
49,26.465625,26.807291666666668,61.0,98.0
50,26.465625,26.808333333333334,69.0,97.0
51,26.965625,27.354166666666668,54.0,90.0
52,26.965625,27.592708333333334,69.0,90.0
53,26.965625,27.603125,61.0,93.0
54,26.965625,27.615624999999998,66.0,100.0
55,27.465625,27.977083333333333,54.0,86.0
56,27.715625,28.246875,61.0,104.0
57,27.715625,28.263541666666665,69.0,97.0
58,27.715625,28.272916666666667,66.0,107.0
59,26.965625,28.764583333333334,42.0,88.0
60,28.215625,28.81458333333333,54.0,84.0
61,28.465625,28.834374999999998,69.0,87.0
62,28.465625,28.866666666666667,61.0,94.0
63,28.465625,28.870833333333334,66.0,92.0
64,28.965625,29.052083333333332,54.0,85.0
65,28.965625,29.55,69.0,91.0
66,28.965625,29.571875,66.0,96.0
67,28.965625,29.58020833333333,61.0,96.0
68,29.465625,29.913541666666667,54.0,84.0
69,29.715625,30.265625,69.0,95.0
70,29.715625,30.266666666666666,61.0,100.0
71,29.715625,30.284375,66.0,108.0
72,28.965625,30.523958333333333,42.0,90.0
73,30.215625,30.563541666666666,54.0,104.0
74,30.465625,30.78333333333333,61.0,100.0
75,30.465625,30.786458333333332,69.0,93.0
76,30.465625,30.802083333333332,66.0,108.0
77,31.215625,31.853125,57.0,85.0
78,31.715625,32.24375,64.0,116.0
79,31.715625,32.251041666666666,61.0,110.0
80,31.715625,32.253125,69.0,109.0
81,32.215625,32.57604166666667,57.0,97.0
82,30.965625,32.771875,45.0,93.0
83,32.465625,32.81875,69.0,103.0
84,32.465625,32.81979166666667,64.0,113.0
85,32.465625,32.83020833333333,61.0,107.0
86,32.715625,32.9625,57.0,85.0
87,32.965625,33.98020833333333,64.0,113.0
88,32.965625,33.984375,61.0,96.0
89,32.965625,33.996875,69.0,97.0
90,32.965625,34.045833333333334,45.0,86.0
91,34.965625,35.532291666666666,61.0,92.0
92,34.965625,35.534375,69.0,89.0
93,34.965625,35.55,66.0,94.0
94,35.465625,36.139583333333334,54.0,83.0
95,34.965625,36.740625,42.0,92.0
96,35.715625,36.825,69.0,90.0
97,35.715625,36.83645833333333,61.0,98.0
98,35.715625,36.84583333333333,66.0,100.0
99,36.465625,36.959375,54.0,88.0
100,36.965625,37.552083333333336,61.0,98.0
101,36.965625,37.56041666666667,69.0,90.0
102,36.965625,37.572916666666664,66.0,98.0
103,37.465625,37.889583333333334,54.0,88.0
104,37.715625,38.276041666666664,61.0,98.0
105,37.715625,38.280208333333334,69.0,89.0
106,37.715625,38.31458333333333,66.0,102.0
107,36.965625,38.51875,42.0,92.0
108,38.215625,38.541666666666664,54.0,93.0
109,38.465625,38.796875,69.0,100.0
110,38.465625,38.80416666666667,61.0,96.0
111,38.465625,38.84791666666666,66.0,108.0
112,38.965625,39.56979166666667,64.0,107.0
113,38.965625,39.575,61.0,96.0
114,38.965625,39.604166666666664,69.0,91.0
115,39.340625,40.05520833333333,57.0,83.0
116,39.715625,40.56666666666666,61.0,100.0
117,39.715625,40.639583333333334,69.0,91.0
118,39.715625,40.64791666666667,64.0,107.0
119,38.965625,40.721875,45.0,89.0
120,40.465625,41.00833333333333,57.0,89.0
121,40.965625,41.66041666666666,61.0,100.0
122,41.465625,42.047916666666666,57.0,81.0
123,41.715625,42.296875,61.0,87.0
124,40.965625,42.30833333333333,69.0,93.0
125,41.715625,42.31979166666667,64.0,117.0
126,42.215625,42.49270833333333,57.0,91.0
127,40.965625,42.583333333333336,45.0,91.0
128,42.465625,42.93333333333333,69.0,86.0
129,42.465625,42.95104166666667,61.0,104.0
130,42.715625,42.963541666666664,64.0,89.0
131,43.465625,43.630208333333336,56.0,81.0
132,43.215625,43.99583333333333,52.0,88.0
133,43.715625,44.31666666666666,64.0,113.0
134,43.715625,44.329166666666666,56.0,91.0
135,44.465625,44.75,64.0,86.0
136,42.965625,44.7875,40.0,110.0
137,44.215625,44.85,52.0,98.0
138,44.465625,44.878125,59.0,98.0
139,44.965625,45.50416666666666,64.0,100.0
140,44.965625,45.53333333333333,56.0,98.0
141,44.965625,45.59583333333333,59.0,92.0
142,45.465625,45.87708333333333,52.0,89.0
143,45.715625,46.25833333333333,64.0,98.0
144,45.715625,46.27395833333333,56.0,98.0
145,45.715625,46.29375,59.0,104.0
146,44.965625,46.567708333333336,40.0,100.0
147,46.090625,46.708333333333336,52.0,96.0
148,46.465625,46.813541666666666,64.0,93.0
149,46.465625,46.853125,56.0,91.0
150,46.465625,46.989583333333336,59.0,98.0
151,47.465625,48.021875,54.0,102.0
152,47.715625,48.734375,57.0,109.0
153,47.715625,48.77291666666667,66.0,113.0
154,47.715625,48.78541666666666,61.0,117.0
155,46.965625,48.809375,42.0,107.0
156,48.465625,48.858333333333334,54.0,92.0
157,47.215625,48.8625,49.0,87.0
158,48.965625,49.43333333333333,66.0,110.0
159,48.965625,49.43541666666667,57.0,91.0
160,48.965625,49.478125,61.0,108.0
161,49.340625,49.79895833333333,54.0,83.0
162,49.715625,50.234375,66.0,113.0
163,49.715625,50.255208333333336,57.0,91.0
164,49.715625,50.26979166666666,61.0,104.0
165,50.215625,50.528125,54.0,108.0
166,50.465625,50.74791666666667,66.0,107.0
167,48.965625,50.75,42.0,91.0
168,50.465625,50.770833333333336,57.0,93.0
169,50.465625,50.81875,61.0,104.0
170,50.715625,50.873958333333334,54.0,91.0
171,50.965625,51.54270833333333,66.0,110.0
172,50.965625,51.553125,57.0,97.0
173,50.965625,51.561458333333334,61.0,108.0
174,51.465624999999996,51.978125,54.0,91.0
175,51.715624999999996,52.28125,66.0,113.0
176,51.715624999999996,52.28333333333333,57.0,95.0
177,51.715624999999996,52.31041666666667,61.0,108.0
178,52.215624999999996,52.74791666666667,54.0,100.0
179,52.465624999999996,52.755208333333336,66.0,102.0
180,52.465624999999996,52.784375,61.0,93.0
181,50.965625,52.786458333333336,42.0,100.0
182,52.465624999999996,52.80625,57.0,97.0
183,52.965624999999996,53.434374999999996,66.0,104.0
184,52.965624999999996,53.45625,57.0,89.0
185,52.965624999999996,53.49270833333333,61.0,102.0
186,53.465624999999996,53.856249999999996,54.0,92.0
187,53.715624999999996,54.22291666666666,66.0,116.0
188,53.715624999999996,54.23020833333333,57.0,97.0
189,53.715624999999996,54.271875,61.0,113.0
190,52.965624999999996,54.520833333333336,42.0,94.0
191,54.215624999999996,54.574999999999996,54.0,93.0
192,54.465624999999996,54.66979166666667,57.0,103.0
193,54.465624999999996,54.678125,66.0,116.0
194,54.465624999999996,54.86666666666667,61.0,108.0
195,54.965624999999996,55.59166666666667,64.0,113.0
196,54.965624999999996,55.637499999999996,61.0,113.0
197,55.465624999999996,56.047916666666666,57.0,86.0
198,55.715624999999996,56.543749999999996,64.0,113.0
199,55.715624999999996,56.574999999999996,61.0,113.0
200,54.965624999999996,56.744791666666664,45.0,90.0
201,56.715624999999996,56.864583333333336,64.0,87.0
202,56.715624999999996,56.909375,61.0,88.0
203,56.465624999999996,57.02916666666667,57.0,89.0
204,56.965624999999996,57.60729166666667,64.0,102.0
205,56.965624999999996,57.639583333333334,61.0,104.0
206,57.465624999999996,58.02395833333333,57.0,84.0
207,57.715624999999996,58.284375,64.0,107.0
208,57.715624999999996,58.334375,61.0,107.0
209,58.215624999999996,58.485416666666666,57.0,106.0
210,56.965624999999996,58.536458333333336,45.0,95.0
211,58.465624999999996,58.619791666666664,61.0,110.0
212,58.465624999999996,58.655208333333334,64.0,116.0
213,58.965624999999996,59.447916666666664,64.0,102.0
214,58.965624999999996,59.62083333333333,56.0,91.0
215,58.965624999999996,59.621874999999996,59.0,102.0
216,59.465624999999996,59.9625,52.0,85.0
217,59.715624999999996,60.815625,64.0,113.0
218,58.965624999999996,60.84166666666667,40.0,93.0
219,59.715624999999996,60.858333333333334,56.0,96.0
220,59.715624999999996,60.871874999999996,59.0,108.0
221,60.465624999999996,60.9,52.0,91.0
222,60.965624999999996,61.53958333333333,64.0,104.0
223,60.965624999999996,61.577083333333334,56.0,93.0
224,60.965624999999996,61.630208333333336,59.0,100.0
225,61.465624999999996,61.86770833333333,52.0,89.0
226,61.715624999999996,62.29479166666667,64.0,107.0
227,61.715624999999996,62.33541666666667,56.0,93.0
228,61.715624999999996,62.36354166666666,59.0,107.0
229,62.215624999999996,62.50208333333333,52.0,100.0
230,62.465624999999996,62.61145833333333,56.0,90.0
231,62.465624999999996,62.61145833333333,64.0,102.0
232,62.465624999999996,62.62708333333333,59.0,102.0
233,60.965624999999996,62.762499999999996,40.0,88.0
234,62.715624999999996,62.920833333333334,52.0,88.0
235,62.965624999999996,63.425,66.0,104.0
236,62.965624999999996,63.510416666666664,61.0,96.0
237,62.965624999999996,63.534375,57.0,88.0
238,63.465624999999996,63.80833333333333,54.0,89.0
239,63.715624999999996,64.29479166666667,66.0,108.0
240,63.715624999999996,64.34270833333333,61.0,108.0
241,63.715624999999996,64.34583333333333,57.0,95.0
242,64.465625,64.69375,66.0,88.0
243,64.465625,64.77708333333334,57.0,86.0
244,64.465625,64.79583333333333,61.0,92.0
245,64.215625,64.81875,54.0,96.0
246,62.965624999999996,64.82291666666667,42.0,91.0
247,64.965625,65.475,66.0,107.0
248,64.965625,65.48229166666667,57.0,97.0
249,64.965625,65.49791666666667,61.0,108.0
250,65.465625,65.9625,54.0,88.0
251,65.715625,66.24166666666666,57.0,95.0
252,65.715625,66.24583333333334,66.0,114.0
253,65.715625,66.265625,61.0,108.0
254,66.215625,66.675,54.0,98.0
255,64.965625,66.71979166666667,42.0,98.0
256,66.465625,66.74270833333333,57.0,97.0
257,66.465625,66.78333333333333,66.0,108.0
258,66.465625,66.80208333333333,61.0,104.0
259,66.965625,67.61875,61.0,100.0
260,66.965625,67.625,69.0,91.0
261,66.965625,67.63229166666666,64.0,108.0
262,67.465625,68.028125,57.0,84.0
263,67.715625,68.27083333333333,61.0,102.0
264,67.715625,68.29166666666667,69.0,95.0
265,67.715625,68.32916666666667,64.0,107.0
266,68.215625,68.45833333333333,57.0,109.0
267,66.965625,68.525,45.0,97.0
268,68.465625,68.74479166666667,69.0,95.0
269,68.465625,68.8,61.0,104.0
270,68.465625,68.89895833333333,64.0,108.0
271,68.965625,69.50625,64.0,102.0
272,68.965625,69.58229166666666,68.0,108.0
273,68.965625,69.60520833333334,59.0,94.0
274,69.465625,69.89479166666666,52.0,88.0
275,69.715625,70.32604166666667,68.0,104.0
276,69.715625,70.33020833333333,59.0,104.0
277,69.715625,70.34479166666667,64.0,116.0
278,70.215625,70.53541666666666,52.0,104.0
279,68.965625,70.575,40.0,98.0
280,70.465625,70.76770833333333,59.0,102.0
281,70.465625,70.79375,64.0,100.0
282,70.465625,70.79583333333333,68.0,90.0
283,70.965625,71.496875,71.0,104.0
284,70.965625,71.52604166666667,62.0,100.0
285,70.965625,71.52708333333334,66.0,98.0
286,71.465625,71.928125,59.0,85.0
287,71.715625,72.2375,71.0,110.0
288,71.715625,72.24791666666667,62.0,100.0
289,71.715625,72.27083333333333,66.0,110.0
290,72.215625,72.48333333333333,59.0,89.0
291,70.965625,72.48958333333333,47.0,90.0
292,72.465625,72.70104166666667,62.0,93.0
293,72.465625,72.71458333333334,71.0,104.0
294,72.465625,72.75833333333333,66.0,96.0
295,72.965625,73.434375,66.0,108.0
296,72.965625,73.55833333333334,57.0,93.0
297,72.965625,73.58020833333333,61.0,100.0
298,73.465625,73.93020833333333,54.0,86.0
299,73.715625,74.18229166666667,66.0,113.0
300,73.715625,74.24583333333334,57.0,95.0
301,73.715625,74.25729166666666,61.0,113.0
302,72.965625,74.43541666666667,42.0,87.0
303,74.215625,74.52083333333333,54.0,102.0
304,74.465625,74.66666666666667,57.0,97.0
305,74.465625,74.725,66.0,113.0
306,74.465625,74.865625,61.0,114.0
307,74.965625,75.57083333333333,64.0,104.0
308,74.965625,75.575,61.0,102.0
309,75.465625,75.91458333333333,57.0,90.0
310,75.715625,76.315625,64.0,113.0
311,75.715625,76.32083333333333,61.0,108.0
312,74.965625,76.534375,45.0,97.0
313,76.215625,76.54166666666667,57.0,103.0
314,76.465625,76.72604166666666,61.0,114.0
315,76.465625,76.74583333333334,64.0,116.0
316,76.965625,77.56354166666667,59.0,92.0
317,76.965625,77.56979166666666,68.0,93.0
318,76.965625,77.59479166666667,64.0,104.0
319,77.465625,78.03125,52.0,88.0
320,77.715625,78.3,68.0,91.0
321,77.715625,78.30104166666666,59.0,100.0
322,77.715625,78.31875,64.0,104.0
323,76.965625,78.53854166666666,40.0,90.0
324,78.215625,78.56041666666667,52.0,96.0
325,78.465625,78.76145833333334,68.0,91.0
326,78.465625,78.8125,59.0,94.0
327,78.465625,78.821875,64.0,107.0
328,78.965625,79.51458333333333,62.0,100.0
329,78.965625,79.51979166666666,66.0,114.0
330,78.965625,79.525,69.0,113.0
331,79.465625,79.84270833333333,50.0,100.0
332,79.715625,80.18854166666667,62.0,103.0
333,79.715625,80.2375,66.0,117.0
334,79.715625,80.25833333333333,69.0,113.0
335,78.965625,80.49479166666667,38.0,109.0
336,80.465625,80.565625,66.0,116.0
337,80.465625,80.56770833333333,69.0,109.0
338,80.215625,80.57291666666667,50.0,116.0
339,80.465625,80.57916666666667,62.0,109.0
340,80.965625,81.578125,68.0,114.0
341,80.965625,81.59791666666666,64.0,116.0
342,80.965625,81.61875,59.0,113.0
343,81.465625,81.878125,52.0,102.0
344,80.965625,82.08229166666666,40.0,113.0
345,81.715625,82.23229166666667,68.0,114.0
346,81.715625,82.24583333333334,64.0,123.0
347,81.715625,82.253125,59.0,116.0
348,82.215625,82.49895833333333,52.0,117.0
349,82.215625,82.50729166666666,40.0,108.0
350,82.465625,82.77291666666666,68.0,113.0
351,82.465625,82.78541666666666,64.0,116.0
352,82.465625,82.78958333333333,59.0,114.0
353,82.965625,83.44166666666666,66.0,114.0
354,82.965625,83.50104166666667,57.0,106.0
355,82.965625,83.50416666666666,61.0,117.0
356,83.465625,83.91354166666666,54.0,98.0
357,83.715625,84.24583333333334,61.0,119.0
358,83.715625,84.25520833333333,66.0,117.0
359,83.715625,84.25625,57.0,106.0
360,82.965625,84.52395833333333,42.0,100.0
361,84.215625,84.53958333333333,54.0,108.0
362,84.465625,84.71041666666666,57.0,109.0
363,84.465625,84.76979166666666,66.0,117.0
364,84.465625,84.8125,61.0,116.0
365,84.965625,85.59270833333333,64.0,114.0
366,84.965625,85.61354166666666,61.0,110.0
367,84.965625,85.94375,45.0,100.0
368,85.465625,85.95729166666666,57.0,106.0
369,85.715625,86.26041666666667,64.0,117.0
370,85.715625,86.27708333333334,61.0,114.0
371,86.215625,86.44895833333334,57.0,109.0
372,86.215625,86.48020833333334,45.0,109.0
373,86.465625,86.8,64.0,117.0
374,86.465625,86.85833333333333,61.0,117.0
375,86.965625,87.31770833333333,52.0,92.0
376,86.965625,87.52708333333334,68.0,108.0
377,86.965625,87.553125,59.0,104.0
378,86.965625,87.565625,64.0,113.0
379,87.465625,87.996875,52.0,107.0
380,87.715625,88.2875,68.0,110.0
381,87.715625,88.29166666666667,59.0,110.0
382,87.715625,88.296875,64.0,114.0
383,86.965625,88.596875,40.0,107.0
384,88.215625,88.61770833333333,52.0,110.0
385,88.465625,88.80208333333333,64.0,113.0
386,88.465625,88.809375,59.0,108.0
387,88.465625,88.81770833333333,68.0,108.0
388,88.965625,89.46458333333334,47.0,102.0
389,88.965625,89.575,59.0,92.0
390,88.965625,89.73541666666667,66.0,94.0
391,88.965625,89.815625,62.0,109.0
392,89.965625,90.46458333333334,37.0,94.0
393,89.965625,90.51041666666667,49.0,98.0
394,89.965625,90.59791666666666,56.0,104.0
395,89.965625,90.67708333333333,65.0,97.0
396,89.965625,90.71041666666666,61.0,110.0
397,90.965625,91.48541666666667,66.0,108.0
398,90.965625,91.50208333333333,61.0,104.0
399,90.965625,91.509375,57.0,103.0
400,91.465625,91.92604166666666,54.0,88.0
401,91.715625,92.23645833333333,66.0,110.0
402,91.715625,92.25104166666667,61.0,110.0
403,91.715625,92.26458333333333,57.0,93.0
404,92.215625,92.54479166666667,54.0,104.0
405,90.965625,92.55625,42.0,96.0
406,92.465625,92.66666666666667,57.0,100.0
407,92.465625,92.68958333333333,66.0,114.0
408,92.465625,92.834375,61.0,113.0
409,92.965625,93.37604166666667,57.0,91.0
410,92.965625,93.61354166666666,64.0,104.0
411,92.965625,93.62916666666666,61.0,107.0
412,93.465625,93.990625,57.0,103.0
413,92.965625,94.02916666666667,45.0,91.0
414,93.715625,94.29166666666667,64.0,114.0
415,93.715625,94.29791666666667,61.0,110.0
416,94.215625,94.46458333333334,57.0,106.0
417,94.215625,94.521875,45.0,100.0
418,94.465625,94.78541666666666,64.0,116.0
419,94.465625,94.828125,61.0,116.0
420,94.965625,95.30104166666666,52.0,96.0
421,94.965625,95.57291666666667,68.0,108.0
422,94.965625,95.584375,59.0,100.0
423,94.965625,95.59166666666667,64.0,110.0
424,95.340625,95.81354166666667,52.0,92.0
425,95.715625,96.278125,64.0,110.0
426,95.715625,96.28229166666667,68.0,108.0
427,95.715625,96.28854166666666,59.0,104.0
428,94.965625,96.60208333333333,40.0,91.0
429,96.215625,96.625,52.0,114.0
430,96.465625,96.63645833333334,68.0,108.0
431,96.465625,96.65625,64.0,114.0
432,96.465625,96.696875,59.0,107.0
433,96.965625,97.35625,47.0,107.0
434,96.965625,97.378125,35.0,98.0
435,96.965625,97.5625,71.0,104.0
436,97.465625,97.56770833333333,35.0,90.0
437,96.965625,97.58541666666666,62.0,100.0
438,96.965625,97.58958333333334,66.0,104.0
439,97.465625,97.59479166666667,47.0,102.0
440,97.965625,98.38020833333333,54.0,91.0
441,97.965625,98.421875,42.0,92.0
442,97.965625,98.58125,69.0,88.0
443,97.965625,98.590625,66.0,110.0
444,97.965625,98.59479166666667,61.0,96.0
445,98.465625,98.71041666666666,42.0,87.0
446,98.465625,98.71458333333334,54.0,102.0
447,98.715625,98.95104166666667,61.0,102.0
448,98.715625,99.0,66.0,117.0
449,98.965625,99.0,66.0,114.0
450,98.715625,99.03229166666667,69.0,109.0
451,98.965625,99.50104166666667,57.0,106.0
452,98.965625,99.50416666666666,61.0,117.0
453,99.465625,99.91354166666666,54.0,98.0
454,99.715625,100.24583333333334,61.0,119.0
455,99.715625,100.25520833333333,66.0,117.0
456,99.715625,100.25625,57.0,106.0
457,98.965625,100.52395833333333,42.0,100.0
458,100.215625,100.53958333333333,54.0,108.0
459,100.465625,100.71041666666666,57.0,109.0
460,100.465625,100.76979166666666,66.0,117.0
461,100.465625,100.8125,61.0,116.0
462,100.965625,101.59270833333333,64.0,114.0
463,100.965625,101.61354166666666,61.0,110.0
464,100.965625,101.94375,45.0,100.0
465,101.465625,101.95729166666666,57.0,106.0
466,101.715625,102.26041666666667,64.0,117.0
467,101.715625,102.27708333333334,61.0,114.0
468,102.215625,102.44895833333334,57.0,109.0
469,102.215625,102.48020833333334,45.0,109.0
470,102.465625,102.8,64.0,117.0
471,102.465625,102.85833333333333,61.0,117.0
472,102.965625,103.31770833333333,52.0,92.0
473,102.965625,103.52708333333334,68.0,108.0
474,102.965625,103.553125,59.0,104.0
475,102.965625,103.565625,64.0,113.0
476,103.465625,103.996875,52.0,107.0
477,103.715625,104.2875,68.0,110.0
478,103.715625,104.29166666666667,59.0,110.0
479,103.715625,104.296875,64.0,114.0
480,102.965625,104.596875,40.0,107.0
481,104.215625,104.61770833333333,52.0,110.0
482,104.465625,104.80208333333333,64.0,113.0
483,104.465625,104.809375,59.0,108.0
484,104.465625,104.81770833333333,68.0,108.0
485,104.965625,105.46458333333334,47.0,102.0
486,104.965625,105.575,59.0,92.0
487,104.965625,105.73541666666667,66.0,94.0
488,104.965625,105.815625,62.0,109.0
489,105.965625,106.46458333333334,37.0,94.0
490,105.965625,106.51041666666667,49.0,98.0
491,105.965625,106.59791666666666,56.0,104.0
492,105.965625,106.67708333333333,65.0,97.0
493,105.965625,106.71041666666666,61.0,110.0
494,106.965625,107.48541666666667,66.0,108.0
495,106.965625,107.50208333333333,61.0,104.0
496,106.965625,107.50937499999999,57.0,103.0
497,107.465625,107.92604166666666,54.0,88.0
498,107.715625,108.23645833333333,66.0,110.0
499,107.715625,108.25104166666667,61.0,110.0
500,107.715625,108.26458333333333,57.0,93.0
501,108.215625,108.54479166666667,54.0,104.0
502,106.965625,108.55624999999999,42.0,96.0
503,108.465625,108.66666666666667,57.0,100.0
504,108.465625,108.68958333333333,66.0,114.0
505,108.465625,108.834375,61.0,113.0
506,108.965625,109.37604166666667,57.0,91.0
507,108.965625,109.61354166666666,64.0,104.0
508,108.965625,109.62916666666666,61.0,107.0
509,109.465625,109.990625,57.0,103.0
510,108.965625,110.02916666666667,45.0,91.0
511,109.715625,110.29166666666667,64.0,114.0
512,109.715625,110.29791666666667,61.0,110.0
513,110.215625,110.46458333333334,57.0,106.0
514,110.215625,110.521875,45.0,100.0
515,110.465625,110.78541666666666,64.0,116.0
516,110.465625,110.828125,61.0,116.0
517,110.965625,111.30104166666666,52.0,96.0
518,110.965625,111.57291666666667,68.0,108.0
519,110.965625,111.584375,59.0,100.0
520,110.965625,111.59166666666667,64.0,110.0
521,111.340625,111.81354166666667,52.0,92.0
522,111.715625,112.278125,64.0,110.0
523,111.715625,112.28229166666667,68.0,108.0
524,111.715625,112.28854166666666,59.0,104.0
525,110.965625,112.60208333333333,40.0,91.0
526,112.215625,112.625,52.0,114.0
527,112.465625,112.63645833333334,68.0,108.0
528,112.465625,112.65625,64.0,114.0
529,112.465625,112.69687499999999,59.0,107.0
530,112.965625,113.35625,47.0,107.0
531,112.965625,113.378125,35.0,98.0
532,112.965625,113.5625,71.0,104.0
533,113.465625,113.56770833333333,35.0,90.0
534,112.965625,113.58541666666666,62.0,100.0
535,112.965625,113.58958333333334,66.0,104.0
536,113.465625,113.59479166666667,47.0,102.0
537,113.965625,114.38020833333333,54.0,91.0
538,113.965625,114.421875,42.0,92.0
539,113.965625,114.58125,69.0,88.0
540,113.965625,114.590625,66.0,110.0
541,113.965625,114.59479166666667,61.0,96.0
542,114.465625,114.71041666666666,42.0,87.0
543,114.465625,114.71458333333334,54.0,102.0
544,114.715625,114.95104166666667,61.0,102.0
545,114.715625,115.0,66.0,117.0
546,114.965625,115.0,66.0,87.0
547,114.715625,115.03229166666667,69.0,109.0
548,114.965625,115.03229166666667,69.0,84.0
549,114.965625,115.39791666666666,54.0,88.0
550,114.965625,115.621875,61.0,89.0
551,115.465625,116.028125,54.0,86.0
552,115.715625,116.52604166666667,61.0,92.0
553,115.715625,116.53020833333333,69.0,87.0
554,114.965625,116.80624999999999,42.0,91.0
555,116.715625,116.825,69.0,74.0
556,115.715625,116.834375,66.0,92.0
557,116.465625,116.85104166666666,54.0,87.0
558,116.715625,116.86354166666666,61.0,84.0
559,116.965625,117.60729166666667,69.0,87.0
560,116.965625,117.62708333333333,61.0,91.0
561,116.965625,117.63645833333334,66.0,91.0
562,117.465625,118.00937499999999,54.0,85.0
563,117.715625,118.30833333333334,61.0,96.0
564,117.715625,118.3125,69.0,90.0
565,117.715625,118.33333333333333,66.0,98.0
566,118.215625,118.60312499999999,54.0,83.0
567,116.965625,118.78645833333333,42.0,88.0
568,118.465625,118.81041666666667,61.0,89.0
569,118.465625,118.81041666666667,69.0,85.0
570,118.465625,118.83749999999999,66.0,90.0
571,118.965625,119.33645833333333,69.0,87.0
572,118.965625,119.35833333333333,61.0,91.0
573,118.965625,119.36874999999999,66.0,91.0
574,119.465625,119.58333333333333,66.0,84.0
575,119.465625,119.58958333333334,61.0,84.0
576,119.465625,119.59270833333333,69.0,83.0
577,119.715625,120.26666666666667,61.0,91.0
578,119.715625,120.28541666666666,69.0,86.0
579,119.715625,120.30520833333333,66.0,92.0
580,118.965625,120.81041666666667,42.0,90.0
581,120.465625,120.81041666666667,69.0,87.0
582,120.465625,120.83229166666666,61.0,91.0
583,120.465625,120.84166666666667,66.0,90.0
584,120.215625,120.84375,54.0,82.0
585,120.965625,121.59270833333333,69.0,87.0
586,120.965625,121.60208333333333,61.0,90.0
587,120.965625,121.61770833333333,66.0,93.0
588,121.465625,121.9875,54.0,82.0
589,121.715625,122.271875,61.0,92.0
590,121.715625,122.28333333333333,69.0,89.0
591,121.715625,122.31458333333333,66.0,98.0
592,120.965625,122.84479166666667,42.0,89.0
593,122.215625,122.85520833333334,54.0,88.0
594,122.465625,122.85729166666667,61.0,98.0
595,122.465625,122.91354166666666,66.0,98.0
596,122.465625,122.95104166666667,69.0,87.0
597,122.965625,123.34895833333333,54.0,91.0
598,122.965625,123.62083333333334,61.0,89.0
599,122.965625,123.62916666666666,66.0,88.0
600,122.965625,123.63125,69.0,86.0
601,123.465625,123.88020833333333,54.0,85.0
602,123.715625,124.27604166666667,61.0,93.0
603,123.715625,124.278125,69.0,91.0
604,123.715625,124.28541666666666,66.0,102.0
605,122.965625,124.778125,42.0,89.0
606,124.465625,124.81354166666667,61.0,88.0
607,124.465625,124.81666666666666,69.0,85.0
608,124.215625,124.82708333333333,54.0,88.0
609,124.465625,124.83020833333333,66.0,89.0
610,124.965625,125.38125,69.0,89.0
611,124.965625,125.390625,61.0,96.0
612,124.965625,125.40104166666667,66.0,98.0
613,125.465625,125.578125,69.0,85.0
614,125.465625,125.584375,66.0,88.0
615,125.465625,125.58958333333334,61.0,88.0
616,125.215625,125.67708333333333,54.0,74.0
617,125.715625,126.2625,61.0,110.0
618,125.715625,126.265625,69.0,113.0
619,125.715625,126.27708333333334,66.0,117.0
620,126.215625,126.53958333333333,54.0,110.0
621,124.965625,126.83125,42.0,98.0
622,126.715625,126.94583333333333,54.0,89.0
623,126.465625,126.96770833333333,61.0,108.0
624,126.465625,126.98020833333334,66.0,116.0
625,126.465625,126.99479166666667,69.0,113.0
626,127.465625,127.5375,65.0,70.0
627,127.465625,127.79375,54.0,86.0
628,127.715625,128.234375,69.0,106.0
629,127.715625,128.23645833333333,61.0,104.0
630,127.715625,128.24479166666666,66.0,116.0
631,128.215625,128.48854166666666,54.0,107.0
632,126.965625,128.81979166666667,42.0,107.0
633,128.465625,128.81979166666667,69.0,116.0
634,128.465625,128.82604166666667,61.0,114.0
635,128.465625,128.83125,66.0,117.0
636,128.715625,128.85,54.0,94.0
637,128.965625,129.13854166666667,69.0,106.0
638,128.965625,129.14583333333334,66.0,114.0
639,128.965625,129.14895833333333,61.0,107.0
640,128.965625,129.17291666666665,42.0,107.0
641,129.340625,129.52708333333334,61.0,102.0
642,129.340625,129.52708333333334,69.0,106.0
643,129.340625,129.528125,66.0,107.0
644,129.340625,129.53854166666667,42.0,107.0
645,129.715625,130.27708333333334,61.0,114.0
646,129.715625,130.30625,66.0,116.0
647,129.715625,130.30625,69.0,116.0
648,130.215625,130.47395833333334,54.0,108.0
649,129.715625,130.53854166666667,42.0,113.0
650,130.465625,130.66666666666666,61.0,116.0
651,130.465625,130.70208333333332,66.0,117.0
652,130.465625,130.709375,69.0,113.0
653,130.965625,131.53229166666665,61.0,92.0
654,130.965625,131.534375,69.0,89.0
655,130.965625,131.55,66.0,94.0
656,131.465625,132.13958333333332,54.0,83.0
657,130.965625,132.740625,42.0,92.0
658,131.715625,132.825,69.0,90.0
659,131.715625,132.83645833333333,61.0,98.0
660,131.715625,132.84583333333333,66.0,100.0
661,132.465625,132.959375,54.0,88.0
662,132.965625,133.55208333333334,61.0,98.0
663,132.965625,133.56041666666667,69.0,90.0
664,132.965625,133.57291666666666,66.0,98.0
665,133.465625,133.88958333333332,54.0,88.0
666,133.715625,134.27604166666666,61.0,98.0
667,133.715625,134.28020833333332,69.0,89.0
668,133.715625,134.31458333333333,66.0,102.0
669,132.965625,134.51875,42.0,92.0
670,134.215625,134.54166666666666,54.0,93.0
671,134.465625,134.796875,69.0,100.0
672,134.465625,134.80416666666667,61.0,96.0
673,134.465625,134.84791666666666,66.0,108.0
674,134.965625,135.56979166666667,64.0,107.0
675,134.965625,135.575,61.0,96.0
676,134.965625,135.60416666666666,69.0,91.0
677,135.340625,136.05520833333333,57.0,83.0
678,135.715625,136.56666666666666,61.0,100.0
679,135.715625,136.63958333333332,69.0,91.0
680,135.715625,136.64791666666667,64.0,107.0
681,134.965625,136.721875,45.0,89.0
682,136.465625,137.00833333333333,57.0,89.0
683,136.965625,137.66041666666666,61.0,100.0
684,137.465625,138.04791666666665,57.0,81.0
685,137.715625,138.296875,61.0,87.0
686,136.965625,138.30833333333334,69.0,93.0
687,137.715625,138.31979166666667,64.0,117.0
688,138.215625,138.49270833333333,57.0,91.0
689,136.965625,138.58333333333334,45.0,91.0
690,138.465625,138.93333333333334,69.0,86.0
691,138.465625,138.95104166666667,61.0,104.0
692,138.715625,138.96354166666666,64.0,89.0
693,139.465625,139.63020833333334,56.0,81.0
694,139.215625,139.99583333333334,52.0,88.0
695,139.715625,140.31666666666666,64.0,113.0
696,139.715625,140.32916666666665,56.0,91.0
697,140.465625,140.75,64.0,86.0
698,138.965625,140.7875,40.0,110.0
699,140.215625,140.85,52.0,98.0
700,140.465625,140.878125,59.0,98.0
701,140.965625,141.50416666666666,64.0,100.0
702,140.965625,141.53333333333333,56.0,98.0
703,140.965625,141.59583333333333,59.0,92.0
704,141.465625,141.87708333333333,52.0,89.0
705,141.715625,142.25833333333333,64.0,98.0
706,141.715625,142.27395833333333,56.0,98.0
707,141.715625,142.29375,59.0,104.0
708,140.965625,142.56770833333334,40.0,100.0
709,142.090625,142.70833333333334,52.0,96.0
710,142.465625,142.81354166666665,64.0,93.0
711,142.465625,142.853125,56.0,91.0
712,142.465625,142.98958333333334,59.0,98.0
713,143.465625,144.021875,54.0,102.0
714,143.715625,144.734375,57.0,109.0
715,143.715625,144.77291666666667,66.0,113.0
716,143.715625,144.78541666666666,61.0,117.0
717,142.965625,144.809375,42.0,107.0
718,144.465625,144.85833333333332,54.0,92.0
719,143.215625,144.8625,49.0,87.0
720,144.965625,145.43333333333334,66.0,110.0
721,144.965625,145.43541666666667,57.0,91.0
722,144.965625,145.478125,61.0,108.0
723,145.340625,145.79895833333333,54.0,83.0
724,145.715625,146.234375,66.0,113.0
725,145.715625,146.25520833333334,57.0,91.0
726,145.715625,146.26979166666666,61.0,104.0
727,146.215625,146.528125,54.0,108.0
728,146.465625,146.74791666666667,66.0,107.0
729,144.965625,146.75,42.0,91.0
730,146.465625,146.77083333333334,57.0,93.0
731,146.465625,146.81875,61.0,104.0
732,146.715625,146.87395833333332,54.0,91.0
733,146.965625,147.54270833333334,66.0,110.0
734,146.965625,147.553125,57.0,97.0
735,146.965625,147.56145833333332,61.0,108.0
736,147.465625,147.978125,54.0,91.0
737,147.715625,148.28125,66.0,113.0
738,147.715625,148.28333333333333,57.0,95.0
739,147.715625,148.31041666666667,61.0,108.0
740,148.215625,148.74791666666667,54.0,100.0
741,148.465625,148.75520833333334,66.0,102.0
742,148.465625,148.784375,61.0,93.0
743,146.965625,148.78645833333334,42.0,100.0
744,148.465625,148.80625,57.0,97.0
745,148.965625,149.434375,66.0,104.0
746,148.965625,149.45625,57.0,89.0
747,148.965625,149.49270833333333,61.0,102.0
748,149.465625,149.85625,54.0,92.0
749,149.715625,150.22291666666666,66.0,116.0
750,149.715625,150.23020833333334,57.0,97.0
751,149.715625,150.271875,61.0,113.0
752,148.965625,150.52083333333334,42.0,94.0
753,150.215625,150.575,54.0,93.0
754,150.465625,150.66979166666667,57.0,103.0
755,150.465625,150.678125,66.0,116.0
756,150.465625,150.86666666666667,61.0,108.0
757,150.965625,151.59166666666667,64.0,113.0
758,150.965625,151.6375,61.0,113.0
759,151.465625,152.04791666666665,57.0,86.0
760,151.715625,152.54375,64.0,113.0
761,151.715625,152.575,61.0,113.0
762,150.965625,152.74479166666666,45.0,90.0
763,152.715625,152.86458333333334,64.0,87.0
764,152.715625,152.909375,61.0,88.0
765,152.465625,153.02916666666667,57.0,89.0
766,152.965625,153.60729166666667,64.0,102.0
767,152.965625,153.63958333333332,61.0,104.0
768,153.465625,154.02395833333333,57.0,84.0
769,153.715625,154.284375,64.0,107.0
770,153.715625,154.334375,61.0,107.0
771,154.215625,154.48541666666665,57.0,106.0
772,152.965625,154.53645833333334,45.0,95.0
773,154.465625,154.61979166666666,61.0,110.0
774,154.465625,154.65520833333332,64.0,116.0
775,154.965625,155.44791666666666,64.0,102.0
776,154.965625,155.62083333333334,56.0,91.0
777,154.965625,155.621875,59.0,102.0
778,155.465625,155.9625,52.0,85.0
779,155.715625,156.815625,64.0,113.0
780,154.965625,156.84166666666667,40.0,93.0
781,155.715625,156.85833333333332,56.0,96.0
782,155.715625,156.871875,59.0,108.0
783,156.465625,156.9,52.0,91.0
784,156.965625,157.53958333333333,64.0,104.0
785,156.965625,157.57708333333332,56.0,93.0
786,156.965625,157.63020833333334,59.0,100.0
787,157.465625,157.86770833333333,52.0,89.0
788,157.715625,158.29479166666667,64.0,107.0
789,157.715625,158.33541666666667,56.0,93.0
790,157.715625,158.36354166666666,59.0,107.0
791,158.215625,158.50208333333333,52.0,100.0
792,158.465625,158.61145833333333,56.0,90.0
793,158.465625,158.61145833333333,64.0,102.0
794,158.465625,158.62708333333333,59.0,102.0
795,156.965625,158.7625,40.0,88.0
796,158.715625,158.92083333333332,52.0,88.0
797,158.965625,159.425,66.0,104.0
798,158.965625,159.51041666666666,61.0,96.0
799,158.965625,159.534375,57.0,88.0
800,159.465625,159.80833333333334,54.0,89.0
801,159.715625,160.29479166666667,66.0,108.0
802,159.715625,160.34270833333332,61.0,108.0
803,159.715625,160.34583333333333,57.0,95.0
804,160.465625,160.69375,66.0,88.0
805,160.465625,160.77708333333334,57.0,86.0
806,160.465625,160.79583333333332,61.0,92.0
807,160.215625,160.81875,54.0,96.0
808,158.965625,160.82291666666666,42.0,91.0
809,160.965625,161.475,66.0,107.0
810,160.965625,161.48229166666667,57.0,97.0
811,160.965625,161.49791666666667,61.0,108.0
812,161.465625,161.9625,54.0,88.0
813,161.715625,162.24166666666667,57.0,95.0
814,161.715625,162.24583333333334,66.0,114.0
815,161.715625,162.265625,61.0,108.0
816,162.215625,162.675,54.0,98.0
817,160.965625,162.71979166666665,42.0,98.0
818,162.465625,162.74270833333333,57.0,97.0
819,162.465625,162.78333333333333,66.0,108.0
820,162.465625,162.80208333333334,61.0,104.0
821,162.965625,163.61875,61.0,100.0
822,162.965625,163.625,69.0,91.0
823,162.965625,163.63229166666667,64.0,108.0
824,163.465625,164.028125,57.0,84.0
825,163.715625,164.27083333333334,61.0,102.0
826,163.715625,164.29166666666666,69.0,95.0
827,163.715625,164.32916666666665,64.0,107.0
828,164.215625,164.45833333333334,57.0,109.0
829,162.965625,164.525,45.0,97.0
830,164.465625,164.74479166666666,69.0,95.0
831,164.465625,164.8,61.0,104.0
832,164.465625,164.89895833333333,64.0,108.0
833,164.965625,165.50625,64.0,102.0
834,164.965625,165.58229166666666,68.0,108.0
835,164.965625,165.60520833333334,59.0,94.0
836,165.465625,165.89479166666666,52.0,88.0
837,165.715625,166.32604166666667,68.0,104.0
838,165.715625,166.33020833333333,59.0,104.0
839,165.715625,166.34479166666665,64.0,116.0
840,166.215625,166.53541666666666,52.0,104.0
841,164.965625,166.575,40.0,98.0
842,166.465625,166.76770833333333,59.0,102.0
843,166.465625,166.79375,64.0,100.0
844,166.465625,166.79583333333332,68.0,90.0
845,166.965625,167.496875,71.0,104.0
846,166.965625,167.52604166666666,62.0,100.0
847,166.965625,167.52708333333334,66.0,98.0
848,167.465625,167.928125,59.0,85.0
849,167.715625,168.2375,71.0,110.0
850,167.715625,168.24791666666667,62.0,100.0
851,167.715625,168.27083333333334,66.0,110.0
852,168.215625,168.48333333333332,59.0,89.0
853,166.965625,168.48958333333334,47.0,90.0
854,168.465625,168.70104166666667,62.0,93.0
855,168.465625,168.71458333333334,71.0,104.0
856,168.465625,168.75833333333333,66.0,96.0
857,168.965625,169.434375,66.0,108.0
858,168.965625,169.55833333333334,57.0,93.0
859,168.965625,169.58020833333333,61.0,100.0
860,169.465625,169.93020833333333,54.0,86.0
861,169.715625,170.18229166666666,66.0,113.0
862,169.715625,170.24583333333334,57.0,95.0
863,169.715625,170.25729166666667,61.0,113.0
864,168.965625,170.43541666666667,42.0,87.0
865,170.215625,170.52083333333334,54.0,102.0
866,170.465625,170.66666666666666,57.0,97.0
867,170.465625,170.725,66.0,113.0
868,170.465625,170.865625,61.0,114.0
869,170.965625,171.57083333333333,64.0,104.0
870,170.965625,171.575,61.0,102.0
871,171.465625,171.91458333333333,57.0,90.0
872,171.715625,172.315625,64.0,113.0
873,171.715625,172.32083333333333,61.0,108.0
874,170.965625,172.534375,45.0,97.0
875,172.215625,172.54166666666666,57.0,103.0
876,172.465625,172.72604166666667,61.0,114.0
877,172.465625,172.74583333333334,64.0,116.0
878,172.965625,173.56354166666665,59.0,92.0
879,172.965625,173.56979166666667,68.0,93.0
880,172.965625,173.59479166666665,64.0,104.0
881,173.465625,174.03125,52.0,88.0
882,173.715625,174.3,68.0,91.0
883,173.715625,174.30104166666666,59.0,100.0
884,173.715625,174.31875,64.0,104.0
885,172.965625,174.53854166666667,40.0,90.0
886,174.215625,174.56041666666667,52.0,96.0
887,174.465625,174.76145833333334,68.0,91.0
888,174.465625,174.8125,59.0,94.0
889,174.465625,174.821875,64.0,107.0
890,174.965625,175.51458333333332,62.0,100.0
891,174.965625,175.51979166666666,66.0,114.0
892,174.965625,175.525,69.0,113.0
893,175.465625,175.84270833333332,50.0,100.0
894,175.715625,176.18854166666665,62.0,103.0
895,175.715625,176.2375,66.0,117.0
896,175.715625,176.25833333333333,69.0,113.0
897,174.965625,176.49479166666666,38.0,109.0
898,176.465625,176.565625,66.0,116.0
899,176.465625,176.56770833333334,69.0,109.0
900,176.215625,176.57291666666666,50.0,116.0
901,176.465625,176.57916666666665,62.0,109.0
902,176.965625,177.578125,68.0,114.0
903,176.965625,177.59791666666666,64.0,116.0
904,176.965625,177.61875,59.0,113.0
905,177.465625,177.878125,52.0,102.0
906,176.965625,178.08229166666666,40.0,113.0
907,177.715625,178.23229166666667,68.0,114.0
908,177.715625,178.24583333333334,64.0,123.0
909,177.715625,178.253125,59.0,116.0
910,178.215625,178.49895833333332,52.0,117.0
911,178.215625,178.50729166666667,40.0,108.0
912,178.465625,178.77291666666667,68.0,113.0
913,178.465625,178.78541666666666,64.0,116.0
914,178.465625,178.78958333333333,59.0,114.0
915,178.965625,179.44166666666666,66.0,114.0
916,178.965625,179.50104166666665,57.0,106.0
917,178.965625,179.50416666666666,61.0,117.0
918,179.465625,179.91354166666667,54.0,98.0
919,179.715625,180.24583333333334,61.0,119.0
920,179.715625,180.25520833333334,66.0,117.0
921,179.715625,180.25625,57.0,106.0
922,178.965625,180.52395833333333,42.0,100.0
923,180.215625,180.53958333333333,54.0,108.0
924,180.465625,180.71041666666667,57.0,109.0
925,180.465625,180.76979166666666,66.0,117.0
926,180.465625,180.8125,61.0,116.0
927,180.965625,181.59270833333332,64.0,114.0
928,180.965625,181.61354166666666,61.0,110.0
929,180.965625,181.94375,45.0,100.0
930,181.465625,181.95729166666666,57.0,106.0
931,181.715625,182.26041666666666,64.0,117.0
932,181.715625,182.27708333333334,61.0,114.0
933,182.215625,182.44895833333334,57.0,109.0
934,182.215625,182.48020833333334,45.0,109.0
935,182.465625,182.8,64.0,117.0
936,182.465625,182.85833333333332,61.0,117.0
937,182.965625,183.31770833333334,52.0,92.0
938,182.965625,183.52708333333334,68.0,108.0
939,182.965625,183.553125,59.0,104.0
940,182.965625,183.565625,64.0,113.0
941,183.465625,183.996875,52.0,107.0
942,183.715625,184.2875,68.0,110.0
943,183.715625,184.29166666666666,59.0,110.0
944,183.715625,184.296875,64.0,114.0
945,182.965625,184.596875,40.0,107.0
946,184.215625,184.61770833333333,52.0,110.0
947,184.465625,184.80208333333334,64.0,113.0
948,184.465625,184.809375,59.0,108.0
949,184.465625,184.81770833333334,68.0,108.0
950,184.965625,185.46458333333334,47.0,102.0
951,184.965625,185.575,59.0,92.0
952,184.965625,185.73541666666665,66.0,94.0
953,184.965625,185.815625,62.0,109.0
954,185.965625,186.46458333333334,37.0,94.0
955,185.965625,186.51041666666666,49.0,98.0
956,185.965625,186.59791666666666,56.0,104.0
957,185.965625,186.67708333333334,65.0,97.0
958,185.965625,186.71041666666667,61.0,110.0
959,186.965625,187.48541666666665,66.0,108.0
960,186.965625,187.50208333333333,61.0,104.0
961,186.965625,187.509375,57.0,103.0
962,187.465625,187.92604166666666,54.0,88.0
963,187.715625,188.23645833333333,66.0,110.0
964,187.715625,188.25104166666665,61.0,110.0
965,187.715625,188.26458333333332,57.0,93.0
966,188.215625,188.54479166666667,54.0,104.0
967,186.965625,188.55625,42.0,96.0
968,188.465625,188.66666666666666,57.0,100.0
969,188.465625,188.68958333333333,66.0,114.0
970,188.465625,188.834375,61.0,113.0
971,188.965625,189.37604166666665,57.0,91.0
972,188.965625,189.61354166666666,64.0,104.0
973,188.965625,189.62916666666666,61.0,107.0
974,189.465625,189.990625,57.0,103.0
975,188.965625,190.02916666666667,45.0,91.0
976,189.715625,190.29166666666666,64.0,114.0
977,189.715625,190.29791666666665,61.0,110.0
978,190.215625,190.46458333333334,57.0,106.0
979,190.215625,190.521875,45.0,100.0
980,190.465625,190.78541666666666,64.0,116.0
981,190.465625,190.828125,61.0,116.0
982,190.965625,191.30104166666666,52.0,96.0
983,190.965625,191.57291666666666,68.0,108.0
984,190.965625,191.584375,59.0,100.0
985,190.965625,191.59166666666667,64.0,110.0
986,191.340625,191.81354166666665,52.0,92.0
987,191.715625,192.278125,64.0,110.0
988,191.715625,192.28229166666665,68.0,108.0
989,191.715625,192.28854166666667,59.0,104.0
990,190.965625,192.60208333333333,40.0,91.0
991,192.215625,192.625,52.0,114.0
992,192.465625,192.63645833333334,68.0,108.0
993,192.465625,192.65625,64.0,114.0
994,192.465625,192.696875,59.0,107.0
995,192.965625,193.35625,47.0,107.0
996,192.965625,193.378125,35.0,98.0
997,192.965625,193.5625,71.0,104.0
998,193.465625,193.56770833333334,35.0,90.0
999,192.965625,193.58541666666667,62.0,100.0
1000,192.965625,193.58958333333334,66.0,104.0
1001,193.465625,193.59479166666665,47.0,102.0
1002,193.965625,194.38020833333334,54.0,91.0
1003,193.965625,194.421875,42.0,92.0
1004,193.965625,194.58125,69.0,88.0
1005,193.965625,194.590625,66.0,110.0
1006,193.965625,194.59479166666665,61.0,96.0
1007,194.465625,194.71041666666667,42.0,87.0
1008,194.465625,194.71458333333334,54.0,102.0
1009,194.715625,194.95104166666667,61.0,102.0
1010,194.715625,195.0,66.0,117.0
1011,194.965625,195.0,66.0,114.0
1012,194.715625,195.03229166666665,69.0,109.0
1013,194.965625,195.50104166666665,57.0,106.0
1014,194.965625,195.50416666666666,61.0,117.0
1015,195.465625,195.91354166666667,54.0,98.0
1016,195.715625,196.24583333333334,61.0,119.0
1017,195.715625,196.25520833333334,66.0,117.0
1018,195.715625,196.25625,57.0,106.0
1019,194.965625,196.52395833333333,42.0,100.0
1020,196.215625,196.53958333333333,54.0,108.0
1021,196.465625,196.71041666666667,57.0,109.0
1022,196.465625,196.76979166666666,66.0,117.0
1023,196.465625,196.8125,61.0,116.0
1024,196.965625,197.59270833333332,64.0,114.0
1025,196.965625,197.61354166666666,61.0,110.0
1026,196.965625,197.94375,45.0,100.0
1027,197.465625,197.95729166666666,57.0,106.0
1028,197.715625,198.26041666666666,64.0,117.0
1029,197.715625,198.27708333333334,61.0,114.0
1030,198.215625,198.44895833333334,57.0,109.0
1031,198.215625,198.48020833333334,45.0,109.0
1032,198.465625,198.8,64.0,117.0
1033,198.465625,198.85833333333332,61.0,117.0
1034,198.965625,199.31770833333334,52.0,92.0
1035,198.965625,199.52708333333334,68.0,108.0
1036,198.965625,199.553125,59.0,104.0
1037,198.965625,199.565625,64.0,113.0
1038,199.465625,199.996875,52.0,107.0
1039,199.715625,200.2875,68.0,110.0
1040,199.715625,200.29166666666666,59.0,110.0
1041,199.715625,200.296875,64.0,114.0
1042,198.965625,200.596875,40.0,107.0
1043,200.215625,200.61770833333333,52.0,110.0
1044,200.465625,200.80208333333334,64.0,113.0
1045,200.465625,200.809375,59.0,108.0
1046,200.465625,200.81770833333334,68.0,108.0
1047,200.965625,201.46458333333334,47.0,102.0
1048,200.965625,201.575,59.0,92.0
1049,200.965625,201.73541666666665,66.0,94.0
1050,200.965625,201.815625,62.0,109.0
1051,201.965625,202.46458333333334,37.0,94.0
1052,201.965625,202.51041666666666,49.0,98.0
1053,201.965625,202.59791666666666,56.0,104.0
1054,201.965625,202.67708333333334,65.0,97.0
1055,201.965625,202.71041666666667,61.0,110.0
1056,202.965625,203.48541666666665,66.0,108.0
1057,202.965625,203.50208333333333,61.0,104.0
1058,202.965625,203.509375,57.0,103.0
1059,203.465625,203.92604166666666,54.0,88.0
1060,203.715625,204.23645833333333,66.0,110.0
1061,203.715625,204.25104166666665,61.0,110.0
1062,203.715625,204.26458333333332,57.0,93.0
1063,204.215625,204.54479166666667,54.0,104.0
1064,202.965625,204.55625,42.0,96.0
1065,204.465625,204.66666666666666,57.0,100.0
1066,204.465625,204.68958333333333,66.0,114.0
1067,204.465625,204.834375,61.0,113.0
1068,204.965625,205.37604166666665,57.0,91.0
1069,204.965625,205.61354166666666,64.0,104.0
1070,204.965625,205.62916666666666,61.0,107.0
1071,205.465625,205.990625,57.0,103.0
1072,204.965625,206.02916666666667,45.0,91.0
1073,205.715625,206.29166666666666,64.0,114.0
1074,205.715625,206.29791666666665,61.0,110.0
1075,206.215625,206.46458333333334,57.0,106.0
1076,206.215625,206.521875,45.0,100.0
1077,206.465625,206.78541666666666,64.0,116.0
1078,206.465625,206.828125,61.0,116.0
1079,206.965625,207.30104166666666,52.0,96.0
1080,206.965625,207.57291666666666,68.0,108.0
1081,206.965625,207.584375,59.0,100.0
1082,206.965625,207.59166666666667,64.0,110.0
1083,207.340625,207.81354166666665,52.0,92.0
1084,207.715625,208.278125,64.0,110.0
1085,207.715625,208.28229166666665,68.0,108.0
1086,207.715625,208.28854166666667,59.0,104.0
1087,206.965625,208.60208333333333,40.0,91.0
1088,208.215625,208.625,52.0,114.0
1089,208.465625,208.63645833333334,68.0,108.0
1090,208.465625,208.65625,64.0,114.0
1091,208.465625,208.696875,59.0,107.0
1092,208.965625,209.35625,47.0,107.0
1093,208.965625,209.37812499999998,35.0,98.0
1094,208.965625,209.5625,71.0,104.0
1095,209.465625,209.56770833333334,35.0,90.0
1096,208.965625,209.58541666666667,62.0,100.0
1097,208.965625,209.58958333333334,66.0,104.0
1098,209.465625,209.59479166666665,47.0,102.0
1099,209.965625,210.38020833333334,54.0,91.0
1100,209.965625,210.421875,42.0,92.0
1101,209.965625,210.58124999999998,69.0,88.0
1102,209.965625,210.590625,66.0,110.0
1103,209.965625,210.59479166666665,61.0,96.0
1104,210.465625,210.71041666666667,42.0,87.0
1105,210.465625,210.71458333333334,54.0,102.0
1106,210.715625,210.95104166666667,61.0,102.0
1107,210.840625,210.95104166666667,61.0,92.0
1108,210.715625,211.0,66.0,117.0
1109,210.840625,211.0,66.0,89.0
1110,210.715625,211.03229166666665,69.0,109.0
1111,210.840625,211.03229166666665,69.0,86.0
1112,210.840625,211.36354166666666,54.0,87.0
1113,211.465625,212.27291666666667,54.0,83.0
1114,211.715625,212.59791666666666,61.0,94.0
1115,210.840625,212.71041666666667,42.0,86.0
1116,211.715625,212.79375,69.0,89.0
1117,211.715625,212.81875,66.0,93.0
1118,212.715625,212.85833333333332,61.0,73.0
1119,212.465625,212.96145833333333,54.0,76.0
1120,212.965625,213.61666666666667,69.0,87.0
1121,212.965625,213.62395833333332,61.0,91.0
1122,212.965625,213.63854166666667,66.0,94.0
1123,213.465625,213.91770833333334,54.0,81.0
1124,213.715625,214.2,61.0,94.0
1125,213.715625,214.21875,69.0,89.0
1126,213.715625,214.240625,66.0,98.0
1127,214.215625,214.52916666666667,54.0,92.0
1128,212.965625,214.74895833333332,42.0,88.0
1129,214.465625,214.82395833333334,61.0,102.0
1130,214.465625,214.82395833333334,69.0,88.0
1131,214.465625,214.86041666666665,66.0,91.0
1132,214.715625,214.95833333333334,49.0,83.0
1133,214.965625,215.546875,69.0,87.0
1134,214.965625,215.58124999999998,61.0,93.0
1135,214.965625,215.59791666666666,66.0,92.0
1136,215.465625,215.94270833333334,54.0,87.0
1137,215.715625,216.25520833333334,61.0,92.0
1138,215.715625,216.26458333333332,69.0,87.0
1139,215.715625,216.27708333333334,66.0,96.0
1140,216.215625,216.78958333333333,54.0,89.0
1141,214.965625,216.79583333333332,42.0,94.0
1142,216.465625,216.81458333333333,61.0,88.0
1143,216.465625,216.81562499999998,69.0,85.0
1144,216.465625,216.83333333333334,66.0,88.0
1145,216.715625,216.96666666666667,49.0,80.0
1146,216.965625,217.68020833333333,66.0,110.0
1147,216.965625,217.68229166666666,61.0,96.0
1148,216.965625,217.68645833333332,69.0,93.0
1149,217.590625,217.946875,54.0,81.0
1150,217.715625,218.06041666666667,69.0,87.0
1151,217.715625,218.06145833333332,61.0,89.0
1152,217.715625,218.07395833333334,66.0,98.0
1153,216.965625,218.08645833333333,42.0,87.0
1154,218.215625,218.321875,54.0,91.0
1155,218.215625,218.33124999999998,42.0,98.0
1156,218.215625,218.33541666666667,66.0,116.0
1157,218.215625,218.34479166666665,69.0,116.0
1158,218.215625,218.36041666666665,61.0,113.0
1159,218.715625,219.225,47.0,96.0
1160,218.715625,219.76145833333334,71.0,110.0
1161,218.715625,219.76874999999998,66.0,107.0
1162,218.715625,219.778125,62.0,113.0
1163,219.465625,220.09270833333332,47.0,91.0
1164,219.965625,220.58020833333333,71.0,94.0
1165,218.715625,220.584375,35.0,108.0
1166,219.965625,220.58541666666667,62.0,91.0
1167,219.965625,220.58958333333334,66.0,102.0
1168,220.465625,220.75833333333333,47.0,88.0
1169,220.715625,221.246875,62.0,88.0
1170,220.715625,221.26145833333334,71.0,100.0
1171,220.715625,221.27604166666666,66.0,104.0
1172,221.215625,221.57083333333333,47.0,88.0
1173,221.715625,222.03229166666665,47.0,87.0
1174,221.465625,222.271875,71.0,91.0
1175,221.465625,222.28958333333333,62.0,89.0
1176,221.465625,222.33958333333334,66.0,94.0
1177,222.215625,222.53333333333333,47.0,93.0
1178,220.715625,222.53958333333333,35.0,91.0
1179,222.465625,222.61875,62.0,103.0
1180,222.465625,222.67916666666667,71.0,104.0
1181,222.465625,222.84687499999998,66.0,107.0
1182,222.965625,223.32604166666667,54.0,88.0
1183,222.965625,223.61458333333334,69.0,87.0
1184,222.965625,223.625,61.0,96.0
1185,222.965625,223.63645833333334,66.0,98.0
1186,223.465625,223.90833333333333,54.0,88.0
1187,223.715625,224.25625,61.0,98.0
1188,223.715625,224.27291666666667,69.0,90.0
1189,223.715625,224.28854166666667,66.0,98.0
1190,222.965625,224.75104166666665,42.0,96.0
1191,224.465625,224.83854166666666,69.0,85.0
1192,224.465625,224.853125,61.0,89.0
1193,224.215625,224.85729166666667,54.0,87.0
1194,224.465625,224.86770833333333,66.0,89.0
1195,224.965625,225.56875,61.0,91.0
1196,224.965625,225.57395833333334,69.0,88.0
1197,224.965625,225.59375,66.0,93.0
1198,225.340625,225.72395833333334,54.0,84.0
1199,224.965625,226.04375,42.0,88.0
1200,225.715625,226.23958333333334,69.0,90.0
1201,225.715625,226.24270833333333,61.0,94.0
1202,225.715625,226.25729166666667,66.0,102.0
1203,226.215625,226.45520833333333,54.0,113.0
1204,226.215625,226.47291666666666,42.0,102.0
1205,226.465625,226.75729166666667,61.0,114.0
1206,226.465625,226.78333333333333,66.0,114.0
1207,226.465625,226.790625,69.0,109.0
1208,226.715625,226.84687499999998,54.0,108.0
1209,226.715625,226.86666666666667,42.0,98.0
1210,226.965625,227.44166666666666,66.0,114.0
1211,226.965625,227.50104166666665,57.0,106.0
1212,226.965625,227.50416666666666,61.0,117.0
1213,227.465625,227.91354166666667,54.0,98.0
1214,227.715625,228.24583333333334,61.0,119.0
1215,227.715625,228.25520833333334,66.0,117.0
1216,227.715625,228.25625,57.0,106.0
1217,226.965625,228.52395833333333,42.0,100.0
1218,228.215625,228.53958333333333,54.0,108.0
1219,228.465625,228.71041666666667,57.0,109.0
1220,228.465625,228.76979166666666,66.0,117.0
1221,228.465625,228.8125,61.0,116.0
1222,228.965625,229.59270833333332,64.0,114.0
1223,228.965625,229.61354166666666,61.0,110.0
1224,228.965625,229.94375,45.0,100.0
1225,229.465625,229.95729166666666,57.0,106.0
1226,229.715625,230.26041666666666,64.0,117.0
1227,229.715625,230.27708333333334,61.0,114.0
1228,230.215625,230.44895833333334,57.0,109.0
1229,230.215625,230.48020833333334,45.0,109.0
1230,230.465625,230.79999999999998,64.0,117.0
1231,230.465625,230.85833333333332,61.0,117.0
1232,230.965625,231.31770833333334,52.0,92.0
1233,230.965625,231.52708333333334,68.0,108.0
1234,230.965625,231.553125,59.0,104.0
1235,230.965625,231.56562499999998,64.0,113.0
1236,231.465625,231.996875,52.0,107.0
1237,231.715625,232.2875,68.0,110.0
1238,231.715625,232.29166666666666,59.0,110.0
1239,231.715625,232.296875,64.0,114.0
1240,230.965625,232.59687499999998,40.0,107.0
1241,232.215625,232.61770833333333,52.0,110.0
1242,232.465625,232.80208333333334,64.0,113.0
1243,232.465625,232.809375,59.0,108.0
1244,232.465625,232.81770833333334,68.0,108.0
1245,232.965625,233.46458333333334,47.0,102.0
1246,232.965625,233.575,59.0,92.0
1247,232.965625,233.73541666666665,66.0,94.0
1248,232.965625,233.81562499999998,62.0,109.0
1249,233.965625,234.46458333333334,37.0,94.0
1250,233.965625,234.51041666666666,49.0,98.0
1251,233.965625,234.59791666666666,56.0,104.0
1252,233.965625,234.67708333333334,65.0,97.0
1253,233.965625,234.71041666666667,61.0,110.0
1254,234.965625,235.48541666666665,66.0,108.0
1255,234.965625,235.50208333333333,61.0,104.0
1256,234.965625,235.509375,57.0,103.0
1257,235.465625,235.92604166666666,54.0,88.0
1258,235.715625,236.23645833333333,66.0,110.0
1259,235.715625,236.25104166666665,61.0,110.0
1260,235.715625,236.26458333333332,57.0,93.0
1261,236.215625,236.54479166666667,54.0,104.0
1262,234.965625,236.55625,42.0,96.0
1263,236.465625,236.66666666666666,57.0,100.0
1264,236.465625,236.68958333333333,66.0,114.0
1265,236.465625,236.834375,61.0,113.0
1266,236.965625,237.37604166666665,57.0,91.0
1267,236.965625,237.61354166666666,64.0,104.0
1268,236.965625,237.62916666666666,61.0,107.0
1269,237.465625,237.990625,57.0,103.0
1270,236.965625,238.02916666666667,45.0,91.0
1271,237.715625,238.29166666666666,64.0,114.0
1272,237.715625,238.29791666666665,61.0,110.0
1273,238.215625,238.46458333333334,57.0,106.0
1274,238.215625,238.521875,45.0,100.0
1275,238.465625,238.78541666666666,64.0,116.0
1276,238.465625,238.828125,61.0,116.0
1277,238.965625,239.30104166666666,52.0,96.0
1278,238.965625,239.57291666666666,68.0,108.0
1279,238.965625,239.584375,59.0,100.0
1280,238.965625,239.59166666666667,64.0,110.0
1281,239.340625,239.81354166666665,52.0,92.0
1282,239.715625,240.278125,64.0,110.0
1283,239.715625,240.28229166666665,68.0,108.0
1284,239.715625,240.28854166666667,59.0,104.0
1285,238.965625,240.60208333333333,40.0,91.0
1286,240.215625,240.625,52.0,114.0
1287,240.465625,240.63645833333334,68.0,108.0
1288,240.465625,240.65625,64.0,114.0
1289,240.465625,240.696875,59.0,107.0
1290,240.965625,241.35625,47.0,107.0
1291,240.965625,241.37812499999998,35.0,98.0
1292,240.965625,241.5625,71.0,104.0
1293,241.465625,241.56770833333334,35.0,90.0
1294,240.965625,241.58541666666667,62.0,100.0
1295,240.965625,241.58958333333334,66.0,104.0
1296,241.465625,241.59479166666665,47.0,102.0
1297,241.965625,242.38020833333334,54.0,91.0
1298,241.965625,242.421875,42.0,92.0
1299,241.965625,242.58124999999998,69.0,88.0
1300,241.965625,242.590625,66.0,110.0
1301,241.965625,242.59479166666665,61.0,96.0
1302,242.465625,242.71041666666667,42.0,87.0
1303,242.465625,242.71458333333334,54.0,102.0
1304,242.715625,242.95104166666667,61.0,102.0
1305,242.715625,243.0,66.0,117.0
1306,242.965625,243.0,66.0,114.0
1307,242.715625,243.03229166666665,69.0,109.0
1308,242.965625,243.50104166666665,57.0,106.0
1309,242.965625,243.50416666666666,61.0,117.0
1310,243.465625,243.91354166666667,54.0,98.0
1311,243.715625,244.24583333333334,61.0,119.0
1312,243.715625,244.25520833333334,66.0,117.0
1313,243.715625,244.25625,57.0,106.0
1314,242.965625,244.52395833333333,42.0,100.0
1315,244.215625,244.53958333333333,54.0,108.0
1316,244.465625,244.71041666666667,57.0,109.0
1317,244.465625,244.76979166666666,66.0,117.0
1318,244.465625,244.8125,61.0,116.0
1319,244.965625,245.59270833333332,64.0,114.0
1320,244.965625,245.61354166666666,61.0,110.0
1321,244.965625,245.94375,45.0,100.0
1322,245.465625,245.95729166666666,57.0,106.0
1323,245.715625,246.26041666666666,64.0,117.0
1324,245.715625,246.27708333333334,61.0,114.0
1325,246.215625,246.44895833333334,57.0,109.0
1326,246.215625,246.48020833333334,45.0,109.0
1327,246.465625,246.79999999999998,64.0,117.0
1328,246.465625,246.85833333333332,61.0,117.0
1329,246.965625,247.31770833333334,52.0,92.0
1330,246.965625,247.52708333333334,68.0,108.0
1331,246.965625,247.553125,59.0,104.0
1332,246.965625,247.56562499999998,64.0,113.0
1333,247.465625,247.996875,52.0,107.0
1334,247.715625,248.2875,68.0,110.0
1335,247.715625,248.29166666666666,59.0,110.0
1336,247.715625,248.296875,64.0,114.0
1337,246.965625,248.59687499999998,40.0,107.0
1338,248.215625,248.61770833333333,52.0,110.0
1339,248.465625,248.80208333333334,64.0,113.0
1340,248.465625,248.809375,59.0,108.0
1341,248.465625,248.81770833333334,68.0,108.0
1342,248.965625,249.46458333333334,47.0,102.0
1343,248.965625,249.575,59.0,92.0
1344,248.965625,249.73541666666665,66.0,94.0
1345,248.965625,249.81562499999998,62.0,109.0
1346,249.965625,250.46458333333334,37.0,94.0
1347,249.965625,250.51041666666666,49.0,98.0
1348,249.965625,250.59791666666666,56.0,104.0
1349,249.965625,250.67708333333334,65.0,97.0
1350,249.965625,250.71041666666667,61.0,110.0
1351,250.965625,251.48541666666665,66.0,108.0
1352,250.965625,251.50208333333333,61.0,104.0
1353,250.965625,251.509375,57.0,103.0
1354,251.465625,251.92604166666666,54.0,88.0
1355,251.715625,252.23645833333333,66.0,110.0
1356,251.715625,252.25104166666665,61.0,110.0
1357,251.715625,252.26458333333332,57.0,93.0
1358,252.215625,252.54479166666667,54.0,104.0
1359,250.965625,252.55625,42.0,96.0
1360,252.465625,252.66666666666666,57.0,100.0
1361,252.465625,252.68958333333333,66.0,114.0
1362,252.465625,252.834375,61.0,113.0
1363,252.965625,253.37604166666665,57.0,91.0
1364,252.965625,253.61354166666666,64.0,104.0
1365,252.965625,253.62916666666666,61.0,107.0
1366,253.465625,253.990625,57.0,103.0
1367,252.965625,254.02916666666667,45.0,91.0
1368,253.715625,254.29166666666666,64.0,114.0
1369,253.715625,254.29791666666665,61.0,110.0
1370,254.215625,254.46458333333334,57.0,106.0
1371,254.215625,254.521875,45.0,100.0
1372,254.465625,254.78541666666666,64.0,116.0
1373,254.465625,254.828125,61.0,116.0
1374,254.965625,255.30104166666666,52.0,96.0
1375,254.965625,255.57291666666666,68.0,108.0
1376,254.965625,255.584375,59.0,100.0
1377,254.965625,255.59166666666667,64.0,110.0
1378,255.340625,255.81354166666665,52.0,92.0
1379,255.715625,256.278125,64.0,110.0
1380,255.715625,256.28229166666665,68.0,108.0
1381,255.715625,256.2885416666667,59.0,104.0
1382,254.965625,256.6020833333333,40.0,91.0
1383,256.215625,256.625,52.0,114.0
1384,256.465625,256.63645833333334,68.0,108.0
1385,256.465625,256.65625,64.0,114.0
1386,256.465625,256.696875,59.0,107.0
1387,256.965625,257.35625,47.0,107.0
1388,256.965625,257.378125,35.0,98.0
1389,256.965625,257.5625,71.0,104.0
1390,257.465625,257.5677083333333,35.0,90.0
1391,256.965625,257.5854166666667,62.0,100.0
1392,256.965625,257.58958333333334,66.0,104.0
1393,257.465625,257.59479166666665,47.0,102.0
1394,257.965625,258.3802083333333,54.0,91.0
1395,257.965625,258.421875,42.0,92.0
1396,257.965625,258.58125,69.0,88.0
1397,257.965625,258.590625,66.0,110.0
1398,257.965625,258.59479166666665,61.0,96.0
1399,258.465625,258.7104166666667,42.0,87.0
1400,258.465625,258.71458333333334,54.0,102.0
1401,258.715625,258.95104166666664,61.0,102.0
1402,258.715625,259.0,66.0,117.0
1403,258.965625,259.0,66.0,90.0
1404,258.715625,259.03229166666665,69.0,109.0
1405,258.965625,259.03229166666665,69.0,83.0
1406,258.965625,259.3208333333333,54.0,85.0
1407,258.965625,259.478125,61.0,89.0
1408,259.465625,259.8802083333333,54.0,87.0
1409,259.715625,260.196875,61.0,104.0
1410,259.715625,260.215625,69.0,106.0
1411,259.715625,260.23854166666666,66.0,108.0
1412,258.965625,260.40729166666665,42.0,86.0
1413,260.215625,260.46875,54.0,94.0
1414,260.465625,260.6427083333333,61.0,104.0
1415,260.465625,260.6739583333333,69.0,106.0
1416,260.465625,260.803125,66.0,116.0
1417,260.965625,261.034375,50.0,83.0
1418,260.965625,261.57604166666664,66.0,113.0
1419,260.965625,261.5854166666667,62.0,103.0
1420,260.965625,261.6041666666667,69.0,100.0
1421,261.465625,261.95729166666666,50.0,89.0
1422,261.715625,262.26666666666665,66.0,107.0
1423,261.715625,262.2916666666667,62.0,90.0
1424,261.715625,262.31354166666665,69.0,93.0
1425,262.215625,262.5520833333333,50.0,93.0
1426,260.965625,262.58229166666666,38.0,89.0
1427,262.465625,262.63125,62.0,95.0
1428,262.465625,262.65729166666665,66.0,104.0
1429,262.465625,262.67083333333335,69.0,91.0
1430,262.965625,263.55104166666666,71.0,94.0
1431,262.965625,263.58958333333334,64.0,96.0
1432,262.965625,263.61875,68.0,102.0
1433,263.465625,263.88958333333335,52.0,91.0
1434,263.715625,264.26666666666665,64.0,98.0
1435,263.715625,264.29583333333335,71.0,96.0
1436,263.715625,264.31041666666664,68.0,108.0
1437,264.465625,264.615625,71.0,89.0
1438,262.965625,264.6322916666667,40.0,98.0
1439,264.465625,264.6427083333333,68.0,104.0
1440,264.465625,264.6489583333333,64.0,98.0
1441,264.215625,264.690625,52.0,93.0
1442,264.965625,265.528125,69.0,100.0
1443,264.965625,265.5520833333333,61.0,100.0
1444,264.965625,265.5552083333333,66.0,113.0
1445,265.465625,265.934375,54.0,88.0
1446,265.715625,266.7760416666667,69.0,109.0
1447,265.715625,266.8020833333333,61.0,98.0
1448,265.715625,266.83229166666666,66.0,116.0
1449,266.465625,266.834375,54.0,86.0
1450,264.965625,266.8520833333333,42.0,98.0
1451,266.965625,268.3229166666667,61.0,108.0
1452,266.965625,268.36041666666665,54.0,107.0
1453,266.965625,268.3697916666667,42.0,98.0
1454,266.965625,268.390625,66.0,116.0
1455,266.965625,268.3989583333333,69.0,109.0
