,start,end,pitch,velocity
0,25.312487343750004,25.610281312500003,76.0,66.0
1,25.606604843750002,25.8749870625,83.0,85.0
2,25.90072234375,26.019594833333336,81.0,69.0
3,26.194839843750003,26.444839718750003,83.0,98.0
4,26.488957343750002,26.598025916666668,81.0,64.0
5,26.78307484375,27.052682552083336,81.0,71.0
6,27.077192343750003,27.31493732291667,83.0,74.0
7,27.37130984375,28.111505552083337,83.0,98.0
8,28.547779843750003,28.871309093750003,79.0,74.0
9,28.841897343750002,29.177681489583335,81.0,74.0
10,29.13601484375,29.37743629166667,83.0,63.0
11,29.430132343750003,29.671553791666668,76.0,63.0
12,29.724249843750002,30.014690875000003,79.0,66.0
13,30.01836734375,30.349249531250003,76.0,56.0
14,30.312484843750003,30.618857239583335,79.0,64.0
15,30.60660234375,30.746308156250002,76.0,63.0
16,30.900719843750004,32.06983690625,76.0,73.0
17,32.66542484375,32.861503177083335,76.0,90.0
18,32.95954234375,33.07228738541667,79.0,95.0
19,33.25365984375,33.56248321875,79.0,75.0
20,33.54777734375,33.81493407291667,76.0,72.0
21,33.841894843750005,34.014688875000004,78.0,62.0
22,34.136012343750004,34.276943645833335,79.0,83.0
23,34.43012984375,34.834541406250004,81.0,108.0
24,36.19483484375,36.30757988541667,84.0,87.0
25,36.48895234375,36.58699151041667,84.0,74.0
26,36.783069843750006,36.897040375,84.0,83.0
27,37.077187343750005,37.19605983333334,79.0,79.0
28,37.37130484375,37.50855967708333,79.0,77.0
29,37.66542234375,37.77449091666667,81.0,86.0
30,37.95953984375,39.13110788541667,83.0,120.0
31,39.43012734375,39.7279213125,76.0,66.0
32,39.72424484375,39.992627062500006,83.0,85.0
33,40.018362343750006,40.13723483333334,81.0,69.0
34,40.312479843750005,40.562479718750005,83.0,98.0
35,40.60659734375,40.71566591666667,81.0,64.0
36,40.90071484375,41.170322552083334,81.0,71.0
37,41.19483234375,41.43257732291667,83.0,74.0
38,41.48894984375,42.22914555208334,83.0,98.0
39,42.95953734375,43.20586075000001,71.0,61.0
40,43.253654843750006,43.4190959375,83.0,75.0
41,43.547772343750005,43.64948797916667,81.0,68.0
42,43.84188984375,44.02081132291667,83.0,77.0
43,44.13600734375,44.24752689583334,81.0,69.0
44,44.43012484375,44.54532086458334,79.0,81.0
45,44.72424234375001,44.863948156250004,76.0,63.0
46,45.018359843750005,46.187476906250005,76.0,73.0
47,46.783064843750005,46.97914317708334,76.0,90.0
48,47.07718234375,47.18992738541667,79.0,95.0
49,47.37129984375,47.680123218750005,79.0,75.0
50,47.66541734375,47.93257407291667,76.0,72.0
51,47.959534843750006,48.132328875000006,79.0,62.0
52,48.23894646875,48.38110326041667,81.0,83.0
53,48.547769843750004,48.952181406250006,81.0,108.0
54,50.018357343750004,50.23404351041667,83.0,98.0
55,50.31247484375,50.42521988541667,84.0,87.0
56,50.60659234375,50.70463151041667,84.0,74.0
57,50.90070984375,51.014680375000005,84.0,83.0
58,51.194827343750006,51.31369983333334,79.0,79.0
59,51.488944843750005,51.626199677083335,81.0,77.0
60,51.783062343750004,51.89213091666667,83.0,86.0
61,52.07717984375,53.24874788541667,83.0,120.0
62,53.84188484375,54.09433569791667,81.0,90.0
63,54.13600234375,54.23036504166667,79.0,74.0
64,54.430119843750006,54.69972755208334,81.0,98.0
65,54.724237343750005,54.887227458333335,79.0,67.0
66,55.018354843750004,55.21198219791667,81.0,93.0
67,55.31247234375,55.444825218750005,83.0,87.0
68,55.60658984375,56.20953071875,81.0,111.0
69,57.37129484375001,57.64090255208334,79.0,79.0
70,57.665412343750006,57.779382875,83.0,61.0
71,57.959529843750005,58.116392510416674,83.0,100.0
72,58.25364734375,58.368843364583334,81.0,75.0
73,58.54776484375,58.70462751041667,81.0,74.0
74,58.84188234375,58.98036266666667,79.0,71.0
75,59.13599984375001,59.27693114583334,79.0,87.0
76,59.430117343750005,59.541636895833335,76.0,83.0
77,59.724234843750004,60.07962682291667,76.0,86.0
78,60.60658734375001,60.75119511458334,76.0,62.0
79,60.900704843750006,61.006096947916674,79.0,104.0
80,61.194822343750005,61.294087000000005,79.0,93.0
81,61.48893984375,61.582077052083335,79.0,93.0
82,61.78305734375,61.88844944791667,79.0,85.0
83,62.07717484375001,62.226684572916675,79.0,95.0
84,62.37129234375001,62.49384130208334,76.0,76.0
85,62.665409843750005,62.85781170833334,79.0,95.0
86,64.43011484375,64.56124222916667,78.0,83.0
87,64.72423234375,64.83697738541667,78.0,77.0
88,65.01834984375,65.11516352083333,78.0,86.0
89,65.31246734375,65.41663395833334,78.0,87.0
90,65.60658484375,65.73893771875001,78.0,87.0
91,65.90070234375,66.00977091666667,76.0,74.0
92,66.19481984375001,67.43624079166668,78.0,100.0
93,67.95952484375,68.21810314583334,83.0,95.0
94,68.54775984375,68.86393615625,88.0,104.0
95,69.13599484375,69.40927902083334,83.0,98.0
96,69.72422984375001,69.85168076041667,86.0,98.0
97,70.01834734375001,70.12128846875001,88.0,108.0
98,70.31246484375,70.95094491666667,88.0,117.0
99,71.48893484375,71.66172887500001,88.0,76.0
100,71.78305234375,71.90069934375,91.0,83.0
101,72.07716984375,72.26712072916668,88.0,79.0
102,72.37128734375001,72.55388529166667,86.0,77.0
103,72.66540484375001,72.87618905208333,88.0,79.0
104,72.95952234375001,73.07839483333333,86.0,79.0
105,73.25363984375001,73.37006135416667,83.0,93.0
106,73.54775734375,73.65927689583334,81.0,86.0
107,73.84187484375,74.22912955208334,83.0,121.0
108,75.01834484375,75.49996225000001,76.0,81.0
109,75.60657984375001,75.92398164583334,83.0,79.0
110,76.19481484375001,76.55020682291668,81.0,104.0
111,76.78304984375,76.94358897916668,83.0,98.0
112,77.07716734375,77.19113787500001,88.0,85.0
113,77.37128484375,77.90069634375,88.0,111.0
114,77.95951984375,78.34800004166667,79.0,90.0
115,78.54775484375,78.84799979166667,83.0,83.0
116,78.84187234375001,78.95216640625,88.0,90.0
117,79.13598984375001,79.37496031250001,88.0,93.0
118,79.43010734375001,79.65559742708334,83.0,87.0
119,79.72422484375001,79.84677380208333,88.0,93.0
120,80.01834234375,80.12863640625001,90.0,98.0
121,80.31245984375,81.56245921875,90.0,117.0
122,82.07716484375001,82.33574314583333,83.0,95.0
123,82.66539984375001,82.98157615625,88.0,104.0
124,83.25363484375,83.52691902083333,83.0,98.0
125,83.84186984375,83.96932076041668,86.0,98.0
126,84.13598734375,84.23892846875,88.0,108.0
127,84.43010484375,85.06858491666668,88.0,117.0
128,85.60657484375001,85.779368875,88.0,76.0
129,85.90069234375001,86.01833934375,91.0,83.0
130,86.19480984375001,86.38476072916667,88.0,79.0
131,86.48892734375,86.67152529166667,86.0,77.0
132,86.78304484375,86.99382905208334,88.0,79.0
133,87.07716234375,87.19603483333334,86.0,79.0
134,87.37127984375,87.48770135416667,83.0,93.0
135,87.66539734375,87.77691689583334,81.0,86.0
136,87.95951484375,88.98157315625001,83.0,121.0
137,89.13598484375001,89.61760225,76.0,81.0
138,89.72421984375,90.04162164583335,83.0,79.0
139,90.31245484375,90.66784682291667,81.0,104.0
140,90.90068984375,91.09799366666667,81.0,76.0
141,91.19480734375,91.30632689583334,83.0,95.0
142,91.48892484375001,91.81980703125001,83.0,111.0
143,92.07715984375001,92.52936550000001,76.0,86.0
144,92.66539484375001,92.76465950000001,78.0,98.0
145,92.95951234375,93.05755151041667,78.0,83.0
146,93.25362984375,93.36147292708334,78.0,90.0
147,93.54774734375,93.68745315625,81.0,74.0
148,93.84186484375,93.93500205208333,79.0,90.0
149,94.13598234375,94.26343326041668,78.0,87.0
150,94.43009984375,96.12250095833333,76.0,87.0
151,127.66537734375001,127.96317131250001,76.0,66.0
152,127.95949484375001,128.2278770625,83.0,85.0
153,128.25361234375,128.37248483333335,81.0,69.0
154,128.54772984375,128.79772971875002,83.0,98.0
155,128.84184734375,128.95091591666667,81.0,64.0
156,129.13596484375,129.40557255208336,81.0,71.0
157,129.43008234375,129.66782732291668,83.0,74.0
158,129.72419984375,130.46439555208335,83.0,98.0
159,130.90066984375002,131.22419909375,79.0,74.0
160,131.19478734375002,131.53057148958334,81.0,74.0
161,131.48890484375002,131.73032629166667,83.0,63.0
162,131.78302234375002,132.02444379166667,76.0,63.0
163,132.07713984375002,132.36758087500002,79.0,66.0
164,132.37125734375002,132.70213953125,76.0,56.0
165,132.66537484375002,132.97174723958335,79.0,64.0
166,132.95949234375001,133.09919815625,76.0,63.0
167,133.25360984375,134.42272690625,76.0,73.0
168,135.01831484375,135.21439317708334,76.0,90.0
169,135.31243234375,135.42517738541667,79.0,95.0
170,135.60654984375,135.91537321875,79.0,75.0
171,135.90066734375,136.1678240729167,76.0,72.0
172,136.19478484375,136.36757887500002,78.0,62.0
173,136.48890234375,136.62983364583334,79.0,83.0
174,136.78301984375,137.18743140625,81.0,108.0
175,138.54772484375002,138.6604698854167,84.0,87.0
176,138.84184234375002,138.93988151041668,84.0,74.0
177,139.13595984375002,139.24993037500002,84.0,83.0
178,139.43007734375,139.54894983333335,79.0,79.0
179,139.72419484375,139.86144967708336,79.0,77.0
180,140.01831234375,140.12738091666668,81.0,86.0
181,140.31242984375,141.48399788541667,83.0,120.0
182,141.78301734375,142.0808113125,76.0,66.0
183,142.07713484375,142.34551706250002,83.0,85.0
184,142.37125234375,142.49012483333334,81.0,69.0
185,142.66536984375,142.91536971875001,83.0,98.0
186,142.95948734375,143.06855591666667,81.0,64.0
187,143.25360484375,143.52321255208335,81.0,71.0
188,143.54772234375002,143.78546732291667,83.0,74.0
189,143.84183984375002,144.58203555208334,83.0,98.0
190,145.31242734375002,145.55875075,71.0,61.0
191,145.60654484375002,145.7719859375,83.0,75.0
192,145.90066234375,146.00237797916668,81.0,68.0
193,146.19477984375,146.37370132291667,83.0,77.0
194,146.48889734375,146.60041689583335,81.0,69.0
195,146.78301484375,146.89821086458335,79.0,81.0
196,147.07713234375,147.21683815625002,76.0,63.0
197,147.37124984375,148.54036690625,76.0,73.0
198,149.13595484375,149.33203317708333,76.0,90.0
199,149.43007234375,149.54281738541667,79.0,95.0
200,149.72418984375,150.03301321875,79.0,75.0
201,150.01830734375002,150.28546407291668,76.0,72.0
202,150.31242484375002,150.48521887500002,79.0,62.0
203,150.59183646875002,150.73399326041667,81.0,83.0
204,150.90065984375002,151.30507140625002,81.0,108.0
205,152.37124734375,152.58693351041669,83.0,98.0
206,152.66536484375,152.77810988541668,84.0,87.0
207,152.95948234375,153.05752151041668,84.0,74.0
208,153.25359984375,153.367570375,84.0,83.0
209,153.54771734375,153.66658983333335,79.0,79.0
210,153.84183484375,153.97908967708335,81.0,77.0
211,154.13595234375,154.24502091666668,83.0,86.0
212,154.43006984375,155.60163788541666,83.0,120.0
213,156.19477484375003,156.44722569791668,81.0,90.0
214,156.48889234375002,156.5832550416667,79.0,74.0
215,156.78300984375002,157.05261755208335,81.0,98.0
216,157.07712734375002,157.24011745833334,79.0,67.0
217,157.37124484375002,157.56487219791669,81.0,93.0
218,157.66536234375002,157.79771521875,83.0,87.0
219,157.95947984375002,158.56242071875002,81.0,111.0
220,159.72418484375,159.99379255208333,79.0,79.0
221,160.01830234375,160.132272875,83.0,61.0
222,160.31241984375,160.4692825104167,83.0,100.0
223,160.60653734375,160.72173336458334,81.0,75.0
224,160.90065484375,161.0575175104167,81.0,74.0
225,161.19477234375,161.33325266666668,79.0,71.0
226,161.48888984375,161.62982114583335,79.0,87.0
227,161.78300734375,161.89452689583334,76.0,83.0
228,162.07712484375,162.43251682291668,76.0,86.0
229,162.95947734375002,163.10408511458334,76.0,62.0
230,163.25359484375002,163.3589869479167,79.0,104.0
231,163.54771234375002,163.64697700000002,79.0,93.0
232,163.84182984375002,163.93496705208335,79.0,93.0
233,164.13594734375002,164.2413394479167,79.0,85.0
234,164.43006484375002,164.57957457291667,79.0,95.0
235,164.72418234375002,164.84673130208336,76.0,76.0
236,165.01829984375001,165.21070170833335,79.0,95.0
237,166.78300484375,166.91413222916668,78.0,83.0
238,167.07712234375,167.18986738541668,78.0,77.0
239,167.37123984375,167.46805352083334,78.0,86.0
240,167.66535734375,167.76952395833334,78.0,87.0
241,167.95947484375,168.09182771875,78.0,87.0
242,168.25359234375,168.36266091666667,76.0,74.0
243,168.54770984375,169.78913079166668,78.0,100.0
244,170.31241484375002,170.57099314583334,83.0,95.0
245,170.90064984375002,171.21682615625002,88.0,104.0
246,171.48888484375001,171.76216902083334,83.0,98.0
247,172.07711984375,172.2045707604167,86.0,98.0
248,172.37123734375,172.47417846875,88.0,108.0
249,172.66535484375,173.3038349166667,88.0,117.0
250,173.84182484375,174.01461887500002,88.0,76.0
251,174.13594234375,174.25358934375,91.0,83.0
252,174.43005984375,174.62001072916667,88.0,79.0
253,174.72417734375,174.9067752916667,86.0,77.0
254,175.01829484375,175.22907905208334,88.0,79.0
255,175.31241234375003,175.43128483333334,86.0,79.0
256,175.60652984375002,175.72295135416667,83.0,93.0
257,175.90064734375002,176.01216689583336,81.0,86.0
258,176.19476484375002,176.58201955208335,83.0,121.0
259,177.37123484375002,177.85285225,76.0,81.0
260,177.95946984375,178.27687164583335,83.0,79.0
261,178.54770484375,178.90309682291667,81.0,104.0
262,179.13593984375,179.2964789791667,83.0,98.0
263,179.43005734375,179.544027875,88.0,85.0
264,179.72417484375,180.25358634375002,88.0,111.0
265,180.31240984375,180.70089004166667,79.0,90.0
266,180.90064484375,181.20088979166667,83.0,83.0
267,181.19476234375,181.30505640625,88.0,90.0
268,181.48887984375003,181.7278503125,88.0,93.0
269,181.78299734375003,182.00848742708334,83.0,87.0
270,182.07711484375002,182.19966380208334,88.0,93.0
271,182.37123234375002,182.48152640625003,90.0,98.0
272,182.66534984375002,183.91534921875,90.0,117.0
273,184.43005484375,184.68863314583334,83.0,95.0
274,185.01828984375,185.33446615625002,88.0,104.0
275,185.60652484375,185.87980902083333,83.0,98.0
276,186.19475984375,186.32221076041668,86.0,98.0
277,186.48887734375,186.59181846875,88.0,108.0
278,186.78299484375,187.42147491666668,88.0,117.0
279,187.95946484375003,188.13225887500002,88.0,76.0
280,188.25358234375003,188.37122934375,91.0,83.0
281,188.54769984375002,188.7376507291667,88.0,79.0
282,188.84181734375002,189.02441529166668,86.0,77.0
283,189.13593484375002,189.34671905208336,88.0,79.0
284,189.43005234375002,189.54892483333336,86.0,79.0
285,189.72416984375002,189.8405913541667,83.0,93.0
286,190.01828734375002,190.12980689583335,81.0,86.0
287,190.31240484375002,191.33446315625002,83.0,121.0
288,191.48887484375,191.97049225,76.0,81.0
289,192.07710984375,192.39451164583335,83.0,79.0
290,192.66534484375,193.0207368229167,81.0,104.0
291,193.25357984375,193.45088366666667,81.0,76.0
292,193.54769734375,193.65921689583334,83.0,95.0
293,193.84181484375,194.17269703125,83.0,111.0
294,194.43004984375003,194.8822555,76.0,86.0
295,195.01828484375002,195.11754950000002,78.0,98.0
296,195.31240234375002,195.4104415104167,78.0,83.0
297,195.60651984375002,195.71436292708336,78.0,90.0
298,195.90063734375002,196.04034315625,81.0,74.0
299,196.19475484375002,196.28789205208335,79.0,90.0
300,196.48887234375002,196.6163232604167,78.0,87.0
301,196.78298984375002,198.47539095833335,76.0,87.0
302,198.54769484375,198.80627314583336,83.0,95.0
303,199.13592984375,199.45210615625,88.0,104.0
304,199.72416484375,199.99744902083336,83.0,98.0
305,200.31239984375,200.43985076041668,86.0,98.0
306,200.60651734375003,200.70945846875003,88.0,108.0
307,200.90063484375003,201.53911491666668,88.0,117.0
308,202.07710484375002,202.249898875,88.0,76.0
309,202.37122234375002,202.48886934375003,91.0,83.0
310,202.66533984375002,202.85529072916668,88.0,79.0
311,202.95945734375002,203.14205529166668,86.0,77.0
312,203.25357484375002,203.46435905208335,88.0,79.0
313,203.54769234375001,203.66656483333335,86.0,79.0
314,203.84180984375,203.95823135416668,83.0,93.0
315,204.13592734375,204.24744689583335,81.0,86.0
316,204.43004484375,204.81729955208334,83.0,121.0
317,205.60651484375,206.08813225,76.0,81.0
318,206.19474984375,206.51215164583334,83.0,79.0
319,206.78298484375003,207.13837682291668,81.0,104.0
320,207.37121984375003,207.53175897916668,83.0,98.0
321,207.66533734375002,207.77930787500003,88.0,85.0
322,207.95945484375002,208.48886634375,88.0,111.0
323,208.54768984375002,208.93617004166668,79.0,90.0
324,209.13592484375002,209.43616979166669,83.0,83.0
325,209.43004234375002,209.54033640625002,88.0,90.0
326,209.72415984375002,209.96313031250003,88.0,93.0
327,210.01827734375001,210.24376742708336,83.0,87.0
328,210.31239484375,210.43494380208335,88.0,93.0
329,210.60651234375,210.71680640625002,90.0,98.0
330,210.90062984375,212.15062921875003,90.0,117.0
331,212.66533484375,212.92391314583335,83.0,95.0
332,213.25356984375003,213.56974615625,88.0,104.0
333,213.84180484375003,214.11508902083335,83.0,98.0
334,214.43003984375002,214.55749076041667,86.0,98.0
335,214.72415734375002,214.82709846875002,88.0,108.0
336,215.01827484375002,215.65675491666667,88.0,117.0
337,216.19474484375002,216.367538875,88.0,76.0
338,216.48886234375001,216.60650934375002,91.0,83.0
339,216.78297984375,216.97293072916668,88.0,79.0
340,217.07709734375,217.25969529166667,86.0,77.0
341,217.37121484375,217.58199905208335,88.0,79.0
342,217.66533234375,217.78420483333335,86.0,79.0
343,217.95944984375,218.07587135416668,83.0,93.0
344,218.25356734375,218.36508689583334,81.0,86.0
345,218.54768484375,219.56974315625,83.0,121.0
346,219.72415484375003,220.20577225000002,76.0,81.0
347,220.31238984375003,220.62979164583334,83.0,79.0
348,220.90062484375002,221.25601682291668,81.0,104.0
349,221.48885984375002,221.6861636666667,81.0,76.0
350,221.78297734375002,221.89449689583336,83.0,95.0
351,222.07709484375002,222.40797703125003,83.0,111.0
352,222.66532984375002,223.1175355,76.0,86.0
353,223.25356484375,223.3528295,78.0,98.0
354,223.54768234375,223.64572151041668,78.0,83.0
355,223.84179984375,223.94964292708335,78.0,90.0
356,224.13591734375,224.27562315625002,81.0,74.0
357,224.43003484375,224.52317205208334,79.0,90.0
358,224.72415234375,224.85160326041668,78.0,87.0
359,225.01826984375,226.71067095833334,76.0,87.0
360,228.25356234375002,228.55135631250002,76.0,66.0
361,228.54767984375002,228.8160620625,83.0,85.0
362,228.84179734375002,228.96066983333336,81.0,69.0
363,229.13591484375002,229.38591471875003,83.0,98.0
364,229.43003234375,229.53910091666668,81.0,64.0
365,229.72414984375,229.99375755208334,81.0,71.0
366,230.01826734375,230.2560123229167,83.0,74.0
367,230.31238484375,231.05258055208336,83.0,98.0
368,231.78297234375,232.02929575000002,71.0,61.0
369,232.07708984375003,232.24253093750002,83.0,75.0
370,232.37120734375003,232.4729229791667,81.0,68.0
371,232.66532484375003,232.8442463229167,83.0,77.0
372,232.95944234375003,233.07096189583336,81.0,69.0
373,233.25355984375003,233.36875586458336,79.0,81.0
374,233.54767734375002,233.68738315625,76.0,63.0
375,233.84179484375002,235.01091190625002,76.0,73.0
376,235.60649984375002,235.80257817708335,76.0,90.0
377,235.90061734375,236.01336238541668,79.0,95.0
378,236.19473484375,236.50355821875002,79.0,75.0
379,236.48885234375,236.7560090729167,76.0,72.0
380,236.78296984375,236.95576387500003,79.0,62.0
381,237.06238146875,237.20453826041668,81.0,83.0
382,237.37120484375,237.77561640625,81.0,108.0
383,239.13590984375003,239.24865488541667,78.0,65.0
384,239.43002734375003,239.5280665104167,78.0,64.0
385,239.72414484375003,239.82831145833336,78.0,69.0
386,240.01826234375002,240.17389952083334,81.0,74.0
387,240.31237984375002,240.42635037500003,79.0,108.0
388,240.61017381250002,240.89448739583335,78.0,74.0
389,240.90061484375002,242.7645845,76.0,76.0
