,start,end,pitch,velocity
0,3.0530723458333338,3.3729047187500005,80.0,114.0
1,3.3882678458333335,3.5530723000000006,78.0,97.0
2,3.7234633458333337,4.636871083333334,78.0,111.0
3,5.734636345833334,6.054468718750001,80.0,114.0
4,6.069831845833334,6.234636300000001,78.0,97.0
5,6.405027345833334,7.318435083333334,78.0,111.0
6,8.416200345833333,8.715083000000002,87.0,111.0
7,8.751395845833335,8.934356722916668,85.0,108.0
8,9.086591345833334,9.329608083333335,83.0,111.0
9,9.756982345833334,9.907820320833334,78.0,105.0
10,9.924580095833335,10.03491528125,80.0,105.0
11,10.092177845833335,10.244412468750001,78.0,111.0
12,10.427373345833335,11.912010081250001,78.0,117.0
13,23.835193345833336,24.560053614583335,66.0,117.0
14,24.840779845833335,24.955304975000004,68.0,117.0
15,25.008377595833338,25.113126189583337,66.0,105.0
16,25.175975345833336,25.38826582916667,71.0,111.0
17,25.511170845833337,25.684355187500003,73.0,111.0
18,25.846366345833335,26.28910373541667,75.0,117.0
19,26.516757345833337,26.77793050625,78.0,108.0
20,26.851952845833335,27.040500314583337,80.0,105.0
21,27.187148345833336,27.435751675000002,80.0,105.0
22,27.522343845833337,27.779327062500002,78.0,100.0
23,27.857539345833338,28.36312589166667,75.0,94.0
24,28.527930345833337,28.797483393750003,73.0,102.0
25,28.863125845833338,29.103349287500002,71.0,117.0
26,29.198321345833335,29.46228780208334,73.0,102.0
27,29.533516845833336,29.73742744166667,75.0,100.0
28,29.868712345833337,30.083796125000003,75.0,111.0
29,30.20390784583334,30.434354752083337,75.0,111.0
30,30.539103345833336,30.874298845833337,73.0,108.0
31,30.874298845833337,30.976254143750005,75.0,120.0
32,31.041896595833336,31.129885414583338,73.0,105.0
33,31.20949434583334,31.458097675000005,71.0,111.0
34,31.544689845833336,31.77374010416667,68.0,111.0
35,31.879885345833337,33.73293544375001,66.0,108.0
36,34.548213629166675,35.37738071041667,68.0,120.0
37,35.548214129166674,35.80515870208334,71.0,111.0
38,35.881547629166676,36.11071441041667,71.0,108.0
39,36.21488112916667,36.4454368,71.0,111.0
40,36.54821462916667,36.802381422916675,68.0,102.0
41,36.881548129166674,37.130159364583335,66.0,108.0
42,37.21488162916667,37.48710398750001,71.0,105.0
43,37.54821512916667,37.778770800000004,73.0,105.0
44,37.88154862916667,38.15099320833334,75.0,105.0
45,38.214882129166675,38.45516002708334,80.0,114.0
46,38.54821562916667,38.98571584791667,78.0,108.0
47,39.214882629166674,39.475993870833335,71.0,105.0
48,39.548216129166676,39.796827364583336,73.0,108.0
49,39.88154962916667,40.81627231875001,75.0,100.0
50,40.88155012916667,41.138494702083335,80.0,108.0
51,41.21488362916667,41.4871059875,78.0,100.0
52,41.54821712916667,41.65655051666667,75.0,111.0
53,41.71488387916667,41.81071726041667,78.0,111.0
54,41.88155062916667,42.163495214583335,75.0,114.0
55,42.21488412916667,42.40932867083334,73.0,111.0
56,42.54821762916667,44.26627404375,71.0,114.0
57,44.54821862916667,44.82460765625001,71.0,108.0
58,44.881989045833336,45.13620241458334,70.0,111.0
59,45.21906754583334,45.480303383333336,68.0,117.0
60,45.55614604583334,45.813168402083335,68.0,117.0
61,45.893224545833334,46.147437914583335,75.0,120.0
62,46.23030304583334,46.51120179583334,73.0,114.0
63,46.567381545833335,47.080021764583336,75.0,108.0
64,47.241538545833336,47.51401033333334,75.0,114.0
65,47.57861704583334,47.83563940208334,78.0,111.0
66,47.91569554583334,48.10108872083334,80.0,108.0
67,48.252774045833334,48.358111077083336,80.0,94.0
68,48.421313295833336,48.51400988333334,80.0,94.0
69,48.58985254583334,48.71625698333334,82.0,108.0
70,48.75839179583334,48.84547040833334,80.0,114.0
71,48.926931045833335,49.18816688333334,78.0,117.0
72,49.26400954583334,49.737323939583334,75.0,120.0
73,49.93816654583334,50.05193053958334,75.0,117.0
74,50.106705795833335,50.51962695833333,78.0,111.0
75,50.612323545833334,50.83423355833334,80.0,102.0
76,50.94940204583334,51.165694083333335,80.0,105.0
77,51.286480545833335,51.38198612083334,80.0,111.0
78,51.45501979583334,51.79209829583334,80.0,102.0
79,51.79209829583334,51.908671277083336,80.0,105.0
80,51.960637545833336,52.14743521458334,83.0,117.0
81,52.29771604583334,52.425524977083334,83.0,117.0
82,52.466255295833335,52.568783339583334,80.0,108.0
83,52.63479454583334,52.80333379583334,78.0,114.0
84,52.80333379583334,52.94659215833334,80.0,97.0
85,52.971873045833334,53.07440108958334,78.0,111.0
86,53.140412295833336,53.47749079583333,75.0,108.0
87,53.646030045833335,54.68535542083334,78.0,111.0
88,56.00349255416667,56.155727177083335,83.0,111.0
89,56.33868805416667,56.49511262083334,83.0,111.0
90,56.67388355416667,56.90712375625,83.0,111.0
91,57.00907905416667,57.2213695375,80.0,117.0
92,57.34427455416667,57.57891140416667,83.0,117.0
93,57.67947005416667,57.778632056250004,85.0,102.0
94,57.84706780416667,57.933659975000005,83.0,114.0
95,58.01466555416667,58.33449792708333,80.0,114.0
96,58.68505655416667,58.921090052083336,83.0,114.0
97,59.02025205416667,59.13757047916667,85.0,105.0
98,59.18784980416667,59.285615158333336,83.0,114.0
99,59.355447554166666,59.60544753125,80.0,117.0
100,59.69064305416667,59.921089960416666,78.0,111.0
101,60.02583855416667,60.3219279125,78.0,108.0
102,60.361034054166666,61.03421835,75.0,114.0
103,61.36662055416667,61.573324445833336,83.0,114.0
104,61.70181605416667,61.79120152083334,80.0,102.0
105,61.86941380416667,61.983938933333334,80.0,108.0
106,62.03701155416667,62.256285277083336,78.0,105.0
107,62.37220705416667,62.57332435416667,75.0,105.0
108,62.70740255416667,62.93505616458334,73.0,105.0
109,63.042748554166664,63.286856416666666,71.0,114.0
110,63.37944905416666,63.616542322916665,78.0,108.0
111,63.71614955416667,64.37131261041667,75.0,108.0
112,64.38955055416666,65.75464247291667,73.0,111.0
113,65.73638405416668,66.05239514791667,75.0,111.0
114,66.07346255416667,66.35014782291667,73.0,100.0
115,66.41054105416667,66.58188929166667,71.0,105.0
116,66.74761955416668,67.07933401250001,71.0,108.0
117,67.08498372916668,68.15842989583334,68.0,105.0
118,68.44091572916668,68.63724338333334,80.0,100.0
119,68.77989872916667,69.06803427916667,80.0,108.0
120,69.11888172916667,69.31238452500001,83.0,111.0
121,69.45786472916667,70.85334474583334,78.0,96.0
122,71.49176272916668,71.79402257083333,80.0,111.0
123,71.83074572916668,72.07650840416667,78.0,111.0
124,72.16972872916668,73.00447436666667,75.0,111.0
125,73.18667772916668,73.42396582916668,78.0,100.0
126,73.52566072916667,73.76859854583334,73.0,102.0
127,73.8648944125,74.14788650833334,71.0,111.0
128,74.2061914125,74.4450993125,68.0,114.0
129,74.5474884125,74.79777287916667,66.0,111.0
130,74.88878541250001,77.57365514583334,71.0,105.0
131,88.44327595833334,89.16947818541666,66.0,117.0
132,89.45020441666666,89.56472954583333,68.0,117.0
133,89.61780216666666,89.72255076041667,66.0,105.0
134,89.78539991666666,89.9976904,71.0,111.0
135,90.12059541666666,90.29377975833333,73.0,111.0
136,90.45579091666667,90.89852830625,75.0,117.0
137,91.12618191666667,91.38735507708333,78.0,108.0
138,91.46137741666666,91.64992488541667,80.0,105.0
139,91.79657291666666,92.04517624583333,80.0,105.0
140,92.13176841666667,92.38875163333333,78.0,100.0
141,92.46696391666667,92.9725504625,75.0,94.0
142,93.13735491666667,93.40690796458334,73.0,102.0
143,93.47255041666666,93.71277385833334,71.0,117.0
144,93.80774591666666,94.07171237291666,73.0,102.0
145,94.14294141666667,94.3468520125,75.0,100.0
146,94.47813691666667,94.69322069583333,75.0,111.0
147,94.81333241666667,95.04377932291666,75.0,111.0
148,95.14852791666667,95.48372341666666,73.0,108.0
149,95.48372341666666,95.58567871458334,75.0,120.0
150,95.65132116666666,95.73930998541667,73.0,105.0
151,95.81891891666666,96.06752224583333,71.0,111.0
152,96.15411441666667,96.383164675,68.0,111.0
153,96.48930991666667,98.35104158958333,66.0,108.0
154,99.17087391666666,100.00467272291667,68.0,120.0
155,100.17646041666667,100.43484028125,71.0,111.0
156,100.51165591666667,100.74210282291666,71.0,108.0
157,100.84685141666667,101.07869497083334,71.0,111.0
158,101.18204691666666,101.43763348541667,68.0,102.0
159,101.51724241666668,101.76724239375,66.0,108.0
160,101.85243791666667,102.12618090833334,71.0,105.0
161,102.1878295625,102.420975525,73.0,105.0
162,102.5249080625,102.79737985,75.0,105.0
163,102.8619865625,103.10496398125,80.0,114.0
164,103.1990650625,103.64148059375,78.0,108.0
165,103.8732220625,104.1372668875,71.0,105.0
166,104.2103005625,104.46170494375,73.0,108.0
167,104.5473790625,105.49260335625,75.0,100.0
168,105.5586145625,105.81844590625,80.0,108.0
169,105.8956930625,106.1709738375,78.0,100.0
170,106.2327715625,106.342322075,75.0,111.0
171,106.4013108125,106.49822088124999,78.0,111.0
172,106.5698500625,106.85496229374999,75.0,114.0
173,106.9069285625,107.1035576875,73.0,111.0
174,107.2440070625,108.98136583125,71.0,114.0
175,109.2664780625,109.54597231875,71.0,108.0
176,109.6035565625,109.85776993125,70.0,111.0
177,109.9406350625,110.2018709,68.0,117.0
178,110.27791988333333,110.53639442083333,68.0,117.0
179,110.61690288333332,110.87255256249999,75.0,120.0
180,110.95588588333332,111.23837171666666,73.0,114.0
181,111.29486888333332,111.81040552916666,75.0,108.0
182,111.97283488333333,112.24684614166667,75.0,114.0
183,112.31181788333333,112.57029242083333,78.0,111.0
184,112.65080088333333,112.83724153333333,80.0,108.0
185,112.98978388333333,113.09571607083333,80.0,94.0
186,113.15927538333332,113.25249570833333,80.0,94.0
187,113.32876688333333,113.45588550833332,82.0,108.0
188,113.49825838333332,113.58582899166666,80.0,114.0
189,113.66774988333333,113.93046170833333,78.0,117.0
190,114.00673288333333,114.48272151249999,75.0,120.0
191,114.68469888333333,114.79910564583332,75.0,117.0
192,114.85419038333333,115.26944455833333,78.0,111.0
193,115.36266488333332,115.58582869166666,80.0,102.0
194,115.70164788333332,115.919161975,80.0,105.0
195,116.04063088333332,116.13667606666667,80.0,111.0
196,116.21012238333333,116.54910538333333,80.0,102.0
197,116.54910538333333,116.66633700416666,80.0,105.0
198,116.71859688333333,116.90644996249999,83.0,117.0
199,117.05757988333333,117.18611093749999,83.0,117.0
200,117.22707138333332,117.3301787125,80.0,108.0
201,117.39656288333333,117.56605438333332,78.0,114.0
202,117.56605438333332,117.710096675,80.0,97.0
203,117.7354630625,117.83833785624999,78.0,111.0
204,117.9045723125,118.2427908125,75.0,108.0
205,118.41157257083334,119.44509202916667,78.0,111.0
206,120.75794107083334,120.91017569375,83.0,111.0
207,121.09313657083334,121.24956113750001,83.0,111.0
208,121.42833207083333,121.66157227291667,83.0,111.0
209,121.76369061250001,121.97693426250001,80.0,117.0
210,122.1003911125,122.3360814625,83.0,117.0
211,122.43709161250001,122.53669884375002,85.0,102.0
212,122.60544186250002,122.69242282500001,83.0,114.0
213,122.7737921125,123.09506050625001,80.0,114.0
214,123.44719311250002,123.68428638125,83.0,114.0
215,123.78409944583333,123.90260962083335,85.0,105.0
216,123.95339969583334,124.052158175,83.0,114.0
217,124.12269994583333,124.37523948541667,80.0,117.0
218,124.46130044583334,124.69408828958333,78.0,111.0
219,124.79990094583334,125.09899805416667,78.0,108.0
220,125.13850144583334,125.81852411666667,75.0,114.0
221,126.15430294583334,126.3631065875,83.0,114.0
222,126.49290344583333,126.5831969125,80.0,102.0
223,126.66220369583334,126.77789220000001,80.0,108.0
224,126.83150394583333,127.05300510625001,78.0,105.0
225,127.17010444583335,127.37326474583334,75.0,105.0
226,127.50870494583334,127.73867111875,73.0,105.0
227,127.84730544583334,128.09279080833335,71.0,114.0
228,128.18590594583333,128.42433713125,78.0,108.0
229,128.52450644583334,129.18336977708336,75.0,108.0
230,129.2017521291667,130.57760048125002,73.0,111.0
231,130.55921812916668,130.87737422291667,75.0,111.0
232,130.8985846291667,131.17714796458336,73.0,100.0
233,131.23795112916667,131.41046243333335,71.0,105.0
234,131.57731762916669,131.91122726041667,71.0,108.0
235,131.91690907708335,132.99645424375,68.0,105.0
236,133.28054507708333,133.47798820625,80.0,100.0
237,133.62145407708334,133.91122672708335,80.0,108.0
238,133.96236307708332,134.15696529791666,83.0,111.0
239,134.30327207708334,135.70668079375,78.0,96.0
240,136.34872607708334,136.65274219375,80.0,111.0
241,136.68984267708333,136.93813052708333,78.0,111.0
242,137.03230867708334,137.87809819583333,75.0,111.0
243,138.06314646041665,138.30480326041666,78.0,100.0
244,138.40837046041665,138.65578099375,73.0,102.0
245,138.75359446041665,139.03984269375,71.0,111.0
246,139.09881846041665,139.34047526041667,68.0,114.0
247,139.44404246041665,139.6972067270833,66.0,111.0
248,139.78926646041666,142.50006730624997,71.0,105.0
249,163.24807882291665,163.52446784999998,71.0,108.0
250,163.58125882291662,163.83125866249998,70.0,111.0
251,163.91275032291662,164.16965623541662,68.0,117.0
252,164.24424182291665,164.49700409166664,68.0,117.0
253,164.57573332291665,164.82573316249997,75.0,120.0
254,164.90722482291665,165.1834677395833,73.0,114.0
255,165.23871632291664,165.7428596458333,75.0,108.0
256,165.90169932291664,166.1696549520833,75.0,114.0
257,166.23319082291664,166.48595309166663,78.0,111.0
258,166.56468232291664,166.74700264791664,80.0,108.0
259,166.89617382291664,166.99976491666663,80.0,94.0
260,167.06191957291662,167.15307973541664,80.0,94.0
261,167.22766532291664,167.35197463541664,82.0,108.0
262,167.39341107291665,167.4790463770833,80.0,114.0
263,167.55915682291663,167.81606273541664,78.0,117.0
264,167.89064832291663,168.35611763749998,75.0,120.0
265,168.55363132291663,168.66550970416662,75.0,117.0
266,168.71937707291664,169.12545416041664,78.0,111.0
267,169.21661432291663,169.4348462270833,80.0,102.0
268,169.54810582291663,169.76081286874998,80.0,105.0
269,169.87959732291662,169.9735199145833,80.0,111.0
270,170.04534307291664,170.37683457291664,80.0,102.0
271,170.37683457291664,170.4914753833333,80.0,105.0
272,170.54258032291665,170.72628186249997,83.0,117.0
273,170.87407182291665,170.99976234999997,83.0,117.0
274,171.03981757291663,171.14064623749996,80.0,108.0
275,171.20556332291665,171.37130907291663,78.0,114.0
276,171.37130907291663,171.51219296041663,80.0,97.0
277,171.53705482291664,171.63788348749998,78.0,111.0
278,171.70280057291663,172.03429207291663,75.0,108.0
279,172.20003782291664,173.2221366145833,78.0,111.0
280,174.52047832291663,174.67103071249997,83.0,111.0
281,174.85196982291663,175.00666585624998,83.0,111.0
282,175.18346132291663,175.4141241583333,83.0,111.0
283,175.51495282291663,175.72489743958332,80.0,117.0
284,175.84644432291662,176.07848837291664,83.0,117.0
285,176.17793582291662,176.2760020583333,85.0,102.0
286,176.34368157291664,176.4293168770833,83.0,114.0
287,176.50942732291662,176.82572546249997,80.0,114.0
288,177.17241032291665,177.40583558749998,83.0,114.0
289,177.50390182291665,177.61992384791662,85.0,105.0
290,177.66964757291663,177.76633259374998,83.0,114.0
291,177.83539332291664,178.0826307333333,80.0,117.0
292,178.16688482291664,178.39478522916664,78.0,111.0
293,178.49837632291664,178.7911938145833,78.0,108.0
294,178.82986782291664,179.4956132520833,75.0,114.0
295,179.82434232291664,180.02876208124997,83.0,114.0
296,180.15583382291663,180.24423155624999,80.0,102.0
297,180.32157957291665,180.43483916874996,80.0,108.0
298,180.48732532291663,180.70417601249997,78.0,105.0
299,180.81881682291663,181.01771172291663,75.0,105.0
300,181.15030832291663,181.37544629999996,73.0,105.0
301,181.48179982291663,181.72213116041664,71.0,114.0
302,181.81329132291663,182.04671658749996,78.0,108.0
303,182.14478282291662,182.7898100333333,75.0,108.0
304,182.80776582291662,184.15228951249998,73.0,111.0
305,184.1341330895833,184.4483788708333,75.0,111.0
306,184.46932858958328,184.74446822916664,73.0,100.0
307,184.8045240895833,184.97491513541664,71.0,105.0
308,185.1397195895833,185.46932849791662,71.0,108.0
309,185.4749150895833,186.53636750624997,68.0,105.0
310,186.8156970895833,187.00983114999997,80.0,100.0
311,187.1508925895833,187.4358087645833,80.0,108.0
312,187.4860880895833,187.67742885416664,83.0,111.0
313,187.8212835895833,189.20117173124996,78.0,96.0
314,189.8324565895833,190.13133924374998,80.0,111.0
315,190.1680466208333,190.41380929583332,78.0,111.0
316,190.50702962083332,191.3417752583333,75.0,111.0
317,191.5239786208333,191.7612667208333,78.0,100.0
318,191.86296162083332,192.10589943749997,73.0,102.0
319,192.2019446208333,192.48301802499998,71.0,111.0
320,192.54092762083332,192.77821572083332,68.0,114.0
321,192.8799106208333,193.12849815416664,66.0,111.0
322,193.2188936208333,195.88555988749997,71.0,105.0
