,start,end,pitch,velocity
0,2.382681345833334,3.0083796125,59.0,92.0
1,2.7178768458333336,3.055865641666667,66.0,64.0
2,2.7178768458333336,3.0586589375,71.0,82.0
3,2.7178768458333336,3.076815360416667,75.0,80.0
4,3.0530723458333338,3.5069829187500003,54.0,89.0
5,3.3882678458333335,3.5530723000000006,66.0,92.0
6,3.3882678458333335,3.558658891666667,71.0,89.0
7,3.3882678458333335,3.5614521875000005,75.0,94.0
8,3.7234633458333337,4.356144852083334,59.0,51.0
9,4.0586588458333335,4.42039065625,71.0,94.0
10,4.0586588458333335,4.4245806000000005,75.0,100.0
11,4.0586588458333335,4.451116910416667,66.0,97.0
12,4.393854345833334,4.812848720833334,54.0,84.0
13,4.729049845833334,4.885474412500001,66.0,84.0
14,4.729049845833334,4.888267708333334,71.0,97.0
15,4.729049845833334,4.893854300000001,75.0,89.0
16,5.064245345833334,5.716479922916667,59.0,71.0
17,5.399440845833334,5.7653626000000004,71.0,84.0
18,5.399440845833334,5.777932431250001,75.0,84.0
19,5.399440845833334,5.78631231875,66.0,80.0
20,5.734636345833334,6.189943566666668,54.0,76.0
21,6.069831845833334,6.189943566666668,71.0,97.0
22,6.069831845833334,6.1927368625,66.0,87.0
23,6.069831845833334,6.198323454166667,75.0,92.0
24,6.405027345833334,7.096368064583334,59.0,55.0
25,6.740222845833334,7.2555859270833345,75.0,89.0
26,6.740222845833334,7.263965814583334,66.0,78.0
27,6.740222845833334,7.276535645833334,71.0,87.0
28,7.075418345833334,7.6117311458333345,54.0,97.0
29,7.410613845833335,7.646647343750001,66.0,97.0
30,7.410613845833335,7.6620104708333345,71.0,94.0
31,7.410613845833335,7.6773735979166675,75.0,87.0
32,7.745809345833334,8.167597016666667,56.0,97.0
33,8.081004845833334,8.449719895833335,71.0,92.0
34,8.081004845833334,8.497205925000001,75.0,89.0
35,8.081004845833334,8.516758995833335,68.0,94.0
36,8.751395845833335,9.047485204166668,71.0,94.0
37,8.751395845833335,9.07122821875,68.0,92.0
38,8.751395845833335,9.099161177083335,75.0,89.0
39,8.416200345833333,9.101954472916669,63.0,80.0
40,9.086591345833334,9.589384595833334,56.0,97.0
41,9.421786845833335,9.858937643750002,71.0,80.0
42,9.421786845833335,9.877094066666668,68.0,78.0
43,9.421786845833335,9.906423672916668,75.0,89.0
44,10.092177845833335,10.275138722916667,71.0,100.0
45,10.092177845833335,10.280725314583334,68.0,94.0
46,10.092177845833335,10.296088441666669,75.0,87.0
47,9.756982345833334,10.301675033333334,63.0,76.0
48,10.427373345833335,10.565641489583335,66.0,84.0
49,10.427373345833335,10.568434785416668,70.0,82.0
50,10.427373345833335,10.57960796875,54.0,97.0
51,10.427373345833335,10.57960796875,73.0,92.0
52,10.762568845833334,10.872904031250002,66.0,66.0
53,10.762568845833334,10.872904031250002,70.0,80.0
54,10.762568845833334,10.882680566666668,73.0,84.0
55,10.762568845833334,10.900836989583334,54.0,92.0
56,11.097764345833335,11.208099531250001,66.0,87.0
57,11.097764345833335,11.212289475000002,70.0,94.0
58,11.097764345833335,11.2206693625,73.0,92.0
59,11.097764345833335,11.229049250000001,54.0,97.0
60,11.432959845833334,11.547484975000001,66.0,87.0
61,11.432959845833334,11.558658158333335,70.0,92.0
62,11.432959845833334,11.568434693750001,54.0,100.0
63,11.432959845833334,11.571227989583335,73.0,94.0
64,11.768155345833335,11.910613433333335,66.0,73.0
65,11.768155345833335,11.910613433333335,70.0,82.0
66,11.768155345833335,11.927373208333334,73.0,84.0
67,11.768155345833335,11.945529631250002,54.0,92.0
68,12.103350845833335,12.226255862500002,66.0,66.0
69,12.103350845833335,12.231842454166667,70.0,82.0
70,12.103350845833335,12.241618989583335,54.0,89.0
71,12.103350845833335,12.241618989583335,73.0,82.0
72,12.438546345833334,12.578211137500002,70.0,92.0
73,12.438546345833334,12.582401081250001,66.0,73.0
74,12.438546345833334,12.587987672916668,73.0,92.0
75,12.438546345833334,12.603350800000001,54.0,102.0
76,12.773741845833335,12.941339595833336,54.0,97.0
77,12.773741845833335,13.076814443750001,70.0,89.0
78,12.773741845833335,13.087987627083335,73.0,94.0
79,12.773741845833335,13.103350754166668,66.0,76.0
80,13.108937345833334,13.713685893750002,59.0,100.0
81,13.444132845833336,13.789104881250001,71.0,94.0
82,13.444132845833336,13.800278064583335,75.0,92.0
83,13.444132845833336,13.803071360416668,66.0,92.0
84,13.779328345833335,14.159216579166669,54.0,100.0
85,14.114523845833334,14.231842270833335,71.0,102.0
86,14.114523845833334,14.240222158333335,66.0,87.0
87,14.114523845833334,14.243015454166668,75.0,92.0
88,14.449719345833335,14.949719300000002,59.0,80.0
89,14.784914845833335,15.171786318750001,71.0,92.0
90,14.784914845833335,15.171786318750001,75.0,82.0
91,14.784914845833335,15.195529333333335,66.0,87.0
92,15.455305845833335,15.607540468750003,66.0,94.0
93,15.455305845833335,15.607540468750003,71.0,105.0
94,15.120110345833336,15.614523708333335,54.0,100.0
95,15.455305845833335,15.632680131250002,75.0,97.0
96,16.125696845833335,16.329607441666667,66.0,84.0
97,16.125696845833335,16.329607441666667,71.0,89.0
98,16.125696845833335,16.353350456250002,75.0,92.0
99,15.790501345833334,16.398043189583337,59.0,60.0
100,16.460892345833336,17.01675821666667,54.0,94.0
101,16.796087845833334,17.026534752083336,71.0,100.0
102,16.796087845833334,17.047484470833336,66.0,92.0
103,16.796087845833334,17.053071062500003,75.0,87.0
104,17.131283345833335,17.754188316666667,59.0,94.0
105,17.466478845833336,17.843573783333337,66.0,84.0
106,17.466478845833336,17.843573783333337,71.0,97.0
107,17.466478845833336,17.937149193750002,75.0,71.0
108,17.801674345833334,18.236031847916667,54.0,97.0
109,18.136869845833335,18.28631117291667,71.0,108.0
110,18.136869845833335,18.296087708333335,66.0,97.0
111,18.136869845833335,18.3100541875,75.0,92.0
112,18.472065345833336,19.043294343750002,59.0,80.0
113,18.807260845833337,19.24999823541667,75.0,94.0
114,18.807260845833337,19.265361362500002,71.0,97.0
115,18.807260845833337,19.268154658333337,66.0,94.0
116,19.142456345833335,19.61312669375,54.0,102.0
117,19.477651845833336,19.618713285416668,71.0,117.0
118,19.477651845833336,19.624299877083335,66.0,105.0
119,19.477651845833336,19.6508361875,75.0,100.0
120,19.812847345833337,20.41480259791667,54.0,97.0
121,20.148042845833334,20.53491431875,66.0,87.0
122,20.148042845833334,20.537707614583336,70.0,100.0
123,20.148042845833334,20.55307074166667,73.0,97.0
124,20.483238345833335,20.986031595833335,61.0,69.0
125,20.818433845833336,21.015361202083337,70.0,108.0
126,20.818433845833336,21.033517625,73.0,97.0
127,20.818433845833336,21.036310920833337,66.0,97.0
128,21.153629345833338,21.237428220833337,59.0,105.0
129,21.153629345833338,21.237428220833337,71.0,108.0
130,21.321227095833336,21.423182393750004,59.0,94.0
131,21.321227095833336,21.45670194375,71.0,102.0
132,21.488824845833335,21.61731645416667,58.0,111.0
133,21.488824845833335,21.724858343750004,70.0,100.0
134,21.824020345833336,22.02234435,68.0,100.0
135,21.824020345833336,22.051673956250003,56.0,108.0
136,22.159215845833337,22.386869456250004,54.0,100.0
137,22.159215845833337,22.386869456250004,66.0,108.0
138,22.494411345833335,22.568433685416668,59.0,100.0
139,22.494411345833335,22.578210220833334,71.0,111.0
140,22.662009095833337,22.751394562500003,59.0,97.0
141,22.662009095833337,22.75279121041667,71.0,100.0
142,22.829606845833336,22.905025833333337,58.0,100.0
143,22.829606845833336,22.90781912916667,70.0,114.0
144,22.997204595833335,23.08379676666667,58.0,92.0
145,22.997204595833335,23.08379676666667,70.0,102.0
146,23.164802345833337,23.379886125000002,56.0,108.0
147,23.164802345833337,23.396645900000003,68.0,108.0
148,23.499997845833335,23.784914020833337,66.0,111.0
149,23.499997845833335,23.80865703541667,54.0,97.0
150,23.835193345833336,24.431562006250005,59.0,102.0
151,24.170388845833337,24.505584345833338,66.0,92.0
152,24.170388845833337,24.505584345833338,71.0,100.0
153,24.170388845833337,24.536310600000004,75.0,97.0
154,24.840779845833335,24.95111503125,71.0,94.0
155,24.840779845833335,24.963684862500003,75.0,92.0
156,24.840779845833335,24.96927145416667,66.0,87.0
157,24.505584345833338,24.979047989583336,54.0,97.0
158,25.175975345833336,25.74441104791667,59.0,82.0
159,25.511170845833337,25.846366345833335,75.0,82.0
160,25.511170845833337,25.851952937500002,71.0,92.0
161,25.511170845833337,25.879885895833336,66.0,78.0
162,25.846366345833335,26.340779708333336,54.0,100.0
163,26.181561845833336,26.35195289166667,71.0,102.0
164,26.181561845833336,26.361729427083336,66.0,92.0
165,26.181561845833336,26.379885850000004,75.0,102.0
166,26.516757345833337,27.134075725000002,59.0,82.0
167,26.851952845833335,27.16899192291667,75.0,102.0
168,26.851952845833335,27.171785218750003,71.0,102.0
169,26.851952845833335,27.18994164166667,66.0,97.0
170,27.522343845833337,27.64664551041667,71.0,102.0
171,27.187148345833336,27.648042158333336,54.0,100.0
172,27.522343845833337,27.666198581250004,66.0,94.0
173,27.522343845833337,27.673181820833335,75.0,97.0
174,27.857539345833338,28.432958287500004,59.0,92.0
175,28.192734845833336,28.582399614583338,75.0,92.0
176,28.192734845833336,28.58519291041667,71.0,102.0
177,28.192734845833336,28.590779502083336,66.0,94.0
178,28.527930345833337,28.931561593750004,54.0,102.0
179,28.863125845833338,28.977650975000003,71.0,102.0
180,28.863125845833338,28.99161745416667,66.0,94.0
181,28.863125845833338,29.009773877083337,75.0,94.0
182,29.198321345833335,29.776533583333336,61.0,94.0
183,29.533516845833336,29.839382739583336,76.0,89.0
184,29.533516845833336,29.84217603541667,73.0,87.0
185,29.533516845833336,29.857539162500004,68.0,102.0
186,29.868712345833337,30.279326833333336,56.0,100.0
187,30.20390784583334,30.342175989583335,76.0,97.0
188,30.20390784583334,30.35334917291667,73.0,100.0
189,30.20390784583334,30.368712300000002,68.0,100.0
190,30.539103345833336,31.194131218750005,61.0,82.0
191,30.874298845833337,31.293293220833338,76.0,100.0
192,30.874298845833337,31.303069756250004,73.0,97.0
193,30.874298845833337,31.314242939583337,68.0,102.0
194,31.544689845833336,31.70670100416667,73.0,100.0
195,31.20949434583334,31.717874187500005,56.0,97.0
196,31.544689845833336,31.754187033333338,68.0,92.0
197,31.544689845833336,31.775136752083338,76.0,94.0
198,31.879885345833337,32.3787681,54.0,97.0
199,32.21487912916667,32.610712660416674,70.0,111.0
200,32.21487912916667,32.61626821875001,73.0,97.0
201,32.21487912916667,32.621823777083335,66.0,100.0
202,32.88154612916667,33.01904619791667,70.0,102.0
203,32.88154612916667,33.02737953541667,66.0,92.0
204,32.88154612916667,33.03710176250001,73.0,97.0
205,32.54821262916667,33.04821287916667,61.0,73.0
206,33.214879629166674,33.67321319166667,73.0,66.0
207,33.214879629166674,33.68849097708334,70.0,78.0
208,33.214879629166674,33.71349098958334,66.0,53.0
209,33.88154662916667,34.40238022291667,61.0,102.0
210,33.214879629166674,34.45099135833334,54.0,100.0
211,34.21488012916667,34.46349136458334,66.0,84.0
212,34.21488012916667,34.469046922916675,70.0,105.0
213,34.21488012916667,34.469046922916675,73.0,97.0
214,34.21488012916667,34.478769150000005,78.0,84.0
215,34.548213629166675,35.06349166458334,56.0,102.0
216,34.88154712916667,35.14543615000001,75.0,102.0
217,34.88154712916667,35.16904727291667,71.0,108.0
218,34.88154712916667,35.18710283750001,68.0,97.0
219,35.548214129166674,35.77321424166667,71.0,100.0
220,35.548214129166674,35.79126980625001,75.0,97.0
221,35.548214129166674,35.80238092291667,68.0,94.0
222,35.21488062916667,35.81349203958334,63.0,80.0
223,36.21488112916667,36.64543690000001,71.0,105.0
224,36.21488112916667,36.64960356875,75.0,94.0
225,36.21488112916667,36.65238134791667,68.0,97.0
226,35.881547629166676,36.98015928958334,56.0,89.0
227,36.54821462916667,37.02182597708334,63.0,97.0
228,36.881548129166674,37.02599264583334,71.0,100.0
229,36.881548129166674,37.0371037625,68.0,97.0
230,36.881548129166674,37.04404821041667,75.0,102.0
231,37.21488162916667,37.645437400000006,66.0,92.0
232,37.21488162916667,37.78432635833334,71.0,97.0
233,37.21488162916667,37.78710413750001,75.0,97.0
234,37.21488162916667,37.837104162500005,59.0,94.0
235,37.88154862916667,38.34821552916667,71.0,92.0
236,37.88154862916667,38.38154887916667,68.0,87.0
237,37.88154862916667,38.430160014583336,56.0,102.0
238,38.54821562916667,38.770437962500004,66.0,71.0
239,38.54821562916667,38.78154907916667,70.0,94.0
240,38.54821562916667,39.03988254166667,54.0,100.0
241,38.88154912916667,39.192660395833336,73.0,89.0
242,38.88154912916667,39.21766040833334,70.0,97.0
243,38.88154912916667,39.27738266041667,66.0,94.0
244,39.548216129166676,39.73432733333334,70.0,114.0
245,39.214882629166674,39.73849400208334,61.0,71.0
246,39.548216129166676,39.74266067083334,66.0,100.0
247,39.548216129166676,39.752382897916675,73.0,100.0
248,39.88154962916667,40.49266104583334,59.0,100.0
249,40.21488312916667,40.54127218125001,75.0,94.0
250,40.21488312916667,40.54404996041667,71.0,97.0
251,40.21488312916667,40.559327745833336,66.0,92.0
252,40.548216629166674,41.01210575,54.0,100.0
253,40.88155012916667,41.06766133333334,71.0,102.0
254,40.88155012916667,41.07877245,66.0,94.0
255,40.88155012916667,41.08155022916667,75.0,100.0
256,41.21488362916667,41.77460613125,59.0,97.0
257,41.54821712916667,41.985717347916676,75.0,100.0
258,41.54821712916667,41.99127290625,71.0,108.0
259,41.54821712916667,42.02043958750001,66.0,97.0
260,41.88155062916667,42.33432863333334,54.0,105.0
261,42.21488412916667,42.66766213333334,75.0,100.0
262,42.21488412916667,42.68432880833334,71.0,108.0
263,42.21488412916667,42.71766215833334,66.0,94.0
264,42.881551129166674,43.07877345000001,78.0,120.0
265,42.54821762916667,43.08988456666667,59.0,82.0
266,43.214884629166676,43.487106987500006,75.0,92.0
267,43.214884629166676,43.64960706875001,54.0,105.0
268,43.54821812916667,43.71071821041667,73.0,117.0
269,43.88155162916667,44.3371074125,75.0,94.0
270,43.88155162916667,44.36349631458334,71.0,94.0
271,43.88155162916667,44.37877410000001,59.0,94.0
272,43.88155162916667,44.38155187916667,66.0,82.0
273,44.54821862916667,44.70516315208334,66.0,84.0
274,44.54821862916667,44.77877430000001,71.0,97.0
275,44.54821862916667,44.78155207916667,75.0,97.0
276,44.54821862916667,44.79960764375001,59.0,100.0
277,44.881989045833336,45.13058443958334,70.0,94.0
278,44.881989045833336,45.13901140208334,73.0,89.0
279,44.881989045833336,45.14322488333334,58.0,94.0
280,45.21906754583334,45.57861794583334,71.0,100.0
281,45.21906754583334,45.589853895833336,68.0,100.0
282,45.72468529583334,45.80614593333334,71.0,108.0
283,45.72468529583334,45.80895492083334,68.0,102.0
284,45.893224545833334,46.25558393333334,68.0,94.0
285,45.893224545833334,46.308954695833336,71.0,84.0
286,45.893224545833334,46.360920964583336,75.0,108.0
287,45.21906754583334,46.474684958333334,56.0,100.0
288,45.893224545833334,46.50137033958334,63.0,108.0
289,46.567381545833335,46.91429150208334,68.0,87.0
290,46.567381545833335,46.929740933333335,71.0,87.0
291,47.072999295833334,47.16148240208334,68.0,92.0
292,47.241538545833336,47.42131374583334,68.0,102.0
293,47.241538545833336,47.64603274583334,75.0,97.0
294,47.241538545833336,47.660077683333334,71.0,111.0
295,47.57861704583334,47.76822370208334,68.0,87.0
296,46.567381545833335,47.782268639583336,56.0,89.0
297,47.241538545833336,47.81316750208334,63.0,102.0
298,47.91569554583334,48.27524594583334,71.0,100.0
299,47.91569554583334,48.28648189583334,68.0,100.0
300,48.421313295833336,48.50277393333334,71.0,108.0
301,48.421313295833336,48.505582920833334,68.0,102.0
302,48.58985254583334,48.95221193333334,68.0,94.0
303,48.58985254583334,49.00558269583334,71.0,84.0
304,48.58985254583334,49.05754896458334,75.0,108.0
305,47.91569554583334,49.17131295833334,56.0,100.0
306,48.58985254583334,49.197998339583336,63.0,108.0
307,49.26400954583334,49.610919502083334,68.0,87.0
308,49.26400954583334,49.62636893333334,71.0,87.0
309,49.76962729583334,49.85811040208334,68.0,92.0
310,49.93816654583334,50.117941745833335,68.0,102.0
311,49.93816654583334,50.342660745833335,75.0,97.0
312,49.93816654583334,50.35670568333334,71.0,111.0
313,50.27524504583334,50.46485170208334,68.0,87.0
314,49.26400954583334,50.47889663958334,56.0,89.0
315,49.93816654583334,50.509795502083335,63.0,102.0
316,50.612323545833334,50.97187394583334,71.0,100.0
317,50.612323545833334,50.98310989583334,68.0,100.0
318,51.11794129583334,51.199401933333334,71.0,108.0
319,51.11794129583334,51.20221092083334,68.0,102.0
320,51.286480545833335,51.648839933333335,68.0,94.0
321,51.286480545833335,51.70221069583334,71.0,84.0
322,51.286480545833335,51.75417696458334,75.0,108.0
323,50.612323545833334,51.867940958333335,56.0,100.0
324,51.286480545833335,51.89462633958334,63.0,108.0
325,51.960637545833336,52.30754750208334,68.0,87.0
326,51.960637545833336,52.322996933333336,71.0,87.0
327,52.466255295833335,52.55473840208334,68.0,92.0
328,52.63479454583334,52.81456974583334,68.0,102.0
329,52.63479454583334,53.03928874583334,75.0,97.0
330,52.63479454583334,53.053333683333335,71.0,111.0
331,52.971873045833334,53.16147970208334,68.0,87.0
332,51.960637545833336,53.17552463958334,56.0,89.0
333,52.63479454583334,53.20642350208334,63.0,102.0
334,53.30895154583334,53.64181656458334,73.0,92.0
335,53.30895154583334,53.64743453958334,66.0,97.0
336,53.81456929583334,53.88619847708334,66.0,82.0
337,53.81456929583334,53.88900746458334,70.0,100.0
338,53.646030045833335,54.16147925208334,61.0,71.0
339,53.98310854583334,54.28788368958334,66.0,102.0
340,53.98310854583334,54.36372635208333,70.0,108.0
341,53.30895154583334,54.502771233333334,54.0,102.0
342,54.48872629583334,54.53647908333333,66.0,40.0
343,54.320187045833336,54.601085795833335,61.0,67.0
344,54.65726554583334,55.03788335208334,66.0,89.0
345,54.65726554583334,55.04069233958334,70.0,108.0
346,54.65726554583334,55.04911930208334,73.0,102.0
347,55.16288329583334,55.234512477083335,70.0,100.0
348,55.16288329583334,55.23732146458334,66.0,53.0
349,54.99434404583334,55.51962470833334,61.0,62.0
350,55.331422545833334,55.68645347708333,66.0,92.0
351,55.331422545833334,55.749302633333336,70.0,114.0
352,55.331422545833334,55.749302633333336,73.0,114.0
353,54.65726554583334,55.95740317291667,54.0,105.0
354,55.66829705416667,55.97835289166667,61.0,94.0
355,56.00349255416667,56.19483331875,66.0,92.0
356,56.00349255416667,56.19483331875,71.0,97.0
357,56.33868805416667,56.404330506250005,71.0,58.0
358,56.33868805416667,56.404330506250005,75.0,67.0
359,56.506285804166666,56.56494501666667,66.0,60.0
360,56.506285804166666,56.57472155208333,71.0,82.0
361,56.506285804166666,56.58030814375,75.0,71.0
362,56.67388355416667,56.81215169791667,66.0,102.0
363,56.67388355416667,56.8191349375,71.0,102.0
364,56.67388355416667,56.8358947125,75.0,108.0
365,56.00349255416667,56.886174037500005,59.0,105.0
366,57.00907905416667,57.171090212500005,66.0,80.0
367,57.34427455416667,57.58449799583334,66.0,84.0
368,57.34427455416667,57.58449799583334,71.0,92.0
369,57.67947005416667,57.73952591458334,66.0,64.0
370,57.67947005416667,57.74231921041667,71.0,76.0
371,57.67947005416667,57.760475633333336,75.0,84.0
372,57.84706780416667,57.9169002,71.0,89.0
373,57.84706780416667,57.92248679166667,66.0,73.0
374,57.84706780416667,57.9252800875,75.0,92.0
375,57.34427455416667,58.210196262500006,59.0,102.0
376,58.01466555416667,58.21717950208333,66.0,97.0
377,58.01466555416667,58.3107549125,71.0,108.0
378,58.01466555416667,58.3442744625,75.0,105.0
379,58.34986105416667,58.469972775,59.0,84.0
380,58.68505655416667,58.939246475000004,66.0,89.0
381,58.68505655416667,58.94902301041667,71.0,89.0
382,59.02025205416667,59.0649447875,66.0,62.0
383,59.02025205416667,59.08030791458334,71.0,78.0
384,59.02025205416667,59.092877745833334,75.0,87.0
385,59.18784980416667,59.2660620875,66.0,80.0
386,59.18784980416667,59.2660620875,71.0,92.0
387,59.18784980416667,59.26885538333334,75.0,87.0
388,59.355447554166666,59.486732458333336,71.0,108.0
389,59.355447554166666,59.49371569791667,75.0,117.0
390,59.355447554166666,59.49790564166667,66.0,102.0
391,58.68505655416667,59.70879947708334,59.0,97.0
392,59.69064305416667,59.94203967916667,75.0,87.0
393,59.69064305416667,60.03980503333334,71.0,84.0
394,59.69064305416667,60.056564808333334,66.0,76.0
395,60.361034054166666,60.421089914583334,66.0,55.0
396,60.361034054166666,60.426676506250004,71.0,80.0
397,60.361034054166666,60.4392463375,75.0,82.0
398,60.52863180416667,60.576117833333335,66.0,45.0
399,60.52863180416667,60.59427425625,75.0,73.0
400,60.52863180416667,60.604050791666666,71.0,82.0
401,60.02583855416667,60.884777022916666,59.0,102.0
402,60.69622955416667,61.264665256250005,66.0,97.0
403,60.69622955416667,61.285614975,71.0,108.0
404,60.69622955416667,61.300978102083334,75.0,111.0
405,61.03142505416667,61.334497652083336,59.0,100.0
406,61.36662055416667,61.84287749375,56.0,102.0
407,61.70181605416667,62.13617355625,75.0,94.0
408,61.70181605416667,62.14176014791667,71.0,100.0
409,61.70181605416667,62.157123275000004,68.0,94.0
410,62.37220705416667,62.56494446666667,71.0,108.0
411,62.03701155416667,62.56634111458334,63.0,80.0
412,62.37220705416667,62.57332435416667,68.0,97.0
413,62.37220705416667,62.58170424166667,75.0,100.0
414,62.70740255416667,63.36541986666666,61.0,100.0
415,63.042748554166664,63.567440166666664,73.0,87.0
416,63.042748554166664,63.57024600416667,68.0,100.0
417,63.042748554166664,63.57585767916667,76.0,97.0
418,63.37944905416666,63.91816985416666,56.0,105.0
419,63.71614955416667,63.919572772916666,73.0,102.0
420,63.71614955416667,64.00655373541666,68.0,100.0
421,63.71614955416667,64.04864129791666,76.0,97.0
422,64.38955055416666,64.77815904791666,66.0,100.0
423,64.38955055416666,64.79920282916666,70.0,105.0
424,64.38955055416666,64.80621742291666,73.0,102.0
425,64.05285005416667,64.80762034166666,54.0,105.0
426,64.72625105416667,65.15414127291666,61.0,92.0
427,65.06295155416666,65.31126817291667,66.0,114.0
428,65.39965205416667,65.72514810416668,70.0,108.0
429,65.39965205416667,65.74059753541667,66.0,92.0
430,65.39965205416667,65.74059753541667,73.0,102.0
431,65.39965205416667,65.75604696666667,78.0,94.0
432,65.39965205416667,66.61840612916667,54.0,102.0
433,66.74761955416668,67.25871251666668,56.0,102.0
434,67.08498372916668,67.498825475,71.0,97.0
435,67.08498372916668,67.498825475,75.0,94.0
436,67.08498372916668,67.51859948333335,68.0,92.0
437,67.42396672916668,67.93667851666667,63.0,89.0
438,67.76294972916668,67.95786495416668,71.0,97.0
439,67.76294972916668,67.97622653333335,75.0,94.0
440,67.76294972916668,67.98470110833334,68.0,92.0
441,68.44091572916668,68.86181962083334,71.0,105.0
442,68.44091572916668,68.87453148333334,75.0,105.0
443,68.44091572916668,68.88724334583334,68.0,105.0
444,68.10193272916668,69.19091561666667,56.0,92.0
445,69.11888172916667,69.3335709625,71.0,100.0
446,69.11888172916667,69.35616982916667,75.0,100.0
447,69.11888172916667,69.36464440416667,68.0,100.0
448,68.77989872916667,69.38724327083334,63.0,92.0
449,69.79684772916667,70.23752562916667,70.0,108.0
450,69.45786472916667,70.24458777500001,54.0,78.0
451,69.79684772916667,70.25447477916667,73.0,97.0
452,69.79684772916667,70.25871206666667,66.0,100.0
453,70.13583072916667,70.58215834583334,61.0,87.0
454,70.47481372916667,70.66125437916668,70.0,111.0
455,70.47481372916667,70.68385324583335,66.0,102.0
456,70.47481372916667,70.69938996666667,73.0,100.0
457,71.15277972916667,71.61746892500001,73.0,100.0
458,71.15277972916667,71.62311864166668,66.0,100.0
459,71.15277972916667,71.62311864166668,70.0,105.0
460,70.81379672916667,71.62453107083334,54.0,94.0
461,71.49176272916668,72.01436152083335,61.0,80.0
462,71.83074572916668,72.02283609583334,70.0,102.0
463,71.83074572916668,72.02848581250001,66.0,100.0
464,71.83074572916668,72.04402253333333,73.0,97.0
465,72.16972872916668,72.79825970833335,59.0,94.0
466,72.50871172916668,72.96351392083334,75.0,97.0
467,72.50871172916668,72.973400925,71.0,105.0
468,72.50871172916668,72.98470035833334,66.0,102.0
469,73.18667772916668,73.3420449375,66.0,97.0
470,72.84769472916668,73.38724267083334,54.0,102.0
471,73.18667772916668,73.40560425000001,71.0,102.0
472,73.18667772916668,73.51718615416668,75.0,94.0
473,73.52566072916667,74.07820503750001,61.0,108.0
474,73.8648944125,74.16637342916667,73.0,102.0
475,73.8648944125,74.2061914125,68.0,105.0
476,73.8648944125,74.23321075833334,76.0,102.0
477,74.2061914125,74.72382519583334,54.0,108.0
478,74.5474884125,74.79350666666667,66.0,97.0
479,74.5474884125,74.79350666666667,70.0,102.0
480,74.5474884125,74.83474672083334,73.0,94.0
481,74.88878541250001,75.50596415416668,59.0,102.0
482,75.23008241250001,75.65528159166668,71.0,102.0
483,75.23008241250001,75.65528159166668,75.0,97.0
484,75.23008241250001,75.69367750416667,66.0,94.0
485,75.9126764125,76.06910420416668,71.0,100.0
486,75.9126764125,76.07621455833335,66.0,92.0
487,75.9126764125,76.08048077083335,75.0,100.0
488,75.57137941250001,76.0918573375,54.0,97.0
489,76.2539734125,76.82849002916667,71.0,102.0
490,76.2539734125,77.17974152500001,66.0,100.0
491,76.93656741250001,77.53241509166668,71.0,111.0
492,76.93656741250001,77.538103375,75.0,102.0
493,77.27786441250001,77.54805787083335,66.0,97.0
494,76.2539734125,77.66466767916667,59.0,89.0
495,77.6191614125,77.66466767916667,59.0,92.0
496,77.96016629166667,78.08855231458334,71.0,100.0
497,77.96016629166667,78.0984281625,66.0,94.0
498,77.96016629166667,78.10548233958333,75.0,89.0
499,78.63736729166668,78.78691584583333,71.0,89.0
500,78.63736729166668,78.79961336458334,66.0,87.0
501,78.63736729166668,78.80807837708333,75.0,94.0
502,78.29876679166667,78.85040343958333,54.0,89.0
503,78.97596779166668,79.62071957708334,59.0,92.0
504,79.31456829166667,79.64470377916668,66.0,92.0
505,79.31456829166667,79.64470377916668,71.0,92.0
506,79.31456829166667,79.64470377916668,75.0,97.0
507,79.99176929166667,80.11169030208333,71.0,89.0
508,79.99176929166667,80.11451197291667,66.0,92.0
509,79.99176929166667,80.15965870625,75.0,97.0
510,79.65316879166667,80.16812371875001,54.0,94.0
511,80.66897029166667,81.03155499375,71.0,92.0
512,80.66897029166667,81.06400420833334,68.0,94.0
513,80.33036979166667,81.06682587916667,56.0,97.0
514,80.66897029166667,81.07670172708333,75.0,92.0
515,81.00757079166667,81.32218708958334,63.0,78.0
516,81.34617129166668,81.46609230208334,71.0,100.0
517,81.34617129166668,81.47455731458334,75.0,92.0
518,81.34617129166668,81.48020065625,68.0,100.0
519,81.68477179166668,82.16445583333334,56.0,89.0
520,82.02337229166667,82.19972671875,71.0,97.0
521,82.02337229166667,82.20678089583333,68.0,97.0
522,82.02337229166667,82.20678089583333,75.0,94.0
523,82.70057329166667,82.87128437708334,75.0,94.0
524,82.70057329166667,82.87410604791667,71.0,94.0
525,82.70057329166667,82.88680356666667,68.0,97.0
526,82.36197279166667,82.92630695833334,63.0,82.0
527,83.37777429166667,83.73048314583333,75.0,100.0
528,83.37777429166667,83.74035899375001,71.0,102.0
529,83.37777429166667,83.761521525,66.0,97.0
530,83.03917379166667,83.94916263541667,59.0,97.0
531,84.05497529166666,84.25108141458334,75.0,100.0
532,84.05497529166666,84.25531392083334,66.0,94.0
533,84.05497529166666,84.25672475625001,71.0,105.0
534,84.39357579166668,84.91135238958334,54.0,89.0
535,84.73217629166668,85.14414023333333,70.0,108.0
536,84.73217629166668,85.14837273958334,73.0,102.0
537,84.73217629166668,85.1751786125,66.0,97.0
538,85.07077679166667,85.51236827708334,61.0,64.0
539,85.40937729166667,85.58008837708334,70.0,111.0
540,85.40937729166667,85.58291004791667,66.0,100.0
541,85.40937729166667,85.59278589583334,73.0,97.0
542,85.74797779166667,86.04989657083334,59.0,100.0
543,86.08637245833334,86.39361166458335,54.0,102.0
544,86.08637245833334,86.39641750208334,66.0,97.0
545,86.42307295833334,86.63210785208334,56.0,97.0
546,86.42307295833334,86.71488005833334,68.0,111.0
547,86.75977345833334,87.03614845208334,54.0,102.0
548,86.75977345833334,87.04035720833335,66.0,100.0
549,87.09647395833333,87.38828105833333,59.0,108.0
550,87.09647395833333,87.42756278333334,71.0,111.0
551,87.43317445833334,87.68990858958334,66.0,92.0
552,87.43317445833334,87.70393777708334,54.0,105.0
553,87.76987495833335,87.96347774583334,56.0,76.0
554,87.76987495833335,88.03502660208333,68.0,105.0
555,88.10657545833334,88.33945997083335,66.0,100.0
556,88.10657545833334,88.37172710208334,54.0,100.0
557,88.44327595833334,89.04098657708333,59.0,102.0
558,88.77981341666667,89.11500891666667,66.0,92.0
559,88.77981341666667,89.11500891666667,71.0,100.0
560,88.77981341666667,89.14573517083333,75.0,97.0
561,89.45020441666666,89.56053960208334,71.0,94.0
562,89.45020441666666,89.57310943333333,75.0,92.0
563,89.45020441666666,89.578696025,66.0,87.0
564,89.11500891666667,89.58847256041666,54.0,97.0
565,89.78539991666666,90.35383561875,59.0,82.0
566,90.12059541666666,90.45579091666667,75.0,82.0
567,90.12059541666666,90.46137750833333,71.0,92.0
568,90.12059541666666,90.48931046666667,66.0,78.0
569,90.45579091666667,90.95020427916667,54.0,100.0
570,90.79098641666667,90.9613774625,71.0,102.0
571,90.79098641666667,90.97115399791667,66.0,92.0
572,90.79098641666667,90.98931042083333,75.0,102.0
573,91.12618191666667,91.74350029583333,59.0,82.0
574,91.46137741666666,91.77841649375,75.0,102.0
575,91.46137741666666,91.78120978958333,71.0,102.0
576,91.46137741666666,91.7993662125,66.0,97.0
577,92.13176841666667,92.25607008125,71.0,102.0
578,91.79657291666666,92.25746672916667,54.0,100.0
579,92.13176841666667,92.27562315208334,66.0,94.0
580,92.13176841666667,92.28260639166666,75.0,97.0
581,92.46696391666667,93.04238285833334,59.0,92.0
582,92.80215941666667,93.19182418541666,75.0,92.0
583,92.80215941666667,93.19461748125,71.0,102.0
584,92.80215941666667,93.20020407291666,66.0,94.0
585,93.13735491666667,93.54098616458333,54.0,102.0
586,93.47255041666666,93.58707554583333,71.0,102.0
587,93.47255041666666,93.601042025,66.0,94.0
588,93.47255041666666,93.61919844791667,75.0,94.0
589,93.80774591666666,94.38595815416667,61.0,94.0
590,94.14294141666667,94.44880731041667,76.0,89.0
591,94.14294141666667,94.45160060625,73.0,87.0
592,94.14294141666667,94.46696373333333,68.0,102.0
593,94.47813691666667,94.88875140416667,56.0,100.0
594,94.81333241666667,94.95160056041667,76.0,97.0
595,94.81333241666667,94.96277374375,73.0,100.0
596,94.81333241666667,94.97813687083334,68.0,100.0
597,95.14852791666667,95.80355578958333,61.0,82.0
598,95.48372341666666,95.90271779166667,76.0,100.0
599,95.48372341666666,95.91249432708334,73.0,97.0
600,95.48372341666666,95.92366751041666,68.0,102.0
601,96.15411441666667,96.316125575,73.0,100.0
602,95.81891891666666,96.32729875833334,56.0,97.0
603,96.15411441666667,96.36361160416666,68.0,92.0
604,96.15411441666667,96.38456132291667,76.0,94.0
605,96.48930991666667,96.98930987083334,54.0,97.0
606,96.82450541666667,97.22255007291668,70.0,111.0
607,96.82450541666667,97.22813666458333,73.0,97.0
608,96.82450541666667,97.23372325625,66.0,100.0
609,97.49489641666666,97.63316456041667,70.0,102.0
610,97.49489641666666,97.64154444791667,66.0,92.0
611,97.49489641666666,97.65132098333333,73.0,97.0
612,97.15970091666667,97.66249416666668,61.0,73.0
613,97.83009191666667,98.29098572916666,73.0,66.0
614,97.83009191666667,98.30634885625,70.0,78.0
615,97.83009191666667,98.33148851875,66.0,53.0
616,98.50048291666667,99.02422588541667,61.0,102.0
617,97.83009191666667,99.0731085625,54.0,100.0
618,98.83567841666667,99.08567839375,66.0,84.0
619,98.83567841666667,99.09126498541667,70.0,105.0
620,98.83567841666667,99.09126498541667,73.0,97.0
621,98.83567841666667,99.10104152083333,78.0,84.0
622,99.17087391666666,99.68903029375,56.0,102.0
623,99.50606941666666,99.77143252083333,75.0,102.0
624,99.50606941666666,99.79517553541666,71.0,108.0
625,99.50606941666666,99.81333195833334,68.0,97.0
626,100.17646041666667,100.40271737916667,71.0,100.0
627,100.17646041666667,100.42087380208334,75.0,97.0
628,100.17646041666667,100.43204698541666,68.0,94.0
629,99.84126491666667,100.44322016875,63.0,80.0
630,100.84685141666667,101.27981227083333,71.0,105.0
631,100.84685141666667,101.28400221458334,75.0,94.0
632,100.84685141666667,101.28679551041667,68.0,97.0
633,100.51165591666667,101.61640441875,56.0,89.0
634,101.18204691666666,101.65830385625,63.0,97.0
635,101.51724241666668,101.66249380000001,71.0,100.0
636,101.51724241666668,101.67366698333333,68.0,97.0
637,101.51724241666668,101.68065022291667,75.0,102.0
638,101.85243791666667,102.28614412499999,66.0,92.0
639,101.85243791666667,102.4265935,71.0,97.0
640,101.85243791666667,102.4294024875,75.0,97.0
641,101.85243791666667,102.4799642625,59.0,94.0
642,102.5249080625,102.9968179625,71.0,92.0
643,102.5249080625,103.0305258125,68.0,87.0
644,102.5249080625,103.07968309374999,56.0,102.0
645,103.1990650625,103.4237840625,66.0,71.0
646,103.1990650625,103.4350200125,70.0,94.0
647,103.1990650625,103.69625585,54.0,100.0
648,103.5361435625,103.85075016249999,73.0,89.0
649,103.5361435625,103.87603105,70.0,97.0
650,103.5361435625,103.93642428125,66.0,94.0
651,104.2103005625,104.398502725,70.0,114.0
652,103.8732220625,104.40271620625,61.0,71.0
653,104.2103005625,104.4069296875,66.0,100.0
654,104.2103005625,104.41676114375,73.0,100.0
655,104.5473790625,105.1653563125,59.0,100.0
656,104.8844575625,105.21451359375,75.0,94.0
657,104.8844575625,105.21732258125,71.0,97.0
658,104.8844575625,105.23277201249999,66.0,92.0
659,105.2215360625,105.690636975,54.0,100.0
660,105.5586145625,105.746816725,71.0,102.0
661,105.5586145625,105.758052675,66.0,94.0
662,105.5586145625,105.7608616625,75.0,100.0
663,105.8956930625,106.46170404375,59.0,97.0
664,106.2327715625,106.67518709375,75.0,100.0
665,106.2327715625,106.68080506875,71.0,108.0
666,106.2327715625,106.7102994375,66.0,97.0
667,106.5698500625,107.02771502499999,54.0,105.0
668,106.9069285625,107.364793525,75.0,100.0
669,106.9069285625,107.38164745,71.0,108.0
670,106.9069285625,107.4153553,66.0,94.0
671,107.5810855625,107.780523675,78.0,120.0
672,107.2440070625,107.791759625,59.0,82.0
673,107.9181640625,108.1934448375,75.0,92.0
674,107.9181640625,108.35777060625,54.0,105.0
675,108.2552425625,108.41956833124999,73.0,117.0
676,108.59232106249999,109.05299501249999,75.0,94.0
677,108.59232106249999,109.07968039375,71.0,94.0
678,108.59232106249999,109.095129825,59.0,94.0
679,108.59232106249999,109.0979388125,66.0,82.0
680,109.2664780625,109.42518585625,66.0,84.0
681,109.2664780625,109.499624025,71.0,97.0
682,109.2664780625,109.50243301249999,75.0,97.0
683,109.2664780625,109.52069143125,59.0,100.0
684,109.6035565625,109.85215195625,70.0,94.0
685,109.6035565625,109.86057891875,73.0,89.0
686,109.6035565625,109.8647924,58.0,94.0
687,109.9406350625,110.30051875,71.0,100.0
688,109.9406350625,110.31181818333333,68.0,100.0
689,110.44741138333333,110.529332275,71.0,108.0
690,110.44741138333333,110.53215713333333,68.0,102.0
691,110.61690288333332,110.98130960833333,68.0,94.0
692,110.61690288333332,111.03498191666667,71.0,84.0
693,110.61690288333332,111.08724179583332,75.0,108.0
694,109.9406350625,111.20164855833333,56.0,100.0
695,110.61690288333332,111.22848471249999,63.0,108.0
696,111.29486888333332,111.64373888749999,68.0,87.0
697,111.29486888333332,111.65927560833333,71.0,87.0
698,111.80334338333333,111.89232642083333,68.0,92.0
699,111.97283488333333,112.15362581666666,68.0,102.0
700,111.97283488333333,112.37961448333333,75.0,97.0
701,111.97283488333333,112.39373877499999,71.0,111.0
702,112.31181788333333,112.50249582083333,68.0,87.0
703,111.29486888333332,112.5166201125,56.0,89.0
704,111.97283488333333,112.54769355416666,63.0,102.0
705,112.65080088333333,113.01238275,71.0,100.0
706,112.65080088333333,113.02368218333332,68.0,100.0
707,113.15927538333332,113.241196275,71.0,108.0
708,113.15927538333332,113.24402113333333,68.0,102.0
709,113.32876688333333,113.69317360833332,68.0,94.0
710,113.32876688333333,113.74684591666666,71.0,84.0
711,113.32876688333333,113.79910579583333,75.0,108.0
712,112.65080088333333,113.91351255833332,56.0,100.0
713,113.32876688333333,113.9403487125,63.0,108.0
714,114.00673288333333,114.3556028875,68.0,87.0
715,114.00673288333333,114.37113960833332,71.0,87.0
716,114.51520738333333,114.60419042083333,68.0,92.0
717,114.68469888333333,114.86548981666667,68.0,102.0
718,114.68469888333333,115.09147848333333,75.0,97.0
719,114.68469888333333,115.105602775,71.0,111.0
720,115.02368188333332,115.21435982083332,68.0,87.0
721,114.00673288333333,115.2284841125,56.0,89.0
722,114.68469888333333,115.25955755416666,63.0,102.0
723,115.36266488333332,115.72424674999999,71.0,100.0
724,115.36266488333332,115.73554618333333,68.0,100.0
725,115.87113938333333,115.953060275,71.0,108.0
726,115.87113938333333,115.95588513333333,68.0,102.0
727,116.04063088333332,116.40503760833333,68.0,94.0
728,116.04063088333332,116.45870991666666,71.0,84.0
729,116.04063088333332,116.51096979583333,75.0,108.0
730,115.36266488333332,116.62537655833333,56.0,100.0
731,116.04063088333332,116.65221271249999,63.0,108.0
732,116.71859688333333,117.06746688749999,68.0,87.0
733,116.71859688333333,117.08300360833333,71.0,87.0
734,117.22707138333332,117.31605442083332,68.0,92.0
735,117.39656288333333,117.57735381666666,68.0,102.0
736,117.39656288333333,117.8031067625,75.0,97.0
737,117.39656288333333,117.8171992,71.0,111.0
738,117.7354630625,117.92571096875,68.0,87.0
739,116.71859688333333,117.93980340625,56.0,89.0
740,117.39656288333333,117.97080676875,63.0,102.0
741,118.0736815625,118.40738262708334,73.0,92.0
742,118.0736815625,118.41296921875,66.0,97.0
743,118.57917032083334,118.65039936458334,66.0,82.0
744,118.57917032083334,118.65319266041668,70.0,100.0
745,118.41157257083334,118.92414235625,61.0,71.0
746,118.74676807083334,119.04984066875001,66.0,102.0
747,118.74676807083334,119.12525965625001,70.0,108.0
748,118.0736815625,119.2635278,54.0,102.0
749,119.24956132083334,119.29704735,66.0,40.0
750,119.08196357083334,119.36129315416667,61.0,67.0
751,119.41715907083334,119.79565065625,66.0,89.0
752,119.41715907083334,119.79844395208335,70.0,108.0
753,119.41715907083334,119.80682383958334,73.0,102.0
754,119.91995232083335,119.99118136458334,70.0,100.0
755,119.91995232083335,119.99397466041667,66.0,53.0
756,119.75235457083333,120.27470089166667,61.0,62.0
757,120.08755007083334,120.44090199375,66.0,92.0
758,120.08755007083334,120.50375115000001,70.0,114.0
759,120.08755007083334,120.50375115000001,73.0,114.0
760,119.41715907083334,120.71185168958334,54.0,105.0
761,120.42274557083334,120.73280140833334,61.0,94.0
762,120.75794107083334,120.94928183541667,66.0,92.0
763,120.75794107083334,120.94928183541667,71.0,97.0
764,121.09313657083334,121.15877902291668,71.0,58.0
765,121.09313657083334,121.15877902291668,75.0,67.0
766,121.26073432083334,121.31939353333334,66.0,60.0
767,121.26073432083334,121.32917006875,71.0,82.0
768,121.26073432083334,121.33475666041667,75.0,71.0
769,121.42833207083333,121.56660021458335,66.0,102.0
770,121.42833207083333,121.57358345416668,71.0,102.0
771,121.42833207083333,121.59034322916668,75.0,108.0
772,120.75794107083334,121.64062255416667,59.0,105.0
773,121.76369061250001,121.9264291875,66.0,80.0
774,122.1003911125,122.34169313750002,66.0,84.0
775,122.1003911125,122.34169313750002,71.0,92.0
776,122.43709161250001,122.49741711875001,66.0,64.0
777,122.43709161250001,122.50022295625001,71.0,76.0
778,122.43709161250001,122.51846090000001,75.0,84.0
779,122.60544186250002,122.67558780000002,71.0,89.0
780,122.60544186250002,122.68119947500001,66.0,73.0
781,122.60544186250002,122.6840053125,75.0,92.0
782,122.1003911125,122.97020073750001,59.0,102.0
783,122.7737921125,122.97721533125001,66.0,97.0
784,122.7737921125,123.07121088750002,71.0,108.0
785,122.7737921125,123.10488093750001,75.0,105.0
786,123.11049261250001,123.23114362500002,59.0,84.0
787,123.44719311250002,123.70252432500001,66.0,89.0
788,123.44719311250002,123.71234475625,71.0,89.0
789,123.78409944583333,123.82924617916667,66.0,62.0
790,123.78409944583333,123.84476536875,71.0,78.0
791,123.78409944583333,123.8574628875,75.0,87.0
792,123.95339969583334,124.03240647916667,66.0,80.0
793,123.95339969583334,124.03240647916667,71.0,92.0
794,123.95339969583334,124.03522815000001,75.0,87.0
795,124.12269994583333,124.25531847500001,71.0,108.0
796,124.12269994583333,124.26237265208334,75.0,117.0
797,124.12269994583333,124.26660515833333,66.0,102.0
798,123.44719311250002,124.47964130625,59.0,97.0
799,124.46130044583334,124.71525082083333,75.0,87.0
800,124.46130044583334,124.81400930000001,71.0,84.0
801,124.46130044583334,124.830939325,66.0,76.0
802,125.13850144583334,125.19916736875001,66.0,55.0
803,125.13850144583334,125.20481071041667,71.0,80.0
804,125.13850144583334,125.21750822916667,75.0,82.0
805,125.30780169583333,125.3557701,66.0,45.0
806,125.30780169583333,125.37411096041667,75.0,73.0
807,125.30780169583333,125.38398680833333,71.0,82.0
808,124.79990094583334,125.66756472708335,59.0,102.0
809,125.47710194583334,126.05131196041667,66.0,97.0
810,125.47710194583334,126.07247449166667,71.0,108.0
811,125.47710194583334,126.08799368125001,75.0,111.0
812,125.81570244583334,126.12185373125,59.0,100.0
813,126.15430294583334,126.63539782291667,56.0,102.0
814,126.49290344583333,126.93167326041667,75.0,94.0
815,126.49290344583333,126.93731660208334,71.0,100.0
816,126.49290344583333,126.95283579166667,68.0,94.0
817,127.17010444583335,127.36479973333334,71.0,108.0
818,126.83150394583333,127.36621056875,63.0,80.0
819,127.17010444583335,127.37326474583334,68.0,97.0
820,127.17010444583335,127.38172975833334,75.0,100.0
821,127.50870494583334,128.17179759166666,61.0,100.0
822,127.84730544583334,128.37495789166667,73.0,87.0
823,127.84730544583334,128.3777795625,68.0,100.0
824,127.84730544583334,128.38342290416668,76.0,97.0
825,128.18590594583333,128.72766674583335,56.0,105.0
826,128.52450644583334,128.72907758125,73.0,102.0
827,128.52450644583334,128.81654937708333,68.0,100.0
828,128.52450644583334,128.85887443958333,76.0,97.0
829,129.2017521291667,129.59343763125003,66.0,100.0
830,129.2017521291667,129.61464803750002,70.0,105.0
831,129.2017521291667,129.62171817291667,73.0,102.0
832,128.86310694583335,129.62313220000001,54.0,105.0
833,129.54111862916668,129.97239688958334,61.0,92.0
834,129.8804851291667,130.13076792291668,66.0,114.0
835,130.21985162916667,130.54790591250003,70.0,108.0
836,130.21985162916667,130.56346021041668,66.0,92.0
837,130.21985162916667,130.56346021041668,73.0,102.0
838,130.21985162916667,130.57901450833336,78.0,94.0
839,130.21985162916667,131.44722713750002,54.0,102.0
840,131.57731762916669,132.09162493958334,56.0,102.0
841,131.91690907708335,132.33310214791666,71.0,97.0
842,131.91690907708335,132.33310214791666,75.0,94.0
843,131.91690907708335,132.35298850625,68.0,92.0
844,132.25781807708333,132.77344293958333,63.0,89.0
845,132.59872707708334,132.79474975208333,71.0,97.0
846,132.59872707708334,132.81321565625,75.0,94.0
847,132.59872707708334,132.82173838125001,68.0,92.0
848,133.28054507708333,133.70384041875,71.0,105.0
849,133.28054507708333,133.71662450625,75.0,105.0
850,133.28054507708333,133.72940859375,68.0,105.0
851,132.93963607708332,134.03480623958333,56.0,92.0
852,133.96236307708332,134.17827211041666,71.0,100.0
853,133.96236307708332,134.20099937708335,75.0,100.0
854,133.96236307708332,134.20952210208333,68.0,100.0
855,133.62145407708334,134.23224936875,63.0,92.0
856,134.64418107708335,135.08736277708334,70.0,108.0
857,134.30327207708334,135.09446504791666,54.0,78.0
858,134.64418107708335,135.10440822708333,73.0,97.0
859,134.64418107708335,135.10866958958334,66.0,100.0
860,134.98509007708333,135.43395359375,61.0,87.0
861,135.32599907708334,135.51349902708333,70.0,111.0
862,135.32599907708334,135.53622629375,66.0,102.0
863,135.32599907708334,135.55185128958334,73.0,100.0
864,136.00781707708333,136.47514649791668,73.0,100.0
865,136.00781707708333,136.48082831458333,66.0,100.0
866,136.00781707708333,136.48082831458333,70.0,105.0
867,135.66690807708335,136.48224876875,54.0,94.0
868,136.34872607708334,136.87534509374998,61.0,80.0
869,136.68984267708333,136.88390674375,70.0,102.0
870,136.68984267708333,136.88961451041666,66.0,100.0
871,136.68984267708333,136.90531086875,73.0,97.0
872,137.03230867708334,137.66880932499998,59.0,94.0
873,137.37494481458333,137.83652711874998,75.0,97.0
874,137.37494481458333,137.84656151666667,71.0,105.0
875,137.37494481458333,137.8580294,66.0,102.0
876,138.06314646041665,138.22137412708332,66.0,97.0
877,137.71898131458332,138.26740399374998,54.0,102.0
878,138.06314646041665,138.28610362708332,71.0,102.0
879,138.06314646041665,138.39973986041667,75.0,94.0
880,138.40837046041665,138.96935946041665,61.0,108.0
881,138.75359446041665,139.05854232708333,73.0,102.0
882,138.75359446041665,139.09881846041665,68.0,105.0
883,138.75359446041665,139.12614869375,76.0,102.0
884,139.09881846041665,139.62240819375,54.0,108.0
885,139.44404246041665,139.69289142708334,66.0,97.0
886,139.44404246041665,139.69289142708334,70.0,102.0
887,139.44404246041665,139.73460599375,73.0,94.0
888,139.78926646041666,140.41354652708333,59.0,102.0
889,140.13449046041666,140.56458202708333,71.0,102.0
890,140.13449046041666,140.56458202708333,75.0,97.0
891,140.13449046041666,140.60341972708332,66.0,94.0
892,140.82493846041666,140.98316612708334,71.0,100.0
893,140.82493846041666,140.99035829375,66.0,92.0
894,140.82493846041666,140.99467359374998,75.0,100.0
895,140.47971446041666,141.00618106041665,54.0,97.0
896,141.17016246041666,141.75128952708332,71.0,102.0
897,141.17016246041666,142.10658256041665,66.0,100.0
898,141.86061046041667,142.4589676,71.0,111.0
899,141.86061046041667,142.46463652499997,75.0,102.0
900,142.20528320625,142.47455714375,66.0,97.0
901,141.17016246041666,142.59077010624998,59.0,89.0
902,142.54541870625,142.59077010624998,59.0,102.0
903,142.88522303124998,143.22230153125,66.0,92.0
904,142.88522303124998,143.22230153125,71.0,100.0
905,142.88522303124998,143.25320039374998,75.0,97.0
906,143.55938003125,143.6703350375,71.0,94.0
907,143.55938003125,143.68297548125,75.0,92.0
908,143.55938003125,143.68859345625,66.0,87.0
909,143.22230153125,143.6984249125,54.0,97.0
910,143.89645853124998,144.4680874875,59.0,82.0
911,144.23353703125,144.57061553124998,75.0,82.0
912,144.23353703125,144.57623350625,71.0,92.0
913,144.23353703125,144.60432338125,66.0,78.0
914,144.57061553124998,145.06670790208332,54.0,100.0
915,144.9074900395833,145.07788108541666,71.0,102.0
916,144.9074900395833,145.0876576208333,66.0,92.0
917,144.9074900395833,145.10581404374997,75.0,102.0
918,145.2426855395833,145.86000391874998,59.0,82.0
919,145.57788103958333,145.89492011666664,75.0,102.0
920,145.57788103958333,145.8977134125,71.0,102.0
921,145.57788103958333,145.91586983541666,66.0,97.0
922,146.24807032291665,146.37168149583331,71.0,102.0
923,145.91307653958333,146.37307038541664,54.0,100.0
924,146.24807032291665,146.39112594999997,66.0,94.0
925,146.24807032291665,146.39807039791665,75.0,97.0
926,146.58140382291666,147.15362633124997,59.0,92.0
927,146.91473732291664,147.30223751666665,75.0,92.0
928,146.91473732291664,147.3050152958333,71.0,102.0
929,146.91473732291664,147.31057085416666,66.0,94.0
930,147.24807082291665,147.64945991249996,54.0,102.0
931,147.58140432291665,147.69529326874996,71.0,102.0
932,147.58140432291665,147.7091821645833,66.0,94.0
933,147.58140432291665,147.72723772916663,75.0,94.0
934,147.91473782291663,148.48973811041665,61.0,94.0
935,148.24807132291664,148.55223814166663,76.0,89.0
936,148.24807132291664,148.5550159208333,73.0,87.0
937,148.24807132291664,148.57029370624997,68.0,102.0
938,148.58140482291665,148.98973836041665,56.0,100.0
939,148.91473832291663,149.05223839166663,76.0,97.0
940,148.91473832291663,149.06334950833332,73.0,100.0
941,148.91473832291663,149.07862729374997,68.0,100.0
942,149.24807182291664,149.89946103749998,61.0,82.0
943,149.58140532291665,149.99807219791666,76.0,100.0
944,149.58140532291665,150.007794425,73.0,97.0
945,149.58140532291665,150.01890554166664,68.0,102.0
946,150.24807232291664,150.4091835145833,73.0,100.0
947,149.91473882291663,150.42029463125,56.0,97.0
948,150.24807232291664,150.45640576041663,68.0,92.0
949,150.24807232291664,150.47723910416664,76.0,94.0
950,150.58140582291665,151.07862829374997,54.0,97.0
951,150.91473932291663,151.31057285416665,70.0,111.0
952,150.91473932291663,151.31612841249998,73.0,97.0
953,150.91473932291663,151.3216839708333,66.0,100.0
954,151.58140632291665,151.71890639166665,70.0,102.0
955,151.58140632291665,151.72723972916666,66.0,92.0
956,151.58140632291665,151.73696195624998,73.0,97.0
957,151.24807282291664,151.74807307291664,61.0,73.0
958,151.91473982291663,152.37307338541663,73.0,66.0
959,151.91473982291663,152.38835117083332,70.0,78.0
960,151.91473982291663,152.4133511833333,66.0,53.0
961,152.58140682291665,153.10224041666663,61.0,102.0
962,151.91473982291663,153.1508515520833,54.0,100.0
963,152.91474032291666,153.16335155833332,66.0,84.0
964,152.91474032291666,153.16890711666665,70.0,105.0
965,152.91474032291666,153.16890711666665,73.0,97.0
966,152.91474032291666,153.17862934374998,78.0,84.0
967,153.24807382291664,153.76335185833332,56.0,102.0
968,153.58140732291665,153.84529634374996,75.0,102.0
969,153.58140732291665,153.86890746666666,71.0,108.0
970,153.58140732291665,153.88696303125,68.0,97.0
971,154.24807432291664,154.47307443541663,71.0,100.0
972,154.24807432291664,154.49112999999997,75.0,97.0
973,154.24807432291664,154.50224111666665,68.0,94.0
974,153.91474082291666,154.5133522333333,63.0,80.0
975,154.91474132291665,155.34529709375,71.0,105.0
976,154.91474132291665,155.34946376249997,75.0,94.0
977,154.91474132291665,155.35224154166664,68.0,97.0
978,154.58140782291665,155.6800194833333,56.0,89.0
979,155.24807482291664,155.72168617083332,63.0,97.0
980,155.58140832291664,155.7258528395833,71.0,100.0
981,155.58140832291664,155.73696395624998,68.0,97.0
982,155.58140832291664,155.74390840416663,75.0,102.0
983,155.91474182291665,156.34529759375,66.0,92.0
984,155.91474182291665,156.48418655208332,71.0,97.0
985,155.91474182291665,156.48696433124996,75.0,97.0
986,155.91474182291665,156.53696435624997,59.0,94.0
987,156.58140882291664,157.04807572291665,71.0,92.0
988,156.58140882291664,157.08140907291664,68.0,87.0
989,156.58140882291664,157.13002020833332,56.0,102.0
990,157.24807582291663,157.47029815624998,66.0,71.0
991,157.24807582291663,157.48140927291664,70.0,94.0
992,157.24807582291663,157.73974273541666,54.0,100.0
993,157.58140932291664,157.8925205895833,73.0,89.0
994,157.58140932291664,157.9175206020833,70.0,97.0
995,157.58140932291664,157.97724285416663,66.0,94.0
996,158.24807632291663,158.4341875270833,70.0,114.0
997,157.91474282291665,158.4383541958333,61.0,71.0
998,158.24807632291663,158.44252086458332,66.0,100.0
999,158.24807632291663,158.45224309166665,73.0,100.0
1000,158.58140982291664,159.1925212395833,59.0,100.0
1001,158.91474332291665,159.24113237499998,75.0,94.0
1002,158.91474332291665,159.24391015416666,71.0,97.0
1003,158.91474332291665,159.2591879395833,66.0,92.0
1004,159.24807682291663,159.71196594375,54.0,100.0
1005,159.58141032291664,159.76752152708332,71.0,102.0
1006,159.58141032291664,159.77863264374997,66.0,94.0
1007,159.58141032291664,159.78141042291665,75.0,100.0
1008,159.91474382291665,160.47446632499998,59.0,97.0
1009,160.24807732291663,160.68557754166665,75.0,100.0
1010,160.24807732291663,160.69113309999997,71.0,108.0
1011,160.24807732291663,160.72029978125,66.0,97.0
1012,160.58141082291664,161.0341888270833,54.0,105.0
1013,160.91474432291665,161.36752232708332,75.0,100.0
1014,160.91474432291665,161.3841890020833,71.0,108.0
1015,160.91474432291665,161.41752235208332,66.0,94.0
1016,161.58141132291664,161.77863364374997,78.0,120.0
1017,161.24807782291666,161.78974476041665,59.0,82.0
1018,161.91474482291665,162.18696718124997,75.0,92.0
1019,161.91474482291665,162.34946726249999,54.0,105.0
1020,162.24807832291665,162.41057840416664,73.0,117.0
1021,162.58141182291664,163.03696760625,75.0,94.0
1022,162.58141182291664,163.0633565083333,71.0,94.0
1023,162.58141182291664,163.07863429374999,59.0,94.0
1024,162.58141182291664,163.08141207291663,66.0,82.0
1025,163.24807882291665,163.4050233458333,66.0,84.0
1026,163.24807882291665,163.47863449374998,71.0,97.0
1027,163.24807882291665,163.48141227291666,75.0,97.0
1028,163.24807882291665,163.4994678375,59.0,100.0
1029,163.58125882291662,163.82573380416665,70.0,94.0
1030,163.58125882291662,163.83402109166664,73.0,89.0
1031,163.58125882291662,163.83816473541663,58.0,94.0
1032,163.91275032291662,164.26634125624997,71.0,100.0
1033,163.91275032291662,164.27739097291663,68.0,100.0
1034,164.40998757291663,164.49009801874996,71.0,108.0
1035,164.40998757291663,164.49286044791663,68.0,102.0
1036,164.57573332291665,164.93208668541664,68.0,94.0
1037,164.57573332291665,164.9845728395833,71.0,84.0
1038,164.57573332291665,165.03567777916663,75.0,108.0
1039,163.91275032291662,165.14755616041663,56.0,100.0
1040,164.57573332291665,165.17379923749996,63.0,108.0
1041,165.23871632291664,165.57987632499996,68.0,87.0
1042,165.23871632291664,165.59506968541663,71.0,87.0
1043,165.73595357291663,165.82297009166663,68.0,92.0
1044,165.90169932291664,166.07849478958332,68.0,102.0
1045,165.90169932291664,166.29948912291664,75.0,97.0
1046,165.90169932291664,166.31330126874997,71.0,111.0
1047,166.23319082291664,166.41965479166663,68.0,87.0
1048,165.23871632291664,166.43346693749996,56.0,89.0
1049,165.90169932291664,166.4638536583333,63.0,102.0
1050,166.56468232291664,166.91827325624996,71.0,100.0
1051,166.56468232291664,166.92932297291662,68.0,100.0
1052,167.06191957291662,167.14203001874998,71.0,108.0
1053,167.06191957291662,167.14479244791664,68.0,102.0
1054,167.22766532291664,167.58401868541662,68.0,94.0
1055,167.22766532291664,167.6365048395833,71.0,84.0
1056,167.22766532291664,167.68760977916665,75.0,108.0
1057,166.56468232291664,167.79948816041664,56.0,100.0
1058,167.22766532291664,167.82573123749998,63.0,108.0
1059,167.89064832291663,168.23180832499997,68.0,87.0
1060,167.89064832291663,168.24700168541665,71.0,87.0
1061,168.38788557291664,168.47490209166665,68.0,92.0
1062,168.55363132291663,168.7304267895833,68.0,102.0
1063,168.55363132291663,168.95142112291663,75.0,97.0
1064,168.55363132291663,168.96523326874996,71.0,111.0
1065,168.88512282291663,169.07158679166665,68.0,87.0
1066,167.89064832291663,169.08539893749997,56.0,89.0
1067,168.55363132291663,169.1157856583333,63.0,102.0
1068,169.21661432291663,169.57020525624998,71.0,100.0
1069,169.21661432291663,169.58125497291664,68.0,100.0
1070,169.71385157291664,169.79396201874997,71.0,108.0
1071,169.71385157291664,169.79672444791663,68.0,102.0
1072,169.87959732291662,170.23595068541664,68.0,94.0
1073,169.87959732291662,170.2884368395833,71.0,84.0
1074,169.87959732291662,170.33954177916664,75.0,108.0
1075,169.21661432291663,170.45142016041663,56.0,100.0
1076,169.87959732291662,170.47766323749997,63.0,108.0
1077,170.54258032291665,170.88374032499996,68.0,87.0
1078,170.54258032291665,170.89893368541664,71.0,87.0
1079,171.03981757291663,171.12683409166664,68.0,92.0
1080,171.20556332291665,171.3823587895833,68.0,102.0
1081,171.20556332291665,171.60335312291664,75.0,97.0
1082,171.20556332291665,171.61716526874997,71.0,111.0
1083,171.53705482291664,171.72351879166663,68.0,87.0
1084,170.54258032291665,171.73733093749996,56.0,89.0
1085,171.20556332291665,171.7677176583333,63.0,102.0
1086,171.86854632291664,172.19589417916663,73.0,92.0
1087,171.86854632291664,172.20141903749996,66.0,97.0
1088,172.36578357291663,172.43622551666664,66.0,82.0
1089,172.36578357291663,172.4389879458333,70.0,100.0
1090,172.20003782291664,172.70694357499997,61.0,71.0
1091,172.53152932291664,172.83125288749997,66.0,102.0
1092,172.53152932291664,172.90583847499997,70.0,108.0
1093,171.86854632291664,173.04257871874998,54.0,102.0
1094,173.02876657291662,173.07572786874996,66.0,40.0
1095,172.86302082291664,173.1392637395833,61.0,67.0
1096,173.19451232291664,173.56882147499996,66.0,89.0
1097,173.19451232291664,173.57158390416663,70.0,108.0
1098,173.19451232291664,173.57987119166663,73.0,102.0
1099,173.69174957291665,173.76219151666663,70.0,100.0
1100,173.69174957291665,173.7649539458333,66.0,53.0
1101,173.52600382291664,174.0425780770833,61.0,62.0
1102,173.85749532291663,174.20694261249997,66.0,92.0
1103,173.85749532291663,174.26909726874996,70.0,114.0
1104,173.85749532291663,174.26909726874996,73.0,114.0
1105,173.19451232291664,174.47489824166664,54.0,105.0
1106,174.18898682291663,174.49561646041664,61.0,94.0
1107,174.52047832291663,174.70970472083332,66.0,92.0
1108,174.52047832291663,174.70970472083332,71.0,97.0
1109,174.85196982291663,174.9168869083333,71.0,58.0
1110,174.85196982291663,174.9168869083333,75.0,67.0
1111,175.01771557291664,175.07572658541665,66.0,60.0
1112,175.01771557291664,175.08539508749996,71.0,82.0
1113,175.01771557291664,175.0909199458333,75.0,71.0
1114,175.18346132291663,175.32020156666664,66.0,102.0
1115,175.18346132291663,175.3271076395833,71.0,102.0
1116,175.18346132291663,175.3436822145833,75.0,108.0
1117,174.52047832291663,175.39340593958332,59.0,105.0
1118,175.51495282291663,175.6751737145833,66.0,80.0
1119,175.84644432291662,176.08401323124997,66.0,84.0
1120,175.84644432291662,176.08401323124997,71.0,92.0
1121,176.17793582291662,176.23732804999997,66.0,64.0
1122,176.17793582291662,176.24009047916664,71.0,76.0
1123,176.17793582291662,176.25804626874998,75.0,84.0
1124,176.34368157291664,176.4127423020833,71.0,89.0
1125,176.34368157291664,176.41826716041663,66.0,73.0
1126,176.34368157291664,176.4210295895833,75.0,92.0
1127,175.84644432291662,176.7027973645833,59.0,102.0
1128,176.50942732291662,176.70970343749997,66.0,97.0
1129,176.50942732291662,176.8022448145833,71.0,108.0
1130,176.50942732291662,176.83539396458332,75.0,105.0
1131,176.84091882291665,176.9597032770833,59.0,84.0
1132,177.17241032291665,177.4237913770833,66.0,89.0
1133,177.17241032291665,177.43345987916663,71.0,89.0
1134,177.50390182291665,177.5481006895833,66.0,62.0
1135,177.50390182291665,177.56329404999997,71.0,78.0
1136,177.50390182291665,177.57572498124998,75.0,87.0
1137,177.66964757291663,177.7469955895833,66.0,80.0
1138,177.66964757291663,177.7469955895833,71.0,92.0
1139,177.66964757291663,177.74975801874996,75.0,87.0
1140,177.83539332291664,177.96522749374998,71.0,108.0
1141,177.83539332291664,177.97213356666663,75.0,117.0
1142,177.83539332291664,177.97627721041664,66.0,102.0
1143,177.17241032291665,178.18484061249998,59.0,97.0
1144,178.16688482291664,178.41550344791665,75.0,87.0
1145,178.16688482291664,178.51218846874997,71.0,84.0
1146,178.16688482291664,178.52876304374996,66.0,76.0
1147,178.82986782291664,178.88926004999996,66.0,55.0
1148,178.82986782291664,178.8947849083333,71.0,80.0
1149,178.82986782291664,178.9072158395833,75.0,82.0
1150,178.99561357291662,179.04257486874997,66.0,45.0
1151,178.99561357291662,179.0605306583333,75.0,73.0
1152,178.99561357291662,179.07019916041665,71.0,82.0
1153,178.49837632291664,179.34782329166663,59.0,102.0
1154,179.16135932291664,179.7235136583333,66.0,97.0
1155,179.16135932291664,179.7442318770833,71.0,108.0
1156,179.16135932291664,179.75942523749998,75.0,111.0
1157,179.49285082291664,179.79257438749997,59.0,100.0
1158,179.82434232291664,180.2953364958333,56.0,102.0
1159,180.15583382291663,180.5853915583333,75.0,94.0
1160,180.15583382291663,180.59091641666663,71.0,100.0
1161,180.15583382291663,180.6061097770833,68.0,94.0
1162,180.81881682291663,181.00942443541663,71.0,108.0
1163,180.48732532291663,181.01080564999998,63.0,80.0
1164,180.81881682291663,181.01771172291663,68.0,97.0
1165,180.81881682291663,181.02599901041663,75.0,100.0
1166,181.15030832291663,181.7994791770833,61.0,100.0
1167,181.48179982291663,181.9983740770833,73.0,87.0
1168,181.48179982291663,182.00113650624996,68.0,100.0
1169,181.48179982291663,182.0066613645833,76.0,97.0
1170,181.81329132291663,182.34367772291665,56.0,105.0
1171,182.14478282291662,182.34505893749997,73.0,102.0
1172,182.14478282291662,182.43069424166663,68.0,100.0
1173,182.14478282291662,182.47213067916664,76.0,97.0
1174,182.80776582291662,183.19036226249997,66.0,100.0
1175,182.80776582291662,183.21108048124998,70.0,105.0
1176,182.80776582291662,183.21798655416663,73.0,102.0
1177,182.47627432291665,183.21936776874998,54.0,105.0
1178,183.13925732291665,183.5605277708333,61.0,92.0
1179,183.47074882291665,183.71522380416664,66.0,114.0
1180,183.80224032291665,184.12295990624997,70.0,108.0
1181,183.80224032291665,184.1383230333333,66.0,92.0
1182,183.80224032291665,184.1383230333333,73.0,102.0
1183,183.80224032291665,184.15368616041664,78.0,94.0
1184,183.80224032291665,185.01122798124996,54.0,102.0
1185,185.1397195895833,185.6467027833333,56.0,102.0
1186,185.4749150895833,185.88413292916664,71.0,97.0
1187,185.4749150895833,185.88413292916664,75.0,94.0
1188,185.4749150895833,185.90368599999996,68.0,92.0
1189,185.8101105895833,186.3170937833333,63.0,89.0
1190,186.1453060895833,186.3380435020833,71.0,97.0
1191,186.1453060895833,186.35619992499997,75.0,94.0
1192,186.1453060895833,186.36457981249995,68.0,92.0
1193,186.8156970895833,187.23189816874998,71.0,105.0
1194,186.8156970895833,187.24446799999996,75.0,105.0
1195,186.8156970895833,187.25703783124996,68.0,105.0
1196,186.4805015895833,187.5573171333333,56.0,92.0
1197,187.4860880895833,187.69837857291662,71.0,100.0
1198,187.4860880895833,187.7207249395833,75.0,100.0
1199,187.4860880895833,187.7291048270833,68.0,100.0
1200,187.1508925895833,187.75145119374997,63.0,92.0
1201,188.15647908958329,188.5922332395833,70.0,108.0
1202,187.8212835895833,188.59921647916664,54.0,78.0
1203,188.15647908958329,188.6089930145833,73.0,97.0
1204,188.15647908958329,188.6131829583333,66.0,100.0
1205,188.4916745895833,188.93301533124998,61.0,87.0
1206,188.8268700895833,189.0112276145833,70.0,111.0
1207,188.8268700895833,189.03357398124996,66.0,102.0
1208,188.8268700895833,189.0489371083333,73.0,100.0
1209,189.4972610895833,189.95675825416663,73.0,100.0
1210,189.4972610895833,189.9623448458333,66.0,100.0
1211,189.4972610895833,189.9623448458333,70.0,105.0
1212,189.1620655895833,189.96374149374998,54.0,94.0
1213,189.8324565895833,190.35166241249996,61.0,80.0
1214,190.1680466208333,190.36013698749997,70.0,102.0
1215,190.1680466208333,190.36578670416665,66.0,100.0
1216,190.1680466208333,190.38132342499998,73.0,97.0
1217,190.50702962083332,191.13556059999996,59.0,94.0
1218,190.8460126208333,191.30081481249997,75.0,97.0
1219,190.8460126208333,191.31070181666664,71.0,105.0
1220,190.8460126208333,191.32200124999997,66.0,102.0
1221,191.5239786208333,191.67934582916664,66.0,97.0
1222,191.18499562083332,191.72454356249997,54.0,102.0
1223,191.5239786208333,191.74290514166665,71.0,102.0
1224,191.5239786208333,191.8544870458333,75.0,94.0
1225,191.86296162083332,192.4138089958333,61.0,108.0
1226,192.2019446208333,192.50137960416663,73.0,102.0
1227,192.2019446208333,192.54092762083332,68.0,105.0
1228,192.2019446208333,192.56776377499997,76.0,102.0
1229,192.54092762083332,193.05505183749997,54.0,108.0
1230,192.8799106208333,193.12426086666665,66.0,97.0
1231,192.8799106208333,193.12426086666665,70.0,102.0
1232,192.8799106208333,193.16522131249997,73.0,94.0
1233,193.2188936208333,193.83188787916663,59.0,102.0
1234,193.5578766208333,193.98019294166664,71.0,102.0
1235,193.5578766208333,193.98019294166664,75.0,97.0
1236,193.5578766208333,194.01832852916664,66.0,94.0
1237,194.2358426208333,194.39120982916666,71.0,100.0
1238,194.2358426208333,194.39827197499997,66.0,92.0
1239,194.2358426208333,194.40250926249996,75.0,100.0
1240,193.8968596208333,194.4138086958333,54.0,97.0
1241,194.5748256208333,195.14544700416664,71.0,102.0
1242,194.5748256208333,195.4943170083333,66.0,100.0
1243,195.2527916208333,195.84459944166665,71.0,111.0
1244,195.2527916208333,195.8502491583333,75.0,102.0
1245,195.59177462083332,195.86013616249997,66.0,97.0
1246,194.5748256208333,195.97595535416664,59.0,89.0
1247,195.9307576208333,195.97595535416664,59.0,92.0
1248,196.26974062083332,196.39827167499996,71.0,100.0
1249,196.26974062083332,196.40815867916663,66.0,94.0
1250,196.26974062083332,196.41522082499998,75.0,89.0
1251,196.94770662083332,197.09742411249997,71.0,89.0
1252,196.94770662083332,197.11013597499996,66.0,87.0
1253,196.94770662083332,197.11861054999997,75.0,94.0
1254,196.6087236208333,197.16098342499998,54.0,89.0
1255,197.2866896208333,197.93216974999999,59.0,92.0
1256,197.6256726208333,197.95618104583332,66.0,92.0
1257,197.6256726208333,197.95618104583332,71.0,92.0
1258,197.6256726208333,197.95618104583332,75.0,97.0
1259,198.3036386208333,198.42369509999997,71.0,89.0
1260,198.3036386208333,198.4265199583333,66.0,92.0
1261,198.3036386208333,198.47171769166664,75.0,97.0
1262,197.9646556208333,198.48019226666665,54.0,94.0
1263,198.9816046208333,199.34459891666665,71.0,92.0
1264,198.9816046208333,199.37708478749997,68.0,94.0
1265,198.6426216208333,199.3799096458333,56.0,97.0
1266,198.9816046208333,199.38979664999997,75.0,92.0
1267,199.3205876208333,199.63555932499997,63.0,78.0
1268,199.6595706208333,199.77962709999997,71.0,100.0
1269,199.6595706208333,199.78810167499998,75.0,92.0
1270,199.6595706208333,199.79375139166663,68.0,100.0
1271,199.99855362083332,200.47877953749997,56.0,89.0
1272,200.3375366208333,200.51409026666664,71.0,97.0
1273,200.3375366208333,200.5211524125,68.0,97.0
1274,200.3375366208333,200.5211524125,75.0,94.0
1275,201.0155026208333,201.18640655,75.0,94.0
1276,201.0155026208333,201.1892314083333,71.0,94.0
1277,201.0155026208333,201.2019432708333,68.0,97.0
1278,200.67651962083332,201.24149128749997,63.0,82.0
1279,201.6934686208333,202.04657591249997,75.0,100.0
1280,201.6934686208333,202.05646291666665,71.0,102.0
1281,201.6934686208333,202.07764935416665,66.0,97.0
1282,201.35448562083332,202.2655024333333,59.0,97.0
1283,202.3714346208333,202.56776227499998,75.0,100.0
1284,202.3714346208333,202.57199956249997,66.0,94.0
1285,202.3714346208333,202.57341199166663,71.0,105.0
1286,202.7104176208333,203.22877912499996,54.0,89.0
1287,203.0494006208333,203.46182993749997,70.0,108.0
1288,203.0494006208333,203.46606722499996,73.0,102.0
1289,203.0494006208333,203.49290337916665,66.0,97.0
1290,203.3883836208333,203.83047394999997,61.0,64.0
1291,203.7273666208333,203.89827054999998,70.0,111.0
1292,203.7273666208333,203.9010954083333,66.0,100.0
1293,203.7273666208333,203.91098241249998,73.0,97.0
1294,204.0663496208333,204.36860946249996,59.0,100.0
1295,204.4053326208333,204.71465460833332,54.0,102.0
1296,204.4053326208333,204.71747946666665,66.0,97.0
1297,204.7443156208333,204.95476756666665,56.0,97.0
1298,204.7443156208333,205.03810088749998,68.0,111.0
1299,205.08329862083332,205.36154716666664,54.0,102.0
1300,205.08329862083332,205.36578445416663,66.0,100.0
1301,205.4222816208333,205.71606688749998,59.0,108.0
1302,205.4222816208333,205.75561490416663,71.0,111.0
1303,205.76126462083332,206.0197391583333,66.0,92.0
1304,205.76126462083332,206.03386344999998,54.0,105.0
1305,206.1002476208333,206.29516284583332,56.0,76.0
1306,206.1002476208333,206.36719673333332,68.0,105.0
1307,206.4392306208333,206.6736938625,66.0,100.0
1308,206.4392306208333,206.7061797333333,54.0,100.0
1309,206.7782136208333,206.96747912916663,71.0,100.0
1310,206.7782136208333,206.98442827916665,66.0,92.0
1311,206.7782136208333,207.0296260125,59.0,105.0
1312,207.4561796208333,207.7019422958333,59.0,105.0
1313,207.4561796208333,207.80081233749996,71.0,80.0
1314,207.4561796208333,207.8121117708333,75.0,69.0
1315,207.4561796208333,207.83894792499999,83.0,97.0
