,start,end,pitch,velocity
0,39.17459056666667,39.49444316666667,69.0,76.0
1,39.61576656666667,39.944810333333336,69.0,72.0
2,40.05694256666667,40.39333926666667,69.0,76.0
3,40.49811856666667,40.6653978,69.0,76.0
4,40.71870656666667,41.09922086666667,66.0,74.0
5,41.15988256666667,42.30510193333334,69.0,76.0
6,42.48341056666667,42.66355743333334,62.0,76.0
7,42.70399856666667,42.9981159,74.0,83.0
8,43.14517456666667,43.39149783333334,74.0,80.0
9,43.58635056666667,43.9962766,74.0,80.0
10,44.02752656666667,44.404364400000006,66.0,75.0
11,44.46870256666667,45.76465706666667,69.0,76.0
12,46.23340656666667,46.54222976666667,71.0,76.0
13,46.67458256666667,46.93377346666667,71.0,76.0
14,47.11575856666667,47.448478800000004,71.0,77.0
15,47.55693456666667,47.72053733333334,71.0,76.0
16,47.77752256666667,48.16538980000001,69.0,76.0
17,48.21869856666667,49.305094466666674,71.0,74.0
18,49.54222656666667,49.69112346666667,66.0,71.0
19,49.76281456666667,50.123108300000005,66.0,76.0
20,50.20399056666667,50.51281376666667,64.0,77.0
21,50.64516656666667,51.11759253333334,64.0,78.0
22,51.08634256666667,51.305092333333334,62.0,71.0
23,51.30693056666667,51.76832713333334,66.0,76.0
24,51.74810656666667,52.86207596666667,64.0,78.0
25,53.29222256666667,54.05692763333334,66.0,78.0
26,54.17457456666667,54.503618333333335,69.0,77.0
27,54.61575056666667,54.77567686666667,69.0,72.0
28,54.83633856666667,55.27016163333334,71.0,77.0
29,55.27751456666667,56.35104283333334,66.0,77.0
30,56.60104256666667,56.8179541,66.0,77.0
31,56.82163056666667,57.13045376666667,74.0,82.0
32,57.26280656666667,57.55508566666667,74.0,78.0
33,57.703982566666674,58.130452700000006,74.0,80.0
34,58.14515856666667,58.38596713333334,66.0,72.0
35,58.36574656666667,59.55876000000001,71.0,73.0
36,60.35103856666667,60.696626433333336,71.0,77.0
37,60.79221456666667,61.1414789,71.0,78.0
38,61.23339056666667,61.5385373,74.0,83.0
39,61.67456656666667,62.07530143333334,74.0,79.0
40,62.11574256666667,62.7076537,69.0,75.0
41,62.77750656666667,63.341844200000004,66.0,74.0
42,63.43927056666667,63.57162336666667,69.0,76.0
43,63.65985856666667,63.80324076666667,69.0,75.0
44,63.88044656666667,64.0422111,71.0,76.0
45,64.10103456666667,64.45213713333334,74.0,80.0
46,64.54221056666667,65.6690476,74.0,82.0
47,66.52750256666667,66.82897283333334,74.0,81.0
48,66.96867856666667,67.15617836666667,74.0,80.0
49,67.18926656666667,67.38044283333333,71.0,77.0
50,67.40985456666667,71.04955656666667,76.0,76.0
51,74.02749456666668,74.15800913333334,69.0,78.0
52,74.24808256666667,74.39146476666667,69.0,76.0
53,74.46867056666667,74.59918513333334,78.0,74.0
54,74.68925856666667,74.80322903333334,78.0,76.0
55,74.90984656666667,75.02933173333334,78.0,78.0
56,75.13043456666668,75.24072856666668,78.0,76.0
57,75.35102256666667,75.68190456666667,78.0,78.0
58,75.79219856666667,76.12124233333334,74.0,79.0
59,76.23337456666667,76.35469796666668,76.0,77.0
60,76.45396256666668,76.79035926666667,78.0,76.0
61,76.89513856666667,77.34366750000001,76.0,78.0
62,77.55690256666668,77.73888766666667,78.0,78.0
63,77.77749056666667,77.8951375,76.0,80.0
64,77.99807856666668,78.1322696,74.0,83.0
65,78.21866656666667,78.5238133,74.0,78.0
66,78.65984256666667,78.7940336,74.0,79.0
67,78.88043056666667,79.246239,74.0,81.0
68,79.32160656666667,79.66167973333334,66.0,78.0
69,79.76278256666667,80.49623766666667,69.0,77.0
70,81.08631056666667,81.19660456666668,69.0,78.0
71,81.30689856666667,81.43925136666667,69.0,77.0
72,81.52748656666667,81.71682460000001,71.0,77.0
73,81.74807456666667,82.08630950000001,74.0,79.0
74,82.18925056666667,82.7866764,74.0,81.0
75,82.85101456666668,83.28483763333334,71.0,76.0
76,83.29219056666668,84.28116010000001,69.0,76.0
77,84.61571856666667,84.71865963333335,69.0,78.0
78,84.83630656666668,84.9484388,69.0,78.0
79,85.05689456666667,85.45579120000001,71.0,73.0
80,85.49807056666667,85.85284960000001,74.0,80.0
81,85.93924656666667,86.35652553333334,74.0,80.0
82,86.38042256666667,86.85284853333334,71.0,76.0
83,86.82159856666668,87.99439143333333,76.0,77.0
84,88.14512656666668,88.27564113333334,69.0,78.0
85,88.36571456666667,88.50909676666667,69.0,76.0
86,88.58630256666667,88.71681713333334,78.0,74.0
87,88.80689056666667,88.92086103333334,78.0,76.0
88,89.02747856666667,89.14696373333334,78.0,78.0
89,89.24806656666668,89.35836056666668,78.0,76.0
90,89.46865456666667,89.79953656666667,78.0,78.0
91,89.90983056666667,90.23887433333334,74.0,79.0
92,90.35100656666667,90.47232996666668,76.0,77.0
93,90.57159456666668,90.90799126666667,78.0,76.0
94,91.01277056666667,91.46129950000001,76.0,78.0
95,91.67453456666668,91.85651966666667,78.0,78.0
96,91.89512256666667,92.0127695,76.0,80.0
97,92.11571056666668,92.2499016,74.0,83.0
98,92.33629856666667,92.6414453,74.0,78.0
99,92.77747456666667,92.9116656,74.0,79.0
100,92.99806256666668,93.363871,74.0,81.0
101,93.43923856666667,93.77931173333334,81.0,78.0
102,93.88041456666667,94.61386966666667,81.0,77.0
103,95.20394256666667,95.31423656666668,69.0,78.0
104,95.42453056666668,95.55688336666667,69.0,77.0
105,95.64511856666667,95.83445660000001,71.0,77.0
106,95.86570656666667,96.20394150000001,74.0,79.0
107,96.30688256666667,96.9043084,74.0,81.0
108,96.96864656666668,97.40246963333334,71.0,76.0
109,97.40982256666668,98.39879210000001,69.0,76.0
110,98.73335056666667,98.83629163333335,69.0,78.0
111,98.95393856666668,99.0660708,69.0,78.0
112,99.17452656666667,99.57342320000001,71.0,73.0
113,99.61570256666667,99.97048160000001,74.0,80.0
114,100.05687856666667,100.47415753333334,74.0,80.0
115,100.49805456666668,100.97048053333334,71.0,76.0
116,100.93923056666668,101.82342080000001,76.0,77.0
117,101.82158256666668,102.11937636666667,74.0,78.0
118,102.26275856666668,102.60834643333334,73.0,77.0
119,102.70393456666667,104.49988853333335,74.0,78.0
120,123.88038256666668,124.20023516666667,69.0,76.0
121,124.32155856666668,124.65060233333334,69.0,72.0
122,124.76273456666668,125.09913126666667,69.0,76.0
123,125.20391056666668,125.37118980000001,69.0,76.0
124,125.42449856666667,125.80501286666667,66.0,74.0
125,125.86567456666667,127.01089393333335,69.0,76.0
126,127.18920256666668,127.36934943333334,62.0,76.0
127,127.40979056666667,127.7039079,74.0,83.0
128,127.85096656666667,128.09728983333335,74.0,80.0
129,128.29214256666668,128.70206860000002,74.0,80.0
130,128.73331856666667,129.11015640000002,66.0,75.0
131,129.17449456666668,130.47044906666667,69.0,76.0
132,130.93919856666668,131.24802176666668,71.0,76.0
133,131.3803745666667,131.63956546666668,71.0,76.0
134,131.82155056666667,132.1542708,71.0,77.0
135,132.2627265666667,132.42632933333334,71.0,76.0
136,132.48331456666668,132.87118180000002,69.0,76.0
137,132.9244905666667,134.01088646666668,71.0,74.0
138,134.24801856666667,134.39691546666668,66.0,71.0
139,134.46860656666667,134.82890030000002,66.0,76.0
140,134.90978256666668,135.21860576666668,64.0,77.0
141,135.3509585666667,135.82338453333335,64.0,78.0
142,135.79213456666668,136.01088433333334,62.0,71.0
143,136.01272256666667,136.47411913333335,66.0,76.0
144,136.45389856666668,137.56786796666668,64.0,78.0
145,137.99801456666668,138.76271963333335,66.0,78.0
146,138.88036656666668,139.20941033333335,69.0,77.0
147,139.32154256666666,139.4814688666667,69.0,72.0
148,139.54213056666669,139.97595363333335,71.0,77.0
149,139.98330656666667,141.05683483333334,66.0,77.0
150,141.30683456666668,141.5237461,66.0,77.0
151,141.52742256666667,141.83624576666668,74.0,82.0
152,141.96859856666669,142.2608776666667,74.0,78.0
153,142.40977456666667,142.8362447,74.0,80.0
154,142.85095056666668,143.09175913333334,66.0,72.0
155,143.07153856666667,144.264552,71.0,73.0
156,145.0568305666667,145.40241843333334,71.0,77.0
157,145.49800656666667,145.8472709,71.0,78.0
158,145.9391825666667,146.2443293,74.0,83.0
159,146.38035856666667,146.78109343333335,74.0,79.0
160,146.82153456666668,147.4134457,69.0,75.0
161,147.4832985666667,148.0476362,66.0,74.0
162,148.14506256666667,148.27741536666667,69.0,76.0
163,148.3656505666667,148.50903276666668,69.0,75.0
164,148.58623856666668,148.7480031,71.0,76.0
165,148.80682656666667,149.15792913333334,74.0,80.0
166,149.24800256666668,150.3748396,74.0,82.0
167,151.23329456666667,151.53476483333336,74.0,81.0
168,151.67447056666668,151.86197036666667,74.0,80.0
169,151.89505856666668,152.08623483333335,71.0,77.0
170,152.11564656666667,155.75534856666667,76.0,76.0
171,158.7332865666667,158.86380113333334,69.0,78.0
172,158.95387456666668,159.09725676666667,69.0,76.0
173,159.17446256666668,159.30497713333335,78.0,74.0
174,159.39505056666667,159.50902103333334,78.0,76.0
175,159.6156385666667,159.73512373333335,78.0,78.0
176,159.83622656666668,159.9465205666667,78.0,76.0
177,160.05681456666667,160.38769656666668,78.0,78.0
178,160.4979905666667,160.82703433333336,74.0,79.0
179,160.93916656666667,161.06048996666667,76.0,77.0
180,161.1597545666667,161.4961512666667,78.0,76.0
181,161.60093056666668,162.0494595,76.0,78.0
182,162.26269456666668,162.44467966666667,78.0,78.0
183,162.48328256666667,162.6009295,76.0,80.0
184,162.70387056666667,162.8380616,74.0,83.0
185,162.9244585666667,163.2296053,74.0,78.0
186,163.36563456666667,163.4998256,74.0,79.0
187,163.5862225666667,163.952031,74.0,81.0
188,164.02739856666668,164.36747173333333,66.0,78.0
189,164.4685745666667,165.20202966666668,69.0,77.0
190,165.79210256666667,165.90239656666668,69.0,78.0
191,166.0126905666667,166.14504336666667,69.0,77.0
192,166.23327856666668,166.42261660000003,71.0,77.0
193,166.45386656666668,166.7921015,74.0,79.0
194,166.8950425666667,167.4924684,74.0,81.0
195,167.55680656666667,167.99062963333336,71.0,76.0
196,167.99798256666668,168.98695210000002,69.0,76.0
197,169.3215105666667,169.42445163333335,69.0,78.0
198,169.54209856666668,169.65423080000002,69.0,78.0
199,169.76268656666667,170.16158320000002,71.0,73.0
200,170.2038625666667,170.55864160000002,74.0,80.0
201,170.64503856666667,171.06231753333336,74.0,80.0
202,171.08621456666668,171.55864053333335,71.0,76.0
203,171.52739056666667,172.70018343333334,76.0,77.0
204,172.85091856666668,172.98143313333335,69.0,78.0
205,173.07150656666667,173.2148887666667,69.0,76.0
206,173.2920945666667,173.42260913333334,78.0,74.0
207,173.51268256666668,173.62665303333335,78.0,76.0
208,173.73327056666668,173.85275573333334,78.0,78.0
209,173.95385856666667,174.06415256666668,78.0,76.0
210,174.1744465666667,174.5053285666667,78.0,78.0
211,174.61562256666667,174.94466633333334,74.0,79.0
212,175.05679856666669,175.17812196666668,76.0,77.0
213,175.27738656666668,175.61378326666667,78.0,76.0
214,175.7185625666667,176.16709150000003,76.0,78.0
215,176.38032656666667,176.5623116666667,78.0,78.0
216,176.6009145666667,176.71856150000002,76.0,80.0
217,176.82150256666668,176.95569360000002,74.0,83.0
218,177.04209056666667,177.34723730000002,74.0,78.0
219,177.48326656666669,177.61745760000002,74.0,79.0
220,177.70385456666668,178.06966300000002,74.0,81.0
221,178.1450305666667,178.48510373333335,81.0,78.0
222,178.58620656666668,179.3196616666667,81.0,77.0
223,179.90973456666669,180.02002856666667,69.0,78.0
224,180.13032256666668,180.26267536666668,69.0,77.0
225,180.35091056666667,180.5402486,71.0,77.0
226,180.5714985666667,180.90973350000002,74.0,79.0
227,181.01267456666667,181.61010040000002,74.0,81.0
228,181.67443856666668,182.10826163333334,71.0,76.0
229,182.1156145666667,183.1045841,69.0,76.0
230,183.43914256666667,183.54208363333333,69.0,78.0
231,183.65973056666667,183.7718628,69.0,78.0
232,183.8803185666667,184.2792152,71.0,73.0
233,184.32149456666667,184.6762736,74.0,80.0
234,184.76267056666669,185.17994953333334,74.0,80.0
235,185.20384656666667,185.67627253333336,71.0,76.0
236,185.64502256666668,186.5292128,76.0,77.0
237,186.52737456666668,186.82516836666667,74.0,78.0
238,186.9685505666667,187.31413843333334,73.0,77.0
239,187.40972656666668,189.20568053333335,74.0,78.0
240,190.49795856666668,190.62847313333336,69.0,78.0
241,190.71854656666667,190.8619287666667,69.0,76.0
242,190.9391345666667,191.06964913333334,78.0,74.0
243,191.1597225666667,191.27369303333336,78.0,76.0
244,191.38031056666668,191.49979573333334,78.0,78.0
245,191.60089856666667,191.71119256666668,78.0,76.0
246,191.8214865666667,192.1523685666667,78.0,78.0
247,192.26266256666668,192.59170633333335,74.0,79.0
248,192.7038385666667,192.82516196666668,76.0,77.0
249,192.92442656666668,193.26082326666668,78.0,76.0
250,193.3656025666667,193.8141315,76.0,78.0
251,194.02736656666667,194.2093516666667,78.0,78.0
252,194.2479545666667,194.36560150000003,76.0,80.0
253,194.46854256666668,194.60273360000002,74.0,83.0
254,194.68913056666668,194.99427730000002,74.0,78.0
255,195.1303065666667,195.26449760000003,74.0,79.0
256,195.35089456666668,195.71670300000002,74.0,81.0
257,195.7920705666667,196.13214373333335,66.0,78.0
258,196.23324656666668,196.9667016666667,69.0,77.0
259,197.5567745666667,197.66706856666667,69.0,78.0
260,197.77736256666668,197.9097153666667,69.0,77.0
261,197.99795056666667,198.18728860000002,71.0,77.0
262,198.2185385666667,198.55677350000002,74.0,79.0
263,198.65971456666668,199.25714040000003,74.0,81.0
264,199.32147856666668,199.75530163333335,71.0,76.0
265,199.76265456666667,200.75162410000002,69.0,76.0
266,201.08618256666668,201.18912363333334,69.0,78.0
267,201.30677056666667,201.4189028,69.0,78.0
268,201.5273585666667,201.9262552,71.0,73.0
269,201.96853456666668,202.3233136,74.0,80.0
270,202.4097105666667,202.82698953333335,74.0,80.0
271,202.85088656666667,203.32331253333334,71.0,76.0
272,203.2920625666667,204.46485543333335,76.0,77.0
273,204.61559056666667,204.74610513333334,69.0,78.0
274,204.8361785666667,204.97956076666668,69.0,76.0
275,205.05676656666668,205.18728113333336,78.0,74.0
276,205.27735456666667,205.39132503333335,78.0,76.0
277,205.4979425666667,205.61742773333336,78.0,78.0
278,205.7185305666667,205.82882456666667,78.0,76.0
279,205.93911856666668,206.27000056666668,78.0,78.0
280,206.3802945666667,206.70933833333333,74.0,79.0
281,206.82147056666668,206.94279396666667,76.0,77.0
282,207.04205856666667,207.3784552666667,78.0,76.0
283,207.48323456666668,207.93176350000002,76.0,78.0
284,208.1449985666667,208.32698366666668,78.0,78.0
285,208.36558656666668,208.4832335,76.0,80.0
286,208.58617456666667,208.7203656,74.0,83.0
287,208.8067625666667,209.1119093,74.0,78.0
288,209.24793856666668,209.3821296,74.0,79.0
289,209.4685265666667,209.834335,74.0,81.0
290,209.90970256666668,210.24977573333334,81.0,78.0
291,210.3508785666667,211.08433366666668,81.0,77.0
292,211.67440656666668,211.7847005666667,69.0,78.0
293,211.8949945666667,212.02734736666667,69.0,77.0
294,212.1155825666667,212.3049206,71.0,77.0
295,212.33617056666668,212.6744055,74.0,79.0
296,212.7773465666667,213.3747724,74.0,81.0
297,213.43911056666667,213.87293363333336,71.0,76.0
298,213.88028656666668,214.86925610000003,69.0,76.0
299,215.2038145666667,215.30675563333335,69.0,78.0
300,215.42440256666669,215.53653480000003,69.0,78.0
301,215.64499056666668,216.04388720000003,71.0,73.0
302,216.0861665666667,216.44094560000002,74.0,80.0
303,216.52734256666668,216.94462153333336,74.0,80.0
304,216.9685185666667,217.44094453333335,71.0,76.0
305,217.40969456666667,218.29388480000003,76.0,77.0
306,218.29204656666667,218.5898403666667,74.0,78.0
307,218.73322256666668,219.07881043333336,73.0,77.0
308,219.1743985666667,220.97035253333334,74.0,78.0
