,start,end,pitch,velocity
0,21.52755056666667,22.132329333333335,57.0,65.0
1,21.52755056666667,22.4558584,62.0,68.0
2,22.40990256666667,22.6709317,57.0,78.0
3,22.85107856666667,23.06615186666667,57.0,77.0
4,22.85107856666667,23.12681356666667,66.0,67.0
5,23.73343056666667,23.90438626666667,57.0,59.0
6,24.174606566666668,24.2922535,62.0,77.0
7,24.174606566666668,24.3584299,57.0,76.0
8,21.968726566666668,24.62129726666667,45.0,55.0
9,21.52755056666667,24.935635166666668,38.0,78.0
10,25.05695856666667,25.297767133333334,55.0,69.0
11,25.05695856666667,25.53673746666667,58.0,70.0
12,25.05695856666667,25.621296200000003,62.0,75.0
13,25.498134566666668,26.452177666666667,55.0,71.0
14,25.93931056666667,26.979750633333335,58.0,76.0
15,26.38048656666667,27.310632633333334,67.0,73.0
16,27.26283856666667,27.56063236666667,55.0,61.0
17,25.05695856666667,28.0201907,38.0,79.0
18,27.704014566666668,28.154381733333334,62.0,76.0
19,27.704014566666668,28.163572900000002,58.0,74.0
20,28.14519056666667,28.487101966666668,55.0,78.0
21,28.58636656666667,29.12129246666667,59.0,68.0
22,28.58636656666667,29.23158646666667,55.0,71.0
23,28.58636656666667,29.626806633333334,43.0,76.0
24,29.027542566666668,29.635997800000002,50.0,65.0
25,29.46871856666667,29.884159300000004,59.0,77.0
26,29.46871856666667,29.959526866666668,62.0,75.0
27,29.90989456666667,29.999968000000003,55.0,74.0
28,30.351070566666667,30.95217286666667,62.0,74.0
29,30.351070566666667,30.954011100000002,59.0,69.0
30,30.79224656666667,31.634157433333336,54.0,63.0
31,30.351070566666667,31.727907333333334,47.0,76.0
32,31.23342256666667,31.737098500000002,66.0,76.0
33,31.23342256666667,31.753642600000003,59.0,77.0
34,32.115774566666666,33.01467066666667,62.0,72.0
35,32.55695056666667,33.34922913333334,50.0,73.0
36,32.115774566666666,33.39334673333334,43.0,77.0
37,32.99812656666667,33.4411408,58.0,79.0
38,33.43930256666667,33.56981713333334,55.0,76.0
39,33.88047856666667,34.34738983333334,57.0,77.0
40,34.54224256666667,35.009153833333336,57.0,74.0
41,34.98341856666667,35.235256533333335,64.0,72.0
42,34.321654566666666,35.46135923333333,52.0,68.0
43,33.88047856666667,35.46871216666667,45.0,77.0
44,35.20400656666667,35.7297413,57.0,69.0
45,35.42459456666667,35.974226333333334,64.0,71.0
46,36.08635856666667,36.35106416666667,64.0,71.0
47,36.30694656666667,36.89701946666667,69.0,72.0
48,36.748122566666666,37.088195733333336,57.0,55.0
49,36.96871056666667,37.23709263333333,64.0,65.0
50,37.18929856666667,37.555107,69.0,70.0
51,37.63047456666667,37.92826836666667,57.0,63.0
52,37.85106256666667,38.1120917,64.0,68.0
53,38.07165056666667,38.520179500000005,69.0,70.0
54,35.86577056666667,38.738929266666666,52.0,62.0
55,35.64518256666667,38.84370856666667,45.0,73.0
56,38.51282656666667,38.89885556666667,57.0,62.0
57,38.73341456666667,39.051428933333334,64.0,64.0
58,38.95400256666667,39.2315758,69.0,62.0
59,39.17459056666667,39.954001500000004,66.0,72.0
60,39.61576656666667,40.2242218,57.0,71.0
61,40.05694256666667,40.58635376666667,64.0,76.0
62,40.93929456666667,41.44480873333334,62.0,61.0
63,40.93929456666667,41.45032343333334,69.0,74.0
64,40.49811856666667,42.05877866666667,57.0,61.0
65,41.82164656666667,42.05877866666667,66.0,66.0
66,41.82164656666667,42.09002863333334,62.0,72.0
67,39.17459056666667,42.12863153333333,50.0,79.0
68,42.70399856666667,43.62495346666667,62.0,74.0
69,43.14517456666667,43.683776933333334,54.0,62.0
70,42.70399856666667,43.78487976666667,47.0,76.0
71,43.58635056666667,44.112085300000004,59.0,77.0
72,44.02752656666667,44.13965880000001,62.0,67.0
73,44.46870256666667,45.08083426666667,61.0,70.0
74,44.90987856666667,45.42090743333333,52.0,72.0
75,45.35105456666667,45.623113100000005,57.0,70.0
76,45.35105456666667,45.8106129,64.0,77.0
77,45.57164256666667,45.8492158,52.0,71.0
78,44.46870256666667,45.8933334,45.0,68.0
79,45.79223056666667,46.0312009,62.0,76.0
80,46.01281856666667,46.2076713,61.0,71.0
81,46.23340656666667,46.69664136666667,59.0,70.0
82,46.23340656666667,47.832669566666674,43.0,76.0
83,46.67458256666667,47.841860733333334,50.0,64.0
84,47.11575856666667,47.89884596666667,55.0,76.0
85,47.99811056666667,48.03487523333334,59.0,60.0
86,47.99811056666667,48.9264184,62.0,71.0
87,48.439286566666674,49.18928576666667,54.0,63.0
88,48.88046256666667,49.4006826,66.0,77.0
89,49.32163856666667,49.63046176666667,59.0,79.0
90,47.99811056666667,49.6323,47.0,76.0
91,49.54222656666667,49.78487336666667,62.0,75.0
92,49.76281456666667,50.2720052,64.0,74.0
93,50.20399056666667,50.69479886666667,59.0,76.0
94,49.76281456666667,51.09737196666667,52.0,77.0
95,51.08634256666667,51.330827600000006,59.0,70.0
96,50.64516656666667,51.34553346666667,67.0,72.0
97,51.30693056666667,51.955826933333334,64.0,71.0
98,51.96869456666667,52.26465013333334,57.0,74.0
99,51.74810656666667,52.33817946666667,52.0,71.0
100,52.18928256666667,52.88413476666667,64.0,77.0
101,52.40987056666667,53.05692870000001,52.0,74.0
102,52.85104656666667,53.05692870000001,61.0,65.0
103,51.52751856666667,53.0955316,45.0,76.0
104,53.071634566666674,53.382296000000004,57.0,70.0
105,53.29222256666667,54.21133923333334,62.0,76.0
106,53.73339856666667,54.240750966666674,57.0,71.0
107,53.29222256666667,54.79773566666667,50.0,75.0
108,54.17457456666667,55.14332353333334,66.0,76.0
109,54.61575056666667,55.159867633333334,57.0,75.0
110,55.05692656666667,55.5219996,62.0,72.0
111,55.71869056666667,55.889646266666674,62.0,71.0
112,55.498102566666674,55.893322733333335,57.0,64.0
113,55.93927856666667,56.23707236666667,64.0,81.0
114,56.15986656666667,56.411704533333335,62.0,69.0
115,55.05692656666667,56.64332193333334,50.0,70.0
116,56.38045456666667,56.720527733333334,61.0,81.0
117,56.82163056666667,56.84920406666667,48.0,69.0
118,56.82163056666667,57.30508593333334,62.0,71.0
119,56.82163056666667,57.33817413333334,59.0,67.0
120,57.703982566666674,58.04405573333334,59.0,76.0
121,57.703982566666674,58.229717300000004,66.0,70.0
122,57.26280656666667,58.4172171,54.0,63.0
123,58.14515856666667,58.42640826666667,62.0,69.0
124,58.36574656666667,58.656187433333336,59.0,74.0
125,58.80692256666667,59.32530436666667,59.0,75.0
126,59.02751056666667,59.34184846666667,62.0,71.0
127,58.58633456666667,59.564274700000006,54.0,68.0
128,59.24809856666667,59.59920113333334,71.0,77.0
129,59.46868656666667,59.744421566666674,66.0,78.0
130,56.82163056666667,59.79956856666667,47.0,71.0
131,59.68927456666667,59.94478900000001,62.0,75.0
132,59.90986256666667,60.03670066666667,59.0,77.0
133,60.35103856666667,60.869420366666674,59.0,72.0
134,60.35103856666667,60.94111146666667,55.0,69.0
135,60.79221456666667,61.299566966666674,50.0,55.0
136,61.23339056666667,61.472360900000005,55.0,77.0
137,60.35103856666667,61.654346000000004,43.0,74.0
138,61.45397856666667,61.68008126666667,50.0,67.0
139,61.23339056666667,61.694787133333335,62.0,77.0
140,61.67456656666667,61.8363311,55.0,73.0
141,62.11574256666667,62.771991866666674,57.0,72.0
142,62.11574256666667,62.773830100000005,61.0,77.0
143,62.77750656666667,63.26280016666667,66.0,77.0
144,62.556918566666674,63.299564833333335,49.0,58.0
145,62.11574256666667,63.330814800000006,42.0,76.0
146,63.21868256666667,63.43743233333334,61.0,77.0
147,63.43927056666667,63.70397616666667,57.0,68.0
148,63.65985856666667,63.79772606666667,61.0,68.0
149,63.88044656666667,64.38963720000001,59.0,72.0
150,63.88044656666667,64.57529876666668,64.0,75.0
151,64.76279856666667,65.018313,59.0,76.0
152,64.76279856666667,65.27198920000001,64.0,79.0
153,64.32162256666668,65.3436803,47.0,65.0
154,63.88044656666667,65.45213606666667,40.0,76.0
155,65.20397456666667,65.47603310000001,59.0,77.0
156,65.64515056666667,65.75544456666667,40.0,80.0
157,65.64515056666667,66.00176783333333,59.0,74.0
158,65.64515056666667,66.11022360000001,64.0,75.0
159,66.30691456666668,66.65434066666667,56.0,75.0
160,66.52750256666667,66.85103163333333,59.0,78.0
161,66.08632656666667,66.85654633333334,52.0,76.0
162,66.74809056666668,67.0366932,62.0,78.0
163,66.96867856666667,67.12125193333334,68.0,73.0
164,67.40985456666667,67.68007486666667,64.0,72.0
165,67.40985456666667,67.81242766666668,69.0,70.0
166,68.07161856666667,68.38044176666668,57.0,77.0
167,67.85103056666667,68.58816213333334,52.0,67.0
168,68.51279456666667,68.72235316666668,57.0,77.0
169,68.51279456666667,68.8455148,64.0,77.0
170,67.40985456666667,69.01647050000001,45.0,77.0
171,68.73338256666668,69.044044,52.0,71.0
172,68.95397056666667,69.30507313333334,57.0,75.0
173,69.17455856666668,69.4521318,64.0,79.0
174,69.17455856666668,69.45397003333333,69.0,76.0
175,69.17455856666668,69.45764650000001,61.0,71.0
176,69.61573456666667,69.72235210000001,57.0,73.0
177,69.39514656666667,69.91352836666667,52.0,66.0
178,69.83632256666667,70.30507206666667,61.0,83.0
179,70.27749856666667,70.54036593333333,57.0,78.0
180,70.49808656666667,70.76646863333333,61.0,78.0
181,69.17455856666668,70.82161563333334,45.0,77.0
182,70.05691056666667,70.83264503333334,52.0,75.0
183,70.71867456666668,70.87492440000001,57.0,76.0
184,70.93926256666667,71.06426243333334,61.0,66.0
185,70.93926256666667,71.0789683,57.0,70.0
186,70.93926256666667,71.08264476666668,64.0,77.0
187,70.93926256666667,71.09367416666667,45.0,81.0
188,71.15985056666668,71.74624700000001,45.0,78.0
189,71.15985056666668,71.91168800000001,57.0,73.0
190,71.15985056666668,72.07529076666667,61.0,75.0
191,71.15985056666668,72.21132003333334,64.0,79.0
192,72.48337856666667,72.5238197,61.0,74.0
193,71.82161456666667,72.53668733333333,45.0,78.0
194,72.04220256666667,72.54036380000001,52.0,77.0
195,72.26279056666667,72.59367256666667,57.0,79.0
196,72.70396656666668,73.15433373333335,55.0,76.0
197,72.70396656666668,73.25911303333334,59.0,78.0
198,72.70396656666668,73.3730835,43.0,78.0
199,73.14514256666668,73.3730835,50.0,72.0
200,73.36573056666667,73.4944069,55.0,77.0
201,73.58631856666668,73.82161243333334,57.0,71.0
202,73.58631856666668,73.95028876666667,61.0,61.0
203,73.80690656666667,74.2940384,52.0,71.0
204,74.02749456666668,74.33631776666667,57.0,78.0
205,74.24808256666667,74.36940596666668,61.0,77.0
206,73.58631856666668,74.39881770000001,45.0,79.0
207,74.46867056666667,74.74440556666667,57.0,72.0
208,74.46867056666667,74.99440530000001,62.0,76.0
209,74.90984656666667,75.1763904,57.0,70.0
210,75.35102256666667,75.61205170000001,62.0,78.0
211,75.35102256666667,75.8436691,66.0,78.0
212,75.57161056666668,75.8491838,57.0,72.0
213,75.79219856666667,76.04036006666668,62.0,72.0
214,74.46867056666667,76.13962466666668,50.0,77.0
215,76.01278656666668,76.16719816666668,57.0,71.0
216,76.23337456666667,76.74624166666668,57.0,74.0
217,76.23337456666667,76.79955043333334,61.0,79.0
218,76.67455056666667,77.16903533333334,52.0,65.0
219,77.11572656666667,77.36388806666668,57.0,75.0
220,77.11572656666667,77.5256526,61.0,78.0
221,76.23337456666667,77.5421967,45.0,76.0
222,77.11572656666667,77.60653486666668,64.0,78.0
223,77.33631456666667,77.6524907,52.0,73.0
224,77.55690256666668,77.86021106666668,57.0,70.0
225,77.77749056666667,78.02565206666667,61.0,77.0
226,77.99807856666668,78.40984283333334,62.0,76.0
227,78.43925456666668,78.98704810000001,54.0,65.0
228,78.88043056666667,79.17822436666667,59.0,77.0
229,78.88043056666667,79.33079773333334,66.0,77.0
230,79.10101856666667,79.40432706666667,54.0,72.0
231,77.99807856666668,79.50726813333334,47.0,72.0
232,79.32160656666667,79.60469450000001,59.0,76.0
233,79.54219456666667,79.82712073333335,62.0,65.0
234,79.76278256666667,80.61939930000001,61.0,76.0
235,80.64513456666667,81.16351636666667,57.0,78.0
236,80.20395856666667,81.24991333333334,52.0,70.0
237,79.76278256666667,81.33447206666668,45.0,76.0
238,81.08631056666667,81.51278070000001,62.0,78.0
239,81.52748656666667,82.41167680000001,59.0,71.0
240,81.96866256666668,82.48704436666667,50.0,70.0
241,81.52748656666667,82.84366163333334,43.0,76.0
242,82.63042656666667,82.88410276666667,50.0,76.0
243,82.40983856666668,82.89880863333335,55.0,78.0
244,82.85101456666668,83.25174943333334,59.0,74.0
245,83.29219056666668,83.97417513333333,61.0,77.0
246,83.29219056666668,84.52564513333334,42.0,75.0
247,83.73336656666667,84.55505686666667,49.0,69.0
248,84.17454256666667,84.70211553333334,57.0,79.0
249,84.61571856666667,84.95027703333334,61.0,72.0
250,84.83630656666668,84.99255640000001,63.0,66.0
251,85.05689456666667,85.11020333333335,62.0,71.0
252,85.05689456666667,85.643291,64.0,73.0
253,85.49807056666667,86.0238053,47.0,67.0
254,85.93924656666667,86.19108453333334,59.0,72.0
255,85.05689456666667,86.2609374,40.0,78.0
256,86.15983456666667,86.30689323333334,47.0,69.0
257,85.93924656666667,86.37490786666667,64.0,78.0
258,85.93924656666667,86.45211366666668,67.0,74.0
259,86.38042256666667,86.64512816666668,59.0,77.0
260,86.60101056666667,86.7517457,64.0,68.0
261,86.82159856666668,87.10652473333334,57.0,71.0
262,86.82159856666668,87.13042176666667,64.0,68.0
263,87.04218656666667,87.52564193333335,52.0,69.0
264,87.26277456666668,87.69108293333333,57.0,74.0
265,87.48336256666667,87.92821503333334,61.0,81.0
266,87.92453856666667,88.19292063333334,57.0,80.0
267,87.70395056666668,88.22417060000001,52.0,79.0
268,86.82159856666668,88.25909703333333,45.0,76.0
269,88.14512656666668,88.34365576666667,61.0,77.0
270,88.36571456666667,88.57527316666668,57.0,74.0
271,88.58630256666667,88.8804199,62.0,76.0
272,88.80689056666667,89.11019906666667,57.0,70.0
273,89.02747856666667,89.30137533333334,62.0,69.0
274,89.24806656666668,89.4208605,57.0,66.0
275,89.46865456666667,90.01277163333334,66.0,79.0
276,88.58630256666667,90.14512443333334,50.0,74.0
277,89.90983056666667,90.20762436666668,57.0,66.0
278,90.13041856666668,90.23887433333334,62.0,70.0
279,90.35100656666667,90.81975606666667,61.0,77.0
280,90.79218256666667,90.98519706666667,57.0,77.0
281,91.01277056666667,91.48152006666668,64.0,77.0
282,91.45394656666667,91.72232863333333,61.0,83.0
283,90.35100656666667,91.74990213333334,45.0,77.0
284,91.67453456666668,91.83813733333334,57.0,76.0
285,90.57159456666668,92.0237989,52.0,67.0
286,92.11571056666668,92.69475406666668,59.0,70.0
287,92.11571056666668,92.77379810000001,62.0,74.0
288,92.55688656666668,93.06791543333334,54.0,60.0
289,92.99806256666668,93.24070936666668,59.0,77.0
290,93.21865056666667,93.45394443333333,54.0,74.0
291,92.99806256666668,93.47416500000001,66.0,76.0
292,92.11571056666668,93.59732663333334,47.0,77.0
293,93.43923856666667,93.71129710000001,59.0,78.0
294,93.65982656666668,93.9318851,62.0,69.0
295,93.88041456666667,94.34916406666667,61.0,71.0
296,94.32159056666667,94.98703103333334,57.0,75.0
297,94.54217856666668,95.018281,61.0,80.0
298,93.88041456666667,95.05872213333335,42.0,74.0
299,94.10100256666668,95.06423683333334,49.0,63.0
300,94.98335456666668,95.20761903333334,66.0,78.0
301,95.20394256666667,95.43004526666667,61.0,69.0
302,95.42453056666668,95.52930986666668,57.0,58.0
303,95.64511856666667,95.90982416666668,55.0,71.0
304,95.64511856666667,96.11019160000001,59.0,71.0
305,96.08629456666668,96.3859266,55.0,76.0
306,95.86570656666667,96.97416126666667,50.0,65.0
307,96.74805856666667,96.98702890000001,59.0,76.0
308,96.30688256666667,97.01092593333334,62.0,77.0
309,95.64511856666667,97.04585236666668,43.0,76.0
310,96.96864656666668,97.1304111,55.0,78.0
311,97.40982256666668,97.73886633333333,57.0,70.0
312,97.40982256666668,97.85099856666668,61.0,74.0
313,97.85099856666668,98.14327766666668,57.0,74.0
314,98.07158656666667,98.54033606666667,61.0,76.0
315,97.63041056666667,98.62673303333334,49.0,64.0
316,97.40982256666668,98.66349770000001,42.0,78.0
317,98.51276256666668,98.79585050000001,66.0,77.0
318,98.73335056666667,98.94290916666668,61.0,77.0
319,98.95393856666668,99.05320316666668,57.0,69.0
320,99.17452656666667,99.39695280000001,59.0,73.0
321,99.17452656666667,99.89327580000001,64.0,73.0
322,99.61570256666667,99.92084930000001,59.0,70.0
323,99.83629056666668,100.29768713333334,67.0,77.0
324,99.17452656666667,100.42084876666668,52.0,76.0
325,100.27746656666667,100.49621633333334,64.0,76.0
326,100.49805456666668,100.62305443333334,59.0,76.0
327,100.93923056666668,101.43371533333334,57.0,70.0
328,100.93923056666668,101.62489160000001,61.0,70.0
329,101.60099456666667,102.0826117,64.0,77.0
330,101.38040656666668,102.29584676666667,52.0,65.0
331,100.93923056666668,102.34731730000001,45.0,77.0
332,102.04217056666667,102.35099376666668,69.0,80.0
333,102.26275856666668,102.43003780000001,57.0,76.0
334,102.70393456666667,103.22783106666668,55.0,72.0
335,102.70393456666667,103.39694853333334,59.0,70.0
336,103.36569856666668,103.86385980000001,62.0,76.0
337,103.80687456666668,104.15246243333334,67.0,72.0
338,102.70393456666667,104.3215799,43.0,76.0
339,104.02746256666667,104.3326093,62.0,67.0
340,103.14511056666667,104.33628576666668,50.0,62.0
341,104.24805056666668,104.75540296666668,55.0,67.0
342,104.46863856666667,104.78665293333334,59.0,72.0
343,104.46863856666667,104.84547640000001,62.0,71.0
344,104.46863856666667,104.8675352,43.0,76.0
345,105.35099056666668,105.72047546666667,61.0,69.0
346,105.35099056666668,105.74253426666668,57.0,70.0
347,105.35099056666668,105.97966636666668,45.0,77.0
348,106.23334256666668,106.35834243333335,57.0,66.0
349,106.23334256666668,106.50172463333334,62.0,71.0
350,106.45393056666667,106.76275376666668,57.0,66.0
351,106.67451856666668,106.92084183333334,62.0,69.0
352,106.89510656666667,107.38040016666667,66.0,76.0
353,106.23334256666668,107.55503233333334,50.0,76.0
354,107.33628256666667,107.57341466666668,62.0,72.0
355,107.55687056666667,107.6690028,57.0,69.0
356,107.99804656666667,108.1873846,55.0,63.0
357,107.99804656666667,108.33444326666668,58.0,63.0
358,108.43922256666667,109.00356020000001,55.0,78.0
359,107.99804656666667,109.14694240000001,43.0,77.0
360,108.65981056666668,109.15797180000001,62.0,76.0
361,108.21863456666668,109.16900120000001,50.0,65.0
362,109.10098656666668,109.31973633333334,67.0,77.0
363,109.76275056666668,110.01275030000001,59.0,65.0
364,109.76275056666668,110.16532366666668,62.0,71.0
365,110.20392656666668,110.52194093333334,59.0,76.0
366,109.98333856666667,110.7958377,54.0,63.0
367,109.76275056666668,110.84179353333334,47.0,77.0
368,110.42451456666667,110.90061700000001,66.0,83.0
369,110.86569056666667,111.0715727,62.0,74.0
370,111.08627856666668,111.17451376666668,59.0,71.0
371,111.52745456666668,111.7939984,57.0,67.0
372,111.52745456666668,112.00355700000001,61.0,67.0
373,111.96863056666668,112.40245363333334,57.0,69.0
374,112.18921856666668,112.44657123333334,61.0,80.0
375,111.74804256666667,112.6267181,49.0,60.0
376,111.52745456666668,112.65245336666668,42.0,76.0
377,112.40980656666667,112.68186510000001,66.0,80.0
378,112.63039456666668,112.83443846666667,61.0,78.0
379,112.85098256666667,112.95576186666668,57.0,76.0
380,113.29215856666667,113.41715843333334,57.0,70.0
381,113.29215856666667,113.55686416666667,62.0,76.0
382,113.51274656666668,113.82708446666668,57.0,66.0
383,113.73333456666667,113.93186376666668,62.0,71.0
384,113.29215856666667,114.4465691,50.0,77.0
385,113.95392256666668,114.4575985,66.0,82.0
386,114.39509856666668,114.63223066666667,62.0,77.0
387,114.61568656666668,114.68002473333334,57.0,68.0
388,115.05686256666668,115.59730316666668,62.0,72.0
389,115.71862656666667,116.01642036666668,58.0,76.0
390,115.71862656666667,116.05318503333334,62.0,78.0
391,115.49803856666668,116.07524383333335,55.0,71.0
392,115.27745056666667,116.37487586666667,50.0,63.0
393,115.05686256666668,116.4042876,43.0,77.0
394,116.38039056666668,116.47414046666668,55.0,78.0
395,116.15980256666667,116.60097856666667,67.0,76.0
396,116.82156656666668,117.30502193333334,59.0,68.0
397,116.82156656666668,117.37855126666668,62.0,73.0
398,117.48333056666668,117.99619766666667,59.0,78.0
399,117.26274256666667,118.03112410000001,54.0,65.0
400,117.92450656666668,118.17818276666668,62.0,76.0
401,116.82156656666668,118.23332976666667,47.0,77.0
402,118.14509456666667,118.50355006666668,59.0,72.0
403,118.36568256666668,118.60281466666667,66.0,65.0
404,119.02744656666668,119.57707833333335,55.0,78.0
405,119.24803456666668,119.75722520000001,58.0,77.0
406,118.58627056666667,119.94656323333334,43.0,77.0
407,119.68921056666667,119.94656323333334,62.0,76.0
408,118.80685856666668,119.97597496666667,50.0,56.0
409,119.90979856666668,120.01457786666667,55.0,72.0
410,120.35097456666668,120.56604786666668,57.0,67.0
411,120.35097456666668,120.77928293333335,61.0,65.0
412,120.79215056666668,121.13222373333335,57.0,76.0
413,121.01273856666667,121.52928213333334,64.0,77.0
414,120.57156256666667,121.73148780000001,52.0,65.0
415,121.45391456666668,121.8142083,69.0,76.0
416,121.67450256666667,121.89325233333334,57.0,72.0
417,120.35097456666668,121.90428173333335,45.0,76.0
418,122.11567856666667,122.79950136666668,57.0,60.0
419,122.11567856666667,122.81420723333335,61.0,64.0
420,122.99803056666667,123.77008856666667,61.0,66.0
421,122.11567856666667,123.78479443333335,45.0,63.0
422,122.55685456666667,123.81420616666668,52.0,62.0
423,122.99803056666667,123.82707380000001,64.0,69.0
424,123.88038256666668,124.6597935,66.0,72.0
425,124.32155856666668,124.93001380000001,57.0,71.0
426,124.76273456666668,125.29214576666668,64.0,76.0
427,125.64508656666668,126.15060073333335,62.0,61.0
428,125.64508656666668,126.15611543333334,69.0,74.0
429,125.20391056666668,126.76457066666667,57.0,61.0
430,126.52743856666667,126.76457066666667,66.0,66.0
431,126.52743856666667,126.79582063333335,62.0,72.0
432,123.88038256666668,126.83442353333334,50.0,79.0
433,127.40979056666667,128.33074546666668,62.0,74.0
434,127.85096656666667,128.38956893333335,54.0,62.0
435,127.40979056666667,128.49067176666668,47.0,76.0
436,128.29214256666668,128.81787730000002,59.0,77.0
437,128.73331856666667,128.8454508,62.0,67.0
438,129.17449456666668,129.78662626666667,61.0,70.0
439,129.61567056666667,130.12669943333336,52.0,72.0
440,130.05684656666668,130.32890510000001,57.0,70.0
441,130.05684656666668,130.5164049,64.0,77.0
442,130.27743456666667,130.5550078,52.0,71.0
443,129.17449456666668,130.59912540000002,45.0,68.0
444,130.49802256666666,130.73699290000002,62.0,76.0
445,130.71861056666668,130.91346330000002,61.0,71.0
446,130.93919856666668,131.40243336666668,59.0,70.0
447,130.93919856666668,132.53846156666668,43.0,76.0
448,131.3803745666667,132.54765273333334,50.0,64.0
449,131.82155056666667,132.60463796666667,55.0,76.0
450,132.70390256666667,132.74066723333334,59.0,60.0
451,132.70390256666667,133.63221040000002,62.0,71.0
452,133.14507856666668,133.89507776666667,54.0,63.0
453,133.58625456666667,134.1064746,66.0,77.0
454,134.02743056666668,134.3362537666667,59.0,79.0
455,132.70390256666667,134.33809200000002,47.0,76.0
456,134.24801856666667,134.4906653666667,62.0,75.0
457,134.46860656666667,134.9777972,64.0,74.0
458,134.90978256666668,135.40059086666668,59.0,76.0
459,134.46860656666667,135.8031639666667,52.0,77.0
460,135.79213456666668,136.03661960000002,59.0,70.0
461,135.3509585666667,136.05132546666667,67.0,72.0
462,136.01272256666667,136.66161893333333,64.0,71.0
463,136.67448656666667,136.97044213333334,57.0,74.0
464,136.45389856666668,137.04397146666668,52.0,71.0
465,136.89507456666666,137.58992676666668,64.0,77.0
466,137.11566256666669,137.76272070000002,52.0,74.0
467,137.55683856666667,137.76272070000002,61.0,65.0
468,136.2333105666667,137.80132360000002,45.0,76.0
469,137.7774265666667,138.088088,57.0,70.0
470,137.99801456666668,138.91713123333335,62.0,76.0
471,138.43919056666667,138.94654296666667,57.0,71.0
472,137.99801456666668,139.50352766666668,50.0,75.0
473,138.88036656666668,139.84911553333333,66.0,76.0
474,139.32154256666666,139.86565963333334,57.0,75.0
475,139.76271856666668,140.22779160000002,62.0,72.0
476,140.42448256666668,140.5954382666667,62.0,71.0
477,140.2038945666667,140.59911473333335,57.0,64.0
478,140.64507056666667,140.94286436666667,64.0,81.0
479,140.86565856666667,141.11749653333334,62.0,69.0
480,139.76271856666668,141.34911393333334,50.0,70.0
481,141.0862465666667,141.42631973333334,61.0,81.0
482,141.52742256666667,141.5549960666667,48.0,69.0
483,141.52742256666667,142.01087793333335,62.0,71.0
484,141.52742256666667,142.04396613333336,59.0,67.0
485,142.40977456666667,142.74984773333335,59.0,76.0
486,142.40977456666667,142.9355093,66.0,70.0
487,141.96859856666669,143.12300910000002,54.0,63.0
488,142.85095056666668,143.13220026666667,62.0,69.0
489,143.07153856666667,143.36197943333335,59.0,74.0
490,143.5127145666667,144.03109636666667,59.0,75.0
491,143.73330256666668,144.04764046666668,62.0,71.0
492,143.29212656666667,144.2700667,54.0,68.0
493,143.95389056666667,144.30499313333334,71.0,77.0
494,144.17447856666666,144.4502135666667,66.0,78.0
495,141.52742256666667,144.50536056666667,47.0,71.0
496,144.39506656666669,144.65058100000002,62.0,75.0
497,144.61565456666668,144.74249266666666,59.0,77.0
498,145.0568305666667,145.57521236666668,59.0,72.0
499,145.0568305666667,145.64690346666669,55.0,69.0
500,145.49800656666667,146.00535896666668,50.0,55.0
501,145.9391825666667,146.17815290000001,55.0,77.0
502,145.0568305666667,146.360138,43.0,74.0
503,146.15977056666668,146.38587326666666,50.0,67.0
504,145.9391825666667,146.40057913333334,62.0,77.0
505,146.38035856666667,146.5421231,55.0,73.0
506,146.82153456666668,147.47778386666667,57.0,72.0
507,146.82153456666668,147.4796221,61.0,77.0
508,147.4832985666667,147.96859216666667,66.0,77.0
509,147.26271056666667,148.00535683333334,49.0,58.0
510,146.82153456666668,148.03660680000002,42.0,76.0
511,147.92447456666667,148.14322433333334,61.0,77.0
512,148.14506256666667,148.40976816666668,57.0,68.0
513,148.3656505666667,148.5035180666667,61.0,68.0
514,148.58623856666668,149.0954292,59.0,72.0
515,148.58623856666668,149.28109076666667,64.0,75.0
516,149.46859056666668,149.724105,59.0,76.0
517,149.46859056666668,149.9777812,64.0,79.0
518,149.02741456666666,150.04947230000002,47.0,65.0
519,148.58623856666668,150.15792806666667,40.0,76.0
520,149.9097665666667,150.1818251,59.0,77.0
521,150.35094256666667,150.46123656666668,40.0,80.0
522,150.35094256666667,150.70755983333333,59.0,74.0
523,150.35094256666667,150.81601560000001,64.0,75.0
524,151.01270656666668,151.3601326666667,56.0,75.0
525,151.23329456666667,151.55682363333335,59.0,78.0
526,150.7921185666667,151.56233833333334,52.0,76.0
527,151.45388256666666,151.7424852,62.0,78.0
528,151.67447056666668,151.82704393333336,68.0,73.0
529,152.11564656666667,152.38586686666667,64.0,72.0
530,152.11564656666667,152.51821966666668,69.0,70.0
531,152.77741056666667,153.08623376666668,57.0,77.0
532,152.55682256666668,153.29395413333336,52.0,67.0
533,153.2185865666667,153.42814516666667,57.0,77.0
534,153.2185865666667,153.55130680000002,64.0,77.0
535,152.11564656666667,153.7222625,45.0,77.0
536,153.43917456666668,153.74983600000002,52.0,71.0
537,153.65976256666667,154.01086513333334,57.0,75.0
538,153.8803505666667,154.15792380000002,64.0,79.0
539,153.8803505666667,154.15976203333335,69.0,76.0
540,153.8803505666667,154.1634385,61.0,71.0
541,154.32152656666668,154.42814410000003,57.0,73.0
542,154.10093856666668,154.61932036666667,52.0,66.0
543,154.54211456666667,155.01086406666667,61.0,83.0
544,154.98329056666668,155.24615793333334,57.0,78.0
545,155.20387856666667,155.47226063333335,61.0,78.0
546,153.8803505666667,155.52740763333335,45.0,77.0
547,154.7627025666667,155.53843703333334,52.0,75.0
548,155.42446656666667,155.5807164,57.0,76.0
549,155.6450545666667,155.77005443333334,61.0,66.0
550,155.6450545666667,155.78476030000002,57.0,70.0
551,155.6450545666667,155.78843676666668,64.0,77.0
552,155.6450545666667,155.7994661666667,45.0,81.0
553,155.86564256666668,156.452039,45.0,78.0
554,155.86564256666668,156.61748,57.0,73.0
555,155.86564256666668,156.78108276666669,61.0,75.0
556,155.86564256666668,156.91711203333335,64.0,79.0
557,157.1891705666667,157.22961170000002,61.0,74.0
558,156.52740656666668,157.24247933333334,45.0,78.0
559,156.74799456666668,157.24615580000003,52.0,77.0
560,156.96858256666667,157.29946456666667,57.0,79.0
561,157.40975856666668,157.86012573333335,55.0,76.0
562,157.40975856666668,157.96490503333334,59.0,78.0
563,157.40975856666668,158.0788755,43.0,78.0
564,157.85093456666667,158.0788755,50.0,72.0
565,158.0715225666667,158.2001989,55.0,77.0
566,158.29211056666668,158.52740443333334,57.0,71.0
567,158.29211056666668,158.6560807666667,61.0,61.0
568,158.51269856666667,158.9998304,52.0,71.0
569,158.7332865666667,159.04210976666667,57.0,78.0
570,158.95387456666668,159.07519796666668,61.0,77.0
571,158.29211056666668,159.10460970000003,45.0,79.0
572,159.17446256666668,159.45019756666667,57.0,72.0
573,159.17446256666668,159.7001973,62.0,76.0
574,159.6156385666667,159.8821824,57.0,70.0
575,160.05681456666667,160.31784370000003,62.0,78.0
576,160.05681456666667,160.5494611,66.0,78.0
577,160.27740256666667,160.55497580000002,57.0,72.0
578,160.4979905666667,160.74615206666667,62.0,72.0
579,159.17446256666668,160.84541666666667,50.0,77.0
580,160.71857856666668,160.87299016666668,57.0,71.0
581,160.93916656666667,161.45203366666667,57.0,74.0
582,160.93916656666667,161.50534243333334,61.0,79.0
583,161.38034256666668,161.87482733333334,52.0,65.0
584,161.82151856666667,162.06968006666668,57.0,75.0
585,161.82151856666667,162.2314446,61.0,78.0
586,160.93916656666667,162.2479887,45.0,76.0
587,161.82151856666667,162.31232686666667,64.0,78.0
588,162.0421065666667,162.35828270000002,52.0,73.0
589,162.26269456666668,162.56600306666667,57.0,70.0
590,162.48328256666667,162.73144406666668,61.0,77.0
591,162.70387056666667,163.11563483333336,62.0,76.0
592,163.14504656666668,163.6928401,54.0,65.0
593,163.5862225666667,163.88401636666669,59.0,77.0
594,163.5862225666667,164.03658973333336,66.0,77.0
595,163.80681056666668,164.11011906666667,54.0,72.0
596,162.70387056666667,164.21306013333336,47.0,72.0
597,164.02739856666668,164.31048650000002,59.0,76.0
598,164.24798656666667,164.53291273333335,62.0,65.0
599,164.4685745666667,165.3251913,61.0,76.0
600,165.3509265666667,165.86930836666667,57.0,78.0
601,164.90975056666667,165.95570533333336,52.0,70.0
602,164.4685745666667,166.04026406666668,45.0,76.0
603,165.79210256666667,166.2185727,62.0,78.0
604,166.23327856666668,167.1174688,59.0,71.0
605,166.67445456666667,167.19283636666668,50.0,70.0
606,166.23327856666668,167.54945363333334,43.0,76.0
607,167.33621856666667,167.58989476666667,50.0,76.0
608,167.11563056666668,167.60460063333335,55.0,78.0
609,167.55680656666667,167.95754143333335,59.0,74.0
610,167.99798256666668,168.67996713333335,61.0,77.0
611,167.99798256666668,169.23143713333334,42.0,75.0
612,168.4391585666667,169.2608488666667,49.0,69.0
613,168.88033456666668,169.40790753333334,57.0,79.0
614,169.3215105666667,169.65606903333335,61.0,72.0
615,169.54209856666668,169.69834840000001,63.0,66.0
616,169.76268656666667,169.81599533333335,62.0,71.0
617,169.76268656666667,170.349083,64.0,73.0
618,170.2038625666667,170.72959730000002,47.0,67.0
619,170.64503856666667,170.89687653333334,59.0,72.0
620,169.76268656666667,170.96672940000002,40.0,78.0
621,170.8656265666667,171.01268523333334,47.0,69.0
622,170.64503856666667,171.0806998666667,64.0,78.0
623,170.64503856666667,171.1579056666667,67.0,74.0
624,171.08621456666668,171.35092016666667,59.0,77.0
625,171.30680256666668,171.45753770000002,64.0,68.0
626,171.52739056666667,171.81231673333335,57.0,71.0
627,171.52739056666667,171.83621376666667,64.0,68.0
628,171.7479785666667,172.23143393333334,52.0,69.0
629,171.96856656666668,172.39687493333335,57.0,74.0
630,172.18915456666667,172.63400703333335,61.0,81.0
631,172.6303305666667,172.89871263333336,57.0,80.0
632,172.4097425666667,172.9299626,52.0,79.0
633,171.52739056666667,172.96488903333335,45.0,76.0
634,172.85091856666668,173.04944776666667,61.0,77.0
635,173.07150656666667,173.28106516666668,57.0,74.0
636,173.2920945666667,173.58621190000002,62.0,76.0
637,173.51268256666668,173.81599106666667,57.0,70.0
638,173.73327056666668,174.00716733333334,62.0,69.0
639,173.95385856666667,174.1266525,57.0,66.0
640,174.1744465666667,174.71856363333336,66.0,79.0
641,173.2920945666667,174.85091643333334,50.0,74.0
642,174.61562256666667,174.91341636666667,57.0,66.0
643,174.8362105666667,174.94466633333334,62.0,70.0
644,175.05679856666669,175.5255480666667,61.0,77.0
645,175.49797456666667,175.69098906666667,57.0,77.0
646,175.7185625666667,176.1873120666667,64.0,77.0
647,176.15973856666668,176.42812063333335,61.0,83.0
648,175.05679856666669,176.45569413333334,45.0,77.0
649,176.38032656666667,176.54392933333335,57.0,76.0
650,175.27738656666668,176.7295909,52.0,67.0
651,176.82150256666668,177.4005460666667,59.0,70.0
652,176.82150256666668,177.47959010000002,62.0,74.0
653,177.2626785666667,177.77370743333336,54.0,60.0
654,177.70385456666668,177.94650136666667,59.0,77.0
655,177.92444256666667,178.15973643333334,54.0,74.0
656,177.70385456666668,178.179957,66.0,76.0
657,176.82150256666668,178.30311863333336,47.0,77.0
658,178.1450305666667,178.41708910000003,59.0,78.0
659,178.36561856666668,178.63767710000002,62.0,69.0
660,178.58620656666668,179.05495606666668,61.0,71.0
661,179.0273825666667,179.69282303333335,57.0,75.0
662,179.24797056666668,179.724073,61.0,80.0
663,178.58620656666668,179.76451413333334,42.0,74.0
664,178.80679456666667,179.77002883333336,49.0,63.0
665,179.6891465666667,179.91341103333335,66.0,78.0
666,179.90973456666669,180.13583726666667,61.0,69.0
667,180.13032256666668,180.23510186666667,57.0,58.0
668,180.35091056666667,180.61561616666668,55.0,71.0
669,180.35091056666667,180.8159836,59.0,71.0
670,180.79208656666668,181.0917186,55.0,76.0
671,180.5714985666667,181.67995326666667,50.0,65.0
672,181.4538505666667,181.69282090000002,59.0,76.0
673,181.01267456666667,181.71671793333334,62.0,77.0
674,180.35091056666667,181.75164436666668,43.0,76.0
675,181.67443856666668,181.8362031,55.0,78.0
676,182.1156145666667,182.44465833333334,57.0,70.0
677,182.1156145666667,182.55679056666668,61.0,74.0
678,182.55679056666668,182.84906966666668,57.0,74.0
679,182.77737856666667,183.24612806666667,61.0,76.0
680,182.33620256666669,183.33252503333335,49.0,64.0
681,182.1156145666667,183.36928970000002,42.0,78.0
682,183.21855456666668,183.5016425,66.0,77.0
683,183.43914256666667,183.64870116666668,61.0,77.0
684,183.65973056666667,183.7589951666667,57.0,69.0
685,183.8803185666667,184.1027448,59.0,73.0
686,183.8803185666667,184.5990678,64.0,73.0
687,184.32149456666667,184.62664130000002,59.0,70.0
688,184.5420825666667,185.00347913333334,67.0,77.0
689,183.8803185666667,185.12664076666667,52.0,76.0
690,184.98325856666668,185.20200833333334,64.0,76.0
691,185.20384656666667,185.32884643333335,59.0,76.0
692,185.64502256666668,186.13950733333334,57.0,70.0
693,185.64502256666668,186.33068360000001,61.0,70.0
694,186.3067865666667,186.7884037,64.0,77.0
695,186.08619856666667,187.00163876666667,52.0,65.0
696,185.64502256666668,187.05310930000002,45.0,77.0
697,186.74796256666667,187.05678576666668,69.0,80.0
698,186.9685505666667,187.1358298,57.0,76.0
699,187.40972656666668,187.93362306666668,55.0,72.0
700,187.40972656666668,188.10274053333336,59.0,70.0
701,188.07149056666668,188.5696518,62.0,76.0
702,188.51266656666667,188.85825443333334,67.0,72.0
703,187.40972656666668,189.02737190000002,43.0,76.0
704,188.7332545666667,189.0384013,62.0,67.0
705,187.8509025666667,189.0420777666667,50.0,62.0
706,188.95384256666668,189.46119496666668,55.0,67.0
707,189.17443056666667,189.49244493333336,59.0,72.0
708,189.17443056666667,189.55126840000003,62.0,71.0
709,189.17443056666667,189.57332720000002,43.0,76.0
710,190.05678256666667,190.42626746666667,61.0,69.0
711,190.05678256666667,190.44832626666667,57.0,70.0
712,190.05678256666667,190.6854583666667,45.0,77.0
713,190.9391345666667,191.2148695666667,57.0,72.0
714,190.9391345666667,191.4648693,62.0,76.0
715,191.38031056666668,191.64685440000002,57.0,70.0
716,191.8214865666667,192.08251570000002,62.0,78.0
717,191.8214865666667,192.31413310000002,66.0,78.0
718,192.04207456666668,192.3196478,57.0,72.0
719,192.26266256666668,192.5108240666667,62.0,72.0
720,190.9391345666667,192.61008866666668,50.0,77.0
721,192.48325056666667,192.63766216666667,57.0,71.0
722,192.7038385666667,193.21670566666668,57.0,74.0
723,192.7038385666667,193.27001443333336,61.0,79.0
724,193.14501456666667,193.63949933333336,52.0,65.0
725,193.5861905666667,193.83435206666667,57.0,75.0
726,193.5861905666667,193.99611660000002,61.0,78.0
727,192.7038385666667,194.01266070000003,45.0,76.0
728,193.5861905666667,194.07699886666668,64.0,78.0
729,193.80677856666668,194.1229547,52.0,73.0
730,194.02736656666667,194.33067506666669,57.0,70.0
731,194.2479545666667,194.49611606666667,61.0,77.0
732,194.46854256666668,194.88030683333335,62.0,76.0
733,194.90971856666667,195.4575121,54.0,65.0
734,195.35089456666668,195.64868836666668,59.0,77.0
735,195.35089456666668,195.80126173333335,66.0,77.0
736,195.57148256666667,195.8747910666667,54.0,72.0
737,194.46854256666668,195.97773213333335,47.0,72.0
738,195.7920705666667,196.07515850000001,59.0,76.0
739,196.0126585666667,196.29758473333334,62.0,65.0
740,196.23324656666668,197.08986330000002,61.0,76.0
741,197.11559856666668,197.6339803666667,57.0,78.0
742,196.6744225666667,197.72037733333335,52.0,70.0
743,196.23324656666668,197.80493606666667,45.0,76.0
744,197.5567745666667,197.98324470000003,62.0,78.0
745,197.99795056666667,198.8821408,59.0,71.0
746,198.4391265666667,198.95750836666667,50.0,70.0
747,197.99795056666667,199.31412563333336,43.0,76.0
748,199.1008905666667,199.3545667666667,50.0,76.0
749,198.88030256666667,199.36927263333334,55.0,78.0
750,199.32147856666668,199.72221343333334,59.0,74.0
751,199.76265456666667,200.44463913333334,61.0,77.0
752,199.76265456666667,200.99610913333336,42.0,75.0
753,200.20383056666668,201.02552086666668,49.0,69.0
754,200.6450065666667,201.17257953333336,57.0,79.0
755,201.08618256666668,201.42074103333334,61.0,72.0
756,201.30677056666667,201.4630204,63.0,66.0
757,201.5273585666667,201.58066733333334,62.0,71.0
758,201.5273585666667,202.11375500000003,64.0,73.0
759,201.96853456666668,202.4942693,47.0,67.0
760,202.4097105666667,202.66154853333336,59.0,72.0
761,201.5273585666667,202.7314014,40.0,78.0
762,202.63029856666668,202.77735723333336,47.0,69.0
763,202.4097105666667,202.84537186666668,64.0,78.0
764,202.4097105666667,202.92257766666668,67.0,74.0
765,202.85088656666667,203.1155921666667,59.0,77.0
766,203.0714745666667,203.2222097,64.0,68.0
767,203.2920625666667,203.57698873333334,57.0,71.0
768,203.2920625666667,203.6008857666667,64.0,68.0
769,203.51265056666668,203.99610593333335,52.0,69.0
770,203.73323856666667,204.16154693333334,57.0,74.0
771,203.9538265666667,204.39867903333334,61.0,81.0
772,204.39500256666668,204.66338463333335,57.0,80.0
773,204.17441456666668,204.69463460000003,52.0,79.0
774,203.2920625666667,204.72956103333334,45.0,76.0
775,204.61559056666667,204.8141197666667,61.0,77.0
776,204.8361785666667,205.04573716666667,57.0,74.0
777,205.05676656666668,205.3508839,62.0,76.0
778,205.27735456666667,205.5806630666667,57.0,70.0
779,205.4979425666667,205.77183933333336,62.0,69.0
780,205.7185305666667,205.89132450000002,57.0,66.0
781,205.93911856666668,206.48323563333335,66.0,79.0
782,205.05676656666668,206.61558843333336,50.0,74.0
783,206.3802945666667,206.67808836666669,57.0,66.0
784,206.60088256666668,206.70933833333333,62.0,70.0
785,206.82147056666668,207.29022006666668,61.0,77.0
786,207.2626465666667,207.4556610666667,57.0,77.0
787,207.48323456666668,207.95198406666668,64.0,77.0
788,207.9244105666667,208.19279263333334,61.0,83.0
789,206.82147056666668,208.22036613333336,45.0,77.0
790,208.1449985666667,208.30860133333334,57.0,76.0
791,207.04205856666667,208.49426290000002,52.0,67.0
792,208.58617456666667,209.16521806666668,59.0,70.0
793,208.58617456666667,209.24426210000001,62.0,74.0
794,209.02735056666668,209.53837943333335,54.0,60.0
795,209.4685265666667,209.71117336666669,59.0,77.0
796,209.6891145666667,209.92440843333335,54.0,74.0
797,209.4685265666667,209.94462900000002,66.0,76.0
798,208.58617456666667,210.06779063333335,47.0,77.0
799,209.90970256666668,210.18176110000002,59.0,78.0
800,210.13029056666667,210.4023491,62.0,69.0
801,210.3508785666667,210.8196280666667,61.0,71.0
802,210.79205456666668,211.45749503333334,57.0,75.0
803,211.01264256666667,211.48874500000002,61.0,80.0
804,210.3508785666667,211.52918613333335,42.0,74.0
805,210.5714665666667,211.53470083333335,49.0,63.0
806,211.45381856666668,211.67808303333334,66.0,78.0
807,211.67440656666668,211.9005092666667,61.0,69.0
808,211.8949945666667,211.9997738666667,57.0,58.0
809,212.1155825666667,212.38028816666667,55.0,71.0
810,212.1155825666667,212.58065560000003,59.0,71.0
811,212.55675856666667,212.85639060000003,55.0,76.0
812,212.33617056666668,213.4446252666667,50.0,65.0
813,213.21852256666668,213.4574929,59.0,76.0
814,212.7773465666667,213.48138993333336,62.0,77.0
815,212.1155825666667,213.51631636666667,43.0,76.0
816,213.43911056666667,213.60087510000002,55.0,78.0
817,213.88028656666668,214.20933033333336,57.0,70.0
818,213.88028656666668,214.3214625666667,61.0,74.0
819,214.3214625666667,214.61374166666667,57.0,74.0
820,214.5420505666667,215.0108000666667,61.0,76.0
821,214.10087456666668,215.09719703333334,49.0,64.0
822,213.88028656666668,215.13396170000001,42.0,78.0
823,214.98322656666667,215.26631450000002,66.0,77.0
824,215.2038145666667,215.41337316666667,61.0,77.0
825,215.42440256666669,215.52366716666668,57.0,69.0
826,215.64499056666668,215.86741680000003,59.0,73.0
827,215.64499056666668,216.36373980000002,64.0,73.0
828,216.0861665666667,216.3913133,59.0,70.0
829,216.30675456666668,216.76815113333336,67.0,77.0
830,215.64499056666668,216.8913127666667,52.0,76.0
831,216.7479305666667,216.96668033333336,64.0,76.0
832,216.9685185666667,217.09351843333334,59.0,76.0
833,217.40969456666667,217.7038119,55.0,73.0
834,217.40969456666667,218.0346939,64.0,77.0
835,217.6302825666667,218.23873780000002,43.0,65.0
836,217.85087056666669,218.38028176666668,55.0,72.0
837,217.40969456666667,218.38395823333335,36.0,75.0
838,218.07145856666668,218.44645816666667,60.0,80.0
839,218.5126345666667,218.68175203333334,64.0,80.0
840,219.1743985666667,219.63028043333335,55.0,66.0
841,219.1743985666667,219.86005960000003,62.0,72.0
842,219.83616256666667,220.29939736666668,55.0,71.0
843,220.27733856666669,220.54388240000003,57.0,69.0
844,219.61557456666668,220.79572036666667,50.0,57.0
845,220.71851456666667,221.5677783666667,62.0,70.0
846,221.6008665666667,221.90417506666668,55.0,63.0
847,222.04204256666668,222.18726300000003,55.0,75.0
848,221.38027856666668,222.20564533333334,50.0,61.0
849,222.04204256666668,222.3416746,62.0,75.0
850,219.1743985666667,222.38579220000003,43.0,76.0
851,222.26263056666667,222.94461513333334,55.0,67.0
852,223.3655705666667,223.5971879666667,57.0,63.0
853,223.80674656666667,224.00527576666667,62.0,67.0
854,224.2479225666667,224.48873113333335,55.0,55.0
855,223.14498256666667,225.0696128666667,50.0,55.0
856,225.57145056666667,225.98872953333336,50.0,58.0
857,222.70380656666669,226.02733243333336,43.0,69.0
858,225.7920385666667,226.38762616666668,55.0,60.0
859,226.01262656666668,226.40784673333334,62.0,63.0
860,226.4538025666667,226.97034613333335,50.0,62.0
861,226.23321456666667,227.01630196666667,43.0,65.0
862,226.6743905666667,228.13946253333336,55.0,64.0
863,226.89497856666668,228.18358013333335,62.0,65.0
