,start,end,pitch,velocity
0,0.30381895833333333,0.6996516583333333,65.0,76.0
1,0.7118044166666666,1.15624815,68.0,82.0
2,1.1354148499999999,2.2795102416666664,73.0,84.0
3,2.423607233333333,2.788189983333333,70.0,83.0
4,2.7986066333333333,3.4843694249999997,73.0,82.0
5,3.6041608999999997,3.9635353249999996,73.0,80.0
6,3.92707705,4.2499932,72.0,83.0
7,4.2222154666666665,4.51040945,70.0,83.0
8,4.498256691666667,5.713532525,72.0,87.0
9,5.723949175,5.932282175,68.0,79.0
10,5.911448875,6.1458235,70.0,78.0
11,6.1249902,7.741307058333333,68.0,84.0
12,7.835056908333333,8.626722308333333,70.0,82.0
13,8.668388908333332,9.128457616666667,68.0,80.0
14,9.085054908333333,9.407971058333333,66.0,87.0
15,9.501720908333333,9.928803558333334,66.0,80.0
16,9.918386908333332,10.767343883333332,65.0,82.0
17,10.751718908333332,11.182273774999999,63.0,83.0
18,11.168384908333334,12.828104475,65.0,80.0
19,12.835048908333333,13.338520325,61.0,80.0
20,13.251714908333332,13.690950316666665,63.0,80.0
21,13.668380908333333,14.133657941666666,65.0,80.0
22,14.085046908333332,14.539907291666665,68.0,79.0
23,14.501712908333333,14.892337283333333,70.0,79.0
24,14.918378908333333,15.402753133333333,73.0,84.0
25,15.335044908333332,15.772544208333333,75.0,92.0
26,15.751710908333333,16.036432675,77.0,83.0
27,16.168376908333332,17.329833383333334,77.0,84.0
28,17.418374908333334,17.67358283333333,75.0,84.0
29,17.626707908333334,17.855874208333333,77.0,79.0
30,17.835040908333333,18.595456358333333,75.0,89.0
31,17.835040908333333,18.675317341666666,80.0,81.0
32,19.08503890833333,19.305524666666667,73.0,79.0
33,19.29337190833333,19.506913233333332,75.0,79.0
34,19.501704908333334,20.975660883333333,73.0,79.0
35,18.668372908333332,21.130174524999997,77.0,79.0
36,21.58503490833333,21.970450958333334,68.0,77.0
37,21.16836890833333,22.057256374999998,80.0,71.0
38,22.001700908333333,22.49128345833333,66.0,83.0
39,22.418366908333333,22.82288015,65.0,85.0
40,22.001700908333333,22.826352366666665,78.0,74.0
41,22.835032908333332,24.149266916666665,63.0,79.0
42,22.835032908333332,24.215239033333333,75.0,72.0
43,22.835032908333332,24.225655683333333,80.0,72.0
44,24.085030908333334,24.336766616666665,61.0,76.0
45,24.085030908333334,24.4999608,78.0,70.0
46,24.293363908333333,24.512113558333333,63.0,73.0
47,24.501696908333333,27.3749562,61.0,85.0
48,24.501696908333333,27.71523343333333,73.0,69.0
49,24.501696908333333,27.730858408333333,77.0,72.0
50,54.50164890833333,57.30372775833333,61.0,59.0
51,54.50164890833333,57.32282495,65.0,71.0
52,57.83497690833333,58.70476718333333,61.0,71.0
53,58.66830890833333,59.52247420833333,58.0,68.0
54,59.50164090833333,61.06413840833333,56.0,72.0
55,61.16830490833333,63.70996750833333,65.0,77.0
56,63.66830090833333,64.13010572499999,68.0,69.0
57,64.08496690833333,64.56066059166666,70.0,74.0
58,64.50163290833333,65.80197805,68.0,72.0
59,65.75163090833333,66.17350523333333,65.0,74.0
60,66.16829690833333,66.650935025,63.0,72.0
61,66.58496290833332,67.0415594,65.0,78.0
62,67.00162890833333,67.4373921,66.0,79.0
63,67.41829490833334,67.89919691666667,68.0,70.0
64,67.83496090833333,69.49294436666666,70.0,78.0
65,70.33495690833333,71.11794176666666,68.0,76.0
66,71.16828890833332,73.2707161,70.0,68.0
67,73.25161890833333,73.69085431666666,72.0,79.0
68,73.66828490833333,74.54849183333333,73.0,79.0
69,74.50161690833333,75.39918491666667,68.0,65.0
70,75.33494890833333,76.16480869166666,66.0,71.0
71,76.16828090833333,77.60925082499999,63.0,64.0
72,77.83494490833333,78.56063819166667,61.0,67.0
73,77.83494490833333,78.609249225,65.0,73.0
74,78.66827690833333,79.317581425,61.0,74.0
75,78.66827690833333,79.348831375,66.0,74.0
76,79.50160890833332,80.18042726666667,65.0,79.0
77,79.50160890833332,80.20126056666666,61.0,74.0
78,80.33494090833332,80.70994030833333,65.0,77.0
79,80.33494090833332,80.76549577499999,68.0,73.0
80,80.75160690833333,81.15612014999999,66.0,66.0
81,80.75160690833333,81.15959236666666,63.0,66.0
82,81.16827290833334,82.79847863333333,73.0,78.0
83,82.83493690833333,83.72208826666666,72.0,76.0
84,83.66826890833333,84.3540317,68.0,78.0
85,84.50160090833333,85.87139038333333,66.0,69.0
86,84.50160090833333,85.9165292,70.0,78.0
87,86.16826490833333,86.96340252499999,73.0,73.0
88,86.16826490833333,86.984235825,77.0,79.0
89,87.00159690833333,87.44256842499999,75.0,78.0
90,87.41826290833333,87.80541506666667,73.0,78.0
91,87.83492890833332,89.35228759166667,73.0,76.0
92,89.50159290833334,90.29846663333333,72.0,76.0
93,90.33492490833333,91.0623543,68.0,71.0
94,91.16825690833333,92.47207426666667,68.0,73.0
95,92.41825490833332,92.81929593333332,73.0,73.0
96,92.83492090833333,93.28110075,72.0,78.0
97,93.25158690833332,93.65783625833333,73.0,80.0
98,93.66825290833333,94.37311289166666,75.0,81.0
99,94.50158490833333,96.17345723333332,73.0,80.0
100,96.16824890833333,97.02762253333333,72.0,79.0
101,97.00158090833332,97.73595473333333,68.0,73.0
102,97.83491290833332,99.34011883333334,70.0,76.0
103,99.50157690833333,100.35400609999999,73.0,78.0
104,100.33490890833333,101.00331061666667,68.0,71.0
105,101.16824090833333,102.67344683333333,73.0,75.0
106,101.16824090833333,102.67865515833333,70.0,73.0
107,102.83490490833333,103.61094533333333,72.0,77.0
108,103.66823690833333,104.34879137499999,68.0,78.0
109,104.50156890833333,105.72552528333333,68.0,73.0
110,104.50156890833333,105.80885848333332,73.0,78.0
111,105.75156690833333,106.15955236666666,75.0,76.0
112,106.16823290833332,107.55191124999999,77.0,79.0
113,106.16823290833332,107.56406400833333,73.0,72.0
114,107.41823090833333,107.65260553333333,65.0,92.0
115,107.62656390833332,107.83489690833333,68.0,80.0
116,107.83489690833333,109.08489490833333,68.0,80.0
117,107.83489690833333,109.08489490833333,73.0,85.0
118,109.29322790833332,109.42864435833333,68.0,80.0
119,109.50156090833333,109.85746311666666,68.0,79.0
120,109.91822690833332,110.03801838333332,73.0,82.0
121,110.12655990833333,110.77933664166666,73.0,80.0
122,110.75155890833332,111.12655830833333,75.0,92.0
123,111.16822490833333,112.41822290833333,73.0,87.0
124,112.62655590833333,113.82273454999999,73.0,78.0
125,114.50155290833332,115.161274075,68.0,78.0
126,115.33488490833332,115.54321790833333,68.0,82.0
127,115.54321790833333,115.73071760833332,66.0,76.0
128,115.75155090833333,115.89043957499999,66.0,79.0
129,115.95988390833332,116.140439175,65.0,89.0
130,114.50155290833332,116.16821690833333,77.0,79.0
131,116.16821690833333,116.50328581666666,63.0,85.0
132,116.16821690833333,116.58488290833333,80.0,79.0
133,116.58488290833333,116.74634098333333,63.0,78.0
134,116.58488290833333,117.00154890833333,78.0,79.0
135,116.79321590833332,117.20988190833333,61.0,78.0
136,117.00154890833333,117.41821490833333,80.0,79.0
137,117.41821490833333,117.64911731666666,63.0,79.0
138,117.41821490833333,117.83488090833333,85.0,79.0
139,117.62654790833332,117.85571420833332,65.0,79.0
140,117.83488090833333,119.08487890833332,63.0,84.0
141,119.08487890833332,119.31404520833333,60.0,78.0
142,117.83488090833333,119.50154490833333,84.0,79.0
143,119.29321190833333,119.51369766666666,58.0,76.0
144,119.50154490833333,119.94425253333333,57.0,82.0
145,119.91821090833332,120.09529395833333,60.0,80.0
146,120.12654390833333,120.32272415,63.0,78.0
147,119.91821090833332,120.33487690833333,82.0,79.0
148,120.33487690833333,120.57445985833333,66.0,71.0
149,120.33487690833333,120.75154290833333,84.0,79.0
150,120.54320990833332,120.76890399166666,69.0,79.0
151,120.75154290833333,120.98070920833332,72.0,76.0
152,120.95987590833333,121.13695895833332,65.0,79.0
153,120.75154290833333,121.16820890833333,77.0,79.0
154,121.16820890833333,121.58487490833333,85.0,79.0
155,121.58487490833333,122.00154090833333,84.0,79.0
156,121.16820890833333,122.234179425,73.0,80.0
157,122.41820690833333,122.61091493333333,73.0,85.0
158,122.62653990833333,122.86091453333333,75.0,79.0
159,122.00154090833333,123.25153890833333,85.0,79.0
160,122.83487290833332,123.66820490833332,73.0,87.0
161,123.25153890833333,123.66820490833332,82.0,79.0
162,123.66820490833332,123.92341283333333,72.0,85.0
163,123.66820490833332,124.08487090833333,84.0,79.0
164,123.87653790833333,124.10223199166666,73.0,80.0
165,124.08487090833333,124.3123011,75.0,85.0
166,124.29320390833333,124.49285636666666,73.0,81.0
167,124.08487090833333,124.50153690833332,85.0,79.0
168,124.50153690833332,125.34181334166666,77.0,84.0
169,125.33486890833333,125.76021544999999,75.0,89.0
170,124.50153690833332,126.16820090833333,89.0,79.0
171,125.75153490833333,126.20639529166667,73.0,85.0
172,126.16820090833333,127.00153290833333,75.0,79.0
173,126.16820090833333,127.81923993333332,70.0,81.0
174,127.00153290833333,127.83486490833333,73.0,79.0
175,128.25153090833334,128.56576651666666,73.0,74.0
176,128.25153090833334,128.56923873333332,70.0,72.0
177,128.66819690833333,129.31402920833332,73.0,79.0
178,128.66819690833333,129.33139029166665,70.0,77.0
179,129.08486290833332,129.52757053333332,66.0,80.0
180,128.66819690833333,129.56750102499998,82.0,72.0
181,129.50152890833334,129.95986150833332,68.0,79.0
182,129.50152890833334,130.36437475,85.0,77.0
183,129.91819490833333,130.36784696666666,66.0,75.0
184,130.33486090833333,130.74805469166665,65.0,80.0
185,130.33486090833333,131.20465118333334,87.0,79.0
186,130.75152690833332,131.2289567,63.0,80.0
187,131.16819290833334,133.807077575,61.0,87.0
188,131.16819290833334,134.23242411666666,80.0,65.0
189,131.16819290833334,134.25672963333332,85.0,75.0
190,134.50152090833333,137.30359975833332,61.0,59.0
191,134.50152090833333,137.32269695,65.0,71.0
192,137.83484890833333,138.7046391833333,61.0,71.0
193,138.66818090833334,139.52234620833332,58.0,68.0
194,139.50151290833332,141.06401040833333,56.0,72.0
195,141.16817690833332,143.70983950833332,65.0,77.0
196,143.66817290833333,144.129977725,68.0,69.0
197,144.08483890833332,144.56053259166666,70.0,74.0
198,144.50150490833332,145.80185004999998,68.0,72.0
199,145.75150290833332,146.17337723333333,65.0,74.0
200,146.1681689083333,146.650807025,63.0,72.0
201,146.58483490833333,147.0414314,65.0,78.0
202,147.00150090833333,147.4372641,66.0,79.0
203,147.41816690833332,147.89906891666666,68.0,70.0
204,147.83483290833334,149.49281636666666,70.0,78.0
205,150.33482890833332,151.11781376666667,68.0,76.0
206,151.16816090833333,153.2705881,70.0,68.0
207,153.25149090833332,153.69072631666666,72.0,79.0
208,153.66815690833332,154.54836383333333,73.0,79.0
209,154.50148890833333,155.39905691666667,68.0,65.0
210,155.3348209083333,156.16468069166666,66.0,71.0
211,156.16815290833333,157.609122825,63.0,64.0
212,157.83481690833332,158.56051019166665,61.0,67.0
213,157.83481690833332,158.609121225,65.0,73.0
214,158.66814890833334,159.317453425,61.0,74.0
215,158.66814890833334,159.34870337499999,66.0,74.0
216,159.50148090833332,160.18029926666665,65.0,79.0
217,159.50148090833332,160.20113256666667,61.0,74.0
218,160.33481290833333,160.7098123083333,65.0,77.0
219,160.33481290833333,160.765367775,68.0,73.0
220,160.75147890833333,161.15599215,66.0,66.0
221,160.75147890833333,161.15946436666667,63.0,66.0
222,161.16814490833332,162.7983506333333,73.0,78.0
223,162.83480890833332,163.72196026666666,72.0,76.0
224,163.66814090833333,164.3539037,68.0,78.0
225,164.5014729083333,165.87126238333332,66.0,69.0
226,164.5014729083333,165.9164012,70.0,78.0
227,166.16813690833334,166.963274525,73.0,73.0
228,166.16813690833334,166.984107825,77.0,79.0
229,167.00146890833332,167.442440425,75.0,78.0
230,167.41813490833331,167.80528706666666,73.0,78.0
231,167.83480090833334,169.35215959166666,73.0,76.0
232,169.50146490833333,170.29833863333332,72.0,76.0
233,170.33479690833332,171.0622263,68.0,71.0
234,171.16812890833333,172.47194626666666,68.0,73.0
235,172.41812690833333,172.81916793333332,73.0,73.0
236,172.83479290833333,173.28097275,72.0,78.0
237,173.25145890833332,173.65770825833332,73.0,80.0
238,173.6681249083333,174.37298489166665,75.0,81.0
239,174.50145690833332,176.17332923333333,73.0,80.0
240,176.16812090833332,177.02749453333334,72.0,79.0
241,177.00145290833333,177.7358267333333,68.0,73.0
242,177.83478490833332,179.33999083333333,70.0,76.0
243,179.50144890833332,180.3538781,73.0,78.0
244,180.33478090833333,181.00318261666666,68.0,71.0
245,181.1681129083333,182.67331883333333,73.0,75.0
246,181.1681129083333,182.67852715833334,70.0,73.0
247,182.83477690833334,183.61081733333333,72.0,77.0
248,183.66810890833332,184.348663375,68.0,78.0
249,184.50144090833334,185.72539728333334,68.0,73.0
250,184.50144090833334,185.80873048333333,73.0,78.0
251,185.7514389083333,186.15942436666666,75.0,76.0
252,186.16810490833333,187.55178325,77.0,79.0
253,186.16810490833333,187.56393600833331,73.0,72.0
254,187.83476890833333,189.5066412333333,73.0,80.0
255,189.50143290833333,190.36080653333332,72.0,79.0
256,190.3347649083333,191.06913873333332,68.0,73.0
257,191.16809690833333,192.67330283333334,70.0,76.0
258,192.83476090833332,193.68719009999998,73.0,78.0
259,193.66809290833334,194.33649461666667,68.0,71.0
260,194.50142490833332,196.37121358333332,73.0,75.0
261,194.50142490833332,196.37642190833333,70.0,73.0
262,201.63509405,202.36773176666665,73.0,81.0
263,202.4788427,202.96321692499998,73.0,85.0
264,202.90592535,203.34168854166666,70.0,79.0
265,203.34689686666667,204.71842245,68.0,75.0
266,204.6871725,204.93890820833332,65.0,84.0
267,204.90765825833333,205.16286618333334,66.0,80.0
268,205.14724120833333,205.59168494166667,68.0,79.0
269,205.56737942499998,206.03960089166665,65.0,83.0
270,206.01008704999998,206.53786398333332,63.0,78.0
271,206.53091955,207.16112687499998,61.0,80.0
272,207.12466859999998,208.8972352083333,63.0,78.0
273,209.01876279166666,209.15417924166667,63.0,70.0
274,208.87292969166666,209.24272076666665,61.0,77.0
275,209.23230411666665,211.2079954,60.0,75.0
276,211.21146761666665,211.60209199166667,60.0,78.0
277,211.46146721666665,212.02223020833333,61.0,74.0
278,211.723619575,212.32604916666665,68.0,77.0
279,212.25313261666665,213.18542279166667,60.0,68.0
280,213.28958929166666,214.473615175,58.0,69.0
281,214.44757355,215.650696625,56.0,65.0
282,215.942362825,216.129862525,51.0,67.0
283,216.046529325,219.27742693333332,53.0,71.0
