,start,end,pitch,velocity
0,1.5538169583333332,2.470482158333333,56.0,56.0
1,1.130206525,2.4808988083333334,49.0,50.0
2,1.9687468499999998,2.4808988083333334,61.0,60.0
3,2.6909679166666667,3.6302025249999996,49.0,70.0
4,2.8454815583333333,3.7447856749999997,61.0,65.0
5,2.4652738333333333,3.76041065,42.0,67.0
6,2.7690927916666666,3.776035625,58.0,66.0
7,2.6857595916666663,3.7968689249999996,54.0,65.0
8,4.378465216666666,4.9965197833333335,53.0,67.0
9,4.881936633333333,5.383671941666666,48.0,57.0
10,4.475687283333333,5.418394108333333,41.0,77.0
11,4.4704789583333335,5.505199525,60.0,57.0
12,4.4166596,5.557282775,56.0,67.0
13,5.3298525833333334,5.590268833333333,53.0,67.0
14,6.005198725,6.913183383333333,60.0,39.0
15,6.13540685,7.038183183333333,68.0,60.0
16,6.131934633333333,7.1041552999999995,41.0,55.0
17,7.65623775,7.876723508333333,58.0,61.0
18,7.781237549999999,8.723944375,66.0,73.0
19,8.230889608333333,8.776027625,58.0,60.0
20,7.782973658333333,8.791652599999999,51.0,74.0
21,8.6666528,8.807277574999999,63.0,72.0
22,9.338526725,9.918386908333332,56.0,63.0
23,9.392346083333333,10.286441875,60.0,69.0
24,9.484359825,10.312483499999999,63.0,75.0
25,10.307275175,10.579844183333332,56.0,79.0
26,9.835053708333334,10.6458163,51.0,61.0
27,9.439221008333332,10.833316,44.0,76.0
28,10.965260233333332,11.168384908333334,56.0,65.0
29,11.142343283333332,11.585050908333333,65.0,79.0
30,11.053801758333332,11.67706465,61.0,71.0
31,11.517342683333332,12.038175183333333,56.0,72.0
32,11.980883608333333,12.456577291666665,61.0,72.0
33,11.111093333333333,12.555535466666665,49.0,75.0
34,11.960050308333333,12.711785216666666,66.0,73.0
35,12.753451816666667,12.977409791666666,49.0,71.0
36,12.350674683333333,13.045118016666667,56.0,73.0
37,12.737826841666665,13.453103474999999,61.0,60.0
38,13.216992741666665,13.807269575,56.0,70.0
39,13.668380908333333,14.135394049999999,61.0,68.0
40,14.085046908333332,14.425324141666666,56.0,67.0
41,12.758660141666667,14.508657341666666,65.0,69.0
42,14.501712908333333,15.373239291666666,61.0,71.0
43,14.501712908333333,15.397544808333333,66.0,70.0
44,15.335044908333332,15.748238691666666,70.0,78.0
45,15.126711908333332,15.803794158333332,49.0,42.0
46,14.501712908333333,15.807266375,42.0,78.0
47,15.751710908333333,16.25171010833333,61.0,72.0
48,16.168376908333332,16.673584433333332,66.0,64.0
49,16.168376908333332,16.828098075,69.0,66.0
50,16.58504290833333,17.128444816666665,61.0,67.0
51,16.168376908333332,17.529485841666666,54.0,78.0
52,17.00170890833333,17.758652141666666,66.0,68.0
53,17.418374908333334,17.838513125,61.0,57.0
54,17.835040908333333,18.765594975,41.0,79.0
55,18.251706908333333,18.7708033,48.0,66.0
56,18.668372908333332,19.100663883333333,56.0,74.0
57,18.668372908333332,19.130177725,60.0,78.0
58,19.08503890833333,19.142330483333332,53.0,69.0
59,19.501704908333334,20.1249678,61.0,67.0
60,19.501704908333334,20.170106616666665,58.0,66.0
61,20.335036908333333,20.682258575,65.0,78.0
62,19.918370908333333,20.798577833333333,53.0,65.0
63,19.501704908333334,20.80205005,46.0,78.0
64,21.16836890833333,21.661423674999998,66.0,76.0
65,21.58503490833333,22.079825783333334,58.0,79.0
66,21.16836890833333,22.291631,51.0,76.0
67,22.001700908333333,22.439200208333332,63.0,79.0
68,22.418366908333333,22.585033308333333,58.0,66.0
69,22.835032908333332,23.376698708333333,63.0,71.0
70,22.835032908333332,23.440934716666664,56.0,65.0
71,23.25169890833333,24.046836525,51.0,68.0
72,23.66836490833333,24.163155783333334,60.0,73.0
73,22.835032908333332,24.201350166666664,44.0,77.0
74,24.085030908333334,24.57461345833333,56.0,79.0
75,24.501696908333333,24.956557291666666,61.0,80.0
76,24.918362908333332,25.397528808333334,56.0,78.0
77,25.33502890833333,25.942666825,66.0,70.0
78,24.501696908333333,26.078083274999997,49.0,73.0
79,25.75169490833333,26.376693908333333,56.0,74.0
80,26.168360908333334,26.618012966666665,61.0,63.0
81,26.168360908333334,27.017317883333334,65.0,69.0
82,26.585026908333333,27.107595516666667,56.0,69.0
83,27.001692908333332,27.463497725,63.0,63.0
84,26.168360908333334,27.581553091666667,49.0,78.0
85,27.41835890833333,27.737802841666664,61.0,68.0
86,27.83502490833333,28.076343966666666,56.0,72.0
87,27.83502490833333,28.305510266666666,61.0,73.0
88,28.25169090833333,28.590232033333333,56.0,66.0
89,27.83502490833333,29.296828124999998,49.0,72.0
90,28.668356908333333,29.399258516666666,65.0,79.0
91,29.501688908333332,29.595438758333334,61.0,35.0
92,29.91835490833333,30.383631941666664,56.0,78.0
93,29.501688908333332,30.664881491666666,49.0,75.0
94,30.33502090833333,30.753423016666666,61.0,66.0
95,30.33502090833333,30.836756216666664,65.0,78.0
96,30.751686908333333,31.008630941666667,56.0,72.0
97,31.168352908333333,32.04335150833333,58.0,66.0
98,31.168352908333333,32.131893033333334,42.0,71.0
99,32.00168490833333,32.201337366666664,54.0,78.0
100,31.585018908333332,32.213490125,49.0,69.0
101,32.83501690833333,33.02251660833333,56.0,66.0
102,32.83501690833333,33.33675221666667,61.0,70.0
103,33.25168290833333,33.66487669166666,56.0,75.0
104,32.83501690833333,33.696126641666666,49.0,78.0
105,33.66834890833333,33.815918116666666,65.0,78.0
106,34.501680908333334,35.196124241666666,65.0,79.0
107,34.501680908333334,35.22737419166666,61.0,65.0
108,35.33501290833333,35.68049846666666,68.0,76.0
109,34.501680908333334,35.80549826666667,49.0,80.0
110,34.91834690833333,35.80897048333333,56.0,66.0
111,36.16834490833333,36.673552433333334,61.0,67.0
112,36.16834490833333,37.07112124166667,65.0,73.0
113,36.58501090833333,37.34369025,56.0,68.0
114,36.16834490833333,37.38362074166667,49.0,78.0
115,37.00167690833333,37.451328966666665,61.0,78.0
116,37.41834290833333,37.600634283333335,65.0,78.0
117,37.83500890833333,38.41486909166667,63.0,73.0
118,38.668340908333334,38.808965683333334,63.0,56.0
119,37.83500890833333,39.305492666666666,44.0,77.0
120,38.668340908333334,39.49299236666666,56.0,79.0
121,38.25167490833333,39.57632556666667,51.0,68.0
122,39.085006908333334,40.416602,63.0,74.0
123,39.50167290833333,40.435699191666664,68.0,71.0
124,40.33500490833333,40.52250460833333,56.0,79.0
125,39.50167290833333,40.61625445833333,44.0,71.0
126,39.91833890833333,40.624935,51.0,64.0
127,41.16833690833333,42.055488266666664,61.0,73.0
128,42.00166890833333,42.473890374999996,58.0,80.0
129,42.41833490833333,42.897500808333334,61.0,69.0
130,41.58500290833333,43.12145878333333,53.0,75.0
131,42.835000908333335,43.33500010833333,65.0,79.0
132,41.16833690833333,43.83499930833333,46.0,78.0
133,43.251666908333334,43.89749920833333,53.0,66.0
134,43.66833290833333,44.13187383333333,58.0,73.0
135,43.66833290833333,44.20479038333333,61.0,77.0
136,44.08499890833333,44.354095699999995,46.0,79.0
137,44.50166490833333,45.369719075,58.0,68.0
138,44.50166490833333,45.39923291666666,54.0,65.0
139,45.33499690833333,45.78291285833333,61.0,74.0
140,45.75166290833333,46.237773241666666,58.0,71.0
141,46.16832890833333,46.470411758333334,66.0,75.0
142,46.58499490833333,46.86103613333333,54.0,71.0
143,47.00166090833333,47.08152189166667,58.0,74.0
144,47.00166090833333,47.130132925,61.0,76.0
145,44.91833090833333,47.21520223333333,49.0,62.0
146,44.50166490833333,47.24645218333333,42.0,76.0
147,47.834992908333334,48.366242058333334,66.0,78.0
148,47.834992908333334,48.748185891666665,51.0,79.0
149,48.25165890833333,48.748185891666665,58.0,74.0
150,48.66832490833333,48.77769973333333,63.0,75.0
151,49.50165690833333,50.37318329166666,63.0,73.0
152,50.33498890833333,50.791585399999995,56.0,80.0
153,49.91832290833333,50.812418699999995,51.0,76.0
154,49.50165690833333,50.81589091666667,44.0,76.0
155,50.75165490833333,51.15616815,60.0,79.0
156,51.16832090833333,51.654431241666664,61.0,79.0
157,51.58498690833333,51.824569858333334,56.0,80.0
158,51.16832090833333,51.88359754166667,49.0,74.0
159,52.001652908333334,52.176999849999994,54.0,70.0
160,52.001652908333334,52.55894368333333,42.0,76.0
161,52.41831890833333,52.60755471666666,54.0,76.0
162,52.001652908333334,52.80547106666666,58.0,73.0
163,52.83498490833333,53.303734158333334,56.0,73.0
164,52.83498490833333,53.409636766666665,61.0,72.0
165,53.66831690833333,53.975608083333334,65.0,79.0
166,52.83498490833333,54.16484389166666,49.0,78.0
167,54.08498290833333,54.42352403333333,56.0,72.0
168,54.50164890833333,54.70998190833333,56.0,73.0
169,54.50164890833333,55.11796736666666,65.0,79.0
170,54.91831490833333,55.39400859166666,56.0,69.0
171,54.50164890833333,55.57456385833333,49.0,78.0
172,55.33498090833333,55.716924741666666,61.0,80.0
173,55.75164690833333,56.20129896666666,56.0,82.0
174,56.58497890833333,56.810672991666664,56.0,66.0
175,56.168312908333334,56.81588131666666,65.0,78.0
176,57.00164490833333,57.14921411666666,56.0,78.0
177,57.00164490833333,57.40789425833333,61.0,79.0
178,57.41831090833333,57.525949624999996,56.0,81.0
179,57.83497690833333,58.35580940833333,54.0,71.0
180,57.83497690833333,58.685669991666664,61.0,76.0
181,58.66830890833333,58.77421151666666,54.0,80.0
182,58.25164290833333,58.841919741666665,49.0,66.0
183,57.83497690833333,58.862753041666664,42.0,79.0
184,59.50164090833333,59.697821149999996,56.0,73.0
185,59.50164090833333,60.029417841666664,61.0,76.0
186,59.91830690833333,60.378375616666666,56.0,72.0
187,59.50164090833333,60.399208916666666,49.0,78.0
188,60.33497290833333,60.843652649999996,65.0,79.0
189,60.751638908333334,61.281151949999995,56.0,79.0
190,61.16830490833333,61.423512833333334,37.0,74.0
191,61.16830490833333,61.643998591666666,61.0,75.0
192,61.58497090833333,62.06934513333333,56.0,71.0
193,62.00163690833333,62.46691394166666,61.0,71.0
194,62.41830290833333,62.89920491666666,56.0,62.0
195,62.83496890833333,63.28982929166666,61.0,74.0
196,62.83496890833333,63.442606825,65.0,78.0
197,62.83496890833333,63.73600913333333,49.0,66.0
198,63.25163490833333,63.75163410833333,56.0,78.0
199,63.66830090833333,64.01378646666666,61.0,78.0
200,64.50163290833333,65.32107604166666,60.0,69.0
201,64.50163290833333,65.348853775,56.0,70.0
202,65.33496490833333,65.50336741666666,63.0,74.0
203,64.91829890833333,65.96170001666667,51.0,66.0
204,65.75163090833333,66.01378326666666,56.0,77.0
205,64.50163290833333,66.036352675,44.0,78.0
206,66.16829690833333,66.46864364999999,68.0,73.0
207,66.16829690833333,66.61621285833333,56.0,78.0
208,66.58496290833332,67.286350675,51.0,67.0
209,67.00162890833333,67.30023954166667,60.0,71.0
210,66.16829690833333,67.32628116666666,44.0,75.0
211,67.00162890833333,67.48079480833333,63.0,71.0
212,67.41829490833334,67.557183575,56.0,80.0
213,67.83496090833333,68.36621005833334,58.0,71.0
214,67.83496090833333,68.390515575,61.0,74.0
215,68.25162690833334,68.74120945833333,53.0,68.0
216,67.83496090833333,68.78461216666666,46.0,79.0
217,68.66829290833333,69.08669501666667,58.0,80.0
218,69.08495890833333,69.51724988333333,53.0,69.0
219,69.50162490833333,69.79329110833334,58.0,71.0
220,69.50162490833333,69.98079080833332,61.0,75.0
221,69.50162490833333,69.994679675,65.0,78.0
222,69.50162490833333,70.18912380833333,46.0,78.0
223,69.91829090833333,70.3123875,53.0,65.0
224,70.33495690833333,70.58148429166667,56.0,78.0
225,70.33495690833333,70.796761725,60.0,78.0
226,70.33495690833333,70.86099773333333,44.0,77.0
227,70.75162290833333,70.89224768333332,56.0,79.0
228,71.16828890833332,71.41828850833333,55.0,71.0
229,71.16828890833332,71.99467647499999,58.0,71.0
230,72.00162090833334,72.51724508333334,55.0,79.0
231,72.41828690833333,72.71516143333334,58.0,71.0
232,71.16828890833332,74.27939504166666,43.0,74.0
233,71.58495490833333,74.2915478,49.0,57.0
234,72.83495290833334,74.31932553333333,55.0,69.0
235,72.83495290833334,74.39918651666666,58.0,73.0
236,72.83495290833334,74.41481149166667,61.0,74.0
237,74.50161690833333,75.067588225,66.0,76.0
238,74.91828290833332,75.421754325,58.0,75.0
239,74.50161690833333,75.51724028333334,39.0,78.0
240,75.33494890833333,75.71515663333334,63.0,78.0
241,75.75161490833332,76.14223928333332,58.0,69.0
242,76.16828090833333,76.74119665833334,63.0,73.0
243,77.00161290833333,77.18390428333333,56.0,74.0
244,77.00161290833333,77.43563999166666,60.0,78.0
245,76.58494690833334,77.50161210833333,51.0,71.0
246,76.16828090833333,77.55890368333333,44.0,79.0
247,77.41827890833333,77.86619485833333,56.0,73.0
248,77.83494490833333,78.338416325,61.0,79.0
249,78.25161090833333,78.48077720833334,56.0,83.0
250,77.83494490833333,78.59188814166666,49.0,74.0
251,78.66827690833333,78.85056828333333,54.0,74.0
252,78.66827690833333,79.16654,42.0,79.0
253,78.66827690833333,79.18910940833332,58.0,77.0
254,79.08494290833333,79.27765093333333,54.0,78.0
255,79.50160890833332,79.72209466666666,56.0,73.0
256,79.50160890833332,80.02764973333333,61.0,77.0
257,79.91827490833333,80.09535795833332,56.0,69.0
258,80.33494090833332,80.47209346666666,56.0,79.0
259,80.33494090833332,81.08493970833332,61.0,83.0
260,80.75160690833333,81.09709246666667,56.0,78.0
261,80.33494090833332,81.098828575,65.0,83.0
262,79.50160890833332,81.12487019999999,49.0,80.0
263,81.16827290833334,81.62313329166666,58.0,75.0
264,81.16827290833334,81.650911025,61.0,79.0
265,81.58493890833333,82.11445195,53.0,72.0
266,81.16827290833334,82.25160450833333,46.0,79.0
267,82.00160490833333,82.369659875,58.0,78.0
268,82.00160490833333,82.66827050833334,61.0,85.0
269,82.00160490833333,82.67868715833333,65.0,85.0
270,82.62660390833332,82.75160370833333,58.0,75.0
271,82.41827090833333,82.75854814166667,53.0,72.0
272,82.83493690833333,83.34708886666667,56.0,78.0
273,82.83493690833333,83.40438044166666,60.0,73.0
274,83.25160290833333,83.82972698333333,51.0,66.0
275,83.66826890833333,84.09535155833333,56.0,77.0
276,83.66826890833333,84.13180983333334,60.0,81.0
277,83.66826890833333,84.14222648333333,63.0,79.0
278,82.83493690833333,84.18042086666667,44.0,78.0
279,84.08493490833332,84.38701775833333,51.0,78.0
280,84.50160090833333,85.077988875,54.0,75.0
281,84.50160090833333,85.14396099166666,58.0,74.0
282,84.91826690833332,85.42868275833332,49.0,72.0
283,85.33493290833333,85.56062699166667,54.0,81.0
284,84.50160090833333,85.62486299999999,42.0,79.0
285,85.33493290833333,85.66132127499999,58.0,84.0
286,85.54326590833332,85.74118225833332,49.0,77.0
287,85.75159890833334,85.92520974166666,54.0,81.0
288,86.16826490833333,86.42000061666667,56.0,74.0
289,86.16826490833333,86.67520854166666,61.0,73.0
290,86.58493090833333,86.88180543333333,56.0,79.0
291,87.00159690833333,87.29326310833333,65.0,82.0
292,87.20992990833334,87.43041566666666,56.0,77.0
293,86.16826490833333,87.48249891666666,49.0,78.0
294,87.41826290833333,87.64916531666667,61.0,78.0
295,87.62659590833333,87.75854014166666,56.0,76.0
296,87.83492890833332,88.27416431666666,63.0,80.0
297,88.25159490833333,88.52416391666667,58.0,78.0
298,87.83492890833332,88.77937184166666,51.0,78.0
299,88.66826090833332,88.95992710833333,66.0,74.0
300,88.66826090833332,89.07624636666667,63.0,75.0
301,89.08492690833333,89.13180183333333,58.0,64.0
302,89.50159290833334,89.75680083333333,60.0,74.0
303,89.50159290833334,89.900897825,68.0,64.0
304,89.91825890833333,90.19777235,60.0,79.0
305,90.12659190833332,90.32971658333332,65.0,79.0
306,89.70992590833333,90.50159130833333,48.0,65.0
307,89.50159290833334,90.55541066666666,41.0,81.0
308,90.33492490833333,90.56929953333334,68.0,80.0
309,90.54325790833333,90.74291036666666,65.0,70.0
310,90.75159090833333,90.85575740833333,60.0,79.0
311,91.16825690833333,91.63527005,63.0,75.0
312,91.16825690833333,91.66825610833332,56.0,74.0
313,91.58492290833333,92.08144989166667,51.0,70.0
314,92.00158890833333,92.20124136666666,56.0,78.0
315,92.00158890833333,92.234227425,60.0,81.0
316,91.16825690833333,92.37311609166666,44.0,79.0
317,92.20992190833333,92.62137958333332,51.0,73.0
318,92.41825490833332,92.73422662499999,56.0,78.0
319,92.62658790833333,92.79846263333333,63.0,73.0
320,92.83492090833333,93.05019834166666,56.0,78.0
321,92.83492090833333,93.0831844,63.0,59.0
322,92.83492090833333,93.13353154166666,68.0,79.0
323,93.25158690833332,93.39394779166666,56.0,80.0
324,93.45991990833333,93.52241980833332,56.0,60.0
325,93.45991990833333,93.56408640833332,60.0,79.0
326,93.04325390833333,93.62832241666666,51.0,78.0
327,93.66825290833333,93.93040526666667,56.0,79.0
328,92.83492090833333,93.93908580833333,44.0,80.0
329,93.66825290833333,93.99116905833333,60.0,82.0
330,93.66825290833333,94.0623495,63.0,81.0
331,93.87658590833333,94.10575220833333,51.0,82.0
332,94.08491890833334,94.22033535833333,56.0,85.0
333,94.50158490833333,95.02762573333332,58.0,75.0
334,94.50158490833333,95.23595873333333,54.0,78.0
335,94.91825090833333,95.40436124166666,49.0,57.0
336,95.33491690833333,95.54151379999999,58.0,80.0
337,95.33491690833333,95.60574980833333,61.0,81.0
338,94.50158490833333,95.74290236666666,42.0,79.0
339,95.54324990833332,95.79845783333333,49.0,67.0
340,95.75158290833333,95.90088822499999,54.0,84.0
341,96.16824890833333,96.83665061666666,56.0,76.0
342,97.00158090833332,97.05540026666667,56.0,61.0
343,96.16824890833333,97.07102524166666,53.0,75.0
344,96.16824890833333,97.291511,41.0,81.0
345,96.58491490833333,97.29324710833333,48.0,67.0
346,97.00158090833332,97.46164961666666,60.0,78.0
347,97.41824690833333,97.51720508333332,56.0,81.0
348,97.83491290833332,98.04498201666667,58.0,71.0
349,97.83491290833332,98.30713437499999,63.0,74.0
350,98.25157890833333,98.72727259166666,58.0,78.0
351,97.83491290833332,98.95123056666667,51.0,78.0
352,98.66824490833334,99.03803598333333,66.0,81.0
353,99.08491090833333,99.20991070833333,58.0,80.0
354,99.50157690833333,99.68907660833332,56.0,72.0
355,99.50157690833333,99.98768724166666,61.0,71.0
356,99.91824290833333,100.36095053333332,56.0,79.0
357,99.50157690833333,100.411297675,49.0,79.0
358,100.33490890833333,100.43386708333333,65.0,83.0
359,101.16824090833333,101.44949045833333,66.0,79.0
360,101.37657390833333,101.62136518333332,58.0,78.0
361,101.58490690833332,101.79844823333333,63.0,72.0
362,101.79323990833333,101.96685074166666,58.0,78.0
363,101.16824090833333,102.30365575833333,39.0,80.0
364,102.00157290833333,102.31928073333333,46.0,64.0
365,102.00157290833333,102.36789176666666,66.0,79.0
366,102.20990590833333,102.42518334166667,58.0,76.0
367,102.41823890833332,102.59011363333333,63.0,70.0
368,102.62657190833333,102.74636338333333,58.0,67.0
369,102.83490490833333,103.32795967499999,63.0,78.0
370,103.25157090833333,103.50330661666666,56.0,79.0
371,103.45990390833333,103.64740360833333,60.0,78.0
372,103.04323790833332,103.74288956666666,51.0,73.0
373,102.83490490833333,103.94948645833333,44.0,78.0
374,103.66823690833333,104.02761133333333,63.0,84.0
375,103.87656990833332,104.12309729166667,51.0,78.0
376,104.08490290833333,104.34011083333333,56.0,81.0
377,104.50156890833333,104.63872146666667,56.0,77.0
378,104.50156890833333,104.94948485833334,61.0,78.0
379,104.50156890833333,105.234206625,49.0,79.0
380,104.91823490833333,105.39219248333333,56.0,81.0
381,105.33490090833332,105.82448345833333,61.0,69.0
382,105.33490090833332,105.859205625,42.0,78.0
383,105.75156690833333,106.04670532499999,56.0,73.0
384,105.33490090833332,106.098788575,66.0,76.0
385,106.16823290833332,106.25677443333333,56.0,55.0
386,106.16823290833332,106.79670412499999,61.0,73.0
387,106.16823290833332,107.03281485833332,65.0,78.0
388,107.00156490833332,107.69427213333333,61.0,71.0
389,107.41823090833333,107.72725819166666,56.0,60.0
390,106.16823290833332,107.77239700833333,49.0,78.0
391,107.83489690833333,108.65260393333332,65.0,79.0
392,108.25156290833333,108.73246491666666,56.0,78.0
393,108.66822890833333,109.01545057499999,61.0,79.0
394,107.83489690833333,109.296700125,49.0,74.0
395,109.50156090833333,110.01371286666667,59.0,70.0
396,109.50156090833333,110.11093493333333,65.0,78.0
397,109.91822690833332,110.38176783333333,56.0,72.0
398,109.50156090833333,110.72030895833333,49.0,77.0
399,110.33489290833333,110.79496161666667,59.0,70.0
400,110.75155890833332,110.99114185833332,56.0,64.0
401,111.16822490833333,111.63697415833333,58.0,65.0
402,112.00155690833333,112.51370886666666,61.0,76.0
403,112.41822290833333,112.65780585833333,58.0,78.0
404,111.58489090833332,112.6664864,54.0,78.0
405,111.16822490833333,112.68905580833332,42.0,71.0
406,112.83488890833333,113.08488850833332,56.0,70.0
407,112.83488890833333,113.44599904166667,61.0,70.0
408,113.25155490833333,113.70988750833332,56.0,78.0
409,113.66822090833332,113.85572060833333,65.0,80.0
410,112.83488890833333,113.97203986666666,49.0,74.0
411,114.50155290833332,114.99113545833333,65.0,78.0
412,114.50155290833332,115.41474589166666,49.0,72.0
413,114.91821890833333,115.421690325,56.0,80.0
414,115.33488490833332,116.05536986666667,61.0,81.0
415,115.75155090833333,116.12655030833332,56.0,80.0
416,116.16821690833333,116.63696615833332,63.0,78.0
417,116.58488290833333,117.06925713333332,58.0,72.0
418,116.16821690833333,117.08140989166667,39.0,77.0
419,117.00154890833333,117.4164788,66.0,77.0
420,117.00154890833333,117.44599264166666,63.0,78.0
421,117.83488090833333,118.31404680833333,60.0,73.0
422,118.25154690833332,119.15432324166666,56.0,80.0
423,118.66821290833333,119.39217008333333,63.0,75.0
424,117.83488090833333,119.40605894999999,44.0,72.0
425,119.08487890833332,119.41821170833333,60.0,79.0
426,119.50154490833333,119.65605855,57.0,69.0
427,119.50154490833333,119.90258593333333,45.0,70.0
428,119.50154490833333,119.9373081,60.0,73.0
429,119.50154490833333,119.95640529166666,63.0,73.0
430,119.91821090833332,120.06578011666666,57.0,74.0
431,120.33487690833333,120.99807029166666,41.0,80.0
432,120.33487690833333,121.09702846666666,65.0,82.0
433,121.16820890833333,121.97376317499999,61.0,64.0
434,122.00154090833333,122.48938735,58.0,80.0
435,121.16820890833333,122.71160921666666,46.0,79.0
436,121.58487490833333,122.80015074166666,53.0,72.0
437,122.41820690833333,122.83487290833332,61.0,83.0
438,122.83487290833332,123.65605215,60.0,78.0
439,122.83487290833332,123.97723219166666,44.0,78.0
440,123.25153890833333,123.97896829999999,51.0,76.0
441,123.66820490833332,124.14389859166666,56.0,80.0
442,124.08487090833333,124.49112025833332,60.0,79.0
443,124.50153690833332,124.77236980833332,58.0,75.0
444,124.50153690833332,125.03799438333333,61.0,78.0
445,124.91820290833333,125.421674325,58.0,71.0
446,124.50153690833332,126.057089975,43.0,74.0
447,125.33486890833333,126.35222839166666,65.0,79.0
448,126.2081314,126.35222839166666,65.0,78.0
449,125.900840225,127.27931024166666,42.0,65.0
450,125.99979839999999,127.68729569999999,54.0,66.0
451,126.07445105833332,127.70118456666665,58.0,70.0
452,126.13868706666666,127.708129,61.0,64.0
453,127.83486490833333,128.73590513333332,66.0,75.0
454,128.25153090833334,128.848752175,46.0,62.0
455,127.83486490833333,128.86090493333333,39.0,77.0
456,128.66819690833333,129.15604335,58.0,80.0
457,129.08486290833332,129.19944605833334,63.0,78.0
458,129.50152890833334,130.17340283333334,60.0,72.0
459,129.50152890833334,130.20118056666666,56.0,70.0
460,130.33486090833333,130.59354105,63.0,77.0
461,130.33486090833333,130.59701326666666,56.0,75.0
462,129.91819490833333,130.71159641666665,51.0,64.0
463,129.50152890833334,130.765415775,44.0,78.0
464,131.16819290833334,131.91992781666667,66.0,79.0
465,131.58485890833333,132.06923313333334,56.0,72.0
466,132.00152490833332,132.43034366666666,61.0,73.0
467,131.16819290833334,132.671662725,49.0,78.0
468,132.41819090833332,132.91298178333332,66.0,73.0
469,132.83485690833334,133.09700926666667,56.0,66.0
470,132.83485690833334,133.64388339166666,65.0,78.0
471,133.25152290833333,133.71506383333332,56.0,64.0
472,133.66818890833332,134.39040997499998,61.0,71.0
473,134.08485490833334,134.4164516,56.0,67.0
474,132.83485690833334,134.452909875,49.0,78.0
475,134.50152090833333,134.70985390833332,56.0,73.0
476,134.50152090833333,135.11783936666666,65.0,79.0
477,134.91818690833333,135.39388059166666,56.0,69.0
478,134.50152090833333,135.57443585833332,49.0,78.0
479,135.33485290833332,135.71679674166666,61.0,80.0
480,135.75151890833334,136.20117096666667,56.0,82.0
481,136.58485090833332,136.81054499166666,56.0,66.0
482,136.16818490833333,136.81575331666667,65.0,78.0
483,137.00151690833331,137.14908611666667,56.0,78.0
484,137.00151690833331,137.40776625833334,61.0,79.0
485,137.41818290833334,137.525821625,56.0,81.0
486,137.83484890833333,138.35568140833334,54.0,71.0
487,137.83484890833333,138.68554199166667,61.0,76.0
488,138.66818090833334,138.77408351666665,54.0,80.0
489,138.25151490833332,138.84179174166667,49.0,66.0
490,137.83484890833333,138.86262504166666,42.0,79.0
491,139.50151290833332,139.69769315,56.0,73.0
492,139.50151290833332,140.02928984166667,61.0,76.0
493,139.91817890833332,140.37824761666667,56.0,72.0
494,139.50151290833332,140.39908091666666,49.0,78.0
495,140.33484490833334,140.84352465,65.0,79.0
496,140.75151090833333,141.28102395,56.0,79.0
497,141.16817690833332,141.42338483333333,37.0,74.0
498,141.16817690833332,141.64387059166665,61.0,75.0
499,141.58484290833331,142.06921713333332,56.0,71.0
500,142.00150890833334,142.46678594166667,61.0,71.0
501,142.41817490833333,142.89907691666667,56.0,62.0
502,142.83484090833332,143.28970129166666,61.0,74.0
503,142.83484090833332,143.442478825,65.0,78.0
504,142.83484090833332,143.73588113333332,49.0,66.0
505,143.25150690833334,143.75150610833333,56.0,78.0
506,143.66817290833333,144.01365846666667,61.0,78.0
507,144.50150490833332,145.32094804166667,60.0,69.0
508,144.50150490833332,145.348725775,56.0,70.0
509,145.33483690833333,145.50323941666667,63.0,74.0
510,144.91817090833334,145.96157201666665,51.0,66.0
511,145.75150290833332,146.01365526666666,56.0,77.0
512,144.50150490833332,146.036224675,44.0,78.0
513,146.1681689083333,146.46851565,68.0,73.0
514,146.1681689083333,146.61608485833332,56.0,78.0
515,146.58483490833333,147.286222675,51.0,67.0
516,147.00150090833333,147.30011154166667,60.0,71.0
517,146.1681689083333,147.32615316666667,44.0,75.0
518,147.00150090833333,147.48066680833332,63.0,71.0
519,147.41816690833332,147.557055575,56.0,80.0
520,147.83483290833334,148.36608205833332,58.0,71.0
521,147.83483290833334,148.390387575,61.0,74.0
522,148.25149890833333,148.74108145833333,53.0,68.0
523,147.83483290833334,148.78448416666666,46.0,79.0
524,148.66816490833332,149.08656701666666,58.0,80.0
525,149.08483090833332,149.51712188333332,53.0,69.0
526,149.50149690833334,149.79316310833332,58.0,71.0
527,149.50149690833334,149.98066280833334,61.0,75.0
528,149.50149690833334,149.994551675,65.0,78.0
529,149.50149690833334,150.18899580833332,46.0,78.0
530,149.91816290833333,150.31225949999998,53.0,65.0
531,150.33482890833332,150.58135629166665,56.0,78.0
532,150.33482890833332,150.796633725,60.0,78.0
533,150.33482890833332,150.86086973333332,44.0,77.0
534,150.7514949083333,150.89211968333333,56.0,79.0
535,151.16816090833333,151.41816050833333,55.0,71.0
536,151.16816090833333,151.994548475,58.0,71.0
537,152.00149290833332,152.51711708333332,55.0,79.0
538,152.41815890833334,152.71503343333333,58.0,71.0
539,151.16816090833333,154.27926704166666,43.0,74.0
540,151.58482690833333,154.2914198,49.0,57.0
541,152.83482490833333,154.31919753333332,55.0,69.0
542,152.83482490833333,154.39905851666666,58.0,73.0
543,152.83482490833333,154.41468349166666,61.0,74.0
544,154.50148890833333,155.067460225,66.0,76.0
545,154.91815490833332,155.421626325,58.0,75.0
546,154.50148890833333,155.51711228333332,39.0,78.0
547,155.3348209083333,155.71502863333333,63.0,78.0
548,155.75148690833333,156.14211128333332,58.0,69.0
549,156.16815290833333,156.74106865833332,63.0,73.0
550,157.00148490833334,157.18377628333332,56.0,74.0
551,157.00148490833334,157.43551199166666,60.0,78.0
552,156.58481890833332,157.50148410833333,51.0,71.0
553,156.16815290833333,157.55877568333332,44.0,79.0
554,157.41815090833333,157.8660668583333,56.0,73.0
555,157.83481690833332,158.33828832499998,61.0,79.0
556,158.25148290833332,158.48064920833332,56.0,83.0
557,157.83481690833332,158.59176014166667,49.0,74.0
558,158.66814890833334,158.8504402833333,54.0,74.0
559,158.66814890833334,159.16641199999998,42.0,79.0
560,158.66814890833334,159.18898140833332,58.0,77.0
561,159.08481490833333,159.27752293333333,54.0,78.0
562,159.50148090833332,159.72196666666665,56.0,73.0
563,159.50148090833332,160.02752173333332,61.0,77.0
564,159.9181469083333,160.09522995833333,56.0,69.0
565,160.33481290833333,160.47196546666666,56.0,79.0
566,160.33481290833333,161.08481170833332,61.0,83.0
567,160.75147890833333,161.09696446666666,56.0,78.0
568,160.33481290833333,161.09870057499998,65.0,83.0
569,159.50148090833332,161.1247422,49.0,80.0
570,161.16814490833332,161.62300529166666,58.0,75.0
571,161.16814490833332,161.65078302499998,61.0,79.0
572,161.58481090833334,162.11432395,53.0,72.0
573,161.16814490833332,162.25147650833333,46.0,79.0
574,162.00147690833333,162.36953187499998,58.0,78.0
575,162.00147690833333,162.66814250833332,61.0,85.0
576,162.00147690833333,162.67855915833331,65.0,85.0
577,162.62647590833333,162.75147570833332,58.0,75.0
578,162.41814290833332,162.75842014166665,53.0,72.0
579,162.83480890833332,163.34696086666665,56.0,78.0
580,162.83480890833332,163.40425244166667,60.0,73.0
581,163.25147490833334,163.8295989833333,51.0,66.0
582,163.66814090833333,164.09522355833332,56.0,77.0
583,163.66814090833333,164.13168183333332,60.0,81.0
584,163.66814090833333,164.1420984833333,63.0,79.0
585,162.83480890833332,164.18029286666666,44.0,78.0
586,164.08480690833332,164.38688975833333,51.0,78.0
587,164.5014729083333,165.077860875,54.0,75.0
588,164.5014729083333,165.14383299166667,58.0,74.0
589,164.91813890833333,165.42855475833332,49.0,72.0
590,165.33480490833333,165.56049899166666,54.0,81.0
591,164.5014729083333,165.624735,42.0,79.0
592,165.33480490833333,165.661193275,58.0,84.0
593,165.54313790833334,165.74105425833332,49.0,77.0
594,165.75147090833332,165.92508174166665,54.0,81.0
595,166.16813690833334,166.41987261666665,56.0,74.0
596,166.16813690833334,166.67508054166666,61.0,73.0
597,166.58480290833333,166.88167743333332,56.0,79.0
598,167.00146890833332,167.29313510833333,65.0,82.0
599,167.20980190833333,167.43028766666666,56.0,77.0
600,166.16813690833334,167.48237091666667,49.0,78.0
601,167.41813490833331,167.64903731666666,61.0,78.0
602,167.62646790833332,167.75841214166667,56.0,76.0
603,167.83480090833334,168.27403631666667,63.0,80.0
604,168.25146690833333,168.52403591666666,58.0,78.0
605,167.83480090833334,168.77924384166667,51.0,78.0
606,168.66813290833332,168.95979910833333,66.0,74.0
607,168.66813290833332,169.07611836666666,63.0,75.0
608,169.0847989083333,169.13167383333334,58.0,64.0
609,169.50146490833333,169.7566728333333,60.0,74.0
610,169.50146490833333,169.900769825,68.0,64.0
611,169.91813090833332,170.19764435,60.0,79.0
612,170.12646390833333,170.32958858333333,65.0,79.0
613,169.70979790833331,170.5014633083333,48.0,65.0
614,169.50146490833333,170.55528266666667,41.0,81.0
615,170.33479690833332,170.56917153333333,68.0,80.0
616,170.54312990833333,170.74278236666666,65.0,70.0
617,170.75146290833334,170.85562940833333,60.0,79.0
618,171.16812890833333,171.63514204999998,63.0,75.0
619,171.16812890833333,171.66812810833332,56.0,74.0
620,171.58479490833332,172.08132189166665,51.0,70.0
621,172.0014609083333,172.20111336666665,56.0,78.0
622,172.0014609083333,172.23409942499998,60.0,81.0
623,171.16812890833333,172.37298809166666,44.0,79.0
624,172.20979390833332,172.62125158333333,51.0,73.0
625,172.41812690833333,172.734098625,56.0,78.0
626,172.62645990833332,172.79833463333333,63.0,73.0
627,172.83479290833333,173.05007034166667,56.0,78.0
628,172.83479290833333,173.0830564,63.0,59.0
629,172.83479290833333,173.13340354166667,68.0,79.0
630,173.25145890833332,173.39381979166666,56.0,80.0
631,173.45979190833333,173.52229180833334,56.0,60.0
632,173.45979190833333,173.56395840833332,60.0,79.0
633,173.04312590833334,173.62819441666664,51.0,78.0
634,173.6681249083333,173.93027726666665,56.0,79.0
635,172.83479290833333,173.93895780833333,44.0,80.0
636,173.6681249083333,173.99104105833334,60.0,82.0
637,173.6681249083333,174.0622215,63.0,81.0
638,173.87645790833332,174.10562420833332,51.0,82.0
639,174.08479090833333,174.2202073583333,56.0,85.0
640,174.50145690833332,175.02749773333332,58.0,75.0
641,174.50145690833332,175.23583073333333,54.0,78.0
642,174.91812290833332,175.40423324166665,49.0,57.0
643,175.33478890833334,175.5413858,58.0,80.0
644,175.33478890833334,175.60562180833332,61.0,81.0
645,174.50145690833332,175.74277436666665,42.0,79.0
646,175.54312190833332,175.79832983333333,49.0,67.0
647,175.75145490833333,175.900760225,54.0,84.0
648,176.16812090833332,176.83652261666666,56.0,76.0
649,177.00145290833333,177.05527226666666,56.0,61.0
650,176.16812090833332,177.07089724166667,53.0,75.0
651,176.16812090833332,177.291383,41.0,81.0
652,176.5847869083333,177.29311910833331,48.0,67.0
653,177.00145290833333,177.46152161666666,60.0,78.0
654,177.41811890833333,177.51707708333333,56.0,81.0
655,177.83478490833332,178.04485401666665,58.0,71.0
656,177.83478490833332,178.307006375,63.0,74.0
657,178.2514509083333,178.72714459166667,58.0,78.0
658,177.83478490833332,178.95110256666666,51.0,78.0
659,178.66811690833333,179.03790798333333,66.0,81.0
660,179.08478290833332,179.20978270833334,58.0,80.0
661,179.50144890833332,179.68894860833333,56.0,72.0
662,179.50144890833332,179.98755924166664,61.0,71.0
663,179.91811490833334,180.36082253333333,56.0,79.0
664,179.50144890833332,180.411169675,49.0,79.0
665,180.33478090833333,180.43373908333334,65.0,83.0
666,181.1681129083333,181.44936245833333,66.0,79.0
667,181.37644590833332,181.62123718333333,58.0,78.0
668,181.58477890833333,181.79832023333333,63.0,72.0
669,181.79311190833332,181.96672274166667,58.0,78.0
670,181.1681129083333,182.30352775833333,39.0,80.0
671,182.00144490833333,182.3191527333333,46.0,64.0
672,182.00144490833333,182.36776376666666,66.0,79.0
673,182.20977790833334,182.42505534166665,58.0,76.0
674,182.41811090833332,182.58998563333333,63.0,70.0
675,182.62644390833333,182.74623538333333,58.0,67.0
676,182.83477690833334,183.327831675,63.0,78.0
677,183.25144290833333,183.50317861666664,56.0,79.0
678,183.4597759083333,183.64727560833333,60.0,78.0
679,183.04310990833332,183.74276156666664,51.0,73.0
680,182.83477690833334,183.94935845833334,44.0,78.0
681,183.66810890833332,184.02748333333332,63.0,84.0
682,183.87644190833333,184.12296929166666,51.0,78.0
683,184.08477490833332,184.33998283333332,56.0,81.0
684,184.50144090833334,184.63859346666666,56.0,77.0
685,184.50144090833334,184.94935685833332,61.0,78.0
686,184.50144090833334,185.234078625,49.0,79.0
687,184.91810690833333,185.39206448333331,56.0,81.0
688,185.33477290833332,185.82435545833332,61.0,69.0
689,185.33477290833332,185.859077625,42.0,78.0
690,185.7514389083333,186.046577325,56.0,73.0
691,185.33477290833332,186.098660575,66.0,76.0
692,186.16810490833333,186.25664643333332,56.0,55.0
693,186.16810490833333,186.796576125,61.0,73.0
694,186.16810490833333,187.03268685833334,65.0,78.0
695,187.00143690833332,187.69414413333334,61.0,71.0
696,187.41810290833334,187.72713019166665,56.0,60.0
697,186.16810490833333,187.77226900833332,49.0,78.0
698,187.66463029166667,188.36254584166664,54.0,65.0
699,187.74796349166667,188.69935085833333,58.0,67.0
700,187.859074425,188.734073025,66.0,71.0
701,187.81567171666666,188.76011465,61.0,66.0
702,188.65594815,188.796572925,54.0,69.0
703,188.20282387499998,188.82608676666666,49.0,64.0
704,187.77921344166666,188.90421164166665,42.0,78.0
705,189.327822075,189.9163628,53.0,64.0
706,189.40594695,190.2288623,56.0,66.0
707,189.46844685,190.2496956,60.0,49.0
708,189.82955738333334,190.30351495833332,48.0,58.0
709,189.442405225,190.3330288,41.0,80.0
710,191.03788878333333,191.16462469166666,58.0,34.0
711,191.06913873333332,191.21670794166667,63.0,71.0
712,191.14899971666665,191.619485075,66.0,74.0
713,191.53441576666665,192.06566491666666,58.0,74.0
714,192.01010945,192.34517835833333,63.0,78.0
715,191.13163863333332,192.3868449583333,51.0,73.0
716,192.77226100833332,192.92851075833332,56.0,44.0
717,192.85906642499998,193.43892660833333,65.0,79.0
718,192.84864977499998,193.73232891666666,49.0,77.0
719,193.24621858333333,193.77399551666664,56.0,73.0
720,193.68024566666665,194.12816161666666,61.0,79.0
721,194.35559180833332,194.9163548,58.0,66.0
722,194.48753604166666,195.46322892499998,63.0,75.0
723,194.50836934166665,195.81218669999998,39.0,80.0
724,194.931979775,195.827811675,46.0,66.0
725,195.41288178333332,195.98926974999998,58.0,80.0
726,195.963228125,196.056977975,63.0,81.0
727,196.61774096666664,197.81391960833332,56.0,67.0
728,196.68718529999998,198.14898851666666,60.0,69.0
729,196.62815761666667,200.37815161666666,51.0,66.0
730,196.452810675,200.41460989166666,44.0,79.0
731,198.34169654166666,201.46669154166665,56.0,67.0
732,196.77225460833333,201.48231651666666,63.0,71.0
733,197.79482241666665,201.52398311666667,68.0,75.0
734,201.5413442,202.13162103333332,54.0,62.0
735,201.609052425,202.48925935,58.0,62.0
736,201.692385625,202.588217525,61.0,58.0
737,202.49446767499998,202.629884125,54.0,61.0
738,202.06391280833333,202.73057840833332,49.0,52.0
739,201.60210799166666,202.79828663333333,42.0,73.0
740,203.13161943333333,203.69759075,53.0,53.0
741,203.25835534166666,203.9163404,56.0,65.0
742,203.29654972499998,204.09342345,60.0,67.0
743,203.72710459166666,204.192381625,48.0,55.0
744,203.31217469999999,204.254881525,41.0,72.0
745,204.16113167499998,204.26703428333332,53.0,81.0
746,205.140296775,205.73057360833332,66.0,74.0
747,205.59515715833334,206.1368229583333,58.0,79.0
748,205.150713425,206.42328083333334,51.0,73.0
749,206.08473970833333,206.54307230833334,63.0,78.0
750,206.54307230833334,207.16459909166664,58.0,80.0
751,207.08126589166665,208.359041625,63.0,71.0
752,207.71668154166665,208.48924975,51.0,68.0
753,208.9996656,209.95626129166666,63.0,62.0
754,208.83647141666665,210.01702508333332,56.0,66.0
755,208.90591575,210.03265005833333,60.0,65.0
756,208.77397151666665,210.04306670833333,51.0,52.0
757,207.06564091666667,210.16112207499998,44.0,66.0
758,210.87119038333333,211.01181515833332,56.0,52.0
759,210.90764865833333,211.43889780833334,37.0,74.0
760,211.16980101666667,211.64723080833332,61.0,72.0
761,211.50139770833331,211.77223060833333,56.0,66.0
762,211.80521666666667,212.15417444166667,63.0,67.0
763,212.07604956666665,212.34688246666667,56.0,59.0
764,212.41632679999998,212.68195137499998,65.0,57.0
765,213.82257454999998,214.556948375,63.0,62.0
766,213.12813121666665,215.25139170833333,56.0,53.0
767,212.73924294999998,215.33298879999998,49.0,51.0
768,214.567365025,215.77569642499998,68.0,66.0
769,216.24618178333333,216.46666754166665,63.0,68.0
770,216.1663208,216.64375059166665,68.0,69.0
771,216.34687606666665,217.48229091666667,61.0,65.0
772,216.025696025,218.60555300833332,49.0,66.0
773,216.18889020833333,218.61076133333333,56.0,64.0
