,start,end,pitch,velocity
0,25.979106914583333,26.193850010416668,70.0,95.0
1,26.363721414583335,26.70346422291667,70.0,100.0
2,26.748335914583333,27.36211655416667,78.0,96.0
3,27.517564914583335,28.137755795833336,77.0,111.0
4,28.671408414583333,28.950253927083335,77.0,95.0
5,29.056022914583334,29.701854762500002,75.0,98.0
6,29.825251914583333,30.52076313541667,74.0,98.0
7,30.594480914583333,31.916593258333336,75.0,100.0
8,33.286782414583335,33.5672304875,70.0,94.0
9,33.67139691458333,34.246716104166666,71.0,95.0
10,34.440625914583336,35.086457762500004,71.0,96.0
11,35.20985491458333,35.82203299375,73.0,94.0
12,35.979083914583335,36.74831291458334,73.0,98.0
13,36.74831291458334,37.86690008541667,70.0,94.0
14,38.286770914583336,38.575231789583334,70.0,99.0
15,38.671385414583334,38.97426933333333,70.0,95.0
16,39.05599991458333,39.68901127916667,78.0,98.0
17,39.825228914583334,40.847662460416664,77.0,100.0
18,40.979072414583335,41.27394353125,77.0,94.0
19,41.36368691458333,42.083236541666665,80.0,100.0
20,42.132915914583336,42.81400409166667,77.0,99.0
21,42.90214491458333,44.5479744625,75.0,99.0
22,45.59444641458334,45.902138014583336,75.0,96.0
23,45.979060914583336,46.64252092708333,82.0,96.0
24,46.74828991458333,47.325211664583335,78.0,95.0
25,47.517518914583334,48.913349037500005,74.0,96.0
26,49.05597691458333,49.6825780375,78.0,98.0
27,49.825205914583336,50.727447429166666,75.0,101.0
28,50.979049414583336,51.27552309166667,75.0,108.0
29,51.363663914583334,51.95981638958334,78.0,100.0
30,52.13289291458334,52.78994268541667,80.0,98.0
31,52.90212191458333,53.49827438958334,82.0,96.0
32,53.671350914583336,54.25628546666667,80.0,98.0
33,54.44057991458334,55.060770795833335,78.0,98.0
34,55.209808914583334,55.95980718958334,75.0,108.0
35,57.13288141458334,57.41493204791667,75.0,108.0
36,57.517495914583336,58.07518693958333,78.0,98.0
37,58.28672491458334,58.91973627916667,80.0,97.0
38,59.055953914583334,59.66652943333334,82.0,98.0
39,59.82518291458334,60.475822443750005,80.0,95.0
40,60.59441191458333,61.334794827083336,78.0,96.0
41,61.363640914583335,62.87966306875,75.0,105.0
42,63.28671341458333,63.57196916875,75.0,110.0
43,63.67132791458334,64.249852225,78.0,98.0
44,64.44055691458334,65.11202972916666,80.0,98.0
45,65.20978591458334,65.81074607083333,82.0,95.0
46,65.97901491458333,66.6056160375,80.0,99.0
47,66.74824391458334,67.44535769583334,78.0,101.0
48,67.90208741458333,68.49343220833333,85.0,101.0
49,68.47900916458333,68.73381627083333,83.0,96.0
50,69.05593091458334,69.71618580625,83.0,100.0
51,69.82515991458334,70.59438891458333,78.0,101.0
52,70.59438891458333,72.51746141458334,78.0,101.0
53,74.82514841458334,75.11040416875001,78.0,97.0
54,75.20976291458334,75.52706987708333,78.0,96.0
55,75.59437741458333,75.97899191458333,78.0,98.0
56,75.97899191458333,76.18091452708333,77.0,93.0
57,76.36360641458333,76.65046472916667,78.0,98.0
58,76.74822091458334,77.39886044375,82.0,97.0
59,77.51744991458334,78.37161461666668,77.0,100.0
60,78.67129341458333,78.94693380625,70.0,103.0
61,79.05590791458333,79.24180492291667,80.0,94.0
62,79.44052241458334,79.7017397625,77.0,98.0
63,79.82513691458334,81.36359491458333,78.0,97.0
64,82.51743841458334,82.75621991666667,75.0,111.0
65,82.90205291458334,83.11038576875,78.0,100.0
66,83.28666741458333,83.40205176458333,81.0,103.0
67,83.47897466458333,83.57032060833333,80.0,98.0
68,83.67128191458333,84.21615245625,78.0,100.0
69,84.44051091458334,84.6921129,78.0,99.0
70,84.82512541458334,85.14724005833334,78.0,96.0
71,85.20973991458334,85.50140591041666,73.0,98.0
72,85.59435441458334,85.865187125,80.0,99.0
73,85.97896891458333,87.07351767916667,82.0,101.0
74,87.13281241458334,87.41646560833334,78.0,96.0
75,87.51742691458334,87.79306730625001,78.0,96.0
76,87.90204141458334,88.20973301458334,78.0,100.0
77,88.28665591458333,88.56069374583333,77.0,100.0
78,88.67127041458333,88.93088520208333,78.0,96.0
79,89.05588491458333,89.71774236666667,82.0,100.0
80,89.82511391458334,90.33633068750001,77.0,98.0
81,90.97895741458333,91.3074823,70.0,98.0
82,91.36357191458333,91.66645583333333,80.0,98.0
83,91.74818641458333,92.02382680625,77.0,96.0
84,92.13280091458334,93.67125891458333,78.0,98.0
85,94.82510241458334,95.50779315208334,78.0,99.0
86,95.40202416458334,96.48375244583333,85.0,100.0
87,96.74817491458333,97.51740391458334,83.0,95.0
88,97.51740391458334,100.20970541458334,78.0,98.0
89,102.90200691458334,103.11675001041667,70.0,95.0
90,103.28662141458334,103.62636422291666,70.0,100.0
91,103.67123591458333,104.28501655416667,78.0,96.0
92,104.44046491458333,105.06065579583334,77.0,111.0
93,105.59430841458334,105.87315392708334,77.0,95.0
94,105.97892291458334,106.6247547625,75.0,98.0
95,106.74815191458333,107.44366313541667,74.0,98.0
96,107.51738091458334,108.83949325833333,75.0,100.0
97,110.20968241458334,110.4901304875,70.0,94.0
98,110.59429691458334,111.16961610416666,71.0,95.0
99,111.36352591458333,112.0093577625,71.0,96.0
100,112.13275491458333,112.74493299375,73.0,94.0
101,112.90198391458334,113.67121291458334,73.0,98.0
102,113.67121291458334,114.78980008541667,70.0,94.0
103,115.20967091458334,115.49813178958334,70.0,99.0
104,115.59428541458334,115.89716933333334,70.0,95.0
105,115.97889991458334,116.61191127916668,78.0,98.0
106,116.74812891458333,117.77056246041667,77.0,100.0
107,117.90197241458334,118.19684353125001,77.0,94.0
108,118.28658691458334,119.00613654166668,80.0,100.0
109,119.05581591458333,119.73690409166667,77.0,99.0
110,119.82504491458333,121.4708744625,75.0,99.0
111,122.51734641458334,122.82503801458334,75.0,96.0
112,122.90196091458334,123.56542092708334,82.0,96.0
113,123.67118991458334,124.24811166458333,78.0,95.0
114,124.44041891458333,125.83624903750001,74.0,96.0
115,125.97887691458334,126.6054780375,78.0,98.0
116,126.74810591458333,127.65034742916667,75.0,101.0
117,127.90194941458334,128.19842309166668,75.0,108.0
118,128.28656391458333,128.88271638958335,78.0,100.0
119,129.05579291458335,129.71284268541666,80.0,98.0
120,129.82502191458335,130.42117438958334,82.0,96.0
121,130.59425091458334,131.17918546666667,80.0,98.0
122,131.36347991458334,131.98367079583335,78.0,98.0
123,132.13270891458333,132.88270718958333,75.0,108.0
124,134.05578141458335,134.33783204791666,75.0,108.0
125,134.44039591458335,134.99808693958335,78.0,98.0
126,135.20962491458334,135.84263627916667,80.0,97.0
127,135.97885391458334,136.58942943333335,82.0,98.0
128,136.74808291458334,137.39872244375002,80.0,95.0
129,137.51731191458333,138.25769482708333,78.0,96.0
130,138.28654091458333,139.80256306875,75.0,105.0
131,140.20961341458334,140.49486916875,75.0,110.0
132,140.59422791458334,141.172752225,78.0,98.0
133,141.36345691458334,142.03492972916666,80.0,98.0
134,142.13268591458333,142.73364607083334,82.0,95.0
135,142.90191491458333,143.5285160375,80.0,99.0
136,143.67114391458333,144.36825769583334,78.0,101.0
137,144.82498741458335,145.41633220833333,85.0,101.0
138,145.40190916458334,145.65671627083333,83.0,96.0
139,145.97883091458334,146.63908580625,83.0,100.0
140,146.74805991458334,147.51728891458333,78.0,101.0
141,147.51728891458333,149.44036141458335,78.0,101.0
142,151.74804841458334,152.03330416875,78.0,97.0
143,152.13266291458334,152.44996987708333,78.0,96.0
144,152.51727741458333,152.90189191458333,78.0,98.0
145,152.90189191458333,153.10381452708333,77.0,93.0
146,153.28650641458333,153.57336472916668,78.0,98.0
147,153.67112091458333,154.32176044375,82.0,97.0
148,154.44034991458335,155.29451461666667,77.0,100.0
149,155.59419341458334,155.86983380625,70.0,103.0
150,155.97880791458334,156.16470492291668,80.0,94.0
151,156.36342241458334,156.6246397625,77.0,98.0
152,156.74803691458334,158.28649491458333,78.0,97.0
153,159.44033841458335,159.67911991666668,75.0,111.0
154,159.82495291458335,160.03328576875,78.0,100.0
155,160.20956741458335,160.32495176458335,81.0,103.0
156,160.40187466458335,160.49322060833333,80.0,98.0
157,160.59418191458334,161.13905245625,78.0,100.0
158,161.36341091458334,161.6150129,78.0,99.0
159,161.74802541458334,162.07014005833335,78.0,96.0
160,162.13263991458334,162.42430591041668,73.0,98.0
161,162.51725441458333,162.788087125,80.0,99.0
162,162.90186891458333,163.99641767916668,82.0,101.0
163,164.05571241458333,164.33936560833334,78.0,96.0
164,164.44032691458335,164.71596730625,78.0,96.0
165,164.82494141458335,165.13263301458335,78.0,100.0
166,165.20955591458335,165.48359374583333,77.0,100.0
167,165.59417041458335,165.85378520208334,78.0,96.0
168,165.97878491458334,166.64064236666667,82.0,100.0
169,166.74801391458334,167.2592306875,77.0,98.0
170,167.90185741458333,168.2303823,70.0,98.0
171,168.28647191458333,168.58935583333334,80.0,98.0
172,168.67108641458333,168.94672680625,77.0,96.0
173,169.05570091458333,170.59415891458335,78.0,98.0
174,171.74800241458334,172.10056570625,75.0,111.0
175,172.13261691458334,172.38742402083335,78.0,99.0
176,172.51723141458334,172.61659016041668,80.0,94.0
177,172.70953866458333,172.81851277291668,80.0,95.0
178,172.90184591458333,173.3746012375,78.0,103.0
179,173.67107491458333,173.87620264791667,78.0,99.0
180,174.05568941458333,174.30088115833334,78.0,95.0
181,174.44030391458332,174.7399827125,73.0,100.0
182,174.82491841458335,175.11498185,80.0,101.0
183,175.20953291458335,175.93068510208334,78.0,98.0
184,176.36337641458334,176.64863216875,78.0,97.0
185,176.74799091458334,177.06529787708334,78.0,96.0
186,177.13260541458334,177.51721991458334,78.0,98.0
187,177.51721991458334,177.71914252708333,77.0,93.0
188,177.90183441458333,178.18869272916666,78.0,98.0
189,178.28644891458333,178.93708844375,82.0,97.0
190,179.05567791458333,179.90984261666668,77.0,100.0
191,180.20952141458335,180.48516180625,70.0,103.0
192,180.59413591458335,180.78003292291666,80.0,94.0
193,180.97875041458335,181.23996776250002,77.0,98.0
194,181.36336491458334,182.90182291458333,78.0,97.0
195,184.05566641458333,184.29444791666668,75.0,111.0
196,184.44028091458333,184.64861376875,78.0,100.0
197,184.82489541458335,184.94027976458335,81.0,103.0
198,185.01720266458335,185.10854860833334,80.0,98.0
199,185.20950991458335,185.75438045625,78.0,100.0
200,185.97873891458335,186.23034090000002,78.0,99.0
201,186.36335341458334,186.68546805833333,78.0,96.0
202,186.74796791458334,187.03963391041668,73.0,98.0
203,187.13258241458334,187.403415125,80.0,99.0
204,187.51719691458334,188.61174567916666,82.0,101.0
205,188.67104041458333,188.95469360833334,78.0,96.0
206,189.05565491458333,189.33129530625,78.0,96.0
207,189.44026941458333,189.74796101458335,78.0,100.0
208,189.82488391458335,190.09892174583334,77.0,100.0
209,190.20949841458335,190.46911320208335,78.0,96.0
210,190.59411291458335,191.25597036666667,82.0,100.0
211,191.36334191458334,191.8745586875,77.0,98.0
212,192.51718541458334,192.8457103,70.0,98.0
213,192.90179991458334,193.20468383333335,80.0,98.0
214,193.28641441458333,193.56205480625002,77.0,96.0
215,193.67102891458333,195.20948691458335,78.0,98.0
216,196.36333041458334,197.04602115208334,78.0,99.0
217,196.94025216458334,198.02198044583335,85.0,100.0
218,198.28640291458333,199.05563191458333,83.0,95.0
219,199.05563191458333,201.74793341458334,78.0,98.0
220,213.28636841458334,213.57162416875002,78.0,97.0
221,213.67098291458333,213.98828987708333,78.0,96.0
222,214.05559741458333,214.44021191458333,78.0,98.0
223,214.44021191458333,214.64213452708333,77.0,93.0
224,214.82482641458333,215.11168472916668,78.0,98.0
225,215.20944091458335,215.86008044375,82.0,97.0
226,215.97866991458335,216.83283461666667,77.0,100.0
227,217.13251341458334,217.40815380625,70.0,103.0
228,217.51712791458334,217.70302492291668,80.0,94.0
229,217.90174241458334,218.1629597625,77.0,98.0
230,218.28635691458334,219.82481491458333,78.0,97.0
231,220.97865841458335,221.21743991666668,75.0,111.0
232,221.36327291458335,221.57160576875,78.0,100.0
233,221.74788741458335,221.86327176458335,81.0,103.0
234,221.94019466458334,222.03154060833333,80.0,98.0
235,222.13250191458334,222.67737245625,78.0,100.0
236,222.90173091458334,223.1533329,78.0,99.0
237,223.28634541458334,223.60846005833335,78.0,96.0
238,223.67095991458334,223.96262591041668,73.0,98.0
239,224.05557441458333,224.326407125,80.0,99.0
240,224.44018891458333,225.53473767916668,82.0,101.0
241,225.59403241458335,225.87768560833334,78.0,96.0
242,225.97864691458335,226.25428730625,78.0,96.0
243,226.36326141458335,226.67095301458335,78.0,100.0
244,226.74787591458335,227.02191374583333,77.0,100.0
245,227.13249041458334,227.39210520208334,78.0,96.0
246,227.51710491458334,228.17896236666667,82.0,100.0
247,228.28633391458334,228.7975506875,77.0,98.0
248,229.44017741458333,229.7687023,70.0,98.0
249,229.82479191458333,230.12767583333334,80.0,98.0
250,230.20940641458333,230.48504680625,77.0,96.0
251,230.59402091458335,232.13247891458334,78.0,98.0
252,233.28632241458334,233.63888570625,75.0,111.0
253,233.67093691458334,233.92574402083335,78.0,99.0
254,234.05555141458333,234.15491016041668,80.0,94.0
255,234.24785866458333,234.35683277291668,80.0,95.0
256,234.44016591458333,234.9129212375,78.0,103.0
257,235.20939491458333,235.41452264791667,78.0,99.0
258,235.59400941458335,235.83920115833334,78.0,95.0
259,235.97862391458335,236.2783027125,73.0,100.0
260,236.36323841458335,236.65330185000002,80.0,101.0
261,236.74785291458335,237.46900510208334,78.0,98.0
262,237.90169641458334,238.18695216875,78.0,97.0
263,238.28631091458334,238.60361787708334,78.0,96.0
264,238.67092541458334,239.05553991458333,78.0,98.0
265,239.05553991458333,239.25746252708333,77.0,93.0
266,239.44015441458333,239.7270127291667,78.0,98.0
267,239.82476891458333,240.47540844375,82.0,97.0
268,240.59399791458335,241.44816261666668,77.0,100.0
269,241.74784141458335,242.02348180625,70.0,103.0
270,242.13245591458335,242.3183529229167,80.0,94.0
271,242.51707041458334,242.7782877625,77.0,98.0
272,242.90168491458334,244.44014291458333,78.0,97.0
273,245.59398641458333,245.83276791666668,75.0,111.0
274,245.97860091458335,246.18693376875,78.0,100.0
275,246.36321541458335,246.47859976458335,81.0,103.0
276,246.55552266458335,246.64686860833334,80.0,98.0
277,246.74782991458335,247.29270045625,78.0,100.0
278,247.51705891458334,247.76866090000001,78.0,99.0
279,247.90167341458334,248.22378805833335,78.0,96.0
280,248.28628791458334,248.57795391041668,73.0,98.0
281,248.67090241458334,248.941735125,80.0,99.0
282,249.05551691458334,250.1500656791667,82.0,101.0
283,250.20936041458333,250.49301360833334,78.0,96.0
284,250.59397491458333,250.86961530625,78.0,96.0
285,250.97858941458335,251.28628101458335,78.0,100.0
286,251.36320391458335,251.63724174583334,77.0,100.0
287,251.74781841458335,252.00743320208335,78.0,96.0
288,252.13243291458335,252.79429036666667,82.0,100.0
289,252.90166191458334,253.4128786875,77.0,98.0
290,254.05550541458334,254.3840303,70.0,98.0
291,254.44011991458333,254.74300383333335,80.0,98.0
292,254.82473441458333,255.10037480625002,77.0,96.0
293,255.20934891458333,256.74780691458335,78.0,98.0
294,257.90165041458334,258.58434115208337,78.0,99.0
295,258.47857216458334,259.5603004458333,85.0,100.0
296,259.82472291458333,260.59395191458333,83.0,95.0
297,260.59395191458333,263.2862534145833,78.0,98.0
