,start,end,pitch,velocity
0,0.22275589791666667,3.0576852750000003,54.0,86.0
1,0.20993541458333334,3.096146725,42.0,85.0
2,3.3349282270833336,6.217934416666667,54.0,83.0
3,3.2868514145833334,6.2211395375,42.0,67.0
4,3.3541589520833335,6.51440809375,66.0,81.0
5,6.411844227083334,9.2211326375,54.0,78.0
6,6.363767414583333,9.257991527083334,42.0,82.0
7,6.431074952083334,9.429465491666667,63.0,77.0
8,9.488760227083334,12.269202550000001,54.0,81.0
9,9.440683414583333,12.304458879166667,42.0,84.0
10,9.507990952083334,12.33170240625,59.0,78.0
11,12.517599414583334,13.084905802083334,54.0,95.0
12,12.902213914583333,15.315669902083334,49.0,84.0
13,12.517599414583334,15.410220966666667,42.0,95.0
14,13.286828414583333,15.698681841666668,54.0,77.0
15,15.979129914583334,16.334898327083334,54.0,89.0
16,16.363744414583334,16.61053871875,58.0,82.0
17,15.594515414583334,18.491944647916668,42.0,94.0
18,16.748358914583335,18.97752045416667,58.0,84.0
19,19.056045914583333,19.70668544375,54.0,81.0
20,18.671431414583335,21.522386395833333,42.0,95.0
21,19.825274914583336,22.07206461875,58.0,83.0
22,22.132961914583333,22.705075983333334,54.0,67.0
23,21.748347414583336,24.09289330416667,42.0,93.0
24,22.902190914583333,24.267572389583336,58.0,83.0
25,24.825263414583333,25.38936468125,54.0,86.0
26,24.825263414583333,25.777184302083334,58.0,87.0
27,25.979106914583333,26.9710918125,54.0,86.0
28,25.209877914583334,26.983912295833335,49.0,69.0
29,24.825263414583333,26.988719977083335,42.0,95.0
30,25.979106914583333,26.999937900000003,61.0,87.0
31,28.671408414583333,28.902177114583335,58.0,77.0
32,29.056022914583334,30.031982208333336,58.0,81.0
33,28.286793914583335,30.152174239583335,53.0,81.0
34,27.902179414583333,30.197045931250003,46.0,94.0
35,30.979095414583334,31.538389000000002,58.0,80.0
36,30.979095414583334,31.88934973125,63.0,80.0
37,31.363709914583335,32.73229651041667,46.0,69.0
38,30.979095414583334,32.75793747708333,39.0,94.0
39,32.132938914583335,32.95024472708334,63.0,82.0
40,32.132938914583335,33.08165468125,58.0,80.0
41,34.05601141458333,34.27395963125,54.0,83.0
42,34.05601141458333,34.580048670833335,59.0,82.0
43,34.05601141458333,34.873317227083334,62.0,82.0
44,34.440625914583336,35.04158607083333,54.0,80.0
45,35.20985491458333,36.13132715416667,54.0,81.0
46,35.20985491458333,36.142545077083334,62.0,77.0
47,34.05601141458333,36.14575019791667,47.0,84.0
48,37.132927414583335,37.624913462500004,54.0,87.0
49,37.132927414583335,38.011130522916666,58.0,85.0
50,37.90215641458333,38.10407902708334,54.0,77.0
51,37.132927414583335,39.35407615208334,42.0,90.0
52,37.51754191458333,39.357281272916666,49.0,78.0
53,38.286770914583336,39.47587074375,58.0,88.0
54,38.286770914583336,39.491896347916665,54.0,85.0
55,40.20984341458333,40.6922141,58.0,83.0
56,40.59445791458334,42.4325947125,53.0,81.0
57,40.20984341458333,42.48708176666667,46.0,94.0
58,41.36368691458333,42.87009370625,58.0,90.0
59,43.28675941458334,43.82521971458333,58.0,82.0
60,43.28675941458334,44.043167931250004,63.0,82.0
61,43.671373914583334,45.29476761666667,46.0,72.0
62,44.44060291458334,45.336434187500004,58.0,85.0
63,43.28675941458334,45.350857231250004,39.0,95.0
64,44.44060291458334,45.3748956375,66.0,86.0
65,46.363675414583334,46.68899517916667,54.0,85.0
66,46.363675414583334,47.248288764583336,59.0,82.0
67,46.363675414583334,47.25149388541667,62.0,81.0
68,47.13290441458334,47.326814225,54.0,68.0
69,47.517518914583334,48.169761004166666,54.0,88.0
70,47.517518914583334,48.36367081458334,59.0,82.0
71,47.517518914583334,48.40854250625,62.0,84.0
72,48.671362414583335,48.854054302083334,54.0,88.0
73,49.05597691458333,49.40052740416667,54.0,81.0
74,48.671362414583335,49.43578373333334,59.0,85.0
75,46.363675414583334,49.453411897916666,47.0,87.0
76,49.44059141458334,49.82360335416667,59.0,78.0
77,49.825205914583336,50.22264089791667,51.0,37.0
78,50.209820414583334,50.60244771666667,56.0,92.0
79,50.59443491458333,51.011100622916665,51.0,67.0
80,50.979049414583336,51.55597116458333,59.0,84.0
81,51.363663914583334,51.81238083125,51.0,62.0
82,51.74827841458333,52.20020045208334,56.0,92.0
83,49.44059141458334,52.382892339583336,44.0,78.0
84,52.13289291458334,52.55436630416667,51.0,67.0
85,52.517507414583335,52.995070418750004,59.0,78.0
86,52.90212191458333,53.326800425,51.0,69.0
87,53.28673641458334,53.74186357291667,56.0,82.0
88,52.517507414583335,53.979042514583334,44.0,73.0
89,53.671350914583336,54.06077309583333,51.0,80.0
90,54.05596541458333,54.588015472916666,59.0,80.0
91,54.44057991458334,54.892501952083336,51.0,80.0
92,55.209808914583334,55.52711587708333,51.0,47.0
93,54.825194414583336,55.60083365625,56.0,89.0
94,55.59442341458333,56.025512166666665,59.0,84.0
95,55.97903791458334,56.421344589583335,54.0,45.0
96,56.74826691458333,57.265893929166666,54.0,46.0
97,56.363652414583335,57.536726639583335,59.0,80.0
98,57.13288141458334,57.69858524166667,63.0,78.0
99,57.517495914583336,57.975828193750004,54.0,71.0
100,57.90211041458333,58.31877612291667,59.0,89.0
101,55.59442341458333,58.42294255,47.0,78.0
102,58.28672491458334,58.77390328125,54.0,67.0
103,58.671339414583336,59.11685121041667,59.0,82.0
104,59.055953914583334,59.4902477875,54.0,51.0
105,59.44056841458333,59.900503254166665,59.0,69.0
106,59.82518291458334,60.24184862291667,54.0,58.0
107,60.209797414583335,60.92774448125,63.0,69.0
108,60.59441191458333,61.04312883125,54.0,71.0
109,60.97902641458334,61.397294683333335,59.0,82.0
110,58.671339414583336,61.47582014375,47.0,84.0
111,61.363640914583335,61.628063383333334,54.0,82.0
112,61.74825541458333,62.13126735416667,59.0,78.0
113,62.13286991458334,62.53030489791667,51.0,37.0
114,62.517484414583336,62.91011171666667,56.0,92.0
115,62.902098914583334,63.31876462291667,51.0,67.0
116,63.28671341458333,63.863635164583336,59.0,84.0
117,63.67132791458334,64.12004483125,51.0,62.0
118,64.05594241458334,64.50786445208334,56.0,92.0
119,61.74825541458333,64.69055633958334,44.0,78.0
120,64.44055691458334,64.86203030416667,51.0,67.0
121,64.82517141458334,65.30273441875,59.0,78.0
122,65.20978591458334,65.634464425,51.0,69.0
123,65.59440041458333,66.04952757291667,56.0,82.0
124,64.82517141458334,66.28670651458333,44.0,73.0
125,65.97901491458333,66.36843709583333,51.0,80.0
126,66.36362941458333,66.89567947291667,59.0,80.0
127,66.74824391458334,67.20016595208334,51.0,80.0
128,67.51747291458334,67.83477987708334,51.0,47.0
129,67.13285841458334,67.90849765625,56.0,89.0
130,67.90208741458333,68.33317616666668,59.0,84.0
131,68.28670191458333,68.72900858958333,54.0,45.0
132,69.05593091458334,69.57355792916667,54.0,46.0
133,68.67131641458333,69.84439063958334,59.0,80.0
134,69.44054541458334,70.00624924166667,62.0,78.0
135,69.82515991458334,70.28349219375,54.0,71.0
136,70.20977441458334,70.62644012291666,59.0,89.0
137,67.90208741458333,70.73060655,47.0,78.0
138,70.59438891458333,71.08156728125,54.0,67.0
139,70.97900341458333,71.42451521041667,59.0,82.0
140,71.36361791458333,71.7979117875,54.0,51.0
141,71.74823241458334,72.20816725416667,59.0,69.0
142,72.13284691458334,72.54951262291667,54.0,58.0
143,72.51746141458334,73.23540848125,62.0,69.0
144,72.90207591458334,73.35079283125,54.0,71.0
145,73.28669041458333,73.70495868333333,59.0,82.0
146,70.97900341458333,73.78348414375,47.0,84.0
147,73.67130491458333,73.93572738333333,54.0,82.0
148,74.05591941458333,74.46617488125,61.0,80.0
149,74.44053391458334,74.84437913958334,54.0,78.0
150,74.82514841458334,75.21136547500001,58.0,94.0
151,75.20976291458334,75.58155693125,54.0,94.0
152,75.59437741458333,76.04629945208333,61.0,87.0
153,74.05591941458333,76.18732476875,42.0,80.0
154,75.97899191458333,76.44052931458333,54.0,92.0
155,76.36360641458333,76.57674695,42.0,82.0
156,76.36360641458333,76.74341323333334,58.0,73.0
157,76.74822091458334,76.84757966041667,54.0,94.0
158,77.13283541458334,77.53347551875001,62.0,52.0
159,77.51744991458334,78.00462828125,58.0,66.0
160,77.90206441458334,78.326742925,62.0,99.0
161,78.28667891458333,78.7209727875,58.0,82.0
162,78.67129341458333,79.09917704583333,62.0,72.0
163,78.67129341458333,79.09917704583333,65.0,99.0
164,79.05590791458333,79.46295826041667,58.0,66.0
165,79.44052241458334,79.83314971666667,62.0,87.0
166,79.44052241458334,79.85879068333334,65.0,99.0
167,77.13283541458334,80.12962339375001,46.0,53.0
168,79.82513691458334,80.17449508541667,58.0,92.0
169,80.20975141458334,80.55910958541666,63.0,84.0
170,80.59436591458334,81.02705722708333,58.0,89.0
171,80.97898041458333,81.4132742875,63.0,87.0
172,81.36359491458333,81.81070927083334,58.0,92.0
173,81.74820941458334,82.27545179166667,66.0,100.0
174,82.13282391458334,82.57513058958334,58.0,100.0
175,80.20975141458334,82.68730981875001,51.0,92.0
176,82.51743841458334,82.85237354166667,63.0,94.0
177,82.90205291458334,83.01583470416666,58.0,97.0
178,83.28666741458333,83.69051263958333,59.0,89.0
179,83.67128191458333,84.11358858958333,54.0,45.0
180,84.05589641458333,84.47736980416667,59.0,89.0
181,84.44051091458334,84.87159966666667,54.0,55.0
182,84.82512541458334,85.24980392500001,59.0,92.0
183,84.82512541458334,85.24980392500001,62.0,93.0
184,85.20973991458334,85.45172653750001,54.0,80.0
185,85.59435441458334,85.76422581875,54.0,82.0
186,85.59435441458334,86.00460988125,59.0,87.0
187,83.28666741458333,86.0767251,47.0,84.0
188,85.97896891458333,86.20653249375,54.0,97.0
189,86.36358341458333,86.77383888125,61.0,80.0
190,86.74819791458333,87.15204313958334,54.0,78.0
191,87.13281241458334,87.519029475,58.0,94.0
192,87.51742691458334,87.88922093125001,54.0,94.0
193,87.90204141458334,88.35396345208333,61.0,87.0
194,86.36358341458333,88.49498876875,42.0,80.0
195,88.28665591458333,88.74819331458333,54.0,92.0
196,88.67127041458333,88.88441095,42.0,82.0
197,88.67127041458333,89.05107723333333,58.0,73.0
198,89.05588491458333,89.15524366041667,54.0,94.0
199,89.44049941458334,89.84113951875,62.0,52.0
200,89.82511391458334,90.31229228125001,58.0,66.0
201,90.20972841458334,90.63440692500001,62.0,99.0
202,90.59434291458334,91.0286367875,58.0,82.0
203,90.97895741458333,91.40684104583333,62.0,72.0
204,90.97895741458333,91.40684104583333,65.0,99.0
205,91.36357191458333,91.77062226041667,58.0,66.0
206,91.74818641458333,92.14081371666667,62.0,87.0
207,91.74818641458333,92.16645468333334,65.0,99.0
208,89.44049941458334,92.43728739375,46.0,53.0
209,92.13280091458334,92.48215908541667,58.0,92.0
210,92.51741541458334,92.86677358541667,63.0,84.0
211,92.90202991458334,93.33472122708334,58.0,89.0
212,93.28664441458334,93.7209382875,63.0,87.0
213,93.67125891458333,94.11837327083333,58.0,92.0
214,94.05587341458333,94.58311579166667,66.0,100.0
215,94.44048791458334,94.88279458958334,58.0,100.0
216,92.51741541458334,94.99497381875,51.0,92.0
217,94.82510241458334,95.16003754166667,63.0,94.0
218,95.20971691458334,95.32349870416667,58.0,97.0
219,95.59433141458334,95.99817663958333,59.0,89.0
220,95.97894591458333,96.42125258958333,54.0,45.0
221,96.36356041458333,96.78503380416667,59.0,89.0
222,96.74817491458333,97.17926366666667,54.0,55.0
223,97.13278941458334,97.557467925,59.0,92.0
224,97.13278941458334,97.557467925,62.0,93.0
225,97.51740391458334,97.7593905375,54.0,80.0
226,97.90201841458334,98.07188981875001,54.0,82.0
227,97.90201841458334,98.31227388125001,59.0,87.0
228,95.59433141458334,98.3843891,47.0,84.0
229,98.28663291458334,98.51419649375,54.0,97.0
230,98.74176007291668,101.0286137875,62.0,74.0
231,98.56868354791666,101.03502402916666,54.0,55.0
232,98.65201668958333,101.03983171041666,59.0,76.0
233,98.45650431875,101.04944707291666,47.0,66.0
234,101.74816341458333,102.03502172916667,61.0,88.0
235,101.74816341458333,102.18726496875,70.0,92.0
236,101.74816341458333,102.19047008958334,66.0,85.0
237,102.51739241458334,102.5863025125,61.0,80.0
238,102.51739241458334,102.97251957291667,66.0,92.0
239,102.51739241458334,103.00136566041667,70.0,91.0
240,102.90200691458334,103.06386551666667,61.0,76.0
241,103.28662141458334,103.49174914791666,61.0,89.0
242,103.28662141458334,103.76418441875,66.0,89.0
243,103.67123591458333,103.77059466041668,61.0,77.0
244,103.28662141458334,103.79303050625,70.0,89.0
245,102.13277791458334,104.16963220416667,49.0,83.0
246,104.05585041458333,104.22251669791667,61.0,88.0
247,101.74816341458333,104.23373462083333,42.0,94.0
248,104.05585041458333,104.25296534583333,66.0,90.0
249,104.05585041458333,104.29302935625,70.0,90.0
250,104.82507941458334,105.30584753958334,58.0,85.0
251,104.82507941458334,105.33789874791667,65.0,95.0
252,105.59430841458334,105.80905151041667,58.0,91.0
253,105.97892291458334,106.08308934166666,58.0,67.0
254,105.59430841458334,106.11514055,70.0,91.0
255,106.36353741458333,106.6151394,58.0,82.0
256,106.36353741458333,106.67603669583333,70.0,90.0
257,106.36353741458333,106.87635674791667,65.0,89.0
258,106.74815191458333,106.94686940625,58.0,77.0
259,107.13276641458333,107.39238120208334,58.0,92.0
260,107.13276641458333,107.4516759375,65.0,95.0
261,107.13276641458333,107.49173994791667,70.0,94.0
262,105.20969391458334,107.51577835416667,53.0,82.0
263,104.82507941458334,107.70808560416667,46.0,95.0
264,107.90199541458334,108.32026368333334,66.0,90.0
265,107.90199541458334,108.32346880416667,63.0,89.0
266,108.67122441458334,109.03981331041668,66.0,90.0
267,108.67122441458334,109.04301843125,63.0,89.0
268,109.44045341458333,109.57827361041667,58.0,81.0
269,109.44045341458333,109.634363225,63.0,86.0
270,109.44045341458333,109.73852965208334,66.0,89.0
271,109.82506791458334,109.95647786875,58.0,71.0
272,110.20968241458334,110.36352821458334,58.0,87.0
273,110.20968241458334,110.41961782916667,63.0,90.0
274,110.20968241458334,110.45327159791667,66.0,93.0
275,107.90199541458334,110.45647671875,51.0,92.0
276,110.97891141458334,111.38916688125,62.0,93.0
277,110.97891141458334,111.41480784791668,59.0,83.0
278,111.74814041458333,112.15038307916667,62.0,91.0
279,111.74814041458333,112.19845989166667,59.0,85.0
280,112.51736941458334,112.69685618125,59.0,84.0
281,112.51736941458334,112.77057396041667,62.0,83.0
282,112.51736941458334,112.83948405833334,66.0,94.0
283,112.90198391458334,113.12473981250001,59.0,73.0
284,113.28659841458334,113.44044421458334,59.0,91.0
285,110.97891141458334,114.05582741458333,47.0,94.0
286,113.28659841458334,114.06223765625,62.0,95.0
287,113.67121291458334,114.10230166666668,59.0,87.0
288,113.28659841458334,114.11992983125,66.0,94.0
289,114.05582741458333,114.11992983125,66.0,85.0
290,114.05582741458333,114.34268572916667,61.0,88.0
291,114.05582741458333,114.49492896875,70.0,92.0
292,114.82505641458334,114.8939665125,61.0,80.0
293,114.82505641458334,115.28018357291667,66.0,92.0
294,114.82505641458334,115.30902966041667,70.0,91.0
295,115.20967091458334,115.37152951666667,61.0,76.0
296,115.59428541458334,115.79941314791667,61.0,89.0
297,115.59428541458334,116.07184841875001,66.0,89.0
298,115.97889991458334,116.07825866041667,61.0,77.0
299,115.59428541458334,116.10069450625001,70.0,89.0
300,114.44044191458333,116.47729620416668,49.0,83.0
301,116.36351441458334,116.53018069791668,61.0,88.0
302,114.05582741458333,116.54139862083333,42.0,94.0
303,116.36351441458334,116.56062934583333,66.0,90.0
304,116.36351441458334,116.60069335625,70.0,90.0
305,117.13274341458333,117.61351153958334,58.0,85.0
306,117.13274341458333,117.64556274791667,65.0,95.0
307,117.90197241458334,118.11671551041667,58.0,91.0
308,118.28658691458334,118.39075334166667,58.0,67.0
309,117.90197241458334,118.42280455000001,70.0,91.0
310,118.67120141458334,118.9228034,58.0,82.0
311,118.67120141458334,118.98370069583333,70.0,90.0
312,118.67120141458334,119.18402074791668,65.0,89.0
313,119.05581591458333,119.25453340625,58.0,77.0
314,119.44043041458333,119.70004520208333,58.0,92.0
315,119.44043041458333,119.7593399375,65.0,95.0
316,119.44043041458333,119.79940394791667,70.0,94.0
317,117.51735791458334,119.82344235416667,53.0,82.0
318,117.13274341458333,120.01574960416667,46.0,95.0
319,120.20965941458334,120.62792768333334,66.0,90.0
320,120.20965941458334,120.63113280416667,63.0,89.0
321,120.97888841458334,121.34747731041666,66.0,90.0
322,120.97888841458334,121.35068243125001,63.0,89.0
323,121.74811741458333,121.88593761041668,58.0,81.0
324,121.74811741458333,121.942027225,63.0,86.0
325,121.74811741458333,122.04619365208333,66.0,89.0
326,122.13273191458333,122.26414186875,58.0,71.0
327,122.51734641458334,122.67119221458334,58.0,87.0
328,122.51734641458334,122.72728182916667,63.0,90.0
329,122.51734641458334,122.76093559791667,66.0,93.0
330,120.20965941458334,122.76414071875,51.0,92.0
331,123.28657541458334,123.69683088125001,62.0,93.0
332,123.28657541458334,123.72247184791667,59.0,83.0
333,124.05580441458333,124.45804707916668,62.0,91.0
334,124.05580441458333,124.50612389166668,59.0,85.0
335,124.82503341458333,125.00452018125,59.0,84.0
336,124.82503341458333,125.07823796041667,62.0,83.0
337,124.82503341458333,125.14714805833334,66.0,94.0
338,125.20964791458334,125.4324038125,59.0,73.0
339,125.59426241458334,125.74810821458334,59.0,91.0
340,123.28657541458334,126.36349141458334,47.0,94.0
341,125.59426241458334,126.36990165625001,62.0,95.0
342,125.97887691458334,126.40996566666666,59.0,87.0
343,126.36349141458334,126.40996566666666,59.0,78.0
344,125.59426241458334,126.42759383125001,66.0,94.0
345,126.74810591458333,127.14554089791667,51.0,37.0
346,127.13272041458333,127.52534771666667,56.0,92.0
347,127.51733491458334,127.93400062291667,51.0,67.0
348,127.90194941458334,128.47887116458332,59.0,84.0
349,128.28656391458333,128.73528083125,51.0,62.0
350,128.67117841458332,129.12310045208335,56.0,92.0
351,126.36349141458334,129.30579233958335,44.0,78.0
352,129.05579291458335,129.47726630416668,51.0,67.0
353,129.44040741458335,129.91797041875,59.0,78.0
354,129.82502191458335,130.24970042500001,51.0,69.0
355,130.20963641458334,130.66476357291668,56.0,82.0
356,129.44040741458335,130.90194251458334,44.0,73.0
357,130.59425091458334,130.98367309583332,51.0,80.0
358,130.97886541458334,131.51091547291668,59.0,80.0
359,131.36347991458334,131.81540195208333,51.0,80.0
360,132.13270891458333,132.45001587708333,51.0,47.0
361,131.74809441458333,132.52373365625002,56.0,89.0
362,132.51732341458333,132.94841216666666,59.0,84.0
363,132.90193791458333,133.34424458958333,54.0,45.0
364,133.67116691458332,134.18879392916668,54.0,46.0
365,133.28655241458333,134.45962663958335,59.0,80.0
366,134.05578141458335,134.62148524166668,63.0,78.0
367,134.44039591458335,134.89872819375,54.0,71.0
368,134.82501041458335,135.24167612291666,59.0,89.0
369,132.51732341458333,135.34584255000001,47.0,78.0
370,135.20962491458334,135.69680328125,54.0,67.0
371,135.59423941458334,136.03975121041668,59.0,82.0
372,135.97885391458334,136.4131477875,54.0,51.0
373,136.36346841458334,136.82340325416666,59.0,69.0
374,136.74808291458334,137.16474862291668,54.0,58.0
375,137.13269741458333,137.85064448125001,63.0,69.0
376,137.51731191458333,137.96602883125001,54.0,71.0
377,137.90192641458333,138.32019468333334,59.0,82.0
378,135.59423941458334,138.39872014375,47.0,84.0
379,138.28654091458333,138.55096338333334,54.0,82.0
380,138.67115541458332,139.05416735416668,59.0,78.0
381,139.05576991458335,139.45320489791666,51.0,37.0
382,139.44038441458335,139.83301171666668,56.0,92.0
383,139.82499891458335,140.24166462291666,51.0,67.0
384,140.20961341458334,140.78653516458334,59.0,84.0
385,140.59422791458334,141.04294483125,51.0,62.0
386,140.97884241458334,141.43076445208334,56.0,92.0
387,138.67115541458332,141.61345633958334,44.0,78.0
388,141.36345691458334,141.78493030416666,51.0,67.0
389,141.74807141458334,142.22563441875,59.0,78.0
390,142.13268591458333,142.557364425,51.0,69.0
391,142.51730041458333,142.97242757291667,56.0,82.0
392,141.74807141458334,143.20960651458333,44.0,73.0
393,142.90191491458333,143.29133709583334,51.0,80.0
394,143.28652941458333,143.81857947291667,59.0,80.0
395,143.67114391458333,144.12306595208335,51.0,80.0
396,144.44037291458335,144.75767987708335,51.0,47.0
397,144.05575841458335,144.83139765625,56.0,89.0
398,144.82498741458335,145.25607616666667,59.0,84.0
399,145.20960191458335,145.65190858958334,54.0,45.0
400,145.97883091458334,146.49645792916667,54.0,46.0
401,145.59421641458334,146.76729063958334,59.0,80.0
402,146.36344541458334,146.92914924166666,62.0,78.0
403,146.74805991458334,147.20639219375,54.0,71.0
404,147.13267441458333,147.54934012291667,59.0,89.0
405,144.82498741458335,147.65350655,47.0,78.0
406,147.51728891458333,148.00446728125002,54.0,67.0
407,147.90190341458333,148.34741521041667,59.0,82.0
408,148.28651791458333,148.7208117875,54.0,51.0
409,148.67113241458333,149.13106725416668,59.0,69.0
410,149.05574691458332,149.47241262291666,54.0,58.0
411,149.44036141458335,150.15830848125,62.0,69.0
412,149.82497591458335,150.27369283125,54.0,71.0
413,150.20959041458335,150.62785868333333,59.0,82.0
414,147.90190341458333,150.70638414375,47.0,84.0
415,150.59420491458334,150.85862738333333,54.0,82.0
416,150.97881941458334,151.38907488125,61.0,80.0
417,151.36343391458334,151.76727913958334,54.0,78.0
418,151.74804841458334,152.134265475,58.0,94.0
419,152.13266291458334,152.50445693125002,54.0,94.0
420,152.51727741458333,152.96919945208333,61.0,87.0
421,150.97881941458334,153.11022476875002,42.0,80.0
422,152.90189191458333,153.36342931458333,54.0,92.0
423,153.28650641458333,153.49964695,42.0,82.0
424,153.28650641458333,153.66631323333334,58.0,73.0
425,153.67112091458333,153.77047966041667,54.0,94.0
426,154.05573541458332,154.45637551875,62.0,52.0
427,154.44034991458335,154.92752828125,58.0,66.0
428,154.82496441458335,155.24964292500002,62.0,99.0
429,155.20957891458335,155.64387278750002,58.0,82.0
430,155.59419341458334,156.02207704583333,62.0,72.0
431,155.59419341458334,156.02207704583333,65.0,99.0
432,155.97880791458334,156.38585826041668,58.0,66.0
433,156.36342241458334,156.75604971666667,62.0,87.0
434,156.36342241458334,156.78169068333335,65.0,99.0
435,154.05573541458332,157.05252339375,46.0,53.0
436,156.74803691458334,157.09739508541668,58.0,92.0
437,157.13265141458334,157.48200958541668,63.0,84.0
438,157.51726591458333,157.94995722708333,58.0,89.0
439,157.90188041458333,158.3361742875,63.0,87.0
440,158.28649491458333,158.73360927083334,58.0,92.0
441,158.67110941458333,159.19835179166668,66.0,100.0
442,159.05572391458333,159.49803058958335,58.0,100.0
443,157.13265141458334,159.61020981875,51.0,92.0
444,159.44033841458335,159.77527354166668,63.0,94.0
445,159.82495291458335,159.93873470416668,58.0,97.0
446,160.20956741458335,160.61341263958334,59.0,89.0
447,160.59418191458334,161.03648858958334,54.0,45.0
448,160.97879641458334,161.40026980416667,59.0,89.0
449,161.36341091458334,161.79449966666667,54.0,55.0
450,161.74802541458334,162.172703925,59.0,92.0
451,161.74802541458334,162.172703925,62.0,93.0
452,162.13263991458334,162.3746265375,54.0,80.0
453,162.51725441458333,162.68712581875002,54.0,82.0
454,162.51725441458333,162.92750988125002,59.0,87.0
455,160.20956741458335,162.9996251,47.0,84.0
456,162.90186891458333,163.12943249375002,54.0,97.0
457,163.28648341458333,163.69673888125,61.0,80.0
458,163.67109791458333,164.07494313958333,54.0,78.0
459,164.05571241458333,164.441929475,58.0,94.0
460,164.44032691458335,164.81212093125,54.0,94.0
461,164.82494141458335,165.27686345208335,61.0,87.0
462,163.28648341458333,165.41788876875,42.0,80.0
463,165.20955591458335,165.67109331458335,54.0,92.0
464,165.59417041458335,165.80731095000002,42.0,82.0
465,165.59417041458335,165.97397723333333,58.0,73.0
466,165.97878491458334,166.07814366041669,54.0,94.0
467,166.36339941458334,166.76403951875,62.0,52.0
468,166.74801391458334,167.23519228125,58.0,66.0
469,167.13262841458334,167.557306925,62.0,99.0
470,167.51724291458333,167.9515367875,58.0,82.0
471,167.90185741458333,168.32974104583334,62.0,72.0
472,167.90185741458333,168.32974104583334,65.0,99.0
473,168.28647191458333,168.69352226041667,58.0,66.0
474,168.67108641458333,169.06371371666668,62.0,87.0
475,168.67108641458333,169.08935468333334,65.0,99.0
476,166.36339941458334,169.36018739375,46.0,53.0
477,169.05570091458333,169.40505908541667,58.0,92.0
478,169.44031541458335,169.78967358541666,63.0,84.0
479,169.82492991458335,170.25762122708335,58.0,89.0
480,170.20954441458335,170.64383828750002,63.0,87.0
481,170.59415891458335,171.04127327083333,58.0,92.0
482,170.97877341458334,171.50601579166667,66.0,100.0
483,171.36338791458334,171.80569458958334,58.0,100.0
484,169.44031541458335,171.91787381875,51.0,92.0
485,171.74800241458334,172.08293754166667,63.0,94.0
486,172.13261691458334,172.24639870416667,58.0,97.0
487,172.51723141458334,172.92107663958333,59.0,89.0
488,172.90184591458333,173.34415258958333,54.0,45.0
489,173.28646041458333,173.7079338041667,59.0,89.0
490,173.67107491458333,174.10216366666668,54.0,55.0
491,174.05568941458333,174.480367925,59.0,92.0
492,174.05568941458333,174.480367925,62.0,93.0
493,174.44030391458332,174.6822905375,54.0,80.0
494,174.82491841458335,174.99478981875,54.0,82.0
495,174.82491841458335,175.23517388125,59.0,87.0
496,172.51723141458334,175.3072891,47.0,84.0
497,175.20953291458335,175.43709649375,54.0,97.0
498,175.59414741458335,176.00440288125,61.0,80.0
499,175.97876191458334,176.38260713958334,54.0,78.0
500,176.36337641458334,176.749593475,58.0,94.0
501,176.74799091458334,177.11978493125,54.0,94.0
502,177.13260541458334,177.58452745208334,61.0,87.0
503,175.59414741458335,177.72555276875,42.0,80.0
504,177.51721991458334,177.97875731458333,54.0,92.0
505,177.90183441458333,178.11497495,42.0,82.0
506,177.90183441458333,178.28164123333335,58.0,73.0
507,178.28644891458333,178.38580766041667,54.0,94.0
508,178.67106341458333,179.07170351875,62.0,52.0
509,179.05567791458333,179.54285628125,58.0,66.0
510,179.44029241458333,179.864970925,62.0,99.0
511,179.82490691458335,180.2592007875,58.0,82.0
512,180.20952141458335,180.63740504583333,62.0,72.0
513,180.20952141458335,180.63740504583333,65.0,99.0
514,180.59413591458335,181.00118626041666,58.0,66.0
515,180.97875041458335,181.37137771666667,62.0,87.0
516,180.97875041458335,181.39701868333333,65.0,99.0
517,178.67106341458333,181.66785139375,46.0,53.0
518,181.36336491458334,181.71272308541668,58.0,92.0
519,181.74797941458334,182.09733758541668,63.0,84.0
520,182.13259391458334,182.56528522708334,58.0,89.0
521,182.51720841458334,182.9515022875,63.0,87.0
522,182.90182291458333,183.34893727083335,58.0,92.0
523,183.28643741458333,183.8136797916667,66.0,100.0
524,183.67105191458333,184.11335858958333,58.0,100.0
525,181.74797941458334,184.22553781875,51.0,92.0
526,184.05566641458333,184.39060154166668,63.0,94.0
527,184.44028091458333,184.55406270416668,58.0,97.0
528,184.82489541458335,185.22874063958335,59.0,89.0
529,185.20950991458335,185.65181658958335,54.0,45.0
530,185.59412441458335,186.01559780416667,59.0,89.0
531,185.97873891458335,186.40982766666667,54.0,55.0
532,186.36335341458334,186.788031925,59.0,92.0
533,186.36335341458334,186.788031925,62.0,93.0
534,186.74796791458334,186.9899545375,54.0,80.0
535,187.13258241458334,187.30245381875,54.0,82.0
536,187.13258241458334,187.54283788125,59.0,87.0
537,184.82489541458335,187.6149531,47.0,84.0
538,187.51719691458334,187.74476049375,54.0,97.0
539,187.90181141458334,188.31206688125002,61.0,80.0
540,188.28642591458333,188.69027113958333,54.0,78.0
541,188.67104041458333,189.057257475,58.0,94.0
542,189.05565491458333,189.42744893125,54.0,94.0
543,189.44026941458333,189.89219145208335,61.0,87.0
544,187.90181141458334,190.03321676875,42.0,80.0
545,189.82488391458335,190.28642131458335,54.0,92.0
546,190.20949841458335,190.42263895,42.0,82.0
547,190.20949841458335,190.58930523333333,58.0,73.0
548,190.59411291458335,190.69347166041666,54.0,94.0
549,190.97872741458335,191.37936751875,62.0,52.0
550,191.36334191458334,191.85052028125,58.0,66.0
551,191.74795641458334,192.172634925,62.0,99.0
552,192.13257091458334,192.5668647875,58.0,82.0
553,192.51718541458334,192.94506904583335,62.0,72.0
554,192.51718541458334,192.94506904583335,65.0,99.0
555,192.90179991458334,193.30885026041668,58.0,66.0
556,193.28641441458333,193.67904171666666,62.0,87.0
557,193.28641441458333,193.70468268333335,65.0,99.0
558,190.97872741458335,193.97551539375002,46.0,53.0
559,193.67102891458333,194.02038708541667,58.0,92.0
560,194.05564341458333,194.40500158541667,63.0,84.0
561,194.44025791458333,194.87294922708335,58.0,89.0
562,194.82487241458335,195.2591662875,63.0,87.0
563,195.20948691458335,195.65660127083333,58.0,92.0
564,195.59410141458335,196.12134379166667,66.0,100.0
565,195.97871591458335,196.42102258958334,58.0,100.0
566,194.05564341458333,196.53320181875,51.0,92.0
567,196.36333041458334,196.69826554166667,63.0,94.0
568,196.74794491458334,196.86172670416667,58.0,97.0
569,197.13255941458334,197.53640463958334,59.0,89.0
570,197.51717391458334,197.95948058958334,54.0,45.0
571,197.90178841458334,198.32326180416666,59.0,89.0
572,198.28640291458333,198.71749166666666,54.0,55.0
573,198.67101741458333,199.095695925,59.0,92.0
574,198.67101741458333,199.095695925,62.0,93.0
575,199.05563191458333,199.2976185375,54.0,80.0
576,199.44024641458333,199.61011781875,54.0,82.0
577,199.44024641458333,199.85050188125,59.0,87.0
578,197.13255941458334,199.9226171,47.0,84.0
579,199.82486091458333,200.05242449375,54.0,97.0
580,200.20947541458335,200.57806431041666,66.0,93.0
581,200.20947541458335,200.63575648541666,63.0,93.0
582,200.20947541458335,200.68062817708335,58.0,89.0
583,200.20947541458335,200.91940967916668,51.0,101.0
584,200.97870441458335,201.12774253333333,58.0,95.0
585,200.97870441458335,201.15658862083333,63.0,97.0
586,200.97870441458335,201.21428079583333,66.0,97.0
587,201.36331891458335,201.45786997916667,58.0,61.0
588,201.74793341458334,201.96267651041669,58.0,94.0
589,201.74793341458334,202.25113738541668,63.0,95.0
590,201.74793341458334,202.25594506666667,66.0,95.0
591,202.13254791458334,202.30562443958334,58.0,83.0
592,201.74793341458334,202.65498261041668,39.0,96.0
593,202.51716241458334,202.67902101666667,58.0,99.0
594,202.51716241458334,202.92741788125,63.0,100.0
595,202.51716241458334,203.15177633958334,66.0,96.0
596,202.90177691458334,203.2014557125,58.0,90.0
597,203.28639141458333,203.51235243333335,58.0,94.0
598,203.28639141458333,203.68062127708333,62.0,96.0
599,203.28639141458333,203.69985200208333,66.0,94.0
600,204.05562041458333,204.1886329291667,58.0,95.0
601,204.05562041458333,204.26235070833334,62.0,100.0
602,204.05562041458333,204.30081215833334,66.0,95.0
603,203.28639141458333,204.67901641666668,50.0,98.0
604,204.82484941458333,204.9899131375,58.0,90.0
605,204.82484941458333,205.1052974875,62.0,96.0
606,204.82484941458333,205.26074584791667,66.0,93.0
607,205.20946391458335,205.30882266041667,58.0,69.0
608,205.59407841458335,205.7014499625,58.0,95.0
609,205.59407841458335,205.72548836875,62.0,108.0
610,205.59407841458335,205.76715493958335,66.0,97.0
611,204.82484941458333,205.79279590625,50.0,96.0
612,205.97869291458335,206.06202605625,66.0,85.0
613,205.97869291458335,206.07003885833333,58.0,85.0
614,206.36330741458335,206.55721722500002,58.0,88.0
615,206.36330741458335,206.74631935416667,66.0,93.0
616,206.36330741458335,206.80561408958334,61.0,94.0
617,206.74792191458334,206.88734467083333,58.0,79.0
618,207.13253641458334,207.28317709375,58.0,94.0
619,207.13253641458334,207.29279245625,61.0,98.0
620,207.13253641458334,207.32324110416667,66.0,95.0
621,207.51715091458334,207.65336855,58.0,67.0
622,207.90176541458334,208.08125218125,58.0,94.0
623,207.90176541458334,208.11330338958334,61.0,100.0
624,207.90176541458334,208.14214947708334,66.0,94.0
625,208.28637991458334,208.39695658333335,58.0,78.0
626,208.67099441458333,208.81201973125002,61.0,95.0
627,208.67099441458333,208.84887862083335,58.0,94.0
628,206.36330741458335,208.91618615833335,49.0,95.0
629,208.67099441458333,209.14535229791667,66.0,89.0
630,209.05560891458333,209.15977534166666,58.0,72.0
631,209.44022341458333,209.89695313333334,54.0,94.0
632,209.44022341458333,209.93701714375,63.0,94.0
633,209.44022341458333,209.94663250625,60.0,95.0
634,210.20945241458335,210.35368285208335,54.0,92.0
635,210.20945241458335,210.441823675,60.0,96.0
636,209.44022341458333,210.5091312125,48.0,101.0
637,210.20945241458335,210.65175908958335,63.0,95.0
638,210.97868141458335,212.30079375833333,54.0,89.0
639,210.97868141458335,212.32322960416667,59.0,86.0
640,210.97868141458335,212.32322960416667,62.0,95.0
641,210.97868141458335,212.36008849375,47.0,96.0
642,212.51713941458334,212.78476700416667,58.0,80.0
643,212.51713941458334,212.89213855208334,61.0,84.0
644,212.51713941458334,212.96425377083335,66.0,85.0
645,213.28636841458334,213.43380397291668,61.0,55.0
646,213.28636841458334,213.45623981875002,66.0,54.0
647,214.05559741458333,214.287968675,66.0,81.0
648,214.05559741458333,214.32162244375002,61.0,80.0
649,214.82482641458333,215.00751830208333,58.0,85.0
650,212.51713941458334,215.01553110416668,42.0,92.0
651,214.82482641458333,215.02995414791667,61.0,88.0
652,214.82482641458333,215.22706907916668,66.0,88.0
653,215.59405541458335,215.9706571125,58.0,80.0
654,215.59405541458335,215.98668271666668,65.0,94.0
655,216.36328441458335,216.61328383958335,58.0,64.0
656,216.36328441458335,216.66937345416667,65.0,65.0
657,217.51712791458334,217.99629347916667,53.0,72.0
658,215.59405541458335,218.05879333541668,46.0,88.0
659,217.90174241458334,218.10847270833335,58.0,90.0
660,217.90174241458334,218.11648551041668,65.0,95.0
661,218.28635691458334,218.65174068958333,46.0,92.0
662,218.67097141458333,219.07321407916666,58.0,80.0
663,218.67097141458333,219.08282944166666,63.0,85.0
664,218.67097141458333,219.0860345625,66.0,86.0
665,219.44020041458333,219.6501358291667,63.0,82.0
666,219.44020041458333,219.66135375208333,66.0,85.0
667,219.44020041458333,219.672571675,58.0,80.0
668,220.20942941458333,220.67897961666668,66.0,80.0
669,220.20942941458333,220.68378729791667,58.0,70.0
670,220.20942941458333,220.70301802291667,63.0,80.0
671,220.97865841458335,221.21263223541666,58.0,90.0
672,220.97865841458335,221.27993977291666,63.0,95.0
673,218.67097141458333,221.44179837500002,51.0,94.0
674,220.97865841458335,221.52993919791666,66.0,92.0
675,221.74788741458335,221.93698954375,59.0,78.0
676,221.74788741458335,222.20621969375,63.0,88.0
677,222.13250191458334,222.326411725,59.0,95.0
678,222.51711641458334,222.71903902708334,59.0,98.0
679,222.51711641458334,222.80557728958334,62.0,101.0
680,221.74788741458335,223.15814058125,47.0,105.0
681,222.90173091458334,223.16935850416667,54.0,95.0
682,223.28634541458334,223.72544696875002,59.0,101.0
683,223.28634541458334,223.72704952916666,62.0,100.0
684,223.67095991458334,223.94019006458333,54.0,95.0
685,223.28634541458334,224.2206381375,47.0,108.0
686,224.05557441458333,224.4321761125,59.0,100.0
687,224.05557441458333,224.49147084791667,62.0,100.0
688,224.44018891458333,224.60685519791667,47.0,111.0
689,224.82480341458333,225.23505888125,61.0,80.0
690,225.20941791458333,225.61326313958335,54.0,78.0
691,225.59403241458335,225.980249475,58.0,94.0
692,225.97864691458335,226.35044093125,54.0,94.0
693,226.36326141458335,226.81518345208335,61.0,87.0
694,224.82480341458333,226.95620876875,42.0,80.0
695,226.74787591458335,227.20941331458334,54.0,92.0
696,227.13249041458334,227.34563095000001,42.0,82.0
697,227.13249041458334,227.51229723333333,58.0,73.0
698,227.51710491458334,227.61646366041668,54.0,94.0
699,227.90171941458334,228.30235951875,62.0,52.0
700,228.28633391458334,228.77351228125002,58.0,66.0
701,228.67094841458334,229.095626925,62.0,99.0
702,229.05556291458333,229.4898567875,58.0,82.0
703,229.44017741458333,229.86806104583334,62.0,72.0
704,229.44017741458333,229.86806104583334,65.0,99.0
705,229.82479191458333,230.23184226041667,58.0,66.0
706,230.20940641458333,230.60203371666668,62.0,87.0
707,230.20940641458333,230.62767468333334,65.0,99.0
708,227.90171941458334,230.89850739375,46.0,53.0
709,230.59402091458335,230.94337908541667,58.0,92.0
710,230.97863541458335,231.32799358541666,63.0,84.0
711,231.36324991458335,231.79594122708335,58.0,89.0
712,231.74786441458335,232.18215828750002,63.0,87.0
713,232.13247891458334,232.57959327083333,58.0,92.0
714,232.51709341458334,233.04433579166667,66.0,100.0
715,232.90170791458334,233.34401458958334,58.0,100.0
716,230.97863541458335,233.45619381875,51.0,92.0
717,233.28632241458334,233.62125754166667,63.0,94.0
718,233.67093691458334,233.78471870416666,58.0,97.0
719,234.05555141458333,234.45939663958333,59.0,89.0
720,234.44016591458333,234.88247258958333,54.0,45.0
721,234.82478041458333,235.24625380416668,59.0,89.0
722,235.20939491458333,235.64048366666668,54.0,55.0
723,235.59400941458335,236.018687925,59.0,92.0
724,235.59400941458335,236.018687925,62.0,93.0
725,235.97862391458335,236.2206105375,54.0,80.0
726,236.36323841458335,236.53310981875,54.0,82.0
727,236.36323841458335,236.77349388125,59.0,87.0
728,234.05555141458333,236.84560910000002,47.0,84.0
729,236.74785291458335,236.97541649375,54.0,97.0
730,237.13246741458335,237.54272288125,61.0,80.0
731,237.51708191458334,237.92092713958334,54.0,78.0
732,237.90169641458334,238.287913475,58.0,94.0
733,238.28631091458334,238.65810493125,54.0,94.0
734,238.67092541458334,239.12284745208333,61.0,87.0
735,237.13246741458335,239.26387276875002,42.0,80.0
736,239.05553991458333,239.51707731458333,54.0,92.0
737,239.44015441458333,239.65329495,42.0,82.0
738,239.44015441458333,239.81996123333334,58.0,73.0
739,239.82476891458333,239.92412766041667,54.0,94.0
740,240.20938341458333,240.61002351875,62.0,52.0
741,240.59399791458335,241.08117628125,58.0,66.0
742,240.97861241458335,241.40329092500002,62.0,99.0
743,241.36322691458335,241.79752078750002,58.0,82.0
744,241.74784141458335,242.17572504583333,62.0,72.0
745,241.74784141458335,242.17572504583333,65.0,99.0
746,242.13245591458335,242.5395062604167,58.0,66.0
747,242.51707041458334,242.90969771666667,62.0,87.0
748,242.51707041458334,242.93533868333333,65.0,99.0
749,240.20938341458333,243.20617139375,46.0,53.0
750,242.90168491458334,243.25104308541668,58.0,92.0
751,243.28629941458334,243.63565758541668,63.0,84.0
752,243.67091391458334,244.10360522708334,58.0,89.0
753,244.05552841458334,244.4898222875,63.0,87.0
754,244.44014291458333,244.88725727083335,58.0,92.0
755,244.82475741458333,245.35199979166669,66.0,100.0
756,245.20937191458333,245.65167858958336,58.0,100.0
757,243.28629941458334,245.76385781875,51.0,92.0
758,245.59398641458333,245.92892154166668,63.0,94.0
759,245.97860091458335,246.09238270416668,58.0,97.0
760,246.36321541458335,246.76706063958335,59.0,89.0
761,246.74782991458335,247.19013658958335,54.0,45.0
762,247.13244441458335,247.55391780416667,59.0,89.0
763,247.51705891458334,247.94814766666667,54.0,55.0
764,247.90167341458334,248.326351925,59.0,92.0
765,247.90167341458334,248.326351925,62.0,93.0
766,248.28628791458334,248.5282745375,54.0,80.0
767,248.67090241458334,248.84077381875,54.0,82.0
768,248.67090241458334,249.08115788125002,59.0,87.0
769,246.36321541458335,249.1532731,47.0,84.0
770,249.05551691458334,249.28308049375002,54.0,97.0
771,249.44013141458333,249.85038688125002,61.0,80.0
772,249.82474591458333,250.22859113958333,54.0,78.0
773,250.20936041458333,250.595577475,58.0,94.0
774,250.59397491458333,250.96576893125,54.0,94.0
775,250.97858941458335,251.43051145208335,61.0,87.0
776,249.44013141458333,251.57153676875,42.0,80.0
777,251.36320391458335,251.82474131458335,54.0,92.0
778,251.74781841458335,251.96095895000002,42.0,82.0
779,251.74781841458335,252.12762523333333,58.0,73.0
780,252.13243291458335,252.23179166041666,54.0,94.0
781,252.51704741458335,252.91768751875,62.0,52.0
782,252.90166191458334,253.38884028125,58.0,66.0
783,253.28627641458334,253.710954925,62.0,99.0
784,253.67089091458334,254.1051847875,58.0,82.0
785,254.05550541458334,254.48338904583335,62.0,72.0
786,254.05550541458334,254.48338904583335,65.0,99.0
787,254.44011991458333,254.84717026041668,58.0,66.0
788,254.82473441458333,255.2173617166667,62.0,87.0
789,254.82473441458333,255.24300268333334,65.0,99.0
790,252.51704741458335,255.51383539375,46.0,53.0
791,255.20934891458333,255.55870708541667,58.0,92.0
792,255.59396341458333,255.94332158541667,63.0,84.0
793,255.97857791458335,256.4112692270833,58.0,89.0
794,256.36319241458335,256.7974862875,63.0,87.0
795,256.74780691458335,257.19492127083333,58.0,92.0
796,257.13242141458335,257.6596637916667,66.0,100.0
797,257.51703591458335,257.95934258958334,58.0,100.0
798,255.59396341458333,258.07152181875,51.0,92.0
799,257.90165041458334,258.23658554166667,63.0,94.0
800,258.28626491458334,258.4000467041667,58.0,97.0
801,258.67087941458334,259.07472463958334,59.0,89.0
802,259.05549391458334,259.49780058958333,54.0,45.0
803,259.44010841458334,259.8615818041667,59.0,89.0
804,259.82472291458333,260.25581166666666,54.0,55.0
805,260.20933741458333,260.634015925,59.0,92.0
806,260.20933741458333,260.634015925,62.0,93.0
807,258.67087941458334,260.83273341666666,47.0,84.0
808,260.59395191458333,260.8359385375,54.0,80.0
809,260.9016435145833,263.39202240208334,47.0,93.0
810,260.8423487791667,264.57310942916666,54.0,82.0
811,260.91766911875,264.5891350333333,62.0,82.0
812,260.89042559166666,264.60035295625,59.0,79.0
813,260.97536129375,264.6259939229167,66.0,82.0
814,264.82471141458336,265.39201780208333,54.0,95.0
815,265.20932591458336,267.63676101875,49.0,84.0
816,264.82471141458336,267.73192211875,42.0,95.0
817,265.59482961875,268.02348935625,54.0,77.0
818,268.30850529375,268.67006836875,54.0,89.0
819,268.69938429375,268.95019831875,58.0,82.0
820,267.91762629375,270.87265283749997,42.0,94.0
821,269.09026329375,271.38333566666665,58.0,84.0
822,271.46610585416664,272.15191597916663,54.0,81.0
823,271.0607008541666,274.1340247916666,42.0,95.0
824,272.2787682041666,274.7378977291666,58.0,83.0
825,274.80479910416665,275.4333199166666,54.0,67.0
826,274.3822641041666,276.9579670416666,42.0,93.0
827,275.6498691041666,277.14986835416664,58.0,83.0
