,start,end,pitch,velocity
0,20.48076871875,20.668802902083332,70.0,88.0
1,20.73717896875,20.8846148625,72.0,87.0
2,20.99358921875,21.361110577083334,72.0,92.0
3,21.50640971875,21.58333279375,70.0,92.0
4,22.01923021875,22.346153287499998,72.0,86.0
5,22.53205071875,22.636751570833333,70.0,84.0
6,22.788460968749998,23.068375491666668,72.0,90.0
7,23.30128146875,23.587606247916668,74.0,91.0
8,24.83974296875,25.061965185416668,70.0,87.0
9,25.09615321875,25.512819874999998,77.0,104.0
10,25.60897371875,25.74999935625,69.0,87.0
11,25.86538396875,26.491452329166666,69.0,87.0
12,26.63461471875,27.034187358333334,70.0,89.0
13,26.89102496875,27.2692300875,72.0,90.0
14,27.40384546875,27.69871725625,70.0,91.0
15,29.198717218749998,29.553418064583333,74.0,102.0
16,29.711537718749998,29.863247116666667,72.0,87.0
17,29.96794796875,30.311965054166667,74.0,94.0
18,30.73717871875,30.876067604166668,72.0,88.0
19,30.99358896875,31.23717870625,74.0,100.0
20,31.76281971875,31.997862447916667,72.0,87.0
21,32.01922996875,32.28632397916667,67.0,84.0
22,33.04487096875,33.17307609375,67.0,87.0
23,33.30128121875,33.57905898958333,74.0,93.0
24,33.81410171875,33.918802570833336,72.0,82.0
25,34.07051196875,34.367520508333335,74.0,94.0
26,34.83974271875,34.938033314583336,72.0,84.0
27,35.09615296875,35.35256321875,74.0,91.0
28,35.865383718749996,36.008546108333334,67.0,84.0
29,36.12179396875,36.384614475,70.0,88.0
30,36.63461446875,36.94658027291666,72.0,81.0
31,37.14743496875,37.2179477875,67.0,73.0
32,37.40384521875,37.71581102291667,72.0,100.0
33,37.91666571875,38.02136657083333,70.0,83.0
34,38.17307596875,38.31837511041667,72.0,93.0
35,39.19871696875,39.32264858958333,70.0,86.0
36,39.45512721875,39.6538451625,72.0,93.0
37,39.71153746875,40.00640925625,74.0,96.0
38,41.24999896875,41.50854597083333,70.0,83.0
39,41.50640921875,41.873930577083335,77.0,91.0
40,42.01922971875,42.14529809166667,69.0,83.0
41,42.27563996875,42.72649465833333,69.0,87.0
42,43.04487071875,43.205127125,70.0,83.0
43,43.30128096875,43.56837497916666,72.0,87.0
44,44.07051171875,44.2692296625,70.0,81.0
45,45.35256296875,45.53418689583333,67.0,82.0
46,45.60897321875,45.91452876666666,74.0,94.0
47,46.12179371875,46.30128089375,72.0,88.0
48,46.37820396875,46.67521250833333,74.0,92.0
49,47.14743471875,47.322648389583335,72.0,81.0
50,47.40384496875,47.664528722916664,74.0,86.0
51,48.17307571875,48.3974346875,72.0,87.0
52,48.42948596875,48.702990235416664,67.0,83.0
53,49.45512696875,49.57051158125,67.0,86.0
54,49.711537218749996,49.999998749999996,74.0,108.0
55,50.22435771875,50.36752010833333,72.0,89.0
56,50.48076796875,50.767092747916664,74.0,113.0
57,51.24999871875,51.38034059583333,72.0,91.0
58,51.50640896875,51.80982776458333,74.0,98.0
59,52.01922946875,52.29059698333333,75.0,87.0
60,52.53204996875,52.790596970833334,75.0,100.0
61,53.30128071875,53.534186695833334,77.0,96.0
62,53.55769096875,53.69444310208333,79.0,92.0
63,53.81410121875,54.106836254166666,81.0,110.0
64,54.32692171875,54.425212314583334,81.0,102.0
65,54.58333196875,54.88675076458333,81.0,113.0
66,55.35256271875,55.49358835625,82.0,109.0
67,55.60897296875,55.91880202083333,81.0,108.0
68,56.12179346875,56.457263545833335,77.0,110.0
69,57.40384471875,57.54487035625,74.0,104.0
70,57.660254968749996,57.777776333333335,81.0,102.0
71,57.91666521875,58.19444298958333,81.0,113.0
72,58.42948571875,58.688032720833334,82.0,109.0
73,58.94230621875,59.18803270833333,82.0,116.0
74,59.45512671875,59.555554066666666,81.0,102.0
75,59.711536968749996,59.985041235416666,81.0,108.0
76,60.22435746875,60.51709250416667,79.0,104.0
77,61.50640871875,61.74145144791667,79.0,113.0
78,61.76281896875,61.89529759791667,81.0,110.0
79,62.01922921875,62.29059673333333,82.0,113.0
80,62.53204971875,62.6282035625,82.0,109.0
81,62.78845996875,63.098289020833334,82.0,116.0
82,63.557690718749996,63.93162233333333,79.0,114.0
83,64.07051121875,64.42521206458333,75.0,109.0
84,64.83974196875,65.0384599125,70.0,91.0
85,65.09615221874999,65.30128041875,77.0,87.0
86,65.35256246875,65.77350262916667,79.0,104.0
87,66.12179321875,66.52991286666666,77.0,113.0
88,68.68589571875,69.15598117708333,70.0,116.0
89,69.19871621875,69.55341706458333,72.0,102.0
90,69.71153671875,70.01922901875,75.0,116.0
91,70.22435721875,70.53418627083333,75.0,116.0
92,70.73717771875,70.83119481041666,74.0,107.0
93,70.99358796874999,71.40598112083333,74.0,116.0
94,72.78845971875,73.29914346666666,74.0,114.0
95,73.30128021875,73.82905798333333,77.0,113.0
96,73.81410071875,74.10256225,82.0,116.0
97,74.32692121875,74.66239129583333,84.0,116.0
98,74.83974171875,74.97649385208334,82.0,116.0
99,75.09615196875,75.4871776,82.0,119.0
100,76.89102371874999,77.15170747291667,82.0,106.0
101,77.40384421875,77.72008352708333,82.0,119.0
102,77.91666471875,78.17307496875,84.0,117.0
103,78.42948521875,78.71367324583333,86.0,120.0
104,78.94230571874999,79.04059631458333,86.0,117.0
105,79.19871596875,79.59401510416667,86.0,123.0
106,80.48076721875,80.81196379166667,86.0,114.0
107,80.99358771874999,81.10683557916667,84.0,116.0
108,81.24999796875,81.59401505416666,84.0,117.0
109,82.01922871875,82.33333127499999,79.0,110.0
110,82.53204921875,82.81623724583334,82.0,119.0
111,83.04486971875,83.31837398541667,82.0,116.0
112,83.55769021875,83.86324576666667,82.0,119.0
113,83.81410046875,84.22008336458333,84.0,104.0
114,84.58333121875,84.95298932916667,81.0,117.0
115,85.60897221875,85.82264742708333,81.0,117.0
116,85.86538246875,86.11965596666667,79.0,104.0
117,86.12179271875,86.34828843958333,77.0,110.0
118,86.37820296875,86.54914313541667,79.0,110.0
119,86.63461321875,86.9615362875,81.0,119.0
120,87.14743371875,87.32478414166667,81.0,96.0
121,87.66025421875,88.01495506458333,81.0,119.0
122,88.17307471875,88.33974138125,82.0,116.0
123,88.42948496875,88.7307670125,81.0,116.0
124,88.94230546874999,89.19444221458333,77.0,117.0
125,90.22435671875,90.3974336375,74.0,113.0
126,90.48076696875,90.6025618375,81.0,114.0
127,90.73717721874999,90.88888661666667,81.0,116.0
128,90.99358746875,91.256407975,82.0,119.0
129,91.50640796875,91.80341650833333,82.0,119.0
130,92.27563871875,92.54700623333333,84.0,110.0
131,92.78845921874999,93.10469852708333,84.0,116.0
132,93.30127971875,93.61965577916666,82.0,116.0
133,94.32692071875,94.48931387708333,74.0,113.0
134,94.58333096875,94.67734806041666,77.0,113.0
135,94.83974121874999,94.98290360833333,77.0,107.0
136,95.09615146875,95.34828821458333,79.0,114.0
137,95.60897196875,95.91452751666667,79.0,116.0
138,96.89102321875,97.22649329583334,79.0,117.0
139,97.40384371875,97.52777533958333,82.0,123.0
140,97.66025396875,97.94444199583333,82.0,123.0
141,98.94230521875,99.21580948541667,82.0,119.0
142,99.45512571875,99.57478383541667,84.0,114.0
143,99.71153596875,100.04486929375,84.0,119.0
144,100.48076671875,100.79273252291667,82.0,119.0
145,100.99358721875,101.46580942916667,77.0,114.0
146,101.50640771875,101.97649317708333,70.0,116.0
147,102.01922821875,102.37392906458334,72.0,102.0
148,102.53204871875,102.83974101875,75.0,116.0
149,103.04486921875,103.35469827083332,75.0,116.0
150,103.55768971875,103.65170681041667,74.0,107.0
151,103.81409996875,104.22649312083333,74.0,116.0
152,105.60897171875,106.11965546666667,74.0,114.0
153,106.12179221875,106.64956998333334,77.0,113.0
154,106.63461271874999,106.92307425,82.0,116.0
155,107.14743321875,107.48290329583334,84.0,116.0
156,107.66025371875,107.79700585208333,82.0,116.0
157,107.91666396875,108.3076896,82.0,119.0
158,109.71153571875,109.97221947291666,82.0,106.0
159,110.22435621875,110.54059552708333,82.0,119.0
160,110.73717671874999,110.99358696875,84.0,117.0
161,111.24999721875,111.53418524583333,86.0,120.0
162,111.76281771875,111.86110831458333,86.0,117.0
163,112.01922796875,112.41452710416667,86.0,123.0
164,113.30127921875,113.63247579166666,86.0,114.0
165,113.81409971875,113.92734757916666,84.0,116.0
166,114.07050996875,114.41452705416667,84.0,117.0
167,114.83974071875,115.153843275,79.0,110.0
168,115.35256121875,115.63674924583333,82.0,119.0
169,115.86538171875,116.13888598541666,82.0,116.0
170,116.37820221875,116.68375776666666,82.0,119.0
171,116.63461246874999,117.04059536458333,84.0,104.0
172,117.40384321875,117.77350132916666,81.0,117.0
173,118.42948421874999,118.64315942708333,81.0,117.0
174,118.68589446874999,118.94016796666666,79.0,104.0
175,118.94230471875,119.16880043958334,77.0,110.0
176,119.19871496875,119.36965513541666,79.0,110.0
177,119.45512521875,119.7820482875,81.0,119.0
178,119.96794571875,120.14529614166666,81.0,96.0
179,120.48076621874999,120.83546706458333,81.0,119.0
180,120.99358671875,121.16025338125,82.0,116.0
181,121.24999696875,121.5512790125,81.0,116.0
182,121.76281746875,122.01495421458333,77.0,117.0
183,123.04486871875,123.2179456375,74.0,113.0
184,123.30127896875,123.4230738375,81.0,114.0
185,123.55768921875,123.70939861666666,81.0,116.0
186,123.81409946875,124.076919975,82.0,119.0
187,124.32691996875,124.62392850833334,82.0,119.0
188,125.09615071875,125.21367208333334,81.0,110.0
189,125.35256096875,125.62606523541666,84.0,116.0
190,125.86538146875,126.15170624791666,82.0,119.0
191,126.89102246875,126.98290280833334,77.0,113.0
192,127.14743271875,127.24572331458333,77.0,107.0
193,127.40384296875,127.4871763,77.0,98.0
194,127.66025321875,127.97008227083333,77.0,113.0
195,128.17307371875,128.25213354583335,75.0,100.0
196,128.42948396875,128.67093695416668,75.0,109.0
197,130.99358646875,131.20939842916667,75.0,86.0
198,131.24999671875,131.4999967125,74.0,85.0
199,131.50640696874999,131.66025311875,72.0,84.0
200,131.76281721875,132.34401378541668,72.0,92.0
201,132.27563771875,132.72221890416665,70.0,86.0
202,147.91666296875,147.9871757875,67.0,73.0
203,148.17307321875,148.48503902291665,72.0,100.0
204,148.68589371875,148.79059457083332,70.0,83.0
205,148.94230396875,149.08760311041667,72.0,93.0
206,149.96794496875,150.09187658958334,70.0,86.0
207,150.22435521875,150.4230731625,72.0,93.0
208,150.48076546875,150.77563725625,74.0,96.0
209,152.01922696875,152.27777397083332,70.0,83.0
210,152.27563721875,152.64315857708334,77.0,91.0
211,152.78845771875,152.91452609166666,69.0,83.0
212,153.04486796875,153.49572265833334,69.0,87.0
213,153.81409871875,153.974355125,70.0,83.0
214,154.07050896875,154.33760297916666,72.0,87.0
215,154.83973971875,155.0384576625,70.0,81.0
216,156.12179096875,156.30341489583333,67.0,82.0
217,156.37820121875,156.68375676666668,74.0,94.0
218,156.89102171875,157.07050889375,72.0,88.0
219,157.14743196875,157.44444050833334,74.0,92.0
220,157.91666271875,158.09187638958332,72.0,81.0
221,158.17307296875,158.43375672291666,74.0,86.0
222,158.94230371875,159.1666626875,72.0,87.0
223,159.19871396874998,159.47221823541668,67.0,83.0
224,160.22435496875,160.33973958125,67.0,86.0
225,160.48076521875,160.76922675,74.0,108.0
226,160.99358571874998,161.13674810833334,72.0,89.0
227,161.24999596875,161.53632074791668,74.0,113.0
228,162.01922671875,162.14956859583333,72.0,91.0
229,162.27563696875,162.57905576458333,74.0,98.0
230,162.78845746875,163.05982498333333,75.0,87.0
231,163.30127796875,163.55982497083332,75.0,100.0
232,164.07050871875,164.30341469583334,77.0,96.0
233,164.32691896875,164.46367110208334,79.0,92.0
234,164.58332921875,164.87606425416666,81.0,110.0
235,165.09614971874998,165.19444031458332,81.0,102.0
236,165.35255996875,165.65597876458332,81.0,113.0
237,166.12179071875,166.26281635625,82.0,109.0
238,166.37820096875,166.68803002083334,81.0,108.0
239,166.89102146874998,167.22649154583334,77.0,110.0
240,168.17307271875,168.31409835624999,74.0,104.0
241,168.42948296875,168.54700433333332,81.0,102.0
242,168.68589321875,168.96367098958333,81.0,113.0
243,169.19871371874999,169.45726072083332,82.0,109.0
244,169.71153421875,169.95726070833334,82.0,116.0
245,170.22435471875,170.32478206666667,81.0,102.0
246,170.48076496875,170.75426923541667,81.0,108.0
247,170.99358546874998,171.28632050416667,79.0,104.0
248,172.27563671875,172.51067944791666,79.0,113.0
249,172.53204696875,172.66452559791665,81.0,110.0
250,172.78845721875,173.05982473333333,82.0,113.0
251,173.30127771875,173.3974315625,82.0,109.0
252,173.55768796875,173.86751702083333,82.0,116.0
253,174.32691871875,174.70085033333334,79.0,114.0
254,174.83973921875,175.19444006458332,75.0,109.0
255,175.60896996875,175.8076879125,70.0,91.0
256,175.86538021875,176.07050841875,77.0,87.0
257,176.12179046875,176.54273062916667,79.0,104.0
258,176.89102121874998,177.29914086666668,77.0,113.0
259,179.45512371875,179.92520917708333,70.0,116.0
260,179.96794421875,180.32264506458333,72.0,102.0
261,180.48076471875,180.78845701875,75.0,116.0
262,180.99358521874998,181.30341427083334,75.0,116.0
263,181.50640571875,181.60042281041666,74.0,107.0
264,181.76281596875,182.17520912083333,74.0,116.0
265,183.55768771875,184.06837146666666,74.0,114.0
266,184.07050821875,184.59828598333334,77.0,113.0
267,184.58332871875,184.87179025,82.0,116.0
268,185.09614921874999,185.43161929583334,84.0,116.0
269,185.60896971875,185.74572185208334,82.0,116.0
270,185.86537996875,186.2564056,82.0,119.0
271,187.66025171875,187.92093547291665,82.0,106.0
272,188.17307221875,188.48931152708332,82.0,119.0
273,188.68589271874998,188.94230296875,84.0,117.0
274,189.19871321875,189.48290124583332,86.0,120.0
275,189.71153371875,189.80982431458332,86.0,117.0
276,189.96794396875,190.36324310416666,86.0,123.0
277,191.24999521875,191.58119179166667,86.0,114.0
278,191.76281571875,191.87606357916667,84.0,116.0
279,192.01922596875,192.36324305416667,84.0,117.0
280,192.78845671874998,193.102559275,79.0,110.0
281,193.30127721875,193.58546524583332,82.0,119.0
282,193.81409771875,194.08760198541665,82.0,116.0
283,194.32691821875,194.63247376666666,82.0,119.0
284,194.58332846874998,194.98931136458333,84.0,104.0
285,195.35255921875,195.72221732916665,81.0,117.0
286,196.37820021875,196.59187542708332,81.0,117.0
287,196.63461046875,196.88888396666667,79.0,104.0
288,196.89102071874999,197.11751643958334,77.0,110.0
289,197.14743096875,197.31837113541667,79.0,110.0
290,197.40384121875,197.7307642875,81.0,119.0
291,197.91666171875,198.09401214166667,81.0,96.0
292,198.42948221875,198.78418306458332,81.0,119.0
293,198.94230271875,199.10896938125,82.0,116.0
294,199.19871296875,199.4999950125,81.0,116.0
295,199.71153346875,199.96367021458332,77.0,117.0
296,200.99358471875,201.1666616375,74.0,113.0
297,201.24999496875,201.3717898375,81.0,114.0
298,201.50640521875,201.65811461666667,81.0,116.0
299,201.76281546875,202.025635975,82.0,119.0
300,202.27563596875,202.57264450833333,82.0,119.0
301,203.04486671875,203.31623423333332,84.0,110.0
302,203.55768721875,203.87392652708334,84.0,116.0
303,204.07050771875,204.38888377916666,82.0,116.0
304,205.09614871875,205.25854187708333,74.0,113.0
305,205.35255896875,205.44657606041667,77.0,113.0
306,205.60896921875,205.75213160833334,77.0,107.0
307,205.86537946875,206.11751621458333,79.0,114.0
308,206.37819996875,206.68375551666665,79.0,116.0
309,207.66025121875,207.99572129583333,79.0,117.0
310,208.17307171875,208.29700333958334,82.0,123.0
311,208.42948196875,208.71366999583333,82.0,123.0
312,209.71153321875,209.98503748541665,82.0,119.0
313,210.22435371875,210.34401183541667,84.0,114.0
314,210.48076396874998,210.81409729375,84.0,119.0
315,211.24999471875,211.56196052291665,82.0,119.0
316,211.76281521875,212.23503742916665,77.0,114.0
317,212.27563571875,212.74572117708334,70.0,116.0
318,212.78845621874999,213.14315706458333,72.0,102.0
319,213.30127671875,213.60896901875,75.0,116.0
320,213.81409721875,214.12392627083332,75.0,116.0
321,214.32691771875,214.42093481041667,74.0,107.0
322,214.58332796874998,214.99572112083334,74.0,116.0
323,216.37819971874998,216.88888346666667,74.0,114.0
324,216.89102021875,217.41879798333332,77.0,113.0
325,217.40384071875,217.69230224999998,82.0,116.0
326,217.91666121875,218.25213129583332,84.0,116.0
327,218.42948171875,218.56623385208334,82.0,116.0
328,218.68589196874998,219.0769176,82.0,119.0
329,220.48076371874998,220.74144747291666,82.0,106.0
330,220.99358421875,221.30982352708332,82.0,119.0
331,221.50640471875,221.76281496875,84.0,117.0
332,222.01922521875,222.30341324583333,86.0,120.0
333,222.53204571875,222.63033631458333,86.0,117.0
334,222.78845596875,223.18375510416666,86.0,123.0
335,224.07050721875,224.40170379166668,86.0,114.0
336,224.58332771874998,224.69657557916668,84.0,116.0
337,224.83973796875,225.18375505416665,84.0,117.0
338,225.60896871875,225.92307127499998,79.0,110.0
339,226.12178921875,226.40597724583333,82.0,119.0
340,226.63460971875,226.90811398541666,82.0,116.0
341,227.14743021875,227.45298576666667,82.0,119.0
342,227.40384046875,227.80982336458334,84.0,104.0
343,228.17307121875,228.54272932916666,81.0,117.0
344,229.19871221875,229.41238742708333,81.0,117.0
345,229.45512246875,229.70939596666668,79.0,104.0
346,229.71153271875,229.93802843958332,77.0,110.0
347,229.96794296875,230.13888313541668,79.0,110.0
348,230.22435321875,230.5512762875,81.0,119.0
349,230.73717371875,230.91452414166667,81.0,96.0
350,231.24999421875,231.60469506458332,81.0,119.0
351,231.76281471875,231.92948138124999,82.0,116.0
352,232.01922496875,232.3205070125,81.0,116.0
353,232.53204546875,232.78418221458332,77.0,117.0
354,233.81409671875,233.9871736375,74.0,113.0
355,234.07050696875,234.1923018375,81.0,114.0
356,234.32691721875,234.47862661666667,81.0,116.0
357,234.58332746874999,234.846147975,82.0,119.0
358,235.09614796875,235.39315650833333,82.0,119.0
359,235.86537871875,235.98290008333333,81.0,110.0
360,236.12178896875,236.39529323541666,84.0,116.0
361,236.63460946875,236.92093424791668,82.0,119.0
362,237.66025046875,237.75213080833333,77.0,113.0
363,237.91666071875,238.01495131458333,77.0,107.0
364,238.17307096874998,238.25640429999999,77.0,98.0
365,238.42948121875,238.73931027083333,77.0,113.0
366,238.94230171875,239.02136154583334,79.0,100.0
367,239.19871196875,239.44016495416668,79.0,109.0
368,241.76281446875,242.01922471875,86.0,110.0
369,242.01922471875,242.26708796041666,84.0,104.0
370,242.27563496874998,242.49785718541665,82.0,108.0
371,242.53204521875,242.88247256041666,84.0,113.0
372,243.04486571875,244.07050671874998,86.0,119.0
373,244.07050671874998,244.61324174791667,82.0,116.0
374,249.19871171875,249.66879717708332,70.0,116.0
375,249.71153221875,250.06623306458332,72.0,102.0
376,250.22435271875,250.53204501874998,75.0,116.0
377,250.73717321875,251.04700227083333,75.0,116.0
378,251.24999371875,251.34401081041665,74.0,107.0
379,251.50640396875,251.91879712083332,74.0,116.0
380,253.30127571875,253.81195946666665,74.0,114.0
381,253.81409621875,254.34187398333333,77.0,113.0
382,254.32691671875,254.61537825,82.0,116.0
383,254.83973721875,255.17520729583333,84.0,116.0
384,255.35255771875,255.48930985208332,82.0,116.0
385,255.60896796875,255.99999359999998,82.0,119.0
386,257.40383971875,257.66452347291664,82.0,106.0
387,257.91666021875,258.2328995270833,82.0,119.0
388,258.42948071874997,258.68589096875,84.0,117.0
389,258.94230121875,259.2264892458333,86.0,120.0
390,259.45512171875,259.55341231458334,86.0,117.0
391,259.71153196875,260.10683110416664,86.0,123.0
392,260.99358321875,261.3247797916667,86.0,114.0
393,261.50640371875,261.61965157916666,84.0,116.0
394,261.76281396875,262.10683105416666,84.0,117.0
395,262.53204471875,262.846147275,79.0,110.0
396,263.04486521875,263.32905324583334,82.0,119.0
397,263.55768571875,263.83118998541664,82.0,116.0
398,264.07050621875,264.3760617666667,82.0,119.0
399,264.32691646874997,264.7328993645833,84.0,104.0
400,265.09614721875,265.46580532916664,81.0,117.0
401,266.12178821875,266.3354634270833,81.0,117.0
402,266.37819846875,266.6324719666667,79.0,104.0
403,266.63460871875,266.86110443958336,77.0,110.0
404,266.89101896875,267.06195913541666,79.0,110.0
405,267.14742921875,267.4743522875,81.0,119.0
406,267.66024971875,267.83760014166666,81.0,96.0
407,268.17307021875,268.5277710645833,81.0,119.0
408,268.68589071875,268.85255738125,82.0,116.0
409,268.94230096875,269.2435830125,81.0,116.0
410,269.45512146875,269.7072582145833,77.0,117.0
411,270.73717271875,270.9102496375,74.0,113.0
412,270.99358296875,271.1153778375,81.0,114.0
413,271.24999321875,271.4017026166667,81.0,116.0
414,271.50640346875,271.769223975,82.0,119.0
415,272.01922396875,272.3162325083333,82.0,119.0
416,272.78845471875,273.0598222333333,84.0,110.0
417,273.30127521875,273.6175145270833,84.0,116.0
418,273.81409571874997,274.1324717791667,82.0,116.0
419,274.58332646875,274.6944375770833,77.0,104.0
420,274.83973671875,274.94657432291666,77.0,108.0
421,275.09614696875,275.1944375645833,77.0,107.0
422,275.35255721875,275.6687965270833,77.0,117.0
423,275.86537771875,275.96794181875,75.0,110.0
424,276.12178796874997,277.44657426041664,75.0,116.0
425,278.68589046875,278.90811268541665,75.0,102.0
426,278.94230071875,279.16024943125,74.0,87.0
427,279.19871096875,279.3888819041667,70.0,89.0
428,279.45512121875,279.83973659375,72.0,92.0
429,279.96794171875,280.3034117958333,72.0,87.0
430,280.48076221875,280.96580494166665,74.0,88.0
431,280.99358271875,281.44230065625,70.0,89.0
432,282.78845446875,283.0982835208333,70.0,88.0
433,283.04486471875,283.22435189375,72.0,87.0
434,283.30127496875,283.46366812708334,74.0,88.0
435,283.55768521875,283.9102493125,74.0,94.0
436,284.07050571875,284.37819801874997,75.0,88.0
437,284.58332621875,285.2670868854167,75.0,91.0
438,287.91665946874997,288.2585398020833,74.0,84.0
439,288.42947996875,288.74785602916666,72.0,86.0
440,288.94230046875,289.48076199375,70.0,87.0
441,289.45512096875,290.0213602708333,72.0,85.0
442,291.24999271875,291.5363174979167,70.0,87.0
443,291.76281321875,292.2841807270833,70.0,84.0
