,start,end,pitch,velocity
0,4.58333321875,5.2435896125,70.0,80.0
1,4.58333321875,5.331196447916667,62.0,82.0
2,4.58333321875,5.36538448125,65.0,82.0
3,5.60897421875,6.322649414583333,70.0,77.0
4,5.60897421875,6.4166665062499995,62.0,74.0
5,5.60897421875,6.459401547916666,65.0,78.0
6,4.58333321875,6.470085308333333,46.0,76.0
7,6.63461521875,7.399572464583334,70.0,74.0
8,6.63461521875,7.4572647708333335,62.0,71.0
9,6.63461521875,7.459401522916666,65.0,73.0
10,7.66025621875,8.395298935416667,70.0,73.0
11,7.66025621875,8.46153825,62.0,74.0
12,7.66025621875,8.491452779166666,65.0,78.0
13,6.63461521875,8.617521152083333,45.0,77.0
14,8.68589721875,9.5256407875,67.0,81.0
15,8.68589721875,9.527777539583333,70.0,76.0
16,8.68589721875,9.534187795833333,62.0,74.0
17,8.68589721875,10.463674952083332,55.0,75.0
18,9.71153821875,10.489315977083333,70.0,73.0
19,9.71153821875,10.504273241666667,62.0,74.0
20,9.71153821875,10.561965547916666,67.0,77.0
21,8.68589721875,10.60897409375,43.0,77.0
22,10.73717921875,12.25640995,69.0,62.0
23,10.73717921875,12.335469777083333,42.0,75.0
24,10.73717921875,12.363247554166666,66.0,80.0
25,10.73717921875,12.613247547916666,62.0,75.0
26,12.78846121875,13.489315902083334,70.0,80.0
27,12.78846121875,13.58333299375,65.0,77.0
28,12.78846121875,13.594016754166667,62.0,72.0
29,13.81410221875,14.568375704166666,70.0,76.0
30,13.81410221875,14.643162027083333,62.0,72.0
31,13.81410221875,14.649572283333333,65.0,78.0
32,12.78846121875,14.83974321875,46.0,79.0
33,14.83974321875,15.662392770833334,69.0,78.0
34,14.83974321875,15.675213283333333,65.0,70.0
35,14.83974321875,15.6923073,60.0,73.0
36,15.86538421875,16.6025636875,60.0,76.0
37,15.86538421875,16.619657704166666,69.0,77.0
38,15.86538421875,16.649572233333334,65.0,79.0
39,14.83974321875,16.850426929166666,45.0,74.0
40,16.89102521875,17.711538018749998,67.0,77.0
41,16.89102521875,17.760683316666665,58.0,65.0
42,16.89102521875,17.777777333333333,62.0,74.0
43,16.89102521875,17.96794826875,43.0,74.0
44,16.89102521875,17.972221772916665,55.0,73.0
45,17.91666621875,18.02777732708333,58.0,78.0
46,17.91666621875,18.03205083125,67.0,86.0
47,17.91666621875,18.0384610875,62.0,82.0
48,18.42948671875,19.818375572916665,58.0,78.0
49,18.42948671875,19.831196085416668,54.0,78.0
50,18.42948671875,19.83974309375,42.0,74.0
51,18.42948671875,19.876067879166666,63.0,82.0
52,18.42948671875,19.90384565625,66.0,82.0
53,20.99358921875,21.82692253125,65.0,73.0
54,20.99358921875,21.837606291666667,62.0,74.0
55,20.99358921875,21.901708854166667,58.0,70.0
56,22.01923021875,22.764956695833334,65.0,77.0
57,22.01923021875,22.81410199375,62.0,72.0
58,22.01923021875,22.854700283333333,58.0,64.0
59,23.04487121875,23.739315645833333,65.0,72.0
60,23.04487121875,23.835469489583332,62.0,66.0
61,23.04487121875,23.84829000208333,58.0,62.0
62,24.07051221875,24.760683141666668,65.0,77.0
63,24.07051221875,24.87179425,58.0,67.0
64,24.07051221875,24.927349804166667,62.0,71.0
65,20.99358921875,24.995725870833333,46.0,74.0
66,25.09615321875,25.871794225,62.0,38.0
67,25.09615321875,25.882477985416667,58.0,74.0
68,25.09615321875,25.884614737499998,67.0,79.0
69,26.12179421875,26.916665993749998,62.0,75.0
70,26.12179421875,26.94230701875,67.0,76.0
71,26.12179421875,26.95512753125,58.0,74.0
72,27.14743521875,27.90384545625,58.0,65.0
73,27.14743521875,27.923076225,67.0,64.0
74,27.14743521875,27.959401010416666,62.0,65.0
75,25.09615321875,28.694443727083332,55.0,70.0
76,25.09615321875,28.76923005,43.0,71.0
77,28.17307621875,28.8589736375,58.0,68.0
78,28.17307621875,28.8846146625,62.0,71.0
79,28.17307621875,29.008546283333335,67.0,71.0
80,29.198717218749998,29.963674464583335,63.0,84.0
81,29.198717218749998,30.025640275,67.0,78.0
82,29.198717218749998,30.02777702708333,58.0,77.0
83,30.224358218749998,30.991452216666666,63.0,79.0
84,30.224358218749998,31.09615306875,58.0,71.0
85,31.24999921875,31.976494927083333,63.0,72.0
86,31.24999921875,32.07905902708333,58.0,40.0
87,30.224358218749998,32.69444362708333,67.0,76.0
88,32.27564021875,32.70726413958333,63.0,71.0
89,32.27564021875,32.767093197916665,58.0,52.0
90,29.198717218749998,32.81837524791666,39.0,71.0
91,29.198717218749998,32.84401627291667,51.0,72.0
92,33.30128121875,33.97649487708333,60.0,81.0
93,33.30128121875,34.02136667083333,65.0,79.0
94,33.30128121875,34.13461453125,57.0,78.0
95,34.32692221875,35.098289720833336,60.0,74.0
96,34.32692221875,35.123930745833334,65.0,70.0
97,34.32692221875,35.1794863,57.0,70.0
98,35.35256321875,36.05982815833333,60.0,75.0
99,35.35256321875,36.06196491041666,65.0,70.0
100,35.35256321875,36.132477729166666,57.0,65.0
101,33.30128121875,37.036323860416665,41.0,74.0
102,36.37820421875,37.068375141666664,57.0,64.0
103,36.37820421875,37.12179394375,65.0,71.0
104,33.30128121875,37.192306762499996,53.0,76.0
105,36.37820421875,37.26068282916667,60.0,72.0
106,37.40384521875,38.16239220833333,62.0,74.0
107,37.40384521875,38.1666657125,65.0,75.0
108,37.40384521875,38.27564006875,58.0,75.0
109,38.42948621875,39.207263977083336,65.0,75.0
110,38.42948621875,39.23076825,62.0,79.0
111,38.42948621875,39.256409275,58.0,74.0
112,39.45512721875,40.179486175,65.0,76.0
113,39.45512721875,40.19016993541667,62.0,76.0
114,39.45512721875,40.245725489583336,58.0,68.0
115,40.48076821875,41.151708372916666,65.0,81.0
116,40.48076821875,41.271366489583336,58.0,75.0
117,40.48076821875,41.3717938375,62.0,81.0
118,37.40384521875,41.48076819375,46.0,78.0
119,41.50640921875,42.29700748958333,62.0,64.0
120,41.50640921875,42.324785266666666,58.0,77.0
121,41.50640921875,42.356836547916664,67.0,83.0
122,42.53205021875,43.32905874583333,62.0,81.0
123,42.53205021875,43.356836522916666,58.0,78.0
124,42.53205021875,43.388887804166664,67.0,78.0
125,43.55769121875,44.279913422916664,58.0,72.0
126,43.55769121875,44.29059718333333,62.0,72.0
127,43.55769121875,44.35042624166667,67.0,66.0
128,41.50640921875,44.81410144375,55.0,67.0
129,41.50640921875,44.92734930416667,43.0,71.0
130,44.58333221875,45.36752023333333,58.0,81.0
131,45.09615271875,45.38034074583333,53.0,77.0
132,44.58333221875,45.414528779166666,67.0,81.0
133,44.58333221875,45.425212539583335,62.0,84.0
134,45.09615271875,45.600426210416664,41.0,76.0
135,45.60897321875,46.3717937125,63.0,87.0
136,45.60897321875,46.40384499375,67.0,81.0
137,45.60897321875,46.425212514583336,58.0,82.0
138,46.63461421875,47.4743577875,67.0,86.0
139,46.63461421875,47.48076804375,63.0,85.0
140,46.63461421875,47.491451804166665,58.0,84.0
141,47.66025521875,48.44016972916667,58.0,80.0
142,47.66025521875,48.45512699375,63.0,84.0
143,47.66025521875,48.46367400208333,67.0,84.0
144,45.60897321875,49.30982782708333,39.0,89.0
145,45.60897321875,49.35683637291667,51.0,78.0
146,48.68589621875,49.37606714166667,67.0,82.0
147,48.68589621875,49.3974346625,58.0,81.0
148,48.68589621875,49.414528679166665,63.0,82.0
149,49.711537218749996,50.46794745625,60.0,84.0
150,49.711537218749996,50.51281925,65.0,85.0
151,49.711537218749996,50.51495600208333,57.0,82.0
152,50.737178218749996,51.36752008333333,57.0,80.0
153,50.737178218749996,51.38034059583333,65.0,86.0
154,50.737178218749996,51.410255125,60.0,86.0
155,49.711537218749996,51.51922948125,41.0,81.0
156,49.711537218749996,51.56623802708333,53.0,81.0
157,51.762819218749996,52.4743576625,65.0,76.0
158,51.762819218749996,52.54059697708333,57.0,74.0
159,51.762819218749996,52.54059697708333,60.0,77.0
160,51.762819218749996,53.43803285208333,41.0,73.0
161,52.78846021875,53.461537125,65.0,81.0
162,52.78846021875,53.46581062916667,57.0,74.0
163,51.762819218749996,53.48504139791667,53.0,65.0
164,52.78846021875,53.62179353125,60.0,81.0
165,53.81410121875,54.61538325,65.0,77.0
166,53.81410121875,54.6538447875,57.0,76.0
167,53.81410121875,54.65598153958333,62.0,78.0
168,54.83974221875,55.568374679166666,65.0,80.0
169,54.83974221875,55.591878952083334,62.0,80.0
170,54.83974221875,55.66880202708333,57.0,77.0
171,55.86538321875,56.600425935416666,65.0,80.0
172,55.86538321875,56.623930208333334,62.0,80.0
173,55.86538321875,56.632477216666665,57.0,82.0
174,56.89102421875,57.54487035625,57.0,79.0
175,56.89102421875,57.56623787708333,65.0,81.0
176,56.89102421875,57.73717804375,62.0,83.0
177,53.81410121875,57.938032739583335,50.0,81.0
178,57.91666521875,58.64529767916667,67.0,84.0
179,57.91666521875,58.662391695833335,62.0,84.0
180,57.91666521875,58.692306224999996,58.0,83.0
181,58.94230621875,59.6794856875,58.0,83.0
182,58.94230621875,59.681622439583336,62.0,83.0
183,58.94230621875,59.702989960416666,67.0,82.0
184,59.96794721875,60.66880190208333,67.0,80.0
185,59.96794721875,60.70298993541667,58.0,78.0
186,59.96794721875,60.70940019166667,62.0,86.0
187,57.91666521875,61.617519827083335,55.0,75.0
188,60.99358821875,61.68375914166666,58.0,83.0
189,57.91666521875,61.69657965416667,43.0,75.0
190,60.99358821875,61.70085315833333,62.0,87.0
191,60.99358821875,61.70726341458333,67.0,85.0
192,62.01922921875,62.794870225,63.0,88.0
193,62.01922921875,62.82905825833333,67.0,85.0
194,62.01922921875,62.8846138125,58.0,86.0
195,62.01922921875,63.81410096875,39.0,82.0
196,62.01922921875,63.81410096875,51.0,80.0
197,63.04487021875,63.818374472916666,63.0,87.0
198,63.04487021875,63.839741993749996,67.0,86.0
199,63.04487021875,63.88034028333333,58.0,84.0
200,64.07051121875,64.82692145625,67.0,90.0
201,64.07051121875,64.83974196875,58.0,88.0
202,64.07051121875,64.86324624166667,63.0,93.0
203,64.07051121875,65.42948554375,39.0,88.0
204,64.07051121875,65.45940007291667,51.0,87.0
205,65.09615221874999,65.77136587708333,58.0,89.0
206,65.09615221874999,65.7820496375,67.0,90.0
207,65.09615221874999,65.8076906625,63.0,91.0
208,65.60897271875,65.81837442291666,39.0,86.0
209,65.60897271875,65.871793225,51.0,87.0
210,66.12179321875,66.97649405208334,65.0,96.0
211,66.12179321875,67.00427182916667,57.0,90.0
212,66.12179321875,67.00640858125,60.0,100.0
213,67.14743421874999,67.90384445625,65.0,90.0
214,67.14743421874999,67.95726325833333,60.0,93.0
215,67.14743421874999,67.95940001041667,57.0,87.0
216,68.17307521875,68.92521195208333,65.0,91.0
217,68.17307521875,68.94230596875,57.0,88.0
218,68.17307521875,68.96367348958333,60.0,92.0
219,66.12179321875,69.63675039583333,41.0,90.0
220,69.19871621875,69.84401534791667,57.0,88.0
221,69.19871621875,69.91239141458333,65.0,91.0
222,69.71153671875,69.99358799375,43.0,88.0
223,69.19871621875,70.14316063958333,60.0,96.0
224,69.96794696875,70.25854525208334,45.0,87.0
225,70.22435721875,71.07905805208333,65.0,92.0
226,70.22435721875,71.16239138333333,62.0,94.0
227,70.22435721875,71.16452813541666,58.0,91.0
228,71.24999821875,71.96794691875,65.0,94.0
229,71.24999821875,72.03204948125,62.0,96.0
230,71.24999821875,72.03418623333333,58.0,91.0
231,72.01922896875,72.67521185833333,53.0,77.0
232,72.27563921875,72.97222039791667,65.0,98.0
233,72.27563921875,73.07264774583334,62.0,104.0
234,72.27563921875,73.08546825833334,58.0,98.0
235,70.22435721875,73.9487161,46.0,107.0
236,73.04486996874999,73.95512635625,53.0,81.0
237,73.30128021875,74.03204943125,65.0,96.0
238,73.30128021875,74.03418618333333,58.0,100.0
239,73.30128021875,74.05769045625,62.0,108.0
240,74.32692121875,75.13461350625,67.0,98.0
241,74.32692121875,75.15598102708333,62.0,94.0
242,74.32692121875,75.16025453125,58.0,93.0
243,75.09615196875,76.04273314166666,55.0,80.0
244,74.32692121875,76.0897416875,43.0,91.0
245,75.35256221875,76.1153827125,67.0,94.0
246,75.35256221875,76.16452801041666,58.0,98.0
247,75.35256221875,76.17093826666667,62.0,102.0
248,76.12179296875,76.44657928541666,50.0,83.0
249,76.37820321875,77.1666647375,58.0,93.0
250,76.37820321875,77.1666647375,67.0,91.0
251,76.37820321875,77.18375875416666,62.0,92.0
252,77.14743396875,77.58760489791666,55.0,98.0
253,77.91666471875,78.05769035624999,55.0,87.0
254,76.89102371874999,78.08333138125,50.0,80.0
255,76.37820321875,78.11324591041667,43.0,88.0
256,77.40384421875,78.2692288125,58.0,107.0
257,77.40384421875,78.27777582083333,67.0,96.0
258,77.40384421875,78.2948698375,62.0,108.0
259,78.42948521875,79.25854502708333,63.0,100.0
260,78.42948521875,79.27136553958333,58.0,98.0
261,78.42948521875,79.28845955625,67.0,93.0
262,79.19871596875,79.7051262125,51.0,87.0
263,78.42948521875,80.28418602708334,39.0,94.0
264,79.45512621875,80.33760482916666,67.0,102.0
265,79.45512621875,80.33974158125,63.0,107.0
266,79.45512621875,80.35469884583333,58.0,107.0
267,80.22435696875,80.53418602083333,51.0,83.0
268,80.48076721875,81.29273301041667,63.0,110.0
269,80.48076721875,81.29273301041667,67.0,107.0
270,80.48076721875,81.30982702708333,58.0,107.0
271,81.24999796875,81.64743385625,51.0,89.0
272,81.50640821875,82.06623726458334,58.0,107.0
273,80.48076721875,82.2435876875,39.0,92.0
274,81.50640821875,82.25213469583333,67.0,98.0
275,81.50640821875,82.34828853958334,63.0,104.0
276,82.01922871875,82.46794665624999,51.0,85.0
277,82.53204921875,83.28845945625,65.0,102.0
278,82.53204921875,83.31410048125,60.0,113.0
279,82.53204921875,83.33333125,57.0,98.0
280,83.30127996875,83.67307483125,53.0,93.0
281,82.53204921875,84.17093806666666,41.0,93.0
282,83.55769021875,84.38033977083333,65.0,100.0
283,83.55769021875,84.42093806041666,57.0,107.0
284,83.55769021875,84.4230748125,60.0,114.0
285,84.07051071875,84.46580985416666,53.0,74.0
286,83.04486971875,84.60042523541667,48.0,65.0
287,84.58333121875,85.18375855416666,57.0,92.0
288,84.58333121875,85.18375855416666,65.0,93.0
289,84.58333121875,85.19657906666667,60.0,107.0
290,85.09615171875,85.47222008541667,53.0,114.0
291,84.83974146874999,85.48076709375,48.0,86.0
292,85.60897221875,85.95939956041667,53.0,94.0
293,85.35256196875,85.97222007291667,65.0,102.0
294,85.35256196875,85.97863032916666,57.0,107.0
295,85.35256196875,85.98290383333334,60.0,116.0
296,86.12179271875,86.38033972083333,57.0,90.0
297,85.86538246875,86.39957048958333,48.0,91.0
298,86.12179271875,86.40170724166667,65.0,90.0
299,84.58333121875,86.43375852291666,41.0,93.0
300,86.12179271875,86.46580980416667,60.0,94.0
301,86.37820296875,86.487177325,53.0,83.0
302,86.63461321875,86.70939954166667,67.0,87.0
303,87.40384396875,87.77136532708333,50.0,104.0
304,87.66025421875,88.31623710833333,65.0,102.0
305,87.66025421875,88.3205106125,62.0,107.0
306,87.66025421875,88.32264736458333,57.0,110.0
307,86.63461321875,88.54486958125,38.0,104.0
308,88.17307471875,88.743587525,50.0,87.0
309,88.42948496875,89.50640801875,65.0,90.0
310,88.42948496875,89.512818275,62.0,100.0
311,88.42948496875,89.53204904374999,57.0,93.0
312,89.45512596875,89.7820490375,50.0,100.0
313,88.68589521875,90.20939945416667,38.0,91.0
314,89.71153621875,90.37392936458333,65.0,107.0
315,89.71153621875,90.4615362,57.0,107.0
316,89.71153621875,90.58546782083333,62.0,113.0
317,90.22435671875,90.72221995416666,50.0,96.0
318,90.73717721874999,91.37820284375,67.0,98.0
319,90.73717721874999,91.39316010833333,62.0,104.0
320,90.73717721874999,91.39529686041666,58.0,102.0
321,91.50640796875,92.19657889166666,67.0,90.0
322,91.50640796875,92.23717718125,58.0,92.0
323,91.50640796875,92.24572418958333,62.0,96.0
324,91.24999771875,92.41880110833333,50.0,64.0
325,90.73717721874999,92.63888657291666,43.0,89.0
326,92.01922846875,92.64316007708334,55.0,86.0
327,92.27563871875,93.35469852083334,67.0,87.0
328,92.27563871875,93.36324552916666,58.0,87.0
329,92.27563871875,93.38674980208333,62.0,87.0
330,93.55768996875,94.09187798958334,67.0,92.0
331,93.55768996875,94.10256174999999,58.0,92.0
332,93.55768996875,94.11324551041666,62.0,98.0
333,94.07051046875,94.42734806666667,55.0,88.0
334,92.78845921874999,94.435895075,43.0,107.0
335,93.30127971875,94.45726259583333,50.0,80.0
336,94.32692071875,94.66452754791666,58.0,92.0
337,94.32692071875,94.70939934166667,62.0,98.0
338,94.32692071875,94.71367284583333,67.0,89.0
339,94.83974121874999,95.50854462083333,67.0,96.0
340,94.83974121874999,95.51922838125,63.0,108.0
341,94.83974121874999,95.54914291041666,58.0,104.0
342,94.83974121874999,96.33760442916666,39.0,89.0
343,94.83974121874999,96.35469844583334,51.0,88.0
344,95.86538221875,96.63674972083334,58.0,104.0
345,95.86538221875,96.63888647291667,67.0,98.0
346,95.86538221875,96.64743348125,63.0,110.0
347,96.63461296875,96.72863006041666,50.0,93.0
348,96.63461296875,96.7307668125,38.0,88.0
349,96.89102321875,97.19444201458333,38.0,91.0
350,96.89102321875,97.59401465416667,67.0,96.0
351,96.89102321875,97.59828815833333,63.0,102.0
352,96.89102321875,97.60042491041666,48.0,87.0
353,96.89102321875,97.6025616625,60.0,102.0
354,96.89102321875,97.62606593541666,36.0,94.0
355,97.91666421875,98.43162147083333,36.0,88.0
356,97.91666421875,98.52350181041666,48.0,93.0
357,97.91666421875,98.57264710833333,63.0,108.0
358,97.91666421875,98.58546762083333,67.0,94.0
359,97.91666421875,98.79059582083333,60.0,100.0
360,98.94230521875,99.70939921666667,65.0,100.0
361,98.94230521875,99.71794622499999,60.0,108.0
362,98.94230521875,99.72221972916667,57.0,100.0
363,99.71153596875,100.10469835208333,53.0,98.0
364,98.94230521875,100.52991201666667,41.0,100.0
365,99.96794621875,100.7820487625,65.0,102.0
366,99.96794621875,100.81196329166667,60.0,116.0
367,99.96794621875,100.81623679583333,57.0,110.0
368,100.48076671875,100.88033935833333,53.0,86.0
369,99.45512571875,100.98076670625,48.0,77.0
370,100.99358721875,101.53418549583333,65.0,102.0
371,100.99358721875,101.54700600833333,60.0,114.0
372,100.99358721875,101.564100025,57.0,102.0
373,101.50640771875,101.82478377916667,53.0,107.0
374,100.99358721875,101.82905728333333,41.0,100.0
375,101.24999746875,101.871792325,48.0,87.0
376,101.76281796875,102.28632222916667,65.0,104.0
377,101.76281796875,102.29059573333333,60.0,116.0
378,101.76281796875,102.30555299791666,57.0,102.0
379,102.01922821875,102.51068119791667,43.0,110.0
380,102.53204871875,102.78418546458333,57.0,96.0
381,102.53204871875,102.80127948124999,65.0,96.0
382,102.53204871875,102.84401452291667,45.0,93.0
383,102.53204871875,102.86751879583333,60.0,113.0
384,103.04486921875,103.33333075,58.0,104.0
385,103.04486921875,103.57051023125,65.0,107.0
386,103.04486921875,103.63888629791667,62.0,113.0
387,103.81409996875,104.15598030208334,58.0,87.0
388,104.07051021875,104.70298883541666,70.0,102.0
389,104.07051021875,104.72008285208334,62.0,110.0
390,104.07051021875,104.73076661249999,65.0,116.0
391,103.04486921875,104.8846127625,46.0,108.0
392,104.83974096875,104.97008284583333,70.0,88.0
393,104.83974096875,104.98076660625,62.0,98.0
394,104.83974096875,104.9871768625,65.0,107.0
395,104.58333071874999,105.12606574791667,58.0,84.0
396,103.55768971875,105.16239053333334,53.0,75.0
397,105.09615121875,105.85683496041666,62.0,108.0
398,105.09615121875,105.86751872083333,70.0,100.0
399,105.09615121875,105.88888624166667,65.0,114.0
400,105.86538196875,106.24786059166667,58.0,96.0
401,105.09615121875,106.40170674166667,46.0,88.0
402,105.60897171875,106.47008280833333,53.0,74.0
403,106.12179221875,106.84187767083333,70.0,104.0
404,106.12179221875,106.85469818333333,62.0,113.0
405,106.12179221875,106.92948450624999,65.0,117.0
406,106.63461271874999,107.10469817708334,45.0,90.0
407,107.14743321875,107.94657849791666,62.0,107.0
408,107.14743321875,107.96367251458334,70.0,96.0
409,107.14743321875,107.96580926666667,67.0,113.0
410,107.91666396875,108.37606566666666,55.0,88.0
411,107.66025371875,108.74999728125,50.0,73.0
412,108.17307421875,108.95939898541667,70.0,93.0
413,108.17307421875,108.9615357375,67.0,114.0
414,108.17307421875,108.97649300208333,62.0,108.0
415,107.14743321875,108.98076650624999,43.0,107.0
416,108.68589471874999,109.02350154791667,55.0,76.0
417,108.94230496875,109.21153573125,50.0,88.0
418,109.19871521875,110.00427075416667,70.0,91.0
419,109.19871521875,110.02136477083333,67.0,110.0
420,109.19871521875,110.02563827499999,62.0,96.0
421,109.71153571875,110.4999972375,55.0,96.0
422,109.19871521875,110.538458775,43.0,90.0
423,109.45512546875,110.55768954375,50.0,85.0
424,110.22435621875,110.85256133125,62.0,113.0
425,110.22435621875,110.92093739791666,70.0,100.0
426,110.22435621875,110.95726218333333,67.0,114.0
427,110.73717671874999,111.19444166458334,41.0,92.0
428,111.24999721875,112.01922796875,67.0,113.0
429,111.24999721875,112.02136472083333,70.0,98.0
430,111.24999721875,112.02991172916667,63.0,104.0
431,112.01922796875,112.48076641875,51.0,92.0
432,111.24999721875,113.00640743125,39.0,102.0
433,112.27563821875,113.04700572083333,67.0,102.0
434,112.27563821875,113.051279225,70.0,91.0
435,112.27563821875,113.06623648958333,63.0,94.0
436,112.78845871875,113.09401426666666,51.0,84.0
437,111.76281771875,113.27777494583333,46.0,77.0
438,113.30127921875,114.13247577916667,67.0,108.0
439,113.30127921875,114.13461253125,70.0,92.0
440,113.30127921875,114.15170654791666,63.0,100.0
441,114.07050996875,114.41239030208334,51.0,98.0
442,114.32692021875,114.897433025,63.0,104.0
443,114.32692021875,115.02350139791666,67.0,114.0
444,114.32692021875,115.05555267916667,70.0,100.0
445,113.30127921875,115.06837319166667,39.0,94.0
446,114.83974071875,115.24572361458333,51.0,83.0
447,113.81409971875,115.27136463958333,46.0,78.0
448,115.35256121875,116.07264667083334,69.0,90.0
449,115.35256121875,116.08546718333334,65.0,110.0
450,115.35256121875,116.09615094375,60.0,100.0
451,116.12179196875,116.72862956041666,53.0,100.0
452,115.35256121875,117.1410227125,41.0,91.0
453,116.63461246874999,117.20726202708333,65.0,91.0
454,116.63461246874999,117.27350134166666,60.0,107.0
455,116.63461246874999,117.27563809375,57.0,93.0
456,115.86538171875,117.29059535833333,48.0,80.0
457,117.14743296875,117.29273211041667,53.0,78.0
458,117.40384321875,117.75213380833333,57.0,104.0
459,117.40384321875,118.16452696041667,65.0,96.0
460,117.40384321875,118.19016798541666,60.0,110.0
461,118.17307396875,118.50854404583333,53.0,102.0
462,117.40384321875,118.53632182291666,41.0,93.0
463,117.91666371875,118.54700558333333,48.0,83.0
464,118.42948421874999,119.10683462916667,57.0,110.0
465,118.42948421874999,119.16452693541666,65.0,104.0
466,118.42948421874999,119.24572351458333,60.0,116.0
467,118.94230471875,119.36538163125,40.0,95.0
468,119.45512521875,120.22862947291667,65.0,102.0
469,119.45512521875,120.24999699375,57.0,104.0
470,119.45512521875,120.24999699375,62.0,110.0
471,120.22435596875,120.57905681458332,50.0,86.0
472,120.48076621874999,121.06196278541667,65.0,104.0
473,120.48076621874999,121.07050979374999,62.0,113.0
474,120.48076621874999,121.07905680208333,57.0,104.0
475,121.24999696875,121.66025336874999,65.0,89.0
476,121.24999696875,121.66880037708333,57.0,91.0
477,121.24999696875,121.66880037708333,62.0,93.0
478,120.99358671875,121.81196276666667,50.0,83.0
479,119.96794571875,122.12606532291666,45.0,72.0
480,121.76281746875,122.31409950625,65.0,90.0
481,121.76281746875,122.32692001875,57.0,91.0
482,121.76281746875,122.35042429166667,62.0,98.0
483,122.27563796875,122.63033881458333,45.0,32.0
484,122.27563796875,122.71367214583333,50.0,85.0
485,122.53204821874999,123.09401401666666,57.0,113.0
486,122.53204821874999,123.17093709166666,65.0,107.0
487,119.45512521875,123.17307384375,38.0,96.0
488,123.04486871875,123.1923046125,45.0,68.0
489,122.53204821874999,123.40384306874999,62.0,116.0
490,123.04486871875,123.51709092916667,50.0,77.0
491,123.55768921875,124.36538150625,58.0,104.0
492,123.55768921875,124.36538150625,67.0,104.0
493,123.55768921875,124.37392851458333,62.0,108.0
494,124.32691996875,124.63674902083334,55.0,86.0
495,124.58333021874999,125.18803105833334,67.0,96.0
496,124.58333021874999,125.22008233958333,58.0,102.0
497,124.58333021874999,125.22221909166666,62.0,110.0
498,125.35256096875,125.4358943,58.0,90.0
499,125.35256096875,125.4358943,62.0,89.0
500,125.35256096875,125.46367207708333,67.0,89.0
501,125.09615071875,125.93803103958334,55.0,81.0
502,125.86538146875,126.44444128333333,67.0,98.0
503,125.86538146875,126.45298829166667,58.0,98.0
504,125.86538146875,126.45512504375,62.0,108.0
505,126.37820196874999,126.81623614583333,55.0,91.0
506,123.55768921875,126.85683443541666,43.0,88.0
507,124.07050971875,126.91880024583332,50.0,75.0
508,127.14743271875,127.33974040625,43.0,91.0
509,126.63461221875,127.69230449999999,58.0,104.0
510,126.63461221875,127.70298826041666,62.0,113.0
511,126.63461221875,127.74572330208333,67.0,104.0
512,128.42948396875,128.8846121625,51.0,94.0
513,128.68589421875,129.4487147125,58.0,108.0
514,128.68589421875,129.45298821666665,63.0,100.0
515,128.68589421875,129.46367197708332,55.0,107.0
516,129.71153521875,131.358971075,55.0,86.0
517,129.71153521875,131.36538133125,63.0,88.0
518,129.71153521875,131.40811637291665,58.0,88.0
519,127.66025321875,131.41880013333332,39.0,110.0
520,128.17307371875,131.43589415,46.0,73.0
521,131.76281721875,132.55127873749998,65.0,82.0
522,131.76281721875,132.69871463125,58.0,80.0
523,131.76281721875,132.743586425,62.0,85.0
524,132.78845821875,133.52991119166666,58.0,83.0
525,132.78845821875,133.55555221666665,65.0,86.0
526,132.78845821875,133.70939836666668,62.0,84.0
527,131.76281721875,133.78845819375,46.0,79.0
528,133.81409921875,134.60469748958334,65.0,81.0
529,133.81409921875,134.67521030833333,57.0,81.0
530,133.81409921875,134.71794535,60.0,80.0
531,134.83974021875,135.56623592708334,65.0,87.0
532,134.83974021875,135.5897402,57.0,84.0
533,133.81409921875,135.83119318541665,45.0,80.0
534,134.83974021875,135.8333299375,60.0,88.0
535,135.86538121875,136.62179145625,67.0,84.0
536,135.86538121875,136.63888547291666,62.0,83.0
537,135.86538121875,136.641022225,58.0,83.0
538,135.86538121875,137.52136408333334,55.0,78.0
539,136.89102221875,137.59615040625,67.0,84.0
540,136.89102221875,137.60042391041665,58.0,83.0
541,136.89102221875,137.86538116875,62.0,83.0
542,135.86538121875,137.91238971458333,43.0,77.0
543,137.91666321875,138.61110764583333,65.0,81.0
544,137.87820168125,139.50213326458334,42.0,75.0
545,137.88674868958333,139.53845805,63.0,81.0
546,137.88247518541667,139.54486830625,66.0,73.0
547,137.88033843333332,139.58119309166668,54.0,74.0
548,137.88888544166667,139.77350077916665,58.0,75.0
549,139.94230419375,140.57905631458334,65.0,78.0
550,139.94230419375,140.60683409166666,58.0,78.0
551,139.92948368125,140.64529562916667,62.0,80.0
552,141.01068023541666,141.6794836375,65.0,70.0
553,140.97221869791667,141.69016739791667,58.0,78.0
554,140.97435545,141.72649218333333,62.0,79.0
555,139.94444094583332,141.95939816041667,46.0,81.0
556,141.99358619375,142.32905627083332,57.0,77.0
557,141.99358619375,142.384611825,60.0,80.0
558,141.99572294583334,142.55341523958333,65.0,77.0
559,143.02563745,143.64529555416667,57.0,81.0
560,143.01922719375,143.71153486875,65.0,84.0
561,143.01709044166665,143.97221862291667,60.0,86.0
562,142.01068021041667,143.98503913541666,45.0,78.0
563,144.02350067291667,144.73503911666666,62.0,74.0
564,144.02991092916668,144.76068014166665,67.0,81.0
565,144.02991092916668,144.794868175,58.0,75.0
566,145.06196218541666,145.44444080833333,62.0,81.0
567,145.06196218541666,145.44657756041667,58.0,79.0
568,144.03204768125,145.52350063541667,55.0,71.0
569,143.9871758875,145.55341516458333,43.0,77.0
570,145.05982543333334,145.68803054583333,67.0,81.0
571,145.60897071875,146.53418437083334,42.0,67.0
572,145.60897071875,146.55555189166665,58.0,70.0
573,145.60897071875,146.5769194125,54.0,74.0
574,145.60897071875,146.58119291666665,63.0,74.0
575,145.60897071875,146.61324419791666,66.0,68.0
576,148.17307321875,148.93162020833333,62.0,74.0
577,148.17307321875,148.9358937125,65.0,75.0
578,148.17307321875,149.04486806875,58.0,75.0
579,149.19871421874998,149.97649197708333,65.0,75.0
580,149.19871421874998,149.99999625,62.0,79.0
581,149.19871421874998,150.025637275,58.0,74.0
582,150.22435521875,150.948714175,65.0,76.0
583,150.22435521875,150.95939793541666,62.0,76.0
584,150.22435521875,151.01495348958332,58.0,68.0
585,151.24999621875,151.92093637291666,65.0,81.0
586,151.24999621875,152.04059448958333,58.0,75.0
587,151.24999621875,152.1410218375,62.0,81.0
588,148.17307321875,152.24999619375,46.0,78.0
589,152.27563721875,153.06623548958333,62.0,64.0
590,152.27563721875,153.09401326666665,58.0,77.0
591,152.27563721875,153.12606454791666,67.0,83.0
592,153.30127821874999,154.09828674583332,62.0,81.0
593,153.30127821874999,154.12606452291666,58.0,78.0
594,153.30127821874999,154.15811580416667,67.0,78.0
595,154.32691921875,155.04914142291668,58.0,72.0
596,154.32691921875,155.05982518333334,62.0,72.0
597,154.32691921875,155.11965424166667,67.0,66.0
598,152.27563721875,155.58332944375,55.0,67.0
599,152.27563721875,155.69657730416665,43.0,71.0
600,155.35256021875,156.13674823333332,58.0,81.0
601,155.86538071875,156.14956874583334,53.0,77.0
602,155.35256021875,156.18375677916666,67.0,81.0
603,155.35256021875,156.19444053958333,62.0,84.0
604,155.86538071875,156.36965421041666,41.0,76.0
605,156.37820121875,157.1410217125,63.0,87.0
606,156.37820121875,157.17307299375,67.0,81.0
607,156.37820121875,157.19444051458333,58.0,82.0
608,157.40384221875,158.2435857875,67.0,86.0
609,157.40384221875,158.24999604375,63.0,85.0
610,157.40384221875,158.26067980416667,58.0,84.0
611,158.42948321875,159.20939772916665,58.0,80.0
612,158.42948321875,159.22435499374998,63.0,84.0
613,158.42948321875,159.23290200208334,67.0,84.0
614,156.37820121875,160.07905582708332,39.0,89.0
615,156.37820121875,160.12606437291666,51.0,78.0
616,159.45512421875,160.14529514166665,67.0,82.0
617,159.45512421875,160.1666626625,58.0,81.0
618,159.45512421875,160.18375667916666,63.0,82.0
619,160.48076521875,161.23717545625,60.0,84.0
620,160.48076521875,161.28204725,65.0,85.0
621,160.48076521875,161.28418400208332,57.0,82.0
622,161.50640621875,162.13674808333334,57.0,80.0
623,161.50640621875,162.14956859583333,65.0,86.0
624,161.50640621875,162.179483125,60.0,86.0
625,160.48076521875,162.28845748125,41.0,81.0
626,160.48076521875,162.33546602708333,53.0,81.0
627,162.53204721875,163.2435856625,65.0,76.0
628,162.53204721875,163.30982497708334,57.0,74.0
629,162.53204721875,163.30982497708334,60.0,77.0
630,162.53204721875,164.20726085208332,41.0,73.0
631,163.55768821875,164.230765125,65.0,81.0
632,163.55768821875,164.23503862916667,57.0,74.0
633,162.53204721875,164.25426939791666,53.0,65.0
634,163.55768821875,164.39102153125,60.0,81.0
635,164.58332921875,165.38461125,65.0,77.0
636,164.58332921875,165.4230727875,57.0,76.0
637,164.58332921875,165.42520953958334,62.0,78.0
638,165.60897021875,166.33760267916665,65.0,80.0
639,165.60897021875,166.36110695208333,62.0,80.0
640,165.60897021875,166.43803002708333,57.0,77.0
641,166.63461121875,167.36965393541666,65.0,80.0
642,166.63461121875,167.39315820833332,62.0,80.0
643,166.63461121875,167.40170521666667,57.0,82.0
644,167.66025221875,168.31409835624999,57.0,79.0
645,167.66025221875,168.33546587708332,65.0,81.0
646,167.66025221875,168.50640604375,62.0,83.0
647,164.58332921875,168.70726073958332,50.0,81.0
648,168.68589321875,169.41452567916667,67.0,84.0
649,168.68589321875,169.43161969583332,62.0,84.0
650,168.68589321875,169.461534225,58.0,83.0
651,169.71153421875,170.4487136875,58.0,83.0
652,169.71153421875,170.45085043958332,62.0,83.0
653,169.71153421875,170.47221796041666,67.0,82.0
654,170.73717521875,171.43802990208334,67.0,80.0
655,170.73717521875,171.47221793541667,58.0,78.0
656,170.73717521875,171.47862819166667,62.0,86.0
657,168.68589321875,172.38674782708333,55.0,75.0
658,171.76281621875,172.45298714166665,58.0,83.0
659,168.68589321875,172.46580765416667,43.0,75.0
660,171.76281621875,172.47008115833333,62.0,87.0
661,171.76281621875,172.47649141458334,67.0,85.0
662,172.78845721875,173.564098225,63.0,88.0
663,172.78845721875,173.59828625833333,67.0,85.0
664,172.78845721875,173.6538418125,58.0,86.0
665,172.78845721875,174.58332896875,39.0,82.0
666,172.78845721875,174.58332896875,51.0,80.0
667,173.81409821875,174.58760247291667,63.0,87.0
668,173.81409821875,174.60896999375,67.0,86.0
669,173.81409821875,174.64956828333334,58.0,84.0
670,174.83973921875,175.59614945625,67.0,90.0
671,174.83973921875,175.60896996875,58.0,88.0
672,174.83973921875,175.63247424166667,63.0,93.0
673,174.83973921875,176.19871354375,39.0,88.0
674,174.83973921875,176.22862807291668,51.0,87.0
675,175.86538021875,176.54059387708332,58.0,89.0
676,175.86538021875,176.5512776375,67.0,90.0
677,175.86538021875,176.5769186625,63.0,91.0
678,176.37820071875,176.58760242291666,39.0,86.0
679,176.37820071875,176.641021225,51.0,87.0
680,176.89102121874998,177.74572205208332,65.0,96.0
681,176.89102121874998,177.77349982916667,57.0,90.0
682,176.89102121874998,177.77563658124998,60.0,100.0
683,177.91666221875,178.67307245625,65.0,90.0
684,177.91666221875,178.72649125833334,60.0,93.0
685,177.91666221875,178.72862801041666,57.0,87.0
686,178.94230321875,179.69443995208334,65.0,91.0
687,178.94230321875,179.71153396875,57.0,88.0
688,178.94230321875,179.73290148958333,60.0,92.0
689,176.89102121874998,180.40597839583333,41.0,90.0
690,179.96794421875,180.61324334791667,57.0,88.0
691,179.96794421875,180.68161941458334,65.0,91.0
692,180.48076471875,180.76281599375,43.0,88.0
693,179.96794421875,180.91238863958333,60.0,96.0
694,180.73717496875,181.02777325208334,45.0,87.0
695,180.99358521874998,181.84828605208332,65.0,92.0
696,180.99358521874998,181.93161938333333,62.0,94.0
697,180.99358521874998,181.93375613541667,58.0,91.0
698,182.01922621875,182.73717491875,65.0,94.0
699,182.01922621875,182.80127748125,62.0,96.0
700,182.01922621875,182.80341423333334,58.0,91.0
701,182.78845696874998,183.44443985833334,53.0,77.0
702,183.04486721875,183.74144839791666,65.0,98.0
703,183.04486721875,183.84187574583333,62.0,104.0
704,183.04486721875,183.85469625833332,58.0,98.0
705,180.99358521874998,184.7179441,46.0,107.0
706,183.81409796875,184.72435435625,53.0,81.0
707,184.07050821875,184.80127743124999,65.0,96.0
708,184.07050821875,184.80341418333333,58.0,100.0
709,184.07050821875,184.82691845624998,62.0,108.0
710,185.09614921874999,185.90384150625,67.0,98.0
711,185.09614921874999,185.92520902708333,62.0,94.0
712,185.09614921874999,185.92948253125,58.0,93.0
713,185.86537996875,186.81196114166667,55.0,80.0
714,185.09614921874999,186.8589696875,43.0,91.0
715,186.12179021875,186.8846107125,67.0,94.0
716,186.12179021875,186.93375601041666,58.0,98.0
717,186.12179021875,186.94016626666667,62.0,102.0
718,186.89102096874998,187.21580728541667,50.0,83.0
719,187.14743121875,187.93589273749998,58.0,93.0
720,187.14743121875,187.93589273749998,67.0,91.0
721,187.14743121875,187.95298675416666,62.0,92.0
722,187.91666196875,188.35683289791666,55.0,98.0
723,188.68589271874998,188.82691835625,55.0,87.0
724,187.66025171875,188.85255938125,50.0,80.0
725,187.14743121875,188.88247391041665,43.0,88.0
726,188.17307221875,189.0384568125,58.0,107.0
727,188.17307221875,189.04700382083334,67.0,96.0
728,188.17307221875,189.0640978375,62.0,108.0
729,189.19871321875,190.02777302708333,63.0,100.0
730,189.19871321875,190.04059353958334,58.0,98.0
731,189.19871321875,190.05768755625,67.0,93.0
732,189.96794396875,190.4743542125,51.0,87.0
733,189.19871321875,191.05341402708333,39.0,94.0
734,190.22435421875,191.10683282916668,67.0,102.0
735,190.22435421875,191.10896958125,63.0,107.0
736,190.22435421875,191.12392684583332,58.0,107.0
737,190.99358496874999,191.30341402083334,51.0,83.0
738,191.24999521875,192.06196101041667,63.0,110.0
739,191.24999521875,192.06196101041667,67.0,107.0
740,191.24999521875,192.07905502708334,58.0,107.0
741,192.01922596875,192.41666185625,51.0,89.0
742,192.27563621875,192.83546526458332,58.0,107.0
743,191.24999521875,193.0128156875,39.0,92.0
744,192.27563621875,193.02136269583332,67.0,98.0
745,192.27563621875,193.11751653958333,63.0,104.0
746,192.78845671874998,193.23717465625,51.0,85.0
747,193.30127721875,194.05768745625,65.0,102.0
748,193.30127721875,194.08332848125,60.0,113.0
749,193.30127721875,194.10255924999998,57.0,98.0
750,194.07050796875,194.44230283125,53.0,93.0
751,193.30127721875,194.94016606666668,41.0,93.0
752,194.32691821875,195.14956777083333,65.0,100.0
753,194.32691821875,195.19016606041666,57.0,107.0
754,194.32691821875,195.1923028125,60.0,114.0
755,194.83973871875,195.23503785416668,53.0,74.0
756,193.81409771875,195.36965323541665,48.0,65.0
757,195.35255921875,195.95298655416667,57.0,92.0
758,195.35255921875,195.95298655416667,65.0,93.0
759,195.35255921875,195.96580706666666,60.0,107.0
760,195.86537971875,196.24144808541666,53.0,114.0
761,195.60896946875,196.24999509375,48.0,86.0
762,196.37820021875,196.72862756041667,53.0,94.0
763,196.12178996875,196.74144807291665,65.0,102.0
764,196.12178996875,196.74785832916666,57.0,107.0
765,196.12178996875,196.75213183333332,60.0,116.0
766,196.89102071874999,197.14956772083332,57.0,90.0
767,196.63461046875,197.16879848958334,48.0,91.0
768,196.89102071874999,197.17093524166665,65.0,90.0
769,195.35255921875,197.20298652291666,41.0,93.0
770,196.89102071874999,197.23503780416667,60.0,94.0
771,197.14743096875,197.256405325,53.0,83.0
772,197.40384121875,197.47862754166667,67.0,87.0
773,198.17307196875,198.54059332708334,50.0,104.0
774,198.42948221875,199.08546510833332,65.0,102.0
775,198.42948221875,199.08973861249999,62.0,107.0
776,198.42948221875,199.09187536458333,57.0,110.0
777,197.40384121875,199.31409758125,38.0,104.0
778,198.94230271875,199.512815525,50.0,87.0
779,199.19871296875,200.27563601875,65.0,90.0
780,199.19871296875,200.282046275,62.0,100.0
781,199.19871296875,200.30127704375,57.0,93.0
782,200.22435396875,200.5512770375,50.0,100.0
783,199.45512321875,200.97862745416666,38.0,91.0
784,200.48076421875,201.14315736458332,65.0,107.0
785,200.48076421875,201.2307642,57.0,107.0
786,200.48076421875,201.35469582083334,62.0,113.0
787,200.99358471875,201.49144795416666,50.0,96.0
788,201.50640521875,202.14743084375,67.0,98.0
789,201.50640521875,202.16238810833332,62.0,104.0
790,201.50640521875,202.16452486041666,58.0,102.0
791,202.27563596875,202.96580689166666,67.0,90.0
792,202.27563596875,203.00640518125,58.0,92.0
793,202.27563596875,203.01495218958334,62.0,96.0
794,202.01922571875,203.18802910833332,50.0,64.0
795,201.50640521875,203.40811457291667,43.0,89.0
796,202.78845646874998,203.41238807708334,55.0,86.0
797,203.04486671875,204.12392652083332,67.0,87.0
798,203.04486671875,204.13247352916667,58.0,87.0
799,203.04486671875,204.15597780208333,62.0,87.0
800,204.32691796875,204.86110598958334,67.0,92.0
801,204.32691796875,204.87178975,58.0,92.0
802,204.32691796875,204.88247351041667,62.0,98.0
803,204.83973846875,205.19657606666667,55.0,88.0
804,203.55768721875,205.205123075,43.0,107.0
805,204.07050771875,205.22649059583333,50.0,80.0
806,205.09614871875,205.43375554791666,58.0,92.0
807,205.09614871875,205.47862734166665,62.0,98.0
808,205.09614871875,205.48290084583334,67.0,89.0
809,205.60896921875,206.27777262083333,67.0,96.0
810,205.60896921875,206.28845638125,63.0,108.0
811,205.60896921875,206.31837091041666,58.0,104.0
812,205.60896921875,207.10683242916667,39.0,89.0
813,205.60896921875,207.12392644583332,51.0,88.0
814,206.63461021875,207.40597772083333,58.0,104.0
815,206.63461021875,207.40811447291665,67.0,98.0
816,206.63461021875,207.41666148125,63.0,110.0
817,207.40384096875,207.49785806041666,50.0,93.0
818,207.40384096875,207.4999948125,38.0,88.0
819,207.66025121875,207.96367001458333,38.0,91.0
820,207.66025121875,208.36324265416667,67.0,96.0
821,207.66025121875,208.36751615833333,63.0,102.0
822,207.66025121875,208.36965291041668,48.0,87.0
823,207.66025121875,208.3717896625,60.0,102.0
824,207.66025121875,208.39529393541667,36.0,94.0
825,208.68589221874998,209.20084947083333,36.0,88.0
826,208.68589221874998,209.29272981041666,48.0,93.0
827,208.68589221874998,209.34187510833334,63.0,108.0
828,208.68589221874998,209.35469562083333,67.0,94.0
829,208.68589221874998,209.55982382083332,60.0,100.0
830,209.71153321875,210.47862721666667,65.0,100.0
831,209.71153321875,210.487174225,60.0,108.0
832,209.71153321875,210.49144772916665,57.0,100.0
833,210.48076396874998,210.87392635208332,53.0,98.0
834,209.71153321875,211.29914001666666,41.0,100.0
835,210.73717421875,211.5512767625,65.0,102.0
836,210.73717421875,211.58119129166667,60.0,116.0
837,210.73717421875,211.58546479583333,57.0,110.0
838,211.24999471875,211.64956735833334,53.0,86.0
839,210.22435371875,211.74999470625,48.0,77.0
840,211.76281521875,212.30341349583333,65.0,102.0
841,211.76281521875,212.31623400833334,60.0,114.0
842,211.76281521875,212.333328025,57.0,102.0
843,212.27563571875,212.59401177916666,53.0,107.0
844,211.76281521875,212.59828528333333,41.0,100.0
845,212.01922546875,212.641020325,48.0,87.0
846,212.53204596875,213.05555022916667,65.0,104.0
847,212.53204596875,213.05982373333333,60.0,116.0
848,212.53204596875,213.07478099791666,57.0,102.0
849,212.78845621874999,213.27990919791665,43.0,110.0
850,213.30127671875,213.55341346458334,57.0,96.0
851,213.30127671875,213.57050748125,65.0,96.0
852,213.30127671875,213.61324252291666,45.0,93.0
853,213.30127671875,213.63674679583332,60.0,113.0
854,213.81409721875,214.10255875,58.0,104.0
855,213.81409721875,214.33973823125,65.0,107.0
856,213.81409721875,214.40811429791665,62.0,113.0
857,214.58332796874998,214.92520830208332,58.0,87.0
858,214.83973821875,215.47221683541667,70.0,102.0
859,214.83973821875,215.48931085208332,62.0,110.0
860,214.83973821875,215.4999946125,65.0,116.0
861,213.81409721875,215.6538407625,46.0,108.0
862,215.60896896875,215.73931084583333,70.0,88.0
863,215.60896896875,215.74999460625,62.0,98.0
864,215.60896896875,215.7564048625,65.0,107.0
865,215.35255871875,215.89529374791667,58.0,84.0
866,214.32691771875,215.93161853333334,53.0,75.0
867,215.86537921875,216.62606296041668,62.0,108.0
868,215.86537921875,216.63674672083334,70.0,100.0
869,215.86537921875,216.65811424166665,65.0,114.0
870,216.63460996875,217.01708859166666,58.0,96.0
871,215.86537921875,217.17093474166666,46.0,88.0
872,216.37819971874998,217.23931080833333,53.0,74.0
873,216.89102021875,217.61110567083333,70.0,104.0
874,216.89102021875,217.62392618333334,62.0,113.0
875,216.89102021875,217.69871250625,65.0,117.0
876,217.40384071875,217.87392617708332,45.0,90.0
877,217.91666121875,218.71580649791667,62.0,107.0
878,217.91666121875,218.73290051458332,70.0,96.0
879,217.91666121875,218.73503726666667,67.0,113.0
880,218.68589196874998,219.14529366666667,55.0,88.0
881,218.42948171875,219.51922528125,50.0,73.0
882,218.94230221875,219.72862698541667,70.0,93.0
883,218.94230221875,219.73076373749998,67.0,114.0
884,218.94230221875,219.74572100208334,62.0,108.0
885,217.91666121875,219.74999450625,43.0,107.0
886,219.45512271875,219.79272954791665,55.0,76.0
887,219.71153296875,219.98076373125,50.0,88.0
888,219.96794321875,220.77349875416667,70.0,91.0
889,219.96794321875,220.79059277083334,67.0,110.0
890,219.96794321875,220.794866275,62.0,96.0
891,220.48076371874998,221.2692252375,55.0,96.0
892,219.96794321875,221.307686775,43.0,90.0
893,220.22435346875,221.32691754375,50.0,85.0
894,220.99358421875,221.62178933125,62.0,113.0
895,220.99358421875,221.69016539791667,70.0,100.0
896,220.99358421875,221.72649018333334,67.0,114.0
897,221.50640471875,221.96366966458334,41.0,92.0
898,222.01922521875,222.78845596875,67.0,113.0
899,222.01922521875,222.79059272083333,70.0,98.0
900,222.01922521875,222.79913972916665,63.0,104.0
901,222.78845596875,223.24999441875,51.0,92.0
902,222.01922521875,223.77563543125,39.0,102.0
903,223.04486621875,223.81623372083334,67.0,102.0
904,223.04486621875,223.820507225,70.0,91.0
905,223.04486621875,223.83546448958333,63.0,94.0
906,223.55768671875,223.86324226666667,51.0,84.0
907,222.53204571875,224.04700294583333,46.0,77.0
908,224.07050721875,224.90170377916667,67.0,108.0
909,224.07050721875,224.90384053124998,70.0,92.0
910,224.07050721875,224.92093454791666,63.0,100.0
911,224.83973796875,225.18161830208334,51.0,98.0
912,225.09614821875,225.666661025,63.0,104.0
913,225.09614821875,225.79272939791667,67.0,114.0
914,225.09614821875,225.82478067916665,70.0,100.0
915,224.07050721875,225.83760119166666,39.0,94.0
916,225.60896871875,226.01495161458334,51.0,83.0
917,224.58332771874998,226.04059263958334,46.0,78.0
918,226.12178921875,226.84187467083333,69.0,90.0
919,226.12178921875,226.85469518333332,65.0,110.0
920,226.12178921875,226.86537894375,60.0,100.0
921,226.89101996875,227.49785756041666,53.0,100.0
922,226.12178921875,227.9102507125,41.0,91.0
923,227.40384046875,227.97649002708334,65.0,91.0
924,227.40384046875,228.04272934166667,60.0,107.0
925,227.40384046875,228.04486609375,57.0,93.0
926,226.63460971875,228.05982335833332,48.0,80.0
927,227.91666096875,228.06196011041666,53.0,78.0
928,228.17307121875,228.52136180833332,57.0,104.0
929,228.17307121875,228.93375496041665,65.0,96.0
930,228.17307121875,228.95939598541668,60.0,110.0
931,228.94230196875,229.27777204583333,53.0,102.0
932,228.17307121875,229.30554982291667,41.0,93.0
933,228.68589171874999,229.31623358333334,48.0,83.0
934,229.19871221875,229.87606262916665,57.0,110.0
935,229.19871221875,229.93375493541666,65.0,104.0
936,229.19871221875,230.01495151458332,60.0,116.0
937,229.71153271875,230.13460963125,40.0,95.0
938,230.22435321875,230.99785747291665,65.0,102.0
939,230.22435321875,231.01922499375,57.0,104.0
940,230.22435321875,231.01922499375,62.0,110.0
941,230.99358396875,231.34828481458334,50.0,86.0
942,231.24999421875,231.83119078541665,65.0,104.0
943,231.24999421875,231.83973779375,62.0,113.0
944,231.24999421875,231.84828480208333,57.0,104.0
945,232.01922496875,232.42948136875,65.0,89.0
946,232.01922496875,232.43802837708333,57.0,91.0
947,232.01922496875,232.43802837708333,62.0,93.0
948,231.76281471875,232.58119076666665,50.0,83.0
949,230.73717371875,232.89529332291667,45.0,72.0
950,232.53204546875,233.08332750625,65.0,90.0
951,232.53204546875,233.09614801875,57.0,91.0
952,232.53204546875,233.11965229166665,62.0,98.0
953,233.04486596875,233.39956681458332,45.0,32.0
954,233.04486596875,233.48290014583333,50.0,85.0
955,233.30127621875,233.86324201666667,57.0,113.0
956,233.30127621875,233.94016509166667,65.0,107.0
957,230.22435321875,233.94230184375,38.0,96.0
958,233.81409671875,233.9615326125,45.0,68.0
959,233.30127621875,234.17307106875,62.0,116.0
960,233.81409671875,234.28631892916667,50.0,77.0
961,234.32691721875,235.13460950625,58.0,104.0
962,234.32691721875,235.13460950625,67.0,104.0
963,234.32691721875,235.14315651458332,62.0,108.0
964,235.09614796875,235.40597702083332,55.0,86.0
965,235.35255821875,235.95725905833334,67.0,96.0
966,235.35255821875,235.98931033958334,58.0,102.0
967,235.35255821875,235.99144709166666,62.0,110.0
968,236.12178896875,236.2051223,58.0,90.0
969,236.12178896875,236.2051223,62.0,89.0
970,236.12178896875,236.23290007708334,67.0,89.0
971,235.86537871875,236.70725903958333,55.0,81.0
972,236.63460946875,237.21366928333333,67.0,98.0
973,236.63460946875,237.22221629166665,58.0,98.0
974,236.63460946875,237.22435304375,62.0,108.0
975,237.14742996875,237.58546414583333,55.0,91.0
976,234.32691721875,237.62606243541666,43.0,88.0
977,234.83973771875,237.68802824583332,50.0,75.0
978,237.91666071875,238.10896840625,43.0,91.0
979,237.40384021875,238.4615325,58.0,104.0
980,237.40384021875,238.47221626041667,62.0,113.0
981,237.40384021875,238.51495130208332,67.0,104.0
982,239.19871196875,239.6538401625,51.0,94.0
983,239.45512221875,240.2179427125,58.0,108.0
984,239.45512221875,240.22221621666665,63.0,100.0
985,239.45512221875,240.23289997708332,55.0,107.0
986,240.48076321874998,242.128199075,55.0,86.0
987,240.48076321874998,242.13460933125,63.0,88.0
988,240.48076321874998,242.17734437291665,58.0,88.0
989,238.42948121875,242.18802813333332,39.0,110.0
990,238.94230171875,242.20512215,46.0,73.0
991,242.53204521875,242.81623324583333,67.0,90.0
992,242.53204521875,242.83760076666667,39.0,90.0
993,242.53204521875,242.85042127916665,51.0,87.0
994,242.53204521875,242.85255803125,58.0,89.0
995,242.53204521875,242.85469478333334,63.0,98.0
996,243.04486571875,243.36751528333332,39.0,91.0
997,243.04486571875,243.38674605208334,58.0,89.0
998,243.04486571875,243.38888280416666,67.0,89.0
999,243.04486571875,243.410250325,51.0,88.0
1000,243.04486571875,243.43802810208334,63.0,100.0
1001,243.55768621875,243.86965202291665,67.0,92.0
1002,243.55768621875,243.871788775,39.0,96.0
1003,243.55768621875,243.88674603958333,51.0,88.0
1004,243.55768621875,243.89315629583334,63.0,107.0
1005,243.55768621875,243.8974298,58.0,92.0
1006,244.07050671874998,244.31409645624998,67.0,88.0
1007,244.07050671874998,244.3205067125,39.0,102.0
1008,244.07050671874998,244.33119047291666,58.0,90.0
1009,244.07050671874998,244.33546397708332,63.0,100.0
1010,244.07050671874998,244.3717887625,51.0,90.0
1011,244.58332721875,244.89315627083332,41.0,94.0
1012,244.58332721875,244.90170327916667,65.0,92.0
1013,244.58332721875,244.92734430416667,53.0,89.0
1014,244.58332721875,244.95725883333333,57.0,90.0
1015,244.58332721875,244.9615323375,60.0,98.0
1016,245.09614771875,245.42734429166666,41.0,91.0
1017,245.09614771875,245.44016480416667,65.0,93.0
1018,245.09614771875,245.45298531666666,53.0,91.0
1019,245.09614771875,245.47007933333333,60.0,108.0
1020,245.09614771875,245.4743528375,57.0,98.0
1021,245.60896821875,245.95084855208333,41.0,92.0
1022,245.60896821875,245.95512205625,65.0,94.0
1023,245.60896821875,245.96580581666666,53.0,91.0
1024,245.60896821875,245.97862632916667,57.0,91.0
1025,245.60896821875,245.98931008958334,60.0,104.0
1026,246.12178871875,246.31623315833332,57.0,93.0
1027,246.12178871875,246.35042119166667,53.0,98.0
1028,246.12178871875,246.38674597708334,41.0,93.0
1029,246.12178871875,246.39101948125,60.0,104.0
1030,246.12178871875,246.41879725833334,65.0,91.0
1031,246.63460921875,246.96794254374998,42.0,93.0
1032,246.63460921875,246.97648955208334,39.0,88.0
1033,246.63460921875,246.98076305625,54.0,93.0
1034,246.63460921875,246.98931006458332,70.0,98.0
1035,246.63460921875,246.99785707291667,66.0,106.0
1036,246.63460921875,247.02349809791667,63.0,94.0
1037,247.14742971875,247.41452372916666,42.0,90.0
1038,247.14742971875,247.41452372916666,54.0,89.0
1039,247.14742971875,247.44443825833332,66.0,106.0
1040,247.14742971875,247.44443825833332,70.0,92.0
1041,247.14742971875,247.46794253125,63.0,94.0
1042,247.14742971875,247.4871733,39.0,100.0
1043,247.66025021875,247.82264337708332,70.0,91.0
1044,247.66025021875,247.83119038541668,42.0,91.0
1045,247.66025021875,247.83119038541668,54.0,90.0
1046,247.66025021875,247.85042115416667,66.0,109.0
1047,247.66025021875,247.86537841875,63.0,96.0
1048,247.66025021875,247.98289978333332,39.0,96.0
1049,248.17307071874998,248.37392541458334,39.0,94.0
1050,248.17307071874998,249.19871171875,53.0,91.0
1051,248.17307071874998,249.21580573541667,60.0,98.0
1052,248.17307071874998,249.22007923958333,41.0,88.0
1053,248.68589121875,249.22007923958333,41.0,91.0
1054,248.17307071874998,249.2435835125,65.0,114.0
1055,248.17307071874998,249.2435835125,69.0,102.0
1056,250.73717321875,251.59187405208334,65.0,92.0
1057,250.73717321875,251.67520738333332,62.0,94.0
1058,250.73717321875,251.67734413541666,58.0,91.0
1059,251.76281421875,252.48076291875,65.0,94.0
1060,251.76281421875,252.54486548124999,62.0,96.0
1061,251.76281421875,252.54700223333333,58.0,91.0
1062,252.53204496875,253.18802785833333,53.0,77.0
1063,252.78845521875,253.48503639791667,65.0,98.0
1064,252.78845521875,253.58546374583332,62.0,104.0
1065,252.78845521875,253.59828425833334,58.0,98.0
1066,250.73717321875,254.4615321,46.0,107.0
1067,253.55768596875,254.46794235625,53.0,81.0
1068,253.81409621875,254.54486543125,65.0,96.0
1069,253.81409621875,254.54700218333332,58.0,100.0
1070,253.81409621875,254.57050645625,62.0,108.0
1071,254.83973721875,255.64742950625,67.0,98.0
1072,254.83973721875,255.66879702708334,62.0,94.0
1073,254.83973721875,255.67307053125,58.0,93.0
1074,255.60896796875,256.5555491416667,55.0,80.0
1075,254.83973721875,256.6025576875,43.0,91.0
1076,255.86537821875,256.6281987125,67.0,94.0
1077,255.86537821875,256.6773440104167,58.0,98.0
1078,255.86537821875,256.68375426666665,62.0,102.0
1079,256.63460896875,256.9593952854167,50.0,83.0
1080,256.89101921875,257.6794807375,58.0,93.0
1081,256.89101921875,257.6794807375,67.0,91.0
1082,256.89101921875,257.69657475416665,62.0,92.0
1083,257.66024996875,258.10042089791665,55.0,98.0
1084,258.42948071874997,258.57050635625,55.0,87.0
1085,257.40383971875,258.59614738125,50.0,80.0
1086,256.89101921875,258.62606191041664,43.0,88.0
1087,257.91666021875,258.7820448125,58.0,107.0
1088,257.91666021875,258.79059182083336,67.0,96.0
1089,257.91666021875,258.8076858375,62.0,108.0
1090,258.94230121875,259.77136102708334,63.0,100.0
1091,258.94230121875,259.7841815395833,58.0,98.0
1092,258.94230121875,259.80127555625,67.0,93.0
1093,259.71153196875,260.2179422125,51.0,87.0
1094,258.94230121875,260.79700202708335,39.0,94.0
1095,259.96794221875,260.85042082916664,67.0,102.0
1096,259.96794221875,260.85255758125,63.0,107.0
1097,259.96794221875,260.86751484583334,58.0,107.0
1098,260.73717296875,261.0470020208333,51.0,83.0
1099,260.99358321875,261.80554901041666,63.0,110.0
1100,260.99358321875,261.80554901041666,67.0,107.0
1101,260.99358321875,261.8226430270833,58.0,107.0
1102,261.76281396875,262.16024985625,51.0,89.0
1103,262.01922421874997,262.5790532645833,58.0,107.0
1104,260.99358321875,262.7564036875,39.0,92.0
1105,262.01922421874997,262.7649506958333,67.0,98.0
1106,262.01922421874997,262.8611045395833,63.0,104.0
1107,262.53204471875,262.98076265625,51.0,85.0
1108,263.04486521875,263.80127545625,65.0,102.0
1109,263.04486521875,263.82691648125,60.0,113.0
1110,263.04486521875,263.84614725,57.0,98.0
1111,263.81409596875,264.18589083125,53.0,93.0
1112,263.04486521875,264.68375406666667,41.0,93.0
1113,264.07050621875,264.89315577083335,65.0,100.0
1114,264.07050621875,264.9337540604167,57.0,107.0
1115,264.07050621875,264.9358908125,60.0,114.0
1116,264.58332671875,264.97862585416664,53.0,74.0
1117,263.55768571875,265.11324123541664,48.0,65.0
1118,265.09614721875,265.69657455416666,57.0,92.0
1119,265.09614721875,265.69657455416666,65.0,93.0
1120,265.09614721875,265.7093950666667,60.0,107.0
1121,265.60896771875,265.98503608541665,53.0,114.0
1122,265.35255746875,265.99358309375,48.0,86.0
1123,266.12178821875,266.47221556041666,53.0,94.0
1124,265.86537796875,266.48503607291667,65.0,102.0
1125,265.86537796875,266.49144632916665,57.0,107.0
1126,265.86537796875,266.49571983333334,60.0,116.0
1127,266.63460871875,266.8931557208333,57.0,90.0
1128,266.37819846875,266.91238648958335,48.0,91.0
1129,266.63460871875,266.91452324166664,65.0,90.0
1130,265.09614721875,266.94657452291665,41.0,93.0
1131,266.63460871875,266.97862580416665,60.0,94.0
1132,266.89101896875,266.999993325,53.0,83.0
1133,267.14742921875,267.2222155416667,67.0,87.0
1134,267.91665996874997,268.28418132708333,50.0,104.0
1135,268.17307021875,268.8290531083333,65.0,102.0
1136,268.17307021875,268.8333266125,62.0,107.0
1137,268.17307021875,268.83546336458335,57.0,110.0
1138,267.14742921875,269.05768558125,38.0,104.0
1139,268.68589071875,269.256403525,50.0,87.0
1140,268.94230096875,270.01922401875,65.0,90.0
1141,268.94230096875,270.025634275,62.0,100.0
1142,268.94230096875,270.04486504375,57.0,93.0
1143,269.96794196875,270.2948650375,50.0,100.0
1144,269.19871121875,270.72221545416664,38.0,91.0
1145,270.22435221874997,270.8867453645833,65.0,107.0
1146,270.22435221874997,270.9743522,57.0,107.0
1147,270.22435221874997,271.09828382083333,62.0,113.0
1148,270.73717271875,271.2350359541667,50.0,96.0
1149,271.24999321875,271.89101884375,67.0,98.0
1150,271.24999321875,271.90597610833333,62.0,104.0
1151,271.24999321875,271.9081128604167,58.0,102.0
1152,272.01922396875,272.70939489166665,67.0,90.0
1153,272.01922396875,272.74999318125,58.0,92.0
1154,272.01922396875,272.75854018958336,62.0,96.0
1155,271.76281371875,272.93161710833334,50.0,64.0
1156,271.24999321875,273.1517025729167,43.0,89.0
1157,272.53204446875,273.1559760770833,55.0,86.0
1158,272.78845471875,273.8675145208333,67.0,87.0
1159,272.78845471875,273.87606152916663,58.0,87.0
1160,272.78845471875,273.8995658020833,62.0,87.0
1161,274.07050596875,274.6046939895833,67.0,92.0
1162,274.07050596875,274.61537775,58.0,92.0
1163,274.07050596875,274.62606151041666,62.0,98.0
1164,274.58332646875,274.9401640666667,55.0,88.0
1165,273.30127521875,274.948711075,43.0,107.0
1166,273.81409571874997,274.97007859583334,50.0,80.0
1167,274.83973671875,275.1773435479167,58.0,92.0
1168,274.83973671875,275.22221534166664,62.0,98.0
1169,274.83973671875,275.22648884583333,67.0,89.0
1170,275.35255721875,277.0021298270833,58.0,85.0
1171,275.35255721875,277.0106768354167,67.0,87.0
1172,275.35255721875,277.0149503395833,63.0,87.0
1173,275.35255721875,277.01708709166667,39.0,81.0
1174,275.35255721875,277.051275125,51.0,81.0
1175,277.40383921875,279.10683062916667,41.0,75.0
1176,277.40383921875,279.26708703541664,53.0,73.0
1177,277.40383921875,279.307685325,57.0,65.0
1178,277.40383921875,279.38674515208334,60.0,69.0
1179,277.40383921875,279.5512750625,65.0,72.0
1180,280.99358271875,281.09614681875,70.0,71.0
1181,280.99358271875,281.10469382708334,62.0,72.0
1182,280.48076221875,282.04272799166665,58.0,73.0
1183,279.96794171875,282.11324081041664,53.0,69.0
1184,279.45512121875,282.1196510666667,46.0,74.0
1185,283.5534117145833,285.1837535541667,39.0,77.0
1186,284.54486468125,285.49144585416667,51.0,74.0
1187,283.5534117145833,285.52136038333333,55.0,74.0
1188,283.5683689791667,285.52136038333333,63.0,70.0
1189,283.9914458916667,285.56195867291666,46.0,48.0
1190,286.13888173541665,288.0534116020833,48.0,70.0
1191,286.71366804583334,288.08332613125,65.0,70.0
1192,285.5363176479167,288.10683040416666,41.0,78.0
1193,286.72862531041665,288.11110390833335,53.0,38.0
1194,286.7158047979167,288.41452270416664,57.0,65.0
1195,291.7307619375,292.3205055125,69.0,38.0
1196,291.07477904791665,292.4828986708333,62.0,69.0
1197,292.36110380208333,292.52777046458334,72.0,66.0
1198,294.09828324583333,294.4615311,81.0,54.0
1199,290.5427277791667,294.46580460416664,58.0,66.0
1200,289.99144574166667,294.4850353729167,53.0,46.0
1201,293.45512086875,294.49144562916666,84.0,81.0
1202,292.95084737708333,294.50212938958333,74.0,69.0
1203,289.4743517375,294.51067639791665,46.0,78.0
