,start,end,pitch,velocity
0,19.95915003125,20.11737944375,68.0,102.0
1,20.233450918750002,20.36737954375,68.0,64.0
2,20.50130816875,21.12184413125,68.0,92.0
3,21.03702266875,21.20220130625,66.0,63.0
4,21.572737168750002,23.0392556125,66.0,90.0
5,23.179880668750002,23.41648790625,61.0,102.0
6,23.44773791875,23.6463987125,63.0,79.0
7,23.715595168750003,24.30488111875,64.0,93.0
8,24.779622456250003,25.18313100625,64.0,97.0
9,25.305937956250002,25.70506054375,66.0,100.0
10,25.83225345625,27.751112050000003,63.0,85.0
11,27.674357706250003,27.86295409375,56.0,81.0
12,27.937515456250004,28.367339781250003,61.0,96.0
13,28.463830956250003,28.705058893750003,63.0,92.0
14,28.72698870625,29.89146175,64.0,85.0
15,29.779619706250003,30.051549381250002,56.0,82.0
16,30.04277745625,30.584443825,61.0,99.0
17,30.569092956250003,30.786198100000004,63.0,93.0
18,30.83225070625,31.95067114375,64.0,95.0
19,32.148039456250004,32.529618193750004,68.0,117.0
20,32.67435495625,32.80812681250001,68.0,100.0
21,32.937512706250004,33.356372125,68.0,99.0
22,33.46382820625,33.64584565,66.0,102.0
23,33.99014370625,36.362949418750006,66.0,97.0
24,36.884878956250006,37.00768590625,68.0,92.0
25,37.148036706250004,37.25329980625,68.0,92.0
26,37.41119445625,37.85856263125,68.0,117.0
27,37.937509956250004,38.123913362500005,71.0,75.0
28,38.20066770625,38.78400071875,71.0,96.0
29,38.726983206250004,39.963824631250006,73.0,78.0
30,40.04277195625,40.31250865,70.0,122.0
31,40.30592970625,40.60417515625,71.0,85.0
32,40.56908745625,41.1151397875,73.0,102.0
33,41.09540295625,41.1151397875,73.0,112.0
34,41.35856070625,41.985753343750005,73.0,112.0
35,42.14803395625,42.58224424375,70.0,117.0
36,42.67434945625,43.21382284375,73.0,102.0
37,43.20066495625,44.053734662500005,71.0,97.0
38,44.25329595625,44.5449624625,61.0,96.0
39,44.516453706250005,44.7467167375,63.0,85.0
40,44.77961145625,45.292769068750005,64.0,97.0
41,45.305926956250005,45.61733029375,66.0,92.0
42,45.56908470625,46.52303155,68.0,96.0
43,46.62171570625,46.845399793750005,66.0,97.0
44,46.884873456250006,47.327855668750004,68.0,107.0
45,47.41118895625,47.95066234375,71.0,89.0
46,47.937504456250004,48.45943399375,75.0,112.0
47,48.99013545625,49.54715269375001,71.0,112.0
48,49.51645095625,51.584432275,73.0,112.0
49,52.41118620625,52.689694825000004,71.0,83.0
50,52.67434395625,52.90679996875,73.0,107.0
51,52.93750170625,53.224782250000004,78.0,99.0
52,53.20065945625,53.8344310375,75.0,112.0
53,53.726974956250004,53.8739047,73.0,90.0
54,53.99013270625,54.30592200625,73.0,102.0
55,54.516448206250004,55.0010970625,71.0,95.0
56,55.04276370625,56.28837705625,73.0,107.0
57,56.62171020625,56.74890311875,70.0,122.0
58,56.884867956250005,57.0624994375,70.0,107.0
59,57.14802570625,57.380481718750005,71.0,93.0
60,57.41118345625,58.0449550375,73.0,112.0
61,57.93749895625,58.0449550375,73.0,97.0
62,58.20065670625,58.5975863125,73.0,102.0
63,58.726972206250004,59.161182493750005,70.0,102.0
64,58.99012995625,59.46819986875,73.0,112.0
65,59.516445456250004,60.619515025,71.0,100.0
66,60.83223420625,61.09977791875,71.0,83.0
67,61.095391956250005,61.31469008125,73.0,117.0
68,61.35854970625,61.64802323125,78.0,99.0
69,61.62170745625,62.075654575,75.0,100.0
70,62.14802295625,62.279601831250005,73.0,93.0
71,62.41118070625,62.540566600000005,73.0,99.0
72,62.67433845625,63.0449522875,73.0,112.0
73,63.20065395625,63.68310983125,66.0,112.0
74,63.72696945625,64.15679378125,75.0,122.0
75,64.25328495625,64.41320392083334,73.0,95.0
76,64.51591370625,64.91145564583333,73.0,112.0
77,65.04038920625,65.32885073125,66.0,99.0
78,65.56486470625,67.81792404166667,75.0,122.0
79,69.23619320625001,69.47657781041667,71.0,93.0
80,69.49843095625,69.72133304375001,73.0,102.0
81,69.76066870625,69.98575610833333,78.0,100.0
82,70.02290645625,70.58671761875,75.0,102.0
83,70.54738195625,70.72657775208333,73.0,99.0
84,70.80961970625,71.12211969166667,73.0,107.0
85,71.33409520625,71.60070358541667,71.0,89.0
86,71.85857070625,73.18287134375001,73.0,102.0
87,73.43199720625,73.65708460833334,71.0,85.0
88,73.69423495625,73.90839578541667,70.0,102.0
89,73.95647270625,74.199042625,71.0,88.0
90,74.21871045625,74.79781882083333,78.0,100.0
91,75.00542370625,75.83365793333334,78.0,117.0
92,75.52989920625001,75.87517891041666,70.0,96.0
93,76.05437470625,76.52421734166667,73.0,112.0
94,76.57885020625,77.43112289375,71.0,92.0
95,77.62780120625,77.89440958541667,71.0,90.0
96,77.89003895625,78.12386761666667,73.0,112.0
97,78.15227670625,78.41669977083333,78.0,102.0
98,78.41451445625,79.01766128125,75.0,107.0
99,78.93898995625,79.09633260625,73.0,112.0
100,79.20122770625,79.61643747708334,73.0,112.0
101,79.72570320625,80.08190948333333,71.0,100.0
102,80.25017870625,80.71783602708334,71.0,100.0
103,80.77465420625,81.82141989166666,70.0,117.0
104,82.08584295625,82.4070842,68.0,100.0
105,82.34808070625,82.80918208333333,70.0,99.0
106,83.13479395625001,85.18243372083333,71.0,99.0
107,86.01940920625,86.20516094583334,71.0,90.0
108,86.28164695625,86.50236372916666,73.0,122.0
109,86.54388470625,86.80175182708334,78.0,117.0
110,86.80612245625,87.29126229375001,75.0,117.0
111,87.33059795625,87.44860494375,73.0,56.0
112,87.59283570625,87.99056296041667,73.0,127.0
113,88.11731120625001,88.48225874166667,71.0,107.0
114,88.64178670625,89.9988670625,73.0,127.0
115,90.21521320625,90.34196145208334,70.0,117.0
116,90.47745095625,90.68724115625,70.0,97.0
117,90.73968870625,91.05874463541667,71.0,92.0
118,91.00192645625,91.3887271375,73.0,127.0
119,91.52640195625,91.6247411125,73.0,122.0
120,91.78863970625,92.13391941041667,73.0,122.0
121,92.31311520625,92.73051029166666,70.0,127.0
122,92.83759070625,93.3817340375,73.0,127.0
123,93.36206620625,94.27115707291667,71.0,127.0
124,94.41101720625,94.59895426041666,71.0,93.0
125,94.67325495625,94.89397172916667,73.0,122.0
126,94.93549270625,95.22395423125,78.0,102.0
127,95.19773045625,95.73968847291667,75.0,107.0
128,95.72220595625001,95.85113951666666,73.0,72.0
129,95.98444370625,96.50891920625,73.0,127.0
130,96.77115695625,97.23225833333333,66.0,117.0
131,97.29563245624999,97.74362194583333,75.0,127.0
132,97.82010795625,98.06049256041666,73.0,127.0
133,98.08234570625001,98.41014289374999,66.0,112.0
134,98.86905895625,99.62524648750001,76.0,117.0
135,99.39498345625,100.99805275000001,75.0,127.0
136,102.81603420625001,103.04410425625001,71.0,92.0
137,103.07919195625001,103.30726200625001,73.0,122.0
138,103.34234970625,103.69322670625002,78.0,102.0
139,103.60550745625001,104.10112121875001,75.0,127.0
140,104.13182295625,104.2743667375,73.0,67.0
141,104.39498070625001,104.77655944375002,73.0,122.0
142,104.92129620625,105.20419078750001,71.0,99.0
143,105.44761170625002,106.05287453125001,75.0,122.0
144,105.97392720625001,106.81603200625001,73.0,127.0
145,107.02655820625,107.14059323125001,70.0,127.0
146,107.28971595625,107.50024215625001,70.0,107.0
147,107.55287370625001,107.81603145625002,71.0,99.0
148,107.81603145625002,108.24146981875,78.0,127.0
149,108.34234695625001,108.48050477500001,78.0,117.0
150,108.60550470625,109.01778518125,78.0,117.0
151,109.13182020625001,109.480504225,70.0,107.0
152,109.65813570625001,110.12524071250002,73.0,122.0
153,110.18445120625,111.18883661875,71.0,112.0
154,111.23708220625001,111.41909965,71.0,97.0
155,111.50023995625001,111.72392404375,73.0,122.0
156,111.76339770625,112.01559055000001,78.0,100.0
157,112.02655545625001,112.4410289125,75.0,117.0
158,112.55287095625,112.68444983125,73.0,90.0
159,112.81602870625001,113.28094073125001,73.0,127.0
160,113.34234420625,113.62962475,71.0,117.0
161,114.13181745625,114.673483825,71.0,102.0
162,114.65813295625001,116.00900940625002,70.0,122.0
163,116.23707945625,116.82041246875,68.0,117.0
164,116.76339495625001,117.23488592500001,70.0,96.0
165,117.28971045625,120.39935786875,71.0,93.0
166,153.37436458750003,153.65385401666668,73.0,83.0
167,153.63844908750002,153.8717237291667,75.0,107.0
168,153.90253358750002,154.19082583333335,80.0,99.0
169,154.1666180875,154.80262159166668,77.0,112.0
170,154.69478708750003,154.8421107,75.0,90.0
171,154.95833870625,155.27412800625,75.0,102.0
172,155.48465420625,155.96930306250002,73.0,95.0
173,156.01096970625002,157.25658305625,75.0,107.0
174,157.58991620625002,157.71710911875002,72.0,122.0
175,157.85307395625003,158.03070543750002,72.0,107.0
176,158.11623170625,158.34868771875003,73.0,93.0
177,158.37938945625,159.01316103750003,75.0,112.0
178,158.90570495625002,159.01316103750003,75.0,97.0
179,159.16886270625002,159.5657923125,75.0,102.0
180,159.69517820625,160.12938849375,72.0,102.0
181,159.95833595625,160.43640586875,75.0,112.0
182,160.48465145625002,161.587721025,73.0,100.0
183,161.80044020625002,162.06798391875,73.0,83.0
184,162.06359795625002,162.28289608125002,75.0,117.0
185,162.32675570625003,162.61622923125,80.0,99.0
186,162.58991345625,163.04386057500002,77.0,100.0
187,163.11622895625,163.24780783125001,75.0,93.0
188,163.37938670625002,163.50877260000001,75.0,99.0
189,163.64254445625002,164.0131582875,75.0,112.0
190,164.16885995625,164.65131583125,68.0,112.0
191,164.69517545625,165.12499978125,77.0,122.0
192,165.22149095625002,165.3815785875,75.0,95.0
193,165.48464870625003,165.8815783125,75.0,112.0
194,166.01096420625,166.30043773125,68.0,99.0
195,166.53727970625002,168.79824337500003,77.0,122.0
196,170.22148820625,170.46271614375001,73.0,93.0
197,170.48464595625,170.70833004375,75.0,102.0
198,170.74780370625,170.97368077500002,80.0,100.0
199,171.01096145625002,171.57675061875003,77.0,102.0
200,171.53727695625003,171.71710141875002,75.0,99.0
201,171.80043470625003,172.114031025,75.0,107.0
202,172.32675020625,172.59429391875003,73.0,89.0
203,172.85306570625002,174.18201234375002,75.0,102.0
204,174.43201220625002,174.657889275,73.0,85.0
205,174.69516995625003,174.91008211875,72.0,102.0
206,174.95832770625,175.20174862500002,73.0,88.0
207,175.22148545625,175.80262548750002,80.0,100.0
208,176.01095870625002,176.8420986,80.0,117.0
209,176.53727420625,176.88376524375002,72.0,96.0
210,177.06358970625,177.53508067500002,75.0,112.0
211,177.58990520625002,178.44516789375,73.0,92.0
212,178.64253620625,178.91007991875,73.0,90.0
213,178.90569395625002,179.14034295000002,75.0,112.0
214,179.16885170625002,179.4342024375,80.0,102.0
215,179.43200945625,180.03727228125,77.0,107.0
216,179.95832495625,180.11621960625,75.0,112.0
217,180.22148270625001,180.63814914375,75.0,112.0
218,180.74779820625002,181.10525415,73.0,100.0
219,181.27411370625,181.74341169375,73.0,100.0
220,181.80042920625002,182.850867225,72.0,117.0
221,183.11621795625,183.4385862,70.0,100.0
222,183.37937570625002,183.84209475,72.0,99.0
223,183.64253345625002,184.19297175000003,75.0,117.0
224,184.16884895625,184.91007661875003,73.0,117.0
225,184.95832220625002,185.19955014375,75.0,127.0
226,185.22147995625002,185.4517429875,73.0,127.0
227,185.48463770625003,186.96270706875,77.0,127.0
228,187.06358420625003,187.2499876125,73.0,90.0
229,187.32674195625003,187.5482330625,75.0,122.0
230,187.58989970625,187.84867149375003,80.0,117.0
231,187.85305745625,188.33989929375002,77.0,117.0
232,188.37937295625002,188.49779394375003,75.0,56.0
233,188.64253070625,189.04165329375002,75.0,127.0
234,189.16884620625,189.535074075,73.0,107.0
235,189.69516170625002,191.05700306250003,75.0,127.0
236,191.27410820625002,191.40130111875,72.0,117.0
237,191.53726595625002,191.74779215625,72.0,97.0
238,191.80042370625,192.12059896875002,73.0,92.0
239,192.06358145625,192.4517391375,75.0,127.0
240,192.58989695625002,192.6885811125,75.0,122.0
241,192.85305470625002,193.19954574375,75.0,122.0
242,193.37937020625003,193.798229625,72.0,127.0
243,193.90568570625,194.4517380375,75.0,127.0
244,194.43200120625002,195.34428140625002,73.0,127.0
245,195.48463220625,195.67322859375003,73.0,93.0
246,195.74778995625002,195.96928106250002,75.0,122.0
247,196.01094770625002,196.30042123125003,80.0,102.0
248,196.27410545625003,196.81796480625002,77.0,107.0
249,196.80042095625,196.92980685,75.0,72.0
250,197.06357870625,197.58989420625002,75.0,127.0
251,197.85305195625,198.315771,68.0,117.0
252,198.37936745625,198.82892861250002,77.0,127.0
253,198.90568295625002,199.14691089375,75.0,127.0
254,199.16884070625002,199.49778789375,68.0,112.0
255,199.95831395625,200.7148924875,78.0,117.0
256,200.48462945625002,202.08769875000002,77.0,127.0
257,203.90568020625,204.13375025625,73.0,92.0
258,204.16883795625,204.39690800625002,75.0,122.0
259,204.43199570625,204.78287270625003,80.0,102.0
260,204.69515345625,205.19076721875,77.0,127.0
261,205.22146895625002,205.36401273750002,75.0,67.0
262,205.48462670625003,205.86620544375,75.0,122.0
263,206.01094220625,206.29383678750003,73.0,99.0
264,206.53725770625002,207.14252053125,77.0,122.0
265,207.06357320625,207.90567800625,75.0,127.0
266,208.11620420625002,208.23023923125,72.0,127.0
267,208.37936195625002,208.58988815625003,72.0,107.0
268,208.64251970625003,208.90567745625,73.0,99.0
269,208.90567745625,209.33111581875002,80.0,127.0
270,209.43199295625,209.570150775,80.0,117.0
271,209.69515070625002,210.10743118125,80.0,117.0
272,210.22146620625,210.57015022500002,72.0,107.0
273,210.74778170625,211.2148867125,75.0,122.0
274,211.27409720625002,212.27848261875002,73.0,112.0
275,212.32672820625,212.50874565,73.0,97.0
276,212.58988595625001,212.81357004375002,75.0,122.0
277,212.85304370625002,213.10523655000003,80.0,100.0
278,213.11620145625002,213.53067491250002,77.0,117.0
279,213.64251695625,213.77409583125,75.0,90.0
280,213.90567470625,214.37058673125,75.0,127.0
281,214.43199020625002,214.71927075000002,73.0,117.0
282,215.22146345625,215.76312982500002,73.0,102.0
283,215.74777895625002,217.09865540625003,72.0,122.0
284,217.32672545625002,217.91005846875,70.0,117.0
285,217.85304095625003,218.32453192500003,72.0,96.0
286,218.37935645625,221.06795146875,73.0,93.0
287,220.76532005625,221.06795146875,73.0,81.0
288,221.03505675000002,221.34865306875002,75.0,90.0
289,221.36619691875,221.78944230000002,80.0,97.0
290,221.7543546,222.39470512500003,77.0,71.0
291,222.33549463125001,222.517512075,75.0,99.0
292,222.6447049875,223.3464589875,75.0,99.0
293,223.63812549375,224.28286198125,73.0,72.0
294,224.21487956250002,226.17540480000002,72.0,83.0
295,225.88373829375,226.75435185000003,70.0,88.0
296,226.77189570000002,227.39250939375,72.0,86.0
297,227.394702375,230.41882351875,73.0,100.0
