,start,end,pitch,velocity
0,1.30342750625,1.5453630062500001,68.0,97.0
1,1.5453630062500001,1.7872985062500002,73.0,99.0
2,1.7872985062500002,2.0292340062500003,75.0,88.0
3,2.0292340062500003,2.51310500625,76.0,107.0
4,2.51310500625,2.7550405062500003,75.0,117.0
5,2.7550405062500003,3.963709941666667,76.0,117.0
6,3.96471800625,4.448589006250001,76.0,122.0
7,4.448589006250001,4.69052450625,75.0,122.0
8,4.69052450625,5.657258441666667,73.0,99.0
9,5.65826650625,5.899193941666667,73.0,100.0
10,5.900202006250001,6.38407300625,73.0,107.0
11,6.38407300625,6.86794400625,71.0,95.0
12,6.86794400625,7.1189520875,66.0,99.0
13,7.10987950625,7.384073072916667,68.0,97.0
14,7.351815006250001,7.623992443750001,66.0,99.0
15,7.59375050625,9.044355441666667,68.0,93.0
16,9.04536350625,9.28729900625,68.0,97.0
17,9.28729900625,9.52923450625,73.0,93.0
18,9.52923450625,9.771170006250001,75.0,95.0
19,9.771170006250001,10.25504100625,76.0,100.0
20,10.25504100625,10.49697650625,75.0,112.0
21,10.49697650625,11.705645941666667,76.0,107.0
22,11.70665400625,12.19052500625,76.0,102.0
23,12.19052500625,12.43246050625,75.0,127.0
24,12.43246050625,13.399194441666667,73.0,100.0
25,13.40020250625,13.641129941666668,73.0,88.0
26,13.64213800625,14.126009006250001,73.0,99.0
27,14.126009006250001,14.60988000625,71.0,92.0
28,14.60988000625,15.09375100625,76.0,112.0
29,15.09375100625,15.335686506250001,75.0,127.0
30,15.335686506250001,16.78729950625,73.0,122.0
31,16.78729950625,17.02923500625,68.0,102.0
32,17.02923500625,17.27117050625,73.0,85.0
33,17.27117050625,17.513106006250002,75.0,100.0
34,17.513106006250002,17.996977006250003,76.0,107.0
35,17.996977006250003,18.23891250625,75.0,117.0
36,18.23891250625,19.447581941666666,76.0,117.0
37,19.44859000625,19.93246100625,76.0,122.0
38,19.93246100625,20.17439650625,75.0,122.0
39,20.17439650625,21.141130441666668,73.0,99.0
40,21.14213850625,21.38306594166667,73.0,100.0
41,21.38407400625,21.86794500625,73.0,107.0
42,21.86794500625,22.35181600625,71.0,95.0
43,22.35181600625,22.6028240875,66.0,99.0
44,22.59375150625,22.86794507291667,68.0,97.0
45,22.83568700625,23.10786444375,66.0,99.0
46,23.077622506250002,24.52822744166667,68.0,93.0
47,24.52923550625,24.77117100625,68.0,97.0
48,24.77117100625,25.01310650625,73.0,93.0
49,25.01310650625,25.25504200625,75.0,95.0
50,25.25504200625,25.73891300625,76.0,100.0
51,25.73891300625,25.980848506250002,75.0,112.0
52,25.980848506250002,27.18951794166667,76.0,107.0
53,27.19052600625,27.67439700625,76.0,102.0
54,27.67439700625,27.91633250625,75.0,127.0
55,27.91633250625,28.883066441666667,73.0,100.0
56,28.884074506250002,29.125001941666667,73.0,88.0
57,29.126010006250002,29.609881006250003,73.0,99.0
58,29.609881006250003,30.09375200625,71.0,96.0
59,30.09375200625,30.57762300625,76.0,107.0
60,30.57762300625,31.06149400625,75.0,122.0
61,31.06149400625,33.87097,73.0,107.0
62,67.83569000625,68.07762550625,73.0,107.0
63,68.07762550625,68.31956100625,75.0,92.0
64,68.31956100625,68.56149650625001,76.0,96.0
65,68.56149650625001,68.80343200625,73.0,93.0
66,68.80343200625,69.04536750625,75.0,83.0
67,69.04536750625,69.28730300625,76.0,99.0
68,69.28730300625,69.52923850625001,73.0,102.0
69,69.52923850625001,69.77117400625,75.0,93.0
70,69.77117400625,70.97984344166667,76.0,107.0
71,70.98085150625,71.10081119166666,76.0,122.0
72,71.10181925625001,71.22177894166667,76.0,88.0
73,71.22278700625,71.46472250625,76.0,99.0
74,71.46472250625,71.70564994166666,75.0,112.0
75,71.70665800625001,71.94859350625,75.0,127.0
76,71.94859350625,72.18952094166667,73.0,102.0
77,72.19052900625,72.43145644166667,73.0,102.0
78,72.43246450625,72.91633550625001,73.0,102.0
79,72.91633550625001,73.15827100625,71.0,95.0
80,73.15827100625,73.64214200625,66.0,95.0
81,73.64214200625,75.57762600625,68.0,100.0
82,75.57762600625,75.81956150625,73.0,102.0
83,75.81956150625,76.06149700625001,75.0,76.0
84,76.06149700625001,76.30343250625,76.0,97.0
85,76.30343250625,76.54536800625,73.0,86.0
86,76.54536800625,76.78730350625,75.0,76.0
87,76.78730350625,77.02923900625001,76.0,92.0
88,77.02923900625001,77.27117450625,73.0,82.0
89,77.27117450625,77.51311000625,75.0,86.0
90,77.51311000625,78.72177944166667,76.0,99.0
91,78.72278750625,78.84274719166667,76.0,93.0
92,78.84375525625,78.96371494166667,76.0,73.0
93,78.96472300625,79.20665850625001,76.0,88.0
94,79.20665850625001,79.44758594166667,75.0,112.0
95,79.44859400625,79.69052950625,75.0,96.0
96,79.69052950625,79.93145694166667,73.0,66.0
97,79.93246500625,80.17339244166666,73.0,86.0
98,80.17440050625001,80.65827150625,73.0,97.0
99,80.65827150625,80.90020700625,71.0,88.0
100,80.90020700625,81.38407800625001,78.0,112.0
101,81.38407800625001,83.31956200625001,80.0,102.0
102,83.31956200625001,83.56149750625,73.0,107.0
103,83.56149750625,83.80343300625,75.0,92.0
104,83.80343300625,84.04536850625,76.0,96.0
105,84.04536850625,84.28730400625001,73.0,93.0
106,84.28730400625001,84.52923950625001,75.0,83.0
107,84.52923950625001,84.77117500625,76.0,99.0
108,84.77117500625,85.01311050625,73.0,102.0
109,85.01311050625,85.25504600625,75.0,93.0
110,85.25504600625,86.46371544166666,76.0,107.0
111,86.46472350625001,86.58468319166667,76.0,122.0
112,86.58569125625,86.70565094166668,76.0,88.0
113,86.70665900625,86.94859450625,76.0,99.0
114,86.94859450625,87.18952194166667,75.0,112.0
115,87.19053000625,87.43246550625,75.0,127.0
116,87.43246550625,87.67339294166668,73.0,102.0
117,87.67440100625001,87.91532844166667,73.0,102.0
118,87.91633650625,88.40020750625,73.0,102.0
119,88.40020750625,88.64214300625001,71.0,95.0
120,88.64214300625001,89.12601400625,66.0,95.0
121,89.12601400625,91.06149800625,68.0,100.0
122,91.06149800625,91.30343350625,73.0,102.0
123,91.30343350625,91.54536900625,75.0,76.0
124,91.54536900625,91.78730450625001,76.0,97.0
125,91.78730450625001,92.02924000625,73.0,86.0
126,92.02924000625,92.27117550625,75.0,76.0
127,92.27117550625,92.51311100625,76.0,92.0
128,92.51311100625,92.75504650625001,73.0,82.0
129,92.75504650625001,92.99698200625001,75.0,86.0
130,92.99698200625001,94.20565144166667,76.0,99.0
131,94.20665950625,94.32661919166667,76.0,93.0
132,94.32762725625001,94.44758694166667,76.0,73.0
133,94.44859500625,94.69053050625,76.0,88.0
134,94.69053050625,94.93145794166666,75.0,112.0
135,94.93246600625001,95.17440150625,75.0,96.0
136,95.17440150625,95.41532894166667,73.0,66.0
137,95.41633700625,95.65726444166667,73.0,86.0
138,95.65827250625,96.14214350625001,73.0,97.0
139,96.14214350625001,96.38407900625,71.0,97.0
140,96.38407900625,96.86694194166667,73.0,102.0
141,96.86795000625,100.161297,73.0,100.0
142,151.06150200625,151.20767137083334,73.0,117.0
143,151.30343750625002,151.45968751666666,75.0,112.0
144,151.78730850625,152.78630050833334,76.0,102.0
145,152.99698600625,153.11896182083333,73.0,117.0
146,153.23892150625,153.40121990416668,75.0,99.0
147,153.72279250625002,154.52319578541668,69.0,90.0
148,155.17440550625,155.32964745208335,71.0,99.0
149,155.65827650625002,155.7580749,71.0,112.0
150,155.90021200625,156.10787331041666,71.0,99.0
151,156.38408300625,156.57359914791667,69.0,99.0
152,156.86795400625002,157.38710726666667,66.0,112.0
153,157.35182500625,157.47279275625002,68.0,72.0
154,157.59376050625002,158.60283315416666,68.0,102.0
155,158.80343800625002,158.92944607916667,73.0,122.0
156,159.16634125625,159.30948642708333,75.0,112.0
157,159.52924450625,160.33771230208333,76.0,112.0
158,160.73892200625002,160.86694620833333,73.0,122.0
159,160.98085750625,161.10081719166666,75.0,112.0
160,161.46472850625,162.21472855625,69.0,99.0
161,162.91634150625,163.16432539375,71.0,92.0
162,163.40021250625,163.5302528375,71.0,81.0
163,163.64214800625,163.97682544791667,71.0,89.0
164,164.12601900625,164.5705754875,71.0,95.0
165,164.60989000625,165.27924488958334,73.0,107.0
166,165.33569650625,166.42843851458335,73.0,112.0
167,166.78730950625,166.92843854791667,68.0,117.0
168,167.02924500625002,167.2681563125,69.0,89.0
169,167.27118050625,167.38005148125,71.0,88.0
170,167.51311600625002,167.87198699791668,71.0,97.0
171,167.99698700625,168.14013217708333,69.0,100.0
172,168.23892250625002,168.36694670833333,68.0,102.0
173,168.48085800625,168.79839835,66.0,97.0
174,168.96472900625,169.1552532125,64.0,90.0
175,169.20666450625,169.60384195208334,66.0,100.0
176,169.69053550625,170.07158391875,64.0,90.0
177,170.65827750625002,170.77521299791667,59.0,92.0
178,170.90021300625,171.10485011666668,59.0,81.0
179,171.14214850625,171.3326727125,61.0,89.0
180,171.38408400625002,171.6350920875,64.0,86.0
181,171.62601950625,171.810495325,66.0,102.0
182,171.86795500625,172.0342856625,68.0,112.0
183,172.10989050625,172.30142277708333,68.0,97.0
184,172.35182600625,172.72480990208334,69.0,96.0
185,173.07763250625,173.20565670833335,68.0,107.0
186,173.31956800625,174.1996083875,68.0,97.0
187,174.52924550625002,174.63509228750002,73.0,117.0
188,174.77118100625,174.9012213375,75.0,99.0
189,175.01311650625001,175.14416490208333,76.0,96.0
190,175.25505200625,175.35585846458335,73.0,97.0
191,175.49698750625,175.60182622291669,75.0,95.0
192,175.73892300625002,176.22279400625,76.0,99.0
193,176.22279400625,176.76210855833335,78.0,112.0
194,176.94860050625002,177.09577793541666,76.0,97.0
195,177.19053600625,177.48186667083334,76.0,89.0
196,178.40021350625,178.50101996458335,73.0,93.0
197,178.64214900625,178.75606030416668,73.0,93.0
198,178.88408450625002,179.01815709583335,73.0,96.0
199,179.12602000625,179.38408453958334,75.0,102.0
200,179.60989100625,179.80243134166668,76.0,112.0
201,180.09376200625002,180.19658459375,73.0,122.0
202,180.33569750625,180.43146364166668,73.0,112.0
203,180.57763300625,180.67944752916668,71.0,96.0
204,180.81956850625002,181.4385201604167,73.0,127.0
