,start,end,pitch,velocity
0,33.480849006250004,33.964720006250005,68.0,107.0
1,33.964720006250005,34.44859100625,73.0,107.0
2,34.44859100625,34.93246200625,75.0,122.0
3,34.93246200625,35.41633300625,76.0,117.0
4,35.41633300625,35.65826850625,75.0,122.0
5,35.65826850625,36.86693794166667,76.0,112.0
6,36.86794600625,37.35181700625,76.0,102.0
7,37.35181700625,37.59375250625,75.0,117.0
8,37.59375250625,38.56048644166667,73.0,99.0
9,38.56149450625,38.802421941666665,73.0,102.0
10,38.803430006250004,39.287301006250004,73.0,107.0
11,39.287301006250004,39.52822844166667,71.0,99.0
12,39.52923650625,40.01310750625,71.0,92.0
13,40.01310750625,40.49697850625,73.0,99.0
14,40.49697850625,41.947583441666666,68.0,93.0
15,41.948591506250004,42.19052700625,68.0,86.0
16,42.19052700625,42.432462506250005,73.0,35.0
17,42.432462506250005,42.67439800625,75.0,89.0
18,42.67439800625,43.15826900625,76.0,95.0
19,43.15826900625,43.40020450625,75.0,117.0
20,43.40020450625,44.608873941666666,76.0,107.0
21,44.609882006250004,45.093753006250004,76.0,117.0
22,45.093753006250004,45.33568850625,75.0,112.0
23,45.33568850625,46.54435794166667,73.0,107.0
24,46.54536600625,47.02923700625,73.0,127.0
25,47.02923700625,47.27016444166667,71.0,93.0
26,47.271172506250004,47.51310800625,71.0,86.0
27,47.51310800625,47.87601125625,76.0,99.0
28,47.87601125625,48.238914506250005,75.0,102.0
29,48.238914506250005,48.47984194166667,73.0,89.0
30,48.48085000625,50.416334006250004,73.0,112.0
31,50.416334006250004,50.899196941666666,76.0,100.0
32,50.900205006250005,51.14113244166667,76.0,97.0
33,51.14214050625,52.35181800625,76.0,107.0
34,52.35181800625,52.83568900625,75.0,102.0
35,52.83568900625,53.077624506250004,73.0,100.0
36,53.077624506250004,54.28730200625,71.0,95.0
37,54.28730200625,54.77117300625,73.0,102.0
38,54.77117300625,55.01210044166667,71.0,99.0
39,55.01310850625,55.49697950625,71.0,90.0
40,55.49697950625,55.98085050625,73.0,89.0
41,55.98085050625,58.15827000625,68.0,97.0
42,58.15827000625,58.64113294166667,76.0,89.0
43,58.64214100625,58.88306844166667,76.0,99.0
44,58.884076506250004,60.09375400625,76.0,112.0
45,60.09375400625,60.57762500625,80.0,117.0
46,60.57762500625,60.81855244166667,78.0,102.0
47,60.819560506250006,61.78730250625,78.0,122.0
48,61.78730250625,62.029238006250004,71.0,90.0
49,62.029238006250004,62.39113319166667,76.0,97.0
50,62.39214125625,62.75403644166667,76.0,97.0
51,62.75504450625,62.996980006250006,76.0,92.0
52,62.996980006250006,63.23891550625,78.0,127.0
53,63.23891550625,63.72177844166667,76.0,102.0
54,63.72278650625,63.96472200625,76.0,88.0
55,63.96472200625,65.806456,75.0,112.0
56,100.01311150625,100.25504700625001,68.0,95.0
57,100.25504700625001,100.50706315208333,73.0,96.0
58,100.49698250625,100.73891800625,75.0,100.0
59,100.73891800625,101.22278900625001,76.0,117.0
60,101.22278900625001,101.46472450625001,75.0,122.0
61,101.46472450625001,102.67339394166667,76.0,112.0
62,102.67440200625,103.15827300625,76.0,102.0
63,103.15827300625,103.40020850625001,75.0,117.0
64,102.67440200625,103.46774883333333,54.0,1.0
65,103.40020850625001,104.36694244166667,73.0,99.0
66,104.36795050625001,104.60887794166668,73.0,102.0
67,104.60988600625001,105.09375700625,73.0,107.0
68,105.09375700625,105.33468444166667,71.0,99.0
69,105.33569250625,105.81956350625,71.0,92.0
70,105.81956350625,106.30343450625,73.0,99.0
71,106.30343450625,107.75403944166668,68.0,93.0
72,107.75504750625001,107.99698300625,68.0,86.0
73,107.99698300625,108.23891850625,73.0,35.0
74,108.23891850625,108.48085400625,75.0,89.0
75,108.48085400625,108.96472500625,76.0,95.0
76,108.96472500625,109.20666050625,75.0,117.0
77,109.20666050625,110.41532994166667,76.0,107.0
78,110.41633800625,110.90020900625001,76.0,117.0
79,110.90020900625001,111.14214450625,75.0,112.0
80,111.14214450625,112.35081394166667,73.0,107.0
81,112.35182200625,112.83569300625001,73.0,127.0
82,112.83569300625001,113.07662044166668,71.0,93.0
83,113.07762850625001,113.31956400625,71.0,86.0
84,113.31956400625,113.68246725625,76.0,99.0
85,113.68246725625,114.04537050625001,75.0,102.0
86,114.04537050625001,114.28629794166667,73.0,89.0
87,114.28730600625,116.22279000625001,73.0,112.0
88,116.22279000625001,116.70565294166667,76.0,100.0
89,116.70666100625,116.94758844166667,76.0,97.0
90,116.94859650625,118.15827400625001,76.0,107.0
91,118.15827400625001,118.64214500625,75.0,102.0
92,118.64214500625,118.88408050625,73.0,100.0
93,118.88408050625,120.09375800625,71.0,95.0
94,120.09375800625,120.57762900625,73.0,102.0
95,120.57762900625,120.81855644166667,71.0,99.0
96,120.81956450625,121.30343550625001,71.0,90.0
97,121.30343550625001,121.78730650625,73.0,89.0
98,121.78730650625,123.96472600625,68.0,97.0
99,123.96472600625,124.44758894166667,76.0,89.0
100,124.44859700625001,124.68952444166668,76.0,99.0
101,124.69053250625001,125.90021000625,76.0,112.0
102,125.90021000625,126.38408100625,80.0,117.0
103,126.38408100625,126.62500844166668,78.0,102.0
104,126.62601650625001,127.59375850625001,78.0,122.0
105,127.59375850625001,127.83569400625001,71.0,90.0
106,127.83569400625001,128.19758919166668,76.0,97.0
107,128.19859725625,128.56049244166667,76.0,97.0
108,128.56150050625,128.80343600625,76.0,92.0
109,128.80343600625,129.04537150625,78.0,127.0
110,129.04537150625,129.52823444166668,76.0,102.0
111,129.52924250625,129.77117800625,76.0,88.0
112,129.77117800625,133.64214600625002,75.0,112.0
113,133.64214600625002,134.12500894166666,76.0,100.0
114,134.12601700625,134.36694444166667,76.0,97.0
115,134.36795250625002,135.57763000625002,76.0,107.0
116,135.57763000625002,136.06150100625,75.0,102.0
117,136.06150100625,136.30343650625,73.0,100.0
118,136.30343650625,137.51311400625002,71.0,95.0
119,137.51311400625002,137.99698500625001,73.0,102.0
120,137.99698500625001,138.23791244166668,71.0,99.0
121,138.23892050625,138.72279150625002,71.0,90.0
122,138.72279150625002,139.20666250625,73.0,89.0
123,139.20666250625,141.38408200625,68.0,97.0
124,141.38408200625,141.86694494166667,76.0,89.0
125,141.86795300625002,142.10888044166668,76.0,99.0
126,142.10988850625,143.31956600625,76.0,112.0
127,143.31956600625,143.80343700625,80.0,117.0
128,143.80343700625,144.0443644416667,78.0,102.0
129,144.04537250625,145.01311450625002,78.0,122.0
130,145.01311450625002,145.25505000625,71.0,90.0
131,145.25505000625,145.61694519166667,76.0,97.0
132,145.61795325625002,145.97984844166666,76.0,97.0
133,145.98085650625,146.22279200625002,76.0,92.0
134,146.22279200625002,146.46472750625,78.0,127.0
135,146.46472750625,146.94759044166668,76.0,102.0
136,146.94859850625,147.19053400625,76.0,88.0
137,147.19053400625,149.03226800000002,75.0,112.0
