,start,end,pitch,velocity
0,2.0292340062500003,2.578629204166667,37.0,69.0
1,2.0292340062500003,2.5806453333333335,49.0,85.0
2,2.51310500625,2.8135082520833334,61.0,92.0
3,2.7550405062500003,2.8356856729166666,37.0,70.0
4,2.7550405062500003,2.847782447916667,49.0,58.0
5,2.51310500625,2.911290516666667,64.0,78.0
6,2.99697600625,3.35987925625,37.0,57.0
7,2.99697600625,3.45967765,49.0,66.0
8,3.23891150625,3.5695566895833335,61.0,82.0
9,3.23891150625,3.5877018520833337,56.0,92.0
10,3.23891150625,3.5877018520833337,64.0,81.0
11,3.72278250625,3.8800405812500003,61.0,81.0
12,3.72278250625,3.9153228416666668,56.0,85.0
13,3.72278250625,3.98891155625,64.0,82.0
14,3.96471800625,4.571572885416667,45.0,82.0
15,4.69052450625,4.81451645,52.0,58.0
16,4.448589006250001,4.961693879166667,57.0,88.0
17,4.448589006250001,4.9879035583333335,61.0,92.0
18,4.448589006250001,5.010080979166667,64.0,83.0
19,4.93246000625,5.493951979166667,45.0,64.0
20,4.93246000625,5.506048754166667,52.0,60.0
21,5.174395506250001,5.550403595833334,57.0,77.0
22,5.174395506250001,5.5584681125,61.0,88.0
23,5.174395506250001,5.568548758333334,64.0,79.0
24,5.65826650625,5.865927810416667,64.0,72.0
25,5.65826650625,5.932460072916667,57.0,77.0
26,5.65826650625,5.9788310437500005,61.0,89.0
27,5.900202006250001,6.491935916666667,47.0,70.0
28,6.626008506250001,6.71673431875,47.0,55.0
29,6.626008506250001,6.738911739583334,54.0,69.0
30,6.38407300625,6.921371429166667,59.0,75.0
31,6.38407300625,6.933468204166667,66.0,85.0
32,6.38407300625,6.957661754166667,63.0,102.0
33,6.86794400625,7.225806933333334,54.0,83.0
34,6.86794400625,7.277218227083334,47.0,57.0
35,7.10987950625,7.464718239583334,59.0,78.0
36,7.10987950625,7.465726304166667,63.0,122.0
37,7.10987950625,7.4697585625,66.0,99.0
38,7.59375050625,7.794355358333334,66.0,88.0
39,7.59375050625,7.821573102083334,63.0,102.0
40,7.59375050625,7.85987955625,59.0,73.0
41,7.8356860062500004,8.366936041666667,52.0,93.0
42,7.8356860062500004,8.36794410625,40.0,65.0
43,8.56149250625,8.614919929166668,40.0,43.0
44,8.56149250625,8.6673392875,47.0,79.0
45,8.56149250625,8.680444127083334,52.0,66.0
46,8.319557006250001,8.88205704375,59.0,88.0
47,8.319557006250001,8.8850812375,68.0,97.0
48,8.319557006250001,8.897178012500001,64.0,88.0
49,8.80342800625,9.165323191666667,52.0,82.0
50,8.80342800625,9.191532870833333,47.0,78.0
51,8.80342800625,9.194557064583334,40.0,59.0
52,9.04536350625,9.376008689583333,68.0,92.0
53,9.04536350625,9.378024818750001,59.0,88.0
54,9.04536350625,9.388105464583333,64.0,89.0
55,9.52923450625,9.708670002083334,64.0,95.0
56,9.52923450625,9.717742583333333,59.0,78.0
57,9.52923450625,9.764113554166666,68.0,95.0
58,9.771170006250001,10.298387783333334,49.0,92.0
59,9.771170006250001,10.302420041666668,37.0,82.0
60,10.49697650625,10.563508768750001,37.0,58.0
61,10.49697650625,10.573589414583333,49.0,72.0
62,10.25504100625,10.6875007125,64.0,88.0
63,10.25504100625,10.762097491666667,61.0,96.0
64,10.25504100625,10.76915394375,68.0,93.0
65,10.73891200625,11.100807191666668,37.0,85.0
66,10.73891200625,11.251008814583335,49.0,88.0
67,10.98084750625,11.299395914583334,64.0,81.0
68,10.98084750625,11.309476560416668,61.0,92.0
69,10.98084750625,11.320565270833335,68.0,88.0
70,11.464718506250001,11.600807225,64.0,70.0
71,11.464718506250001,11.6310491625,68.0,85.0
72,11.464718506250001,11.681452391666667,61.0,95.0
73,11.70665400625,12.269154043750001,45.0,72.0
74,12.43246050625,12.527218577083334,52.0,43.0
75,12.43246050625,12.539315352083333,45.0,59.0
76,12.19052500625,12.729839558333333,64.0,83.0
77,12.19052500625,12.730847622916666,57.0,83.0
78,12.19052500625,12.738912139583334,61.0,93.0
79,12.674396006250001,13.107863777083335,45.0,63.0
80,12.674396006250001,13.143146037500001,52.0,74.0
81,12.916331506250001,13.27318636875,57.0,83.0
82,12.916331506250001,13.281250885416668,64.0,86.0
83,12.916331506250001,13.287299272916668,61.0,97.0
84,13.40020250625,13.603831552083333,64.0,75.0
85,13.40020250625,13.64213800625,57.0,76.0
86,13.40020250625,13.708670268750001,61.0,92.0
87,13.64213800625,14.18044449375,47.0,63.0
88,13.64213800625,14.200605785416668,54.0,61.0
89,14.367944506250002,14.448589672916667,47.0,49.0
90,14.367944506250002,14.478831610416668,54.0,82.0
91,14.126009006250001,14.6189525875,59.0,81.0
92,14.126009006250001,14.62197678125,66.0,92.0
93,14.126009006250001,14.640121943750001,63.0,100.0
94,14.60988000625,14.8971784125,54.0,100.0
95,14.60988000625,14.92742035,47.0,63.0
96,14.85181550625,15.216734885416667,66.0,93.0
97,14.85181550625,15.22076714375,63.0,100.0
98,14.85181550625,15.222783272916667,59.0,82.0
99,15.335686506250001,15.534275229166667,63.0,99.0
100,15.335686506250001,15.53528329375,59.0,71.0
101,15.335686506250001,15.557460714583334,66.0,88.0
102,15.577622006250001,16.16431559375,49.0,88.0
103,15.577622006250001,16.17238011041667,37.0,85.0
104,16.30342850625,16.392138189583335,49.0,72.0
105,16.30342850625,16.39415431875,37.0,72.0
106,16.06149300625,16.508065616666666,64.0,73.0
107,16.06149300625,16.563509168750002,68.0,78.0
108,16.06149300625,16.56552529791667,61.0,92.0
109,16.78729950625,17.119960818750002,68.0,90.0
110,16.78729950625,17.12500114166667,64.0,83.0
111,16.78729950625,17.12600920625,61.0,96.0
112,16.54536400625,17.140122110416666,49.0,78.0
113,16.54536400625,17.14919469166667,37.0,82.0
114,17.27117050625,17.49496084375,61.0,86.0
115,17.27117050625,17.498993102083332,64.0,74.0
116,17.27117050625,17.513106006250002,68.0,85.0
117,17.513106006250002,18.06250120416667,37.0,69.0
118,17.513106006250002,18.064517333333335,49.0,85.0
119,17.996977006250003,18.297380252083336,61.0,92.0
120,18.23891250625,18.319557672916666,37.0,70.0
121,18.23891250625,18.331654447916666,49.0,58.0
122,17.996977006250003,18.395162516666666,64.0,78.0
123,18.48084800625,18.843751256250002,37.0,57.0
124,18.48084800625,18.94354965,49.0,66.0
125,18.72278350625,19.053428689583335,61.0,82.0
126,18.72278350625,19.071573852083333,56.0,92.0
127,18.72278350625,19.071573852083333,64.0,81.0
128,19.20665450625,19.363912581250002,61.0,81.0
129,19.20665450625,19.399194841666667,56.0,85.0
130,19.20665450625,19.47278355625,64.0,82.0
131,19.44859000625,20.05544488541667,45.0,82.0
132,20.17439650625,20.29838845,52.0,58.0
133,19.93246100625,20.44556587916667,57.0,88.0
134,19.93246100625,20.471775558333334,61.0,92.0
135,19.93246100625,20.493952979166668,64.0,83.0
136,20.416332006250002,20.97782397916667,45.0,64.0
137,20.416332006250002,20.98992075416667,52.0,60.0
138,20.658267506250002,21.034275595833336,57.0,77.0
139,20.658267506250002,21.0423401125,61.0,88.0
140,20.658267506250002,21.052420758333334,64.0,79.0
141,21.14213850625,21.349799810416666,64.0,72.0
142,21.14213850625,21.416332072916667,57.0,77.0
143,21.14213850625,21.46270304375,61.0,89.0
144,21.38407400625,21.975807916666668,47.0,70.0
145,22.10988050625,22.20060631875,47.0,55.0
146,22.10988050625,22.222783739583335,54.0,69.0
147,21.86794500625,22.405243429166667,59.0,75.0
148,21.86794500625,22.417340204166667,66.0,85.0
149,21.86794500625,22.441533754166667,63.0,102.0
150,22.35181600625,22.709678933333336,54.0,83.0
151,22.35181600625,22.761090227083333,47.0,57.0
152,22.59375150625,22.948590239583336,59.0,78.0
153,22.59375150625,22.949598304166667,63.0,122.0
154,22.59375150625,22.953630562500003,66.0,99.0
155,23.077622506250002,23.278227358333336,66.0,88.0
156,23.077622506250002,23.305445102083336,63.0,102.0
157,23.077622506250002,23.34375155625,59.0,73.0
158,23.319558006250002,23.850808041666667,52.0,93.0
159,23.319558006250002,23.851816106250002,40.0,65.0
160,24.04536450625,24.09879192916667,40.0,43.0
161,24.04536450625,24.1512112875,47.0,79.0
162,24.04536450625,24.164316127083335,52.0,66.0
163,23.803429006250003,24.36592904375,59.0,88.0
164,23.803429006250003,24.3689532375,68.0,97.0
165,23.803429006250003,24.3810500125,64.0,88.0
166,24.28730000625,24.649195191666667,52.0,82.0
167,24.28730000625,24.675404870833333,47.0,78.0
168,24.28730000625,24.678429064583334,40.0,59.0
169,24.52923550625,24.859880689583335,68.0,92.0
170,24.52923550625,24.86189681875,59.0,88.0
171,24.52923550625,24.871977464583335,64.0,89.0
172,25.01310650625,25.192542002083336,64.0,95.0
173,25.01310650625,25.201614583333335,59.0,78.0
174,25.01310650625,25.247985554166668,68.0,95.0
175,25.25504200625,25.782259783333334,49.0,92.0
176,25.25504200625,25.78629204166667,37.0,82.0
177,25.980848506250002,26.047380768750003,37.0,58.0
178,25.980848506250002,26.057461414583333,49.0,72.0
179,25.73891300625,26.171372712500002,64.0,88.0
180,25.73891300625,26.245969491666667,61.0,96.0
181,25.73891300625,26.25302594375,68.0,93.0
182,26.222784006250002,26.58467919166667,37.0,85.0
183,26.222784006250002,26.734880814583335,49.0,88.0
184,26.464719506250002,26.783267914583334,64.0,81.0
185,26.464719506250002,26.793348560416668,61.0,92.0
186,26.464719506250002,26.804437270833336,68.0,88.0
187,26.948590506250003,27.084679225000002,64.0,70.0
188,26.948590506250003,27.1149211625,68.0,85.0
189,26.948590506250003,27.16532439166667,61.0,95.0
190,27.19052600625,27.75302604375,45.0,72.0
191,27.91633250625,28.011090577083333,52.0,43.0
192,27.91633250625,28.023187352083333,45.0,59.0
193,27.67439700625,28.213711558333333,64.0,83.0
194,27.67439700625,28.214719622916668,57.0,83.0
195,27.67439700625,28.222784139583336,61.0,93.0
196,28.15826800625,28.591735777083336,45.0,63.0
197,28.15826800625,28.6270180375,52.0,74.0
198,28.40020350625,28.757058368750002,57.0,83.0
199,28.40020350625,28.76512288541667,64.0,86.0
200,28.40020350625,28.771171272916668,61.0,97.0
201,28.884074506250002,29.087703552083333,64.0,75.0
202,28.884074506250002,29.126010006250002,57.0,76.0
203,28.884074506250002,29.192542268750003,61.0,92.0
204,29.126010006250002,29.66431649375,47.0,63.0
205,29.126010006250002,29.684477785416668,54.0,61.0
206,29.851816506250003,29.932461672916666,47.0,49.0
207,29.851816506250003,29.962703610416668,54.0,82.0
208,29.609881006250003,30.102824587500002,59.0,81.0
209,29.609881006250003,30.10584878125,66.0,92.0
210,29.609881006250003,30.12399394375,63.0,100.0
211,30.09375200625,30.381050412500002,54.0,100.0
212,30.09375200625,30.41129235,47.0,63.0
213,30.33568750625,30.70060688541667,66.0,93.0
214,30.33568750625,30.70463914375,63.0,100.0
215,30.33568750625,30.706655272916667,59.0,82.0
216,30.81955850625,31.01814722916667,63.0,99.0
217,30.81955850625,31.01915529375,59.0,71.0
218,30.81955850625,31.041332714583334,66.0,88.0
219,31.06149400625,34.625002308333336,37.0,81.0
220,31.06149400625,34.63508295416667,64.0,72.0
221,31.06149400625,34.6391152125,61.0,86.0
222,31.06149400625,34.6633087625,68.0,54.0
223,31.06149400625,34.75605070416667,49.0,79.0
224,34.93246200625,35.479841075,37.0,93.0
225,35.65826850625,35.7278249625,49.0,59.0
226,35.65826850625,35.74294593125,37.0,63.0
227,35.41633300625,35.92439755625,68.0,88.0
228,35.41633300625,35.93044594375,64.0,82.0
229,35.41633300625,35.94859110625,61.0,93.0
230,35.90020400625,36.27722016041667,37.0,72.0
231,35.90020400625,36.42742178333334,49.0,72.0
232,36.142139506250004,36.49092985208333,68.0,62.0
233,36.142139506250004,36.5020185625,64.0,67.0
234,36.142139506250004,36.51512340208333,61.0,78.0
235,36.626010506250005,36.77016374166667,64.0,73.0
236,36.626010506250005,36.78226051666667,68.0,83.0
237,36.626010506250005,36.852825037500004,61.0,90.0
238,36.86794600625,37.4576637875,45.0,72.0
239,37.59375250625,37.68246218958333,45.0,48.0
240,37.59375250625,37.69859122291667,52.0,56.0
241,37.35181700625,37.966736402083335,57.0,81.0
242,37.35181700625,37.992946081250004,61.0,86.0
243,37.35181700625,37.996978339583336,64.0,85.0
244,37.83568800625,38.48790579166667,45.0,59.0
245,37.83568800625,38.48891385625,52.0,82.0
246,38.07762350625,38.825607427083334,64.0,81.0
247,38.07762350625,38.8366961375,57.0,88.0
248,38.07762350625,38.8487929125,61.0,89.0
249,38.803430006250004,39.399196175,47.0,81.0
250,39.52923650625,39.5987929625,47.0,42.0
251,39.52923650625,39.62802683541667,54.0,72.0
252,39.287301006250004,39.77722039375,59.0,74.0
253,39.287301006250004,39.791333297916665,63.0,93.0
254,39.287301006250004,39.794357491666666,66.0,83.0
255,39.771172006250005,40.00000266666667,54.0,88.0
256,39.771172006250005,40.06351073541667,47.0,63.0
257,40.01310750625,40.37197849791667,59.0,78.0
258,40.01310750625,40.376010756250004,66.0,97.0
259,40.01310750625,40.38105107916667,63.0,100.0
260,40.49697850625,40.76512368541667,59.0,76.0
261,40.49697850625,40.77117207291667,63.0,89.0
262,40.73891400625,41.30343017291667,40.0,56.0
263,40.73891400625,41.32157533541667,52.0,58.0
264,40.73891400625,41.334680175,47.0,66.0
265,41.46472050625,41.53730115625,47.0,66.0
266,41.46472050625,41.53931728541667,52.0,62.0
267,41.22278500625,41.69657536041667,59.0,82.0
268,41.22278500625,41.70867213541667,68.0,85.0
269,41.22278500625,41.717744716666665,64.0,89.0
270,41.70665600625,42.01915602708333,52.0,72.0
271,41.70665600625,42.03427699583334,40.0,61.0
272,41.70665600625,42.03830925416667,47.0,77.0
273,41.948591506250004,42.327623789583335,59.0,95.0
274,41.948591506250004,42.328631854166666,68.0,102.0
275,41.948591506250004,42.33669637083334,64.0,99.0
276,42.432462506250005,42.70463994375,59.0,85.0
277,42.432462506250005,42.705648008333334,64.0,90.0
278,42.432462506250005,42.77318833541667,68.0,89.0
279,42.67439800625,43.26915611041667,37.0,78.0
280,42.67439800625,43.27822869166667,49.0,72.0
281,43.40020450625,43.48992225416667,37.0,69.0
282,43.40020450625,43.48992225416667,49.0,75.0
283,43.15826900625,43.51310773958333,64.0,69.0
284,43.15826900625,43.51512386875,68.0,96.0
285,43.15826900625,43.69052710625,61.0,96.0
286,43.64214000625,44.116938425,37.0,89.0
287,43.88407550625,44.21774488333334,68.0,96.0
288,43.88407550625,44.22379327083333,64.0,89.0
289,43.64214000625,44.2258094,49.0,72.0
290,43.88407550625,44.226817464583334,61.0,100.0
291,44.36794650625,44.516132,68.0,89.0
292,44.36794650625,44.529236839583334,64.0,85.0
293,44.36794650625,44.59677716666667,61.0,96.0
294,44.609882006250004,45.221777208333336,45.0,75.0
295,45.33568850625,45.44355141666667,45.0,41.0
296,45.33568850625,45.44959980416667,52.0,59.0
297,45.093753006250004,45.66330949583334,57.0,86.0
298,45.093753006250004,45.68851111041667,61.0,93.0
299,45.093753006250004,45.6955675625,64.0,83.0
300,45.81955950625,46.14617243125,57.0,86.0
301,45.81955950625,46.15121275416667,61.0,92.0
302,45.81955950625,46.15423694791667,64.0,79.0
303,45.577624006250005,46.29738211875,45.0,57.0
304,45.577624006250005,46.36593051041667,52.0,76.0
305,46.30343050625,46.462704710416666,64.0,78.0
306,46.30343050625,46.54536600625,57.0,82.0
307,46.30343050625,46.58972084791667,61.0,97.0
308,46.54536600625,47.050406362500006,47.0,74.0
309,47.271172506250004,47.38810799791667,47.0,89.0
310,47.02923700625,47.53629349166667,59.0,77.0
311,47.02923700625,47.53730155625,66.0,96.0
312,47.02923700625,47.5463741375,63.0,100.0
313,47.51310800625,47.82157576875,47.0,69.0
314,47.755043506250004,48.06955965625,59.0,75.0
315,47.755043506250004,48.07762417291667,66.0,92.0
316,47.755043506250004,48.083672560416666,63.0,102.0
317,48.238914506250005,48.45564839166667,63.0,107.0
318,48.238914506250005,48.47984194166667,59.0,83.0
319,48.238914506250005,48.48185807083333,66.0,92.0
320,48.48085000625,49.048390366666666,49.0,66.0
321,48.48085000625,49.05645488333334,37.0,86.0
322,49.20665650625,49.29032586666667,49.0,67.0
323,49.20665650625,49.29738231875,37.0,78.0
324,48.96472100625,49.439519425,64.0,81.0
325,48.96472100625,49.44758394166667,68.0,90.0
326,48.96472100625,49.454640393750005,61.0,90.0
327,49.69052750625,50.02722107708333,68.0,86.0
328,49.69052750625,50.033269464583334,61.0,93.0
329,49.69052750625,50.035285593750004,64.0,83.0
330,49.44859200625,50.22984205833333,49.0,68.0
331,49.44859200625,50.23689851041667,37.0,73.0
332,50.17439850625,50.37802755208334,64.0,81.0
333,50.17439850625,50.37903561666667,68.0,85.0
334,50.17439850625,50.387100133333334,61.0,95.0
335,50.416334006250004,50.528229175,61.0,67.0
336,50.416334006250004,50.53024530416667,57.0,67.0
337,50.416334006250004,50.53931788541667,64.0,69.0
338,50.416334006250004,50.9939550125,33.0,82.0
339,50.416334006250004,50.994963077083334,45.0,100.0
340,51.14214050625,51.2358905125,45.0,86.0
341,51.14214050625,51.25101148125,33.0,72.0
342,50.900205006250005,51.42439858958333,57.0,82.0
343,50.900205006250005,51.431455041666666,64.0,81.0
344,50.900205006250005,51.4415356875,61.0,93.0
345,51.384076006250005,51.82157603541667,33.0,72.0
346,51.62601150625,51.941535720833336,57.0,100.0
347,51.62601150625,51.94556797916667,64.0,95.0
348,51.62601150625,51.95262443125,61.0,117.0
349,51.384076006250005,51.96673733541667,45.0,83.0
350,52.10988250625,52.292342195833335,64.0,90.0
351,52.10988250625,52.33770510208333,57.0,95.0
352,52.10988250625,52.41431801041667,61.0,122.0
353,52.83568900625,53.102826120833335,66.0,112.0
354,52.83568900625,53.11593096041667,63.0,122.0
355,52.83568900625,53.11794708958334,59.0,85.0
356,52.35181800625,53.19960032083333,35.0,58.0
357,52.35181800625,53.210689031250006,47.0,93.0
358,53.31956000625,53.411293883333336,47.0,88.0
359,53.31956000625,53.41633420625,35.0,56.0
360,53.19859225625,53.528229375,63.0,107.0
361,53.19859225625,53.536293891666666,59.0,77.0
362,53.19859225625,53.536293891666666,66.0,97.0
363,53.561495506250004,54.03427779583333,47.0,92.0
364,53.561495506250004,54.0907294125,35.0,73.0
365,53.80343100625,54.25605200416667,66.0,102.0
366,53.80343100625,54.25806813333334,63.0,127.0
367,53.80343100625,54.299398781250005,59.0,90.0
368,54.28730200625,54.78427784583334,33.0,68.0
369,54.28730200625,54.799398814583334,45.0,81.0
370,54.77117300625,55.09576980208334,64.0,85.0
371,54.77117300625,55.09879399583333,61.0,93.0
372,54.77117300625,55.106858512500004,57.0,85.0
373,55.134076256250005,55.27520529791667,64.0,97.0
374,55.134076256250005,55.28125368541667,61.0,127.0
375,55.134076256250005,55.286294008333336,57.0,97.0
376,55.25504400625,55.593753706250006,33.0,69.0
377,55.25504400625,55.6028262875,45.0,78.0
378,55.49697950625,55.8084714625,64.0,90.0
379,55.49697950625,55.81149565625,57.0,89.0
380,55.49697950625,55.82560856041667,61.0,99.0
381,55.98085050625,56.141132775,64.0,90.0
382,55.98085050625,56.151213420833336,57.0,93.0
383,55.98085050625,56.21068923125,61.0,112.0
384,56.706657006250005,56.984882831250005,59.0,81.0
385,56.706657006250005,56.98992315416667,68.0,86.0
386,56.706657006250005,57.00101186458333,64.0,88.0
387,56.706657006250005,57.109882839583335,52.0,25.0
388,56.222786006250004,57.12903606666667,40.0,89.0
389,57.190528006250005,57.288310270833335,52.0,86.0
390,57.190528006250005,57.3084715625,40.0,63.0
391,57.06956025625,57.45060866875,59.0,83.0
392,57.06956025625,57.460689314583334,68.0,92.0
393,57.06956025625,57.464721572916666,64.0,92.0
394,57.43246350625,57.722786106250005,52.0,83.0
395,57.674399006250006,57.750003850000006,59.0,88.0
396,57.43246350625,57.798390950000005,40.0,63.0
397,57.674399006250006,58.04536677291667,68.0,107.0
398,57.674399006250006,58.050407095833336,64.0,99.0
399,57.91633450625,58.18649581458334,59.0,90.0
400,58.64214100625,58.912302314583336,64.0,82.0
401,58.64214100625,58.92439908958334,57.0,81.0
402,58.64214100625,58.93447973541667,61.0,93.0
403,58.15827000625,58.9778265125,33.0,72.0
404,58.15827000625,58.97984264166667,45.0,90.0
405,59.00504425625,59.25000395,57.0,69.0
406,59.00504425625,59.25907653125,61.0,73.0
407,59.00504425625,59.265124918750004,64.0,75.0
408,59.12601200625,59.50302816041667,33.0,62.0
409,59.12601200625,59.62601203958334,45.0,86.0
410,59.367947506250005,59.724802368750005,64.0,86.0
411,59.367947506250005,59.727826562500006,57.0,79.0
412,59.367947506250005,59.72883462708334,61.0,96.0
413,59.851818506250005,60.05947981041667,64.0,90.0
414,59.851818506250005,60.09879432916667,57.0,90.0
415,59.851818506250005,60.154237881250005,61.0,117.0
416,60.57762500625,60.85484276666667,66.0,90.0
417,60.57762500625,60.85585083125,59.0,82.0
418,60.57762500625,60.861899218750004,63.0,93.0
419,60.09375400625,60.931455675,35.0,83.0
420,60.09375400625,60.93246373958333,47.0,100.0
421,60.940528256250005,61.116939558333335,59.0,83.0
422,60.940528256250005,61.119963752083336,66.0,92.0
423,60.940528256250005,61.12298794583334,63.0,90.0
424,61.06149600625,61.57460087916667,35.0,69.0
425,61.06149600625,61.575608943750005,47.0,79.0
426,61.30343150625,61.584681525,63.0,99.0
427,61.30343150625,61.59274604166667,66.0,100.0
428,61.30343150625,61.594762170833334,59.0,92.0
429,61.78730250625,61.99496381041667,66.0,97.0
430,61.78730250625,62.002020262500004,63.0,112.0
431,61.78730250625,62.048391233333334,59.0,92.0
432,62.513109006250005,62.75706063541667,57.0,89.0
433,62.513109006250005,62.76109289375,64.0,89.0
434,62.513109006250005,62.77117353958334,61.0,97.0
435,62.029238006250004,62.95060903541667,45.0,89.0
436,62.87601225625,63.03831065416667,57.0,82.0
437,62.87601225625,63.045367106250005,61.0,95.0
438,62.87601225625,63.05948001041667,64.0,89.0
439,62.996980006250006,63.21068969791667,45.0,65.0
440,62.029238006250004,63.25000421666667,33.0,70.0
441,63.23891550625,63.523189718750004,61.0,107.0
442,63.23891550625,63.53629455833334,64.0,92.0
443,63.23891550625,63.53730262291667,57.0,89.0
444,63.72278650625,63.8649236125,57.0,88.0
445,63.96472200625,64.30443977083334,63.0,102.0
446,63.96472200625,64.31653654583333,60.0,97.0
447,63.96472200625,64.3366978375,56.0,102.0
448,64.44859300625001,64.58871398333334,60.0,93.0
449,63.96472200625,64.5967785,44.0,72.0
450,64.44859300625001,64.5967785,63.0,86.0
451,64.44859300625001,64.60383495208333,56.0,85.0
452,64.69052850625,64.9657301375,60.0,99.0
453,64.69052850625,64.96976239583334,56.0,93.0
454,64.69052850625,64.99093175208334,63.0,89.0
455,64.93246400625,65.15323015,51.0,20.0
456,64.81149625625001,65.17641563541667,44.0,36.0
457,65.17439950625,65.47581081666667,60.0,100.0
458,65.17439950625,65.49698017291666,63.0,95.0
459,65.17439950625,65.504036625,56.0,97.0
460,65.41633500625001,65.73891567291668,51.0,78.0
461,65.65827050625,65.75504470625,63.0,70.0
462,65.41633500625001,65.7580689,44.0,95.0
463,65.65827050625,65.7580689,60.0,96.0
464,65.65827050625,65.78125438541667,56.0,90.0
465,65.90020600625,66.22077054375,63.0,92.0
466,65.90020600625,66.22278667291667,60.0,92.0
467,65.90020600625,66.24496409375,56.0,96.0
468,65.90020600625,66.47681894791667,44.0,46.0
469,66.38407700625001,66.49395604583334,60.0,90.0
470,66.38407700625001,66.50504475625,56.0,82.0
471,66.38407700625001,66.50504475625,63.0,63.0
472,66.62601250625,66.77016574166667,60.0,117.0
473,66.62601250625,66.80847219583333,63.0,96.0
474,66.62601250625,66.88810929791667,56.0,97.0
475,67.10988350625,67.23185932083334,60.0,100.0
476,66.62601250625,67.258069,44.0,75.0
477,67.10988350625,67.42339159166667,63.0,97.0
478,67.10988350625,67.43044804375,56.0,89.0
479,67.35181900625,67.79133516458333,44.0,89.0
480,67.59375450625001,67.83669807083334,60.0,102.0
481,67.59375450625001,67.86189968541667,56.0,92.0
482,67.59375450625001,67.86391581458334,63.0,96.0
483,67.83569000625,68.38508520416667,37.0,69.0
484,67.83569000625,68.38710133333333,49.0,85.0
485,68.31956100625,68.61996425208334,61.0,92.0
486,68.56149650625001,68.64214167291667,37.0,70.0
487,68.56149650625001,68.65423844791667,49.0,58.0
488,68.31956100625,68.71774651666667,64.0,78.0
489,68.80343200625,69.16633525625001,37.0,57.0
490,68.80343200625,69.26613365,49.0,66.0
491,69.04536750625,69.37601268958333,61.0,82.0
492,69.04536750625,69.39415785208334,56.0,92.0
493,69.04536750625,69.39415785208334,64.0,81.0
494,69.52923850625001,69.68649658125,61.0,81.0
495,69.52923850625001,69.72177884166668,56.0,85.0
496,69.52923850625001,69.79536755625,64.0,82.0
497,69.77117400625,70.37802888541667,45.0,82.0
498,70.49698050625,70.62097245,52.0,58.0
499,70.25504500625,70.76814987916667,57.0,88.0
500,70.25504500625,70.79435955833334,61.0,92.0
501,70.25504500625,70.81653697916667,64.0,83.0
502,70.73891600625001,71.30040797916666,45.0,64.0
503,70.73891600625001,71.31250475416667,52.0,60.0
504,70.98085150625,71.35685959583334,57.0,77.0
505,70.98085150625,71.3649241125,61.0,88.0
506,70.98085150625,71.37500475833333,64.0,79.0
507,71.46472250625,71.67238381041668,64.0,72.0
508,71.46472250625,71.73891607291667,57.0,77.0
509,71.46472250625,71.78528704375,61.0,89.0
510,71.70665800625001,72.29839191666667,47.0,70.0
511,72.43246450625,72.52319031875,47.0,55.0
512,72.43246450625,72.54536773958334,54.0,69.0
513,72.19052900625,72.72782742916667,59.0,75.0
514,72.19052900625,72.73992420416667,66.0,85.0
515,72.19052900625,72.76411775416668,63.0,102.0
516,72.67440000625,73.03226293333334,54.0,83.0
517,72.67440000625,73.08367422708334,47.0,57.0
518,72.91633550625001,73.27117423958333,59.0,78.0
519,72.91633550625001,73.27218230416668,63.0,122.0
520,72.91633550625001,73.2762145625,66.0,99.0
521,73.40020650625,73.60081135833333,66.0,88.0
522,73.40020650625,73.62802910208333,63.0,102.0
523,73.40020650625,73.66633555625,59.0,73.0
524,73.64214200625,74.17339204166667,52.0,93.0
525,73.64214200625,74.17440010625,40.0,65.0
526,74.36794850625,74.42137592916667,40.0,43.0
527,74.36794850625,74.47379528750001,47.0,79.0
528,74.36794850625,74.48690012708333,52.0,66.0
529,74.12601300625,74.68851304375,59.0,88.0
530,74.12601300625,74.6915372375,68.0,97.0
531,74.12601300625,74.7036340125,64.0,88.0
532,74.60988400625,74.97177919166667,52.0,82.0
533,74.60988400625,74.99798887083334,47.0,78.0
534,74.60988400625,75.00101306458333,40.0,59.0
535,74.85181950625001,75.18246468958334,68.0,92.0
536,74.85181950625001,75.18448081875,59.0,88.0
537,74.85181950625001,75.19456146458333,64.0,89.0
538,75.33569050625,75.51512600208333,64.0,95.0
539,75.33569050625,75.52419858333333,59.0,78.0
540,75.33569050625,75.57056955416667,68.0,95.0
541,75.57762600625,76.10484378333334,49.0,92.0
542,75.57762600625,76.10887604166668,37.0,82.0
543,76.30343250625,76.36996476875001,37.0,58.0
544,76.30343250625,76.38004541458334,49.0,72.0
545,76.06149700625001,76.49395671250001,64.0,88.0
546,76.06149700625001,76.56855349166668,61.0,96.0
547,76.06149700625001,76.57560994375001,68.0,93.0
548,76.54536800625,76.90726319166667,37.0,85.0
549,76.54536800625,77.05746481458334,49.0,88.0
550,76.78730350625,77.10585191458334,64.0,81.0
551,76.78730350625,77.11593256041667,61.0,92.0
552,76.78730350625,77.12702127083334,68.0,88.0
553,77.27117450625,77.40726322500001,64.0,70.0
554,77.27117450625,77.4375051625,68.0,85.0
555,77.27117450625,77.48790839166666,61.0,95.0
556,77.51311000625,78.07561004375,45.0,72.0
557,78.23891650625,78.33367457708334,52.0,43.0
558,78.23891650625,78.34577135208333,45.0,59.0
559,77.99698100625001,78.53629555833334,64.0,83.0
560,77.99698100625001,78.53730362291667,57.0,83.0
561,77.99698100625001,78.54536813958333,61.0,93.0
562,78.48085200625,78.91431977708334,45.0,63.0
563,78.48085200625,78.9496020375,52.0,74.0
564,78.72278750625,79.07964236875,57.0,83.0
565,78.72278750625,79.08770688541667,64.0,86.0
566,78.72278750625,79.09375527291667,61.0,97.0
567,79.20665850625001,79.41028755208333,64.0,75.0
568,79.20665850625001,79.44859400625,57.0,76.0
569,79.20665850625001,79.51512626875001,61.0,92.0
570,79.44859400625,79.98690049375,47.0,63.0
571,79.44859400625,80.00706178541667,54.0,61.0
572,80.17440050625001,80.25504567291667,47.0,49.0
573,80.17440050625001,80.28528761041667,54.0,82.0
574,79.93246500625,80.4254085875,59.0,81.0
575,79.93246500625,80.42843278125001,66.0,92.0
576,79.93246500625,80.44657794375,63.0,100.0
577,80.41633600625,80.70363441250001,54.0,100.0
578,80.41633600625,80.73387635,47.0,63.0
579,80.65827150625,81.02319088541667,66.0,93.0
580,80.65827150625,81.02722314375,63.0,100.0
581,80.65827150625,81.02923927291667,59.0,82.0
582,81.14214250625001,81.34073122916666,63.0,99.0
583,81.14214250625001,81.34173929375001,59.0,71.0
584,81.14214250625001,81.36391671458334,66.0,88.0
585,81.38407800625001,81.97077159375,49.0,88.0
586,81.38407800625001,81.97883611041667,37.0,85.0
587,82.10988450625,82.19859418958333,49.0,72.0
588,82.10988450625,82.20061031875001,37.0,72.0
589,81.86794900625,82.31452161666667,64.0,73.0
590,81.86794900625,82.36996516875,68.0,78.0
591,81.86794900625,82.37198129791668,61.0,92.0
592,82.59375550625,82.92641681875,68.0,90.0
593,82.59375550625,82.93145714166667,64.0,83.0
594,82.59375550625,82.93246520625,61.0,96.0
595,82.35182000625001,82.94657811041667,49.0,78.0
596,82.35182000625001,82.95565069166668,37.0,82.0
597,83.07762650625,83.30141684375,61.0,86.0
598,83.07762650625,83.30544910208334,64.0,74.0
599,83.07762650625,83.31956200625001,68.0,85.0
600,83.31956200625001,83.86895720416668,37.0,69.0
601,83.31956200625001,83.87097333333334,49.0,85.0
602,83.80343300625,84.10383625208334,61.0,92.0
603,84.04536850625,84.12601367291667,37.0,70.0
604,84.04536850625,84.13811044791667,49.0,58.0
605,83.80343300625,84.20161851666667,64.0,78.0
606,84.28730400625001,84.65020725625,37.0,57.0
607,84.28730400625001,84.75000565,49.0,66.0
608,84.52923950625001,84.85988468958334,61.0,82.0
609,84.52923950625001,84.87802985208334,56.0,92.0
610,84.52923950625001,84.87802985208334,64.0,81.0
611,85.01311050625,85.17036858125,61.0,81.0
612,85.01311050625,85.20565084166667,56.0,85.0
613,85.01311050625,85.27923955625,64.0,82.0
614,85.25504600625,85.86190088541667,45.0,82.0
615,85.98085250625,86.10484445,52.0,58.0
616,85.73891700625,86.25202187916668,57.0,88.0
617,85.73891700625,86.27823155833333,61.0,92.0
618,85.73891700625,86.30040897916668,64.0,83.0
619,86.22278800625,86.78427997916667,45.0,64.0
620,86.22278800625,86.79637675416667,52.0,60.0
621,86.46472350625001,86.84073159583333,57.0,77.0
622,86.46472350625001,86.84879611250001,61.0,88.0
623,86.46472350625001,86.85887675833334,64.0,79.0
624,86.94859450625,87.15625581041667,64.0,72.0
625,86.94859450625,87.22278807291667,57.0,77.0
626,86.94859450625,87.26915904375001,61.0,89.0
627,87.19053000625,87.78226391666666,47.0,70.0
628,87.91633650625,88.00706231875,47.0,55.0
629,87.91633650625,88.02923973958333,54.0,69.0
630,87.67440100625001,88.21169942916667,59.0,75.0
631,87.67440100625001,88.22379620416667,66.0,85.0
632,87.67440100625001,88.24798975416667,63.0,102.0
633,88.15827200625,88.51613493333333,54.0,83.0
634,88.15827200625,88.56754622708334,47.0,57.0
635,88.40020750625,88.75504623958334,59.0,78.0
636,88.40020750625,88.75605430416667,63.0,122.0
637,88.40020750625,88.7600865625,66.0,99.0
638,88.88407850625,89.08468335833334,66.0,88.0
639,88.88407850625,89.11190110208334,63.0,102.0
640,88.88407850625,89.15020755625001,59.0,73.0
641,89.12601400625,89.65726404166666,52.0,93.0
642,89.12601400625,89.65827210625001,40.0,65.0
643,89.85182050625001,89.90524792916668,40.0,43.0
644,89.85182050625001,89.9576672875,47.0,79.0
645,89.85182050625001,89.97077212708334,52.0,66.0
646,89.60988500625001,90.17238504375,59.0,88.0
647,89.60988500625001,90.1754092375,68.0,97.0
648,89.60988500625001,90.18750601250001,64.0,88.0
649,90.09375600625,90.45565119166668,52.0,82.0
650,90.09375600625,90.48186087083334,47.0,78.0
651,90.09375600625,90.48488506458334,40.0,59.0
652,90.33569150625,90.66633668958333,68.0,92.0
653,90.33569150625,90.66835281875001,59.0,88.0
654,90.33569150625,90.67843346458334,64.0,89.0
655,90.81956250625001,90.99899800208334,64.0,95.0
656,90.81956250625001,91.00807058333334,59.0,78.0
657,90.81956250625001,91.05444155416667,68.0,95.0
658,91.06149800625,91.58871578333334,49.0,92.0
659,91.06149800625,91.59274804166667,37.0,82.0
660,91.78730450625001,91.85383676875,37.0,58.0
661,91.78730450625001,91.86391741458334,49.0,72.0
662,91.54536900625,91.9778287125,64.0,88.0
663,91.54536900625,92.05242549166667,61.0,96.0
664,91.54536900625,92.05948194375,68.0,93.0
665,92.02924000625,92.39113519166668,37.0,85.0
666,92.02924000625,92.54133681458333,49.0,88.0
667,92.27117550625,92.58972391458333,64.0,81.0
668,92.27117550625,92.59980456041667,61.0,92.0
669,92.27117550625,92.61089327083334,68.0,88.0
670,92.75504650625001,92.891135225,64.0,70.0
671,92.75504650625001,92.92137716250001,68.0,85.0
672,92.75504650625001,92.97178039166667,61.0,95.0
673,92.99698200625001,93.55948204375001,45.0,72.0
674,93.72278850625,93.81754657708333,52.0,43.0
675,93.72278850625,93.82964335208334,45.0,59.0
676,93.48085300625,94.02016755833334,64.0,83.0
677,93.48085300625,94.02117562291667,57.0,83.0
678,93.48085300625,94.02924013958334,61.0,93.0
679,93.96472400625001,94.39819177708334,45.0,63.0
680,93.96472400625001,94.4334740375,52.0,74.0
681,94.20665950625,94.56351436875,57.0,83.0
682,94.20665950625,94.57157888541667,64.0,86.0
683,94.20665950625,94.57762727291667,61.0,97.0
684,94.69053050625,94.89415955208334,64.0,75.0
685,94.69053050625,94.93246600625001,57.0,76.0
686,94.69053050625,94.99899826875,61.0,92.0
687,94.93246600625001,95.47077249375,47.0,63.0
688,94.93246600625001,95.49093378541667,54.0,61.0
689,95.65827250625,95.73891767291667,47.0,49.0
690,95.65827250625,95.76915961041666,54.0,82.0
691,95.41633700625,95.9092805875,59.0,81.0
692,95.41633700625,95.91230478125,66.0,92.0
693,95.41633700625,95.93044994375,63.0,100.0
694,95.90020800625001,96.1875064125,54.0,100.0
695,95.90020800625001,96.21774835000001,47.0,63.0
696,96.14214350625001,96.50706288541667,66.0,93.0
697,96.14214350625001,96.51109514375,63.0,100.0
698,96.14214350625001,96.51311127291667,59.0,82.0
699,96.62601450625,96.82460322916667,63.0,99.0
700,96.62601450625,96.82561129375,59.0,71.0
701,96.62601450625,96.84778871458334,66.0,88.0
702,96.86795000625,100.43145830833333,37.0,81.0
703,96.86795000625,100.44153895416667,64.0,72.0
704,96.86795000625,100.4455712125,61.0,86.0
705,96.86795000625,100.4697647625,68.0,54.0
706,96.86795000625,100.56250670416667,49.0,79.0
707,100.73891800625,101.28629707500001,37.0,93.0
708,101.46472450625001,101.5342809625,49.0,59.0
709,101.46472450625001,101.54940193125,37.0,63.0
710,101.22278900625001,101.73085355625001,68.0,88.0
711,101.22278900625001,101.73690194375,64.0,82.0
712,101.22278900625001,101.75504710625,61.0,93.0
713,101.70666000625,102.08367616041667,37.0,72.0
714,101.70666000625,102.23387778333334,49.0,72.0
715,101.94859550625,102.29738585208334,68.0,62.0
716,101.94859550625,102.30847456250001,64.0,67.0
717,101.94859550625,102.32157940208334,61.0,78.0
718,102.43246650625001,102.57661974166668,64.0,73.0
719,102.43246650625001,102.58871651666666,68.0,83.0
720,102.43246650625001,102.65928103750001,61.0,90.0
721,102.67440200625,103.26411978750001,45.0,72.0
722,103.40020850625001,103.48891818958334,45.0,48.0
723,103.40020850625001,103.50504722291667,52.0,56.0
724,103.15827300625,103.77319240208334,57.0,81.0
725,103.15827300625,103.79940208125001,61.0,86.0
726,103.15827300625,103.80343433958333,64.0,85.0
727,103.64214400625,104.29436179166667,45.0,59.0
728,103.64214400625,104.29536985625,52.0,82.0
729,103.88407950625,104.63206342708334,64.0,81.0
730,103.88407950625,104.64315213750001,57.0,88.0
731,103.88407950625,104.6552489125,61.0,89.0
732,104.60988600625001,105.20565217500001,47.0,81.0
733,105.33569250625,105.40524896250001,47.0,42.0
734,105.33569250625,105.43448283541667,54.0,72.0
735,105.09375700625,105.58367639375001,59.0,74.0
736,105.09375700625,105.59778929791668,63.0,93.0
737,105.09375700625,105.60081349166667,66.0,83.0
738,105.57762800625001,105.80645866666667,54.0,88.0
739,105.57762800625001,105.86996673541667,47.0,63.0
740,105.81956350625,106.17843449791667,59.0,78.0
741,105.81956350625,106.18246675625001,66.0,97.0
742,105.81956350625,106.18750707916668,63.0,100.0
743,106.30343450625,106.57157968541667,59.0,76.0
744,106.30343450625,106.57762807291667,63.0,89.0
745,106.54537000625001,107.10988617291667,40.0,56.0
746,106.54537000625001,107.12803133541667,52.0,58.0
747,106.54537000625001,107.141136175,47.0,66.0
748,107.27117650625,107.34375715625,47.0,66.0
749,107.27117650625,107.34577328541667,52.0,62.0
750,107.02924100625,107.50303136041667,59.0,82.0
751,107.02924100625,107.51512813541667,68.0,85.0
752,107.02924100625,107.52420071666667,64.0,89.0
753,107.51311200625001,107.82561202708334,52.0,72.0
754,107.51311200625001,107.84073299583333,40.0,61.0
755,107.51311200625001,107.84476525416667,47.0,77.0
756,107.75504750625001,108.13407978958334,59.0,95.0
757,107.75504750625001,108.13508785416667,68.0,102.0
758,107.75504750625001,108.14315237083333,64.0,99.0
759,108.23891850625,108.51109594375001,59.0,85.0
760,108.23891850625,108.51210400833334,64.0,90.0
761,108.23891850625,108.57964433541667,68.0,89.0
762,108.48085400625,109.07561211041667,37.0,78.0
763,108.48085400625,109.08468469166667,49.0,72.0
764,109.20666050625,109.29637825416667,37.0,69.0
765,109.20666050625,109.29637825416667,49.0,75.0
766,108.96472500625,109.31956373958334,64.0,69.0
767,108.96472500625,109.32157986875,68.0,96.0
768,108.96472500625,109.49698310625,61.0,96.0
769,109.44859600625,109.92339442500001,37.0,89.0
770,109.69053150625001,110.02420088333334,68.0,96.0
771,109.69053150625001,110.03024927083334,64.0,89.0
772,109.44859600625,110.0322654,49.0,72.0
773,109.69053150625001,110.03327346458335,61.0,100.0
774,110.17440250625,110.32258800000001,68.0,89.0
775,110.17440250625,110.33569283958334,64.0,85.0
776,110.17440250625,110.40323316666667,61.0,96.0
777,110.41633800625,111.02823320833333,45.0,75.0
778,111.14214450625,111.25000741666668,45.0,41.0
779,111.14214450625,111.25605580416668,52.0,59.0
780,110.90020900625001,111.46976549583334,57.0,86.0
781,110.90020900625001,111.49496711041667,61.0,93.0
782,110.90020900625001,111.5020235625,64.0,83.0
783,111.62601550625,111.95262843125,57.0,86.0
784,111.62601550625,111.95766875416668,61.0,92.0
785,111.62601550625,111.96069294791667,64.0,79.0
786,111.38408000625,112.10383811875,45.0,57.0
787,111.38408000625,112.17238651041667,52.0,76.0
788,112.10988650625,112.26916071041667,64.0,78.0
789,112.10988650625,112.35182200625,57.0,82.0
790,112.10988650625,112.39617684791668,61.0,97.0
791,112.35182200625,112.85686236250001,47.0,74.0
792,113.07762850625001,113.19456399791667,47.0,89.0
793,112.83569300625001,113.34274949166667,59.0,77.0
794,112.83569300625001,113.34375755625001,66.0,96.0
795,112.83569300625001,113.3528301375,63.0,100.0
796,113.31956400625,113.62803176875,47.0,69.0
797,113.56149950625,113.87601565625,59.0,75.0
798,113.56149950625,113.88408017291667,66.0,92.0
799,113.56149950625,113.89012856041667,63.0,102.0
800,114.04537050625001,114.26210439166667,63.0,107.0
801,114.04537050625001,114.28629794166667,59.0,83.0
802,114.04537050625001,114.28831407083334,66.0,92.0
803,114.28730600625,114.85484636666668,49.0,66.0
804,114.28730600625,114.86291088333334,37.0,86.0
805,115.01311250625001,115.09678186666667,49.0,67.0
806,115.01311250625001,115.10383831875001,37.0,78.0
807,114.77117700625,115.24597542500001,64.0,81.0
808,114.77117700625,115.25403994166668,68.0,90.0
809,114.77117700625,115.26109639375001,61.0,90.0
810,115.49698350625,115.83367707708334,68.0,86.0
811,115.49698350625,115.83972546458334,61.0,93.0
812,115.49698350625,115.84174159375,64.0,83.0
813,115.25504800625001,116.03629805833334,49.0,68.0
814,115.25504800625001,116.04335451041668,37.0,73.0
815,115.98085450625001,116.18448355208334,64.0,81.0
816,115.98085450625001,116.18549161666667,68.0,85.0
817,115.98085450625001,116.19355613333335,61.0,95.0
818,116.22279000625001,116.334685175,61.0,67.0
819,116.22279000625001,116.33670130416667,57.0,67.0
820,116.22279000625001,116.34577388541668,64.0,69.0
821,116.22279000625001,116.8004110125,33.0,82.0
822,116.22279000625001,116.80141907708334,45.0,100.0
823,116.94859650625,117.0423465125,45.0,86.0
824,116.94859650625,117.05746748125,33.0,72.0
825,116.70666100625,117.23085458958334,57.0,82.0
826,116.70666100625,117.23791104166668,64.0,81.0
827,116.70666100625,117.2479916875,61.0,93.0
828,117.19053200625001,117.62803203541667,33.0,72.0
829,117.43246750625,117.74799172083334,57.0,100.0
830,117.43246750625,117.75202397916667,64.0,95.0
831,117.43246750625,117.75908043125001,61.0,117.0
832,117.19053200625001,117.77319333541668,45.0,83.0
833,117.91633850625,118.09879819583334,64.0,90.0
834,117.91633850625,118.14416110208334,57.0,95.0
835,117.91633850625,118.22077401041668,61.0,122.0
836,118.64214500625,118.90928212083334,66.0,112.0
837,118.64214500625,118.92238696041667,63.0,122.0
838,118.64214500625,118.92440308958334,59.0,85.0
839,118.15827400625001,119.00605632083334,35.0,58.0
840,118.15827400625001,119.01714503125001,47.0,93.0
841,119.12601600625001,119.21774988333334,47.0,88.0
842,119.12601600625001,119.22279020625001,35.0,56.0
843,119.00504825625,119.334685375,63.0,107.0
844,119.00504825625,119.34274989166667,59.0,77.0
845,119.00504825625,119.34274989166667,66.0,97.0
846,119.36795150625001,119.84073379583334,47.0,92.0
847,119.36795150625001,119.89718541250001,35.0,73.0
848,119.60988700625,120.06250800416667,66.0,102.0
849,119.60988700625,120.06452413333334,63.0,127.0
850,119.60988700625,120.10585478125,59.0,90.0
851,120.09375800625,120.59073384583334,33.0,68.0
852,120.09375800625,120.60585481458334,45.0,81.0
853,120.57762900625,120.90222580208334,64.0,85.0
854,120.57762900625,120.90524999583334,61.0,93.0
855,120.57762900625,120.91331451250001,57.0,85.0
856,120.94053225625001,121.08166129791667,64.0,97.0
857,120.94053225625001,121.08770968541667,61.0,127.0
858,120.94053225625001,121.09275000833334,57.0,97.0
859,121.06150000625,121.40020970625001,33.0,69.0
860,121.06150000625,121.4092822875,45.0,78.0
861,121.30343550625001,121.6149274625,64.0,90.0
862,121.30343550625001,121.61795165625,57.0,89.0
863,121.30343550625001,121.63206456041667,61.0,99.0
864,121.78730650625,121.947588775,64.0,90.0
865,121.78730650625,121.95766942083334,57.0,93.0
866,121.78730650625,122.01714523125001,61.0,112.0
867,122.51311300625001,122.79133883125,59.0,81.0
868,122.51311300625001,122.79637915416667,68.0,86.0
869,122.51311300625001,122.80746786458334,64.0,88.0
870,122.51311300625001,122.91633883958333,52.0,25.0
871,122.02924200625,122.93549206666667,40.0,89.0
872,122.99698400625,123.09476627083333,52.0,86.0
873,122.99698400625,123.1149275625,40.0,63.0
874,122.87601625625001,123.25706466875,59.0,83.0
875,122.87601625625001,123.26714531458335,68.0,92.0
876,122.87601625625001,123.27117757291667,64.0,92.0
877,123.23891950625,123.52924210625001,52.0,83.0
878,123.48085500625001,123.55645985000001,59.0,88.0
879,123.23891950625,123.60484695000001,40.0,63.0
880,123.48085500625001,123.85182277291668,68.0,107.0
881,123.48085500625001,123.85686309583333,64.0,99.0
882,123.72279050625,123.99295181458334,59.0,90.0
883,124.44859700625001,124.71875831458334,64.0,82.0
884,124.44859700625001,124.73085508958334,57.0,81.0
885,124.44859700625001,124.74093573541667,61.0,93.0
886,123.96472600625,124.7842825125,33.0,72.0
887,123.96472600625,124.78629864166668,45.0,90.0
888,124.81150025625,125.05645995,57.0,69.0
889,124.81150025625,125.06553253125,61.0,73.0
890,124.81150025625,125.07158091875,64.0,75.0
891,124.93246800625,125.30948416041667,33.0,62.0
892,124.93246800625,125.43246803958334,45.0,86.0
893,125.17440350625,125.53125836875,64.0,86.0
894,125.17440350625,125.53428256250001,57.0,79.0
895,125.17440350625,125.53529062708334,61.0,96.0
896,125.65827450625001,125.86593581041667,64.0,90.0
897,125.65827450625001,125.90525032916668,57.0,90.0
898,125.65827450625001,125.96069388125001,61.0,117.0
899,126.38408100625,126.66129876666668,66.0,90.0
900,126.38408100625,126.66230683125,59.0,82.0
901,126.38408100625,126.66835521875001,63.0,93.0
902,125.90021000625,126.737911675,35.0,83.0
903,125.90021000625,126.73891973958334,47.0,100.0
904,126.74698425625,126.92339555833334,59.0,83.0
905,126.74698425625,126.92641975208333,66.0,92.0
906,126.74698425625,126.92944394583334,63.0,90.0
907,126.86795200625001,127.38105687916668,35.0,69.0
908,126.86795200625001,127.38206494375001,47.0,79.0
909,127.10988750625,127.391137525,63.0,99.0
910,127.10988750625,127.39920204166667,66.0,100.0
911,127.10988750625,127.40121817083335,59.0,92.0
912,127.59375850625001,127.80141981041668,66.0,97.0
913,127.59375850625001,127.80847626250001,63.0,112.0
914,127.59375850625001,127.85484723333335,59.0,92.0
915,128.31956500625,128.56351663541668,57.0,89.0
916,128.31956500625,128.56754889375,64.0,89.0
917,128.31956500625,128.57762953958334,61.0,97.0
918,127.83569400625001,128.75706503541667,45.0,89.0
919,128.68246825625002,128.84476665416668,57.0,82.0
920,128.68246825625002,128.85182310625,61.0,95.0
921,128.68246825625002,128.86593601041668,64.0,89.0
922,128.80343600625,129.01714569791667,45.0,65.0
923,127.83569400625001,129.05646021666666,33.0,70.0
924,129.04537150625,129.32964571875002,61.0,107.0
925,129.04537150625,129.34275055833334,64.0,92.0
926,129.04537150625,129.34375862291668,57.0,89.0
927,129.52924250625,129.6713796125,57.0,88.0
928,129.77117800625,130.11089577083334,63.0,102.0
929,129.77117800625,130.12299254583334,60.0,97.0
930,129.77117800625,130.1431538375,56.0,102.0
931,130.25504900625,130.39516998333335,60.0,93.0
932,129.77117800625,130.4032345,44.0,72.0
933,130.25504900625,130.4032345,63.0,86.0
934,130.25504900625,130.41029095208333,56.0,85.0
935,130.49698450625002,130.7721861375,60.0,99.0
936,130.49698450625002,130.77621839583335,56.0,93.0
937,130.49698450625002,130.79738775208335,63.0,89.0
938,130.73892000625,130.95968615,51.0,20.0
939,130.61795225625,130.98287163541667,44.0,36.0
940,130.98085550625,131.28226681666666,60.0,100.0
941,130.98085550625,131.30343617291666,63.0,95.0
942,130.98085550625,131.310492625,56.0,97.0
943,131.22279100625002,131.54537167291667,51.0,78.0
944,131.46472650625,131.56150070625,63.0,70.0
945,131.22279100625002,131.5645249,44.0,95.0
946,131.46472650625,131.5645249,60.0,96.0
947,131.46472650625,131.58771038541667,56.0,90.0
948,131.70666200625,132.02722654375,63.0,92.0
949,131.70666200625,132.02924267291667,60.0,92.0
950,131.70666200625,132.05142009375,56.0,96.0
951,131.70666200625,132.28327494791668,44.0,46.0
952,132.19053300625,132.30041204583333,60.0,90.0
953,132.19053300625,132.31150075625,56.0,82.0
954,132.19053300625,132.31150075625,63.0,63.0
955,132.43246850625002,132.57662174166668,60.0,117.0
956,132.43246850625002,132.61492819583333,63.0,96.0
957,132.43246850625002,132.69456529791668,56.0,97.0
958,132.91633950625,133.03831532083333,60.0,100.0
959,132.43246850625002,133.064525,44.0,75.0
960,132.91633950625,133.22984759166667,63.0,97.0
961,132.91633950625,133.23690404375,56.0,89.0
962,133.15827500625,133.59779116458333,44.0,89.0
963,133.40021050625,133.64315407083333,60.0,102.0
964,133.40021050625,133.66835568541669,56.0,92.0
965,133.40021050625,133.67037181458335,63.0,96.0
966,133.64214600625002,133.754041175,61.0,67.0
967,133.64214600625002,133.75605730416666,57.0,67.0
968,133.64214600625002,133.76512988541668,64.0,69.0
969,133.64214600625002,134.2197670125,33.0,82.0
970,133.64214600625002,134.22077507708335,45.0,100.0
971,134.36795250625002,134.4617025125,45.0,86.0
972,134.36795250625002,134.47682348125,33.0,72.0
973,134.12601700625,134.65021058958334,57.0,82.0
974,134.12601700625,134.65726704166667,64.0,81.0
975,134.12601700625,134.6673476875,61.0,93.0
976,134.60988800625,135.04738803541667,33.0,72.0
977,134.85182350625,135.16734772083333,57.0,100.0
978,134.85182350625,135.1713799791667,64.0,95.0
979,134.85182350625,135.17843643125002,61.0,117.0
980,134.60988800625,135.1925493354167,45.0,83.0
981,135.33569450625,135.51815419583335,64.0,90.0
982,135.33569450625,135.56351710208335,57.0,95.0
983,135.33569450625,135.64013001041667,61.0,122.0
984,136.06150100625,136.32863812083335,66.0,112.0
985,136.06150100625,136.34174296041667,63.0,122.0
986,136.06150100625,136.34375908958333,59.0,85.0
987,135.57763000625002,136.42541232083335,35.0,58.0
988,135.57763000625002,136.43650103125,47.0,93.0
989,136.54537200625,136.63710588333333,47.0,88.0
990,136.54537200625,136.64214620625,35.0,56.0
991,136.42440425625,136.754041375,63.0,107.0
992,136.42440425625,136.76210589166666,59.0,77.0
993,136.42440425625,136.76210589166666,66.0,97.0
994,136.78730750625002,137.26008979583335,47.0,92.0
995,136.78730750625002,137.31654141250002,35.0,73.0
996,137.02924300625,137.48186400416668,66.0,102.0
997,137.02924300625,137.48388013333334,63.0,127.0
998,137.02924300625,137.52521078125,59.0,90.0
999,137.51311400625002,138.01008984583333,33.0,68.0
1000,137.51311400625002,138.02521081458335,45.0,81.0
1001,137.99698500625001,138.32158180208333,64.0,85.0
1002,137.99698500625001,138.32460599583334,61.0,93.0
1003,137.99698500625001,138.33267051250002,57.0,85.0
1004,138.35988825625,138.50101729791666,64.0,97.0
1005,138.35988825625,138.50706568541668,61.0,127.0
1006,138.35988825625,138.51210600833335,57.0,97.0
1007,138.48085600625,138.81956570625002,33.0,69.0
1008,138.48085600625,138.8286382875,45.0,78.0
1009,138.72279150625002,139.0342834625,64.0,90.0
1010,138.72279150625002,139.03730765625,57.0,89.0
1011,138.72279150625002,139.0514205604167,61.0,99.0
1012,139.20666250625,139.366944775,64.0,90.0
1013,139.20666250625,139.37702542083335,57.0,93.0
1014,139.20666250625,139.43650123125002,61.0,112.0
1015,139.93246900625002,140.21069483125,59.0,81.0
1016,139.93246900625002,140.21573515416668,68.0,86.0
1017,139.93246900625002,140.22682386458334,64.0,88.0
1018,139.93246900625002,140.33569483958334,52.0,25.0
1019,139.44859800625,140.35484806666668,40.0,89.0
1020,140.41634000625,140.51412227083333,52.0,86.0
1021,140.41634000625,140.5342835625,40.0,63.0
1022,140.29537225625,140.67642066875,59.0,83.0
1023,140.29537225625,140.68650131458335,68.0,92.0
1024,140.29537225625,140.69053357291668,64.0,92.0
1025,140.65827550625,140.94859810625002,52.0,83.0
1026,140.90021100625,140.97581585,59.0,88.0
1027,140.65827550625,141.02420295000002,40.0,63.0
1028,140.90021100625,141.27117877291667,68.0,107.0
1029,140.90021100625,141.27621909583334,64.0,99.0
1030,141.14214650625001,141.41230781458333,59.0,90.0
1031,141.86795300625002,142.13811431458333,64.0,82.0
1032,141.86795300625002,142.15021108958334,57.0,81.0
1033,141.86795300625002,142.16029173541668,61.0,93.0
1034,141.38408200625,142.20363851250002,33.0,72.0
1035,141.38408200625,142.20565464166668,45.0,90.0
1036,142.23085625625,142.47581595,57.0,69.0
1037,142.23085625625,142.48488853125,61.0,73.0
1038,142.23085625625,142.49093691875,64.0,75.0
1039,142.35182400625,142.72884016041667,33.0,62.0
1040,142.35182400625,142.85182403958333,45.0,86.0
1041,142.59375950625,142.95061436875,64.0,86.0
1042,142.59375950625,142.9536385625,57.0,79.0
1043,142.59375950625,142.95464662708335,61.0,96.0
1044,143.07763050625002,143.28529181041668,64.0,90.0
1045,143.07763050625002,143.32460632916667,57.0,90.0
1046,143.07763050625002,143.38004988125002,61.0,117.0
1047,143.80343700625,144.08065476666667,66.0,90.0
1048,143.80343700625,144.08166283125001,59.0,82.0
1049,143.80343700625,144.08771121875,63.0,93.0
1050,143.31956600625,144.157267675,35.0,83.0
1051,143.31956600625,144.15827573958333,47.0,100.0
1052,144.16634025625,144.34275155833333,59.0,83.0
1053,144.16634025625,144.34577575208334,66.0,92.0
1054,144.16634025625,144.34879994583335,63.0,90.0
1055,144.28730800625002,144.8004128791667,35.0,69.0
1056,144.28730800625002,144.80142094375,47.0,79.0
1057,144.52924350625,144.810493525,63.0,99.0
1058,144.52924350625,144.81855804166668,66.0,100.0
1059,144.52924350625,144.82057417083334,59.0,92.0
1060,145.01311450625002,145.22077581041668,66.0,97.0
1061,145.01311450625002,145.22783226250002,63.0,112.0
1062,145.01311450625002,145.27420323333334,59.0,92.0
1063,145.73892100625,145.98287263541667,57.0,89.0
1064,145.73892100625,145.98690489375,64.0,89.0
1065,145.73892100625,145.99698553958333,61.0,97.0
1066,145.25505000625,146.17642103541667,45.0,89.0
1067,146.10182425625,146.26412265416667,57.0,82.0
1068,146.10182425625,146.27117910625,61.0,95.0
1069,146.10182425625,146.28529201041667,64.0,89.0
1070,146.22279200625002,146.43650169791667,45.0,65.0
1071,145.25505000625,146.4758162166667,33.0,70.0
1072,146.46472750625,146.74900171875,61.0,107.0
1073,146.46472750625,146.76210655833333,64.0,92.0
1074,146.46472750625,146.76311462291667,57.0,89.0
1075,146.94859850625,147.0907356125,57.0,88.0
1076,147.19053400625,147.53025177083333,63.0,102.0
1077,147.19053400625,147.54234854583333,60.0,97.0
1078,147.19053400625,147.56250983750002,56.0,102.0
1079,147.67440500625,147.81452598333334,60.0,93.0
1080,147.19053400625,147.82259050000002,44.0,72.0
1081,147.67440500625,147.82259050000002,63.0,86.0
1082,147.67440500625,147.82964695208335,56.0,85.0
1083,147.91634050625,148.1915421375,60.0,99.0
1084,147.91634050625,148.19557439583335,56.0,93.0
1085,147.91634050625,148.21674375208335,63.0,89.0
1086,148.15827600625002,148.37904215,51.0,20.0
1087,148.03730825625001,148.40222763541666,44.0,36.0
1088,148.40021150625,148.70162281666668,60.0,100.0
1089,148.40021150625,148.72279217291668,63.0,95.0
1090,148.40021150625,148.72984862500002,56.0,97.0
1091,148.64214700625,148.96472767291667,51.0,78.0
1092,148.88408250625,148.98085670625,63.0,70.0
1093,148.64214700625,148.9838809,44.0,95.0
1094,148.88408250625,148.9838809,60.0,96.0
1095,148.88408250625,149.00706638541666,56.0,90.0
1096,149.12601800625,149.44658254375,63.0,92.0
1097,149.12601800625,149.44859867291666,60.0,92.0
1098,149.12601800625,149.47077609375,56.0,96.0
1099,149.12601800625,149.70263094791667,44.0,46.0
1100,149.60988900625,149.71976804583335,60.0,90.0
1101,149.60988900625,149.73085675625,56.0,82.0
1102,149.60988900625,149.73085675625,63.0,63.0
1103,149.85182450625,149.99597774166668,60.0,117.0
1104,149.85182450625,150.03428419583335,63.0,96.0
1105,149.85182450625,150.11392129791668,56.0,97.0
1106,150.33569550625,150.45767132083333,60.0,100.0
1107,149.85182450625,150.483881,44.0,75.0
1108,150.33569550625,150.64920359166666,63.0,97.0
1109,150.33569550625,150.65626004375,56.0,89.0
1110,150.57763100625002,151.01714716458335,44.0,89.0
1111,150.81956650625,151.06251007083335,60.0,102.0
1112,150.81956650625,151.08771168541668,56.0,92.0
1113,150.81956650625,151.08972781458334,63.0,96.0
1114,151.06150200625,151.61089720416666,37.0,69.0
1115,151.06150200625,151.61291333333335,49.0,85.0
1116,151.54537300625,151.84577625208334,61.0,92.0
1117,151.78730850625,151.86795367291668,37.0,70.0
1118,151.78730850625,151.8800504479167,49.0,58.0
1119,151.54537300625,151.94355851666668,64.0,78.0
1120,152.02924400625,152.39214725625,37.0,57.0
1121,152.02924400625,152.49194565000002,49.0,66.0
1122,152.27117950625,152.60182468958334,61.0,82.0
1123,152.27117950625,152.61996985208333,56.0,92.0
1124,152.27117950625,152.61996985208333,64.0,81.0
1125,152.75505050625,152.91230858125002,61.0,81.0
1126,152.75505050625,152.94759084166668,56.0,85.0
1127,152.75505050625,153.02117955625002,64.0,82.0
1128,152.99698600625,153.60384088541667,45.0,82.0
1129,153.72279250625002,153.84678445,52.0,58.0
1130,153.48085700625,153.99396187916668,57.0,88.0
1131,153.48085700625,154.02017155833335,61.0,92.0
1132,153.48085700625,154.04234897916666,64.0,83.0
1133,153.96472800625,154.52621997916668,45.0,64.0
1134,153.96472800625,154.5383167541667,52.0,60.0
1135,154.20666350625,154.58267159583335,57.0,77.0
1136,154.20666350625,154.5907361125,61.0,88.0
1137,154.20666350625,154.60081675833334,64.0,79.0
1138,154.69053450625,154.89819581041667,64.0,72.0
1139,154.69053450625,154.96472807291667,57.0,77.0
1140,154.69053450625,155.01109904375,61.0,89.0
1141,154.93247000625,155.52420391666666,47.0,70.0
1142,155.65827650625002,155.74900231875,47.0,55.0
1143,155.65827650625002,155.77117973958335,54.0,69.0
1144,155.41634100625,155.95363942916669,59.0,75.0
1145,155.41634100625,155.96573620416666,66.0,85.0
1146,155.41634100625,155.98992975416667,63.0,102.0
1147,155.90021200625,156.25807493333335,54.0,83.0
1148,155.90021200625,156.30948622708334,47.0,57.0
1149,156.14214750625,156.49698623958335,59.0,78.0
1150,156.14214750625,156.49799430416667,63.0,122.0
1151,156.14214750625,156.50202656250002,66.0,99.0
1152,156.62601850625,156.82662335833334,66.0,88.0
1153,156.62601850625,156.85384110208335,63.0,102.0
1154,156.62601850625,156.89214755625,59.0,73.0
1155,156.86795400625002,157.39920404166668,52.0,93.0
1156,156.86795400625002,157.40021210625,40.0,65.0
1157,157.59376050625002,157.64718792916668,40.0,43.0
1158,157.59376050625002,157.69960728750002,47.0,79.0
1159,157.59376050625002,157.71271212708334,52.0,66.0
1160,157.35182500625,157.91432504375,59.0,88.0
1161,157.35182500625,157.91734923750002,68.0,97.0
1162,157.35182500625,157.9294460125,64.0,88.0
1163,157.83569600625,158.19759119166667,52.0,82.0
1164,157.83569600625,158.22380087083334,47.0,78.0
1165,157.83569600625,158.22682506458335,40.0,59.0
1166,158.07763150625001,158.40827668958335,68.0,92.0
1167,158.07763150625001,158.41029281875,59.0,88.0
1168,158.07763150625001,158.42037346458335,64.0,89.0
1169,158.56150250625,158.74093800208334,64.0,95.0
1170,158.56150250625,158.75001058333334,59.0,78.0
1171,158.56150250625,158.7963815541667,68.0,95.0
1172,158.80343800625002,159.33065578333333,49.0,92.0
1173,158.80343800625002,159.33468804166668,37.0,82.0
1174,159.52924450625,159.59577676875,37.0,58.0
1175,159.52924450625,159.60585741458334,49.0,72.0
1176,159.28730900625,159.7197687125,64.0,88.0
1177,159.28730900625,159.79436549166667,61.0,96.0
1178,159.28730900625,159.80142194375,68.0,93.0
1179,159.77118000625,160.13307519166668,37.0,85.0
1180,159.77118000625,160.28327681458333,49.0,88.0
1181,160.01311550625002,160.33166391458334,64.0,81.0
1182,160.01311550625002,160.34174456041669,61.0,92.0
1183,160.01311550625002,160.35283327083334,68.0,88.0
1184,160.49698650625,160.633075225,64.0,70.0
1185,160.49698650625,160.66331716250002,68.0,85.0
1186,160.49698650625,160.71372039166667,61.0,95.0
1187,160.73892200625002,161.30142204375,45.0,72.0
1188,161.46472850625,161.55948657708333,52.0,43.0
1189,161.46472850625,161.57158335208334,45.0,59.0
1190,161.22279300625001,161.76210755833335,64.0,83.0
1191,161.22279300625001,161.76311562291667,57.0,83.0
1192,161.22279300625001,161.77118013958335,61.0,93.0
1193,161.70666400625,162.14013177708335,45.0,63.0
1194,161.70666400625,162.17541403750002,52.0,74.0
1195,161.94859950625002,162.30545436875002,57.0,83.0
1196,161.94859950625002,162.31351888541667,64.0,86.0
1197,161.94859950625002,162.3195672729167,61.0,97.0
1198,162.43247050625,162.63609955208335,64.0,75.0
1199,162.43247050625,162.67440600625,57.0,76.0
1200,162.43247050625,162.74093826875,61.0,92.0
1201,162.67440600625,163.21271249375002,47.0,63.0
1202,162.67440600625,163.23287378541667,54.0,61.0
1203,163.40021250625,163.48085767291667,47.0,49.0
1204,163.40021250625,163.51109961041666,54.0,82.0
1205,163.15827700625002,163.6512205875,59.0,81.0
1206,163.15827700625002,163.65424478125001,66.0,92.0
1207,163.15827700625002,163.67238994375,63.0,100.0
1208,163.64214800625,163.9294464125,54.0,100.0
1209,163.64214800625,163.95968835000002,47.0,63.0
1210,163.88408350625002,164.24900288541667,66.0,93.0
1211,163.88408350625002,164.25303514375,63.0,100.0
1212,163.88408350625002,164.2550512729167,59.0,82.0
1213,164.36795450625002,164.56654322916668,63.0,99.0
1214,164.36795450625002,164.56755129375,59.0,71.0
1215,164.36795450625002,164.58972871458334,66.0,88.0
1216,164.60989000625,165.19658359375,49.0,88.0
1217,164.60989000625,165.20464811041668,37.0,85.0
1218,165.33569650625,165.42440618958335,49.0,72.0
1219,165.33569650625,165.42642231875,37.0,72.0
1220,165.09376100625002,165.5403336166667,64.0,73.0
1221,165.09376100625002,165.59577716875,68.0,78.0
1222,165.09376100625002,165.59779329791667,61.0,92.0
1223,165.81956750625,166.15222881875002,68.0,90.0
1224,165.81956750625,166.1572691416667,64.0,83.0
1225,165.81956750625,166.15827720625,61.0,96.0
1226,165.57763200625,166.17239011041667,49.0,78.0
1227,165.57763200625,166.18146269166667,37.0,82.0
1228,166.30343850625002,166.52722884375,61.0,86.0
1229,166.30343850625002,166.53126110208333,64.0,74.0
1230,166.30343850625002,166.54537400625,68.0,85.0
1231,166.54537400625,167.09476920416668,37.0,69.0
1232,166.54537400625,167.09678533333334,49.0,85.0
1233,167.02924500625002,167.32964825208333,61.0,92.0
1234,167.27118050625,167.35182567291668,37.0,70.0
1235,167.27118050625,167.36392244791668,49.0,58.0
1236,167.02924500625002,167.42743051666667,64.0,78.0
1237,167.51311600625002,167.87601925625,37.0,57.0
1238,167.51311600625002,167.97581765,49.0,66.0
1239,167.75505150625,168.08569668958333,61.0,82.0
1240,167.75505150625,168.10384185208335,56.0,92.0
1241,167.75505150625,168.10384185208335,64.0,81.0
1242,168.23892250625002,168.39618058125,61.0,81.0
1243,168.23892250625002,168.43146284166667,56.0,85.0
1244,168.23892250625002,168.50505155625,64.0,82.0
1245,168.48085800625,169.08771288541666,45.0,82.0
1246,169.20666450625,169.33065645000002,52.0,58.0
1247,168.96472900625,169.47783387916667,57.0,88.0
1248,168.96472900625,169.50404355833334,61.0,92.0
1249,168.96472900625,169.52622097916668,64.0,83.0
1250,169.44860000625002,170.01009197916667,45.0,64.0
1251,169.44860000625002,170.02218875416668,52.0,60.0
1252,169.69053550625,170.06654359583334,57.0,77.0
1253,169.69053550625,170.07460811250002,61.0,88.0
1254,169.69053550625,170.08468875833333,64.0,79.0
1255,170.17440650625,170.3820678104167,64.0,72.0
1256,170.17440650625,170.44860007291666,57.0,77.0
1257,170.17440650625,170.49497104375,61.0,89.0
1258,170.41634200625,171.00807591666668,47.0,70.0
1259,171.14214850625,171.23287431875002,47.0,55.0
1260,171.14214850625,171.25505173958334,54.0,69.0
1261,170.90021300625,171.43751142916668,59.0,75.0
1262,170.90021300625,171.44960820416668,66.0,85.0
1263,170.90021300625,171.4738017541667,63.0,102.0
1264,171.38408400625002,171.74194693333334,54.0,83.0
1265,171.38408400625002,171.79335822708333,47.0,57.0
1266,171.62601950625,171.98085823958334,59.0,78.0
1267,171.62601950625,171.9818663041667,63.0,122.0
1268,171.62601950625,171.9858985625,66.0,99.0
1269,172.10989050625,172.31049535833336,66.0,88.0
1270,172.10989050625,172.33771310208334,63.0,102.0
1271,172.10989050625,172.37601955625001,59.0,73.0
1272,172.35182600625,172.88307604166667,52.0,93.0
1273,172.35182600625,172.88408410625001,40.0,65.0
1274,173.07763250625,173.13105992916667,40.0,43.0
1275,173.07763250625,173.1834792875,47.0,79.0
1276,173.07763250625,173.19658412708336,52.0,66.0
1277,172.83569700625,173.39819704375,59.0,88.0
1278,172.83569700625,173.4012212375,68.0,97.0
1279,172.83569700625,173.4133180125,64.0,88.0
1280,173.31956800625,173.68146319166667,52.0,82.0
1281,173.31956800625,173.70767287083333,47.0,78.0
1282,173.31956800625,173.71069706458334,40.0,59.0
1283,173.56150350625,173.89214868958334,68.0,92.0
1284,173.56150350625,173.89416481875,59.0,88.0
1285,173.56150350625,173.90424546458334,64.0,89.0
1286,174.04537450625,174.22481000208333,64.0,95.0
1287,174.04537450625,174.23388258333335,59.0,78.0
1288,174.04537450625,174.28025355416668,68.0,95.0
1289,174.28731000625,174.81452778333335,49.0,92.0
1290,174.28731000625,174.81856004166667,37.0,82.0
1291,175.01311650625001,175.07964876875002,37.0,58.0
1292,175.01311650625001,175.08972941458333,49.0,72.0
1293,174.77118100625,175.2036407125,64.0,88.0
1294,174.77118100625,175.2782374916667,61.0,96.0
1295,174.77118100625,175.28529394375002,68.0,93.0
1296,175.25505200625,175.61694719166667,37.0,85.0
1297,175.25505200625,175.76714881458335,49.0,88.0
1298,175.49698750625,175.81553591458334,64.0,81.0
1299,175.49698750625,175.82561656041668,61.0,92.0
1300,175.49698750625,175.83670527083333,68.0,88.0
1301,175.98085850625,176.11694722500002,64.0,70.0
1302,175.98085850625,176.1471891625,68.0,85.0
1303,175.98085850625,176.1975923916667,61.0,95.0
1304,176.22279400625,176.78529404375,45.0,72.0
1305,176.94860050625002,177.04335857708335,52.0,43.0
1306,176.94860050625002,177.05545535208333,45.0,59.0
1307,176.70666500625,177.24597955833335,64.0,83.0
1308,176.70666500625,177.24698762291666,57.0,83.0
1309,176.70666500625,177.25505213958334,61.0,93.0
1310,177.19053600625,177.62400377708335,45.0,63.0
1311,177.19053600625,177.6592860375,52.0,74.0
1312,177.43247150625,177.78932636875,57.0,83.0
1313,177.43247150625,177.7973908854167,64.0,86.0
1314,177.43247150625,177.80343927291668,61.0,97.0
1315,177.91634250625,178.11997155208334,64.0,75.0
1316,177.91634250625,178.15827800625001,57.0,76.0
1317,177.91634250625,178.22481026875002,61.0,92.0
1318,178.15827800625001,178.69658449375,47.0,63.0
1319,178.15827800625001,178.71674578541666,54.0,61.0
1320,178.88408450625002,178.96472967291666,47.0,49.0
1321,178.88408450625002,178.99497161041668,54.0,82.0
1322,178.64214900625,179.1350925875,59.0,81.0
1323,178.64214900625,179.13811678125,66.0,92.0
1324,178.64214900625,179.15626194375,63.0,100.0
1325,179.12602000625,179.41331841250002,54.0,100.0
1326,179.12602000625,179.44356035,47.0,63.0
1327,179.36795550625,179.73287488541666,66.0,93.0
1328,179.36795550625,179.73690714375002,63.0,100.0
1329,179.36795550625,179.73892327291668,59.0,82.0
1330,179.85182650625,180.05041522916667,63.0,99.0
1331,179.85182650625,180.05142329375002,59.0,71.0
1332,179.85182650625,180.07360071458334,66.0,88.0
1333,180.09376200625002,180.18852007708335,68.0,95.0
1334,180.09376200625002,180.19255233541668,64.0,90.0
1335,180.09376200625002,180.20666523958334,61.0,96.0
1336,180.09376200625002,180.21775395,49.0,93.0
1337,180.33569750625,180.46170557916668,64.0,82.0
1338,180.33569750625,180.47884267708335,49.0,92.0
1339,180.33569750625,180.48388300000002,68.0,82.0
1340,180.33569750625,180.495979775,61.0,90.0
1341,180.57763300625,180.7802539875,66.0,88.0
1342,180.57763300625,180.79537495625001,63.0,95.0
1343,180.57763300625,180.80243140833335,59.0,78.0
1344,180.57763300625,180.81452818333335,47.0,99.0
1345,180.81956850625002,181.80948792708335,64.0,81.0
1346,180.81956850625002,181.8205766375,68.0,83.0
1347,180.81956850625002,181.83065728333335,61.0,89.0
1348,180.81956850625002,181.8387218,49.0,95.0
