,start,end,pitch,velocity
0,32.299962908333335,32.53274822916667,73.0,77.0
1,32.53470440833333,33.00223122916667,73.0,79.0
2,33.00418740833334,33.236972729166666,73.0,81.0
3,33.238928908333335,33.70841190833333,73.0,90.0
4,33.70841190833333,34.177894908333336,71.0,81.0
5,34.177894908333336,35.574606833333334,69.0,93.0
6,35.574606833333334,36.486186325,76.0,86.0
7,36.486186325,39.81169090833333,73.0,87.0
8,39.81169090833333,40.04447622916667,69.0,98.0
9,40.04643240833333,40.74870072916667,69.0,95.0
10,40.75065690833333,41.21818372916667,69.0,83.0
11,41.22013990833334,41.454881408333335,69.0,75.0
12,41.454881408333335,41.92436440833333,71.0,87.0
13,41.92436440833333,43.33281340833334,69.0,86.0
14,43.33281340833334,43.567554908333335,61.0,65.0
15,43.567554908333335,47.32341890833334,64.0,85.0
16,47.32341890833334,47.62075814166667,66.0,74.0
17,47.558160408333336,48.26042872916667,69.0,71.0
18,48.26238490833333,48.72991172916667,69.0,77.0
19,48.731867908333335,49.19939472916667,69.0,58.0
20,49.20135090833334,50.60784372916667,69.0,71.0
21,50.609799908333336,50.844541408333335,69.0,65.0
22,50.844541408333335,51.07928290833334,71.0,67.0
23,51.07928290833334,52.48773190833333,73.0,95.0
24,52.48773190833333,52.957214908333334,71.0,87.0
25,52.957214908333334,54.36566390833333,69.0,95.0
26,54.36566390833333,54.60040540833334,66.0,83.0
27,54.60040540833334,54.835146908333336,69.0,68.0
28,54.835146908333336,56.241639729166664,71.0,100.0
29,56.24359590833333,56.47638122916667,71.0,70.0
30,56.47833740833333,56.71307890833334,71.0,81.0
31,56.71307890833334,57.18256190833334,73.0,98.0
32,57.18256190833334,58.35626940833333,71.0,98.0
33,58.35626940833333,58.59101090833333,69.0,75.0
34,58.59101090833333,62.346874908333334,71.0,100.0
35,62.346874908333334,62.57966022916667,73.0,77.0
36,62.58161640833333,63.049143229166674,73.0,79.0
37,63.051099408333336,63.28388472916667,73.0,81.0
38,63.285840908333334,63.75532390833334,73.0,90.0
39,63.75532390833334,64.22480690833333,71.0,81.0
40,64.22480690833333,65.62151883333334,69.0,93.0
41,65.62151883333334,66.533098325,76.0,86.0
42,66.533098325,69.85860290833334,73.0,87.0
43,69.85860290833334,70.32612972916667,69.0,83.0
44,70.32808590833334,70.79561272916666,69.0,85.0
45,70.79756890833335,71.26509572916666,69.0,83.0
46,71.26705190833334,71.50179340833333,69.0,75.0
47,71.50179340833333,71.97127640833334,71.0,87.0
48,71.97127640833334,73.37972540833334,69.0,86.0
49,73.37972540833334,73.61446690833333,61.0,65.0
50,73.61446690833333,77.37033090833333,64.0,85.0
51,77.37033090833333,77.66767014166666,66.0,74.0
52,77.60507240833334,78.30734072916667,69.0,71.0
53,78.30929690833334,78.77682372916667,69.0,77.0
54,78.77877990833333,79.24630672916666,69.0,58.0
55,79.24826290833334,80.65475572916667,69.0,71.0
56,80.65671190833334,80.89145340833333,69.0,65.0
57,80.89145340833333,81.12619490833333,71.0,67.0
58,81.12619490833333,82.53464390833334,73.0,95.0
59,82.53464390833334,83.00412690833333,71.0,87.0
60,83.00412690833333,84.41257590833334,69.0,95.0
61,84.41257590833334,84.64731740833334,66.0,83.0
62,84.64731740833334,84.88205890833333,69.0,68.0
63,84.88205890833333,85.34958572916668,71.0,100.0
64,85.35154190833333,86.28855172916667,71.0,87.0
65,86.29050790833334,86.52329322916667,71.0,70.0
66,86.52524940833334,86.75999090833334,71.0,81.0
67,86.75999090833334,87.22947390833335,73.0,98.0
68,87.22947390833335,88.16648372916667,71.0,98.0
69,88.16843990833334,88.63792290833334,71.0,75.0
70,88.63792290833334,92.39378690833334,69.0,100.0
71,92.39378690833334,92.62657222916667,78.0,114.0
72,92.62852840833334,93.09605522916667,78.0,117.0
73,93.09801140833333,93.33079672916668,78.0,112.0
74,93.33275290833333,93.80223590833333,78.0,120.0
75,93.80223590833333,94.03697740833334,73.0,77.0
76,94.03697740833334,95.68016790833335,76.0,95.0
77,95.68016790833335,95.91882176666667,73.0,95.0
78,95.91490940833333,96.157475625,71.0,66.0
79,96.14965090833334,96.61717772916668,69.0,85.0
80,96.61913390833334,97.08666072916668,69.0,86.0
81,97.08861690833334,97.32140222916667,69.0,90.0
82,97.32335840833335,97.79284140833335,69.0,93.0
83,97.79284140833335,98.02758290833333,71.0,85.0
84,98.02758290833333,99.90551490833334,73.0,108.0
85,99.90551490833334,100.13830022916667,78.0,108.0
86,100.14025640833333,100.60778322916667,78.0,104.0
87,100.60973940833333,100.84252472916668,78.0,100.0
88,100.84448090833334,101.31396390833333,78.0,111.0
89,101.31396390833333,101.54870540833335,80.0,117.0
90,101.54870540833335,101.79909634166668,78.0,117.0
91,101.78344690833333,103.19189590833335,76.0,120.0
92,103.19189590833335,103.42663740833333,73.0,98.0
93,103.42663740833333,103.66137890833335,76.0,104.0
94,103.66137890833335,104.12890572916666,78.0,121.0
95,104.13086190833334,105.53735472916668,78.0,117.0
96,105.53931090833333,106.00683772916668,78.0,104.0
97,106.00879390833333,106.94775990833332,78.0,120.0
98,106.94775990833332,107.41724290833335,73.0,112.0
99,107.41724290833335,111.17310690833332,71.0,114.0
100,111.17310690833332,111.52913151666667,78.0,114.0
101,111.53108769583335,111.87537522916668,78.0,117.0
102,111.87733140833333,112.11011672916666,78.0,112.0
103,112.11207290833335,112.58155590833334,78.0,120.0
104,112.58155590833334,112.81629740833333,73.0,77.0
105,112.81629740833333,114.45948790833333,76.0,95.0
106,114.45948790833333,114.69814176666668,73.0,95.0
107,114.69422940833334,114.936795625,71.0,66.0
108,114.92897090833333,115.39649772916667,69.0,85.0
109,115.39845390833335,115.86598072916667,69.0,86.0
110,115.86793690833335,116.22591769583335,69.0,90.0
111,116.227873875,116.57216140833333,69.0,93.0
112,116.57216140833333,116.80690290833334,71.0,85.0
113,116.80690290833334,118.68483490833333,73.0,108.0
114,118.68483490833333,119.05097668333333,78.0,108.0
115,119.0529451875,119.39152790416667,78.0,104.0
116,119.39349640833333,119.62774840416667,78.0,100.0
117,119.62971690833334,120.10215790833333,78.0,111.0
118,120.10215790833333,120.33837840833333,80.0,117.0
119,120.33837840833333,120.59034694166667,78.0,117.0
120,120.57459890833333,121.99192190833332,76.0,120.0
121,121.99192190833332,122.22814240833333,73.0,98.0
122,122.22814240833333,122.46436290833333,76.0,104.0
123,122.46436290833333,122.93483540416666,78.0,121.0
124,122.93680390833333,124.35215840416666,78.0,117.0
125,124.35412690833333,124.82459940416666,78.0,104.0
126,124.82656790833333,125.73798533749999,78.0,120.0
127,125.73995384166666,126.24389090833333,78.0,112.0
128,126.24389090833333,130.00127290833333,76.0,114.0
129,130.00127290833333,130.23261014791666,73.0,77.0
130,130.23455415833334,130.69917264791667,73.0,79.0
131,130.70111665833335,130.93245389791667,73.0,81.0
132,130.93439790833332,131.40096040833333,73.0,90.0
133,131.40096040833333,131.86752290833334,71.0,81.0
134,131.86752290833334,133.25554634583332,69.0,93.0
135,133.25554634583332,134.1614552,76.0,86.0
136,134.1614552,137.46627290833334,73.0,87.0
137,137.46627290833334,137.74426639791668,69.0,83.0
138,137.74621040833333,138.39745389791668,69.0,85.0
139,138.39939790833333,138.86401639791666,69.0,83.0
140,138.86596040833334,139.09924165833334,69.0,75.0
141,139.09924165833334,139.56580415833332,71.0,87.0
142,139.56580415833332,140.96549165833335,69.0,86.0
143,140.96549165833335,141.19877290833332,61.0,65.0
144,141.19877290833332,144.93127290833334,64.0,85.0
145,144.93127290833334,145.22676249166668,66.0,74.0
146,145.16455415833335,145.86245389791668,69.0,71.0
147,145.86439790833333,146.32901639791666,69.0,77.0
148,146.33096040833334,146.79557889791667,69.0,58.0
149,146.79752290833335,148.20181978333335,69.0,71.0
150,148.20377290833335,148.43814790833335,69.0,65.0
151,148.43814790833335,148.67252290833335,71.0,67.0
152,148.67252290833335,150.07877290833335,73.0,95.0
153,150.07877290833335,150.54752290833335,71.0,87.0
154,150.54752290833335,151.95377290833335,69.0,95.0
155,151.95377290833335,152.18814790833335,66.0,83.0
156,152.18814790833335,152.42252290833335,69.0,68.0
157,152.42252290833335,153.82681978333335,71.0,100.0
158,153.82877290833335,154.06119478333335,71.0,70.0
159,154.06314790833335,154.29752290833335,71.0,81.0
160,154.29752290833335,154.76627290833335,73.0,98.0
161,154.76627290833335,155.69463833125002,71.0,98.0
162,155.69656140833334,156.15809990833336,71.0,75.0
163,156.15809990833336,159.85756390833333,69.0,100.0
164,189.95227690833332,190.18469878333332,78.0,114.0
165,190.18665190833332,190.65344878333332,78.0,117.0
166,190.65540190833332,190.88782378333332,78.0,112.0
167,190.88977690833332,191.35852690833332,78.0,120.0
168,191.35852690833332,191.59290190833332,73.0,77.0
169,191.59290190833332,193.23352690833332,76.0,95.0
170,193.23352690833332,193.47180815833332,73.0,95.0
171,193.46790190833332,193.71008940833332,71.0,66.0
172,193.70227690833332,194.16907378333332,69.0,85.0
173,194.17102690833332,194.63782378333332,69.0,86.0
174,194.63977690833332,194.87219878333332,69.0,90.0
175,194.87415190833332,195.34290190833332,69.0,93.0
176,195.34290190833332,195.57727690833332,71.0,85.0
177,195.57727690833332,197.45227690833332,73.0,108.0
178,197.45227690833332,197.68469878333332,78.0,108.0
179,197.68665190833332,198.15344878333332,78.0,104.0
180,198.15540190833332,198.38782378333332,78.0,100.0
181,198.38977690833332,198.85852690833332,78.0,111.0
182,198.85852690833332,199.09290190833332,80.0,117.0
183,199.09290190833332,199.34290190833332,78.0,117.0
184,199.32727690833332,200.73352690833332,76.0,120.0
185,200.73352690833332,200.96790190833332,73.0,98.0
186,200.96790190833332,201.20227690833332,76.0,104.0
187,201.20227690833332,201.66907378333332,78.0,121.0
188,201.67102690833332,203.07532378333332,78.0,117.0
189,203.07727690833332,203.54407378333332,78.0,104.0
190,203.54602690833332,204.48352690833332,78.0,120.0
191,204.48352690833332,204.95227690833332,73.0,112.0
192,204.95227690833332,208.70227690833332,71.0,114.0
193,208.70227690833332,209.05774565833332,78.0,114.0
194,209.05969878333332,209.40344878333332,78.0,117.0
195,209.40540190833332,209.63782378333332,78.0,112.0
196,209.63977690833332,210.10852690833332,78.0,120.0
197,210.10852690833332,210.34290190833332,73.0,77.0
198,210.34290190833332,211.98352690833332,76.0,95.0
199,211.98352690833332,212.22180815833332,73.0,95.0
200,212.21790190833332,212.46008940833332,71.0,66.0
201,212.45227690833332,212.91907378333332,69.0,85.0
202,212.92102690833332,213.38782378333332,69.0,86.0
203,213.38977690833332,213.7500131708333,69.0,90.0
204,213.751981675,214.09843840833332,69.0,93.0
205,214.09843840833332,214.33465890833332,71.0,85.0
206,214.33465890833332,216.2244229083333,73.0,108.0
207,216.2244229083333,216.59056468333333,78.0,108.0
208,216.59253318749998,216.93111590416666,78.0,104.0
209,216.93308440833331,217.16733640416666,78.0,100.0
210,217.16930490833332,217.63805490833332,78.0,111.0
211,217.63805490833332,217.87242990833332,80.0,117.0
212,217.87242990833332,218.12242990833332,78.0,117.0
213,218.10680490833332,219.51305490833332,76.0,120.0
214,219.51305490833332,219.74742990833332,73.0,98.0
215,219.74742990833332,219.98180490833332,76.0,104.0
216,219.98180490833332,220.44860178333332,78.0,121.0
217,220.45055490833332,221.85485178333332,78.0,117.0
218,221.85680490833332,222.32360178333332,78.0,104.0
219,222.32555490833332,223.22985178333332,78.0,120.0
220,223.23180490833332,223.73180490833332,78.0,112.0
221,223.73180490833332,227.48180490833332,76.0,114.0
222,227.48180490833332,227.71422678333332,73.0,77.0
223,227.71617990833332,228.18297678333332,73.0,79.0
224,228.18492990833332,228.41735178333332,73.0,81.0
225,228.41930490833332,228.88805490833332,73.0,90.0
226,228.88805490833332,229.35680490833332,71.0,81.0
227,229.35680490833332,230.75133615833332,69.0,93.0
228,230.75133615833332,231.66149240833332,76.0,86.0
229,231.66149240833332,234.98180490833332,73.0,87.0
230,234.98180490833332,235.26110178333332,69.0,83.0
231,235.26305490833332,235.91735178333332,69.0,85.0
232,235.91930490833332,236.38610178333332,69.0,83.0
233,236.38805490833332,236.62242990833332,69.0,75.0
234,236.62242990833332,237.09117990833332,71.0,87.0
235,237.09117990833332,238.49742990833332,69.0,86.0
236,238.49742990833332,238.73180490833332,61.0,65.0
237,238.73180490833332,242.48180490833332,64.0,85.0
238,242.48180490833332,242.77867990833332,66.0,74.0
239,242.71617990833332,243.41735178333332,69.0,71.0
240,243.41930490833332,243.88610178333332,69.0,77.0
241,243.88805490833332,244.35485178333332,69.0,58.0
242,244.35680490833332,246.23180490833332,69.0,71.0
243,246.23180490833332,247.63805490833332,73.0,95.0
244,247.63805490833332,248.10680490833332,71.0,87.0
245,248.10680490833332,249.51305490833332,69.0,95.0
246,249.51305490833332,249.74742990833332,66.0,83.0
247,249.74742990833332,249.98180490833332,69.0,68.0
248,249.98180490833332,251.38610178333332,71.0,100.0
249,251.38805490833332,251.62047678333332,71.0,70.0
250,251.62242990833332,251.85680490833332,71.0,81.0
251,251.85680490833332,252.32555490833332,73.0,98.0
252,252.32555490833332,253.26110178333332,71.0,98.0
253,253.26305490833332,253.73180490833332,71.0,75.0
254,253.73180490833332,257.5113329083333,69.0,100.0
