,start,end,pitch,velocity
0,13.400989670833331,14.301988393749998,64.0,112.0
1,14.525286170833331,14.823537047916664,67.0,122.0
2,14.900051670833331,15.405985095833332,69.0,107.0
3,15.274817170833332,15.629282872916665,67.0,107.0
4,15.64958267083333,16.01654055625,69.0,127.0
5,16.02434817083333,16.244522902083332,72.0,102.0
6,16.39911367083333,16.75045632708333,69.0,127.0
7,16.773879170833332,18.33071751875,67.0,99.0
8,19.39723767083333,20.237336999999997,67.0,122.0
9,20.52153417083333,20.73233976458333,69.0,122.0
10,20.89629967083333,21.250765372916664,64.0,112.0
11,21.27106517083333,21.5864928,62.0,95.0
12,21.64583067083333,21.97843505208333,64.0,102.0
13,22.02059617083333,22.34383141458333,67.0,102.0
14,22.39536167083333,23.920969560416665,62.0,100.0
15,25.393485670833332,26.313222668749997,62.0,99.0
16,26.517782170833332,26.842578937499997,64.0,102.0
17,26.89254767083333,27.434396122916663,67.0,112.0
18,27.64207867083333,28.11522011458333,72.0,117.0
19,28.39160967083333,28.905350710416663,69.0,122.0
20,29.14114067083333,29.625212774999998,72.0,127.0
21,29.89067167083333,30.24669889583333,69.0,117.0
22,30.26543717083333,30.474681241666662,72.0,97.0
23,30.45281992083333,30.629272010416663,69.0,96.0
24,30.64020267083333,31.158628279166663,67.0,95.0
25,31.38973367083333,31.953443443749997,67.0,100.0
26,32.13926467083333,32.460938391666666,67.0,102.0
27,32.51403017083333,32.876303487499996,62.0,92.0
28,32.88879567083333,33.429082599999994,64.0,96.0
29,33.63832667083333,34.028707399999995,62.0,117.0
30,34.01309217083333,34.347258075,64.0,88.0
31,34.38785767083333,36.063371760416665,60.0,92.0
32,37.38598167083333,38.28698039374999,64.0,112.0
33,38.51027817083333,38.808529047916664,67.0,122.0
34,38.885043670833326,39.39097709583333,69.0,107.0
35,39.25980917083333,39.61427487291666,67.0,107.0
36,39.63457467083333,40.00153255625,69.0,127.0
37,40.009340170833326,40.22951490208333,72.0,102.0
38,40.38410567083333,40.735448327083326,69.0,127.0
39,40.75887117083333,42.31570951875,67.0,99.0
40,43.382229670833325,44.222328999999995,67.0,122.0
41,44.506526170833325,44.71733176458333,69.0,122.0
42,44.88129167083333,45.23575737291666,64.0,112.0
43,45.25605717083333,45.57148479999999,62.0,95.0
44,45.630822670833325,45.963427052083325,64.0,102.0
45,46.00558817083333,46.328823414583326,67.0,102.0
46,46.38035367083333,47.905961560416664,62.0,100.0
47,49.37847767083333,50.29821466874999,62.0,99.0
48,50.50277417083333,50.82757093749999,64.0,102.0
49,50.87753967083333,51.41938812291666,67.0,112.0
50,51.62707067083333,52.10021211458333,72.0,117.0
51,52.376601670833324,52.89034271041666,69.0,122.0
52,53.12613267083333,53.61020477499999,72.0,127.0
53,53.875663670833326,54.231690895833324,69.0,117.0
54,54.25042917083333,54.45967324166666,72.0,97.0
55,54.437811920833326,54.61426401041666,69.0,96.0
56,54.625194670833324,55.14362027916666,67.0,95.0
57,55.37472567083333,55.938435443749995,67.0,100.0
58,56.124256670833326,56.44593039166666,67.0,102.0
59,56.49902217083333,56.861295487499994,62.0,92.0
60,56.87378767083332,57.41407459999999,64.0,96.0
61,57.62331867083333,58.01369939999999,62.0,117.0
62,57.99808417083333,58.33225007499999,64.0,88.0
63,58.372849670833325,60.04836376041666,60.0,92.0
64,61.37097367083333,61.68640129999999,60.0,99.0
65,61.745739170833325,62.11738162499999,57.0,77.0
66,62.12050467083333,62.45623209791666,60.0,99.0
67,62.49527017083333,62.87315871666666,62.0,96.0
68,62.870035670833325,63.40563803124999,64.0,117.0
69,64.36909767083333,64.69545596041667,62.0,102.0
70,64.74386317083332,65.08427516666666,64.0,96.0
71,65.11862867083333,65.51681701458332,57.0,92.0
72,65.49339417083333,65.85879053333332,60.0,88.0
73,65.86815967083332,67.04710947291666,55.0,93.0
74,67.36722167083333,67.62955752083333,57.0,96.0
75,67.74198717083333,67.99963845208333,60.0,99.0
76,68.11675267083332,68.36191176874999,62.0,88.0
77,68.49151817083333,68.70076224166665,64.0,102.0
78,68.86628367083333,69.25978744583333,67.0,117.0
79,69.24104917083332,69.53149243333333,64.0,99.0
80,69.61581467083333,69.96715732708333,72.0,107.0
81,69.99058017083333,70.32630759791665,69.0,96.0
82,70.36534567083332,72.25166535416666,67.0,99.0
83,73.36346967083333,73.89126441666666,72.0,127.0
84,74.11300067083333,74.39563631875,72.0,122.0
85,74.48776617083332,74.77040181874999,69.0,100.0
86,74.86253167083332,75.45591037916665,67.0,122.0
87,75.61206267083332,76.14141893958332,69.0,122.0
88,76.36159367083333,76.88782689374999,67.0,117.0
89,77.11112467083332,77.44685209791666,67.0,112.0
90,77.48589017083333,77.84972501041666,64.0,95.0
91,77.86065567083332,78.77414657708333,62.0,100.0
92,79.35971767083332,79.85003586666666,67.0,117.0
93,80.10924867083332,80.48245264791666,67.0,122.0
94,80.4527837125,80.82598768958333,69.0,122.0
95,80.85877967083333,81.37252071041665,64.0,117.0
96,81.60831067083332,81.94559962083332,62.0,127.0
97,81.98307617083333,82.21418156249999,64.0,99.0
98,82.17045892083333,82.44841,62.0,99.0
99,82.35784167083332,84.42061344374999,60.0,102.0
100,109.34095767083332,109.65638529999998,60.0,99.0
101,109.71572317083331,110.08736562499999,57.0,77.0
102,110.09048867083332,110.42621609791665,60.0,99.0
103,110.46525417083332,110.84314271666665,62.0,96.0
104,110.84001967083331,111.37562203124999,64.0,117.0
105,112.33908167083332,112.66543996041665,62.0,102.0
106,112.71384717083332,113.05425916666665,64.0,96.0
107,113.08861267083331,113.48680101458332,57.0,92.0
108,113.46337817083332,113.82877453333332,60.0,88.0
109,113.83814367083332,115.01709347291666,55.0,93.0
110,115.33720567083331,115.59954152083331,57.0,96.0
111,115.71197117083332,115.96962245208331,60.0,99.0
112,116.08673667083332,116.33189576874999,62.0,88.0
113,116.46150217083331,116.67074624166665,64.0,102.0
114,116.83626767083332,117.22977144583332,67.0,117.0
115,117.21103317083332,117.50147643333332,64.0,99.0
116,117.58579867083331,117.93714132708332,72.0,107.0
117,117.96056417083332,118.29629159791665,69.0,96.0
118,118.33532967083332,120.22164935416666,67.0,99.0
119,121.33345367083332,121.86124841666665,72.0,127.0
120,122.08298467083331,122.36562031874999,72.0,122.0
121,122.45775017083332,122.74038581874998,69.0,100.0
122,122.83251567083332,123.42589437916665,67.0,122.0
123,123.58204667083332,124.11140293958331,69.0,122.0
124,124.33157767083331,124.85781089374998,67.0,117.0
125,125.08110867083332,125.41683609791666,67.0,112.0
126,125.45587417083331,125.81970901041664,64.0,95.0
127,125.83063967083332,126.74413057708333,62.0,100.0
128,127.32970167083332,127.82001986666666,67.0,117.0
129,128.0792326708333,128.45243664791664,69.0,122.0
130,128.82876367083333,129.34250471041665,64.0,117.0
131,129.57829467083332,129.91558362083333,62.0,127.0
132,129.9530601708333,130.31221044166665,64.0,99.0
133,130.3278256708333,132.39059744374998,60.0,102.0
