,start,end,pitch,velocity
0,32.253130945833334,32.82845013541667,77.0,102.0
1,32.83005269583334,33.020757385416665,77.0,87.0
2,33.02235994583334,33.406974445833335,77.0,94.0
3,33.406974445833335,33.79158894583333,79.0,97.0
4,33.79158894583333,34.17620344583334,81.0,105.0
5,34.17620344583334,34.560817945833335,79.0,97.0
6,34.560817945833335,34.94543244583333,77.0,102.0
7,34.94543244583333,35.33004694583333,74.0,97.0
8,35.33004694583333,38.406962945833335,72.0,87.0
9,38.406962945833335,38.78997488541667,81.0,82.0
10,38.79157744583333,39.17458938541667,81.0,97.0
11,39.17619194583334,39.560806445833336,81.0,102.0
12,39.560806445833336,39.945420945833334,84.0,102.0
13,39.945420945833334,40.33003544583333,86.0,100.0
14,40.33003544583333,40.713047385416665,84.0,100.0
15,40.71464994583334,41.099264445833334,84.0,105.0
16,41.099264445833334,41.48387894583333,77.0,111.0
17,41.48387894583333,44.56079494583334,79.0,102.0
18,44.56079494583334,45.32842138541667,81.0,97.0
19,45.33002394583333,45.713035885416666,81.0,105.0
20,45.71463844583334,46.099252945833335,81.0,105.0
21,46.099252945833335,47.253096445833336,84.0,97.0
22,47.253096445833336,47.637710945833334,81.0,97.0
23,47.637710945833334,48.02232544583333,79.0,100.0
24,48.02232544583333,48.40693994583334,81.0,102.0
25,48.40693994583334,48.791554445833334,84.0,111.0
26,48.791554445833334,49.17616894583333,76.0,105.0
27,49.17616894583333,50.71302438541667,74.0,108.0
28,50.71462694583334,51.099241445833336,74.0,102.0
29,51.099241445833336,51.48225338541667,84.0,97.0
30,51.483855945833334,51.86847044583333,84.0,105.0
31,51.86847044583333,52.253084945833336,81.0,100.0
32,52.253084945833336,52.637699445833334,79.0,97.0
33,52.637699445833334,53.02231394583333,81.0,100.0
34,53.02231394583333,53.40692844583334,79.0,102.0
35,53.40692844583334,53.791542945833335,74.0,100.0
36,53.791542945833335,56.86685638541667,77.0,94.0
37,56.86845894583333,57.44377813541667,77.0,102.0
38,57.445380695833336,57.63608538541667,77.0,87.0
39,57.637687945833335,58.02230244583333,77.0,94.0
40,58.02230244583333,58.40691694583334,79.0,97.0
41,58.40691694583334,58.791531445833336,81.0,105.0
42,58.791531445833336,59.17614594583333,79.0,97.0
43,59.17614594583333,59.56076044583334,77.0,102.0
44,59.56076044583334,59.945374945833336,74.0,97.0
45,59.945374945833336,63.02229094583333,72.0,87.0
46,63.02229094583333,63.40530288541667,81.0,82.0
47,63.40690544583334,63.78991738541667,81.0,97.0
48,63.791519945833336,64.17613444583334,81.0,102.0
49,64.17613444583334,64.56074894583334,84.0,102.0
50,64.56074894583334,64.94536344583334,86.0,100.0
51,64.94536344583334,65.32837538541666,84.0,100.0
52,65.32997794583333,65.71459244583333,84.0,105.0
53,65.71459244583333,66.09920694583333,77.0,111.0
54,66.09920694583333,69.17612294583334,79.0,102.0
55,69.17612294583334,69.94535194583334,81.0,97.0
56,69.94535194583334,70.32996644583334,79.0,105.0
57,70.32996644583334,70.71458094583333,81.0,105.0
58,70.71458094583333,71.48380994583333,84.0,97.0
59,71.48380994583333,71.86842444583334,84.0,114.0
60,71.86842444583334,72.25303894583334,81.0,97.0
61,72.25303894583334,72.63765344583334,79.0,100.0
62,72.63765344583334,73.02066538541666,81.0,102.0
63,73.02226794583333,73.40688244583333,81.0,111.0
64,73.40688244583333,73.79149694583333,76.0,105.0
65,73.79149694583333,75.32835238541666,74.0,108.0
66,75.32995494583334,75.71456944583333,74.0,102.0
67,75.71456944583333,76.09758138541667,84.0,97.0
68,76.09918394583333,76.48379844583333,84.0,105.0
69,76.48379844583333,76.86841294583334,81.0,100.0
70,76.86841294583334,77.25302744583334,79.0,97.0
71,77.25302744583334,77.63764194583334,81.0,100.0
72,77.63764194583334,78.02225644583334,79.0,102.0
73,78.02225644583334,78.40687094583333,74.0,100.0
74,78.40687094583333,81.48378694583333,77.0,94.0
75,81.48378694583333,81.86679888541667,84.0,108.0
76,81.86840144583334,82.25141338541667,84.0,105.0
77,82.25301594583334,82.63763044583334,84.0,108.0
78,82.63763044583334,83.02224494583334,86.0,108.0
79,83.02224494583334,83.40685944583333,89.0,102.0
80,83.40685944583333,83.79147394583333,88.0,100.0
81,83.79147394583333,84.17608844583333,86.0,82.0
82,84.17608844583333,84.56070294583334,81.0,108.0
83,84.56070294583334,87.63601638541667,84.0,117.0
84,87.63761894583334,88.02063088541667,84.0,105.0
85,88.02223344583334,88.40524538541666,84.0,111.0
86,88.40684794583333,88.79146244583333,84.0,111.0
87,88.79146244583333,89.17607694583333,86.0,102.0
88,89.17607694583333,89.56069144583334,89.0,111.0
89,89.56069144583334,89.94530594583334,88.0,94.0
90,89.94530594583334,90.32992044583334,86.0,87.0
91,90.32992044583334,90.71453494583334,81.0,117.0
92,90.71453494583334,93.79145094583333,79.0,100.0
93,93.79145094583333,94.56067994583334,81.0,111.0
94,94.56067994583334,94.94529444583334,79.0,102.0
95,94.94529444583334,95.32990894583334,81.0,105.0
96,95.32990894583334,96.09753538541666,84.0,108.0
97,96.09913794583333,96.48375244583333,84.0,102.0
98,96.48375244583333,96.86836694583333,81.0,111.0
99,96.86836694583333,97.25298144583334,79.0,108.0
100,97.25298144583334,97.63599338541667,81.0,100.0
101,97.63759594583334,98.02221044583334,81.0,105.0
102,98.02221044583334,98.40682494583334,76.0,100.0
103,98.40682494583334,99.56066844583334,74.0,97.0
104,99.56066844583334,99.94528294583334,72.0,108.0
105,99.94528294583334,100.32829488541667,84.0,108.0
106,100.32989744583334,100.52060213541667,84.0,102.0
107,100.52220469583334,100.71290938541667,84.0,102.0
108,100.71451194583334,101.09912644583333,84.0,105.0
109,101.09912644583333,101.48374094583333,81.0,111.0
110,101.48374094583333,101.86835544583333,79.0,108.0
111,101.86835544583333,102.25296994583334,77.0,111.0
112,102.25296994583334,102.63758444583334,79.0,111.0
113,102.63758444583334,103.02219894583334,86.0,108.0
114,103.02219894583334,106.09751238541666,84.0,105.0
115,106.09911494583334,106.48212688541668,84.0,117.0
116,106.48372944583333,107.25295844583334,84.0,111.0
117,107.25295844583334,107.63757294583334,86.0,105.0
118,107.63757294583334,108.21289213541667,89.0,100.0
119,108.21449469583334,108.79141644583333,89.0,108.0
120,108.79141644583333,109.17603094583333,88.0,89.0
121,109.17603094583333,110.32987444583334,86.0,105.0
122,110.32987444583334,110.71448894583334,81.0,105.0
123,110.71448894583334,112.25294694583334,84.0,92.0
124,112.25294694583334,112.63595888541667,86.0,97.0
125,112.63756144583334,113.02057338541667,86.0,105.0
126,113.02217594583334,113.40679044583334,86.0,105.0
127,113.40679044583334,113.79140494583334,89.0,111.0
128,113.79140494583334,114.17601944583333,86.0,108.0
129,114.17601944583333,114.36672413541667,84.0,94.0
130,114.36832669583333,114.55903138541667,84.0,94.0
131,114.56063394583333,114.94524844583334,84.0,102.0
132,114.94524844583334,115.32986294583334,81.0,108.0
133,115.32986294583334,118.40517638541667,79.0,94.0
134,118.40677894583334,118.98209813541666,79.0,105.0
135,118.98370069583333,119.56062244583333,79.0,111.0
136,119.56062244583333,119.94523694583334,81.0,114.0
137,119.94523694583334,120.52055613541667,84.0,114.0
138,120.52215869583334,121.09908044583334,84.0,114.0
139,121.09908044583334,121.48369494583334,81.0,108.0
140,121.48369494583334,122.06061669583333,79.0,105.0
141,122.06061669583333,122.63753844583334,81.0,102.0
142,122.63753844583334,123.02215294583334,76.0,97.0
143,123.02215294583334,124.56061094583333,74.0,105.0
144,124.56061094583333,124.94522544583334,72.0,108.0
145,124.94522544583334,125.32823738541667,84.0,97.0
146,125.32983994583334,125.71445444583334,84.0,89.0
147,125.71445444583334,126.09906894583334,81.0,105.0
148,126.09906894583334,126.48368344583334,79.0,108.0
149,126.48368344583334,126.86829794583333,81.0,105.0
150,126.86829794583333,127.25291244583333,79.0,97.0
151,127.25291244583333,127.63752694583334,74.0,94.0
152,127.63752694583334,130.71444294583333,77.0,102.0
153,161.48360294583333,162.05892213541668,77.0,102.0
154,162.06052469583335,162.25122938541668,77.0,87.0
155,162.25283194583335,162.63744644583335,77.0,94.0
156,162.63744644583335,163.02206094583335,79.0,97.0
157,163.02206094583335,163.40667544583334,81.0,105.0
158,163.40667544583334,163.79128994583334,79.0,97.0
159,163.79128994583334,164.17590444583334,77.0,102.0
160,164.17590444583334,164.56051894583334,74.0,97.0
161,164.56051894583334,167.63743494583335,72.0,87.0
162,167.63743494583335,168.02044688541667,81.0,82.0
163,168.02204944583335,168.40506138541667,81.0,97.0
164,168.40666394583334,168.79127844583334,81.0,102.0
165,168.79127844583334,169.17589294583334,84.0,102.0
166,169.17589294583334,169.56050744583334,86.0,100.0
167,169.56050744583334,169.94351938541666,84.0,100.0
168,169.94512194583334,170.32973644583333,84.0,105.0
169,170.32973644583333,170.71435094583333,77.0,111.0
170,170.71435094583333,173.79126694583334,79.0,102.0
171,173.79126694583334,174.56049594583334,81.0,97.0
172,174.56049594583334,174.94511044583334,79.0,105.0
173,174.94511044583334,175.32972494583333,81.0,105.0
174,175.32972494583333,176.09895394583333,84.0,97.0
175,176.09895394583333,176.48356844583333,84.0,114.0
176,176.48356844583333,176.86818294583333,81.0,97.0
177,176.86818294583333,177.25279744583335,79.0,100.0
178,177.25279744583335,177.63580938541668,81.0,102.0
179,177.63741194583335,178.02202644583335,81.0,111.0
180,178.02202644583335,178.40664094583335,76.0,105.0
181,178.40664094583335,179.94349638541667,74.0,108.0
182,179.94509894583334,180.32971344583333,74.0,102.0
183,180.32971344583333,180.71272538541666,84.0,97.0
184,180.71432794583333,181.09894244583333,84.0,105.0
185,181.09894244583333,181.48355694583333,81.0,100.0
186,181.48355694583333,181.86817144583333,79.0,97.0
187,181.86817144583333,182.25278594583335,81.0,100.0
188,182.25278594583335,182.63740044583335,79.0,102.0
189,182.63740044583335,183.02201494583335,74.0,100.0
190,183.02201494583335,186.09893094583333,77.0,94.0
191,186.09893094583333,186.4819428854167,84.0,108.0
192,186.48354544583333,186.86655738541668,84.0,105.0
193,186.86815994583333,187.25277444583335,84.0,108.0
194,187.25277444583335,187.63738894583335,86.0,108.0
195,187.63738894583335,188.02200344583335,89.0,102.0
196,188.02200344583335,188.40661794583335,88.0,100.0
197,188.40661794583335,188.79123244583334,86.0,82.0
198,188.79123244583334,189.17584694583334,81.0,108.0
199,189.17584694583334,192.25116038541668,84.0,117.0
200,192.25276294583333,192.63577488541668,84.0,105.0
201,192.63737744583335,193.02038938541668,84.0,111.0
202,193.02199194583335,193.40660644583335,84.0,111.0
203,193.40660644583335,193.79122094583335,86.0,102.0
204,193.79122094583335,194.17583544583334,89.0,111.0
205,194.17583544583334,194.56044994583334,88.0,94.0
206,194.56044994583334,194.94506444583334,86.0,87.0
207,194.94506444583334,195.32967894583334,81.0,117.0
208,195.32967894583334,198.40659494583335,79.0,100.0
209,198.40659494583335,199.17582394583334,81.0,111.0
210,199.17582394583334,199.56043844583334,79.0,102.0
211,199.56043844583334,199.94505294583334,81.0,105.0
212,199.94505294583334,200.71267938541666,84.0,108.0
213,200.71428194583333,201.09889644583333,84.0,102.0
214,201.09889644583333,201.48351094583333,81.0,111.0
215,201.48351094583333,201.86812544583333,79.0,108.0
216,201.86812544583333,202.25113738541668,81.0,100.0
217,202.25273994583333,202.63735444583335,81.0,105.0
218,202.63735444583335,203.02196894583335,76.0,100.0
219,203.02196894583335,204.17581244583334,74.0,97.0
220,204.17581244583334,204.56042694583334,72.0,108.0
221,204.56042694583334,204.94343888541667,84.0,108.0
222,204.94504144583334,205.13574613541667,84.0,102.0
223,205.13734869583334,205.32805338541667,84.0,102.0
224,205.32965594583334,205.71427044583334,84.0,105.0
225,205.71427044583334,206.09888494583333,81.0,111.0
226,206.09888494583333,206.48349944583333,79.0,108.0
227,206.48349944583333,206.86811394583333,77.0,111.0
228,206.86811394583333,207.25272844583333,79.0,111.0
229,207.25272844583333,207.63734294583335,86.0,108.0
230,207.63734294583335,210.71265638541666,84.0,105.0
231,210.71425894583334,211.09727088541666,84.0,117.0
232,211.09887344583333,211.86810244583333,84.0,111.0
233,211.86810244583333,212.25271694583333,86.0,105.0
234,212.25271694583333,212.82803613541668,89.0,100.0
235,212.82963869583335,213.40656044583335,89.0,108.0
236,213.40656044583335,213.79117494583335,88.0,89.0
237,213.79117494583335,214.94501844583334,86.0,105.0
238,214.94501844583334,215.32963294583334,81.0,105.0
239,215.32963294583334,216.86809094583333,84.0,92.0
240,216.86809094583333,217.25110288541669,86.0,97.0
241,217.25270544583333,217.63571738541668,86.0,105.0
242,217.63731994583333,218.02193444583335,86.0,105.0
243,218.02193444583335,218.40654894583335,89.0,111.0
244,218.40654894583335,218.79116344583335,86.0,108.0
245,218.79116344583335,218.98186813541668,84.0,94.0
246,218.98347069583335,219.17417538541667,84.0,94.0
247,219.17577794583335,219.56039244583334,84.0,102.0
248,219.56039244583334,219.94500694583334,81.0,108.0
249,219.94500694583334,223.02032038541668,79.0,94.0
250,223.02192294583335,223.59724213541668,79.0,105.0
251,223.59884469583335,224.17576644583335,79.0,111.0
252,224.17576644583335,224.56038094583334,81.0,114.0
253,224.56038094583334,225.13570013541667,84.0,114.0
254,225.13730269583334,225.71422444583334,84.0,114.0
255,225.71422444583334,226.09883894583334,81.0,108.0
256,226.09883894583334,226.67576069583333,79.0,105.0
257,226.67576069583333,227.25268244583333,81.0,102.0
258,227.25268244583333,227.63729694583333,76.0,97.0
259,227.63729694583333,229.17575494583335,74.0,105.0
260,229.17575494583335,229.56036944583335,72.0,108.0
261,229.56036944583335,229.94338138541667,84.0,97.0
262,229.94498394583334,230.32959844583334,84.0,89.0
263,230.32959844583334,230.71421294583334,81.0,105.0
264,230.71421294583334,231.09882744583334,79.0,108.0
265,231.09882744583334,231.48344194583333,81.0,105.0
266,231.48344194583333,231.86805644583333,79.0,97.0
267,231.86805644583333,232.25267094583333,74.0,94.0
268,232.25267094583333,235.32958694583334,77.0,102.0
269,235.32958694583334,235.71259888541667,84.0,108.0
270,235.71420144583334,236.09721338541667,84.0,105.0
271,236.09881594583334,236.48343044583333,84.0,108.0
272,236.48343044583333,236.86804494583333,86.0,108.0
273,236.86804494583333,237.25265944583333,89.0,102.0
274,237.25265944583333,237.63727394583333,88.0,100.0
275,237.63727394583333,238.02188844583335,86.0,82.0
276,238.02188844583335,238.40650294583335,81.0,108.0
277,238.40650294583335,241.48181638541666,84.0,117.0
278,241.48341894583334,241.86643088541666,84.0,105.0
279,241.86803344583333,242.2510453854167,84.0,111.0
280,242.25264794583333,242.63726244583333,84.0,111.0
281,242.63726244583333,243.02187694583333,86.0,102.0
282,243.02187694583333,243.40649144583335,89.0,111.0
283,243.40649144583335,243.79110594583335,88.0,94.0
284,243.79110594583335,244.17572044583335,86.0,87.0
285,244.17572044583335,244.56033494583335,81.0,117.0
286,244.56033494583335,247.63725094583333,79.0,100.0
287,247.63725094583333,248.40647994583335,81.0,111.0
288,248.40647994583335,248.79109444583335,79.0,102.0
289,248.79109444583335,249.17570894583335,81.0,105.0
290,249.17570894583335,249.94333538541667,84.0,108.0
291,249.94493794583335,250.32955244583334,84.0,102.0
292,250.32955244583334,250.71416694583334,81.0,111.0
293,250.71416694583334,251.09878144583334,79.0,108.0
294,251.09878144583334,251.48179338541667,81.0,100.0
295,251.48339594583334,251.86801044583333,81.0,105.0
296,251.86801044583333,252.25262494583333,76.0,100.0
297,252.25262494583333,253.40646844583335,74.0,97.0
298,253.40646844583335,253.79108294583335,72.0,108.0
299,253.79108294583335,254.17409488541668,84.0,108.0
300,254.17569744583335,254.36640213541668,84.0,102.0
301,254.36800469583335,254.55870938541668,84.0,102.0
302,254.56031194583335,254.94492644583335,84.0,105.0
303,254.94492644583335,255.32954094583334,81.0,111.0
304,255.32954094583334,255.71415544583334,79.0,108.0
305,255.71415544583334,256.09876994583334,77.0,111.0
306,256.09876994583334,256.48338444583334,79.0,111.0
307,256.48338444583334,256.86799894583334,86.0,108.0
308,256.86799894583334,259.9433123854167,84.0,105.0
309,259.9449149458333,260.3279268854167,84.0,117.0
310,260.3295294458333,261.09875844583337,84.0,111.0
311,261.09875844583337,261.48337294583337,86.0,105.0
312,261.48337294583337,262.05869213541666,89.0,100.0
313,262.06029469583336,262.63721644583336,89.0,108.0
314,262.63721644583336,263.02183094583336,88.0,89.0
315,263.02183094583336,264.17567444583335,86.0,105.0
316,264.17567444583335,264.56028894583335,81.0,105.0
317,264.56028894583335,266.09874694583334,84.0,92.0
318,266.09874694583334,266.4817588854167,86.0,97.0
319,266.48336144583334,266.8663733854167,86.0,105.0
320,266.86797594583334,267.25259044583333,86.0,105.0
321,267.25259044583333,267.63720494583333,89.0,111.0
322,267.63720494583333,268.02181944583333,86.0,108.0
323,268.02181944583333,268.2125241354167,84.0,94.0
324,268.21412669583333,268.4048313854167,84.0,94.0
325,268.4064339458333,268.7910484458333,84.0,102.0
326,268.7910484458333,269.1756629458333,81.0,108.0
327,269.1756629458333,272.25097638541666,79.0,94.0
328,272.25257894583336,272.82789813541666,79.0,105.0
329,272.82950069583336,273.40642244583336,79.0,111.0
330,273.40642244583336,273.79103694583335,81.0,114.0
331,273.79103694583335,274.36635613541665,84.0,114.0
332,274.36795869583335,274.94488044583335,84.0,114.0
333,274.94488044583335,275.32949494583335,81.0,108.0
334,275.32949494583335,275.90641669583334,79.0,105.0
335,275.90641669583334,276.48333844583334,81.0,102.0
336,276.48333844583334,276.86795294583334,76.0,97.0
337,276.86795294583334,278.40641094583333,74.0,105.0
338,278.40641094583333,278.7910254458333,72.0,108.0
339,278.7910254458333,279.1740373854167,84.0,97.0
340,279.1756399458333,279.5602544458333,84.0,89.0
341,279.5602544458333,279.9448689458333,81.0,105.0
342,279.9448689458333,280.3294834458333,79.0,108.0
343,280.3294834458333,280.7140979458333,81.0,105.0
344,280.7140979458333,281.0987124458333,79.0,97.0
345,281.0987124458333,281.48332694583337,74.0,94.0
346,281.48332694583337,284.56024294583335,77.0,102.0
347,284.56024294583335,284.94485744583335,72.0,108.0
348,284.94485744583335,285.32786938541665,84.0,97.0
349,285.32947194583335,285.71408644583335,84.0,89.0
350,285.71408644583335,286.09870094583334,81.0,105.0
351,286.09870094583334,286.48331544583334,79.0,108.0
352,286.48331544583334,286.86792994583334,81.0,105.0
353,286.86792994583334,287.24889344583335,79.0,97.0
354,287.24889344583335,289.14201494375004,74.0,94.0
355,289.14201494375004,291.53624020625006,77.0,102.0
