,start,end,pitch,velocity
0,1.4839709458333334,2.4310841520833333,41.0,80.0
1,1.8685854458333333,2.4326867125000002,48.0,72.0
2,2.2531999458333334,2.63941700625,53.0,85.0
3,2.6378144458333335,3.1137748895833335,60.0,82.0
4,3.0224289458333335,3.4455048958333334,62.0,79.0
5,3.4070434458333336,4.035247129166667,57.0,67.0
6,3.0224289458333335,4.099349545833333,50.0,84.0
7,3.7916579458333333,4.480758925,62.0,74.0
8,3.7916579458333333,5.419859329166667,65.0,76.0
9,4.945501445833333,5.5208206354166665,52.0,76.0
10,5.330115945833334,5.958319629166667,57.0,78.0
11,6.099344945833334,7.1249836125,64.0,82.0
12,5.714730445833333,7.184278347916667,52.0,67.0
13,4.560886945833333,7.189086029166667,45.0,79.0
14,8.407031945833333,8.940684564583334,53.0,86.0
15,8.022417445833334,8.94709480625,48.0,83.0
16,8.791646445833333,9.203504472916666,57.0,73.0
17,7.637802945833333,9.29324785625,41.0,71.0
18,9.176260945833334,9.94709250625,62.0,83.0
19,9.560875445833334,10.224335458333334,50.0,41.0
20,9.945489945833334,10.39901454375,57.0,79.0
21,10.330104445833333,10.628180683333333,62.0,78.0
22,10.714718945833333,11.261192047916667,55.0,72.0
23,10.714718945833333,11.839716358333334,60.0,71.0
24,11.483947945833334,11.897408533333333,55.0,75.0
25,11.868562445833334,12.107343947916666,62.0,70.0
26,12.253176945833333,12.842919179166667,55.0,81.0
27,12.253176945833333,13.006380341666667,64.0,82.0
28,11.099333445833334,13.261187447916667,52.0,54.0
29,10.714718945833333,13.26439256875,48.0,69.0
30,13.022405945833334,13.410225566666668,60.0,81.0
31,13.022405945833334,13.439071654166668,55.0,82.0
32,13.791634945833334,14.318877322916666,53.0,77.0
33,13.791634945833334,14.59131259375,57.0,76.0
34,14.560863945833335,15.390990241666668,53.0,79.0
35,14.945478445833334,15.488746427083333,60.0,78.0
36,15.330092945833334,16.137783395833335,65.0,82.0
37,15.714707445833334,16.208296054166667,53.0,74.0
38,14.176249445833333,16.243552383333334,48.0,77.0
39,16.099321945833335,16.246757504166666,60.0,81.0
40,13.791634945833334,16.267590789583334,41.0,83.0
41,16.868550945833334,17.402203564583335,57.0,70.0
42,16.868550945833334,17.724318208333333,62.0,77.0
43,17.637779945833334,18.530406097916668,57.0,84.0
44,18.022394445833335,18.871751466666666,62.0,80.0
45,16.868550945833334,19.160212341666668,50.0,83.0
46,17.253165445833332,19.17784050625,53.0,72.0
47,18.407008945833333,19.280404372916667,65.0,84.0
48,18.791623445833334,19.634570225,57.0,71.0
49,19.176237945833336,20.31245328125,62.0,76.0
50,20.714695945833334,21.652193789583333,55.0,85.0
51,21.099310445833336,22.078474860416666,62.0,78.0
52,21.483924945833333,22.358922933333336,67.0,76.0
53,20.330081445833333,22.689050379166666,50.0,77.0
54,22.253153945833333,22.69706318125,55.0,78.0
55,19.945466945833335,22.76437071875,43.0,83.0
56,22.253153945833333,22.825268014583333,62.0,77.0
57,23.022382945833336,23.382959039583334,55.0,76.0
58,23.022382945833336,23.889368131250002,60.0,77.0
59,24.176226445833333,24.551225583333334,62.0,76.0
60,23.791611945833335,24.604110077083334,55.0,83.0
61,24.560840945833334,24.988724577083335,64.0,78.0
62,24.945455445833336,25.554428404166668,62.0,76.0
63,23.406997445833333,25.57686425,52.0,71.0
64,25.330069945833333,25.60090265625,60.0,72.0
65,23.022382945833336,25.632953864583335,48.0,82.0
66,26.099298945833333,26.564041466666666,53.0,59.0
67,26.099298945833333,26.84128441875,57.0,60.0
68,26.868527945833335,27.288398775,53.0,83.0
69,27.253142445833333,27.754743856250002,55.0,83.0
70,26.483913445833334,27.826859075,48.0,77.0
71,27.637756945833335,28.310832320833335,57.0,71.0
72,28.022371445833333,28.556024064583333,48.0,65.0
73,26.099298945833333,28.966279531250002,41.0,82.0
74,28.406985945833334,29.589675533333335,53.0,77.0
75,29.560829445833335,30.04320013125,48.0,73.0
76,29.945443945833333,30.55441690416667,53.0,76.0
77,30.714672945833335,32.229092539583334,53.0,77.0
78,30.330058445833334,32.23710534166667,48.0,59.0
79,30.714672945833335,32.24191302291667,57.0,77.0
80,29.176214945833333,32.26114374791667,41.0,82.0
81,32.253130945833334,32.26114374791667,41.0,81.0
82,33.02235994583334,33.3364617875,60.0,84.0
83,32.63774544583333,33.344474589583335,53.0,72.0
84,32.253130945833334,33.378128358333335,69.0,78.0
85,33.406974445833335,33.831652956250004,65.0,85.0
86,33.79158894583333,34.60729219791667,69.0,81.0
87,34.17620344583334,34.729086789583334,57.0,66.0
88,33.79158894583333,34.767548239583334,50.0,82.0
89,34.560817945833335,35.326841825,62.0,80.0
90,35.714661445833336,36.19703213125,52.0,80.0
91,36.099275945833334,36.65376185,60.0,86.0
92,36.48389044583333,36.977479054166665,52.0,75.0
93,36.86850494583334,37.306003939583334,64.0,84.0
94,36.86850494583334,37.40536268541667,57.0,83.0
95,35.33004694583333,37.81241303125,45.0,75.0
96,37.253119445833335,37.8172207125,52.0,72.0
97,37.63773394583333,37.84766936041667,60.0,83.0
98,37.63773394583333,37.88292568958333,57.0,83.0
99,38.406962945833335,39.1826021875,57.0,80.0
100,38.79157744583333,39.68740871875,48.0,73.0
101,38.406962945833335,39.70663944375,41.0,82.0
102,39.17619194583334,39.80920331041667,53.0,84.0
103,39.560806445833336,39.92939534166667,57.0,82.0
104,39.945420945833334,40.35888153333333,62.0,78.0
105,40.33003544583333,40.825226614583336,57.0,73.0
106,39.945420945833334,40.988687777083335,50.0,78.0
107,40.71464994583334,41.38612276041667,65.0,83.0
108,41.48387894583333,41.68099387708333,55.0,70.0
109,41.48387894583333,42.10086470625,60.0,78.0
110,41.86849344583334,42.31881292291667,55.0,82.0
111,42.253107945833335,42.61208147916667,62.0,83.0
112,42.63772244583333,42.87329882708333,60.0,73.0
113,43.02233694583334,43.211439075,55.0,83.0
114,43.406951445833336,43.63932270625,55.0,73.0
115,43.02233694583334,43.66816879375,64.0,83.0
116,43.791565945833334,43.990283437500004,55.0,84.0
117,41.48387894583333,44.2018214125,48.0,83.0
118,43.791565945833334,44.23387262083333,60.0,83.0
119,44.17618044583333,44.35085953125,55.0,77.0
120,44.56079494583334,45.017524664583334,57.0,76.0
121,44.56079494583334,45.36047259375,60.0,78.0
122,45.33002394583333,46.171368164583335,57.0,87.0
123,45.71463844583334,46.180983527083335,60.0,91.0
124,44.945409445833334,46.24508594375,48.0,67.0
125,46.099252945833335,46.78995648541667,65.0,85.0
126,46.48386744583333,47.00469958125,48.0,69.0
127,44.56079494583334,47.02393030625,41.0,82.0
128,46.86848194583334,47.05117383333334,57.0,85.0
129,46.86848194583334,47.23226316041667,60.0,86.0
130,47.637710945833334,48.25309414583334,60.0,82.0
131,47.637710945833334,48.2595043875,57.0,82.0
132,48.40693994583334,48.80758005,60.0,78.0
133,48.40693994583334,48.81399029166667,64.0,87.0
134,48.02232544583333,48.873285027083334,52.0,77.0
135,47.637710945833334,48.91014391666667,45.0,82.0
136,48.791554445833334,49.23706624166667,57.0,83.0
137,49.17616894583333,50.084820702083334,50.0,82.0
138,49.56078344583334,50.09764118541667,53.0,70.0
139,49.17616894583333,50.166551283333334,62.0,83.0
140,49.945397945833335,50.297961237500004,65.0,83.0
141,50.71462694583334,51.49667642916667,57.0,79.0
142,50.71462694583334,51.54635580208333,53.0,78.0
143,51.099241445833336,51.62648382291667,48.0,78.0
144,50.71462694583334,51.67616319583333,41.0,82.0
145,51.483855945833334,51.90212421458334,60.0,81.0
146,51.86847044583333,52.198597891666665,57.0,78.0
147,52.253084945833336,52.695391620833334,60.0,81.0
148,52.253084945833336,52.90212191458333,55.0,80.0
149,53.02231394583333,53.25308264583334,55.0,84.0
150,52.253084945833336,53.26430056875,48.0,81.0
151,52.637699445833334,53.28192873333334,52.0,80.0
152,53.02231394583333,53.362056754166666,64.0,87.0
153,53.791542945833335,54.129683193750004,57.0,73.0
154,53.791542945833335,54.63288716458334,60.0,79.0
155,53.791542945833335,54.65852813125,65.0,82.0
156,54.56077194583334,55.35724447291667,57.0,81.0
157,54.945386445833336,55.403718725000004,60.0,74.0
158,54.17615744583333,55.52230819583333,48.0,77.0
159,55.33000094583333,55.79634602708334,65.0,84.0
160,55.71461544583334,56.365254975,48.0,69.0
161,53.791542945833335,56.61204927916667,41.0,82.0
162,56.099229945833336,56.78192068333333,57.0,82.0
163,56.099229945833336,56.79474116666667,60.0,85.0
164,56.099229945833336,56.80595908958333,65.0,84.0
165,56.86845894583333,56.99666377916667,41.0,81.0
166,57.637687945833335,57.951789787500005,60.0,84.0
167,57.25307344583334,57.95980258958333,53.0,72.0
168,56.86845894583333,57.99345635833333,69.0,78.0
169,58.02230244583333,58.44698095625,65.0,85.0
170,58.40691694583334,59.22262019791667,69.0,81.0
171,58.791531445833336,59.34441478958333,57.0,66.0
172,58.40691694583334,59.38287623958333,50.0,82.0
173,59.17614594583333,59.942169825,62.0,80.0
174,60.329989445833334,60.81236013125,52.0,80.0
175,60.71460394583333,61.26908985,60.0,86.0
176,61.09921844583334,61.59280705416667,52.0,75.0
177,61.483832945833335,61.92133193958333,64.0,84.0
178,61.483832945833335,62.02069068541667,57.0,83.0
179,59.945374945833336,62.42774103125,45.0,75.0
180,61.86844744583333,62.4325487125,52.0,72.0
181,62.25306194583334,62.462997360416665,60.0,83.0
182,62.25306194583334,62.498253689583336,57.0,83.0
183,63.02229094583333,63.7979301875,57.0,80.0
184,63.40690544583334,64.30273671875,48.0,73.0
185,63.02229094583333,64.32196744375,41.0,82.0
186,63.791519945833336,64.42453131041667,53.0,84.0
187,64.17613444583334,64.54472334166667,57.0,82.0
188,64.56074894583334,64.97420953333334,62.0,78.0
189,64.94536344583334,65.44055461458333,57.0,73.0
190,64.56074894583334,65.60401577708333,50.0,78.0
191,65.32997794583333,66.00145076041667,65.0,83.0
192,66.09920694583333,66.29632187708333,55.0,70.0
193,66.09920694583333,66.71619270625,60.0,78.0
194,66.48382144583333,66.93414092291667,55.0,82.0
195,66.86843594583334,67.22740947916667,62.0,83.0
196,67.25305044583334,67.48862682708334,60.0,73.0
197,67.63766494583334,67.826767075,55.0,83.0
198,68.02227944583333,68.25465070625,55.0,73.0
199,67.63766494583334,68.28349679375,64.0,83.0
200,68.40689394583333,68.6056114375,55.0,84.0
201,66.09920694583333,68.8171494125,48.0,83.0
202,68.40689394583333,68.84920062083333,60.0,83.0
203,68.79150844583333,68.96618753125,55.0,77.0
204,69.17612294583334,69.63285266458334,57.0,76.0
205,69.17612294583334,69.97580059375001,60.0,78.0
206,69.94535194583334,70.78669616458333,57.0,87.0
207,70.32996644583334,70.79631152708333,60.0,91.0
208,69.56073744583334,70.86041394375,48.0,67.0
209,70.71458094583333,71.40528448541667,65.0,85.0
210,71.09919544583333,71.62002758125,48.0,69.0
211,69.17612294583334,71.63925830625,41.0,82.0
212,71.48380994583333,71.66650183333334,57.0,85.0
213,71.48380994583333,71.84759116041667,60.0,86.0
214,72.25303894583334,72.86842214583334,60.0,82.0
215,72.25303894583334,72.8748323875,57.0,82.0
216,73.02226794583333,73.42290805,60.0,78.0
217,73.02226794583333,73.42931829166668,64.0,87.0
218,72.63765344583334,73.48861302708333,52.0,77.0
219,72.25303894583334,73.52547191666667,45.0,82.0
220,73.40688244583333,73.85239424166667,57.0,83.0
221,73.79149694583333,74.70014870208334,50.0,82.0
222,74.17611144583334,74.71296918541667,53.0,70.0
223,73.79149694583333,74.78187928333334,62.0,83.0
224,74.56072594583334,74.9132892375,65.0,83.0
225,75.32995494583334,76.11200442916667,57.0,79.0
226,75.32995494583334,76.16168380208333,53.0,78.0
227,75.71456944583333,76.24181182291667,48.0,78.0
228,75.32995494583334,76.29149119583333,41.0,82.0
229,76.09918394583333,76.51745221458333,60.0,81.0
230,76.48379844583333,76.81392589166667,57.0,78.0
231,76.86841294583334,77.31071962083334,60.0,81.0
232,76.86841294583334,77.51744991458334,55.0,80.0
233,77.63764194583334,77.86841064583334,55.0,84.0
234,76.86841294583334,77.87962856875001,48.0,81.0
235,77.25302744583334,77.89725673333334,52.0,80.0
236,77.63764194583334,77.97738475416666,64.0,87.0
237,78.40687094583333,78.74501119375,57.0,73.0
238,78.40687094583333,79.24821516458334,60.0,79.0
239,78.40687094583333,79.27385613125,65.0,82.0
240,79.17609994583333,79.97257247291667,57.0,81.0
241,79.56071444583334,80.019046725,60.0,74.0
242,78.79148544583333,80.13763619583334,48.0,77.0
243,79.94532894583334,80.41167402708334,65.0,84.0
244,80.32994344583334,80.980582975,48.0,69.0
245,78.40687094583333,81.22737727916667,41.0,82.0
246,80.71455794583333,81.39724868333333,57.0,82.0
247,80.71455794583333,81.41006916666667,60.0,85.0
248,80.71455794583333,81.42128708958333,65.0,84.0
249,81.48378694583333,81.94532434583334,65.0,84.0
250,81.48378694583333,81.95974738958334,69.0,84.0
251,81.86840144583334,82.28506715416667,60.0,82.0
252,81.48378694583333,82.37160541666667,41.0,78.0
253,82.25301594583334,82.71615590625001,69.0,78.0
254,82.25301594583334,82.72737382916667,65.0,78.0
255,82.63763044583334,82.89243755208334,60.0,91.0
256,83.02224494583334,83.53185915833333,69.0,82.0
257,83.02224494583334,83.55589756458333,65.0,82.0
258,83.40685944583333,83.90525573541667,57.0,80.0
259,83.79147394583333,83.96294791041667,62.0,82.0
260,83.02224494583334,84.00621704166667,50.0,85.0
261,83.79147394583333,84.25781902708333,65.0,86.0
262,84.17608844583333,84.39884434375,62.0,84.0
263,84.56070294583334,85.17288102500001,64.0,82.0
264,84.94531744583334,85.36518827500001,52.0,83.0
265,84.56070294583334,85.50941871250001,45.0,82.0
266,85.32993194583334,85.88922553125,57.0,96.0
267,85.71454644583334,86.32351940416667,52.0,83.0
268,86.09916094583333,86.57672395,64.0,87.0
269,86.09916094583333,86.61198027916667,60.0,87.0
270,86.48377544583333,86.76582607916667,57.0,83.0
271,86.86838994583334,87.05428695416667,57.0,84.0
272,86.86838994583334,87.31390174166667,60.0,87.0
273,86.86838994583334,87.32191454375,64.0,83.0
274,87.25300444583334,87.44050401458334,57.0,85.0
275,87.63761894583334,88.17607924583334,69.0,82.0
276,87.63761894583334,88.19210485,65.0,82.0
277,88.02223344583334,88.60075775625,48.0,79.0
278,87.63761894583334,88.62319360208333,41.0,83.0
279,88.40684794583333,88.86037254375,69.0,85.0
280,88.40684794583333,88.86838534583333,65.0,85.0
281,88.79146244583333,89.03665418958333,60.0,84.0
282,89.17607694583333,89.999793,69.0,84.0
283,89.17607694583333,90.02703652708334,65.0,83.0
284,89.56069144583334,90.18569000833334,57.0,77.0
285,89.17607694583333,90.26581802916667,50.0,82.0
286,89.94530594583334,90.36036909375001,62.0,84.0
287,90.32992044583334,90.52062513541667,69.0,85.0
288,90.32992044583334,90.55588146458334,65.0,83.0
289,90.71453494583334,91.20812355416668,60.0,83.0
290,90.71453494583334,91.23857220208333,64.0,89.0
291,91.48376394583333,91.9324808625,62.0,88.0
292,90.71453494583334,92.09113434375,48.0,84.0
293,91.09914944583333,92.09914714583334,55.0,77.0
294,91.86837844583333,92.17607004583334,64.0,84.0
295,92.25299294583334,92.59433831458334,64.0,84.0
296,92.25299294583334,92.64241512708334,67.0,79.0
297,92.25299294583334,92.82510701458334,60.0,80.0
298,92.63760744583334,93.13600373541666,55.0,76.0
299,92.25299294583334,93.20331127291666,48.0,87.0
300,93.02222194583334,93.21933687708334,60.0,85.0
301,93.02222194583334,93.42125948958333,64.0,91.0
302,93.40683644583333,93.67766915625,60.0,89.0
303,93.79145094583333,93.98215563541667,60.0,89.0
304,93.79145094583333,93.9901684375,41.0,82.0
305,93.79145094583333,94.26901395,65.0,84.0
306,94.17606544583333,94.64080796666667,60.0,78.0
307,94.56067994583334,94.96933285208334,65.0,87.0
308,94.94529444583334,95.39881904375001,60.0,85.0
309,95.32990894583334,95.79945914791666,69.0,85.0
310,95.32990894583334,95.8363180375,65.0,84.0
311,94.17606544583333,96.04945857291666,53.0,58.0
312,95.71452344583334,96.15522756041668,60.0,76.0
313,96.09913794583333,96.4901626875,65.0,83.0
314,96.09913794583333,96.51099597291667,69.0,86.0
315,96.48375244583333,96.62638032291667,60.0,83.0
316,96.86836694583333,97.35073763125,60.0,83.0
317,96.86836694583333,97.66003179166667,57.0,82.0
318,97.63759594583334,97.98535155625001,64.0,98.0
319,97.63759594583334,98.00618484166667,60.0,80.0
320,97.25298144583334,98.06067189583334,52.0,78.0
321,96.86836694583333,98.13599223541667,45.0,82.0
322,98.02221044583334,98.41964542916666,57.0,84.0
323,98.40682494583334,98.8555418625,62.0,82.0
324,98.40682494583334,98.86355466458333,65.0,84.0
325,98.79143944583333,99.24336148333333,57.0,86.0
326,99.17605394583333,99.46771994166667,62.0,88.0
327,98.79143944583333,99.69368096041667,53.0,70.0
328,98.40682494583334,99.74816801458334,50.0,81.0
329,99.56066844583334,99.826693475,57.0,89.0
330,99.94528294583334,100.53021749791667,69.0,84.0
331,99.94528294583334,100.54143542083334,65.0,84.0
332,100.71451194583334,100.90201151458334,60.0,85.0
333,100.32989744583334,101.08470340208333,48.0,67.0
334,99.94528294583334,101.08951108333333,41.0,82.0
335,101.09912644583333,101.288228575,60.0,84.0
336,100.71451194583334,101.31867722291668,65.0,88.0
337,101.48374094583333,101.87636824791667,67.0,81.0
338,101.48374094583333,101.903611775,62.0,83.0
339,102.25296994583334,102.34591845,62.0,75.0
340,101.86835544583333,102.35873893333334,50.0,71.0
341,101.48374094583333,102.49655912916667,43.0,83.0
342,102.25296994583334,102.71450734583334,71.0,84.0
343,102.25296994583334,102.73373807083334,67.0,83.0
344,102.63758444583334,102.80585328958334,62.0,82.0
345,103.02219894583334,103.53341571875,60.0,85.0
346,103.02219894583334,103.53662083958334,64.0,86.0
347,103.79142794583333,104.06867089791668,60.0,93.0
348,103.40681344583334,104.36033689375,55.0,82.0
349,103.02219894583334,104.3939906625,48.0,84.0
350,104.17604244583333,104.47411868333333,62.0,91.0
351,104.56065694583333,104.83469477708334,60.0,84.0
352,104.56065694583333,104.91963047916667,64.0,91.0
353,104.56065694583333,105.21450159583334,48.0,88.0
354,104.94527144583334,105.23533488125,62.0,89.0
355,105.32988594583334,105.57988537083334,60.0,96.0
356,105.71450044583334,106.05424325416666,60.0,96.0
357,105.32988594583334,106.0862944625,48.0,86.0
358,105.32988594583334,106.09911494583334,55.0,83.0
359,106.09911494583334,106.22411465833333,41.0,82.0
360,106.09911494583334,106.52379345625,69.0,82.0
361,106.09911494583334,106.53981906041668,65.0,83.0
362,106.48372944583333,106.91962587916667,60.0,82.0
363,106.86834394583333,107.28180453333334,65.0,84.0
364,107.25295844583334,107.68084207708334,60.0,83.0
365,107.63757294583334,108.06545657708334,69.0,87.0
366,107.63757294583334,108.13436667500001,65.0,83.0
367,108.02218744583334,108.48051972500001,60.0,80.0
368,106.86834394583333,108.72250634791666,53.0,80.0
369,108.40680194583334,108.86353166458333,65.0,89.0
370,108.79141644583333,108.94686480625,60.0,87.0
371,109.17603094583333,109.63917090625,65.0,85.0
372,109.56064544583333,109.92122153958334,57.0,70.0
373,109.17603094583333,109.95968298958334,62.0,83.0
374,109.17603094583333,109.96128555,50.0,84.0
375,109.94525994583334,110.30904116041667,69.0,84.0
376,109.94525994583334,110.35711797291667,65.0,83.0
377,110.32987444583334,110.44045111458334,62.0,86.0
378,110.71448894583334,111.22891083958334,60.0,83.0
379,110.71448894583334,111.557435725,57.0,82.0
380,111.48371794583333,111.90519133541667,64.0,89.0
381,111.48371794583333,111.90999901666667,60.0,82.0
382,111.09910344583334,112.01737056458333,52.0,82.0
383,110.71448894583334,112.08147298125,45.0,83.0
384,111.86833244583333,112.1535882,57.0,80.0
385,112.25294694583334,112.70647154375,62.0,84.0
386,112.63756144583334,113.09909884583334,57.0,83.0
387,113.02217594583334,113.53820040000001,65.0,87.0
388,113.40679044583334,113.85230224166666,57.0,88.0
389,113.79140494583334,114.25454490625,62.0,84.0
390,114.17601944583333,114.60871075833333,57.0,84.0
391,112.25294694583334,114.8170436125,50.0,87.0
392,114.56063394583333,114.93563308333334,65.0,89.0
393,114.94524844583334,115.06544047708334,57.0,88.0
394,115.32986294583334,115.61191357916667,55.0,79.0
395,115.32986294583334,115.65678527083334,60.0,78.0
396,115.71447744583334,116.26575822916666,55.0,82.0
397,116.09909194583334,116.77056476041668,62.0,88.0
398,116.48370644583333,117.057423075,55.0,87.0
399,116.86832094583333,117.32024298333334,64.0,89.0
400,116.86832094583333,117.37633259791667,60.0,84.0
401,115.32986294583334,117.7689599,48.0,85.0
402,117.25293544583333,117.79620342708334,55.0,81.0
403,117.63754994583334,117.82184439375,60.0,82.0
404,117.63754994583334,117.87793400833334,64.0,89.0
405,117.63754994583334,117.90678009583334,67.0,82.0
406,118.02216444583334,118.14235647708334,48.0,83.0
407,118.40677894583334,118.52376585625001,36.0,79.0
408,118.40677894583334,118.99331605833333,64.0,84.0
409,118.40677894583334,119.05261079375,60.0,81.0
410,118.79139344583334,119.61831462083333,48.0,82.0
411,119.17600794583333,119.66639143333333,67.0,83.0
412,119.17600794583333,119.6920324,64.0,88.0
413,119.56062244583333,119.80581418958333,60.0,79.0
414,119.94523694583334,120.24651830416667,60.0,83.0
415,119.94523694583334,120.480492125,65.0,82.0
416,120.32985144583334,121.02696522708334,48.0,82.0
417,119.94523694583334,121.17600334583334,41.0,81.0
418,120.71446594583334,121.31702866250001,69.0,77.0
419,120.71446594583334,121.36510547500001,65.0,83.0
420,121.09908044583334,121.44042581458334,60.0,83.0
421,121.48369494583334,121.74330973333333,64.0,84.0
422,121.48369494583334,122.05580901458333,69.0,82.0
423,121.86830944583333,122.24330858333333,64.0,85.0
424,121.86830944583333,122.44683375625,52.0,67.0
425,122.25292394583333,122.61189747916667,72.0,89.0
426,121.48369494583334,122.61991028125,45.0,83.0
427,122.25292394583333,122.65676917083334,69.0,84.0
428,122.63753844583334,122.75452535625,64.0,89.0
429,123.02215294583334,123.55580556458334,65.0,83.0
430,123.02215294583334,123.70003600208334,62.0,83.0
431,123.40676744583334,123.87471508750001,57.0,76.0
432,123.02215294583334,124.018945525,50.0,82.0
433,123.79138194583334,124.19041948958333,69.0,85.0
434,123.79138194583334,124.23689374166668,65.0,82.0
435,124.17599644583333,124.55259814375,62.0,87.0
436,124.94522544583334,125.6824032375,48.0,68.0
437,124.56061094583333,125.77855686250001,41.0,83.0
438,125.32983994583334,125.78336454375001,57.0,84.0
439,125.71445444583334,125.87150536666667,53.0,86.0
440,126.09906894583334,126.30900436041667,55.0,84.0
441,126.09906894583334,126.57342682916666,60.0,86.0
442,126.48368344583334,126.93400292291668,55.0,83.0
443,126.86829794583333,127.22406635833333,64.0,89.0
444,126.86829794583333,127.249707325,60.0,85.0
445,126.09906894583334,127.26893805,48.0,83.0
446,127.25291244583333,127.38913008125,55.0,83.0
447,127.63752694583334,127.73528313125,41.0,83.0
448,127.63752694583334,127.86829564583334,53.0,78.0
449,127.63752694583334,127.9323980625,57.0,79.0
450,128.79137044583334,129.19521567083333,65.0,88.0
451,128.40675594583334,129.33463842708335,60.0,87.0
452,129.17598494583333,129.73367597083333,67.0,89.0
453,129.56059944583333,130.03816245000002,60.0,75.0
454,129.94521394583333,130.69040453958334,65.0,83.0
455,128.02214144583334,130.70803270416667,53.0,80.0
456,129.94521394583333,130.711237825,69.0,83.0
457,130.32982844583333,130.71764806666667,60.0,78.0
458,130.71444294583333,131.66155615208334,41.0,80.0
459,131.09905744583332,131.6631587125,48.0,72.0
460,131.48367194583335,131.86988900625,53.0,85.0
461,131.86828644583335,132.34424688958333,60.0,82.0
462,132.25290094583335,132.67597689583334,62.0,79.0
463,132.63751544583334,133.26571912916668,57.0,67.0
464,132.25290094583335,133.32982154583334,50.0,84.0
465,133.02212994583334,133.711230925,62.0,74.0
466,133.02212994583334,134.65033132916668,65.0,76.0
467,134.17597344583334,134.75129263541666,52.0,76.0
468,134.56058794583333,135.18879162916667,57.0,78.0
469,135.32981694583333,136.3554556125,64.0,82.0
470,134.94520244583333,136.41475034791668,52.0,67.0
471,133.79135894583334,136.41955802916667,45.0,79.0
472,137.63750394583334,138.17115656458333,53.0,86.0
473,137.25288944583335,138.17756680625,48.0,83.0
474,138.02211844583334,138.43397647291667,57.0,73.0
475,136.86827494583335,138.52371985625,41.0,71.0
476,138.40673294583334,139.17756450625,62.0,83.0
477,138.79134744583334,139.45480745833333,50.0,41.0
478,139.17596194583334,139.62948654375,57.0,79.0
479,139.56057644583333,139.85865268333333,62.0,78.0
480,139.94519094583333,140.49166404791666,55.0,72.0
481,139.94519094583333,141.07018835833333,60.0,71.0
482,140.71441994583333,141.12788053333333,55.0,75.0
483,141.09903444583333,141.33781594791668,62.0,70.0
484,141.48364894583335,142.07339117916666,55.0,81.0
485,141.48364894583335,142.23685234166666,64.0,82.0
486,140.32980544583333,142.49165944791667,52.0,54.0
487,139.94519094583333,142.49486456875002,48.0,69.0
488,142.25287794583335,142.64069756666666,60.0,81.0
489,142.25287794583335,142.66954365416666,55.0,82.0
490,143.02210694583334,143.54934932291667,53.0,77.0
491,143.02210694583334,143.82178459375,57.0,76.0
492,143.79133594583334,144.62146224166668,53.0,79.0
493,144.17595044583334,144.71921842708335,60.0,78.0
494,144.56056494583333,145.36825539583333,65.0,82.0
495,144.94517944583333,145.43876805416667,53.0,74.0
496,143.40672144583334,145.47402438333333,48.0,77.0
497,145.32979394583333,145.47722950416667,60.0,81.0
498,143.02210694583334,145.49806278958334,41.0,83.0
499,146.09902294583333,146.63267556458334,57.0,70.0
500,146.09902294583333,146.95479020833335,62.0,77.0
501,146.86825194583335,147.76087809791667,57.0,84.0
502,147.25286644583335,148.10222346666666,62.0,80.0
503,146.09902294583333,148.39068434166668,50.0,83.0
504,146.48363744583332,148.40831250625,53.0,72.0
505,147.63748094583335,148.51087637291667,65.0,84.0
506,148.02209544583334,148.865042225,57.0,71.0
507,148.40670994583334,149.54292528125,62.0,76.0
508,149.94516794583333,150.88266578958334,55.0,85.0
509,150.32978244583333,151.30894686041668,62.0,78.0
510,150.71439694583333,151.58939493333332,67.0,76.0
511,149.56055344583334,151.91952237916666,50.0,77.0
512,151.48362594583332,151.92753518125,55.0,78.0
513,149.17593894583334,151.99484271875,43.0,83.0
514,151.48362594583332,152.05574001458334,62.0,77.0
515,152.25285494583335,152.61343103958333,55.0,76.0
516,152.25285494583335,153.11984013125002,60.0,77.0
517,153.40669844583334,153.78169758333334,62.0,76.0
518,153.02208394583334,153.83458207708333,55.0,83.0
519,153.79131294583334,154.21919657708335,64.0,78.0
520,154.17592744583334,154.78490040416668,62.0,76.0
521,152.63746944583335,154.80733625,52.0,71.0
522,154.56054194583334,154.83137465625,60.0,72.0
523,152.25285494583335,154.86342586458335,48.0,82.0
524,155.32977094583333,155.79451346666667,53.0,59.0
525,155.32977094583333,156.07175641875,57.0,60.0
526,156.09899994583333,156.518870775,53.0,83.0
527,156.48361444583333,156.98521585625,55.0,83.0
528,155.71438544583333,157.057331075,48.0,77.0
529,156.86822894583335,157.54130432083335,57.0,71.0
530,157.25284344583335,157.78649606458333,48.0,65.0
531,155.32977094583333,158.19675153125002,41.0,82.0
532,157.63745794583335,158.82014753333334,53.0,77.0
533,158.79130144583334,159.27367213125,48.0,73.0
534,159.17591594583334,159.78488890416668,53.0,76.0
535,159.94514494583333,161.45956453958334,53.0,77.0
536,159.56053044583334,161.46757734166667,48.0,59.0
537,159.94514494583333,161.47238502291668,57.0,77.0
538,158.40668694583334,161.49161574791668,41.0,82.0
539,161.48360294583333,161.49161574791668,41.0,81.0
540,162.25283194583335,162.5669337875,60.0,84.0
541,161.86821744583335,162.57494658958333,53.0,72.0
542,161.48360294583333,162.60860035833335,69.0,78.0
543,162.63744644583335,163.06212495625002,65.0,85.0
544,163.02206094583335,163.83776419791667,69.0,81.0
545,163.40667544583334,163.95955878958333,57.0,66.0
546,163.02206094583335,163.99802023958333,50.0,82.0
547,163.79128994583334,164.557313825,62.0,80.0
548,164.94513344583333,165.42750413125,52.0,80.0
549,165.32974794583333,165.88423385000002,60.0,86.0
550,165.71436244583333,166.20795105416667,52.0,75.0
551,166.09897694583333,166.53647593958334,64.0,84.0
552,166.09897694583333,166.63583468541668,57.0,83.0
553,164.56051894583334,167.04288503125,45.0,75.0
554,166.48359144583333,167.0476927125,52.0,72.0
555,166.86820594583335,167.07814136041668,60.0,83.0
556,166.86820594583335,167.11339768958334,57.0,83.0
557,167.63743494583335,168.4130741875,57.0,80.0
558,168.02204944583335,168.91788071875,48.0,73.0
559,167.63743494583335,168.93711144375,41.0,82.0
560,168.40666394583334,169.03967531041667,53.0,84.0
561,168.79127844583334,169.15986734166668,57.0,82.0
562,169.17589294583334,169.58935353333334,62.0,78.0
563,169.56050744583334,170.05569861458335,57.0,73.0
564,169.17589294583334,170.21915977708335,50.0,78.0
565,169.94512194583334,170.61659476041666,65.0,83.0
566,170.71435094583333,170.91146587708334,55.0,70.0
567,170.71435094583333,171.33133670625,60.0,78.0
568,171.09896544583333,171.54928492291668,55.0,82.0
569,171.48357994583333,171.84255347916667,62.0,83.0
570,171.86819444583332,172.10377082708334,60.0,73.0
571,172.25280894583335,172.441911075,55.0,83.0
572,172.63742344583335,172.86979470625002,55.0,73.0
573,172.25280894583335,172.89864079375002,64.0,83.0
574,173.02203794583335,173.2207554375,55.0,84.0
575,170.71435094583333,173.4322934125,48.0,83.0
576,173.02203794583335,173.46434462083334,60.0,83.0
577,173.40665244583334,173.58133153125002,55.0,77.0
578,173.79126694583334,174.24799666458333,57.0,76.0
579,173.79126694583334,174.59094459375,60.0,78.0
580,174.56049594583334,175.40184016458335,57.0,87.0
581,174.94511044583334,175.41145552708335,60.0,91.0
582,174.17588144583334,175.47555794375,48.0,67.0
583,175.32972494583333,176.02042848541666,65.0,85.0
584,175.71433944583333,176.23517158125,48.0,69.0
585,173.79126694583334,176.25440230625,41.0,82.0
586,176.09895394583333,176.28164583333333,57.0,85.0
587,176.09895394583333,176.46273516041668,60.0,86.0
588,176.86818294583333,177.48356614583335,60.0,82.0
589,176.86818294583333,177.4899763875,57.0,82.0
590,177.63741194583335,178.03805205,60.0,78.0
591,177.63741194583335,178.04446229166666,64.0,87.0
592,177.25279744583335,178.10375702708333,52.0,77.0
593,176.86818294583333,178.14061591666666,45.0,82.0
594,178.02202644583335,178.46753824166666,57.0,83.0
595,178.40664094583335,179.31529270208333,50.0,82.0
596,178.79125544583334,179.32811318541667,53.0,70.0
597,178.40664094583335,179.39702328333334,62.0,83.0
598,179.17586994583334,179.5284332375,65.0,83.0
599,179.94509894583334,180.72714842916668,57.0,79.0
600,179.94509894583334,180.77682780208335,53.0,78.0
601,180.32971344583333,180.85695582291666,48.0,78.0
602,179.94509894583334,180.90663519583333,41.0,82.0
603,180.71432794583333,181.13259621458334,60.0,81.0
604,181.09894244583333,181.42906989166667,57.0,78.0
605,181.48355694583333,181.92586362083333,60.0,81.0
606,181.48355694583333,182.13259391458334,55.0,80.0
607,182.25278594583335,182.48355464583335,55.0,84.0
608,181.48355694583333,182.49477256875,48.0,81.0
609,181.86817144583333,182.51240073333335,52.0,80.0
610,182.25278594583335,182.59252875416666,64.0,87.0
611,183.02201494583335,183.36015519375002,57.0,73.0
612,183.02201494583335,183.86335916458333,60.0,79.0
613,183.02201494583335,183.88900013125001,65.0,82.0
614,183.79124394583334,184.58771647291667,57.0,81.0
615,184.17585844583334,184.634190725,60.0,74.0
616,183.40662944583335,184.75278019583334,48.0,77.0
617,184.56047294583334,185.02681802708335,65.0,84.0
618,184.94508744583334,185.59572697500002,48.0,69.0
619,183.02201494583335,185.84252127916668,41.0,82.0
620,185.32970194583334,186.01239268333333,57.0,82.0
621,185.32970194583334,186.02521316666667,60.0,85.0
622,185.32970194583334,186.03643108958335,65.0,84.0
623,186.09893094583333,186.56046834583333,65.0,84.0
624,186.09893094583333,186.57489138958334,69.0,84.0
625,186.48354544583333,186.90021115416667,60.0,82.0
626,186.09893094583333,186.98674941666667,41.0,78.0
627,186.86815994583333,187.33129990625,69.0,78.0
628,186.86815994583333,187.34251782916667,65.0,78.0
629,187.25277444583335,187.50758155208334,60.0,91.0
630,187.63738894583335,188.14700315833335,69.0,82.0
631,187.63738894583335,188.17104156458333,65.0,82.0
632,188.02200344583335,188.52039973541667,57.0,80.0
633,188.40661794583335,188.57809191041667,62.0,82.0
634,187.63738894583335,188.62136104166666,50.0,85.0
635,188.40661794583335,188.87296302708333,65.0,86.0
636,188.79123244583334,189.01398834375001,62.0,84.0
637,189.17584694583334,189.788025025,64.0,82.0
638,189.56046144583334,189.980332275,52.0,83.0
639,189.17584694583334,190.1245627125,45.0,82.0
640,189.94507594583334,190.50436953125,57.0,96.0
641,190.32969044583334,190.93866340416668,52.0,83.0
642,190.71430494583333,191.19186795000002,64.0,87.0
643,190.71430494583333,191.22712427916667,60.0,87.0
644,191.09891944583333,191.38097007916667,57.0,83.0
645,191.48353394583333,191.66943095416667,57.0,84.0
646,191.48353394583333,191.92904574166667,60.0,87.0
647,191.48353394583333,191.93705854375,64.0,83.0
648,191.86814844583333,192.05564801458334,57.0,85.0
649,192.25276294583333,192.79122324583335,69.0,82.0
650,192.25276294583333,192.80724885,65.0,82.0
651,192.63737744583335,193.21590175625002,48.0,79.0
652,192.25276294583333,193.23833760208333,41.0,83.0
653,193.02199194583335,193.47551654375002,69.0,85.0
654,193.02199194583335,193.48352934583335,65.0,85.0
655,193.40660644583335,193.65179818958333,60.0,84.0
656,193.79122094583335,194.614937,69.0,84.0
657,193.79122094583335,194.64218052708333,65.0,83.0
658,194.17583544583334,194.80083400833334,57.0,77.0
659,193.79122094583335,194.88096202916668,50.0,82.0
660,194.56044994583334,194.97551309375,62.0,84.0
661,194.94506444583334,195.13576913541667,69.0,85.0
662,194.94506444583334,195.17102546458335,65.0,83.0
663,195.32967894583334,195.82326755416668,60.0,83.0
664,195.32967894583334,195.85371620208335,64.0,89.0
665,196.09890794583333,196.54762486250002,62.0,88.0
666,195.32967894583334,196.70627834375,48.0,84.0
667,195.71429344583333,196.71429114583333,55.0,77.0
668,196.48352244583333,196.79121404583333,64.0,84.0
669,196.86813694583333,197.20948231458334,64.0,84.0
670,196.86813694583333,197.25755912708334,67.0,79.0
671,196.86813694583333,197.44025101458334,60.0,80.0
672,197.25275144583333,197.75114773541668,55.0,76.0
673,196.86813694583333,197.81845527291668,48.0,87.0
674,197.63736594583335,197.83448087708334,60.0,85.0
675,197.63736594583335,198.03640348958334,64.0,91.0
676,198.02198044583335,198.29281315625002,60.0,89.0
677,198.40659494583335,198.59729963541668,60.0,89.0
678,198.40659494583335,198.6053124375,41.0,82.0
679,198.40659494583335,198.88415795,65.0,84.0
680,198.79120944583335,199.2559519666667,60.0,78.0
681,199.17582394583334,199.58447685208333,65.0,87.0
682,199.56043844583334,200.01396304375,60.0,85.0
683,199.94505294583334,200.41460314791667,69.0,85.0
684,199.94505294583334,200.4514620375,65.0,84.0
685,198.79120944583335,200.66460257291666,53.0,58.0
686,200.32966744583334,200.77037156041666,60.0,76.0
687,200.71428194583333,201.10530668750002,65.0,83.0
688,200.71428194583333,201.12613997291666,69.0,86.0
689,201.09889644583333,201.24152432291666,60.0,83.0
690,201.48351094583333,201.96588163125,60.0,83.0
691,201.48351094583333,202.27517579166667,57.0,82.0
692,202.25273994583333,202.60049555625,64.0,98.0
693,202.25273994583333,202.62132884166667,60.0,80.0
694,201.86812544583333,202.67581589583335,52.0,78.0
695,201.48351094583333,202.75113623541668,45.0,82.0
696,202.63735444583335,203.03478942916666,57.0,84.0
697,203.02196894583335,203.4706858625,62.0,82.0
698,203.02196894583335,203.47869866458333,65.0,84.0
699,203.40658344583335,203.85850548333335,57.0,86.0
700,203.79119794583335,204.08286394166666,62.0,88.0
701,203.40658344583335,204.30882496041667,53.0,70.0
702,203.02196894583335,204.36331201458333,50.0,81.0
703,204.17581244583334,204.441837475,57.0,89.0
704,204.56042694583334,205.14536149791667,69.0,84.0
705,204.56042694583334,205.15657942083334,65.0,84.0
706,205.32965594583334,205.51715551458335,60.0,85.0
707,204.94504144583334,205.69984740208335,48.0,67.0
708,204.56042694583334,205.70465508333334,41.0,82.0
709,205.71427044583334,205.90337257500002,60.0,84.0
710,205.32965594583334,205.93382122291666,65.0,88.0
711,206.09888494583333,206.49151224791666,67.0,81.0
712,206.09888494583333,206.51875577500002,62.0,83.0
713,206.86811394583333,206.96106245000001,62.0,75.0
714,206.48349944583333,206.97388293333333,50.0,71.0
715,206.09888494583333,207.11170312916667,43.0,83.0
716,206.86811394583333,207.32965134583333,71.0,84.0
717,206.86811394583333,207.34888207083333,67.0,83.0
718,207.25272844583333,207.42099728958334,62.0,82.0
719,207.63734294583335,208.14855971875,60.0,85.0
720,207.63734294583335,208.15176483958334,64.0,86.0
721,208.40657194583335,208.68381489791668,60.0,93.0
722,208.02195744583335,208.97548089375002,55.0,82.0
723,207.63734294583335,209.0091346625,48.0,84.0
724,208.79118644583335,209.08926268333335,62.0,91.0
725,209.17580094583334,209.44983877708333,60.0,84.0
726,209.17580094583334,209.53477447916669,64.0,91.0
727,209.17580094583334,209.82964559583334,48.0,88.0
728,209.56041544583334,209.85047888125,62.0,89.0
729,209.94502994583334,210.19502937083334,60.0,96.0
730,210.32964444583334,210.66938725416668,60.0,96.0
731,209.94502994583334,210.7014384625,48.0,86.0
732,209.94502994583334,210.71425894583334,55.0,83.0
733,210.71425894583334,210.83925865833334,41.0,82.0
734,210.71425894583334,211.13893745625,69.0,82.0
735,210.71425894583334,211.15496306041666,65.0,83.0
736,211.09887344583333,211.53476987916667,60.0,82.0
737,211.48348794583333,211.89694853333333,65.0,84.0
738,211.86810244583333,212.29598607708334,60.0,83.0
739,212.25271694583333,212.68060057708334,69.0,87.0
740,212.25271694583333,212.749510675,65.0,83.0
741,212.63733144583335,213.095663725,60.0,80.0
742,211.48348794583333,213.33765034791668,53.0,80.0
743,213.02194594583335,213.47867566458333,65.0,89.0
744,213.40656044583335,213.56200880625002,60.0,87.0
745,213.79117494583335,214.25431490625002,65.0,85.0
746,214.17578944583335,214.53636553958333,57.0,70.0
747,213.79117494583335,214.57482698958333,62.0,83.0
748,213.79117494583335,214.57642955,50.0,84.0
749,214.56040394583334,214.92418516041667,69.0,84.0
750,214.56040394583334,214.97226197291667,65.0,83.0
751,214.94501844583334,215.05559511458333,62.0,86.0
752,215.32963294583334,215.84405483958335,60.0,83.0
753,215.32963294583334,216.17257972500002,57.0,82.0
754,216.09886194583333,216.52033533541666,64.0,89.0
755,216.09886194583333,216.52514301666668,60.0,82.0
756,215.71424744583334,216.63251456458335,52.0,82.0
757,215.32963294583334,216.69661698125,45.0,83.0
758,216.48347644583333,216.76873220000002,57.0,80.0
759,216.86809094583333,217.32161554375,62.0,84.0
760,217.25270544583333,217.71424284583335,57.0,83.0
761,217.63731994583333,218.1533444,65.0,87.0
762,218.02193444583335,218.46744624166666,57.0,88.0
763,218.40654894583335,218.86968890625002,62.0,84.0
764,218.79116344583335,219.22385475833335,57.0,84.0
765,216.86809094583333,219.4321876125,50.0,87.0
766,219.17577794583335,219.55077708333334,65.0,89.0
767,219.56039244583334,219.68058447708333,57.0,88.0
768,219.94500694583334,220.22705757916668,55.0,79.0
769,219.94500694583334,220.27192927083334,60.0,78.0
770,220.32962144583334,220.88090222916668,55.0,82.0
771,220.71423594583334,221.38570876041666,62.0,88.0
772,221.09885044583334,221.67256707500002,55.0,87.0
773,221.48346494583333,221.93538698333333,64.0,89.0
774,221.48346494583333,221.9914765979167,60.0,84.0
775,219.94500694583334,222.3841039,48.0,85.0
776,221.86807944583333,222.41134742708334,55.0,81.0
777,222.25269394583333,222.43698839375,60.0,82.0
778,222.25269394583333,222.49307800833333,64.0,89.0
779,222.25269394583333,222.52192409583333,67.0,82.0
780,222.63730844583333,222.75750047708334,48.0,83.0
781,223.02192294583335,223.13890985625,36.0,79.0
782,223.02192294583335,223.60846005833335,64.0,84.0
783,223.02192294583335,223.66775479375002,60.0,81.0
784,223.40653744583335,224.23345862083335,48.0,82.0
785,223.79115194583335,224.28153543333335,67.0,83.0
786,223.79115194583335,224.3071764,64.0,88.0
787,224.17576644583335,224.42095818958333,60.0,79.0
788,224.56038094583334,224.86166230416669,60.0,83.0
789,224.56038094583334,225.095636125,65.0,82.0
790,224.94499544583334,225.64210922708335,48.0,82.0
791,224.56038094583334,225.79114734583334,41.0,81.0
792,225.32960994583334,225.9321726625,69.0,77.0
793,225.32960994583334,225.980249475,65.0,83.0
794,225.71422444583334,226.05556981458335,60.0,83.0
795,226.09883894583334,226.35845373333333,64.0,84.0
796,226.09883894583334,226.67095301458335,69.0,82.0
797,226.48345344583333,226.85845258333333,64.0,85.0
798,226.48345344583333,227.06197775625,52.0,67.0
799,226.86806794583333,227.22704147916667,72.0,89.0
800,226.09883894583334,227.23505428125,45.0,83.0
801,226.86806794583333,227.27191317083333,69.0,84.0
802,227.25268244583333,227.36966935625,64.0,89.0
803,227.63729694583333,228.17094956458334,65.0,83.0
804,227.63729694583333,228.31518000208334,62.0,83.0
805,228.02191144583335,228.4898590875,57.0,76.0
806,227.63729694583333,228.634089525,50.0,82.0
807,228.40652594583335,228.80556348958334,69.0,85.0
808,228.40652594583335,228.85203774166666,65.0,82.0
809,228.79114044583335,229.16774214375002,62.0,87.0
810,229.56036944583335,230.2975472375,48.0,68.0
811,229.17575494583335,230.3937008625,41.0,83.0
812,229.94498394583334,230.39850854375,57.0,84.0
813,230.32959844583334,230.48664936666668,53.0,86.0
814,230.71421294583334,230.92414836041667,55.0,84.0
815,230.71421294583334,231.18857082916668,60.0,86.0
816,231.09882744583334,231.54914692291666,55.0,83.0
817,231.48344194583333,231.83921035833333,64.0,89.0
818,231.48344194583333,231.86485132500002,60.0,85.0
819,230.71421294583334,231.88408205000002,48.0,83.0
820,231.86805644583333,232.00427408125,55.0,83.0
821,232.25267094583333,232.35042713125,41.0,83.0
822,232.25267094583333,232.48343964583333,53.0,78.0
823,232.25267094583333,232.5475420625,57.0,79.0
824,233.40651444583335,233.81035967083335,65.0,88.0
825,233.02189994583335,233.94978242708333,60.0,87.0
826,233.79112894583335,234.34881997083335,67.0,89.0
827,234.17574344583335,234.65330645,60.0,75.0
828,234.56035794583335,235.30554853958333,65.0,83.0
829,232.63728544583333,235.32317670416668,53.0,80.0
830,234.56035794583335,235.326381825,69.0,83.0
831,234.94497244583334,235.33279206666668,60.0,78.0
832,235.32958694583334,235.79112434583334,65.0,84.0
833,235.32958694583334,235.80554738958335,69.0,84.0
834,235.71420144583334,236.13086715416668,60.0,82.0
835,235.32958694583334,236.21740541666668,41.0,78.0
836,236.09881594583334,236.56195590625,69.0,78.0
837,236.09881594583334,236.57317382916668,65.0,78.0
838,236.48343044583333,236.73823755208335,60.0,91.0
839,236.86804494583333,237.37765915833333,69.0,82.0
840,236.86804494583333,237.40169756458334,65.0,82.0
841,237.25265944583333,237.75105573541668,57.0,80.0
842,237.63727394583333,237.80874791041668,62.0,82.0
843,236.86804494583333,237.85201704166667,50.0,85.0
844,237.63727394583333,238.10361902708334,65.0,86.0
845,238.02188844583335,238.24464434375,62.0,84.0
846,238.40650294583335,239.018681025,64.0,82.0
847,238.79111744583335,239.210988275,52.0,83.0
848,238.40650294583335,239.3552187125,45.0,82.0
849,239.17573194583335,239.73502553125002,57.0,96.0
850,239.56034644583335,240.16931940416669,52.0,83.0
851,239.94496094583334,240.42252395,64.0,87.0
852,239.94496094583334,240.45778027916668,60.0,87.0
853,240.32957544583334,240.61162607916668,57.0,83.0
854,240.71418994583334,240.90008695416668,57.0,84.0
855,240.71418994583334,241.15970174166668,60.0,87.0
856,240.71418994583334,241.16771454375,64.0,83.0
857,241.09880444583334,241.28630401458335,57.0,85.0
858,241.48341894583334,242.02187924583333,69.0,82.0
859,241.48341894583334,242.03790485000002,65.0,82.0
860,241.86803344583333,242.44655775625,48.0,79.0
861,241.48341894583334,242.46899360208334,41.0,83.0
862,242.25264794583333,242.70617254375,69.0,85.0
863,242.25264794583333,242.71418534583333,65.0,85.0
864,242.63726244583333,242.88245418958334,60.0,84.0
865,243.02187694583333,243.845593,69.0,84.0
866,243.02187694583333,243.87283652708334,65.0,83.0
867,243.40649144583335,244.03149000833335,57.0,77.0
868,243.02187694583333,244.11161802916666,50.0,82.0
869,243.79110594583335,244.20616909375002,62.0,84.0
870,244.17572044583335,244.36642513541668,69.0,85.0
871,244.17572044583335,244.40168146458333,65.0,83.0
872,244.56033494583335,245.0539235541667,60.0,83.0
873,244.56033494583335,245.08437220208333,64.0,89.0
874,245.32956394583334,245.7782808625,62.0,88.0
875,244.56033494583335,245.93693434375,48.0,84.0
876,244.94494944583334,245.94494714583334,55.0,77.0
877,245.71417844583334,246.02187004583334,64.0,84.0
878,246.09879294583334,246.44013831458335,64.0,84.0
879,246.09879294583334,246.48821512708335,67.0,79.0
880,246.09879294583334,246.67090701458335,60.0,80.0
881,246.48340744583334,246.98180373541666,55.0,76.0
882,246.09879294583334,247.04911127291666,48.0,87.0
883,246.86802194583333,247.06513687708335,60.0,85.0
884,246.86802194583333,247.26705948958335,64.0,91.0
885,247.25263644583333,247.52346915625,60.0,89.0
886,247.63725094583333,247.82795563541669,60.0,89.0
887,247.63725094583333,247.83596843750001,41.0,82.0
888,247.63725094583333,248.11481395,65.0,84.0
889,248.02186544583333,248.48660796666667,60.0,78.0
890,248.40647994583335,248.81513285208334,65.0,87.0
891,248.79109444583335,249.24461904375002,60.0,85.0
892,249.17570894583335,249.64525914791668,69.0,85.0
893,249.17570894583335,249.6821180375,65.0,84.0
894,248.02186544583333,249.89525857291667,53.0,58.0
895,249.56032344583335,250.00102756041667,60.0,76.0
896,249.94493794583335,250.3359626875,65.0,83.0
897,249.94493794583335,250.35679597291667,69.0,86.0
898,250.32955244583334,250.47218032291667,60.0,83.0
899,250.71416694583334,251.19653763125,60.0,83.0
900,250.71416694583334,251.50583179166668,57.0,82.0
901,251.48339594583334,251.83115155625,64.0,98.0
902,251.48339594583334,251.85198484166668,60.0,80.0
903,251.09878144583334,251.90647189583333,52.0,78.0
904,250.71416694583334,251.98179223541666,45.0,82.0
905,251.86801044583333,252.26544542916668,57.0,84.0
906,252.25262494583333,252.70134186250002,62.0,82.0
907,252.25262494583333,252.70935466458334,65.0,84.0
908,252.63723944583333,253.08916148333333,57.0,86.0
909,253.02185394583333,253.31351994166667,62.0,88.0
910,252.63723944583333,253.53948096041668,53.0,70.0
911,252.25262494583333,253.59396801458334,50.0,81.0
912,253.40646844583335,253.672493475,57.0,89.0
913,253.79108294583335,254.37601749791668,69.0,84.0
914,253.79108294583335,254.38723542083335,65.0,84.0
915,254.56031194583335,254.74781151458333,60.0,85.0
916,254.17569744583335,254.93050340208333,48.0,67.0
917,253.79108294583335,254.93531108333335,41.0,82.0
918,254.94492644583335,255.134028575,60.0,84.0
919,254.56031194583335,255.16447722291667,65.0,88.0
920,255.32954094583334,255.72216824791667,67.0,81.0
921,255.32954094583334,255.749411775,62.0,83.0
922,256.09876994583334,256.19171845,62.0,75.0
923,255.71415544583334,256.20453893333337,50.0,71.0
924,255.32954094583334,256.34235912916665,43.0,83.0
925,256.09876994583334,256.56030734583334,71.0,84.0
926,256.09876994583334,256.57953807083334,67.0,83.0
927,256.48338444583334,256.65165328958335,62.0,82.0
928,256.86799894583334,257.37921571875,60.0,85.0
929,256.86799894583334,257.38242083958335,64.0,86.0
930,257.63722794583333,257.91447089791666,60.0,93.0
931,257.25261344583333,258.20613689375,55.0,82.0
932,256.86799894583334,258.2397906625,48.0,84.0
933,258.02184244583333,258.31991868333336,62.0,91.0
934,258.4064569458333,258.68049477708337,60.0,84.0
935,258.4064569458333,258.7654304791667,64.0,91.0
936,258.4064569458333,259.0603015958333,48.0,88.0
937,258.7910714458333,259.08113488125,62.0,89.0
938,259.1756859458333,259.4256853708333,60.0,96.0
939,259.5603004458333,259.9000432541667,60.0,96.0
940,259.1756859458333,259.9320944625,48.0,86.0
941,259.1756859458333,259.9449149458333,55.0,83.0
942,259.9449149458333,260.06991465833335,41.0,82.0
943,259.9449149458333,260.36959345625,69.0,82.0
944,259.9449149458333,260.3856190604167,65.0,83.0
945,260.3295294458333,260.7654258791667,60.0,82.0
946,260.7141439458333,261.12760453333334,65.0,84.0
947,261.09875844583337,261.52664207708335,60.0,83.0
948,261.48337294583337,261.91125657708335,69.0,87.0
949,261.48337294583337,261.980166675,65.0,83.0
950,261.86798744583336,262.326319725,60.0,80.0
951,260.7141439458333,262.5683063479167,53.0,80.0
952,262.25260194583336,262.7093316645833,65.0,89.0
953,262.63721644583336,262.79266480625,60.0,87.0
954,263.02183094583336,263.48497090625,65.0,85.0
955,263.40644544583336,263.76702153958337,57.0,70.0
956,263.02183094583336,263.80548298958337,62.0,83.0
957,263.02183094583336,263.80708555,50.0,84.0
958,263.79105994583335,264.15484116041665,69.0,84.0
959,263.79105994583335,264.2029179729167,65.0,83.0
960,264.17567444583335,264.28625111458337,62.0,86.0
961,264.56028894583335,265.07471083958336,60.0,83.0
962,264.56028894583335,265.403235725,57.0,82.0
963,265.32951794583335,265.7509913354167,64.0,89.0
964,265.32951794583335,265.7557990166667,60.0,82.0
965,264.94490344583335,265.86317056458336,52.0,82.0
966,264.56028894583335,265.92727298125,45.0,83.0
967,265.71413244583334,265.9993882,57.0,80.0
968,266.09874694583334,266.55227154375,62.0,84.0
969,266.48336144583334,266.94489884583334,57.0,83.0
970,266.86797594583334,267.3840004,65.0,87.0
971,267.25259044583333,267.6981022416667,57.0,88.0
972,267.63720494583333,268.10034490625003,62.0,84.0
973,268.02181944583333,268.45451075833336,57.0,84.0
974,266.09874694583334,268.6628436125,50.0,87.0
975,268.4064339458333,268.78143308333335,65.0,89.0
976,268.7910484458333,268.91124047708337,57.0,88.0
977,269.1756629458333,269.4577135791667,55.0,79.0
978,269.1756629458333,269.5025852708333,60.0,78.0
979,269.5602774458333,270.1115582291667,55.0,82.0
980,269.9448919458333,270.6163647604167,62.0,88.0
981,270.3295064458333,270.903223075,55.0,87.0
982,270.7141209458333,271.16604298333334,64.0,89.0
983,270.7141209458333,271.2221325979167,60.0,84.0
984,269.1756629458333,271.6147599,48.0,85.0
985,271.09873544583337,271.64200342708335,55.0,81.0
986,271.48334994583337,271.66764439375,60.0,82.0
987,271.48334994583337,271.72373400833334,64.0,89.0
988,271.48334994583337,271.75258009583337,67.0,82.0
989,271.86796444583337,271.98815647708335,48.0,83.0
990,272.25257894583336,272.36956585625,36.0,79.0
991,272.25257894583336,272.83911605833333,64.0,84.0
992,272.25257894583336,272.89841079375003,60.0,81.0
993,272.63719344583336,273.46411462083336,48.0,82.0
994,273.02180794583336,273.5121914333333,67.0,83.0
995,273.02180794583336,273.5378324,64.0,88.0
996,273.40642244583336,273.65161418958337,60.0,79.0
997,273.79103694583335,274.09231830416667,60.0,83.0
998,273.79103694583335,274.326292125,65.0,82.0
999,274.17565144583335,274.87276522708333,48.0,82.0
1000,273.79103694583335,275.02180334583335,41.0,81.0
1001,274.56026594583335,275.16282866250003,69.0,77.0
1002,274.56026594583335,275.210905475,65.0,83.0
1003,274.94488044583335,275.28622581458336,60.0,83.0
1004,275.32949494583335,275.5891097333333,64.0,84.0
1005,275.32949494583335,275.90160901458336,69.0,82.0
1006,275.71410944583334,276.0891085833333,64.0,85.0
1007,275.71410944583334,276.29263375625,52.0,67.0
1008,276.09872394583334,276.45769747916665,72.0,89.0
1009,275.32949494583335,276.46571028125,45.0,83.0
1010,276.09872394583334,276.50256917083334,69.0,84.0
1011,276.48333844583334,276.60032535625,64.0,89.0
1012,276.86795294583334,277.40160556458335,65.0,83.0
1013,276.86795294583334,277.5458360020833,62.0,83.0
1014,277.25256744583334,277.7205150875,57.0,76.0
1015,276.86795294583334,277.864745525,50.0,82.0
1016,277.63718194583333,278.03621948958335,69.0,85.0
1017,277.63718194583333,278.0826937416667,65.0,82.0
1018,278.02179644583333,278.39839814375,62.0,87.0
1019,278.7910254458333,279.5282032375,48.0,68.0
1020,278.40641094583333,279.6243568625,41.0,83.0
1021,279.1756399458333,279.62916454375,57.0,84.0
1022,279.5602544458333,279.71730536666666,53.0,86.0
1023,279.9448689458333,280.1548043604167,55.0,84.0
1024,279.9448689458333,280.4192268291667,60.0,86.0
1025,280.3294834458333,280.7798029229167,55.0,83.0
1026,280.7140979458333,281.06986635833334,64.0,89.0
1027,280.7140979458333,281.095507325,60.0,85.0
1028,279.9448689458333,281.11473805,48.0,83.0
1029,281.0987124458333,281.23493008125,55.0,83.0
1030,281.48332694583337,281.58108313125,41.0,83.0
1031,281.48332694583337,281.71409564583337,53.0,78.0
1032,281.48332694583337,281.7781980625,57.0,79.0
1033,282.63717044583336,283.04101567083336,65.0,88.0
1034,282.25255594583336,283.18043842708335,60.0,87.0
1035,283.02178494583336,283.57947597083336,67.0,89.0
1036,283.40639944583336,283.88396245,60.0,75.0
1037,283.79101394583336,284.53620453958337,65.0,83.0
1038,284.50735845208334,284.53620453958337,65.0,82.0
1039,281.86794144583337,284.55383270416667,53.0,80.0
1040,283.79101394583336,284.557037825,69.0,83.0
1041,284.5057558916667,284.557037825,69.0,83.0
1042,284.17562844583335,284.5634480666667,60.0,78.0
1043,284.50255077083335,284.6275504833333,41.0,82.0
1044,284.88075502916666,285.38235643958336,53.0,81.0
1045,285.2942156166667,285.5490227229167,60.0,91.0
1046,285.69004803958336,286.11472655,65.0,91.0
1047,286.8743401875,287.3295895770833,62.0,88.0
1048,287.29794403541666,287.41022637708335,64.0,88.0
1049,286.03620108958336,287.44616387708334,48.0,85.0
1050,286.4432514354167,287.4664763770834,55.0,77.0
1051,287.64460137708335,289.05547668125,48.0,63.0
1052,287.9909116020834,289.06028436250006,67.0,76.0
1053,287.80397637708336,289.06509204375004,55.0,70.0
1054,288.0454286958334,289.06509204375004,72.0,76.0
1055,287.80866387708335,289.0715022854167,60.0,73.0
1056,287.89433846458337,289.0715022854167,64.0,74.0
1057,289.1099637354167,289.45771934583337,57.0,77.0
1058,289.1147714166667,289.77182118750005,65.0,82.0
1059,289.11637397708336,289.85835945,60.0,82.0
1060,289.82310312083337,290.6532294166667,57.0,86.0
1061,290.21412786250005,290.69489598750005,60.0,91.0
1062,290.57951163750005,291.08592072916673,65.0,82.0
1063,290.95130565416673,291.2221383645834,57.0,62.0
1064,289.47695007083337,291.3839969666667,48.0,67.0
1065,289.13720726250006,291.47374035,41.0,83.0
1066,291.36797136250004,291.4993813166667,57.0,83.0
1067,291.36156112083336,291.70290648958337,60.0,89.0
1068,291.36156112083336,291.81829083958337,65.0,83.0
1069,291.71893209375,291.85354716875,57.0,77.0
1070,292.12758500000007,292.40643051250004,58.0,81.0
1071,292.1339952416667,292.4705329291667,62.0,81.0
1072,292.8855960770834,293.40642821250003,65.0,80.0
1073,293.28142850000006,293.79264527291673,62.0,80.0
1074,294.06347798333337,294.31828508958336,62.0,83.0
1075,293.6788634833334,294.3503362979167,70.0,91.0
1076,292.51540462083335,294.4657206479167,53.0,74.0
1077,292.12598243958337,294.46732320833337,46.0,84.0
1078,294.44969504375007,294.62757925000005,62.0,91.0
1079,294.4432848020834,294.7894378520834,65.0,86.0
1080,294.7910404125,294.83270698333337,62.0,69.0
1081,295.19809075833336,295.28623158125004,36.0,82.0
1082,295.20450100000005,295.98014024166673,64.0,84.0
1083,295.19969331875006,296.0330247354167,60.0,82.0
1084,296.3855880270834,296.6580232979167,62.0,91.0
1085,296.02661449375006,296.9384713708334,55.0,84.0
1086,296.7926383729167,297.1259709395834,64.0,98.0
1087,296.79424093333336,297.4336625395834,60.0,86.0
1088,297.18045799375005,297.79584119375005,55.0,82.0
1089,295.6099487854167,297.81987960000004,48.0,83.0
1090,298.19327617708336,298.3359040541667,48.0,85.0
1091,297.64680307500004,298.59071116041673,60.0,96.0
1092,297.64039283333335,298.7734030479167,67.0,87.0
1093,298.7413518395834,298.8310952229167,41.0,83.0
1094,298.76218512500003,299.11154329583337,60.0,76.0
1095,298.76699280625,299.32468383125,65.0,79.0
1096,299.5714781354167,299.7637853854167,65.0,83.0
1097,299.75737514375004,299.9032081416667,67.0,69.0
1098,299.9560926354167,300.1724382916667,69.0,77.0
1099,300.13557940208335,300.3711557833334,72.0,78.0
1100,300.3503224979167,300.5250015833334,77.0,75.0
1101,300.5682707145834,300.69968066875003,79.0,77.0
1102,300.79743685416673,301.34230739583336,81.0,77.0
1103,301.0506414,301.5826914583334,84.0,78.0
1104,301.37275604375003,301.6355759520834,89.0,72.0
1105,299.1580175479167,302.58749683958337,53.0,78.0
1106,299.3759657645834,302.58749683958337,60.0,82.0
