,start,end,pitch,velocity
0,0.8841447500000001,1.1646320500000003,62.0,86.0
1,1.2256075500000003,1.5487777000000003,64.0,76.0
2,0.515242975,3.0457262250000006,57.0,73.0
3,1.6067044250000002,3.0548725500000007,65.0,75.0
4,0.15243875000000004,3.0716408125000005,50.0,93.0
5,3.4466401375000006,5.184441887500001,57.0,67.0
6,3.0762139750000004,5.211880862500001,50.0,95.0
7,3.8033468125000005,5.219502800000001,64.0,68.0
8,4.163102262500001,5.370417162500001,65.0,69.0
9,4.542674750000001,5.414624400000001,69.0,78.0
10,6.7103537750000015,7.487791400000002,62.0,99.0
11,6.321634962500001,7.489315787500002,57.0,92.0
12,5.969501450000001,7.5182791500000015,50.0,81.0
13,7.766754312500002,8.531996837500001,55.0,83.0
14,7.428340287500001,8.553338262500002,48.0,81.0
15,8.192058425,8.772850062500002,74.0,93.0
16,9.254556512500002,9.635653387500001,62.0,83.0
17,8.874984025000002,10.050286787500001,46.0,93.0
18,8.881081575000001,10.339920412500001,74.0,95.0
19,9.626507062500002,10.370408162500002,65.0,92.0
20,9.989311287500001,10.384127650000002,70.0,107.0
21,10.387176425000002,11.817051900000003,74.0,100.0
22,12.564001775000003,13.341439400000002,62.0,99.0
23,12.175282962500003,13.342963787500002,57.0,92.0
24,13.620402312500003,14.385644837500003,55.0,83.0
25,13.281988287500003,14.406986262500002,48.0,81.0
26,14.045706425000002,14.626498062500003,74.0,93.0
27,15.108204512500002,15.489301387500003,62.0,83.0
28,14.728632025000003,15.903934787500003,46.0,93.0
29,14.734729575000003,16.193568412500003,74.0,95.0
30,15.480155062500003,16.224056162500002,65.0,92.0
31,15.842959287500003,16.237775650000003,70.0,107.0
32,16.240824425000003,17.670699900000002,74.0,100.0
33,18.105150337500003,18.685941975000002,53.0,62.0
34,17.713382750000005,18.725576050000004,46.0,89.0
35,18.437466812500002,19.131063125000004,65.0,86.0
36,18.809417362500003,19.175270362500004,62.0,85.0
37,19.193563012500004,20.097524800000002,48.0,70.0
38,19.547220912500002,20.609719000000002,55.0,61.0
39,20.269780587500005,20.678316437500005,60.0,73.0
40,19.925269012500003,20.702706637500004,64.0,95.0
41,20.954230575000004,21.496912525000003,52.0,81.0
42,20.614292162500004,21.536546600000005,45.0,81.0
43,21.710326775000002,21.978618975000003,60.0,79.0
44,21.333803062500003,21.984716525000003,64.0,96.0
45,21.885631337500005,22.199655162500004,57.0,55.0
46,22.070082225000004,22.977092787500005,38.0,70.0
47,22.454227875000004,23.024348800000006,45.0,60.0
48,23.173738775000004,23.535018612500004,62.0,71.0
49,22.821605262500004,23.557884425000005,65.0,92.0
50,23.368860375000004,23.597518500000003,57.0,66.0
51,23.554835650000005,24.510626612500005,43.0,73.0
52,23.923737425000006,24.621906900000003,50.0,65.0
53,24.631053225000006,24.969467250000005,58.0,57.0
54,24.289590425000004,25.024345200000003,62.0,89.0
55,25.374954325000004,25.958794737500003,52.0,56.0
56,24.992333062500006,25.998428812500006,45.0,75.0
57,26.108184712500005,26.484708425000004,60.0,72.0
58,25.739282937500004,26.515196175000003,64.0,89.0
59,27.570072325000005,28.002998375000004,52.0,70.0
60,27.943547262500005,28.359705050000006,53.0,61.0
61,28.298729550000004,28.525863287500005,57.0,69.0
62,27.181353512500003,28.906960162500006,50.0,82.0
63,26.467940162500003,29.292630200000005,38.0,75.0
64,28.702692237500006,29.370373962500004,62.0,61.0
65,26.847512650000006,29.432873850000004,45.0,63.0
66,29.403910487500006,30.381042875000006,38.0,69.0
67,29.774336650000006,30.387140425000005,45.0,62.0
68,30.129518937500006,30.881041975000006,65.0,81.0
69,30.870371262500004,31.641711337500006,36.0,74.0
70,31.585309000000006,32.3063442875,64.0,90.0
71,31.228602325000004,32.472502525,55.0,66.0
72,32.65238025000001,33.05481855000001,58.0,52.0
73,32.304819900000005,33.269757187500005,46.0,86.0
74,33.38408625,33.756036800000004,58.0,55.0
75,33.0167088625,33.762134350000004,62.0,77.0
76,33.7514636375,34.58835237500001,41.0,72.0
77,34.152377550000004,35.222497575000006,53.0,60.0
78,34.862742125000004,35.2362170625,57.0,59.0
79,34.50908422500001,35.257558487500006,60.0,85.0
80,35.62188710000001,36.2423128125,45.0,58.0
81,35.22554635000001,36.289568825,38.0,72.0
82,36.329202900000006,36.720970487500004,62.0,65.0
83,35.981642550000004,36.731641200000006,65.0,76.0
84,36.714872937500004,37.678285837500006,36.0,72.0
85,37.082250325000004,37.710297975,43.0,67.0
86,37.81090755,38.12493137500001,60.0,73.0
87,37.4618228125,38.135602087500004,64.0,88.0
88,38.16913861250001,38.201150750000004,46.0,93.0
89,38.175236162500006,38.201150750000004,46.0,99.0
90,38.50602825000001,38.82310085000001,58.0,77.0
91,38.88864951250001,39.382551062500006,48.0,63.0
92,39.24535618750001,39.609684800000004,60.0,73.0
93,39.61730673750001,40.856633775000006,38.0,69.0
94,39.998403612500006,41.053279762500004,45.0,61.0
95,40.37340293750001,41.06090170000001,65.0,89.0
96,40.733158387500005,41.10815771250001,62.0,67.0
97,41.48163265000001,42.094436425000005,45.0,62.0
98,41.83681493750001,42.58833797500001,65.0,81.0
99,42.57766726250001,43.349007337500005,36.0,74.0
100,43.29260500000001,44.01364028750001,64.0,90.0
101,42.93589832500001,44.17979852500001,55.0,66.0
102,44.35967625000001,44.76211455000001,58.0,52.0
103,44.012115900000005,44.977053187500005,46.0,86.0
104,45.09138225000001,45.46333280000001,58.0,55.0
105,44.72400486250001,45.46943035000001,62.0,77.0
106,45.45875963750001,46.295648375000006,41.0,72.0
107,45.85967355000001,46.929793575000005,53.0,60.0
108,46.57003812500001,46.94351306250001,57.0,59.0
109,46.21638022500001,46.964854487500006,60.0,85.0
110,47.32918310000001,47.94960881250001,45.0,58.0
111,46.93284235000001,47.99686482500001,38.0,72.0
112,48.036498900000005,48.42826648750001,62.0,65.0
113,47.68893855000001,48.438937200000005,65.0,76.0
114,48.42216893750001,49.385581837500006,36.0,72.0
115,48.78954632500001,49.41759397500001,43.0,67.0
116,49.51820355000001,49.83222737500001,60.0,73.0
117,49.16911881250001,49.84289808750001,64.0,88.0
118,49.876434612500006,49.90844675000001,46.0,93.0
119,49.882532162500006,49.90844675000001,46.0,99.0
120,50.21332425000001,50.53039685000001,58.0,77.0
121,50.59594551250001,51.089847062500006,48.0,63.0
122,50.95265218750001,51.31698080000001,60.0,73.0
123,51.32460273750001,52.56392977500001,38.0,69.0
124,51.705699612500005,52.76057576250001,45.0,61.0
125,52.08069893750001,52.76819770000001,65.0,89.0
126,52.44045438750001,52.81545371250001,62.0,67.0
127,53.38405025000001,53.55935481250001,62.0,78.0
128,53.20112375000001,53.62033031250001,58.0,95.0
129,53.01819725000001,53.847464050000006,53.0,76.0
130,52.83527075000001,53.89319567500001,46.0,95.0
131,53.74990325000001,53.92825658750001,58.0,96.0
132,53.56697675000001,53.98313453750001,65.0,100.0
133,53.93282975000001,54.19045123750001,62.0,88.0
134,54.11575625000001,54.26667061250001,65.0,90.0
135,54.664535750000006,54.93282795000001,60.0,73.0
136,54.84746225000001,55.05935211250001,64.0,86.0
137,54.48160925000001,55.09136425000001,55.0,92.0
138,55.21331525000001,55.37185155000001,55.0,85.0
139,54.29868275000001,55.41301001250001,48.0,70.0
140,55.39624175000001,55.65081446250001,64.0,97.0
141,55.03038875000001,55.67825343750001,67.0,97.0
142,55.57916825000001,55.82002147500001,60.0,93.0
143,56.12794775000001,56.49837391250001,57.0,66.0
144,56.31087425000001,56.50752023750001,60.0,85.0
145,55.94502125000001,56.52581288750001,52.0,70.0
146,55.76209475000001,56.89776343750001,45.0,63.0
147,56.67672725000001,56.91758047500001,52.0,76.0
148,56.85965375000001,57.14928737500001,60.0,96.0
149,56.49380075000001,57.15233615000001,64.0,95.0
150,57.04258025000001,57.18434828750001,57.0,88.0
151,57.59135975000001,57.82916420000001,62.0,96.0
152,57.77428625000001,58.03648090000001,64.0,77.0
153,57.40843325000001,58.07916375000001,57.0,95.0
154,58.14013925000001,58.25599270000001,57.0,71.0
155,57.22550675000001,58.33373646250001,50.0,78.0
156,58.32306575000001,58.58678478750001,65.0,99.0
157,57.95721275000001,58.59135795000001,69.0,97.0
158,58.50599225000001,58.67977242500001,62.0,82.0
159,59.05477175000001,59.33678343750001,55.0,89.0
160,59.23769825000001,59.40080771250001,58.0,77.0
161,58.87184525000001,59.52275871250001,50.0,83.0
162,59.60355125000001,59.79409968750001,50.0,66.0
163,58.68891875000001,59.83525815000001,43.0,70.0
164,59.78647775000001,60.07306260000001,58.0,99.0
165,59.42062475000001,60.09287963750001,62.0,93.0
166,59.96940425000001,60.09897718750001,55.0,81.0
167,60.51818375000001,60.75141503750001,60.0,95.0
168,60.70111025000001,60.896231850000014,64.0,86.0
169,60.33525725000001,60.984646325000014,55.0,77.0
170,61.06696325000001,61.17214598750001,55.0,77.0
171,60.15233075000001,61.21482883750001,48.0,82.0
172,61.24988975000001,61.50598685000001,64.0,96.0
173,60.88403675000001,61.54866970000001,67.0,102.0
174,61.43281625000001,61.600498875000014,60.0,93.0
175,62.16452225000001,62.33220487500001,57.0,82.0
176,61.98159575000001,62.38708282500001,53.0,92.0
177,61.61574275000001,62.63250921250001,41.0,79.0
178,61.79866925000001,62.65232625000001,48.0,86.0
179,62.34744875000001,62.73616756250001,60.0,97.0
180,62.53037525000001,62.75903337500001,53.0,89.0
181,62.713301750000014,62.949581812500014,57.0,96.0
182,62.896228250000014,63.04714261250001,60.0,92.0
183,63.44500775000001,63.74073892500001,57.0,95.0
184,63.62793425000001,63.807811975000014,61.0,117.0
185,63.26208125000001,63.92823858750001,52.0,82.0
186,63.99378725000001,64.13098212500002,52.0,89.0
187,63.07915475000001,64.21787221250001,45.0,79.0
188,64.17671375,64.43433523750001,61.0,127.0
189,63.81086075000001,64.44348156250001,64.0,97.0
190,64.35964025000001,64.49226196250001,57.0,95.0
191,64.54256675,64.67823723750001,45.0,38.0
192,65.09134625000002,65.23311428750002,62.0,77.0
193,64.90841975000001,65.33067508750001,58.0,100.0
194,65.27427275000001,65.64927207500001,65.0,107.0
195,65.45719925000002,65.66451595000001,58.0,100.0
196,64.72549325000001,65.67213788750001,53.0,76.0
197,64.54256675,65.68585737500001,46.0,96.0
198,65.64012575000001,65.86116193750001,62.0,100.0
199,65.82305225000002,65.98006416250001,65.0,97.0
200,66.37183175000001,66.67061170000001,60.0,73.0
201,66.55475825,66.78341637500002,64.0,95.0
202,66.18890525,66.7925627,55.0,72.0
203,66.92061125000001,67.05475735000002,55.0,92.0
204,66.00597875000001,67.076098775,48.0,81.0
205,67.10353775000002,67.42518351250001,64.0,99.0
206,66.73768475000001,67.43432983750002,67.0,100.0
207,67.28646425000001,67.50902482500001,60.0,93.0
208,67.83524375000002,68.07152381250002,57.0,96.0
209,68.01817025000001,68.20414552500002,60.0,88.0
210,67.65231725000001,68.30170632500001,52.0,78.0
211,68.38402325000001,68.50140108750001,52.0,79.0
212,67.46939075000002,68.56085220000001,45.0,82.0
213,68.56694975,68.7925591,60.0,99.0
214,68.20109675,68.79865665000001,64.0,102.0
215,68.74987625000001,68.90536377500001,57.0,99.0
216,69.48158225000002,69.73767935000001,57.0,89.0
217,69.29865575000001,69.76054516250001,50.0,92.0
218,68.93280275000001,69.99072767500002,38.0,76.0
219,69.11572925000002,70.01816665000001,45.0,74.0
220,69.84743525000002,70.25749548750001,50.0,88.0
221,70.03036175000001,70.27273936250002,62.0,88.0
222,69.66450875000001,70.31237343750001,65.0,99.0
223,70.21328825000002,70.39773913750001,57.0,102.0
224,70.76206775000001,71.07456718750001,55.0,93.0
225,70.94499425000001,71.09285983750001,58.0,95.0
226,70.57914125,71.23310348750002,50.0,85.0
227,71.31084725000001,71.71023677500001,50.0,75.0
228,71.67670025000001,71.71785871250002,53.0,76.0
229,70.39621475000001,71.72090748750001,43.0,78.0
230,71.49377375000002,71.74987085000001,58.0,122.0
231,71.12792075000002,71.78188298750001,62.0,100.0
232,71.67670025000001,71.80017563750002,55.0,76.0
233,72.04255325000001,72.295601575,55.0,78.0
234,72.22547975000002,72.45871103750001,60.0,85.0
235,72.40840625000001,72.64011315000002,55.0,86.0
236,71.85962675000002,72.83828352500001,48.0,100.0
237,72.59133275,72.99986860000001,64.0,97.0
238,72.77425925000001,73.18127071250001,55.0,93.0
239,72.95718575000001,73.20566091250001,60.0,97.0
240,73.14011225000002,73.29102661250002,64.0,78.0
241,73.84895243750002,74.11114708750002,57.0,71.0
242,73.67822103750001,74.1538299375,50.0,88.0
243,74.03187893750001,74.48919518750002,62.0,95.0
244,74.42364652500001,74.90535297500001,64.0,88.0
245,73.32913630000002,75.91144872500001,38.0,90.0
246,73.49529453750002,75.91449750000001,45.0,82.0
247,74.23462247500001,76.03949727500002,50.0,62.0
248,74.76053616250002,76.1782165375,57.0,67.0
249,74.76663371250001,76.22089938750001,62.0,67.0
250,76.77577643750001,76.94955661250002,62.0,77.0
251,76.58522800000001,77.01510527500001,58.0,92.0
252,76.41906976250002,77.23919023750001,53.0,59.0
253,76.23157010000001,77.26358043750001,46.0,93.0
254,77.13248311250001,77.31845838750002,58.0,85.0
255,76.95717855000001,77.36114123750001,65.0,89.0
256,77.33522665000001,77.73918933750001,62.0,71.0
257,78.06540826250001,78.31083465000002,60.0,58.0
258,78.23156650000001,78.44040758750002,64.0,64.0
259,77.87943298750001,78.46327340000002,55.0,72.0
260,77.68583577500002,78.65382183750002,48.0,71.0
261,78.58217562500002,78.71327295000002,55.0,81.0
262,78.95565056250001,79.15229655000002,60.0,67.0
263,78.79711426250002,79.15839410000001,64.0,77.0
264,78.42059055000001,79.16144287500002,67.0,93.0
265,79.47699108750001,79.72699063750001,57.0,82.0
266,79.67668585000001,79.86266112500002,60.0,60.0
267,79.31083285000001,80.00290477500002,52.0,56.0
268,80.08217292500001,80.22241657500001,52.0,62.0
269,79.15382093750002,80.23461167500001,45.0,59.0
270,80.26205065000002,80.53034285000001,60.0,86.0
271,79.87942938750001,80.53491601250002,64.0,77.0
272,80.44192837500002,80.61113538750001,57.0,65.0
273,81.16753682500001,81.40381688750001,57.0,76.0
274,80.97241522500002,81.43735341250002,50.0,83.0
275,80.60656222500002,81.51814595000002,38.0,62.0
276,80.78339117500002,81.53034105000002,45.0,67.0
277,81.71784071250002,82.05625473750001,62.0,66.0
278,81.88095017500001,82.06235228750002,57.0,85.0
279,81.34589016250001,82.07302300000002,65.0,95.0
280,82.42210773750001,82.69954626250001,55.0,72.0
281,82.60655862500002,82.80777777500002,58.0,64.0
282,82.24527878750001,82.88247276250002,50.0,59.0
283,83.00747253750002,83.10503333750002,50.0,45.0
284,82.05930351250001,83.12789915000002,43.0,61.0
285,83.18277710000001,83.47088633750002,58.0,90.0
286,82.80777777500002,83.48613021250002,62.0,88.0
287,83.37789870000002,83.61265437500002,55.0,73.0
288,84.09893398750002,84.34131160000001,55.0,67.0
289,83.90990993750002,84.35960425000002,48.0,74.0
290,83.55625203750002,84.58826237500001,36.0,61.0
291,83.73765415000001,84.60045747500001,43.0,58.0
292,84.44496995000002,84.73155480000001,48.0,73.0
293,84.63856716250001,84.96935925000001,60.0,83.0
294,84.27728732500002,84.98002996250001,64.0,95.0
295,84.80929856250002,85.00899332500002,55.0,83.0
296,85.01509087500001,85.03033475000001,43.0,58.0
297,85.55777282500001,85.75137003750001,57.0,72.0
298,85.35350490000002,85.80167482500002,53.0,93.0
299,84.99527383750001,86.02880856250002,41.0,67.0
300,85.18734666250002,86.07454018750002,48.0,74.0
301,85.73765055000001,86.11722303750001,60.0,92.0
302,85.93734531250001,86.17362537500001,53.0,88.0
303,86.08063773750001,86.33521045000002,57.0,78.0
304,86.27728372500002,86.42514931250001,60.0,92.0
305,86.81539251250001,87.00898972500002,57.0,97.0
306,87.00746533750001,87.16905041250001,61.0,112.0
307,86.62484407500001,87.29405018750002,52.0,92.0
308,86.44496635000002,87.53185463750002,45.0,78.0
309,87.39770853750001,87.53337902500002,52.0,92.0
310,87.57911065000002,87.81843948750002,61.0,127.0
311,87.20563571250001,87.85197601250002,64.0,107.0
312,87.76356153750001,87.94039048750001,57.0,102.0
313,88.48916998750002,88.64618190000002,62.0,96.0
314,88.29557277500001,88.72392566250002,58.0,100.0
315,88.11874382500001,88.98459592500002,53.0,66.0
316,87.92971977500001,89.02270561250002,46.0,99.0
317,88.86874247500002,89.07910795000002,58.0,107.0
318,88.67514526250001,89.10502253750002,65.0,112.0
319,89.05929091250002,89.31233923750001,62.0,127.0
320,89.24983935000002,89.42057075000001,65.0,97.0
321,89.75746038750002,89.96935025000002,60.0,99.0
322,89.96630147500001,90.13703287500002,64.0,107.0
323,89.56233878750001,90.26050826250001,55.0,75.0
324,89.40227810000002,90.45105670000001,48.0,72.0
325,90.34282518750001,90.46630057500002,55.0,82.0
326,90.52727607500002,90.78642195000002,64.0,117.0
327,90.14922797500002,90.79556827500002,67.0,122.0
328,90.70715380000001,90.87483642500001,60.0,95.0
329,91.26507962500001,91.55166447500001,57.0,72.0
330,91.43733541250002,91.59282293750002,60.0,99.0
331,90.85959255000002,91.68733496250002,45.0,81.0
332,91.07910435000002,91.78032260000002,52.0,92.0
333,91.95562716250002,92.16904141250002,45.0,89.0
334,91.63550578750002,92.30318751250002,64.0,117.0
335,92.09282203750001,92.38093127500002,57.0,72.0
336,92.88093037500002,93.11263727500001,57.0,86.0
337,92.69800387500001,93.12330798750001,50.0,89.0
338,92.51812615000001,93.35958805000001,45.0,82.0
339,92.33672403750002,93.44342936250001,38.0,92.0
340,93.23001511250001,93.59739250000001,50.0,107.0
341,93.42056355000001,93.67666065000002,57.0,107.0
342,93.05013738750002,93.71019717500002,65.0,99.0
343,93.62635586250002,93.81690430000002,62.0,107.0
344,94.15074516250002,94.38245206250002,55.0,93.0
345,94.32909850000001,94.48458602500001,58.0,96.0
346,93.96781866250002,94.60653702500002,50.0,89.0
347,93.78641655000001,94.96476808750002,43.0,72.0
348,94.87940238750002,95.14464581250002,58.0,97.0
349,94.70562221250002,95.17970672500002,50.0,73.0
350,94.51050061250001,95.19495060000001,62.0,100.0
351,95.06080450000002,95.21171886250002,55.0,89.0
352,95.60196206250002,95.83366896250001,57.0,89.0
353,95.80165682500002,95.96476628750001,60.0,93.0
354,95.41598678750002,96.07909535000002,52.0,58.0
355,96.18427808750002,96.33214367500001,52.0,79.0
356,95.22848712500002,96.34129000000001,45.0,76.0
357,96.35653387500001,96.60653342500002,60.0,99.0
358,95.99068087500002,96.62330168750002,64.0,95.0
359,96.54098476250002,96.69189912500002,57.0,96.0
360,97.08061793750002,97.50897082500002,50.0,78.0
361,97.64464131250001,98.88549273750002,50.0,77.0
362,96.87787440000001,99.11110208750002,45.0,92.0
363,96.68580157500001,99.12634596250001,38.0,65.0
364,98.21781101250002,99.44036978750002,62.0,65.0
365,97.26049566250002,99.44189417500002,57.0,67.0
366,97.83976291250002,99.46018682500002,64.0,69.0
367,97.43580022500002,99.48000386250001,65.0,88.0
368,100.01811265000002,100.63091642500002,45.0,62.0
369,100.37329493750002,101.12481797500001,65.0,81.0
370,101.11414726250001,101.88548733750002,36.0,74.0
371,101.82908500000002,102.55012028750002,64.0,90.0
372,101.47237832500002,102.71627852500002,55.0,66.0
373,102.89615625000002,103.29859455000002,58.0,52.0
374,102.54859590000002,103.51353318750002,46.0,86.0
375,103.62786225000002,103.99981280000002,58.0,55.0
376,103.26048486250002,104.00591035000002,62.0,77.0
377,103.99523963750002,104.83212837500002,41.0,72.0
378,104.39615355000002,105.46627357500002,53.0,60.0
379,105.10651812500002,105.47999306250001,57.0,59.0
380,104.75286022500002,105.50133448750002,60.0,85.0
381,105.86566310000002,106.48608881250001,45.0,58.0
382,105.46932235000001,106.53334482500001,38.0,72.0
383,106.57297890000002,106.96474648750002,62.0,65.0
384,106.22541855000001,106.97541720000002,65.0,76.0
385,106.95864893750002,107.92206183750002,36.0,72.0
386,107.32602632500002,107.95407397500001,43.0,67.0
387,108.05468355000002,108.36870737500001,60.0,73.0
388,107.70559881250001,108.37937808750002,64.0,88.0
389,108.41291461250002,108.44492675000002,46.0,93.0
390,108.41901216250002,108.44492675000002,46.0,99.0
391,108.74980425000003,109.06687685000001,58.0,77.0
392,109.13242551250002,109.62632706250002,48.0,63.0
393,109.48913218750002,109.85346080000002,60.0,73.0
394,109.86108273750001,111.10040977500002,38.0,69.0
395,110.24217961250002,111.29705576250002,45.0,61.0
396,110.61717893750001,111.30467770000001,65.0,89.0
397,110.97693438750002,111.35193371250001,62.0,67.0
398,111.92053025000001,112.09583481250002,62.0,78.0
399,111.73760375000002,112.15681031250001,58.0,95.0
400,111.55467725000003,112.38394405000003,53.0,76.0
401,111.37175075000002,112.42967567500001,46.0,95.0
402,112.28638325000001,112.46473658750001,58.0,96.0
403,112.10345675000002,112.51961453750002,65.0,100.0
404,112.46930975000002,112.72693123750003,62.0,88.0
405,112.65223625000002,112.80315061250002,65.0,90.0
406,113.20101575000002,113.46930795000002,60.0,73.0
407,113.38394225000002,113.59583211250002,64.0,86.0
408,113.01808925000002,113.62784425000002,55.0,92.0
409,113.74979525000002,113.90833155000001,55.0,85.0
410,112.83516275000002,113.94949001250002,48.0,70.0
411,113.93272175000001,114.18729446250002,64.0,97.0
412,113.56686875000003,114.21473343750002,67.0,97.0
413,114.11564825000002,114.35650147500002,60.0,93.0
414,114.66442775000002,115.03485391250003,57.0,66.0
415,114.84735425000002,115.04400023750001,60.0,85.0
416,114.48150125000002,115.06229288750002,52.0,70.0
417,114.29857475000001,115.43424343750002,45.0,63.0
418,115.21320725000002,115.45406047500002,52.0,76.0
419,115.39613375000002,115.68576737500003,60.0,96.0
420,115.03028075000002,115.68881615000002,64.0,95.0
421,115.57906025000003,115.72082828750003,57.0,88.0
422,116.12783975000002,116.36564420000002,62.0,96.0
423,116.31076625000001,116.57296090000003,64.0,77.0
424,115.94491325000001,116.61564375000002,57.0,95.0
425,116.67661925000002,116.79247270000002,57.0,71.0
426,115.76198675000002,116.87021646250003,50.0,78.0
427,116.85954575000002,117.12326478750002,65.0,99.0
428,116.49369275000002,117.12783795000001,69.0,97.0
429,117.04247225000002,117.21625242500002,62.0,82.0
430,117.59125175000003,117.87326343750001,55.0,89.0
431,117.77417825000002,117.93728771250002,58.0,77.0
432,117.40832525000002,118.05923871250002,50.0,83.0
433,118.14003125000002,118.33057968750002,50.0,66.0
434,117.22539875000002,118.37173815000003,43.0,70.0
435,118.32295775000001,118.60954260000003,58.0,99.0
436,117.95710475000003,118.62935963750002,62.0,93.0
437,118.50588425000002,118.63545718750002,55.0,81.0
438,119.05466375000002,119.28789503750002,60.0,95.0
439,119.23759025000003,119.43271185000002,64.0,86.0
440,118.87173725000002,119.52112632500003,55.0,77.0
441,119.60344325000003,119.70862598750001,55.0,77.0
442,118.68881075000002,119.75130883750002,48.0,82.0
443,119.78636975000002,120.04246685000003,64.0,96.0
444,119.42051675000002,120.08514970000002,67.0,102.0
445,119.96929625000003,120.13697887500003,60.0,93.0
446,120.70100225000002,120.86868487500003,57.0,82.0
447,120.51807575000002,120.92356282500002,53.0,92.0
448,120.15222275000002,121.16898921250002,41.0,79.0
449,120.33514925000001,121.18880625000003,48.0,86.0
450,120.88392875000002,121.27264756250003,60.0,97.0
451,121.06685525000002,121.29551337500003,53.0,89.0
452,121.24978175000003,121.48606181250003,57.0,96.0
453,121.43270825000002,121.58362261250002,60.0,92.0
454,121.98148775000003,122.27721892500003,57.0,95.0
455,122.16441425000002,122.34429197500002,61.0,117.0
456,121.79856125000002,122.46471858750002,52.0,82.0
457,122.53026725000002,122.66746212500001,52.0,89.0
458,121.61563475000003,122.75435221250002,45.0,79.0
459,122.71319375000002,122.97081523750002,61.0,127.0
460,122.34734075000001,122.97996156250002,64.0,97.0
461,122.89612025000002,123.02874196250002,57.0,95.0
462,123.07904675000002,123.21471723750003,45.0,38.0
463,123.62782625000003,123.76959428750003,62.0,77.0
464,123.44489975000002,123.86715508750002,58.0,100.0
465,123.81075275000002,124.18575207500002,65.0,107.0
466,123.99367925000003,124.20099595000002,58.0,100.0
467,123.26197325000003,124.20861788750003,53.0,76.0
468,123.07904675000002,124.22233737500002,46.0,96.0
469,124.17660575000002,124.39764193750003,62.0,100.0
470,124.35953225000002,124.51654416250003,65.0,97.0
471,124.90831175000002,125.20709170000002,60.0,73.0
472,125.09123825000002,125.31989637500003,64.0,95.0
473,124.72538525000002,125.32904270000002,55.0,72.0
474,125.45709125000002,125.59123735000003,55.0,92.0
475,124.54245875000002,125.61257877500002,48.0,81.0
476,125.64001775000003,125.96166351250002,64.0,99.0
477,125.27416475000003,125.97080983750003,67.0,100.0
478,125.82294425000002,126.04550482500002,60.0,93.0
479,126.37172375000002,126.60800381250002,57.0,96.0
480,126.55465025000002,126.74062552500003,60.0,88.0
481,126.18879725000002,126.83818632500002,52.0,78.0
482,126.92050325000002,127.03788108750003,52.0,79.0
483,126.00587075000003,127.09733220000003,45.0,82.0
484,127.10342975000002,127.32903910000002,60.0,99.0
485,126.73757675000002,127.33513665000002,64.0,102.0
486,127.28635625000003,127.44184377500002,57.0,99.0
487,128.01806225,128.27415935000002,57.0,89.0
488,127.83513575000002,128.29702516250003,50.0,92.0
489,127.46928275000002,128.52720767500003,38.0,76.0
490,127.65220925000003,128.55464665000002,45.0,74.0
491,128.38391525000003,128.79397548750003,50.0,88.0
492,128.56684175,128.80921936250002,62.0,88.0
493,128.20098875000002,128.84885343750003,65.0,99.0
494,128.74976825000002,128.9342191375,57.0,102.0
495,129.29854775,129.61104718750002,55.0,93.0
496,129.48147425000002,129.62933983750003,58.0,95.0
497,129.11562125000003,129.76958348750003,50.0,85.0
498,129.84732725000003,130.246716775,50.0,75.0
499,130.21318025000002,130.25433871250002,53.0,76.0
500,128.93269475000002,130.2573874875,43.0,78.0
501,130.03025375,130.28635085000002,58.0,122.0
502,129.66440075000003,130.31836298750002,62.0,100.0
503,130.21318025000002,130.33665563750003,55.0,76.0
504,130.57903325,130.83208157500002,55.0,78.0
505,130.76195975000002,130.99519103750004,60.0,85.0
506,130.94488625000002,131.17659315000003,55.0,86.0
507,130.39610675000003,131.37476352500002,48.0,100.0
508,131.12781275000003,131.53634860000003,64.0,97.0
509,131.31073925,131.71775071250002,55.0,93.0
510,131.49366575000002,131.74214091250002,60.0,97.0
511,131.67659225000003,131.82750661250003,64.0,78.0
512,132.38543243750001,132.6476270875,57.0,71.0
513,132.21470103750002,132.69030993750002,50.0,88.0
514,132.56835893750002,133.0256751875,62.0,95.0
515,132.96012652500002,133.441832975,64.0,88.0
516,131.86561630000003,134.44792872500003,38.0,90.0
517,132.0317745375,134.45097750000002,45.0,82.0
518,132.77110247500002,134.575977275,50.0,62.0
519,133.29701616250003,134.71469653750003,57.0,67.0
520,133.30311371250002,134.7573793875,62.0,67.0
521,135.31225643750003,135.48603661250002,62.0,77.0
522,135.121708,135.55158527500004,58.0,92.0
523,134.95554976250003,135.77567023750004,53.0,59.0
524,134.7680501,135.80006043750004,46.0,93.0
525,135.66896311250002,135.85493838750003,58.0,85.0
526,135.49365855000002,135.89762123750003,65.0,89.0
527,135.87170665000002,136.27566933750003,62.0,71.0
528,136.6018882625,136.84731465000002,60.0,58.0
529,136.76804650000003,136.97688758750002,64.0,64.0
530,136.41591298750004,136.99975340000003,55.0,72.0
531,136.22231577500003,137.19030183750002,48.0,71.0
532,137.11865562500003,137.24975295000002,55.0,81.0
533,137.49213056250002,137.68877655000003,60.0,67.0
534,137.33359426250001,137.69487410000002,64.0,77.0
535,136.95707055000003,137.69792287500002,67.0,93.0
536,138.01347108750002,138.26347063750003,57.0,82.0
537,138.21316585000002,138.39914112500003,60.0,60.0
538,137.84731285000004,138.53938477500003,52.0,56.0
539,138.61865292500002,138.75889657500002,52.0,62.0
540,137.6903009375,138.77109167500004,45.0,59.0
541,138.79853065000003,139.06682285000002,60.0,86.0
542,138.41590938750002,139.07139601250003,64.0,77.0
543,138.97840837500001,139.14761538750003,57.0,65.0
544,139.70401682500002,139.9402968875,57.0,76.0
545,139.50889522500003,139.97383341250003,50.0,83.0
546,139.14304222500002,140.05462595000003,38.0,62.0
547,139.31987117500003,140.06682105000002,45.0,67.0
548,140.25432071250003,140.59273473750002,62.0,66.0
549,140.41743017500002,140.59883228750002,57.0,85.0
550,139.88237016250002,140.60950300000002,65.0,95.0
551,140.9585877375,141.23602626250002,55.0,72.0
552,141.14303862500003,141.34425777500002,58.0,64.0
553,140.78175878750002,141.41895276250003,50.0,59.0
554,141.54395253750002,141.64151333750002,50.0,45.0
555,140.59578351250002,141.66437915000003,43.0,61.0
556,141.71925710000002,142.00736633750003,58.0,90.0
557,141.34425777500002,142.0226102125,62.0,88.0
558,141.91437870000001,142.14913437500002,55.0,73.0
559,142.63541398750002,142.87779160000002,55.0,67.0
560,142.44638993750002,142.89608425000003,48.0,74.0
561,142.0927320375,143.124742375,36.0,61.0
562,142.27413415000004,143.13693747500002,43.0,58.0
563,142.98144995,143.26803480000004,48.0,73.0
564,143.17504716250002,143.50583925000004,60.0,83.0
565,142.81376732500001,143.51650996250004,64.0,95.0
566,143.34577856250002,143.54547332500002,55.0,83.0
567,143.53175383750002,143.56681475000002,41.0,67.0
568,143.55157087500004,143.56681475000002,43.0,58.0
569,143.93266775000004,145.80004243750003,45.0,77.0
570,143.527180675,145.80309121250002,38.0,99.0
571,144.28632565000004,145.91132272500002,50.0,88.0
572,144.65370303750004,146.47687048750004,57.0,76.0
573,145.03784868750003,146.50126068750004,62.0,73.0
574,145.04089746250003,146.51802895000003,65.0,69.0
575,146.4387608,147.62930743750002,46.0,85.0
576,146.84272348750002,147.66589273750003,53.0,54.0
577,147.21467403750003,147.691807325,58.0,81.0
578,147.56985632500002,147.99516043750003,62.0,92.0
579,148.28936722500003,148.81528091250001,55.0,67.0
580,147.95857513750002,148.86863447500002,48.0,61.0
581,149.03631710000002,149.46009682500002,64.0,59.0
582,148.67351287500003,149.46619437500001,67.0,92.0
583,149.75735238750002,150.18722966250002,52.0,66.0
584,149.3854018375,150.24210761250004,45.0,70.0
585,150.51649736250002,150.86253332500002,60.0,69.0
586,150.14454681250004,150.87015526250002,64.0,97.0
587,150.84271628750002,151.75430001250004,38.0,68.0
588,151.25125213750002,151.81070235,45.0,64.0
589,151.60643442500003,152.30612828750003,65.0,107.0
590,151.97686058750003,152.33814042500003,62.0,100.0
591,152.69637148750002,153.22228517500002,50.0,69.0
592,152.33356726250003,153.2558217,43.0,79.0
593,153.43112626250002,153.74210131250004,58.0,97.0
594,153.06374887500002,153.77716222500004,62.0,99.0
595,153.80612558750002,154.70398982500004,48.0,99.0
596,154.17807613750003,155.00276977500002,55.0,76.0
597,154.54240475000003,155.28325707500002,64.0,100.0
598,154.90978213750003,155.28478146250004,60.0,96.0
599,155.21770841250003,156.18569447500002,41.0,74.0
600,155.58813457500003,156.25124313750004,48.0,60.0
601,155.98447532500003,156.61557175000002,60.0,122.0
602,156.33356006250003,156.66740092500004,57.0,102.0
603,157.08050993750004,157.31374122500003,57.0,102.0
604,157.2558145,157.42044835000002,61.0,112.0
605,156.91435170000003,157.54239935000004,52.0,73.0
606,156.70398622500002,157.76191115000003,45.0,79.0
607,157.62928943750003,157.78935012500003,52.0,86.0
608,157.78630135000003,158.08508130000004,61.0,127.0
609,157.44026538750003,158.11099588750002,64.0,107.0
610,157.97989856250004,158.17502016250003,57.0,100.0
611,158.74971425000004,158.91739687500004,62.0,82.0
612,158.56678775000003,158.96617727500004,58.0,90.0
613,158.38386125000002,159.17806713750002,53.0,71.0
614,158.20093475000002,159.22379876250002,46.0,63.0
615,159.11556725000003,159.30001813750002,58.0,95.0
616,158.93264075000002,159.31068885000002,65.0,93.0
617,159.29849375000003,159.56983472500002,62.0,93.0
618,159.48142025,159.67196868750003,65.0,92.0
619,160.03019975000004,160.32897970000002,60.0,72.0
620,160.21312625000002,160.44178437500003,64.0,90.0
621,159.84727325000003,160.46617457500003,55.0,67.0
622,160.57897925000003,160.71922290000003,55.0,81.0
623,159.66434675000002,160.75275942500002,48.0,74.0
624,160.39605275000002,161.09117345000004,67.0,96.0
625,160.76190575000004,161.10641732500002,64.0,95.0
626,160.94483225000002,161.17958792500002,60.0,86.0
627,161.49361175000004,161.79391608750004,57.0,70.0
628,161.67653825000002,161.86251352500003,60.0,79.0
629,161.31068525000003,161.90062321250002,52.0,77.0
630,162.04239125000004,162.18568367500004,52.0,78.0
631,161.12775875000003,162.19330561250004,45.0,74.0
632,161.85946475000003,162.39300037500004,64.0,93.0
633,162.22531775000002,162.44482955000004,60.0,97.0
634,162.40824425000002,162.72836562500004,57.0,96.0
635,162.95702375000002,163.39604735000003,50.0,88.0
636,163.13995025000003,163.40062051250004,57.0,74.0
637,162.59117075000003,163.63537618750001,38.0,70.0
638,162.77409725000004,163.67043710000002,45.0,77.0
639,163.50580325000004,163.86860747500003,50.0,78.0
640,163.68872975000002,163.98903408750002,62.0,92.0
641,163.32287675000003,164.01037551250002,65.0,117.0
642,163.87165625000003,164.08049733750002,57.0,97.0
643,164.42043575000002,164.67043530000004,55.0,89.0
644,164.60336225000003,164.73598396250003,58.0,100.0
645,164.23750925000002,164.84269108750001,50.0,70.0
646,164.96921525000002,165.10336135000003,50.0,60.0
647,164.05458275000004,165.10793451250004,43.0,78.0
648,165.15214175000003,165.42043395000002,58.0,102.0
649,164.78628875000004,165.46006802500003,62.0,97.0
650,165.33506825000003,165.54390933750003,55.0,79.0
651,165.88384775000003,166.10640832500002,57.0,93.0
652,166.06677425000004,166.23293248750002,60.0,77.0
653,165.70092125000002,166.29238360000002,52.0,72.0
654,165.51799475000004,166.53476121250003,45.0,86.0
655,166.43262725000002,166.53933437500004,52.0,68.0
656,166.61555375000003,166.96006532500002,60.0,90.0
657,166.24970075000002,166.99969940000003,64.0,97.0
658,167.34725975000003,167.78780773750003,50.0,76.0
659,167.89603925000003,169.21158566250003,50.0,70.0
660,168.07896575000004,169.67195068750004,64.0,76.0
661,166.98140675000002,169.70243843750004,38.0,70.0
662,167.53018625000004,169.71158476250002,57.0,74.0
663,168.44481875000002,169.71768231250002,62.0,69.0
664,167.71311275000002,169.73445057500004,65.0,90.0
665,167.16433325000003,169.74207251250002,45.0,69.0
666,169.90213320000004,170.99054587500004,43.0,78.0
667,170.26188865000003,171.00121658750004,50.0,69.0
668,170.97225322500003,171.35639887500002,58.0,85.0
669,170.61097338750002,171.38383785000002,62.0,97.0
670,171.72987381250002,172.57743326250002,52.0,63.0
671,171.37316713750002,172.60944540000003,45.0,74.0
672,172.46615297500003,172.86401811250002,60.0,63.0
673,172.12773895000004,172.89603025000002,64.0,89.0
674,172.84420107500003,175.21157486250004,38.0,74.0
675,173.16737122500004,175.24511138750003,45.0,59.0
676,173.54846810000004,175.73748855000002,50.0,77.0
677,174.26188145000003,175.80303721250004,65.0,90.0
678,173.89297967500002,175.87011026250002,57.0,61.0
679,175.80608598750004,177.15212015000003,43.0,67.0
680,176.15212195000004,177.15669331250004,50.0,59.0
681,176.59114555000002,178.02864296250004,62.0,89.0
682,178.71919050000002,179.40821365000002,57.0,52.0
683,178.31980097500002,180.81217453750003,52.0,61.0
684,177.94480165000004,180.89906462500002,45.0,72.0
685,179.13839706250002,181.23442987500002,60.0,36.0
686,179.60181086250003,181.25272252500002,64.0,32.0
687,182.32741571250003,182.70851258750002,50.0,79.0
688,181.64296572500004,182.92954877500003,38.0,72.0
689,181.95698955000003,182.93717071250003,45.0,62.0
690,183.02558518750004,183.81216913750004,36.0,77.0
691,183.40363328750004,183.94326646250002,48.0,52.0
692,183.77405945000004,184.54539952500002,64.0,77.0
693,185.18716666250003,186.79691986250003,53.0,71.0
694,184.84265508750002,186.81521251250004,50.0,56.0
695,184.47832647500005,186.84417587500002,46.0,89.0
696,185.94021408750004,187.46612597500004,62.0,38.0
697,185.56978792500004,187.49204056250002,58.0,53.0
698,185.96155551250004,187.56368677500004,65.0,57.0
699,188.16429545000003,188.49966070000002,50.0,67.0
700,187.80758877500003,188.61398976250004,45.0,61.0
701,187.44021138750003,188.62466047500004,38.0,74.0
702,188.52405090000002,188.94325746250004,62.0,72.0
703,188.16581983750004,188.95240378750003,65.0,72.0
704,189.28167148750003,189.88837771250004,43.0,58.0
705,188.91734287500003,189.90057281250003,36.0,65.0
706,189.66429275000004,190.46154741250004,64.0,88.0
707,191.11855842500003,192.25575150000003,53.0,59.0
708,190.75422981250003,192.49508033750004,50.0,65.0
709,190.39447436250003,192.70392142500003,46.0,96.0
710,191.47374071250005,193.34568856250004,58.0,58.0
711,191.85941075000002,193.41123722500004,62.0,66.0
712,191.91428870000004,193.45849323750002,65.0,35.0
713,194.19934556250004,195.55147727500002,62.0,59.0
714,194.12922373750004,195.73592816250004,64.0,62.0
715,194.06215068750004,195.75726958750005,65.0,41.0
716,194.22526015000003,196.11092748750002,57.0,52.0
717,195.63379420000004,196.40818305000005,62.0,59.0
718,195.97830577500002,196.49507313750004,64.0,41.0
719,196.35940265000002,196.56062180000004,65.0,37.0
720,195.31367282500003,199.32433633750003,50.0,54.0
721,194.91885646250003,199.34415337500005,45.0,58.0
722,197.53622980000003,199.34872653750003,76.0,33.0
723,197.51641276250004,199.35177531250002,74.0,36.0
724,197.52860786250002,199.36397041250004,77.0,32.0
725,196.85330420000003,199.37921428750005,69.0,30.0
726,194.25422351250003,199.39445816250003,38.0,74.0
