,start,end,pitch,velocity
0,35.935291614583335,36.068104114583335,71.0,97.0
1,36.169666614583335,36.279041614583335,71.0,105.0
2,36.404041614583335,36.726307239583335,71.0,108.0
3,36.872791614583335,37.200916614583335,75.0,105.0
4,37.341541614583335,37.698963489583335,73.0,108.0
5,37.810291614583335,37.921619739583335,73.0,89.0
6,38.044666614583335,38.419666614583335,73.0,102.0
7,38.513416614583335,38.847400989583335,71.0,108.0
8,39.216541614583335,39.597400989583335,73.0,108.0
9,39.685291614583335,39.964588489583335,73.0,105.0
10,40.154041614583335,40.366932239583335,73.0,105.0
11,40.388416614583335,40.589588489583335,71.0,87.0
12,40.622791614583335,42.999744739583335,68.0,97.0
13,43.435291614583335,43.568104114583335,70.0,97.0
14,43.669666614583335,43.784900989583335,70.0,111.0
15,43.904041614583335,44.257557239583335,70.0,111.0
16,44.372791614583335,44.501697864583335,71.0,105.0
17,44.607166614583335,45.245838489583335,73.0,108.0
18,45.310291614583335,45.650135364583335,70.0,111.0
19,45.779041614583335,45.902088489583335,68.0,108.0
20,46.013416614583335,46.683338489583335,66.0,92.0
21,46.716541614583335,49.560291614583335,63.0,105.0
22,50.935291614583335,51.068104114583335,75.0,102.0
23,51.169666614583335,51.279041614583335,73.0,89.0
24,51.404041614583335,51.716541614583335,75.0,102.0
25,51.872791614583335,51.999744739583335,75.0,100.0
26,52.107166614583335,52.724354114583335,73.0,111.0
27,52.810291614583335,53.198963489583335,73.0,102.0
28,53.279041614583335,54.003650989583335,71.0,102.0
29,54.216541614583335,54.579822864583335,73.0,111.0
30,54.685291614583335,54.991932239583335,68.0,111.0
31,55.154041614583335,55.292713489583335,68.0,105.0
32,55.388416614583335,56.015369739583335,73.0,105.0
33,56.091541614583335,57.978260364583335,71.0,73.0
34,58.435291614583335,58.527088489583335,70.0,89.0
35,58.669666614583335,58.779041614583335,70.0,94.0
36,58.904041614583335,59.243885364583335,70.0,108.0
37,59.372791614583335,59.488025989583335,71.0,100.0
38,59.607166614583335,60.218494739583335,73.0,108.0
39,60.310291614583335,60.669666614583335,73.0,105.0
40,60.779041614583335,60.917713489583335,70.0,108.0
41,61.013416614583335,61.693104114583335,66.0,100.0
42,61.716541614583335,64.35130723958333,63.0,97.0
43,65.46654161458333,66.00365098958333,78.0,117.0
44,66.16966661458333,66.76732286458333,73.0,114.0
45,66.87279161458333,67.22630723958333,75.0,111.0
46,67.34154161458333,67.98411973958333,78.0,114.0
47,68.04466661458333,68.63255723958333,73.0,105.0
48,68.74779161458333,69.20872911458333,71.0,92.0
49,69.21654161458333,72.56419786458333,68.0,114.0
50,72.96654161458333,73.50560411458333,73.0,108.0
51,73.66966661458333,74.20286973958333,68.0,111.0
52,74.37279161458333,74.73021348958333,75.0,114.0
53,74.84154161458333,75.48021348958333,73.0,108.0
54,75.54466661458333,76.11107286458333,71.0,100.0
55,76.24779161458333,76.66185411458333,71.0,100.0
56,76.71654161458333,80.03685411458333,66.0,111.0
57,80.46654161458333,81.00365098958333,78.0,117.0
58,81.16966661458333,81.76732286458333,73.0,114.0
59,81.87279161458333,82.22630723958333,75.0,111.0
60,82.34154161458333,82.98411973958333,78.0,114.0
61,83.04466661458333,83.63255723958333,73.0,105.0
62,83.74779161458333,84.20872911458333,71.0,92.0
63,84.21654161458333,87.56419786458333,68.0,114.0
64,87.96654161458333,88.50560411458333,73.0,108.0
65,88.66966661458333,89.20286973958333,68.0,111.0
66,89.37279161458333,89.73021348958333,75.0,114.0
67,89.84154161458333,90.48021348958333,73.0,108.0
68,90.54466661458333,91.11107286458333,71.0,100.0
69,91.24779161458333,91.66185411458333,73.0,100.0
70,91.71654161458333,95.03685411458333,73.0,111.0
71,95.93529161458333,96.05052598958333,71.0,102.0
72,96.16966661458333,96.26927598958333,71.0,105.0
73,96.40404161458333,96.72826036458333,71.0,111.0
74,96.87279161458333,96.99974473958333,66.0,108.0
75,97.10716661458333,97.71654161458333,71.0,111.0
76,97.81029161458333,98.15794786458333,78.0,117.0
77,98.27904161458333,98.63646348958333,76.0,102.0
78,98.74779161458333,99.05247911458333,75.0,108.0
79,99.21654161458333,99.81615098958333,73.0,108.0
80,99.91966661458333,102.02122911458333,71.0,108.0
81,102.26341661458333,102.48997911458333,71.0,114.0
82,102.49779161458333,102.64818223958333,75.0,92.0
83,102.73216661458333,102.88060411458333,78.0,105.0
84,102.96654161458333,103.31419786458333,80.0,100.0
85,103.43529161458333,103.55247911458333,78.0,102.0
86,103.66966661458333,104.05638536458333,80.0,111.0
87,104.13841661458333,104.47826036458333,78.0,108.0
88,104.84154161458333,105.30247911458333,80.0,114.0
89,105.31029161458333,105.65794786458333,78.0,105.0
90,105.77904161458333,105.89622911458333,75.0,100.0
91,106.01341661458333,106.53490098958333,78.0,111.0
92,106.71654161458333,109.98997911458333,75.0,105.0
93,110.93529161458333,111.04076036458333,71.0,102.0
94,111.16966661458333,111.26341661458333,71.0,102.0
95,111.40404161458333,111.75560411458333,71.0,111.0
96,111.87279161458333,111.98997911458333,66.0,108.0
97,112.10716661458333,112.73021348958333,71.0,114.0
98,112.81029161458333,113.06615098958333,78.0,111.0
99,113.27904161458333,113.60716661458333,76.0,105.0
100,113.74779161458333,114.10911973958333,75.0,111.0
101,114.21654161458333,114.85911973958333,73.0,92.0
102,114.91966661458333,116.95091661458333,71.0,108.0
103,117.26341661458333,117.40599473958333,71.0,108.0
104,117.49779161458333,117.61888536458333,75.0,114.0
105,117.73216661458333,117.84935411458333,78.0,111.0
106,117.96654161458333,118.31810411458333,80.0,114.0
107,118.43529161458333,118.54661973958333,78.0,114.0
108,118.66966661458333,119.03294786458333,80.0,111.0
109,119.13841661458333,119.42747911458333,78.0,111.0
110,119.84154161458333,120.14232286458333,80.0,108.0
111,120.31029161458333,120.66380723958333,78.0,108.0
112,120.77904161458333,120.95482286458333,75.0,111.0
113,121.01341661458333,121.47826036458333,78.0,114.0
114,121.71654161458333,125.29661973958333,78.0,111.0
115,158.74779161458332,158.88060411458332,71.0,97.0
116,158.98216661458332,159.09154161458332,71.0,105.0
117,159.21654161458332,159.53880723958332,71.0,108.0
118,159.68529161458332,160.01341661458332,75.0,105.0
119,160.15404161458332,160.51146348958332,73.0,108.0
120,160.62279161458332,160.73411973958332,73.0,89.0
121,160.85716661458332,161.23216661458332,73.0,102.0
122,161.32591661458332,161.65990098958332,71.0,108.0
123,162.02904161458332,162.40990098958332,73.0,108.0
124,162.49779161458332,162.77708848958332,73.0,105.0
125,162.96654161458332,163.17943223958332,73.0,105.0
126,163.20091661458332,163.40208848958332,71.0,87.0
127,163.43529161458332,165.81224473958332,68.0,97.0
128,166.24779161458332,166.38060411458332,70.0,97.0
129,166.48216661458332,166.59740098958332,70.0,111.0
130,166.71654161458332,167.07005723958332,70.0,111.0
131,167.18529161458332,167.31419786458332,71.0,105.0
132,167.41966661458332,168.05833848958332,73.0,108.0
133,168.12279161458332,168.46263536458332,70.0,111.0
134,168.59154161458332,168.71458848958332,68.0,108.0
135,168.82591661458332,169.49583848958332,66.0,92.0
136,169.52904161458332,172.37279161458332,63.0,105.0
137,173.74779161458332,173.88060411458332,75.0,102.0
138,173.98216661458332,174.09154161458332,73.0,89.0
139,174.21654161458332,174.52904161458332,75.0,102.0
140,174.68529161458332,174.81224473958332,75.0,100.0
141,174.91966661458332,175.53685411458332,73.0,111.0
142,175.62279161458332,176.01146348958332,73.0,102.0
143,176.09154161458332,176.81615098958332,71.0,102.0
144,177.02904161458332,177.39232286458332,73.0,111.0
145,177.49779161458332,177.80443223958332,68.0,111.0
146,177.96654161458332,178.10521348958332,68.0,105.0
147,178.20091661458332,178.82786973958332,73.0,105.0
148,178.90404161458332,180.79076036458332,71.0,73.0
149,181.24779161458332,181.33958848958332,70.0,89.0
150,181.48216661458332,181.59154161458332,70.0,94.0
151,181.71654161458332,182.05638536458332,70.0,108.0
152,182.18529161458332,182.30052598958332,71.0,100.0
153,182.41966661458332,183.03099473958332,73.0,108.0
154,183.12279161458332,183.48216661458332,73.0,105.0
155,183.59154161458332,183.73021348958332,70.0,108.0
156,183.82591661458332,184.50560411458332,66.0,100.0
157,184.52904161458332,187.16380723958332,63.0,97.0
158,188.27904161458332,188.81615098958332,78.0,117.0
159,188.98216661458332,189.57982286458332,73.0,114.0
160,189.68529161458332,190.03880723958332,75.0,111.0
161,190.15404161458332,190.79661973958332,78.0,114.0
162,190.85716661458332,191.44505723958332,73.0,105.0
163,191.56029161458332,192.02122911458332,71.0,92.0
164,192.02904161458332,195.37669786458332,68.0,114.0
165,195.77904161458332,196.31810411458332,73.0,108.0
166,196.48216661458332,197.01536973958332,68.0,111.0
167,197.18529161458332,197.54271348958332,75.0,114.0
168,197.65404161458332,198.29271348958332,73.0,108.0
169,198.35716661458332,198.92357286458332,71.0,100.0
170,199.06029161458332,199.47435411458332,71.0,100.0
171,199.52904161458332,202.84935411458332,66.0,111.0
172,203.27904161458332,203.81615098958332,78.0,117.0
173,203.98216661458332,204.57982286458332,73.0,114.0
174,204.68529161458332,205.03880723958332,75.0,111.0
175,205.15404161458332,205.79661973958332,78.0,114.0
176,205.85716661458332,206.44505723958332,73.0,105.0
177,206.56029161458332,207.02122911458332,71.0,92.0
178,207.02904161458332,210.37669786458332,68.0,114.0
179,210.77904161458332,211.31810411458332,73.0,108.0
180,211.48216661458332,212.01536973958332,68.0,111.0
181,212.18529161458332,212.54271348958332,75.0,114.0
182,212.65404161458332,213.29271348958332,73.0,108.0
183,213.35716661458332,213.92357286458332,71.0,100.0
184,214.06029161458332,214.47435411458332,73.0,100.0
185,214.52904161458332,217.84935411458332,73.0,111.0
186,218.74779161458332,218.86302598958332,71.0,102.0
187,218.98216661458332,219.08177598958332,71.0,105.0
188,219.21654161458332,219.54076036458332,71.0,111.0
189,219.68529161458332,219.81224473958332,66.0,108.0
190,219.91966661458332,220.52904161458332,71.0,111.0
191,220.62279161458332,220.97044786458332,78.0,117.0
192,221.09154161458332,221.44896348958332,76.0,102.0
193,221.56029161458332,221.86497911458332,75.0,108.0
194,222.02904161458332,222.62865098958332,73.0,108.0
195,222.73216661458332,224.83372911458332,71.0,108.0
196,225.07591661458332,225.30247911458332,71.0,114.0
197,225.31029161458332,225.46068223958332,75.0,92.0
198,225.54466661458332,225.69310411458332,78.0,105.0
199,225.77904161458332,226.12669786458332,80.0,100.0
200,226.24779161458332,226.36497911458332,78.0,102.0
201,226.48216661458332,226.86888536458332,80.0,111.0
202,226.95091661458332,227.29076036458332,78.0,108.0
203,227.65404161458332,228.11497911458332,80.0,114.0
204,228.12279161458332,228.47044786458332,78.0,105.0
205,228.59154161458332,228.70872911458332,75.0,100.0
206,228.82591661458332,229.34740098958332,78.0,111.0
207,229.52904161458332,232.80247911458332,75.0,105.0
208,233.74779161458332,233.85326036458332,71.0,102.0
209,233.98216661458332,234.07591661458332,71.0,102.0
210,234.21654161458332,234.56810411458332,71.0,111.0
211,234.68529161458332,234.80247911458332,66.0,108.0
212,234.91966661458332,235.54271348958332,71.0,114.0
213,235.62279161458332,235.87865098958332,78.0,111.0
214,236.09154161458332,236.41966661458332,76.0,105.0
215,236.56029161458332,236.92161973958332,75.0,111.0
216,237.02904161458332,237.67161973958332,73.0,92.0
217,237.73216661458332,239.76341661458332,71.0,108.0
218,240.07591661458332,240.21849473958332,71.0,108.0
219,240.31029161458332,240.43138536458332,75.0,114.0
220,240.54466661458332,240.66185411458332,78.0,111.0
221,240.77904161458332,241.13060411458332,80.0,114.0
222,241.24779161458332,241.35911973958332,78.0,114.0
223,241.48216661458332,241.84544786458332,80.0,111.0
224,241.95091661458332,242.23997911458332,78.0,111.0
225,242.65404161458332,242.95482286458332,80.0,108.0
226,243.12279161458332,243.47630723958332,78.0,108.0
227,243.59154161458332,243.76732286458332,75.0,111.0
228,243.82591661458332,244.29076036458332,78.0,114.0
229,244.52904161458332,248.10911973958332,78.0,111.0
230,248.74779161458332,248.86302598958332,71.0,102.0
231,248.98216661458332,249.08177598958332,71.0,105.0
232,249.21654161458332,249.54076036458332,71.0,111.0
233,249.68529161458332,249.81224473958332,66.0,108.0
234,249.91966661458332,250.52904161458332,71.0,111.0
235,250.62279161458332,250.97044786458332,78.0,117.0
236,251.09154161458332,251.44896348958332,76.0,102.0
237,251.56029161458332,251.86497911458332,75.0,108.0
238,252.02904161458332,252.62865098958332,73.0,108.0
239,252.73216661458332,254.83372911458332,71.0,108.0
240,255.07591661458332,255.30247911458332,71.0,114.0
241,255.31029161458332,255.46068223958332,75.0,92.0
242,255.54466661458332,255.69310411458332,78.0,105.0
243,255.77904161458332,256.1266978645833,80.0,100.0
244,256.2477916145833,256.3649791145833,78.0,102.0
245,256.4821666145833,256.8688853645833,80.0,111.0
246,256.9509166145833,257.2907603645833,78.0,108.0
247,257.6540416145833,258.1149791145833,80.0,114.0
248,258.1227916145833,258.4704478645833,78.0,105.0
249,258.5915416145833,258.7087291145833,75.0,100.0
250,258.8259166145833,259.3474009895833,78.0,111.0
251,259.5290416145833,262.8024791145833,75.0,105.0
252,263.7477916145833,263.8532603645833,71.0,102.0
253,263.9821666145833,264.0759166145833,71.0,102.0
254,264.2165416145833,264.5681041145833,71.0,111.0
255,264.6852916145833,264.8024791145833,66.0,108.0
256,264.9196666145833,265.5427134895833,71.0,114.0
257,265.6227916145833,265.8786509895833,78.0,111.0
258,266.0915416145833,266.4196666145833,76.0,105.0
259,266.5602916145833,266.9216197395833,75.0,111.0
260,267.0290416145833,267.6716197395833,73.0,92.0
261,267.7321666145833,269.7634166145833,71.0,108.0
262,270.0759166145833,270.2184947395833,71.0,108.0
263,270.3102916145833,270.4313853645833,75.0,114.0
264,270.5446666145833,270.6618541145833,78.0,111.0
265,270.7790416145833,271.1306041145833,80.0,114.0
266,271.2477916145833,271.3591197395833,78.0,114.0
267,271.4821666145833,271.8454478645833,80.0,111.0
268,271.9509166145833,272.2399791145833,78.0,111.0
269,272.6540416145833,272.9548228645833,80.0,108.0
270,273.1227916145833,273.4763072395833,78.0,108.0
271,273.5915416145833,273.7673228645833,75.0,111.0
272,273.8259166145833,274.2907603645833,78.0,114.0
273,274.5290416145833,278.1091197395833,78.0,111.0
274,278.7477916145833,278.8806041145833,71.0,97.0
275,278.9821666145833,279.0915416145833,71.0,105.0
276,279.2165416145833,279.5388072395833,71.0,108.0
277,279.6852916145833,280.0134166145833,75.0,105.0
278,280.1540416145833,280.5114634895833,73.0,108.0
279,280.6227916145833,280.7341197395833,73.0,89.0
280,280.8571666145833,281.2321666145833,73.0,102.0
281,281.3259166145833,281.6599009895833,71.0,108.0
282,282.0290416145833,282.4099009895833,73.0,108.0
283,282.4977916145833,282.7770884895833,73.0,105.0
284,282.9665416145833,283.1794322395833,73.0,105.0
285,283.2009166145833,283.4020884895833,71.0,87.0
286,283.4352916145833,285.8122447395833,68.0,97.0
