,start,end,pitch,velocity
0,5.421875,5.654296875,54.0,80.0
1,5.490234375,6.048828125,59.0,94.0
2,5.587890625,6.068359375,63.0,94.0
3,5.517578125,6.68359375,35.0,101.0
4,6.90234375,7.212890625,54.0,87.0
5,7.400390625,7.56640625,54.0,101.0
6,7.392578125,7.62109375,63.0,99.0
7,8.22265625,8.41796875,59.0,66.0
8,8.294921875,8.486328125,63.0,96.0
9,8.349609375,8.564453125,47.0,96.0
10,8.388671875,8.62890625,66.0,99.0
11,9.23046875,9.55859375,56.0,99.0
12,9.16015625,9.580078125,52.0,82.0
13,9.322265625,9.845703125,59.0,94.0
14,11.119140625,11.2109375,52.0,96.0
15,11.109375,11.21875,56.0,104.0
16,11.1171875,11.29296875,64.0,104.0
17,11.94921875,12.1015625,64.0,38.0
18,12.0234375,12.146484375,68.0,67.0
19,12.08984375,12.21875,71.0,99.0
20,10.623046875,12.30078125,47.0,62.0
21,9.28515625,12.322265625,40.0,104.0
22,12.978515625,13.984375,54.0,85.0
23,13.005859375,14.033203125,58.0,96.0
24,14.39453125,14.509765625,61.0,99.0
25,14.833984375,14.9296875,58.0,91.0
26,14.892578125,14.953125,61.0,96.0
27,14.92578125,15.048828125,66.0,101.0
28,15.818359375,15.95703125,66.0,106.0
29,15.666015625,16.08984375,49.0,1.0
30,15.81640625,16.10546875,73.0,106.0
31,13.037109375,16.1875,42.0,106.0
32,16.67578125,17.388671875,59.0,39.0
33,16.75,17.833984375,63.0,74.0
34,18.1484375,18.66015625,59.0,85.0
35,18.603515625,19.3046875,63.0,109.0
36,19.033203125,19.34765625,59.0,69.0
37,17.677734375,19.693359375,54.0,66.0
38,19.5390625,19.7421875,59.0,99.0
39,16.783203125,19.798828125,47.0,104.0
40,19.537109375,19.841796875,66.0,99.0
41,20.50390625,20.8515625,35.0,94.0
42,20.498046875,21.25,63.0,101.0
43,20.494140625,21.287109375,59.0,91.0
44,22.2421875,22.408203125,59.0,39.0
45,22.326171875,22.4765625,63.0,85.0
46,22.4140625,22.56640625,66.0,101.0
47,21.875,23.431640625,54.0,40.0
48,23.361328125,23.6484375,59.0,96.0
49,23.35546875,23.662109375,63.0,109.0
50,24.125,24.353515625,59.0,67.0
51,24.298828125,24.388671875,40.0,101.0
52,24.212890625,24.888671875,64.0,96.0
53,24.310546875,25.056640625,68.0,101.0
54,24.986328125,25.86328125,52.0,76.0
55,25.44921875,25.9609375,59.0,112.0
56,25.6640625,25.97265625,64.0,112.0
57,25.87109375,26.05078125,68.0,91.0
58,26.181640625,26.75,68.0,94.0
59,26.142578125,26.888671875,64.0,101.0
60,26.1328125,26.919921875,59.0,85.0
61,25.244140625,27.04296875,56.0,112.0
62,24.76171875,27.171875,47.0,58.0
63,27.08203125,27.408203125,59.0,82.0
64,27.076171875,27.533203125,64.0,87.0
65,27.955078125,28.232421875,61.0,85.0
66,27.99609375,28.480919270833333,66.0,96.0
67,28.97899515625,29.667455260416666,61.0,104.0
68,29.427071145833334,29.675147552083335,54.0,82.0
69,29.952070052083332,30.78091447916667,54.0,66.0
70,28.513611510416666,30.878991197916665,49.0,36.0
71,29.905916302083334,30.915529583333335,61.0,99.0
72,29.917454739583334,30.915529583333335,66.0,76.0
73,28.017578125,30.9924525,42.0,104.0
74,31.615528125,31.805912343750002,54.0,66.0
75,31.753989375,31.855912239583333,35.0,96.0
76,31.68668182291667,31.93475822916667,59.0,87.0
77,31.75975859375,32.23860375,63.0,87.0
78,33.153986458333335,33.465524270833335,59.0,96.0
79,32.24437296875,34.544368177083335,47.0,46.0
80,32.71552583333333,34.54629125,54.0,104.0
81,33.64437005208333,34.83859833333334,63.0,94.0
82,33.64437005208333,34.85013677083333,59.0,94.0
83,35.765369739583335,36.136463489583335,54.0,71.0
84,35.974354114583335,36.788807239583335,59.0,82.0
85,35.530994739583335,37.189197864583335,47.0,99.0
86,36.900135364583335,37.234119739583335,54.0,45.0
87,36.202869739583335,37.517322864583335,63.0,104.0
88,37.126697864583335,37.587635364583335,59.0,94.0
89,37.601307239583335,38.085682239583335,54.0,69.0
90,37.820057239583335,38.747791614583335,59.0,87.0
91,37.363025989583335,38.890369739583335,47.0,94.0
92,38.794666614583335,38.939197864583335,54.0,42.0
93,38.064197864583335,39.072010364583335,63.0,101.0
94,39.001697864583335,39.282947864583335,59.0,96.0
95,39.460682239583335,39.993885364583335,47.0,58.0
96,39.234119739583335,40.878650989583335,40.0,101.0
97,40.654041614583335,41.017322864583335,47.0,31.0
98,39.691150989583335,41.282947864583335,52.0,91.0
99,39.917713489583335,41.581775989583335,59.0,99.0
100,40.876697864583335,41.718494739583335,64.0,82.0
101,41.312244739583335,41.882557239583335,47.0,61.0
102,41.546619739583335,42.515369739583335,52.0,101.0
103,41.077869739583335,42.634510364583335,40.0,101.0
104,42.503650989583335,42.849354114583335,47.0,85.0
105,42.722400989583335,42.978260364583335,52.0,89.0
106,41.794666614583335,43.050525989583335,59.0,109.0
107,43.212635364583335,43.745838489583335,49.0,64.0
108,43.441150989583335,44.605213489583335,54.0,80.0
109,42.982166614583335,44.616932239583335,42.0,101.0
110,44.398182239583335,44.681385364583335,49.0,76.0
111,44.616932239583335,45.322010364583335,66.0,101.0
112,43.691150989583335,45.351307239583335,61.0,106.0
113,45.310291614583335,46.232166614583335,54.0,69.0
114,45.060291614583335,46.333729114583335,49.0,76.0
115,44.839588489583335,46.409900989583335,42.0,101.0
116,46.488025989583335,46.704822864583335,54.0,101.0
117,45.527088489583335,46.728260364583335,61.0,99.0
118,46.257557239583335,46.902088489583335,64.0,104.0
119,46.962635364583335,47.450916614583335,54.0,66.0
120,47.179432239583335,47.777088489583335,59.0,89.0
121,47.417713489583335,48.152088489583335,63.0,112.0
122,46.714588489583335,48.368885364583335,47.0,101.0
123,47.884510364583335,48.417713489583335,54.0,74.0
124,48.138416614583335,48.820057239583335,59.0,82.0
125,48.359119739583335,49.255604114583335,66.0,101.0
126,48.808338489583335,49.359119739583335,54.0,61.0
127,49.077869739583335,49.654041614583335,59.0,82.0
128,49.300525989583335,50.038807239583335,63.0,104.0
129,48.579822864583335,50.185291614583335,47.0,101.0
130,49.784900989583335,50.361072864583335,54.0,73.0
131,50.048572864583335,50.454822864583335,59.0,67.0
132,50.263416614583335,50.919666614583335,63.0,94.0
133,50.720447864583335,51.267322864583335,54.0,71.0
134,50.968494739583335,51.734119739583335,59.0,82.0
135,50.505604114583335,52.148182239583335,47.0,101.0
136,51.904041614583335,52.175525989583335,54.0,67.0
137,51.200916614583335,52.622791614583335,63.0,109.0
138,52.144275989583335,52.626697864583335,59.0,99.0
139,52.591541614583335,53.107166614583335,54.0,78.0
140,52.820057239583335,53.120838489583335,59.0,91.0
141,53.538807239583335,53.786854114583335,54.0,82.0
142,52.361072864583335,53.806385364583335,47.0,101.0
143,53.044666614583335,53.851307239583335,66.0,101.0
144,53.769275989583335,54.134510364583335,63.0,104.0
145,53.999744739583335,54.263416614583335,59.0,94.0
146,54.462635364583335,55.136463489583335,47.0,71.0
147,54.236072864583335,55.868885364583335,40.0,91.0
148,55.611072864583335,55.898182239583335,47.0,78.0
149,54.706775989583335,56.128650989583335,52.0,96.0
150,55.849354114583335,56.363025989583335,56.0,96.0
151,54.935291614583335,56.540760364583335,59.0,106.0
152,56.529041614583335,56.816150989583335,52.0,74.0
153,56.282947864583335,56.849354114583335,47.0,66.0
154,56.064197864583335,57.747791614583335,40.0,104.0
155,57.489979114583335,57.831775989583335,47.0,71.0
156,57.745838489583335,57.978260364583335,52.0,67.0
157,57.216541614583335,58.044666614583335,59.0,91.0
158,56.755604114583335,58.652088489583335,64.0,106.0
159,58.445057239583335,58.980213489583335,49.0,76.0
160,58.691150989583335,58.997791614583335,54.0,80.0
161,58.921619739583335,59.491932239583335,61.0,106.0
162,58.025135364583335,59.661854114583335,42.0,106.0
163,59.155994739583335,59.702869739583335,49.0,67.0
164,59.396229114583335,60.089588489583335,54.0,85.0
165,60.339588489583335,60.570057239583335,54.0,69.0
166,60.099354114583335,60.628650989583335,49.0,67.0
167,59.630604114583335,60.837635364583335,61.0,101.0
168,59.857166614583335,61.195057239583335,42.0,106.0
169,61.009510364583335,61.306385364583335,61.0,96.0
170,61.238025989583335,61.511463489583335,54.0,94.0
171,61.466541614583335,61.700916614583335,61.0,89.0
172,60.573963489583335,61.839588489583335,66.0,101.0
173,61.974354114583335,62.452869739583335,54.0,55.0
174,62.195057239583335,62.669666614583335,59.0,78.0
175,62.445057239583335,63.204822864583335,63.0,109.0
176,61.730213489583335,63.374744739583335,47.0,101.0
177,63.171619739583335,63.413807239583335,54.0,82.0
178,63.378650989583335,63.820057239583335,59.0,101.0
179,64.06224473958333,64.25951036458333,59.0,85.0
180,63.825916614583335,64.34349473958333,54.0,69.0
181,64.30247911458333,64.74193223958333,64.0,112.0
182,64.57201036458333,64.96654161458333,54.0,35.0
183,64.76927598958333,65.00951036458333,63.0,106.0
184,63.593494739583335,65.08763536458333,47.0,104.0
185,65.00365098958333,65.36693223958333,59.0,99.0
186,65.48997911458333,65.71654161458333,59.0,96.0
187,65.48802598958333,65.94310411458333,63.0,104.0
188,65.73607286458333,66.22240098958333,54.0,74.0
189,65.95677598958333,66.25951036458333,59.0,76.0
190,65.49388536458333,67.14818223958333,47.0,101.0
191,66.87083848958333,67.19310411458333,54.0,101.0
192,67.11888536458333,67.57396348958333,59.0,109.0
193,66.19115098958333,67.60716661458333,66.0,104.0
194,67.56810411458333,68.08568223958333,54.0,85.0
195,67.82005723958333,68.55833848958333,59.0,94.0
196,67.32982286458333,68.89036973958333,47.0,101.0
197,68.75755723958333,68.93333848958333,54.0,94.0
198,68.06029161458333,69.01341661458333,63.0,109.0
199,69.01146348958333,69.25365098958333,59.0,87.0
200,69.43919786458333,69.90794786458333,51.0,67.0
201,69.69115098958333,70.30247911458333,56.0,89.0
202,69.94115098958333,70.67552598958333,59.0,109.0
203,69.22435411458333,70.81419786458333,44.0,101.0
204,70.43138536458333,70.89232286458333,51.0,71.0
205,70.67161973958333,71.30247911458333,56.0,99.0
206,70.90208848958333,71.47044786458333,59.0,85.0
207,71.33177598958333,71.86693223958333,51.0,69.0
208,71.56224473958333,71.89036973958333,56.0,96.0
209,71.79661973958333,72.56029161458333,63.0,104.0
210,72.27708848958333,72.64232286458333,51.0,76.0
211,71.10130723958333,72.65794786458333,44.0,104.0
212,72.50755723958333,72.87083848958333,59.0,94.0
213,72.73021348958333,73.00560411458333,56.0,91.0
214,73.40013536458333,74.33372911458333,61.0,91.0
215,73.64036973958333,74.36497911458333,56.0,96.0
216,72.96458848958333,74.63841661458333,49.0,106.0
217,74.60130723958333,75.35326036458333,56.0,96.0
218,74.35521348958333,75.38255723958333,64.0,104.0
219,75.35326036458333,75.77122911458333,61.0,104.0
220,75.57201036458333,76.05638536458333,56.0,99.0
221,74.83958848958333,76.42161973958333,49.0,112.0
222,76.03880723958333,76.62669786458333,64.0,109.0
223,76.28099473958333,76.73021348958333,56.0,94.0
224,76.53294786458333,76.76341661458333,61.0,96.0
225,76.97630723958333,77.57396348958333,49.0,71.0
226,77.22044786458333,77.90794786458333,54.0,91.0
227,76.73802598958333,78.39036973958333,42.0,106.0
228,77.92747911458333,78.39622911458333,49.0,85.0
229,77.47435411458333,78.75951036458333,61.0,109.0
230,78.15794786458333,78.76341661458333,54.0,99.0
231,78.39232286458333,79.14622911458333,66.0,104.0
232,78.83958848958333,79.37279161458333,49.0,82.0
233,79.08177598958333,79.79076036458333,54.0,85.0
234,78.61497911458333,80.06224473958333,42.0,106.0
235,79.31419786458333,80.08763536458333,61.0,112.0
236,79.81029161458333,80.09154161458333,49.0,76.0
237,80.03099473958333,80.31419786458333,54.0,109.0
238,80.26927598958333,80.54271348958333,61.0,104.0
239,80.73411973958333,81.28294786458333,54.0,62.0
240,80.97630723958333,81.44310411458333,59.0,78.0
241,81.21263536458333,81.95286973958333,63.0,115.0
242,80.49388536458333,82.13060411458333,47.0,106.0
243,81.68724473958333,82.19701036458333,54.0,78.0
244,81.92552598958333,82.57786973958333,59.0,101.0
245,82.15404161458333,82.95286973958333,66.0,99.0
246,82.60326036458333,83.19115098958333,54.0,69.0
247,82.86888536458333,83.27904161458333,59.0,82.0
248,83.08958848958333,83.69310411458333,63.0,112.0
249,82.37279161458333,83.83177598958333,47.0,104.0
250,83.54661973958333,83.87083848958333,54.0,61.0
251,83.78685411458333,84.05443223958333,59.0,87.0
252,84.01341661458333,84.60130723958333,63.0,112.0
253,84.45872911458333,84.96849473958333,51.0,71.0
254,84.69896348958333,84.97630723958333,56.0,96.0
255,84.91576036458333,85.58958848958333,59.0,104.0
256,84.24779161458333,85.84349473958333,44.0,104.0
257,85.36497911458333,85.85521348958333,51.0,62.0
258,85.60716661458333,86.25365098958333,56.0,85.0
259,85.82786973958333,86.60521348958333,63.0,96.0
260,86.28880723958333,86.83763536458333,51.0,66.0
261,86.55833848958333,87.25169786458333,56.0,80.0
262,86.77708848958333,87.48802598958333,59.0,104.0
263,86.06615098958333,87.67747911458333,44.0,106.0
264,87.27904161458333,87.67747911458333,51.0,58.0
265,87.51341661458333,87.80247911458333,56.0,101.0
266,87.73802598958333,87.94115098958333,59.0,87.0
267,88.41380723958333,88.71068223958333,56.0,91.0
268,88.20677598958333,88.96263536458333,52.0,67.0
269,88.65404161458333,89.39818223958333,61.0,106.0
270,87.94701036458333,89.56029161458333,49.0,106.0
271,89.12865098958333,89.57591661458333,52.0,91.0
272,89.36107286458333,89.84935411458333,56.0,101.0
273,89.58958848958333,90.12669786458333,61.0,99.0
274,90.08568223958333,90.48607286458333,56.0,99.0
275,90.30833848958333,90.60716661458333,61.0,96.0
276,91.01732286458333,91.30052598958333,61.0,91.0
277,89.84544786458333,91.30443223958333,49.0,109.0
278,90.56224473958333,91.33177598958333,64.0,106.0
279,91.24583848958333,91.59349473958333,56.0,94.0
280,91.49583848958333,91.94115098958333,61.0,91.0
281,91.94701036458333,92.49193223958333,49.0,67.0
282,92.19115098958333,92.50951036458333,54.0,82.0
283,92.43333848958333,93.27318223958333,61.0,104.0
284,92.92747911458333,93.37279161458333,49.0,51.0
285,91.73216661458333,93.41576036458333,42.0,106.0
286,93.17161973958333,93.65404161458333,54.0,69.0
287,93.39036973958333,93.70286973958333,61.0,85.0
288,93.41185411458333,93.87669786458333,66.0,101.0
289,93.84154161458333,94.35716661458333,49.0,80.0
290,94.08372911458333,94.36302598958333,54.0,94.0
291,94.30052598958333,94.79857286458333,61.0,115.0
292,94.75169786458333,94.99779161458333,54.0,99.0
293,94.52513536458333,95.09740098958333,49.0,89.0
294,93.61888536458333,95.15990098958333,42.0,109.0
295,95.22630723958333,95.37083848958333,54.0,78.0
296,94.98216661458333,95.43333848958333,61.0,104.0
297,95.72240098958333,96.20677598958333,54.0,66.0
298,95.94896348958333,96.36497911458333,59.0,76.0
299,96.18919786458333,96.88255723958333,63.0,109.0
300,95.48021348958333,97.18333848958333,47.0,101.0
301,96.65599473958333,97.23021348958333,54.0,71.0
302,96.91185411458333,97.49779161458333,59.0,94.0
303,97.16380723958333,97.65208848958333,63.0,76.0
304,97.59349473958333,98.12865098958333,54.0,59.0
305,97.82982286458333,98.16576036458333,59.0,85.0
306,98.07591661458333,98.57396348958333,63.0,112.0
307,98.57591661458333,98.79661973958333,59.0,89.0
308,98.31029161458333,99.00755723958333,54.0,66.0
309,97.37279161458333,99.04271348958333,47.0,101.0
310,98.79466661458333,99.26927598958333,63.0,106.0
311,99.03490098958333,99.28490098958333,59.0,96.0
312,99.72435411458333,99.84349473958333,56.0,96.0
313,99.49388536458333,100.00560411458333,51.0,58.0
314,99.96068223958333,100.45872911458333,56.0,112.0
315,99.95091661458333,100.65990098958333,59.0,106.0
316,99.25755723958333,100.91185411458333,44.0,106.0
317,100.42747911458333,100.96458848958333,51.0,91.0
318,100.66771348958333,100.96654161458333,56.0,101.0
319,100.89427598958333,101.52904161458333,59.0,99.0
320,101.61107286458333,101.69701036458333,56.0,46.0
321,101.33568223958333,101.88255723958333,51.0,67.0
322,101.83372911458333,102.44115098958333,63.0,104.0
323,101.82396348958333,102.48411973958333,59.0,106.0
324,102.30638536458333,102.55638536458333,51.0,67.0
325,101.11497911458333,102.58763536458333,44.0,104.0
326,102.51927598958333,102.81419786458333,56.0,106.0
327,102.74779161458333,103.35326036458333,59.0,109.0
328,103.43529161458333,103.71068223958333,56.0,104.0
329,103.21068223958333,103.97435411458333,47.0,67.0
330,103.67943223958333,104.09544786458333,59.0,94.0
331,103.67552598958333,104.31029161458333,64.0,112.0
332,104.08763536458333,104.39427598958333,56.0,104.0
333,102.98021348958333,104.50560411458333,40.0,106.0
334,104.33958848958333,105.27513536458333,59.0,91.0
335,104.58763536458333,105.29466661458333,64.0,101.0
336,105.00560411458333,105.61497911458333,47.0,61.0
337,105.29271348958333,105.65013536458333,56.0,78.0
338,105.55443223958333,106.27904161458333,59.0,106.0
339,104.80443223958333,106.41966661458333,40.0,106.0
340,106.04857286458333,106.45286973958333,47.0,40.0
341,106.26732286458333,106.53880723958333,56.0,96.0
342,106.47826036458333,107.22435411458333,59.0,101.0
343,107.18333848958333,107.44310411458333,54.0,89.0
344,107.45091661458333,107.97044786458333,63.0,112.0
345,107.90013536458333,108.15990098958333,59.0,99.0
346,106.71654161458333,108.48411973958333,47.0,96.0
347,108.13646348958333,108.51146348958333,54.0,89.0
348,108.37669786458333,108.64036973958333,59.0,94.0
349,108.83568223958333,109.36107286458333,49.0,71.0
350,109.07982286458333,109.38451036458333,54.0,82.0
351,109.32005723958333,110.03880723958333,61.0,112.0
352,108.62083848958333,110.15599473958333,42.0,104.0
353,109.79076036458333,110.16966661458333,49.0,99.0
354,110.02513536458333,110.25169786458333,58.0,109.0
355,110.26536973958333,110.39427598958333,54.0,78.0
356,110.49583848958333,110.75951036458333,54.0,104.0
357,110.48802598958333,111.08177598958333,59.0,106.0
358,110.96654161458333,111.14818223958333,54.0,61.0
359,111.19896348958333,111.68529161458333,63.0,106.0
360,110.47826036458333,111.82396348958333,47.0,101.0
361,111.64622911458333,111.95482286458333,59.0,96.0
362,111.89622911458333,112.14622911458333,54.0,85.0
363,112.14036973958333,112.47826036458333,63.0,85.0
364,112.86693223958333,112.95286973958333,59.0,78.0
365,112.61302598958333,113.11888536458333,54.0,61.0
366,113.08372911458333,113.30052598958333,59.0,109.0
367,113.08177598958333,113.35911973958333,66.0,112.0
368,113.55052598958333,113.74779161458333,59.0,96.0
369,113.54857286458333,113.77122911458333,63.0,89.0
370,113.76341661458333,113.94896348958333,54.0,82.0
371,112.36693223958333,114.00560411458333,47.0,106.0
372,114.02904161458333,114.26927598958333,59.0,85.0
373,114.72630723958333,114.82982286458333,56.0,104.0
374,114.49193223958333,115.04661973958333,51.0,69.0
375,114.96849473958333,115.43529161458333,56.0,106.0
376,114.97240098958333,115.54466661458333,59.0,106.0
377,114.27122911458333,115.91185411458333,44.0,101.0
378,115.43138536458333,115.92943223958333,51.0,73.0
379,115.68919786458333,116.34154161458333,56.0,91.0
380,115.90208848958333,116.66771348958333,63.0,101.0
381,116.33958848958333,117.02904161458333,51.0,73.0
382,116.57201036458333,117.27513536458333,56.0,101.0
383,116.79466661458333,117.36107286458333,59.0,101.0
384,117.26536973958333,117.60130723958333,51.0,73.0
385,116.12669786458333,117.65404161458333,44.0,106.0
386,117.50169786458333,117.81224473958333,56.0,104.0
387,117.73216661458333,118.08372911458333,59.0,101.0
388,118.41380723958333,118.68919786458333,56.0,104.0
389,118.16966661458333,118.86497911458333,47.0,67.0
390,118.64818223958333,119.12083848958333,59.0,106.0
391,118.64427598958333,119.27904161458333,64.0,106.0
392,119.10521348958333,119.63646348958333,47.0,85.0
393,117.95677598958333,119.66380723958333,40.0,104.0
394,119.34935411458333,119.91380723958333,56.0,94.0
395,119.60911973958333,120.27513536458333,59.0,104.0
396,120.06029161458333,120.57201036458333,47.0,69.0
397,120.29076036458333,120.63060411458333,56.0,96.0
398,120.54271348958333,121.26732286458333,59.0,109.0
399,121.00169786458333,121.47826036458333,47.0,56.0
400,119.83568223958333,121.48021348958333,40.0,106.0
401,121.24779161458333,121.63841661458333,56.0,94.0
402,121.49388536458333,121.72435411458333,59.0,82.0
403,121.96654161458333,122.48021348958333,49.0,62.0
404,122.18529161458333,122.48802598958333,54.0,104.0
405,122.41185411458333,123.24193223958333,61.0,109.0
406,122.88451036458333,123.38646348958333,49.0,89.0
407,121.71263536458333,123.41771348958333,42.0,106.0
408,123.13060411458333,123.45482286458333,54.0,91.0
409,123.36302598958333,123.53880723958333,61.0,106.0
410,123.51146348958333,125.24779161458333,54.0,85.0
411,123.55443223958333,125.35521348958333,58.0,87.0
412,123.59349473958333,125.42357286458333,42.0,87.0
413,125.51146348958333,126.57591661458333,42.0,99.0
414,123.62865098958333,128.25169786458332,61.0,71.0
415,125.53294786458333,128.25365098958332,66.0,85.0
416,125.41771348958333,128.25755723958332,54.0,64.0
417,125.45677598958333,128.30052598958332,58.0,58.0
418,128.27904161458332,128.76146348958332,69.0,87.0
419,128.27904161458332,128.87669786458332,66.0,84.0
420,128.27904161458332,128.88451036458332,62.0,76.0
421,128.74779161458332,129.40208848958332,57.0,71.0
422,129.21654161458332,130.02318223958332,62.0,100.0
423,129.21654161458332,130.05052598958332,66.0,105.0
424,129.68529161458332,130.29466661458332,57.0,25.0
425,130.15404161458332,130.79271348958332,66.0,108.0
426,130.15404161458332,130.82591661458332,62.0,108.0
427,131.09154161458332,131.38060411458332,62.0,102.0
428,128.27904161458332,131.41185411458332,50.0,102.0
429,130.62279161458332,131.46458848958332,57.0,50.0
430,131.09154161458332,131.68333848958332,66.0,111.0
431,131.09154161458332,131.69701036458332,69.0,105.0
432,131.56029161458332,131.78294786458332,62.0,84.0
433,132.02904161458332,132.79857286458332,59.0,97.0
434,132.02904161458332,132.79857286458332,62.0,97.0
435,132.96654161458332,133.30247911458332,59.0,100.0
436,132.96654161458332,133.35716661458332,62.0,100.0
437,133.43529161458332,134.18529161458332,50.0,25.0
438,133.90404161458332,134.56224473958332,67.0,89.0
439,133.90404161458332,134.62865098958332,62.0,92.0
440,134.84154161458332,135.03685411458332,59.0,102.0
441,132.02904161458332,135.26536973958332,43.0,97.0
442,134.84154161458332,135.32201036458332,62.0,105.0
443,134.37279161458332,135.37669786458332,50.0,48.0
444,134.84154161458332,135.44115098958332,67.0,100.0
445,135.31029161458332,135.63060411458332,59.0,89.0
446,135.77904161458332,136.48997911458332,61.0,84.0
447,135.77904161458332,136.49193223958332,64.0,89.0
448,135.77904161458332,136.52904161458332,57.0,89.0
449,136.24779161458332,136.96458848958332,52.0,67.0
450,136.71654161458332,137.22044786458332,61.0,105.0
451,136.71654161458332,137.26927598958332,64.0,94.0
452,136.71654161458332,137.34349473958332,57.0,97.0
453,137.18529161458332,137.82786973958332,52.0,26.0
454,137.65404161458332,138.16576036458332,64.0,87.0
455,137.65404161458332,138.23216661458332,61.0,92.0
456,138.59154161458332,138.79076036458332,57.0,105.0
457,138.59154161458332,139.08958848958332,61.0,114.0
458,138.59154161458332,139.10716661458332,64.0,100.0
459,135.77904161458332,139.34935411458332,45.0,97.0
460,138.12279161458332,139.35521348958332,52.0,39.0
461,139.06029161458332,139.42747911458332,57.0,80.0
462,139.52904161458332,140.21849473958332,66.0,66.0
463,139.52904161458332,140.22240098958332,62.0,94.0
464,140.46654161458332,140.68919786458332,57.0,100.0
465,140.46654161458332,141.01732286458332,66.0,97.0
466,140.46654161458332,141.07201036458332,62.0,108.0
467,140.93529161458332,141.19701036458332,57.0,47.0
468,141.40404161458332,142.00951036458332,66.0,92.0
469,141.40404161458332,142.03294786458332,62.0,102.0
470,141.87279161458332,142.15794786458332,57.0,69.0
471,142.34154161458332,143.03490098958332,66.0,100.0
472,142.34154161458332,143.05833848958332,62.0,108.0
473,142.81029161458332,143.11888536458332,57.0,92.0
474,139.52904161458332,143.14036973958332,50.0,89.0
475,143.27904161458332,143.76146348958332,69.0,87.0
476,143.27904161458332,143.87669786458332,66.0,84.0
477,143.27904161458332,143.88451036458332,62.0,76.0
478,143.74779161458332,144.40208848958332,57.0,71.0
479,144.21654161458332,145.02318223958332,62.0,100.0
480,144.21654161458332,145.05052598958332,66.0,105.0
481,144.68529161458332,145.29466661458332,57.0,25.0
482,145.15404161458332,145.79271348958332,66.0,108.0
483,145.15404161458332,145.82591661458332,62.0,108.0
484,146.09154161458332,146.38060411458332,62.0,102.0
485,143.27904161458332,146.41185411458332,50.0,102.0
486,145.62279161458332,146.46458848958332,57.0,50.0
487,146.09154161458332,146.68333848958332,66.0,111.0
488,146.09154161458332,146.69701036458332,69.0,105.0
489,146.56029161458332,146.78294786458332,62.0,84.0
490,147.02904161458332,147.79857286458332,59.0,97.0
491,147.02904161458332,147.79857286458332,62.0,97.0
492,147.96654161458332,148.30247911458332,59.0,100.0
493,147.96654161458332,148.35716661458332,62.0,100.0
494,148.43529161458332,149.18529161458332,50.0,25.0
495,148.90404161458332,149.56224473958332,67.0,89.0
496,148.90404161458332,149.62865098958332,62.0,92.0
497,149.84154161458332,150.03685411458332,59.0,102.0
498,147.02904161458332,150.26536973958332,43.0,97.0
499,149.84154161458332,150.32201036458332,62.0,105.0
500,149.37279161458332,150.37669786458332,50.0,48.0
501,149.84154161458332,150.44115098958332,67.0,100.0
502,150.31029161458332,150.63060411458332,59.0,89.0
503,150.77904161458332,151.48997911458332,61.0,84.0
504,150.77904161458332,151.49193223958332,64.0,89.0
505,150.77904161458332,151.52904161458332,57.0,89.0
506,151.24779161458332,151.96458848958332,52.0,67.0
507,151.71654161458332,152.22044786458332,61.0,105.0
508,151.71654161458332,152.26927598958332,64.0,94.0
509,151.71654161458332,152.34349473958332,57.0,97.0
510,152.18529161458332,152.82786973958332,52.0,26.0
511,152.65404161458332,153.16576036458332,64.0,87.0
512,152.65404161458332,153.23216661458332,61.0,92.0
513,153.59154161458332,153.79076036458332,57.0,105.0
514,153.59154161458332,154.08958848958332,61.0,114.0
515,153.59154161458332,154.10716661458332,64.0,100.0
516,150.77904161458332,154.34935411458332,45.0,97.0
517,153.12279161458332,154.35521348958332,52.0,39.0
518,154.06029161458332,154.42747911458332,57.0,80.0
519,154.52904161458332,155.06419786458332,70.0,93.0
520,154.52904161458332,155.08177598958332,66.0,82.0
521,154.99779161458332,155.21068223958332,61.0,69.0
522,155.46654161458332,156.26146348958332,61.0,111.0
523,155.46654161458332,156.27513536458332,66.0,108.0
524,155.93529161458332,156.60716661458332,58.0,41.0
525,156.40404161458332,156.76341661458332,61.0,102.0
526,156.40404161458332,156.79076036458332,66.0,97.0
527,156.40404161458332,156.87865098958332,70.0,77.0
528,154.52904161458332,157.23997911458332,54.0,102.0
529,156.87279161458332,157.32396348958332,58.0,77.0
530,157.34154161458332,157.57005723958332,66.0,92.0
531,157.34154161458332,158.14427598958332,54.0,102.0
532,157.34154161458332,158.16380723958332,61.0,92.0
533,157.34154161458332,158.17747911458332,70.0,93.0
534,157.34154161458332,158.18919786458332,73.0,92.0
535,157.81029161458332,158.22240098958332,66.0,84.0
536,158.57982286458332,158.94896348958332,54.0,71.0
537,158.78685411458332,159.60130723958332,59.0,82.0
538,158.34349473958332,160.00169786458332,47.0,99.0
539,159.71263536458332,160.04857286458332,54.0,45.0
540,159.01536973958332,160.32982286458332,63.0,104.0
541,159.93919786458332,160.40013536458332,59.0,94.0
542,160.41380723958332,160.89818223958332,54.0,69.0
543,160.63255723958332,161.56029161458332,59.0,87.0
544,160.17552598958332,161.70286973958332,47.0,94.0
545,161.60716661458332,161.75365098958332,54.0,42.0
546,160.87865098958332,161.88451036458332,63.0,101.0
547,161.81419786458332,162.09544786458332,59.0,96.0
548,162.27318223958332,162.80638536458332,47.0,58.0
549,162.04661973958332,163.69115098958332,40.0,101.0
550,163.46654161458332,163.82982286458332,47.0,31.0
551,162.50365098958332,164.09740098958332,52.0,91.0
552,162.73021348958332,164.39427598958332,59.0,99.0
553,163.68919786458332,164.53099473958332,64.0,82.0
554,164.12474473958332,164.69505723958332,47.0,61.0
555,164.35911973958332,165.32786973958332,52.0,101.0
556,163.89036973958332,165.44701036458332,40.0,101.0
557,165.31615098958332,165.66380723958332,47.0,85.0
558,165.53490098958332,165.79076036458332,52.0,89.0
559,164.60911973958332,165.86302598958332,59.0,109.0
560,166.02513536458332,166.55833848958332,49.0,64.0
561,166.25365098958332,167.41771348958332,54.0,80.0
562,165.79466661458332,167.42943223958332,42.0,101.0
563,167.21068223958332,167.49388536458332,49.0,76.0
564,167.42943223958332,168.13451036458332,66.0,101.0
565,166.50365098958332,168.16380723958332,61.0,106.0
566,168.12279161458332,169.04466661458332,54.0,69.0
567,167.87474473958332,169.14622911458332,49.0,76.0
568,167.65208848958332,169.22240098958332,42.0,101.0
569,169.30052598958332,169.51732286458332,54.0,101.0
570,168.33958848958332,169.54076036458332,61.0,99.0
571,169.07005723958332,169.71654161458332,64.0,104.0
572,169.77513536458332,170.26536973958332,54.0,66.0
573,169.99388536458332,170.58958848958332,59.0,89.0
574,170.23021348958332,170.96458848958332,63.0,112.0
575,169.52708848958332,171.18138536458332,47.0,101.0
576,170.69701036458332,171.23216661458332,54.0,74.0
577,170.95091661458332,171.63255723958332,59.0,82.0
578,171.17161973958332,172.06810411458332,66.0,101.0
579,171.62083848958332,172.17161973958332,54.0,61.0
580,171.89036973958332,172.46654161458332,59.0,82.0
581,172.11497911458332,172.85130723958332,63.0,104.0
582,171.39232286458332,172.99779161458332,47.0,101.0
583,172.59740098958332,173.17357286458332,54.0,73.0
584,172.86107286458332,173.26732286458332,59.0,67.0
585,173.07591661458332,173.73216661458332,63.0,94.0
586,173.53294786458332,174.07982286458332,54.0,71.0
587,173.78099473958332,174.54661973958332,59.0,82.0
588,173.31810411458332,174.96263536458332,47.0,101.0
589,174.71654161458332,174.98802598958332,54.0,67.0
590,174.01341661458332,175.43529161458332,63.0,109.0
591,174.95677598958332,175.43919786458332,59.0,99.0
592,175.40404161458332,175.91966661458332,54.0,78.0
593,175.63255723958332,175.93333848958332,59.0,91.0
594,176.35130723958332,176.59935411458332,54.0,82.0
595,175.17357286458332,176.61888536458332,47.0,101.0
596,175.85716661458332,176.66576036458332,66.0,101.0
597,176.58177598958332,176.94701036458332,63.0,104.0
598,176.81224473958332,177.07591661458332,59.0,94.0
599,177.27513536458332,177.94896348958332,47.0,71.0
600,177.04857286458332,178.68138536458332,40.0,91.0
601,178.42357286458332,178.71068223958332,47.0,78.0
602,177.51927598958332,178.94115098958332,52.0,96.0
603,178.66185411458332,179.17552598958332,56.0,96.0
604,177.74779161458332,179.35326036458332,59.0,106.0
605,179.34154161458332,179.62865098958332,52.0,74.0
606,179.09544786458332,179.66185411458332,47.0,66.0
607,178.87669786458332,180.56029161458332,40.0,104.0
608,180.30247911458332,180.64427598958332,47.0,71.0
609,180.55833848958332,180.79076036458332,52.0,67.0
610,180.03099473958332,180.85716661458332,59.0,91.0
611,179.57005723958332,181.46458848958332,64.0,106.0
612,181.25755723958332,181.79271348958332,49.0,76.0
613,181.50365098958332,181.81029161458332,54.0,80.0
614,181.73411973958332,182.30443223958332,61.0,106.0
615,180.83763536458332,182.47435411458332,42.0,106.0
616,181.96849473958332,182.51536973958332,49.0,67.0
617,182.20872911458332,182.90208848958332,54.0,85.0
618,183.15208848958332,183.38451036458332,54.0,69.0
619,182.91185411458332,183.44115098958332,49.0,67.0
620,182.44310411458332,183.65013536458332,61.0,101.0
621,182.66966661458332,184.00755723958332,42.0,106.0
622,183.82201036458332,184.12083848958332,61.0,96.0
623,184.05052598958332,184.32396348958332,54.0,94.0
624,184.27904161458332,184.51341661458332,61.0,89.0
625,183.38841661458332,184.65208848958332,66.0,101.0
626,184.78685411458332,185.26732286458332,54.0,55.0
627,185.00755723958332,185.48216661458332,59.0,78.0
628,185.25755723958332,186.01732286458332,63.0,109.0
629,184.54271348958332,186.18919786458332,47.0,101.0
630,185.98411973958332,186.22630723958332,54.0,82.0
631,186.19310411458332,186.63255723958332,59.0,101.0
632,186.87474473958332,187.07201036458332,59.0,85.0
633,186.63841661458332,187.15794786458332,54.0,69.0
634,187.11693223958332,187.55443223958332,64.0,112.0
635,187.38451036458332,187.77904161458332,54.0,35.0
636,187.58177598958332,187.82201036458332,63.0,106.0
637,186.40599473958332,187.90013536458332,47.0,104.0
638,187.81615098958332,188.17943223958332,59.0,99.0
639,188.30247911458332,188.52904161458332,59.0,96.0
640,188.30052598958332,188.75560411458332,63.0,104.0
641,188.54857286458332,189.03490098958332,54.0,74.0
642,188.77122911458332,189.07201036458332,59.0,76.0
643,188.30638536458332,189.96068223958332,47.0,101.0
644,189.68333848958332,190.00560411458332,54.0,101.0
645,189.93138536458332,190.38646348958332,59.0,109.0
646,189.00365098958332,190.41966661458332,66.0,104.0
647,190.38255723958332,190.89818223958332,54.0,85.0
648,190.63255723958332,191.37083848958332,59.0,94.0
649,190.14232286458332,191.70286973958332,47.0,101.0
650,191.57005723958332,191.74583848958332,54.0,94.0
651,190.87279161458332,191.82591661458332,63.0,109.0
652,191.82396348958332,192.06615098958332,59.0,87.0
653,192.25169786458332,192.72044786458332,51.0,67.0
654,192.50365098958332,193.11497911458332,56.0,89.0
655,192.75365098958332,193.48802598958332,59.0,109.0
656,192.03685411458332,193.62669786458332,44.0,101.0
657,193.24388536458332,193.70482286458332,51.0,71.0
658,193.48411973958332,194.11497911458332,56.0,99.0
659,193.71458848958332,194.28294786458332,59.0,85.0
660,194.14427598958332,194.67943223958332,51.0,69.0
661,194.37474473958332,194.70482286458332,56.0,96.0
662,194.60911973958332,195.37279161458332,63.0,104.0
663,195.08958848958332,195.45482286458332,51.0,76.0
664,193.91380723958332,195.47044786458332,44.0,104.0
665,195.32005723958332,195.68333848958332,59.0,94.0
666,195.54271348958332,195.81810411458332,56.0,91.0
667,196.21263536458332,197.14818223958332,61.0,91.0
668,196.45286973958332,197.17747911458332,56.0,96.0
669,195.77708848958332,197.45091661458332,49.0,106.0
670,197.41380723958332,198.16576036458332,56.0,96.0
671,197.16771348958332,198.19505723958332,64.0,104.0
672,198.16576036458332,198.58372911458332,61.0,104.0
673,198.38451036458332,198.86888536458332,56.0,99.0
674,197.65208848958332,199.23411973958332,49.0,112.0
675,198.85326036458332,199.43919786458332,64.0,109.0
676,199.09349473958332,199.54271348958332,56.0,94.0
677,199.34544786458332,199.57591661458332,61.0,96.0
678,199.78880723958332,200.38646348958332,49.0,71.0
679,200.03294786458332,200.72044786458332,54.0,91.0
680,199.55052598958332,201.20286973958332,42.0,106.0
681,200.73997911458332,201.20872911458332,49.0,85.0
682,200.28685411458332,201.57201036458332,61.0,109.0
683,200.97044786458332,201.57591661458332,54.0,99.0
684,201.20482286458332,201.95872911458332,66.0,104.0
685,201.65208848958332,202.18529161458332,49.0,82.0
686,201.89427598958332,202.60326036458332,54.0,85.0
687,201.42747911458332,202.87474473958332,42.0,106.0
688,202.12669786458332,202.90208848958332,61.0,112.0
689,202.62279161458332,202.90404161458332,49.0,76.0
690,202.84349473958332,203.12865098958332,54.0,109.0
691,203.08372911458332,203.35716661458332,61.0,104.0
692,203.54857286458332,204.09544786458332,54.0,62.0
693,203.78880723958332,204.25560411458332,59.0,78.0
694,204.02513536458332,204.76536973958332,63.0,115.0
695,203.30638536458332,204.94310411458332,47.0,106.0
696,204.49974473958332,205.00951036458332,54.0,78.0
697,204.73802598958332,205.39036973958332,59.0,101.0
698,204.96654161458332,205.76536973958332,66.0,99.0
699,205.41576036458332,206.00365098958332,54.0,69.0
700,205.68138536458332,206.09154161458332,59.0,82.0
701,205.90208848958332,206.50560411458332,63.0,112.0
702,205.18529161458332,206.64427598958332,47.0,104.0
703,206.35911973958332,206.68333848958332,54.0,61.0
704,206.59935411458332,206.86693223958332,59.0,87.0
705,206.82591661458332,207.41380723958332,63.0,112.0
706,207.27318223958332,207.78099473958332,51.0,71.0
707,207.51146348958332,207.78880723958332,56.0,96.0
708,207.72826036458332,208.40208848958332,59.0,104.0
709,207.06029161458332,208.65599473958332,44.0,104.0
710,208.17747911458332,208.66771348958332,51.0,62.0
711,208.41966661458332,209.06810411458332,56.0,85.0
712,208.64036973958332,209.41771348958332,63.0,96.0
713,209.10130723958332,209.65013536458332,51.0,66.0
714,209.37083848958332,210.06419786458332,56.0,80.0
715,209.58958848958332,210.30052598958332,59.0,104.0
716,208.87865098958332,210.48997911458332,44.0,106.0
717,210.09154161458332,210.49193223958332,51.0,58.0
718,210.32591661458332,210.61497911458332,56.0,101.0
719,210.55052598958332,210.75365098958332,59.0,87.0
720,211.22630723958332,211.52318223958332,56.0,91.0
721,211.01927598958332,211.77513536458332,52.0,67.0
722,211.46654161458332,212.21068223958332,61.0,106.0
723,210.75951036458332,212.37279161458332,49.0,106.0
724,211.94115098958332,212.38841661458332,52.0,91.0
725,212.17357286458332,212.66185411458332,56.0,101.0
726,212.40208848958332,212.93919786458332,61.0,99.0
727,212.89818223958332,213.30052598958332,56.0,99.0
728,213.12083848958332,213.41966661458332,61.0,96.0
729,213.82982286458332,214.11302598958332,61.0,91.0
730,212.65990098958332,214.11693223958332,49.0,109.0
731,213.37474473958332,214.14427598958332,64.0,106.0
732,214.05833848958332,214.40794786458332,56.0,94.0
733,214.30833848958332,214.75365098958332,61.0,91.0
734,214.75951036458332,215.30443223958332,49.0,67.0
735,215.00560411458332,215.32396348958332,54.0,82.0
736,215.24583848958332,216.08568223958332,61.0,104.0
737,215.74193223958332,216.18529161458332,49.0,51.0
738,214.54661973958332,216.22826036458332,42.0,106.0
739,215.98411973958332,216.46654161458332,54.0,69.0
740,216.20286973958332,216.51536973958332,61.0,85.0
741,216.22435411458332,216.68919786458332,66.0,101.0
742,216.65404161458332,217.16966661458332,49.0,80.0
743,216.89622911458332,217.17552598958332,54.0,94.0
744,217.11302598958332,217.61107286458332,61.0,115.0
745,217.56419786458332,217.81224473958332,54.0,99.0
746,217.33763536458332,217.90990098958332,49.0,89.0
747,216.43138536458332,217.97240098958332,42.0,109.0
748,218.03880723958332,218.18333848958332,54.0,78.0
749,217.79466661458332,218.24583848958332,61.0,104.0
750,218.53490098958332,219.01927598958332,54.0,66.0
751,218.76146348958332,219.17747911458332,59.0,76.0
752,219.00169786458332,219.69701036458332,63.0,109.0
753,218.29271348958332,219.99583848958332,47.0,101.0
754,219.47044786458332,220.04271348958332,54.0,71.0
755,219.72435411458332,220.31029161458332,59.0,94.0
756,219.97826036458332,220.46458848958332,63.0,76.0
757,220.40599473958332,220.94115098958332,54.0,59.0
758,220.64232286458332,220.97826036458332,59.0,85.0
759,220.88841661458332,221.38646348958332,63.0,112.0
760,221.38841661458332,221.60911973958332,59.0,89.0
761,221.12279161458332,221.82005723958332,54.0,66.0
762,220.18529161458332,221.85521348958332,47.0,101.0
763,221.60716661458332,222.08177598958332,63.0,106.0
764,221.84740098958332,222.09740098958332,59.0,96.0
765,222.53685411458332,222.65599473958332,56.0,96.0
766,222.30638536458332,222.81810411458332,51.0,58.0
767,222.77318223958332,223.27122911458332,56.0,112.0
768,222.76341661458332,223.47240098958332,59.0,106.0
769,222.07005723958332,223.72435411458332,44.0,106.0
770,223.23997911458332,223.77708848958332,51.0,91.0
771,223.48021348958332,223.77904161458332,56.0,101.0
772,223.70677598958332,224.34349473958332,59.0,99.0
773,224.42357286458332,224.50951036458332,56.0,46.0
774,224.14818223958332,224.69505723958332,51.0,67.0
775,224.64622911458332,225.25365098958332,63.0,104.0
776,224.63646348958332,225.29661973958332,59.0,106.0
777,225.11888536458332,225.36888536458332,51.0,67.0
778,223.92747911458332,225.40208848958332,44.0,104.0
779,225.33177598958332,225.62669786458332,56.0,106.0
780,225.56029161458332,226.16576036458332,59.0,109.0
781,226.24779161458332,226.52318223958332,56.0,104.0
782,226.02318223958332,226.78685411458332,47.0,67.0
783,226.49193223958332,226.90794786458332,59.0,94.0
784,226.48802598958332,227.12279161458332,64.0,112.0
785,226.90013536458332,227.20677598958332,56.0,104.0
786,225.79271348958332,227.31810411458332,40.0,106.0
787,227.15208848958332,228.08763536458332,59.0,91.0
788,227.40013536458332,228.10716661458332,64.0,101.0
789,227.81810411458332,228.42747911458332,47.0,61.0
790,228.10521348958332,228.46263536458332,56.0,78.0
791,228.36693223958332,229.09154161458332,59.0,106.0
792,227.61888536458332,229.23216661458332,40.0,106.0
793,228.86302598958332,229.26536973958332,47.0,40.0
794,229.07982286458332,229.35130723958332,56.0,96.0
795,229.29076036458332,230.03685411458332,59.0,101.0
796,229.99583848958332,230.25560411458332,54.0,89.0
797,230.26341661458332,230.78294786458332,63.0,112.0
798,230.71263536458332,230.97240098958332,59.0,99.0
799,229.52904161458332,231.29857286458332,47.0,96.0
800,230.94896348958332,231.32396348958332,54.0,89.0
801,231.18919786458332,231.45286973958332,59.0,94.0
802,231.64818223958332,232.17357286458332,49.0,71.0
803,231.89232286458332,232.19701036458332,54.0,82.0
804,232.13255723958332,232.85130723958332,61.0,112.0
805,231.43529161458332,232.96849473958332,42.0,104.0
806,232.60326036458332,232.98216661458332,49.0,99.0
807,232.83763536458332,233.06419786458332,58.0,109.0
808,233.07786973958332,233.20677598958332,54.0,78.0
809,233.30833848958332,233.57201036458332,54.0,104.0
810,233.30052598958332,233.89427598958332,59.0,106.0
811,233.77904161458332,233.96263536458332,54.0,61.0
812,234.01341661458332,234.49779161458332,63.0,106.0
813,233.29076036458332,234.63646348958332,47.0,101.0
814,234.45872911458332,234.76732286458332,59.0,96.0
815,234.70872911458332,234.95872911458332,54.0,85.0
816,234.95286973958332,235.29076036458332,63.0,85.0
817,235.67943223958332,235.76536973958332,59.0,78.0
818,235.42552598958332,235.93138536458332,54.0,61.0
819,235.89622911458332,236.11302598958332,59.0,109.0
820,235.89427598958332,236.17357286458332,66.0,112.0
821,236.36497911458332,236.56029161458332,59.0,96.0
822,236.36302598958332,236.58372911458332,63.0,89.0
823,236.57591661458332,236.76146348958332,54.0,82.0
824,235.17943223958332,236.81810411458332,47.0,106.0
825,236.84154161458332,237.08177598958332,59.0,85.0
826,237.53880723958332,237.64232286458332,56.0,104.0
827,237.30443223958332,237.85911973958332,51.0,69.0
828,237.78099473958332,238.24779161458332,56.0,106.0
829,237.78685411458332,238.35716661458332,59.0,106.0
830,237.08372911458332,238.72435411458332,44.0,101.0
831,238.24388536458332,238.74193223958332,51.0,73.0
832,238.50169786458332,239.15404161458332,56.0,91.0
833,238.71458848958332,239.48021348958332,63.0,101.0
834,239.15208848958332,239.84154161458332,51.0,73.0
835,239.38451036458332,240.08763536458332,56.0,101.0
836,239.60716661458332,240.17357286458332,59.0,101.0
837,240.07786973958332,240.41380723958332,51.0,73.0
838,238.94115098958332,240.46654161458332,44.0,106.0
839,240.31419786458332,240.62474473958332,56.0,104.0
840,240.54466661458332,240.89622911458332,59.0,101.0
841,241.22630723958332,241.50169786458332,56.0,104.0
842,240.98216661458332,241.67747911458332,47.0,67.0
843,241.46068223958332,241.93333848958332,59.0,106.0
844,241.45677598958332,242.09154161458332,64.0,106.0
845,241.91771348958332,242.44896348958332,47.0,85.0
846,240.76927598958332,242.47826036458332,40.0,104.0
847,242.16185411458332,242.72630723958332,56.0,94.0
848,242.42161973958332,243.08763536458332,59.0,104.0
849,242.87279161458332,243.38451036458332,47.0,69.0
850,243.10326036458332,243.44310411458332,56.0,96.0
851,243.35521348958332,244.07982286458332,59.0,109.0
852,243.81419786458332,244.29076036458332,47.0,56.0
853,242.64818223958332,244.29271348958332,40.0,106.0
854,244.06029161458332,244.45091661458332,56.0,94.0
855,244.30638536458332,244.53685411458332,59.0,82.0
856,244.77904161458332,245.29271348958332,49.0,62.0
857,244.99779161458332,245.30052598958332,54.0,104.0
858,245.22435411458332,246.05443223958332,61.0,109.0
859,245.69701036458332,246.19896348958332,49.0,89.0
860,244.52513536458332,246.23021348958332,42.0,106.0
861,245.94310411458332,246.26732286458332,54.0,91.0
862,246.17552598958332,246.35130723958332,61.0,106.0
863,246.32396348958332,248.06029161458332,54.0,85.0
864,246.44310411458332,248.08372911458332,61.0,71.0
865,246.36693223958332,248.16771348958332,58.0,87.0
866,246.40599473958332,248.23607286458332,42.0,87.0
867,248.56419786458332,249.04661973958332,54.0,66.0
868,248.78880723958332,249.20482286458332,59.0,76.0
869,249.02904161458332,249.72435411458332,63.0,109.0
870,248.32005723958332,250.02318223958332,47.0,101.0
871,249.49779161458332,250.07005723958332,54.0,71.0
872,249.75169786458332,250.33958848958332,59.0,94.0
873,250.00560411458332,250.49388536458332,63.0,76.0
874,250.43333848958332,250.96849473958332,54.0,59.0
875,250.66966661458332,251.00755723958332,59.0,85.0
876,250.91576036458332,251.41576036458332,63.0,112.0
877,251.41576036458332,251.63646348958332,59.0,89.0
878,251.15013536458332,251.84740098958332,54.0,66.0
879,250.21458848958332,251.88451036458332,47.0,101.0
880,251.63646348958332,252.10911973958332,63.0,106.0
881,251.87669786458332,252.12474473958332,59.0,96.0
882,252.56419786458332,252.68333848958332,56.0,96.0
883,252.33372911458332,252.84740098958332,51.0,58.0
884,252.80052598958332,253.29857286458332,56.0,112.0
885,252.79076036458332,253.49974473958332,59.0,106.0
886,252.09740098958332,253.75169786458332,44.0,106.0
887,253.26732286458332,253.80638536458332,51.0,91.0
888,253.50755723958332,253.80638536458332,56.0,101.0
889,253.73411973958332,254.37083848958332,59.0,99.0
890,254.45286973958332,254.53685411458332,56.0,46.0
891,254.17747911458332,254.72240098958332,51.0,67.0
892,254.67357286458332,255.28294786458332,63.0,104.0
893,254.66380723958332,255.32591661458332,59.0,106.0
894,255.14818223958332,255.39622911458332,51.0,67.0
895,253.95677598958332,255.42943223958332,44.0,104.0
896,255.36107286458332,255.65599473958332,56.0,106.0
897,255.58763536458332,256.1931041145833,59.0,109.0
898,256.2751353645833,256.5524791145833,56.0,104.0
899,256.0524791145833,256.8141978645833,47.0,67.0
900,256.5192759895833,256.9372447395833,59.0,94.0
901,256.5153697395833,257.1501353645833,64.0,112.0
902,256.9274791145833,257.2341197395833,56.0,104.0
903,255.82005723958332,257.3474009895833,40.0,106.0
904,257.1794322395833,258.1149791145833,59.0,91.0
905,257.4274791145833,258.1345103645833,64.0,101.0
906,257.8474009895833,258.4548228645833,47.0,61.0
907,258.1345103645833,258.4919322395833,56.0,78.0
908,258.3942759895833,259.1188853645833,59.0,106.0
909,257.6462291145833,259.2595103645833,40.0,106.0
910,258.8903697395833,259.2946666145833,47.0,40.0
911,259.1091197395833,259.3806041145833,56.0,96.0
912,259.3181041145833,260.0661509895833,59.0,101.0
913,260.0251353645833,260.2829478645833,54.0,89.0
914,260.2927134895833,260.8102916145833,63.0,112.0
915,260.7399791145833,260.9997447395833,59.0,99.0
916,259.5583384895833,261.3259166145833,47.0,96.0
917,260.9763072395833,261.3532603645833,54.0,89.0
918,261.2165416145833,261.4802134895833,59.0,94.0
919,261.6755259895833,262.2009166145833,49.0,71.0
920,261.9196666145833,262.2263072395833,54.0,82.0
921,262.1599009895833,262.8786509895833,61.0,112.0
922,261.4626353645833,262.9977916145833,42.0,104.0
923,262.6325572395833,263.0114634895833,49.0,99.0
924,262.8649791145833,263.0915416145833,58.0,109.0
925,263.1052134895833,263.2360728645833,54.0,78.0
926,263.3376353645833,263.5993541145833,54.0,104.0
927,263.3298228645833,263.9216197395833,59.0,106.0
928,263.8083384895833,263.9899791145833,54.0,61.0
929,264.0407603645833,264.5251353645833,63.0,106.0
930,263.3181041145833,264.6638072395833,47.0,101.0
931,264.4880259895833,264.7946666145833,59.0,96.0
932,264.7360728645833,264.9880259895833,54.0,85.0
933,264.9802134895833,265.3181041145833,63.0,85.0
934,265.7067759895833,265.7927134895833,59.0,78.0
935,265.4528697395833,265.9587291145833,54.0,61.0
936,265.9255259895833,266.1423228645833,59.0,109.0
937,265.9216197395833,266.2009166145833,66.0,112.0
938,266.3923228645833,266.5895884895833,59.0,96.0
939,266.3903697395833,266.6130259895833,63.0,89.0
940,266.6032603645833,266.7907603645833,54.0,82.0
941,265.2067759895833,266.8454478645833,47.0,106.0
942,266.8688853645833,267.1110728645833,59.0,85.0
943,267.5681041145833,267.6696666145833,56.0,104.0
944,267.3337291145833,267.8864634895833,51.0,69.0
945,267.8083384895833,268.2751353645833,56.0,106.0
946,267.8141978645833,268.3845103645833,59.0,106.0
947,267.1110728645833,268.7536509895833,44.0,101.0
948,268.2712291145833,268.7712291145833,51.0,73.0
949,268.5290416145833,269.1813853645833,56.0,91.0
950,268.7419322395833,269.5075572395833,63.0,101.0
951,269.1813853645833,269.8688853645833,51.0,73.0
952,269.4138072395833,270.1149791145833,56.0,101.0
953,269.6364634895833,270.2009166145833,59.0,101.0
954,270.1052134895833,270.4411509895833,51.0,73.0
955,268.9684947395833,270.4938853645833,44.0,106.0
956,270.3434947395833,270.6520884895833,56.0,104.0
957,270.5739634895833,270.9255259895833,59.0,101.0
958,271.2536509895833,271.5290416145833,56.0,104.0
959,271.0114634895833,271.7048228645833,47.0,67.0
960,271.4880259895833,271.9606822395833,59.0,106.0
961,271.4860728645833,272.1188853645833,64.0,106.0
962,271.9470103645833,272.4782603645833,47.0,85.0
963,270.7966197395833,272.5056041145833,40.0,104.0
964,272.1891978645833,272.7536509895833,56.0,94.0
965,272.4489634895833,273.1149791145833,59.0,104.0
966,272.9020884895833,273.4138072395833,47.0,69.0
967,273.1325572395833,273.4704478645833,56.0,96.0
968,273.3825572395833,274.1071666145833,59.0,109.0
969,272.6774791145833,274.3200572395833,40.0,106.0
970,273.8415416145833,274.3200572395833,47.0,56.0
971,274.0876353645833,274.4802134895833,56.0,94.0
972,274.3337291145833,274.5661509895833,59.0,82.0
973,274.8063853645833,275.3200572395833,49.0,62.0
974,275.0251353645833,275.3278697395833,54.0,104.0
975,275.2536509895833,276.0837291145833,61.0,109.0
976,275.7243541145833,276.2263072395833,49.0,89.0
977,274.5524791145833,276.2575572395833,42.0,106.0
978,275.9704478645833,276.2946666145833,54.0,91.0
979,276.2028697395833,276.3786509895833,61.0,106.0
980,276.3513072395833,278.0876353645833,54.0,85.0
981,276.4704478645833,278.1110728645833,61.0,71.0
982,276.3962291145833,278.1970103645833,58.0,87.0
983,276.4333384895833,278.2634166145833,42.0,87.0
984,278.7477916145833,279.4196666145833,54.0,71.0
985,279.2165416145833,279.8786509895833,59.0,105.0
986,279.6852916145833,280.3181041145833,54.0,42.0
987,280.1540416145833,280.8141978645833,63.0,80.0
988,280.1540416145833,280.8708384895833,59.0,64.0
989,280.6227916145833,281.2165416145833,54.0,38.0
990,278.2790416145833,281.2966197395833,47.0,97.0
991,281.0915416145833,281.5407603645833,63.0,84.0
992,281.0915416145833,281.5720103645833,59.0,84.0
993,281.0915416145833,281.5837291145833,66.0,84.0
994,282.0290416145833,283.0993541145833,56.0,76.0
995,282.4977916145833,283.1931041145833,47.0,41.0
996,282.0290416145833,283.9665416145833,52.0,57.0
997,283.4352916145833,284.1188853645833,47.0,40.0
998,282.9665416145833,284.4977916145833,59.0,80.0
999,283.9040416145833,284.8806041145833,64.0,94.0
1000,284.8415416145833,284.8806041145833,64.0,94.0
1001,282.0290416145833,285.1931041145833,40.0,82.0
1002,284.8415416145833,285.1931041145833,40.0,82.0
1003,284.3727916145833,287.1091197395833,47.0,13.0
1004,284.8415416145833,287.1091197395833,47.0,13.0
1005,284.8415416145833,287.7224009895833,56.0,82.0
1006,284.8415416145833,287.7224009895833,56.0,82.0
1007,284.8415416145833,287.8806041145833,59.0,87.0
1008,284.8415416145833,287.8806041145833,59.0,87.0
