,start,end,pitch,velocity
0,1.8076904999999999,2.2147413749999996,75.0,97.0
1,2.1923055,2.6009589374999997,77.0,88.0
2,2.5769204999999995,3.5064067499999996,79.0,95.0
3,3.3461505,3.7387783124999996,82.0,102.0
4,3.7307654999999995,4.137816375,84.0,92.0
5,4.1153805,4.4503160625,82.0,97.0
6,4.4999955,4.641020999999999,79.0,59.0
7,4.628200499999999,4.761213187499999,82.0,85.0
8,4.7564055,4.857366937499999,79.0,67.0
9,4.884610499999999,5.349353624999999,77.0,78.0
10,5.269225499999999,5.647430249999999,75.0,99.0
11,5.653840499999999,7.394223374999999,79.0,96.0
12,7.961530499999999,8.336530125,75.0,102.0
13,8.346145499999999,8.7580040625,77.0,90.0
14,8.730760499999999,9.439093125,79.0,90.0
15,9.4999905,9.90383625,82.0,112.0
16,9.8846055,10.2868486875,84.0,100.0
17,10.2692205,10.602553499999999,82.0,112.0
18,10.6538355,10.761207187499998,79.0,89.0
19,10.782040499999999,10.918258312499999,82.0,85.0
20,10.910245499999998,11.0240274375,79.0,69.0
21,11.028835124999999,11.330116874999998,77.0,90.0
22,11.423065499999998,11.7740266875,75.0,96.0
23,11.807680499999998,13.974344999999998,72.0,100.0
24,14.1153705,14.507998312499998,75.0,122.0
25,14.499985499999998,14.836523624999998,77.0,112.0
26,14.884600499999998,15.790048312499998,79.0,122.0
27,16.038445499999998,16.384598999999998,75.0,112.0
28,16.4230605,17.3188929375,77.0,99.0
29,17.9615205,19.057673249999997,79.0,117.0
30,19.1153655,19.464724124999996,75.0,117.0
31,19.4999805,20.9086329375,72.0,99.0
32,21.038440499999997,21.695491124999997,79.0,122.0
33,21.807670499999997,22.551259499999997,75.0,127.0
34,22.576900499999997,23.232348562499997,72.0,117.0
35,23.346130499999997,23.689078874999996,70.0,127.0
36,23.730745499999998,24.126578437499997,75.0,112.0
37,24.115360499999998,26.876575687499997,72.0,127.0
38,50.07687299999999,50.25315487499999,87.0,51.0
39,50.17302674999999,50.2948215,89.0,68.0
40,50.2691805,50.634564749999996,91.0,96.0
41,50.653795499999994,51.04802587499999,87.0,117.0
42,51.0384105,51.20347443749999,84.0,107.0
43,51.230717999999996,51.445461374999994,79.0,89.0
44,51.423025499999994,51.721102124999994,75.0,97.0
45,51.61533299999999,51.88456349999999,72.0,93.0
46,51.80764049999999,53.418215812499994,70.0,100.0
47,55.65379049999999,56.0528285625,75.0,107.0
48,56.038405499999996,56.42782818749999,74.0,89.0
49,56.42302049999999,58.02558299999999,75.0,100.0
50,61.42301549999999,61.762758749999996,75.0,86.0
51,61.807630499999995,62.20666856249999,77.0,90.0
52,62.19224549999999,62.616924562499996,82.0,100.0
53,62.576860499999995,64.08326924999999,79.0,97.0
54,80.2691505,80.61049631249999,75.0,92.0
55,80.65376549999999,81.0495984375,74.0,79.0
56,81.03838049999999,82.18581524999999,75.0,97.0
57,86.8076055,87.05440012499999,72.0,88.0
58,86.99991299999999,87.20343843749998,74.0,79.0
59,87.19222049999999,87.78036093749999,75.0,102.0
60,87.96145049999998,88.33324499999999,74.0,102.0
61,88.3460655,88.7130523125,70.0,72.0
62,88.73068049999999,90.0912560625,72.0,92.0
63,99.11528549999998,99.33002887499998,75.0,112.0
64,99.4999005,99.98066924999999,74.0,127.0
65,100.07682299999999,100.9950913125,72.0,107.0
66,124.88449049999998,125.19699018749999,75.0,127.0
67,125.26910549999998,125.58481031249998,77.0,99.0
68,125.65372049999999,126.34442493749998,79.0,127.0
69,126.42295049999998,126.78192449999999,77.0,117.0
70,126.80756549999998,127.15852668749999,75.0,107.0
71,127.19218049999999,127.97423099999999,77.0,99.0
72,128.7306405,129.33480656249998,79.0,127.0
73,129.4998705,129.9021136875,77.0,96.0
74,129.88448549999998,130.24345949999997,75.0,107.0
75,130.26910049999998,131.4021121875,72.0,93.0
76,131.8075605,132.44858549999998,79.0,112.0
77,132.5767905,133.31236668749997,75.0,127.0
78,133.34602049999998,134.015891625,72.0,102.0
79,134.11525049999997,134.4982629375,70.0,122.0
80,134.4998655,134.88127537499997,75.0,117.0
81,134.8844805,137.887682625,72.0,117.0
82,137.9614005,139.57197581249997,70.0,100.0
83,141.8075505,142.20658856249997,75.0,107.0
84,142.1921655,142.5815881875,74.0,89.0
85,142.57678049999998,144.179343,75.0,100.0
86,147.5767755,147.91651875,75.0,86.0
87,147.9613905,148.36042856249998,77.0,90.0
88,148.3460055,148.77068456249998,82.0,100.0
89,148.7306205,150.23702924999998,79.0,97.0
90,166.42291049999997,166.76425631249998,75.0,92.0
91,166.80752549999997,167.2033584375,74.0,79.0
92,167.1921405,168.33957524999997,75.0,97.0
93,172.96136549999997,173.20816012499998,72.0,88.0
94,173.15367299999997,173.3571984375,74.0,79.0
95,173.34598049999997,173.93412093749998,75.0,102.0
96,174.1152105,174.48700499999998,74.0,102.0
97,174.4998255,174.86681231249997,70.0,72.0
98,174.88444049999998,176.24501606249999,72.0,92.0
99,185.26904549999998,185.483788875,75.0,112.0
100,185.65366049999997,186.13442924999998,74.0,127.0
101,186.23058299999997,187.14885131249997,72.0,107.0
102,215.65363049999996,215.99497631249997,75.0,92.0
103,216.0382455,216.43407843749998,74.0,79.0
104,216.42286049999998,217.57029525,75.0,97.0
105,222.19208549999996,222.43888012499997,72.0,88.0
106,222.384393,222.58791843749998,74.0,79.0
107,222.5767005,223.16484093749997,75.0,102.0
108,223.34593049999998,223.71772499999997,74.0,102.0
109,223.73054549999998,224.09753231249996,70.0,72.0
110,224.11516049999997,225.47573606249998,72.0,92.0
111,234.49976549999997,234.71450887499998,75.0,112.0
112,234.88438049999996,235.36514924999997,74.0,127.0
113,235.461303,236.37957131249996,72.0,107.0
114,260.26897049999997,260.5814701875,75.0,127.0
115,260.65358549999996,260.9692903125,77.0,99.0
116,261.03820049999996,261.7289049375,79.0,127.0
117,261.80743049999995,262.1664045,77.0,117.0
118,262.19204549999995,262.5430066875,75.0,107.0
119,262.57666049999995,263.35871099999997,77.0,99.0
120,264.1151205,264.7192865625,79.0,127.0
121,264.8843505,265.2865936875,77.0,96.0
122,265.2689655,265.62793949999997,75.0,107.0
123,265.6535805,266.7865921875,72.0,93.0
124,267.19204049999996,267.8330655,79.0,112.0
125,267.96127049999996,268.69684668749994,75.0,127.0
126,268.73050049999995,269.400371625,72.0,102.0
127,269.49973049999994,269.8827429375,70.0,122.0
128,269.8843455,270.26575537499997,75.0,117.0
129,270.2689605,273.27216262499996,72.0,117.0
