,start,end,pitch,velocity
0,27.192280499999995,27.291639374999995,63.0,127.0
1,27.576895499999996,27.689074874999996,63.0,122.0
2,27.961510499999996,28.112151374999996,63.0,117.0
3,28.346125499999996,28.496766374999996,63.0,122.0
4,28.730740499999996,29.025611999999995,62.0,112.0
5,29.115355499999996,29.336509124999996,65.0,117.0
6,29.499970499999996,29.774008687499997,65.0,117.0
7,29.884585499999996,30.26279025,63.0,97.0
8,30.269200499999997,31.160225249999996,60.0,97.0
9,33.3461205,33.599325375,60.0,100.0
10,33.730735499999994,33.955094249999995,60.0,117.0
11,34.1153505,34.336504125,60.0,117.0
12,34.499965499999995,34.7563755,67.0,117.0
13,34.8845805,35.144195624999995,65.0,122.0
14,35.269195499999995,35.50957987499999,65.0,112.0
15,35.6538105,35.8974,65.0,117.0
16,36.038425499999995,36.323681625,60.0,112.0
17,36.4230405,37.21791149999999,67.0,127.0
18,38.73073049999999,39.01919175,67.0,127.0
19,39.1153455,39.362140124999996,65.0,122.0
20,39.49996049999999,39.714703875,67.0,117.0
21,39.8845755,40.14419062499999,60.0,117.0
22,40.26919049999999,40.499959499999996,60.0,102.0
23,40.6538055,40.905407812499995,67.0,112.0
24,41.038420499999994,41.475920062499995,65.0,122.0
25,41.807650499999994,42.0592528125,63.0,122.0
26,42.1922655,42.4310473125,65.0,96.0
27,42.576880499999994,42.841303312499996,67.0,117.0
28,42.9614955,43.198674749999995,60.0,97.0
29,43.346110499999995,43.54963593749999,60.0,107.0
30,43.7307255,44.003161125,58.0,112.0
31,44.115340499999995,44.4342504375,60.0,127.0
32,45.653800499999996,45.8989925625,63.0,127.0
33,46.03841549999999,46.256364,62.0,102.0
34,46.423030499999996,46.6618123125,60.0,99.0
35,46.80764549999999,47.072068312499994,58.0,107.0
36,47.192260499999996,47.580080624999994,62.0,127.0
37,47.769183,48.032003249999995,63.0,112.0
38,48.34610549999999,48.7563615,62.0,107.0
39,49.11533549999999,51.198666749999994,60.0,99.0
40,51.80764049999999,51.996742874999995,63.0,127.0
41,52.192255499999995,52.36693481249999,63.0,127.0
42,52.57687049999999,52.785203624999994,63.0,122.0
43,52.961485499999995,53.15058787499999,63.0,127.0
44,53.34610049999999,53.65539506249999,65.0,117.0
45,53.730715499999995,53.915010187499995,63.0,112.0
46,54.11533049999999,54.42141993749999,63.0,122.0
47,54.499945499999995,54.769175999999995,60.0,99.0
48,54.88456049999999,57.18263512499999,60.0,112.0
49,57.96148049999999,58.2098776875,60.0,107.0
50,58.3460955,58.59930037499999,60.0,100.0
51,58.730710499999994,58.947056437499995,60.0,107.0
52,59.11532549999999,59.42462006249999,67.0,107.0
53,59.499940499999994,59.76917099999999,65.0,112.0
54,59.88455549999999,60.165003937499996,65.0,112.0
55,60.269170499999994,60.4887215625,65.0,99.0
56,60.65378549999999,61.0335928125,58.0,100.0
57,61.038400499999995,61.943848312499995,67.0,112.0
58,63.346090499999995,63.64256456249999,67.0,122.0
59,63.73070549999999,63.99192318749999,65.0,112.0
60,64.1153205,64.40378175,63.0,122.0
61,64.49993549999999,64.6521789375,63.0,122.0
62,64.69224299999999,64.84929412499999,60.0,102.0
63,64.88455049999999,65.16019125,60.0,107.0
64,65.2691655,65.55602418749999,63.0,112.0
65,65.6537805,65.9101905,65.0,127.0
66,66.42301049999999,66.6906384375,63.0,127.0
67,66.80762549999999,67.067240625,65.0,122.0
68,67.1922405,67.509547875,67.0,127.0
69,67.5768555,67.8476885625,60.0,117.0
70,67.96147049999999,68.21307281249999,60.0,100.0
71,68.34608549999999,68.63454675,58.0,102.0
72,68.7307005,69.51755868749999,60.0,112.0
73,70.2691605,70.58166018749999,63.0,127.0
74,70.6537755,70.971082875,62.0,97.0
75,71.03839049999999,71.33486456249999,60.0,112.0
76,71.42300549999999,71.765953875,70.0,127.0
77,71.8076205,72.50633774999999,62.0,112.0
78,72.384543,72.81563231249999,63.0,117.0
79,72.96146549999999,73.464670125,62.0,112.0
80,73.7306955,75.349283625,60.0,112.0
81,75.6537705,75.9534496875,63.0,122.0
82,76.03838549999999,76.30120575,65.0,117.0
83,76.42300049999999,77.124922875,67.0,127.0
84,77.1922305,77.41658924999999,70.0,127.0
85,77.57684549999999,77.83005037499998,72.0,122.0
86,77.96146049999999,78.18581925,70.0,127.0
87,78.3460755,78.61530599999999,67.0,122.0
88,78.7306905,78.99030562499999,65.0,122.0
89,79.11530549999999,79.39575393749999,63.0,127.0
90,79.49992049999999,81.10568812499999,67.0,117.0
91,81.8076105,82.1233153125,63.0,127.0
92,82.19222549999999,82.45184062499999,65.0,127.0
93,82.57684049999999,83.0816476875,67.0,127.0
94,83.3460705,83.56241643749999,70.0,127.0
95,83.73068549999999,83.98228781249999,72.0,127.0
96,84.11530049999999,84.32203106249999,70.0,127.0
97,84.49991549999999,84.7611331875,67.0,127.0
98,84.8845305,85.13933793749999,65.0,127.0
99,85.2691455,85.55279906249999,63.0,122.0
100,85.65376049999999,86.99350274999999,60.0,117.0
101,87.96145049999998,88.23068099999999,63.0,127.0
102,88.3460655,88.6040780625,65.0,122.0
103,88.73068049999999,89.05119299999998,67.0,127.0
104,89.11529549999999,89.36048756249998,65.0,102.0
105,89.49991049999998,89.73708975,65.0,112.0
106,89.8845255,90.14574318749999,63.0,117.0
107,90.26914049999999,90.66817856249999,65.0,117.0
108,91.03837049999998,91.31721637499999,63.0,127.0
109,91.4229855,91.71144675,65.0,112.0
110,91.80760049999999,92.08003612499999,67.0,117.0
111,92.19221549999999,92.43580499999999,60.0,102.0
112,92.57683049999999,92.84606099999999,60.0,117.0
113,92.9614455,93.21465037499999,58.0,102.0
114,93.3460605,93.79798312499999,60.0,127.0
115,94.8845205,95.17458431249999,63.0,127.0
116,95.26913549999999,95.56400699999999,62.0,127.0
117,95.65375049999999,95.8925323125,60.0,112.0
118,96.03836549999998,96.3124036875,70.0,127.0
119,96.4229805,97.12330031249999,62.0,122.0
120,96.99990299999999,97.246697625,63.0,122.0
121,97.57682549999998,97.84285087499998,65.0,107.0
122,97.9614405,99.89893856249999,63.0,127.0
123,100.26913049999999,100.56880968749999,63.0,122.0
124,100.65374549999999,100.91656574999999,65.0,117.0
125,101.03836049999998,101.74028287499999,67.0,127.0
126,101.80759049999999,102.03194924999998,70.0,127.0
127,102.19220549999999,102.445410375,72.0,122.0
128,102.57682049999998,102.80117924999999,70.0,127.0
129,102.9614355,103.23066599999999,67.0,122.0
130,103.34605049999999,103.60566562499999,65.0,122.0
131,103.73066549999999,104.01111393749999,63.0,127.0
132,104.11528049999998,105.72104812499998,67.0,117.0
133,106.42297049999999,106.73867531249999,63.0,127.0
134,106.80758549999999,107.06720062499998,65.0,127.0
135,107.19220049999998,107.69700768749999,67.0,127.0
136,107.96143049999999,108.17777643749999,70.0,127.0
137,108.34604549999999,108.59764781249999,72.0,127.0
138,108.73066049999998,108.93739106249998,70.0,127.0
139,109.11527549999998,109.37649318749999,67.0,127.0
140,109.49989049999999,109.75469793749998,65.0,127.0
141,109.88450549999999,110.16815906249998,63.0,122.0
142,110.26912049999999,112.15052887499999,60.0,117.0
143,112.5768105,112.84604099999999,63.0,127.0
144,112.96142549999999,113.21943806249999,65.0,122.0
145,113.34604049999999,113.666553,67.0,127.0
146,113.73065549999998,113.9758475625,65.0,102.0
147,114.1152705,114.35244974999999,65.0,112.0
148,114.49988549999999,114.76110318749998,63.0,117.0
149,114.88450049999999,115.28353856249998,65.0,117.0
150,115.65373049999998,115.93257637499998,63.0,127.0
151,116.03834549999999,116.32680674999999,65.0,112.0
152,116.42296049999999,116.69539612499999,67.0,117.0
153,116.80757549999998,117.05116499999998,60.0,102.0
154,117.19219049999998,117.46142099999999,60.0,117.0
155,117.57680549999999,117.83001037499999,58.0,102.0
156,117.96142049999999,118.41334312499998,60.0,127.0
157,119.49988049999999,119.78994431249998,63.0,127.0
158,119.88449549999999,120.17936699999998,62.0,127.0
159,120.26911049999998,120.50789231249999,60.0,112.0
160,120.6537255,120.92776368749999,70.0,127.0
161,121.03834049999999,121.73866031249999,62.0,122.0
162,122.19218549999998,122.85244124999998,58.0,107.0
163,122.96141549999999,124.79314443749999,60.0,97.0
164,137.9614005,138.15050287499997,63.0,127.0
165,138.3460155,138.52069481249998,63.0,127.0
166,138.7306305,138.93896362499999,63.0,122.0
167,139.1152455,139.304347875,63.0,127.0
168,139.49986049999998,139.8091550625,65.0,117.0
169,139.88447549999998,140.06877018749998,63.0,112.0
170,140.26909049999998,140.5751799375,63.0,122.0
171,140.65370549999997,140.922936,60.0,99.0
172,141.0383205,143.336395125,60.0,112.0
173,144.11524049999997,144.3636376875,60.0,107.0
174,144.4998555,144.753060375,60.0,100.0
175,144.8844705,145.1008164375,60.0,107.0
176,145.2690855,145.57838006249997,67.0,107.0
177,145.65370049999999,145.92293099999998,65.0,112.0
178,146.03831549999998,146.3187639375,65.0,112.0
179,146.42293049999998,146.6424815625,65.0,99.0
180,146.80754549999997,147.1873528125,58.0,100.0
181,147.19216049999997,148.09760831249997,67.0,112.0
182,149.49985049999998,149.7963245625,67.0,122.0
183,149.88446549999998,150.14568318749997,65.0,112.0
184,150.26908049999997,150.55754174999998,63.0,122.0
185,150.65369549999997,150.80593893749997,63.0,122.0
186,150.846003,151.00305412499998,60.0,102.0
187,151.0383105,151.31395124999997,60.0,107.0
188,151.4229255,151.7097841875,63.0,112.0
189,151.8075405,152.06395049999998,65.0,127.0
190,152.57677049999998,152.8443984375,63.0,127.0
191,152.96138549999998,153.221000625,65.0,122.0
192,153.34600049999997,153.663307875,67.0,127.0
193,153.73061549999997,154.00144856249997,60.0,117.0
194,154.1152305,154.36683281249998,60.0,100.0
195,154.4998455,154.78830674999998,58.0,102.0
196,154.8844605,155.6713186875,60.0,112.0
197,156.42292049999998,156.73542018749998,63.0,127.0
198,156.80753549999997,157.12484287499998,62.0,97.0
199,157.19215049999997,157.48862456249998,60.0,112.0
200,157.5767655,157.91971387499999,70.0,127.0
201,157.9613805,158.66009774999998,62.0,112.0
202,158.53830299999998,158.9693923125,63.0,117.0
203,159.11522549999998,159.61843012499997,62.0,112.0
204,159.88445549999997,161.50304362499998,60.0,112.0
205,161.80753049999998,162.1072096875,63.0,122.0
206,162.19214549999998,162.45496574999999,65.0,117.0
207,162.57676049999998,163.278682875,67.0,127.0
208,163.34599049999997,163.57034925,70.0,127.0
209,163.7306055,163.983810375,72.0,122.0
210,164.1152205,164.33957924999999,70.0,127.0
211,164.4998355,164.76906599999998,67.0,122.0
212,164.88445049999999,165.14406562499997,65.0,122.0
213,165.26906549999998,165.5495139375,63.0,127.0
214,165.65368049999998,167.25944812499998,67.0,117.0
215,167.9613705,168.2770753125,63.0,127.0
216,168.34598549999998,168.605600625,65.0,127.0
217,168.73060049999998,169.2354076875,67.0,127.0
218,169.49983049999997,169.71617643749997,70.0,127.0
219,169.88444549999997,170.13604781249998,72.0,127.0
220,170.2690605,170.47579106249998,70.0,127.0
221,170.6536755,170.91489318749998,67.0,127.0
222,171.0382905,171.2930979375,65.0,127.0
223,171.42290549999998,171.7065590625,63.0,122.0
224,171.80752049999998,173.14726274999998,60.0,117.0
225,174.1152105,174.38444099999998,63.0,127.0
226,174.4998255,174.75783806249999,65.0,122.0
227,174.88444049999998,175.204953,67.0,127.0
228,175.26905549999998,175.51424756249997,65.0,102.0
229,175.65367049999998,175.89084974999997,65.0,112.0
230,176.03828549999997,176.2995031875,63.0,117.0
231,176.42290049999997,176.82193856249998,65.0,117.0
232,177.1921305,177.470976375,63.0,127.0
233,177.5767455,177.86520674999997,65.0,112.0
234,177.96136049999998,178.23379612499997,67.0,117.0
235,178.34597549999998,178.589565,60.0,102.0
236,178.73059049999998,178.99982099999997,60.0,117.0
237,179.11520549999997,179.36841037499997,58.0,102.0
238,179.49982049999997,179.95174312499998,60.0,127.0
239,181.03828049999998,181.32834431249998,63.0,127.0
240,181.42289549999998,181.71776699999998,62.0,127.0
241,181.80751049999998,182.0462923125,60.0,112.0
242,182.19212549999997,182.46616368749997,70.0,127.0
243,182.57674049999997,183.27706031249997,62.0,122.0
244,183.15366299999997,183.40045762499997,63.0,122.0
245,183.7305855,183.996610875,65.0,107.0
246,184.1152005,186.05269856249998,63.0,127.0
247,186.42289049999997,186.72256968749997,63.0,122.0
248,186.8075055,187.07032574999997,65.0,117.0
249,187.1921205,187.89404287499997,67.0,127.0
250,187.96135049999998,188.18570924999997,70.0,127.0
251,188.34596549999998,188.59917037499997,72.0,122.0
252,188.73058049999997,188.95493924999997,70.0,127.0
253,189.11519549999997,189.384426,67.0,122.0
254,189.49981049999997,189.75942562499998,65.0,122.0
255,189.8844255,190.16487393749998,63.0,127.0
256,190.2690405,191.874808125,67.0,117.0
257,192.57673049999997,192.89243531249997,63.0,127.0
258,192.96134549999996,193.22096062499998,65.0,127.0
259,193.3459605,193.85076768749997,67.0,127.0
260,194.11519049999998,194.33153643749998,70.0,127.0
261,194.49980549999998,194.7514078125,72.0,127.0
262,194.88442049999998,195.0911510625,70.0,127.0
263,195.26903549999997,195.53025318749997,67.0,127.0
264,195.65365049999997,195.90845793749997,65.0,127.0
265,196.03826549999997,196.32191906249997,63.0,122.0
266,196.4228805,198.30428887499997,60.0,117.0
267,198.73057049999997,198.999801,63.0,127.0
268,199.11518549999997,199.37319806249997,65.0,122.0
269,199.49980049999996,199.82031299999997,67.0,127.0
270,199.8844155,200.12960756249998,65.0,102.0
271,200.26903049999999,200.50620974999998,65.0,112.0
272,200.65364549999998,200.91486318749998,63.0,117.0
273,201.03826049999998,201.4372985625,65.0,117.0
274,201.80749049999997,202.08633637499997,63.0,127.0
275,202.19210549999997,202.48056674999998,65.0,112.0
276,202.57672049999996,202.84915612499998,67.0,117.0
277,202.9613355,203.20492499999997,60.0,102.0
278,203.3459505,203.61518099999998,60.0,117.0
279,203.73056549999998,203.98377037499998,58.0,102.0
280,204.11518049999998,204.567103125,60.0,127.0
281,205.65364049999997,205.9437043125,63.0,127.0
282,206.0382555,206.333127,62.0,127.0
283,206.4228705,206.66165231249997,60.0,112.0
284,206.80748549999998,207.08152368749998,70.0,127.0
285,207.19210049999998,207.89242031249998,62.0,122.0
286,208.34594549999997,209.00620124999998,58.0,107.0
287,209.11517549999996,210.94690443749997,60.0,97.0
288,211.03825049999998,211.33792968749998,63.0,122.0
289,211.42286549999997,211.68568574999998,65.0,117.0
290,211.80748049999997,212.50940287499998,67.0,127.0
291,212.5767105,212.80106924999998,70.0,127.0
292,212.9613255,213.21453037499998,72.0,122.0
293,213.34594049999998,213.57029924999998,70.0,127.0
294,213.73055549999998,213.99978599999997,67.0,122.0
295,214.11517049999998,214.374785625,65.0,122.0
296,214.49978549999997,214.7802339375,63.0,127.0
297,214.88440049999997,216.49016812499997,67.0,117.0
298,217.19209049999998,217.50779531249998,63.0,127.0
299,217.57670549999997,217.83632062499998,65.0,127.0
300,217.96132049999997,218.46612768749998,67.0,127.0
301,218.73055049999996,218.9468964375,70.0,127.0
302,219.1151655,219.36676781249997,72.0,127.0
303,219.49978049999999,219.70651106249997,70.0,127.0
304,219.88439549999998,220.14561318749998,67.0,127.0
305,220.26901049999998,220.52381793749998,65.0,127.0
306,220.65362549999998,220.93727906249998,63.0,122.0
307,221.03824049999997,222.37798274999997,60.0,117.0
308,223.34593049999998,223.61516099999997,63.0,127.0
309,223.73054549999998,223.98855806249998,65.0,122.0
310,224.11516049999997,224.43567299999998,67.0,127.0
311,224.49977549999997,224.74496756249997,65.0,102.0
312,224.88439049999997,225.12156974999996,65.0,112.0
313,225.26900549999996,225.53022318749998,63.0,117.0
314,225.6536205,226.05265856249997,65.0,117.0
315,226.42285049999998,226.70169637499998,63.0,127.0
316,226.80746549999998,227.09592674999996,65.0,112.0
317,227.19208049999997,227.46451612499996,67.0,117.0
318,227.57669549999997,227.82028499999998,60.0,102.0
319,227.96131049999997,228.230541,60.0,117.0
320,228.34592549999996,228.599130375,58.0,102.0
321,228.73054049999996,229.18246312499997,60.0,127.0
322,230.26900049999998,230.55906431249997,63.0,127.0
323,230.65361549999997,230.94848699999997,62.0,127.0
324,231.03823049999997,231.27701231249998,60.0,112.0
325,231.42284549999997,231.69688368749996,70.0,127.0
326,231.80746049999996,232.50778031249996,62.0,122.0
327,232.38438299999999,232.63117762499996,63.0,122.0
328,232.96130549999998,233.22733087499998,65.0,107.0
329,233.34592049999998,235.28341856249997,63.0,127.0
330,235.65361049999998,235.95328968749996,63.0,122.0
331,236.03822549999998,236.30104575,65.0,117.0
332,236.42284049999998,237.124762875,67.0,127.0
333,237.19207049999997,237.41642924999996,70.0,127.0
334,237.57668549999997,237.82989037499996,72.0,122.0
335,237.96130049999996,238.18565925,70.0,127.0
336,238.34591549999996,238.61514599999998,67.0,122.0
337,238.7305305,238.99014562499997,65.0,122.0
338,239.11514549999998,239.39559393749997,63.0,127.0
339,239.49976049999998,241.10552812499998,67.0,117.0
340,241.80745049999996,242.12315531249996,63.0,127.0
341,242.19206549999998,242.45168062499997,65.0,127.0
342,242.57668049999998,243.0814876875,67.0,127.0
343,243.34591049999997,243.56225643749997,70.0,127.0
344,243.73052549999997,243.98212781249998,72.0,127.0
345,244.11514049999997,244.32187106249998,70.0,127.0
346,244.49975549999996,244.76097318749999,67.0,127.0
347,244.88437049999996,245.13917793749997,65.0,127.0
348,245.26898549999999,245.55263906249996,63.0,122.0
349,245.65360049999998,247.53500887499996,60.0,117.0
350,247.96129049999996,248.23052099999998,63.0,127.0
351,248.34590549999996,248.6039180625,65.0,122.0
352,248.73052049999998,249.05103299999996,67.0,127.0
353,249.11513549999998,249.36032756249998,65.0,102.0
354,249.49975049999998,249.73692974999997,65.0,112.0
355,249.88436549999997,250.14558318749997,63.0,117.0
356,250.26898049999997,250.66801856249998,65.0,117.0
357,251.03821049999996,251.31705637499996,63.0,127.0
358,251.42282549999996,251.71128674999997,65.0,112.0
359,251.80744049999998,252.07987612499997,67.0,117.0
360,252.19205549999998,252.43564499999997,60.0,102.0
361,252.57667049999998,252.84590099999997,60.0,117.0
362,252.96128549999997,253.21449037499997,58.0,102.0
363,253.34590049999997,253.79782312499998,60.0,127.0
364,254.88436049999999,255.17442431249998,63.0,127.0
365,255.26897549999998,255.56384699999998,62.0,127.0
366,255.65359049999998,255.89237231249996,60.0,112.0
367,256.03820549999995,256.3122436875,70.0,127.0
368,256.42282049999994,257.12314031249997,62.0,122.0
369,257.5766655,258.23692124999997,58.0,107.0
370,258.3458955,260.17762443749996,60.0,97.0
