,start,end,pitch,velocity
0,3.3461505,3.6249963749999994,63.0,83.0
1,2.9615354999999997,3.714739875,58.0,58.0
2,2.5769204999999995,3.8140987499999994,51.0,89.0
3,3.3461505,4.153841999999999,70.0,97.0
4,3.7307654999999995,4.1955086249999995,67.0,76.0
5,4.4999955,5.051277,58.0,65.0
6,4.1153805,5.0849308125,46.0,97.0
7,4.884610499999999,5.677878937499999,65.0,68.0
8,5.269225499999999,5.7820455,62.0,66.0
9,6.0384554999999995,6.7323650624999996,55.0,65.0
10,6.4230705,7.282043999999999,60.0,71.0
11,6.807685499999999,7.346146499999999,55.0,55.0
12,7.192300499999999,7.8846074999999995,63.0,89.0
13,7.576915499999999,8.049671437499999,55.0,44.0
14,5.653840499999999,8.137812375,48.0,69.0
15,7.961530499999999,8.6538375,67.0,89.0
16,7.961530499999999,8.78845275,63.0,86.0
17,8.346145499999999,8.846144999999998,60.0,86.0
18,9.115375499999999,9.717939,51.0,35.0
19,8.730760499999999,9.722746687499999,44.0,83.0
20,9.4999905,9.783644062499999,56.0,66.0
21,9.4999905,10.290053812499998,68.0,96.0
22,9.8846055,10.346143499999998,60.0,82.0
23,10.2692205,11.36537325,46.0,90.0
24,11.038450499999998,11.366975812499998,58.0,79.0
25,10.6538355,11.389411687499999,53.0,53.0
26,11.038450499999998,11.6137704375,65.0,83.0
27,11.423065499999998,11.839731749999999,62.0,71.0
28,12.192295499999998,12.729153937499998,55.0,65.0
29,12.576910499999999,13.400627624999998,60.0,85.0
30,12.961525499999999,13.525627499999999,55.0,67.0
31,13.730755499999999,14.019216749999998,55.0,74.0
32,11.807680499999998,14.057678249999999,48.0,83.0
33,13.346140499999999,14.201908874999999,63.0,107.0
34,14.1153705,14.562485437499998,62.0,90.0
35,13.346140499999999,14.572100812499999,67.0,92.0
36,14.499985499999998,14.961523499999998,63.0,102.0
37,15.269215499999998,16.001586562499998,46.0,32.0
38,14.884600499999998,16.035240374999997,39.0,83.0
39,15.653830499999998,16.0640865,51.0,82.0
40,16.038445499999998,16.416650249999996,58.0,86.0
41,16.8076755,17.413444124999998,58.0,71.0
42,16.4230605,17.5753029375,46.0,117.0
43,17.1922905,18.051263999999996,65.0,99.0
44,17.5769055,18.064084499999996,62.0,85.0
45,18.7307505,19.682672625,48.0,78.0
46,19.1153655,19.6970956875,55.0,75.0
47,19.4999805,20.134595249999997,63.0,100.0
48,19.884595499999996,20.4022231875,48.0,69.0
49,17.9615205,20.538441,36.0,76.0
50,18.3461355,20.557671749999997,43.0,53.0
51,20.653825499999996,21.017607187499998,55.0,82.0
52,20.269210499999996,21.0208123125,60.0,89.0
53,20.269210499999996,21.035235375,63.0,117.0
54,21.038440499999997,22.142606062499997,44.0,97.0
55,21.423055499999997,22.522413374999996,56.0,66.0
56,21.807670499999997,22.580105624999998,63.0,102.0
57,22.192285499999997,22.618567125,60.0,93.0
58,22.961515499999997,23.491963687499997,58.0,75.0
59,22.576900499999997,23.674655812499996,46.0,90.0
60,23.346130499999997,24.189078374999998,65.0,102.0
61,23.730745499999998,24.209911687499996,62.0,96.0
62,25.269205499999998,25.700294812499997,55.0,78.0
63,24.884590499999998,25.85253825,48.0,67.0
64,25.6538205,26.007986812499997,63.0,68.0
65,25.6538205,26.483947875,60.0,74.0
66,26.0384355,26.7067040625,48.0,49.0
67,24.115360499999998,26.770806562499995,36.0,74.0
68,24.499975499999998,26.871767999999996,43.0,62.0
69,26.4230505,27.171447187499997,67.0,61.0
70,26.4230505,27.1778574375,63.0,74.0
71,27.961510499999996,28.421445937499996,63.0,74.0
72,27.576895499999996,28.458304874999996,58.0,45.0
73,27.192280499999995,28.467920249999995,51.0,82.0
74,28.346125499999996,28.799650687499998,70.0,59.0
75,29.115355499999996,29.639393437499997,58.0,35.0
76,28.730740499999996,29.791636875,46.0,86.0
77,29.499970499999996,30.277213312499995,65.0,81.0
78,29.884585499999996,30.341315812499996,62.0,53.0
79,31.423045499999997,31.874968124999995,63.0,53.0
80,31.038430499999997,32.028814125,60.0,72.0
81,32.192275499999994,32.548044374999996,60.0,55.0
82,30.653815499999997,32.80124925,55.0,62.0
83,30.269200499999997,32.823685125,48.0,67.0
84,31.807660499999997,33.3381076875,67.0,69.0
85,32.961505499999994,33.395799937499994,62.0,58.0
86,32.5768905,33.49195368749999,63.0,79.0
87,33.3461205,34.291632375,44.0,72.0
88,33.730735499999994,34.368555375,51.0,54.0
89,34.1153505,34.5977218125,63.0,97.0
90,34.499965499999995,34.9695163125,60.0,65.0
91,34.8845805,35.8156693125,46.0,77.0
92,35.269195499999995,35.842912874999996,53.0,58.0
93,35.6538105,36.3060534375,65.0,99.0
94,36.038425499999995,36.495155812499995,62.0,63.0
95,37.1922705,38.004769687499994,63.0,75.0
96,37.576885499999996,38.124961875,60.0,42.0
97,36.807655499999996,38.2195130625,55.0,58.0
98,38.346115499999996,39.24996074999999,55.0,63.0
99,38.73073049999999,39.38938368749999,63.0,83.0
100,37.96150049999999,39.424640062499996,67.0,77.0
101,36.4230405,39.4278451875,48.0,67.0
102,39.1153455,39.4310503125,60.0,68.0
103,40.26919049999999,40.729125937499994,63.0,74.0
104,39.8845755,40.765984874999994,58.0,45.0
105,39.49996049999999,40.77560025,51.0,82.0
106,40.6538055,41.107330687499996,70.0,59.0
107,41.4230355,41.947073437499995,58.0,35.0
108,41.038420499999994,42.09931687499999,46.0,86.0
109,41.807650499999994,42.58489331249999,65.0,81.0
110,42.1922655,42.6489958125,62.0,53.0
111,43.7307255,44.18264812499999,63.0,53.0
112,43.346110499999995,44.336494124999994,60.0,72.0
113,44.49995549999999,44.855724374999994,60.0,55.0
114,42.9614955,45.108929249999996,55.0,62.0
115,42.576880499999994,45.131365124999995,48.0,67.0
116,44.115340499999995,45.6457876875,67.0,69.0
117,45.26918549999999,45.70347993749999,62.0,58.0
118,44.884570499999995,45.7996336875,63.0,79.0
119,45.653800499999996,46.599312375,44.0,72.0
120,46.03841549999999,46.676235375,51.0,54.0
121,46.423030499999996,46.905401812499996,63.0,97.0
122,46.80764549999999,47.277196312499996,60.0,65.0
123,47.192260499999996,48.1233493125,46.0,77.0
124,47.57687549999999,48.150592874999994,53.0,58.0
125,47.9614905,48.613733437499995,65.0,99.0
126,48.34610549999999,48.80283581249999,62.0,63.0
127,48.7307205,50.2691805,48.0,67.0
128,49.11533549999999,50.2691805,55.0,58.0
129,49.884565499999994,50.2691805,60.0,42.0
130,49.4999505,50.2691805,63.0,75.0
131,52.57687049999999,53.03680593749999,63.0,74.0
132,52.192255499999995,53.07366487499999,58.0,45.0
133,51.80764049999999,53.083280249999994,51.0,82.0
134,52.961485499999995,53.41501068749999,70.0,59.0
135,53.730715499999995,54.25475343749999,58.0,35.0
136,53.34610049999999,54.406996875,46.0,86.0
137,54.11533049999999,54.89257331249999,65.0,81.0
138,54.499945499999995,54.956675812499995,62.0,53.0
139,56.038405499999996,56.49032812499999,63.0,53.0
140,55.65379049999999,56.64417412499999,60.0,72.0
141,56.807635499999996,57.16340437499999,60.0,55.0
142,55.269175499999996,57.41660924999999,55.0,62.0
143,54.88456049999999,57.43904512499999,48.0,67.0
144,56.42302049999999,57.953467687499995,67.0,69.0
145,57.5768655,58.0111599375,62.0,58.0
146,57.19225049999999,58.107313687499996,63.0,79.0
147,57.96148049999999,58.906992374999994,44.0,72.0
148,58.3460955,58.983915374999995,51.0,54.0
149,58.730710499999994,59.21308181249999,63.0,97.0
150,59.11532549999999,59.58487631249999,60.0,65.0
151,59.499940499999994,60.431029312499994,46.0,77.0
152,59.88455549999999,60.45827287499999,53.0,58.0
153,60.269170499999994,60.92141343749999,65.0,99.0
154,60.65378549999999,61.11051581249999,62.0,63.0
155,61.807630499999995,62.62012968749999,63.0,75.0
156,62.19224549999999,62.74032187499999,60.0,42.0
157,61.42301549999999,62.834873062499994,55.0,58.0
158,62.96147549999999,63.865320749999995,55.0,63.0
159,63.346090499999995,64.0047436875,63.0,83.0
160,62.576860499999995,64.0400000625,67.0,77.0
161,61.038400499999995,64.04320518749999,48.0,67.0
162,63.73070549999999,64.04641031249999,60.0,68.0
163,64.88455049999999,65.3444859375,63.0,74.0
164,64.49993549999999,65.381344875,58.0,45.0
165,64.1153205,65.39096024999999,51.0,82.0
166,65.2691655,65.72269068749999,70.0,59.0
167,66.0383955,66.56243343749999,58.0,35.0
168,65.6537805,66.714676875,46.0,86.0
169,66.42301049999999,67.2002533125,65.0,81.0
170,66.80762549999999,67.26435581249999,62.0,53.0
171,68.34608549999999,68.798008125,63.0,53.0
172,67.96147049999999,68.951854125,60.0,72.0
173,69.1153155,69.47108437499999,60.0,55.0
174,67.5768555,69.72428925,55.0,62.0
175,67.1922405,69.746725125,48.0,67.0
176,68.7307005,70.26114768749999,67.0,69.0
177,69.88454549999999,70.31883993749999,62.0,58.0
178,69.49993049999999,70.41499368749999,63.0,79.0
179,70.2691605,71.21467237499999,44.0,72.0
180,70.6537755,71.29159537499999,51.0,54.0
181,71.03839049999999,71.5207618125,63.0,97.0
182,71.42300549999999,71.89255631249999,60.0,65.0
183,71.8076205,72.73870931249999,46.0,77.0
184,72.1922355,72.765952875,53.0,58.0
185,72.57685049999999,73.2290934375,65.0,99.0
186,72.96146549999999,73.41819581249999,62.0,63.0
187,74.11531049999999,74.92780968749999,63.0,75.0
188,74.49992549999999,75.048001875,60.0,42.0
189,73.7306955,75.14255306249999,55.0,58.0
190,75.2691555,76.17300074999999,55.0,63.0
191,75.6537705,76.31242368749999,63.0,83.0
192,74.88454049999999,76.34768006249999,67.0,77.0
193,73.34608049999999,76.3508851875,48.0,67.0
194,76.03838549999999,76.35409031249999,60.0,68.0
195,76.8076155,77.205051,51.0,92.0
196,76.61530799999998,77.34126881249999,46.0,55.0
197,76.999923,77.3444739375,55.0,69.0
198,76.42300049999999,77.43581999999999,39.0,95.0
199,77.38453799999999,77.5143455625,51.0,85.0
200,77.1922305,77.82203756249999,63.0,112.0
201,77.57684549999999,77.85729393749999,58.0,99.0
202,77.76915299999999,77.91658874999999,55.0,85.0
203,78.538383,78.71145974999999,62.0,82.0
204,78.3460755,78.7226776875,58.0,100.0
205,78.15376799999999,78.98069025,53.0,60.0
206,77.96146049999999,79.06562606249999,46.0,86.0
207,78.92299799999999,79.08485681249999,58.0,100.0
208,78.7306905,79.156972125,65.0,96.0
209,79.11530549999999,79.36690781249999,62.0,93.0
210,79.30761299999999,79.50152306249998,65.0,96.0
211,79.88453549999998,80.13133012499999,60.0,93.0
212,80.076843,80.23709924999999,63.0,93.0
213,79.69222799999999,80.34767606249999,55.0,64.0
214,80.2691505,80.8284448125,67.0,95.0
215,80.65376549999999,80.9085729375,65.0,74.0
216,79.49992049999999,80.95184212499998,48.0,81.0
217,80.461458,81.041585625,55.0,89.0
218,80.84607299999999,81.0848548125,63.0,93.0
219,81.42299549999998,81.62652093749999,60.0,92.0
220,81.615303,81.78837974999999,63.0,86.0
221,81.23068799999999,81.8508796875,55.0,69.0
222,81.03838049999999,82.08164868749999,48.0,73.0
223,81.999918,82.0944691875,55.0,82.0
224,82.19222549999999,82.46786624999999,63.0,107.0
225,81.8076105,82.477481625,67.0,96.0
226,82.38453299999999,82.5207508125,60.0,85.0
227,82.96145549999999,83.368506375,56.0,89.0
228,83.15376299999998,83.464660125,60.0,81.0
229,82.76914799999999,83.522352375,51.0,37.0
230,82.57684049999999,83.64254456249999,44.0,86.0
231,83.538378,83.7739546875,56.0,77.0
232,83.3460705,84.0015185625,68.0,107.0
233,83.73068549999999,84.009531375,63.0,97.0
234,83.92299299999999,84.12171074999999,60.0,89.0
235,84.69222299999998,84.86049206249999,62.0,71.0
236,84.49991549999999,84.906966375,58.0,97.0
237,84.30760799999999,85.18260712499999,53.0,65.0
238,85.076838,85.1874148125,58.0,96.0
239,84.8845305,85.2691455,65.0,96.0
240,84.11530049999999,85.2835685625,46.0,83.0
241,85.2691455,85.5047221875,62.0,97.0
242,85.46145299999999,85.67459381249999,65.0,92.0
243,86.03837549999999,86.4598494375,48.0,82.0
244,86.23068299999998,86.57042625,55.0,72.0
245,86.615298,86.81722087499999,48.0,79.0
246,86.4229905,86.85247724999999,63.0,122.0
247,85.65376049999999,87.06081037499999,36.0,77.0
248,86.8076055,87.07523343749999,62.0,81.0
249,86.99991299999999,87.233887125,60.0,66.0
250,85.84606799999999,87.23548968749999,43.0,71.0
251,87.57683549999999,87.99350175,48.0,88.0
252,87.76914299999999,88.07683499999999,55.0,83.0
253,88.153758,88.44702693749998,48.0,92.0
254,87.19222049999999,88.5079243125,36.0,71.0
255,87.38452799999999,88.52394993749999,43.0,67.0
256,87.96145049999998,88.64894981249999,63.0,127.0
257,88.3460655,88.65375749999998,60.0,95.0
258,88.53837299999999,88.7066420625,55.0,92.0
259,89.11529549999999,89.52234637499998,56.0,99.0
260,89.30760299999999,89.5752309375,60.0,78.0
261,88.92298799999999,89.76433331249999,51.0,67.0
262,88.73068049999999,89.804397375,44.0,92.0
263,89.692218,90.14414062499999,56.0,97.0
264,89.49991049999998,90.15375599999999,68.0,100.0
265,89.8845255,90.16978162499998,63.0,99.0
266,90.076833,90.28356356249999,60.0,90.0
267,90.65375549999999,91.0175371875,58.0,102.0
268,90.84606299999999,91.02234487499999,62.0,92.0
269,90.46144799999999,91.3284343125,53.0,52.0
270,91.23067799999998,91.35247274999999,58.0,99.0
271,90.26914049999999,91.4085624375,46.0,97.0
272,91.03837049999998,91.43420343749999,65.0,112.0
273,91.4229855,91.67138268749999,62.0,99.0
274,91.615293,91.9101645,65.0,99.0
275,92.19221549999999,92.6024715,48.0,90.0
276,92.38452299999999,92.6537535,55.0,82.0
277,92.76913799999998,92.94381731249999,48.0,85.0
278,92.57683049999999,92.9694583125,63.0,117.0
279,91.80760049999999,93.205035,36.0,78.0
280,92.9614455,93.233881125,62.0,92.0
281,93.153753,93.36368868749999,60.0,79.0
282,91.99990799999999,93.39093224999999,43.0,70.0
283,93.73067549999999,94.13612381249999,48.0,93.0
284,93.92298299999999,94.18099556249999,60.0,85.0
285,93.3460605,94.3252261875,36.0,69.0
286,93.53836799999999,94.36368768749999,43.0,69.0
287,94.30759799999998,94.44702093749999,48.0,88.0
288,94.49990549999998,94.74509756249999,63.0,107.0
289,94.11529049999999,94.74670012499999,67.0,117.0
290,94.692213,94.8845205,60.0,92.0
291,95.26913549999999,95.67778893749998,56.0,99.0
292,95.46144299999999,95.76913499999999,60.0,81.0
293,95.07682799999999,95.88932718749999,51.0,35.0
294,94.8845205,95.94862199999999,44.0,88.0
295,95.84605799999999,96.07201931249999,56.0,95.0
296,95.65375049999999,96.24349349999999,68.0,127.0
297,96.03836549999998,96.27874987499999,63.0,100.0
298,96.230673,96.4229805,60.0,100.0
299,96.99990299999999,97.17938999999998,62.0,86.0
300,96.80759549999999,97.2178515,58.0,95.0
301,96.61528799999999,97.49188968749999,53.0,74.0
302,96.4229805,97.55919731249999,46.0,74.0
303,97.38451799999999,97.56240243749998,58.0,100.0
304,97.19221049999999,97.62009468749999,65.0,102.0
305,97.57682549999998,97.83804318749999,62.0,97.0
306,97.76913299999998,97.9181713125,65.0,99.0
307,98.34605549999999,98.64092699999999,60.0,86.0
308,98.53836299999999,98.6906064375,63.0,97.0
309,98.153748,98.79156787499998,55.0,85.0
310,98.92297799999999,99.16496493749999,55.0,89.0
311,97.9614405,99.21945206249998,48.0,63.0
312,99.11528549999998,99.34925962499999,63.0,117.0
313,98.73067049999999,99.47265693749999,67.0,99.0
314,99.30759299999998,99.515926125,62.0,93.0
315,99.88451549999999,100.32682274999999,48.0,93.0
316,100.07682299999999,100.45663031249998,55.0,89.0
317,100.46143799999999,100.70502749999999,48.0,96.0
318,99.692208,100.78675818749998,43.0,92.0
319,99.4999005,100.83002737499999,36.0,75.0
320,100.26913049999999,100.94220674999998,63.0,127.0
321,100.65374549999999,100.96464262499998,60.0,97.0
322,100.84605299999998,100.99348874999998,55.0,99.0
323,101.42297549999999,101.820411,51.0,92.0
324,101.230668,101.95662881249999,46.0,55.0
325,101.61528299999999,101.9598339375,55.0,69.0
326,101.03836049999998,102.05117999999999,39.0,95.0
327,101.99989799999999,102.12970556249999,51.0,85.0
328,101.80759049999999,102.43739756249998,63.0,112.0
329,102.19220549999999,102.47265393749998,58.0,99.0
330,102.38451299999998,102.53194874999998,55.0,85.0
331,103.15374299999999,103.32681974999998,62.0,82.0
332,102.9614355,103.33803768749999,58.0,100.0
333,102.769128,103.59605024999999,53.0,60.0
334,102.57682049999998,103.68098606249998,46.0,86.0
335,103.53835799999999,103.70021681249999,58.0,100.0
336,103.34605049999999,103.77233212499999,65.0,96.0
337,103.73066549999999,103.98226781249998,62.0,93.0
338,103.92297299999998,104.1168830625,65.0,96.0
339,104.4998955,104.74669012499999,60.0,93.0
340,104.69220299999999,104.85245924999998,63.0,93.0
341,104.30758799999998,104.9630360625,55.0,64.0
342,104.88451049999999,105.44380481249999,67.0,95.0
343,105.26912549999999,105.52393293749999,65.0,74.0
344,104.11528049999998,105.567202125,48.0,81.0
345,105.07681799999999,105.65694562499999,55.0,89.0
346,105.46143299999999,105.7002148125,63.0,93.0
347,106.0383555,106.24188093749999,60.0,92.0
348,106.23066299999999,106.40373974999999,63.0,86.0
349,105.84604799999998,106.46623968749999,55.0,69.0
350,105.65374049999998,106.69700868749999,48.0,73.0
351,106.61527799999999,106.70982918749999,55.0,82.0
352,106.80758549999999,107.08322624999998,63.0,107.0
353,106.42297049999999,107.09284162499999,67.0,96.0
354,106.99989299999999,107.1361108125,60.0,85.0
355,107.5768155,107.98386637499999,56.0,89.0
356,107.769123,108.08002012499999,60.0,81.0
357,107.38450799999998,108.13771237499999,51.0,37.0
358,107.19220049999998,108.25790456249999,44.0,86.0
359,108.15373799999999,108.38931468749999,56.0,77.0
360,107.96143049999999,108.61687856249999,68.0,107.0
361,108.34604549999999,108.62489137499999,63.0,97.0
362,108.53835299999999,108.73707074999999,60.0,89.0
363,109.307583,109.47585206249998,62.0,71.0
364,109.11527549999998,109.52232637499999,58.0,97.0
365,108.92296799999998,109.79796712499999,53.0,65.0
366,109.69219799999999,109.80277481249999,58.0,96.0
367,109.49989049999999,109.88450549999999,65.0,96.0
368,108.73066049999998,109.89892856249999,46.0,83.0
369,109.88450549999999,110.12008218749999,62.0,97.0
370,110.07681299999999,110.28995381249999,65.0,92.0
371,110.65373549999998,111.07520943749999,48.0,82.0
372,110.846043,111.18578624999999,55.0,72.0
373,111.23065799999999,111.43258087499999,48.0,79.0
374,111.03835049999999,111.46783724999999,63.0,122.0
375,110.26912049999999,111.67617037499998,36.0,77.0
376,111.42296549999999,111.69059343749998,62.0,81.0
377,111.61527299999999,111.84924712499999,60.0,66.0
378,110.46142799999998,111.85084968749999,43.0,71.0
379,112.19219549999998,112.60886174999999,48.0,88.0
380,112.38450299999998,112.69219499999998,55.0,83.0
381,112.76911799999999,113.0623869375,48.0,92.0
382,111.80758049999999,113.12328431249999,36.0,71.0
383,111.99988799999998,113.13930993749999,43.0,67.0
384,112.5768105,113.26430981249999,63.0,127.0
385,112.96142549999999,113.2691175,60.0,95.0
386,113.15373299999999,113.32200206249999,55.0,92.0
387,113.73065549999998,114.137706375,56.0,99.0
388,113.92296299999998,114.19059093749999,60.0,78.0
389,113.53834799999998,114.37969331249998,51.0,67.0
390,113.34604049999999,114.41975737499999,44.0,92.0
391,114.30757799999999,114.75950062499999,56.0,97.0
392,114.1152705,114.76911599999998,68.0,100.0
393,114.49988549999999,114.78514162499998,63.0,99.0
394,114.69219299999999,114.89892356249999,60.0,90.0
395,115.26911549999998,115.63289718749999,58.0,102.0
396,115.46142299999998,115.63770487499998,62.0,92.0
397,115.07680799999999,115.94379431249999,53.0,52.0
398,115.846038,115.96783274999999,58.0,99.0
399,114.88450049999999,116.02392243749999,46.0,97.0
400,115.65373049999998,116.04956343749998,65.0,112.0
401,116.03834549999999,116.28674268749998,62.0,99.0
402,116.23065299999999,116.52552449999999,65.0,99.0
403,116.80757549999998,117.21783149999999,48.0,90.0
404,116.99988299999998,117.26911349999999,55.0,82.0
405,117.384498,117.55917731249998,48.0,85.0
406,117.19219049999998,117.58481831249999,63.0,117.0
407,116.42296049999999,117.82039499999999,36.0,78.0
408,117.57680549999999,117.84924112499999,62.0,92.0
409,117.76911299999999,117.97904868749998,60.0,79.0
410,116.61526799999999,118.00629224999999,43.0,70.0
411,118.34603549999999,118.75148381249998,48.0,93.0
412,118.53834299999998,118.79635556249998,60.0,85.0
413,117.96142049999999,118.94058618749999,36.0,69.0
414,118.15372799999999,118.97904768749999,43.0,69.0
415,118.92295799999998,119.06238093749998,48.0,88.0
416,119.11526549999999,119.36045756249999,63.0,107.0
417,118.73065049999998,119.36206012499999,67.0,117.0
418,119.30757299999999,119.49988049999999,60.0,92.0
419,119.88449549999999,120.29314893749999,56.0,99.0
420,120.07680299999998,120.38449499999999,60.0,81.0
421,119.69218799999999,120.50468718749998,51.0,35.0
422,119.49988049999999,120.56398199999998,44.0,88.0
423,120.46141799999998,120.68737931249998,56.0,95.0
424,120.26911049999998,120.85885349999998,68.0,127.0
425,120.6537255,120.89410987499998,63.0,100.0
426,120.84603299999999,121.03834049999999,60.0,100.0
427,121.61526299999998,121.79475,62.0,86.0
428,121.42295549999999,121.83321149999999,58.0,95.0
429,121.23064799999999,122.10724968749999,53.0,74.0
430,121.03834049999999,122.17455731249999,46.0,74.0
431,121.99987799999998,122.1777624375,58.0,100.0
432,121.80757049999998,122.23545468749998,65.0,102.0
433,122.19218549999998,122.45340318749999,62.0,97.0
434,122.38449299999999,122.53353131249999,65.0,99.0
435,122.96141549999999,123.25628699999999,60.0,86.0
436,123.15372299999999,123.30596643749999,63.0,97.0
437,122.76910799999999,123.40692787499998,55.0,85.0
438,123.53833799999998,123.78032493749998,55.0,89.0
439,122.57680049999999,123.83481206249999,48.0,63.0
440,123.73064549999998,123.96461962499998,63.0,117.0
441,123.34603049999998,124.08801693749999,67.0,99.0
442,123.92295299999999,124.13128612499999,62.0,93.0
443,124.49987549999999,124.94218274999999,48.0,93.0
444,124.69218299999999,125.07199031249999,55.0,89.0
445,125.07679799999998,125.32038749999998,48.0,96.0
446,124.30756799999999,125.40211818749998,43.0,92.0
447,124.11526049999999,125.44538737499998,36.0,75.0
448,124.88449049999998,125.55756674999999,63.0,127.0
449,125.26910549999998,125.58000262499999,60.0,97.0
450,125.46141299999998,125.60884874999999,55.0,99.0
451,125.65372049999999,126.78032193749999,39.0,90.0
452,126.03833549999999,126.80756549999998,46.0,66.0
453,126.42295049999998,126.83480906249999,58.0,96.0
454,126.42295049999998,126.85403981249999,51.0,59.0
455,126.80756549999998,127.20179587499999,55.0,82.0
456,127.19218049999999,128.27551275,46.0,74.0
457,127.96141049999999,128.6937815625,62.0,97.0
458,127.57679549999999,128.71621743749998,53.0,75.0
459,128.3460255,128.7354481875,58.0,112.0
460,129.4998705,130.45019006249998,48.0,89.0
461,129.88448549999998,130.791535875,55.0,77.0
462,128.7306405,131.05115099999998,36.0,78.0
463,129.1152555,131.05916381249997,43.0,63.0
464,130.65371549999998,131.2258303125,48.0,49.0
465,131.03833049999997,131.76268875,60.0,102.0
466,130.26910049999998,131.76268875,63.0,122.0
467,131.4229455,131.79634256249997,55.0,86.0
468,132.5767905,132.99345674999998,63.0,73.0
469,131.8075605,133.0559566875,44.0,86.0
470,132.1921755,133.25146931249998,51.0,39.0
471,132.5767905,133.35403331249998,56.0,97.0
472,132.96140549999998,133.45659731249998,60.0,85.0
473,133.73063549999998,134.1713401875,58.0,93.0
474,133.34602049999998,134.3476220625,46.0,85.0
475,134.11525049999997,134.63608331249998,65.0,102.0
476,134.4998655,134.900506125,62.0,99.0
477,136.03832549999998,136.56076087499997,55.0,79.0
478,135.6537105,136.62326081249998,48.0,88.0
479,136.42294049999998,137.256273,63.0,107.0
480,136.80755549999998,137.35563187499997,48.0,66.0
481,137.19217049999997,137.656913625,62.0,92.0
482,134.8844805,137.69697768749998,36.0,88.0
483,135.2690955,137.69858025,43.0,53.0
484,137.57678549999997,138.02870812499998,63.0,86.0
485,138.7306305,139.1905659375,63.0,74.0
486,138.3460155,139.227424875,58.0,45.0
487,137.9614005,139.23704024999998,51.0,82.0
488,139.1152455,139.56877068749998,70.0,59.0
489,139.88447549999998,140.40851343749998,58.0,35.0
490,139.49986049999998,140.56075687499998,46.0,86.0
491,140.26909049999998,141.0463333125,65.0,81.0
492,140.65370549999997,141.1104358125,62.0,53.0
493,142.1921655,142.644088125,63.0,53.0
494,141.8075505,142.79793412499998,60.0,72.0
495,142.96139549999998,143.31716437499998,60.0,55.0
496,141.4229355,143.57036924999997,55.0,62.0
497,141.0383205,143.59280512499998,48.0,67.0
498,142.57678049999998,144.10722768749997,67.0,69.0
499,143.73062549999997,144.16491993749997,62.0,58.0
500,143.34601049999998,144.2610736875,63.0,79.0
501,144.11524049999997,145.060752375,44.0,72.0
502,144.4998555,145.137675375,51.0,54.0
503,144.8844705,145.36684181249998,63.0,97.0
504,145.2690855,145.73863631249998,60.0,65.0
505,145.65370049999999,146.5847893125,46.0,77.0
506,146.03831549999998,146.61203287499998,53.0,58.0
507,146.42293049999998,147.07517343749998,65.0,99.0
508,146.80754549999997,147.2642758125,62.0,63.0
509,147.9613905,148.77388968749997,63.0,75.0
510,148.3460055,148.89408187499998,60.0,42.0
511,147.5767755,148.98863306249999,55.0,58.0
512,149.11523549999998,150.01908074999997,55.0,63.0
513,149.49985049999998,150.15850368749997,63.0,83.0
514,148.7306205,150.1937600625,67.0,77.0
515,147.19216049999997,150.19696518749998,48.0,67.0
516,149.88446549999998,150.20017031249998,60.0,68.0
517,151.0383105,151.49824593749997,63.0,74.0
518,150.65369549999997,151.53510487499997,58.0,45.0
519,150.26908049999997,151.54472024999998,51.0,82.0
520,151.4229255,151.87645068749998,70.0,59.0
521,152.19215549999998,152.71619343749998,58.0,35.0
522,151.8075405,152.868436875,46.0,86.0
523,152.57677049999998,153.35401331249997,65.0,81.0
524,152.96138549999998,153.4181158125,62.0,53.0
525,154.4998455,154.95176812499997,63.0,53.0
526,154.1152305,155.105614125,60.0,72.0
527,155.26907549999999,155.62484437499998,60.0,55.0
528,153.73061549999997,155.87804924999998,55.0,62.0
529,153.34600049999997,155.900485125,48.0,67.0
530,154.8844605,156.41490768749998,67.0,69.0
531,156.03830549999998,156.47259993749998,62.0,58.0
532,155.65369049999998,156.5687536875,63.0,79.0
533,156.42292049999998,157.36843237499997,44.0,72.0
534,156.80753549999997,157.445355375,51.0,54.0
535,157.19215049999997,157.6745218125,63.0,97.0
536,157.5767655,158.04631631249998,60.0,65.0
537,157.9613805,158.89246931249997,46.0,77.0
538,158.3459955,158.919712875,53.0,58.0
539,158.73061049999998,159.3828534375,65.0,99.0
540,159.11522549999998,159.5719558125,62.0,63.0
541,160.26907049999997,161.08156968749998,63.0,75.0
542,160.6536855,161.201761875,60.0,42.0
543,159.88445549999997,161.2963130625,55.0,58.0
544,161.4229155,162.32676074999998,55.0,63.0
545,161.80753049999998,162.46618368749998,63.0,83.0
546,161.0383005,162.5014400625,67.0,77.0
547,159.49984049999998,162.5046451875,48.0,67.0
548,162.19214549999998,162.50785031249998,60.0,68.0
549,162.96137549999997,163.35881099999997,51.0,92.0
550,162.76906799999998,163.49502881249998,46.0,55.0
551,163.15368299999997,163.49823393749998,55.0,69.0
552,162.57676049999998,163.58957999999998,39.0,95.0
553,163.53829799999997,163.6681055625,51.0,85.0
554,163.34599049999997,163.9757975625,63.0,112.0
555,163.7306055,164.01105393749998,58.0,99.0
556,163.922913,164.07034875,55.0,85.0
557,164.692143,164.86521975,62.0,82.0
558,164.4998355,164.8764376875,58.0,100.0
559,164.307528,165.13445025,53.0,60.0
560,164.1152205,165.21938606249998,46.0,86.0
561,165.07675799999998,165.23861681249997,58.0,100.0
562,164.88445049999999,165.310732125,65.0,96.0
563,165.26906549999998,165.5206678125,62.0,93.0
564,165.46137299999998,165.6552830625,65.0,96.0
565,166.03829549999998,166.28509012499998,60.0,93.0
566,166.23060299999997,166.39085924999998,63.0,93.0
567,165.84598799999998,166.50143606249998,55.0,64.0
568,166.42291049999997,166.9822048125,67.0,95.0
569,166.80752549999997,167.06233293749997,65.0,74.0
570,165.65368049999998,167.105602125,48.0,81.0
571,166.61521799999997,167.195345625,55.0,89.0
572,166.999833,167.23861481249997,63.0,93.0
573,167.5767555,167.78028093749998,60.0,92.0
574,167.769063,167.94213974999997,63.0,86.0
575,167.384448,168.00463968749997,55.0,69.0
576,167.1921405,168.23540868749998,48.0,73.0
577,168.15367799999999,168.2482291875,55.0,82.0
578,168.34598549999998,168.62162625,63.0,107.0
579,167.9613705,168.63124162499997,67.0,96.0
580,168.53829299999998,168.6745108125,60.0,85.0
581,169.11521549999998,169.522266375,56.0,89.0
582,169.30752299999997,169.61842012499997,60.0,81.0
583,168.92290799999998,169.67611237499997,51.0,37.0
584,168.73060049999998,169.79630456249998,44.0,86.0
585,169.69213799999997,169.92771468749999,56.0,77.0
586,169.49983049999997,170.15527856249997,68.0,107.0
587,169.88444549999997,170.16329137499997,63.0,97.0
588,170.07675299999997,170.27547074999998,60.0,89.0
589,170.845983,171.0142520625,62.0,71.0
590,170.6536755,171.06072637499997,58.0,97.0
591,170.461368,171.33636712499998,53.0,65.0
592,171.230598,171.3411748125,58.0,96.0
593,171.0382905,171.42290549999998,65.0,96.0
594,170.2690605,171.43732856249997,46.0,83.0
595,171.42290549999998,171.65848218749997,62.0,97.0
596,171.61521299999998,171.82835381249998,65.0,92.0
597,172.19213549999998,172.61360943749997,48.0,82.0
598,172.38444299999998,172.72418624999997,55.0,72.0
599,172.76905799999997,172.97098087499998,48.0,79.0
600,172.57675049999997,173.00623724999997,63.0,122.0
601,171.80752049999998,173.214570375,36.0,77.0
602,172.96136549999997,173.22899343749998,62.0,81.0
603,173.15367299999997,173.38764712499997,60.0,66.0
604,171.99982799999998,173.38924968749998,43.0,71.0
605,173.7305955,174.14726174999998,48.0,88.0
606,173.922903,174.230595,55.0,83.0
607,174.307518,174.60078693749998,48.0,92.0
608,173.34598049999997,174.66168431249997,36.0,71.0
609,173.538288,174.67770993749997,43.0,67.0
610,174.1152105,174.80270981249998,63.0,127.0
611,174.4998255,174.8075175,60.0,95.0
612,174.69213299999998,174.8604020625,55.0,92.0
613,175.26905549999998,175.676106375,56.0,99.0
614,175.46136299999998,175.7289909375,60.0,78.0
615,175.07674799999998,175.9180933125,51.0,67.0
616,174.88444049999998,175.95815737499998,44.0,92.0
617,175.84597799999997,176.29790062499998,56.0,97.0
618,175.65367049999998,176.307516,68.0,100.0
619,176.03828549999997,176.323541625,63.0,99.0
620,176.23059299999997,176.43732356249998,60.0,90.0
621,176.8075155,177.1712971875,58.0,102.0
622,176.999823,177.176104875,62.0,92.0
623,176.61520799999997,177.48219431249998,53.0,52.0
624,177.384438,177.50623274999998,58.0,99.0
625,176.42290049999997,177.56232243749997,46.0,97.0
626,177.1921305,177.58796343749998,65.0,112.0
627,177.5767455,177.82514268749998,62.0,99.0
628,177.76905299999999,178.06392449999998,65.0,99.0
629,178.34597549999998,178.75623149999998,48.0,90.0
630,178.53828299999998,178.80751349999997,55.0,82.0
631,178.92289799999998,179.0975773125,48.0,85.0
632,178.73059049999998,179.12321831249997,63.0,117.0
633,177.96136049999998,179.358795,36.0,78.0
634,179.11520549999997,179.387641125,62.0,92.0
635,179.30751299999997,179.51744868749998,60.0,79.0
636,178.15366799999998,179.54469224999997,43.0,70.0
637,179.88443549999997,180.28988381249997,48.0,93.0
638,180.076743,180.3347555625,60.0,85.0
639,179.49982049999997,180.47898618749997,36.0,69.0
640,179.69212799999997,180.51744768749998,43.0,69.0
641,180.461358,180.6007809375,48.0,88.0
642,180.6536655,180.89885756249998,63.0,107.0
643,180.2690505,180.90046012499997,67.0,117.0
644,180.845973,181.03828049999998,60.0,92.0
645,181.42289549999998,181.83154893749997,56.0,99.0
646,181.61520299999998,181.92289499999998,60.0,81.0
647,181.23058799999998,182.0430871875,51.0,35.0
648,181.03828049999998,182.10238199999998,44.0,88.0
649,181.99981799999998,182.22577931249998,56.0,95.0
650,181.80751049999998,182.39725349999998,68.0,127.0
651,182.19212549999997,182.43250987499997,63.0,100.0
652,182.38443299999997,182.57674049999997,60.0,100.0
653,183.15366299999997,183.33315,62.0,86.0
654,182.96135549999997,183.37161149999997,58.0,95.0
655,182.76904799999997,183.64564968749997,53.0,74.0
656,182.57674049999997,183.71295731249998,46.0,74.0
657,183.538278,183.71616243749997,58.0,100.0
658,183.3459705,183.77385468749998,65.0,102.0
659,183.7305855,183.99180318749998,62.0,97.0
660,183.922893,184.07193131249997,65.0,99.0
661,184.49981549999998,184.79468699999998,60.0,86.0
662,184.69212299999998,184.84436643749999,63.0,97.0
663,184.30750799999998,184.94532787499998,55.0,85.0
664,185.07673799999998,185.31872493749998,55.0,89.0
665,184.1152005,185.3732120625,48.0,63.0
666,185.26904549999998,185.50301962499998,63.0,117.0
667,184.88443049999998,185.62641693749998,67.0,99.0
668,185.46135299999997,185.66968612499997,62.0,93.0
669,186.03827549999997,186.48058274999997,48.0,93.0
670,186.23058299999997,186.6103903125,55.0,89.0
671,186.615198,186.85878749999998,48.0,96.0
672,185.84596799999997,186.94051818749998,43.0,92.0
673,185.65366049999997,186.983787375,36.0,75.0
674,186.42289049999997,187.09596674999997,63.0,127.0
675,186.8075055,187.118402625,60.0,97.0
676,186.999813,187.14724875,55.0,99.0
677,187.57673549999998,187.97417099999998,51.0,92.0
678,187.38442799999999,188.1103888125,46.0,55.0
679,187.76904299999998,188.11359393749999,55.0,69.0
680,187.1921205,188.20493999999997,39.0,95.0
681,188.15365799999998,188.28346556249997,51.0,85.0
682,187.96135049999998,188.59115756249997,63.0,112.0
683,188.34596549999998,188.6264139375,58.0,99.0
684,188.53827299999998,188.68570874999997,55.0,85.0
685,189.30750299999997,189.48057974999998,62.0,82.0
686,189.11519549999997,189.49179768749997,58.0,100.0
687,188.92288799999997,189.74981024999997,53.0,60.0
688,188.73058049999997,189.8347460625,46.0,86.0
689,189.69211799999997,189.85397681249998,58.0,100.0
690,189.49981049999997,189.92609212499997,65.0,96.0
691,189.8844255,190.13602781249998,62.0,93.0
692,190.076733,190.27064306249997,65.0,96.0
693,190.65365549999999,190.900450125,60.0,93.0
694,190.84596299999998,191.00621925,63.0,93.0
695,190.461348,191.1167960625,55.0,64.0
696,191.03827049999998,191.59756481249997,67.0,95.0
697,191.42288549999998,191.67769293749998,65.0,74.0
698,190.2690405,191.72096212499997,48.0,81.0
699,191.23057799999998,191.81070562499997,55.0,89.0
700,191.61519299999998,191.85397481249998,63.0,93.0
701,192.19211549999997,192.3956409375,60.0,92.0
702,192.38442299999997,192.55749974999998,63.0,86.0
703,191.99980799999997,192.61999968749998,55.0,69.0
704,191.80750049999997,192.85076868749996,48.0,73.0
705,192.76903799999997,192.86358918749997,55.0,82.0
706,192.96134549999996,193.23698624999997,63.0,107.0
707,192.57673049999997,193.24660162499998,67.0,96.0
708,193.153653,193.28987081249997,60.0,85.0
709,193.7305755,194.13762637499997,56.0,89.0
710,193.92288299999998,194.23378012499998,60.0,81.0
711,193.538268,194.29147237499998,51.0,37.0
712,193.3459605,194.41166456249996,44.0,86.0
713,194.30749799999998,194.54307468749997,56.0,77.0
714,194.11519049999998,194.77063856249998,68.0,107.0
715,194.49980549999998,194.77865137499998,63.0,97.0
716,194.69211299999998,194.89083075,60.0,89.0
717,195.46134299999997,195.62961206249997,62.0,71.0
718,195.26903549999997,195.67608637499998,58.0,97.0
719,195.07672799999997,195.951727125,53.0,65.0
720,195.84595799999997,195.95653481249997,58.0,96.0
721,195.65365049999997,196.03826549999997,65.0,96.0
722,194.88442049999998,196.05268856249998,46.0,83.0
723,196.03826549999997,196.27384218749998,62.0,97.0
724,196.23057299999996,196.44371381249996,65.0,92.0
725,196.8074955,197.22896943749998,48.0,82.0
726,196.99980299999999,197.33954624999998,55.0,72.0
727,197.38441799999998,197.586340875,48.0,79.0
728,197.19211049999998,197.62159724999998,63.0,122.0
729,196.4228805,197.82993037499998,36.0,77.0
730,197.57672549999998,197.8443534375,62.0,81.0
731,197.76903299999998,198.00300712499998,60.0,66.0
732,196.615188,198.00460968749996,43.0,71.0
733,198.34595549999997,198.76262174999997,48.0,88.0
734,198.53826299999997,198.84595499999998,55.0,83.0
735,198.92287799999997,199.21614693749999,48.0,92.0
736,197.96134049999998,199.27704431249998,36.0,71.0
737,198.15364799999998,199.29306993749998,43.0,67.0
738,198.73057049999997,199.41806981249997,63.0,127.0
739,199.11518549999997,199.42287749999997,60.0,95.0
740,199.30749299999997,199.47576206249997,55.0,92.0
741,199.8844155,200.29146637499997,56.0,99.0
742,200.076723,200.34435093749997,60.0,78.0
743,199.692108,200.53345331249997,51.0,67.0
744,199.49980049999996,200.57351737499997,44.0,92.0
745,200.46133799999998,200.91326062499996,56.0,97.0
746,200.26903049999999,200.92287599999997,68.0,100.0
747,200.65364549999998,200.93890162499997,63.0,99.0
748,200.84595299999998,201.05268356249996,60.0,90.0
749,201.42287549999998,201.78665718749997,58.0,102.0
750,201.61518299999997,201.79146487499997,62.0,92.0
751,201.23056799999998,202.09755431249997,53.0,52.0
752,201.99979799999997,202.12159275,58.0,99.0
753,201.03826049999998,202.17768243749998,46.0,97.0
754,201.80749049999997,202.2033234375,65.0,112.0
755,202.19210549999997,202.4405026875,62.0,99.0
756,202.38441299999997,202.67928449999997,65.0,99.0
757,202.9613355,203.37159149999997,48.0,90.0
758,203.153643,203.42287349999998,55.0,82.0
759,203.53825799999998,203.71293731249997,48.0,85.0
760,203.3459505,203.73857831249998,63.0,117.0
761,202.57672049999996,203.97415499999997,36.0,78.0
762,203.73056549999998,204.00300112499997,62.0,92.0
763,203.92287299999998,204.1328086875,60.0,79.0
764,202.76902799999996,204.16005224999998,43.0,70.0
765,204.49979549999998,204.90524381249998,48.0,93.0
766,204.69210299999997,204.95011556249997,60.0,85.0
767,204.11518049999998,205.09434618749998,36.0,69.0
768,204.30748799999998,205.1328076875,43.0,69.0
769,205.07671799999997,205.21614093749997,48.0,88.0
770,205.26902549999997,205.51421756249997,63.0,107.0
771,204.88441049999997,205.51582012499998,67.0,117.0
772,205.46133299999997,205.65364049999997,60.0,92.0
773,206.0382555,206.44690893749998,56.0,99.0
774,206.230563,206.53825499999996,60.0,81.0
775,205.84594799999996,206.65844718749997,51.0,35.0
776,205.65364049999997,206.717742,44.0,88.0
777,206.615178,206.8411393125,56.0,95.0
778,206.4228705,207.0126135,68.0,127.0
779,206.80748549999998,207.04786987499998,63.0,100.0
780,206.99979299999998,207.19210049999998,60.0,100.0
781,207.76902299999998,207.94850999999997,62.0,86.0
782,207.57671549999998,207.98697149999998,58.0,95.0
783,207.38440799999998,208.26100968749998,53.0,74.0
784,207.19210049999998,208.3283173125,46.0,74.0
785,208.15363799999997,208.33152243749998,58.0,100.0
786,207.96133049999997,208.3892146875,65.0,102.0
787,208.34594549999997,208.60716318749996,62.0,97.0
788,208.53825299999997,208.68729131249998,65.0,99.0
789,209.11517549999996,209.41004699999996,60.0,86.0
790,209.307483,209.45972643749997,63.0,97.0
791,208.92286799999997,209.56068787499999,55.0,85.0
792,209.692098,209.9340849375,55.0,89.0
793,208.73056049999997,209.98857206249997,48.0,63.0
794,209.88440549999999,210.118379625,63.0,117.0
795,209.4997905,210.24177693749996,67.0,99.0
796,210.07671299999998,210.28504612499998,62.0,93.0
797,210.65363549999998,211.09594274999998,48.0,93.0
798,210.84594299999998,211.22575031249997,55.0,89.0
799,211.23055799999997,211.4741475,48.0,96.0
800,210.46132799999998,211.55587818749999,43.0,92.0
801,210.26902049999998,211.59914737499997,36.0,75.0
802,211.03825049999998,211.71132674999998,63.0,127.0
803,211.42286549999997,211.73376262499997,60.0,97.0
804,211.61517299999997,211.76260874999997,55.0,99.0
805,212.19209549999997,212.58953099999997,51.0,92.0
806,211.99978799999997,212.72574881249997,46.0,55.0
807,212.38440299999996,212.72895393749997,55.0,69.0
808,211.80748049999997,212.82029999999997,39.0,95.0
809,212.769018,212.89882556249998,51.0,85.0
810,212.5767105,213.20651756249998,63.0,112.0
811,212.9613255,213.24177393749997,58.0,99.0
812,213.15363299999999,213.30106874999998,55.0,85.0
813,213.92286299999998,214.09593974999999,62.0,82.0
814,213.73055549999998,214.10715768749998,58.0,100.0
815,213.53824799999998,214.36517024999998,53.0,60.0
816,213.34594049999998,214.45010606249997,46.0,86.0
817,214.30747799999997,214.4693368125,58.0,100.0
818,214.11517049999998,214.54145212499998,65.0,96.0
819,214.49978549999997,214.75138781249998,62.0,93.0
820,214.69209299999997,214.88600306249998,65.0,96.0
821,215.26901549999997,215.51581012499997,60.0,93.0
822,215.46132299999996,215.62157924999997,63.0,93.0
823,215.07670799999997,215.73215606249997,55.0,64.0
824,215.65363049999996,216.21292481249998,67.0,95.0
825,216.0382455,216.29305293749997,65.0,74.0
826,214.88440049999997,216.33632212499998,48.0,81.0
827,215.845938,216.42606562499998,55.0,89.0
828,216.230553,216.46933481249997,63.0,93.0
829,216.80747549999998,217.01100093749997,60.0,92.0
830,216.99978299999998,217.17285975,63.0,86.0
831,216.61516799999998,217.23535968749997,55.0,69.0
832,216.42286049999998,217.46612868749997,48.0,73.0
833,217.38439799999998,217.47894918749998,55.0,82.0
834,217.57670549999997,217.85234624999998,63.0,107.0
835,217.19209049999998,217.86196162499996,67.0,96.0
836,217.76901299999997,217.90523081249998,60.0,85.0
837,218.34593549999997,218.75298637499998,56.0,89.0
838,218.53824299999997,218.84914012499996,60.0,81.0
839,218.15362799999997,218.90683237499996,51.0,37.0
840,217.96132049999997,219.02702456249997,44.0,86.0
841,218.92285799999996,219.15843468749998,56.0,77.0
842,218.73055049999996,219.38599856249996,68.0,107.0
843,219.1151655,219.39401137499996,63.0,97.0
844,219.307473,219.50619074999997,60.0,89.0
845,220.07670299999998,220.24497206249998,62.0,71.0
846,219.88439549999998,220.29144637499996,58.0,97.0
847,219.69208799999998,220.56708712499997,53.0,65.0
848,220.46131799999998,220.57189481249998,58.0,96.0
849,220.26901049999998,220.65362549999998,65.0,96.0
850,219.49978049999999,220.66804856249996,46.0,83.0
851,220.65362549999998,220.88920218749996,62.0,97.0
852,220.84593299999997,221.05907381249997,65.0,92.0
853,221.42285549999997,221.84432943749997,48.0,82.0
854,221.61516299999997,221.95490624999996,55.0,72.0
855,221.99977799999996,222.20170087499997,48.0,79.0
856,221.80747049999997,222.23695725,63.0,122.0
857,221.03824049999997,222.44529037499998,36.0,77.0
858,222.19208549999996,222.45971343749997,62.0,81.0
859,222.384393,222.61836712499996,60.0,66.0
860,221.23054799999997,222.61996968749997,43.0,71.0
861,222.96131549999998,223.37798174999998,48.0,88.0
862,223.15362299999998,223.46131499999998,55.0,83.0
863,223.53823799999998,223.83150693749997,48.0,92.0
864,222.5767005,223.89240431249996,36.0,71.0
865,222.76900799999999,223.9084299375,43.0,67.0
866,223.34593049999998,224.03342981249997,63.0,127.0
867,223.73054549999998,224.03823749999998,60.0,95.0
868,223.92285299999998,224.09112206249998,55.0,92.0
869,224.49977549999997,224.90682637499998,56.0,99.0
870,224.69208299999997,224.95971093749998,60.0,78.0
871,224.30746799999997,225.14881331249998,51.0,67.0
872,224.11516049999997,225.18887737499998,44.0,92.0
873,225.07669799999996,225.52862062499997,56.0,97.0
874,224.88439049999997,225.53823599999998,68.0,100.0
875,225.26900549999996,225.55426162499998,63.0,99.0
876,225.46131299999996,225.66804356249997,60.0,90.0
877,226.03823549999998,226.40201718749998,58.0,102.0
878,226.23054299999998,226.40682487499998,62.0,92.0
879,225.845928,226.71291431249998,53.0,52.0
880,226.61515799999998,226.73695274999997,58.0,99.0
881,225.6536205,226.79304243749996,46.0,97.0
882,226.42285049999998,226.81868343749997,65.0,112.0
883,226.80746549999998,227.05586268749997,62.0,99.0
884,226.99977299999998,227.29464449999998,65.0,99.0
885,227.57669549999997,227.98695149999998,48.0,90.0
886,227.76900299999997,228.03823349999996,55.0,82.0
887,228.15361799999997,228.32829731249998,48.0,85.0
888,227.96131049999997,228.35393831249996,63.0,117.0
889,227.19208049999997,228.58951499999998,36.0,78.0
890,228.34592549999996,228.61836112499998,62.0,92.0
891,228.53823299999996,228.74816868749997,60.0,79.0
892,227.38438799999997,228.77541225,43.0,70.0
893,229.1151555,229.52060381249998,48.0,93.0
894,229.30746299999998,229.56547556249998,60.0,85.0
895,228.73054049999996,229.70970618749996,36.0,69.0
896,228.922848,229.74816768749997,43.0,69.0
897,229.69207799999998,229.83150093749998,48.0,88.0
898,229.88438549999998,230.12957756249997,63.0,107.0
899,229.49977049999998,230.131180125,67.0,117.0
900,230.07669299999998,230.26900049999998,60.0,92.0
901,230.65361549999997,231.06226893749997,56.0,99.0
902,230.84592299999997,231.15361499999997,60.0,81.0
903,230.46130799999997,231.27380718749998,51.0,35.0
904,230.26900049999998,231.33310199999997,44.0,88.0
905,231.23053799999997,231.45649931249997,56.0,95.0
906,231.03823049999997,231.62797349999997,68.0,127.0
907,231.42284549999997,231.66322987499998,63.0,100.0
908,231.61515299999996,231.80746049999996,60.0,100.0
909,232.38438299999999,232.56386999999998,62.0,86.0
910,232.1920755,232.60233149999996,58.0,95.0
911,231.99976799999996,232.8763696875,53.0,74.0
912,231.80746049999996,232.94367731249997,46.0,74.0
913,232.76899799999998,232.94688243749997,58.0,100.0
914,232.57669049999998,233.00457468749997,65.0,102.0
915,232.96130549999998,233.22252318749997,62.0,97.0
916,233.15361299999998,233.30265131249996,65.0,99.0
917,233.73053549999997,234.02540699999997,60.0,86.0
918,233.92284299999997,234.07508643749998,63.0,97.0
919,233.53822799999998,234.17604787499997,55.0,85.0
920,234.30745799999997,234.54944493749997,55.0,89.0
921,233.34592049999998,234.60393206249998,48.0,63.0
922,234.49976549999997,234.73373962499997,63.0,117.0
923,234.11515049999997,234.85713693749997,67.0,99.0
924,234.69207299999997,234.90040612499996,62.0,93.0
925,235.26899549999996,235.71130275,48.0,93.0
926,235.461303,235.84111031249998,55.0,89.0
927,235.84591799999998,236.08950749999997,48.0,96.0
928,235.07668799999996,236.17123818749997,43.0,92.0
929,234.88438049999996,236.21450737499998,36.0,75.0
930,235.65361049999998,236.32668674999996,63.0,127.0
931,236.03822549999998,236.34912262499998,60.0,97.0
932,236.23053299999998,236.37796874999998,55.0,99.0
933,236.80745549999997,237.20489099999998,51.0,92.0
934,236.61514799999998,237.34110881249998,46.0,55.0
935,236.99976299999997,237.34431393749998,55.0,69.0
936,236.42284049999998,237.43565999999998,39.0,95.0
937,237.38437799999997,237.51418556249996,51.0,85.0
938,237.19207049999997,237.82187756249996,63.0,112.0
939,237.57668549999997,237.85713393749998,58.0,99.0
940,237.76899299999997,237.91642874999997,55.0,85.0
941,238.53822299999996,238.71129974999997,62.0,82.0
942,238.34591549999996,238.7225176875,58.0,100.0
943,238.15360799999996,238.98053025,53.0,60.0
944,237.96130049999996,239.06546606249998,46.0,86.0
945,238.92283799999998,239.08469681249997,58.0,100.0
946,238.7305305,239.15681212499996,65.0,96.0
947,239.11514549999998,239.36674781249997,62.0,93.0
948,239.30745299999998,239.50136306249996,65.0,96.0
949,239.88437549999998,240.13117012499998,60.0,93.0
950,240.07668299999997,240.23693924999998,63.0,93.0
951,239.69206799999998,240.34751606249998,55.0,64.0
952,240.26899049999997,240.82828481249996,67.0,95.0
953,240.65360549999997,240.90841293749997,65.0,74.0
954,239.49976049999998,240.95168212499996,48.0,81.0
955,240.46129799999997,241.04142562499996,55.0,89.0
956,240.84591299999997,241.08469481249998,63.0,93.0
957,241.42283549999996,241.62636093749998,60.0,92.0
958,241.61514299999996,241.78821974999997,63.0,86.0
959,241.23052799999996,241.85071968749997,55.0,69.0
960,241.03822049999997,242.08148868749998,48.0,73.0
961,241.99975799999999,242.09430918749996,55.0,82.0
962,242.19206549999998,242.46770624999996,63.0,107.0
963,241.80745049999996,242.47732162499997,67.0,96.0
964,242.38437299999998,242.52059081249996,60.0,85.0
965,242.96129549999998,243.36834637499996,56.0,89.0
966,243.15360299999998,243.46450012499997,60.0,81.0
967,242.76898799999998,243.52219237499997,51.0,37.0
968,242.57668049999998,243.64238456249998,44.0,86.0
969,243.53821799999997,243.7737946875,56.0,77.0
970,243.34591049999997,244.00135856249997,68.0,107.0
971,243.73052549999997,244.00937137499997,63.0,97.0
972,243.92283299999997,244.12155074999998,60.0,89.0
973,244.69206299999996,244.86033206249996,62.0,71.0
974,244.49975549999996,244.90680637499997,58.0,97.0
975,244.30744799999997,245.18244712499998,53.0,65.0
976,245.07667799999996,245.1872548125,58.0,96.0
977,244.88437049999996,245.26898549999999,65.0,96.0
978,244.11514049999997,245.28340856249997,46.0,83.0
979,245.26898549999999,245.50456218749997,62.0,97.0
980,245.46129299999998,245.67443381249998,65.0,92.0
981,246.03821549999998,246.45968943749997,48.0,82.0
982,246.23052299999998,246.57026624999997,55.0,72.0
983,246.61513799999997,246.81706087499998,48.0,79.0
984,246.42283049999998,246.85231724999997,63.0,122.0
985,245.65360049999998,247.06065037499997,36.0,77.0
986,246.80744549999997,247.07507343749998,62.0,81.0
987,246.99975299999997,247.23372712499997,60.0,66.0
988,245.84590799999998,247.23532968749998,43.0,71.0
989,247.57667549999996,247.99334174999998,48.0,88.0
990,247.76898299999996,248.07667499999997,55.0,83.0
991,248.15359799999996,248.44686693749998,48.0,92.0
992,247.19206049999997,248.50776431249997,36.0,71.0
993,247.38436799999997,248.52378993749997,43.0,67.0
994,247.96129049999996,248.64878981249998,63.0,127.0
995,248.34590549999996,248.65359749999996,60.0,95.0
996,248.53821299999998,248.70648206249996,55.0,92.0
997,249.11513549999998,249.52218637499996,56.0,99.0
998,249.30744299999998,249.57507093749996,60.0,78.0
999,248.92282799999998,249.76417331249996,51.0,67.0
1000,248.73052049999998,249.80423737499999,44.0,92.0
1001,249.69205799999997,250.14398062499998,56.0,97.0
1002,249.49975049999998,250.15359599999996,68.0,100.0
1003,249.88436549999997,250.16962162499996,63.0,99.0
1004,250.07667299999997,250.28340356249998,60.0,90.0
1005,250.65359549999997,251.01737718749996,58.0,102.0
1006,250.84590299999996,251.02218487499997,62.0,92.0
1007,250.46128799999997,251.32827431249999,53.0,52.0
1008,251.23051799999996,251.35231274999998,58.0,99.0
1009,250.26898049999997,251.40840243749997,46.0,97.0
1010,251.03821049999996,251.43404343749998,65.0,112.0
1011,251.42282549999996,251.67122268749998,62.0,99.0
1012,251.615133,251.91000449999999,65.0,99.0
1013,252.19205549999998,252.60231149999998,48.0,90.0
1014,252.38436299999998,252.65359349999997,55.0,82.0
1015,252.76897799999998,252.94365731249997,48.0,85.0
1016,252.57667049999998,252.96929831249997,63.0,117.0
1017,251.80744049999998,253.20487499999996,36.0,78.0
1018,252.96128549999997,253.23372112499996,62.0,92.0
1019,253.15359299999997,253.36352868749998,60.0,79.0
1020,251.99974799999998,253.39077224999997,43.0,70.0
1021,253.73051549999997,254.13596381249997,48.0,93.0
1022,253.92282299999997,254.18083556249996,60.0,85.0
1023,253.34590049999997,254.32506618749997,36.0,69.0
1024,253.53820799999997,254.36352768749998,43.0,69.0
1025,254.30743799999996,254.44686093749996,48.0,88.0
1026,254.49974549999996,254.74493756249998,63.0,107.0
1027,254.11513049999996,254.74654012499997,67.0,117.0
1028,254.69205299999996,254.88436049999999,60.0,92.0
1029,255.26897549999998,255.67762893749997,56.0,99.0
1030,255.46128299999998,255.76897499999998,60.0,81.0
1031,255.07666799999998,255.88916718749996,51.0,35.0
1032,254.88436049999999,255.94846199999998,44.0,88.0
1033,255.84589799999998,256.07185931249995,56.0,95.0
1034,255.65359049999998,256.24333349999995,68.0,127.0
1035,256.03820549999995,256.27858987499997,63.0,100.0
1036,256.230513,256.42282049999994,60.0,100.0
1037,256.99974299999997,257.17922999999996,62.0,86.0
1038,256.8074355,257.21769149999994,58.0,95.0
1039,256.61512799999997,257.49172968749997,53.0,74.0
1040,256.42282049999994,257.5590373125,46.0,74.0
1041,257.38435799999996,257.56224243749995,58.0,100.0
1042,257.1920505,257.61993468749995,65.0,102.0
1043,257.5766655,257.8378831875,62.0,97.0
1044,257.76897299999996,257.91801131249997,65.0,99.0
1045,258.3458955,258.640767,60.0,86.0
1046,258.53820299999995,258.6904464375,63.0,97.0
1047,258.15358799999996,258.79140787499995,55.0,85.0
1048,258.92281799999995,259.1648049375,55.0,89.0
1049,257.9612805,259.21929206249996,48.0,63.0
1050,259.1151255,259.34909962499995,63.0,117.0
1051,258.7305105,259.47249693749995,67.0,99.0
1052,259.30743299999995,259.51576612499997,62.0,93.0
1053,259.88435549999997,260.32666274999997,48.0,93.0
1054,260.076663,260.45647031249996,55.0,89.0
1055,260.461278,260.7048675,48.0,96.0
1056,259.69204799999994,260.7865981875,43.0,92.0
1057,259.4997405,260.829867375,36.0,75.0
1058,260.26897049999997,260.94204675,63.0,127.0
1059,260.65358549999996,260.96448262499996,60.0,97.0
1060,260.845893,260.99332875,55.0,99.0
1061,261.42281549999996,262.0013405625,46.0,52.0
1062,261.03820049999996,262.025379,39.0,88.0
1063,261.80743049999995,262.13595581249996,51.0,48.0
1064,261.80743049999995,262.567045125,58.0,102.0
1065,262.19204549999995,262.61992968749996,55.0,78.0
1066,262.96127549999994,263.73531318749997,53.0,43.0
1067,263.3458905,263.73691575,58.0,76.0
1068,262.57666049999995,263.8859540625,46.0,86.0
1069,263.3458905,264.03659493749996,65.0,95.0
1070,263.7305055,264.05262056249995,62.0,79.0
1071,264.1151205,265.5077473125,48.0,96.0
1072,264.4997355,265.67281125,55.0,64.0
1073,264.8843505,266.20165687499997,67.0,92.0
1074,265.2689655,266.3202465,63.0,85.0
1075,266.0381955,266.50454118749997,55.0,77.0
1076,265.6535805,266.55422062499997,48.0,72.0
1077,266.42281049999997,267.1231303125,67.0,107.0
1078,266.80742549999997,267.3026173125,63.0,99.0
1079,267.57665549999996,268.12473187499995,51.0,58.0
1080,267.19204049999996,268.14075749999995,44.0,88.0
1081,267.96127049999996,268.40357774999995,63.0,107.0
1082,268.34588549999995,268.8571029375,60.0,89.0
1083,269.11511549999994,269.76575587499997,53.0,66.0
1084,269.49973049999994,269.7769738125,58.0,81.0
1085,268.73050049999995,269.82665325,46.0,88.0
1086,269.8843455,270.37953731249996,62.0,81.0
1087,269.49973049999994,270.37953731249996,65.0,100.0
1088,271.4228055,271.8570999375,51.0,66.0
1089,271.8074205,271.88434349999994,55.0,72.0
1090,272.1920355,272.60549662499994,63.0,81.0
1091,271.0381905,272.78658618749995,48.0,86.0
1092,270.2689605,273.17921399999994,36.0,78.0
1093,272.57665049999997,273.2433165,67.0,76.0
1094,270.6535755,275.76094218749995,43.0,61.0
1095,273.34588049999996,275.77536525,36.0,50.0
1096,273.34588049999996,275.7817755,60.0,56.0
1097,272.96126549999997,275.7833780625,63.0,52.0
1098,273.34588049999996,275.78498062499995,67.0,59.0
