,start,end,pitch,velocity
0,34.004034525,34.28629260833333,74.0,107.0
1,34.487905525,34.568550691666665,74.0,99.0
2,34.729841025,35.177421700000004,74.0,107.0
3,35.213712025,35.816534645833336,78.0,127.0
4,35.939518525000004,36.881050845833336,74.0,102.0
5,37.875002525,38.298389650000004,71.0,112.0
6,38.358873525,38.598792895833334,79.0,107.0
7,38.600809025000004,39.0786316375,81.0,122.0
8,39.326615525,39.544357475000005,76.0,117.0
9,39.568551025000005,39.83669620416667,78.0,102.0
10,39.810486525,40.754034975,74.0,122.0
11,41.745970525000004,42.06855119166667,76.0,112.0
12,42.229841525000005,42.39113185833334,74.0,117.0
13,42.471777025,43.12097061666667,72.0,102.0
14,43.197583525,43.59274484166667,76.0,112.0
15,43.681454525,44.33669650416667,74.0,122.0
16,44.407261025000004,45.141132041666665,67.0,100.0
17,45.616938525,45.99597080833333,72.0,122.0
18,46.100809525,46.770164408333336,71.0,99.0
19,47.068551525000004,47.473793487500004,74.0,112.0
20,47.552422525000004,48.6834709875,69.0,99.0
21,49.487906525,49.84274525833334,71.0,107.0
22,49.971777525,50.0806485,71.0,93.0
23,50.213713025000004,50.903229200000006,71.0,100.0
24,50.939519525,51.28024535416667,79.0,127.0
25,51.423390525,52.546374470833335,79.0,122.0
26,53.358874525000004,53.72984229166667,81.0,122.0
27,53.842745525000005,54.02218102083334,79.0,100.0
28,54.084681025,54.64314880416667,78.0,102.0
29,54.810487525,55.183471420833335,81.0,100.0
30,55.294358525,56.1108908375,74.0,122.0
31,57.229842525,57.58871351666667,71.0,107.0
32,57.713713525,58.54032648333334,79.0,112.0
33,58.681455525000004,58.88306844166667,81.0,117.0
34,58.923391025,59.1471813625,79.0,95.0
35,59.165326525000005,59.59677816666667,78.0,102.0
36,59.891133025,60.11895562083333,76.0,112.0
37,60.133068525000006,60.768149212500006,74.0,97.0
38,61.100810525,61.42540732083334,76.0,127.0
39,61.584681525,61.79234282916667,76.0,122.0
40,61.826617025000004,62.04637510416667,74.0,99.0
41,62.068552525,62.40322996666667,79.0,102.0
42,62.552423525,62.97581065,71.0,107.0
43,63.036294525,64.32863332083333,69.0,102.0
44,64.971778525,65.33871403333333,74.0,127.0
45,65.455649525,65.56855275833334,74.0,97.0
46,65.69758502500001,66.00403665833333,74.0,117.0
47,65.939520525,66.00403665833333,74.0,127.0
48,66.423391525,66.87298832916667,78.0,122.0
49,66.90726252500001,67.8568593625,74.0,107.0
50,68.84274652500001,69.29032720000001,71.0,102.0
51,69.326617525,69.54637560416667,79.0,102.0
52,69.568553025,70.15927887083333,81.0,112.0
53,70.294359525,70.72581116666667,76.0,122.0
54,70.778230525,71.75605317083334,74.0,112.0
55,72.713714525,73.04234357916667,76.0,127.0
56,73.19758552500001,73.39516618333333,74.0,117.0
57,73.439521025,74.02218235416667,72.0,127.0
58,74.16532752500001,74.55444045416667,76.0,127.0
59,74.649198525,75.3084727625,74.0,127.0
60,75.37500502500001,76.0584728125,67.0,117.0
61,76.584682525,77.03024707083334,72.0,122.0
62,77.068553525,77.88710196666668,71.0,99.0
63,78.036295525,78.447585875,74.0,112.0
64,78.52016652500001,79.84274725833333,69.0,100.0
65,80.45565052500001,80.76008602916667,71.0,102.0
66,80.939521525,81.02621507916668,71.0,97.0
67,81.181457025,81.2842796125,71.0,90.0
68,81.423392525,81.86895707083333,71.0,102.0
69,81.907263525,82.23387645000001,79.0,127.0
70,82.391134525,83.74597332500001,79.0,127.0
71,84.326618525,84.70363467916667,81.0,117.0
72,84.81048952500001,84.99395727916666,79.0,100.0
73,85.052425025,85.58871538333334,78.0,127.0
74,85.77823152500001,86.17339284166667,81.0,102.0
75,86.262102525,87.18952194166667,74.0,112.0
76,88.197586525,88.62500590833334,71.0,122.0
77,88.681457525,89.6129092,79.0,127.0
78,89.649199525,89.8487963125,81.0,112.0
79,89.89113502500001,90.08871568333333,79.0,93.0
80,90.13307052500001,90.70565120833334,78.0,117.0
81,91.10081252500001,91.5302480375,74.0,102.0
82,92.06855452500001,92.37500615833333,76.0,102.0
83,92.552425525,92.7096836,76.0,107.0
84,92.794361025,93.07661910833333,74.0,81.0
85,93.03629652500001,93.62903850000001,76.0,117.0
86,93.520167525,93.70161915,79.0,117.0
87,94.004038525,95.82863542083334,81.0,127.0
88,95.939522525,96.42540965416667,74.0,112.0
89,96.42339352500001,96.75403870833334,83.0,122.0
90,96.907264525,97.26008712916668,83.0,122.0
91,97.633071025,97.86290975,84.0,127.0
92,97.875006525,98.53024850416668,81.0,112.0
93,99.084684025,99.1875066125,76.0,127.0
94,99.326619525,99.495974375,76.0,112.0
95,99.56855502500001,99.71170019583334,79.0,97.0
96,99.810490525,100.22984539166667,81.0,122.0
97,100.778232525,101.19960352083334,78.0,127.0
98,101.262103525,101.69960355416667,76.0,112.0
99,101.74597452500001,102.5867003875,74.0,97.0
100,103.197587525,103.47178109166667,71.0,100.0
101,103.439523025,103.6512165875,74.0,99.0
102,103.68145852500001,104.02621661250001,79.0,112.0
103,104.165329525,104.39718437916667,79.0,127.0
104,104.407265025,104.92944247916667,81.0,127.0
105,105.133071525,105.56250703750001,79.0,107.0
106,105.616942525,106.03226513333334,78.0,117.0
107,106.100813525,106.33468450833334,76.0,112.0
108,106.342749025,106.7358942125,74.0,100.0
109,107.06855552500001,107.31855554166667,67.0,97.0
110,107.310491025,107.53024910416667,69.0,107.0
111,107.552426525,108.7681524125,71.0,112.0
112,111.423394525,111.76008809583334,76.0,112.0
113,111.907265525,112.004039725,76.0,100.0
114,112.14920102500001,112.52621717916668,76.0,112.0
115,112.633072025,113.25403980833335,83.0,127.0
116,113.35887852500001,114.27621729583333,81.0,127.0
117,114.810491525,114.96976572916667,83.0,122.0
118,115.052427025,115.25605607083334,81.0,99.0
119,115.29436252500001,115.84073352916667,79.0,127.0
120,116.020169025,116.14516903333335,79.0,117.0
121,116.26210452500001,116.6431529375,79.0,127.0
122,116.745975525,117.20162071666667,81.0,112.0
123,117.229846525,118.41936273333334,76.0,102.0
124,118.68145952500001,118.81049179166668,74.0,96.0
125,118.923395025,119.07258858333334,74.0,96.0
126,119.165330525,119.71774991666668,76.0,122.0
127,119.891137025,120.10283058750001,83.0,127.0
128,120.133072525,120.5504112625,81.0,127.0
129,120.61694352500001,121.05444355416667,79.0,127.0
130,121.58468552500001,121.68549198333334,79.0,122.0
131,121.82662102500001,121.92137909583334,79.0,100.0
132,122.068556525,122.32863718750001,79.0,122.0
133,122.79436302500001,123.012104975,76.0,112.0
134,123.036298525,124.96371800833334,81.0,127.0
135,126.90726652500001,127.39315365416667,74.0,112.0
136,127.391137525,127.72178270833334,83.0,122.0
137,127.87500852500001,128.22783112916667,83.0,122.0
138,128.600815025,128.83065375,84.0,127.0
139,128.842750525,129.49799250416666,81.0,112.0
140,130.052428025,130.1552506125,76.0,96.0
141,130.294363525,130.42541192083334,76.0,107.0
142,130.536299025,130.72379903750002,78.0,127.0
143,130.77823452500002,131.19758939166667,81.0,122.0
144,131.745976525,132.16734752083335,78.0,127.0
145,132.229847525,132.66734755416667,76.0,112.0
146,132.71371852500002,133.5544443875,74.0,97.0
147,134.165331525,134.43952509166667,71.0,100.0
148,134.407267025,134.6189605875,74.0,99.0
149,134.649202525,134.99396061250002,79.0,112.0
150,135.13307352500001,135.36492837916668,79.0,127.0
151,135.375009025,135.89718647916666,81.0,127.0
152,136.100815525,136.5302510375,79.0,107.0
153,136.584686525,137.00000913333335,78.0,117.0
154,137.06855752500002,137.30242850833335,76.0,112.0
155,137.310493025,137.7036382125,74.0,100.0
156,138.036299525,138.28629954166666,67.0,97.0
157,138.27823502500001,138.49799310416668,69.0,107.0
158,138.520170525,142.13710625000002,71.0,112.0
159,142.391138525,142.72783209583335,76.0,112.0
160,142.875009525,142.971783725,76.0,100.0
161,143.116945025,143.49396117916666,76.0,112.0
162,143.600816025,144.22178380833333,83.0,127.0
163,144.326622525,145.24396129583334,81.0,127.0
164,145.778235525,145.93750972916666,83.0,122.0
165,146.020171025,146.22380007083333,81.0,99.0
166,146.262106525,146.80847752916668,79.0,127.0
167,146.987913025,147.11291303333334,79.0,117.0
168,147.229848525,147.6108969375,79.0,127.0
169,147.71371952500002,148.16936471666668,81.0,112.0
170,148.197590525,149.38710673333335,76.0,102.0
171,149.64920352500002,149.77823579166667,74.0,96.0
172,149.891139025,150.04033258333334,74.0,96.0
173,150.133074525,150.68549391666667,76.0,122.0
174,150.85888102500002,151.0705745875,83.0,127.0
175,151.100816525,151.51815526250002,81.0,127.0
176,151.58468752500002,152.02218755416666,79.0,127.0
177,152.552429525,152.745977925,76.0,112.0
178,152.79436502500002,153.00202632916668,79.0,100.0
179,153.036300525,153.375010225,83.0,127.0
180,153.520171525,153.82057477083333,81.0,127.0
181,154.00404252500002,154.40726835833334,81.0,127.0
182,154.487913525,155.54839746666667,76.0,102.0
183,155.455655525,155.9092845875,81.0,127.0
184,155.93952652500002,158.4012202375,79.0,127.0
185,173.33645855416668,173.70339406250002,74.0,127.0
186,173.82032955416668,173.9332327875,74.0,97.0
187,174.0622650541667,174.3687166875,74.0,117.0
188,174.30420055416667,174.3687166875,74.0,127.0
189,174.7880715541667,175.23766835833334,78.0,122.0
190,175.27194255416669,176.22153939166668,74.0,107.0
191,177.2074265541667,177.65500722916667,71.0,102.0
192,177.69129755416668,177.91105563333335,79.0,102.0
193,177.9332330541667,178.52395890000003,81.0,112.0
194,178.6590395541667,179.09049119583335,76.0,122.0
195,179.1429105541667,180.12073320000002,74.0,112.0
196,181.0783945541667,181.40702360833336,76.0,127.0
197,181.5622655541667,181.7598462125,74.0,117.0
198,181.8042010541667,182.38686238333335,72.0,127.0
199,182.53000755416667,182.91912048333336,76.0,127.0
200,183.0138785541667,183.6731527916667,74.0,127.0
201,183.73968505416667,184.42315284166668,67.0,117.0
202,184.94936255416667,185.39492710000002,72.0,122.0
203,185.4332335541667,186.25178199583334,71.0,99.0
204,186.40097555416668,186.81226590416668,74.0,112.0
205,186.88484655416667,188.20742728750002,69.0,100.0
206,188.82033055416667,189.12476605833336,71.0,102.0
207,189.3042015541667,189.39089510833335,71.0,97.0
208,189.54613705416668,189.6489596416667,71.0,90.0
209,189.7880725541667,190.2336371,71.0,102.0
210,190.27194355416668,190.5985564791667,79.0,127.0
211,190.75581455416668,192.1106533541667,79.0,127.0
212,192.69129855416668,193.06831470833336,81.0,117.0
213,193.17516955416667,193.35863730833336,79.0,100.0
214,193.41710505416668,193.95339541250002,78.0,127.0
215,194.1429115541667,194.53807287083336,81.0,102.0
216,194.62678255416668,195.55420197083336,74.0,112.0
217,196.56226655416668,196.9896859375,71.0,122.0
218,197.04613755416668,197.97758922916668,79.0,127.0
219,198.0138795541667,198.21347634166668,81.0,112.0
220,198.25581505416667,198.45339571250003,79.0,93.0
221,198.49775055416669,199.07033123750003,78.0,117.0
222,199.46549255416667,199.8949280666667,74.0,102.0
223,200.4332345541667,200.7396861875,76.0,102.0
224,200.91710555416668,201.07436362916667,76.0,107.0
225,201.1590410541667,201.4412991375,74.0,81.0
226,201.40097655416668,201.9937185291667,76.0,117.0
227,201.8848475541667,202.0662991791667,79.0,117.0
228,202.3687185541667,204.19331545000003,81.0,127.0
229,204.3042025541667,204.79008968333335,74.0,112.0
230,204.7880735541667,205.11871873750002,83.0,122.0
231,205.27194455416668,205.62476715833336,83.0,122.0
232,205.99775105416668,206.2275897791667,84.0,127.0
233,206.23968655416667,206.89492853333334,81.0,112.0
234,207.4493640541667,207.55218664166668,76.0,127.0
235,207.69129955416668,207.86065440416667,76.0,112.0
236,207.9332350541667,208.076380225,79.0,97.0
237,208.1751705541667,208.59452542083335,81.0,122.0
238,209.14291255416668,209.56428355000003,78.0,127.0
239,209.62678355416668,210.06428358333335,76.0,112.0
240,210.11065455416667,210.9513804166667,74.0,97.0
241,211.56226755416668,211.83646112083335,71.0,100.0
242,211.8042030541667,212.01589661666668,74.0,99.0
243,212.04613855416667,212.3908966416667,79.0,112.0
244,212.53000955416667,212.76186440833334,79.0,127.0
245,212.77194505416668,213.29412250833334,81.0,127.0
246,213.49775155416668,213.92718706666668,79.0,107.0
247,213.98162255416668,214.3969451625,78.0,117.0
248,214.4654935541667,214.6993645375,76.0,112.0
249,214.70742905416668,215.1005742416667,74.0,100.0
250,215.43323555416669,215.68323557083335,67.0,97.0
251,215.6751710541667,215.89492913333333,69.0,107.0
252,215.91710655416668,217.1328324416667,71.0,112.0
253,219.78807455416668,220.124768125,76.0,112.0
254,220.27194555416668,220.36871975416668,76.0,100.0
255,220.5138810541667,220.89089720833334,76.0,112.0
256,220.99775205416668,221.6187198375,83.0,127.0
257,221.7235585541667,222.64089732500003,81.0,127.0
258,223.1751715541667,223.33444575833335,83.0,122.0
259,223.41710705416668,223.62073610000002,81.0,99.0
260,223.6590425541667,224.20541355833336,79.0,127.0
261,224.3848490541667,224.50984906250002,79.0,117.0
262,224.62678455416668,225.00783296666668,79.0,127.0
263,225.11065555416667,225.56630074583336,81.0,112.0
264,225.5945265541667,226.7840427625,76.0,102.0
265,227.0461395541667,227.17517182083336,74.0,96.0
266,227.28807505416668,227.43726861250002,74.0,96.0
267,227.5300105541667,228.08242994583335,76.0,122.0
268,228.2558170541667,228.4675106166667,83.0,127.0
269,228.49775255416668,228.91509129166667,81.0,127.0
270,228.98162355416667,229.41912358333335,79.0,127.0
271,229.9493655541667,230.0501720125,79.0,122.0
272,230.19130105416667,230.286059125,79.0,100.0
273,230.43323655416668,230.69331721666668,79.0,122.0
274,231.1590430541667,231.3767850041667,76.0,112.0
275,231.40097855416667,233.32839803750002,81.0,127.0
276,235.27194655416668,235.75783368333336,74.0,112.0
277,235.7558175541667,236.08646273750003,83.0,122.0
278,236.2396885541667,236.59251115833337,83.0,122.0
279,236.9654950541667,237.19533377916667,84.0,127.0
280,237.20743055416668,237.86267253333335,81.0,112.0
281,238.4171080541667,238.5199306416667,76.0,96.0
282,238.6590435541667,238.79009195000003,76.0,107.0
283,238.90097905416667,239.08847906666668,78.0,127.0
284,239.14291455416668,239.56226942083333,81.0,122.0
285,240.11065655416667,240.53202755,78.0,127.0
286,240.5945275541667,241.03202758333336,76.0,112.0
287,241.07839855416668,241.9191244166667,74.0,97.0
288,242.5300115541667,242.80420512083336,71.0,100.0
289,242.77194705416667,242.9836406166667,74.0,99.0
290,243.01388255416668,243.35864064166668,79.0,112.0
291,243.4977535541667,243.72960840833335,79.0,127.0
292,243.7396890541667,244.26186650833336,81.0,127.0
293,244.4654955541667,244.8949310666667,79.0,107.0
294,244.9493665541667,245.3646891625,78.0,117.0
295,245.43323755416668,245.6671085375,76.0,112.0
296,245.6751730541667,246.0683182416667,74.0,100.0
297,246.40097955416667,246.65097957083336,67.0,97.0
298,246.64291505416668,246.86267313333337,69.0,107.0
299,246.8848505541667,250.50178627916668,71.0,112.0
300,250.7558185541667,251.092512125,76.0,112.0
301,251.2396895541667,251.3364637541667,76.0,100.0
302,251.48162505416667,251.85864120833335,76.0,112.0
303,251.9654960541667,252.58646383750002,83.0,127.0
304,252.69130255416667,253.608641325,81.0,127.0
305,254.14291555416668,254.30218975833336,83.0,122.0
306,254.3848510541667,254.58848010000003,81.0,99.0
307,254.6267865541667,255.17315755833334,79.0,127.0
308,255.35259305416668,255.47759306250003,79.0,117.0
309,255.5945285541667,255.9755769666667,79.0,127.0
310,256.0783995541667,256.53404474583334,81.0,112.0
311,256.5622705541667,257.75178676250005,76.0,102.0
312,258.0138835541667,258.14291582083337,74.0,96.0
313,258.2558190541667,258.4050126125,74.0,96.0
314,258.4977545541667,259.05017394583336,76.0,122.0
315,259.2235610541667,259.43525461666667,83.0,127.0
316,259.4654965541667,259.88283529166665,81.0,127.0
317,259.94936755416666,260.38686758333336,79.0,127.0
318,260.9171095541667,261.1106579541667,76.0,112.0
319,261.15904505416665,261.3667063583334,79.0,100.0
320,261.4009805541667,261.7396902541667,83.0,127.0
321,261.8848515541667,262.18525480000005,81.0,127.0
322,262.36872255416665,262.7719483875,81.0,127.0
323,262.8525935541667,263.91307749583336,76.0,102.0
324,263.8203355541667,264.2739646166667,81.0,127.0
325,264.3042065541667,265.27194855416667,79.0,127.0
326,265.7558195541667,265.8888840791667,74.0,107.0
327,265.9977550541667,266.2154970041667,74.0,97.0
328,266.2396905541667,266.769932525,76.0,107.0
329,266.7235615541667,267.18928739166665,83.0,122.0
330,267.2074325541667,267.77396485,81.0,102.0
331,267.69130355416667,268.30622295,79.0,127.0
332,268.6590455541667,268.98364235,76.0,97.0
333,268.90098105416666,269.18727139583336,79.0,96.0
334,269.1429165541667,269.68122304166667,83.0,92.0
335,269.6267875541667,270.1590456541667,81.0,117.0
336,270.11065855416666,270.1590456541667,81.0,117.0
337,270.5945295541667,272.68928775833336,76.0,99.0
338,273.4977555541667,274.04815881666667,81.0,117.0
339,273.98162655416667,276.1892879916667,79.0,97.0
