,start,end,pitch,velocity
0,3.479838941666667,3.9435486500000003,57.0,82.0
1,3.0322582666666666,4.4616938458333335,50.0,67.0
2,3.9193551,4.467742233333333,59.0,61.0
3,2.649193725,4.4939519125,43.0,77.0
4,4.4455648125,5.362903583333334,54.0,70.0
5,4.4576615875000005,5.377016487500001,57.0,59.0
6,4.447580941666667,5.385081004166667,60.0,57.0
7,5.375000358333334,6.292339129166667,59.0,83.0
8,5.370968100000001,6.296371387500001,63.0,81.0
9,5.379032616666667,6.298387516666667,66.0,72.0
10,7.225806933333334,7.689516641666667,54.0,77.0
11,6.377016554166667,10.247984554166667,40.0,73.0
12,6.7923391625,10.266129716666667,47.0,55.0
13,7.659274704166667,10.278226491666667,55.0,77.0
14,8.094758604166667,10.455645858333334,62.0,92.0
15,11.2318555875,11.719758845833335,59.0,82.0
16,10.7963716875,13.483871866666668,52.0,47.0
17,11.669355616666667,13.560484775,60.0,73.0
18,10.364920045833333,13.570565420833335,45.0,73.0
19,15.038307454166667,15.475807483333334,48.0,58.0
20,15.471775225,15.957662354166667,52.0,69.0
21,15.951613966666667,17.973791520833334,57.0,69.0
22,14.096775133333335,17.989920554166666,38.0,74.0
23,14.570565487500001,17.991936683333336,45.0,55.0
24,18.643146404166668,19.45967871666667,50.0,77.0
25,18.270162508333335,19.47177549166667,43.0,83.0
26,19.054436754166666,19.49596904166667,55.0,86.0
27,19.443549683333334,19.564517433333336,57.0,90.0
28,19.927420683333334,20.2560497375,57.0,66.0
29,19.9173400375,20.266130383333333,54.0,73.0
30,19.91330777916667,20.2802432875,42.0,62.0
31,19.915323908333335,20.31854974166667,60.0,66.0
32,20.919356233333335,21.824598229166668,47.0,58.0
33,20.907259458333336,21.830646616666666,63.0,90.0
34,20.8971788125,21.838711133333334,54.0,75.0
35,20.925404620833334,21.8407272625,69.0,55.0
36,20.915323975,21.84677565,66.0,78.0
37,20.913307845833334,21.8649208125,59.0,79.0
38,22.750001516666668,25.294356525,52.0,82.0
39,22.302420841666667,25.921372695833334,47.0,72.0
40,21.875001458333333,25.969759795833333,40.0,76.0
41,25.608872675,28.280243820833334,60.0,42.0
42,28.032259933333336,28.280243820833334,60.0,83.0
43,25.631050095833334,28.28225995,63.0,77.0
44,25.721775908333335,28.302421241666668,67.0,69.0
45,28.358872858333335,28.536292225,55.0,72.0
46,28.6633083625,28.899195475000003,55.0,86.0
47,28.90121160416667,29.239921304166668,51.0,66.0
48,29.213711625000002,30.004034258333334,48.0,82.0
49,29.608872941666668,34.004034525,38.0,90.0
50,30.03226006666667,34.004034525,45.0,52.0
51,30.352824604166667,34.004034525,50.0,81.0
52,30.657260108333336,34.004034525,54.0,58.0
53,30.989921420833333,34.004034525,57.0,66.0
54,31.33871176666667,34.004034525,62.0,64.0
55,34.487905525,35.36693784166667,50.0,47.0
56,34.004034525,35.44153462083334,43.0,73.0
57,35.455647525,36.0302443375,50.0,43.0
58,34.971776525,36.25605080416667,62.0,86.0
59,34.971776525,36.33064758333334,59.0,72.0
60,36.423389525000005,37.22379280416667,54.0,46.0
61,35.939518525000004,37.45363152916667,42.0,82.0
62,36.907260525000005,37.8810509125,59.0,76.0
63,36.907260525000005,37.88306704166667,62.0,74.0
64,37.391131525,37.891131558333335,55.0,55.0
65,38.358873525,38.885083237500005,52.0,55.0
66,39.326615525,39.57661554166667,52.0,44.0
67,38.842744525,39.64919619166667,55.0,72.0
68,38.842744525,39.64919619166667,59.0,70.0
69,37.875002525,39.65121232083334,40.0,73.0
70,40.294357525,40.8387124,57.0,63.0
71,39.810486525,40.86492207916667,50.0,72.0
72,40.778228525,41.114922095833336,62.0,71.0
73,40.778228525,41.1229866125,66.0,82.0
74,41.262099525,41.7641156875,57.0,74.0
75,42.229841525000005,42.7258093,55.0,72.0
76,41.745970525000004,43.24798675416667,48.0,73.0
77,42.713712525000005,43.73790614166667,60.0,73.0
78,43.197583525,43.750002916666666,55.0,55.0
79,42.713712525000005,43.75605130416667,64.0,77.0
80,43.681454525,44.78427717916667,43.0,66.0
81,44.165325525,44.8064546,50.0,47.0
82,44.649196525,45.5866965875,62.0,83.0
83,45.133067525,45.61895465416667,55.0,56.0
84,44.649196525,45.627019170833336,59.0,86.0
85,46.100809525,46.7237934375,52.0,55.0
86,45.616938525,46.87097086666667,45.0,78.0
87,46.584680525,47.5584709125,64.0,78.0
88,46.584680525,47.58669672083334,60.0,88.0
89,47.068551525000004,47.629035433333335,57.0,53.0
90,48.036293525000005,48.83064841666667,45.0,59.0
91,47.552422525000004,48.893148420833334,38.0,71.0
92,48.520164525000006,49.481858137500005,54.0,90.0
93,48.520164525000006,49.48387426666667,57.0,78.0
94,49.004035525,49.504035558333335,50.0,70.0
95,49.971777525,50.69355176666667,50.0,65.0
96,49.487906525,50.71169692916667,43.0,72.0
97,50.455648525,51.01411630416667,62.0,93.0
98,50.455648525,51.51814859583334,59.0,93.0
99,50.939519525,51.610890537500005,55.0,76.0
100,51.423390525,52.5181486625,40.0,71.0
101,51.907261525,52.522180920833335,47.0,59.0
102,52.391132525,53.31451968333334,55.0,92.0
103,52.875003525000004,53.3225842,52.0,49.0
104,52.391132525,53.3286325875,59.0,86.0
105,53.842745525000005,54.40726169166667,55.0,58.0
106,53.358874525000004,54.568552025,48.0,72.0
107,54.326616525000006,55.318552075,60.0,85.0
108,54.326616525000006,55.32258433333334,64.0,81.0
109,54.810487525,55.360890787500004,55.0,50.0
110,55.778229525,56.38710053333334,57.0,63.0
111,55.294358525,56.495971508333334,50.0,72.0
112,56.262100525,56.65927797083334,66.0,91.0
113,56.504036025000005,56.758068300000005,62.0,72.0
114,56.745971525,57.108874775000004,57.0,77.0
115,57.229842525,57.766132883333334,52.0,79.0
116,57.229842525,57.77822965833334,55.0,72.0
117,57.229842525,57.78831030416667,59.0,71.0
118,57.713713525,58.36290711666667,47.0,38.0
119,57.229842525,58.38105227916667,40.0,71.0
120,58.197584525,58.403229700000004,55.0,89.0
121,58.197584525,58.425407120833334,59.0,88.0
122,59.165326525000005,59.8064556,62.0,69.0
123,59.165326525000005,59.83266527916667,66.0,59.0
124,59.165326525000005,59.90524592916667,59.0,64.0
125,59.649197525000005,60.56653629583334,54.0,50.0
126,60.133068525000006,60.586697587500005,66.0,122.0
127,59.165326525000005,60.59677823333334,47.0,66.0
128,60.616939525,60.69960082083334,62.0,76.0
129,61.100810525,61.649197658333335,64.0,77.0
130,61.100810525,61.850810575000004,60.0,89.0
131,61.100810525,61.854842833333336,55.0,89.0
132,61.100810525,62.47581061666667,48.0,69.0
133,62.068552525,62.536294491666666,55.0,73.0
134,62.068552525,62.536294491666666,64.0,77.0
135,62.068552525,62.72984289166667,60.0,93.0
136,63.036294525,63.81250425416667,62.0,90.0
137,63.036294525,63.850810708333334,57.0,81.0
138,63.036294525,63.87298812916667,66.0,89.0
139,64.004036525,64.28226235,62.0,100.0
140,64.245972025,64.51613333333334,60.0,90.0
141,63.036294525,64.5544397875,50.0,62.0
142,64.487907525,64.90121400416668,57.0,79.0
143,64.971778525,65.41734307083334,62.0,89.0
144,64.971778525,65.4254075875,59.0,95.0
145,64.971778525,65.43548823333333,55.0,95.0
146,64.971778525,66.04637537083333,43.0,79.0
147,65.455649525,66.05242375833333,50.0,58.0
148,65.939520525,66.40323023333333,55.0,95.0
149,65.939520525,66.4173431375,59.0,99.0
150,65.939520525,66.42137539583334,62.0,99.0
151,66.423391525,66.86693994166667,55.0,73.0
152,66.665327025,66.90726252500001,43.0,97.0
153,66.91532704166667,67.37903675,55.0,95.0
154,66.90726252500001,67.60685934583334,62.0,88.0
155,66.90726252500001,68.068552925,59.0,88.0
156,67.391133525,68.10484325,54.0,51.0
157,66.90726252500001,68.36089165416666,42.0,83.0
158,67.87500452500001,68.87097233333334,66.0,100.0
159,68.358875525,68.87903685,59.0,83.0
160,67.87500452500001,68.87903685,62.0,67.0
161,68.84274652500001,69.70161755000001,40.0,72.0
162,69.326617525,69.91734337083334,47.0,53.0
163,70.294359525,70.536295025,40.0,97.0
164,69.810488525,70.76411762083333,55.0,88.0
165,70.294359525,70.77218213750001,52.0,66.0
166,69.810488525,70.78226278333334,59.0,83.0
167,71.262101525,71.87903705000001,57.0,83.0
168,71.745972525,72.03226286666667,66.0,117.0
169,70.778230525,72.17137577916667,50.0,88.0
170,71.98790802500001,72.29435965833333,64.0,96.0
171,72.229843525,72.51008547916668,62.0,96.0
172,72.471779025,72.713714525,50.0,97.0
173,72.471779025,72.78427904583333,57.0,78.0
174,72.713714525,73.35484360000001,60.0,97.0
175,73.19758552500001,73.68548878333334,55.0,60.0
176,72.713714525,73.850811375,48.0,63.0
177,73.681456525,74.1955694625,64.0,92.0
178,73.681456525,74.19960172083334,60.0,89.0
179,74.16532752500001,74.407263025,43.0,97.0
180,74.16532752500001,74.74395659583334,55.0,81.0
181,74.649198525,75.23185985416667,62.0,83.0
182,74.649198525,75.42137599583334,59.0,85.0
183,75.13306952500001,75.72379537083334,50.0,38.0
184,74.649198525,75.75202117916668,43.0,65.0
185,75.616940525,76.00202119583334,62.0,99.0
186,76.100811525,76.34274702500001,43.0,97.0
187,76.100811525,76.35685992916667,55.0,73.0
188,75.616940525,76.44355348333333,59.0,99.0
189,76.584682525,77.00000513333333,60.0,88.0
190,76.584682525,77.03024707083334,64.0,78.0
191,76.584682525,77.13306965833334,57.0,69.0
192,76.584682525,77.58871485,45.0,67.0
193,77.068553525,77.59274710833334,52.0,39.0
194,77.56452130000001,77.82258583333333,57.0,69.0
195,77.552424525,77.9939568125,64.0,93.0
196,77.552424525,78.20766650416667,60.0,100.0
197,78.036295525,78.27823102500001,45.0,97.0
198,78.036295525,78.3810536125,57.0,71.0
199,78.52016652500001,79.0584730125,57.0,93.0
200,78.52016652500001,79.08871495000001,62.0,97.0
201,78.52016652500001,79.32661819166667,66.0,96.0
202,79.48790852500001,79.77621499583334,62.0,117.0
203,78.52016652500001,79.93750532916667,50.0,55.0
204,79.729844025,79.96371500833334,60.0,102.0
205,79.971779525,80.213715025,50.0,97.0
206,79.971779525,80.5161344,57.0,100.0
207,80.45565052500001,81.05040862916667,59.0,79.0
208,80.45565052500001,81.26613445000001,62.0,85.0
209,80.939521525,81.56048930833333,50.0,56.0
210,80.45565052500001,81.58266672916668,43.0,76.0
211,81.423392525,81.94556997916668,59.0,112.0
212,81.423392525,81.95968288333334,62.0,96.0
213,81.907263525,82.342747425,55.0,66.0
214,82.391134525,82.74597325833334,52.0,90.0
215,82.391134525,82.77419906666667,55.0,77.0
216,82.391134525,82.79032810000001,59.0,76.0
217,82.391134525,83.70766687083334,40.0,75.0
218,82.875005525,83.73790880833334,47.0,49.0
219,83.60081202500001,83.80847332916667,52.0,64.0
220,83.358876525,83.83871526666667,67.0,95.0
221,83.358876525,83.85887655833334,64.0,95.0
222,83.84274752500001,84.084683025,40.0,97.0
223,83.84274752500001,84.3447636875,59.0,95.0
224,84.326618525,84.89919920833334,64.0,86.0
225,84.326618525,84.9375056625,60.0,89.0
226,84.81048952500001,85.18145729166667,55.0,55.0
227,84.326618525,85.3608927875,48.0,74.0
228,85.294360525,85.73992507083334,64.0,92.0
229,85.294360525,85.971779925,60.0,97.0
230,86.262102525,86.82661869166667,62.0,89.0
231,86.262102525,87.06250580416668,57.0,88.0
232,86.262102525,87.0665380625,66.0,92.0
233,86.262102525,87.39919937500001,50.0,56.0
234,87.229844525,87.51815099583334,62.0,112.0
235,87.471780025,87.69355423333334,60.0,97.0
236,87.713715525,87.79637682083333,57.0,93.0
237,87.713715525,87.95565102500001,50.0,97.0
238,88.197586525,88.72581236666667,59.0,89.0
239,88.197586525,88.73790914166668,55.0,88.0
240,88.197586525,88.77419946666667,52.0,82.0
241,88.681457525,89.23387691666667,47.0,51.0
242,88.197586525,89.2439575625,40.0,59.0
243,89.165328525,89.3649253125,55.0,96.0
244,89.165328525,89.37298982916667,52.0,95.0
245,89.165328525,89.41129628333334,59.0,95.0
246,89.89113502500001,90.13307052500001,40.0,97.0
247,90.13307052500001,90.76613508333334,59.0,90.0
248,90.13307052500001,90.76613508333334,62.0,95.0
249,90.13307052500001,90.77621572916667,66.0,92.0
250,90.616941525,91.23790930833334,54.0,69.0
251,90.13307052500001,91.34678028333333,47.0,70.0
252,91.10484478333333,91.38710286666667,59.0,90.0
253,91.10081252500001,91.56452223333334,66.0,117.0
254,91.10081252500001,91.57057062083334,62.0,96.0
255,91.584683525,91.826619025,47.0,97.0
256,91.584683525,92.0020222625,59.0,93.0
257,92.06855452500001,92.52621584583333,64.0,93.0
258,92.06855452500001,92.61089327083334,60.0,99.0
259,92.552425525,92.61089327083334,60.0,24.0
260,92.06855452500001,93.13508685416667,48.0,69.0
261,93.03629652500001,93.471780425,64.0,100.0
262,93.03629652500001,93.49799010416667,60.0,117.0
263,93.520167525,93.762103025,48.0,97.0
264,93.762103025,94.004038525,36.0,97.0
265,94.004038525,94.51613533333334,62.0,107.0
266,94.004038525,94.52419985,66.0,117.0
267,94.004038525,94.54234501250001,57.0,100.0
268,94.729845025,94.971780525,50.0,97.0
269,94.97581278333334,95.20161925000001,57.0,100.0
270,95.21371602500001,95.28831280416667,50.0,102.0
271,94.487909525,95.29637732083334,45.0,95.0
272,94.004038525,95.33266764583334,38.0,96.0
273,94.971780525,95.39113539166667,62.0,127.0
274,94.971780525,95.43952249166666,66.0,127.0
275,95.45565152500001,95.74799025416667,57.0,127.0
276,95.697587025,95.939522525,38.0,97.0
277,95.697587025,95.939522525,62.0,97.0
278,95.939522525,96.48589352916667,62.0,96.0
279,95.939522525,96.50000643333334,55.0,97.0
280,95.939522525,96.52218385416667,59.0,100.0
281,96.42339352500001,97.1068613125,50.0,53.0
282,96.907264525,97.37097423333334,59.0,107.0
283,96.907264525,97.38508713750001,55.0,85.0
284,96.907264525,97.38508713750001,62.0,100.0
285,95.939522525,97.43952262500001,43.0,81.0
286,97.39113552500001,97.47178069166667,50.0,76.0
287,97.633071025,97.875006525,43.0,97.0
288,97.875006525,98.35887752500001,38.0,93.0
289,97.875006525,98.37500655833334,62.0,112.0
290,97.875006525,98.37903881666666,66.0,102.0
291,97.875006525,98.39920010833333,57.0,99.0
292,98.842748525,98.91734530416667,50.0,28.0
293,98.842748525,99.31452275000001,62.0,117.0
294,98.842748525,99.34274855833334,66.0,127.0
295,98.35887752500001,99.3871034,45.0,62.0
296,99.326619525,99.46371630833333,50.0,75.0
297,98.842748525,99.47178082500001,57.0,102.0
298,98.35887752500001,99.810490525,38.0,97.0
299,99.810490525,100.34476475416668,64.0,95.0
300,99.810490525,100.36290991666667,57.0,100.0
301,99.810490525,100.36492604583334,60.0,95.0
302,100.294361525,100.91331317916668,52.0,68.0
303,100.778232525,101.26411965416668,64.0,102.0
304,99.810490525,101.31250675416668,45.0,83.0
305,101.262103525,101.35081320833334,52.0,51.0
306,100.778232525,101.38710353333335,60.0,107.0
307,100.778232525,101.39113579166667,57.0,100.0
308,101.50403902500001,101.74597452500001,45.0,97.0
309,101.74597452500001,102.00403905833333,62.0,122.0
310,101.74597452500001,102.00807131666667,66.0,117.0
311,101.74597452500001,102.03831325416667,57.0,99.0
312,101.74597452500001,102.229845525,38.0,83.0
313,102.229845525,102.85081330833334,45.0,47.0
314,102.229845525,102.955652025,38.0,97.0
315,102.955652025,103.06049074166667,45.0,79.0
316,102.955652025,103.197587525,38.0,80.0
317,102.71371652500001,103.20565204166667,54.0,127.0
318,102.71371652500001,103.20766817083334,57.0,107.0
319,103.197587525,103.2399262375,50.0,96.0
320,103.68145852500001,104.27016824166667,64.0,99.0
321,103.68145852500001,104.3044424375,55.0,112.0
322,103.68145852500001,104.34073276250001,60.0,102.0
323,103.68145852500001,104.85282957083334,48.0,102.0
324,104.64920052500001,104.9092811875,55.0,117.0
325,104.64920052500001,104.93145860833334,60.0,112.0
326,104.64920052500001,104.96573280416668,64.0,112.0
327,105.375007025,105.616942525,48.0,97.0
328,105.616942525,106.12903933333334,62.0,112.0
329,105.616942525,106.13508772083334,66.0,127.0
330,105.616942525,106.14113610833334,69.0,100.0
331,105.616942525,106.6028296875,57.0,93.0
332,106.584684525,106.87903938333334,62.0,107.0
333,106.100813525,106.9052490625,54.0,38.0
334,105.616942525,106.92541035416667,50.0,85.0
335,106.82662002500001,106.947587775,57.0,76.0
336,106.584684525,107.07662004166667,66.0,127.0
337,106.584684525,107.11291036666667,69.0,122.0
338,107.06855552500001,107.14920069166668,62.0,127.0
339,107.310491025,107.552426525,50.0,97.0
340,107.552426525,108.08670075416667,55.0,117.0
341,107.552426525,108.09073301250001,59.0,127.0
342,107.552426525,108.108878175,62.0,117.0
343,108.03629752500001,108.66734595416668,50.0,47.0
344,108.520168525,108.97178145833334,59.0,127.0
345,107.552426525,109.00403952500001,43.0,76.0
346,108.520168525,109.01210404166667,62.0,107.0
347,108.520168525,109.03831372083334,55.0,100.0
348,109.00403952500001,109.245975025,43.0,97.0
349,109.245975025,109.487910525,43.0,97.0
350,109.487910525,109.61694279166667,55.0,85.0
351,109.487910525,109.6270234375,59.0,88.0
352,109.487910525,109.64113634166667,67.0,82.0
353,109.487910525,109.6451686,62.0,86.0
354,109.00403952500001,109.78226538333334,50.0,97.0
355,109.729846025,109.96170087916667,59.0,112.0
356,109.729846025,109.97178152500001,55.0,100.0
357,109.729846025,109.995975075,67.0,97.0
358,109.729846025,110.16532992500001,62.0,102.0
359,109.97178152500001,110.6068622125,50.0,95.0
360,110.455652525,110.80847512916667,55.0,107.0
361,110.697588025,110.842749325,50.0,86.0
362,110.455652525,110.98387836666667,67.0,97.0
363,110.455652525,110.98589449583334,59.0,127.0
364,110.455652525,111.06452353333334,62.0,102.0
365,110.939523525,111.28831387083333,55.0,112.0
366,111.423394525,112.20766877083334,64.0,99.0
367,111.423394525,112.21170102916668,55.0,127.0
368,111.423394525,112.21774941666668,60.0,112.0
369,111.423394525,112.69758815833333,48.0,112.0
370,112.39113652500001,112.89718494583335,64.0,112.0
371,112.39113652500001,112.90524946250001,55.0,102.0
372,112.39113652500001,113.0383139875,60.0,127.0
373,113.11694302500001,113.35887852500001,48.0,97.0
374,113.35887852500001,113.91129791666667,62.0,112.0
375,113.35887852500001,113.92339469166667,66.0,117.0
376,113.35887852500001,113.9455721125,57.0,102.0
377,113.842749525,114.43549150000001,45.0,66.0
378,113.35887852500001,114.80041087916668,38.0,78.0
379,114.32662052500001,114.82863668750001,50.0,83.0
380,114.32662052500001,114.858878625,57.0,102.0
381,114.810491525,114.9012173375,45.0,56.0
382,114.32662052500001,114.907265725,62.0,127.0
383,114.32662052500001,114.93145927500001,66.0,117.0
384,115.29436252500001,115.79234642916667,62.0,112.0
385,115.29436252500001,115.86492707916668,66.0,112.0
386,115.29436252500001,115.89113675833335,59.0,95.0
387,115.778233525,116.36895937083334,54.0,63.0
388,116.26613678333334,116.54839486666667,59.0,122.0
389,115.29436252500001,116.5705722875,47.0,88.0
390,116.50404002500001,116.58670132083334,54.0,107.0
391,116.26210452500001,116.77218520416668,66.0,127.0
392,116.26210452500001,116.81452391666667,62.0,122.0
393,116.987911025,117.20363684583334,62.0,95.0
394,116.987911025,117.229846525,47.0,97.0
395,117.229846525,117.35484653333334,67.0,99.0
396,117.229846525,117.36291105000001,64.0,95.0
397,116.745975525,117.36895943750001,59.0,96.0
398,117.47178202500001,117.87904011666667,55.0,117.0
399,117.229846525,117.955653025,40.0,86.0
400,117.47178202500001,118.08468529166667,52.0,99.0
401,117.955653025,118.16533045833334,54.0,127.0
402,117.955653025,118.197588525,40.0,97.0
403,118.197588525,118.60484661666668,55.0,117.0
404,117.47178202500001,118.65524984583334,47.0,93.0
405,118.197588525,118.68145952500001,52.0,99.0
406,118.43952402500001,118.68145952500001,52.0,96.0
407,118.68145952500001,119.09073374583333,57.0,112.0
408,118.923395025,119.165330525,40.0,97.0
409,119.165330525,119.75202411250001,64.0,97.0
410,119.165330525,119.79436282500001,55.0,107.0
411,119.165330525,120.00202412916667,60.0,102.0
412,119.165330525,120.3387177,48.0,97.0
413,120.133072525,120.5504112625,60.0,117.0
414,120.133072525,120.65323385,64.0,97.0
415,120.133072525,120.73589514583334,55.0,112.0
416,120.85887902500001,121.100814525,48.0,97.0
417,121.100814525,121.58468552500001,45.0,74.0
418,121.100814525,121.62500810833333,67.0,96.0
419,121.100814525,121.67742746666667,64.0,99.0
420,121.100814525,121.71976617916667,57.0,107.0
421,121.100814525,121.88105651250001,61.0,127.0
422,121.58468552500001,122.310492025,45.0,97.0
423,121.100814525,122.33065331666667,52.0,75.0
424,122.068556525,122.56049204166668,64.0,102.0
425,122.068556525,122.59275010833333,67.0,100.0
426,122.068556525,122.6129114,61.0,127.0
427,122.552427525,122.64315333750001,52.0,72.0
428,122.068556525,122.64920172500001,57.0,102.0
429,122.79436302500001,123.036298525,45.0,97.0
430,123.036298525,123.520169525,50.0,112.0
431,123.036298525,123.77823405833334,57.0,112.0
432,123.036298525,123.7802501875,62.0,122.0
433,123.036298525,123.78226631666668,66.0,127.0
434,123.76210502500001,124.00404052500001,50.0,97.0
435,124.00404052500001,124.26008892916667,57.0,112.0
436,124.245976025,124.34678248333334,50.0,102.0
437,124.00404052500001,124.4939599125,66.0,127.0
438,124.00404052500001,124.52016959166667,62.0,127.0
439,124.487911525,124.62299217916667,57.0,117.0
440,124.72984702500001,124.97178252500001,50.0,97.0
441,124.97178252500001,125.213718025,55.0,127.0
442,124.97178252500001,125.213718025,60.0,117.0
443,124.97178252500001,125.213718025,64.0,107.0
444,124.97178252500001,125.455653525,48.0,127.0
445,125.213718025,125.455653525,55.0,127.0
446,125.213718025,125.455653525,60.0,117.0
447,125.697589025,125.93952452500001,48.0,97.0
448,125.93952452500001,126.45766972083334,50.0,117.0
449,126.423395525,126.45766972083334,50.0,97.0
450,125.93952452500001,126.471782625,66.0,127.0
451,125.93952452500001,126.4838794,62.0,127.0
452,125.93952452500001,126.58468585833334,57.0,107.0
453,126.90726652500001,127.48992785416667,62.0,99.0
454,126.90726652500001,127.52016979166667,59.0,100.0
455,126.90726652500001,127.52621817916668,55.0,102.0
456,127.391137525,128.05242789166667,50.0,54.0
457,126.90726652500001,128.3286375875,43.0,97.0
458,127.87500852500001,128.33266984583335,62.0,100.0
459,127.87500852500001,128.35081500833334,59.0,122.0
460,127.87500852500001,128.38912146250001,55.0,102.0
461,128.35887952500002,128.4617021125,50.0,79.0
462,128.600815025,128.842750525,43.0,97.0
463,128.842750525,129.326621525,38.0,86.0
464,128.842750525,129.41533120833333,62.0,107.0
465,128.842750525,129.4294441125,57.0,107.0
466,128.842750525,129.4294441125,66.0,122.0
467,129.326621525,130.052428025,38.0,97.0
468,129.326621525,130.34073449583335,45.0,51.0
469,129.810492525,130.34678288333333,66.0,127.0
470,129.810492525,130.3608957875,62.0,127.0
471,129.810492525,130.58468612500002,57.0,112.0
472,130.294363525,130.7117022625,50.0,82.0
473,130.536299025,130.77823452500002,38.0,97.0
474,130.77823452500002,131.36089585416667,64.0,100.0
475,130.77823452500002,131.39517005000002,57.0,107.0
476,130.77823452500002,131.49396037916668,60.0,107.0
477,131.262105525,131.77420233333333,52.0,61.0
478,130.77823452500002,132.07662170833333,45.0,75.0
479,131.987912025,132.10484751666667,52.0,90.0
480,132.229847525,132.24396042916666,59.0,89.0
481,131.745976525,132.2721862375,60.0,122.0
482,131.745976525,132.3689604375,64.0,107.0
483,132.471783025,132.63307335833335,60.0,97.0
484,132.471783025,132.71371852500002,38.0,97.0
485,132.71371852500002,133.197589525,38.0,77.0
486,132.229847525,133.26008952916666,57.0,99.0
487,132.71371852500002,133.31654114583333,62.0,100.0
488,132.71371852500002,133.3246056625,66.0,107.0
489,133.197589525,133.78226698333333,50.0,102.0
490,133.197589525,133.92339602500002,38.0,97.0
491,132.955654025,134.044363775,45.0,81.0
492,133.681460525,134.15121862083333,66.0,122.0
493,133.92339602500002,134.165331525,38.0,97.0
494,133.92339602500002,134.16936378333335,50.0,71.0
495,133.681460525,134.21170249583335,62.0,102.0
496,134.165331525,134.56250897083333,57.0,102.0
497,134.649202525,135.17742836666667,67.0,92.0
498,134.649202525,135.41936386666669,64.0,100.0
499,134.649202525,135.43347677083335,60.0,127.0
500,134.649202525,136.00000906666668,48.0,97.0
501,135.616944525,136.13912197916667,67.0,95.0
502,135.616944525,136.15726714166667,64.0,122.0
503,135.616944525,136.40928328750002,60.0,127.0
504,136.342751025,136.584686525,48.0,97.0
505,136.584686525,137.36089625416668,57.0,99.0
506,136.584686525,137.37500915833334,66.0,112.0
507,136.584686525,137.38508980416668,62.0,102.0
508,136.584686525,137.73992853750002,50.0,92.0
509,137.5645253,137.86291241666666,57.0,117.0
510,137.552428525,138.02017049166668,66.0,127.0
511,137.552428525,138.04638017083334,62.0,117.0
512,138.036299525,138.35888019166669,57.0,107.0
513,138.27823502500001,138.520170525,50.0,97.0
514,138.520170525,139.11089637083333,59.0,99.0
515,138.520170525,139.13710605,55.0,117.0
516,138.520170525,139.32258993333335,62.0,97.0
517,139.00404152500002,139.6754125375,50.0,56.0
518,139.487912525,140.0383157875,59.0,127.0
519,139.487912525,140.04033191666667,55.0,100.0
520,139.487912525,140.06049320833333,62.0,102.0
521,138.520170525,140.21371902500002,43.0,82.0
522,140.21371902500002,140.33670290416669,65.0,95.0
523,140.21371902500002,140.34678355,59.0,102.0
524,140.21371902500002,140.34879967916666,62.0,97.0
525,140.21371902500002,140.35484806666668,55.0,107.0
526,139.971783525,140.431460975,50.0,41.0
527,140.21371902500002,140.455654525,43.0,97.0
528,140.455654525,140.939525525,43.0,89.0
529,140.455654525,141.04638037083333,65.0,95.0
530,140.455654525,141.0544448875,55.0,93.0
531,140.455654525,141.0544448875,59.0,95.0
532,140.455654525,141.07662230833333,62.0,96.0
533,140.939525525,141.181461025,43.0,97.0
534,141.181461025,141.42339652500002,55.0,97.0
535,141.42339652500002,141.71573525416667,65.0,100.0
536,141.42339652500002,141.7197675125,59.0,112.0
537,141.42339652500002,141.72984815833334,55.0,102.0
538,141.42339652500002,141.75202557916668,62.0,117.0
539,141.665332025,141.82460622916668,50.0,89.0
540,141.42339652500002,142.14920302500002,43.0,97.0
541,141.9193643,142.22581593333334,55.0,102.0
542,141.907267525,142.24194496666667,65.0,81.0
543,141.907267525,142.27218690416666,62.0,95.0
544,141.907267525,142.32057400416667,59.0,100.0
545,142.14920302500002,142.391138525,43.0,97.0
546,142.391138525,143.14517083333334,55.0,102.0
547,142.391138525,143.15726760833334,64.0,100.0
548,142.391138525,143.1774289,60.0,107.0
549,142.391138525,143.52621924583335,48.0,93.0
550,143.35888052500002,143.82057410416667,64.0,112.0
551,143.35888052500002,143.83267087916667,60.0,107.0
552,143.35888052500002,144.01815476250002,55.0,102.0
553,144.084687025,144.326622525,48.0,97.0
554,144.326622525,144.810493525,38.0,85.0
555,144.326622525,144.907267725,62.0,112.0
556,144.326622525,144.907267725,66.0,122.0
557,144.326622525,144.95162256666669,57.0,112.0
558,144.810493525,145.41734840416666,45.0,38.0
559,145.29436452500002,145.73791294166668,62.0,117.0
560,145.29436452500002,145.76815487916667,50.0,82.0
561,144.810493525,145.778235525,38.0,97.0
562,145.778235525,145.94154198750002,45.0,59.0
563,145.29436452500002,146.02420328333335,57.0,112.0
564,145.29436452500002,146.14718716250002,66.0,127.0
565,146.020171025,146.262106525,38.0,97.0
566,146.262106525,146.92742915,59.0,113.0
567,146.262106525,146.94759044166668,66.0,120.0
568,146.262106525,146.97984850833333,62.0,113.0
569,146.262106525,147.32259046666667,47.0,115.0
570,146.26613878333333,147.326622725,35.0,115.0
571,147.471784025,147.568558225,47.0,97.0
572,147.229848525,147.63307435833335,59.0,100.0
573,147.229848525,147.71573565416668,62.0,112.0
574,147.229848525,147.79839695,66.0,127.0
575,147.955655025,148.14718729583333,62.0,99.0
576,147.955655025,148.197590525,47.0,97.0
577,147.71371952500002,148.48589699583334,59.0,117.0
578,148.197590525,148.681461525,40.0,105.0
579,148.43952602500002,148.681461525,67.0,117.0
580,148.43952602500002,148.705655075,64.0,107.0
581,148.923397025,149.28428414583334,52.0,96.0
582,149.165332525,149.407268025,67.0,117.0
583,149.165332525,149.43146157500001,64.0,107.0
584,148.681461525,149.64920352500002,40.0,97.0
585,149.407268025,149.697590625,52.0,76.0
586,149.64920352500002,150.03226806666666,59.0,127.0
587,149.891139025,150.133074525,40.0,97.0
588,150.133074525,150.89113909166667,55.0,107.0
589,150.133074525,150.90928425416666,64.0,100.0
590,150.133074525,150.92339715833333,60.0,112.0
591,151.100816525,151.51009074583334,60.0,112.0
592,150.133074525,151.826623025,48.0,99.0
593,151.100816525,151.87501012500002,55.0,93.0
594,151.100816525,151.89718754583333,64.0,99.0
595,151.826623025,152.06855852500001,48.0,97.0
596,152.06855852500001,152.552429525,45.0,110.0
597,152.06855852500001,152.78630050833334,64.0,92.0
598,152.06855852500001,152.7883166375,57.0,99.0
599,152.06855852500001,152.842752125,61.0,127.0
600,153.036300525,153.34678441666668,57.0,97.0
601,152.552429525,153.520171525,45.0,97.0
602,153.036300525,153.55041346250002,64.0,97.0
603,153.036300525,153.665332825,61.0,127.0
604,153.520171525,153.82057477083333,57.0,85.0
605,153.762107025,154.00404252500002,45.0,97.0
606,154.00404252500002,154.11492962916668,66.0,112.0
607,154.00404252500002,154.12097801666667,62.0,122.0
608,154.00404252500002,154.16533285833333,57.0,97.0
609,154.00404252500002,154.487913525,38.0,89.0
610,154.72984902500002,155.0262200125,54.0,117.0
611,154.487913525,155.09073614583335,50.0,92.0
612,154.72984902500002,155.10484905,57.0,100.0
613,154.72984902500002,155.21372002500001,38.0,97.0
614,154.245978025,155.3709781,45.0,88.0
615,155.455655525,155.5342845625,54.0,117.0
616,155.455655525,155.697591025,38.0,97.0
617,155.455655525,155.697591025,57.0,97.0
618,155.21372002500001,155.794365225,50.0,99.0
619,155.93952652500002,156.37702655416666,55.0,122.0
620,155.93952652500002,156.592752375,62.0,122.0
621,155.93952652500002,156.63710721666666,59.0,122.0
622,156.423397525,156.89920400833333,50.0,90.0
623,156.665333025,157.44154275416668,57.0,112.0
624,155.93952652500002,157.52622017916667,43.0,102.0
625,157.14920402500002,158.05847827916668,50.0,69.0
626,158.116946025,158.95363962916667,50.0,44.0
627,157.87501052500002,159.14113964166668,43.0,66.0
628,157.391139525,159.28025255416668,59.0,100.0
629,158.600817025,159.28025255416668,59.0,76.0
630,158.35888152500002,159.3084783625,57.0,88.0
631,159.810494525,160.1149300291667,57.0,75.0
632,159.810494525,160.37702682083335,62.0,86.0
633,160.29436552500002,160.37702682083335,62.0,88.0
634,159.810494525,160.41936553333335,66.0,89.0
635,160.536301025,161.22178494166667,69.0,85.0
636,159.810494525,161.4254139875,50.0,60.0
637,161.745978525,162.3387205,64.0,81.0
638,161.745978525,162.46170437916666,57.0,85.0
639,161.745978525,162.59073664583335,45.0,59.0
640,161.745978525,162.59476890416667,60.0,78.0
641,162.713720525,163.08468829166668,47.0,54.0
642,162.713720525,163.2600915291667,62.0,92.0
643,162.713720525,163.27622056250001,66.0,97.0
644,162.713720525,163.57259155,59.0,77.0
645,163.681462525,164.04436577500002,67.0,93.0
646,163.681462525,164.0625109375,64.0,96.0
647,163.681462525,164.10888190833333,59.0,82.0
648,164.407269025,164.70767227083334,52.0,66.0
649,164.165333525,164.78226905,47.0,63.0
650,164.891140025,165.02017229166668,47.0,89.0
651,163.681462525,165.0302529375,40.0,66.0
652,164.64920452500002,165.05041422916668,54.0,127.0
653,165.133075525,165.18952714166667,55.0,107.0
654,165.616946525,166.19355946666667,64.0,93.0
655,165.616946525,166.26009172916667,60.0,112.0
656,165.616946525,166.34073689583334,55.0,122.0
657,166.100817525,166.72581756666668,43.0,35.0
658,165.616946525,166.91130145,36.0,77.0
659,166.58468852500002,166.9677530666667,64.0,93.0
660,166.58468852500002,167.24194663333333,55.0,92.0
661,166.58468852500002,167.41533374166667,60.0,100.0
662,167.552430525,168.16936605,57.0,97.0
663,167.552430525,168.2238015375,66.0,107.0
664,167.552430525,168.2358983125,62.0,100.0
665,167.552430525,168.53630155833335,38.0,76.0
666,168.036301525,168.568559625,45.0,34.0
667,168.54839833333335,168.870979,57.0,100.0
668,168.52017252500002,169.03630159166667,66.0,117.0
669,168.52017252500002,169.052430625,62.0,100.0
670,169.00404352500001,169.463720975,57.0,79.0
671,169.487914525,170.20565650833333,62.0,89.0
672,169.487914525,170.42944684583335,59.0,83.0
673,170.213721025,170.59880169583334,55.0,66.0
674,170.697592025,170.8608984875,55.0,71.0
675,170.455656525,171.03831785416668,57.0,96.0
676,169.487914525,171.18347915416666,43.0,73.0
677,171.423398525,173.37476500833336,43.0,73.0
678,173.33645855416668,173.37476500833336,43.0,79.0
679,171.423398525,173.41911985000002,55.0,95.0
680,173.33645855416668,173.41911985000002,55.0,95.0
681,170.93952752500002,173.41911985000002,59.0,92.0
682,173.33645855416668,173.41911985000002,59.0,95.0
683,171.181463025,173.43928114166667,62.0,69.0
684,173.33645855416668,173.43928114166667,62.0,89.0
685,169.971785525,173.48565211250002,50.0,53.0
686,173.82032955416668,174.41710378750003,50.0,58.0
687,174.30420055416667,174.78202316666668,59.0,99.0
688,174.30420055416667,174.78605542500003,62.0,99.0
689,174.7880715541667,175.23161997083335,55.0,73.0
690,175.03000705416667,175.27194255416669,43.0,97.0
691,175.27194255416669,175.97153937500002,62.0,88.0
692,175.27194255416669,176.43323295416667,59.0,88.0
693,175.75581355416668,176.46952327916668,54.0,51.0
694,175.27194255416669,176.72557168333336,42.0,83.0
695,176.23968455416667,177.23565236250002,66.0,100.0
696,176.7235555541667,177.24371687916667,59.0,83.0
697,176.23968455416667,177.24371687916667,62.0,67.0
698,177.2074265541667,178.06629757916667,40.0,72.0
699,177.69129755416668,178.2820234,47.0,53.0
700,178.6590395541667,178.90097505416668,40.0,97.0
701,178.17516855416667,179.12879765000002,55.0,88.0
702,178.6590395541667,179.13686216666667,52.0,66.0
703,178.17516855416667,179.14694281250001,59.0,83.0
704,179.62678155416668,180.2437170791667,57.0,83.0
705,180.11065255416668,180.39694289583335,66.0,117.0
706,179.1429105541667,180.53605580833334,50.0,88.0
707,180.3525880541667,180.6590396875,64.0,96.0
708,180.59452355416667,180.87476550833335,62.0,96.0
709,180.83645905416668,181.0783945541667,50.0,97.0
710,180.83645905416668,181.14895907500002,57.0,78.0
711,181.0783945541667,181.71952362916667,60.0,97.0
712,181.5622655541667,182.0501688125,55.0,60.0
713,181.0783945541667,182.21549140416667,48.0,63.0
714,182.04613655416668,182.5602494916667,64.0,92.0
715,182.04613655416668,182.56428175000002,60.0,89.0
716,182.53000755416667,182.77194305416668,43.0,97.0
717,182.53000755416667,183.10863662500003,55.0,81.0
718,183.0138785541667,183.59653988333335,62.0,83.0
719,183.0138785541667,183.78605602500002,59.0,85.0
720,183.4977495541667,184.08847540000002,50.0,38.0
721,183.0138785541667,184.11670120833335,43.0,65.0
722,183.98162055416668,184.366701225,62.0,99.0
723,184.46549155416668,184.7074270541667,43.0,97.0
724,184.46549155416668,184.72153995833335,55.0,73.0
725,183.98162055416668,184.8082335125,59.0,99.0
726,184.94936255416667,185.36468516250002,60.0,88.0
727,184.94936255416667,185.39492710000002,64.0,78.0
728,184.94936255416667,185.4977496875,57.0,69.0
729,184.94936255416667,185.9533948791667,45.0,67.0
730,185.4332335541667,185.95742713750002,52.0,39.0
731,185.91710455416668,186.35863684166668,64.0,93.0
732,185.9292013291667,186.37073361666668,56.0,93.0
733,185.91710455416668,186.57234653333336,60.0,100.0
734,186.40097555416668,186.6429110541667,45.0,97.0
735,186.40097555416668,186.74573364166667,57.0,71.0
736,186.88484655416667,187.4231530416667,57.0,93.0
737,186.88484655416667,187.4533949791667,62.0,97.0
738,186.88484655416667,187.69129822083335,66.0,96.0
739,187.8525885541667,188.14089502500002,62.0,117.0
740,186.88484655416667,188.30218535833336,50.0,55.0
741,188.0945240541667,188.3283950375,60.0,102.0
742,188.33645955416668,188.5783950541667,50.0,97.0
743,188.33645955416668,188.8808144291667,57.0,100.0
744,188.82033055416667,189.41508865833336,59.0,79.0
745,188.82033055416667,189.63081447916667,62.0,85.0
746,189.3042015541667,189.92516933750002,50.0,56.0
747,188.82033055416667,189.94734675833334,43.0,76.0
748,189.7880725541667,190.31025000833336,59.0,112.0
749,189.7880725541667,190.32436291250002,62.0,96.0
750,190.27194355416668,190.7074274541667,55.0,66.0
751,190.75581455416668,191.1106532875,52.0,90.0
752,190.75581455416668,191.13887909583335,55.0,77.0
753,190.75581455416668,191.15500812916667,59.0,76.0
754,190.75581455416668,192.0723469,40.0,75.0
755,191.23968555416667,192.1025888375,47.0,49.0
756,191.96549205416667,192.17315335833337,52.0,64.0
757,191.7235565541667,192.20339529583336,67.0,95.0
758,191.7235565541667,192.2235565875,64.0,95.0
759,192.20742755416669,192.4493630541667,40.0,97.0
760,192.20742755416669,192.70944371666667,59.0,95.0
761,192.69129855416668,193.26387923750002,64.0,86.0
762,192.69129855416668,193.3021856916667,60.0,89.0
763,193.17516955416667,193.54613732083334,55.0,55.0
764,192.69129855416668,193.72557281666667,48.0,74.0
765,193.6590405541667,194.10460510000001,64.0,92.0
766,193.6590405541667,194.33645995416668,60.0,97.0
767,194.62678255416668,195.19129872083334,62.0,89.0
768,194.62678255416668,195.42718583333334,57.0,88.0
769,194.62678255416668,195.4312180916667,66.0,92.0
770,194.62678255416668,195.7638794041667,50.0,56.0
771,195.5945245541667,195.88283102500003,62.0,112.0
772,195.83646005416668,196.0582342625,60.0,97.0
773,196.0783955541667,196.16105685000002,57.0,93.0
774,196.0783955541667,196.32033105416667,50.0,97.0
775,196.56226655416668,197.09049239583334,59.0,89.0
776,196.56226655416668,197.10258917083334,55.0,88.0
777,196.56226655416668,197.13887949583335,52.0,82.0
778,197.04613755416668,197.59855694583337,47.0,51.0
779,196.56226655416668,197.60863759166668,40.0,59.0
780,197.53000855416667,197.72960534166668,55.0,96.0
781,197.53000855416667,197.73766985833336,52.0,95.0
782,197.53000855416667,197.7759763125,59.0,95.0
783,198.25581505416667,198.49775055416669,40.0,97.0
784,198.49775055416669,199.13081511250002,59.0,90.0
785,198.49775055416669,199.13081511250002,62.0,95.0
786,198.49775055416669,199.14089575833336,66.0,92.0
787,198.98162155416668,199.6025893375,54.0,69.0
788,198.49775055416669,199.7114603125,47.0,70.0
789,199.46549255416667,199.9292022625,66.0,117.0
790,199.46549255416667,199.93525065000003,62.0,96.0
791,199.47758932916668,199.94734742500003,59.0,96.0
792,199.9493635541667,200.19129905416668,47.0,97.0
793,199.9493635541667,200.36670229166668,59.0,93.0
794,200.4332345541667,200.890895875,64.0,93.0
795,200.4332345541667,200.9755733,60.0,99.0
796,200.91710555416668,200.9755733,60.0,24.0
797,200.4332345541667,201.49976688333334,48.0,69.0
798,201.40097655416668,201.83646045416668,64.0,100.0
799,201.40097655416668,201.86267013333335,60.0,117.0
800,201.8848475541667,202.12678305416668,48.0,97.0
801,202.12678305416668,202.3687185541667,36.0,97.0
802,202.3687185541667,202.88081536250002,62.0,107.0
803,202.3687185541667,202.8888798791667,66.0,117.0
804,202.3687185541667,202.90702504166669,57.0,100.0
805,203.0945250541667,203.33646055416668,50.0,97.0
806,203.5783960541667,203.65299283333334,50.0,102.0
807,202.85258955416668,203.66105735000002,45.0,95.0
808,202.3687185541667,203.697347675,38.0,96.0
809,203.33646055416668,203.75581542083336,62.0,127.0
810,203.34049281250003,203.75984767916668,57.0,127.0
811,203.33646055416668,203.80420252083334,66.0,127.0
812,203.82033155416667,204.11267028333336,57.0,127.0
813,204.06226705416668,204.3042025541667,38.0,97.0
814,204.06226705416668,204.3042025541667,62.0,97.0
815,204.3042025541667,204.85057355833334,62.0,96.0
816,204.3042025541667,204.8646864625,55.0,97.0
817,204.3042025541667,204.88686388333335,59.0,100.0
818,204.7880735541667,205.4715413416667,50.0,53.0
819,205.27194455416668,205.73565426250002,59.0,107.0
820,205.27194455416668,205.7497671666667,55.0,85.0
821,205.27194455416668,205.7497671666667,62.0,100.0
822,204.3042025541667,205.8042026541667,43.0,81.0
823,205.7558155541667,205.83646072083334,50.0,76.0
824,205.99775105416668,206.23968655416667,43.0,97.0
825,206.23968655416667,206.7235575541667,38.0,93.0
826,206.23968655416667,206.73968658750002,62.0,112.0
827,206.23968655416667,206.74371884583334,66.0,102.0
828,206.23968655416667,206.76388013750002,57.0,99.0
829,207.20742855416668,207.28202533333337,50.0,28.0
830,207.20742855416668,207.6792027791667,62.0,117.0
831,207.20742855416668,207.70742858750003,66.0,127.0
832,206.7235575541667,207.7517834291667,45.0,62.0
833,207.69129955416668,207.8283963375,50.0,75.0
834,207.20742855416668,207.8364608541667,57.0,102.0
835,206.7235575541667,208.1751705541667,38.0,97.0
836,208.1751705541667,208.70944478333337,64.0,95.0
837,208.1751705541667,208.72758994583336,57.0,100.0
838,208.1751705541667,208.72960607500002,60.0,95.0
839,208.6590415541667,209.27799320833336,52.0,68.0
840,209.14291255416668,209.62879968333334,64.0,102.0
841,208.1751705541667,209.67718678333335,45.0,83.0
842,209.62678355416668,209.71549323750003,52.0,51.0
843,209.14291255416668,209.7517835625,60.0,107.0
844,209.14291255416668,209.75581582083333,57.0,100.0
845,209.8687190541667,210.11065455416667,45.0,97.0
846,210.11065455416667,210.3687190875,62.0,122.0
847,210.11065455416667,210.37275134583336,66.0,117.0
848,210.11065455416667,210.40299328333336,57.0,99.0
849,210.11065455416667,210.5945255541667,38.0,83.0
850,210.5945255541667,211.21549333750002,45.0,47.0
851,210.5945255541667,211.32033205416667,38.0,97.0
852,211.32033205416667,211.42517077083335,45.0,79.0
853,211.32033205416667,211.56226755416668,38.0,80.0
854,211.0783965541667,211.57033207083336,54.0,127.0
855,211.0783965541667,211.57234820000002,57.0,107.0
856,211.56226755416668,211.60460626666668,50.0,96.0
857,212.04613855416667,212.63484827083334,64.0,99.0
858,212.04613855416667,212.6691224666667,55.0,112.0
859,212.04613855416667,212.70541279166667,60.0,102.0
860,212.04613855416667,213.21750960000003,48.0,102.0
861,213.0138805541667,213.2739612166667,55.0,117.0
862,213.0138805541667,213.2961386375,60.0,112.0
863,213.0138805541667,213.33041283333336,64.0,112.0
864,213.7396870541667,213.98162255416668,48.0,97.0
865,213.98162255416668,214.49371936250003,62.0,112.0
866,213.98162255416668,214.49976775000002,66.0,127.0
867,213.98162255416668,214.5058161375,69.0,100.0
868,213.98162255416668,214.96750971666668,57.0,93.0
869,214.9493645541667,215.2437194125,62.0,107.0
870,214.4654935541667,215.26992909166668,54.0,38.0
871,213.98162255416668,215.29009038333334,50.0,85.0
872,215.19130005416667,215.31226780416668,57.0,76.0
873,214.9493645541667,215.44130007083334,66.0,127.0
874,214.9493645541667,215.47759039583335,69.0,122.0
875,215.43323555416669,215.51388072083336,62.0,127.0
876,215.6751710541667,215.91710655416668,50.0,97.0
877,215.91710655416668,216.45138078333335,55.0,117.0
878,215.91710655416668,216.4554130416667,59.0,127.0
879,215.91710655416668,216.4735582041667,62.0,117.0
880,216.40097755416667,217.03202598333334,50.0,47.0
881,216.8848485541667,217.3364614875,59.0,127.0
882,215.91710655416668,217.3687195541667,43.0,76.0
883,216.8848485541667,217.37678407083337,62.0,107.0
884,216.8848485541667,217.40299375,55.0,100.0
885,217.3687195541667,217.61065505416667,43.0,97.0
886,217.61065505416667,217.85259055416668,43.0,97.0
887,217.85259055416668,217.98162282083337,55.0,85.0
888,217.85259055416668,217.99170346666668,59.0,88.0
889,217.85259055416668,218.00581637083334,67.0,82.0
890,217.85259055416668,218.0098486291667,62.0,86.0
891,217.3687195541667,218.14694541250003,50.0,97.0
892,218.0945260541667,218.32638090833336,59.0,112.0
893,218.0945260541667,218.33646155416668,55.0,100.0
894,218.0945260541667,218.36065510416668,67.0,97.0
895,218.0945260541667,218.5300099541667,62.0,102.0
896,218.33646155416668,218.97154224166667,50.0,95.0
897,218.82033255416667,219.17315515833334,55.0,107.0
898,219.06226805416668,219.2074293541667,50.0,86.0
899,218.82033255416667,219.34855839583335,67.0,97.0
900,218.82033255416667,219.350574525,59.0,127.0
901,218.82033255416667,219.42920356250002,62.0,102.0
902,219.3042035541667,219.6529939,55.0,112.0
903,219.78807455416668,220.57234880000001,64.0,99.0
904,219.78807455416668,220.57638105833337,55.0,127.0
905,219.78807455416668,220.58242944583336,60.0,112.0
906,219.78807455416668,221.06226818750002,48.0,112.0
907,220.7558165541667,221.261864975,64.0,112.0
908,220.7558165541667,221.2699294916667,55.0,102.0
909,220.7558165541667,221.4029940166667,60.0,127.0
910,221.48162305416668,221.7235585541667,48.0,97.0
911,221.7235585541667,222.27597794583335,62.0,112.0
912,221.7235585541667,222.28807472083335,66.0,117.0
913,221.7235585541667,222.3102521416667,57.0,102.0
914,222.20742955416668,222.80017152916668,45.0,66.0
915,221.7235585541667,223.16509090833335,38.0,78.0
916,222.69130055416667,223.1933167166667,50.0,83.0
917,222.69130055416667,223.22355865416668,57.0,102.0
918,223.1751715541667,223.26589736666668,45.0,56.0
919,222.69130055416667,223.2719457541667,62.0,127.0
920,222.69130055416667,223.29613930416667,66.0,117.0
921,223.6590425541667,224.15702645833335,62.0,112.0
922,223.6590425541667,224.22960710833337,66.0,112.0
923,223.6590425541667,224.2558167875,59.0,95.0
924,224.14291355416668,224.73363940000002,54.0,63.0
925,223.6590425541667,224.9352523166667,47.0,88.0
926,224.8687200541667,224.95138135000002,54.0,107.0
927,224.63081681250003,225.05823619583336,59.0,122.0
928,224.62678455416668,225.13686523333337,66.0,127.0
929,224.62678455416668,225.17920394583336,62.0,122.0
930,225.35259105416668,225.56831687500002,62.0,95.0
931,225.35259105416668,225.5945265541667,47.0,97.0
932,225.5945265541667,225.71952656250002,67.0,99.0
933,225.5945265541667,225.7275910791667,64.0,95.0
934,225.11065555416667,225.7336394666667,59.0,96.0
935,225.8364620541667,226.24372014583335,55.0,117.0
936,225.5945265541667,226.3203330541667,40.0,86.0
937,225.8364620541667,226.44936532083335,52.0,99.0
938,226.3203330541667,226.53001048750002,54.0,127.0
939,226.3203330541667,226.56226855416668,40.0,97.0
940,226.56226855416668,226.96952664583335,55.0,117.0
941,225.8364620541667,227.019929875,47.0,93.0
942,226.56226855416668,227.0461395541667,52.0,99.0
943,226.8042040541667,227.0461395541667,52.0,96.0
944,227.0461395541667,227.455413775,57.0,112.0
945,227.28807505416668,227.5300105541667,40.0,97.0
946,227.5300105541667,228.11670414166667,64.0,97.0
947,227.5300105541667,228.15904285416667,55.0,107.0
948,227.5300105541667,228.36670415833333,60.0,102.0
949,227.5300105541667,228.70339772916668,48.0,97.0
950,228.49775255416668,228.91509129166667,60.0,117.0
951,228.49775255416668,229.01791387916668,64.0,97.0
952,228.49775255416668,229.10057517500002,55.0,112.0
953,229.22355905416669,229.4654945541667,48.0,97.0
954,229.4654945541667,229.9493655541667,45.0,74.0
955,229.4654945541667,229.98968813750002,67.0,96.0
956,229.4654945541667,230.04210749583336,64.0,99.0
957,229.4654945541667,230.08444620833336,57.0,107.0
958,229.4654945541667,230.2457365416667,61.0,127.0
959,229.9493655541667,230.6751720541667,45.0,97.0
960,229.4654945541667,230.69533334583335,52.0,75.0
961,230.43323655416668,230.92517207083336,64.0,102.0
962,230.43323655416668,230.9574301375,67.0,100.0
963,230.43323655416668,230.9775914291667,61.0,127.0
964,230.91710755416668,231.0078333666667,52.0,72.0
965,230.43323655416668,231.01388175416668,57.0,102.0
966,231.1590430541667,231.40097855416667,45.0,97.0
967,231.40097855416667,231.8848495541667,50.0,112.0
968,231.40097855416667,232.1429140875,57.0,112.0
969,231.40097855416667,232.1449302166667,62.0,122.0
970,231.40097855416667,232.14694634583336,66.0,127.0
971,232.1267850541667,232.36872055416669,50.0,97.0
972,232.36872055416669,232.62476895833336,57.0,112.0
973,232.61065605416667,232.71146251250002,50.0,102.0
974,232.36872055416669,232.8586399416667,66.0,127.0
975,232.36872055416669,232.88484962083334,62.0,127.0
976,232.85259155416668,232.98767220833335,57.0,117.0
977,233.0945270541667,233.3364625541667,50.0,97.0
978,233.3364625541667,233.57839805416668,55.0,127.0
979,233.3364625541667,233.57839805416668,60.0,117.0
980,233.3364625541667,233.57839805416668,64.0,107.0
981,233.3364625541667,233.8203335541667,48.0,127.0
982,233.57839805416668,233.8203335541667,55.0,127.0
983,233.57839805416668,233.8203335541667,60.0,117.0
984,234.06226905416668,234.3042045541667,48.0,97.0
985,234.3042045541667,234.82234975000003,50.0,117.0
986,234.78807555416668,234.82234975000003,50.0,97.0
987,234.3042045541667,234.8364626541667,66.0,127.0
988,234.3042045541667,234.8485594291667,62.0,127.0
989,234.3042045541667,234.94936588750002,57.0,107.0
990,235.27194655416668,235.85460788333336,62.0,99.0
991,235.27194655416668,235.88484982083335,59.0,100.0
992,235.27194655416668,235.89089820833334,55.0,102.0
993,235.7558175541667,236.41710792083336,50.0,54.0
994,235.27194655416668,236.6933176166667,43.0,97.0
995,236.2396885541667,236.69734987500001,62.0,100.0
996,236.2396885541667,236.71549503750003,59.0,122.0
997,236.2396885541667,236.75380149166668,55.0,102.0
998,236.72355955416668,236.82638214166667,50.0,79.0
999,236.9654950541667,237.20743055416668,43.0,97.0
1000,237.20743055416668,237.69130155416667,38.0,86.0
1001,237.20743055416668,237.78001123750002,62.0,107.0
1002,237.20743055416668,237.79412414166669,57.0,107.0
1003,237.20743055416668,237.79412414166669,66.0,122.0
1004,237.69130155416667,238.4171080541667,38.0,97.0
1005,237.69130155416667,238.70541452500004,45.0,51.0
1006,238.1751725541667,238.71146291250002,66.0,127.0
1007,238.1751725541667,238.7255758166667,62.0,127.0
1008,238.1751725541667,238.94936615416668,57.0,112.0
1009,238.6590435541667,239.07638229166668,50.0,82.0
1010,238.90097905416667,239.14291455416668,38.0,97.0
1011,239.14291455416668,239.72557588333336,64.0,100.0
1012,239.14291455416668,239.75985007916668,57.0,107.0
1013,239.14291455416668,239.85864040833337,60.0,107.0
1014,239.6267855541667,240.1388823625,52.0,61.0
1015,239.14291455416668,240.4413017375,45.0,75.0
1016,240.35259205416668,240.46952754583336,52.0,90.0
1017,240.5945275541667,240.60864045833335,59.0,89.0
1018,240.11065655416667,240.6368662666667,60.0,122.0
1019,240.11065655416667,240.73364046666669,64.0,107.0
1020,240.8364630541667,240.99775338750004,60.0,97.0
1021,240.8364630541667,241.07839855416668,38.0,97.0
1022,241.07839855416668,241.56226955416668,38.0,77.0
1023,240.5945275541667,241.62476955833336,57.0,99.0
1024,241.07839855416668,241.68122117500002,62.0,100.0
1025,241.07839855416668,241.68928569166667,66.0,107.0
1026,241.56226955416668,242.14694701250002,50.0,102.0
1027,241.56226955416668,242.28807605416668,38.0,97.0
1028,241.32033405416666,242.40904380416669,45.0,81.0
1029,242.0461405541667,242.51589865000003,66.0,122.0
1030,242.28807605416668,242.5300115541667,38.0,97.0
1031,242.28807605416668,242.53404381250002,50.0,71.0
1032,242.0461405541667,242.576382525,62.0,102.0
1033,242.5300115541667,242.927189,57.0,102.0
1034,243.01388255416668,243.54210839583334,67.0,92.0
1035,243.01388255416668,243.78404389583335,64.0,100.0
1036,243.01388255416668,243.79815680000002,60.0,127.0
1037,243.01388255416668,244.36468909583334,48.0,97.0
1038,243.98162455416667,244.50380200833337,67.0,95.0
1039,243.98162455416667,244.52194717083336,64.0,122.0
1040,243.98162455416667,244.77396331666668,60.0,127.0
1041,244.7074310541667,244.9493665541667,48.0,97.0
1042,244.9493665541667,245.72557628333334,57.0,99.0
1043,244.9493665541667,245.7396891875,66.0,112.0
1044,244.9493665541667,245.74976983333335,62.0,102.0
1045,244.9493665541667,246.10460856666668,50.0,92.0
1046,245.92920532916668,246.34856019583336,57.0,117.0
1047,245.9171085541667,246.38485052083337,66.0,127.0
1048,245.9171085541667,246.4110602,62.0,117.0
1049,246.40097955416667,246.72356022083335,57.0,107.0
1050,246.64291505416668,246.8848505541667,50.0,97.0
1051,246.8848505541667,247.47557640000002,59.0,99.0
1052,246.8848505541667,247.5017860791667,55.0,117.0
1053,246.8848505541667,247.6872699625,62.0,97.0
1054,247.36872155416668,248.0400925666667,50.0,56.0
1055,247.85259255416668,248.4029958166667,59.0,127.0
1056,247.85259255416668,248.40501194583334,55.0,100.0
1057,247.85259255416668,248.42517323750002,62.0,102.0
1058,246.8848505541667,248.57839905416668,43.0,82.0
1059,248.57839905416668,248.70138293333335,65.0,95.0
1060,248.57839905416668,248.7114635791667,59.0,102.0
1061,248.57839905416668,248.71347970833335,62.0,97.0
1062,248.57839905416668,248.71952809583337,55.0,107.0
1063,248.3364635541667,248.79614100416669,50.0,41.0
1064,248.57839905416668,248.8203345541667,43.0,97.0
1065,248.8203345541667,249.30420555416669,43.0,89.0
1066,248.8203345541667,249.41106040000003,65.0,95.0
1067,248.8203345541667,249.4191249166667,55.0,93.0
1068,248.8203345541667,249.4191249166667,59.0,95.0
1069,248.8203345541667,249.44130233750002,62.0,96.0
1070,249.30420555416669,249.5461410541667,43.0,97.0
1071,249.5461410541667,249.7880765541667,55.0,97.0
1072,249.7880765541667,250.08041528333337,65.0,100.0
1073,249.7880765541667,250.0844475416667,59.0,112.0
1074,249.7880765541667,250.09452818750003,55.0,102.0
1075,249.7880765541667,250.11670560833335,62.0,117.0
1076,250.0300120541667,250.18928625833337,50.0,89.0
1077,249.7880765541667,250.51388305416668,43.0,97.0
1078,250.27194755416667,250.60662499583336,65.0,81.0
1079,250.27194755416667,250.63686693333335,62.0,95.0
1080,250.27194755416667,250.68525403333336,59.0,100.0
1081,250.51388305416668,250.7558185541667,43.0,97.0
1082,250.7558185541667,251.5098508625,55.0,102.0
1083,250.7558185541667,251.52194763750003,64.0,100.0
1084,250.7558185541667,251.5421089291667,60.0,107.0
1085,250.7558185541667,251.89089927500004,48.0,93.0
1086,251.72356055416668,252.18525413333336,64.0,112.0
1087,251.72356055416668,252.19735090833336,60.0,107.0
1088,251.72356055416668,252.38283479166668,55.0,102.0
1089,252.4493670541667,252.69130255416667,48.0,97.0
1090,252.69130255416667,253.1751735541667,38.0,85.0
1091,252.69130255416667,253.2719477541667,62.0,112.0
1092,252.69130255416667,253.2719477541667,66.0,122.0
1093,252.69130255416667,253.31630259583335,57.0,112.0
1094,253.1751735541667,253.78202843333335,45.0,38.0
1095,253.65904455416668,254.10259297083337,62.0,117.0
1096,253.65904455416668,254.13283490833334,50.0,82.0
1097,253.1751735541667,254.14291555416668,38.0,97.0
1098,254.14291555416668,254.30622201666668,45.0,59.0
1099,253.65904455416668,254.3888833125,57.0,112.0
1100,253.65904455416668,254.51186719166668,66.0,127.0
1101,254.3848510541667,254.6267865541667,38.0,97.0
1102,254.6267865541667,255.2921091791667,59.0,112.0
1103,254.6267865541667,255.31227047083337,66.0,119.0
1104,254.6267865541667,255.34452853750003,62.0,112.0
1105,254.6267865541667,255.68727049583336,47.0,114.0
1106,254.63081881250002,255.69130275416668,35.0,114.0
1107,255.8364640541667,255.93323825416667,47.0,97.0
1108,255.5945285541667,255.99170600000002,59.0,100.0
1109,255.5945285541667,256.08041568333334,62.0,112.0
1110,255.5945285541667,256.1630769791667,66.0,127.0
1111,256.32033505416666,256.511867325,62.0,99.0
1112,256.32033505416666,256.5622705541667,47.0,97.0
1113,256.0783995541667,256.850577025,59.0,117.0
1114,256.5622705541667,257.0461415541667,40.0,105.0
1115,256.8042060541667,257.0461415541667,67.0,117.0
1116,256.8042060541667,257.0703351041667,64.0,107.0
1117,257.2880770541667,257.648964175,52.0,96.0
1118,257.53001255416666,257.77194805416667,67.0,117.0
1119,257.53001255416666,257.7961416041667,64.0,107.0
1120,257.0461415541667,258.0138835541667,40.0,97.0
1121,257.77194805416667,258.0622706541667,52.0,76.0
1122,258.0138835541667,258.39694809583335,59.0,127.0
1123,258.2558190541667,258.4977545541667,40.0,97.0
1124,258.4977545541667,259.25581912083334,55.0,107.0
1125,258.4977545541667,259.2739642833334,64.0,100.0
1126,258.4977545541667,259.2880771875,60.0,112.0
1127,259.4654965541667,259.874770775,60.0,112.0
1128,258.4977545541667,260.19130305416667,48.0,99.0
1129,259.4654965541667,260.2396901541667,55.0,93.0
1130,259.4654965541667,260.261867575,64.0,99.0
1131,260.19130305416667,260.4332385541667,48.0,97.0
1132,260.4332385541667,260.9171095541667,45.0,110.0
1133,260.4332385541667,261.1509805375,64.0,92.0
1134,260.4332385541667,261.1529966666667,57.0,99.0
1135,260.4332385541667,261.20743215416667,61.0,127.0
1136,261.4009805541667,261.71146444583337,57.0,97.0
1137,260.9171095541667,261.8848515541667,45.0,97.0
1138,261.4009805541667,261.91509349166665,64.0,97.0
1139,261.4009805541667,262.03001285416667,61.0,127.0
1140,261.8848515541667,262.18525480000005,57.0,85.0
1141,262.1267870541667,262.36872255416665,45.0,97.0
1142,262.36872255416665,262.47960965833335,66.0,112.0
1143,262.36872255416665,262.48565804583336,62.0,122.0
1144,262.36872255416665,262.5300128875,57.0,97.0
1145,262.36872255416665,262.8525935541667,38.0,89.0
1146,263.0945290541667,263.39090004166667,54.0,117.0
1147,262.8525935541667,263.45541617500004,50.0,92.0
1148,263.0945290541667,263.4695290791667,57.0,100.0
1149,263.0945290541667,263.5784000541667,38.0,97.0
1150,262.6106580541667,263.73565812916667,45.0,88.0
1151,263.8203355541667,263.8989645916667,54.0,117.0
1152,263.8203355541667,264.0622710541667,38.0,97.0
1153,263.8203355541667,264.0622710541667,57.0,97.0
1154,263.5784000541667,264.1590452541667,50.0,99.0
1155,264.3042065541667,264.7417065833333,55.0,122.0
1156,264.3042065541667,264.9574324041667,62.0,122.0
1157,264.3042065541667,265.0017872458334,59.0,122.0
1158,264.7880775541667,265.2638840375,50.0,90.0
1159,265.0300130541667,265.80622278333334,57.0,112.0
1160,264.3042065541667,265.89090020833333,43.0,102.0
1161,266.2396905541667,266.32840023750003,64.0,71.0
1162,266.2396905541667,266.35259378750004,67.0,69.0
1163,265.5138840541667,266.42315830833337,50.0,69.0
1164,266.9654970541667,267.2497712666667,67.0,92.0
1165,266.7235615541667,267.2860615916667,60.0,77.0
1166,266.2396905541667,267.32436804583335,48.0,72.0
1167,266.48162605416667,267.34856159583336,55.0,49.0
1168,267.2074325541667,267.7921100125,76.0,107.0
1169,267.69130355416667,267.81428743333333,72.0,48.0
1170,265.7558195541667,267.834448725,59.0,100.0
1171,268.1751745541667,268.97154557500005,76.0,74.0
1172,268.1751745541667,268.9977552541667,73.0,74.0
1173,268.6590455541667,269.2517875291667,64.0,27.0
1174,268.1751745541667,269.37477140833334,57.0,74.0
1175,269.1429165541667,269.6227552958334,76.0,81.0
1176,269.1429165541667,269.64090045833336,73.0,95.0
1177,269.6267875541667,269.6933198166667,69.0,70.0
1178,270.8364650541667,271.1267876541667,64.0,65.0
1179,270.5945295541667,271.42517477083334,62.0,54.0
1180,270.3525940541667,273.3848523208334,57.0,62.0
1181,272.0461425541667,273.44130393750004,74.0,44.0
1182,270.11065855416666,273.4534007125,50.0,53.0
1183,271.56227155416667,273.6832394375,69.0,53.0
1184,271.0784005541667,273.87678783750005,66.0,79.0
1185,272.0461425541667,273.91711042083335,62.0,37.0
1186,273.9150942916667,274.21348140833334,55.0,39.0
1187,273.96751365,274.24170721666667,59.0,46.0
1188,274.0380781708334,274.2759814125,62.0,60.0
1189,274.92920726250003,274.9856588791667,67.0,35.0
1190,274.06832010833335,275.03606210833334,43.0,60.0
1191,274.47961045833335,275.044126625,50.0,40.0
1192,274.93323952083335,275.05420727083333,55.0,40.0
1193,274.9675137166667,275.20541695833333,74.0,63.0
1194,274.9372717791667,275.2074330875,71.0,49.0
1195,275.8364653875,276.0199331416667,60.0,30.0
1196,275.8445299041667,276.0300137875,57.0,33.0
1197,275.84654603333337,276.0441266916667,54.0,37.0
1198,275.75582022083336,276.0461428208333,66.0,56.0
1199,275.84049764583335,276.06025572500005,69.0,58.0
1200,275.88283635833335,276.132836375,72.0,44.0
1201,276.86267513333337,277.003804175,66.0,34.0
1202,276.8868686833334,277.0199332083333,63.0,32.0
1203,276.7759815791667,277.03001385416667,71.0,36.0
1204,276.9110622333334,277.03404611250005,59.0,34.0
1205,276.90501384583337,277.1872719291667,81.0,50.0
1206,276.87678803750003,277.1933203166667,78.0,35.0
1207,276.81025577500003,277.19533644583333,75.0,43.0
1208,277.76388487083335,277.90904617083334,64.0,44.0
1209,277.85662681250005,278.3404978125,74.0,64.0
1210,277.8767881041667,278.36267523333333,71.0,35.0
1211,277.82638487500003,278.3667074916667,67.0,32.0
1212,278.8364655875,279.1409010916667,66.0,69.0
1213,277.87880423333337,279.3888849791667,52.0,58.0
1214,279.326384975,279.45138498333336,67.0,41.0
1215,278.34251394166665,279.58444950833336,59.0,55.0
1216,279.7638850041667,280.81025604166666,59.0,40.0
1217,279.7578366166667,280.923159275,52.0,30.0
1218,279.6973527416667,280.96953024583337,64.0,41.0
1219,279.88283662500004,280.9917076666667,74.0,43.0
1220,279.8425140416667,281.0038044416667,71.0,34.0
1221,279.75582048750005,281.0159012166667,67.0,41.0
1222,281.74170771666667,281.9775948291667,60.0,58.0
1223,281.87678837083337,282.79614327083334,67.0,63.0
1224,281.7900948166667,282.8183206916667,63.0,66.0
1225,282.9332400541667,283.3304175,62.0,76.0
1226,283.24977233333334,283.3727562125,63.0,88.0
1227,283.58041751666667,283.8304175333334,72.0,58.0
1228,283.90299818333335,284.1953369125,74.0,39.0
1229,282.6308206791667,284.5421111291667,60.0,66.0
1230,284.27194982083336,284.6872724291667,75.0,76.0
1231,281.8747722416667,284.7376756583334,48.0,63.0
1232,284.64291758750005,284.7517885625,72.0,55.0
1233,282.23767549166666,284.96751438333337,55.0,44.0
1234,284.92517567083337,285.0199337416667,74.0,34.0
1235,285.57235313333337,286.1146918791667,78.0,58.0
1236,285.4896918375,286.1267886541667,74.0,55.0
1237,285.4493692541667,286.13485317083337,69.0,33.0
1238,286.802191925,287.4352564833334,66.0,56.0
1239,287.4009822875,287.49170810000004,69.0,63.0
1240,288.0622726541667,288.3243694458333,69.0,30.0
1241,286.415095125,289.3566275791667,62.0,63.0
1242,286.0320305833334,289.47759532916666,57.0,38.0
1243,289.37074048333335,289.5521921083334,69.0,37.0
1244,285.56630474583335,289.59654695,50.0,49.0
1245,288.1913049208334,289.6187243708333,78.0,70.0
1246,288.18324040416667,289.62477275833334,74.0,37.0
1247,290.86065993750003,291.5501761125,55.0,68.0
1248,290.69130508750004,291.5521922416667,62.0,58.0
1249,290.77598251250004,291.5582406291667,59.0,59.0
1250,290.90904703750005,291.87678903750003,31.0,59.0
1251,292.0844503416667,292.33445035833336,47.0,53.0
1252,292.282031,292.46146649583335,50.0,59.0
1253,292.43727294583334,292.5078374666667,54.0,66.0
1254,291.6086438583334,292.57638585833337,38.0,40.0
1255,292.6025955375,292.8203374875,55.0,72.0
1256,291.8687245208333,292.83646652083337,43.0,51.0
1257,292.80824071250004,293.01791814583333,59.0,51.0
1258,292.9937245958333,293.0985633125,62.0,60.0
1259,293.43525688333335,293.9614665958334,67.0,34.0
1260,293.64896657500003,294.0017891791667,71.0,45.0
1261,293.9896924041667,294.0683214416667,74.0,35.0
1262,294.40501501250003,294.9634827916667,79.0,38.0
1263,294.91106343333337,295.0179182791667,83.0,33.0
1264,295.44332153333335,295.5219505708334,86.0,39.0
