,start,end,pitch,velocity
0,18.353434816666667,18.502141604166667,65.0,104.0
1,18.612055316666666,18.732744883333336,65.0,92.0
2,18.87067581666667,19.00645157916667,65.0,100.0
3,19.129296316666668,19.431020233333335,63.0,109.0
4,19.646537316666667,19.909468158333333,65.0,110.0
5,20.422398816666668,20.5538642375,68.0,109.0
6,20.681019316666667,20.806019225,68.0,97.0
7,20.939639816666666,21.116363825,68.0,103.0
8,21.19826031666667,21.545242820833334,70.0,113.0
9,21.715501316666668,21.9827425,68.0,113.0
10,22.49136281666667,22.592655845833335,70.0,119.0
11,22.74998331666667,22.840500491666667,70.0,106.0
12,23.008603816666668,23.1012761625,70.0,106.0
13,23.267224316666667,23.353431150000002,70.0,109.0
14,23.525844816666666,23.713344679166667,70.0,116.0
15,23.78446531666667,24.05601684166667,65.0,107.0
16,24.301706316666667,24.5366199375,63.0,97.0
17,24.560326816666667,24.844809366666667,65.0,92.0
18,26.37067031666667,26.4762736875,58.0,104.0
19,26.629290816666668,26.795238970833335,70.0,113.0
20,26.887911316666667,27.02584225,70.0,104.0
21,27.146531816666666,27.282307579166666,70.0,91.0
22,27.40515231666667,27.519376370833335,73.0,110.0
23,27.66377281666667,27.870669216666666,70.0,96.0
24,28.69825481666667,28.797392675,70.0,107.0
25,28.956875316666668,29.0689442,70.0,94.0
26,29.215495816666667,29.400840508333335,70.0,98.0
27,29.474116316666667,29.808167795833334,68.0,108.0
28,29.99135731666667,30.230581279166667,65.0,107.0
29,30.767218816666666,30.881442870833336,63.0,108.0
30,31.02583931666667,31.127132345833335,63.0,92.0
31,31.28445981666667,31.431011433333335,63.0,100.0
32,31.543080316666668,31.754287058333336,63.0,94.0
33,31.801700816666667,32.004286875,65.0,104.0
34,32.060321316666666,32.280148741666665,63.0,94.0
35,32.577562316666665,32.72626910416667,58.0,86.0
36,32.83618281666667,33.116355025000004,63.0,94.0
37,34.905146816666665,35.05385360416667,65.0,104.0
38,35.16376731666667,35.284456883333334,65.0,92.0
39,35.42238781666667,35.55816357916667,65.0,100.0
40,35.68100831666667,35.98273223333334,63.0,109.0
41,36.19824931666667,36.461180158333335,65.0,110.0
42,36.974110816666666,37.1055762375,68.0,109.0
43,37.232731316666666,37.357731225,68.0,97.0
44,37.491351816666665,37.668075825,68.0,103.0
45,37.74997231666667,38.09695482083333,70.0,113.0
46,38.26721331666667,38.5344545,68.0,113.0
47,38.78445431666667,39.0516955,58.0,113.0
48,39.04307481666667,39.14436784583334,70.0,119.0
49,39.30169531666667,39.39221249166667,70.0,106.0
50,39.560315816666666,39.6529881625,70.0,106.0
51,39.818936316666665,39.90514315,70.0,109.0
52,40.07755681666667,40.26505667916667,70.0,116.0
53,40.33617731666667,40.60772884166667,65.0,107.0
54,40.85341831666667,41.0883319375,63.0,97.0
55,41.11203881666667,41.39652136666667,65.0,92.0
56,42.92238231666667,43.0279856875,58.0,104.0
57,43.18100281666667,43.34695097083333,70.0,113.0
58,43.43962331666667,43.57755425,70.0,104.0
59,43.69824381666667,43.83401957916667,70.0,91.0
60,43.95686431666667,44.07108837083334,73.0,110.0
61,44.474105316666666,44.68100171666667,70.0,96.0
62,45.24996681666667,45.349104675,70.0,113.0
63,45.50858731666667,45.737035425,70.0,104.0
64,45.76720781666667,45.995655925,68.0,107.0
65,46.02582831666667,46.2736729625,70.0,110.0
66,46.28444881666667,46.512896925,68.0,108.0
67,46.54306931666667,46.756431229166665,65.0,104.0
68,47.060310316666666,47.21548261666667,68.0,108.0
69,47.31893081666667,47.42884452916667,70.0,104.0
70,47.57755131666667,47.702551225,73.0,110.0
71,47.83617181666667,47.99780962916667,73.0,110.0
72,48.09479231666667,48.18961983333334,73.0,93.0
73,48.35341281666667,48.46979204166667,73.0,108.0
74,48.87065381666667,49.02367094583334,70.0,104.0
75,49.12927431666667,49.4934981875,75.0,117.0
76,53.00858181666667,53.12927138333333,68.0,108.0
77,53.26720231666667,53.385736712500005,68.0,108.0
78,53.52582281666667,53.65297789583334,75.0,119.0
79,53.78444331666667,53.974098350000006,75.0,116.0
80,54.04306381666667,54.1357361625,73.0,114.0
81,54.301684316666666,54.510735887500005,75.0,120.0
82,54.81892531666667,55.09478718333334,77.0,119.0
83,55.59478681666667,55.69176950416667,72.0,116.0
84,55.85340731666667,55.95039000416667,72.0,114.0
85,56.11202781666667,56.305993191666666,72.0,116.0
86,56.37064831666667,56.691768770833335,70.0,117.0
87,56.887889316666666,57.16375118333333,68.0,119.0
88,57.66375081666667,57.86418170416667,70.0,114.0
89,57.92237131666667,58.058147079166666,73.0,116.0
90,58.18099181666667,58.28228484583334,70.0,113.0
91,58.43961231666667,58.627112179166666,68.0,114.0
92,58.69823281666667,58.86633614166667,70.0,116.0
93,58.95685331666667,59.08400839583334,68.0,114.0
94,59.215473816666666,59.336163383333336,63.0,87.0
95,59.47409431666667,59.73271481666667,68.0,108.0
96,59.99133531666667,60.24995581666667,65.0,104.0
97,61.801678816666666,61.8943511625,70.0,117.0
98,62.06029931666667,62.1529716625,70.0,110.0
99,62.31891981666667,62.43529904166667,70.0,113.0
100,62.57754031666667,62.8447815,73.0,117.0
101,63.09478131666667,63.3426259625,70.0,119.0
102,63.87064281666667,63.96115999166667,70.0,117.0
103,64.12926331666667,64.26503907916667,70.0,110.0
104,64.38788381666667,64.58831470416666,70.0,110.0
105,64.64650431666666,64.9137455,68.0,116.0
106,65.16374531666666,65.42021064583334,65.0,110.0
107,65.68098631666668,65.98917574583334,68.0,116.0
108,65.93960681666667,66.05598604166667,70.0,116.0
109,66.19822731666667,66.323227225,73.0,116.0
110,66.45684781666667,66.57753738333334,73.0,116.0
111,66.71546831666667,66.84262339583334,73.0,110.0
112,66.97408881666667,67.13357145833334,73.0,117.0
113,67.23270931666667,67.39219195833334,70.0,119.0
114,67.49132981666666,67.59262284583333,73.0,110.0
115,67.74995031666667,68.01072598750001,75.0,120.0
116,69.56029381666667,69.68098338333334,68.0,108.0
117,69.81891431666666,69.9374487125,68.0,108.0
118,70.07753481666667,70.20468989583334,75.0,119.0
119,70.33615531666666,70.52581035,75.0,116.0
120,70.59477581666667,70.6874481625,73.0,114.0
121,70.85339631666668,71.0624478875,75.0,120.0
122,71.37063731666667,71.64649918333333,77.0,119.0
123,72.14649881666666,72.24348150416667,72.0,116.0
124,72.40511931666667,72.50210200416667,72.0,114.0
125,72.66373981666666,72.85770519166667,72.0,116.0
126,72.92236031666667,73.24348077083333,70.0,117.0
127,73.43960131666667,73.71546318333334,68.0,119.0
128,74.21546281666667,74.41589370416666,70.0,114.0
129,74.47408331666666,74.60985907916667,73.0,116.0
130,74.73270381666667,74.83399684583334,70.0,113.0
131,74.99132431666666,75.17882417916667,68.0,114.0
132,75.24994481666667,75.41804814166667,70.0,116.0
133,75.50856531666668,75.63572039583333,68.0,114.0
134,75.76718581666667,75.88787538333334,63.0,87.0
135,76.02580631666667,76.28442681666667,68.0,108.0
136,76.54304731666667,76.80166781666667,65.0,104.0
137,78.35339081666667,78.4460631625,70.0,117.0
138,78.61201131666667,78.7046836625,70.0,110.0
139,78.87063181666667,78.98701104166668,70.0,113.0
140,79.12925231666667,79.3964935,73.0,117.0
141,79.64649331666666,79.8943379625,70.0,119.0
142,80.42235481666667,80.51287199166667,70.0,117.0
143,80.68097531666668,80.81675107916666,70.0,110.0
144,80.93959581666667,81.14002670416667,70.0,110.0
145,81.19821631666667,81.4654575,68.0,116.0
146,81.71545731666667,81.97192264583333,65.0,110.0
147,82.23269831666667,82.54088774583333,68.0,116.0
148,82.49131881666666,82.60769804166667,70.0,116.0
149,82.74993931666667,82.874939225,73.0,116.0
150,83.00855981666668,83.12924938333333,73.0,116.0
151,83.26718031666667,83.39433539583334,73.0,110.0
152,83.52580081666667,83.68528345833333,73.0,117.0
153,83.78442131666667,83.94390395833334,70.0,119.0
154,84.04304181666667,84.14433484583334,73.0,110.0
155,84.30166231666666,84.5624379875,75.0,120.0
156,85.59476481666667,85.85554048750001,73.0,114.0
157,85.85338531666667,85.9977817625,72.0,108.0
158,86.37062631666667,86.73916052916667,72.0,114.0
159,86.88786731666667,87.34691870416667,70.0,116.0
160,103.18095881666667,103.32966560416666,65.0,104.0
161,103.43957931666667,103.56026888333334,65.0,92.0
162,103.69819981666667,103.83397557916668,65.0,100.0
163,103.95682031666666,104.25854423333334,63.0,109.0
164,104.47406131666668,104.73699215833334,65.0,110.0
165,105.24992281666667,105.3813882375,68.0,109.0
166,105.50854331666667,105.63354322500001,68.0,97.0
167,105.76716381666667,105.943887825,68.0,103.0
168,106.02578431666667,106.37276682083333,70.0,113.0
169,106.54302531666667,106.8102665,68.0,113.0
170,107.06026631666667,107.32750750000001,58.0,113.0
171,107.31888681666668,107.42017984583333,70.0,119.0
172,107.57750731666667,107.66802449166667,70.0,106.0
173,107.83612781666668,107.92880016250001,70.0,106.0
174,108.09474831666667,108.18095515,70.0,109.0
175,108.35336881666667,108.54086867916666,70.0,116.0
176,108.61198931666667,108.88354084166667,65.0,107.0
177,109.12923031666666,109.3641439375,63.0,97.0
178,109.38785081666667,109.67233336666668,65.0,92.0
179,111.19819431666667,111.30379768750001,58.0,104.0
180,111.45681481666666,111.62276297083334,70.0,113.0
181,111.71543531666667,111.85336625000001,70.0,104.0
182,111.97405581666668,112.10983157916667,70.0,91.0
183,112.23267631666667,112.34690037083334,73.0,110.0
184,112.74991731666667,112.95681371666667,70.0,96.0
185,113.52577881666667,113.62491667500001,70.0,113.0
186,113.78439931666666,114.012847425,70.0,104.0
187,114.04301981666667,114.27146792500001,68.0,107.0
188,114.30164031666668,114.5494849625,70.0,110.0
189,114.56026081666667,114.78870892500001,68.0,108.0
190,114.81888131666668,115.03224322916667,65.0,104.0
191,115.33612231666667,115.49129461666666,68.0,108.0
192,115.59474281666667,115.70465652916667,70.0,104.0
193,115.85336331666667,115.97836322500001,73.0,110.0
194,116.11198381666667,116.27362162916667,73.0,110.0
195,116.37060431666667,116.46543183333334,73.0,93.0
196,116.62922481666668,116.74560404166667,73.0,108.0
197,117.14646581666668,117.29948294583333,70.0,104.0
198,117.40508631666667,117.76931018750001,75.0,117.0
199,121.28439381666666,121.40508338333333,68.0,108.0
200,121.54301431666667,121.66154871250001,68.0,108.0
201,121.80163481666668,121.92878989583333,75.0,119.0
202,122.06025531666667,122.24991035000001,75.0,116.0
203,122.31887581666668,122.41154816250001,73.0,114.0
204,122.57749631666667,122.7865478875,75.0,120.0
205,123.09473731666667,123.37059918333334,77.0,119.0
206,123.87059881666667,123.96758150416667,72.0,116.0
207,124.12921931666668,124.22620200416667,72.0,114.0
208,124.38783981666667,124.58180519166667,72.0,116.0
209,124.64646031666668,124.96758077083334,70.0,117.0
210,125.16370131666667,125.43956318333333,68.0,119.0
211,125.93956281666667,126.13999370416667,70.0,114.0
212,126.19818331666667,126.33395907916668,73.0,116.0
213,126.45680381666668,126.55809684583333,70.0,113.0
214,126.71542431666667,126.90292417916667,68.0,114.0
215,126.97404481666668,127.14214814166667,70.0,116.0
216,127.23266531666667,127.35982039583334,68.0,114.0
217,127.49128581666668,127.61197538333334,63.0,87.0
218,127.74990631666667,128.00852681666666,68.0,108.0
219,128.26714731666667,128.52576781666667,65.0,104.0
220,130.07749081666668,130.17016316250002,70.0,117.0
221,130.33611131666666,130.4287836625,70.0,110.0
222,130.59473181666667,130.71111104166667,70.0,113.0
223,130.85335231666667,131.1205935,73.0,117.0
224,131.37059331666669,131.6184379625,70.0,119.0
225,132.14645481666668,132.23697199166668,70.0,117.0
226,132.40507531666668,132.54085107916669,70.0,110.0
227,132.66369581666666,132.86412670416667,70.0,110.0
228,132.92231631666667,133.1895575,68.0,116.0
229,133.43955731666668,133.69602264583335,65.0,110.0
230,133.95679831666666,134.26498774583334,68.0,116.0
231,134.21541881666667,134.33179804166667,70.0,116.0
232,134.47403931666668,134.599039225,73.0,116.0
233,134.73265981666668,134.85334938333335,73.0,116.0
234,134.99128031666666,135.11843539583333,73.0,110.0
235,135.24990081666667,135.40938345833334,73.0,117.0
236,135.50852131666667,135.66800395833334,70.0,119.0
237,135.76714181666668,135.86843484583335,73.0,110.0
238,136.0257623166667,136.2865379875,75.0,120.0
239,137.83610581666667,137.95679538333334,68.0,108.0
240,138.09472631666668,138.21326071250002,68.0,108.0
241,138.35334681666666,138.48050189583333,75.0,119.0
242,138.61196731666666,138.80162235,75.0,116.0
243,138.87058781666667,138.9632601625,73.0,114.0
244,139.12920831666668,139.33825988750002,75.0,120.0
245,139.64644931666666,139.92231118333333,77.0,119.0
246,140.42231081666668,140.51929350416668,72.0,116.0
247,140.68093131666666,140.77791400416666,72.0,114.0
248,140.93955181666666,141.13351719166667,72.0,116.0
249,141.19817231666667,141.51929277083335,70.0,117.0
250,141.71541331666668,141.99127518333333,68.0,119.0
251,142.49127481666667,142.69170570416668,70.0,114.0
252,142.74989531666668,142.88567107916668,73.0,116.0
253,143.00851581666666,143.10980884583333,70.0,113.0
254,143.26713631666667,143.45463617916667,68.0,114.0
255,143.52575681666667,143.69386014166668,70.0,116.0
256,143.78437731666668,143.91153239583335,68.0,114.0
257,144.04299781666668,144.16368738333333,63.0,87.0
258,144.30161831666666,144.56023881666667,68.0,108.0
259,144.81885931666667,145.07747981666668,65.0,104.0
260,146.62920281666666,146.7218751625,70.0,117.0
261,146.88782331666667,146.9804956625,70.0,110.0
262,147.14644381666668,147.26282304166668,70.0,113.0
263,147.40506431666668,147.6723055,73.0,117.0
264,147.92230531666667,148.1701499625,70.0,119.0
265,148.69816681666669,148.78868399166666,70.0,117.0
266,148.95678731666666,149.09256307916667,70.0,110.0
267,149.21540781666667,149.41583870416667,70.0,110.0
268,149.47402831666668,149.74126950000002,68.0,116.0
269,149.99126931666666,150.24773464583333,65.0,110.0
270,150.50851031666667,150.81669974583335,68.0,116.0
271,150.76713081666668,150.88351004166668,70.0,116.0
272,151.02575131666669,151.150751225,73.0,116.0
273,151.28437181666666,151.40506138333333,73.0,116.0
274,151.54299231666667,151.67014739583334,73.0,110.0
275,151.80161281666668,151.96109545833335,73.0,117.0
276,152.06023331666668,152.21971595833335,70.0,119.0
277,152.31885381666666,152.42014684583333,73.0,110.0
278,152.57747431666667,152.8382499875,75.0,120.0
279,154.38781781666668,154.50850738333335,68.0,108.0
280,154.64643831666666,154.7649727125,68.0,108.0
281,154.90505881666667,155.03221389583334,75.0,119.0
282,155.16367931666667,155.35333435,75.0,116.0
283,155.42229981666668,155.51497216250002,73.0,114.0
284,155.6809203166667,155.8899718875,75.0,120.0
285,156.19816131666667,156.47402318333334,77.0,119.0
286,156.97402281666666,157.07100550416666,72.0,116.0
287,157.23264331666667,157.32962600416667,72.0,114.0
288,157.49126381666667,157.68522919166668,72.0,116.0
289,157.74988431666668,158.07100477083333,70.0,117.0
290,158.26712531666666,158.54298718333334,68.0,119.0
291,159.04298681666668,159.24341770416666,70.0,114.0
292,159.30160731666666,159.43738307916666,73.0,116.0
293,159.56022781666667,159.66152084583334,70.0,113.0
294,159.81884831666667,160.00634817916668,68.0,114.0
295,160.07746881666668,160.24557214166668,70.0,116.0
296,160.3360893166667,160.46324439583333,68.0,114.0
297,160.59470981666666,160.71539938333333,63.0,87.0
298,160.85333031666667,161.11195081666668,68.0,108.0
299,161.37057131666668,161.62919181666666,65.0,104.0
300,163.18091481666667,163.2735871625,70.0,117.0
301,163.43953531666668,163.5322076625,70.0,110.0
302,163.69815581666668,163.8145350416667,70.0,113.0
303,163.95677631666666,164.2240175,73.0,117.0
304,164.47401731666668,164.72186196250001,70.0,119.0
305,165.24987881666667,165.34039599166667,70.0,117.0
306,165.50849931666667,165.64427507916668,70.0,110.0
307,165.76711981666668,165.96755070416668,70.0,110.0
308,166.02574031666668,166.2929815,68.0,116.0
309,166.54298131666667,166.79944664583334,65.0,110.0
310,167.06022231666668,167.36841174583333,68.0,116.0
311,167.31884281666666,167.43522204166666,70.0,116.0
312,167.57746331666667,167.702463225,73.0,116.0
313,167.83608381666667,167.95677338333334,73.0,116.0
314,168.09470431666668,168.22185939583335,73.0,110.0
315,168.35332481666669,168.51280745833333,73.0,117.0
316,168.61194531666666,168.77142795833333,70.0,119.0
317,168.87056581666667,168.97185884583334,73.0,110.0
318,169.12918631666668,169.38996198750002,75.0,120.0
319,170.93952981666666,171.06021938333333,68.0,108.0
320,171.19815031666667,171.3166847125,68.0,108.0
321,171.45677081666668,171.58392589583335,75.0,119.0
322,171.71539131666668,171.90504635000002,75.0,116.0
323,171.97401181666666,172.0666841625,73.0,114.0
324,172.23263231666667,172.4416838875,75.0,120.0
325,172.74987331666668,173.02573518333335,77.0,119.0
326,173.52573481666667,173.62271750416667,72.0,116.0
327,173.78435531666668,173.88133800416668,72.0,114.0
328,174.04297581666668,174.23694119166666,72.0,116.0
329,174.30159631666666,174.62271677083334,70.0,117.0
330,174.81883731666667,175.09469918333335,68.0,119.0
331,175.59469881666666,175.79512970416667,70.0,114.0
332,175.85331931666667,175.98909507916667,73.0,116.0
333,176.11193981666668,176.21323284583335,70.0,113.0
334,176.37056031666668,176.5128015916667,70.0,107.0
335,176.62918081666666,176.84685307083333,75.0,119.0
336,176.88780131666667,177.10547357083334,73.0,110.0
337,177.14642181666667,177.2520251875,75.0,116.0
338,177.40504231666668,177.71969725833333,80.0,117.0
339,177.92228331666666,178.254179625,77.0,120.0
340,178.43952431666668,178.68090345000002,77.0,117.0
341,178.69814481666668,178.94167912083333,75.0,114.0
342,178.95676531666666,179.24124786666667,73.0,116.0
343,179.73262681666668,179.82529916250002,70.0,117.0
344,179.9912473166667,180.0839196625,70.0,110.0
345,180.24986781666667,180.36624704166667,70.0,113.0
346,180.50848831666667,180.7757295,73.0,117.0
347,181.02572931666668,181.2735739625,70.0,119.0
348,181.80159081666667,181.89210799166668,70.0,117.0
349,182.06021131666668,182.19598707916668,70.0,110.0
350,182.3188318166667,182.51926270416666,70.0,110.0
351,182.57745231666667,182.8446935,68.0,116.0
352,183.09469331666668,183.35115864583335,65.0,110.0
353,183.61193431666666,183.92012374583334,68.0,116.0
354,183.87055481666667,183.98693404166667,70.0,116.0
355,184.12917531666668,184.254175225,73.0,116.0
356,184.38779581666668,184.50848538333335,73.0,116.0
357,184.6464163166667,184.77357139583333,73.0,110.0
358,184.90503681666667,185.06451945833334,73.0,117.0
359,185.16365731666667,185.32313995833334,70.0,119.0
360,185.42227781666668,185.52357084583335,73.0,110.0
361,185.68089831666668,185.9416739875,75.0,120.0
362,189.04296481666668,189.3683956125,73.0,110.0
363,189.56020581666667,189.87055041666667,72.0,113.0
364,190.07744681666668,190.49770512916666,73.0,108.0
