,start,end,pitch,velocity
0,1.8017228166666668,3.5021526041666666,49.0,89.0
1,2.318963816666667,3.728445541666667,56.0,65.0
2,2.8362048166666667,3.8340489125,63.0,71.0
3,3.870686816666667,5.413789133333333,48.0,84.0
4,4.387927816666667,5.433185670833334,56.0,66.0
5,4.9051688166666665,5.443961525000001,63.0,77.0
6,5.422409816666667,5.6896510000000005,49.0,88.0
7,5.681030316666667,5.8900818875,48.0,87.0
8,6.974132816666667,7.5215462083333335,58.0,75.0
9,6.456891816666667,7.564649625,53.0,66.0
10,5.939650816666667,7.678873679166667,46.0,89.0
11,7.491373816666667,8.299562879166666,61.0,74.0
12,9.301717316666666,9.581889525000001,63.0,88.0
13,9.043096816666667,9.599130891666666,56.0,76.0
14,8.525855816666667,9.663786016666666,51.0,65.0
15,8.008614816666666,9.676717041666667,44.0,81.0
16,9.560337816666667,10.159475308333334,68.0,100.0
17,10.594819816666668,11.646543183333334,49.0,70.0
18,10.853440316666667,11.646543183333334,54.0,78.0
19,11.370681316666667,11.670250062500001,58.0,67.0
20,10.077578816666668,11.685336258333335,42.0,90.0
21,11.629301816666667,11.974129150000001,61.0,82.0
22,11.887922316666668,12.1551635,66.0,86.0
23,12.146542816666667,12.599128691666667,65.0,85.0
24,13.181024816666667,13.437490145833333,60.0,80.0
25,12.146542816666667,13.7133520125,41.0,83.0
26,13.439645316666667,13.7392140625,65.0,81.0
27,12.922404316666666,13.797403675,53.0,74.0
28,13.698265816666668,14.004300075,68.0,88.0
29,13.956886316666667,14.806023625,63.0,70.0
30,14.215506816666668,14.991368316666668,70.0,82.0
31,14.991368316666668,15.7823160125,58.0,65.0
32,14.215506816666668,15.851281479166667,51.0,83.0
33,15.767229816666667,16.465505166666667,66.0,82.0
34,15.508609316666668,16.702573958333335,63.0,75.0
35,17.57757331666667,17.771538691666667,61.0,82.0
36,17.318952816666666,18.189641833333333,56.0,70.0
37,16.801711816666668,18.209038370833333,51.0,67.0
38,16.284470816666666,18.224124566666667,44.0,80.0
39,17.83619381666667,18.3426589625,63.0,83.0
40,18.353434816666667,19.101279095833334,73.0,79.0
41,18.353434816666667,19.15515836666667,65.0,80.0
42,18.353434816666667,19.198261783333333,68.0,84.0
43,19.387916816666667,20.006450845833335,73.0,78.0
44,19.387916816666667,20.086192166666667,65.0,77.0
45,18.353434816666667,20.234898954166667,49.0,83.0
46,20.422398816666668,21.157312070833335,63.0,77.0
47,20.422398816666668,21.221967195833333,72.0,78.0
48,19.387916816666667,21.230587879166666,68.0,81.0
49,21.45688081666667,22.0797251875,63.0,79.0
50,21.45688081666667,22.090501041666666,72.0,75.0
51,21.45688081666667,22.11205275,68.0,76.0
52,20.422398816666668,22.217656120833333,48.0,80.0
53,22.49136281666667,23.2564484625,65.0,78.0
54,22.49136281666667,23.2564484625,70.0,81.0
55,22.49136281666667,23.2823105125,61.0,71.0
56,23.525844816666666,24.176706408333335,70.0,77.0
57,23.525844816666666,24.232740850000003,61.0,76.0
58,23.525844816666666,24.368516612500002,65.0,81.0
59,22.49136281666667,24.590499208333334,46.0,80.0
60,24.560326816666667,25.234895287500002,68.0,83.0
61,24.560326816666667,25.280153875,60.0,77.0
62,24.560326816666667,25.2930849,63.0,76.0
63,25.594808816666667,25.769377654166668,68.0,70.0
64,25.594808816666667,25.81463624166667,60.0,78.0
65,25.853429316666666,26.109894645833336,56.0,87.0
66,24.560326816666667,26.187480795833334,44.0,83.0
67,26.11204981666667,26.355584120833335,63.0,108.0
68,26.37067031666667,26.6055839375,68.0,88.0
69,26.629290816666668,27.407307487500002,66.0,82.0
70,26.629290816666668,27.502135004166668,61.0,77.0
71,27.66377281666667,28.314634408333333,66.0,86.0
72,27.66377281666667,28.321099920833333,61.0,84.0
73,26.629290816666668,28.586185933333333,42.0,81.0
74,28.69825481666667,29.405150850000002,68.0,84.0
75,28.69825481666667,29.439633583333336,65.0,79.0
76,28.69825481666667,29.493512854166667,60.0,76.0
77,29.73273681666667,30.247822645833335,68.0,82.0
78,29.73273681666667,30.31463294166667,60.0,81.0
79,29.73273681666667,30.321098454166666,65.0,83.0
80,28.69825481666667,30.676701641666668,53.0,77.0
81,30.767218816666666,31.512907925,58.0,77.0
82,30.767218816666666,31.52583895,63.0,83.0
83,30.767218816666666,31.527994120833334,66.0,81.0
84,31.801700816666667,32.161614345833335,58.0,77.0
85,31.801700816666667,32.32971767083333,63.0,79.0
86,31.801700816666667,32.40299347916667,66.0,83.0
87,32.318941816666666,32.80385525416667,58.0,78.0
88,30.767218816666666,32.92454482083333,51.0,69.0
89,32.577562316666665,33.116355025000004,66.0,78.0
90,32.83618281666667,34.4417850875,44.0,80.0
91,33.09480331666667,34.443940258333335,51.0,74.0
92,33.61204431666667,34.4999747,60.0,80.0
93,33.87066481666667,34.54738845833334,68.0,89.0
94,34.38790581666667,34.855577887500004,63.0,87.0
95,33.35342381666667,34.879284766666665,56.0,85.0
96,34.905146816666665,35.640060070833336,68.0,81.0
97,34.905146816666665,35.68747382916667,65.0,83.0
98,34.905146816666665,35.73919792916667,61.0,79.0
99,35.93962881666667,36.26290444166667,68.0,84.0
100,35.93962881666667,36.29523200416667,61.0,83.0
101,34.905146816666665,36.601266262500005,49.0,82.0
102,36.45686981666667,36.724111,65.0,84.0
103,36.19824931666667,37.004283208333334,56.0,74.0
104,36.974110816666666,37.71548958333334,60.0,83.0
105,36.974110816666666,37.71548958333334,65.0,83.0
106,36.71549031666667,37.752127487500005,68.0,82.0
107,38.00859281666667,38.64005787083333,68.0,82.0
108,38.00859281666667,38.642213041666665,60.0,84.0
109,36.974110816666666,38.978419691666666,48.0,76.0
110,38.78445431666667,39.09479891666667,68.0,87.0
111,39.04307481666667,39.80385012083333,61.0,82.0
112,39.04307481666667,39.81031563333333,65.0,88.0
113,39.818936316666665,40.540918545833335,58.0,82.0
114,39.560315816666666,40.60126332916667,53.0,58.0
115,40.07755681666667,40.61850469583334,70.0,92.0
116,39.04307481666667,40.665918454166665,46.0,77.0
117,40.07755681666667,40.672383966666665,61.0,89.0
118,40.59479781666667,41.06031471666667,65.0,83.0
119,41.11203881666667,41.896521,68.0,87.0
120,41.11203881666667,41.92669339166667,60.0,82.0
121,42.146520816666666,42.47410678333333,60.0,94.0
122,41.887900316666666,42.747813479166666,53.0,74.0
123,42.405141316666665,42.995658125,68.0,108.0
124,42.66376181666667,43.12927871666667,65.0,89.0
125,41.11203881666667,43.16160627916667,44.0,83.0
126,43.18100281666667,43.95686431666667,58.0,83.0
127,43.18100281666667,43.965485,66.0,85.0
128,43.18100281666667,43.99565739166667,61.0,86.0
129,44.21548481666667,44.536605270833334,58.0,81.0
130,43.18100281666667,44.801691283333334,42.0,80.0
131,44.21548481666667,44.980570462500005,61.0,79.0
132,44.21548481666667,45.118501395833334,66.0,84.0
133,43.18100281666667,45.12065656666667,54.0,78.0
134,45.24996681666667,45.991345583333334,68.0,84.0
135,45.24996681666667,46.00858695,65.0,86.0
136,46.28444881666667,46.599103758333335,60.0,88.0
137,46.54306931666667,46.82108635416667,65.0,81.0
138,46.801689816666666,46.94177592083334,68.0,91.0
139,45.24996681666667,47.26074120416667,53.0,86.0
140,47.31893081666667,48.040913045833335,66.0,86.0
141,47.31893081666667,48.0452233875,58.0,83.0
142,47.31893081666667,48.0710854375,63.0,87.0
143,48.35341281666667,48.83832625416667,58.0,89.0
144,48.87065381666667,49.23918802916667,63.0,88.0
145,47.31893081666667,49.254274225,51.0,81.0
146,49.387894816666666,49.9719461125,60.0,85.0
147,49.387894816666666,49.9719461125,68.0,87.0
148,49.387894816666666,49.978411625,63.0,88.0
149,50.16375631666667,50.3728078875,61.0,88.0
150,49.90513581666667,50.51073882083333,56.0,87.0
151,50.42237681666667,50.8900488875,63.0,104.0
152,50.68099731666667,51.163755583333334,56.0,86.0
153,49.387894816666666,51.221945195833335,44.0,84.0
154,50.93961781666667,51.23272105,61.0,83.0
155,49.646515316666665,51.4331519375,51.0,84.0
156,51.45685881666667,52.616340725,60.0,87.0
157,51.45685881666667,52.71116824166667,68.0,86.0
158,51.19823831666667,52.75427165833334,63.0,84.0
159,51.45685881666667,53.03228869583334,44.0,86.0
160,52.74996131666667,53.062461087500004,60.0,91.0
161,51.45685881666667,53.16159894583333,56.0,84.0
162,53.00858181666667,53.346943637500004,63.0,108.0
163,53.52582281666667,54.31892568333333,65.0,94.0
164,53.52582281666667,54.338322220833334,73.0,91.0
165,53.52582281666667,54.3620291,68.0,104.0
166,54.301684316666666,54.719787458333336,61.0,87.0
167,53.52582281666667,55.118494062500005,49.0,92.0
168,54.560304816666665,55.32970080416667,73.0,96.0
169,54.560304816666665,55.331855975,65.0,107.0
170,54.560304816666665,55.37495939166667,68.0,114.0
171,55.07754581666667,55.47625242083333,61.0,80.0
172,55.59478681666667,56.368493145833334,65.0,102.0
173,55.59478681666667,56.38357934166667,72.0,102.0
174,55.59478681666667,56.392200025,68.0,110.0
175,56.37064831666667,56.665906720833334,60.0,89.0
176,56.62926881666667,57.03659610416667,65.0,116.0
177,56.887889316666666,57.07323400833334,60.0,100.0
178,55.59478681666667,57.103406400000004,53.0,89.0
179,56.62926881666667,57.13788913333334,72.0,107.0
180,57.14650981666667,57.185302891666666,65.0,81.0
181,57.14650981666667,57.52150954166667,68.0,116.0
182,57.66375081666667,58.2219400625,61.0,100.0
183,57.66375081666667,58.23702625833334,70.0,108.0
184,57.66375081666667,58.24995728333334,66.0,114.0
185,57.66375081666667,58.50211227083334,42.0,90.0
186,58.43961231666667,58.59262944583334,70.0,107.0
187,58.18099181666667,58.7262500375,54.0,86.0
188,58.69823281666667,59.258577233333334,68.0,104.0
189,58.69823281666667,59.288749625,60.0,88.0
190,58.69823281666667,59.329697870833336,63.0,91.0
191,58.69823281666667,59.36849094583334,44.0,87.0
192,59.47409431666667,59.652973495833336,60.0,91.0
193,59.47409431666667,59.69392174166667,68.0,96.0
194,59.215473816666666,59.73055964583334,56.0,86.0
195,59.73271481666667,60.10124902916667,61.0,88.0
196,59.73271481666667,60.38788675,65.0,93.0
197,59.73271481666667,60.43099016666667,68.0,91.0
198,60.50857631666667,60.81676574583334,56.0,87.0
199,60.76719681666667,61.0926276125,61.0,116.0
200,60.76719681666667,61.183144787500005,68.0,110.0
201,61.02581731666667,61.32323089166667,56.0,91.0
202,59.73271481666667,61.34909294166667,49.0,86.0
203,61.28443781666667,61.5322824625,65.0,113.0
204,61.801678816666666,62.5279713875,61.0,91.0
205,61.801678816666666,62.5409024125,70.0,94.0
206,61.801678816666666,62.57754031666667,65.0,102.0
207,62.57754031666667,62.99133311666667,58.0,92.0
208,62.83616081666667,63.305988058333334,61.0,107.0
209,62.83616081666667,63.318919083333334,70.0,102.0
210,63.09478131666667,63.32107425416667,58.0,91.0
211,62.31891981666667,63.433143137500004,53.0,73.0
212,61.801678816666666,63.43745347916667,46.0,91.0
213,63.35340181666667,63.581849925,61.0,70.0
214,63.35340181666667,63.70253949166667,65.0,90.0
215,63.87064281666667,64.26288390833334,65.0,104.0
216,63.87064281666667,64.57538367916666,68.0,100.0
217,64.64650431666666,65.0171937,53.0,89.0
218,64.90512481666667,65.29305556666667,60.0,117.0
219,64.90512481666667,65.39434859583334,68.0,113.0
220,63.87064281666667,65.55814157916667,41.0,98.0
221,65.16374531666666,65.60340016666667,53.0,114.0
222,65.42236581666667,65.66158977916668,65.0,117.0
223,65.68098631666668,65.8512448125,68.0,107.0
224,65.93960681666667,66.43960645,54.0,92.0
225,65.93960681666667,66.72193382916667,66.0,107.0
226,65.93960681666667,66.74564070833334,58.0,87.0
227,65.93960681666667,66.75210622083334,61.0,94.0
228,66.71546831666667,67.07107150416667,54.0,114.0
229,66.97408881666667,67.39865747083334,58.0,116.0
230,66.97408881666667,67.58184699166667,66.0,113.0
231,65.93960681666667,67.7391744625,42.0,91.0
232,67.23270931666667,67.849088175,54.0,104.0
233,67.49132981666666,67.85770885833334,61.0,93.0
234,68.00857081666668,68.53227732916667,60.0,107.0
235,68.00857081666668,68.55813937916668,68.0,107.0
236,68.00857081666668,68.57322557500001,63.0,110.0
237,68.78443231666667,68.93098393333334,60.0,100.0
238,68.52581181666667,69.05598384166667,56.0,113.0
239,69.04305281666667,69.39650083333333,68.0,117.0
240,68.00857081666668,69.55382830416667,44.0,102.0
241,68.26719131666667,69.5624489875,51.0,87.0
242,69.30167331666667,69.72839714166668,56.0,116.0
243,69.56029381666667,69.89003495416667,63.0,117.0
244,69.81891431666666,69.96762110416667,68.0,94.0
245,70.07753481666667,70.13572442916667,61.0,102.0
246,70.07753481666667,70.538741375,65.0,110.0
247,70.07753481666667,70.60555167083334,68.0,102.0
248,70.85339631666668,71.17451677083334,61.0,92.0
249,71.11201681666667,71.62063713333333,73.0,110.0
250,71.11201681666667,71.74563704166667,65.0,117.0
251,71.37063731666667,71.8447749,61.0,94.0
252,70.07753481666667,71.85986109583334,49.0,100.0
253,70.59477581666667,71.8641714375,56.0,77.0
254,71.62925781666667,71.8900334875,68.0,100.0
255,71.88787831666667,72.02796442083334,73.0,93.0
256,72.14649881666666,72.67020532916666,63.0,107.0
257,72.14649881666666,72.91589480416667,72.0,96.0
258,72.14649881666666,72.930981,68.0,110.0
259,72.92236031666667,73.22408423333334,60.0,87.0
260,73.18098081666668,73.56891156666667,63.0,119.0
261,73.43960131666667,73.6227908375,60.0,92.0
262,73.18098081666668,73.63356669166667,72.0,113.0
263,72.14649881666666,73.68744596250001,53.0,91.0
264,73.69822181666667,74.07106637083334,68.0,119.0
265,74.21546281666667,74.7930486,66.0,116.0
266,74.21546281666667,74.80382445416667,70.0,116.0
267,74.21546281666667,74.81460030833334,61.0,108.0
268,74.21546281666667,74.87278992083334,42.0,96.0
269,74.73270381666667,75.18313452083333,54.0,88.0
270,75.24994481666667,75.79735820833334,68.0,104.0
271,75.24994481666667,75.80597889166667,60.0,98.0
272,75.24994481666667,75.814599575,63.0,114.0
273,75.24994481666667,75.94606499583334,44.0,96.0
274,75.76718581666667,76.02149597500001,51.0,88.0
275,76.02580631666667,76.18744412916666,60.0,96.0
276,76.02580631666667,76.202530325,63.0,110.0
277,76.02580631666667,76.21115100833333,68.0,110.0
278,76.28442681666667,76.68313342083334,61.0,102.0
279,76.28442681666667,76.9460642625,68.0,93.0
280,76.28442681666667,76.978391825,65.0,113.0
281,77.06028831666667,77.37709842916667,56.0,88.0
282,77.31890881666666,77.676667175,68.0,114.0
283,77.31890881666666,77.6895982,61.0,119.0
284,77.57752931666667,77.87278772083333,56.0,104.0
285,76.28442681666667,77.90511528333333,49.0,92.0
286,77.83614981666668,78.09477031666667,65.0,117.0
287,78.09477031666667,78.2779598375,68.0,104.0
288,78.35339081666667,78.47623555416666,58.0,89.0
289,78.35339081666667,79.12063163333333,68.0,87.0
290,78.35339081666667,79.15295919583333,61.0,91.0
291,79.12925231666667,79.45252794166667,58.0,89.0
292,79.38787281666667,79.9654586,61.0,117.0
293,79.38787281666667,79.99563099166667,68.0,116.0
294,79.90511381666667,80.02580338333334,58.0,87.0
295,78.87063181666667,80.05382060416667,53.0,81.0
296,78.35339081666667,80.10123436250001,46.0,98.0
297,80.42235481666667,80.961147525,65.0,110.0
298,80.42235481666667,81.21114734166667,60.0,104.0
299,80.42235481666667,81.23269905000001,68.0,98.0
300,81.19821631666667,81.52580228333333,53.0,113.0
301,81.45683681666667,81.86200893333334,60.0,116.0
302,81.45683681666667,81.92881922916666,68.0,110.0
303,80.42235481666667,82.00425020833333,41.0,91.0
304,81.71545731666667,82.073215675,53.0,116.0
305,81.97407781666666,82.3447672,65.0,119.0
306,82.49131881666666,83.05597357500001,54.0,94.0
307,82.49131881666666,83.314594075,66.0,104.0
308,82.49131881666666,83.33183544166667,58.0,91.0
309,82.49131881666666,83.34907680833334,61.0,107.0
310,83.26718031666667,83.63355935833334,54.0,92.0
311,83.52580081666667,84.09692108750001,58.0,113.0
312,83.52580081666667,84.10123142916667,66.0,114.0
313,82.49131881666666,84.24347270416666,42.0,88.0
314,83.78442131666667,84.38355880833333,54.0,98.0
315,84.04304181666667,84.40511051666667,61.0,87.0
316,84.56028281666667,85.35338568333334,60.0,100.0
317,84.56028281666667,85.3900235875,63.0,110.0
318,84.56028281666667,85.3900235875,68.0,107.0
319,85.33614431666668,85.66588545416667,51.0,88.0
320,85.59476481666667,85.93743697916668,68.0,113.0
321,85.59476481666667,85.9719197125,60.0,113.0
322,84.56028281666667,86.13571269583333,44.0,91.0
323,85.85338531666667,86.18097128333334,51.0,88.0
324,86.11200581666667,86.314591875,60.0,81.0
325,86.11200581666667,86.33614358333334,68.0,84.0
326,86.11200581666667,86.47838485833334,63.0,98.0
327,86.62924681666667,87.271487725,61.0,91.0
328,86.62924681666667,87.37924626666667,70.0,92.0
329,86.62924681666667,87.42234968333334,65.0,96.0
330,87.40510831666667,88.19174567083334,58.0,87.0
331,86.62924681666667,88.20683186666668,46.0,90.0
332,87.66372881666668,88.21329737916668,61.0,94.0
333,87.14648781666666,88.23915942916668,53.0,66.0
334,88.18096981666667,88.5322626625,65.0,89.0
335,88.43959031666667,88.5969177875,70.0,88.0
336,88.69821081666667,89.02579678333333,68.0,88.0
337,88.69821081666667,89.07321054166667,60.0,91.0
338,88.69821081666667,89.09476225,65.0,90.0
339,89.21545181666667,89.47191714583333,68.0,80.0
340,89.21545181666667,89.5344171,60.0,73.0
341,89.21545181666667,89.55812397916667,65.0,70.0
342,89.73269281666667,90.0451925875,68.0,83.0
343,89.73269281666667,90.116313225,60.0,87.0
344,90.24993381666667,90.3555371875,68.0,86.0
345,90.24993381666667,90.400795775,65.0,93.0
346,88.69821081666667,90.41157162916667,53.0,88.0
347,90.76717481666667,91.435277775,66.0,87.0
348,90.76717481666667,91.435277775,70.0,83.0
349,90.76717481666667,91.4676053375,61.0,82.0
350,90.76717481666667,91.5193294375,42.0,84.0
351,91.80165681666666,92.08613936666667,68.0,78.0
352,91.80165681666666,92.12924278333334,60.0,83.0
353,91.80165681666666,92.12924278333334,63.0,86.0
354,91.80165681666666,92.37708742916666,44.0,84.0
355,92.06027731666667,92.45467357916667,51.0,82.0
356,92.31889781666668,92.62924241666667,60.0,84.0
357,92.57751831666667,92.80596642500001,63.0,80.0
358,92.83613881666668,93.50855211666666,68.0,81.0
359,92.83613881666668,93.54519002083333,61.0,83.0
360,92.83613881666668,93.5688969,65.0,84.0
361,93.61200031666667,94.02148277500001,56.0,74.0
362,93.87062081666667,94.23268951666667,68.0,89.0
363,93.87062081666667,94.2994998125,61.0,93.0
364,94.12924131666666,94.39217215833334,56.0,87.0
365,92.83613881666668,94.51501689583334,49.0,84.0
366,94.38786181666667,94.7520856875,63.0,85.0
367,94.90510281666667,95.56027475,61.0,84.0
368,94.90510281666667,95.61630919166667,65.0,86.0
369,94.90510281666667,95.62061953333334,70.0,87.0
370,95.68096431666667,95.9999296,58.0,84.0
371,95.93958481666667,96.24130873333334,70.0,100.0
372,95.93958481666667,96.28010180833334,61.0,102.0
373,96.19820531666667,96.41156722916666,58.0,84.0
374,95.42234381666667,96.46113615833333,53.0,64.0
375,94.90510281666667,96.50639474583333,46.0,86.0
376,96.45682581666667,96.64217050833334,70.0,89.0
377,96.45682581666667,96.79087729583334,65.0,91.0
378,96.97406681666666,97.2607045375,68.0,89.0
379,96.97406681666666,97.26932522083334,65.0,89.0
380,96.97406681666666,97.28225624583334,60.0,89.0
381,97.49130781666668,97.76932485416667,68.0,86.0
382,97.49130781666668,97.79303173333334,60.0,84.0
383,97.74992831666667,98.03225569583334,53.0,86.0
384,98.00854881666667,98.31889341666667,60.0,104.0
385,98.00854881666667,98.33828995416667,68.0,98.0
386,96.97406681666666,98.59260011250001,41.0,86.0
387,98.26716931666667,98.63354835833334,53.0,100.0
388,98.52578981666667,98.7865654875,65.0,108.0
389,99.04303081666667,99.66156484583334,66.0,84.0
390,99.04303081666667,99.76501304583334,61.0,81.0
391,99.04303081666667,99.78871992500001,58.0,77.0
392,99.81889231666668,100.58613313333333,54.0,77.0
393,99.04303081666667,100.80596055833334,42.0,86.0
394,100.07751281666667,100.84044329166667,66.0,88.0
395,100.07751281666667,100.84475363333334,58.0,84.0
396,100.07751281666667,100.99130525000001,61.0,86.0
397,101.88785631666667,102.9244934875,51.0,54.0
398,101.11199481666667,102.95682105,60.0,81.0
399,101.11199481666667,102.9826831,63.0,80.0
400,101.11199481666667,102.99345895416667,68.0,83.0
401,101.11199481666667,103.02363134583334,44.0,82.0
402,103.18095881666667,103.91587207083333,68.0,81.0
403,103.18095881666667,103.96328582916667,65.0,83.0
404,103.18095881666667,104.01500992916667,61.0,79.0
405,104.21544081666667,104.53871644166666,68.0,84.0
406,104.21544081666667,104.57104400416667,61.0,83.0
407,103.18095881666667,104.8770782625,49.0,82.0
408,104.73268181666667,104.99992300000001,65.0,84.0
409,104.47406131666668,105.28009520833334,56.0,74.0
410,105.24992281666667,105.99130158333334,60.0,83.0
411,105.24992281666667,105.99130158333334,65.0,83.0
412,104.99130231666668,106.0279394875,68.0,82.0
413,106.28440481666667,106.91586987083333,68.0,82.0
414,106.28440481666667,106.91802504166667,60.0,84.0
415,105.24992281666667,107.25423169166667,48.0,76.0
416,107.06026631666667,107.37061091666668,68.0,87.0
417,107.31888681666668,108.07966212083333,61.0,82.0
418,107.31888681666668,108.08612763333333,65.0,88.0
419,108.09474831666667,108.81673054583334,58.0,82.0
420,107.83612781666668,108.87707532916667,53.0,58.0
421,108.35336881666667,108.89431669583334,70.0,92.0
422,107.31888681666668,108.94173045416667,46.0,77.0
423,108.35336881666667,108.94819596666667,61.0,89.0
424,108.87060981666667,109.33612671666667,65.0,83.0
425,109.38785081666667,110.17233300000001,68.0,87.0
426,109.38785081666667,110.20250539166668,60.0,82.0
427,110.42233281666667,110.74991878333334,60.0,94.0
428,110.16371231666668,111.02362547916667,53.0,74.0
429,110.68095331666667,111.27147012500001,68.0,108.0
430,110.93957381666667,111.40509071666668,65.0,89.0
431,109.38785081666667,111.43741827916666,44.0,83.0
432,111.45681481666666,112.23267631666667,58.0,83.0
433,111.45681481666666,112.241297,66.0,85.0
434,111.45681481666666,112.27146939166667,61.0,86.0
435,112.49129681666668,112.81241727083334,58.0,81.0
436,111.45681481666666,113.07750328333334,42.0,80.0
437,112.49129681666668,113.2563824625,61.0,79.0
438,112.49129681666668,113.39431339583334,66.0,84.0
439,111.45681481666666,113.39646856666667,54.0,78.0
440,113.52577881666667,114.26715758333334,68.0,84.0
441,113.52577881666667,114.28439895000001,65.0,86.0
442,114.56026081666667,114.87491575833334,60.0,88.0
443,114.81888131666668,115.09689835416667,65.0,81.0
444,115.07750181666667,115.21758792083334,68.0,91.0
445,113.52577881666667,115.53655320416667,53.0,86.0
446,115.59474281666667,116.31672504583334,66.0,86.0
447,115.59474281666667,116.3210353875,58.0,83.0
448,115.59474281666667,116.3468974375,63.0,87.0
449,116.62922481666668,117.11413825416668,58.0,89.0
450,117.14646581666668,117.51500002916667,63.0,88.0
451,115.59474281666667,117.530086225,51.0,81.0
452,117.66370681666668,118.24775811250001,60.0,85.0
453,117.66370681666668,118.24775811250001,68.0,87.0
454,117.66370681666668,118.25422362500001,63.0,88.0
455,118.43956831666667,118.6486198875,61.0,88.0
456,118.18094781666667,118.78655082083334,56.0,87.0
457,118.69818881666667,119.1658608875,63.0,104.0
458,118.95680931666666,119.43956758333334,56.0,86.0
459,117.66370681666668,119.49775719583334,44.0,84.0
460,119.21542981666667,119.50853305000001,61.0,83.0
461,117.92232731666667,119.7089639375,51.0,84.0
462,119.73267081666667,120.892152725,60.0,87.0
463,119.73267081666667,120.98698024166667,68.0,86.0
464,119.47405031666668,121.03008365833334,63.0,84.0
465,119.73267081666667,121.30810069583333,44.0,86.0
466,121.02577331666667,121.3382730875,60.0,91.0
467,119.73267081666667,121.43741094583334,56.0,84.0
468,121.28439381666666,121.6227556375,63.0,108.0
469,121.80163481666668,122.59473768333334,65.0,94.0
470,121.80163481666668,122.61413422083334,73.0,91.0
471,121.80163481666668,122.6378411,68.0,104.0
472,122.57749631666667,122.99559945833334,61.0,87.0
473,121.80163481666668,123.39430606250001,49.0,92.0
474,122.83611681666667,123.60551280416666,73.0,96.0
475,122.83611681666667,123.607667975,65.0,107.0
476,122.83611681666667,123.65077139166667,68.0,114.0
477,123.35335781666667,123.75206442083334,61.0,80.0
478,123.87059881666667,124.64430514583334,65.0,102.0
479,123.87059881666667,124.65939134166668,72.0,102.0
480,123.87059881666667,124.66801202500001,68.0,110.0
481,124.64646031666668,124.94171872083334,60.0,89.0
482,124.90508081666667,125.31240810416668,65.0,116.0
483,125.16370131666667,125.34904600833333,60.0,100.0
484,123.87059881666667,125.3792184,53.0,89.0
485,124.90508081666667,125.41370113333333,72.0,107.0
486,125.42232181666667,125.46111489166667,65.0,81.0
487,125.42232181666667,125.79732154166668,68.0,116.0
488,125.93956281666667,126.4977520625,61.0,100.0
489,125.93956281666667,126.51283825833333,70.0,108.0
490,125.93956281666667,126.52576928333333,66.0,114.0
491,125.93956281666667,126.77792427083334,42.0,90.0
492,126.71542431666667,126.86844144583334,70.0,107.0
493,126.45680381666668,127.00206203750001,54.0,86.0
494,126.97404481666668,127.53438923333334,68.0,104.0
495,126.97404481666668,127.56456162500001,60.0,88.0
496,126.97404481666668,127.60550987083334,63.0,91.0
497,126.97404481666668,127.64430294583333,44.0,87.0
498,127.74990631666667,127.92878549583334,60.0,91.0
499,127.74990631666667,127.96973374166667,68.0,96.0
500,127.49128581666668,128.00637164583333,56.0,86.0
501,128.00852681666666,128.37706102916667,61.0,88.0
502,128.00852681666666,128.66369875,65.0,93.0
503,128.00852681666666,128.70680216666668,68.0,91.0
504,128.78438831666668,129.09257774583332,56.0,87.0
505,129.04300881666668,129.3684396125,61.0,116.0
506,129.04300881666668,129.4589567875,68.0,110.0
507,129.30162931666666,129.59904289166667,56.0,91.0
508,128.00852681666666,129.62490494166667,49.0,86.0
509,129.56024981666667,129.8080944625,65.0,113.0
510,130.07749081666668,130.8037833875,61.0,91.0
511,130.07749081666668,130.8167144125,70.0,94.0
512,130.07749081666668,130.85335231666667,65.0,102.0
513,130.85335231666667,131.26714511666668,58.0,92.0
514,131.11197281666668,131.58180005833333,61.0,107.0
515,131.11197281666668,131.59473108333333,70.0,102.0
516,131.37059331666669,131.59688625416666,58.0,91.0
517,130.59473181666667,131.7089551375,53.0,73.0
518,130.07749081666668,131.71326547916667,46.0,91.0
519,131.62921381666666,131.857661925,61.0,70.0
520,131.62921381666666,131.97835149166667,65.0,90.0
521,132.14645481666668,132.53869590833335,65.0,104.0
522,132.14645481666668,132.85119567916666,68.0,100.0
523,132.92231631666667,133.2930057,53.0,89.0
524,133.18093681666667,133.56886756666668,60.0,117.0
525,133.18093681666667,133.67016059583335,68.0,113.0
526,132.14645481666668,133.83395357916666,41.0,98.0
527,133.43955731666668,133.87921216666666,53.0,114.0
528,133.69817781666669,133.93740177916666,65.0,117.0
529,133.95679831666666,134.1270568125,68.0,107.0
530,134.21541881666667,134.71541845000002,54.0,92.0
531,134.21541881666667,134.99774582916666,66.0,107.0
532,134.21541881666667,135.02145270833333,58.0,87.0
533,134.21541881666667,135.02791822083333,61.0,94.0
534,134.99128031666666,135.34688350416667,54.0,114.0
535,135.24990081666667,135.67446947083334,58.0,116.0
536,135.24990081666667,135.85765899166668,66.0,113.0
537,134.21541881666667,136.01498646250002,42.0,91.0
538,135.50852131666667,136.124900175,54.0,104.0
539,135.76714181666668,136.13352085833333,61.0,93.0
540,136.28438281666666,136.80808932916668,60.0,107.0
541,136.28438281666666,136.83395137916668,68.0,107.0
542,136.28438281666666,136.849037575,63.0,110.0
543,137.06024431666668,137.20679593333332,60.0,100.0
544,136.80162381666668,137.33179584166666,56.0,113.0
545,137.31886481666666,137.67231283333334,68.0,117.0
546,136.28438281666666,137.82964030416667,44.0,102.0
547,136.54300331666667,137.8382609875,51.0,87.0
548,137.57748531666667,138.00420914166668,56.0,116.0
549,137.83610581666667,138.16584695416668,63.0,117.0
550,138.09472631666668,138.24343310416668,68.0,94.0
551,138.35334681666666,138.41153642916666,61.0,102.0
552,138.35334681666666,138.814553375,65.0,110.0
553,138.35334681666666,138.88136367083334,68.0,102.0
554,139.12920831666668,139.45032877083335,61.0,92.0
555,139.38782881666668,139.89644913333333,73.0,110.0
556,139.38782881666668,140.02144904166667,65.0,117.0
557,139.64644931666666,140.1205869,61.0,94.0
558,138.35334681666666,140.13567309583334,49.0,100.0
559,138.87058781666667,140.1399834375,56.0,77.0
560,139.90506981666667,140.1658454875,68.0,100.0
561,140.16369031666667,140.30377642083334,73.0,93.0
562,140.42231081666668,140.94601732916666,63.0,107.0
563,140.42231081666668,141.19170680416667,72.0,96.0
564,140.42231081666668,141.206793,68.0,110.0
565,141.19817231666667,141.49989623333335,60.0,87.0
566,141.45679281666668,141.84472356666666,63.0,119.0
567,141.71541331666668,141.8986028375,60.0,92.0
568,141.45679281666668,141.90937869166666,72.0,113.0
569,140.42231081666668,141.9632579625,53.0,91.0
570,141.97403381666666,142.34687837083334,68.0,119.0
571,142.49127481666667,143.0688606,66.0,116.0
572,142.49127481666667,143.07963645416666,70.0,116.0
573,142.49127481666667,143.09041230833333,61.0,108.0
574,142.49127481666667,143.14860192083333,42.0,96.0
575,143.00851581666666,143.45894652083334,54.0,88.0
576,143.52575681666667,144.07317020833335,68.0,104.0
577,143.52575681666667,144.08179089166669,60.0,98.0
578,143.52575681666667,144.09041157500002,63.0,114.0
579,143.52575681666667,144.22187699583333,44.0,96.0
580,144.04299781666668,144.297307975,51.0,88.0
581,144.30161831666666,144.46325612916667,60.0,96.0
582,144.30161831666666,144.478342325,63.0,110.0
583,144.30161831666666,144.48696300833333,68.0,110.0
584,144.56023881666667,144.95894542083334,61.0,102.0
585,144.56023881666667,145.22187626250002,68.0,93.0
586,144.56023881666667,145.25420382500002,65.0,113.0
587,145.33610031666666,145.65291042916667,56.0,88.0
588,145.59472081666667,145.952479175,68.0,114.0
589,145.59472081666667,145.9654102,61.0,119.0
590,145.85334131666667,146.14859972083335,56.0,104.0
591,144.56023881666667,146.18092728333335,49.0,92.0
592,146.11196181666668,146.37058231666668,65.0,117.0
593,146.37058231666668,146.5537718375,68.0,104.0
594,146.62920281666666,146.75204755416667,58.0,89.0
595,146.62920281666666,147.39644363333335,68.0,87.0
596,146.62920281666666,147.42877119583335,61.0,91.0
597,147.40506431666668,147.72833994166666,58.0,89.0
598,147.66368481666666,148.2412706,61.0,117.0
599,147.66368481666666,148.27144299166667,68.0,116.0
600,148.18092581666667,148.30161538333334,58.0,87.0
601,147.14644381666668,148.32963260416668,53.0,81.0
602,146.62920281666666,148.3770463625,46.0,98.0
603,148.69816681666669,149.236959525,65.0,110.0
604,148.69816681666669,149.48695934166668,60.0,104.0
605,148.69816681666669,149.50851105,68.0,98.0
606,149.47402831666668,149.80161428333335,53.0,113.0
607,149.73264881666668,150.13782093333333,60.0,116.0
608,149.73264881666668,150.20463122916667,68.0,110.0
609,148.69816681666669,150.28006220833333,41.0,91.0
610,149.99126931666666,150.349027675,53.0,116.0
611,150.24988981666667,150.6205792,65.0,119.0
612,150.76713081666668,151.331785575,54.0,94.0
613,150.76713081666668,151.590406075,66.0,104.0
614,150.76713081666668,151.60764744166667,58.0,91.0
615,150.76713081666668,151.62488880833334,61.0,107.0
616,151.54299231666667,151.90937135833335,54.0,92.0
617,151.80161281666668,152.3727330875,58.0,113.0
618,151.80161281666668,152.37704342916666,66.0,114.0
619,150.76713081666668,152.51928470416667,42.0,88.0
620,152.06023331666668,152.65937080833334,54.0,98.0
621,152.31885381666666,152.68092251666667,61.0,87.0
622,152.83609481666667,153.62919768333333,60.0,100.0
623,152.83609481666667,153.6658355875,63.0,110.0
624,152.83609481666667,153.6658355875,68.0,107.0
625,153.61195631666666,153.94169745416667,51.0,88.0
626,153.87057681666667,154.21324897916668,68.0,113.0
627,153.87057681666667,154.2477317125,60.0,113.0
628,152.83609481666667,154.41152469583335,44.0,91.0
629,154.12919731666668,154.45678328333335,51.0,88.0
630,154.38781781666668,154.590403875,60.0,81.0
631,154.38781781666668,154.61195558333333,68.0,84.0
632,154.38781781666668,154.75419685833333,63.0,98.0
633,155.42229981666668,156.4072128875,56.0,72.0
634,155.93954081666666,156.46109215833334,68.0,87.0
635,154.90505881666667,156.48048869583334,49.0,91.0
636,155.93954081666666,156.54083347916668,63.0,89.0
637,156.45678181666668,156.75635056250002,65.0,86.0
638,156.97402281666666,157.57962582083334,60.0,83.0
639,156.97402281666666,157.70247055833335,68.0,86.0
640,156.97402281666666,158.53005615833334,41.0,85.0
641,158.0085048166667,158.547297525,65.0,89.0
642,157.74988431666668,158.599021625,53.0,81.0
643,158.52574581666667,159.09255574583335,68.0,84.0
644,159.04298681666668,159.76065870416667,42.0,88.0
645,159.56022781666667,160.10979637916668,49.0,78.0
646,160.07746881666668,160.79298553333334,44.0,86.0
647,160.59470981666666,161.0106577875,51.0,76.0
648,161.62919181666666,162.28436375,56.0,70.0
649,162.14643281666667,162.70677723333333,68.0,92.0
650,162.14643281666667,162.75419099166666,63.0,89.0
651,162.66367381666666,162.95246670833333,65.0,72.0
652,161.11195081666668,162.969708075,49.0,88.0
653,163.18091481666667,163.67444893750002,61.0,83.0
654,163.18091481666667,163.72401786666668,70.0,87.0
655,163.18091481666667,163.73048337916669,65.0,83.0
656,163.69815581666668,164.72617230416668,53.0,66.0
657,163.18091481666667,164.83393084583335,46.0,84.0
658,164.21539681666667,164.86410323750002,70.0,92.0
659,164.21539681666667,164.9136721666667,61.0,92.0
660,165.24987881666667,165.94599899583335,68.0,88.0
661,165.24987881666667,165.99987826666668,60.0,87.0
662,166.02574031666668,166.43737794583333,53.0,81.0
663,166.28436081666666,166.771429425,60.0,91.0
664,165.24987881666667,166.80806732916668,41.0,87.0
665,166.28436081666666,167.05160163333335,65.0,104.0
666,166.80160181666668,167.11194641666668,53.0,80.0
667,167.31884281666666,168.05375607083334,66.0,98.0
668,167.31884281666666,168.07961812083335,58.0,92.0
669,168.09470431666668,168.62918668333333,54.0,81.0
670,168.35332481666669,168.89427269583334,58.0,104.0
671,168.35332481666669,168.94815196666667,66.0,104.0
672,167.31884281666666,168.96754850416667,42.0,89.0
673,168.87056581666667,169.21539315,54.0,87.0
674,169.38780681666668,169.88996162083333,68.0,98.0
675,169.38780681666668,169.900737475,60.0,104.0
676,170.16366831666667,170.32530612916668,63.0,100.0
677,170.16366831666667,170.38349574166668,58.0,100.0
678,169.90504781666667,170.469702575,56.0,113.0
679,170.42228881666668,170.71539205000002,60.0,114.0
680,170.42228881666668,170.76496097916666,63.0,110.0
681,169.38780681666668,170.96970220833333,44.0,94.0
682,170.93952981666666,171.00418494166667,68.0,92.0
683,169.64642731666666,171.02142630833333,51.0,91.0
684,170.68090931666669,171.09901245833333,56.0,117.0
685,170.93952981666666,171.2261675375,60.0,116.0
686,171.19815031666667,171.33608125,63.0,100.0
687,171.45677081666668,171.76496024583335,61.0,114.0
688,171.45677081666668,172.06883933333333,65.0,116.0
689,171.45677081666668,172.25202885416667,68.0,108.0
690,172.23263231666667,172.58823550416668,61.0,94.0
691,172.49125281666667,173.13133855416666,65.0,110.0
692,173.0084938166667,173.16797645833333,61.0,84.0
693,171.45677081666668,173.236941925,49.0,100.0
694,172.49125281666667,173.34470046666667,68.0,104.0
695,171.97401181666666,173.43306247083333,56.0,81.0
696,173.52573481666667,174.08176889166668,53.0,93.0
697,173.52573481666667,174.28435495,65.0,107.0
698,173.52573481666667,174.30806182916666,60.0,100.0
699,173.52573481666667,174.31452734166666,68.0,96.0
700,174.04297581666668,174.34685490416666,63.0,86.0
701,174.56021681666667,174.8727165875,68.0,108.0
702,174.56021681666667,174.9115096625,60.0,114.0
703,174.81883731666667,175.15719913750002,63.0,108.0
704,174.30159631666666,175.23478528750002,53.0,110.0
705,175.07745781666668,175.3813369041667,65.0,90.0
706,175.59469881666666,176.133491525,66.0,102.0
707,175.59469881666666,176.16150874583334,70.0,104.0
708,175.59469881666666,176.2240087,61.0,94.0
709,176.11193981666668,176.47831885833335,54.0,86.0
710,175.59469881666666,176.5257326166667,42.0,104.0
711,176.62918081666666,177.19599074583334,68.0,98.0
712,176.62918081666666,177.21754245416668,63.0,110.0
713,176.62918081666666,177.22831830833334,60.0,100.0
714,176.62918081666666,177.35331821666668,44.0,89.0
715,177.14642181666667,177.61840422916669,56.0,86.0
716,177.40504231666668,177.76064550416666,60.0,100.0
717,177.40504231666668,177.90288677916666,68.0,93.0
718,177.40504231666668,177.97185224583333,63.0,108.0
719,178.18090381666667,178.35331748333334,61.0,94.0
720,177.92228331666666,178.74555857500002,56.0,88.0
721,178.43952431666668,179.00848941666666,61.0,92.0
722,178.43952431666668,179.02573078333333,68.0,102.0
723,178.43952431666668,179.03866180833333,65.0,107.0
724,178.95676531666666,179.22831684166667,56.0,94.0
725,177.6636628166667,179.34900640833334,49.0,92.0
726,179.21538581666667,179.4761614875,68.0,88.0
727,179.21538581666667,179.52573041666668,61.0,114.0
728,179.47400631666667,179.6184027625,65.0,87.0
729,179.73262681666668,180.47400558333334,61.0,102.0
730,179.73262681666668,180.49124695,70.0,110.0
731,179.73262681666668,180.51495382916667,65.0,110.0
732,180.50848831666667,180.82960877083335,58.0,104.0
733,180.24986781666667,180.85331565,53.0,78.0
734,180.76710881666668,181.1809016166667,61.0,117.0
735,181.02572931666668,181.18736712916666,53.0,89.0
736,179.73262681666668,181.26926362083333,46.0,88.0
737,180.76710881666668,181.33607391666666,70.0,110.0
738,181.28434981666666,181.59253924583334,65.0,110.0
739,181.54297031666667,181.61193578333334,68.0,88.0
740,181.80159081666667,182.13564229583335,68.0,100.0
741,181.80159081666667,182.14426297916668,60.0,110.0
742,181.80159081666667,182.14857332083335,65.0,113.0
743,182.3188318166667,182.59038334166667,65.0,87.0
744,182.3188318166667,182.5925385125,68.0,86.0
745,182.3188318166667,182.59684885416667,60.0,83.0
746,182.57745231666667,183.0515899,53.0,119.0
747,181.80159081666667,183.37702069583335,41.0,107.0
748,183.09469331666668,183.44814133333335,68.0,91.0
749,183.09469331666668,183.45460684583335,65.0,98.0
750,183.09469331666668,183.46538270000002,60.0,91.0
751,183.35331381666668,183.47184821250002,53.0,117.0
752,183.87055481666667,184.60977841250002,66.0,102.0
753,183.87055481666667,184.6270197791667,58.0,107.0
754,183.87055481666667,184.63779563333335,61.0,108.0
755,184.6464163166667,185.18951936666667,54.0,96.0
756,183.87055481666667,185.47400191666668,42.0,107.0
757,184.90503681666667,185.54943289583335,66.0,104.0
758,184.90503681666667,185.55805357916668,58.0,110.0
759,185.42227781666668,185.8899498875,54.0,88.0
760,185.68089831666668,186.57313904166668,60.0,84.0
761,185.68089831666668,186.5882252375,63.0,83.0
762,185.93951881666666,186.76063890416668,68.0,88.0
763,186.71538031666668,187.04512145416666,61.0,74.0
764,186.45675981666668,187.73262095,56.0,85.0
765,186.19813931666667,187.77572436666668,51.0,82.0
766,185.93951881666666,187.80158641666668,44.0,88.0
767,186.97400081666666,188.06882760000002,63.0,78.0
768,186.97400081666666,188.10977584583335,68.0,70.0
769,190.07744681666668,191.77787660416666,49.0,89.0
770,190.59468781666666,192.00416954166667,56.0,65.0
771,191.11192881666668,192.1097729125,63.0,71.0
772,192.14641081666667,193.68951313333335,48.0,84.0
773,192.6636518166667,193.70890967083335,56.0,66.0
774,193.18089281666667,193.71968552500002,63.0,77.0
775,193.69813381666668,193.965375,49.0,88.0
776,193.95675431666666,194.1658058875,48.0,87.0
777,195.24985681666666,195.79727020833334,58.0,75.0
778,194.73261581666668,195.840373625,53.0,66.0
779,194.21537481666667,195.95459767916668,46.0,89.0
780,195.76709781666668,196.57528687916667,61.0,74.0
781,197.57744131666666,197.857613525,63.0,88.0
782,197.3188208166667,197.87485489166667,56.0,76.0
783,196.80157981666667,197.93951001666667,51.0,65.0
784,196.28433881666666,197.95244104166667,44.0,81.0
785,197.83606181666667,198.43519930833335,68.0,100.0
786,198.87054381666667,199.92226718333333,49.0,70.0
787,199.12916431666667,199.92226718333333,54.0,78.0
788,199.6464053166667,199.9459740625,58.0,67.0
789,198.35330281666668,199.96106025833333,42.0,90.0
790,199.90502581666667,200.24985315,61.0,82.0
791,200.16364631666667,200.4308875,66.0,86.0
792,200.42226681666668,200.87485269166666,65.0,85.0
793,201.45674881666667,201.71321414583335,60.0,80.0
794,200.42226681666668,201.98907601250002,41.0,83.0
795,201.71536931666668,202.01493806250002,65.0,81.0
796,201.19812831666667,202.073127675,53.0,74.0
797,201.9739898166667,202.280024075,68.0,88.0
798,202.23261031666667,203.08174762500002,63.0,70.0
799,202.49123081666667,203.26709231666666,70.0,82.0
800,203.26709231666666,204.05804001250002,58.0,65.0
801,202.49123081666667,204.12700547916668,51.0,83.0
802,204.04295381666668,204.74122916666667,66.0,82.0
803,203.78433331666668,204.97829795833334,63.0,75.0
804,205.85329731666667,206.04726269166667,61.0,82.0
805,205.59467681666666,206.46536583333335,56.0,70.0
806,205.07743581666668,206.48476237083335,51.0,67.0
807,204.56019481666667,206.49984856666669,44.0,80.0
808,206.11191781666668,206.61838296250002,63.0,83.0
