,start,end,pitch,velocity
0,2.5839047124999994,3.335617216666666,41.0,76.0
1,2.5839047124999994,3.3407542041666662,60.0,58.0
2,2.5839047124999994,3.3493158499999995,53.0,52.0
3,2.5839047124999994,3.363014483333333,57.0,66.0
4,2.9948637124999995,3.4640419041666664,48.0,58.0
5,3.4058227124999996,4.953768279166666,60.0,96.0
6,3.4058227124999996,4.989727191666666,53.0,92.0
7,3.4058227124999996,5.017124458333333,57.0,89.0
8,4.638699712499999,5.268836845833333,48.0,38.0
9,3.4058227124999996,5.337330012499999,41.0,96.0
10,5.049658712499999,5.909247954166666,57.0,82.0
11,5.4606177124999995,5.916097270833332,53.0,42.0
12,5.049658712499999,5.933220562499999,60.0,89.0
13,6.693494712499999,8.191782733333332,59.0,90.0
14,6.693494712499999,8.200344379166665,55.0,89.0
15,6.693494712499999,8.202056708333332,52.0,92.0
16,6.282535712499999,8.537673224999999,47.0,50.0
17,5.8715767125,8.626714341666666,40.0,96.0
18,8.748289712499998,9.155824054166665,52.0,56.0
19,8.337330712499998,9.155824054166665,55.0,73.0
20,8.337330712499998,9.155824054166665,59.0,83.0
21,9.159248712499998,9.626714575,50.0,77.0
22,9.159248712499998,9.803084479166666,69.0,90.0
23,9.159248712499998,9.808221466666666,62.0,93.0
24,9.159248712499998,9.830481745833332,65.0,92.0
25,9.981166712499999,10.410961333333331,67.0,96.0
26,9.981166712499999,10.428084624999999,64.0,96.0
27,9.981166712499999,10.597605212499998,60.0,100.0
28,9.981166712499999,10.748290179166665,48.0,92.0
29,10.803084712499999,11.239728649999998,65.0,77.0
30,10.803084712499999,11.246577966666665,58.0,112.0
31,10.803084712499999,11.256851941666666,62.0,83.0
32,10.803084712499999,11.575345166666665,46.0,112.0
33,11.625002712499999,12.128427487499998,60.0,102.0
34,11.625002712499999,12.148975437499999,56.0,93.0
35,11.625002712499999,12.184934349999999,63.0,102.0
36,11.625002712499999,12.368153570833332,44.0,83.0
37,12.446920712499999,12.900687941666664,55.0,97.0
38,12.446920712499999,12.979455083333331,59.0,88.0
39,12.446920712499999,12.993153716666665,62.0,88.0
40,13.268838712499997,15.268839179166665,55.0,88.0
41,12.857879712499999,15.342469333333332,50.0,66.0
42,12.446920712499999,15.467469362499997,43.0,88.0
43,14.090756712499998,15.493154299999999,62.0,65.0
44,14.090756712499998,15.522263895833332,67.0,66.0
45,13.679797712499997,15.527400883333332,59.0,85.0
46,17.378428712499996,18.375004287499998,48.0,64.0
47,16.556510712499996,19.04623732083333,36.0,70.0
48,16.967469712499998,19.049661979166665,43.0,45.0
49,17.789387712499998,19.101031854166663,55.0,63.0
50,18.6113057125,19.17979899583333,48.0,65.0
51,19.4332237125,19.917812866666665,55.0,66.0
52,19.022264712499997,19.943497804166665,60.0,76.0
53,18.200346712499996,19.974319729166663,64.0,92.0
54,20.666100712499997,21.652402312499998,57.0,85.0
55,21.0770597125,22.027402399999996,60.0,78.0
56,21.898977712499995,22.296238079166663,57.0,63.0
57,20.2551417125,22.30308739583333,52.0,65.0
58,19.844182712499997,22.32363534583333,45.0,81.0
59,21.488018712499997,23.19692322083333,69.0,89.0
60,22.309936712499997,23.22260815833333,64.0,70.0
61,22.720895712499996,23.23288213333333,60.0,68.0
62,23.953772712499998,24.962334591666664,50.0,48.0
63,25.186649712499996,25.62158132083333,50.0,50.0
64,24.364731712499996,25.669526537499998,53.0,69.0
65,23.542813712499996,25.768841629166662,45.0,55.0
66,23.131854712499997,25.787677249999998,38.0,59.0
67,25.597608712499998,26.503430841666663,57.0,72.0
68,26.008567712499996,26.506855499999997,53.0,67.0
69,24.775690712499998,26.763704874999995,62.0,85.0
70,26.830485712499996,27.970896937499997,38.0,50.0
71,26.419526712499998,27.993157216666663,31.0,72.0
72,27.241444712499995,28.345897024999996,43.0,66.0
73,28.474321712499997,28.92466428333333,47.0,59.0
74,27.652403712499996,28.986308133333328,50.0,75.0
75,28.885280712499995,29.71062337083333,55.0,68.0
76,29.296239712499997,29.71576035833333,50.0,58.0
77,28.063362712499995,29.761993245833327,59.0,88.0
78,30.529116712499995,31.479459399999996,53.0,85.0
79,30.940075712499997,31.93493895833333,57.0,76.0
80,31.761993712499997,32.12158283749999,53.0,74.0
81,30.118157712499997,32.2037746375,48.0,65.0
82,29.707198712499995,32.24829519583333,41.0,72.0
83,32.1729527125,33.386994091666665,60.0,77.0
84,32.5839117125,33.390418749999995,57.0,70.0
85,31.351034712499995,33.390418749999995,65.0,79.0
86,33.81678871249999,34.86815882083333,47.0,37.0
87,32.994870712499996,35.47432334583333,35.0,72.0
88,34.2277477125,35.50000828333333,52.0,65.0
89,33.405829712499994,35.54110418333333,43.0,46.0
90,35.049665712499994,35.614734337499996,47.0,59.0
91,35.8715837125,36.27911805416666,52.0,73.0
92,35.46062471249999,36.27911805416666,55.0,69.0
93,34.638706712499996,36.27911805416666,59.0,89.0
94,36.282542712499996,37.41267996249999,38.0,85.0
95,37.309940212499995,37.41267996249999,57.0,19.0
96,36.693501712499994,37.421241608333325,45.0,42.0
97,37.10446071249999,37.421241608333325,50.0,72.0
98,37.5154197125,37.93322802916666,53.0,85.0
99,37.9263787125,39.044529658333325,31.0,69.0
100,38.337337712499995,39.056515962499994,38.0,50.0
101,38.74829671249999,39.22774887916666,43.0,45.0
102,39.15925571249999,39.61987225833333,55.0,72.0
103,38.74829671249999,39.660968158333326,59.0,83.0
104,40.39213271249999,41.47774940416666,48.0,74.0
105,41.625009712499995,41.89555772083333,48.0,54.0
106,40.80309171249999,42.113023524999996,52.0,72.0
107,39.5702147125,42.35959892499999,36.0,72.0
108,39.981173712499995,42.484598954166664,43.0,50.0
109,42.035968712499994,42.832201774999994,55.0,71.0
110,42.44692771249999,42.84247574999999,52.0,50.0
111,41.2140507125,42.892133295833325,60.0,92.0
112,42.8578867125,42.892133295833325,60.0,55.0
113,42.8578867125,43.469188224999996,67.0,69.0
114,43.268845712499996,43.87329790833333,55.0,67.0
115,43.679804712499994,44.08733905416666,64.0,83.0
116,43.679804712499994,44.136996599999996,60.0,71.0
117,44.09076371249999,44.70206522499999,55.0,58.0
118,44.50172271249999,45.01370913333333,67.0,72.0
119,44.50172271249999,45.01713379166666,60.0,74.0
120,44.912681712499996,45.36131195416666,55.0,47.0
121,42.8578867125,45.37843524583333,48.0,72.0
122,45.323640712499994,45.53596952916666,60.0,71.0
123,45.323640712499994,45.54624350416666,64.0,80.0
124,46.14555871249999,46.56850401666666,67.0,71.0
125,46.14555871249999,46.58220264999999,64.0,70.0
126,46.967476712499995,47.17809319999999,59.0,72.0
127,46.967476712499995,47.404120649999996,64.0,83.0
128,47.37843571249999,47.95035365416666,59.0,67.0
129,47.78939471249999,48.45377842916666,67.0,85.0
130,48.2003537125,48.455490758333326,59.0,74.0
131,48.611312712499995,48.76713466666666,67.0,87.0
132,48.611312712499995,48.794531933333325,64.0,87.0
133,48.611312712499995,48.811655224999996,59.0,93.0
134,46.14555871249999,48.82192919999999,40.0,72.0
135,46.556517712499996,48.86131277083333,47.0,39.0
136,49.02227171249999,49.16268270416666,59.0,93.0
137,49.43323071249999,49.64555952916666,57.0,68.0
138,49.43323071249999,49.88528561249999,62.0,71.0
139,49.84418971249999,50.30823091666666,57.0,68.0
140,49.43323071249999,50.34076517083333,50.0,74.0
141,50.255148712499995,50.61131317916666,65.0,87.0
142,50.255148712499995,50.64384743333333,62.0,72.0
143,50.66610771249999,51.14727220833333,57.0,93.0
144,51.07706671249999,51.54795723333333,62.0,83.0
145,51.07706671249999,51.61987505833333,66.0,63.0
146,51.48802571249999,51.95549157499999,57.0,87.0
147,51.07706671249999,51.97775185416666,38.0,80.0
148,51.898984712499995,52.25514917916666,62.0,90.0
149,51.898984712499995,52.279121787499996,66.0,74.0
150,52.309943712499994,52.41268346249999,57.0,87.0
151,52.72090271249999,53.226039816666656,59.0,69.0
152,52.72090271249999,53.261998729166656,55.0,68.0
153,53.542820712499996,53.89727284999999,62.0,83.0
154,53.953779712499994,54.41953324583333,55.0,95.0
155,54.36473871249999,55.02398544166666,62.0,80.0
156,54.77569771249999,55.15925944583333,55.0,71.0
157,55.18665671249999,55.59247872499999,67.0,74.0
158,55.18665671249999,55.62672530833333,62.0,87.0
159,53.13186171249999,55.64384859999999,50.0,55.0
160,52.72090271249999,55.690081487499995,43.0,74.0
161,55.597615712499994,55.82364316249999,55.0,95.0
162,56.00857471249999,56.83220504166666,60.0,60.0
163,56.41953371249999,56.96747904583332,48.0,71.0
164,56.83049271249999,57.532547670833324,57.0,87.0
165,57.65241071249999,58.12330123333332,60.0,80.0
166,57.65241071249999,58.15583548749999,65.0,80.0
167,58.06336971249999,58.325356074999995,57.0,45.0
168,58.47432871249999,58.61816436249999,57.0,74.0
169,58.47432871249999,58.62672600833333,65.0,80.0
170,57.241451712499995,58.63015066666666,48.0,51.0
171,58.47432871249999,58.63357532499999,60.0,80.0
172,56.00857471249999,58.65412327499999,41.0,80.0
173,59.29624671249999,60.095904433333324,55.0,80.0
174,59.29624671249999,60.19521952499999,59.0,72.0
175,59.70720571249999,60.27398666666666,47.0,61.0
176,60.11816471249999,60.59761687916666,52.0,90.0
177,60.52912371249999,61.10617864166666,47.0,51.0
178,60.94008271249999,61.431521183333324,59.0,74.0
179,60.94008271249999,61.50686366666666,52.0,87.0
180,61.76200071249999,61.86987744999999,55.0,71.0
181,61.76200071249999,61.87330210833333,52.0,72.0
182,59.29624671249999,61.880151424999994,40.0,69.0
183,61.35104171249999,61.89385005833333,47.0,41.0
184,61.76200071249999,61.91782266666666,59.0,83.0
185,62.583918712499994,63.15926131249999,57.0,69.0
186,62.583918712499994,63.15926131249999,62.0,68.0
187,63.40583671249999,63.54624770416666,57.0,87.0
188,62.583918712499994,63.57022031249999,38.0,64.0
189,62.99487771249999,63.587343604166655,45.0,60.0
190,63.40583671249999,63.80994639583332,65.0,87.0
191,63.81679571249999,63.91268614583333,57.0,95.0
192,64.22775471249999,64.77398771666665,55.0,67.0
193,64.22775471249999,64.839056225,62.0,72.0
194,65.0496727125,65.2243302875,55.0,83.0
195,65.0496727125,65.38871388749999,59.0,83.0
196,64.63871371249999,65.49145363749999,50.0,70.0
197,64.22775471249999,65.50343994166666,43.0,80.0
198,65.46063171249999,65.68837149166666,55.0,85.0
199,65.8715907125,66.06165924999999,55.0,80.0
200,65.8715907125,66.35104287916666,60.0,74.0
201,65.8715907125,66.5907689625,48.0,74.0
202,66.28254971249999,66.62501554583332,55.0,72.0
203,66.69350871249999,66.74145392916665,55.0,33.0
204,66.69350871249999,67.10960469999999,60.0,87.0
205,66.69350871249999,67.13015264999999,64.0,93.0
206,67.1044677125,67.19693348749999,55.0,83.0
207,67.51542671249999,68.1113172625,59.0,83.0
208,67.51542671249999,68.11474192083332,64.0,87.0
209,67.9263857125,68.53597489583332,47.0,69.0
210,68.33734471249998,69.11645448333333,59.0,83.0
211,68.33734471249998,69.13529010416666,64.0,103.0
212,68.33734471249998,69.14042709166665,68.0,74.0
213,68.74830371249999,69.17638600416666,47.0,68.0
214,67.51542671249999,69.18837230833333,40.0,87.0
215,69.57022171249999,69.83905739166666,57.0,100.0
216,69.7757012125,69.97261906666665,60.0,79.0
217,69.36474221249999,70.10789307083333,52.0,83.0
218,69.1592627125,70.62672880833333,45.0,97.0
219,70.18666021249999,70.74487952083332,52.0,82.0
220,69.98118071249999,70.77741377499999,64.0,102.0
221,70.59761921249999,70.78940007916665,57.0,97.0
222,70.3921397125,70.80138638333332,60.0,88.0
223,71.2140577125,71.69179754999999,57.0,88.0
224,71.41953721249999,71.89214006249999,64.0,92.0
225,71.8304962125,71.99487981249999,57.0,86.0
226,71.00857821249998,72.02227707916666,52.0,78.0
227,70.80309871249999,72.04282502916665,45.0,90.0
228,72.03597571249999,72.41782511666666,69.0,99.0
229,71.62501671249998,72.44008539583332,72.0,107.0
230,72.24145521249999,72.47946896666666,64.0,92.0
231,72.85789371249999,73.3510445125,52.0,86.0
232,73.0633732125,73.50172947916666,55.0,93.0
233,73.47433221249999,73.69351034583332,52.0,79.0
234,72.4469347125,73.96919534166666,40.0,93.0
235,73.67981171249998,74.06851043333333,59.0,92.0
236,73.8852912125,74.08220906666665,55.0,96.0
237,73.26885271249999,74.10446934583332,64.0,97.0
238,72.65241421249999,74.10960633333332,47.0,69.0
239,74.5017297125,74.99488051249999,52.0,90.0
240,74.70720921249999,75.02227777916666,64.0,95.0
241,75.1181682125,75.29282578749999,52.0,99.0
242,74.09077071249999,75.52056556666666,40.0,79.0
243,75.32364771249999,75.66440121666666,67.0,95.0
244,74.91268871249999,75.66782587499999,71.0,127.0
245,74.29625021249998,75.71234643333332,47.0,83.0
246,75.52912721249999,75.71919574999998,64.0,97.0
247,76.14556571249999,76.61645623333332,53.0,83.0
248,76.35104521249998,76.67467542499999,57.0,82.0
249,76.76200421249999,77.10789470416665,53.0,89.0
250,75.7346067125,77.16782622499998,41.0,89.0
251,75.94008621249999,77.28083994999999,48.0,77.0
252,76.96748371249998,77.34248379999998,60.0,88.0
253,76.55652471249999,77.3578947625,64.0,97.0
254,77.1729632125,77.36474407916666,57.0,83.0
255,77.7894017125,78.04796341666666,57.0,97.0
256,77.99488121249999,78.19864838333332,60.0,93.0
257,77.58392221249998,78.29625114583332,52.0,89.0
258,78.4058402125,78.52570325416666,52.0,69.0
259,77.37844271249999,78.54796353333332,45.0,90.0
260,78.20036071249999,78.88700470833332,64.0,97.0
261,78.61131971249999,78.88871703749999,60.0,99.0
262,78.81679921249999,79.11816914583332,57.0,96.0
263,79.43323771249999,79.88871727083333,50.0,78.0
264,79.63871721249998,80.01200497083332,57.0,78.0
265,79.22775821249999,80.12673102499998,45.0,79.0
266,79.02227871249998,80.12844335416665,38.0,77.0
267,80.04967621249999,80.29967627083332,50.0,78.0
268,80.25515571249998,80.57536126666666,62.0,96.0
269,79.8441967125,80.57878592499999,65.0,102.0
270,80.4606352125,80.70549828333333,57.0,97.0
271,81.0770737125,81.36988199999999,55.0,92.0
272,81.28255321249999,81.51885463749998,59.0,99.0
273,80.87159421249999,81.57022451249999,50.0,66.0
274,81.69351221249998,81.811662925,50.0,72.0
275,80.66611471249999,81.82707388749999,43.0,83.0
276,81.48803271249999,82.20036164583333,62.0,100.0
277,81.89899171249999,82.22090959583332,59.0,89.0
278,82.10447121249999,82.3407726375,55.0,83.0
279,82.72090971249999,83.21063585416665,48.0,79.0
280,82.92638921249998,83.26200572916666,55.0,89.0
281,82.30995071249998,83.41782768333333,36.0,88.0
282,82.5154302125,83.46234824166666,43.0,66.0
283,83.33734821249999,83.59590991666666,48.0,83.0
284,83.54282771249999,83.907553825,60.0,96.0
285,83.1318687125,83.92296478749999,64.0,99.0
286,83.7483072125,83.99659494166666,55.0,96.0
287,84.36474571249998,84.85960884166666,52.0,85.0
288,84.57022521249999,84.87844446249998,55.0,92.0
289,84.15926621249999,85.13871849583332,47.0,58.0
290,84.98118421249998,85.13871849583332,52.0,82.0
291,83.95378671249999,85.19351302916665,40.0,81.0
292,85.18666371249999,85.54282817916665,59.0,93.0
293,84.77570471249999,85.57536243333332,64.0,99.0
294,85.39214321249999,85.58392407916665,55.0,93.0
295,86.00858171249999,86.50173251249998,50.0,82.0
296,86.21406121249998,86.69693803749999,57.0,90.0
297,85.59762271249998,87.10104772083332,38.0,92.0
298,86.62502021249999,87.26885597916666,50.0,82.0
299,85.8031022125,87.28084228333333,45.0,58.0
300,86.4195407125,87.69351361249998,65.0,102.0
301,87.03597921249998,87.71234923333333,57.0,99.0
302,86.83049971249999,87.81508898333333,62.0,90.0
303,87.65241771249998,88.15755481666666,50.0,88.0
304,87.85789721249999,88.20207537499999,57.0,97.0
305,87.24145871249999,88.49830832083332,38.0,77.0
306,87.44693821249999,88.52913024583331,45.0,83.0
307,88.06337671249999,88.79967825416665,65.0,112.0
308,88.4743357125,88.82193853333332,62.0,117.0
309,88.26885621249998,88.83563716666666,50.0,102.0
310,88.67981521249999,88.88871937083331,57.0,107.0
311,89.29625371249999,89.55139075833333,53.0,86.0
312,89.50173321249999,89.72604833333332,57.0,99.0
313,89.0907742125,89.74317162499999,48.0,89.0
314,88.88529471249998,90.05995252083332,41.0,82.0
315,89.91269221249999,90.16440459999998,48.0,95.0
316,89.70721271249998,90.42810329166666,60.0,102.0
317,90.11817171249999,90.43324027916665,57.0,112.0
318,90.32365121249998,90.47947316666665,53.0,96.0
319,91.14556921249999,91.40926790416665,62.0,66.0
320,90.73461021249999,91.45207613333332,54.0,88.0
321,90.94008971249998,91.46577476666666,57.0,93.0
322,91.55652821249998,91.79625429583332,54.0,90.0
323,90.52913071249999,91.81851457499998,42.0,99.0
324,91.7620077125,92.07365162083332,62.0,92.0
325,91.35104871249999,92.08392559583332,66.0,102.0
326,91.96748721249999,92.10618587499998,57.0,99.0
327,92.58392571249999,92.97433676249999,55.0,88.0
328,92.78940521249999,93.01543266249999,59.0,88.0
329,92.37844621249998,93.10961076666665,50.0,65.0
330,92.17296671249998,93.59591224999998,43.0,70.0
331,93.20036421249999,93.75858352083333,50.0,68.0
332,93.40584371249999,93.77570681249999,59.0,92.0
333,92.99488471249998,93.78426845833332,62.0,99.0
334,93.61132321249998,93.78769311666666,55.0,97.0
335,94.22776171249998,94.73974813333332,55.0,73.0
336,94.4332412125,94.96235092499998,62.0,89.0
337,94.84420021249998,95.05139204166666,55.0,78.0
338,94.02228221249999,95.10276191666665,50.0,65.0
339,93.81680271249999,95.15070713333331,43.0,74.0
340,95.04967971249998,95.42296747083331,67.0,90.0
341,94.63872071249999,95.43837843333333,71.0,107.0
342,95.25515921249999,95.45721405416666,62.0,88.0
343,95.87159771249999,96.24146081249998,57.0,88.0
344,96.07707721249999,96.30824164999999,60.0,70.0
345,95.66611821249998,96.38700879166666,52.0,83.0
346,95.46063871249999,96.92468014999999,45.0,97.0
347,96.48803621249999,97.07365278749998,52.0,66.0
348,96.89899521249998,97.14214595416665,57.0,83.0
349,96.69351571249999,97.15584458749998,60.0,88.0
350,96.28255671249998,97.17468020833331,64.0,97.0
351,97.51543371249998,98.01885848749998,57.0,78.0
352,98.13187221249999,98.24146127916666,57.0,81.0
353,97.30995421249999,98.25515991249999,52.0,69.0
354,97.1044747125,98.29283115416665,45.0,81.0
355,97.72091321249998,98.35447500416666,64.0,88.0
356,97.92639271249999,98.76200934583332,72.0,107.0
357,98.33735171249998,98.76885866249998,69.0,92.0
358,98.54283121249999,98.81337922083333,64.0,97.0
359,99.15926971249999,99.67810544999999,52.0,79.0
360,99.36474921249999,99.87844796249999,55.0,77.0
361,99.77570821249999,100.10276308333331,52.0,69.0
362,98.74831071249999,100.24146174583332,40.0,69.0
363,100.18666721249998,100.42810562499999,55.0,83.0
364,99.98118771249999,100.42810562499999,59.0,86.0
365,98.95379021249998,100.44522891666665,47.0,66.0
366,99.57022871249998,100.47947549999999,64.0,99.0
367,101.00858521249998,101.25516061249999,64.0,72.0
368,100.80310571249998,101.30824281666665,52.0,76.0
369,101.41954421249999,101.58564014166666,52.0,72.0
370,101.21406471249999,101.67639358749999,67.0,69.0
371,100.39214671249998,101.85790047916666,40.0,69.0
372,101.62502371249998,101.93666762083332,64.0,93.0
373,101.21406471249999,101.99146215416665,71.0,93.0
374,100.59762621249999,102.01372243333331,47.0,63.0
375,101.83050321249999,102.02399640833332,67.0,86.0
376,102.44694171249999,102.69180478333332,53.0,82.0
377,102.65242121249999,102.91611990416665,57.0,86.0
378,102.24146221249998,102.96235279166665,48.0,52.0
379,102.03598271249999,103.32879123333332,41.0,78.0
380,103.06338021249998,103.37331179166665,48.0,74.0
381,103.26885971249999,103.52570908749999,53.0,88.0
382,103.47433921249998,103.64728445833332,57.0,81.0
383,102.85790071249998,103.65242144583331,60.0,96.0
384,104.09077771249999,104.34933941666665,57.0,82.0
385,104.29625721249998,104.51886000416665,60.0,95.0
386,103.88529821249999,104.59933947499998,52.0,67.0
387,104.70721621249999,104.84249021666665,52.0,59.0
388,103.67981871249998,104.84933953333332,45.0,59.0
389,104.50173671249999,105.21406564583332,64.0,93.0
390,104.91269571249998,105.22091496249999,60.0,92.0
391,105.11817521249999,105.34762732083333,57.0,89.0
392,105.73461371249998,106.20550423333331,50.0,73.0
393,105.94009321249999,106.25002479166665,57.0,76.0
394,105.32365471249999,106.46064127916665,38.0,78.0
395,105.52913421249998,106.50687416666665,45.0,48.0
396,106.35105221249998,106.62844953749999,50.0,74.0
397,106.55653171249999,106.87331260833332,62.0,86.0
398,106.14557271249998,106.92125782499998,65.0,90.0
399,106.76201121249998,106.97262769999999,57.0,88.0
400,107.37844971249999,107.62331278333332,55.0,77.0
401,107.58392921249998,107.84077858749998,59.0,85.0
402,107.17297021249999,107.94009367916665,50.0,70.0
403,107.99488821249999,108.11646358333331,50.0,56.0
404,106.96749071249998,108.15755948333332,43.0,69.0
405,108.40584721249998,108.45721708749998,43.0,34.0
406,107.78940871249999,108.46406640416666,62.0,95.0
407,108.20036771249998,108.46920339166665,59.0,93.0
408,108.40584721249998,109.10276518333332,55.0,88.0
409,109.02228571249998,109.48461458749999,48.0,77.0
410,109.22776521249999,109.72776532916666,55.0,89.0
411,109.63872421249998,109.90071057499999,48.0,85.0
412,109.84420371249999,109.91954619583332,55.0,29.0
413,108.61132671249999,110.14899830416665,36.0,69.0
414,108.81680621249998,110.31166957499998,43.0,64.0
415,110.04968321249999,110.75002584166666,55.0,76.0
416,109.43324471249998,110.89557382083332,64.0,76.0
417,110.25516271249998,110.92125875833332,58.0,107.0
418,109.84420371249999,110.93324506249998,60.0,99.0
419,110.66612171249999,111.19180676666664,48.0,82.0
420,110.25516271249998,111.44865614166665,36.0,86.0
421,110.46064221249999,111.46577943333332,43.0,72.0
422,111.28256021249999,111.79283430416665,48.0,86.0
423,111.07708071249998,111.84420417916665,64.0,93.0
424,110.87160121249998,111.85447815416666,55.0,86.0
425,111.69351921249998,111.92468364999998,58.0,102.0
426,111.48803971249998,111.92982063749999,60.0,82.0
427,112.51543721249999,112.78427289166665,57.0,86.0
428,112.30995771249998,112.81680714583332,53.0,86.0
429,112.92639621249998,113.13872502916665,53.0,78.0
430,111.89899871249999,113.42468399999998,41.0,74.0
431,112.72091671249999,113.52571142083332,60.0,93.0
432,113.13187571249999,113.53598539583332,64.0,64.0
433,112.10447821249998,113.61304020833332,48.0,69.0
434,113.33735521249999,113.76372517499999,57.0,78.0
435,113.95379371249999,114.47434177916665,53.0,68.0
436,114.15927321249998,114.58050618749998,57.0,83.0
437,114.57023221249999,114.68153360833331,53.0,78.0
438,113.74831421249998,114.71235553333332,48.0,75.0
439,113.54283471249998,114.71406786249999,41.0,74.0
440,114.36475271249998,115.04968437916665,65.0,90.0
441,114.77571171249998,115.14557481249999,60.0,92.0
442,114.98119121249998,115.20036934583332,57.0,92.0
443,115.80310921249999,116.04112296666665,53.0,82.0
444,115.59762971249998,116.09591749999998,50.0,78.0
445,115.18667071249999,116.31680796249998,38.0,62.0
446,115.39215021249998,116.33564358333332,45.0,66.0
447,116.21406821249998,116.42468469999999,50.0,78.0
448,116.00858871249999,116.50858882916665,57.0,97.0
449,116.41954771249998,116.66269845416664,53.0,92.0
450,116.62502721249999,116.77913683749999,57.0,97.0
451,117.24146571249999,117.44865754166665,55.0,79.0
452,117.44694521249998,117.66441101666665,59.0,88.0
453,117.03598621249998,117.72434253749998,50.0,58.0
454,117.85790421249999,117.98804122916665,50.0,58.0
455,116.83050671249998,118.01030150833331,43.0,71.0
456,117.65242471249998,118.35276734166665,62.0,93.0
457,118.06338371249998,118.37845227916665,59.0,90.0
458,118.26886321249998,118.52742491666665,55.0,81.0
459,118.88530171249998,119.35790456249998,48.0,73.0
460,119.09078121249998,119.45721965416665,55.0,88.0
461,119.50174021249998,119.70037039583332,48.0,82.0
462,118.47434271249999,119.95037045416665,36.0,74.0
463,119.70721971249998,120.15071296666665,62.0,88.0
464,118.67982221249999,120.16612392916664,43.0,52.0
465,119.29626071249999,121.55995987083331,64.0,97.0
466,120.11817871249998,121.56680918749998,36.0,78.0
467,120.11817871249998,121.57708316249999,60.0,79.0
468,122.58393271249999,123.56167266666665,48.0,68.0
469,122.99489171249998,123.93667275416665,55.0,68.0
470,122.17297371249998,124.15756321666665,43.0,64.0
471,121.76201471249998,124.21407007916665,36.0,85.0
472,123.81680971249999,124.34078243749998,48.0,53.0
473,124.63872771249999,124.83564556666666,47.0,55.0
474,124.22776871249998,125.28770046666665,60.0,89.0
475,123.40585071249998,125.28941279583331,64.0,93.0
476,125.87160471249999,126.44009799583331,57.0,88.0
477,125.46064571249998,126.79968712083331,52.0,55.0
478,126.28256371249998,126.86475562916665,59.0,65.0
479,127.10448171249998,127.59763251249998,52.0,63.0
480,125.04968671249998,127.67126266666665,45.0,59.0
481,127.51544071249998,128.05996138749998,59.0,67.0
482,126.69352271249998,128.10619427499998,64.0,83.0
483,127.92639971249999,128.37845461249998,60.0,63.0
484,128.3373587125,129.87845496249997,38.0,72.0
485,128.74831771249998,129.9794823833333,45.0,45.0
486,129.5702357125,130.0325645875,50.0,73.0
487,129.15927671249997,130.60277019999998,57.0,82.0
488,129.98119471249998,130.77914010416666,54.0,63.0
489,129.98119471249998,131.08222236666666,38.0,59.0
490,130.39215371249998,131.12674292499997,45.0,51.0
491,130.8031127125,131.23119500416664,50.0,48.0
492,131.2140717125,131.64215400416666,54.0,76.0
493,130.8031127125,131.65756496666665,57.0,82.0
494,132.4469487125,132.91270224583332,55.0,93.0
495,132.85790771249998,133.29455165,59.0,95.0
496,132.03598971249997,133.34249686666664,50.0,66.0
497,133.26886671249997,133.9349627583333,62.0,107.0
498,133.6798257125,133.982907975,59.0,72.0
499,133.4743462125,134.15927787916664,50.0,67.0
500,133.8853052125,134.38872998749997,55.0,78.0
501,134.29626421249998,134.5120176875,50.0,64.0
502,131.62503071249998,134.53427796666665,43.0,76.0
503,134.50174371249997,134.88359311666665,59.0,96.0
504,134.09078471249998,134.90756572499998,62.0,92.0
505,134.70722321249997,134.92468901666666,55.0,75.0
506,135.73462071249998,136.11304545833332,60.0,97.0
507,136.1455797125,136.75859355416665,53.0,75.0
508,136.5565387125,137.19523749166666,65.0,96.0
509,136.96749771249998,137.37674438333332,53.0,75.0
510,135.32366171249998,137.46064851249997,48.0,50.0
511,134.9127027125,137.5770868958333,41.0,90.0
512,137.37845671249997,138.256881575,69.0,92.0
513,137.37845671249997,138.26201856249997,65.0,95.0
514,137.7894157125,138.26373089166665,60.0,72.0
515,139.43325171249998,139.96236142499998,55.0,86.0
516,139.0222927125,140.01715595833332,52.0,72.0
517,139.84421071249997,140.47948483333332,59.0,74.0
518,140.2551697125,140.57537526666664,52.0,62.0
519,138.20037471249998,140.77400544999998,40.0,81.0
520,138.61133371249997,140.77571777916665,47.0,41.0
521,139.84421071249997,141.46921109166664,64.0,85.0
522,141.07708771249997,141.50517000416664,55.0,69.0
523,140.66612871249998,141.51030699166665,59.0,88.0
524,141.4880467125,142.39215651249998,38.0,78.0
525,141.89900571249999,142.4572250208333,45.0,45.0
526,142.30996471249998,142.77058125833332,53.0,79.0
527,142.72092371249997,143.1301703833333,57.0,88.0
528,143.54284171249998,144.13530760416666,50.0,71.0
529,143.1318827125,144.18667747916663,43.0,77.0
530,143.95380071249997,144.77743104166666,59.0,85.0
531,144.3647597125,145.05482836666664,55.0,74.0
532,145.8031162125,146.03428064999997,48.0,61.0
533,144.77571871249998,146.26202042916665,36.0,69.0
534,146.00859571249998,146.2842807083333,62.0,100.0
535,145.5976367125,146.30311632916664,64.0,99.0
536,145.18667771249997,146.38188347083332,43.0,39.0
537,146.21407521249998,146.53941775416664,60.0,86.0
538,146.41955471249997,147.23804805416665,36.0,92.0
539,146.8305137125,147.2928425875,48.0,102.0
540,147.0359932125,147.5428426458333,55.0,97.0
541,146.62503421249997,147.92982903749999,43.0,90.0
542,147.44695221249998,147.97263726666665,48.0,96.0
543,147.24147271249998,148.05140440833333,35.0,95.0
544,147.65243171249998,148.07366468749998,60.0,117.0
545,147.24147271249998,148.0873633208333,64.0,117.0
546,147.85791121249997,148.09934962499997,55.0,78.0
547,148.4743497125,148.74318539166666,57.0,100.0
548,148.67982921249998,148.87674706666664,60.0,79.0
549,148.2688702125,149.0120210708333,52.0,83.0
550,148.06339071249997,149.5308568083333,45.0,97.0
551,149.09078821249997,149.64900752083332,52.0,82.0
552,148.88530871249998,149.68154177499997,64.0,102.0
553,149.5017472125,149.69352807916664,57.0,97.0
554,149.29626771249997,149.7055143833333,60.0,88.0
555,150.11818571249998,150.59592554999998,57.0,88.0
556,150.32366521249998,150.7962680625,64.0,92.0
557,150.73462421249997,150.89900781249997,57.0,86.0
558,149.91270621249998,150.92640507916664,52.0,78.0
559,149.7072267125,150.94695302916665,45.0,90.0
560,150.9401037125,151.32195311666663,69.0,99.0
561,150.52914471249997,151.34421339583332,72.0,107.0
562,151.1455832125,151.38359696666666,64.0,92.0
563,151.76202171249997,152.25517251249997,52.0,86.0
564,151.96750121249997,152.40585747916666,55.0,93.0
565,152.3784602125,152.5976383458333,52.0,79.0
566,151.35106271249998,152.87332334166663,40.0,93.0
567,152.58393971249998,152.97263843333332,59.0,92.0
568,152.78941921249998,152.98633706666664,55.0,96.0
569,152.1729807125,153.00859734583332,64.0,97.0
570,151.55654221249998,153.0137343333333,47.0,69.0
571,153.40585771249997,153.8990085125,52.0,90.0
572,153.6113372125,153.92640577916666,64.0,95.0
573,154.02229621249998,154.19695378749998,52.0,99.0
574,152.99489871249997,154.42469356666663,40.0,79.0
575,154.22777571249998,154.56852921666663,67.0,95.0
576,153.81681671249999,154.571953875,71.0,127.0
577,153.20037821249997,154.6164744333333,47.0,83.0
578,154.43325521249997,154.62332374999997,64.0,97.0
579,155.0496937125,155.52058423333332,53.0,83.0
580,155.25517321249998,155.578803425,57.0,82.0
581,155.66613221249997,156.01202270416664,53.0,89.0
582,154.63873471249997,156.07195422499998,41.0,89.0
583,154.8442142125,156.18496795,48.0,77.0
584,155.87161171249997,156.24661179999998,60.0,88.0
585,155.46065271249998,156.26202276249998,64.0,97.0
586,156.07709121249997,156.26887207916664,57.0,83.0
587,156.69352971249998,156.95209141666663,57.0,97.0
588,156.89900921249998,157.10277638333332,60.0,93.0
589,156.48805021249999,157.20037914583332,52.0,89.0
590,157.30996821249997,157.42983125416666,52.0,69.0
591,156.2825707125,157.45209153333332,45.0,90.0
592,157.10448871249997,157.79113270833332,64.0,97.0
593,157.5154477125,157.79284503749997,60.0,99.0
594,157.7209272125,158.0222971458333,57.0,96.0
595,158.33736571249997,158.7928452708333,50.0,78.0
596,158.54284521249997,158.9161329708333,57.0,78.0
597,158.13188621249998,159.03085902499998,45.0,79.0
598,157.92640671249998,159.03257135416663,38.0,77.0
599,158.9538042125,159.2038042708333,50.0,78.0
600,159.15928371249998,159.47948926666663,62.0,96.0
601,158.74832471249997,159.482913925,65.0,102.0
602,159.36476321249998,159.6096262833333,57.0,97.0
603,159.98120171249997,160.27400999999998,55.0,92.0
604,160.1866812125,160.42298263749998,59.0,99.0
605,159.77572221249997,160.4743525125,50.0,66.0
606,160.59764021249998,160.71579092499996,50.0,72.0
607,159.57024271249998,160.73120188749996,43.0,83.0
608,160.3921607125,161.1044896458333,62.0,100.0
609,160.80311971249998,161.1250375958333,59.0,89.0
610,161.00859921249997,161.24490063749997,55.0,83.0
611,161.6250377125,162.11476385416665,48.0,79.0
612,161.83051721249998,162.16613372916663,55.0,89.0
613,161.21407871249997,162.3219556833333,36.0,88.0
614,161.41955821249996,162.36647624166665,43.0,66.0
615,162.24147621249998,162.50003791666666,48.0,83.0
616,162.44695571249997,162.81168182499997,60.0,96.0
617,162.03599671249998,162.82709278749996,64.0,99.0
618,162.65243521249997,162.90072294166666,55.0,96.0
619,163.26887371249998,163.76373684166666,52.0,85.0
620,163.47435321249998,163.78257246249999,55.0,92.0
621,163.0633942125,164.04284649583332,47.0,58.0
622,163.88531221249997,164.04284649583332,52.0,82.0
623,162.8579147125,164.09764102916665,40.0,81.0
624,164.09079171249996,164.44695617916665,59.0,93.0
625,163.67983271249997,164.4794904333333,64.0,99.0
626,164.2962712125,164.48805207916664,55.0,93.0
627,164.91270971249998,165.40586051249997,50.0,82.0
628,165.11818921249997,165.60106603749998,57.0,90.0
629,164.50175071249998,166.0051757208333,38.0,92.0
630,165.5291482125,166.17298397916664,50.0,82.0
631,164.70723021249998,166.1849702833333,45.0,58.0
632,165.32366871249997,166.59764161249998,65.0,102.0
633,165.94010721249998,166.6164772333333,57.0,99.0
634,165.7346277125,166.7192169833333,62.0,90.0
635,166.55654571249997,167.06168281666663,50.0,88.0
636,166.76202521249996,167.10620337499998,57.0,97.0
637,166.14558671249998,167.40243632083332,38.0,77.0
638,166.35106621249997,167.43325824583331,45.0,83.0
639,166.9675047125,167.70380625416664,65.0,112.0
640,167.37846371249998,167.72606653333332,62.0,117.0
641,167.17298421249998,167.73976516666664,50.0,102.0
642,167.58394321249997,167.7928473708333,57.0,107.0
643,168.2003817125,168.4555187583333,53.0,86.0
644,168.40586121249999,168.6301763333333,57.0,99.0
645,167.99490221249997,168.647299625,48.0,89.0
646,167.78942271249997,168.9640805208333,41.0,82.0
647,168.81682021249998,169.06853259999997,48.0,95.0
648,168.61134071249998,169.33223129166663,60.0,102.0
649,169.02229971249997,169.33736827916664,57.0,112.0
650,169.22777921249997,169.38360116666664,53.0,96.0
651,170.04969721249998,170.31339590416664,62.0,66.0
652,169.6387382125,170.3562041333333,54.0,88.0
653,169.84421771249998,170.36990276666666,57.0,93.0
654,170.46065621249997,170.70038229583332,54.0,90.0
655,169.43325871249996,170.72264257499998,42.0,99.0
656,170.66613571249997,170.9777796208333,62.0,92.0
657,170.25517671249997,170.98805359583332,66.0,102.0
658,170.8716152125,171.01031387499998,57.0,99.0
659,171.48805371249998,171.8784647625,55.0,88.0
660,171.69353321249997,171.91956066249998,59.0,88.0
661,171.28257421249998,172.01373876666665,50.0,65.0
662,171.07709471249999,172.50004024999998,43.0,70.0
663,172.10449221249996,172.6627115208333,50.0,68.0
664,172.3099717125,172.67983481249996,59.0,92.0
665,171.89901271249997,172.6883964583333,62.0,99.0
666,172.51545121249998,172.69182111666663,55.0,97.0
667,173.13188971249997,173.64387613333332,55.0,73.0
668,173.33736921249996,173.86647892499997,62.0,89.0
669,173.74832821249998,173.95552004166663,55.0,78.0
670,172.92641021249997,174.00688991666664,50.0,65.0
671,172.72093071249998,174.0548351333333,43.0,74.0
672,173.95380771249998,174.3270954708333,67.0,90.0
673,173.5428487125,174.3425064333333,71.0,107.0
674,174.15928721249998,174.36134205416664,62.0,88.0
675,174.77572571249996,175.14558881249997,57.0,88.0
676,174.9812052125,175.21236964999997,60.0,70.0
677,174.57024621249997,175.29113679166664,52.0,83.0
678,174.36476671249997,175.82880815,45.0,97.0
679,175.39216421249998,175.97778078749997,52.0,66.0
680,175.80312321249997,176.04627395416665,57.0,83.0
681,175.59764371249997,176.05997258749997,60.0,88.0
682,175.18668471249998,176.0788082083333,64.0,97.0
683,176.41956171249998,176.92298648749997,57.0,78.0
684,177.03600021249997,177.14558927916664,57.0,81.0
685,176.2140822125,177.15928791249996,52.0,69.0
686,176.00860271249996,177.19695915416665,45.0,81.0
687,176.62504121249998,177.25860300416664,64.0,88.0
688,176.83052071249998,177.6661373458333,72.0,107.0
689,177.24147971249997,177.67298666249997,69.0,92.0
690,177.44695921249996,177.7175072208333,64.0,97.0
691,178.06339771249998,178.58223344999996,52.0,79.0
692,178.26887721249997,178.78257596249998,55.0,77.0
693,178.67983621249996,179.0068910833333,52.0,69.0
694,177.6524387125,179.14558974583332,40.0,69.0
695,179.09079521249998,179.332233625,55.0,83.0
696,178.8853157125,179.332233625,59.0,86.0
697,177.85791821249998,179.34935691666664,47.0,66.0
698,178.47435671249997,179.38360349999996,64.0,99.0
699,179.91271321249997,180.15928861249998,64.0,72.0
700,179.70723371249997,180.21237081666663,52.0,76.0
701,180.3236722125,180.48976814166664,52.0,72.0
702,180.11819271249996,180.5805215875,67.0,69.0
703,179.29627471249998,180.76202847916664,40.0,69.0
704,180.52915171249998,180.84079562083332,64.0,93.0
705,180.11819271249996,180.89559015416665,71.0,93.0
706,179.50175421249997,180.9178504333333,47.0,63.0
707,180.73463121249998,180.9281244083333,67.0,86.0
708,181.35106971249996,181.5959327833333,53.0,82.0
709,181.5565492125,181.82024790416665,57.0,86.0
710,181.14559021249997,181.86648079166665,48.0,52.0
711,180.94011071249997,182.23291923333332,41.0,78.0
712,181.96750821249998,182.27743979166664,48.0,74.0
713,182.17298771249997,182.42983708749998,53.0,88.0
714,182.37846721249997,182.55141245833332,57.0,81.0
715,181.76202871249998,182.5565494458333,60.0,96.0
716,182.99490571249999,183.25346741666664,57.0,82.0
717,183.20038521249998,183.42298800416665,60.0,95.0
718,182.78942621249996,183.50346747499998,52.0,67.0
719,183.61134421249997,183.74661821666663,52.0,59.0
720,182.58394671249997,183.75346753333332,45.0,59.0
721,183.40586471249998,184.11819364583332,64.0,93.0
722,183.81682371249997,184.12504296249998,60.0,92.0
723,184.02230321249996,184.2517553208333,57.0,89.0
724,184.63874171249998,185.10963223333331,50.0,73.0
725,184.84422121249997,185.15415279166663,57.0,76.0
726,184.2277827125,185.36476927916664,38.0,78.0
727,184.43326221249998,185.41100216666663,45.0,48.0
728,185.25518021249997,185.53257753749998,50.0,74.0
729,185.46065971249996,185.7774406083333,62.0,86.0
730,185.04970071249997,185.82538582499998,65.0,90.0
731,185.66613921249998,185.87675569999996,57.0,88.0
732,186.28257771249997,186.5274407833333,55.0,77.0
733,186.48805721249997,186.74490658749997,59.0,85.0
734,186.07709821249998,186.84422167916665,50.0,70.0
735,186.8990162125,187.0205915833333,50.0,56.0
736,185.87161871249998,187.06168748333332,43.0,69.0
737,187.30997521249998,187.36134508749998,43.0,34.0
738,186.69353671249996,187.36819440416664,62.0,95.0
739,187.10449571249998,187.37333139166665,59.0,93.0
740,187.30997521249998,188.00689318333332,55.0,88.0
741,187.92641371249996,188.38874258749996,48.0,77.0
742,188.13189321249996,188.63189332916664,55.0,89.0
743,188.54285221249998,188.80483857499996,48.0,85.0
744,188.74833171249998,188.82367419583332,55.0,29.0
745,187.51545471249997,189.05312630416665,36.0,69.0
746,187.72093421249997,189.21579757499998,43.0,64.0
747,188.95381121249997,189.65415384166664,55.0,76.0
748,188.33737271249998,189.79970182083332,64.0,76.0
749,189.15929071249997,189.8253867583333,58.0,107.0
750,188.74833171249998,189.83737306249998,60.0,99.0
751,189.5702497125,190.09593476666663,48.0,82.0
752,189.15929071249997,190.35278414166663,36.0,86.0
753,189.36477021249996,190.3699074333333,43.0,72.0
754,190.18668821249997,190.69696230416665,48.0,86.0
755,189.98120871249998,190.74833217916665,64.0,93.0
756,189.77572921249998,190.75860615416664,55.0,86.0
757,190.59764721249996,190.82881164999998,58.0,102.0
758,190.39216771249997,190.8339486375,60.0,82.0
759,191.41956521249998,191.68840089166665,57.0,86.0
760,191.21408571249998,191.7209351458333,53.0,86.0
761,191.83052421249997,192.04285302916665,53.0,78.0
762,190.80312671249996,192.32881199999997,41.0,74.0
763,191.62504471249997,192.4298394208333,60.0,93.0
764,192.03600371249996,192.4401133958333,64.0,64.0
765,191.00860621249998,192.51716820833332,48.0,69.0
766,192.2414832125,192.66785317499998,57.0,78.0
767,192.85792171249997,193.37846977916664,53.0,68.0
768,193.06340121249997,193.48463418749998,57.0,83.0
769,193.47436021249996,193.5856616083333,53.0,78.0
770,192.65244221249998,193.6164835333333,48.0,75.0
771,192.44696271249998,193.61819586249996,41.0,74.0
772,193.26888071249996,193.95381237916664,65.0,90.0
773,193.67983971249998,194.04970281249996,60.0,92.0
774,193.88531921249998,194.1044973458333,57.0,92.0
775,194.70723721249996,194.94525096666663,53.0,82.0
776,194.50175771249997,195.00004549999997,50.0,78.0
777,194.09079871249997,195.22093596249996,38.0,62.0
778,194.29627821249997,195.2397715833333,45.0,66.0
779,195.11819621249998,195.3288127,50.0,78.0
780,194.91271671249999,195.41271682916664,57.0,97.0
781,195.32367571249998,195.56682645416663,53.0,92.0
782,195.52915521249997,195.68326483749996,57.0,97.0
783,196.14559371249996,196.35278554166663,55.0,79.0
784,196.35107321249998,196.56853901666665,59.0,88.0
785,195.94011421249996,196.62847053749996,50.0,58.0
786,196.76203221249997,196.89216922916663,50.0,58.0
787,195.73463471249997,196.9144295083333,43.0,71.0
788,196.55655271249998,197.25689534166665,62.0,93.0
789,196.96751171249997,197.28258027916664,59.0,90.0
790,197.17299121249997,197.43155291666665,55.0,81.0
791,197.78942971249998,198.26203256249997,48.0,73.0
792,197.99490921249998,198.36134765416665,55.0,88.0
793,198.40586821249997,198.6044983958333,48.0,82.0
794,197.37847071249996,198.85449845416665,36.0,74.0
795,198.61134771249996,199.05484096666663,62.0,88.0
796,197.58395021249999,199.07025192916663,43.0,52.0
797,198.20038871249997,200.4640878708333,64.0,97.0
798,199.02230671249998,200.47093718749997,36.0,78.0
799,199.02230671249998,200.48121116249996,60.0,79.0
800,201.48806071249996,202.51545821249996,48.0,51.0
801,201.07710171249997,203.05655422916664,43.0,59.0
802,200.66614271249998,203.1250473958333,36.0,71.0
803,201.89901971249998,203.13703369999996,55.0,63.0
804,202.72093771249996,203.31340360416664,48.0,48.0
805,203.54285571249997,204.10278734999997,59.0,53.0
806,203.13189671249998,204.22265039166663,60.0,76.0
807,202.30997871249997,204.3014175333333,64.0,79.0
808,204.77573271249997,205.61991099166664,57.0,71.0
809,204.36477371249998,205.76888362916665,52.0,66.0
810,205.18669171249996,206.50176051249997,64.0,75.0
811,206.00860971249998,206.50689749999998,52.0,60.0
812,203.95381471249996,206.57539066666664,45.0,73.0
813,205.59765071249998,206.69696603749998,60.0,56.0
814,206.41956871249997,207.30313056249997,59.0,57.0
815,206.83052771249996,207.33566481666665,64.0,68.0
816,208.47436371249998,209.33737761249998,53.0,59.0
817,209.29628171249996,209.80484347499998,57.0,55.0
818,207.65244571249997,209.9315558333333,45.0,40.0
819,207.24148671249998,209.95039145416663,38.0,72.0
820,208.06340471249996,210.0599805208333,50.0,48.0
821,209.70724071249998,210.1986791833333,53.0,53.0
822,210.11819971249997,210.58224091666665,57.0,63.0
823,208.88532271249997,210.60107653749998,62.0,77.0
824,211.35107671249997,212.44867970833332,55.0,74.0
825,212.58395371249998,212.97436476249996,55.0,54.0
826,211.76203571249997,213.00176202916663,59.0,73.0
827,210.94011771249998,213.1113510958333,50.0,52.0
828,210.52915871249996,213.1729949458333,43.0,74.0
829,212.99491271249997,213.9384060833333,62.0,59.0
830,212.17299471249996,213.94183074166665,67.0,89.0
831,213.40587171249996,213.95552937499997,59.0,48.0
832,215.04970771249998,215.62505031249998,57.0,76.0
833,214.63874871249996,215.70895444166663,53.0,61.0
834,215.87162571249996,216.23806415416664,53.0,53.0
835,214.22778971249997,216.2962833458333,48.0,57.0
836,213.81683071249998,216.32881759999998,41.0,61.0
837,215.46066671249997,217.19696848749996,65.0,89.0
838,216.28258471249998,217.2106671208333,60.0,63.0
839,216.69354371249997,217.21237944999996,57.0,69.0
840,218.33737971249997,218.81683187916664,55.0,53.0
841,217.51546171249996,218.91785929999998,47.0,67.0
842,217.10450271249996,219.45553065833332,35.0,63.0
843,217.92642071249998,219.6096402833333,52.0,52.0
844,219.15929771249998,219.6455991958333,47.0,39.0
845,219.98121571249996,220.37162676249997,52.0,38.0
846,219.57025671249997,220.38875005416665,55.0,63.0
847,218.74833871249996,220.38875005416665,59.0,78.0
848,220.38361306666664,221.6849832333333,38.0,74.0
849,220.83566796666665,221.73464077916663,45.0,51.0
850,221.71238049999997,221.83566819999996,62.0,66.0
851,221.29285985416664,221.85279149166664,50.0,63.0
852,222.32539434166662,223.89046319999997,50.0,39.0
853,222.34422996249998,223.96751801249997,43.0,34.0
854,222.34594229166663,224.0325865208333,62.0,60.0
855,222.33395598749996,224.0479974833333,59.0,66.0
856,222.33909297499997,224.1404632583333,55.0,49.0
857,225.36477861249998,225.79628556249997,60.0,39.0
858,225.2962854458333,225.7997102208333,62.0,55.0
859,225.2243676208333,225.81169652499997,64.0,48.0
860,225.41101149999997,225.82881981666662,55.0,52.0
861,226.30484732499997,226.54286107916664,52.0,47.0
862,226.48977887499996,226.72608029999998,55.0,59.0
863,226.7089570083333,226.78943647916662,60.0,70.0
864,226.9401214458333,227.23121740416664,64.0,58.0
865,227.21066945416663,227.32197084999996,67.0,59.0
866,227.52745034999998,227.90073810833331,72.0,52.0
867,227.81512164999998,228.07882034166664,76.0,55.0
868,228.07710801249996,228.16443679999998,79.0,66.0
869,226.0873815208333,229.1182041458333,48.0,45.0
870,225.8716280458333,229.11991647499997,43.0,45.0
871,225.4503950708333,229.14046442499998,36.0,60.0
872,228.53601222916663,229.14902607083332,84.0,37.0
873,228.58738210416664,229.1541630583333,88.0,47.0
874,228.6610122583333,229.15758771666663,91.0,51.0
875,228.7380670708333,229.16786169166664,96.0,77.0
