,start,end,pitch,velocity
0,14.45529593125,14.90605305625,81.0,79.0
1,14.90984093125,15.36059805625,79.0,76.0
2,15.36438593125,15.815143056250001,81.0,84.0
3,15.81893093125,16.26968805625,84.0,86.0
4,16.27347593125,16.96727247291667,77.0,83.0
5,16.97114843125,17.199829972916667,74.0,79.0
6,17.203705931250003,17.66494497291667,84.0,94.0
7,17.66882093125,18.13005997291667,81.0,84.0
8,18.13393593125,18.595174972916666,81.0,82.0
9,18.59905093125,19.99051997291667,79.0,61.0
10,19.99439593125,20.45563497291667,77.0,93.0
11,20.45951093125,20.68819247291667,77.0,93.0
12,20.69206843125,20.920749972916667,74.0,95.0
13,20.924625931250002,21.382316789583335,77.0,84.0
14,21.386162931250002,21.613085289583335,79.0,83.0
15,21.616931431250002,21.843853789583335,81.0,73.0
16,21.847699931250002,22.55242442291667,77.0,83.0
17,22.556361431250004,22.788644922916667,74.0,82.0
18,22.79258193125,23.26108592291667,72.0,82.0
19,23.26502293125,23.733526922916667,69.0,83.0
20,23.73746393125,25.62329092291667,72.0,93.0
21,25.62722793125,26.56817292291667,74.0,93.0
22,26.572109931250004,26.804393422916668,74.0,86.0
23,26.808330431250003,27.04061392291667,77.0,95.0
24,27.04455093125,27.51305492291667,72.0,90.0
25,27.516991931250004,28.22171642291667,74.0,90.0
26,28.225653431250002,28.45793692291667,77.0,80.0
27,28.461873931250004,28.93037792291667,79.0,80.0
28,28.934314931250004,29.40281892291667,81.0,90.0
29,29.406755931250004,29.87525992291667,79.0,82.0
30,29.87919693125,30.34770092291667,77.0,86.0
31,30.351637931250004,30.809328789583336,74.0,84.0
32,30.813174931250003,31.270865789583336,72.0,95.0
33,31.274711931250003,33.11701378958334,74.0,86.0
34,33.12085993125,33.809319289583335,74.0,91.0
35,33.813165431250006,34.04008778958334,77.0,86.0
36,34.04393393125,34.51243792291667,79.0,82.0
37,34.516374931250006,34.98487892291667,81.0,86.0
38,34.98881593125,35.69354042291667,79.0,82.0
39,35.69747743125,35.92976092291667,77.0,86.0
40,35.93369793125,36.40220192291667,74.0,83.0
41,36.406138931250005,36.87464292291667,72.0,91.0
42,36.87857993125,37.58330442291667,69.0,90.0
43,37.58724143125,37.81952492291667,72.0,84.0
44,37.82346193125,38.29196592291667,79.0,56.0
45,38.295902931250005,38.76440692291667,74.0,82.0
46,38.76834393125,39.70928892291667,72.0,90.0
47,46.32739993125,46.79590392291667,81.0,79.0
48,46.79984093125,47.26834492291667,79.0,76.0
49,47.272281931250006,47.74078592291667,81.0,84.0
50,47.74472293125,48.21322692291667,84.0,86.0
51,48.217163931250006,48.921888422916666,77.0,83.0
52,48.925825431250004,49.15810892291667,74.0,79.0
53,49.162045931250006,49.63054992291667,84.0,94.0
54,49.63448693125,50.102990922916675,81.0,84.0
55,50.10692793125,50.57543192291667,81.0,82.0
56,50.57936893125,51.992754922916674,79.0,61.0
57,51.996691931250005,52.46519592291667,77.0,93.0
58,52.46913293125,52.70141642291667,77.0,93.0
59,52.70535343125,52.93763692291667,74.0,95.0
60,52.941573931250005,53.41007792291667,77.0,84.0
61,53.41401493125001,53.64629842291667,79.0,83.0
62,53.65023543125,53.882518922916674,81.0,73.0
63,53.886455931250005,54.59118042291667,77.0,83.0
64,54.59511743125,54.82740092291667,74.0,82.0
65,54.831337931250005,55.29984192291667,72.0,82.0
66,55.30377893125001,55.77228292291667,69.0,83.0
67,55.776219931250004,57.66204692291667,72.0,93.0
68,57.665983931250004,58.60692892291667,74.0,93.0
69,58.610865931250004,58.84314942291667,74.0,86.0
70,58.847086431250005,59.07936992291667,77.0,95.0
71,59.08330693125001,59.55181092291667,72.0,90.0
72,59.55574793125,60.26047242291667,74.0,90.0
73,60.26440943125,60.49669292291667,77.0,80.0
74,60.50062993125,60.96913392291667,79.0,80.0
75,60.97307093125001,61.44157492291667,81.0,90.0
76,61.44551193125,61.914015922916676,79.0,82.0
77,61.91795293125001,62.38645692291667,77.0,86.0
78,62.39039393125,62.85889792291667,74.0,84.0
79,62.862834931250006,63.33133892291667,72.0,95.0
80,63.33527593125001,65.22110292291667,74.0,86.0
81,65.22503993125001,65.92976442291668,74.0,91.0
82,65.93370143125,66.16598492291666,77.0,86.0
83,66.16992193125,66.63842592291667,79.0,82.0
84,66.64236293125,67.11086692291667,81.0,86.0
85,67.11480393125001,67.81952842291668,79.0,82.0
86,67.82346543125001,68.05574892291668,77.0,86.0
87,68.05968593125002,68.52818992291668,74.0,83.0
88,68.53212693125,69.00063092291667,72.0,91.0
89,69.00456793125001,69.70929242291668,69.0,90.0
90,69.71322943125,69.94551292291666,72.0,84.0
91,69.94944993125,70.41795392291667,79.0,56.0
92,70.42189093125,70.89039492291667,74.0,82.0
93,70.89433193125001,71.83527692291668,72.0,90.0
94,78.46850593125,78.94450593125,81.0,79.0
95,78.94850593125,79.42450593125,79.0,76.0
96,79.42850593125,79.90450593125,81.0,84.0
97,79.90850593125,80.38450593125,84.0,86.0
98,80.38850593125,81.10450593125,77.0,83.0
99,81.10850593125,81.34450593125,74.0,79.0
100,81.34850593125,81.82834467291667,84.0,94.0
101,81.83237693125,82.31221567291666,81.0,84.0
102,82.31624793125,82.79608667291667,81.0,82.0
103,82.80011893125,84.22493492291667,79.0,61.0
104,84.22887193125001,84.69737592291668,77.0,93.0
105,84.70131293125,84.93359642291668,77.0,93.0
106,84.93753343125,85.16981692291667,74.0,95.0
107,85.17375393125,85.65749388958334,77.0,84.0
108,85.66155893125,85.90139638958334,79.0,83.0
109,85.90546143125,86.14529888958334,81.0,73.0
110,86.14936393125001,86.87700638958334,77.0,83.0
111,86.88107143125,87.12090888958333,74.0,82.0
112,87.12497393125001,87.59347792291668,72.0,82.0
113,87.59741493125001,88.06591892291668,69.0,83.0
114,88.06985593125002,89.98628288958335,72.0,93.0
115,89.99034793125001,90.96189288958334,74.0,93.0
116,90.96595793125002,91.20195793125002,74.0,86.0
117,91.20595793125001,91.44195793125002,77.0,95.0
118,91.44595793125002,91.92195793125002,72.0,90.0
119,91.92595793125001,92.64195793125002,74.0,90.0
120,92.64595793125002,92.88195793125001,77.0,80.0
121,92.88595793125002,93.36195793125002,79.0,80.0
122,93.36595793125002,93.84195793125002,81.0,90.0
123,93.84595793125001,94.32195793125001,79.0,82.0
124,94.32595793125002,94.80195793125002,77.0,86.0
125,94.80595793125002,95.28195793125002,74.0,84.0
126,95.28595793125001,95.76195793125002,72.0,95.0
127,95.76595793125001,97.68195793125001,74.0,86.0
128,97.68595793125002,98.40195793125002,74.0,91.0
129,98.40595793125001,98.64195793125002,77.0,86.0
130,98.64595793125002,99.11446192291669,79.0,82.0
131,99.11839893125003,99.58690292291669,81.0,86.0
132,99.59083993125003,100.2955644229167,79.0,82.0
133,100.29950143125002,100.53178492291669,77.0,86.0
134,100.53572193125002,101.00422592291669,74.0,83.0
135,101.00816293125003,101.47666692291669,72.0,91.0
136,101.48060393125003,102.1853284229167,69.0,90.0
137,102.18926543125002,102.42154892291668,72.0,84.0
138,102.42548593125002,102.89398992291669,79.0,56.0
139,102.89792693125003,103.36643092291669,74.0,82.0
140,103.37036793125003,104.32636793125003,72.0,90.0
141,111.05891093125004,111.53491093125004,81.0,79.0
142,111.53891093125003,112.01491093125003,79.0,76.0
143,112.01891093125003,112.50265088958336,81.0,84.0
144,112.50671593125003,112.99045588958337,84.0,86.0
145,112.99452093125004,113.72216338958337,77.0,83.0
146,113.72622843125004,113.96606588958336,74.0,79.0
147,113.97013093125004,114.44613093125004,84.0,94.0
148,114.45013093125004,114.92613093125004,81.0,84.0
149,114.93013093125003,115.4099696729167,81.0,82.0
150,115.41400193125003,116.85387293125004,79.0,61.0
151,116.85787293125003,117.33009468125003,77.0,93.0
152,117.33406293125003,117.56818968125003,77.0,93.0
153,117.57215793125003,117.80628468125003,74.0,95.0
154,117.81025293125003,118.28625293125003,77.0,84.0
155,118.29025293125004,118.52625293125003,79.0,83.0
156,118.53025293125003,118.76625293125004,81.0,73.0
157,118.77025293125003,119.4749774229167,77.0,83.0
158,119.47891443125003,119.7111979229167,74.0,82.0
159,119.71513493125003,120.1836389229167,72.0,82.0
160,120.18757593125002,120.65607992291669,69.0,83.0
161,120.66001693125003,122.57229667291669,72.0,93.0
162,122.57632893125002,123.5400386729167,74.0,93.0
163,123.54407093125002,123.77635442291668,74.0,86.0
164,123.78029143125002,124.01257492291668,77.0,95.0
165,124.01651193125002,124.48501592291669,72.0,90.0
166,124.48895293125003,125.19367742291669,74.0,90.0
167,125.19761443125002,125.42989792291668,77.0,80.0
168,125.43383493125002,125.90233892291668,79.0,80.0
169,125.90627593125002,126.37477992291669,81.0,90.0
170,126.37871693125003,126.84722092291669,79.0,82.0
171,126.85115793125001,127.31966192291668,77.0,86.0
172,127.32359893125002,127.80343767291669,74.0,84.0
173,127.80746993125001,128.28730867291668,72.0,95.0
174,128.29134093125,130.19222293125,74.0,86.0
175,130.19622293125002,130.91222293125,74.0,91.0
176,130.91622293125002,131.15222293125,77.0,86.0
177,131.15622293125,131.64795869791666,79.0,82.0
178,131.65209093125,132.14382669791667,81.0,86.0
179,132.14795893125,132.88762869791665,79.0,82.0
180,132.89176093125,133.13556269791667,77.0,86.0
181,133.13969493125,133.78643414791668,74.0,83.0
182,133.79186893125,134.43860814791668,72.0,91.0
183,134.44404293125,135.93570959791668,69.0,90.0
184,135.94404293125,136.43570959791668,72.0,84.0
185,136.44404293125,137.73752136458333,79.0,56.0
186,137.74839093125001,139.04186936458333,74.0,82.0
187,139.05273893125002,140.71245849791669,72.0,90.0
