,start,end,pitch,velocity
0,0.08562993125000001,0.21456695416666668,41.0,90.0
1,0.08562993125000001,0.24803152500000003,53.0,75.0
2,0.08562993125000001,0.2588582979166667,60.0,81.0
3,0.08562993125000001,0.26181105416666667,65.0,83.0
4,0.08562993125000001,0.2834646,69.0,82.0
5,0.5580709312500001,0.9463903833333335,58.0,77.0
6,0.5580709312500001,1.0017182208333335,65.0,83.0
7,0.5580709312500001,1.0109395270833335,46.0,90.0
8,0.5580709312500001,1.0140132958333334,62.0,78.0
9,0.5580709312500001,1.0140132958333334,70.0,86.0
10,1.5260639312500002,2.0359840562500002,65.0,83.0
11,1.5260639312500002,2.07368243125,69.0,82.0
12,1.5260639312500002,2.10840461875,60.0,82.0
13,1.5260639312500002,3.1373568479166667,53.0,78.0
14,3.40867393125,3.6799910145833334,53.0,68.0
15,3.40867393125,3.9135175041666668,69.0,82.0
16,3.40867393125,3.9251453791666666,60.0,77.0
17,3.40867393125,3.94355618125,65.0,81.0
18,1.5260639312500002,3.954215066666667,41.0,84.0
19,3.87378893125,4.0016955562500005,53.0,84.0
20,4.33890393125,4.549174670833334,58.0,77.0
21,4.33890393125,4.77494924375,65.0,86.0
22,4.804018931250001,4.8621583062500005,58.0,91.0
23,4.33890393125,4.875724160416667,62.0,84.0
24,4.33890393125,4.8766931499999995,70.0,86.0
25,4.33890393125,4.927080608333334,46.0,90.0
26,5.26913393125,5.6673886499999995,53.0,83.0
27,5.734248931250001,5.867000504166667,53.0,54.0
28,5.26913393125,5.889287264583333,65.0,82.0
29,5.26913393125,6.018162879166667,69.0,81.0
30,5.26913393125,6.448394254166667,60.0,79.0
31,6.19936393125,6.499750702083333,67.0,76.0
32,6.43192143125,6.7344415875,53.0,67.0
33,6.66447893125,6.79880723125,60.0,77.0
34,6.66447893125,6.82119528125,65.0,83.0
35,5.26913393125,6.953657910416666,41.0,83.0
36,6.88835943125,6.990971327083333,53.0,55.0
37,7.1122399312499995,7.479777085416666,53.0,73.0
38,7.1122399312499995,7.480709920833333,41.0,82.0
39,7.1122399312499995,7.785747102083333,65.0,84.0
40,7.560000931249999,7.821194847916667,43.0,95.0
41,7.1122399312499995,7.823060518749999,60.0,82.0
42,7.1122399312499995,7.865970947916667,69.0,82.0
43,7.78388143125,7.8986201875,44.0,79.0
44,8.00776193125,8.6914136125,64.0,86.0
45,8.00776193125,8.741413454166667,67.0,84.0
46,8.00776193125,8.907759081250001,60.0,84.0
47,8.00776193125,9.09814309375,45.0,94.0
48,8.93660514375,9.57698773125,70.0,86.0
49,8.935643608333333,9.58275694375,62.0,82.0
50,8.93083593125,9.6144876125,67.0,84.0
51,8.926989789583333,10.0760246125,50.0,74.0
52,9.840448435416667,10.43083118125,70.0,62.0
53,8.943335891666667,10.454869566666666,38.0,72.0
54,10.308716183333333,10.480831022916668,50.0,71.0
55,9.828910010416667,10.530830864583333,67.0,75.0
56,9.832756152083334,10.559676927083334,62.0,60.0
57,10.776983931250001,11.312559158333332,62.0,83.0
58,10.776983931250001,11.312559158333332,62.0,90.0
59,10.774099325,11.321212977083334,43.0,90.0
60,10.776983931250001,11.321212977083334,43.0,84.0
61,10.773137789583334,11.321212977083334,67.0,86.0
62,10.784676214583333,11.326020654166667,70.0,84.0
63,10.776983931250001,11.37698203125,58.0,81.0
64,10.776983931250001,11.409674235416666,65.0,70.0
65,11.70005793125,12.090441310416667,62.0,84.0
66,11.70005793125,12.131787333333333,59.0,82.0
67,11.70005793125,12.18467178125,65.0,83.0
68,11.70005793125,12.208710166666666,47.0,86.0
69,12.62313193125,12.955823185416666,48.0,80.0
70,12.62313193125,13.35582191875,60.0,84.0
71,12.62313193125,13.379860304166666,64.0,61.0
72,12.62313193125,13.386591052083332,55.0,80.0
73,12.62313193125,13.472167704166667,67.0,83.0
74,13.54620593125,13.859652587500001,55.0,69.0
75,13.31543743125,13.990334275,48.0,69.0
76,13.77347843125,14.04620543125,60.0,83.0
77,14.00075093125,14.25169765,62.0,83.0
78,12.62313193125,14.30567486875,36.0,86.0
79,14.68256843125,14.8331364625,60.0,78.0
80,14.90984093125,14.9998029625,65.0,79.0
81,14.90984093125,15.005484775,69.0,72.0
82,14.90984093125,15.013060525,60.0,75.0
83,14.45529593125,15.203401243750001,53.0,84.0
84,15.13711343125,15.40321165,60.0,77.0
85,15.13711343125,15.417416181250001,65.0,79.0
86,15.13711343125,15.4505600875,69.0,75.0
87,15.59165843125,15.7005598375,60.0,71.0
88,15.36438593125,15.9051050875,53.0,80.0
89,15.81893093125,16.16362755625,65.0,69.0
90,16.04620343125,16.189195712500002,53.0,77.0
91,15.81893093125,16.192036618750002,69.0,76.0
92,15.81893093125,16.210029025,60.0,82.0
93,16.738590931250002,16.833551910416666,65.0,76.0
94,16.738590931250002,16.843241806250003,60.0,79.0
95,16.738590931250002,16.856807660416667,69.0,75.0
96,16.27347593125,17.04672961875,50.0,84.0
97,16.97114843125,17.295759941666667,60.0,80.0
98,16.97114843125,17.316108722916667,65.0,73.0
99,16.97114843125,17.363589212500003,69.0,76.0
100,17.08742718125,17.4682400875,72.0,3.0
101,17.43626343125,17.559325108333333,60.0,76.0
102,17.66882093125,17.804479472916668,65.0,82.0
103,17.66882093125,17.8054484625,60.0,81.0
104,17.203705931250003,17.908161358333334,50.0,80.0
105,17.66882093125,18.042850910416668,69.0,80.0
106,17.901378431250002,18.05835474375,60.0,63.0
107,17.901378431250002,18.181416420833333,65.0,54.0
108,18.59905093125,18.694011910416666,65.0,79.0
109,18.59905093125,18.700794837500002,62.0,78.0
110,18.59905093125,18.72889553541667,70.0,83.0
111,18.13393593125,18.863585087500002,55.0,75.0
112,18.13393593125,18.92947637916667,43.0,81.0
113,18.83160843125,18.962422025000002,62.0,78.0
114,18.83160843125,18.962422025000002,65.0,79.0
115,19.52928093125,19.631993827083335,60.0,68.0
116,19.52928093125,19.65137361875,67.0,76.0
117,19.064165931250002,19.681412295833333,48.0,84.0
118,19.761838431250002,19.9914889625,48.0,83.0
119,19.761838431250002,20.0728840875,60.0,72.0
120,19.761838431250002,20.094201858333335,67.0,80.0
121,20.45951093125,20.557378879166667,60.0,78.0
122,20.45951093125,20.5612548375,65.0,82.0
123,20.45951093125,20.5845105875,69.0,79.0
124,19.99439593125,20.763773660416668,53.0,83.0
125,20.69206843125,21.021741008333336,60.0,78.0
126,20.69206843125,21.027510220833335,65.0,79.0
127,20.69206843125,21.05251014166667,69.0,76.0
128,21.386162931250002,21.49962411041667,65.0,80.0
129,21.386162931250002,21.504431787500003,60.0,79.0
130,21.386162931250002,21.5159702125,69.0,76.0
131,20.924625931250002,21.76404635,48.0,83.0
132,21.616931431250002,21.962857425000003,60.0,79.0
133,21.616931431250002,21.97073144166667,65.0,81.0
134,21.616931431250002,21.99730624791667,69.0,72.0
135,22.320140931250002,22.400849602083337,65.0,80.0
136,22.320140931250002,22.409707870833337,60.0,79.0
137,22.320140931250002,22.442188189583334,69.0,76.0
138,21.847699931250002,22.6892354625,53.0,80.0
139,22.556361431250004,22.878211862500002,60.0,76.0
140,22.556361431250004,22.878211862500002,65.0,77.0
141,22.556361431250004,22.912660685416668,69.0,78.0
142,23.26502293125,23.364432391666668,65.0,75.0
143,23.26502293125,23.385101685416668,60.0,80.0
144,23.26502293125,23.393959954166668,69.0,73.0
145,22.79258193125,23.60754265625,48.0,80.0
146,23.501243431250003,23.735495427083336,65.0,80.0
147,23.501243431250003,23.756164720833336,69.0,80.0
148,23.501243431250003,23.873290718750003,60.0,80.0
149,24.20990493125,24.281755333333336,65.0,79.0
150,24.20990493125,24.295534862500002,60.0,83.0
151,24.20990493125,24.311282895833337,69.0,76.0
152,23.73746393125,24.51305457291667,53.0,82.0
153,24.446125431250003,24.72860577916667,65.0,76.0
154,24.446125431250003,24.75813334166667,60.0,82.0
155,24.446125431250003,24.767975862500002,69.0,79.0
156,24.68234593125,25.17447197291667,53.0,86.0
157,25.15478693125,25.577031075,52.0,83.0
158,25.15478693125,25.62722793125,60.0,80.0
159,25.15478693125,25.64100746041667,64.0,82.0
160,25.15478693125,25.65675549375,67.0,82.0
161,26.09966893125,26.187267366666667,60.0,79.0
162,26.09966893125,26.191204375,65.0,75.0
163,26.09966893125,26.216794929166667,69.0,76.0
164,25.62722793125,26.460889445833335,50.0,83.0
165,26.335889431250003,26.58588946041667,60.0,83.0
166,26.335889431250003,26.60065324166667,65.0,84.0
167,26.335889431250003,26.60163749375,69.0,79.0
168,27.04455093125,27.131165114583336,60.0,79.0
169,27.04455093125,27.13214936666667,65.0,79.0
170,27.04455093125,27.145928895833336,69.0,73.0
171,26.572109931250004,27.328999783333337,57.0,81.0
172,27.280771431250002,27.49533838541667,69.0,80.0
173,27.280771431250002,27.505180906250004,65.0,83.0
174,27.280771431250002,27.53667697291667,60.0,84.0
175,27.98943293125,28.06522034166667,65.0,79.0
176,27.98943293125,28.07211010625,60.0,82.0
177,27.98943293125,28.084905383333336,69.0,77.0
178,27.516991931250004,28.300456589583334,50.0,80.0
179,28.225653431250002,28.506165275,65.0,83.0
180,28.225653431250002,28.509118031250004,69.0,83.0
181,28.225653431250002,28.513055039583335,60.0,82.0
182,28.461873931250004,28.97762202291667,50.0,90.0
183,28.934314931250004,29.07014171875,65.0,84.0
184,28.934314931250004,29.256165362500003,60.0,84.0
185,28.934314931250004,29.30537796666667,69.0,81.0
186,29.170535431250002,29.415614200000004,65.0,86.0
187,29.87919693125,29.980574895833335,62.0,78.0
188,29.87919693125,29.99041741666667,65.0,81.0
189,29.87919693125,29.99632292916667,70.0,82.0
190,29.406755931250004,30.195141850000002,43.0,86.0
191,29.406755931250004,30.208921379166668,55.0,84.0
192,30.115417431250002,30.340811158333338,65.0,82.0
193,30.115417431250002,30.383368600000004,70.0,84.0
194,30.115417431250002,30.41894541041667,62.0,82.0
195,30.813174931250003,30.908366937500002,62.0,80.0
196,30.351637931250004,30.914136150000004,55.0,75.0
197,30.813174931250003,30.91798229166667,70.0,82.0
198,30.813174931250003,30.928559181250005,67.0,79.0
199,31.043943431250003,31.225673625000002,70.0,82.0
200,31.043943431250003,31.341057875000004,67.0,79.0
201,31.043943431250003,31.355480906250005,62.0,82.0
202,31.736248931250003,31.817017906250005,65.0,78.0
203,31.736248931250003,31.834325543750005,62.0,81.0
204,31.736248931250003,31.851633181250005,69.0,84.0
205,31.274711931250003,32.02470955625,50.0,90.0
206,31.967017431250003,32.211247427083336,65.0,84.0
207,31.967017431250003,32.22567045833334,69.0,79.0
208,31.967017431250003,32.24297809583334,62.0,83.0
209,32.65932293125,32.74393804791667,65.0,75.0
210,32.65932293125,32.75643800833333,62.0,78.0
211,32.65932293125,32.77855332291667,69.0,75.0
212,32.19778593125,32.79874556666667,57.0,79.0
213,32.890091431250006,33.0891292625,69.0,78.0
214,32.890091431250006,33.134321427083336,65.0,82.0
215,32.890091431250006,33.143936781250005,62.0,80.0
216,33.58239693125,33.676627402083334,65.0,79.0
217,33.58239693125,33.67951200833334,62.0,78.0
218,33.58239693125,33.69778118125,69.0,82.0
219,33.12085993125,33.82854999791667,50.0,93.0
220,33.813165431250006,34.15712292083334,62.0,84.0
221,33.813165431250006,34.16401268541667,65.0,84.0
222,33.813165431250006,34.17287095416667,69.0,82.0
223,34.04393393125,34.52917020833333,57.0,79.0
224,34.516374931250006,34.61283163541667,65.0,79.0
225,34.516374931250006,34.62464266041667,62.0,79.0
226,34.516374931250006,34.63251667708334,69.0,75.0
227,34.75259543125,34.93369781458333,62.0,79.0
228,34.75259543125,34.93960332708333,69.0,79.0
229,34.75259543125,34.95830411666667,65.0,83.0
230,35.461256931250006,35.574445920833334,70.0,83.0
231,35.461256931250006,35.5823199375,62.0,79.0
232,35.461256931250006,35.592162458333334,67.0,79.0
233,34.98881593125,35.771296337500004,43.0,81.0
234,34.98881593125,35.806729412500005,55.0,76.0
235,35.69747743125,35.95535147708333,70.0,81.0
236,35.69747743125,35.99964282083334,62.0,80.0
237,35.69747743125,36.08231999583334,67.0,84.0
238,36.406138931250005,36.50554839166667,70.0,73.0
239,36.406138931250005,36.52228067708334,62.0,84.0
240,36.406138931250005,36.53606020625,67.0,74.0
241,35.93369793125,36.67188699375,50.0,90.0
242,36.64235943125,36.76440668958334,70.0,79.0
243,36.64235943125,36.90318623333334,62.0,82.0
244,36.64235943125,36.91598151041667,67.0,80.0
245,37.351020931250005,37.44747763541667,60.0,75.0
246,37.351020931250005,37.45633590416667,64.0,79.0
247,37.351020931250005,37.463225668750006,67.0,81.0
248,36.87857993125,37.664997345833335,45.0,90.0
249,37.58724143125,37.86873752708333,64.0,82.0
250,37.58724143125,37.88153280416667,60.0,80.0
251,37.58724143125,37.90810761041667,67.0,81.0
252,38.295902931250005,38.39137538333333,65.0,86.0
253,38.295902931250005,38.40121790416667,62.0,84.0
254,38.295902931250005,38.41795018958334,70.0,86.0
255,37.82346193125,38.607910841666666,46.0,98.0
256,38.53212343125,38.78999747708333,65.0,83.0
257,38.53212343125,38.80968251875,70.0,86.0
258,38.53212343125,38.82641480416667,62.0,79.0
259,39.240784931250005,39.315588089583336,72.0,71.0
260,39.240784931250005,39.33625738333333,60.0,79.0
261,39.240784931250005,39.33625738333333,64.0,79.0
262,39.240784931250005,39.34511565208334,67.0,75.0
263,38.76834393125,39.41893455833333,48.0,86.0
264,39.47700543125001,39.76047003125,60.0,84.0
265,39.47700543125001,39.78606058541667,64.0,83.0
266,39.47700543125001,39.790981845833336,67.0,74.0
267,39.47700543125001,39.90023382708333,72.0,86.0
268,39.71322593125,40.32346222291667,55.0,81.0
269,40.185666931250005,40.65417092291667,60.0,91.0
270,40.185666931250005,40.65417092291667,64.0,84.0
271,40.185666931250005,40.65417092291667,67.0,83.0
272,40.185666931250005,40.65417092291667,72.0,82.0
273,40.65810793125,40.95928906875,60.0,75.0
274,40.65810793125,40.95928906875,69.0,78.0
275,40.65810793125,40.97798985833334,65.0,83.0
276,40.65810793125,41.260470206250005,53.0,78.0
277,40.65810793125,41.26539146666667,41.0,84.0
278,41.366769431250006,41.47110015208334,53.0,75.0
279,41.366769431250006,41.51834425208334,41.0,78.0
280,41.130548931250004,41.53999779791667,60.0,77.0
281,41.130548931250004,41.54787181458334,69.0,77.0
282,41.130548931250004,41.69550962708334,65.0,82.0
283,41.60298993125,42.191572677083336,46.0,79.0
284,42.311651431250006,42.47503727708334,46.0,81.0
285,42.54787193125,42.641375879166674,53.0,84.0
286,42.54787193125,42.645312887500005,41.0,86.0
287,42.075430931250004,42.8106672375,70.0,86.0
288,42.075430931250004,42.82543101875,62.0,75.0
289,42.075430931250004,42.8461003125,65.0,84.0
290,42.78409243125,43.12169089583334,53.0,86.0
291,43.256533431250006,43.371690925,53.0,82.0
292,42.78409243125,43.38153344583334,41.0,86.0
293,43.020312931250004,43.46224211666667,60.0,86.0
294,43.020312931250004,43.483895662500004,69.0,80.0
295,43.020312931250004,43.54590354375,65.0,84.0
296,43.49275393125001,43.87267523541667,46.0,84.0
297,43.72897443125,44.06460439166667,70.0,82.0
298,43.72897443125,44.11775400416667,65.0,78.0
299,43.72897443125,44.17680912916667,62.0,75.0
300,43.965194931250004,44.31558867291667,46.0,84.0
301,44.201415431250005,44.34413198333334,67.0,84.0
302,44.43763593125,44.659092650000005,60.0,80.0
303,44.43763593125,44.66696666666667,64.0,82.0
304,44.43763593125,44.674840683333336,67.0,82.0
305,44.43763593125,44.67976194375,72.0,79.0
306,44.43763593125,45.01736040833334,48.0,90.0
307,45.146297431250005,45.23684862291667,48.0,80.0
308,44.91007693125,45.424840770833335,72.0,84.0
309,44.91007693125,45.432714787500004,64.0,80.0
310,44.91007693125,45.43960455208334,60.0,86.0
311,44.91007693125,45.44944707291667,67.0,76.0
312,45.38251793125001,45.68960458125,48.0,93.0
313,45.61873843125,45.94452587083334,64.0,82.0
314,45.61873843125,45.947478627083335,67.0,81.0
315,45.61873843125,45.955352643750004,60.0,84.0
316,45.61873843125,45.99570697916667,72.0,80.0
317,45.85495893125,46.17090385,48.0,90.0
318,46.091179431250005,46.25161252083333,60.0,82.0
319,46.091179431250005,46.27917157916667,67.0,83.0
320,46.56362043125,46.720116512500006,60.0,78.0
321,46.79984093125,46.89334487916667,65.0,79.0
322,46.79984093125,46.89925039166667,69.0,72.0
323,46.79984093125,46.90712440833334,60.0,75.0
324,46.32739993125,47.104959077083336,53.0,84.0
325,47.036061431250005,47.31263626666667,60.0,77.0
326,47.036061431250005,47.32740004791667,65.0,79.0
327,47.036061431250005,47.361848870833335,69.0,75.0
328,47.50850243125,47.621691420833336,60.0,71.0
329,47.272281931250006,47.83428987083334,53.0,80.0
330,47.74472293125,48.102990689583336,65.0,69.0
331,47.980943431250004,48.12956549583333,53.0,77.0
332,47.74472293125,48.13251825208334,69.0,76.0
333,47.74472293125,48.15121904166667,60.0,82.0
334,48.68960493125,48.78606163541667,65.0,76.0
335,48.68960493125,48.79590415625,60.0,79.0
336,48.68960493125,48.80968368541667,69.0,75.0
337,48.217163931250006,49.002597093750005,50.0,84.0
338,48.925825431250004,49.25554987916667,60.0,80.0
339,48.925825431250004,49.27621917291667,65.0,73.0
340,48.925825431250004,49.324447525000004,69.0,76.0
341,49.39826643125001,49.523266445833336,60.0,76.0
342,49.63448693125,49.77228222291667,65.0,82.0
343,49.63448693125,49.773266475,60.0,81.0
344,49.162045931250006,49.87759719583334,50.0,80.0
345,49.63448693125,50.01440823541667,69.0,80.0
346,49.870707431250004,50.030156268750005,60.0,63.0
347,49.870707431250004,50.15515628333334,65.0,54.0
348,50.57936893125,50.67582563541667,65.0,79.0
349,50.57936893125,50.682715400000006,62.0,78.0
350,50.57936893125,50.71125871041667,70.0,83.0
351,50.10692793125,50.84806975000001,55.0,75.0
352,50.10692793125,50.91499889166667,43.0,81.0
353,50.815589431250004,50.9484634625,62.0,78.0
354,50.815589431250004,50.9484634625,65.0,79.0
355,51.52425093125001,51.62858165208334,60.0,68.0
356,51.52425093125001,51.64826669375,67.0,76.0
357,51.051809931250006,51.67877850833334,48.0,84.0
358,51.760471431250004,51.993739175,48.0,83.0
359,51.760471431250004,52.07641635,60.0,72.0
360,51.760471431250004,52.09806989583333,67.0,80.0
361,52.46913293125,52.56854239166667,60.0,78.0
362,52.46913293125,52.572479400000006,65.0,82.0
363,52.46913293125,52.596101450000006,69.0,79.0
364,51.996691931250005,52.77818808541667,53.0,83.0
365,52.70535343125,53.04098339166667,60.0,78.0
366,52.70535343125,53.04688890416667,65.0,79.0
367,52.70535343125,53.07247945833333,69.0,76.0
368,53.41401493125001,53.53015667708334,65.0,80.0
369,53.41401493125001,53.535077937500006,60.0,79.0
370,53.41401493125001,53.546888962500006,69.0,76.0
371,52.941573931250005,53.800826,48.0,83.0
372,53.65023543125,54.001613425,60.0,79.0
373,53.65023543125,54.00948744166667,65.0,81.0
374,53.65023543125,54.036062247916675,69.0,72.0
375,54.35889693125,54.43960560208333,65.0,80.0
376,54.35889693125,54.448463870833336,60.0,79.0
377,54.35889693125,54.48094418958334,69.0,76.0
378,53.886455931250005,54.7279914625,53.0,80.0
379,54.59511743125,54.9169678625,60.0,76.0
380,54.59511743125,54.9169678625,65.0,77.0
381,54.59511743125,54.951416685416675,69.0,78.0
382,55.30377893125001,55.403188391666674,65.0,75.0
383,55.30377893125001,55.42385768541667,60.0,80.0
384,55.30377893125001,55.43271595416667,69.0,73.0
385,54.831337931250005,55.64629865625,48.0,80.0
386,55.53999943125,55.77425142708334,65.0,80.0
387,55.53999943125,55.79492072083334,69.0,80.0
388,55.53999943125,55.912046718750005,60.0,80.0
389,56.24866093125,56.32051133333334,65.0,79.0
390,56.24866093125,56.334290862500005,60.0,83.0
391,56.24866093125,56.350038895833336,69.0,76.0
392,55.776219931250004,56.55181057291667,53.0,82.0
393,56.48488143125,56.76736177916667,65.0,76.0
394,56.48488143125,56.79688934166667,60.0,82.0
395,56.48488143125,56.8067318625,69.0,79.0
396,56.721101931250004,57.21322797291667,53.0,86.0
397,57.19354293125001,57.615787075,52.0,83.0
398,57.19354293125001,57.665983931250004,60.0,80.0
399,57.19354293125001,57.679763460416666,64.0,82.0
400,57.19354293125001,57.695511493750004,67.0,82.0
401,58.13842493125,58.22602336666667,60.0,79.0
402,58.13842493125,58.229960375000005,65.0,75.0
403,58.13842493125,58.255550929166674,69.0,76.0
404,57.665983931250004,58.49964544583334,50.0,83.0
405,58.37464543125,58.62464546041667,60.0,83.0
406,58.37464543125,58.63940924166667,65.0,84.0
407,58.37464543125,58.640393493750004,69.0,79.0
408,59.08330693125001,59.16992111458334,60.0,79.0
409,59.08330693125001,59.17090536666667,65.0,79.0
410,59.08330693125001,59.18468489583334,69.0,73.0
411,58.610865931250004,59.36775578333334,57.0,81.0
412,59.31952743125001,59.53409438541667,69.0,80.0
413,59.31952743125001,59.54393690625,65.0,83.0
414,59.31952743125001,59.57543297291667,60.0,84.0
415,60.02818893125,60.10397634166667,65.0,79.0
416,60.02818893125,60.11086610625,60.0,82.0
417,60.02818893125,60.12366138333334,69.0,77.0
418,59.55574793125,60.33921258958334,50.0,80.0
419,60.26440943125,60.54492127500001,65.0,83.0
420,60.26440943125,60.547874031250004,69.0,83.0
421,60.26440943125,60.55181103958334,60.0,82.0
422,60.50062993125,61.01637802291667,50.0,90.0
423,60.97307093125001,61.10889771875,65.0,84.0
424,60.97307093125001,61.294921362500006,60.0,84.0
425,60.97307093125001,61.344133966666675,69.0,81.0
426,61.20929143125001,61.4543702,65.0,86.0
427,61.91795293125001,62.019330895833335,62.0,78.0
428,61.91795293125001,62.02917341666667,65.0,81.0
429,61.91795293125001,62.03507892916667,70.0,82.0
430,61.44551193125,62.233897850000005,43.0,86.0
431,61.44551193125,62.247677379166674,55.0,84.0
432,62.15417343125,62.37956715833334,65.0,82.0
433,62.15417343125,62.42287425000001,70.0,84.0
434,62.15417343125,62.459291577083334,62.0,82.0
435,62.862834931250006,62.9602758875,62.0,80.0
436,62.39039393125,62.9661814,55.0,75.0
437,62.862834931250006,62.970118408333335,70.0,82.0
438,62.862834931250006,62.98094518125001,67.0,79.0
439,63.09905543125001,63.285079075000006,70.0,82.0
440,63.09905543125001,63.40318932500001,67.0,79.0
441,63.09905543125001,63.41795310625,62.0,82.0
442,63.807716931250006,63.89039410625001,65.0,78.0
443,63.807716931250006,63.90811064375001,62.0,81.0
444,63.807716931250006,63.92582718125,69.0,84.0
445,63.33527593125001,64.10299255625,50.0,90.0
446,64.04393743125,64.29393746041667,65.0,84.0
447,64.04393743125,64.30870124166667,69.0,79.0
448,64.04393743125,64.32641777916668,62.0,83.0
449,64.75259893125,64.83921311458334,65.0,75.0
450,64.75259893125,64.85200839166667,62.0,78.0
451,64.75259893125,64.87464618958333,69.0,75.0
452,64.28015793125,64.89531548333333,57.0,79.0
453,64.98881943125001,65.1925596125,69.0,78.0
454,64.98881943125001,65.23881946041666,65.0,82.0
455,64.98881943125001,65.24866198125001,62.0,80.0
456,65.69748093125,65.79393763541667,65.0,79.0
457,65.69748093125,65.79689039166666,62.0,78.0
458,65.69748093125,65.81559118125,69.0,82.0
459,65.22503993125001,65.94944946458334,50.0,93.0
460,65.93370143125,66.28311092083334,62.0,84.0
461,65.93370143125,66.29000068541667,65.0,84.0
462,65.93370143125,66.29885895416666,69.0,82.0
463,66.16992193125,66.65515820833335,57.0,79.0
464,66.64236293125,66.73881963541668,65.0,79.0
465,66.64236293125,66.75063066041668,62.0,79.0
466,66.64236293125,66.75850467708334,69.0,75.0
467,66.87858343125001,67.05968581458333,62.0,79.0
468,66.87858343125001,67.06559132708334,69.0,79.0
469,66.87858343125001,67.08429211666667,65.0,83.0
470,67.58724493125001,67.70043392083335,70.0,83.0
471,67.58724493125001,67.7083079375,62.0,79.0
472,67.58724493125001,67.71815045833334,67.0,79.0
473,67.11480393125001,67.8972843375,43.0,81.0
474,67.11480393125001,67.93271741250001,55.0,76.0
475,67.82346543125001,68.08133947708333,70.0,81.0
476,67.82346543125001,68.12563082083334,62.0,80.0
477,67.82346543125001,68.20830799583334,67.0,84.0
478,68.53212693125,68.63153639166667,70.0,73.0
479,68.53212693125,68.64826867708334,62.0,84.0
480,68.53212693125,68.66204820625,67.0,74.0
481,68.05968593125002,68.79787499375001,50.0,90.0
482,68.76834743125,68.89039468958333,70.0,79.0
483,68.76834743125,69.02917423333334,62.0,82.0
484,68.76834743125,69.04196951041666,67.0,80.0
485,69.47700893125,69.57346563541668,60.0,75.0
486,69.47700893125,69.58232390416667,64.0,79.0
487,69.47700893125,69.58921366875,67.0,81.0
488,69.00456793125001,69.79098534583335,45.0,90.0
489,69.71322943125,69.99472552708335,64.0,82.0
490,69.71322943125,70.00752080416667,60.0,80.0
491,69.71322943125,70.03409561041667,67.0,81.0
492,70.42189093125,70.51736338333333,65.0,86.0
493,70.42189093125,70.52720590416666,62.0,84.0
494,70.42189093125,70.54393818958334,70.0,86.0
495,69.94944993125,70.73389884166667,46.0,98.0
496,70.65811143125,70.91598547708334,65.0,83.0
497,70.65811143125,70.93567051875002,70.0,86.0
498,70.65811143125,70.95240280416667,62.0,79.0
499,71.36677293125001,71.44157608958334,72.0,71.0
500,71.36677293125001,71.46224538333334,60.0,79.0
501,71.36677293125001,71.46224538333334,64.0,79.0
502,71.36677293125001,71.47110365208334,67.0,75.0
503,70.89433193125001,71.54492255833334,48.0,86.0
504,71.60299343125001,71.88645803125002,60.0,84.0
505,71.60299343125001,71.91204858541667,64.0,83.0
506,71.60299343125001,71.91696984583334,67.0,74.0
507,71.60299343125001,72.02622182708333,72.0,86.0
508,71.83921393125001,72.44945022291668,55.0,81.0
509,72.31165493125,72.78015892291667,60.0,91.0
510,72.31165493125,72.78015892291667,64.0,84.0
511,72.31165493125,72.78015892291667,67.0,83.0
512,72.31165493125,72.78015892291667,72.0,82.0
513,72.78409593125001,73.08527706875,60.0,75.0
514,72.78409593125001,73.08527706875,69.0,78.0
515,72.78409593125001,73.10397785833334,65.0,83.0
516,72.78409593125001,73.38645820625001,53.0,78.0
517,72.78409593125001,73.39137946666668,41.0,84.0
518,73.49275743125,73.59708815208333,53.0,75.0
519,73.49275743125,73.64433225208333,41.0,78.0
520,73.25653693125,73.66598579791668,60.0,77.0
521,73.25653693125,73.67385981458334,69.0,77.0
522,73.25653693125,73.82149762708335,65.0,82.0
523,73.72897793125,74.31756067708335,46.0,79.0
524,74.43763943125,74.60102527708334,46.0,81.0
525,74.67385993125,74.76736387916668,53.0,84.0
526,74.67385993125,74.7713008875,41.0,86.0
527,74.20141893125,74.9366552375,70.0,86.0
528,74.20141893125,74.95141901875002,62.0,75.0
529,74.20141893125,74.9720883125,65.0,84.0
530,74.91008043125001,75.24767889583333,53.0,86.0
531,75.38252143125001,75.497678925,53.0,82.0
532,74.91008043125001,75.50752144583333,41.0,86.0
533,75.14630093125001,75.58823011666667,60.0,86.0
534,75.14630093125001,75.60988366250001,69.0,80.0
535,75.14630093125001,75.67189154375001,65.0,84.0
536,75.61874193125001,75.99866323541667,46.0,84.0
537,75.85496243125002,76.19059239166667,70.0,82.0
538,75.85496243125002,76.24374200416668,65.0,78.0
539,75.85496243125002,76.30279712916666,62.0,75.0
540,76.09118293125,76.44157667291668,46.0,84.0
541,76.32740343125,76.47011998333335,67.0,84.0
542,76.56362393125,76.78508065,60.0,80.0
543,76.56362393125,76.79295466666667,64.0,82.0
544,76.56362393125,76.80082868333335,67.0,82.0
545,76.56362393125,76.80574994375002,72.0,79.0
546,76.56362393125,77.14334840833334,48.0,90.0
547,77.27228543125,77.36283662291667,48.0,80.0
548,77.03606493125,77.55150593125,72.0,84.0
549,77.03606493125,77.55950593125,64.0,80.0
550,77.03606493125,77.56650593125,60.0,86.0
551,77.03606493125,77.57650593125,67.0,76.0
552,77.50850593125,77.82050593125,48.0,93.0
553,77.74850593125,78.07950593125,64.0,82.0
554,77.74850593125,78.08250593125,67.0,81.0
555,77.74850593125,78.09050593125,60.0,84.0
556,77.74850593125,78.13150593125,72.0,80.0
557,77.98850593125,78.30950593125,48.0,90.0
558,78.22850593125,78.39150593125,60.0,82.0
559,78.22850593125,78.41950593125,67.0,83.0
560,78.70850593125,78.86750593125,60.0,78.0
561,78.94850593125,79.04350593125,65.0,79.0
562,78.94850593125,79.04950593125,69.0,72.0
563,78.94850593125,79.05750593125,60.0,75.0
564,78.46850593125,79.25850593125,53.0,84.0
565,79.18850593125,79.46950593125,60.0,77.0
566,79.18850593125,79.48450593125,65.0,79.0
567,79.18850593125,79.51950593125,69.0,75.0
568,79.66850593125,79.78350593125,60.0,71.0
569,79.42850593125,79.99950593125,53.0,80.0
570,79.90850593125,80.27250593125,65.0,69.0
571,80.14850593125,80.29950593125,53.0,77.0
572,79.90850593125,80.30250593125,69.0,76.0
573,79.90850593125,80.32150593125,60.0,82.0
574,80.86850593125,80.96650593125,65.0,76.0
575,80.86850593125,80.97650593125,60.0,79.0
576,80.86850593125,80.99050593125,69.0,75.0
577,80.38850593125,81.18650593125,50.0,84.0
578,81.10850593125,81.44427206666667,60.0,80.0
579,81.10850593125,81.46544142291667,65.0,73.0
580,81.10850593125,81.5148365875,69.0,76.0
581,81.59044143125,81.71846563333334,60.0,76.0
582,81.83237693125,81.97350597291667,65.0,82.0
583,81.83237693125,81.9745140375,60.0,81.0
584,81.34850593125,82.08136888333334,50.0,80.0
585,81.83237693125,82.22148986041667,69.0,80.0
586,82.07431243125001,82.23761889375,60.0,63.0
587,82.07431243125001,82.36564309583333,65.0,54.0
588,82.80011893125,82.89890926041667,65.0,79.0
589,82.80011893125,82.9059657125,62.0,78.0
590,82.80011893125,82.93519958541667,70.0,83.0
591,82.31624793125,83.0753205625,55.0,75.0
592,82.31624793125,83.14386895416666,43.0,81.0
593,83.04205443125001,83.17814315,62.0,78.0
594,83.04205443125001,83.17814315,65.0,79.0
595,83.75643093125001,83.86076165208334,60.0,68.0
596,83.75643093125001,83.88044669375,67.0,76.0
597,83.28398993125,83.91095850833334,48.0,84.0
598,83.99265143125001,84.225919175,48.0,83.0
599,83.99265143125001,84.30859635,60.0,72.0
600,83.99265143125001,84.33024989583333,67.0,80.0
601,84.70131293125,84.80072239166667,60.0,78.0
602,84.70131293125,84.8046594,65.0,82.0
603,84.70131293125,84.82828145,69.0,79.0
604,84.22887193125001,85.01036808541667,53.0,83.0
605,84.93753343125,85.27639623333334,60.0,78.0
606,84.93753343125,85.28249379583333,65.0,79.0
607,84.93753343125,85.30891656666667,69.0,76.0
608,85.66155893125,85.78147766041667,65.0,80.0
609,85.66155893125,85.78655896250001,60.0,79.0
610,85.66155893125,85.7987540875,69.0,76.0
611,85.17375393125,86.060949275,48.0,83.0
612,85.90546143125,86.2682664,60.0,79.0
613,85.90546143125,86.27639648333334,65.0,81.0
614,85.90546143125,86.30383551458334,69.0,72.0
615,86.63716893125,86.72050228541667,65.0,80.0
616,86.63716893125,86.72964862916668,60.0,79.0
617,86.63716893125,86.76318522291668,69.0,76.0
618,86.14936393125001,87.01826658750001,53.0,80.0
619,86.88107143125,87.21060386250001,60.0,76.0
620,86.88107143125,87.21060386250001,65.0,77.0
621,86.88107143125,87.24505268541668,69.0,78.0
622,87.59741493125001,87.69682439166668,65.0,75.0
623,87.59741493125001,87.71749368541668,60.0,80.0
624,87.59741493125001,87.72635195416667,69.0,73.0
625,87.12497393125001,87.93993465625002,48.0,80.0
626,87.83363543125002,88.06788742708335,65.0,80.0
627,87.83363543125002,88.08855672083334,69.0,80.0
628,87.83363543125002,88.20568271875001,60.0,80.0
629,88.54229693125001,88.61414733333335,65.0,79.0
630,88.54229693125001,88.6279268625,60.0,83.0
631,88.54229693125001,88.64367489583334,69.0,76.0
632,88.06985593125002,88.84544657291667,53.0,82.0
633,88.77851743125001,89.06250217083334,65.0,76.0
634,88.77851743125001,89.09298998333334,60.0,82.0
635,88.77851743125001,89.1031525875,69.0,79.0
636,89.01473793125001,89.52286813958334,53.0,86.0
637,89.50254293125,89.93851865,52.0,83.0
638,89.50254293125,89.99034793125001,60.0,80.0
639,89.50254293125,90.00457557708334,64.0,82.0
640,89.50254293125,90.02083574375001,67.0,82.0
641,90.47815293125001,90.56860010833334,60.0,79.0
642,90.47815293125001,90.57266515,65.0,75.0
643,90.47815293125001,90.59908792083334,69.0,76.0
644,89.99034793125001,90.85112050416667,50.0,83.0
645,90.72205543125001,90.97995793125001,60.0,83.0
646,90.72205543125001,90.99495793125001,65.0,84.0
647,90.72205543125001,90.99595793125002,69.0,79.0
648,91.44595793125002,91.53395793125001,60.0,79.0
649,91.44595793125002,91.53495793125002,65.0,79.0
650,91.44595793125002,91.54895793125002,69.0,73.0
651,90.96595793125002,91.73495793125002,57.0,81.0
652,91.68595793125002,91.90395793125002,69.0,80.0
653,91.68595793125002,91.91395793125001,65.0,83.0
654,91.68595793125002,91.94595793125002,60.0,84.0
655,92.40595793125001,92.48295793125001,65.0,79.0
656,92.40595793125001,92.48995793125002,60.0,82.0
657,92.40595793125001,92.50295793125002,69.0,77.0
658,91.92595793125001,92.72195793125002,50.0,80.0
659,92.64595793125002,92.93095793125002,65.0,83.0
660,92.64595793125002,92.93395793125002,69.0,83.0
661,92.64595793125002,92.93795793125001,60.0,82.0
662,92.88595793125002,93.40995793125002,50.0,90.0
663,93.36595793125002,93.50395793125001,65.0,84.0
664,93.36595793125002,93.69295793125002,60.0,84.0
665,93.36595793125002,93.74295793125002,69.0,81.0
666,93.60595793125002,93.85495793125001,65.0,86.0
667,94.32595793125002,94.42895793125001,62.0,78.0
668,94.32595793125002,94.43895793125002,65.0,81.0
669,94.32595793125002,94.44495793125002,70.0,82.0
670,93.84595793125001,94.64695793125001,43.0,86.0
671,93.84595793125001,94.66095793125001,55.0,84.0
672,94.56595793125001,94.79495793125001,65.0,82.0
673,94.56595793125001,94.83895793125002,70.0,84.0
674,94.56595793125001,94.87595793125001,62.0,82.0
675,95.28595793125001,95.38495793125001,62.0,80.0
676,94.80595793125002,95.39095793125001,55.0,75.0
677,95.28595793125001,95.39495793125002,70.0,82.0
678,95.28595793125001,95.40595793125001,67.0,79.0
679,95.52595793125002,95.71495793125001,70.0,82.0
680,95.52595793125002,95.83495793125002,67.0,79.0
681,95.52595793125002,95.84995793125002,62.0,82.0
682,96.24595793125002,96.32995793125002,65.0,78.0
683,96.24595793125002,96.34795793125002,62.0,81.0
684,96.24595793125002,96.36595793125002,69.0,84.0
685,95.76595793125001,96.54595793125002,50.0,90.0
686,96.48595793125001,96.73995793125002,65.0,84.0
687,96.48595793125001,96.75495793125002,69.0,79.0
688,96.48595793125001,96.77295793125002,62.0,83.0
689,97.20595793125001,97.29395793125002,65.0,75.0
690,97.20595793125001,97.30695793125001,62.0,78.0
691,97.20595793125001,97.32995793125002,69.0,75.0
692,96.72595793125002,97.35095793125002,57.0,79.0
693,97.44595793125002,97.65295793125001,69.0,78.0
694,97.44595793125002,97.69995793125001,65.0,82.0
695,97.44595793125002,97.70995793125002,62.0,80.0
696,98.16595793125002,98.26395793125002,65.0,79.0
697,98.16595793125002,98.26695793125002,62.0,78.0
698,98.16595793125002,98.28595793125001,69.0,82.0
699,97.68595793125002,98.42195793125002,50.0,93.0
700,98.40595793125001,98.75914692083336,62.0,84.0
701,98.40595793125001,98.7660366854167,65.0,84.0
702,98.40595793125001,98.7748949541667,69.0,82.0
703,98.64595793125002,99.13119420833335,57.0,79.0
704,99.11839893125003,99.2148556354167,65.0,79.0
705,99.11839893125003,99.2266666604167,62.0,79.0
706,99.11839893125003,99.23454067708336,69.0,75.0
707,99.35461943125003,99.53572181458335,62.0,79.0
708,99.35461943125003,99.54162732708336,69.0,79.0
709,99.35461943125003,99.5603281166667,65.0,83.0
710,100.06328093125002,100.17646992083336,70.0,83.0
711,100.06328093125002,100.18434393750002,62.0,79.0
712,100.06328093125002,100.19418645833336,67.0,79.0
713,99.59083993125003,100.37332033750002,43.0,81.0
714,99.59083993125003,100.40875341250002,55.0,76.0
715,100.29950143125002,100.55737547708335,70.0,81.0
716,100.29950143125002,100.60166682083336,62.0,80.0
717,100.29950143125002,100.68434399583336,67.0,84.0
718,101.00816293125003,101.1075723916667,70.0,73.0
719,101.00816293125003,101.12430467708336,62.0,84.0
720,101.00816293125003,101.13808420625003,67.0,74.0
721,100.53572193125002,101.27391099375002,50.0,90.0
722,101.24438343125003,101.36643068958335,70.0,79.0
723,101.24438343125003,101.50521023333336,62.0,82.0
724,101.24438343125003,101.51800551041669,67.0,80.0
725,101.95304493125002,102.04950163541669,60.0,75.0
726,101.95304493125002,102.0583599041667,64.0,79.0
727,101.95304493125002,102.06524966875003,67.0,81.0
728,101.48060393125003,102.26702134583336,45.0,90.0
729,102.18926543125002,102.47076152708335,64.0,82.0
730,102.18926543125002,102.4835568041667,60.0,80.0
731,102.18926543125002,102.51013161041669,67.0,81.0
732,102.89792693125003,102.99339938333335,65.0,86.0
733,102.89792693125003,103.00324190416669,62.0,84.0
734,102.89792693125003,103.01997418958335,70.0,86.0
735,102.42548593125002,103.2099348416667,46.0,98.0
736,103.13414743125003,103.39236793125004,65.0,83.0
737,103.13414743125003,103.41236793125003,70.0,86.0
738,103.13414743125003,103.42936793125003,62.0,79.0
739,103.85036793125003,103.92636793125003,72.0,71.0
740,103.85036793125003,103.94736793125003,60.0,79.0
741,103.85036793125003,103.94736793125003,64.0,79.0
742,103.85036793125003,103.95636793125003,67.0,75.0
743,103.37036793125003,104.03136793125003,48.0,86.0
744,104.09036793125003,104.37836793125003,60.0,84.0
745,104.09036793125003,104.40436793125004,64.0,83.0
746,104.09036793125003,104.40936793125003,67.0,74.0
747,104.09036793125003,104.52036793125004,72.0,86.0
748,104.33036793125002,104.95036793125003,55.0,81.0
749,104.81036793125003,105.28636793125003,60.0,91.0
750,104.81036793125003,105.28636793125003,64.0,84.0
751,104.81036793125003,105.28636793125003,67.0,83.0
752,104.81036793125003,105.28636793125003,72.0,82.0
753,105.29036793125003,105.59636793125003,60.0,75.0
754,105.29036793125003,105.59636793125003,69.0,78.0
755,105.29036793125003,105.61536793125003,65.0,83.0
756,105.29036793125003,105.90236793125003,53.0,78.0
757,105.29036793125003,105.90736793125004,41.0,84.0
758,106.01036793125003,106.11636793125002,53.0,75.0
759,106.01036793125003,106.16436793125003,41.0,78.0
760,105.77036793125004,106.18636793125003,60.0,77.0
761,105.77036793125004,106.19436793125003,69.0,77.0
762,105.77036793125004,106.34436793125003,65.0,82.0
763,106.25036793125003,106.84836793125002,46.0,79.0
764,106.97036793125002,107.13636793125004,46.0,81.0
765,107.21036793125003,107.30691267083337,53.0,84.0
766,107.21036793125003,107.31097771250003,41.0,86.0
767,106.73036793125003,107.48170946250004,70.0,86.0
768,106.73036793125003,107.49695336875003,62.0,75.0
769,106.73036793125003,107.51829483750004,65.0,84.0
770,107.45427043125004,107.8028477541667,53.0,86.0
771,107.94207543125003,108.06097790000004,53.0,82.0
772,107.45427043125004,108.0711405041667,41.0,86.0
773,107.69817293125003,108.15447385833336,60.0,86.0
774,107.69817293125003,108.17683158750003,69.0,80.0
775,107.69817293125003,108.24085599375003,65.0,84.0
776,108.18597793125004,108.57825445208337,46.0,84.0
777,108.42988043125003,108.77642523333337,70.0,82.0
778,108.42988043125003,108.83130329583337,65.0,78.0
779,108.42988043125003,108.89227892083336,62.0,75.0
780,108.67378293125003,109.03557163958337,46.0,84.0
781,108.91768543125004,109.0650431916667,67.0,84.0
782,109.16158793125004,109.38304465000004,60.0,80.0
783,109.16158793125004,109.3909186666667,64.0,82.0
784,109.16158793125004,109.39879268333337,67.0,82.0
785,109.16158793125004,109.40371394375003,72.0,79.0
786,109.16158793125004,109.74131240833337,48.0,90.0
787,109.87024943125004,109.96080062291671,48.0,80.0
788,109.63402893125004,110.14879277083337,72.0,84.0
789,109.63402893125004,110.15666678750004,64.0,80.0
790,109.63402893125004,110.16355655208338,60.0,86.0
791,109.63402893125004,110.17339907291671,67.0,76.0
792,110.10646993125005,110.41355658125003,48.0,93.0
793,110.34269043125003,110.66991093125003,64.0,82.0
794,110.34269043125003,110.67291093125003,67.0,81.0
795,110.34269043125003,110.68091093125004,60.0,84.0
796,110.34269043125003,110.72191093125004,72.0,80.0
797,110.57891093125004,110.89991093125003,48.0,90.0
798,110.81891093125003,110.98191093125004,60.0,82.0
799,110.81891093125003,111.00991093125003,67.0,83.0
800,111.29891093125003,111.45791093125004,60.0,78.0
801,111.53891093125003,111.63391093125004,65.0,79.0
802,111.53891093125003,111.63991093125003,69.0,72.0
803,111.53891093125003,111.64791093125004,60.0,75.0
804,111.05891093125004,111.84891093125003,53.0,84.0
805,111.77891093125004,112.06057760833336,60.0,77.0
806,111.77891093125004,112.07582151458337,65.0,79.0
807,111.77891093125004,112.1113906291667,69.0,75.0
808,112.26281343125004,112.3796833791667,60.0,71.0
809,112.01891093125003,112.5991956291667,53.0,80.0
810,112.50671593125003,112.8766347229167,65.0,69.0
811,112.75061843125003,112.9040737541667,53.0,77.0
812,112.50671593125003,112.9071225354167,69.0,76.0
813,112.50671593125003,112.92643148333336,60.0,82.0
814,113.48232593125003,113.58191945208337,65.0,76.0
815,113.48232593125003,113.59208205625004,60.0,79.0
816,113.48232593125003,113.60630970208337,69.0,75.0
817,112.99452093125004,113.80549674375004,50.0,84.0
818,113.72622843125004,114.06513093125004,60.0,80.0
819,113.72622843125004,114.08613093125004,65.0,73.0
820,113.72622843125004,114.13513093125005,69.0,76.0
821,114.21013093125003,114.33713093125004,60.0,76.0
822,114.45013093125004,114.59013093125004,65.0,82.0
823,114.45013093125004,114.59113093125004,60.0,81.0
824,113.97013093125004,114.69713093125004,50.0,80.0
825,114.45013093125004,114.83613093125004,69.0,80.0
826,114.69013093125004,114.85213093125004,60.0,63.0
827,114.69013093125004,114.97952609583336,65.0,54.0
828,115.41400193125003,115.5127922604167,65.0,79.0
829,115.41400193125003,115.51984871250004,62.0,78.0
830,115.41400193125003,115.5490825854167,70.0,83.0
831,114.93013093125003,115.68920356250004,55.0,75.0
832,114.93013093125003,115.75775195416671,43.0,81.0
833,115.65593743125004,115.79202615000004,62.0,78.0
834,115.65593743125004,115.79202615000004,65.0,79.0
835,116.37787293125004,116.48387293125003,60.0,68.0
836,116.37787293125004,116.50387293125003,67.0,76.0
837,115.89787293125003,116.53487293125004,48.0,84.0
838,116.61787293125003,116.85487293125003,48.0,83.0
839,116.61787293125003,116.93822999375003,60.0,72.0
840,116.61787293125003,116.96005536875003,67.0,80.0
841,117.33406293125003,117.43426124375003,60.0,78.0
842,117.33406293125003,117.43822949375003,65.0,82.0
843,117.33406293125003,117.46203899375003,69.0,79.0
844,116.85787293125003,117.64557055625004,53.0,83.0
845,117.57215793125003,117.91125293125003,60.0,78.0
846,117.57215793125003,117.91725293125003,65.0,79.0
847,117.57215793125003,117.94325293125003,69.0,76.0
848,118.29025293125004,118.40825293125003,65.0,80.0
849,118.29025293125004,118.41325293125003,60.0,79.0
850,118.29025293125004,118.42525293125003,69.0,76.0
851,117.81025293125003,118.68325293125004,48.0,83.0
852,118.53025293125003,118.88541042500003,60.0,79.0
853,118.53025293125003,118.8932844416667,65.0,81.0
854,118.53025293125003,118.91985924791669,69.0,72.0
855,119.24269393125003,119.32340260208336,65.0,80.0
856,119.24269393125003,119.33226087083337,60.0,79.0
857,119.24269393125003,119.36474118958336,69.0,76.0
858,118.77025293125003,119.61178846250003,53.0,80.0
859,119.47891443125003,119.80076486250003,60.0,76.0
860,119.47891443125003,119.80076486250003,65.0,77.0
861,119.47891443125003,119.83521368541669,69.0,78.0
862,120.18757593125002,120.28698539166669,65.0,75.0
863,120.18757593125002,120.3076546854167,60.0,80.0
864,120.18757593125002,120.3165129541667,69.0,73.0
865,119.71513493125003,120.53009565625003,48.0,80.0
866,120.42379643125003,120.65804842708336,65.0,80.0
867,120.42379643125003,120.67871772083336,69.0,80.0
868,120.42379643125003,120.79584371875002,60.0,80.0
869,121.13245793125003,121.20545793125002,65.0,79.0
870,121.13245793125003,121.21945793125003,60.0,83.0
871,121.13245793125003,121.23545793125002,69.0,76.0
872,120.66001693125003,121.44045793125004,53.0,82.0
873,121.37245793125003,121.65945793125003,65.0,76.0
874,121.37245793125003,121.68945793125003,60.0,82.0
875,121.37245793125003,121.69945793125002,69.0,79.0
876,121.61245793125003,122.11261922291669,53.0,86.0
877,122.09245793125002,122.52491763750002,52.0,83.0
878,122.09245793125002,122.57632893125002,60.0,80.0
879,122.09245793125002,122.5904418354167,64.0,82.0
880,122.09245793125002,122.60657086875003,67.0,82.0
881,123.06019993125003,123.14991767916669,60.0,79.0
882,123.06019993125003,123.15394993750003,65.0,75.0
883,123.06019993125003,123.18015961666669,69.0,76.0
884,122.57632893125002,123.43015963333336,50.0,83.0
885,123.30213543125002,123.55785046041669,60.0,83.0
886,123.30213543125002,123.57261424166668,65.0,84.0
887,123.30213543125002,123.57359849375001,69.0,79.0
888,124.01651193125002,124.10312611458335,60.0,79.0
889,124.01651193125002,124.10411036666669,65.0,79.0
890,124.01651193125002,124.11788989583336,69.0,73.0
891,123.54407093125002,124.30096078333335,57.0,81.0
892,124.25273243125002,124.46729938541668,69.0,80.0
893,124.25273243125002,124.47714190625003,65.0,83.0
894,124.25273243125002,124.50863797291669,60.0,84.0
895,124.96139393125002,125.03718134166668,65.0,79.0
896,124.96139393125002,125.04407110625002,60.0,82.0
897,124.96139393125002,125.05686638333336,69.0,77.0
898,124.48895293125003,125.27241758958336,50.0,80.0
899,125.19761443125002,125.47812627500002,65.0,83.0
900,125.19761443125002,125.48107903125002,69.0,83.0
901,125.19761443125002,125.48501603958336,60.0,82.0
902,125.43383493125002,125.94958302291668,50.0,90.0
903,125.90627593125002,126.04210271875002,65.0,84.0
904,125.90627593125002,126.22812636250002,60.0,84.0
905,125.90627593125002,126.27733896666669,69.0,81.0
906,126.14249643125002,126.38757520000001,65.0,86.0
907,126.85115793125001,126.95253589583335,62.0,78.0
908,126.85115793125001,126.96237841666668,65.0,81.0
909,126.85115793125001,126.96828392916669,70.0,82.0
910,126.37871693125003,127.16710285000002,43.0,86.0
911,126.37871693125003,127.18088237916669,55.0,84.0
912,127.08737843125002,127.31277215833336,65.0,82.0
913,127.08737843125002,127.35686506250002,70.0,84.0
914,127.08737843125002,127.39416345208335,62.0,82.0
915,127.80746993125001,127.90726832500002,62.0,80.0
916,127.32359893125002,127.91331671250002,55.0,75.0
917,127.80746993125001,127.91734897083334,70.0,82.0
918,127.80746993125001,127.92843768125002,67.0,79.0
919,128.04940543125002,128.2399296375,70.0,82.0
920,128.04940543125002,128.359254325,67.0,79.0
921,128.04940543125002,128.37401810625,62.0,82.0
922,128.76378193125,128.84645910625,65.0,78.0
923,128.76378193125,128.86417564375,62.0,81.0
924,128.76378193125,128.88189218125,69.0,84.0
925,128.29134093125,129.05905755625,50.0,90.0
926,129.00000243125,129.25022293125002,65.0,84.0
927,129.00000243125,129.26522293125,69.0,79.0
928,129.00000243125,129.28322293125,62.0,83.0
929,129.71622293125,129.80422293125002,65.0,75.0
930,129.71622293125,129.81722293125,62.0,78.0
931,129.71622293125,129.84022293125003,69.0,75.0
932,129.23622293125,129.86122293125,57.0,79.0
933,129.95622293125,130.16322293125,69.0,78.0
934,129.95622293125,130.21022293125,65.0,82.0
935,129.95622293125,130.22022293125002,62.0,80.0
936,130.67622293125,130.77422293125002,65.0,79.0
937,130.67622293125,130.77722293125,62.0,78.0
938,130.67622293125,130.79622293125,69.0,82.0
939,130.19622293125002,130.93222293125,50.0,93.0
940,130.91622293125002,131.27502463958334,62.0,84.0
941,130.91622293125002,131.28225604791666,65.0,84.0
942,130.91622293125002,131.29155357291665,69.0,82.0
943,131.15622293125,131.66552068958333,57.0,79.0
944,131.65209093125,131.75333064791667,65.0,79.0
945,131.65209093125,131.76572734791665,62.0,79.0
946,131.65209093125,131.77399181458333,69.0,75.0
947,131.90002493125,132.09010766458334,62.0,79.0
948,131.90002493125,132.09630601458332,69.0,79.0
949,131.90002493125,132.11593412291666,65.0,83.0
950,132.64382693125,132.76262863958334,70.0,83.0
951,132.64382693125,132.77089310624999,62.0,79.0
952,132.64382693125,132.78122368958333,67.0,79.0
953,132.14795893125,132.96924030625,43.0,81.0
954,132.14795893125,133.00643040625,55.0,76.0
955,132.89176093125,133.16958623958334,70.0,81.0
956,132.89176093125,133.23072755208335,62.0,80.0
957,132.89176093125,133.34485800208333,67.0,84.0
958,133.79186893125,133.92909721041667,70.0,73.0
959,133.79186893125,133.95219503958333,62.0,84.0
960,133.79186893125,133.97121678125,67.0,74.0
961,133.13969493125,134.15871680625,50.0,90.0
962,134.11795593125,134.28643421458335,70.0,79.0
963,134.11795593125,134.49612626458335,62.0,82.0
964,134.11795593125,134.5232095979167,67.0,80.0
965,134.44404293125,134.80654293125002,60.0,80.0
966,134.44404293125,134.81070959791668,64.0,81.0
967,135.19404293125,135.71904293125002,64.0,80.0
968,135.19404293125,135.80237626458333,60.0,68.0
969,134.44404293125,136.06070959791668,45.0,90.0
970,135.19404293125,136.07112626458334,72.0,86.0
971,135.69404293125,136.17529293125,57.0,72.0
972,136.44404293125,137.80545615625002,70.0,84.0
973,136.44404293125,138.05002140625,58.0,71.0
974,136.44404293125,138.08806488958334,65.0,83.0
975,136.44404293125,138.17502142291667,62.0,80.0
976,136.44404293125,138.18589098958336,46.0,79.0
977,138.99295631458335,139.53537704791668,67.0,91.0
978,138.99295631458335,139.57183532291668,64.0,86.0
979,138.99295631458335,139.57530753958335,72.0,93.0
980,139.87044595625002,140.24197313958337,64.0,90.0
981,139.88433482291668,140.38780623958334,60.0,75.0
982,140.2957924979167,140.63086140625,67.0,95.0
983,139.43294665625,140.92773626458336,55.0,57.0
984,140.69336130625,140.97606959791668,69.0,84.0
985,140.69336130625,140.99440293125002,64.0,84.0
986,141.07606959791667,141.2710695979167,72.0,95.0
987,140.71593071458335,141.53106959791668,60.0,76.0
988,141.45273626458334,141.79940293125003,74.0,94.0
989,141.85440293125,142.02273626458336,60.0,71.0
990,138.99295631458335,142.04440293125,48.0,90.0
991,141.47440293125,142.1160695979167,55.0,75.0
992,141.8310695979167,142.30440293125002,76.0,84.0
993,142.54106959791667,142.88273626458334,72.0,86.0
994,142.53773626458334,142.9260695979167,67.0,81.0
995,143.20773626458336,143.39440293125003,62.0,80.0
996,143.35440293125,143.53606959791668,64.0,82.0
997,143.51440293125,143.67440293125003,67.0,76.0
998,143.6510695979167,143.72606959791668,72.0,83.0
999,143.80940293125002,143.88606959791667,72.0,81.0
1000,143.81273626458335,144.01940293125003,74.0,78.0
1001,143.93773626458335,144.13773626458334,76.0,72.0
1002,144.09773626458335,144.28273626458335,79.0,63.0
1003,144.26273626458334,144.36273626458336,84.0,75.0
1004,144.4260695979167,144.60106959791668,86.0,80.0
1005,144.59440293125002,144.72273626458335,88.0,80.0
1006,144.8060695979167,144.9960695979167,91.0,75.0
1007,145.06940293125,145.14273626458336,96.0,82.0
1008,143.02440293125002,145.1510695979167,60.0,84.0
1009,142.8310695979167,145.21773626458335,55.0,72.0
1010,142.54940293125003,145.29940293125003,48.0,82.0
