,start,end,pitch,velocity
0,32.156761358333334,32.540764625,60.0,99.0
1,32.718448075000005,33.07709315,60.0,100.0
2,33.279196075,33.519850425,60.0,112.0
3,33.559570075,33.82943005,60.0,112.0
4,33.839944075000005,34.078261975000004,63.0,117.0
5,34.120318075,34.365645325,65.0,96.0
6,34.400692075,35.681066675000004,67.0,122.0
7,36.082936075,36.565413,67.0,112.0
8,36.643684075,37.30606765,65.0,112.0
9,37.484806075,37.704432375,63.0,122.0
10,37.765180075,38.17055415,65.0,107.0
11,38.045554075,38.17055415,65.0,107.0
12,38.606302075,39.022190175000006,70.0,127.0
13,39.167050075000006,40.356303125000004,67.0,112.0
14,41.129668075,41.459107525,60.0,102.0
15,41.690416075,41.945089125,60.0,112.0
16,41.970790075000004,42.258173425,60.0,97.0
17,42.251164075000005,42.258173425,60.0,127.0
18,43.092286075000004,43.382005875000004,63.0,117.0
19,43.372660075,44.552567325,65.0,97.0
20,45.054904075,45.273362150000004,58.0,127.0
21,45.335278075000005,45.551399700000005,60.0,96.0
22,45.615652075,46.078269175,62.0,127.0
23,46.456774075,46.622662025000004,60.0,99.0
24,46.737148075,46.874998625,58.0,99.0
25,47.017522075,47.4345784,58.0,112.0
26,47.578270075,47.8364478,62.0,96.0
27,47.858644075,49.720794725000005,60.0,107.0
28,50.101636075,50.442757775000004,60.0,100.0
29,50.662384075000006,51.033879625,60.0,95.0
30,51.223132075,51.359814400000005,60.0,102.0
31,51.503506075000004,51.705609,60.0,100.0
32,51.783880075,52.06191762500001,63.0,122.0
33,52.064254075,52.309581324999996,65.0,99.0
34,52.344628075,54.143694575,67.0,117.0
35,54.026872075,54.143694575,67.0,117.0
36,54.307246075,54.487152725,67.0,122.0
37,54.587620075000004,55.177573699999996,65.0,127.0
38,55.428742075,55.653041275,63.0,117.0
39,55.709116075,56.103976125,65.0,117.0
40,56.550238075,56.9486028,70.0,127.0
41,57.110986075,58.466127075,67.0,112.0
42,59.073604075000006,59.4252398,60.0,107.0
43,59.634352075,59.75935215,60.0,112.0
44,59.914726075000004,60.047903725,60.0,102.0
45,60.195100075,60.911222,60.0,112.0
46,61.036222075,61.281549325,63.0,112.0
47,61.316596075,62.751176375,65.0,117.0
48,62.998840075000004,63.185756075,58.0,127.0
49,63.279214075,63.4486067,60.0,112.0
50,63.559588075,64.45094375,62.0,127.0
51,64.400710075,64.61916815000001,60.0,97.0
52,64.681084075,64.82477575,58.0,117.0
53,64.961458075,65.34346765000001,58.0,112.0
54,65.522206075,65.93225305,62.0,99.0
55,66.082954075,67.63085219999999,60.0,107.0
56,68.045572075,68.18575907499999,67.0,97.0
57,68.18575907499999,68.349310575,65.0,95.0
58,68.32594607499999,69.53038605,67.0,99.0
59,69.72781607499999,70.244171525,65.0,122.0
60,70.28856407500001,71.7944061,67.0,112.0
61,71.97080807500001,72.202116625,65.0,107.0
62,72.251182075,72.51169625,67.0,102.0
63,72.531556075,73.1089239125,70.0,127.0
64,73.3734371375,73.49633045,70.0,127.0
65,73.6543361375,74.004289475,70.0,127.0
66,74.21613413749999,74.35541322499999,65.0,107.0
67,74.4970331375,75.006162575,68.0,122.0
68,75.1992806375,76.6740003875,67.0,122.0
69,77.0251241375,78.5103776,65.0,127.0
70,78.7105181375,79.1857056125,63.0,117.0
71,79.2723161375,80.6112680375,65.0,127.0
72,80.9577101375,81.1239087125,58.0,127.0
73,81.23860913749999,81.3743769875,60.0,99.0
74,81.5195081375,82.2030290375,62.0,127.0
75,82.3622051375,82.5845835125,60.0,122.0
76,82.6431041375,83.2189470875,58.0,122.0
77,83.2049021375,83.2189470875,58.0,127.0
78,83.7667001375,84.2442284375,62.0,107.0
79,84.1880486375,85.8172628375,60.0,102.0
80,86.0138921375,86.3977874375,60.0,99.0
81,86.5756901375,86.935006775,60.0,100.0
82,87.1374881375,87.3785931125,60.0,112.0
83,87.41838713749999,87.688752425,60.0,112.0
84,87.6992861375,87.9380502875,63.0,117.0
85,87.9801851375,88.2259717625,65.0,96.0
86,88.26108413749999,89.5438562375,67.0,122.0
87,89.9464781375,90.0190437125,67.0,112.0
88,90.2273771375,90.42517685,67.0,127.0
89,90.50827613749999,91.171900025,65.0,112.0
90,91.3509731375,91.5710106875,63.0,122.0
91,91.6318721375,92.038005275,65.0,107.0
92,91.9127711375,92.038005275,65.0,107.0
93,92.4745691375,92.8912359875,70.0,127.0
94,93.0363671375,94.229790375,67.0,112.0
95,95.00605709166666,95.33673264166666,60.0,102.0
96,95.56890909166667,95.82453770833334,60.0,112.0
97,95.85033509166666,96.13879674166667,60.0,97.0
98,96.13176109166666,96.13879674166667,60.0,127.0
99,96.41318709166666,96.56328095833334,60.0,99.0
100,96.69461309166667,96.95141431666667,60.0,100.0
101,96.97603909166666,97.26684595833333,63.0,117.0
102,97.25746509166666,98.44179950833333,65.0,97.0
103,98.94602109166667,99.203994925,62.0,127.0
104,99.22744709166666,99.44907006666666,60.0,90.0
105,99.50887309166666,100.13387333333333,58.0,112.0
106,100.35315109166666,100.491518875,58.0,117.0
107,100.63457709166667,101.19742909166666,58.0,122.0
108,101.19742909166666,101.43664119166667,58.0,127.0
109,101.47885509166666,101.743864575,62.0,99.0
110,101.76028109166667,103.974165625,60.0,99.0
111,122.10927370833333,122.49066937500001,60.0,99.0
112,122.66741370833334,123.02439075000001,60.0,100.0
113,123.22555370833334,123.46508879166667,60.0,112.0
114,123.50462370833334,123.77322858333333,60.0,112.0
115,123.78369370833333,124.02090320833334,63.0,117.0
116,124.06276370833334,124.30694995833333,65.0,96.0
117,124.34183370833334,125.616253375,67.0,122.0
118,126.01625370833334,126.49648666666667,67.0,112.0
119,126.57439370833333,127.23369658333334,65.0,112.0
120,127.41160370833333,127.63020854166668,63.0,122.0
121,127.69067370833334,128.09416241666668,65.0,107.0
122,127.96974370833334,128.09416241666668,65.0,107.0
123,128.52788370833335,128.94183754166667,70.0,127.0
124,129.08602370833333,130.269745625,67.0,112.0
125,131.03951370833335,131.36742095833333,60.0,102.0
126,131.59823507500002,131.85290812500003,60.0,112.0
127,131.878609075,132.165992425,60.0,97.0
128,132.158983075,132.165992425,60.0,127.0
129,133.00010507500002,133.28982487500002,63.0,117.0
130,133.28047907500002,134.46038632500003,65.0,97.0
131,134.962723075,135.18118115000001,58.0,127.0
132,135.243097075,135.4592187,60.0,96.0
133,135.523471075,135.98608817500002,62.0,127.0
134,136.36459307500002,136.53048102500003,60.0,99.0
135,136.644967075,136.782817625,58.0,99.0
136,136.925341075,137.3423974,58.0,112.0
137,137.48608907500002,137.74426680000002,62.0,96.0
138,137.76646307500002,139.628613725,60.0,107.0
139,140.009455075,140.350576775,60.0,100.0
140,140.57020307500002,140.94169862500001,60.0,95.0
141,141.130951075,141.26763340000002,60.0,102.0
142,141.411325075,141.61342800000003,60.0,100.0
143,141.69169907500003,141.96973662500002,63.0,122.0
144,141.97207307500003,142.21740032500003,65.0,99.0
145,142.25244707500002,143.37394307500003,67.0,117.0
146,143.93469107500002,144.051513575,67.0,117.0
147,144.215065075,144.394971725,67.0,122.0
148,144.495439075,145.08684745000002,65.0,127.0
149,145.3403853041667,145.56680050416668,63.0,117.0
150,145.62340430416668,146.02198939583334,65.0,117.0
151,146.4724613041667,146.87458413333334,70.0,127.0
152,147.0384993041667,148.40642447083334,67.0,112.0
153,149.0196323041667,149.37458530000004,60.0,107.0
154,149.58567030416668,149.71184960833335,60.0,112.0
155,149.86868930416668,150.0031233291667,60.0,102.0
156,150.1517083041667,150.87458600000002,60.0,112.0
157,151.0007653041667,151.2484069291667,63.0,112.0
158,151.2837843041667,152.73189818750004,65.0,117.0
159,152.9818983041667,153.17057763750003,58.0,127.0
160,153.2649173041667,153.43590795000003,60.0,112.0
161,153.54793630416668,154.447700875,62.0,127.0
162,154.3969933041667,154.61751227500002,60.0,97.0
163,154.6800123041667,154.8250595416667,58.0,117.0
164,154.9630313041667,155.3486446916667,58.0,112.0
165,155.52906930416668,155.9429845916667,62.0,99.0
166,156.0951073041667,157.65760803333336,60.0,107.0
167,158.0762403041667,158.2177498041667,67.0,97.0
168,158.2177498041667,158.38284422083336,65.0,95.0
169,158.3592593041667,159.57008908333336,67.0,99.0
170,159.7684457916667,160.28722487500002,65.0,122.0
171,160.3318257916667,161.84473583333335,67.0,112.0
172,162.0219657916667,162.2543600416667,65.0,107.0
173,162.3036557916667,162.56539275000003,67.0,102.0
174,162.5853457916667,163.16515770833337,70.0,127.0
175,163.4304157916667,163.5536551666667,70.0,127.0
176,163.7121057916667,164.06304458333335,70.0,127.0
177,164.27548579166668,164.41515708333336,65.0,107.0
178,164.55717579166668,165.06773891666668,68.0,122.0
179,165.2614007916667,166.74027329166668,67.0,122.0
180,167.0923857916667,168.57690860000002,65.0,127.0
181,168.77667507500004,169.25097442500004,63.0,117.0
182,169.33742307500003,170.67387247500002,65.0,127.0
183,171.01966707500003,171.18555502500004,58.0,127.0
184,171.30004107500002,171.43555517500002,60.0,99.0
185,171.58041507500002,172.26265847500002,62.0,127.0
186,172.42153707500003,172.64349982500002,60.0,122.0
187,172.70191107500003,173.27667777500002,58.0,122.0
188,173.26265907500004,173.27667777500002,58.0,127.0
189,173.82340707500003,174.30004287500003,62.0,107.0
190,174.24396807500003,175.87013727500002,60.0,102.0
191,176.06639907500002,176.44957687500002,60.0,99.0
192,176.62714707500004,176.98579215000004,60.0,100.0
193,177.18789507500003,177.42854942500003,60.0,112.0
194,177.46826907500002,177.73812905000003,60.0,112.0
195,177.74864307500002,177.98696097500004,63.0,117.0
196,178.02901707500004,178.27434432500004,65.0,96.0
197,178.30939107500004,179.58976567500002,67.0,122.0
198,179.99163507500003,180.06406502500002,67.0,112.0
199,180.27200907500003,180.46943910000005,67.0,127.0
200,180.55238307500002,181.21476665000003,65.0,112.0
201,181.39350507500004,181.61313137500002,63.0,122.0
202,181.67387907500003,182.07925315000003,65.0,107.0
203,181.95425307500003,182.07925315000003,65.0,107.0
204,182.51500107500004,182.93088917500003,70.0,127.0
205,183.07574907500003,184.26500212500002,67.0,112.0
206,185.03836707500002,185.36780652500002,60.0,102.0
207,185.59911507500004,185.85378812500002,60.0,112.0
208,185.87948907500004,186.16687242500004,60.0,97.0
209,186.15986307500003,186.16687242500004,60.0,127.0
210,186.44023707500003,186.58976987500003,60.0,99.0
211,186.72061107500002,186.97645235000005,60.0,100.0
212,187.00098507500002,187.29070487500002,63.0,117.0
213,187.28135907500004,188.46126632500003,65.0,97.0
214,188.96360307500004,189.22061257500002,62.0,127.0
215,189.24397707500003,189.46477160000003,60.0,90.0
216,189.52435107500003,190.14701500000004,58.0,112.0
217,190.36547307500004,190.50332362500004,58.0,117.0
218,190.64584707500003,191.20659507500002,58.0,122.0
219,191.20659507500002,191.44491297500002,58.0,127.0
220,191.48696907500005,191.75098792500003,62.0,99.0
221,191.76734307500004,193.72061527500003,60.0,99.0
222,194.01033507500003,194.33977452500002,60.0,102.0
223,194.57108307500005,194.82575612500003,60.0,112.0
224,194.85145707500004,195.13884042500004,60.0,97.0
225,195.13183107500004,195.13884042500004,60.0,127.0
226,195.41220507500003,195.56173787500003,60.0,99.0
227,195.69257907500003,195.94842035000002,60.0,100.0
228,195.97295307500002,196.26267287500002,63.0,117.0
229,196.25332707500002,197.43323432500003,65.0,97.0
230,197.93557107500004,198.19258057500002,62.0,127.0
231,198.21594507500004,198.43673960000004,60.0,90.0
232,198.49631907500003,199.11898300000004,58.0,112.0
233,199.33744107500002,199.47529162500004,58.0,117.0
234,199.61781507500004,200.17856307500003,58.0,122.0
235,200.17856307500003,200.41688097500003,58.0,127.0
236,200.45893707500002,200.72295592500004,62.0,99.0
237,200.73931107500005,202.42155507500001,60.0,99.0
238,202.98230307500003,203.31174252500003,60.0,102.0
239,203.54305107500002,203.79772412500003,60.0,112.0
240,203.82342507500005,204.11080842500002,60.0,97.0
241,204.10379907500004,204.11080842500002,60.0,127.0
242,204.38417307500004,204.53370587500004,60.0,99.0
243,204.66454707500003,204.92038835000002,60.0,100.0
244,204.94492107500002,205.23464087500003,63.0,117.0
245,205.22529507500002,206.40520232500003,65.0,97.0
246,206.90753907500005,207.16454857500003,62.0,127.0
247,207.18791307500004,207.4087076,60.0,90.0
248,207.46828707500003,208.09095100000002,58.0,112.0
249,208.30940907500002,208.44725962500002,58.0,117.0
250,208.589783075,209.15053107500003,58.0,122.0
251,209.15053107500003,209.38884897500003,58.0,127.0
252,209.43090507500003,209.69492392500004,62.0,99.0
253,209.71127907500002,211.95427107500004,60.0,99.0
254,211.95427107500004,212.28371052500003,60.0,102.0
255,212.51501907500003,212.76969212500003,60.0,112.0
256,212.79539307500002,213.08277642500002,60.0,97.0
257,213.07576707500004,213.08277642500002,60.0,127.0
258,213.35614107500004,213.505673875,60.0,99.0
259,213.63651507500003,213.89235635000003,60.0,100.0
260,213.91688907500003,214.20660887500003,63.0,117.0
261,214.19726307500002,215.37717032500004,65.0,97.0
262,215.87950707500002,216.13651657500003,62.0,127.0
263,216.15988107500004,216.38067560000002,60.0,90.0
264,216.44025507500004,217.06291900000002,58.0,112.0
265,217.28137707500002,217.41922762500002,58.0,117.0
266,217.56175107500002,218.12249907500004,58.0,122.0
267,218.12249907500004,218.36081697500003,58.0,127.0
268,218.40287307500003,218.66689192500002,62.0,99.0
269,218.68324707500003,220.92623907500004,60.0,99.0
270,220.92623907500004,221.25567852500004,60.0,102.0
271,221.48698707500003,221.74166012500004,60.0,112.0
272,221.76736107500003,222.05474442500002,60.0,97.0
273,222.04773507500002,222.05474442500002,60.0,127.0
274,222.32810907500004,222.47764187500002,60.0,99.0
275,222.60848307500004,222.86432435000003,60.0,100.0
276,222.88885707500003,223.17857687500003,63.0,117.0
277,223.16923107500003,224.349138325,65.0,97.0
278,224.85147507500002,225.10848457500003,62.0,127.0
279,225.13184907500002,225.35264360000002,60.0,90.0
280,225.41222307500004,226.03488700000003,58.0,112.0
281,226.25334507500003,226.39119562500002,58.0,117.0
282,226.53371907500002,227.09446707500004,58.0,122.0
283,227.09446707500004,227.33278497500004,58.0,127.0
284,227.37484107500003,227.63885992500002,62.0,99.0
285,227.65521507500003,229.89820707500002,60.0,99.0
