,start,end,pitch,velocity
0,0.9682033583333333,1.4002070333333332,55.0,45.0
1,1.2491813583333333,1.8778696333333333,62.0,62.0
2,1.8111373583333332,2.4749478833333334,63.0,86.0
3,0.6872253583333333,2.7535844,48.0,59.0
4,1.5301593583333333,2.848414475,55.0,30.0
5,2.373093358333333,3.206661425,62.0,58.0
6,3.216027358333333,3.7639344583333334,55.0,43.0
7,3.4970053583333334,4.128035116666666,62.0,62.0
8,3.777983358333333,4.316524525,55.0,66.0
9,2.935049358333333,4.4488183333333335,48.0,56.0
10,4.058961358333333,4.6490151583333335,63.0,81.0
11,4.620917358333333,5.213312641666667,62.0,70.0
12,5.463851358333333,5.8548790749999995,48.0,55.0
13,5.744829358333333,6.384054308333333,55.0,61.0
14,6.025807358333333,6.46951845,48.0,40.0
15,6.306785358333333,6.89098545,56.0,86.0
16,5.1828733583333335,7.303086516666666,41.0,64.0
17,6.5877633583333335,7.497429633333333,48.0,40.0
18,6.868741358333333,7.553625233333333,55.0,54.0
19,7.711675358333333,8.140166808333333,48.0,63.0
20,7.9926533583333335,8.616658666666666,55.0,65.0
21,7.430697358333333,8.97022265,41.0,60.0
22,8.554609358333334,9.169248733333333,56.0,81.0
23,8.273631358333333,9.212566175,48.0,53.0
24,9.116565358333332,9.6796921,55.0,62.0
25,9.959499358333334,10.345844108333333,50.0,63.0
26,10.240477358333333,10.864482666666666,55.0,72.0
27,9.678521358333333,11.820978608333332,43.0,72.0
28,10.521455358333332,11.926345358333332,50.0,55.0
29,11.926345358333332,13.469382874999999,43.0,55.0
30,10.802433358333333,13.975143274999999,59.0,69.0
31,11.364389358333334,13.9786555,62.0,71.0
32,14.455147358333333,14.791150216666667,55.0,42.0
33,15.017103358333333,15.344911025,55.0,47.0
34,14.736125358333332,15.360130666666667,60.0,79.0
35,14.174169358333334,15.897501091666665,48.0,73.0
36,15.579059358333334,15.9595504,55.0,43.0
37,15.298081358333333,15.967745591666667,63.0,92.0
38,15.860037358333333,16.461798575,62.0,67.0
39,16.702971358333333,17.0413157,58.0,63.0
40,17.26492735833333,17.598588733333333,58.0,36.0
41,17.545905358333332,17.942786783333332,63.0,76.0
42,16.42199335833333,18.203862175,46.0,83.0
43,18.107861358333334,18.487181658333334,58.0,64.0
44,16.983949358333334,18.673329583333334,62.0,72.0
45,18.388839358333332,19.114699191666666,63.0,76.0
46,18.950795358333334,19.342993816666667,56.0,68.0
47,18.950795358333334,19.632167008333333,60.0,69.0
48,19.512751358333333,20.055975491666665,56.0,59.0
49,18.669817358333333,20.32173385,44.0,72.0
50,19.793729358333334,20.990227341666667,63.0,97.0
51,20.355685358333332,21.023008108333332,60.0,68.0
52,21.19861935833333,21.656379349999998,50.0,69.0
53,21.479597358333333,22.139895658333334,55.0,70.0
54,21.760575358333334,22.5625334,50.0,51.0
55,20.917641358333334,22.678436825,43.0,69.0
56,22.04155335833333,23.234539116666667,62.0,95.0
57,22.603509358333334,23.245075791666665,59.0,92.0
58,23.446443358333333,23.8971789,48.0,78.0
59,23.727421358333334,24.408793008333333,53.0,89.0
60,24.00839935833333,24.617185024999998,48.0,72.0
61,23.165465358333332,24.633575408333332,41.0,83.0
62,24.289377358333333,25.393386749999998,60.0,99.0
63,24.85133335833333,25.426167516666666,56.0,97.0
64,25.975245358333332,26.703446675,55.0,79.0
65,26.256223358333333,27.294671216666664,46.0,31.0
66,25.413289358333333,27.398867225,39.0,88.0
67,25.69426735833333,27.433989475,51.0,72.0
68,27.099157358333333,27.586185891666666,58.0,90.0
69,26.537201358333334,27.586185891666666,63.0,107.0
70,28.223069358333333,28.833025766666665,53.0,82.0
71,28.50404735833333,28.973514766666664,49.0,63.0
72,27.942091358333332,29.389128058333334,44.0,34.0
73,27.66111335833333,29.400835474999997,37.0,102.0
74,29.066003358333333,29.476933683333332,49.0,56.0
75,28.785025358333332,29.924156999999997,56.0,99.0
76,29.346981358333334,29.97332815,53.0,88.0
77,30.47089335833333,31.133533141666664,55.0,78.0
78,30.189915358333334,31.176850583333334,48.0,78.0
79,31.31382735833333,31.632269091666664,48.0,66.0
80,31.032849358333333,31.695489141666666,63.0,117.0
81,29.908937358333333,32.08066315,36.0,76.0
82,30.751871358333332,32.12866355833333,43.0,58.0
83,31.594805358333332,32.142712458333335,62.0,99.0
84,32.156761358333334,32.88083135,36.0,78.0
85,32.998822075,33.146018425,36.0,70.0
86,32.718448075000005,33.46961675,55.0,92.0
87,33.279196075,33.9252245,36.0,56.0
88,33.559570075,34.369150000000005,48.0,72.0
89,34.120318075,34.393682725000005,51.0,62.0
90,33.839944075000005,34.418215450000005,55.0,89.0
91,34.400692075,35.1261598,34.0,82.0
92,34.681066075000004,35.190412175000006,46.0,61.0
93,35.241814075,35.389010425,34.0,82.0
94,34.961440075,35.89017895,58.0,100.0
95,35.522188075,36.3270951,34.0,83.0
96,35.802562075000004,36.48363725,50.0,66.0
97,36.363310075,36.6261607,53.0,64.0
98,36.082936075,36.62849715,58.0,102.0
99,36.924058075000005,37.260506875000004,44.0,90.0
100,37.204432075,37.6027968,51.0,79.0
101,36.643684075,37.647189350000005,32.0,72.0
102,37.484806075,37.7476567,48.0,43.0
103,37.765180075,38.582937575,34.0,86.0
104,38.045554075,38.797890975,46.0,70.0
105,38.606302075,38.80139565,50.0,76.0
106,38.325928075,38.835274175,53.0,88.0
107,39.167050075000006,39.52102225,51.0,70.0
108,39.447424075,39.917050525,58.0,107.0
109,39.727798075,39.928732775,51.0,95.0
110,38.886676075000004,39.952097275,39.0,93.0
111,40.008172075000004,40.778032350000004,43.0,58.0
112,40.288546075,40.811910875,50.0,73.0
113,40.849294075,41.094621325000006,55.0,74.0
114,40.568920075,41.106303575,59.0,95.0
115,41.129668075,41.835275975,36.0,71.0
116,41.410042075,41.872659175,43.0,55.0
117,41.970790075000004,42.081771450000005,36.0,63.0
118,41.690416075,42.466117475000004,55.0,99.0
119,42.251164075000005,42.977800025,36.0,82.0
120,42.531538075,43.325931075,48.0,71.0
121,42.811912075,43.37616475,55.0,95.0
122,43.092286075000004,43.383174100000005,51.0,83.0
123,43.372660075,44.103968925000004,41.0,74.0
124,44.213782075,44.367987775,41.0,77.0
125,43.653034075,44.543221525,53.0,77.0
126,43.933408075,44.634343075000004,60.0,88.0
127,44.774530075,45.53504455,53.0,77.0
128,44.494156075,45.5700913,41.0,60.0
129,45.335278075000005,45.58177355,56.0,83.0
130,45.054904075,45.59111935,60.0,92.0
131,45.615652075,46.379671225,43.0,70.0
132,46.456774075,46.586447050000004,43.0,78.0
133,45.896026075,46.7850453,55.0,76.0
134,46.176400075000004,46.839951875000004,62.0,93.0
135,46.737148075,47.262849325000005,43.0,83.0
136,47.017522075,47.85280295,55.0,77.0
137,47.297896075000004,47.866821650000006,62.0,95.0
138,47.578270075,47.879672125,58.0,85.0
139,47.858644075,48.55841085,36.0,77.0
140,48.139018075,48.62383145,43.0,66.0
141,48.699766075,48.82009325,36.0,78.0
142,48.419392075000005,49.334112250000004,55.0,72.0
143,49.260514075,49.77803775,51.0,55.0
144,48.980140075,50.005841625,36.0,71.0
145,49.540888075,50.18458005,58.0,76.0
146,50.101636075,50.786215925,36.0,81.0
147,50.382010075,50.889019725,43.0,71.0
148,51.503506075000004,51.8971979,51.0,69.0
149,50.942758075,52.022197975,36.0,82.0
150,51.223132075,52.026870875,43.0,77.0
151,51.783880075,52.2710299,60.0,69.0
152,52.064254075,52.30607665,51.0,66.0
153,50.662384075000006,52.31074955,55.0,81.0
154,52.344628075,53.080609824999996,34.0,89.0
155,52.625002075,53.092292075,46.0,65.0
156,53.185750075,53.310750150000004,34.0,85.0
157,52.90537607500001,53.814255125,58.0,99.0
158,53.746498075000005,54.391358275,50.0,69.0
159,53.466124074999996,54.480143375,34.0,58.0
160,54.026872075,54.5046761,58.0,122.0
161,54.307246075,54.516358350000004,53.0,76.0
162,54.587620075000004,55.42757385,32.0,81.0
163,54.867994075,55.629676775,44.0,63.0
164,55.148368075,55.676405775000006,56.0,112.0
165,55.428742075,55.7056114,48.0,82.0
166,55.709116075,56.363322075,34.0,83.0
167,55.989490075000006,56.5467334,46.0,65.0
168,56.269864075,56.7616868,53.0,100.0
169,56.550238075,56.87617285,50.0,74.0
170,57.110986075,57.470799375,51.0,81.0
171,56.830612075000005,57.5233695,39.0,83.0
172,57.391360075,57.924070674999996,58.0,92.0
173,57.671734075,57.92757535,39.0,89.0
174,58.232482075,58.846968425,50.0,78.0
175,57.952108075,58.970800275,43.0,64.0
176,58.793230075,59.03037975,55.0,90.0
177,58.512856075,59.0514078,59.0,97.0
178,59.073604075000006,59.78271665,36.0,74.0
179,59.353978075,59.865660625000004,43.0,48.0
180,59.914726075000004,60.031548575,36.0,76.0
181,60.195100075,60.768698549999996,36.0,68.0
182,60.475474075,60.84813785,55.0,78.0
183,60.755848075,61.253511925,60.0,99.0
184,59.634352075,61.290895125000006,63.0,112.0
185,61.036222075,61.3691662,55.0,74.0
186,61.316596075,62.0280451,41.0,66.0
187,61.596970075,62.099306825,48.0,62.0
188,62.157718075000005,62.29206395,41.0,69.0
189,61.877344074999996,62.685755775000004,60.0,99.0
190,62.718466075,63.337625325000005,53.0,85.0
191,62.438092075,63.41823285,41.0,64.0
192,63.279214075,63.577111450000004,56.0,86.0
193,62.998840075000004,63.60982175,60.0,100.0
194,63.559588075,64.283887575,43.0,76.0
195,64.400710075,64.531551275,43.0,69.0
196,63.839962075,64.783887875,55.0,70.0
197,64.120336075,64.85865427499999,62.0,99.0
198,64.681084075,65.28739285,43.0,78.0
199,65.522206075,65.786224925,58.0,79.0
200,64.961458075,65.80258007500001,55.0,72.0
201,65.24183207499999,65.80258007500001,62.0,100.0
202,66.31543085,66.9018798,51.0,95.0
203,66.568935675,67.01636585,48.0,67.0
204,67.18459025,67.4766465,48.0,61.0
205,65.716131425,67.935758925,36.0,82.0
206,66.02103815000001,67.93692715,43.0,82.0
207,66.89019755000001,68.089964625,55.0,56.0
208,67.733656,68.092301075,51.0,86.0
209,67.4486091,68.110992675,60.0,75.0
210,68.045572075,68.702114525,39.0,92.0
211,68.88669407500001,69.012862375,39.0,81.0
212,68.32594607499999,69.279217675,55.0,88.0
213,68.606320075,69.33762892499999,63.0,117.0
214,68.606320075,69.33996537499999,58.0,107.0
215,69.167068075,70.199778975,39.0,93.0
216,69.447442075,70.375012725,55.0,78.0
217,70.008190075,70.4392651,58.0,112.0
218,69.72781607499999,70.4626296,63.0,127.0
219,70.28856407500001,71.01169535,39.0,97.0
220,71.129686075,71.225480525,39.0,63.0
221,70.568938075,71.46730310000001,55.0,90.0
222,70.849312075,71.515200325,58.0,97.0
223,70.849312075,71.67758359999999,63.0,122.0
224,71.97080807500001,72.45678967500001,63.0,127.0
225,71.41006007499999,72.48132240000001,39.0,96.0
226,71.690434075,72.50585512500001,58.0,102.0
227,72.251182075,72.54440654999999,55.0,90.0
228,72.531556075,73.2002160875,46.0,99.0
229,72.81193007499999,73.2189426875,53.0,85.0
230,73.3734371375,73.4904783875,46.0,107.0
231,73.0925381375,73.812341825,62.0,102.0
232,73.0925381375,74.0101415375,58.0,107.0
233,73.9352351375,74.271143525,53.0,89.0
234,73.6543361375,74.317960025,46.0,112.0
235,74.21613413749999,74.617585625,62.0,102.0
236,74.4970331375,74.7077073875,53.0,85.0
237,74.21613413749999,74.9804135,58.0,93.0
238,75.0588311375,75.37835375,51.0,89.0
239,74.7779321375,75.5223144875,39.0,99.0
240,75.3397301375,75.78331647499999,63.0,122.0
241,75.6206291375,75.839496275,58.0,99.0
242,76.1824271375,76.50077933749999,55.0,79.0
243,75.9015281375,76.53940295,36.0,93.0
244,76.4633261375,76.97947805,64.0,99.0
245,76.4633261375,77.0017158875,60.0,102.0
246,76.7442251375,77.05438445,55.0,86.0
247,77.3060231375,77.63490905,53.0,77.0
248,77.0251241375,77.7273716375,41.0,95.0
249,77.8678211375,77.9942256875,41.0,74.0
250,77.5869221375,78.37578016249999,56.0,93.0
251,77.5869221375,78.414403775,60.0,95.0
252,78.4296191375,78.779572475,53.0,85.0
253,78.14872013749999,79.14240035,41.0,69.0
254,78.7105181375,79.392868625,56.0,97.0
255,78.7105181375,79.427981,60.0,95.0
256,79.2723161375,79.95700744999999,41.0,90.0
257,79.5532151375,80.18406747499999,53.0,90.0
258,80.1150131375,80.226202325,41.0,74.0
259,79.8341141375,80.4731593625,56.0,95.0
260,79.8341141375,80.4801818375,60.0,92.0
261,80.6768111375,81.073580975,53.0,85.0
262,80.3959121375,81.181258925,41.0,81.0
263,80.9577101375,81.476202875,56.0,99.0
264,80.9577101375,81.5066336,60.0,93.0
265,81.8004071375,82.1702574875,53.0,85.0
266,81.5195081375,82.211221925,46.0,97.0
267,82.3622051375,82.487439275,46.0,88.0
268,82.0813061375,82.7601453875,62.0,93.0
269,82.0813061375,82.833881375,58.0,95.0
270,82.6431041375,83.6227394,46.0,102.0
271,83.2049021375,83.6590221875,62.0,90.0
272,82.9240031375,83.74329188749999,53.0,73.0
273,83.2049021375,83.9317283,58.0,96.0
274,83.7667001375,84.5017191875,48.0,92.0
275,84.6093971375,84.7311200375,36.0,69.0
276,84.0475991375,85.07522131249999,55.0,86.0
277,84.32849813749999,85.0962887375,60.0,96.0
278,84.32849813749999,85.13374193749999,63.0,117.0
279,84.8902961375,85.701392,36.0,88.0
280,85.17119513749999,86.096991425,55.0,50.0
281,85.4520941375,86.096991425,60.0,93.0
282,85.4520941375,86.1321038,63.0,107.0
283,86.0138921375,86.672834375,36.0,92.0
284,86.8565891375,86.981823275,36.0,76.0
285,86.2947911375,87.26038145,55.0,66.0
286,86.5756901375,87.3130500125,60.0,92.0
287,86.5756901375,87.33762867499999,63.0,107.0
288,87.1374881375,87.74142098749999,36.0,78.0
289,87.41838713749999,87.7765333625,55.0,58.0
290,87.6992861375,88.1229754625,63.0,85.0
291,87.6992861375,88.34067218749999,60.0,73.0
292,88.26108413749999,88.94577545,46.0,102.0
293,89.1037811375,89.2219928,46.0,93.0
294,88.5419831375,89.5391745875,53.0,70.0
295,88.8228821375,89.62227387499999,62.0,93.0
296,89.9464781375,90.5012536625,62.0,97.0
297,89.3846801375,90.50827613749999,46.0,96.0
298,89.6655791375,90.50827613749999,53.0,52.0
299,90.7891751375,91.0841190875,60.0,92.0
300,91.0700741375,91.4048121125,63.0,127.0
301,90.50827613749999,91.5288758375,44.0,100.0
302,91.3509731375,91.5358983125,60.0,49.0
303,91.6318721375,92.1913293125,46.0,102.0
304,91.9127711375,92.49212532499999,53.0,72.0
305,92.19367013749999,92.5927808,62.0,107.0
306,92.4745691375,92.89708805,58.0,90.0
307,92.7554681375,93.36323281666667,39.0,97.0
308,93.0363671375,93.39489324166667,51.0,85.0
309,93.31750109166667,93.81234180833333,63.0,127.0
310,93.59892709166667,93.84634745,58.0,99.0
311,94.16177909166666,94.45610378333333,55.0,88.0
312,93.88035309166666,94.70586935833333,43.0,81.0
313,94.44320509166667,94.95915275833333,62.0,99.0
314,94.44320509166667,95.13738922499999,59.0,89.0
315,95.28748309166666,95.932417675,55.0,76.0
316,95.00605709166666,96.02153590833333,48.0,96.0
317,95.56890909166667,96.340485375,63.0,122.0
318,95.85033509166666,96.375663625,60.0,97.0
319,96.13176109166666,96.82360000833333,48.0,93.0
320,96.69461309166667,97.09095470833333,63.0,127.0
321,96.97603909166666,97.22228684166666,48.0,107.0
322,96.41318709166666,97.28208986666667,55.0,67.0
323,97.25746509166666,97.90826271666667,41.0,71.0
324,97.53889109166667,98.16858176666666,53.0,63.0
325,98.10174309166666,98.226039575,41.0,88.0
326,97.82031709166667,98.521536875,60.0,100.0
327,98.66459509166667,99.38105878333333,53.0,76.0
328,98.38316909166666,99.47252223333334,41.0,90.0
329,99.22744709166666,99.54170612499999,56.0,93.0
330,98.94602109166667,99.56164046666666,60.0,112.0
331,99.50887309166666,100.19367635833333,43.0,107.0
332,100.35315109166666,100.48565583333333,43.0,89.0
333,100.07172509166666,100.913657875,62.0,100.0
334,99.79029909166667,101.28068428333333,55.0,70.0
335,100.91600309166667,101.30999949166666,58.0,100.0
336,100.63457709166667,101.546866375,43.0,89.0
337,101.19742909166666,101.64771069166666,62.0,97.0
338,101.47885509166666,101.88223235833333,55.0,76.0
339,101.76028109166667,102.45563783333333,48.0,92.0
340,102.60455909166666,102.71126645,48.0,86.0
341,102.04170709166667,103.038424175,55.0,82.0
342,102.32313309166666,103.08650111666667,63.0,107.0
343,102.88598509166667,103.92726129166667,48.0,90.0
344,103.44883709166666,103.96830258333333,63.0,122.0
345,103.16741109166666,103.995272575,55.0,78.0
346,103.73026309166667,104.01168909166667,60.0,96.0
347,104.01168909166667,104.71247733333334,44.0,102.0
348,104.85711508333334,104.9782345,44.0,102.0
349,104.29311509166666,105.20165866666667,56.0,90.0
350,104.57489508333333,105.30043566666667,63.0,117.0
351,105.42155508333333,105.8672275,56.0,63.0
352,105.70377508333334,106.14356791666667,63.0,122.0
353,105.13933508333334,106.17178991666667,44.0,117.0
354,105.98599508333334,106.54337958333333,60.0,42.0
355,106.26821508333333,106.92320066666667,45.0,93.0
356,107.11487508333333,107.23952225000001,45.0,90.0
357,106.55043508333334,107.45706683333333,57.0,67.0
358,106.83265508333334,107.60523233333333,63.0,127.0
359,107.67931508333334,108.01680316666666,57.0,70.0
360,107.96153508333333,108.38368916666667,60.0,107.0
361,107.39709508333334,108.45894783333334,45.0,100.0
362,108.24375508333334,108.48952166666666,57.0,86.0
363,108.52597508333334,109.26209891666667,38.0,86.0
364,109.37263508333334,109.49610633333333,38.0,83.0
365,108.80819508333333,109.76303941666667,50.0,86.0
366,109.93707508333334,110.32159983333334,50.0,77.0
367,109.09041508333334,110.38039566666667,57.0,102.0
368,109.65485508333333,110.53561666666667,38.0,90.0
369,110.21929508333334,110.75198533333334,54.0,122.0
370,110.50151508333333,110.75551308333334,50.0,85.0
371,111.06595508333334,111.42460966666667,55.0,86.0
372,110.78373508333334,111.51280341666667,43.0,102.0
373,111.63039508333334,111.74798675,43.0,92.0
374,111.34817508333333,112.17837225,62.0,112.0
375,111.34817508333333,112.18072408333333,58.0,78.0
376,112.19483508333333,112.59464675,55.0,75.0
377,111.91261508333334,112.90508875,43.0,90.0
378,112.47705508333334,113.1626145,58.0,102.0
379,112.47705508333334,113.18848466666667,62.0,97.0
380,113.32371508333334,113.59535183333334,55.0,88.0
381,113.04149508333333,113.75410058333334,43.0,97.0
382,113.88815508333333,114.02103366666667,43.0,100.0
383,113.60593508333334,114.44318775,62.0,107.0
384,113.60593508333334,114.45494691666667,59.0,99.0
385,114.45259508333334,114.77949991666667,55.0,71.0
386,114.17037508333334,114.88886016666666,43.0,100.0
387,114.73481508333333,115.088766,59.0,102.0
388,114.73481508333333,115.10522883333334,62.0,112.0
389,115.01703508333334,115.26926538125001,55.0,95.0
390,115.65537668541667,116.08659447500001,56.0,73.0
391,116.245473075,116.48846387500001,56.0,77.0
392,115.32204318541667,116.51299660000001,44.0,107.0
393,115.96509907500001,116.60411815,63.0,117.0
394,115.96509907500001,116.64266957500001,60.0,79.0
395,116.80622107500001,117.11392070833334,57.0,73.0
396,116.52584707500002,117.48252566666667,45.0,88.0
397,117.08601370833334,117.52089779166667,63.0,122.0
398,117.08601370833334,117.537176875,60.0,89.0
399,117.36508370833333,117.59182808333334,57.0,86.0
400,117.92322370833334,118.56159633333334,53.0,92.0
401,117.64415370833333,118.59996845833334,46.0,99.0
402,118.20229370833334,118.859271,62.0,112.0
403,118.48136370833333,118.87438729166666,58.0,96.0
404,119.03950370833334,119.361597,55.0,74.0
405,119.59764370833334,119.752295,55.0,39.0
406,119.31857370833333,119.8220625,62.0,102.0
407,118.76043370833334,119.825550875,43.0,76.0
408,119.31857370833333,119.92671375,58.0,112.0
409,120.15578370833333,120.533691,55.0,75.0
410,120.43485370833334,120.82671450000001,63.0,122.0
411,119.87671370833334,120.83834241666666,48.0,102.0
412,120.71392370833334,121.09648216666668,55.0,96.0
413,120.99299370833333,121.32322654166667,62.0,99.0
414,121.27206370833333,121.806947875,55.0,72.0
415,121.55113370833334,121.86508745833333,63.0,117.0
416,120.99299370833333,122.190669125,48.0,93.0
417,121.83020370833334,122.32555295833333,62.0,79.0
418,122.10927370833333,122.82904175,36.0,78.0
419,122.94648370833333,123.09299545833333,36.0,70.0
420,122.66741370833334,123.41508875000001,55.0,92.0
421,123.22555370833334,123.8685775,36.0,56.0
422,123.50462370833334,124.31043833333334,48.0,72.0
423,124.06276370833334,124.33485695833333,51.0,62.0
424,123.78369370833333,124.35927558333334,55.0,89.0
425,124.34183370833334,125.06392733333334,34.0,82.0
426,124.62090370833334,125.127880875,46.0,61.0
427,125.17904370833334,125.32555545833334,34.0,82.0
428,124.89997370833333,125.82439308333333,58.0,100.0
429,125.45811370833334,126.25927716666666,34.0,83.0
430,125.73718370833333,126.41509125,50.0,66.0
431,126.29532370833334,126.55695183333333,53.0,64.0
432,126.01625370833334,126.55927741666667,58.0,102.0
433,126.85346370833334,127.18834770833334,44.0,90.0
434,127.13253370833334,127.52904566666668,51.0,79.0
435,126.57439370833333,127.57323175,32.0,72.0
436,127.41160370833333,127.67323183333333,48.0,43.0
437,127.69067370833334,128.504627875,34.0,86.0
438,127.96974370833334,128.71858154166668,46.0,70.0
439,128.52788370833335,128.72206991666667,50.0,76.0
440,128.24881370833333,128.755790875,53.0,88.0
441,129.08602370833333,129.43834958333335,51.0,70.0
442,129.36509370833335,129.83253595833332,58.0,107.0
443,129.64416370833334,129.844163875,51.0,95.0
444,128.80695370833334,129.86741970833333,39.0,93.0
445,129.92323370833333,130.68951341666667,43.0,58.0
446,130.20230370833335,130.723234375,50.0,73.0
447,130.76044370833333,131.00462995833334,55.0,74.0
448,130.48137370833334,131.016257875,59.0,95.0
449,131.03951370833335,131.74309497500002,36.0,71.0
450,131.31858370833334,131.780478175,43.0,55.0
451,131.878609075,131.98959045,36.0,63.0
452,131.59823507500002,132.37393647500002,55.0,99.0
453,132.158983075,132.885619025,36.0,82.0
454,132.439357075,133.23375007500002,48.0,71.0
455,132.71973107500003,133.28398375,55.0,95.0
456,133.00010507500002,133.2909931,51.0,83.0
457,133.28047907500002,134.01178792500002,41.0,74.0
458,134.12160107500003,134.275806775,41.0,77.0
459,133.560853075,134.45104052500002,53.0,77.0
460,133.841227075,134.54216207500002,60.0,88.0
461,134.68234907500002,135.44286355000003,53.0,77.0
462,134.40197507500002,135.47791030000002,41.0,60.0
463,135.243097075,135.48959255000003,56.0,83.0
464,134.962723075,135.49893835,60.0,92.0
465,135.523471075,136.28749022500003,43.0,70.0
466,136.36459307500002,136.49426605000002,43.0,78.0
467,135.80384507500003,136.69286430000002,55.0,76.0
468,136.08421907500002,136.74777087500001,62.0,93.0
469,136.644967075,137.170668325,43.0,83.0
470,136.925341075,137.76062195000003,55.0,77.0
471,137.20571507500003,137.77464065,62.0,95.0
472,137.48608907500002,137.78749112500003,58.0,85.0
473,137.76646307500002,138.46622985000002,36.0,77.0
474,138.046837075,138.53165045000003,43.0,66.0
475,138.607585075,138.72791225,36.0,78.0
476,138.327211075,139.24193125000002,55.0,72.0
477,139.16833307500002,139.68585675000003,51.0,55.0
478,138.88795907500003,139.913660625,36.0,71.0
479,139.44870707500002,140.09239905,58.0,76.0
480,140.009455075,140.694034925,36.0,81.0
481,140.28982907500003,140.79683872500001,43.0,71.0
482,141.411325075,141.80501690000003,51.0,69.0
483,140.85057707500002,141.93001697500003,36.0,82.0
484,141.130951075,141.934689875,43.0,77.0
485,141.69169907500003,142.17884890000002,60.0,69.0
486,141.97207307500003,142.21389565,51.0,66.0
487,140.57020307500002,142.21856855000001,55.0,81.0
488,142.25244707500002,142.98842882500003,34.0,89.0
489,142.53282107500002,143.000111075,46.0,65.0
490,143.093569075,143.21856915,34.0,85.0
491,142.813195075,143.722074125,58.0,99.0
492,143.65431707500002,144.299177275,50.0,69.0
493,143.37394307500003,144.38796237500003,34.0,58.0
494,143.93469107500002,144.41249510000003,58.0,122.0
495,144.215065075,144.42417735,53.0,76.0
496,144.495439075,145.33920605833336,32.0,81.0
497,144.77581307500003,145.54321558750001,44.0,63.0
498,145.0573663041667,145.59038542083334,56.0,112.0
499,145.3403853041667,145.6198665666667,48.0,82.0
500,145.62340430416668,146.28378197083336,34.0,83.0
501,145.90642330416668,146.4689235666667,46.0,65.0
502,146.18944230416668,146.68590480000003,53.0,100.0
503,146.4724613041667,146.8014708916667,50.0,74.0
504,147.0384993041667,147.40170702083336,51.0,81.0
505,146.7554803041667,147.45477308333335,39.0,83.0
506,147.3215183041667,147.85925440416668,58.0,92.0
507,147.60453730416668,147.8627921416667,39.0,89.0
508,148.1705753041667,148.79085861250002,50.0,78.0
509,147.88755630416668,148.91585867083336,43.0,64.0
510,148.7366133041667,148.97600020833335,55.0,90.0
511,148.4535943041667,148.99722663333336,59.0,97.0
512,149.0196323041667,149.73543452500002,36.0,74.0
513,149.3026513041667,149.8191609791667,43.0,48.0
514,149.86868930416668,149.98661388750003,36.0,76.0
515,150.1517083041667,150.73071800833335,36.0,68.0
516,150.4347273041667,150.81090672500002,55.0,78.0
517,150.7177463041667,151.2201050291667,60.0,99.0
518,149.58567030416668,151.25784089583337,63.0,112.0
519,151.0007653041667,151.33685036666668,55.0,74.0
520,151.2837843041667,152.0019450166667,41.0,66.0
521,151.56680330416668,152.07387901250002,48.0,62.0
522,152.1328413041667,152.26845457500002,41.0,69.0
523,151.84982230416668,152.66586042083335,60.0,99.0
524,152.6988793041667,153.32387959583335,53.0,85.0
525,152.4158603041667,153.40524755833337,41.0,64.0
526,153.2649173041667,153.56562499166668,56.0,86.0
527,152.9818983041667,153.59864387500002,60.0,100.0
528,153.54793630416668,154.27906872083335,43.0,76.0
529,154.3969933041667,154.52906883750003,43.0,69.0
530,153.83095530416668,154.78378593750003,55.0,70.0
531,154.1139743041667,154.85925767083336,62.0,99.0
532,154.6800123041667,155.2920408916667,43.0,78.0
533,155.52906930416668,155.79557886250004,58.0,79.0
534,154.9630313041667,155.81208830416668,55.0,72.0
535,155.2460503041667,155.81208830416668,62.0,100.0
536,156.32977722500002,156.92175863333335,51.0,95.0
537,156.58567357083336,157.03732472500002,48.0,67.0
538,157.20713612500003,157.50194758333336,48.0,61.0
539,155.72482411250002,157.96539119583335,36.0,82.0
540,156.03260727500003,157.9665704416667,43.0,82.0
541,156.90996617500002,158.12105164583335,55.0,56.0
542,157.7613816666667,158.12341013750003,51.0,86.0
543,157.47364568333336,158.14227807083336,60.0,75.0
544,158.0762403041667,158.73792987500002,39.0,92.0
545,158.9233757916667,159.0501362916667,39.0,81.0
546,158.3592593041667,159.3177417916667,55.0,88.0
547,158.6416857916667,159.37642720833335,63.0,117.0
548,158.6416857916667,159.37877462500003,58.0,107.0
549,159.2050657916667,160.24262395833335,39.0,93.0
550,159.4867557916667,160.41868020833337,55.0,78.0
551,160.0501357916667,160.4832341666667,58.0,112.0
552,159.7684457916667,160.50670833333336,63.0,127.0
553,160.3318257916667,161.05835125000002,39.0,97.0
554,161.17689579166668,161.27313987500003,39.0,63.0
555,160.61351579166669,161.51609750000003,55.0,90.0
556,160.89520579166668,161.5642195416667,58.0,97.0
557,160.89520579166668,161.72736500000002,63.0,122.0
558,162.0219657916667,162.51022845833336,63.0,127.0
559,161.45858579166668,162.53487633333336,39.0,96.0
560,161.7402757916667,162.55952420833336,58.0,102.0
561,162.3036557916667,162.59825658333335,55.0,90.0
562,162.5853457916667,163.25670695833335,46.0,99.0
563,162.8670357916667,163.27548629166668,53.0,85.0
564,163.4304157916667,163.54778662500001,46.0,107.0
565,163.1487257916667,163.8705564166667,62.0,102.0
566,163.1487257916667,164.06891312500002,58.0,107.0
567,163.99379579166668,164.33065008333335,53.0,89.0
568,163.7121057916667,164.3775984166667,46.0,112.0
569,164.27548579166668,164.67806775000003,62.0,102.0
570,164.55717579166668,164.7684432916667,53.0,85.0
571,164.27548579166668,165.04191733333337,58.0,93.0
572,165.1205557916667,165.4409781666667,51.0,89.0
573,164.8388657916667,165.5853442916667,39.0,99.0
574,165.4022457916667,165.84708125000003,63.0,122.0
575,165.6839357916667,165.90341925,58.0,99.0
576,166.2473157916667,166.56656445833335,55.0,79.0
577,165.9656257916667,166.60529683333337,36.0,93.0
578,166.5290057916667,167.0466111666667,64.0,99.0
579,166.5290057916667,167.06891162500003,60.0,102.0
580,166.8106957916667,167.12172850000002,55.0,86.0
581,167.37407579166668,167.70307630000002,53.0,77.0
582,167.0923857916667,167.79536607500003,41.0,95.0
583,167.93555307500003,168.06172137500002,41.0,74.0
584,167.65517907500004,168.44256272500004,56.0,93.0
585,167.65517907500004,168.48111415000002,60.0,95.0
586,168.49630107500002,168.84560035000004,53.0,85.0
587,168.21592707500002,169.20775010000003,41.0,69.0
588,168.77667507500004,169.45775025000003,56.0,97.0
589,168.77667507500004,169.49279700000002,60.0,95.0
590,169.33742307500003,170.02083470000002,41.0,90.0
591,169.61779707500003,170.24747035000004,53.0,90.0
592,170.17854507500005,170.28952645000004,41.0,74.0
593,169.89817107500002,170.53602192500003,56.0,95.0
594,169.89817107500002,170.54303127500003,60.0,92.0
595,170.73929307500003,171.13532135000003,53.0,85.0
596,170.45891907500004,171.24279805000003,41.0,81.0
597,171.01966707500003,171.53719075000004,56.0,99.0
598,171.01966707500003,171.56756460000003,60.0,93.0
599,171.86078907500004,172.22994817500003,53.0,85.0
600,171.58041507500002,172.27083605000004,46.0,97.0
601,172.42153707500003,172.54653715000003,46.0,88.0
602,172.14116307500004,172.81873357500004,62.0,93.0
603,172.14116307500004,172.89233175000004,58.0,95.0
604,172.70191107500003,173.67971540000002,46.0,102.0
605,173.26265907500004,173.71593037500003,62.0,90.0
606,172.98228507500002,173.80004257500002,53.0,73.0
607,173.26265907500004,173.98812680000003,58.0,96.0
608,173.82340707500003,174.55705237500004,48.0,92.0
609,174.66452907500002,174.78602447500003,36.0,69.0
610,174.10378107500003,175.12948262500004,55.0,86.0
611,174.38415507500002,175.15051067500002,60.0,96.0
612,174.38415507500002,175.18789387500004,63.0,117.0
613,174.94490307500004,175.75448300000002,36.0,88.0
614,175.22527707500004,176.14934305000003,55.0,50.0
615,175.50565107500003,176.14934305000003,60.0,93.0
616,175.50565107500003,176.18438980000002,63.0,107.0
617,176.06639907500002,176.72410975000003,36.0,92.0
618,176.90752107500003,177.03252115000004,36.0,76.0
619,176.34677307500004,177.31055870000003,55.0,66.0
620,176.62714707500004,177.36312882500005,60.0,92.0
621,176.62714707500004,177.38766155000002,63.0,107.0
622,177.18789507500003,177.79069917500004,36.0,78.0
623,177.46826907500002,177.82574592500004,55.0,58.0
624,177.74864307500002,178.17154052500004,63.0,85.0
625,177.74864307500002,178.38883037500003,60.0,73.0
626,178.30939107500004,178.99280270000003,46.0,102.0
627,179.15051307500002,179.26850380000002,46.0,93.0
628,178.58976507500003,179.58509277500002,53.0,70.0
629,178.87013907500003,179.66803675000003,62.0,93.0
630,179.99163507500003,180.54537372500002,62.0,97.0
631,179.43088707500004,180.55238307500002,46.0,96.0
632,179.71126107500004,180.55238307500002,53.0,52.0
633,180.83275707500002,181.12714977500002,60.0,92.0
634,181.11313107500004,181.44724342500004,63.0,127.0
635,180.55238307500002,181.57107527500003,44.0,100.0
636,181.39350507500004,181.57808462500003,60.0,49.0
637,181.67387907500003,182.23229062500002,46.0,102.0
638,181.95425307500003,182.53252445000004,53.0,72.0
639,182.23462707500002,182.63299180000004,62.0,107.0
640,182.51500107500004,182.93673030000002,58.0,90.0
641,182.79537507500004,183.40168385000004,39.0,97.0
642,183.07574907500003,183.43322592500004,51.0,85.0
643,183.35612307500003,183.84911402500003,63.0,127.0
644,183.63649707500002,183.88299255000004,58.0,99.0
645,184.19724507500004,184.49046955000003,55.0,88.0
646,183.91687107500002,184.73930147500005,43.0,81.0
647,184.47761907500004,184.99163807500003,62.0,99.0
648,184.47761907500004,185.16920827500002,59.0,89.0
649,185.31874107500002,185.96126482500003,55.0,76.0
650,185.03836707500002,186.05004992500002,48.0,96.0
651,185.59911507500004,186.36780712500004,63.0,122.0
652,185.87948907500004,186.40285387500003,60.0,97.0
653,186.15986307500003,186.84911582500004,48.0,93.0
654,186.72061107500002,187.11547112500003,63.0,127.0
655,187.00098507500002,187.24631232500002,48.0,107.0
656,186.44023707500003,187.30589180000004,55.0,67.0
657,187.28135907500004,187.92972395000004,41.0,71.0
658,187.56173307500003,188.18906990000002,53.0,63.0
659,188.12248107500002,188.24631292500004,41.0,88.0
660,187.84210707500003,188.54070562500004,60.0,100.0
661,188.68322907500004,189.39701455000002,53.0,76.0
662,188.40285507500002,189.48813610000002,41.0,90.0
663,189.24397707500003,189.55706137500005,56.0,93.0
664,188.96360307500004,189.57692120000004,60.0,112.0
665,189.52435107500003,190.20659447500003,43.0,107.0
666,190.36547307500004,190.49748250000005,43.0,89.0
667,190.08509907500002,190.92388462500003,62.0,100.0
668,189.80472507500002,191.28953905000003,55.0,70.0
669,190.92622107500003,191.31874467500003,58.0,100.0
670,190.64584707500003,191.55472612500003,43.0,89.0
671,191.20659507500002,191.65519347500003,62.0,97.0
672,191.48696907500005,191.88883847500003,55.0,76.0
673,191.76734307500004,192.46010050000004,48.0,92.0
674,192.60846507500003,192.71477355000002,48.0,86.0
675,192.04771707500004,193.04070832500003,55.0,82.0
676,192.32809107500003,193.08860555000004,63.0,107.0
677,192.88883907500002,193.92622287500004,48.0,90.0
678,193.44958707500004,193.96711075000002,63.0,122.0
679,193.16921307500002,193.99397992500002,55.0,78.0
680,193.72996107500003,194.01033507500003,60.0,96.0
681,194.29070907500002,194.93323282500003,55.0,76.0
682,194.01033507500003,195.02201792500003,48.0,96.0
683,194.57108307500005,195.33977512500002,63.0,122.0
684,194.85145707500004,195.37482187500004,60.0,97.0
685,195.13183107500004,195.82108382500002,48.0,93.0
686,195.69257907500003,196.08743912500003,63.0,127.0
687,195.97295307500002,196.21828032500002,48.0,107.0
688,195.41220507500003,196.27785980000004,55.0,67.0
689,196.25332707500002,196.90169195000004,41.0,71.0
690,196.53370107500004,197.16103790000003,53.0,63.0
691,197.09444907500003,197.21828092500004,41.0,88.0
692,196.81407507500003,197.51267362500002,60.0,100.0
693,197.65519707500005,198.36898255000003,53.0,76.0
694,197.37482307500002,198.46010410000002,41.0,90.0
695,198.21594507500004,198.52902937500002,56.0,93.0
696,197.93557107500004,198.54888920000002,60.0,112.0
697,198.49631907500003,199.17856247500004,43.0,107.0
698,199.33744107500002,199.46945050000002,43.0,89.0
699,199.05706707500002,199.89585262500003,62.0,100.0
700,198.77669307500003,200.26150705000003,55.0,70.0
701,199.89818907500003,200.29071267500004,58.0,100.0
702,199.61781507500004,200.52669412500003,43.0,89.0
703,200.17856307500003,200.62716147500004,62.0,97.0
704,200.45893707500002,200.86080647500003,55.0,76.0
705,200.73931107500005,201.4320685,48.0,92.0
706,201.58043307500003,201.68674155000002,48.0,86.0
707,201.01968507500004,202.01267632500003,55.0,82.0
708,201.30005907500004,202.06057355000002,63.0,107.0
709,201.86080707500003,202.89819087500004,48.0,90.0
710,202.42155507500001,202.93907875000002,63.0,122.0
711,202.14118107500002,202.96594792500002,55.0,78.0
712,202.70192907500004,202.98230307500003,60.0,96.0
713,203.26267707500003,203.90520082500004,55.0,76.0
714,202.98230307500003,203.99398592500003,48.0,96.0
715,203.54305107500002,204.31174312500002,63.0,122.0
716,203.82342507500005,204.346789875,60.0,97.0
717,204.10379907500004,204.79305182500002,48.0,93.0
718,204.66454707500003,205.05940712500004,63.0,127.0
719,204.94492107500002,205.19024832500003,48.0,107.0
720,204.38417307500004,205.24982780000005,55.0,67.0
721,205.22529507500002,205.87365995000005,41.0,71.0
722,205.50566907500001,206.13300590000003,53.0,63.0
723,206.06641707500003,206.19024892500002,41.0,88.0
724,205.78604307500004,206.48464162500002,60.0,100.0
725,206.62716507500002,207.34095055000003,53.0,76.0
726,206.34679107500003,207.43207210000003,41.0,90.0
727,207.18791307500004,207.50099737500003,56.0,93.0
728,206.90753907500005,207.52085720000002,60.0,112.0
729,207.46828707500003,208.15053047500004,43.0,107.0
730,208.30940907500002,208.44141850000003,43.0,89.0
731,208.02903507500002,208.86782062500004,62.0,100.0
732,207.74866107500003,209.23347505000004,55.0,70.0
733,208.87015707500004,209.262680675,58.0,100.0
734,208.589783075,209.49866212500004,43.0,89.0
735,209.15053107500003,209.59912947500004,62.0,97.0
736,209.43090507500003,209.83277447500004,55.0,76.0
737,209.71127907500002,210.40403650000002,48.0,92.0
738,210.55240107500003,210.65870955000003,48.0,86.0
739,209.99165307500004,210.98464432500003,55.0,82.0
740,210.27202707500004,211.03254155000002,63.0,107.0
741,210.83277507500003,211.87015887500002,48.0,90.0
742,211.39352307500002,211.91104675000003,63.0,122.0
743,211.11314907500002,211.93791592500003,55.0,78.0
744,211.673897075,211.95427107500004,60.0,96.0
745,212.23464507500003,212.87716882500004,55.0,76.0
746,211.95427107500004,212.96595392500004,48.0,96.0
747,212.51501907500003,213.28371112500002,63.0,122.0
748,212.79539307500002,213.31875787500002,60.0,97.0
749,213.07576707500004,213.76501982500002,48.0,93.0
750,213.63651507500003,214.03137512500004,63.0,127.0
751,213.91688907500003,214.16221632500003,48.0,107.0
752,213.35614107500004,214.22179580000002,55.0,67.0
753,214.19726307500002,214.84562795000002,41.0,71.0
754,214.47763707500002,215.10497390000003,53.0,63.0
755,215.03838507500004,215.16221692500002,41.0,88.0
756,214.758011075,215.45660962500003,60.0,100.0
757,215.59913307500003,216.31291855000003,53.0,76.0
758,215.31875907500003,216.40404010000003,41.0,90.0
759,216.15988107500004,216.47296537500003,56.0,93.0
760,215.87950707500002,216.49282520000003,60.0,112.0
761,216.44025507500004,217.12249847500004,43.0,107.0
762,217.28137707500002,217.41338650000003,43.0,89.0
763,217.00100307500003,217.83978862500004,62.0,100.0
764,216.72062907500003,218.20544305000004,55.0,70.0
765,217.842125075,218.23464867500002,58.0,100.0
766,217.56175107500002,218.470630125,43.0,89.0
767,218.12249907500004,218.57109747500004,62.0,97.0
768,218.40287307500003,218.80474247500004,55.0,76.0
769,218.68324707500003,219.37600450000002,48.0,92.0
770,219.52436907500004,219.63067755000003,48.0,86.0
771,218.96362107500002,219.95661232500004,55.0,82.0
772,219.24399507500004,220.00450955000002,63.0,107.0
773,219.80474307500003,220.84212687500002,48.0,90.0
774,220.36549107500002,220.88301475000003,63.0,122.0
775,220.08511707500003,220.90988392500003,55.0,78.0
776,220.64586507500002,220.92623907500004,60.0,96.0
777,221.20661307500004,221.84913682500002,55.0,76.0
778,220.92623907500004,221.93792192500004,48.0,96.0
779,221.48698707500003,222.25567912500003,63.0,122.0
780,221.76736107500003,222.29072587500002,60.0,97.0
781,222.04773507500002,222.73698782500003,48.0,93.0
782,222.60848307500004,223.00334312500001,63.0,127.0
783,222.88885707500003,223.13418432500004,48.0,107.0
784,222.32810907500004,223.19376380000003,55.0,67.0
785,223.16923107500003,223.81759595000003,41.0,71.0
786,223.44960507500002,224.07694190000004,53.0,63.0
787,224.01035307500004,224.13418492500003,41.0,88.0
788,223.72997907500002,224.42857762500003,60.0,100.0
789,224.57110107500003,225.28488655000004,53.0,76.0
790,224.29072707500004,225.37600810000004,41.0,90.0
791,225.13184907500002,225.44493337500003,56.0,93.0
792,224.85147507500002,225.46479320000003,60.0,112.0
793,225.41222307500004,226.09446647500005,43.0,107.0
794,226.25334507500003,226.38535450000003,43.0,89.0
795,225.97297107500003,226.81175662500004,62.0,100.0
796,225.69259707500004,227.17741105000005,55.0,70.0
797,226.81409307500002,227.20661667500002,58.0,100.0
798,226.53371907500002,227.44259812500002,43.0,89.0
799,227.09446707500004,227.54306547500002,62.0,97.0
800,227.37484107500003,227.77671047500002,55.0,76.0
801,227.65521507500003,228.34797250000003,48.0,92.0
802,228.49633707500004,228.60264555000003,48.0,86.0
803,227.93558907500002,228.92858032500004,55.0,82.0
804,228.21596307500005,228.97647755000003,63.0,107.0
805,228.77671107500004,229.81409487500002,48.0,90.0
806,229.33745907500003,229.85498275000003,63.0,122.0
807,229.05708507500003,229.88185192500003,55.0,78.0
