,start,end,pitch,velocity
0,3.106815075,3.3090876000000002,68.0,97.0
1,3.3795420750000003,3.7090872000000004,80.0,99.0
2,3.6522690750000004,3.924996075,78.0,99.0
3,3.924996075,4.077268650000001,76.0,72.0
4,4.197723075000001,4.489768237500001,75.0,107.0
5,4.4704500750000005,5.0056768125,76.0,100.0
6,5.015904075000001,5.09544945,76.0,127.0
7,5.2886310750000005,5.371585537500001,76.0,96.0
8,5.561358075,5.634085275,76.0,112.0
9,5.834085075000001,6.0590848500000005,80.0,122.0
10,6.106812075000001,6.2988573375,83.0,107.0
11,6.379539075,6.7374932625,85.0,122.0
12,7.470447075000001,7.739764987500001,68.0,88.0
13,7.743174075000001,8.043173775000001,78.0,100.0
14,8.015901075,8.324991675000001,76.0,93.0
15,8.288628075,8.5465823625,75.0,107.0
16,8.561355075,8.854536600000001,73.0,97.0
17,8.834082075000001,9.2329453125,75.0,107.0
18,9.379536075,9.470445075,71.0,96.0
19,9.652263075,9.7352175375,71.0,90.0
20,9.924990075,10.111353525,71.0,97.0
21,10.197717075000002,10.2852169875,76.0,99.0
22,10.470444075000001,10.6261257375,80.0,122.0
23,10.743171075000001,11.247716025,83.0,112.0
24,12.106806075000001,12.335214937500002,76.0,102.0
25,12.379533075000001,12.637487362500002,75.0,88.0
26,12.652260075000001,12.927259800000002,73.0,96.0
27,12.924987075,13.220441325000001,71.0,74.0
28,13.197714075,13.8352134375,73.0,99.0
29,14.015895075000001,14.062485937500002,73.0,112.0
30,14.152258575000001,14.236349400000002,73.0,92.0
31,14.288622075000001,14.665894425000001,80.0,127.0
32,14.834076075,15.23180295,81.0,117.0
33,15.379530075000002,15.651120712500001,81.0,117.0
34,15.652257075000001,16.134074775000002,80.0,100.0
35,16.197711075,16.697710575000002,78.0,107.0
36,17.288619075,17.890891200000002,80.0,112.0
37,18.379527075000002,19.0352082375,75.0,122.0
38,19.470435075,20.78634285,73.0,102.0
39,38.834052075,39.0545064,73.0,107.0
40,39.106779075000006,39.261324375,75.0,102.0
41,39.379506075,39.71359665000001,76.0,112.0
42,39.924960075,40.109050800000006,75.0,127.0
43,40.197687075000005,40.4397322875,76.0,102.0
44,41.015868075,41.2579132875,68.0,107.0
45,41.288595075,41.695412850000004,69.0,99.0
46,41.834049075,42.5420029125,76.0,117.0
47,42.924957075,43.061320575,71.0,112.0
48,43.197684075000005,43.352229375,71.0,89.0
49,43.470411075,43.61586547500001,73.0,107.0
50,43.743138075000005,43.980637837500005,75.0,127.0
51,44.288592075000004,44.524955475000006,73.0,122.0
52,44.561319075,44.747682525,75.0,127.0
53,45.379500075,45.6624543375,66.0,107.0
54,45.652227075000006,46.06472666250001,68.0,117.0
55,46.197681075000006,46.547680725000006,75.0,127.0
56,47.561316075,47.764724962500004,69.0,100.0
57,47.834043075000004,47.9624520375,68.0,112.0
58,48.10677007500001,48.38290616250001,69.0,127.0
59,48.65222407500001,48.8124511875,68.0,122.0
60,48.924951075,49.273814362500005,69.0,127.0
61,49.470405075,49.755632062500005,80.0,127.0
62,50.015859075,50.297676975,80.0,127.0
63,50.561313075,50.789721937500005,81.0,117.0
64,50.834040075000004,51.028358062500004,80.0,117.0
65,51.106767075,51.524948475,78.0,127.0
66,51.65222107500001,51.791993662500005,76.0,102.0
67,51.924948075,52.07153883750001,78.0,127.0
68,52.19767507500001,52.702220025,80.0,127.0
69,53.015856075,53.1715377375,78.0,127.0
70,53.288583075000005,53.653355437500004,80.0,127.0
71,54.106764075,54.22608213750001,78.0,127.0
72,54.379491075000004,56.35562546250001,80.0,127.0
73,57.65221507500001,57.854487600000006,68.0,97.0
74,57.924942075000004,58.25448720000001,80.0,99.0
75,58.19766907500001,58.470396075000004,78.0,99.0
76,58.470396075000004,58.62266865,76.0,72.0
77,58.74312307500001,59.0351682375,75.0,107.0
78,59.015850075,59.55107681250001,76.0,100.0
79,59.561304075,59.640849450000005,76.0,127.0
80,59.834031075000006,59.916985537500004,76.0,96.0
81,60.106758075,60.179485275000005,76.0,112.0
82,60.379485075000005,60.604484850000006,80.0,122.0
83,60.652212075,60.844257337500004,83.0,107.0
84,60.924939075000005,61.282893262500004,85.0,122.0
85,62.015847075,62.2851649875,68.0,88.0
86,62.28857407500001,62.58857377500001,78.0,100.0
87,62.561301075,62.87039167500001,76.0,93.0
88,62.834028075000006,63.091982362500005,75.0,107.0
89,63.106755075,63.399936600000004,73.0,97.0
90,63.379482075000006,63.77834531250001,75.0,107.0
91,63.924936075000005,64.015845075,71.0,96.0
92,64.19766307500001,64.2806175375,71.0,90.0
93,64.47039007500001,64.656753525,71.0,97.0
94,64.743117075,64.83061698750001,76.0,99.0
95,65.015844075,65.1715257375,80.0,122.0
96,65.28857107500001,65.793116025,83.0,112.0
97,66.65220607500001,66.8806149375,76.0,102.0
98,66.924933075,67.18288736250001,75.0,88.0
99,67.197660075,67.4726598,73.0,96.0
100,67.470387075,67.76584132500001,71.0,74.0
101,67.74311407500001,68.3806134375,73.0,99.0
102,68.561295075,68.6078859375,73.0,112.0
103,68.697658575,68.78174940000001,73.0,92.0
104,68.83402207500001,69.211294425,80.0,127.0
105,69.379476075,69.77720295,81.0,117.0
106,69.924930075,70.1965207125,81.0,117.0
107,70.19765707500001,70.679474775,80.0,100.0
108,70.743111075,71.243110575,78.0,107.0
109,71.834019075,72.4362912,80.0,112.0
110,73.470381075,73.55447190000001,68.0,117.0
111,73.74310807500001,74.0056078125,81.0,102.0
112,74.01583507500001,74.83401607500001,80.0,112.0
113,75.10674307500001,75.30901560000001,56.0,97.0
114,75.379470075,75.70901520000001,68.0,99.0
115,75.652197075,75.924924075,66.0,99.0
116,75.924924075,76.07719665,64.0,72.0
117,76.19765107500001,76.48969623750001,63.0,107.0
118,76.470378075,77.00560481250001,64.0,100.0
119,77.015832075,77.09537745,64.0,127.0
120,77.28855907500001,77.37151353750001,64.0,96.0
121,77.56128607500001,77.634013275,64.0,112.0
122,77.834013075,78.05901285,68.0,122.0
123,78.106740075,78.29878533750001,71.0,107.0
124,78.37946707500001,78.7374212625,73.0,122.0
125,79.470375075,79.7396929875,56.0,88.0
126,79.74310207500001,80.04310177500001,66.0,100.0
127,80.01582907500001,80.324919675,64.0,93.0
128,80.288556075,80.5465103625,63.0,107.0
129,80.561283075,80.8544646,61.0,97.0
130,80.83401007500001,81.2328733125,63.0,107.0
131,81.379464075,81.47037307500001,59.0,96.0
132,81.652191075,81.7351455375,59.0,90.0
133,81.92491807500001,82.11128152500001,59.0,97.0
134,82.19764507500001,82.2851449875,64.0,99.0
135,82.470372075,82.6260537375,68.0,122.0
136,82.743099075,83.247644025,71.0,112.0
137,84.106734075,84.33514293750001,64.0,102.0
138,84.37946107500001,84.63741536250001,63.0,88.0
139,84.65218807500001,84.92718780000001,61.0,96.0
140,84.924915075,85.22036932500001,59.0,74.0
141,85.197642075,85.83514143750001,61.0,99.0
142,86.015823075,86.06241393750001,61.0,112.0
143,86.152186575,86.2362774,61.0,92.0
144,86.288550075,86.665822425,68.0,127.0
145,86.83400407500001,87.23173095000001,69.0,117.0
146,87.379458075,87.65104871250001,69.0,117.0
147,87.652185075,88.13400277500001,68.0,100.0
148,88.19763907500001,88.69763857500001,66.0,107.0
149,88.743093075,88.92263835000001,66.0,117.0
150,89.01582007500001,89.18286536250001,68.0,97.0
151,89.28854707500001,89.49536505,69.0,99.0
152,89.561274075,89.82718290000001,68.0,122.0
153,90.106728075,90.18740981250001,66.0,127.0
154,90.37945507500001,90.75445470000001,63.0,117.0
155,90.924909075,91.31581777500001,64.0,102.0
156,91.47036307500001,92.93058888750001,61.0,127.0
157,121.71465101250001,121.9351053375,73.0,107.0
158,121.98737801250002,122.14192331250001,75.0,102.0
159,122.2601050125,122.59419558750001,76.0,112.0
160,122.80555901250001,122.98964973750002,75.0,127.0
161,123.07828601250002,123.320331225,76.0,102.0
162,123.89646701250001,124.13851222500001,68.0,107.0
163,124.16919401250001,124.57601178750001,69.0,99.0
164,124.7146480125,125.42260185,76.0,117.0
165,126.07828301250001,126.2328283125,71.0,89.0
166,126.35101001250001,126.4964644125,73.0,107.0
167,126.62373701250002,126.86123677500001,75.0,127.0
168,127.16919101250001,127.40555441250001,73.0,122.0
169,127.44191801250001,127.62828146250001,75.0,127.0
170,128.2600990125,128.543053275,66.0,107.0
171,128.5328260125,128.94532560000002,68.0,117.0
172,129.07828001250002,129.42827966250002,75.0,127.0
173,130.4419150125,130.64532390000002,69.0,100.0
174,130.7146420125,130.843050975,68.0,112.0
175,130.9873690125,131.2635051,69.0,127.0
176,131.53282301250002,131.693050125,68.0,122.0
177,131.80555001250002,132.15441330000002,69.0,127.0
178,132.3510040125,132.636231,80.0,127.0
179,132.8964580125,133.1782759125,80.0,127.0
180,133.4419120125,133.67032087500002,81.0,117.0
181,133.71463901250002,133.90895700000002,80.0,117.0
182,133.98736601250002,134.4055474125,78.0,127.0
183,134.5328200125,134.6725926,76.0,102.0
184,134.8055470125,134.952137775,78.0,127.0
185,135.0782740125,135.5828189625,80.0,127.0
186,135.8964550125,136.052136675,78.0,127.0
187,136.16918201250002,136.533954375,80.0,127.0
188,136.9873630125,137.106681075,78.0,127.0
189,137.2600900125,139.2362244,80.0,127.0
190,140.5328140125,140.73508653750002,68.0,97.0
191,140.80554101250002,141.13508613750002,80.0,99.0
192,141.07826801250002,141.35099501250002,78.0,99.0
193,141.35099501250002,141.5032675875,76.0,72.0
194,141.62372201250002,141.915767175,75.0,107.0
195,141.8964490125,142.43167575,76.0,100.0
196,142.4419030125,142.52144838750002,76.0,127.0
197,142.7146300125,142.797584475,76.0,96.0
198,142.9873570125,143.06008421250002,76.0,112.0
199,143.26008401250002,143.4850837875,80.0,122.0
200,143.53281101250002,143.724856275,83.0,107.0
201,143.80553801250002,144.1634922,85.0,122.0
202,144.8964460125,145.16576392500002,68.0,88.0
203,145.1691730125,145.4691727125,78.0,100.0
204,145.4419000125,145.7509906125,76.0,93.0
205,145.71462701250002,145.9725813,75.0,107.0
206,145.98735401250002,146.28053553750001,73.0,97.0
207,146.26008101250002,146.65894425000002,75.0,107.0
208,146.8055350125,146.8964440125,71.0,96.0
209,147.0782620125,147.161216475,71.0,90.0
210,147.3509890125,147.53735246250002,71.0,97.0
211,147.6237160125,147.711215925,76.0,99.0
212,147.89644301250001,148.05212467500002,80.0,122.0
213,148.16917001250002,148.67371496250001,83.0,112.0
214,149.5328050125,149.761213875,76.0,102.0
215,149.8055320125,150.06348630000002,75.0,88.0
216,150.0782590125,150.3532587375,73.0,96.0
217,150.35098601250002,150.64644026250002,71.0,74.0
218,150.62371301250002,151.261212375,73.0,99.0
219,151.4418940125,151.488484875,73.0,112.0
220,151.57825751250002,151.66234833750002,73.0,92.0
221,151.7146210125,152.0918933625,80.0,127.0
222,152.2600750125,152.6578018875,81.0,117.0
223,152.80552901250002,153.07711965000001,81.0,117.0
224,153.07825601250002,153.5600737125,80.0,100.0
225,153.6237100125,154.1237095125,78.0,107.0
226,154.7146180125,155.31689013750002,80.0,112.0
227,156.3509800125,156.4350708375,68.0,117.0
228,156.6237070125,156.88620675,81.0,102.0
229,156.8964340125,157.71461501250002,80.0,112.0
230,157.98734201250002,158.1896145375,68.0,97.0
231,158.26006901250003,158.5896141375,80.0,99.0
232,158.5327960125,158.8055230125,78.0,99.0
233,158.8055230125,158.95779558750002,76.0,72.0
234,159.0782500125,159.37029517500002,75.0,107.0
235,159.3509770125,159.88620375000002,76.0,100.0
236,159.89643101250002,159.97597638750003,76.0,127.0
237,160.16915801250002,160.25211247500002,76.0,96.0
238,160.44188501250002,160.51461221250003,76.0,112.0
239,160.71461201250003,160.9396117875,80.0,122.0
240,160.9873390125,161.17938427500002,83.0,107.0
241,161.2600660125,161.61802020000002,85.0,122.0
242,162.35097401250002,162.620291925,68.0,88.0
243,162.62370101250002,162.92370071250002,78.0,100.0
244,162.89642801250002,163.20551861250001,76.0,93.0
245,163.1691550125,163.4271093,75.0,107.0
246,163.4418820125,163.73506353750003,73.0,97.0
247,163.7146090125,164.11347225,75.0,107.0
248,164.2600630125,164.35097201250002,71.0,96.0
249,164.53279001250002,164.615744475,71.0,90.0
250,164.80551701250002,164.9918804625,71.0,97.0
251,165.07824401250002,165.16574392500002,76.0,99.0
252,165.35097101250003,165.50665267500003,80.0,122.0
253,165.6236980125,166.12824296250002,83.0,112.0
254,166.98733301250002,167.21574187500002,76.0,102.0
255,167.26006001250002,167.5180143,75.0,88.0
256,167.53278701250002,167.8077867375,73.0,96.0
257,167.80551401250003,168.1009682625,71.0,74.0
258,168.0782410125,168.71574037500002,73.0,99.0
259,168.8964220125,168.94301287500002,73.0,112.0
260,169.03278551250003,169.1168763375,73.0,92.0
261,169.16914901250001,169.5464213625,80.0,127.0
262,169.71460301250002,170.1123298875,81.0,117.0
263,170.26005701250003,170.53164765000002,81.0,117.0
264,170.5327840125,171.01460171250002,80.0,100.0
265,171.0782380125,171.5782375125,78.0,107.0
266,171.62369201250002,171.80323728750002,78.0,117.0
267,171.89641901250002,172.06346430000002,80.0,97.0
268,172.16914601250002,172.3759639875,81.0,99.0
269,172.44187301250003,172.70778183750002,80.0,122.0
270,172.9873270125,173.1725541,78.0,127.0
271,173.2600540125,173.63505363750002,75.0,117.0
272,173.8055080125,174.19641671250002,76.0,102.0
273,174.35096201250002,175.1691430125,73.0,127.0
274,175.4418700125,175.64414253750002,68.0,97.0
275,175.7145970125,176.04414213750002,80.0,99.0
276,175.9873240125,176.2600510125,78.0,99.0
277,176.2600510125,176.41232358750003,76.0,72.0
278,176.53277801250002,176.824823175,75.0,107.0
279,176.80550501250002,177.34073175,76.0,100.0
280,177.35095901250003,177.4305043875,76.0,127.0
281,177.6236860125,177.706640475,76.0,96.0
282,177.8964130125,177.9691402125,76.0,112.0
283,178.1691400125,178.39413978750002,80.0,122.0
284,178.4418670125,178.633912275,83.0,107.0
285,178.71459401250002,179.0725482,85.0,122.0
286,179.80550201250003,180.074819925,68.0,88.0
287,180.0782290125,180.3782287125,78.0,100.0
288,180.3509560125,180.66004661250003,76.0,93.0
289,180.6236830125,180.88163730000002,75.0,107.0
290,180.8964100125,181.1895915375,73.0,97.0
291,181.16913701250002,181.56800025,75.0,107.0
292,181.71459101250002,181.8055000125,71.0,96.0
293,181.98731801250003,182.07027247500002,71.0,90.0
294,182.2600450125,182.44640846250002,71.0,97.0
295,182.5327720125,182.62027192500003,76.0,99.0
296,182.8054990125,182.961180675,80.0,122.0
297,183.0782260125,183.5827709625,83.0,112.0
298,184.44186101250003,184.670269875,76.0,102.0
299,184.7145880125,184.97254230000001,75.0,88.0
300,184.9873150125,185.26231473750002,73.0,96.0
301,185.2600420125,185.55549626250001,71.0,74.0
302,185.5327690125,186.170268375,73.0,99.0
303,186.35095001250002,186.397540875,73.0,112.0
304,186.4873135125,186.5714043375,73.0,92.0
305,186.62367701250002,187.00094936250002,80.0,127.0
306,187.1691310125,187.56685788750002,81.0,117.0
307,187.7145850125,187.98617565,81.0,117.0
308,187.9873120125,188.4691297125,80.0,100.0
309,188.53276601250002,189.03276551250002,78.0,107.0
310,189.6236740125,190.22594613750002,80.0,112.0
311,191.26003601250002,191.34412683750003,56.0,117.0
312,191.53276301250003,191.79526275,69.0,102.0
313,191.8054900125,192.6236710125,68.0,112.0
314,192.89639801250001,193.09867053750003,56.0,97.0
315,193.16912501250002,193.49867013750003,68.0,99.0
316,193.44185201250002,193.71457901250002,66.0,99.0
317,193.71457901250002,193.8668515875,64.0,72.0
318,193.98730601250003,194.27935117500002,63.0,107.0
319,194.2600330125,194.79525975,64.0,100.0
320,194.8054870125,194.88503238750002,64.0,127.0
321,195.0782140125,195.161168475,64.0,96.0
322,195.35094101250002,195.42366821250002,64.0,112.0
323,195.62366801250002,195.8486677875,68.0,122.0
324,195.89639501250002,196.088440275,71.0,107.0
325,196.16912201250003,196.5270762,73.0,122.0
326,197.2600300125,197.52934792500002,56.0,88.0
327,197.5327570125,197.83275671250001,66.0,100.0
328,197.80548401250002,198.1145746125,64.0,93.0
329,198.07821101250002,198.3361653,63.0,107.0
330,198.35093801250002,198.64411953750002,61.0,97.0
331,198.62366501250003,199.02252825000002,63.0,107.0
332,199.1691190125,199.26002801250002,59.0,96.0
333,199.4418460125,199.524800475,59.0,90.0
334,199.7145730125,199.90093646250003,59.0,97.0
335,199.98730001250001,200.074799925,64.0,99.0
336,200.26002701250002,200.41570867500002,68.0,122.0
337,200.53275401250002,201.03729896250002,71.0,112.0
338,201.8963890125,202.124797875,64.0,102.0
339,202.1691160125,202.42707030000003,63.0,88.0
340,202.44184301250002,202.7168427375,61.0,96.0
341,202.71457001250002,203.01002426250002,59.0,74.0
342,202.98729701250002,203.62479637500002,61.0,99.0
343,203.8054780125,203.85206887500001,61.0,112.0
344,203.94184151250002,204.02593233750002,61.0,92.0
345,204.0782050125,204.4554773625,68.0,127.0
346,204.6236590125,205.0213858875,69.0,117.0
347,205.16911301250002,205.44070365000002,69.0,117.0
348,205.44184001250002,205.92365771250002,68.0,100.0
349,205.98729401250003,206.4872935125,66.0,107.0
350,206.5327480125,206.71229328750002,66.0,117.0
351,206.8054750125,206.9725203,68.0,97.0
352,207.07820201250001,207.28501998750002,69.0,99.0
353,207.35092901250002,207.61683783750001,68.0,122.0
354,207.89638301250002,208.0816101,66.0,127.0
355,208.16911001250003,208.54410963750001,63.0,117.0
356,208.7145640125,209.10547271250002,64.0,102.0
357,209.2600180125,210.720243825,61.0,127.0
