,start,end,pitch,velocity
0,5.015904075000001,5.3397673875,73.0,66.0
1,4.743177075,5.406812775000001,68.0,54.0
2,5.2886310750000005,6.0420394125,76.0,74.0
3,5.834085075000001,6.440902650000001,68.0,58.0
4,4.4704500750000005,6.647720625000001,61.0,77.0
5,6.379539075,6.7852204875,73.0,41.0
6,6.106812075000001,6.7874932125,76.0,52.0
7,7.197720075,7.559083350000001,69.0,53.0
8,6.924993075000001,7.797719475000001,64.0,59.0
9,8.015901075,8.33180985,64.0,51.0
10,7.743174075000001,8.386355250000001,73.0,48.0
11,6.652266075000001,8.393173425,57.0,66.0
12,8.288628075,8.876127487500002,69.0,74.0
13,8.561355075,8.8784002125,73.0,74.0
14,7.470447075000001,8.879536575000001,76.0,83.0
15,9.379536075,9.76817205,71.0,71.0
16,9.106809075000001,9.970444575,66.0,82.0
17,10.197717075000002,10.393171425,66.0,63.0
18,8.834082075000001,10.470444075000001,59.0,66.0
19,9.652263075,10.9329436125,78.0,87.0
20,10.470444075000001,10.934079975000001,75.0,90.0
21,10.743171075000001,11.0181708,71.0,82.0
22,11.561352075,11.8647608625,64.0,78.0
23,11.288625075,12.6272601,59.0,63.0
24,11.015898075,12.6602146125,52.0,68.0
25,12.106806075000001,12.707941837500002,68.0,92.0
26,12.379533075000001,12.757941787500002,66.0,83.0
27,12.652260075000001,13.181805,64.0,79.0
28,12.924987075,13.209077700000002,66.0,67.0
29,11.834079075000002,13.215895875000001,71.0,87.0
30,14.015895075000001,14.270440275,71.0,69.0
31,13.743168075000002,14.372712900000002,69.0,89.0
32,14.288622075000001,14.561349075,73.0,97.0
33,13.470441075000002,14.743167075,64.0,72.0
34,13.197714075,14.919303262500001,57.0,62.0
35,14.834076075,15.267030187500001,73.0,101.0
36,14.561349075,15.28634835,76.0,93.0
37,15.106803075000002,15.342030112500002,71.0,88.0
38,15.924984075000001,16.2443019375,69.0,62.0
39,15.652257075000001,16.353392737500002,66.0,74.0
40,16.470438075,16.8965740125,61.0,57.0
41,15.379530075000002,16.910210362500003,54.0,49.0
42,16.197711075,17.086346550000002,73.0,90.0
43,17.015892075,17.4465734625,68.0,89.0
44,17.288619075,17.5352097375,73.0,55.0
45,16.743165075,17.568164250000002,66.0,66.0
46,18.106800075000002,18.768163050000002,63.0,71.0
47,18.379527075000002,18.7999812,68.0,75.0
48,18.924981075,19.087480912500002,63.0,68.0
49,17.834073075000003,19.112480887500002,60.0,66.0
50,17.561346075000003,19.1942989875,56.0,83.0
51,19.197708075,19.654525800000002,72.0,71.0
52,18.652254075000002,19.7238439125,75.0,74.0
53,19.470435075,19.770434775000002,68.0,75.0
54,20.561343075,20.860206412500002,64.0,59.0
55,20.015889075,21.874978125000002,56.0,35.0
56,20.288616075,21.906796275,61.0,79.0
57,20.834070075000003,21.920432625,68.0,56.0
58,19.743162075,21.965887125000002,49.0,81.0
59,21.924978075000002,21.965887125000002,49.0,71.0
60,21.924978075000002,22.334068575000003,64.0,58.0
61,21.924978075000002,22.365886725000003,68.0,70.0
62,21.924978075000002,22.534068375,61.0,82.0
63,22.470432075,22.967022487500003,56.0,39.0
64,22.743159075,23.3170221375,64.0,85.0
65,22.743159075,23.364749362500003,61.0,86.0
66,22.743159075,23.398840237500004,68.0,92.0
67,23.288613075,23.555658262500003,56.0,59.0
68,23.561340075,23.6897490375,64.0,62.0
69,23.561340075,23.7147490125,68.0,82.0
70,23.561340075,23.7897489375,61.0,82.0
71,24.106794075000003,24.6817935,64.0,73.0
72,24.106794075000003,24.682929862500004,57.0,85.0
73,24.106794075000003,24.696566212500002,61.0,81.0
74,24.652248075000003,25.121565787500003,52.0,57.0
75,24.924975075000003,25.610201662500003,57.0,81.0
76,24.924975075000003,25.620428925000002,64.0,73.0
77,24.924975075000003,25.631792550000004,61.0,90.0
78,24.106794075000003,25.786337850000002,45.0,66.0
79,25.470429075000002,25.868155950000002,52.0,45.0
80,25.743156075,25.8999741,64.0,61.0
81,25.743156075,25.952246775000003,61.0,60.0
82,25.743156075,26.014746712500003,57.0,72.0
83,26.288610075,26.882927662500002,66.0,77.0
84,26.288610075,26.8999731,59.0,83.0
85,26.288610075,26.906791275000003,63.0,92.0
86,26.834064075,27.379518075000004,54.0,45.0
87,27.106791075000004,27.773835862500004,59.0,73.0
88,27.106791075000004,27.7851994875,66.0,82.0
89,27.106791075000004,27.787472212500003,63.0,99.0
90,27.652245075000003,27.984062925000003,54.0,66.0
91,26.288610075,28.162471837500004,47.0,65.0
92,27.924972075000003,28.171562737500004,63.0,112.0
93,27.924972075000003,28.190880900000003,66.0,95.0
94,28.470426075000002,29.131789050000002,68.0,77.0
95,28.470426075000002,29.139743587500003,59.0,83.0
96,28.470426075000002,29.159061750000003,64.0,76.0
97,29.288607075,29.676106687500003,59.0,83.0
98,29.288607075,29.676106687500003,68.0,95.0
99,29.288607075,29.693152125,64.0,92.0
100,28.470426075000002,30.0124699875,52.0,68.0
101,29.834061075,30.1851970875,68.0,92.0
102,29.834061075,30.207924337500003,64.0,92.0
103,29.834061075,30.428378662500002,59.0,83.0
104,30.106788075,30.605651212500003,52.0,78.0
105,30.652242075000004,31.238605125000003,64.0,81.0
106,30.652242075000004,31.247696025000003,57.0,88.0
107,30.652242075000004,31.252241475,61.0,95.0
108,31.197696075000003,31.856786325,52.0,36.0
109,31.470423075000003,32.148831487500004,57.0,89.0
110,31.470423075000003,32.165876925,64.0,85.0
111,31.470423075000003,32.184058725,61.0,97.0
112,32.015877075000006,32.2783768125,52.0,66.0
113,30.652242075000004,32.324967675,45.0,61.0
114,32.288604075,32.524967475000004,64.0,88.0
115,32.288604075,32.545422,61.0,122.0
116,32.834058075,33.4238302125,61.0,95.0
117,32.834058075,33.4465574625,57.0,92.0
118,33.379512075,33.7988298375,54.0,48.0
119,33.652239075000004,34.314738412500006,61.0,96.0
120,33.652239075000004,34.328374762500005,57.0,86.0
121,33.652239075000004,34.329511125,66.0,86.0
122,32.834058075,34.538601825,42.0,89.0
123,34.470420075,34.538601825,66.0,76.0
124,34.470420075,34.552238175,61.0,95.0
125,34.197693075000004,34.621556287500006,54.0,56.0
126,34.470420075,34.665874425000005,57.0,97.0
127,35.015874075,35.64087345,56.0,92.0
128,35.015874075,35.6647370625,60.0,96.0
129,35.015874075,35.6829188625,63.0,79.0
130,35.561328075000006,35.9908731,51.0,35.0
131,35.834055075,36.220418325000004,60.0,96.0
132,35.834055075,36.2283728625,63.0,90.0
133,35.834055075,36.234054675,56.0,89.0
134,36.106782075000005,36.3215545875,51.0,37.0
135,36.379509075,36.6624633375,60.0,90.0
136,36.379509075,36.697690575,56.0,86.0
137,36.379509075,36.713599650000006,63.0,88.0
138,35.015874075,36.7181451,44.0,93.0
139,36.652236075000005,36.740872350000004,51.0,72.0
140,37.197690075000004,37.872689400000006,64.0,83.0
141,37.197690075000004,37.880643937500004,68.0,92.0
142,37.197690075000004,37.89087120000001,61.0,97.0
143,37.197690075000004,38.1908709,56.0,92.0
144,38.015871075,38.420416125,68.0,74.0
145,38.015871075,38.4215524875,64.0,73.0
146,38.015871075,38.436325200000006,61.0,90.0
147,38.288598075,38.6329159125,56.0,38.0
148,37.197690075000004,38.8090521,49.0,50.0
149,38.834052075,38.899961100000006,49.0,42.0
150,38.561325075000006,38.9397337875,64.0,85.0
151,38.561325075000006,38.9420065125,68.0,89.0
152,38.834052075,38.994279187500005,56.0,107.0
153,38.561325075000006,39.1351881375,61.0,96.0
154,39.379506075,40.015869075000005,64.0,86.0
155,39.379506075,40.0260963375,61.0,99.0
156,39.379506075,40.0260963375,68.0,92.0
157,39.379506075,40.338596025,56.0,69.0
158,40.197687075000005,40.573823062500004,64.0,95.0
159,40.197687075000005,40.5817776,68.0,99.0
160,40.197687075000005,40.5874594125,61.0,99.0
161,40.470414075,40.8090501,56.0,33.0
162,40.743141075000004,41.012458987500004,64.0,89.0
163,40.743141075000004,41.049958950000004,68.0,102.0
164,39.379506075,41.065868025,49.0,55.0
165,41.015868075,41.0965498125,56.0,95.0
166,40.743141075000004,41.098822537500006,61.0,95.0
167,41.56132207500001,42.176094187500006,64.0,82.0
168,41.56132207500001,42.1851850875,57.0,85.0
169,41.56132207500001,42.1908669,61.0,83.0
170,42.106776075000006,42.5351847375,52.0,66.0
171,42.379503075,43.006775175,57.0,93.0
172,42.379503075,43.046547862500006,64.0,90.0
173,42.379503075,43.060184212500005,61.0,97.0
174,41.56132207500001,43.2556385625,45.0,66.0
175,43.197684075000005,43.34995665,64.0,88.0
176,42.924957075,43.3692748125,52.0,77.0
177,43.197684075000005,43.5374564625,57.0,89.0
178,43.197684075000005,43.618138200000004,61.0,102.0
179,43.743138075000005,44.330637487500006,66.0,92.0
180,43.743138075000005,44.3465465625,59.0,83.0
181,43.743138075000005,44.36131927500001,63.0,102.0
182,44.288592075000004,44.826091537500005,54.0,74.0
183,44.561319075,45.1874548125,59.0,74.0
184,44.561319075,45.21927296250001,66.0,81.0
185,44.561319075,45.2306365875,63.0,97.0
186,45.10677307500001,45.3988182375,54.0,89.0
187,43.743138075000005,45.446545462500005,47.0,70.0
188,45.379500075,45.627227100000006,63.0,122.0
189,45.379500075,45.6374543625,66.0,100.0
190,45.652227075000006,45.818136,59.0,57.0
191,45.924954075,46.537453462500004,59.0,86.0
192,45.924954075,46.55336253750001,68.0,92.0
193,45.924954075,46.57268070000001,64.0,88.0
194,46.743135075000005,47.332907212500004,59.0,88.0
195,46.743135075000005,47.3419981125,68.0,90.0
196,46.743135075000005,47.362452637500006,64.0,88.0
197,45.924954075,47.626088737500005,40.0,73.0
198,46.470408075,47.6851795875,47.0,44.0
199,47.561316075,47.8169976375,64.0,96.0
200,47.561316075,47.818134,68.0,95.0
201,47.288589075000004,48.051088312500006,52.0,90.0
202,47.834043075000004,48.1601791125,59.0,97.0
203,48.10677007500001,48.735178537500005,64.0,82.0
204,48.10677007500001,48.7579057875,61.0,112.0
205,48.65222407500001,49.129496325000005,52.0,65.0
206,48.924951075,49.511314125000006,64.0,85.0
207,48.924951075,49.51585957500001,57.0,97.0
208,48.924951075,49.5329050125,61.0,99.0
209,48.10677007500001,49.7647229625,45.0,71.0
210,49.470405075,49.787450212500005,52.0,72.0
211,49.743132075000005,50.1169953375,64.0,93.0
212,49.743132075000005,50.162449837500006,61.0,127.0
213,50.288586075000005,50.6101766625,61.0,89.0
214,50.288586075000005,50.8988127375,57.0,89.0
215,50.834040075000004,51.39540315000001,54.0,85.0
216,51.106767075,51.47722125000001,61.0,89.0
217,51.106767075,51.48631215,66.0,88.0
218,51.106767075,51.4988121375,57.0,83.0
219,51.65222107500001,51.856766325,54.0,23.0
220,51.65222107500001,51.920402625,61.0,97.0
221,51.65222107500001,52.004493450000005,66.0,93.0
222,50.288586075000005,52.0760842875,42.0,82.0
223,51.65222107500001,52.0897206375,57.0,85.0
224,51.924948075,52.36017491250001,54.0,82.0
225,52.470402075,53.0669923875,60.0,89.0
226,52.470402075,53.0669923875,63.0,100.0
227,52.470402075,53.079492375,56.0,92.0
228,53.288583075000005,53.67494632500001,63.0,99.0
229,53.288583075000005,53.68176450000001,60.0,102.0
230,53.288583075000005,53.697673575,56.0,95.0
231,53.015856075,53.943127875,51.0,67.0
232,53.834037075000005,54.189718537500006,60.0,97.0
233,52.470402075,54.211309425,44.0,83.0
234,53.834037075000005,54.227218500000006,63.0,93.0
235,53.834037075000005,54.3942637875,56.0,86.0
236,54.106764075,54.47721825000001,51.0,93.0
237,54.65221807500001,55.148808487500006,51.0,90.0
238,54.65221807500001,55.17721755,60.0,99.0
239,54.65221807500001,55.236308400000006,63.0,102.0
240,54.65221807500001,55.2647174625,56.0,100.0
241,55.19767207500001,55.643126175000006,51.0,68.0
242,55.470399075,55.834035075,60.0,100.0
243,55.470399075,55.8397168875,63.0,99.0
244,55.470399075,55.85448960000001,56.0,97.0
245,55.743126075000006,56.129489325,51.0,44.0
246,54.65221807500001,56.1601711125,44.0,100.0
247,56.015853075,56.40448905,60.0,92.0
248,56.015853075,56.41926176250001,56.0,92.0
249,56.015853075,56.57494342500001,63.0,89.0
250,56.288580075000006,56.684034225000005,51.0,82.0
251,56.288580075000006,56.6999433,44.0,96.0
252,56.561307075,56.711306925,56.0,90.0
253,56.834034075000005,58.380623437500006,60.0,97.0
254,56.834034075000005,58.405623412500006,44.0,95.0
255,56.834034075000005,58.41130522500001,56.0,96.0
256,56.834034075000005,58.4215324875,51.0,92.0
257,56.834034075000005,58.437441562500005,63.0,93.0
258,59.015850075,59.453349637500004,56.0,68.0
259,59.015850075,59.570394975000006,64.0,86.0
260,59.015850075,59.589713137500006,68.0,97.0
261,59.015850075,59.59425858750001,61.0,97.0
262,59.834031075000006,59.94539460000001,64.0,89.0
263,59.561304075,59.96471276250001,56.0,51.0
264,59.834031075000006,60.20903070000001,68.0,102.0
265,59.834031075000006,60.215848875000006,61.0,96.0
266,60.106758075,60.47721225000001,56.0,47.0
267,60.379485075000005,60.6510757125,64.0,96.0
268,59.015850075,60.65334843750001,49.0,66.0
269,60.379485075000005,60.6828938625,68.0,112.0
270,60.652212075,60.73403017500001,56.0,99.0
271,60.379485075000005,60.7442574375,61.0,99.0
272,61.19766607500001,61.8033472875,57.0,92.0
273,61.19766607500001,61.81130182500001,64.0,86.0
274,61.19766607500001,61.8169836375,61.0,96.0
275,61.74312007500001,62.1851650875,52.0,48.0
276,62.015847075,62.359028550000005,57.0,86.0
277,62.015847075,62.3669830875,64.0,86.0
278,62.015847075,62.382892162500006,61.0,97.0
279,62.28857407500001,62.703346387500005,52.0,37.0
280,62.561301075,62.96811885,61.0,107.0
281,62.561301075,62.9817552,64.0,88.0
282,62.561301075,62.98970973750001,57.0,88.0
283,63.106755075,63.173800462500004,64.0,57.0
284,61.19766607500001,63.174936825,45.0,68.0
285,63.106755075,63.248800387500005,57.0,76.0
286,63.106755075,63.3078912375,61.0,86.0
287,62.834028075000006,63.38402752500001,52.0,61.0
288,63.379482075000006,64.002208725,59.0,76.0
289,63.379482075000006,64.00334508750001,66.0,95.0
290,63.379482075000006,64.02039052500001,63.0,102.0
291,63.924936075000005,64.39539015000001,54.0,59.0
292,64.19766307500001,64.5851626875,59.0,85.0
293,64.19766307500001,64.59198086250001,66.0,102.0
294,64.19766307500001,64.5965263125,63.0,122.0
295,63.379482075000006,65.04993495000001,47.0,72.0
296,65.015844075,65.0987985375,54.0,71.0
297,64.743117075,65.14084395,63.0,107.0
298,64.743117075,65.1510712125,59.0,78.0
299,64.743117075,65.16129847500001,66.0,102.0
300,65.28857107500001,65.370389175,66.0,88.0
301,65.28857107500001,65.41129822500001,63.0,112.0
302,65.28857107500001,65.420389125,59.0,86.0
303,65.56129807500001,66.1669792875,59.0,86.0
304,65.56129807500001,66.17493382500001,68.0,97.0
305,65.56129807500001,66.181752,64.0,92.0
306,66.106752075,66.543115275,47.0,42.0
307,66.379479075,66.78288776250001,59.0,90.0
308,66.379479075,66.784024125,68.0,97.0
309,66.379479075,66.793115025,64.0,97.0
310,65.56129807500001,67.1999328,40.0,69.0
311,66.924933075,67.270387275,64.0,89.0
312,67.197660075,67.28288726250001,47.0,82.0
313,66.924933075,67.29879633750001,68.0,93.0
314,66.924933075,67.5147052125,59.0,81.0
315,67.74311407500001,68.34084075000001,64.0,79.0
316,67.74311407500001,68.361295275,57.0,90.0
317,67.74311407500001,68.37720435,61.0,99.0
318,68.288568075,68.74538580000001,52.0,53.0
319,68.561295075,68.9362947,64.0,82.0
320,68.561295075,68.9465219625,57.0,86.0
321,68.561295075,68.95106741250001,61.0,99.0
322,69.10674907500001,69.4306123875,61.0,122.0
323,67.74311407500001,69.44538510000001,45.0,72.0
324,69.10674907500001,69.44538510000001,64.0,93.0
325,69.379476075,69.47606688750001,52.0,75.0
326,69.10674907500001,69.4919759625,57.0,92.0
327,69.924930075,70.520384025,61.0,100.0
328,69.924930075,70.5215203875,66.0,95.0
329,69.924930075,70.52265675000001,57.0,96.0
330,70.743111075,71.0897016375,61.0,102.0
331,70.743111075,71.09538345,57.0,88.0
332,70.743111075,71.102201625,66.0,99.0
333,70.47038407500001,71.39765587500001,54.0,74.0
334,71.28856507500001,71.565837525,61.0,112.0
335,71.28856507500001,71.58288296250001,66.0,97.0
336,69.924930075,71.6601556125,42.0,81.0
337,71.28856507500001,71.75788278750001,57.0,90.0
338,71.56129207500001,72.0181098,54.0,89.0
339,72.106746075,72.73515453750001,63.0,97.0
340,72.106746075,72.7453818,60.0,97.0
341,72.106746075,72.75219997500001,56.0,90.0
342,72.924927075,73.0760632875,60.0,96.0
343,72.924927075,73.34992665,63.0,90.0
344,72.924927075,73.361290275,56.0,93.0
345,73.470381075,73.92151698750001,63.0,102.0
346,73.74310807500001,74.04878958750001,54.0,86.0
347,73.470381075,74.09878953750001,56.0,100.0
348,72.106746075,74.138562225,44.0,72.0
349,74.288562075,74.77719795,54.0,73.0
350,74.288562075,74.89878873750001,56.0,99.0
351,74.288562075,74.8999251,63.0,96.0
352,74.83401607500001,75.17606118750001,54.0,72.0
353,75.10674307500001,75.4442427375,60.0,97.0
354,75.10674307500001,75.4692427125,63.0,96.0
355,75.10674307500001,75.4715154375,56.0,97.0
356,75.379470075,75.815833275,54.0,76.0
357,74.288562075,75.83969688750001,44.0,86.0
358,75.652197075,75.93628770000001,60.0,102.0
359,75.652197075,75.94992405,56.0,97.0
360,75.652197075,75.993105825,63.0,99.0
361,75.924924075,76.0181058,44.0,35.0
362,75.924924075,76.07833301250001,54.0,102.0
363,76.470378075,76.93060488750001,64.0,96.0
364,76.470378075,77.0453775,68.0,102.0
365,76.470378075,77.07833201250001,61.0,107.0
366,77.28855907500001,77.3817408,64.0,89.0
367,77.28855907500001,77.63628600000001,68.0,96.0
368,77.28855907500001,77.6453769,61.0,95.0
369,77.015832075,77.98628565,56.0,55.0
370,77.834013075,78.1090128,64.0,96.0
371,77.834013075,78.14083095000001,68.0,117.0
372,76.470378075,78.14992185000001,49.0,92.0
373,77.834013075,78.19423998750001,61.0,99.0
374,78.106740075,78.19651271250001,56.0,100.0
375,78.65219407500001,79.2396934875,64.0,86.0
376,78.65219407500001,79.2442389375,57.0,100.0
377,78.65219407500001,79.26242073750001,61.0,100.0
378,79.470375075,79.8078747375,57.0,86.0
379,79.470375075,79.81355655,64.0,83.0
380,79.470375075,79.81810200000001,61.0,97.0
381,79.197648075,80.1362835,52.0,55.0
382,80.01582907500001,80.4271923,64.0,88.0
383,80.01582907500001,80.4306013875,61.0,107.0
384,80.01582907500001,80.447646825,57.0,88.0
385,78.65219407500001,80.60446485,45.0,70.0
386,80.561283075,80.65901025000001,64.0,69.0
387,80.561283075,80.7215101875,57.0,81.0
388,80.561283075,80.73969198750001,61.0,96.0
389,80.288556075,80.85673732500001,52.0,61.0
390,80.83401007500001,81.42264585000001,66.0,102.0
391,80.83401007500001,81.43060038750001,63.0,112.0
392,80.83401007500001,81.43628220000001,59.0,81.0
393,81.652191075,82.02264525000001,59.0,81.0
394,81.652191075,82.0237816125,66.0,112.0
395,81.652191075,82.03059978750001,63.0,122.0
396,81.379464075,82.3328722125,54.0,53.0
397,82.19764507500001,82.51696293750001,63.0,127.0
398,80.83401007500001,82.520372025,47.0,70.0
399,82.19764507500001,82.52491747500001,66.0,117.0
400,82.470372075,82.53173565,54.0,89.0
401,82.19764507500001,82.63628100000001,59.0,78.0
402,83.015826075,83.63514363750001,52.0,93.0
403,83.015826075,83.64082545000001,56.0,97.0
404,83.015826075,83.6624163375,59.0,92.0
405,83.56128007500001,83.9374160625,47.0,75.0
406,83.834007075,84.2010521625,52.0,85.0
407,83.834007075,84.2396884875,59.0,89.0
408,83.834007075,84.24423393750001,56.0,96.0
409,84.37946107500001,84.6305971875,52.0,85.0
410,84.37946107500001,84.64082445000001,56.0,97.0
411,84.37946107500001,84.6533244375,59.0,89.0
412,83.015826075,84.67946077500001,40.0,68.0
413,84.65218807500001,84.7419607125,47.0,69.0
414,85.197642075,85.79309602500001,57.0,93.0
415,85.197642075,85.8078687375,64.0,89.0
416,85.197642075,85.81582327500001,61.0,107.0
417,85.74309607500001,86.1908229,52.0,47.0
418,86.015823075,86.36809545000001,57.0,92.0
419,86.015823075,86.3692318125,64.0,90.0
420,86.015823075,86.388549975,61.0,112.0
421,86.288550075,86.60332248750001,52.0,25.0
422,86.83400407500001,86.9271858,52.0,68.0
423,86.561277075,86.93173125000001,61.0,127.0
424,85.197642075,86.938549425,45.0,70.0
425,86.561277075,86.938549425,57.0,92.0
426,86.561277075,86.94536760000001,64.0,93.0
427,87.10673107500001,87.25673092500001,57.0,86.0
428,87.379458075,87.9624120375,57.0,92.0
429,87.379458075,87.9624120375,61.0,112.0
430,87.379458075,87.97718475,66.0,96.0
431,87.92491207500001,88.23854812500001,54.0,92.0
432,88.19763907500001,88.545366,61.0,117.0
433,88.19763907500001,88.54650236250001,57.0,95.0
434,88.19763907500001,88.5510478125,66.0,99.0
435,88.743093075,89.0487745875,61.0,117.0
436,88.743093075,89.06809275,66.0,99.0
437,87.379458075,89.1180927,42.0,93.0
438,88.743093075,89.2237744125,57.0,96.0
439,89.01582007500001,89.41922876250001,54.0,86.0
440,89.561274075,90.1362735,63.0,100.0
441,89.561274075,90.1453644,60.0,107.0
442,89.561274075,90.1646825625,56.0,102.0
443,90.37945507500001,90.73172745000001,60.0,99.0
444,90.37945507500001,90.734000175,63.0,90.0
445,90.37945507500001,90.7453638,56.0,95.0
446,89.561274075,91.0783180125,44.0,95.0
447,90.924909075,91.161272475,60.0,97.0
448,90.924909075,91.19309062500001,56.0,90.0
449,90.924909075,91.2283178625,63.0,92.0
450,91.197636075,91.61354475,44.0,79.0
451,91.74309007500001,92.67036187500001,64.0,95.0
452,91.74309007500001,92.69195276250001,68.0,100.0
453,91.74309007500001,92.7237709125,61.0,99.0
454,91.74309007500001,92.7544527,49.0,89.0
455,93.92490607500001,94.6533144375,64.0,81.0
456,93.92490607500001,94.6817235,61.0,96.0
457,93.92490607500001,94.706723475,57.0,88.0
458,94.743087075,95.65217707500001,61.0,81.0
459,94.743087075,95.66354070000001,64.0,75.0
460,93.92490607500001,95.6896770375,42.0,76.0
461,93.92490607500001,95.79308602500001,54.0,92.0
462,95.561268075,95.81922236250001,57.0,77.0
463,96.10672207500001,96.75899415,56.0,99.0
464,96.10672207500001,96.76240323750001,59.0,78.0
465,96.10672207500001,96.788539575,63.0,97.0
466,96.10672207500001,97.66012961250001,44.0,86.0
467,96.924903075,97.6919477625,59.0,78.0
468,96.924903075,97.73740226250001,66.0,72.0
469,96.924903075,97.74876588750001,63.0,72.0
470,96.924903075,97.75672042500001,56.0,81.0
471,98.288538075,99.0078555375,57.0,93.0
472,98.288538075,99.03399187500001,61.0,96.0
473,98.288538075,99.03399187500001,64.0,88.0
474,99.106719075,99.7624002375,57.0,73.0
475,99.106719075,99.970354575,61.0,100.0
476,99.106719075,100.006718175,64.0,77.0
477,98.288538075,100.04080905000001,42.0,72.0
478,98.288538075,100.079445375,54.0,85.0
479,99.92490007500001,100.1623998375,57.0,100.0
480,100.470354075,102.55444290000001,51.0,72.0
481,100.470354075,102.55898835,60.0,107.0
482,100.470354075,102.56239743750001,44.0,57.0
483,100.470354075,102.58512468750001,63.0,122.0
484,100.470354075,102.5998974,56.0,102.0
485,100.470354075,102.60444285000001,48.0,65.0
486,102.65217007500002,102.87376076250001,60.0,93.0
487,102.65217007500002,102.874897125,51.0,88.0
488,102.65217007500002,102.888533475,56.0,90.0
489,102.65217007500002,102.89535165000001,66.0,88.0
490,102.65217007500002,102.89648801250001,63.0,83.0
491,102.65217007500002,102.90330618750001,44.0,88.0
492,104.80557701250001,105.21466751250001,64.0,58.0
493,104.80557701250001,105.2464856625,68.0,70.0
494,104.80557701250001,105.41466731250001,61.0,82.0
495,105.3510310125,105.84762142500001,56.0,39.0
496,105.6237580125,106.19762107500001,64.0,85.0
497,105.6237580125,106.2453483,61.0,86.0
498,105.6237580125,106.27943917500001,68.0,92.0
499,106.16921201250001,106.43625720000001,56.0,59.0
500,104.80557701250001,106.50557531250001,49.0,71.0
501,106.44193901250001,106.570347975,64.0,62.0
502,106.44193901250001,106.59534795,68.0,82.0
503,106.44193901250001,106.670347875,61.0,82.0
504,106.98739301250001,107.56239243750001,64.0,73.0
505,106.98739301250001,107.56352880000001,57.0,85.0
506,106.98739301250001,107.57716515000001,61.0,81.0
507,107.53284701250001,108.00216472500001,52.0,57.0
508,107.8055740125,108.49080060000001,57.0,81.0
509,107.8055740125,108.50102786250001,64.0,73.0
510,107.8055740125,108.51239148750001,61.0,90.0
511,106.98739301250001,108.6669367875,45.0,66.0
512,108.35102801250001,108.74875488750001,52.0,45.0
513,108.62375501250001,108.7805730375,64.0,61.0
514,108.62375501250001,108.8328457125,61.0,60.0
515,108.62375501250001,108.89534565000001,57.0,72.0
516,109.1692090125,109.7635266,66.0,77.0
517,109.1692090125,109.78057203750001,59.0,83.0
518,109.1692090125,109.78739021250001,63.0,92.0
519,109.71466301250001,110.2601170125,54.0,45.0
520,109.98739001250001,110.6544348,59.0,73.0
521,109.98739001250001,110.665798425,66.0,82.0
522,109.98739001250001,110.66807115,63.0,99.0
523,110.53284401250001,110.86466186250001,54.0,66.0
524,109.1692090125,111.043070775,47.0,65.0
525,110.80557101250001,111.05216167500001,63.0,112.0
526,110.80557101250001,111.07147983750001,66.0,95.0
527,111.3510250125,112.0123879875,68.0,77.0
528,111.3510250125,112.020342525,59.0,83.0
529,111.3510250125,112.0396606875,64.0,76.0
530,112.16920601250001,112.556705625,59.0,83.0
531,112.16920601250001,112.556705625,68.0,95.0
532,112.16920601250001,112.57375106250001,64.0,92.0
533,111.3510250125,112.89306892500001,52.0,68.0
534,112.7146600125,113.06579602500001,68.0,92.0
535,112.7146600125,113.08852327500001,64.0,92.0
536,112.7146600125,113.3089776,59.0,83.0
537,112.98738701250001,113.48625015,52.0,78.0
538,113.53284101250001,114.1192040625,64.0,81.0
539,113.53284101250001,114.12829496250001,57.0,88.0
540,113.53284101250001,114.1328404125,61.0,95.0
541,114.0782950125,114.73738526250001,52.0,36.0
542,114.35102201250001,115.02943042500002,57.0,89.0
543,114.35102201250001,115.0464758625,64.0,85.0
544,114.35102201250001,115.06465766250001,61.0,97.0
545,114.8964760125,115.15897575000001,52.0,66.0
546,113.53284101250001,115.20556661250001,45.0,61.0
547,115.1692030125,115.40556641250001,64.0,88.0
548,115.1692030125,115.42602093750001,61.0,122.0
549,115.71465701250001,116.30442915,61.0,95.0
550,115.71465701250001,116.3271564,57.0,92.0
551,116.2601110125,116.679428775,54.0,48.0
552,116.53283801250001,117.19533735,61.0,96.0
553,116.53283801250001,117.20897370000002,57.0,86.0
554,116.53283801250001,117.21011006250001,66.0,86.0
555,115.71465701250001,117.41920076250001,42.0,89.0
556,117.3510190125,117.41920076250001,66.0,76.0
557,117.3510190125,117.43283711250001,61.0,95.0
558,117.07829201250001,117.50215522500001,54.0,56.0
559,117.3510190125,117.54647336250001,57.0,97.0
560,117.89647301250001,118.52147238750001,56.0,92.0
561,117.89647301250001,118.545336,60.0,96.0
562,117.89647301250001,118.56351780000001,63.0,79.0
563,118.4419270125,118.87147203750001,51.0,35.0
564,118.7146540125,119.10101726250001,60.0,96.0
565,118.7146540125,119.1089718,63.0,90.0
566,118.7146540125,119.1146536125,56.0,89.0
567,118.98738101250001,119.20215352500001,51.0,37.0
568,119.26010801250001,119.54306227500001,60.0,90.0
569,119.26010801250001,119.5782895125,56.0,86.0
570,119.26010801250001,119.5941985875,63.0,88.0
571,117.89647301250001,119.59874403750001,44.0,93.0
572,119.53283501250002,119.62147128750001,51.0,72.0
573,120.07828901250001,120.75328833750001,64.0,83.0
574,120.07828901250001,120.76124287500001,68.0,92.0
575,120.07828901250001,120.7714701375,61.0,97.0
576,120.07828901250001,121.0714698375,56.0,92.0
577,120.8964700125,121.30101506250001,68.0,74.0
578,120.8964700125,121.302151425,64.0,73.0
579,120.8964700125,121.31692413750001,61.0,90.0
580,121.1691970125,121.51351485,56.0,38.0
581,120.07828901250001,121.68965103750001,49.0,50.0
582,121.71465101250001,121.78056003750001,49.0,42.0
583,121.44192401250001,121.82033272500001,64.0,85.0
584,121.44192401250001,121.82260545000001,68.0,89.0
585,121.71465101250001,121.87487812500001,56.0,107.0
586,121.44192401250001,122.015787075,61.0,96.0
587,122.2601050125,122.89646801250001,64.0,86.0
588,122.2601050125,122.906695275,61.0,99.0
589,122.2601050125,122.906695275,68.0,92.0
590,122.2601050125,123.21919496250001,56.0,69.0
591,123.07828601250002,123.45442200000001,64.0,95.0
592,123.07828601250002,123.4623765375,68.0,99.0
593,123.07828601250002,123.46805835,61.0,99.0
594,123.3510130125,123.6896490375,56.0,33.0
595,123.62374001250001,123.89305792500001,64.0,89.0
596,123.62374001250001,123.93055788750002,68.0,102.0
597,122.2601050125,123.94646696250001,49.0,55.0
598,123.89646701250001,123.97714875000001,56.0,95.0
599,123.62374001250001,123.97942147500001,61.0,95.0
600,124.4419210125,125.05669312500001,64.0,82.0
601,124.4419210125,125.06578402500001,57.0,85.0
602,124.4419210125,125.07146583750001,61.0,83.0
603,124.98737501250001,125.41578367500001,52.0,66.0
604,125.26010201250001,125.88737411250001,57.0,93.0
605,125.26010201250001,125.92714680000002,64.0,90.0
606,125.26010201250001,125.94078315000002,61.0,97.0
607,124.4419210125,126.13623750000001,45.0,66.0
608,126.07828301250001,126.2305555875,64.0,88.0
609,125.8055560125,126.24987375,52.0,77.0
610,126.07828301250001,126.41805540000001,57.0,89.0
611,126.07828301250001,126.49873713750002,61.0,102.0
612,126.62373701250002,127.21123642500001,66.0,92.0
613,126.62373701250002,127.2271455,59.0,83.0
614,126.62373701250002,127.24191821250001,63.0,102.0
615,127.16919101250001,127.70669047500002,54.0,74.0
616,127.44191801250001,128.06805375000002,59.0,74.0
617,127.44191801250001,128.0998719,66.0,81.0
618,127.44191801250001,128.111235525,63.0,97.0
619,127.9873720125,128.27941717500002,54.0,89.0
620,126.62373701250002,128.3271444,47.0,70.0
621,128.2600990125,128.50782603750002,63.0,122.0
622,128.2600990125,128.51805330000002,66.0,100.0
623,128.5328260125,128.6987349375,59.0,57.0
624,128.8055530125,129.41805240000002,59.0,86.0
625,128.8055530125,129.43396147500002,68.0,92.0
626,128.8055530125,129.4532796375,64.0,88.0
627,129.62373401250002,130.21350615,59.0,88.0
628,129.62373401250002,130.22259705000002,68.0,90.0
629,129.62373401250002,130.243051575,64.0,88.0
630,128.8055530125,130.50668767500002,40.0,73.0
631,129.35100701250002,130.565778525,47.0,44.0
632,130.4419150125,130.697596575,64.0,96.0
633,130.4419150125,130.6987329375,68.0,95.0
634,130.1691880125,130.93168725,52.0,90.0
635,130.7146420125,131.04077805,59.0,97.0
636,130.9873690125,131.61577747500002,64.0,82.0
637,130.9873690125,131.63850472500002,61.0,112.0
638,131.53282301250002,132.01009526250002,52.0,65.0
639,131.80555001250002,132.3919130625,64.0,85.0
640,131.80555001250002,132.3964585125,57.0,97.0
641,131.80555001250002,132.41350395,61.0,99.0
642,130.9873690125,132.6453219,45.0,71.0
643,132.3510040125,132.66804915,52.0,72.0
644,132.6237310125,132.997594275,64.0,93.0
645,132.6237310125,133.04304877500002,61.0,127.0
646,133.1691850125,133.4907756,61.0,89.0
647,133.1691850125,133.779411675,57.0,89.0
648,133.71463901250002,134.27600208750002,54.0,85.0
649,133.98736601250002,134.3578201875,61.0,89.0
650,133.98736601250002,134.3669110875,66.0,88.0
651,133.98736601250002,134.379411075,57.0,83.0
652,134.5328200125,134.73736526250002,54.0,23.0
653,134.5328200125,134.8010015625,61.0,97.0
654,134.5328200125,134.8850923875,66.0,93.0
655,133.1691850125,134.956683225,42.0,82.0
656,134.5328200125,134.97031957500002,57.0,85.0
657,134.8055470125,135.24077385,54.0,82.0
658,135.3510010125,135.94759132500002,60.0,89.0
659,135.3510010125,135.94759132500002,63.0,100.0
660,135.3510010125,135.9600913125,56.0,92.0
661,136.16918201250002,136.5555452625,63.0,99.0
662,136.16918201250002,136.5623634375,60.0,102.0
663,136.16918201250002,136.5782725125,56.0,95.0
664,135.8964550125,136.8237268125,51.0,67.0
665,136.71463601250002,137.07031747500002,60.0,97.0
666,135.3510010125,137.09190836250002,44.0,83.0
667,136.71463601250002,137.10781743750002,63.0,93.0
668,136.71463601250002,137.27486272500002,56.0,86.0
669,136.9873630125,137.35781718750002,51.0,93.0
670,137.5328170125,138.02940742500002,51.0,90.0
671,137.5328170125,138.05781648750002,60.0,99.0
672,137.5328170125,138.1169073375,63.0,102.0
673,137.5328170125,138.1453164,56.0,100.0
674,138.0782710125,138.52372511250002,51.0,68.0
675,138.3509980125,138.7146340125,60.0,100.0
676,138.3509980125,138.720315825,63.0,99.0
677,138.3509980125,138.73508853750002,56.0,97.0
678,138.62372501250002,139.0100882625,51.0,44.0
679,137.5328170125,139.04077005000002,44.0,100.0
680,138.89645201250002,139.28508798750002,60.0,92.0
681,138.89645201250002,139.2998607,56.0,92.0
682,138.89645201250002,139.4555423625,63.0,89.0
683,139.16917901250002,139.5646331625,51.0,82.0
684,139.16917901250002,139.5805422375,44.0,96.0
685,139.4419060125,139.5919058625,56.0,90.0
686,139.7146330125,141.26122237500002,60.0,97.0
687,139.7146330125,141.28622235,44.0,95.0
688,139.7146330125,141.2919041625,56.0,96.0
689,139.7146330125,141.302131425,51.0,92.0
690,139.7146330125,141.31804050000002,63.0,93.0
691,141.8964490125,142.33394857500002,56.0,68.0
692,141.8964490125,142.45099391250002,64.0,86.0
693,141.8964490125,142.470312075,68.0,97.0
694,141.8964490125,142.474857525,61.0,97.0
695,142.7146300125,142.8259935375,64.0,89.0
696,142.4419030125,142.84531170000002,56.0,51.0
697,142.7146300125,143.08962963750002,68.0,102.0
698,142.7146300125,143.0964478125,61.0,96.0
699,142.9873570125,143.3578111875,56.0,47.0
700,143.26008401250002,143.53167465,64.0,96.0
701,141.8964490125,143.53394737500003,49.0,66.0
702,143.26008401250002,143.5634928,68.0,112.0
703,143.53281101250002,143.6146291125,56.0,99.0
704,143.26008401250002,143.624856375,61.0,99.0
705,144.0782650125,144.683946225,57.0,92.0
706,144.0782650125,144.6919007625,64.0,86.0
707,144.0782650125,144.697582575,61.0,96.0
708,144.6237190125,145.06576402500002,52.0,48.0
709,144.8964460125,145.2396274875,57.0,86.0
710,144.8964460125,145.247582025,64.0,86.0
711,144.8964460125,145.2634911,61.0,97.0
712,145.1691730125,145.583945325,52.0,37.0
713,145.4419000125,145.84871778750002,61.0,107.0
714,145.4419000125,145.8623541375,64.0,88.0
715,145.4419000125,145.87030867500002,57.0,88.0
716,145.98735401250002,146.05439940000002,64.0,57.0
717,144.0782650125,146.0555357625,45.0,68.0
718,145.98735401250002,146.129399325,57.0,76.0
719,145.98735401250002,146.188490175,61.0,86.0
720,145.71462701250002,146.26462646250002,52.0,61.0
721,146.26008101250002,146.8828076625,59.0,76.0
722,146.26008101250002,146.883944025,66.0,95.0
723,146.26008101250002,146.9009894625,63.0,102.0
724,146.8055350125,147.27598908750002,54.0,59.0
725,147.0782620125,147.465761625,59.0,85.0
726,147.0782620125,147.4725798,66.0,102.0
727,147.0782620125,147.47712525,63.0,122.0
728,146.26008101250002,147.93053388750002,47.0,72.0
729,147.89644301250001,147.979397475,54.0,71.0
730,147.6237160125,148.0214428875,63.0,107.0
731,147.6237160125,148.03167015000002,59.0,78.0
732,147.6237160125,148.04189741250002,66.0,102.0
733,148.16917001250002,148.2509881125,66.0,88.0
734,148.16917001250002,148.29189716250002,63.0,112.0
735,148.16917001250002,148.3009880625,59.0,86.0
736,148.44189701250002,149.04757822500002,59.0,86.0
737,148.44189701250002,149.0555327625,68.0,97.0
738,148.44189701250002,149.0623509375,64.0,92.0
739,148.9873510125,149.42371421250002,47.0,42.0
740,149.2600780125,149.66348670000002,59.0,90.0
741,149.2600780125,149.6646230625,68.0,97.0
742,149.2600780125,149.67371396250002,64.0,97.0
743,148.44189701250002,150.08053173750002,40.0,69.0
744,149.8055320125,150.15098621250002,64.0,89.0
745,150.0782590125,150.16348620000002,47.0,82.0
746,149.8055320125,150.17939527500002,68.0,93.0
747,149.8055320125,150.39530415000002,59.0,81.0
748,150.62371301250002,151.2214396875,64.0,79.0
749,150.62371301250002,151.2418942125,57.0,90.0
750,150.62371301250002,151.25780328750002,61.0,99.0
751,151.16916701250003,151.6259847375,52.0,53.0
752,151.4418940125,151.81689363750002,64.0,82.0
753,151.4418940125,151.8271209,57.0,86.0
754,151.4418940125,151.83166635,61.0,99.0
755,151.9873480125,152.31121132500002,61.0,122.0
756,150.62371301250002,152.3259840375,45.0,72.0
757,151.9873480125,152.3259840375,64.0,93.0
758,152.2600750125,152.35666582500002,52.0,75.0
759,151.9873480125,152.37257490000002,57.0,92.0
760,152.80552901250002,153.40098296250002,61.0,100.0
761,152.80552901250002,153.402119325,66.0,95.0
762,152.80552901250002,153.4032556875,57.0,96.0
763,153.6237100125,153.970300575,61.0,102.0
764,153.6237100125,153.9759823875,57.0,88.0
765,153.6237100125,153.98280056250002,66.0,99.0
766,153.35098301250002,154.27825481250002,54.0,74.0
767,154.1691640125,154.4464364625,61.0,112.0
768,154.1691640125,154.4634819,66.0,97.0
769,152.80552901250002,154.54075455,42.0,81.0
770,154.1691640125,154.63848172500002,57.0,90.0
771,154.4418910125,154.89870873750002,54.0,89.0
772,154.98734501250001,155.61575347500002,63.0,97.0
773,154.98734501250001,155.62598073750002,60.0,97.0
774,154.98734501250001,155.63279891250002,56.0,90.0
775,155.80552601250002,155.956662225,60.0,96.0
776,155.80552601250002,156.2305255875,63.0,90.0
777,155.80552601250002,156.2418892125,56.0,93.0
778,156.3509800125,156.802115925,63.0,102.0
779,156.6237070125,156.929388525,54.0,86.0
780,156.3509800125,156.979388475,56.0,100.0
781,154.98734501250001,157.0191611625,44.0,72.0
782,157.1691610125,157.6577968875,54.0,73.0
783,157.1691610125,157.779387675,56.0,99.0
784,157.1691610125,157.78052403750002,63.0,96.0
785,157.71461501250002,158.056660125,54.0,72.0
786,157.98734201250002,158.32484167500002,60.0,97.0
787,157.98734201250002,158.34984165,63.0,96.0
788,157.98734201250002,158.352114375,56.0,97.0
789,158.26006901250003,158.6964322125,54.0,76.0
790,157.1691610125,158.72029582500002,44.0,86.0
791,158.5327960125,158.8168866375,60.0,102.0
792,158.5327960125,158.83052298750002,56.0,97.0
793,158.5327960125,158.8737047625,63.0,99.0
794,158.8055230125,158.89870473750003,44.0,35.0
795,158.8055230125,158.95893195000002,54.0,102.0
796,159.3509770125,159.811203825,64.0,96.0
797,159.3509770125,159.92597643750003,68.0,102.0
798,159.3509770125,159.95893095000002,61.0,107.0
799,160.16915801250002,160.2623397375,64.0,89.0
800,160.16915801250002,160.5168849375,68.0,96.0
801,160.16915801250002,160.5259758375,61.0,95.0
802,159.89643101250002,160.8668845875,56.0,55.0
803,160.71461201250003,160.9896117375,64.0,96.0
804,160.71461201250003,161.0214298875,68.0,117.0
805,159.3509770125,161.03052078750002,49.0,92.0
806,160.71461201250003,161.07483892500002,61.0,99.0
807,160.9873390125,161.07711165,56.0,100.0
808,161.5327930125,162.120292425,64.0,86.0
809,161.5327930125,162.12483787500003,57.0,100.0
810,161.5327930125,162.143019675,61.0,100.0
811,162.35097401250002,162.688473675,57.0,86.0
812,162.35097401250002,162.6941554875,64.0,83.0
813,162.35097401250002,162.6987009375,61.0,97.0
814,162.07824701250001,163.01688243750002,52.0,55.0
815,162.89642801250002,163.30779123750003,64.0,88.0
816,162.89642801250002,163.31120032500002,61.0,107.0
817,162.89642801250002,163.32824576250002,57.0,88.0
818,161.5327930125,163.48506378750002,45.0,70.0
819,163.4418820125,163.53960918750002,64.0,69.0
820,163.4418820125,163.60210912500003,57.0,81.0
821,163.4418820125,163.620290925,61.0,96.0
822,163.1691550125,163.7373362625,52.0,61.0
823,163.7146090125,164.3032447875,66.0,102.0
824,163.7146090125,164.31119932500002,63.0,112.0
825,163.7146090125,164.31688113750002,59.0,81.0
826,164.53279001250002,164.9032441875,59.0,81.0
827,164.53279001250002,164.90438055,66.0,112.0
828,164.53279001250002,164.91119872500002,63.0,122.0
829,164.2600630125,165.21347115,54.0,53.0
830,165.07824401250002,165.397561875,63.0,127.0
831,163.7146090125,165.40097096250003,47.0,70.0
832,165.07824401250002,165.40551641250002,66.0,117.0
833,165.35097101250003,165.41233458750003,54.0,89.0
834,165.07824401250002,165.51687993750002,59.0,78.0
835,165.8964250125,166.51574257500002,52.0,93.0
836,165.8964250125,166.52142438750002,56.0,97.0
837,165.8964250125,166.54301527500002,59.0,92.0
838,166.4418790125,166.818015,47.0,75.0
839,166.7146060125,167.08165110000002,52.0,85.0
840,166.7146060125,167.12028742500001,59.0,89.0
841,166.7146060125,167.124832875,56.0,96.0
842,167.26006001250002,167.51119612500003,52.0,85.0
843,167.26006001250002,167.52142338750002,56.0,97.0
844,167.26006001250002,167.533923375,59.0,89.0
845,165.8964250125,167.56005971250002,40.0,68.0
846,167.53278701250002,167.62255965,47.0,69.0
847,168.0782410125,168.6736949625,57.0,93.0
848,168.0782410125,168.68846767500003,64.0,89.0
849,168.0782410125,168.6964222125,61.0,107.0
850,168.6236950125,169.07142183750003,52.0,47.0
851,168.8964220125,169.24869438750002,57.0,92.0
852,168.8964220125,169.24983075,64.0,90.0
853,168.8964220125,169.26914891250001,61.0,112.0
854,169.16914901250001,169.483921425,52.0,25.0
855,169.71460301250002,169.80778473750001,52.0,68.0
856,169.44187601250002,169.8123301875,61.0,127.0
857,168.0782410125,169.81914836250002,45.0,70.0
858,169.44187601250002,169.81914836250002,57.0,92.0
859,169.44187601250002,169.82596653750002,64.0,93.0
860,169.98733001250002,170.13732986250002,57.0,86.0
861,170.26005701250003,170.84301097500003,57.0,92.0
862,170.26005701250003,170.84301097500003,61.0,112.0
863,170.26005701250003,170.85778368750002,66.0,96.0
864,170.8055110125,171.11914706250002,54.0,92.0
865,171.0782380125,171.42596493750003,61.0,117.0
866,171.0782380125,171.4271013,57.0,95.0
867,171.0782380125,171.43164675000003,66.0,99.0
868,171.62369201250002,171.92937352500002,61.0,117.0
869,171.62369201250002,171.9486916875,66.0,99.0
870,170.26005701250003,171.9986916375,42.0,93.0
871,171.62369201250002,172.10437335,57.0,96.0
872,171.89641901250002,172.2998277,54.0,86.0
873,172.44187301250003,173.0168724375,63.0,100.0
874,172.44187301250003,173.0259633375,60.0,107.0
875,172.44187301250003,173.04528150000002,56.0,102.0
876,173.2600540125,173.61232638750002,60.0,99.0
877,173.2600540125,173.6145991125,63.0,90.0
878,173.2600540125,173.6259627375,56.0,95.0
879,172.44187301250003,173.95891695,44.0,95.0
880,173.8055080125,174.0418714125,60.0,97.0
881,173.8055080125,174.07368956250002,56.0,90.0
882,173.8055080125,174.1089168,63.0,92.0
883,174.07823501250002,174.4941436875,44.0,79.0
884,174.62368901250002,175.28959743750002,64.0,92.0
885,174.62368901250002,175.3145974125,68.0,95.0
886,174.62368901250002,175.37823371250002,61.0,96.0
887,175.4418700125,175.5532335375,61.0,63.0
888,175.4418700125,175.56686988750002,64.0,74.0
889,174.62368901250002,176.0486875875,49.0,107.0
890,175.4418700125,176.274823725,68.0,99.0
891,176.2600510125,176.31118732500002,61.0,74.0
892,175.7145970125,176.343005475,64.0,50.0
893,177.35095901250003,177.6805041375,73.0,63.0
894,177.07823201250002,177.7236859125,68.0,85.0
895,178.1691400125,178.48618515,68.0,77.0
896,176.80550501250002,178.506639675,61.0,96.0
897,178.4418670125,178.92709380000002,73.0,83.0
898,177.6236860125,178.983911925,76.0,76.0
899,178.71459401250002,178.9907301,68.0,61.0
900,179.53277501250003,179.81572927500002,69.0,63.0
901,179.26004801250002,180.13277441250003,64.0,76.0
902,180.3509560125,180.511183125,64.0,62.0
903,180.0782290125,180.62481937500002,73.0,93.0
904,178.98732101250002,180.63277391250003,57.0,73.0
905,180.8964100125,181.08618255000002,73.0,102.0
906,179.80550201250003,181.09754617500002,76.0,107.0
907,180.6236830125,181.11345525000002,69.0,92.0
908,181.16913701250002,181.79186366250002,59.0,76.0
909,181.16913701250002,181.79300002500003,66.0,95.0
910,181.16913701250002,181.81004546250003,63.0,102.0
911,181.71459101250002,182.18504508750001,54.0,59.0
912,181.98731801250003,182.37481762500002,59.0,85.0
913,181.98731801250003,182.38163580000003,66.0,102.0
914,181.98731801250003,182.38618125000002,63.0,122.0
915,181.16913701250002,182.8395898875,47.0,72.0
916,182.8054990125,182.888453475,54.0,71.0
917,182.5327720125,182.93049888750002,63.0,107.0
918,182.5327720125,182.94072615000002,59.0,78.0
919,182.5327720125,182.9509534125,66.0,102.0
920,183.0782260125,183.1600441125,66.0,88.0
921,183.0782260125,183.2009531625,63.0,112.0
922,183.0782260125,183.2100440625,59.0,86.0
923,183.3509530125,183.95663422500002,59.0,86.0
924,183.3509530125,183.96458876250003,68.0,97.0
925,183.3509530125,183.9714069375,64.0,92.0
926,183.89640701250002,184.3327702125,47.0,42.0
927,184.16913401250002,184.5725427,59.0,90.0
928,184.16913401250002,184.57367906250002,68.0,97.0
929,184.16913401250002,184.5827699625,64.0,97.0
930,183.3509530125,184.98958773750002,40.0,69.0
931,184.7145880125,185.0600422125,64.0,89.0
932,184.9873150125,185.07254220000002,47.0,82.0
933,184.7145880125,185.088451275,68.0,93.0
934,184.7145880125,185.30436015,59.0,81.0
935,185.5327690125,186.1304956875,64.0,79.0
936,185.5327690125,186.15095021250002,57.0,90.0
937,185.5327690125,186.16685928750002,61.0,99.0
938,186.07822301250002,186.53504073750003,52.0,53.0
939,186.35095001250002,186.7259496375,64.0,82.0
940,186.35095001250002,186.7361769,57.0,86.0
941,186.35095001250002,186.74072235000003,61.0,99.0
942,186.89640401250003,187.220267325,61.0,122.0
943,185.5327690125,187.23504003750003,45.0,72.0
944,186.89640401250003,187.23504003750003,64.0,93.0
945,187.1691310125,187.265721825,52.0,75.0
946,186.89640401250003,187.2816309,57.0,92.0
947,187.7145850125,188.31003896250002,61.0,100.0
948,187.7145850125,188.31117532500002,66.0,95.0
949,187.7145850125,188.31231168750003,57.0,96.0
950,188.53276601250002,188.879356575,61.0,102.0
951,188.53276601250002,188.8850383875,57.0,88.0
952,188.53276601250002,188.8918565625,66.0,99.0
953,188.26003901250002,189.18731081250002,54.0,74.0
954,189.07822001250003,189.35549246250002,61.0,112.0
955,189.07822001250003,189.37253790000003,66.0,97.0
956,187.7145850125,189.44981055000002,42.0,81.0
957,189.07822001250003,189.547537725,57.0,90.0
958,189.3509470125,189.8077647375,54.0,89.0
959,189.8964010125,190.524809475,63.0,97.0
960,189.8964010125,190.5350367375,60.0,97.0
961,189.8964010125,190.5418549125,56.0,90.0
962,190.71458201250002,190.86571822500002,60.0,96.0
963,190.71458201250002,191.1395815875,63.0,90.0
964,190.71458201250002,191.1509452125,56.0,93.0
965,191.26003601250002,191.711171925,63.0,102.0
966,191.53276301250003,191.83844452500003,54.0,86.0
967,191.26003601250002,191.88844447500003,56.0,100.0
968,189.8964010125,191.9282171625,44.0,72.0
969,192.0782170125,192.5668528875,54.0,73.0
970,192.0782170125,192.688443675,56.0,99.0
971,192.0782170125,192.6895800375,63.0,96.0
972,192.6236710125,192.96571612500003,54.0,72.0
973,192.89639801250001,193.233897675,60.0,97.0
974,192.89639801250001,193.25889765000002,63.0,96.0
975,192.89639801250001,193.261170375,56.0,97.0
976,193.16912501250002,193.6054882125,54.0,76.0
977,192.0782170125,193.62935182500001,44.0,86.0
978,193.44185201250002,193.72594263750003,60.0,102.0
979,193.44185201250002,193.7395789875,56.0,97.0
980,193.44185201250002,193.7827607625,63.0,99.0
981,193.71457901250002,193.80776073750002,44.0,35.0
982,193.71457901250002,193.86798795,54.0,102.0
983,194.2600330125,194.72025982500003,64.0,96.0
984,194.2600330125,194.83503243750002,68.0,102.0
985,194.2600330125,194.86798695000002,61.0,107.0
986,195.0782140125,195.1713957375,64.0,89.0
987,195.0782140125,195.4259409375,68.0,96.0
988,195.0782140125,195.43503183750002,61.0,95.0
989,194.8054870125,195.7759405875,56.0,55.0
990,195.62366801250002,195.8986677375,64.0,96.0
991,195.62366801250002,195.93048588750003,68.0,117.0
992,194.2600330125,195.93957678750002,49.0,92.0
993,195.62366801250002,195.98389492500002,61.0,99.0
994,195.89639501250002,195.98616765000003,56.0,100.0
995,196.44184901250003,197.02934842500002,64.0,86.0
996,196.44184901250003,197.03389387500002,57.0,100.0
997,196.44184901250003,197.05207567500003,61.0,100.0
998,197.2600300125,197.597529675,57.0,86.0
999,197.2600300125,197.6032114875,64.0,83.0
1000,197.2600300125,197.60775693750003,61.0,97.0
1001,196.9873030125,197.9259384375,52.0,55.0
1002,197.80548401250002,198.21684723750002,64.0,88.0
1003,197.80548401250002,198.220256325,61.0,107.0
1004,197.80548401250002,198.2373017625,57.0,88.0
1005,196.44184901250003,198.39411978750002,45.0,70.0
1006,198.35093801250002,198.4486651875,64.0,69.0
1007,198.35093801250002,198.51116512500002,57.0,81.0
1008,198.35093801250002,198.52934692500003,61.0,96.0
1009,198.07821101250002,198.64639226250003,52.0,61.0
1010,198.62366501250003,199.21230078750003,66.0,102.0
1011,198.62366501250003,199.220255325,63.0,112.0
1012,198.62366501250003,199.2259371375,59.0,81.0
1013,199.4418460125,199.81230018750003,59.0,81.0
1014,199.4418460125,199.81343655,66.0,112.0
1015,199.4418460125,199.820254725,63.0,122.0
1016,199.1691190125,200.12252715000002,54.0,53.0
1017,199.98730001250001,200.30661787500003,63.0,127.0
1018,198.62366501250003,200.31002696250002,47.0,70.0
1019,199.98730001250001,200.3145724125,66.0,117.0
1020,200.26002701250002,200.32139058750002,54.0,89.0
1021,199.98730001250001,200.42593593750001,59.0,78.0
1022,200.80548101250002,201.424798575,52.0,93.0
1023,200.80548101250002,201.4304803875,56.0,97.0
1024,200.80548101250002,201.452071275,59.0,92.0
1025,201.3509350125,201.72707100000002,47.0,75.0
1026,201.6236620125,201.9907071,52.0,85.0
1027,201.6236620125,202.029343425,59.0,89.0
1028,201.6236620125,202.033888875,56.0,96.0
1029,202.1691160125,202.42025212500002,52.0,85.0
1030,202.1691160125,202.43047938750001,56.0,97.0
1031,202.1691160125,202.44297937500002,59.0,89.0
1032,200.80548101250002,202.4691157125,40.0,68.0
1033,202.44184301250002,202.53161565000002,47.0,69.0
1034,202.98729701250002,203.58275096250003,57.0,93.0
1035,202.98729701250002,203.59752367500002,64.0,89.0
1036,202.98729701250002,203.6054782125,61.0,107.0
1037,203.53275101250003,203.98047783750002,52.0,47.0
1038,203.8054780125,204.15775038750002,57.0,92.0
1039,203.8054780125,204.15888675000002,64.0,90.0
1040,203.8054780125,204.1782049125,61.0,112.0
1041,204.0782050125,204.39297742500003,52.0,25.0
1042,204.6236590125,204.7168407375,52.0,68.0
1043,204.3509320125,204.7213861875,61.0,127.0
1044,202.98729701250002,204.7282043625,45.0,70.0
1045,204.3509320125,204.7282043625,57.0,92.0
1046,204.3509320125,204.73502253750002,64.0,93.0
1047,204.89638601250002,205.04638586250002,57.0,86.0
1048,205.16911301250002,205.75206697500002,57.0,92.0
1049,205.16911301250002,205.75206697500002,61.0,112.0
1050,205.16911301250002,205.7668396875,66.0,96.0
1051,205.71456701250003,206.0282030625,54.0,92.0
1052,205.98729401250003,206.33502093750002,61.0,117.0
1053,205.98729401250003,206.33615730000002,57.0,95.0
1054,205.98729401250003,206.34070275000002,66.0,99.0
1055,206.5327480125,206.838429525,61.0,117.0
1056,206.5327480125,206.85774768750002,66.0,99.0
1057,205.16911301250002,206.90774763750002,42.0,93.0
1058,206.5327480125,207.01342935000002,57.0,96.0
1059,206.8054750125,207.20888370000003,54.0,86.0
1060,207.35092901250002,207.9259284375,63.0,100.0
1061,207.35092901250002,207.93501933750002,60.0,107.0
1062,207.35092901250002,207.9543375,56.0,102.0
1063,208.16911001250003,208.5213823875,60.0,99.0
1064,208.16911001250003,208.52365511250002,63.0,90.0
1065,208.16911001250003,208.53501873750002,56.0,95.0
1066,207.35092901250002,208.86797295000002,44.0,95.0
1067,208.7145640125,208.95092741250002,60.0,97.0
1068,208.7145640125,208.9827455625,56.0,90.0
1069,208.7145640125,209.01797280000002,63.0,92.0
1070,208.9872910125,209.4031996875,44.0,79.0
1071,209.53274501250002,209.96115367500002,64.0,89.0
1072,209.53274501250002,210.15092621250002,68.0,97.0
1073,209.53274501250002,210.2088807,61.0,96.0
1074,210.07819901250002,210.51228948750003,56.0,31.0
1075,210.35092601250003,210.89865273750002,61.0,92.0
1076,210.8963800125,211.07365256250003,56.0,60.0
1077,210.35092601250003,211.09978890000002,64.0,90.0
1078,209.53274501250002,211.1304706875,49.0,93.0
1079,210.35092601250003,211.16797065000003,68.0,100.0
1080,211.1691070125,211.25547056250002,61.0,127.0
1081,211.7145610125,212.35546946250003,57.0,100.0
1082,211.7145610125,212.406605775,64.0,90.0
1083,211.7145610125,212.41683303750003,61.0,100.0
1084,212.53274201250002,213.21683223750003,64.0,79.0
1085,211.7145610125,213.22705950000002,45.0,72.0
1086,212.53274201250002,213.23160495000002,61.0,97.0
1087,212.53274201250002,213.23274131250002,57.0,79.0
1088,212.26001501250002,213.256604925,52.0,40.0
1089,213.3509230125,213.47819561250003,64.0,69.0
1090,213.3509230125,213.4906956,57.0,63.0
1091,213.3509230125,213.5906955,61.0,92.0
1092,213.8963770125,214.55546726250003,59.0,83.0
1093,213.8963770125,214.56569452500003,66.0,100.0
1094,213.8963770125,214.58842177500003,63.0,102.0
1095,214.71455801250002,215.39183006250002,59.0,70.0
1096,214.44183101250002,215.50773903750002,54.0,40.0
1097,213.8963770125,215.5850116875,47.0,68.0
1098,214.71455801250002,215.638420725,63.0,100.0
1099,214.71455801250002,215.64296617500003,66.0,93.0
1100,215.53273901250003,215.90319318750002,59.0,99.0
1101,216.0781930125,216.67478332500002,68.0,97.0
1102,216.0781930125,216.67932877500002,64.0,95.0
1103,216.0781930125,216.72364691250002,59.0,99.0
1104,216.89637401250002,217.0054648125,59.0,32.0
1105,216.0781930125,217.50091886250001,40.0,73.0
1106,216.62364701250002,217.55205517500002,47.0,50.0
1107,216.89637401250002,217.6895550375,64.0,31.0
1108,216.89637401250002,217.738418625,68.0,127.0
1109,217.71455501250003,218.07932737500002,59.0,102.0
1110,218.2600090125,218.90432655,64.0,82.0
1111,218.2600090125,218.9100083625,57.0,96.0
1112,218.2600090125,218.9554628625,61.0,99.0
1113,218.8054630125,219.50773503750003,52.0,56.0
1114,218.2600090125,219.5543259,45.0,71.0
1115,219.07819001250002,219.89978010000002,64.0,83.0
1116,219.07819001250002,219.908871,61.0,100.0
1117,219.89637101250003,220.28841607500001,57.0,99.0
1118,220.4418250125,221.0872789125,57.0,95.0
1119,220.4418250125,221.08955163750002,61.0,100.0
1120,220.9872790125,221.62705110000002,54.0,58.0
1121,221.2600060125,221.92705080000002,61.0,96.0
1122,221.2600060125,221.9372780625,57.0,82.0
1123,221.2600060125,221.95432350000002,66.0,86.0
1124,220.4418250125,222.1259142375,42.0,89.0
1125,221.80546001250002,222.1361415,54.0,63.0
1126,222.07818701250002,222.252050475,57.0,86.0
1127,222.62364101250003,223.30545851250002,56.0,89.0
1128,222.62364101250003,223.30545851250002,60.0,88.0
1129,222.62364101250003,223.32818576250003,63.0,81.0
1130,223.4418220125,223.86795795,56.0,92.0
1131,223.4418220125,223.874776125,60.0,90.0
1132,223.4418220125,223.87704885000002,63.0,73.0
1133,222.62364101250003,224.16568492500002,44.0,81.0
1134,223.98727601250002,224.18727581250002,60.0,93.0
1135,223.98727601250002,224.2179576,56.0,93.0
1136,223.98727601250002,224.25318483750002,63.0,90.0
1137,224.26000301250002,224.379321075,44.0,66.0
1138,224.80545701250003,227.24068185000002,49.0,92.0
1139,224.80545701250003,227.24295457500003,64.0,93.0
1140,224.80545701250003,227.26340910000002,61.0,99.0
1141,224.80545701250003,227.29295452500003,68.0,95.0
1142,224.80545701250003,227.30999996250003,37.0,112.0
