,start,end,pitch,velocity
0,23.780445000000004,23.957273950000005,80.0,79.0
1,23.963371500000004,24.140200450000005,82.0,86.0
2,24.146298000000005,24.506053450000003,83.0,87.0
3,24.512151000000003,24.688979950000004,82.0,85.0
4,24.695077500000004,25.237759450000006,80.0,91.0
5,25.243857000000006,25.603612450000004,78.0,89.0
6,25.609710000000003,25.969465450000005,75.0,86.0
7,25.975563000000005,26.152391950000005,73.0,92.0
8,26.158489500000005,26.701171450000004,71.0,90.0
9,26.707269000000004,27.067024450000005,70.0,82.0
10,27.073122000000005,27.798730450000004,71.0,106.0
11,27.804828000000004,28.164583450000006,68.0,77.0
12,28.170681000000005,28.347509950000006,78.0,86.0
13,28.353607500000006,29.627995450000004,75.0,93.0
14,29.634093000000004,29.810921950000004,73.0,84.0
15,29.817019500000004,29.993848450000005,71.0,86.0
16,29.999946000000005,30.359701450000006,73.0,91.0
17,30.365799000000006,30.725554450000004,68.0,76.0
18,30.731652000000004,31.457260450000007,76.0,83.0
19,31.463358000000007,31.823113450000005,71.0,89.0
20,31.829211000000004,32.18896645,68.0,78.0
21,32.195064,32.737745950000004,76.0,88.0
22,32.743843500000004,32.920672450000005,71.0,79.0
23,32.926770000000005,33.286525450000006,70.0,87.0
24,33.292623000000006,33.65237845000001,74.0,86.0
25,33.65847600000001,34.01823145000001,75.0,91.0
26,34.02432900000001,34.38408445,77.0,86.0
27,34.390182,35.48164345000001,79.0,85.0
28,35.48774100000001,35.66456995000001,80.0,80.0
29,35.67066750000001,35.84749645000001,82.0,86.0
30,35.85359400000001,36.21334945000001,83.0,88.0
31,36.21944700000001,36.39627595,82.0,85.0
32,36.4023735,36.945055450000005,80.0,89.0
33,36.951153000000005,37.31090845000001,78.0,90.0
34,37.317006000000006,37.67676145000001,75.0,92.0
35,37.68285900000001,37.85968795000001,73.0,88.0
36,37.86578550000001,38.40846745,71.0,92.0
37,38.414565,38.774320450000005,70.0,84.0
38,38.780418000000004,39.50602645000001,71.0,103.0
39,39.51212400000001,39.87187945000001,68.0,84.0
40,39.87797700000001,40.23773245000001,78.0,89.0
41,40.24383000000001,41.33529145000001,75.0,79.0
42,41.34138900000001,41.51821795000001,73.0,95.0
43,41.52431550000001,41.70114445000001,71.0,90.0
44,41.70724200000001,42.06699745000001,73.0,94.0
45,42.07309500000001,42.43285045000001,68.0,77.0
46,42.43894800000001,42.981629950000006,76.0,86.0
47,42.987727500000005,43.164556450000006,73.0,78.0
48,43.170654000000006,43.53040945000001,71.0,86.0
49,43.53650700000001,43.89626245000001,68.0,39.0
50,43.90236000000001,44.44504195000001,76.0,80.0
51,44.45113950000001,44.627968450000004,73.0,89.0
52,44.634066000000004,44.993821450000006,70.0,82.0
53,44.999919000000006,45.35967445000001,67.0,66.0
54,45.36577200000001,45.72552745000001,76.0,58.0
55,45.73162500000001,46.09138045000001,75.0,73.0
56,46.09747800000001,47.55479245000001,68.0,77.0
57,47.56089000000001,47.92064545000001,66.0,91.0
58,47.92674300000001,48.28649845000001,70.0,98.0
59,48.29259600000001,48.835277950000005,80.0,90.0
60,48.841375500000005,49.018204450000006,78.0,84.0
61,49.024302000000006,49.38405745000001,75.0,78.0
62,49.39015500000001,49.56698395000001,75.0,86.0
63,49.57308150000001,50.48161645000001,75.0,90.0
64,50.48771400000001,50.847469450000006,67.0,85.0
65,50.853567000000005,51.21332245000001,70.0,89.0
66,51.21942000000001,51.76210195000001,76.0,86.0
67,51.76819950000001,51.94502845000001,75.0,80.0
68,51.95112600000001,52.31088145000001,73.0,86.0
69,52.31697900000001,52.49380795000001,71.0,87.0
70,52.49990550000001,53.22551395000001,71.0,92.0
71,53.23161150000001,53.40844045000001,71.0,104.0
72,53.41453800000001,53.77429345000001,70.0,93.0
73,53.78039100000001,54.14014645000001,75.0,77.0
74,54.14624400000001,54.68892595000001,80.0,86.0
75,54.69502350000001,54.87185245000001,78.0,85.0
76,54.87795000000001,55.23770545000001,75.0,90.0
77,55.24380300000001,55.42063195000001,75.0,91.0
78,55.42672950000001,55.96941145000001,75.0,90.0
79,55.97550900000001,56.15233795000001,75.0,94.0
80,56.15843550000001,56.33526445000001,75.0,85.0
81,56.34136200000001,56.70111745000001,74.0,92.0
82,56.70721500000001,57.06697045000001,77.0,99.0
83,57.07306800000001,57.61574995000001,83.0,92.0
84,57.62184750000001,57.79867645000001,82.0,90.0
85,57.80477400000001,58.16452945000001,79.0,91.0
86,58.17062700000001,58.53038245000001,79.0,88.0
87,58.53648000000001,58.71330895000001,80.0,91.0
88,58.71940650000001,59.26208845000001,82.0,102.0
89,59.26818600000001,59.73464857500001,83.0,97.0
90,59.63403900000001,59.884038550000014,82.0,86.0
91,59.81696550000001,60.40537907500001,80.0,86.0
92,60.36574500000001,60.79714666250001,78.0,89.0
93,60.73159800000001,61.09287783750001,75.0,86.0
94,61.097451000000014,61.387084625000014,73.0,89.0
95,61.28037750000001,61.74379130000001,71.0,92.0
96,61.82915700000001,62.26665621250001,70.0,94.0
97,62.19501000000001,62.91604528750001,71.0,105.0
98,62.92671600000001,63.316959200000014,68.0,91.0
99,63.292569000000015,63.68128781250001,78.0,85.0
100,63.65842200000001,64.69805427500002,75.0,88.0
101,64.755981,64.91604168750001,73.0,88.0
102,64.93890750000001,65.11726083750001,71.0,90.0
103,65.121834,65.46939435000002,73.0,85.0
104,65.48768700000001,65.88402775000002,68.0,85.0
105,65.85354000000001,66.43433163750001,76.0,85.0
106,66.40231950000002,66.51664856250001,73.0,85.0
107,66.58524600000001,66.90536737500001,71.0,87.0
108,66.95109900000001,67.25902527500001,68.0,81.0
109,67.31695200000001,67.5730491,76.0,83.0
110,67.86573150000001,68.02731657500001,75.0,92.0
111,68.04865800000002,68.259023475,70.0,85.0
112,68.41451100000002,68.69499830000001,67.0,83.0
113,68.780364,69.22091198750002,76.0,84.0
114,69.14621700000001,69.58219182500001,75.0,79.0
115,69.51207000000001,70.70109225000002,68.0,95.0
116,70.60962900000001,70.70109225000002,68.0,91.0
117,70.7925555,70.93737231250002,70.0,86.0
118,70.97548200000001,71.53340782500001,72.0,91.0
119,71.70718800000002,71.99834601250001,72.0,89.0
120,72.07304100000002,72.16907741250002,75.0,86.0
121,72.25596750000001,72.75444221250001,75.0,84.0
122,72.804747,73.15230735000002,75.0,82.0
123,73.17060000000001,73.44041658750001,77.0,86.0
124,73.35352650000002,73.46937995000002,79.0,86.0
125,73.71937950000002,74.10352515000001,80.0,71.0
126,74.26815900000001,74.42974407500002,79.0,87.0
127,74.63401200000001,74.87791400000002,77.0,85.0
128,74.99986500000001,75.326083925,75.0,90.0
129,75.18279150000001,75.76510752500002,72.0,90.0
130,76.46327700000002,76.65839860000001,70.0,95.0
131,76.64620350000001,76.77882521250001,68.0,90.0
132,76.82913,77.39162898750001,73.0,100.0
133,77.37790950000002,77.74986005000001,75.0,95.0
134,77.92668900000001,78.20260313750002,77.0,90.0
135,78.29254200000001,78.71022417500001,75.0,97.0
136,78.84132150000002,79.16754042500001,80.0,90.0
137,79.39010100000002,79.53186903750002,68.0,81.0
138,79.57302750000001,79.70107605000001,70.0,83.0
139,79.75595400000002,80.00900232500001,72.0,91.0
140,80.12180700000002,80.38247726250002,70.0,91.0
141,80.48766000000002,80.68430598750001,68.0,94.0
142,80.85351300000002,81.08217112500002,70.0,91.0
143,81.21936600000001,81.80930396250001,72.0,90.0
144,81.95107200000001,82.45716865000001,70.0,94.0
145,82.31692500000001,82.46326620000002,68.0,84.0
146,82.49985150000002,82.61265617500001,70.0,84.0
147,82.68277800000001,83.19497220000001,72.0,90.0
148,83.41448400000002,83.69344691250001,72.0,86.0
149,83.78033700000002,83.89009290000001,75.0,86.0
150,83.96326350000001,84.33064088750001,75.0,89.0
151,84.69496950000001,84.87789600000002,75.0,86.0
152,84.87789600000002,85.10502973750002,77.0,86.0
153,85.06082250000001,85.18887105000002,79.0,87.0
154,85.42667550000002,85.75594320000002,80.0,95.0
155,85.97545500000001,86.10350355000001,79.0,87.0
156,86.34130800000001,86.46935655000001,77.0,87.0
157,86.70716100000001,86.89008750000002,72.0,87.0
158,86.89008750000002,87.07301400000001,72.0,87.0
159,87.07301400000001,87.25594050000001,84.0,87.0
160,88.17057300000002,88.40532867500002,80.0,94.0
161,88.35349950000001,88.47240172500001,79.0,87.0
162,88.53642600000002,89.26660761250001,80.0,85.0
163,89.45105850000002,89.53489981250002,80.0,93.0
164,89.63398500000001,89.83977731250002,80.0,89.0
165,89.81691150000002,89.91142352500002,79.0,86.0
166,89.99983800000001,90.32605692500002,80.0,87.0
167,91.09739700000002,91.22849432500001,80.0,94.0
168,91.28032350000002,91.38855501250002,79.0,89.0
169,91.46325000000002,91.60654242500001,80.0,102.0
170,91.64617650000001,92.47391891250001,80.0,103.0
171,92.56080900000002,92.84586946250002,80.0,93.0
172,92.92666200000002,93.02574718750002,79.0,89.0
173,93.10958850000002,93.41141722500002,79.0,89.0
174,93.65836800000001,93.87330663750002,80.0,77.0
175,93.84129450000002,94.25135473750002,82.0,89.0
176,94.39007400000001,94.93275595000001,80.0,107.0
177,94.93885350000002,95.48153545000001,79.0,99.0
178,95.48763300000002,95.84738845000001,77.0,97.0
179,95.85348600000002,96.57909445000001,77.0,101.0
180,96.58519200000002,97.12787395000002,75.0,101.0
181,97.13397150000002,97.31080045000002,68.0,83.0
182,97.31689800000002,97.85957995000001,77.0,86.0
183,97.86567750000002,98.40835945000002,75.0,92.0
184,98.41445700000001,98.77421245000002,73.0,106.0
185,98.78031000000001,100.23762445000001,75.0,106.0
186,100.24372200000002,100.78640395000002,76.0,101.0
187,100.79250150000001,101.33518345000002,77.0,96.0
188,101.34128100000002,101.70103645000002,79.0,104.0
189,101.70713400000001,101.88396295000001,79.0,102.0
190,101.89006050000002,102.06688945000002,77.0,95.0
191,102.07298700000001,102.24981595000001,79.0,101.0
192,102.25591350000002,102.98152195000002,80.0,102.0
193,102.98761950000002,103.16444845000002,68.0,88.0
194,103.17054600000002,103.71322795000002,77.0,89.0
195,103.71932550000002,104.26200745000001,79.0,88.0
196,104.26810500000002,104.62786045000001,80.0,93.0
197,104.63395800000002,104.99371345000002,79.0,92.0
198,104.99981100000002,105.17663995000002,79.0,101.0
199,105.18273750000002,105.35956645000002,79.0,102.0
200,105.36566400000002,105.54249295000002,80.0,102.0
201,105.54859050000002,106.09127245000002,82.0,100.0
202,106.09737000000001,106.64005195000001,80.0,107.0
203,106.64614950000002,107.18883145000002,79.0,99.0
204,107.19492900000002,107.55468445000002,77.0,97.0
205,107.56078200000002,108.28639045000001,77.0,101.0
206,108.29248800000002,108.83516995000002,75.0,101.0
207,108.84126750000001,109.01809645000002,68.0,83.0
208,109.02419400000002,109.56687595000002,77.0,86.0
209,109.57297350000002,110.11565545000002,75.0,92.0
210,110.12175300000001,110.48150845000002,73.0,106.0
211,110.48760600000001,111.94492045000003,75.0,106.0
212,111.95101800000002,112.49369995000002,76.0,101.0
213,112.49979750000001,113.04247945000002,77.0,96.0
214,113.04857700000002,113.40833245000002,79.0,104.0
215,113.41443000000002,113.59125895000003,79.0,102.0
216,113.59735650000002,113.77418545000002,77.0,95.0
217,113.78028300000003,113.95711195000003,79.0,101.0
218,113.96320950000002,114.68881795000001,80.0,102.0
219,114.69491550000002,114.87174445000002,68.0,88.0
220,114.87784200000002,115.42052395000002,77.0,89.0
221,115.42662150000002,115.96930345000003,79.0,88.0
222,115.97540100000002,116.33515645000001,80.0,93.0
223,116.34125400000002,116.70100945000002,79.0,92.0
224,116.70710700000002,116.88393595000002,79.0,101.0
225,116.89003350000002,117.06686245000002,79.0,102.0
226,117.07296000000002,117.24978895000002,80.0,102.0
227,117.25588650000002,117.79856845000002,82.0,100.0
228,117.80466600000003,120.02722297500002,80.0,111.0
229,152.56070100000002,152.73752995000004,80.0,79.0
230,152.74362750000003,152.92045645000002,82.0,86.0
231,152.92655400000004,153.28630945000003,83.0,87.0
232,153.29240700000003,153.46923595000004,82.0,85.0
233,153.47533350000003,154.01801545000004,80.0,91.0
234,154.02411300000003,154.38386845000002,78.0,89.0
235,154.38996600000002,154.74972145000004,75.0,86.0
236,154.75581900000003,154.93264795000002,73.0,92.0
237,154.93874550000004,155.48142745000004,71.0,90.0
238,155.48752500000003,155.84728045000003,70.0,82.0
239,155.85337800000002,156.57898645000003,71.0,106.0
240,156.58508400000002,156.94483945000002,68.0,77.0
241,156.95093700000004,157.12776595000003,78.0,86.0
242,157.13386350000002,158.40825145000002,75.0,93.0
243,158.41434900000002,158.59117795000003,73.0,84.0
244,158.59727550000002,158.77410445000004,71.0,86.0
245,158.78020200000003,159.13995745000003,73.0,91.0
246,159.14605500000002,159.50581045000004,68.0,76.0
247,159.51190800000003,160.23751645000002,76.0,83.0
248,160.24361400000004,160.60336945000003,71.0,89.0
249,160.60946700000002,160.96922245000002,68.0,78.0
250,160.97532000000004,161.51800195000004,76.0,88.0
251,161.52409950000003,161.70092845000002,71.0,79.0
252,161.70702600000004,162.06678145000004,70.0,87.0
253,162.07287900000003,162.43263445000002,74.0,86.0
254,162.43873200000002,162.79848745000004,75.0,91.0
255,162.80458500000003,163.16434045000003,77.0,86.0
256,163.17043800000002,164.26189945000002,79.0,85.0
257,164.26799700000004,164.44482595000002,80.0,80.0
258,164.45092350000002,164.62775245000003,82.0,86.0
259,164.63385000000002,164.99360545000002,83.0,88.0
260,164.99970300000004,165.17653195000003,82.0,85.0
261,165.18262950000002,165.72531145000002,80.0,89.0
262,165.73140900000004,166.09116445000004,78.0,90.0
263,166.09726200000003,166.45701745000002,75.0,92.0
264,166.46311500000002,166.63994395000003,73.0,88.0
265,166.64604150000002,167.18872345000003,71.0,92.0
266,167.19482100000002,167.55457645000004,70.0,84.0
267,167.56067400000003,168.28628245000002,71.0,103.0
268,168.29238000000004,168.65213545000003,68.0,84.0
269,168.65823300000002,169.01798845000002,78.0,89.0
270,169.02408600000004,170.11554745000004,75.0,79.0
271,170.12164500000003,170.29847395000002,73.0,95.0
272,170.30457150000004,170.48140045000002,71.0,90.0
273,170.48749800000002,170.84725345000004,73.0,94.0
274,170.85335100000003,171.21310645000003,68.0,77.0
275,171.21920400000002,171.76188595000002,76.0,86.0
276,171.76798350000004,171.94481245000003,73.0,78.0
277,171.95091000000002,172.31066545000002,71.0,86.0
278,172.31676300000004,172.67651845000003,68.0,39.0
279,172.68261600000002,173.22529795000003,76.0,80.0
280,173.23139550000002,173.40822445000003,73.0,89.0
281,173.41432200000003,173.77407745000002,70.0,82.0
282,173.78017500000004,174.13993045000004,67.0,66.0
283,174.14602800000003,174.50578345000002,76.0,58.0
284,174.51188100000002,174.87163645000004,75.0,73.0
285,174.87773400000003,176.33504845000004,68.0,77.0
286,176.34114600000004,176.70090145000003,66.0,91.0
287,176.70699900000002,177.06675445000002,70.0,98.0
288,177.07285200000004,177.61553395000004,80.0,90.0
289,177.62163150000003,177.79846045000002,78.0,84.0
290,177.80455800000004,178.16431345000004,75.0,78.0
291,178.17041100000003,178.34723995000004,75.0,86.0
292,178.35333750000004,179.26187245000003,75.0,90.0
293,179.26797000000002,179.62772545000004,67.0,85.0
294,179.63382300000004,179.99357845000003,70.0,89.0
295,179.99967600000002,180.54235795000002,76.0,86.0
296,180.54845550000005,180.72528445000003,75.0,80.0
297,180.73138200000002,181.09113745000002,73.0,86.0
298,181.09723500000004,181.27406395000003,71.0,87.0
299,181.28016150000002,182.00576995000003,71.0,92.0
300,182.01186750000002,182.18869645000004,71.0,104.0
301,182.19479400000003,182.55454945000002,70.0,93.0
302,182.56064700000005,182.92040245000004,75.0,77.0
303,182.92650000000003,183.46918195000003,80.0,86.0
304,183.47527950000003,183.65210845000004,78.0,85.0
305,183.65820600000004,184.01796145000003,75.0,90.0
306,184.02405900000002,184.20088795000004,75.0,91.0
307,184.20698550000003,184.74966745000003,75.0,90.0
308,184.75576500000003,184.93259395000004,75.0,94.0
309,184.93869150000003,185.11552045000002,75.0,85.0
310,185.12161800000004,185.48137345000004,74.0,92.0
311,185.48747100000003,185.84722645000002,77.0,99.0
312,185.85332400000004,186.39600595000005,83.0,92.0
313,186.40210350000004,186.57893245000002,82.0,90.0
314,186.58503000000005,186.94478545000004,79.0,91.0
315,186.95088300000003,187.31063845000003,79.0,88.0
316,187.31673600000002,187.49356495000004,80.0,91.0
317,187.49966250000003,188.04234445000003,82.0,102.0
318,188.04844200000002,188.51490457500003,83.0,97.0
319,188.41429500000004,188.66429455000002,82.0,86.0
320,188.59722150000005,189.18563507500002,80.0,86.0
321,189.14600100000004,189.57740266250002,78.0,89.0
322,189.51185400000003,189.87313383750003,75.0,86.0
323,189.87770700000004,190.16734062500004,73.0,89.0
324,190.06063350000002,190.52404730000003,71.0,92.0
325,190.60941300000005,191.04691221250005,70.0,94.0
326,190.97526600000003,191.69630128750003,71.0,105.0
327,191.70697200000004,192.09721520000002,68.0,91.0
328,192.07282500000002,192.46154381250003,78.0,85.0
329,192.43867800000004,193.47831027500004,75.0,88.0
330,193.53623700000003,193.69629768750002,73.0,88.0
331,193.71916350000004,193.89751683750004,71.0,90.0
332,193.90209000000004,194.24965035000002,73.0,85.0
333,194.26794300000003,194.66428375000004,68.0,85.0
334,194.63379600000005,195.21458763750005,76.0,85.0
335,195.18257550000004,195.29690456250003,73.0,85.0
336,195.36550200000002,195.68562337500003,71.0,87.0
337,195.73135500000004,196.03928127500004,68.0,81.0
338,196.09720800000002,196.35330510000003,76.0,83.0
339,196.64598750000005,196.80757257500002,75.0,92.0
340,196.82891400000003,197.03927947500003,70.0,85.0
341,197.19476700000004,197.47525430000005,67.0,83.0
342,197.56062000000003,198.00116798750003,76.0,84.0
343,197.92647300000004,198.36244782500003,75.0,79.0
344,198.29232600000003,199.48134825000002,68.0,95.0
345,199.38988500000002,199.48134825000002,68.0,91.0
346,199.57281150000003,199.71762831250004,70.0,86.0
347,199.75573800000004,200.31366382500005,72.0,91.0
348,200.48744400000004,200.77860201250004,72.0,89.0
349,200.85329700000003,200.94933341250004,75.0,86.0
350,201.03622350000003,201.53469821250005,75.0,84.0
351,201.58500300000003,201.93256335000004,75.0,82.0
352,201.95085600000004,202.22067258750005,77.0,86.0
353,202.13378250000002,202.24963595000003,79.0,86.0
354,202.49963550000004,202.88378115000003,80.0,71.0
355,203.04841500000003,203.21000007500004,79.0,87.0
356,203.41426800000002,203.65817000000004,77.0,85.0
357,203.78012100000004,204.10633992500004,75.0,90.0
358,203.96304750000004,204.54536352500003,72.0,90.0
359,205.24353300000004,205.43865460000004,70.0,95.0
360,205.42645950000005,205.55908121250005,68.0,90.0
361,205.60938600000003,206.17188498750002,73.0,100.0
362,206.15816550000002,206.53011605000003,75.0,95.0
363,206.52401850000004,206.79993263750004,77.0,90.0
364,206.88987150000003,207.30755367500004,75.0,97.0
365,207.62157750000003,207.94779642500004,80.0,90.0
366,208.17035700000002,208.31212503750004,68.0,81.0
367,208.35328350000003,208.48133205000005,70.0,83.0
368,208.53621000000004,208.78925832500005,72.0,91.0
369,208.90206300000003,209.16273326250004,70.0,91.0
370,209.26791600000004,209.46456198750005,68.0,94.0
371,209.63376900000003,209.86242712500004,70.0,91.0
372,209.99962200000004,210.58955996250003,72.0,90.0
373,210.73132800000005,211.23742465000004,70.0,94.0
374,211.09718100000003,211.24352220000003,68.0,84.0
375,211.28010750000004,211.39291217500005,70.0,84.0
376,211.46303400000005,211.97522820000003,72.0,90.0
377,212.19474000000002,212.47370291250004,72.0,86.0
378,212.56059300000004,212.67034890000005,75.0,86.0
379,212.74351950000005,213.11089688750005,75.0,89.0
380,213.47522550000005,213.65815200000003,75.0,86.0
381,213.65815200000003,213.88528573750003,77.0,86.0
382,213.84107850000004,213.96912705000003,79.0,87.0
383,214.20693150000002,214.53619920000003,80.0,95.0
384,214.75571100000005,214.88375955000004,79.0,87.0
385,215.12156400000003,215.24961255000002,77.0,87.0
386,215.48741700000005,215.67034350000003,72.0,87.0
387,215.67034350000003,215.85327000000004,72.0,87.0
388,215.85327000000004,216.03619650000005,84.0,87.0
389,216.95082900000003,217.18558467500003,80.0,94.0
390,217.13375550000003,217.25265772500003,79.0,87.0
391,217.31668200000004,218.04686361250003,80.0,85.0
392,218.23131450000002,218.31515581250005,80.0,93.0
393,218.41424100000003,218.62003331250003,80.0,89.0
394,218.59716750000004,218.69167952500004,79.0,86.0
395,218.78009400000005,219.10631292500003,80.0,87.0
396,219.87765300000004,220.00875032500005,80.0,94.0
397,220.06057950000005,220.16881101250004,79.0,89.0
398,220.24350600000002,220.38679842500005,80.0,102.0
399,220.42643250000003,221.25417491250005,80.0,103.0
400,221.34106500000004,221.62612546250003,80.0,93.0
401,221.70691800000003,221.80600318750004,79.0,89.0
402,221.88984450000004,222.19167322500005,79.0,89.0
403,222.43862400000003,222.65356263750004,80.0,77.0
404,222.62155050000004,223.03161073750005,82.0,89.0
405,223.17033000000004,223.71301195000004,80.0,107.0
406,223.71910950000003,224.26179145000003,79.0,99.0
407,224.26788900000003,224.62764445000005,77.0,97.0
408,224.63374200000004,225.35935045000005,77.0,101.0
409,225.36544800000004,225.90812995000005,75.0,101.0
410,225.91422750000004,226.09105645000005,68.0,83.0
411,226.09715400000005,226.63983595000005,77.0,86.0
412,226.64593350000004,227.18861545000004,75.0,92.0
413,227.19471300000004,227.55446845000003,73.0,106.0
414,227.56056600000005,229.01788045000004,75.0,106.0
415,229.02397800000003,229.56665995000003,76.0,101.0
416,229.57275750000005,230.11543945000005,77.0,96.0
417,230.12153700000005,230.48129245000004,79.0,104.0
418,230.48739000000003,230.66421895000005,79.0,102.0
419,230.67031650000004,230.84714545000003,77.0,95.0
420,230.85324300000005,231.03007195000004,79.0,101.0
421,231.03616950000003,231.76177795000004,80.0,102.0
422,231.76787550000003,231.94470445000005,68.0,88.0
423,231.95080200000004,232.49348395000004,77.0,89.0
424,232.49958150000003,233.04226345000004,79.0,88.0
425,233.04836100000003,233.40811645000005,80.0,93.0
426,233.41421400000004,233.77396945000004,79.0,92.0
427,233.78006700000003,233.95689595000005,79.0,101.0
428,233.96299350000004,234.13982245000005,79.0,102.0
429,234.14592000000005,234.32274895000003,80.0,102.0
430,234.32884650000005,234.87152845000003,82.0,100.0
431,234.87762600000005,235.42030795000005,80.0,107.0
432,235.42640550000004,235.96908745000005,79.0,99.0
433,235.97518500000004,236.33494045000003,77.0,97.0
434,236.34103800000005,237.06664645000004,77.0,101.0
435,237.07274400000003,237.61542595000003,75.0,101.0
436,237.62152350000005,237.79835245000004,68.0,83.0
437,237.80445000000003,238.34713195000003,77.0,86.0
438,238.35322950000005,238.89591145000003,75.0,92.0
439,238.90200900000005,239.26176445000004,73.0,106.0
440,239.26786200000004,240.72517645000005,75.0,106.0
441,240.73127400000004,241.27395595000004,76.0,101.0
442,241.28005350000004,241.82273545000004,77.0,96.0
443,241.82883300000003,242.18858845000005,79.0,104.0
444,242.19468600000005,242.37151495000003,79.0,102.0
445,242.37761250000005,242.55444145000004,77.0,95.0
446,242.56053900000003,242.73736795000005,79.0,101.0
447,242.74346550000004,243.46907395000005,80.0,102.0
448,243.47517150000004,243.65200045000003,68.0,88.0
449,243.65809800000005,244.20077995000005,77.0,89.0
450,244.20687750000005,244.74955945000005,79.0,88.0
451,244.75565700000004,245.11541245000004,80.0,93.0
452,245.12151000000003,245.48126545000005,79.0,92.0
453,245.48736300000004,245.66419195000003,79.0,101.0
454,245.67028950000005,245.84711845000004,79.0,102.0
455,245.85321600000003,246.03004495000005,80.0,102.0
456,246.03614250000004,246.57882445000004,82.0,100.0
457,246.58492200000003,247.12760395000004,80.0,107.0
458,246.58492200000003,247.12760395000004,80.0,111.0
459,247.13370150000003,247.67638345000003,79.0,99.0
460,247.68248100000005,248.04223645000005,77.0,97.0
461,248.04833400000004,248.77394245000005,77.0,101.0
462,248.78004000000004,249.32272195000004,75.0,101.0
463,249.32881950000004,249.50564845000005,68.0,83.0
464,249.51174600000004,250.05442795000005,77.0,86.0
465,250.06052550000004,250.60320745000004,75.0,92.0
466,250.60930500000003,250.96906045000006,73.0,106.0
467,250.97515800000005,252.43247245000003,75.0,106.0
468,252.43857000000006,252.98125195000006,76.0,101.0
469,252.98734950000005,253.53003145000005,77.0,96.0
470,253.53612900000005,253.89588445000004,79.0,104.0
471,253.90198200000003,254.07881095000005,79.0,102.0
472,254.08490850000004,254.26173745000006,77.0,95.0
473,254.26783500000005,254.44466395000003,79.0,101.0
474,254.45076150000006,255.17636995000004,80.0,102.0
475,255.18246750000006,255.35929645000004,68.0,88.0
476,255.36539400000004,255.90807595000004,77.0,89.0
477,255.91417350000003,256.45685545000003,79.0,88.0
478,256.462953,256.82270845000005,80.0,93.0
479,256.82880600000004,257.18856145000007,79.0,92.0
480,257.19465900000006,257.37148795,79.0,101.0
481,257.37758550000007,257.55441445,79.0,102.0
482,257.560512,257.73734095000003,80.0,102.0
483,257.7434385,258.28612045000006,82.0,100.0
484,258.29221800000005,258.50563225,84.0,102.0
485,259.38977700000004,259.60319125000007,85.0,102.0
486,259.57270350000005,259.7861177500001,84.0,102.0
487,259.75563000000005,259.96904425,82.0,102.0
488,261.21904200000006,261.43245625000003,80.0,102.0
489,262.31660100000005,262.53001525,82.0,102.0
490,262.49952750000006,262.71294175,85.0,102.0
491,262.68245400000006,262.71294175,85.0,102.0
492,263.048307,263.26172125000005,84.0,102.0
493,263.59708650000005,263.8105007500001,82.0,102.0
494,263.78001300000005,263.99342725,80.0,102.0
495,267.07269,267.28610425000005,80.0,102.0
496,267.43854300000004,267.65195725000007,75.0,102.0
497,267.62146950000005,267.8348837500001,80.0,102.0
498,267.98732250000006,268.20073675000003,75.0,102.0
499,268.17024900000007,268.38366325000004,80.0,102.0
500,268.536102,268.74951625000006,82.0,102.0
