,start,end,pitch,velocity
0,0.7317060000000001,0.8216448625000001,63.0,81.0
1,0.9146325000000002,0.9557909625000002,63.0,66.0
2,1.0975590000000002,1.1509125625000003,63.0,59.0
3,1.2804855000000002,1.3292659000000002,63.0,47.0
4,1.4634120000000002,1.5060948500000002,63.0,74.0
5,1.6463385000000004,1.6981676750000003,63.0,51.0
6,1.8292650000000004,1.8795697875000004,63.0,64.0
7,2.0121915,2.0716426125000003,63.0,71.0
8,2.1951180000000003,2.2317033000000004,63.0,75.0
9,2.3780445000000006,2.4298736750000005,63.0,59.0
10,2.5609710000000003,2.6112757875000003,63.0,49.0
11,2.7438975000000005,2.7942022875000005,63.0,60.0
12,2.9268240000000003,2.9710312375000005,63.0,71.0
13,3.1097505000000005,3.1539577375000007,63.0,64.0
14,3.2926770000000007,3.3384086250000005,63.0,61.0
15,0.7317060000000001,3.3887134125000005,56.0,79.0
16,0.7317060000000001,3.5060912500000008,44.0,77.0
17,3.4756035000000005,3.5243839000000006,63.0,59.0
18,3.6585300000000007,3.6981640750000007,63.0,74.0
19,3.8414565000000005,3.8978588375000007,63.0,37.0
20,4.024383,4.077736562500001,63.0,42.0
21,4.207309500000001,4.257614287500001,63.0,56.0
22,4.390236000000001,4.429870075000001,63.0,61.0
23,4.5731625000000005,4.628040450000001,63.0,51.0
24,4.756089000000001,4.804869400000001,63.0,59.0
25,4.939015500000001,4.983222737500001,63.0,71.0
26,5.121942000000001,5.164624850000001,63.0,65.0
27,5.304868500000001,5.3536489000000005,63.0,45.0
28,5.487795000000001,5.533526625000001,63.0,53.0
29,5.670721500000001,5.708831187500001,63.0,69.0
30,5.853648000000001,5.903952787500001,63.0,58.0
31,3.6585300000000007,6.208830287500001,56.0,74.0
32,3.6585300000000007,6.304866700000001,44.0,73.0
33,6.5853540000000015,6.826207225000001,61.0,69.0
34,6.951207000000001,7.003036175000001,61.0,48.0
35,6.5853540000000015,7.103645750000001,51.0,65.0
36,7.134133500000002,7.187487062500002,61.0,44.0
37,7.3170600000000015,7.547242512500001,61.0,67.0
38,7.682913000000001,7.7438885000000015,61.0,34.0
39,7.3170600000000015,7.826205425000001,51.0,55.0
40,7.865839500000002,7.939010100000002,61.0,61.0
41,8.048766,8.303338712500002,61.0,60.0
42,8.048766,8.609740600000002,51.0,74.0
43,8.5975455,8.641752737500001,61.0,61.0
44,8.780472000000001,9.024374000000002,61.0,69.0
45,6.5853540000000015,9.236263862500001,39.0,71.0
46,8.780472000000001,9.368885575000002,51.0,68.0
47,9.329251500000002,9.388702612500001,61.0,62.0
48,9.512178000000002,9.739311737500001,61.0,74.0
49,9.512178000000002,10.053335562500001,51.0,64.0
50,10.060957500000002,10.1051647375,61.0,61.0
51,10.243884000000001,10.312481437500002,61.0,66.0
52,10.792663500000002,10.847541450000001,61.0,70.0
53,10.243884000000001,10.849065837500001,51.0,59.0
54,9.512178000000002,10.888699912500002,39.0,73.0
55,10.975590000000002,11.208821287500001,61.0,74.0
56,11.524369500000002,11.580771837500002,61.0,48.0
57,10.975590000000002,11.589918162500002,51.0,64.0
58,11.707296000000001,11.935954125000002,61.0,78.0
59,11.707296000000001,12.001502787500002,51.0,63.0
60,10.975590000000002,12.146319600000002,39.0,67.0
61,12.439002000000002,12.560953000000001,63.0,68.0
62,12.621928500000003,12.667660125000003,63.0,54.0
63,12.804855000000002,12.868879275000003,63.0,56.0
64,12.439002000000002,12.899367025000002,56.0,82.0
65,12.987781500000002,13.044183837500002,63.0,66.0
66,13.170708000000003,13.411561225000002,63.0,77.0
67,13.536561000000003,13.612780375000002,63.0,58.0
68,13.170708000000003,13.644792512500002,56.0,81.0
69,13.719487500000003,13.778938612500003,63.0,33.0
70,13.902414000000002,14.022840612500003,63.0,62.0
71,14.085340500000003,14.146316000000002,63.0,38.0
72,14.268267000000003,14.320096175000003,63.0,52.0
73,13.902414000000002,14.440522787500003,56.0,78.0
74,14.451193500000002,14.503022675000002,63.0,42.0
75,14.634120000000003,14.705766212500002,63.0,65.0
76,14.999973000000002,15.053326562500002,63.0,41.0
77,14.634120000000003,15.070094825000002,56.0,71.0
78,12.439002000000002,15.172228787500003,44.0,67.0
79,15.182899500000003,15.234728675000003,63.0,58.0
80,15.365826000000002,15.618874325000002,63.0,75.0
81,15.548752500000003,15.618874325000002,63.0,10.0
82,15.731679000000003,15.789605725000003,63.0,49.0
83,15.365826000000002,15.839910512500003,56.0,78.0
84,15.914605500000002,15.963385900000002,63.0,59.0
85,16.097532,16.1417392375,63.0,66.0
86,16.2804585,16.3368608375,63.0,57.0
87,16.463385000000002,16.527409275000004,63.0,61.0
88,16.097532,16.571616512500004,56.0,82.0
89,16.646311500000003,16.692043125,63.0,59.0
90,16.829238000000004,16.870396462500004,63.0,63.0
91,17.012164500000004,17.054847350000003,63.0,64.0
92,16.829238000000004,17.263688437500004,56.0,78.0
93,17.195091,17.278932312500004,63.0,74.0
94,17.378017500000002,17.435944225000004,63.0,36.0
95,17.560944000000003,17.7484436625,56.0,87.0
96,17.560944000000003,17.815516712500003,63.0,68.0
97,15.365826000000002,17.937467712500002,44.0,70.0
98,18.292650000000002,18.542649550000004,61.0,76.0
99,18.292650000000002,18.777405225000003,51.0,74.0
100,18.658503000000003,18.900880612500004,61.0,51.0
101,19.024356000000004,19.259111675000003,61.0,63.0
102,19.024356000000004,19.484721025000002,51.0,67.0
103,19.573135500000003,19.615818350000005,61.0,61.0
104,19.756062000000004,19.971000637500005,61.0,76.0
105,19.756062000000004,20.227097737500003,51.0,78.0
106,20.304841500000002,20.353621900000004,61.0,54.0
107,20.487768000000003,20.719474900000005,61.0,78.0
108,20.487768000000003,20.740816325000004,51.0,74.0
109,20.853621000000004,21.003010975000002,51.0,46.0
110,18.292650000000002,21.007584137500004,39.0,75.0
111,21.036547500000005,21.083803512500005,61.0,66.0
112,21.219474000000005,21.461851612500002,61.0,70.0
113,21.585327000000003,21.635631787500003,61.0,43.0
114,21.219474000000005,21.675265862500005,51.0,73.0
115,21.768253500000004,21.969472650000004,61.0,70.0
116,22.134106500000005,22.228618525000005,61.0,71.0
117,21.951180000000004,22.536544800000005,51.0,72.0
118,22.499959500000003,22.605142237500004,61.0,79.0
119,22.682886000000003,22.858190562500003,51.0,56.0
120,22.865812500000004,23.102092562500005,61.0,78.0
121,23.231665500000005,23.288067837500005,61.0,75.0
122,23.414592000000003,23.632579412500004,51.0,74.0
123,23.597518500000003,23.704225625000003,61.0,73.0
124,21.219474000000005,23.736237762500004,39.0,81.0
125,24.146298000000005,24.998430612500005,63.0,82.0
126,24.146298000000005,25.041113462500004,59.0,86.0
127,24.146298000000005,25.253003325000005,56.0,75.0
128,25.243857000000006,25.574649087500003,59.0,50.0
129,25.609710000000003,26.268245400000005,61.0,77.0
130,25.609710000000003,26.312452637500005,58.0,69.0
131,25.609710000000003,26.493854750000004,54.0,54.0
132,25.609710000000003,26.493854750000004,54.0,67.0
133,26.707269000000004,27.166109637500004,66.0,78.0
134,27.073122000000005,27.820071875000004,56.0,55.0
135,27.073122000000005,27.905437575000004,64.0,58.0
136,27.073122000000005,27.975559400000005,52.0,62.0
137,27.073122000000005,27.989278887500006,63.0,62.0
138,27.073122000000005,28.006047150000004,59.0,71.0
139,28.170681000000005,28.501473087500006,59.0,60.0
140,28.353607500000006,28.531960837500005,61.0,61.0
141,28.536534000000007,29.024338000000004,54.0,73.0
142,28.536534000000007,29.067020850000006,63.0,78.0
143,28.536534000000007,29.193545012500007,59.0,71.0
144,29.085313500000005,29.387142225000005,66.0,84.0
145,29.999946000000005,30.324640537500006,56.0,76.0
146,29.999946000000005,30.592932737500007,64.0,78.0
147,30.548725500000007,30.725554450000004,54.0,61.0
148,29.999946000000005,30.945066250000007,49.0,66.0
149,30.548725500000007,31.073114800000006,63.0,72.0
150,31.463358000000007,32.1417104375,63.0,74.0
151,31.463358000000007,32.16152747500001,54.0,72.0
152,31.463358000000007,32.23774685000001,59.0,61.0
153,31.463358000000007,32.23774685000001,59.0,73.0
154,31.463358000000007,32.499941500000006,47.0,62.0
155,32.560917,32.74079472500001,61.0,45.0
156,32.926770000000005,33.339879012500006,46.0,69.0
157,32.926770000000005,33.3429277875,58.0,58.0
158,32.926770000000005,33.3429277875,58.0,77.0
159,32.743843500000004,33.38408625,64.0,57.0
160,32.926770000000005,33.429817875000005,61.0,76.0
161,34.20725550000001,34.353596700000004,56.0,61.0
162,34.390182,34.714876537500004,63.0,80.0
163,34.573108500000004,34.714876537500004,63.0,78.0
164,34.756035000000004,34.96640047500001,56.0,76.0
165,34.390182,35.03652230000001,51.0,75.0
166,34.938961500000005,35.51670436250001,58.0,71.0
167,35.121888000000006,35.5380457875,55.0,78.0
168,35.121888000000006,35.5380457875,55.0,87.0
169,35.121888000000006,35.58225302500001,63.0,81.0
170,35.85359400000001,36.10816671250001,59.0,89.0
171,35.85359400000001,36.16609343750001,63.0,82.0
172,36.03652050000001,36.16609343750001,63.0,58.0
173,35.85359400000001,36.832250775000006,56.0,75.0
174,36.21944700000001,36.832250775000006,56.0,74.0
175,36.4023735,36.832250775000006,63.0,76.0
176,36.768226500000004,37.37340833750001,71.0,93.0
177,37.317006000000006,37.637127375000006,61.0,73.0
178,37.317006000000006,37.82310265000001,70.0,89.0
179,37.86578550000001,38.08987046250001,61.0,74.0
180,37.86578550000001,38.2606018625,66.0,89.0
181,37.317006000000006,38.725540050000006,54.0,63.0
182,38.597491500000004,38.774320450000005,59.0,64.0
183,38.597491500000004,38.82462523750001,64.0,69.0
184,39.32919750000001,39.40999003750001,66.0,81.0
185,39.32919750000001,39.41151442500001,59.0,72.0
186,38.780418000000004,39.42066075000001,68.0,87.0
187,38.780418000000004,39.720965087500005,52.0,71.0
188,39.87797700000001,39.93285495000001,58.0,57.0
189,39.87797700000001,40.02431820000001,64.0,79.0
190,40.24383000000001,40.40389068750001,59.0,71.0
191,40.24383000000001,40.42218333750001,63.0,64.0
192,40.24383000000001,40.44657353750001,54.0,67.0
193,40.24383000000001,41.03803588750001,47.0,46.0
194,40.975536000000005,41.152364950000006,59.0,57.0
195,41.158462500000006,41.207242900000004,63.0,74.0
196,41.34138900000001,41.521266725000004,54.0,65.0
197,41.52431550000001,42.159985087500004,59.0,73.0
198,41.70724200000001,42.159985087500004,59.0,77.0
199,41.70724200000001,42.47705768750001,56.0,74.0
200,41.70724200000001,42.56394777500001,64.0,72.0
201,41.70724200000001,42.77126447500001,49.0,71.0
202,43.170654000000006,43.620348312500006,63.0,80.0
203,43.170654000000006,43.82461623750001,59.0,67.0
204,43.170654000000006,43.82461623750001,59.0,73.0
205,43.170654000000006,43.977054987500004,47.0,62.0
206,43.170654000000006,44.03955487500001,54.0,71.0
207,44.634066000000004,45.25906487500001,55.0,72.0
208,44.634066000000004,45.28193068750001,63.0,79.0
209,44.634066000000004,45.43894260000001,51.0,77.0
210,44.634066000000004,45.509064425000005,58.0,76.0
211,46.09747800000001,46.50144068750001,63.0,72.0
212,46.28040450000001,46.50144068750001,63.0,59.0
213,46.09747800000001,46.51211140000001,59.0,74.0
214,46.64625750000001,46.78040360000001,58.0,66.0
215,46.829184000000005,46.88558633750001,59.0,71.0
216,47.012110500000006,47.13406150000001,63.0,72.0
217,46.09747800000001,47.13863466250001,56.0,69.0
218,46.46333100000001,47.13863466250001,56.0,57.0
219,47.195037000000006,47.36271962500001,68.0,78.0
220,47.37796350000001,47.63253621250001,71.0,82.0
221,47.56089000000001,47.90082841250001,70.0,85.0
222,47.56089000000001,48.580705237500005,54.0,68.0
223,48.29259600000001,48.580705237500005,54.0,66.0
224,48.29259600000001,48.61119298750001,56.0,73.0
225,47.92674300000001,48.65082706250001,61.0,44.0
226,48.29259600000001,48.65082706250001,61.0,74.0
227,49.024302000000006,49.60204486250001,63.0,61.0
228,49.024302000000006,49.65997158750001,54.0,69.0
229,49.024302000000006,49.83680053750001,59.0,72.0
230,49.024302000000006,49.83680053750001,59.0,74.0
231,49.75600800000001,50.10509273750001,63.0,62.0
232,50.12186100000001,50.51210420000001,61.0,67.0
233,50.48771400000001,50.79868905000001,58.0,66.0
234,50.48771400000001,50.79868905000001,58.0,79.0
235,50.48771400000001,50.81850608750001,64.0,81.0
236,51.21942000000001,51.48161465000001,51.0,62.0
237,51.21942000000001,51.64167533750001,63.0,61.0
238,51.21942000000001,51.64167533750001,63.0,73.0
239,51.21942000000001,51.699602062500006,55.0,75.0
240,51.21942000000001,51.93893090000001,58.0,67.0
241,51.95112600000001,52.249905950000006,56.0,65.0
242,51.95112600000001,52.249905950000006,56.0,74.0
243,51.95112600000001,52.35203991250001,59.0,82.0
244,52.49990550000001,52.76819770000001,56.0,59.0
245,52.68283200000001,52.82307565000001,58.0,71.0
246,52.31697900000001,52.94502665000001,63.0,60.0
247,52.86575850000001,53.01362408750001,59.0,80.0
248,53.048685000000006,53.22246517500001,61.0,74.0
249,53.23161150000001,53.47856227500001,63.0,71.0
250,53.41453800000001,53.79715926250001,58.0,77.0
251,53.41453800000001,53.83069578750001,61.0,88.0
252,53.78039100000001,53.83069578750001,61.0,48.0
253,53.41453800000001,54.28648765000001,54.0,70.0
254,54.14624400000001,54.28648765000001,54.0,59.0
255,54.14624400000001,54.34898753750001,56.0,69.0
256,54.14624400000001,54.52276771250001,59.0,70.0
257,54.51209700000001,54.82307205000001,61.0,61.0
258,54.87795000000001,55.26362003750001,59.0,67.0
259,54.87795000000001,55.26362003750001,59.0,70.0
260,54.87795000000001,55.33679063750001,63.0,67.0
261,54.87795000000001,55.38252226250001,54.0,69.0
262,55.42672950000001,55.45264408750001,59.0,27.0
263,55.60965600000001,55.67977782500001,59.0,75.0
264,55.60965600000001,55.83831412500001,54.0,77.0
265,55.60965600000001,55.92367982500001,63.0,78.0
266,54.87795000000001,55.99837481250001,47.0,64.0
267,55.97550900000001,56.06239908750001,59.0,64.0
268,56.34136200000001,56.58831277500001,56.0,70.0
269,56.34136200000001,56.96788526250001,65.0,83.0
270,56.34136200000001,57.01971443750001,46.0,76.0
271,56.70721500000001,57.11270207500001,58.0,71.0
272,57.07306800000001,57.11270207500001,58.0,76.0
273,57.07306800000001,57.42367712500001,62.0,82.0
274,57.07306800000001,57.42520151250001,50.0,79.0
275,57.07306800000001,57.43739661250001,65.0,81.0
276,57.80477400000001,58.75904057500001,51.0,75.0
277,58.35355350000001,58.79410148750001,63.0,81.0
278,58.71940650000001,58.89928422500001,55.0,75.0
279,58.17062700000001,58.90995493750001,58.0,59.0
280,59.26818600000001,59.47245392500001,66.0,64.0
281,59.26818600000001,59.60355125000001,63.0,84.0
282,59.26818600000001,59.61727073750001,71.0,95.0
283,59.81696550000001,60.24226961250001,59.0,70.0
284,59.26818600000001,60.24836716250001,56.0,74.0
285,59.63403900000001,60.24836716250001,56.0,50.0
286,60.18281850000001,60.28190368750001,63.0,90.0
287,60.73159800000001,61.09440222500001,61.0,85.0
288,60.73159800000001,61.097451000000014,58.0,78.0
289,60.73159800000001,61.17824353750001,66.0,87.0
290,61.28037750000001,61.588303775000014,58.0,65.0
291,60.73159800000001,61.72397426250001,54.0,74.0
292,61.097451000000014,61.72397426250001,54.0,54.0
293,61.64623050000001,61.89927882500001,66.0,92.0
294,61.64623050000001,61.95263238750001,59.0,87.0
295,62.19501000000001,62.54409473750001,56.0,80.0
296,62.19501000000001,62.57000932500001,59.0,88.0
297,62.19501000000001,62.58220442500001,63.0,86.0
298,62.74378950000001,63.03647190000001,56.0,78.0
299,62.56086300000001,63.03952067500001,64.0,44.0
300,62.19501000000001,63.16909361250001,52.0,79.0
301,63.109642500000014,63.24226421250001,59.0,83.0
302,63.109642500000014,63.44348336250001,64.0,81.0
303,63.65842200000001,63.87793380000001,59.0,73.0
304,63.65842200000001,63.87793380000001,59.0,82.0
305,63.65842200000001,64.01207990000002,54.0,84.0
306,63.65842200000001,64.01207990000002,63.0,82.0
307,63.65842200000001,64.46939615000001,47.0,77.0
308,64.390128,64.49988390000001,54.0,82.0
309,64.20720150000001,64.50598145000001,59.0,64.0
310,64.57305450000001,64.69195672500001,59.0,82.0
311,64.755981,65.07000482500001,61.0,78.0
312,64.93890750000001,65.08982186250002,63.0,72.0
313,65.121834,65.40384568750001,56.0,84.0
314,65.121834,65.51817475000001,61.0,73.0
315,65.121834,65.58677218750002,64.0,84.0
316,65.121834,65.63707697500001,59.0,87.0
317,65.67061350000002,65.74073532500002,61.0,42.0
318,65.67061350000002,65.96634467500002,56.0,83.0
319,65.67061350000002,66.0471372125,63.0,91.0
320,65.121834,66.07152741250002,49.0,70.0
321,66.03646650000002,66.07914935000001,56.0,59.0
322,66.03646650000002,66.19042963750002,59.0,94.0
323,66.03646650000002,66.21939300000001,61.0,52.0
324,66.03646650000002,66.39622195000001,64.0,81.0
325,66.58524600000001,66.73920913750001,56.0,56.0
326,66.58524600000001,66.95262338750001,59.0,91.0
327,66.58524600000001,66.97091603750002,63.0,82.0
328,66.95109900000001,67.14469621250001,61.0,76.0
329,66.95109900000001,67.14926937500002,58.0,71.0
330,67.1340255,67.26664721250002,59.0,81.0
331,67.1340255,67.2879886375,63.0,80.0
332,67.49987850000001,67.55628083750001,59.0,33.0
333,67.49987850000001,67.63859776250001,63.0,96.0
334,68.04865800000002,68.23158450000001,58.0,78.0
335,68.04865800000002,68.23158450000001,58.0,89.0
336,68.04865800000002,68.30475510000001,64.0,90.0
337,68.04865800000002,68.32609652500001,61.0,85.0
338,68.780364,69.03950987500001,51.0,68.0
339,68.780364,69.16908281250001,58.0,72.0
340,68.780364,69.18127791250001,55.0,82.0
341,68.780364,69.2544485125,63.0,65.0
342,68.780364,69.2544485125,63.0,77.0
343,69.51207000000001,69.74682567500001,56.0,79.0
344,69.51207000000001,69.74682567500001,56.0,79.0
345,69.51207000000001,69.8581059625,59.0,91.0
346,70.06084950000002,70.20719070000001,58.0,76.0
347,70.24377600000001,70.31542221250001,59.0,78.0
348,69.69499650000002,70.55475105000001,63.0,79.0
349,70.42670250000002,70.55475105000001,63.0,73.0
350,69.87792300000001,70.56999492500002,56.0,72.0
351,70.60962900000001,70.82914080000002,68.0,79.0
352,70.7925555,70.92365282500002,70.0,85.0
353,70.97548200000001,71.37029836250001,58.0,87.0
354,70.97548200000001,71.40383488750001,63.0,97.0
355,71.70718800000002,71.82761461250001,60.0,75.0
356,71.89011450000001,71.96328510000001,63.0,90.0
357,70.97548200000001,72.03035815000001,56.0,80.0
358,71.52426150000001,72.03035815000001,56.0,80.0
359,72.07304100000002,72.18584567500001,68.0,89.0
360,71.34133500000002,72.25444311250001,51.0,57.0
361,72.25596750000001,72.38249166250002,72.0,80.0
362,72.43889400000002,72.79864945000001,70.0,92.0
363,72.98767350000001,73.07456358750001,60.0,81.0
364,72.98767350000001,73.10810011250001,68.0,90.0
365,73.35352650000002,73.4434653625,58.0,78.0
366,72.804747,73.4556604625,51.0,64.0
367,73.35352650000002,73.46633117500001,67.0,94.0
368,72.43889400000002,73.54407493750001,55.0,84.0
369,73.90230600000001,74.30017113750002,60.0,84.0
370,74.26815900000001,74.30017113750002,60.0,66.0
371,73.90230600000001,74.32456133750001,63.0,94.0
372,73.90230600000001,74.41907336250001,68.0,93.0
373,74.63401200000001,74.67669485000002,60.0,64.0
374,73.90230600000001,74.79559707500002,53.0,78.0
375,74.45108550000002,74.79559707500002,53.0,65.0
376,74.8169385,74.86876767500002,68.0,44.0
377,74.8169385,74.8763896125,67.0,36.0
378,74.99986500000001,75.12029161250001,70.0,77.0
379,75.18279150000001,75.32760831250002,72.0,78.0
380,75.36571800000002,75.64468091250001,51.0,67.0
381,75.54864450000001,75.71937590000002,60.0,61.0
382,75.73157100000002,75.92821698750001,51.0,49.0
383,75.36571800000002,76.04559482500001,70.0,85.0
384,75.91449750000001,76.16449705000001,53.0,72.0
385,76.09742400000002,76.23004571250002,55.0,80.0
386,76.46327700000002,76.61876452500002,61.0,66.0
387,76.64620350000001,76.72852042500001,63.0,81.0
388,76.82913,77.16297086250002,56.0,79.0
389,76.82913,77.25900727500002,65.0,94.0
390,77.19498300000001,77.42211673750002,56.0,63.0
391,77.37790950000002,77.42211673750002,56.0,61.0
392,77.37790950000002,77.51205560000001,63.0,92.0
393,77.74376250000002,77.85961595000002,56.0,78.0
394,77.74376250000002,77.89620125000002,61.0,86.0
395,77.92668900000001,77.98156695000002,61.0,60.0
396,76.82913,78.05778632500001,49.0,74.0
397,78.29254200000001,78.64162673750002,56.0,91.0
398,78.29254200000001,78.66601693750002,48.0,81.0
399,78.29254200000001,78.67363887500001,60.0,87.0
400,78.65839500000001,78.67363887500001,60.0,63.0
401,78.29254200000001,78.70412662500001,63.0,95.0
402,78.84132150000002,78.95412617500001,56.0,63.0
403,79.20717450000001,79.30321091250002,63.0,93.0
404,79.75595400000002,80.01205110000001,56.0,78.0
405,79.75595400000002,80.04101446250002,68.0,98.0
406,79.75595400000002,80.11113628750002,61.0,92.0
407,80.30473350000001,80.38705042500001,60.0,62.0
408,80.30473350000001,80.52119652500001,68.0,96.0
409,79.75595400000002,80.59741590000002,53.0,78.0
410,79.75595400000002,80.66144017500001,58.0,72.0
411,80.67058650000001,80.76662291250001,58.0,82.0
412,80.67058650000001,80.78339117500002,67.0,86.0
413,81.21936600000001,81.25747568750002,63.0,89.0
414,81.21936600000001,81.31235363750001,60.0,86.0
415,81.21936600000001,81.33369506250001,68.0,91.0
416,81.21936600000001,81.46021922500002,51.0,72.0
417,81.40229250000002,81.46021922500002,51.0,55.0
418,81.58521900000001,81.68430418750002,51.0,36.0
419,81.95107200000001,81.99375485000002,63.0,91.0
420,81.95107200000001,82.05930351250001,70.0,85.0
421,81.95107200000001,82.28796163750002,53.0,74.0
422,82.31692500000001,82.37027856250002,55.0,62.0
423,82.68277800000001,82.79558267500002,44.0,78.0
424,82.68277800000001,82.84131430000001,56.0,77.0
425,82.68277800000001,82.86722888750002,63.0,90.0
426,82.68277800000001,82.88094837500002,68.0,92.0
427,82.68277800000001,82.96021652500002,72.0,81.0
428,83.04863100000001,83.22088678750002,70.0,77.0
429,83.23155750000001,83.33369146250001,63.0,83.0
430,83.23155750000001,83.39161818750001,72.0,78.0
431,83.41448400000002,83.54710571250001,56.0,25.0
432,83.41448400000002,83.54710571250001,56.0,80.0
433,83.59741050000001,83.64619090000001,63.0,84.0
434,83.59741050000001,83.73765415000001,75.0,86.0
435,83.96326350000001,84.18734846250001,63.0,85.0
436,83.96326350000001,84.38247006250002,73.0,87.0
437,84.14619000000002,84.75289622500001,55.0,72.0
438,84.51204300000002,84.75289622500001,55.0,57.0
439,84.69496950000001,84.80320101250001,63.0,85.0
440,84.69496950000001,84.84435947500002,72.0,86.0
441,84.87789600000002,85.02728597500001,55.0,64.0
442,85.06082250000001,85.12941993750002,63.0,79.0
443,84.32911650000001,85.14161503750002,51.0,63.0
444,85.06082250000001,85.16295646250002,70.0,84.0
445,85.60960200000001,85.72697983750001,60.0,77.0
446,85.60960200000001,85.89466246250001,68.0,92.0
447,85.97545500000001,86.02575978750002,58.0,68.0
448,85.97545500000001,86.10807671250001,67.0,65.0
449,85.60960200000001,86.19039363750001,53.0,79.0
450,85.97545500000001,86.19039363750001,53.0,42.0
451,85.79252850000002,86.26661301250002,60.0,60.0
452,86.15838150000002,86.26661301250002,60.0,79.0
453,86.15838150000002,86.28795443750002,68.0,89.0
454,86.34130800000001,86.54405153750001,53.0,64.0
455,86.52423450000002,86.56539296250001,63.0,80.0
456,86.52423450000002,86.65380743750002,70.0,82.0
457,86.70716100000001,86.88398995000001,60.0,64.0
458,86.89008750000002,86.99831901250002,63.0,27.0
459,86.89008750000002,87.13246511250001,67.0,82.0
460,86.89008750000002,87.17667235000002,58.0,74.0
461,87.62179350000001,87.67362267500002,55.0,67.0
462,87.07301400000001,87.96173191250001,51.0,67.0
463,87.43886700000002,87.96173191250001,51.0,71.0
464,87.80472000000002,88.04100006250002,58.0,56.0
465,87.25594050000001,88.10807311250001,60.0,65.0
466,87.98764650000001,88.10807311250001,60.0,74.0
467,88.35349950000001,88.51813335000001,60.0,48.0
468,88.53642600000002,88.86112053750001,61.0,66.0
469,88.53642600000002,88.86112053750001,61.0,77.0
470,88.53642600000002,89.02270561250002,56.0,82.0
471,88.53642600000002,89.05624213750002,53.0,78.0
472,89.08520550000001,89.33977821250002,61.0,58.0
473,89.26813200000001,89.33977821250002,61.0,81.0
474,89.26813200000001,89.47544870000002,53.0,82.0
475,89.45105850000002,89.51508277500001,61.0,59.0
476,89.26813200000001,89.52270471250002,56.0,85.0
477,88.53642600000002,89.62026551250001,49.0,73.0
478,89.63398500000001,89.82910660000002,58.0,63.0
479,89.81691150000002,90.13550848750002,61.0,77.0
480,89.99983800000001,90.28642285000002,60.0,64.0
481,89.99983800000001,90.28642285000002,60.0,79.0
482,89.99983800000001,90.51660536250002,56.0,80.0
483,89.99983800000001,90.58367841250002,51.0,78.0
484,90.54861750000002,90.81843408750001,60.0,57.0
485,90.73154400000001,90.81843408750001,60.0,89.0
486,90.73154400000001,91.08977506250001,51.0,85.0
487,91.09739700000002,91.13398230000001,60.0,71.0
488,90.73154400000001,91.19648218750001,56.0,91.0
489,89.99983800000001,91.21782361250001,48.0,80.0
490,91.46325000000002,91.75745678750002,58.0,80.0
491,91.46325000000002,91.84739565000001,56.0,80.0
492,91.46325000000002,91.90227360000002,61.0,86.0
493,91.46325000000002,91.96934665000002,53.0,80.0
494,92.01202950000001,92.26050466250001,58.0,43.0
495,92.19495600000002,92.53184563750001,53.0,82.0
496,91.46325000000002,92.54404073750001,46.0,79.0
497,92.19495600000002,92.54708951250002,61.0,89.0
498,92.56080900000002,92.60806501250002,58.0,61.0
499,92.19495600000002,92.61568695000001,56.0,96.0
500,92.92666200000002,93.19647858750001,60.0,74.0
501,92.92666200000002,93.19647858750001,60.0,80.0
502,93.29251500000002,93.35501488750002,60.0,48.0
503,92.92666200000002,93.39464896250001,52.0,85.0
504,93.47544150000002,93.77879461250002,55.0,82.0
505,93.47544150000002,93.80013603750001,58.0,81.0
506,93.84129450000002,93.88245296250001,55.0,87.0
507,93.84129450000002,93.92208703750002,60.0,82.0
508,94.02422100000001,94.08062333750001,60.0,37.0
509,92.92666200000002,94.08214772500001,48.0,71.0
510,94.39007400000001,94.43733001250001,60.0,77.0
511,94.39007400000001,94.71476853750002,68.0,106.0
512,94.57300050000002,94.82604882500002,60.0,57.0
513,94.75592700000001,94.82604882500002,60.0,65.0
514,94.93885350000002,94.99373145000001,60.0,53.0
515,94.93885350000002,95.20257253750002,67.0,87.0
516,94.39007400000001,95.31232843750001,53.0,78.0
517,95.12178000000002,95.31232843750001,53.0,64.0
518,95.30470650000002,95.36873077500002,60.0,83.0
519,95.48763300000002,95.57604747500001,53.0,60.0
520,95.30470650000002,95.65836440000001,68.0,102.0
521,95.85348600000002,96.24372920000002,58.0,82.0
522,95.85348600000002,96.28793643750002,67.0,96.0
523,96.40226550000001,96.62482607500002,58.0,84.0
524,96.40226550000001,96.79250870000001,63.0,96.0
525,95.85348600000002,96.83824032500002,51.0,75.0
526,96.76811850000001,96.83824032500002,51.0,73.0
527,96.21933900000002,96.87787440000001,60.0,59.0
528,97.13397150000002,97.19189822500002,65.0,83.0
529,96.95104500000002,97.19342261250002,63.0,82.0
530,97.31689800000002,97.65073886250002,56.0,80.0
531,97.31689800000002,97.68122661250001,61.0,82.0
532,97.31689800000002,97.68884855000002,65.0,96.0
533,97.86567750000002,97.90988473750002,56.0,68.0
534,97.86567750000002,97.98457972500002,63.0,89.0
535,97.68275100000001,98.26354263750002,61.0,51.0
536,98.23153050000002,98.26354263750002,61.0,93.0
537,98.23153050000002,98.33366446250001,56.0,79.0
538,97.31689800000002,98.44189597500002,49.0,78.0
539,98.41445700000001,98.53945677500002,61.0,71.0
540,98.78031000000001,98.94799262500001,56.0,76.0
541,98.78031000000001,98.94799262500001,56.0,79.0
542,98.78031000000001,98.95409017500002,60.0,79.0
543,98.78031000000001,99.12787035000002,63.0,93.0
544,98.78031000000001,99.13701667500001,68.0,99.0
545,99.14616300000002,99.37939428750002,56.0,59.0
546,99.32908950000002,99.38701622500001,58.0,76.0
547,99.51201600000002,99.64311332500002,56.0,10.0
548,99.32908950000002,99.64311332500002,67.0,92.0
549,99.69494250000001,99.74372290000002,67.0,28.0
550,99.69494250000001,99.82603982500002,60.0,91.0
551,99.69494250000001,99.84738125000001,68.0,106.0
552,98.78031000000001,99.88853971250002,51.0,68.0
553,99.87786900000002,99.93427133750002,56.0,69.0
554,100.24372200000002,100.48762400000001,55.0,80.0
555,100.24372200000002,100.56994092500001,58.0,85.0
556,100.24372200000002,100.67207488750002,64.0,87.0
557,100.24372200000002,100.67664805000001,67.0,98.0
558,100.60957500000002,100.75744058750001,55.0,61.0
559,100.24372200000002,101.07146441250002,60.0,82.0
560,100.79250150000001,101.07146441250002,60.0,78.0
561,100.97542800000002,101.10195216250001,55.0,63.0
562,100.79250150000001,101.11719603750002,65.0,94.0
563,101.34128100000002,101.47237832500002,64.0,82.0
564,101.52420750000002,101.64158533750002,65.0,83.0
565,101.70713400000001,101.95103600000002,60.0,78.0
566,101.89006050000002,101.95103600000002,60.0,63.0
567,101.70713400000001,102.18121851250002,67.0,92.0
568,101.70713400000001,102.32298655000002,53.0,81.0
569,102.07298700000001,102.32298655000002,53.0,54.0
570,102.25591350000002,102.38701082500002,60.0,88.0
571,102.25591350000002,102.45103510000001,68.0,101.0
572,102.62176650000002,102.67054690000002,53.0,75.0
573,103.17054600000002,103.41292361250002,61.0,78.0
574,103.17054600000002,103.41292361250002,61.0,86.0
575,103.17054600000002,103.64158173750002,65.0,84.0
576,103.17054600000002,103.73609376250002,56.0,91.0
577,103.71932550000002,104.02725177500002,61.0,53.0
578,103.90225200000002,104.02725177500002,61.0,88.0
579,103.90225200000002,104.10651992500001,56.0,94.0
580,104.26810500000002,104.31688540000002,61.0,71.0
581,103.17054600000002,104.34127560000002,49.0,80.0
582,103.90225200000002,104.40225110000002,65.0,98.0
583,104.63395800000002,104.84584786250002,51.0,80.0
584,104.63395800000002,104.84584786250002,51.0,85.0
585,104.63395800000002,104.94950621250001,58.0,93.0
586,104.99981100000002,105.04249385000001,51.0,71.0
587,104.63395800000002,105.11414006250001,63.0,100.0
588,104.63395800000002,105.14005465000002,67.0,95.0
589,105.36566400000002,105.56078560000002,60.0,86.0
590,105.36566400000002,105.56078560000002,60.0,89.0
591,105.36566400000002,105.65529762500002,67.0,90.0
592,105.36566400000002,105.66749272500002,64.0,90.0
593,105.36566400000002,105.70255363750002,48.0,87.0
594,105.73151700000003,105.83212657500002,60.0,68.0
595,106.09737000000001,106.29096721250002,60.0,90.0
596,106.09737000000001,106.31840618750002,56.0,92.0
597,106.09737000000001,106.32602812500002,63.0,96.0
598,106.64614950000002,106.76505172500002,55.0,81.0
599,106.82907600000001,106.88242956250002,56.0,79.0
600,107.01200250000002,107.10651452500002,60.0,51.0
601,106.09737000000001,107.23151430000001,53.0,92.0
602,106.46322300000001,107.23151430000001,53.0,68.0
603,107.19492900000002,107.37785550000002,65.0,88.0
604,107.56078200000002,107.62633066250002,51.0,76.0
605,107.56078200000002,107.62633066250002,51.0,79.0
606,107.37785550000002,107.94797642500002,68.0,94.0
607,107.56078200000002,107.96322030000002,58.0,94.0
608,107.56078200000002,108.00132998750001,67.0,96.0
609,107.92663500000002,108.13090292500002,51.0,61.0
610,108.10956150000001,108.36565860000002,58.0,78.0
611,108.29248800000002,108.40681706250002,51.0,57.0
612,108.10956150000001,108.42815848750001,65.0,94.0
613,108.47541450000001,108.51809735000002,58.0,71.0
614,108.47541450000001,108.58364601250003,63.0,98.0
615,109.02419400000002,109.27419355000002,61.0,82.0
616,109.02419400000002,109.27419355000002,61.0,90.0
617,109.02419400000002,109.30773007500002,56.0,98.0
618,109.02419400000002,109.45254688750002,65.0,87.0
619,109.39004700000002,109.59431492500002,61.0,48.0
620,109.57297350000002,109.72541225000002,56.0,85.0
621,109.57297350000002,109.87785100000002,63.0,95.0
622,109.02419400000002,109.97236302500002,49.0,80.0
623,109.75590000000003,110.02876536250002,61.0,40.0
624,109.93882650000002,110.02876536250002,61.0,93.0
625,109.93882650000002,110.07754576250002,56.0,91.0
626,110.48760600000001,110.95406857500002,60.0,89.0
627,110.48760600000001,110.96626367500002,58.0,86.0
628,110.48760600000001,111.24217781250002,63.0,92.0
629,110.67053250000002,111.39766533750002,56.0,78.0
630,111.21931200000002,111.39766533750002,56.0,91.0
631,111.03638550000002,111.47693348750002,51.0,71.0
632,111.40223850000002,111.53486021250002,58.0,85.0
633,111.58516500000002,111.72388426250002,60.0,82.0
634,111.76809150000003,111.90223760000002,65.0,90.0
635,111.95101800000002,111.99827401250002,65.0,27.0
636,111.95101800000002,112.16443225000002,48.0,83.0
637,111.95101800000002,112.21931020000002,60.0,82.0
638,111.95101800000002,112.21931020000002,60.0,85.0
639,111.95101800000002,112.30162712500002,64.0,92.0
640,112.49979750000001,112.74827266250001,60.0,75.0
641,112.49979750000001,112.85650417500003,65.0,102.0
642,112.68272400000002,113.00284537500002,52.0,81.0
643,112.68272400000002,113.00284537500002,52.0,87.0
644,113.04857700000002,113.16290606250001,60.0,85.0
645,113.04857700000002,113.22693033750002,67.0,94.0
646,113.41443000000002,113.58516140000002,67.0,94.0
647,113.41443000000002,113.64918567500003,60.0,78.0
648,113.59735650000002,113.64918567500003,60.0,64.0
649,113.59735650000002,113.70863678750003,65.0,83.0
650,113.78028300000003,113.89308767500002,67.0,82.0
651,113.96320950000002,114.14156283750002,60.0,88.0
652,113.41443000000002,114.32296495000001,53.0,85.0
653,114.14613600000003,114.32296495000001,53.0,82.0
654,114.32906250000002,114.33973321250002,60.0,70.0
655,113.96320950000002,114.39156238750002,68.0,104.0
656,114.69491550000002,114.74369590000002,65.0,83.0
657,114.51198900000001,114.76656171250002,63.0,82.0
658,114.87784200000002,115.19796337500001,61.0,81.0
659,114.87784200000002,115.19796337500001,61.0,82.0
660,114.87784200000002,115.33210947500002,65.0,107.0
661,114.87784200000002,115.44796292500001,56.0,94.0
662,115.42662150000002,115.47845067500002,61.0,59.0
663,114.87784200000002,115.50893842500003,49.0,79.0
664,115.60954800000002,115.76808430000003,61.0,57.0
665,115.60954800000002,115.81838908750002,63.0,93.0
666,115.60954800000002,115.94338886250002,65.0,43.0
667,115.60954800000002,115.98149855000003,56.0,82.0
668,115.97540100000002,116.02418140000002,61.0,59.0
669,115.97540100000002,116.07296180000002,49.0,73.0
670,116.15832750000003,116.25131513750001,61.0,49.0
671,116.34125400000002,116.59582671250001,51.0,81.0
672,116.34125400000002,116.59582671250001,51.0,90.0
673,116.34125400000002,116.84582626250003,67.0,93.0
674,116.34125400000002,116.90375298750003,58.0,91.0
675,116.34125400000002,116.95405777500002,63.0,97.0
676,117.07296000000002,117.15070376250002,58.0,92.0
677,117.07296000000002,117.18881345000003,67.0,89.0
678,117.07296000000002,117.19643538750002,63.0,99.0
679,116.89003350000002,117.19948416250001,51.0,51.0
680,117.43881300000002,117.57295910000002,51.0,79.0
681,117.80466600000003,117.98911688750002,65.0,85.0
682,117.80466600000003,117.99064127500002,68.0,95.0
683,117.80466600000003,118.00283637500002,72.0,80.0
684,118.35344550000002,118.55466465000002,63.0,72.0
685,118.35344550000002,118.62021331250003,67.0,101.0
686,118.17051900000003,118.67051810000002,60.0,45.0
687,118.71929850000002,118.80618858750002,65.0,72.0
688,118.71929850000002,118.84734705000002,68.0,88.0
689,119.08515150000002,119.44185817500002,60.0,59.0
690,119.26807800000002,119.62326028750002,67.0,93.0
691,119.26807800000002,119.80923556250002,75.0,88.0
692,119.26807800000002,119.83515015000002,63.0,91.0
693,119.81685750000003,120.15679591250002,60.0,57.0
694,117.80466600000003,120.22691773750002,53.0,72.0
695,119.99978400000002,120.22844212500002,63.0,88.0
696,120.18271050000003,120.39917352500002,67.0,88.0
697,120.36563700000002,120.59581951250001,68.0,82.0
698,120.54856350000001,120.69490470000002,70.0,63.0
699,120.73149000000002,121.08667228750002,63.0,93.0
700,120.73149000000002,121.15526972500003,72.0,82.0
701,120.73149000000002,121.16289166250002,68.0,93.0
702,121.28026950000002,121.40831805000002,63.0,73.0
703,121.28026950000002,121.70557361250002,70.0,75.0
704,121.64612250000002,121.76045156250002,63.0,57.0
705,121.64612250000002,121.91441470000002,72.0,82.0
706,122.19490200000003,122.29856035000002,68.0,72.0
707,122.19490200000003,122.30923106250002,63.0,82.0
708,121.09734300000002,122.34734075000001,51.0,47.0
709,122.01197550000002,122.54703551250002,56.0,60.0
710,122.92660800000002,123.10191256250002,60.0,91.0
711,122.92660800000002,123.13240031250002,63.0,101.0
712,122.92660800000002,123.22081478750002,68.0,72.0
713,122.74368150000002,123.25740008750002,51.0,51.0
714,123.10953450000002,123.27111957500001,56.0,59.0
715,120.73149000000002,123.28331467500003,44.0,76.0
716,123.29246100000002,123.40831445000002,60.0,70.0
717,123.65831400000002,124.03788648750002,58.0,85.0
718,123.65831400000002,124.05922791250002,63.0,80.0
719,123.65831400000002,124.06380107500001,67.0,70.0
720,124.20709350000003,124.35038592500003,58.0,73.0
721,124.39002000000002,124.46166621250002,63.0,47.0
722,124.02416700000002,124.65373903750002,51.0,54.0
723,124.57294650000001,124.66593413750002,58.0,91.0
724,124.57294650000001,124.71928770000002,67.0,101.0
725,124.75587300000002,124.89459226250003,51.0,25.0
726,124.93879950000002,125.02721397500002,58.0,69.0
727,124.93879950000002,125.03788468750002,63.0,78.0
728,124.93879950000002,125.06837243750002,68.0,78.0
729,125.48757900000003,125.59733490000002,58.0,73.0
730,125.67050550000002,125.77263946250002,67.0,70.0
731,125.30465250000002,125.89001730000003,51.0,55.0
732,125.85343200000003,125.89306607500002,67.0,75.0
733,125.85343200000003,126.08666328750002,58.0,91.0
734,123.65831400000002,126.23452887500002,39.0,75.0
735,126.03635850000002,126.23605326250002,51.0,75.0
736,125.85343200000003,126.24824836250002,68.0,99.0
737,126.21928500000003,126.34123600000002,58.0,76.0
738,126.58513800000003,126.91135692500002,56.0,76.0
739,126.58513800000003,126.92355202500002,65.0,85.0
740,126.58513800000003,126.95251538750003,60.0,75.0
741,127.13391750000002,127.23757585000003,56.0,73.0
742,126.95099100000002,127.24062462500002,53.0,59.0
743,127.13391750000002,127.26196605000003,63.0,76.0
744,127.68269700000002,127.76958708750003,67.0,63.0
745,127.68269700000002,127.78025780000002,79.0,78.0
746,127.86562350000003,127.94946481250003,68.0,82.0
747,127.86562350000003,127.94946481250003,80.0,85.0
748,127.49977050000003,127.96775746250002,53.0,46.0
749,128.04855000000003,128.24214721250002,53.0,49.0
750,128.2314765,128.3153178125,67.0,93.0
751,128.2314765,128.3153178125,79.0,82.0
752,128.41440300000002,128.636963575,53.0,49.0
753,128.59732950000003,128.66745132500003,77.0,85.0
754,128.59732950000003,128.6964146875,65.0,93.0
755,128.780256,128.96775566250002,53.0,64.0
756,126.58513800000003,129.02720677500002,41.0,75.0
757,128.96318250000002,129.11562125000003,60.0,73.0
758,129.14610900000002,129.34123060000002,63.0,72.0
759,129.32903550000003,129.4067792625,68.0,75.0
760,129.511962,130.10342435,56.0,91.0
761,129.511962,130.12476577500001,59.0,91.0
762,129.511962,130.15372913750002,64.0,80.0
763,130.243668,130.6110453875,64.0,82.0
764,130.243668,130.6140941625,59.0,95.0
765,130.243668,130.62933803750002,56.0,88.0
766,129.511962,130.80769137500002,52.0,93.0
767,130.7924475,130.8488498375,59.0,66.0
768,130.7924475,130.886959525,56.0,72.0
769,130.7924475,130.92659360000002,63.0,78.0
770,131.15830050000002,131.265007625,59.0,82.0
771,131.15830050000002,131.28482466250003,56.0,76.0
772,131.15830050000002,131.28634905,52.0,37.0
773,131.15830050000002,131.41744637500003,64.0,85.0
774,131.5241535,131.74976285000002,52.0,60.0
775,131.70708000000002,131.947933225,59.0,99.0
776,131.70708000000002,131.9860429125,64.0,109.0
777,131.89000650000003,131.98756730000002,52.0,62.0
778,129.511962,131.99214046250003,40.0,80.0
779,131.70708000000002,131.99366485000002,56.0,88.0
780,132.07293300000003,132.2482375625,51.0,62.0
781,132.2558595,132.30006673750003,56.0,40.0
782,132.2558595,132.3046399,59.0,50.0
783,132.07293300000003,132.30768867500004,39.0,78.0
784,132.2558595,132.39762753750003,63.0,28.0
785,132.43878600000002,132.74976105000002,63.0,80.0
786,132.43878600000002,132.76957808750004,49.0,82.0
787,132.43878600000002,132.98756550000002,56.0,75.0
788,132.43878600000002,133.00738253750004,64.0,91.0
789,132.43878600000002,133.02415080000003,59.0,82.0
790,132.98756550000002,133.23451627500003,49.0,44.0
791,133.17049200000002,133.24823576250003,56.0,80.0
792,133.17049200000002,133.25128453750003,59.0,85.0
793,133.17049200000002,133.25738208750002,63.0,91.0
794,133.17049200000002,133.28177228750002,64.0,73.0
795,133.536345,133.76500312500002,49.0,51.0
796,133.71927150000002,133.79701526250003,64.0,93.0
797,133.71927150000002,133.82292985000004,76.0,75.0
798,133.90219800000003,134.02719777500002,49.0,47.0
799,134.08512450000003,134.16896581250003,63.0,69.0
800,134.08512450000003,134.17963652500003,75.0,73.0
801,134.08512450000003,134.3762825125,49.0,46.0
802,134.45097750000002,134.53329442500004,64.0,99.0
803,134.45097750000002,134.55311146250003,76.0,85.0
804,132.43878600000002,134.789391525,37.0,80.0
805,134.63390400000003,134.86561090000004,49.0,67.0
806,134.81683050000004,134.93573272500004,61.0,72.0
807,134.99975700000002,135.26042726250003,64.0,66.0
808,135.73146300000002,135.96774306250003,54.0,61.0
809,135.91438950000003,136.04243805000002,58.0,72.0
810,135.91438950000003,136.04701121250002,61.0,64.0
811,135.91438950000003,136.24213281250002,66.0,78.0
812,136.46316900000002,136.58664438750003,56.0,63.0
813,136.2802425,136.74365630000003,54.0,59.0
814,136.46316900000002,136.76499772500003,61.0,69.0
815,136.64609550000003,136.83511955000003,66.0,62.0
816,136.64609550000003,136.8366439375,58.0,50.0
817,137.01194850000002,137.35188691250002,58.0,80.0
818,137.01194850000002,137.38085027500003,66.0,76.0
819,137.01194850000002,137.38389905000002,61.0,62.0
820,137.37780150000003,137.59426452500003,54.0,72.0
821,137.560728,137.78633735000003,58.0,93.0
822,137.560728,137.81834948750003,66.0,76.0
823,137.74365450000002,137.84883723750002,54.0,76.0
824,135.5485365,137.86103233750003,49.0,55.0
825,135.36561000000003,137.88694692500002,42.0,73.0
826,137.560728,137.90676396250004,61.0,95.0
827,137.92658100000003,138.17658055,58.0,70.0
828,138.29243400000001,138.59731150000002,51.0,93.0
829,138.29243400000001,138.66133577500003,61.0,82.0
830,138.29243400000001,138.67200648750003,58.0,80.0
831,138.29243400000001,138.67200648750003,63.0,80.0
832,138.47536050000002,138.96926205000003,67.0,47.0
833,139.02414000000002,139.21011527500002,58.0,76.0
834,139.02414000000002,139.21773721250003,61.0,88.0
835,139.02414000000002,139.22383476250002,63.0,82.0
836,138.84121350000004,139.24974935000003,51.0,49.0
837,139.02414000000002,139.29700536250002,67.0,88.0
838,139.5729195,139.66438275000002,63.0,91.0
839,139.5729195,139.69334611250002,75.0,80.0
840,139.38999300000003,139.84730925000002,51.0,53.0
841,139.93877250000003,140.01346748750004,65.0,69.0
842,139.93877250000003,140.03785768750004,77.0,82.0
843,140.30462550000001,140.38389365000003,67.0,67.0
844,140.12169900000004,140.38999120000003,51.0,48.0
845,140.30462550000001,140.43419843750002,79.0,91.0
846,140.48755200000002,140.64151513750002,51.0,44.0
847,140.67047850000003,140.75127103750003,80.0,64.0
848,140.67047850000003,140.76346613750002,68.0,66.0
849,138.29243400000001,140.86864887500002,39.0,75.0
850,140.85340500000004,140.97535600000003,51.0,67.0
851,141.21925800000002,141.60797681250003,66.0,67.0
852,141.21925800000002,141.65828160000004,59.0,76.0
853,141.21925800000002,141.67352547500002,63.0,78.0
854,141.76803750000002,142.10797591250002,58.0,49.0
855,141.76803750000002,142.16132947500003,61.0,64.0
856,142.31681700000001,142.39456076250002,59.0,75.0
857,142.31681700000001,142.42657290000002,63.0,70.0
858,142.86559650000004,142.9707792375,63.0,72.0
859,142.86559650000004,142.99516943750004,71.0,80.0
860,142.68267000000003,143.35340050000002,56.0,45.0
861,143.41437600000003,143.53480261250002,61.0,64.0
862,143.41437600000003,143.55461965000003,70.0,72.0
863,141.21925800000002,143.905228775,44.0,72.0
864,143.78022900000002,143.99821641250003,56.0,43.0
865,144.14608200000004,144.29242320000003,66.0,72.0
866,144.14608200000004,144.307667075,61.0,66.0
867,144.51193500000002,144.71467853750002,56.0,34.0
868,144.69486150000003,144.91742207500002,59.0,63.0
869,144.69486150000003,144.94790982500004,66.0,67.0
870,145.24364100000003,145.35187251250002,63.0,72.0
871,146.15827350000004,146.28022450000003,70.0,50.0
872,146.34120000000001,146.50430946250003,71.0,58.0
873,146.52412650000002,146.6140653625,78.0,78.0
874,145.609494,146.80918696250004,56.0,38.0
875,146.70705300000003,146.90065021250004,82.0,70.0
876,144.14608200000004,146.92046725000003,44.0,69.0
877,146.88997950000004,147.19333261250003,83.0,66.0
878,147.25583250000003,147.47381991250003,82.0,54.0
879,147.6216855,147.80461200000002,78.0,40.0
880,147.80461200000002,147.94942881250003,73.0,46.0
881,147.98753850000003,148.12016021250002,73.0,70.0
882,148.35339150000001,148.49515953750003,71.0,45.0
883,148.53631800000002,148.72991521250003,70.0,41.0
884,148.71924450000003,148.92503681250003,71.0,57.0
885,148.90217100000004,149.12015841250002,70.0,50.0
886,149.26802400000003,149.44027978750003,66.0,56.0
887,149.45095050000003,149.59424292500003,63.0,49.0
888,149.99973000000003,150.50582665000002,58.0,66.0
889,149.99973000000003,150.53631440000004,56.0,48.0
890,150.54850950000002,150.8762528125,59.0,64.0
891,151.09728900000002,151.20552051250002,66.0,72.0
892,151.28021550000003,151.54850770000002,56.0,44.0
893,147.07290600000002,151.69637328750002,44.0,66.0
894,151.82899500000002,152.02716537500004,83.0,48.0
895,152.01192150000003,152.06527506250004,90.0,67.0
896,152.92655400000004,153.77868661250002,63.0,82.0
897,152.92655400000004,153.82136946250003,59.0,86.0
898,152.92655400000004,154.03325932500002,56.0,75.0
899,154.02411300000003,154.35490508750001,59.0,50.0
900,154.38996600000002,155.04850140000002,61.0,77.0
901,154.38996600000002,155.09270863750004,58.0,69.0
902,154.38996600000002,155.27411075000003,54.0,54.0
903,154.38996600000002,155.27411075000003,54.0,67.0
904,155.48752500000003,155.94636563750004,66.0,78.0
905,155.85337800000002,156.60032787500003,56.0,55.0
906,155.85337800000002,156.68569357500002,64.0,58.0
907,155.85337800000002,156.75581540000002,52.0,62.0
908,155.85337800000002,156.76953488750001,63.0,62.0
909,155.85337800000002,156.78630315000004,59.0,71.0
910,156.95093700000004,157.28172908750003,59.0,60.0
911,157.13386350000002,157.31221683750002,61.0,61.0
912,157.31679000000003,157.80459400000004,54.0,73.0
913,157.31679000000003,157.84727685000001,63.0,78.0
914,157.31679000000003,157.97380101250002,59.0,71.0
915,157.86556950000002,158.16739822500003,66.0,84.0
916,158.78020200000003,159.10489653750003,56.0,76.0
917,158.78020200000003,159.37318873750002,64.0,78.0
918,159.32898150000003,159.50581045000004,54.0,61.0
919,158.78020200000003,159.72532225000003,49.0,66.0
920,159.32898150000003,159.85337080000002,63.0,72.0
921,160.24361400000004,160.92196643750003,63.0,74.0
922,160.24361400000004,160.94178347500002,54.0,72.0
923,160.24361400000004,161.01800285000002,59.0,61.0
924,160.24361400000004,161.01800285000002,59.0,73.0
925,160.24361400000004,161.2801975,47.0,62.0
926,161.34117300000003,161.52105072500004,61.0,45.0
927,161.70702600000004,162.12013501250001,46.0,69.0
928,161.70702600000004,162.12318378750004,58.0,58.0
929,161.70702600000004,162.12318378750004,58.0,77.0
930,161.52409950000003,162.16434225000003,64.0,57.0
931,161.70702600000004,162.21007387500003,61.0,76.0
932,162.98751150000004,163.13385270000003,56.0,61.0
933,163.17043800000002,163.49513253750004,63.0,80.0
934,163.35336450000003,163.49513253750004,63.0,78.0
935,163.53629100000003,163.74665647500004,56.0,76.0
936,163.17043800000002,163.81677830000004,51.0,75.0
937,163.71921750000004,164.29696036250002,58.0,71.0
938,163.90214400000002,164.31830178750002,55.0,78.0
939,163.90214400000002,164.31830178750002,55.0,87.0
940,163.90214400000002,164.36250902500004,63.0,81.0
941,164.63385000000002,164.88842271250002,59.0,89.0
942,164.63385000000002,164.94634943750003,63.0,82.0
943,164.81677650000003,164.94634943750003,63.0,58.0
944,164.63385000000002,165.61250677500004,56.0,75.0
945,164.99970300000004,165.61250677500004,56.0,74.0
946,165.18262950000002,165.61250677500004,63.0,76.0
947,165.54848250000003,166.15366433750003,71.0,93.0
948,166.09726200000003,166.41738337500004,61.0,73.0
949,166.09726200000003,166.60335865000002,70.0,89.0
950,166.64604150000002,166.87012646250002,61.0,74.0
951,166.64604150000002,167.04085786250002,66.0,89.0
952,166.09726200000003,167.50579605000001,54.0,63.0
953,167.37774750000003,167.55457645000004,59.0,64.0
954,167.37774750000003,167.60488123750002,64.0,69.0
955,168.10945350000003,168.19024603750003,66.0,81.0
956,168.10945350000003,168.19177042500002,59.0,72.0
957,167.56067400000003,168.20091675000003,68.0,87.0
958,167.56067400000003,168.50122108750003,52.0,71.0
959,168.65823300000002,168.71311095000004,58.0,57.0
960,168.65823300000002,168.80457420000002,64.0,79.0
961,169.02408600000004,169.18414668750003,59.0,71.0
962,169.02408600000004,169.20243933750004,63.0,64.0
963,169.02408600000004,169.22682953750004,54.0,67.0
964,169.02408600000004,169.81829188750004,47.0,46.0
965,169.75579200000004,169.93262095000003,59.0,57.0
966,169.93871850000002,169.98749890000002,63.0,74.0
967,170.12164500000003,170.30152272500004,54.0,65.0
968,170.30457150000004,170.94024108750003,59.0,73.0
969,170.48749800000002,170.94024108750003,59.0,77.0
970,170.48749800000002,171.25731368750002,56.0,74.0
971,170.48749800000002,171.34420377500004,64.0,72.0
972,170.48749800000002,171.55152047500002,49.0,71.0
973,171.95091000000002,172.40060431250004,63.0,80.0
974,171.95091000000002,172.60487223750002,59.0,67.0
975,171.95091000000002,172.60487223750002,59.0,73.0
976,171.95091000000002,172.75731098750003,47.0,62.0
977,171.95091000000002,172.81981087500003,54.0,71.0
978,173.41432200000003,174.03932087500004,55.0,72.0
979,173.41432200000003,174.06218668750003,63.0,79.0
980,173.41432200000003,174.21919860000003,51.0,77.0
981,173.41432200000003,174.28932042500003,58.0,76.0
982,174.87773400000003,175.28169668750004,63.0,72.0
983,175.06066050000004,175.28169668750004,63.0,59.0
984,174.87773400000003,175.29236740000002,59.0,74.0
985,175.42651350000003,175.56065960000004,58.0,66.0
986,175.60944000000003,175.66584233750004,59.0,71.0
987,175.79236650000004,175.91431750000004,63.0,72.0
988,174.87773400000003,175.91889066250002,56.0,69.0
989,175.24358700000002,175.91889066250002,56.0,57.0
990,175.97529300000002,176.14297562500002,68.0,78.0
991,176.15821950000003,176.41279221250002,71.0,82.0
992,176.34114600000004,176.68108441250004,70.0,85.0
993,176.34114600000004,177.36096123750002,54.0,68.0
994,177.07285200000004,177.36096123750002,54.0,66.0
995,177.07285200000004,177.39144898750004,56.0,73.0
996,176.70699900000002,177.43108306250002,61.0,44.0
997,177.07285200000004,177.43108306250002,61.0,74.0
998,177.80455800000004,178.38230086250002,63.0,61.0
999,177.80455800000004,178.44022758750003,54.0,69.0
1000,177.80455800000004,178.61705653750002,59.0,72.0
1001,177.80455800000004,178.61705653750002,59.0,74.0
1002,178.53626400000002,178.88534873750004,63.0,62.0
1003,178.90211700000003,179.29236020000002,61.0,67.0
1004,179.26797000000002,179.57894505000004,58.0,66.0
1005,179.26797000000002,179.57894505000004,58.0,79.0
1006,179.26797000000002,179.59876208750003,64.0,81.0
1007,179.99967600000002,180.26187065000002,51.0,62.0
1008,179.99967600000002,180.42193133750004,63.0,61.0
1009,179.99967600000002,180.42193133750004,63.0,73.0
1010,179.99967600000002,180.47985806250003,55.0,75.0
1011,179.99967600000002,180.71918690000004,58.0,67.0
1012,180.73138200000002,181.03016195000004,56.0,65.0
1013,180.73138200000002,181.03016195000004,56.0,74.0
1014,180.73138200000002,181.13229591250004,59.0,82.0
1015,181.28016150000002,181.54845370000004,56.0,59.0
1016,181.46308800000003,181.60333165000003,58.0,71.0
1017,181.09723500000004,181.72528265000003,63.0,60.0
1018,181.64601450000004,181.79388008750004,59.0,80.0
1019,181.82894100000004,182.00272117500003,61.0,74.0
1020,182.01186750000002,182.25881827500004,63.0,71.0
1021,182.19479400000003,182.57741526250004,58.0,77.0
1022,182.19479400000003,182.61095178750003,61.0,88.0
1023,182.56064700000005,182.61095178750003,61.0,48.0
1024,182.19479400000003,183.06674365000003,54.0,70.0
1025,182.92650000000003,183.06674365000003,54.0,59.0
1026,182.92650000000003,183.12924353750003,56.0,69.0
1027,182.92650000000003,183.30302371250002,59.0,70.0
1028,183.29235300000002,183.60332805000004,61.0,61.0
1029,183.65820600000004,184.04387603750004,59.0,67.0
1030,183.65820600000004,184.04387603750004,59.0,70.0
1031,183.65820600000004,184.11704663750004,63.0,67.0
1032,183.65820600000004,184.16277826250004,54.0,69.0
1033,184.20698550000003,184.23290008750004,59.0,27.0
1034,184.38991200000004,184.46003382500004,59.0,75.0
1035,184.38991200000004,184.61857012500002,54.0,77.0
1036,184.38991200000004,184.70393582500003,63.0,78.0
1037,183.65820600000004,184.77863081250004,47.0,64.0
1038,184.75576500000003,184.84265508750002,59.0,64.0
1039,185.12161800000004,185.36856877500003,56.0,70.0
1040,185.12161800000004,185.74814126250004,65.0,83.0
1041,185.12161800000004,185.79997043750004,46.0,76.0
1042,185.48747100000003,185.89295807500002,58.0,71.0
1043,185.85332400000004,185.89295807500002,58.0,76.0
1044,185.85332400000004,186.20393312500002,62.0,82.0
1045,185.85332400000004,186.20545751250003,50.0,79.0
1046,185.85332400000004,186.21765261250005,65.0,81.0
1047,186.58503000000005,187.53929657500004,51.0,75.0
1048,187.13380950000004,187.57435748750004,63.0,81.0
1049,187.49966250000003,187.67954022500004,55.0,75.0
1050,186.95088300000003,187.69021093750004,58.0,59.0
1051,188.04844200000002,188.25270992500003,66.0,64.0
1052,188.04844200000002,188.38380725000005,63.0,84.0
1053,188.04844200000002,188.39752673750004,71.0,95.0
1054,188.59722150000005,189.02252561250003,59.0,70.0
1055,188.04844200000002,189.02862316250003,56.0,74.0
1056,188.41429500000004,189.02862316250003,56.0,50.0
1057,188.96307450000003,189.06215968750004,63.0,90.0
1058,189.51185400000003,189.87465822500005,61.0,85.0
1059,189.51185400000003,189.87770700000004,58.0,78.0
1060,189.51185400000003,189.95849953750005,66.0,87.0
1061,190.06063350000002,190.36855977500002,58.0,65.0
1062,189.51185400000003,190.50423026250004,54.0,74.0
1063,189.87770700000004,190.50423026250004,54.0,54.0
1064,190.42648650000004,190.67953482500005,66.0,92.0
1065,190.42648650000004,190.73288838750003,59.0,87.0
1066,190.97526600000003,191.32435073750003,56.0,80.0
1067,190.97526600000003,191.35026532500004,59.0,88.0
1068,190.97526600000003,191.36246042500002,63.0,86.0
1069,191.52404550000003,191.81672790000005,56.0,78.0
1070,191.34111900000002,191.81977667500004,64.0,44.0
1071,190.97526600000003,191.94934961250004,52.0,79.0
1072,191.88989850000004,192.02252021250004,59.0,83.0
1073,191.88989850000004,192.22373936250003,64.0,81.0
1074,192.43867800000004,192.65818980000003,59.0,73.0
1075,192.43867800000004,192.65818980000003,59.0,82.0
1076,192.43867800000004,192.79233590000004,54.0,84.0
1077,192.43867800000004,192.79233590000004,63.0,82.0
1078,192.43867800000004,193.24965215000003,47.0,77.0
1079,193.17038400000004,193.28013990000002,54.0,82.0
1080,192.98745750000003,193.28623745000004,59.0,64.0
1081,193.35331050000002,193.47221272500002,59.0,82.0
1082,193.53623700000003,193.85026082500002,61.0,78.0
1083,193.71916350000004,193.87007786250004,63.0,72.0
1084,193.90209000000004,194.18410168750003,56.0,84.0
1085,193.90209000000004,194.29843075000002,61.0,73.0
1086,193.90209000000004,194.36702818750004,64.0,84.0
1087,193.90209000000004,194.41733297500002,59.0,87.0
1088,194.45086950000004,194.52099132500004,61.0,42.0
1089,194.45086950000004,194.74660067500002,56.0,83.0
1090,194.45086950000004,194.82739321250003,63.0,91.0
1091,193.90209000000004,194.85178341250003,49.0,70.0
1092,194.81672250000003,194.85940535000003,56.0,59.0
1093,194.81672250000003,194.97068563750003,59.0,94.0
1094,194.81672250000003,194.99964900000003,61.0,52.0
1095,194.81672250000003,195.17647795000002,64.0,81.0
1096,195.36550200000002,195.83653773750004,63.0,78.0
1097,195.36550200000002,195.83958651250003,56.0,82.0
1098,195.36550200000002,195.88989130000004,59.0,78.0
1099,195.36550200000002,195.88989130000004,59.0,88.0
1100,195.91428150000004,196.41732937500004,56.0,78.0
1101,195.91428150000004,196.44324396250002,63.0,87.0
1102,195.91428150000004,196.47982926250003,59.0,83.0
1103,196.46306100000004,196.57739006250003,61.0,81.0
1104,196.82891400000003,197.01184050000003,58.0,78.0
1105,196.82891400000003,197.01184050000003,58.0,89.0
1106,196.82891400000003,197.08501110000003,64.0,90.0
1107,196.82891400000003,197.10635252500003,61.0,85.0
1108,197.56062000000003,197.81976587500003,51.0,68.0
1109,197.56062000000003,197.94933881250003,58.0,72.0
1110,197.56062000000003,197.96153391250004,55.0,82.0
1111,197.56062000000003,198.03470451250004,63.0,65.0
1112,197.56062000000003,198.03470451250004,63.0,77.0
1113,198.29232600000003,198.52708167500003,56.0,79.0
1114,198.29232600000003,198.52708167500003,56.0,79.0
1115,198.29232600000003,198.63836196250003,59.0,91.0
1116,198.84110550000003,198.98744670000002,58.0,76.0
1117,199.02403200000003,199.09567821250005,59.0,78.0
1118,198.47525250000004,199.33500705000003,63.0,79.0
1119,199.20695850000004,199.33500705000003,63.0,73.0
1120,198.65817900000005,199.35025092500004,56.0,72.0
1121,199.38988500000002,199.60939680000004,68.0,79.0
1122,199.57281150000003,199.70390882500004,70.0,85.0
1123,199.75573800000004,200.15055436250003,58.0,87.0
1124,199.75573800000004,200.18409088750005,63.0,97.0
1125,200.48744400000004,200.60787061250002,60.0,75.0
1126,200.67037050000005,200.74354110000004,63.0,90.0
1127,199.75573800000004,200.81061415000005,56.0,80.0
1128,200.30451750000003,200.81061415000005,56.0,80.0
1129,200.85329700000003,200.96610167500003,68.0,89.0
1130,200.12159100000002,201.03469911250002,51.0,57.0
1131,201.03622350000003,201.16274766250004,72.0,80.0
1132,201.21915000000004,201.57890545000004,70.0,92.0
1133,201.76792950000004,201.85481958750003,60.0,81.0
1134,201.76792950000004,201.88835611250005,68.0,90.0
1135,202.13378250000002,202.22372136250004,58.0,78.0
1136,201.58500300000003,202.23591646250003,51.0,64.0
1137,202.13378250000002,202.24658717500003,67.0,94.0
1138,201.21915000000004,202.32433093750004,55.0,84.0
1139,202.68256200000005,203.08042713750004,60.0,84.0
1140,203.04841500000003,203.08042713750004,60.0,66.0
1141,202.68256200000005,203.10481733750004,63.0,94.0
1142,202.68256200000005,203.19932936250004,68.0,93.0
1143,203.41426800000002,203.45695085000003,60.0,64.0
1144,202.68256200000005,203.57585307500003,53.0,78.0
1145,203.23134150000004,203.57585307500003,53.0,65.0
1146,203.59719450000003,203.64902367500002,68.0,44.0
1147,203.59719450000003,203.65664561250003,67.0,36.0
1148,203.78012100000004,203.90054761250005,70.0,77.0
1149,203.96304750000004,204.10786431250003,72.0,78.0
1150,204.14597400000002,204.42493691250004,51.0,67.0
1151,204.32890050000003,204.49963190000003,60.0,61.0
1152,204.51182700000004,204.70847298750004,51.0,49.0
1153,204.14597400000002,204.82585082500003,70.0,85.0
1154,204.69475350000005,204.94475305000003,53.0,72.0
1155,204.87768000000003,205.01030171250002,55.0,80.0
1156,205.24353300000004,205.39902052500003,61.0,66.0
1157,205.42645950000005,205.50877642500004,63.0,81.0
1158,205.60938600000003,205.94322686250004,56.0,79.0
1159,205.60938600000003,206.03926327500002,65.0,94.0
1160,205.97523900000004,206.20237273750004,56.0,63.0
1161,206.15816550000002,206.20237273750004,56.0,61.0
1162,206.15816550000002,206.29231160000003,63.0,92.0
1163,206.52401850000004,206.63987195000004,56.0,78.0
1164,206.52401850000004,206.67645725000003,61.0,86.0
1165,206.70694500000005,206.76182295000004,61.0,60.0
1166,205.60938600000003,206.83804232500003,49.0,74.0
1167,207.07279800000003,207.42188273750003,56.0,91.0
1168,207.07279800000003,207.44627293750003,48.0,81.0
1169,207.07279800000003,207.45389487500003,60.0,87.0
1170,207.43865100000005,207.45389487500003,60.0,63.0
1171,207.07279800000003,207.48438262500002,63.0,95.0
1172,207.62157750000003,207.73438217500004,56.0,63.0
1173,207.98743050000004,208.08346691250003,63.0,93.0
1174,208.53621000000004,208.79230710000004,56.0,78.0
1175,208.53621000000004,208.82127046250002,68.0,98.0
1176,208.53621000000004,208.89139228750003,61.0,92.0
1177,209.08498950000003,209.16730642500005,60.0,62.0
1178,209.08498950000003,209.30145252500003,68.0,96.0
1179,208.53621000000004,209.37767190000002,53.0,78.0
1180,208.53621000000004,209.44169617500003,58.0,72.0
1181,209.45084250000005,209.54687891250003,58.0,82.0
1182,209.45084250000005,209.56364717500003,67.0,86.0
1183,209.99962200000004,210.03773168750004,63.0,89.0
1184,209.99962200000004,210.09260963750003,60.0,86.0
1185,209.99962200000004,210.11395106250004,68.0,91.0
1186,209.99962200000004,210.24047522500004,51.0,72.0
1187,210.18254850000002,210.24047522500004,51.0,55.0
1188,210.36547500000003,210.46456018750004,51.0,36.0
1189,210.73132800000005,210.77401085000002,63.0,91.0
1190,210.73132800000005,210.83955951250005,70.0,85.0
1191,210.73132800000005,211.06821763750003,53.0,74.0
1192,211.09718100000003,211.15053456250004,55.0,62.0
1193,211.46303400000005,211.57583867500003,44.0,78.0
1194,211.46303400000005,211.62157030000003,56.0,77.0
1195,211.46303400000005,211.64748488750004,63.0,90.0
1196,211.46303400000005,211.66120437500004,68.0,92.0
1197,211.46303400000005,211.74047252500003,72.0,81.0
1198,211.82888700000004,212.00114278750004,70.0,77.0
1199,212.01181350000004,212.11394746250005,63.0,83.0
1200,212.01181350000004,212.17187418750004,72.0,78.0
1201,212.19474000000002,212.32736171250005,56.0,25.0
1202,212.19474000000002,212.32736171250005,56.0,80.0
1203,212.37766650000003,212.42644690000003,63.0,84.0
1204,212.37766650000003,212.51791015000003,75.0,86.0
1205,212.74351950000005,212.96760446250005,63.0,85.0
1206,212.74351950000005,213.16272606250004,73.0,87.0
1207,212.92644600000003,213.53315222500004,55.0,72.0
1208,213.29229900000004,213.53315222500004,55.0,57.0
1209,213.47522550000005,213.58345701250005,63.0,85.0
1210,213.47522550000005,213.62461547500004,72.0,86.0
1211,213.65815200000003,213.80754197500005,55.0,64.0
1212,213.84107850000004,213.90967593750003,63.0,79.0
1213,213.10937250000003,213.92187103750004,51.0,63.0
1214,213.84107850000004,213.94321246250004,70.0,84.0
1215,214.38985800000003,214.50723583750005,60.0,77.0
1216,214.38985800000003,214.67491846250005,68.0,92.0
1217,214.75571100000005,214.80601578750003,58.0,68.0
1218,214.75571100000005,214.88833271250004,67.0,65.0
1219,214.38985800000003,214.97064963750003,53.0,79.0
1220,214.75571100000005,214.97064963750003,53.0,42.0
1221,214.57278450000004,215.04686901250003,60.0,60.0
1222,214.93863750000003,215.04686901250003,60.0,79.0
1223,214.93863750000003,215.06821043750003,68.0,89.0
1224,215.12156400000003,215.32430753750003,53.0,64.0
1225,215.30449050000004,215.34564896250004,63.0,80.0
1226,215.30449050000004,215.43406343750004,70.0,82.0
1227,215.48741700000005,215.66424595000004,60.0,64.0
1228,215.67034350000003,215.77857501250003,63.0,27.0
1229,215.67034350000003,215.91272111250004,67.0,82.0
1230,215.67034350000003,215.95692835000003,58.0,74.0
1231,216.40204950000003,216.45387867500003,55.0,67.0
1232,215.85327000000004,216.74198791250004,51.0,67.0
1233,216.21912300000002,216.74198791250004,51.0,71.0
1234,216.58497600000004,216.82125606250003,58.0,56.0
1235,216.03619650000005,216.88832911250003,60.0,65.0
1236,216.76790250000005,216.88832911250003,60.0,74.0
1237,217.13375550000003,217.29838935000004,60.0,48.0
1238,217.31668200000004,217.64137653750004,61.0,66.0
1239,217.31668200000004,217.64137653750004,61.0,77.0
1240,217.31668200000004,217.80296161250004,56.0,82.0
1241,217.31668200000004,217.83649813750003,53.0,78.0
1242,217.86546150000004,218.12003421250003,61.0,58.0
1243,218.04838800000005,218.12003421250003,61.0,81.0
1244,218.04838800000005,218.25570470000002,53.0,82.0
1245,218.23131450000002,218.29533877500003,61.0,59.0
1246,218.04838800000005,218.30296071250004,56.0,85.0
1247,217.31668200000004,218.40052151250003,49.0,73.0
1248,218.41424100000003,218.60936260000003,58.0,63.0
1249,218.59716750000004,218.91576448750004,61.0,77.0
1250,218.78009400000005,219.06667885000005,60.0,64.0
1251,218.78009400000005,219.06667885000005,60.0,79.0
1252,218.78009400000005,219.29686136250004,56.0,80.0
1253,218.78009400000005,219.36393441250004,51.0,78.0
1254,219.32887350000004,219.59869008750005,60.0,57.0
1255,219.51180000000005,219.59869008750005,60.0,89.0
1256,219.51180000000005,219.87003106250003,51.0,85.0
1257,219.87765300000004,219.91423830000005,60.0,71.0
1258,219.51180000000005,219.97673818750005,56.0,91.0
1259,218.78009400000005,219.99960400000003,48.0,80.0
1260,220.24350600000002,220.53771278750003,58.0,80.0
1261,220.24350600000002,220.62765165000005,56.0,80.0
1262,220.24350600000002,220.68252960000004,61.0,86.0
1263,220.24350600000002,220.74960265000004,53.0,80.0
1264,220.79228550000005,221.04076066250005,58.0,43.0
1265,220.97521200000003,221.31210163750004,53.0,82.0
1266,220.24350600000002,221.32429673750005,46.0,79.0
1267,220.97521200000003,221.32734551250005,61.0,89.0
1268,221.34106500000004,221.38832101250003,58.0,61.0
1269,220.97521200000003,221.39594295000003,56.0,96.0
1270,221.70691800000003,221.97673458750003,60.0,74.0
1271,221.70691800000003,221.97673458750003,60.0,80.0
1272,222.07277100000005,222.13527088750004,60.0,48.0
1273,221.70691800000003,222.17490496250005,52.0,85.0
1274,222.25569750000003,222.55905061250004,55.0,82.0
1275,222.25569750000003,222.58039203750005,58.0,81.0
1276,222.62155050000004,222.66270896250003,55.0,87.0
1277,222.62155050000004,222.70234303750004,60.0,82.0
1278,222.80447700000005,222.86087933750005,60.0,37.0
1279,221.70691800000003,222.86240372500004,48.0,71.0
1280,223.17033000000004,223.21758601250005,60.0,77.0
1281,223.17033000000004,223.49502453750003,68.0,106.0
1282,223.35325650000004,223.60630482500005,60.0,57.0
1283,223.53618300000005,223.60630482500005,60.0,65.0
1284,223.71910950000003,223.77398745000005,60.0,53.0
1285,223.71910950000003,223.98282853750004,67.0,87.0
1286,223.17033000000004,224.09258443750005,53.0,78.0
1287,223.90203600000004,224.09258443750005,53.0,64.0
1288,224.08496250000005,224.14898677500003,60.0,83.0
1289,224.26788900000003,224.35630347500003,53.0,60.0
1290,224.08496250000005,224.43862040000005,68.0,102.0
1291,224.63374200000004,225.02398520000003,58.0,82.0
1292,224.63374200000004,225.06819243750004,67.0,96.0
1293,225.18252150000004,225.40508207500005,58.0,84.0
1294,225.18252150000004,225.57276470000005,63.0,96.0
1295,224.63374200000004,225.61849632500005,51.0,75.0
1296,225.54837450000005,225.61849632500005,51.0,73.0
1297,224.99959500000003,225.65813040000003,60.0,59.0
1298,225.91422750000004,225.97215422500003,65.0,83.0
1299,225.73130100000003,225.97367861250004,63.0,82.0
1300,226.09715400000005,226.43099486250003,56.0,80.0
1301,226.09715400000005,226.46148261250005,61.0,82.0
1302,226.09715400000005,226.46910455000003,65.0,96.0
1303,226.64593350000004,226.69014073750003,56.0,68.0
1304,226.64593350000004,226.76483572500004,63.0,89.0
1305,226.46300700000003,227.04379863750003,61.0,51.0
1306,227.01178650000003,227.04379863750003,61.0,93.0
1307,227.01178650000003,227.11392046250003,56.0,79.0
1308,226.09715400000005,227.22215197500003,49.0,78.0
1309,227.19471300000004,227.31971277500003,61.0,71.0
1310,227.56056600000005,227.72824862500005,56.0,76.0
1311,227.56056600000005,227.72824862500005,56.0,79.0
1312,227.56056600000005,227.73434617500004,60.0,79.0
1313,227.56056600000005,227.90812635000003,63.0,93.0
1314,227.56056600000005,227.91727267500005,68.0,99.0
1315,227.92641900000004,228.15965028750003,56.0,59.0
1316,228.10934550000005,228.16727222500003,58.0,76.0
1317,228.29227200000005,228.42336932500004,56.0,10.0
1318,228.10934550000005,228.42336932500004,67.0,92.0
1319,228.47519850000003,228.52397890000003,67.0,28.0
1320,228.47519850000003,228.60629582500005,60.0,91.0
1321,228.47519850000003,228.62763725000005,68.0,106.0
1322,227.56056600000005,228.66879571250004,51.0,68.0
1323,228.65812500000004,228.71452733750004,56.0,69.0
1324,229.02397800000003,229.26788000000005,55.0,80.0
1325,229.02397800000003,229.35019692500003,58.0,85.0
1326,229.02397800000003,229.45233088750004,64.0,87.0
1327,229.02397800000003,229.45690405000005,67.0,98.0
1328,229.38983100000004,229.53769658750005,55.0,61.0
1329,229.02397800000003,229.85172041250004,60.0,82.0
1330,229.57275750000005,229.85172041250004,60.0,78.0
1331,229.75568400000003,229.88220816250004,55.0,63.0
1332,229.57275750000005,229.89745203750005,65.0,94.0
1333,230.12153700000005,230.25263432500003,64.0,82.0
1334,230.30446350000005,230.42184133750004,65.0,83.0
1335,230.48739000000003,230.73129200000005,60.0,78.0
1336,230.67031650000004,230.73129200000005,60.0,63.0
1337,230.48739000000003,230.96147451250005,67.0,92.0
1338,230.48739000000003,231.10324255000003,53.0,81.0
1339,230.85324300000005,231.10324255000003,53.0,54.0
1340,231.03616950000003,231.16726682500004,60.0,88.0
1341,231.03616950000003,231.23129110000005,68.0,101.0
1342,231.40202250000004,231.45080290000004,53.0,75.0
1343,231.95080200000004,232.19317961250005,61.0,78.0
1344,231.95080200000004,232.19317961250005,61.0,86.0
1345,231.95080200000004,232.42183773750003,65.0,84.0
1346,231.95080200000004,232.51634976250003,56.0,91.0
1347,232.49958150000003,232.80750777500003,61.0,53.0
1348,232.68250800000004,232.80750777500003,61.0,88.0
1349,232.68250800000004,232.88677592500005,56.0,94.0
1350,233.04836100000003,233.09714140000003,61.0,71.0
1351,231.95080200000004,233.12153160000005,49.0,80.0
1352,232.68250800000004,233.18250710000004,65.0,98.0
1353,233.41421400000004,233.62610386250003,51.0,80.0
1354,233.41421400000004,233.62610386250003,51.0,85.0
1355,233.41421400000004,233.72976221250005,58.0,93.0
1356,233.78006700000003,233.82274985000004,51.0,71.0
1357,233.41421400000004,233.89439606250005,63.0,100.0
1358,233.41421400000004,233.92031065000003,67.0,95.0
1359,234.14592000000005,234.34104160000004,60.0,86.0
1360,234.14592000000005,234.34104160000004,60.0,89.0
1361,234.14592000000005,234.43555362500004,67.0,90.0
1362,234.14592000000005,234.44774872500005,64.0,90.0
1363,234.14592000000005,234.48280963750005,48.0,87.0
1364,234.51177300000003,234.61238257500005,60.0,68.0
1365,234.87762600000005,235.07122321250003,60.0,90.0
1366,234.87762600000005,235.09866218750005,56.0,92.0
1367,234.87762600000005,235.10628412500003,63.0,96.0
1368,235.42640550000004,235.54530772500004,55.0,81.0
1369,235.60933200000005,235.66268556250003,56.0,79.0
1370,235.79225850000003,235.88677052500003,60.0,51.0
1371,234.87762600000005,236.01177030000005,53.0,92.0
1372,235.24347900000004,236.01177030000005,53.0,68.0
1373,235.97518500000004,236.15811150000005,65.0,88.0
1374,236.34103800000005,236.40658666250005,51.0,76.0
1375,236.34103800000005,236.40658666250005,51.0,79.0
1376,236.15811150000005,236.72823242500004,68.0,94.0
1377,236.34103800000005,236.74347630000005,58.0,94.0
1378,236.34103800000005,236.78158598750005,67.0,96.0
1379,236.70689100000004,236.91115892500005,51.0,61.0
1380,236.88981750000005,237.14591460000005,58.0,78.0
1381,237.07274400000003,237.18707306250005,51.0,57.0
1382,236.88981750000005,237.20841448750005,65.0,94.0
1383,237.25567050000004,237.29835335000004,58.0,71.0
1384,237.25567050000004,237.36390201250003,63.0,98.0
1385,237.80445000000003,238.05444955000004,61.0,82.0
1386,237.80445000000003,238.05444955000004,61.0,90.0
1387,237.80445000000003,238.08798607500003,56.0,98.0
1388,237.80445000000003,238.23280288750004,65.0,87.0
1389,238.17030300000005,238.37457092500003,61.0,48.0
1390,238.35322950000005,238.50566825000004,56.0,85.0
1391,238.35322950000005,238.65810700000003,63.0,95.0
1392,237.80445000000003,238.75261902500003,49.0,80.0
1393,238.53615600000003,238.80902136250003,61.0,40.0
1394,238.71908250000004,238.80902136250003,61.0,93.0
1395,238.71908250000004,238.85780176250003,56.0,91.0
1396,239.26786200000004,239.73432457500004,60.0,89.0
1397,239.26786200000004,239.74651967500003,58.0,86.0
1398,239.26786200000004,240.02243381250005,63.0,92.0
1399,239.45078850000004,240.17792133750004,56.0,78.0
1400,239.99956800000004,240.17792133750004,56.0,91.0
1401,239.81664150000003,240.25718948750003,51.0,71.0
1402,240.18249450000005,240.31511621250004,58.0,85.0
1403,240.36542100000005,240.50414026250004,60.0,82.0
1404,240.54834750000003,240.68249360000004,65.0,90.0
1405,240.73127400000004,240.77853001250006,65.0,27.0
1406,240.73127400000004,240.94468825000004,48.0,83.0
1407,240.73127400000004,240.99956620000003,60.0,82.0
1408,240.73127400000004,240.99956620000003,60.0,85.0
1409,240.73127400000004,241.08188312500005,64.0,92.0
1410,241.28005350000004,241.52852866250004,60.0,75.0
1411,241.28005350000004,241.63676017500003,65.0,102.0
1412,241.46298000000004,241.78310137500003,52.0,81.0
1413,241.46298000000004,241.78310137500003,52.0,87.0
1414,241.82883300000003,241.94316206250005,60.0,85.0
1415,241.82883300000003,242.00718633750003,67.0,94.0
1416,242.19468600000005,242.36541740000004,67.0,94.0
1417,242.19468600000005,242.42944167500005,60.0,78.0
1418,242.37761250000005,242.42944167500005,60.0,64.0
1419,242.37761250000005,242.48889278750005,65.0,83.0
1420,242.56053900000003,242.67334367500004,67.0,82.0
1421,242.74346550000004,242.92181883750004,60.0,88.0
1422,242.19468600000005,243.10322095000004,53.0,85.0
1423,242.92639200000005,243.10322095000004,53.0,82.0
1424,243.10931850000003,243.11998921250003,60.0,70.0
1425,242.74346550000004,243.17181838750005,68.0,104.0
1426,243.47517150000004,243.52395190000004,65.0,83.0
1427,243.29224500000004,243.54681771250003,63.0,82.0
1428,243.65809800000005,243.97821937500004,61.0,81.0
1429,243.65809800000005,243.97821937500004,61.0,82.0
1430,243.65809800000005,244.11236547500005,65.0,107.0
1431,243.65809800000005,244.22821892500005,56.0,94.0
1432,244.20687750000005,244.25870667500004,61.0,59.0
1433,243.65809800000005,244.28919442500003,49.0,79.0
1434,244.38980400000005,244.54834030000004,61.0,57.0
1435,244.38980400000005,244.59864508750005,63.0,93.0
1436,244.38980400000005,244.72364486250004,65.0,43.0
1437,244.38980400000005,244.76175455000003,56.0,82.0
1438,244.75565700000004,244.80443740000004,61.0,59.0
1439,244.75565700000004,244.85321780000004,49.0,73.0
1440,244.93858350000005,245.03157113750004,61.0,49.0
1441,245.12151000000003,245.37608271250005,51.0,81.0
1442,245.12151000000003,245.37608271250005,51.0,90.0
1443,245.12151000000003,245.62608226250003,67.0,93.0
1444,245.12151000000003,245.68400898750005,58.0,91.0
1445,245.12151000000003,245.73431377500003,63.0,97.0
1446,245.85321600000003,245.93095976250004,58.0,92.0
1447,245.85321600000003,245.96906945000003,67.0,89.0
1448,245.85321600000003,245.97669138750004,63.0,99.0
1449,245.67028950000005,245.97974016250004,51.0,51.0
1450,246.21906900000005,246.35321510000006,51.0,79.0
1451,246.58492200000003,246.63217801250005,60.0,77.0
1452,246.58492200000003,246.90961653750006,68.0,106.0
1453,246.76784850000004,247.02089682500005,60.0,57.0
1454,246.95077500000005,247.02089682500005,60.0,65.0
1455,247.13370150000003,247.18857945000005,60.0,53.0
1456,247.13370150000003,247.39742053750004,67.0,87.0
1457,246.58492200000003,247.50717643750005,53.0,78.0
1458,247.31662800000004,247.50717643750005,53.0,64.0
1459,247.49955450000004,247.56357877500005,60.0,83.0
1460,247.68248100000005,247.77089547500003,53.0,60.0
1461,247.49955450000004,247.85321240000005,68.0,102.0
1462,248.04833400000004,248.43857720000005,58.0,82.0
1463,248.04833400000004,248.48278443750004,67.0,96.0
1464,248.59711350000003,248.81967407500005,58.0,84.0
1465,248.59711350000003,248.98735670000005,63.0,96.0
1466,248.04833400000004,249.03308832500005,51.0,75.0
1467,248.96296650000005,249.03308832500005,51.0,73.0
1468,248.41418700000006,249.07272240000003,60.0,59.0
1469,249.32881950000004,249.38674622500005,65.0,83.0
1470,249.14589300000003,249.38827061250004,63.0,82.0
1471,249.51174600000004,249.84558686250006,56.0,80.0
1472,249.51174600000004,249.87607461250005,61.0,82.0
1473,249.51174600000004,249.88369655000005,65.0,96.0
1474,250.06052550000004,250.10473273750003,56.0,68.0
1475,250.06052550000004,250.17942772500004,63.0,89.0
1476,249.87759900000003,250.45839063750003,61.0,51.0
1477,250.42637850000006,250.45839063750003,61.0,93.0
1478,250.42637850000006,250.52851246250003,56.0,79.0
1479,249.51174600000004,250.63674397500003,49.0,78.0
1480,250.60930500000003,250.73430477500006,61.0,71.0
1481,250.97515800000005,251.14284062500005,56.0,76.0
1482,250.97515800000005,251.14284062500005,56.0,79.0
1483,250.97515800000005,251.14893817500004,60.0,79.0
1484,250.97515800000005,251.32271835000003,63.0,93.0
1485,250.97515800000005,251.33186467500005,68.0,99.0
1486,251.34101100000004,251.57424228750006,56.0,59.0
1487,251.52393750000005,251.58186422500003,58.0,76.0
1488,251.70686400000005,251.83796132500004,56.0,10.0
1489,251.52393750000005,251.83796132500004,67.0,92.0
1490,251.88979050000003,251.93857090000003,67.0,28.0
1491,251.88979050000003,252.02088782500005,60.0,91.0
1492,251.88979050000003,252.04222925000005,68.0,106.0
1493,250.97515800000005,252.08338771250004,51.0,68.0
1494,252.07271700000004,252.12911933750004,56.0,69.0
1495,252.43857000000006,252.68247200000005,55.0,80.0
1496,252.43857000000006,252.76478892500003,58.0,85.0
1497,252.43857000000006,252.86692288750004,64.0,87.0
1498,252.43857000000006,252.87149605000005,67.0,98.0
1499,252.80442300000004,252.95228858750005,55.0,61.0
1500,252.43857000000006,253.26631241250004,60.0,82.0
1501,252.98734950000005,253.26631241250004,60.0,78.0
1502,253.17027600000006,253.29680016250003,55.0,63.0
1503,252.98734950000005,253.31204403750004,65.0,94.0
1504,253.53612900000005,253.66722632500003,64.0,82.0
1505,253.71905550000005,253.83643333750004,65.0,83.0
1506,253.90198200000003,254.14588400000005,60.0,78.0
1507,254.08490850000004,254.14588400000005,60.0,63.0
1508,253.90198200000003,254.37606651250005,67.0,92.0
1509,253.90198200000003,254.51783455000003,53.0,81.0
1510,254.26783500000005,254.51783455000003,53.0,54.0
1511,254.45076150000006,254.58185882500004,60.0,88.0
1512,254.45076150000006,254.64588310000005,68.0,101.0
1513,254.81661450000004,254.86539490000004,53.0,75.0
1514,255.36539400000004,255.60777161250004,61.0,78.0
1515,255.36539400000004,255.60777161250004,61.0,86.0
1516,255.36539400000004,255.83642973750005,65.0,84.0
1517,255.36539400000004,255.93094176250005,56.0,91.0
1518,255.91417350000003,256.22209977500006,61.0,53.0
1519,256.09710000000007,256.22209977500006,61.0,88.0
1520,256.09710000000007,256.301367925,56.0,94.0
1521,256.462953,256.5117334,61.0,71.0
1522,255.36539400000004,256.53612360000005,49.0,80.0
1523,256.09710000000007,256.59709910000004,65.0,98.0
1524,256.82880600000004,257.04069586250006,51.0,80.0
1525,256.82880600000004,257.04069586250006,51.0,85.0
1526,256.82880600000004,257.14435421250005,58.0,93.0
1527,257.19465900000006,257.23734185000006,51.0,71.0
1528,256.82880600000004,257.3089880625,63.0,100.0
1529,256.82880600000004,257.33490265000006,67.0,95.0
1530,257.560512,257.75563360000007,60.0,86.0
1531,257.560512,257.75563360000007,60.0,89.0
1532,257.560512,257.85014562500004,67.0,90.0
1533,257.560512,257.862340725,64.0,90.0
1534,257.560512,257.8974016375,48.0,87.0
1535,257.92636500000003,258.02697457500005,60.0,68.0
1536,258.29221800000005,258.48581521250003,60.0,90.0
1537,258.29221800000005,258.5132541875,56.0,92.0
1538,258.29221800000005,258.52087612500003,63.0,96.0
1539,258.84099750000007,258.95989972500007,55.0,81.0
1540,259.023924,259.07727756250006,56.0,79.0
1541,259.20685050000003,259.30136252500006,60.0,51.0
1542,258.29221800000005,259.42636230000005,53.0,92.0
1543,258.65807100000006,259.42636230000005,53.0,68.0
1544,259.38977700000004,259.57270350000005,65.0,88.0
1545,259.75563000000005,259.8211786625,51.0,76.0
1546,259.75563000000005,259.8211786625,51.0,79.0
1547,259.57270350000005,260.1428244250001,68.0,94.0
1548,259.75563000000005,260.1580683,58.0,94.0
1549,259.75563000000005,260.19617798750005,67.0,96.0
1550,260.12148300000007,260.325750925,51.0,61.0
1551,260.3044095,260.56050660000005,58.0,78.0
1552,260.487336,260.60166506250005,51.0,57.0
1553,260.3044095,260.62300648750005,65.0,94.0
1554,260.67026250000004,260.71294535000004,58.0,71.0
1555,260.67026250000004,260.77849401250006,63.0,98.0
1556,261.21904200000006,261.46904155000004,61.0,82.0
1557,261.21904200000006,261.46904155000004,61.0,90.0
1558,261.21904200000006,261.50257807500003,56.0,98.0
1559,261.21904200000006,261.64739488750007,65.0,87.0
1560,261.584895,261.789162925,61.0,48.0
1561,261.7678215,261.92026025000007,56.0,85.0
1562,261.7678215,262.07269900000006,63.0,95.0
1563,261.21904200000006,262.16721102500003,49.0,80.0
1564,261.95074800000003,262.22361336250003,61.0,40.0
1565,262.13367450000004,262.22361336250003,61.0,93.0
1566,262.13367450000004,262.27239376250003,56.0,91.0
1567,262.68245400000006,263.14891657500004,60.0,89.0
1568,262.68245400000006,263.16111167500003,58.0,86.0
1569,262.68245400000006,263.43702581250005,63.0,92.0
1570,262.8653805000001,263.59251333750007,56.0,78.0
1571,263.41416000000004,263.59251333750007,56.0,91.0
1572,263.23123350000003,263.6717814875,51.0,71.0
1573,263.59708650000005,263.72970821250004,58.0,85.0
1574,263.78001300000005,263.91873226250004,60.0,82.0
1575,263.96293950000006,264.09708560000007,65.0,90.0
1576,264.14586600000007,264.19312201250006,65.0,27.0
1577,264.14586600000007,264.35928025000004,48.0,83.0
1578,264.14586600000007,264.41415820000003,60.0,82.0
1579,264.14586600000007,264.41415820000003,60.0,85.0
1580,264.14586600000007,264.496475125,64.0,92.0
1581,264.69464550000004,264.94312066250006,60.0,75.0
1582,264.69464550000004,265.05135217500003,65.0,102.0
1583,264.87757200000004,265.19769337500003,52.0,81.0
1584,264.87757200000004,265.19769337500003,52.0,87.0
1585,265.24342500000006,265.3577540625,60.0,85.0
1586,265.24342500000006,265.42177833750003,67.0,94.0
1587,265.6092780000001,265.78000940000004,67.0,94.0
1588,265.6092780000001,265.84403367500005,60.0,78.0
1589,265.7922045,265.84403367500005,60.0,64.0
1590,265.7922045,265.9034847875,65.0,83.0
1591,265.97513100000003,266.08793567500004,67.0,82.0
1592,266.15805750000004,266.33641083750007,60.0,88.0
1593,265.6092780000001,266.51781295000006,53.0,85.0
1594,266.34098400000005,266.51781295000006,53.0,82.0
1595,266.52391050000006,266.53458121250003,60.0,70.0
1596,266.15805750000004,266.58641038750005,68.0,104.0
1597,266.8897635000001,266.93854390000007,65.0,83.0
1598,266.70683700000006,266.96140971250003,63.0,82.0
1599,267.07269,267.39281137500006,61.0,81.0
1600,267.07269,267.39281137500006,61.0,82.0
1601,267.07269,267.5269574750001,65.0,107.0
1602,267.07269,267.64281092500005,56.0,94.0
1603,267.62146950000005,267.67329867500007,61.0,59.0
1604,267.07269,267.70378642500003,49.0,79.0
1605,267.80439600000005,267.96293230000003,61.0,57.0
1606,267.80439600000005,268.01323708750004,63.0,93.0
1607,267.80439600000005,268.13823686250004,65.0,43.0
1608,267.80439600000005,268.17634655000006,56.0,82.0
1609,268.17024900000007,268.21902940000007,61.0,59.0
1610,268.17024900000007,268.26780980000007,49.0,73.0
1611,268.3531755,268.44616313750004,61.0,49.0
1612,268.536102,268.79067471250005,51.0,81.0
1613,268.536102,268.79067471250005,51.0,90.0
1614,268.536102,269.04067426250003,67.0,93.0
1615,268.536102,269.09860098750005,58.0,91.0
1616,268.536102,269.14890577500006,63.0,97.0
1617,269.26780800000006,269.34555176250007,58.0,92.0
1618,269.26780800000006,269.38366145000003,67.0,89.0
1619,269.26780800000006,269.39128338750004,63.0,99.0
1620,269.08488150000005,269.39433216250006,51.0,51.0
1621,269.6336610000001,269.7678071,51.0,79.0
1622,269.99951400000003,270.44006198750003,64.0,58.0
1623,269.99951400000003,270.45835463750007,52.0,82.0
1624,269.99951400000003,270.4735985125001,57.0,80.0
1625,269.99951400000003,270.47817167500006,61.0,78.0
1626,269.99951400000003,270.59859828750007,45.0,78.0
1627,269.99951400000003,270.85926855,33.0,70.0
1628,270.54829350000006,270.86231732500005,52.0,93.0
1629,270.54829350000006,270.90957333750003,59.0,75.0
1630,270.73122000000006,270.9431098625,45.0,53.0
1631,271.097073,271.16414605000006,52.0,88.0
1632,271.097073,271.38823101250006,61.0,95.0
1633,271.46292600000004,271.81201073750003,59.0,85.0
1634,271.46292600000004,271.82877900000005,64.0,85.0
1635,272.19463200000007,272.31963177500006,59.0,95.0
1636,272.01170550000006,272.46292420000003,56.0,80.0
1637,271.82877900000005,272.5528630625,50.0,46.0
1638,271.46292600000004,272.57877765000006,44.0,72.0
1639,272.3775585,272.5940215250001,64.0,70.0
1640,272.560485,272.73883833750006,66.0,91.0
1641,272.74341150000004,272.86231372500004,71.0,91.0
1642,272.92633800000004,273.19158142500004,61.0,75.0
1643,272.92633800000004,273.39737373750006,64.0,75.0
1644,272.92633800000004,273.40956883750005,69.0,76.0
1645,273.47511750000007,273.62755625000005,59.0,91.0
1646,273.47511750000007,273.79981203750003,68.0,97.0
1647,273.6580440000001,273.8409705,54.0,58.0
1648,273.8409705,273.8760314125,64.0,66.0
1649,272.92633800000004,273.92328742500007,42.0,67.0
1650,273.8409705,273.94005568750003,59.0,76.0
1651,273.29219100000006,273.95072640000006,49.0,66.0
1652,273.8409705,274.28456726250005,69.0,88.0
1653,274.38975000000005,274.45377427500006,69.0,59.0
1654,274.38975000000005,274.4979815125001,37.0,72.0
1655,274.38975000000005,274.80133462500004,49.0,80.0
1656,274.38975000000005,274.91566368750006,59.0,91.0
1657,274.38975000000005,274.95682215000005,68.0,91.0
1658,274.9385295000001,275.10621212500007,56.0,91.0
1659,274.75560300000006,275.1275535500001,52.0,58.0
1660,275.121456,275.24188261250004,59.0,91.0
1661,275.30438250000003,275.5132235875,64.0,88.0
1662,275.48730900000004,275.7784670125001,69.0,75.0
1663,275.85316200000005,275.8775522,69.0,53.0
1664,275.85316200000005,276.13822246250004,62.0,88.0
1665,275.85316200000005,276.16871021250006,66.0,91.0
1666,276.21901500000007,276.3455391625001,61.0,82.0
1667,276.21901500000007,276.36383181250005,64.0,82.0
1668,276.03608850000006,276.40041711250007,50.0,54.0
1669,276.4019415,276.514746175,62.0,75.0
1670,276.4019415,276.6336484,66.0,85.0
1671,276.58486800000003,276.7449286875,50.0,82.0
1672,275.85316200000005,276.8074285750001,38.0,82.0
1673,276.76779450000004,276.84858703750007,62.0,72.0
1674,276.95072100000004,277.00102578750005,62.0,43.0
1675,276.76779450000004,277.039135475,69.0,67.0
1676,277.13364750000005,277.50254927500004,64.0,88.0
1677,277.13364750000005,277.51017121250004,61.0,85.0
1678,277.6824270000001,277.83181697500004,61.0,82.0
1679,277.49950050000007,277.9705362375,49.0,80.0
1680,277.31657400000006,278.11535305000007,37.0,78.0
1681,277.8653535,278.14736518750004,62.0,80.0
1682,278.04828000000003,278.1930968125001,49.0,75.0
1683,278.23120650000004,278.39584035000007,64.0,91.0
1684,278.77998600000006,279.06047330000007,57.0,97.0
1685,278.77998600000006,279.06047330000007,69.0,72.0
1686,278.77998600000006,279.07419278750007,62.0,76.0
1687,278.77998600000006,279.10468053750003,66.0,88.0
1688,279.145839,279.3058996875001,64.0,59.0
1689,279.145839,279.4263263,54.0,69.0
1690,279.32876550000003,279.49187496250005,57.0,88.0
1691,279.32876550000003,279.62449667500005,66.0,88.0
1692,279.51169200000004,279.65955758750005,54.0,63.0
1693,278.77998600000006,279.69461850000005,47.0,72.0
1694,279.69461850000005,279.80742317500005,62.0,93.0
1695,279.69461850000005,279.8379109250001,69.0,82.0
1696,279.87754500000005,280.0558983375,69.0,38.0
1697,280.24339800000007,280.350105125,57.0,82.0
1698,280.24339800000007,280.3851660375,62.0,82.0
1699,280.24339800000007,280.59095835000005,69.0,82.0
1700,280.60925100000003,280.65498262500006,64.0,54.0
1701,280.60925100000003,280.7129093500001,59.0,57.0
1702,280.60925100000003,280.87754320000005,68.0,69.0
1703,280.79217750000004,280.89736023750004,64.0,85.0
1704,280.79217750000004,280.9369943125001,69.0,80.0
1705,280.4263245,281.21443283750006,47.0,59.0
1706,280.24339800000007,281.22815232500005,40.0,75.0
1707,281.15803050000005,281.26168885000004,64.0,64.0
1708,281.15803050000005,281.2799815000001,71.0,80.0
1709,280.97510400000004,281.6168711375,52.0,78.0
1710,281.7068100000001,281.94156567500005,64.0,66.0
1711,281.7068100000001,281.99187046250006,69.0,72.0
1712,281.7068100000001,282.02998015000003,73.0,70.0
1713,282.07266300000003,282.19918716250004,64.0,61.0
1714,282.07266300000003,282.22815052500005,71.0,59.0
1715,282.25558950000004,282.3714429500001,64.0,59.0
1716,282.25558950000004,282.45223548750005,73.0,75.0
1717,281.8897365,282.66260096250005,52.0,58.0
1718,282.62144250000006,282.77540563750006,64.0,57.0
1719,282.43851600000005,282.89278347500004,57.0,64.0
1720,282.62144250000006,282.9461370375,76.0,75.0
1721,281.7068100000001,282.94766142500004,45.0,64.0
1722,282.80436900000007,283.14430741250004,52.0,61.0
1723,283.170222,283.44461175000004,64.0,66.0
1724,283.170222,283.47205072500003,71.0,75.0
1725,283.53607500000004,283.67784303750005,69.0,70.0
1726,283.71900150000005,283.91717187500007,71.0,61.0
1727,283.35314850000003,284.05589113750005,52.0,64.0
1728,283.90192800000005,284.19613478750006,56.0,66.0
1729,284.08485450000006,284.26625661250006,64.0,69.0
1730,284.26778100000007,284.49034157500006,66.0,44.0
1731,283.170222,284.52997565000004,44.0,67.0
1732,284.4507075,284.5833292125001,68.0,69.0
1733,284.63363400000003,284.98576751250005,69.0,91.0
1734,284.99948700000004,285.1580233,68.0,57.0
1735,284.81656050000004,285.44308376250007,49.0,53.0
1736,285.18241350000005,285.465949575,69.0,64.0
1737,285.36534000000006,285.703754025,54.0,44.0
1738,284.63363400000003,285.74643687500003,42.0,66.0
1739,285.54826650000007,285.795217275,71.0,63.0
1740,285.7311930000001,286.01320468750004,49.0,59.0
1741,285.9141195,286.06503386250006,66.0,54.0
1742,285.9141195,286.43241125000003,68.0,54.0
1743,286.46289900000005,286.61076458750006,66.0,52.0
1744,286.64582550000006,286.82570322500004,64.0,69.0
1745,286.82875200000007,287.00100778750004,52.0,53.0
1746,286.27997250000004,287.0406418625,49.0,62.0
1747,286.09704600000003,287.0619832875,40.0,56.0
1748,287.0116785000001,287.15039776250006,59.0,55.0
1749,287.194605,287.56045800000004,64.0,59.0
1750,287.56045800000004,287.79978683750005,57.0,58.0
1751,287.56045800000004,287.80740877500006,62.0,46.0
1752,287.56045800000004,287.91106712500005,66.0,62.0
1753,287.92631100000006,288.06655465000006,57.0,47.0
1754,287.92631100000006,288.13057892500007,64.0,64.0
1755,288.10923750000006,288.2159446250001,57.0,43.0
1756,288.10923750000006,288.32265175000003,66.0,63.0
1757,288.29216400000007,288.4750905000001,50.0,53.0
1758,287.56045800000004,288.50710263750005,38.0,64.0
1759,287.74338450000005,288.54216355000005,45.0,53.0
1760,288.4750905000001,288.7616753500001,69.0,66.0
1761,289.02387000000004,289.19155262500004,45.0,70.0
1762,289.02387000000004,289.21441843750006,57.0,67.0
1763,289.02387000000004,289.2449061875001,37.0,58.0
1764,289.02387000000004,289.26167445000004,64.0,67.0
1765,289.57264950000007,289.73880773750005,57.0,67.0
1766,289.57264950000007,289.8821001625,69.0,66.0
1767,290.12142900000003,290.45222108750005,64.0,56.0
1768,290.48728200000005,290.57264770000006,35.0,51.0
1769,290.48728200000005,290.60770861250006,62.0,54.0
1770,290.48728200000005,290.61380616250005,47.0,56.0
1771,290.48728200000005,290.6229524875001,57.0,59.0
1772,290.48728200000005,290.74795226250006,66.0,73.0
1773,291.0360615000001,291.1138052625,64.0,46.0
1774,291.0360615000001,291.11837842500006,52.0,49.0
1775,291.0360615000001,291.13971985000006,59.0,67.0
1776,291.0360615000001,291.15191495000005,68.0,62.0
1777,291.0360615000001,291.1763051500001,40.0,61.0
1778,291.58484100000004,291.95221838750007,59.0,62.0
1779,291.58484100000004,291.97355981250007,61.0,64.0
1780,291.58484100000004,292.02081582500006,64.0,48.0
1781,291.58484100000004,292.04063286250005,69.0,54.0
1782,291.58484100000004,292.10618152500007,45.0,54.0
1783,291.58484100000004,292.1488643750001,33.0,43.0
1784,292.86532650000004,293.02996035000007,81.0,32.0
1785,292.89581425000006,293.07111881250006,85.0,44.0
1786,293.0025213750001,293.12599676250005,88.0,50.0
1787,293.04825300000005,293.1503869625001,93.0,61.0
