,start,end,pitch,velocity
0,24.531603062500007,24.793097250000006,64.0,90.0
1,24.876430562500005,25.165223593750007,66.0,85.0
2,25.221258062500006,26.017234875000007,68.0,86.0
3,26.255740562500005,26.494246250000007,66.0,87.0
4,26.600568062500006,26.852004781250006,68.0,83.0
5,26.945395562500007,27.199705843750007,71.0,86.0
6,27.290223062500008,27.474131062500007,76.0,92.0
7,27.635050562500005,28.215510187500005,73.0,84.0
8,28.324705562500007,29.82039484375001,71.0,87.0
9,30.04884306250001,30.294532656250006,73.0,86.0
10,30.393670562500006,30.591946375000006,76.0,83.0
11,30.738498062500007,31.58188865625001,73.0,82.0
12,31.772980562500006,31.87786559375001,73.0,88.0
13,31.945394312500007,32.054589687500005,71.0,84.0
14,32.11780806250001,32.363497656250004,68.0,92.0
15,32.462635562500004,32.67384240625001,71.0,84.0
16,32.807463062500005,33.04884231250001,71.0,83.0
17,33.152290562500006,33.41953187500001,68.0,87.0
18,33.49711806250001,34.962634937500006,66.0,85.0
19,35.566083062500006,35.83188759375001,66.0,84.0
20,35.91091056250001,36.119243843750006,68.0,82.0
21,36.25573806250001,36.74568046875001,71.0,84.0
22,37.29022056250001,37.40516306250001,71.0,85.0
23,37.46263431250001,37.53016303125001,68.0,88.0
24,37.63504806250001,37.87068018750001,66.0,88.0
25,37.979875562500006,38.179588156250006,68.0,86.0
26,38.32470306250001,38.54022025000001,64.0,90.0
27,38.66953056250001,38.84194431250001,66.0,82.0
28,38.84194431250001,39.01435806250001,64.0,82.0
29,39.01435806250001,40.40085196875001,61.0,80.0
30,41.08332306250001,41.32901265625001,61.0,92.0
31,41.42815056250001,41.68533440625001,68.0,88.0
32,41.77297806250001,42.56608131250001,66.0,83.0
33,42.80746056250001,43.07901221875001,64.0,81.0
34,43.15228806250001,43.445391437500014,61.0,88.0
35,43.497115562500014,43.65947184375001,64.0,83.0
36,43.84194306250001,44.02297750000001,64.0,82.0
37,44.18677056250001,44.43246015625001,68.0,85.0
38,44.53159806250001,46.38217231250001,66.0,82.0
39,46.60056306250001,46.862057250000014,64.0,90.0
40,46.94539056250001,47.23418359375001,66.0,85.0
41,47.29021806250001,48.08619487500001,68.0,86.0
42,48.32470056250001,48.563206250000015,66.0,87.0
43,48.669528062500014,48.920964781250014,68.0,83.0
44,49.014355562500015,49.268665843750014,71.0,86.0
45,49.35918306250001,49.54309106250001,76.0,92.0
46,49.70401056250001,50.28447018750001,73.0,84.0
47,50.39366556250001,51.88935484375001,71.0,87.0
48,52.11780306250001,52.36349265625001,73.0,86.0
49,52.46263056250001,52.66090637500001,76.0,83.0
50,52.80745806250001,53.65084865625001,73.0,82.0
51,53.841940562500014,53.94682559375001,73.0,88.0
52,54.01435431250001,54.12354968750001,71.0,84.0
53,54.186768062500015,54.432457656250016,68.0,92.0
54,54.531595562500016,54.742802406250014,71.0,84.0
55,54.87642306250001,55.11780231250001,71.0,83.0
56,55.22125056250001,55.488491875000015,68.0,87.0
57,55.56607806250001,57.03159493750001,66.0,85.0
58,57.63504306250002,57.900847593750015,66.0,84.0
59,57.97987056250001,58.18820384375002,68.0,82.0
60,58.32469806250001,58.814640468750014,71.0,84.0
61,58.84193931250002,58.956881812500015,71.0,85.0
62,59.014353062500014,59.359180562500015,71.0,85.0
63,59.359180562500015,59.704008062500016,68.0,88.0
64,59.704008062500016,59.93964018750001,66.0,88.0
65,60.04883556250002,60.566076812500015,68.0,86.0
66,60.73849056250001,60.910904312500016,66.0,82.0
67,60.910904312500016,61.08331806250001,64.0,82.0
68,61.08331806250001,62.469811968750015,61.0,80.0
69,63.15228306250002,63.39797265625001,61.0,92.0
70,63.49711056250001,63.75429440625002,68.0,88.0
71,63.84193806250001,64.63504131250002,66.0,83.0
72,64.87642056250002,64.98274237500002,66.0,85.0
73,65.04883431250002,65.14940900000002,64.0,84.0
74,65.22124806250001,65.50285718750001,66.0,86.0
75,65.56607556250002,65.64940887500002,64.0,88.0
76,65.73848931250002,66.16521334375001,66.0,83.0
77,66.25573056250002,66.52297187500001,73.0,88.0
78,66.60055806250001,68.39797140625002,71.0,83.0
79,68.66952306250002,68.92383334375002,71.0,88.0
80,69.01435056250001,69.22986775000001,73.0,85.0
81,69.35917806250002,69.78159175000002,80.0,97.0
82,69.87641931250002,70.20256865625002,78.0,92.0
83,70.39366056250002,70.59912028125002,76.0,87.0
84,70.73848806250001,70.95831559375002,76.0,87.0
85,71.08331556250002,71.30026953125002,68.0,92.0
86,71.42814306250001,71.65802806250002,73.0,88.0
87,71.77297056250002,71.89366018750002,75.0,86.0
88,71.94538431250001,72.02871762500001,73.0,86.0
89,72.11779806250001,73.97124587500002,71.0,83.0
90,74.18676306250002,74.42095840625002,71.0,88.0
91,74.53159056250001,74.75572843750001,73.0,85.0
92,74.87641806250002,75.28733750000002,76.0,85.0
93,75.39365931250002,75.79452128125001,73.0,87.0
94,75.91090056250002,76.03590053125002,73.0,85.0
95,76.08331431250002,76.17814187500002,71.0,83.0
96,76.25572806250001,76.48130271875002,68.0,86.0
97,76.60055556250002,76.80888884375001,71.0,84.0
98,76.94538306250001,77.17670484375002,71.0,85.0
99,77.29021056250002,77.53302659375002,68.0,83.0
100,77.63503806250002,79.41233646875001,66.0,85.0
101,79.70400306250002,79.95543978125002,66.0,88.0
102,80.04883056250002,80.28877303125002,68.0,83.0
103,80.39365806250002,80.77009475000001,71.0,87.0
104,80.91089931250002,81.02009468750002,71.0,82.0
105,81.08331306250003,81.27153140625002,71.0,86.0
106,81.42814056250002,81.64365775000002,68.0,82.0
107,81.77296806250001,82.01434731250002,68.0,85.0
108,82.11779556250002,82.63791037500002,71.0,83.0
109,82.80745056250002,82.92670340625001,66.0,84.0
110,82.97986431250001,83.06463440625002,64.0,82.0
111,83.15227806250002,84.88790981250003,61.0,85.0
112,85.56607056250002,85.66664525000002,61.0,86.0
113,85.73848431250002,85.84911646875003,68.0,83.0
114,85.91089806250002,86.24135775000002,66.0,88.0
115,86.42813931250002,86.51721975000002,66.0,87.0
116,86.60055306250003,86.81319668750002,66.0,88.0
117,86.94538056250002,87.18675981250001,68.0,92.0
118,87.29020806250001,87.52584018750002,78.0,90.0
119,87.63503556250002,87.71262175000003,78.0,82.0
120,87.80744931250003,88.20543771875002,78.0,83.0
121,88.32469056250002,88.58618475000002,73.0,84.0
122,88.66951806250002,90.44537968750002,71.0,85.0
123,90.73848306250002,90.99279334375002,71.0,88.0
124,91.08331056250002,91.29882775000002,73.0,85.0
125,91.42813806250003,91.85055175000002,80.0,97.0
126,91.94537931250002,92.27152865625003,78.0,92.0
127,92.46262056250002,92.66808028125003,76.0,87.0
128,92.80744806250003,93.02727559375002,76.0,87.0
129,93.15227556250002,93.36922953125003,68.0,92.0
130,93.49710306250002,93.72698806250003,73.0,88.0
131,93.84193056250002,93.96262018750002,75.0,86.0
132,94.01434431250003,94.09767762500002,73.0,86.0
133,94.18675806250002,96.04020587500003,71.0,83.0
134,96.25572306250002,96.48991840625003,71.0,88.0
135,96.60055056250002,96.82468843750003,73.0,85.0
136,96.94537806250003,97.35629750000003,76.0,85.0
137,97.46261931250002,97.86348128125002,73.0,87.0
138,97.97986056250002,98.10486053125003,73.0,85.0
139,98.15227431250003,98.24710187500003,71.0,83.0
140,98.32468806250003,98.55026271875002,68.0,86.0
141,98.66951556250002,98.87784884375003,71.0,84.0
142,99.01434306250002,99.24566484375002,71.0,85.0
143,99.35917056250003,99.60198659375003,68.0,83.0
144,99.70399806250002,101.48129646875003,66.0,85.0
145,101.77296306250003,102.02439978125003,66.0,88.0
146,102.11779056250002,102.35773303125002,68.0,83.0
147,102.46261806250003,102.83905475000003,71.0,87.0
148,102.97985931250003,103.08905468750002,71.0,82.0
149,103.15227306250003,103.34049140625002,71.0,86.0
150,103.49710056250002,103.66951431250003,71.0,82.0
151,103.66951431250003,103.84192806250003,68.0,82.0
152,103.84192806250003,104.08330731250003,68.0,85.0
153,104.18675556250003,104.70687037500002,71.0,83.0
154,104.87641056250003,104.99566340625003,66.0,84.0
155,105.04882431250003,105.13359440625003,64.0,82.0
156,105.22123806250002,106.95686981250003,61.0,85.0
157,107.29020306250003,107.46261681250003,61.0,86.0
158,107.63503056250002,107.81750178125003,68.0,83.0
159,107.97985806250003,108.66951306250003,66.0,88.0
160,109.01434056250002,109.16089225000003,68.0,88.0
161,109.18675431250003,109.30169681250003,71.0,82.0
162,109.35916806250003,109.75140934375003,68.0,90.0
163,109.87640931250003,110.27152415625002,66.0,85.0
164,110.39365056250003,110.63359303125003,61.0,86.0
165,110.73847806250002,113.38933946875002,64.0,85.0
166,134.87640306250003,135.13789725000004,64.0,90.0
167,135.22123056250004,135.51002359375002,66.0,85.0
168,135.56605806250002,136.36203487500003,68.0,86.0
169,136.60054056250004,136.83904625000002,66.0,87.0
170,136.94536806250002,137.19680478125002,68.0,83.0
171,137.29019556250003,137.54450584375004,71.0,86.0
172,137.63502306250004,137.81893106250004,76.0,92.0
173,137.97985056250002,138.56031018750002,73.0,84.0
174,138.66950556250004,140.16519484375004,71.0,87.0
175,140.39364306250005,140.63933265625002,73.0,86.0
176,140.73847056250003,140.93674637500004,76.0,83.0
177,141.08329806250003,141.92668865625004,73.0,82.0
178,142.11778056250003,142.22266559375004,73.0,88.0
179,142.29019431250003,142.39938968750005,71.0,84.0
180,142.46260806250004,142.70829765625004,68.0,92.0
181,142.80743556250005,143.01864240625002,71.0,84.0
182,143.15226306250003,143.39364231250002,71.0,83.0
183,143.49709056250003,143.76433187500004,68.0,87.0
184,143.84191806250004,145.30743493750003,66.0,85.0
185,145.91088306250003,146.17668759375005,66.0,84.0
186,146.25571056250004,146.46404384375003,68.0,82.0
187,146.60053806250002,147.09048046875003,71.0,84.0
188,147.11777931250003,147.23272181250005,71.0,85.0
189,147.29019306250004,147.63502056250005,71.0,85.0
190,147.63502056250005,147.97984806250003,68.0,88.0
191,147.97984806250003,148.21548018750005,66.0,88.0
192,148.32467556250003,148.84191681250005,68.0,86.0
193,149.01433056250005,149.18674431250002,66.0,82.0
194,149.18674431250002,149.35915806250003,64.0,82.0
195,149.35915806250003,150.74565196875002,61.0,80.0
196,151.42812306250005,151.67381265625005,61.0,92.0
197,151.77295056250003,152.03013440625003,68.0,88.0
198,152.11777806250004,152.91088131250004,66.0,83.0
199,153.15226056250003,153.25858237500003,66.0,85.0
200,153.32467431250004,153.42524900000004,64.0,84.0
201,153.49708806250004,153.77869718750003,66.0,86.0
202,153.84191556250005,153.92524887500002,64.0,88.0
203,154.01432931250002,154.44105334375004,66.0,83.0
204,154.53157056250004,154.79881187500004,73.0,88.0
205,154.87639806250004,156.67381140625002,71.0,83.0
206,156.94536306250004,157.19967334375005,71.0,88.0
207,157.29019056250004,157.50570775000003,73.0,85.0
208,157.63501806250002,158.05743175000003,80.0,97.0
209,158.15225931250004,158.47840865625002,78.0,92.0
210,158.66950056250005,158.87496028125003,76.0,87.0
211,159.01432806250003,159.23415559375005,76.0,87.0
212,159.35915556250004,159.57610953125004,68.0,92.0
213,159.70398306250004,159.93386806250004,73.0,88.0
214,160.04881056250005,160.16950018750003,75.0,86.0
215,160.22122431250003,160.30455762500003,73.0,86.0
216,160.39363806250003,162.24708587500004,71.0,83.0
217,162.46260306250005,162.69679840625002,71.0,88.0
218,162.80743056250003,163.03156843750003,73.0,85.0
219,163.15225806250004,163.56317750000005,76.0,85.0
220,163.66949931250005,164.07036128125003,73.0,87.0
221,164.18674056250003,164.31174053125005,73.0,85.0
222,164.35915431250004,164.45398187500004,71.0,83.0
223,164.53156806250004,164.75714271875003,68.0,86.0
224,164.87639556250005,165.08472884375004,71.0,84.0
225,165.22122306250003,165.45254484375005,71.0,85.0
226,165.56605056250004,165.80886659375003,68.0,83.0
227,165.91087806250005,167.68817646875004,66.0,85.0
228,167.97984306250004,168.23127978125004,66.0,88.0
229,168.32467056250005,168.56461303125005,68.0,83.0
230,168.66949806250005,169.04593475000004,71.0,87.0
231,169.18673931250004,169.29593468750005,71.0,82.0
232,169.35915306250004,169.54737140625005,71.0,86.0
233,169.70398056250005,169.91949775000003,68.0,82.0
234,170.04880806250003,170.29018731250005,68.0,85.0
235,170.39363556250004,170.91375037500003,71.0,83.0
236,171.08329056250005,171.20254340625004,66.0,84.0
237,171.25570431250003,171.34047440625005,64.0,82.0
238,171.42811806250003,173.16374981250004,61.0,85.0
239,173.84191056250003,173.94248525000003,61.0,86.0
240,174.01432431250004,174.12495646875004,68.0,83.0
241,174.18673806250004,174.51719775000004,66.0,88.0
242,174.70397931250005,174.79305975000005,66.0,87.0
243,174.87639306250003,175.08903668750006,66.0,88.0
244,175.22122056250004,175.46259981250003,68.0,92.0
245,175.56604806250004,175.80168018750004,78.0,90.0
246,175.91087556250005,175.98846175000006,78.0,82.0
247,176.08328931250003,176.48127771875005,78.0,83.0
248,176.60053056250004,176.86202475000005,73.0,84.0
249,176.94535806250005,178.72121968750005,71.0,85.0
250,179.01432306250004,179.26863334375005,71.0,88.0
251,179.35915056250005,179.57466775000003,73.0,85.0
252,179.70397806250006,180.12639175000004,80.0,97.0
253,180.22121931250004,180.54736865625003,78.0,92.0
254,180.73846056250005,180.94392028125003,76.0,87.0
255,181.08328806250003,181.30311559375005,76.0,87.0
256,181.42811556250004,181.64506953125004,68.0,92.0
257,181.77294306250005,182.00282806250004,73.0,88.0
258,182.11777056250006,182.23846018750004,75.0,86.0
259,182.29018431250003,182.37351762500003,73.0,86.0
260,182.46259806250004,184.31604587500004,71.0,83.0
261,184.53156306250006,184.76575840625006,71.0,88.0
262,184.87639056250003,185.10052843750003,73.0,85.0
263,185.22121806250004,185.63213750000006,76.0,85.0
264,185.73845931250005,186.13932128125003,73.0,87.0
265,186.25570056250004,186.38070053125006,73.0,85.0
266,186.42811431250004,186.52294187500004,71.0,83.0
267,186.60052806250005,186.82610271875004,68.0,86.0
268,186.94535556250005,187.15368884375005,71.0,84.0
269,187.29018306250003,187.52150484375005,71.0,85.0
270,187.63501056250004,187.87782659375006,68.0,83.0
271,187.97983806250005,189.75713646875005,66.0,85.0
272,190.04880306250004,190.30023978125004,66.0,88.0
273,190.39363056250005,190.63357303125005,68.0,83.0
274,190.73845806250006,191.11489475000005,71.0,87.0
275,191.25569931250004,191.36489468750005,71.0,82.0
276,191.42811306250005,191.61633140625005,71.0,86.0
277,191.77294056250005,191.94535431250006,71.0,82.0
278,191.94535431250006,192.11776806250003,68.0,82.0
279,192.11776806250003,192.35914731250006,68.0,85.0
280,192.46259556250004,192.98271037500004,71.0,83.0
281,193.15225056250006,193.27150340625005,66.0,84.0
282,193.32466431250003,193.40943440625006,64.0,82.0
283,193.49707806250004,195.23270981250005,61.0,85.0
284,195.56604306250006,195.73845681250003,61.0,86.0
285,195.91087056250004,196.09334178125005,68.0,83.0
286,196.25569806250004,196.94535306250003,66.0,88.0
287,197.29018056250004,197.43673225000003,68.0,88.0
288,197.46259431250004,197.57753681250006,71.0,82.0
289,197.63500806250005,198.02724934375004,68.0,90.0
290,198.15224931250006,198.54736415625004,66.0,85.0
291,198.66949056250004,198.90943303125005,61.0,86.0
292,199.01431806250005,200.94535206250004,64.0,85.0
293,201.08328306250004,201.33759334375006,71.0,88.0
294,201.42811056250005,201.64362775000004,73.0,85.0
295,201.77293806250006,202.19535175000004,80.0,97.0
296,202.29017931250004,202.61632865625006,78.0,92.0
297,202.80742056250006,203.01288028125006,76.0,87.0
298,203.15224806250004,203.37207559375005,76.0,87.0
299,203.49707556250004,203.71402953125005,68.0,92.0
300,203.84190306250005,204.07178806250005,73.0,88.0
301,204.18673056250006,204.30742018750004,75.0,86.0
302,204.35914431250004,204.44247762500004,73.0,86.0
303,204.53155806250004,206.38500587500005,71.0,83.0
304,206.60052306250006,206.83471840625006,71.0,88.0
305,206.94535056250004,207.16948843750004,73.0,85.0
306,207.29017806250005,207.70109750000006,76.0,85.0
307,207.80741931250006,208.20828128125004,73.0,87.0
308,208.32466056250004,208.44966053125006,73.0,85.0
309,208.49707431250005,208.59190187500005,71.0,83.0
310,208.66948806250005,208.89506271875004,68.0,86.0
311,209.01431556250006,209.22264884375005,71.0,84.0
312,209.35914306250004,209.59046484375006,71.0,85.0
313,209.70397056250005,209.94678659375006,68.0,83.0
314,210.04879806250005,211.82609646875005,66.0,85.0
315,212.11776306250005,212.36919978125005,66.0,88.0
316,212.46259056250005,212.70253303125006,68.0,83.0
317,212.80741806250006,213.18385475000005,71.0,87.0
318,213.32465931250005,213.43385468750006,71.0,82.0
319,213.49707306250005,213.68529140625006,71.0,86.0
320,213.84190056250006,214.05741775000004,68.0,82.0
321,214.18672806250004,214.42810731250006,68.0,85.0
322,214.53155556250005,215.05167037500004,71.0,83.0
323,215.22121056250006,215.34046340625005,66.0,84.0
324,215.39362431250004,215.47839440625006,64.0,82.0
325,215.56603806250004,217.30166981250005,61.0,85.0
326,217.97983056250004,218.08040525000004,61.0,86.0
327,218.15224431250004,218.26287646875005,68.0,83.0
328,218.32465806250005,218.65511775000004,66.0,88.0
329,218.84189931250006,218.93097975000006,66.0,87.0
330,219.01431306250007,219.22695668750006,66.0,88.0
331,219.35914056250004,219.60051981250004,68.0,92.0
332,219.70396806250005,219.93960018750005,78.0,90.0
333,220.04879556250006,220.12638175000006,78.0,82.0
334,220.22120931250006,220.61919771875006,78.0,83.0
335,220.73845056250005,220.99994475000005,73.0,84.0
336,221.08327806250006,222.85913968750006,71.0,85.0
337,223.15224306250005,223.40655334375006,71.0,88.0
338,223.49707056250006,223.71258775000004,73.0,85.0
339,223.84189806250006,224.26431175000005,80.0,97.0
340,224.35913931250005,224.68528865625007,78.0,92.0
341,224.87638056250006,225.08184028125007,76.0,87.0
342,225.22120806250004,225.44103559375006,76.0,87.0
343,225.56603556250005,225.78298953125005,68.0,92.0
344,225.91086306250006,226.14074806250005,73.0,88.0
345,226.25569056250006,226.37638018750005,75.0,86.0
346,226.42810431250007,226.51143762500004,73.0,86.0
347,226.60051806250004,228.45396587500005,71.0,83.0
348,228.66948306250006,228.90367840625007,71.0,88.0
349,229.01431056250004,229.23844843750007,73.0,85.0
350,229.35913806250005,229.77005750000006,76.0,85.0
351,229.87637931250006,230.27724128125004,73.0,87.0
352,230.39362056250005,230.51862053125006,73.0,85.0
353,230.56603431250005,230.66086187500005,71.0,83.0
354,230.73844806250005,230.96402271875004,68.0,86.0
355,231.08327556250006,231.29160884375005,71.0,84.0
356,231.42810306250004,231.65942484375006,71.0,85.0
357,231.77293056250005,232.01574659375007,68.0,83.0
358,232.11775806250006,233.89505646875006,66.0,85.0
359,234.18672306250005,234.43815978125005,66.0,88.0
360,234.53155056250006,234.77149303125006,68.0,83.0
361,234.87637806250007,235.25281475000006,71.0,87.0
362,235.39361931250005,235.50281468750006,71.0,82.0
363,235.56603306250005,235.75425140625006,71.0,86.0
364,235.91086056250006,236.08327431250007,71.0,82.0
365,236.08327431250007,236.25568806250007,68.0,82.0
366,236.25568806250007,236.49706731250006,68.0,85.0
367,236.60051556250005,237.12063037500005,71.0,83.0
368,237.29017056250007,237.40942340625006,66.0,84.0
369,237.46258431250007,237.54735440625007,64.0,82.0
370,237.63499806250005,239.37062981250006,61.0,85.0
371,239.70396306250007,239.87637681250007,61.0,86.0
372,240.04879056250005,240.23126178125005,68.0,83.0
373,240.39361806250005,241.08327306250007,66.0,88.0
374,241.42810056250005,241.57465225000007,68.0,88.0
375,241.60051431250005,241.71545681250007,71.0,82.0
376,241.77292806250006,242.16516934375005,68.0,90.0
377,242.29016931250007,242.68528415625005,66.0,85.0
378,242.80741056250005,243.04735303125005,61.0,86.0
379,243.15223806250006,245.80309946875005,64.0,85.0
