,start,end,pitch,velocity
0,3.1522980625000008,3.571838187500001,64.0,80.0
1,3.1522980625000008,3.8965507500000007,68.0,80.0
2,3.841953062500001,4.291665593750001,64.0,88.0
3,4.186780562500001,4.346263281250001,68.0,88.0
4,3.497125562500001,4.7413781250000016,47.0,69.0
5,4.531608062500001,4.846263156250001,64.0,81.0
6,4.531608062500001,4.9425275000000015,68.0,82.0
7,4.531608062500001,5.123561937500001,71.0,82.0
8,3.1522980625000008,5.3448262500000014,40.0,82.0
9,5.221263062500001,5.3635044062500015,64.0,88.0
10,4.876435562500001,5.396550375000001,47.0,67.0
11,5.910918062500001,6.329021406250002,61.0,81.0
12,5.910918062500001,6.617814437500002,64.0,82.0
13,6.600573062500001,7.066090187500001,61.0,86.0
14,6.9454005625000015,7.116377531250001,64.0,79.0
15,6.255745562500001,7.466952156250001,56.0,69.0
16,7.2902280625000015,7.844825625000002,61.0,79.0
17,7.2902280625000015,7.854883093750002,68.0,82.0
18,5.910918062500001,7.9999980000000015,49.0,82.0
19,7.635055562500002,8.007181906250002,56.0,66.0
20,7.979883062500002,8.152296812500001,64.0,85.0
21,7.979883062500002,8.162354281250002,61.0,83.0
22,8.669538062500003,9.073273593750002,54.0,79.0
23,8.669538062500003,9.370687312500003,57.0,81.0
24,9.359193062500003,10.002871062500002,54.0,87.0
25,9.704020562500002,10.127871031250002,57.0,73.0
26,9.014365562500002,10.577583562500003,49.0,70.0
27,8.669538062500003,10.586204250000003,42.0,82.0
28,10.738503062500003,10.971261625000002,54.0,62.0
29,10.393675562500002,11.198273062500002,57.0,81.0
30,10.738503062500003,11.205456968750003,49.0,84.0
31,10.048848062500003,11.209767312500002,61.0,90.0
32,11.083330562500002,11.439652312500003,54.0,86.0
33,11.772985562500002,12.270111875000003,59.0,82.0
34,12.462640562500003,12.739939343750002,59.0,84.0
35,12.117813062500003,12.955456531250004,54.0,71.0
36,12.807468062500003,13.221261062500004,59.0,83.0
37,12.807468062500003,13.227008187500003,63.0,81.0
38,13.152295562500003,13.670973593750004,54.0,77.0
39,13.497123062500004,13.810341375000004,59.0,83.0
40,11.428158062500003,13.906605718750003,47.0,83.0
41,13.841950562500003,13.962640187500003,51.0,86.0
42,13.841950562500003,14.080456250000003,59.0,86.0
43,13.497123062500004,14.084766593750004,63.0,88.0
44,13.497123062500004,14.112065437500004,66.0,81.0
45,14.186778062500004,14.454019375000003,52.0,79.0
46,14.186778062500004,14.619249218750003,64.0,82.0
47,14.876433062500004,15.369249031250003,59.0,70.0
48,15.221260562500003,15.415226031250004,64.0,81.0
49,14.531605562500003,15.712639750000005,47.0,76.0
50,15.566088062500004,15.966950031250004,59.0,81.0
51,15.566088062500004,15.985628187500003,64.0,83.0
52,14.186778062500004,16.387926937500005,40.0,82.0
53,15.910915562500003,16.426720031250003,47.0,81.0
54,15.566088062500004,16.613501593750005,68.0,82.0
55,16.255743062500002,16.665225718750005,59.0,88.0
56,16.600570562500003,16.716949843750005,64.0,82.0
57,16.945398062500004,17.413788750000005,61.0,72.0
58,16.945398062500004,17.650857656250004,64.0,82.0
59,17.635053062500003,18.068961000000005,61.0,83.0
60,17.979880562500004,18.142236843750005,64.0,83.0
61,16.945398062500004,18.538788468750003,49.0,87.0
62,17.290225562500005,18.583328687500003,56.0,70.0
63,18.324708062500005,18.706891875000004,61.0,83.0
64,18.324708062500005,18.715512562500006,68.0,84.0
65,18.669535562500005,18.912351593750003,64.0,79.0
66,19.014363062500003,19.058903281250004,68.0,65.0
67,19.014363062500003,19.063213625000003,64.0,82.0
68,19.014363062500003,19.181029687500004,37.0,82.0
69,19.359190562500004,19.400857218750005,64.0,72.0
70,19.014363062500003,19.454018125000005,61.0,88.0
71,19.704018062500005,20.155167375000005,54.0,70.0
72,19.704018062500005,20.382178812500005,57.0,73.0
73,19.704018062500005,20.561776468750004,42.0,84.0
74,20.048845562500006,20.596259218750006,49.0,69.0
75,20.393673062500003,20.933902812500005,54.0,85.0
76,20.738500562500004,21.060339562500005,57.0,69.0
77,21.428155562500006,21.826143968750007,54.0,82.0
78,21.083328062500005,21.952580718750006,47.0,84.0
79,21.772983062500007,22.294534656250004,59.0,87.0
80,22.117810562500004,22.356316250000006,63.0,78.0
81,22.462638062500005,22.574707000000004,40.0,83.0
82,22.462638062500005,22.752867875000007,59.0,81.0
83,22.462638062500005,22.833327625000006,64.0,82.0
84,23.497120562500005,23.956890562500007,64.0,82.0
85,23.669534312500005,23.985626187500007,68.0,83.0
86,23.152293062500007,23.987062968750006,56.0,83.0
87,23.841948062500006,24.310338750000007,71.0,81.0
88,24.186775562500006,24.660913375000007,56.0,64.0
89,23.324706812500004,24.686775437500007,59.0,80.0
90,22.807465562500006,24.719821406250006,52.0,73.0
91,24.531603062500007,24.854878843750004,76.0,74.0
92,24.531603062500007,24.964074218750007,68.0,77.0
93,24.531603062500007,25.035913281250007,71.0,81.0
94,24.531603062500007,25.133614406250008,64.0,81.0
95,25.910913062500008,26.308901468750005,56.0,95.0
96,26.255740562500005,26.689648500000008,52.0,82.0
97,26.600568062500006,26.977004750000006,56.0,75.0
98,26.600568062500006,27.087636906250008,59.0,80.0
99,26.945395562500007,27.359188562500005,52.0,79.0
100,25.221258062500006,27.554590812500006,40.0,86.0
101,25.566085562500007,27.557464375000006,47.0,69.0
102,27.635050562500005,27.954016000000006,52.0,86.0
103,27.290223062500008,28.120682625000008,64.0,86.0
104,28.324705562500007,28.76867096875001,59.0,77.0
105,28.669533062500008,29.061774343750006,63.0,82.0
106,29.014360562500006,29.479877687500007,54.0,71.0
107,29.359188062500007,29.785912093750007,66.0,76.0
108,29.359188062500007,29.800279906250008,59.0,81.0
109,30.04884306250001,30.133613156250007,59.0,72.0
110,29.704015562500008,30.143670625000006,54.0,65.0
111,27.979878062500006,30.320394718750006,47.0,84.0
112,30.04884306250001,30.353440687500008,63.0,83.0
113,31.083325562500008,31.514359937500007,61.0,82.0
114,31.42815306250001,31.83045181250001,64.0,81.0
115,31.772980562500006,31.975566718750006,61.0,82.0
116,32.11780806250001,32.61924471875001,61.0,90.0
117,32.11780806250001,32.63648609375001,68.0,84.0
118,30.738498062500007,32.82901478125001,37.0,84.0
119,32.462635562500004,32.86780787500001,44.0,70.0
120,32.807463062500005,32.97125612500001,61.0,84.0
121,32.807463062500005,33.13648596875001,64.0,88.0
122,33.152290562500006,33.27154340625001,61.0,76.0
123,33.49711806250001,33.92096853125001,59.0,82.0
124,33.49711806250001,34.02585356250001,63.0,75.0
125,33.84194556250001,34.260048906250006,54.0,68.0
126,34.18677306250001,34.64366950000001,59.0,95.0
127,34.53160056250001,35.017232625000005,54.0,74.0
128,35.221255562500005,35.571830187500005,54.0,72.0
129,34.87642806250001,35.59625546875001,66.0,70.0
130,34.87642806250001,35.60918650000001,59.0,83.0
131,33.49711806250001,35.65516350000001,47.0,80.0
132,35.566083062500006,35.84912896875001,63.0,83.0
133,36.25573806250001,36.69251956250001,56.0,76.0
134,36.25573806250001,36.95832409375001,59.0,81.0
135,36.60056556250001,37.09912865625001,51.0,72.0
136,36.94539306250001,37.41809409375001,56.0,85.0
137,37.29022056250001,37.49424350000001,59.0,77.0
138,37.63504806250001,38.04309393750001,63.0,83.0
139,37.979875562500006,38.429588093750006,51.0,57.0
140,38.32470306250001,38.44108234375001,56.0,81.0
141,38.32470306250001,38.45257659375001,59.0,81.0
142,36.25573806250001,38.46407084375001,44.0,82.0
143,39.01435806250001,39.37211659375001,61.0,78.0
144,39.01435806250001,39.74136937500001,64.0,83.0
145,39.35918556250001,39.85774865625001,44.0,67.0
146,40.04884056250001,40.57613928125001,44.0,56.0
147,39.70401306250001,40.72987487500001,61.0,83.0
148,40.39366806250001,40.87930012500001,68.0,87.0
149,39.01435806250001,41.28016209375001,37.0,81.0
150,40.73849556250001,41.28303565625001,44.0,63.0
151,41.08332306250001,41.29884025000001,68.0,81.0
152,41.08332306250001,41.30171381250001,64.0,88.0
153,41.08332306250001,41.31464484375001,61.0,85.0
154,41.42815056250001,41.55458731250001,37.0,81.0
155,41.77297806250001,42.21838025000001,54.0,75.0
156,41.77297806250001,42.54740315625001,57.0,74.0
157,42.11780556250001,42.62786290625001,49.0,68.0
158,42.80746056250001,43.28159837500001,49.0,64.0
159,43.15228806250001,43.83475915625001,61.0,84.0
160,42.46263306250001,43.84625340625001,54.0,86.0
161,43.497115562500014,43.91665568750001,49.0,68.0
162,41.77297806250001,43.92096603125001,42.0,79.0
163,43.84194306250001,44.25573606250001,57.0,76.0
164,44.18677056250001,44.54165553125001,54.0,88.0
165,44.87642556250001,45.34912659375001,59.0,78.0
166,45.56608056250001,45.77728740625001,59.0,85.0
167,45.91090806250001,45.98993103125001,59.0,69.0
168,45.22125306250001,46.01291953125001,54.0,75.0
169,45.91090806250001,46.34481600000001,66.0,86.0
170,45.91090806250001,46.34625278125001,63.0,87.0
171,46.255735562500014,46.45113781250001,59.0,48.0
172,46.60056306250001,46.78447106250001,71.0,83.0
173,46.60056306250001,46.81751703125001,66.0,77.0
174,46.60056306250001,46.82039059375001,63.0,81.0
175,46.94539056250001,47.25573531250001,69.0,82.0
176,46.255735562500014,47.27297668750001,54.0,74.0
177,44.53159806250001,47.33188471875001,47.0,83.0
178,47.97987306250001,48.37786146875001,56.0,95.0
179,48.32470056250001,48.75860850000001,52.0,82.0
180,48.669528062500014,49.04596475000001,56.0,75.0
181,48.669528062500014,49.15659690625001,59.0,80.0
182,49.014355562500015,49.42814856250001,52.0,79.0
183,47.29021806250001,49.623550812500014,40.0,86.0
184,47.63504556250001,49.62642437500001,47.0,69.0
185,49.70401056250001,50.022976000000014,52.0,86.0
186,49.35918306250001,50.18964262500001,64.0,86.0
187,50.39366556250001,50.83763096875001,59.0,77.0
188,50.73849306250001,51.130734343750014,63.0,82.0
189,51.08332056250001,51.54883768750001,54.0,71.0
190,51.428148062500014,51.85487209375001,66.0,76.0
191,51.428148062500014,51.869239906250016,59.0,81.0
192,52.11780306250001,52.20257315625001,59.0,72.0
193,51.772975562500015,52.21263062500001,54.0,65.0
194,50.04883806250001,52.38935471875001,47.0,84.0
195,52.11780306250001,52.422400687500016,63.0,83.0
196,53.15228556250001,53.583319937500015,61.0,82.0
197,53.49711306250001,53.89941181250001,64.0,81.0
198,53.841940562500014,54.044526718750014,61.0,82.0
199,54.186768062500015,54.688204718750015,61.0,90.0
200,54.186768062500015,54.70544609375001,68.0,84.0
201,52.80745806250001,54.897974781250014,37.0,84.0
202,54.531595562500016,54.936767875000015,44.0,70.0
203,54.87642306250001,55.040216125000015,61.0,84.0
204,54.87642306250001,55.20544596875001,64.0,88.0
205,55.22125056250001,55.340503406250015,61.0,76.0
206,55.56607806250001,55.989928531250015,59.0,82.0
207,55.56607806250001,56.094813562500015,63.0,75.0
208,55.91090556250001,56.32900890625001,54.0,68.0
209,56.25573306250001,56.71262950000001,59.0,95.0
210,56.600560562500014,57.08619262500002,54.0,74.0
211,57.290215562500016,57.640790187500016,54.0,72.0
212,56.945388062500015,57.66521546875001,66.0,70.0
213,56.945388062500015,57.67814650000001,59.0,83.0
214,55.56607806250001,57.72412350000001,47.0,80.0
215,57.63504306250002,57.91808896875001,63.0,83.0
216,58.32469806250001,58.761479562500014,56.0,76.0
217,58.32469806250001,59.02728409375001,59.0,81.0
218,58.66952556250001,59.16808865625001,51.0,72.0
219,59.014353062500014,59.48705409375001,56.0,85.0
220,59.359180562500015,59.563203500000014,59.0,77.0
221,59.704008062500016,60.112053937500015,63.0,83.0
222,60.04883556250002,60.49854809375002,51.0,57.0
223,60.39366306250002,60.510042343750015,56.0,81.0
224,60.39366306250002,60.521536593750014,59.0,81.0
225,58.32469806250001,60.53303084375001,44.0,82.0
226,61.08331806250001,61.44107659375001,61.0,78.0
227,61.08331806250001,61.810329375000016,64.0,83.0
228,61.42814556250001,61.926708656250014,44.0,67.0
229,62.117800562500015,62.64509928125001,44.0,56.0
230,61.772973062500014,62.79883487500001,61.0,83.0
231,62.462628062500016,62.94826012500001,68.0,87.0
232,61.08331806250001,63.34912209375001,37.0,81.0
233,62.80745556250002,63.35199565625002,44.0,63.0
234,63.15228306250002,63.367800250000016,68.0,81.0
235,63.15228306250002,63.370673812500016,64.0,88.0
236,63.15228306250002,63.383604843750014,61.0,85.0
237,63.49711056250001,63.623547312500015,37.0,81.0
238,63.84193806250001,64.28734025000001,54.0,75.0
239,63.84193806250001,64.61636315625002,57.0,74.0
240,64.18676556250001,64.69682290625002,49.0,68.0
241,64.87642056250002,65.35055837500002,49.0,64.0
242,65.22124806250001,65.90371915625002,61.0,84.0
243,64.53159306250002,65.91521340625002,54.0,86.0
244,65.56607556250002,65.98561568750002,49.0,68.0
245,63.84193806250001,65.98992603125002,42.0,79.0
246,65.91090306250001,66.32469606250001,57.0,76.0
247,66.25573056250002,66.61061553125002,54.0,88.0
248,66.94538556250002,67.41808659375002,59.0,78.0
249,67.63504056250001,67.84624740625001,59.0,85.0
250,67.97986806250002,68.05889103125001,59.0,69.0
251,67.29021306250002,68.08187953125001,54.0,75.0
252,67.97986806250002,68.41377600000001,66.0,86.0
253,67.97986806250002,68.41521278125002,63.0,87.0
254,68.32469556250001,68.52009781250001,59.0,48.0
255,68.66952306250002,68.85343106250002,71.0,83.0
256,68.66952306250002,68.88647703125001,66.0,77.0
257,68.66952306250002,68.88935059375001,63.0,81.0
258,69.01435056250001,69.32469531250001,69.0,82.0
259,68.32469556250001,69.34193668750001,54.0,74.0
260,66.60055806250001,69.40084471875002,47.0,83.0
261,69.35917806250002,69.74136187500001,56.0,77.0
262,69.35917806250002,69.76435037500002,59.0,82.0
263,69.35917806250002,69.81894806250001,52.0,82.0
264,69.70400556250002,70.10486753125002,47.0,64.0
265,70.04883306250002,70.26147668750002,56.0,90.0
266,70.04883306250002,70.28446518750002,52.0,87.0
267,70.04883306250002,70.30889046875002,59.0,85.0
268,70.56607431250002,70.81176390625002,52.0,82.0
269,70.39366056250002,70.81751103125002,47.0,69.0
270,70.73848806250001,70.97268340625001,56.0,85.0
271,70.91090181250001,71.02728109375002,59.0,80.0
272,69.35917806250002,71.57756831250002,40.0,85.0
273,71.42814306250001,71.70113150000002,52.0,82.0
274,71.42814306250001,71.72124643750001,56.0,86.0
275,71.42814306250001,71.75429240625002,59.0,83.0
276,71.77297056250002,71.88503950000002,47.0,74.0
277,71.42814306250001,72.05457968750002,64.0,82.0
278,71.94538431250001,72.12929231250001,52.0,78.0
279,72.11779806250001,72.96980934375001,47.0,86.0
280,72.80745306250002,73.01865990625002,66.0,83.0
281,72.80745306250002,73.02297025000001,59.0,86.0
282,73.15228056250001,73.30457937500002,54.0,58.0
283,73.32469431250001,73.47411956250002,63.0,84.0
284,73.32469431250001,73.51291265625002,59.0,85.0
285,73.32469431250001,73.52009656250002,66.0,75.0
286,73.49710806250002,73.70544134375002,51.0,54.0
287,73.84193556250001,74.12498146875002,59.0,82.0
288,74.01434931250002,74.12498146875002,63.0,90.0
289,73.66952181250002,74.23705040625002,54.0,75.0
290,74.18676306250002,74.44682046875002,59.0,80.0
291,74.18676306250002,74.49854459375001,63.0,81.0
292,74.18676306250002,74.53590090625002,71.0,84.0
293,74.53159056250001,74.67526868750002,51.0,75.0
294,74.87641806250002,75.25285475000001,64.0,82.0
295,74.87641806250002,75.27440646875002,61.0,72.0
296,75.22124556250002,75.70687762500002,56.0,60.0
297,75.56607306250002,75.71262475000002,68.0,81.0
298,74.87641806250002,75.74710750000001,49.0,85.0
299,75.56607306250002,75.75429140625002,61.0,82.0
300,76.08331431250002,76.27153265625002,61.0,82.0
301,76.08331431250002,76.31176253125003,64.0,85.0
302,76.42814181250002,76.65371646875002,49.0,77.0
303,76.77296931250002,76.91952100000002,61.0,81.0
304,76.60055556250002,76.96262443750001,56.0,86.0
305,76.94538306250001,77.16664737500003,61.0,82.0
306,76.94538306250001,77.30745193750002,64.0,95.0
307,76.94538306250001,77.55026796875002,68.0,82.0
308,77.29021056250002,77.62929093750002,61.0,81.0
309,77.97986556250002,78.14222184375002,59.0,81.0
310,77.63503806250002,78.43388843750002,47.0,82.0
311,78.32469306250002,78.48130221875002,66.0,83.0
312,78.32469306250002,78.48848612500002,59.0,86.0
313,78.66952056250003,78.87354350000003,54.0,44.0
314,78.84193431250002,78.99423312500002,59.0,82.0
315,78.84193431250002,78.99423312500002,63.0,84.0
316,79.01434806250002,79.19825606250002,51.0,68.0
317,79.35917556250001,79.57325596875002,59.0,92.0
318,79.18676181250002,79.68245134375002,54.0,74.0
319,79.70400306250002,79.93532484375002,59.0,87.0
320,79.70400306250002,79.97411793750003,66.0,81.0
321,80.04883056250002,80.18388800000002,54.0,76.0
322,80.73848556250002,80.90658896875001,56.0,81.0
323,81.08331306250003,81.26434750000001,63.0,81.0
324,81.08331306250003,81.28589921875002,56.0,87.0
325,81.42814056250002,81.66664625000001,51.0,53.0
326,81.60055431250002,81.76291059375002,56.0,83.0
327,81.60055431250002,81.76865771875002,59.0,82.0
328,80.39365806250002,81.79451978125002,44.0,88.0
329,81.77296806250001,81.91233584375001,51.0,60.0
330,81.94538181250002,82.11348521875001,56.0,84.0
331,82.11779556250002,82.31607137500002,59.0,77.0
332,82.46262306250001,82.61492187500002,59.0,86.0
333,82.46262306250001,82.62210578125001,56.0,84.0
334,82.46262306250001,82.65658853125002,63.0,82.0
335,83.15227806250002,83.56750784375002,61.0,78.0
336,83.15227806250002,83.57325496875002,64.0,82.0
337,83.15227806250002,83.58331243750003,68.0,73.0
338,83.49710556250002,83.98273762500003,56.0,64.0
339,83.84193306250002,84.01434681250002,68.0,83.0
340,83.84193306250002,84.03733531250002,61.0,87.0
341,84.35917431250002,84.41664556250002,64.0,74.0
342,84.35917431250002,84.43245015625001,61.0,71.0
343,84.53158806250002,84.86779487500002,61.0,77.0
344,84.53158806250002,84.87354200000001,64.0,84.0
345,85.04882931250002,85.11635803125002,68.0,73.0
346,85.04882931250002,85.13359940625001,61.0,81.0
347,84.87641556250001,85.22267984375002,56.0,60.0
348,85.22124306250002,85.57038090625002,61.0,82.0
349,83.15227806250002,85.61061078125002,49.0,81.0
350,85.56607056250002,85.68676018750001,56.0,81.0
351,85.22124306250002,85.87354175000002,68.0,83.0
352,85.73848431250002,85.91951875000002,61.0,73.0
353,86.25572556250002,86.43963356250002,54.0,78.0
354,86.60055306250003,86.85486334375003,57.0,81.0
355,86.60055306250003,86.90371390625002,54.0,85.0
356,86.94538056250002,87.22411612500002,49.0,47.0
357,87.11779431250002,87.30601265625002,61.0,82.0
358,87.11779431250002,87.33331150000002,54.0,82.0
359,87.29020806250001,87.67957578125002,49.0,69.0
360,85.91089806250002,87.87354125000002,42.0,86.0
361,87.63503556250002,87.94825387500002,54.0,86.0
362,87.63503556250002,88.00428834375002,57.0,86.0
363,87.97986306250002,88.10342625000003,49.0,82.0
364,88.15227681250002,88.46549512500002,54.0,88.0
365,88.32469056250002,88.53015028125002,57.0,81.0
366,88.49710431250003,88.63359853125002,61.0,82.0
367,89.01434556250003,89.20687425000003,59.0,81.0
368,89.35917306250002,89.69394309375002,59.0,87.0
369,89.35917306250002,89.74135687500002,63.0,92.0
370,88.66951806250002,89.76865571875003,47.0,83.0
371,89.70400056250003,89.87641431250002,51.0,61.0
372,89.35917306250002,89.94681659375001,66.0,88.0
373,89.87641431250002,89.96693153125003,59.0,88.0
374,90.04882806250002,90.60342562500003,45.0,83.0
375,90.22124181250003,90.62928768750002,52.0,82.0
376,90.39365556250002,90.67670146875003,57.0,87.0
377,90.56606931250002,90.72555203125002,61.0,87.0
378,90.91089681250003,91.04164390625002,54.0,70.0
379,91.08331056250002,91.31463234375002,59.0,83.0
380,91.25572431250002,91.36635646875003,63.0,83.0
381,90.73848306250002,91.49279321875002,47.0,85.0
382,91.42813806250003,91.81032187500003,56.0,77.0
383,91.42813806250003,91.83331037500002,59.0,82.0
384,91.42813806250003,91.88790806250002,52.0,82.0
385,91.77296556250002,92.17382753125003,47.0,64.0
386,92.11779306250003,92.33043668750003,56.0,90.0
387,92.11779306250003,92.35342518750002,52.0,87.0
388,92.11779306250003,92.37785046875003,59.0,85.0
389,92.63503431250003,92.88072390625003,52.0,82.0
390,92.46262056250002,92.88647103125003,47.0,69.0
391,92.80744806250003,93.04164340625002,56.0,85.0
392,92.97986181250002,93.09624109375002,59.0,80.0
393,91.42813806250003,93.64652831250002,40.0,85.0
394,93.49710306250002,93.77009150000002,52.0,82.0
395,93.49710306250002,93.79020643750002,56.0,86.0
396,93.49710306250002,93.82325240625002,59.0,83.0
397,93.84193056250002,93.95399950000002,47.0,74.0
398,93.49710306250002,94.12353968750003,64.0,82.0
399,94.01434431250003,94.19825231250002,52.0,78.0
400,94.18675806250002,95.03876934375002,47.0,86.0
401,94.87641306250002,95.08761990625003,66.0,83.0
402,94.87641306250002,95.09193025000002,59.0,86.0
403,95.22124056250003,95.37353937500002,54.0,58.0
404,95.39365431250002,95.54307956250003,63.0,84.0
405,95.39365431250002,95.58187265625003,59.0,85.0
406,95.39365431250002,95.58905656250002,66.0,75.0
407,95.56606806250002,95.77440134375003,51.0,54.0
408,95.91089556250002,96.19394146875003,59.0,82.0
409,96.08330931250002,96.19394146875003,63.0,90.0
410,95.73848181250003,96.30601040625002,54.0,75.0
411,96.25572306250002,96.51578046875002,59.0,80.0
412,96.25572306250002,96.56750459375002,63.0,81.0
413,96.25572306250002,96.60486090625002,71.0,84.0
414,96.60055056250002,96.74422868750003,51.0,75.0
415,96.94537806250003,97.32181475000003,64.0,82.0
416,96.94537806250003,97.34336646875002,61.0,72.0
417,97.29020556250002,97.77583762500002,56.0,60.0
418,97.63503306250003,97.78158475000002,68.0,81.0
419,96.94537806250003,97.81606750000002,49.0,85.0
420,97.63503306250003,97.82325140625002,61.0,82.0
421,98.15227431250003,98.34049265625002,61.0,82.0
422,98.15227431250003,98.38072253125003,64.0,85.0
423,98.49710181250002,98.72267646875002,49.0,77.0
424,98.84192931250003,98.98848100000002,61.0,81.0
425,98.66951556250002,99.03158443750003,56.0,86.0
426,99.01434306250002,99.23560737500003,61.0,82.0
427,99.01434306250002,99.37641193750002,64.0,95.0
428,99.01434306250002,99.61922796875002,68.0,82.0
429,99.35917056250003,99.69825093750002,61.0,81.0
430,100.04882556250003,100.21118184375003,59.0,81.0
431,99.70399806250002,100.50284843750002,47.0,82.0
432,100.39365306250002,100.55026221875002,66.0,83.0
433,100.39365306250002,100.55744612500003,59.0,86.0
434,100.73848056250003,100.94250350000003,54.0,44.0
435,100.91089431250002,101.06319312500003,59.0,82.0
436,100.91089431250002,101.06319312500003,63.0,84.0
437,101.08330806250002,101.26721606250003,51.0,68.0
438,101.42813556250002,101.64221596875002,59.0,92.0
439,101.25572181250003,101.75141134375002,54.0,74.0
440,101.77296306250003,102.00428484375003,59.0,87.0
441,101.77296306250003,102.04307793750003,66.0,81.0
442,102.11779056250002,102.25284800000003,54.0,76.0
443,102.80744556250002,102.97554896875002,56.0,81.0
444,103.15227306250003,103.33330750000002,63.0,81.0
445,103.15227306250003,103.35485921875002,56.0,87.0
446,103.49710056250002,103.73560625000002,51.0,53.0
447,103.66951431250003,103.83187059375003,56.0,83.0
448,103.66951431250003,103.83761771875002,59.0,82.0
449,102.46261806250003,103.86347978125002,44.0,88.0
450,103.84192806250003,103.98129584375002,51.0,60.0
451,104.01434181250002,104.18244521875002,56.0,84.0
452,104.18675556250003,104.38503137500003,59.0,77.0
453,104.53158306250002,104.68388187500003,59.0,86.0
454,104.53158306250002,104.69106578125003,56.0,84.0
455,104.53158306250002,104.72554853125003,63.0,82.0
456,105.22123806250002,105.63646784375003,61.0,78.0
457,105.22123806250002,105.64221496875003,64.0,82.0
458,105.22123806250002,105.65227243750003,68.0,73.0
459,105.56606556250003,106.05169762500003,56.0,64.0
460,105.91089306250002,106.08330681250003,68.0,83.0
461,105.91089306250002,106.10629531250002,61.0,87.0
462,106.42813431250002,106.48560556250003,64.0,74.0
463,106.42813431250002,106.50141015625003,61.0,71.0
464,106.60054806250002,106.93675487500002,61.0,77.0
465,106.60054806250002,106.94250200000002,64.0,84.0
466,107.11778931250002,107.18531803125002,68.0,73.0
467,107.11778931250002,107.20255940625003,61.0,81.0
468,106.94537556250002,107.29163984375002,56.0,60.0
469,107.29020306250003,107.63934090625003,61.0,82.0
470,105.22123806250002,107.67957078125002,49.0,81.0
471,107.63503056250002,107.75572018750003,56.0,81.0
472,107.29020306250003,107.94250175000002,68.0,83.0
473,107.80744431250002,107.98847875000003,61.0,73.0
474,107.97985806250003,107.98847875000003,61.0,75.0
475,107.97985806250003,108.43244415625003,54.0,81.0
476,108.32468556250002,108.77152453125002,49.0,84.0
477,107.97985806250003,108.79307625000003,42.0,85.0
478,108.66951306250003,108.92669690625003,54.0,85.0
479,108.66951306250003,109.10054743750003,57.0,84.0
480,109.01434056250002,109.13646696875003,49.0,83.0
481,108.66951306250003,109.27583475000003,61.0,85.0
482,109.18675431250003,109.35629450000003,54.0,87.0
483,109.70399556250003,109.90083459375002,59.0,86.0
484,109.35916806250003,110.16089200000003,47.0,86.0
485,110.04882306250002,110.24135175000002,59.0,90.0
486,110.04882306250002,110.29594943750003,63.0,87.0
487,110.04882306250002,110.47411031250003,66.0,83.0
488,110.39365056250003,110.61922521875003,59.0,82.0
489,110.73847806250002,110.89077687500003,64.0,84.0
490,110.73847806250002,110.94393778125003,59.0,83.0
491,111.08330556250003,111.53301809375003,47.0,70.0
492,111.42813306250002,111.62209853125003,59.0,85.0
493,111.42813306250002,111.80744331250003,52.0,86.0
494,111.94537431250002,111.99709843750003,56.0,76.0
495,111.94537431250002,112.03014440625003,52.0,78.0
496,111.94537431250002,112.04163865625003,59.0,81.0
497,111.60054681250003,112.12066162500003,47.0,67.0
498,112.11778806250003,112.51577646875003,56.0,81.0
499,112.11778806250003,112.56893737500003,52.0,81.0
500,112.11778806250003,112.63933965625003,59.0,82.0
501,112.80744306250003,113.00571887500003,52.0,87.0
502,112.80744306250003,113.21117859375002,64.0,85.0
503,113.15227056250002,113.51433943750003,59.0,79.0
504,113.49709806250003,113.51433943750003,59.0,83.0
505,110.73847806250002,113.53876471875003,40.0,85.0
506,113.49709806250003,113.53876471875003,40.0,84.0
507,112.46261556250003,113.53876471875003,47.0,77.0
508,113.49709806250003,113.73847731250002,68.0,81.0
509,114.18675306250003,114.46979896875003,68.0,98.0
510,114.53158056250003,114.73129315625003,64.0,85.0
511,113.84192556250002,115.02295975000003,47.0,75.0
512,114.87640806250003,115.16807465625003,64.0,86.0
513,114.87640806250003,115.17382178125003,68.0,86.0
514,114.87640806250003,115.24422406250002,71.0,86.0
515,115.39364931250003,115.50428146875002,64.0,90.0
516,115.22123556250003,115.70112050000003,47.0,74.0
517,115.56606306250002,115.76433887500002,64.0,82.0
518,115.56606306250002,116.22841921875003,71.0,86.0
519,115.56606306250002,116.23416634375003,68.0,92.0
520,115.56606306250002,116.23703990625003,76.0,84.0
521,115.91089056250003,116.29882150000003,64.0,83.0
522,116.94537306250002,117.10772934375002,68.0,83.0
523,116.94537306250002,117.11491325000003,61.0,86.0
524,116.60054556250003,117.19824656250003,56.0,68.0
525,117.29020056250003,117.55025796875003,56.0,49.0
526,117.46261431250002,117.64221196875003,61.0,83.0
527,117.46261431250002,117.64221196875003,64.0,85.0
528,117.63502806250003,117.85916593750002,56.0,63.0
529,117.80744181250003,117.99709693750003,61.0,87.0
530,117.97985556250003,118.48416578125003,56.0,74.0
531,116.25571806250002,118.53732668750003,49.0,83.0
532,118.32468306250003,118.64221171875003,61.0,82.0
533,118.66951056250002,118.81606225000003,56.0,70.0
534,118.32468306250003,119.00428059375002,68.0,83.0
535,118.84192431250003,119.06318862500002,61.0,78.0
536,119.70399306250003,119.90226887500003,57.0,81.0
537,119.70399306250003,119.92525737500003,54.0,82.0
538,120.22123431250003,120.38215381250002,61.0,83.0
539,120.22123431250003,120.40945265625002,54.0,83.0
540,119.35916556250002,120.74996981250003,49.0,69.0
541,120.56606181250002,120.75428015625003,57.0,81.0
542,120.73847556250003,120.94680884375003,54.0,85.0
543,119.01433806250003,121.24709612500003,42.0,86.0
544,121.08330306250002,121.36203862500003,54.0,87.0
545,121.42813056250003,121.52295812500003,49.0,80.0
546,121.08330306250002,121.61491212500003,61.0,83.0
547,121.60054431250003,121.75715346875003,54.0,84.0
548,122.11778556250003,122.34192343750003,59.0,84.0
549,122.46261306250003,122.69968196875003,66.0,84.0
550,122.46261306250003,122.72267046875002,63.0,87.0
551,122.46261306250003,122.83473940625002,59.0,84.0
552,122.80744056250003,123.06175084375003,54.0,75.0
553,122.97985431250002,123.20111862500003,63.0,78.0
554,122.97985431250002,123.20973931250003,59.0,80.0
555,122.97985431250002,123.22410712500003,66.0,76.0
556,122.97985431250002,123.25571631250003,69.0,82.0
557,123.15226806250003,123.40801512500003,54.0,78.0
558,123.32468181250003,123.55456681250003,59.0,86.0
559,123.49709556250004,123.69680815625003,63.0,73.0
560,123.49709556250004,123.70686562500003,66.0,75.0
561,123.84192306250003,123.88933684375003,59.0,61.0
562,123.84192306250003,124.40083096875003,71.0,87.0
563,123.84192306250003,124.42525625000003,63.0,77.0
564,121.77295806250002,124.47554359375003,47.0,83.0
565,124.18675056250002,124.56462403125003,59.0,81.0
566,124.53157806250003,124.56462403125003,59.0,83.0
567,124.53157806250003,124.77295731250003,68.0,81.0
568,125.22123306250003,125.50427896875003,68.0,98.0
569,125.56606056250003,125.76577315625003,64.0,85.0
570,124.87640556250003,126.05743975000003,47.0,75.0
571,125.91088806250004,126.20255465625003,64.0,86.0
572,125.91088806250004,126.20830178125003,68.0,86.0
573,125.91088806250004,126.27870406250003,71.0,86.0
574,126.42812931250003,126.53876146875002,64.0,90.0
575,126.25571556250003,126.73560050000003,47.0,74.0
576,126.60054306250002,126.79881887500002,64.0,82.0
577,124.53157806250003,126.80456600000004,40.0,84.0
578,126.60054306250002,127.26289921875004,71.0,86.0
579,126.60054306250002,127.26864634375004,68.0,92.0
580,126.60054306250002,127.27151990625003,76.0,84.0
581,126.94537056250003,127.33330150000003,64.0,83.0
582,127.97985306250003,128.14220934375004,68.0,83.0
583,127.97985306250003,128.14939325000003,61.0,86.0
584,127.63502556250003,128.23272656250003,56.0,68.0
585,128.32468056250002,128.58473796875003,56.0,49.0
586,128.49709431250002,128.67669196875002,61.0,83.0
587,128.49709431250002,128.67669196875002,64.0,85.0
588,128.66950806250003,128.89364593750003,56.0,63.0
589,128.84192181250003,129.03157693750003,61.0,87.0
590,129.01433556250004,129.51864578125003,56.0,74.0
591,127.29019806250002,129.57180668750004,49.0,83.0
592,129.35916306250004,129.67669171875002,61.0,82.0
593,129.70399056250002,129.85054225000002,56.0,70.0
594,129.35916306250004,130.03876059375003,68.0,83.0
595,129.87640431250003,130.09766862500004,61.0,78.0
596,130.04881806250003,130.70973743750002,42.0,88.0
597,130.39364556250004,130.75858800000003,49.0,75.0
598,130.56605931250004,130.80169143750004,54.0,84.0
599,130.73847306250002,130.87496728125004,61.0,88.0
600,130.91088681250002,131.14220859375004,54.0,92.0
601,131.08330056250003,131.32467981250002,57.0,82.0
602,131.25571431250003,131.40801312500002,61.0,81.0
603,131.77295556250004,132.10628881250003,54.0,72.0
604,131.42812806250004,132.17381753125002,47.0,82.0
605,132.11778306250002,132.32180600000004,59.0,83.0
606,132.11778306250002,132.47841515625004,63.0,83.0
607,132.11778306250002,132.52870250000004,66.0,86.0
608,132.46261056250003,132.69393234375002,59.0,80.0
609,132.80743806250004,133.18531153125002,64.0,82.0
610,132.80743806250004,133.19393221875004,59.0,81.0
611,133.15226556250002,133.38215056250004,47.0,62.0
612,133.32467931250002,133.56462178125003,64.0,88.0
613,133.32467931250002,133.56605856250002,59.0,82.0
614,133.32467931250002,133.66519646875003,68.0,88.0
615,133.66950681250003,133.77582862500003,59.0,77.0
616,133.66950681250003,133.92669065625003,64.0,82.0
617,133.84192056250004,134.04306993750004,59.0,81.0
618,133.49709306250003,134.08761015625004,47.0,70.0
619,132.80743806250004,134.14364462500004,40.0,84.0
620,134.18674806250004,134.73990884375004,59.0,82.0
621,134.18674806250004,134.75427665625003,64.0,84.0
622,134.87640306250003,135.08186278125004,59.0,78.0
623,135.22123056250004,135.56749484375004,59.0,81.0
624,134.87640306250003,135.57898909375004,68.0,79.0
625,134.53157556250002,135.58904656250004,47.0,73.0
626,134.18674806250004,135.60054081250004,40.0,81.0
627,135.56605806250002,135.60054081250004,40.0,86.0
628,136.25571306250004,136.65370146875003,56.0,95.0
629,136.60054056250004,137.03444850000002,52.0,82.0
630,136.94536806250002,137.32180475000004,56.0,75.0
631,136.94536806250002,137.43243690625005,59.0,80.0
632,137.29019556250003,137.70398856250003,52.0,79.0
633,135.91088556250003,137.90226437500004,47.0,69.0
634,137.97985056250002,138.29881600000004,52.0,86.0
635,137.63502306250004,138.46548262500002,64.0,86.0
636,138.66950556250004,139.11347096875002,59.0,77.0
637,139.01433306250004,139.40657434375004,63.0,82.0
638,139.35916056250002,139.82467768750004,54.0,71.0
639,139.70398806250003,140.13071209375002,66.0,76.0
640,139.70398806250003,140.14507990625003,59.0,81.0
641,140.39364306250005,140.47841315625004,59.0,72.0
642,140.04881556250004,140.48847062500002,54.0,65.0
643,138.32467806250003,140.66519471875003,47.0,84.0
644,140.39364306250005,140.69824068750003,63.0,83.0
645,141.42812556250004,141.85915993750004,61.0,82.0
646,141.77295306250002,142.17525181250002,64.0,81.0
647,142.11778056250003,142.32036671875002,61.0,82.0
648,142.46260806250004,142.96404471875005,61.0,90.0
649,142.46260806250004,142.98128609375004,68.0,84.0
650,141.08329806250003,143.17381478125003,37.0,84.0
651,142.80743556250005,143.21260787500003,44.0,70.0
652,143.15226306250003,143.31605612500005,61.0,84.0
653,143.15226306250003,143.48128596875003,64.0,88.0
654,143.49709056250003,143.61634340625002,61.0,76.0
655,143.84191806250004,144.26576853125005,59.0,82.0
656,143.84191806250004,144.37065356250002,63.0,75.0
657,144.18674556250002,144.60484890625003,54.0,68.0
658,144.53157306250003,144.98846950000004,59.0,95.0
659,144.87640056250004,145.36203262500004,54.0,74.0
660,145.56605556250003,145.91663018750003,54.0,72.0
661,145.22122806250005,145.94105546875002,66.0,70.0
662,145.22122806250005,145.95398650000004,59.0,83.0
663,143.84191806250004,145.99996350000004,47.0,80.0
664,145.91088306250003,146.19392896875004,63.0,83.0
665,146.60053806250002,147.03731956250004,56.0,76.0
666,146.60053806250002,147.30312409375003,59.0,81.0
667,146.94536556250003,147.44392865625002,51.0,72.0
668,147.29019306250004,147.76289409375005,56.0,85.0
669,147.63502056250005,147.83904350000003,59.0,77.0
670,147.97984806250003,148.38789393750002,63.0,83.0
671,148.32467556250003,148.77438809375005,51.0,57.0
672,148.66950306250004,148.78588234375005,56.0,81.0
673,148.66950306250004,148.79737659375004,59.0,81.0
674,146.60053806250002,148.80887084375004,44.0,82.0
675,149.35915806250003,149.71691659375003,61.0,78.0
676,149.35915806250003,150.08616937500003,64.0,83.0
677,149.70398556250004,150.20254865625003,44.0,67.0
678,150.39364056250002,150.92093928125004,44.0,56.0
679,150.04881306250005,151.07467487500003,61.0,83.0
680,150.73846806250003,151.22410012500004,68.0,87.0
681,149.35915806250003,151.62496209375004,37.0,81.0
682,151.08329556250004,151.62783565625003,44.0,63.0
683,151.42812306250005,151.64364025000003,68.0,81.0
684,151.42812306250005,151.64651381250005,64.0,88.0
685,151.42812306250005,151.65944484375004,61.0,85.0
686,151.77295056250003,151.89938731250004,37.0,81.0
687,152.11777806250004,152.56318025000004,54.0,75.0
688,152.11777806250004,152.89220315625005,57.0,74.0
689,152.46260556250004,152.97266290625004,49.0,68.0
690,153.15226056250003,153.62639837500004,49.0,64.0
691,153.49708806250004,154.17955915625004,61.0,84.0
692,152.80743306250002,154.19105340625003,54.0,86.0
693,153.84191556250005,154.26145568750005,49.0,68.0
694,152.11777806250004,154.26576603125002,42.0,79.0
695,154.18674306250003,154.60053606250003,57.0,76.0
696,154.53157056250004,154.88645553125005,54.0,88.0
697,155.22122556250002,155.69392659375004,59.0,78.0
698,155.91088056250004,156.12208740625005,59.0,85.0
699,156.25570806250005,156.33473103125004,59.0,69.0
700,155.56605306250003,156.35771953125004,54.0,75.0
701,156.25570806250005,156.68961600000003,66.0,86.0
702,156.25570806250005,156.69105278125005,63.0,87.0
703,156.60053556250003,156.79593781250003,59.0,48.0
704,156.94536306250004,157.12927106250004,71.0,83.0
705,156.94536306250004,157.16231703125004,66.0,77.0
706,156.94536306250004,157.16519059375003,63.0,81.0
707,157.29019056250004,157.60053531250003,69.0,82.0
708,156.60053556250003,157.61777668750003,54.0,74.0
709,154.87639806250004,157.67668471875004,47.0,83.0
710,157.63501806250002,158.01720187500004,56.0,77.0
711,157.63501806250002,158.04019037500004,59.0,82.0
712,157.63501806250002,158.09478806250004,52.0,82.0
713,157.97984556250003,158.38070753125004,47.0,64.0
714,158.32467306250004,158.53731668750004,56.0,90.0
715,158.32467306250004,158.56030518750003,52.0,87.0
716,158.32467306250004,158.58473046875002,59.0,85.0
717,158.84191431250005,159.08760390625002,52.0,82.0
718,158.66950056250005,159.09335103125005,47.0,69.0
719,159.01432806250003,159.24852340625003,56.0,85.0
720,159.18674181250003,159.30312109375004,59.0,80.0
721,157.63501806250002,159.85340831250005,40.0,85.0
722,159.70398306250004,159.97697150000005,52.0,82.0
723,159.70398306250004,159.99708643750003,56.0,86.0
724,159.70398306250004,160.03013240625003,59.0,83.0
725,160.04881056250005,160.16087950000005,47.0,74.0
726,159.70398306250004,160.33041968750004,64.0,82.0
727,160.22122431250003,160.40513231250003,52.0,78.0
728,160.39363806250003,161.24564934375005,47.0,86.0
729,161.08329306250005,161.29449990625002,66.0,83.0
730,161.08329306250005,161.29881025000003,59.0,86.0
731,161.42812056250003,161.58041937500005,54.0,58.0
732,161.60053431250003,161.74995956250004,63.0,84.0
733,161.60053431250003,161.78875265625004,59.0,85.0
734,161.60053431250003,161.79593656250003,66.0,75.0
735,161.77294806250003,161.98128134375003,51.0,54.0
736,162.11777556250004,162.40082146875005,59.0,82.0
737,162.29018931250005,162.40082146875005,63.0,90.0
738,161.94536181250004,162.51289040625005,54.0,75.0
739,162.46260306250005,162.72266046875004,59.0,80.0
740,162.46260306250005,162.77438459375003,63.0,81.0
741,162.46260306250005,162.81174090625004,71.0,84.0
742,162.80743056250003,162.95110868750004,51.0,75.0
743,163.15225806250004,163.52869475000003,64.0,82.0
744,163.15225806250004,163.55024646875003,61.0,72.0
745,163.49708556250005,163.98271762500005,56.0,60.0
746,163.84191306250003,163.98846475000005,68.0,81.0
747,163.15225806250004,164.02294750000004,49.0,85.0
748,163.84191306250003,164.03013140625004,61.0,82.0
749,164.35915431250004,164.54737265625005,61.0,82.0
750,164.35915431250004,164.58760253125004,64.0,85.0
751,164.70398181250005,164.92955646875004,49.0,77.0
752,165.04880931250003,165.19536100000005,61.0,81.0
753,164.87639556250005,165.23846443750003,56.0,86.0
754,165.22122306250003,165.44248737500004,61.0,82.0
755,165.22122306250003,165.58329193750004,64.0,95.0
756,165.22122306250003,165.82610796875005,68.0,82.0
757,165.56605056250004,165.90513093750005,61.0,81.0
758,166.25570556250003,166.41806184375005,59.0,81.0
759,165.91087806250005,166.70972843750005,47.0,82.0
760,166.60053306250003,166.75714221875003,66.0,83.0
761,166.60053306250003,166.76432612500005,59.0,86.0
762,166.94536056250004,167.14938350000003,54.0,44.0
763,167.11777431250005,167.27007312500004,59.0,82.0
764,167.11777431250005,167.27007312500004,63.0,84.0
765,167.29018806250005,167.47409606250005,51.0,68.0
766,167.63501556250003,167.84909596875005,59.0,92.0
767,167.46260181250003,167.95829134375003,54.0,74.0
768,167.97984306250004,168.21116484375003,59.0,87.0
769,167.97984306250004,168.24995793750003,66.0,81.0
770,168.32467056250005,168.45972800000004,54.0,76.0
771,169.01432556250003,169.18242896875003,56.0,81.0
772,169.35915306250004,169.54018750000003,63.0,81.0
773,169.35915306250004,169.56173921875003,56.0,87.0
774,169.70398056250005,169.94248625000003,51.0,53.0
775,169.87639431250005,170.03875059375005,56.0,83.0
776,169.87639431250005,170.04449771875005,59.0,82.0
777,168.66949806250005,170.07035978125003,44.0,88.0
778,170.04880806250003,170.18817584375003,51.0,60.0
779,170.22122181250003,170.38932521875003,56.0,84.0
780,170.39363556250004,170.59191137500005,59.0,77.0
781,170.73846306250005,170.89076187500004,59.0,86.0
782,170.73846306250005,170.89794578125003,56.0,84.0
783,170.73846306250005,170.93242853125005,63.0,82.0
784,171.42811806250003,171.84334784375005,61.0,78.0
785,171.42811806250003,171.84909496875005,64.0,82.0
786,171.42811806250003,171.85915243750003,68.0,73.0
787,171.77294556250004,172.25857762500004,56.0,64.0
788,172.11777306250005,172.29018681250005,68.0,83.0
789,172.11777306250005,172.31317531250005,61.0,87.0
790,172.63501431250003,172.69248556250005,64.0,74.0
791,172.63501431250003,172.70829015625003,61.0,71.0
792,172.80742806250004,173.14363487500003,61.0,77.0
793,172.80742806250004,173.14938200000003,64.0,84.0
794,173.32466931250005,173.39219803125005,68.0,73.0
795,173.32466931250005,173.40943940625004,61.0,81.0
796,173.15225556250005,173.49851984375005,56.0,60.0
797,173.49708306250005,173.84622090625004,61.0,82.0
798,171.42811806250003,173.88645078125003,49.0,81.0
799,173.84191056250003,173.96260018750004,56.0,81.0
800,173.49708306250005,174.14938175000003,68.0,83.0
801,174.01432431250004,174.19535875000005,61.0,73.0
802,174.53156556250005,174.71547356250005,54.0,78.0
803,174.87639306250003,175.13070334375004,57.0,81.0
804,174.87639306250003,175.17955390625005,54.0,85.0
805,175.22122056250004,175.49995612500004,49.0,47.0
806,175.39363431250004,175.58185265625005,61.0,82.0
807,175.39363431250004,175.60915150000005,54.0,82.0
808,175.56604806250004,175.95541578125005,49.0,69.0
809,174.18673806250004,176.14938125000003,42.0,86.0
810,175.91087556250005,176.22409387500005,54.0,86.0
811,175.91087556250005,176.28012834375005,57.0,86.0
812,176.25570306250003,176.37926625000003,49.0,82.0
813,176.42811681250004,176.74133512500003,54.0,88.0
814,176.60053056250004,176.80599028125005,57.0,81.0
815,176.77294431250004,176.90943853125003,61.0,82.0
816,177.29018556250003,177.48271425000004,59.0,81.0
817,177.63501306250004,177.96978309375004,59.0,87.0
818,177.63501306250004,178.01719687500005,63.0,92.0
819,176.94535806250005,178.04449571875006,47.0,83.0
820,177.97984056250004,178.15225431250005,51.0,61.0
821,177.63501306250004,178.22265659375003,66.0,88.0
822,178.15225431250005,178.24277153125004,59.0,88.0
823,178.32466806250005,178.87926562500004,45.0,83.0
824,178.49708181250006,178.90512768750006,52.0,82.0
825,178.66949556250003,178.95254146875004,57.0,87.0
826,178.84190931250004,179.00139203125005,61.0,87.0
827,179.18673681250004,179.31748390625003,54.0,70.0
828,179.35915056250005,179.59047234375004,59.0,83.0
829,179.53156431250005,179.64219646875003,63.0,83.0
830,179.01432306250004,179.76863321875004,47.0,85.0
831,179.70397806250006,180.08616187500004,56.0,77.0
832,179.70397806250006,180.10915037500004,59.0,82.0
833,179.70397806250006,180.16374806250005,52.0,82.0
834,180.04880556250004,180.44966753125004,47.0,64.0
835,180.39363306250004,180.60627668750004,56.0,90.0
836,180.39363306250004,180.62926518750004,52.0,87.0
837,180.39363306250004,180.65369046875006,59.0,85.0
838,180.91087431250006,181.15656390625006,52.0,82.0
839,180.73846056250005,181.16231103125006,47.0,69.0
840,181.08328806250003,181.31748340625003,56.0,85.0
841,181.25570181250004,181.37208109375004,59.0,80.0
842,179.70397806250006,181.92236831250005,40.0,85.0
843,181.77294306250005,182.04593150000005,52.0,82.0
844,181.77294306250005,182.06604643750003,56.0,86.0
845,181.77294306250005,182.09909240625004,59.0,83.0
846,182.11777056250006,182.22983950000005,47.0,74.0
847,181.77294306250005,182.39937968750004,64.0,82.0
848,182.29018431250003,182.47409231250003,52.0,78.0
849,182.46259806250004,183.31460934375005,47.0,86.0
850,183.15225306250005,183.36345990625006,66.0,83.0
851,183.15225306250005,183.36777025000004,59.0,86.0
852,183.49708056250003,183.64937937500005,54.0,58.0
853,183.66949431250003,183.81891956250004,63.0,84.0
854,183.66949431250003,183.85771265625004,59.0,85.0
855,183.66949431250003,183.86489656250004,66.0,75.0
856,183.84190806250004,184.05024134375003,51.0,54.0
857,184.18673556250005,184.46978146875006,59.0,82.0
858,184.35914931250005,184.46978146875006,63.0,90.0
859,184.01432181250004,184.58185040625006,54.0,75.0
860,184.53156306250006,184.79162046875004,59.0,80.0
861,184.53156306250006,184.84334459375003,63.0,81.0
862,184.53156306250006,184.88070090625004,71.0,84.0
863,184.87639056250003,185.02006868750004,51.0,75.0
864,185.22121806250004,185.59765475000003,64.0,82.0
865,185.22121806250004,185.61920646875004,61.0,72.0
866,185.56604556250005,186.05167762500005,56.0,60.0
867,185.91087306250003,186.05742475000005,68.0,81.0
868,185.22121806250004,186.09190750000005,49.0,85.0
869,185.91087306250003,186.09909140625004,61.0,82.0
870,186.42811431250004,186.61633265625005,61.0,82.0
871,186.42811431250004,186.65656253125005,64.0,85.0
872,186.77294181250005,186.99851646875004,49.0,77.0
873,187.11776931250003,187.26432100000005,61.0,81.0
874,186.94535556250005,187.30742443750003,56.0,86.0
875,187.29018306250003,187.51144737500005,61.0,82.0
876,187.29018306250003,187.65225193750004,64.0,95.0
877,187.29018306250003,187.89506796875006,68.0,82.0
878,187.63501056250004,187.97409093750005,61.0,81.0
879,188.32466556250006,188.48702184375006,59.0,81.0
880,187.97983806250005,188.77868843750005,47.0,82.0
881,188.66949306250004,188.82610221875004,66.0,83.0
882,188.66949306250004,188.83328612500006,59.0,86.0
883,189.01432056250005,189.21834350000003,54.0,44.0
884,189.18673431250005,189.33903312500004,59.0,82.0
885,189.18673431250005,189.33903312500004,63.0,84.0
886,189.35914806250005,189.54305606250006,51.0,68.0
887,189.70397556250003,189.91805596875005,59.0,92.0
888,189.53156181250006,190.02725134375004,54.0,74.0
889,190.04880306250004,190.28012484375006,59.0,87.0
890,190.04880306250004,190.31891793750003,66.0,81.0
891,190.39363056250005,190.52868800000005,54.0,76.0
892,191.08328556250004,191.25138896875004,56.0,81.0
893,191.42811306250005,191.60914750000003,63.0,81.0
894,191.42811306250005,191.63069921875004,56.0,87.0
895,191.77294056250005,192.01144625000003,51.0,53.0
896,191.94535431250006,192.10771059375006,56.0,83.0
897,191.94535431250006,192.11345771875006,59.0,82.0
898,190.73845806250006,192.13931978125004,44.0,88.0
899,192.11776806250003,192.25713584375004,51.0,60.0
900,192.29018181250004,192.45828521875004,56.0,84.0
901,192.46259556250004,192.66087137500006,59.0,77.0
902,192.80742306250005,192.95972187500004,59.0,86.0
903,192.80742306250005,192.96690578125003,56.0,84.0
904,192.80742306250005,193.00138853125006,63.0,82.0
905,193.49707806250004,193.91230784375006,61.0,78.0
906,193.49707806250004,193.91805496875006,64.0,82.0
907,193.49707806250004,193.92811243750003,68.0,73.0
908,193.84190556250005,194.32753762500005,56.0,64.0
909,194.18673306250005,194.35914681250006,68.0,83.0
910,194.18673306250005,194.38213531250005,61.0,87.0
911,194.70397431250004,194.76144556250006,64.0,74.0
912,194.70397431250004,194.77725015625003,61.0,71.0
913,194.87638806250004,195.21259487500004,61.0,77.0
914,194.87638806250004,195.21834200000004,64.0,84.0
915,195.39362931250005,195.46115803125005,68.0,73.0
916,195.39362931250005,195.47839940625005,61.0,81.0
917,195.22121556250005,195.56747984375005,56.0,60.0
918,195.56604306250006,195.91518090625004,61.0,82.0
919,193.49707806250004,195.95541078125004,49.0,81.0
920,195.91087056250004,196.03156018750005,56.0,81.0
921,195.56604306250006,196.21834175000004,68.0,83.0
922,196.08328431250004,196.26431875000006,61.0,73.0
923,196.25569806250004,196.26431875000006,61.0,75.0
924,196.25569806250004,196.70828415625004,54.0,81.0
925,196.60052556250005,197.04736453125005,49.0,84.0
926,196.25569806250004,197.06891625000006,42.0,85.0
927,196.94535306250003,197.20253690625006,54.0,85.0
928,196.94535306250003,197.37638743750006,57.0,84.0
929,197.29018056250004,197.41230696875004,49.0,83.0
930,196.94535306250003,197.55167475000005,61.0,85.0
931,197.46259431250004,197.63213450000003,54.0,87.0
932,197.97983556250006,198.17667459375005,59.0,86.0
933,197.63500806250005,198.43673200000003,47.0,86.0
934,198.32466306250004,198.51719175000005,59.0,90.0
935,198.32466306250004,198.57178943750006,63.0,87.0
936,198.32466306250004,198.74995031250003,66.0,83.0
937,198.66949056250004,198.89506521875003,59.0,82.0
938,199.01431806250005,199.16661687500005,64.0,84.0
939,199.01431806250005,199.21977778125006,59.0,83.0
940,199.35914556250006,199.80885809375005,47.0,70.0
941,199.70397306250004,199.89793853125005,59.0,85.0
942,199.70397306250004,200.08328331250004,52.0,86.0
943,200.22121431250005,200.27293843750004,56.0,76.0
944,200.22121431250005,200.30598440625005,52.0,78.0
945,200.22121431250005,200.31747865625005,59.0,81.0
946,199.87638681250004,200.39650162500004,47.0,67.0
947,200.39362806250006,200.79161646875005,56.0,81.0
948,200.39362806250006,200.84477737500004,52.0,81.0
949,200.39362806250006,200.91517965625005,59.0,82.0
950,201.08328306250004,201.28155887500006,52.0,87.0
951,201.08328306250004,201.48701859375004,64.0,85.0
952,199.01431806250005,201.60052431250006,40.0,85.0
953,200.73845556250004,201.60052431250006,47.0,77.0
954,201.42811056250005,201.77293806250006,59.0,79.0
955,201.77293806250006,201.92523687500005,64.0,83.0
956,201.77293806250006,201.93098400000005,61.0,82.0
957,201.77293806250006,201.93242078125004,57.0,79.0
958,201.77293806250006,201.95540928125004,52.0,82.0
959,201.77293806250006,201.98558168750006,45.0,83.0
960,202.11776556250004,202.23414484375004,61.0,85.0
961,202.11776556250004,202.23845518750005,64.0,85.0
962,202.11776556250004,202.24276553125006,57.0,82.0
963,202.11776556250004,202.26144368750005,52.0,87.0
964,202.11776556250004,202.29305287500006,45.0,82.0
965,203.34621353125004,204.41374200000004,57.0,78.0
966,203.43242040625006,204.41517878125003,64.0,77.0
967,203.39937443750006,204.42092590625006,61.0,75.0
968,203.45828246875004,204.44247762500004,69.0,82.0
969,203.42092615625006,204.45253509375004,45.0,83.0
970,204.53155806250004,205.38356934375005,47.0,86.0
971,205.22121306250006,205.43241990625006,66.0,83.0
972,205.22121306250006,205.43673025000004,59.0,86.0
973,205.56604056250004,205.71833937500006,54.0,58.0
974,205.73845431250004,205.88787956250005,63.0,84.0
975,205.73845431250004,205.92667265625005,59.0,85.0
976,205.73845431250004,205.93385656250004,66.0,75.0
977,205.91086806250004,206.11920134375003,51.0,54.0
978,206.25569556250005,206.53874146875006,59.0,82.0
979,206.42810931250006,206.53874146875006,63.0,90.0
980,206.08328181250005,206.65081040625006,54.0,75.0
981,206.60052306250006,206.86058046875004,59.0,80.0
982,206.60052306250006,206.91230459375004,63.0,81.0
983,206.60052306250006,206.94966090625005,71.0,84.0
984,206.94535056250004,207.08902868750005,51.0,75.0
985,207.29017806250005,207.66661475000004,64.0,82.0
986,207.29017806250005,207.68816646875004,61.0,72.0
987,207.63500556250006,208.12063762500006,56.0,60.0
988,207.97983306250006,208.12638475000006,68.0,81.0
989,207.29017806250005,208.16086750000005,49.0,85.0
990,207.97983306250006,208.16805140625004,61.0,82.0
991,208.49707431250005,208.68529265625006,61.0,82.0
992,208.49707431250005,208.72552253125005,64.0,85.0
993,208.84190181250005,209.06747646875004,49.0,77.0
994,209.18672931250006,209.33328100000006,61.0,81.0
995,209.01431556250006,209.37638443750004,56.0,86.0
996,209.35914306250004,209.58040737500005,61.0,82.0
997,209.35914306250004,209.72121193750004,64.0,95.0
998,209.35914306250004,209.96402796875006,68.0,82.0
999,209.70397056250005,210.04305093750006,61.0,81.0
1000,210.39362556250006,210.55598184375006,59.0,81.0
1001,210.04879806250005,210.84764843750006,47.0,82.0
1002,210.73845306250004,210.89506221875004,66.0,83.0
1003,210.73845306250004,210.90224612500006,59.0,86.0
1004,211.08328056250005,211.28730350000006,54.0,44.0
1005,211.25569431250005,211.40799312500005,59.0,82.0
1006,211.25569431250005,211.40799312500005,63.0,84.0
1007,211.42810806250006,211.61201606250006,51.0,68.0
1008,211.77293556250004,211.98701596875006,59.0,92.0
1009,211.60052181250006,212.09621134375004,54.0,74.0
1010,212.11776306250005,212.34908484375006,59.0,87.0
1011,212.11776306250005,212.38787793750004,66.0,81.0
1012,212.46259056250005,212.59764800000005,54.0,76.0
1013,213.15224556250004,213.32034896875004,56.0,81.0
1014,213.49707306250005,213.67810750000004,63.0,81.0
1015,213.49707306250005,213.69965921875004,56.0,87.0
1016,213.84190056250006,214.08040625000004,51.0,53.0
1017,214.01431431250006,214.17667059375006,56.0,83.0
1018,214.01431431250006,214.18241771875006,59.0,82.0
1019,212.80741806250006,214.20827978125004,44.0,88.0
1020,214.18672806250004,214.32609584375004,51.0,60.0
1021,214.35914181250004,214.52724521875004,56.0,84.0
1022,214.53155556250005,214.72983137500006,59.0,77.0
1023,214.87638306250005,215.02868187500005,59.0,86.0
1024,214.87638306250005,215.03586578125004,56.0,84.0
1025,214.87638306250005,215.07034853125006,63.0,82.0
1026,215.56603806250004,215.98126784375006,61.0,78.0
1027,215.56603806250004,215.98701496875006,64.0,82.0
1028,215.56603806250004,215.99707243750004,68.0,73.0
1029,215.91086556250005,216.39649762500005,56.0,64.0
1030,216.25569306250006,216.42810681250006,68.0,83.0
1031,216.25569306250006,216.45109531250006,61.0,87.0
1032,216.77293431250004,216.83040556250006,64.0,74.0
1033,216.77293431250004,216.84621015625004,61.0,71.0
1034,216.94534806250005,217.28155487500004,61.0,77.0
1035,216.94534806250005,217.28730200000004,64.0,84.0
1036,217.46258931250006,217.53011803125005,68.0,73.0
1037,217.46258931250006,217.54735940625005,61.0,81.0
1038,217.29017556250005,217.63643984375005,56.0,60.0
1039,217.63500306250006,217.98414090625005,61.0,82.0
1040,215.56603806250004,218.02437078125004,49.0,81.0
1041,217.97983056250004,218.10052018750005,56.0,81.0
1042,217.63500306250006,218.28730175000004,68.0,83.0
1043,218.15224431250004,218.33327875000006,61.0,73.0
1044,218.66948556250006,218.85339356250006,54.0,78.0
1045,219.01431306250007,219.26862334375005,57.0,81.0
1046,219.01431306250007,219.31747390625006,54.0,85.0
1047,219.35914056250004,219.63787612500005,49.0,47.0
1048,219.53155431250005,219.71977265625006,61.0,82.0
1049,219.53155431250005,219.74707150000006,54.0,82.0
1050,219.70396806250005,220.09333578125006,49.0,69.0
1051,218.32465806250005,220.28730125000004,42.0,86.0
1052,220.04879556250006,220.36201387500006,54.0,86.0
1053,220.04879556250006,220.41804834375006,57.0,86.0
1054,220.39362306250004,220.51718625000007,49.0,82.0
1055,220.56603681250004,220.87925512500004,54.0,88.0
1056,220.73845056250005,220.94391028125006,57.0,81.0
1057,220.91086431250005,221.04735853125004,61.0,82.0
1058,221.42810556250006,221.62063425000005,59.0,81.0
1059,221.77293306250004,222.10770309375005,59.0,87.0
1060,221.77293306250004,222.15511687500006,63.0,92.0
1061,221.08327806250006,222.18241571875006,47.0,83.0
1062,222.11776056250005,222.29017431250006,51.0,61.0
1063,221.77293306250004,222.36057659375004,66.0,88.0
1064,222.29017431250006,222.38069153125005,59.0,88.0
1065,222.46258806250006,223.01718562500005,45.0,83.0
1066,222.63500181250006,223.04304768750006,52.0,82.0
1067,222.80741556250004,223.09046146875005,57.0,87.0
1068,222.97982931250004,223.13931203125006,61.0,87.0
1069,223.32465681250005,223.45540390625004,54.0,70.0
1070,223.49707056250006,223.72839234375004,59.0,83.0
1071,223.66948431250006,223.78011646875007,63.0,83.0
1072,223.15224306250005,223.90655321875005,47.0,85.0
1073,223.84189806250006,224.22408187500005,56.0,77.0
1074,223.84189806250006,224.24707037500005,59.0,82.0
1075,223.84189806250006,224.30166806250006,52.0,82.0
1076,224.18672556250004,224.58758753125005,47.0,64.0
1077,224.53155306250005,224.74419668750005,56.0,90.0
1078,224.53155306250005,224.76718518750005,52.0,87.0
1079,224.53155306250005,224.79161046875006,59.0,85.0
1080,225.04879431250006,225.29448390625006,52.0,82.0
1081,224.87638056250006,225.30023103125006,47.0,69.0
1082,225.22120806250004,225.45540340625004,56.0,85.0
1083,225.39362181250004,225.51000109375005,59.0,80.0
1084,223.84189806250006,226.06028831250006,40.0,85.0
1085,225.91086306250006,226.18385150000006,52.0,82.0
1086,225.91086306250006,226.20396643750004,56.0,86.0
1087,225.91086306250006,226.23701240625005,59.0,83.0
1088,226.25569056250006,226.36775950000006,47.0,74.0
1089,225.91086306250006,226.53729968750005,64.0,82.0
1090,226.42810431250007,226.61201231250004,52.0,78.0
1091,226.60051806250004,227.45252934375006,47.0,86.0
1092,227.29017306250006,227.50137990625007,66.0,83.0
1093,227.29017306250006,227.50569025000004,59.0,86.0
1094,227.63500056250007,227.78729937500006,54.0,58.0
1095,227.80741431250004,227.95683956250005,63.0,84.0
1096,227.80741431250004,227.99563265625005,59.0,85.0
1097,227.80741431250004,228.00281656250004,66.0,75.0
1098,227.97982806250005,228.18816134375007,51.0,54.0
1099,228.32465556250006,228.60770146875007,59.0,82.0
1100,228.49706931250006,228.60770146875007,63.0,90.0
1101,228.15224181250005,228.71977040625006,54.0,75.0
1102,228.66948306250006,228.92954046875005,59.0,80.0
1103,228.66948306250006,228.98126459375004,63.0,81.0
1104,228.66948306250006,229.01862090625005,71.0,84.0
1105,229.01431056250004,229.15798868750005,51.0,75.0
1106,229.35913806250005,229.73557475000004,64.0,82.0
1107,229.35913806250005,229.75712646875004,61.0,72.0
1108,229.70396556250006,230.18959762500006,56.0,60.0
1109,230.04879306250007,230.19534475000006,68.0,81.0
1110,229.35913806250005,230.22982750000006,49.0,85.0
1111,230.04879306250007,230.23701140625005,61.0,82.0
1112,230.56603431250005,230.75425265625006,61.0,82.0
1113,230.56603431250005,230.79448253125005,64.0,85.0
1114,230.91086181250006,231.13643646875005,49.0,77.0
1115,231.25568931250007,231.40224100000006,61.0,81.0
1116,231.08327556250006,231.44534443750007,56.0,86.0
1117,231.42810306250004,231.64936737500005,61.0,82.0
1118,231.42810306250004,231.79017193750005,64.0,95.0
1119,231.42810306250004,232.03298796875006,68.0,82.0
1120,231.77293056250005,232.11201093750006,61.0,81.0
1121,232.46258556250007,232.62494184375007,59.0,81.0
1122,232.11775806250006,232.91660843750006,47.0,82.0
1123,232.80741306250005,232.96402221875005,66.0,83.0
1124,232.80741306250005,232.97120612500007,59.0,86.0
1125,233.15224056250005,233.35626350000007,54.0,44.0
1126,233.32465431250006,233.47695312500005,59.0,82.0
1127,233.32465431250006,233.47695312500005,63.0,84.0
1128,233.49706806250006,233.68097606250006,51.0,68.0
1129,233.84189556250004,234.05597596875006,59.0,92.0
1130,233.66948181250007,234.16517134375005,54.0,74.0
1131,234.18672306250005,234.41804484375007,59.0,87.0
1132,234.18672306250005,234.45683793750007,66.0,81.0
1133,234.53155056250006,234.66660800000005,54.0,76.0
1134,235.22120556250005,235.38930896875004,56.0,81.0
1135,235.56603306250005,235.74706750000004,63.0,81.0
1136,235.56603306250005,235.76861921875005,56.0,87.0
1137,235.91086056250006,236.14936625000004,51.0,53.0
1138,236.08327431250007,236.24563059375006,56.0,83.0
1139,236.08327431250007,236.25137771875006,59.0,82.0
1140,234.87637806250007,236.27723978125005,44.0,88.0
1141,236.25568806250007,236.39505584375004,51.0,60.0
1142,236.42810181250005,236.59620521875004,56.0,84.0
1143,236.60051556250005,236.79879137500006,59.0,77.0
1144,236.94534306250006,237.09764187500005,59.0,86.0
1145,236.94534306250006,237.10482578125004,56.0,84.0
1146,236.94534306250006,237.13930853125007,63.0,82.0
1147,237.63499806250005,238.05022784375006,61.0,78.0
1148,237.63499806250005,238.05597496875006,64.0,82.0
1149,237.63499806250005,238.06603243750007,68.0,73.0
1150,237.97982556250005,238.46545762500006,56.0,64.0
1151,238.32465306250006,238.49706681250007,68.0,83.0
1152,238.32465306250006,238.52005531250006,61.0,87.0
1153,238.84189431250005,238.89936556250007,64.0,74.0
1154,238.84189431250005,238.91517015625007,61.0,71.0
1155,239.01430806250005,239.35051487500004,61.0,77.0
1156,239.01430806250005,239.35626200000004,64.0,84.0
1157,239.53154931250006,239.59907803125006,68.0,73.0
1158,239.53154931250006,239.61631940625006,61.0,81.0
1159,239.35913556250006,239.70539984375006,56.0,60.0
1160,239.70396306250007,240.05310090625005,61.0,82.0
1161,237.63499806250005,240.09333078125005,49.0,81.0
1162,240.04879056250005,240.16948018750006,56.0,81.0
1163,239.70396306250007,240.35626175000004,68.0,83.0
1164,240.22120431250005,240.40223875000007,61.0,73.0
1165,240.39361806250005,240.40223875000007,61.0,75.0
1166,240.39361806250005,240.84620415625005,54.0,81.0
1167,240.73844556250006,241.18528453125006,49.0,84.0
1168,240.39361806250005,241.20683625000007,42.0,85.0
1169,241.08327306250007,241.34045690625007,54.0,85.0
1170,241.08327306250007,241.51430743750007,57.0,84.0
1171,241.42810056250005,241.55022696875005,49.0,83.0
1172,241.08327306250007,241.68959475000005,61.0,85.0
1173,241.60051431250005,241.77005450000007,54.0,87.0
1174,242.11775556250007,242.31459459375006,59.0,86.0
1175,241.77292806250006,242.57465200000007,47.0,86.0
1176,242.46258306250004,242.65511175000006,59.0,90.0
1177,242.46258306250004,242.70970943750007,63.0,87.0
1178,242.46258306250004,242.88787031250007,66.0,83.0
1179,242.80741056250005,243.03298521875007,59.0,82.0
1180,243.15223806250006,243.30453687500005,64.0,84.0
1181,243.15223806250006,243.35769778125007,59.0,83.0
1182,243.49706556250007,243.94677809375005,47.0,70.0
1183,243.84189306250005,244.03585853125006,59.0,85.0
1184,243.84189306250005,244.22120331250005,52.0,86.0
1185,244.35913431250006,244.41085843750005,56.0,76.0
1186,244.35913431250006,244.44390440625006,52.0,78.0
1187,244.35913431250006,244.45539865625005,59.0,81.0
1188,244.01430681250005,244.53442162500005,47.0,67.0
1189,244.53154806250006,244.92953646875006,56.0,81.0
1190,244.53154806250006,244.98269737500007,52.0,81.0
1191,244.53154806250006,245.05309965625005,59.0,82.0
1192,245.22120306250005,245.41947887500007,52.0,87.0
1193,245.22120306250005,245.62493859375004,64.0,85.0
1194,245.56603056250006,245.92809943750007,59.0,79.0
1195,243.15223806250006,245.95252471875006,40.0,85.0
1196,245.91085806250007,245.95252471875006,40.0,82.0
1197,244.87637556250004,245.95252471875006,47.0,77.0
1198,245.91085806250007,246.33039818750007,64.0,80.0
1199,245.91085806250007,246.65511075000006,68.0,80.0
1200,246.60051306250006,247.05022559375007,64.0,88.0
1201,246.94534056250006,247.10482328125005,68.0,88.0
1202,246.25568556250005,247.49993812500006,47.0,69.0
1203,247.29016806250007,247.60482315625006,64.0,81.0
1204,247.29016806250007,247.70108750000006,68.0,82.0
1205,247.29016806250007,247.88212193750005,71.0,82.0
1206,247.97982306250006,248.12206440625005,64.0,88.0
1207,247.63499556250005,248.15511037500005,47.0,67.0
1208,248.66947806250005,249.08758140625005,61.0,81.0
1209,248.66947806250005,249.37637443750006,64.0,82.0
1210,249.35913306250006,249.82465018750005,61.0,86.0
1211,249.70396056250007,249.87493753125005,64.0,79.0
1212,249.01430556250006,250.22551215625006,56.0,69.0
1213,250.04878806250005,250.60338562500007,61.0,79.0
1214,250.04878806250005,250.61344309375005,68.0,82.0
1215,248.66947806250005,250.75855800000005,49.0,82.0
1216,250.39361556250006,250.76574190625007,56.0,66.0
1217,250.73844306250007,250.91085681250007,64.0,85.0
1218,250.73844306250007,250.92091428125005,61.0,83.0
1219,251.42809806250006,251.83183359375005,54.0,79.0
1220,251.42809806250006,252.12924731250007,57.0,81.0
1221,252.11775306250007,252.76143106250007,54.0,87.0
1222,252.46258056250005,252.88643103125005,57.0,73.0
1223,251.77292556250006,253.33614356250007,49.0,70.0
1224,251.42809806250006,253.34476425000005,42.0,82.0
1225,253.49706306250005,253.72982162500006,54.0,62.0
1226,253.15223556250007,253.95683306250007,57.0,81.0
1227,253.49706306250005,253.96401696875006,49.0,84.0
1228,252.80740806250006,253.96832731250007,61.0,90.0
1229,253.84189056250005,254.19821231250006,54.0,86.0
1230,254.53154556250007,255.02867187500007,59.0,82.0
1231,255.22120056250006,255.49849934375007,59.0,84.0
1232,254.87637306250005,255.71401653125005,54.0,71.0
1233,255.56602806250007,255.97982106250006,59.0,83.0
1234,255.56602806250007,255.98556818750006,63.0,81.0
1235,255.91085556250007,256.4295335937501,54.0,77.0
1236,256.25568306250005,256.56890137500005,59.0,83.0
1237,254.18671806250006,256.6651657187501,47.0,83.0
1238,256.60051056250006,256.7212001875001,51.0,86.0
1239,256.60051056250006,256.83901625000004,59.0,86.0
1240,256.25568306250005,256.8433265937501,63.0,88.0
1241,256.25568306250005,256.87062543750005,66.0,81.0
1242,256.94533806250007,257.2125793750001,52.0,79.0
1243,256.94533806250007,257.3778092187501,64.0,82.0
1244,257.6349930625001,258.1278090312501,59.0,70.0
1245,257.97982056250004,258.1737860312501,64.0,81.0
1246,257.2901655625001,258.47119975000004,47.0,76.0
1247,258.32464806250005,258.72551003125005,59.0,81.0
1248,258.32464806250005,258.7441881875001,64.0,83.0
1249,256.94533806250007,259.1464869375001,40.0,82.0
1250,258.66947556250005,259.18528003125004,47.0,81.0
1251,258.32464806250005,259.37206159375006,68.0,82.0
1252,259.01430306250006,259.4237857187501,59.0,88.0
1253,259.35913056250007,259.47550984375005,64.0,82.0
1254,259.7039580625001,260.1723487500001,61.0,72.0
1255,259.7039580625001,260.40941765625007,64.0,82.0
1256,260.39361306250004,260.82752100000005,61.0,83.0
1257,260.73844056250005,260.9007968437501,64.0,83.0
1258,259.7039580625001,261.29734846875004,49.0,87.0
1259,260.0487855625001,261.34188868750005,56.0,70.0
1260,261.08326806250005,261.46545187500004,61.0,83.0
1261,261.08326806250005,261.47407256250006,68.0,84.0
1262,261.42809556250006,261.6709115937501,64.0,79.0
1263,261.77292306250007,261.81746328125007,68.0,65.0
1264,261.77292306250007,261.82177362500005,64.0,82.0
1265,261.77292306250007,261.9395896875001,37.0,82.0
1266,262.1177505625001,262.15941721875004,64.0,72.0
1267,261.77292306250007,262.21257812500005,61.0,88.0
1268,262.4625780625001,262.91372737500006,54.0,70.0
1269,262.4625780625001,263.14073881250005,57.0,73.0
1270,262.4625780625001,263.32033646875004,42.0,84.0
1271,262.80740556250004,263.35481921875004,49.0,69.0
1272,263.15223306250004,263.6924628125001,54.0,85.0
1273,263.49706056250005,263.81889956250006,57.0,69.0
1274,264.18671556250007,264.5847039687501,54.0,82.0
1275,263.84188806250006,264.7111407187501,47.0,84.0
1276,264.5315430625001,265.05309465625004,59.0,87.0
1277,264.8763705625001,265.11487625000007,63.0,78.0
1278,265.22119806250004,265.33326700000003,40.0,83.0
1279,265.22119806250004,265.51142787500004,59.0,81.0
1280,265.22119806250004,265.5918876250001,64.0,82.0
1281,266.25568056250006,266.71545056250005,64.0,82.0
1282,266.42809431250004,266.7441861875001,68.0,83.0
1283,265.91085306250005,266.74562296875007,56.0,83.0
1284,266.60050806250007,267.0688987500001,71.0,81.0
1285,266.9453355625001,267.41947337500005,56.0,64.0
1286,266.0832668125001,267.4453354375001,59.0,80.0
1287,265.56602556250004,267.47838140625004,52.0,73.0
1288,267.2901630625001,267.6134388437501,76.0,74.0
1289,267.2901630625001,267.72263421875004,68.0,77.0
1290,267.2901630625001,267.7944732812501,71.0,81.0
1291,267.2901630625001,267.89217440625004,64.0,81.0
1292,267.8289560312501,270.27723128125007,52.0,73.0
1293,267.89792153125006,270.28010484375005,56.0,70.0
1294,267.9726341562501,270.32320828125006,59.0,70.0
1295,268.01430081250004,270.32751862500004,64.0,69.0
1296,267.94533531250005,270.40510481250004,40.0,83.0
