,start,end,pitch,velocity
0,34.575978937500004,34.974627187500005,71.0,77.0
1,34.981383937500006,35.38003218750001,73.0,69.0
2,35.3867889375,35.837802,74.0,74.0
3,35.7921939375,36.17901787500001,73.0,75.0
4,36.197598937500004,36.69590925000001,74.0,74.0
5,36.603003937500006,36.917192812500005,76.0,66.0
6,37.0084089375,37.9408404375,73.0,72.0
7,37.819218937500004,38.2296915,69.0,83.0
8,38.224623937500006,39.327663375,71.0,74.0
9,40.6570539375,41.319215437500006,71.0,93.0
10,41.467863937500006,41.77698525,73.0,87.0
11,41.8732689375,42.6334033125,74.0,86.0
12,42.2786739375,42.8834030625,73.0,85.0
13,43.089483937500006,43.41718631250001,74.0,75.0
14,43.4948889375,43.93914525,73.0,100.0
15,43.9002939375,46.618196625,71.0,83.0
16,47.548938937500004,47.983060125,71.0,77.0
17,47.954343937500006,48.160424812500004,73.0,63.0
18,48.15704643750001,48.80738362500001,74.0,81.0
19,48.7651539375,49.11988331250001,73.0,46.0
20,49.170558937500005,49.646909812500006,74.0,90.0
21,49.575963937500006,49.94251762500001,76.0,64.0
22,49.9813689375,50.37326043750001,78.0,95.0
23,50.3867739375,50.594544000000006,76.0,69.0
24,50.792178937500005,51.2415028125,76.0,74.0
25,51.197583937500006,51.52528631250001,69.0,79.0
26,51.60298893750001,52.73981212500001,71.0,100.0
27,53.6300139375,54.0455540625,71.0,73.0
28,54.035418937500005,54.49318875,78.0,62.0
29,54.44082393750001,54.63508050000001,76.0,69.0
30,54.84622893750001,55.822579312500004,73.0,98.0
31,56.06244393750001,56.4813624375,69.0,59.0
32,56.46784893750001,57.7431855,71.0,65.0
33,60.1164939375,60.537101625000005,78.0,87.0
34,60.521898937500005,61.00331737500001,76.0,74.0
35,60.92730393750001,61.260073875,74.0,65.0
36,61.33270893750001,61.69250587500001,73.0,98.0
37,61.7381139375,62.087775750000006,74.0,72.0
38,62.143518937500005,62.4745996875,73.0,74.0
39,62.54892393750001,62.87831550000001,74.0,74.0
40,62.95432893750001,63.545544562500005,73.0,74.0
41,63.765138937500005,63.999936000000005,71.0,67.0
42,64.1705439375,65.43067781250001,71.0,64.0
43,66.60297393750001,67.0134465,78.0,77.0
44,67.00837893750001,67.469527125,76.0,63.0
45,67.4137839375,67.827634875,74.0,59.0
46,67.8191889375,68.280337125,73.0,104.0
47,68.2245939375,68.63506650000001,74.0,61.0
48,68.6299989375,68.85803925,69.0,69.0
49,69.0354039375,69.42898462500001,69.0,68.0
50,69.44080893750001,69.8529706875,76.0,97.0
51,70.25161893750001,70.50499706250001,78.0,67.0
52,70.6570239375,72.199252125,78.0,74.0
53,73.08945393750001,73.52864268750001,83.0,77.0
54,73.49485893750001,73.9272909375,81.0,85.0
55,73.9002639375,74.5725605625,76.0,86.0
56,74.7110739375,75.15533025,76.0,98.0
57,75.1164789375,75.42560025,74.0,93.0
58,75.52188393750001,75.78032962500001,73.0,108.0
59,75.92728893750001,76.51681537500001,73.0,111.0
60,76.53539643750001,76.78032862500001,74.0,76.0
61,77.1435039375,77.5151251875,73.0,74.0
62,77.5489089375,78.86478600000001,71.0,74.0
63,79.57593393750001,80.01512268750001,71.0,73.0
64,79.98133893750001,80.39012231250001,78.0,83.0
65,80.3867439375,80.9779595625,76.0,70.0
66,81.1975539375,81.70262100000001,73.0,83.0
67,82.00836393750001,82.3428230625,74.0,79.0
68,82.41376893750001,82.91376843750001,73.0,85.0
69,83.02187643750001,84.83437462500001,71.0,70.0
70,84.8461989375,85.26173906250001,78.0,85.0
71,85.25160393750001,85.577617125,81.0,86.0
72,85.65700893750001,86.52356212500001,83.0,75.0
73,86.87322393750001,87.3563315625,83.0,86.0
74,87.2786289375,87.67220962500001,81.0,90.0
75,87.6840339375,88.084371375,76.0,74.0
76,88.0894389375,88.5539655,74.0,72.0
77,88.49484393750001,88.86139762500001,76.0,83.0
78,88.90024893750001,89.4070051875,78.0,81.0
79,89.30565393750001,89.73132918750001,81.0,77.0
80,89.71105893750001,90.16882875,76.0,69.0
81,90.11646393750001,90.4745716875,78.0,81.0
82,90.5218689375,91.043827875,74.0,73.0
83,91.3326789375,91.71443531250002,78.0,87.0
84,91.73808393750001,92.08267818750001,81.0,74.0
85,92.14348893750001,93.03875831250001,83.0,93.0
86,93.35970393750002,93.79044675000002,83.0,86.0
87,93.7651089375,93.96950062500001,81.0,100.0
88,94.1705139375,94.523554125,76.0,66.0
89,94.5759189375,95.0319995625,74.0,65.0
90,94.98132393750001,95.29720200000001,76.0,74.0
91,95.79213393750001,97.42557825000002,78.0,77.0
92,97.8191589375,98.1840234375,78.0,104.0
93,98.22456393750001,98.567469,81.0,86.0
94,98.62996893750001,99.44415731250001,83.0,95.0
95,99.84618393750002,100.2955078125,83.0,86.0
96,100.2515889375,100.4846968125,81.0,81.0
97,100.6569939375,101.0657773125,76.0,70.0
98,101.0623989375,101.4272634375,74.0,83.0
99,101.46780393750001,101.79550631250001,76.0,70.0
100,101.87320893750001,102.15023568750001,78.0,62.0
101,102.27861393750001,102.46611375,81.0,90.0
102,102.68401893750001,102.89347818750001,81.0,104.0
103,103.08942393750002,103.39009931250001,76.0,93.0
104,103.4948289375,104.050571625,74.0,90.0
105,104.3056389375,104.7178006875,78.0,90.0
106,104.71104393750001,105.11813812500002,76.0,76.0
107,105.11644893750001,105.77692125000002,71.0,85.0
108,105.52185393750001,106.53705562500001,78.0,11.0
109,106.7380689375,107.13164962500001,76.0,71.0
110,107.3461764375,107.77691925,74.0,79.0
111,107.95428393750001,108.43232400000001,73.0,83.0
112,108.76509393750001,109.9779305625,71.0,68.0
113,141.60289893750002,142.00154718750002,71.0,77.0
114,142.00830393750002,142.40695218750002,73.0,69.0
115,142.41370893750002,142.864722,74.0,74.0
116,142.81911393750002,143.20593787500002,73.0,75.0
117,143.22451893750002,143.72282925000002,74.0,74.0
118,143.62992393750002,143.9441128125,76.0,66.0
119,144.03532893750003,144.9677604375,73.0,72.0
120,144.8461389375,145.25661150000002,69.0,83.0
121,145.2515439375,146.354583375,71.0,74.0
122,147.6839739375,148.3461354375,71.0,93.0
123,148.49478393750002,148.80390525,73.0,87.0
124,148.90018893750002,149.66032331250003,74.0,86.0
125,149.30559393750002,149.91032306250003,73.0,85.0
126,150.11640393750002,150.44410631250003,74.0,75.0
127,150.52180893750003,150.96606525,73.0,100.0
128,150.9272139375,153.645116625,71.0,83.0
129,154.57585893750002,155.00998012500003,71.0,77.0
130,154.98126393750002,155.18734481250002,73.0,63.0
131,155.1839664375,155.83430362500002,74.0,81.0
132,155.79207393750002,156.14680331250003,73.0,46.0
133,156.19747893750002,156.6738298125,74.0,90.0
134,156.60288393750002,156.969437625,76.0,64.0
135,157.00828893750003,157.4001804375,78.0,95.0
136,157.41369393750003,157.621464,76.0,69.0
137,157.8190989375,158.2684228125,76.0,74.0
138,158.2245039375,158.5522063125,69.0,79.0
139,158.6299089375,159.766732125,71.0,100.0
140,160.6569339375,161.07247406250002,71.0,73.0
141,161.06233893750002,161.52010875000002,78.0,62.0
142,161.46774393750002,161.6620005,76.0,69.0
143,161.87314893750002,162.8494993125,73.0,98.0
144,163.08936393750002,163.50828243750001,69.0,59.0
145,163.49476893750003,164.77010550000003,71.0,65.0
146,167.14341393750001,167.564021625,78.0,87.0
147,167.54881893750002,168.030237375,76.0,74.0
148,167.95422393750002,168.286993875,74.0,65.0
149,168.35962893750002,168.719425875,73.0,98.0
150,168.76503393750002,169.11469575,74.0,72.0
151,169.17043893750002,169.5015196875,73.0,74.0
152,169.57584393750003,169.9052355,74.0,74.0
153,169.98124893750003,170.57246456250002,73.0,74.0
154,170.7920589375,171.026856,71.0,67.0
155,171.1974639375,172.4575978125,71.0,64.0
156,173.62989393750001,174.0403665,78.0,77.0
157,174.03529893750002,174.496447125,76.0,63.0
158,174.44070393750002,174.85455487500002,74.0,59.0
159,174.84610893750002,175.307257125,73.0,104.0
160,175.25151393750002,175.6619865,74.0,61.0
161,175.65691893750002,175.88495925,69.0,69.0
162,176.06232393750003,176.45590462500002,69.0,68.0
163,176.46772893750003,176.87989068750002,76.0,97.0
164,177.2785389375,177.5319170625,78.0,67.0
165,177.6839439375,179.226172125,78.0,74.0
166,180.11637393750001,180.55556268750001,83.0,77.0
167,180.52177893750002,180.95421093750002,81.0,85.0
168,180.92718393750002,181.59948056250002,76.0,86.0
169,181.73799393750002,182.18225025,76.0,98.0
170,182.14339893750002,182.45252025000002,74.0,93.0
171,182.54880393750003,182.80724962500003,73.0,108.0
172,182.95420893750003,183.543735375,73.0,111.0
173,183.56231643750002,183.80724862500003,74.0,76.0
174,184.1704239375,184.5420451875,73.0,74.0
175,184.5758289375,185.89170600000003,71.0,74.0
176,186.60285393750002,187.04204268750001,71.0,73.0
177,187.00825893750002,187.41704231250003,78.0,83.0
178,187.41366393750002,188.0048795625,76.0,70.0
179,188.22447393750002,188.729541,73.0,83.0
180,189.03528393750003,189.36974306250002,74.0,79.0
181,189.44068893750003,189.94068843750003,73.0,85.0
182,190.04879643750002,191.86129462500003,71.0,70.0
183,198.3595989375,198.77513906250002,78.0,85.0
184,198.7650039375,199.091017125,81.0,86.0
185,199.1704089375,200.03696212500003,83.0,75.0
186,200.38662393750002,200.86973156250002,83.0,86.0
187,200.79202893750002,201.185609625,81.0,90.0
188,201.19743393750002,201.597771375,76.0,74.0
189,201.60283893750002,202.06736550000002,74.0,72.0
190,202.00824393750003,202.374797625,76.0,83.0
191,202.41364893750003,202.92040518750002,78.0,81.0
192,202.81905393750003,203.2447291875,81.0,77.0
193,203.22445893750003,203.68222875,76.0,69.0
194,203.6298639375,203.98797168750002,78.0,81.0
195,204.0352689375,204.55722787500002,74.0,73.0
196,204.8460789375,205.22783531250002,78.0,87.0
197,205.2514839375,205.5960781875,81.0,74.0
198,205.6568889375,206.5521583125,83.0,93.0
199,206.87310393750002,207.30384675000002,83.0,86.0
200,207.27850893750002,207.482900625,81.0,100.0
201,207.68391393750002,208.03695412500002,76.0,66.0
202,208.08931893750002,208.54539956250002,74.0,65.0
203,208.49472393750003,208.81060200000002,76.0,74.0
204,209.30553393750003,210.93897825000002,78.0,77.0
205,211.3325589375,211.69742343750002,78.0,104.0
206,211.7379639375,212.080869,81.0,86.0
207,212.14336893750001,212.95755731250003,83.0,95.0
208,213.35958393750002,213.80890781250002,83.0,86.0
209,213.76498893750002,213.99809681250002,81.0,81.0
210,214.17039393750002,214.5791773125,76.0,70.0
211,214.57579893750002,214.9406634375,74.0,83.0
212,214.98120393750003,215.30890631250003,76.0,70.0
213,215.38660893750003,215.66363568750003,78.0,62.0
214,215.79201393750003,215.97951375000002,81.0,90.0
215,216.19741893750003,216.4068781875,81.0,104.0
216,216.6028239375,216.90349931250003,76.0,93.0
217,217.0082289375,217.56397162500002,74.0,90.0
218,217.8190389375,218.2312006875,78.0,90.0
219,218.2244439375,218.63153812500002,76.0,76.0
220,218.62984893750001,219.29032125000003,71.0,85.0
221,219.44065893750002,220.050455625,78.0,83.0
222,220.24977975000002,220.69065768750002,76.0,111.0
223,220.87140075000002,221.2295085,74.0,98.0
224,221.4186975,221.69910262500002,76.0,93.0
225,221.86126462500002,223.88660043750002,78.0,100.0
226,227.54875893750003,227.96429906250003,79.0,85.0
227,227.95416393750003,228.28017712500002,82.0,86.0
228,228.35956893750003,229.22612212500002,84.0,75.0
229,229.57578393750003,230.0588915625,84.0,86.0
230,229.9811889375,230.37476962500003,82.0,90.0
231,230.3865939375,230.78693137500002,77.0,74.0
232,230.7919989375,231.2565255,75.0,72.0
233,231.1974039375,231.56395762500003,77.0,83.0
234,231.60280893750001,232.1095651875,79.0,81.0
235,232.00821393750002,232.43388918750003,82.0,77.0
236,232.41361893750002,232.87138875000002,77.0,69.0
237,232.81902393750002,233.1771316875,79.0,81.0
238,233.22442893750002,233.746387875,75.0,73.0
239,234.03523893750003,234.41699531250003,79.0,87.0
240,234.44064393750003,234.78523818750003,82.0,74.0
241,234.84604893750003,235.74131831250003,84.0,93.0
242,236.06226393750003,236.442331125,87.0,100.0
243,236.4676689375,236.83253343750002,86.0,85.0
244,236.8730739375,237.34266806250002,84.0,68.0
245,237.2784789375,237.64672181250003,82.0,90.0
246,237.6838839375,238.21597800000004,77.0,81.0
247,238.49469393750002,240.12813825000003,79.0,77.0
248,240.52171893750003,240.8865834375,79.0,104.0
249,240.92712393750003,241.27002900000002,82.0,86.0
250,241.33252893750003,242.14671731250002,84.0,95.0
251,242.54874393750003,242.9980678125,84.0,86.0
252,242.9541489375,243.1872568125,82.0,81.0
253,243.3595539375,243.76833731250002,77.0,70.0
254,243.7649589375,244.12982343750002,75.0,83.0
255,244.1703639375,244.49806631250001,77.0,70.0
256,244.57576893750002,244.85279568750002,79.0,62.0
257,244.98117393750002,245.16867375,82.0,90.0
258,245.38657893750002,245.59603818750003,82.0,104.0
259,245.79198393750002,246.09265931250002,77.0,93.0
260,246.19738893750002,246.753131625,75.0,90.0
261,247.00819893750003,247.42036068750002,79.0,90.0
262,247.41360393750003,247.82069812500004,77.0,76.0
263,247.81900893750003,248.13488700000002,72.0,85.0
264,248.22441393750003,249.23961562500003,79.0,74.0
265,249.4406289375,249.83420962500003,77.0,71.0
266,250.04873643750003,250.47947925000003,75.0,79.0
267,250.6568439375,251.13488400000003,74.0,83.0
268,251.46765393750002,252.6804905625,72.0,68.0
269,253.49467893750003,253.88825962500002,79.0,95.0
270,253.90008393750003,254.30211056250002,77.0,65.0
271,254.30548893750003,254.8764343125,72.0,71.0
272,254.71089393750003,255.74298750000003,79.0,71.0
273,255.9271089375,256.45244625000004,77.0,100.0
274,256.5352164375,257.09264831250005,75.0,63.0
275,257.14332393750004,257.56731,74.0,69.0
276,257.5487289375,259.13825437500003,75.0,64.0
277,259.3730514375,260.39669906250003,74.0,66.0
278,260.1838614375,262.92879112500003,72.0,74.0
