,start,end,pitch,velocity
0,2.874997125,4.5540495000000005,55.0,55.0
1,2.459457,4.586144062500001,50.0,58.0
2,2.0624979375000003,4.60134675,43.0,59.0
3,3.2702670000000005,4.6064143125,59.0,47.0
4,3.6722936250000004,4.646954812500001,67.0,51.0
5,5.974656187500001,8.8428965625,49.0,11.0
6,6.297291,8.8428965625,54.0,56.0
7,5.4256702500000005,8.864856000000001,42.0,56.0
8,7.192560375,8.8733019375,66.0,43.0
9,6.729723000000001,8.878369500000002,62.0,51.0
10,8.9712748125,10.1097871875,40.0,65.0
11,9.430733812500002,10.141881750000001,47.0,51.0
12,9.908773875000001,10.412151750000001,55.0,62.0
13,10.347962625000001,10.7753270625,59.0,64.0
14,11.2415428125,12.307420125000002,49.0,63.0
15,10.805732437500001,12.347960625,45.0,72.0
16,11.702691000000002,12.599649562500002,61.0,58.0
17,12.128366250000001,12.623298187500001,66.0,52.0
18,13.474648687500002,13.969580625,64.0,64.0
19,12.589514437500002,14.087823750000002,50.0,79.0
20,12.999987,14.700998812500002,57.0,58.0
21,13.900323937500001,15.033768750000002,66.0,60.0
22,15.648633000000002,16.1773486875,61.0,61.0
23,14.777012250000002,16.270254,54.0,58.0
24,14.320931625000002,16.2719431875,49.0,62.0
25,15.233092875,16.280389125000003,57.0,15.0
26,16.060794750000003,17.417212312500002,43.0,60.0
27,16.53376725,17.483090625000003,50.0,51.0
28,16.989847875000002,17.569239187500003,59.0,53.0
29,17.408766375000003,17.890184812500003,62.0,61.0
30,18.744913687500002,19.5692371875,66.0,58.0
31,18.2922114375,19.582750687500003,49.0,56.0
32,19.2009943125,19.613156062500003,69.0,60.0
33,17.8496443125,19.6503181875,45.0,62.0
34,20.476330875000002,20.996600625000003,61.0,59.0
35,20.072615062500002,21.1131545625,54.0,54.0
36,19.6080885,21.133424812500003,42.0,65.0
37,20.929033125,21.4172083125,66.0,58.0
38,22.260112875,22.641869250000003,54.0,60.0
39,21.402005625,22.6638286875,47.0,64.0
40,21.851329500000002,22.689166500000002,50.0,59.0
41,22.652004375,23.162139000000003,66.0,63.0
42,24.03375975,24.498286312500003,62.0,54.0
43,23.1300444375,24.4999755,43.0,63.0
44,24.043894875000003,24.7280158125,59.0,54.0
45,24.4729485,24.837813,55.0,46.0
46,23.559098062500002,24.891867,50.0,62.0
47,24.920583187500004,25.4915285625,64.0,64.0
48,24.917204812500003,25.716190500000003,61.0,53.0
49,25.84456875,26.277000750000003,64.0,63.0
50,24.898623750000002,26.3057169375,45.0,72.0
51,25.8158525625,26.339500687500003,61.0,64.0
52,25.347947625000003,26.689162500000002,52.0,52.0
53,28.3699040625,28.591187625000003,86.0,54.0
54,26.726324625000004,29.844564750000004,47.0,64.0
55,27.587810250000004,29.858078250000002,54.0,58.0
56,27.138486375000003,29.886794437500004,50.0,59.0
57,28.476322875,29.9644970625,66.0,63.0
58,28.401998625,30.054024000000002,83.0,31.0
59,28.469566125000004,30.116523937500002,90.0,53.0
60,28.0134855,30.131726625000002,62.0,58.0
61,31.827670875000003,32.0945625,86.0,50.0
62,31.787130375000004,32.9948994375,83.0,15.0
63,30.1756455,33.0894939375,47.0,63.0
64,30.577672125000003,33.097939875,50.0,56.0
65,31.043887875000003,33.104696625,54.0,58.0
66,31.471252312500003,33.158750625,62.0,53.0
67,31.929022125000003,33.16888575,66.0,58.0
68,31.847941125000002,33.4746286875,90.0,53.0
69,33.7651689375,35.1671945625,43.0,72.0
70,33.7651689375,35.206045875,66.0,87.0
71,34.1705739375,35.3158430625,50.0,62.0
72,34.575978937500004,35.503342875,59.0,63.0
73,35.3867889375,36.7077335625,64.0,81.0
74,35.3867889375,36.733071375,45.0,70.0
75,35.7921939375,36.9678684375,52.0,50.0
76,36.197598937500004,37.0996250625,61.0,58.0
77,37.0084089375,37.748273062500004,64.0,76.0
78,37.0084089375,37.989826875000006,42.0,66.0
79,37.4138139375,38.14523212500001,49.0,60.0
80,37.819218937500004,38.256718500000005,66.0,67.0
81,37.819218937500004,38.543880375,54.0,59.0
82,38.224623937500006,38.626650562500004,64.0,72.0
83,38.6300289375,39.46617675,47.0,67.0
84,39.0354339375,39.510095625000005,54.0,63.0
85,38.6300289375,39.863135812500005,62.0,76.0
86,39.440838937500004,39.885095250000006,59.0,63.0
87,39.846243937500006,40.263473250000004,61.0,67.0
88,40.2516489375,41.445904500000005,43.0,71.0
89,40.6570539375,41.841174375,50.0,65.0
90,40.2516489375,41.85806625,62.0,86.0
91,41.062458937500004,41.996579625,59.0,60.0
92,41.8732689375,41.996579625,59.0,65.0
93,41.8732689375,42.9847543125,45.0,66.0
94,42.2786739375,43.050632625000006,52.0,51.0
95,42.684078937500004,43.295564812500004,57.0,61.0
96,44.305698937500004,44.699279625,59.0,63.0
97,44.711103937500006,45.138468375,61.0,64.0
98,43.9002939375,46.084413375000004,54.0,66.0
99,45.1165089375,46.263467250000005,62.0,87.0
100,43.4948889375,46.2820483125,47.0,77.0
101,43.4948889375,46.62833175,66.0,81.0
102,46.7381289375,47.751641437500005,66.0,85.0
103,46.7381289375,48.229681500000005,43.0,66.0
104,47.954343937500006,48.3192084375,66.0,65.0
105,47.548938937500004,48.3732624375,59.0,63.0
106,47.1435339375,48.40028943750001,50.0,61.0
107,48.3597489375,49.717855687500006,45.0,76.0
108,48.3597489375,49.7448826875,64.0,74.0
109,48.7651539375,49.852990687500004,52.0,59.0
110,49.170558937500005,49.9577203125,61.0,55.0
111,49.9813689375,50.53035487500001,64.0,83.0
112,50.792178937500005,50.99994900000001,66.0,71.0
113,50.3867739375,51.22798931250001,49.0,14.0
114,50.792178937500005,51.270219000000004,54.0,49.0
115,49.9813689375,51.28204331250001,42.0,73.0
116,51.197583937500006,51.403664812500004,64.0,70.0
117,51.60298893750001,52.2448801875,62.0,75.0
118,52.413798937500005,52.8631228125,59.0,59.0
119,52.819203937500006,53.150284687500005,62.0,62.0
120,52.0083939375,53.22629812500001,54.0,62.0
121,51.60298893750001,53.283730500000004,47.0,76.0
122,53.6300139375,54.033729750000006,71.0,72.0
123,53.22460893750001,54.4070401875,43.0,63.0
124,54.035418937500005,54.42393206250001,78.0,64.0
125,54.44082393750001,54.653661562500005,74.0,68.0
126,53.6300139375,54.78541818750001,50.0,59.0
127,53.22460893750001,54.856364062500006,59.0,60.0
128,55.66210650000001,56.151970875,61.0,50.0
129,55.2516339375,56.172241125000006,52.0,62.0
130,54.84622893750001,56.214470812500004,73.0,75.0
131,54.84622893750001,56.22291675,45.0,73.0
132,56.46784893750001,57.39859125,66.0,49.0
133,56.46784893750001,58.846224937500004,71.0,79.0
134,56.8732539375,59.331021750000005,54.0,54.0
135,56.46784893750001,59.354670375000005,62.0,45.0
136,56.46784893750001,59.36818387500001,50.0,60.0
137,57.68406393750001,59.369873062500005,66.0,59.0
138,56.46784893750001,59.3732514375,47.0,41.0
139,59.71108893750001,60.663790687500004,66.0,90.0
140,59.71108893750001,60.9948714375,43.0,77.0
141,60.521898937500005,61.010074125,62.0,66.0
142,60.521898937500005,61.02696600000001,59.0,59.0
143,60.92730393750001,61.298925187500004,69.0,77.0
144,60.1164939375,61.34791162500001,50.0,59.0
145,61.33270893750001,62.589464437500006,64.0,69.0
146,62.54892393750001,62.589464437500006,64.0,64.0
147,62.143518937500005,62.87662631250001,61.0,60.0
148,61.33270893750001,62.922234375,45.0,75.0
149,61.7381139375,62.959396500000004,52.0,54.0
150,62.95432893750001,63.61986881250001,64.0,86.0
151,63.562436437500004,64.02696300000001,66.0,74.0
152,63.765138937500005,64.31750325,61.0,73.0
153,63.3597339375,64.327638375,54.0,58.0
154,62.95432893750001,64.3360843125,42.0,63.0
155,64.1705439375,64.5810165,64.0,66.0
156,64.5759489375,66.0658123125,62.0,58.0
157,64.5759489375,66.0658123125,62.0,62.0
158,64.5759489375,66.1435149375,47.0,59.0
159,65.3867589375,66.15871762500001,54.0,37.0
160,64.9813539375,66.1840554375,50.0,62.0
161,66.19756893750001,67.2516219375,59.0,58.0
162,66.19756893750001,67.2854056875,62.0,66.0
163,66.19756893750001,67.354662375,43.0,62.0
164,67.00837893750001,67.45939200000001,55.0,54.0
165,67.4137839375,67.6435134375,59.0,58.0
166,67.4137839375,67.7212160625,62.0,65.0
167,66.60297393750001,67.7989186875,50.0,66.0
168,67.8191889375,69.3022955625,45.0,68.0
169,68.6299989375,69.3022955625,57.0,54.0
170,68.2245939375,69.46783593750001,52.0,62.0
171,69.0354039375,69.72628162500001,61.0,63.0
172,70.6570239375,71.78033362500001,62.0,51.0
173,70.6570239375,71.8259416875,66.0,61.0
174,69.44080893750001,71.9036443125,38.0,62.0
175,70.25161893750001,71.90871187500001,50.0,58.0
176,69.84621393750001,71.94418481250001,45.0,49.0
177,71.8732389375,72.6401300625,66.0,63.0
178,71.8732389375,72.651954375,62.0,61.0
179,72.68404893750001,73.935736875,43.0,76.0
180,73.49485893750001,73.9881016875,59.0,59.0
181,73.49485893750001,73.98979087500001,62.0,64.0
182,73.9002639375,74.3056689375,55.0,46.0
183,73.08945393750001,74.38168237500001,50.0,64.0
184,74.3056689375,75.172222125,64.0,71.0
185,74.3056689375,75.3394516875,61.0,57.0
186,75.1164789375,75.7110729375,57.0,53.0
187,74.7110739375,75.78539718750001,52.0,53.0
188,74.3056689375,75.80397825,45.0,63.0
189,75.52188393750001,75.83100525,64.0,73.0
190,75.52188393750001,75.864789,61.0,67.0
191,76.12999143750001,76.74147731250001,66.0,9.0
192,76.33269393750001,76.88336906250001,54.0,63.0
193,75.92728893750001,76.972896,61.0,71.0
194,75.92728893750001,77.1536390625,42.0,60.0
195,76.73809893750001,77.162085,49.0,63.0
196,77.1435039375,77.40532800000001,66.0,38.0
197,77.1435039375,77.49992250000001,61.0,71.0
198,77.5489089375,78.79215093750001,47.0,86.0
199,78.3597189375,78.82593468750001,54.0,65.0
200,77.9543139375,78.83606981250001,50.0,64.0
201,78.76512393750001,79.15532625,66.0,65.0
202,78.76512393750001,79.185731625,62.0,61.0
203,79.98133893750001,80.469514125,59.0,60.0
204,79.98133893750001,80.47964925000001,62.0,63.0
205,79.17052893750001,80.52694650000001,43.0,62.0
206,80.3867439375,80.7752570625,55.0,43.0
207,79.57593393750001,80.87660831250001,50.0,59.0
208,80.7921489375,82.08775575000001,45.0,81.0
209,81.6029589375,82.16376918750001,57.0,54.0
210,81.6029589375,82.334377125,64.0,73.0
211,81.1975539375,82.3597149375,52.0,67.0
212,81.6029589375,82.4070121875,61.0,71.0
213,82.41376893750001,83.1097141875,59.0,62.0
214,82.41376893750001,83.1434979375,62.0,64.0
215,82.41376893750001,83.165457375,66.0,59.0
216,83.22457893750001,83.7684973125,59.0,67.0
217,83.22457893750001,83.78370000000001,66.0,64.0
218,83.22457893750001,83.807348625,62.0,69.0
219,82.41376893750001,83.83099725000001,54.0,68.0
220,82.41376893750001,83.84957831250001,47.0,60.0
221,84.0353889375,84.7853881875,57.0,63.0
222,84.0353889375,84.81748275000001,64.0,74.0
223,84.0353889375,84.82255031250001,61.0,100.0
224,84.0353889375,85.18234725,45.0,81.0
225,84.8461989375,85.20937425000001,64.0,75.0
226,84.8461989375,85.2245769375,57.0,67.0
227,84.8461989375,85.23977962500001,61.0,90.0
228,85.65700893750001,86.37998118750001,59.0,68.0
229,85.65700893750001,86.3918055,67.0,79.0
230,85.65700893750001,86.3968730625,62.0,67.0
231,86.46781893750001,86.85126450000001,59.0,63.0
232,86.46781893750001,86.86308881250001,62.0,62.0
233,86.46781893750001,86.88166987500001,67.0,67.0
234,85.65700893750001,86.92896712500001,43.0,60.0
235,86.06241393750001,87.02694000000001,50.0,72.0
236,86.87322393750001,87.04383187500001,55.0,58.0
237,87.2786289375,87.89180400000001,64.0,63.0
238,87.2786289375,87.908695875,69.0,75.0
239,87.2786289375,87.955993125,61.0,42.0
240,88.0894389375,88.6434924375,69.0,79.0
241,88.0894389375,88.74484368750001,64.0,85.0
242,88.0894389375,88.82423550000001,61.0,90.0
243,87.6840339375,88.8461949375,52.0,61.0
244,87.2786289375,88.84788412500001,45.0,77.0
245,88.90024893750001,89.33099175000001,62.0,66.0
246,88.90024893750001,89.3732214375,50.0,74.0
247,88.90024893750001,89.3765998125,66.0,74.0
248,88.90024893750001,89.43403218750001,69.0,74.0
249,89.71105893750001,90.057342375,69.0,69.0
250,89.71105893750001,90.0691666875,66.0,67.0
251,89.71105893750001,90.10632881250001,61.0,98.0
252,89.71105893750001,90.11984231250001,49.0,83.0
253,90.5218689375,91.18403043750001,59.0,65.0
254,90.5218689375,91.19247637500001,62.0,74.0
255,90.5218689375,91.20936825000001,66.0,63.0
256,90.5218689375,91.5691651875,54.0,66.0
257,91.3326789375,91.6671380625,62.0,81.0
258,91.3326789375,91.68234075000001,66.0,76.0
259,91.3326789375,91.6941650625,59.0,75.0
260,90.5218689375,91.72963800000001,47.0,75.0
261,92.14348893750001,92.85463687500001,55.0,61.0
262,92.14348893750001,92.87152875000001,59.0,58.0
263,92.14348893750001,92.87490712500001,62.0,62.0
264,92.95429893750001,93.361393125,59.0,70.0
265,92.95429893750001,93.36308231250001,55.0,73.0
266,92.95429893750001,93.38842012500001,62.0,69.0
267,92.14348893750001,93.4948389375,43.0,66.0
268,93.7651089375,94.442473125,57.0,65.0
269,93.7651089375,94.46443256250001,61.0,86.0
270,93.7651089375,94.4982163125,64.0,71.0
271,94.5759189375,94.93064831250001,57.0,68.0
272,94.5759189375,94.96443206250001,61.0,93.0
273,94.5759189375,94.96949962500001,64.0,73.0
274,93.7651089375,95.3326749375,45.0,65.0
275,95.38672893750001,96.11983631250001,69.0,71.0
276,95.38672893750001,96.12321468750001,62.0,71.0
277,95.38672893750001,96.13334981250001,66.0,71.0
278,96.19753893750001,96.93233550000001,62.0,70.0
279,96.19753893750001,96.9610516875,66.0,71.0
280,96.19753893750001,96.96274087500001,69.0,76.0
281,95.38672893750001,97.0083489375,50.0,61.0
282,97.0083489375,97.6333483125,50.0,62.0
283,97.0083489375,97.72963200000001,62.0,68.0
284,97.0083489375,97.7752400625,69.0,79.0
285,97.0083489375,97.8225373125,66.0,74.0
286,97.8191589375,97.8225373125,66.0,65.0
287,97.8191589375,98.26848281250001,50.0,72.0
288,97.8191589375,98.2921314375,69.0,70.0
289,97.8191589375,98.34280706250001,62.0,66.0
290,98.62996893750001,99.29888718750001,55.0,68.0
291,98.62996893750001,99.3259141875,59.0,61.0
292,98.62996893750001,99.33773850000001,62.0,62.0
293,98.62996893750001,99.45429243750002,43.0,70.0
294,98.62996893750001,99.45429243750002,43.0,81.0
295,99.44077893750001,99.78537318750001,59.0,67.0
296,99.44077893750001,99.79212993750001,55.0,68.0
297,99.44077893750001,99.83267043750001,62.0,62.0
298,100.2515889375,100.93570987500001,57.0,60.0
299,100.2515889375,100.96949362500001,61.0,87.0
300,100.2515889375,100.99483143750001,64.0,67.0
301,101.0623989375,101.35293918750001,57.0,66.0
302,101.0623989375,101.38334456250001,64.0,69.0
303,101.0623989375,101.3934796875,61.0,93.0
304,100.2515889375,101.5353714375,45.0,58.0
305,101.87320893750001,102.27523556250001,62.0,75.0
306,101.87320893750001,102.4441543125,50.0,77.0
307,101.87320893750001,102.45091106250001,66.0,74.0
308,101.87320893750001,102.4610461875,69.0,71.0
309,102.68401893750001,103.10462662500001,66.0,71.0
310,102.68401893750001,103.12151850000001,49.0,71.0
311,102.68401893750001,103.12827525000002,61.0,86.0
312,103.4948289375,104.14685531250001,59.0,64.0
313,103.4948289375,104.1536120625,62.0,69.0
314,103.4948289375,104.1840174375,66.0,62.0
315,104.3056389375,104.631652125,62.0,73.0
316,103.4948289375,104.63334131250001,47.0,70.0
317,104.3056389375,104.65192237500001,59.0,74.0
318,104.3056389375,104.6536115625,66.0,74.0
319,105.11644893750001,105.82252931250001,55.0,74.0
320,105.11644893750001,105.84448875000001,59.0,71.0
321,105.11644893750001,105.84786712500001,62.0,65.0
322,105.92725893750001,106.29719100000001,59.0,69.0
323,105.92725893750001,106.2988801875,55.0,69.0
324,105.92725893750001,106.32252881250001,62.0,65.0
325,105.11644893750001,106.82759587500001,43.0,67.0
326,106.7380689375,107.4188115,57.0,67.0
327,106.7380689375,107.432325,64.0,77.0
328,106.7380689375,107.45259525000002,61.0,85.0
329,107.5488789375,107.92218937500002,57.0,73.0
330,107.5488789375,107.93908125000002,64.0,76.0
331,107.5488789375,107.9745541875,61.0,86.0
332,106.7380689375,108.3968510625,45.0,79.0
333,108.35968893750001,109.00495856250001,59.0,60.0
334,108.35968893750001,109.03536393750001,62.0,68.0
335,108.35968893750001,109.04043150000001,66.0,62.0
336,109.17049893750001,109.895160375,59.0,67.0
337,109.17049893750001,109.90529550000001,62.0,67.0
338,109.17049893750001,109.908673875,66.0,62.0
339,109.9813089375,111.381645375,66.0,60.0
340,109.9813089375,111.3900913125,59.0,59.0
341,109.9813089375,111.39178050000001,62.0,65.0
342,108.35968893750001,111.40529400000001,47.0,81.0
343,112.41373893750001,112.93738706250001,61.0,74.0
344,112.00833393750001,114.33096675000002,54.0,61.0
345,111.60292893750001,114.341101875,47.0,71.0
346,112.81914393750002,114.63164212500001,62.0,86.0
347,114.84616893750001,115.92218137500001,43.0,67.0
348,114.84616893750001,116.02353262500002,59.0,60.0
349,115.65697893750001,116.20258650000001,55.0,51.0
350,115.25157393750001,116.29887018750001,50.0,56.0
351,117.0758964375,117.44413931250001,57.0,58.0
352,116.8731939375,117.66711206250001,52.0,58.0
353,116.4677889375,117.69244987500001,45.0,67.0
354,116.4677889375,118.14684131250002,61.0,83.0
355,118.08940893750001,119.11643493750002,42.0,69.0
356,118.49481393750001,119.26339425,54.0,62.0
357,118.90021893750001,119.72623162500001,61.0,67.0
358,119.7110289375,120.97623037500001,47.0,86.0
359,120.1164339375,120.98467631250001,50.0,68.0
360,120.52183893750001,121.29548681250002,66.0,72.0
361,120.92724393750001,121.33095975,62.0,53.0
362,121.33264893750001,122.59953956250001,43.0,71.0
363,122.14345893750001,122.7481880625,55.0,52.0
364,121.73805393750001,122.8900798125,50.0,59.0
365,122.54886393750002,123.03534993750002,59.0,58.0
366,123.76507893750001,124.09278131250001,57.0,58.0
367,123.3596739375,124.1907541875,52.0,53.0
368,122.95426893750002,124.23467306250001,45.0,72.0
369,124.17048393750001,124.55392950000001,73.0,65.0
370,124.17048393750001,124.56068625000002,69.0,59.0
371,123.76507893750001,124.604605125,61.0,74.0
372,126.19750893750002,126.91034606250001,74.0,76.0
373,125.79210393750002,126.94919737500001,69.0,65.0
374,125.38669893750001,126.96608925000001,66.0,58.0
375,127.00831893750001,127.550548125,74.0,74.0
376,127.00831893750001,127.5893994375,69.0,86.0
377,125.79210393750002,127.63838587500001,62.0,35.0
378,124.57588893750001,127.68061556250001,50.0,87.0
379,126.8056164375,127.705953375,54.0,9.0
380,127.00831893750001,127.72453443750001,66.0,67.0
381,124.98129393750001,127.7785884375,57.0,53.0
382,127.81912893750001,128.50156068750002,67.0,71.0
383,127.81912893750001,128.51169581250002,59.0,60.0
384,127.81912893750001,128.513385,62.0,59.0
385,128.8326414375,129.03534393750002,78.0,74.0
386,127.81912893750001,129.111357375,43.0,59.0
387,128.62993893750001,129.22284375,67.0,67.0
388,127.81912893750001,129.2296005,55.0,57.0
389,129.03534393750002,129.23635725,76.0,64.0
390,127.81912893750001,129.2481815625,50.0,63.0
391,128.62993893750001,129.361357125,62.0,59.0
392,128.62993893750001,129.3765598125,59.0,59.0
393,129.2380464375,129.49311375000002,74.0,60.0
394,129.44074893750002,130.03365375,71.0,83.0
395,129.84615393750002,130.5725045625,52.0,51.0
396,129.44074893750002,130.6772341875,45.0,74.0
397,130.4542614375,130.72453143750002,76.0,67.0
398,130.25155893750002,130.76000437500002,69.0,59.0
399,130.4542614375,130.8596664375,64.0,11.0
400,130.65696393750002,130.90696368750002,74.0,61.0
401,130.25155893750002,130.9272339375,61.0,64.0
402,130.8596664375,131.1062878125,73.0,60.0
403,131.06236893750003,131.918787,69.0,65.0
404,131.06236893750003,132.070813875,42.0,67.0
405,131.4677739375,132.0792598125,54.0,47.0
406,131.8731789375,132.60121875000002,61.0,63.0
407,133.0893939375,133.341082875,71.0,70.0
408,133.0893939375,133.354596375,74.0,72.0
409,133.4947989375,134.030271375,74.0,69.0
410,133.4947989375,134.03364975000002,81.0,87.0
411,132.6839889375,134.091082125,47.0,72.0
412,133.0893939375,134.3056089375,50.0,59.0
413,133.4947989375,134.3056089375,54.0,62.0
414,134.3056089375,135.46439156250003,43.0,68.0
415,135.52182393750002,135.83094525,67.0,65.0
416,135.52182393750002,135.84108037500002,74.0,67.0
417,134.7110139375,135.9137154375,50.0,68.0
418,135.11641893750001,135.9339856875,55.0,59.0
419,136.33263393750002,136.787025375,49.0,63.0
420,135.92722893750002,137.19580875000003,45.0,64.0
421,135.92722893750002,137.543781375,73.0,95.0
422,135.92722893750002,137.54715975000002,67.0,69.0
423,136.73803893750002,137.59107862500002,52.0,56.0
424,137.14344393750002,137.60121375,57.0,58.0
425,137.54884893750003,139.1704689375,50.0,60.0
426,139.1704689375,139.9812789375,49.0,73.0
427,139.1704689375,140.0133735,69.0,68.0
428,137.9542539375,140.03702212500002,57.0,57.0
429,138.3596589375,140.05391400000002,62.0,51.0
430,139.1704689375,140.07080587500002,66.0,58.0
431,138.7650639375,140.091076125,54.0,63.0
432,140.7920889375,142.1941145625,43.0,72.0
433,140.7920889375,142.23296587500002,66.0,87.0
434,141.1974939375,142.3427630625,50.0,62.0
435,141.60289893750002,142.530262875,59.0,63.0
436,142.41370893750002,143.7346535625,64.0,81.0
437,142.41370893750002,143.75999137500003,45.0,70.0
438,142.81911393750002,143.9947884375,52.0,50.0
439,143.22451893750002,144.1265450625,61.0,58.0
440,144.03532893750003,144.77519306250002,64.0,76.0
441,144.03532893750003,145.01674687500002,42.0,66.0
442,144.4407339375,145.17215212500003,49.0,60.0
443,144.8461389375,145.28363850000002,66.0,67.0
444,144.8461389375,145.570800375,54.0,59.0
445,145.2515439375,145.65357056250002,64.0,72.0
446,145.6569489375,146.49309675,47.0,67.0
447,146.0623539375,146.537015625,54.0,63.0
448,145.6569489375,146.8900558125,62.0,76.0
449,146.4677589375,146.91201525000002,59.0,63.0
450,146.8731639375,147.29039325000002,61.0,67.0
451,147.2785689375,148.4728245,43.0,71.0
452,147.6839739375,148.86809437500003,50.0,65.0
453,147.2785689375,148.88498625000003,62.0,86.0
454,148.08937893750002,149.023499625,59.0,60.0
455,148.90018893750002,149.023499625,59.0,65.0
456,148.90018893750002,150.01167431250002,45.0,66.0
457,149.30559393750002,150.077552625,52.0,51.0
458,149.71099893750002,150.32248481250002,57.0,61.0
459,151.3326189375,151.72619962500002,59.0,63.0
460,151.7380239375,152.16538837500002,61.0,64.0
461,150.9272139375,153.11133337500002,54.0,66.0
462,152.1434289375,153.29038725,62.0,87.0
463,150.52180893750003,153.3089683125,47.0,77.0
464,150.52180893750003,153.65525175000002,66.0,81.0
465,153.7650489375,154.7785614375,66.0,85.0
466,153.7650489375,155.25660150000002,43.0,66.0
467,154.98126393750002,155.34612843750003,66.0,65.0
468,154.57585893750002,155.4001824375,59.0,63.0
469,154.1704539375,155.4272094375,50.0,61.0
470,155.38666893750002,156.7447756875,45.0,76.0
471,155.38666893750002,156.7718026875,64.0,74.0
472,155.79207393750002,156.8799106875,52.0,59.0
473,156.19747893750002,156.9846403125,61.0,55.0
474,157.00828893750003,157.55727487500002,64.0,83.0
475,157.8190989375,158.026869,66.0,71.0
476,157.41369393750003,158.25490931250002,49.0,14.0
477,157.8190989375,158.29713900000002,54.0,49.0
478,157.00828893750003,158.30896331250003,42.0,73.0
479,158.2245039375,158.4305848125,64.0,70.0
480,158.6299089375,159.27180018750002,62.0,75.0
481,159.4407189375,159.8900428125,59.0,59.0
482,159.8461239375,160.17720468750002,62.0,62.0
483,159.0353139375,160.25321812500002,54.0,62.0
484,158.6299089375,160.3106505,47.0,76.0
485,160.6569339375,161.06064975,71.0,72.0
486,160.2515289375,161.43396018750002,43.0,63.0
487,161.06233893750002,161.45085206250002,78.0,64.0
488,161.46774393750002,161.6805815625,74.0,68.0
489,160.6569339375,161.81233818750002,50.0,59.0
490,160.2515289375,161.88328406250002,59.0,60.0
491,162.6890265,163.178890875,61.0,50.0
492,162.27855393750002,163.19916112500002,52.0,62.0
493,161.87314893750002,163.24139081250001,73.0,75.0
494,161.87314893750002,163.24983675000001,45.0,73.0
495,163.49476893750003,164.42551125000003,66.0,49.0
496,163.49476893750003,165.8731449375,71.0,79.0
497,163.90017393750003,166.35794175,54.0,54.0
498,163.49476893750003,166.381590375,62.0,45.0
499,163.49476893750003,166.39510387500002,50.0,60.0
500,164.7109839375,166.39679306250002,66.0,59.0
501,163.49476893750003,166.4001714375,47.0,41.0
502,166.7380089375,167.6907106875,66.0,90.0
503,166.7380089375,168.0217914375,43.0,77.0
504,167.54881893750002,168.036994125,62.0,66.0
505,167.54881893750002,168.053886,59.0,59.0
506,167.95422393750002,168.32584518750002,69.0,77.0
507,167.14341393750001,168.374831625,50.0,59.0
508,168.35962893750002,169.61638443750002,64.0,69.0
509,169.57584393750003,169.61638443750002,64.0,64.0
510,169.17043893750002,169.90354631250003,61.0,60.0
511,168.35962893750002,169.949154375,45.0,75.0
512,168.76503393750002,169.98631650000002,52.0,54.0
513,169.98124893750003,170.6467888125,64.0,86.0
514,170.58935643750002,171.053883,66.0,74.0
515,170.7920589375,171.34442325,61.0,73.0
516,170.38665393750003,171.354558375,54.0,58.0
517,169.98124893750003,171.3630043125,42.0,63.0
518,171.1974639375,171.60793650000002,64.0,66.0
519,171.6028689375,173.0927323125,62.0,58.0
520,171.6028689375,173.0927323125,62.0,62.0
521,171.6028689375,173.1704349375,47.0,59.0
522,172.4136789375,173.18563762500003,54.0,37.0
523,172.0082739375,173.21097543750003,50.0,62.0
524,173.2244889375,174.27854193750002,59.0,58.0
525,173.2244889375,174.31232568750002,62.0,66.0
526,173.2244889375,174.38158237500002,43.0,62.0
527,174.03529893750002,174.48631200000003,55.0,54.0
528,174.44070393750002,174.6704334375,59.0,58.0
529,174.44070393750002,174.7481360625,62.0,65.0
530,173.62989393750001,174.8258386875,50.0,66.0
531,174.84610893750002,176.32921556250002,45.0,68.0
532,175.65691893750002,176.32921556250002,57.0,54.0
533,175.25151393750002,176.4947559375,52.0,62.0
534,176.06232393750003,176.753201625,61.0,63.0
535,177.6839439375,178.80725362500002,62.0,51.0
536,177.6839439375,178.85286168750002,66.0,61.0
537,176.46772893750003,178.93056431250002,38.0,62.0
538,177.2785389375,178.935631875,50.0,58.0
539,176.87313393750003,178.97110481250002,45.0,49.0
540,178.9001589375,179.6670500625,66.0,63.0
541,178.9001589375,179.67887437500002,62.0,61.0
542,179.7109689375,180.96265687500002,43.0,76.0
543,180.52177893750002,181.01502168750002,59.0,59.0
544,180.52177893750002,181.01671087500003,62.0,64.0
545,180.92718393750002,181.33258893750002,55.0,46.0
546,180.11637393750001,181.40860237500002,50.0,64.0
547,181.33258893750002,182.199142125,64.0,71.0
548,181.33258893750002,182.36637168750002,61.0,57.0
549,182.14339893750002,182.73799293750002,57.0,53.0
550,181.73799393750002,182.8123171875,52.0,53.0
551,181.33258893750002,182.83089825000002,45.0,63.0
552,182.54880393750003,182.85792525000002,64.0,73.0
553,182.54880393750003,182.89170900000002,61.0,67.0
554,183.1569114375,183.7683973125,66.0,9.0
555,183.35961393750003,183.91028906250003,54.0,63.0
556,182.95420893750003,183.999816,61.0,71.0
557,182.95420893750003,184.1805590625,42.0,60.0
558,183.7650189375,184.189005,49.0,63.0
559,184.1704239375,184.43224800000002,66.0,38.0
560,184.1704239375,184.52684250000001,61.0,71.0
561,184.5758289375,185.81907093750002,47.0,86.0
562,185.3866389375,185.8528546875,54.0,65.0
563,184.9812339375,185.86298981250002,50.0,64.0
564,185.7920439375,186.18224625000002,66.0,65.0
565,185.7920439375,186.212651625,62.0,61.0
566,187.00825893750002,187.496434125,59.0,60.0
567,187.00825893750002,187.50656925,62.0,63.0
568,186.1974489375,187.55386650000003,43.0,62.0
569,187.41366393750002,187.80217706250002,55.0,43.0
570,186.60285393750002,187.90352831250001,50.0,59.0
571,187.81906893750002,189.11467575,45.0,81.0
572,188.62987893750002,189.19068918750003,57.0,54.0
573,188.62987893750002,189.36129712500002,64.0,73.0
574,188.22447393750002,189.38663493750002,52.0,67.0
575,188.62987893750002,189.4339321875,61.0,71.0
576,189.44068893750003,190.13663418750002,59.0,62.0
577,189.44068893750003,190.17041793750002,62.0,64.0
578,189.44068893750003,190.192377375,66.0,59.0
579,190.25149893750003,190.7954173125,59.0,67.0
580,190.25149893750003,190.81062000000003,66.0,64.0
581,190.25149893750003,190.83426862500002,62.0,69.0
582,189.44068893750003,190.85791725,54.0,68.0
583,189.44068893750003,190.87649831250002,47.0,60.0
584,190.6569039375,191.00825493750003,74.0,71.0
585,191.0623089375,191.26501143750002,73.0,77.0
586,191.4677139375,191.58595706250003,74.0,74.0
587,191.0623089375,191.8123081875,57.0,63.0
588,191.0623089375,191.84440275000003,64.0,74.0
589,191.0623089375,191.84947031250002,61.0,100.0
590,191.0623089375,192.20926725,45.0,81.0
591,191.8731189375,192.3798751875,78.0,60.0
592,192.6839289375,193.732914375,66.0,85.0
593,192.6839289375,193.9069006875,43.0,60.0
594,193.49473893750002,193.95081956250002,55.0,60.0
595,193.08933393750002,194.14000856250001,50.0,60.0
596,193.90014393750002,194.25318412500002,66.0,75.0
597,194.30554893750002,195.27007500000002,64.0,64.0
598,195.11635893750002,195.56399362500002,57.0,54.0
599,194.30554893750002,195.66027731250003,45.0,61.0
600,194.71095393750002,195.7413583125,52.0,59.0
601,195.52176393750003,195.90014193750002,61.0,77.0
602,195.92716893750003,197.08257318750003,59.0,65.0
603,196.73797893750003,197.08257318750003,59.0,79.0
604,197.1433839375,197.59946456250003,61.0,62.0
605,196.33257393750003,198.20926125000003,54.0,69.0
606,197.5487889375,198.341017875,62.0,63.0
607,195.92716893750003,198.3595989375,47.0,63.0
608,198.3595989375,198.74980125000002,57.0,51.0
609,198.3595989375,198.756558,64.0,59.0
610,198.3595989375,198.7717606875,61.0,68.0
611,198.3595989375,198.807233625,45.0,67.0
612,199.1704089375,199.8933811875,59.0,68.0
613,199.1704089375,199.90520550000002,67.0,79.0
614,199.1704089375,199.9102730625,62.0,67.0
615,199.98121893750002,200.36466450000003,59.0,63.0
616,199.98121893750002,200.3764888125,62.0,62.0
617,199.98121893750002,200.39506987500002,67.0,67.0
618,199.1704089375,200.442367125,43.0,60.0
619,199.57581393750002,200.54034000000001,50.0,72.0
620,200.38662393750002,200.557231875,55.0,58.0
621,200.79202893750002,201.40520400000003,64.0,63.0
622,200.79202893750002,201.42209587500002,69.0,75.0
623,200.79202893750002,201.469393125,61.0,42.0
624,201.60283893750002,202.1568924375,69.0,79.0
625,201.60283893750002,202.25824368750003,64.0,85.0
626,201.60283893750002,202.3376355,61.0,90.0
627,201.19743393750002,202.35959493750002,52.0,61.0
628,200.79202893750002,202.36128412500003,45.0,77.0
629,202.41364893750003,202.84439175000003,62.0,66.0
630,202.41364893750003,202.88662143750003,50.0,74.0
631,202.41364893750003,202.8899998125,66.0,74.0
632,202.41364893750003,202.94743218750003,69.0,74.0
633,203.22445893750003,203.570742375,69.0,69.0
634,203.22445893750003,203.58256668750002,66.0,67.0
635,203.22445893750003,203.61972881250003,61.0,98.0
636,203.22445893750003,203.63324231250002,49.0,83.0
637,204.0352689375,204.69743043750003,59.0,65.0
638,204.0352689375,204.70587637500003,62.0,74.0
639,204.0352689375,204.72276825000003,66.0,63.0
640,204.0352689375,205.08256518750002,54.0,66.0
641,204.8460789375,205.1805380625,62.0,81.0
642,204.8460789375,205.19574075000003,66.0,76.0
643,204.8460789375,205.2075650625,59.0,75.0
644,204.0352689375,205.243038,47.0,75.0
645,205.6568889375,206.36803687500003,55.0,61.0
646,205.6568889375,206.38492875000003,59.0,58.0
647,205.6568889375,206.388307125,62.0,62.0
648,206.46769893750002,206.87479312500002,59.0,70.0
649,206.46769893750002,206.87648231250003,55.0,73.0
650,206.46769893750002,206.90182012500003,62.0,69.0
651,205.6568889375,207.0082389375,43.0,66.0
652,207.27850893750002,207.955873125,57.0,65.0
653,207.27850893750002,207.97783256250003,61.0,86.0
654,207.27850893750002,208.01161631250002,64.0,71.0
655,208.08931893750002,208.44404831250003,57.0,68.0
656,208.08931893750002,208.47783206250003,61.0,93.0
657,208.08931893750002,208.48289962500002,64.0,73.0
658,207.27850893750002,208.84607493750002,45.0,65.0
659,208.90012893750003,209.63323631250003,69.0,71.0
660,208.90012893750003,209.6366146875,62.0,71.0
661,208.90012893750003,209.64674981250002,66.0,71.0
662,209.71093893750003,210.4457355,62.0,70.0
663,209.71093893750003,210.47445168750002,66.0,71.0
664,209.71093893750003,210.47614087500003,69.0,76.0
665,208.90012893750003,210.5217489375,50.0,61.0
666,210.5217489375,211.14674831250002,50.0,62.0
667,210.5217489375,211.24303200000003,62.0,68.0
668,210.5217489375,211.2886400625,69.0,79.0
669,210.5217489375,211.33593731250002,66.0,74.0
670,211.3325589375,211.33593731250002,66.0,65.0
671,211.3325589375,211.78188281250002,50.0,72.0
672,211.3325589375,211.8055314375,69.0,70.0
673,211.3325589375,211.85620706250003,62.0,66.0
674,212.14336893750001,212.81228718750003,55.0,68.0
675,212.14336893750001,212.8393141875,59.0,61.0
676,212.14336893750001,212.85113850000002,62.0,62.0
677,212.14336893750001,212.9676924375,43.0,70.0
678,212.14336893750001,212.9676924375,43.0,81.0
679,212.95417893750002,213.29877318750002,59.0,67.0
680,212.95417893750002,213.3055299375,55.0,68.0
681,212.95417893750002,213.34607043750003,62.0,62.0
682,213.76498893750002,214.44910987500003,57.0,60.0
683,213.76498893750002,214.48289362500003,61.0,87.0
684,213.76498893750002,214.50823143750003,64.0,67.0
685,214.57579893750002,214.86633918750002,57.0,66.0
686,214.57579893750002,214.89674456250003,64.0,69.0
687,214.57579893750002,214.9068796875,61.0,93.0
688,213.76498893750002,215.04877143750002,45.0,58.0
689,215.38660893750003,215.78863556250002,62.0,75.0
690,215.38660893750003,215.9575543125,50.0,77.0
691,215.38660893750003,215.96431106250003,66.0,74.0
692,215.38660893750003,215.9744461875,69.0,71.0
693,216.19741893750003,216.61802662500003,66.0,71.0
694,216.19741893750003,216.63491850000003,49.0,71.0
695,216.19741893750003,216.64167525000002,61.0,86.0
696,217.0082289375,217.66025531250003,59.0,64.0
697,217.0082289375,217.66701206250002,62.0,69.0
698,217.0082289375,217.6974174375,66.0,62.0
699,217.8190389375,218.145052125,62.0,73.0
700,217.0082289375,218.1467413125,47.0,70.0
701,217.8190389375,218.16532237500002,59.0,74.0
702,217.8190389375,218.16701156250002,66.0,74.0
703,218.62984893750001,219.2649834375,64.0,67.0
704,218.62984893750001,219.28018612500003,55.0,65.0
705,218.62984893750001,219.28018612500003,59.0,57.0
706,218.62984893750001,220.03863131250003,40.0,54.0
707,219.44065893750002,220.10282043750001,59.0,67.0
708,219.44065893750002,220.10619881250003,64.0,71.0
709,219.44065893750002,220.12140150000002,55.0,71.0
710,219.44065893750002,220.13998256250002,47.0,1.0
711,220.25146893750002,220.91700881250003,64.0,69.0
712,220.25146893750002,220.93221150000002,59.0,67.0
713,221.06227893750003,221.72275125000002,64.0,72.0
714,220.25146893750002,221.72781881250003,55.0,75.0
715,221.06227893750003,221.73119718750002,59.0,68.0
716,220.25146893750002,221.76329175,49.0,66.0
717,221.87308893750003,222.5487639375,58.0,60.0
718,221.87308893750003,222.5994395625,61.0,77.0
719,222.68389893750003,223.37984418750003,58.0,59.0
720,222.68389893750003,223.4102495625,61.0,87.0
721,223.4947089375,224.16362718750003,58.0,62.0
722,223.4947089375,224.1754515,61.0,95.0
723,221.87308893750003,224.63659968750002,49.0,12.0
724,221.87308893750003,224.72443743750003,54.0,57.0
725,224.3055189375,224.7278158125,61.0,108.0
726,224.3055189375,224.73626175,58.0,77.0
727,221.87308893750003,224.74639687500002,42.0,48.0
728,225.11632893750001,225.73119318750003,59.0,59.0
729,225.11632893750001,225.73119318750003,62.0,69.0
730,225.11632893750001,225.73119318750003,67.0,70.0
731,225.11632893750001,226.58761125,55.0,55.0
732,225.92713893750002,226.59943556250002,67.0,74.0
733,225.11632893750001,226.61801662500002,50.0,68.0
734,225.92713893750002,226.61801662500002,62.0,76.0
735,225.11632893750001,226.63321931250002,43.0,59.0
736,225.92713893750002,226.63490850000002,59.0,66.0
737,226.73794893750002,228.070717875,55.0,68.0
738,226.73794893750002,228.07578543750003,62.0,81.0
739,226.73794893750002,228.077474625,50.0,81.0
740,226.73794893750002,228.0791638125,67.0,81.0
741,226.73794893750002,228.08929893750002,43.0,71.0
742,226.73794893750002,228.09774487500002,59.0,74.0
743,228.35956893750003,229.08254118750003,60.0,68.0
744,228.35956893750003,229.0943655,68.0,79.0
745,228.35956893750003,229.09943306250003,63.0,67.0
746,229.17037893750003,229.55382450000002,60.0,63.0
747,229.17037893750003,229.56564881250003,63.0,62.0
748,229.17037893750003,229.58422987500003,68.0,67.0
749,228.35956893750003,229.63152712500002,44.0,60.0
750,228.76497393750003,229.72950000000003,51.0,72.0
751,229.57578393750003,229.74639187500003,56.0,58.0
752,229.9811889375,230.594364,65.0,63.0
753,229.9811889375,230.611255875,70.0,75.0
754,229.9811889375,230.65855312500003,62.0,42.0
755,230.7919989375,231.34605243750002,70.0,79.0
756,230.7919989375,231.4474036875,65.0,85.0
757,230.7919989375,231.52679550000002,62.0,90.0
758,230.3865939375,231.5487549375,53.0,61.0
759,229.9811889375,231.550444125,46.0,77.0
760,231.60280893750001,232.03355175000002,63.0,66.0
761,231.60280893750001,232.0757814375,51.0,74.0
762,231.60280893750001,232.07915981250002,67.0,74.0
763,231.60280893750001,232.1365921875,70.0,74.0
764,232.41361893750002,232.75990237500002,70.0,69.0
765,232.41361893750002,232.77172668750003,67.0,67.0
766,232.41361893750002,232.80888881250002,62.0,98.0
767,232.41361893750002,232.82240231250003,50.0,83.0
768,233.22442893750002,233.88659043750002,60.0,65.0
769,233.22442893750002,233.89503637500002,63.0,74.0
770,233.22442893750002,233.91192825000002,67.0,63.0
771,233.22442893750002,234.2717251875,55.0,66.0
772,234.03523893750003,234.36969806250002,63.0,81.0
773,234.03523893750003,234.38490075,67.0,76.0
774,234.03523893750003,234.39672506250002,60.0,75.0
775,233.22442893750002,234.43219800000003,48.0,75.0
776,234.84604893750003,235.55719687500002,56.0,61.0
777,234.84604893750003,235.57408875000002,60.0,58.0
778,234.84604893750003,235.57746712500003,63.0,62.0
779,235.65685893750003,236.063953125,60.0,70.0
780,235.65685893750003,236.06564231250002,56.0,73.0
781,235.65685893750003,236.09098012500002,63.0,69.0
782,234.84604893750003,236.19739893750003,44.0,66.0
783,236.4676689375,237.14503312500003,58.0,65.0
784,236.4676689375,237.1669925625,62.0,86.0
785,236.4676689375,237.2007763125,65.0,71.0
786,237.2784789375,237.63320831250002,58.0,68.0
787,237.2784789375,237.66699206250001,62.0,93.0
788,237.2784789375,237.67205962500003,65.0,73.0
789,236.4676689375,238.0352349375,46.0,65.0
790,238.08928893750002,238.82239631250002,70.0,71.0
791,238.08928893750002,238.82577468750003,63.0,71.0
792,238.08928893750002,238.83590981250003,67.0,71.0
793,238.90009893750002,239.63489550000003,63.0,70.0
794,238.90009893750002,239.6636116875,67.0,71.0
795,238.90009893750002,239.665300875,70.0,76.0
796,238.08928893750002,239.71090893750002,51.0,61.0
797,239.71090893750002,240.3359083125,51.0,62.0
798,239.71090893750002,240.43219200000001,63.0,68.0
799,239.71090893750002,240.47780006250002,70.0,79.0
800,239.71090893750002,240.5250973125,67.0,74.0
801,240.52171893750003,240.5250973125,67.0,65.0
802,240.52171893750003,240.97104281250003,51.0,72.0
803,240.52171893750003,240.99469143750002,70.0,70.0
804,240.52171893750003,241.04536706250002,63.0,66.0
805,241.33252893750003,242.00144718750002,56.0,68.0
806,241.33252893750003,242.02847418750002,60.0,61.0
807,241.33252893750003,242.04029850000003,63.0,62.0
808,241.33252893750003,242.15685243750002,44.0,70.0
809,241.33252893750003,242.15685243750002,44.0,81.0
810,242.14333893750003,242.48793318750003,60.0,67.0
811,242.14333893750003,242.49468993750003,56.0,68.0
812,242.14333893750003,242.53523043750002,63.0,62.0
813,242.9541489375,243.63826987500002,58.0,60.0
814,242.9541489375,243.67205362500002,62.0,87.0
815,242.9541489375,243.69739143750002,65.0,67.0
816,243.7649589375,244.05549918750003,58.0,66.0
817,243.7649589375,244.08590456250002,65.0,69.0
818,243.7649589375,244.09603968750002,62.0,93.0
819,242.9541489375,244.2379314375,46.0,58.0
820,244.57576893750002,244.97779556250003,63.0,75.0
821,244.57576893750002,245.14671431250002,51.0,77.0
822,244.57576893750002,245.15347106250002,67.0,74.0
823,244.57576893750002,245.16360618750002,70.0,71.0
824,245.38657893750002,245.807186625,67.0,71.0
825,245.38657893750002,245.8240785,50.0,71.0
826,245.38657893750002,245.83083525000004,62.0,86.0
827,246.19738893750002,246.8494153125,60.0,64.0
828,246.19738893750002,246.85617206250004,63.0,69.0
829,246.19738893750002,246.88657743750002,67.0,62.0
830,247.00819893750003,247.33421212500002,63.0,73.0
831,246.19738893750002,247.33590131250003,48.0,70.0
832,247.00819893750003,247.35448237500003,60.0,74.0
833,247.00819893750003,247.3561715625,67.0,74.0
834,247.81900893750003,248.52508931250003,56.0,74.0
835,247.81900893750003,248.54704875000002,60.0,71.0
836,247.81900893750003,248.55042712500003,63.0,65.0
837,248.62981893750003,248.99975100000003,60.0,69.0
838,248.62981893750003,249.0014401875,56.0,69.0
839,248.62981893750003,249.02508881250003,63.0,65.0
840,247.81900893750003,249.53015587500002,44.0,67.0
841,249.4406289375,250.1213715,58.0,67.0
842,249.4406289375,250.13488500000003,65.0,77.0
843,249.4406289375,250.15515525000004,62.0,85.0
844,250.2514389375,250.62474937500002,58.0,73.0
845,250.2514389375,250.64164125000002,65.0,76.0
846,250.2514389375,250.67711418750002,62.0,86.0
847,249.4406289375,251.09941106250002,46.0,79.0
848,251.06224893750002,251.7075185625,60.0,60.0
849,251.06224893750002,251.73792393750003,63.0,68.0
850,251.06224893750002,251.74299150000002,67.0,62.0
851,251.87305893750002,252.59772037500002,60.0,67.0
852,251.87305893750002,252.60785550000003,63.0,67.0
853,251.87305893750002,252.611233875,67.0,62.0
854,252.68386893750002,254.084205375,67.0,60.0
855,252.68386893750002,254.0926513125,60.0,59.0
856,252.68386893750002,254.09434050000002,63.0,65.0
857,251.06224893750002,254.10785400000003,48.0,81.0
858,254.30548893750003,254.95244775000003,60.0,62.0
859,254.30548893750003,254.98454231250003,68.0,64.0
860,254.30548893750003,254.99636662500004,63.0,63.0
861,255.11629893750003,255.8933251875,68.0,60.0
862,255.11629893750003,255.90514950000002,63.0,63.0
863,255.11629893750003,255.91190625000002,60.0,60.0
864,254.30548893750003,255.95075756250003,51.0,9.0
865,254.30548893750003,255.95920350000003,56.0,59.0
866,254.30548893750003,256.0149466875,44.0,56.0
867,255.9271089375,256.45244625000004,62.0,51.0
868,255.9271089375,256.46764893750003,65.0,59.0
869,255.9271089375,257.33082375000004,46.0,49.0
870,256.7379189375,257.3764318125,62.0,60.0
871,256.7379189375,257.41190475,65.0,67.0
872,255.9271089375,257.5487289375,53.0,57.0
873,255.9271089375,257.5487289375,58.0,60.0
874,255.9271089375,257.57406675000004,50.0,57.0
875,257.57068837500003,258.2007553125,67.0,74.0
876,258.42541725,259.097713875,67.0,69.0
877,257.5487289375,259.1467003125,63.0,60.0
878,259.36460550000004,260.7480500625,67.0,72.0
879,257.55548568750004,260.8527796875,60.0,57.0
880,257.543661375,260.85784725,55.0,72.0
881,257.530147875,260.86291481250004,48.0,60.0
882,259.33082175000004,260.87811750000003,63.0,62.0
883,261.2564955,263.85784425,67.0,65.0
884,261.55210331250004,263.86122262500004,60.0,38.0
885,261.11967131250003,263.87642531250003,63.0,58.0
886,261.3358873125,263.87811450000004,55.0,72.0
887,261.14163075000005,263.89838475000005,48.0,69.0
888,265.48284262500005,266.09770687500003,56.0,60.0
889,264.675411,266.09939606250003,41.0,81.0
890,265.1061538125,266.32236881250003,51.0,73.0
891,265.9879096875,266.48115243750004,60.0,46.0
892,266.85615206250003,267.62811075,53.0,61.0
893,266.415274125,267.72101606250004,46.0,71.0
894,267.29703,267.8020970625,62.0,59.0
895,267.712570125,268.1770966875,65.0,56.0
896,268.59601518750003,269.4203386875,50.0,61.0
897,268.18723181250004,269.432163,43.0,73.0
898,269.023379625,269.8460139375,58.0,54.0
899,269.4743926875,269.88993281250004,62.0,60.0
900,270.3629053125,271.16695856250004,55.0,58.0
901,269.90851387500004,271.23790443750005,48.0,66.0
902,270.82067512500004,271.73452556250004,63.0,61.0
903,271.297026,271.7429715,67.0,61.0
904,271.7277688125,273.19905112500004,44.0,69.0
905,272.66188950000003,273.42371306250004,63.0,65.0
906,272.188917,273.5487129375,51.0,65.0
907,272.6602003125,273.5824966875,60.0,60.0
908,274.99296825000005,275.57404875000003,63.0,65.0
909,273.57911831250004,277.98958687500004,62.0,57.0
910,275.57573793750004,277.98958687500004,62.0,63.0
911,273.58756425,278.1365461875,65.0,69.0
912,274.5149281875,278.30039737500005,58.0,39.0
913,274.0385773125,278.3054649375,53.0,58.0
914,273.5993885625,278.3966810625,46.0,72.0
915,278.9473561875,280.509854625,67.0,60.0
916,280.2074900625,280.509854625,67.0,40.0
917,278.93384268750003,281.25985387500003,63.0,58.0
918,282.2564745,282.5757309375,79.0,59.0
919,282.496339125,283.5115408125,84.0,72.0
920,279.8223553125,284.2378914375,60.0,41.0
921,279.35276118750005,284.273364375,55.0,60.0
922,278.9439778125,284.27505356250003,48.0,67.0
