,start,end,pitch,velocity
0,0.15873,0.5158725000000001,69.0,110.0
1,0.5158725000000001,0.8730150000000001,72.0,108.0
2,0.8730150000000001,1.5873000000000002,69.0,113.0
3,1.5873000000000002,2.3412675000000003,79.0,102.0
4,2.3412675000000003,3.0714255,76.0,108.0
5,3.0724175625000005,4.2628925625,76.0,114.0
6,11.587290000000001,11.8243929375,79.0,114.0
7,11.825385,12.062487937500002,79.0,110.0
8,12.063480000000002,12.300582937500002,79.0,110.0
9,12.301575000000001,12.539670000000001,79.0,113.0
10,12.539670000000001,13.015860000000002,81.0,116.0
11,13.015860000000002,13.49205,76.0,117.0
12,13.49205,15.396810000000002,79.0,117.0
13,15.396810000000002,15.753952500000002,81.0,116.0
14,15.634905000000002,15.921611062500002,79.0,96.0
15,15.873000000000001,16.111095000000002,76.0,102.0
16,16.111095000000002,16.34919,74.0,100.0
17,16.34919,16.825380000000003,76.0,100.0
18,16.825380000000003,17.30157,69.0,108.0
19,17.30157,19.20633,72.0,108.0
20,19.20633,19.920615,81.0,114.0
21,19.920615,20.158710000000003,84.0,110.0
22,20.158710000000003,20.634900000000002,81.0,107.0
23,20.634900000000002,21.117042375,79.0,110.0
24,21.11109,21.825375,81.0,110.0
25,21.825375,22.063470000000002,84.0,100.0
26,22.063470000000002,22.53966,81.0,94.0
27,22.53966,22.776762937500003,79.0,108.0
28,22.777755000000003,23.015850000000004,79.0,104.0
29,23.015850000000004,23.253945,81.0,98.0
30,23.253945,23.491047937500003,79.0,107.0
31,23.492040000000003,23.729142937500004,79.0,110.0
32,23.730135000000004,23.968230000000002,79.0,110.0
33,23.968230000000002,24.470213625000003,72.0,100.0
34,24.44442,24.920610000000003,76.0,90.0
35,24.920610000000003,26.825370000000003,74.0,91.0
36,26.825370000000003,27.062472937500004,79.0,114.0
37,27.063465000000004,27.300567937500002,79.0,110.0
38,27.301560000000002,27.538662937500003,79.0,110.0
39,27.539655000000003,27.777750000000005,79.0,113.0
40,27.777750000000005,28.253940000000004,81.0,116.0
41,28.253940000000004,28.730130000000003,76.0,117.0
42,28.730130000000003,30.395802937500005,79.0,117.0
43,30.396795000000004,30.634890000000002,79.0,94.0
44,30.634890000000002,30.871992937500004,81.0,100.0
45,30.872985000000003,31.349175000000002,81.0,104.0
46,31.349175000000002,31.587270000000004,79.0,102.0
47,31.587270000000004,32.063460000000006,81.0,113.0
48,32.063460000000006,32.301555,76.0,107.0
49,32.301555,32.568419812500004,74.0,92.0
50,32.53965,32.84322112500001,76.0,93.0
51,32.777745,33.015840000000004,69.0,97.0
52,33.015840000000004,34.444410000000005,72.0,104.0
53,34.444410000000005,35.158695,81.0,116.0
54,35.158695,35.39679,84.0,110.0
55,35.39679,35.872980000000005,81.0,116.0
56,35.872980000000005,36.34917,79.0,114.0
57,36.34917,36.586272937500006,81.0,114.0
58,36.587265,37.063455000000005,81.0,110.0
59,37.063455000000005,37.301550000000006,84.0,113.0
60,37.301550000000006,38.253930000000004,81.0,110.0
61,38.253930000000004,38.4910329375,91.0,114.0
62,38.492025000000005,38.7291279375,91.0,102.0
63,38.73012000000001,38.967222937500004,91.0,100.0
64,38.968215,39.20631,91.0,110.0
65,39.20631,39.682500000000005,81.0,117.0
66,39.682500000000005,40.15869000000001,86.0,117.0
67,40.15869000000001,43.968210000000006,84.0,116.0
68,43.968210000000006,44.20630500000001,81.0,110.0
69,44.20630500000001,44.447376187500005,84.0,92.0
70,44.4444,44.682495,81.0,96.0
71,44.682495,44.93150268750001,79.0,98.0
72,44.920590000000004,45.39678000000001,91.0,116.0
73,45.39678000000001,45.871977937500006,88.0,119.0
74,45.87297,47.777730000000005,88.0,113.0
75,47.777730000000005,48.01582500000001,81.0,117.0
76,48.01582500000001,48.25392000000001,76.0,104.0
77,48.25392000000001,48.492015,84.0,110.0
78,48.492015,48.73011,81.0,94.0
79,48.73011,49.206300000000006,84.0,113.0
80,49.206300000000006,49.681497937500005,81.0,116.0
81,49.68249000000001,49.920585,81.0,116.0
82,49.920585,51.587250000000004,79.0,102.0
83,51.587250000000004,51.8243529375,81.0,119.0
84,51.825345000000006,52.06344000000001,81.0,114.0
85,52.06344000000001,52.30153500000001,79.0,114.0
86,52.30153500000001,52.53963,81.0,110.0
87,52.53963,52.777725000000004,76.0,114.0
88,52.777725000000004,53.49201000000001,79.0,114.0
89,53.49201000000001,53.729112937500005,81.0,113.0
90,53.73010500000001,53.9682,81.0,113.0
91,53.9682,54.206295000000004,79.0,110.0
92,54.206295000000004,54.444390000000006,81.0,113.0
93,54.444390000000006,54.92058000000001,91.0,110.0
94,54.92058000000001,55.396770000000004,88.0,117.0
95,55.396770000000004,55.63387293750001,86.0,119.0
96,55.634865000000005,55.8719679375,86.0,113.0
97,55.872960000000006,56.11105500000001,86.0,110.0
98,56.11105500000001,56.34915000000001,84.0,110.0
99,56.34915000000001,56.82434793750001,91.0,113.0
100,56.825340000000004,57.30153000000001,91.0,110.0
101,57.30153000000001,57.53962500000001,88.0,110.0
102,57.53962500000001,59.20629000000001,86.0,107.0
103,59.20629000000001,59.444385000000004,81.0,110.0
104,59.444385000000004,59.68545618750001,84.0,92.0
105,59.682480000000005,59.92057500000001,81.0,96.0
106,59.92057500000001,60.169582687500004,79.0,98.0
107,60.15867000000001,60.63486,91.0,116.0
108,60.63486,61.11005793750001,88.0,119.0
109,61.111050000000006,63.01581000000001,88.0,113.0
110,63.01581000000001,63.25390500000001,81.0,117.0
111,63.25390500000001,63.492000000000004,76.0,104.0
112,63.492000000000004,63.730095000000006,84.0,110.0
113,63.730095000000006,63.96819000000001,81.0,94.0
114,63.96819000000001,64.44438000000001,84.0,113.0
115,64.44438000000001,64.91957793750001,81.0,116.0
116,64.92057000000001,65.15866500000001,81.0,116.0
117,65.15866500000001,66.82533000000001,79.0,102.0
118,66.82533000000001,67.0624329375,81.0,119.0
119,67.06342500000001,67.30152000000001,81.0,114.0
120,67.30152000000001,67.53961500000001,79.0,114.0
121,67.53961500000001,67.77771000000001,81.0,110.0
122,67.77771000000001,68.015805,76.0,114.0
123,68.015805,68.73009,79.0,114.0
124,68.73009,68.9671929375,81.0,113.0
125,68.968185,69.20628,81.0,113.0
126,69.20628,69.44437500000001,79.0,110.0
127,69.44437500000001,69.68247000000001,81.0,113.0
128,69.68247000000001,70.15866000000001,91.0,110.0
129,70.15866000000001,70.63485000000001,88.0,117.0
130,70.63485000000001,70.87195293750001,86.0,119.0
131,70.872945,71.11004793750001,86.0,113.0
132,71.11104,71.349135,86.0,110.0
133,71.349135,71.58723,84.0,110.0
134,71.58723,72.0624279375,88.0,114.0
135,72.06342000000001,72.30151500000001,88.0,113.0
136,72.30151500000001,72.53961000000001,86.0,104.0
137,72.53961000000001,73.61103750000001,84.0,108.0
138,82.06341,82.3005129375,79.0,114.0
139,82.301505,82.5386079375,79.0,110.0
140,82.53960000000001,82.7767029375,79.0,110.0
141,82.77769500000001,83.01579000000001,79.0,113.0
142,83.01579000000001,83.49198000000001,81.0,116.0
143,83.49198000000001,83.96817000000001,76.0,117.0
144,83.96817000000001,85.87293000000001,79.0,117.0
145,85.87293000000001,86.2300725,81.0,116.0
146,86.11102500000001,86.39773106250001,79.0,96.0
147,86.34912000000001,86.58721500000001,76.0,102.0
148,86.58721500000001,86.82531000000002,74.0,100.0
149,86.82531000000002,87.3015,76.0,100.0
150,87.3015,87.77769,69.0,108.0
151,87.77769,89.68245,72.0,108.0
152,89.68245,90.396735,81.0,114.0
153,90.396735,90.63483000000001,84.0,110.0
154,90.63483000000001,91.11102000000001,81.0,107.0
155,91.11102000000001,91.593162375,79.0,110.0
156,91.58721000000001,92.301495,81.0,110.0
157,92.301495,92.53959,84.0,100.0
158,92.53959,93.01578,81.0,94.0
159,93.01578,93.2528829375,79.0,108.0
160,93.25387500000001,93.49197000000001,79.0,104.0
161,93.49197000000001,93.73006500000001,81.0,98.0
162,93.73006500000001,93.96716793750001,79.0,107.0
163,93.96816000000001,94.20526293750001,79.0,110.0
164,94.20625500000001,94.44435000000001,79.0,110.0
165,94.44435000000001,94.94633362500001,72.0,100.0
166,94.92054000000002,95.39673,76.0,90.0
167,95.39673,97.30149000000002,74.0,91.0
168,97.30149000000002,97.53859293750001,79.0,114.0
169,97.53958500000002,97.77668793750001,79.0,110.0
170,97.77768,98.01478293750002,79.0,110.0
171,98.015775,98.25387,79.0,113.0
172,98.25387,98.73006000000001,81.0,116.0
173,98.73006000000001,99.20625000000001,76.0,117.0
174,99.20625000000001,100.87192293750002,79.0,117.0
175,100.872915,101.11101000000001,79.0,94.0
176,101.11101000000001,101.3481129375,81.0,100.0
177,101.34910500000001,101.82529500000001,81.0,104.0
178,101.82529500000001,102.06339000000001,79.0,102.0
179,102.06339000000001,102.53958000000002,81.0,113.0
180,102.53958000000002,102.77767500000002,76.0,107.0
181,102.77767500000002,103.0445398125,74.0,92.0
182,103.01577000000002,103.31934112500001,76.0,93.0
183,103.253865,104.92053000000001,72.0,104.0
184,104.92053000000001,105.63481500000002,81.0,116.0
185,105.63481500000002,105.87291,84.0,110.0
186,105.87291,106.3491,81.0,116.0
187,106.3491,106.82529000000001,79.0,114.0
188,106.82529000000001,107.06239293750001,81.0,114.0
189,107.06338500000001,107.53957500000001,81.0,110.0
190,107.53957500000001,107.77767000000001,84.0,113.0
191,107.77767000000001,108.73005,81.0,110.0
192,108.73005,108.96715293750002,91.0,114.0
193,108.968145,109.2052479375,91.0,102.0
194,109.20624000000001,109.4433429375,91.0,100.0
195,109.44433500000001,109.68243000000001,91.0,110.0
196,109.68243000000001,110.15862000000001,81.0,117.0
197,110.15862000000001,110.63481000000002,86.0,117.0
198,110.63481000000002,114.44433000000001,84.0,116.0
199,114.44433000000001,114.68242500000001,81.0,110.0
200,114.68242500000001,114.9234961875,84.0,92.0
201,114.92052000000001,115.15861500000001,81.0,96.0
202,115.15861500000001,115.40762268750001,79.0,98.0
203,115.39671000000001,115.87290000000002,91.0,116.0
204,115.87290000000002,116.34809793750001,88.0,119.0
205,116.34909000000002,118.25385000000001,88.0,113.0
206,118.25385000000001,118.49194500000002,81.0,117.0
207,118.49194500000002,118.73004000000002,76.0,104.0
208,118.73004000000002,118.96813500000002,84.0,110.0
209,118.96813500000002,119.20623000000002,81.0,94.0
210,119.20623000000002,119.68242000000001,84.0,113.0
211,119.68242000000001,120.1576179375,81.0,116.0
212,120.15861000000001,120.39670500000001,81.0,116.0
213,120.39670500000001,122.06337,79.0,102.0
214,122.06337,122.30047293750002,81.0,119.0
215,122.30146500000001,122.53956000000001,81.0,114.0
216,122.53956000000001,122.77765500000001,79.0,114.0
217,122.77765500000001,123.01575000000001,81.0,110.0
218,123.01575000000001,123.25384500000001,76.0,114.0
219,123.25384500000001,123.96813000000002,79.0,114.0
220,123.96813000000002,124.20523293750001,81.0,113.0
221,124.20622500000002,124.44432000000002,81.0,113.0
222,124.44432000000002,124.68241500000002,79.0,110.0
223,124.68241500000002,124.92051000000001,81.0,113.0
224,124.92051000000001,125.39670000000001,91.0,110.0
225,125.39670000000001,125.87289000000001,88.0,117.0
226,125.87289000000001,126.10999293750001,86.0,119.0
227,126.11098500000001,126.34808793750001,86.0,113.0
228,126.34908000000001,126.58717500000002,86.0,110.0
229,126.58717500000002,126.82527000000002,84.0,110.0
230,126.82527000000002,127.30046793750002,91.0,113.0
231,127.30146000000002,127.77765000000001,91.0,110.0
232,127.77765000000001,128.015745,88.0,110.0
233,128.015745,129.68241,86.0,107.0
234,129.68241,129.92050500000002,81.0,110.0
235,129.92050500000002,130.1615761875,84.0,92.0
236,130.1586,130.39669500000002,81.0,96.0
237,130.39669500000002,130.6457026875,79.0,98.0
238,130.63479,131.11098,91.0,116.0
239,131.11098,131.58617793750003,88.0,119.0
240,131.58717000000001,133.49193000000002,88.0,113.0
241,133.49193000000002,133.730025,81.0,117.0
242,133.730025,133.96812000000003,76.0,104.0
243,133.96812000000003,134.20621500000001,84.0,110.0
244,134.20621500000001,134.44431,81.0,94.0
245,134.44431,134.9205,84.0,113.0
246,134.9205,135.39569793750002,81.0,116.0
247,135.39669,135.63478500000002,81.0,116.0
248,135.63478500000002,137.30145000000002,79.0,102.0
249,137.30145000000002,137.53855293750001,81.0,119.0
250,137.539545,137.77764000000002,81.0,114.0
251,137.77764000000002,138.015735,79.0,114.0
252,138.015735,138.25383000000002,81.0,110.0
253,138.25383000000002,138.491925,76.0,114.0
254,138.491925,139.20621000000003,79.0,114.0
255,139.20621000000003,139.44331293750002,81.0,113.0
256,139.444305,139.6824,81.0,113.0
257,139.6824,139.92049500000002,79.0,110.0
258,139.92049500000002,140.15859,81.0,113.0
259,140.15859,140.63478,91.0,110.0
260,140.63478,141.11097,88.0,117.0
261,141.11097,141.3480729375,86.0,119.0
262,141.34906500000002,141.58616793750002,86.0,113.0
263,141.58716,141.82525500000003,86.0,110.0
264,141.82525500000003,142.06335,84.0,110.0
265,142.06335,142.53854793750003,88.0,114.0
266,142.53954000000002,142.777635,88.0,113.0
267,142.777635,143.01573000000002,86.0,104.0
268,143.01573000000002,145.57525125,84.0,108.0
269,160.15857000000003,160.396665,81.0,110.0
270,160.396665,160.63773618750002,84.0,92.0
271,160.63476000000003,160.87285500000002,81.0,96.0
272,160.87285500000002,161.12186268750003,79.0,98.0
273,161.11095000000003,161.58714,91.0,116.0
274,161.58714,162.06233793750002,88.0,119.0
275,162.06333,163.96809000000002,88.0,113.0
276,163.96809000000002,164.206185,81.0,117.0
277,164.206185,164.44428000000002,76.0,104.0
278,164.44428000000002,164.682375,84.0,110.0
279,164.682375,164.92047000000002,81.0,94.0
280,164.92047000000002,165.39666000000003,84.0,113.0
281,165.39666000000003,165.8718579375,81.0,116.0
282,165.87285000000003,166.11094500000002,81.0,116.0
283,166.11094500000002,167.77761,79.0,102.0
284,167.77761,168.0147129375,81.0,119.0
285,168.01570500000003,168.2538,81.0,114.0
286,168.2538,168.49189500000003,79.0,114.0
287,168.49189500000003,168.72999000000002,81.0,110.0
288,168.72999000000002,168.96808500000003,76.0,114.0
289,168.96808500000003,169.68237000000002,79.0,114.0
290,169.68237000000002,169.91947293750002,81.0,113.0
291,169.920465,170.15856000000002,81.0,113.0
292,170.15856000000002,170.396655,79.0,110.0
293,170.396655,170.63475000000003,81.0,113.0
294,170.63475000000003,171.11094000000003,91.0,110.0
295,171.11094000000003,171.58713000000003,88.0,117.0
296,171.58713000000003,171.82423293750003,86.0,119.0
297,171.82522500000002,172.06232793750002,86.0,113.0
298,172.06332,172.30141500000002,86.0,110.0
299,172.30141500000002,172.53951,84.0,110.0
300,172.53951,173.01470793750002,91.0,113.0
301,173.0157,173.49189,91.0,110.0
302,173.49189,173.72998500000003,88.0,110.0
303,173.72998500000003,175.39665000000002,86.0,107.0
304,175.39665000000002,175.634745,81.0,110.0
305,175.634745,175.87581618750002,84.0,92.0
306,175.87284000000002,176.110935,81.0,96.0
307,176.110935,176.35994268750002,79.0,98.0
308,176.34903000000003,176.82522000000003,91.0,116.0
309,176.82522000000003,177.30041793750001,88.0,119.0
310,177.30141000000003,179.20617000000001,88.0,113.0
311,179.20617000000001,179.44426500000003,81.0,117.0
312,179.44426500000003,179.68236000000002,76.0,104.0
313,179.68236000000002,179.92045500000003,84.0,110.0
314,179.92045500000003,180.15855000000002,81.0,94.0
315,180.15855000000002,180.63474000000002,84.0,113.0
316,180.63474000000002,181.1099379375,81.0,116.0
317,181.11093000000002,181.349025,81.0,116.0
318,181.349025,183.01569,79.0,102.0
319,183.01569,183.25279293750003,81.0,119.0
320,183.25378500000002,183.49188,81.0,114.0
321,183.49188,183.72997500000002,79.0,114.0
322,183.72997500000002,183.96807,81.0,110.0
323,183.96807,184.20616500000003,76.0,114.0
324,184.20616500000003,184.92045000000002,79.0,114.0
325,184.92045000000002,185.15755293750001,81.0,113.0
326,185.15854500000003,185.39664000000002,81.0,113.0
327,185.39664000000002,185.634735,79.0,110.0
328,185.634735,185.87283000000002,81.0,113.0
329,185.87283000000002,186.34902000000002,91.0,110.0
330,186.34902000000002,186.82521000000003,88.0,117.0
331,186.82521000000003,187.06231293750002,86.0,119.0
332,187.063305,187.3004079375,86.0,113.0
333,187.30140000000003,187.53949500000002,86.0,110.0
334,187.53949500000002,187.77759000000003,84.0,110.0
335,187.77759000000003,188.25278793750002,88.0,114.0
336,188.25378,188.49187500000002,88.0,113.0
337,188.49187500000002,188.72997,86.0,104.0
338,188.72997,190.63473000000002,84.0,108.0
339,190.63473000000002,190.87282500000003,81.0,110.0
340,190.87282500000003,191.11389618750002,84.0,92.0
341,191.11092000000002,191.349015,81.0,96.0
342,191.349015,191.59802268750002,79.0,98.0
343,191.58711000000002,192.06330000000003,91.0,116.0
344,192.06330000000003,192.5384979375,88.0,119.0
345,192.53949000000003,194.44425,88.0,113.0
346,194.44425,194.68234500000003,81.0,117.0
347,194.68234500000003,194.92044,76.0,104.0
348,194.92044,195.15853500000003,84.0,110.0
349,195.15853500000003,195.39663000000002,81.0,94.0
350,195.39663000000002,195.87282000000002,84.0,113.0
351,195.87282000000002,196.34801793750003,81.0,116.0
352,196.34901000000002,196.587105,81.0,116.0
353,196.587105,198.25377000000003,79.0,102.0
354,198.25377000000003,198.49087293750003,81.0,119.0
355,198.49186500000002,198.72996000000003,81.0,114.0
356,198.72996000000003,198.96805500000002,79.0,114.0
357,198.96805500000002,199.20615,81.0,110.0
358,199.20615,199.44424500000002,76.0,114.0
359,199.44424500000002,200.15853,79.0,114.0
360,200.15853,200.3956329375,81.0,113.0
361,200.39662500000003,200.63472000000002,81.0,113.0
362,200.63472000000002,200.87281500000003,79.0,110.0
363,200.87281500000003,201.11091000000002,81.0,113.0
364,201.11091000000002,201.58710000000002,91.0,110.0
365,201.58710000000002,202.06329000000002,88.0,117.0
366,202.06329000000002,202.30039293750002,86.0,119.0
367,202.301385,202.5384879375,86.0,113.0
368,202.53948000000003,202.777575,86.0,110.0
369,202.777575,203.01567000000003,84.0,110.0
370,203.01567000000003,203.4908679375,91.0,113.0
371,203.49186000000003,203.96805000000003,91.0,110.0
372,203.96805000000003,204.20614500000002,88.0,110.0
373,204.20614500000002,205.87281000000002,86.0,107.0
374,205.87281000000002,206.11090500000003,81.0,110.0
375,206.11090500000003,206.35197618750001,84.0,92.0
376,206.34900000000002,206.58709500000003,81.0,96.0
377,206.58709500000003,206.83610268750002,79.0,98.0
378,206.82519000000002,207.30138000000002,91.0,116.0
379,207.30138000000002,207.77657793750004,88.0,119.0
380,207.77757000000003,209.68233000000004,88.0,113.0
381,209.68233000000004,209.92042500000002,81.0,117.0
382,209.92042500000002,210.15852,76.0,104.0
383,210.15852,210.39661500000003,84.0,110.0
384,210.39661500000003,210.63471,81.0,94.0
385,210.63471,211.11090000000002,84.0,113.0
386,211.11090000000002,211.58609793750003,81.0,116.0
387,211.58709000000002,211.82518500000003,81.0,116.0
388,211.82518500000003,213.49185000000003,79.0,102.0
389,213.49185000000003,213.72895293750003,81.0,119.0
390,213.72994500000001,213.96804000000003,81.0,114.0
391,213.96804000000003,214.20613500000002,79.0,114.0
392,214.20613500000002,214.44423000000003,81.0,110.0
393,214.44423000000003,214.68232500000002,76.0,114.0
394,214.68232500000002,215.39661,79.0,114.0
395,215.39661,215.63371293750004,81.0,113.0
396,215.63470500000003,215.8728,81.0,113.0
397,215.8728,216.11089500000003,79.0,110.0
398,216.11089500000003,216.34899000000001,81.0,113.0
399,216.34899000000001,216.82518000000002,91.0,110.0
400,216.82518000000002,217.30137000000002,88.0,117.0
401,217.30137000000002,217.53847293750002,86.0,119.0
402,217.53946500000004,217.77656793750003,86.0,113.0
403,217.77756000000002,218.015655,86.0,110.0
404,218.015655,218.25375000000003,84.0,110.0
405,218.25375000000003,218.7289479375,88.0,114.0
406,218.72994000000003,218.96803500000001,88.0,113.0
407,218.96803500000001,219.20613000000003,86.0,104.0
408,219.20613000000003,221.11089,84.0,108.0
