,start,end,pitch,velocity
0,8.253960000000001,8.3323329375,64.0,88.0
1,8.253960000000001,8.3343170625,67.0,98.0
2,8.253960000000001,8.3343170625,72.0,87.0
3,7.777770000000001,8.4682455,48.0,86.0
4,8.492055,8.706340500000001,72.0,88.0
5,8.492055,8.731142062500002,64.0,94.0
6,8.492055,8.732134125000002,67.0,104.0
7,8.73015,9.232133625000001,55.0,88.0
8,9.20634,9.713283937500002,72.0,92.0
9,9.20634,9.715268062500002,67.0,107.0
10,9.20634,9.726180750000001,64.0,98.0
11,10.15872,10.232132625,67.0,107.0
12,10.15872,10.240069125000002,64.0,93.0
13,10.15872,10.242053250000001,72.0,91.0
14,9.682530000000002,10.316457937500001,48.0,98.0
15,10.396815000000002,10.664671875000002,64.0,104.0
16,10.396815000000002,10.673600437500001,67.0,114.0
17,10.396815000000002,10.6775686875,72.0,96.0
18,10.634910000000001,10.856139937500002,43.0,93.0
19,11.1111,11.350187062500002,67.0,98.0
20,11.1111,11.363083875000001,55.0,107.0
21,11.1111,11.363083875000001,64.0,93.0
22,11.1111,11.371020375,72.0,87.0
23,11.587290000000001,12.152765625,48.0,107.0
24,12.063480000000002,12.468241500000001,67.0,107.0
25,12.063480000000002,12.48014625,64.0,100.0
26,12.063480000000002,12.491058937500002,72.0,93.0
27,12.539670000000001,12.966256875000001,55.0,93.0
28,13.015860000000002,13.252962937500001,43.0,96.0
29,13.015860000000002,13.5267721875,67.0,107.0
30,13.015860000000002,13.538676937500002,72.0,92.0
31,13.015860000000002,13.548597562500001,64.0,96.0
32,13.49205,13.9513749375,48.0,107.0
33,13.968240000000002,14.086295437500002,67.0,110.0
34,13.968240000000002,14.087287500000002,64.0,104.0
35,13.968240000000002,14.091255750000002,72.0,93.0
36,14.206335000000001,14.423596687500002,67.0,114.0
37,14.206335000000001,14.433517312500001,64.0,107.0
38,14.206335000000001,14.445422062500002,72.0,98.0
39,14.682525000000002,14.939469187500002,48.0,98.0
40,14.920620000000001,15.303556125000002,72.0,93.0
41,14.920620000000001,15.307524375000002,67.0,114.0
42,14.920620000000001,15.318437062500001,64.0,107.0
43,15.396810000000002,15.929547562500002,45.0,100.0
44,15.873000000000001,16.226174250000003,69.0,113.0
45,15.873000000000001,16.230142500000003,64.0,107.0
46,15.873000000000001,16.252959937500002,72.0,93.0
47,16.34919,16.59918975,52.0,107.0
48,16.825380000000003,17.17855425,69.0,113.0
49,16.825380000000003,17.1825225,64.0,107.0
50,16.825380000000003,17.205339937500003,72.0,93.0
51,17.063475,17.2450224375,43.0,84.0
52,17.30157,17.6477998125,45.0,107.0
53,17.77776,17.83728375,69.0,113.0
54,17.77776,17.843236125,72.0,96.0
55,17.77776,17.847204375,64.0,104.0
56,18.015855000000002,18.17061675,64.0,108.0
57,18.015855000000002,18.172600875,69.0,116.0
58,18.015855000000002,18.1795453125,72.0,100.0
59,18.492045,18.768830437500004,45.0,92.0
60,18.730140000000002,19.0049413125,64.0,114.0
61,18.730140000000002,19.0188301875,69.0,119.0
62,18.730140000000002,19.0237905,72.0,104.0
63,19.20633,19.6021629375,41.0,108.0
64,19.682520000000004,19.752956437500004,69.0,94.0
65,19.682520000000004,19.755932625000003,65.0,107.0
66,19.682520000000004,19.763869125000003,60.0,102.0
67,19.920615,20.144821125000004,60.0,107.0
68,19.920615,20.168630625000002,69.0,104.0
69,19.920615,20.1815274375,65.0,114.0
70,20.396805,20.632915875000002,41.0,102.0
71,20.634900000000002,20.883907687500002,60.0,94.0
72,20.634900000000002,20.889860062500002,65.0,104.0
73,20.634900000000002,20.896804500000002,69.0,94.0
74,20.634900000000002,20.9176378125,48.0,110.0
75,21.11109,21.55950225,41.0,104.0
76,21.587280000000003,21.652756125000003,65.0,108.0
77,21.587280000000003,21.652756125000003,69.0,100.0
78,21.587280000000003,21.668629125000002,60.0,94.0
79,21.825375,21.910692375000004,65.0,113.0
80,21.825375,21.912676500000003,60.0,102.0
81,21.825375,21.926565375000003,69.0,102.0
82,22.301565000000004,22.597199625000002,41.0,102.0
83,22.53966,22.772794687500003,60.0,107.0
84,22.777755000000003,22.896802500000003,42.0,80.0
85,22.53966,22.948389750000004,69.0,108.0
86,22.53966,22.974183375000003,65.0,114.0
87,23.015850000000004,23.472198750000004,43.0,107.0
88,23.492040000000003,23.575373250000002,71.0,100.0
89,23.492040000000003,23.578349437500002,67.0,113.0
90,23.492040000000003,23.5803335625,62.0,107.0
91,23.730135000000004,23.991047437500004,62.0,107.0
92,23.730135000000004,24.013864875000003,67.0,114.0
93,23.730135000000004,24.063468000000004,71.0,93.0
94,24.206325000000003,24.427554937500002,43.0,102.0
95,24.44442,24.812475187500002,50.0,102.0
96,24.682515000000002,24.936483000000003,67.0,110.0
97,24.682515000000002,24.938467125000003,62.0,104.0
98,24.682515000000002,24.9612845625,71.0,94.0
99,24.920610000000003,25.342236562500002,43.0,116.0
100,25.396800000000002,25.470212625000002,67.0,100.0
101,25.396800000000002,25.4870776875,62.0,91.0
102,25.396800000000002,25.515847500000003,71.0,91.0
103,25.634895000000004,25.798585312500002,43.0,114.0
104,25.87299,26.267830875,45.0,110.0
105,26.349180000000004,26.646798750000002,47.0,110.0
106,27.301560000000002,27.365052000000002,67.0,107.0
107,27.301560000000002,27.3759646875,64.0,100.0
108,27.301560000000002,27.386877375000005,72.0,93.0
109,26.825370000000003,27.390845625000004,48.0,107.0
110,27.539655000000003,27.756916687500002,67.0,114.0
111,27.539655000000003,27.7668373125,64.0,107.0
112,27.539655000000003,27.778742062500005,72.0,98.0
113,27.658702500000004,28.204336875000003,55.0,93.0
114,28.492035,28.729137937500003,43.0,96.0
115,28.253940000000004,28.764852187500004,67.0,107.0
116,28.253940000000004,28.776756937500004,72.0,92.0
117,28.253940000000004,28.786677562500003,64.0,96.0
118,28.730130000000003,29.189454937500003,48.0,107.0
119,29.20632,29.513859375000003,67.0,110.0
120,29.20632,29.514851437500003,64.0,104.0
121,29.20632,29.517827625000002,72.0,93.0
122,29.920605000000002,30.177549187500002,48.0,98.0
123,30.158700000000003,30.541636125000004,72.0,93.0
124,30.158700000000003,30.545604375000003,67.0,114.0
125,30.158700000000003,30.556517062500003,64.0,107.0
126,30.634890000000002,31.1676275625,45.0,100.0
127,31.111080000000005,31.181516437500004,69.0,113.0
128,31.111080000000005,31.185484687500004,64.0,107.0
129,31.111080000000005,31.209294187500003,72.0,93.0
130,31.349175000000002,31.399770187500003,72.0,85.0
131,31.349175000000002,31.422587625000002,64.0,98.0
132,31.349175000000002,31.4295320625,69.0,102.0
133,32.063460000000006,32.31345975000001,52.0,107.0
134,32.301555,32.4831024375,43.0,84.0
135,32.53965,32.8858798125,45.0,107.0
136,33.015840000000004,33.07536375,69.0,113.0
137,33.015840000000004,33.081316125,72.0,96.0
138,33.015840000000004,33.085284375,64.0,104.0
139,33.253935000000006,33.408696750000004,64.0,108.0
140,33.253935000000006,33.410680875000004,69.0,116.0
141,33.253935000000006,33.4176253125,72.0,100.0
142,33.730125,34.006910437500004,45.0,92.0
143,33.96822,34.243021312500005,64.0,114.0
144,33.96822,34.256910187500004,69.0,119.0
145,33.96822,34.2618705,72.0,104.0
146,34.444410000000005,34.8402429375,41.0,108.0
147,34.9206,34.99103643750001,69.0,94.0
148,34.9206,34.994012625,65.0,107.0
149,34.9206,35.001949125,60.0,102.0
150,35.158695,35.382901125000004,60.0,107.0
151,35.158695,35.406710625,69.0,104.0
152,35.158695,35.419607437500005,65.0,114.0
153,35.634885000000004,35.870995875000006,41.0,102.0
154,35.872980000000005,36.1557178125,48.0,110.0
155,36.11107500000001,36.360082687500004,60.0,94.0
156,36.11107500000001,36.3660350625,65.0,104.0
157,36.11107500000001,36.37297950000001,69.0,94.0
158,36.34917,36.797582250000005,41.0,104.0
159,36.82536,36.89083612500001,65.0,108.0
160,36.82536,36.89083612500001,69.0,100.0
161,36.82536,36.906709125000006,60.0,94.0
162,37.063455000000005,37.14877237500001,65.0,113.0
163,37.063455000000005,37.15075650000001,60.0,102.0
164,37.063455000000005,37.164645375000006,69.0,102.0
165,37.53964500000001,37.835279625000005,41.0,102.0
166,37.77774,38.01087468750001,60.0,107.0
167,38.015835,38.1348825,42.0,80.0
168,37.77774,38.18646975,69.0,108.0
169,37.77774,38.212263375000006,65.0,114.0
170,38.253930000000004,38.71027875000001,43.0,107.0
171,38.73012000000001,38.81345325,71.0,100.0
172,38.73012000000001,38.816429437500005,67.0,113.0
173,38.73012000000001,38.818413562500005,62.0,107.0
174,38.968215,39.229127437500004,62.0,107.0
175,38.968215,39.25194487500001,67.0,114.0
176,38.968215,39.301548000000004,71.0,93.0
177,39.444405,39.6656349375,43.0,102.0
178,39.682500000000005,40.0505551875,50.0,102.0
179,39.920595000000006,40.174563000000006,67.0,110.0
180,39.920595000000006,40.176547125000006,62.0,104.0
181,39.920595000000006,40.1993645625,71.0,94.0
182,40.63488,40.6993640625,67.0,108.0
183,40.63488,40.7073005625,72.0,93.0
184,40.63488,40.718213250000005,64.0,100.0
185,40.15869000000001,40.86603056250001,48.0,94.0
186,40.872975000000004,40.9850780625,67.0,113.0
187,40.872975000000004,40.99698281250001,72.0,98.0
188,40.872975000000004,41.01285581250001,64.0,104.0
189,41.111070000000005,41.65372818750001,55.0,91.0
190,41.58726000000001,41.682498,67.0,110.0
191,41.58726000000001,41.692418625,64.0,102.0
192,41.58726000000001,41.705315437500005,72.0,100.0
193,44.32535250000001,44.3779318125,67.0,108.0
194,44.32535250000001,44.394796875000004,64.0,89.0
195,44.32535250000001,44.398765125000004,72.0,91.0
196,43.968210000000006,44.799558375000004,48.0,102.0
197,45.158685000000006,45.420589500000006,48.0,110.0
198,44.682495,45.43547043750001,72.0,108.0
199,44.682495,45.45531168750001,64.0,108.0
200,44.682495,45.476145,67.0,117.0
201,45.39678000000001,45.825351000000005,55.0,102.0
202,45.63487500000001,46.017811125,72.0,98.0
203,45.63487500000001,46.04955712500001,64.0,102.0
204,45.63487500000001,46.0505491875,67.0,110.0
205,46.230112500000004,46.276739437500005,67.0,98.0
206,46.230112500000004,46.28765212500001,72.0,88.0
207,46.230112500000004,46.294596562500004,64.0,90.0
208,45.87297,46.7271358125,48.0,102.0
209,46.587255000000006,47.33527012500001,72.0,102.0
210,46.587255000000006,47.352135187500004,64.0,110.0
211,47.063445,47.35907962500001,48.0,110.0
212,46.587255000000006,47.35907962500001,67.0,117.0
213,47.30154,47.779714125000005,55.0,110.0
214,47.539635000000004,47.894793375000006,72.0,93.0
215,47.539635000000004,47.9037219375,67.0,113.0
216,47.539635000000004,47.906698125000005,64.0,104.0
217,48.13487250000001,48.19340418750001,69.0,104.0
218,48.13487250000001,48.196380375000004,72.0,90.0
219,48.13487250000001,48.20332481250001,64.0,93.0
220,47.777730000000005,48.59419743750001,45.0,116.0
221,48.968205000000005,49.23705393750001,45.0,104.0
222,48.492015,49.26086343750001,72.0,108.0
223,48.492015,49.271776125,64.0,110.0
224,48.492015,49.274752312500006,69.0,116.0
225,49.206300000000006,49.6745535,52.0,110.0
226,49.44439500000001,49.70828362500001,72.0,94.0
227,49.44439500000001,49.728124875000006,64.0,100.0
228,49.44439500000001,49.7311010625,69.0,108.0
229,50.0396325,50.094195937500004,67.0,108.0
230,50.0396325,50.1061006875,62.0,96.0
231,50.0396325,50.1100689375,71.0,96.0
232,49.68249000000001,50.584274812500006,43.0,110.0
233,50.396775000000005,50.95133793750001,62.0,110.0
234,50.396775000000005,50.9602665,67.0,114.0
235,50.396775000000005,50.96125856250001,71.0,104.0
236,50.87296500000001,51.188440875000005,43.0,114.0
237,51.349155,51.5426071875,43.0,100.0
238,51.11106,51.601138875000004,62.0,110.0
239,51.11106,51.620980125,67.0,113.0
240,51.11106,51.63090075,71.0,98.0
241,51.587250000000004,52.10213043750001,41.0,113.0
242,52.30153500000001,52.425542812500005,41.0,108.0
243,52.06344000000001,52.775740875000004,72.0,98.0
244,52.06344000000001,52.81343925000001,69.0,114.0
245,52.06344000000001,52.824351937500005,65.0,100.0
246,52.777725000000004,53.09518500000001,41.0,114.0
247,53.253915000000006,53.39974818750001,41.0,104.0
248,53.015820000000005,53.53070043750001,65.0,104.0
249,53.015820000000005,53.541613125000005,72.0,102.0
250,53.015820000000005,53.56046231250001,69.0,116.0
251,53.49201000000001,53.99200950000001,43.0,113.0
252,54.206295000000004,54.47514393750001,43.0,114.0
253,53.9682,54.714231000000005,71.0,100.0
254,53.9682,54.720183375000005,62.0,100.0
255,53.9682,54.730104000000004,67.0,108.0
256,54.68248500000001,55.024746562500006,43.0,114.0
257,55.158675,55.27474631250001,43.0,92.0
258,54.92058000000001,55.529706375,71.0,98.0
259,54.92058000000001,55.541611125,67.0,108.0
260,54.92058000000001,55.62593643750001,62.0,108.0
261,55.753912500000006,55.95827737500001,71.0,90.0
262,55.753912500000006,55.967205937500005,62.0,90.0
263,55.753912500000006,55.981094812500004,67.0,91.0
264,55.396770000000004,56.32236431250001,43.0,110.0
265,56.11105500000001,56.61899100000001,71.0,104.0
266,56.11105500000001,56.62097512500001,67.0,114.0
267,56.11105500000001,56.621967187500005,62.0,108.0
268,56.587245,56.948355750000005,43.0,108.0
269,56.825340000000004,57.755894625,62.0,104.0
270,56.825340000000004,57.761847,71.0,100.0
271,56.825340000000004,57.790616812500005,67.0,114.0
272,57.77772000000001,58.003910250000004,55.0,80.0
273,57.53962500000001,58.0862514375,50.0,88.0
274,57.30153000000001,58.144783125000004,43.0,110.0
275,58.015815,58.533671625000004,67.0,116.0
276,58.015815,58.533671625000004,71.0,107.0
277,58.015815,58.53664781250001,62.0,113.0
278,58.492005000000006,58.797560250000004,43.0,113.0
279,58.96819500000001,59.069385375,43.0,108.0
280,58.73010000000001,59.17355193750001,62.0,114.0
281,58.73010000000001,59.20827412500001,67.0,116.0
282,58.73010000000001,59.225139187500005,71.0,104.0
283,59.20629000000001,59.67156731250001,48.0,114.0
284,59.92057500000001,60.02970187500001,48.0,108.0
285,60.39676500000001,60.64180443750001,48.0,110.0
286,59.682480000000005,60.70430437500001,72.0,102.0
287,59.682480000000005,60.710256750000006,67.0,114.0
288,59.682480000000005,60.718193250000006,64.0,108.0
289,60.63486,61.0941849375,55.0,108.0
290,60.872955000000005,61.31739900000001,72.0,108.0
291,60.872955000000005,61.32533550000001,67.0,116.0
292,60.872955000000005,61.338232312500004,64.0,110.0
293,61.46819250000001,61.51481943750001,67.0,107.0
294,61.46819250000001,61.533668625000004,72.0,92.0
295,61.46819250000001,61.53466068750001,64.0,98.0
296,61.111050000000006,61.92156506250001,48.0,107.0
297,62.301525000000005,62.553508875000006,48.0,110.0
298,61.82533500000001,62.587239000000004,72.0,107.0
299,61.82533500000001,62.593191375,67.0,117.0
300,61.82533500000001,62.59815168750001,64.0,113.0
301,62.539620000000006,62.96124656250001,55.0,117.0
302,62.77771500000001,63.18644475000001,72.0,100.0
303,62.77771500000001,63.206286000000006,64.0,110.0
304,62.77771500000001,63.210254250000006,67.0,117.0
305,63.372952500000004,63.431484187500004,69.0,110.0
306,63.372952500000004,63.43446037500001,72.0,91.0
307,63.372952500000004,63.4453730625,64.0,96.0
308,63.01581000000001,63.90072975,45.0,108.0
309,64.20628500000001,64.45628475000001,45.0,108.0
310,63.730095000000006,64.52572912500001,72.0,102.0
311,63.730095000000006,64.53763387500001,69.0,116.0
312,63.730095000000006,64.54061006250001,64.0,110.0
313,64.44438000000001,64.88882400000001,52.0,114.0
314,64.68247500000001,65.0148159375,64.0,113.0
315,64.68247500000001,65.015808,69.0,116.0
316,64.68247500000001,65.02572862500001,72.0,107.0
317,64.92057000000001,65.29755375,43.0,110.0
318,65.2777125,65.4096568125,67.0,102.0
319,65.2777125,65.422553625,71.0,94.0
320,65.2777125,65.4255298125,62.0,98.0
321,66.111045,66.35906062500001,43.0,110.0
322,65.634855,66.4453700625,71.0,110.0
323,65.634855,66.45132243750001,62.0,113.0
324,65.634855,66.45628275000001,67.0,116.0
325,66.34914,66.7925919375,50.0,116.0
326,66.587235,66.91461562500001,62.0,110.0
327,66.587235,66.92453625,67.0,113.0
328,66.587235,66.9493378125,71.0,96.0
329,67.06342500000001,67.13286937500001,60.0,91.0
330,67.06342500000001,67.1348535,65.0,108.0
331,67.06342500000001,67.1497344375,69.0,98.0
332,66.82533000000001,67.66858312500001,41.0,107.0
333,67.53961500000001,68.07136050000001,65.0,116.0
334,67.53961500000001,68.0723525625,60.0,110.0
335,67.53961500000001,68.07830493750001,69.0,108.0
336,68.015805,68.327312625,41.0,110.0
337,68.491995,68.61203456250001,41.0,100.0
338,68.2539,68.69933606250001,60.0,110.0
339,68.2539,68.745963,65.0,114.0
340,68.2539,68.74993125,69.0,107.0
341,68.73009,69.2171926875,43.0,108.0
342,69.44437500000001,69.624930375,43.0,110.0
343,69.20628,69.94933481250001,71.0,104.0
344,69.20628,69.95231100000001,67.0,107.0
345,69.20628,69.96123956250001,62.0,107.0
346,69.92056500000001,70.30250906250001,43.0,113.0
347,70.15866000000001,70.82234981250001,71.0,108.0
348,70.15866000000001,70.83227043750001,67.0,116.0
349,70.15866000000001,70.83921487500001,62.0,110.0
350,70.872945,70.93246875000001,67.0,113.0
351,70.872945,70.93941318750001,62.0,104.0
352,70.872945,70.942389375,71.0,104.0
353,70.63485000000001,71.36004768750001,43.0,110.0
354,71.58723,71.8402059375,43.0,108.0
355,71.349135,71.85111862500001,71.0,110.0
356,71.349135,71.8560789375,62.0,113.0
357,71.349135,71.86203131250001,67.0,117.0
358,71.825325,72.21421350000001,50.0,116.0
359,72.06342000000001,72.46718943750001,62.0,114.0
360,72.06342000000001,72.56837981250001,71.0,113.0
361,72.30151500000001,72.5703639375,43.0,100.0
362,72.06342000000001,72.577308375,67.0,114.0
363,72.8967525,72.94833975,67.0,108.0
364,72.8967525,72.96322068750001,64.0,100.0
365,72.8967525,72.98405400000001,72.0,91.0
366,72.53961000000001,73.4235376875,48.0,116.0
367,73.730085,73.97810062500001,48.0,108.0
368,73.25389500000001,74.01083868750001,67.0,116.0
369,73.25389500000001,74.0128228125,72.0,108.0
370,73.25389500000001,74.0247275625,64.0,113.0
371,73.96818,74.41758431250001,55.0,104.0
372,74.206275,74.4364335,67.0,113.0
373,74.206275,74.4394096875,64.0,107.0
374,74.206275,74.46520331250001,72.0,98.0
375,74.44437,74.7866315625,45.0,81.0
376,74.92056000000001,75.16758356250001,60.0,81.0
377,74.92056000000001,75.16758356250001,64.0,81.0
378,74.92056000000001,75.2092501875,69.0,81.0
379,75.15865500000001,75.24397237500001,45.0,81.0
380,75.39675000000001,75.777702,45.0,82.0
381,75.87294000000001,76.180479375,64.0,82.0
382,75.87294000000001,76.19139206250001,60.0,82.0
383,75.87294000000001,76.19139206250001,69.0,82.0
384,76.111035,76.23008250000001,45.0,82.0
385,76.34913,76.6913915625,45.0,83.0
386,76.82532,77.07234356250001,60.0,83.0
387,76.82532,77.07234356250001,64.0,83.0
388,76.82532,77.11401018750001,69.0,83.0
389,77.063415,77.14873237500001,45.0,83.0
390,77.30151000000001,77.68246200000002,45.0,83.0
391,77.77770000000001,78.08523937500001,64.0,83.0
392,77.77770000000001,78.09615206250001,60.0,83.0
393,77.77770000000001,78.09615206250001,69.0,83.0
394,78.25389000000001,78.59615156250001,45.0,83.0
395,78.73008000000002,78.9771035625,60.0,83.0
396,78.73008000000002,78.9771035625,64.0,83.0
397,78.73008000000002,79.01877018750001,69.0,83.0
398,78.968175,79.053492375,45.0,83.0
399,79.20627,79.58722200000001,45.0,83.0
400,79.68246,79.98999937500001,64.0,83.0
401,79.68246,80.0009120625,60.0,83.0
402,79.68246,80.0009120625,69.0,83.0
403,79.92055500000001,80.03960250000002,45.0,83.0
404,80.15865000000001,80.50091156250001,45.0,83.0
405,80.63484000000001,80.88186356250002,60.0,84.0
406,80.63484000000001,80.88186356250002,64.0,84.0
407,80.63484000000001,80.9235301875,69.0,84.0
408,80.87293500000001,80.95825237500001,45.0,85.0
409,81.11103000000001,81.49198200000001,45.0,85.0
410,81.58722,81.894759375,64.0,85.0
411,81.58722,81.9056720625,60.0,85.0
412,81.58722,81.9056720625,69.0,85.0
413,81.825315,81.94436250000001,45.0,85.0
414,82.53960000000001,82.603092,67.0,107.0
415,82.53960000000001,82.61400468750001,64.0,100.0
416,82.53960000000001,82.62491737500001,72.0,93.0
417,82.06341,82.62888562500001,48.0,85.0
418,82.77769500000001,82.99495668750001,67.0,114.0
419,82.77769500000001,83.00487731250001,64.0,107.0
420,82.77769500000001,83.01678206250001,72.0,98.0
421,82.8967425,83.44237687500001,55.0,93.0
422,83.73007500000001,83.96717793750001,43.0,96.0
423,83.49198000000001,84.00289218750001,67.0,107.0
424,83.49198000000001,84.01479693750001,72.0,92.0
425,83.49198000000001,84.02471756250002,64.0,96.0
426,83.96817000000001,84.42749493750001,48.0,107.0
427,84.44436,84.75189937500001,67.0,110.0
428,84.44436,84.75289143750001,64.0,104.0
429,84.44436,84.75586762500001,72.0,93.0
430,85.158645,85.4155891875,48.0,98.0
431,85.39674000000001,85.77967612500001,72.0,93.0
432,85.39674000000001,85.78364437500001,67.0,114.0
433,85.39674000000001,85.7945570625,64.0,107.0
434,85.87293000000001,86.40566756250001,45.0,100.0
435,86.34912000000001,86.4195564375,69.0,113.0
436,86.34912000000001,86.4235246875,64.0,107.0
437,86.34912000000001,86.4473341875,72.0,93.0
438,86.58721500000001,86.63781018750001,72.0,85.0
439,86.58721500000001,86.660627625,64.0,98.0
440,86.58721500000001,86.66757206250001,69.0,102.0
441,87.3015,87.55149975,52.0,107.0
442,87.539595,87.7211424375,43.0,84.0
443,87.77769,88.1239198125,45.0,107.0
444,88.25388000000001,88.31340375,69.0,113.0
445,88.25388000000001,88.31935612500001,72.0,96.0
446,88.25388000000001,88.32332437500001,64.0,104.0
447,88.49197500000001,88.64673675000002,64.0,108.0
448,88.49197500000001,88.64872087500001,69.0,116.0
449,88.49197500000001,88.6556653125,72.0,100.0
450,88.96816500000001,89.24495043750001,45.0,92.0
451,89.20626000000001,89.4810613125,64.0,114.0
452,89.20626000000001,89.49495018750001,69.0,119.0
453,89.20626000000001,89.49991050000001,72.0,104.0
454,89.68245,90.0782829375,41.0,108.0
455,90.15864,90.22907643750001,69.0,94.0
456,90.15864,90.23205262500001,65.0,107.0
457,90.15864,90.23998912500001,60.0,102.0
458,90.396735,90.62094112500002,60.0,107.0
459,90.396735,90.64475062500001,69.0,104.0
460,90.396735,90.6576474375,65.0,114.0
461,90.87292500000001,91.109035875,41.0,102.0
462,91.11102000000001,91.39375781250001,48.0,110.0
463,91.34911500000001,91.59812268750001,60.0,94.0
464,91.34911500000001,91.60407506250002,65.0,104.0
465,91.34911500000001,91.61101950000001,69.0,94.0
466,91.58721000000001,92.03562225,41.0,104.0
467,92.06340000000002,92.128876125,65.0,108.0
468,92.06340000000002,92.128876125,69.0,100.0
469,92.06340000000002,92.144749125,60.0,94.0
470,92.301495,92.386812375,65.0,113.0
471,92.301495,92.38879650000001,60.0,102.0
472,92.301495,92.402685375,69.0,102.0
473,92.777685,93.07331962500001,41.0,102.0
474,93.01578,93.2489146875,60.0,107.0
475,93.25387500000001,93.37292250000002,42.0,80.0
476,93.01578,93.42450975000001,69.0,108.0
477,93.01578,93.450303375,65.0,114.0
478,93.49197000000001,93.94831875000001,43.0,107.0
479,93.96816000000001,94.05149325000001,71.0,100.0
480,93.96816000000001,94.0544694375,67.0,113.0
481,93.96816000000001,94.05645356250001,62.0,107.0
482,94.20625500000001,94.46716743750001,62.0,107.0
483,94.20625500000001,94.489984875,67.0,114.0
484,94.20625500000001,94.53958800000001,71.0,93.0
485,94.68244500000002,94.90367493750001,43.0,102.0
486,94.92054000000002,95.28859518750001,50.0,102.0
487,95.158635,95.412603,67.0,110.0
488,95.158635,95.41458712500001,62.0,104.0
489,95.158635,95.4374045625,71.0,94.0
490,95.39673,95.81835656250001,43.0,116.0
491,95.87292000000001,95.94633262500001,67.0,100.0
492,95.87292000000001,95.96319768750001,62.0,91.0
493,95.87292000000001,95.99196750000002,71.0,91.0
494,96.11101500000001,96.2747053125,43.0,114.0
495,96.34911000000001,96.74395087500001,45.0,110.0
496,96.82530000000001,97.12291875000001,47.0,110.0
497,97.77768,97.84117200000001,67.0,107.0
498,97.77768,97.85208468750001,64.0,100.0
499,97.77768,97.862997375,72.0,93.0
500,97.30149000000002,97.866965625,48.0,107.0
501,98.015775,98.2330366875,67.0,114.0
502,98.015775,98.24295731250001,64.0,107.0
503,98.015775,98.25486206250001,72.0,98.0
504,98.25387,98.56140937500001,55.0,93.0
505,98.96815500000001,99.20525793750001,43.0,96.0
506,98.73006000000001,99.2409721875,67.0,107.0
507,98.73006000000001,99.2528769375,72.0,92.0
508,98.73006000000001,99.26279756250001,64.0,96.0
509,99.20625000000001,99.66557493750001,48.0,107.0
510,99.68244000000001,99.989979375,67.0,110.0
511,99.68244000000001,99.99097143750001,64.0,104.0
512,99.68244000000001,99.993947625,72.0,93.0
513,100.39672500000002,100.65366918750001,48.0,98.0
514,100.63482,101.017756125,72.0,93.0
515,100.63482,101.021724375,67.0,114.0
516,100.63482,101.03263706250002,64.0,107.0
517,101.11101000000001,101.64374756250001,45.0,100.0
518,101.58720000000001,101.65763643750002,69.0,113.0
519,101.58720000000001,101.66160468750002,64.0,107.0
520,101.58720000000001,101.68541418750002,72.0,93.0
521,101.82529500000001,101.8758901875,72.0,85.0
522,101.82529500000001,101.89870762500001,64.0,98.0
523,101.82529500000001,101.90565206250001,69.0,102.0
524,102.53958000000002,102.78957975000002,52.0,107.0
525,102.77767500000002,102.95922243750002,43.0,84.0
526,103.01577000000002,103.36199981250002,45.0,107.0
527,103.49196,103.55148375000002,69.0,113.0
528,103.49196,103.55743612500001,72.0,96.0
529,103.49196,103.56140437500001,64.0,104.0
530,103.73005500000001,103.88481675000001,64.0,108.0
531,103.73005500000001,103.886800875,69.0,116.0
532,103.73005500000001,103.89374531250002,72.0,100.0
533,104.20624500000001,104.4830304375,45.0,92.0
534,104.44434000000001,104.71914131250001,64.0,114.0
535,104.44434000000001,104.7330301875,69.0,119.0
536,104.44434000000001,104.73799050000001,72.0,104.0
537,104.92053000000001,105.31636293750002,41.0,108.0
538,105.39672000000002,105.46715643750001,69.0,94.0
539,105.39672000000002,105.470132625,65.0,107.0
540,105.39672000000002,105.478069125,60.0,102.0
541,105.63481500000002,105.85902112500001,60.0,107.0
542,105.63481500000002,105.88283062500001,69.0,104.0
543,105.63481500000002,105.89572743750001,65.0,114.0
544,106.111005,106.34711587500001,41.0,102.0
545,106.3491,106.63183781250001,48.0,110.0
546,106.58719500000001,106.8362026875,60.0,94.0
547,106.58719500000001,106.84215506250001,65.0,104.0
548,106.58719500000001,106.84909950000001,69.0,94.0
549,106.82529000000001,107.27370225000001,41.0,104.0
550,107.30148000000001,107.36695612500002,65.0,108.0
551,107.30148000000001,107.36695612500002,69.0,100.0
552,107.30148000000001,107.38282912500001,60.0,94.0
553,107.53957500000001,107.62489237500002,65.0,113.0
554,107.53957500000001,107.62687650000001,60.0,102.0
555,107.53957500000001,107.64076537500002,69.0,102.0
556,108.01576500000002,108.311399625,41.0,102.0
557,108.25386000000002,108.48699468750002,60.0,107.0
558,108.49195500000002,108.61100250000001,42.0,80.0
559,108.25386000000002,108.66258975000001,69.0,108.0
560,108.25386000000002,108.68838337500002,65.0,114.0
561,108.73005,109.18639875000001,43.0,107.0
562,109.20624000000001,109.28957325000002,71.0,100.0
563,109.20624000000001,109.29254943750001,67.0,113.0
564,109.20624000000001,109.2945335625,62.0,107.0
565,109.44433500000001,109.7052474375,62.0,107.0
566,109.44433500000001,109.72806487500002,67.0,114.0
567,109.44433500000001,109.777668,71.0,93.0
568,109.92052500000001,110.14175493750001,43.0,102.0
569,110.15862000000001,110.52667518750002,50.0,102.0
570,110.39671500000001,110.65068300000001,67.0,110.0
571,110.39671500000001,110.65266712500001,62.0,104.0
572,110.39671500000001,110.67548456250002,71.0,94.0
573,111.11100000000002,111.17548406250002,67.0,108.0
574,111.11100000000002,111.18342056250002,72.0,93.0
575,111.11100000000002,111.19433325000001,64.0,100.0
576,110.63481000000002,111.34215056250001,48.0,94.0
577,111.349095,111.46119806250002,67.0,113.0
578,111.349095,111.47310281250002,72.0,98.0
579,111.349095,111.48897581250002,64.0,104.0
580,111.58719,112.12984818750002,55.0,91.0
581,112.06338000000001,112.15861800000002,67.0,110.0
582,112.06338000000001,112.16853862500001,64.0,102.0
583,112.06338000000001,112.18143543750001,72.0,100.0
584,114.80147250000002,114.85405181250002,67.0,108.0
585,114.80147250000002,114.870916875,64.0,89.0
586,114.80147250000002,114.874885125,72.0,91.0
587,114.44433000000001,115.27567837500001,48.0,102.0
588,115.63480500000001,115.89670950000001,48.0,110.0
589,115.15861500000001,115.91159043750001,72.0,108.0
590,115.15861500000001,115.93143168750001,64.0,108.0
591,115.15861500000001,115.95226500000001,67.0,117.0
592,115.87290000000002,116.301471,55.0,102.0
593,116.11099500000002,116.49393112500002,72.0,98.0
594,116.11099500000002,116.52567712500002,64.0,102.0
595,116.11099500000002,116.52666918750002,67.0,110.0
596,116.70623250000001,116.7528594375,67.0,98.0
597,116.70623250000001,116.76377212500002,72.0,88.0
598,116.70623250000001,116.77071656250001,64.0,90.0
599,116.34909000000002,117.20325581250002,48.0,102.0
600,117.06337500000001,117.81139012500002,72.0,102.0
601,117.06337500000001,117.82825518750002,64.0,110.0
602,117.53956500000001,117.83519962500002,48.0,110.0
603,117.06337500000001,117.83519962500002,67.0,117.0
604,117.77766000000001,118.255834125,55.0,110.0
605,118.01575500000001,118.37091337500001,72.0,93.0
606,118.01575500000001,118.37984193750002,67.0,113.0
607,118.01575500000001,118.38281812500001,64.0,104.0
608,118.61099250000001,118.66952418750002,69.0,104.0
609,118.61099250000001,118.67250037500001,72.0,90.0
610,118.61099250000001,118.67944481250001,64.0,93.0
611,118.25385000000001,119.07031743750001,45.0,116.0
612,119.444325,119.71317393750002,45.0,104.0
613,118.96813500000002,119.73698343750002,72.0,108.0
614,118.96813500000002,119.74789612500001,64.0,110.0
615,118.96813500000002,119.75087231250001,69.0,116.0
616,119.68242000000001,120.15067350000001,52.0,110.0
617,119.92051500000001,120.18440362500002,72.0,94.0
618,119.92051500000001,120.20424487500001,64.0,100.0
619,119.92051500000001,120.20722106250001,69.0,108.0
620,120.51575250000002,120.57031593750001,67.0,108.0
621,120.51575250000002,120.58222068750001,62.0,96.0
622,120.51575250000002,120.58618893750001,71.0,96.0
623,120.15861000000001,121.06039481250001,43.0,110.0
624,120.87289500000001,121.42745793750001,62.0,110.0
625,120.87289500000001,121.43638650000001,67.0,114.0
626,120.87289500000001,121.43737856250002,71.0,104.0
627,121.34908500000002,121.664560875,43.0,114.0
628,121.82527500000002,122.01872718750002,43.0,100.0
629,121.58718000000002,122.07725887500001,62.0,110.0
630,121.58718000000002,122.09710012500001,67.0,113.0
631,121.58718000000002,122.10702075000002,71.0,98.0
632,122.06337,122.57825043750002,41.0,113.0
633,122.77765500000001,122.9016628125,41.0,108.0
634,122.53956000000001,123.25186087500002,72.0,98.0
635,122.53956000000001,123.28955925000001,69.0,114.0
636,122.53956000000001,123.3004719375,65.0,100.0
637,123.25384500000001,123.57130500000001,41.0,114.0
638,123.73003500000002,123.87586818750002,41.0,104.0
639,123.49194000000001,124.00682043750001,65.0,104.0
640,123.49194000000001,124.017733125,72.0,102.0
641,123.49194000000001,124.03658231250002,69.0,116.0
642,123.96813000000002,124.46812950000002,43.0,113.0
643,124.68241500000002,124.95126393750002,43.0,114.0
644,124.44432000000002,125.190351,71.0,100.0
645,124.44432000000002,125.19630337500001,62.0,100.0
646,124.44432000000002,125.20622400000002,67.0,108.0
647,125.15860500000001,125.50086656250001,43.0,114.0
648,125.63479500000001,125.75086631250001,43.0,92.0
649,125.39670000000001,126.00582637500001,71.0,98.0
650,125.39670000000001,126.01773112500001,67.0,108.0
651,125.39670000000001,126.10205643750001,62.0,108.0
652,126.23003250000001,126.43439737500002,71.0,90.0
653,126.23003250000001,126.44332593750002,62.0,90.0
654,126.23003250000001,126.45721481250001,67.0,91.0
655,125.87289000000001,126.79848431250001,43.0,110.0
656,126.58717500000002,127.09511100000002,71.0,104.0
657,126.58717500000002,127.09709512500001,67.0,114.0
658,126.58717500000002,127.09808718750001,62.0,108.0
659,127.06336500000002,127.42447575000001,43.0,108.0
660,127.30146000000002,128.232014625,62.0,104.0
661,127.30146000000002,128.23796700000003,71.0,100.0
662,127.30146000000002,128.2667368125,67.0,114.0
663,128.25384000000003,128.48003025000003,55.0,80.0
664,128.015745,128.56237143750002,50.0,88.0
665,127.77765000000001,128.620903125,43.0,110.0
666,128.491935,129.00979162500002,67.0,116.0
667,128.491935,129.00979162500002,71.0,107.0
668,128.491935,129.01276781250002,62.0,113.0
669,128.96812500000001,129.27368025,43.0,113.0
670,129.44431500000002,129.545505375,43.0,108.0
671,129.20622,129.64967193750002,62.0,114.0
672,129.20622,129.684394125,67.0,116.0
673,129.20622,129.7012591875,71.0,104.0
674,129.68241,130.1476873125,48.0,114.0
675,130.39669500000002,130.505821875,48.0,108.0
676,130.87288500000003,131.11792443750002,48.0,110.0
677,130.1586,131.180424375,72.0,102.0
678,130.1586,131.18637675000002,67.0,114.0
679,130.1586,131.19431325000002,64.0,108.0
680,131.11098,131.57030493750003,55.0,108.0
681,131.34907500000003,131.793519,72.0,108.0
682,131.34907500000003,131.8014555,67.0,116.0
683,131.34907500000003,131.8143523125,64.0,110.0
684,131.94431250000002,131.9909394375,67.0,107.0
685,131.94431250000002,132.00978862500003,72.0,92.0
686,131.94431250000002,132.01078068750002,64.0,98.0
687,131.58717000000001,132.39768506250002,48.0,107.0
688,132.777645,133.02962887500001,48.0,110.0
689,132.301455,133.06335900000002,72.0,107.0
690,132.301455,133.069311375,67.0,117.0
691,132.301455,133.07427168750002,64.0,113.0
692,133.01574000000002,133.43736656250002,55.0,117.0
693,133.253835,133.66256475,72.0,100.0
694,133.253835,133.68240600000001,64.0,110.0
695,133.253835,133.68637425,67.0,117.0
696,133.8490725,133.90760418750003,69.0,110.0
697,133.8490725,133.91058037500002,72.0,91.0
698,133.8490725,133.92149306250002,64.0,96.0
699,133.49193000000002,134.37684975000002,45.0,108.0
700,134.68240500000002,134.93240475000002,45.0,108.0
701,134.20621500000001,135.001849125,72.0,102.0
702,134.20621500000001,135.01375387500002,69.0,116.0
703,134.20621500000001,135.01673006250002,64.0,110.0
704,134.9205,135.364944,52.0,114.0
705,135.15859500000002,135.4909359375,64.0,113.0
706,135.15859500000002,135.491928,69.0,116.0
707,135.15859500000002,135.501848625,72.0,107.0
708,135.39669,135.77367375,43.0,110.0
709,135.75383250000002,135.8857768125,67.0,102.0
710,135.75383250000002,135.89867362500001,71.0,94.0
711,135.75383250000002,135.9016498125,62.0,98.0
712,136.58716500000003,136.83518062500002,43.0,110.0
713,136.11097500000002,136.92149006250003,71.0,110.0
714,136.11097500000002,136.92744243750002,62.0,113.0
715,136.11097500000002,136.93240275000002,67.0,116.0
716,136.82526000000001,137.2687119375,50.0,116.0
717,137.063355,137.39073562500002,62.0,110.0
718,137.063355,137.40065625000003,67.0,113.0
719,137.063355,137.4254578125,71.0,96.0
720,137.539545,137.60898937500002,60.0,91.0
721,137.539545,137.61097350000003,65.0,108.0
722,137.539545,137.6258544375,69.0,98.0
723,137.30145000000002,138.144703125,41.0,107.0
724,138.015735,138.5474805,65.0,116.0
725,138.015735,138.54847256250002,60.0,110.0
726,138.015735,138.55442493750002,69.0,108.0
727,138.491925,138.80343262500003,41.0,110.0
728,138.968115,139.08815456250002,41.0,100.0
729,138.73002000000002,139.17545606250002,60.0,110.0
730,138.73002000000002,139.22208300000003,65.0,114.0
731,138.73002000000002,139.22605125,69.0,107.0
732,139.20621000000003,139.69331268750003,43.0,108.0
733,139.92049500000002,140.10105037500003,43.0,110.0
734,139.6824,140.42545481250002,71.0,104.0
735,139.6824,140.42843100000002,67.0,107.0
736,139.6824,140.4373595625,62.0,107.0
737,140.39668500000002,140.77862906250002,43.0,113.0
738,140.63478,141.2984698125,71.0,108.0
739,140.63478,141.3083904375,67.0,116.0
740,140.63478,141.31533487500002,62.0,110.0
741,141.34906500000002,141.40858875,67.0,113.0
742,141.34906500000002,141.41553318750002,62.0,104.0
743,141.34906500000002,141.418509375,71.0,104.0
744,141.11097,141.83616768750002,43.0,110.0
745,142.06335,142.3163259375,43.0,108.0
746,141.82525500000003,142.327238625,71.0,110.0
747,141.82525500000003,142.3321989375,62.0,113.0
748,141.82525500000003,142.3381513125,67.0,117.0
749,142.301445,142.6903335,50.0,116.0
750,142.53954000000002,142.9433094375,62.0,114.0
751,142.53954000000002,143.04449981250002,71.0,113.0
752,142.777635,143.04648393750003,43.0,100.0
753,142.53954000000002,143.053428375,67.0,114.0
754,143.37287250000003,143.42445975,67.0,108.0
755,143.37287250000003,143.43934068750002,64.0,100.0
756,143.37287250000003,143.46017400000002,72.0,91.0
757,143.01573000000002,143.89965768750002,48.0,116.0
758,144.206205,144.454220625,48.0,108.0
759,143.730015,144.48695868750002,67.0,116.0
760,143.730015,144.48894281250003,72.0,108.0
761,143.730015,144.5008475625,64.0,113.0
762,144.44430000000003,144.8937043125,55.0,104.0
763,144.682395,144.9125535,67.0,113.0
764,144.682395,144.91552968750003,64.0,107.0
765,144.682395,144.9413233125,72.0,98.0
766,144.92049000000003,145.21810875000003,45.0,97.0
767,146.34906,146.4681075,45.0,97.0
768,146.4681075,146.58715500000002,60.0,97.0
769,146.4681075,146.58715500000002,64.0,97.0
770,146.4681075,146.58715500000002,69.0,97.0
771,146.70620250000002,146.76572625000003,60.0,97.0
772,146.70620250000002,146.76572625000003,64.0,97.0
773,146.70620250000002,146.76572625000003,69.0,97.0
774,148.25382000000002,148.3728675,45.0,97.0
775,148.3728675,148.491915,60.0,97.0
776,148.3728675,148.491915,64.0,97.0
777,148.3728675,148.491915,69.0,97.0
778,148.61096250000003,148.67048625,60.0,97.0
779,148.61096250000003,148.67048625,64.0,97.0
780,148.61096250000003,148.67048625,69.0,97.0
781,150.15858000000003,150.27762750000002,45.0,97.0
782,150.27762750000002,150.39667500000002,60.0,97.0
783,150.27762750000002,150.39667500000002,64.0,97.0
784,150.27762750000002,150.39667500000002,69.0,97.0
785,150.5157225,150.57524625000002,60.0,97.0
786,150.5157225,150.57524625000002,64.0,97.0
787,150.5157225,150.57524625000002,69.0,97.0
788,152.06334,152.1823875,45.0,97.0
789,152.1823875,152.30143500000003,60.0,97.0
790,152.1823875,152.30143500000003,64.0,97.0
791,152.1823875,152.30143500000003,69.0,97.0
792,152.42048250000002,152.48000625,60.0,97.0
793,152.42048250000002,152.48000625,64.0,97.0
794,152.42048250000002,152.48000625,69.0,97.0
795,153.96810000000002,154.08714750000001,45.0,97.0
796,154.08714750000001,154.206195,60.0,97.0
797,154.08714750000001,154.206195,64.0,97.0
798,154.08714750000001,154.206195,69.0,97.0
799,154.32524250000003,154.38476625,60.0,97.0
800,154.32524250000003,154.38476625,64.0,97.0
801,154.32524250000003,154.38476625,69.0,97.0
802,155.87286,155.99190750000002,45.0,97.0
803,155.99190750000002,156.11095500000002,60.0,97.0
804,155.99190750000002,156.11095500000002,64.0,97.0
805,155.99190750000002,156.11095500000002,69.0,97.0
806,156.2300025,156.28952625000002,60.0,97.0
807,156.2300025,156.28952625000002,64.0,97.0
808,156.2300025,156.28952625000002,69.0,97.0
809,157.77762,157.8966675,45.0,97.0
810,157.8966675,158.01571500000003,60.0,97.0
811,157.8966675,158.01571500000003,64.0,97.0
812,157.8966675,158.01571500000003,69.0,97.0
813,158.13476250000002,158.19428625,60.0,97.0
814,158.13476250000002,158.19428625,64.0,97.0
815,158.13476250000002,158.19428625,69.0,97.0
816,159.68238000000002,159.80142750000002,45.0,97.0
817,160.5157125,160.5682918125,67.0,108.0
818,160.5157125,160.58515687500002,64.0,89.0
819,160.5157125,160.589125125,72.0,91.0
820,160.15857000000003,160.98991837500003,48.0,102.0
821,161.34904500000002,161.6109495,48.0,110.0
822,160.87285500000002,161.6258304375,72.0,108.0
823,160.87285500000002,161.64567168750003,64.0,108.0
824,160.87285500000002,161.66650500000003,67.0,117.0
825,161.58714,162.015711,55.0,102.0
826,161.82523500000002,162.208171125,72.0,98.0
827,161.82523500000002,162.239917125,64.0,102.0
828,161.82523500000002,162.24090918750002,67.0,110.0
829,162.42047250000002,162.46709943750002,67.0,98.0
830,162.42047250000002,162.47801212500002,72.0,88.0
831,162.42047250000002,162.48495656250003,64.0,90.0
832,162.06333,162.91749581250002,48.0,102.0
833,162.77761500000003,163.52563012500002,72.0,102.0
834,162.77761500000003,163.5424951875,64.0,110.0
835,163.25380500000003,163.54943962500002,48.0,110.0
836,162.77761500000003,163.54943962500002,67.0,117.0
837,163.49190000000002,163.97007412500002,55.0,110.0
838,163.72999500000003,164.085153375,72.0,93.0
839,163.72999500000003,164.09408193750002,67.0,113.0
840,163.72999500000003,164.09705812500002,64.0,104.0
841,164.32523250000003,164.38376418750002,69.0,104.0
842,164.32523250000003,164.38674037500002,72.0,90.0
843,164.32523250000003,164.39368481250003,64.0,93.0
844,163.96809000000002,164.7845574375,45.0,116.0
845,165.158565,165.4274139375,45.0,104.0
846,164.682375,165.4512234375,72.0,108.0
847,164.682375,165.46213612500003,64.0,110.0
848,164.682375,165.46511231250003,69.0,116.0
849,165.39666000000003,165.86491350000003,52.0,110.0
850,165.634755,165.898643625,72.0,94.0
851,165.634755,165.91848487500002,64.0,100.0
852,165.634755,165.92146106250001,69.0,108.0
853,166.2299925,166.28455593750002,67.0,108.0
854,166.2299925,166.29646068750003,62.0,96.0
855,166.2299925,166.30042893750002,71.0,96.0
856,165.87285000000003,166.7746348125,43.0,110.0
857,166.58713500000002,167.14169793750003,62.0,110.0
858,166.58713500000002,167.15062650000002,67.0,114.0
859,166.58713500000002,167.1516185625,71.0,104.0
860,167.06332500000002,167.37880087500002,43.0,114.0
861,167.53951500000002,167.7329671875,43.0,100.0
862,167.30142,167.79149887500003,62.0,110.0
863,167.30142,167.81134012500002,67.0,113.0
864,167.30142,167.82126075000002,71.0,98.0
865,167.77761,168.29249043750002,41.0,113.0
866,168.49189500000003,168.61590281250002,41.0,108.0
867,168.2538,168.96610087500002,72.0,98.0
868,168.2538,169.00379925000001,69.0,114.0
869,168.2538,169.0147119375,65.0,100.0
870,168.96808500000003,169.285545,41.0,114.0
871,169.444275,169.59010818750002,41.0,104.0
872,169.20618000000002,169.72106043750003,65.0,104.0
873,169.20618000000002,169.73197312500002,72.0,102.0
874,169.20618000000002,169.75082231250002,69.0,116.0
875,169.68237000000002,170.18236950000002,43.0,113.0
876,170.396655,170.6655039375,43.0,114.0
877,170.15856000000002,170.904591,71.0,100.0
878,170.15856000000002,170.91054337500003,62.0,100.0
879,170.15856000000002,170.920464,67.0,108.0
880,170.872845,171.2151065625,43.0,114.0
881,171.34903500000001,171.4651063125,43.0,92.0
882,171.11094000000003,171.72006637500002,71.0,98.0
883,171.11094000000003,171.73197112500003,67.0,108.0
884,171.11094000000003,171.81629643750003,62.0,108.0
885,171.9442725,172.14863737500002,71.0,90.0
886,171.9442725,172.1575659375,62.0,90.0
887,171.9442725,172.17145481250003,67.0,91.0
888,171.58713000000003,172.5127243125,43.0,110.0
889,172.30141500000002,172.80935100000002,71.0,104.0
890,172.30141500000002,172.81133512500003,67.0,114.0
891,172.30141500000002,172.81232718750002,62.0,108.0
892,172.77760500000002,173.13871575000002,43.0,108.0
893,173.0157,173.94625462500002,62.0,104.0
894,173.0157,173.95220700000002,71.0,100.0
895,173.0157,173.98097681250002,67.0,114.0
896,173.96808000000001,174.19427025000002,55.0,80.0
897,173.72998500000003,174.2766114375,50.0,88.0
898,173.49189,174.33514312500003,43.0,110.0
899,174.20617500000003,174.724031625,67.0,116.0
900,174.20617500000003,174.724031625,71.0,107.0
901,174.20617500000003,174.7270078125,62.0,113.0
902,174.68236500000003,174.98792025000003,43.0,113.0
903,175.158555,175.25974537500002,43.0,108.0
904,174.92046000000002,175.3639119375,62.0,114.0
905,174.92046000000002,175.39863412500003,67.0,116.0
906,174.92046000000002,175.41549918750002,71.0,104.0
907,175.39665000000002,175.86192731250003,48.0,114.0
908,176.110935,176.22006187500003,48.0,108.0
909,176.58712500000001,176.8321644375,48.0,110.0
910,175.87284000000002,176.89466437500002,72.0,102.0
911,175.87284000000002,176.90061675,67.0,114.0
912,175.87284000000002,176.90855325,64.0,108.0
913,176.82522000000003,177.28454493750002,55.0,108.0
914,177.06331500000002,177.50775900000002,72.0,108.0
915,177.06331500000002,177.51569550000002,67.0,116.0
916,177.06331500000002,177.52859231250002,64.0,110.0
917,177.6585525,177.70517943750002,67.0,107.0
918,177.6585525,177.72402862500002,72.0,92.0
919,177.6585525,177.7250206875,64.0,98.0
920,177.30141000000003,178.1119250625,48.0,107.0
921,178.49188500000002,178.74386887500003,48.0,110.0
922,178.01569500000002,178.777599,72.0,107.0
923,178.01569500000002,178.78355137500003,67.0,117.0
924,178.01569500000002,178.7885116875,64.0,113.0
925,178.72998,179.1516065625,55.0,117.0
926,178.96807500000003,179.37680475000002,72.0,100.0
927,178.96807500000003,179.39664600000003,64.0,110.0
928,178.96807500000003,179.40061425000002,67.0,117.0
929,179.56331250000002,179.62184418750002,69.0,110.0
930,179.56331250000002,179.624820375,72.0,91.0
931,179.56331250000002,179.6357330625,64.0,96.0
932,179.20617000000001,180.09108975,45.0,108.0
933,180.396645,180.64664475,45.0,108.0
934,179.92045500000003,180.71608912500002,72.0,102.0
935,179.92045500000003,180.727993875,69.0,116.0
936,179.92045500000003,180.7309700625,64.0,110.0
937,180.63474000000002,181.07918400000003,52.0,114.0
938,180.872835,181.20517593750003,64.0,113.0
939,180.872835,181.20616800000002,69.0,116.0
940,180.872835,181.21608862500003,72.0,107.0
941,181.11093000000002,181.48791375000002,43.0,110.0
942,181.4680725,181.60001681250003,67.0,102.0
943,181.4680725,181.61291362500003,71.0,94.0
944,181.4680725,181.61588981250003,62.0,98.0
945,182.30140500000002,182.549420625,43.0,110.0
946,181.82521500000001,182.63573006250002,71.0,110.0
947,181.82521500000001,182.6416824375,62.0,113.0
948,181.82521500000001,182.64664275,67.0,116.0
949,182.53950000000003,182.98295193750002,50.0,116.0
950,182.77759500000002,183.104975625,62.0,110.0
951,182.77759500000002,183.11489625000002,67.0,113.0
952,182.77759500000002,183.13969781250003,71.0,96.0
953,183.25378500000002,183.323229375,60.0,91.0
954,183.25378500000002,183.32521350000002,65.0,108.0
955,183.25378500000002,183.34009443750003,69.0,98.0
956,183.01569,183.85894312500002,41.0,107.0
957,183.72997500000002,184.26172050000002,65.0,116.0
958,183.72997500000002,184.2627125625,60.0,110.0
959,183.72997500000002,184.2686649375,69.0,108.0
960,184.20616500000003,184.51767262500002,41.0,110.0
961,184.68235500000003,184.8023945625,41.0,100.0
962,184.44426,184.8896960625,60.0,110.0
963,184.44426,184.93632300000002,65.0,114.0
964,184.44426,184.94029125000003,69.0,107.0
965,184.92045000000002,185.40755268750002,43.0,108.0
966,185.634735,185.81529037500002,43.0,110.0
967,185.39664000000002,186.1396948125,71.0,104.0
968,185.39664000000002,186.142671,67.0,107.0
969,185.39664000000002,186.15159956250002,62.0,107.0
970,186.110925,186.4928690625,43.0,113.0
971,186.34902000000002,187.01270981250002,71.0,108.0
972,186.34902000000002,187.02263043750003,67.0,116.0
973,186.34902000000002,187.029574875,62.0,110.0
974,187.063305,187.12282875000002,67.0,113.0
975,187.063305,187.1297731875,62.0,104.0
976,187.063305,187.13274937500003,71.0,104.0
977,186.82521000000003,187.5504076875,43.0,110.0
978,187.77759000000003,188.03056593750003,43.0,108.0
979,187.53949500000002,188.04147862500002,71.0,110.0
980,187.53949500000002,188.04643893750003,62.0,113.0
981,187.53949500000002,188.05239131250002,67.0,117.0
982,188.01568500000002,188.40457350000003,50.0,116.0
983,188.25378,188.65754943750002,62.0,114.0
984,188.25378,188.7587398125,71.0,113.0
985,188.49187500000002,188.76072393750002,43.0,100.0
986,188.25378,188.76766837500003,67.0,114.0
987,189.08711250000002,189.13869975000003,67.0,108.0
988,189.08711250000002,189.1535806875,64.0,100.0
989,189.08711250000002,189.174414,72.0,91.0
990,188.72997,189.6138976875,48.0,116.0
991,189.92044500000003,190.16846062500002,48.0,108.0
992,189.44425500000003,190.2011986875,67.0,116.0
993,189.44425500000003,190.20318281250002,72.0,108.0
994,189.44425500000003,190.21508756250003,64.0,113.0
995,190.15854000000002,190.60794431250002,55.0,104.0
996,190.39663500000003,190.62679350000002,67.0,113.0
997,190.39663500000003,190.62976968750002,64.0,107.0
998,190.39663500000003,190.65556331250002,72.0,98.0
999,205.87281000000002,206.33808731250002,48.0,114.0
1000,206.58709500000003,206.69622187500002,48.0,108.0
1001,207.06328500000004,207.30832443750003,48.0,110.0
1002,206.34900000000002,207.370824375,72.0,102.0
1003,206.34900000000002,207.37677675000003,67.0,114.0
1004,206.34900000000002,207.38471325000003,64.0,108.0
1005,207.30138000000002,207.7607049375,55.0,108.0
1006,207.539475,207.98391900000001,72.0,108.0
1007,207.539475,207.9918555,67.0,116.0
1008,207.539475,208.00475231250002,64.0,110.0
1009,208.13471250000003,208.18133943750001,67.0,107.0
1010,208.13471250000003,208.200188625,72.0,92.0
1011,208.13471250000003,208.20118068750003,64.0,98.0
1012,207.77757000000003,208.58808506250003,48.0,107.0
1013,208.96804500000002,209.22002887500003,48.0,110.0
1014,208.49185500000002,209.25375900000003,72.0,107.0
1015,208.49185500000002,209.25971137500002,67.0,117.0
1016,208.49185500000002,209.26467168750003,64.0,113.0
1017,209.20614000000003,209.62776656250003,55.0,117.0
1018,209.44423500000002,209.85296475,72.0,100.0
1019,209.44423500000002,209.87280600000003,64.0,110.0
1020,209.44423500000002,209.87677425,67.0,117.0
1021,210.03947250000002,210.0980041875,69.0,110.0
1022,210.03947250000002,210.10098037500003,72.0,91.0
1023,210.03947250000002,210.11189306250003,64.0,96.0
1024,209.68233000000004,210.56724975000003,45.0,108.0
1025,210.87280500000003,211.12280475000003,45.0,108.0
1026,210.39661500000003,211.19224912500002,72.0,102.0
1027,210.39661500000003,211.20415387500003,69.0,116.0
1028,210.39661500000003,211.20713006250003,64.0,110.0
1029,211.11090000000002,211.55534400000002,52.0,114.0
1030,211.34899500000003,211.68133593750002,64.0,113.0
1031,211.34899500000003,211.682328,69.0,116.0
1032,211.34899500000003,211.69224862500002,72.0,107.0
1033,211.58709000000002,211.96407375,43.0,110.0
1034,211.94423250000003,212.07617681250002,67.0,102.0
1035,211.94423250000003,212.08907362500003,71.0,94.0
1036,211.94423250000003,212.09204981250002,62.0,98.0
1037,212.777565,213.02558062500003,43.0,110.0
1038,212.30137500000004,213.1118900625,71.0,110.0
1039,212.30137500000004,213.11784243750003,62.0,113.0
1040,212.30137500000004,213.12280275000003,67.0,116.0
1041,213.01566000000003,213.4591119375,50.0,116.0
1042,213.253755,213.58113562500003,62.0,110.0
1043,213.253755,213.59105625000004,67.0,113.0
1044,213.253755,213.61585781250002,71.0,96.0
1045,213.72994500000001,213.79938937500003,60.0,91.0
1046,213.72994500000001,213.8013735,65.0,108.0
1047,213.72994500000001,213.81625443750002,69.0,98.0
1048,213.49185000000003,214.33510312500002,41.0,107.0
1049,214.20613500000002,214.73788050000002,65.0,116.0
1050,214.20613500000002,214.73887256250003,60.0,110.0
1051,214.20613500000002,214.74482493750003,69.0,108.0
1052,214.68232500000002,214.993832625,41.0,110.0
1053,215.15851500000002,215.27855456250003,41.0,100.0
1054,214.92042000000004,215.36585606250003,60.0,110.0
1055,214.92042000000004,215.412483,65.0,114.0
1056,214.92042000000004,215.41645125000002,69.0,107.0
1057,215.39661,215.88371268750004,43.0,108.0
1058,216.11089500000003,216.291450375,43.0,110.0
1059,215.8728,216.61585481250003,71.0,104.0
1060,215.8728,216.61883100000003,67.0,107.0
1061,215.8728,216.62775956250002,62.0,107.0
1062,216.58708500000003,216.96902906250003,43.0,113.0
1063,216.82518000000002,217.4888698125,71.0,108.0
1064,216.82518000000002,217.49879043750002,67.0,116.0
1065,216.82518000000002,217.50573487500003,62.0,110.0
1066,217.53946500000004,217.59898875000002,67.0,113.0
1067,217.53946500000004,217.60593318750003,62.0,104.0
1068,217.53946500000004,217.60890937500002,71.0,104.0
1069,217.30137000000002,218.02656768750003,43.0,110.0
1070,218.25375000000003,218.50672593750002,43.0,108.0
1071,218.015655,218.51763862500002,71.0,110.0
1072,218.015655,218.52259893750002,62.0,113.0
1073,218.015655,218.5285513125,67.0,117.0
1074,218.491845,218.88073350000002,50.0,116.0
1075,218.72994000000003,219.13370943750002,62.0,114.0
1076,218.72994000000003,219.23489981250003,71.0,113.0
1077,218.96803500000001,219.2368839375,43.0,100.0
1078,218.72994000000003,219.24382837500002,67.0,114.0
1079,219.5632725,219.61485975000002,67.0,108.0
1080,219.5632725,219.62974068750003,64.0,100.0
1081,219.5632725,219.65057400000003,72.0,91.0
1082,219.20613000000003,220.09005768750004,48.0,116.0
1083,220.39660500000002,220.64462062500002,48.0,108.0
1084,219.92041500000002,220.67735868750003,67.0,116.0
1085,219.92041500000002,220.6793428125,72.0,108.0
1086,219.92041500000002,220.69124756250002,64.0,113.0
1087,220.6347,221.08410431250002,55.0,104.0
1088,220.87279500000002,221.1029535,67.0,113.0
1089,220.87279500000002,221.10592968750004,64.0,107.0
1090,220.87279500000002,221.13172331250001,72.0,98.0
1091,221.11089,221.13172331250001,72.0,108.0
1092,221.11089,221.27061206250002,69.0,108.0
1093,221.11089,221.32517550000003,76.0,108.0
1094,221.11089,221.41942143750003,45.0,108.0
1095,221.46803250000002,221.53152450000002,69.0,108.0
1096,221.46803250000002,221.53152450000002,72.0,108.0
1097,221.46803250000002,221.56327050000002,76.0,108.0
1098,221.46803250000002,221.69422275000002,57.0,108.0
1099,221.82517500000003,221.91148443750004,72.0,108.0
1100,221.82517500000003,221.92239712500003,76.0,108.0
1101,221.82517500000003,221.93330981250003,69.0,108.0
1102,221.82517500000003,222.15354768750004,45.0,108.0
1103,222.1823175,222.26565075000002,72.0,108.0
1104,222.1823175,222.27755550000003,76.0,108.0
1105,222.1823175,222.29838881250004,69.0,108.0
1106,222.30136500000003,222.4928330625,57.0,108.0
1107,222.53946000000002,222.62279325000003,72.0,108.0
1108,222.53946000000002,222.63469800000001,76.0,108.0
1109,222.53946000000002,222.65553131250002,69.0,108.0
1110,222.53946000000002,222.81624543750002,45.0,108.0
1111,222.77755500000004,222.9690230625,57.0,108.0
1112,223.01565000000002,223.17537206250003,69.0,108.0
1113,223.01565000000002,223.20811012500002,72.0,108.0
1114,223.01565000000002,223.2299355,76.0,108.0
1115,223.01565000000002,223.32418143750002,45.0,108.0
1116,223.37279250000003,223.43628450000003,69.0,108.0
1117,223.37279250000003,223.43628450000003,72.0,108.0
1118,223.37279250000003,223.46803050000003,76.0,108.0
1119,223.37279250000003,223.59898275000003,57.0,108.0
1120,223.729935,223.81624443750002,72.0,108.0
1121,223.729935,223.827157125,76.0,108.0
1122,223.729935,223.83806981250004,69.0,108.0
1123,223.729935,224.05830768750002,45.0,108.0
1124,224.08707750000002,224.17041075000003,72.0,108.0
1125,224.08707750000002,224.18231550000002,76.0,108.0
1126,224.08707750000002,224.20314881250002,69.0,108.0
1127,224.20612500000001,224.39759306250002,57.0,108.0
1128,224.44422000000003,224.52755325,72.0,108.0
1129,224.44422000000003,224.53945800000002,76.0,108.0
1130,224.44422000000003,224.56029131250003,69.0,108.0
1131,224.44422000000003,224.72100543750003,45.0,108.0
1132,224.68231500000002,224.87378306250002,57.0,108.0
1133,224.92041000000003,225.0801320625,69.0,108.0
1134,224.92041000000003,225.11287012500003,72.0,108.0
1135,224.92041000000003,225.13469550000002,76.0,108.0
1136,224.92041000000003,225.22894143750003,45.0,108.0
1137,225.2775525,225.34104450000004,69.0,108.0
1138,225.2775525,225.34104450000004,72.0,108.0
1139,225.2775525,225.37279050000004,76.0,108.0
1140,225.2775525,225.50374275000001,57.0,108.0
1141,225.63469500000002,225.72100443750003,72.0,108.0
1142,225.63469500000002,225.73191712500002,76.0,108.0
1143,225.63469500000002,225.74282981250002,69.0,108.0
1144,225.63469500000002,225.96306768750003,45.0,108.0
1145,225.99183750000003,226.07517075,72.0,108.0
1146,225.99183750000003,226.08707550000003,76.0,108.0
1147,225.99183750000003,226.10790881250003,69.0,108.0
1148,226.11088500000002,226.30235306250003,57.0,108.0
1149,226.34898,226.43231325000002,72.0,108.0
1150,226.34898,226.44421800000003,76.0,108.0
1151,226.34898,226.46505131250004,69.0,108.0
1152,226.34898,226.62576543750004,45.0,108.0
1153,226.58707500000003,226.77854306250003,57.0,108.0
1154,226.82517,226.98489206250002,69.0,108.0
1155,226.82517,227.017630125,72.0,108.0
1156,226.82517,227.03945550000003,76.0,108.0
1157,226.82517,227.13370143750004,45.0,108.0
1158,227.18231250000002,227.24580450000002,69.0,108.0
1159,227.18231250000002,227.24580450000002,72.0,108.0
1160,227.18231250000002,227.27755050000002,76.0,108.0
1161,227.18231250000002,227.40850275000003,57.0,108.0
1162,227.53945500000003,227.62576443750004,72.0,108.0
1163,227.53945500000003,227.63667712500003,76.0,108.0
1164,227.53945500000003,227.64758981250003,69.0,108.0
1165,227.53945500000003,227.8678276875,45.0,108.0
1166,227.8965975,227.97993075000002,72.0,108.0
1167,227.8965975,227.99183550000004,76.0,108.0
1168,227.8965975,228.01266881250004,69.0,108.0
1169,228.01564500000003,228.2071130625,57.0,108.0
1170,228.25374000000002,228.33707325000003,72.0,108.0
1171,228.25374000000002,228.34897800000002,76.0,108.0
1172,228.25374000000002,228.36981131250002,69.0,108.0
1173,228.25374000000002,228.53052543750002,45.0,108.0
1174,228.49183500000004,228.68330306250002,57.0,108.0
1175,228.72993000000002,228.88965206250003,69.0,108.0
1176,228.72993000000002,228.92239012500002,72.0,108.0
1177,228.72993000000002,228.9442155,76.0,108.0
1178,228.72993000000002,229.03846143750002,45.0,108.0
1179,229.08707250000003,229.15056450000003,69.0,108.0
1180,229.08707250000003,229.15056450000003,72.0,108.0
1181,229.08707250000003,229.18231050000003,76.0,108.0
1182,228.968025,229.19421525,57.0,108.0
1183,229.444215,229.53052443750002,72.0,108.0
1184,229.20612000000003,229.53449268750003,45.0,108.0
1185,229.444215,229.54143712500002,76.0,108.0
1186,229.444215,229.5523498125,69.0,108.0
1187,229.444215,229.62278625000002,57.0,108.0
1188,229.68231000000003,229.80135750000002,45.0,108.0
1189,229.80135750000002,229.88469075000003,72.0,108.0
1190,229.80135750000002,229.89659550000002,76.0,108.0
1191,229.80135750000002,229.91742881250002,69.0,108.0
1192,229.92040500000002,230.11187306250002,57.0,108.0
1193,230.15850000000003,230.24183325,72.0,108.0
1194,230.15850000000003,230.25373800000003,76.0,108.0
1195,230.15850000000003,230.27457131250003,69.0,108.0
1196,230.15850000000003,230.43528543750003,45.0,108.0
1197,230.39659500000002,230.58806306250003,57.0,108.0
1198,230.63469000000003,230.79441206250002,69.0,108.0
1199,230.63469000000003,230.82715012500003,72.0,108.0
1200,230.63469000000003,230.84897550000002,76.0,108.0
1201,230.63469000000003,230.94322143750003,45.0,108.0
1202,230.99183250000002,231.0553245,69.0,108.0
1203,230.99183250000002,231.0553245,72.0,108.0
1204,230.99183250000002,231.08707050000004,76.0,108.0
1205,230.87278500000002,231.09897525000002,57.0,108.0
1206,231.34897500000002,231.43528443750003,72.0,108.0
1207,231.11088000000004,231.43925268750002,45.0,108.0
1208,231.34897500000002,231.44619712500003,76.0,108.0
1209,231.34897500000002,231.45710981250002,69.0,108.0
1210,231.34897500000002,231.52754625000003,57.0,108.0
1211,231.58707,231.70611750000003,45.0,108.0
1212,231.70611750000003,231.78945075000001,72.0,108.0
1213,231.70611750000003,231.80135550000003,76.0,108.0
1214,231.70611750000003,231.82218881250003,69.0,108.0
1215,231.82516500000003,232.01663306250003,57.0,108.0
1216,232.06326,232.14659325000002,72.0,108.0
1217,232.06326,232.15849800000004,76.0,108.0
1218,232.06326,232.1793313125,69.0,108.0
1219,232.06326,232.34004543750004,45.0,108.0
1220,232.30135500000003,232.49282306250004,57.0,108.0
1221,232.53945000000002,232.69917206250003,69.0,108.0
1222,232.53945000000002,232.731910125,72.0,108.0
1223,232.53945000000002,232.75373550000003,76.0,108.0
1224,232.53945000000002,232.84798143750004,45.0,108.0
1225,232.89659250000003,232.96008450000002,69.0,108.0
1226,232.89659250000003,232.96008450000002,72.0,108.0
1227,232.89659250000003,232.99183050000002,76.0,108.0
1228,232.77754500000003,233.00373525000003,57.0,108.0
1229,233.25373500000003,233.3400444375,72.0,108.0
1230,233.01564000000002,233.34401268750003,45.0,108.0
1231,233.25373500000003,233.35095712500004,76.0,108.0
1232,233.25373500000003,233.36186981250003,69.0,108.0
1233,233.25373500000003,233.43230625000004,57.0,108.0
1234,233.49183000000002,233.61087750000002,45.0,108.0
1235,233.61087750000002,233.69421075000002,72.0,108.0
1236,233.61087750000002,233.70611550000004,76.0,108.0
1237,233.61087750000002,233.7269488125,69.0,108.0
1238,233.72992500000004,233.92139306250002,57.0,108.0
1239,233.96802000000002,234.05135325000003,72.0,108.0
1240,233.96802000000002,234.06325800000002,76.0,108.0
1241,233.96802000000002,234.08409131250002,69.0,108.0
1242,233.96802000000002,234.24480543750002,45.0,108.0
1243,234.206115,234.39758306250002,57.0,108.0
1244,234.44421000000003,234.60393206250004,69.0,108.0
1245,234.44421000000003,234.63667012500002,72.0,108.0
1246,234.44421000000003,234.65849550000001,76.0,108.0
1247,234.44421000000003,234.75274143750002,45.0,108.0
1248,234.80135250000004,234.86484450000003,69.0,108.0
1249,234.80135250000004,234.86484450000003,72.0,108.0
1250,234.80135250000004,234.89659050000003,76.0,108.0
1251,234.682305,234.90849525000002,57.0,108.0
1252,235.15849500000002,235.24480443750002,72.0,108.0
1253,234.92040000000003,235.24877268750004,45.0,108.0
1254,235.15849500000002,235.25571712500002,76.0,108.0
1255,235.15849500000002,235.2666298125,69.0,108.0
1256,235.15849500000002,235.33706625000002,57.0,108.0
1257,235.39659000000003,235.51563750000003,45.0,108.0
1258,235.51563750000003,235.59897075000003,72.0,108.0
1259,235.51563750000003,235.61087550000002,76.0,108.0
1260,235.51563750000003,235.63170881250002,69.0,108.0
1261,235.63468500000002,235.82615306250003,57.0,107.0
1262,235.87278000000003,235.95611325000002,72.0,107.0
1263,235.87278000000003,235.96801800000003,76.0,107.0
1264,235.87278000000003,235.98885131250003,69.0,107.0
1265,235.87278000000003,236.14956543750003,45.0,107.0
1266,236.11087500000002,236.30234306250003,57.0,107.0
1267,236.34897000000004,236.50869206250002,69.0,107.0
1268,236.34897000000004,236.54143012500003,72.0,107.0
1269,236.34897000000004,236.56325550000003,76.0,107.0
1270,236.34897000000004,236.65750143750003,45.0,107.0
