,start,end,pitch,velocity
0,33.25833333333333,33.645833333333336,69.0,88.0
1,33.75833333333333,33.93333333333333,76.0,84.0
2,34.00833333333333,34.639583333333334,76.0,84.0
3,34.75833333333333,34.9625,76.0,86.0
4,35.00833333333333,35.15416666666667,74.0,83.0
5,35.25833333333333,36.8625,76.0,83.0
6,37.25833333333333,37.65,71.0,83.0
7,37.75833333333333,38.14791666666667,71.0,83.0
8,38.25833333333333,38.74166666666667,69.0,82.0
9,38.75833333333333,39.260416666666664,67.0,79.0
10,39.25833333333333,40.87708333333333,69.0,82.0
11,41.25833333333333,41.641666666666666,69.0,84.0
12,41.75833333333333,42.0875,74.0,87.0
13,42.25833333333333,42.708333333333336,74.0,87.0
14,42.75833333333333,43.22083333333333,69.0,84.0
15,43.25833333333333,43.7875,74.0,85.0
16,43.75833333333333,44.29375,76.0,82.0
17,44.25833333333333,45.16041666666666,74.0,83.0
18,45.25833333333333,45.802083333333336,72.0,85.0
19,45.75833333333333,46.2875,69.0,80.0
20,46.25833333333333,46.7375,72.0,83.0
21,46.75833333333333,47.125,76.0,84.0
22,47.25833333333333,49.014583333333334,76.0,84.0
23,49.25833333333333,49.670833333333334,76.0,86.0
24,49.75833333333333,50.09166666666667,81.0,87.0
25,50.25833333333333,50.68541666666667,81.0,84.0
26,50.75833333333333,51.14375,74.0,88.0
27,51.25833333333333,52.12708333333333,76.0,93.0
28,52.25833333333333,53.05,74.0,86.0
29,53.25833333333333,53.668749999999996,76.0,84.0
30,53.75833333333333,54.108333333333334,79.0,85.0
31,54.25833333333333,54.64375,79.0,84.0
32,54.75833333333333,54.895833333333336,74.0,86.0
33,55.00833333333333,55.24583333333333,76.0,88.0
34,55.25833333333333,56.916666666666664,72.0,83.0
35,57.25833333333333,57.85208333333333,74.0,85.0
36,58.00833333333333,58.16041666666666,74.0,87.0
37,58.25833333333333,58.64375,74.0,87.0
38,58.75833333333333,58.94583333333333,69.0,84.0
39,59.00833333333333,59.18541666666667,69.0,84.0
40,59.25833333333333,59.954166666666666,74.0,86.0
41,60.00833333333333,60.293749999999996,76.0,80.0
42,60.25833333333333,61.110416666666666,74.0,86.0
43,61.25833333333333,61.670833333333334,67.0,82.0
44,61.75833333333333,62.21666666666667,69.0,83.0
45,62.25833333333333,62.74791666666667,72.0,82.0
46,62.75833333333333,63.291666666666664,71.0,80.0
47,63.25833333333333,65.18333333333334,69.0,81.0
48,65.25833333333333,65.64583333333333,69.0,88.0
49,65.75833333333333,65.93333333333334,76.0,84.0
50,66.00833333333333,66.63958333333333,76.0,84.0
51,66.75833333333333,66.9625,76.0,86.0
52,67.00833333333333,67.15416666666667,74.0,83.0
53,67.25833333333333,68.8625,76.0,83.0
54,69.25833333333333,69.65,71.0,83.0
55,69.75833333333333,70.14791666666666,71.0,83.0
56,70.25833333333333,70.74166666666666,69.0,82.0
57,70.75833333333333,71.26041666666667,67.0,79.0
58,71.25833333333333,72.87708333333333,69.0,82.0
59,73.25833333333333,73.64166666666667,69.0,84.0
60,73.75833333333333,74.0875,74.0,87.0
61,74.25833333333333,74.70833333333333,74.0,87.0
62,74.75833333333333,75.22083333333333,69.0,84.0
63,75.25833333333333,75.7875,74.0,85.0
64,75.75833333333333,76.29375,76.0,82.0
65,76.25833333333333,77.16041666666666,74.0,83.0
66,77.25833333333333,77.80208333333333,72.0,85.0
67,77.75833333333333,78.2875,69.0,80.0
68,78.25833333333333,78.7375,72.0,83.0
69,78.75833333333333,79.125,76.0,84.0
70,79.25833333333333,81.01458333333333,76.0,84.0
71,81.25833333333333,81.67083333333333,76.0,86.0
72,81.75833333333333,82.09166666666667,81.0,87.0
73,82.25833333333333,82.68541666666667,81.0,84.0
74,82.75833333333333,83.14375,74.0,88.0
75,83.25833333333333,84.12708333333333,76.0,93.0
76,84.25833333333333,85.05,74.0,86.0
77,85.25833333333333,85.66875,76.0,84.0
78,85.75833333333333,86.10833333333333,79.0,85.0
79,86.25833333333333,86.64375,79.0,84.0
80,86.75833333333333,86.89583333333333,74.0,86.0
81,87.00833333333333,87.24583333333334,76.0,88.0
82,87.25833333333333,88.91666666666667,72.0,83.0
83,89.25833333333333,89.85208333333333,74.0,85.0
84,90.00833333333333,90.16041666666666,74.0,87.0
85,90.25833333333333,90.64375,74.0,87.0
86,90.75833333333333,90.94583333333333,69.0,84.0
87,91.00833333333333,91.18541666666667,69.0,84.0
88,91.25833333333333,91.95416666666667,74.0,86.0
89,92.00833333333333,92.29375,76.0,80.0
90,92.25833333333333,93.11041666666667,74.0,86.0
91,93.25833333333333,93.67083333333333,67.0,82.0
92,93.75833333333333,94.21666666666667,69.0,83.0
93,94.25833333333333,94.74791666666667,72.0,82.0
94,94.75833333333333,95.29166666666667,71.0,80.0
95,95.25833333333333,97.18333333333334,69.0,81.0
96,97.25833333333333,98.19583333333333,76.0,93.0
97,98.25833333333333,99.20625,81.0,89.0
98,99.25833333333333,100.92083333333333,81.0,86.0
99,101.25833333333333,101.66041666666666,79.0,86.0
100,101.75833333333333,102.16666666666667,81.0,88.0
101,102.25833333333333,102.76666666666667,83.0,86.0
102,102.75833333333333,103.00416666666666,79.0,85.0
103,103.00833333333333,103.15625,81.0,87.0
104,103.25833333333333,104.83333333333333,81.0,83.0
105,105.25833333333333,105.70625,76.0,88.0
106,105.75833333333333,106.09166666666667,81.0,83.0
107,106.25833333333333,106.6125,81.0,84.0
108,106.75833333333333,107.14375,83.0,84.0
109,107.25833333333333,108.16458333333333,81.0,83.0
110,108.25833333333333,109.07916666666667,79.0,83.0
111,109.25833333333333,109.63958333333333,74.0,89.0
112,109.75833333333333,110.13333333333333,76.0,89.0
113,110.25833333333333,110.65416666666667,79.0,86.0
114,110.75833333333333,111.18124999999999,78.0,83.0
115,111.25833333333333,113.12291666666667,76.0,86.0
116,113.25833333333333,114.12916666666666,69.0,83.0
117,114.25833333333333,114.75416666666666,74.0,86.0
118,114.75833333333333,115.29791666666667,76.0,83.0
119,115.25833333333333,116.98958333333333,74.0,83.0
120,117.25833333333333,117.66666666666667,79.0,84.0
121,117.75833333333333,118.69791666666667,76.0,84.0
122,118.75833333333333,119.24791666666667,74.0,85.0
123,119.25833333333333,119.52083333333333,76.0,85.0
124,119.50833333333333,119.80208333333333,74.0,82.0
125,119.75833333333333,121.02499999999999,72.0,82.0
126,121.25833333333333,121.82708333333333,74.0,84.0
127,122.00833333333333,122.175,74.0,86.0
128,122.25833333333333,122.70833333333333,74.0,89.0
129,122.75833333333333,123.14999999999999,76.0,83.0
130,123.25833333333333,124.05,74.0,83.0
131,124.00833333333333,124.25416666666666,76.0,84.0
132,124.25833333333333,125.10208333333333,74.0,84.0
133,125.25833333333333,125.64999999999999,76.0,84.0
134,125.75833333333333,126.66875,74.0,85.0
135,126.75833333333333,127.14375,67.0,83.0
136,127.25833333333333,129.07916666666665,69.0,84.0
137,129.25833333333333,130.19583333333333,76.0,93.0
138,130.25833333333333,131.20625,81.0,89.0
139,131.25833333333333,132.92083333333332,81.0,86.0
140,133.25833333333333,133.66041666666666,79.0,86.0
141,133.75833333333333,134.16666666666666,81.0,88.0
142,134.25833333333333,134.76666666666665,83.0,86.0
143,134.75833333333333,135.00416666666666,79.0,85.0
144,135.00833333333333,135.15625,81.0,87.0
145,135.25833333333333,136.83333333333334,81.0,83.0
146,137.25833333333333,137.70625,76.0,88.0
147,137.75833333333333,138.00833333333333,81.0,83.0
148,138.00833333333333,138.25833333333333,81.0,83.0
149,138.25833333333333,138.6125,81.0,84.0
150,138.75833333333333,139.14375,83.0,84.0
151,139.25833333333333,140.16458333333333,81.0,83.0
152,140.25833333333333,141.07916666666665,79.0,83.0
153,141.25833333333333,141.63958333333332,74.0,89.0
154,141.75833333333333,142.13333333333333,76.0,89.0
155,142.25833333333333,142.65416666666667,79.0,86.0
156,142.75833333333333,143.18125,78.0,83.0
157,143.25833333333333,145.12291666666667,76.0,86.0
158,145.25833333333333,146.12916666666666,69.0,83.0
159,146.25833333333333,146.75416666666666,74.0,86.0
160,146.75833333333333,147.29791666666665,76.0,83.0
161,147.25833333333333,148.98958333333334,74.0,83.0
162,149.25833333333333,149.66666666666666,79.0,84.0
163,149.75833333333333,150.69791666666666,76.0,84.0
164,150.75833333333333,151.24791666666667,74.0,85.0
165,151.25833333333333,151.52083333333334,76.0,85.0
166,151.50833333333333,151.80208333333334,74.0,82.0
167,151.75833333333333,153.025,72.0,82.0
168,153.25833333333333,153.82708333333332,74.0,84.0
169,154.00833333333333,154.175,74.0,86.0
170,154.25833333333333,154.70833333333334,74.0,89.0
171,154.75833333333333,155.15,76.0,83.0
172,155.25833333333333,156.05,74.0,83.0
173,156.00833333333333,156.25416666666666,76.0,84.0
174,156.25833333333333,157.10208333333333,74.0,84.0
175,157.25833333333333,157.65,76.0,84.0
176,157.75833333333333,158.66875,74.0,85.0
177,158.75833333333333,159.14375,67.0,83.0
178,159.25833333333333,161.07916666666665,69.0,84.0
179,193.25833333333333,193.64583333333334,69.0,88.0
180,193.75833333333333,193.93333333333334,76.0,84.0
181,194.00833333333333,194.63958333333332,76.0,84.0
182,194.75833333333333,194.9625,76.0,86.0
183,195.00833333333333,195.15416666666667,74.0,83.0
184,195.25833333333333,196.8625,76.0,83.0
185,197.25833333333333,197.65,71.0,83.0
186,197.75833333333333,198.14791666666667,71.0,83.0
187,198.25833333333333,198.74166666666667,69.0,82.0
188,198.75833333333333,199.26041666666666,67.0,79.0
189,199.25833333333333,200.87708333333333,69.0,82.0
190,201.25833333333333,201.64166666666665,69.0,84.0
191,201.75833333333333,202.0875,74.0,87.0
192,202.25833333333333,202.70833333333334,74.0,87.0
193,202.75833333333333,203.22083333333333,69.0,84.0
194,203.25833333333333,203.7875,74.0,85.0
195,203.75833333333333,204.29375,76.0,82.0
196,204.25833333333333,205.16041666666666,74.0,83.0
197,205.25833333333333,205.80208333333334,72.0,85.0
198,205.75833333333333,206.2875,69.0,80.0
199,206.25833333333333,206.73749999999998,72.0,83.0
200,206.75833333333333,207.125,76.0,84.0
201,207.25833333333333,209.01458333333332,76.0,84.0
202,209.25833333333333,209.67083333333332,76.0,86.0
203,209.75833333333333,210.09166666666667,81.0,87.0
204,210.25833333333333,210.68541666666667,81.0,84.0
205,210.75833333333333,211.14374999999998,74.0,88.0
206,211.25833333333333,212.12708333333333,76.0,93.0
207,212.25833333333333,213.04999999999998,74.0,86.0
208,213.25833333333333,213.66875,76.0,84.0
209,213.75833333333333,214.10833333333332,79.0,85.0
210,214.25833333333333,214.64374999999998,79.0,84.0
211,214.75833333333333,214.89583333333334,74.0,86.0
212,215.00833333333333,215.24583333333334,76.0,88.0
213,215.25833333333333,216.91666666666666,72.0,83.0
214,217.25833333333333,217.85208333333333,74.0,85.0
215,218.00833333333333,218.16041666666666,74.0,87.0
216,218.25833333333333,218.64374999999998,74.0,87.0
217,218.75833333333333,218.94583333333333,69.0,84.0
218,219.00833333333333,219.18541666666667,69.0,84.0
219,219.25833333333333,219.95416666666665,74.0,86.0
220,220.00833333333333,220.29375,76.0,80.0
221,220.25833333333333,221.11041666666665,74.0,86.0
222,221.25833333333333,221.67083333333332,67.0,82.0
223,221.75833333333333,222.21666666666667,69.0,83.0
224,222.25833333333333,222.74791666666667,72.0,82.0
225,222.75833333333333,223.29166666666666,71.0,80.0
226,223.25833333333333,225.18333333333334,69.0,81.0
227,225.25833333333333,226.19583333333333,76.0,93.0
228,226.25833333333333,227.20624999999998,81.0,89.0
229,227.25833333333333,228.92083333333332,81.0,86.0
230,229.25833333333333,229.66041666666666,79.0,86.0
231,229.75833333333333,230.16666666666666,81.0,88.0
232,230.25833333333333,230.76666666666665,83.0,86.0
233,230.75833333333333,231.00416666666666,79.0,85.0
234,231.00833333333333,231.15625,81.0,87.0
235,231.25833333333333,232.83333333333334,81.0,83.0
236,233.25833333333333,233.70624999999998,76.0,88.0
237,233.75833333333333,234.09166666666667,81.0,83.0
238,234.25833333333333,234.61249999999998,81.0,84.0
239,234.75833333333333,235.14374999999998,83.0,84.0
240,235.25833333333333,236.16458333333333,81.0,83.0
241,236.25833333333333,237.07916666666665,79.0,83.0
242,237.25833333333333,237.63958333333332,74.0,89.0
243,237.75833333333333,238.13333333333333,76.0,89.0
244,238.25833333333333,238.65416666666667,79.0,86.0
245,238.75833333333333,239.18125,78.0,83.0
246,239.25833333333333,241.12291666666667,76.0,86.0
247,241.25833333333333,242.12916666666666,69.0,83.0
248,242.25833333333333,242.75416666666666,74.0,86.0
249,242.75833333333333,243.29791666666665,76.0,83.0
250,243.25833333333333,244.98958333333334,74.0,83.0
251,245.25833333333333,245.66666666666666,79.0,84.0
252,245.75833333333333,246.69791666666666,76.0,84.0
253,246.75833333333333,247.24791666666667,74.0,85.0
254,247.25833333333333,247.52083333333334,76.0,85.0
255,247.50833333333333,247.80208333333334,74.0,82.0
256,247.75833333333333,249.025,72.0,82.0
257,249.25833333333333,249.82708333333332,74.0,84.0
258,250.00833333333333,250.17499999999998,74.0,86.0
259,250.25833333333333,250.70833333333334,74.0,89.0
260,250.75833333333333,251.15,76.0,83.0
261,251.25833333333333,252.04999999999998,74.0,83.0
262,252.00833333333333,252.25416666666666,76.0,84.0
263,252.25833333333333,253.10208333333333,74.0,84.0
264,253.25833333333333,253.65,76.0,84.0
265,253.75833333333333,254.66875,74.0,85.0
266,254.75833333333333,255.14374999999998,67.0,83.0
267,255.25833333333333,257.07916666666665,69.0,84.0
268,257.2583333333333,258.1958333333333,76.0,93.0
269,258.2583333333333,259.20625,81.0,89.0
270,259.2583333333333,260.92083333333335,81.0,86.0
271,261.2583333333333,261.66041666666666,79.0,86.0
272,261.7583333333333,262.1666666666667,81.0,88.0
273,262.2583333333333,262.76666666666665,83.0,86.0
274,262.7583333333333,263.00416666666666,79.0,85.0
275,263.0083333333333,263.15625,81.0,87.0
276,263.2583333333333,264.8333333333333,81.0,83.0
277,265.2583333333333,265.70625,76.0,88.0
278,265.7583333333333,266.0083333333333,81.0,83.0
279,266.0083333333333,266.2583333333333,81.0,83.0
280,266.2583333333333,266.6125,81.0,84.0
281,266.7583333333333,267.14375,83.0,84.0
282,267.2583333333333,268.1645833333333,81.0,83.0
283,268.2583333333333,269.07916666666665,79.0,83.0
284,269.2583333333333,269.63958333333335,74.0,89.0
285,269.7583333333333,270.1333333333333,76.0,89.0
286,270.2583333333333,270.65416666666664,79.0,86.0
287,270.7583333333333,271.18125,78.0,83.0
288,271.2583333333333,273.12291666666664,76.0,86.0
289,273.2583333333333,274.12916666666666,69.0,83.0
290,274.2583333333333,274.75416666666666,74.0,86.0
291,274.7583333333333,275.29791666666665,76.0,83.0
292,275.2583333333333,276.9895833333333,74.0,83.0
293,277.2583333333333,277.6666666666667,79.0,84.0
294,277.7583333333333,278.6979166666667,76.0,84.0
295,278.7583333333333,279.24791666666664,74.0,85.0
296,279.2583333333333,279.5208333333333,76.0,85.0
297,279.5083333333333,279.8020833333333,74.0,82.0
298,279.7583333333333,281.025,72.0,82.0
299,281.2583333333333,281.82708333333335,74.0,84.0
300,282.0083333333333,282.175,74.0,86.0
301,282.2583333333333,282.7083333333333,74.0,89.0
302,282.7583333333333,283.15,76.0,83.0
303,283.2583333333333,284.05,74.0,83.0
304,284.0083333333333,284.25416666666666,76.0,84.0
305,284.2583333333333,285.1020833333333,74.0,84.0
306,285.2583333333333,285.65,76.0,84.0
307,285.7583333333333,286.66875,74.0,85.0
308,286.7583333333333,287.14375,67.0,83.0
309,287.2583333333333,289.07916666666665,69.0,84.0
310,289.2583333333333,289.82708333333335,74.0,84.0
311,290.0083333333333,290.175,74.0,86.0
312,290.2583333333333,290.7083333333333,74.0,89.0
313,290.7583333333333,291.15,76.0,83.0
314,291.2583333333333,292.05,74.0,83.0
315,292.0083333333333,292.25416666666666,76.0,84.0
316,292.2583333333333,293.1020833333333,74.0,84.0
317,293.2583333333333,293.59791666666666,79.0,86.0
318,293.7583333333333,295.71458333333334,79.0,89.0
319,295.7583333333333,296.77916666666664,83.0,86.0
320,296.7583333333333,297.2625,81.0,86.0
321,297.2583333333333,297.2625,81.0,86.0
