,start,end,pitch,velocity
0,1.2583333333333333,1.9770833333333333,60.0,76.0
1,1.2583333333333333,2.31875,57.0,68.0
2,2.2583333333333333,2.8229166666666665,60.0,77.0
3,2.2583333333333333,3.0833333333333335,64.0,80.0
4,3.2583333333333333,3.4791666666666665,57.0,73.0
5,3.2583333333333333,3.7312499999999997,60.0,75.0
6,3.7583333333333333,4.1,57.0,70.0
7,4.258333333333333,4.5875,60.0,80.0
8,1.7583333333333333,4.59375,52.0,66.0
9,1.2583333333333333,4.660416666666666,45.0,80.0
10,4.258333333333333,5.20625,64.0,83.0
11,5.258333333333333,5.69375,55.0,73.0
12,5.258333333333333,6.064583333333333,59.0,75.0
13,5.758333333333333,6.491666666666666,47.0,63.0
14,5.258333333333333,6.633333333333333,40.0,83.0
15,6.258333333333333,6.804166666666666,59.0,84.0
16,6.758333333333333,6.877083333333333,55.0,82.0
17,6.258333333333333,7.070833333333333,64.0,84.0
18,7.258333333333333,7.891666666666667,60.0,75.0
19,7.258333333333333,8.0,57.0,66.0
20,8.258333333333333,8.470833333333333,57.0,75.0
21,8.258333333333333,8.5,60.0,77.0
22,8.258333333333333,8.510416666666666,64.0,83.0
23,7.758333333333333,8.73125,52.0,63.0
24,7.258333333333333,9.066666666666666,45.0,82.0
25,9.258333333333333,9.816666666666666,64.0,83.0
26,9.258333333333333,9.820833333333333,57.0,75.0
27,10.258333333333333,10.625,60.0,83.0
28,10.258333333333333,10.7375,57.0,78.0
29,9.758333333333333,10.939583333333333,52.0,69.0
30,9.258333333333333,10.99375,45.0,83.0
31,11.258333333333333,11.860416666666666,62.0,77.0
32,11.758333333333333,12.327083333333333,57.0,71.0
33,11.258333333333333,12.39375,50.0,83.0
34,12.258333333333333,12.789583333333333,62.0,78.0
35,12.258333333333333,12.8,65.0,82.0
36,12.758333333333333,12.94375,57.0,78.0
37,13.258333333333333,14.066666666666666,55.0,82.0
38,14.258333333333333,14.5,55.0,82.0
39,13.758333333333333,14.69375,50.0,76.0
40,13.258333333333333,14.75,43.0,83.0
41,14.258333333333333,14.775,62.0,80.0
42,14.758333333333333,14.854166666666666,55.0,78.0
43,15.258333333333333,15.570833333333333,59.0,78.0
44,15.258333333333333,15.987499999999999,67.0,80.0
45,16.258333333333333,16.429166666666667,59.0,78.0
46,16.258333333333333,16.51875,64.0,86.0
47,15.758333333333333,16.610416666666666,47.0,73.0
48,15.258333333333333,16.65833333333333,40.0,84.0
49,16.508333333333333,16.7375,62.0,91.0
50,16.758333333333333,17.025,60.0,83.0
51,17.008333333333333,17.28125,59.0,75.0
52,17.258333333333333,17.989583333333332,57.0,76.0
53,18.258333333333333,18.37708333333333,57.0,70.0
54,17.758333333333333,18.53333333333333,52.0,70.0
55,17.258333333333333,18.558333333333334,45.0,83.0
56,18.258333333333333,18.635416666666668,60.0,77.0
57,18.258333333333333,18.716666666666665,64.0,81.0
58,18.758333333333333,19.620833333333334,57.0,74.0
59,19.258333333333333,19.68125,64.0,82.0
60,19.258333333333333,19.685416666666665,60.0,75.0
61,19.758333333333333,20.308333333333334,52.0,70.0
62,20.258333333333333,20.520833333333332,57.0,83.0
63,20.258333333333333,20.59583333333333,64.0,85.0
64,20.508333333333333,20.954166666666666,52.0,78.0
65,19.258333333333333,20.964583333333334,45.0,82.0
66,20.758333333333333,21.079166666666666,62.0,82.0
67,21.008333333333333,21.229166666666668,60.0,82.0
68,21.258333333333333,21.302083333333332,65.0,74.0
69,21.258333333333333,22.016666666666666,64.0,77.0
70,22.258333333333333,22.45625,59.0,79.0
71,21.758333333333333,22.59375,47.0,71.0
72,22.258333333333333,22.597916666666666,64.0,85.0
73,21.258333333333333,22.641666666666666,40.0,84.0
74,22.758333333333333,23.141666666666666,59.0,82.0
75,23.258333333333333,24.010416666666668,64.0,81.0
76,23.258333333333333,24.054166666666667,59.0,76.0
77,24.258333333333333,24.285416666666666,59.0,63.0
78,23.758333333333333,24.59583333333333,47.0,66.0
79,23.258333333333333,24.654166666666665,40.0,83.0
80,24.258333333333333,24.81458333333333,67.0,80.0
81,24.258333333333333,24.816666666666666,64.0,84.0
82,24.758333333333333,24.914583333333333,59.0,81.0
83,25.258333333333333,26.608333333333334,57.0,77.0
84,25.258333333333333,26.716666666666665,50.0,79.0
85,25.258333333333333,27.191666666666666,62.0,79.0
86,27.258333333333333,27.520833333333332,59.0,75.0
87,27.258333333333333,27.791666666666668,64.0,82.0
88,27.758333333333333,28.327083333333334,47.0,70.0
89,27.258333333333333,28.383333333333333,40.0,84.0
90,28.258333333333333,28.541666666666668,52.0,83.0
91,28.258333333333333,28.566666666666666,55.0,79.0
92,29.258333333333333,29.852083333333333,60.0,76.0
93,29.258333333333333,30.0,57.0,74.0
94,30.258333333333333,30.46875,60.0,75.0
95,30.258333333333333,30.510416666666668,64.0,82.0
96,29.758333333333333,31.414583333333333,52.0,71.0
97,31.258333333333333,31.70625,60.0,77.0
98,31.258333333333333,31.741666666666667,57.0,70.0
99,31.258333333333333,31.825,64.0,80.0
100,32.25833333333333,32.479166666666664,57.0,79.0
101,32.25833333333333,32.50416666666666,64.0,86.0
102,31.758333333333333,32.87708333333333,52.0,69.0
103,29.258333333333333,32.90416666666667,45.0,82.0
104,32.75833333333333,33.03541666666666,60.0,81.0
105,33.00833333333333,33.295833333333334,59.0,77.0
106,33.25833333333333,34.229166666666664,57.0,77.0
107,34.25833333333333,34.37708333333333,60.0,76.0
108,34.25833333333333,34.389583333333334,64.0,81.0
109,35.25833333333333,35.37916666666666,64.0,81.0
110,35.25833333333333,35.4,60.0,82.0
111,35.75833333333333,35.979166666666664,57.0,68.0
112,36.25833333333333,36.4375,57.0,77.0
113,33.75833333333333,36.57083333333333,52.0,72.0
114,33.25833333333333,36.59375,45.0,82.0
115,36.25833333333333,36.75,64.0,84.0
116,36.25833333333333,36.82083333333333,60.0,79.0
117,36.75833333333333,36.90625,57.0,83.0
118,37.25833333333333,37.625,55.0,75.0
119,37.25833333333333,37.71458333333333,59.0,76.0
120,38.25833333333333,38.46875,55.0,78.0
121,37.75833333333333,38.49583333333333,47.0,54.0
122,37.25833333333333,38.56875,40.0,81.0
123,38.25833333333333,38.639583333333334,59.0,82.0
124,39.25833333333333,39.79375,60.0,76.0
125,39.25833333333333,39.858333333333334,57.0,72.0
126,40.25833333333333,40.63125,57.0,78.0
127,40.25833333333333,40.68125,64.0,84.0
128,40.75833333333333,40.889583333333334,60.0,82.0
129,39.75833333333333,41.03541666666666,52.0,69.0
130,39.25833333333333,41.0375,45.0,82.0
131,41.25833333333333,41.52708333333333,57.0,74.0
132,41.25833333333333,41.83958333333333,62.0,77.0
133,41.75833333333333,42.25833333333333,57.0,75.0
134,42.25833333333333,42.31041666666667,62.0,73.0
135,42.25833333333333,42.358333333333334,65.0,82.0
136,43.25833333333333,43.385416666666664,65.0,83.0
137,43.25833333333333,43.389583333333334,62.0,80.0
138,43.75833333333333,44.327083333333334,57.0,67.0
139,44.25833333333333,44.86666666666667,62.0,78.0
140,44.25833333333333,44.99166666666667,65.0,83.0
141,44.75833333333333,45.0375,57.0,81.0
142,41.25833333333333,45.10625,50.0,82.0
143,45.25833333333333,45.87916666666666,60.0,76.0
144,45.25833333333333,46.0375,57.0,70.0
145,46.25833333333333,46.44166666666666,57.0,82.0
146,45.75833333333333,46.60208333333333,52.0,73.0
147,45.25833333333333,46.6375,45.0,78.0
148,46.25833333333333,46.791666666666664,60.0,87.0
149,46.25833333333333,46.83958333333333,64.0,83.0
150,46.75833333333333,46.94166666666666,57.0,84.0
151,47.25833333333333,47.6,55.0,76.0
152,47.25833333333333,47.822916666666664,64.0,84.0
153,47.25833333333333,47.85,59.0,76.0
154,47.75833333333333,48.09166666666667,55.0,81.0
155,48.25833333333333,48.46458333333333,55.0,82.0
156,47.25833333333333,48.59166666666667,40.0,83.0
157,48.25833333333333,48.760416666666664,59.0,85.0
158,48.75833333333333,48.875,55.0,84.0
159,48.25833333333333,48.985416666666666,64.0,85.0
160,49.25833333333333,49.77916666666667,60.0,78.0
161,49.25833333333333,49.8375,57.0,75.0
162,50.25833333333333,50.45625,57.0,78.0
163,50.25833333333333,50.6625,64.0,86.0
164,50.25833333333333,50.70625,60.0,83.0
165,49.75833333333333,50.94583333333333,52.0,75.0
166,49.25833333333333,51.05,45.0,83.0
167,50.75833333333333,51.28125,57.0,84.0
168,51.25833333333333,51.864583333333336,65.0,81.0
169,51.75833333333333,52.35208333333333,57.0,84.0
170,51.25833333333333,52.65416666666667,50.0,82.0
171,52.75833333333333,52.922916666666666,57.0,76.0
172,52.25833333333333,53.30416666666667,62.0,81.0
173,53.25833333333333,53.85,64.0,82.0
174,53.25833333333333,54.329166666666666,59.0,75.0
175,53.75833333333333,54.50625,47.0,66.0
176,53.25833333333333,54.5875,40.0,83.0
177,54.25833333333333,54.699999999999996,67.0,82.0
178,54.25833333333333,54.78125,64.0,83.0
179,54.75833333333333,54.885416666666664,59.0,84.0
180,55.25833333333333,56.141666666666666,60.0,75.0
181,55.25833333333333,56.37291666666667,57.0,72.0
182,55.75833333333333,56.71041666666667,52.0,78.0
183,56.25833333333333,56.71666666666667,64.0,91.0
184,55.25833333333333,56.762499999999996,45.0,82.0
185,56.75833333333333,56.889583333333334,60.0,81.0
186,57.25833333333333,57.525,57.0,74.0
187,57.25833333333333,57.797916666666666,62.0,80.0
188,57.75833333333333,58.354166666666664,57.0,74.0
189,58.25833333333333,58.395833333333336,62.0,76.0
190,58.25833333333333,58.46041666666667,65.0,77.0
191,58.75833333333333,59.14375,57.0,75.0
192,59.25833333333333,59.520833333333336,57.0,77.0
193,59.25833333333333,59.827083333333334,62.0,82.0
194,59.25833333333333,59.87916666666666,65.0,78.0
195,59.75833333333333,60.03541666666666,57.0,70.0
196,60.25833333333333,60.449999999999996,57.0,81.0
197,60.25833333333333,60.672916666666666,62.0,80.0
198,57.25833333333333,60.7125,50.0,83.0
199,60.25833333333333,60.87083333333333,65.0,79.0
200,60.75833333333333,61.074999999999996,57.0,77.0
201,61.25833333333333,61.50833333333333,55.0,80.0
202,61.25833333333333,61.829166666666666,59.0,77.0
203,61.75833333333333,62.3375,55.0,75.0
204,61.25833333333333,62.43125,40.0,83.0
205,62.25833333333333,62.7875,64.0,84.0
206,62.25833333333333,62.86666666666667,59.0,82.0
207,62.75833333333333,62.93125,55.0,79.0
208,63.25833333333333,63.9125,60.0,79.0
209,63.25833333333333,63.92916666666667,57.0,77.0
210,64.25833333333333,64.75416666666666,57.0,78.0
211,64.25833333333333,64.9,60.0,83.0
212,64.25833333333333,64.92291666666667,64.0,83.0
213,63.25833333333333,65.01666666666667,45.0,82.0
214,63.75833333333333,65.03958333333333,52.0,76.0
215,65.25833333333333,65.90416666666667,60.0,71.0
216,65.25833333333333,65.90625,57.0,47.0
217,66.25833333333333,66.41458333333333,57.0,83.0
218,66.25833333333333,66.77083333333333,64.0,82.0
219,66.75833333333333,67.02916666666667,57.0,83.0
220,67.25833333333333,67.47916666666667,57.0,75.0
221,67.25833333333333,67.69791666666667,60.0,73.0
222,67.75833333333333,67.91041666666666,57.0,56.0
223,68.25833333333333,68.43958333333333,57.0,78.0
224,65.75833333333333,68.73958333333333,52.0,76.0
225,68.25833333333333,68.76458333333333,60.0,83.0
226,65.25833333333333,68.80833333333334,45.0,83.0
227,68.25833333333333,68.81875,64.0,83.0
228,68.75833333333333,68.92083333333333,57.0,84.0
229,69.25833333333333,69.76875,59.0,78.0
230,70.00833333333333,70.2,59.0,75.0
231,69.75833333333333,70.21041666666666,55.0,71.0
232,69.50833333333333,70.66875,47.0,64.0
233,69.25833333333333,70.7,40.0,84.0
234,70.25833333333333,70.80625,59.0,77.0
235,70.75833333333333,70.88958333333333,55.0,82.0
236,70.25833333333333,71.18541666666667,64.0,83.0
237,71.25833333333333,71.85,60.0,70.0
238,71.25833333333333,71.93541666666667,57.0,67.0
239,72.25833333333333,72.58125,64.0,84.0
240,72.25833333333333,72.58541666666666,57.0,81.0
241,72.75833333333333,72.98333333333333,60.0,83.0
242,71.25833333333333,72.99791666666667,45.0,82.0
243,71.75833333333333,73.00416666666666,52.0,69.0
244,73.25833333333333,74.05,62.0,80.0
245,73.25833333333333,74.13541666666667,57.0,76.0
246,74.25833333333333,74.73125,65.0,85.0
247,73.75833333333333,74.74375,53.0,66.0
248,73.25833333333333,74.86666666666666,50.0,83.0
249,74.75833333333333,75.11875,57.0,86.0
250,75.25833333333333,75.525,57.0,77.0
251,75.25833333333333,75.8625,62.0,77.0
252,75.75833333333333,76.33541666666666,57.0,75.0
253,76.25833333333333,76.70208333333333,65.0,82.0
254,76.75833333333333,77.0875,57.0,71.0
255,76.25833333333333,77.12916666666666,62.0,82.0
256,75.25833333333333,77.20833333333333,50.0,83.0
257,77.25833333333333,77.9,60.0,78.0
258,77.25833333333333,77.93125,57.0,80.0
259,78.25833333333333,78.44791666666667,57.0,81.0
260,78.25833333333333,78.80416666666666,60.0,83.0
261,77.25833333333333,78.8625,45.0,82.0
262,78.75833333333333,79.1,57.0,83.0
263,78.25833333333333,79.32291666666667,64.0,83.0
264,77.75833333333333,79.38125,52.0,73.0
265,79.25833333333333,79.78125,59.0,83.0
266,79.75833333333333,80.11458333333333,55.0,83.0
267,80.00833333333333,80.29583333333333,59.0,85.0
268,80.25833333333333,80.7125,64.0,88.0
269,80.50833333333333,80.83958333333334,59.0,79.0
270,79.25833333333333,80.88333333333333,43.0,80.0
271,80.75833333333333,80.91041666666666,55.0,84.0
272,79.50833333333333,80.99166666666666,52.0,77.0
273,81.25833333333333,81.82083333333333,60.0,78.0
274,81.25833333333333,82.03125,57.0,75.0
275,82.25833333333333,82.45208333333333,57.0,81.0
276,82.25833333333333,82.73541666666667,64.0,83.0
277,81.75833333333333,82.81041666666667,52.0,70.0
278,81.25833333333333,82.8375,45.0,83.0
279,82.75833333333333,83.36875,57.0,81.0
280,83.25833333333333,83.8125,62.0,80.0
281,83.75833333333333,84.31666666666666,57.0,80.0
282,83.25833333333333,84.87291666666667,38.0,83.0
283,84.75833333333333,84.91041666666666,57.0,82.0
284,84.25833333333333,84.91458333333333,65.0,83.0
285,85.25833333333333,85.57291666666667,59.0,78.0
286,85.25833333333333,86.025,67.0,77.0
287,85.75833333333333,86.11666666666666,59.0,69.0
288,86.25833333333333,86.54166666666667,59.0,82.0
289,86.25833333333333,86.73958333333333,64.0,81.0
290,86.25833333333333,86.79166666666667,67.0,75.0
291,86.50833333333333,86.82083333333333,47.0,64.0
292,85.25833333333333,86.84375,40.0,84.0
293,86.75833333333333,86.94583333333333,59.0,84.0
294,87.25833333333333,87.81458333333333,60.0,76.0
295,87.25833333333333,87.85208333333333,57.0,77.0
296,88.25833333333333,88.38333333333333,60.0,83.0
297,88.25833333333333,88.45,57.0,78.0
298,88.25833333333333,88.56041666666667,64.0,85.0
299,87.75833333333333,88.70625,52.0,71.0
300,87.25833333333333,88.75,45.0,82.0
301,88.50833333333333,88.77708333333334,62.0,82.0
302,88.75833333333333,89.22916666666667,60.0,85.0
303,89.25833333333333,89.81041666666667,59.0,72.0
304,89.25833333333333,89.89583333333333,67.0,74.0
305,90.25833333333333,90.47916666666667,59.0,84.0
306,89.75833333333333,90.68541666666667,47.0,71.0
307,89.25833333333333,90.73333333333333,40.0,83.0
308,90.25833333333333,90.825,64.0,84.0
309,90.75833333333333,90.90625,59.0,84.0
310,91.25833333333333,91.5625,57.0,78.0
311,91.25833333333333,91.79166666666667,62.0,78.0
312,91.75833333333333,92.2875,57.0,82.0
313,92.25833333333333,92.80625,62.0,79.0
314,92.25833333333333,92.81875,65.0,82.0
315,92.75833333333333,92.92083333333333,57.0,87.0
316,91.25833333333333,92.95,38.0,85.0
317,93.75833333333333,94.13958333333333,59.0,82.0
318,93.25833333333333,94.43958333333333,40.0,86.0
319,94.25833333333333,94.48333333333333,59.0,83.0
320,94.25833333333333,94.82916666666667,64.0,83.0
321,94.75833333333333,94.91458333333333,59.0,82.0
322,95.25833333333333,95.75625,57.0,76.0
323,95.25833333333333,95.83333333333333,60.0,77.0
324,96.00833333333333,96.13333333333333,57.0,83.0
325,95.75833333333333,96.3375,52.0,81.0
326,96.25833333333333,96.59583333333333,60.0,89.0
327,96.25833333333333,96.59791666666666,57.0,88.0
328,96.75833333333333,96.98333333333333,62.0,87.0
329,96.50833333333333,97.025,52.0,88.0
330,95.25833333333333,97.02916666666667,45.0,81.0
331,97.25833333333333,97.80208333333333,57.0,81.0
332,97.25833333333333,97.82708333333333,64.0,87.0
333,97.75833333333333,98.37708333333333,52.0,77.0
334,98.25833333333333,98.62708333333333,60.0,84.0
335,98.25833333333333,98.70208333333333,64.0,89.0
336,97.25833333333333,99.11458333333333,45.0,85.0
337,98.50833333333333,99.14375,52.0,78.0
338,98.75833333333333,99.36458333333333,57.0,81.0
339,99.00833333333333,99.75416666666666,60.0,77.0
340,99.75833333333333,100.06041666666667,57.0,72.0
341,100.00833333333333,100.16875,60.0,71.0
342,99.50833333333333,100.40416666666667,52.0,72.0
343,100.25833333333333,100.76041666666667,60.0,83.0
344,100.25833333333333,100.79583333333333,64.0,88.0
345,99.25833333333333,100.81041666666667,45.0,84.0
346,100.50833333333333,100.83958333333334,52.0,84.0
347,100.75833333333333,100.94791666666667,57.0,86.0
348,101.25833333333333,101.74791666666667,59.0,82.0
349,101.75833333333333,102.1625,52.0,70.0
350,102.00833333333333,102.27708333333334,55.0,73.0
351,102.25833333333333,102.58125,59.0,88.0
352,101.50833333333333,102.60833333333333,47.0,71.0
353,101.25833333333333,102.69375,40.0,84.0
354,102.50833333333333,102.78958333333333,55.0,82.0
355,102.75833333333333,103.1,52.0,83.0
356,103.00833333333333,103.25416666666666,55.0,75.0
357,103.25833333333333,103.6,57.0,77.0
358,103.75833333333333,104.06041666666667,57.0,83.0
359,104.00833333333333,104.28541666666666,60.0,77.0
360,104.25833333333333,104.54166666666667,64.0,89.0
361,104.50833333333333,104.79166666666667,60.0,82.0
362,104.75833333333333,105.07083333333333,57.0,83.0
363,103.25833333333333,105.09166666666667,45.0,82.0
364,103.50833333333333,105.1,52.0,77.0
365,105.25833333333333,105.78958333333333,60.0,84.0
366,105.75833333333333,106.07291666666667,57.0,82.0
367,106.00833333333333,106.3125,60.0,82.0
368,106.25833333333333,106.52499999999999,64.0,89.0
369,106.50833333333333,106.73333333333333,60.0,84.0
370,105.50833333333333,107.11041666666667,52.0,73.0
371,105.25833333333333,107.13125,45.0,82.0
372,106.75833333333333,107.25833333333333,57.0,82.0
373,107.00833333333333,107.43333333333334,60.0,76.0
374,107.25833333333333,107.69375,64.0,76.0
375,107.75833333333333,108.0625,60.0,82.0
376,107.50833333333333,108.15208333333334,57.0,82.0
377,108.00833333333333,108.32916666666667,64.0,83.0
378,107.50833333333333,108.625,52.0,76.0
379,108.25833333333333,108.66041666666666,69.0,83.0
380,107.25833333333333,108.72916666666667,45.0,85.0
381,108.50833333333333,108.8125,64.0,85.0
382,108.75833333333333,109.02499999999999,60.0,83.0
383,109.00833333333333,109.29583333333333,57.0,77.0
384,109.25833333333333,109.61458333333333,55.0,78.0
385,109.25833333333333,109.79583333333333,59.0,75.0
386,109.75833333333333,110.06875,55.0,82.0
387,110.00833333333333,110.29375,59.0,82.0
388,110.25833333333333,110.57291666666667,62.0,85.0
389,110.50833333333333,110.80416666666666,59.0,85.0
390,109.50833333333333,110.93541666666667,50.0,71.0
391,109.25833333333333,111.00625,43.0,79.0
392,110.75833333333333,111.12083333333334,55.0,84.0
393,111.00833333333333,111.33541666666666,59.0,82.0
394,111.25833333333333,111.86874999999999,64.0,84.0
395,111.75833333333333,112.08125,55.0,83.0
396,112.00833333333333,112.29166666666667,59.0,83.0
397,111.50833333333333,112.58333333333333,47.0,76.0
398,111.25833333333333,112.62083333333334,40.0,83.0
399,112.25833333333333,112.66458333333333,64.0,88.0
400,112.50833333333333,112.7875,59.0,87.0
401,112.75833333333333,113.06458333333333,55.0,83.0
402,113.00833333333333,113.21458333333334,59.0,83.0
403,113.25833333333333,113.57083333333333,57.0,78.0
404,113.25833333333333,113.80416666666666,60.0,84.0
405,113.75833333333333,114.09791666666666,57.0,75.0
406,114.00833333333333,114.29166666666667,60.0,77.0
407,114.25833333333333,114.51875,64.0,88.0
408,114.50833333333333,114.83125,60.0,82.0
409,114.75833333333333,115.07291666666667,57.0,73.0
410,113.50833333333333,115.13125,52.0,74.0
411,113.25833333333333,115.16875,45.0,84.0
412,115.00833333333333,115.20625,60.0,75.0
413,115.25833333333333,115.63541666666667,62.0,76.0
414,115.75833333333333,116.13333333333333,57.0,77.0
415,116.00833333333333,116.28541666666666,62.0,74.0
416,116.25833333333333,116.58749999999999,65.0,85.0
417,115.50833333333333,116.76041666666667,53.0,71.0
418,115.25833333333333,116.76666666666667,50.0,85.0
419,116.50833333333333,116.83749999999999,62.0,80.0
420,116.75833333333333,116.99583333333334,57.0,78.0
421,117.25833333333333,117.46249999999999,59.0,77.0
422,117.25833333333333,117.76666666666667,64.0,79.0
423,117.75833333333333,118.13125,59.0,82.0
424,118.00833333333333,118.31875,64.0,77.0
425,118.25833333333333,118.58541666666666,67.0,83.0
426,118.50833333333333,118.825,64.0,81.0
427,117.50833333333333,118.83541666666666,47.0,76.0
428,117.25833333333333,118.84166666666667,40.0,76.0
429,118.75833333333333,119.12083333333334,59.0,82.0
430,119.00833333333333,119.15416666666667,64.0,76.0
431,119.25833333333333,119.75625,60.0,77.0
432,119.75833333333333,120.06458333333333,57.0,80.0
433,120.00833333333333,120.16041666666666,60.0,82.0
434,120.25833333333333,120.58958333333334,64.0,88.0
435,120.50833333333333,120.79583333333333,57.0,82.0
436,119.50833333333333,121.075,52.0,76.0
437,120.75833333333333,121.07916666666667,60.0,82.0
438,119.25833333333333,121.125,45.0,82.0
439,121.00833333333333,121.34791666666666,57.0,73.0
440,121.25833333333333,121.60416666666667,62.0,77.0
441,121.50833333333333,121.81875,57.0,69.0
442,122.00833333333333,122.25,57.0,64.0
443,121.75833333333333,122.3125,62.0,74.0
444,122.25833333333333,122.63958333333333,65.0,82.0
445,121.25833333333333,122.65625,50.0,79.0
446,122.50833333333333,122.81666666666666,57.0,77.0
447,122.75833333333333,123.10416666666667,62.0,82.0
448,123.00833333333333,123.29375,57.0,82.0
449,123.25833333333333,123.73333333333333,65.0,83.0
450,123.50833333333333,123.80624999999999,57.0,70.0
451,123.25833333333333,124.07083333333333,38.0,83.0
452,124.00833333333333,124.25,57.0,78.0
453,123.75833333333333,124.29375,62.0,78.0
454,124.25833333333333,124.80833333333334,65.0,84.0
455,124.50833333333333,124.81666666666666,57.0,71.0
456,124.75833333333333,124.92083333333333,62.0,76.0
457,125.25833333333333,125.39583333333333,59.0,73.0
458,125.25833333333333,125.56666666666666,64.0,78.0
459,125.50833333333333,125.83333333333333,59.0,77.0
460,125.75833333333333,126.03541666666666,64.0,77.0
461,126.00833333333333,126.32083333333333,67.0,83.0
462,126.25833333333333,126.56666666666666,64.0,84.0
463,125.25833333333333,126.66875,40.0,83.0
464,126.50833333333333,126.76458333333333,59.0,81.0
465,126.75833333333333,127.03958333333333,64.0,75.0
466,127.00833333333333,127.17291666666667,59.0,75.0
467,127.25833333333333,127.51041666666667,57.0,77.0
468,127.25833333333333,127.78125,60.0,76.0
469,127.75833333333333,128.06458333333333,57.0,80.0
470,128.00833333333333,128.13333333333333,60.0,71.0
471,128.25833333333333,128.52083333333334,64.0,79.0
472,128.50833333333333,128.75416666666666,60.0,70.0
473,127.25833333333333,128.9,45.0,75.0
474,127.50833333333333,128.91875,52.0,78.0
475,128.75833333333333,128.94166666666666,57.0,68.0
476,129.25833333333333,129.80208333333334,57.0,81.0
477,129.25833333333333,129.82708333333332,64.0,87.0
478,129.75833333333333,130.37708333333333,52.0,77.0
479,130.25833333333333,130.62708333333333,60.0,84.0
480,130.25833333333333,130.70208333333332,64.0,89.0
481,129.25833333333333,131.11458333333334,45.0,85.0
482,130.50833333333333,131.14375,52.0,78.0
483,130.75833333333333,131.36458333333334,57.0,81.0
484,131.00833333333333,131.75416666666666,60.0,77.0
485,131.75833333333333,132.06041666666667,57.0,72.0
486,132.00833333333333,132.16875,60.0,71.0
487,131.50833333333333,132.40416666666667,52.0,72.0
488,132.25833333333333,132.76041666666666,60.0,83.0
489,132.25833333333333,132.79583333333332,64.0,88.0
490,131.25833333333333,132.81041666666667,45.0,84.0
491,132.50833333333333,132.83958333333334,52.0,84.0
492,132.75833333333333,132.94791666666666,57.0,86.0
493,133.25833333333333,133.74791666666667,59.0,82.0
494,133.75833333333333,134.1625,52.0,70.0
495,134.00833333333333,134.27708333333334,55.0,73.0
496,134.25833333333333,134.58125,59.0,88.0
497,133.50833333333333,134.60833333333332,47.0,71.0
498,133.25833333333333,134.69375,40.0,84.0
499,134.50833333333333,134.78958333333333,55.0,82.0
500,134.75833333333333,135.1,52.0,83.0
501,135.00833333333333,135.25416666666666,55.0,75.0
502,135.25833333333333,135.6,57.0,77.0
503,135.75833333333333,136.06041666666667,57.0,83.0
504,136.00833333333333,136.28541666666666,60.0,77.0
505,136.25833333333333,136.54166666666666,64.0,89.0
506,136.50833333333333,136.79166666666666,60.0,82.0
507,136.75833333333333,137.07083333333333,57.0,83.0
508,135.25833333333333,137.09166666666667,45.0,82.0
509,135.50833333333333,137.1,52.0,77.0
510,137.25833333333333,137.78958333333333,60.0,84.0
511,137.75833333333333,138.07291666666666,57.0,82.0
512,138.00833333333333,138.3125,60.0,82.0
513,138.25833333333333,138.525,64.0,89.0
514,138.50833333333333,138.73333333333332,60.0,84.0
515,137.50833333333333,139.11041666666665,52.0,73.0
516,137.25833333333333,139.13125,45.0,82.0
517,138.75833333333333,139.25833333333333,57.0,82.0
518,139.00833333333333,139.43333333333334,60.0,76.0
519,139.25833333333333,139.69375,64.0,76.0
520,139.75833333333333,140.0625,60.0,82.0
521,139.50833333333333,140.15208333333334,57.0,82.0
522,140.00833333333333,140.32916666666665,64.0,83.0
523,139.50833333333333,140.625,52.0,76.0
524,140.25833333333333,140.66041666666666,69.0,83.0
525,139.25833333333333,140.72916666666666,45.0,85.0
526,140.50833333333333,140.8125,64.0,85.0
527,140.75833333333333,141.025,60.0,83.0
528,141.00833333333333,141.29583333333332,57.0,77.0
529,141.25833333333333,141.61458333333334,55.0,78.0
530,141.25833333333333,141.79583333333332,59.0,75.0
531,141.75833333333333,142.06875,55.0,82.0
532,142.00833333333333,142.29375,59.0,82.0
533,142.25833333333333,142.57291666666666,62.0,85.0
534,142.50833333333333,142.80416666666667,59.0,85.0
535,141.50833333333333,142.93541666666667,50.0,71.0
536,141.25833333333333,143.00625,43.0,79.0
537,142.75833333333333,143.12083333333334,55.0,84.0
538,143.00833333333333,143.33541666666667,59.0,82.0
539,143.25833333333333,143.86875,64.0,84.0
540,143.75833333333333,144.08125,55.0,83.0
541,144.00833333333333,144.29166666666666,59.0,83.0
542,143.50833333333333,144.58333333333334,47.0,76.0
543,143.25833333333333,144.62083333333334,40.0,83.0
544,144.25833333333333,144.66458333333333,64.0,88.0
545,144.50833333333333,144.7875,59.0,87.0
546,144.75833333333333,145.06458333333333,55.0,83.0
547,145.00833333333333,145.21458333333334,59.0,83.0
548,145.25833333333333,145.57083333333333,57.0,78.0
549,145.25833333333333,145.80416666666667,60.0,84.0
550,145.75833333333333,146.09791666666666,57.0,75.0
551,146.00833333333333,146.29166666666666,60.0,77.0
552,146.25833333333333,146.51875,64.0,88.0
553,146.50833333333333,146.83125,60.0,82.0
554,146.75833333333333,147.07291666666666,57.0,73.0
555,145.50833333333333,147.13125,52.0,74.0
556,145.25833333333333,147.16875,45.0,84.0
557,147.00833333333333,147.20625,60.0,75.0
558,147.25833333333333,147.63541666666666,62.0,76.0
559,147.75833333333333,148.13333333333333,57.0,77.0
560,148.00833333333333,148.28541666666666,62.0,74.0
561,148.25833333333333,148.5875,65.0,85.0
562,147.50833333333333,148.76041666666666,53.0,71.0
563,147.25833333333333,148.76666666666665,50.0,85.0
564,148.50833333333333,148.8375,62.0,80.0
565,148.75833333333333,148.99583333333334,57.0,78.0
566,149.25833333333333,149.4625,59.0,77.0
567,149.25833333333333,149.76666666666665,64.0,79.0
568,149.75833333333333,150.13125,59.0,82.0
569,150.00833333333333,150.31875,64.0,77.0
570,150.25833333333333,150.58541666666667,67.0,83.0
571,150.50833333333333,150.825,64.0,81.0
572,149.50833333333333,150.83541666666667,47.0,76.0
573,149.25833333333333,150.84166666666667,40.0,76.0
574,150.75833333333333,151.12083333333334,59.0,82.0
575,151.00833333333333,151.15416666666667,64.0,76.0
576,151.25833333333333,151.75625,60.0,77.0
577,151.75833333333333,152.06458333333333,57.0,80.0
578,152.00833333333333,152.16041666666666,60.0,82.0
579,152.25833333333333,152.58958333333334,64.0,88.0
580,152.50833333333333,152.79583333333332,57.0,82.0
581,151.50833333333333,153.075,52.0,76.0
582,152.75833333333333,153.07916666666665,60.0,82.0
583,151.25833333333333,153.125,45.0,82.0
584,153.00833333333333,153.34791666666666,57.0,73.0
585,153.25833333333333,153.60416666666666,62.0,77.0
586,153.50833333333333,153.81875,57.0,69.0
587,154.00833333333333,154.25,57.0,64.0
588,153.75833333333333,154.3125,62.0,74.0
589,154.25833333333333,154.63958333333332,65.0,82.0
590,153.25833333333333,154.65625,50.0,79.0
591,154.50833333333333,154.81666666666666,57.0,77.0
592,154.75833333333333,155.10416666666666,62.0,82.0
593,155.00833333333333,155.29375,57.0,82.0
594,155.25833333333333,155.73333333333332,65.0,83.0
595,155.50833333333333,155.80625,57.0,70.0
596,155.25833333333333,156.07083333333333,38.0,83.0
597,156.00833333333333,156.25,57.0,78.0
598,155.75833333333333,156.29375,62.0,78.0
599,156.25833333333333,156.80833333333334,65.0,84.0
600,156.50833333333333,156.81666666666666,57.0,71.0
601,156.75833333333333,156.92083333333332,62.0,76.0
602,157.1125,158.3125,52.0,77.0
603,157.175,158.35833333333332,55.0,77.0
604,157.275,158.42083333333332,59.0,72.0
605,157.20208333333332,158.44166666666666,40.0,81.0
606,159.10208333333333,159.90833333333333,57.0,67.0
607,159.175,159.91458333333333,60.0,72.0
608,159.25,159.96666666666667,64.0,82.0
609,159.71875,160.34166666666667,52.0,70.0
610,160.24791666666667,160.65208333333334,57.0,82.0
611,160.24583333333334,160.70416666666665,60.0,86.0
612,160.74375,161.04375,59.0,83.0
613,161.00208333333333,161.18958333333333,60.0,82.0
614,160.47708333333333,161.23125,52.0,82.0
615,159.20833333333334,161.25416666666666,45.0,82.0
616,161.75833333333333,162.10416666666666,57.0,76.0
617,162.00833333333333,162.29166666666666,60.0,73.0
618,162.25833333333333,162.53333333333333,64.0,93.0
619,162.50833333333333,162.76041666666666,60.0,71.0
620,161.25833333333333,163.15416666666667,45.0,82.0
621,161.50833333333333,163.17291666666665,52.0,70.0
622,162.75833333333333,163.34166666666667,57.0,78.0
623,163.00833333333333,163.36458333333334,60.0,82.0
624,163.25833333333333,163.91458333333333,64.0,82.0
625,163.75833333333333,164.3375,57.0,78.0
626,164.00833333333333,164.42291666666665,60.0,82.0
627,163.50833333333333,164.58333333333334,52.0,79.0
628,163.25833333333333,164.6375,45.0,83.0
629,164.25833333333333,164.71458333333334,69.0,83.0
630,164.50833333333333,164.85416666666666,64.0,83.0
631,164.75833333333333,165.06458333333333,60.0,79.0
632,165.00833333333333,165.13958333333332,57.0,76.0
633,165.25833333333333,165.81458333333333,64.0,80.0
634,165.75833333333333,166.1125,59.0,79.0
635,166.00833333333333,166.27291666666667,64.0,65.0
636,166.25833333333333,166.54791666666665,67.0,83.0
637,166.50833333333333,166.82916666666665,64.0,84.0
638,165.25833333333333,167.075,40.0,83.0
639,166.75833333333333,167.11041666666665,59.0,82.0
640,165.50833333333333,167.11875,47.0,73.0
641,167.00833333333333,167.35416666666666,64.0,82.0
642,167.25833333333333,167.6375,59.0,83.0
643,167.50833333333333,167.80833333333334,64.0,79.0
644,167.75833333333333,168.24583333333334,67.0,74.0
645,168.00833333333333,168.34375,59.0,84.0
646,168.25833333333333,168.53125,64.0,86.0
647,167.25833333333333,168.68333333333334,40.0,83.0
648,168.75833333333333,169.03333333333333,59.0,82.0
649,168.50833333333333,169.07708333333332,67.0,83.0
650,169.00833333333333,169.13958333333332,64.0,74.0
651,169.25833333333333,169.78541666666666,60.0,80.0
652,169.75833333333333,170.03958333333333,57.0,81.0
653,170.00833333333333,170.33541666666667,60.0,80.0
654,170.25833333333333,170.53541666666666,64.0,85.0
655,170.50833333333333,170.80416666666667,60.0,78.0
656,170.75833333333333,171.09375,57.0,76.0
657,169.50833333333333,171.1375,52.0,71.0
658,169.25833333333333,171.17916666666667,45.0,82.0
659,171.00833333333333,171.23333333333332,64.0,82.0
660,171.25833333333333,171.74791666666667,62.0,77.0
661,171.75833333333333,172.05833333333334,57.0,83.0
662,172.00833333333333,172.3125,62.0,78.0
663,172.25833333333333,172.6125,65.0,87.0
664,171.50833333333333,172.67708333333334,53.0,73.0
665,171.25833333333333,172.6875,50.0,84.0
666,172.50833333333333,172.8125,62.0,78.0
667,172.75833333333333,173.05,57.0,83.0
668,173.00833333333333,173.30416666666667,62.0,79.0
669,173.25833333333333,173.7625,59.0,75.0
670,173.75833333333333,174.13541666666666,55.0,83.0
671,174.00833333333333,174.29791666666665,59.0,83.0
672,174.25833333333333,174.56666666666666,62.0,83.0
673,174.50833333333333,174.80208333333334,59.0,82.0
674,173.50833333333333,174.97708333333333,50.0,72.0
675,173.25833333333333,175.03958333333333,43.0,82.0
676,174.75833333333333,175.20208333333332,55.0,82.0
677,175.00833333333333,175.33333333333334,59.0,79.0
678,175.25833333333333,175.775,64.0,83.0
679,175.50833333333333,175.84583333333333,55.0,83.0
680,175.75833333333333,176.04375,59.0,83.0
681,176.00833333333333,176.37291666666667,64.0,89.0
682,175.25833333333333,176.57291666666666,40.0,83.0
683,176.25833333333333,176.63541666666666,55.0,88.0
684,176.50833333333333,176.8375,59.0,87.0
685,177.00833333333333,177.13333333333333,55.0,82.0
686,176.75833333333333,177.18125,64.0,88.0
687,177.25833333333333,177.4375,57.0,75.0
688,177.25833333333333,177.77083333333334,60.0,83.0
689,177.75833333333333,178.03958333333333,57.0,82.0
690,178.00833333333333,178.14375,60.0,80.0
691,177.50833333333333,178.37916666666666,52.0,82.0
692,178.25833333333333,178.50416666666666,57.0,82.0
693,178.25833333333333,178.66458333333333,64.0,87.0
694,178.25833333333333,178.73541666666665,60.0,87.0
695,178.75833333333333,179.1,57.0,77.0
696,177.25833333333333,179.15625,45.0,83.0
697,178.50833333333333,179.15833333333333,52.0,79.0
698,179.00833333333333,179.19791666666666,60.0,82.0
699,179.25833333333333,179.78541666666666,62.0,84.0
700,179.75833333333333,180.10208333333333,57.0,82.0
701,180.00833333333333,180.17083333333332,62.0,76.0
702,180.25833333333333,180.52083333333334,57.0,83.0
703,180.25833333333333,180.55208333333334,65.0,83.0
704,179.25833333333333,180.6,50.0,86.0
705,179.50833333333333,180.62083333333334,53.0,61.0
706,180.50833333333333,180.82708333333332,62.0,79.0
707,180.75833333333333,180.89375,57.0,83.0
708,181.25833333333333,181.5375,59.0,77.0
709,181.25833333333333,181.75416666666666,64.0,83.0
710,181.75833333333333,182.09791666666666,59.0,86.0
711,182.00833333333333,182.30833333333334,64.0,79.0
712,182.25833333333333,182.52291666666667,67.0,86.0
713,182.50833333333333,182.83541666666667,64.0,82.0
714,181.25833333333333,183.06875,40.0,83.0
715,181.50833333333333,183.08333333333334,47.0,68.0
716,182.75833333333333,183.1625,59.0,83.0
717,183.00833333333333,183.34166666666667,64.0,77.0
718,183.25833333333333,183.76458333333332,60.0,78.0
719,183.75833333333333,184.0625,57.0,83.0
720,184.00833333333333,184.3,60.0,81.0
721,184.25833333333333,184.54583333333332,64.0,89.0
722,183.25833333333333,184.57291666666666,45.0,82.0
723,183.50833333333333,184.57291666666666,52.0,78.0
724,184.50833333333333,184.79166666666666,60.0,80.0
725,184.75833333333333,185.04791666666665,57.0,84.0
726,185.25833333333333,185.71666666666667,38.0,84.0
727,185.25833333333333,186.3375,57.0,78.0
728,185.25833333333333,186.34791666666666,62.0,81.0
729,187.08125,188.48541666666665,52.0,74.0
730,187.15833333333333,188.51041666666666,55.0,75.0
731,187.23958333333334,188.53125,59.0,75.0
732,187.29375,188.6375,64.0,77.0
733,187.20208333333332,188.65833333333333,40.0,83.0
734,189.18958333333333,189.93958333333333,60.0,74.0
735,189.24375,189.975,64.0,70.0
736,189.11458333333334,190.01875,57.0,65.0
737,189.70833333333334,190.34166666666667,52.0,67.0
738,189.22083333333333,190.40416666666667,45.0,83.0
739,190.22083333333333,190.44583333333333,57.0,75.0
740,190.2125,190.73958333333334,69.0,83.0
741,190.20625,191.02708333333334,60.0,84.0
742,190.21458333333334,191.03125,64.0,85.0
743,190.73333333333332,191.07291666666666,57.0,66.0
744,191.24583333333334,191.36041666666665,57.0,55.0
745,191.22291666666666,191.83333333333334,69.0,78.0
746,191.22916666666666,191.91875,60.0,75.0
747,191.23541666666665,191.93541666666667,64.0,74.0
748,191.68958333333333,192.05625,57.0,62.0
749,192.20625,192.78125,69.0,82.0
750,192.43125,193.20625,64.0,78.0
751,192.70208333333332,193.22083333333333,60.0,77.0
752,193.25833333333333,193.90416666666667,60.0,71.0
753,193.25833333333333,193.90625,57.0,47.0
754,194.25833333333333,194.41458333333333,57.0,83.0
755,194.25833333333333,194.77083333333334,64.0,82.0
756,194.75833333333333,195.02916666666667,57.0,83.0
757,195.25833333333333,195.47916666666666,57.0,75.0
758,195.25833333333333,195.69791666666666,60.0,73.0
759,195.75833333333333,195.91041666666666,57.0,56.0
760,196.25833333333333,196.43958333333333,57.0,78.0
761,193.75833333333333,196.73958333333334,52.0,76.0
762,196.25833333333333,196.76458333333332,60.0,83.0
763,193.25833333333333,196.80833333333334,45.0,83.0
764,196.25833333333333,196.81875,64.0,83.0
765,196.75833333333333,196.92083333333332,57.0,84.0
766,197.25833333333333,197.76875,59.0,78.0
767,198.00833333333333,198.2,59.0,75.0
768,197.75833333333333,198.21041666666667,55.0,71.0
769,197.50833333333333,198.66875,47.0,64.0
770,197.25833333333333,198.7,40.0,84.0
771,198.25833333333333,198.80625,59.0,77.0
772,198.75833333333333,198.88958333333332,55.0,82.0
773,198.25833333333333,199.18541666666667,64.0,83.0
774,199.25833333333333,199.85,60.0,70.0
775,199.25833333333333,199.93541666666667,57.0,67.0
776,200.25833333333333,200.58125,64.0,84.0
777,200.25833333333333,200.58541666666667,57.0,81.0
778,200.75833333333333,200.98333333333332,60.0,83.0
779,199.25833333333333,200.99791666666667,45.0,82.0
780,199.75833333333333,201.00416666666666,52.0,69.0
781,201.25833333333333,202.05,62.0,80.0
782,201.25833333333333,202.13541666666666,57.0,76.0
783,202.25833333333333,202.73125,65.0,85.0
784,201.75833333333333,202.74375,53.0,66.0
785,201.25833333333333,202.86666666666667,50.0,83.0
786,202.75833333333333,203.11875,57.0,86.0
787,203.25833333333333,203.525,57.0,77.0
788,203.25833333333333,203.8625,62.0,77.0
789,203.75833333333333,204.33541666666667,57.0,75.0
790,204.25833333333333,204.70208333333332,65.0,82.0
791,204.75833333333333,205.0875,57.0,71.0
792,204.25833333333333,205.12916666666666,62.0,82.0
793,203.25833333333333,205.20833333333334,50.0,83.0
794,205.25833333333333,205.9,60.0,78.0
795,205.25833333333333,205.93125,57.0,80.0
796,206.25833333333333,206.44791666666666,57.0,81.0
797,206.25833333333333,206.80416666666667,60.0,83.0
798,205.25833333333333,206.86249999999998,45.0,82.0
799,206.75833333333333,207.1,57.0,83.0
800,206.25833333333333,207.32291666666666,64.0,83.0
801,205.75833333333333,207.38125,52.0,73.0
802,207.25833333333333,207.78125,59.0,83.0
803,207.75833333333333,208.11458333333334,55.0,83.0
804,208.00833333333333,208.29583333333332,59.0,85.0
805,208.25833333333333,208.7125,64.0,88.0
806,208.50833333333333,208.83958333333334,59.0,79.0
807,207.25833333333333,208.88333333333333,43.0,80.0
808,208.75833333333333,208.91041666666666,55.0,84.0
809,207.50833333333333,208.99166666666667,52.0,77.0
810,209.25833333333333,209.82083333333333,60.0,78.0
811,209.25833333333333,210.03125,57.0,75.0
812,210.25833333333333,210.45208333333332,57.0,81.0
813,210.25833333333333,210.73541666666665,64.0,83.0
814,209.75833333333333,210.81041666666667,52.0,70.0
815,209.25833333333333,210.8375,45.0,83.0
816,210.75833333333333,211.36875,57.0,81.0
817,211.25833333333333,211.8125,62.0,80.0
818,211.75833333333333,212.31666666666666,57.0,80.0
819,211.25833333333333,212.87291666666667,38.0,83.0
820,212.75833333333333,212.91041666666666,57.0,82.0
821,212.25833333333333,212.91458333333333,65.0,83.0
822,213.25833333333333,213.57291666666666,59.0,78.0
823,213.25833333333333,214.025,67.0,77.0
824,213.75833333333333,214.11666666666667,59.0,69.0
825,214.25833333333333,214.54166666666666,59.0,82.0
826,214.25833333333333,214.73958333333334,64.0,81.0
827,214.25833333333333,214.79166666666666,67.0,75.0
828,214.50833333333333,214.82083333333333,47.0,64.0
829,213.25833333333333,214.84375,40.0,84.0
830,214.75833333333333,214.94583333333333,59.0,84.0
831,215.25833333333333,215.81458333333333,60.0,76.0
832,215.25833333333333,215.85208333333333,57.0,77.0
833,216.25833333333333,216.38333333333333,60.0,83.0
834,216.25833333333333,216.45,57.0,78.0
835,216.25833333333333,216.56041666666667,64.0,85.0
836,215.75833333333333,216.70624999999998,52.0,71.0
837,215.25833333333333,216.75,45.0,82.0
838,216.50833333333333,216.77708333333334,62.0,82.0
839,216.75833333333333,217.22916666666666,60.0,85.0
840,217.25833333333333,217.81041666666667,59.0,72.0
841,217.25833333333333,217.89583333333334,67.0,74.0
842,218.25833333333333,218.47916666666666,59.0,84.0
843,217.75833333333333,218.68541666666667,47.0,71.0
844,217.25833333333333,218.73333333333332,40.0,83.0
845,218.25833333333333,218.825,64.0,84.0
846,218.75833333333333,218.90625,59.0,84.0
847,219.25833333333333,219.5625,57.0,78.0
848,219.25833333333333,219.79166666666666,62.0,78.0
849,219.75833333333333,220.2875,57.0,82.0
850,220.25833333333333,220.80625,62.0,79.0
851,220.25833333333333,220.81875,65.0,82.0
852,220.75833333333333,220.92083333333332,57.0,87.0
853,219.25833333333333,220.95,38.0,85.0
854,221.75833333333333,222.13958333333332,59.0,82.0
855,221.25833333333333,222.43958333333333,40.0,86.0
856,222.25833333333333,222.48333333333332,59.0,83.0
857,222.25833333333333,222.82916666666665,64.0,83.0
858,222.75833333333333,222.91458333333333,59.0,82.0
859,223.25833333333333,223.75625,57.0,76.0
860,223.25833333333333,223.83333333333334,60.0,77.0
861,224.00833333333333,224.13333333333333,57.0,83.0
862,223.75833333333333,224.3375,52.0,81.0
863,224.25833333333333,224.59583333333333,60.0,89.0
864,224.25833333333333,224.59791666666666,57.0,88.0
865,224.75833333333333,224.98333333333332,62.0,87.0
866,224.50833333333333,225.025,52.0,88.0
867,223.25833333333333,225.02916666666667,45.0,81.0
868,225.25833333333333,225.80208333333334,57.0,81.0
869,225.25833333333333,225.82708333333332,64.0,87.0
870,225.75833333333333,226.37708333333333,52.0,77.0
871,226.25833333333333,226.62708333333333,60.0,84.0
872,226.25833333333333,226.70208333333332,64.0,89.0
873,225.25833333333333,227.11458333333334,45.0,85.0
874,226.50833333333333,227.14374999999998,52.0,78.0
875,226.75833333333333,227.36458333333334,57.0,81.0
876,227.00833333333333,227.75416666666666,60.0,77.0
877,227.75833333333333,228.06041666666667,57.0,72.0
878,228.00833333333333,228.16875,60.0,71.0
879,227.50833333333333,228.40416666666667,52.0,72.0
880,228.25833333333333,228.76041666666666,60.0,83.0
881,228.25833333333333,228.79583333333332,64.0,88.0
882,227.25833333333333,228.81041666666667,45.0,84.0
883,228.50833333333333,228.83958333333334,52.0,84.0
884,228.75833333333333,228.94791666666666,57.0,86.0
885,229.25833333333333,229.74791666666667,59.0,82.0
886,229.75833333333333,230.1625,52.0,70.0
887,230.00833333333333,230.27708333333334,55.0,73.0
888,230.25833333333333,230.58124999999998,59.0,88.0
889,229.50833333333333,230.60833333333332,47.0,71.0
890,229.25833333333333,230.69375,40.0,84.0
891,230.50833333333333,230.78958333333333,55.0,82.0
892,230.75833333333333,231.1,52.0,83.0
893,231.00833333333333,231.25416666666666,55.0,75.0
894,231.25833333333333,231.6,57.0,77.0
895,231.75833333333333,232.06041666666667,57.0,83.0
896,232.00833333333333,232.28541666666666,60.0,77.0
897,232.25833333333333,232.54166666666666,64.0,89.0
898,232.50833333333333,232.79166666666666,60.0,82.0
899,232.75833333333333,233.07083333333333,57.0,83.0
900,231.25833333333333,233.09166666666667,45.0,82.0
901,231.50833333333333,233.1,52.0,77.0
902,233.25833333333333,233.78958333333333,60.0,84.0
903,233.75833333333333,234.07291666666666,57.0,82.0
904,234.00833333333333,234.3125,60.0,82.0
905,234.25833333333333,234.525,64.0,89.0
906,234.50833333333333,234.73333333333332,60.0,84.0
907,233.50833333333333,235.11041666666665,52.0,73.0
908,233.25833333333333,235.13125,45.0,82.0
909,234.75833333333333,235.25833333333333,57.0,82.0
910,235.00833333333333,235.43333333333334,60.0,76.0
911,235.25833333333333,235.69375,64.0,76.0
912,235.75833333333333,236.0625,60.0,82.0
913,235.50833333333333,236.15208333333334,57.0,82.0
914,236.00833333333333,236.32916666666665,64.0,83.0
915,235.50833333333333,236.625,52.0,76.0
916,236.25833333333333,236.66041666666666,69.0,83.0
917,235.25833333333333,236.72916666666666,45.0,85.0
918,236.50833333333333,236.8125,64.0,85.0
919,236.75833333333333,237.025,60.0,83.0
920,237.00833333333333,237.29583333333332,57.0,77.0
921,237.25833333333333,237.61458333333334,55.0,78.0
922,237.25833333333333,237.79583333333332,59.0,75.0
923,237.75833333333333,238.06875,55.0,82.0
924,238.00833333333333,238.29375,59.0,82.0
925,238.25833333333333,238.57291666666666,62.0,85.0
926,238.50833333333333,238.80416666666667,59.0,85.0
927,237.50833333333333,238.93541666666667,50.0,71.0
928,237.25833333333333,239.00625,43.0,79.0
929,238.75833333333333,239.12083333333334,55.0,84.0
930,239.00833333333333,239.33541666666667,59.0,82.0
931,239.25833333333333,239.86875,64.0,84.0
932,239.75833333333333,240.08124999999998,55.0,83.0
933,240.00833333333333,240.29166666666666,59.0,83.0
934,239.50833333333333,240.58333333333334,47.0,76.0
935,239.25833333333333,240.62083333333334,40.0,83.0
936,240.25833333333333,240.66458333333333,64.0,88.0
937,240.50833333333333,240.7875,59.0,87.0
938,240.75833333333333,241.06458333333333,55.0,83.0
939,241.00833333333333,241.21458333333334,59.0,83.0
940,241.25833333333333,241.57083333333333,57.0,78.0
941,241.25833333333333,241.80416666666667,60.0,84.0
942,241.75833333333333,242.09791666666666,57.0,75.0
943,242.00833333333333,242.29166666666666,60.0,77.0
944,242.25833333333333,242.51874999999998,64.0,88.0
945,242.50833333333333,242.83124999999998,60.0,82.0
946,242.75833333333333,243.07291666666666,57.0,73.0
947,241.50833333333333,243.13125,52.0,74.0
948,241.25833333333333,243.16875,45.0,84.0
949,243.00833333333333,243.20624999999998,60.0,75.0
950,243.25833333333333,243.63541666666666,62.0,76.0
951,243.75833333333333,244.13333333333333,57.0,77.0
952,244.00833333333333,244.28541666666666,62.0,74.0
953,244.25833333333333,244.5875,65.0,85.0
954,243.50833333333333,244.76041666666666,53.0,71.0
955,243.25833333333333,244.76666666666665,50.0,85.0
956,244.50833333333333,244.8375,62.0,80.0
957,244.75833333333333,244.99583333333334,57.0,78.0
958,245.25833333333333,245.4625,59.0,77.0
959,245.25833333333333,245.76666666666665,64.0,79.0
960,245.75833333333333,246.13125,59.0,82.0
961,246.00833333333333,246.31875,64.0,77.0
962,246.25833333333333,246.58541666666667,67.0,83.0
963,246.50833333333333,246.825,64.0,81.0
964,245.50833333333333,246.83541666666667,47.0,76.0
965,245.25833333333333,246.84166666666667,40.0,76.0
966,246.75833333333333,247.12083333333334,59.0,82.0
967,247.00833333333333,247.15416666666667,64.0,76.0
968,247.25833333333333,247.75625,60.0,77.0
969,247.75833333333333,248.06458333333333,57.0,80.0
970,248.00833333333333,248.16041666666666,60.0,82.0
971,248.25833333333333,248.58958333333334,64.0,88.0
972,248.50833333333333,248.79583333333332,57.0,82.0
973,247.50833333333333,249.075,52.0,76.0
974,248.75833333333333,249.07916666666665,60.0,82.0
975,247.25833333333333,249.125,45.0,82.0
976,249.00833333333333,249.34791666666666,57.0,73.0
977,249.25833333333333,249.60416666666666,62.0,77.0
978,249.50833333333333,249.81875,57.0,69.0
979,250.00833333333333,250.25,57.0,64.0
980,249.75833333333333,250.3125,62.0,74.0
981,250.25833333333333,250.63958333333332,65.0,82.0
982,249.25833333333333,250.65625,50.0,79.0
983,250.50833333333333,250.81666666666666,57.0,77.0
984,250.75833333333333,251.10416666666666,62.0,82.0
985,251.00833333333333,251.29375,57.0,82.0
986,251.25833333333333,251.73333333333332,65.0,83.0
987,251.50833333333333,251.80625,57.0,70.0
988,251.25833333333333,252.07083333333333,38.0,83.0
989,252.00833333333333,252.25,57.0,78.0
990,251.75833333333333,252.29375,62.0,78.0
991,252.25833333333333,252.80833333333334,65.0,84.0
992,252.50833333333333,252.81666666666666,57.0,71.0
993,252.75833333333333,252.92083333333332,62.0,76.0
994,253.25833333333333,253.39583333333334,59.0,73.0
995,253.25833333333333,253.56666666666666,64.0,78.0
996,253.50833333333333,253.83333333333334,59.0,77.0
997,253.75833333333333,254.03541666666666,64.0,77.0
998,254.00833333333333,254.32083333333333,67.0,83.0
999,254.25833333333333,254.56666666666666,64.0,84.0
1000,253.25833333333333,254.66875,40.0,83.0
1001,254.50833333333333,254.76458333333332,59.0,81.0
1002,254.75833333333333,255.03958333333333,64.0,75.0
1003,255.00833333333333,255.17291666666665,59.0,75.0
1004,255.25833333333333,255.51041666666666,57.0,77.0
1005,255.25833333333333,255.78125,60.0,76.0
1006,255.75833333333333,256.0645833333333,57.0,80.0
1007,256.0083333333333,256.1333333333333,60.0,71.0
1008,256.2583333333333,256.5208333333333,64.0,79.0
1009,256.5083333333333,256.75416666666666,60.0,70.0
1010,255.25833333333333,256.9,45.0,75.0
1011,255.50833333333333,256.91875,52.0,78.0
1012,256.7583333333333,256.94166666666666,57.0,68.0
1013,257.2583333333333,257.8020833333333,57.0,81.0
1014,257.2583333333333,257.82708333333335,64.0,87.0
1015,257.7583333333333,258.3770833333333,52.0,77.0
1016,258.2583333333333,258.6270833333333,60.0,84.0
1017,258.2583333333333,258.70208333333335,64.0,89.0
1018,257.2583333333333,259.1145833333333,45.0,85.0
1019,258.5083333333333,259.14375,52.0,78.0
1020,258.7583333333333,259.3645833333333,57.0,81.0
1021,259.0083333333333,259.75416666666666,60.0,77.0
1022,259.7583333333333,260.06041666666664,57.0,72.0
1023,260.0083333333333,260.16875,60.0,71.0
1024,259.5083333333333,260.40416666666664,52.0,72.0
1025,260.2583333333333,260.7604166666667,60.0,83.0
1026,260.2583333333333,260.79583333333335,64.0,88.0
1027,259.2583333333333,260.81041666666664,45.0,84.0
1028,260.5083333333333,260.83958333333334,52.0,84.0
1029,260.7583333333333,260.9479166666667,57.0,86.0
1030,261.2583333333333,261.74791666666664,59.0,82.0
1031,261.7583333333333,262.1625,52.0,70.0
1032,262.0083333333333,262.27708333333334,55.0,73.0
1033,262.2583333333333,262.58125,59.0,88.0
1034,261.5083333333333,262.60833333333335,47.0,71.0
1035,261.2583333333333,262.69375,40.0,84.0
1036,262.5083333333333,262.7895833333333,55.0,82.0
1037,262.7583333333333,263.1,52.0,83.0
1038,263.0083333333333,263.25416666666666,55.0,75.0
1039,263.2583333333333,263.6,57.0,77.0
1040,263.7583333333333,264.06041666666664,57.0,83.0
1041,264.0083333333333,264.28541666666666,60.0,77.0
1042,264.2583333333333,264.5416666666667,64.0,89.0
1043,264.5083333333333,264.7916666666667,60.0,82.0
1044,264.7583333333333,265.0708333333333,57.0,83.0
1045,263.2583333333333,265.09166666666664,45.0,82.0
1046,263.5083333333333,265.1,52.0,77.0
1047,265.2583333333333,265.7895833333333,60.0,84.0
1048,265.7583333333333,266.0729166666667,57.0,82.0
1049,266.0083333333333,266.3125,60.0,82.0
1050,266.2583333333333,266.525,64.0,89.0
1051,266.5083333333333,266.73333333333335,60.0,84.0
1052,265.5083333333333,267.11041666666665,52.0,73.0
1053,265.2583333333333,267.13125,45.0,82.0
1054,266.7583333333333,267.2583333333333,57.0,82.0
1055,267.0083333333333,267.43333333333334,60.0,76.0
1056,267.2583333333333,267.69375,64.0,76.0
1057,267.7583333333333,268.0625,60.0,82.0
1058,267.5083333333333,268.15208333333334,57.0,82.0
1059,268.0083333333333,268.32916666666665,64.0,83.0
1060,267.5083333333333,268.625,52.0,76.0
1061,268.2583333333333,268.66041666666666,69.0,83.0
1062,267.2583333333333,268.7291666666667,45.0,85.0
1063,268.5083333333333,268.8125,64.0,85.0
1064,268.7583333333333,269.025,60.0,83.0
1065,269.0083333333333,269.29583333333335,57.0,77.0
1066,269.2583333333333,269.6145833333333,55.0,78.0
1067,269.2583333333333,269.79583333333335,59.0,75.0
1068,269.7583333333333,270.06875,55.0,82.0
1069,270.0083333333333,270.29375,59.0,82.0
1070,270.2583333333333,270.5729166666667,62.0,85.0
1071,270.5083333333333,270.8041666666667,59.0,85.0
1072,269.5083333333333,270.93541666666664,50.0,71.0
1073,269.2583333333333,271.00625,43.0,79.0
1074,270.7583333333333,271.12083333333334,55.0,84.0
1075,271.0083333333333,271.3354166666667,59.0,82.0
1076,271.2583333333333,271.86875,64.0,84.0
1077,271.7583333333333,272.08125,55.0,83.0
1078,272.0083333333333,272.2916666666667,59.0,83.0
1079,271.5083333333333,272.5833333333333,47.0,76.0
1080,271.2583333333333,272.62083333333334,40.0,83.0
1081,272.2583333333333,272.6645833333333,64.0,88.0
1082,272.5083333333333,272.7875,59.0,87.0
1083,272.7583333333333,273.0645833333333,55.0,83.0
1084,273.0083333333333,273.21458333333334,59.0,83.0
1085,273.2583333333333,273.5708333333333,57.0,78.0
1086,273.2583333333333,273.8041666666667,60.0,84.0
1087,273.7583333333333,274.09791666666666,57.0,75.0
1088,274.0083333333333,274.2916666666667,60.0,77.0
1089,274.2583333333333,274.51875,64.0,88.0
1090,274.5083333333333,274.83125,60.0,82.0
1091,274.7583333333333,275.0729166666667,57.0,73.0
1092,273.5083333333333,275.13125,52.0,74.0
1093,273.2583333333333,275.16875,45.0,84.0
1094,275.0083333333333,275.20625,60.0,75.0
1095,275.2583333333333,275.6354166666667,62.0,76.0
1096,275.7583333333333,276.1333333333333,57.0,77.0
1097,276.0083333333333,276.28541666666666,62.0,74.0
1098,276.2583333333333,276.5875,65.0,85.0
1099,275.5083333333333,276.7604166666667,53.0,71.0
1100,275.2583333333333,276.76666666666665,50.0,85.0
1101,276.5083333333333,276.8375,62.0,80.0
1102,276.7583333333333,276.99583333333334,57.0,78.0
1103,277.2583333333333,277.4625,59.0,77.0
1104,277.2583333333333,277.76666666666665,64.0,79.0
1105,277.7583333333333,278.13125,59.0,82.0
1106,278.0083333333333,278.31875,64.0,77.0
1107,278.2583333333333,278.5854166666667,67.0,83.0
1108,278.5083333333333,278.825,64.0,81.0
1109,277.5083333333333,278.8354166666667,47.0,76.0
1110,277.2583333333333,278.84166666666664,40.0,76.0
1111,278.7583333333333,279.12083333333334,59.0,82.0
1112,279.0083333333333,279.15416666666664,64.0,76.0
1113,279.2583333333333,279.75625,60.0,77.0
1114,279.7583333333333,280.0645833333333,57.0,80.0
1115,280.0083333333333,280.16041666666666,60.0,82.0
1116,280.2583333333333,280.58958333333334,64.0,88.0
1117,280.5083333333333,280.79583333333335,57.0,82.0
1118,279.5083333333333,281.075,52.0,76.0
1119,280.7583333333333,281.07916666666665,60.0,82.0
1120,279.2583333333333,281.125,45.0,82.0
1121,281.0083333333333,281.34791666666666,57.0,73.0
1122,281.2583333333333,281.6041666666667,62.0,77.0
1123,281.5083333333333,281.81875,57.0,69.0
1124,282.0083333333333,282.25,57.0,64.0
1125,281.7583333333333,282.3125,62.0,74.0
1126,282.2583333333333,282.63958333333335,65.0,82.0
1127,281.2583333333333,282.65625,50.0,79.0
1128,282.5083333333333,282.81666666666666,57.0,77.0
1129,282.7583333333333,283.1041666666667,62.0,82.0
1130,283.0083333333333,283.29375,57.0,82.0
1131,283.2583333333333,283.73333333333335,65.0,83.0
1132,283.5083333333333,283.80625,57.0,70.0
1133,283.2583333333333,284.0708333333333,38.0,83.0
1134,284.0083333333333,284.25,57.0,78.0
1135,283.7583333333333,284.29375,62.0,78.0
1136,284.2583333333333,284.80833333333334,65.0,84.0
1137,284.5083333333333,284.81666666666666,57.0,71.0
1138,284.7583333333333,284.92083333333335,62.0,76.0
1139,285.1125,286.3125,52.0,77.0
1140,285.175,286.35833333333335,55.0,77.0
1141,285.275,286.42083333333335,59.0,72.0
1142,285.20208333333335,286.44166666666666,40.0,81.0
1143,287.1020833333333,287.9083333333333,57.0,67.0
1144,287.175,287.9145833333333,60.0,72.0
1145,287.25,287.96666666666664,64.0,82.0
1146,287.71875,288.34166666666664,52.0,70.0
1147,288.24791666666664,288.65208333333334,57.0,82.0
1148,288.24583333333334,288.70416666666665,60.0,86.0
1149,288.74375,289.04375,59.0,83.0
1150,289.0020833333333,289.1895833333333,60.0,82.0
1151,288.4770833333333,289.23125,52.0,82.0
1152,287.2083333333333,289.25416666666666,45.0,82.0
1153,289.2583333333333,289.6041666666667,62.0,77.0
1154,289.5083333333333,289.81875,57.0,69.0
1155,290.0083333333333,290.25,57.0,64.0
1156,289.7583333333333,290.3125,62.0,74.0
1157,290.2583333333333,290.63958333333335,65.0,82.0
1158,289.2583333333333,290.65625,50.0,79.0
1159,290.5083333333333,290.81666666666666,57.0,77.0
1160,290.7583333333333,291.1041666666667,62.0,82.0
1161,291.0083333333333,291.29375,57.0,82.0
1162,291.2583333333333,291.73333333333335,65.0,83.0
1163,291.5083333333333,291.80625,57.0,70.0
1164,291.2583333333333,292.0708333333333,38.0,83.0
1165,292.0083333333333,292.25,57.0,78.0
1166,291.7583333333333,292.29375,62.0,78.0
1167,292.2583333333333,292.80833333333334,65.0,84.0
1168,292.5083333333333,292.81666666666666,57.0,71.0
1169,292.7583333333333,292.92083333333335,62.0,76.0
1170,293.20208333333335,294.44166666666666,40.0,81.0
1171,293.1125,296.8625,52.0,77.0
1172,293.175,296.91041666666666,55.0,77.0
1173,293.275,296.9708333333333,59.0,72.0
1174,297.26458333333335,298.12916666666666,60.0,71.0
1175,297.3833333333333,298.13125,64.0,78.0
1176,297.18333333333334,298.33125,57.0,78.0
1177,298.26666666666665,298.3979166666667,60.0,72.0
1178,298.30833333333334,298.81041666666664,69.0,82.0
1179,297.77916666666664,298.97291666666666,52.0,67.0
1180,297.20416666666665,299.04583333333335,45.0,82.0
1181,298.7416666666667,299.1125,57.0,82.0
1182,299.26875,299.78125,64.0,72.0
1183,299.2583333333333,299.85625,60.0,70.0
1184,300.0020833333333,300.1125,57.0,66.0
1185,299.7833333333333,300.3958333333333,52.0,61.0
1186,300.2604166666667,300.5625,57.0,83.0
1187,300.2708333333333,300.7395833333333,64.0,84.0
1188,300.4875,300.74375,52.0,82.0
1189,299.2520833333333,300.76666666666665,45.0,80.0
1190,300.7604166666667,300.8520833333333,57.0,83.0
1191,301.24583333333334,301.8020833333333,38.0,84.0
1192,301.24375,301.8645833333333,62.0,71.0
1193,301.71458333333334,302.2395833333333,57.0,76.0
1194,302.2291666666667,302.3541666666667,65.0,83.0
1195,302.6979166666667,302.91875,62.0,84.0
1196,303.0958333333333,303.25625,62.0,71.0
1197,303.1583333333333,303.3458333333333,65.0,74.0
1198,303.2416666666667,303.55,69.0,77.0
1199,303.94166666666666,304.31666666666666,65.0,84.0
1200,303.6895833333333,304.35833333333335,62.0,76.0
1201,303.45,304.36041666666665,57.0,70.0
1202,303.21875,304.43125,50.0,85.0
1203,304.1979166666667,304.5520833333333,74.0,88.0
1204,304.4479166666667,304.7291666666667,69.0,82.0
1205,304.70416666666665,304.8041666666667,62.0,81.0
1206,305.2083333333333,305.53125,59.0,69.0
1207,305.23541666666665,305.73125,64.0,76.0
1208,305.73333333333335,306.1979166666667,59.0,81.0
1209,305.9895833333333,306.2708333333333,64.0,78.0
1210,306.2520833333333,306.5729166666667,67.0,83.0
1211,306.5083333333333,306.77708333333334,64.0,83.0
1212,305.48333333333335,307.12916666666666,47.0,73.0
1213,305.26875,307.16875,40.0,83.0
1214,307.03125,307.35,64.0,79.0
1215,306.75625,307.36041666666665,59.0,76.0
1216,307.3020833333333,307.87083333333334,67.0,73.0
1217,307.5958333333333,308.2375,59.0,83.0
1218,308.15416666666664,308.5375,67.0,82.0
1219,307.8666666666667,308.54375,64.0,81.0
1220,308.5,308.87916666666666,71.0,84.0
1221,307.30833333333334,309.0395833333333,40.0,83.0
1222,308.7625,309.14375,67.0,79.0
1223,309.07708333333335,309.1958333333333,64.0,76.0
1224,310.075,310.23333333333335,57.0,67.0
1225,310.2208333333333,310.34791666666666,59.0,76.0
1226,310.4,310.5833333333333,60.0,76.0
1227,310.54791666666665,310.7395833333333,64.0,76.0
1228,310.71875,310.90625,69.0,75.0
1229,310.95,311.0833333333333,71.0,67.0
1230,311.1583333333333,311.49791666666664,72.0,67.0
1231,311.41875,311.65,76.0,75.0
1232,312.3875,312.50416666666666,72.0,62.0
1233,312.46875,312.60833333333335,76.0,68.0
1234,312.49375,312.61875,81.0,75.0
1235,309.89166666666665,313.0520833333333,52.0,78.0
1236,309.68333333333334,313.13125,45.0,82.0
