,start,end,pitch,velocity
0,28.63322313541667,29.04769646041667,76.0,90.0
1,29.02795963541667,29.422696135416672,75.0,90.0
2,29.422696135416672,30.493946,73.0,94.0
3,30.62061266666667,30.96561266666667,71.0,85.0
4,31.02061266666667,31.743946,68.0,85.0
5,31.82061266666667,32.20227933333334,66.0,84.0
6,32.22061266666667,32.713946,68.0,84.0
7,33.02061266666667,33.41227933333334,71.0,81.0
8,33.42061266666667,33.86561266666667,68.0,84.0
9,33.82061266666667,34.24727933333334,71.0,87.0
10,34.22061266666667,35.24061266666667,73.0,97.0
11,35.42061266666667,35.54561266666667,71.0,84.0
12,35.620612666666666,35.782279333333335,73.0,90.0
13,35.82061266666667,36.893946,64.0,84.0
14,37.02061266666667,37.34561266666667,66.0,83.0
15,37.42061266666667,37.782279333333335,68.0,88.0
16,37.82061266666667,38.21727933333334,71.0,83.0
17,38.22061266666667,38.63227933333334,66.0,78.0
18,38.62061266666667,39.02227933333334,68.0,84.0
19,39.020612666666665,41.182279333333334,71.0,84.0
20,41.42061266666667,41.858449316666665,68.0,87.0
21,41.81871421666667,42.207787070833334,71.0,84.0
22,42.216065216666664,43.408118216666665,73.0,85.0
23,43.408118216666665,43.82036987916667,71.0,84.0
24,43.805469216666665,44.782290425,73.0,92.0
25,44.99752221666667,45.355138116666666,76.0,85.0
26,45.39487321666667,46.11672753333333,78.0,84.0
27,46.18957521666667,46.509111645833336,78.0,87.0
28,46.58692621666667,46.95613152083333,75.0,87.0
29,46.98427721666667,47.682952725,73.0,84.0
30,47.77897921666667,48.05381365833333,73.0,88.0
31,48.17633021666667,48.477654725,71.0,87.0
32,48.57368121666667,49.850171304166665,68.0,84.0
33,49.765734216666665,50.12003885833333,71.0,84.0
34,50.163085216666666,50.49203665416667,66.0,79.0
35,50.56203665416667,50.92203665416667,61.0,83.0
36,50.96203665416667,51.3603699875,64.0,86.0
37,51.362036654166666,51.74703665416667,66.0,84.0
38,51.76203665416667,54.03703665416667,68.0,83.0
39,54.96203665416667,55.97252925,66.0,85.0
40,56.15857571666667,56.52734639166667,68.0,87.0
41,56.55724671666667,57.35458871666667,71.0,84.0
42,57.35458871666667,57.80641585,68.0,87.0
43,57.75325971666666,58.32302702083333,71.0,89.0
44,58.55060171666666,58.89113319583333,71.0,89.0
45,58.94927271666666,59.2964487125,73.0,92.0
46,59.34794371666666,59.76156487916666,68.0,84.0
47,59.74661471666666,60.5422955875,66.0,83.0
48,60.54395671666666,60.8711991625,68.0,90.0
49,60.942627716666664,61.30807613333333,71.0,87.0
50,61.341298716666664,62.38448783333333,73.0,94.0
51,62.537311716666665,62.85292625833333,75.0,87.0
52,62.935982716666665,63.364554041666665,73.0,90.0
53,63.334653716666665,63.78315859166666,71.0,83.0
54,63.733324716666665,64.57551720416667,73.0,88.0
55,64.92933771666667,65.22169645,76.0,84.0
56,65.32800871666666,65.6353176125,78.0,84.0
57,65.72667971666667,66.0439553875,75.0,83.0
58,66.12535071666667,66.80309141666666,73.0,89.0
59,66.92269271666666,67.21339032083333,71.0,85.0
60,67.32136371666667,67.67518422916666,73.0,90.0
61,67.72003471666667,68.88780852083333,76.0,83.0
62,68.91604771666667,69.2432901625,73.0,88.0
63,69.31471871666666,70.12701087916666,76.0,82.0
64,70.11206071666666,70.90441932916667,80.0,84.0
65,70.90940271666666,72.85887665416668,78.0,83.0
66,72.90887665416668,73.25387665416667,76.0,82.0
67,73.30887665416667,73.56387665416668,73.0,83.0
68,73.70887665416667,74.06220998750001,71.0,83.0
69,74.10887665416668,74.5272099875,66.0,84.0
70,74.50887665416667,75.24887665416668,68.0,84.0
71,75.30887665416668,75.64554332083334,71.0,85.0
72,75.70887665416667,76.3822099875,73.0,90.0
73,76.50887665416667,76.77554332083334,76.0,85.0
74,76.90887665416668,77.28054332083335,73.0,92.0
75,77.30887665416668,79.41054332083334,71.0,87.0
76,79.70887665416667,80.04720998750001,76.0,87.0
77,80.10887665416668,80.51387665416668,75.0,94.0
78,80.50887665416667,81.70887665416667,73.0,90.0
79,81.70887665416667,82.13054332083334,71.0,89.0
80,82.10887665416668,82.55887665416668,68.0,82.0
81,82.50887665416667,82.91054332083334,66.0,84.0
82,82.90887665416668,83.78220998750001,68.0,84.0
83,84.10887665416668,84.48720998750001,71.0,87.0
84,84.50887665416667,84.93720998750001,68.0,84.0
85,84.90887665416668,85.35720998750001,71.0,83.0
86,85.30887665416668,86.33887665416668,73.0,86.0
87,86.50887665416667,86.89054332083334,73.0,92.0
88,86.90887665416668,88.02387665416667,64.0,87.0
89,88.50887665416667,88.88554332083334,68.0,85.0
90,88.90887665416668,89.29887665416668,71.0,86.0
91,89.30887665416668,89.70054332083333,66.0,85.0
92,89.70887665416667,90.1172099875,68.0,84.0
93,90.10887665416668,92.29887665416668,71.0,84.0
94,92.50887665416667,92.93220998750002,68.0,89.0
95,92.90887665416668,93.33887665416668,71.0,92.0
96,93.30887665416668,94.44054332083334,73.0,90.0
97,94.50887665416667,94.94887665416667,71.0,85.0
98,94.90887665416668,96.16554332083334,73.0,97.0
99,96.10887665416668,96.47387665416667,76.0,88.0
100,96.50887665416667,97.20887665416667,78.0,84.0
101,97.30887665416668,97.6322099875,78.0,85.0
102,97.70887665416667,98.12720998750001,75.0,87.0
103,98.10887665416668,98.83887665416668,73.0,89.0
104,98.90887665416668,99.24054332083334,73.0,87.0
105,99.30887665416668,99.71720998750001,71.0,78.0
106,99.70887665416667,100.95720998750001,68.0,85.0
107,100.90887665416668,101.26887665416668,71.0,84.0
108,101.30887665416668,101.68554332083335,66.0,83.0
109,101.70887665416667,102.17887665416667,61.0,84.0
110,102.10887665416668,102.5372099875,64.0,84.0
111,102.50887665416667,102.88054332083334,66.0,83.0
112,102.90887665416668,105.28740870000001,68.0,80.0
113,106.08873321666667,107.14171336666668,66.0,86.0
114,107.28078621666667,107.7062829125,68.0,88.0
115,107.67813721666667,108.47780610416667,71.0,85.0
116,108.47283921666667,108.90992531666667,68.0,79.0
117,108.87019021666667,109.42317035833334,71.0,85.0
118,109.6980048,110.04568692500001,71.0,83.0
119,110.06224321666667,110.45462732916667,73.0,90.0
120,110.45959421666667,110.80893197083334,68.0,84.0
121,110.85694521666667,111.49767370416667,66.0,83.0
122,111.65164721666667,111.96226532083334,68.0,84.0
123,112.05059865416666,112.37559865416667,71.0,90.0
124,112.45059865416667,113.45059865416667,73.0,87.0
125,113.65059865416667,113.99559865416667,75.0,87.0
126,114.05059865416666,114.48893198750001,73.0,92.0
127,114.45059865416667,114.90226532083334,71.0,85.0
128,114.85059865416667,115.81226532083333,73.0,90.0
129,116.05059865416666,116.37226532083334,76.0,85.0
130,116.45059865416667,116.7689319875,78.0,87.0
131,116.85059865416667,117.14226532083333,75.0,85.0
132,117.25059865416667,117.88059865416668,73.0,94.0
133,118.05059865416666,118.35726532083333,71.0,85.0
134,118.45059865416667,118.79726532083333,73.0,88.0
135,118.85059865416667,119.88226532083334,76.0,86.0
136,120.05059865416666,120.3739319875,73.0,89.0
137,120.45059865416667,121.24559865416667,76.0,85.0
138,121.25059865416667,121.90226532083334,80.0,87.0
139,122.05059865416666,124.00726532083334,78.0,84.0
140,124.05059865416666,124.39559865416668,76.0,82.0
141,124.45059865416667,124.70559865416666,73.0,83.0
142,124.85059865416667,125.2039319875,71.0,83.0
143,125.25059865416667,125.6689319875,66.0,84.0
144,125.65059865416667,126.39059865416667,68.0,84.0
145,126.45059865416667,126.78726532083334,71.0,85.0
146,126.85059865416667,127.5239319875,73.0,90.0
147,127.65059865416667,127.91726532083334,76.0,85.0
148,128.05059865416666,128.42226532083333,73.0,92.0
149,128.45059865416667,130.55226532083333,71.0,87.0
150,157.18717982083334,158.24436022083336,66.0,86.0
151,158.38398782083334,158.8111817875,68.0,88.0
152,158.78292382083333,159.58578252083333,71.0,85.0
153,159.58079582083334,160.01962542083334,68.0,79.0
154,159.97973182083334,160.53491775416668,71.0,85.0
155,160.8108484875,161.15991748750002,71.0,83.0
156,161.17653982083334,161.57048912083334,73.0,90.0
157,161.57547582083333,161.92620705416667,68.0,84.0
158,161.97441182083335,162.61769612083333,66.0,83.0
159,162.77228382083334,163.08312145416667,68.0,84.0
160,163.17121982083336,163.49535532083334,71.0,90.0
161,163.57015582083335,164.56749582083336,73.0,87.0
162,164.76696382083335,165.11104612083335,75.0,87.0
163,165.16589982083335,165.60306718750002,73.0,92.0
164,165.56483582083334,166.01530105416668,71.0,85.0
165,165.96377182083336,166.92288932083335,73.0,90.0
166,167.1612226541667,167.48288932083335,76.0,85.0
167,167.5612226541667,167.87955598750003,78.0,87.0
168,167.96122265416668,168.25288932083336,75.0,85.0
169,168.36122265416668,168.99122265416668,73.0,94.0
170,169.1612226541667,169.46788932083336,71.0,85.0
171,169.5612226541667,169.90788932083336,73.0,88.0
172,169.96122265416668,170.99288932083334,76.0,86.0
173,171.1612226541667,171.48455598750002,73.0,89.0
174,171.5612226541667,172.3562226541667,76.0,85.0
175,172.36122265416668,173.01288932083335,80.0,87.0
176,173.1612226541667,175.11788932083334,78.0,84.0
177,175.1612226541667,175.5062226541667,76.0,82.0
178,175.5612226541667,175.8162226541667,73.0,83.0
179,175.96122265416668,176.31455598750003,71.0,83.0
180,176.36122265416668,176.77955598750003,66.0,84.0
181,176.7612226541667,177.5012226541667,68.0,84.0
182,177.5612226541667,177.89788932083334,71.0,85.0
183,177.96122265416668,178.63455598750002,73.0,90.0
184,178.7612226541667,179.02788932083337,76.0,85.0
185,179.1612226541667,179.53288932083336,73.0,92.0
186,179.5612226541667,181.66288932083336,71.0,87.0
