,start,end,pitch,velocity
0,29.2912536875,29.41236606875,76.0,122.0
1,29.6501051875,29.757760637500002,76.0,117.0
2,30.0089566875,30.064279627083334,76.0,97.0
3,30.1883824375,30.53826265,76.0,112.0
4,30.7266596875,30.91057108125,75.0,127.0
5,31.0855111875,31.254470435416668,73.0,127.0
6,31.4443626875,31.719482170833334,71.0,127.0
7,31.8032141875,33.570557825,68.0,127.0
8,35.037092937500006,35.15305670208333,73.0,127.0
9,35.3985384375,35.54010459166667,73.0,127.0
10,35.7599839375,35.82926099166667,73.0,112.0
11,35.940706687500004,36.29914014166667,73.0,112.0
12,36.4828749375,36.67413984791667,71.0,117.0
13,36.8443204375,37.0250431875,64.0,97.0
14,37.205765937500004,37.33528390833334,71.0,117.0
15,37.386488687500005,39.997932425,68.0,112.0
16,40.820220937500004,40.900040152083335,66.0,112.0
17,41.000780937500004,41.068307843750006,66.0,96.0
18,41.18085268750001,41.339916066666675,66.0,112.0
19,41.540996187500006,41.680551793750006,68.0,122.0
20,41.7210679375,41.92965104791667,66.0,127.0
21,42.261283187500005,42.41734537083334,64.0,102.0
22,42.621426687500005,42.733971531250006,68.0,122.0
23,42.981570187500004,45.600611356250006,66.0,117.0
24,46.578156437500006,46.72037203125001,71.0,127.0
25,46.93743793750001,47.04073136875001,71.0,127.0
26,47.29671943750001,47.44791706875001,73.0,127.0
27,47.476360187500006,47.62606081250001,71.0,127.0
28,48.015282437500005,48.20390522500001,59.0,112.0
29,48.37456393750001,48.554204687500004,61.0,127.0
30,48.73384543750001,50.87574480000001,64.0,127.0
31,52.318397375,52.439365137500005,76.0,122.0
32,52.676820375000005,52.784347275,76.0,117.0
33,53.03524337500001,53.09050025416667,76.0,97.0
34,53.214454875,53.56391730000001,76.0,112.0
35,53.752089375000004,53.93578116250001,75.0,127.0
36,54.110512375000006,54.27926987083334,73.0,127.0
37,54.468935375,54.74372634166667,71.0,127.0
38,54.827358375,56.59259165,68.0,127.0
39,58.053165375000006,58.168159420833334,73.0,127.0
40,58.41158837500001,58.55197071666667,73.0,127.0
41,58.770011375,58.83870911666667,73.0,112.0
42,58.949222875000004,59.30465901666667,73.0,112.0
43,59.48685737500001,59.67652287916667,71.0,117.0
44,59.845280375,60.024491875,64.0,97.0
45,60.203703375,60.332138283333336,71.0,117.0
46,60.382914875000004,62.972521050000005,68.0,112.0
47,63.78793337500001,63.86708512083334,66.0,112.0
48,63.967144875,64.0343491875,66.0,96.0
49,64.14635637500001,64.30465986666667,66.0,112.0
50,64.504779375,64.6436682875,68.0,122.0
51,64.683990875,64.89157752916667,66.0,127.0
52,65.221625375,65.37694200833334,64.0,102.0
53,65.580048375,65.6920555625,68.0,122.0
54,65.938471375,68.54749212916667,66.0,117.0
55,69.522701375,69.66464011458334,71.0,127.0
56,69.8830134375,69.98692901875,71.0,127.0
57,70.2444589375,70.39656725208333,73.0,127.0
58,70.4251816875,70.57578397916667,71.0,127.0
59,70.9673499375,71.15710882500001,59.0,112.0
60,71.3287954375,71.5095181875,61.0,127.0
61,71.69024093750001,73.84710340000001,64.0,127.0
62,75.29494218750001,75.51216934375002,80.0,127.0
63,75.65438493750001,75.87294785000002,80.0,122.0
64,76.01366643750002,76.23522336250001,80.0,127.0
65,76.37294793750002,76.67684020625002,80.0,127.0
66,76.73222943750001,76.92983426250001,78.0,127.0
67,77.09151093750002,77.24420557500001,78.0,127.0
68,77.45079243750001,77.56755892500001,76.0,122.0
69,77.63043318750002,80.07654140000001,78.0,127.0
70,81.04360743750001,81.18582303125001,78.0,127.0
71,81.40288893750001,81.53911650625001,78.0,127.0
72,81.76217043750002,81.83702075000001,78.0,112.0
73,81.94181118750001,82.30857771875002,78.0,122.0
74,82.48073343750002,82.62893705625001,76.0,117.0
75,82.84001493750002,82.97025448125001,73.0,127.0
76,83.19929643750001,85.57654236250002,71.0,112.0
77,86.79211143750001,86.86396773750002,80.0,127.0
78,86.97175218750002,87.04660250000002,80.0,96.0
79,87.15139293750002,87.31905763750001,80.0,127.0
80,87.51067443750001,87.57953672500001,80.0,122.0
81,87.69031518750002,87.95827930625002,80.0,127.0
82,88.22923743750002,88.35199195000001,78.0,127.0
83,88.58851893750001,88.7382195625,78.0,127.0
84,88.9478004375,89.05708189375001,76.0,107.0
85,89.12744118750001,91.86097460000002,78.0,117.0
86,92.54061543750001,92.76816038750002,71.0,112.0
87,92.89989693750002,93.19780118125001,76.0,100.0
88,93.25917843750001,93.38642396875002,71.0,89.0
89,93.43881918750002,93.94480730000001,79.0,117.0
90,93.97774143750001,94.23372950625001,78.0,127.0
91,94.33702293750001,94.67384934375002,78.0,127.0
92,94.69630443750002,97.72624508750002,76.0,127.0
93,98.2891194375,98.41037694375001,76.0,122.0
94,98.64840093750001,98.75618538750001,76.0,117.0
95,99.00768243750002,99.06307166875001,76.0,97.0
96,99.18732318750001,99.53762265000002,76.0,112.0
97,99.72624543750001,99.91037720625002,75.0,127.0
98,100.08552693750002,100.25468864375001,73.0,127.0
99,100.44480843750001,100.72025758750002,71.0,127.0
100,100.80408993750001,103.67834193750002,68.0,127.0
101,104.03762343750002,104.15289291875001,73.0,127.0
102,104.39690493750001,104.53762352500001,73.0,127.0
103,104.75618643750002,104.82504872500002,73.0,112.0
104,104.93582718750001,105.29211467500002,73.0,112.0
105,105.47474943750001,105.66486923125001,71.0,117.0
106,105.83403093750002,106.01367168750002,64.0,97.0
107,106.19331243750001,106.32205497500001,71.0,117.0
108,106.37295318750002,108.96876202500002,68.0,112.0
109,109.78612743750001,109.86546876875002,66.0,112.0
110,109.96576818750002,110.03313346875001,66.0,96.0
111,110.14540893750001,110.30409160000002,66.0,112.0
112,110.50469043750002,110.64391201875002,68.0,122.0
113,110.68433118750002,110.89241505625002,66.0,127.0
114,111.2232534375,111.37894208750001,64.0,102.0
115,111.58253493750001,111.69481040625001,68.0,122.0
116,111.94181643750002,115.17534993750002,66.0,117.0
117,115.53463143750002,115.67684703125002,71.0,127.0
118,115.8939129375,115.99720636875001,71.0,127.0
119,116.25319443750001,116.40439206875001,73.0,127.0
120,116.43283518750002,116.58253581250001,71.0,127.0
121,116.97175743750002,117.16038022500001,59.0,112.0
122,117.33103893750001,117.51067968750002,61.0,127.0
123,117.69032043750002,120.92385393750001,64.0,127.0
124,121.28313543750002,121.50020134375,80.0,127.0
125,121.64241693750002,121.86097985,80.0,122.0
126,122.00169843750001,122.22325536250001,80.0,127.0
127,122.36097993750002,122.66487220625001,80.0,127.0
128,122.72026143750001,122.91786626250001,78.0,127.0
129,123.07954293750001,123.23223757500001,78.0,127.0
130,123.43882443750002,123.55559092500002,76.0,122.0
131,123.61846518750002,126.67235793750001,78.0,127.0
132,127.03163943750002,127.17385503125001,78.0,127.0
133,127.39092093750001,127.52714850625001,78.0,127.0
134,127.75020243750001,127.82505275000001,78.0,112.0
135,127.92984318750001,128.29660971875,78.0,122.0
136,128.46876543750002,128.61696905625,76.0,117.0
137,128.8280469375,128.95828648125,73.0,127.0
138,129.1873284375,132.4208619375,71.0,112.0
139,132.78014343750002,132.85199973750002,80.0,127.0
140,132.95978418750002,133.0346345,80.0,96.0
141,133.13942493750002,133.3070896375,80.0,127.0
142,133.4987064375,133.567568725,80.0,122.0
143,133.6783471875,133.94631130625,80.0,127.0
144,134.21726943750002,134.34002395000002,78.0,127.0
145,134.57655093750003,134.7262515625,78.0,127.0
146,134.9358324375,135.04511389375,76.0,107.0
147,135.11547318750002,138.1693659375,78.0,117.0
148,138.5286474375,138.75619238750002,71.0,112.0
149,138.88792893750002,139.18583318125002,76.0,100.0
150,139.24721043750003,139.37445596875,71.0,89.0
151,139.4268511875,139.9328393,79.0,117.0
152,139.96577343750002,140.22176150625,78.0,127.0
153,140.3250549375,140.66188134375,78.0,127.0
154,140.6843364375,143.71427708750002,76.0,127.0
155,161.5226634375,161.73972934375,80.0,127.0
156,161.8819449375,162.10050785,80.0,122.0
157,162.24122643750002,162.46278336250003,80.0,127.0
158,162.60050793750003,162.90440020625002,80.0,127.0
159,162.95978943750004,163.15739426250002,78.0,127.0
160,163.31907093750002,163.471765575,78.0,127.0
161,163.6783524375,163.795118925,76.0,122.0
162,163.85799318750003,166.91188593750002,78.0,127.0
163,167.27116743750003,167.41338303125002,78.0,127.0
164,167.63044893750003,167.76667650625,78.0,127.0
165,167.98973043750001,168.06458075,78.0,112.0
166,168.16937118750002,168.53613771875,78.0,122.0
167,168.7082934375,168.85649705625002,76.0,117.0
168,169.0675749375,169.19781448125002,73.0,127.0
169,169.42685643750002,172.6603899375,71.0,112.0
170,173.01967143750002,173.09152773750003,80.0,127.0
171,173.19931218750003,173.27416250000002,80.0,96.0
172,173.3789529375,173.54661763750002,80.0,127.0
173,173.7382344375,173.807096725,80.0,122.0
174,173.91787518750002,174.18583930625002,80.0,127.0
175,174.45679743750003,174.57955195,78.0,127.0
176,174.8160789375,174.96577956250002,78.0,127.0
177,175.17536043750002,175.28464189375,76.0,107.0
178,175.35500118750002,178.4088939375,78.0,117.0
179,178.76817543750002,178.9957203875,71.0,112.0
180,179.12745693750003,179.42536118125003,76.0,100.0
181,179.48673843750004,179.61398396875,71.0,89.0
182,179.6663791875,180.17236730000002,79.0,117.0
183,180.2053014375,180.46128950625,78.0,127.0
184,180.5645829375,180.90140934375,78.0,127.0
185,180.92386443750001,183.95380508750003,76.0,127.0
186,184.51667943750002,184.73374534375,80.0,127.0
187,184.8759609375,185.09452385000003,80.0,122.0
188,185.2352424375,185.45679936250002,80.0,127.0
189,185.5945239375,185.89841620625003,80.0,127.0
190,185.95380543750002,186.1514102625,78.0,127.0
191,186.31308693750003,186.46578157500002,78.0,127.0
192,186.6723684375,186.789134925,76.0,122.0
193,186.85200918750002,189.9059019375,78.0,127.0
194,190.2651834375,190.40739903125,78.0,127.0
195,190.62446493750002,190.76069250625,78.0,127.0
196,190.98374643750003,191.05859675000002,78.0,112.0
197,191.1633871875,191.53015371875,78.0,122.0
198,191.70230943750002,191.85051305625,76.0,117.0
199,192.0615909375,192.19183048125,73.0,127.0
200,192.4208724375,195.65440593750003,71.0,112.0
201,196.0136874375,196.08554373750002,80.0,127.0
202,196.19332818750001,196.26817850000003,80.0,96.0
203,196.37296893750002,196.54063363750004,80.0,127.0
204,196.7322504375,196.801112725,80.0,122.0
205,196.91189118750003,197.17985530625003,80.0,127.0
206,197.45081343750002,197.57356795,78.0,127.0
207,197.81009493750003,197.9597955625,78.0,127.0
208,198.16937643750003,198.27865789375002,76.0,107.0
209,198.3490171875,201.4029099375,78.0,117.0
210,201.7621914375,201.98973638750002,71.0,112.0
211,202.12147293750002,202.41937718125,76.0,100.0
212,202.48075443750002,202.60799996875002,71.0,89.0
213,202.6603951875,203.1663833,79.0,117.0
214,203.1993174375,203.45530550625,78.0,127.0
215,203.5585989375,203.89542534375,78.0,127.0
216,203.9178804375,206.94782108750002,76.0,127.0
