,start,end,pitch,velocity
0,0.9419851875,5.384267714583333,47.0,67.0
1,0.9419851875,5.393239002083334,59.0,75.0
2,0.9419851875,5.433609795833333,66.0,93.0
3,0.9419851875,5.5143513833333335,63.0,97.0
4,5.9659061875,6.121408504166667,40.0,66.0
5,5.9659061875,6.125894147916667,52.0,83.0
6,6.3247576875,6.444374854166667,52.0,77.0
7,6.3247576875,6.448860497916667,40.0,65.0
8,6.6836091875,6.80472156875,40.0,81.0
9,6.6836091875,6.812197641666667,52.0,86.0
10,7.0424606875,7.1874965020833335,40.0,66.0
11,7.0424606875,7.197963004166667,52.0,75.0
12,7.4013121875,7.519434139583334,40.0,73.0
13,7.4013121875,7.5269102125,52.0,96.0
14,7.7601636875,7.8857617125,40.0,79.0
15,7.7601636875,7.890247356250001,52.0,86.0
16,8.1190151875,8.220689779166667,40.0,74.0
17,8.1190151875,8.259565358333333,52.0,88.0
18,5.9659061875,8.2804983625,64.0,107.0
19,5.9659061875,8.304421795833333,68.0,107.0
20,5.9659061875,8.41058203125,59.0,95.0
21,8.4778666875,8.600474283333334,52.0,99.0
22,8.8367181875,9.075952520833333,42.0,25.0
23,8.8367181875,9.11034245625,66.0,99.0
24,8.8367181875,9.135761104166667,61.0,107.0
25,8.8367181875,9.140246747916667,57.0,85.0
26,9.1955696875,9.360043291666667,42.0,100.0
27,8.8367181875,9.364528935416667,54.0,96.0
28,9.1955696875,9.385461939583333,57.0,59.0
29,9.1955696875,9.3929380125,61.0,71.0
30,9.1955696875,9.398918870833334,66.0,88.0
31,9.554421187500001,9.718894791666667,42.0,100.0
32,9.554421187500001,9.723380435416667,54.0,102.0
33,9.554421187500001,9.750294297916668,57.0,95.0
34,9.554421187500001,9.754779941666667,61.0,127.0
35,9.554421187500001,9.775712945833334,66.0,117.0
36,9.913272687500001,10.121107514583334,54.0,72.0
37,9.913272687500001,10.125593158333334,57.0,61.0
38,9.913272687500001,10.152507020833333,66.0,59.0
39,9.913272687500001,10.161478308333333,42.0,72.0
40,9.913272687500001,10.180916097916667,61.0,62.0
41,10.272124187500001,10.481454229166667,54.0,81.0
42,10.272124187500001,10.494911160416667,42.0,85.0
43,10.272124187500001,10.50986330625,57.0,96.0
44,10.272124187500001,10.512853735416668,61.0,99.0
45,10.272124187500001,10.517339379166668,66.0,93.0
46,10.6309756875,10.858248304166667,57.0,64.0
47,10.6309756875,10.864229162500001,66.0,61.0
48,10.6309756875,10.87320045,54.0,56.0
49,10.6309756875,10.87768609375,42.0,69.0
50,10.6309756875,10.87768609375,61.0,66.0
51,10.9898271875,11.178224225000001,57.0,96.0
52,10.9898271875,11.19168115625,61.0,117.0
53,10.9898271875,11.194671585416668,54.0,95.0
54,10.9898271875,11.199157229166667,66.0,107.0
55,10.9898271875,11.20962373125,42.0,112.0
56,11.3486786875,11.484743214583334,42.0,92.0
57,11.3486786875,11.502685789583333,54.0,97.0
58,11.3486786875,11.5460470125,57.0,83.0
59,11.3486786875,11.569970445833334,66.0,89.0
60,11.3486786875,11.620807741666667,61.0,100.0
61,11.7075301875,11.955735808333333,63.0,127.0
62,11.7075301875,11.957231022916668,66.0,102.0
63,11.7075301875,11.9587262375,47.0,102.0
64,11.7075301875,11.97218316875,59.0,92.0
65,12.0663816875,12.153104133333335,54.0,66.0
66,12.0663816875,12.238331364583333,59.0,75.0
67,12.0663816875,12.262254797916667,66.0,112.0
68,12.0663816875,12.271226085416666,47.0,44.0
69,12.0663816875,12.271226085416666,63.0,112.0
70,12.4252331875,12.4790609125,54.0,112.0
71,12.4252331875,12.603163722916667,59.0,97.0
72,12.4252331875,12.625591941666666,66.0,127.0
73,12.4252331875,12.6315728,63.0,127.0
74,12.4252331875,12.64502973125,47.0,65.0
75,12.7840846875,12.951548720833333,47.0,55.0
76,12.7840846875,12.965005652083335,59.0,77.0
77,12.7840846875,12.973976939583334,54.0,99.0
78,12.7840846875,12.99490994375,66.0,99.0
79,12.7840846875,13.0173381625,63.0,89.0
80,13.1429361875,13.323857152083333,54.0,107.0
81,13.1429361875,13.328342795833334,59.0,100.0
82,13.1429361875,13.349275800000001,66.0,122.0
83,13.1429361875,13.355256658333333,63.0,127.0
84,13.1429361875,13.3582470875,47.0,72.0
85,13.5017876875,13.666261291666666,59.0,86.0
86,13.5017876875,13.669251720833334,47.0,63.0
87,13.5017876875,13.67224215,54.0,85.0
88,13.5017876875,13.700651227083334,66.0,97.0
89,13.5017876875,13.702146441666667,63.0,97.0
90,13.8606391875,14.016141504166667,54.0,99.0
91,13.8606391875,14.041560152083333,59.0,96.0
92,13.8606391875,14.047541010416667,47.0,81.0
93,13.8606391875,14.0580075125,66.0,122.0
94,13.8606391875,14.072959658333334,63.0,127.0
95,14.2194906875,14.279299270833334,54.0,97.0
96,14.2194906875,14.288270558333334,47.0,64.0
97,14.2194906875,14.298737060416666,66.0,112.0
98,14.2194906875,14.31817485,63.0,127.0
99,14.2194906875,14.337612639583334,59.0,92.0
100,14.5783421875,14.784681800000001,40.0,86.0
101,14.5783421875,14.795148302083334,59.0,99.0
102,14.5783421875,14.79813873125,68.0,112.0
103,14.5783421875,14.814586091666667,52.0,90.0
104,14.5783421875,14.82505259375,64.0,102.0
105,14.9371936875,15.09419121875,40.0,58.0
106,14.9371936875,15.119609866666668,59.0,85.0
107,14.9371936875,15.1345620125,52.0,69.0
108,14.9371936875,15.13904765625,68.0,89.0
109,14.9371936875,15.158485445833334,64.0,85.0
110,15.2960451875,15.496403941666667,59.0,99.0
111,15.2960451875,15.506870443750001,68.0,102.0
112,15.2960451875,15.508365658333334,52.0,96.0
113,15.2960451875,15.518832160416666,40.0,71.0
114,15.2960451875,15.523317804166668,64.0,100.0
115,15.6548966875,15.805913360416668,52.0,82.0
116,15.6548966875,15.825351150000001,40.0,63.0
117,15.6548966875,15.864226729166667,59.0,88.0
118,15.6548966875,15.871702802083334,68.0,82.0
119,15.6548966875,15.895626235416668,64.0,85.0
120,16.0137481875,16.21560215625,52.0,85.0
121,16.0137481875,16.2200878,59.0,97.0
122,16.0137481875,16.226068658333332,68.0,102.0
123,16.0137481875,16.238030375,40.0,77.0
124,16.0137481875,16.24251601875,64.0,99.0
125,16.3725996875,16.553520652083336,40.0,69.0
126,16.3725996875,16.56548236875,52.0,85.0
127,16.3725996875,16.568472797916666,59.0,83.0
128,16.3725996875,16.58641537291667,68.0,89.0
129,16.3725996875,16.59239623125,64.0,89.0
130,16.7314511875,16.916857795833334,40.0,72.0
131,16.7314511875,16.918353010416666,59.0,96.0
132,16.7314511875,16.928819512500002,52.0,85.0
133,16.7314511875,16.940781229166667,68.0,99.0
134,16.7314511875,16.95124773125,64.0,100.0
135,17.0903026875,17.253281077083333,40.0,60.0
136,17.0903026875,17.275709295833334,52.0,85.0
137,17.0903026875,17.275709295833334,59.0,95.0
138,17.0903026875,17.290661441666668,68.0,96.0
139,17.0903026875,17.296642300000002,64.0,95.0
140,17.4491541875,17.62259907916667,40.0,69.0
141,17.4491541875,17.637551225,52.0,88.0
142,17.4491541875,17.6465225125,59.0,97.0
143,17.4491541875,17.65100815625,68.0,102.0
144,17.4491541875,17.65997944375,64.0,99.0
145,17.8080056875,17.98294579375,40.0,68.0
146,17.8080056875,17.99191708125,52.0,77.0
147,17.8080056875,17.99939315416667,59.0,90.0
148,17.8080056875,18.03079266041667,68.0,89.0
149,17.8080056875,18.03976394791667,64.0,78.0
150,18.1668571875,18.3462829375,40.0,72.0
151,18.1668571875,18.352263795833334,52.0,89.0
152,18.1668571875,18.36871115625,59.0,96.0
153,18.1668571875,18.383663302083335,68.0,96.0
154,18.1668571875,18.391139375,64.0,95.0
155,18.5257086875,18.714105725,59.0,76.0
156,18.5257086875,18.7320483,52.0,68.0
157,18.5257086875,18.733543514583335,40.0,61.0
158,18.5257086875,18.74550523125,68.0,57.0
159,18.5257086875,18.749990875,64.0,66.0
160,18.8845601875,19.04155771875,52.0,89.0
161,18.8845601875,19.074452439583332,40.0,71.0
162,18.8845601875,19.07594765416667,64.0,93.0
163,18.8845601875,19.080433297916667,59.0,90.0
164,18.8845601875,19.0908998,68.0,92.0
165,19.2434116875,19.38545707291667,40.0,72.0
166,19.2434116875,19.398914004166667,52.0,78.0
167,19.2434116875,19.407885291666666,59.0,83.0
168,19.2434116875,19.412370935416668,64.0,78.0
169,19.2434116875,19.431808725,68.0,73.0
170,19.6022631875,19.75327986041667,52.0,90.0
171,19.6022631875,19.76823200625,40.0,86.0
172,19.6022631875,19.77271765,59.0,92.0
173,19.6022631875,19.774212864583333,64.0,100.0
174,19.6022631875,19.792155439583333,68.0,99.0
175,19.9611146875,20.038865845833335,64.0,90.0
176,19.9611146875,20.040361060416668,68.0,79.0
177,19.9611146875,20.09119835625,59.0,97.0
178,19.9611146875,20.094188785416666,52.0,93.0
179,20.3199661875,20.48593500625,42.0,81.0
180,20.3199661875,20.52032494166667,61.0,112.0
181,20.3199661875,20.5263058,66.0,99.0
182,20.3199661875,20.538267516666668,57.0,96.0
183,20.3199661875,20.559200520833333,54.0,92.0
184,20.6788176875,20.846281720833336,42.0,67.0
185,20.6788176875,20.846281720833336,61.0,102.0
186,20.6788176875,20.852262579166666,54.0,79.0
187,20.6788176875,20.865719510416668,57.0,83.0
188,20.6788176875,20.873195583333334,66.0,97.0
189,21.0376691875,21.196161933333332,54.0,102.0
190,21.0376691875,21.200647577083334,61.0,127.0
191,21.0376691875,21.20812365,42.0,92.0
192,21.0376691875,21.221580581250002,66.0,100.0
193,21.0376691875,21.230551868750002,57.0,96.0
194,21.3965206875,21.541556502083335,54.0,86.0
195,21.3965206875,21.543051716666668,42.0,76.0
196,21.3965206875,21.5580038625,61.0,96.0
197,21.3965206875,21.56697515,66.0,79.0
198,21.3965206875,21.57146079375,57.0,69.0
199,21.7553721875,21.909379289583335,42.0,88.0
200,21.7553721875,21.918350577083334,54.0,97.0
201,21.7553721875,21.919845791666667,61.0,122.0
202,21.7553721875,21.92582665,57.0,96.0
203,21.7553721875,21.93928358125,66.0,102.0
204,22.1142236875,22.28019250625,42.0,82.0
205,22.1142236875,22.281687720833332,61.0,122.0
206,22.1142236875,22.28916379375,54.0,95.0
207,22.1142236875,22.301125510416668,57.0,90.0
208,22.1142236875,22.314582441666666,66.0,99.0
209,22.4730751875,22.625587075000002,54.0,95.0
210,22.4730751875,22.631567933333333,42.0,86.0
211,22.4730751875,22.631567933333333,61.0,117.0
212,22.4730751875,22.6345583625,57.0,92.0
213,22.4730751875,22.637548791666667,66.0,112.0
214,22.8319266875,22.918649133333336,66.0,88.0
215,22.8319266875,22.932106064583333,61.0,117.0
216,22.8319266875,22.9754672875,54.0,99.0
217,22.8319266875,23.045742372916667,42.0,73.0
218,22.8319266875,23.05022801666667,57.0,89.0
219,23.1907781875,23.3702039375,57.0,99.0
220,23.1907781875,23.392632156250002,61.0,122.0
221,23.1907781875,23.398613014583333,64.0,99.0
222,23.1907781875,23.404593872916667,45.0,90.0
223,23.5496296875,23.705132004166668,57.0,86.0
224,23.5496296875,23.712608077083335,45.0,72.0
225,23.5496296875,23.732045866666667,61.0,102.0
226,23.5496296875,23.741017154166666,64.0,90.0
227,23.9084811875,24.050526572916667,57.0,85.0
228,23.9084811875,24.081926079166667,61.0,107.0
229,23.9084811875,24.09239258125,64.0,83.0
230,23.9084811875,24.108839941666666,45.0,102.0
231,24.2673326875,24.419844575,57.0,90.0
232,24.2673326875,24.422835004166668,45.0,96.0
233,24.2673326875,24.4467584375,64.0,92.0
234,24.2673326875,24.448253652083334,61.0,127.0
235,24.6261841875,24.793648220833333,66.0,107.0
236,24.6261841875,24.795143435416666,50.0,100.0
237,24.6261841875,24.802619508333333,57.0,92.0
238,24.6261841875,24.8235525125,62.0,102.0
239,24.9850356875,25.130071502083336,50.0,92.0
240,24.9850356875,25.152499720833333,57.0,89.0
241,24.9850356875,25.161471008333333,66.0,97.0
242,24.9850356875,25.16296622291667,62.0,99.0
243,25.343887187500002,25.48294214375,50.0,107.0
244,25.343887187500002,25.496399075,66.0,102.0
245,25.343887187500002,25.497894289583336,57.0,90.0
246,25.343887187500002,25.508360791666668,62.0,107.0
247,25.702738687500002,25.762547270833334,50.0,85.0
248,25.702738687500002,25.76852812916667,66.0,97.0
249,25.702738687500002,25.77899463125,62.0,100.0
250,25.702738687500002,25.786470704166668,57.0,90.0
251,26.061590187500002,26.249987225,59.0,93.0
252,26.061590187500002,26.249987225,68.0,102.0
253,26.061590187500002,26.269425014583334,64.0,99.0
254,26.061590187500002,26.275405872916668,52.0,96.0
255,26.061590187500002,26.284377160416668,40.0,79.0
256,26.420441687500002,26.58491529166667,40.0,71.0
257,26.420441687500002,26.596877008333333,52.0,85.0
258,26.420441687500002,26.611829154166667,59.0,85.0
259,26.420441687500002,26.614819583333333,68.0,96.0
260,26.420441687500002,26.623790870833336,64.0,93.0
261,26.779293187500002,26.931805075,52.0,90.0
262,26.779293187500002,26.94974765,40.0,69.0
263,26.779293187500002,26.957223722916666,59.0,90.0
264,26.779293187500002,26.970680654166667,68.0,92.0
265,26.779293187500002,26.979651941666667,64.0,92.0
266,27.138144687500002,27.298132647916667,52.0,83.0
267,27.138144687500002,27.307103935416666,40.0,72.0
268,27.138144687500002,27.317570437500002,59.0,90.0
269,27.138144687500002,27.329532154166667,68.0,92.0
270,27.138144687500002,27.33999865625,64.0,90.0
271,27.496996187500002,27.66296500625,40.0,73.0
272,27.496996187500002,27.665955435416667,52.0,85.0
273,27.496996187500002,27.688383654166667,59.0,89.0
274,27.496996187500002,27.7033358,68.0,92.0
275,27.496996187500002,27.709316658333336,64.0,92.0
276,27.855847687500003,27.991912214583333,40.0,73.0
277,27.855847687500003,28.01135000416667,52.0,77.0
278,27.855847687500003,28.041254295833333,59.0,85.0
279,27.855847687500003,28.050225583333333,64.0,82.0
280,27.855847687500003,28.06069208541667,68.0,81.0
281,28.214699187500003,28.33880199791667,40.0,77.0
282,28.214699187500003,28.353754143750002,52.0,86.0
283,28.214699187500003,28.364220645833335,59.0,93.0
284,28.214699187500003,28.383658435416667,64.0,89.0
285,28.214699187500003,28.38515365,68.0,89.0
286,28.7529764375,28.78437594375,37.0,34.0
287,28.5735506875,28.875584033333332,59.0,90.0
288,28.5735506875,28.88306010625,40.0,83.0
289,28.5735506875,28.895021822916668,68.0,97.0
290,28.5735506875,28.898012252083333,64.0,92.0
291,28.5735506875,28.902497895833335,52.0,79.0
292,28.9324021875,31.647711870833334,64.0,97.0
293,28.9324021875,31.658178372916666,68.0,93.0
294,28.9324021875,31.67313051875,61.0,102.0
295,28.9324021875,31.694063522916668,49.0,90.0
296,28.9324021875,31.741910389583335,37.0,97.0
297,31.8032141875,32.12019967916667,68.0,99.0
298,31.8032141875,32.12468532291667,64.0,97.0
299,31.8032141875,32.14711354166667,59.0,90.0
300,32.520917187500004,32.58820184375,64.0,100.0
301,32.520917187500004,32.59418270208334,68.0,100.0
302,32.520917187500004,32.60016356041667,59.0,89.0
303,31.8032141875,33.099565231250004,52.0,86.0
304,33.059194437500004,33.1309647375,64.0,99.0
305,33.059194437500004,33.13395516666667,68.0,97.0
306,33.059194437500004,33.13545038125,59.0,82.0
307,33.597471687500004,33.65279462708333,64.0,95.0
308,33.597471687500004,33.66326112916667,59.0,79.0
309,33.597471687500004,33.67671806041667,68.0,93.0
310,33.238620187500004,34.025103058333336,52.0,56.0
311,33.956323187500004,34.0460360625,64.0,112.0
312,33.956323187500004,34.065473852083336,68.0,112.0
313,31.8032141875,34.22097616875,40.0,77.0
314,34.135748937500004,34.23144267083333,52.0,75.0
315,34.315174687500004,34.42133492291667,64.0,95.0
316,34.315174687500004,34.424325352083336,68.0,99.0
317,34.675647437500004,35.085285670833336,64.0,96.0
318,34.675647437500004,35.095827831250006,68.0,107.0
319,34.675647437500004,35.141008518750006,61.0,107.0
320,35.3985384375,35.4617914,64.0,90.0
321,35.3985384375,35.46480344583333,68.0,99.0
322,35.3985384375,35.49492390416667,61.0,102.0
323,34.675647437500004,35.511490156250005,49.0,72.0
324,35.940706687500004,35.99040544375,64.0,90.0
325,35.940706687500004,36.006971695833336,68.0,96.0
326,35.940706687500004,36.01450181041667,61.0,96.0
327,34.675647437500004,36.509983350000006,37.0,61.0
328,36.4828749375,36.52956164791667,64.0,89.0
329,36.4828749375,36.53859778541667,68.0,97.0
330,36.4828749375,36.555164037500006,61.0,97.0
331,35.7599839375,36.58377847291667,49.0,57.0
332,36.8443204375,36.89552521666667,64.0,88.0
333,36.8443204375,36.907573400000004,68.0,92.0
334,36.8443204375,36.93166976666667,61.0,99.0
335,37.205765937500004,37.250946625000005,64.0,53.0
336,37.205765937500004,37.31871765625,61.0,92.0
337,37.567211437500006,37.89853647916667,68.0,90.0
338,37.567211437500006,37.91209068541667,64.0,89.0
339,37.567211437500006,38.09733150416667,59.0,95.0
340,38.2901024375,38.36389756041667,64.0,97.0
341,38.2901024375,38.37745176666667,59.0,90.0
342,38.2901024375,38.38949995,68.0,107.0
343,38.8322706875,38.88498148958334,64.0,107.0
344,38.8322706875,38.90004171875,59.0,70.0
345,38.8322706875,38.904559787500006,68.0,107.0
346,39.3744389375,39.413595533333336,64.0,60.0
347,39.3744389375,39.427149739583335,59.0,67.0
348,39.3744389375,39.44522201458334,68.0,90.0
349,37.567211437500006,39.812691606250006,52.0,69.0
350,39.735884437500005,39.94973969166667,64.0,102.0
351,37.567211437500006,40.01449867708334,40.0,63.0
352,39.916607187500006,40.050643227083334,52.0,90.0
353,39.735884437500005,40.07323357083334,68.0,107.0
354,40.09732993750001,40.21178767916667,59.0,81.0
355,40.4587754375,40.869919693750006,66.0,96.0
356,40.4587754375,40.98877615416667,57.0,95.0
357,40.4587754375,41.000780937500004,61.0,117.0
358,41.18085268750001,41.26338557291667,61.0,112.0
359,41.18085268750001,41.264886170833336,57.0,92.0
360,41.18085268750001,41.27238916041667,66.0,93.0
361,40.4587754375,41.453961508333336,54.0,83.0
362,41.540996187500006,41.78409305,54.0,58.0
363,41.7210679375,41.78409305,61.0,102.0
364,41.7210679375,41.79309663750001,57.0,77.0
365,41.7210679375,41.79759843125,66.0,93.0
366,42.261283187500005,42.31980650625,57.0,62.0
367,42.261283187500005,42.31980650625,66.0,71.0
368,42.261283187500005,42.324308300000006,61.0,92.0
369,41.901139687500006,42.526889018750005,54.0,42.0
370,42.621426687500005,42.73697272708334,57.0,85.0
371,42.621426687500005,42.76398348958334,61.0,117.0
372,42.621426687500005,42.76848528333334,66.0,89.0
373,40.4587754375,42.83451159166667,42.0,96.0
374,42.8014984375,42.990573775,54.0,79.0
375,42.981570187500004,43.094115031250006,66.0,86.0
376,42.981570187500004,43.11062160833334,61.0,102.0
377,43.341713687500004,43.84291339166667,59.0,86.0
378,43.341713687500004,43.84291339166667,66.0,96.0
379,43.341713687500004,43.88042833958334,63.0,102.0
380,44.0620006875,44.143032975000004,59.0,85.0
381,44.0620006875,44.1520365625,63.0,107.0
382,44.0620006875,44.1520365625,66.0,99.0
383,43.341713687500004,44.30359695208334,54.0,79.0
384,44.60210818750001,44.65300640000001,59.0,74.0
385,44.60210818750001,44.66198843750001,66.0,93.0
386,44.60210818750001,44.67246748125001,63.0,99.0
387,45.14103043750001,45.19641966875,59.0,72.0
388,45.14103043750001,45.221868775000004,66.0,93.0
389,45.14103043750001,45.235341831250004,63.0,107.0
390,44.4221441875,45.42097060625001,54.0,63.0
391,45.50031193750001,45.567677218750006,66.0,96.0
392,45.50031193750001,45.58713830000001,63.0,122.0
393,43.341713687500004,45.71138981875001,47.0,58.0
394,45.679952687500005,45.76228803125001,54.0,86.0
395,45.85959343750001,45.943425787500004,66.0,96.0
396,45.85959343750001,45.962886868750005,63.0,122.0
397,46.03923418750001,46.1410306125,59.0,73.0
398,46.218874937500004,46.748815150000006,66.0,88.0
399,46.218874937500004,46.750312156250004,59.0,78.0
400,46.218874937500004,46.78025228125001,63.0,92.0
401,46.93743793750001,47.012288250000005,63.0,89.0
402,46.93743793750001,47.01378525625001,66.0,85.0
403,46.93743793750001,47.039234362500004,59.0,79.0
404,47.476360187500006,47.54522247500001,63.0,93.0
405,47.476360187500006,47.555701518750006,66.0,92.0
406,47.476360187500006,47.56618056250001,59.0,76.0
407,48.015282437500005,48.11558185625,63.0,97.0
408,48.015282437500005,48.127557906250004,59.0,76.0
409,48.015282437500005,48.13653994375001,66.0,93.0
410,46.218874937500004,48.37306693125001,47.0,79.0
411,48.37456393750001,48.51079150625001,63.0,102.0
412,46.218874937500004,48.52426456250001,35.0,65.0
413,48.37456393750001,48.525761568750006,66.0,97.0
414,48.554204687500004,48.68743824375001,47.0,83.0
415,48.73384543750001,48.82067180000001,66.0,95.0
416,48.73384543750001,48.861090968750005,63.0,102.0
417,49.09259037500001,49.64067887916667,68.0,99.0
418,49.09259037500001,49.66457374583334,59.0,90.0
419,49.09259037500001,49.697429187500006,64.0,93.0
420,49.809436375000004,49.890081550000005,68.0,88.0
421,49.809436375000004,49.912482987500006,59.0,89.0
422,49.809436375000004,49.91845670416667,64.0,88.0
423,49.09259037500001,50.046891612500005,52.0,74.0
424,50.167859375000006,50.3515511625,52.0,58.0
425,50.34707087500001,50.41726204583334,68.0,89.0
426,50.34707087500001,50.43070290833334,59.0,81.0
427,50.34707087500001,50.43070290833334,64.0,93.0
428,50.705493875,50.78315219166667,59.0,73.0
429,50.705493875,50.78912590833334,64.0,88.0
430,50.705493875,50.78912590833334,68.0,88.0
431,51.063916875000004,51.26254295416667,52.0,81.0
432,51.243128375000005,51.364096137500006,59.0,79.0
433,51.243128375000005,51.364096137500006,68.0,100.0
434,51.243128375000005,51.36558956666667,64.0,93.0
435,49.09259037500001,51.662781970833336,40.0,69.0
436,51.60155137500001,51.7673220125,68.0,99.0
437,51.60155137500001,51.80167088333334,64.0,97.0
438,51.422339875000006,51.81660517500001,52.0,72.0
439,51.78076287500001,51.885302916666674,59.0,83.0
440,51.959974375,52.06152755833334,64.0,95.0
441,51.959974375,52.2153507625,68.0,102.0
442,51.959974375,52.242232487500004,61.0,117.0
443,52.676820375000005,52.720129820833336,64.0,95.0
444,52.676820375000005,52.73357068333334,68.0,102.0
445,52.676820375000005,52.757465550000006,61.0,112.0
446,51.959974375,52.90382160833334,49.0,82.0
447,53.214454875,53.25029717500001,64.0,90.0
448,53.214454875,53.27269861250001,68.0,100.0
449,53.03524337500001,53.28315261666667,49.0,57.0
450,53.214454875,53.29360662083334,61.0,112.0
451,53.572877875,53.61618732083334,64.0,89.0
452,53.572877875,53.62216103750001,68.0,93.0
453,53.572877875,53.643069045833336,61.0,97.0
454,51.959974375,54.01941319583334,37.0,90.0
455,53.931300875000005,54.07616350416667,49.0,76.0
456,54.110512375000006,54.14336781666667,64.0,97.0
457,54.110512375000006,54.168756112500006,68.0,102.0
458,54.110512375000006,54.19115755000001,61.0,117.0
459,54.468935375,54.533152829166674,68.0,72.0
460,54.468935375,54.55704769583334,61.0,90.0
461,54.827358375,55.18727480416667,68.0,100.0
462,54.827358375,55.30824256666667,59.0,93.0
463,54.827358375,55.324670287500005,64.0,107.0
464,55.54420437500001,55.6069284,68.0,82.0
465,55.54420437500001,55.630823266666674,59.0,89.0
466,55.54420437500001,55.63978384166667,64.0,93.0
467,56.081838875,56.14605632916667,59.0,76.0
468,56.081838875,56.14754975833334,68.0,90.0
469,56.081838875,56.15501690416667,64.0,88.0
470,56.440261875000004,56.513439904166674,59.0,75.0
471,56.440261875000004,56.513439904166674,64.0,85.0
472,56.440261875000004,56.516426762500004,68.0,85.0
473,54.827358375,56.5746705,52.0,78.0
474,54.827358375,57.00627152916667,40.0,64.0
475,56.798684875000006,57.0182189625,52.0,69.0
476,56.977896375,57.0809429875,64.0,90.0
477,56.977896375,57.08243641666667,59.0,85.0
478,56.977896375,57.08841013333334,68.0,93.0
479,57.336319375,57.378135391666675,64.0,75.0
480,57.336319375,57.39306968333334,68.0,85.0
481,57.336319375,57.424431695833334,59.0,86.0
482,57.694742375000004,58.07556681250001,64.0,92.0
483,57.694742375000004,58.07706024166667,68.0,93.0
484,57.694742375000004,58.10095510833334,61.0,102.0
485,58.41158837500001,58.45788467916667,64.0,99.0
486,58.41158837500001,58.49522040833334,68.0,102.0
487,58.41158837500001,58.4967138375,61.0,100.0
488,57.694742375000004,58.563918150000006,49.0,89.0
489,58.949222875000004,59.00597318333334,64.0,86.0
490,58.949222875000004,59.02240090416667,61.0,93.0
491,58.949222875000004,59.04181548333334,68.0,89.0
492,58.590799875,59.42263992083334,49.0,56.0
493,59.48685737500001,59.51672595833334,64.0,92.0
494,59.48685737500001,59.53912739583334,68.0,96.0
495,59.48685737500001,59.54211425416667,61.0,96.0
496,59.66606887500001,59.83482637083334,49.0,31.0
497,59.845280375,59.89904382500001,64.0,96.0
498,59.845280375,59.90949782916667,68.0,100.0
499,59.845280375,59.96176785,61.0,102.0
500,57.694742375000004,60.01254444166667,37.0,63.0
501,60.024491875,60.10812390833334,49.0,73.0
502,60.203703375,60.24701282083333,64.0,79.0
503,60.203703375,60.25597339583334,68.0,86.0
504,60.203703375,60.273894545833336,61.0,95.0
505,60.562126375000005,60.860812208333336,68.0,100.0
506,60.562126375000005,60.88769393333334,59.0,96.0
507,60.562126375000005,60.88769393333334,64.0,102.0
508,61.278972375,61.346176687500005,68.0,93.0
509,61.278972375,61.34767011666667,64.0,96.0
510,61.278972375,61.35364383333334,59.0,93.0
511,61.816606875000005,61.8838111875,68.0,89.0
512,61.816606875000005,61.89127833333334,64.0,93.0
513,61.816606875000005,61.897252050000006,59.0,86.0
514,62.17502987500001,62.22580646666667,59.0,62.0
515,62.17502987500001,62.24820790416667,68.0,88.0
516,62.17502987500001,62.249701333333334,64.0,89.0
517,60.562126375000005,62.254181620833336,52.0,79.0
518,62.53345287500001,62.75597382083334,52.0,76.0
519,62.712664375,62.80525698333334,64.0,89.0
520,62.712664375,62.80675041250001,59.0,88.0
521,60.562126375000005,62.81421755833334,40.0,62.0
522,62.712664375,62.81421755833334,68.0,90.0
523,63.071087375000005,63.108423104166675,68.0,59.0
524,63.071087375000005,63.1651734125,59.0,85.0
525,63.42951037500001,63.68189990416667,61.0,93.0
526,63.42951037500001,63.70430134166667,66.0,93.0
527,63.42951037500001,63.72371592083334,57.0,82.0
528,64.14635637500001,64.21804097500001,61.0,122.0
529,64.14635637500001,64.22401469166667,66.0,95.0
530,64.14635637500001,64.23745555416667,57.0,88.0
531,64.683990875,64.73924775416667,61.0,107.0
532,64.683990875,64.75866233333333,57.0,90.0
533,64.683990875,64.76314262083334,66.0,85.0
534,65.04241387500001,65.114098475,61.0,100.0
535,65.04241387500001,65.11857876250001,66.0,83.0
536,65.04241387500001,65.13052619583334,57.0,72.0
537,63.42951037500001,65.19922393750001,54.0,78.0
538,63.42951037500001,65.23058595,42.0,72.0
539,65.40083687500001,65.52031120833334,42.0,73.0
540,65.40083687500001,65.52031120833334,54.0,64.0
541,65.580048375,65.65471983333333,66.0,76.0
542,65.580048375,65.66666726666668,61.0,97.0
543,65.580048375,65.68458841666667,57.0,85.0
544,65.938471375,65.98476767916668,66.0,76.0
545,65.938471375,65.99970197083334,57.0,72.0
546,65.938471375,66.00418225833334,61.0,117.0
547,66.29689437500001,66.57915248750001,66.0,97.0
548,66.29689437500001,66.58363277500001,63.0,117.0
549,66.29689437500001,66.5970736375,59.0,86.0
550,66.29689437500001,66.92562805416668,47.0,81.0
551,67.013740375,67.08243811666668,66.0,97.0
552,67.013740375,67.08691840416667,63.0,127.0
553,67.013740375,67.0988658375,59.0,78.0
554,67.55137487500001,67.62007261666668,63.0,107.0
555,67.55137487500001,67.62007261666668,66.0,93.0
556,67.55137487500001,67.62604633333333,59.0,83.0
557,68.089009375,68.24731286666668,66.0,95.0
558,68.089009375,68.2547800125,59.0,81.0
559,68.089009375,68.25776687083334,63.0,112.0
560,67.55137487500001,68.48028781666667,47.0,86.0
561,67.55137487500001,68.51613011666667,35.0,69.0
562,68.447432375,68.608722725,59.0,75.0
563,68.447432375,68.62365701666667,63.0,107.0
564,68.447432375,68.62813730416667,66.0,95.0
565,68.62664387500001,68.69982190416667,35.0,37.0
566,68.62664387500001,68.78345393750001,47.0,90.0
567,68.80585537500001,68.99552087916668,66.0,83.0
568,68.80585537500001,69.01045517083334,63.0,107.0
569,69.16427837500001,69.66464011458334,66.0,112.0
570,69.16427837500001,69.67819432083334,59.0,90.0
571,69.16427837500001,69.69626659583334,63.0,127.0
572,69.8830134375,70.0095193625,63.0,122.0
573,69.8830134375,70.03512175208334,59.0,88.0
574,69.8830134375,70.036627775,66.0,107.0
575,70.4251816875,70.49295271875,66.0,96.0
576,70.4251816875,70.49596476458333,59.0,73.0
577,70.4251816875,70.50500090208334,63.0,122.0
578,70.9673499375,71.13903655,59.0,88.0
579,70.9673499375,71.1480726875,66.0,107.0
580,70.9673499375,71.17367507708333,63.0,117.0
581,70.2444589375,71.20379553541667,35.0,32.0
582,70.2444589375,71.23542201666667,47.0,39.0
583,71.3287954375,71.44475920208333,59.0,78.0
584,71.3287954375,71.48240977500001,66.0,102.0
585,71.3287954375,71.48843386666667,63.0,112.0
586,71.5095181875,71.626987975,47.0,82.0
587,71.69024093750001,71.77307219791668,63.0,127.0
588,71.69024093750001,71.79114447291667,66.0,102.0
589,72.05168643750001,72.39957773125,64.0,102.0
590,72.05168643750001,72.41011989166667,68.0,107.0
591,72.05168643750001,72.42367409791667,59.0,86.0
592,72.7745774375,72.84987858333334,68.0,97.0
593,72.7745774375,72.86795085833333,59.0,92.0
594,72.7745774375,72.86795085833333,64.0,100.0
595,73.31652893750001,73.40795561041668,64.0,93.0
596,73.31652893750001,73.41395080208335,68.0,92.0
597,73.31652893750001,73.41544960000002,59.0,92.0
598,73.67624043750001,73.76466951458335,59.0,86.0
599,73.67624043750001,73.78265508958334,64.0,95.0
600,73.67624043750001,73.78865028125001,68.0,92.0
601,72.05168643750001,73.83361421875001,40.0,77.0
602,72.05168643750001,73.84110820833334,52.0,77.0
603,74.03595193750002,74.26826561458334,40.0,67.0
604,74.03595193750002,74.26826561458334,52.0,79.0
605,74.2158076875,74.33421272291667,59.0,90.0
606,74.2158076875,74.33421272291667,68.0,97.0
607,74.2158076875,74.33870911666668,64.0,96.0
608,74.3956634375,74.73439176666668,40.0,67.0
609,74.5755191875,74.73738936250001,64.0,97.0
610,74.3956634375,74.75087854375,52.0,75.0
611,74.5755191875,74.76137012916668,68.0,100.0
612,74.93523068750001,76.39240901875002,52.0,92.0
613,74.93523068750001,76.43432519375001,64.0,112.0
614,74.93523068750001,76.43582220000002,59.0,99.0
615,74.93523068750001,76.44031321875002,40.0,79.0
616,74.93523068750001,76.44779825000002,68.0,112.0
617,77.82055298125002,78.19330753750002,66.0,122.0
618,77.82055298125002,78.20079256875002,69.0,96.0
619,77.82055298125002,78.29809797500002,61.0,107.0
620,78.53911598125002,78.93881665,69.0,88.0
621,78.53911598125002,78.95079270000001,66.0,107.0
622,78.53911598125002,78.98372683750001,61.0,107.0
623,79.07803823125002,79.28911611250001,61.0,99.0
624,79.07803823125002,79.29809815000002,69.0,82.0
625,79.07803823125002,79.30258916875002,66.0,112.0
626,78.89839748125002,79.58402634375001,54.0,93.0
627,79.43731973125001,79.84001441250001,69.0,92.0
628,79.43731973125001,79.84450543125001,66.0,122.0
629,79.43731973125001,79.85348746875002,61.0,95.0
630,79.97624198125001,80.00767911250001,61.0,55.0
631,79.79660123125001,80.03312821875001,54.0,92.0
632,77.82055298125002,80.25618215000001,42.0,97.0
633,78.17983448125001,80.25618215000001,49.0,83.0
634,79.97624198125001,80.25767915625002,66.0,127.0
635,80.15588273125002,80.29660131875002,54.0,100.0
636,79.97624198125001,80.56007441875002,69.0,97.0
637,80.51516423125001,80.69031396250001,66.0,122.0
638,80.33552348125002,80.74121217500002,61.0,117.0
639,81.05408648125001,81.61546382500002,54.0,99.0
640,81.41336798125002,81.78612253750002,66.0,117.0
641,81.41336798125002,81.79360756875002,59.0,107.0
642,81.41336798125002,81.80109260000002,63.0,127.0
643,81.95229023125002,82.17983518125001,59.0,95.0
644,81.95229023125002,82.17983518125001,63.0,122.0
645,81.95229023125002,82.18432620000002,66.0,102.0
646,81.77264948125001,82.47025439375001,54.0,117.0
647,82.31157173125001,82.68133227500002,59.0,88.0
648,82.31157173125001,82.68582329375002,63.0,112.0
649,82.31157173125001,82.69031431250002,66.0,112.0
650,82.67085323125002,82.85947601875002,54.0,107.0
651,82.85049398125001,83.07654192500001,63.0,127.0
652,82.85049398125001,83.07953593750001,66.0,122.0
653,82.85049398125001,83.08252995000001,59.0,100.0
654,83.03013473125002,83.17085331875002,54.0,117.0
655,80.69480498125002,83.19181140625001,47.0,92.0
656,83.20977548125002,83.49270966250002,66.0,127.0
657,83.20977548125002,83.56456596250001,63.0,127.0
658,83.38941623125001,83.69031448750002,59.0,112.0
659,83.92833848125001,84.43282958750001,52.0,89.0
660,84.28761998125002,84.72324880000002,59.0,89.0
661,84.28761998125002,84.73672185625001,68.0,112.0
662,84.28761998125002,84.74270988125002,64.0,102.0
663,84.82654223125002,85.0915123375,68.0,112.0
664,84.82654223125002,85.09300934375001,59.0,99.0
665,84.82654223125002,85.09899736875002,64.0,112.0
666,84.64690148125001,85.29660219375002,52.0,90.0
667,85.18582373125001,85.58702140625002,68.0,107.0
668,85.18582373125001,85.59750045000001,64.0,102.0
669,85.18582373125001,85.60498548125001,59.0,85.0
670,85.54510523125002,85.78312922500001,52.0,96.0
671,85.72474598125001,86.12444665000001,64.0,107.0
672,85.72474598125001,86.16187180625002,68.0,122.0
673,85.90438673125001,86.19031492500001,52.0,100.0
674,86.26366823125001,86.31606345000002,68.0,46.0
675,86.08402748125002,86.32953650625001,59.0,99.0
676,86.26366823125001,86.34600357500001,64.0,73.0
677,83.56905698125001,86.37594370000002,40.0,86.0
678,83.92833848125001,86.51666228750001,47.0,55.0
679,86.44330898125001,87.01067435000002,68.0,102.0
680,86.44330898125001,87.02265040000002,59.0,107.0
681,86.44330898125001,87.02863842500001,64.0,100.0
682,87.16187198125002,87.58851876250002,59.0,112.0
683,87.16187198125002,87.59899780625001,68.0,122.0
684,87.16187198125002,87.60797984375002,64.0,117.0
685,87.52115348125001,87.86546491875,52.0,99.0
686,87.70079423125001,87.94780026250001,59.0,99.0
687,87.70079423125001,87.95528529375001,68.0,117.0
688,87.70079423125001,87.96127331875002,64.0,112.0
689,87.88043498125002,88.15438712500001,52.0,41.0
690,88.06007573125001,88.42833926875001,59.0,88.0
691,88.06007573125001,88.43881831250002,64.0,102.0
692,88.06007573125001,88.44480633750001,68.0,112.0
693,88.41935723125002,88.63193211875002,52.0,93.0
694,88.59899798125001,88.73223153750001,59.0,75.0
695,86.44330898125001,88.79360879375001,40.0,85.0
696,86.80259048125001,88.90588426250001,47.0,61.0
697,88.77863873125001,88.94630343125002,52.0,99.0
698,88.59899798125001,89.03013578125001,64.0,122.0
699,89.13792023125,89.31905798750002,64.0,93.0
700,88.95827948125002,89.34600410000002,59.0,112.0
701,88.59899798125001,89.34750110625001,68.0,117.0
702,90.03612398125001,90.36995637500002,61.0,112.0
703,90.03612398125001,90.38193242500002,66.0,79.0
704,90.03612398125001,90.39839949375002,57.0,95.0
705,90.57504623125001,90.82953729375001,61.0,117.0
706,90.57504623125001,90.83103430000001,66.0,100.0
707,90.57504623125001,90.83253130625002,57.0,97.0
708,90.39540548125001,91.05408823125002,54.0,97.0
709,90.93432773125002,91.31606432500001,57.0,92.0
710,90.93432773125002,91.32055534375002,61.0,127.0
711,90.93432773125002,91.32205235,66.0,100.0
712,91.29360923125002,91.54061526250001,54.0,99.0
713,91.47324998125,91.70528595000002,61.0,127.0
714,91.47324998125,91.71127397500001,66.0,117.0
715,89.67684248125002,91.74121410000001,49.0,67.0
716,89.31756098125001,91.7561841625,42.0,112.0
717,91.65289073125001,91.83253148125002,54.0,117.0
718,91.83253148125002,92.06307044375001,61.0,127.0
719,91.83253148125002,92.08851955000002,66.0,122.0
720,92.01217223125002,92.20678304375002,57.0,112.0
721,92.55109448125002,92.99720234375002,52.0,97.0
722,92.91037598125001,93.17235207500002,64.0,117.0
723,92.91037598125001,93.17534608750002,60.0,122.0
724,93.09001673125002,93.30558563125001,52.0,117.0
725,92.19181298125001,93.36396887500001,45.0,85.0
726,93.26965748125002,93.56456771250001,60.0,99.0
727,93.26965748125002,93.57055573750002,64.0,96.0
728,93.44929823125001,93.67384916875001,57.0,112.0
729,94.34750198125002,94.6424122125,62.0,127.0
730,94.34750198125002,94.64690323125001,66.0,127.0
731,94.70678348125001,94.73822061250002,62.0,77.0
732,93.62893898125002,94.75319067500001,38.0,102.0
733,94.70678348125001,94.80259188125001,66.0,88.0
734,93.98822048125001,94.80558589375002,45.0,72.0
735,94.52714273125001,94.87594518750001,50.0,107.0
736,94.70678348125001,95.00618473125002,57.0,127.0
737,94.88642423125002,95.03612485625001,62.0,122.0
738,94.88642423125002,95.06606498125001,66.0,76.0
739,95.78462798125001,96.20678374375001,59.0,107.0
740,95.78462798125001,96.21576578125001,68.0,117.0
741,95.78462798125001,96.22325081250001,64.0,117.0
742,96.14390948125,96.42983767500002,52.0,100.0
743,96.32355023125001,96.78163414375001,68.0,117.0
744,96.32355023125001,96.78313115000002,59.0,117.0
745,96.32355023125001,96.79061618125002,64.0,102.0
746,96.68283173125002,96.87145451875001,52.0,117.0
747,96.86247248125001,97.13043660000001,68.0,107.0
748,96.86247248125001,97.14390965625002,59.0,92.0
749,96.86247248125001,97.14540666250002,64.0,100.0
750,97.04211323125001,97.24420907500001,52.0,99.0
751,97.22175398125002,97.39241269375002,59.0,86.0
752,97.22175398125002,97.39840071875001,68.0,122.0
753,97.22175398125002,97.40588575000001,64.0,112.0
754,97.58103548125001,97.66486783125,68.0,117.0
755,97.58103548125001,97.68133490000001,59.0,93.0
756,97.58103548125001,97.6843289125,64.0,122.0
757,97.40139473125001,97.92834093125,52.0,102.0
758,95.42534648125002,97.95079602500002,47.0,97.0
759,95.06606498125001,97.95229303125001,40.0,102.0
760,97.76067623125002,97.95528704375002,64.0,127.0
761,97.92983793750001,97.95528704375002,64.0,97.0
762,97.76067623125002,97.96726309375,59.0,100.0
763,97.76067623125002,97.97325111875001,68.0,127.0
764,97.92983793750001,97.97325111875001,68.0,93.0
765,97.92983793750001,100.67385039375002,61.0,102.0
766,97.92983793750001,100.69480848125002,49.0,90.0
767,97.92983793750001,100.74271268125001,37.0,97.0
768,100.80408993750001,101.1214552625,68.0,99.0
769,100.80408993750001,101.12594628125001,64.0,97.0
770,100.80408993750001,101.14840137500002,59.0,90.0
771,101.52265293750001,101.59001821875002,64.0,100.0
772,101.52265293750001,101.59600624375001,68.0,100.0
773,101.52265293750001,101.60199426875002,59.0,89.0
774,100.80408993750001,102.10199435625002,52.0,86.0
775,102.06157518750001,102.13343148750002,64.0,99.0
776,102.06157518750001,102.13642550000002,68.0,97.0
777,102.06157518750001,102.13792250625002,59.0,82.0
778,102.60049743750001,102.65588666875001,64.0,95.0
779,102.60049743750001,102.66636571250001,59.0,79.0
780,102.60049743750001,102.67983876875002,68.0,93.0
781,102.24121593750002,103.02864122500002,52.0,56.0
782,102.95977893750002,103.04959931250002,64.0,112.0
783,102.95977893750002,103.06906039375002,68.0,112.0
784,100.80408993750001,103.22474904375002,40.0,77.0
785,103.13941968750001,103.23522808750002,52.0,75.0
786,103.31906043750001,103.42534788125002,64.0,95.0
787,103.31906043750001,103.42834189375002,68.0,99.0
788,103.67834193750002,104.08552763750001,64.0,96.0
789,103.67834193750002,104.09600668125002,68.0,107.0
790,103.67834193750002,104.14091686875001,61.0,107.0
791,104.39690493750001,104.45977920000001,64.0,90.0
792,104.39690493750001,104.46277321250001,68.0,99.0
793,104.39690493750001,104.49271333750002,61.0,102.0
794,103.67834193750002,104.50918040625001,49.0,72.0
795,104.93582718750001,104.98522839375002,64.0,90.0
796,104.93582718750001,105.00169546250001,68.0,96.0
797,104.93582718750001,105.00918049375002,61.0,96.0
798,103.67834193750002,105.50169555000002,37.0,61.0
799,105.47474943750001,105.52115663125002,64.0,89.0
800,105.47474943750001,105.53013866875001,68.0,97.0
801,105.47474943750001,105.54660573750002,61.0,97.0
802,104.75618643750002,105.57504885625002,49.0,57.0
803,105.83403093750002,105.88492915000002,64.0,88.0
804,105.83403093750002,105.89690520000002,68.0,92.0
805,105.83403093750002,105.92085730000002,61.0,99.0
806,106.19331243750001,106.23822262500002,64.0,53.0
807,106.19331243750001,106.30558790625001,61.0,92.0
808,106.5525939375,106.88193531250002,68.0,90.0
809,106.5525939375,106.89540836875001,64.0,89.0
810,106.5525939375,107.07954013750002,59.0,95.0
811,107.27115693750001,107.34451024375002,64.0,97.0
812,107.27115693750001,107.35798330000001,59.0,90.0
813,107.27115693750001,107.36995935000002,68.0,107.0
814,107.81007918750001,107.86247440625002,64.0,107.0
815,107.81007918750001,107.87744446875001,59.0,70.0
816,107.81007918750001,107.88193548750002,68.0,107.0
817,108.34900143750002,108.38792360000002,64.0,60.0
818,108.34900143750002,108.40139665625001,59.0,67.0
819,108.34900143750002,108.41936073125001,68.0,90.0
820,106.5525939375,108.78463025625001,52.0,69.0
821,108.70828293750002,108.92085782500001,64.0,102.0
822,106.5525939375,108.98522909375001,40.0,63.0
823,108.8879236875,109.02115724375001,52.0,90.0
824,108.70828293750002,109.04361233750001,68.0,107.0
825,109.06756443750001,109.18133691250002,59.0,81.0
826,109.42684593750002,109.83552864375002,66.0,96.0
827,109.42684593750002,109.95379213750002,57.0,95.0
828,109.42684593750002,109.96576818750002,61.0,117.0
829,110.14540893750001,110.22774428125001,61.0,112.0
830,110.14540893750001,110.22924128750002,57.0,92.0
831,110.14540893750001,110.23672631875002,66.0,93.0
832,109.42684593750002,110.41786407500001,54.0,83.0
833,110.50469043750002,110.74720545000002,54.0,58.0
834,110.68433118750002,110.74720545000002,61.0,102.0
835,110.68433118750002,110.75618748750001,57.0,77.0
836,110.68433118750002,110.76067850625002,66.0,93.0
837,111.2232534375,111.28163668125,57.0,62.0
838,111.2232534375,111.28163668125,66.0,71.0
839,111.2232534375,111.28612770000001,61.0,92.0
840,110.86397193750001,111.48822354375002,54.0,42.0
841,111.58253493750001,111.69780441875002,57.0,85.0
842,111.58253493750001,111.72475053125001,61.0,117.0
843,111.58253493750001,111.72924155000001,66.0,89.0
844,109.42684593750002,111.79510982500001,42.0,96.0
845,111.76217568750002,111.95079847500001,54.0,79.0
846,111.94181643750002,112.05409190625002,66.0,86.0
847,111.94181643750002,112.07055897500001,61.0,102.0
848,112.30109793750002,112.80109802500002,59.0,86.0
849,112.30109793750002,112.80109802500002,66.0,96.0
850,112.30109793750002,112.83852318125003,63.0,102.0
851,113.01966093750002,113.100499275,59.0,85.0
852,113.01966093750002,113.10948131250001,63.0,107.0
853,113.01966093750002,113.10948131250001,66.0,99.0
854,112.30109793750002,113.26067894375001,54.0,79.0
855,113.5585831875,113.60948140000002,59.0,74.0
856,113.5585831875,113.61846343750001,66.0,93.0
857,113.5585831875,113.62894248125002,63.0,99.0
858,114.09750543750002,114.15289466875001,59.0,72.0
859,114.09750543750002,114.17834377500002,66.0,93.0
860,114.09750543750002,114.19181683125001,63.0,107.0
861,113.37894243750002,114.37744560625,54.0,63.0
862,114.45678693750001,114.52415221875002,66.0,96.0
863,114.45678693750001,114.5436133,63.0,122.0
864,112.30109793750002,114.66786481875002,47.0,58.0
865,114.63642768750002,114.71876303125,54.0,86.0
866,114.81606843750001,114.89990078750002,66.0,96.0
867,114.81606843750001,114.91936186875002,63.0,122.0
868,114.99570918750001,115.09750561250002,59.0,73.0
869,115.17534993750002,115.70529015000002,66.0,88.0
870,115.17534993750002,115.70678715625002,59.0,78.0
871,115.17534993750002,115.73672728125001,63.0,92.0
872,115.8939129375,115.96876325000002,63.0,89.0
873,115.8939129375,115.97026025625001,66.0,85.0
874,115.8939129375,115.99570936250001,59.0,79.0
875,116.43283518750002,116.50169747500001,63.0,93.0
876,116.43283518750002,116.51217651875001,66.0,92.0
877,116.43283518750002,116.5226555625,59.0,76.0
878,116.97175743750002,117.07205685625001,63.0,97.0
879,116.97175743750002,117.08403290625002,59.0,76.0
880,116.97175743750002,117.09301494375,66.0,93.0
881,115.17534993750002,117.32954193125002,47.0,79.0
882,117.33103893750001,117.46726650625001,63.0,102.0
883,115.17534993750002,117.48073956250002,35.0,65.0
884,117.33103893750001,117.48223656875001,66.0,97.0
885,117.51067968750002,117.64391324375,47.0,83.0
886,117.69032043750002,117.77714680000001,66.0,95.0
887,117.69032043750002,117.81756596875002,63.0,102.0
888,118.04960193750001,118.59900323125001,68.0,99.0
889,118.04960193750001,118.62295533125001,59.0,90.0
890,118.04960193750001,118.65588946875002,64.0,93.0
891,118.76816493750002,118.84900327500002,68.0,88.0
892,118.76816493750002,118.87145836875001,59.0,89.0
893,118.76816493750002,118.87744639375,64.0,88.0
894,118.04960193750001,119.00618893125002,52.0,74.0
895,119.12744643750001,119.31157820625,52.0,58.0
896,119.30708718750002,119.37744648125002,68.0,89.0
897,119.30708718750002,119.39091953750003,59.0,81.0
898,119.30708718750002,119.39091953750003,64.0,93.0
899,119.66636868750001,119.74421301250001,59.0,73.0
900,119.66636868750001,119.7502010375,64.0,88.0
901,119.66636868750001,119.7502010375,68.0,88.0
902,120.02565018750002,120.22475201875002,52.0,81.0
903,120.20529093750002,120.32654844375001,59.0,79.0
904,120.20529093750002,120.32654844375001,68.0,100.0
905,120.20529093750002,120.32804545000002,64.0,93.0
906,118.04960193750001,120.62594969375002,40.0,69.0
907,120.5645724375,120.73074013125002,68.0,99.0
908,120.5645724375,120.76517127500001,64.0,97.0
909,120.38493168750001,120.78014133750001,52.0,72.0
910,120.74421318750001,120.84900362500002,59.0,83.0
911,120.92385393750001,120.95828508125001,68.0,54.0
912,120.92385393750001,121.00918329375001,59.0,100.0
913,120.92385393750001,121.01517131875002,52.0,92.0
914,120.92385393750001,121.02265635,40.0,76.0
915,120.92385393750001,121.03163838750001,64.0,107.0
916,121.10349468750002,121.27714741250001,52.0,107.0
917,121.10349468750002,121.28463244375001,59.0,99.0
918,121.10349468750002,121.29810550000002,64.0,107.0
919,121.10349468750002,121.30259651875002,40.0,86.0
920,121.10349468750002,121.30259651875002,68.0,122.0
921,123.79810593750001,124.03463292500001,42.0,95.0
922,123.79810593750001,124.03463292500001,54.0,102.0
923,124.1573874375,124.34002220000002,54.0,83.0
924,124.1573874375,124.35798627500002,42.0,85.0
925,124.51666893750001,124.70379471875002,54.0,99.0
926,124.51666893750001,124.72475280625002,42.0,99.0
927,124.87595043750002,125.04511214375002,42.0,82.0
928,124.87595043750002,125.04511214375002,54.0,95.0
929,123.79810593750001,125.15439360000002,57.0,96.0
930,123.79810593750001,125.15888461875002,66.0,100.0
931,123.79810593750001,125.1813397125,61.0,127.0
932,125.23523193750002,125.44181880000002,54.0,99.0
933,125.23523193750002,125.44331580625001,42.0,90.0
934,125.23523193750002,125.48223796875001,57.0,97.0
935,125.23523193750002,125.48822599375,66.0,100.0
936,125.23523193750002,125.49870503750002,61.0,112.0
937,125.59451343750001,125.83104042500001,42.0,81.0
938,125.59451343750001,125.83253743125002,54.0,95.0
939,125.95379493750002,126.00020213125,57.0,61.0
940,125.95379493750002,126.17086084375,61.0,127.0
941,125.95379493750002,126.17086084375,66.0,122.0
942,125.95379493750002,126.18583090625002,42.0,95.0
943,125.95379493750002,126.22475306875,54.0,100.0
944,126.31307643750002,126.40439381875001,66.0,67.0
945,126.31307643750002,126.45080101250002,57.0,92.0
946,126.31307643750002,126.49571120000002,61.0,95.0
947,126.67235793750001,126.90139989375001,66.0,117.0
948,126.67235793750001,126.91786696250001,59.0,107.0
949,126.67235793750001,126.92086097500001,63.0,127.0
950,126.67235793750001,127.1214598125,47.0,99.0
951,127.03163943750002,127.23822630000001,59.0,93.0
952,127.03163943750002,127.24870534375002,66.0,107.0
953,127.03163943750002,127.25169935625001,63.0,127.0
954,127.39092093750001,127.56457366250001,59.0,97.0
955,127.39092093750001,127.57056168750002,63.0,127.0
956,127.39092093750001,127.57205869375002,66.0,122.0
957,127.39092093750001,127.79062160625001,47.0,61.0
958,127.75020243750001,127.94032223125001,59.0,77.0
959,127.39092093750001,127.94631025625002,54.0,95.0
960,127.75020243750001,127.97325636875001,66.0,95.0
961,127.75020243750001,127.98822643125001,63.0,112.0
962,128.10948393750002,128.32056181875,59.0,96.0
963,128.10948393750002,128.322058825,66.0,112.0
964,128.10948393750002,128.3310408625,63.0,112.0
965,128.10948393750002,128.5166696375,47.0,67.0
966,128.46876543750002,128.64690918125,59.0,79.0
967,128.10948393750002,128.65289720625003,54.0,100.0
968,128.46876543750002,128.67385529375002,66.0,93.0
969,128.46876543750002,128.68283733125003,63.0,95.0
970,128.8280469375,128.95828648125,54.0,107.0
971,128.8280469375,128.97625055625002,47.0,67.0
972,128.8280469375,129.02415475625003,59.0,89.0
973,128.8280469375,129.04211883125,66.0,107.0
974,128.8280469375,129.04511284375002,63.0,112.0
975,129.1873284375,129.29660989375003,63.0,95.0
976,129.1873284375,129.3011009125,66.0,83.0
977,129.1873284375,129.3849332625,59.0,74.0
978,129.54660993750002,129.76966386875,59.0,99.0
979,129.54660993750002,129.77714890000001,68.0,112.0
980,129.54660993750002,129.78463393125003,64.0,99.0
981,129.90589143750003,130.10050225,59.0,93.0
982,129.54660993750002,130.1094842875,40.0,73.0
983,129.90589143750003,130.1094842875,68.0,93.0
984,129.54660993750002,130.11098129375,52.0,102.0
985,129.90589143750003,130.12595135625003,64.0,93.0
986,130.2651729375,130.45529273125,59.0,93.0
987,130.2651729375,130.46277776250002,68.0,100.0
988,130.2651729375,130.46876578750002,64.0,90.0
989,130.2651729375,130.753196975,40.0,83.0
990,130.2651729375,130.7681670375,52.0,89.0
991,130.62445443750002,130.79960416875002,59.0,96.0
992,130.62445443750002,130.79960416875002,68.0,96.0
993,130.62445443750002,130.81158021875,64.0,99.0
994,130.9837359375,131.22325693750003,59.0,89.0
995,130.9837359375,131.22774795625003,64.0,93.0
996,130.9837359375,131.22924496250002,68.0,92.0
997,130.9837359375,131.47325698125002,40.0,73.0
998,130.9837359375,131.48673003750002,52.0,86.0
999,131.3430174375,131.5046941125,59.0,88.0
1000,131.3430174375,131.53463423750003,68.0,93.0
1001,131.3430174375,131.53762825,64.0,88.0
1002,131.70229893750002,131.902897775,59.0,95.0
1003,131.70229893750002,131.91187981250002,64.0,97.0
1004,131.70229893750002,131.91187981250002,68.0,100.0
1005,131.70229893750002,132.25619125000003,40.0,78.0
1006,132.06158043750003,132.26068226875003,59.0,85.0
1007,132.06158043750003,132.26217927500002,68.0,97.0
1008,131.70229893750002,132.2651732875,52.0,96.0
1009,132.06158043750003,132.26816730000002,64.0,96.0
1010,132.4208619375,132.63942485,68.0,99.0
1011,132.4208619375,132.64241886250002,59.0,95.0
1012,132.4208619375,132.6543949125,64.0,96.0
1013,132.4208619375,132.94032310625002,40.0,71.0
1014,132.78014343750002,132.9478081375,59.0,86.0
1015,132.4208619375,132.95080215000002,52.0,93.0
1016,132.78014343750002,132.956790175,68.0,97.0
1017,132.78014343750002,132.96128119375,64.0,96.0
1018,133.13942493750002,133.32505371250002,59.0,93.0
1019,133.13942493750002,133.33104173750002,68.0,102.0
1020,133.13942493750002,133.3370297625,64.0,96.0
1021,133.13942493750002,133.59301783125002,40.0,73.0
1022,133.13942493750002,133.61696993125003,52.0,89.0
1023,133.4987064375,133.68134120000002,59.0,97.0
1024,133.4987064375,133.69182024375002,68.0,99.0
1025,133.4987064375,133.69631126250002,64.0,97.0
1026,133.8579879375,134.05259875000002,59.0,92.0
1027,133.8579879375,134.05409575625,68.0,97.0
1028,133.8579879375,134.05708976875002,64.0,95.0
1029,133.8579879375,134.369964075,40.0,76.0
1030,133.8579879375,134.39840719375002,52.0,90.0
1031,134.21726943750002,134.40289821250002,64.0,96.0
1032,134.21726943750002,134.40738923125002,59.0,90.0
1033,134.21726943750002,134.42086228750003,68.0,96.0
1034,134.57655093750003,134.76966474375,59.0,92.0
1035,134.57655093750003,134.77415576250002,64.0,102.0
1036,134.57655093750003,134.79810786250002,68.0,100.0
1037,134.57655093750003,134.96128154375,40.0,73.0
1038,134.9358324375,135.01816778125,68.0,76.0
1039,134.9358324375,135.03912586875,64.0,93.0
1040,134.9358324375,135.17685044375003,59.0,96.0
1041,134.57655093750003,135.17984445625,52.0,89.0
1042,135.29511393750002,135.53912595625002,66.0,99.0
1043,135.29511393750002,135.54361697500002,57.0,99.0
1044,135.29511393750002,135.5466109875,61.0,117.0
1045,135.29511393750002,135.82655115625002,42.0,97.0
1046,135.29511393750002,135.82954516875003,54.0,92.0
1047,135.6543954375,135.85948529375003,61.0,90.0
1048,135.6543954375,135.86547331875002,57.0,78.0
1049,135.6543954375,135.87146134375,66.0,90.0
1050,136.0136769375,136.26068296875002,61.0,122.0
1051,136.0136769375,136.262179975,57.0,99.0
1052,136.0136769375,136.26367698125,66.0,99.0
1053,136.0136769375,136.55259918750002,54.0,96.0
1054,136.37295843750002,136.55559320000003,57.0,88.0
1055,136.0136769375,136.55709020625002,42.0,95.0
1056,136.37295843750002,136.56008421875,61.0,107.0
1057,136.37295843750002,136.5645752375,66.0,96.0
1058,136.73223993750003,136.9418208125,61.0,127.0
1059,136.73223993750003,136.95229985625002,57.0,99.0
1060,136.73223993750003,136.980742975,66.0,112.0
1061,137.0915214375,137.27415620000002,57.0,82.0
1062,137.0915214375,137.28014422500002,61.0,107.0
1063,136.73223993750003,137.28762925625,54.0,95.0
1064,137.0915214375,137.29661129375,66.0,92.0
1065,136.73223993750003,137.32954543125,42.0,95.0
1066,137.45080293750001,137.57804846875,42.0,53.0
1067,137.45080293750001,137.63044368750002,61.0,127.0
1068,137.45080293750001,137.63194069375,54.0,100.0
1069,137.45080293750001,137.63942572500002,57.0,99.0
1070,137.45080293750001,137.651401775,66.0,112.0
1071,137.81008443750002,137.90888685000002,66.0,79.0
1072,137.81008443750002,137.92235990625002,61.0,102.0
1073,137.81008443750002,138.01816830625,57.0,70.0
1074,138.1693659375,138.37146178125002,60.0,112.0
1075,138.1693659375,138.38343783125,57.0,112.0
1076,138.1693659375,138.41038394375002,64.0,112.0
1077,138.5286474375,138.72475525625,57.0,90.0
1078,138.5286474375,138.72774926875002,60.0,93.0
1079,138.5286474375,138.7442163375,64.0,82.0
1080,138.1693659375,138.7741564625,45.0,95.0
1081,138.88792893750002,139.06008465625,60.0,102.0
1082,138.88792893750002,139.06307866875002,57.0,107.0
1083,138.88792893750002,139.08403675625001,64.0,95.0
1084,138.88792893750002,139.33104278750002,45.0,97.0
1085,139.24721043750003,139.40140208125,64.0,82.0
1086,139.24721043750003,139.42385717500002,57.0,88.0
1087,139.24721043750003,139.42385717500002,60.0,90.0
1088,139.6064919375,139.91637223125002,66.0,117.0
1089,139.6064919375,139.9238572625,57.0,100.0
1090,139.6064919375,139.9358333125,62.0,102.0
1091,139.96577343750002,140.250204625,62.0,96.0
1092,139.96577343750002,140.25170163125,57.0,83.0
1093,139.96577343750002,140.25319863750002,66.0,96.0
1094,139.6064919375,140.27116271250003,50.0,102.0
1095,140.3250549375,140.597510075,50.0,122.0
1096,140.3250549375,140.62146217500003,57.0,95.0
1097,140.3250549375,140.62146217500003,66.0,117.0
1098,140.3250549375,140.62595319375004,62.0,112.0
1099,140.6843364375,141.03313889375002,66.0,95.0
1100,140.6843364375,141.03613290625003,62.0,96.0
1101,140.6843364375,141.04361793750002,50.0,92.0
1102,140.6843364375,141.04361793750002,57.0,92.0
1103,141.04361793750002,141.26068384375003,68.0,100.0
1104,141.04361793750002,141.26966588125003,59.0,107.0
1105,141.04361793750002,141.28463594375,64.0,102.0
1106,141.40289943750003,141.58104318125,59.0,100.0
1107,141.40289943750003,141.59002521875001,68.0,96.0
1108,141.40289943750003,141.59751025000003,64.0,96.0
1109,141.04361793750002,141.6005042625,40.0,82.0
1110,141.04361793750002,141.60499528125,52.0,92.0
1111,141.76218093750003,141.95679175000004,59.0,112.0
1112,141.76218093750003,141.97026480625001,68.0,117.0
1113,141.76218093750003,141.97774983750003,64.0,107.0
1114,141.76218093750003,142.27116306250002,52.0,100.0
1115,142.1214624375,142.28164210625002,59.0,97.0
1116,141.76218093750003,142.29062414375,40.0,82.0
1117,142.1214624375,142.30858821875,68.0,99.0
1118,142.1214624375,142.31607325000002,64.0,95.0
1119,142.4807439375,142.66487570625003,59.0,96.0
1120,142.4807439375,142.66936672500003,68.0,102.0
1121,142.4807439375,142.68134277500002,64.0,97.0
1122,142.4807439375,142.93733084375003,40.0,89.0
1123,142.4807439375,142.93733084375003,52.0,99.0
1124,142.8400254375,143.00020510625,68.0,122.0
1125,142.8400254375,143.00319911875002,64.0,107.0
1126,142.8400254375,143.00918714375,59.0,99.0
1127,143.1993069375,143.40439679375,59.0,102.0
1128,143.1993069375,143.40739080625002,68.0,107.0
1129,143.1993069375,143.42685188750002,64.0,102.0
1130,143.1993069375,143.7502052375,40.0,88.0
1131,143.1993069375,143.7561932625,52.0,100.0
1132,143.55858843750002,143.88643280625,68.0,117.0
1133,143.55858843750002,143.89990586250002,64.0,112.0
1134,143.55858843750002,143.91337891875003,59.0,107.0
1135,143.91786993750003,144.14990590625,52.0,100.0
1136,143.91786993750003,144.16487596875,68.0,100.0
1137,143.91786993750003,144.16786998125002,64.0,96.0
1138,143.91786993750003,144.17385800625001,59.0,90.0
1139,143.91786993750003,144.18134303750003,40.0,81.0
1140,144.2771514375,144.477750275,52.0,90.0
1141,144.2771514375,144.49272033750003,59.0,77.0
1142,144.2771514375,144.49721135625003,64.0,89.0
1143,144.2771514375,144.49721135625003,68.0,92.0
1144,144.2771514375,144.5106844125,40.0,72.0
1145,144.63643293750002,144.82954674375003,64.0,93.0
1146,144.63643293750002,144.83553476875,52.0,90.0
1147,144.63643293750002,144.849007825,68.0,92.0
1148,144.63643293750002,144.85050483125002,59.0,86.0
1149,144.63643293750002,144.86846890625003,40.0,81.0
1150,144.9957144375,145.18583423125,52.0,88.0
1151,144.9957144375,145.20679231875002,64.0,86.0
1152,144.9957144375,145.220265375,59.0,82.0
1153,144.9957144375,145.22775040625,40.0,66.0
1154,144.9957144375,145.2292474125,68.0,89.0
1155,145.3549959375,145.51517560625,52.0,85.0
1156,145.3549959375,145.54212171875002,64.0,100.0
1157,145.3549959375,145.55709178125,59.0,89.0
1158,145.3549959375,145.56008579375003,40.0,69.0
1159,145.3549959375,145.56757082500002,68.0,99.0
1160,145.71427743750002,145.89840920625,40.0,69.0
1161,145.71427743750002,145.90140321875003,64.0,99.0
1162,145.71427743750002,145.90888825000002,52.0,78.0
1163,145.71427743750002,145.914876275,59.0,96.0
1164,145.71427743750002,145.9208643,68.0,97.0
1165,146.07355893750002,146.21577453125002,52.0,75.0
1166,146.07355893750002,146.21876854375,64.0,100.0
1167,146.07355893750002,146.22475656875002,59.0,90.0
1168,146.07355893750002,146.23673261875,68.0,107.0
1169,146.07355893750002,146.23822962500003,40.0,74.0
1170,146.43284043750003,146.51068476250003,64.0,93.0
1171,146.43284043750003,146.5466129125,40.0,54.0
1172,146.43284043750003,146.5466129125,68.0,95.0
1173,146.43284043750003,146.54810991875001,52.0,86.0
1174,146.43284043750003,146.56008596875,59.0,93.0
1175,146.7921219375,146.97325969375,66.0,96.0
1176,146.7921219375,146.9777507125,61.0,127.0
1177,146.7921219375,146.98224173125,42.0,71.0
1178,146.7921219375,146.99721179375,54.0,99.0
1179,146.7921219375,146.99721179375,57.0,93.0
1180,147.15140343750002,147.32655316875002,54.0,96.0
1181,147.15140343750002,147.34601425,42.0,90.0
1182,147.15140343750002,147.34751125625002,57.0,92.0
1183,147.15140343750002,147.35200227500002,61.0,122.0
1184,147.15140343750002,147.363978325,66.0,99.0
1185,147.5106849375,147.70529575,61.0,127.0
1186,147.5106849375,147.723259825,54.0,88.0
1187,147.5106849375,147.72775084375002,42.0,90.0
1188,147.5106849375,147.72775084375002,66.0,107.0
1189,147.5106849375,147.7382298875,57.0,96.0
1190,147.8699664375,148.05409820625002,42.0,92.0
1191,147.8699664375,148.06607425625003,61.0,107.0
1192,147.8699664375,148.0675712625,54.0,72.0
1193,147.8699664375,148.08254132500002,57.0,81.0
1194,147.8699664375,148.09751138750002,66.0,93.0
1195,148.22924793750002,148.4448168375,54.0,93.0
1196,148.22924793750002,148.44930785625002,61.0,127.0
1197,148.22924793750002,148.45379887500002,42.0,93.0
1198,148.22924793750002,148.46278091250002,66.0,99.0
1199,148.22924793750002,148.465774925,57.0,92.0
1200,148.58852943750003,148.74272108125,54.0,88.0
1201,148.58852943750003,148.74571509375002,42.0,79.0
1202,148.58852943750003,148.81158336875,61.0,107.0
1203,148.58852943750003,148.81158336875,66.0,90.0
1204,148.58852943750003,148.81906840000002,57.0,75.0
1205,148.9478109375,149.12595468125002,54.0,100.0
1206,148.9478109375,149.1304457,42.0,100.0
1207,148.9478109375,149.1693678625,66.0,102.0
1208,148.9478109375,149.17385888125,61.0,122.0
1209,148.9478109375,149.17535588750002,57.0,92.0
1210,149.30709243750002,149.49122420625002,54.0,92.0
1211,149.30709243750002,149.4987092375,42.0,89.0
1212,149.30709243750002,149.50619426875002,57.0,81.0
1213,149.30709243750002,149.50619426875002,61.0,102.0
1214,149.30709243750002,149.519667325,66.0,97.0
1215,149.6663739375,149.85799073750002,42.0,88.0
1216,149.6663739375,149.8699667875,54.0,93.0
1217,149.6663739375,149.88942786875003,61.0,117.0
1218,149.6663739375,149.8999069125,57.0,86.0
1219,149.6663739375,149.90739194375,66.0,100.0
1220,150.0256554375,150.20978720625,42.0,88.0
1221,150.0256554375,150.21577523125,54.0,90.0
1222,150.0256554375,150.24721236250002,61.0,102.0
1223,150.0256554375,150.25619440000003,57.0,75.0
1224,150.0256554375,150.25769140625002,66.0,92.0
1225,150.38493693750002,150.56607469375,42.0,90.0
1226,150.38493693750002,150.58852978750002,54.0,93.0
1227,150.38493693750002,150.59751182500003,61.0,100.0
1228,150.38493693750002,150.60649386250003,57.0,82.0
1229,150.38493693750002,150.60799086875002,66.0,93.0
1230,150.74421843750002,150.93882925000003,42.0,92.0
1231,150.74421843750002,150.94481727500002,54.0,89.0
1232,150.74421843750002,150.97924841875002,61.0,102.0
1233,150.74421843750002,150.98823045625002,57.0,83.0
1234,150.74421843750002,150.992721475,66.0,83.0
1235,151.10349993750003,151.31008680000002,54.0,78.0
1236,151.10349993750003,151.31906883750003,42.0,95.0
1237,151.10349993750003,151.32355985625003,61.0,102.0
1238,151.10349993750003,151.32805087500003,57.0,86.0
1239,151.10349993750003,151.33254189375003,66.0,96.0
1240,151.4627814375,151.6484102125,42.0,92.0
1241,151.4627814375,151.65589524375002,54.0,76.0
1242,151.4627814375,151.66637428750002,61.0,117.0
1243,151.4627814375,151.67685333125002,57.0,86.0
1244,151.4627814375,151.6933204,66.0,97.0
1245,151.82206293750002,151.99721266875002,54.0,77.0
1246,151.82206293750002,152.00918871875,61.0,102.0
1247,151.82206293750002,152.0136797375,42.0,95.0
1248,151.82206293750002,152.01667375,57.0,86.0
1249,151.82206293750002,152.0286498,66.0,86.0
1250,152.1813444375,152.23373965625,66.0,61.0
1251,152.1813444375,152.27116481250002,54.0,44.0
1252,152.1813444375,152.30409895000003,42.0,93.0
1253,152.1813444375,152.33254206875,61.0,122.0
1254,152.1813444375,152.36248219375,57.0,92.0
1255,152.5406259375,152.7741589125,57.0,96.0
1256,152.5406259375,152.77565591875003,61.0,122.0
1257,152.5406259375,152.77864993125002,64.0,97.0
1258,152.5406259375,152.80110502500003,45.0,102.0
1259,152.89990743750002,153.11697334375003,45.0,82.0
1260,152.89990743750002,153.11996735625002,61.0,112.0
1261,152.89990743750002,153.1274523875,57.0,92.0
1262,152.89990743750002,153.14841047500002,64.0,93.0
1263,153.25918893750003,153.45230274375,45.0,92.0
1264,153.25918893750003,153.46727280625,61.0,99.0
1265,153.25918893750003,153.4687698125,57.0,90.0
1266,153.25918893750003,153.48373987500003,64.0,90.0
1267,153.61847043750004,153.819069275,45.0,85.0
1268,153.61847043750004,153.82505730000003,57.0,86.0
1269,153.61847043750004,153.83104532500002,61.0,107.0
1270,153.61847043750004,153.8400273625,64.0,86.0
1271,153.97775193750002,154.17535676250003,61.0,112.0
1272,153.97775193750002,154.178350775,45.0,93.0
1273,153.97775193750002,154.17984778125003,57.0,90.0
1274,153.97775193750002,154.1933208375,64.0,83.0
1275,154.3370334375,154.5346382625,45.0,93.0
1276,154.3370334375,154.5705664125,57.0,92.0
1277,154.3370334375,154.57206341875002,61.0,122.0
1278,154.3370334375,154.57655443750002,64.0,90.0
1279,154.6963149375,154.872961675,45.0,96.0
1280,154.6963149375,154.89092575,57.0,89.0
1281,154.6963149375,154.89242275625003,61.0,107.0
1282,154.6963149375,154.8999077875,64.0,92.0
1283,155.05559643750001,155.24721323750003,57.0,86.0
1284,155.05559643750001,155.25170425625004,45.0,90.0
1285,155.05559643750001,155.2621833,61.0,100.0
1286,155.05559643750001,155.2621833,64.0,88.0
1287,155.41487793750002,155.61697378125,45.0,82.0
1288,155.41487793750002,155.62745282500003,57.0,93.0
1289,155.41487793750002,155.62745282500003,61.0,117.0
1290,155.41487793750002,155.62745282500003,64.0,92.0
1291,155.77415943750003,155.95080617500003,61.0,99.0
1292,155.77415943750003,155.9538001875,52.0,90.0
1293,155.77415943750003,155.95679420000002,45.0,49.0
1294,155.77415943750003,155.96128521875002,64.0,86.0
1295,155.77415943750003,155.974758275,57.0,88.0
1296,156.1334409375,156.30859066875,52.0,86.0
1297,156.1334409375,156.31158468125,61.0,107.0
1298,156.1334409375,156.32655474375002,45.0,89.0
1299,156.1334409375,156.33853079375,64.0,92.0
1300,156.1334409375,156.34002780000003,57.0,93.0
1301,156.49272243750002,156.6753572,52.0,86.0
1302,156.49272243750002,156.69182426875,57.0,90.0
1303,156.49272243750002,156.69332127500002,45.0,95.0
1304,156.49272243750002,156.69481828125004,61.0,102.0
1305,156.49272243750002,156.705297325,64.0,82.0
1306,156.8520039375,157.0076925875,45.0,86.0
1307,156.8520039375,157.03463870000002,52.0,75.0
1308,156.8520039375,157.05409978125002,57.0,90.0
1309,156.8520039375,157.0555967875,61.0,112.0
1310,156.8520039375,157.06308181875002,64.0,86.0
1311,157.2112854375,157.40589625,52.0,79.0
1312,157.2112854375,157.41637529375004,45.0,97.0
1313,157.2112854375,157.42386032500002,57.0,88.0
1314,157.2112854375,157.42386032500002,61.0,107.0
1315,157.2112854375,157.43134535625,64.0,88.0
1316,157.57056693750002,157.74871068125003,52.0,76.0
1317,157.57056693750002,157.75769271875004,45.0,95.0
1318,157.57056693750002,157.77415978750003,57.0,90.0
1319,157.57056693750002,157.78314182500003,61.0,122.0
1320,157.57056693750002,157.79212386250003,64.0,89.0
1321,157.92984843750003,158.01517779375,52.0,77.0
1322,157.92984843750003,158.01517779375,64.0,69.0
1323,157.92984843750003,158.02415983125002,45.0,100.0
1324,157.92984843750003,158.0316448625,61.0,99.0
1325,157.92984843750003,158.0615849875,57.0,77.0
1326,158.28912993750004,158.4987108125,68.0,102.0
1327,158.28912993750004,158.51517788125,40.0,73.0
1328,158.28912993750004,158.51517788125,52.0,97.0
1329,158.28912993750004,158.5196689,59.0,100.0
1330,158.28912993750004,158.52116590625002,64.0,100.0
1331,158.64841143750002,158.83703422500002,52.0,85.0
1332,158.64841143750002,158.84152524375003,68.0,93.0
1333,158.64841143750002,158.84601626250003,40.0,72.0
1334,158.64841143750002,158.85050728125003,59.0,89.0
1335,158.64841143750002,158.860986325,64.0,93.0
1336,159.0076929375,159.2112857875,52.0,95.0
1337,159.0076929375,159.2142798,59.0,95.0
1338,159.0076929375,159.21877081875002,68.0,102.0
1339,159.0076929375,159.22176483125003,40.0,82.0
1340,159.0076929375,159.22326183750002,64.0,96.0
1341,159.3669744375,159.53613614375,40.0,68.0
1342,159.3669744375,159.54511818125002,52.0,89.0
1343,159.3669744375,159.55859123750002,59.0,92.0
1344,159.3669744375,159.5705672875,68.0,88.0
1345,159.3669744375,159.57805231875,64.0,89.0
1346,159.7262559375,159.89841165625,40.0,81.0
1347,159.7262559375,159.89841165625,52.0,86.0
1348,159.7262559375,159.90889070000003,59.0,97.0
1349,159.7262559375,159.91487872500002,68.0,102.0
1350,159.7262559375,159.9238607625,64.0,97.0
1351,160.08553743750002,160.25469914375003,52.0,89.0
1352,160.08553743750002,160.27266321875,40.0,82.0
1353,160.08553743750002,160.29811232500003,59.0,92.0
1354,160.08553743750002,160.30559735625002,68.0,97.0
1355,160.08553743750002,160.3130823875,64.0,96.0
1356,160.44481893750003,160.59152555000003,52.0,95.0
1357,160.44481893750003,160.60050758750003,40.0,83.0
1358,160.44481893750003,160.63793274375,59.0,97.0
1359,160.44481893750003,160.64242376250002,68.0,102.0
1360,160.44481893750003,160.65140580000002,64.0,107.0
1361,160.8041004375,161.09751366250003,68.0,102.0
1362,160.8041004375,161.10200468125004,52.0,97.0
1363,160.8041004375,161.10200468125004,59.0,100.0
1364,160.8041004375,161.10200468125004,64.0,99.0
1365,160.8041004375,161.10948971250002,40.0,86.0
1366,161.16338193750002,161.37745383125002,52.0,90.0
1367,161.16338193750002,161.3939209,40.0,73.0
1368,161.16338193750002,161.39541790625003,68.0,96.0
1369,161.16338193750002,161.39841191875,59.0,96.0
1370,161.16338193750002,161.41188497500002,64.0,99.0
1371,161.5226634375,161.7202682625,52.0,89.0
1372,161.5226634375,161.74272335625,68.0,97.0
1373,161.5226634375,161.747214375,59.0,95.0
1374,161.5226634375,161.7502083875,40.0,70.0
1375,161.5226634375,161.75320240000002,64.0,96.0
1376,161.8819449375,162.06907071875003,52.0,95.0
1377,161.8819449375,162.0885318,40.0,77.0
1378,161.8819449375,162.0975138375,68.0,99.0
1379,161.8819449375,162.09901084375002,59.0,95.0
1380,161.8819449375,162.10350186250002,64.0,96.0
1381,162.24122643750002,162.43134623125002,52.0,95.0
1382,162.24122643750002,162.45978935000002,40.0,74.0
1383,162.24122643750002,162.46428036875,68.0,99.0
1384,162.24122643750002,162.46727438125004,59.0,93.0
1385,162.24122643750002,162.46727438125004,64.0,96.0
1386,162.60050793750003,162.78463970625,52.0,99.0
1387,162.60050793750003,162.81907085,40.0,79.0
1388,162.60050793750003,162.83254390625,59.0,93.0
1389,162.60050793750003,162.8400289375,68.0,95.0
1390,162.60050793750003,162.84451995625,64.0,99.0
1391,162.95978943750004,163.15440025,52.0,97.0
1392,162.95978943750004,163.16188528125002,40.0,78.0
1393,162.95978943750004,163.18733438750002,59.0,96.0
1394,162.95978943750004,163.19781343125,68.0,95.0
1395,162.95978943750004,163.20230445,64.0,95.0
1396,163.31907093750002,163.58104703125002,52.0,99.0
1397,163.31907093750002,163.58703505625002,40.0,82.0
1398,163.31907093750002,163.61547817500002,59.0,102.0
1399,163.31907093750002,163.61996919375002,68.0,102.0
1400,163.31907093750002,163.62296320625,64.0,99.0
1401,163.6783524375,164.01218483125,59.0,100.0
1402,163.6783524375,164.0196698625,64.0,102.0
1403,163.6783524375,164.02416088125,52.0,99.0
1404,163.6783524375,164.0376339375,40.0,83.0
1405,163.6783524375,164.04212495625,68.0,117.0
1406,164.75619693750002,165.1334425125,66.0,100.0
1407,164.75619693750002,165.1394305375,61.0,127.0
1408,164.75619693750002,165.14092754375002,57.0,117.0
1409,165.2951191875,165.56607731875002,61.0,127.0
1410,165.2951191875,165.567574325,66.0,112.0
1411,165.2951191875,165.57356235000003,57.0,100.0
1412,165.11547843750003,165.7382330375,54.0,96.0
1413,165.65440068750002,166.0076941625,57.0,86.0
1414,165.65440068750002,166.0076941625,61.0,107.0
1415,165.65440068750002,166.0076941625,66.0,97.0
1416,166.01368218750002,166.25320318750002,54.0,93.0
1417,164.3969154375,166.38493973750002,49.0,69.0
1418,164.0376339375,166.39541878125002,42.0,107.0
1419,166.37296368750003,166.51967030000003,54.0,112.0
1420,166.1933229375,166.58703558125,61.0,127.0
1421,166.5526044375,166.8400296375,57.0,122.0
1422,166.7322451875,166.91038893125,61.0,127.0
1423,166.1933229375,166.96877217500003,66.0,127.0
1424,167.27116743750003,167.73673638125,54.0,99.0
1425,167.63044893750003,168.02416158125,59.0,100.0
1426,167.63044893750003,168.03164661250003,66.0,122.0
1427,167.63044893750003,168.04212565625002,63.0,127.0
1428,168.16937118750002,168.42535925625003,59.0,97.0
1429,168.16937118750002,168.42985027500004,63.0,117.0
1430,168.16937118750002,168.43434129375,66.0,117.0
1431,167.98973043750001,168.7382335625,54.0,102.0
1432,168.52865268750003,168.8460180125,59.0,93.0
1433,168.52865268750003,168.86547909375003,63.0,127.0
1434,168.52865268750003,168.87595813750002,66.0,112.0
1435,168.88793418750004,169.1454192625,54.0,82.0
1436,166.91188593750002,169.23673664375002,47.0,97.0
1437,169.0675749375,169.23673664375002,63.0,127.0
1438,169.0675749375,169.26368275625003,66.0,122.0
1439,169.42685643750002,169.50470076250002,63.0,122.0
1440,169.42685643750002,169.51967082500002,66.0,112.0
1441,169.42685643750002,169.52266483750003,59.0,92.0
1442,169.6064971875,169.93284455000003,66.0,122.0
1443,169.6064971875,170.11847332500002,63.0,127.0
1444,169.6064971875,170.12595835625,59.0,85.0
1445,170.50470093750002,170.90140759375004,59.0,107.0
1446,170.50470093750002,170.9298507125,68.0,107.0
1447,170.50470093750002,170.94631778125,64.0,107.0
1448,171.04362318750003,171.31458131875002,68.0,102.0
1449,171.04362318750003,171.3250603625,59.0,102.0
1450,171.04362318750003,171.3310483875,64.0,96.0
1451,170.8639824375,171.5585933375,52.0,90.0
1452,171.4029046875,171.81458140625,68.0,95.0
1453,171.4029046875,171.82356344375,64.0,93.0
1454,171.4029046875,171.84003051250002,59.0,92.0
1455,171.76218618750002,172.01068922500002,52.0,90.0
1456,171.94182693750002,172.2292521375,64.0,102.0
1457,172.1214676875,172.34751563125002,52.0,102.0
1458,169.78613793750003,172.41338390625003,40.0,82.0
1459,170.1454194375,172.67685700625003,47.0,60.0
1460,171.94182693750002,173.2262583,68.0,112.0
1461,172.4807491875,173.232246325,64.0,100.0
1462,172.30110843750003,173.23374333125003,59.0,112.0
1463,172.6603899375,173.61697693125,40.0,117.0
1464,173.3789529375,173.78314462500003,64.0,112.0
1465,173.3789529375,173.78613863750002,59.0,97.0
1466,173.3789529375,173.79062965625002,68.0,117.0
1467,173.7382344375,173.90889315,52.0,107.0
1468,173.91787518750002,174.16488121875,59.0,107.0
1469,173.91787518750002,174.17536026250002,64.0,107.0
1470,173.91787518750002,174.17685726875,68.0,122.0
1471,173.91787518750002,174.42536030625,52.0,78.0
1472,173.91787518750002,174.43883336250002,40.0,92.0
1473,173.01967143750002,174.48224654375002,47.0,97.0
1474,174.2771566875,174.62895315625002,59.0,107.0
1475,174.2771566875,174.62895315625002,68.0,112.0
1476,174.2771566875,174.63494118125,64.0,99.0
1477,174.6364381875,174.86697715000003,52.0,102.0
1478,174.6364381875,174.8699711625,40.0,81.0
1479,174.6364381875,174.87745619375002,47.0,95.0
1480,174.8160789375,174.99122866875,59.0,86.0
1481,174.8160789375,175.05709694375003,64.0,99.0
1482,174.8160789375,175.06757598750002,68.0,117.0
1483,174.9957196875,175.0855400625,40.0,47.0
1484,174.9957196875,175.13045025000002,47.0,59.0
1485,174.9957196875,175.21577960625,52.0,112.0
1486,175.17536043750002,175.43284551250002,64.0,107.0
1487,175.17536043750002,175.45979162500004,68.0,117.0
1488,175.35500118750002,175.5735641,59.0,102.0
1489,175.5346419375,175.75470185625002,42.0,107.0
1490,175.8939234375,176.43583970000003,54.0,100.0
1491,176.25320493750002,176.65589961875003,66.0,107.0
1492,176.25320493750002,176.65739662500002,61.0,122.0
1493,176.25320493750002,176.66488165625003,57.0,99.0
1494,176.7921271875,177.04063022500003,61.0,127.0
1495,176.7921271875,177.04661825,66.0,107.0
1496,176.7921271875,177.0585943,57.0,96.0
1497,176.61248643750002,177.33254644375,54.0,112.0
1498,175.8939234375,177.41338478125002,42.0,58.0
1499,175.8939234375,177.42236681875002,49.0,54.0
1500,177.1514086875,177.50769617500004,61.0,127.0
1501,177.1514086875,177.52566025000002,66.0,107.0
1502,177.1514086875,177.52715725625,57.0,86.0
1503,177.51069018750002,177.77865430625002,54.0,85.0
1504,177.69033093750002,177.855001625,61.0,127.0
1505,177.69033093750002,177.88494175,66.0,112.0
1506,177.51069018750002,178.00470225000004,42.0,77.0
1507,177.51069018750002,178.00919326875,49.0,60.0
1508,177.86997168750003,178.06158848750002,54.0,102.0
1509,178.0496124375,178.28763643125,61.0,122.0
1510,178.0496124375,178.32057056875001,66.0,117.0
1511,178.22925318750003,178.59901373125,57.0,112.0
1512,178.76817543750002,179.25619947500002,52.0,92.0
1513,179.12745693750003,179.375959975,64.0,102.0
1514,179.12745693750003,179.3849420125,60.0,112.0
1515,178.4088939375,179.65739715,45.0,95.0
1516,179.3070976875,179.76218758750002,52.0,72.0
1517,179.48673843750004,179.7981157375,60.0,97.0
1518,179.48673843750004,179.7981157375,64.0,95.0
1519,179.6663791875,179.8639840125,57.0,99.0
1520,180.2053014375,180.6274572,57.0,93.0
1521,179.84601993750002,180.6514093,50.0,107.0
1522,180.5645829375,180.80709795,62.0,127.0
1523,180.5645829375,180.819074,66.0,117.0
1524,180.92386443750001,181.16787645625,57.0,102.0
1525,181.10350518750002,181.20679861875,47.0,27.0
1526,180.92386443750001,181.21428365000003,62.0,97.0
1527,180.92386443750001,181.23374473125,66.0,102.0
1528,180.7442236875,181.256199825,50.0,97.0
1529,182.0017089375,182.29212815,68.0,112.0
1530,182.0017089375,182.30260719375002,59.0,92.0
1531,182.0017089375,182.30560120625,64.0,100.0
1532,181.28314593750002,182.4088946375,40.0,112.0
1533,181.64242743750003,182.47775692500002,52.0,82.0
1534,181.64242743750003,182.50170902500003,47.0,63.0
1535,182.89991268750003,183.172367825,52.0,97.0
1536,182.36099043750002,183.23374508125002,68.0,99.0
1537,182.36099043750002,183.24272711875,64.0,100.0
1538,182.36099043750002,183.25470316875,59.0,83.0
1539,183.25919418750001,183.47925410625,52.0,88.0
1540,183.43883493750002,183.63194874375,64.0,117.0
1541,183.43883493750002,183.63943377500001,59.0,89.0
1542,183.43883493750002,183.63943377500001,68.0,112.0
1543,183.79811643750003,183.88344579375,64.0,99.0
1544,183.79811643750003,183.88494280000003,59.0,86.0
1545,183.79811643750003,183.88793681250002,68.0,96.0
1546,182.54063118750003,184.00620030625004,40.0,97.0
1547,183.6184756875,184.10200870625002,52.0,100.0
1548,182.89991268750003,184.1274578125,47.0,92.0
1549,183.9777571875,184.59003274375002,64.0,95.0
1550,183.9777571875,184.6244638875,68.0,93.0
1551,183.9777571875,184.6304519125,59.0,77.0
1552,184.8759609375,184.90141004375002,59.0,49.0
1553,184.51667943750002,185.05111066875003,52.0,90.0
1554,184.15739793750004,185.31158975625002,40.0,99.0
1555,184.8759609375,185.31158975625002,64.0,99.0
1556,184.8759609375,185.3130867625,68.0,99.0
1557,185.2352424375,185.32506281250002,52.0,96.0
1558,184.51667943750002,185.3430268875,47.0,69.0
1559,185.4148831875,185.65590119375003,64.0,79.0
1560,185.4148831875,185.66188921875002,68.0,78.0
1561,185.4148831875,186.04961383750003,52.0,117.0
1562,185.4148831875,186.07805695625,40.0,93.0
1563,185.4148831875,186.09602103125002,47.0,100.0
1564,185.77416468750002,186.15590128125,64.0,100.0
1565,185.77416468750002,186.16188930625003,59.0,96.0
1566,185.77416468750002,186.16488331875001,68.0,97.0
1567,186.1334461875,186.31608095,40.0,65.0
1568,186.1334461875,186.32955400625002,52.0,100.0
1569,186.1334461875,186.33554203125001,47.0,82.0
1570,186.31308693750003,186.47176960000002,59.0,92.0
1571,186.31308693750003,186.47925463125,64.0,117.0
1572,186.31308693750003,186.48524265625002,68.0,102.0
1573,186.6723684375,186.75170976875,64.0,102.0
1574,186.6723684375,186.75919480000002,68.0,97.0
1575,186.6723684375,186.76069180625,59.0,88.0
1576,186.4927276875,186.9418295625,52.0,102.0
1577,186.4927276875,186.9508116,47.0,92.0
1578,186.4927276875,186.97775771250002,40.0,66.0
1579,186.85200918750002,187.02117089375002,59.0,93.0
1580,186.85200918750002,187.02266790000002,64.0,112.0
1581,186.85200918750002,187.06009305625003,68.0,127.0
1582,187.7502129375,188.12745851250003,66.0,100.0
1583,187.7502129375,188.13344653750002,61.0,127.0
1584,187.7502129375,188.13494354375,57.0,117.0
1585,188.28913518750002,188.56009331875003,61.0,127.0
1586,188.28913518750002,188.561590325,66.0,112.0
1587,188.28913518750002,188.56757835000002,57.0,100.0
1588,188.10949443750002,188.73224903750003,54.0,96.0
1589,188.6484166875,189.00171016250002,57.0,86.0
1590,188.6484166875,189.00171016250002,61.0,107.0
1591,188.6484166875,189.00171016250002,66.0,97.0
1592,189.0076981875,189.24721918750004,54.0,93.0
1593,187.3909314375,189.3789557375,49.0,69.0
1594,187.03164993750002,189.38943478125003,42.0,107.0
1595,189.36697968750002,189.51368630000002,54.0,112.0
1596,189.18733893750002,189.58105158125002,61.0,127.0
1597,189.5466204375,189.83404563750003,57.0,122.0
1598,189.72626118750003,189.90440493125,61.0,127.0
1599,189.18733893750002,189.96278817500001,66.0,127.0
1600,190.2651834375,190.73075238125,54.0,99.0
1601,190.62446493750002,191.01817758125003,59.0,100.0
1602,190.62446493750002,191.0256626125,66.0,122.0
1603,190.62446493750002,191.03614165625,63.0,127.0
1604,191.1633871875,191.41937525625002,59.0,97.0
1605,191.1633871875,191.42386627500002,63.0,117.0
1606,191.1633871875,191.42835729375003,66.0,117.0
1607,190.98374643750003,191.73224956250002,54.0,102.0
1608,191.52266868750002,191.8400340125,59.0,93.0
1609,191.52266868750002,191.85949509375,63.0,127.0
1610,191.52266868750002,191.86997413750004,66.0,112.0
1611,191.88195018750002,192.1394352625,54.0,82.0
1612,189.9059019375,192.23075264375,47.0,97.0
1613,192.0615909375,192.23075264375,63.0,127.0
1614,192.0615909375,192.25769875625002,66.0,122.0
1615,192.4208724375,192.4987167625,63.0,122.0
1616,192.4208724375,192.51368682500004,66.0,112.0
1617,192.4208724375,192.51668083750002,59.0,92.0
1618,192.6005131875,192.92686055000001,66.0,122.0
1619,192.6005131875,193.112489325,63.0,127.0
1620,192.6005131875,193.11997435625,59.0,85.0
1621,193.49871693750003,193.89542359375002,59.0,107.0
1622,193.49871693750003,193.9238667125,68.0,107.0
1623,193.49871693750003,193.94033378125002,64.0,107.0
1624,194.03763918750002,194.30859731875,68.0,102.0
1625,194.03763918750002,194.31907636250003,59.0,102.0
1626,194.03763918750002,194.32506438750002,64.0,96.0
1627,193.85799843750002,194.55260933750003,52.0,90.0
1628,194.39692068750003,194.80859740625002,68.0,95.0
1629,194.39692068750003,194.81757944375002,64.0,93.0
1630,194.39692068750003,194.8340465125,59.0,92.0
1631,194.75620218750004,195.004705225,52.0,90.0
1632,194.9358429375,195.2232681375,64.0,102.0
1633,195.11548368750002,195.34153163125,52.0,102.0
1634,192.78015393750002,195.40739990625002,40.0,82.0
1635,193.13943543750003,195.67087300625002,47.0,60.0
1636,194.9358429375,196.22027430000003,68.0,112.0
1637,195.4747651875,196.22626232500002,64.0,100.0
1638,195.29512443750002,196.22775933125,59.0,112.0
1639,195.65440593750003,196.61099293125,40.0,117.0
1640,196.37296893750002,196.77716062500002,64.0,112.0
1641,196.37296893750002,196.7801546375,59.0,97.0
1642,196.37296893750002,196.78464565625,68.0,117.0
1643,196.7322504375,196.90290915000003,52.0,107.0
1644,196.91189118750003,197.15889721875,59.0,107.0
1645,196.91189118750003,197.1693762625,64.0,107.0
1646,196.91189118750003,197.17087326875003,68.0,122.0
1647,196.91189118750003,197.41937630625,52.0,78.0
1648,196.91189118750003,197.4328493625,40.0,92.0
1649,196.0136874375,197.47626254375,47.0,97.0
1650,197.2711726875,197.62296915625,59.0,107.0
1651,197.2711726875,197.62296915625,68.0,112.0
1652,197.2711726875,197.62895718125003,64.0,99.0
1653,197.63045418750002,197.86099315,52.0,102.0
1654,197.63045418750002,197.8639871625,40.0,81.0
1655,197.63045418750002,197.87147219375004,47.0,95.0
1656,197.81009493750003,197.98524466875,59.0,86.0
1657,197.81009493750003,198.05111294375,64.0,99.0
1658,197.81009493750003,198.06159198750004,68.0,117.0
1659,197.9897356875,198.07955606250002,40.0,47.0
1660,197.9897356875,198.12446625,47.0,59.0
1661,197.9897356875,198.20979560625,52.0,112.0
1662,198.16937643750003,198.4268615125,64.0,107.0
1663,198.16937643750003,198.45380762500002,68.0,117.0
1664,198.3490171875,198.56758010000001,59.0,102.0
1665,198.52865793750001,198.74871785625,42.0,107.0
1666,198.88793943750002,199.42985570000002,54.0,100.0
1667,199.2472209375,199.64991561875001,66.0,107.0
1668,199.2472209375,199.65141262500003,61.0,122.0
1669,199.2472209375,199.65889765625002,57.0,99.0
1670,199.78614318750002,200.03464622500002,61.0,127.0
1671,199.78614318750002,200.04063425,66.0,107.0
1672,199.78614318750002,200.05261030000003,57.0,96.0
1673,199.6065024375,200.32656244375002,54.0,112.0
1674,198.88793943750002,200.40740078125003,42.0,58.0
1675,198.88793943750002,200.41638281875004,49.0,54.0
1676,200.1454246875,200.50171217500002,61.0,127.0
1677,200.1454246875,200.51967625000003,66.0,107.0
1678,200.1454246875,200.52117325625002,57.0,86.0
1679,200.5047061875,200.77267030625,54.0,85.0
1680,200.6843469375,200.84901762500002,61.0,127.0
1681,200.6843469375,200.87895775,66.0,112.0
1682,200.5047061875,200.99871825000002,42.0,77.0
1683,200.5047061875,201.00320926875003,49.0,60.0
1684,200.8639876875,201.05560448750003,54.0,102.0
1685,201.04362843750002,201.28165243125,61.0,122.0
1686,201.04362843750002,201.31458656875003,66.0,117.0
1687,201.22326918750002,201.59302973125,57.0,112.0
1688,201.7621914375,202.250215475,52.0,92.0
1689,202.12147293750002,202.36997597500002,64.0,102.0
1690,202.12147293750002,202.37895801250002,60.0,112.0
1691,201.4029099375,202.65141315,45.0,95.0
1692,202.30111368750002,202.7562035875,52.0,72.0
1693,202.48075443750002,202.79213173750003,60.0,97.0
1694,202.48075443750002,202.79213173750003,64.0,95.0
1695,202.6603951875,202.8580000125,57.0,99.0
1696,203.1993174375,203.62147320000003,57.0,93.0
1697,202.84003593750003,203.6454253,50.0,107.0
1698,203.5585989375,203.80111395,62.0,127.0
1699,203.5585989375,203.81309,66.0,117.0
1700,203.9178804375,204.16189245625003,57.0,102.0
1701,203.9178804375,204.20829965000001,62.0,97.0
1702,203.9178804375,204.22776073125004,66.0,102.0
1703,203.73823968750003,204.250215825,50.0,97.0
1704,204.63644343750002,205.17237167500002,52.0,88.0
1705,204.99572493750003,205.36847949375004,59.0,93.0
1706,204.99572493750003,205.37446751875,64.0,102.0
1707,204.99572493750003,205.37446751875,68.0,100.0
1708,205.5346471875,205.8011143,68.0,95.0
1709,205.5346471875,205.81159334375002,64.0,97.0
1710,205.5346471875,205.82356939375,59.0,88.0
1711,205.35500643750004,206.03913829375,52.0,89.0
1712,205.89392868750002,206.26668324375004,64.0,97.0
1713,205.89392868750002,206.27117426250004,68.0,96.0
1714,205.89392868750002,206.27566528125004,59.0,85.0
1715,206.25321018750003,206.52416831875001,52.0,78.0
1716,206.4328509375,206.60201264375002,64.0,100.0
1717,206.4328509375,206.609497675,59.0,83.0
1718,206.4328509375,206.609497675,68.0,96.0
1719,206.79213243750002,206.88794083750003,68.0,97.0
1720,206.79213243750002,206.89093485,64.0,100.0
1721,206.79213243750002,206.89841988125,59.0,83.0
1722,204.2771619375,207.00620433125,40.0,117.0
1723,204.63644343750002,207.00620433125,47.0,68.0
1724,206.61249168750004,207.03315044375,52.0,93.0
1725,206.9717731875,207.10201273125,64.0,100.0
1726,206.9717731875,207.1274618375,68.0,107.0
1727,206.9717731875,207.13195285625,59.0,89.0
1728,207.51069543750003,207.974767375,54.0,99.0
1729,207.51069543750003,208.0316536125,49.0,57.0
1730,207.86997693750004,208.26668359375003,66.0,96.0
1731,207.86997693750004,208.2681806,57.0,102.0
1732,207.86997693750004,208.28165365625,61.0,122.0
1733,208.40889918750003,208.71129445000003,66.0,100.0
1734,208.40889918750003,208.72177349375,61.0,112.0
1735,208.40889918750003,208.72476750625003,57.0,88.0
1736,208.2292584375,208.92386933750004,54.0,99.0
1737,208.2292584375,208.95530646875,49.0,52.0
1738,208.76818068750003,209.0975220625,57.0,85.0
1739,208.76818068750003,209.1065041,66.0,96.0
1740,208.76818068750003,209.11099511875,61.0,100.0
1741,209.12746218750004,209.38045624375002,54.0,92.0
1742,207.15141393750002,209.48225266875,42.0,102.0
1743,209.30710293750002,209.48225266875,61.0,122.0
1744,209.30710293750002,209.48225266875,66.0,107.0
1745,209.12746218750004,209.5136898,49.0,55.0
1746,209.4867436875,209.651414375,54.0,92.0
1747,209.66638443750003,209.93883957500003,61.0,127.0
1748,209.66638443750003,209.94931861875,66.0,117.0
1749,209.8460251875,209.99871982500002,57.0,112.0
1750,210.3849474375,210.91189363750004,54.0,92.0
1751,210.7442289375,211.14692361875,66.0,112.0
1752,210.7442289375,211.1514146375,59.0,97.0
1753,210.7442289375,211.15440865,63.0,127.0
1754,211.28315118750004,211.5526123125,66.0,102.0
1755,211.28315118750004,211.55860033750002,59.0,89.0
1756,211.28315118750004,211.55860033750002,63.0,107.0
1757,211.1035104375,211.81907942500004,54.0,99.0
1758,211.6424326875,212.03464832500003,59.0,83.0
1759,211.6424326875,212.03614533125,66.0,97.0
1760,211.6424326875,212.03764233750002,63.0,102.0
1761,212.0017141875,212.22476811875003,54.0,100.0
1762,212.18135493750003,212.3609956875,59.0,81.0
1763,212.18135493750003,212.3729717375,66.0,102.0
1764,212.18135493750003,212.37446874375001,63.0,117.0
1765,212.3609956875,212.45530708125,54.0,107.0
1766,210.02566593750004,212.47626516875,47.0,85.0
1767,212.54063643750004,212.62895980625,59.0,77.0
1768,212.54063643750004,212.62895980625,63.0,127.0
1769,212.54063643750004,212.63195381875,66.0,117.0
1770,212.72027718750002,212.94632513125003,63.0,107.0
1771,212.72027718750002,212.95979818750004,66.0,99.0
1772,212.72027718750002,213.02117544375,59.0,83.0
1773,213.2591994375,213.78015761250003,52.0,79.0
1774,213.6184809375,214.0196786125,59.0,93.0
1775,213.6184809375,214.02566663750002,68.0,97.0
1776,213.6184809375,214.03015765625003,64.0,97.0
1777,214.1574031875,214.42836131875004,59.0,92.0
1778,214.1574031875,214.42836131875004,68.0,99.0
1779,214.1574031875,214.43434934375,64.0,96.0
1780,213.97776243750002,214.6424332125,52.0,93.0
1781,214.5166846875,214.89542726875004,59.0,92.0
1782,214.5166846875,214.90440930625,68.0,88.0
1783,214.5166846875,214.91339134375,64.0,92.0
1784,214.8759661875,215.10201413125003,52.0,79.0
1785,215.05560693750004,215.23375068125,59.0,89.0
1786,215.05560693750004,215.24572673125004,64.0,97.0
1787,215.05560693750004,215.25171475625,68.0,99.0
1788,215.4148884375,215.50021779375004,68.0,100.0
1789,215.4148884375,215.5106968375,59.0,88.0
1790,215.4148884375,215.51219384375003,64.0,100.0
1791,212.8999179375,215.63494835625,40.0,97.0
1792,213.2591994375,215.8130921,47.0,65.0
1793,215.59452918750003,216.17237360000001,64.0,96.0
1794,215.59452918750003,216.17237360000001,68.0,96.0
1795,215.59452918750003,216.18884066875,59.0,82.0
1796,215.23524768750002,216.65590661875,52.0,96.0
1797,216.49273293750002,216.90141564375,68.0,107.0
1798,216.49273293750002,216.90440965625004,64.0,107.0
1799,216.49273293750002,216.9059066625,59.0,96.0
1800,217.0316551875,217.29213427500002,68.0,100.0
1801,217.0316551875,217.29363128125004,64.0,96.0
1802,217.0316551875,217.29662529375003,59.0,92.0
1803,215.7741699375,217.52117623125002,40.0,97.0
1804,216.85201443750003,217.5705774375,52.0,97.0
1805,216.1334514375,217.62596666875004,47.0,70.0
1806,217.39093668750002,217.72926010000003,64.0,92.0
1807,217.39093668750002,217.73674513125002,68.0,95.0
1808,217.39093668750002,217.73824213750004,59.0,83.0
1809,217.75021818750002,218.046625425,52.0,86.0
1810,217.75021818750002,218.06009848125,40.0,82.0
1811,217.75021818750002,218.07656555,47.0,72.0
1812,217.9298589375,218.14991885625,59.0,93.0
1813,217.9298589375,218.16189490625004,64.0,99.0
1814,217.9298589375,218.16937993750003,68.0,100.0
1815,218.10949968750003,218.22626617500003,40.0,59.0
1816,218.10949968750003,218.26369133125002,47.0,72.0
1817,218.10949968750003,218.3190805625,52.0,99.0
1818,218.2891404375,218.5915357,64.0,102.0
1819,218.2891404375,218.59752372500003,68.0,112.0
1820,218.46878118750004,218.71878123125003,59.0,112.0
1821,219.00770343750003,219.47476938750003,54.0,100.0
1822,219.00770343750003,219.59303288125,49.0,37.0
1823,219.36698493750004,219.75470955625002,61.0,122.0
1824,219.36698493750004,219.75770356875,66.0,112.0
1825,219.36698493750004,219.76518860000004,57.0,102.0
1826,219.90590718750002,220.15740423750003,61.0,100.0
1827,219.90590718750002,220.16039825000001,57.0,93.0
1828,219.90590718750002,220.16189525625003,66.0,96.0
1829,219.72626643750004,220.42387135,54.0,100.0
1830,219.72626643750004,220.52417076875003,49.0,47.0
1831,220.26518868750003,220.62447018750004,61.0,102.0
1832,220.26518868750003,220.62896120625004,66.0,92.0
1833,220.26518868750003,220.65890133125004,57.0,85.0
1834,220.62447018750004,220.87147621875,54.0,93.0
1835,220.8041109375,221.02716486875,66.0,112.0
1836,220.8041109375,221.03315289375,61.0,127.0
1837,218.64842193750002,221.08405110625,42.0,93.0
1838,220.62447018750004,221.08405110625,49.0,70.0
1839,220.9837516875,221.14692536875003,54.0,100.0
1840,221.16339243750002,221.2741709,66.0,107.0
1841,221.16339243750002,221.27866191875,61.0,112.0
1842,221.3430331875,221.51369190000003,66.0,50.0
1843,221.3430331875,221.51818291875003,61.0,66.0
1844,221.3430331875,221.52267393750003,57.0,122.0
1845,221.88195543750004,222.41339265625004,57.0,96.0
1846,222.2412369375,222.53614716875,69.0,93.0
1847,222.2412369375,222.53764417500003,64.0,95.0
1848,222.2412369375,222.54213519375003,60.0,93.0
1849,221.88195543750004,222.55710525625,52.0,59.0
1850,221.52267393750003,222.56009926875004,45.0,102.0
1851,222.6005184375,222.96279395,64.0,86.0
1852,222.6005184375,222.96429095625,69.0,92.0
1853,222.6005184375,222.97776401250002,60.0,77.0
1854,223.67836293750003,223.70830306250002,57.0,72.0
1855,223.31908143750002,223.7681833125,50.0,97.0
1856,223.67836293750003,223.9059078875,62.0,112.0
1857,223.67836293750003,223.91189591250003,66.0,102.0
1858,222.9597999375,224.0136923375,38.0,83.0
1859,223.31908143750002,224.26968040625002,45.0,65.0
1860,223.8580036875,224.27267441875,50.0,92.0
1861,224.03764443750003,224.30860256875002,62.0,102.0
1862,224.03764443750003,224.3370456875,66.0,107.0
1863,224.2172851875,224.405907975,57.0,107.0
1864,224.7562074375,225.29063866875003,52.0,100.0
1865,224.7562074375,225.3909380875,47.0,69.0
1866,225.1154889375,225.50620756875003,59.0,112.0
1867,225.1154889375,225.50620756875003,68.0,122.0
1868,225.1154889375,225.52267463750002,64.0,112.0
1869,225.6544111875,225.90740524375002,59.0,93.0
1870,225.6544111875,225.91189626250002,68.0,100.0
1871,225.6544111875,225.91638728125002,64.0,97.0
1872,225.4747704375,226.15291426875,52.0,107.0
1873,226.0136926875,226.37896221250003,59.0,95.0
1874,226.0136926875,226.39692628750004,68.0,95.0
1875,226.0136926875,226.40141730625004,64.0,95.0
1876,226.3729741875,226.60201614375,52.0,96.0
1877,224.39692593750004,226.60351315000003,40.0,97.0
1878,225.4747704375,226.62147722500004,47.0,61.0
1879,226.55261493750004,226.73375269375003,59.0,93.0
1880,226.55261493750004,226.73375269375003,68.0,95.0
1881,226.55261493750004,226.73974071875,64.0,96.0
1882,226.73225568750001,226.97177668750004,40.0,55.0
1883,226.9118964375,226.98824375625003,64.0,97.0
1884,226.9118964375,226.9987228,68.0,99.0
1885,226.9118964375,227.00171681250004,59.0,89.0
1886,226.73225568750001,227.01369286250002,47.0,63.0
1887,226.73225568750001,227.0376449625,52.0,99.0
1888,227.09153718750002,227.17686654375,68.0,90.0
1889,227.09153718750002,227.19483061875002,64.0,90.0
1890,227.09153718750002,227.19632762500004,59.0,74.0
1891,227.2711779375,228.70381291875003,64.0,102.0
1892,227.2711779375,228.70680693125001,68.0,117.0
1893,227.2711779375,228.70830393750003,59.0,96.0
1894,227.2711779375,228.71279495625004,52.0,99.0
1895,227.2711779375,228.72477100625002,47.0,83.0
1896,227.2711779375,228.741238075,40.0,79.0
