,start,end,pitch,velocity
0,17.974998502083338,18.25681666041667,77.0,117.0
1,18.247725752083337,18.568180270833338,78.0,87.0
2,18.520453002083336,18.799998433333336,77.0,102.0
3,18.793180252083335,19.065907502083338,70.0,100.0
4,19.065907502083338,19.636362000000002,73.0,100.0
5,19.636362000000002,20.181816500000004,75.0,113.0
6,20.181816500000004,22.090907250000004,72.0,110.0
7,22.090907250000004,22.363634500000003,68.0,102.0
8,22.363634500000003,22.636361750000003,75.0,114.0
9,22.636361750000003,22.909089000000005,77.0,100.0
10,22.909089000000005,23.181816250000004,75.0,102.0
11,23.181816250000004,23.454543500000003,68.0,88.0
12,23.454543500000003,23.999998000000005,72.0,102.0
13,23.999998000000005,24.545452500000003,73.0,98.0
14,24.545452500000003,26.45227052291667,70.0,102.0
15,26.454543250000004,26.727270500000003,70.0,96.0
16,26.727270500000003,27.272725000000005,77.0,110.0
17,27.272725000000005,27.545452250000004,75.0,102.0
18,27.545452250000004,28.090906750000006,77.0,108.0
19,28.090906750000006,28.909088500000006,70.0,96.0
20,28.909088500000006,29.454543000000005,77.0,113.0
21,29.454543000000005,29.727270250000004,75.0,104.0
22,29.727270250000004,30.272724750000005,77.0,107.0
23,30.272724750000005,31.088633772916673,70.0,102.0
24,31.090906500000006,31.363633750000005,68.0,89.0
25,31.636361000000004,35.724997022916675,77.0,107.0
26,35.45454250000001,35.724997022916675,77.0,116.0
27,35.727269750000005,36.02954245208334,78.0,91.0
28,35.99999700000001,36.27272425,77.0,104.0
29,36.27272425,36.545451500000006,70.0,102.0
30,36.545451500000006,37.04317873125001,73.0,86.0
31,37.090906000000004,37.36590597708334,77.0,110.0
32,37.36363325000001,39.54772397708334,72.0,107.0
33,39.545451250000006,39.81817850000001,68.0,90.0
34,39.81817850000001,40.090905750000005,75.0,98.0
35,40.090905750000005,40.39090572500001,77.0,88.0
36,40.36363300000001,40.63636025000001,75.0,98.0
37,40.63636025000001,40.91136022708334,68.0,98.0
38,40.909087500000005,41.454542000000004,72.0,87.0
39,41.454542000000004,41.99999650000001,73.0,89.0
40,41.99999650000001,43.63408727291667,70.0,89.0
41,43.63636000000001,43.91135997708334,70.0,107.0
42,43.909087250000006,44.18181450000001,73.0,91.0
43,44.18181450000001,44.72726900000001,77.0,113.0
44,44.72726900000001,44.99999625000001,75.0,98.0
45,44.99999625000001,45.54545075000001,77.0,117.0
46,45.54545075000001,46.36363250000001,70.0,108.0
47,46.36363250000001,46.90908700000001,77.0,107.0
48,46.90908700000001,47.18181425000001,75.0,102.0
49,47.18181425000001,47.72726875000001,77.0,91.0
50,47.72726875000001,48.54545050000001,80.0,107.0
51,48.54545050000001,52.36135927291667,77.0,108.0
52,52.36363200000001,52.63635925000001,77.0,113.0
53,52.63635925000001,52.90908650000001,78.0,100.0
54,52.90908650000001,53.452268272916676,80.0,113.0
55,53.454541000000006,53.77954097291668,80.0,108.0
56,53.72726825000001,54.28408638541668,78.0,110.0
57,54.27272275000001,54.81817725000001,77.0,107.0
58,54.81817725000001,56.72726800000001,75.0,104.0
59,56.72726800000001,57.015904339583344,73.0,107.0
60,56.99999525000001,57.27272250000001,75.0,94.0
61,57.27272250000001,57.81817700000001,77.0,108.0
62,57.81817700000001,58.08863152291668,80.0,107.0
63,58.09090425000001,58.63635875000001,80.0,107.0
64,58.63635875000001,59.18181325000001,72.0,113.0
65,59.18181325000001,61.08863127291668,70.0,114.0
66,61.09090400000001,61.36363125000001,70.0,114.0
67,61.36363125000001,61.63635850000001,77.0,110.0
68,61.63635850000001,62.18181300000001,75.0,113.0
69,62.18181300000001,62.45454025000001,73.0,104.0
70,62.45454025000001,63.54544925000001,75.0,114.0
71,63.54544925000001,63.818176500000014,73.0,94.0
72,63.818176500000014,64.36363100000001,75.0,113.0
73,64.36363100000001,64.63635825000001,73.0,100.0
74,64.63635825000001,65.18181275,75.0,113.0
75,65.18181275,65.72726725000001,77.0,113.0
76,65.72726725000001,70.09090325000001,80.0,116.0
77,70.09090325000001,70.36363050000001,68.0,114.0
78,70.36363050000001,70.63635775000002,82.0,104.0
79,70.63635775000002,70.90681227291668,80.0,91.0
80,70.90908500000002,71.18181225000001,80.0,102.0
81,71.18181225000001,71.45453950000001,77.0,102.0
82,71.45453950000001,71.99999400000002,80.0,117.0
83,71.99999400000002,72.27272125000002,77.0,113.0
84,72.27272125000002,72.81817575000001,80.0,117.0
85,72.81817575000001,73.09090300000001,77.0,113.0
86,73.09090300000001,73.37499388541669,80.0,117.0
87,73.36363025000001,74.45453925000001,77.0,110.0
88,74.45453925000001,74.72726650000001,68.0,108.0
89,74.72726650000001,74.99999375000002,82.0,94.0
90,74.99999375000002,75.27044827291668,80.0,85.0
91,75.27272100000002,75.54544825,80.0,110.0
92,75.54544825,75.81817550000001,77.0,100.0
93,75.81817550000001,76.36363000000001,80.0,119.0
94,76.36363000000001,76.90908450000002,84.0,116.0
95,76.90908450000002,77.45453900000001,80.0,116.0
96,77.45453900000001,78.81590252291667,77.0,113.0
97,78.81817525000001,79.09090250000001,77.0,113.0
98,79.09090250000001,79.63408427291668,80.0,113.0
99,79.63635700000002,79.90908425,80.0,110.0
100,79.90908425,80.99999325000002,73.0,116.0
101,80.99999325000002,81.27272050000002,68.0,92.0
102,81.27272050000002,81.81590227291667,80.0,107.0
103,81.81817500000001,82.09090225000001,80.0,104.0
104,82.09090225000001,83.18181125000001,73.0,107.0
105,83.18181125000001,83.45453850000001,68.0,110.0
106,83.45453850000001,84.54544750000001,78.0,113.0
107,84.54544750000001,85.63635650000002,77.0,117.0
108,85.63635650000002,87.54544725000001,75.0,119.0
109,87.54544725000001,87.81817450000001,68.0,114.0
110,87.81817450000001,88.09090175000001,82.0,104.0
111,88.09090175000001,88.36135627291668,80.0,91.0
112,88.36362900000002,88.63635625000002,80.0,102.0
113,88.63635625000002,88.90908350000001,77.0,102.0
114,88.90908350000001,89.45453800000001,80.0,117.0
115,89.45453800000001,89.72726525000002,77.0,113.0
116,89.72726525000002,90.27271975000002,80.0,117.0
117,90.27271975000002,90.54544700000001,77.0,113.0
118,90.54544700000001,90.82953788541668,80.0,117.0
119,90.81817425000001,91.90908325000001,77.0,110.0
120,91.90908325000001,92.18181050000001,68.0,108.0
121,92.18181050000001,92.45453775000001,82.0,94.0
122,92.45453775000001,92.72499227291668,80.0,85.0
123,92.72726500000002,92.99999225000002,80.0,110.0
124,92.99999225000002,93.27271950000002,77.0,100.0
125,93.27271950000002,93.81817400000001,80.0,119.0
126,93.81817400000001,94.36362850000002,84.0,116.0
127,94.36362850000002,94.72044665208335,80.0,116.0
128,94.63635575000002,95.99771927291668,77.0,113.0
129,95.99999200000002,96.30226470208335,77.0,114.0
130,96.27271925000002,96.54544650000001,78.0,107.0
131,96.54544650000001,96.81817375000001,80.0,108.0
132,96.81817375000001,97.09090100000002,82.0,108.0
133,97.09090100000002,97.36362825000002,80.0,104.0
134,97.36362825000002,97.63635550000002,77.0,108.0
135,97.63635550000002,98.45226452291668,80.0,117.0
136,98.45453725000002,98.99999175000002,80.0,116.0
137,98.99999175000002,99.27271900000002,82.0,114.0
138,99.27271900000002,99.54544625000001,80.0,114.0
139,99.54544625000001,99.81817350000001,77.0,108.0
140,99.81817350000001,100.36362800000002,80.0,119.0
141,100.36362800000002,100.90908250000001,77.0,113.0
142,100.90908250000001,102.54544600000001,75.0,113.0
143,102.54544600000001,103.09090050000002,70.0,114.0
144,103.09090050000002,104.18180950000001,77.0,114.0
145,104.18180950000001,105.27271850000002,75.0,113.0
146,105.27271850000002,106.14317297291669,73.0,113.0
147,122.72726250000002,123.00908065833336,77.0,117.0
148,122.99998975000003,123.32044426875002,78.0,87.0
149,123.27271700000001,123.55226243125001,77.0,102.0
150,123.54544425000002,123.81817150000002,70.0,100.0
151,123.81817150000002,124.36362600000002,73.0,100.0
152,124.36362600000002,124.90908050000002,75.0,113.0
153,124.90908050000002,126.81817125000002,72.0,110.0
154,126.81817125000002,127.09089850000002,68.0,102.0
155,127.09089850000002,127.36362575000003,75.0,114.0
156,127.36362575000003,127.63635300000003,77.0,100.0
157,127.63635300000003,127.90908025000002,75.0,102.0
158,127.90908025000002,128.18180750000002,68.0,88.0
159,128.18180750000002,128.72726200000002,72.0,102.0
160,128.72726200000002,129.27271650000003,73.0,98.0
161,129.27271650000003,131.1795345229167,70.0,102.0
162,131.18180725000002,131.45453450000002,70.0,96.0
163,131.45453450000002,131.99998900000003,77.0,110.0
164,131.99998900000003,132.27271625000003,75.0,102.0
165,132.27271625000003,132.81817075000004,77.0,108.0
166,132.81817075000004,133.63635250000002,70.0,96.0
167,133.63635250000002,134.18180700000002,77.0,113.0
168,134.18180700000002,134.45453425000002,75.0,104.0
169,134.45453425000002,134.99998875000003,77.0,107.0
170,134.99998875000003,135.54544325000003,70.0,102.0
171,135.54544325000003,135.81817050000004,68.0,89.0
172,135.81817050000004,140.1795337729167,77.0,107.0
173,140.18180650000002,140.47498829375002,77.0,116.0
174,140.45453375000002,140.75680645208337,78.0,91.0
175,140.72726100000003,140.99998825000003,77.0,104.0
176,140.99998825000003,141.27271550000003,70.0,102.0
177,141.27271550000003,141.81817000000004,73.0,86.0
178,141.81817000000004,142.36362450000001,75.0,110.0
179,142.36362450000001,144.27271525000003,72.0,107.0
180,144.27271525000003,144.54544250000004,68.0,90.0
181,144.54544250000004,144.81816975000004,75.0,98.0
182,144.81816975000004,145.11816972500003,77.0,88.0
183,145.090897,145.36362425000002,75.0,98.0
184,145.36362425000002,145.63862422708337,68.0,98.0
185,145.63635150000002,146.18180600000002,72.0,87.0
186,146.18180600000002,146.72726050000003,73.0,89.0
187,146.72726050000003,148.3613512729167,70.0,89.0
188,148.36362400000002,148.63862397708337,70.0,107.0
189,148.63635125000002,148.90907850000002,73.0,91.0
190,148.90907850000002,149.45453300000003,77.0,113.0
191,149.45453300000003,149.72726025000003,75.0,98.0
192,149.72726025000003,150.27271475000003,77.0,117.0
193,150.27271475000003,151.0908965,70.0,108.0
194,151.0908965,151.63635100000002,77.0,107.0
195,151.63635100000002,151.90907825000002,75.0,102.0
196,151.90907825000002,152.45453275000003,77.0,91.0
197,152.45453275000003,153.27271450000003,80.0,107.0
198,153.27271450000003,157.0886232729167,77.0,108.0
199,157.09089600000001,157.36362325000002,77.0,113.0
200,157.36362325000002,157.63635050000002,78.0,100.0
201,157.63635050000002,158.1795322729167,80.0,113.0
202,158.18180500000003,158.50680497291668,80.0,108.0
203,158.45453225000003,159.0113503854167,78.0,110.0
204,158.99998675000003,159.54544125000004,77.0,107.0
205,159.54544125000004,161.45453200000003,75.0,104.0
206,161.45453200000003,161.74316833958335,73.0,107.0
207,161.72725925000003,161.99998650000003,75.0,94.0
208,161.99998650000003,162.54544100000004,77.0,108.0
209,162.54544100000004,162.8158955229167,80.0,107.0
210,162.81816825,163.36362275000002,80.0,107.0
211,163.36362275000002,163.90907725000002,72.0,113.0
212,163.90907725000002,165.8158952729167,70.0,114.0
213,165.81816800000001,166.09089525000002,70.0,114.0
214,166.09089525000002,166.36362250000002,77.0,110.0
215,166.36362250000002,166.90907700000002,75.0,113.0
216,166.90907700000002,167.18180425000003,73.0,104.0
217,167.18180425000003,168.27271325000004,75.0,114.0
218,168.27271325000004,168.54544050000004,73.0,94.0
219,168.54544050000004,169.09089500000002,75.0,113.0
220,169.09089500000002,169.36362225000002,73.0,100.0
221,169.36362225000002,169.90907675000003,75.0,113.0
222,169.90907675000003,170.45453125000003,77.0,113.0
223,170.45453125000003,174.81816725000002,80.0,116.0
224,174.81816725000002,175.09089450000002,68.0,114.0
225,175.09089450000002,175.36362175000002,82.0,104.0
226,175.36362175000002,175.6340762729167,80.0,91.0
227,175.63634900000002,175.90907625000003,80.0,102.0
228,175.90907625000003,176.18180350000003,77.0,102.0
229,176.18180350000003,176.72725800000003,80.0,117.0
230,176.72725800000003,176.99998525000004,77.0,113.0
231,176.99998525000004,177.54543975000004,80.0,117.0
232,177.54543975000004,177.81816700000002,77.0,113.0
233,177.81816700000002,178.1022578854167,80.0,117.0
234,178.09089425000002,179.18180325000003,77.0,110.0
235,179.18180325000003,179.45453050000003,68.0,108.0
236,179.45453050000003,179.72725775000004,82.0,94.0
237,179.72725775000004,179.9977122729167,80.0,85.0
238,179.99998500000004,180.27271225000004,80.0,110.0
239,180.27271225000004,180.54543950000004,77.0,100.0
240,180.54543950000004,181.09089400000002,80.0,119.0
241,181.09089400000002,181.63634850000003,84.0,116.0
242,181.63634850000003,182.18180300000003,80.0,116.0
243,182.18180300000003,183.5431665229167,77.0,113.0
244,183.54543925000004,183.81816650000002,77.0,113.0
245,183.81816650000002,184.3613482729167,80.0,113.0
246,184.36362100000002,184.63634825000003,80.0,110.0
247,184.63634825000003,185.72725725000004,73.0,116.0
248,185.72725725000004,185.99998450000004,68.0,92.0
249,185.99998450000004,186.5431662729167,80.0,107.0
250,186.54543900000004,186.81816625000002,80.0,104.0
251,186.81816625000002,187.90907525000003,73.0,107.0
252,187.90907525000003,188.18180250000003,68.0,110.0
253,188.18180250000003,189.27271150000004,78.0,113.0
254,189.27271150000004,190.36362050000002,77.0,117.0
255,190.36362050000002,192.27271125000004,75.0,119.0
256,192.27271125000004,192.54543850000005,68.0,114.0
257,192.54543850000005,192.81816575000002,82.0,104.0
258,192.81816575000002,193.0886202729167,80.0,91.0
259,193.09089300000002,193.36362025000003,80.0,102.0
260,193.36362025000003,193.63634750000003,77.0,102.0
261,193.63634750000003,194.18180200000003,80.0,117.0
262,194.18180200000003,194.45452925000004,77.0,113.0
263,194.45452925000004,194.99998375000004,80.0,117.0
264,194.99998375000004,195.27271100000004,77.0,113.0
265,195.27271100000004,195.5568018854167,80.0,117.0
266,195.54543825000005,196.63634725000003,77.0,110.0
267,196.63634725000003,196.90907450000003,68.0,108.0
268,196.90907450000003,197.18180175000003,82.0,94.0
269,197.18180175000003,197.4522562729167,80.0,85.0
270,197.45452900000004,197.72725625000004,80.0,110.0
271,197.72725625000004,197.99998350000004,77.0,100.0
272,197.99998350000004,198.54543800000005,80.0,119.0
273,198.54543800000005,199.09089250000002,84.0,116.0
274,199.09089250000002,199.44771065208337,80.0,116.0
275,199.36361975000003,200.7249832729167,77.0,113.0
276,200.72725600000004,201.02952870208335,77.0,114.0
277,200.99998325000004,201.27271050000004,78.0,107.0
278,201.27271050000004,201.54543775000005,80.0,108.0
279,201.54543775000005,201.81816500000002,82.0,108.0
280,201.81816500000002,202.09089225000002,80.0,104.0
281,202.09089225000002,202.36361950000003,77.0,108.0
282,202.36361950000003,203.1795285229167,80.0,117.0
283,203.18180125000003,203.72725575000004,80.0,116.0
284,203.72725575000004,203.99998300000004,82.0,114.0
285,203.99998300000004,204.27271025000005,80.0,114.0
286,204.27271025000005,204.54543750000005,77.0,108.0
287,204.54543750000005,205.09089200000003,80.0,119.0
288,205.09089200000003,205.63634650000003,77.0,113.0
289,205.63634650000003,207.27271000000005,75.0,113.0
290,207.27271000000005,207.81816450000002,70.0,114.0
291,207.81816450000002,208.90907350000003,77.0,114.0
292,208.90907350000003,209.99998250000004,75.0,113.0
293,211.09089150000003,211.7022550854167,73.0,100.0
