,start,end,pitch,velocity
0,1.0909090000000001,2.4409088875000005,66.0,73.0
1,0.5454545000000001,2.5727270583333337,54.0,83.0
2,0.8181817500000002,2.609090691666667,61.0,71.0
3,1.3636362500000003,2.8363634000000006,70.0,70.0
4,3.8181815000000006,4.461363264583334,63.0,38.0
5,2.7272725000000007,4.474999627083334,54.0,78.0
6,3.8181815000000006,4.706817789583334,68.0,80.0
7,5.1818177500000004,6.615908539583335,60.0,38.0
8,4.9090905000000005,6.734090347916668,53.0,81.0
9,5.727272250000001,6.940908512500001,65.0,77.0
10,5.727272250000001,6.949999420833334,72.0,77.0
11,7.909090250000001,9.240908320833334,70.0,87.0
12,7.090908500000001,9.259090137500001,58.0,87.0
13,7.909090250000001,9.272726500000001,61.0,84.0
14,9.272726500000001,11.06363544166667,51.0,87.0
15,9.545453750000002,11.090908166666669,58.0,71.0
16,9.818181000000001,11.099999075000001,63.0,78.0
17,10.090908250000002,11.427271775000001,70.0,90.0
18,10.090908250000002,11.429544502083335,66.0,88.0
19,11.727271750000002,13.195453445833335,60.0,79.0
20,11.454544500000003,13.236362533333336,53.0,87.0
21,12.272726250000002,13.66818067916667,72.0,87.0
22,11.999999000000003,13.677271587500002,65.0,78.0
23,13.636362500000002,13.677271587500002,65.0,83.0
24,13.636362500000002,14.84090785416667,63.0,83.0
25,13.636362500000002,14.86136239791667,68.0,81.0
26,15.272726000000002,15.511362343750003,63.0,88.0
27,14.999998750000003,15.527271433333336,58.0,79.0
28,15.272726000000002,15.561362339583336,65.0,81.0
29,14.727271500000002,15.802271410416669,53.0,63.0
30,13.636362500000002,17.42045309375,46.0,81.0
31,15.818180500000002,17.597725806250004,58.0,70.0
32,15.818180500000002,17.686362162500004,68.0,82.0
33,15.818180500000002,17.69090761666667,61.0,78.0
34,18.818180250000005,19.072725683333335,70.0,84.0
35,18.545453000000002,19.693180177083338,66.0,81.0
36,18.272725750000003,19.834089256250003,61.0,70.0
37,17.999998500000004,19.86590743541667,54.0,85.0
38,19.090907500000004,20.20681649791667,73.0,83.0
39,20.181816500000004,21.82954363541667,54.0,77.0
40,20.181816500000004,21.831816362500003,72.0,83.0
41,20.181816500000004,22.06590725208334,68.0,76.0
42,22.090907250000004,22.209089058333337,68.0,72.0
43,22.090907250000004,22.31817995833334,65.0,70.0
44,22.363634500000003,22.611361752083337,72.0,83.0
45,22.909089000000005,23.843179831250005,65.0,78.0
46,22.636361750000003,23.954543458333337,60.0,63.0
47,22.363634500000003,24.054543450000004,53.0,83.0
48,23.181816250000004,24.504543412500006,75.0,87.0
49,24.545452500000003,24.76136157291667,73.0,84.0
50,24.545452500000003,25.31817970833334,65.0,80.0
51,25.363634250000004,25.98863419791667,60.0,83.0
52,24.545452500000003,26.136361458333337,46.0,75.0
53,24.818179750000006,26.15227054791667,53.0,65.0
54,25.909088750000006,26.22727054166667,61.0,86.0
55,25.090907000000005,26.284088718750006,58.0,78.0
56,26.454543250000004,26.67045232291667,63.0,71.0
57,26.727270500000003,26.94090684583334,66.0,82.0
58,26.727270500000003,26.959088662500005,70.0,86.0
59,27.272725000000005,28.240906737500005,63.0,81.0
60,26.999997750000006,28.286361279166673,58.0,38.0
61,26.727270500000003,28.452270356250004,51.0,83.0
62,27.545452250000004,28.481815808333337,75.0,87.0
63,27.545452250000004,28.504543079166673,66.0,87.0
64,28.909088500000006,29.118179391666672,72.0,93.0
65,28.909088500000006,29.679542981250005,63.0,87.0
66,29.454543000000005,30.06363385833334,56.0,83.0
67,29.727270250000004,30.299997475000005,68.0,88.0
68,28.909088500000006,30.670451989583338,44.0,82.0
69,29.181815750000005,30.70681562291667,51.0,68.0
70,29.727270250000004,30.736361075000005,60.0,92.0
71,30.545452000000004,31.043179231250004,63.0,77.0
72,30.272724750000005,31.145451950000005,56.0,78.0
73,31.090906500000006,31.272724666666672,61.0,71.0
74,31.090906500000006,31.46817919583334,65.0,75.0
75,30.818179250000004,31.50454282916667,68.0,70.0
76,31.636361000000004,32.03408823958334,61.0,78.0
77,32.99999725000001,33.10226996875001,68.0,78.0
78,31.909088250000007,33.12272451250001,66.0,94.0
79,33.2727245,33.34772449375001,66.0,71.0
80,32.727270000000004,33.93408808125,61.0,70.0
81,33.2727245,34.24999714583334,65.0,87.0
82,31.090906500000006,34.75681528541667,49.0,74.0
83,31.363633750000005,34.77499710208334,56.0,63.0
84,34.63636075000001,34.854542550000005,68.0,84.0
85,34.909088000000004,35.10226980208334,70.0,110.0
86,34.363633500000006,35.47726977083334,61.0,76.0
87,35.18181525000001,35.49317886041667,75.0,104.0
88,35.45454250000001,35.91136064375001,73.0,94.0
89,36.27272425,37.02954236875001,78.0,88.0
90,36.27272425,37.07272418333334,70.0,88.0
91,35.99999700000001,37.34317870625001,66.0,78.0
92,35.727269750000005,37.41136051875001,61.0,71.0
93,35.45454250000001,37.504542329166675,54.0,78.0
94,37.36363325000001,38.274996810416674,72.0,76.0
95,37.63636050000001,38.29999680833334,80.0,86.0
96,37.63636050000001,38.36590589375,75.0,78.0
97,38.45454225000001,38.556814968750004,80.0,85.0
98,38.45454225000001,38.98863311458334,78.0,83.0
99,38.45454225000001,39.26817854583334,72.0,80.0
100,38.99999675000001,39.52726943333334,75.0,91.0
101,37.63636050000001,39.73181487083334,54.0,84.0
102,39.545451250000006,40.24999664583334,72.0,78.0
103,39.545451250000006,40.37499663541667,68.0,77.0
104,39.81817850000001,40.43181481250001,77.0,87.0
105,40.63636025000001,41.14999657083334,75.0,92.0
106,40.63636025000001,41.220451110416676,68.0,87.0
107,40.36363300000001,41.23863292708334,60.0,36.0
108,39.81817850000001,41.42045109375001,53.0,84.0
109,41.18181475000001,42.024996497916675,72.0,87.0
110,41.99999650000001,42.15226921458334,73.0,86.0
111,41.99999650000001,42.52499645625001,65.0,83.0
112,42.54545100000001,42.74999643750001,65.0,70.0
113,42.54545100000001,42.88408733541667,58.0,78.0
114,42.81817825000001,43.38408729375001,60.0,84.0
115,42.272723750000004,43.71363272083334,53.0,68.0
116,41.99999650000001,43.72045090208334,46.0,81.0
117,43.63636000000001,43.89090543333334,65.0,87.0
118,43.36363275000001,44.19545086250001,58.0,75.0
119,44.18181450000001,44.377269029166676,63.0,84.0
120,44.18181450000001,44.54999628750001,66.0,82.0
121,43.909087250000006,44.67045082291668,70.0,88.0
122,44.72726900000001,45.636359833333344,63.0,78.0
123,44.454541750000004,45.727268916666674,58.0,74.0
124,44.18181450000001,45.87499617708334,51.0,73.0
125,44.99999625000001,45.92499617291667,75.0,88.0
126,44.99999625000001,45.94090526250001,66.0,87.0
127,46.36363250000001,46.57272339166668,72.0,87.0
128,46.090905250000006,46.961359722916676,63.0,70.0
129,46.36363250000001,48.14545053333334,44.0,81.0
130,47.18181425000001,48.21135961875001,68.0,85.0
131,46.63635975000001,48.21817780000001,51.0,68.0
132,47.18181425000001,48.222723254166674,60.0,87.0
133,46.90908700000001,48.22499598125001,56.0,77.0
134,49.09090500000001,49.61135950208334,61.0,81.0
135,49.36363225000001,50.66817759583334,66.0,88.0
136,50.18181400000001,50.87726848750001,61.0,68.0
137,50.72726850000001,51.54317752291668,73.0,86.0
138,50.72726850000001,51.69772296458334,65.0,87.0
139,51.54545025000001,51.84317749791668,61.0,83.0
140,51.81817750000001,52.17726837916668,73.0,91.0
141,51.81817750000001,52.23863201041667,65.0,98.0
142,52.09090475000001,52.388631997916676,61.0,85.0
143,48.54545050000001,52.44999562916667,49.0,82.0
144,48.81817775000001,52.44999562916667,56.0,68.0
145,52.36363200000001,52.85454105000001,68.0,104.0
146,52.90908650000001,53.11590466458334,66.0,84.0
147,52.90908650000001,53.40681373125001,70.0,90.0
148,52.63635925000001,53.44090463750001,73.0,84.0
149,53.99999550000001,54.59772272291668,70.0,87.0
150,53.99999550000001,54.63408635625001,78.0,86.0
151,53.99999550000001,54.63635908333334,66.0,77.0
152,53.99999550000001,54.85908633750001,73.0,87.0
153,52.90908650000001,54.92954087708334,54.0,83.0
154,53.454541000000006,54.959086329166674,61.0,61.0
155,55.09090450000001,56.29772258125001,75.0,88.0
156,55.09090450000001,56.415904389583346,72.0,64.0
157,54.81817725000001,56.45454075000001,68.0,64.0
158,56.45454075000001,56.66590436875001,70.0,96.0
159,56.72726800000001,56.77726799583334,70.0,82.0
160,56.72726800000001,56.979540706250006,73.0,108.0
161,55.09090450000001,57.17044978125001,54.0,80.0
162,56.99999525000001,57.18181341666668,75.0,107.0
163,57.27272250000001,58.07272243333334,75.0,107.0
164,58.09090425000001,58.249995145833346,68.0,81.0
165,57.81817700000001,58.97272235833334,63.0,82.0
166,58.09090425000001,58.97726781250001,72.0,90.0
167,57.54544975000001,59.04090417083334,60.0,69.0
168,57.27272250000001,59.11817689166668,53.0,86.0
169,58.90908600000001,59.40908595833334,68.0,89.0
170,59.18181325000001,59.459085954166675,73.0,88.0
171,59.45454050000001,60.084085902083345,70.0,88.0
172,59.45454050000001,60.11363135416668,65.0,85.0
173,59.99999500000001,60.56817677083335,58.0,80.0
174,60.27272225000001,60.68181312500001,60.0,90.0
175,60.54544950000001,60.88408583541668,61.0,81.0
176,59.45454050000001,61.12954036041668,46.0,76.0
177,59.72726775000001,61.16363126666668,53.0,69.0
178,60.81817675000001,61.45681306041668,58.0,87.0
179,61.09090400000001,61.62499486458334,65.0,104.0
180,61.63635850000001,61.98181301666668,66.0,88.0
181,62.18181300000001,62.804540220833346,63.0,84.0
182,62.99999475000001,63.16135837291668,63.0,78.0
183,61.90908575000001,63.25908563750001,58.0,77.0
184,62.45454025000001,63.30226745208334,75.0,90.0
185,61.63635850000001,63.37272199166668,51.0,80.0
186,62.45454025000001,63.37499471875001,66.0,93.0
187,63.27272200000001,63.51817652500001,70.0,78.0
188,63.54544925000001,63.68408560208334,75.0,74.0
189,63.818176500000014,64.16590374375001,72.0,84.0
190,63.818176500000014,64.64317643125001,63.0,81.0
191,63.818176500000014,65.66817634583334,44.0,85.0
192,64.36363100000001,65.70681270625,56.0,77.0
193,64.09090375000001,65.73181270416667,51.0,68.0
194,64.63635825000001,65.85453996666668,60.0,83.0
195,64.63635825000001,65.98863086458334,68.0,84.0
196,65.99999450000001,66.23408538958334,60.0,87.0
197,65.99999450000001,66.46590355208335,63.0,89.0
198,65.99999450000001,66.47044900625,68.0,88.0
199,66.545449,66.92272169583335,56.0,81.0
200,66.81817625000001,67.37726711250001,63.0,92.0
201,66.81817625000001,67.37726711250001,68.0,104.0
202,67.36363075000001,67.89317616041667,56.0,82.0
203,65.99999450000001,67.89544888750001,44.0,86.0
204,67.63635800000002,68.07499432708335,63.0,93.0
205,67.90908525000002,68.08863068958334,68.0,88.0
206,66.27272175000002,68.21135795208335,51.0,74.0
207,68.1818125,69.51590329791668,68.0,69.0
208,68.1818125,69.51590329791668,68.0,93.0
209,68.1818125,69.76135782291668,76.0,103.0
210,68.1818125,69.77726691250001,44.0,87.0
211,68.1818125,69.78863054791668,72.0,86.0
212,68.1818125,69.79544872916668,56.0,85.0
213,70.36363050000001,70.77953955625001,73.0,92.0
214,70.36363050000001,70.89772136458335,68.0,100.0
215,70.36363050000001,70.93408499791668,65.0,89.0
216,70.90908500000002,71.46817586250002,61.0,82.0
217,71.18181225000001,71.75908492916668,63.0,96.0
218,71.18181225000001,71.79772128958335,68.0,100.0
219,71.72726675000001,72.33863033541668,61.0,85.0
220,71.99999400000002,72.34090306250002,65.0,79.0
221,70.36363050000001,72.36590306041668,49.0,88.0
222,72.27272125000002,72.49090305000001,68.0,87.0
223,70.63635775000002,72.62044849375002,56.0,70.0
224,72.5454485,72.82953938541668,73.0,91.0
225,72.5454485,72.97726664583334,68.0,91.0
226,72.5454485,73.24544844166668,65.0,88.0
227,73.09090300000001,73.50453932916668,61.0,81.0
228,73.36363025000001,73.89090293333335,68.0,107.0
229,73.36363025000001,73.89999384166669,63.0,96.0
230,73.90908475000002,74.20681199791667,61.0,87.0
231,72.81817575000001,74.25453926666668,56.0,72.0
232,72.5454485,74.28181199166669,49.0,86.0
233,74.18181200000001,74.49999379166668,63.0,104.0
234,74.18181200000001,74.50453924583334,68.0,102.0
235,74.45453925000001,74.66135741458335,65.0,83.0
236,74.72726650000001,75.22044827708335,70.0,100.0
237,74.72726650000001,75.28181190833335,61.0,91.0
238,74.72726650000001,75.28181190833335,65.0,89.0
239,75.27272100000002,75.86135731458334,58.0,82.0
240,75.54544825,76.19772092291667,70.0,100.0
241,75.54544825,76.23181182916667,61.0,98.0
242,75.54544825,76.26135728125001,65.0,108.0
243,76.36363000000001,76.47499362708335,65.0,67.0
244,76.36363000000001,76.48408453541668,61.0,78.0
245,74.72726650000001,76.64772088541667,46.0,88.0
246,76.09090275000001,76.90681177291668,58.0,86.0
247,74.99999375000002,76.99772085625001,53.0,77.0
248,76.63635725000002,77.39317536875001,61.0,87.0
249,76.63635725000002,77.39772082291668,70.0,88.0
250,76.63635725000002,77.49772081458335,65.0,91.0
251,77.45453900000001,77.95908441250002,58.0,86.0
252,77.72726625000001,78.26590256875001,70.0,104.0
253,77.72726625000001,78.30681165625002,61.0,104.0
254,77.72726625000001,78.31135711041668,65.0,114.0
255,76.90908450000002,78.63181162916668,46.0,87.0
256,77.18181175000001,78.72499343958334,53.0,75.0
257,78.27272075000002,78.76135707291668,58.0,82.0
258,78.54544800000001,78.78862979791668,61.0,91.0
259,78.54544800000001,78.87499342708335,70.0,92.0
260,78.54544800000001,78.97499341875002,65.0,100.0
261,79.09090250000001,79.31362975416668,63.0,90.0
262,79.09090250000001,79.44544792500001,70.0,92.0
263,79.09090250000001,79.47726610416667,66.0,98.0
264,79.63635700000002,80.07499332708335,63.0,86.0
265,80.45453875000001,80.65226600625002,63.0,86.0
266,79.90908425,80.75453872500002,70.0,107.0
267,79.90908425,80.75681145208334,75.0,93.0
268,79.36362975000002,80.77044781458335,58.0,76.0
269,79.90908425,80.79317508541668,66.0,93.0
270,79.09090250000001,80.81590235625,51.0,85.0
271,81.27272050000002,82.01817498333335,70.0,91.0
272,81.27272050000002,82.04317498125002,66.0,91.0
273,81.27272050000002,82.16817497083335,63.0,88.0
274,82.36362950000002,83.07726580416669,70.0,91.0
275,82.36362950000002,83.11590216458335,66.0,98.0
276,82.36362950000002,83.30453851250002,63.0,98.0
277,81.27272050000002,83.33181123750002,51.0,86.0
278,83.45453850000001,83.79772028958335,60.0,87.0
279,83.45453850000001,83.92499300625002,68.0,90.0
280,83.45453850000001,84.00681118125001,63.0,98.0
281,83.99999300000002,84.56590204375001,56.0,83.0
282,84.27272025000002,85.13408381458335,63.0,110.0
283,84.27272025000002,85.15453835833335,60.0,96.0
284,84.27272025000002,85.19090199166668,68.0,94.0
285,83.45453850000001,85.31135652708335,44.0,86.0
286,85.09090200000001,85.42953833541668,56.0,77.0
287,85.36362925000002,85.50908378333335,60.0,71.0
288,85.36362925000002,85.52953832708334,61.0,83.0
289,83.72726575000002,85.62499286458335,51.0,76.0
290,85.36362925000002,85.77726557916668,63.0,82.0
291,85.63635650000002,85.82726557500001,60.0,88.0
292,85.63635650000002,85.96135647291668,68.0,88.0
293,86.45453825000001,86.51817460833335,72.0,90.0
294,86.45453825000001,86.52726551666669,68.0,88.0
295,86.45453825000001,86.54772006041668,75.0,96.0
296,86.18181100000001,86.74772004375002,56.0,79.0
297,86.72726550000002,86.96362911666668,78.0,100.0
298,86.72726550000002,87.00681093125002,68.0,113.0
299,86.72726550000002,87.01590183958335,80.0,104.0
300,86.72726550000002,87.04544729166668,72.0,116.0
301,86.72726550000002,87.05226547291669,75.0,113.0
302,85.63635650000002,87.32271999583335,44.0,89.0
303,85.90908375000001,87.36362908333335,51.0,83.0
304,87.27272000000002,87.58181088333335,68.0,96.0
305,87.54544725000001,87.64771996875001,72.0,84.0
306,86.99999275000002,87.74999268750001,56.0,88.0
307,87.81817450000001,88.03635630000001,73.0,113.0
308,87.81817450000001,88.04771993541668,77.0,107.0
309,87.81817450000001,88.22726537500002,68.0,108.0
310,88.36362900000002,88.99317440208335,61.0,81.0
311,88.90908350000001,89.46590163541669,73.0,107.0
312,88.90908350000001,89.52044708541668,65.0,110.0
313,88.90908350000001,89.52499253958335,68.0,117.0
314,89.72726525000002,89.79544706250002,68.0,89.0
315,89.72726525000002,89.81135615208335,65.0,89.0
316,89.72726525000002,89.83181069583335,73.0,88.0
317,89.45453800000001,90.32726520000001,61.0,78.0
318,90.27271975000002,90.63408335625002,65.0,89.0
319,90.27271975000002,90.85908333750001,73.0,88.0
320,90.27271975000002,90.88635606250001,68.0,89.0
321,90.81817425000001,91.21135603541669,61.0,87.0
322,88.09090175000001,91.37726511250001,56.0,81.0
323,87.81817450000001,91.39771965625002,49.0,88.0
324,91.09090150000002,91.72044690208335,65.0,110.0
325,91.09090150000002,91.84544689166668,73.0,107.0
326,91.09090150000002,92.11817414166669,68.0,114.0
327,91.63635600000002,92.13181050416668,48.0,84.0
328,92.18181050000001,92.36362866666668,70.0,104.0
329,92.18181050000001,92.40453775416668,73.0,89.0
330,92.18181050000001,92.99544679583335,65.0,94.0
331,92.99999225000002,93.43408312291669,58.0,83.0
332,93.27271950000002,93.83862854375002,70.0,104.0
333,93.27271950000002,93.88408308541668,65.0,116.0
334,93.27271950000002,93.88862853958335,61.0,104.0
335,94.09090125000002,94.14999215416668,65.0,88.0
336,94.09090125000002,94.16817397083335,61.0,86.0
337,94.09090125000002,94.19544669583335,70.0,89.0
338,93.81817400000001,94.72044665208335,58.0,77.0
339,94.63635575000002,95.07271935000001,61.0,88.0
340,94.63635575000002,95.18862843125001,70.0,89.0
341,94.63635575000002,95.20908297500002,65.0,91.0
342,95.18181025000001,95.54090112916668,58.0,87.0
343,95.45453750000001,95.93408291458334,61.0,110.0
344,92.18181050000001,96.09544653750001,46.0,91.0
345,92.72726500000002,96.14317380625002,53.0,56.0
346,95.45453750000001,96.25681016041668,70.0,107.0
347,95.45453750000001,96.38635560416668,65.0,116.0
348,95.99999200000002,96.43635560000001,58.0,68.0
349,96.54544650000001,96.83862829375002,63.0,94.0
350,96.54544650000001,96.98408282708336,70.0,104.0
351,96.54544650000001,97.02271918750002,66.0,108.0
352,97.36362825000002,98.14317363958335,63.0,85.0
353,97.09090100000002,98.31590089791668,58.0,67.0
354,97.63635550000002,98.34090089583334,75.0,100.0
355,96.54544650000001,98.40226452708335,51.0,84.0
356,97.63635550000002,98.41817361666668,66.0,110.0
357,97.63635550000002,98.49090088333335,70.0,116.0
358,98.72726450000002,98.96817357083334,68.0,104.0
359,98.72726450000002,99.00908265833336,72.0,100.0
360,98.72726450000002,99.17044628125002,63.0,89.0
361,99.54544625000001,99.58862806458335,63.0,81.0
362,99.54544625000001,99.59771897291668,60.0,73.0
363,99.27271900000002,99.94090076250002,56.0,82.0
364,99.81817350000001,100.46590071875002,60.0,100.0
365,98.72726450000002,100.55680980208335,44.0,87.0
366,99.81817350000001,100.56362798333335,68.0,98.0
367,98.99999175000002,100.65453706666668,51.0,79.0
368,100.90908250000001,101.74090061250001,63.0,87.0
369,100.90908250000001,101.74090061250001,70.0,87.0
370,100.90908250000001,101.74317333958335,66.0,88.0
371,100.90908250000001,102.22044602708336,51.0,86.0
372,101.72726425000002,102.23180966250001,58.0,70.0
373,101.99999150000002,102.64544599166669,63.0,102.0
374,101.99999150000002,102.70226416875002,70.0,102.0
375,101.99999150000002,102.71590053125001,66.0,110.0
376,102.54544600000001,103.09317322708335,51.0,88.0
377,103.09090050000002,104.73635490833335,44.0,87.0
378,103.09090050000002,104.89999125833334,60.0,88.0
379,103.09090050000002,104.92271852916669,68.0,91.0
380,103.09090050000002,105.14317305625002,63.0,92.0
381,105.27271850000002,105.50680938958335,76.0,123.0
382,106.09090025000002,106.61817293333335,76.0,116.0
383,106.09090025000002,106.67953656458336,68.0,107.0
384,106.63635475000002,106.84317291458335,61.0,80.0
385,105.81817300000002,106.89317291041668,56.0,67.0
386,105.27271850000002,106.92499108958336,49.0,93.0
387,106.90908200000001,107.07499107708335,73.0,93.0
388,107.18180925000001,107.31590014791668,68.0,84.0
389,107.45453650000002,107.70226375208335,76.0,119.0
390,107.99999100000002,108.07953644791668,68.0,79.0
391,108.27271825000003,108.78408184375002,68.0,102.0
392,108.27271825000003,108.95453637500002,76.0,113.0
393,107.99999100000002,109.02953636875002,54.0,70.0
394,108.81817275000002,109.04771818541668,59.0,78.0
395,107.45453650000002,109.17044544791669,47.0,86.0
396,109.09090000000002,109.34544543333335,73.0,88.0
397,109.36362725000002,109.49317269375001,68.0,88.0
398,109.63635450000002,109.92271811250002,76.0,119.0
399,109.63635450000002,110.02271810416669,68.0,104.0
400,110.18180900000002,110.31817262500002,68.0,81.0
401,109.63635450000002,110.80680894791668,57.0,89.0
402,110.45453625000002,110.97271802500002,76.0,116.0
403,110.45453625000002,110.99544529583335,68.0,102.0
404,109.63635450000002,111.35226344791668,45.0,85.0
405,110.99999075000002,111.35226344791668,57.0,79.0
406,111.81817250000002,112.05226338958336,76.0,113.0
407,112.09089975000002,112.30680882291668,73.0,74.0
408,112.36362700000002,112.51135426041668,68.0,80.0
409,112.63635425000002,113.04771785208335,76.0,113.0
410,113.18180875000002,113.34544510000002,68.0,81.0
411,112.90908150000001,113.47499054375002,54.0,82.0
412,111.81817250000002,113.48635417916668,42.0,93.0
413,113.99999050000002,114.19544502916669,72.0,46.0
414,113.99999050000002,114.22726320833335,75.0,102.0
415,113.72726325000002,114.30453592916669,68.0,76.0
416,114.81817225000002,114.99317223541668,60.0,78.0
417,115.09089950000002,115.33180857083336,63.0,81.0
418,115.36362675000002,115.43862674375002,68.0,79.0
419,115.63635400000003,115.91589943125003,72.0,80.0
420,115.90908125000001,116.1113539604167,75.0,80.0
421,114.54544500000002,116.32726303333335,56.0,83.0
422,114.27271775000001,116.35226303125002,51.0,81.0
423,113.99999050000002,116.38635393750002,44.0,84.0
424,116.18180850000002,117.06817206250003,73.0,88.0
425,116.18180850000002,117.15908114583335,65.0,91.0
426,116.18180850000002,117.20453568750003,68.0,94.0
427,117.27271750000001,118.16362651666668,73.0,89.0
428,117.27271750000001,118.1704446979167,65.0,89.0
429,117.27271750000001,118.27271741666668,68.0,89.0
430,116.18180850000002,118.31817195833335,49.0,83.0
431,118.36362650000002,119.28180824166668,73.0,88.0
432,118.36362650000002,119.32044460208336,70.0,91.0
433,118.36362650000002,119.32953551041669,66.0,88.0
434,118.36362650000002,119.94317182291668,54.0,85.0
435,119.45453550000002,120.02953545208335,66.0,91.0
436,119.45453550000002,120.20226271041669,70.0,93.0
437,119.45453550000002,120.36589906041668,73.0,88.0
438,120.54544450000002,122.5681716041667,63.0,86.0
439,120.54544450000002,122.58635342083335,68.0,91.0
440,120.54544450000002,122.59771705625002,56.0,81.0
441,120.54544450000002,122.62044432708335,72.0,88.0
442,120.54544450000002,122.6363534166667,44.0,82.0
443,123.54544425000002,123.79998968333335,70.0,84.0
444,123.27271700000001,124.42044417708335,66.0,81.0
445,122.99998975000003,124.56135325625002,61.0,70.0
446,122.72726250000002,124.59317143541669,54.0,85.0
447,123.81817150000002,124.93408049791668,73.0,83.0
448,124.90908050000002,126.55680763541669,54.0,77.0
449,124.90908050000002,126.55908036250003,72.0,83.0
450,124.90908050000002,126.79317125208335,68.0,76.0
451,126.81817125000002,126.93635305833335,68.0,72.0
452,126.81817125000002,127.04544395833335,65.0,70.0
453,127.09089850000002,127.33862575208336,72.0,83.0
454,127.63635300000003,128.57044383125003,65.0,78.0
455,127.36362575000003,128.68180745833337,60.0,63.0
456,127.09089850000002,128.78180745000003,53.0,83.0
457,127.90908025000002,129.23180741250002,75.0,87.0
458,129.27271650000003,129.48862557291667,73.0,84.0
459,129.27271650000003,130.04544370833335,65.0,80.0
460,130.09089825,130.7158981979167,60.0,83.0
461,129.27271650000003,130.86362545833336,46.0,75.0
462,129.54544375000003,130.87953454791668,53.0,65.0
463,130.63635275000001,130.95453454166667,61.0,86.0
464,129.81817100000004,131.01135271875003,58.0,78.0
465,131.18180725000002,131.3977163229167,63.0,71.0
466,131.45453450000002,131.66817084583334,66.0,82.0
467,131.45453450000002,131.6863526625,70.0,86.0
468,131.99998900000003,132.96817073750003,63.0,81.0
469,131.72726175000003,133.0136252791667,58.0,38.0
470,131.45453450000002,133.17953435625003,51.0,83.0
471,132.27271625000003,133.20907980833334,75.0,87.0
472,132.27271625000003,133.23180707916669,66.0,87.0
473,133.63635250000002,133.8454433916667,72.0,93.0
474,133.63635250000002,134.40680698125,63.0,87.0
475,134.18180700000002,134.79089785833335,56.0,83.0
476,134.45453425000002,135.02726147500002,68.0,88.0
477,133.63635250000002,135.39771598958336,44.0,82.0
478,133.90907975000002,135.4340796229167,51.0,68.0
479,134.45453425000002,135.463625075,60.0,92.0
480,135.27271600000003,135.77044323125003,63.0,77.0
481,134.99998875000003,135.87271595,56.0,78.0
482,135.81817050000004,135.9999886666667,61.0,71.0
483,135.81817050000004,136.19544319583335,65.0,75.0
484,135.54544325000003,136.2318068291667,68.0,70.0
485,136.363625,136.76135223958335,61.0,78.0
486,137.72726125000003,137.82953396875,68.0,78.0
487,136.63635225000002,137.84998851250003,66.0,94.0
488,137.99998850000003,138.07498849375003,66.0,71.0
489,137.45453400000002,138.66135208125002,61.0,70.0
490,137.99998850000003,138.97726114583335,65.0,87.0
491,135.81817050000004,139.4840792854167,49.0,74.0
492,136.09089775,139.50226110208337,56.0,63.0
493,139.36362475,139.58180655,68.0,84.0
494,139.63635200000002,139.82953380208335,70.0,110.0
495,139.0908975,140.20453377083336,61.0,76.0
496,139.90907925000002,140.22044286041668,75.0,104.0
497,140.18180650000002,140.63862464375003,73.0,94.0
498,140.99998825000003,141.75680636875003,78.0,88.0
499,140.99998825000003,141.79998818333337,70.0,88.0
500,140.72726100000003,142.07044270625002,66.0,78.0
501,140.45453375000002,142.13862451875002,61.0,71.0
502,140.18180650000002,142.2318063291667,54.0,78.0
503,142.09089725,143.0022608104167,72.0,76.0
504,142.36362450000001,143.02726080833335,80.0,86.0
505,142.36362450000001,143.09316989375003,75.0,78.0
506,143.18180625000002,143.28407896875004,80.0,85.0
507,143.18180625000002,143.71589711458336,78.0,83.0
508,143.18180625000002,143.99544254583336,72.0,80.0
509,143.72726075000003,144.25453343333336,75.0,91.0
510,142.36362450000001,144.45907887083337,54.0,84.0
511,144.27271525000003,144.97726064583335,72.0,78.0
512,144.27271525000003,145.10226063541668,68.0,77.0
513,144.54544250000004,145.1590788125,77.0,87.0
514,145.36362425000002,145.87726057083336,75.0,92.0
515,145.36362425000002,145.94771511041668,68.0,87.0
516,145.090897,145.96589692708335,60.0,36.0
517,144.54544250000004,146.14771509375004,53.0,84.0
518,145.90907875000002,146.7522604979167,72.0,87.0
519,146.72726050000003,146.87953321458335,73.0,86.0
520,146.72726050000003,147.25226045625,65.0,83.0
521,147.27271500000003,147.47726043750004,65.0,70.0
522,147.27271500000003,147.61135133541669,58.0,78.0
523,147.54544225000004,148.11135129375003,60.0,84.0
524,146.99998775000003,148.44089672083336,53.0,68.0
525,146.72726050000003,148.44771490208336,46.0,81.0
526,148.36362400000002,148.61816943333335,65.0,87.0
527,148.09089675,148.92271486250002,58.0,75.0
528,148.90907850000002,149.1045330291667,63.0,84.0
529,148.90907850000002,149.2772602875,66.0,82.0
530,148.63635125000002,149.3977148229167,70.0,88.0
531,149.45453300000003,150.36362383333335,63.0,78.0
532,149.18180575000002,150.4545329166667,58.0,74.0
533,148.90907850000002,150.60226017708337,51.0,73.0
534,149.72726025000003,150.6522601729167,75.0,88.0
535,149.72726025000003,150.66816926250002,66.0,87.0
536,151.0908965,151.2999873916667,72.0,87.0
537,150.81816925000004,151.6886237229167,63.0,70.0
538,151.0908965,152.87271453333335,44.0,81.0
539,151.90907825000002,152.93862361875003,68.0,85.0
540,151.36362375000002,152.94544180000003,51.0,68.0
541,151.90907825000002,152.9499872541667,60.0,87.0
542,151.63635100000002,152.95225998125002,56.0,77.0
543,153.81816900000004,154.33862350208335,61.0,81.0
544,154.09089625000001,155.39544159583335,66.0,88.0
545,154.90907800000002,155.60453248750002,61.0,68.0
546,155.45453250000003,156.27044152291668,73.0,86.0
547,155.45453250000003,156.42498696458335,65.0,87.0
548,156.27271425000004,156.5704414979167,61.0,83.0
549,156.54544150000004,156.90453237916668,73.0,91.0
550,156.54544150000004,156.96589601041669,65.0,98.0
551,156.81816875,157.11589599791668,61.0,85.0
552,153.27271450000003,157.17725962916668,49.0,82.0
553,153.54544175000004,157.17725962916668,56.0,68.0
554,157.09089600000001,157.58180505,68.0,104.0
555,157.63635050000002,157.84316866458337,66.0,84.0
556,157.63635050000002,158.13407773125002,70.0,90.0
557,157.36362325000002,158.16816863750003,73.0,84.0
558,158.72725950000003,159.3249867229167,70.0,87.0
559,158.72725950000003,159.36135035625003,78.0,86.0
560,158.72725950000003,159.36362308333335,66.0,77.0
561,158.72725950000003,159.58635033750002,73.0,87.0
562,157.63635050000002,159.65680487708337,54.0,83.0
563,158.18180500000003,159.6863503291667,61.0,61.0
564,159.8181685,161.02498658125003,75.0,88.0
565,159.8181685,161.14316838958337,72.0,64.0
566,159.54544125000004,161.18180475000003,68.0,64.0
567,161.18180475000003,161.39316836875003,70.0,96.0
568,161.45453200000003,161.50453199583336,70.0,82.0
569,161.45453200000003,161.70680470625004,73.0,108.0
570,159.8181685,161.89771378125002,54.0,80.0
571,161.72725925000003,161.9090774166667,75.0,107.0
572,161.99998650000003,162.79998643333337,75.0,107.0
573,162.81816825,162.97725914583336,68.0,81.0
574,162.54544100000004,163.69998635833335,63.0,82.0
575,162.81816825,163.70453181250002,72.0,90.0
576,162.27271375000004,163.76816817083335,60.0,69.0
577,161.99998650000003,163.8454408916667,53.0,86.0
578,163.63635000000002,164.13634995833337,68.0,89.0
579,163.90907725000002,164.1863499541667,73.0,88.0
580,164.18180450000003,164.81134990208335,70.0,88.0
581,164.18180450000003,164.8408953541667,65.0,85.0
582,164.72725900000003,165.29544077083335,58.0,80.0
583,164.99998625000003,165.40907712500004,60.0,90.0
584,165.27271350000004,165.6113498354167,61.0,81.0
585,164.18180450000003,165.8568043604167,46.0,76.0
586,164.45453175000003,165.8908952666667,53.0,69.0
587,165.54544075000004,166.18407706041668,58.0,87.0
588,165.81816800000001,166.35225886458335,65.0,104.0
589,166.36362250000002,166.7090770166667,66.0,88.0
590,166.90907700000002,167.53180422083335,63.0,84.0
591,167.72725875000003,167.8886223729167,63.0,78.0
592,166.63634975000002,167.98634963750004,58.0,77.0
593,167.18180425000003,168.02953145208338,75.0,90.0
594,166.36362250000002,168.0999859916667,51.0,80.0
595,167.18180425000003,168.10225871875002,66.0,93.0
596,167.99998600000004,168.24544052500002,70.0,78.0
597,168.27271325000004,168.41134960208336,75.0,74.0
598,168.54544050000004,168.89316774375004,72.0,84.0
599,168.54544050000004,169.37044043125002,63.0,81.0
600,168.54544050000004,170.39544034583335,44.0,85.0
601,169.09089500000002,170.43407670625004,56.0,77.0
602,168.81816775000001,170.4590767041667,51.0,68.0
603,169.36362225000002,170.58180396666668,60.0,83.0
604,169.36362225000002,170.71589486458336,68.0,84.0
605,170.72725850000003,170.96134938958338,60.0,87.0
606,170.72725850000003,171.19316755208337,63.0,89.0
607,170.72725850000003,171.19771300625004,68.0,88.0
608,171.27271300000004,171.64998569583335,56.0,81.0
609,171.54544025000004,172.10453111250004,63.0,92.0
610,171.54544025000004,172.10453111250004,68.0,104.0
611,172.09089475000002,172.6204401604167,56.0,82.0
612,170.72725850000003,172.62271288750003,44.0,86.0
613,172.36362200000002,172.80225832708336,63.0,93.0
614,172.63634925000002,172.81589468958336,68.0,88.0
615,170.99998575000004,172.93862195208337,51.0,74.0
616,172.90907650000003,174.2431672979167,68.0,69.0
617,172.90907650000003,174.2431672979167,68.0,93.0
618,172.90907650000003,174.48862182291668,76.0,103.0
619,172.90907650000003,174.50453091250003,44.0,87.0
620,172.90907650000003,174.5158945479167,72.0,86.0
621,172.90907650000003,174.5227127291667,56.0,85.0
622,175.09089450000002,175.50680355625002,73.0,92.0
623,175.09089450000002,175.62498536458335,68.0,100.0
624,175.09089450000002,175.6613489979167,65.0,89.0
625,175.63634900000002,176.19543986250002,61.0,82.0
626,175.90907625000003,176.4863489291667,63.0,96.0
627,175.90907625000003,176.52498528958336,68.0,100.0
628,176.45453075000003,177.0658943354167,61.0,85.0
629,176.72725800000003,177.06816706250004,65.0,79.0
630,175.09089450000002,177.0931670604167,49.0,88.0
631,176.99998525000004,177.21816705000003,68.0,87.0
632,175.36362175000002,177.34771249375004,56.0,70.0
633,177.27271250000004,177.55680338541669,73.0,91.0
634,177.27271250000004,177.70453064583336,68.0,91.0
635,177.27271250000004,177.9727124416667,65.0,88.0
636,177.81816700000002,178.2318033291667,61.0,81.0
637,178.09089425000002,178.61816693333336,68.0,107.0
638,178.09089425000002,178.6272578416667,63.0,96.0
639,178.63634875000002,178.9340759979167,61.0,87.0
640,177.54543975000004,178.9818032666667,56.0,72.0
641,177.27271250000004,179.0090759916667,49.0,86.0
642,178.90907600000003,179.2272577916667,63.0,104.0
643,178.90907600000003,179.23180324583336,68.0,102.0
644,179.18180325000003,179.38862141458335,65.0,83.0
645,179.45453050000003,179.94771227708335,70.0,100.0
646,179.45453050000003,180.00907590833336,61.0,91.0
647,179.45453050000003,180.00907590833336,65.0,89.0
648,179.99998500000004,180.58862131458338,58.0,82.0
649,180.27271225000004,180.9249849229167,70.0,100.0
650,180.27271225000004,180.9590758291667,61.0,98.0
651,180.27271225000004,180.98862128125003,65.0,108.0
652,181.09089400000002,181.20225762708336,65.0,67.0
653,181.09089400000002,181.2113485354167,61.0,78.0
654,179.45453050000003,181.3749848854167,46.0,88.0
655,180.81816675000002,181.6340757729167,58.0,86.0
656,179.72725775000004,181.72498485625002,53.0,77.0
657,181.36362125000002,182.12043936875003,61.0,87.0
658,181.36362125000002,182.1249848229167,70.0,88.0
659,181.36362125000002,182.22498481458337,65.0,91.0
660,182.18180300000003,182.68634841250002,58.0,86.0
661,182.45453025000003,182.99316656875004,70.0,104.0
662,182.45453025000003,183.03407565625002,61.0,104.0
663,182.45453025000003,183.0386211104167,65.0,114.0
664,181.63634850000003,183.3590756291667,46.0,87.0
665,181.90907575000003,183.45225743958338,53.0,75.0
666,182.99998475000004,183.4886210729167,58.0,82.0
667,183.27271200000004,183.5158937979167,61.0,91.0
668,183.27271200000004,183.60225742708337,70.0,92.0
669,183.27271200000004,183.70225741875004,65.0,100.0
670,183.81816650000002,184.0408937541667,63.0,90.0
671,183.81816650000002,184.17271192500004,70.0,92.0
672,183.81816650000002,184.2045301041667,66.0,98.0
673,184.36362100000002,184.80225732708337,63.0,86.0
674,185.18180275000003,185.37953000625004,63.0,86.0
675,184.63634825000003,185.48180272500002,70.0,107.0
676,184.63634825000003,185.48407545208337,75.0,93.0
677,184.09089375000002,185.49771181458337,58.0,76.0
678,184.63634825000003,185.5204390854167,66.0,93.0
679,183.81816650000002,185.54316635625003,51.0,85.0
680,185.99998450000004,186.74543898333337,70.0,91.0
681,185.99998450000004,186.77043898125004,66.0,91.0
682,185.99998450000004,186.89543897083337,63.0,88.0
683,187.09089350000002,187.8045298041667,70.0,91.0
684,187.09089350000002,187.84316616458335,66.0,98.0
685,187.09089350000002,188.03180251250004,63.0,98.0
686,185.99998450000004,188.05907523750002,51.0,86.0
687,188.18180250000003,188.52498428958336,60.0,87.0
688,188.18180250000003,188.65225700625004,68.0,90.0
689,188.18180250000003,188.73407518125003,63.0,98.0
690,188.72725700000004,189.29316604375003,56.0,83.0
691,188.99998425000004,189.86134781458335,63.0,110.0
692,188.99998425000004,189.88180235833337,60.0,96.0
693,188.99998425000004,189.9181659916667,68.0,94.0
694,188.18180250000003,190.03862052708337,44.0,86.0
695,189.81816600000002,190.1568023354167,56.0,77.0
696,190.09089325000002,190.23634778333337,60.0,71.0
697,190.09089325000002,190.25680232708336,61.0,83.0
698,188.45452975000003,190.35225686458335,51.0,76.0
699,190.09089325000002,190.5045295791667,63.0,82.0
700,190.36362050000002,190.55452957500003,60.0,88.0
701,190.36362050000002,190.6886204729167,68.0,88.0
702,191.18180225000003,191.24543860833336,72.0,90.0
703,191.18180225000003,191.2545295166667,68.0,88.0
704,191.18180225000003,191.2749840604167,75.0,96.0
705,190.90907500000003,191.47498404375003,56.0,79.0
706,191.45452950000004,191.6908931166667,78.0,100.0
707,191.45452950000004,191.73407493125003,68.0,113.0
708,191.45452950000004,191.74316583958336,80.0,104.0
709,191.45452950000004,191.7727112916667,72.0,116.0
710,191.45452950000004,191.7795294729167,75.0,113.0
711,190.36362050000002,192.04998399583337,44.0,89.0
712,190.63634775000003,192.09089308333336,51.0,83.0
713,191.99998400000004,192.30907488333335,68.0,96.0
714,192.27271125000004,192.37498396875003,72.0,84.0
715,191.72725675000004,192.47725668750005,56.0,88.0
716,192.54543850000005,192.76362030000004,73.0,113.0
717,192.54543850000005,192.77498393541669,77.0,107.0
718,192.54543850000005,192.95452937500002,68.0,108.0
719,193.09089300000002,193.72043840208337,61.0,81.0
720,193.63634750000003,194.1931656354167,73.0,107.0
721,193.63634750000003,194.2477110854167,65.0,110.0
722,193.63634750000003,194.25225653958336,68.0,117.0
723,194.45452925000004,194.52271106250004,68.0,89.0
724,194.45452925000004,194.53862015208335,65.0,89.0
725,194.45452925000004,194.55907469583337,73.0,88.0
726,194.18180200000003,195.05452920000002,61.0,78.0
727,194.99998375000004,195.36134735625004,65.0,89.0
728,194.99998375000004,195.58634733750003,73.0,88.0
729,194.99998375000004,195.61362006250005,68.0,89.0
730,195.54543825000005,195.9386200354167,61.0,87.0
731,192.81816575000002,196.10452911250005,56.0,81.0
732,192.54543850000005,196.12498365625004,49.0,88.0
733,195.81816550000002,196.44771090208337,65.0,110.0
734,195.81816550000002,196.5727108916667,73.0,107.0
735,195.81816550000002,196.8454381416667,68.0,114.0
736,196.36362000000003,196.8590745041667,48.0,84.0
737,196.90907450000003,197.0908926666667,70.0,104.0
738,196.90907450000003,197.1318017541667,73.0,89.0
739,196.90907450000003,197.72271079583336,65.0,94.0
740,197.72725625000004,198.1613471229167,58.0,83.0
741,197.99998350000004,198.56589254375004,70.0,104.0
742,197.99998350000004,198.6113470854167,65.0,116.0
743,197.99998350000004,198.61589253958337,61.0,104.0
744,198.81816525000002,198.8772561541667,65.0,88.0
745,198.81816525000002,198.89543797083337,61.0,86.0
746,198.81816525000002,198.92271069583336,70.0,89.0
747,198.54543800000005,199.44771065208337,58.0,77.0
748,199.36361975000003,199.79998335000005,61.0,88.0
749,199.36361975000003,199.91589243125003,70.0,89.0
750,199.36361975000003,199.93634697500002,65.0,91.0
751,199.90907425000003,200.2681651291667,58.0,87.0
752,200.18180150000003,200.66134691458336,61.0,110.0
753,196.90907450000003,200.82271053750003,46.0,91.0
754,197.45452900000004,200.87043780625004,53.0,56.0
755,200.18180150000003,200.9840741604167,70.0,107.0
756,200.18180150000003,201.1136196041667,65.0,116.0
757,200.72725600000004,201.16361960000003,58.0,68.0
758,201.27271050000004,201.56589229375004,63.0,94.0
759,201.27271050000004,201.71134682708336,70.0,104.0
760,201.27271050000004,201.74998318750002,66.0,108.0
761,202.09089225000002,202.87043763958337,63.0,85.0
762,201.81816500000002,203.0431648979167,58.0,67.0
763,202.36361950000003,203.06816489583338,75.0,100.0
764,201.27271050000004,203.12952852708338,51.0,84.0
765,202.36361950000003,203.1454376166667,66.0,110.0
766,202.36361950000003,203.21816488333337,70.0,116.0
767,203.45452850000004,203.69543757083338,68.0,104.0
768,203.45452850000004,203.73634665833336,72.0,100.0
769,203.45452850000004,203.89771028125003,63.0,89.0
770,204.27271025000005,204.31589206458338,63.0,81.0
771,204.27271025000005,204.3249829729167,60.0,73.0
772,203.99998300000004,204.66816476250003,56.0,82.0
773,204.54543750000005,205.19316471875004,60.0,100.0
774,203.45452850000004,205.28407380208336,44.0,87.0
775,204.54543750000005,205.29089198333338,68.0,98.0
776,203.72725575000004,205.3818010666667,51.0,79.0
777,205.63634650000003,206.46816461250003,63.0,87.0
778,205.63634650000003,206.46816461250003,70.0,87.0
779,205.63634650000003,206.47043733958336,66.0,88.0
780,205.63634650000003,206.94771002708336,51.0,86.0
781,206.45452825000004,206.95907366250003,58.0,70.0
782,206.72725550000004,207.3727099916667,63.0,102.0
783,206.72725550000004,207.42952816875004,70.0,102.0
784,206.72725550000004,207.44316453125003,66.0,110.0
785,207.27271000000005,207.82043722708337,51.0,88.0
786,207.81816450000002,209.46361890833336,44.0,87.0
787,207.81816450000002,209.62725525833338,60.0,88.0
788,207.81816450000002,209.6499825291667,68.0,91.0
789,207.81816450000002,209.87043705625004,63.0,92.0
790,212.72725500000004,214.07725488750003,66.0,73.0
791,212.18180050000004,214.20907305833336,54.0,83.0
792,212.45452775000004,214.2454366916667,61.0,71.0
793,212.99998225000004,214.47270940000004,70.0,70.0
794,215.45452750000004,216.09770926458336,63.0,38.0
795,214.36361850000003,216.11134562708338,54.0,78.0
796,215.45452750000004,216.34316378958337,68.0,80.0
797,216.81816375000002,218.25225453958336,60.0,38.0
798,216.54543650000005,218.3704363479167,53.0,81.0
799,217.36361825000003,218.57725451250005,65.0,77.0
800,217.36361825000003,218.58634542083337,72.0,77.0
801,219.54543625000002,220.87725432083337,70.0,87.0
802,218.72725450000004,220.89543613750004,58.0,87.0
803,219.54543625000002,220.90907250000004,61.0,84.0
804,221.06589066875003,222.2022542104167,66.0,72.0
805,221.17498156875004,222.25225420625003,70.0,73.0
806,221.24770883541672,222.27952693125005,73.0,80.0
807,221.20452702083338,222.39770873958338,54.0,66.0
808,222.74316325625003,223.8590722541667,75.0,79.0
809,222.53861781875003,223.98634497083336,66.0,44.0
810,222.63634508333337,224.20452677083338,70.0,64.0
811,222.70452689583337,224.52498128958337,54.0,62.0
812,224.80907217500004,224.91816307500002,68.0,69.0
813,224.87270853333337,225.17725396250003,73.0,80.0
814,224.7454358166667,225.3454357666667,65.0,67.0
815,225.6658902854167,225.83179936250005,63.0,79.0
816,225.99770843958336,226.1499811541667,68.0,83.0
817,226.1704356979167,226.24770841875005,73.0,87.0
818,226.34543568333336,226.43179931250003,75.0,85.0
819,226.49998112500003,226.57043566458339,77.0,79.0
820,226.68634474583337,226.80907200833337,80.0,86.0
821,226.8658901854167,226.9545265416667,85.0,88.0
822,227.07270835000003,227.1590719791667,89.0,87.0
823,227.31361742083337,227.39998105000004,92.0,88.0
824,227.68634466250003,227.81361737916671,85.0,48.0
825,227.87043555625004,227.98861736458338,97.0,87.0
826,225.4613448479167,228.14316280625005,61.0,69.0
827,225.13634487500005,228.21134461875005,56.0,44.0
828,224.7590721791667,228.22270825416672,49.0,68.0
