,start,end,pitch,velocity
0,17.3579371875,17.8086943125,64.0,79.0
1,17.8124821875,18.2632393125,69.0,80.0
2,18.2670271875,18.7594509375,72.0,84.0
3,18.7215721875,19.1723293125,71.0,86.0
4,19.1761171875,19.6268743125,67.0,66.0
5,19.6306621875,20.1192980625,62.0,57.0
6,20.0852071875,24.624975375,64.0,64.0
7,24.6306571875,25.0814143125,64.0,72.0
8,25.0852021875,25.5359593125,69.0,65.0
9,25.5397471875,26.0283830625,72.0,77.0
10,25.9942921875,26.4564129375,71.0,90.0
11,26.4488371875,26.8995943125,67.0,80.0
12,26.9033821875,27.374972625,64.0,65.0
13,27.3579271875,28.0359568125,71.0,86.0
14,28.0397446875,31.215877875,69.0,86.0
15,31.2215596875,31.5018624375,69.0,58.0
16,31.4488321875,31.6723168125,74.0,91.0
17,31.6761046875,32.1268618125,76.0,87.0
18,32.130649687500004,32.3541343125,69.0,72.0
19,32.3579221875,32.5814068125,74.0,86.0
20,32.5851946875,33.0359518125,76.0,90.0
21,33.0397396875,33.2935273125,69.0,79.0
22,33.2670121875,33.4904968125,74.0,93.0
23,33.4942846875,33.9450418125,76.0,92.0
24,33.9488296875,34.200723375,69.0,64.0
25,34.1761021875,35.0814043125,74.0,90.0
26,35.0851921875,35.3086768125,72.0,101.0
27,35.3124646875,35.7632218125,74.0,93.0
28,35.7670096875,35.9904943125,64.0,82.0
29,35.9942821875,36.3427666875,72.0,89.0
30,36.2215546875,36.6723118125,74.0,92.0
31,36.6760996875,36.899584312500004,64.0,74.0
32,36.9033721875,37.2594324375,72.0,90.0
33,37.1306446875,37.5814018125,74.0,93.0
34,37.5851896875,38.0359468125,64.0,81.0
35,38.0397346875,39.1723093125,72.0,96.0
36,39.1760971875,39.6268543125,64.0,82.0
37,39.6306421875,40.0813993125,69.0,84.0
38,40.0851871875,40.5359443125,72.0,90.0
39,40.5397321875,40.9904893125,71.0,94.0
40,40.9942771875,41.4450343125,67.0,79.0
41,41.4488221875,41.9109429375,64.0,79.0
42,41.9033671875,42.5813968125,71.0,93.0
43,42.5851846875,46.4450293125,69.0,93.0
44,46.4488171875,46.9109379375,64.0,77.0
45,46.9033621875,47.3541193125,69.0,86.0
46,47.3579071875,47.84086125,72.0,80.0
47,47.8124521875,48.284042625,71.0,91.0
48,48.2669971875,48.7177543125,67.0,69.0
49,48.7215421875,49.1722993125,62.0,62.0
50,49.1760871875,53.715855375,64.0,77.0
51,53.7215371875,54.1722943125,64.0,81.0
52,54.1760821875,54.6268393125,69.0,80.0
53,54.630627187500004,55.087066125,72.0,87.0
54,55.0851721875,55.5510808125,71.0,91.0
55,55.5397171875,55.9904743125,67.0,82.0
56,55.9942621875,56.4791101875,64.0,65.0
57,56.4488071875,57.1268368125,71.0,89.0
58,57.1306246875,60.306757875,69.0,84.0
59,60.3124396875,60.564333375,69.0,75.0
60,60.5397121875,60.7631968125,74.0,90.0
61,60.7669846875,61.2177418125,76.0,91.0
62,61.2215296875,61.4563779375,69.0,66.0
63,61.4488021875,61.6722868125,74.0,90.0
64,61.6760746875,62.1268318125,76.0,90.0
65,62.1306196875,62.4033466875,69.0,77.0
66,62.3578921875,62.5813768125,74.0,89.0
67,62.5851646875,63.0359218125,76.0,97.0
68,63.0397096875,63.2631943125,69.0,77.0
69,63.2669821875,64.1722843125,74.0,86.0
70,64.1760721875,64.3995568125,72.0,98.0
71,64.4033446875,64.8844048125,74.0,91.0
72,64.8578896875,65.0813743125,64.0,87.0
73,65.0851621875,65.3086468125,72.0,90.0
74,65.3124346875,65.7631918125,74.0,98.0
75,65.7669796875,65.9904643125,64.0,85.0
76,65.9942521875,66.21773681250001,72.0,93.0
77,66.2215246875,66.6722818125,74.0,98.0
78,66.6760696875,67.1268268125,64.0,90.0
79,67.1306146875,68.2631893125,72.0,99.0
80,68.2669771875,68.7177343125,65.0,77.0
81,68.7215221875,69.1722793125,69.0,68.0
82,69.1760671875,69.6268243125,76.0,83.0
83,69.6306121875,70.0813693125,74.0,90.0
84,70.0851571875,70.5359143125,71.0,84.0
85,70.5397021875,71.011292625,67.0,81.0
86,70.9942471875,71.8995493125,71.0,98.0
87,71.9033371875,77.579467875,69.0,94.0
88,77.5851496875,77.8086343125,69.0,82.0
89,77.8124221875,78.2631793125,81.0,90.0
90,78.2669671875,78.7177243125,79.0,99.0
91,78.7215121875,78.996133125,76.0,93.0
92,78.9487846875,79.1722693125,75.0,59.0
93,79.1760571875,79.458253875,76.0,65.0
94,79.4033296875,79.6268143125,75.0,52.0
95,79.6306021875,80.0813593125,76.0,73.0
96,80.0851471875,80.3086318125,75.0,89.0
97,80.3124196875,80.7631768125,76.0,84.0
98,80.7669646875,80.9904493125,75.0,54.0
99,80.9942371875,81.443100375,76.0,66.0
100,81.4487821875,82.1268118125,76.0,71.0
101,82.1305996875,82.3540843125,72.0,90.0
102,82.3578721875,82.6987809375,74.0,79.0
103,82.5851446875,82.8086293125,72.0,66.0
104,82.8124171875,83.0851441875,74.0,84.0
105,83.0396896875,83.2631743125,72.0,66.0
106,83.2669621875,83.7177193125,74.0,87.0
107,83.7215071875,83.9449918125,76.0,98.0
108,83.94877968750001,84.3995368125,74.0,94.0
109,84.4033246875,84.6268093125,72.0,91.0
110,84.6305971875,85.079460375,69.0,91.0
111,85.0851421875,85.7631718125,69.0,94.0
112,85.7669596875,85.9904443125,72.0,90.0
113,85.9942321875,86.302944,74.0,98.0
114,86.2215046875,86.4449893125,72.0,89.0
115,86.4487771875,86.897640375,74.0,94.0
116,86.9033221875,87.5813518125,74.0,105.0
117,87.5851396875,87.8086243125,76.0,91.0
118,87.8124121875,88.094608875,74.0,97.0
119,88.0396846875,88.2631693125,72.0,90.0
120,88.2669571875,88.71771431250001,69.0,94.0
121,88.7215021875,89.397637875,76.0,94.0
122,89.4033196875,89.6268043125,76.0,101.0
123,89.6305921875,90.09839475,74.0,98.0
124,90.0851371875,90.363546,76.0,77.0
125,90.3124096875,90.7631668125,74.0,90.0
126,90.7669546875,91.242333,69.0,89.0
127,91.2214996875,92.3540743125,71.0,96.0
128,92.3578621875,92.9033161875,81.0,109.0
129,92.8124071875,93.2631643125,79.0,101.0
130,93.2669521875,93.541573125,76.0,93.0
131,93.4942246875,93.7177093125,75.0,59.0
132,93.7214971875,94.003693875,76.0,65.0
133,93.9487696875,94.1722543125,75.0,52.0
134,94.1760421875,94.6267993125,76.0,73.0
135,94.6305871875,94.8540718125,75.0,89.0
136,94.8578596875,95.3086168125,76.0,84.0
137,95.3124046875,95.5358893125,75.0,54.0
138,95.5396771875,95.988540375,76.0,66.0
139,95.9942221875,96.670357875,76.0,71.0
140,96.6760396875,96.8995243125,76.0,54.0
141,96.9033121875,97.162781625,81.0,87.0
142,97.1305846875,97.3540693125,80.0,54.0
143,97.3578571875,97.6911901875,81.0,66.0
144,97.5851296875,97.8086143125,80.0,59.0
145,97.8124021875,98.2631593125,81.0,66.0
146,98.2669471875,98.571871125,76.0,58.0
147,98.4942196875,98.9449768125,74.0,74.0
148,98.9487646875,99.1949765625,72.0,65.0
149,99.1760371875,99.624900375,69.0,64.0
150,99.6305821875,100.3086118125,69.0,93.0
151,100.3123996875,100.5358843125,72.0,91.0
152,100.5396721875,100.8427021875,74.0,89.0
153,100.7669446875,100.9904293125,72.0,66.0
154,100.9942171875,101.443080375,74.0,87.0
155,101.4487621875,102.1267918125,74.0,93.0
156,102.1305796875,102.3540643125,76.0,89.0
157,102.3578521875,102.6608821875,74.0,79.0
158,102.5851246875,102.8086093125,72.0,81.0
159,102.8123971875,103.2631543125,69.0,80.0
160,103.2669421875,103.9449718125,76.0,87.0
161,103.9487596875,104.1722443125,74.0,98.0
162,104.1760321875,104.6267893125,76.0,97.0
163,104.6305771875,105.0813343125,74.0,98.0
164,105.0851221875,105.6002731875,72.0,98.0
165,105.5396671875,106.4449693125,71.0,91.0
166,106.44875718750001,113.7176893125,69.0,96.0
167,113.7214771875,114.1722343125,64.0,79.0
168,114.1760221875,114.6267793125,69.0,80.0
169,114.6305671875,115.1229909375,72.0,84.0
170,115.0851121875,115.5358693125,71.0,86.0
171,115.5396571875,115.9904143125,67.0,66.0
172,115.9942021875,116.4828380625,62.0,57.0
173,116.4487471875,120.988515375,64.0,64.0
174,120.9941971875,121.4449543125,64.0,72.0
175,121.4487421875,121.8994993125,69.0,65.0
176,121.9032871875,122.3919230625,72.0,77.0
177,122.3578321875,122.8199529375,71.0,90.0
178,122.8123771875,123.2631343125,67.0,80.0
179,123.2669221875,123.738512625,64.0,65.0
180,123.7214671875,124.3994968125,71.0,86.0
181,124.4032846875,127.579417875,69.0,86.0
182,127.5850996875,127.8654024375,69.0,58.0
183,127.8123721875,128.0358568125,74.0,91.0
184,128.0396446875,128.4904018125,76.0,87.0
185,128.4941896875,128.7176743125,69.0,72.0
186,128.7214621875,128.9449468125,74.0,86.0
187,128.9487346875,129.3994918125,76.0,90.0
188,129.4032796875,129.6570673125,69.0,79.0
189,129.6305521875,129.8540368125,74.0,93.0
190,129.8578246875,130.3085818125,76.0,92.0
191,130.3123696875,130.564263375,69.0,64.0
192,130.5396421875,131.4449443125,74.0,90.0
193,131.4487321875,131.6722168125,72.0,101.0
194,131.6760046875,132.1267618125,74.0,93.0
195,132.1305496875,132.3540343125,64.0,82.0
196,132.3578221875,132.7063066875,72.0,89.0
197,132.5850946875,133.0358518125,74.0,92.0
198,133.0396396875,133.2631243125,64.0,74.0
199,133.2669121875,133.6229724375,72.0,90.0
200,133.4941846875,133.9449418125,74.0,93.0
201,133.9487296875,134.3994868125,64.0,81.0
202,134.4032746875,135.5358493125,72.0,96.0
203,135.5396371875,135.9903943125,64.0,82.0
204,135.9941821875,136.4449393125,69.0,84.0
205,136.4487271875,136.8994843125,76.0,90.0
206,136.9032721875,137.3540293125,74.0,94.0
207,137.3578171875,137.8085743125,71.0,79.0
208,137.8123621875,138.2744829375,67.0,79.0
209,138.2669071875,138.9449368125,71.0,93.0
210,138.9487246875,144.852127875,69.0,93.0
211,144.8578096875,145.0812943125,69.0,82.0
212,145.0850821875,145.5358393125,81.0,90.0
213,145.5396271875,145.9903843125,79.0,99.0
214,145.9941721875,146.268793125,76.0,93.0
215,146.2214446875,146.4449293125,75.0,59.0
216,146.4487171875,146.730913875,76.0,65.0
217,146.6759896875,146.8994743125,75.0,52.0
218,146.9032621875,147.35401931250001,76.0,73.0
219,147.3578071875,147.5812918125,75.0,89.0
220,147.5850796875,148.0358368125,76.0,84.0
221,148.0396246875,148.2631093125,75.0,54.0
222,148.2668971875,148.715760375,76.0,66.0
223,148.7214421875,149.3994718125,76.0,71.0
224,149.4032596875,149.6267443125,72.0,90.0
225,149.6305321875,149.9714409375,74.0,79.0
226,149.8578046875,150.0812893125,72.0,66.0
227,150.0850771875,150.3578041875,74.0,84.0
228,150.3123496875,150.5358343125,72.0,66.0
229,150.5396221875,150.9903793125,74.0,87.0
230,150.9941671875,151.2176518125,76.0,98.0
231,151.2214396875,151.6721968125,74.0,94.0
232,151.6759846875,151.8994693125,72.0,91.0
233,151.9032571875,152.352120375,69.0,91.0
234,152.3578021875,153.0358318125,69.0,94.0
235,153.0396196875,153.2631043125,72.0,90.0
236,153.2668921875,153.575604,74.0,98.0
237,153.4941646875,153.7176493125,72.0,89.0
238,153.7214371875,154.170300375,74.0,94.0
239,154.1759821875,154.8540118125,74.0,105.0
240,154.8577996875,155.0812843125,76.0,91.0
241,155.0850721875,155.367268875,74.0,97.0
242,155.3123446875,155.5358293125,72.0,90.0
243,155.5396171875,155.9903743125,69.0,94.0
244,155.9941621875,156.670297875,76.0,94.0
245,156.6759796875,156.8994643125,76.0,101.0
246,156.9032521875,157.37105475,74.0,98.0
247,157.3577971875,157.636206,76.0,77.0
248,157.5850696875,158.0358268125,74.0,90.0
249,158.0396146875,158.514993,69.0,89.0
250,158.4941596875,159.6267343125,71.0,96.0
251,159.6305221875,160.1759761875,81.0,109.0
252,160.0850671875,160.5358243125,79.0,101.0
253,160.5396121875,160.814233125,76.0,93.0
254,160.7668846875,160.9903693125,75.0,59.0
255,160.9941571875,161.276353875,76.0,65.0
256,161.2214296875,161.4449143125,75.0,52.0
257,161.4487021875,161.8994593125,76.0,73.0
258,161.9032471875,162.1267318125,75.0,89.0
259,162.1305196875,162.5812768125,76.0,84.0
260,162.5850646875,162.8085493125,75.0,54.0
261,162.8123371875,163.261200375,76.0,66.0
262,163.2668821875,163.943017875,76.0,71.0
263,163.9486996875,164.1721843125,76.0,54.0
264,164.1759721875,164.435441625,81.0,87.0
265,164.4032446875,164.6267293125,80.0,54.0
266,164.6305171875,164.8540018125,81.0,66.0
267,164.8577896875,165.0812743125,80.0,59.0
268,165.0850621875,165.5358193125,81.0,66.0
269,165.5396071875,165.844531125,76.0,58.0
270,165.7668796875,166.2176368125,74.0,74.0
271,166.2214246875,166.4676365625,72.0,65.0
272,166.4486971875,166.897560375,69.0,64.0
273,166.9032421875,167.5812718125,69.0,93.0
274,167.5850596875,167.8085443125,72.0,91.0
275,167.8123321875,168.1153621875,74.0,89.0
276,168.0396046875,168.2630893125,72.0,66.0
277,168.2668771875,168.715740375,74.0,87.0
278,168.7214221875,169.3994518125,74.0,93.0
279,169.4032396875,169.6267243125,76.0,89.0
280,169.6305121875,169.9335421875,74.0,79.0
281,169.8577846875,170.0812693125,72.0,81.0
282,170.0850571875,170.5358143125,69.0,80.0
283,170.5396021875,171.2176318125,76.0,87.0
284,171.2214196875,171.4449043125,74.0,98.0
285,171.4486921875,171.8994493125,76.0,97.0
286,171.9032371875,172.3539943125,74.0,98.0
287,172.3577821875,172.8729331875,72.0,98.0
288,172.8123271875,173.7176293125,71.0,91.0
289,173.7214171875,176.6721718125,69.0,96.0
290,176.6759596875,176.8994443125,67.0,96.0
291,176.9032321875,195.53578931250001,64.0,96.0
292,195.5395771875,195.99222825,76.0,64.0
293,195.9941221875,196.4827580625,74.0,77.0
294,196.4486671875,196.8994243125,76.0,89.0
295,196.9032121875,197.389954125,74.0,65.0
296,197.3577571875,197.6910901875,76.0,84.0
297,197.5850296875,198.0357868125,74.0,79.0
298,198.0395746875,198.268741125,72.0,77.0
299,198.2668471875,198.5016954375,69.0,72.0
300,198.4941196875,198.7176043125,67.0,62.0
301,198.7213921875,199.1721493125,69.0,79.0
302,199.1759371875,199.666467,76.0,86.0
303,199.6304821875,200.0812393125,74.0,93.0
304,200.0850271875,200.5357843125,76.0,91.0
305,200.5395721875,200.9903293125,74.0,80.0
306,200.9941171875,201.2176018125,76.0,69.0
307,201.2213896875,201.6721468125,74.0,77.0
308,201.6759346875,201.8994193125,72.0,66.0
309,201.9032071875,202.1948735625,69.0,65.0
310,202.1304796875,202.3539643125,67.0,63.0
311,202.3577521875,202.8085093125,69.0,65.0
312,202.8122971875,203.26494825,76.0,64.0
313,203.2668421875,203.7554780625,74.0,77.0
314,203.7213871875,204.1721443125,76.0,89.0
315,204.1759321875,204.662674125,74.0,65.0
316,204.6304771875,205.0812343125,76.0,84.0
317,205.0850221875,205.47706725,74.0,79.0
318,205.3122946875,205.541461125,72.0,77.0
319,205.5395671875,205.7744154375,69.0,72.0
320,205.7668396875,205.9903243125,67.0,62.0
321,205.9941121875,206.4448693125,69.0,79.0
322,206.4486571875,206.939187,76.0,86.0
323,206.9032021875,207.3539593125,74.0,93.0
324,207.3577471875,207.8085043125,76.0,91.0
325,207.8122921875,208.2630493125,74.0,80.0
326,208.2668371875,208.4903218125,76.0,69.0
327,208.4941096875,208.9448668125,74.0,77.0
328,208.9486546875,209.1721393125,72.0,66.0
329,209.1759271875,209.4675935625,69.0,65.0
330,209.4031996875,209.6266843125,67.0,63.0
331,209.6304721875,210.0812293125,69.0,65.0
332,210.0850171875,210.5357743125,76.0,85.0
333,210.5395621875,210.9903193125,74.0,96.0
334,210.9941071875,211.4448643125,76.0,97.0
335,211.4486521875,211.9145608125,74.0,83.0
336,211.9031971875,212.1361515,76.0,90.0
337,212.1304696875,212.5812268125,74.0,85.0
338,212.5850146875,212.836908375,72.0,64.0
339,212.8122871875,213.2630443125,69.0,79.0
340,213.2668321875,213.715695375,76.0,116.0
341,213.7213771875,214.170240375,76.0,98.0
342,214.1759221875,214.624785375,76.0,101.0
343,214.6304671875,215.079330375,76.0,109.0
344,215.0850121875,216.8994043125,76.0,109.0
345,216.9031921875,217.352055375,77.0,98.0
346,217.3577371875,217.806600375,77.0,97.0
347,217.8122821875,218.261145375,77.0,108.0
348,218.2668271875,218.715690375,77.0,103.0
349,218.7213721875,219.473265375,77.0,108.0
350,219.4031896875,219.6266743125,70.0,82.0
351,219.6304621875,220.0812193125,82.0,90.0
352,220.0850071875,220.5357643125,80.0,99.0
353,220.5395521875,220.814173125,77.0,93.0
354,220.7668246875,220.9903093125,76.0,59.0
355,220.9940971875,221.276293875,77.0,65.0
356,221.2213696875,221.4448543125,76.0,52.0
357,221.4486421875,221.8993993125,77.0,73.0
358,221.9031871875,222.1266718125,76.0,89.0
359,222.1304596875,222.5812168125,77.0,84.0
360,222.5850046875,222.8084893125,76.0,54.0
361,222.8122771875,223.261140375,77.0,66.0
362,223.2668221875,223.9448518125,77.0,71.0
363,223.9486396875,224.1721243125,77.0,90.0
364,224.1759121875,224.3993968125,82.0,79.0
365,224.4031846875,224.6266693125,81.0,66.0
366,224.6304571875,224.8539418125,82.0,84.0
367,224.8577296875,225.0812143125,81.0,66.0
368,225.0850021875,225.5357593125,82.0,87.0
369,225.5395471875,225.7630318125,77.0,98.0
370,225.7668196875,226.2175768125,75.0,94.0
371,226.2213646875,226.4448493125,73.0,91.0
372,226.4486371875,226.897500375,70.0,91.0
373,226.9031821875,227.5812118125,70.0,94.0
374,227.5849996875,227.8084843125,73.0,90.0
375,227.8122721875,228.120984,75.0,98.0
376,228.0395446875,228.2630293125,73.0,89.0
377,228.2668171875,228.715680375,75.0,94.0
378,228.7213621875,229.3993918125,75.0,105.0
379,229.4031796875,229.6266643125,77.0,91.0
380,229.6304521875,229.912648875,75.0,97.0
381,229.8577246875,230.0812093125,73.0,90.0
382,230.0849971875,230.5357543125,70.0,94.0
383,230.5395421875,231.2175718125,77.0,94.0
384,231.2213596875,231.450526125,75.0,97.0
385,231.4486321875,232.3539343125,77.0,99.0
386,232.3577221875,233.2630243125,75.0,110.0
387,233.2668121875,234.1721143125,73.0,105.0
388,234.17590218750001,235.0812043125,72.0,108.0
389,235.0849921875,238.7630188125,70.0,107.0
