,start,end,pitch,velocity
0,2.3579521875,3.0965878125,69.0,71.0
1,2.3579521875,3.09848175,57.0,57.0
2,2.3579521875,3.1041635625,64.0,73.0
3,2.3579521875,3.11363325,52.0,70.0
4,2.3579521875,3.11363325,60.0,61.0
5,2.3579521875,3.132572625,67.0,69.0
6,2.3579521875,3.5814358125,45.0,43.0
7,3.2670421875,4.0056778125,69.0,71.0
8,3.2670421875,4.0132535625,64.0,73.0
9,3.2670421875,4.02272325,60.0,61.0
10,3.2670421875,4.041662625,67.0,69.0
11,4.1761321875,4.50757125,62.0,67.0
12,4.1761321875,4.5208288125,40.0,49.0
13,4.1761321875,4.5473439375,59.0,69.0
14,4.1761321875,4.6155256875,67.0,61.0
15,4.6306771875,5.0170404375,40.0,70.0
16,4.1761321875,5.2102220625,47.0,76.0
17,4.1761321875,5.238631125,52.0,57.0
18,5.0852221875,5.41666125,62.0,67.0
19,5.0852221875,5.4564339375,59.0,69.0
20,5.3238583125,5.4905248125,40.0,57.0
21,5.0852221875,5.5246156875,67.0,61.0
22,5.5397671875,5.87120625,62.0,67.0
23,5.5397671875,5.9109789375,59.0,69.0
24,5.5397671875,5.9791606875,67.0,61.0
25,5.9943121875,6.8049174375,60.0,59.0
26,5.9943121875,6.852265875,67.0,48.0
27,5.9943121875,6.8541598125,57.0,49.0
28,5.9943121875,6.859841625,59.0,58.0
29,5.9943121875,6.867417375,64.0,74.0
30,5.9943121875,7.0587050625,45.0,24.0
31,5.9943121875,7.1458261875,52.0,60.0
32,6.9034021875,7.7140074375,60.0,59.0
33,6.9034021875,7.7613558750000005,67.0,48.0
34,6.9034021875,7.7632498125,57.0,49.0
35,6.9034021875,7.7689316250000005,59.0,58.0
36,6.9034021875,7.776507375,64.0,74.0
37,7.8124921875,8.2897644375,52.0,72.0
38,7.8124921875,8.3427946875,59.0,75.0
39,7.8124921875,8.3503704375,55.0,60.0
40,7.8124921875,8.3882491875,62.0,63.0
41,8.2670371875,8.67423375,40.0,81.0
42,8.7215821875,8.9071880625,59.0,81.0
43,8.7215821875,8.9147638125,55.0,81.0
44,8.7215821875,8.91665775,52.0,81.0
45,8.7215821875,8.9526425625,62.0,81.0
46,8.9488546875,9.0056728125,71.0,76.0
47,8.9488546875,9.0700666875,40.0,79.0
48,9.1761271875,9.3617330625,59.0,86.0
49,9.1761271875,9.3693088125,55.0,86.0
50,9.1761271875,9.4071875625,62.0,86.0
51,9.6306721875,10.1458231875,64.0,67.0
52,9.6306721875,10.162868625,60.0,56.0
53,9.6306721875,10.24998975,67.0,71.0
54,10.7670346875,10.878777,59.0,59.0
55,9.6306721875,10.9147618125,52.0,61.0
56,10.5397621875,10.9261254375,57.0,49.0
57,9.6306721875,10.9791556875,45.0,49.0
58,10.9943071875,11.2102160625,62.0,78.0
59,11.4488521875,11.82574575,52.0,71.0
60,11.9033971875,12.140139375,40.0,64.0
61,11.2215796875,12.4147603125,67.0,43.0
62,11.4488521875,12.571957125,59.0,67.0
63,11.4488521875,12.5852146875,62.0,78.0
64,12.3579421875,12.8049114375,52.0,64.0
65,12.818169,13.1117293125,59.0,67.0
66,12.818169,13.124986875,62.0,78.0
67,13.2670321875,13.958319375,50.0,71.0
68,13.2670321875,14.32574325,60.0,76.0
69,14.1761221875,14.37119775,50.0,79.0
70,13.2670321875,14.412864375,65.0,63.0
71,13.2670321875,14.43180375,57.0,51.0
72,13.4943046875,14.4905158125,62.0,3.0
73,14.4033946875,14.5435460625,38.0,62.0
74,14.6306671875,15.0321819375,50.0,57.0
75,15.0852121875,16.1799080625,59.0,57.0
76,15.0852121875,16.1950595625,62.0,57.0
77,15.0852121875,16.272711,55.0,57.0
78,15.0852121875,16.5321804375,52.0,57.0
79,16.4488471875,16.818165,62.0,68.0
80,16.9033921875,18.102254625,64.0,58.0
81,16.9033921875,18.1193000625,60.0,59.0
82,16.9033921875,18.143921250000002,57.0,48.0
83,16.9033921875,18.143921250000002,62.0,35.0
84,16.9033921875,18.2177848125,45.0,61.0
85,18.7215721875,19.670434875,59.0,57.0
86,18.7215721875,19.787859,67.0,72.0
87,18.7215721875,19.867404375,62.0,61.0
88,18.7215721875,19.882555875,71.0,75.0
89,19.8579346875,19.9829345625,59.0,60.0
90,18.7215721875,20.0852071875,52.0,53.0
91,20.0852071875,20.21967675,62.0,69.0
92,20.0852071875,20.21967675,67.0,77.0
93,20.5397521875,21.155281875,57.0,56.0
94,20.5397521875,21.928008375,64.0,61.0
95,20.5397521875,21.96209925,60.0,58.0
96,20.5397521875,22.003765875,69.0,58.0
97,22.1306596875,22.606038,57.0,2.0
98,20.5397521875,22.8011135625,45.0,50.0
99,22.5852046875,22.939371,60.0,63.0
100,22.5852046875,22.9867194375,64.0,73.0
101,22.5852046875,23.0586890625,69.0,62.0
102,23.0397496875,23.3181585,57.0,52.0
103,23.2670221875,23.6495975625,59.0,72.0
104,23.2670221875,23.6723248125,67.0,72.0
105,23.2670221875,23.696946,64.0,67.0
106,23.0397496875,23.7424005,45.0,69.0
107,24.1761121875,25.1458081875,53.0,56.0
108,24.1761121875,25.3162625625,60.0,59.0
109,24.1761121875,25.363611,69.0,69.0
110,24.1761121875,25.374974625,65.0,76.0
111,24.1761121875,25.6003531875,41.0,62.0
112,25.5397471875,25.6458076875,60.0,62.0
113,25.5397471875,25.6761106875,53.0,48.0
114,25.9942921875,26.844670125,52.0,53.0
115,25.9942921875,26.9905033125,67.0,68.0
116,25.9942921875,27.0397456875,71.0,69.0
117,25.9942921875,27.0927759375,62.0,59.0
118,25.9942921875,27.3124726875,40.0,73.0
119,27.1306546875,27.3124726875,52.0,39.0
120,27.3579271875,27.4942906875,62.0,75.0
121,27.3579271875,27.55300275,67.0,72.0
122,27.3579271875,27.768911625,71.0,80.0
123,27.8124721875,28.4374715625,57.0,57.0
124,27.8124721875,28.59845625,67.0,72.0
125,27.8124721875,28.7120925,64.0,68.0
126,27.8124721875,28.8617135625,72.0,76.0
127,28.721562187500002,29.5283795625,57.0,39.0
128,29.4033796875,29.68936425,69.0,69.0
129,29.4033796875,29.727243,67.0,71.0
130,29.4033796875,29.731030875,71.0,79.0
131,29.4033796875,29.76512175,62.0,71.0
132,30.3124696875,30.4601968125,59.0,51.0
133,30.5397421875,30.640120875,67.0,56.0
134,30.5397421875,30.6874693125,59.0,34.0
135,30.5397421875,30.8920145625,60.0,84.0
136,29.8579246875,30.9639841875,57.0,41.0
137,30.5397421875,30.99239325,64.0,81.0
138,27.8124721875,31.11360525,45.0,69.0
139,30.9942871875,31.170423375,59.0,44.0
140,30.9942871875,31.215877875,67.0,72.0
141,31.4488321875,31.9261044375,53.0,62.0
142,31.4488321875,32.0927709375,65.0,78.0
143,31.4488321875,32.1041345625,60.0,68.0
144,31.4488321875,32.15905875,69.0,63.0
145,31.4488321875,32.1950435625,72.0,59.0
146,32.130649687500004,32.450725125,53.0,47.0
147,32.3579221875,32.738603625,60.0,80.0
148,32.3579221875,32.7708005625,65.0,78.0
149,32.8124671875,32.8958004375,53.0,50.0
150,32.3579221875,32.8995883125,69.0,77.0
151,31.4488321875,32.9071640625,41.0,73.0
152,33.2670121875,33.8465570625,52.0,69.0
153,33.2670121875,34.17420825,67.0,79.0
154,33.2670121875,34.2139809375,62.0,79.0
155,33.2670121875,34.2632233125,71.0,83.0
156,34.1761021875,34.443147375,52.0,15.0
157,34.4033746875,34.44693525,69.0,55.0
158,34.4033746875,34.541632125,71.0,78.0
159,34.4033746875,34.7064046875,62.0,83.0
160,34.4033746875,34.746177375,67.0,83.0
161,33.2670121875,34.757541,40.0,77.0
162,35.0851921875,35.6382219375,50.0,57.0
163,35.0851921875,35.776479375,65.0,80.0
164,35.0851921875,35.821933875,60.0,72.0
165,35.0851921875,35.82572175,69.0,69.0
166,35.0851921875,35.8844338125,72.0,59.0
167,35.9942821875,36.15905475,50.0,37.0
168,35.9942821875,36.405266625,60.0,73.0
169,35.0851921875,36.420418125,38.0,73.0
170,35.9942821875,36.4336756875,65.0,83.0
171,36.4488271875,36.5662513125,50.0,54.0
172,35.9942821875,36.5908725,69.0,73.0
173,36.9033721875,37.3730686875,48.0,55.0
174,36.9033721875,37.579507875,64.0,68.0
175,36.9033721875,37.5889775625,67.0,72.0
176,36.9033721875,37.59844725,62.0,68.0
177,36.9033721875,37.6079169375,71.0,74.0
178,37.5851896875,37.79541675,48.0,52.0
179,36.9033721875,37.84087125,36.0,79.0
180,37.8124621875,38.0814013125,69.0,62.0
181,37.8124621875,38.1306436875,71.0,78.0
182,37.8124621875,38.1363255,62.0,80.0
183,37.8124621875,38.1571588125,64.0,78.0
184,37.8124621875,38.177992125,67.0,80.0
185,38.0397346875,38.2935223125,36.0,84.0
186,38.2670071875,38.4904918125,69.0,72.0
187,38.2670071875,38.526476625,62.0,82.0
188,38.2670071875,38.5321584375,64.0,79.0
189,38.2670071875,38.545416,67.0,70.0
190,38.2670071875,38.5776129375,71.0,80.0
191,38.7215521875,39.2404910625,53.0,63.0
192,38.7215521875,39.4563999375,60.0,80.0
193,38.7215521875,39.5056423125,57.0,58.0
194,38.7215521875,39.68935425,65.0,75.0
195,39.4033696875,39.8938995,53.0,57.0
196,39.6306421875,39.9753388125,57.0,63.0
197,39.8579146875,40.0586720625,60.0,77.0
198,38.7215521875,40.102232625,41.0,55.0
199,40.0851871875,40.2367021875,65.0,81.0
200,40.5397321875,41.0207923125,52.0,50.0
201,40.5397321875,41.3010950625,62.0,78.0
202,40.5397321875,41.302989,59.0,57.0
203,40.5397321875,41.3048829375,67.0,60.0
204,40.5397321875,41.7745794375,40.0,69.0
205,41.4488221875,41.897685375,59.0,77.0
206,41.4488221875,41.920412625,52.0,58.0
207,41.9033671875,41.94692775,62.0,76.0
208,41.9033671875,41.97723075,67.0,62.0
209,42.3579121875,42.753745125,69.0,42.0
210,42.3579121875,42.7670026875,62.0,72.0
211,42.3579121875,42.776472375,64.0,76.0
212,42.8124571875,43.2594264375,57.0,62.0
213,43.0397296875,43.5776079375,64.0,84.0
214,43.7215471875,43.927986375,62.0,61.0
215,43.4942746875,44.0813953125,57.0,53.0
216,43.9488196875,44.40147075,69.0,79.0
217,43.9488196875,44.435561625,64.0,77.0
218,44.4033646875,44.8389703125,57.0,31.0
219,44.6306371875,44.8465460625,60.0,59.0
220,44.6306371875,44.9601823125,67.0,60.0
221,44.8579096875,44.9942731875,60.0,62.0
222,44.8579096875,44.9942731875,64.0,80.0
223,42.3579121875,45.526469625,45.0,73.0
224,45.3124546875,45.5397271875,52.0,53.0
225,45.5397271875,45.715863375,55.0,69.0
226,45.5397271875,45.7821511875,60.0,77.0
227,45.7669996875,45.9223025625,62.0,78.0
228,45.9942721875,46.556771625,57.0,68.0
229,45.9942721875,46.6817715,69.0,82.0
230,45.9942721875,46.7120745,60.0,83.0
231,45.9942721875,46.731013875,64.0,83.0
232,46.6760896875,47.030256,57.0,17.0
233,46.9033621875,47.140104375,60.0,84.0
234,46.9033621875,47.1647255625,69.0,82.0
235,45.9942721875,47.170407375,45.0,83.0
236,46.9033621875,47.1969225,64.0,90.0
237,47.3579071875,47.556770625,57.0,72.0
238,47.5851796875,47.617376625,64.0,55.0
239,47.2442709375,47.6798765625,52.0,78.0
240,47.5851796875,47.68934625,67.0,76.0
241,47.8124521875,47.890103625,59.0,75.0
242,47.8124521875,47.90146725,64.0,82.0
243,47.8124521875,47.9071490625,67.0,79.0
244,47.8124521875,47.9109369375,52.0,53.0
245,47.8124521875,47.969649,40.0,86.0
246,48.2669971875,48.58328475,52.0,78.0
247,48.2669971875,48.837072375,64.0,90.0
248,48.2669971875,48.844648125,59.0,84.0
249,48.2669971875,48.8692693125,67.0,82.0
250,49.0624509375,49.3181325,52.0,62.0
251,49.1760871875,49.3238143125,59.0,80.0
252,49.1760871875,49.344647625,64.0,80.0
253,49.1760871875,49.424193,67.0,80.0
254,48.2669971875,49.5132080625,40.0,80.0
255,49.5169959375,49.6912381875,52.0,72.0
256,49.6306321875,49.70449575,64.0,83.0
257,49.6306321875,49.7063896875,60.0,84.0
258,49.6306321875,49.7423745,69.0,82.0
259,49.6306321875,49.753738125,45.0,82.0
260,50.0851771875,50.7215401875,64.0,84.0
261,50.0851771875,50.7404795625,60.0,81.0
262,50.0851771875,50.7518431875,69.0,82.0
263,50.0851771875,51.0472974375,45.0,81.0
264,51.2215396875,51.314342625,45.0,76.0
265,50.9942671875,51.3313880625,60.0,82.0
266,50.9942671875,51.3503274375,64.0,82.0
267,50.9942671875,51.3730546875,69.0,82.0
268,51.6760846875,51.753736125,64.0,86.0
269,51.6760846875,51.7594179375,60.0,86.0
270,51.6760846875,51.7897209375,69.0,84.0
271,52.2442659375,52.496159625,45.0,75.0
272,52.5851746875,52.8503259375,45.0,78.0
273,52.3579021875,52.8957804375,60.0,86.0
274,52.3579021875,52.9241895,64.0,86.0
275,52.3579021875,52.9677500625,69.0,83.0
276,52.8124471875,53.200704375,43.0,83.0
277,53.2669921875,53.9298703125,69.0,80.0
278,53.2669921875,53.935552125,65.0,84.0
279,53.2669921875,53.94691575,60.0,84.0
280,53.2669921875,54.2745669375,41.0,91.0
281,54.1760821875,54.321915375,65.0,82.0
282,54.1760821875,54.325703250000004,60.0,82.0
283,54.1760821875,54.359794125,69.0,83.0
284,54.630627187500004,54.738581625,65.0,79.0
285,54.630627187500004,54.7480513125,60.0,81.0
286,54.630627187500004,54.7821421875,69.0,82.0
287,54.5169909375,55.041611625,41.0,82.0
288,55.0851721875,55.14388425,67.0,75.0
289,55.0851721875,55.1533539375,62.0,78.0
290,55.0851721875,55.15903575,71.0,84.0
291,55.0851721875,55.212066,40.0,79.0
292,55.5397171875,56.0132015625,40.0,84.0
293,55.5397171875,56.1041105625,71.0,81.0
294,55.5397171875,56.1268378125,67.0,83.0
295,55.5397171875,56.1571408125,62.0,75.0
296,56.3351709375,56.571913125,40.0,82.0
297,56.4488071875,56.6382009375,62.0,83.0
298,56.4488071875,56.6836554375,67.0,84.0
299,56.4488071875,56.7423675,71.0,86.0
300,56.7897159375,56.9147158125,43.0,68.0
301,57.3578971875,57.4450183125,67.0,80.0
302,57.3578971875,57.450700125,69.0,79.0
303,57.3578971875,57.454488,64.0,82.0
304,57.3578971875,57.4715334375,72.0,84.0
305,56.9033521875,57.810548250000004,45.0,84.0
306,57.8124421875,58.1154721875,67.0,75.0
307,57.8124421875,58.121154,64.0,81.0
308,57.8124421875,58.1685024375,69.0,74.0
309,57.8124421875,58.1722903125,72.0,84.0
310,58.2669871875,58.55297175,45.0,79.0
311,58.4942596875,58.5662293125,62.0,80.0
312,58.4942596875,58.5662293125,67.0,82.0
313,58.4942596875,58.5662293125,69.0,78.0
314,58.9488046875,59.0245621875,67.0,78.0
315,58.9488046875,59.0283500625,62.0,76.0
316,58.9488046875,59.034031875,69.0,78.0
317,59.4033496875,59.7177433125,45.0,71.0
318,59.6306221875,60.011303625000004,67.0,74.0
319,59.6306221875,60.0207733125,62.0,79.0
320,59.6306221875,60.0453945,69.0,78.0
321,59.8578946875,60.0548641875,45.0,76.0
322,60.0851671875,60.3844093125,43.0,79.0
323,60.5397121875,61.0131965625,53.0,77.0
324,60.5397121875,61.117363125,69.0,83.0
325,60.5397121875,61.21963575,65.0,90.0
326,60.5397121875,61.2594084375,60.0,84.0
327,61.2215296875,61.575696,53.0,57.0
328,61.4488021875,62.0131955625,60.0,86.0
329,60.5397121875,62.0150895,41.0,82.0
330,61.9033471875,62.03781675,53.0,77.0
331,61.4488021875,62.0472864375,69.0,83.0
332,61.4488021875,62.0510743125,65.0,90.0
333,62.3578921875,62.4753163125,69.0,60.0
334,62.3578921875,62.7745584375,52.0,83.0
335,62.3578921875,62.980997625,71.0,82.0
336,62.3578921875,63.034027875,62.0,86.0
337,62.3578921875,63.049179375,67.0,86.0
338,63.2669821875,63.3010730625,69.0,52.0
339,62.3578921875,63.3844063125,40.0,86.0
340,63.1363005,63.4184971875,52.0,73.0
341,63.2669821875,63.746148375,71.0,94.0
342,63.2669821875,63.757512,67.0,93.0
343,63.7215271875,63.814330125,52.0,80.0
344,63.2669821875,63.8237998125,62.0,86.0
345,63.7215271875,63.848421,40.0,90.0
346,64.1760721875,64.6495565625,72.0,82.0
347,64.1760721875,64.67417775,69.0,75.0
348,64.1760721875,64.727208,50.0,78.0
349,64.1760721875,64.7669806875,65.0,84.0
350,64.1760721875,64.87114725,60.0,80.0
351,64.1760721875,65.18932875,38.0,82.0
352,64.9715259375,65.193116625,50.0,39.0
353,65.0851621875,65.2025863125,72.0,82.0
354,65.0851621875,65.4791011875,65.0,95.0
355,65.0851621875,65.6078889375,60.0,93.0
356,65.5397071875,65.6817525,38.0,82.0
357,65.5397071875,65.708267625,50.0,82.0
358,65.0851621875,65.7366766875,69.0,86.0
359,65.9942521875,66.090843,71.0,80.0
360,65.9942521875,66.412812375,48.0,83.0
361,65.9942521875,66.5605395,67.0,84.0
362,65.9942521875,66.6647060625,62.0,84.0
363,66.7897059375,67.056751125,48.0,68.0
364,65.9942521875,67.41659925,36.0,86.0
365,66.9033421875,67.454478,64.0,82.0
366,66.9033421875,67.480993125,62.0,83.0
367,66.9033421875,67.488568875,71.0,84.0
368,67.3578871875,67.49235675,48.0,76.0
369,66.9033421875,67.49235675,67.0,84.0
370,67.8124321875,68.1987954375,57.0,82.0
371,67.8124321875,68.3200074375,69.0,83.0
372,67.8124321875,68.6230374375,60.0,83.0
373,67.8124321875,68.624931375,65.0,90.0
374,68.6078859375,68.88629475,57.0,77.0
375,68.7215221875,69.1457641875,65.0,96.0
376,68.7215221875,69.1647035625,60.0,96.0
377,68.7215221875,69.1798550625,69.0,83.0
378,67.8124321875,69.2366731875,50.0,79.0
379,69.170385375,69.2631883125,57.0,79.0
380,69.6306121875,70.041596625,52.0,84.0
381,69.6306121875,70.1665965,71.0,91.0
382,69.6306121875,70.4071265625,67.0,84.0
383,69.6306121875,70.4109144375,62.0,86.0
384,70.4260659375,70.636293,52.0,84.0
385,70.5397021875,71.0150805,67.0,86.0
386,70.5397021875,71.02265625,71.0,91.0
387,70.5397021875,71.0434895625,62.0,90.0
388,69.6306121875,71.0756865,40.0,90.0
389,70.9942471875,71.11356525,52.0,93.0
390,71.4487921875,71.9222765625,72.0,90.0
391,71.4487921875,71.9563674375,64.0,83.0
392,72.2442459375,72.3957609375,62.0,93.0
393,72.3578821875,72.4696245,64.0,91.0
394,72.7120485,72.84083625,69.0,86.0
395,71.4487921875,72.94689675,45.0,90.0
396,71.9033371875,72.94689675,57.0,83.0
397,72.8124271875,73.003714875,74.0,91.0
398,73.0396996875,73.2253055625,57.0,51.0
399,73.0396996875,73.480987125,69.0,83.0
400,73.0396996875,73.5169719375,73.0,98.0
401,73.6078809375,73.7025778125,69.0,84.0
402,73.6078809375,73.82568375,74.0,94.0
403,73.71962325,73.8881836875,76.0,95.0
404,73.7215171875,73.912804875,69.0,68.0
405,74.0624259375,74.3162135625,57.0,75.0
406,74.1760621875,74.3503044375,81.0,86.0
407,74.1760621875,74.526440625,73.0,94.0
408,74.1760621875,74.666592,79.0,86.0
409,74.1760621875,74.6950010625,69.0,95.0
410,73.0396996875,74.746137375,45.0,90.0
411,74.6306071875,74.7669706875,57.0,84.0
412,75.0851521875,75.382500375,69.0,83.0
413,75.0851521875,75.450682125,74.0,91.0
414,75.0851521875,75.564318375,57.0,84.0
415,75.5396971875,75.7120455,69.0,83.0
416,75.5396971875,75.727197,76.0,84.0
417,75.8806059375,76.09840875,57.0,84.0
418,75.9942421875,76.2215146875,73.0,98.0
419,75.9942421875,76.2480298125,69.0,84.0
420,76.4487871875,76.4999235,69.0,70.0
421,76.4487871875,76.605984,74.0,84.0
422,76.4487871875,76.61355975,71.0,98.0
423,76.2215146875,76.6836354375,57.0,50.0
424,75.0851521875,76.7328778125,45.0,84.0
425,76.6760596875,77.0131805625,69.0,95.0
426,76.6760596875,77.018862375,73.0,84.0
427,76.6760596875,77.0245441875,76.0,86.0
428,76.9033321875,77.38628625,57.0,79.0
429,76.9033321875,77.484771,45.0,84.0
430,78.7215121875,78.8692393125,72.0,84.0
431,78.7215121875,79.0150725,69.0,86.0
432,79.0624209375,79.28022375,64.0,82.0
433,79.1760571875,79.4222690625,72.0,95.0
434,79.1760571875,79.454466,69.0,79.0
435,79.5169659375,79.7215111875,64.0,82.0
436,78.7215121875,79.8692383125,57.0,78.0
437,79.6306021875,79.8730261875,72.0,94.0
438,79.6306021875,79.905223125,69.0,80.0
439,78.7215121875,79.9563594375,45.0,84.0
440,79.9715109375,80.1949955625,64.0,78.0
441,80.0851471875,80.3086318125,72.0,90.0
442,80.0851471875,80.3313590625,69.0,82.0
443,80.4260559375,80.6343890625,64.0,75.0
444,80.5396921875,80.7783283125,72.0,86.0
445,80.5396921875,80.8616615625,69.0,80.0
446,80.8806009375,81.0965098125,64.0,73.0
447,80.9942371875,81.223403625,72.0,86.0
448,80.9942371875,81.2574945,69.0,82.0
449,81.3351459375,81.5548426875,64.0,68.0
450,81.4487821875,81.67416075,72.0,91.0
451,81.4487821875,81.7139334375,69.0,83.0
452,80.5396921875,81.950675625,43.0,82.0
453,80.5396921875,81.9677210625,55.0,75.0
454,81.7896909375,82.0018119375,64.0,73.0
455,81.9033271875,82.12113,72.0,90.0
456,81.9033271875,82.1533269375,69.0,80.0
457,82.2442359375,82.3616600625,64.0,69.0
458,82.3578721875,82.4601448125,66.0,75.0
459,82.3578721875,82.6760536875,69.0,77.0
460,82.3578721875,82.71961425,72.0,91.0
461,82.6987809375,82.8881746875,62.0,78.0
462,82.8124171875,82.9544625,66.0,78.0
463,82.8124171875,83.102189625,69.0,73.0
464,82.8124171875,83.1305986875,72.0,79.0
465,83.1533259375,83.3654469375,62.0,61.0
466,83.2669621875,83.435522625,66.0,75.0
467,83.2669621875,83.5586285625,69.0,76.0
468,83.2669621875,83.575674,72.0,83.0
469,82.3578721875,83.662795125,54.0,83.0
470,82.3578721875,83.7252950625,42.0,86.0
471,83.6078709375,83.81052225,62.0,69.0
472,83.7215071875,83.81052225,66.0,69.0
473,83.7215071875,83.909007,69.0,69.0
474,83.7215071875,84.1987794375,72.0,83.0
475,84.0624159375,84.268855125,62.0,80.0
476,84.5169609375,84.746127375,60.0,83.0
477,84.6305971875,84.8578696875,65.0,83.0
478,84.9715059375,85.2215056875,60.0,73.0
479,85.0851421875,85.3730206875,69.0,84.0
480,85.0851421875,85.3919600625,65.0,84.0
481,84.1760521875,85.5434750625,53.0,78.0
482,84.1760521875,85.59839925,41.0,84.0
483,85.4260509375,85.6343840625,60.0,68.0
484,85.5396871875,85.730974875,65.0,79.0
485,85.5396871875,85.85597475,69.0,80.0
486,85.8805959375,86.003701875,60.0,69.0
487,85.9942321875,86.1760501875,72.0,80.0
488,85.9942321875,86.23476225,69.0,71.0
489,85.9942321875,86.246125875,65.0,79.0
490,86.3351409375,86.5472619375,62.0,46.0
491,86.4487771875,86.64006487500001,65.0,83.0
492,86.7896859375,87.0434735625,67.0,73.0
493,86.9033221875,87.1968825,69.0,80.0
494,85.9942321875,87.2328673125,38.0,80.0
495,85.9942321875,87.3010490625,50.0,79.0
496,87.2442309375,87.5018064375,72.0,86.0
497,87.3578671875,87.56809425,62.0,59.0
498,87.5851396875,87.7101395625,71.0,78.0
499,87.8124121875,88.0321089375,64.0,83.0
500,87.8124121875,88.06809375,72.0,83.0
501,87.8124121875,88.0889270625,57.0,76.0
502,88.0396846875,88.0889270625,57.0,63.0
503,87.8124121875,88.124911875,69.0,83.0
504,88.2669571875,88.4999115,64.0,80.0
505,88.2669571875,88.564305375,71.0,79.0
506,88.4942296875,88.738547625,57.0,57.0
507,88.7215021875,89.0737745625,72.0,86.0
508,88.7215021875,89.14385025,64.0,83.0
509,88.7215021875,89.1457441875,69.0,86.0
510,87.8124121875,89.299153125,45.0,83.0
511,89.1760471875,89.302941,57.0,77.0
512,89.6305921875,89.776425375,50.0,78.0
513,89.6305921875,89.848395,62.0,80.0
514,89.6305921875,89.8635465,72.0,84.0
515,89.6305921875,89.867334375,66.0,74.0
516,89.6305921875,89.9146828125,69.0,78.0
517,89.8578646875,90.3237733125,50.0,75.0
518,90.1987734375,90.363546,62.0,78.0
519,90.3124096875,90.363546,62.0,57.0
520,90.3124096875,90.7063486875,72.0,96.0
521,90.3124096875,90.7139244375,66.0,91.0
522,90.3124096875,90.738545625,69.0,86.0
523,90.7669546875,91.0813483125,50.0,80.0
524,89.6305921875,91.11354525,38.0,84.0
525,90.9942271875,91.121121,69.0,59.0
526,90.9942271875,91.1305906875,72.0,79.0
527,90.9942271875,91.18930275,62.0,84.0
528,91.2214996875,91.4866509375,71.0,79.0
529,91.4487721875,91.605969,64.0,78.0
530,91.4487721875,91.61354475,68.0,72.0
531,91.4487721875,91.6514235,40.0,84.0
532,91.4487721875,91.6514235,52.0,93.0
533,91.9033171875,92.0737715625,64.0,80.0
534,91.9033171875,92.1002866875,40.0,86.0
535,91.9033171875,92.109756375,52.0,84.0
536,91.9033171875,92.124907875,68.0,80.0
537,92.3578621875,92.58324075,64.0,79.0
538,92.3578621875,92.605968,44.0,81.0
539,92.3578621875,92.65899825,69.0,91.0
540,92.8124071875,93.0093766875,64.0,79.0
541,92.8124071875,93.1192250625,71.0,95.0
542,93.2669521875,93.4449823125,64.0,83.0
543,93.2669521875,93.4525580625,67.0,83.0
544,93.2669521875,93.458239875,72.0,80.0
545,93.2669521875,93.776421375,45.0,84.0
546,93.2669521875,93.81051225,57.0,79.0
547,94.0624059375,94.14384525,57.0,57.0
548,94.0624059375,94.15899675,45.0,73.0
549,93.7214971875,94.1665725,72.0,86.0
550,93.7214971875,94.2139209375,69.0,82.0
551,93.7214971875,94.2555875625,64.0,90.0
552,94.1760421875,94.4999055,52.0,91.0
553,94.4033146875,94.5586175625,64.0,83.0
554,94.4033146875,94.5586175625,72.0,86.0
555,94.4033146875,94.5889205625,69.0,84.0
556,94.6305871875,94.723390125,52.0,67.0
557,94.6305871875,94.723390125,57.0,77.0
558,94.8578596875,95.21960175,71.0,82.0
559,94.8578596875,95.26505625,64.0,79.0
560,95.5396771875,95.78020725,62.0,83.0
561,95.7669496875,95.8692223125,67.0,75.0
562,95.3124046875,95.9942221875,55.0,79.0
563,95.9942221875,96.2025553125,62.0,83.0
564,95.9942221875,96.242328,67.0,83.0
565,95.9942221875,96.2745249375,71.0,90.0
566,96.2214946875,96.4696005,55.0,72.0
567,95.0851321875,96.6305851875,43.0,90.0
568,96.4487671875,96.64384275,62.0,84.0
569,96.4487671875,96.723388125,69.0,93.0
570,96.6760396875,96.7707365625,71.0,79.0
571,96.9033121875,97.018842375,54.0,76.0
572,96.9033121875,97.1305846875,69.0,48.0
573,96.9033121875,97.1495240625,68.0,43.0
574,96.9033121875,97.3180845,60.0,78.0
575,97.1305846875,97.405205625,66.0,18.0
576,97.5851296875,97.68929625,60.0,78.0
577,97.3578571875,97.88626575,54.0,76.0
578,97.8124021875,98.041568625,60.0,38.0
579,96.9033121875,98.0472504375,42.0,86.0
580,98.0396746875,98.0472504375,42.0,53.0
581,97.8124021875,98.0851291875,66.0,80.0
582,98.0396746875,98.1570988125,54.0,90.0
583,97.8124021875,98.17414425,69.0,86.0
584,98.2669471875,98.443083375,60.0,84.0
585,98.4942196875,98.59838625,67.0,75.0
586,98.7214921875,98.8427041875,60.0,84.0
587,98.7214921875,98.88626475,69.0,82.0
588,98.7214921875,98.905204125,65.0,82.0
589,99.1760371875,99.3843703125,53.0,75.0
590,99.1760371875,99.4677035625,60.0,83.0
591,99.1760371875,99.488536875,65.0,83.0
592,99.1760371875,99.5207338125,69.0,78.0
593,99.4033096875,99.6533094375,53.0,75.0
594,99.6305821875,99.927930375,60.0,83.0
595,99.6305821875,99.996112125,67.0,82.0
596,100.0851271875,100.17414225,53.0,80.0
597,100.0851271875,100.17414225,60.0,82.0
598,98.7214921875,100.1873998125,41.0,90.0
599,100.0851271875,100.2177028125,69.0,81.0
600,100.5396721875,100.7442174375,50.0,83.0
601,100.5396721875,100.78020225,62.0,63.0
602,100.5396721875,100.7896719375,72.0,86.0
603,100.5396721875,100.9790656875,65.0,84.0
604,101.2214896875,101.2934593125,62.0,75.0
605,100.9942171875,101.556716625,50.0,75.0
606,101.4487621875,101.64383775,72.0,84.0
607,101.4487621875,101.8161860625,62.0,84.0
608,101.4487621875,101.867322375,69.0,86.0
609,101.4487621875,101.88626175,65.0,86.0
610,100.5396721875,101.9544435,38.0,90.0
611,101.9033071875,102.0320949375,50.0,80.0
612,102.3578521875,102.6192155625,64.0,81.0
613,102.3578521875,102.6192155625,72.0,86.0
614,102.3578521875,102.6608821875,69.0,81.0
615,102.5851246875,102.7404275625,57.0,59.0
616,102.8123971875,103.0358818125,64.0,83.0
617,102.8123971875,103.1570938125,71.0,84.0
618,103.0396696875,103.3692148125,57.0,57.0
619,102.3578521875,103.44686625,45.0,86.0
620,103.2669421875,103.609744875,64.0,83.0
621,103.2669421875,103.685502375,69.0,79.0
622,103.2669421875,103.685502375,72.0,91.0
623,103.7214871875,103.818078,45.0,95.0
624,105.9942121875,106.3237573125,64.0,83.0
625,105.9942121875,106.4033026875,72.0,96.0
626,105.9942121875,106.4942116875,57.0,80.0
627,106.44875718750001,106.6211055,64.0,82.0
628,106.44875718750001,106.8237568125,71.0,91.0
629,106.6760296875,106.874893125,57.0,56.0
630,106.9033021875,107.0472414375,64.0,82.0
631,106.9033021875,107.049135375,69.0,81.0
632,107.3578471875,107.3957259375,64.0,45.0
633,105.9942121875,107.5396651875,45.0,82.0
634,107.3578471875,107.6040590625,67.0,86.0
635,107.3578471875,107.6192105625,57.0,60.0
636,107.5851196875,107.6646650625,62.0,83.0
637,107.5851196875,107.6987559375,69.0,84.0
638,108.03966468750001,108.2063311875,45.0,83.0
639,108.03966468750001,108.2214826875,57.0,72.0
640,108.2669371875,108.5604975,60.0,79.0
641,108.2669371875,108.587012625,67.0,86.0
642,108.7214821875,108.9525425625,60.0,78.0
643,108.7214821875,109.0358758125,64.0,84.0
644,108.9487546875,109.14004237500001,57.0,58.0
645,108.4942096875,109.329436125,52.0,80.0
646,109.1760271875,109.3464815625,60.0,81.0
647,109.1760271875,109.4525420625,67.0,84.0
648,109.4032996875,109.454436,64.0,78.0
649,109.4032996875,109.4752693125,60.0,82.0
650,109.4032996875,109.52261775,69.0,79.0
651,109.6305721875,109.6873903125,57.0,47.0
652,109.6305721875,109.730950875,45.0,80.0
653,109.8578446875,109.9601173125,45.0,83.0
654,109.8578446875,109.965799125,57.0,83.0
655,110.0851171875,110.151405,64.0,78.0
656,110.0851171875,110.200647375,60.0,90.0
657,110.0851171875,110.2101170625,67.0,93.0
658,110.3123896875,110.62867725,52.0,82.0
659,110.5396621875,110.799131625,64.0,73.0
660,110.5396621875,110.8010255625,60.0,63.0
661,110.5396621875,110.85216187500001,67.0,82.0
662,110.7669346875,110.8767830625,52.0,79.0
663,110.9942071875,111.151404,60.0,79.0
664,110.9942071875,111.181707,64.0,76.0
665,110.9942071875,111.2366311875,67.0,83.0
666,111.2214796875,111.26504025,64.0,73.0
667,111.2214796875,111.3010250625,60.0,81.0
668,111.2214796875,111.34079775000001,69.0,84.0
669,111.6760246875,111.8237518125,45.0,84.0
670,111.6760246875,111.867312375,57.0,75.0
671,111.9032971875,111.9601153125,64.0,75.0
672,111.9032971875,111.99231225,60.0,82.0
673,111.9032971875,112.011251625,67.0,81.0
674,112.3578421875,112.4298118125,45.0,76.0
675,112.3578421875,112.4335996875,57.0,81.0
676,112.3578421875,112.435493625,60.0,84.0
677,112.3578421875,112.450645125,69.0,84.0
678,113.2669321875,114.29534025,64.0,75.0
679,113.2669321875,114.302916,60.0,57.0
680,113.2669321875,114.359734125,45.0,59.0
681,113.2669321875,114.4222340625,69.0,69.0
682,113.2669321875,114.454431,57.0,54.0
683,115.0851121875,115.7782933125,67.0,59.0
684,115.0851121875,115.814278125,62.0,31.0
685,115.0851121875,116.0472324375,71.0,75.0
686,115.9942021875,116.2972321875,67.0,82.0
687,115.0851121875,116.3161715625,59.0,74.0
688,115.0851121875,116.374883625,52.0,61.0
689,116.9032921875,117.837003375,64.0,69.0
690,116.9032921875,117.84079125,60.0,71.0
691,116.9032921875,117.905185125,69.0,73.0
692,118.2669271875,118.4449573125,64.0,46.0
693,118.2669271875,118.6457146875,72.0,62.0
694,117.8123821875,119.12866875,57.0,32.0
695,118.7214721875,119.12866875,71.0,78.0
696,118.7214721875,119.1570778125,62.0,63.0
697,119.6305621875,120.0775314375,59.0,61.0
698,116.9032921875,120.1002586875,45.0,79.0
699,119.6305621875,120.1229859375,67.0,75.0
700,119.4032896875,120.162758625,57.0,22.0
701,120.5396521875,121.0396516875,53.0,51.0
702,120.5396521875,121.3957119375,69.0,71.0
703,120.5396521875,121.4714694375,60.0,62.0
704,120.5396521875,121.4714694375,65.0,75.0
705,121.6760146875,121.8767720625,60.0,61.0
706,120.5396521875,121.97715075,41.0,63.0
707,121.4487421875,121.9866204375,53.0,54.0
708,121.9032871875,122.3426806875,69.0,79.0
709,122.3578321875,123.003664875,62.0,73.0
710,122.3578321875,123.03775575,67.0,79.0
711,122.3578321875,123.594573375,52.0,72.0
712,122.3578321875,123.6494975625,40.0,70.0
713,123.2669221875,123.73472475,62.0,73.0
714,123.7214671875,123.9866184375,67.0,73.0
715,124.1760121875,124.768814625,64.0,68.0
716,124.1760121875,125.06805675,72.0,80.0
717,125.0851021875,125.200632375,64.0,63.0
718,125.0851021875,125.2328293125,71.0,86.0
719,124.6305571875,125.5547986875,52.0,53.0
720,125.7669196875,125.9601013125,52.0,55.0
721,125.0851021875,126.0510103125,57.0,38.0
722,125.7669196875,126.0756315,62.0,75.0
723,125.7669196875,126.1835859375,67.0,77.0
724,126.4487371875,126.935479125,57.0,59.0
725,126.9032821875,126.99419118750001,59.0,61.0
726,126.9032821875,127.24987275,60.0,80.0
727,126.9032821875,127.3161605625,64.0,77.0
728,124.1760121875,127.41653925,45.0,77.0
729,126.2214646875,127.564266375,52.0,70.0
730,127.3578271875,127.58320575,59.0,63.0
731,127.3578271875,127.670326875,62.0,80.0
732,127.8123721875,128.026387125,53.0,63.0
733,127.8123721875,128.2404020625,69.0,69.0
734,127.8123721875,128.2896444375,65.0,75.0
735,127.8123721875,128.390023125,60.0,68.0
736,127.8123721875,128.579416875,41.0,75.0
737,128.4941896875,128.6760076875,53.0,32.0
738,128.7214621875,128.8237348125,65.0,41.0
739,128.7214621875,128.8275226875,53.0,23.0
740,128.7214621875,128.8691893125,41.0,68.0
741,128.7214621875,128.9184316875,60.0,59.0
742,128.9487346875,129.06805275,53.0,61.0
743,128.9487346875,129.1154011875,41.0,68.0
744,128.9487346875,129.1835829375,65.0,63.0
745,129.1760071875,129.2820676875,53.0,62.0
746,129.1760071875,129.3085828125,60.0,58.0
747,129.1760071875,129.314264625,41.0,70.0
748,129.1760071875,129.374870625,69.0,68.0
749,129.6305521875,129.776385375,41.0,73.0
750,129.6305521875,129.783961125,53.0,61.0
751,129.6305521875,129.787749,62.0,72.0
752,129.6305521875,129.8199459375,67.0,76.0
753,129.8578246875,129.9866124375,53.0,53.0
754,129.8578246875,130.0093396875,41.0,72.0
755,129.8578246875,130.08320325,65.0,77.0
756,130.0850971875,130.1684304375,53.0,48.0
757,130.0850971875,130.2271425,41.0,75.0
758,130.0850971875,130.2593394375,62.0,68.0
759,130.5396421875,130.6684299375,52.0,74.0
760,130.5396421875,130.867293375,67.0,76.0
761,130.5396421875,130.8938085,62.0,75.0
762,130.9941871875,131.2403990625,62.0,75.0
763,130.7669146875,131.2744899375,52.0,71.0
764,130.5396421875,131.3957019375,40.0,78.0
765,131.4487321875,132.0017619375,50.0,57.0
766,131.4487321875,132.140019375,65.0,80.0
767,131.4487321875,132.185473875,60.0,72.0
768,131.4487321875,132.18926175000001,69.0,69.0
769,131.4487321875,132.2479738125,72.0,59.0
770,132.3578221875,132.52259475,50.0,37.0
771,132.3578221875,132.768806625,60.0,73.0
772,131.4487321875,132.783958125,38.0,73.0
773,132.3578221875,132.7972156875,65.0,83.0
774,132.8123671875,132.9297913125,50.0,54.0
775,132.3578221875,132.9544125,69.0,73.0
776,133.2669121875,133.7366086875,48.0,55.0
777,133.2669121875,133.943047875,64.0,68.0
778,133.2669121875,133.9525175625,67.0,72.0
779,133.2669121875,133.96198725,62.0,68.0
780,133.2669121875,133.9714569375,71.0,74.0
781,133.9487296875,134.15895675,48.0,52.0
782,133.2669121875,134.20441125,36.0,79.0
783,134.1760021875,134.4449413125,69.0,62.0
784,134.1760021875,134.4941836875,71.0,78.0
785,134.1760021875,134.4998655,62.0,80.0
786,134.1760021875,134.5206988125,64.0,78.0
787,134.1760021875,134.541532125,67.0,80.0
788,134.4032746875,134.6570623125,36.0,84.0
789,134.6305471875,134.8540318125,69.0,72.0
790,134.6305471875,134.890016625,62.0,82.0
791,134.6305471875,134.8956984375,64.0,79.0
792,134.6305471875,134.908956,67.0,70.0
793,134.6305471875,134.9411529375,71.0,80.0
794,135.0850921875,135.6040310625,53.0,63.0
795,135.0850921875,135.8199399375,60.0,80.0
796,135.0850921875,135.8691823125,57.0,58.0
797,135.0850921875,136.05289425,65.0,75.0
798,135.7669096875,136.2574395,53.0,57.0
799,135.9941821875,136.3388788125,57.0,63.0
800,136.2214546875,136.4222120625,60.0,77.0
801,135.0850921875,136.465772625,41.0,55.0
802,136.4487271875,136.6002421875,65.0,81.0
803,136.9032721875,137.3843323125,52.0,50.0
804,136.9032721875,137.6646350625,62.0,78.0
805,136.9032721875,137.666529,59.0,57.0
806,136.9032721875,137.6684229375,67.0,60.0
807,136.9032721875,138.1381194375,40.0,69.0
808,137.8123621875,138.261225375,59.0,77.0
809,137.8123621875,138.283952625,52.0,58.0
810,138.2669071875,138.31046775,62.0,76.0
811,138.2669071875,138.34077075,67.0,62.0
812,138.7214521875,138.999861,69.0,82.0
813,138.7214521875,139.02258825,62.0,82.0
814,138.7214521875,139.0737245625,64.0,80.0
815,139.1759971875,139.5206938125,62.0,83.0
816,138.7214521875,139.693042125,57.0,52.0
817,139.6305421875,139.950617625,64.0,99.0
818,138.7214521875,139.99986,45.0,79.0
819,139.8578146875,140.0964508125,57.0,54.0
820,140.0850871875,140.208193125,64.0,61.0
821,140.0850871875,140.211981,69.0,79.0
822,140.3123596875,140.564253375,57.0,80.0
823,140.3123596875,140.7631168125,61.0,82.0
824,140.3123596875,140.768798625,69.0,75.0
825,140.3123596875,140.8123591875,64.0,81.0
826,140.99417718750001,141.299101125,61.0,106.0
827,140.7669046875,141.4941766875,57.0,78.0
828,141.2214496875,141.541525125,64.0,90.0
829,140.3123596875,142.09834275,45.0,84.0
830,141.6759946875,142.193039625,57.0,32.0
831,141.9032671875,142.2403880625,69.0,84.0
832,142.1305396875,142.3199334375,74.0,71.0
833,142.3578121875,142.6419028125,69.0,78.0
834,142.3578121875,142.7138724375,73.0,75.0
835,142.3578121875,142.9032661875,45.0,80.0
836,142.8123571875,142.927887375,69.0,78.0
837,142.8123571875,142.9600843125,57.0,68.0
838,142.8123571875,142.965766125,74.0,84.0
839,143.2669021875,143.38622025,69.0,82.0
840,143.2669021875,143.4108414375,57.0,72.0
841,143.2669021875,143.41652325,45.0,82.0
842,143.2669021875,143.4184171875,76.0,82.0
843,143.7214471875,143.844553125,69.0,77.0
844,143.7214471875,143.8634925,57.0,62.0
845,143.7214471875,143.882431875,74.0,80.0
846,143.7214471875,143.88621975,45.0,80.0
847,144.17599218750001,144.261219375,69.0,82.0
848,144.17599218750001,144.2631133125,73.0,86.0
849,144.17599218750001,144.28015875,57.0,84.0
850,144.17599218750001,144.29531025,45.0,83.0
851,144.4032646875,144.4979615625,57.0,93.0
852,144.4032646875,144.4979615625,69.0,82.0
853,144.4032646875,144.4979615625,73.0,84.0
854,144.4032646875,144.5093251875,45.0,90.0
855,145.0850821875,145.177885125,65.0,83.0
856,145.0850821875,145.200612375,60.0,86.0
857,145.0850821875,145.2100820625,41.0,82.0
858,145.0850821875,145.2214456875,53.0,75.0
859,145.0850821875,145.2252335625,69.0,84.0
860,145.5396271875,145.662733125,67.0,84.0
861,145.5396271875,145.67409675,62.0,84.0
862,145.5396271875,145.677884625,71.0,90.0
863,145.5396271875,145.700611875,43.0,84.0
864,145.5396271875,145.7328088125,55.0,60.0
865,145.9941721875,146.46197475,57.0,77.0
866,145.9941721875,146.65894425,69.0,84.0
867,145.9941721875,146.6797775625,72.0,86.0
868,145.9941721875,146.6987169375,64.0,84.0
869,145.9941721875,147.1115953125,45.0,83.0
870,146.9032621875,147.1646255625,57.0,71.0
871,146.9032621875,147.2271255,64.0,84.0
872,146.9032621875,147.276367875,72.0,91.0
873,146.9032621875,147.3237163125,69.0,84.0
874,147.3578071875,147.4449283125,72.0,44.0
875,147.3578071875,147.4752313125,57.0,59.0
876,147.3578071875,147.49227675,64.0,78.0
877,147.3578071875,147.53773125,45.0,72.0
878,147.5850796875,147.7858370625,55.0,82.0
879,147.5850796875,147.973336875,71.0,83.0
880,147.5850796875,148.0396246875,67.0,84.0
881,147.5850796875,148.041518625,62.0,76.0
882,148.2668971875,148.56803325,62.0,76.0
883,148.4941696875,148.662730125,67.0,84.0
884,148.0396246875,148.8464420625,55.0,76.0
885,148.7214421875,149.1797750625,71.0,91.0
886,148.7214421875,149.200608375,62.0,84.0
887,147.5850796875,149.2290174375,43.0,84.0
888,149.1759871875,149.272578,55.0,81.0
889,149.6305321875,149.9032591875,54.0,82.0
890,149.6305321875,149.9979560625,60.0,82.0
891,149.6305321875,150.04530450000001,66.0,86.0
892,149.6305321875,150.0850771875,69.0,79.0
893,150.3123496875,150.3881071875,60.0,62.0
894,150.0850771875,150.6229554375,54.0,69.0
895,149.6305321875,150.696819,42.0,91.0
896,150.5396221875,150.8615915625,66.0,82.0
897,150.5396221875,150.8843188125,69.0,86.0
898,150.5396221875,150.90136425,60.0,86.0
899,150.7668946875,150.9032581875,54.0,75.0
900,150.7668946875,151.0150005,42.0,83.0
901,150.9941671875,151.117273125,69.0,71.0
902,150.9941671875,151.1418943125,60.0,80.0
903,151.2214396875,151.473333375,53.0,75.0
904,151.2214396875,151.617272625,69.0,81.0
905,151.2214396875,151.685454375,65.0,84.0
906,151.2214396875,151.6949240625,60.0,82.0
907,151.9032571875,152.185453875,60.0,77.0
908,151.6759846875,152.450605125,53.0,76.0
909,151.2214396875,152.4752263125,41.0,86.0
910,152.3578021875,152.848332,69.0,83.0
911,152.3578021875,152.8691653125,65.0,84.0
912,152.8123471875,152.9032561875,53.0,79.0
913,152.8123471875,152.9259834375,41.0,91.0
914,152.3578021875,152.9259834375,60.0,81.0
915,153.0396196875,153.1002256875,52.0,78.0
916,153.0396196875,153.12863475,40.0,84.0
917,153.2668921875,153.6040130625,50.0,77.0
918,153.2668921875,153.685452375,72.0,82.0
919,153.2668921875,153.723331125,65.0,84.0
920,153.2668921875,153.7971946875,69.0,78.0
921,153.2668921875,153.9070430625,62.0,83.0
922,153.7214371875,154.2517396875,50.0,73.0
923,154.1759821875,154.6267393125,72.0,86.0
924,154.1759821875,154.636209,69.0,81.0
925,154.1759821875,154.6513605,65.0,84.0
926,154.1759821875,154.6532544375,62.0,84.0
927,153.2668921875,154.7100725625,38.0,86.0
928,154.6305271875,154.757421,50.0,80.0
929,155.0850721875,155.2706780625,52.0,82.0
930,155.0850721875,155.4032536875,62.0,83.0
931,155.0850721875,155.420299125,71.0,84.0
932,155.0850721875,155.4297688125,67.0,82.0
933,155.5396171875,155.6987079375,62.0,72.0
934,155.7668896875,155.920298625,67.0,78.0
935,155.0850721875,156.1115863125,40.0,90.0
936,155.5396171875,156.15893475000001,52.0,72.0
937,155.9941621875,156.4146163125,69.0,79.0
938,155.9941621875,156.4449193125,64.0,84.0
939,155.9941621875,156.4752223125,72.0,90.0
940,156.4487071875,156.5737070625,52.0,76.0
941,156.4487071875,156.5774949375,40.0,59.0
942,156.9032521875,157.0585550625,50.0,82.0
943,156.9032521875,157.3199184375,66.0,79.0
944,156.9032521875,157.333176,69.0,49.0
945,156.9032521875,157.3691608125,62.0,81.0
946,157.5850696875,157.93166025,62.0,80.0
947,157.3577971875,158.09832675,50.0,73.0
948,158.0396146875,158.1873418125,62.0,86.0
949,158.0396146875,158.283932625,66.0,98.0
950,156.9032521875,158.2971901875,38.0,90.0
951,158.0396146875,158.3180235,69.0,90.0
952,158.2668871875,158.397568875,50.0,68.0
953,158.4941596875,158.6002201875,62.0,62.0
954,158.7214321875,158.965750125,52.0,81.0
955,158.7214321875,159.0623409375,71.0,90.0
956,159.1759771875,159.4487041875,64.0,86.0
957,159.1759771875,159.4827950625,52.0,80.0
958,158.7214321875,159.4979465625,40.0,84.0
959,159.1759771875,159.5244616875,69.0,83.0
960,159.6305221875,159.7365826875,52.0,79.0
961,159.6305221875,159.85590075,40.0,84.0
962,159.6305221875,159.8691583125,64.0,82.0
963,159.6305221875,159.9297643125,68.0,82.0
964,160.0850671875,160.151355,40.0,78.0
965,160.0850671875,160.17408225,64.0,79.0
966,160.0850671875,160.185445875,69.0,82.0
967,160.0850671875,160.2024913125,52.0,98.0
968,160.5396121875,160.799081625,67.0,74.0
969,160.5396121875,160.82559675,72.0,86.0
970,160.5396121875,160.8274906875,64.0,80.0
971,160.5396121875,161.1002176875,57.0,83.0
972,160.5396121875,161.1153691875,45.0,86.0
973,160.9941571875,161.3123386875,69.0,68.0
974,161.2214296875,161.3350659375,45.0,73.0
975,161.2214296875,161.412717375,57.0,62.0
976,160.9941571875,161.4676415625,72.0,86.0
977,160.9941571875,161.496050625,64.0,83.0
978,161.4487021875,161.746050375,52.0,86.0
979,161.6759746875,161.87105025,64.0,83.0
980,161.6759746875,161.8880956875,69.0,83.0
981,161.6759746875,161.9449138125,72.0,90.0
982,161.9032471875,162.0168834375,52.0,82.0
983,162.1305196875,162.1759741875,64.0,72.0
984,162.1305196875,162.3274891875,55.0,81.0
985,162.1305196875,162.5282465625,71.0,84.0
986,162.1305196875,162.5661253125,67.0,78.0
987,162.1305196875,162.6267313125,62.0,76.0
988,163.0396096875,163.14377625,67.0,79.0
989,162.8123371875,163.18923075,62.0,82.0
990,162.5850646875,163.3312760625,55.0,77.0
991,163.2668821875,163.6040030625,62.0,90.0
992,163.2668821875,163.6343060625,71.0,96.0
993,162.1305196875,163.814230125,43.0,90.0
994,163.7214271875,163.852108875,62.0,86.0
995,163.7214271875,163.85589675,67.0,84.0
996,163.7214271875,163.859684625,55.0,73.0
997,164.1759721875,164.37104775,53.0,82.0
998,164.1759721875,164.5774869375,69.0,80.0
999,164.1759721875,164.605896,60.0,83.0
1000,164.1759721875,164.662714125,65.0,77.0
1001,164.8577896875,164.958168375,60.0,57.0
1002,164.6305171875,165.155137875,53.0,76.0
1003,164.1759721875,165.21953175,41.0,83.0
1004,165.0850621875,165.363471,65.0,86.0
1005,165.0850621875,165.374834625,69.0,83.0
1006,165.0850621875,165.3805164375,60.0,86.0
1007,165.3123346875,165.465743625,53.0,78.0
1008,165.3123346875,165.5168799375,41.0,79.0
1009,165.5396071875,165.6570313125,60.0,77.0
1010,165.7668796875,165.99225825,52.0,75.0
1011,165.7668796875,166.23468225,71.0,86.0
1012,165.7668796875,166.268773125,62.0,84.0
1013,166.2214246875,166.36347,52.0,90.0
1014,165.7668796875,166.4032426875,40.0,84.0
1015,166.4486971875,166.791499875,62.0,91.0
1016,166.67596968750001,167.06801475,40.0,83.0
1017,167.3577871875,167.4221810625,40.0,83.0
1018,167.3577871875,167.4335446875,52.0,51.0
1019,166.9032421875,167.5055143125,71.0,86.0
1020,166.9032421875,167.5585445625,67.0,84.0
1021,166.9032421875,167.6039990625,62.0,84.0
1022,167.5850596875,167.6418778125,51.0,52.0
1023,167.5850596875,167.7119535,39.0,98.0
1024,167.8123321875,167.939226,66.0,83.0
1025,167.8123321875,167.9979380625,50.0,83.0
1026,167.8123321875,168.0282410625,60.0,63.0
1027,167.8123321875,168.2971801875,69.0,82.0
1028,168.4941496875,168.5547556875,60.0,42.0
1029,168.2668771875,168.7706645625,50.0,84.0
1030,168.7214221875,169.1380884375,69.0,83.0
1031,168.7214221875,169.14377025,65.0,83.0
1032,168.7214221875,169.1456641875,60.0,82.0
1033,167.8123321875,169.2214216875,38.0,86.0
1034,169.1759671875,169.3312700625,50.0,72.0
1035,169.6305121875,169.8577846875,69.0,69.0
1036,169.6305121875,169.91649675,64.0,90.0
1037,169.6305121875,169.9449058125,72.0,91.0
1038,169.8577846875,170.0282390625,57.0,41.0
1039,170.0850571875,170.3388448125,64.0,80.0
1040,170.0850571875,170.4676325625,71.0,90.0
1041,170.3123296875,170.693011125,57.0,42.0
1042,169.6305121875,170.7327838125,45.0,86.0
1043,170.5396021875,170.9411169375,64.0,83.0
1044,170.5396021875,171.0244501875,72.0,91.0
1045,170.9941471875,171.1361925,45.0,83.0
1046,171.4486921875,171.8388433125,62.0,80.0
1047,171.4486921875,171.9600553125,69.0,82.0
1048,171.4486921875,172.0509643125,38.0,83.0
1049,171.9032371875,172.0926309375,50.0,76.0
1050,172.3577821875,172.541494125,52.0,83.0
1051,172.3577821875,172.84073625,67.0,84.0
1052,172.3577821875,172.8994483125,40.0,86.0
1053,172.3577821875,172.943008875,62.0,79.0
1054,172.8123271875,172.9941451875,52.0,84.0
1055,173.0395996875,173.1229329375,67.0,38.0
1056,173.2668721875,174.363462,57.0,70.0
1057,173.2706600625,174.405128625,60.0,81.0
1058,173.2630843125,174.454371,64.0,79.0
1059,173.272554,175.2706580625,54.0,71.0
1060,174.85588575,175.696794,64.0,61.0
1061,174.8350524375,176.0774754375,72.0,76.0
1062,175.9789906875,176.3464145625,69.0,82.0
1063,175.836945375,176.3786115,54.0,20.0
1064,173.2592964375,176.3805054375,42.0,84.0
1065,175.9903543125,176.389975125,64.0,73.0
1066,176.9335351875,177.5055043125,53.0,57.0
1067,176.9240655,177.844519125,60.0,69.0
1068,176.935429125,177.8502009375,65.0,84.0
1069,176.9108079375,177.87861,69.0,71.0
1070,178.1153521875,178.2820186875,60.0,51.0
1071,178.3880791875,178.5812608125,65.0,11.0
1072,178.5774729375,178.6532304375,72.0,79.0
1073,179.1797450625,179.3426236875,76.0,68.0
1074,179.5130780625,179.5907295,72.0,78.0
1075,177.818004,179.7100475625,53.0,38.0
1076,179.8615625625,180.17406225,53.0,34.0
1077,180.0812593125,180.18921375,69.0,76.0
1078,176.908914,180.272547,41.0,73.0
1079,180.5395921875,180.9448948125,57.0,57.0
1080,180.5395921875,181.18921275,60.0,76.0
1081,180.5395921875,181.21951575,64.0,78.0
1082,180.5395921875,181.2782278125,69.0,78.0
1083,181.4486821875,182.0017119375,64.0,68.0
1084,181.4486821875,182.086939125,60.0,63.0
1085,181.4486821875,182.1911056875,69.0,63.0
1086,181.2214096875,182.605878,57.0,32.0
1087,182.3577721875,183.0092866875,60.0,41.0
1088,182.3577721875,183.1911046875,67.0,53.0
1089,183.0395896875,183.3918620625,57.0,36.0
1090,180.5395921875,183.564210375,45.0,79.0
1091,183.2668621875,183.7251950625,64.0,76.0
1092,183.2668621875,183.768755625,60.0,73.0
1093,183.2668621875,183.79337681250001,69.0,76.0
1094,183.7214071875,183.8312555625,45.0,67.0
1095,184.2214066875,184.3179975,60.0,59.0
1096,184.21951275,184.32557325,64.0,71.0
1097,184.2062551875,184.3577701875,69.0,71.0
1098,184.18920975,184.7971636875,57.0,53.0
1099,184.6608001875,185.1835269375,60.0,71.0
1100,184.655118375,185.20436025,64.0,72.0
1101,184.6513305,185.223299625,69.0,72.0
1102,185.412693375,185.727087,60.0,53.0
1103,185.5547386875,185.836935375,67.0,70.0
1104,185.1361785,186.12860175,57.0,40.0
1105,185.8464050625,186.3047379375,60.0,37.0
1106,185.8350414375,186.352086375,64.0,61.0
1107,185.8464050625,186.382389375,69.0,74.0
1108,186.4373135625,186.586934625,60.0,47.0
1109,186.2820106875,186.72897993750001,57.0,38.0
1110,184.1645885625,186.73466175,45.0,78.0
1111,186.908904,187.0168584375,55.0,55.0
1112,186.905116125,187.32557025,67.0,71.0
1113,186.90132825,187.3426156875,64.0,71.0
1114,186.897540375,187.427842875,60.0,72.0
1115,186.905116125,187.4335246875,43.0,77.0
1116,187.35587325,187.4524640625,55.0,63.0
1117,187.8047364375,188.2100390625,54.0,79.0
1118,187.8123121875,188.37102375,64.0,59.0
1119,187.8085243125,188.3729176875,60.0,78.0
1120,187.81041825,188.4297358125,57.0,61.0
1121,188.5168569375,188.97708375,54.0,44.0
1122,188.7062506875,189.2403410625,60.0,79.0
1123,188.7024628125,189.3426136875,57.0,62.0
1124,188.700568875,189.389962125,64.0,76.0
1125,189.2214016875,189.91647675,54.0,25.0
1126,189.66458306250001,190.2630673125,57.0,69.0
1127,189.670264875,190.299052125,60.0,82.0
1128,189.6570073125,190.321779375,64.0,75.0
1129,187.8028425,190.677839625,42.0,90.0
1130,190.5604155,191.0736725625,60.0,83.0
1131,190.556627625,191.1361725,57.0,76.0
1132,190.32556725,191.1986724375,54.0,53.0
1133,191.018748375,191.2403390625,42.0,94.0
1134,190.5509458125,191.4088995,64.0,81.0
1135,191.4713994375,191.920262625,53.0,77.0
1136,191.4751873125,192.10965637500001,65.0,82.0
1137,191.47708125,192.1967775,60.0,83.0
1138,191.47708125,192.2100350625,57.0,73.0
1139,192.1494290625,192.5698831875,53.0,34.0
1140,192.3785955,193.0452615,65.0,83.0
1141,192.3785955,193.0736705625,60.0,82.0
1142,192.3729136875,193.079352375,57.0,80.0
1143,192.8388223125,193.533897375,53.0,57.0
1144,193.261170375,194.018745375,65.0,81.0
1145,193.2668521875,194.0357908125,60.0,84.0
1146,193.261170375,194.049048375,57.0,75.0
1147,194.0130635625,194.420260125,53.0,71.0
1148,194.1986694375,194.7479113125,65.0,83.0
1149,194.192987625,194.753593125,60.0,84.0
1150,194.192987625,194.7971536875,57.0,79.0
1151,191.465717625,194.844502125,41.0,80.0
1152,194.655108375,194.844502125,53.0,72.0
1153,195.0963958125,195.2668501875,60.0,79.0
1154,195.0926079375,195.29147137500001,69.0,78.0
1155,195.0926079375,195.3009410625,64.0,76.0
1156,195.5395771875,195.6153346875,64.0,76.0
1157,195.5395771875,195.6210165,60.0,75.0
1158,195.0850321875,195.6418498125,57.0,73.0
1159,195.5395771875,195.6418498125,69.0,76.0
1160,195.7668496875,196.06041,57.0,16.0
1161,195.9941221875,196.064197875,64.0,84.0
1162,195.9941221875,196.06798575,60.0,82.0
1163,195.9941221875,196.0926069375,69.0,81.0
1164,196.4486671875,196.5168489375,64.0,78.0
1165,196.4486671875,196.5282125625,60.0,79.0
1166,196.4486671875,196.575561,69.0,82.0
1167,196.9032121875,196.9846515,64.0,79.0
1168,196.9032121875,196.9865454375,60.0,79.0
1169,196.9032121875,197.0509393125,69.0,75.0
1170,196.2213946875,197.4183631875,57.0,33.0
1171,197.3577571875,197.435408625,64.0,76.0
1172,197.3577571875,197.4391965,60.0,83.0
1173,197.3577571875,197.5907115,69.0,79.0
1174,197.5850296875,197.829347625,57.0,33.0
1175,197.8123021875,197.9524535625,60.0,83.0
1176,197.8123021875,198.0471504375,64.0,82.0
1177,197.8123021875,198.0963928125,69.0,82.0
1178,195.0850321875,198.1058625,45.0,63.0
1179,198.0395746875,198.12858975,57.0,59.0
1180,198.2668471875,198.397528875,55.0,67.0
1181,198.2668471875,198.5282105625,43.0,84.0
1182,198.2668471875,198.5395741875,60.0,76.0
1183,198.2668471875,198.632377125,67.0,77.0
1184,198.7213921875,198.8766950625,60.0,71.0
1185,198.7213921875,198.8804829375,64.0,73.0
1186,198.7213921875,198.9069980625,69.0,78.0
1187,199.1759371875,199.253588625,60.0,82.0
1188,199.1759371875,199.2630583125,64.0,79.0
1189,198.7213921875,199.2782098125,57.0,70.0
1190,199.1759371875,199.3123006875,69.0,79.0
1191,199.4032096875,199.662679125,57.0,44.0
1192,199.6304821875,199.715709375,64.0,81.0
1193,199.6304821875,199.7422245,60.0,82.0
1194,199.6304821875,199.942981875,69.0,82.0
1195,199.8577546875,199.9448758125,57.0,54.0
1196,198.7213921875,200.03767875,45.0,78.0
1197,200.0850271875,200.1835119375,43.0,82.0
1198,200.0850271875,200.200557375,55.0,59.0
1199,200.0850271875,200.20434525,59.0,75.0
1200,200.0850271875,200.20434525,64.0,60.0
1201,200.0850271875,200.3615420625,67.0,72.0
1202,200.3122996875,200.533890375,60.0,78.0
1203,200.3122996875,200.5660873125,64.0,73.0
1204,200.3122996875,200.5698751875,69.0,79.0
1205,200.3122996875,200.727072,57.0,75.0
1206,200.3122996875,200.7422235,45.0,78.0
1207,200.7668446875,200.912677875,64.0,76.0
1208,200.7668446875,200.9240415,60.0,82.0
1209,200.7668446875,201.0774504375,67.0,83.0
1210,201.2213896875,201.458131875,55.0,62.0
1211,201.2213896875,201.4676015625,43.0,81.0
1212,201.4486621875,201.7176013125,60.0,82.0
1213,201.4486621875,201.7422225,64.0,80.0
1214,201.4486621875,201.8842678125,67.0,84.0
1215,201.9032071875,201.939192,59.0,48.0
1216,201.9032071875,201.942979875,64.0,59.0
1217,201.9032071875,201.9638131875,47.0,78.0
1218,201.9032071875,201.980858625,45.0,70.0
1219,201.9032071875,201.9941161875,60.0,82.0
1220,201.9032071875,202.0206313125,69.0,83.0
1221,202.3577521875,202.44676725,60.0,80.0
1222,202.3577521875,202.5016914375,57.0,78.0
1223,202.3577521875,202.5054793125,64.0,83.0
1224,202.3577521875,202.533888375,54.0,78.0
1225,202.5850246875,202.73464575,54.0,61.0
1226,202.8122971875,202.8937365,60.0,83.0
1227,202.8122971875,202.939191,57.0,79.0
1228,202.8122971875,203.109645375,67.0,81.0
1229,203.2668421875,203.3312360625,60.0,83.0
1230,203.2668421875,203.3501754375,57.0,78.0
1231,203.0395696875,203.363433,54.0,30.0
1232,203.2668421875,203.397523875,64.0,83.0
1233,203.4941146875,203.67403875,54.0,56.0
1234,203.7213871875,203.757372,64.0,57.0
1235,203.7213871875,203.814190125,57.0,74.0
1236,203.7213871875,203.8312355625,67.0,68.0
1237,203.7213871875,203.8880536875,60.0,83.0
1238,203.9486596875,204.0433565625,60.0,61.0
1239,203.9486596875,204.1058565,69.0,81.0
1240,204.4032046875,204.5471439375,54.0,57.0
1241,204.6304771875,204.768734625,67.0,77.0
1242,204.6304771875,204.78009825,57.0,68.0
1243,204.6304771875,204.8331285,60.0,78.0
1244,204.8577496875,205.00737075,54.0,52.0
1245,204.8577496875,205.0509313125,69.0,83.0
1246,204.8577496875,205.1191130625,60.0,53.0
1247,205.0850221875,205.367218875,54.0,55.0
1248,205.5395671875,205.6191125625,54.0,47.0
1249,205.5395671875,205.6266883125,60.0,80.0
1250,205.5395671875,205.647521625,57.0,77.0
1251,205.5395671875,205.6910821875,64.0,81.0
1252,202.3577521875,205.7479003125,42.0,90.0
1253,205.9941121875,206.11343025,60.0,76.0
1254,205.9941121875,206.117218125,64.0,71.0
1255,205.9941121875,206.1361575,69.0,79.0
1256,205.9941121875,206.549035875,53.0,70.0
1257,206.4486571875,206.5888085625,64.0,73.0
1258,206.4486571875,206.6266873125,60.0,73.0
1259,206.4486571875,206.692975125,69.0,79.0
1260,206.6759296875,206.9675960625,53.0,54.0
1261,206.9032021875,207.2213836875,60.0,76.0
1262,206.9032021875,207.2213836875,69.0,79.0
1263,206.9032021875,207.253580625,65.0,83.0
1264,207.3577471875,207.4941106875,60.0,68.0
1265,207.3577471875,207.5736560625,65.0,70.0
1266,207.1304746875,207.6494135625,53.0,54.0
1267,207.5850196875,207.950549625,60.0,82.0
1268,207.5850196875,207.988428375,64.0,76.0
1269,207.5850196875,208.056610125,67.0,82.0
1270,208.0395646875,208.272519,53.0,69.0
1271,208.2668371875,208.420246125,60.0,79.0
1272,208.2668371875,208.5130490625,64.0,80.0
1273,208.2668371875,208.586912625,67.0,79.0
1274,208.4941096875,208.6569883125,53.0,58.0
1275,208.4941096875,208.7819881875,60.0,82.0
1276,208.4941096875,208.78767,65.0,77.0
1277,208.4941096875,208.829336625,69.0,84.0
1278,208.9486546875,209.14373025,53.0,78.0
1279,205.9941121875,209.192972625,41.0,78.0
1280,209.1759271875,209.405093625,60.0,83.0
1281,209.1759271875,209.5357753125,67.0,84.0
1282,209.4031996875,209.8350174375,64.0,72.0
1283,209.6304721875,209.85585075,60.0,83.0
1284,209.6304721875,209.91645675,69.0,15.0
1285,209.6304721875,210.1266838125,57.0,74.0
1286,210.0850171875,210.2857745625,60.0,80.0
1287,210.0850171875,210.306607875,64.0,82.0
1288,210.0850171875,210.382365375,69.0,81.0
1289,210.3122896875,210.5433500625,57.0,37.0
1290,210.5395621875,210.81039525,60.0,83.0
1291,210.5395621875,210.852061875,67.0,79.0
1292,210.7668346875,210.94675875,57.0,69.0
1293,210.9941071875,211.15887975,60.0,79.0
1294,210.9941071875,211.2365311875,64.0,75.0
1295,211.2213796875,211.2365311875,64.0,51.0
1296,210.9941071875,211.2895614375,67.0,79.0
1297,211.2213796875,211.3539553125,57.0,57.0
1298,211.2213796875,211.3615310625,60.0,80.0
1299,211.2213796875,211.405091625,69.0,83.0
1300,211.4486521875,211.605849,57.0,57.0
1301,209.6304721875,211.71948525,45.0,80.0
1302,211.67592468750001,212.060394,60.0,79.0
1303,211.67592468750001,212.102060625,64.0,80.0
1304,211.67592468750001,212.1191060625,67.0,78.0
1305,212.1304696875,212.4031966875,57.0,74.0
1306,212.1304696875,212.435393625,45.0,82.0
1307,212.3577421875,212.6683479375,60.0,80.0
1308,212.3577421875,212.692969125,64.0,77.0
1309,212.5850146875,212.73463575,57.0,72.0
1310,212.3577421875,212.7441054375,67.0,83.0
1311,212.5850146875,212.7857720625,45.0,82.0
1312,212.8122871875,212.848272,64.0,59.0
1313,212.8122871875,213.033877875,60.0,83.0
1314,212.8122871875,213.1153171875,67.0,82.0
1315,213.0395596875,213.2175898125,64.0,77.0
1316,213.2668321875,213.5736500625,64.0,82.0
1317,213.2668321875,213.579331875,68.0,79.0
1318,213.2668321875,213.5906955,71.0,86.0
1319,213.2668321875,213.605847,52.0,58.0
1320,213.2668321875,213.6153166875,40.0,80.0
1321,213.7213771875,214.0433465625,64.0,80.0
1322,213.7213771875,214.05281625,71.0,82.0
1323,213.7213771875,214.0584980625,68.0,68.0
1324,213.7213771875,214.0698616875,52.0,78.0
1325,213.7213771875,214.08311925,40.0,84.0
1326,214.1759221875,214.50736125,71.0,94.0
1327,214.1759221875,214.518724875,64.0,81.0
1328,214.1759221875,214.5244066875,40.0,90.0
1329,214.1759221875,214.5244066875,52.0,81.0
1330,214.1759221875,214.5244066875,68.0,71.0
1331,214.6304671875,214.9751638125,71.0,83.0
1332,214.6304671875,214.9827395625,64.0,80.0
1333,214.6304671875,215.0016789375,52.0,82.0
1334,214.6304671875,215.0092546875,40.0,86.0
1335,214.6304671875,215.0130425625,68.0,78.0
1336,215.0850121875,215.420239125,64.0,79.0
1337,215.0850121875,215.420239125,71.0,82.0
1338,215.0850121875,215.4297088125,68.0,73.0
1339,215.0850121875,215.4334966875,52.0,77.0
1340,215.0850121875,215.4637996875,40.0,84.0
1341,215.5395571875,215.8615265625,71.0,79.0
1342,215.5395571875,215.8691023125,64.0,76.0
1343,215.5395571875,215.8691023125,68.0,75.0
1344,215.5395571875,215.8842538125,52.0,76.0
1345,215.5395571875,215.8937235,40.0,83.0
1346,215.9941021875,216.302814,71.0,83.0
1347,215.9941021875,216.31038975,52.0,84.0
1348,215.9941021875,216.31038975,64.0,79.0
1349,215.9941021875,216.32175337500001,68.0,75.0
1350,215.9941021875,216.3274351875,40.0,83.0
1351,216.4486471875,216.564177375,68.0,77.0
1352,216.4486471875,216.56796525000001,64.0,79.0
1353,216.4486471875,216.56796525000001,71.0,83.0
1354,216.4486471875,216.715692375,40.0,84.0
1355,216.4486471875,216.71948025,52.0,86.0
1356,216.9031921875,217.211904,60.0,83.0
1357,216.9031921875,217.215691875,65.0,86.0
1358,216.9031921875,217.21947975,69.0,84.0
1359,216.9031921875,217.230843375,53.0,86.0
1360,216.9031921875,217.2403130625,41.0,84.0
1361,217.3577371875,217.67402475,53.0,86.0
1362,217.3577371875,217.67402475,65.0,84.0
1363,217.3577371875,217.677812625,60.0,84.0
1364,217.3577371875,217.6797065625,41.0,86.0
1365,217.3577371875,217.6872823125,69.0,83.0
1366,217.8122821875,218.0774334375,53.0,84.0
1367,217.8122821875,218.090691,41.0,86.0
1368,217.8122821875,218.090691,60.0,84.0
1369,217.8122821875,218.090691,65.0,86.0
1370,217.8122821875,218.102054625,69.0,82.0
1371,218.2668271875,218.5660693125,53.0,86.0
1372,218.2668271875,218.5660693125,60.0,80.0
1373,218.2668271875,218.571751125,41.0,83.0
1374,218.2668271875,218.575539,69.0,80.0
1375,218.2668271875,218.579326875,65.0,86.0
1376,218.7213721875,219.0168264375,53.0,91.0
1377,218.7213721875,219.1380384375,41.0,90.0
1378,218.7213721875,219.1683414375,69.0,80.0
1379,218.7213721875,219.40129575,60.0,79.0
1380,218.7213721875,219.4410684375,65.0,84.0
1381,219.4031896875,219.7706135625,53.0,80.0
1382,219.4031896875,219.8122801875,41.0,84.0
1383,219.6304621875,220.1721283125,65.0,91.0
1384,219.6304621875,220.1721283125,69.0,83.0
1385,220.0850071875,220.1797040625,53.0,104.0
1386,219.6304621875,220.1797040625,60.0,90.0
1387,220.0850071875,220.200537375,41.0,104.0
1388,220.5395521875,220.84068825,61.0,91.0
1389,220.5395521875,220.8425821875,70.0,86.0
1390,220.5395521875,220.8463700625,65.0,96.0
1391,220.5395521875,220.85583975,46.0,83.0
1392,220.5395521875,220.8615215625,58.0,83.0
1393,220.9940971875,221.2592484375,65.0,90.0
1394,220.9940971875,221.26493025,61.0,90.0
1395,220.9940971875,221.272506,46.0,91.0
1396,220.9940971875,221.2743999375,70.0,84.0
1397,220.9940971875,221.2895514375,58.0,94.0
1398,222.3577321875,222.62856525,53.0,90.0
1399,222.3577321875,222.6304591875,68.0,86.0
1400,222.3577321875,222.6380349375,60.0,86.0
1401,222.3577321875,222.639928875,41.0,90.0
1402,222.3577321875,222.647504625,63.0,95.0
1403,222.8122771875,223.026292125,41.0,91.0
1404,222.8122771875,223.033867875,53.0,95.0
1405,222.8122771875,223.033867875,63.0,86.0
1406,222.8122771875,223.056595125,60.0,84.0
1407,222.8122771875,223.060383,68.0,93.0
1408,224.1759121875,224.533866375,55.0,86.0
1409,224.1759121875,224.6607601875,65.0,83.0
1410,224.1759121875,224.85583575,58.0,78.0
1411,224.1759121875,224.935381125,61.0,95.0
1412,224.8577296875,225.1115173125,55.0,79.0
1413,225.0850021875,225.3577291875,58.0,80.0
1414,225.0850021875,225.3785625,61.0,93.0
1415,225.0850021875,225.4145473125,65.0,90.0
1416,225.3122746875,225.5168199375,55.0,73.0
1417,224.1759121875,225.56795625,43.0,99.0
1418,225.7668196875,225.9675770625,65.0,84.0
1419,225.7668196875,225.9940921875,54.0,74.0
1420,225.7668196875,226.2062131875,61.0,79.0
1421,225.7668196875,226.2251525625,66.0,94.0
1422,225.5395471875,226.3084858125,58.0,71.0
1423,226.2213646875,226.38613725,54.0,84.0
1424,226.4486371875,226.787652,61.0,83.0
1425,226.6759096875,226.79522775,54.0,86.0
1426,226.4486371875,226.79522775,66.0,84.0
1427,226.4486371875,226.8009095625,58.0,78.0
1428,225.7668196875,226.8615155625,42.0,84.0
1429,226.9031821875,227.0546971875,54.0,91.0
1430,226.9031821875,227.0698486875,42.0,84.0
1431,226.9031821875,227.0736365625,66.0,93.0
1432,226.9031821875,227.079318375,58.0,86.0
1433,226.9031821875,227.079318375,61.0,94.0
1434,227.1304546875,227.397499875,54.0,81.0
1435,227.1304546875,227.57363606250001,61.0,94.0
1436,227.1304546875,227.5849996875,58.0,80.0
1437,227.1304546875,227.6115148125,65.0,90.0
1438,227.5849996875,227.647499625,54.0,75.0
1439,227.1304546875,227.6645450625,42.0,86.0
1440,227.8122721875,228.162650625,66.0,83.0
1441,227.8122721875,228.1834839375,51.0,79.0
1442,227.8122721875,228.1967415,58.0,78.0
1443,227.8122721875,228.24977175,61.0,94.0
1444,228.2668171875,228.5963623125,58.0,44.0
1445,228.4940896875,228.7857560625,51.0,84.0
1446,227.8122721875,229.2251495625,39.0,95.0
1447,228.7213621875,229.268710125,66.0,83.0
1448,228.7213621875,229.2895434375,61.0,84.0
1449,229.1759071875,229.3198464375,51.0,78.0
1450,228.7213621875,229.3577251875,58.0,76.0
1451,229.6304521875,229.8274216875,58.0,79.0
1452,229.6304521875,229.9372700625,61.0,90.0
1453,229.6304521875,229.9543155,65.0,86.0
1454,230.0849971875,230.3501484375,60.0,84.0
1455,230.0849971875,230.4088605,63.0,84.0
1456,229.8577246875,230.4694665,53.0,82.0
1457,230.3122696875,230.696739,58.0,49.0
1458,230.5395421875,230.9751478125,61.0,94.0
1459,230.5395421875,230.9940871875,65.0,84.0
1460,229.6304521875,231.0243901875,46.0,90.0
1461,230.9940871875,231.0736325625,53.0,90.0
1462,231.4486321875,232.0736315625,41.0,86.0
1463,231.4486321875,232.0755255,56.0,78.0
1464,231.4486321875,232.090677,61.0,91.0
1465,231.4486321875,232.0963588125,53.0,86.0
1466,231.4486321875,232.151283,65.0,84.0
1467,232.3577221875,232.84067625,66.0,94.0
1468,232.3577221875,232.8880246875,61.0,91.0
1469,232.3577221875,232.9145398125,58.0,82.0
1470,232.3577221875,232.920221625,42.0,86.0
1471,232.3577221875,232.9751458125,54.0,80.0
1472,233.2668121875,233.6380239375,56.0,78.0
1473,233.2668121875,233.68726631250001,68.0,84.0
1474,233.2668121875,233.6910541875,60.0,84.0
1475,233.2668121875,233.7137814375,44.0,86.0
1476,233.2668121875,233.7421905,63.0,95.0
1477,234.17590218750001,234.6759016875,60.0,84.0
1478,234.17590218750001,234.68915925,41.0,84.0
1479,234.17590218750001,234.745977375,56.0,77.0
1480,234.17590218750001,234.7478713125,63.0,84.0
1481,234.17590218750001,234.7630228125,53.0,84.0
1482,235.0849921875,236.2857485625,70.0,71.0
1483,235.0849921875,236.2876425,58.0,57.0
1484,235.0849921875,236.2933243125,65.0,73.0
1485,235.0849921875,236.302794,53.0,70.0
1486,235.0849921875,236.302794,61.0,61.0
1487,235.0849921875,236.3084758125,46.0,43.0
1488,235.0849921875,236.321733375,68.0,69.0
1489,236.9031721875,237.9069590625,63.0,67.0
1490,236.9031721875,237.9221105625,41.0,49.0
1491,236.9031721875,237.9372620625,48.0,76.0
1492,236.9031721875,237.94673175,60.0,69.0
1493,236.9031721875,237.965671125,53.0,57.0
1494,236.9031721875,238.0149135,68.0,61.0
1495,238.7213521875,239.7857450625,46.0,24.0
1496,238.7213521875,239.829305625,61.0,59.0
1497,238.7213521875,239.8728661875,53.0,60.0
1498,238.7213521875,239.8766540625,68.0,48.0
1499,238.7213521875,239.878548,58.0,49.0
1500,238.7213521875,239.8842298125,60.0,58.0
1501,238.7213521875,239.8918055625,65.0,74.0
1502,240.5395321875,241.0698346875,60.0,75.0
1503,240.5395321875,241.0774104375,56.0,60.0
1504,240.5395321875,241.1152891875,63.0,63.0
1505,241.6758946875,241.7327128125,72.0,76.0
1506,240.5395321875,241.8766520625,53.0,72.0
1507,242.3577121875,242.8728631875,65.0,67.0
1508,242.3577121875,242.889908625,61.0,56.0
1509,242.3577121875,242.97702975,68.0,71.0
1510,243.4940746875,243.605817,60.0,59.0
1511,242.3577121875,243.6418018125,53.0,61.0
1512,243.2668021875,243.6531654375,58.0,49.0
1513,242.3577121875,243.7061956875,46.0,49.0
1514,243.7213471875,243.9372560625,63.0,78.0
1515,243.9486196875,245.1418003125,68.0,43.0
1516,244.1758921875,245.298997125,60.0,67.0
1517,244.1758921875,245.3122546875,63.0,78.0
1518,244.1758921875,245.37096675,53.0,71.0
1519,245.9940721875,247.05278325,61.0,76.0
1520,245.9940721875,247.13990437500001,66.0,63.0
1521,245.9940721875,247.15884375,58.0,51.0
1522,246.2213446875,247.2175558125,63.0,3.0
1523,245.9940721875,247.242177,51.0,71.0
1524,247.8122521875,248.9069480625,60.0,70.0
1525,247.8122521875,248.9220995625,63.0,59.0
1526,247.8122521875,248.999751,56.0,44.0
1527,247.8122521875,249.2592204375,53.0,55.0
1528,250.4088405,252.0357328125,72.0,72.0
1529,250.3804314375,253.397473875,58.0,36.0
1530,250.306567875,253.3993678125,63.0,54.0
1531,250.35581025,253.3993678125,68.0,62.0
1532,250.40126475,253.4220950625,70.0,62.0
1533,250.473234375,253.458079875,73.0,61.0
1534,250.3577041875,253.465655625,46.0,55.0
