,start,end,pitch,velocity
0,13.136187735416668,13.543238081250001,75.0,82.0
1,13.520802235416667,13.892596252083333,74.0,83.0
2,13.905416735416667,14.315672202083334,72.0,82.0
3,14.290031235416667,14.70669694375,74.0,84.0
4,14.674645735416668,15.342913429166668,75.0,87.0
5,15.443874735416667,16.09130914375,79.0,83.0
6,16.213103735416666,18.131368554166666,74.0,83.0
7,19.290019735416667,19.628159983333333,75.0,83.0
8,19.67463423541667,20.067261537500002,74.0,78.0
9,20.059248735416666,20.392581302083332,72.0,83.0
10,20.443863235416668,20.814054691666666,70.0,83.0
11,20.828477735416666,21.57847601041667,72.0,80.0
12,21.59770673541667,22.464691920833335,75.0,83.0
13,22.366935735416668,24.429430991666667,67.0,77.0
14,25.44385173541667,25.826863675000002,68.0,83.0
15,25.828466235416666,26.272375470833335,67.0,81.0
16,26.213080735416668,26.482310885416666,68.0,84.0
17,26.59769523541667,26.919809879166667,79.0,86.0
18,26.982309735416667,28.195447970833335,77.0,83.0
19,28.52076773541667,28.81243373125,70.0,81.0
20,28.905382235416667,29.18743286875,72.0,84.0
21,29.28999673541667,29.588072972916667,74.0,88.0
22,29.674611235416666,29.972687472916668,77.0,88.0
23,30.059225735416668,31.18742826875,75.0,82.0
24,31.597683735416666,31.878131808333336,68.0,87.0
25,31.982298235416668,32.33005384583333,70.0,85.0
26,32.36691273541667,32.6633864125,72.0,83.0
27,32.75152723541667,33.0480009125,75.0,85.0
28,33.136141735416665,33.79639662708333,77.0,82.0
29,33.90537073541667,34.637740845833335,79.0,82.0
30,34.67459973541667,37.03356866875,74.0,83.0
31,37.75151573541667,38.15856608125,75.0,82.0
32,38.136130235416665,38.507924252083335,74.0,83.0
33,38.52074473541667,38.93100020208333,72.0,82.0
34,38.90535923541667,39.32202494375,74.0,84.0
35,39.289973735416666,39.95824142916667,75.0,87.0
36,40.05920273541667,40.70663714375,79.0,83.0
37,40.828431735416665,42.74669655416667,74.0,83.0
38,43.90534773541667,44.24348798333333,75.0,83.0
39,44.28996223541667,44.6825895375,74.0,78.0
40,44.674576735416665,45.007909302083334,72.0,83.0
41,45.05919123541667,45.42938269166667,70.0,83.0
42,45.44380573541667,46.19380401041667,72.0,80.0
43,46.21303473541667,47.08001992083334,75.0,83.0
44,46.982263735416666,49.04475899166667,67.0,77.0
45,50.05917973541667,50.442191675000004,68.0,83.0
46,50.44379423541667,50.88770347083334,67.0,81.0
47,50.828408735416666,51.09763888541667,68.0,84.0
48,51.21302323541667,51.53513787916667,79.0,86.0
49,51.59763773541667,52.81077597083333,77.0,83.0
50,53.13609573541667,53.42776173125,70.0,81.0
51,53.520710235416665,53.80276086875,72.0,84.0
52,53.90532473541667,54.20340097291667,74.0,88.0
53,54.28993923541667,54.588015472916666,77.0,88.0
54,54.674553735416666,55.80275626875,75.0,82.0
55,56.21301173541667,56.493459808333334,68.0,87.0
56,56.59762623541667,56.94538184583333,70.0,85.0
57,56.98224073541667,57.2787144125,72.0,83.0
58,57.366855235416665,57.6633289125,75.0,85.0
59,57.75146973541667,58.41172462708334,77.0,82.0
60,58.520698735416666,58.82358265416667,75.0,86.0
61,58.90531323541667,59.163325462500005,77.0,83.0
62,59.28992773541667,61.063962116666666,79.0,83.0
63,61.59761473541667,61.96780619166667,75.0,86.0
64,61.98222923541667,62.4133179875,77.0,80.0
65,62.366843735416666,62.76427871875,79.0,83.0
66,62.75145823541667,63.033508868750005,84.0,86.0
67,63.13607273541667,63.42453361041667,84.0,89.0
68,63.520687235416666,63.83158395625,79.0,82.0
69,63.90530173541667,64.48382604583334,77.0,88.0
70,64.67453073541667,64.95818392916667,74.0,89.0
71,65.05914523541666,65.3556189125,75.0,83.0
72,65.44375973541666,65.70016940208333,77.0,83.0
73,65.82837423541667,66.09439926458333,82.0,86.0
74,66.21298873541667,66.46298816041667,82.0,84.0
75,66.59760323541667,66.8940769125,84.0,82.0
76,66.98221773541667,67.75144673541666,79.0,84.0
77,67.75144673541666,68.08157418125,75.0,89.0
78,68.13606123541666,68.43574003333333,74.0,93.0
79,68.52067573541667,69.22419975833334,72.0,84.0
80,69.28990473541667,69.96458267083334,79.0,85.0
81,70.05913373541667,70.72259374791666,77.0,84.0
82,70.82836273541668,71.13925945625,75.0,84.0
83,71.21297723541667,71.52547651666667,77.0,83.0
84,71.59759173541667,71.89566797291667,79.0,83.0
85,71.98220623541667,72.30432087916667,80.0,87.0
86,72.36682073541667,72.67451233541667,79.0,85.0
87,72.75143523541666,73.06072939583333,77.0,86.0
88,73.13604973541666,73.79630462708333,79.0,84.0
89,73.90527873541667,74.27547019166667,75.0,86.0
90,74.28989323541667,74.7209819875,77.0,80.0
91,74.67450773541667,75.07194271875001,79.0,83.0
92,75.05912223541667,75.34117286875001,84.0,86.0
93,75.44373673541666,75.73219761041666,84.0,89.0
94,75.82835123541668,76.13924795625,79.0,82.0
95,76.21296573541667,76.79149004583334,77.0,88.0
96,76.98219473541667,77.26584792916667,74.0,89.0
97,77.36680923541667,77.66328291250001,75.0,83.0
98,77.75142373541667,78.00783340208334,77.0,83.0
99,78.13603823541666,78.40206326458333,82.0,86.0
100,78.52065273541668,78.77065216041667,82.0,84.0
101,78.90526723541667,79.2017409125,84.0,82.0
102,79.28988173541667,80.05911073541667,79.0,84.0
103,80.05911073541667,80.38923818125001,75.0,89.0
104,80.44372523541666,80.74340403333333,74.0,93.0
105,80.82833973541666,81.53186375833333,72.0,84.0
106,81.59756873541667,82.27224667083334,79.0,85.0
107,82.36679773541667,83.03025774791666,77.0,84.0
108,83.13602673541666,83.44692345625,75.0,84.0
109,83.52064123541668,83.83314051666667,77.0,83.0
110,83.90525573541667,84.20333197291667,79.0,83.0
111,84.28987023541667,84.61198487916667,77.0,87.0
112,84.67448473541667,84.98217633541667,75.0,85.0
113,85.05909923541667,85.82832823541666,74.0,86.0
114,85.82832823541666,86.98217173541667,72.0,84.0
115,111.59749973541668,112.00455008125,75.0,82.0
116,111.98211423541667,112.35390825208334,74.0,83.0
117,112.36672873541667,112.77698420208334,72.0,82.0
118,112.75134323541667,113.16800894375001,74.0,84.0
119,113.13595773541667,113.80422542916666,75.0,87.0
120,113.90518673541666,114.55262114375,79.0,83.0
121,114.67441573541667,116.59268055416668,74.0,83.0
122,117.75133173541667,118.08947198333334,75.0,83.0
123,118.13594623541667,118.52857353750001,74.0,78.0
124,118.52056073541667,118.85389330208334,72.0,83.0
125,118.90517523541666,119.27536669166668,70.0,83.0
126,119.28978973541668,120.03978801041667,72.0,80.0
127,120.05901873541667,120.92600392083334,75.0,83.0
128,120.82824773541667,122.89074299166667,67.0,77.0
129,123.90516373541666,124.288175675,68.0,83.0
130,124.28977823541668,124.73368747083333,67.0,81.0
131,124.67439273541667,124.94362288541667,68.0,84.0
132,125.05900723541667,125.38112187916667,79.0,86.0
133,125.44362173541667,126.65675997083333,77.0,83.0
134,126.98207973541668,127.27374573125,70.0,81.0
135,127.36669423541667,127.64874486875,72.0,84.0
136,127.75130873541667,128.04938497291667,74.0,88.0
137,128.13592323541667,128.43399947291667,77.0,88.0
138,128.52053773541667,129.64874026875,75.0,82.0
139,130.05899573541666,130.33944380833333,68.0,87.0
140,130.44361023541668,130.79136584583333,70.0,85.0
141,130.82822473541668,131.1246984125,72.0,83.0
142,131.21283923541668,131.5093129125,75.0,85.0
143,131.59745373541668,132.25770862708333,77.0,82.0
144,132.36668273541667,133.09905284583334,79.0,82.0
145,133.13591173541667,135.49488066875,74.0,83.0
146,136.21282773541668,136.61987808125,75.0,82.0
147,136.59744223541668,136.96923625208333,74.0,83.0
148,136.98205673541668,137.39231220208333,72.0,82.0
149,137.36667123541667,137.78333694375002,74.0,84.0
150,137.75128573541667,138.41955342916668,75.0,87.0
151,138.52051473541667,139.16794914375,79.0,83.0
152,139.28974373541666,141.20800855416667,74.0,83.0
153,142.36665973541668,142.70479998333334,75.0,83.0
154,142.75127423541667,143.1439015375,74.0,78.0
155,143.13588873541667,143.46922130208333,72.0,83.0
156,143.52050323541667,143.89069469166668,70.0,83.0
157,143.90511773541667,144.65511601041666,72.0,80.0
158,144.67434673541666,145.54133192083333,75.0,83.0
159,145.44357573541666,147.50607099166666,67.0,77.0
160,148.52049173541667,148.903503675,68.0,83.0
161,148.90510623541667,149.34901547083334,67.0,81.0
162,149.28972073541667,149.55895088541666,68.0,84.0
163,149.67433523541666,149.99644987916668,79.0,86.0
164,150.05894973541666,151.27208797083333,77.0,83.0
165,151.59740773541668,151.88907373125,70.0,81.0
166,151.98202223541668,152.26407286875,72.0,84.0
167,152.36663673541668,152.66471297291667,74.0,88.0
168,152.75125123541667,153.04932747291667,77.0,88.0
169,153.13586573541667,154.26406826875,75.0,82.0
170,154.67432373541666,154.95477180833333,68.0,87.0
171,155.05893823541666,155.40669384583333,70.0,85.0
172,155.44355273541666,155.74002641250001,72.0,83.0
173,155.82816723541666,156.1246409125,75.0,85.0
174,156.21278173541668,156.87303662708334,77.0,82.0
175,156.98201073541668,157.28489465416666,75.0,86.0
176,157.36662523541668,157.6246374625,77.0,83.0
177,157.75123973541668,159.52527411666668,79.0,83.0
178,160.05892673541666,160.42911819166667,75.0,86.0
179,160.44354123541666,160.87462998750001,77.0,80.0
180,160.82815573541666,161.22559071875,79.0,83.0
181,161.21277023541668,161.49482086875,84.0,86.0
182,161.59738473541668,161.88584561041668,84.0,89.0
183,161.98199923541668,162.29289595625,79.0,82.0
184,162.36661373541668,162.94513804583335,77.0,88.0
185,163.13584273541667,163.41949592916666,74.0,89.0
186,163.52045723541667,163.8169309125,75.0,83.0
187,163.90507173541667,164.16148140208333,77.0,83.0
188,164.28968623541667,164.55571126458335,82.0,86.0
189,164.67430073541667,164.92430016041666,82.0,84.0
190,165.05891523541666,165.35538891250002,84.0,82.0
191,165.44352973541666,166.21275873541668,79.0,84.0
192,166.21275873541668,166.54288618125,75.0,89.0
193,166.59737323541668,166.89705203333335,74.0,93.0
194,166.98198773541668,167.68551175833335,72.0,84.0
195,167.75121673541668,168.42589467083334,79.0,85.0
196,168.52044573541667,169.18390574791667,77.0,84.0
197,169.28967473541667,169.60057145625,75.0,84.0
198,169.67428923541667,169.98678851666668,77.0,83.0
199,170.05890373541666,170.35697997291666,79.0,83.0
200,170.44351823541666,170.76563287916667,80.0,87.0
201,170.82813273541666,171.1358243354167,79.0,85.0
202,171.21274723541669,171.52204139583333,77.0,86.0
203,171.59736173541668,172.25761662708334,79.0,84.0
204,172.36659073541668,172.73678219166666,75.0,86.0
205,172.75120523541668,173.1822939875,77.0,80.0
206,173.13581973541667,173.53325471875002,79.0,83.0
207,173.52043423541667,173.80248486875,84.0,86.0
208,173.90504873541667,174.19350961041667,84.0,89.0
209,174.28966323541667,174.60055995625,79.0,82.0
210,174.67427773541667,175.25280204583333,77.0,88.0
211,175.44350673541666,175.72715992916667,74.0,89.0
212,175.82812123541666,176.12459491250002,75.0,83.0
213,176.2127357354167,176.46914540208334,77.0,83.0
214,176.59735023541668,176.86337526458334,82.0,86.0
215,176.98196473541668,177.23196416041668,82.0,84.0
216,177.36657923541668,177.6630529125,84.0,82.0
217,177.75119373541668,178.52042273541667,79.0,84.0
218,178.52042273541667,178.85055018125001,75.0,89.0
219,178.90503723541667,179.20471603333334,74.0,93.0
220,179.28965173541667,179.99317575833334,72.0,84.0
221,180.05888073541666,180.73355867083333,79.0,85.0
222,180.82810973541666,181.49156974791669,77.0,84.0
223,181.59733873541668,181.90823545625,75.0,84.0
224,181.98195323541668,182.29445251666667,77.0,83.0
225,182.36656773541668,182.66464397291668,79.0,83.0
226,182.75118223541668,183.07329687916666,77.0,87.0
227,183.13579673541668,183.44348833541667,75.0,85.0
228,183.52041123541667,184.28964023541667,74.0,86.0
229,184.28964023541667,185.44348373541666,72.0,84.0
230,190.82808673541666,191.19827819166667,75.0,86.0
231,191.21270123541666,191.6437899875,77.0,80.0
232,191.5973157354167,191.99475071875,79.0,83.0
233,191.98193023541668,192.26398086875,84.0,86.0
234,192.36654473541668,192.65500561041668,84.0,89.0
235,192.75115923541668,193.06205595625,79.0,82.0
236,193.13577373541668,193.71429804583335,77.0,88.0
237,193.90500273541667,194.18865592916669,74.0,89.0
238,194.28961723541667,194.5860909125,75.0,83.0
239,194.67423173541667,194.93064140208335,77.0,83.0
240,195.05884623541667,195.32487126458335,82.0,86.0
241,195.44346073541666,195.69346016041666,82.0,84.0
242,195.82807523541666,196.12454891250002,84.0,82.0
243,196.21268973541666,196.98191873541668,79.0,84.0
244,196.98191873541668,197.31204618125,75.0,89.0
245,197.36653323541668,197.66621203333335,74.0,93.0
246,197.75114773541668,198.45467175833335,72.0,84.0
247,198.52037673541668,199.19505467083334,79.0,85.0
248,199.28960573541667,199.95306574791667,77.0,84.0
249,200.05883473541667,200.36973145625,75.0,84.0
250,200.44344923541667,200.75594851666668,77.0,83.0
251,200.82806373541666,201.12613997291666,79.0,83.0
252,201.21267823541666,201.53479287916667,80.0,87.0
253,201.5972927354167,201.90498433541669,79.0,85.0
254,201.98190723541668,202.29120139583333,77.0,86.0
255,202.36652173541668,203.02677662708334,79.0,84.0
256,203.13575073541668,203.50594219166666,75.0,86.0
257,203.52036523541668,203.9514539875,77.0,80.0
258,203.90497973541667,204.30241471875001,79.0,83.0
259,204.28959423541667,204.57164486875,84.0,86.0
260,204.67420873541667,204.96266961041667,84.0,89.0
261,205.05882323541667,205.36971995625,79.0,82.0
262,205.44343773541667,206.02196204583333,77.0,88.0
263,206.21266673541666,206.49631992916667,74.0,89.0
264,206.59728123541666,206.89375491250001,75.0,83.0
265,206.98189573541669,207.23830540208334,77.0,83.0
266,207.36651023541668,207.63253526458334,82.0,86.0
267,207.75112473541668,208.00112416041668,82.0,84.0
268,208.13573923541668,208.4322129125,84.0,82.0
269,208.52035373541668,209.28958273541667,79.0,84.0
270,209.28958273541667,209.61971018125,75.0,89.0
271,209.67419723541667,209.97387603333334,74.0,93.0
272,210.05881173541667,210.76233575833334,72.0,84.0
273,210.82804073541666,211.50271867083333,79.0,85.0
274,211.59726973541666,212.26072974791668,77.0,84.0
275,212.36649873541668,212.67739545625,75.0,84.0
276,212.75111323541668,213.06361251666667,77.0,83.0
277,213.13572773541668,213.43380397291668,79.0,83.0
278,213.52034223541668,213.84245687916666,77.0,87.0
279,213.90495673541668,214.21264833541667,75.0,85.0
280,214.28957123541667,215.05880023541667,74.0,86.0
281,215.05880023541667,216.21264373541666,72.0,84.0
