,start,end,pitch,velocity
0,1.5977527354166667,2.1249951125,56.0,69.0
1,1.9823672354166668,2.169866804166667,60.0,82.0
2,2.3669817354166667,2.6634554125000003,68.0,73.0
3,2.3669817354166667,2.7243527083333334,56.0,70.0
4,1.2131382354166667,3.0128135833333336,51.0,68.0
5,0.8285237354166667,3.10095440625,44.0,83.0
6,4.674668735416667,4.8669759854166665,58.0,78.0
7,3.905439735416667,4.8701811062500004,62.0,73.0
8,3.905439735416667,4.892616952083333,55.0,67.0
9,4.290054235416667,5.13941125625,50.0,68.0
10,3.905439735416667,5.42306445,43.0,69.0
11,5.443897735416667,5.68748691875,55.0,74.0
12,5.443897735416667,6.108960308333334,63.0,75.0
13,5.443897735416667,6.286844514583334,48.0,78.0
14,5.8285122354166665,6.407036545833334,55.0,71.0
15,6.213126735416667,6.496779929166667,62.0,78.0
16,7.366970235416667,7.828507635416667,48.0,77.0
17,6.982355735416667,7.852546041666667,60.0,77.0
18,6.982355735416667,7.858956283333334,41.0,81.0
19,7.7515847354166665,8.152224839583333,56.0,91.0
20,8.136199235416667,8.3076732,53.0,80.0
21,8.520813735416667,8.754787556250001,50.0,80.0
22,8.520813735416667,8.969530652083334,53.0,70.0
23,8.905428235416666,9.333311866666667,50.0,79.0
24,8.520813735416667,9.365363075,38.0,83.0
25,9.290042735416668,9.435875733333333,56.0,85.0
26,10.059271735416667,10.649013968750001,55.0,82.0
27,10.443886235416667,10.815680252083334,60.0,35.0
28,10.828500735416666,11.193884510416668,62.0,78.0
29,11.213115235416668,11.342922629166667,67.0,79.0
30,11.597729735416667,12.123369552083334,74.0,81.0
31,11.597729735416667,12.169843804166668,67.0,74.0
32,12.366958735416667,13.121764691666668,79.0,72.0
33,12.751573235416666,13.134585175,67.0,78.0
34,10.059271735416667,13.136187735416668,43.0,82.0
35,13.136187735416668,13.905416735416667,63.0,82.0
36,13.520802235416667,14.04323693125,55.0,65.0
37,13.905416735416667,14.403813025,60.0,72.0
38,14.290031235416667,15.323682704166668,55.0,57.0
39,14.674645735416668,15.371759516666668,67.0,63.0
40,13.136187735416668,15.38938768125,48.0,83.0
41,16.213103735416666,17.05444795416667,62.0,72.0
42,16.597718235416668,17.16822974375,53.0,66.0
43,16.213103735416666,17.613741539583334,46.0,72.0
44,17.366947235416667,17.626562022916666,53.0,70.0
45,16.982332735416666,18.507970252083332,58.0,69.0
46,17.75156173541667,18.724315908333335,65.0,77.0
47,19.290019735416667,20.097710185416666,60.0,76.0
48,20.059248735416666,20.507965652083335,56.0,69.0
49,20.443863235416668,20.902195514583333,60.0,74.0
50,20.828477735416666,21.152194939583335,63.0,74.0
51,19.67463423541667,21.338091947916666,51.0,56.0
52,19.290019735416667,21.349309870833334,44.0,84.0
53,22.366935735416668,23.13936985625,58.0,64.0
54,23.136164735416667,23.656996870833336,55.0,83.0
55,23.52077923541667,23.924624460416666,58.0,88.0
56,23.905393735416666,24.357315772916667,63.0,86.0
57,22.751550235416666,24.6634048125,46.0,70.0
58,22.366935735416668,24.70346882291667,39.0,71.0
59,24.290008235416668,24.733917470833333,55.0,80.0
60,24.67462273541667,24.7980198875,58.0,74.0
61,25.44385173541667,25.924619860416666,53.0,73.0
62,25.44385173541667,26.21628585625,60.0,78.0
63,25.828466235416666,26.398977743750002,48.0,65.0
64,26.213080735416668,26.7018616625,56.0,85.0
65,27.36692423541667,27.799615547916666,53.0,64.0
66,26.982309735416667,27.878141008333333,60.0,77.0
67,27.751538735416666,27.99673047916667,65.0,77.0
68,25.44385173541667,28.09128154375,41.0,82.0
69,26.59769523541667,28.15858908125,48.0,71.0
70,29.28999673541667,29.51435519375,55.0,78.0
71,29.28999673541667,29.722688047916666,58.0,82.0
72,28.905382235416667,29.911790177083333,50.0,67.0
73,28.52076773541667,29.955059308333333,43.0,83.0
74,29.674611235416666,30.137751195833335,55.0,85.0
75,30.059225735416668,30.846082900000003,60.0,80.0
76,30.059225735416668,30.881339229166667,48.0,82.0
77,30.44384023541667,30.924608360416666,55.0,82.0
78,30.828454735416667,30.967877491666666,63.0,82.0
79,31.21306923541667,31.600888856250002,62.0,82.0
80,31.597683735416666,32.41659210833333,60.0,80.0
81,32.36691273541667,32.79479636666667,56.0,84.0
82,32.75152723541667,33.073641879166665,60.0,82.0
83,33.52075623541667,33.677807156250005,56.0,65.0
84,33.90537073541667,34.06081909583333,56.0,83.0
85,31.982298235416668,34.07043445833333,51.0,60.0
86,31.597683735416666,34.1056907875,44.0,83.0
87,33.90537073541667,34.126524072916666,60.0,83.0
88,34.67459973541667,35.26113684791667,60.0,76.0
89,34.67459973541667,35.27395733125,55.0,75.0
90,35.443828735416666,35.86690468541667,62.0,80.0
91,35.05921423541667,35.97587879375,50.0,77.0
92,34.67459973541667,36.036776089583334,43.0,82.0
93,35.82844323541667,36.18901932916667,60.0,82.0
94,36.21305773541667,36.75312059583334,59.0,75.0
95,36.21305773541667,36.921389439583336,55.0,74.0
96,36.59767223541667,36.979081614583336,62.0,78.0
97,36.59767223541667,37.538375200000004,50.0,72.0
98,36.21305773541667,37.58805457291667,43.0,79.0
99,36.982286735416665,37.61209297916667,67.0,84.0
100,37.36690123541667,37.7595285375,55.0,83.0
101,37.75151573541667,38.233886420833336,60.0,77.0
102,37.75151573541667,38.41016806666667,63.0,73.0
103,38.136130235416665,38.527154977083335,55.0,69.0
104,38.52074473541667,38.94382068541667,60.0,84.0
105,38.90535923541667,39.4326016125,55.0,70.0
106,39.289973735416666,39.672985675,67.0,81.0
107,39.289973735416666,39.68901127916667,60.0,78.0
108,39.67458823541667,40.13292051458333,55.0,61.0
109,37.75151573541667,40.163369162500004,48.0,85.0
110,40.05920273541667,40.17939476666667,63.0,74.0
111,40.05920273541667,40.21465109583333,60.0,75.0
112,40.828431735416665,41.43099445208333,55.0,74.0
113,40.828431735416665,41.47746870416667,62.0,78.0
114,41.21304623541667,41.62169914166667,50.0,63.0
115,41.59766073541667,41.93099330208334,58.0,79.0
116,41.982275235416665,42.459838239583334,50.0,70.0
117,42.36688973541667,42.78515800416667,62.0,77.0
118,42.36688973541667,42.81560665208333,55.0,78.0
119,42.75150423541667,43.2595158875,50.0,72.0
120,40.828431735416665,43.28195173333334,43.0,79.0
121,43.136118735416666,43.402143764583336,58.0,82.0
122,43.136118735416666,43.45663081875,55.0,76.0
123,43.52073323541667,43.6825918375,43.0,82.0
124,43.90534773541667,44.511115572916665,60.0,77.0
125,44.28996223541667,44.786755964583335,51.0,60.0
126,43.90534773541667,44.892524952083335,44.0,76.0
127,45.05919123541667,45.46784414166667,51.0,70.0
128,44.674576735416665,45.634510425,56.0,80.0
129,44.674576735416665,46.03034284791667,60.0,83.0
130,45.828420235416665,46.31239348125,51.0,70.0
131,46.21303473541667,46.34284212916667,56.0,82.0
132,45.44380573541667,46.38130357916667,44.0,78.0
133,46.21303473541667,46.41175222708333,60.0,83.0
134,46.982263735416666,47.58162133125,58.0,68.0
135,46.982263735416666,47.72424920833333,55.0,74.0
136,47.75149273541667,48.1633507625,58.0,86.0
137,48.13610723541667,48.59123439375,55.0,82.0
138,48.90533623541667,49.062387156250004,55.0,77.0
139,48.52072173541667,49.086425562500004,63.0,75.0
140,46.982263735416666,49.28995073541667,39.0,82.0
141,47.36687823541667,49.29155329583333,46.0,66.0
142,49.28995073541667,49.49988615,58.0,84.0
143,49.28995073541667,49.520719435416666,55.0,84.0
144,50.05917973541667,50.69860134166667,63.0,75.0
145,50.05917973541667,50.8556522625,56.0,71.0
146,50.44379423541667,50.943793085416665,51.0,66.0
147,50.828408735416666,51.22263859791667,60.0,76.0
148,51.21302323541667,51.706611843750004,51.0,59.0
149,51.59763773541667,52.09923914583334,63.0,71.0
150,51.59763773541667,52.11526475,56.0,74.0
151,50.05917973541667,52.49507156875,44.0,80.0
152,51.98225223541667,52.51590485416667,51.0,60.0
153,52.36686673541667,52.55276374375,56.0,71.0
154,52.36686673541667,52.60725079791667,60.0,78.0
155,53.13609573541667,53.7017995625,58.0,71.0
156,53.13609573541667,53.733850770833335,55.0,72.0
157,53.520710235416665,54.19378561041667,50.0,69.0
158,53.90532473541667,54.264298268750004,58.0,82.0
159,53.13609573541667,54.278721312500004,43.0,82.0
160,53.90532473541667,54.36846469583333,62.0,78.0
161,54.28993923541667,54.775515041666665,55.0,87.0
162,54.674553735416666,55.1633346625,60.0,82.0
163,54.674553735416666,55.40692384583333,48.0,82.0
164,55.05916823541667,55.53512867916667,55.0,79.0
165,55.44378273541667,55.57359012916667,63.0,84.0
166,55.44378273541667,55.59121829375,60.0,83.0
167,55.828397235416666,56.18737076875,62.0,80.0
168,56.21301173541667,56.62807488333333,60.0,77.0
169,56.59762623541667,57.16653518333334,48.0,70.0
170,56.98224073541667,57.2017915125,53.0,74.0
171,56.98224073541667,57.227432479166666,56.0,77.0
172,56.21301173541667,57.450188377083336,41.0,82.0
173,57.75146973541667,57.850828481250005,56.0,70.0
174,57.75146973541667,57.88287968958333,53.0,72.0
175,57.75146973541667,57.95499490833333,60.0,76.0
176,58.13608423541667,58.6248651625,48.0,72.0
177,57.75146973541667,58.71300598541667,41.0,83.0
178,58.520698735416666,58.7979416875,60.0,82.0
179,58.520698735416666,58.916531158333335,65.0,82.0
180,59.28992773541667,59.72422160833334,55.0,83.0
181,59.28992773541667,59.818772672916666,60.0,83.0
182,59.866849485416665,60.11043866875,55.0,84.0
183,59.674542235416666,60.142489877083335,50.0,78.0
184,60.05915673541667,60.277104952083334,60.0,89.0
185,60.44377123541667,60.62325800208333,55.0,87.0
186,60.25146398541667,60.69377066041667,50.0,80.0
187,59.28992773541667,60.72421930833333,43.0,87.0
188,60.63607848541667,60.72902698958333,60.0,89.0
189,60.82838573541667,61.044731391666666,55.0,84.0
190,60.82838573541667,61.07197491875,59.0,93.0
191,61.020692985416666,61.48543550625,50.0,85.0
192,61.21300023541667,61.51107647291667,55.0,84.0
193,61.59761473541667,61.865242325000004,50.0,91.0
194,61.59761473541667,61.898896093750004,62.0,87.0
195,61.78992198541667,62.01588300416667,55.0,83.0
196,61.98222923541667,62.2594721875,50.0,84.0
197,60.82838573541667,62.31556180208334,43.0,83.0
198,61.78992198541667,62.328382285416666,67.0,83.0
199,62.17453648541667,62.366843735416666,55.0,80.0
200,62.366843735416666,62.89568867291667,60.0,76.0
201,62.366843735416666,62.898893793750005,67.0,78.0
202,62.75145823541667,63.19376491041667,55.0,80.0
203,63.13607273541667,63.34440558958334,60.0,81.0
204,62.366843735416666,63.39248240208334,48.0,84.0
205,63.32837998541667,63.48382834583334,55.0,80.0
206,63.13607273541667,63.511071872916666,63.0,85.0
207,63.520687235416666,63.749853375,60.0,83.0
208,63.712994485416665,63.911711977083336,63.0,87.0
209,63.90530173541667,64.28190343333334,62.0,86.0
210,64.28991623541667,64.78991508541667,53.0,81.0
211,63.90530173541667,64.85081238125001,46.0,79.0
212,64.67453073541667,65.05754267500001,58.0,86.0
213,64.67453073541667,65.09119644375001,62.0,83.0
214,65.44375973541666,65.81395119166667,58.0,70.0
215,65.44375973541666,65.91010481666667,62.0,78.0
216,66.02068148541667,66.24503994375,58.0,83.0
217,65.82837423541667,66.29471931666667,53.0,65.0
218,65.44375973541666,66.50625729166667,46.0,85.0
219,66.40529598541667,66.56875714791667,53.0,82.0
220,66.21298873541667,66.65689797083334,65.0,84.0
221,66.59760323541667,66.7594618375,58.0,78.0
222,66.98221773541667,67.38926808125001,55.0,71.0
223,66.98221773541667,67.40689624583334,58.0,75.0
224,66.98221773541667,67.42612697083334,63.0,76.0
225,67.36683223541667,67.80272866875,46.0,72.0
226,66.98221773541667,67.83157475625,39.0,89.0
227,67.75144673541666,67.87324132708333,63.0,82.0
228,67.94375398541666,68.07516393958333,46.0,83.0
229,67.75144673541666,68.13125355416666,58.0,93.0
230,68.13606123541666,68.41811186875,55.0,84.0
231,68.32836848541668,68.49984245,58.0,84.0
232,68.90529023541667,69.20016135208334,56.0,83.0
233,68.71298298541667,69.22900743958334,51.0,82.0
234,68.52067573541667,69.3844558,44.0,89.0
235,69.09759748541667,69.5094555125,63.0,88.0
236,69.28990473541667,69.55272464375,51.0,74.0
237,69.48221198541667,69.70657044375,60.0,82.0
238,69.67451923541667,69.95656986875001,56.0,82.0
239,69.86682648541667,70.05753117500001,63.0,76.0
240,70.25144098541666,70.73541423125,48.0,75.0
241,70.44374823541666,70.89567027291668,53.0,82.0
242,70.63605548541666,71.01105462291667,56.0,83.0
243,70.82836273541668,71.21778491666667,48.0,83.0
244,71.02066998541667,71.24502844375,53.0,83.0
245,70.05913373541667,71.26425916875,41.0,82.0
246,71.21297723541667,71.33156670625,56.0,79.0
247,71.59759173541667,71.79630922708334,55.0,83.0
248,71.59759173541667,72.01586000416667,60.0,83.0
249,71.98220623541667,72.09278290416667,55.0,82.0
250,71.59759173541667,72.30111575833334,43.0,86.0
251,72.17451348541667,72.37803865833334,55.0,86.0
252,72.17451348541667,72.46297436041667,60.0,87.0
253,72.36682073541667,72.59117919375001,43.0,83.0
254,72.55912798541667,72.79310180625001,55.0,89.0
255,72.75143523541666,72.97579369375,60.0,83.0
256,72.94374248541666,73.05912683541666,55.0,82.0
257,73.13604973541666,73.3363697875,55.0,82.0
258,73.13604973541666,73.37963891875,59.0,86.0
259,73.52066423541667,73.64566394791667,55.0,85.0
260,73.32835698541668,73.77707390208333,50.0,86.0
261,73.71297148541667,73.97418883333333,62.0,85.0
262,73.90527873541667,74.14245767708334,50.0,83.0
263,74.09758598541667,74.29309835625,55.0,81.0
264,74.09758598541667,74.52066193541667,62.0,82.0
265,74.09758598541667,74.557520825,67.0,82.0
266,73.13604973541666,74.55912338541667,43.0,83.0
267,74.28989323541667,74.55912338541667,50.0,89.0
268,74.48220048541667,74.65848213125,55.0,83.0
269,74.67450773541667,74.86200730416667,60.0,78.0
270,74.67450773541667,74.99501981875001,67.0,82.0
271,75.05912223541667,75.18732706875001,60.0,80.0
272,74.86681498541667,75.30591653958334,55.0,78.0
273,75.25142948541666,75.38764712083334,63.0,91.0
274,74.67450773541667,75.70815920416666,48.0,86.0
275,75.44373673541666,75.73059505,55.0,81.0
276,75.63604398541666,75.76104369791666,60.0,85.0
277,75.82835123541668,75.98379959583333,63.0,91.0
278,76.02065848541667,76.16649148333333,60.0,78.0
279,76.21296573541667,76.44052931458333,62.0,83.0
280,76.59758023541667,76.711362025,58.0,83.0
281,76.40527298541667,76.89245135208334,53.0,84.0
282,76.21296573541667,77.11360468958334,46.0,84.0
283,76.78988748541667,77.34437338958334,58.0,74.0
284,77.36680923541667,77.52225759583334,53.0,84.0
285,76.78988748541667,77.58796257291667,62.0,84.0
286,77.55911648541667,77.72898788958334,58.0,85.0
287,78.13603823541666,78.249820025,55.0,84.0
288,77.94373098541666,78.40687094583333,50.0,84.0
289,78.32834548541666,78.57033210833333,55.0,82.0
290,78.32834548541666,78.57994747083333,58.0,87.0
291,78.52065273541668,78.71295998541667,50.0,83.0
292,77.75142373541667,78.81071617083333,43.0,85.0
293,78.71295998541667,78.84276737916667,55.0,81.0
294,78.71295998541667,78.942126125,58.0,83.0
295,78.71295998541667,79.03667718958333,62.0,84.0
296,78.90526723541667,79.04468999166667,43.0,82.0
297,79.09757448541667,79.35238159166667,55.0,83.0
298,79.28988173541667,79.35238159166667,55.0,83.0
299,79.28988173541667,79.49180434791667,63.0,83.0
300,79.67449623541667,79.78507290416667,60.0,82.0
301,79.48218898541667,79.9132777375,55.0,75.0
302,79.86680348541667,80.06231585625001,60.0,84.0
303,79.86680348541667,80.06231585625001,63.0,88.0
304,80.05911073541667,80.29148199583334,55.0,82.0
305,79.28988173541667,80.32834088541667,48.0,91.0
306,80.25141798541667,80.43571243333334,63.0,91.0
307,80.25141798541667,80.4901994875,60.0,85.0
308,80.63603248541666,80.83474997708333,62.0,82.0
309,80.82833973541666,80.94692920625,60.0,83.0
310,81.21295423541667,81.33314626666667,56.0,83.0
311,81.02064698541668,81.47577414375,51.0,71.0
312,80.82833973541666,81.55910728541667,44.0,93.0
313,81.40526148541667,81.63122250416667,56.0,84.0
314,81.40526148541667,81.66167115208333,60.0,89.0
315,81.59756873541667,81.79628622708334,51.0,82.0
316,81.78987598541667,81.93570898333334,56.0,83.0
317,81.78987598541667,82.24179802291667,60.0,84.0
318,82.17449048541667,82.3171183625,56.0,83.0
319,82.55910498541667,82.99820653958334,48.0,72.0
320,82.75141223541667,83.01262958333334,53.0,83.0
321,82.94371948541666,83.32352630416666,60.0,83.0
322,83.13602673541666,83.4901925875,48.0,86.0
323,83.32833398541666,83.52064123541668,53.0,83.0
324,82.36679773541667,83.61038461875,41.0,84.0
325,83.52064123541668,83.78346114375,60.0,83.0
326,83.71294848541667,83.85237124166667,53.0,83.0
327,84.28987023541667,84.39884434375,55.0,84.0
328,84.09756298541667,84.54147222083334,50.0,78.0
329,84.48217748541667,84.6824975375,55.0,84.0
330,84.48217748541667,84.86839454583334,62.0,84.0
331,84.67448473541667,85.02063778541667,50.0,83.0
332,84.86679198541667,85.05909923541667,55.0,85.0
333,83.90525573541667,85.24018856250001,43.0,83.0
334,85.05909923541667,85.28826537500001,62.0,75.0
335,85.25140648541667,85.29307305625001,55.0,56.0
336,85.31550890208334,85.51422639375001,55.0,71.0
337,85.37961131875001,85.8748024875,60.0,76.0
338,85.42608557083334,85.88121272916666,36.0,81.0
339,85.45012397708334,86.27063491041667,63.0,76.0
340,85.8171103125,86.32992964583333,55.0,73.0
341,86.21935297708333,86.37640389791667,60.0,72.0
342,86.99659477916667,87.73377257083334,63.0,58.0
343,86.8171080125,87.77864426250001,56.0,68.0
344,86.91486419791667,87.78986218541667,60.0,76.0
345,86.91646675833334,88.00140016041667,44.0,68.0
346,88.365181375,88.48537340625,56.0,61.0
347,88.46614268125,88.5478732625,63.0,66.0
348,88.51582205416668,88.62159104166668,68.0,76.0
349,89.980562275,90.44209967500001,58.0,64.0
350,89.95011362708334,90.46293296041667,55.0,52.0
351,90.0286390875,90.55267634375001,62.0,75.0
352,90.019023725,90.62479156250001,43.0,77.0
353,91.47735370416667,91.6055585375,60.0,61.0
354,91.48857162708333,91.62158414166667,63.0,70.0
355,91.54305868125,91.9132501375,67.0,73.0
356,91.519020275,92.27062111041667,55.0,57.0
357,92.29626207708334,92.39241570208334,63.0,75.0
358,93.01741426458334,94.0286298875,56.0,71.0
359,92.96933745208334,94.06068109583333,53.0,61.0
360,93.06869619791667,94.11356558958333,41.0,67.0
361,93.09113204375001,94.12318095208333,60.0,75.0
362,94.59433371458334,94.9324739625,50.0,71.0
363,94.63279516458334,95.03824295,54.0,75.0
364,95.02061478541667,95.45971633958334,50.0,80.0
365,94.62317980208334,95.52381875625001,38.0,85.0
366,95.43407537291667,95.57510068958334,57.0,82.0
367,96.20490693333333,96.45650891875,55.0,78.0
368,96.20650949375,96.49336780833333,59.0,78.0
369,96.58311119166667,96.83311061666667,55.0,84.0
370,96.22253509791668,97.19048158958334,43.0,82.0
371,96.98535385625,97.211314875,55.0,89.0
372,96.98375129583334,97.3074685,60.0,89.0
373,97.365160675,97.50778855208334,50.0,83.0
374,97.74817261458334,98.01099252291667,59.0,82.0
375,97.749775175,98.07990262083334,55.0,82.0
376,98.12637687291667,98.25297914583334,62.0,85.0
377,97.72733932916667,98.28983803541666,43.0,88.0
378,98.49176064791666,98.69047813958333,55.0,82.0
379,98.48855552708334,98.749772875,59.0,85.0
380,98.49817088958333,98.7786189625,43.0,85.0
381,98.4901580875,98.78663176458333,62.0,83.0
382,98.49977345,98.81067017083333,50.0,86.0
383,98.48695296666666,98.87958026875,67.0,82.0
384,98.90522123541668,99.02701582708333,43.0,84.0
385,99.28983573541667,99.90521893541667,53.0,77.0
386,99.28983573541667,99.9324624625,60.0,81.0
387,99.67445023541667,99.96611623125,48.0,82.0
388,99.86675748541667,100.26900015,56.0,89.0
389,100.05906473541667,100.36194865416667,48.0,84.0
390,100.25137198541667,100.48694836666667,53.0,83.0
391,99.28983573541667,100.55585846458334,41.0,86.0
392,100.44367923541667,100.61835832083334,56.0,87.0
393,100.63598648541667,100.85713982291666,53.0,80.0
394,100.82829373541666,101.22733127916668,58.0,89.0
395,100.82829373541666,101.49976655,46.0,96.0
396,101.21290823541666,101.50136911041668,53.0,87.0
397,101.02060098541666,101.51098447291668,50.0,70.0
398,101.40521548541668,101.70329172291667,58.0,96.0
399,101.59752273541667,101.86995800625,50.0,77.0
400,101.78982998541667,102.06867549791667,62.0,85.0
401,101.98213723541667,102.22252129791667,58.0,81.0
402,102.17444448541667,102.34111076875,53.0,80.0
403,102.75136623541667,103.14719865833334,55.0,84.0
404,102.94367348541667,103.15200633958334,58.0,91.0
405,102.36675173541667,103.24174972291667,39.0,91.0
406,102.55905898541667,103.28181373333334,46.0,78.0
407,103.13598073541667,103.37476223750001,63.0,89.0
408,103.32828798541667,103.48533890625,58.0,89.0
409,103.52059523541666,103.79303050625,55.0,85.0
410,103.71290248541666,103.84270987916668,58.0,86.0
411,104.09751698541668,104.67123361458334,51.0,81.0
412,103.90520973541668,104.72892578958334,44.0,93.0
413,104.28982423541667,104.73693859166667,56.0,85.0
414,104.48213148541667,104.76257955833334,60.0,80.0
415,104.67443873541667,104.91482279791667,63.0,84.0
416,104.86674598541667,105.23373232083334,68.0,87.0
417,105.05905323541667,105.34430898958334,56.0,85.0
418,105.25136048541667,105.43084725208334,60.0,80.0
419,105.82828223541667,106.05264069375,56.0,89.0
420,106.02058948541666,106.20808905416666,53.0,84.0
421,106.21289673541666,106.42122958958333,60.0,85.0
422,106.40520398541668,106.65199828958333,53.0,85.0
423,105.63597498541667,106.69847254166667,48.0,84.0
424,105.44366773541667,106.70488278333333,41.0,85.0
425,106.59751123541668,106.83469017708333,56.0,86.0
426,106.78981848541667,106.94045916458333,53.0,85.0
427,107.36674023541667,107.78981618541667,56.0,85.0
428,107.55904748541667,107.81545715208334,60.0,80.0
429,107.17443298541667,107.88596981041667,51.0,82.0
430,106.98212573541667,107.88757237083334,44.0,91.0
431,107.75135473541667,107.97571319375,63.0,82.0
432,107.94366198541667,108.29943039791667,68.0,84.0
433,108.13596923541667,108.41962242916667,56.0,89.0
434,108.32827648541667,108.44205827500001,60.0,80.0
435,108.90519823541668,109.17763350625,55.0,86.0
436,109.09750548541668,109.34429978958333,62.0,81.0
437,109.28981273541667,109.54622240208333,67.0,86.0
438,109.48211998541667,109.73211941041667,62.0,84.0
439,108.71289098541666,109.88115752916667,50.0,84.0
440,109.67442723541667,109.91801641875,55.0,86.0
441,108.52058373541666,109.92602922083334,43.0,84.0
442,109.86673448541667,109.97570859375,62.0,75.0
443,110.05904173541667,110.85711682291667,43.0,83.0
444,110.05904173541667,111.14397513750001,59.0,71.0
445,110.05904173541667,111.14718025833334,55.0,74.0
446,111.59749973541668,112.36672873541667,63.0,82.0
447,111.98211423541667,112.50454893125,55.0,65.0
448,112.36672873541667,112.865125025,60.0,72.0
449,112.75134323541667,113.78499470416666,55.0,57.0
450,113.13595773541667,113.83307151666666,67.0,63.0
451,111.59749973541668,113.85069968125,48.0,83.0
452,114.67441573541667,115.51575995416667,62.0,72.0
453,115.05903023541667,115.62954174375001,53.0,66.0
454,114.67441573541667,116.07505353958334,46.0,72.0
455,115.82825923541667,116.08787402291667,53.0,70.0
456,115.44364473541667,116.96928225208333,58.0,69.0
457,116.21287373541666,117.18562790833333,65.0,77.0
458,117.75133173541667,118.55902218541667,60.0,76.0
459,118.52056073541667,118.96927765208333,56.0,69.0
460,118.90517523541666,119.36350751458333,60.0,74.0
461,119.28978973541668,119.61350693958333,63.0,74.0
462,118.13594623541667,119.79940394791667,51.0,56.0
463,117.75133173541667,119.81062187083333,44.0,84.0
464,120.82824773541667,121.60068185625,58.0,64.0
465,121.59747673541668,122.11830887083333,55.0,83.0
466,121.98209123541668,122.38593646041667,58.0,88.0
467,122.36670573541667,122.81862777291667,63.0,86.0
468,121.21286223541667,123.1247168125,46.0,70.0
469,120.82824773541667,123.16478082291667,39.0,71.0
470,122.75132023541667,123.19522947083334,55.0,80.0
471,123.13593473541667,123.25933188750001,58.0,74.0
472,123.90516373541666,124.38593186041668,53.0,73.0
473,123.90516373541666,124.67759785625,60.0,78.0
474,124.28977823541668,124.86028974375,48.0,65.0
475,124.67439273541667,125.1631736625,56.0,85.0
476,125.82823623541667,126.26092754791667,53.0,64.0
477,125.44362173541667,126.33945300833334,60.0,77.0
478,126.21285073541667,126.45804247916666,65.0,77.0
479,123.90516373541666,126.55259354375,41.0,82.0
480,125.05900723541667,126.61990108125,48.0,71.0
481,127.75130873541667,127.97566719375,55.0,78.0
482,127.75130873541667,128.18400004791667,58.0,82.0
483,127.36669423541667,128.37310217708333,50.0,67.0
484,126.98207973541668,128.41637130833334,43.0,83.0
485,128.13592323541667,128.59906319583334,55.0,85.0
486,128.52053773541667,129.3073949,60.0,80.0
487,128.52053773541667,129.34265122916668,48.0,82.0
488,128.90515223541667,129.38592036041666,55.0,82.0
489,129.28976673541666,129.42918949166668,63.0,82.0
490,129.67438123541666,130.06220085625,62.0,82.0
491,130.05899573541666,130.87790410833333,60.0,80.0
492,130.82822473541668,131.25610836666667,56.0,84.0
493,131.21283923541668,131.53495387916666,60.0,82.0
494,131.98206823541668,132.13911915625002,56.0,65.0
495,132.36668273541667,132.52213109583334,56.0,83.0
496,130.44361023541668,132.53174645833334,51.0,60.0
497,130.05899573541666,132.5670027875,44.0,83.0
498,132.36668273541667,132.58783607291667,60.0,83.0
499,133.13591173541667,133.72244884791667,60.0,76.0
500,133.13591173541667,133.73526933125,55.0,75.0
501,133.90514073541667,134.32821668541666,62.0,80.0
502,133.52052623541667,134.43719079375,50.0,77.0
503,133.13591173541667,134.49808808958335,43.0,82.0
504,134.28975523541666,134.65033132916668,60.0,82.0
505,134.67436973541666,135.21443259583333,59.0,75.0
506,134.67436973541666,135.38270143958334,55.0,74.0
507,135.05898423541666,135.44039361458334,62.0,78.0
508,135.05898423541666,135.9996872,50.0,72.0
509,134.67436973541666,136.04936657291668,43.0,79.0
510,135.44359873541666,136.07340497916667,67.0,84.0
511,135.82821323541668,136.2208405375,55.0,83.0
512,136.21282773541668,136.69519842083335,60.0,77.0
513,136.21282773541668,136.87148006666666,63.0,73.0
514,136.59744223541668,136.98846697708333,55.0,69.0
515,136.98205673541668,137.40513268541667,60.0,84.0
516,137.36667123541667,137.8939136125,55.0,70.0
517,137.75128573541667,138.134297675,67.0,81.0
518,137.75128573541667,138.15032327916668,60.0,78.0
519,138.13590023541667,138.59423251458333,55.0,61.0
520,136.21282773541668,138.6246811625,48.0,85.0
521,138.52051473541667,138.64070676666668,63.0,74.0
522,138.52051473541667,138.67596309583334,60.0,75.0
523,139.28974373541666,139.89230645208335,55.0,74.0
524,139.28974373541666,139.93878070416667,62.0,78.0
525,139.67435823541666,140.08301114166667,50.0,63.0
526,140.05897273541666,140.39230530208334,58.0,79.0
527,140.44358723541666,140.92115023958334,50.0,70.0
528,140.82820173541668,141.24647000416667,62.0,77.0
529,140.82820173541668,141.27691865208334,55.0,78.0
530,141.21281623541668,141.7208278875,50.0,72.0
531,139.28974373541666,141.74326373333335,43.0,79.0
532,141.59743073541668,141.86345576458334,58.0,82.0
533,141.59743073541668,141.91794281875,55.0,76.0
534,141.98204523541668,142.1439038375,43.0,82.0
535,142.36665973541668,142.97242757291667,60.0,77.0
536,142.75127423541667,143.24806796458333,51.0,60.0
537,142.36665973541668,143.35383695208333,44.0,76.0
538,143.52050323541667,143.92915614166668,51.0,70.0
539,143.13588873541667,144.095822425,56.0,80.0
540,143.13588873541667,144.49165484791666,60.0,83.0
541,144.28973223541666,144.77370548125,51.0,70.0
542,144.67434673541666,144.80415412916668,56.0,82.0
543,143.90511773541667,144.84261557916668,44.0,78.0
544,144.67434673541666,144.87306422708335,60.0,83.0
545,145.44357573541666,146.04293333125,58.0,68.0
546,145.44357573541666,146.18556120833333,55.0,74.0
547,146.21280473541668,146.6246627625,58.0,86.0
548,146.59741923541668,147.05254639375,55.0,82.0
549,147.36664823541668,147.52369915625002,55.0,77.0
550,146.98203373541668,147.5477375625,63.0,75.0
551,145.44357573541666,147.75126273541667,39.0,82.0
552,145.82819023541668,147.75286529583335,46.0,66.0
553,147.75126273541667,147.96119815,58.0,84.0
554,147.75126273541667,147.98203143541667,55.0,84.0
555,148.52049173541667,149.15991334166668,63.0,75.0
556,148.52049173541667,149.3169642625,56.0,71.0
557,148.90510623541667,149.40510508541666,51.0,66.0
558,149.28972073541667,149.68395059791666,60.0,76.0
559,149.67433523541666,150.16792384375,51.0,59.0
560,150.05894973541666,150.56055114583333,63.0,71.0
561,150.05894973541666,150.57657675000002,56.0,74.0
562,148.52049173541667,150.95638356875,44.0,80.0
563,150.44356423541666,150.97721685416667,51.0,60.0
564,150.82817873541669,151.01407574375,56.0,71.0
565,150.82817873541669,151.06856279791668,60.0,78.0
566,151.59740773541668,152.1631115625,58.0,71.0
567,151.59740773541668,152.19516277083335,55.0,72.0
568,151.98202223541668,152.65509761041668,50.0,69.0
569,152.36663673541668,152.72561026875002,58.0,82.0
570,151.59740773541668,152.7400333125,43.0,82.0
571,152.36663673541668,152.82977669583335,62.0,78.0
572,152.75125123541667,153.23682704166666,55.0,87.0
573,153.13586573541667,153.6246466625,60.0,82.0
574,153.13586573541667,153.86823584583334,48.0,82.0
575,153.52048023541667,153.99644067916668,55.0,79.0
576,153.90509473541667,154.03490212916668,63.0,84.0
577,153.90509473541667,154.05253029375,60.0,83.0
578,154.28970923541667,154.64868276875,62.0,80.0
579,154.67432373541666,155.08938688333333,60.0,77.0
580,155.05893823541666,155.62784718333333,48.0,70.0
581,155.44355273541666,155.66310351250002,53.0,74.0
582,155.44355273541666,155.68874447916667,56.0,77.0
583,154.67432373541666,155.91150037708334,41.0,82.0
584,156.21278173541668,156.31214048125,56.0,70.0
585,156.21278173541668,156.34419168958334,53.0,72.0
586,156.21278173541668,156.41630690833333,60.0,76.0
587,156.59739623541668,157.0861771625,48.0,72.0
588,156.21278173541668,157.17431798541668,41.0,83.0
589,156.98201073541668,157.2592536875,60.0,82.0
590,156.98201073541668,157.37784315833335,65.0,82.0
591,157.75123973541668,158.18553360833334,55.0,83.0
592,157.75123973541668,158.28008467291667,60.0,83.0
593,158.32816148541667,158.57175066875,55.0,84.0
594,158.13585423541667,158.60380187708333,50.0,78.0
595,158.52046873541667,158.73841695208333,60.0,89.0
596,158.90508323541667,159.08457000208332,55.0,87.0
597,158.71277598541667,159.15508266041667,50.0,80.0
598,157.75123973541668,159.18553130833334,43.0,87.0
599,159.09739048541667,159.19033898958332,60.0,89.0
600,159.28969773541667,159.50604339166668,55.0,84.0
601,159.28969773541667,159.53328691875,59.0,93.0
602,159.48200498541667,159.94674750625,50.0,85.0
603,159.67431223541666,159.97238847291666,55.0,84.0
604,160.05892673541666,160.32655432500002,50.0,91.0
605,160.05892673541666,160.36020809375,62.0,87.0
606,160.25123398541666,160.47719500416667,55.0,83.0
607,160.44354123541666,160.72078418750002,50.0,84.0
608,159.28969773541667,160.77687380208334,43.0,83.0
609,160.25123398541666,160.78969428541666,67.0,83.0
610,160.63584848541666,160.82815573541666,55.0,80.0
611,160.82815573541666,161.35700067291668,60.0,76.0
612,160.82815573541666,161.36020579375,67.0,78.0
613,161.21277023541668,161.65507691041668,55.0,80.0
614,161.59738473541668,161.80571758958334,60.0,81.0
615,160.82815573541666,161.85379440208334,48.0,84.0
616,161.78969198541668,161.94514034583335,55.0,80.0
617,161.59738473541668,161.97238387291668,63.0,85.0
618,161.98199923541668,162.211165375,60.0,83.0
619,162.17430648541668,162.37302397708334,63.0,87.0
620,162.36661373541668,162.74321543333335,62.0,86.0
621,162.75122823541668,163.25122708541667,53.0,81.0
622,162.36661373541668,163.31212438125002,46.0,79.0
623,163.13584273541667,163.518854675,58.0,86.0
624,163.13584273541667,163.55250844375,62.0,83.0
625,163.90507173541667,164.27526319166668,58.0,70.0
626,163.90507173541667,164.37141681666668,62.0,78.0
627,164.48199348541667,164.70635194375,58.0,83.0
628,164.28968623541667,164.75603131666668,53.0,65.0
629,163.90507173541667,164.96756929166668,46.0,85.0
630,164.86660798541666,165.03006914791666,53.0,82.0
631,164.67430073541667,165.11820997083333,65.0,84.0
632,165.05891523541666,165.22077383750002,58.0,78.0
633,165.44352973541666,165.85058008125,55.0,71.0
634,165.44352973541666,165.86820824583333,58.0,75.0
635,165.44352973541666,165.88743897083333,63.0,76.0
636,165.82814423541666,166.26404066875,46.0,72.0
637,165.44352973541666,166.29288675625,39.0,89.0
638,166.21275873541668,166.33455332708334,63.0,82.0
639,166.40506598541668,166.53647593958334,46.0,83.0
640,166.21275873541668,166.59256555416667,58.0,93.0
641,166.59737323541668,166.87942386875,55.0,84.0
642,166.78968048541668,166.96115445,58.0,84.0
643,167.36660223541668,167.66147335208333,56.0,83.0
644,167.17429498541668,167.69031943958333,51.0,82.0
645,166.98198773541668,167.8457678,44.0,89.0
646,167.55890948541668,167.9707675125,63.0,88.0
647,167.75121673541668,168.01403664375002,51.0,74.0
648,167.94352398541668,168.16788244375002,60.0,82.0
649,168.13583123541667,168.41788186875002,56.0,82.0
650,168.32813848541667,168.518843175,63.0,76.0
651,168.71275298541667,169.19672623125,48.0,75.0
652,168.90506023541667,169.35698227291667,53.0,82.0
653,169.09736748541667,169.47236662291667,56.0,83.0
654,169.28967473541667,169.67909691666668,48.0,83.0
655,169.48198198541667,169.70634044375,53.0,83.0
656,168.52044573541667,169.72557116875,41.0,82.0
657,169.67428923541667,169.79287870625,56.0,79.0
658,170.05890373541666,170.25762122708335,55.0,83.0
659,170.05890373541666,170.47717200416668,60.0,83.0
660,170.44351823541666,170.55409490416667,55.0,82.0
661,170.05890373541666,170.76242775833333,43.0,86.0
662,170.63582548541666,170.83935065833333,55.0,86.0
663,170.63582548541666,170.92428636041666,60.0,87.0
664,170.82813273541666,171.05249119375,43.0,83.0
665,171.02043998541666,171.25441380625,55.0,89.0
666,171.21274723541669,171.43710569375,60.0,83.0
667,171.40505448541668,171.52043883541668,55.0,82.0
668,171.59736173541668,171.7976817875,55.0,82.0
669,171.59736173541668,171.84095091875,59.0,86.0
670,171.98197623541668,172.10697594791668,55.0,85.0
671,171.78966898541668,172.23838590208334,50.0,86.0
672,172.17428348541668,172.43550083333335,62.0,85.0
673,172.36659073541668,172.60376967708333,50.0,83.0
674,172.55889798541668,172.75441035625,55.0,81.0
675,172.55889798541668,172.98197393541668,62.0,82.0
676,172.55889798541668,173.018832825,67.0,82.0
677,171.59736173541668,173.02043538541668,43.0,83.0
678,172.75120523541668,173.02043538541668,50.0,89.0
679,172.94351248541668,173.11979413125002,55.0,83.0
680,173.13581973541667,173.32331930416666,60.0,78.0
681,173.13581973541667,173.45633181875002,67.0,82.0
682,173.52043423541667,173.64863906875001,60.0,80.0
683,173.32812698541667,173.76722853958333,55.0,78.0
684,173.71274148541667,173.84895912083334,63.0,91.0
685,173.13581973541667,174.16947120416668,48.0,86.0
686,173.90504873541667,174.19190705,55.0,81.0
687,174.09735598541667,174.22235569791667,60.0,85.0
688,174.28966323541667,174.44511159583334,63.0,91.0
689,174.48197048541667,174.62780348333334,60.0,78.0
690,174.67427773541667,174.90184131458335,62.0,83.0
691,175.05889223541666,175.172674025,58.0,83.0
692,174.86658498541667,175.35376335208335,53.0,84.0
693,174.67427773541667,175.57491668958335,46.0,84.0
694,175.25119948541666,175.80568538958335,58.0,74.0
695,175.82812123541666,175.98356959583333,53.0,84.0
696,175.25119948541666,176.04927457291666,62.0,84.0
697,176.02042848541666,176.19029988958334,58.0,85.0
698,176.59735023541668,176.711132025,55.0,84.0
699,176.40504298541669,176.86818294583333,50.0,84.0
700,176.78965748541668,177.03164410833335,55.0,82.0
701,176.78965748541668,177.04125947083335,58.0,87.0
702,176.98196473541668,177.17427198541668,50.0,83.0
703,176.2127357354167,177.27202817083335,43.0,85.0
704,177.17427198541668,177.30407937916667,55.0,81.0
705,177.17427198541668,177.403438125,58.0,83.0
706,177.17427198541668,177.49798918958334,62.0,84.0
707,177.36657923541668,177.50600199166666,43.0,82.0
708,177.55888648541668,177.81369359166666,55.0,83.0
709,177.75119373541668,177.81369359166666,55.0,83.0
710,177.75119373541668,177.95311634791668,63.0,83.0
711,178.13580823541668,178.24638490416666,60.0,82.0
712,177.94350098541668,178.3745897375,55.0,75.0
713,178.32811548541667,178.52362785625002,60.0,84.0
714,178.32811548541667,178.52362785625002,63.0,88.0
715,178.52042273541667,178.75279399583334,55.0,82.0
716,177.75119373541668,178.78965288541667,48.0,91.0
717,178.71272998541667,178.89702443333334,63.0,91.0
718,178.71272998541667,178.9515114875,60.0,85.0
719,179.09734448541667,179.29606197708333,62.0,82.0
720,179.28965173541667,179.40824120625,60.0,83.0
721,179.67426623541667,179.79445826666668,56.0,83.0
722,179.48195898541667,179.93708614375,51.0,71.0
723,179.28965173541667,180.02041928541666,44.0,93.0
724,179.86657348541667,180.09253450416668,56.0,84.0
725,179.86657348541667,180.12298315208335,60.0,89.0
726,180.05888073541666,180.25759822708335,51.0,82.0
727,180.25118798541666,180.39702098333333,56.0,83.0
728,180.25118798541666,180.70311002291666,60.0,84.0
729,180.63580248541666,180.77843036250002,56.0,83.0
730,181.02041698541666,181.45951853958334,48.0,72.0
731,181.21272423541666,181.47394158333333,53.0,83.0
732,181.40503148541669,181.78483830416667,60.0,83.0
733,181.59733873541668,181.9515045875,48.0,86.0
734,181.78964598541668,181.98195323541668,53.0,83.0
735,180.82810973541666,182.07169661875,41.0,84.0
736,181.98195323541668,182.24477314375,60.0,83.0
737,182.17426048541668,182.31368324166667,53.0,83.0
738,182.75118223541668,182.86015634375,55.0,84.0
739,182.55887498541668,183.00278422083335,50.0,78.0
740,182.94348948541668,183.1438095375,55.0,84.0
741,182.94348948541668,183.32970654583335,62.0,84.0
742,183.13579673541668,183.48194978541667,50.0,83.0
743,183.32810398541667,183.52041123541667,55.0,85.0
744,182.36656773541668,183.7015005625,43.0,83.0
745,183.52041123541667,183.749577375,62.0,75.0
746,183.71271848541667,183.75438505625002,55.0,56.0
747,183.77682090208333,183.97553839375,55.0,71.0
748,183.84092331875001,184.22553781875,60.0,76.0
749,183.91143597708333,184.29605047708333,63.0,76.0
750,184.09733298541667,184.3745759375,55.0,75.0
751,184.28964023541667,184.53162685833334,60.0,81.0
752,184.48194748541667,184.78963908541667,62.0,78.0
753,184.67425473541667,185.05886923541667,63.0,96.0
754,183.88739757083334,185.23354832083334,36.0,81.0
755,184.67425473541667,185.30085585833334,48.0,84.0
756,185.05886923541667,185.37136851666668,67.0,82.0
757,185.05886923541667,185.42104788958335,72.0,84.0
758,185.44348373541666,185.70149596250002,56.0,77.0
759,185.44348373541666,185.80566238958335,63.0,75.0
760,185.82809823541666,186.25277674583333,56.0,85.0
761,186.02040548541666,186.29284075625,60.0,82.0
762,186.21271273541666,186.4338660729167,63.0,84.0
763,185.63579098541666,186.60373747708334,51.0,82.0
764,185.44348373541666,186.61655796041669,44.0,89.0
765,186.4050199854167,186.69348086041668,68.0,85.0
766,186.59732723541669,186.90822395625,56.0,86.0
767,186.78963448541668,186.97553149375,60.0,81.0
768,187.55886348541668,187.65822223125,58.0,89.0
769,187.36655623541668,187.65982479166667,55.0,89.0
770,187.17424898541668,187.7687989,50.0,81.0
771,187.75117073541668,187.94508054583335,55.0,83.0
772,187.75117073541668,188.00277272083335,58.0,84.0
773,186.98194173541668,188.00597784166666,43.0,84.0
774,187.94347798541668,188.08290074166666,50.0,86.0
775,187.75117073541668,188.15822108125002,62.0,87.0
776,188.13578523541668,188.34091296875002,55.0,87.0
777,188.52039973541667,188.77039916041667,60.0,76.0
778,188.52039973541667,188.77200172083334,56.0,84.0
779,188.52039973541667,188.78321964375002,63.0,83.0
780,188.71270698541667,189.18065462708333,51.0,82.0
781,188.90501423541667,189.18706486875,56.0,88.0
782,189.09732148541667,189.19507767083334,60.0,83.0
783,188.52039973541667,189.25116728541667,44.0,99.0
784,189.09732148541667,189.25597496666668,63.0,87.0
785,189.28962873541667,189.41623100833334,51.0,84.0
786,189.48193598541667,189.61975618125,56.0,86.0
787,189.48193598541667,189.66943555416668,60.0,86.0
788,189.48193598541667,189.68065347708333,63.0,87.0
789,189.67424323541667,189.77520454166668,44.0,91.0
790,189.48193598541667,189.85853768333334,68.0,83.0
791,189.86655048541667,190.02520396666668,56.0,89.0
792,190.05885773541667,190.36975445625,43.0,84.0
793,190.44347223541666,190.53642073958335,50.0,85.0
794,190.44347223541666,190.55404890416668,43.0,82.0
795,190.44347223541666,190.66943325416668,55.0,83.0
796,190.44347223541666,190.68225373750002,59.0,83.0
797,190.82808673541666,191.00597094166667,55.0,78.0
798,190.82808673541666,191.06206055625,59.0,82.0
799,191.21270123541666,191.32808558541666,55.0,82.0
800,190.82808673541666,191.59891829583333,62.0,83.0
801,190.82808673541666,191.60532853750001,50.0,89.0
802,191.21270123541666,191.61975158125,59.0,71.0
803,190.82808673541666,191.63096950416667,43.0,86.0
804,191.5973157354167,192.12616067291668,60.0,76.0
805,191.5973157354167,192.12936579375,67.0,78.0
806,191.98193023541668,192.42423691041668,55.0,80.0
807,192.36654473541668,192.57487758958334,60.0,81.0
808,191.5973157354167,192.62295440208334,48.0,84.0
809,192.55885198541668,192.71430034583335,55.0,80.0
810,192.36654473541668,192.74154387291668,63.0,85.0
811,192.75115923541668,192.980325375,60.0,83.0
812,192.94346648541668,193.14218397708333,63.0,87.0
813,193.13577373541668,193.51237543333335,62.0,86.0
814,193.52038823541668,194.02038708541667,53.0,81.0
815,193.13577373541668,194.08128438125001,46.0,79.0
816,193.90500273541667,194.288014675,58.0,86.0
817,193.90500273541667,194.32166844375,62.0,83.0
818,194.67423173541667,195.04442319166668,58.0,70.0
819,194.67423173541667,195.14057681666668,62.0,78.0
820,195.25115348541667,195.47551194375,58.0,83.0
821,195.05884623541667,195.52519131666668,53.0,65.0
822,194.67423173541667,195.73672929166668,46.0,85.0
823,195.63576798541666,195.79922914791666,53.0,82.0
824,195.44346073541666,195.88736997083333,65.0,84.0
825,195.82807523541666,195.98993383750002,58.0,78.0
826,196.21268973541666,196.61974008125,55.0,71.0
827,196.21268973541666,196.63736824583333,58.0,75.0
828,196.21268973541666,196.65659897083333,63.0,76.0
829,196.5973042354167,197.03320066875,46.0,72.0
830,196.21268973541666,197.06204675625,39.0,89.0
831,196.98191873541668,197.10371332708334,63.0,82.0
832,197.17422598541668,197.30563593958334,46.0,83.0
833,196.98191873541668,197.36172555416667,58.0,93.0
834,197.36653323541668,197.64858386875,55.0,84.0
835,197.55884048541668,197.73031445,58.0,84.0
836,198.13576223541668,198.43063335208333,56.0,83.0
837,197.94345498541668,198.45947943958333,51.0,82.0
838,197.75114773541668,198.6149278,44.0,89.0
839,198.32806948541668,198.7399275125,63.0,88.0
840,198.52037673541668,198.78319664375002,51.0,74.0
841,198.71268398541667,198.93704244375002,60.0,82.0
842,198.90499123541667,199.18704186875001,56.0,82.0
843,199.09729848541667,199.288003175,63.0,76.0
844,199.48191298541667,199.96588623125,48.0,75.0
845,199.67422023541667,200.12614227291667,53.0,82.0
846,199.86652748541667,200.24152662291667,56.0,83.0
847,200.05883473541667,200.44825691666668,48.0,83.0
848,200.25114198541667,200.47550044375,53.0,83.0
849,199.28960573541667,200.49473116875,41.0,82.0
850,200.44344923541667,200.56203870625,56.0,79.0
851,200.82806373541666,201.02678122708335,55.0,83.0
852,200.82806373541666,201.24633200416667,60.0,83.0
853,201.21267823541666,201.32325490416667,55.0,82.0
854,200.82806373541666,201.53158775833333,43.0,86.0
855,201.40498548541666,201.60851065833333,55.0,86.0
856,201.40498548541666,201.6934463604167,60.0,87.0
857,201.5972927354167,201.82165119375,43.0,83.0
858,201.7895999854167,202.02357380625,55.0,89.0
859,201.98190723541668,202.20626569375,60.0,83.0
860,202.17421448541668,202.28959883541668,55.0,82.0
861,202.36652173541668,202.5668417875,55.0,82.0
862,202.36652173541668,202.61011091875,59.0,86.0
863,202.75113623541668,202.87613594791668,55.0,85.0
864,202.55882898541668,203.00754590208334,50.0,86.0
865,202.94344348541668,203.20466083333335,62.0,85.0
866,203.13575073541668,203.37292967708333,50.0,83.0
867,203.32805798541668,203.52357035625002,55.0,81.0
868,203.32805798541668,203.75113393541668,62.0,82.0
869,203.32805798541668,203.787992825,67.0,82.0
870,202.36652173541668,203.78959538541667,43.0,83.0
871,203.52036523541668,203.78959538541667,50.0,89.0
872,203.71267248541668,203.88895413125002,55.0,83.0
873,203.90497973541667,204.09247930416666,60.0,78.0
874,203.90497973541667,204.22549181875002,67.0,82.0
875,204.28959423541667,204.41779906875,60.0,80.0
876,204.09728698541667,204.53638853958333,55.0,78.0
877,204.48190148541667,204.61811912083334,63.0,91.0
878,203.90497973541667,204.93863120416668,48.0,86.0
879,204.67420873541667,204.96106705,55.0,81.0
880,204.86651598541667,204.99151569791667,60.0,85.0
881,205.05882323541667,205.21427159583334,63.0,91.0
882,205.25113048541667,205.39696348333334,60.0,78.0
883,205.44343773541667,205.67100131458335,62.0,83.0
884,205.82805223541666,205.94183402500002,58.0,83.0
885,205.63574498541666,206.12292335208335,53.0,84.0
886,205.44343773541667,206.34407668958335,46.0,84.0
887,206.02035948541666,206.57484538958334,58.0,74.0
888,206.59728123541666,206.75272959583333,53.0,84.0
889,206.02035948541666,206.8184345729167,62.0,84.0
890,206.7895884854167,206.95945988958334,58.0,85.0
891,207.36651023541668,207.480292025,55.0,84.0
892,207.17420298541668,207.63734294583335,50.0,84.0
893,207.55881748541668,207.80080410833335,55.0,82.0
894,207.55881748541668,207.81041947083335,58.0,87.0
895,207.75112473541668,207.94343198541668,50.0,83.0
896,206.98189573541669,208.04118817083335,43.0,85.0
897,207.94343198541668,208.07323937916667,55.0,81.0
898,207.94343198541668,208.172598125,58.0,83.0
899,207.94343198541668,208.26714918958334,62.0,84.0
900,208.13573923541668,208.27516199166666,43.0,82.0
901,208.32804648541668,208.58285359166666,55.0,83.0
902,208.52035373541668,208.58285359166666,55.0,83.0
903,208.52035373541668,208.72227634791668,63.0,83.0
904,208.90496823541667,209.01554490416666,60.0,82.0
905,208.71266098541668,209.1437497375,55.0,75.0
906,209.09727548541667,209.29278785625002,60.0,84.0
907,209.09727548541667,209.29278785625002,63.0,88.0
908,209.28958273541667,209.52195399583334,55.0,82.0
909,208.52035373541668,209.55881288541667,48.0,91.0
910,209.48188998541667,209.66618443333334,63.0,91.0
911,209.48188998541667,209.7206714875,60.0,85.0
912,209.86650448541667,210.06522197708335,62.0,82.0
913,210.05881173541667,210.17740120625,60.0,83.0
914,210.44342623541667,210.56361826666668,56.0,83.0
915,210.25111898541667,210.70624614375,51.0,71.0
916,210.05881173541667,210.78957928541666,44.0,93.0
917,210.63573348541667,210.86169450416668,56.0,84.0
918,210.63573348541667,210.89214315208335,60.0,89.0
919,210.82804073541666,211.02675822708335,51.0,82.0
920,211.02034798541666,211.16618098333333,56.0,83.0
921,211.02034798541666,211.47227002291666,60.0,84.0
922,211.40496248541666,211.54759036250002,56.0,83.0
923,211.7895769854167,212.22867853958334,48.0,72.0
924,211.9818842354167,212.24310158333333,53.0,83.0
925,212.17419148541669,212.55399830416667,60.0,83.0
926,212.36649873541668,212.7206645875,48.0,86.0
927,212.55880598541668,212.75111323541668,53.0,83.0
928,211.59726973541666,212.84085661875,41.0,84.0
929,212.75111323541668,213.01393314375,60.0,83.0
930,212.94342048541668,213.08284324166667,53.0,83.0
931,213.52034223541668,213.62931634375002,55.0,84.0
932,213.32803498541668,213.77194422083335,50.0,78.0
933,213.71264948541668,213.9129695375,55.0,84.0
934,213.71264948541668,214.09886654583335,62.0,84.0
935,213.90495673541668,214.25110978541667,50.0,83.0
936,214.09726398541667,214.28957123541667,55.0,85.0
937,213.13572773541668,214.4706605625,43.0,83.0
938,214.28957123541667,214.518737375,62.0,75.0
939,214.48187848541667,214.52354505625001,55.0,56.0
940,214.54598090208333,214.74469839375,55.0,71.0
941,214.61008331875001,214.99469781875,60.0,76.0
942,214.68059597708333,215.06521047708333,63.0,76.0
943,214.86649298541667,215.1437359375,55.0,75.0
944,215.05880023541667,215.30078685833334,60.0,81.0
945,215.25110748541667,215.55879908541667,62.0,78.0
946,215.44341473541667,215.82802923541666,63.0,96.0
947,214.65655757083334,216.00270832083334,36.0,81.0
948,215.44341473541667,216.07001585833333,48.0,84.0
949,215.82802923541666,216.14052851666668,67.0,82.0
950,215.82802923541666,216.19020788958335,72.0,84.0
951,216.59725823541666,216.99469321875,53.0,82.0
952,216.78956548541666,217.0299495479167,60.0,84.0
953,216.9818727354167,217.42578197083333,65.0,84.0
954,217.17417998541669,217.46744854166667,60.0,85.0
955,216.40495098541666,217.54597400208334,48.0,78.0
956,216.21264373541666,217.58123033125,41.0,83.0
957,217.36648723541668,217.63571738541668,56.0,83.0
958,217.55879448541668,217.76712733958334,53.0,81.0
959,218.13571623541668,218.38251053958334,58.0,80.0
960,218.32802348541668,218.61007411875002,55.0,86.0
961,218.52033073541668,218.76071479791668,67.0,87.0
962,217.94340898541668,218.91936827916666,50.0,76.0
963,217.75110173541668,218.9321887625,43.0,83.0
964,218.71263798541668,218.99308605833335,62.0,79.0
965,218.90494523541668,219.18539330833335,58.0,81.0
966,219.09725248541667,219.30879046041667,55.0,84.0
967,219.65173838958333,220.28635231458335,56.0,74.0
968,220.07160921875,220.326416325,63.0,79.0
969,219.84885332083334,220.33282656666668,60.0,77.0
970,219.47866186458333,220.37930081875,51.0,75.0
971,219.28635461458333,220.39051874166668,44.0,89.0
972,220.52673637708335,220.78635116458335,56.0,85.0
973,220.29115999583334,220.7975690875,68.0,86.0
974,220.70942826458335,220.903338075,60.0,77.0
975,221.38090107916668,221.74628485416667,58.0,79.0
976,221.65173378958335,221.82000263333333,62.0,78.0
977,221.91295113750002,222.03474572916667,58.0,74.0
978,222.00269452083333,222.11166862916667,62.0,71.0
979,222.08602766250002,222.2222452979167,65.0,78.0
980,220.9129534375,222.24948882500001,46.0,86.0
981,221.15333750000002,222.25429650625,53.0,82.0
982,223.00749990208334,223.3744862375,36.0,84.0
983,223.2398711625,223.38730672083335,43.0,78.0
984,223.39531952291668,223.53313971875,48.0,74.0
985,223.51070387291668,223.61647286041668,50.0,82.0
986,223.63089590416666,223.70461368333335,52.0,75.0
987,223.69499832083335,224.03474112916666,48.0,87.0
988,223.86326716458333,224.04435649166666,55.0,72.0
989,223.98666431666666,224.13730499583335,60.0,71.0
990,224.11807427083335,224.26711238958333,62.0,74.0
991,224.26550982916666,224.35365065208333,64.0,82.0
992,224.81038037083334,224.98185433541667,72.0,73.0
993,225.00268762083334,225.10044380625,74.0,82.0
994,225.2014051125,225.37928931875,76.0,81.0
995,225.42095588958335,225.54595560208335,79.0,82.0
996,225.61967338125,225.76069869791667,84.0,83.0
997,225.864865125,225.96101875,86.0,82.0
998,226.15332600000002,226.27832571250002,88.0,82.0
999,226.48665856666668,226.64691460833333,91.0,72.0
1000,224.44980427708333,227.14691345833333,60.0,78.0
1001,224.66775249375002,227.1645416229167,67.0,59.0
