,start,end,pitch,velocity
0,15.58083590625,15.717992981250001,67.0,76.0
1,15.83021240625,16.0078931625,69.0,81.0
2,16.07958890625,16.47651316875,74.0,85.0
3,16.57834190625,16.84434350625,72.0,74.0
4,17.07709490625,17.48440985625,74.0,82.0
5,17.57584790625,17.89380294375,72.0,76.0
6,18.07460090625,18.17435150625,74.0,85.0
7,18.323977406250002,18.44866565625,79.0,82.0
8,18.57335390625,18.8092225125,74.0,74.0
9,18.82273040625,18.9692391,72.0,81.0
10,19.07210690625,19.4866953375,74.0,80.0
11,19.57085990625,19.9771357875,67.0,78.0
12,20.06961290625,20.456146481250002,76.0,81.0
13,20.56836590625,20.92788369375,69.0,76.0
14,21.067118906250002,21.4941761625,69.0,81.0
15,21.56587190625,21.9388975875,76.0,81.0
16,22.06462490625,22.556104425,74.0,81.0
17,22.56337790625,22.9925133,67.0,77.0
18,23.06213090625,23.5640011125,74.0,83.0
19,23.56088390625,23.68141588125,67.0,77.0
20,23.810260406250002,23.977550475,69.0,79.0
21,24.05963690625,24.472147200000002,74.0,84.0
22,24.55838990625,24.774516206250002,67.0,74.0
23,25.05714290625,25.44991089375,74.0,81.0
24,25.55589590625,25.9164527625,67.0,75.0
25,26.05464890625,26.203235737500002,74.0,80.0
26,26.304025406250002,26.4609247875,79.0,80.0
27,26.553401906250002,26.695754325,74.0,76.0
28,26.80277840625,26.98773264375,72.0,79.0
29,27.05215490625,27.423102450000002,74.0,81.0
30,27.55090790625,27.80028440625,67.0,74.0
31,28.05485625,28.44450703125,76.0,77.0
32,28.54841390625,28.9214395875,69.0,81.0
33,29.047166906250002,29.454481856250002,69.0,80.0
34,29.54591990625,29.92518,76.0,81.0
35,30.04467290625,30.32106519375,74.0,80.0
36,30.54342590625,30.9330766875,79.0,74.0
37,31.04217890625,31.57418210625,74.0,82.0
38,31.54093190625,31.738354968750002,72.0,81.0
39,31.790308406250002,31.9534422,74.0,81.0
40,32.03968490625,32.4023199,79.0,81.0
41,32.53843790625,32.935362168750004,76.0,82.0
42,33.037190906250004,33.43411516875,74.0,82.0
43,33.53594390625,33.97650905625,76.0,80.0
44,34.03469690625,34.2331590375,74.0,82.0
45,34.28407340625,34.51266853125,72.0,73.0
46,34.53344990625,35.0602577625,69.0,75.0
47,35.03220290625,35.43640065,72.0,81.0
48,35.53095590625,35.67226925625,67.0,81.0
49,35.780332406250004,35.94242713125,69.0,79.0
50,36.02970890625,36.46819591875,76.0,82.0
51,36.52846190625,36.92746430625,74.0,86.0
52,37.02721490625,37.52804604375,79.0,81.0
53,37.52596790625,37.68806263125,81.0,76.0
54,37.77534440625,38.77285040625,76.0,74.0
55,38.77285040625,39.40044793125,74.0,81.0
56,39.52097990625,39.641511881250004,72.0,80.0
57,39.77035640625,39.995834325000004,74.0,82.0
58,40.01973290625,40.409383687500004,79.0,82.0
59,40.51848590625,40.97359801875,76.0,78.0
60,41.01723890625,41.44533523125,74.0,81.0
61,41.51599190625,41.97006495,76.0,79.0
62,42.01474490625,42.17476149375,74.0,80.0
63,42.26412140625,42.492716531250004,72.0,80.0
64,42.51349790625,42.94782864375,69.0,80.0
65,43.01225090625,43.42787840625,72.0,78.0
66,43.511003906250004,43.66686421875,67.0,79.0
67,43.76038040625,43.962998812500004,69.0,80.0
68,44.009756906250004,44.4222672,76.0,74.0
69,44.50850990625,45.0062238375,72.0,75.0
70,45.00726290625,45.523680075,69.0,76.0
71,45.50601590625,46.02762841875,76.0,81.0
72,46.00476890625,47.53012183125,72.0,76.0
73,49.49603990625,49.63319698125,67.0,76.0
74,49.74541640625,49.9230971625,69.0,81.0
75,49.99479290625,50.39171716875,74.0,85.0
76,50.49354590625,50.75954750625,72.0,74.0
77,50.99229890625,51.39961385625,74.0,82.0
78,51.49105190625,51.80900694375,72.0,76.0
79,51.98980490625,52.08955550625,74.0,85.0
80,52.23918140625,52.36386965625,79.0,82.0
81,52.48855790625,52.7244265125,74.0,74.0
82,52.73793440625,52.8844431,72.0,81.0
83,52.98731090625,53.4018993375,74.0,80.0
84,53.48606390625,53.8923397875,67.0,78.0
85,53.98481690625,54.37135048125,76.0,81.0
86,54.483569906250004,54.84308769375,69.0,76.0
87,54.98232290625,55.4093801625,69.0,81.0
88,55.48107590625,55.854101587500004,76.0,81.0
89,55.97982890625,56.471308425000004,74.0,81.0
90,56.47858190625,56.9077173,67.0,77.0
91,56.97733490625,57.479205112500004,74.0,83.0
92,57.47608790625,57.59661988125,67.0,77.0
93,57.72546440625,57.892754475000004,69.0,79.0
94,57.97484090625,58.3873512,74.0,84.0
95,58.47359390625,58.68972020625,67.0,74.0
96,58.97234690625,59.365114893750004,74.0,81.0
97,59.471099906250004,59.8316567625,67.0,75.0
98,59.969852906250004,60.118439737500005,74.0,80.0
99,60.21922940625,60.3761287875,79.0,80.0
100,60.46860590625,60.610958325,74.0,76.0
101,60.71798240625,60.90293664375,72.0,79.0
102,60.96735890625,61.338306450000005,74.0,81.0
103,61.46611190625,61.71548840625,67.0,74.0
104,61.97006025,62.35971103125,76.0,77.0
105,62.46361790625,62.8366435875,69.0,81.0
106,62.96237090625,63.36968585625,69.0,80.0
107,63.46112390625,63.840384,76.0,81.0
108,63.95987690625,64.20925340625,74.0,80.0
109,64.20925340625,64.5989041875,79.0,74.0
110,64.70800640625,65.24000960625,79.0,82.0
111,65.20675940625,65.45613590625,74.0,81.0
112,65.45613590625,65.65355896875,72.0,81.0
113,65.70551240625,65.8686462,74.0,81.0
114,65.95488890625,66.3175239,79.0,81.0
115,66.45364190625,66.85056616875,76.0,82.0
116,66.95239490625,67.34931916875,74.0,82.0
117,67.45114790625,67.89171305625,76.0,80.0
118,67.94990090625001,68.1483630375,74.0,82.0
119,68.19927740625,68.42787253125,72.0,73.0
120,68.44865390625,68.9754617625,69.0,75.0
121,68.94740690625,69.35160465,72.0,81.0
122,69.44615990625,69.58747325625001,67.0,81.0
123,69.69553640625,69.85763113125,69.0,79.0
124,69.94491290625,70.38339991875,76.0,82.0
125,70.44366590625,70.84266830625,74.0,86.0
126,70.94241890625,71.44325004375,79.0,81.0
127,71.44117190625,71.60326663125001,81.0,76.0
128,71.69054840625,72.68805440625,76.0,74.0
129,72.68805440625,73.31565193125,74.0,81.0
130,73.43618390625001,73.55671588125,72.0,80.0
131,73.68556040625,73.911038325,74.0,82.0
132,73.93493690625,74.3245876875,79.0,82.0
133,74.43368990625,74.88880201875,76.0,78.0
134,74.93244290625,75.36053923125,74.0,81.0
135,75.43119590625,75.88526895,76.0,79.0
136,75.92994890625,76.08996549375,74.0,80.0
137,76.17932540625,76.40792053125,72.0,80.0
138,76.42870190625,76.86303264375,69.0,80.0
139,76.92745490625,77.34308240625,72.0,78.0
140,77.42620790625,77.58206821875,67.0,79.0
141,77.67558440625,77.8782028125,69.0,80.0
142,77.92496090625,78.3374712,76.0,74.0
143,78.42371390625,78.9214278375,72.0,75.0
144,78.92246690625001,79.438884075,69.0,76.0
145,79.42121990625,79.94283241875,76.0,81.0
146,79.91997290625,81.44532583125,72.0,76.0
147,83.41124390625001,83.60866696875,72.0,81.0
148,83.66062040625,83.8237542,74.0,81.0
149,83.90999690625,84.27263190000001,79.0,81.0
150,84.40874990625,84.80567416875,76.0,82.0
151,84.90750290625,85.30442716875,74.0,82.0
152,85.40625590625,85.84682105625001,76.0,80.0
153,85.90500890625,86.1034710375,74.0,82.0
154,86.15438540625,86.38298053125,72.0,73.0
155,86.40376190625,86.9305697625,69.0,75.0
156,86.90251490625,87.30671265000001,72.0,81.0
157,87.40126790625,87.54258125625,67.0,81.0
158,87.65064440625,87.81273913125,69.0,79.0
159,87.90002090625,88.33850791875,76.0,82.0
160,88.39877390625,88.79777630625,74.0,86.0
161,88.89752690625001,89.39835804375001,79.0,81.0
162,89.39627990625,89.55837463125,81.0,76.0
163,89.64565640625,90.39378590625,76.0,74.0
164,90.39378590625,90.64316240625,69.0,81.0
165,90.64316240625,91.27075993125,74.0,81.0
166,91.39129190625,91.51182388125,72.0,80.0
167,91.64066840625,91.866146325,74.0,82.0
168,91.89004490625,92.2796956875,79.0,82.0
169,92.38879790625,92.84391001875,76.0,78.0
170,92.88755090625,93.31564723125,74.0,81.0
171,93.38630390625,93.84037695,76.0,79.0
172,93.88505690625,94.04507349375,77.0,80.0
173,94.13443340625,94.36302853125,76.0,80.0
174,94.38380990625001,94.81814064375,74.0,80.0
175,94.88256290625,95.29819040625,72.0,78.0
176,95.38131590625,95.53717621875,67.0,79.0
177,95.63069240625,95.8333108125,69.0,80.0
178,95.88006890625,96.2925792,76.0,74.0
179,96.37882190625,96.8765358375,72.0,75.0
180,96.87757490625,97.393992075,69.0,76.0
181,97.37632790625,97.89794041875,76.0,81.0
182,97.87508090625,99.40043383125,72.0,76.0
183,101.36635190625,101.55546241875,72.0,79.0
184,101.61572840625,101.87133931875,74.0,81.0
185,101.86510490625,102.62985950625,76.0,82.0
186,102.61323440625,103.3935750375,79.0,80.0
187,103.36136390625,103.84764808125,81.0,79.0
188,103.86011690625,104.68721563125,74.0,82.0
189,104.60824640625,105.40313400000001,76.0,79.0
190,105.35637590625001,105.61614309375,77.0,82.0
191,105.60575240625,106.10450540625,76.0,81.0
192,106.10450540625,107.668303875,72.0,75.0
193,107.85014090625,108.38006596875,76.0,81.0
194,108.34889390625,108.624247125,79.0,80.0
195,108.59827040625,109.3578296625,76.0,82.0
196,109.34639990625,109.87216869375,74.0,81.0
197,109.84515290625001,111.76950823125,76.0,79.0
198,113.08704740625001,113.41954940625,76.0,76.0
199,113.33642390625,113.59099575,69.0,75.0
200,113.58580040625,114.75371368125,72.0,73.0
201,117.32644790625,117.52387096875,72.0,81.0
202,117.57582440625,117.7389582,74.0,81.0
203,117.82520090625,118.1878359,79.0,81.0
204,118.32395390625,118.72087816875,76.0,82.0
205,118.82270690625,119.21963116875,74.0,82.0
206,119.32145990625,119.76202505625,76.0,80.0
207,119.82021290625,120.0186750375,74.0,82.0
208,120.06958940625,120.29818453125,72.0,73.0
209,120.31896590625,120.8457737625,69.0,75.0
210,120.81771890625001,121.22191665,72.0,81.0
211,121.31647190625,121.45778525625,67.0,81.0
212,121.56584840625,121.72794313125,69.0,79.0
213,121.81522490625001,122.25371191875,76.0,82.0
214,122.31397790625,122.71298030625,74.0,86.0
215,122.81273090625,123.31356204375,79.0,81.0
216,123.31148390625,123.47357863125,81.0,76.0
217,123.56086040625,124.30898990625,76.0,74.0
218,124.30898990625,124.55836640625,69.0,81.0
219,124.55836640625,125.18447586875001,74.0,81.0
220,125.30381739375001,125.42315891875,72.0,80.0
221,125.55073089375001,125.77398185000001,74.0,82.0
222,125.79764439375,126.1834467375,79.0,82.0
223,126.29147139375,126.74208853125,76.0,78.0
224,126.78529839375001,127.20916656875,74.0,81.0
225,127.27912539375001,127.728713725,76.0,79.0
226,127.77295239375,127.93138855625001,77.0,80.0
227,128.01986589375,128.24749396458333,76.0,80.0
228,128.26819788125,128.70208743125,74.0,80.0
229,128.76667076458332,129.18536728541665,72.0,78.0
230,129.26922445208334,129.42704073958333,67.0,79.0
231,129.52197742708333,129.7276735833333,69.0,80.0
232,129.77514192708333,130.19391820416666,76.0,74.0
233,130.28147092708332,130.786745075,72.0,75.0
234,130.78779992708334,131.3120614125,69.0,76.0
235,131.29412892708334,131.82366467291666,76.0,81.0
236,131.80045792708333,133.34517860208334,72.0,76.0
237,135.3170858833333,135.62453904583333,67.0,80.0
238,135.57381445,135.87091565416665,69.0,81.0
239,135.87609163333332,136.39990072499998,76.0,81.0
240,136.4102526833333,136.96511765,72.0,74.0
241,136.921639425,137.56967201666666,77.0,80.0
242,137.542756925,138.16698001249998,76.0,80.0
243,138.15145207499998,139.66076759999999,72.0,74.0
