,start,end,pitch,velocity
0,16.731647756250002,16.98524359375,72.0,96.0
1,16.95874850625,17.206666825,74.0,70.0
2,17.185849256250002,17.97313185625,76.0,102.0
3,17.86715150625,19.05943044375,67.0,95.0
4,20.13815900625,20.2611719125,67.0,90.0
5,20.36525975625,20.74376100625,67.0,90.0
6,20.81946125625,21.11090721875,65.0,78.0
7,21.27366275625,21.47805343125,64.0,88.0
8,21.50076350625,21.96632004375,65.0,95.0
9,21.95496500625,22.2596585125,74.0,102.0
10,22.40916650625,22.869045525,74.0,102.0
11,22.86336800625,23.08289873125,72.0,79.0
12,23.31756950625,23.54088524375,74.0,112.0
13,24.90727475625,24.964049943750002,72.0,83.0
14,25.134375506250002,25.45610156875,77.0,107.0
15,25.588577006250002,25.7078049,76.0,117.0
16,25.81567775625,26.230136625,77.0,112.0
17,26.496980006250002,26.71651073125,76.0,97.0
18,26.72408075625,26.9530740125,77.0,90.0
19,27.17828225625,27.5586760125,76.0,100.0
20,27.63248375625,27.774421725,74.0,78.0
21,27.859584506250002,28.128320393750002,74.0,122.0
22,28.31378600625,28.476541543750002,72.0,102.0
23,28.54088675625,30.18736719375,76.0,112.0
24,31.26609575625,31.362613575,72.0,93.0
25,31.49319650625,31.688124650000002,74.0,97.0
26,31.72029725625,32.3277917625,76.0,112.0
27,32.40159950625,34.35088094375,72.0,96.0
28,34.672607006250004,34.784264875,72.0,78.0
29,35.12680850625,35.30848910625,72.0,96.0
30,35.35390925625,35.59993506875,69.0,86.0
31,35.80811075625,35.919768625,72.0,90.0
32,36.03521150625,36.44777786875,74.0,107.0
33,36.489413006250004,36.73165380625,72.0,73.0
34,36.71651375625,37.2748031,74.0,93.0
35,37.17071525625,37.45080618125,76.0,100.0
36,37.62491675625,38.68093524375,74.0,102.0
37,39.44172275625,39.5760907,72.0,88.0
38,39.66882350625,39.94134440625,77.0,107.0
39,40.12302500625,40.2763180125,76.0,95.0
40,40.35012575625,40.68131435,77.0,97.0
41,41.03142800625,41.51212459375,76.0,102.0
42,41.48562950625,41.8281731375,77.0,99.0
43,41.93983100625,42.157469225,76.0,102.0
44,42.39403250625,42.5548955375,74.0,102.0
45,42.62113325625,43.213487712500005,76.0,90.0
46,43.30243550625,45.155199125,72.0,97.0
47,46.02764450625,46.184722525,72.0,93.0
48,46.254745256250004,46.51212610625,74.0,95.0
49,46.48184600625,46.981467656250004,76.0,73.0
50,47.39024900625,49.0878271125,67.0,90.0
51,49.20705500625,49.333852925,67.0,82.0
52,49.43415575625,49.70478415,67.0,92.0
53,49.77480688125,50.11545800625,65.0,93.0
54,50.229008381250004,50.458001637500004,64.0,88.0
55,50.45610913125,50.806222787500005,65.0,96.0
56,50.91031063125,51.06928115625,74.0,93.0
57,51.25096175625,51.89441388125,74.0,99.0
58,51.93226400625,52.104482075,72.0,89.0
59,52.15936475625,53.728252437500004,74.0,93.0
60,53.97617075625,54.17677641875,72.0,89.0
61,54.203271506250005,54.526890075000004,77.0,107.0
62,54.65747300625,54.78237841875,76.0,112.0
63,54.88457375625,55.22900989375,77.0,127.0
64,55.33877525625,55.63779124375,76.0,112.0
65,55.79297675625,56.2187906625,77.0,112.0
66,56.24717825625,56.4458914125,76.0,112.0
67,56.70137975625,56.818715143750005,74.0,107.0
68,56.928480506250004,57.16315128125,74.0,127.0
69,57.38268200625,57.5738251375,72.0,112.0
70,57.60978275625,59.638549456250004,76.0,107.0
71,60.33499175625,60.552629975,72.0,112.0
72,60.56209250625,60.78540824375,74.0,95.0
73,60.78919325625,61.186619568750004,76.0,97.0
74,61.47049550625,63.30622656875,72.0,107.0
75,63.74150300625,63.85505338125,72.0,95.0
76,63.968603756250005,64.19948951875,72.0,99.0
77,64.42280525625,64.6820786125,69.0,96.0
78,64.76345638125,64.9243194125,72.0,96.0
79,65.10410750625,65.59994414375001,74.0,107.0
80,65.55830900625,65.79297978125,72.0,96.0
81,65.78540975625,66.21311616875,74.0,117.0
82,66.23961125625,66.85656829375,76.0,102.0
83,66.80736313125,67.7025185875,74.0,122.0
84,68.51061875625,68.57117895625001,72.0,88.0
85,68.73771950625,69.02159544375,77.0,112.0
86,69.19192100625,69.3376439875,76.0,95.0
87,69.41902175625,69.73885531250001,77.0,102.0
88,69.87322325625,70.21387438125001,79.0,112.0
89,70.32742475625,70.65672084375001,81.0,107.0
90,70.78162625625001,71.23961276875,79.0,102.0
91,71.46292850625001,71.67867421875,77.0,117.0
92,71.69002925625,72.1309832125,79.0,100.0
93,72.37133150625,74.80698705,79.0,127.0
94,77.14044725625,77.3694405125,76.0,107.0
95,77.59464875625,77.7857918875,72.0,97.0
96,77.82174950625,78.122658,79.0,117.0
97,78.27595100625,78.660129775,76.0,99.0
98,78.73015250625001,79.1559664125,84.0,127.0
99,79.18435400625,79.54771520625,83.0,102.0
100,79.63855550625,80.9084272,79.0,117.0
101,81.00116000625,81.09200030625,79.0,100.0
102,81.22826075625001,81.39858631875,79.0,96.0
103,81.45536150625,81.7524849875,84.0,127.0
104,81.90956300625,82.03068340625,83.0,112.0
105,82.13666375625,82.3505169625,79.0,99.0
106,82.59086525625,83.26838249375,76.0,107.0
107,83.27216750625,84.45119890000001,74.0,97.0
108,84.63477200625,84.85051771875,69.0,96.0
109,84.86187275625001,85.07194095,72.0,90.0
110,85.08897350625,85.412592075,77.0,100.0
111,85.54317500625,85.6624029,76.0,97.0
112,85.77027575625,86.0371191375,77.0,122.0
113,86.22447725625,86.74302396875001,79.0,96.0
114,86.90577950625,87.365658525,80.0,122.0
115,87.35998100625,87.62114686875,79.0,122.0
116,87.81418250625,88.19268375625,77.0,117.0
117,88.26838400625,88.51440981875,79.0,100.0
118,88.72258550625,89.152184425,72.0,100.0
119,89.17678700625,89.27519733125,74.0,100.0
120,89.40388775625,89.742646375,76.0,122.0
121,89.85808925625,90.81191240625,74.0,122.0
122,91.67489525625,91.9038885125,76.0,107.0
123,92.12909675625001,92.32023988750001,72.0,97.0
124,92.35619750625,92.657106,79.0,117.0
125,92.81039900625001,93.194577775,76.0,99.0
126,93.26460050625,93.6904144125,84.0,127.0
127,93.71880200625,94.08216320625,83.0,102.0
128,94.17300350625,95.4428752,79.0,117.0
129,95.53560800625,95.753246225,76.0,97.0
130,95.76270875625,95.9765619625,79.0,97.0
131,95.98980950625,96.28693298750001,84.0,127.0
132,96.44401100625001,96.56513140625,83.0,112.0
133,96.67111175625,96.8849649625,79.0,99.0
134,97.12531325625,97.80283049375001,76.0,107.0
135,97.80661550625,98.84749394375,79.0,127.0
136,99.16922000625,99.41524581875001,77.0,122.0
137,99.62342150625,100.03220285625001,74.0,117.0
138,100.07762300625001,100.5261469875,72.0,88.0
139,100.98602600625,101.082543825,72.0,95.0
140,101.21312675625,101.3361396625,72.0,89.0
141,101.44022750625,101.6767907875,77.0,117.0
142,101.89442900625001,101.98905431875001,76.0,112.0
143,102.12152975625,102.48299845,77.0,122.0
144,102.57573125625001,102.8614997,79.0,107.0
145,103.25703350625,103.65445981875,81.0,122.0
146,103.71123500625,104.0159285125,72.0,107.0
147,104.16543650625,104.33576206875,72.0,112.0
148,104.39253725625001,105.00570928125,74.0,112.0
149,105.07383950625,108.22278233333333,72.0,107.0
150,118.53683985625,118.77358230416667,72.0,112.0
151,118.76411260625,119.07093081875,74.0,102.0
152,118.99138535624999,119.74327937083332,76.0,112.0
153,120.12774910625,121.8266129125,67.0,90.0
154,121.94593110624999,122.07282505833332,67.0,82.0
155,122.17320385625,122.44403721666666,67.0,92.0
156,122.51411298125,122.85502210624999,65.0,93.0
157,122.96865848124999,123.19782517083333,64.0,88.0
158,123.19593123125,123.54631005416667,65.0,96.0
159,123.65047673125,123.80956765625,74.0,93.0
160,123.99138585624999,124.63532531458333,74.0,99.0
161,124.67320410625,124.84555260833332,72.0,89.0
162,124.90047685625,126.47055277083332,74.0,93.0
163,126.71865885624999,126.91941645208333,72.0,89.0
164,126.94593160625,127.26979527499999,77.0,107.0
165,127.40047710625,127.52547711874999,76.0,112.0
166,127.62774985624999,127.97244686041665,77.0,127.0
167,128.08229535625,128.38153781041666,76.0,112.0
168,128.53684085625,128.9629772625,77.0,112.0
169,128.99138635625,129.1902500125,76.0,112.0
170,129.44593185624998,129.56335611041666,74.0,107.0
171,129.67320460624998,129.90805311458334,74.0,127.0
172,130.12775010625,130.31903800416666,72.0,112.0
173,130.35502285625,132.38532608958332,76.0,107.0
174,133.08229585625,133.30009890833333,72.0,112.0
175,133.30956860625,133.53305347708334,74.0,95.0
176,133.53684135625,133.93456866875,76.0,97.0
177,134.21865960625,136.05578100208334,72.0,107.0
178,136.49138710625,136.60502348125,72.0,95.0
179,136.71865985624999,136.94972048541666,72.0,99.0
180,137.17320535624998,137.43267507916667,69.0,96.0
181,137.51411448125,137.67509934583333,72.0,96.0
182,137.85502360625,138.35123577708333,74.0,107.0
183,138.30956910625,138.54441761458332,72.0,96.0
184,138.53684185625,138.9648722020833,74.0,117.0
185,138.99138735625,139.60881166041665,76.0,102.0
186,139.55956923125,140.45540265416668,74.0,122.0
187,141.26411485625,141.32472092291667,72.0,88.0
188,141.49138760625,141.77547854374998,77.0,112.0
189,141.94593310624998,142.09176645416665,76.0,95.0
190,142.17320585624998,142.49328164583332,77.0,102.0
191,142.62775135625,142.96866048125,79.0,112.0
192,143.08229685625,143.41184234374998,81.0,107.0
193,143.53684235625,143.99517573541667,79.0,102.0
194,144.21866060624998,144.43456971875,77.0,117.0
195,144.44593335625,144.88722127916665,79.0,100.0
196,145.12775160625,147.56525184999998,79.0,127.0
197,149.90047935625,150.12964604583334,76.0,107.0
198,150.35502485625,150.54631275416665,72.0,97.0
199,150.58229760625,150.883434,79.0,117.0
200,151.03684310625,151.42131284166666,76.0,99.0
201,151.49138860624998,151.9175250125,84.0,127.0
202,151.94593410624998,152.30957050625,83.0,102.0
203,152.40047960625,153.67131306666667,79.0,117.0
204,153.76411610625,153.85502520625,79.0,100.0
205,153.99138885624998,154.16184341874998,79.0,96.0
206,154.21866160625,154.51601012083333,84.0,127.0
207,154.67320710625,154.79441923958333,83.0,112.0
208,154.90047985625,155.11449502916668,79.0,99.0
209,155.35502535625,156.03305572708334,76.0,107.0
210,156.03684360625,157.21676796666665,74.0,97.0
211,157.40048010625,157.61638921875,69.0,96.0
212,157.62775285625,157.83798015,72.0,90.0
213,157.85502560625,158.178889275,77.0,100.0
214,158.30957110625,158.42888929999998,76.0,97.0
215,158.53684385625,158.80388933749998,77.0,122.0
216,158.99138935625,159.51032880208334,79.0,96.0
217,159.67320760625,160.133434925,80.0,122.0
218,160.12775310625,160.38911676875,79.0,122.0
219,160.58229860625,160.96108652291667,77.0,117.0
220,161.03684410625,161.28305625208333,79.0,100.0
221,161.49138960624998,161.92131389166667,72.0,100.0
222,161.94593510624998,162.0444199645833,74.0,100.0
223,162.17320785625,162.51222304166666,76.0,122.0
224,162.62775335625,163.58229890625,74.0,122.0
225,164.44593535625,164.67510204583334,76.0,107.0
226,164.90048085625,165.09176875416665,72.0,97.0
227,165.12775360625,165.42889,79.0,117.0
228,165.58229910625,165.96676884166666,76.0,99.0
229,166.03684460624999,166.4629810125,84.0,127.0
230,166.49139010624998,166.85502650625,83.0,102.0
231,166.94593560625,168.21676906666664,79.0,117.0
232,168.30957210625,168.5273751583333,76.0,97.0
233,168.53684485624999,168.75086002916666,79.0,97.0
234,168.76411760625,169.06146612083333,84.0,127.0
235,169.21866310625,169.33987523958334,83.0,112.0
236,169.44593585625,169.65995102916668,79.0,99.0
237,169.90048135625,170.5785117270833,76.0,107.0
238,170.58229960625,171.62396637708332,79.0,127.0
239,171.94593610625,172.1921482520833,77.0,122.0
240,172.40048160625,172.80957255625,74.0,117.0
241,172.85502710625,173.3038907875,72.0,88.0
242,173.76411810625,173.860709025,72.0,95.0
243,173.99139085625,174.11449692916665,72.0,89.0
244,174.21866360625,174.45540605416664,77.0,117.0
245,174.67320910625,174.76790608541666,76.0,112.0
246,174.90048185625,175.26222431666667,77.0,122.0
247,175.35502735625,175.64101223333333,79.0,107.0
248,176.03684560624998,176.43457291875,81.0,122.0
249,176.49139110624998,176.79631537916666,72.0,107.0
250,176.94593660625,177.11639116875,72.0,112.0
251,177.17320935625,177.78684578125,74.0,112.0
252,177.85502760625,178.76411860625,72.0,107.0
253,179.90048235625,180.15616419999998,76.0,127.0
254,180.35502785625,180.54442181458333,74.0,76.0
255,180.58230060625,180.80199759791668,76.0,100.0
256,180.80957335624998,180.98381579791666,74.0,86.0
257,181.03684610624998,181.58798252499997,72.0,99.0
258,181.94593710625,182.07093711875,72.0,122.0
259,182.17320985625,182.52548261875,72.0,99.0
260,182.62775535625,182.78874022083335,69.0,95.0
261,182.85502810625,183.14101298333333,72.0,122.0
262,183.30957360625,183.80010395833332,79.0,117.0
263,183.76411910625,184.17889187499998,77.0,117.0
264,184.67321010625,184.78684648125,72.0,127.0
265,184.90048285625,185.22624046458333,72.0,102.0
266,185.35502835625,185.49517988541666,69.0,112.0
267,185.58230110625,185.78874052083333,72.0,127.0
268,185.80957385624998,185.99139205625,79.0,127.0
269,186.26411935624998,186.63722545416664,79.0,127.0
270,187.17321035625,187.26033157708332,79.0,102.0
271,187.40048310625,187.63722555416666,81.0,117.0
272,187.62775585625,187.8285134520833,79.0,99.0
273,187.85502860625,188.17321045625,77.0,127.0
274,188.30957410625,188.63154383541666,79.0,127.0
275,188.76411960625,188.95351356458332,79.0,127.0
276,188.99139235625,189.21108934791664,77.0,89.0
277,189.21866510625,189.82472577291668,76.0,100.0
278,189.90048335625,190.07661973749998,76.0,117.0
279,190.12775610625,190.37018037291665,74.0,122.0
280,190.58230160624998,190.73760465208332,76.0,127.0
281,190.80957435624998,191.22055924583333,79.0,127.0
282,191.49139260624997,192.40048360625,72.0,112.0
283,192.62775635625,192.72813515416667,72.0,100.0
284,192.85502910625,193.01980185,72.0,122.0
285,193.30957460625,193.46866553125,69.0,112.0
286,193.53684735625,193.82283223333332,72.0,127.0
287,193.99139285625,194.2811656125,79.0,127.0
288,194.44593835625,195.42131724166666,79.0,122.0
289,195.35502935625,195.44972633541664,72.0,102.0
290,195.58230210624998,195.7603324270833,72.0,122.0
291,196.03684760624998,196.2357112625,69.0,107.0
292,196.26412035624998,196.53684765625,72.0,127.0
293,196.71866585625,196.96109012291666,79.0,127.0
294,197.17321135625,199.19404489166666,81.0,127.0
295,199.44593885625,199.77927222291666,81.0,127.0
296,199.90048435625,203.02359072916664,79.0,127.0
297,207.17321235625,207.40237904583333,76.0,107.0
298,207.62775785625,207.81904575416667,72.0,97.0
299,207.85503060625,208.15616699999998,79.0,117.0
300,208.30957610625,208.69404584166665,76.0,99.0
301,208.76412160625,209.1902580125,84.0,127.0
302,209.21866710625,209.58230350625,83.0,102.0
303,209.67321260625,210.94404606666666,79.0,117.0
304,211.03684910624997,211.12775820625,79.0,100.0
305,211.26412185625,211.43457641875,79.0,96.0
306,211.49139460625,211.78874312083332,84.0,127.0
307,211.94594010625,212.06715223958332,83.0,112.0
308,212.17321285625,212.38722802916666,79.0,99.0
309,212.62775835625,213.30578872708332,76.0,107.0
310,213.30957660625,214.48950096666664,74.0,97.0
311,214.67321310625,214.88912221875,69.0,96.0
312,214.90048585625,215.11071314999998,72.0,90.0
313,215.12775860624998,215.45162227499998,77.0,100.0
314,215.58230410624998,215.7016223,76.0,97.0
315,215.80957685624998,216.0766223375,77.0,122.0
316,216.26412235625,216.78306180208332,79.0,96.0
317,216.94594060625,217.40616792499998,80.0,122.0
318,217.40048610625,217.66184976875,79.0,122.0
319,217.85503160625,218.23381952291666,77.0,117.0
320,218.30957710625,218.55578925208334,79.0,100.0
321,218.76412260625,219.19404689166666,72.0,100.0
322,219.21866810625,219.31715296458333,74.0,100.0
323,219.44594085625,219.78495604166665,76.0,122.0
324,219.90048635624998,220.85503190625,74.0,122.0
325,221.71866835625,221.94783504583333,76.0,107.0
326,222.17321385625,222.36450175416667,72.0,97.0
327,222.40048660625,222.70162299999998,79.0,117.0
328,222.85503210625,223.23950184166665,76.0,99.0
329,223.30957760625,223.7357140125,84.0,127.0
330,223.76412310625,224.12775950625,83.0,102.0
331,224.21866860625,225.48950206666666,79.0,117.0
332,225.58230510624998,225.80010815833333,76.0,97.0
333,225.80957785624997,226.02359302916665,79.0,97.0
334,226.03685060625,226.33419912083332,84.0,127.0
335,226.49139610625,226.61260823958332,83.0,112.0
336,226.71866885625,226.93268402916667,79.0,99.0
337,227.17321435625,227.85124472708333,76.0,107.0
338,227.85503260625,228.89669937708334,79.0,127.0
339,229.21866910625,229.46488125208333,77.0,122.0
340,229.67321460624999,230.08230555625,74.0,117.0
341,230.12776010624998,230.5766237875,72.0,88.0
342,231.03685110625,231.133442025,72.0,95.0
343,231.26412385625,231.38722992916666,72.0,89.0
344,231.49139660625,231.72813905416666,77.0,117.0
345,231.94594210625,232.04063908541667,76.0,112.0
346,232.17321485625,232.53495731666666,77.0,122.0
347,232.62776035625,232.91374523333332,79.0,107.0
348,233.30957860625,233.70730591875,81.0,122.0
349,233.76412410625,234.06904837916665,72.0,107.0
350,234.21866960625,234.38912416875,72.0,112.0
351,234.44594235625,235.05957878125,74.0,112.0
352,235.12776060624998,236.03685160625,72.0,107.0
