,start,end,pitch,velocity
0,17.86715150625,19.92998331875,48.0,44.0
1,17.86715150625,20.0037910625,36.0,37.0
2,17.86715150625,20.06245875625,55.0,63.0
3,17.86715150625,20.06624376875,60.0,62.0
4,17.86715150625,20.1022013875,64.0,59.0
5,21.50076350625,24.048076918750002,53.0,53.0
6,21.50076350625,24.102959600000002,65.0,48.0
7,21.50076350625,24.106744612500002,60.0,58.0
8,21.50076350625,24.1673048125,41.0,54.0
9,21.50076350625,24.18433736875,57.0,53.0
10,25.134375506250002,27.579493581250002,46.0,62.0
11,25.134375506250002,27.72710906875,53.0,50.0
12,25.134375506250002,27.764959193750002,65.0,42.0
13,25.134375506250002,27.7706367125,58.0,56.0
14,25.134375506250002,27.77252921875,62.0,50.0
15,28.76798750625,31.023854956250002,55.0,67.0
16,28.76798750625,31.0257474625,48.0,62.0
17,28.76798750625,31.0787376375,60.0,66.0
18,28.76798750625,31.0787376375,64.0,59.0
19,28.76798750625,31.09577019375,36.0,58.0
20,32.40159950625,33.17184955,52.0,51.0
21,32.40159950625,33.2891849375,45.0,52.0
22,32.40159950625,33.30811,57.0,63.0
23,32.40159950625,33.32514255625,64.0,63.0
24,32.40159950625,33.330820075,60.0,66.0
25,36.03521150625,38.19266863125,50.0,47.0
26,36.03521150625,38.2551213375,45.0,54.0
27,36.03521150625,38.25701384375,38.0,52.0
28,36.03521150625,38.296756475,57.0,55.0
29,36.03521150625,38.32514406875,62.0,58.0
30,36.03521150625,38.40841434375,65.0,58.0
31,39.66882350625,40.49774124375,48.0,44.0
32,39.66882350625,40.50909628125,41.0,44.0
33,39.66882350625,40.51288129375,53.0,59.0
34,39.66882350625,40.6245391625,57.0,66.0
35,39.66882350625,40.6245391625,60.0,64.0
36,41.48562950625,42.429990125,62.0,67.0
37,41.48562950625,42.4337751375,43.0,65.0
38,41.48562950625,42.445130175,55.0,58.0
39,41.48562950625,42.460270225,59.0,67.0
40,43.30243550625,44.816440506250004,48.0,61.0
41,43.30243550625,44.888355743750004,60.0,67.0
42,43.30243550625,44.89214075625,36.0,63.0
43,43.30243550625,44.895925768750004,55.0,68.0
44,43.30243550625,44.90728080625,64.0,64.0
45,46.93604750625,47.6722324375,60.0,60.0
46,46.93604750625,47.6798024625,64.0,58.0
47,47.61734975625,47.961785893750005,48.0,37.0
48,47.84445050625,48.380029775000004,60.0,69.0
49,47.84445050625,48.3989548375,64.0,67.0
50,48.29865200625,49.225980068750005,48.0,41.0
51,48.75285350625,49.54392111875,60.0,69.0
52,48.75285350625,49.5723087125,55.0,63.0
53,46.93604750625,49.97919755625,36.0,65.0
54,49.88835725625,50.0113701625,48.0,44.0
55,49.66125650625,50.1552006375,60.0,90.0
56,50.11545800625,50.4882817375,55.0,53.0
57,51.25096175625,51.67866816875,48.0,65.0
58,51.93226400625,52.52083345,48.0,58.0
59,51.47806250625,53.18888815625,60.0,73.0
60,52.386465506250005,53.209705725,53.0,83.0
61,51.47806250625,53.2134907375,57.0,77.0
62,50.56965950625,53.62794960625,41.0,69.0
63,53.294868506250005,53.71121988125,57.0,77.0
64,53.294868506250005,53.7168974,60.0,79.0
65,53.74907000625,54.0802586,53.0,42.0
66,54.203271506250005,54.82401355625,62.0,72.0
67,54.203271506250005,55.00569415625,58.0,72.0
68,54.88457375625,55.18737475625,53.0,49.0
69,54.203271506250005,55.95194728125,46.0,86.0
70,55.56587600625,56.3096309625,53.0,54.0
71,55.111674506250004,56.49698908125,58.0,93.0
72,55.111674506250004,56.51212913125,62.0,93.0
73,56.47427900625,56.9985032375,53.0,56.0
74,56.020077506250004,57.00418075625,46.0,59.0
75,56.928480506250004,57.339154362500004,62.0,93.0
76,57.38268200625,57.4375646875,53.0,32.0
77,56.928480506250004,57.448919725,58.0,100.0
78,57.836883506250004,58.55982089375,60.0,66.0
79,57.836883506250004,58.563605906250004,64.0,62.0
80,57.836883506250004,58.599563525,55.0,65.0
81,58.51818575625,58.96103221875,48.0,57.0
82,58.745286506250004,59.307360862500005,60.0,77.0
83,59.19948800625,60.45421965,55.0,68.0
84,58.745286506250004,60.49396228125,64.0,85.0
85,60.33499175625,60.65293280625,48.0,38.0
86,57.836883506250004,60.81947335625,36.0,69.0
87,60.78919325625,60.991691425,48.0,34.0
88,60.56209250625,61.02007901875,62.0,100.0
89,61.01629400625,61.627573525,60.0,55.0
90,62.151797756250005,62.395931062500004,57.0,60.0
91,61.92469700625,62.596536725,52.0,33.0
92,62.37889850625,63.896688518750004,64.0,95.0
93,62.83310000625,64.0083463875,57.0,73.0
94,62.37889850625,64.04051899375,60.0,81.0
95,63.28730150625,64.18434946875,52.0,59.0
96,61.47049550625,64.27518976875,45.0,72.0
97,64.19570450625,64.61962590625001,64.0,83.0
98,64.19570450625,64.94135196875,60.0,90.0
99,64.64990600625,64.96406204375,57.0,50.0
100,65.10410750625,65.8894976,57.0,83.0
101,65.10410750625,65.9387027625,66.0,93.0
102,65.10410750625,65.94438028125,62.0,89.0
103,65.78540975625,66.139308425,50.0,40.0
104,66.46671200625,67.5738281625,57.0,69.0
105,66.01251050625,67.683593525,66.0,88.0
106,66.01251050625,67.7025185875,62.0,73.0
107,67.60221575625,67.8009289125,57.0,59.0
108,66.92091350625,67.92772683125,50.0,60.0
109,65.10410750625,68.11319244375,38.0,72.0
110,67.82931650625,68.28541051250001,66.0,97.0
111,67.82931650625,68.32893815625,62.0,88.0
112,68.28351800625,68.37435830625,57.0,64.0
113,68.73771950625,69.318718925,60.0,71.0
114,68.73771950625,69.32439644375,57.0,66.0
115,68.73771950625,69.33953649375,53.0,71.0
116,69.19192100625,69.59313233125,48.0,58.0
117,69.41902175625,70.16088420625,57.0,69.0
118,69.41902175625,70.3823074375,60.0,85.0
119,68.73771950625,70.43529761250001,41.0,71.0
120,70.10032400625,71.23582775625,53.0,58.0
121,70.55452550625,71.392905775,60.0,75.0
122,70.55452550625,71.39858329375001,57.0,70.0
123,70.55452550625,71.56890885625,41.0,59.0
124,71.46292850625001,71.64082409375,57.0,88.0
125,71.46292850625001,71.67867421875,60.0,74.0
126,72.82553300625,73.28730453125,50.0,69.0
127,72.37133150625,73.98942435000001,43.0,72.0
128,73.50683525625,74.1900300125,50.0,54.0
129,73.05263375625,74.9735276,62.0,95.0
130,74.18813750625,74.981097625,55.0,74.0
131,73.73393600625,74.98299013125,59.0,82.0
132,74.18813750625,75.2498335125,43.0,73.0
133,75.09654050625001,75.58669962500001,62.0,97.0
134,75.09654050625001,75.677539925,59.0,97.0
135,76.00494350625,76.51592019375,55.0,96.0
136,76.00494350625,76.64461061875001,60.0,107.0
137,76.00494350625,76.67867573125,64.0,95.0
138,76.68624575625,76.9985092875,55.0,76.0
139,76.45914500625,77.009864325,48.0,65.0
140,77.59464875625,78.57496699375,60.0,73.0
141,76.91334650625001,78.57496699375,64.0,97.0
142,77.36754800625,78.62417215625,55.0,56.0
143,77.82174950625,78.8077452625,48.0,61.0
144,78.95725325625,79.20327906875,48.0,52.0
145,78.73015250625001,79.22220413125,64.0,96.0
146,76.00494350625,79.23545167500001,36.0,85.0
147,78.73015250625001,79.2392366875,60.0,107.0
148,79.18435400625,79.39252969375,55.0,76.0
149,79.63855550625,80.39934301875,52.0,88.0
150,79.63855550625,80.43719314375001,59.0,81.0
151,79.63855550625,80.44097815625,55.0,79.0
152,80.54695850625001,82.15937383125001,59.0,97.0
153,81.22826075625001,82.2104715,55.0,86.0
154,81.00116000625,82.248321625,52.0,57.0
155,79.63855550625,82.42810971875001,47.0,69.0
156,82.59086525625,82.66656550625,47.0,69.0
157,82.36376450625,82.82553603125,59.0,112.0
158,83.27216750625,83.97239481875,57.0,89.0
159,83.27216750625,84.00267491875,62.0,95.0
160,83.27216750625,84.01402995625,65.0,92.0
161,83.72636900625,84.77860248125,50.0,56.0
162,84.18057050625,85.82515843750001,65.0,96.0
163,84.86187275625001,85.88004111875,62.0,78.0
164,84.63477200625,85.91978375000001,57.0,42.0
165,85.08897350625,86.06929174375,50.0,59.0
166,83.27216750625,86.3929103125,38.0,73.0
167,85.99737650625,86.44022296875,65.0,95.0
168,85.99737650625,86.46293304375,62.0,96.0
169,86.45157800625,86.56702088750001,57.0,74.0
170,86.90577950625,87.509489,53.0,78.0
171,86.90577950625,87.55490915,60.0,77.0
172,86.90577950625,87.61357684375,56.0,85.0
173,87.35998100625,87.81229,48.0,50.0
174,86.90577950625,88.115091,41.0,76.0
175,88.04128325625,88.137801075,48.0,79.0
176,87.81418250625,88.23810390625,56.0,107.0
177,87.81418250625,88.2627064875,60.0,93.0
178,88.26838400625,88.38950440625,53.0,78.0
179,88.72258550625,89.39253271875,55.0,86.0
180,88.72258550625,89.3982102375,62.0,81.0
181,88.72258550625,89.43038284375,59.0,86.0
182,88.72258550625,89.53257818125,43.0,69.0
183,89.63098850625,89.99434970625,62.0,86.0
184,89.63098850625,90.0416623625,59.0,90.0
185,90.53939150625,91.0825408,64.0,85.0
186,90.53939150625,91.090110825,60.0,93.0
187,90.53939150625,91.13742348125,55.0,89.0
188,90.99359300625001,91.6843577875,48.0,76.0
189,91.90199600625,92.65899850625,48.0,61.0
190,92.35619750625,92.91448685,60.0,88.0
191,91.44779450625,93.00532715,64.0,102.0
192,91.90199600625,93.05263980625,55.0,58.0
193,90.53939150625,93.5617239875,36.0,71.0
194,93.26460050625,93.74151208125001,64.0,99.0
195,93.71880200625,93.7661146625,55.0,44.0
196,94.17300350625,94.7350778625,52.0,85.0
197,94.17300350625,94.75400292500001,59.0,85.0
198,94.17300350625,94.7729279875,55.0,89.0
199,94.62720500625001,95.1362891875,47.0,55.0
200,95.08140650625,96.7146394,59.0,96.0
201,95.53560800625,96.74302699375001,52.0,50.0
202,95.76270875625,96.752489525,55.0,88.0
203,95.98980950625,96.95498769375,47.0,60.0
204,94.17300350625,96.9758052625,40.0,71.0
205,96.89821250625,97.20479851875,55.0,97.0
206,96.89821250625,97.21426105,59.0,97.0
207,97.80661550625,98.40275497500001,55.0,79.0
208,97.80661550625,98.40843249375,63.0,92.0
209,97.80661550625,98.5314454,58.0,100.0
210,98.26081700625001,99.39442825,51.0,54.0
211,99.16922000625,99.91108245625,55.0,73.0
212,98.71501850625,100.098440575,58.0,97.0
213,98.71501850625,100.14953824375,63.0,117.0
214,100.07762300625001,100.19117338125,55.0,48.0
215,99.62342150625,100.6018472375,51.0,69.0
216,97.80661550625,100.75514024375,39.0,97.0
217,100.30472375625,100.81570044375,55.0,57.0
218,100.53182450625,100.9500683875,63.0,112.0
219,101.44022750625,102.01554940625,57.0,89.0
220,101.44022750625,102.03068945625,62.0,96.0
221,101.44022750625,102.051507025,66.0,97.0
222,101.89442900625001,102.4035131875,50.0,39.0
223,101.44022750625,102.4981385,38.0,70.0
224,102.34863050625,102.793369475,62.0,100.0
225,102.34863050625,102.793369475,66.0,112.0
226,102.80283200625,102.88610228125,57.0,69.0
227,103.25703350625,103.8001828,55.0,93.0
228,103.25703350625,103.82857039375,59.0,93.0
229,103.25703350625,103.88156056875,62.0,93.0
230,103.71123500625,104.33576206875,50.0,47.0
231,103.25703350625,104.45688246875001,43.0,70.0
232,104.16543650625,104.63856306875,62.0,92.0
233,104.16543650625,104.75589845625001,59.0,92.0
234,105.07383950625,105.61131128125,55.0,89.0
235,105.07383950625,105.80056190625,64.0,82.0
236,105.07383950625,105.81570195625001,60.0,90.0
237,105.75514175625,105.8478745625,55.0,34.0
238,105.52804100625,106.0295551625,48.0,72.0
239,105.98224250625,106.4837566625,55.0,99.0
240,105.98224250625,106.52539180000001,64.0,107.0
241,105.98224250625,106.5291768125,60.0,122.0
242,106.43644400625,106.8622579125,48.0,95.0
243,106.66354475625,106.9795933,64.0,83.0
244,106.66354475625,106.98148580625,55.0,86.0
245,106.66354475625,107.00419588125,60.0,92.0
246,106.89064550625,107.20859945625,48.0,63.0
247,107.11774625625,107.57034191666666,55.0,81.0
248,107.11774625625,107.58928131249999,60.0,100.0
249,107.11774625625,107.59117525208333,64.0,99.0
250,107.57223585625,107.8279177,48.0,117.0
251,107.79950860625,108.03625105416667,55.0,100.0
252,107.79950860625,108.07034196666666,64.0,122.0
253,107.79950860625,108.08549348333332,60.0,117.0
254,108.2552250625,108.5529348125,64.0,127.0
255,108.2552250625,108.55484320833334,60.0,127.0
256,105.07383950625,108.5643851875,36.0,72.0
257,108.4842325625,108.57965235416667,55.0,77.0
258,108.02678135625,108.5872859375,48.0,112.0
259,108.7132400625,109.00904141666666,64.0,97.0
260,108.7132400625,109.08919404166667,55.0,96.0
261,108.7132400625,109.119728375,60.0,117.0
262,108.7132400625,109.25331608333333,48.0,127.0
263,109.1712550625,109.31820154166667,46.0,88.0
264,109.1712550625,109.3201099375,53.0,88.0
265,109.1712550625,109.32392672916667,58.0,83.0
266,109.1712550625,109.325835125,62.0,88.0
267,109.4002625625,109.52430829166667,62.0,77.0
268,109.4002625625,109.52812508333334,46.0,112.0
269,109.4002625625,109.53003347916666,58.0,89.0
270,109.4002625625,109.53385027083333,53.0,69.0
271,109.6292700625,110.04720875,58.0,127.0
272,109.6292700625,110.2132391875,53.0,107.0
273,109.6292700625,110.2246895625,62.0,97.0
274,110.0872850625,110.23995672916666,58.0,63.0
275,110.3162925625,110.608277125,58.0,117.0
276,110.3162925625,110.61209391666667,62.0,99.0
277,110.3162925625,110.61781910416667,53.0,96.0
278,109.6292700625,111.0376661875,46.0,127.0
279,110.7743075625,111.24186454166667,62.0,97.0
280,110.7743075625,111.24758972916666,58.0,117.0
281,111.0033150625,111.25713170833333,53.0,48.0
282,111.2323225625,111.5643834375,46.0,99.0
283,111.4613300625,111.753314625,53.0,93.0
284,111.4613300625,111.76285660416667,62.0,99.0
285,111.4613300625,111.77812377083333,58.0,117.0
286,111.9193450625,112.18461208333333,62.0,107.0
287,111.9193450625,112.19797085416667,58.0,127.0
288,111.6903375625,112.23232197916667,46.0,122.0
289,112.3773600625,112.65598585416667,55.0,97.0
290,112.3773600625,112.8926269375,60.0,102.0
291,112.3773600625,112.9098025,64.0,96.0
292,112.8353750625,112.98232154166666,55.0,90.0
293,113.0643825625,113.1674359375,55.0,61.0
294,113.0643825625,113.17125272916667,60.0,76.0
295,113.0643825625,113.17125272916667,64.0,70.0
296,112.3773600625,113.35827552083333,48.0,100.0
297,113.2933900625,113.791481375,64.0,97.0
298,113.2933900625,113.7972065625,60.0,107.0
299,113.2933900625,113.80674854166666,55.0,112.0
300,112.3773600625,113.81629052083333,36.0,75.0
301,113.7514050625,113.85827522916667,48.0,93.0
302,113.98041256249999,114.28575589583333,60.0,107.0
303,113.98041256249999,114.28766429166667,55.0,122.0
304,113.98041256249999,114.2895726875,64.0,95.0
305,113.98041256249999,114.69796939583334,36.0,89.0
306,114.4384275625,114.97468679166667,64.0,97.0
307,114.4384275625,114.98041197916666,60.0,107.0
308,114.4384275625,114.9880455625,55.0,97.0
309,114.8964425625,114.98995395833333,36.0,86.0
310,114.8964425625,114.9994959375,48.0,95.0
311,115.1254500625,115.39835066666667,55.0,100.0
312,115.1254500625,115.40407585416666,60.0,97.0
313,115.1254500625,115.4117094375,64.0,96.0
314,115.58229410624999,115.63911229374999,57.0,83.0
315,115.58229410624999,115.66183956875,55.0,95.0
316,115.1254500625,115.73002139375,36.0,93.0
317,115.58229410624999,115.80199109791666,60.0,127.0
318,115.58229410624999,115.83608201041666,64.0,107.0
319,115.80956685625,115.91941535208333,55.0,67.0
320,115.1254500625,115.95729414374999,48.0,107.0
321,116.03683960625,116.36827903333332,64.0,76.0
322,116.49138510625,116.85880938541666,64.0,51.0
323,116.03683960625,116.91183969375,60.0,81.0
324,116.03683960625,116.93646090833333,55.0,82.0
325,116.94593060624999,117.24706699999999,60.0,51.0
326,116.94593060624999,117.24706699999999,64.0,48.0
327,116.94593060624999,117.26411245624999,55.0,39.0
328,116.03683960625,117.38721852916666,48.0,92.0
329,117.40047610625,117.69782462083333,60.0,48.0
330,117.40047610625,117.70729431874999,55.0,43.0
331,117.40047610625,117.72433977499999,64.0,45.0
332,117.40047610625,117.7584306875,48.0,45.0
333,116.03683960625,117.79630947916667,36.0,71.0
334,117.85502160624999,118.17130951666667,55.0,53.0
335,117.85502160624999,118.17130951666667,60.0,56.0
336,117.85502160624999,118.178885275,36.0,55.0
337,117.85502160624999,118.18077921458332,48.0,53.0
338,117.85502160624999,118.18077921458332,64.0,49.0
339,118.30956710625,118.61259743958333,36.0,50.0
340,118.30956710625,118.62585501666666,48.0,62.0
341,118.30956710625,118.64858229166666,60.0,58.0
342,118.30956710625,118.65047623125,55.0,59.0
343,118.30956710625,118.65615804999999,64.0,64.0
344,118.76411260625,119.08987021458333,48.0,89.0
345,118.76411260625,119.0993399125,36.0,68.0
346,118.76411260625,119.11449142916666,60.0,71.0
347,118.76411260625,119.1220671875,55.0,72.0
348,118.76411260625,119.1220671875,64.0,68.0
349,119.21865810624999,119.68456724375,60.0,97.0
350,119.67320360625,119.68456724375,60.0,86.0
351,119.21865810624999,119.69971876041666,55.0,83.0
352,119.67320360625,119.69971876041666,55.0,76.0
353,119.21865810624999,119.70350663958332,64.0,90.0
354,119.67320360625,119.70350663958332,64.0,77.0
355,119.21865810624999,119.7129763375,48.0,92.0
356,119.67320360625,119.7129763375,48.0,102.0
357,119.21865810624999,119.73191573333332,36.0,72.0
358,119.67320360625,119.73191573333332,36.0,76.0
359,120.12774910625,120.43456731875,55.0,55.0
360,120.58229460624999,120.81335523541667,55.0,92.0
361,120.58229460624999,121.30577952708333,60.0,95.0
362,121.03684010625,121.31335528541666,55.0,55.0
363,120.58229460624999,121.32282498333333,64.0,86.0
364,121.49138560624999,121.61259773958332,55.0,51.0
365,121.26411285625,122.10312809166666,48.0,73.0
366,121.26411285625,122.11070385,36.0,64.0
367,121.94593110624999,122.17320385625,55.0,40.0
368,121.71865835624999,122.20161295,60.0,82.0
369,121.71865835624999,122.21108264791665,64.0,72.0
370,122.40047660625,122.68456754374999,60.0,102.0
371,122.40047660625,122.69782512083333,64.0,97.0
372,122.17320385625,122.81714331458333,36.0,78.0
373,122.85502210624999,122.94782514583332,60.0,96.0
374,122.85502210624999,122.9629766625,64.0,92.0
375,122.85502210624999,122.99706757499999,55.0,25.0
376,122.17320385625,123.20350698958333,48.0,96.0
377,123.30956760625,123.815249475,57.0,92.0
378,123.30956760625,123.83418887083333,53.0,97.0
379,123.30956760625,123.85312826666666,60.0,90.0
380,123.76411310625,124.23191618333333,48.0,49.0
381,123.30956760625,124.37585559166666,41.0,75.0
382,124.21865860624999,124.50274954375,57.0,99.0
383,124.21865860624999,124.51411318125,53.0,93.0
384,124.21865860624999,124.7129768375,60.0,97.0
385,124.67320410625,124.72434047499999,57.0,36.0
386,124.90047685625,124.95540110416667,53.0,72.0
387,124.90047685625,124.97812837916666,57.0,83.0
388,124.90047685625,124.98191625833333,60.0,79.0
389,124.90047685625,125.41562842291665,41.0,100.0
390,125.35502235624999,125.451613275,53.0,70.0
391,125.35502235624999,125.4629769125,57.0,79.0
392,125.35502235624999,125.49327994583332,60.0,78.0
393,125.80956785625,125.88911331874999,41.0,93.0
394,126.03684060625,126.12774970625,57.0,79.0
395,126.03684060625,126.12964364583333,53.0,69.0
396,126.03684060625,126.12964364583333,60.0,74.0
397,126.03684060625,126.37585579166667,41.0,112.0
398,126.49138610624999,126.54820429374999,57.0,88.0
399,126.49138610624999,126.54820429374999,60.0,79.0
400,126.49138610624999,126.60312854166666,53.0,92.0
401,126.94593160625,127.24138618125,53.0,93.0
402,126.94593160625,127.44024983749999,58.0,102.0
403,126.94593160625,127.46108317291666,62.0,92.0
404,127.40047710625,127.65237107083333,53.0,64.0
405,127.85502260624999,127.93646200833332,62.0,93.0
406,127.85502260624999,127.93835594791666,58.0,102.0
407,127.85502260624999,127.94593170625,53.0,93.0
408,126.94593160625,128.35881053541667,34.0,96.0
409,126.94593160625,128.3720681125,46.0,107.0
410,128.53684085625,128.59555298333333,62.0,81.0
411,128.53684085625,128.61449237916665,53.0,73.0
412,128.53684085625,128.61449237916665,58.0,95.0
413,128.99138635625,129.07282575833332,62.0,67.0
414,128.99138635625,129.07850757708331,58.0,76.0
415,128.99138635625,129.08040151666665,53.0,63.0
416,128.53684085625,129.30199244791666,46.0,82.0
417,128.53684085625,129.31525002499998,34.0,64.0
418,129.44593185624998,129.7016137,34.0,44.0
419,129.67320460624998,129.70540157916665,53.0,40.0
420,129.44593185624998,129.71676521666666,46.0,48.0
421,129.67320460624998,129.77737128333334,58.0,95.0
422,129.67320460624998,129.7811591625,62.0,86.0
423,130.12775010625,130.2129773875,58.0,97.0
424,130.58229560625,131.14290172291666,55.0,88.0
425,130.58229560625,131.16373505833332,60.0,89.0
426,130.58229560625,131.37017447291666,64.0,85.0
427,131.26411385625,131.37585629166665,55.0,65.0
428,131.03684110625,131.57850782708334,48.0,79.0
429,131.49138660625,131.76032602708332,60.0,93.0
430,131.49138660625,131.77926542291667,64.0,90.0
431,131.94593210624998,132.29631092916665,48.0,74.0
432,132.17320485624998,132.30388668749998,60.0,77.0
433,132.17320485624998,132.30578062708332,64.0,74.0
434,132.62775035625,132.71865945625,64.0,56.0
435,132.62775035625,132.73570491249998,60.0,68.0
436,133.08229585625,133.35502315624998,48.0,75.0
437,133.30956860625,133.37017467291668,55.0,82.0
438,133.30956860625,133.37964437083332,64.0,92.0
439,133.30956860625,133.39479588749998,60.0,100.0
440,130.58229560625,133.40805346458333,36.0,67.0
441,133.76411410625,133.80009895833334,64.0,58.0
442,133.76411410625,133.83229593125,60.0,83.0
443,134.21865960625,134.61449297916667,57.0,65.0
444,134.21865960625,134.65805358958332,60.0,60.0
445,134.21865960625,134.66184146875,64.0,72.0
446,134.67320510625,135.20540212916666,45.0,71.0
447,135.12775060625,135.23191728333333,60.0,102.0
448,135.12775060625,135.24896273958333,64.0,89.0
449,135.58229610625,136.05199312291666,45.0,79.0
450,135.80956885625,136.48381134791666,60.0,88.0
451,136.26411435625,136.58419014583333,45.0,72.0
452,136.49138710625,136.79820531874998,57.0,76.0
453,136.71865985624999,136.94403866666667,45.0,55.0
454,134.21865960625,137.16184171875,33.0,72.0
455,137.17320535624998,137.28873567083332,45.0,92.0
456,136.94593260624998,137.31335688541665,64.0,93.0
457,136.94593260624998,137.48381144791665,60.0,99.0
458,137.40047810625,137.9175236125,57.0,70.0
459,138.30956910625,138.63532671458333,57.0,97.0
460,138.30956910625,138.85312976666665,45.0,63.0
461,138.76411460625,139.18835707291666,62.0,100.0
462,138.76411460625,139.21676616666667,66.0,107.0
463,138.76411460625,139.24517526041666,50.0,86.0
464,139.21866010624998,139.815251075,57.0,70.0
465,139.90047835625,139.95350866458332,66.0,97.0
466,139.90047835625,139.98002381875,62.0,99.0
467,140.35502385625,140.44025113749998,57.0,35.0
468,139.67320560625,140.54062993541666,50.0,90.0
469,140.58229660625,140.99138755625,62.0,93.0
470,140.58229660625,140.99328149583332,66.0,95.0
471,137.85502360625,141.11070575,38.0,73.0
472,139.21866010624998,141.11070575,45.0,40.0
473,141.03684210625,141.45919063333332,50.0,83.0
474,141.49138760625,141.82850885208333,57.0,69.0
475,141.49138760625,141.83608461041666,53.0,85.0
476,141.49138760625,141.84744824791665,60.0,69.0
477,141.94593310624998,142.5538877125,48.0,60.0
478,142.40047860625,142.79252409999998,57.0,89.0
479,142.40047860625,142.88722107916666,60.0,93.0
480,143.08229685625,143.14858474166667,57.0,82.0
481,143.08229685625,143.1561605,60.0,81.0
482,143.08229685625,143.15805443958334,53.0,66.0
483,143.53684235625,143.61449387916667,57.0,89.0
484,143.53684235625,143.62585751666666,53.0,79.0
485,143.53684235625,143.62964539583334,60.0,85.0
486,142.85502410625,143.66373630833334,48.0,96.0
487,144.21866060624998,144.51032730208334,53.0,89.0
488,144.21866060624998,144.51411518125,57.0,99.0
489,144.21866060624998,144.51600912083333,60.0,95.0
490,141.49138760625,144.71487277708331,41.0,78.0
491,144.67320610625,144.72813035416667,60.0,72.0
492,144.67320610625,144.77547884375,57.0,97.0
493,143.99138785625,144.83419097083333,48.0,81.0
494,145.12775160625,145.34366071875,55.0,86.0
495,145.12775160625,145.35502435625,62.0,95.0
496,145.12775160625,145.37585769166665,59.0,93.0
497,145.80956985625,145.90237289583334,55.0,52.0
498,145.58229710625,146.03494866666665,50.0,107.0
499,146.03684260625,146.178888075,59.0,122.0
500,146.03684260625,146.29252445,62.0,112.0
501,145.12775160625,146.59744872291665,43.0,72.0
502,146.49138810624999,146.62017599791665,59.0,122.0
503,146.49138810624999,146.65616085,62.0,107.0
504,146.26411535625,146.84366086875,50.0,127.0
505,146.71866085624998,146.85313056666666,55.0,72.0
506,146.94593360624998,148.0084337125,50.0,122.0
507,146.94593360624998,148.08229735625,43.0,93.0
508,146.94593360624998,148.29820646874998,55.0,97.0
509,146.94593360624998,148.31335798541664,62.0,99.0
510,146.94593360624998,148.33419132083333,59.0,102.0
511,148.76411560625,149.35691869583331,55.0,99.0
512,148.76411560625,149.38532778958333,60.0,96.0
513,148.76411560625,149.43646415833334,64.0,92.0
514,148.76411560625,150.09555513333333,36.0,102.0
515,149.21866110625,150.11070665,48.0,70.0
516,149.67320660625,150.42131274166667,55.0,112.0
517,149.67320660625,150.44214607708332,60.0,112.0
518,150.35502485625,150.4478278958333,36.0,64.0
519,149.67320660625,150.46108547291666,64.0,99.0
520,150.35502485625,150.46297941249998,48.0,102.0
521,150.58229760625,150.72055519583333,60.0,95.0
522,150.58229760625,150.75843398749998,55.0,95.0
523,150.58229760625,150.75843398749998,64.0,88.0
524,150.58229760625,151.37964617083333,48.0,96.0
525,150.58229760625,151.4175249625,36.0,81.0
526,151.03684310625,151.72623711458334,55.0,102.0
527,151.03684310625,151.83419167083332,60.0,117.0
528,151.49138860624998,151.94782804583332,48.0,86.0
529,151.03684310625,151.95919168333333,64.0,97.0
530,151.49138860624998,152.05957048124998,36.0,66.0
531,151.94593410624998,152.10502503125,55.0,102.0
532,152.40047960625,153.06335846041665,52.0,95.0
533,152.40047960625,153.06335846041665,55.0,93.0
534,152.40047960625,153.10313119166665,59.0,97.0
535,153.30957060625,153.37017667291667,55.0,122.0
536,153.30957060625,153.37585849166666,52.0,112.0
537,153.30957060625,153.38154031041665,59.0,112.0
538,152.40047960625,153.7584342875,47.0,117.0
539,153.76411610625,153.906161575,47.0,67.0
540,152.40047960625,153.99517673541666,35.0,63.0
541,153.99138885624998,153.99517673541666,35.0,63.0
542,153.99138885624998,154.08987371458332,47.0,83.0
543,154.21866160625,154.90805561458333,35.0,81.0
544,154.21866160625,154.92510107083334,47.0,96.0
545,155.12775260625,155.28684353124999,35.0,78.0
546,154.67320710625,155.3038889875,52.0,100.0
547,154.67320710625,155.33987383958333,55.0,99.0
548,154.67320710625,155.36449505416667,59.0,99.0
549,155.12775260625,155.42131324166667,47.0,97.0
550,155.58229810625,155.64101023333333,59.0,92.0
551,155.58229810625,155.65047993125,55.0,95.0
552,156.03684360625,156.55957093125,57.0,107.0
553,156.03684360625,156.60881336041666,65.0,96.0
554,156.03684360625,156.6447982125,62.0,102.0
555,156.94593460624998,157.0311618875,65.0,107.0
556,156.94593460624998,157.042525525,57.0,107.0
557,156.94593460624998,157.04631340416665,62.0,117.0
558,156.03684360625,157.73760135208332,38.0,76.0
559,156.03684360625,157.7584346875,50.0,93.0
560,157.85502560625,157.95919228333332,50.0,95.0
561,157.85502560625,157.9629801625,38.0,74.0
562,157.62775285625,158.26411655625,57.0,99.0
563,157.62775285625,158.31714686458332,62.0,102.0
564,157.62775285625,158.3266165625,65.0,99.0
565,158.30957110625,158.8493438875,50.0,117.0
566,158.30957110625,158.94404086666665,38.0,92.0
567,158.76411660624998,159.21108634791665,65.0,117.0
568,158.76411660624998,159.21487422708333,62.0,127.0
569,159.21866210625,159.3266166625,57.0,97.0
570,159.67320760625,160.47055617083333,29.0,112.0
571,159.67320760625,160.47623798958332,68.0,93.0
572,159.67320760625,160.5084349625,60.0,85.0
573,159.67320760625,160.51222284166667,65.0,97.0
574,159.67320760625,160.51790466041666,41.0,117.0
575,159.67320760625,160.52169253958334,53.0,112.0
576,160.58229860625,161.30010170833333,67.0,112.0
577,160.58229860625,161.30957140625,64.0,122.0
578,160.58229860625,161.33040474166665,60.0,107.0
579,160.58229860625,161.37585929166664,48.0,117.0
580,160.58229860625,161.39101080833333,36.0,127.0
581,161.49138960624998,162.23191998333334,68.0,117.0
582,161.49138960624998,162.26032907708333,63.0,127.0
583,161.49138960624998,162.30010180833332,56.0,117.0
584,161.49138960624998,162.33229878125,44.0,127.0
585,161.49138960624998,162.33798059999998,32.0,127.0
586,162.40048060625,163.19782917083333,59.0,112.0
587,162.40048060625,163.20540492916666,62.0,122.0
588,162.40048060625,163.2129806875,31.0,107.0
589,162.40048060625,163.24328372083332,55.0,99.0
590,162.40048060625,163.27926857291666,43.0,112.0
591,163.30957160625,163.35313221666667,61.0,78.0
592,163.30957160625,163.82851105208334,55.0,99.0
593,163.30957160625,163.83229893125,60.0,92.0
594,163.30957160625,163.8834353,64.0,93.0
595,163.76411710624998,164.25464745833332,48.0,95.0
596,163.30957160625,164.63343537499998,36.0,96.0
597,164.90048085625,164.98760207708332,48.0,93.0
598,164.90048085625,165.01222329166666,36.0,63.0
599,164.21866260625,165.01222329166666,55.0,122.0
600,164.21866260625,165.03495056666665,60.0,127.0
601,164.21866260625,165.05010208333334,64.0,102.0
602,165.12775360625,165.2129808875,55.0,67.0
603,165.12775360625,165.21866270625,60.0,72.0
604,165.12775360625,165.24138998125,64.0,74.0
605,165.12775360625,165.28873847083332,48.0,93.0
606,165.12775360625,165.29063241041666,36.0,73.0
607,165.58229910625,165.8266173125,55.0,97.0
608,165.58229910625,165.84745064791667,60.0,102.0
609,165.58229910625,165.84934458749998,64.0,99.0
610,165.58229910625,166.11070825,48.0,99.0
611,165.58229910625,166.36828403333334,36.0,82.0
612,166.03684460624999,166.38911736875,60.0,127.0
613,166.26411735624998,166.40048100625,48.0,97.0
614,166.03684460624999,166.43078403958333,64.0,112.0
615,166.49139010624998,166.542526475,64.0,40.0
616,166.49139010624998,166.54442041458333,60.0,57.0
617,166.49139010624998,166.57472344791665,55.0,99.0
618,166.94593560625,167.32472352291666,64.0,97.0
619,166.94593560625,167.33419322083333,59.0,100.0
620,166.94593560625,167.33798109999998,67.0,96.0
621,166.94593560625,168.45919333333333,52.0,95.0
622,166.94593560625,168.49517818541665,40.0,78.0
623,168.53684485624999,168.63911759375,52.0,88.0
624,168.53684485624999,168.65237517083332,40.0,75.0
625,168.30957210625,168.68646608333333,59.0,78.0
626,167.85502660625,168.8493448875,64.0,117.0
627,167.85502660625,168.860708525,67.0,102.0
628,168.76411760625,168.86260246458332,52.0,102.0
629,168.76411760625,168.87017822291665,40.0,88.0
630,169.21866310625,169.80578437708334,52.0,102.0
631,169.90048135625,170.0652541,52.0,92.0
632,169.67320860625,170.17320865624998,64.0,122.0
633,169.21866310625,170.18078441458334,40.0,93.0
634,169.67320860625,170.20351168958334,67.0,117.0
635,170.12775410625,170.20729956875,59.0,90.0
636,170.58229960625,170.99517843541668,67.0,100.0
637,170.58229960625,171.10881481041667,63.0,122.0
638,170.58229960625,171.1447996625,39.0,127.0
639,170.58229960625,171.16752693749999,70.0,122.0
640,171.03684510624998,171.17131481666667,51.0,75.0
641,171.49139060624998,172.1921482520833,62.0,127.0
642,171.49139060624998,172.26222401666666,38.0,97.0
643,172.40048160625,172.6675270875,36.0,97.0
644,172.40048160625,172.70540587916668,64.0,100.0
645,172.40048160625,172.70919375833333,67.0,100.0
646,172.40048160625,172.7357089125,60.0,117.0
647,173.30957260625,173.82093629374998,34.0,127.0
648,173.30957260625,173.88722417916665,65.0,90.0
649,173.30957260625,173.94404236666665,58.0,127.0
650,173.30957260625,173.95351206458332,62.0,102.0
651,174.21866360625,174.59555758333332,65.0,102.0
652,174.21866360625,174.59745152291666,68.0,112.0
653,174.21866360625,174.60123940208334,60.0,100.0
654,175.12775460625,175.24328492083333,60.0,117.0
655,175.12775460625,175.25654249791666,65.0,127.0
656,175.12775460625,175.28684553124998,68.0,127.0
657,174.21866360625,175.48760312708333,41.0,99.0
658,174.21866360625,175.53873949583334,29.0,85.0
659,175.80957285624999,175.91373953333334,29.0,37.0
660,175.80957285624999,175.93267892916666,41.0,93.0
661,176.03684560624998,176.19972441041665,62.0,97.0
662,176.03684560624998,176.20351228958333,71.0,92.0
663,176.03684560624998,176.21108804791666,67.0,95.0
664,176.03684560624998,176.678891125,43.0,107.0
665,176.03684560624998,176.68078506458332,31.0,79.0
666,176.49139110624998,177.03684570625,62.0,112.0
667,176.49139110624998,177.08230025625,67.0,127.0
668,176.49139110624998,177.09555783333332,71.0,117.0
669,176.94593660625,177.33040634166667,31.0,92.0
670,176.94593660625,177.42699726041667,43.0,112.0
671,177.40048210625,177.45540635416666,71.0,96.0
672,177.40048210625,177.47434575,67.0,122.0
673,177.40048210625,177.52548211875,62.0,127.0
674,177.85502760625,178.71677011666665,58.0,112.0
675,177.85502760625,178.92320953125,62.0,95.0
676,177.85502760625,178.94593680625,53.0,96.0
677,179.21866410625,180.0652551,53.0,102.0
678,179.21866410625,180.08040661666666,58.0,127.0
679,179.21866410625,180.10123995208335,62.0,102.0
680,177.85502760625,180.32283088333332,46.0,96.0
681,177.85502760625,180.3341945208333,34.0,93.0
682,180.58230060625,180.91563397291668,46.0,112.0
683,180.58230060625,180.92320973124998,34.0,89.0
684,180.35502785625,181.21677036666665,53.0,89.0
685,180.35502785625,181.3379825,58.0,117.0
686,180.35502785625,181.3455582583333,62.0,95.0
687,181.03684610624998,181.98381589791666,46.0,95.0
688,181.03684610624998,182.13911894375,34.0,100.0
689,181.94593710625,182.48570988749998,58.0,127.0
690,182.62775535625,182.74896748958332,58.0,112.0
691,181.94593710625,182.85313416666668,62.0,117.0
692,182.40048260625,182.86260386458332,53.0,93.0
693,183.30957360625,183.678891825,60.0,127.0
694,183.30957360625,183.76033122708333,64.0,127.0
695,183.30957360625,183.85124032708333,57.0,112.0
696,184.67321010625,184.86828588333333,57.0,107.0
697,184.67321010625,185.59366474375,60.0,117.0
698,184.67321010625,185.61639201875,64.0,112.0
699,183.30957360625,185.68646778333334,33.0,85.0
700,183.30957360625,185.79821021875,45.0,99.0
701,185.80957385624998,185.88722537916667,57.0,93.0
702,185.80957385624998,185.93267992916668,60.0,112.0
703,185.80957385624998,185.93836174791664,64.0,96.0
704,186.49139210624998,186.8171497145833,55.0,63.0
705,186.03684660624998,186.97245276041667,48.0,107.0
706,186.94593760625,187.19404369166665,55.0,85.0
707,187.40048310625,187.76033162708333,55.0,122.0
708,187.85502860625,188.04063468541665,55.0,36.0
709,187.40048310625,188.07093771874997,60.0,127.0
710,187.40048310625,188.09745287291668,64.0,117.0
711,187.17321035625,188.4307862395833,48.0,81.0
712,186.03684660624998,188.48760442708334,36.0,82.0
713,188.53684685625,188.63154383541666,36.0,63.0
714,188.53684685625,188.63911959375,48.0,83.0
715,188.30957410625,188.87018022291664,60.0,122.0
716,188.30957410625,188.87775598125,64.0,107.0
717,189.67321060625,189.96108942291664,55.0,117.0
718,188.76411960625,190.0084379125,48.0,117.0
719,188.76411960625,190.03684700625,36.0,81.0
720,190.12775610625,190.41563492291667,55.0,127.0
721,190.12775610625,190.42321068125,60.0,127.0
722,190.12775610625,190.42699856041668,48.0,122.0
723,190.12775610625,190.43836219791666,64.0,122.0
724,190.12775610625,190.45540765416666,36.0,92.0
725,190.58230160624998,190.70730161875,55.0,96.0
726,190.58230160624998,190.78684708125,48.0,92.0
727,190.58230160624998,190.90048345625,36.0,50.0
728,190.58230160624998,190.93268042916668,60.0,107.0
729,190.58230160624998,190.98192285833332,64.0,96.0
730,191.03684710624998,191.0766198375,64.0,35.0
731,191.03684710624998,191.28684713125,59.0,117.0
732,191.03684710624998,191.45351381458335,35.0,95.0
733,191.49139260624997,192.22813510416665,57.0,122.0
734,191.49139260624997,192.52737755833334,64.0,112.0
735,191.49139260624997,192.63154423541664,60.0,122.0
736,192.62775635625,193.56525645,45.0,77.0
737,191.49139260624997,193.61260493958332,33.0,97.0
738,192.85502910625,193.89101405833333,57.0,122.0
739,193.76412010625,193.906165575,33.0,69.0
740,192.85502910625,193.9402564875,60.0,122.0
741,192.85502910625,193.94404436666667,64.0,117.0
742,193.76412010625,194.0311655875,40.0,78.0
743,193.76412010625,194.05957468125,45.0,89.0
744,194.21866560625,195.19215055208332,43.0,99.0
745,194.21866560625,195.33608996041664,55.0,112.0
746,194.21866560625,195.36260511458335,62.0,112.0
747,194.21866560625,195.37775663125,59.0,102.0
748,195.35502935625,195.81146879583332,43.0,99.0
749,195.58230210624998,196.19404459166665,55.0,112.0
750,195.58230210624998,196.3285143020833,59.0,122.0
751,195.58230210624998,196.34177187916666,62.0,127.0
752,196.03684760624998,196.87965072083333,43.0,85.0
753,194.21866560625,196.90237799583332,31.0,73.0
754,196.49139310624997,196.906165875,59.0,102.0
755,196.49139310624997,196.91374163333333,62.0,100.0
756,196.49139310624997,196.92131739166666,55.0,102.0
757,196.94593860625,197.94404476666665,42.0,89.0
758,196.94593860625,197.99328719583332,30.0,75.0
759,196.94593860625,198.10881751041666,60.0,97.0
760,196.94593860625,198.11260538958334,54.0,127.0
761,196.94593860625,198.11449932916668,57.0,107.0
762,198.08230235625,198.43836299791667,42.0,41.0
763,198.30957510625,198.56715088958333,60.0,99.0
764,198.30957510625,198.57283270833332,57.0,107.0
765,198.08230235625,198.57472664791666,30.0,54.0
766,198.30957510625,198.58419634583333,54.0,127.0
767,198.76412060625,199.02359032916667,54.0,127.0
768,198.76412060625,199.05578730208333,57.0,100.0
769,198.76412060625,199.06525699999997,60.0,95.0
770,199.21866610625,199.2811661125,57.0,83.0
771,199.21866610625,199.2944236895833,54.0,122.0
772,199.67321160625,200.39859046666666,62.0,127.0
773,200.35502985624998,200.39859046666666,62.0,72.0
774,199.67321160625,200.4023783458333,55.0,107.0
775,200.35502985624998,200.4023783458333,55.0,99.0
776,199.67321160625,200.44783289583333,59.0,127.0
777,200.35502985624998,200.44783289583333,59.0,81.0
778,200.58230260624998,200.86260566458333,38.0,31.0
779,199.67321160625,200.92510567083332,43.0,100.0
780,199.67321160625,200.95540870416664,31.0,67.0
781,201.03684810624998,201.24518146041666,55.0,117.0
782,201.03684810624998,201.26033297708332,59.0,122.0
783,201.03684810624998,201.26033297708332,62.0,122.0
784,201.03684810624998,201.64290877291666,43.0,112.0
785,201.03684810624998,201.66184816875,31.0,92.0
786,201.03684810624998,201.74896938958332,38.0,117.0
787,201.49139360625,201.76222696666667,55.0,117.0
788,201.49139360625,201.78306030208333,59.0,117.0
789,201.49139360625,201.79253,62.0,117.0
790,201.94593910625,202.23760580208332,55.0,102.0
791,201.94593910625,202.26412095625,62.0,102.0
792,201.94593910625,202.26601489583334,31.0,75.0
793,201.94593910625,202.269802775,43.0,100.0
794,201.94593910625,202.28495429166668,59.0,117.0
795,201.94593910625,202.29253004999998,38.0,107.0
796,202.40048460625,206.06336376041668,38.0,127.0
797,202.40048460625,206.06715163958333,59.0,127.0
798,202.40048460625,206.07472739791666,55.0,122.0
799,206.03684860624998,206.07472739791666,55.0,99.0
800,202.40048460625,206.0766213375,43.0,117.0
801,202.40048460625,206.08040921666668,62.0,127.0
802,202.40048460625,206.0993486125,31.0,76.0
803,206.03684860624998,206.65806078958332,60.0,96.0
804,206.03684860624998,206.70919715833332,64.0,92.0
805,206.03684860624998,207.36828813333332,36.0,102.0
806,206.49139410625,207.38343965,48.0,70.0
807,206.94593960625,207.69404574166666,55.0,112.0
808,206.94593960625,207.7148790770833,60.0,112.0
809,207.62775785625,207.72056089583333,36.0,64.0
810,206.94593960625,207.73381847291665,64.0,99.0
811,207.62775785625,207.7357124125,48.0,102.0
812,207.85503060625,207.99328819583332,60.0,95.0
813,207.85503060625,208.0311669875,55.0,95.0
814,207.85503060625,208.0311669875,64.0,88.0
815,207.85503060625,208.65237917083334,48.0,96.0
816,207.85503060625,208.6902579625,36.0,81.0
817,208.30957610625,208.99897011458333,55.0,102.0
818,208.30957610625,209.10692467083334,60.0,117.0
819,208.76412160625,209.22056104583334,48.0,86.0
820,208.30957610625,209.23192468333332,64.0,97.0
821,208.76412160625,209.33230348125,36.0,66.0
822,209.21866710625,209.37775803124998,55.0,102.0
823,209.67321260625,210.33609146041664,52.0,95.0
824,209.67321260625,210.33609146041664,55.0,93.0
825,209.67321260625,210.37586419166666,59.0,97.0
826,210.58230360624998,210.64290967291666,55.0,122.0
827,210.58230360624998,210.64859149166665,52.0,112.0
828,210.58230360624998,210.65427331041667,59.0,112.0
829,209.67321260625,211.0311672875,47.0,117.0
830,211.03684910624997,211.178894575,47.0,67.0
831,209.67321260625,211.26790973541665,35.0,63.0
832,211.26412185625,211.26790973541665,35.0,63.0
833,211.26412185625,211.3626067145833,47.0,83.0
834,211.49139460625,212.18078861458332,35.0,81.0
835,211.49139460625,212.19783407083332,47.0,96.0
836,212.40048560625,212.55957653125,35.0,78.0
837,211.94594010625,212.5766219875,52.0,100.0
838,211.94594010625,212.61260683958332,55.0,99.0
839,211.94594010625,212.63722805416666,59.0,99.0
840,212.40048560625,212.69404624166665,47.0,97.0
841,212.85503110625,212.91374323333332,59.0,92.0
842,212.85503110625,212.92321293125,55.0,95.0
843,213.30957660625,213.83230393125,57.0,107.0
844,213.30957660625,213.88154636041668,65.0,96.0
845,213.30957660625,213.9175312125,62.0,102.0
846,214.21866760625,214.3038948875,65.0,107.0
847,214.21866760625,214.315258525,57.0,107.0
848,214.21866760625,214.31904640416667,62.0,117.0
849,213.30957660625,215.01033435208333,38.0,76.0
850,213.30957660625,215.0311676875,50.0,93.0
851,215.12775860624998,215.23192528333334,50.0,95.0
852,215.12775860624998,215.2357131625,38.0,74.0
853,214.90048585625,215.53684955625,57.0,99.0
854,214.90048585625,215.58987986458334,62.0,102.0
855,214.90048585625,215.59934956249998,65.0,99.0
856,215.58230410624998,216.1220768875,50.0,117.0
857,215.58230410624998,216.21677386666664,38.0,92.0
858,216.03684960624997,216.48381934791666,65.0,117.0
859,216.03684960624997,216.48760722708334,62.0,127.0
860,216.49139510625,216.5993496625,57.0,97.0
861,216.94594060625,217.74328917083332,29.0,112.0
862,216.94594060625,217.7489709895833,68.0,93.0
863,216.94594060625,217.78116796249998,60.0,85.0
864,216.94594060625,217.78495584166666,65.0,97.0
865,216.94594060625,217.79063766041668,41.0,117.0
866,216.94594060625,217.79442553958333,53.0,112.0
867,217.85503160625,218.57283470833335,67.0,112.0
868,217.85503160625,218.58230440625,64.0,122.0
869,217.85503160625,218.60313774166667,60.0,107.0
870,217.85503160625,218.64859229166666,48.0,117.0
871,217.85503160625,218.66374380833332,36.0,127.0
872,218.76412260625,219.50465298333333,68.0,117.0
873,218.76412260625,219.53306207708334,63.0,127.0
874,218.76412260625,219.5728348083333,56.0,117.0
875,218.76412260625,219.60503178124998,44.0,127.0
876,218.76412260625,219.6107136,32.0,127.0
877,219.67321360625,220.47056217083332,59.0,112.0
878,219.67321360625,220.47813792916668,62.0,122.0
879,219.67321360625,220.48571368749998,31.0,107.0
880,219.67321360625,220.5160167208333,55.0,99.0
881,219.67321360625,220.55200157291665,43.0,112.0
882,220.58230460624998,220.62586521666665,61.0,78.0
883,220.58230460624998,221.10124405208333,55.0,99.0
884,220.58230460624998,221.10503193124998,60.0,92.0
885,220.58230460624998,221.1561683,64.0,93.0
886,221.03685010625,221.5273804583333,48.0,95.0
887,220.58230460624998,221.906168375,36.0,96.0
888,222.17321385625,222.2603350770833,48.0,93.0
889,222.17321385625,222.28495629166667,36.0,63.0
890,221.49139560625,222.28495629166667,55.0,122.0
891,221.49139560625,222.30768356666664,60.0,127.0
892,221.49139560625,222.32283508333333,64.0,102.0
893,222.40048660625,222.4857138875,55.0,67.0
894,222.40048660625,222.49139570625,60.0,72.0
895,222.40048660625,222.51412298125,64.0,74.0
896,222.40048660625,222.56147147083334,48.0,93.0
897,222.40048660625,222.56336541041668,36.0,73.0
898,222.85503210625,223.0993503125,55.0,97.0
899,222.85503210625,223.12018364791666,60.0,102.0
900,222.85503210625,223.12207758749997,64.0,99.0
901,222.85503210625,223.38344124999998,48.0,99.0
902,222.85503210625,223.64101703333333,36.0,82.0
903,223.30957760625,223.66185036874998,60.0,127.0
904,223.53685035625,223.67321400625,48.0,97.0
905,223.30957760625,223.70351703958335,64.0,112.0
906,223.76412310625,223.815259475,64.0,40.0
907,223.76412310625,223.81715341458334,60.0,57.0
908,223.76412310625,223.84745644791667,55.0,99.0
909,224.21866860625,224.59745652291667,64.0,97.0
910,224.21866860625,224.60692622083332,59.0,100.0
911,224.21866860625,224.6107141,67.0,96.0
912,224.21866860625,225.73192633333332,52.0,95.0
913,224.21866860625,225.76791118541666,40.0,78.0
914,225.80957785624997,225.91185059375,52.0,88.0
915,225.80957785624997,225.9251081708333,40.0,75.0
916,225.58230510624998,225.95919908333332,59.0,78.0
917,225.12775960624998,226.12207788749998,64.0,117.0
918,225.12775960624998,226.133441525,67.0,102.0
919,226.03685060625,226.1353354645833,52.0,102.0
920,226.03685060625,226.14291122291667,40.0,88.0
921,226.49139610625,227.07851737708333,52.0,102.0
922,227.17321435625,227.3379871,52.0,92.0
923,226.94594160625,227.44594165625,64.0,122.0
924,226.49139610625,227.45351741458333,40.0,93.0
925,226.94594160625,227.47624468958332,67.0,117.0
926,227.40048710625,227.48003256875,59.0,90.0
927,227.85503260625,228.26791143541666,67.0,100.0
928,227.85503260625,228.38154781041666,63.0,122.0
929,227.85503260625,228.41753266249998,39.0,127.0
930,227.85503260625,228.4402599375,70.0,122.0
931,228.30957810625,228.44404781666665,51.0,75.0
932,228.76412360625,229.46488125208333,62.0,127.0
933,228.76412360625,229.53495701666668,38.0,97.0
934,229.67321460624999,229.9402600875,36.0,97.0
935,229.67321460624999,229.97813887916666,64.0,100.0
936,229.67321460624999,229.98192675833332,67.0,100.0
937,229.67321460624999,230.0084419125,60.0,117.0
938,230.58230560624997,231.09366929375,34.0,127.0
939,230.58230560624997,231.15995717916667,65.0,90.0
940,230.58230560624997,231.21677536666667,58.0,127.0
941,230.58230560624997,231.22624506458334,62.0,102.0
942,231.49139660625,231.86829058333333,65.0,102.0
943,231.49139660625,231.87018452291665,68.0,112.0
944,231.49139660625,231.87397240208333,60.0,100.0
945,232.40048760625,232.51601792083332,60.0,117.0
946,232.40048760625,232.52927549791667,65.0,127.0
947,232.40048760625,232.55957853125,68.0,127.0
948,231.49139660625,232.76033612708332,41.0,99.0
949,231.49139660625,232.81147249583333,29.0,85.0
950,233.08230585625,233.18647253333333,29.0,37.0
951,233.08230585625,233.20541192916664,41.0,93.0
952,233.30957860625,233.47245741041667,62.0,97.0
953,233.30957860625,233.47624528958335,71.0,92.0
954,233.30957860625,233.48382104791665,67.0,95.0
955,233.30957860625,233.951624125,43.0,107.0
956,233.30957860625,233.9535180645833,31.0,79.0
957,233.76412410625,234.30957870625,62.0,112.0
958,233.76412410625,234.35503325625,67.0,127.0
959,233.76412410625,234.36829083333333,71.0,117.0
960,234.21866960625,234.60313934166666,31.0,92.0
961,234.21866960625,234.69973026041666,43.0,112.0
962,234.67321510624998,234.72813935416667,71.0,96.0
963,234.67321510624998,234.74707875000001,67.0,122.0
964,234.67321510624998,234.79821511875,62.0,127.0
965,235.12776060624998,235.71298793749997,67.0,96.0
966,235.12776060624998,235.74897278958332,64.0,96.0
967,235.58230610624997,236.11260918958334,55.0,47.0
968,236.03685160625,236.87586684166666,64.0,90.0
969,236.03685160625,236.92510927083333,67.0,92.0
970,236.49139710625,237.0538971625,55.0,58.0
971,236.94594260625001,237.76412450625,69.0,76.0
972,237.40048810625,237.98192755833333,55.0,57.0
973,235.12776060624998,238.67510944583333,48.0,71.0
974,237.85503360625,238.69594278124998,67.0,100.0
975,238.30957910625,238.80010945833334,55.0,40.0
976,238.76412460625,239.27359435416668,60.0,83.0
977,238.76412460625,239.28874587083334,67.0,71.0
978,238.76412460625,239.30768526666668,64.0,77.0
979,239.21867010625,239.79442773958334,55.0,55.0
980,239.67321560624998,240.29442778958332,67.0,83.0
981,239.67321560624998,240.30768536666665,64.0,85.0
982,240.12776110624998,240.71677631666665,55.0,64.0
983,240.58230660625,240.74707934999998,60.0,39.0
984,240.58230660625,241.31147334583332,69.0,86.0
985,241.03685210625,241.66185216875,55.0,59.0
986,241.49139760625,242.08230675624998,67.0,72.0
987,238.76412460625,242.12586736666665,48.0,69.0
988,241.49139760625,242.3379886,64.0,70.0
989,241.94594310625,242.45351891458333,55.0,66.0
990,242.40048860625,242.9743523,60.0,83.0
991,242.40048860625,242.97814017916664,67.0,77.0
992,242.40048860625,243.20730686874998,64.0,66.0
993,242.85503410625,243.41185234375,55.0,43.0
994,243.30957960625,243.87776148125,67.0,75.0
995,243.30957960625,244.30768576666668,64.0,85.0
996,243.76412510625,244.48761002708335,55.0,72.0
997,244.21867060625,244.96677674166665,69.0,78.0
998,244.67321610624998,245.30011010833334,55.0,60.0
999,242.40048860625,245.76223136666664,48.0,92.0
1000,245.12776160624998,245.9251101708333,67.0,102.0
1001,245.58230710624997,246.03685260624997,55.0,50.0
1002,246.49139810625002,253.72056549583334,55.0,40.0
1003,246.94594360625,253.77170186458335,72.0,83.0
1004,246.03685260624997,253.79442913958331,67.0,81.0
1005,246.03685260624997,253.80200489791667,48.0,73.0
1006,246.03685260624997,253.80389883750001,64.0,82.0
1007,246.03685260624997,253.81905035416668,60.0,70.0
