,start,end,pitch,velocity
0,59.54867233125,59.92367205625,80.0,90.0
1,60.065701956249995,60.54547809375,80.0,92.0
2,60.582052956249996,60.79935066875,78.0,90.0
3,60.840228456249996,61.10270688125,80.0,92.0
4,61.098403956249996,61.634118118749996,82.0,97.0
5,61.614754956249996,63.59840338125,80.0,94.0
6,63.68015895625,64.54074395625,80.0,91.0
7,64.71286095625,64.96458206875,78.0,94.0
8,64.97103645625,65.21845464375,80.0,89.0
9,65.22921195625,65.78213781875,73.0,94.0
10,65.74556295625,67.54633706875,75.0,94.0
11,67.81096695625,68.20038166875,75.0,102.0
12,68.32731795625,68.75330753125,75.0,95.0
13,68.84366895625,69.04160350625,73.0,90.0
14,69.10184445625,69.33850533125,75.0,94.0
15,69.36001995625,69.84840194374999,71.0,89.0
16,69.87637095625,71.76320356875,73.0,92.0
17,71.94177495625,72.33979551875,73.0,92.0
18,72.45812595625,72.83678335625,73.0,90.0
19,72.97447695625,73.17241150625,73.0,90.0
20,73.23265245625,73.42628408125,75.0,95.0
21,73.49082795625,73.98566433124999,77.0,91.0
22,74.00717895625,75.90046595625,75.0,93.0
23,76.07258295625,76.44693743125,80.0,90.0
24,76.58893395625,77.06871009375,80.0,92.0
25,77.10528495625,77.32258266875,78.0,90.0
26,77.36346045625,77.62593888125,80.0,92.0
27,77.62163595625,78.15735011875,82.0,97.0
28,78.13798695625,80.12163538125,80.0,94.0
29,80.20339095624999,81.07258180625,80.0,97.0
30,81.23609295624999,81.50502576875,82.0,88.0
31,81.49426845625,81.74168664375,80.0,90.0
32,81.75244395625,82.03858846874999,78.0,93.0
33,82.01061945625,82.30321835625,73.0,92.0
34,82.26879495624999,84.16853634374999,75.0,97.0
35,84.33419895624999,84.72361366875,75.0,102.0
36,84.85054995625,85.27653953125,75.0,95.0
37,85.36690095624999,85.56483550625,73.0,90.0
38,85.62507645625,85.86173733125,75.0,94.0
39,85.88325195625,86.37163394375,71.0,89.0
40,86.39960295624999,88.28643556875,73.0,92.0
41,88.46500695625,89.24598784375,78.0,94.0
42,89.23953345625,89.49986041875,75.0,94.0
43,89.49770895625,89.79676224375,82.0,97.0
44,89.75588445625,90.03342311875,80.0,92.0
45,90.01405995625,90.57774313125,78.0,92.0
46,90.53041095625,94.57085753125,80.0,89.0
47,100.85743095625,101.28126906874999,80.0,99.0
48,101.37378195625,101.82989200624999,80.0,104.0
49,101.89013295625,102.13109675625,83.0,97.0
50,102.14830845624999,102.33978861874999,85.0,95.0
51,102.40648395625,102.65390214375,82.0,99.0
52,102.66465945625,102.94434958125001,80.0,91.0
53,102.92283495625,104.38152653124999,83.0,97.0
54,104.98823895625,105.50028703125,80.0,95.0
55,105.50458995625,105.88539881874999,85.0,95.0
56,106.02094095625,106.55665511875,85.0,95.0
57,106.53729195625,106.81483061875,82.0,92.0
58,106.79546745625001,107.54202494375,80.0,89.0
59,107.56999395625,108.82429659375,78.0,90.0
60,109.11904695625,109.78815179374999,73.0,94.0
61,109.89357345625,110.10226531875,75.0,99.0
62,110.15174895625,110.37119813125,73.0,94.0
63,110.40992445625,110.66379703125,75.0,95.0
64,110.66809995624999,111.04675735625,78.0,92.0
65,111.18445095625,111.58032005625,80.0,90.0
66,111.70080195624999,112.08591374375,80.0,90.0
67,112.21715295625,112.47747991874999,75.0,95.0
68,112.47532845625,112.77653320625001,76.0,82.0
69,112.73350395624999,112.96371044374999,75.0,95.0
70,112.99167945625,113.30579298125,73.0,88.0
71,113.24985495625,114.39443300625,71.0,89.0
72,114.79890795624999,115.07429515625,73.0,92.0
73,115.05708345625,115.31310749375,75.0,94.0
74,115.31525895625,116.92455290625,78.0,89.0
75,116.86431195624999,117.03642895625,75.0,94.0
76,117.12248745625,117.31611908125001,78.0,94.0
77,117.38066295625,117.75932035625,80.0,92.0
78,117.89701395624999,118.34451815624999,80.0,92.0
79,118.41336495625,118.64787436875,83.0,89.0
80,118.67154045625,118.83720306875,85.0,92.0
81,118.92971595624999,119.15561951875,82.0,95.0
82,119.18789145625,119.45897573125,80.0,90.0
83,119.44606695625001,120.83160880624999,83.0,87.0
84,121.51147095625001,121.98048978125,80.0,94.0
85,122.02782195625,122.40432789375001,85.0,99.0
86,122.54417295625001,123.05191810625,85.0,92.0
87,123.06052395625,123.32730530625,82.0,90.0
88,123.31869945625,123.50802815624999,80.0,90.0
89,123.57687495625001,124.06955986875,80.0,88.0
90,124.09322595625,125.09580748124999,78.0,88.0
91,125.64227895625,126.35011011875,73.0,89.0
92,126.41680545625,126.67282949375,75.0,92.0
93,126.67498095625,126.97403424375,73.0,92.0
94,126.93315645625,127.18702903124999,75.0,102.0
95,127.19133195625,127.78083268125,78.0,92.0
96,127.70768295625,128.06267426875002,80.0,93.0
97,128.22403395625,128.66078084375,80.0,99.0
98,128.74038495625,129.01792361875,75.0,97.0
99,128.99856045625,129.30191666874998,76.0,87.0
100,129.25673595625,129.50200268125002,75.0,95.0
101,129.51491145625,129.83117644375,73.0,88.0
102,129.77308695624998,131.01878374375,71.0,80.0
103,131.32213995625,131.55234644375,73.0,92.0
104,131.58031545625,131.84279388125,75.0,95.0
105,131.83849095624998,133.36387786875,78.0,92.0
106,133.38754395625,133.62205336875002,75.0,90.0
107,133.64571945625,133.89528910625,78.0,89.0
108,133.90389495624999,134.52566761875,73.0,93.0
109,134.67842145625,134.86559869375,75.0,92.0
110,134.93659695625,135.11086541875,70.0,84.0
111,135.19477245625,135.34967775625,68.0,88.0
112,135.45294795625,135.91766385625,66.0,87.0
113,135.96929895625,137.96370469375,68.0,88.0
114,183.47359095625,183.84794543125,80.0,90.0
115,183.98994195625,184.46971809375,80.0,92.0
116,184.50629295624998,184.72359066874998,78.0,90.0
117,184.76446845625,185.02694688125,80.0,92.0
118,185.02264395625,185.55835811875,82.0,97.0
119,185.53899495625,187.52264338125,80.0,94.0
120,187.60439895625,188.46498395625002,80.0,91.0
121,188.63710095624998,188.88882206875002,78.0,94.0
122,188.89527645624997,189.14269464375002,80.0,89.0
123,189.15345195625002,189.70637781875,73.0,94.0
124,189.66980295625,191.47057706875,75.0,94.0
125,191.73520695625,192.12462166875002,75.0,102.0
126,192.25155795625,192.67754753125,75.0,95.0
127,192.76790895624998,192.96584350625,73.0,90.0
128,193.02608445624998,193.26274533125002,75.0,94.0
129,193.28425995625003,193.77264194375,71.0,89.0
130,193.80061095625,195.68744356874998,73.0,92.0
131,195.86601495625,196.26403551875,73.0,92.0
132,196.38236595625,196.76102335625,73.0,90.0
133,196.89871695624998,197.09665150625,73.0,90.0
134,197.15689245624998,197.35052408125,75.0,95.0
135,197.41506795624997,197.90990433125,77.0,91.0
136,197.93141895625,199.82470595625,75.0,93.0
137,199.99682295625,200.37117743124998,80.0,90.0
138,200.51317395625,200.99295009374998,80.0,92.0
139,201.02952495625,201.24682266874999,78.0,90.0
140,201.28770045624998,201.55017888125002,80.0,92.0
141,201.54587595624997,202.08159011875,82.0,97.0
142,202.06222695625002,204.04587538124997,80.0,94.0
143,204.12763095625002,204.99682180625,80.0,97.0
144,205.16033295625,205.42926576874999,82.0,88.0
145,205.41850845624998,205.66592664375003,80.0,90.0
146,205.67668395624997,205.96282846875,78.0,93.0
147,205.93485945625002,206.22745835625,73.0,92.0
148,206.19303495625002,208.09277634375002,75.0,97.0
149,208.25843895625002,208.64785366874997,75.0,102.0
150,208.77478995625,209.20077953125002,75.0,95.0
151,209.29114095625,209.48907550625,73.0,90.0
152,209.54931645624998,209.78597733125002,75.0,94.0
153,209.80749195624998,210.29587394375,71.0,89.0
154,210.32384295625002,212.21067556875,73.0,92.0
155,212.38924695625002,213.17022784375,78.0,94.0
156,213.16377345625,213.42410041875002,75.0,94.0
157,213.42194895625,213.72100224374998,82.0,97.0
158,213.68012445624998,213.95766311875002,80.0,92.0
159,213.93829995624998,214.50198313124997,78.0,92.0
160,214.45465095625002,218.49509753125,80.0,89.0
161,224.80527615625002,225.23243841875,80.0,99.0
162,225.32495130625,225.78106135625,80.0,104.0
163,225.84130230625001,226.08226610625002,83.0,97.0
164,226.09947780625,226.29095796875,85.0,95.0
165,226.35765330625,226.60507149375002,82.0,99.0
166,226.61582880625002,226.89551893125002,80.0,91.0
167,226.87400430625001,228.33269588125,83.0,97.0
168,228.93940830625002,229.45145638125,80.0,95.0
169,229.45575930625,229.83656816875,85.0,95.0
170,229.97211030625002,230.50782446875002,85.0,95.0
171,230.48846130625,230.76599996875,82.0,92.0
172,230.74663680625002,231.49319429375,80.0,89.0
173,231.52116330625,232.77546594375002,78.0,90.0
174,233.07021630625002,233.73932114375,73.0,94.0
175,233.84474280625003,234.05343466875001,75.0,99.0
176,234.10291830625002,234.32236748125,73.0,94.0
177,234.36109380625,234.61496638125,75.0,95.0
178,234.61926930625,234.99792670625,78.0,92.0
179,235.13562030625002,235.53148940625002,80.0,90.0
180,235.65197130625,236.03708309375003,80.0,90.0
181,236.16832230625002,236.42864926875,75.0,95.0
182,236.42649780625,236.72770255625002,76.0,82.0
183,236.68467330625,236.91487979375,75.0,95.0
184,236.94284880625003,237.25696233125,73.0,88.0
185,237.20102430625002,238.34560235625003,71.0,89.0
186,238.75007730625,239.02546450625002,73.0,92.0
187,239.00825280625003,239.26427684375003,75.0,94.0
188,239.26642830625002,240.87572225625001,78.0,89.0
189,240.81548130625,240.98759830625002,75.0,94.0
190,241.07365680625,241.26728843125002,78.0,94.0
191,241.33183230625002,241.71048970625,80.0,92.0
192,241.84818330625,242.29568750625,80.0,92.0
193,242.36453430625002,242.59904371875,83.0,89.0
194,242.62270980625001,242.78837241875001,85.0,92.0
195,242.88088530625,243.10678886875002,82.0,95.0
196,243.13906080625,243.41014508125002,80.0,90.0
197,243.39723630625002,244.78277815625,83.0,87.0
198,245.46264030625002,245.93165913125,80.0,94.0
199,245.97899130625,246.35549724375002,85.0,99.0
200,246.49534230625002,247.00308745625,85.0,92.0
201,247.01169330625,247.27847465625,82.0,90.0
202,247.26986880625,247.45919750625,80.0,90.0
203,247.52804430625002,248.02072921875,80.0,88.0
204,248.04439530625,249.04697683125002,78.0,88.0
205,249.59344830625002,250.30127946875,73.0,89.0
206,250.36797480625,250.62399884375,75.0,92.0
207,250.62615030625003,250.92520359375,73.0,92.0
208,250.88432580625002,251.13819838125002,75.0,102.0
209,251.14250130625,251.73200203125,78.0,92.0
210,251.65885230625003,252.01384361875,80.0,93.0
211,252.17520330625,252.61195019375,80.0,99.0
212,252.69155430625,252.96909296875,75.0,97.0
213,252.94972980625002,253.25308601875003,76.0,87.0
214,253.20790530625,253.45317203125,75.0,95.0
215,253.46608080625,253.78234579375,73.0,88.0
216,253.72425630625003,254.96995309375,71.0,80.0
217,255.27330930625,255.50351579375,73.0,92.0
218,255.53148480625,255.79396323125002,75.0,95.0
219,255.78966030625003,257.31504721875,78.0,92.0
220,257.33871330625004,257.57322271875,75.0,90.0
221,257.59688880625004,257.84645845625,78.0,89.0
222,257.85506430625003,258.47683696875004,73.0,93.0
223,258.62959080625,258.81676804375,75.0,92.0
224,258.88776630625,259.06203476875,70.0,84.0
225,259.14594180625,259.30084710625,68.0,88.0
226,259.40411730625,259.86883320625003,66.0,87.0
227,259.92046830625003,261.91487404375,68.0,88.0
228,261.98587230625003,262.40971041875,80.0,99.0
229,262.50222330625,262.95833335625,80.0,104.0
230,263.01857430625,263.25953810625003,83.0,97.0
231,263.27674980625,263.46822996875,85.0,95.0
232,263.53492530625,263.78234349375003,82.0,99.0
233,263.79310080625,264.07279093125,80.0,91.0
234,264.05127630625003,265.50996788125,83.0,97.0
235,266.11668030625003,266.62872838125,80.0,95.0
236,266.63303130625,267.01384016875,85.0,95.0
237,267.14938230625,267.68509646875003,85.0,95.0
238,267.66573330625,267.94327196875,82.0,92.0
239,267.92390880625,268.67046629375,80.0,89.0
240,268.69843530625,269.95273794375004,78.0,90.0
241,270.24748830625003,270.91659314375,73.0,94.0
242,271.02201480625,271.23070666875003,75.0,99.0
243,271.28019030625,271.49963948125003,73.0,94.0
244,271.53836580625,271.79223838125,75.0,95.0
245,271.79654130625,272.17519870625,78.0,92.0
246,272.31289230625003,272.70876140625,80.0,90.0
247,272.82924330625,273.21435509375,80.0,90.0
248,273.34559430625,273.60592126875,75.0,95.0
249,273.60376980625,273.90497455625,76.0,82.0
250,273.86194530625,274.09215179375,75.0,95.0
251,274.12012080625004,274.43423433125,73.0,88.0
252,274.37829630625004,275.52287435625,71.0,89.0
253,275.92734930625,276.20273650625,73.0,92.0
254,276.18552480625,276.44154884375,75.0,94.0
255,276.44370030625004,278.05299425625003,78.0,89.0
256,277.99275330625,278.16487030625,75.0,94.0
257,278.25092880625004,278.44456043125,78.0,94.0
258,278.50910430625004,278.88776170625,80.0,92.0
259,279.02545530625,279.47295950625,80.0,92.0
260,279.54180630625,279.77631571875,83.0,89.0
261,279.79998180625,279.96564441875,85.0,92.0
262,280.05815730625,280.28406086875003,82.0,95.0
263,280.31633280625,280.58741708125,80.0,90.0
264,280.57450830625,281.96005015625,83.0,87.0
265,282.63991230625004,283.10893113125,80.0,94.0
266,283.15626330625,283.53276924375,85.0,99.0
267,283.67261430625,284.18035945625,85.0,92.0
268,284.18896530625,284.45574665625,82.0,90.0
269,284.44714080625,284.63646950625,80.0,90.0
270,284.70531630625,285.19800121875,80.0,88.0
271,285.22166730625,286.22424883125,78.0,88.0
272,286.77072030625004,287.47855146875,73.0,89.0
273,287.54524680625,287.80127084375,75.0,92.0
274,287.80342230625,288.10247559375,73.0,92.0
275,288.06159780625,288.31547038125,75.0,102.0
276,288.31977330625,288.90927403125,78.0,92.0
277,288.83612430625,289.19111561875,80.0,93.0
278,289.35247530625,289.78922219375,80.0,99.0
279,289.86882630625,290.14636496875,75.0,97.0
280,290.12700180625,290.43035801875,76.0,87.0
281,290.38517730625,290.63044403125,75.0,95.0
282,290.64335280625,290.95961779375,73.0,88.0
283,290.90152830625004,292.14722509375,71.0,80.0
284,292.45058130625,292.68078779375,73.0,92.0
285,292.70875680625,292.97123523125003,75.0,95.0
286,292.96693230625,294.49231921875,78.0,92.0
287,294.51598530625,294.75049471875,75.0,90.0
288,295.03233630625004,296.47381618125,78.0,89.0
289,296.58138930625,297.05471105625,80.0,90.0
290,297.09774030625,298.20144056875,83.0,99.0
291,298.13044230625,299.22553671875,82.0,94.0
292,299.16314430625005,303.06374581875,80.0,92.0
