,start,end,pitch,velocity
0,1.7133608125000002,5.521547675,56.0,79.0
1,1.8297400375000001,5.521547675,63.0,71.0
2,1.7241366666666667,5.5538752375,59.0,71.0
3,1.7176711541666667,5.627151045833333,44.0,87.0
4,5.8103405666666665,9.269389754166667,44.0,73.0
5,5.842668129166667,9.571113670833334,63.0,75.0
6,5.7090475375,9.6142170875,56.0,66.0
7,5.762926808333334,9.6400791375,59.0,65.0
8,9.795251437500001,13.670248595833334,56.0,72.0
9,9.926716858333334,13.670248595833334,64.0,71.0
10,9.872837587500001,13.700420987500001,59.0,68.0
11,9.890078954166666,13.78447265,40.0,78.0
12,14.0236966125,17.40300447916667,40.0,79.0
13,14.077575883333333,17.745676641666666,64.0,77.0
14,13.956886316666667,17.771538691666667,56.0,64.0
15,14.015075929166667,17.7930904,59.0,73.0
16,18.066797095833333,19.3358593875,56.0,55.0
17,18.118521195833335,19.539897022916666,59.0,76.0
18,18.191797004166666,20.12838451875,63.0,58.0
19,19.726752541666666,20.147714399999998,59.0,74.0
20,19.47116855625,20.158453222916666,56.0,75.0
21,20.25725039375,21.034741172916668,59.0,79.0
22,20.252954864583334,21.049775525,56.0,79.0
23,19.224175629166666,21.163607047916667,51.0,75.0
24,18.1745556375,21.167902577083332,44.0,80.0
25,21.283881864583332,21.99264417708333,54.0,84.0
26,21.286029629166666,22.194534047916665,42.0,88.0
27,21.286029629166666,22.321252158333333,58.0,83.0
28,20.255102629166664,22.323399922916664,63.0,83.0
29,22.316956629166665,22.88611424375,59.0,76.0
30,22.314808864583334,23.287746220833334,56.0,82.0
31,22.823829070833334,23.521852560416665,51.0,77.0
32,23.339292570833333,23.605615379166665,59.0,76.0
33,23.352179158333332,23.6142064375,63.0,85.0
34,22.327695452083333,23.852608306249998,44.0,88.0
35,24.378810629166665,24.816954604166668,68.0,83.0
36,24.363776277083332,24.881387541666665,63.0,77.0
37,24.305786633333334,24.900717422916667,59.0,71.0
38,24.22202381458333,24.913604010416666,56.0,75.0
39,24.389549452083333,25.248655285416667,44.0,88.0
40,24.864205425,25.252950814583333,51.0,73.0
41,25.4054421,25.787744195833334,54.0,87.0
42,25.411885393749998,25.794187489583333,58.0,84.0
43,25.4054421,25.912314541666667,42.0,88.0
44,26.48576768541667,26.960423658333333,63.0,80.0
45,26.361197339583335,27.001231185416664,56.0,73.0
46,26.412743689583333,27.080698475,59.0,86.0
47,26.928207189583333,27.598309739583335,51.0,75.0
48,27.426488572916668,28.096591122916667,56.0,79.0
49,28.493927570833335,28.983617895833333,59.0,86.0
50,28.50037086458333,28.994356718749998,63.0,88.0
51,27.96772524791667,29.0781195375,51.0,64.0
52,26.4492556875,29.2069854125,44.0,85.0
53,29.45827386875,29.724596677083333,54.0,75.0
54,29.514115747916666,29.801916202083333,58.0,76.0
55,29.56136656875,29.907156666666666,61.0,79.0
56,29.53559339375,29.958703016666668,42.0,89.0
57,30.45483663541667,30.73189826666667,56.0,77.0
58,30.628805566666667,31.054062954166668,68.0,71.0
59,30.581554745833333,31.062654012499998,63.0,83.0
60,30.48920086875,31.105609304166666,59.0,76.0
61,31.051915189583333,31.79074620625,51.0,73.0
62,31.616777275,32.17734383125,56.0,89.0
63,32.62407886458333,33.25981718125,59.0,88.0
64,32.634817687500004,33.294181414583335,56.0,88.0
65,32.62837439375,33.315659060416664,63.0,89.0
66,30.57940698125,33.39942187916667,44.0,88.0
67,32.0678078375,33.46815034583334,51.0,72.0
68,33.68722233333333,33.9750227875,58.0,83.0
69,33.68722233333333,33.97717055208334,54.0,85.0
70,33.693665627083334,34.030864666666666,42.0,86.0
71,34.64727310208333,35.35687972708333,56.0,82.0
72,34.7739912125,35.688776035416666,64.0,80.0
73,34.70096721666667,35.70386223125,59.0,79.0
74,36.20170669375,36.598258127083334,59.0,89.0
75,35.70601740208333,36.88489584791667,56.0,94.0
76,35.19955225625,37.13274049375,47.0,73.0
77,34.72459262708333,37.14782668958333,40.0,92.0
78,36.74912008541666,37.18446459375,59.0,87.0
79,36.77929247708333,37.225412839583335,64.0,81.0
80,37.79653311041667,38.20601556875,54.0,83.0
81,37.79868828125,38.23834313125,58.0,86.0
82,37.82455033125,38.300843085416666,42.0,88.0
83,38.805153060416664,39.527135289583335,59.0,80.0
84,38.89351506458333,39.527135289583335,63.0,87.0
85,38.74480827708333,39.792221302083334,56.0,77.0
86,39.36549747708333,40.177996881249996,51.0,77.0
87,39.87411779375,40.25127268958333,59.0,90.0
88,39.87842813541667,40.51420353125,63.0,89.0
89,40.70170339375,40.88489291458333,56.0,74.0
90,40.80084125208333,40.92799633125,59.0,77.0
91,40.86334120625,41.00342731041667,63.0,81.0
92,40.906444622916666,41.12842721875,68.0,81.0
93,41.384892547916664,41.64135787708334,56.0,72.0
94,40.35687606041667,41.714633685416665,51.0,82.0
95,38.86118750208333,41.721099197916665,44.0,89.0
96,41.93230593958333,42.555150310416664,54.0,84.0
97,41.92799559791666,42.568081335416665,42.0,88.0
98,41.930150768749996,42.58316753125,58.0,89.0
99,43.050839602083336,43.80730456458333,64.0,78.0
100,42.992649989583335,43.81808041875,59.0,87.0
101,42.98402930625,44.035752672916665,56.0,83.0
102,44.00558028125,44.38704551875,59.0,88.0
103,44.009890622916664,44.50342474375,64.0,84.0
104,44.50126957291667,44.98618301041667,56.0,76.0
105,43.44523586458333,45.199544922916665,47.0,76.0
106,43.00989135625,45.23402765625,40.0,89.0
107,45.03359676875,45.43661371458333,59.0,88.0
108,45.03790711041667,45.43661371458333,64.0,79.0
109,45.921527152083335,46.13919940625,54.0,76.0
110,45.96894091041666,46.57023357291666,58.0,76.0
111,46.033596035416664,46.57454391458333,61.0,83.0
112,46.05514774375,46.58100942708333,42.0,88.0
113,46.07669945208333,46.68445762708333,66.0,82.0
114,47.00342291041667,47.18876760208333,56.0,78.0
115,47.040060814583335,47.60471557291667,59.0,75.0
116,47.109026281249996,47.792215435416665,63.0,82.0
117,48.15428413541667,48.37842190208333,56.0,80.0
118,48.13057725625,48.583163131250004,59.0,90.0
119,48.14350828125,48.64135274375,63.0,88.0
120,47.583163864583334,48.80730089791667,51.0,63.0
121,47.10471593958333,48.89997324375,44.0,89.0
122,48.99049041875,49.19092130625,56.0,76.0
123,49.057300714583334,49.33100741041667,59.0,76.0
124,49.121955839583336,49.41936941458333,63.0,77.0
125,49.158593743750004,49.50342107708333,68.0,79.0
126,49.14781788958334,49.790058797916664,44.0,87.0
127,49.66074854791667,50.11548959375,51.0,83.0
128,50.16721369375,50.50773068541667,58.0,77.0
129,50.10902408125,50.50988585625,54.0,74.0
130,50.20600676875,50.557299614583336,61.0,81.0
131,50.19307574375,50.600403031249996,42.0,87.0
132,51.137040568749995,51.83100557708333,56.0,77.0
133,51.26204047708333,51.878419335416666,63.0,77.0
134,51.29867838125,51.89350553125,68.0,81.0
135,51.21031637708333,51.89997104375,59.0,78.0
136,52.257729402083335,52.568074002083335,59.0,73.0
137,52.25988457291666,52.61764293125,63.0,82.0
138,53.124108077083335,53.29867691458333,56.0,75.0
139,53.18876320208334,53.34824584375,59.0,76.0
140,53.27928037708333,53.389194089583334,63.0,77.0
141,53.326694135416666,53.46246989791666,68.0,84.0
142,51.74048840208333,54.63919317291666,51.0,75.0
143,54.35471062291667,54.64565868541666,56.0,76.0
144,54.35255545208334,54.78574478958333,59.0,73.0
145,51.257730135416665,54.80083098541667,44.0,89.0
146,54.35686579375,54.805141327083334,63.0,84.0
147,55.44091672291667,56.02496801875,68.0,82.0
148,55.36117540208333,56.04436455625,63.0,77.0
149,55.31376164375,56.08100246041667,59.0,75.0
150,55.25772720208333,56.102554168750004,56.0,74.0
151,56.38919188958333,57.03574313958333,59.0,76.0
152,56.87841566875,57.139191339583334,63.0,81.0
153,55.893502597916665,58.89350039791667,51.0,79.0
154,55.40212364791667,58.93444864375,44.0,89.0
155,57.33315671458333,59.27927597708333,56.0,78.0
156,57.39134632708333,59.28789666041666,59.0,75.0
157,57.45815662291667,59.29220700208333,63.0,83.0
158,57.49479452708333,59.31806905208333,68.0,80.0
159,60.065701956249995,60.36045231875,56.0,88.0
160,60.323877456249996,60.642293906249996,58.0,89.0
161,60.582052956249996,60.773533118749995,59.0,90.0
162,60.840228456249996,61.08979810625,63.0,86.0
163,61.098403956249996,61.43188064375,70.0,90.0
164,59.54867233125,61.49427305625,44.0,90.0
165,59.807292831249995,61.50503036875,51.0,84.0
166,61.356579456249996,61.90305093125,68.0,89.0
167,61.614754956249996,62.44737094375,63.0,80.0
168,62.131105956249996,63.24126060625,51.0,63.0
169,61.614754956249996,63.28428985625,44.0,80.0
170,62.64745695625,63.61561508125,59.0,83.0
171,62.64745695625,63.61776654375,56.0,83.0
172,62.64745695625,63.64358409375,63.0,89.0
173,64.19650995625,64.50416909375,56.0,91.0
174,63.68015895625,64.52353225625,44.0,89.0
175,63.93833445625,64.53213810625,51.0,83.0
176,64.45468545625,64.67843755625,58.0,80.0
177,64.71286095625,65.07430665625,54.0,81.0
178,64.71286095625,65.21845464375,58.0,88.0
179,64.97103645625,65.49814476875,49.0,78.0
180,64.71286095625,65.50675061875,42.0,88.0
181,65.22921195625,65.56914303125,54.0,84.0
182,65.48738745625,65.78644074374999,58.0,89.0
183,65.74556295625,66.17800691875,59.0,84.0
184,65.74556295625,67.40864346875,47.0,88.0
185,66.00373845625,67.49685343125,51.0,80.0
186,66.26191395625,67.67542481875,54.0,88.0
187,66.52008945625,67.96372079375,59.0,74.0
188,66.77826495625,68.08205123125,63.0,88.0
189,68.58549345624999,69.12551054375,59.0,91.0
190,68.32731795625,69.14702516874999,56.0,89.0
191,68.84366895625,69.40950359375,68.0,90.0
192,68.06914245625,69.55795450625,51.0,81.0
193,69.10184445625,69.59452936875,63.0,84.0
194,67.81096695625,69.63755861875,44.0,90.0
195,69.36001995625,69.65261885625,56.0,84.0
196,69.87637095625,70.04633649375,56.0,83.0
197,69.87637095625,70.18618155625,61.0,86.0
198,70.65089745625,70.93704196875,64.0,82.0
199,70.39272195625,70.98222268125,61.0,83.0
200,70.13454645624999,70.99728291875,56.0,81.0
201,69.87637095625,71.56096609375,49.0,89.0
202,71.42542395625,71.56526901875,56.0,72.0
203,70.90907295625,71.57602633125,68.0,90.0
204,71.16724845625,71.65347898125,64.0,81.0
205,71.94177495625,72.09237733124999,56.0,82.0
206,71.94177495625,72.24513116874999,61.0,82.0
207,72.19995045625,72.58506224375,56.0,83.0
208,72.45812595625,72.81311726875,61.0,81.0
209,71.94177495625,72.81957165624999,49.0,93.0
210,72.97447695625,73.10571616874999,56.0,78.0
211,72.97447695625,73.28213609375,61.0,83.0
212,72.97447695625,73.52525135625,65.0,88.0
213,72.97447695625,73.62421863125,49.0,89.0
214,73.49082795625,73.99642164375,61.0,79.0
215,73.23265245625,74.16208425625,56.0,81.0
216,74.52352995625,75.35399448125,56.0,85.0
217,75.03988095625,75.36905471875,63.0,88.0
218,74.78170545625,75.41638689375,59.0,86.0
219,74.26535445625,75.85743670625,51.0,80.0
220,74.00717895625,75.87895133125,44.0,91.0
221,75.55623195625,76.39530233125,63.0,84.0
222,75.29805645625,76.61475150625,68.0,89.0
223,76.58893395625,77.11819373125,56.0,86.0
224,76.84710945625,77.19779784375,59.0,88.0
225,77.10528495625,77.42585286875,63.0,87.0
226,77.36346045625,77.68617983125,59.0,85.0
227,76.33075845625,78.00244481875,51.0,79.0
228,76.07258295625,78.00674774375,44.0,93.0
229,77.62163595625,78.75115376875,63.0,88.0
230,78.13798695625,78.77266839375,68.0,85.0
231,78.91251345625,79.21156674375,59.0,77.0
232,78.65433795625,79.30623109375,56.0,86.0
233,79.17068895625,79.53213465625,63.0,84.0
234,79.42886445625,79.83764233125,59.0,86.0
235,78.13798695625,79.89142889375,44.0,88.0
236,78.39616245625,79.89358035625,51.0,76.0
237,79.68703995625,80.25502605625,63.0,87.0
238,79.94521545625,80.25717751875,59.0,32.0
239,80.20339095624999,81.04676425625,40.0,94.0
240,80.46156645625,81.09194496875,47.0,80.0
241,80.71974195625,81.37593801874999,56.0,88.0
242,80.97791745625,81.38024094375,59.0,81.0
243,81.23609295624999,82.06010309375,42.0,90.0
244,81.49426845625,82.11388965625,49.0,84.0
245,81.75244395625,82.32258151875,54.0,90.0
246,83.04332145625,83.37249521875,63.0,84.0
247,82.78514595625,83.38970691875,59.0,86.0
248,82.52697045625,83.76190993125,54.0,70.0
249,82.26879495624999,83.81569649375,47.0,89.0
250,83.55967245625,84.28471531875,63.0,81.0
251,83.81784795625,84.29547263125,59.0,69.0
252,83.30149695624999,84.93445699374999,66.0,90.0
253,85.10872545625,85.48307993125,59.0,92.0
254,84.85054995625,85.67886301875,56.0,87.0
255,85.36690095624999,85.96070460625,68.0,90.0
256,84.59237445625,86.22533449375,51.0,84.0
257,84.33419895624999,86.26621228125,44.0,90.0
258,85.88325195625,86.50932754375,56.0,84.0
259,85.62507645625,86.71156501875,63.0,86.0
260,86.65777845625,86.97834636875,56.0,83.0
261,86.91595395625001,87.44951665625,61.0,89.0
262,87.17412945625,87.50760614375,56.0,82.0
263,86.39960295624999,88.02826006875,49.0,94.0
264,87.69048045625,88.46285549375,61.0,80.0
265,87.94865595625,88.60485201875,56.0,79.0
266,87.43230495625,89.09323400625,65.0,92.0
267,88.98135795625,89.77955054374999,54.0,82.0
268,89.23953345625,89.77955054374999,58.0,84.0
269,88.46500695625,90.21199450625,42.0,90.0
270,88.72318245625,90.24641790625,49.0,82.0
271,90.27223545625,90.59280336875,54.0,67.0
272,90.01405995625,90.63368115624999,58.0,79.0
273,89.75588445625,90.63798408125,61.0,88.0
274,89.49770895625,90.81225254374999,66.0,90.0
275,91.30493745625,91.70080655625,59.0,88.0
276,91.04676195625,91.85786331874999,56.0,87.0
277,91.82128845625,92.32042775625,63.0,87.0
278,91.56311295625,92.39788040625,68.0,90.0
279,90.78858645625,92.43875819375,51.0,79.0
280,90.53041095625,92.44306111875,44.0,90.0
281,92.07946395625,92.44736404375,59.0,87.0
282,92.59581495625,92.93359456875,56.0,85.0
283,92.59581495625,93.03901623125,59.0,88.0
284,92.33763945625,93.09710571875,63.0,81.0
285,92.59581495625,93.09710571875,63.0,88.0
286,93.11216595625,93.74899885625,56.0,91.0
287,93.37034145625,93.78127079375,59.0,97.0
288,93.62851695625,93.87378368124999,68.0,90.0
289,92.85399045624999,93.99856850625,51.0,84.0
290,92.59581495625,94.02008313125,44.0,91.0
291,93.88669245624999,94.12980771875,63.0,89.0
292,94.14486795625,94.44392124375,42.0,91.0
293,94.40304345625,94.72791429374999,54.0,90.0
294,95.17756995625,95.69607241874999,52.0,93.0
295,94.66121895625,95.72404143125,40.0,105.0
296,94.91939445624999,95.77997945625,47.0,85.0
297,95.43574545625,95.80579700625,56.0,82.0
298,95.95209645624999,96.15433393125,52.0,92.0
299,95.69392095625,96.29633045624999,64.0,89.0
300,96.21027195625,96.53083986875001,42.0,97.0
301,96.46844745625,96.79762121875,54.0,93.0
302,97.24297395625,97.83677760625,56.0,90.0
303,97.50114945625,97.84753491875,59.0,91.0
304,96.98479845624999,98.07989286875,51.0,85.0
305,96.72662295625,98.10355895625,44.0,93.0
306,97.75932495625,98.11431626875,68.0,89.0
307,98.01750045624999,98.30149350625,56.0,94.0
308,98.27567595625,98.58978948125,42.0,89.0
309,98.53385145625,98.84581351874999,54.0,93.0
310,99.05020245624999,99.59882539374999,51.0,83.0
311,98.79202695625,99.60097685625,44.0,95.0
312,99.30837795625,99.70209559375,56.0,95.0
313,99.56655345625,99.74297338125,59.0,89.0
314,99.82472895625,100.45080454375,54.0,88.0
315,99.82472895625,100.46156185625,58.0,88.0
316,100.59925545625,100.81225024375,54.0,88.0
317,100.34107995625,100.81440170625,49.0,92.0
318,99.82472895625,100.82946194375,42.0,90.0
319,100.85743095625,101.20381641875,56.0,88.0
320,100.85743095625,101.44478021875,63.0,89.0
321,101.37378195625,101.67713816874999,59.0,89.0
322,101.63195745625,102.02137216874999,56.0,88.0
323,101.89013295625,102.14830845624999,68.0,99.0
324,102.14830845624999,102.46672490625,63.0,91.0
325,101.11560645624999,102.47748221875,51.0,85.0
326,100.85743095625,102.51836000624999,44.0,91.0
327,102.40648395625,102.73565771874999,59.0,90.0
328,102.66465945625,103.02610515625,56.0,94.0
329,103.69736145625001,103.97920304375,59.0,93.0
330,103.43918595625,104.04374691875,56.0,90.0
331,102.92283495625,104.35140605625,40.0,97.0
332,103.18101045625,104.39228384375,47.0,84.0
333,103.95553695625,104.43316163125,64.0,93.0
334,104.21371245625,104.48909965625,59.0,92.0
335,104.73006345625001,104.90433191874999,59.0,84.0
336,104.47188795625,105.00760211875,56.0,94.0
337,105.24641445625,105.57343675625,56.0,91.0
338,105.50458995625,105.85958126874999,61.0,88.0
339,105.76276545625001,106.10054506875,56.0,85.0
340,104.98823895625,106.51362586875,49.0,95.0
341,106.27911645625,106.58677559374999,56.0,84.0
342,106.02094095625,106.67283409375,65.0,99.0
343,106.53729195625,106.93961544375,61.0,84.0
344,106.79546745625001,107.12248975624999,56.0,79.0
345,107.31181845625,107.63668929375,54.0,88.0
346,107.56999395625,107.94004550625,59.0,89.0
347,107.82816945625,108.15734321875,54.0,82.0
348,107.05364295625,108.52739476875,47.0,97.0
349,108.34452045625,108.65648251875,54.0,80.0
350,108.08634495625,108.66293690625,63.0,91.0
351,108.60269595624999,108.74899540625,59.0,87.0
352,109.11904695625,109.70639621875,58.0,84.0
353,109.63539795624999,110.17756650625,61.0,84.0
354,109.89357345625,110.23350453124999,58.0,88.0
355,109.11904695625,110.40992445625,54.0,82.0
356,109.37722245625,110.54546659375,49.0,81.0
357,109.11904695625,110.55622390625,42.0,89.0
358,110.15174895625,110.68531165625001,66.0,93.0
359,110.40992445625,110.72834090625,61.0,89.0
360,110.66809995624999,110.75200699375,58.0,90.0
361,111.18445095625,111.41465744375,56.0,85.0
362,111.18445095625,111.76104290625,59.0,84.0
363,111.95897745625,112.27093951875,59.0,91.0
364,111.70080195624999,112.31612023125,56.0,88.0
365,111.18445095625,112.50329746874999,40.0,83.0
366,111.44262645625,112.52696355625,47.0,80.0
367,112.21715295625,112.55493256874999,64.0,95.0
368,112.47532845625,112.74210980625,59.0,93.0
369,112.73350395624999,112.98092214375,56.0,91.0
370,113.24985495625,113.81999251875,59.0,77.0
371,113.24985495625,113.83935568125,63.0,84.0
372,114.02438145625,114.31052596875,59.0,91.0
373,113.76620595624999,114.34494936875001,56.0,89.0
374,114.54073245625,114.85699744375,59.0,86.0
375,114.28255695625,114.87205768125,63.0,91.0
376,113.24985495625,114.98608519375,44.0,87.0
377,114.79890795624999,115.01835713125,56.0,88.0
378,113.50803045625,115.20123144375,51.0,82.0
379,115.31525895625,115.86603335625,58.0,83.0
380,115.83160995624999,116.38883874375,61.0,83.0
381,116.08978545625,116.41250483125,58.0,86.0
382,115.31525895625,116.58677329375,54.0,81.0
383,115.57343445625,116.86861488125,49.0,84.0
384,115.31525895625,116.88582658125,42.0,89.0
385,116.86431195624999,117.09882136875,54.0,93.0
386,116.60613645625,117.13969915625,61.0,88.0
387,116.34796095625,117.30751323125,66.0,91.0
388,117.38066295625,117.94649759375,59.0,78.0
389,117.89701395624999,118.44563689374999,63.0,84.0
390,118.15518945625,118.49081760625,59.0,82.0
391,117.63883845625,118.66293460624999,51.0,84.0
392,117.38066295625,118.67799484375,44.0,90.0
393,117.38066295625,118.91680718125,56.0,83.0
394,118.67154045625,119.14916513125,63.0,83.0
395,118.41336495625,119.20510315625,68.0,93.0
396,118.92971595624999,119.28470726875,59.0,90.0
397,119.18789145625,119.52997399374999,56.0,88.0
398,119.44606695625001,119.90217700625,64.0,88.0
399,120.22059345625,120.30665195625,64.0,68.0
400,120.22059345625,120.80148833125,59.0,90.0
401,119.44606695625001,120.81870003124999,40.0,91.0
402,119.70424245625,120.84021465625,47.0,81.0
403,119.96241795625,120.85097196875,56.0,87.0
404,120.73694445625,121.08763284375,64.0,95.0
405,120.47876895625001,121.08978430625,68.0,89.0
406,120.99511995625,121.26190130625,59.0,90.0
407,121.25329545625,121.41680660624999,56.0,89.0
408,121.51147095625001,121.66852771875,56.0,90.0
409,121.51147095625001,121.83203886875,61.0,91.0
410,121.76964645625,122.11818338124999,56.0,83.0
411,122.02782195625,122.40647935625,61.0,86.0
412,122.28599745625,122.62162560625,56.0,89.0
413,122.54417295625001,123.12506783124999,65.0,97.0
414,122.80234845625,123.14012806875,56.0,79.0
415,121.51147095625001,123.16379415624999,49.0,94.0
416,123.06052395625,123.23909534375,61.0,89.0
417,123.31869945625,123.44563574374999,56.0,61.0
418,123.57687495625001,123.93186626875,59.0,86.0
419,123.83505045625,124.15992129375,54.0,88.0
420,124.35140145625,124.68487814375,54.0,81.0
421,124.09322595625,124.69563545625,59.0,86.0
422,124.60957695625,124.97102265625,63.0,87.0
423,124.86775245625,125.18832036875,54.0,87.0
424,123.57687495625001,125.29804495625,47.0,92.0
425,125.12592795625,125.36689175625,59.0,97.0
426,125.38410345625,125.55622045625,54.0,88.0
427,125.64227895625,126.19735628125,58.0,88.0
428,126.15862995625,126.70294996875,61.0,85.0
429,126.41680545625,126.71801020625,58.0,84.0
430,125.64227895625,126.96112546875,54.0,84.0
431,125.90045445625,126.99124594375,49.0,82.0
432,125.64227895625,127.00630618125,42.0,88.0
433,126.93315645625,127.26663314375,61.0,88.0
434,127.19133195625,127.31611678125,58.0,89.0
435,126.67498095625,127.37850919374999,66.0,91.0
436,127.70768295625,127.95940406875,56.0,82.0
437,127.70768295625,128.30794099374998,59.0,78.0
438,128.48220945625002,128.78126274375,59.0,90.0
439,128.22403395625,128.80708029375,56.0,89.0
440,127.70768295625,128.99425753125,40.0,90.0
441,127.96585845625,129.03513531875,47.0,78.0
442,128.74038495625,129.08031603125,64.0,93.0
443,128.99856045625,129.29115935624998,59.0,91.0
444,129.25673595625,129.70854308125,56.0,92.0
445,129.77308695624998,130.31310404375,59.0,83.0
446,129.77308695624998,130.60355148125,63.0,87.0
447,130.54761345625002,130.91551354375,59.0,89.0
448,130.28943795625,131.11990248125,56.0,86.0
449,130.80578895625,131.18444635625,68.0,88.0
450,130.03126245625,131.36301774375,51.0,82.0
451,129.77308695624998,131.41680430625001,44.0,89.0
452,131.32213995625,131.51362011875,59.0,95.0
453,131.06396445625,131.53728620625,63.0,86.0
454,131.83849095624998,132.11602961875002,58.0,78.0
455,131.83849095624998,132.35053903124998,63.0,85.0
456,132.61301745625,132.92282805625,63.0,88.0
457,132.35484195625,133.14227723124998,58.0,89.0
458,132.09666645624998,133.15088308125002,46.0,83.0
459,131.83849095624998,133.28642521875,39.0,88.0
460,132.87119295625,133.45423929375,66.0,95.0
461,133.12936845625,133.46714806875,63.0,83.0
462,133.38754395625,133.70596040625,58.0,90.0
463,133.90389495624999,134.22231140625001,54.0,84.0
464,133.90389495624999,134.42239741875,58.0,88.0
465,134.67842145625,135.19907538125,61.0,83.0
466,134.42024595625,135.44003918125,54.0,89.0
467,133.90389495624999,135.46370526875,42.0,91.0
468,134.16207045624998,135.50888598125,49.0,87.0
469,135.96929895625,136.28556394375,56.0,81.0
470,135.96929895625,136.39743999375,59.0,80.0
471,135.96929895625,136.47274118125,63.0,85.0
472,136.48564995625,136.58246576875,56.0,88.0
473,134.93659695625,136.62334355625,66.0,88.0
474,136.22747445624998,136.62979794375,51.0,74.0
475,135.96929895625,136.69003889375,44.0,88.0
476,136.74382545625,136.85570150625,51.0,85.0
477,136.74382545625,136.87076174375,44.0,71.0
478,136.74382545625,136.88367051875,63.0,83.0
479,136.74382545625,136.88582198125,59.0,67.0
480,136.74382545625,136.89012490624998,56.0,80.0
481,137.00200095625001,137.11817993124998,51.0,85.0
482,137.00200095625001,137.12248285625,44.0,80.0
483,137.00200095625001,137.12893724375,59.0,76.0
484,137.00200095625001,137.13539163125,56.0,84.0
485,137.00200095625001,137.13754309375,63.0,87.0
486,137.26017645625,137.39141566875,51.0,88.0
487,137.26017645625,137.40432444375,44.0,89.0
488,137.26017645625,137.40862736875,56.0,89.0
489,137.26017645625,137.40862736875,63.0,89.0
490,137.26017645625,137.41293029374998,59.0,88.0
491,137.51835195625,138.03470295625,44.0,90.0
492,137.51835195625,138.03470295625,51.0,91.0
493,137.51835195625,138.03470295625,56.0,91.0
494,137.51835195625,138.03470295625,59.0,91.0
495,137.51835195625,138.03470295625,63.0,94.0
496,138.03470295625,138.37463403125,56.0,88.0
497,138.03470295625,138.60914344374999,59.0,84.0
498,138.03470295625,138.82213823125,63.0,89.0
499,138.03470295625,138.91680258125,44.0,90.0
500,138.55105395625,138.91895404374998,56.0,91.0
501,138.80922945625,138.93616574375,59.0,92.0
502,138.29287845624998,138.95768036875,51.0,88.0
503,139.06740495625002,139.41594188124998,54.0,84.0
504,139.06740495625002,139.41594188124998,58.0,89.0
505,139.06740495625002,139.69778346875,42.0,89.0
506,139.58375595625,139.74726710624998,54.0,88.0
507,139.58375595625,139.77093319375,58.0,88.0
508,140.10010695625,140.29373858125,59.0,82.0
509,140.10010695625,140.52394506874998,56.0,88.0
510,140.10010695625,140.65518428125,40.0,93.0
511,140.61645795625,140.74124278124998,56.0,77.0
512,140.61645795625,140.76490886875,59.0,88.0
513,140.61645795625,140.80148373125002,64.0,87.0
514,141.13280895625002,141.47489149375,58.0,84.0
515,141.13280895625002,141.48349734375,54.0,88.0
516,141.13280895625002,141.69864359374998,42.0,93.0
517,141.64915995625,141.77179331874999,54.0,88.0
518,141.64915995625,141.77609624375,58.0,88.0
519,142.16551095625,142.52480519375,59.0,81.0
520,142.16551095625,142.53125958125,63.0,88.0
521,142.16551095625,142.53556250625002,56.0,84.0
522,142.68186195625,142.80664678124998,59.0,76.0
523,142.68186195625,142.80879824375,63.0,82.0
524,142.68186195625,142.86043334375,56.0,78.0
525,142.16551095625,142.87764504375,44.0,90.0
526,143.19821295625002,143.51662940625,58.0,87.0
527,143.19821295625002,143.52308379375,54.0,88.0
528,143.19821295625002,143.75759320625,42.0,90.0
529,143.71456395625,143.79847099375002,58.0,79.0
530,143.71456395625,143.89958973125,54.0,84.0
531,144.23091495625,144.55363433125,59.0,80.0
532,144.23091495625,144.62678405625002,66.0,88.0
533,144.23091495625,144.64184429375,63.0,89.0
534,144.23091495625,144.79674959375,47.0,91.0
535,144.48909045624998,144.79890105625,54.0,74.0
536,144.74726595625,144.90862564374999,59.0,90.0
537,145.26361695625002,145.56267024375,58.0,82.0
538,145.26361695625002,145.63151704375,63.0,88.0
539,145.26361695625002,145.67024336875,67.0,83.0
540,145.52179245625,145.79933111875,46.0,88.0
541,145.26361695625002,145.81439135624998,39.0,95.0
542,145.77996795625,145.94563056875,58.0,90.0
543,146.03814345625,146.13711073125,63.0,83.0
544,146.03814345625,146.16292828125,67.0,76.0
545,146.03814345625,146.16938266875002,58.0,82.0
546,146.29631895625,146.60397809375002,56.0,81.0
547,146.29631895625,146.65991611875,59.0,84.0
548,146.29631895625,146.87506236874998,63.0,86.0
549,146.81266995625,146.97618110625,56.0,89.0
550,147.07084545625,147.17626711875,59.0,83.0
551,147.07084545625,147.18057004374998,63.0,84.0
552,147.07084545625,147.19563028125,56.0,81.0
553,146.55449445624998,147.22575075625,51.0,82.0
554,146.29631895625,147.23220514374998,44.0,89.0
555,147.32902095625002,147.70122396875,54.0,85.0
556,147.32902095625002,147.73349590625,58.0,87.0
557,147.58719645625,147.94864215625,49.0,76.0
558,147.32902095625002,147.97661116875,42.0,89.0
559,147.84537195625,148.00888310624998,54.0,92.0
560,147.84537195625,148.02394334375,58.0,87.0
561,148.36172295625,148.69304818125,56.0,89.0
562,148.36172295625,148.71671426875,59.0,83.0
563,148.36172295625,148.89098273125,40.0,90.0
564,148.61989845624998,148.94046636874998,47.0,70.0
565,148.87807395624998,148.98134415625,56.0,89.0
566,148.87807395624998,149.13624945625,64.0,90.0
567,148.87807395624998,149.14915823125,59.0,93.0
568,149.13624945625,149.24382258125001,56.0,89.0
569,149.39442495625,149.70638701874998,58.0,78.0
570,149.39442495625,149.71284140625,54.0,85.0
571,149.91077595625,149.96241105625,54.0,75.0
572,149.65260045625,150.04846955624998,49.0,83.0
573,149.39442495625,150.06137833125,42.0,89.0
574,149.91077595625,150.19261754375,58.0,85.0
575,149.91077595625,150.24640410625,61.0,88.0
576,150.16895145625,150.26361580625002,54.0,76.0
577,150.42712695625,150.77781534374998,59.0,84.0
578,150.42712695625,150.79072411875,56.0,84.0
579,150.68530245624999,151.03814230625,51.0,75.0
580,150.42712695625,151.12204934375,44.0,88.0
581,150.94347795624998,151.24253124375,59.0,90.0
582,150.94347795624998,151.25759148125002,63.0,89.0
583,151.20165345625,151.34795290625,56.0,81.0
584,151.45982895625,151.75888224375,54.0,86.0
585,151.45982895625,151.82557758125,58.0,84.0
586,151.45982895625,152.05578406875,42.0,88.0
587,151.71800445625001,152.06438991875,49.0,77.0
588,151.97617995625,152.11602501875,58.0,86.0
589,151.97617995625,152.12678233125,54.0,88.0
590,152.49253095625,152.81740179374998,64.0,84.0
591,152.49253095625,152.82815910624998,56.0,85.0
592,152.49253095625,152.83891641875,59.0,82.0
593,152.49253095625,153.06051705624998,40.0,95.0
594,153.00888195624998,153.09278899375,56.0,84.0
595,152.75070645625,153.11000069375,47.0,71.0
596,153.00888195624998,153.25630014375,59.0,89.0
597,153.00888195624998,153.26490599375,64.0,83.0
598,153.52523295625,153.89313304375,63.0,87.0
599,153.52523295625,153.89743596875002,58.0,82.0
600,153.78340845625002,154.49123961875,46.0,83.0
601,153.52523295625,154.50199693125,39.0,91.0
602,154.04158395625,154.53426886875002,58.0,89.0
603,154.04158395625,154.53426886875002,63.0,90.0
604,154.55793495625,154.89786603125,56.0,88.0
605,154.55793495625,155.13237544375,59.0,84.0
606,154.55793495625,155.34537023125,63.0,89.0
607,154.55793495625,155.44003458125002,44.0,90.0
608,155.07428595624998,155.44218604374998,56.0,91.0
609,155.33246145625,155.45939774375,59.0,92.0
610,154.81611045625,155.48091236875,51.0,88.0
611,155.59063695625,155.93917388124999,54.0,84.0
612,155.59063695625,155.93917388124999,58.0,89.0
613,155.59063695625,156.22101546875,42.0,89.0
614,156.10698795625,156.27049910624999,54.0,88.0
615,156.10698795625,156.29416519375002,58.0,88.0
616,156.62333895625,156.81697058125002,59.0,82.0
617,156.62333895625,157.04717706875,56.0,88.0
618,156.62333895625,157.17841628125,40.0,93.0
619,157.13968995624998,157.26447478125,56.0,77.0
620,157.13968995624998,157.28814086875,59.0,88.0
621,157.13968995624998,157.32471573125,64.0,87.0
622,157.65604095625,157.99812349375,58.0,84.0
623,157.65604095625,158.00672934375,54.0,88.0
624,157.65604095625,158.22187559374999,42.0,93.0
625,158.17239195625,158.29502531875,54.0,88.0
626,158.17239195625,158.29932824374998,58.0,88.0
627,158.68874295625,159.04803719375002,59.0,81.0
628,158.68874295625,159.05449158125,63.0,88.0
629,158.68874295625,159.05879450625,56.0,84.0
630,159.20509395624998,159.32987878125,59.0,76.0
631,159.20509395624998,159.33203024375,63.0,82.0
632,159.20509395624998,159.38366534375,56.0,78.0
633,158.68874295625,159.40087704375,44.0,90.0
634,159.72144495625,160.03986140625,58.0,87.0
635,159.72144495625,160.04631579375,54.0,88.0
636,159.72144495625,160.28082520625,42.0,90.0
637,160.23779595625,160.32170299375,58.0,79.0
638,160.23779595625,160.42282173125,54.0,84.0
639,160.75414695625,161.07686633125002,59.0,80.0
640,160.75414695625,161.15001605625,66.0,88.0
641,160.75414695625,161.16507629375002,63.0,89.0
642,160.75414695625,161.31998159375001,47.0,91.0
643,161.01232245625,161.32213305624998,54.0,74.0
644,161.27049795624998,161.43185764375,59.0,90.0
645,161.78684895625,162.08590224375,58.0,82.0
646,161.78684895625,162.15474904375,63.0,88.0
647,161.78684895625,162.19347536875,67.0,83.0
648,162.04502445625002,162.32256311875,46.0,88.0
649,161.78684895625,162.33762335625,39.0,95.0
650,162.30319995625,162.46886256875,58.0,90.0
651,162.56137545625,162.66034273125,63.0,83.0
652,162.56137545625,162.68616028125,67.0,76.0
653,162.56137545625,162.69261466875,58.0,82.0
654,162.81955095625,163.12721009375,56.0,81.0
655,162.81955095625,163.18314811875,59.0,84.0
656,162.81955095625,163.39829436875,63.0,86.0
657,163.33590195624998,163.49941310625002,56.0,89.0
658,163.59407745625,163.69949911875,59.0,83.0
659,163.59407745625,163.70380204375,63.0,84.0
660,163.59407745625,163.71886228124998,56.0,81.0
661,163.07772645625,163.74898275625,51.0,82.0
662,162.81955095625,163.75543714375,44.0,89.0
663,163.85225295625,164.22445596875,54.0,85.0
664,163.85225295625,164.25672790624998,58.0,87.0
665,164.11042845625,164.47187415625,49.0,76.0
666,163.85225295625,164.49984316875,42.0,89.0
667,164.36860395625,164.53211510625,54.0,92.0
668,164.36860395625,164.54717534374998,58.0,87.0
669,164.88495495625,165.21628018125,56.0,89.0
670,164.88495495625,165.23994626875,59.0,83.0
671,164.88495495625,165.41421473125,40.0,90.0
672,165.14313045625,165.46369836875,47.0,70.0
673,165.40130595624998,165.50457615624998,56.0,89.0
674,165.40130595624998,165.65948145624998,64.0,90.0
675,165.40130595624998,165.67239023125,59.0,93.0
676,165.65948145624998,165.76705458125,56.0,89.0
677,165.91765695625,166.22961901875,58.0,78.0
678,165.91765695625,166.23607340625,54.0,85.0
679,166.43400795625,166.48564305625,54.0,75.0
680,166.17583245625,166.57170155625,49.0,83.0
681,165.91765695625,166.58461033125002,42.0,89.0
682,166.43400795625,166.71584954374998,58.0,85.0
683,166.43400795625,166.76963610625,61.0,88.0
684,166.69218345625,166.78684780625,54.0,76.0
685,166.95035895625,167.30104734374999,59.0,84.0
686,166.95035895625,167.31395611875,56.0,84.0
687,167.20853445625,167.56137430625,51.0,75.0
688,166.95035895625,167.64528134375,44.0,88.0
689,167.46670995624999,167.76576324375,59.0,90.0
690,167.46670995624999,167.78082348125,63.0,89.0
691,167.72488545624998,167.87118490625,56.0,81.0
692,167.98306095625,168.28211424375002,54.0,86.0
693,167.98306095625,168.34880958125,58.0,84.0
694,167.98306095625,168.57901606874998,42.0,88.0
695,168.24123645625,168.58762191875002,49.0,77.0
696,168.49941195625001,168.63925701875002,58.0,86.0
697,168.49941195625001,168.65001433125,54.0,88.0
698,169.01576295625,169.29330161874998,59.0,78.0
699,169.01576295625,169.29330161874998,63.0,85.0
700,169.01576295625,169.32342209375,56.0,83.0
701,169.01576295625,169.38581450625,44.0,89.0
702,169.27393845625,169.47187300625,51.0,65.0
703,169.53211395625,169.78168360625,54.0,81.0
704,169.53211395625,169.87204503125,42.0,83.0
705,169.53211395625,169.94089183124998,58.0,80.0
706,170.04846495625,173.07342123125,58.0,77.0
707,170.04846495625,173.07342123125,59.0,77.0
708,170.04846495625,173.08633000625,56.0,84.0
709,170.04846495625,173.10784463125,44.0,88.0
710,173.14657095625,175.14097669375002,58.0,84.0
711,173.14657095625,175.14097669375002,60.0,88.0
712,173.14657095625,175.14097669375002,65.0,89.0
713,175.21197495625,177.26447018125,59.0,78.0
714,175.21197495625,177.27737895625,61.0,88.0
715,175.21197495625,177.28598480624999,49.0,84.0
716,175.21197495625,177.29028773125,66.0,83.0
717,177.27737895625,179.19648350625,62.0,84.0
718,177.27737895625,179.19648350625,67.0,76.0
719,177.27737895625,179.21584666875,71.0,70.0
720,177.27737895625,179.22660398124998,73.0,69.0
721,177.27737895625,179.22875544375,60.0,80.0
722,179.34278295625,183.34020028125,63.0,89.0
723,179.34278295625,183.36171490625,73.0,88.0
724,179.34278295625,183.36386636875,68.0,83.0
725,179.34278295625,183.37677514375,75.0,89.0
726,183.98994195625,184.28469231875,56.0,88.0
727,184.24811745625,184.56653390625002,58.0,89.0
728,184.50629295624998,184.69777311874998,59.0,90.0
729,184.76446845625,185.01403810624998,63.0,86.0
730,185.02264395625,185.35612064375,70.0,90.0
731,183.47359095625,185.41851305625,44.0,90.0
732,183.73176645625,185.42927036875,51.0,84.0
733,185.28081945625001,185.82729093125,68.0,89.0
734,185.53899495625,186.37161094375,63.0,80.0
735,186.05534595625,187.16550060625,51.0,63.0
736,185.53899495625,187.20852985624998,44.0,80.0
737,186.57169695624998,187.53985508124998,59.0,83.0
738,186.57169695624998,187.54200654375,56.0,83.0
739,186.57169695624998,187.56782409375,63.0,89.0
740,188.12074995625,188.42840909375002,56.0,91.0
741,187.60439895625,188.44777225625,44.0,89.0
742,187.86257445625,188.45637810624999,51.0,83.0
743,188.37892545625,188.60267755625,58.0,80.0
744,188.63710095624998,188.99854665624997,54.0,81.0
745,188.63710095624998,189.14269464375002,58.0,88.0
746,188.89527645624997,189.42238476875002,49.0,78.0
747,188.63710095624998,189.43099061875,42.0,88.0
748,189.15345195625002,189.49338303125,54.0,84.0
749,189.41162745625002,189.71068074375,58.0,89.0
750,189.66980295625,190.10224691874998,59.0,84.0
751,189.66980295625,191.33288346875003,47.0,88.0
752,189.92797845625,191.42109343124997,51.0,80.0
753,190.18615395625,191.59966481875,54.0,88.0
754,190.44432945625,191.88796079374998,59.0,74.0
755,190.70250495624998,192.00629123124997,63.0,88.0
756,192.50973345625,193.04975054375,59.0,91.0
757,192.25155795625,193.07126516875002,56.0,89.0
758,192.76790895624998,193.33374359375,68.0,90.0
759,191.99338245625,193.48219450624998,51.0,81.0
760,193.02608445624998,193.51876936875,63.0,84.0
761,191.73520695625,193.56179861875,44.0,90.0
762,193.28425995625003,193.57685885625,56.0,84.0
763,193.80061095625,193.97057649375,56.0,83.0
764,193.80061095625,194.11042155625,61.0,86.0
765,194.57513745625,194.86128196875,64.0,82.0
766,194.31696195625,194.90646268125,61.0,83.0
767,194.05878645625,194.92152291875,56.0,81.0
768,193.80061095625,195.48520609374998,49.0,89.0
769,195.34966395625003,195.48950901874997,56.0,72.0
770,194.83331295624998,195.50026633124997,68.0,90.0
771,195.09148845624998,195.57771898124997,64.0,81.0
772,195.86601495625,196.01661733125002,56.0,82.0
773,195.86601495625,196.16937116875,61.0,82.0
774,196.12419045625,196.50930224374997,56.0,83.0
775,196.38236595625,196.73735726874997,61.0,81.0
776,195.86601495625,196.74381165625,49.0,93.0
777,196.89871695624998,197.02995616875,56.0,78.0
778,196.89871695624998,197.20637609375,61.0,83.0
779,196.89871695624998,197.44949135625,65.0,88.0
780,196.89871695624998,197.54845863125,49.0,89.0
781,197.41506795624997,197.92066164375,61.0,79.0
782,197.15689245624998,198.08632425625,56.0,81.0
783,198.44776995625,199.27823448125002,56.0,85.0
784,198.96412095624999,199.29329471875002,63.0,88.0
785,198.70594545625,199.34062689374997,59.0,86.0
786,198.18959445625,199.78167670624998,51.0,80.0
787,197.93141895625,199.80319133125,44.0,91.0
788,199.48047195624997,200.31954233124998,63.0,84.0
789,199.22229645624998,200.53899150625,68.0,89.0
790,200.51317395625,201.04243373125001,56.0,86.0
791,200.77134945625,201.12203784374998,59.0,88.0
792,201.02952495625,201.35009286874998,63.0,87.0
793,201.28770045624998,201.61041983125,59.0,85.0
794,200.25499845625,201.92668481875,51.0,79.0
795,199.99682295625,201.93098774375,44.0,93.0
796,201.54587595624997,202.67539376874998,63.0,88.0
797,202.06222695625002,202.69690839375,68.0,85.0
798,202.83675345625,203.13580674374998,59.0,77.0
799,202.57857795625,203.23047109375,56.0,86.0
800,203.09492895625,203.45637465624998,63.0,84.0
801,203.35310445624998,203.76188233124998,59.0,86.0
802,202.06222695625002,203.81566889375,44.0,88.0
803,202.32040245625,203.81782035625002,51.0,76.0
804,203.61127995624997,204.17926605625001,63.0,87.0
805,203.86945545625002,204.18141751874998,59.0,32.0
806,204.12763095625002,204.97100425625,40.0,94.0
807,204.38580645625,205.01618496875,47.0,80.0
808,204.64398195625,205.30017801875,56.0,88.0
809,204.90215745625,205.30448094374998,59.0,81.0
810,205.16033295625,205.98434309375,42.0,90.0
811,205.41850845624998,206.03812965625002,49.0,84.0
812,205.67668395624997,206.24682151874998,54.0,90.0
813,206.96756145625,207.29673521874997,63.0,84.0
814,206.70938595625,207.31394691875,59.0,86.0
815,206.45121045625,207.68614993125,54.0,70.0
816,206.19303495625002,207.73993649375,47.0,89.0
817,207.48391245624998,208.20895531875,63.0,81.0
818,207.74208795624997,208.21971263125,59.0,69.0
819,207.22573695625,208.85869699375002,66.0,90.0
820,209.03296545625,209.40731993125002,59.0,92.0
821,208.77478995625,209.60310301875,56.0,87.0
822,209.29114095625,209.88494460624997,68.0,90.0
823,208.51661445625,210.14957449374998,51.0,84.0
824,208.25843895625002,210.19045228124997,44.0,90.0
825,209.80749195624998,210.43356754374997,56.0,84.0
826,209.54931645624998,210.63580501874998,63.0,86.0
827,210.58201845625,210.90258636875,56.0,83.0
828,210.84019395625,211.37375665625,61.0,89.0
829,211.09836945625,211.43184614375002,56.0,82.0
830,210.32384295625002,211.95250006875,49.0,94.0
831,211.61472045624998,212.38709549375,61.0,80.0
832,211.87289595624998,212.52909201875002,56.0,79.0
833,211.35654495625,213.01747400624998,65.0,92.0
834,212.90559795625,213.70379054375002,54.0,82.0
835,213.16377345625,213.70379054375002,58.0,84.0
836,212.38924695625002,214.13623450625,42.0,90.0
837,212.64742245625,214.17065790624997,49.0,82.0
838,214.19647545624997,214.51704336875002,54.0,67.0
839,213.93829995624998,214.55792115625002,58.0,79.0
840,213.68012445624998,214.56222408125,61.0,88.0
841,213.42194895625,214.73649254375,66.0,90.0
842,215.22917745625,215.62504655624997,59.0,88.0
843,214.97100195625,215.78210331875,56.0,87.0
844,215.74552845624999,216.24466775625,63.0,87.0
845,215.48735295625,216.32212040625,68.0,90.0
846,214.71282645625,216.36299819375,51.0,79.0
847,214.45465095625002,216.36730111875,44.0,90.0
848,216.00370395624998,216.37160404374998,59.0,87.0
849,216.52005495625002,216.85783456874998,56.0,85.0
850,216.52005495625002,216.96325623125,59.0,88.0
851,216.26187945624997,217.02134571875,63.0,81.0
852,216.52005495625002,217.02134571875,63.0,88.0
853,217.03640595625,217.67323885625,56.0,91.0
854,217.29458145625,217.70551079375002,59.0,97.0
855,217.55275695625,217.79802368125002,68.0,90.0
856,216.77823045625001,217.92280850625002,51.0,84.0
857,216.52005495625002,217.94432313124997,44.0,91.0
858,217.81093245625,218.05404771874998,63.0,89.0
859,218.06910795624998,218.36816124375002,42.0,91.0
860,218.32728345624997,218.65215429375002,54.0,90.0
861,219.10180995625,219.62031241875002,52.0,93.0
862,218.58545895625002,219.64828143124998,40.0,105.0
863,218.84363445625002,219.70421945624997,47.0,85.0
864,219.35998545625,219.73003700624997,56.0,82.0
865,219.87633645625,220.07857393125,52.0,92.0
866,219.61816095625,220.22057045625002,64.0,89.0
867,220.13451195624998,220.45507986874998,42.0,97.0
868,220.39268745624997,220.72186121875,54.0,93.0
869,221.16721395625,221.76101760625,56.0,90.0
870,221.42538945625,221.77177491875,59.0,91.0
871,220.90903845625002,222.00413286875,51.0,85.0
872,220.65086295625002,222.02779895625002,44.0,93.0
873,221.68356495625,222.03855626874997,68.0,89.0
874,221.94174045625,222.22715280625002,56.0,94.0
875,222.20111115625,222.51795123125,42.0,89.0
876,222.46152765625,222.77619759375,54.0,93.0
877,222.98236065625,223.53574571875,51.0,83.0
878,222.72194415625,223.53791585625,44.0,95.0
879,223.24277715625,223.63991231875,56.0,95.0
880,223.50319365625,223.68114493125,59.0,89.0
881,223.76361015625,224.39512016875,54.0,88.0
882,223.76361015625,224.40597085625,58.0,88.0
883,224.54485965625,224.75970326875,54.0,88.0
884,224.28444315625,224.76187340625,49.0,92.0
885,223.76361015625,224.77706436875002,42.0,90.0
886,224.80527615625002,225.15466829375,56.0,88.0
887,224.80527615625002,225.39594956875,63.0,89.0
888,225.32495130625,225.62830751875,59.0,89.0
889,225.58312680625002,225.97254151875,56.0,88.0
890,225.84130230625001,226.09947780625,68.0,99.0
891,226.09947780625,226.41789425625,63.0,91.0
892,225.06569265625,226.42865156875,51.0,85.0
893,224.80527615625002,226.46952935625,44.0,91.0
894,226.35765330625,226.68682706875,59.0,90.0
895,226.61582880625002,226.97727450625,56.0,94.0
896,227.64853080625002,227.93037239375002,59.0,93.0
897,227.39035530625,227.99491626875002,56.0,90.0
898,226.87400430625001,228.30257540625,40.0,97.0
899,227.13217980625,228.34345319375,47.0,84.0
900,227.90670630625002,228.38433098125,64.0,93.0
901,228.16488180625,228.44026900625002,59.0,92.0
902,228.68123280625002,228.85550126875,59.0,84.0
903,228.42305730625,228.95877146875,56.0,94.0
904,229.19758380625,229.52460610625002,56.0,91.0
905,229.45575930625,229.81075061875,61.0,88.0
906,229.71393480625002,230.05171441875,56.0,85.0
907,228.93940830625002,230.46479521875003,49.0,95.0
908,230.23028580625,230.53794494375,56.0,84.0
909,229.97211030625002,230.62400344375,65.0,99.0
910,230.48846130625,230.89078479375002,61.0,84.0
911,230.74663680625002,231.07365910625,56.0,79.0
912,231.26298780625,231.58785864375002,54.0,88.0
913,231.52116330625,231.89121485625,59.0,89.0
914,231.77933880625002,232.10851256875,54.0,82.0
915,231.00481230625002,232.47856411875,47.0,97.0
916,232.29568980625,232.60765186875003,54.0,80.0
917,232.03751430625002,232.61410625625,63.0,91.0
918,232.55386530625,232.70016475625002,59.0,87.0
919,233.07021630625002,233.65756556875002,58.0,84.0
920,233.58656730625,234.12873585625002,61.0,84.0
921,233.84474280625003,234.18467388125,58.0,88.0
922,233.07021630625002,234.36109380625,54.0,82.0
923,233.32839180625,234.49663594375002,49.0,81.0
924,233.07021630625002,234.50739325625003,42.0,89.0
925,234.10291830625002,234.63648100625002,66.0,93.0
926,234.36109380625,234.67951025625,61.0,89.0
927,234.61926930625,234.70317634375002,58.0,90.0
928,235.13562030625002,235.36582679375002,56.0,85.0
929,235.13562030625002,235.71221225625,59.0,84.0
930,235.91014680625003,236.22210886875,59.0,91.0
931,235.65197130625,236.26728958125003,56.0,88.0
932,235.13562030625002,236.45446681875,40.0,83.0
933,235.39379580625,236.47813290625,47.0,80.0
934,236.16832230625002,236.50610191875,64.0,95.0
935,236.42649780625,236.69327915625001,59.0,93.0
936,236.68467330625,236.93209149375002,56.0,91.0
937,237.20102430625002,237.77116186875003,59.0,77.0
938,237.20102430625002,237.79052503125,63.0,84.0
939,237.97555080625,238.26169531875001,59.0,91.0
940,237.71737530625,238.29611871875002,56.0,89.0
941,238.49190180625,238.80816679375002,59.0,86.0
942,238.23372630625002,238.82322703125,63.0,91.0
943,237.20102430625002,238.93725454375002,44.0,87.0
944,238.75007730625,238.96952648125,56.0,88.0
945,237.45919980625,239.15240079375002,51.0,82.0
946,239.26642830625002,239.81720270625001,58.0,83.0
947,239.78277930625,240.34000809375001,61.0,83.0
948,240.04095480625,240.36367418125002,58.0,86.0
949,239.26642830625002,240.53794264375,54.0,81.0
950,239.52460380625,240.81978423125003,49.0,84.0
951,239.26642830625002,240.83699593125002,42.0,89.0
952,240.81548130625,241.04999071875002,54.0,93.0
953,240.55730580625,241.09086850625002,61.0,88.0
954,240.29913030625002,241.25868258125,66.0,91.0
955,241.33183230625002,241.89766694375,59.0,78.0
956,241.84818330625,242.39680624375,63.0,84.0
957,242.10635880625,242.44198695625002,59.0,82.0
958,241.59000780625001,242.61410395625,51.0,84.0
959,241.33183230625002,242.62916419375,44.0,90.0
960,241.33183230625002,242.86797653125,56.0,83.0
961,242.62270980625001,243.10033448125,63.0,83.0
962,242.36453430625002,243.15627250625002,68.0,93.0
963,242.88088530625,243.23587661875,59.0,90.0
964,243.13906080625,243.48114334375,56.0,88.0
965,243.39723630625002,243.85334635625003,64.0,88.0
966,244.17176280625,244.25782130625,64.0,68.0
967,244.17176280625,244.75265768125,59.0,90.0
968,243.39723630625002,244.76986938125,40.0,91.0
969,243.65541180625002,244.79138400625,47.0,81.0
970,243.91358730625,244.80214131875002,56.0,87.0
971,244.68811380625002,245.03880219375,64.0,95.0
972,244.42993830625002,245.04095365625003,68.0,89.0
973,244.94628930625,245.21307065625,59.0,90.0
974,245.20446480625,245.36797595625,56.0,89.0
975,245.46264030625002,245.61969706875,56.0,90.0
976,245.46264030625002,245.78320821875002,61.0,91.0
977,245.72081580625002,246.06935273125,56.0,83.0
978,245.97899130625,246.35764870625002,61.0,86.0
979,246.23716680625,246.57279495625002,56.0,89.0
980,246.49534230625002,247.07623718125,65.0,97.0
981,246.75351780625002,247.09129741875,56.0,79.0
982,245.46264030625002,247.11496350625,49.0,94.0
983,247.01169330625,247.19026469375,61.0,89.0
984,247.26986880625,247.39680509375,56.0,61.0
985,247.52804430625002,247.88303561875,59.0,86.0
986,247.78621980625002,248.11109064375,54.0,88.0
987,248.30257080625,248.63604749375003,54.0,81.0
988,248.04439530625,248.64680480625,59.0,86.0
989,248.56074630625002,248.92219200625001,63.0,87.0
990,248.81892180625002,249.13948971875,54.0,87.0
991,247.52804430625002,249.24921430625002,47.0,92.0
992,249.07709730625,249.31806110625,59.0,97.0
993,249.33527280625,249.50738980625002,54.0,88.0
994,249.59344830625002,250.14852563125,58.0,88.0
995,250.10979930625,250.65411931875002,61.0,85.0
996,250.36797480625,250.66917955625001,58.0,84.0
997,249.59344830625002,250.91229481875,54.0,84.0
998,249.85162380625002,250.94241529375,49.0,82.0
999,249.59344830625002,250.95747553125,42.0,88.0
1000,250.88432580625002,251.21780249375,61.0,88.0
1001,251.14250130625,251.26728613125002,58.0,89.0
1002,250.62615030625003,251.32967854375002,66.0,91.0
1003,251.65885230625003,251.91057341875,56.0,82.0
1004,251.65885230625003,252.25911034375002,59.0,78.0
1005,252.43337880625,252.73243209375002,59.0,90.0
1006,252.17520330625,252.75824964375002,56.0,89.0
1007,251.65885230625003,252.94542688125,40.0,90.0
1008,251.91702780625002,252.98630466875002,47.0,78.0
1009,252.69155430625,253.03148538125,64.0,93.0
1010,252.94972980625002,253.24232870625002,59.0,91.0
1011,253.20790530625,253.65971243125,56.0,92.0
1012,253.72425630625003,254.26427339375002,59.0,83.0
1013,253.72425630625003,254.55472083125002,63.0,87.0
1014,254.49878280625,254.86668289375,59.0,89.0
1015,254.24060730625,255.07107183125,56.0,86.0
1016,254.75695830625,255.13561570625,68.0,88.0
1017,253.98243180625002,255.31418709375,51.0,82.0
1018,253.72425630625003,255.36797365625,44.0,89.0
1019,255.27330930625,255.46478946875,59.0,95.0
1020,255.01513380625002,255.48845555625002,63.0,86.0
1021,255.78966030625003,256.06719896875,58.0,78.0
1022,255.78966030625003,256.30170838125,63.0,85.0
1023,256.56418680625,256.87399740625,63.0,88.0
1024,256.30601130625,257.09344658125,58.0,89.0
1025,256.04783580625,257.10205243125,46.0,83.0
1026,255.78966030625003,257.23759456875,39.0,88.0
1027,256.82236230625,257.40540864375004,66.0,95.0
1028,257.08053780625,257.41831741875,63.0,83.0
1029,257.33871330625004,257.65712975625,58.0,90.0
1030,257.85506430625003,258.17348075625,54.0,84.0
1031,257.85506430625003,258.37356676875004,58.0,88.0
1032,258.62959080625,259.15024473125004,61.0,83.0
1033,258.37141530625,259.39120853125,54.0,89.0
1034,257.85506430625003,259.41487461875,42.0,91.0
1035,258.11323980625,259.46005533125003,49.0,87.0
1036,259.92046830625003,260.23673329375004,56.0,81.0
1037,259.92046830625003,260.34860934375,59.0,80.0
1038,259.92046830625003,260.42391053125004,63.0,85.0
1039,260.43681930625,260.53363511875,56.0,88.0
1040,258.88776630625,260.57451290625,66.0,88.0
1041,260.17864380625,260.58096729375,51.0,74.0
1042,259.92046830625003,260.64120824375004,44.0,88.0
1043,260.69499480625,260.80687085625004,51.0,85.0
1044,260.69499480625,260.82193109375,44.0,71.0
1045,260.69499480625,260.83483986875,63.0,83.0
1046,260.69499480625,260.83699133125003,59.0,67.0
1047,260.69499480625,260.84129425625,56.0,80.0
1048,260.95317030625,261.06934928125,51.0,85.0
1049,260.95317030625,261.07365220625,44.0,80.0
1050,260.95317030625,261.08010659375003,59.0,76.0
1051,260.95317030625,261.08656098125,56.0,84.0
1052,260.95317030625,261.08871244375,63.0,87.0
1053,261.21134580625,261.34258501875,51.0,88.0
1054,261.21134580625,261.35549379375004,44.0,89.0
1055,261.21134580625,261.35979671875003,56.0,89.0
1056,261.21134580625,261.35979671875003,63.0,89.0
1057,261.21134580625,261.36409964375,59.0,88.0
1058,261.46952130625004,261.98587230625003,44.0,90.0
1059,261.46952130625004,261.98587230625003,51.0,91.0
1060,261.46952130625004,261.98587230625003,56.0,91.0
1061,261.46952130625004,261.98587230625003,59.0,91.0
1062,261.46952130625004,261.98587230625003,63.0,94.0
1063,261.98587230625003,262.33225776875,56.0,88.0
1064,261.98587230625003,262.57322156875,63.0,89.0
1065,262.50222330625,262.80557951875,59.0,89.0
1066,262.76039880625,263.14981351875,56.0,88.0
1067,263.01857430625,263.27674980625,68.0,99.0
1068,263.27674980625,263.59516625625,63.0,91.0
1069,262.24404780625,263.60592356875003,51.0,85.0
1070,261.98587230625003,263.64680135625,44.0,91.0
1071,263.53492530625,263.86409906875,59.0,90.0
1072,263.79310080625,264.15454650625,56.0,94.0
1073,264.82580280625,265.10764439375004,59.0,93.0
1074,264.56762730625,265.17218826875,56.0,90.0
1075,264.05127630625003,265.47984740625003,40.0,97.0
1076,264.30945180625,265.52072519375,47.0,84.0
1077,265.08397830625,265.56160298125,64.0,93.0
1078,265.34215380625,265.61754100625,59.0,92.0
1079,265.85850480625004,266.03277326875,59.0,84.0
1080,265.60032930625,266.13604346875,56.0,94.0
1081,266.37485580625,266.70187810625004,56.0,91.0
1082,266.63303130625,266.98802261875,61.0,88.0
1083,266.89120680625,267.22898641875,56.0,85.0
1084,266.11668030625003,267.64206721875,49.0,95.0
1085,267.40755780625,267.71521694375,56.0,84.0
1086,267.14938230625,267.80127544375,65.0,99.0
1087,267.66573330625,268.06805679375003,61.0,84.0
1088,267.92390880625,268.25093110625,56.0,79.0
1089,268.44025980625,268.76513064375,54.0,88.0
1090,268.69843530625,269.06848685625,59.0,89.0
1091,268.95661080625,269.28578456875,54.0,82.0
1092,268.18208430625003,269.65583611875,47.0,97.0
1093,269.47296180625,269.78492386875,54.0,80.0
1094,269.21478630625,269.79137825625,63.0,91.0
1095,269.73113730625,269.87743675625,59.0,87.0
1096,270.24748830625003,270.83483756875,58.0,84.0
1097,270.76383930625,271.30600785625,61.0,84.0
1098,271.02201480625,271.36194588125,58.0,88.0
1099,270.24748830625003,271.53836580625,54.0,82.0
1100,270.50566380625,271.67390794375,49.0,81.0
1101,270.24748830625003,271.68466525625,42.0,89.0
1102,271.28019030625,271.81375300625,66.0,93.0
1103,271.53836580625,271.85678225625,61.0,89.0
1104,271.79654130625,271.88044834375,58.0,90.0
1105,272.31289230625003,272.54309879375,56.0,85.0
1106,272.31289230625003,272.88948425625,59.0,84.0
1107,273.08741880625,273.39938086875003,59.0,91.0
1108,272.82924330625,273.44456158125,56.0,88.0
1109,272.31289230625003,273.63173881875,40.0,83.0
1110,272.57106780625,273.65540490625,47.0,80.0
1111,273.34559430625,273.68337391875,64.0,95.0
1112,273.60376980625,273.87055115625003,59.0,93.0
1113,273.86194530625,274.10936349375004,56.0,91.0
1114,274.37829630625004,274.94843386875004,59.0,77.0
1115,274.37829630625004,274.96779703125003,63.0,84.0
1116,275.15282280625,275.43896731875003,59.0,91.0
1117,274.89464730625,275.47339071875,56.0,89.0
1118,275.66917380625,275.98543879375,59.0,86.0
1119,275.41099830625,276.00049903125,63.0,91.0
1120,274.37829630625004,276.11452654375,44.0,87.0
1121,275.92734930625,276.14679848125,56.0,88.0
1122,274.63647180625003,276.32967279375003,51.0,82.0
1123,276.44370030625004,276.99447470625,58.0,83.0
1124,276.96005130625,277.51728009375,61.0,83.0
1125,277.21822680625,277.54094618125004,58.0,86.0
1126,276.44370030625004,277.71521464375,54.0,81.0
1127,276.70187580625003,277.99705623125,49.0,84.0
1128,276.44370030625004,278.01426793125,42.0,89.0
1129,277.99275330625,278.22726271875,54.0,93.0
1130,277.73457780625,278.26814050625,61.0,88.0
1131,277.47640230625,278.43595458125003,66.0,91.0
1132,278.50910430625004,279.07493894375,59.0,78.0
1133,279.02545530625,279.57407824375,63.0,84.0
1134,279.28363080625,279.61925895625,59.0,82.0
1135,278.76727980625003,279.79137595625,51.0,84.0
1136,278.50910430625004,279.80643619375,44.0,90.0
1137,278.50910430625004,280.04524853125,56.0,83.0
1138,279.79998180625,280.27760648125,63.0,83.0
1139,279.54180630625,280.33354450625,68.0,93.0
1140,280.05815730625,280.41314861875003,59.0,90.0
1141,280.31633280625,280.65841534375,56.0,88.0
1142,280.57450830625,281.03061835625,64.0,88.0
1143,281.34903480625,281.43509330625,64.0,68.0
1144,281.34903480625,281.92992968125003,59.0,90.0
1145,280.57450830625,281.94714138125,40.0,91.0
1146,280.83268380625003,281.96865600625,47.0,81.0
1147,281.09085930625,281.97941331875,56.0,87.0
1148,281.86538580625,282.21607419375,64.0,95.0
1149,281.60721030625,282.21822565625,68.0,89.0
1150,282.12356130625,282.39034265625,59.0,90.0
1151,282.38173680625,282.54524795625,56.0,89.0
1152,282.63991230625004,282.79696906875,56.0,90.0
1153,282.63991230625004,282.96048021875004,61.0,91.0
1154,282.89808780625003,283.24662473125,56.0,83.0
1155,283.15626330625,283.53492070625003,61.0,86.0
1156,283.41443880625,283.75006695625,56.0,89.0
1157,283.67261430625,284.25350918125,65.0,97.0
1158,283.93078980625,284.26856941875,56.0,79.0
1159,282.63991230625004,284.29223550625,49.0,94.0
1160,284.18896530625,284.36753669375,61.0,89.0
1161,284.44714080625,284.57407709375,56.0,61.0
1162,284.70531630625,285.06030761875,59.0,86.0
1163,284.96349180625003,285.28836264375,54.0,88.0
1164,285.47984280625,285.81331949375,54.0,81.0
1165,285.22166730625,285.82407680625,59.0,86.0
1166,285.73801830625,286.09946400625,63.0,87.0
1167,285.99619380625,286.31676171875,54.0,87.0
1168,284.70531630625,286.42648630625,47.0,92.0
1169,286.25436930625,286.49533310625003,59.0,97.0
1170,286.51254480625,286.68466180625,54.0,88.0
1171,286.77072030625004,287.32579763125,58.0,88.0
1172,287.28707130625,287.83139131875004,61.0,85.0
1173,287.54524680625,287.84645155625003,58.0,84.0
1174,286.77072030625004,288.08956681875003,54.0,84.0
1175,287.02889580625003,288.11968729375,49.0,82.0
1176,286.77072030625004,288.13474753125,42.0,88.0
1177,288.06159780625,288.39507449375003,61.0,88.0
1178,288.31977330625,288.44455813125,58.0,89.0
1179,287.80342230625,288.50695054375,66.0,91.0
1180,288.83612430625,289.08784541875,56.0,82.0
1181,288.83612430625,289.43638234375,59.0,78.0
1182,289.61065080625,289.90970409375,59.0,90.0
1183,289.35247530625,289.93552164375,56.0,89.0
1184,288.83612430625,290.12269888125,40.0,90.0
1185,289.09429980625004,290.16357666875,47.0,78.0
1186,289.86882630625,290.20875738125,64.0,93.0
1187,290.12700180625,290.41960070625,59.0,91.0
1188,290.38517730625,290.83698443125,56.0,92.0
1189,290.90152830625004,291.44154539375,59.0,83.0
1190,290.90152830625004,291.73199283125,63.0,87.0
1191,291.67605480625,292.04395489375,59.0,89.0
1192,291.41787930625003,292.24834383125,56.0,86.0
1193,291.93423030625,292.31288770625,68.0,88.0
1194,291.15970380625004,292.49145909375,51.0,82.0
1195,290.90152830625004,292.54524565625,44.0,89.0
1196,292.45058130625,292.64206146875,59.0,95.0
1197,292.19240580625,292.66572755625003,63.0,86.0
1198,292.96693230625,293.24447096875,58.0,78.0
1199,292.96693230625,293.47898038125004,63.0,85.0
1200,293.74145880625,294.05126940625,63.0,88.0
1201,293.48328330625003,294.27071858125,58.0,89.0
1202,293.22510780625,294.27932443125,46.0,83.0
1203,292.96693230625,294.41486656875,39.0,88.0
1204,293.99963430625,294.58268064375,66.0,95.0
1205,294.25780980625,294.59558941875,63.0,83.0
1206,294.51598530625,294.83440175625003,58.0,90.0
1207,295.03233630625004,295.35075275625,54.0,84.0
1208,295.03233630625004,295.55083876875,58.0,88.0
1209,295.80686280625,296.32751673125,61.0,83.0
1210,295.54868730625003,296.56848053125003,54.0,89.0
1211,295.03233630625004,296.59214661875,42.0,91.0
1212,295.29051180625004,296.63732733125,49.0,87.0
1213,297.09774030625,297.41400529375,56.0,81.0
1214,297.09774030625,297.52588134375003,59.0,80.0
1215,297.09774030625,297.60118253125,63.0,85.0
1216,297.61409130625003,297.71090711875,56.0,88.0
1217,296.06503830625,297.75178490625,66.0,88.0
1218,297.35591580625,297.75823929375,51.0,74.0
1219,297.09774030625,297.81848024375,44.0,88.0
1220,297.87226680625,297.98414285625,51.0,85.0
1221,297.87226680625,297.99920309375,44.0,71.0
1222,297.87226680625,298.01211186875,63.0,83.0
1223,297.87226680625,298.01426333125,59.0,67.0
1224,297.87226680625,298.01856625625,56.0,80.0
1225,298.13044230625,298.24662128125,51.0,85.0
1226,298.13044230625,298.25092420625003,44.0,80.0
1227,298.13044230625,298.25737859375,59.0,76.0
1228,298.13044230625,298.26383298125,56.0,84.0
1229,298.13044230625,298.26598444375,63.0,87.0
1230,298.38861780625,298.51985701875003,51.0,88.0
1231,298.38861780625,298.53276579375,44.0,89.0
1232,298.38861780625,298.53706871875,56.0,89.0
1233,298.38861780625,298.53706871875,63.0,89.0
1234,298.38861780625,298.54137164375004,59.0,88.0
1235,298.64679330625,299.16314430625005,44.0,90.0
1236,299.11150920625005,299.16314430625005,44.0,80.0
1237,298.64679330625,299.16314430625005,51.0,91.0
1238,298.64679330625,299.16314430625005,56.0,91.0
1239,299.00393608125,299.16314430625005,56.0,55.0
1240,298.64679330625,299.16314430625005,59.0,91.0
1241,299.05557118125,299.16314430625005,59.0,76.0
1242,298.64679330625,299.16314430625005,63.0,94.0
1243,299.12872090625,299.16314430625005,63.0,58.0
1244,300.66486513125,301.08655178125,59.0,74.0
1245,300.40884109375,301.09730909375,56.0,75.0
1246,301.19627636875,301.97510579375,59.0,79.0
1247,301.19197344375004,301.99016603125,56.0,79.0
1248,300.16142290625,302.10419354375,51.0,75.0
1249,302.22467544375,302.93465806875,54.0,84.0
1250,302.22682690625004,303.13689554375003,42.0,88.0
1251,302.22682690625004,303.26383183125,58.0,83.0
1252,301.19412490625,303.26598329375,63.0,83.0
1253,303.25952890625,303.82966646875,59.0,76.0
1254,303.25737744375,304.23198995625,56.0,82.0
1255,303.76727405625,304.46649936875,51.0,77.0
1256,304.28362505625,304.55040640625003,59.0,76.0
1257,304.29653383125003,304.55901225625,63.0,85.0
1258,303.27028621875,304.79782459375,44.0,88.0
1259,305.32493290625,305.76383125625,68.0,83.0
1260,305.30987266875,305.82837513125,63.0,77.0
1261,305.25178318125,305.84773829375,59.0,71.0
1262,305.16787614375,305.86064706875004,56.0,75.0
1263,305.33569021875,306.19627521875003,44.0,88.0
1264,305.81116343125,306.20057814375,51.0,73.0
1265,306.35333198125,306.73629230625,54.0,87.0
1266,306.35978636875,306.74274669375,58.0,84.0
1267,306.35333198125,306.86107713125,42.0,88.0
1268,307.43551761875,307.91099083125005,63.0,80.0
1269,307.31073279375,307.95186861875004,56.0,73.0
1270,307.36236789375005,308.03147273125,59.0,86.0
1271,307.87871889375003,308.54997519375,51.0,75.0
1272,308.37785819375,309.04911449375004,56.0,79.0
1273,309.44713505625003,309.93766850625,59.0,86.0
1274,309.45358944375005,309.94842581875,63.0,88.0
1275,308.92002674375,310.03233285625004,51.0,64.0
1276,307.39894275625,310.16142060625003,44.0,85.0
1277,310.41314171875,310.67992306875,54.0,75.0
1278,310.46907974375,310.75737571875004,58.0,76.0
1279,310.51641191875,310.86279738125,61.0,79.0
1280,310.49059436875,310.91443248125,42.0,89.0
1281,311.41142031875,311.68895898125004,56.0,77.0
1282,311.58568878125004,312.01167835625,68.0,71.0
1283,311.53835660625003,312.02028420625004,63.0,83.0
1284,311.44584371875,312.06331345625,59.0,76.0
1285,312.00952689375004,312.74962999375003,51.0,73.0
1286,312.57536153125,313.13689324375,56.0,89.0
1287,313.58439744375,314.22123034375,59.0,88.0
1288,313.59515475625,314.25565374375003,56.0,88.0
1289,313.58870036875,314.27716836875004,63.0,89.0
1290,311.53620514375,314.36107540625,44.0,88.0
1291,313.02716865625,314.42992220625,51.0,72.0
1292,314.64937138125003,314.93766735625,58.0,83.0
1293,314.64937138125003,314.93981881875004,54.0,85.0
1294,314.65582576875,314.99360538125,42.0,86.0
1295,315.61107511875,316.32105774375003,56.0,82.0
1296,315.73801140625,316.65238296875003,64.0,80.0
1297,315.66486168125004,316.66744320625,59.0,79.0
1298,317.16443104375,317.56030014375,59.0,89.0
1299,316.66959466875,317.84644465625,56.0,94.0
1300,316.16400098125,318.09386284375,47.0,73.0
1301,315.68852776875,318.10892308125,40.0,92.0
1302,317.71090251875,318.14549794375,59.0,87.0
1303,317.74102299375,318.18637573125,64.0,81.0
1304,318.75651329375,319.16529116875,54.0,83.0
1305,318.75866475625,319.19756310625,58.0,86.0
1306,318.78448230625,319.25995551875,42.0,88.0
1307,319.76339774375003,322.77114231875,59.0,80.0
1308,319.85160770625,322.77114231875,63.0,87.0
1309,319.81718430625,322.91529030625003,51.0,77.0
1310,319.81933576875,322.91744176875,44.0,89.0
1311,319.70315679375,323.03362074375,56.0,77.0
