,start,end,pitch,velocity
0,32.0003852,32.3653344,67.0,95.0
1,32.4687692,32.5663492,74.0,100.0
2,32.7029612,32.794686399999996,74.0,97.0
3,32.9371532,33.3294248,74.0,117.0
4,33.4055372,33.7939056,72.0,127.0
5,33.8739212,34.0983552,74.0,100.0
6,34.1081132,34.3013216,72.0,74.0
7,34.3423052,35.396169199999996,70.0,88.0
8,35.7474572,36.1046,72.0,107.0
9,36.2158412,37.0238036,72.0,99.0
10,37.1526092,37.5683,69.0,90.0
11,37.6209932,38.4621328,67.0,93.0
12,39.4945292,39.8575268,67.0,97.0
13,39.962913199999996,40.0526868,79.0,95.0
14,40.197105199999996,40.2868788,79.0,83.0
15,40.431297199999996,40.768924,79.0,107.0
16,40.899681199999996,41.149485999999996,77.0,107.0
17,41.3680652,41.9320776,74.0,100.0
18,41.8364492,41.9320776,74.0,112.0
19,42.0706412,42.2638496,72.0,85.0
20,42.3048332,42.6892984,70.0,100.0
21,42.7732172,43.2103756,67.0,89.0
22,43.2416012,44.4106096,74.0,96.0
23,46.9886732,47.384848,74.0,107.0
24,47.4570572,47.5780564,79.0,112.0
25,47.6912492,47.7966356,79.0,76.0
26,47.9254412,48.249406799999996,79.0,100.0
27,48.3938252,48.760726,77.0,112.0
28,48.862209199999995,49.1529976,79.0,117.0
29,49.330593199999996,49.8555736,74.0,100.0
30,50.7357452,51.190467999999996,77.0,112.0
31,51.2041292,51.9633016,74.0,78.0
32,52.1408972,52.5312172,74.0,107.0
33,52.6092812,54.0222396,72.0,107.0
34,54.4828172,54.7560412,72.0,122.0
35,54.9512012,55.0409748,72.0,100.0
36,55.1853932,55.273215199999996,72.0,89.0
37,55.4195852,55.727938,72.0,96.0
38,55.8879692,56.079226,72.0,93.0
39,56.1221612,56.278289199999996,74.0,89.0
40,56.3563532,56.7154476,77.0,112.0
41,56.8247372,57.0686872,77.0,107.0
42,57.2931212,57.7049088,70.0,117.0
43,57.7615052,57.9664232,72.0,89.0
44,57.995697199999995,58.2279376,70.0,102.0
45,58.229889199999995,60.519116,67.0,97.0
46,61.9769612,62.341910399999996,67.0,95.0
47,62.4453452,62.5429252,74.0,100.0
48,62.6795372,62.7712624,74.0,97.0
49,62.9137292,63.3060008,74.0,117.0
50,63.3821132,63.7704816,72.0,127.0
51,63.8504972,64.0749312,74.0,100.0
52,64.0846892,64.2778976,72.0,74.0
53,64.31888119999999,65.3727452,70.0,88.0
54,65.7240332,66.081176,72.0,107.0
55,66.1924172,67.0003796,72.0,99.0
56,67.1291852,67.544876,69.0,90.0
57,67.5975692,68.4387088,67.0,93.0
58,69.4711052,69.8341028,67.0,97.0
59,69.9394892,70.0292628,79.0,95.0
60,70.1736812,70.2634548,79.0,83.0
61,70.4078732,70.74549999999999,79.0,107.0
62,70.8762572,71.126062,77.0,107.0
63,71.3446412,71.6471392,74.0,100.0
64,71.8130252,72.01404,74.0,112.0
65,72.04721719999999,72.2404256,72.0,85.0
66,72.2814092,72.66587439999999,70.0,100.0
67,72.7497932,73.1869516,67.0,89.0
68,73.2181772,74.3871856,74.0,96.0
69,76.9652492,77.361424,74.0,107.0
70,77.4336332,77.5546324,79.0,112.0
71,77.6678252,77.7732116,79.0,76.0
72,77.9020172,78.2259828,79.0,100.0
73,78.3704012,78.737302,77.0,112.0
74,78.8387852,79.1295736,79.0,117.0
75,79.3071692,79.8321496,74.0,100.0
76,80.71232119999999,81.167044,77.0,112.0
77,81.18070519999999,81.9398776,74.0,78.0
78,82.11747319999999,82.5077932,74.0,107.0
79,82.58585719999999,83.9988156,72.0,107.0
80,84.4593932,84.73261719999999,72.0,122.0
81,84.9277772,85.21661399999999,72.0,127.0
82,85.3961612,85.704514,72.0,96.0
83,85.8645452,86.055802,72.0,93.0
84,86.0987372,86.2548652,74.0,89.0
85,86.3329292,86.6920236,77.0,112.0
86,86.8013132,87.0452632,77.0,107.0
87,87.2696972,87.68148479999999,70.0,117.0
88,87.7380812,87.9429992,72.0,89.0
89,87.9722732,88.2045136,70.0,102.0
90,88.2064652,90.49569199999999,67.0,97.0
91,91.9535372,92.2872608,74.0,112.0
92,92.4219212,92.5234044,79.0,112.0
93,92.6561132,92.7361288,79.0,99.0
94,92.8903052,93.2259804,79.0,127.0
95,93.3586892,93.6807032,77.0,117.0
96,93.8270732,94.5725844,79.0,127.0
97,95.2322252,95.325902,74.0,97.0
98,95.4664172,95.57685115416666,74.0,93.0
99,95.69616934791667,95.88366936666667,82.0,127.0
100,96.15071484791667,96.27571486041667,79.0,127.0
101,96.37798759791667,96.50677548958333,81.0,86.0
102,96.60526034791667,96.93291189583333,77.0,107.0
103,97.05980584791666,97.41659492708332,74.0,99.0
104,97.51659493541666,99.422454375,79.0,127.0
105,99.379485625,99.633391875,74.0,99.0
106,99.848235625,99.93222,79.0,107.0
107,100.082610625,100.172454375,79.0,86.0
108,100.316985625,100.43222,79.0,107.0
109,100.785735625,100.854095,77.0,96.0
110,101.020110625,101.094329375,77.0,93.0
111,101.254485625,101.43612625,79.0,127.0
112,101.723235625,102.32675125,79.0,117.0
113,103.129485625,103.383391875,79.0,112.0
114,103.598235625,103.98300125,79.0,102.0
115,104.535735625,104.969329375,72.0,107.0
116,105.004485625,106.531829375,74.0,100.0
117,106.879485625,107.149016875,74.0,102.0
118,107.348235625,107.430266875,79.0,107.0
119,107.582610625,107.666595,79.0,95.0
120,107.816985625,108.082610625,79.0,102.0
121,108.285735625,108.572845,77.0,117.0
122,108.754485625,109.02206375,79.0,122.0
123,109.223235625,110.000579375,74.0,100.0
124,110.160735625,110.4400325,74.0,107.0
125,110.629485625,110.90097,77.0,117.0
126,111.098235625,111.742766875,74.0,107.0
127,112.035735625,112.371673125,72.0,112.0
128,112.504485625,113.68612625,70.0,107.0
129,113.910735625,113.99472,72.0,117.0
130,114.145110625,114.23300125,72.0,99.0
131,114.379485625,114.65487625,72.0,112.0
132,114.848235625,114.941985625,72.0,107.0
133,115.082610625,115.18222,74.0,96.0
134,115.316985625,115.62362625,72.0,122.0
135,115.785735625,116.094329375,74.0,117.0
136,116.254485625,116.6587825,77.0,117.0
137,116.723235625,117.24472,74.0,117.0
138,117.660735625,117.953704375,74.0,112.0
139,118.129485625,118.35800125,77.0,112.0
140,118.598235625,118.68612625,77.0,100.0
141,118.832610625,118.918548125,77.0,93.0
142,119.066985625,119.363860625,77.0,107.0
143,119.535735625,119.86972,74.0,96.0
144,120.004485625,121.75643875,79.0,112.0
145,121.879485625,122.21347,74.0,112.0
146,122.348235625,122.449798125,79.0,112.0
147,122.582610625,122.66268875,79.0,99.0
148,122.816985625,123.152923125,79.0,127.0
149,123.285735625,123.60800125,77.0,117.0
150,123.754485625,124.500579375,79.0,127.0
151,125.160735625,125.254485625,74.0,97.0
152,125.395110625,125.50643875,74.0,93.0
153,125.629485625,125.822845,82.0,127.0
154,126.098235625,126.227141875,79.0,127.0
155,126.332610625,126.465423125,81.0,86.0
156,126.566985625,126.90487625,77.0,107.0
157,127.035735625,127.402923125,74.0,99.0
158,127.504485625,129.422454375,79.0,127.0
159,129.379485625,129.633391875,74.0,99.0
160,129.848235625,129.93222,79.0,107.0
161,130.082610625,130.172454375,79.0,86.0
162,130.316985625,130.43222,79.0,107.0
163,130.785735625,130.854095,77.0,96.0
164,131.020110625,131.094329375,77.0,93.0
165,131.254485625,131.43612625,79.0,127.0
166,131.723235625,132.32675125,79.0,117.0
167,133.129485625,133.383391875,79.0,112.0
168,133.598235625,133.98300125,79.0,102.0
169,134.535735625,134.969329375,72.0,107.0
170,135.004485625,136.531829375,74.0,100.0
171,136.879485625,137.149016875,74.0,102.0
172,137.348235625,137.430266875,79.0,107.0
173,137.582610625,137.666595,79.0,95.0
174,137.816985625,138.082610625,79.0,102.0
175,138.285735625,138.572845,77.0,117.0
176,138.754485625,139.02206375,79.0,122.0
177,139.223235625,140.000579375,74.0,100.0
178,140.629485625,140.90097,77.0,117.0
179,141.098235625,141.742766875,74.0,107.0
180,142.035735625,142.371673125,72.0,112.0
181,142.504485625,143.68612625,70.0,107.0
182,143.910735625,143.99472,72.0,117.0
183,144.145110625,144.23300125,72.0,99.0
184,144.379485625,144.65487625,72.0,112.0
185,144.848235625,144.941985625,72.0,107.0
186,145.082610625,145.18222,74.0,96.0
187,145.316985625,145.62362625,72.0,122.0
188,145.785735625,146.094329375,74.0,117.0
189,146.254485625,146.6587825,77.0,117.0
190,146.723235625,147.24472,74.0,117.0
191,147.660735625,147.863860625,74.0,112.0
192,147.895110625,148.094329375,74.0,97.0
193,148.129485625,148.35800125,77.0,112.0
194,148.598235625,149.27206375,74.0,102.0
195,149.535735625,149.836516875,79.0,102.0
196,150.004485625,151.813079375,79.0,117.0
197,151.879485625,152.164641875,72.0,117.0
198,152.348235625,152.445891875,72.0,93.0
199,152.582610625,152.6744075,72.0,88.0
200,152.816985625,153.078704375,72.0,97.0
201,153.285735625,153.58456375,74.0,99.0
202,153.754485625,154.1119075,77.0,122.0
203,154.223235625,154.78768875,77.0,107.0
204,155.160735625,155.395110625,70.0,107.0
205,155.395110625,155.613860625,72.0,81.0
206,155.629485625,157.902923125,67.0,95.0
207,189.379485625,189.74472,67.0,95.0
208,189.848235625,189.945891875,74.0,100.0
209,190.082610625,190.1744075,74.0,97.0
210,190.316985625,190.70956375,74.0,117.0
211,190.785735625,191.1744075,72.0,127.0
212,191.254485625,191.479095,74.0,100.0
213,191.488860625,191.68222,72.0,74.0
214,191.723235625,192.777923125,70.0,88.0
215,193.129485625,193.4869075,72.0,107.0
216,193.598235625,194.406829375,72.0,99.0
217,194.535735625,194.95175125,69.0,90.0
218,195.004485625,195.8462825,67.0,93.0
219,196.879485625,197.242766875,67.0,97.0
220,197.348235625,197.438079375,79.0,95.0
221,197.582610625,197.672454375,79.0,83.0
222,197.816985625,198.15487625,79.0,107.0
223,198.285735625,198.535735625,77.0,107.0
224,198.754485625,199.05722,74.0,100.0
225,199.223235625,199.4244075,74.0,112.0
226,199.457610625,199.65097,72.0,85.0
227,199.691985625,200.07675125,70.0,100.0
228,200.160735625,200.598235625,67.0,89.0
229,200.629485625,201.7994075,74.0,96.0
230,204.379485625,204.77597,74.0,107.0
231,204.848235625,204.969329375,79.0,112.0
232,205.082610625,205.188079375,79.0,76.0
233,205.316985625,205.641204375,79.0,100.0
234,205.785735625,206.152923125,77.0,112.0
235,206.254485625,206.54550125,79.0,117.0
236,206.723235625,207.24862625,74.0,100.0
237,208.129485625,208.58456375,77.0,112.0
238,208.598235625,209.35800125,74.0,78.0
239,209.535735625,209.926360625,74.0,107.0
240,210.004485625,211.418548125,72.0,107.0
241,211.879485625,212.152923125,72.0,122.0
242,212.348235625,212.637298125,72.0,127.0
243,212.816985625,213.125579375,72.0,96.0
244,213.285735625,213.477141875,72.0,93.0
245,213.520110625,213.676360625,74.0,89.0
246,213.754485625,214.113860625,77.0,112.0
247,214.223235625,214.46737625,77.0,107.0
248,214.691985625,215.104095,70.0,117.0
249,215.160735625,215.36581375,72.0,89.0
250,215.395110625,215.6275325,70.0,102.0
251,215.629485625,217.92050125,67.0,97.0
252,219.379485625,219.71347,74.0,112.0
253,219.848235625,219.949798125,79.0,112.0
254,220.082610625,220.16268875,79.0,99.0
255,220.316985625,220.652923125,79.0,127.0
256,220.785735625,221.10800125,77.0,117.0
257,221.254485625,222.000579375,79.0,127.0
258,222.660735625,222.754485625,74.0,97.0
259,222.895110625,223.00643875,74.0,93.0
260,223.129485625,223.322845,82.0,127.0
261,223.598235625,223.727141875,79.0,127.0
262,223.832610625,223.965423125,81.0,86.0
263,224.066985625,224.40487625,77.0,107.0
264,224.535735625,224.902923125,74.0,99.0
265,225.004485625,226.922454375,79.0,127.0
266,226.879485625,227.133391875,74.0,99.0
267,227.348235625,227.43222,79.0,107.0
268,227.582610625,227.672454375,79.0,86.0
269,227.816985625,227.93222,79.0,107.0
270,228.285735625,228.354095,77.0,96.0
271,228.520110625,228.594329375,77.0,93.0
272,228.754485625,228.93612625,79.0,127.0
273,229.223235625,229.82675125,79.0,117.0
274,230.629485625,230.883391875,79.0,112.0
275,231.098235625,231.48300125,79.0,102.0
276,232.035735625,232.469329375,72.0,107.0
277,232.504485625,234.031829375,74.0,100.0
278,234.379485625,234.649016875,74.0,102.0
279,234.848235625,234.930266875,79.0,107.0
280,235.082610625,235.166595,79.0,95.0
281,235.316985625,235.582610625,79.0,102.0
282,235.785735625,236.072845,77.0,117.0
283,236.254485625,236.52206375,79.0,122.0
284,236.723235625,237.500579375,74.0,100.0
285,237.660735625,237.9400325,74.0,107.0
286,238.129485625,238.40097,77.0,117.0
287,238.598235625,239.242766875,74.0,107.0
288,239.535735625,239.871673125,72.0,112.0
289,240.004485625,241.18612625,70.0,107.0
290,241.410735625,241.49472,72.0,117.0
291,241.645110625,241.73300125,72.0,99.0
292,241.879485625,242.15487625,72.0,112.0
293,242.348235625,242.441985625,72.0,107.0
294,242.582610625,242.68222,74.0,96.0
295,242.816985625,243.12362625,72.0,122.0
296,243.285735625,243.594329375,74.0,117.0
297,243.754485625,244.1587825,77.0,117.0
298,244.223235625,244.74472,74.0,117.0
299,245.160735625,245.453704375,74.0,112.0
300,245.629485625,245.85800125,77.0,112.0
301,246.098235625,246.18612625,77.0,100.0
302,246.332610625,246.418548125,77.0,93.0
303,246.566985625,246.863860625,77.0,107.0
304,247.035735625,247.36972,74.0,96.0
305,247.504485625,249.25643875,79.0,112.0
306,249.379485625,249.71347,74.0,112.0
307,249.848235625,249.949798125,79.0,112.0
308,250.082610625,250.16268875,79.0,99.0
309,250.316985625,250.652923125,79.0,127.0
310,250.785735625,251.10800125,77.0,117.0
311,251.254485625,252.000579375,79.0,127.0
312,252.660735625,252.754485625,74.0,97.0
313,252.895110625,253.00643875,74.0,93.0
314,253.129485625,253.322845,82.0,127.0
315,253.598235625,253.727141875,79.0,127.0
316,253.832610625,253.965423125,81.0,86.0
317,254.066985625,254.40487625,77.0,107.0
318,254.535735625,254.902923125,74.0,99.0
319,255.004485625,256.92245437500003,79.0,127.0
320,256.87948562500003,257.13339187500003,74.0,99.0
321,257.34823562500003,257.43222000000003,79.0,107.0
322,257.58261062500003,257.67245437500003,79.0,86.0
323,257.81698562500003,257.93222000000003,79.0,107.0
324,258.28573562500003,258.35409500000003,77.0,96.0
325,258.52011062500003,258.59432937500003,77.0,93.0
326,258.75448562500003,258.93612625000003,79.0,127.0
327,259.22323562500003,259.82675125000003,79.0,117.0
328,260.62948562500003,260.88339187500003,79.0,112.0
329,261.09823562500003,261.48300125000003,79.0,102.0
330,262.03573562500003,262.46932937500003,72.0,107.0
331,262.50448562500003,264.03182937500003,74.0,100.0
332,264.37948562500003,264.64901687500003,74.0,102.0
333,264.84823562500003,264.93026687500003,79.0,107.0
334,265.08261062500003,265.16659500000003,79.0,95.0
335,265.31698562500003,265.58261062500003,79.0,102.0
336,265.78573562500003,266.07284500000003,77.0,117.0
337,266.25448562500003,266.52206375000003,79.0,122.0
338,266.72323562500003,267.50057937500003,74.0,100.0
339,268.12948562500003,268.40097000000003,77.0,117.0
340,268.59823562500003,269.24276687500003,74.0,107.0
341,269.53573562500003,269.87167312500003,72.0,112.0
342,270.00448562500003,271.18612625000003,70.0,107.0
343,271.41073562500003,271.49472000000003,72.0,117.0
344,271.64511062500003,271.73300125000003,72.0,99.0
345,271.87948562500003,272.15487625000003,72.0,112.0
346,272.34823562500003,272.44198562500003,72.0,107.0
347,272.58261062500003,272.68222000000003,74.0,96.0
348,272.81698562500003,273.12362625000003,72.0,122.0
349,273.28573562500003,273.59432937500003,74.0,117.0
350,273.75448562500003,274.15878250000003,77.0,117.0
351,274.22323562500003,274.74472000000003,74.0,117.0
352,275.16073562500003,275.36386062500003,74.0,112.0
353,275.39511062500003,275.59432937500003,74.0,97.0
354,275.62948562500003,275.85800125000003,77.0,112.0
355,276.09823562500003,276.77206375000003,74.0,102.0
356,277.03573562500003,277.33651687500003,79.0,102.0
357,277.50448562500003,279.31307937500003,79.0,117.0
358,279.37948562500003,279.66464187500003,72.0,117.0
359,279.84823562500003,279.94589187500003,72.0,93.0
360,280.08261062500003,280.17440750000003,72.0,88.0
361,280.31698562500003,280.57870437500003,72.0,97.0
362,280.78573562500003,281.08456375000003,74.0,99.0
363,281.25448562500003,281.61190750000003,77.0,122.0
364,281.72323562500003,282.28768875000003,77.0,107.0
365,282.66073562500003,282.89511062500003,70.0,107.0
366,282.89511062500003,283.11386062500003,72.0,81.0
367,283.12948562500003,285.40292312500003,67.0,95.0
368,286.87948562500003,287.17050125000003,72.0,100.0
369,287.34823562500003,287.46932937500003,72.0,82.0
370,287.58261062500003,287.69979812500003,72.0,86.0
371,287.81698562500003,288.25057937500003,72.0,96.0
372,288.31698562500003,288.83847000000003,74.0,82.0
373,288.88339187500003,289.33065750000003,77.0,117.0
374,289.45956375000003,290.48495437500003,77.0,107.0
375,290.73495437500003,291.53573562500003,70.0,100.0
376,291.59042312500003,295.70175125000003,67.0,85.0
