,start,end,pitch,velocity
0,1.5554252,1.8188912,58.0,86.0
1,1.7896172,2.117486,60.0,65.0
2,1.0870412,3.3567519999999997,55.0,78.0
3,0.1502732,3.7470719999999997,43.0,81.0
4,0.6186572,3.893442,50.0,56.0
5,2.0238092,4.527712,62.0,86.0
6,3.8973451999999997,5.5483988,43.0,86.0
7,4.3657292,5.5952372,50.0,50.0
8,4.8341132,5.7259944,58.0,71.0
9,5.3024971999999995,5.9270092,60.0,69.0
10,5.7708812,6.9145188,41.0,71.0
11,6.2392652,6.9203736,48.0,51.0
12,6.7076492,7.6658848,57.0,66.0
13,7.1760332,7.6717395999999995,53.0,52.0
14,6.7076492,7.679546,60.0,67.0
15,7.6444171999999995,9.36768,43.0,76.0
16,8.1128012,9.5179532,50.0,54.0
17,9.0495692,9.5179532,57.0,51.0
18,8.5811852,9.5179532,58.0,96.0
19,8.5811852,9.5179532,62.0,74.0
20,9.5179532,11.2431676,39.0,83.0
21,9.9863372,11.2451192,51.0,73.0
22,10.9231052,11.440279199999999,55.0,79.0
23,10.4547212,11.836454,58.0,96.0
24,10.4547212,11.8910988,63.0,90.0
25,11.8598732,12.2599512,51.0,58.0
26,11.3914892,12.587819999999999,39.0,81.0
27,12.3282572,13.311863599999999,63.0,96.0
28,12.3282572,13.329428,58.0,96.0
29,12.7966412,13.378218,55.0,57.0
30,13.733409199999999,14.4398884,45.0,57.0
31,14.2017932,15.944571999999999,57.0,75.0
32,15.1385612,15.948475199999999,50.0,90.0
33,14.2017932,15.948475199999999,53.0,73.0
34,14.6701772,16.2607312,45.0,48.0
35,16.0753292,16.520294,53.0,100.0
36,16.0753292,16.526148799999998,57.0,102.0
37,13.2650252,16.5651808,38.0,74.0
38,16.5437132,16.617874,45.0,62.0
39,17.0120972,17.5917224,62.0,88.0
40,17.0120972,17.6209964,58.0,99.0
41,17.4804812,18.4406684,50.0,63.0
42,17.9488652,18.4660392,58.0,88.0
43,17.9488652,18.6299736,62.0,68.0
44,18.4172492,18.918810399999998,57.0,50.0
45,18.8856332,19.6506604,62.0,78.0
46,18.8856332,19.709208399999998,58.0,92.0
47,18.8856332,19.9726744,50.0,51.0
48,17.0120972,20.130754,43.0,74.0
49,19.822401199999998,20.3044464,58.0,99.0
50,19.822401199999998,20.3278656,62.0,79.0
51,20.2907852,20.7669756,57.0,73.0
52,20.7591692,21.32123,62.0,82.0
53,20.7591692,21.379777999999998,58.0,96.0
54,21.2275532,21.811081599999998,46.0,63.0
55,21.6959372,22.464867599999998,62.0,77.0
56,21.6959372,22.4863352,58.0,89.0
57,22.6327052,23.3938292,62.0,74.0
58,22.6327052,23.409442,58.0,75.0
59,20.7591692,23.5714248,34.0,88.0
60,23.5694732,24.014438,62.0,88.0
61,23.5694732,24.033953999999998,58.0,99.0
62,24.037857199999998,24.1139696,53.0,59.0
63,24.506241199999998,24.6721272,51.0,96.0
64,24.506241199999998,24.7150624,55.0,85.0
65,25.4430092,25.6264596,48.0,46.0
66,24.506241199999998,25.647927199999998,36.0,74.0
67,24.9746252,25.6615884,43.0,35.0
68,25.4430092,25.704523599999998,60.0,97.0
69,25.4430092,25.7669748,63.0,102.0
70,26.3797772,27.1623688,57.0,81.0
71,26.3797772,27.17603,65.0,75.0
72,26.3797772,27.1974976,62.0,86.0
73,26.3797772,27.6463656,38.0,73.0
74,26.8481612,27.6697848,45.0,39.0
75,27.3165452,27.810299999999998,50.0,56.0
76,27.3165452,28.3138128,62.0,82.0
77,27.3165452,28.317716,65.0,70.0
78,27.7849292,28.3294256,57.0,59.0
79,28.721697199999998,29.375483199999998,50.0,52.0
80,29.190081199999998,30.9172472,58.0,102.0
81,29.190081199999998,31.5593236,62.0,78.0
82,28.2533132,31.6881292,43.0,89.0
83,29.6584652,31.9262244,50.0,54.0
84,30.1268492,32.045272,57.0,76.0
85,32.9371532,33.7451156,58.0,99.0
86,33.4055372,34.065177999999996,57.0,51.0
87,32.9371532,34.6409,62.0,72.0
88,33.8739212,34.6526096,58.0,64.0
89,32.4687692,34.9004628,50.0,50.0
90,32.0003852,34.9375432,43.0,93.0
91,35.2790732,35.796247199999996,58.0,58.0
92,34.8106892,35.8001504,62.0,93.0
93,35.7474572,37.0433196,41.0,68.0
94,36.2158412,37.2131088,48.0,41.0
95,37.1526092,37.6736864,57.0,46.0
96,36.6842252,37.6912508,60.0,89.0
97,38.0893772,38.6748572,50.0,53.0
98,38.7919532,38.9988228,50.0,43.0
99,37.6209932,39.051516,43.0,74.0
100,38.5577612,39.0729836,62.0,100.0
101,39.0261452,39.2935144,60.0,79.0
102,39.2603372,39.6779796,58.0,63.0
103,39.4945292,41.2353564,39.0,83.0
104,39.962913199999996,41.481258,51.0,39.0
105,40.431297199999996,41.8871908,63.0,99.0
106,40.899681199999996,42.2189628,58.0,41.0
107,41.8364492,42.7478464,51.0,48.0
108,41.3680652,42.8415232,39.0,74.0
109,42.3048332,43.304052399999996,62.0,68.0
110,42.7732172,43.3235684,58.0,44.0
111,43.2416012,44.3071748,34.0,89.0
112,43.7099852,44.3813356,46.0,58.0
113,44.6467532,45.187346399999996,58.0,55.0
114,44.1783692,45.199056,62.0,99.0
115,45.1151372,46.184613999999996,38.0,77.0
116,45.5835212,46.2119364,45.0,51.0
117,46.0519052,46.9730604,54.0,85.0
118,46.0519052,46.986721599999996,57.0,77.0
119,48.3938252,48.9246604,57.0,56.0
120,47.4570572,49.1881264,50.0,61.0
121,47.9254412,49.4613504,62.0,95.0
122,48.862209199999995,49.6448008,58.0,56.0
123,49.330593199999996,49.853622,50.0,50.0
124,46.986721599999996,50.1971036,43.0,74.0
125,50.267361199999996,50.5308272,58.0,83.0
126,49.798977199999996,50.9211472,62.0,95.0
127,50.7357452,51.502724,58.0,74.0
128,50.7357452,51.787657599999996,34.0,70.0
129,51.2041292,51.9262212,46.0,45.0
130,52.1408972,52.7673608,58.0,52.0
131,51.6725132,52.810296,62.0,97.0
132,53.0776652,53.942223999999996,48.0,58.0
133,52.6092812,53.9968688,41.0,73.0
134,54.0144332,54.570639199999995,53.0,63.0
135,53.5460492,54.605768,60.0,90.0
136,54.9512012,55.786486,48.0,45.0
137,54.4828172,55.8606468,36.0,70.0
138,55.4195852,56.3661112,63.0,95.0
139,55.8879692,56.3758692,60.0,66.0
140,56.3563532,57.825908,38.0,72.0
141,56.8247372,58.0230196,45.0,41.0
142,57.2931212,58.225986,50.0,55.0
143,59.166657199999996,59.613573599999995,58.0,107.0
144,59.635041199999996,60.1736828,57.0,63.0
145,60.1034252,60.8196624,55.0,83.0
146,58.698273199999996,61.075322,50.0,58.0
147,61.0401932,61.518335199999996,58.0,107.0
148,58.229889199999995,61.8325428,43.0,79.0
149,61.5085772,61.8325428,57.0,82.0
150,61.2743852,61.9769612,50.0,56.0
151,61.9769612,62.8395684,57.0,85.0
152,62.9137292,63.7216916,58.0,99.0
153,63.3821132,64.041754,57.0,51.0
154,61.9769612,64.295462,67.0,79.0
155,62.9137292,64.617476,62.0,72.0
156,63.8504972,64.6291856,58.0,64.0
157,62.4453452,64.8770388,50.0,50.0
158,61.9769612,64.9141192,43.0,93.0
159,65.222472,65.4312932,43.0,41.0
160,65.446906,65.62255,55.0,50.0
161,65.2556492,65.7728232,58.0,58.0
162,64.7872652,65.7767264,62.0,93.0
163,65.7240332,67.0198956,41.0,68.0
164,66.1924172,67.1896848,48.0,41.0
165,67.1038144,67.2306684,38.0,56.0
166,67.1291852,67.6502624,57.0,46.0
167,66.6608012,67.6678268,60.0,89.0
168,68.0659532,68.6514332,50.0,53.0
169,67.5975692,69.028092,43.0,74.0
170,68.5343372,69.0495596,62.0,100.0
171,68.9753988,69.193978,55.0,63.0
172,69.0027212,69.2700904,60.0,79.0
173,69.1861716,69.3188804,43.0,68.0
174,69.4711052,71.2119324,39.0,83.0
175,69.9394892,71.45783399999999,51.0,39.0
176,70.4078732,71.8637668,63.0,99.0
177,70.8762572,72.1955388,58.0,41.0
178,71.8130252,72.7244224,51.0,48.0
179,71.3446412,72.81809919999999,39.0,74.0
180,72.7536964,72.9859368,46.0,58.0
181,72.9664208,73.0366784,39.0,58.0
182,72.2814092,73.2806284,62.0,68.0
183,72.7497932,73.3001444,58.0,44.0
184,73.2181772,74.28375079999999,34.0,89.0
185,73.6865612,74.3579116,46.0,58.0
186,74.6252808,74.8458116,34.0,63.0
187,74.8223924,75.0448748,46.0,53.0
188,74.6233292,75.1639224,58.0,55.0
189,74.1549452,75.175632,62.0,99.0
190,75.0917132,76.16119,38.0,77.0
191,75.5600972,76.1885124,45.0,51.0
192,76.4871072,76.7115412,45.0,72.0
193,76.67446079999999,76.8657176,38.0,55.0
194,76.0284812,76.9496364,54.0,85.0
195,76.0284812,76.9632976,57.0,77.0
196,76.9632976,77.8180984,69.0,97.0
197,78.3704012,78.9012364,57.0,56.0
198,77.4336332,79.1647024,50.0,61.0
199,77.9020172,79.4379264,62.0,95.0
200,78.8387852,79.6213768,58.0,56.0
201,78.3704012,79.6857796,69.0,71.0
202,79.3071692,79.830198,50.0,50.0
203,76.9632976,80.1736796,43.0,74.0
204,80.2341792,80.4859356,50.0,74.0
205,80.2439372,80.5074032,58.0,83.0
206,80.464468,80.68109559999999,43.0,44.0
207,79.7755532,80.8977232,62.0,95.0
208,80.71232119999999,81.4793,58.0,74.0
209,80.71232119999999,81.7642336,34.0,70.0
210,81.18070519999999,81.9027972,46.0,45.0
211,82.0999088,82.55658319999999,34.0,53.0
212,82.11747319999999,82.7439368,58.0,52.0
213,81.64908919999999,82.786872,62.0,97.0
214,83.05424119999999,83.9188,48.0,58.0
215,82.58585719999999,83.9734448,41.0,73.0
216,83.9832028,84.201782,48.0,51.0
217,84.1939756,84.3071684,41.0,50.0
218,83.9910092,84.5472152,53.0,63.0
219,83.5226252,84.58234399999999,60.0,90.0
220,84.9277772,85.76306199999999,48.0,45.0
221,84.4593932,85.83722279999999,36.0,70.0
222,85.3961612,86.3426872,63.0,95.0
223,85.8645452,86.35244519999999,60.0,66.0
224,86.3329292,87.80248399999999,38.0,72.0
225,87.2696972,87.9722732,50.0,55.0
226,87.7302748,87.9722732,50.0,64.0
227,86.8013132,87.99959559999999,45.0,41.0
228,87.9332412,88.0679016,38.0,76.0
229,89.1432332,89.52769839999999,58.0,122.0
230,89.1432332,89.6584556,62.0,100.0
231,89.84580919999999,89.9258248,57.0,95.0
232,89.84580919999999,89.9336312,60.0,93.0
233,89.6116172,89.96485679999999,55.0,81.0
234,90.0800012,90.1034204,70.0,43.0
235,90.0800012,90.1307428,58.0,52.0
236,90.0800012,90.32980599999999,55.0,73.0
237,90.31419319999999,90.32980599999999,55.0,68.0
238,90.31419319999999,90.3727412,70.0,97.0
239,90.31419319999999,90.3961604,58.0,117.0
240,90.78257719999999,90.8606412,72.0,83.0
241,90.78257719999999,90.8703992,60.0,90.0
242,91.0167692,91.1221556,74.0,107.0
243,91.0167692,91.1475264,62.0,102.0
244,91.25096119999999,91.4344116,55.0,95.0
245,91.4851532,91.5358948,75.0,97.0
246,91.4851532,91.559314,63.0,127.0
247,88.2064652,91.64323279999999,43.0,71.0
248,88.6748492,91.8442476,50.0,58.0
249,91.9535372,92.4999852,55.0,102.0
250,91.9535372,92.4999852,58.0,117.0
251,91.9535372,92.544872,62.0,99.0
252,92.4219212,93.0600944,50.0,52.0
253,92.8903052,93.4660272,58.0,127.0
254,92.8903052,93.5167688,62.0,102.0
255,93.3586892,93.6416712,50.0,28.0
256,93.3586892,93.67094519999999,55.0,68.0
257,91.9535372,93.735348,43.0,83.0
258,93.5928812,93.8251216,58.0,97.0
259,93.5928812,93.8563472,62.0,82.0
260,94.7638412,94.8828888,55.0,95.0
261,94.2954572,94.9082596,50.0,66.0
262,93.8251216,94.9394852,43.0,89.0
263,94.7638412,95.21270919999999,67.0,117.0
264,94.7638412,95.296628,70.0,127.0
265,95.2322252,95.4586108,55.0,72.0
266,95.42348199999999,95.60526024791668,43.0,74.0
267,95.69616934791667,96.1980633375,67.0,97.0
268,95.69616934791667,96.25109364583334,70.0,102.0
269,95.69616934791667,96.26435122291667,63.0,100.0
270,96.60526034791667,96.75298763541667,67.0,117.0
271,96.15071484791667,96.77571491041667,51.0,78.0
272,96.83253309791667,97.0389725125,67.0,24.0
273,96.60526034791667,97.06927554583334,63.0,107.0
274,95.69616934791667,97.073063425,39.0,99.0
275,96.60526034791667,97.12419979375,70.0,117.0
276,97.05980584791666,97.14313918958334,51.0,52.0
277,97.08063918333333,97.32685132916667,39.0,79.0
278,97.30980587291667,97.43005646666666,51.0,69.0
279,97.51659493541666,97.84544111666666,67.0,100.0
280,97.51659493541666,97.85505650208333,70.0,127.0
281,97.51659493541666,97.88197958125,62.0,95.0
282,97.97813343541667,98.43222,50.0,71.0
283,97.51659493541666,98.53768875,43.0,78.0
284,98.441985625,98.910735625,62.0,97.0
285,98.441985625,98.947845,58.0,122.0
286,98.910735625,99.0025325,39.0,73.0
287,98.910735625,99.223235625,55.0,92.0
288,99.379485625,100.102141875,62.0,92.0
289,99.379485625,100.104095,55.0,102.0
290,99.379485625,100.15487625,58.0,122.0
291,99.848235625,100.49472,51.0,73.0
292,100.316985625,100.85800125,58.0,117.0
293,100.316985625,100.9087825,55.0,90.0
294,100.316985625,100.94393875,62.0,100.0
295,99.379485625,101.051360625,39.0,97.0
296,100.840423125,101.051360625,39.0,72.0
297,100.785735625,101.2994075,51.0,48.0
298,101.047454375,101.2994075,51.0,67.0
299,101.254485625,102.027923125,55.0,90.0
300,101.254485625,102.06112625,58.0,112.0
301,101.254485625,102.063079375,62.0,95.0
302,101.723235625,102.227141875,51.0,77.0
303,101.2994075,102.309173125,39.0,72.0
304,102.191985625,102.664641875,58.0,122.0
305,102.191985625,102.7681575,62.0,99.0
306,102.697845,102.93222,46.0,79.0
307,102.660735625,103.0337825,55.0,90.0
308,102.89706375,103.102141875,39.0,67.0
309,103.129485625,103.418548125,63.0,127.0
310,103.129485625,103.422454375,55.0,86.0
311,103.129485625,103.422454375,60.0,107.0
312,103.598235625,104.23300125,43.0,69.0
313,104.066985625,104.30331375,51.0,127.0
314,104.066985625,104.313079375,48.0,100.0
315,104.066985625,104.35800125,55.0,97.0
316,103.129485625,104.590423125,36.0,90.0
317,104.555266875,104.590423125,36.0,85.0
318,104.770110625,104.83456375,53.0,50.0
319,104.535735625,104.86972,43.0,58.0
320,104.774016875,105.05722,48.0,75.0
321,105.004485625,105.07675125,50.0,102.0
322,105.004485625,105.08456375,53.0,102.0
323,105.004485625,105.08847,57.0,102.0
324,105.707610625,105.797454375,62.0,96.0
325,105.707610625,105.7994075,65.0,90.0
326,105.707610625,105.8150325,69.0,96.0
327,105.473235625,105.926360625,50.0,100.0
328,106.176360625,106.274016875,74.0,86.0
329,106.176360625,106.277923125,81.0,95.0
330,106.176360625,106.27987625,77.0,96.0
331,106.176360625,106.40487625,50.0,45.0
332,105.004485625,106.441985625,38.0,95.0
333,106.410735625,106.477141875,77.0,122.0
334,106.410735625,106.477141875,81.0,117.0
335,105.238860625,106.4869075,45.0,90.0
336,106.410735625,106.496673125,74.0,97.0
337,106.410735625,106.824798125,50.0,68.0
338,107.816985625,108.09237625,55.0,99.0
339,107.816985625,108.352141875,58.0,117.0
340,107.816985625,108.410735625,62.0,99.0
341,106.879485625,108.58456375,43.0,90.0
342,108.520110625,108.598235625,62.0,45.0
343,108.520110625,108.63925125,58.0,65.0
344,108.285735625,108.666595,55.0,72.0
345,107.348235625,108.770110625,50.0,59.0
346,108.754485625,108.91268875,58.0,122.0
347,108.754485625,108.9244075,55.0,95.0
348,108.754485625,108.9400325,62.0,92.0
349,109.691985625,109.947845,62.0,99.0
350,109.223235625,110.0181575,50.0,51.0
351,108.754485625,110.055266875,43.0,85.0
352,109.691985625,110.145110625,70.0,127.0
353,109.691985625,110.16268875,67.0,122.0
354,110.160735625,110.238860625,62.0,97.0
355,110.191985625,110.447845,50.0,87.0
356,110.4087825,110.61972,38.0,67.0
357,110.629485625,110.707610625,34.0,122.0
358,110.629485625,111.160735625,65.0,92.0
359,110.629485625,111.215423125,58.0,122.0
360,110.629485625,111.320891875,62.0,102.0
361,111.098235625,111.758391875,46.0,50.0
362,111.566985625,111.992766875,65.0,93.0
363,111.566985625,112.010345,62.0,99.0
364,111.566985625,112.027923125,58.0,127.0
365,112.035735625,112.0806575,46.0,102.0
366,112.31112625,112.54550125,39.0,72.0
367,112.504485625,112.54550125,39.0,97.0
368,112.504485625,113.035735625,55.0,92.0
369,112.504485625,113.047454375,63.0,100.0
370,112.504485625,113.104095,58.0,112.0
371,112.973235625,113.520110625,51.0,99.0
372,113.676360625,113.813079375,51.0,93.0
373,113.441985625,113.949798125,58.0,127.0
374,113.441985625,114.0494075,63.0,127.0
375,114.145110625,114.313079375,58.0,96.0
376,113.910735625,114.3306575,55.0,100.0
377,114.379485625,114.961516875,55.0,56.0
378,114.379485625,115.109954375,60.0,100.0
379,114.379485625,115.15487625,63.0,117.0
380,115.316985625,115.33847,63.0,73.0
381,115.082610625,115.46737625,48.0,99.0
382,114.379485625,115.6744075,36.0,89.0
383,114.848235625,115.74472,43.0,47.0
384,115.316985625,115.7525325,60.0,127.0
385,115.551360625,116.191985625,48.0,90.0
386,115.785735625,116.24472,55.0,99.0
387,116.254485625,117.0337825,60.0,85.0
388,116.254485625,117.059173125,57.0,102.0
389,116.723235625,117.254485625,48.0,54.0
390,117.426360625,117.586516875,48.0,95.0
391,116.254485625,117.60018875,41.0,75.0
392,117.191985625,117.676360625,60.0,97.0
393,117.191985625,117.67831375,57.0,99.0
394,117.660735625,117.9556575,53.0,90.0
395,117.895110625,118.231048125,57.0,61.0
396,118.832610625,119.078704375,53.0,95.0
397,118.598235625,119.145110625,50.0,96.0
398,119.066985625,119.383391875,57.0,92.0
399,118.129485625,119.453704375,38.0,93.0
400,118.363860625,119.481048125,45.0,64.0
401,119.535735625,119.672454375,53.0,96.0
402,119.770110625,119.859954375,62.0,67.0
403,119.301360625,119.918548125,50.0,81.0
404,120.004485625,120.10800125,55.0,97.0
405,120.004485625,120.121673125,62.0,99.0
406,120.707610625,120.797454375,70.0,127.0
407,120.707610625,120.801360625,74.0,99.0
408,120.473235625,121.016204375,55.0,102.0
409,120.941985625,121.215423125,70.0,127.0
410,120.941985625,121.274016875,74.0,122.0
411,121.176360625,121.35800125,55.0,100.0
412,121.410735625,121.590423125,72.0,102.0
413,120.004485625,121.61581375,43.0,99.0
414,121.410735625,121.633391875,69.0,102.0
415,120.238860625,121.67050125,50.0,74.0
416,121.434173125,121.67050125,50.0,71.0
417,121.6431575,121.691985625,72.0,42.0
418,121.6431575,121.7837825,74.0,92.0
419,121.6431575,121.785735625,70.0,99.0
420,121.6431575,121.92050125,55.0,77.0
421,121.879485625,122.666595,74.0,102.0
422,121.879485625,122.6744075,70.0,127.0
423,122.582610625,122.945891875,55.0,77.0
424,123.051360625,123.254485625,55.0,53.0
425,122.816985625,123.3775325,70.0,127.0
426,122.816985625,123.4087825,74.0,117.0
427,122.348235625,123.578704375,50.0,45.0
428,123.30722,123.578704375,50.0,71.0
429,121.879485625,123.5962825,43.0,100.0
430,123.52206375,123.7681575,55.0,47.0
431,123.285735625,123.871673125,67.0,73.0
432,123.754485625,123.887298125,70.0,97.0
433,123.754485625,123.891204375,74.0,90.0
434,124.223235625,124.754485625,55.0,99.0
435,124.457610625,124.8462825,62.0,92.0
436,123.988860625,124.992766875,50.0,89.0
437,124.926360625,125.04550125,55.0,88.0
438,123.754485625,125.0494075,43.0,89.0
439,124.691985625,125.078704375,70.0,127.0
440,124.926360625,125.26425125,67.0,97.0
441,125.180266875,125.4244075,55.0,75.0
442,125.160735625,125.430266875,65.0,100.0
443,125.40097,125.660735625,43.0,64.0
444,125.395110625,125.71737625,62.0,89.0
445,125.629485625,125.727141875,67.0,107.0
446,126.332610625,126.50643875,55.0,41.0
447,126.098235625,126.666595,51.0,59.0
448,125.629485625,126.94393875,39.0,93.0
449,126.566985625,127.02206375,63.0,117.0
450,126.801360625,127.05722,51.0,88.0
451,126.566985625,127.08847,58.0,122.0
452,127.05722,127.30722,39.0,77.0
453,127.035735625,127.426360625,55.0,88.0
454,127.274016875,127.43612625,51.0,65.0
455,127.504485625,127.566985625,55.0,74.0
456,127.504485625,128.03768875,58.0,112.0
457,127.504485625,128.043548125,62.0,92.0
458,127.973235625,128.418548125,55.0,93.0
459,127.738860625,128.51425125,50.0,63.0
460,128.207610625,128.547454375,57.0,96.0
461,128.676360625,128.789641875,50.0,89.0
462,127.504485625,128.832610625,43.0,82.0
463,128.441985625,128.95956375,58.0,127.0
464,128.930266875,129.197845,55.0,79.0
465,129.145110625,129.197845,55.0,66.0
466,128.910735625,129.2369075,62.0,96.0
467,129.160735625,129.42050125,43.0,62.0
468,129.379485625,130.2056575,58.0,95.0
469,129.379485625,130.215423125,62.0,88.0
470,129.379485625,130.2525325,55.0,67.0
471,129.848235625,130.36581375,51.0,66.0
472,130.316985625,130.84237625,58.0,90.0
473,130.316985625,130.961516875,67.0,78.0
474,129.379485625,131.10018875,39.0,100.0
475,130.80331375,131.10018875,39.0,72.0
476,131.020110625,131.1744075,67.0,27.0
477,130.316985625,131.18612625,62.0,78.0
478,130.316985625,131.197845,55.0,72.0
479,130.785735625,131.277923125,51.0,81.0
480,131.04550125,131.277923125,51.0,72.0
481,131.254485625,131.729095,58.0,92.0
482,131.254485625,131.81112625,67.0,77.0
483,131.254485625,131.856048125,62.0,77.0
484,131.254485625,132.03768875,55.0,78.0
485,132.191985625,132.2369075,55.0,74.0
486,131.723235625,132.324798125,51.0,63.0
487,131.254485625,132.541595,39.0,89.0
488,132.191985625,132.63143875,67.0,92.0
489,132.191985625,132.664641875,62.0,97.0
490,132.191985625,132.67050125,58.0,117.0
491,132.660735625,132.742766875,55.0,86.0
492,132.6900325,132.953704375,51.0,81.0
493,132.9087825,133.17050125,39.0,68.0
494,133.129485625,133.24862625,51.0,102.0
495,133.129485625,133.277923125,48.0,100.0
496,133.129485625,133.277923125,55.0,96.0
497,133.598235625,134.231048125,43.0,37.0
498,134.066985625,134.496673125,48.0,85.0
499,134.066985625,134.5181575,63.0,127.0
500,134.066985625,134.547454375,60.0,117.0
501,134.066985625,134.55331375,67.0,97.0
502,133.129485625,134.715423125,36.0,74.0
503,134.559173125,134.85018875,48.0,80.0
504,134.535735625,135.031829375,43.0,79.0
505,134.791595,135.039641875,36.0,65.0
506,135.004485625,135.60018875,62.0,117.0
507,135.004485625,135.606048125,65.0,112.0
508,135.004485625,135.645110625,69.0,112.0
509,135.707610625,135.750579375,69.0,28.0
510,135.473235625,136.008391875,50.0,88.0
511,135.941985625,136.27206375,62.0,112.0
512,135.004485625,136.363860625,38.0,86.0
513,136.21347,136.363860625,38.0,81.0
514,136.176360625,136.367766875,50.0,97.0
515,135.238860625,136.402923125,45.0,85.0
516,135.941985625,136.46737625,65.0,117.0
517,135.941985625,136.56893875,69.0,100.0
518,136.410735625,136.83847,62.0,100.0
519,136.45175125,136.93222,50.0,77.0
520,136.879485625,137.26425125,67.0,99.0
521,136.879485625,137.2681575,70.0,122.0
522,136.879485625,137.3150325,62.0,81.0
523,137.348235625,137.938079375,50.0,60.0
524,137.816985625,138.15487625,58.0,127.0
525,137.816985625,138.28768875,62.0,97.0
526,138.3462825,138.582610625,55.0,76.0
527,136.879485625,138.6119075,43.0,81.0
528,138.55722,138.6119075,43.0,56.0
529,138.285735625,138.697845,60.0,83.0
530,138.051360625,138.731048125,50.0,32.0
531,138.285735625,138.813079375,57.0,92.0
532,138.754485625,138.848235625,58.0,117.0
533,138.754485625,138.8619075,62.0,88.0
534,139.691985625,139.828704375,74.0,97.0
535,139.223235625,139.885345,50.0,43.0
536,139.691985625,140.1275325,70.0,127.0
537,138.754485625,140.207610625,43.0,90.0
538,139.691985625,140.223235625,55.0,81.0
539,140.188079375,140.223235625,55.0,81.0
540,140.160735625,140.354095,50.0,36.0
541,140.160735625,140.45175125,67.0,96.0
542,140.395110625,140.582610625,69.0,102.0
543,140.4087825,140.64706375,50.0,55.0
544,140.629485625,141.104095,70.0,112.0
545,141.098235625,141.635345,58.0,82.0
546,141.801360625,141.90487625,58.0,90.0
547,140.629485625,141.918548125,46.0,112.0
548,141.566985625,141.99472,70.0,127.0
549,141.566985625,142.00643875,74.0,96.0
550,142.0650325,142.316985625,46.0,79.0
551,142.277923125,142.340423125,39.0,55.0
552,142.504485625,143.041595,67.0,89.0
553,142.504485625,143.086516875,63.0,97.0
554,142.504485625,143.106048125,70.0,93.0
555,142.973235625,143.461516875,51.0,69.0
556,143.441985625,143.74862625,67.0,127.0
557,143.676360625,143.7837825,51.0,93.0
558,142.504485625,143.856048125,39.0,97.0
559,143.441985625,143.87362625,70.0,117.0
560,143.910735625,144.15097,62.0,102.0
561,143.934173125,144.18222,51.0,79.0
562,144.145110625,144.301360625,63.0,81.0
563,144.13925125,144.395110625,39.0,72.0
564,144.379485625,144.7837825,63.0,107.0
565,144.379485625,144.791595,67.0,92.0
566,144.379485625,144.80722,60.0,122.0
567,144.848235625,145.45175125,43.0,62.0
568,145.316985625,145.492766875,48.0,93.0
569,145.316985625,145.500579375,51.0,107.0
570,144.379485625,145.510345,36.0,74.0
571,145.316985625,145.55331375,55.0,93.0
572,145.824798125,146.199798125,36.0,76.0
573,146.051360625,146.332610625,48.0,75.0
574,146.254485625,146.527923125,53.0,95.0
575,146.254485625,146.539641875,57.0,95.0
576,146.254485625,146.566985625,60.0,96.0
577,146.723235625,147.3462825,48.0,63.0
578,146.254485625,147.414641875,41.0,79.0
579,147.191985625,147.531829375,65.0,93.0
580,147.191985625,147.604095,69.0,96.0
581,147.191985625,147.613860625,72.0,96.0
582,147.46737625,147.719329375,53.0,77.0
583,147.688079375,147.945891875,41.0,74.0
584,148.129485625,148.24081375,65.0,92.0
585,148.129485625,148.246673125,62.0,99.0
586,148.129485625,148.246673125,69.0,92.0
587,148.598235625,149.16268875,45.0,55.0
588,148.129485625,149.168548125,38.0,81.0
589,149.066985625,149.18612625,53.0,96.0
590,149.066985625,149.215423125,57.0,96.0
591,149.551360625,150.012298125,38.0,83.0
592,149.770110625,150.0650325,50.0,68.0
593,150.004485625,150.543548125,62.0,95.0
594,150.004485625,150.551360625,58.0,117.0
595,150.473235625,150.902923125,55.0,97.0
596,150.707610625,150.906829375,57.0,93.0
597,150.238860625,151.059173125,50.0,70.0
598,151.176360625,151.356048125,50.0,97.0
599,150.004485625,151.430266875,43.0,83.0
600,150.941985625,151.55722,62.0,112.0
601,151.410735625,151.68222,58.0,127.0
602,151.879485625,152.734954375,63.0,112.0
603,151.879485625,152.74472,60.0,107.0
604,151.645110625,152.79550125,55.0,79.0
605,151.879485625,153.020110625,36.0,90.0
606,152.816985625,153.30331375,63.0,90.0
607,152.816985625,153.313079375,60.0,85.0
608,152.816985625,153.510345,55.0,70.0
609,153.754485625,154.512298125,53.0,82.0
610,153.754485625,154.527923125,57.0,82.0
611,153.754485625,154.541595,60.0,82.0
612,153.754485625,154.86972,41.0,70.0
613,154.691985625,155.04550125,57.0,66.0
614,154.691985625,155.0650325,60.0,67.0
615,154.691985625,155.07675125,53.0,59.0
616,155.629485625,155.816985625,55.0,67.0
617,155.629485625,156.15097,58.0,79.0
618,155.629485625,156.17831375,62.0,66.0
619,156.098235625,156.688079375,50.0,41.0
620,155.629485625,159.13925125,43.0,67.0
621,157.504485625,159.250579375,62.0,59.0
622,156.566985625,159.254485625,57.0,81.0
623,157.504485625,159.27987625,58.0,53.0
624,157.035735625,159.36972,50.0,38.0
625,159.379485625,161.063079375,43.0,86.0
626,159.848235625,161.30331375,50.0,58.0
627,160.785735625,161.729095,55.0,73.0
628,160.316985625,161.81112625,62.0,68.0
629,160.316985625,161.83456375,58.0,102.0
630,161.723235625,162.260345,50.0,56.0
631,161.254485625,162.297454375,43.0,82.0
632,162.191985625,162.99472,62.0,99.0
633,162.660735625,163.375579375,58.0,79.0
634,163.129485625,164.2056575,39.0,75.0
635,163.598235625,164.430266875,51.0,71.0
636,164.066985625,164.852141875,63.0,100.0
637,164.535735625,165.86972,58.0,81.0
638,165.473235625,166.36581375,50.0,55.0
639,165.004485625,166.391204375,43.0,71.0
640,165.941985625,167.000579375,62.0,96.0
641,166.410735625,167.4087825,58.0,69.0
642,166.879485625,168.633391875,39.0,92.0
643,167.348235625,168.871673125,51.0,72.0
644,167.816985625,169.316985625,62.0,96.0
645,168.285735625,169.6275325,58.0,71.0
646,169.691985625,169.731048125,58.0,39.0
647,169.223235625,170.016204375,51.0,59.0
648,168.754485625,170.21737625,39.0,83.0
649,170.160735625,170.7525325,55.0,72.0
650,169.926360625,170.844329375,58.0,29.0
651,169.691985625,170.844329375,62.0,99.0
652,171.098235625,171.80331375,48.0,77.0
653,171.566985625,172.00643875,60.0,112.0
654,171.566985625,172.010345,63.0,127.0
655,170.629485625,172.104095,36.0,90.0
656,172.035735625,172.42831375,48.0,57.0
657,172.504485625,172.660735625,50.0,107.0
658,172.504485625,172.664641875,54.0,107.0
659,172.504485625,172.676360625,57.0,97.0
660,173.207610625,173.25643875,64.0,100.0
661,173.207610625,173.262298125,74.0,96.0
662,173.207610625,173.270110625,62.0,117.0
663,173.441985625,173.492766875,78.0,117.0
664,173.441985625,173.516204375,66.0,127.0
665,173.676360625,173.762298125,79.0,117.0
666,173.676360625,173.770110625,67.0,117.0
667,172.504485625,173.96347,38.0,90.0
668,172.973235625,174.059173125,45.0,63.0
669,174.145110625,174.197845,81.0,95.0
670,174.145110625,174.2369075,69.0,107.0
671,173.441985625,174.31112625,50.0,127.0
672,174.379485625,174.43612625,82.0,107.0
673,174.379485625,174.44393875,70.0,127.0
674,175.316985625,175.39706375,58.0,127.0
675,175.316985625,175.40097,55.0,112.0
676,175.316985625,175.40097,62.0,102.0
677,174.848235625,175.473235625,50.0,82.0
678,176.020110625,176.074798125,79.0,53.0
679,174.379485625,176.090423125,43.0,107.0
680,175.785735625,176.27206375,50.0,68.0
681,176.254485625,176.31112625,79.0,81.0
682,176.254485625,176.316985625,67.0,95.0
683,176.957610625,177.04550125,58.0,99.0
684,176.957610625,177.05722,62.0,85.0
685,176.957610625,177.06112625,55.0,89.0
686,176.723235625,177.291595,50.0,85.0
687,176.254485625,177.297454375,43.0,102.0
688,177.191985625,177.332610625,58.0,127.0
689,177.191985625,177.414641875,62.0,102.0
690,177.426360625,177.479095,43.0,102.0
691,177.191985625,177.635345,55.0,100.0
692,177.660735625,177.7525325,57.0,112.0
693,178.129485625,178.867766875,62.0,92.0
694,178.129485625,178.879485625,53.0,93.0
695,178.129485625,178.891204375,58.0,99.0
696,178.598235625,179.24081375,46.0,72.0
697,178.129485625,179.496673125,34.0,100.0
698,179.066985625,179.5025325,62.0,97.0
699,179.066985625,179.566985625,58.0,127.0
700,179.066985625,179.590423125,53.0,97.0
701,179.535735625,179.664641875,46.0,81.0
702,180.004485625,180.55722,55.0,93.0
703,180.004485625,180.56893875,58.0,127.0
704,180.004485625,180.62362625,63.0,117.0
705,180.473235625,180.95956375,51.0,82.0
706,181.13925125,181.23300125,51.0,97.0
707,180.004485625,181.291595,39.0,95.0
708,180.941985625,181.36972,58.0,127.0
709,180.941985625,181.391204375,63.0,127.0
710,181.38143875,181.438079375,55.0,99.0
711,181.856048125,182.231048125,55.0,96.0
712,181.85800125,182.234954375,48.0,107.0
713,181.852141875,182.2369075,51.0,117.0
714,182.332610625,182.59237625,48.0,86.0
715,182.33847,182.635345,55.0,83.0
716,182.33456375,182.63925125,51.0,100.0
717,181.854095,182.90487625,36.0,82.0
718,182.816985625,182.938079375,43.0,68.0
719,182.816985625,182.9400325,51.0,127.0
720,182.816985625,182.95175125,55.0,102.0
721,183.754485625,184.08847,53.0,99.0
722,183.754485625,184.11972,57.0,93.0
723,183.754485625,184.137298125,60.0,99.0
724,184.223235625,184.75643875,48.0,69.0
725,183.754485625,185.0181575,41.0,78.0
726,184.926360625,185.06112625,48.0,74.0
727,184.691985625,185.17050125,57.0,112.0
728,184.691985625,185.2056575,60.0,102.0
729,185.160735625,185.309173125,53.0,83.0
730,185.563079375,185.621673125,31.0,75.0
731,185.58847,186.18222,55.0,92.0
732,185.45956375,186.32675125,58.0,66.0
733,185.379485625,186.4087825,62.0,72.0
734,187.035735625,187.531829375,50.0,40.0
735,187.504485625,188.31893875,58.0,95.0
736,186.566985625,188.348235625,57.0,102.0
737,187.973235625,189.363860625,50.0,43.0
738,188.441985625,189.383391875,57.0,26.0
739,188.441985625,189.416595,62.0,81.0
740,186.098235625,189.465423125,43.0,74.0
741,189.379485625,189.465423125,43.0,93.0
742,190.316985625,191.125579375,58.0,99.0
743,190.785735625,191.445891875,57.0,51.0
744,190.316985625,192.02206375,62.0,72.0
745,191.254485625,192.0337825,58.0,64.0
746,189.848235625,192.281829375,50.0,50.0
747,192.70175125,192.930266875,55.0,63.0
748,192.90487625,193.166595,43.0,58.0
749,192.660735625,193.17831375,58.0,58.0
750,192.191985625,193.18222,62.0,93.0
751,193.129485625,194.426360625,41.0,68.0
752,193.598235625,194.5962825,48.0,41.0
753,194.535735625,195.05722,57.0,46.0
754,194.066985625,195.074798125,60.0,89.0
755,194.5962825,195.10018875,38.0,56.0
756,195.473235625,196.059173125,50.0,53.0
757,195.004485625,196.434173125,43.0,74.0
758,195.941985625,196.457610625,62.0,100.0
759,196.434173125,196.645110625,55.0,55.0
760,196.410735625,196.67831375,60.0,79.0
761,196.635345,196.848235625,43.0,55.0
762,196.879485625,198.387298125,39.0,83.0
763,198.2994075,198.387298125,39.0,51.0
764,197.348235625,198.867766875,51.0,39.0
765,197.816985625,199.274016875,63.0,99.0
766,198.285735625,199.606048125,58.0,41.0
767,199.223235625,200.135345,51.0,48.0
768,198.754485625,200.229095,39.0,74.0
769,200.20175125,200.457610625,51.0,64.0
770,200.406829375,200.672454375,39.0,56.0
771,199.691985625,200.691985625,62.0,68.0
772,200.160735625,200.711516875,58.0,44.0
773,200.629485625,201.695891875,34.0,89.0
774,201.098235625,201.770110625,46.0,58.0
775,202.0806575,202.336516875,34.0,54.0
776,202.289641875,202.53768875,46.0,63.0
777,202.035735625,202.57675125,58.0,55.0
778,201.566985625,202.58847,62.0,99.0
779,202.504485625,203.574798125,38.0,77.0
780,202.973235625,203.602141875,45.0,51.0
781,203.441985625,204.363860625,54.0,85.0
782,203.441985625,204.3775325,57.0,77.0
783,203.9556575,204.441985625,45.0,63.0
784,205.785735625,206.316985625,57.0,56.0
785,204.848235625,206.5806575,50.0,61.0
786,205.316985625,206.854095,62.0,95.0
787,206.254485625,207.03768875,58.0,56.0
788,206.723235625,207.246673125,50.0,50.0
789,204.3775325,207.590423125,43.0,74.0
790,207.668548125,207.91268875,55.0,62.0
791,207.660735625,207.9244075,58.0,83.0
792,207.8931575,208.145110625,43.0,56.0
793,207.191985625,208.3150325,62.0,95.0
794,208.129485625,208.89706375,58.0,74.0
795,208.129485625,209.18222,34.0,70.0
796,208.598235625,209.320891875,46.0,45.0
797,209.574798125,209.854095,34.0,55.0
798,209.7837825,210.08847,46.0,64.0
799,209.535735625,210.16268875,58.0,52.0
800,209.066985625,210.2056575,62.0,97.0
801,210.473235625,211.33847,48.0,58.0
802,210.004485625,211.3931575,41.0,73.0
803,211.410735625,211.96737625,53.0,63.0
804,211.44393875,211.973235625,41.0,56.0
805,210.941985625,212.0025325,60.0,90.0
806,212.348235625,213.184173125,48.0,45.0
807,211.879485625,213.258391875,36.0,70.0
808,212.816985625,213.76425125,63.0,95.0
809,213.285735625,213.774016875,60.0,66.0
810,213.320891875,213.844329375,36.0,53.0
811,213.754485625,215.22518875,38.0,72.0
812,214.223235625,215.422454375,45.0,41.0
813,215.2056575,215.551360625,41.0,74.0
814,214.691985625,215.625579375,50.0,55.0
815,215.406829375,215.699798125,53.0,59.0
816,216.566985625,216.95175125,58.0,122.0
817,216.566985625,217.082610625,62.0,100.0
818,217.270110625,217.35018875,57.0,95.0
819,217.270110625,217.35800125,60.0,93.0
820,217.035735625,217.38925125,55.0,81.0
821,217.504485625,217.527923125,70.0,43.0
822,217.504485625,217.555266875,58.0,52.0
823,217.504485625,217.754485625,55.0,73.0
824,217.738860625,217.754485625,55.0,68.0
825,217.738860625,217.797454375,70.0,97.0
826,217.738860625,217.820891875,58.0,117.0
827,218.207610625,218.285735625,72.0,83.0
828,218.207610625,218.29550125,60.0,90.0
829,218.441985625,218.547454375,74.0,107.0
830,218.441985625,218.572845,62.0,102.0
831,218.676360625,218.859954375,55.0,95.0
832,218.910735625,218.961516875,75.0,97.0
833,218.910735625,218.984954375,63.0,127.0
834,215.629485625,219.06893875,43.0,71.0
835,216.098235625,219.270110625,50.0,58.0
836,219.379485625,219.926360625,55.0,102.0
837,219.379485625,219.926360625,58.0,117.0
838,219.379485625,219.9712825,62.0,99.0
839,219.848235625,220.4869075,50.0,52.0
840,220.316985625,220.8931575,58.0,127.0
841,220.316985625,220.94393875,62.0,102.0
842,220.785735625,221.06893875,50.0,28.0
843,220.785735625,221.098235625,55.0,68.0
844,219.379485625,221.16268875,43.0,83.0
845,221.020110625,221.2525325,58.0,97.0
846,221.020110625,221.2837825,62.0,82.0
847,222.191985625,222.31112625,55.0,95.0
848,221.723235625,222.336516875,50.0,66.0
849,221.2525325,222.367766875,43.0,89.0
850,222.191985625,222.641204375,67.0,117.0
851,222.191985625,222.72518875,70.0,127.0
852,222.660735625,222.758391875,41.0,96.0
853,223.129485625,223.64706375,67.0,97.0
854,223.129485625,223.70175125,70.0,102.0
855,223.129485625,223.715423125,63.0,100.0
856,224.066985625,224.219329375,67.0,117.0
857,223.598235625,224.242766875,51.0,78.0
858,224.301360625,224.51425125,67.0,24.0
859,224.066985625,224.54550125,63.0,107.0
860,223.129485625,224.5494075,39.0,99.0
861,224.066985625,224.602141875,70.0,117.0
862,224.535735625,224.621673125,51.0,52.0
863,225.004485625,225.33847,67.0,100.0
864,225.004485625,225.348235625,70.0,127.0
865,225.004485625,225.375579375,62.0,95.0
866,225.473235625,225.93222,50.0,71.0
867,225.004485625,226.03768875,43.0,78.0
868,226.176360625,226.270110625,43.0,75.0
869,225.941985625,226.410735625,62.0,97.0
870,225.941985625,226.447845,58.0,122.0
871,226.410735625,226.5025325,39.0,73.0
872,226.410735625,226.723235625,55.0,92.0
873,226.879485625,227.602141875,62.0,92.0
874,226.879485625,227.604095,55.0,102.0
875,226.879485625,227.65487625,58.0,122.0
876,227.348235625,227.99472,51.0,73.0
877,227.816985625,228.35800125,58.0,117.0
878,227.816985625,228.4087825,55.0,90.0
879,227.816985625,228.44393875,62.0,100.0
880,228.285735625,229.024016875,51.0,48.0
881,228.754485625,229.527923125,55.0,90.0
882,228.754485625,229.56112625,58.0,112.0
883,228.754485625,229.563079375,62.0,95.0
884,229.223235625,229.727141875,51.0,77.0
885,229.926360625,230.016204375,51.0,99.0
886,226.879485625,230.12362625,39.0,97.0
887,229.691985625,230.164641875,58.0,122.0
888,229.691985625,230.2681575,62.0,99.0
889,230.395110625,230.52206375,58.0,92.0
890,230.160735625,230.5337825,55.0,90.0
891,230.629485625,230.918548125,63.0,127.0
892,230.629485625,230.922454375,55.0,86.0
893,230.629485625,230.922454375,60.0,107.0
894,231.098235625,231.73300125,43.0,69.0
895,231.566985625,231.80331375,51.0,127.0
896,231.566985625,231.813079375,48.0,100.0
897,231.566985625,231.85800125,55.0,97.0
898,230.629485625,232.090423125,36.0,90.0
899,232.270110625,232.33456375,53.0,50.0
900,232.035735625,232.36972,43.0,58.0
901,232.504485625,232.57675125,50.0,102.0
902,232.504485625,232.58456375,53.0,102.0
903,232.504485625,232.58847,57.0,102.0
904,233.207610625,233.297454375,62.0,96.0
905,233.207610625,233.2994075,65.0,90.0
906,233.207610625,233.3150325,69.0,96.0
907,232.973235625,233.426360625,50.0,100.0
908,233.676360625,233.774016875,74.0,86.0
909,233.676360625,233.777923125,81.0,95.0
910,233.676360625,233.77987625,77.0,96.0
911,233.676360625,233.90487625,50.0,45.0
912,232.504485625,233.941985625,38.0,95.0
913,233.910735625,233.977141875,77.0,122.0
914,233.910735625,233.977141875,81.0,117.0
915,232.738860625,233.9869075,45.0,90.0
916,233.910735625,233.996673125,74.0,97.0
917,233.910735625,234.324798125,50.0,68.0
918,235.316985625,235.59237625,55.0,99.0
919,235.316985625,235.852141875,58.0,117.0
920,235.316985625,235.910735625,62.0,99.0
921,234.379485625,236.08456375,43.0,90.0
922,236.020110625,236.098235625,62.0,45.0
923,236.020110625,236.13925125,58.0,65.0
924,235.785735625,236.166595,55.0,72.0
925,234.848235625,236.270110625,50.0,59.0
926,236.254485625,236.41268875,58.0,122.0
927,236.254485625,236.4244075,55.0,95.0
928,236.254485625,236.4400325,62.0,92.0
929,237.191985625,237.447845,62.0,99.0
930,236.723235625,237.5181575,50.0,51.0
931,237.426360625,237.52206375,55.0,93.0
932,236.254485625,237.555266875,43.0,85.0
933,237.191985625,237.645110625,70.0,127.0
934,237.191985625,237.66268875,67.0,122.0
935,237.660735625,237.738860625,62.0,97.0
936,237.68222,237.9400325,55.0,74.0
937,237.885345,238.195891875,43.0,63.0
938,238.129485625,238.207610625,34.0,122.0
939,238.129485625,238.660735625,65.0,92.0
940,238.129485625,238.715423125,58.0,122.0
941,238.129485625,238.820891875,62.0,102.0
942,238.598235625,239.258391875,46.0,50.0
943,239.066985625,239.492766875,65.0,93.0
944,239.066985625,239.510345,62.0,99.0
945,239.066985625,239.527923125,58.0,127.0
946,239.535735625,239.5806575,46.0,102.0
947,240.004485625,240.535735625,55.0,92.0
948,240.004485625,240.547454375,63.0,100.0
949,240.004485625,240.604095,58.0,112.0
950,240.473235625,241.020110625,51.0,99.0
951,241.176360625,241.313079375,51.0,93.0
952,240.004485625,241.39706375,39.0,97.0
953,240.941985625,241.449798125,58.0,127.0
954,240.941985625,241.5494075,63.0,127.0
955,241.449798125,241.70175125,51.0,84.0
956,241.645110625,241.813079375,58.0,96.0
957,241.410735625,241.8306575,55.0,100.0
958,241.65487625,241.9087825,39.0,79.0
959,241.879485625,242.461516875,55.0,56.0
960,241.879485625,242.609954375,60.0,100.0
961,241.879485625,242.65487625,63.0,117.0
962,242.816985625,242.83847,63.0,73.0
963,242.582610625,242.96737625,48.0,99.0
964,241.879485625,243.1744075,36.0,89.0
965,243.086516875,243.1744075,36.0,63.0
966,242.348235625,243.24472,43.0,47.0
967,242.816985625,243.2525325,60.0,127.0
968,243.051360625,243.691985625,48.0,90.0
969,243.3150325,243.691985625,48.0,64.0
970,243.285735625,243.74472,55.0,99.0
971,243.754485625,244.5337825,60.0,85.0
972,243.754485625,244.559173125,57.0,102.0
973,244.223235625,244.754485625,48.0,54.0
974,244.926360625,245.086516875,48.0,95.0
975,243.754485625,245.10018875,41.0,75.0
976,244.691985625,245.176360625,60.0,97.0
977,244.691985625,245.17831375,57.0,99.0
978,245.160735625,245.4556575,53.0,90.0
979,245.395110625,245.731048125,57.0,61.0
980,246.332610625,246.578704375,53.0,95.0
981,246.098235625,246.645110625,50.0,96.0
982,246.566985625,246.883391875,57.0,92.0
983,245.629485625,246.953704375,38.0,93.0
984,245.863860625,246.981048125,45.0,64.0
985,247.035735625,247.172454375,53.0,96.0
986,247.270110625,247.359954375,62.0,67.0
987,246.801360625,247.418548125,50.0,81.0
988,247.2525325,247.418548125,50.0,47.0
989,247.05722,247.54550125,38.0,64.0
990,247.504485625,247.60800125,55.0,97.0
991,247.504485625,247.621673125,62.0,99.0
992,248.207610625,248.297454375,70.0,127.0
993,248.207610625,248.301360625,74.0,99.0
994,247.973235625,248.516204375,55.0,102.0
995,248.441985625,248.715423125,70.0,127.0
996,248.441985625,248.774016875,74.0,122.0
997,248.676360625,248.85800125,55.0,100.0
998,248.910735625,249.090423125,72.0,102.0
999,247.504485625,249.11581375,43.0,99.0
1000,248.910735625,249.133391875,69.0,102.0
1001,249.145110625,249.191985625,72.0,42.0
1002,249.145110625,249.2837825,74.0,92.0
1003,249.145110625,249.285735625,70.0,99.0
1004,247.738860625,249.340423125,50.0,74.0
1005,249.379485625,250.166595,74.0,102.0
1006,249.379485625,250.1744075,70.0,127.0
1007,250.082610625,250.445891875,55.0,77.0
1008,250.551360625,250.754485625,55.0,53.0
1009,250.316985625,250.8775325,70.0,127.0
1010,250.316985625,250.9087825,74.0,117.0
1011,250.797454375,251.051360625,55.0,72.0
1012,249.379485625,251.0962825,43.0,100.0
1013,251.012298125,251.0962825,43.0,59.0
1014,249.848235625,251.291595,50.0,45.0
1015,251.254485625,251.297454375,43.0,89.0
1016,250.785735625,251.371673125,67.0,73.0
1017,251.254485625,251.387298125,70.0,97.0
1018,251.254485625,251.391204375,74.0,90.0
1019,251.723235625,252.254485625,55.0,99.0
1020,251.957610625,252.3462825,62.0,92.0
1021,251.488860625,252.492766875,50.0,89.0
1022,252.426360625,252.54550125,55.0,88.0
1023,252.191985625,252.578704375,70.0,127.0
1024,252.426360625,252.76425125,67.0,97.0
1025,252.660735625,252.930266875,65.0,100.0
1026,252.67831375,252.984954375,50.0,63.0
1027,252.90097,253.117766875,43.0,62.0
1028,252.895110625,253.21737625,62.0,89.0
1029,253.129485625,253.227141875,67.0,107.0
1030,253.832610625,254.00643875,55.0,41.0
1031,253.598235625,254.166595,51.0,59.0
1032,253.129485625,254.44393875,39.0,93.0
1033,254.066985625,254.52206375,63.0,117.0
1034,254.301360625,254.559173125,51.0,88.0
1035,254.066985625,254.58847,58.0,122.0
1036,254.572845,254.8462825,39.0,77.0
1037,254.535735625,254.926360625,55.0,88.0
1038,255.004485625,255.066985625,55.0,74.0
1039,254.7837825,255.070891875,51.0,75.0
1040,255.004485625,255.53768875,58.0,112.0
1041,255.004485625,255.543548125,62.0,92.0
1042,255.473235625,255.918548125,55.0,93.0
1043,255.238860625,256.01425125000003,50.0,63.0
1044,255.707610625,256.04745437500003,57.0,96.0
1045,256.17636062500003,256.28964187500003,50.0,89.0
1046,255.004485625,256.33261062500003,43.0,82.0
1047,255.941985625,256.45956375000003,58.0,127.0
1048,256.41073562500003,256.73690750000003,62.0,96.0
1049,256.64511062500003,256.85018875000003,55.0,66.0
1050,256.87948562500003,257.70565750000003,58.0,95.0
1051,256.87948562500003,257.71542312500003,62.0,88.0
1052,256.87948562500003,257.75253250000003,55.0,67.0
1053,257.34823562500003,257.86581375000003,51.0,66.0
1054,257.81698562500003,258.34237625000003,58.0,90.0
1055,257.81698562500003,258.46151687500003,67.0,78.0
1056,256.87948562500003,258.67050125000003,39.0,100.0
1057,258.52011062500003,258.67440750000003,67.0,27.0
1058,257.81698562500003,258.68612625000003,62.0,78.0
1059,257.81698562500003,258.69784500000003,55.0,72.0
1060,258.28573562500003,258.85409500000003,51.0,81.0
1061,258.75448562500003,259.22909500000003,58.0,92.0
1062,258.75448562500003,259.31112625000003,67.0,77.0
1063,258.75448562500003,259.35604812500003,62.0,77.0
1064,258.75448562500003,259.53768875000003,55.0,78.0
1065,259.69198562500003,259.73690750000003,55.0,74.0
1066,259.22323562500003,259.82479812500003,51.0,63.0
1067,258.75448562500003,260.04159500000003,39.0,89.0
1068,259.69198562500003,260.13143875000003,67.0,92.0
1069,259.69198562500003,260.16464187500003,62.0,97.0
1070,259.69198562500003,260.17050125000003,58.0,117.0
1071,260.16073562500003,260.24276687500003,55.0,86.0
1072,260.19784500000003,260.45370437500003,46.0,79.0
1073,260.40878250000003,260.68222000000003,39.0,72.0
1074,260.62948562500003,260.74862625000003,51.0,102.0
1075,260.62948562500003,260.77792312500003,48.0,100.0
1076,260.62948562500003,260.77792312500003,55.0,96.0
1077,261.09823562500003,261.73104812500003,43.0,37.0
1078,261.56698562500003,261.99667312500003,48.0,85.0
1079,261.56698562500003,262.01815750000003,63.0,127.0
1080,261.56698562500003,262.04745437500003,60.0,117.0
1081,261.56698562500003,262.05331375000003,67.0,97.0
1082,260.62948562500003,262.21542312500003,36.0,74.0
1083,262.06698562500003,262.21542312500003,36.0,80.0
1084,262.03573562500003,262.53182937500003,43.0,79.0
1085,262.27597000000003,262.58456375000003,48.0,81.0
1086,262.50448562500003,263.10018875000003,62.0,117.0
1087,262.50448562500003,263.10604812500003,65.0,112.0
1088,262.50448562500003,263.14511062500003,69.0,112.0
1089,263.20761062500003,263.25057937500003,69.0,28.0
1090,262.97323562500003,263.50839187500003,50.0,88.0
1091,263.44198562500003,263.77206375000003,62.0,112.0
1092,262.50448562500003,263.86386062500003,38.0,86.0
1093,263.69589187500003,263.86386062500003,38.0,87.0
1094,263.67636062500003,263.86776687500003,50.0,97.0
1095,262.73886062500003,263.90292312500003,45.0,85.0
1096,263.44198562500003,263.96737625000003,65.0,117.0
1097,263.44198562500003,264.06893875000003,69.0,100.0
1098,263.91073562500003,264.33847000000003,62.0,100.0
1099,263.93807937500003,264.42831375000003,50.0,81.0
1100,264.37948562500003,264.76425125000003,67.0,99.0
1101,264.37948562500003,264.76815750000003,70.0,122.0
1102,264.37948562500003,264.81503250000003,62.0,81.0
1103,264.84823562500003,265.43807937500003,50.0,60.0
1104,265.31698562500003,265.65487625000003,58.0,127.0
1105,265.31698562500003,265.78768875000003,62.0,97.0
1106,264.37948562500003,266.15292312500003,43.0,81.0
1107,265.78573562500003,266.19784500000003,60.0,83.0
1108,265.55136062500003,266.23104812500003,50.0,32.0
1109,265.78573562500003,266.31307937500003,57.0,92.0
1110,266.25448562500003,266.34823562500003,58.0,117.0
1111,266.25448562500003,266.36190750000003,62.0,88.0
1112,267.19198562500003,267.32870437500003,74.0,97.0
1113,266.72323562500003,267.38534500000003,50.0,43.0
1114,267.19198562500003,267.62753250000003,70.0,127.0
1115,266.25448562500003,267.70761062500003,43.0,90.0
1116,267.19198562500003,267.72323562500003,55.0,81.0
1117,267.67831375000003,267.72323562500003,55.0,87.0
1118,267.66073562500003,267.85409500000003,50.0,36.0
1119,267.66073562500003,267.95175125000003,67.0,96.0
1120,267.89511062500003,268.08261062500003,69.0,102.0
1121,267.89315750000003,268.18417312500003,43.0,80.0
1122,268.12948562500003,268.60409500000003,70.0,112.0
1123,268.59823562500003,269.13534500000003,58.0,82.0
1124,269.30136062500003,269.40487625000003,58.0,90.0
1125,268.12948562500003,269.41854812500003,46.0,112.0
1126,269.06698562500003,269.49472000000003,70.0,127.0
1127,269.06698562500003,269.50643875000003,74.0,96.0
1128,269.56307937500003,269.83456375000003,58.0,83.0
1129,269.78573562500003,270.03378250000003,46.0,62.0
1130,270.00448562500003,270.54159500000003,67.0,89.0
1131,270.00448562500003,270.58651687500003,63.0,97.0
1132,270.00448562500003,270.60604812500003,70.0,93.0
1133,270.47323562500003,270.96151687500003,51.0,69.0
1134,270.94198562500003,271.24862625000003,67.0,127.0
1135,271.17636062500003,271.28378250000003,51.0,93.0
1136,270.00448562500003,271.35604812500003,39.0,97.0
1137,270.94198562500003,271.37362625000003,70.0,117.0
1138,271.41073562500003,271.65097000000003,62.0,102.0
1139,271.64511062500003,271.80136062500003,63.0,81.0
1140,271.87948562500003,272.28378250000003,63.0,107.0
1141,271.87948562500003,272.29159500000003,67.0,92.0
1142,271.87948562500003,272.30722000000003,60.0,122.0
1143,272.34823562500003,272.95175125000003,43.0,62.0
1144,272.81698562500003,272.99276687500003,48.0,93.0
1145,272.81698562500003,273.00057937500003,51.0,107.0
1146,271.87948562500003,273.01034500000003,36.0,74.0
1147,272.81698562500003,273.05331375000003,55.0,93.0
1148,273.12753250000003,273.21347000000003,46.0,7.0
1149,273.30722000000003,273.65878250000003,36.0,72.0
1150,273.55722000000003,273.85409500000003,48.0,59.0
1151,273.75448562500003,274.02792312500003,53.0,95.0
1152,273.75448562500003,274.03964187500003,57.0,95.0
1153,273.75448562500003,274.06698562500003,60.0,96.0
1154,274.22323562500003,274.84628250000003,48.0,63.0
1155,273.75448562500003,274.91464187500003,41.0,79.0
1156,274.69198562500003,275.03182937500003,65.0,93.0
1157,274.69198562500003,275.10409500000003,69.0,96.0
1158,274.69198562500003,275.11386062500003,72.0,96.0
1159,275.16854812500003,275.45565750000003,53.0,74.0
1160,275.42636062500003,275.66659500000003,41.0,72.0
1161,275.62948562500003,275.74081375000003,65.0,92.0
1162,275.62948562500003,275.74667312500003,62.0,99.0
1163,275.62948562500003,275.74667312500003,69.0,92.0
1164,276.09823562500003,276.66268875000003,45.0,55.0
1165,275.62948562500003,276.66854812500003,38.0,81.0
1166,276.56698562500003,276.68612625000003,53.0,96.0
1167,276.56698562500003,276.71542312500003,57.0,96.0
1168,276.81503250000003,277.13729812500003,38.0,76.0
1169,277.26425125000003,277.52206375000003,38.0,63.0
1170,277.50448562500003,278.04354812500003,62.0,95.0
1171,277.50448562500003,278.05136062500003,58.0,117.0
1172,277.97323562500003,278.40292312500003,55.0,97.0
1173,278.20761062500003,278.40682937500003,57.0,93.0
1174,277.73886062500003,278.55917312500003,50.0,70.0
1175,278.67636062500003,278.85604812500003,50.0,97.0
1176,277.50448562500003,278.93026687500003,43.0,83.0
1177,278.44198562500003,279.05722000000003,62.0,112.0
1178,278.91073562500003,279.18222000000003,58.0,127.0
1179,279.37948562500003,280.23495437500003,63.0,112.0
1180,279.37948562500003,280.24472000000003,60.0,107.0
1181,279.14511062500003,280.29550125000003,55.0,79.0
1182,279.37948562500003,280.52011062500003,36.0,90.0
1183,280.31698562500003,280.80331375000003,63.0,90.0
1184,280.31698562500003,280.81307937500003,60.0,85.0
1185,280.31698562500003,281.01034500000003,55.0,70.0
1186,281.25448562500003,282.01229812500003,53.0,82.0
1187,281.25448562500003,282.02792312500003,57.0,82.0
1188,281.25448562500003,282.04159500000003,60.0,82.0
1189,281.25448562500003,282.36972000000003,41.0,70.0
1190,282.19198562500003,282.54550125000003,57.0,66.0
1191,282.19198562500003,282.56503250000003,60.0,67.0
1192,282.19198562500003,282.57675125000003,53.0,59.0
1193,284.04354812500003,284.53573562500003,60.0,82.0
1194,284.03964187500003,284.54745437500003,57.0,78.0
1195,284.50448562500003,284.91268875000003,55.0,56.0
1196,283.58456375000003,286.20175125000003,50.0,55.0
1197,283.11972000000003,286.28182937500003,43.0,88.0
1198,284.97323562500003,286.34237625000003,62.0,72.0
1199,284.97128250000003,286.34628250000003,58.0,69.0
1200,284.96737625000003,286.35409500000003,55.0,70.0
1201,286.78378250000003,287.16073562500003,51.0,51.0
1202,286.86386062500003,287.18222000000003,48.0,69.0
1203,286.74667312500003,287.20175125000003,55.0,33.0
1204,287.34432937500003,287.95175125000003,48.0,85.0
1205,286.86581375000003,288.07089187500003,36.0,73.0
1206,287.82089187500003,288.33261062500003,63.0,107.0
1207,287.82675125000003,288.37362625000003,67.0,74.0
1208,288.27206375000003,288.56307937500003,60.0,56.0
1209,288.68026687500003,289.18222000000003,65.0,59.0
1210,288.76815750000003,289.19979812500003,62.0,66.0
1211,288.57284500000003,289.20565750000003,69.0,55.0
1212,289.81893875000003,290.02011062500003,53.0,55.0
1213,290.01620437500003,290.06112625000003,57.0,50.0
1214,290.20565750000003,290.43222000000003,62.0,67.0
1215,290.42245437500003,290.58651687500003,65.0,33.0
1216,290.59628250000003,290.65292312500003,69.0,56.0
1217,290.79940750000003,291.08847000000003,74.0,62.0
1218,291.00839187500003,291.21151687500003,77.0,55.0
1219,291.24472000000003,291.30917312500003,81.0,56.0
1220,289.26815750000003,291.55722000000003,45.0,48.0
1221,288.81893875000003,291.58261062500003,38.0,76.0
1222,289.55722000000003,291.73690750000003,50.0,50.0
1223,291.57089187500003,291.73886062500003,86.0,39.0
1224,292.25253250000003,292.32479812500003,31.0,88.0
1225,293.58651687500003,293.90487625000003,53.0,35.0
1226,293.84042312500003,294.02792312500003,57.0,51.0
1227,294.06893875000003,294.27792312500003,58.0,78.0
1228,294.27206375000003,294.32479812500003,62.0,69.0
1229,294.56698562500003,294.72909500000003,67.0,67.0
1230,294.87167312500003,295.13339187500003,70.0,65.0
1231,295.15682937500003,295.22909500000003,74.0,60.0
1232,295.53182937500003,295.67440750000003,77.0,63.0
1233,295.95565750000003,296.24667312500003,82.0,57.0
1234,296.38534500000003,296.47909500000003,86.0,52.0
1235,292.95761062500003,298.12948562500003,43.0,52.0
1236,293.30722000000003,298.12948562500003,50.0,51.0
1237,294.33261062500003,298.12948562500003,55.0,33.0
1238,297.02401687500003,298.12948562500003,86.0,42.0
1239,297.12948562500003,298.12948562500003,91.0,40.0
1240,297.14120437500003,298.12948562500003,94.0,67.0
