,start,end,pitch,velocity
0,27.84744885,28.248769,57.0,81.0
1,28.26440485,28.670936949999998,59.0,65.0
2,28.681360849999997,29.09831685,62.0,74.0
3,29.09831685,29.4058219,66.0,88.0
4,29.51527285,30.555925533333333,69.0,95.0
5,31.18309685,31.35335388333333,71.0,89.0
6,31.391574849999998,32.0222208,73.0,93.0
7,32.433964849999995,32.80227598333333,71.0,95.0
8,32.85092085,33.04550031666666,66.0,81.0
9,33.05939885,34.20950248333333,66.0,76.0
10,34.51874485,34.6386197,71.0,99.0
11,34.72722285,35.19977298333333,73.0,99.0
12,35.352656849999995,35.60630508333333,71.0,96.0
13,35.76961285,36.03368498333333,71.0,86.0
14,36.18656885,36.528820233333334,69.0,83.0
15,36.60352485,36.992683783333334,71.0,95.0
16,37.02048085,37.48608171666667,69.0,83.0
17,37.64591485,37.887401866666664,66.0,83.0
18,37.854392849999996,38.0680828,64.0,77.0
19,38.271348849999995,39.9965043,64.0,85.0
20,41.190040849999995,41.57746246666667,57.0,68.0
21,41.606996849999994,41.97530798333333,59.0,71.0
22,42.02395285,42.36967886666667,62.0,92.0
23,42.44090885,42.79184681666666,66.0,93.0
24,42.85786485,43.55626615,69.0,96.0
25,44.525688849999995,44.88010145,71.0,97.0
26,44.94264485,45.10074066666667,73.0,83.0
27,45.15112285,45.93117803333333,74.0,95.0
28,46.61046885,46.8450066,69.0,93.0
29,46.818946849999996,47.3557777,71.0,89.0
30,48.27829285,48.366896,71.0,96.0
31,47.444380849999995,48.39469306666666,69.0,86.0
32,48.48677085,48.585797899999996,71.0,83.0
33,48.69524885,49.0652973,71.0,95.0
34,49.32068285,49.5343728,73.0,100.0
35,49.52916085,49.864462966666665,71.0,83.0
36,49.946116849999996,50.22582483333333,69.0,100.0
37,50.363072849999995,50.573288166666664,66.0,100.0
38,50.571550849999994,50.76613031666666,64.0,66.0
39,50.780028849999994,51.11185633333333,62.0,90.0
40,51.19698485,53.01248076666666,64.0,99.0
41,53.698720849999994,54.53610748333333,59.0,92.0
42,54.53263285,56.947503016666666,62.0,99.0
43,57.86828085,58.13930225,64.0,99.0
44,58.28523685,58.38252658333333,64.0,81.0
45,58.493714849999996,58.58579263333333,64.0,61.0
46,58.702192849999996,58.92456938333333,64.0,83.0
47,59.119148849999995,59.353686599999996,64.0,96.0
48,59.95306085,60.28836296666666,62.0,93.0
49,60.37001685,60.63756361666666,64.0,88.0
50,60.78697285,61.30121858333333,71.0,117.0
51,61.620884849999996,61.98919598333333,69.0,96.0
52,62.037840849999995,63.29913275,66.0,95.0
53,64.53957685,64.79843703333333,71.0,107.0
54,64.95653285,65.05382258333333,71.0,96.0
55,65.16501085,65.57154295,71.0,112.0
56,65.79044485,66.24735913333333,71.0,112.0
57,66.62435685,66.97703213333332,69.0,93.0
58,67.04131285,67.30364766666666,71.0,93.0
59,67.45826885,68.2140016,74.0,117.0
60,68.29218085,68.92977606666666,71.0,112.0
61,69.54304884999999,71.06320093333333,69.0,112.0
62,74.54652085,74.93567978333333,74.0,107.0
63,74.96347684999999,75.0625039,76.0,99.0
64,75.17195484999999,75.76437983333332,76.0,102.0
65,75.79738884999999,76.06667293333332,74.0,102.0
66,76.21434484999999,76.63825011666667,74.0,107.0
67,76.63130085,76.75291301666667,76.0,127.0
68,76.83977885,77.44610236666666,76.0,117.0
69,77.46521285,77.85784641666666,74.0,112.0
70,78.29912485,78.64137623333333,74.0,112.0
71,78.71608085,78.95756786666666,76.0,127.0
72,79.13303685,79.40232093333333,78.0,127.0
73,79.54999285,80.54894993333333,78.0,127.0
74,81.21781684999999,81.73553721666666,76.0,122.0
75,81.84325084999999,82.24804563333333,74.0,112.0
76,82.46868484999999,82.73275698333333,71.0,107.0
77,82.88564085,83.46764193333333,76.0,127.0
78,83.51107485,83.97667571666666,74.0,102.0
79,84.13650885,84.59168581666667,71.0,99.0
80,84.97042085,85.85297771666666,69.0,107.0
81,86.01281085,86.16569471666666,71.0,93.0
82,86.11704985,86.25256055,69.0,88.0
83,86.22128885,86.87625723333333,66.0,107.0
84,87.05520084999999,87.83699335,64.0,102.0
85,87.88911284999999,88.26089861666667,74.0,112.0
86,88.30606884999999,88.42246906666666,76.0,99.0
87,88.51454684999999,89.05137769999999,76.0,96.0
88,89.13998085,89.37104396666666,74.0,102.0
89,89.55693685,89.98257943333333,74.0,102.0
90,89.97389285,90.0833438,76.0,107.0
91,90.18237085,90.62364928333332,76.0,122.0
92,90.80780485,91.16048013333332,74.0,107.0
93,91.64171685,91.98918018333333,74.0,107.0
94,92.05867285,92.35575399999999,76.0,122.0
95,92.47562884999999,92.97250141666666,81.0,127.0
96,93.30954084999999,94.16256333333332,78.0,127.0
97,94.56040884999999,95.13372335,76.0,117.0
98,95.18584285,95.73483491666666,74.0,117.0
99,95.81127685,96.24560601666666,71.0,100.0
100,96.22823285,96.6712486,76.0,117.0
101,96.85366685,97.33316624999999,78.0,127.0
102,97.47910085,97.91690464999999,74.0,100.0
103,97.89605685,98.38945478333332,76.0,97.0
104,98.31301284999999,100.70529789999999,74.0,89.0
105,127.91688884999999,128.318209,57.0,81.0
106,128.33384485,128.74037694999998,59.0,65.0
107,128.75080085,129.16775685,62.0,74.0
108,129.16775685,129.4752619,66.0,88.0
109,129.58471285,130.62536553333334,69.0,95.0
110,131.25253684999998,131.42279388333333,71.0,89.0
111,131.46101485,132.0916608,73.0,93.0
112,132.50340484999998,132.87171598333333,71.0,95.0
113,132.92036084999998,133.11494031666666,66.0,81.0
114,133.12883885,134.27894248333334,66.0,76.0
115,134.58818485,134.70805969999998,71.0,99.0
116,134.79666285,135.26921298333332,73.0,99.0
117,135.42209685,135.67574508333334,71.0,96.0
118,135.83905285,136.10312498333332,71.0,86.0
119,136.25600885,136.59826023333332,69.0,83.0
120,136.67296485,137.06212378333333,71.0,95.0
121,137.08992085,137.55552171666665,69.0,83.0
122,137.71535484999998,137.95684186666665,66.0,83.0
123,137.92383285,138.1375228,64.0,77.0
124,138.34078885,140.06594429999998,64.0,85.0
125,141.25948085,141.64690246666666,57.0,68.0
126,141.67643685,142.04474798333334,59.0,71.0
127,142.09339285,142.43911886666666,62.0,92.0
128,142.51034884999999,142.86128681666665,66.0,93.0
129,142.92730484999998,143.62570614999998,69.0,96.0
130,144.59512884999998,144.94954145,71.0,97.0
131,145.01208484999998,145.17018066666665,73.0,83.0
132,145.22056285,146.00061803333332,74.0,95.0
133,146.67990885,146.9144466,69.0,93.0
134,146.88838685,147.4252177,71.0,89.0
135,148.34773285,148.43633599999998,71.0,96.0
136,147.51382085,148.46413306666665,69.0,86.0
137,148.55621084999999,148.6552379,71.0,83.0
138,148.76468885,149.13473729999998,71.0,95.0
139,149.39012284999998,149.6038128,73.0,100.0
140,149.59860085,149.93390296666666,71.0,83.0
141,150.01555685,150.29526483333333,69.0,100.0
142,150.43251285,150.64272816666667,66.0,100.0
143,150.64099084999998,150.83557031666666,64.0,66.0
144,150.84946885,151.18129633333334,62.0,90.0
145,151.26642485,153.08192076666666,64.0,99.0
146,153.76816085,154.6055474833333,59.0,92.0
147,154.60207284999998,157.01694301666666,62.0,99.0
148,157.93772084999998,158.20874225,64.0,99.0
149,158.35467685,158.45196658333333,64.0,81.0
150,158.56315485,158.65523263333333,64.0,61.0
151,158.77163285,158.99400938333332,64.0,83.0
152,159.18858885,159.4231266,64.0,96.0
153,160.02250085,160.35780296666667,62.0,93.0
154,160.43945685,160.70700361666667,64.0,88.0
155,160.85641285,161.37065858333332,71.0,117.0
156,161.69032485,162.05863598333332,69.0,96.0
157,162.10728085,163.36857275,66.0,95.0
158,164.60901685,164.86787703333331,71.0,107.0
159,165.02597285,165.12326258333331,71.0,96.0
160,165.23445085,165.64098295,71.0,112.0
161,165.85988485,166.31679913333332,71.0,112.0
162,166.69379684999998,167.0464721333333,69.0,93.0
163,167.11075284999998,167.37308766666666,71.0,93.0
164,167.52770884999998,168.2834416,74.0,117.0
165,168.36162084999998,168.99921606666666,71.0,112.0
166,169.61248884999998,171.13264093333333,69.0,112.0
167,174.61596085,175.00511978333333,74.0,107.0
168,175.03291685,175.13194389999998,76.0,99.0
169,175.24139484999998,175.83381983333334,76.0,102.0
170,175.86682885,176.13611293333332,74.0,102.0
171,176.28378485,176.70769011666667,74.0,107.0
172,176.70074085,176.82235301666665,76.0,127.0
173,176.90921885,177.51554236666666,76.0,117.0
174,177.53465285,177.92728641666665,74.0,112.0
175,178.36856484999998,178.71081623333333,74.0,112.0
176,178.78552084999998,179.02700786666665,76.0,127.0
177,179.20247684999998,179.47176093333331,78.0,127.0
178,179.61943284999998,180.61838993333333,78.0,127.0
179,181.28725684999998,181.80497721666666,76.0,122.0
180,181.91269085,182.31748563333332,74.0,112.0
181,182.53812485,182.80219698333332,71.0,107.0
182,182.95508085,183.53708193333333,76.0,127.0
183,183.58051485,184.04611571666666,74.0,102.0
184,184.20594885,184.66112581666667,71.0,99.0
185,185.03986085,185.92241771666664,69.0,107.0
186,186.08225084999998,186.23513471666666,71.0,93.0
187,186.18648985,186.32200054999998,69.0,88.0
188,186.29072885,186.94569723333333,66.0,107.0
189,187.12464085,187.90643335,64.0,102.0
190,187.95855285,188.33033861666667,74.0,112.0
191,188.37550885,188.49190906666666,76.0,99.0
192,188.58398685,189.12081769999998,76.0,96.0
193,189.20942085,189.44048396666665,74.0,102.0
194,189.62637684999999,190.05201943333333,74.0,102.0
195,190.04333284999998,190.15278379999998,76.0,107.0
196,190.25181085,190.69308928333334,76.0,122.0
197,190.87724484999998,191.2299201333333,74.0,107.0
198,191.71115684999998,192.05862018333332,74.0,107.0
199,192.12811284999998,192.42519399999998,76.0,122.0
200,192.54506884999998,193.04194141666665,81.0,127.0
201,193.37898084999998,194.23200333333332,78.0,127.0
202,194.62984885,195.20316334999998,76.0,117.0
203,195.25528285,195.80427491666666,74.0,117.0
204,195.88071685,196.31504601666666,71.0,100.0
205,196.29767285,196.7406886,76.0,117.0
206,196.92310684999998,197.40260625,78.0,127.0
207,197.54854085,197.98634464999998,74.0,100.0
208,197.96549685,198.45889478333333,76.0,97.0
209,198.38245285,200.7747379,74.0,89.0
210,201.30114485,201.69030378333332,74.0,107.0
211,201.71810084999998,201.81712789999997,76.0,99.0
212,201.92657885,202.51900383333333,76.0,102.0
213,202.55201284999998,202.82129693333331,74.0,102.0
214,202.96896884999998,203.39287411666666,74.0,107.0
215,203.38592484999998,203.50753701666665,76.0,127.0
216,203.59440285,204.20072636666666,76.0,117.0
217,204.21983684999998,204.61247041666667,74.0,112.0
218,205.05374884999998,205.39600023333333,74.0,112.0
219,205.47070484999998,205.71219186666664,76.0,127.0
220,205.88766084999997,206.15694493333334,78.0,127.0
221,206.30461685,207.30357393333333,78.0,127.0
222,207.97244085,208.49016121666665,76.0,122.0
223,208.59787484999998,209.0026696333333,74.0,112.0
224,209.22330885,209.4873809833333,71.0,107.0
225,209.64026485,210.22226593333332,76.0,127.0
226,210.26569884999998,210.73129971666665,74.0,102.0
227,210.89113285,211.34630981666666,71.0,99.0
228,211.72504485,212.60760171666666,69.0,107.0
229,212.76743485,212.92031871666666,71.0,93.0
230,212.87167384999998,213.00718454999998,69.0,88.0
231,212.97591285,213.63088123333333,66.0,107.0
232,213.80982484999998,214.59161734999998,64.0,102.0
233,214.64373684999998,215.01552261666666,74.0,112.0
234,215.06069284999998,215.17709306666666,76.0,99.0
235,215.26917085,215.8060017,76.0,96.0
236,215.89460484999998,216.12566796666664,74.0,102.0
237,216.31156084999998,216.73720343333332,74.0,102.0
238,216.72851684999998,216.8379678,76.0,107.0
239,216.93699485,217.37827328333333,76.0,122.0
240,217.56242884999998,217.91510413333333,74.0,107.0
241,218.39634085,218.7438041833333,74.0,107.0
242,218.81329685,219.110378,76.0,122.0
243,219.23025285,219.72712541666667,81.0,127.0
244,220.06416485,220.91718733333332,78.0,127.0
245,221.31503285,221.88834734999998,76.0,117.0
246,221.94046684999998,222.48945891666665,74.0,117.0
247,222.56590085,223.00023001666665,71.0,100.0
248,222.98285685,223.4258726,76.0,117.0
249,223.60829084999997,224.08779024999998,78.0,127.0
250,224.23372485,224.67152865,74.0,100.0
251,224.65068085,225.14407878333333,76.0,97.0
252,225.06763684999999,227.45992189999998,74.0,89.0
253,227.98632884999998,228.33552949999998,57.0,85.0
254,228.40328484999998,228.7733333,59.0,88.0
255,228.82024084999998,229.25630733333333,62.0,88.0
256,229.23719684999998,229.61593188333333,66.0,93.0
257,229.65415284999997,230.7434504,69.0,100.0
258,231.32197685,231.54956533333333,71.0,93.0
259,231.53045484999998,232.1385156833333,73.0,83.0
260,232.15588885,232.53809851666665,71.0,92.0
261,232.57284485,232.92378281666666,66.0,68.0
262,232.98980085,234.2493554333333,66.0,77.0
263,234.65762485,235.02246135,71.0,96.0
264,235.07458085,235.53323244999999,73.0,92.0
265,235.49153685,235.91544211666664,71.0,97.0
266,236.11697084999997,236.37930566666665,71.0,92.0
267,236.32544885,236.75804069999998,69.0,99.0
268,236.74240484999999,237.17499669999998,71.0,95.0
269,237.15936084999998,237.7153021833333,69.0,86.0
270,237.6214870833333,237.91509359999998,66.0,96.0
271,237.87860995,238.08013868333333,64.0,68.0
272,238.17395378333333,240.37860863333333,64.0,93.0
273,241.18472356666666,242.35393768333333,59.0,74.0
274,242.30181818333332,245.61661838333333,62.0,93.0
