,start,end,pitch,velocity
0,26.743647397916668,26.859718764583334,58.0,111.0
1,27.011504397916667,27.136504331250002,60.0,105.0
2,27.279361397916666,27.40659347291667,65.0,100.0
3,27.54721839791667,27.663289764583336,65.0,92.0
4,27.81507539791667,27.960164606250004,65.0,89.0
5,28.082932397916668,28.194539481250004,63.0,76.0
6,28.35078939791667,28.486950039583334,65.0,89.0
7,28.61864639791667,29.116413989583336,63.0,102.0
8,29.42221739791667,29.558378039583335,65.0,108.0
9,29.690074397916668,29.806145764583334,65.0,102.0
10,29.957931397916667,30.09185989791667,65.0,108.0
11,30.225788397916666,30.402127589583337,67.0,109.0
12,30.49364539791667,30.870877339583338,65.0,117.0
13,31.029359397916668,31.181145031250004,63.0,111.0
14,31.29721639791667,31.728019739583335,60.0,114.0
15,31.83293039791667,33.690072264583335,63.0,97.0
16,35.31507139791667,35.42444633958334,58.0,111.0
17,35.58292839791667,35.70123190625,60.0,108.0
18,35.85078539791667,36.20346378125,65.0,105.0
19,36.386499397916666,36.52935646458334,65.0,100.0
20,36.65435639791667,36.77712418958333,63.0,92.0
21,36.922213397916664,37.27935606458334,65.0,102.0
22,37.45792739791667,37.83739148125,63.0,97.0
23,37.99364139791667,38.094087772916666,65.0,102.0
24,38.26149839791667,38.384266189583336,65.0,105.0
25,38.52935539791667,38.69006959791667,65.0,111.0
26,38.79721239791667,38.966855164583336,67.0,109.0
27,39.06506939791667,39.44676562291667,65.0,64.0
28,39.60078339791667,39.77935473125,63.0,102.0
29,39.868640397916664,40.301675881250006,60.0,108.0
30,40.40435439791667,42.28604982291667,67.0,105.0
31,43.88649539791667,44.036048889583334,67.0,102.0
32,44.15435239791667,44.270423764583335,70.0,105.0
33,44.422209397916674,44.58069145625,72.0,84.0
34,44.69006639791667,44.79720919791667,72.0,105.0
35,44.95792339791667,45.07399476458333,72.0,97.0
36,45.225780397916665,45.337387481250005,72.0,102.0
37,45.49363739791667,45.87086933958334,72.0,111.0
38,46.02935139791667,46.219083439583336,72.0,108.0
39,46.56506539791667,46.91327949791667,75.0,105.0
40,47.10077939791667,47.279350731250005,75.0,102.0
41,47.368636397916674,47.50926132291667,72.0,108.0
42,47.63649339791667,48.040511039583336,72.0,117.0
43,48.172207397916665,48.37756443125001,70.0,111.0
44,48.707921397916664,49.12979617291667,72.0,105.0
45,49.24363539791667,49.78827796458334,70.0,114.0
46,50.315063397916674,50.75479530625,65.0,105.0
47,50.850777397916666,52.09408030625,67.0,99.0
48,52.45791939791667,52.647651439583335,58.0,92.0
49,52.72577639791667,52.87756203125,60.0,105.0
50,52.99363339791667,53.172204731250005,65.0,51.0
51,53.26149039791667,53.39541889791667,65.0,97.0
52,53.529347397916666,53.674436606250005,65.0,105.0
53,53.79720439791667,53.960150739583334,63.0,89.0
54,54.06506139791667,54.41327549791667,65.0,102.0
55,54.60077539791667,55.01595374791667,63.0,100.0
56,55.13648939791667,55.27041789791667,65.0,108.0
57,55.40434639791667,55.52264990625,65.0,102.0
58,55.67220339791667,55.80613189791667,65.0,102.0
59,55.94006039791667,56.06952461458334,67.0,100.0
60,56.20791739791667,56.56952434791667,65.0,111.0
61,56.74363139791667,57.13202404791667,67.0,102.0
62,57.27934539791667,57.754791572916666,65.0,108.0
63,57.81505939791667,58.98693377291667,63.0,111.0
64,60.22577239791667,60.393183022916666,65.0,108.0
65,60.49362939791667,60.85077206458334,67.0,112.0
66,61.02934339791667,61.41550390625,70.0,105.0
67,61.413271764583335,62.87086027291667,72.0,108.0
68,63.43335997291667,63.75478837291667,67.0,109.0
69,63.953448981250006,65.14987691458333,70.0,102.0
70,65.58291239791667,65.75032302291666,70.0,111.0
71,65.85076939791668,66.15880494791668,72.0,108.0
72,66.38648339791666,66.52041189791666,72.0,105.0
73,66.65434039791667,66.78603675625001,72.0,108.0
74,66.92219739791668,67.25032222291668,70.0,111.0
75,67.45791139791666,67.63425058958333,67.0,99.0
76,67.72576839791667,68.12755389791667,65.0,108.0
77,68.26148239791667,68.87978563958333,67.0,105.0
78,69.06505339791667,69.47353532291666,67.0,112.0
79,69.60076739791667,69.96907077291667,70.0,111.0
80,70.13648139791667,71.57844491458334,72.0,105.0
81,71.74362339791668,72.16549817291667,74.0,105.0
82,72.27933739791666,72.80165854791667,72.0,111.0
83,72.81505139791668,73.57397956458334,70.0,108.0
84,74.15433639791667,74.32174702291667,70.0,97.0
85,74.42219339791667,74.81951461458334,72.0,114.0
86,74.95790739791667,75.09183589791667,72.0,102.0
87,75.22576439791666,75.35076433125,72.0,105.0
88,75.49362139791667,75.85076406458333,72.0,114.0
89,76.02933539791667,76.16103175625,70.0,111.0
90,76.29719239791666,76.75031715625,72.0,111.0
91,76.83290639791667,78.67111983125,70.0,117.0
92,80.0869743375,80.20046108125,70.0,111.0
93,80.2843425875,80.36693180833333,72.0,114.0
94,80.52987815,80.88255653333333,79.0,116.0
95,81.06559215,81.20398493333333,77.0,108.0
96,81.33344914999999,81.52318119166667,75.0,100.0
97,81.60130615,81.94059168333332,72.0,111.0
98,82.13702015,82.58121634166666,67.0,105.0
99,82.67273415,84.07005483333333,70.0,102.0
100,84.27987614999999,84.420501075,70.0,117.0
101,84.54773315,84.66603665833333,72.0,108.0
102,84.81559014999999,85.17496495833333,79.0,112.0
103,85.35130415,85.48746479166667,77.0,102.0
104,85.61916115,85.73523251666666,75.0,102.0
105,85.88701815,86.22407154166666,72.0,114.0
106,86.42273215,86.82005336666667,67.0,109.0
107,86.95844615,88.18612406666666,70.0,105.0
108,88.56558815,88.68389165833332,70.0,111.0
109,88.83344515,88.96514150833333,72.0,111.0
110,89.10130215,89.46737338333332,79.0,109.0
111,89.63701615,89.79549820833333,77.0,100.0
112,89.90487315,90.03656950833333,75.0,111.0
113,90.17273014999999,90.56335494166666,75.0,114.0
114,90.70844414999999,90.86246192499999,72.0,111.0
115,90.97630115,91.12808678333333,70.0,108.0
116,91.24415815,91.6057651,79.0,109.0
117,91.77987215,91.94951491666666,77.0,102.0
118,92.04772915,92.18388979166666,75.0,92.0
119,92.31558615,92.71290736666667,75.0,114.0
120,92.85130015,93.005317925,72.0,94.0
121,93.11915714999999,93.29772848333333,70.0,114.0
122,93.38701415,93.768710375,79.0,109.0
123,93.92272815,94.04996022499999,77.0,108.0
124,94.19058515,94.32674579166667,75.0,100.0
125,94.45844215,94.91826333333333,75.0,108.0
126,94.99415615,95.25754886666667,72.0,114.0
127,95.26201315,96.39147683333333,77.0,105.0
128,97.13701215,97.24638709166666,70.0,111.0
129,97.40486915,97.49638695833333,72.0,111.0
130,97.67272614999999,98.01201168333333,79.0,116.0
131,98.20844015,98.335672225,77.0,100.0
132,98.47629715,98.62138635833333,75.0,100.0
133,98.74415415,99.112457525,72.0,117.0
134,99.27986815,99.65933223333333,67.0,105.0
135,99.81558215,101.23075996666667,70.0,105.0
136,101.42272415,101.53209909166667,70.0,114.0
137,101.69058115,101.79995609166667,72.0,111.0
138,101.95843814999999,102.33790223333332,79.0,109.0
139,102.49415214999999,102.63031279166667,77.0,100.0
140,102.76200915,102.91156264166666,75.0,87.0
141,103.02986615,103.4718302,72.0,105.0
142,103.56558015,103.98299064166666,67.0,109.0
143,104.10129415,105.53209695833333,70.0,108.0
144,105.70843615,105.82450751666667,70.0,114.0
145,105.97629315,106.08120380833333,72.0,111.0
146,106.24415015,106.639239225,79.0,112.0
147,106.77986415,106.91379265,77.0,100.0
148,107.04772115,107.17048894166666,75.0,108.0
149,107.31557815,107.697274375,75.0,111.0
150,107.85129215,107.99414921666667,72.0,114.0
151,108.11914915,108.22629194999999,70.0,111.0
152,108.38700614999999,108.741916675,79.0,105.0
153,108.92272015,109.08566649166667,77.0,92.0
154,109.19057715,109.331202075,75.0,92.0
155,109.45843415,109.86245179166667,75.0,114.0
156,109.99414815,110.11691594166666,72.0,108.0
157,110.26200515,110.469594325,70.0,111.0
158,110.52986215,110.95620120833333,79.0,105.0
159,111.06557615,111.206201075,77.0,102.0
160,111.33343314999999,111.46512950833333,75.0,105.0
161,111.60129015,112.023164925,75.0,108.0
162,112.13700415,112.52316465833333,77.0,108.0
163,112.67271815,115.54771661666666,75.0,111.0
164,137.85127615,137.96734751666668,58.0,111.0
165,138.11913314999998,138.24413308333334,60.0,105.0
166,138.38699015,138.514222225,65.0,100.0
167,138.65484715,138.77091851666665,65.0,92.0
168,138.92270415000002,139.06779335833335,65.0,89.0
169,139.19056115,139.30216823333333,63.0,76.0
170,139.45841815,139.59457879166666,65.0,89.0
171,139.72627515,140.22404274166666,63.0,102.0
172,140.52984615,140.66600679166666,65.0,108.0
173,140.79770315,140.91377451666665,65.0,102.0
174,141.06556015,141.19948865,65.0,108.0
175,141.33341715,141.50975634166667,67.0,109.0
176,141.60127415,141.97850609166667,65.0,117.0
177,142.13698815,142.28877378333334,63.0,111.0
178,142.40484515,142.83564849166666,60.0,114.0
179,142.94055915,144.79770101666668,63.0,97.0
180,146.42270015,146.53207509166668,58.0,111.0
181,146.69055715000002,146.80886065833334,60.0,108.0
182,146.95841415,147.31109253333335,65.0,105.0
183,147.49412815,147.63698521666666,65.0,100.0
184,147.76198515,147.88475294166665,63.0,92.0
185,148.02984214999998,148.38698481666665,65.0,102.0
186,148.56555615,148.94502023333334,63.0,97.0
187,149.10127015,149.201716525,65.0,102.0
188,149.36912715,149.49189494166666,65.0,105.0
189,149.63698415,149.79769835000002,65.0,111.0
190,149.90484114999998,150.07448391666668,67.0,109.0
191,150.17269815,150.55439437500002,65.0,64.0
192,150.70841215000002,150.88698348333332,63.0,102.0
193,150.97626915,151.40930463333333,60.0,108.0
194,151.51198315,153.393678575,67.0,105.0
195,154.99412415,155.14367764166667,67.0,102.0
196,155.26198115,155.37805251666668,70.0,105.0
197,155.52983815,155.68832020833332,72.0,84.0
198,155.79769514999998,155.90483795,72.0,105.0
199,156.06555215,156.18162351666666,72.0,97.0
200,156.33340915,156.44501623333332,72.0,102.0
201,156.60126615000001,156.97849809166667,72.0,111.0
202,157.13698015,157.32671219166667,72.0,108.0
203,157.67269414999998,158.02090825,75.0,105.0
204,158.20840815,158.38697948333333,75.0,102.0
205,158.47626515000002,158.61689007500001,72.0,108.0
206,158.74412215,159.14813979166667,72.0,117.0
207,159.27983615,159.48519318333334,70.0,111.0
208,159.81555014999998,160.237424925,72.0,105.0
209,160.35126415000002,160.89590671666667,70.0,114.0
210,161.42269215,161.86242405833332,65.0,105.0
211,161.95840615,163.20170905833334,67.0,99.0
212,163.56554814999998,163.75528019166666,58.0,92.0
213,163.83340515,163.98519078333334,60.0,105.0
214,164.10126215,164.27983348333333,65.0,51.0
215,164.36911915000002,164.50304764999998,65.0,97.0
216,164.63697615,164.78206535833334,65.0,105.0
217,164.90483315,165.06777949166667,63.0,89.0
218,165.17269015,165.52090425,65.0,102.0
219,165.70840414999998,166.1235825,63.0,100.0
220,166.24411815000002,166.37804665,65.0,108.0
221,166.51197515,166.63027865833334,65.0,102.0
222,166.77983215,166.91376065,65.0,102.0
223,167.04768915,167.1771533666667,67.0,100.0
224,167.31554615,167.6771531,65.0,111.0
225,167.85126015,168.2396528,67.0,102.0
226,168.38697415000001,168.86242032500002,65.0,108.0
227,168.92268815,170.09456252500001,63.0,111.0
228,171.33340115,171.500811775,65.0,108.0
229,171.60125814999998,171.95840081666665,67.0,112.0
230,172.13697215000002,172.52313265833334,70.0,105.0
231,172.38697201666668,173.84456052500002,72.0,108.0
232,174.53652444166667,174.94500636666666,67.0,109.0
233,175.07447058333332,176.01197008333332,70.0,102.0
234,176.69054115,176.857951775,70.0,111.0
235,176.95839815,177.2664337,72.0,108.0
236,177.49411215,177.62804065,72.0,105.0
237,177.76196915,177.89366550833333,72.0,108.0
238,178.02982615000002,178.357950975,70.0,111.0
239,178.56554015,178.74187934166667,67.0,99.0
240,178.83339715,179.23518265,65.0,108.0
241,179.36911114999998,179.98741439166668,67.0,105.0
242,180.17268215,180.581164075,67.0,112.0
243,180.70839615,181.07669952499998,70.0,111.0
244,181.24411014999998,182.6860736666667,72.0,105.0
245,182.85125215,183.27312692499999,74.0,105.0
246,183.38696615,183.90928730000002,72.0,111.0
247,183.92268015000002,184.68160831666665,70.0,108.0
248,185.26196514999998,185.42937577499998,70.0,97.0
249,185.52982215,185.92714336666666,72.0,114.0
250,186.06553615,186.19946464999998,72.0,102.0
251,186.33339315,186.45839308333333,72.0,105.0
252,186.60125015,186.95839281666667,72.0,114.0
253,187.13696414999998,187.26866050833334,70.0,111.0
254,187.40482115,187.85794590833333,72.0,111.0
255,187.94053515000002,188.94276675833333,70.0,117.0
256,189.27982015,189.433837925,70.0,111.0
257,189.54767715,189.65258780833335,72.0,114.0
258,189.81553415000002,190.16821253333333,79.0,116.0
259,190.35124815,190.48964093333333,77.0,108.0
260,190.61910515,190.80883719166667,75.0,100.0
261,190.88696215,191.22624768333333,72.0,111.0
262,191.42267615,191.86687234166666,67.0,105.0
263,191.95839015,193.35571083333332,70.0,102.0
264,193.56553215,193.70615707500002,70.0,117.0
265,193.83338915000002,193.95169265833334,72.0,108.0
266,194.10124615,194.46062095833332,79.0,112.0
267,194.63696015,194.77312079166666,77.0,102.0
268,194.90481714999999,195.02088851666667,75.0,102.0
269,195.17267415,195.50972754166668,72.0,114.0
270,195.70838815000002,196.10570936666667,67.0,109.0
271,196.24410215,197.47178006666667,70.0,105.0
272,197.85124415,197.96954765833334,70.0,111.0
273,198.11910115,198.25079750833333,72.0,111.0
274,198.38695815,198.75302938333334,79.0,109.0
275,198.92267214999998,199.08115420833332,77.0,100.0
276,199.19052915,199.32222550833333,75.0,111.0
277,199.45838615,199.84901094166668,75.0,114.0
278,199.99410015,200.148117925,72.0,111.0
279,200.26195715,200.41374278333333,70.0,108.0
280,200.52981415,200.8914211,79.0,109.0
281,201.06552815,201.23517091666668,77.0,102.0
282,201.33338515,201.46954579166666,75.0,92.0
283,201.60124215000002,201.99856336666667,75.0,114.0
284,202.13695615,202.290973925,72.0,94.0
285,202.40481315,202.58338448333333,70.0,114.0
286,202.67267015,203.054366375,79.0,109.0
287,203.20838415,203.335616225,77.0,108.0
288,203.47624115000002,203.61240179166668,75.0,100.0
289,203.74409815,204.20391933333332,75.0,108.0
290,204.27981215,204.54320486666666,72.0,114.0
291,204.54766915,205.67713283333333,77.0,105.0
292,206.42266815,206.53204309166665,70.0,111.0
293,206.69052514999998,206.78204295833334,72.0,111.0
294,206.95838215,207.29766768333332,79.0,116.0
295,207.49409615000002,207.621328225,77.0,100.0
296,207.76195315,207.90704235833334,75.0,100.0
297,208.02981015,208.398113525,72.0,117.0
298,208.56552415,208.94498823333333,67.0,105.0
299,209.10123815,210.51641596666667,70.0,105.0
300,210.70838015,210.81775509166667,70.0,114.0
301,210.97623715,211.08561209166666,72.0,111.0
302,211.24409415,211.62355823333334,79.0,109.0
303,211.77980815,211.91596879166667,77.0,100.0
304,212.04766515,212.19721864166667,75.0,87.0
305,212.31552215,212.7574862,72.0,105.0
306,212.85123615,213.26864664166666,67.0,109.0
307,213.38695015,214.81775295833333,70.0,108.0
308,214.99409215,215.11016351666666,70.0,114.0
309,215.26194915,215.36685980833334,72.0,111.0
310,215.52980615,215.924895225,79.0,112.0
311,216.06552015,216.19944865,77.0,100.0
312,216.33337715,216.45614494166668,75.0,108.0
313,216.60123415,216.982930375,75.0,111.0
314,217.13694815,217.27980521666666,72.0,114.0
315,217.40480515,217.51194795,70.0,111.0
316,217.67266215,218.027572675,79.0,105.0
317,218.20837615,218.37132249166666,77.0,92.0
318,218.47623315,218.616858075,75.0,92.0
319,218.74409015,219.14810779166666,75.0,114.0
320,219.27980415,219.40257194166668,72.0,108.0
321,219.54766115,219.755250325,70.0,111.0
322,219.81551815,220.24185720833333,79.0,105.0
323,220.35123215,220.491857075,77.0,102.0
324,220.61908915,220.75078550833334,75.0,105.0
325,220.88694615,221.308820925,75.0,108.0
326,221.42266015,221.80882065833333,77.0,108.0
327,221.95837415,223.29319486666668,75.0,111.0
328,223.56551615,223.719533925,71.0,111.0
329,223.83337315,223.93828380833332,73.0,114.0
330,224.10123015,224.45390853333333,80.0,116.0
331,224.63694415,224.77533693333334,78.0,108.0
332,224.90480115,225.09453319166667,76.0,100.0
333,225.17265815,225.51194368333333,73.0,111.0
334,225.70837215,226.15256834166667,68.0,105.0
335,226.24408615000002,227.64140683333332,71.0,102.0
336,227.85122815,227.991853075,71.0,117.0
337,228.11908515,228.23738865833334,73.0,108.0
338,228.38694215,228.74631695833332,80.0,112.0
339,228.92265615,229.05881679166666,78.0,102.0
340,229.19051315000002,229.30658451666667,76.0,102.0
341,229.45837015,229.79542354166668,73.0,114.0
342,229.99408415,230.39140536666667,68.0,109.0
343,230.52979815,231.75747606666667,71.0,105.0
344,232.13694015000002,232.25524365833334,71.0,111.0
345,232.40479715,232.53649350833334,73.0,111.0
346,232.67265415,233.03872538333334,80.0,109.0
347,233.20836815,233.36685020833335,78.0,100.0
348,233.47622515,233.60792150833333,76.0,111.0
349,233.74408215,234.13470694166668,76.0,114.0
350,234.27979615,234.433813925,73.0,111.0
351,234.54765315,234.69943878333333,71.0,108.0
352,234.81551015,235.1771171,80.0,109.0
353,235.35122415,235.52086691666668,78.0,102.0
354,235.61908115,235.75524179166666,76.0,92.0
355,235.88693815,236.28425936666667,76.0,114.0
356,236.42265215,236.576669925,73.0,94.0
357,236.69050915,236.86908048333333,71.0,114.0
358,236.95836615,237.340062375,80.0,109.0
359,237.49408015,237.621312225,78.0,108.0
360,237.76193715,237.89809779166666,76.0,100.0
361,238.02979415000001,238.48961533333335,76.0,108.0
362,238.56550815,238.82890086666666,73.0,114.0
363,238.83336515,239.96282883333333,78.0,105.0
364,240.70836415,240.81773909166668,71.0,111.0
365,240.97622115000001,241.06773895833334,73.0,111.0
366,241.24407815,241.58336368333335,80.0,116.0
367,241.77979215,241.90702422500001,78.0,100.0
368,242.04764915,242.19273835833334,76.0,100.0
369,242.31550615,242.68380952500002,73.0,117.0
370,242.85122015,243.23068423333333,68.0,105.0
371,243.38693415,244.80211196666667,71.0,105.0
372,244.99407615,245.10345109166667,71.0,114.0
373,245.26193315,245.37130809166666,73.0,111.0
374,245.52979015,245.90925423333334,80.0,109.0
375,246.06550415,246.20166479166667,78.0,100.0
376,246.33336115,246.48291464166667,76.0,87.0
377,246.60121815,247.0431822,73.0,105.0
378,247.13693215,247.55434264166666,68.0,109.0
379,247.67264615,249.10344895833333,71.0,108.0
380,249.27978815,249.39585951666666,71.0,114.0
381,249.54764515,249.65255580833335,73.0,111.0
382,249.81550215000001,250.210591225,80.0,112.0
383,250.35121615,250.48514465,78.0,100.0
384,250.61907315,250.74184094166668,76.0,108.0
385,250.88693015,251.27061052500002,76.0,111.0
386,251.43033273125002,251.57848086458336,73.0,114.0
387,251.70811048125,251.81922158125002,71.0,111.0
388,251.98588823125002,252.35394375,80.0,105.0
389,252.54144373125,252.71042519583335,78.0,92.0
390,252.81922148125003,252.96505480000002,76.0,92.0
391,253.09699923125,253.51598067083336,76.0,114.0
392,253.65255473125,253.77986953333334,73.0,108.0
393,253.93033248125002,254.14561023750002,71.0,111.0
394,254.20811023125,254.6518994666667,80.0,105.0
395,254.76746545625002,254.91605030000002,78.0,102.0
396,255.05048420625002,255.1896350916667,76.0,105.0
397,255.33350295625002,255.77925748750002,76.0,108.0
398,255.89954045625004,256.30520066458337,78.0,108.0
399,256.4645734312501,257.81642476875004,76.0,111.0
400,258.09990676041673,258.2740138104167,71.0,102.0
401,258.36553161875,258.4838351270834,73.0,105.0
402,258.6445493270834,259.00169199375006,80.0,105.0
403,259.1512454854167,259.35883466041673,78.0,89.0
404,259.3878525020834,259.52401314375004,76.0,78.0
405,259.68472734375007,260.06419142708336,76.0,108.0
406,260.1735663687501,260.3052627270834,73.0,94.0
407,260.4436555104167,260.5999054270834,71.0,105.0
408,260.7405303520834,261.0954408770834,80.0,109.0
409,261.2673157854167,261.42802998541674,78.0,89.0
410,261.53294064375007,261.65347629375003,76.0,102.0
411,261.82535120208337,262.1914224354167,76.0,114.0
412,262.39008304375005,262.5217794020834,73.0,84.0
413,262.65794004375005,262.84543994375,71.0,105.0
414,262.9637434520834,263.3365111104167,80.0,109.0
415,263.46820746875005,263.62222524375005,78.0,92.0
416,263.7204394770834,263.84990369375004,76.0,102.0
417,264.03740359375007,264.4090965312501,76.0,111.0
418,264.60817058541676,264.98379376666674,78.0,105.0
419,265.18331297083336,266.4958127958334,76.0,111.0
420,266.81312044583336,266.95494735000005,71.0,92.0
421,267.0679281041667,267.171293475,73.0,105.0
422,267.36600498750005,267.7516101208334,80.0,112.0
423,267.9450424437501,268.1542259812501,78.0,89.0
424,268.2026953375001,268.33534831250006,76.0,76.0
425,268.50626656875005,269.0215723562501,76.0,92.0
426,269.17463348125005,269.51902101250005,73.0,92.0
427,269.5164699937501,269.83024530000006,71.0,100.0
428,269.73075556875006,270.1822858875001,80.0,102.0
429,270.3583061812501,270.5649387000001,78.0,84.0
430,270.64752168541673,270.8411490395834,76.0,92.0
431,271.0220803729167,271.4127626166667,76.0,105.0
432,271.58557952291676,271.73717517916674,73.0,82.0
433,271.8699224645834,272.0669030791667,71.0,84.0
434,272.2307919270834,272.60301405625006,80.0,93.0
435,272.7585695729167,272.93634730625007,78.0,92.0
436,273.0391250583334,273.2085694604167,76.0,97.0
437,273.4141249645834,274.5057913583334,76.0,111.0
438,274.80301350625007,277.38401827916675,78.0,105.0
439,277.86374752916674,281.16761639166674,76.0,97.0
