,start,end,pitch,velocity
0,1.252272622916667,1.5681816875000003,62.0,87.0
1,0.9795453729166669,1.5999998666666668,58.0,69.0
2,1.524999872916667,2.152272547916667,63.0,84.0
3,2.070454372916667,2.431817979166667,70.0,73.0
4,2.343181622916667,2.6886361395833336,62.0,72.0
5,0.7068181229166668,2.731817954166667,51.0,97.0
6,1.797727122916667,2.7749997687500003,58.0,64.0
7,2.615908872916667,2.9659088437500003,63.0,78.0
8,2.888636122916667,3.534090614583334,70.0,82.0
9,3.4340906229166674,3.774999685416667,62.0,43.0
10,3.161363372916667,3.7977269562500005,58.0,76.0
11,3.7068178729166674,4.338636002083334,63.0,78.0
12,4.252272372916668,4.6545450666666675,70.0,73.0
13,4.524999622916668,4.8295450520833345,62.0,70.0
14,2.888636122916667,4.945454133333334,51.0,94.0
15,3.9795451229166674,4.968181404166668,58.0,62.0
16,4.797726872916668,5.034090489583334,63.0,82.0
17,5.343181372916668,5.972726775000001,55.0,52.0
18,5.615908622916668,6.474999460416668,62.0,68.0
19,5.888635872916668,6.520454002083334,63.0,80.0
20,6.434090372916668,7.036363050000001,70.0,87.0
21,5.070454122916668,7.074999410416668,48.0,94.0
22,6.161363122916668,7.227272125000002,55.0,70.0
23,6.706817622916668,7.302272118750001,62.0,72.0
24,6.979544872916668,7.377272112500001,63.0,89.0
25,7.252272122916668,8.068181145833334,70.0,97.0
26,7.5249993729166675,8.215908406250001,55.0,42.0
27,7.797726622916668,8.649999279166668,62.0,65.0
28,8.070453872916667,8.895453804166667,63.0,87.0
29,8.343181122916668,8.999999250000002,55.0,46.0
30,7.252272122916668,9.202271960416669,48.0,87.0
31,8.888635622916668,9.247726502083335,62.0,59.0
32,8.615908372916667,9.388635581250002,70.0,87.0
33,9.161362872916667,9.495453754166668,63.0,92.0
34,9.434090122916668,9.495453754166668,63.0,84.0
35,9.70681737291667,10.318180958333334,51.0,71.0
36,9.979544622916668,10.749999104166669,56.0,82.0
37,10.252271872916669,10.863635458333334,60.0,102.0
38,9.434090122916668,11.331817237500001,44.0,97.0
39,10.524999122916668,11.472726316666668,51.0,73.0
40,11.070453622916668,11.565908127083336,56.0,76.0
41,10.797726372916669,11.718180841666669,63.0,92.0
42,11.343180872916669,11.820453560416668,60.0,53.0
43,11.888635372916669,12.206817164583335,63.0,24.0
44,12.161362622916668,13.015908006250003,55.0,82.0
45,12.979544372916669,13.347726160416668,58.0,80.0
46,12.434089872916669,13.381817066666668,62.0,79.0
47,11.888635372916669,13.49772614791667,50.0,70.0
48,11.615908122916668,13.511362510416669,43.0,99.0
49,13.25227162291667,13.60681704791667,55.0,96.0
50,13.524998872916669,13.77727157916667,62.0,57.0
51,13.79772612291667,14.443180614583335,56.0,87.0
52,14.070453372916669,14.734089681250003,48.0,73.0
53,14.34318062291667,15.224998731250002,53.0,84.0
54,14.88863512291667,15.364182220833335,48.0,64.0
55,14.615907872916669,15.380385922916668,60.0,94.0
56,13.79772612291667,18.182858822916668,41.0,100.0
57,15.436028822916668,18.403096852083333,48.0,76.0
58,15.161362372916669,18.425538920833333,56.0,82.0
59,15.71721322291667,18.4608305625,53.0,78.0
60,18.70793739791667,19.074008631250003,65.0,66.0
61,18.70793739791667,19.332937064583334,68.0,78.0
62,18.70793739791667,19.48918698125,53.0,97.0
63,18.97579439791667,19.67222259791667,60.0,67.0
64,19.24365139791667,19.79275824791667,65.0,71.0
65,19.511508397916668,19.83740108125,68.0,71.0
66,20.31507939791667,20.667757781250003,67.0,96.0
67,20.04722239791667,20.90882908125,58.0,42.0
68,19.779365397916667,20.940079064583337,55.0,97.0
69,20.58293639791667,20.96909690625,70.0,84.0
70,20.850793397916668,21.07623970625,63.0,67.0
71,20.850793397916668,21.48025734791667,68.0,80.0
72,20.850793397916668,21.669989389583336,56.0,82.0
73,21.386507397916667,21.669989389583336,63.0,92.0
74,21.65436439791667,22.078471314583336,72.0,84.0
75,21.92222139791667,22.49588180625,58.0,105.0
76,22.19007839791667,22.518203222916668,65.0,82.0
77,22.457935397916668,22.794988789583336,70.0,89.0
78,23.52936339791667,23.830702522916667,63.0,57.0
79,23.26150639791667,23.841863231250002,58.0,49.0
80,22.99364939791667,24.41105935625,51.0,97.0
81,24.065077397916667,24.435612914583334,58.0,73.0
82,23.797220397916668,24.455702189583334,65.0,89.0
83,24.332934397916667,24.65213065625,67.0,112.0
84,24.60079139791667,24.77489844791667,70.0,82.0
85,24.86864839791667,27.080700789583336,60.0,88.0
86,25.136505397916668,27.109718631250004,65.0,92.0
87,24.984719764583335,27.120879339583333,63.0,96.0
88,25.136505397916668,27.16329003125,46.0,105.0
89,27.279361397916666,28.14989664791667,65.0,76.0
90,27.279361397916666,28.154360931250004,68.0,82.0
91,27.81507539791667,28.460164339583336,60.0,50.0
92,28.35078939791667,28.627574964583335,65.0,87.0
93,27.279361397916666,28.77266417291667,53.0,102.0
94,28.61864639791667,28.861949839583335,60.0,58.0
95,28.35078939791667,28.915521239583335,68.0,97.0
96,28.88650339791667,29.536056622916668,65.0,64.0
97,29.690074397916668,30.33962762291667,53.0,69.0
98,29.957931397916667,30.70123457291667,58.0,62.0
99,30.49364539791667,30.924448739583333,50.0,15.0
100,29.42221739791667,30.986948706250004,46.0,97.0
101,30.225788397916666,31.051680814583335,62.0,99.0
102,30.76150239791667,31.116412922916666,53.0,64.0
103,31.029359397916668,31.339627089583335,65.0,82.0
104,31.29721639791667,31.397662772916668,58.0,82.0
105,31.56507339791667,32.42444793958333,67.0,105.0
106,32.10078739791667,32.45569792291667,63.0,62.0
107,31.83293039791667,32.68114423125,58.0,67.0
108,32.36864439791667,33.196768956250004,65.0,102.0
109,32.63650139791667,33.49141165625,55.0,16.0
110,31.56507339791667,33.50703664791667,51.0,94.0
111,33.440072397916666,33.60748302291667,63.0,34.0
112,32.90435839791667,33.68560798125,58.0,78.0
113,33.70792939791667,33.99364353125,63.0,24.0
114,33.172215397916666,34.54275038125,67.0,105.0
115,33.70792939791667,34.56060751458334,70.0,87.0
116,34.24364339791667,34.589625356250004,63.0,48.0
117,33.975786397916664,34.79944667291667,58.0,73.0
118,34.51150039791667,35.339624956250006,65.0,92.0
119,33.70792939791667,35.47578559791667,51.0,84.0
120,34.77935739791667,35.47578559791667,55.0,22.0
121,35.31507139791667,35.64989264791667,67.0,99.0
122,35.58292839791667,35.690071197916666,63.0,60.0
123,35.04721439791667,35.70123190625,58.0,97.0
124,35.85078539791667,36.28605302291667,65.0,80.0
125,35.85078539791667,36.81953488125001,68.0,84.0
126,36.386499397916666,37.51373093958334,65.0,57.0
127,36.11864239791667,37.560605914583334,60.0,60.0
128,35.85078539791667,37.58515947291667,53.0,105.0
129,36.65435639791667,38.183373439583335,72.0,94.0
130,37.72578439791667,38.18560558125,65.0,78.0
131,38.26149839791667,38.95123017291667,53.0,76.0
132,39.06506939791667,39.524890581250006,50.0,18.0
133,37.99364139791667,39.549444139583336,46.0,100.0
134,38.52935539791667,39.55390842291667,58.0,82.0
135,38.79721239791667,39.616408389583334,62.0,109.0
136,39.332926397916665,39.64989051458333,53.0,94.0
137,39.60078339791667,39.90881894791667,65.0,97.0
138,39.868640397916664,39.94006893125,58.0,67.0
139,40.13649739791667,40.46239008125001,63.0,67.0
140,40.13649739791667,40.716854231250004,67.0,96.0
141,40.67221139791667,40.99363979791667,63.0,76.0
142,40.40435439791667,41.08069332291667,58.0,51.0
143,40.94006839791667,41.53828236458334,65.0,105.0
144,41.20792539791667,41.614175181250005,58.0,37.0
145,41.74363939791667,41.92444287291667,58.0,38.0
146,40.13649739791667,42.08515707291667,51.0,97.0
147,42.01149639791667,42.12979990625,63.0,38.0
148,41.47578239791667,42.163282031250006,67.0,112.0
149,42.279353397916665,42.587388947916665,63.0,73.0
150,42.279353397916665,42.92890662291667,67.0,40.0
151,42.815067397916664,43.10747795625,63.0,46.0
152,42.279353397916665,43.10747795625,70.0,87.0
153,42.54721039791667,43.17667434791667,58.0,76.0
154,43.35078139791667,43.76372760625,55.0,9.0
155,43.08292439791667,43.79720973125001,65.0,89.0
156,42.279353397916665,43.888727539583336,51.0,97.0
157,43.61863839791667,43.89542396458334,58.0,89.0
158,43.88649539791667,44.16774524791667,67.0,102.0
159,44.15435239791667,44.24810234791667,63.0,47.0
160,44.422209397916674,45.15658400625,56.0,84.0
161,44.69006639791667,45.373101747916664,51.0,62.0
162,44.422209397916674,45.86640505625,60.0,92.0
163,44.422209397916674,46.40211905625,44.0,94.0
164,45.225780397916665,46.41997618958334,63.0,84.0
165,46.02935139791667,46.44229760625,56.0,64.0
166,45.49363739791667,46.446761889583335,51.0,62.0
167,45.761494397916664,46.68560104791667,68.0,94.0
168,46.56506539791667,47.43560064791667,60.0,67.0
169,46.56506539791667,47.46238634791667,56.0,58.0
170,47.10077939791667,47.75033262291667,51.0,22.0
171,47.63649339791667,47.94899323125,56.0,82.0
172,46.56506539791667,48.10301100625,44.0,78.0
173,47.63649339791667,48.19229667291667,60.0,94.0
174,47.63649339791667,48.219082372916674,63.0,84.0
175,47.90435039791667,48.234707364583336,51.0,67.0
176,48.172207397916665,48.35077873125,56.0,82.0
177,48.707921397916664,49.044974789583335,55.0,50.0
178,48.707921397916664,49.596313781250004,58.0,94.0
179,48.97577839791667,49.661045889583335,50.0,22.0
180,49.24363539791667,50.123099214583334,55.0,59.0
181,48.707921397916664,50.24140272291667,43.0,90.0
182,49.77934939791667,50.24586700625,50.0,39.0
183,49.51149239791667,50.36640265625,62.0,96.0
184,50.315063397916674,50.45122403958334,55.0,85.0
185,50.04720639791667,50.573991831250005,67.0,99.0
186,51.38649139791667,52.015955347916666,55.0,68.0
187,50.850777397916666,52.04497318958334,60.0,71.0
188,50.850777397916666,52.21684809791667,63.0,84.0
189,52.19006239791667,52.40658013958333,55.0,54.0
190,50.850777397916666,52.703454981250005,48.0,87.0
191,51.92220539791667,52.75702638125,67.0,99.0
192,52.45791939791667,52.81282992291667,60.0,78.0
193,52.72577639791667,52.946758422916666,63.0,76.0
194,52.99363339791667,53.33291893125,60.0,80.0
195,53.26149039791667,54.20345418125,56.0,37.0
196,53.529347397916666,54.38648979791667,60.0,73.0
197,52.99363339791667,54.48247188958334,65.0,82.0
198,54.33291839791667,54.73916818125,56.0,53.0
199,52.99363339791667,54.857471689583335,53.0,89.0
200,54.60077539791667,54.95568592291667,60.0,89.0
201,53.79720439791667,55.187828656250005,68.0,100.0
202,54.86863239791667,55.75925692291667,65.0,67.0
203,55.40434639791667,56.24809594791667,53.0,73.0
204,55.67220339791667,56.475774397916666,58.0,82.0
205,55.13648939791667,56.774881381250005,46.0,105.0
206,55.94006039791667,56.80389922291667,62.0,109.0
207,56.20791739791667,56.808363506250004,50.0,16.0
208,56.475774397916666,56.848542056250004,53.0,84.0
209,56.74363139791667,56.92220273125,58.0,100.0
210,57.27934539791667,57.92889862291667,67.0,61.0
211,57.27934539791667,58.20568418958334,63.0,80.0
212,57.81505939791667,58.368630531250005,58.0,76.0
213,58.08291639791667,59.01595161458334,65.0,105.0
214,57.27934539791667,59.19898723125,51.0,100.0
215,58.61863039791667,59.23916578125,58.0,92.0
216,58.35077339791667,59.28604075625,55.0,22.0
217,59.15434439791667,59.350772864583334,63.0,62.0
218,59.422201397916666,60.14764743958334,70.0,87.0
219,59.422201397916666,60.22130811458334,63.0,76.0
220,58.88648739791667,60.27934379791667,67.0,112.0
221,59.95791539791667,60.75925425625,58.0,33.0
222,59.422201397916666,60.82845064791667,51.0,102.0
223,60.49362939791667,60.926664881250005,55.0,85.0
224,60.49362939791667,61.00255769791667,63.0,92.0
225,60.49362939791667,61.11862906458334,67.0,102.0
226,61.02934339791667,61.22353972291667,58.0,78.0
227,61.56505739791667,61.92666434791667,60.0,89.0
228,61.56505739791667,62.14764637291667,63.0,87.0
229,61.83291439791667,62.406574806250006,55.0,93.0
230,62.10077139791667,62.935592381250004,60.0,87.0
231,62.63648539791667,62.99139592291667,55.0,46.0
232,61.56505739791667,63.08291373125,48.0,97.0
233,62.90434239791667,63.22130651458334,63.0,92.0
234,62.36862839791667,63.24362793125,67.0,102.0
235,63.17219939791667,63.35746715625,60.0,100.0
236,63.70791339791667,64.03603822291667,58.0,73.0
237,63.70791339791667,64.54719866458333,62.0,99.0
238,63.97577039791667,64.61862719791667,50.0,48.0
239,63.70791339791667,65.00925198958333,43.0,87.0
240,64.77934139791667,65.08737694791667,50.0,65.0
241,64.24362739791667,65.09853765625,58.0,80.0
242,65.04719839791667,65.40210892291667,62.0,102.0
243,64.51148439791666,65.57844811458334,67.0,105.0
244,65.58291239791667,65.69451948125001,62.0,93.0
245,65.31505539791667,65.70121590625001,58.0,73.0
246,65.85076939791668,66.16996565625,56.0,94.0
247,65.85076939791668,66.35523341458334,60.0,100.0
248,65.85076939791668,66.51148333125,44.0,100.0
249,66.11862639791667,66.61416184791668,51.0,80.0
250,66.38648339791666,66.69005466458333,56.0,89.0
251,66.65434039791667,66.89764383958334,60.0,97.0
252,66.92219739791668,67.51148279791667,58.0,87.0
253,66.92219739791668,67.54719706458334,62.0,82.0
254,66.92219739791668,67.83067905625,46.0,100.0
255,67.45791139791666,67.83737548125,53.0,66.0
256,67.99362539791667,68.26817882291667,58.0,92.0
257,67.99362539791667,68.83514280625,63.0,89.0
258,68.52933939791667,68.85746422291666,58.0,34.0
259,67.99362539791667,68.91549990625,51.0,84.0
260,69.33291039791666,69.66996378958333,58.0,82.0
261,68.79719639791668,69.75924945625,67.0,105.0
262,69.60076739791667,69.98246362291667,63.0,97.0
263,69.06505339791667,70.00701718125,51.0,69.0
264,70.13648139791667,70.73023108125,60.0,89.0
265,70.67219539791667,71.03603448958333,55.0,59.0
266,70.13648139791667,71.27487364791668,63.0,94.0
267,70.94005239791667,71.55612349791667,60.0,89.0
268,71.20790939791667,71.61192703958334,55.0,79.0
269,70.13648139791667,71.64987344791666,48.0,92.0
270,71.47576639791667,71.99808754791667,67.0,105.0
271,71.74362339791668,72.03826609791668,60.0,80.0
272,72.27933739791666,72.58290866458333,58.0,67.0
273,72.27933739791666,72.84853352291667,62.0,50.0
274,72.54719439791667,73.16326549791667,50.0,20.0
275,72.27933739791666,73.55389028958334,43.0,93.0
276,73.35076539791666,73.64317595625,50.0,70.0
277,72.81505139791668,73.66772951458333,58.0,82.0
278,73.08290839791667,73.70121163958333,67.0,109.0
279,73.61862239791667,73.91326509791668,62.0,109.0
280,73.88647939791667,74.31951488125,58.0,100.0
281,74.42219339791667,74.76147893125,56.0,92.0
282,74.42219339791667,75.02933593125,60.0,89.0
283,74.69005039791668,75.32397863125,51.0,80.0
284,74.95790739791667,75.60076419791667,56.0,76.0
285,75.22576439791666,75.83513907291666,63.0,100.0
286,75.49362139791667,75.87085333958333,51.0,82.0
287,74.42219339791667,76.10299607291667,44.0,97.0
288,75.76147839791668,76.32397809791667,60.0,108.0
289,76.02933539791667,76.39987091458335,51.0,89.0
290,76.29719239791666,76.41772804791667,56.0,92.0
291,76.56504939791667,76.84629924791668,58.0,102.0
292,76.56504939791667,77.15656693958334,62.0,102.0
293,77.10076339791667,77.27040616458333,58.0,84.0
294,76.83290639791667,77.45344178125,53.0,71.0
295,77.36862039791667,77.69451308125,58.0,84.0
296,77.36862039791667,77.75478090625,62.0,72.0
297,77.63647739791668,77.98022721458334,53.0,80.0
298,77.36862039791667,78.17219139791666,65.0,102.0
299,76.56504939791667,78.25031635625001,46.0,102.0
300,78.17219139791666,78.50611983125,53.0,78.0
301,77.90433439791667,78.56361983125,70.0,97.0
302,78.44111983125,78.57111983125,65.0,1.0
303,78.44111983125,78.64361983125,58.0,92.0
304,78.74111983125,80.01131650833334,70.0,97.0
305,78.74111983125,80.04256648125,65.0,97.0
306,78.74111983125,80.0475006875,62.0,96.0
307,78.74111983125,80.07546118958334,58.0,89.0
308,78.74111983125,80.10506642708333,46.0,102.0
309,78.74111983125,80.10506642708333,53.0,94.0
310,80.79773515,81.48300264166666,51.0,57.0
311,80.52987815,81.68389539166667,56.0,73.0
312,80.52987815,81.94059168333332,60.0,82.0
313,81.60130615,82.009788075,51.0,62.0
314,81.06559215,82.21291296666666,63.0,87.0
315,81.86916314999999,82.2307701,56.0,84.0
316,81.33344914999999,82.25978794166666,68.0,100.0
317,80.52987815,82.27987721666666,44.0,102.0
318,82.13702015,82.39371644166667,51.0,80.0
319,82.67273415,83.77317999166667,55.0,90.0
320,82.94059115,83.84014424166666,50.0,44.0
321,82.67273415,83.92050134166666,58.0,105.0
322,83.47630515,84.11023338333332,62.0,46.0
323,82.67273415,84.34237611666666,43.0,87.0
324,84.27987614999999,84.36916181666666,62.0,2.0
325,84.01201915,84.3736261,50.0,85.0
326,84.27987614999999,84.61916168333333,55.0,109.0
327,84.54773315,84.71960805833334,58.0,84.0
328,83.74416215,84.835679425,67.0,102.0
329,85.08344715,85.94951811666667,60.0,67.0
330,85.35130415,86.2218394,65.0,111.0
331,85.61916115,86.30442864166666,68.0,111.0
332,85.88701815,86.36469646666666,56.0,57.0
333,84.81559014999999,86.37808931666666,53.0,108.0
334,86.15487515,86.436125,60.0,89.0
335,86.42273215,86.61246419166666,65.0,105.0
336,86.95844615,87.2664817,63.0,92.0
337,86.95844615,87.51648156666667,67.0,93.0
338,87.49416015,87.82451711666667,63.0,84.0
339,87.22630314999999,87.982999175,58.0,69.0
340,86.95844615,88.34683826666667,51.0,105.0
341,88.02987415,88.451748925,55.0,102.0
342,88.29773115,88.52094531666667,58.0,111.0
343,87.76201714999999,88.57451671666666,65.0,114.0
344,88.56558815,88.84237371666666,67.0,119.0
345,88.83344515,88.94282009166666,63.0,87.0
346,89.10130215,89.4361234,56.0,97.0
347,89.10130215,89.82674819166667,60.0,105.0
348,89.63701615,89.93835527499999,56.0,84.0
349,89.10130215,89.95398026666666,44.0,100.0
350,89.36915915,89.9718374,51.0,69.0
351,90.17273014999999,90.68612273333333,58.0,100.0
352,90.17273014999999,90.70844414999999,55.0,90.0
353,90.17273014999999,90.7754084,43.0,102.0
354,90.70844414999999,90.83344408333333,50.0,48.0
355,91.24415815,91.625854375,65.0,76.0
356,91.24415815,91.81112213333333,68.0,78.0
357,91.24415815,92.01871130833334,53.0,108.0
358,91.77987215,92.20621120833333,65.0,80.0
359,91.51201515,92.35130041666666,60.0,82.0
360,92.04772915,92.86915728333332,68.0,78.0
361,92.31558615,92.99415721666666,51.0,102.0
362,92.58344315,93.13031785833333,60.0,82.0
363,93.11915714999999,93.40263914166667,68.0,69.0
364,92.85130015,93.42719269999999,63.0,114.0
365,93.65487114999999,94.39371004166667,51.0,73.0
366,93.92272815,94.55665638333333,56.0,114.0
367,93.38701415,94.70844201666667,44.0,92.0
368,94.19058515,95.07897753333333,60.0,105.0
369,94.99415615,95.31558455,56.0,97.0
370,94.45844215,95.39817379166666,51.0,62.0
371,95.26201315,95.48745945833333,60.0,92.0
372,95.52987015,95.79772715,58.0,100.0
373,95.52987015,96.06558414999999,62.0,79.0
374,96.06558414999999,96.20174479166667,58.0,102.0
375,95.79772715,96.41603039166667,53.0,84.0
376,96.33344115,96.95844081666667,65.0,97.0
377,96.33344115,96.96067295833333,58.0,111.0
378,96.60129814999999,96.97406580833334,53.0,111.0
379,95.52987015,97.24415495,46.0,102.0
380,97.13701215,97.51870837499999,53.0,111.0
381,97.40486915,97.652636875,58.0,108.0
382,96.86915515,97.68388685833332,70.0,100.0
383,97.94058315,98.62585064166666,51.0,57.0
384,97.67272614999999,98.82674339166667,56.0,73.0
385,97.67272614999999,99.08343968333332,60.0,82.0
386,98.74415415,99.152636075,51.0,62.0
387,98.20844015,99.35576096666667,63.0,87.0
388,99.01201114999999,99.3736181,56.0,84.0
389,98.47629715,99.40263594166666,68.0,100.0
390,97.67272614999999,99.42272521666666,44.0,102.0
391,99.27986815,99.53656444166666,51.0,80.0
392,99.81558215,100.91602799166667,55.0,90.0
393,100.08343915,100.98299224166666,50.0,44.0
394,99.81558215,101.06334934166667,58.0,105.0
395,100.61915315,101.25308138333332,62.0,46.0
396,99.81558215,101.48522411666667,43.0,87.0
397,101.42272415,101.51200981666666,62.0,2.0
398,101.15486715,101.5164741,50.0,85.0
399,101.42272415,101.76200968333333,55.0,109.0
400,101.69058115,101.86245605833332,58.0,84.0
401,100.88701015,101.978527425,67.0,102.0
402,102.22629515,103.09236611666667,60.0,67.0
403,102.49415214999999,103.3646874,65.0,111.0
404,102.76200915,103.44727664166666,68.0,111.0
405,103.02986615,103.50754446666667,56.0,57.0
406,101.95843814999999,103.52093731666666,53.0,108.0
407,103.29772315,103.57897299999999,60.0,89.0
408,103.56558015,103.75531219166666,65.0,105.0
409,104.10129415,104.4093297,63.0,92.0
410,104.10129415,104.65932956666666,67.0,93.0
411,104.63700815,104.96736511666666,63.0,84.0
412,104.36915115,105.12584717499999,58.0,69.0
413,104.10129415,105.48968626666667,51.0,105.0
414,105.17272215,105.59459692499999,55.0,102.0
415,105.44057914999999,105.66379331666667,58.0,111.0
416,104.90486515,105.71736471666667,65.0,114.0
417,105.70843615,105.98522171666667,67.0,119.0
418,105.97629315,106.08566809166666,63.0,87.0
419,106.24415015,106.5789714,56.0,97.0
420,106.24415015,106.96959619166667,60.0,105.0
421,106.77986415,107.081203275,56.0,84.0
422,106.24415015,107.09682826666666,44.0,100.0
423,106.51200715,107.1146854,51.0,69.0
424,107.31557815,107.82897073333334,58.0,100.0
425,107.31557815,107.85129215,55.0,90.0
426,107.31557815,107.91825639999999,43.0,102.0
427,107.85129215,107.97629208333333,50.0,48.0
428,108.38700614999999,108.71289883333333,53.0,69.0
429,108.38700614999999,108.9628987,56.0,87.0
430,108.38700614999999,109.00530939166666,41.0,97.0
431,108.65486315,109.15709502499999,48.0,57.0
432,108.92272015,109.23298784166667,53.0,69.0
433,109.19057715,109.35129135,56.0,92.0
434,109.45843415,109.83120180833333,55.0,87.0
435,109.45843415,110.05888025833333,58.0,102.0
436,109.45843415,110.44727290833333,43.0,90.0
437,109.72629115,110.469594325,50.0,50.0
438,109.99414815,110.48745145833334,55.0,105.0
439,110.26200515,110.48745145833334,58.0,82.0
440,110.52986215,110.96289763333333,56.0,82.0
441,110.52986215,111.14816539166667,60.0,97.0
442,110.79771915,111.33789743333332,51.0,76.0
443,110.52986215,111.366915275,44.0,105.0
444,111.06557615,111.366915275,56.0,84.0
445,111.33343314999999,111.514236625,60.0,92.0
446,111.60129015,111.90039713333333,58.0,87.0
447,111.60129015,112.15932556666667,62.0,90.0
448,112.13700415,112.35798617500001,58.0,94.0
449,111.86914715,112.46066469166666,53.0,71.0
450,111.60129015,112.47628968333333,46.0,105.0
451,112.67271815,112.96736085,58.0,97.0
452,113.20843215,113.7307533,58.0,62.0
453,112.67271815,113.76869970833333,63.0,92.0
454,113.74414615,114.18387805833333,67.0,105.0
455,114.01200315,114.32896726666667,58.0,60.0
456,112.67271815,114.63253853333333,51.0,97.0
457,114.54771715,114.72852062499999,58.0,47.0
458,114.27986014999999,114.75084204166666,65.0,89.0
459,114.81557415,116.91155517499999,58.0,78.0
460,114.81557415,116.94280515833333,51.0,76.0
461,114.81557415,116.94280515833333,63.0,78.0
462,116.95843015,117.286554975,56.0,64.0
463,116.95843015,117.55664411666666,60.0,82.0
464,117.49414415,117.90039393333333,56.0,73.0
465,117.76200115,118.32673299166666,58.0,108.0
466,117.22628714999999,118.44726864166667,51.0,60.0
467,116.95843015,118.491911475,44.0,80.0
468,118.29771514999999,118.54771501666667,60.0,97.0
469,119.10128614999999,119.41155384166666,58.0,66.0
470,119.10128614999999,120.00530352499999,62.0,55.0
471,119.36914315,120.03655350833333,50.0,38.0
472,119.63700015,120.22405340833333,58.0,71.0
473,120.17271414999999,120.393696175,50.0,30.0
474,119.10128614999999,120.40485688333334,43.0,70.0
475,119.90485715,120.50530325833333,67.0,105.0
476,120.44057115,120.73074956666667,62.0,105.0
477,120.70842815,120.88476734166667,58.0,73.0
478,121.51199915000001,122.31557015,60.0,73.0
479,121.77985615,122.79994489166666,63.0,92.0
480,121.24414214999999,122.938337675,53.0,100.0
481,122.04771314999999,123.27315892499999,68.0,80.0
482,123.11914114999999,123.48521238333333,63.0,92.0
483,123.92271215,124.27092625,63.0,87.0
484,123.65485515,124.545479675,58.0,51.0
485,123.38699815,124.706193875,51.0,100.0
486,124.19056914999999,124.76422955833334,65.0,114.0
487,124.72628315,125.52092558333334,67.0,116.0
488,124.45842615000001,125.53878271666667,55.0,102.0
489,124.99414014999999,125.58342555,58.0,105.0
490,125.26199715,125.59012197499999,63.0,87.0
491,125.52985415,125.59012197499999,63.0,94.0
492,125.52985415,125.87806825,59.0,72.0
493,125.79771115,126.54101432499999,54.0,45.0
494,125.52985415,126.96065695833333,47.0,109.0
495,126.06556814999999,127.183871125,59.0,90.0
496,126.33342515,127.48744239166666,66.0,102.0
497,127.13699615,127.686103,54.0,64.0
498,127.40485315000001,128.014227825,59.0,102.0
499,126.33342515,128.014227825,63.0,108.0
500,128.20842414999998,128.375834775,59.0,99.0
501,127.94056714999999,128.61244179166667,54.0,84.0
502,127.67271015,128.857977375,47.0,87.0
503,128.47628115,129.30217356666668,59.0,96.0
504,128.47628115,129.35574496666666,63.0,100.0
505,128.47628115,129.393691375,66.0,105.0
506,129.27985215,129.51199488333333,54.0,87.0
507,129.54770915,129.674941225,59.0,96.0
508,129.81556615,130.45842295,61.0,89.0
509,129.81556615,130.478512225,65.0,94.0
510,130.61913715,130.76199421666666,61.0,82.0
511,130.35128015,131.01199408333332,56.0,67.0
512,130.88699415,131.23967253333333,68.0,105.0
513,130.88699415,131.24413681666667,61.0,111.0
514,131.42270815,131.53431523333333,61.0,62.0
515,131.42270815,131.53431523333333,65.0,82.0
516,129.81556615,131.59458305833334,49.0,108.0
517,131.15485115,131.60574376666665,56.0,66.0
518,131.69056515,132.06779709166665,65.0,108.0
519,131.69056515,132.0789578,61.0,94.0
520,131.69056515,132.10351135833332,73.0,111.0
521,132.22627914999998,132.57449325,61.0,105.0
522,132.22627914999998,132.59681466666666,65.0,117.0
523,132.22627914999998,132.634761075,68.0,108.0
524,132.76199315,132.902618075,61.0,73.0
525,132.49413615,133.02761800833332,56.0,51.0
526,131.69056515,133.10127868333333,49.0,108.0
527,133.02985015000002,133.40261780833333,61.0,111.0
528,133.02985015000002,133.43609993333334,65.0,108.0
529,133.29770715,133.48520704999999,56.0,78.0
530,133.56556415,133.6593141,49.0,100.0
531,134.10127814999998,135.058866925,63.0,100.0
532,134.10127814999998,135.10350975833333,67.0,105.0
533,135.17270615,135.46511670833334,63.0,100.0
534,135.17270615,135.82672365833332,67.0,77.0
535,134.10127814999998,136.02538426666666,51.0,97.0
536,135.44056315,136.03877711666667,58.0,50.0
537,135.70842015,136.13922349166666,63.0,80.0
538,136.24413415,137.07002656666666,63.0,71.0
539,136.24413415,137.10574083333333,67.0,50.0
540,136.24413415,137.107972975,70.0,84.0
541,136.24413415,137.442794225,58.0,89.0
542,136.24413415,137.47181206666667,51.0,87.0
543,137.31556215,138.30663305,63.0,57.0
544,137.85127615,138.3200259,51.0,33.0
545,137.31556215,138.3200259,67.0,40.0
546,137.31556215,138.33118660833333,70.0,66.0
547,137.85127615,138.35574016666666,58.0,29.0
548,138.38699015,139.2575254,65.0,76.0
549,138.38699015,139.26198968333333,68.0,82.0
550,138.92270415000002,139.56779309166666,60.0,50.0
551,139.45841815,139.73520371666666,65.0,87.0
552,138.38699015,139.880292925,53.0,102.0
553,139.72627515,139.96957859166668,60.0,58.0
554,139.45841815,140.02314999166666,68.0,97.0
555,139.99413214999998,140.643685375,65.0,64.0
556,140.79770315,141.447256375,53.0,69.0
557,141.06556015,141.808863325,58.0,62.0
558,141.60127415,142.03207749166666,50.0,15.0
559,140.52984615,142.09457745833333,46.0,97.0
560,141.33341715,142.15930956666665,62.0,99.0
561,141.86913115,142.224041675,53.0,64.0
562,142.13698815,142.44725584166667,65.0,82.0
563,142.40484515,142.505291525,58.0,82.0
564,142.67270215,143.53207669166667,67.0,105.0
565,143.20841615,143.56332667499998,63.0,62.0
566,142.94055915,143.78877298333333,58.0,67.0
567,143.47627315,144.30439770833334,65.0,102.0
568,143.74413015,144.59904040833334,55.0,16.0
569,142.67270215,144.61466539999998,51.0,94.0
570,144.54770115,144.715111775,63.0,34.0
571,144.01198714999998,144.79323673333334,58.0,78.0
572,144.81555815000002,145.10127228333334,63.0,24.0
573,144.27984415,145.65037913333333,67.0,105.0
574,144.81555815000002,145.66823626666667,70.0,87.0
575,145.35127215,145.6972541083333,63.0,48.0
576,145.08341515,145.90707542500002,58.0,73.0
577,145.61912915,146.44725370833333,65.0,92.0
578,144.81555815000002,146.58341435,51.0,84.0
579,145.88698614999998,146.58341435,55.0,22.0
580,146.42270015,146.7575214,67.0,99.0
581,146.69055715000002,146.79769994999998,63.0,60.0
582,146.15484315,146.80886065833334,58.0,97.0
583,146.95841415,147.393681775,65.0,80.0
584,146.95841415,147.92716363333335,68.0,84.0
585,147.49412815,148.62135969166667,65.0,57.0
586,147.22627115,148.66823466666665,60.0,60.0
587,146.95841415,148.69278822500002,53.0,105.0
588,147.76198515,149.29100219166668,72.0,94.0
589,148.83341315,149.29323433333332,65.0,78.0
590,149.36912715,150.05885892499998,53.0,76.0
591,150.17269815,150.63251933333333,50.0,18.0
592,149.10127015,150.65707289166667,46.0,100.0
593,149.63698415,150.66153717499998,58.0,82.0
594,149.90484114999998,150.72403714166666,62.0,109.0
595,150.44055515,150.75751926666666,53.0,94.0
596,150.70841215000002,151.01644770000001,65.0,97.0
597,150.97626915,151.04769768333333,58.0,67.0
598,151.24412615,151.57001883333334,63.0,67.0
599,151.24412615,151.82448298333333,67.0,96.0
600,151.77984014999998,152.10126855,63.0,76.0
601,151.51198315,152.188322075,58.0,51.0
602,152.04769715,152.64591111666667,65.0,105.0
603,152.31555415,152.72180393333332,58.0,37.0
604,152.85126815,153.03207162500001,58.0,38.0
605,151.24412615,153.192785825,51.0,97.0
606,153.11912515,153.23742865833333,63.0,38.0
607,152.58341115000002,153.27091078333333,67.0,112.0
608,153.38698215,153.6950177,63.0,73.0
609,153.38698215,154.036535375,67.0,40.0
610,153.92269614999998,154.21510670833334,63.0,46.0
611,153.38698215,154.21510670833334,70.0,87.0
612,153.65483915,154.2843031,58.0,76.0
613,154.45841015000002,154.87135635833334,55.0,9.0
614,154.19055315,154.90483848333332,65.0,89.0
615,153.38698215,154.99635629166667,51.0,97.0
616,154.72626715,155.00305271666667,58.0,89.0
617,154.99412415,155.275374,67.0,102.0
618,155.26198115,155.3557311,63.0,47.0
619,155.52983815,156.26421275833331,56.0,84.0
620,155.79769514999998,156.4807305,51.0,62.0
621,155.52983815,156.97403380833333,60.0,92.0
622,155.52983815,157.50974780833332,44.0,94.0
623,156.33340915,157.52760494166665,63.0,84.0
624,157.13698015,157.54992635833332,56.0,64.0
625,156.60126615000001,157.55439064166666,51.0,62.0
626,156.86912315,157.7932298,68.0,94.0
627,157.67269414999998,158.5432294,60.0,67.0
628,157.67269414999998,158.5700151,56.0,58.0
629,158.20840815,158.857961375,51.0,22.0
630,158.74412215,159.05662198333334,56.0,82.0
631,157.67269414999998,159.21063975833334,44.0,78.0
632,158.74412215,159.299925425,60.0,94.0
633,158.74412215,159.326711125,63.0,84.0
634,159.01197915,159.34233611666667,51.0,67.0
635,159.27983615,159.45840748333333,56.0,82.0
636,159.81555014999998,160.15260354166668,55.0,50.0
637,159.81555014999998,160.70394253333333,58.0,94.0
638,160.08340715,160.76867464166668,50.0,22.0
639,160.35126415000002,161.23072796666668,55.0,59.0
640,159.81555014999998,161.349031475,43.0,90.0
641,160.88697815,161.35349575833334,50.0,39.0
642,160.61912115,161.47403140833333,62.0,96.0
643,161.42269215,161.55885279166665,55.0,85.0
644,161.15483515,161.6816205833333,67.0,99.0
645,162.49412015000001,163.12358410000002,55.0,68.0
646,161.95840615,163.15260194166666,60.0,71.0
647,161.95840615,163.32447685,63.0,84.0
648,163.29769115,163.51420889166667,55.0,54.0
649,161.95840615,163.81108373333333,48.0,87.0
650,163.02983415,163.86465513333332,67.0,99.0
651,163.56554814999998,163.92045867500002,60.0,78.0
652,163.83340515,164.054387175,63.0,76.0
653,164.10126215,164.44054768333334,60.0,80.0
654,164.36911915000002,165.31108293333335,56.0,37.0
655,164.63697615,165.49411855,60.0,73.0
656,164.10126215,165.59010064166665,65.0,82.0
657,165.44054715,165.84679693333334,56.0,53.0
658,164.10126215,165.96510044166666,53.0,89.0
659,165.70840414999998,166.06331467500002,60.0,89.0
660,164.90483315,166.29545740833333,68.0,100.0
661,165.97626115,166.866885675,65.0,67.0
662,166.51197515,167.3557247,53.0,73.0
663,166.77983215,167.58340314999998,58.0,82.0
664,166.24411815000002,167.8825101333333,46.0,105.0
665,167.04768915,167.911527975,62.0,109.0
666,167.31554615,167.91599225833335,50.0,16.0
667,167.58340314999998,167.95617080833333,53.0,84.0
668,167.85126015,168.02983148333334,58.0,100.0
669,168.38697415000001,169.036527375,67.0,61.0
670,168.38697415000001,169.31331294166665,63.0,80.0
671,168.92268815,169.47625928333332,58.0,76.0
672,169.19054515,170.12358036666666,65.0,105.0
673,168.38697415000001,170.30661598333333,51.0,100.0
674,169.72625915,170.34679453333334,58.0,92.0
675,169.45840214999998,170.39366950833335,55.0,22.0
676,170.26197315000002,170.45840161666666,63.0,62.0
677,170.52983015,171.25527619166667,70.0,87.0
678,170.52983015,171.32893686666665,63.0,76.0
679,169.99411615,171.38697255,67.0,112.0
680,171.06554415,171.86688300833333,58.0,33.0
681,170.52983015,171.93607939999998,51.0,102.0
682,171.60125814999998,172.03429363333333,55.0,85.0
683,171.60125814999998,172.11018645000001,63.0,92.0
684,171.60125814999998,172.22625781666665,67.0,102.0
685,172.13697215000002,172.331168475,58.0,78.0
686,172.67268615,173.0342931,60.0,89.0
687,172.67268615,173.255275125,63.0,87.0
688,172.94054315,173.51420355833335,55.0,93.0
689,173.20840015,174.04322113333333,60.0,87.0
690,173.74411415,174.099024675,55.0,46.0
691,172.67268615,174.19054248333333,48.0,97.0
692,174.01197115,174.32893526666666,63.0,92.0
693,173.47625714999998,174.35125668333333,67.0,102.0
694,174.27982815000001,174.46509590833335,60.0,100.0
695,174.81554215,175.143666975,58.0,73.0
696,174.81554215,175.65482741666665,62.0,99.0
697,175.08339915,175.72625595,50.0,48.0
698,174.81554215,176.11688074166665,43.0,87.0
699,175.88697015,176.1950057,50.0,65.0
700,175.35125614999998,176.20616640833333,58.0,80.0
701,176.15482715000002,176.509737675,62.0,102.0
702,175.61911315,176.68607686666667,67.0,105.0
703,176.69054115,176.80214823333333,62.0,93.0
704,176.42268415,176.80884465833333,58.0,73.0
705,176.95839815,177.27759440833333,56.0,94.0
706,176.95839815,177.46286216666667,60.0,100.0
707,176.95839815,177.61911208333333,44.0,100.0
708,177.22625515,177.72179060000002,51.0,80.0
709,177.49411215,177.79768341666667,56.0,89.0
710,177.76196915,178.00527259166665,60.0,97.0
711,178.02982615000002,178.61911155,58.0,87.0
712,178.02982615000002,178.6548258166667,62.0,82.0
713,178.02982615000002,178.93830780833332,46.0,100.0
714,178.56554015,178.94500423333335,53.0,66.0
715,179.10125415,179.375807575,58.0,92.0
716,179.10125415,179.94277155833333,63.0,89.0
717,179.63696815,179.965092975,58.0,34.0
718,179.10125415,180.02312865833335,51.0,84.0
719,180.44053915,180.77759254166665,58.0,82.0
720,179.90482515,180.86687820833333,67.0,105.0
721,180.70839615,181.09009237499998,63.0,97.0
722,180.17268215,181.11464593333335,51.0,69.0
723,181.24411014999998,181.83785983333334,60.0,89.0
724,181.77982415,182.14366324166667,55.0,59.0
725,181.24411014999998,182.3825024,63.0,94.0
726,182.04768115000002,182.66375225000002,60.0,89.0
727,182.31553815,182.71955579166666,55.0,79.0
728,181.24411014999998,182.7575022,48.0,92.0
729,182.58339515,183.10571629999998,67.0,105.0
730,182.85125215,183.14589485,60.0,80.0
731,183.38696615,183.69053741666667,58.0,67.0
732,183.38696615,183.956162275,62.0,50.0
733,183.65482315,184.27089425,50.0,20.0
734,183.38696615,184.66151904166668,43.0,93.0
735,184.45839415,184.75080470833333,50.0,70.0
736,183.92268015000002,184.77535826666667,58.0,82.0
737,184.19053715,184.80884039166665,67.0,109.0
738,184.72625115,185.02089385,62.0,109.0
739,184.99410815,185.42714363333334,58.0,100.0
740,185.52982215,185.86910768333334,56.0,92.0
741,185.52982215,186.13696468333333,60.0,89.0
742,185.79767915,186.43160738333333,51.0,80.0
743,186.06553615,186.70839295000002,56.0,76.0
744,186.33339315,186.942767825,63.0,100.0
745,186.60125015,186.97848209166665,51.0,82.0
746,185.52982215,187.210624825,44.0,97.0
747,186.86910715,187.43160684999998,60.0,108.0
748,187.13696414999998,187.50749966666666,51.0,89.0
749,187.40482115,187.5253568,56.0,92.0
750,187.67267815,187.95392800000002,58.0,102.0
751,187.67267815,188.26419569166666,62.0,102.0
752,188.20839215,188.37803491666665,58.0,84.0
753,187.94053515000002,188.56107053333335,53.0,71.0
754,188.47624915,188.80214183333334,58.0,84.0
755,188.47624915,188.86240965833332,62.0,72.0
756,188.74410615,189.08785596666667,53.0,80.0
757,188.47624915,189.27982015,65.0,102.0
758,187.67267815,189.35571296666666,46.0,102.0
759,189.27982015,189.6057128333333,53.0,78.0
760,189.01196314999999,189.65705209166669,70.0,97.0
761,189.54767715,189.66374851666666,65.0,1.0
762,189.54767715,189.728480625,58.0,92.0
763,190.08339115,190.76865864166666,51.0,57.0
764,189.81553415000002,190.96955139166667,56.0,73.0
765,189.81553415000002,191.22624768333333,60.0,82.0
766,190.88696215,191.295444075,51.0,62.0
767,190.35124815,191.49856896666665,63.0,87.0
768,191.15481914999998,191.5164261,56.0,84.0
769,190.61910515,191.54544394166666,68.0,100.0
770,189.81553415000002,191.56553321666667,44.0,102.0
771,191.42267615,191.67937244166666,51.0,80.0
772,191.95839015,193.05883599166668,55.0,90.0
773,192.22624715,193.12580024166667,50.0,44.0
774,191.95839015,193.20615734166665,58.0,105.0
775,192.76196115,193.39588938333333,62.0,46.0
776,191.95839015,193.62803211666667,43.0,87.0
777,193.56553215,193.65481781666665,62.0,2.0
778,193.29767515,193.65928209999998,50.0,85.0
779,193.56553215,193.90481768333333,55.0,109.0
780,193.83338915000002,194.00526405833335,58.0,84.0
781,193.02981814999998,194.12133542499998,67.0,102.0
782,194.36910315,195.23517411666666,60.0,67.0
783,194.63696015,195.50749539999998,65.0,111.0
784,194.90481714999999,195.59008464166666,68.0,111.0
785,195.17267415,195.65035246666667,56.0,57.0
786,194.10124615,195.66374531666668,53.0,108.0
787,195.44053115,195.72178100000002,60.0,89.0
788,195.70838815000002,195.89812019166666,65.0,105.0
789,196.24410215,196.5521377,63.0,92.0
790,196.24410215,196.80213756666666,67.0,93.0
791,196.77981615,197.11017311666666,63.0,84.0
792,196.51195915,197.268655175,58.0,69.0
793,196.24410215,197.63249426666667,51.0,105.0
794,197.31553015,197.73740492500002,55.0,102.0
795,197.58338715000002,197.80660131666667,58.0,111.0
796,197.04767314999998,197.86017271666668,65.0,114.0
797,197.85124415,198.12802971666667,67.0,119.0
798,198.11910115,198.22847609166666,63.0,87.0
799,198.38695815,198.7217794,56.0,97.0
800,198.38695815,199.11240419166666,60.0,105.0
801,198.92267214999998,199.224011275,56.0,84.0
802,198.38695815,199.23963626666665,44.0,100.0
803,198.65481515,199.2574934,51.0,69.0
804,199.45838615,199.97177873333334,58.0,100.0
805,199.45838615,199.99410015,55.0,90.0
806,199.45838615,200.06106440000002,43.0,102.0
807,199.99410015,200.11910008333334,50.0,48.0
808,200.52981415,200.911510375,65.0,76.0
809,200.52981415,201.09677813333332,68.0,78.0
810,200.52981415,201.30436730833333,53.0,108.0
811,201.06552815,201.49186720833333,65.0,80.0
812,200.79767114999999,201.63695641666666,60.0,82.0
813,201.33338515,202.15481328333334,68.0,78.0
814,201.60124215000002,202.27981321666667,51.0,102.0
815,201.86909915,202.41597385833333,60.0,82.0
816,202.40481315,202.68829514166669,68.0,69.0
817,202.13695615,202.7128487,63.0,114.0
818,202.94052714999998,203.67936604166667,51.0,73.0
819,203.20838415,203.84231238333334,56.0,114.0
820,202.67267015,203.99409801666667,44.0,92.0
821,203.47624115000002,204.36463353333335,60.0,105.0
822,204.27981215,204.60124055,56.0,97.0
823,203.74409815,204.68382979166665,51.0,62.0
824,204.54766915,204.77311545833334,60.0,92.0
825,204.81552614999998,205.08338315,58.0,100.0
826,204.81552614999998,205.35124015,62.0,79.0
827,205.35124015,205.4874007916667,58.0,102.0
828,205.08338315,205.70168639166667,53.0,84.0
829,205.61909715000002,206.24409681666668,65.0,97.0
830,205.61909715000002,206.24632895833332,58.0,111.0
831,205.88695415,206.25972180833332,53.0,111.0
832,204.81552614999998,206.52981095,46.0,102.0
833,206.42266815,206.804364375,53.0,111.0
834,206.69052514999998,206.938292875,58.0,108.0
835,206.15481115,206.96954285833334,70.0,100.0
836,207.22623915,207.91150664166668,51.0,57.0
837,206.95838215,208.11239939166666,56.0,73.0
838,206.95838215,208.36909568333334,60.0,82.0
839,208.02981015,208.438292075,51.0,62.0
840,207.49409615000002,208.64141696666667,63.0,87.0
841,208.29766715,208.6592741,56.0,84.0
842,207.76195315,208.68829194166668,68.0,100.0
843,206.95838215,208.70838121666668,44.0,102.0
844,208.56552415,208.82222044166667,51.0,80.0
845,209.10123815,210.20168399166667,55.0,90.0
846,209.36909515,210.26864824166665,50.0,44.0
847,209.10123815,210.34900534166667,58.0,105.0
848,209.90480915,210.53873738333334,62.0,46.0
849,209.10123815,210.77088011666666,43.0,87.0
850,210.70838015,210.79766581666667,62.0,2.0
851,210.44052315,210.8021301,50.0,85.0
852,210.70838015,211.04766568333332,55.0,109.0
853,210.97623715,211.14811205833334,58.0,84.0
854,210.17266615,211.264183425,67.0,102.0
855,211.51195115,212.37802211666667,60.0,67.0
856,211.77980815,212.6503434,65.0,111.0
857,212.04766515,212.73293264166668,68.0,111.0
858,212.31552215,212.79320046666666,56.0,57.0
859,211.24409415,212.80659331666666,53.0,108.0
860,212.58337915,212.864629,60.0,89.0
861,212.85123615,213.04096819166668,65.0,105.0
862,213.38695015,213.6949857,63.0,92.0
863,213.38695015,213.94498556666667,67.0,93.0
864,213.92266415,214.25302111666667,63.0,84.0
865,213.65480715,214.411503175,58.0,69.0
866,213.38695015,214.77534226666666,51.0,105.0
867,214.45837815,214.880252925,55.0,102.0
868,214.72623515,214.94944931666666,58.0,111.0
869,214.19052115,215.00302071666667,65.0,114.0
870,214.99409215,215.27087771666666,67.0,119.0
871,215.26194915,215.37132409166668,63.0,87.0
872,215.52980615,215.8646274,56.0,97.0
873,215.52980615,216.25525219166667,60.0,105.0
874,216.06552015,216.366859275,56.0,84.0
875,215.52980615,216.38248426666667,44.0,100.0
876,215.79766315,216.4003414,51.0,69.0
877,216.60123415,217.11462673333332,58.0,100.0
878,216.60123415,217.13694815,55.0,90.0
879,216.60123415,217.2039124,43.0,102.0
880,217.13694815,217.26194808333332,50.0,48.0
881,217.67266215,217.99855483333334,53.0,69.0
882,217.67266215,218.2485547,56.0,87.0
883,217.67266215,218.29096539166667,41.0,97.0
884,217.94051915,218.442751025,48.0,57.0
885,218.20837615,218.51864384166666,53.0,69.0
886,218.47623315,218.63694735,56.0,92.0
887,218.74409015,219.11685780833332,55.0,87.0
888,218.74409015,219.34453625833333,58.0,102.0
889,218.74409015,219.73292890833332,43.0,90.0
890,219.01194715,219.755250325,50.0,50.0
891,219.27980415,219.77310745833333,55.0,105.0
892,219.54766115,219.77310745833333,58.0,82.0
893,219.81551815,220.24855363333333,56.0,82.0
894,219.81551815,220.43382139166667,60.0,97.0
895,220.08337515,220.62355343333334,51.0,76.0
896,219.81551815,220.652571275,44.0,105.0
897,220.35123215,220.652571275,56.0,84.0
898,220.61908915,220.799892625,60.0,92.0
899,220.88694615,221.18605313333333,58.0,87.0
900,220.88694615,221.44498156666666,62.0,90.0
901,221.42266015,221.643642175,58.0,94.0
902,221.15480315,221.74632069166665,53.0,71.0
903,220.88694615,221.76194568333332,46.0,105.0
904,221.95837415,222.36462393333335,63.0,89.0
905,221.95837415,222.37132035833332,59.0,82.0
906,221.95837415,222.3735525,66.0,100.0
907,222.49408815,222.90480221666667,66.0,94.0
908,222.49408815,222.9092665,63.0,87.0
909,222.49408815,222.9360522,59.0,82.0
910,221.95837415,222.95167719166668,47.0,102.0
911,222.49408815,222.9628379,54.0,40.0
912,223.02980215,223.45167692500002,47.0,87.0
913,223.02980215,223.45614120833332,63.0,97.0
914,223.02980215,223.46060549166666,54.0,87.0
915,223.02980215,223.46283763333332,59.0,93.0
916,223.02980215,223.46730191666666,66.0,102.0
917,223.56551615,224.03203375833334,63.0,97.0
918,223.56551615,224.03203375833334,66.0,100.0
919,223.56551615,224.0342659,59.0,93.0
920,223.56551615,224.07667659166665,54.0,87.0
921,223.56551615,224.08560515833332,47.0,85.0
922,224.36908715,225.05435464166666,52.0,57.0
923,224.10123015,225.25524739166667,57.0,73.0
924,224.10123015,225.51194368333333,61.0,82.0
925,225.17265815,225.581140075,52.0,62.0
926,224.63694415,225.78426496666665,64.0,87.0
927,225.44051515,225.8021221,57.0,84.0
928,224.90480115,225.83113994166666,69.0,100.0
929,224.10123015,225.85122921666667,45.0,102.0
930,225.70837215,225.96506844166666,52.0,80.0
931,226.24408615000002,227.34453199166666,56.0,90.0
932,226.51194315,227.41149624166667,51.0,44.0
933,226.24408615000002,227.49185334166665,59.0,105.0
934,227.04765715,227.68158538333333,63.0,46.0
935,226.24408615000002,227.91372811666668,44.0,87.0
936,227.85122815,227.94051381666668,63.0,2.0
937,227.58337115,227.94497810000001,51.0,85.0
938,227.85122815,228.19051368333334,56.0,109.0
939,228.11908515,228.29096005833333,59.0,84.0
940,227.31551415,228.407031425,68.0,102.0
941,228.65479915,229.52087011666666,61.0,67.0
942,228.92265615,229.7931914,66.0,111.0
943,229.19051315000002,229.87578064166667,69.0,111.0
944,229.45837015,229.93604846666668,57.0,57.0
945,228.38694215,229.94944131666668,54.0,108.0
946,229.72622715,230.007477,61.0,89.0
947,229.99408415,230.18381619166666,66.0,105.0
948,230.52979815,230.8378337,64.0,92.0
949,230.52979815,231.08783356666666,68.0,93.0
950,231.06551215,231.39586911666666,64.0,84.0
951,230.79765515,231.554351175,59.0,69.0
952,230.52979815,231.91819026666667,52.0,105.0
953,231.60122615,232.023100925,56.0,102.0
954,231.86908315,232.09229731666667,59.0,111.0
955,231.33336915,232.14586871666666,66.0,114.0
956,232.13694015000002,232.41372571666668,68.0,119.0
957,232.40479715,232.51417209166667,64.0,87.0
958,232.67265415,233.0074754,57.0,97.0
959,232.67265415,233.39810019166666,61.0,105.0
960,233.20836815,233.509707275,57.0,84.0
961,232.67265415,233.52533226666668,45.0,100.0
962,232.94051115,233.5431894,52.0,69.0
963,233.74408215,234.25747473333334,59.0,100.0
964,233.74408215,234.27979615,56.0,90.0
965,233.74408215,234.3467604,44.0,102.0
966,234.27979615,234.40479608333334,51.0,48.0
967,234.81551015,235.197206375,66.0,76.0
968,234.81551015,235.38247413333335,69.0,78.0
969,234.81551015,235.59006330833333,54.0,108.0
970,235.35122415,235.77756320833333,66.0,80.0
971,235.08336715000002,235.92265241666666,61.0,82.0
972,235.61908115,236.44050928333334,69.0,78.0
973,235.88693815,236.56550921666667,52.0,102.0
974,236.15479515,236.70166985833333,61.0,82.0
975,236.69050915,236.97399114166666,69.0,69.0
976,236.42265215,236.9985447,64.0,114.0
977,237.22622315,237.96506204166667,52.0,73.0
978,237.49408015,238.12800838333334,57.0,114.0
979,236.95836615,238.27979401666667,45.0,92.0
980,237.76193715,238.65032953333335,61.0,105.0
981,238.56550815,238.88693655,57.0,97.0
982,238.02979415000001,238.96952579166665,52.0,62.0
983,238.83336515,239.05881145833334,61.0,92.0
984,239.10122215,239.36907915,59.0,100.0
985,239.10122215,239.63693615,63.0,79.0
986,239.63693615,239.77309679166666,59.0,102.0
987,239.36907915,239.98738239166667,54.0,84.0
988,239.90479315,240.52979281666666,66.0,97.0
989,239.90479315,240.53202495833332,59.0,111.0
990,240.17265015,240.54541780833333,54.0,111.0
991,239.10122215,240.81550695,47.0,102.0
992,240.70836415,241.090060375,54.0,111.0
993,240.97622115000001,241.223988875,59.0,108.0
994,240.44050715,241.25523885833334,71.0,100.0
995,241.51193515,242.19720264166668,52.0,57.0
996,241.24407815,242.39809539166666,57.0,73.0
997,241.24407815,242.65479168333334,61.0,82.0
998,242.31550615,242.723988075,52.0,62.0
999,241.77979215,242.92711296666667,64.0,87.0
1000,242.58336315,242.9449701,57.0,84.0
1001,242.04764915,242.97398794166668,69.0,100.0
1002,241.24407815,242.99407721666668,45.0,102.0
1003,242.85122015,243.10791644166667,52.0,80.0
1004,243.38693415,244.48737999166667,56.0,90.0
1005,243.65479115,244.55434424166666,51.0,44.0
1006,243.38693415,244.63470134166667,59.0,105.0
1007,244.19050515,244.82443338333334,63.0,46.0
1008,243.38693415,245.05657611666666,44.0,87.0
1009,244.99407615,245.08336181666667,63.0,2.0
1010,244.72621915,245.0878261,51.0,85.0
1011,244.99407615,245.33336168333332,56.0,109.0
1012,245.26193315,245.43380805833334,59.0,84.0
1013,244.45836215,245.549879425,68.0,102.0
1014,245.79764715,246.66371811666667,61.0,67.0
1015,246.06550415,246.9360394,66.0,111.0
1016,246.33336115,247.01862864166668,69.0,111.0
1017,246.60121815,247.07889646666666,57.0,57.0
1018,245.52979015,247.09228931666667,54.0,108.0
1019,246.86907515000001,247.150325,61.0,89.0
1020,247.13693215,247.32666419166668,66.0,105.0
1021,247.67264615,247.9806817,64.0,92.0
1022,247.67264615,248.23068156666668,68.0,93.0
1023,248.20836015,248.53871711666667,64.0,84.0
1024,247.94050315,248.697199175,59.0,69.0
1025,247.67264615,249.06103826666666,52.0,105.0
1026,248.74407415,249.165948925,56.0,102.0
1027,249.01193115,249.23514531666666,59.0,111.0
1028,248.47621715,249.28871671666667,66.0,114.0
1029,249.27978815,249.55657371666666,68.0,119.0
1030,249.54764515,249.65702009166668,64.0,87.0
1031,249.81550215000001,250.1503234,57.0,97.0
1032,249.81550215000001,250.54094819166667,61.0,105.0
1033,250.35121615,250.652555275,57.0,84.0
1034,249.81550215000001,250.66818026666667,45.0,100.0
1035,250.08335915,250.6860374,52.0,69.0
1036,250.88693015,251.40718458541667,59.0,100.0
1037,250.88693015,251.43033273125002,56.0,90.0
1038,250.88693015,251.49977716875003,44.0,102.0
1039,251.43033273125002,251.5599623479167,51.0,48.0
1040,251.98588823125002,252.3238511604167,54.0,69.0
1041,251.98588823125002,252.58311039375002,57.0,87.0
1042,251.98588823125002,252.62709187083334,42.0,97.0
1043,252.26366598125003,252.78449926250002,49.0,57.0
1044,252.54144373125,252.86320295833335,54.0,69.0
1045,252.81922148125003,252.98588813125002,57.0,92.0
1046,253.09699923125,253.4835732666667,56.0,87.0
1047,253.09699923125,253.71968435416667,59.0,102.0
1048,253.09699923125,254.12246209166668,44.0,90.0
1049,253.37477698125002,254.14561023750002,51.0,50.0
1050,253.65255473125,254.16412875416668,56.0,105.0
1051,253.93033248125002,254.16412875416668,59.0,82.0
1052,254.20811023125,254.6589749354167,57.0,82.0
1053,254.20811023125,254.85472957083337,61.0,97.0
1054,254.48588798125002,255.0552011854167,52.0,76.0
1055,254.20811023125,255.08586155000003,45.0,105.0
1056,254.76746545625002,255.08586155000003,57.0,84.0
1057,255.05048420625002,255.24152186250004,61.0,92.0
1058,255.33350295625002,255.64954056041668,59.0,87.0
1059,255.33350295625002,255.92312535208336,63.0,90.0
1060,255.89954045625004,256.133030925,59.0,94.0
1061,255.61652170625004,256.24152144583337,54.0,71.0
1062,255.33350295625002,256.2580308729167,47.0,105.0
1063,256.4460549145834,257.2316036520834,68.0,61.0
1064,256.4645734312501,257.2494607854167,64.0,49.0
1065,256.96597879375,257.7740140770834,59.0,64.0
1066,256.4622586166667,257.8521390354167,52.0,92.0
1067,257.51508564375007,258.3409780604167,68.0,90.0
1068,257.52178206875004,258.40794231041673,64.0,80.0
1069,257.5173177854167,258.41240659375006,71.0,84.0
1070,258.5686565104167,258.93472774375005,61.0,57.0
1071,258.57758507708337,258.98606700208336,57.0,44.0
1072,258.57981721875007,259.0932098020834,45.0,82.0
1073,258.5686565104167,259.47490602708336,64.0,73.0
1074,259.6333880854167,259.85213796875007,44.0,61.0
1075,259.6400845104167,259.92356650208336,56.0,43.0
1076,259.65570950208337,259.9347272104167,59.0,89.0
1077,259.6356202270834,260.04187001041674,63.0,42.0
1078,260.72267321875006,261.3342800354167,54.0,94.0
1079,260.70928036875006,261.42579784375005,64.0,69.0
1080,260.70704822708336,261.49052995208336,69.0,84.0
1081,261.79856550208336,262.45258301041673,44.0,79.0
1082,261.7896369354167,262.45481515208337,68.0,65.0
1083,261.80079764375006,262.4726722854167,64.0,55.0
1084,262.9213327604167,263.37668966041673,57.0,71.0
1085,262.91686847708337,263.5173145854167,61.0,78.0
1086,262.9302613270834,263.52847529375003,45.0,89.0
1087,263.9615107770834,264.53409651875006,63.0,42.0
1088,263.98383219375006,264.58733725416675,59.0,71.0
1089,263.9860643354167,264.80261501041673,47.0,92.0
1090,264.53872614791675,264.83965204375005,54.0,44.0
1091,265.0703322166667,265.36600525416674,59.0,58.0
1092,265.0679283708334,265.85158211250007,64.0,69.0
1093,265.61840906666674,265.97417825,59.0,51.0
1094,266.2434089833334,266.79629352500007,59.0,97.0
1095,265.0799476,266.81071660000003,52.0,73.0
1096,266.22658206250003,266.82273582916673,68.0,85.0
1097,267.32754345416674,267.99096078125007,61.0,76.0
1098,267.32754345416674,267.9986138375001,57.0,66.0
1099,267.33715883750006,268.10065458750006,45.0,89.0
1100,267.91443021875006,268.1312668125001,52.0,39.0
1101,268.4680012875001,268.93993975625006,56.0,48.0
1102,268.4782053625001,268.93993975625006,59.0,94.0
1103,268.4782053625001,269.3021844187501,44.0,87.0
1104,269.7256535312501,270.7284039979167,66.0,82.0
1105,269.7282045500001,270.7602667270834,61.0,73.0
1106,269.7282045500001,270.79212945625005,54.0,87.0
1107,270.9122274354167,272.10301418125005,56.0,40.0
1108,270.9220803729167,272.1335697291667,59.0,80.0
1109,270.9024235187501,272.14468083750006,44.0,68.0
1110,270.90732547708336,272.1557919458334,63.0,45.0
1111,271.51953345000004,272.1641252770834,51.0,70.0
1112,272.15856972291675,272.89468065000005,57.0,67.0
1113,272.1530141687501,273.1363472562501,61.0,82.0
1114,272.1669030541667,273.1724583583334,45.0,97.0
1115,273.0919028229167,273.25301389375005,57.0,73.0
1116,272.8002362291667,273.2641250020834,52.0,48.0
1117,273.43912495833337,275.05301344375005,47.0,100.0
1118,273.43356940416675,276.4724575333334,59.0,69.0
1119,273.4141249645834,276.59467972500005,63.0,77.0
1120,278.6335256937501,278.9494347583334,63.0,87.0
1121,278.6335256937501,278.9494347583334,63.0,87.0
1122,278.26239577916675,278.9812529375001,59.0,69.0
1123,278.26239577916675,278.9812529375001,59.0,69.0
1124,278.9062529437501,279.53352561875005,64.0,84.0
1125,279.4517074437501,279.8130710500001,71.0,73.0
1126,279.72443469375,280.0698892104167,63.0,72.0
1127,277.8569907791667,280.11079829791674,52.0,97.0
1128,277.8569907791667,280.11079829791674,52.0,97.0
1129,279.1789801937501,280.1562528395834,59.0,64.0
1130,279.99716194375003,280.3471619145834,64.0,78.0
1131,280.26988919375003,280.9153436854167,71.0,82.0
1132,280.81534369375004,281.15625275625007,63.0,43.0
1133,280.54261644375003,281.1789800270834,59.0,76.0
1134,281.08807094375004,281.7198890729167,64.0,78.0
1135,281.63352544375005,282.0357981375001,71.0,73.0
1136,281.90625269375005,282.21079812291674,63.0,70.0
1137,280.26988919375003,282.3267072041667,52.0,94.0
1138,281.36079819375004,282.34943447500007,59.0,62.0
1139,282.17897994375005,282.4153435604167,64.0,82.0
1140,282.45170719375005,282.82765055000004,66.0,66.0
1141,282.45170719375005,283.09933930000005,69.0,78.0
1142,282.45170719375005,283.2709078416667,54.0,97.0
1143,282.72443444375006,283.4718881333334,61.0,67.0
1144,283.00453726875,283.60424100833336,66.0,71.0
1145,283.2954176333334,283.6532605916667,69.0,71.0
1146,284.19216956250006,284.6036275666667,68.0,96.0
1147,283.58953513333336,284.8413990666667,56.0,97.0
1148,283.8836526333334,284.89031204166673,59.0,42.0
1149,284.5046693125001,284.96368150416674,71.0,84.0
1150,284.81965996666673,285.09411610416674,64.0,67.0
1151,284.81965996666673,285.6190899083334,69.0,80.0
1152,284.81965996666673,285.8720660229167,57.0,82.0
1153,285.4940899458334,285.8720660229167,64.0,92.0
1154,285.8512326958334,286.41670871666673,73.0,84.0
1155,286.20837544583344,286.9732561687501,59.0,105.0
1156,286.5655181958334,287.00301806458344,66.0,82.0
1157,286.9226609458334,287.37206557291677,71.0,89.0
1158,288.35123194583343,288.7530175395834,64.0,57.0
1159,287.9940891958334,288.7678984875001,59.0,49.0
1160,287.6369464458334,289.5268268312501,52.0,97.0
1161,289.0655174458334,289.5595649166668,59.0,73.0
1162,288.7083746958334,289.58635062291677,66.0,89.0
1163,289.42266019583343,289.8482553062501,68.0,112.0
1164,289.7798029458334,290.0119457333334,71.0,82.0
1165,290.50599320416677,293.5149208729168,52.0,67.0
1166,290.6696836312501,293.5178970625001,59.0,58.0
1167,290.69051695833343,293.9553969312501,64.0,45.0
1168,290.91670736666674,293.9613493104168,71.0,82.0
1169,290.76194550833344,293.97325406875007,66.0,62.0
