,start,end,pitch,velocity
0,0.9765625,1.55078125,66.0,87.0
1,1.669921875,1.919921875,66.0,91.0
2,1.970703125,2.283203125,68.0,93.0
3,2.30859375,2.916015625,70.0,91.0
4,2.8671875,3.53125,75.0,93.0
5,3.482421875,5.119140625,73.0,94.0
6,4.701171875,5.39453125,54.0,92.0
7,5.529296875,5.779296875,54.0,86.0
8,5.83203125,6.052734375,56.0,87.0
9,6.130859375,6.552734375,58.0,92.0
10,6.75390625,7.208984375,63.0,96.0
11,7.337890625,10.908203125,61.0,87.0
12,12.212890625,12.712890625,66.0,96.0
13,12.216796875,12.716796875,82.0,96.0
14,12.853515625,13.056640625,66.0,95.0
15,12.857421875,13.0625,82.0,95.0
16,13.17578125,13.375,68.0,94.0
17,13.1796875,13.37890625,80.0,94.0
18,13.4765625,13.853515625,70.0,94.0
19,13.482421875,13.857421875,78.0,94.0
20,14.08203125,17.029296875,75.0,94.0
21,14.0859375,17.033203125,80.0,94.0
22,17.55859375,20.2890625,70.0,93.0
23,17.55859375,20.2890625,73.0,97.0
24,31.62109375,31.849609375,70.0,94.0
25,31.85546875,32.068359375,68.0,93.0
26,32.08984375,32.333984375,66.0,95.0
27,32.32421875,32.59765625,63.0,97.0
28,32.55859375,32.873046875,66.0,95.0
29,33.02734375,33.20703125,66.0,96.0
30,33.26171875,33.4921875,63.0,99.0
31,33.49609375,33.837890625,66.0,96.0
32,33.96484375,34.3203125,70.0,93.0
33,34.43359375,35.115234375,70.0,96.0
34,35.37109375,35.591796875,70.0,95.0
35,35.60546875,35.845703125,68.0,92.0
36,35.83984375,36.05078125,66.0,93.0
37,36.07421875,36.341796875,63.0,97.0
38,36.30859375,36.603515625,66.0,95.0
39,36.77734375,36.9453125,66.0,95.0
40,37.01171875,37.2734375,63.0,98.0
41,37.24609375,37.505859375,66.0,94.0
42,37.71484375,37.982421875,66.0,96.0
43,38.18359375,38.86328125,66.0,93.0
44,39.12109375,39.310546875,70.0,94.0
45,39.35546875,39.544921875,68.0,94.0
46,39.58984375,39.796875,66.0,97.0
47,39.82421875,40.095703125,63.0,95.0
48,40.05859375,40.369140625,66.0,97.0
49,40.52734375,40.703125,66.0,93.0
50,40.76171875,40.921875,68.0,96.0
51,40.99609375,41.337890625,70.0,97.0
52,41.46484375,41.615234375,71.0,95.0
53,41.69921875,42.337890625,70.0,93.0
54,42.40234375,42.51171875,66.0,92.0
55,42.63671875,43.107421875,66.0,90.0
56,43.80859375,44.1875,63.0,98.0
57,44.27734375,44.443359375,66.0,92.0
58,44.51171875,45.087890625,66.0,91.0
59,45.21484375,45.36328125,68.0,93.0
60,45.44921875,46.4296875,68.0,93.0
61,46.62109375,46.849609375,70.0,94.0
62,46.85546875,47.068359375,68.0,93.0
63,47.08984375,47.333984375,66.0,95.0
64,47.32421875,47.59765625,63.0,97.0
65,47.55859375,47.873046875,66.0,95.0
66,48.02734375,48.20703125,66.0,96.0
67,48.26171875,48.4921875,63.0,99.0
68,48.49609375,48.837890625,66.0,96.0
69,48.96484375,49.3203125,70.0,93.0
70,49.43359375,50.115234375,70.0,96.0
71,50.37109375,50.591796875,70.0,95.0
72,50.60546875,50.845703125,68.0,92.0
73,50.83984375,51.05078125,66.0,93.0
74,51.07421875,51.341796875,63.0,97.0
75,51.30859375,51.603515625,66.0,95.0
76,51.77734375,51.9453125,66.0,95.0
77,52.01171875,52.2734375,68.0,98.0
78,52.24609375,52.7109375,70.0,94.0
79,52.71484375,52.9453125,68.0,96.0
80,52.94921875,53.86328125,66.0,93.0
81,53.8671875,54.09765625,66.0,93.0
82,54.12109375,54.310546875,66.0,94.0
83,54.35546875,54.544921875,68.0,94.0
84,54.58984375,54.796875,70.0,97.0
85,54.82421875,55.095703125,71.0,95.0
86,55.05859375,55.369140625,73.0,97.0
87,55.52734375,55.703125,71.0,93.0
88,55.76171875,56.2265625,70.0,96.0
89,56.23046875,56.615234375,71.0,95.0
90,56.69921875,57.1640625,73.0,93.0
91,57.16796875,57.6328125,71.0,92.0
92,57.63671875,58.5703125,70.0,90.0
93,58.57421875,58.8046875,61.0,98.0
94,58.80859375,59.1875,63.0,98.0
95,59.27734375,59.443359375,66.0,92.0
96,59.51171875,60.087890625,66.0,91.0
97,60.21484375,60.36328125,68.0,93.0
98,60.44921875,61.4296875,68.0,93.0
99,61.62109375,61.8828125,61.0,101.0
100,61.85546875,62.029296875,63.0,94.0
101,62.08984375,62.259765625,66.0,95.0
102,62.32421875,62.607421875,63.0,96.0
103,62.55859375,62.8828125,66.0,92.0
104,63.02734375,63.216796875,66.0,96.0
105,63.26171875,63.41796875,68.0,94.0
106,63.49609375,63.822265625,70.0,98.0
107,63.96484375,64.365234375,75.0,98.0
108,64.43359375,65.05078125,73.0,106.0
109,65.13671875,65.296875,73.0,94.0
110,65.37109375,65.517578125,73.0,103.0
111,65.60546875,65.78515625,70.0,93.0
112,65.83984375,65.966796875,68.0,94.0
113,66.07421875,66.23828125,66.0,92.0
114,66.30859375,66.666015625,68.0,92.0
115,66.77734375,66.921875,68.0,94.0
116,67.01171875,67.16015625,70.0,93.0
117,67.24609375,67.6015625,68.0,92.0
118,67.71484375,68.072265625,66.0,94.0
119,68.18359375,68.876953125,61.0,94.0
120,69.12109375,69.267578125,61.0,94.0
121,69.35546875,69.5234375,63.0,98.0
122,69.58984375,69.7421875,66.0,93.0
123,69.82421875,69.970703125,63.0,94.0
124,70.05859375,70.390625,66.0,93.0
125,70.52734375,70.669921875,66.0,92.0
126,70.76171875,70.9453125,68.0,93.0
127,70.99609375,71.306640625,70.0,92.0
128,71.46484375,71.8359375,75.0,99.0
129,71.93359375,72.5546875,73.0,96.0
130,72.63671875,72.810546875,73.0,94.0
131,72.87109375,72.998046875,73.0,99.0
132,73.10546875,73.25390625,70.0,93.0
133,73.33984375,73.46875,68.0,94.0
134,73.57421875,73.734375,66.0,94.0
135,73.80859375,74.12109375,68.0,94.0
136,74.27734375,74.40625,68.0,93.0
137,74.51171875,74.681640625,70.0,93.0
138,74.74609375,75.125,68.0,98.0
139,75.21484375,75.626953125,66.0,93.0
140,75.68359375,76.40625,68.0,93.0
141,76.62109375,76.8828125,61.0,101.0
142,76.85546875,77.029296875,63.0,94.0
143,77.08984375,77.259765625,66.0,95.0
144,77.32421875,77.607421875,63.0,96.0
145,77.55859375,77.8828125,66.0,92.0
146,78.02734375,78.216796875,66.0,96.0
147,78.26171875,78.41796875,68.0,94.0
148,78.49609375,78.822265625,70.0,98.0
149,78.96484375,79.365234375,75.0,98.0
150,79.43359375,80.05078125,73.0,106.0
151,80.13671875,80.296875,73.0,94.0
152,80.37109375,80.517578125,73.0,103.0
153,80.60546875,80.78515625,70.0,93.0
154,80.83984375,80.966796875,68.0,94.0
155,81.07421875,81.23828125,66.0,92.0
156,81.30859375,81.666015625,68.0,92.0
157,81.77734375,81.921875,68.0,94.0
158,82.01171875,82.16015625,70.0,93.0
159,82.24609375,82.6015625,68.0,92.0
160,82.71484375,83.072265625,66.0,94.0
161,83.18359375,83.876953125,61.0,94.0
162,84.12109375,84.267578125,61.0,94.0
163,84.35546875,84.5234375,63.0,98.0
164,84.58984375,84.7421875,66.0,93.0
165,84.82421875,84.970703125,63.0,94.0
166,85.05859375,85.390625,66.0,93.0
167,85.52734375,85.669921875,66.0,92.0
168,85.76171875,85.9453125,68.0,93.0
169,85.99609375,86.306640625,70.0,92.0
170,86.46484375,86.8359375,75.0,99.0
171,86.93359375,87.5546875,73.0,96.0
172,87.63671875,87.810546875,73.0,94.0
173,87.87109375,87.998046875,73.0,99.0
174,88.10546875,88.25390625,70.0,93.0
175,88.33984375,88.46875,68.0,94.0
176,88.57421875,88.734375,66.0,94.0
177,88.80859375,89.12109375,68.0,94.0
178,89.27734375,89.40625,68.0,93.0
179,89.51171875,89.681640625,70.0,93.0
180,89.74609375,90.134765625,71.0,94.0
181,90.21484375,90.681640625,70.0,96.0
182,90.68359375,91.111328125,68.0,89.0
183,91.15234375,91.48046875,70.0,96.0
184,91.62109375,92.05078125,68.0,94.0
185,92.08984375,92.2734375,66.0,94.0
186,92.32421875,93.03515625,68.0,94.0
187,93.02734375,94.84765625,66.0,88.0
188,110.37109375,110.599609375,70.0,94.0
189,110.60546875,110.818359375,68.0,93.0
190,110.83984375,111.083984375,66.0,95.0
191,111.07421875,111.34765625,63.0,97.0
192,111.30859375,111.623046875,66.0,95.0
193,111.77734375,111.95703125,66.0,96.0
194,112.01171875,112.2421875,63.0,99.0
195,112.24609375,112.587890625,66.0,96.0
196,112.71484375,113.0703125,70.0,93.0
197,113.18359375,113.865234375,70.0,96.0
198,114.12109375,114.341796875,70.0,95.0
199,114.35546875,114.595703125,68.0,92.0
200,114.58984375,114.80078125,66.0,93.0
201,114.82421875,115.091796875,63.0,97.0
202,115.05859375,115.353515625,66.0,95.0
203,115.52734375,115.6953125,66.0,95.0
204,115.76171875,116.0234375,68.0,98.0
205,115.99609375,116.4609375,70.0,94.0
206,116.46484375,116.6953125,68.0,96.0
207,116.69921875,117.61328125,66.0,93.0
208,117.6171875,117.84765625,66.0,93.0
209,117.87109375,118.060546875,66.0,94.0
210,118.10546875,118.294921875,68.0,94.0
211,118.33984375,118.546875,70.0,97.0
212,118.57421875,118.845703125,71.0,95.0
213,118.80859375,119.119140625,73.0,97.0
214,119.27734375,119.453125,71.0,93.0
215,119.51171875,119.9765625,70.0,96.0
216,119.98046875,120.365234375,71.0,95.0
217,120.44921875,120.9140625,73.0,93.0
218,120.91796875,121.3828125,71.0,92.0
219,121.38671875,122.3203125,70.0,90.0
220,122.32421875,122.5546875,61.0,98.0
221,122.55859375,122.9375,63.0,98.0
222,123.02734375,123.193359375,66.0,92.0
223,123.26171875,123.837890625,66.0,91.0
224,123.96484375,124.11328125,68.0,93.0
225,124.19921875,125.1796875,68.0,93.0
226,125.37109375,125.6328125,61.0,101.0
227,125.60546875,125.779296875,63.0,94.0
228,125.83984375,126.009765625,66.0,95.0
229,126.07421875,126.357421875,63.0,96.0
230,126.30859375,126.6328125,66.0,92.0
231,126.77734375,126.966796875,66.0,96.0
232,127.01171875,127.16796875,68.0,94.0
233,127.24609375,127.572265625,70.0,98.0
234,127.71484375,128.115234375,75.0,98.0
235,128.18359375,128.80078125,73.0,106.0
236,128.88671875,129.046875,73.0,94.0
237,129.12109375,129.267578125,73.0,103.0
238,129.35546875,129.53515625,70.0,93.0
239,129.58984375,129.716796875,68.0,94.0
240,129.82421875,129.98828125,66.0,92.0
241,130.05859375,130.416015625,68.0,92.0
242,130.52734375,130.671875,68.0,94.0
243,130.76171875,130.91015625,70.0,93.0
244,130.99609375,131.3515625,68.0,92.0
245,131.46484375,131.822265625,66.0,94.0
246,131.93359375,132.626953125,61.0,94.0
247,132.87109375,133.017578125,61.0,94.0
248,133.10546875,133.2734375,63.0,98.0
249,133.33984375,133.4921875,66.0,93.0
250,133.57421875,133.720703125,63.0,94.0
251,133.80859375,134.140625,66.0,93.0
252,134.27734375,134.419921875,66.0,92.0
253,134.51171875,134.6953125,68.0,93.0
254,134.74609375,135.056640625,70.0,92.0
255,135.21484375,135.5859375,75.0,99.0
256,135.68359375,136.3046875,73.0,96.0
257,136.38671875,136.560546875,73.0,94.0
258,136.62109375,136.748046875,73.0,99.0
259,136.85546875,137.00390625,70.0,93.0
260,137.08984375,137.21875,68.0,94.0
261,137.32421875,137.484375,66.0,94.0
262,137.55859375,137.87109375,68.0,94.0
263,138.02734375,138.15625,68.0,93.0
264,138.26171875,138.431640625,70.0,93.0
265,138.49609375,138.875,68.0,98.0
266,138.96484375,139.376953125,66.0,93.0
267,139.43359375,140.15625,68.0,93.0
268,140.37109375,140.6328125,61.0,101.0
269,140.60546875,140.779296875,63.0,94.0
270,140.83984375,141.009765625,66.0,95.0
271,141.07421875,141.357421875,63.0,96.0
272,141.30859375,141.6328125,66.0,92.0
273,141.77734375,141.966796875,66.0,96.0
274,142.01171875,142.16796875,68.0,94.0
275,142.24609375,142.572265625,70.0,98.0
276,142.71484375,143.115234375,75.0,98.0
277,143.18359375,143.80078125,73.0,106.0
278,143.88671875,144.046875,73.0,94.0
279,144.12109375,144.267578125,73.0,103.0
280,144.35546875,144.53515625,70.0,93.0
281,144.58984375,144.716796875,68.0,94.0
282,144.82421875,144.98828125,66.0,92.0
283,145.05859375,145.416015625,68.0,92.0
284,145.52734375,145.671875,68.0,94.0
285,145.76171875,145.91015625,70.0,93.0
286,145.99609375,146.3515625,68.0,92.0
287,146.46484375,146.822265625,66.0,94.0
288,146.93359375,147.626953125,61.0,94.0
289,147.87109375,148.017578125,61.0,94.0
290,148.10546875,148.2734375,63.0,98.0
291,148.33984375,148.4921875,66.0,93.0
292,148.57421875,148.720703125,63.0,94.0
293,148.80859375,149.140625,66.0,93.0
294,149.27734375,149.419921875,66.0,92.0
295,149.51171875,149.6953125,68.0,93.0
296,149.74609375,150.056640625,70.0,92.0
297,150.21484375,150.5859375,75.0,99.0
298,150.68359375,151.3046875,73.0,96.0
299,151.38671875,151.560546875,73.0,94.0
300,151.62109375,151.748046875,73.0,99.0
301,151.85546875,152.00390625,70.0,93.0
302,152.08984375,152.21875,68.0,94.0
303,152.32421875,152.484375,66.0,94.0
304,152.55859375,152.87109375,68.0,94.0
305,153.02734375,153.15625,68.0,93.0
306,153.26171875,153.431640625,70.0,93.0
307,153.49609375,153.884765625,71.0,94.0
308,153.96484375,154.431640625,70.0,96.0
309,154.43359375,154.861328125,68.0,89.0
310,154.90234375,155.23046875,70.0,96.0
311,155.37109375,155.80078125,68.0,94.0
312,155.83984375,156.0234375,66.0,94.0
313,156.07421875,156.78515625,68.0,94.0
314,156.77734375,158.59765625,66.0,88.0
315,159.12109375,159.3828125,62.0,101.0
316,159.35546875,159.529296875,64.0,94.0
317,159.58984375,159.759765625,67.0,95.0
318,159.82421875,160.107421875,64.0,96.0
319,160.05859375,160.3828125,67.0,92.0
320,160.52734375,160.716796875,67.0,96.0
321,160.76171875,160.91796875,69.0,94.0
322,160.99609375,161.322265625,71.0,98.0
323,161.46484375,161.865234375,76.0,98.0
324,161.93359375,162.55078125,74.0,106.0
325,162.63671875,162.796875,74.0,94.0
326,162.87109375,163.017578125,74.0,103.0
327,163.10546875,163.28515625,71.0,93.0
328,163.33984375,163.466796875,69.0,94.0
329,163.57421875,163.73828125,67.0,92.0
330,163.80859375,164.166015625,69.0,92.0
331,164.27734375,164.421875,69.0,94.0
332,164.51171875,164.66015625,71.0,93.0
333,164.74609375,165.1015625,69.0,92.0
334,165.21484375,165.572265625,67.0,94.0
335,165.68359375,166.376953125,62.0,94.0
336,166.62109375,166.767578125,62.0,94.0
337,166.85546875,167.0234375,64.0,98.0
338,167.08984375,167.2421875,67.0,93.0
339,167.32421875,167.470703125,64.0,94.0
340,167.55859375,167.890625,67.0,93.0
341,168.02734375,168.169921875,67.0,92.0
342,168.26171875,168.4453125,69.0,93.0
343,168.49609375,168.806640625,71.0,92.0
344,168.96484375,169.3359375,76.0,99.0
345,169.43359375,170.0546875,74.0,96.0
346,170.13671875,170.310546875,74.0,94.0
347,170.37109375,170.498046875,74.0,99.0
348,170.60546875,170.75390625,71.0,93.0
349,170.83984375,170.96875,69.0,94.0
350,171.07421875,171.234375,67.0,94.0
351,171.30859375,171.62109375,69.0,94.0
352,171.77734375,171.90625,69.0,93.0
353,172.01171875,172.181640625,71.0,93.0
354,172.24609375,172.625,69.0,98.0
355,172.71484375,173.126953125,67.0,93.0
356,173.18359375,173.90625,69.0,93.0
357,174.12109375,174.3828125,62.0,101.0
358,174.35546875,174.529296875,64.0,94.0
359,174.58984375,174.759765625,67.0,95.0
360,174.82421875,175.107421875,64.0,96.0
361,175.05859375,175.3828125,67.0,92.0
362,175.52734375,175.716796875,67.0,96.0
363,175.76171875,175.91796875,69.0,94.0
364,175.99609375,176.322265625,71.0,98.0
365,176.46484375,176.865234375,76.0,98.0
366,176.93359375,177.55078125,74.0,106.0
367,177.63671875,177.796875,74.0,94.0
368,177.87109375,178.017578125,74.0,103.0
369,178.10546875,178.28515625,71.0,93.0
370,178.33984375,178.466796875,69.0,94.0
371,178.57421875,178.73828125,67.0,92.0
372,178.80859375,179.166015625,69.0,92.0
373,179.27734375,179.421875,69.0,94.0
374,179.51171875,179.66015625,71.0,93.0
375,179.74609375,180.1015625,69.0,92.0
376,180.21484375,180.572265625,67.0,94.0
377,180.68359375,181.376953125,62.0,94.0
378,181.62109375,181.767578125,62.0,94.0
379,181.85546875,182.0234375,64.0,98.0
380,182.08984375,182.2421875,67.0,93.0
381,182.32421875,182.470703125,64.0,94.0
382,182.55859375,182.890625,67.0,93.0
383,183.02734375,183.169921875,67.0,92.0
384,183.26171875,183.4453125,69.0,93.0
385,183.49609375,183.806640625,71.0,92.0
386,183.96484375,184.3359375,76.0,99.0
387,184.43359375,185.0546875,74.0,96.0
388,185.13671875,185.310546875,74.0,94.0
389,185.37109375,185.498046875,74.0,99.0
390,185.60546875,185.75390625,71.0,93.0
391,185.83984375,185.96875,69.0,94.0
392,186.07421875,186.234375,67.0,94.0
393,186.30859375,186.62109375,69.0,94.0
394,186.77734375,186.90625,69.0,93.0
395,187.01171875,187.181640625,71.0,93.0
396,187.24609375,187.634765625,72.0,94.0
397,187.71484375,188.181640625,71.0,96.0
398,188.18359375,188.611328125,69.0,89.0
399,188.65234375,188.98046875,71.0,96.0
400,189.12109375,189.55078125,69.0,94.0
401,189.58984375,189.7734375,67.0,94.0
402,189.82421875,190.53515625,69.0,94.0
403,190.52734375,192.34765625,67.0,88.0
