,start,end,pitch,velocity
0,4.337890625,4.591796875,56.0,76.0
1,4.57421875,4.78515625,58.0,79.0
2,4.837890625,5.04296875,61.0,73.0
3,5.263671875,5.515625,66.0,62.0
4,5.6796875,5.927734375,68.0,78.0
5,6.12890625,6.373046875,70.0,75.0
6,6.615234375,6.751953125,73.0,86.0
7,7.15625,7.384765625,78.0,66.0
8,7.677734375,7.9140625,80.0,71.0
9,8.302734375,8.47265625,82.0,77.0
10,4.060546875,8.806640625,49.0,76.0
11,3.578125,8.869140625,42.0,88.0
12,13.009765625,13.25390625,59.0,77.0
13,13.2421875,13.40234375,61.0,87.0
14,13.4609375,13.7109375,63.0,91.0
15,13.67578125,13.93359375,66.0,81.0
16,13.93359375,14.138671875,71.0,83.0
17,14.333984375,14.55078125,73.0,66.0
18,14.77734375,14.947265625,75.0,81.0
19,15.216796875,15.31640625,71.0,56.0
20,15.251953125,15.37890625,78.0,81.0
21,12.76171875,16.53515625,54.0,68.0
22,12.408203125,16.615234375,47.0,83.0
23,17.55859375,18.107421875,61.0,91.0
24,18.26171875,18.623046875,58.0,82.0
25,17.55859375,18.642578125,54.0,89.0
26,18.02734375,18.869140625,49.0,83.0
27,17.55859375,18.99609375,42.0,92.0
28,18.49609375,19.00390625,66.0,95.0
29,18.73046875,19.013671875,61.0,93.0
30,18.96484375,19.06640625,58.0,92.0
31,19.43359375,19.75,61.0,91.0
32,19.43359375,20.173828125,65.0,93.0
33,20.13671875,20.416015625,56.0,87.0
34,20.37109375,20.64453125,61.0,94.0
35,19.90234375,20.6484375,44.0,78.0
36,19.43359375,20.662109375,37.0,97.0
37,20.60546875,20.90625,56.0,90.0
38,20.83984375,21.05078125,65.0,92.0
39,21.30859375,21.794921875,63.0,91.0
40,21.30859375,21.828125,66.0,86.0
41,22.01171875,22.466796875,63.0,98.0
42,22.48046875,22.5234375,63.0,75.0
43,21.77734375,22.67578125,46.0,71.0
44,22.48046875,22.75,70.0,93.0
45,21.30859375,22.833984375,39.0,93.0
46,22.71484375,22.94921875,66.0,86.0
47,22.94921875,23.044921875,63.0,87.0
48,23.18359375,23.31640625,37.0,94.0
49,23.18359375,23.947265625,61.0,88.0
50,23.18359375,24.01171875,65.0,83.0
51,24.12109375,24.427734375,61.0,94.0
52,23.88671875,24.50390625,56.0,87.0
53,23.65234375,24.568359375,49.0,71.0
54,24.35546875,24.685546875,68.0,86.0
55,24.58984375,24.779296875,61.0,87.0
56,25.05859375,25.373046875,59.0,86.0
57,25.05859375,25.611328125,66.0,86.0
58,25.52734375,25.81640625,59.0,93.0
59,25.76171875,26.150390625,61.0,94.0
60,26.23046875,26.36328125,59.0,92.0
61,25.29296875,26.462890625,54.0,85.0
62,26.23046875,26.552734375,66.0,93.0
63,25.05859375,26.615234375,47.0,94.0
64,26.46484375,26.802734375,59.0,87.0
65,26.69921875,27.33984375,66.0,88.0
66,27.16796875,27.57421875,58.0,83.0
67,27.40234375,27.583984375,61.0,84.0
68,27.63671875,27.787109375,61.0,85.0
69,26.93359375,27.83984375,46.0,93.0
70,27.63671875,28.392578125,65.0,93.0
71,28.33984375,28.435546875,53.0,80.0
72,28.57421875,28.64453125,58.0,78.0
73,28.80859375,29.30078125,56.0,90.0
74,28.80859375,29.341796875,59.0,87.0
75,29.51171875,29.609375,56.0,84.0
76,29.74609375,29.83203125,59.0,93.0
77,29.27734375,29.841796875,51.0,81.0
78,29.74609375,29.849609375,56.0,92.0
79,28.80859375,29.853515625,44.0,93.0
80,30.21484375,32.5,54.0,91.0
81,30.21484375,32.513671875,58.0,92.0
82,30.21484375,32.54296875,42.0,93.0
83,33.02734375,33.7890625,61.0,82.0
84,32.55859375,34.30859375,42.0,89.0
85,32.79296875,34.373046875,49.0,80.0
86,34.43359375,35.037109375,42.0,93.0
87,33.26171875,35.193359375,66.0,88.0
88,34.90234375,35.21875,54.0,96.0
89,34.66796875,35.3984375,49.0,84.0
90,35.13671875,35.87109375,61.0,96.0
91,35.60546875,35.9609375,49.0,85.0
92,35.37109375,35.97265625,41.0,88.0
93,35.83984375,36.310546875,54.0,83.0
94,37.01171875,37.42578125,54.0,83.0
95,36.77734375,37.517578125,51.0,82.0
96,36.30859375,37.998046875,39.0,96.0
97,36.54296875,38.021484375,46.0,78.0
98,38.41796875,38.69140625,46.0,88.0
99,38.18359375,38.701171875,39.0,93.0
100,38.18359375,38.705078125,63.0,94.0
101,38.65234375,38.83203125,51.0,97.0
102,39.12109375,39.498046875,37.0,96.0
103,39.35546875,39.556640625,44.0,84.0
104,39.12109375,39.595703125,61.0,92.0
105,39.58984375,39.84765625,56.0,91.0
106,39.82421875,40.02734375,61.0,93.0
107,40.05859375,40.39453125,59.0,90.0
108,40.52734375,40.669921875,59.0,92.0
109,40.76171875,41.296875,59.0,89.0
110,40.76171875,41.32421875,63.0,93.0
111,40.29296875,41.421875,54.0,80.0
112,40.05859375,41.44921875,47.0,93.0
113,41.93359375,42.23046875,61.0,92.0
114,42.16796875,42.494140625,56.0,87.0
115,42.40234375,42.67578125,61.0,86.0
116,42.63671875,43.12890625,65.0,96.0
117,41.93359375,43.208984375,49.0,91.0
118,43.80859375,44.05078125,56.0,81.0
119,43.80859375,44.205078125,59.0,86.0
120,44.27734375,44.849609375,56.0,87.0
121,44.51171875,44.9765625,63.0,92.0
122,44.04296875,45.53515625,51.0,86.0
123,43.80859375,45.546875,44.0,92.0
124,44.98046875,45.65625,68.0,91.0
125,45.68359375,45.986328125,56.0,88.0
126,46.15234375,46.453125,56.0,90.0
127,45.68359375,46.45703125,65.0,86.0
128,46.38671875,46.494140625,61.0,85.0
129,45.68359375,46.603515625,49.0,94.0
130,46.62109375,47.015625,61.0,96.0
131,46.62109375,47.095703125,56.0,94.0
132,47.55859375,47.8203125,54.0,87.0
133,47.55859375,48.052734375,58.0,86.0
134,48.02734375,48.783203125,54.0,86.0
135,48.26171875,48.798828125,61.0,90.0
136,47.79296875,49.05078125,49.0,82.0
137,47.55859375,49.12890625,42.0,93.0
138,49.43359375,49.703125,54.0,86.0
139,49.43359375,49.91796875,58.0,85.0
140,49.43359375,49.91796875,61.0,90.0
141,49.43359375,49.970703125,42.0,91.0
142,49.90234375,50.068359375,54.0,96.0
143,49.66796875,50.083984375,49.0,82.0
144,50.37109375,50.6640625,56.0,86.0
145,50.37109375,50.80859375,61.0,87.0
146,50.37109375,50.87109375,41.0,88.0
147,50.60546875,50.9140625,49.0,87.0
148,50.83984375,51.11328125,56.0,82.0
149,51.07421875,51.306640625,61.0,84.0
150,51.77734375,51.916015625,54.0,88.0
151,51.30859375,53.025390625,39.0,95.0
152,52.01171875,53.048828125,54.0,91.0
153,52.01171875,53.060546875,58.0,88.0
154,51.54296875,53.06640625,46.0,79.0
155,53.18359375,53.419921875,54.0,85.0
156,53.18359375,53.634765625,58.0,86.0
157,53.41796875,53.728515625,46.0,82.0
158,53.18359375,53.744140625,39.0,92.0
159,53.65234375,53.76953125,54.0,91.0
160,54.12109375,54.384765625,37.0,93.0
161,54.12109375,54.53515625,56.0,88.0
162,54.12109375,54.615234375,61.0,91.0
163,55.05859375,55.1875,54.0,84.0
164,55.05859375,55.369140625,59.0,85.0
165,55.29296875,55.630859375,54.0,86.0
166,55.52734375,55.712890625,59.0,88.0
167,55.76171875,56.13671875,54.0,92.0
168,55.76171875,56.24609375,59.0,73.0
169,55.05859375,56.267578125,47.0,90.0
170,55.76171875,56.27734375,63.0,92.0
171,56.93359375,57.197265625,58.0,88.0
172,56.93359375,57.44140625,61.0,87.0
173,57.40234375,57.595703125,58.0,92.0
174,57.16796875,58.015625,53.0,81.0
175,57.63671875,58.0703125,65.0,95.0
176,56.93359375,58.33203125,46.0,92.0
177,58.80859375,59.04296875,56.0,85.0
178,58.80859375,59.26953125,59.0,87.0
179,59.27734375,59.419921875,56.0,89.0
180,59.51171875,60.220703125,59.0,93.0
181,59.04296875,60.25,51.0,83.0
182,58.80859375,60.3203125,44.0,92.0
183,60.21484375,60.494140625,63.0,96.0
184,60.44921875,60.51953125,56.0,76.0
185,60.68359375,60.859375,56.0,90.0
186,60.68359375,60.916015625,61.0,92.0
187,61.15234375,61.232421875,61.0,93.0
188,60.91796875,61.505859375,44.0,83.0
189,61.38671875,61.724609375,61.0,95.0
190,61.38671875,61.806640625,65.0,95.0
191,61.62109375,62.12109375,44.0,86.0
192,62.08984375,62.14453125,61.0,75.0
193,60.68359375,62.169921875,37.0,94.0
194,62.55859375,62.72265625,61.0,92.0
195,62.79296875,63.056640625,61.0,91.0
196,62.55859375,63.0625,70.0,93.0
197,63.02734375,63.16015625,66.0,85.0
198,63.26171875,63.572265625,61.0,96.0
199,63.26171875,63.626953125,68.0,94.0
200,63.49609375,63.814453125,49.0,78.0
201,62.55859375,63.86328125,42.0,89.0
202,63.73046875,63.87890625,61.0,95.0
203,63.73046875,63.884765625,66.0,92.0
204,64.43359375,64.779296875,61.0,92.0
205,64.43359375,64.9140625,68.0,92.0
206,65.13671875,65.443359375,65.0,93.0
207,65.13671875,65.6640625,68.0,93.0
208,64.90234375,65.666015625,44.0,73.0
209,64.43359375,65.7109375,37.0,95.0
210,65.60546875,65.853515625,61.0,96.0
211,65.83984375,66.06640625,73.0,97.0
212,66.30859375,66.537109375,63.0,91.0
213,66.30859375,66.75390625,66.0,88.0
214,66.77734375,66.87890625,63.0,91.0
215,67.01171875,67.212890625,63.0,97.0
216,67.01171875,67.322265625,70.0,94.0
217,66.54296875,67.560546875,46.0,81.0
218,67.48046875,67.59375,66.0,93.0
219,66.30859375,67.59765625,39.0,94.0
220,67.48046875,67.609375,63.0,97.0
221,68.18359375,68.615234375,37.0,95.0
222,68.18359375,68.705078125,61.0,92.0
223,68.18359375,68.708984375,65.0,87.0
224,68.65234375,68.728515625,56.0,94.0
225,69.12109375,69.373046875,61.0,91.0
226,69.12109375,69.669921875,64.0,92.0
227,69.12109375,69.98828125,42.0,88.0
228,69.58984375,70.01953125,61.0,98.0
229,70.05859375,70.357421875,59.0,92.0
230,70.05859375,70.517578125,66.0,89.0
231,70.52734375,70.640625,59.0,93.0
232,70.29296875,71.201171875,54.0,86.0
233,70.76171875,71.447265625,59.0,93.0
234,70.76171875,71.51171875,63.0,93.0
235,70.76171875,71.69140625,66.0,92.0
236,70.05859375,71.736328125,47.0,94.0
237,71.46484375,71.767578125,54.0,89.0
238,71.69921875,71.80078125,59.0,93.0
239,71.93359375,72.125,58.0,93.0
240,71.93359375,72.474609375,61.0,89.0
241,72.40234375,72.48828125,58.0,94.0
242,72.63671875,72.93359375,58.0,93.0
243,72.63671875,73.01171875,65.0,92.0
244,71.93359375,73.14453125,46.0,93.0
245,73.10546875,73.201171875,58.0,92.0
246,72.87109375,73.21484375,53.0,90.0
247,73.10546875,73.33984375,61.0,92.0
248,73.33984375,73.615234375,58.0,89.0
249,73.57421875,73.66015625,61.0,82.0
250,73.80859375,74.041015625,56.0,85.0
251,73.80859375,74.302734375,59.0,92.0
252,74.27734375,74.40625,56.0,88.0
253,74.04296875,74.6953125,51.0,83.0
254,74.51171875,74.822265625,54.0,101.0
255,74.51171875,74.833984375,59.0,94.0
256,74.98046875,75.208984375,54.0,94.0
257,74.98046875,75.23828125,59.0,99.0
258,74.98046875,75.26953125,63.0,96.0
259,73.80859375,75.30078125,44.0,93.0
260,75.21484375,75.326171875,51.0,86.0
261,75.44921875,75.578125,56.0,88.0
262,75.68359375,75.787109375,37.0,97.0
263,75.68359375,75.994140625,56.0,87.0
264,75.68359375,76.09375,61.0,92.0
265,76.62109375,76.759765625,61.0,101.0
266,76.85546875,76.97265625,65.0,96.0
267,76.38671875,77.13671875,56.0,96.0
268,77.08984375,77.513671875,61.0,98.0
269,77.32421875,77.533203125,56.0,94.0
270,76.15234375,77.54296875,49.0,87.0
271,77.55859375,77.72265625,61.0,92.0
272,77.79296875,78.056640625,61.0,91.0
273,77.55859375,78.0625,70.0,93.0
274,78.02734375,78.16015625,66.0,85.0
275,78.26171875,78.572265625,61.0,96.0
276,78.26171875,78.626953125,68.0,94.0
277,78.49609375,78.814453125,49.0,78.0
278,77.55859375,78.86328125,42.0,89.0
279,78.73046875,78.87890625,61.0,95.0
280,78.73046875,78.884765625,66.0,92.0
281,79.43359375,79.779296875,61.0,92.0
282,79.43359375,79.9140625,68.0,92.0
283,80.13671875,80.443359375,65.0,93.0
284,80.13671875,80.6640625,68.0,93.0
285,79.90234375,80.666015625,44.0,73.0
286,79.43359375,80.7109375,37.0,95.0
287,80.60546875,80.853515625,61.0,96.0
288,80.83984375,81.06640625,73.0,97.0
289,81.30859375,81.537109375,63.0,91.0
290,81.30859375,81.75390625,66.0,88.0
291,81.77734375,81.87890625,63.0,91.0
292,82.01171875,82.212890625,63.0,97.0
293,82.01171875,82.322265625,70.0,94.0
294,81.54296875,82.560546875,46.0,81.0
295,82.48046875,82.59375,66.0,93.0
296,81.30859375,82.59765625,39.0,94.0
297,82.48046875,82.609375,63.0,97.0
298,83.18359375,83.615234375,37.0,95.0
299,83.18359375,83.705078125,61.0,92.0
300,83.18359375,83.708984375,65.0,87.0
301,83.65234375,83.728515625,56.0,94.0
302,84.12109375,84.373046875,61.0,91.0
303,84.12109375,84.669921875,64.0,92.0
304,84.12109375,84.98828125,42.0,88.0
305,84.58984375,85.01953125,61.0,98.0
306,85.05859375,85.357421875,59.0,92.0
307,85.05859375,85.517578125,66.0,89.0
308,85.52734375,85.640625,59.0,93.0
309,85.29296875,86.201171875,54.0,86.0
310,85.76171875,86.447265625,59.0,93.0
311,85.76171875,86.51171875,63.0,93.0
312,85.76171875,86.69140625,66.0,92.0
313,85.05859375,86.736328125,47.0,94.0
314,86.46484375,86.767578125,54.0,89.0
315,86.69921875,86.80078125,59.0,93.0
316,86.93359375,87.125,58.0,93.0
317,86.93359375,87.474609375,61.0,89.0
318,87.40234375,87.48828125,58.0,94.0
319,87.63671875,87.93359375,58.0,93.0
320,87.63671875,88.01171875,65.0,92.0
321,86.93359375,88.14453125,46.0,93.0
322,88.10546875,88.201171875,58.0,92.0
323,87.87109375,88.21484375,53.0,90.0
324,88.10546875,88.33984375,61.0,92.0
325,88.33984375,88.615234375,58.0,89.0
326,88.57421875,88.66015625,61.0,82.0
327,88.80859375,89.041015625,56.0,85.0
328,88.80859375,89.302734375,59.0,92.0
329,89.27734375,89.40625,56.0,88.0
330,89.04296875,89.6953125,51.0,83.0
331,89.51171875,89.822265625,54.0,101.0
332,89.51171875,89.833984375,59.0,94.0
333,89.98046875,90.208984375,54.0,94.0
334,89.98046875,90.23828125,59.0,99.0
335,89.98046875,90.26953125,63.0,96.0
336,88.80859375,90.30078125,44.0,93.0
337,90.21484375,90.326171875,51.0,86.0
338,90.44921875,90.578125,56.0,88.0
339,90.68359375,90.787109375,37.0,97.0
340,90.68359375,90.994140625,56.0,87.0
341,90.68359375,91.09375,61.0,92.0
342,91.62109375,91.759765625,61.0,101.0
343,91.85546875,91.97265625,65.0,96.0
344,91.38671875,92.13671875,56.0,96.0
345,92.08984375,92.513671875,61.0,98.0
346,92.32421875,92.533203125,56.0,94.0
347,91.15234375,92.54296875,49.0,87.0
348,93.02734375,93.294921875,54.0,88.0
349,92.55859375,93.330078125,61.0,92.0
350,93.26171875,93.42578125,66.0,92.0
351,93.73046875,93.935546875,61.0,82.0
352,93.73046875,93.9609375,70.0,88.0
353,92.79296875,94.25,49.0,77.0
354,94.19921875,94.310546875,61.0,62.0
355,92.55859375,94.31640625,42.0,91.0
356,94.43359375,95.818359375,42.0,88.0
357,94.43359375,96.203125,61.0,86.0
358,94.43359375,96.228515625,66.0,84.0
359,96.30859375,96.560546875,59.0,83.0
360,96.30859375,96.7109375,63.0,92.0
361,96.77734375,96.916015625,59.0,85.0
362,97.01171875,97.23828125,59.0,81.0
363,97.01171875,97.2421875,63.0,89.0
364,96.54296875,98.025390625,54.0,81.0
365,96.30859375,98.033203125,47.0,92.0
366,98.18359375,98.52734375,59.0,87.0
367,98.18359375,98.953125,66.0,88.0
368,98.65234375,98.98828125,59.0,88.0
369,98.88671875,99.01953125,63.0,92.0
370,98.41796875,99.197265625,54.0,84.0
371,98.18359375,99.240234375,47.0,93.0
372,100.05859375,100.326171875,58.0,86.0
373,100.05859375,100.544921875,61.0,89.0
374,100.52734375,100.693359375,58.0,83.0
375,100.76171875,100.958984375,61.0,89.0
376,100.76171875,100.966796875,58.0,90.0
377,100.76171875,100.96875,65.0,87.0
378,100.05859375,101.583984375,46.0,92.0
379,100.29296875,101.833984375,53.0,79.0
380,101.93359375,101.982421875,61.0,61.0
381,102.16796875,102.78515625,53.0,79.0
382,101.93359375,102.8046875,70.0,93.0
383,102.40234375,102.947265625,65.0,88.0
384,102.63671875,102.962890625,58.0,93.0
385,103.10546875,103.185546875,61.0,95.0
386,101.93359375,103.2421875,46.0,92.0
387,103.80859375,104.05078125,56.0,82.0
388,103.80859375,104.294921875,59.0,86.0
389,104.27734375,104.380859375,56.0,85.0
390,104.51171875,104.541015625,59.0,78.0
391,104.51171875,104.802734375,56.0,92.0
392,104.51171875,104.837890625,63.0,92.0
393,104.04296875,105.41796875,51.0,79.0
394,103.80859375,105.462890625,44.0,90.0
395,105.68359375,105.93359375,56.0,76.0
396,105.68359375,106.119140625,59.0,84.0
397,106.15234375,106.48828125,56.0,89.0
398,106.38671875,106.572265625,59.0,98.0
399,106.85546875,106.923828125,59.0,81.0
400,105.91796875,106.9296875,51.0,82.0
401,106.85546875,106.9375,56.0,81.0
402,106.85546875,106.94140625,63.0,84.0
403,105.68359375,106.966796875,44.0,88.0
404,107.55859375,107.693359375,37.0,92.0
405,107.55859375,108.232421875,61.0,83.0
406,107.55859375,108.416015625,65.0,81.0
407,108.49609375,108.724609375,61.0,95.0
408,108.73046875,108.869140625,68.0,93.0
409,108.26171875,109.169921875,56.0,82.0
410,108.02734375,109.212890625,49.0,89.0
411,109.43359375,109.64453125,61.0,89.0
412,109.43359375,109.716796875,73.0,93.0
413,109.90234375,109.994140625,61.0,94.0
414,109.66796875,110.234375,56.0,83.0
415,110.13671875,110.4140625,65.0,99.0
416,110.13671875,110.427734375,61.0,99.0
417,110.13671875,110.439453125,68.0,97.0
418,110.37109375,110.74609375,56.0,93.0
419,110.60546875,110.8359375,61.0,93.0
420,109.43359375,111.16796875,49.0,93.0
421,110.83984375,111.216796875,53.0,85.0
422,110.60546875,111.224609375,65.0,95.0
423,111.07421875,111.28125,56.0,82.0
424,110.60546875,111.28125,73.0,95.0
425,110.60546875,111.28515625,68.0,96.0
426,111.30859375,111.5703125,54.0,87.0
427,111.30859375,111.802734375,58.0,86.0
428,111.77734375,112.533203125,54.0,86.0
429,112.01171875,112.548828125,61.0,90.0
430,111.54296875,112.80078125,49.0,82.0
431,111.30859375,112.87890625,42.0,93.0
432,113.18359375,113.453125,54.0,86.0
433,113.18359375,113.66796875,58.0,85.0
434,113.18359375,113.66796875,61.0,90.0
435,113.18359375,113.720703125,42.0,91.0
436,113.65234375,113.818359375,54.0,96.0
437,113.41796875,113.833984375,49.0,82.0
438,114.12109375,114.4140625,56.0,86.0
439,114.12109375,114.55859375,61.0,87.0
440,114.12109375,114.62109375,41.0,88.0
441,114.35546875,114.6640625,49.0,87.0
442,114.58984375,114.86328125,56.0,82.0
443,114.82421875,115.056640625,61.0,84.0
444,115.52734375,115.666015625,54.0,88.0
445,115.05859375,116.775390625,39.0,95.0
446,115.76171875,116.798828125,54.0,91.0
447,115.76171875,116.810546875,58.0,88.0
448,115.29296875,116.81640625,46.0,79.0
449,116.93359375,117.169921875,54.0,85.0
450,116.93359375,117.384765625,58.0,86.0
451,117.16796875,117.478515625,46.0,82.0
452,116.93359375,117.494140625,39.0,92.0
453,117.40234375,117.51953125,54.0,91.0
454,117.87109375,118.134765625,37.0,93.0
455,117.87109375,118.28515625,56.0,88.0
456,117.87109375,118.365234375,61.0,91.0
457,118.80859375,118.9375,54.0,84.0
458,118.80859375,119.119140625,59.0,85.0
459,119.04296875,119.380859375,54.0,86.0
460,119.27734375,119.462890625,59.0,88.0
461,119.51171875,119.88671875,54.0,92.0
462,119.51171875,119.99609375,59.0,73.0
463,118.80859375,120.017578125,47.0,90.0
464,119.51171875,120.02734375,63.0,92.0
465,120.68359375,120.947265625,58.0,88.0
466,120.68359375,121.19140625,61.0,87.0
467,121.15234375,121.345703125,58.0,92.0
468,120.91796875,121.765625,53.0,81.0
469,121.38671875,121.8203125,65.0,95.0
470,120.68359375,122.08203125,46.0,92.0
471,122.55859375,122.79296875,56.0,85.0
472,122.55859375,123.01953125,59.0,87.0
473,123.02734375,123.169921875,56.0,89.0
474,123.26171875,123.970703125,59.0,93.0
475,122.79296875,124.0,51.0,83.0
476,122.55859375,124.0703125,44.0,92.0
477,123.96484375,124.244140625,63.0,96.0
478,124.19921875,124.26953125,56.0,76.0
479,124.43359375,124.609375,56.0,90.0
480,124.43359375,124.666015625,61.0,92.0
481,124.90234375,124.982421875,61.0,93.0
482,124.66796875,125.255859375,44.0,83.0
483,125.13671875,125.474609375,61.0,95.0
484,125.13671875,125.556640625,65.0,95.0
485,125.37109375,125.87109375,44.0,86.0
486,125.83984375,125.89453125,61.0,75.0
487,124.43359375,125.919921875,37.0,94.0
488,126.30859375,126.47265625,61.0,92.0
489,126.54296875,126.806640625,61.0,91.0
490,126.30859375,126.8125,70.0,93.0
491,126.77734375,126.91015625,66.0,85.0
492,127.01171875,127.322265625,61.0,96.0
493,127.01171875,127.376953125,68.0,94.0
494,127.24609375,127.564453125,49.0,78.0
495,126.30859375,127.61328125,42.0,89.0
496,127.48046875,127.62890625,61.0,95.0
497,127.48046875,127.634765625,66.0,92.0
498,128.18359375,128.529296875,61.0,92.0
499,128.18359375,128.6640625,68.0,92.0
500,128.88671875,129.193359375,65.0,93.0
501,128.88671875,129.4140625,68.0,93.0
502,128.65234375,129.416015625,44.0,73.0
503,128.18359375,129.4609375,37.0,95.0
504,129.35546875,129.603515625,61.0,96.0
505,129.58984375,129.81640625,73.0,97.0
506,130.05859375,130.287109375,63.0,91.0
507,130.05859375,130.50390625,66.0,88.0
508,130.52734375,130.62890625,63.0,91.0
509,130.76171875,130.962890625,63.0,97.0
510,130.76171875,131.072265625,70.0,94.0
511,130.29296875,131.310546875,46.0,81.0
512,131.23046875,131.34375,66.0,93.0
513,130.05859375,131.34765625,39.0,94.0
514,131.23046875,131.359375,63.0,97.0
515,131.93359375,132.365234375,37.0,95.0
516,131.93359375,132.455078125,61.0,92.0
517,131.93359375,132.458984375,65.0,87.0
518,132.40234375,132.478515625,56.0,94.0
519,132.87109375,133.123046875,61.0,91.0
520,132.87109375,133.419921875,64.0,92.0
521,132.87109375,133.73828125,42.0,88.0
522,133.33984375,133.76953125,61.0,98.0
523,133.80859375,134.107421875,59.0,92.0
524,133.80859375,134.267578125,66.0,89.0
525,134.27734375,134.390625,59.0,93.0
526,134.04296875,134.951171875,54.0,86.0
527,134.51171875,135.197265625,59.0,93.0
528,134.51171875,135.26171875,63.0,93.0
529,134.51171875,135.44140625,66.0,92.0
530,133.80859375,135.486328125,47.0,94.0
531,135.21484375,135.517578125,54.0,89.0
532,135.44921875,135.55078125,59.0,93.0
533,135.68359375,135.875,58.0,93.0
534,135.68359375,136.224609375,61.0,89.0
535,136.15234375,136.23828125,58.0,94.0
536,136.38671875,136.68359375,58.0,93.0
537,136.38671875,136.76171875,65.0,92.0
538,135.68359375,136.89453125,46.0,93.0
539,136.85546875,136.951171875,58.0,92.0
540,136.62109375,136.96484375,53.0,90.0
541,136.85546875,137.08984375,61.0,92.0
542,137.08984375,137.365234375,58.0,89.0
543,137.32421875,137.41015625,61.0,82.0
544,137.55859375,137.791015625,56.0,85.0
545,137.55859375,138.052734375,59.0,92.0
546,138.02734375,138.15625,56.0,88.0
547,137.79296875,138.4453125,51.0,83.0
548,138.26171875,138.572265625,54.0,101.0
549,138.26171875,138.583984375,59.0,94.0
550,138.73046875,138.958984375,54.0,94.0
551,138.73046875,138.98828125,59.0,99.0
552,138.73046875,139.01953125,63.0,96.0
553,137.55859375,139.05078125,44.0,93.0
554,138.96484375,139.076171875,51.0,86.0
555,139.19921875,139.328125,56.0,88.0
556,139.43359375,139.537109375,37.0,97.0
557,139.43359375,139.744140625,56.0,87.0
558,139.43359375,139.84375,61.0,92.0
559,140.37109375,140.509765625,61.0,101.0
560,140.60546875,140.72265625,65.0,96.0
561,140.13671875,140.88671875,56.0,96.0
562,140.83984375,141.263671875,61.0,98.0
563,141.07421875,141.283203125,56.0,94.0
564,139.90234375,141.29296875,49.0,87.0
565,141.30859375,141.47265625,61.0,92.0
566,141.54296875,141.806640625,61.0,91.0
567,141.30859375,141.8125,70.0,93.0
568,141.77734375,141.91015625,66.0,85.0
569,142.01171875,142.322265625,61.0,96.0
570,142.01171875,142.376953125,68.0,94.0
571,142.24609375,142.564453125,49.0,78.0
572,141.30859375,142.61328125,42.0,89.0
573,142.48046875,142.62890625,61.0,95.0
574,142.48046875,142.634765625,66.0,92.0
575,143.18359375,143.529296875,61.0,92.0
576,143.18359375,143.6640625,68.0,92.0
577,143.88671875,144.193359375,65.0,93.0
578,143.88671875,144.4140625,68.0,93.0
579,143.65234375,144.416015625,44.0,73.0
580,143.18359375,144.4609375,37.0,95.0
581,144.35546875,144.603515625,61.0,96.0
582,144.58984375,144.81640625,73.0,97.0
583,145.05859375,145.287109375,63.0,91.0
584,145.05859375,145.50390625,66.0,88.0
585,145.52734375,145.62890625,63.0,91.0
586,145.76171875,145.962890625,63.0,97.0
587,145.76171875,146.072265625,70.0,94.0
588,145.29296875,146.310546875,46.0,81.0
589,146.23046875,146.34375,66.0,93.0
590,145.05859375,146.34765625,39.0,94.0
591,146.23046875,146.359375,63.0,97.0
592,146.93359375,147.365234375,37.0,95.0
593,146.93359375,147.455078125,61.0,92.0
594,146.93359375,147.458984375,65.0,87.0
595,147.40234375,147.478515625,56.0,94.0
596,147.87109375,148.123046875,61.0,91.0
597,147.87109375,148.419921875,64.0,92.0
598,147.87109375,148.73828125,42.0,88.0
599,148.33984375,148.76953125,61.0,98.0
600,148.80859375,149.107421875,59.0,92.0
601,148.80859375,149.267578125,66.0,89.0
602,149.27734375,149.390625,59.0,93.0
603,149.04296875,149.951171875,54.0,86.0
604,149.51171875,150.197265625,59.0,93.0
605,149.51171875,150.26171875,63.0,93.0
606,149.51171875,150.44140625,66.0,92.0
607,148.80859375,150.486328125,47.0,94.0
608,150.21484375,150.517578125,54.0,89.0
609,150.44921875,150.55078125,59.0,93.0
610,150.68359375,150.875,58.0,93.0
611,150.68359375,151.224609375,61.0,89.0
612,151.15234375,151.23828125,58.0,94.0
613,151.38671875,151.68359375,58.0,93.0
614,151.38671875,151.76171875,65.0,92.0
615,150.68359375,151.89453125,46.0,93.0
616,151.85546875,151.951171875,58.0,92.0
617,151.62109375,151.96484375,53.0,90.0
618,151.85546875,152.08984375,61.0,92.0
619,152.08984375,152.365234375,58.0,89.0
620,152.32421875,152.41015625,61.0,82.0
621,152.55859375,152.791015625,56.0,85.0
622,152.55859375,153.052734375,59.0,92.0
623,153.02734375,153.15625,56.0,88.0
624,152.79296875,153.4453125,51.0,83.0
625,153.26171875,153.572265625,54.0,101.0
626,153.26171875,153.583984375,59.0,94.0
627,153.73046875,153.958984375,54.0,94.0
628,153.73046875,153.98828125,59.0,99.0
629,153.73046875,154.01953125,63.0,96.0
630,152.55859375,154.05078125,44.0,93.0
631,153.96484375,154.076171875,51.0,86.0
632,154.19921875,154.328125,56.0,88.0
633,154.43359375,154.537109375,37.0,97.0
634,154.43359375,154.744140625,56.0,87.0
635,154.43359375,154.84375,61.0,92.0
636,155.37109375,155.509765625,61.0,101.0
637,155.60546875,155.72265625,65.0,96.0
638,155.13671875,155.88671875,56.0,96.0
639,155.83984375,156.263671875,61.0,98.0
640,156.07421875,156.283203125,56.0,94.0
641,154.90234375,156.29296875,49.0,87.0
642,156.77734375,157.044921875,54.0,88.0
643,156.30859375,157.080078125,61.0,92.0
644,157.01171875,157.17578125,66.0,92.0
645,157.48046875,157.685546875,61.0,82.0
646,157.48046875,157.7109375,70.0,88.0
647,156.54296875,158.0,49.0,77.0
648,157.94921875,158.060546875,61.0,62.0
649,156.30859375,158.06640625,42.0,91.0
650,158.18359375,158.453125,55.0,90.0
651,158.18359375,158.50390625,59.0,92.0
652,158.18359375,158.556640625,62.0,89.0
653,158.65234375,158.75390625,55.0,97.0
654,158.41796875,159.015625,50.0,81.0
655,158.88671875,159.197265625,59.0,96.0
656,158.88671875,159.205078125,62.0,93.0
657,158.88671875,159.2265625,67.0,88.0
658,158.88671875,159.2578125,55.0,98.0
659,159.35546875,159.412109375,59.0,90.0
660,159.35546875,159.65625,62.0,87.0
661,158.18359375,159.8359375,43.0,97.0
662,159.58984375,160.072265625,55.0,108.0
663,159.82421875,160.11328125,67.0,94.0
664,159.12109375,160.13671875,50.0,84.0
665,160.05859375,160.22265625,62.0,92.0
666,160.29296875,160.556640625,62.0,91.0
667,160.05859375,160.5625,71.0,93.0
668,160.52734375,160.66015625,67.0,85.0
669,160.76171875,161.072265625,62.0,96.0
670,160.76171875,161.126953125,69.0,94.0
671,160.99609375,161.314453125,50.0,78.0
672,160.05859375,161.36328125,43.0,89.0
673,161.23046875,161.37890625,62.0,95.0
674,161.23046875,161.384765625,67.0,92.0
675,161.462890625,161.8828125,43.0,97.0
676,161.93359375,162.279296875,62.0,92.0
677,161.93359375,162.4140625,69.0,92.0
678,162.63671875,162.943359375,66.0,93.0
679,162.63671875,163.1640625,69.0,93.0
680,162.40234375,163.166015625,45.0,73.0
681,161.93359375,163.2109375,38.0,95.0
682,163.10546875,163.353515625,62.0,96.0
683,163.33984375,163.56640625,74.0,97.0
684,163.80859375,164.037109375,64.0,91.0
685,163.80859375,164.25390625,67.0,88.0
686,164.27734375,164.37890625,64.0,91.0
687,164.51171875,164.712890625,64.0,97.0
688,164.51171875,164.822265625,71.0,94.0
689,164.04296875,165.060546875,47.0,81.0
690,164.98046875,165.09375,67.0,93.0
691,163.80859375,165.09765625,40.0,94.0
692,164.98046875,165.109375,64.0,97.0
693,165.203125,165.60546875,40.0,97.0
694,165.68359375,166.115234375,38.0,95.0
695,165.68359375,166.205078125,62.0,92.0
696,165.68359375,166.208984375,66.0,87.0
697,166.15234375,166.228515625,57.0,94.0
698,166.62109375,166.873046875,62.0,91.0
699,166.62109375,167.169921875,65.0,92.0
700,166.62109375,167.48828125,43.0,88.0
701,167.08984375,167.51953125,62.0,98.0
702,167.55859375,167.857421875,60.0,92.0
703,167.55859375,168.017578125,67.0,89.0
704,168.02734375,168.140625,60.0,93.0
705,167.79296875,168.701171875,55.0,86.0
706,168.26171875,168.947265625,60.0,93.0
707,168.26171875,169.01171875,64.0,93.0
708,168.26171875,169.19140625,67.0,92.0
709,167.55859375,169.236328125,48.0,94.0
710,168.96484375,169.267578125,55.0,89.0
711,169.19921875,169.30078125,60.0,93.0
712,169.43359375,169.625,59.0,93.0
713,169.43359375,169.974609375,62.0,89.0
714,169.90234375,169.98828125,59.0,94.0
715,170.13671875,170.43359375,59.0,93.0
716,170.13671875,170.51171875,66.0,92.0
717,169.43359375,170.64453125,47.0,93.0
718,170.60546875,170.701171875,59.0,92.0
719,170.37109375,170.71484375,54.0,90.0
720,170.60546875,170.83984375,62.0,92.0
721,170.83984375,171.115234375,59.0,89.0
722,171.07421875,171.16015625,62.0,82.0
723,171.30859375,171.541015625,57.0,85.0
724,171.30859375,171.802734375,60.0,92.0
725,171.77734375,171.90625,57.0,88.0
726,171.54296875,172.1953125,52.0,83.0
727,172.01171875,172.322265625,55.0,101.0
728,172.01171875,172.333984375,60.0,94.0
729,172.48046875,172.708984375,55.0,94.0
730,172.48046875,172.73828125,60.0,99.0
731,172.48046875,172.76953125,64.0,96.0
732,171.30859375,172.80078125,45.0,93.0
733,172.71484375,172.826171875,52.0,86.0
734,172.94921875,173.078125,57.0,88.0
735,173.18359375,173.287109375,38.0,97.0
736,173.18359375,173.494140625,57.0,87.0
737,173.18359375,173.59375,62.0,92.0
738,174.12109375,174.259765625,62.0,101.0
739,174.35546875,174.47265625,66.0,96.0
740,173.88671875,174.63671875,57.0,96.0
741,174.58984375,175.013671875,62.0,98.0
742,174.82421875,175.033203125,57.0,94.0
743,173.65234375,175.04296875,50.0,87.0
744,175.05859375,175.22265625,62.0,92.0
745,175.29296875,175.556640625,62.0,91.0
746,175.05859375,175.5625,71.0,93.0
747,175.52734375,175.66015625,67.0,85.0
748,175.76171875,176.072265625,62.0,96.0
749,175.76171875,176.126953125,69.0,94.0
750,175.99609375,176.314453125,50.0,78.0
751,175.05859375,176.36328125,43.0,89.0
752,176.23046875,176.37890625,62.0,95.0
753,176.23046875,176.384765625,67.0,92.0
754,176.455078125,176.8984375,43.0,97.0
755,176.93359375,177.279296875,62.0,92.0
756,176.93359375,177.4140625,69.0,92.0
757,177.63671875,177.943359375,66.0,93.0
758,177.63671875,178.1640625,69.0,93.0
759,177.40234375,178.166015625,45.0,73.0
760,176.93359375,178.2109375,38.0,95.0
761,178.10546875,178.353515625,62.0,96.0
762,178.33984375,178.56640625,74.0,97.0
763,178.80859375,179.037109375,64.0,91.0
764,178.80859375,179.25390625,67.0,88.0
765,179.27734375,179.37890625,64.0,91.0
766,179.51171875,179.712890625,64.0,97.0
767,179.51171875,179.822265625,71.0,94.0
768,179.04296875,180.060546875,47.0,81.0
769,179.98046875,180.09375,67.0,93.0
770,178.80859375,180.09765625,40.0,94.0
771,179.98046875,180.109375,64.0,97.0
772,180.21875,180.580078125,40.0,97.0
773,180.68359375,181.115234375,38.0,95.0
774,180.68359375,181.205078125,62.0,92.0
775,180.68359375,181.208984375,66.0,87.0
776,181.15234375,181.228515625,57.0,94.0
777,181.62109375,181.873046875,62.0,91.0
778,181.62109375,182.169921875,65.0,92.0
779,181.62109375,182.48828125,43.0,88.0
780,182.08984375,182.51953125,62.0,98.0
781,182.55859375,182.857421875,60.0,92.0
782,182.55859375,183.017578125,67.0,89.0
783,183.02734375,183.140625,60.0,93.0
784,182.79296875,183.701171875,55.0,86.0
785,183.26171875,183.947265625,60.0,93.0
786,183.26171875,184.01171875,64.0,93.0
787,183.26171875,184.19140625,67.0,92.0
788,182.55859375,184.236328125,48.0,94.0
789,183.96484375,184.267578125,55.0,89.0
790,184.19921875,184.30078125,60.0,93.0
791,184.43359375,184.625,59.0,93.0
792,184.43359375,184.974609375,62.0,89.0
793,184.90234375,184.98828125,59.0,94.0
794,185.13671875,185.43359375,59.0,93.0
795,185.13671875,185.51171875,66.0,92.0
796,184.43359375,185.64453125,47.0,93.0
797,185.60546875,185.701171875,59.0,92.0
798,185.37109375,185.71484375,54.0,90.0
799,185.60546875,185.83984375,62.0,92.0
800,185.83984375,186.115234375,59.0,89.0
801,186.07421875,186.16015625,62.0,82.0
802,186.30859375,186.541015625,57.0,85.0
803,186.30859375,186.802734375,60.0,92.0
804,186.5625,186.802734375,60.0,92.0
805,186.77734375,186.90625,57.0,88.0
806,186.77734375,186.90625,57.0,88.0
807,186.54296875,187.1953125,52.0,83.0
808,186.5625,187.1953125,52.0,83.0
809,187.01171875,187.322265625,55.0,101.0
810,187.01171875,187.322265625,55.0,101.0
811,187.01171875,187.333984375,60.0,94.0
812,187.01171875,187.333984375,60.0,94.0
813,187.48046875,187.708984375,55.0,94.0
814,187.48046875,187.73828125,60.0,99.0
815,187.48046875,187.76953125,64.0,96.0
816,186.30859375,187.80078125,45.0,93.0
817,186.5625,187.80078125,45.0,93.0
818,187.71484375,187.826171875,52.0,86.0
819,187.94921875,188.078125,57.0,88.0
820,188.18359375,188.287109375,38.0,97.0
821,188.18359375,188.494140625,57.0,87.0
822,188.18359375,188.59375,62.0,92.0
823,189.12109375,189.259765625,62.0,101.0
824,189.35546875,189.47265625,66.0,96.0
825,188.88671875,189.63671875,57.0,96.0
826,189.58984375,190.013671875,62.0,98.0
827,189.82421875,190.033203125,57.0,94.0
828,188.65234375,190.04296875,50.0,87.0
829,190.0390625,190.412109375,55.0,87.0
830,190.044921875,190.67578125,62.0,86.0
831,190.51953125,190.80859375,55.0,71.0
832,190.546875,190.9296875,59.0,84.0
833,190.060546875,193.185546875,43.0,94.0
834,190.2890625,193.19140625,50.0,79.0
835,191.470703125,194.1328125,57.0,67.0
836,191.142578125,194.1484375,62.0,82.0
837,190.828125,194.22265625,67.0,92.0
838,191.611328125,194.306640625,59.0,76.0
