,start,end,pitch,velocity
0,7.447627687500001,7.929046125000001,67.0,116.0
1,7.853032687500001,8.2584376875,66.0,106.0
2,8.2584376875,8.6638426875,67.0,100.0
3,8.6638426875,9.0692476875,64.0,94.0
4,9.0692476875,9.648639000000001,66.0,103.0
5,9.4746526875,9.675666000000001,64.0,86.0
6,9.677355187500002,10.2854626875,64.0,90.0
7,10.2854626875,11.0962726875,62.0,88.0
8,11.0962726875,13.9324185,64.0,96.0
9,13.934107687500001,14.347958625,64.0,93.0
10,14.339512687500001,14.760120375000001,62.0,91.0
11,14.744917687500001,15.150322687500001,64.0,89.0
12,15.150322687500001,15.575997937500002,67.0,89.0
13,15.555727687500001,15.961132687500001,66.0,88.0
14,15.961132687500001,16.162146,64.0,89.0
15,16.163835187500002,16.7719426875,64.0,87.0
16,16.7719426875,17.5861310625,62.0,87.0
17,17.5827526875,20.013493500000003,59.0,83.0
18,20.0151826875,20.420587687500003,59.0,107.0
19,20.420587687500003,20.8259926875,60.0,104.0
20,20.8259926875,21.08781675,59.0,90.0
21,21.028695187500002,21.6368026875,60.0,98.0
22,21.6368026875,22.042207687500003,71.0,110.0
23,22.042207687500003,23.2584226875,69.0,114.0
24,23.2584226875,23.663827687500003,62.0,107.0
25,23.663827687500003,24.0692326875,69.0,102.0
26,24.0692326875,24.271935187500002,67.0,93.0
27,24.271935187500002,24.8800426875,69.0,108.0
28,24.8800426875,25.285447687500003,74.0,114.0
29,25.285447687500003,26.0945685,71.0,110.0
30,26.096257687500003,26.5016626875,71.0,113.0
31,26.5016626875,26.934094687500004,67.0,102.0
32,26.907067687500003,27.7161885,64.0,98.0
33,27.717877687500003,28.1232826875,64.0,102.0
34,28.1232826875,28.528687687500003,71.0,108.0
35,28.528687687500003,29.339497687500003,69.0,100.0
36,29.339497687500003,30.150307687500003,66.0,113.0
37,30.150307687500003,33.3935476875,64.0,98.0
38,33.3935476875,33.874966125,67.0,116.0
39,33.798952687500005,34.2043576875,66.0,106.0
40,34.2043576875,34.6097626875,67.0,100.0
41,34.6097626875,35.0151676875,64.0,94.0
42,35.0151676875,35.594559000000004,66.0,103.0
43,35.420572687500005,35.621586,64.0,86.0
44,35.623275187500006,36.2313826875,64.0,90.0
45,36.2313826875,37.042192687500005,62.0,88.0
46,37.042192687500005,39.878338500000005,64.0,96.0
47,39.880027687500004,40.293878625000005,64.0,93.0
48,40.285432687500005,40.706040375,62.0,91.0
49,40.6908376875,41.0962426875,64.0,89.0
50,41.0962426875,41.52191793750001,67.0,89.0
51,41.501647687500004,41.907052687500006,66.0,88.0
52,41.907052687500006,42.108066,64.0,89.0
53,42.10975518750001,42.7178626875,64.0,87.0
54,42.7178626875,43.5320510625,62.0,87.0
55,43.528672687500006,45.959413500000004,59.0,83.0
56,45.9611026875,46.366507687500004,59.0,107.0
57,46.366507687500004,46.771912687500006,60.0,104.0
58,46.771912687500006,47.03373675,59.0,90.0
59,46.97461518750001,47.5827226875,60.0,98.0
60,47.5827226875,47.988127687500004,71.0,110.0
61,47.988127687500004,49.2043426875,69.0,114.0
62,49.2043426875,49.609747687500004,62.0,107.0
63,49.609747687500004,50.015152687500006,69.0,102.0
64,50.015152687500006,50.21785518750001,67.0,93.0
65,50.21785518750001,50.8259626875,69.0,108.0
66,50.8259626875,51.231367687500004,74.0,114.0
67,51.231367687500004,52.0404885,71.0,110.0
68,52.04217768750001,52.4475826875,71.0,113.0
69,52.4475826875,52.88001468750001,67.0,102.0
70,52.852987687500004,53.6621085,64.0,98.0
71,53.66379768750001,54.0692026875,64.0,102.0
72,54.0692026875,54.474607687500004,71.0,108.0
73,54.474607687500004,55.28541768750001,69.0,100.0
74,55.28541768750001,56.096227687500004,66.0,113.0
75,56.096227687500004,58.52865768750001,64.0,98.0
76,58.52865768750001,58.9340626875,71.0,91.0
77,58.9340626875,59.339467687500004,74.0,98.0
78,59.339467687500004,59.744872687500006,76.0,93.0
79,59.744872687500006,59.94757518750001,74.0,88.0
80,59.94757518750001,60.35298018750001,76.0,87.0
81,60.35298018750001,60.961087687500005,71.0,91.0
82,60.961087687500005,62.582707687500005,69.0,88.0
83,62.582707687500005,62.988112687500006,74.0,90.0
84,62.988112687500006,63.29216643750001,71.0,89.0
85,63.19081518750001,63.59622018750001,74.0,89.0
86,63.59622018750001,64.20432768750001,69.0,87.0
87,64.20432768750001,65.8259476875,67.0,89.0
88,65.8259476875,66.2313526875,71.0,104.0
89,66.2313526875,66.43405518750001,69.0,91.0
90,66.43405518750001,67.04216268750001,71.0,88.0
91,67.04216268750001,67.44756768750001,64.0,93.0
92,67.44756768750001,67.8529726875,69.0,104.0
93,67.8529726875,68.124931875,67.0,88.0
94,68.0556751875,68.6637826875,69.0,88.0
95,68.6637826875,69.4745926875,74.0,98.0
96,69.4745926875,71.49992850000001,71.0,96.0
97,71.5016176875,71.9070226875,71.0,91.0
98,71.9070226875,72.3124276875,74.0,98.0
99,72.3124276875,72.7178326875,76.0,93.0
100,72.7178326875,72.92053518750001,74.0,88.0
101,72.92053518750001,73.32594018750001,76.0,87.0
102,73.32594018750001,73.93404768750001,71.0,91.0
103,73.93404768750001,75.5556676875,69.0,88.0
104,75.5556676875,75.9610726875,74.0,90.0
105,75.9610726875,76.2651264375,71.0,89.0
106,76.16377518750001,76.56918018750001,74.0,89.0
107,76.56918018750001,77.17728768750001,69.0,87.0
108,77.17728768750001,77.9880976875,67.0,89.0
109,77.9880976875,78.3935026875,64.0,102.0
110,78.3935026875,78.7989076875,67.0,102.0
111,78.7989076875,79.2043126875,71.0,116.0
112,79.2043126875,79.40701518750001,69.0,100.0
113,79.40701518750001,80.01512268750001,71.0,110.0
114,80.01512268750001,80.42052768750001,64.0,104.0
115,80.42052768750001,80.82593268750001,69.0,113.0
116,80.82593268750001,81.0286351875,67.0,88.0
117,81.0286351875,81.6367426875,69.0,93.0
118,81.6367426875,82.4475526875,66.0,100.0
119,82.4475526875,83.70261900000001,64.0,94.0
120,98.2583476875,98.739766125,67.0,116.0
121,98.66375268750001,99.06915768750001,66.0,106.0
122,99.06915768750001,99.47456268750001,67.0,100.0
123,99.47456268750001,99.87996768750001,64.0,94.0
124,99.87996768750001,100.459359,66.0,103.0
125,100.28537268750001,100.48638600000001,64.0,86.0
126,100.48807518750002,101.0961826875,64.0,90.0
127,101.0961826875,101.90699268750001,62.0,88.0
128,101.90699268750001,104.74313850000001,64.0,96.0
129,104.7448276875,105.15867862500001,64.0,93.0
130,105.15023268750001,105.570840375,62.0,91.0
131,105.55563768750001,105.96104268750001,64.0,89.0
132,105.96104268750001,106.38671793750001,67.0,89.0
133,106.36644768750001,106.77185268750002,66.0,88.0
134,106.77185268750002,106.97286600000001,64.0,89.0
135,106.97455518750002,107.5826626875,64.0,87.0
136,107.5826626875,108.3968510625,62.0,87.0
137,108.39347268750001,110.82421350000001,59.0,83.0
138,110.8259026875,111.2313076875,59.0,107.0
139,111.2313076875,111.63671268750001,60.0,104.0
140,111.63671268750001,111.89853675,59.0,90.0
141,111.83941518750001,112.44752268750001,60.0,98.0
142,112.44752268750001,112.85292768750001,71.0,110.0
143,112.85292768750001,114.0691426875,69.0,114.0
144,114.0691426875,114.4745476875,62.0,107.0
145,114.4745476875,114.87995268750001,69.0,102.0
146,114.87995268750001,115.08265518750001,67.0,93.0
147,115.08265518750001,115.69076268750001,69.0,108.0
148,115.69076268750001,116.09616768750001,74.0,114.0
149,116.09616768750001,116.90528850000001,71.0,110.0
150,116.90697768750002,117.3123826875,71.0,113.0
151,117.3123826875,117.74481468750001,67.0,102.0
152,117.7177876875,118.5269085,64.0,98.0
153,118.52859768750001,118.93400268750001,64.0,102.0
154,118.93400268750001,119.33940768750001,71.0,108.0
155,119.33940768750001,120.15021768750002,69.0,100.0
156,120.15021768750002,120.9610276875,66.0,113.0
157,120.9610276875,123.39345768750002,64.0,98.0
158,123.39345768750002,123.7988626875,71.0,91.0
159,123.7988626875,124.2042676875,74.0,98.0
160,124.2042676875,124.60967268750001,76.0,93.0
161,124.60967268750001,124.81237518750001,74.0,88.0
162,124.81237518750001,125.21778018750001,76.0,87.0
163,125.21778018750001,125.82588768750001,71.0,91.0
164,125.82588768750001,127.4475076875,69.0,88.0
165,127.4475076875,127.85291268750001,74.0,90.0
166,127.85291268750001,128.15696643750002,71.0,89.0
167,128.05561518750002,128.4610201875,74.0,89.0
168,128.4610201875,129.0691276875,69.0,87.0
169,129.0691276875,130.69074768750002,67.0,89.0
170,130.69074768750002,131.09615268750002,71.0,104.0
171,131.09615268750002,131.2988551875,69.0,91.0
172,131.2988551875,131.9069626875,71.0,88.0
173,131.9069626875,132.3123676875,64.0,93.0
174,132.3123676875,132.7177726875,69.0,104.0
175,132.7177726875,132.98973187500002,67.0,88.0
176,132.92047518750002,133.5285826875,69.0,88.0
177,133.5285826875,134.3393926875,74.0,98.0
178,134.3393926875,136.3647285,71.0,96.0
179,136.36641768750002,136.77182268750002,71.0,91.0
180,136.77182268750002,137.17722768750002,74.0,98.0
181,137.17722768750002,137.58263268750002,76.0,93.0
182,137.58263268750002,137.7853351875,74.0,88.0
183,137.7853351875,138.1907401875,76.0,87.0
184,138.1907401875,138.7988476875,71.0,91.0
185,138.7988476875,140.4204676875,69.0,88.0
186,140.4204676875,140.8258726875,74.0,90.0
187,140.8258726875,141.12992643750002,71.0,89.0
188,141.02857518750002,141.43398018750003,74.0,89.0
189,141.43398018750003,142.04208768750001,69.0,87.0
190,142.04208768750001,142.85289768750002,67.0,89.0
191,142.85289768750002,143.25830268750002,64.0,102.0
192,143.25830268750002,143.66370768750002,67.0,102.0
193,143.66370768750002,144.06911268750002,71.0,116.0
194,144.06911268750002,144.2718151875,69.0,100.0
195,144.2718151875,144.8799226875,71.0,110.0
196,144.8799226875,145.2853276875,64.0,104.0
197,145.2853276875,145.6907326875,69.0,113.0
198,145.6907326875,145.89343518750002,67.0,88.0
199,145.89343518750002,146.5015426875,69.0,93.0
200,146.5015426875,147.3123526875,66.0,100.0
201,147.3123526875,148.8528916875,64.0,94.0
202,175.28529768750002,175.69070268750002,71.0,91.0
203,175.69070268750002,176.09610768750002,74.0,98.0
204,176.09610768750002,176.50151268750002,76.0,93.0
205,176.50151268750002,176.7042151875,74.0,88.0
206,176.7042151875,177.1096201875,76.0,87.0
207,177.1096201875,177.7177276875,71.0,91.0
208,177.7177276875,179.3393476875,69.0,88.0
209,179.3393476875,179.7447526875,74.0,90.0
210,179.7447526875,180.04880643750002,71.0,89.0
211,179.94745518750003,180.35286018750003,74.0,89.0
212,180.35286018750003,180.96096768750002,69.0,87.0
213,180.96096768750002,182.58258768750002,67.0,89.0
214,182.58258768750002,182.98799268750003,71.0,104.0
215,182.98799268750003,183.1906951875,69.0,91.0
216,183.1906951875,183.79880268750003,71.0,88.0
217,183.79880268750003,184.20420768750003,64.0,93.0
218,184.20420768750003,184.6096126875,69.0,104.0
219,184.6096126875,184.88157187500002,67.0,88.0
220,184.81231518750002,185.4204226875,69.0,88.0
221,185.4204226875,186.2312326875,74.0,98.0
222,186.2312326875,188.25656850000001,71.0,96.0
223,188.25825768750002,188.66366268750002,71.0,91.0
224,188.66366268750002,189.06906768750002,74.0,98.0
225,189.06906768750002,189.47447268750003,76.0,93.0
226,189.47447268750003,189.6771751875,74.0,88.0
227,189.6771751875,190.0825801875,76.0,87.0
228,190.0825801875,190.69068768750003,71.0,91.0
229,190.69068768750003,192.3123076875,69.0,88.0
230,192.3123076875,192.7177126875,74.0,90.0
231,192.7177126875,193.02176643750002,71.0,89.0
232,192.92041518750003,193.32582018750003,74.0,89.0
233,193.32582018750003,193.93392768750002,69.0,87.0
234,193.93392768750002,194.74473768750002,67.0,89.0
235,194.74473768750002,195.15014268750002,64.0,102.0
236,195.15014268750002,195.55554768750002,67.0,102.0
237,195.55554768750002,195.96095268750003,71.0,116.0
238,195.96095268750003,196.1636551875,69.0,100.0
239,196.1636551875,196.77176268750003,71.0,110.0
240,196.77176268750003,197.17716768750003,64.0,104.0
241,197.17716768750003,197.5825726875,69.0,113.0
242,197.5825726875,197.78527518750002,67.0,88.0
243,197.78527518750002,198.3933826875,69.0,93.0
244,198.3933826875,199.2041926875,66.0,100.0
245,199.2041926875,201.22952850000001,64.0,94.0
246,201.23121768750002,201.63662268750002,64.0,113.0
247,201.63662268750002,202.04202768750002,67.0,108.0
248,202.04202768750002,202.50655425000002,71.0,108.0
249,202.44743268750003,202.6501351875,69.0,100.0
250,202.6501351875,203.25824268750003,71.0,96.0
251,203.25824268750003,203.66364768750003,64.0,104.0
252,203.66364768750003,204.0690526875,69.0,113.0
253,204.0690526875,204.27175518750002,67.0,94.0
254,204.27175518750002,208.52850768750002,69.0,94.0
255,208.52850768750002,209.33931768750003,66.0,109.0
256,209.33931768750003,210.56060025000002,64.0,96.0
