,start,end,pitch,velocity
0,0.9611476875000001,1.2787149375000002,71.0,74.0
1,0.9611476875000001,1.3395256875000001,67.0,76.0
2,0.9611476875000001,1.3429040625000002,64.0,75.0
3,1.7719576875000003,2.2567545,71.0,71.0
4,1.7719576875000003,2.2888490625,67.0,73.0
5,1.7719576875000003,2.297295,64.0,71.0
6,2.5827676875,3.0793888125000004,71.0,69.0
7,2.5827676875,3.1503346875000005,64.0,74.0
8,2.5827676875,3.1655373750000004,67.0,74.0
9,0.9611476875000001,3.9138474375000003,52.0,80.0
10,3.3935776875,3.9155366250000005,71.0,68.0
11,3.3935776875,3.9324285000000003,67.0,72.0
12,3.3935776875,3.9493203750000005,64.0,72.0
13,4.204387687500001,4.6621575,67.0,66.0
14,4.204387687500001,4.672292625000001,71.0,65.0
15,4.204387687500001,4.6807385625,64.0,65.0
16,5.015197687500001,5.555737687500001,67.0,74.0
17,5.015197687500001,5.574318750000001,64.0,71.0
18,5.015197687500001,5.587832250000001,71.0,77.0
19,5.826007687500001,6.317561250000001,67.0,74.0
20,5.826007687500001,6.368236875000001,71.0,72.0
21,5.826007687500001,6.386817937500001,64.0,69.0
22,6.636817687500001,7.130060437500001,67.0,79.0
23,6.636817687500001,7.155398250000001,71.0,75.0
24,6.636817687500001,7.1570874375,64.0,76.0
25,4.204387687500001,7.222965750000001,52.0,74.0
26,7.447627687500001,7.9307353125,67.0,77.0
27,7.447627687500001,7.972965,64.0,76.0
28,7.447627687500001,7.983100125000001,71.0,74.0
29,8.2584376875,8.543910375000001,64.0,76.0
30,8.2584376875,8.73647775,71.0,74.0
31,8.2584376875,8.826004687500001,67.0,78.0
32,7.447627687500001,8.986477500000001,52.0,77.0
33,9.0692476875,9.6064093125,69.0,79.0
34,9.0692476875,9.635125500000001,62.0,76.0
35,9.0692476875,9.635125500000001,66.0,81.0
36,9.8800576875,10.415530125,69.0,80.0
37,9.8800576875,10.4189085,62.0,77.0
38,9.0692476875,10.499989500000002,50.0,75.0
39,9.8800576875,10.574313750000002,66.0,83.0
40,10.6908676875,11.211137437500001,67.0,78.0
41,10.6908676875,11.243232,71.0,80.0
42,10.6908676875,11.2516779375,64.0,79.0
43,11.5016776875,12.0624879375,67.0,71.0
44,11.5016776875,12.064177125,64.0,71.0
45,11.5016776875,12.084447375000002,71.0,71.0
46,12.3124876875,12.8766763125,64.0,69.0
47,12.3124876875,12.9003249375,67.0,70.0
48,12.3124876875,12.915527625000001,71.0,68.0
49,13.123297687500001,13.653702562500001,67.0,70.0
50,13.123297687500001,13.675662,71.0,69.0
51,13.123297687500001,13.682418750000002,64.0,71.0
52,10.6908676875,13.731405187500002,52.0,68.0
53,13.934107687500001,14.459445,67.0,76.0
54,13.934107687500001,14.464512562500001,72.0,77.0
55,13.934107687500001,14.4729585,64.0,76.0
56,14.744917687500001,15.228025312500002,64.0,80.0
57,13.934107687500001,15.261809062500001,48.0,76.0
58,14.744917687500001,15.288836062500001,72.0,78.0
59,14.744917687500001,15.4189035,67.0,81.0
60,15.555727687500001,16.138497375,69.0,81.0
61,15.555727687500001,16.189173,66.0,82.0
62,15.555727687500001,16.202686500000002,62.0,83.0
63,16.366537687500003,16.7685643125,69.0,80.0
64,15.555727687500001,16.77701025,50.0,81.0
65,16.366537687500003,16.8226183125,66.0,84.0
66,16.366537687500003,16.8395101875,62.0,77.0
67,17.177347687500003,17.744914687500003,67.0,74.0
68,17.177347687500003,17.827684875000003,59.0,78.0
69,17.177347687500003,17.8327524375,62.0,81.0
70,17.988157687500003,18.62835975,67.0,78.0
71,17.988157687500003,18.7077515625,59.0,73.0
72,17.988157687500003,18.748292062500003,62.0,78.0
73,18.798967687500003,19.332750937500002,67.0,74.0
74,18.798967687500003,19.457750812500002,59.0,77.0
75,18.798967687500003,19.484777812500003,62.0,72.0
76,19.609777687500003,20.054034,67.0,76.0
77,19.609777687500003,20.131736625000002,59.0,78.0
78,19.609777687500003,20.16889875,62.0,81.0
79,17.177347687500003,20.246601375,43.0,77.0
80,20.420587687500003,20.9509925625,69.0,80.0
81,20.420587687500003,20.964506062500003,64.0,83.0
82,20.420587687500003,20.9678844375,60.0,78.0
83,21.231397687500003,21.7313971875,60.0,81.0
84,21.231397687500003,21.763491750000004,69.0,81.0
85,21.231397687500003,21.780383625000002,64.0,84.0
86,20.420587687500003,21.831059250000003,45.0,84.0
87,22.042207687500003,22.645247625000003,69.0,81.0
88,22.042207687500003,22.662139500000002,62.0,82.0
89,22.042207687500003,22.6874773125,66.0,81.0
90,22.853017687500003,23.256733500000003,69.0,80.0
91,22.853017687500003,23.260111875000003,66.0,83.0
92,22.853017687500003,23.3918685,62.0,81.0
93,22.042207687500003,23.511800812500002,50.0,80.0
94,23.663827687500003,24.226327125,69.0,82.0
95,23.663827687500003,24.2415298125,62.0,80.0
96,23.663827687500003,24.320921625,66.0,79.0
97,24.474637687500003,24.837813,66.0,82.0
98,24.474637687500003,24.888488625,69.0,82.0
99,24.474637687500003,25.124974875000003,62.0,81.0
100,23.663827687500003,25.152001875000003,47.0,79.0
101,25.285447687500003,25.89862275,64.0,81.0
102,25.285447687500003,25.902001125,67.0,78.0
103,25.285447687500003,25.9374740625,59.0,81.0
104,26.096257687500003,26.5523383125,59.0,83.0
105,26.096257687500003,26.589500437500003,67.0,81.0
106,26.096257687500003,26.597946375000003,64.0,84.0
107,25.285447687500003,26.765175937500004,52.0,81.0
108,26.907067687500003,27.486459000000004,64.0,84.0
109,26.907067687500003,27.494904937500003,67.0,81.0
110,26.907067687500003,27.513486000000004,60.0,81.0
111,27.717877687500003,28.136796187500003,60.0,77.0
112,27.717877687500003,28.175647500000004,64.0,82.0
113,27.717877687500003,28.184093437500003,67.0,81.0
114,26.907067687500003,28.300647375000004,48.0,82.0
115,28.528687687500003,29.089497937500003,69.0,78.0
116,28.528687687500003,29.113146562500003,62.0,78.0
117,28.528687687500003,29.146930312500004,66.0,78.0
118,29.339497687500003,29.653686562500003,66.0,81.0
119,29.339497687500003,29.658754125,69.0,80.0
120,29.339497687500003,29.807402625,62.0,81.0
121,28.528687687500003,29.989834875000003,50.0,79.0
122,30.150307687500003,30.743212500000002,64.0,77.0
123,30.150307687500003,30.7482800625,67.0,76.0
124,30.150307687500003,30.778685437500002,59.0,77.0
125,30.961117687500003,31.520238750000004,59.0,71.0
126,30.961117687500003,31.521927937500003,67.0,69.0
127,30.961117687500003,31.528684687500004,64.0,72.0
128,31.771927687500003,32.3394946875,67.0,75.0
129,31.771927687500003,32.356386562500006,64.0,76.0
130,31.771927687500003,32.358075750000005,59.0,72.0
131,32.5827376875,33.047264250000005,64.0,78.0
132,32.5827376875,33.0489534375,67.0,78.0
133,32.5827376875,33.0523318125,59.0,72.0
134,30.150307687500003,33.1131425625,52.0,75.0
135,33.3935476875,33.93070931250001,67.0,78.0
136,33.3935476875,33.9374660625,64.0,83.0
137,33.3935476875,33.939155250000006,59.0,77.0
138,34.2043576875,34.677330187500004,59.0,77.0
139,34.2043576875,34.7212490625,67.0,78.0
140,34.2043576875,34.724627437500004,64.0,80.0
141,33.3935476875,34.880032687500005,52.0,86.0
142,35.0151676875,35.594559000000004,66.0,81.0
143,35.0151676875,35.624964375000005,62.0,86.0
144,35.0151676875,35.6671940625,57.0,79.0
145,35.8259776875,36.282058312500006,57.0,75.0
146,35.8259776875,36.341179875,66.0,75.0
147,35.0151676875,36.46617975,50.0,79.0
148,35.8259776875,36.476314875,62.0,85.0
149,36.636787687500004,37.151989875000005,67.0,76.0
150,36.636787687500004,37.23644925000001,64.0,77.0
151,36.636787687500004,37.243206,60.0,76.0
152,37.4475976875,38.070907875,67.0,68.0
153,37.4475976875,38.1367861875,64.0,76.0
154,37.4475976875,38.14185375,60.0,72.0
155,38.258407687500004,38.83104225,67.0,74.0
156,38.258407687500004,38.8867854375,60.0,73.0
157,38.258407687500004,38.9036773125,64.0,71.0
158,39.0692176875,39.38340656250001,67.0,71.0
159,39.0692176875,39.4205686875,60.0,70.0
160,39.0692176875,39.449284875000004,64.0,66.0
161,36.636787687500004,39.60131175,48.0,76.0
162,39.880027687500004,40.4002974375,69.0,81.0
163,39.880027687500004,40.408743375,64.0,81.0
164,39.880027687500004,40.412121750000004,60.0,78.0
165,40.6908376875,41.1807020625,60.0,79.0
166,40.6908376875,41.20097231250001,69.0,79.0
167,39.880027687500004,41.27867493750001,45.0,77.0
168,40.6908376875,41.280364125000006,64.0,82.0
169,41.501647687500004,42.070903875000006,62.0,82.0
170,41.501647687500004,42.1232686875,69.0,79.0
171,41.501647687500004,42.1367821875,66.0,78.0
172,42.3124576875,42.692524875000004,69.0,81.0
173,42.3124576875,42.697592437500006,66.0,80.0
174,42.3124576875,42.871578750000005,62.0,83.0
175,41.501647687500004,42.881713875,50.0,80.0
176,43.123267687500004,43.726307625000004,67.0,77.0
177,43.123267687500004,43.77698325,62.0,79.0
178,43.123267687500004,43.78542918750001,59.0,79.0
179,43.93407768750001,44.5827256875,59.0,75.0
180,43.93407768750001,44.591171625,62.0,80.0
181,43.93407768750001,44.602995937500005,67.0,75.0
182,44.744887687500004,45.39184650000001,59.0,72.0
183,44.744887687500004,45.408738375000006,67.0,71.0
184,44.744887687500004,45.418873500000004,62.0,76.0
185,45.55569768750001,45.9543459375,59.0,78.0
186,45.55569768750001,46.00333237500001,67.0,78.0
187,45.55569768750001,46.08948093750001,62.0,84.0
188,43.123267687500004,46.162116000000005,43.0,67.0
189,46.366507687500004,46.92731793750001,67.0,81.0
190,46.366507687500004,46.969547625000004,64.0,81.0
191,46.366507687500004,46.977993562500004,60.0,80.0
192,47.17731768750001,47.587790250000005,60.0,79.0
193,47.17731768750001,47.60130375000001,67.0,81.0
194,47.17731768750001,47.604682125000004,64.0,83.0
195,46.366507687500004,47.7313711875,48.0,82.0
196,47.988127687500004,48.472924500000005,69.0,71.0
197,47.988127687500004,48.52528931250001,62.0,87.0
198,47.988127687500004,48.550627125000005,66.0,84.0
199,48.79893768750001,49.2212345625,69.0,81.0
200,48.79893768750001,49.287112875000005,66.0,84.0
201,48.79893768750001,49.30907231250001,62.0,84.0
202,47.988127687500004,49.38677493750001,50.0,90.0
203,49.609747687500004,50.118193125000005,69.0,81.0
204,49.609747687500004,50.1840714375,66.0,84.0
205,49.609747687500004,50.18576062500001,62.0,83.0
206,50.42055768750001,50.73474656250001,69.0,84.0
207,50.42055768750001,50.776976250000004,66.0,85.0
208,50.42055768750001,50.81244918750001,62.0,84.0
209,49.609747687500004,51.089475937500005,47.0,81.0
210,51.231367687500004,51.77697525000001,64.0,81.0
211,51.231367687500004,51.780353625000004,67.0,83.0
212,51.231367687500004,51.8056914375,59.0,80.0
213,52.04217768750001,52.493190750000004,59.0,85.0
214,52.04217768750001,52.51346100000001,67.0,83.0
215,52.04217768750001,52.54386637500001,64.0,87.0
216,51.231367687500004,52.657041937500004,52.0,82.0
217,52.852987687500004,53.400284437500005,67.0,81.0
218,52.852987687500004,53.40535200000001,60.0,81.0
219,52.852987687500004,53.415487125000006,64.0,85.0
220,53.66379768750001,54.0624459375,60.0,79.0
221,53.66379768750001,54.106364812500004,64.0,83.0
222,53.66379768750001,54.143526937500006,67.0,82.0
223,52.852987687500004,54.226297125,48.0,85.0
224,54.474607687500004,55.045553062500005,66.0,82.0
225,54.474607687500004,55.062444937500004,62.0,83.0
226,54.474607687500004,55.077647625000004,57.0,78.0
227,55.28541768750001,55.704336187500004,57.0,83.0
228,54.474607687500004,55.807376625,50.0,86.0
229,55.28541768750001,55.854673875,66.0,80.0
230,55.28541768750001,55.8563630625,62.0,86.0
231,56.096227687500004,56.697578437500006,64.0,83.0
232,56.096227687500004,56.71278112500001,67.0,85.0
233,56.096227687500004,56.731362187500004,59.0,81.0
234,56.90703768750001,57.472915500000006,64.0,86.0
235,56.90703768750001,57.47967225000001,67.0,80.0
236,56.90703768750001,57.4999425,59.0,83.0
237,57.717847687500004,58.253320125,59.0,81.0
238,57.717847687500004,58.253320125,64.0,85.0
239,57.717847687500004,58.25500931250001,67.0,81.0
240,58.52865768750001,58.954332937500006,59.0,86.0
241,58.52865768750001,58.993184250000006,67.0,86.0
242,58.52865768750001,59.008386937500006,64.0,88.0
243,56.096227687500004,59.13169762500001,52.0,82.0
244,59.339467687500004,59.918859000000005,67.0,94.0
245,59.339467687500004,59.94588600000001,60.0,91.0
246,59.339467687500004,59.94757518750001,64.0,102.0
247,60.15027768750001,60.594534,60.0,89.0
248,60.15027768750001,60.662101500000006,64.0,94.0
249,60.15027768750001,60.66885825000001,67.0,91.0
250,59.339467687500004,60.749939250000004,48.0,89.0
251,60.961087687500005,61.550614125,66.0,85.0
252,60.961087687500005,61.56074925000001,62.0,96.0
253,60.961087687500005,61.579330312500005,57.0,87.0
254,61.77189768750001,62.14182975000001,57.0,92.0
255,61.77189768750001,62.331018750000005,62.0,107.0
256,61.77189768750001,62.331018750000005,66.0,87.0
257,60.961087687500005,62.4441943125,50.0,88.0
258,62.582707687500005,63.10128825,59.0,88.0
259,62.582707687500005,63.172234125,67.0,90.0
260,62.582707687500005,63.209396250000005,43.0,84.0
261,62.582707687500005,63.2347340625,62.0,93.0
262,63.39351768750001,63.94081443750001,57.0,89.0
263,63.39351768750001,63.976287375000005,66.0,86.0
264,63.39351768750001,64.10466562500001,42.0,80.0
265,63.39351768750001,64.1232466875,62.0,93.0
266,64.20432768750001,64.766827125,67.0,87.0
267,64.20432768750001,64.81919193750001,64.0,87.0
268,64.20432768750001,64.84452975,59.0,86.0
269,65.0151376875,65.53540743750001,59.0,87.0
270,65.0151376875,65.54385337500001,64.0,88.0
271,65.0151376875,65.54723175000001,67.0,87.0
272,64.20432768750001,65.58777225,40.0,81.0
273,64.20432768750001,65.63000193750001,52.0,83.0
274,65.8259476875,66.4205416875,67.0,88.0
275,65.8259476875,66.43912275000001,60.0,86.0
276,65.8259476875,66.4458795,64.0,92.0
277,66.63675768750001,67.0995950625,60.0,87.0
278,66.63675768750001,67.138446375,64.0,89.0
279,66.63675768750001,67.138446375,67.0,87.0
280,65.8259476875,67.2381084375,48.0,88.0
281,67.44756768750001,68.016823875,66.0,83.0
282,67.44756768750001,68.030337375,57.0,83.0
283,67.44756768750001,68.08945893750001,62.0,89.0
284,68.2583776875,68.638444875,57.0,79.0
285,68.2583776875,68.84283656250001,62.0,87.0
286,68.2583776875,68.89857975000001,66.0,83.0
287,67.44756768750001,68.9745931875,50.0,84.0
288,69.0691876875,69.61310606250001,67.0,88.0
289,69.0691876875,69.702633,59.0,88.0
290,69.0691876875,69.70938975,62.0,91.0
291,69.0691876875,70.08776775000001,43.0,74.0
292,69.0691876875,70.08776775000001,43.0,84.0
293,69.87999768750001,70.28878106250001,67.0,89.0
294,69.87999768750001,70.3647945,59.0,89.0
295,69.87999768750001,70.4002674375,62.0,98.0
296,70.28540268750001,70.67729418750001,45.0,88.0
297,70.69080768750001,71.30229356250001,66.0,87.0
298,70.69080768750001,71.35803675000001,59.0,88.0
299,70.69080768750001,71.41377993750001,63.0,89.0
300,70.69080768750001,71.69756343750001,47.0,87.0
301,71.5016176875,71.9239145625,63.0,89.0
302,71.5016176875,71.996549625,59.0,91.0
303,71.5016176875,72.08100900000001,66.0,87.0
304,71.9070226875,72.27864393750001,47.0,86.0
305,72.3124276875,72.9239135625,59.0,90.0
306,72.3124276875,72.928981125,64.0,93.0
307,72.3124276875,72.928981125,67.0,91.0
308,73.12323768750001,73.621548,59.0,91.0
309,73.12323768750001,73.65871012500001,64.0,96.0
310,73.12323768750001,73.729656,67.0,91.0
311,72.3124276875,73.79046675000001,52.0,89.0
312,73.93404768750001,74.5049930625,66.0,86.0
313,73.93404768750001,74.55735787500001,62.0,94.0
314,73.93404768750001,74.5691821875,57.0,89.0
315,73.93404768750001,74.9914790625,50.0,88.0
316,74.7448576875,75.22120856250001,57.0,89.0
317,74.7448576875,75.26850581250001,66.0,87.0
318,74.7448576875,75.30228956250001,62.0,104.0
319,75.1502626875,75.47458668750001,50.0,82.0
320,75.5556676875,76.12661306250001,59.0,92.0
321,75.5556676875,76.131680625,67.0,91.0
322,75.5556676875,76.1806670625,62.0,102.0
323,75.5556676875,76.23303187500001,43.0,88.0
324,76.36647768750001,76.87154475000001,57.0,91.0
325,76.36647768750001,76.99316625,66.0,90.0
326,76.36647768750001,77.1063418125,62.0,96.0
327,76.36647768750001,77.135058,42.0,85.0
328,77.17728768750001,77.7685033125,64.0,96.0
329,77.17728768750001,77.787084375,67.0,90.0
330,77.17728768750001,77.8242465,59.0,88.0
331,77.9880976875,78.45600262500001,59.0,91.0
332,77.9880976875,78.4712053125,67.0,88.0
333,77.9880976875,78.483029625,64.0,93.0
334,77.17728768750001,78.523570125,40.0,84.0
335,77.17728768750001,78.59789437500001,52.0,83.0
336,78.7989076875,79.3664746875,67.0,90.0
337,78.7989076875,79.3766098125,64.0,94.0
338,78.7989076875,79.3799881875,60.0,88.0
339,79.60971768750001,80.08437937500001,60.0,88.0
340,79.60971768750001,80.11816312500001,64.0,94.0
341,79.60971768750001,80.14519012500001,67.0,88.0
342,78.7989076875,80.233027875,48.0,87.0
343,80.42052768750001,80.98809468750001,66.0,84.0
344,80.42052768750001,81.03201356250001,62.0,90.0
345,80.42052768750001,81.04552706250001,57.0,88.0
346,81.2313376875,81.61647243750001,57.0,87.0
347,81.2313376875,81.756675,66.0,85.0
348,81.2313376875,81.80228306250001,62.0,93.0
349,80.42052768750001,81.9002559375,50.0,86.0
350,82.0421476875,82.66883625000001,64.0,88.0
351,82.0421476875,82.675593,59.0,82.0
352,82.0421476875,82.68910650000001,67.0,87.0
353,82.85295768750001,83.47457868750001,59.0,76.0
354,82.85295768750001,83.47795706250001,64.0,78.0
355,82.85295768750001,83.5320110625,67.0,77.0
356,83.66376768750001,84.199240125,64.0,78.0
357,83.66376768750001,84.21444281250001,59.0,77.0
358,83.66376768750001,84.243159,67.0,74.0
359,84.4745776875,84.78200981250001,59.0,83.0
360,84.4745776875,84.81410437500001,64.0,85.0
361,84.4745776875,84.82592868750001,67.0,81.0
362,82.0421476875,84.87322593750001,52.0,82.0
363,85.2853876875,86.5725485625,48.0,88.0
364,85.69079268750001,86.90700768750001,55.0,78.0
365,86.09619768750001,86.9171428125,60.0,71.0
366,87.31241268750001,88.11139837500001,57.0,73.0
367,86.90700768750001,88.1367361875,50.0,83.0
368,87.7178176875,88.15531725000001,62.0,71.0
369,88.1232226875,89.665450875,66.0,82.0
370,88.5286276875,89.68909950000001,47.0,86.0
371,88.93403268750001,89.74484268750001,54.0,72.0
372,89.33943768750001,90.20599087500001,57.0,75.0
373,89.74484268750001,90.2414638125,62.0,82.0
374,90.55565268750001,91.3326789375,59.0,77.0
375,90.15024768750001,91.35126000000001,52.0,86.0
376,90.9610576875,91.69247587500001,64.0,86.0
377,91.7718676875,93.09112312500001,45.0,85.0
378,92.58267768750001,93.334366125,57.0,77.0
379,92.17727268750001,93.3647715,52.0,69.0
380,92.98808268750001,93.5117308125,60.0,85.0
381,93.39348768750001,94.67558100000001,47.0,84.0
382,93.79889268750001,94.7651079375,54.0,76.0
383,94.2042976875,94.92220237500001,57.0,79.0
384,95.82591768750001,96.260038875,64.0,87.0
385,96.23132268750001,96.702606,66.0,84.0
386,95.42051268750001,97.03199756250001,59.0,58.0
387,95.0151076875,97.10970018750001,52.0,80.0
388,96.63672768750001,97.40192962500001,67.0,78.0
389,98.2583476875,98.7955093125,67.0,78.0
390,98.2583476875,98.80226606250001,64.0,83.0
391,98.2583476875,98.80395525000002,59.0,77.0
392,99.06915768750001,99.5421301875,59.0,77.0
393,99.06915768750001,99.58604906250001,67.0,78.0
394,99.06915768750001,99.5894274375,64.0,80.0
395,98.2583476875,99.74483268750001,52.0,86.0
396,99.87996768750001,100.459359,66.0,81.0
397,99.87996768750001,100.48976437500001,62.0,86.0
398,99.87996768750001,100.5319940625,57.0,79.0
399,100.6907776875,101.14685831250002,57.0,75.0
400,100.6907776875,101.20597987500001,66.0,75.0
401,99.87996768750001,101.33097975000001,50.0,79.0
402,100.6907776875,101.341114875,62.0,85.0
403,101.5015876875,102.01678987500001,67.0,76.0
404,101.5015876875,102.10124925000001,64.0,77.0
405,101.5015876875,102.108006,60.0,76.0
406,102.31239768750001,102.935707875,67.0,68.0
407,102.31239768750001,103.00158618750001,64.0,76.0
408,102.31239768750001,103.00665375000001,60.0,72.0
409,103.12320768750001,103.69584225000001,67.0,74.0
410,103.12320768750001,103.75158543750001,60.0,73.0
411,103.12320768750001,103.76847731250001,64.0,71.0
412,103.9340176875,104.24820656250002,67.0,71.0
413,103.9340176875,104.28536868750001,60.0,70.0
414,103.9340176875,104.314084875,64.0,66.0
415,101.5015876875,104.46611175000001,48.0,76.0
416,104.7448276875,105.2650974375,69.0,81.0
417,104.7448276875,105.273543375,64.0,81.0
418,104.7448276875,105.27692175000001,60.0,78.0
419,105.55563768750001,106.0455020625,60.0,79.0
420,105.55563768750001,106.06577231250002,69.0,79.0
421,104.7448276875,106.1434749375,45.0,77.0
422,105.55563768750001,106.14516412500001,64.0,82.0
423,106.36644768750001,106.93570387500002,62.0,82.0
424,106.36644768750001,106.9880686875,69.0,79.0
425,106.36644768750001,107.0015821875,66.0,78.0
426,107.1772576875,107.557324875,69.0,81.0
427,107.1772576875,107.56239243750001,66.0,80.0
428,107.1772576875,107.73637875000001,62.0,83.0
429,106.36644768750001,107.746513875,50.0,80.0
430,107.9880676875,108.591107625,67.0,77.0
431,107.9880676875,108.64178325,62.0,79.0
432,107.9880676875,108.65022918750002,59.0,79.0
433,108.79887768750001,109.4475256875,59.0,75.0
434,108.79887768750001,109.455971625,62.0,80.0
435,108.79887768750001,109.46779593750001,67.0,75.0
436,109.60968768750001,110.25664650000002,59.0,72.0
437,109.60968768750001,110.27353837500002,67.0,71.0
438,109.60968768750001,110.2836735,62.0,76.0
439,110.4204976875,110.81914593750001,59.0,78.0
440,110.4204976875,110.86813237500002,67.0,78.0
441,110.4204976875,110.95428093750002,62.0,84.0
442,107.9880676875,111.02691600000001,43.0,67.0
443,111.2313076875,111.79211793750001,67.0,81.0
444,111.2313076875,111.834347625,64.0,81.0
445,111.2313076875,111.8427935625,60.0,80.0
446,112.04211768750001,112.45259025000001,60.0,79.0
447,112.04211768750001,112.46610375000002,67.0,81.0
448,112.04211768750001,112.46948212500001,64.0,83.0
449,111.2313076875,112.5961711875,48.0,82.0
450,112.85292768750001,113.33772450000001,69.0,71.0
451,112.85292768750001,113.39008931250001,62.0,87.0
452,112.85292768750001,113.41542712500001,66.0,84.0
453,113.66373768750002,114.0860345625,69.0,81.0
454,113.66373768750002,114.15191287500001,66.0,84.0
455,113.66373768750002,114.17387231250001,62.0,84.0
456,112.85292768750001,114.25157493750001,50.0,90.0
457,114.4745476875,114.98299312500001,69.0,81.0
458,114.4745476875,115.04887143750001,66.0,84.0
459,114.4745476875,115.05056062500002,62.0,83.0
460,115.28535768750001,115.59954656250001,69.0,84.0
461,115.28535768750001,115.64177625,66.0,85.0
462,115.28535768750001,115.67724918750001,62.0,84.0
463,114.4745476875,115.95427593750001,47.0,81.0
464,116.09616768750001,116.64177525000001,64.0,81.0
465,116.09616768750001,116.645153625,67.0,83.0
466,116.09616768750001,116.6704914375,59.0,80.0
467,116.90697768750002,117.35799075000001,59.0,85.0
468,116.90697768750002,117.37826100000001,67.0,83.0
469,116.90697768750002,117.40866637500001,64.0,87.0
470,116.09616768750001,117.52184193750001,52.0,82.0
471,117.7177876875,118.26508443750001,67.0,81.0
472,117.7177876875,118.27015200000001,60.0,81.0
473,117.7177876875,118.28028712500002,64.0,85.0
474,118.52859768750001,118.9272459375,60.0,79.0
475,118.52859768750001,118.9711648125,64.0,83.0
476,118.52859768750001,119.00832693750002,67.0,82.0
477,117.7177876875,119.091097125,48.0,85.0
478,119.33940768750001,119.91035306250001,66.0,82.0
479,119.33940768750001,119.9272449375,62.0,83.0
480,119.33940768750001,119.94244762500001,57.0,78.0
481,120.15021768750002,120.5691361875,57.0,83.0
482,119.33940768750001,120.672176625,50.0,86.0
483,120.15021768750002,120.719473875,66.0,80.0
484,120.15021768750002,120.72116306250001,62.0,86.0
485,120.9610276875,121.56237843750002,64.0,83.0
486,120.9610276875,121.57758112500001,67.0,85.0
487,120.9610276875,121.59616218750001,59.0,81.0
488,121.77183768750001,122.33771550000002,64.0,86.0
489,121.77183768750001,122.34447225000001,67.0,80.0
490,121.77183768750001,122.3647425,59.0,83.0
491,122.58264768750001,123.118120125,59.0,81.0
492,122.58264768750001,123.118120125,64.0,85.0
493,122.58264768750001,123.11980931250001,67.0,81.0
494,123.39345768750002,123.81913293750002,59.0,86.0
495,123.39345768750002,123.85798425000002,67.0,86.0
496,123.39345768750002,123.87318693750001,64.0,88.0
497,120.9610276875,123.99649762500002,52.0,82.0
498,124.2042676875,124.78365900000001,67.0,94.0
499,124.2042676875,124.81068600000002,60.0,91.0
500,124.2042676875,124.81237518750001,64.0,102.0
501,125.01507768750001,125.45933400000001,60.0,89.0
502,125.01507768750001,125.52690150000001,64.0,94.0
503,125.01507768750001,125.53365825000002,67.0,91.0
504,124.2042676875,125.61473925000001,48.0,89.0
505,125.82588768750001,126.41541412500001,66.0,85.0
506,125.82588768750001,126.42554925000002,62.0,96.0
507,125.82588768750001,126.44413031250001,57.0,87.0
508,126.63669768750002,127.00662975000002,57.0,92.0
509,126.63669768750002,127.19581875000002,62.0,107.0
510,126.63669768750002,127.19581875000002,66.0,87.0
511,125.82588768750001,127.3089943125,50.0,88.0
512,127.4475076875,127.96608825000001,59.0,88.0
513,127.4475076875,128.03703412500002,67.0,90.0
514,127.4475076875,128.07419625,43.0,84.0
515,127.4475076875,128.0995340625,62.0,93.0
516,128.2583176875,128.8056144375,57.0,89.0
517,128.2583176875,128.841087375,66.0,86.0
518,128.2583176875,128.969465625,42.0,80.0
519,128.2583176875,128.9880466875,62.0,93.0
520,129.0691276875,129.63162712500002,67.0,87.0
521,129.0691276875,129.68399193750002,64.0,87.0
522,129.0691276875,129.70932975000002,59.0,86.0
523,129.87993768750002,130.4002074375,59.0,87.0
524,129.87993768750002,130.408653375,64.0,88.0
525,129.87993768750002,130.41203175,67.0,87.0
526,129.0691276875,130.45257225,40.0,81.0
527,129.0691276875,130.4948019375,52.0,83.0
528,130.69074768750002,131.28534168750002,67.0,88.0
529,130.69074768750002,131.30392275,60.0,86.0
530,130.69074768750002,131.31067950000002,64.0,92.0
531,131.50155768750002,131.96439506250002,60.0,87.0
532,131.50155768750002,132.003246375,64.0,89.0
533,131.50155768750002,132.003246375,67.0,87.0
534,130.69074768750002,132.10290843750002,48.0,88.0
535,132.3123676875,132.881623875,66.0,83.0
536,132.3123676875,132.89513737500002,57.0,83.0
537,132.3123676875,132.95425893750001,62.0,89.0
538,133.1231776875,133.503244875,57.0,79.0
539,133.1231776875,133.7076365625,62.0,87.0
540,133.1231776875,133.76337975,66.0,83.0
541,132.3123676875,133.8393931875,50.0,84.0
542,133.9339876875,134.4779060625,67.0,88.0
543,133.9339876875,134.56743300000002,59.0,88.0
544,133.9339876875,134.57418975000002,62.0,91.0
545,133.9339876875,134.95256775000001,43.0,74.0
546,133.9339876875,134.95256775000001,43.0,84.0
547,134.7447976875,135.15358106250002,67.0,89.0
548,134.7447976875,135.22959450000002,59.0,89.0
549,134.7447976875,135.26506743750002,62.0,98.0
550,135.1502026875,135.5420941875,45.0,88.0
551,135.55560768750001,136.1670935625,66.0,87.0
552,135.55560768750001,136.22283675,59.0,88.0
553,135.55560768750001,136.2785799375,63.0,89.0
554,135.55560768750001,136.5623634375,47.0,87.0
555,136.36641768750002,136.78871456250002,63.0,89.0
556,136.36641768750002,136.861349625,59.0,91.0
557,136.36641768750002,136.94580900000003,66.0,87.0
558,136.77182268750002,137.14344393750002,47.0,86.0
559,137.17722768750002,137.78871356250002,59.0,90.0
560,137.17722768750002,137.793781125,64.0,93.0
561,137.17722768750002,137.793781125,67.0,91.0
562,137.98803768750003,138.48634800000002,59.0,91.0
563,137.98803768750003,138.523510125,64.0,96.0
564,137.98803768750003,138.594456,67.0,91.0
565,137.17722768750002,138.65526675,52.0,89.0
566,138.7988476875,139.3697930625,66.0,86.0
567,138.7988476875,139.422157875,62.0,94.0
568,138.7988476875,139.43398218750002,57.0,89.0
569,138.7988476875,139.85627906250002,50.0,88.0
570,139.6096576875,140.0860085625,57.0,89.0
571,139.6096576875,140.13330581250003,66.0,87.0
572,139.6096576875,140.16708956250002,62.0,104.0
573,140.0150626875,140.33938668750002,50.0,82.0
574,140.4204676875,140.99141306250002,59.0,92.0
575,140.4204676875,140.996480625,67.0,91.0
576,140.4204676875,141.04546706250002,62.0,102.0
577,140.4204676875,141.09783187500003,43.0,88.0
578,141.2312776875,141.73634475,57.0,91.0
579,141.2312776875,141.85796625,66.0,90.0
580,141.2312776875,141.9711418125,62.0,96.0
581,141.2312776875,141.99985800000002,42.0,85.0
582,142.04208768750001,142.6333033125,64.0,96.0
583,142.04208768750001,142.651884375,67.0,90.0
584,142.04208768750001,142.68904650000002,59.0,88.0
585,142.85289768750002,143.320802625,59.0,91.0
586,142.85289768750002,143.33600531250002,67.0,88.0
587,142.85289768750002,143.347829625,64.0,93.0
588,142.04208768750001,143.38837012500002,40.0,84.0
589,142.04208768750001,143.462694375,52.0,83.0
590,143.66370768750002,144.23127468750002,67.0,90.0
591,143.66370768750002,144.24140981250002,64.0,94.0
592,143.66370768750002,144.2447881875,60.0,88.0
593,144.47451768750003,144.949179375,60.0,88.0
594,144.47451768750003,144.98296312500003,64.0,94.0
595,144.47451768750003,145.009990125,67.0,88.0
596,143.66370768750002,145.097827875,48.0,87.0
597,145.2853276875,145.85289468750003,66.0,84.0
598,145.2853276875,145.8968135625,62.0,90.0
599,145.2853276875,145.91032706250002,57.0,88.0
600,146.0961376875,146.48127243750002,57.0,87.0
601,146.0961376875,146.621475,66.0,85.0
602,146.0961376875,146.6670830625,62.0,93.0
603,145.2853276875,146.76505593750002,50.0,86.0
604,146.9069476875,147.53363625,64.0,88.0
605,146.9069476875,147.54039300000002,59.0,82.0
606,146.9069476875,147.5539065,67.0,87.0
607,147.7177576875,148.33937868750002,59.0,76.0
608,147.7177576875,148.34275706250003,64.0,78.0
609,147.7177576875,148.3968110625,67.0,77.0
610,148.52856768750001,149.06404012500002,64.0,78.0
611,148.52856768750001,149.0792428125,59.0,77.0
612,148.52856768750001,149.10795900000002,67.0,74.0
613,149.33937768750002,149.6468098125,59.0,83.0
614,149.33937768750002,149.678904375,64.0,85.0
615,149.33937768750002,149.6907286875,67.0,81.0
616,146.9069476875,149.73802593750003,52.0,82.0
617,150.15018768750002,150.6265385625,69.0,102.0
618,150.15018768750002,150.6620115,64.0,104.0
619,150.15018768750002,150.705930375,61.0,95.0
620,150.96099768750003,151.40018643750003,69.0,92.0
621,150.96099768750003,151.405254,64.0,98.0
622,150.96099768750003,151.41707831250002,61.0,90.0
623,151.5691051875,151.6603213125,64.0,88.0
624,151.5691051875,151.70761856250002,61.0,86.0
625,151.5691051875,151.70930775000002,69.0,91.0
626,150.15018768750002,152.12822625,45.0,93.0
627,151.97451018750002,152.36302331250002,69.0,87.0
628,151.97451018750002,152.374847625,61.0,82.0
629,151.97451018750002,152.378226,64.0,88.0
630,152.5826176875,153.0589685625,61.0,89.0
631,152.5826176875,153.107955,69.0,100.0
632,152.5826176875,153.11471175000003,64.0,102.0
633,152.37991518750002,153.2481575625,45.0,38.0
634,153.3934276875,154.00153518750002,67.0,98.0
635,153.3934276875,154.04545406250003,64.0,107.0
636,153.3934276875,154.07417025,59.0,100.0
637,153.3934276875,154.42552125,52.0,89.0
638,154.2042376875,154.7008588125,67.0,91.0
639,154.2042376875,154.702548,59.0,91.0
640,154.2042376875,154.7211290625,64.0,91.0
641,154.8123451875,154.91369643750002,64.0,88.0
642,154.8123451875,154.91538562500003,59.0,87.0
643,154.8123451875,154.9170748125,67.0,85.0
644,154.6096426875,155.307277125,52.0,71.0
645,155.2177501875,155.64173625,67.0,86.0
646,155.2177501875,155.67552,64.0,89.0
647,155.2177501875,155.6772091875,59.0,86.0
648,155.6231551875,155.95761431250003,52.0,89.0
649,153.3934276875,156.22450593750003,40.0,88.0
650,155.82585768750002,156.36977606250002,67.0,94.0
651,155.82585768750002,156.37653281250002,59.0,102.0
652,155.82585768750002,156.41200575000002,64.0,110.0
653,156.23126268750002,156.52518131250002,52.0,85.0
654,156.63666768750002,157.226194125,67.0,100.0
655,156.63666768750002,157.280248125,62.0,114.0
656,156.63666768750002,157.293761625,59.0,107.0
657,157.44747768750003,157.87822050000003,67.0,91.0
658,157.44747768750003,157.89511237500002,59.0,96.0
659,157.44747768750003,157.9069366875,62.0,102.0
660,156.63666768750002,158.39342268750002,43.0,96.0
661,158.05558518750001,158.84274656250003,67.0,89.0
662,158.05558518750001,158.84950331250002,59.0,88.0
663,158.05558518750001,158.8630168125,62.0,93.0
664,158.6636926875,159.2413948125,43.0,83.0
665,159.0690976875,159.52855668750001,59.0,92.0
666,159.0690976875,159.567408,62.0,100.0
667,159.4745026875,159.57247556250002,43.0,86.0
668,159.0690976875,159.739705125,67.0,89.0
669,159.8799076875,160.23801543750002,69.0,100.0
670,159.8799076875,160.24477218750002,61.0,95.0
671,159.8799076875,160.2836235,45.0,86.0
672,159.8799076875,160.30727212500003,64.0,104.0
673,160.48801518750003,160.84781212500002,69.0,102.0
674,160.48801518750003,160.868082375,45.0,88.0
675,160.48801518750003,160.9035553125,61.0,91.0
676,160.48801518750003,160.9238255625,64.0,102.0
677,161.0961226875,162.6704454375,61.0,97.0
678,161.0961226875,162.69409406250003,64.0,108.0
679,161.0961226875,162.74983725,69.0,114.0
680,161.0961226875,162.78024262500003,45.0,91.0
681,163.12314768750002,163.79037675,67.0,87.0
682,163.12314768750002,163.82922806250002,60.0,87.0
683,163.12314768750002,163.84443075000001,64.0,89.0
684,163.93395768750003,164.5927408125,67.0,86.0
685,163.93395768750003,164.59443000000002,60.0,86.0
686,163.93395768750003,164.624835375,64.0,87.0
687,164.7447676875,165.42213187500002,67.0,78.0
688,164.7447676875,165.4271994375,60.0,78.0
689,164.7447676875,165.46773993750003,64.0,83.0
690,165.5555776875,165.98125293750002,60.0,86.0
691,165.5555776875,166.0893609375,67.0,85.0
692,165.5555776875,166.1501716875,64.0,87.0
693,163.12314768750002,166.23632025,48.0,81.0
694,166.3663876875,167.09442750000002,62.0,86.0
695,166.3663876875,167.10456262500003,66.0,83.0
696,166.3663876875,167.12145450000003,57.0,80.0
697,167.1771976875,167.89679156250003,62.0,87.0
698,167.1771976875,167.90523750000003,57.0,80.0
699,167.1771976875,167.9339536875,66.0,79.0
700,167.98800768750002,168.6501691875,57.0,81.0
701,167.98800768750002,168.67719618750002,62.0,87.0
702,167.98800768750002,168.69746643750003,66.0,74.0
703,168.79881768750002,169.08766875,57.0,80.0
704,166.3663876875,169.11976331250003,50.0,79.0
705,168.79881768750002,169.17212812500003,62.0,87.0
706,169.20422268750002,172.32246281250002,65.0,94.0
707,169.20422268750002,172.34948981250002,60.0,98.0
708,169.20422268750002,172.3630033125,57.0,91.0
709,169.20422268750002,172.38327356250002,41.0,88.0
710,169.20422268750002,172.3967870625,53.0,88.0
711,172.8528676875,174.5488119375,57.0,91.0
712,172.8528676875,174.57077137500002,64.0,100.0
713,172.8528676875,174.5825956875,61.0,103.0
714,172.8528676875,174.58597406250001,45.0,86.0
715,176.09610768750002,176.675499,67.0,94.0
716,176.09610768750002,176.702526,60.0,91.0
717,176.09610768750002,176.7042151875,64.0,102.0
718,176.90691768750003,177.35117400000001,60.0,89.0
719,176.90691768750003,177.4187415,64.0,94.0
720,176.90691768750003,177.42549825,67.0,91.0
721,176.09610768750002,177.50657925000002,48.0,89.0
722,177.7177276875,178.30725412500001,66.0,85.0
723,177.7177276875,178.31738925000002,62.0,96.0
724,177.7177276875,178.33597031250002,57.0,87.0
725,178.5285376875,178.89846975,57.0,92.0
726,178.5285376875,179.08765875,62.0,107.0
727,178.5285376875,179.08765875,66.0,87.0
728,177.7177276875,179.2008343125,50.0,88.0
729,179.3393476875,179.85792825000001,59.0,88.0
730,179.3393476875,179.92887412500002,67.0,90.0
731,179.3393476875,179.96603625,43.0,84.0
732,179.3393476875,179.99137406250003,62.0,93.0
733,180.1501576875,180.69745443750003,57.0,89.0
734,180.1501576875,180.732927375,66.0,86.0
735,180.1501576875,180.86130562500003,42.0,80.0
736,180.1501576875,180.8798866875,62.0,93.0
737,180.96096768750002,181.52346712500002,67.0,87.0
738,180.96096768750002,181.57583193750003,64.0,87.0
739,180.96096768750002,181.60116975000003,59.0,86.0
740,181.77177768750002,182.2920474375,59.0,87.0
741,181.77177768750002,182.300493375,64.0,88.0
742,181.77177768750002,182.30387175,67.0,87.0
743,180.96096768750002,182.34441225,40.0,81.0
744,180.96096768750002,182.3866419375,52.0,83.0
745,182.58258768750002,183.17718168750002,67.0,88.0
746,182.58258768750002,183.19576275000003,60.0,86.0
747,182.58258768750002,183.20251950000002,64.0,92.0
748,183.39339768750003,183.85623506250002,60.0,87.0
749,183.39339768750003,183.895086375,64.0,89.0
750,183.39339768750003,183.895086375,67.0,87.0
751,182.58258768750002,183.99474843750002,48.0,88.0
752,184.20420768750003,184.773463875,66.0,83.0
753,184.20420768750003,184.78697737500002,57.0,83.0
754,184.20420768750003,184.84609893750002,62.0,89.0
755,185.0150176875,185.395084875,57.0,79.0
756,185.0150176875,185.59947656250003,62.0,87.0
757,185.0150176875,185.65521975000001,66.0,83.0
758,184.20420768750003,185.7312331875,50.0,84.0
759,185.8258276875,186.3697460625,67.0,88.0
760,185.8258276875,186.45927300000002,59.0,88.0
761,185.8258276875,186.46602975000002,62.0,91.0
762,185.8258276875,186.84440775000002,43.0,74.0
763,185.8258276875,186.84440775000002,43.0,84.0
764,186.6366376875,187.04542106250003,67.0,89.0
765,186.6366376875,187.12143450000002,59.0,89.0
766,186.6366376875,187.15690743750002,62.0,98.0
767,187.04204268750001,187.43393418750003,45.0,88.0
768,187.44744768750002,188.05893356250002,66.0,87.0
769,187.44744768750002,188.11467675000003,59.0,88.0
770,187.44744768750002,188.17041993750001,63.0,89.0
771,187.44744768750002,188.4542034375,47.0,87.0
772,188.25825768750002,188.68055456250002,63.0,89.0
773,188.25825768750002,188.753189625,59.0,91.0
774,188.25825768750002,188.83764900000003,66.0,87.0
775,188.66366268750002,189.03528393750003,47.0,86.0
776,189.06906768750002,189.68055356250002,59.0,90.0
777,189.06906768750002,189.685621125,64.0,93.0
778,189.06906768750002,189.685621125,67.0,91.0
779,189.87987768750003,190.37818800000002,59.0,91.0
780,189.87987768750003,190.415350125,64.0,96.0
781,189.87987768750003,190.486296,67.0,91.0
782,189.06906768750002,190.54710675,52.0,89.0
783,190.69068768750003,191.2616330625,66.0,86.0
784,190.69068768750003,191.313997875,62.0,94.0
785,190.69068768750003,191.32582218750002,57.0,89.0
786,190.69068768750003,191.74811906250002,50.0,88.0
787,191.5014976875,191.97784856250001,57.0,89.0
788,191.5014976875,192.02514581250003,66.0,87.0
789,191.5014976875,192.05892956250003,62.0,104.0
790,191.9069026875,192.23122668750003,50.0,82.0
791,192.3123076875,192.88325306250002,59.0,92.0
792,192.3123076875,192.888320625,67.0,91.0
793,192.3123076875,192.93730706250003,62.0,102.0
794,192.3123076875,192.98967187500003,43.0,88.0
795,193.1231176875,193.62818475000003,57.0,91.0
796,193.1231176875,193.74980625,66.0,90.0
797,193.1231176875,193.8629818125,62.0,96.0
798,193.1231176875,193.89169800000002,42.0,85.0
799,193.93392768750002,194.5251433125,64.0,96.0
800,193.93392768750002,194.543724375,67.0,90.0
801,193.93392768750002,194.58088650000002,59.0,88.0
802,194.74473768750002,195.21264262500003,59.0,91.0
803,194.74473768750002,195.22784531250002,67.0,88.0
804,194.74473768750002,195.239669625,64.0,93.0
805,193.93392768750002,195.28021012500002,40.0,84.0
806,193.93392768750002,195.35453437500001,52.0,83.0
807,195.55554768750002,196.12311468750002,67.0,90.0
808,195.55554768750002,196.13324981250003,64.0,94.0
809,195.55554768750002,196.1366281875,60.0,88.0
810,196.36635768750003,196.84101937500003,60.0,88.0
811,196.36635768750003,196.87480312500003,64.0,94.0
812,196.36635768750003,196.901830125,67.0,88.0
813,195.55554768750002,196.989667875,48.0,87.0
814,197.17716768750003,197.74473468750003,66.0,84.0
815,197.17716768750003,197.78865356250003,62.0,90.0
816,197.17716768750003,197.80216706250002,57.0,88.0
817,197.9879776875,198.37311243750003,57.0,87.0
818,197.9879776875,198.513315,66.0,85.0
819,197.9879776875,198.5589230625,62.0,93.0
820,197.17716768750003,198.65689593750002,50.0,86.0
821,198.7987876875,199.42547625000003,64.0,88.0
822,198.7987876875,199.43223300000002,59.0,82.0
823,198.7987876875,199.4457465,67.0,87.0
824,199.6095976875,200.23121868750002,59.0,76.0
825,199.6095976875,200.23459706250003,64.0,78.0
826,199.6095976875,200.2886510625,67.0,77.0
827,200.42040768750002,200.95588012500002,64.0,78.0
828,200.42040768750002,200.97108281250001,59.0,77.0
829,200.42040768750002,200.99979900000002,67.0,74.0
830,201.23121768750002,201.5386498125,59.0,83.0
831,201.23121768750002,201.570744375,64.0,85.0
832,201.23121768750002,201.58256868750001,67.0,81.0
833,198.7987876875,201.62986593750003,52.0,82.0
834,202.04202768750002,203.32749937500003,48.0,89.0
835,202.85283768750003,203.543715375,60.0,77.0
836,202.44743268750003,203.67040443750003,55.0,66.0
837,203.25824268750003,203.82412050000002,64.0,79.0
838,204.4744576875,207.9136434375,62.0,77.0
839,205.2852676875,207.92377856250002,74.0,81.0
840,204.8798626875,207.98458931250002,66.0,77.0
841,204.0690526875,208.03019737500003,57.0,77.0
842,203.66364768750003,208.06398112500003,50.0,86.0
843,209.87479012500003,210.2210735625,67.0,78.0
844,210.2886410625,210.42208687500002,69.0,83.0
845,210.66701906250003,211.02512681250002,71.0,80.0
846,211.07749162500002,211.33593731250002,74.0,72.0
847,211.462626375,211.60282893750002,76.0,79.0
848,211.88999081250003,212.37985518750003,79.0,75.0
849,212.37647681250002,213.05890856250002,83.0,77.0
850,213.692353875,214.09269131250002,79.0,74.0
851,213.89505637500002,214.20417768750002,88.0,79.0
852,209.45587162500001,214.20755606250003,64.0,83.0
853,209.04370987500002,214.24133981250003,59.0,75.0
854,208.66871025000003,214.29032625000002,52.0,91.0
