,start,end,pitch,velocity
0,42.058092579166676,42.193783354166676,62.0,94.0
1,42.304803079166675,42.45282937916667,62.0,97.0
2,42.551513579166674,42.69337211666667,64.0,102.0
3,42.79822407916667,43.615452610416675,67.0,111.0
4,43.785066079166675,45.342426110416675,67.0,108.0
5,45.512039579166675,45.66931752291667,67.0,111.0
6,45.758750079166674,45.88004940833334,66.0,112.0
7,46.00546057916667,46.12367602708334,64.0,105.0
8,46.25217107916667,46.37655428958334,62.0,100.0
9,46.49888157916667,46.74353615833334,60.0,114.0
10,46.74559207916667,47.70776302916667,62.0,100.0
11,49.45940757916667,49.60743387916668,67.0,105.0
12,49.70611807916667,49.860312141666675,66.0,109.0
13,49.95282857916668,50.07412790833334,64.0,105.0
14,50.19953907916668,50.341397616666676,62.0,100.0
15,50.446249579166675,50.57885647291668,64.0,111.0
16,50.692960079166674,51.05274622500001,67.0,108.0
17,51.18638107916667,51.67774615833334,62.0,111.0
18,51.67980207916668,52.074538879166674,64.0,100.0
19,52.173223079166675,52.369563518750006,62.0,108.0
20,52.419933579166674,52.57721152291667,59.0,100.0
21,52.66664407916667,53.08810785000001,62.0,108.0
22,53.16006507916667,53.311175260416675,59.0,102.0
23,53.40677557916668,53.54246635416668,57.0,87.0
24,53.653486079166676,53.768617645833345,59.0,108.0
25,53.900196579166675,54.042055116666674,59.0,105.0
26,54.146907079166674,54.28876561666667,57.0,102.0
27,54.39339510416667,56.35855792500001,55.0,97.0
28,57.836016104166674,57.97126192916667,62.0,94.0
29,58.08191760416668,58.22945850416667,62.0,97.0
30,58.32781910416667,58.469212466666676,64.0,102.0
31,58.573720604166674,59.38826932291667,67.0,111.0
32,59.557326604166676,61.10957982291667,67.0,108.0
33,61.27863710416668,61.43539931041667,67.0,111.0
34,61.52453860416667,61.645440175000005,66.0,112.0
35,61.770440104166674,61.88826790625001,64.0,105.0
36,62.016341604166676,62.14031694375001,62.0,100.0
37,62.26224310416667,62.506095425000005,60.0,114.0
38,62.508144604166674,63.467160454166674,62.0,100.0
39,65.21306110416667,65.36060200416668,67.0,105.0
40,65.45896260416667,65.61265104166668,66.0,109.0
41,65.70486410416667,65.82576567500001,64.0,105.0
42,65.95076560416668,66.09215896666667,62.0,100.0
43,66.19666710416668,66.32883916041668,64.0,111.0
44,66.44256860416667,66.80117495833335,67.0,108.0
45,66.93437160416667,67.424125425,62.0,111.0
46,67.42617460416668,67.81961700416667,64.0,100.0
47,67.91797760416668,68.11367421458334,62.0,108.0
48,68.16387910416668,68.32064131041668,59.0,100.0
49,68.40978060416667,68.82986233333334,62.0,108.0
50,68.90158360416667,69.05219827291667,59.0,102.0
51,69.14748510416668,69.28273092916668,57.0,87.0
52,69.39338660416668,69.5081406375,59.0,108.0
53,69.63928810416667,69.78068146666668,59.0,105.0
54,69.88518960416667,70.02658296666668,57.0,102.0
55,70.13109110416667,72.09625392500001,55.0,97.0
56,73.57371210416667,73.68539236875,67.0,97.0
57,73.81961360416668,73.9466627125,67.0,100.0
58,74.06551510416668,74.21920354166667,67.0,108.0
59,74.31141660416668,74.46203127291668,69.0,92.0
60,74.55731810416668,74.68744098125,69.0,102.0
61,74.80321960416667,74.93846542916668,69.0,114.0
62,75.04912110416667,75.17309644375001,64.0,114.0
63,75.29502260416668,75.77145676041667,62.0,114.0
64,76.03272710416667,76.41694819791667,69.0,111.0
65,76.52453010416667,76.65567757083335,69.0,114.0
66,76.77043160416667,76.89440694375001,69.0,102.0
67,77.01633310416668,77.137234675,64.0,105.0
68,77.26223460416668,77.39235748125,62.0,105.0
69,77.50813610416668,77.62596390625,62.0,102.0
70,77.75403760416668,77.88416048125,62.0,100.0
71,77.99993910416667,78.13518492916668,64.0,114.0
72,78.24584060416667,78.37493889166667,67.0,94.0
73,78.49174210416668,78.63825841458335,67.0,102.0
74,78.73764360416668,78.86981566041668,65.0,97.0
75,78.98354510416668,79.104446675,64.0,111.0
76,79.22944660416667,79.68538896875,62.0,114.0
77,79.96715110416667,80.33292958541668,67.0,111.0
78,80.45895410416668,80.60137205625001,67.0,108.0
79,80.70485560416668,80.85239650416668,65.0,105.0
80,80.95075710416668,81.07473244375001,64.0,111.0
81,81.19665860416667,81.38313390833335,62.0,105.0
82,81.44256010416667,81.56346167500001,67.0,89.0
83,81.68846160416668,81.79706810000002,67.0,94.0
84,81.93436310416668,82.07575646666668,67.0,97.0
85,82.18026460416668,82.30423994375,69.0,84.0
86,82.42616610416667,82.54706767500001,69.0,100.0
87,82.67206760416667,82.80219048125001,69.0,100.0
88,82.91796910416667,83.04809198125001,67.0,114.0
89,83.16387060416668,83.61059166250001,64.0,111.0
90,83.90157510416668,84.03169798125,64.0,102.0
91,84.14747660416668,84.26530440625001,69.0,102.0
92,84.39337810416667,84.52555016041669,69.0,105.0
93,84.63927960416667,84.78067296666669,69.0,100.0
94,84.88518110416668,84.99071383125,67.0,105.0
95,85.13108260416668,85.23661533125001,64.0,108.0
96,85.37698410416668,85.5040332125,64.0,97.0
97,85.62288560416667,85.74686094375001,64.0,102.0
98,85.86878710416667,85.98354113750001,64.0,108.0
99,86.11468860416667,86.24173771250001,65.0,100.0
100,86.36059010416668,86.4753441375,65.0,100.0
101,86.60649160416668,86.73046694375,65.0,105.0
102,86.85239310416668,86.99071269791668,67.0,105.0
103,87.09829460416668,87.22841748125,65.0,105.0
104,87.34419610416668,87.46202390625001,64.0,105.0
105,87.59009760416669,87.71099917500001,62.0,102.0
106,87.83599910416667,87.96817116041667,62.0,100.0
107,88.08190060416668,88.19665463750002,66.0,102.0
108,88.32780210416668,88.45177744375002,66.0,99.0
109,88.57370360416667,88.70382648125002,66.0,96.0
110,88.81960510416667,89.08394921666667,66.0,102.0
111,89.31140810416667,89.44665392916667,62.0,94.0
112,89.55730960416668,89.70485050416667,62.0,97.0
113,89.80321110416668,89.94460446666668,64.0,102.0
114,90.04911260416668,90.86366132291667,67.0,111.0
115,91.03271860416667,92.58497182291669,67.0,108.0
116,92.75402910416668,92.91079131041667,67.0,111.0
117,92.99993060416668,93.120832175,66.0,112.0
118,93.24583210416668,93.36365990625,64.0,105.0
119,93.49173360416668,93.61570894375001,62.0,100.0
120,93.73763510416669,93.98148742500001,60.0,114.0
121,93.98353660416669,94.94255245416667,62.0,100.0
122,96.69654105416667,96.84505575416668,67.0,105.0
123,96.94406555416667,97.09876836666668,66.0,109.0
124,97.19159005416668,97.3132896,64.0,105.0
125,97.43911455416668,97.58144114166667,62.0,100.0
126,97.68663905416668,97.81968347291668,64.0,111.0
127,97.93416355416667,98.29513678333335,67.0,108.0
128,98.42921255416668,98.92219885000002,62.0,111.0
129,98.92426155416668,99.32030075416668,64.0,100.0
130,99.41931055416667,99.61629880208335,62.0,108.0
131,99.66683505416668,99.82463192291668,59.0,100.0
132,99.91435955416668,100.33721390833334,62.0,108.0
133,100.40940855416667,100.56101731041667,59.0,102.0
134,100.65693305416667,100.79307152916668,57.0,87.0
135,100.90445755416668,101.01996898750001,59.0,108.0
136,101.15198205416668,101.29430864166667,59.0,105.0
137,101.39950655416668,101.54183314166667,57.0,102.0
138,101.64703105416667,103.62516435,55.0,97.0
139,128.72530085000002,128.86054667500002,62.0,94.0
140,128.97120235000003,129.11874325000002,62.0,97.0
141,129.21710385000003,129.35849721250003,64.0,102.0
142,129.46300535,130.27755406875002,67.0,111.0
143,130.44661135,131.99886456875,67.0,108.0
144,132.16792185000003,132.32468405625002,67.0,111.0
145,132.41382335000003,132.53472492083336,66.0,112.0
146,132.65972485000003,132.77755265208336,64.0,105.0
147,132.90562635000003,133.02960168958336,62.0,100.0
148,133.15152785,133.39538017083336,60.0,114.0
149,133.39742935,134.35644520000002,62.0,100.0
150,136.10234585,136.24988675000003,67.0,105.0
151,136.34824735,136.50193578750003,66.0,109.0
152,136.59414885,136.71505042083336,64.0,105.0
153,136.84005035,136.9814437125,62.0,100.0
154,137.08595185000001,137.21812390625,64.0,111.0
155,137.33185335000002,137.6904597041667,67.0,108.0
156,137.82365635000002,138.31341017083335,62.0,111.0
157,138.31545935000003,138.70890175000002,64.0,100.0
158,138.80726235000003,139.0029589604167,62.0,108.0
159,139.05316385000003,139.20992605625003,59.0,100.0
160,139.29906535000003,139.71914707916667,62.0,108.0
161,139.79086835,139.94148301875003,59.0,102.0
162,140.03676985,140.172015675,57.0,87.0
163,140.28267135000002,140.39742538333337,59.0,108.0
164,140.52857285000002,140.66996621250001,59.0,105.0
165,140.77447435000002,140.91586771250002,57.0,102.0
166,141.02037585000002,142.98553867083336,55.0,97.0
167,144.46299685000002,144.59824267500002,62.0,94.0
168,144.70889835000003,144.85643925000002,62.0,97.0
169,144.95479985000003,145.09619321250003,64.0,102.0
170,145.20070135000003,146.01525006875002,67.0,111.0
171,146.18430735,147.73656056875,67.0,108.0
172,147.90561785000003,148.06238005625002,67.0,111.0
173,148.15151935000003,148.27242092083335,66.0,112.0
174,148.39742085,148.51524865208336,64.0,105.0
175,148.64332235,148.76729768958336,62.0,100.0
176,148.88922385,149.13307617083336,60.0,114.0
177,149.13512535,150.09414120000002,62.0,100.0
178,151.84004185000003,151.98758275000003,67.0,105.0
179,152.08594335000004,152.23963178750003,66.0,109.0
180,152.33184485000004,152.45274642083336,64.0,105.0
181,152.57774635,152.7191397125,62.0,100.0
182,152.82364785000001,152.95581990625,64.0,111.0
183,153.06954935000002,153.4281557041667,67.0,108.0
184,153.56135235000002,154.05110617083335,62.0,111.0
185,154.05315535000003,154.44659775000002,64.0,100.0
186,154.54495835000003,154.7406549604167,62.0,108.0
187,154.79085985000003,154.94762205625003,59.0,100.0
188,155.03676135,155.45684307916667,62.0,108.0
189,155.52856435,155.67917901875,59.0,102.0
190,155.77446585,155.90971167500004,57.0,87.0
191,156.02036735000001,156.13512138333334,59.0,108.0
192,156.26626885000002,156.40766221250001,59.0,105.0
193,156.51217035000002,156.65356371250002,57.0,102.0
194,156.75807185000002,158.72323467083336,55.0,97.0
195,160.20069285000002,160.31237311458335,67.0,97.0
196,160.44659435000003,160.57364345833335,67.0,100.0
197,160.69249585000003,160.84618428750002,67.0,108.0
198,160.93839735000003,161.08901201875003,69.0,92.0
199,161.18429885000003,161.31442172708336,69.0,102.0
200,161.43020035,161.56544617500003,69.0,114.0
201,161.67610185,161.80007718958336,64.0,114.0
202,161.92200335,162.39843750625002,62.0,114.0
203,162.65970785000002,163.04392894375002,69.0,111.0
204,163.15151085000002,163.2826583166667,69.0,114.0
205,163.39741235000002,163.52138768958335,69.0,102.0
206,163.64331385000003,163.76421542083335,64.0,105.0
207,163.88921535000003,164.01933822708335,62.0,105.0
208,164.13511685000003,164.25294465208336,62.0,102.0
209,164.38101835000003,164.51114122708336,62.0,100.0
210,164.62691985000004,164.762165675,64.0,114.0
211,164.87282135000004,165.0019196375,67.0,94.0
212,165.11872285000004,165.26523916041668,67.0,102.0
213,165.36462435,165.49679640625,65.0,97.0
214,165.61052585000002,165.73142742083337,64.0,111.0
215,165.85642735000002,166.31236971458335,62.0,114.0
216,166.59413185000002,166.95991033125003,67.0,111.0
217,167.08593485000003,167.22835280208335,67.0,108.0
218,167.33183635000003,167.47937725000003,65.0,105.0
219,167.57773785000003,167.70171318958336,64.0,111.0
220,167.82363935,168.0101146541667,62.0,105.0
221,168.06954085,168.19044242083336,67.0,89.0
222,168.31544235,168.42404884583334,67.0,94.0
223,168.56134385000001,168.70273721250004,67.0,97.0
224,168.80724535000002,168.93122068958337,69.0,84.0
225,169.05314685000002,169.17404842083334,69.0,100.0
226,169.29904835000002,169.42917122708337,69.0,100.0
227,169.54494985000002,169.67507272708335,67.0,114.0
228,169.79085135000003,170.23757240833336,64.0,111.0
229,170.52855585000003,170.65867872708336,64.0,102.0
230,170.77445735000003,170.89228515208336,69.0,102.0
231,171.02035885000004,171.15253090625004,69.0,105.0
232,171.26626035000004,171.4076537125,69.0,100.0
233,171.51216185000004,171.61769457708334,67.0,105.0
234,171.75806335000001,171.86359607708334,64.0,108.0
235,172.00396485000002,172.13101395833337,64.0,97.0
236,172.24986635000002,172.37384168958334,64.0,102.0
237,172.49576785000002,172.61052188333338,64.0,108.0
238,172.74166935000002,172.86871845833338,65.0,100.0
239,172.98757085000003,173.10232488333335,65.0,100.0
240,173.23347235000003,173.35744768958335,65.0,105.0
241,173.47937385000003,173.61769344375003,67.0,105.0
242,173.72527535,173.85539822708336,65.0,105.0
243,173.97128822500002,174.08969821458336,64.0,105.0
244,174.21840472500003,174.33990367083337,62.0,102.0
245,174.46552122500003,174.59834634375002,62.0,100.0
246,174.712637725,174.82795875833335,66.0,102.0
247,174.959754225,175.08434212708335,66.0,99.0
248,175.20687072500002,175.33763653958334,66.0,96.0
249,175.45398722500002,175.71963746250003,66.0,102.0
250,176.93668622500002,177.07260030000003,62.0,94.0
251,177.18380272500002,177.33207262500002,62.0,97.0
252,177.43091922500003,177.57301121250003,64.0,102.0
253,177.67803572500003,178.49660913125,67.0,111.0
254,178.66650172500002,180.22642463125,67.0,108.0
255,180.39631722500002,180.55385399375,67.0,111.0
256,180.64343372500002,180.76493267083336,66.0,112.0
257,180.89055022500003,181.00896021458334,64.0,105.0
258,181.13766672500003,181.26225462708337,62.0,100.0
259,181.38478322500004,181.62892410833336,60.0,114.0
260,181.6309732875,182.58998913750003,62.0,100.0
261,184.33588978750004,184.48343068750003,67.0,105.0
262,184.58179128750004,184.73547972500003,66.0,109.0
263,184.8276927875,184.94859435833337,64.0,105.0
264,185.07359428750001,185.21498765,62.0,100.0
265,185.31949578750002,185.45166784375002,64.0,111.0
266,185.56539728750002,185.9240036416667,67.0,108.0
267,186.05720028750002,186.54695410833335,62.0,111.0
268,186.54900328750003,186.94244568750003,64.0,100.0
269,187.04080628750003,187.2365028979167,62.0,108.0
270,187.28670778750003,187.44346999375003,59.0,100.0
271,187.53260928750004,187.9526910166667,62.0,108.0
272,188.0244122875,188.17502695625004,59.0,102.0
273,188.27031378750002,188.4055596125,57.0,87.0
274,188.51621528750002,188.63096932083337,59.0,108.0
275,188.76211678750002,188.90351015000002,59.0,105.0
276,189.00801828750002,189.14941165000002,57.0,102.0
277,189.25391978750002,191.21908260833337,55.0,97.0
278,192.69654078750003,192.83178661250003,62.0,94.0
279,192.94244228750003,193.08998318750002,62.0,97.0
280,193.18834378750003,193.32973715000003,64.0,102.0
281,193.43424528750003,194.24879400625002,67.0,111.0
282,194.4178512875,195.97010450625004,67.0,108.0
283,196.13916178750003,196.29592399375002,67.0,111.0
284,196.38506328750003,196.50596485833336,66.0,112.0
285,196.63096478750003,196.74879258958336,64.0,105.0
286,196.87686628750004,197.00084162708336,62.0,100.0
287,197.12276778750004,197.36662010833336,60.0,114.0
288,197.36866928750004,198.32768513750003,62.0,100.0
289,200.07358578750004,200.22112668750003,67.0,105.0
290,200.31948728750004,200.47317572500003,66.0,109.0
291,200.5653887875,200.68629035833337,64.0,105.0
292,200.81129028750001,200.95268365000004,62.0,100.0
293,201.05719178750002,201.18936384375002,64.0,111.0
294,201.30309328750002,201.6616996416667,67.0,108.0
295,201.79489628750002,202.28465010833335,62.0,111.0
296,202.28669928750003,202.68014168750003,64.0,100.0
297,202.77850228750003,202.9741988979167,62.0,108.0
298,203.02440378750003,203.18116599375003,59.0,100.0
299,203.27030528750004,203.6903870166667,62.0,108.0
300,203.76210828750004,203.91272295625004,59.0,102.0
301,204.00800978750004,204.1432556125,57.0,87.0
302,204.25391128750002,204.36866532083337,59.0,108.0
303,204.49981278750002,204.64120615000002,59.0,105.0
304,204.74571428750002,204.88710765000002,57.0,102.0
305,204.99161578750002,206.95721613333336,55.0,97.0
306,207.9523456041667,208.1019715041667,67.0,105.0
307,208.2017221041667,208.3575824166667,66.0,109.0
308,208.4510986041667,208.57370871666672,64.0,105.0
309,208.7004751041667,208.8447678166667,62.0,100.0
310,208.9517307541667,209.0870074104167,64.0,111.0
311,209.2034082541667,209.57136959791669,67.0,108.0
312,209.7088627229167,210.21652299583337,62.0,111.0
313,210.2186524666667,210.63113949166672,64.0,100.0
314,210.73448164583337,210.94190963541672,62.0,108.0
315,210.9951241458334,211.1621930979167,59.0,100.0
316,211.2578394479167,211.71010800833338,62.0,108.0
317,211.7880242791667,211.95257574791668,59.0,102.0
318,212.0573997291667,212.2061821541667,57.0,87.0
319,212.32791322916668,212.45415286250002,59.0,108.0
320,212.5984267291667,212.7539719916667,59.0,105.0
321,212.8689402291667,213.0244854916667,57.0,102.0
322,213.1394537291667,215.30130745000002,55.0,97.0
323,215.8445887291667,216.0068968291667,67.0,105.0
324,216.1151022291667,216.2841731666667,66.0,109.0
325,216.3856157291667,216.51861820000002,64.0,105.0
326,216.65612922916668,216.81167449166668,62.0,100.0
327,216.9266427291667,217.07204373541668,64.0,111.0
328,217.1971562291667,217.59165508333336,67.0,108.0
329,217.73818322916668,218.280245175,62.0,111.0
330,218.28252619583336,218.7223651229167,64.0,100.0
331,218.8333731229167,219.05454511458336,62.0,108.0
332,219.1123826729167,219.2929774979167,59.0,100.0
333,219.39566867291668,219.88245234791668,62.0,108.0
334,219.96650601458336,220.14301871458335,59.0,102.0
335,220.25469001458336,220.41319121458335,57.0,87.0
336,220.54287401458336,220.8681036354167,59.0,108.0
337,220.93441001041668,221.31959351458337,59.0,105.0
338,221.40408648958336,221.75208155833337,57.0,102.0
339,221.89602080833336,224.34126960208334,55.0,97.0
