,start,end,pitch,velocity
0,0.7377045000000001,1.00512238125,38.0,89.0
1,0.7377045000000001,1.00512238125,50.0,82.0
2,0.9836060000000001,1.2418025750000001,40.0,92.0
3,0.9836060000000001,1.2448763437500001,52.0,87.0
4,1.2295075000000002,1.3954910125000002,42.0,99.0
5,1.2295075000000002,1.4456959020833335,54.0,96.0
6,1.4754090000000002,1.8739743479166668,59.0,84.0
7,1.4754090000000002,1.8934415500000004,62.0,89.0
8,1.4754090000000002,2.212088910416667,43.0,84.0
9,1.9672120000000002,2.2950806666666668,59.0,89.0
10,1.9672120000000002,2.2950806666666668,62.0,89.0
11,1.4754090000000002,2.4098347,50.0,77.0
12,2.33606425,2.6629083270833336,62.0,89.0
13,2.4590150000000004,2.7028673208333336,59.0,89.0
14,2.7049165000000004,2.8719246020833338,59.0,89.0
15,2.7049165000000004,2.882170497916667,62.0,88.0
16,2.4590150000000004,3.103481847916667,40.0,92.0
17,3.1967195000000004,3.8606535500000003,64.0,90.0
18,3.1967195000000004,3.870899445833334,60.0,89.0
19,3.4426210000000004,4.106555050000001,45.0,89.0
20,3.9344240000000004,4.199792702083334,64.0,99.0
21,3.9344240000000004,4.22028449375,60.0,90.0
22,3.4426210000000004,4.3770467,52.0,77.0
23,4.303276250000001,4.422128641666667,64.0,93.0
24,4.303276250000001,4.443645022916667,60.0,89.0
25,4.6721285,4.912907052083334,57.0,89.0
26,4.6721285,4.953890635416667,62.0,83.0
27,4.426227000000001,5.1639315,38.0,90.0
28,4.426227000000001,5.1639315,50.0,90.0
29,5.1639315,5.407783820833334,57.0,89.0
30,5.1639315,5.407783820833334,62.0,89.0
31,5.409833000000001,5.808398347916667,59.0,84.0
32,5.409833000000001,5.827865550000001,62.0,89.0
33,5.409833000000001,6.146512910416668,43.0,84.0
34,5.901636000000001,6.229504666666667,59.0,89.0
35,5.901636000000001,6.229504666666667,62.0,89.0
36,5.409833000000001,6.344258700000001,50.0,77.0
37,6.2704882500000005,6.597332327083334,62.0,89.0
38,6.639340500000001,6.806348602083334,59.0,89.0
39,6.639340500000001,6.816594497916667,62.0,88.0
40,6.393439000000001,7.037905847916668,40.0,92.0
41,7.131143500000001,7.795077550000001,64.0,90.0
42,7.131143500000001,7.805323445833334,60.0,89.0
43,7.377045000000001,8.04097905,45.0,89.0
44,7.868848000000001,8.134216702083334,64.0,99.0
45,7.868848000000001,8.15470849375,60.0,90.0
46,7.377045000000001,8.311470700000001,52.0,77.0
47,8.237700250000001,8.356552641666667,64.0,93.0
48,8.237700250000001,8.378069022916668,60.0,89.0
49,8.360651,8.727454070833334,50.0,90.0
50,8.360651,8.844257283333334,38.0,90.0
51,8.606552500000001,9.066593222916667,57.0,89.0
52,8.606552500000001,9.107576806250002,62.0,83.0
53,9.285855393750001,11.272534595833335,50.0,73.0
54,9.344257,11.284829670833334,54.0,72.0
55,9.38421599375,11.305321462500002,57.0,97.0
56,9.221306250000001,11.329911612500002,38.0,92.0
57,11.311469,11.710034347916668,59.0,84.0
58,11.311469,11.729501550000002,62.0,89.0
59,11.311469,12.048148910416668,43.0,84.0
60,11.803272000000002,12.131140666666669,59.0,89.0
61,11.803272000000002,12.131140666666669,62.0,89.0
62,11.311469,12.245894700000001,50.0,77.0
63,12.172124250000001,12.498968327083334,62.0,89.0
64,12.295075000000002,12.538927320833334,59.0,89.0
65,12.540976500000001,12.707984602083336,59.0,89.0
66,12.540976500000001,12.718230497916668,62.0,88.0
67,12.295075000000002,12.939541847916669,40.0,92.0
68,13.032779500000002,13.696713550000002,64.0,90.0
69,13.032779500000002,13.706959445833336,60.0,89.0
70,13.278681000000002,13.942615050000002,45.0,89.0
71,13.770484000000002,14.035852702083336,64.0,99.0
72,13.770484000000002,14.056344493750002,60.0,90.0
73,13.278681000000002,14.213106700000003,52.0,77.0
74,14.139336250000001,14.258188641666669,64.0,93.0
75,14.139336250000001,14.27970502291667,60.0,89.0
76,14.508188500000003,14.748967052083335,57.0,89.0
77,14.508188500000003,14.789950635416668,62.0,83.0
78,14.262287000000002,14.999991500000002,38.0,90.0
79,14.262287000000002,14.999991500000002,50.0,90.0
80,14.999991500000002,15.243843820833336,57.0,89.0
81,14.999991500000002,15.243843820833336,62.0,89.0
82,15.245893000000002,15.644458347916668,59.0,84.0
83,15.245893000000002,15.663925550000002,62.0,89.0
84,15.245893000000002,15.98257291041667,43.0,84.0
85,15.737696000000001,16.06556466666667,59.0,89.0
86,15.737696000000001,16.06556466666667,62.0,89.0
87,15.245893000000002,16.1803187,50.0,77.0
88,16.106548250000003,16.433392327083336,62.0,89.0
89,16.475400500000003,16.642408602083336,59.0,89.0
90,16.475400500000003,16.652654497916668,62.0,88.0
91,16.229499,16.87396584791667,40.0,92.0
92,16.967203500000004,17.631137550000002,64.0,90.0
93,16.967203500000004,17.641383445833334,60.0,89.0
94,17.213105000000002,17.877039050000004,45.0,89.0
95,17.704908000000003,17.970276702083336,64.0,99.0
96,17.704908000000003,17.990768493750004,60.0,90.0
97,17.213105000000002,18.1475307,52.0,77.0
98,18.073760250000003,18.19261264166667,64.0,93.0
99,18.073760250000003,18.21412902291667,60.0,89.0
100,18.196711000000004,18.440563320833334,38.0,90.0
101,18.196711000000004,18.563514070833335,50.0,90.0
102,18.442612500000003,18.634210752083337,38.0,79.0
103,18.442612500000003,18.683391052083337,57.0,89.0
104,18.442612500000003,18.72437463541667,62.0,83.0
105,18.688514,18.811464750000003,40.0,77.0
106,18.934415500000004,19.12191539375,42.0,75.0
107,18.934415500000004,19.178267820833337,57.0,89.0
108,18.934415500000004,19.178267820833337,62.0,89.0
109,19.180317000000002,19.578882347916668,59.0,84.0
110,19.180317000000002,19.598349550000002,62.0,89.0
111,19.180317000000002,19.91699691041667,43.0,84.0
112,19.672120000000003,19.99998866666667,59.0,89.0
113,19.672120000000003,19.99998866666667,62.0,89.0
114,19.180317000000002,20.114742700000004,50.0,77.0
115,20.040972250000003,20.367816327083336,62.0,89.0
116,20.163923000000004,20.407775320833338,59.0,89.0
117,20.409824500000003,20.576832602083336,59.0,89.0
118,20.409824500000003,20.587078497916668,62.0,88.0
119,20.163923000000004,20.80838984791667,40.0,92.0
120,20.901627500000004,21.56556155,64.0,90.0
121,20.901627500000004,21.575807445833338,60.0,89.0
122,21.147529000000002,21.811463050000004,45.0,89.0
123,21.639332000000003,21.904700702083336,64.0,99.0
124,21.639332000000003,21.925192493750004,60.0,90.0
125,21.147529000000002,22.081954700000004,52.0,77.0
126,22.008184250000003,22.12703664166667,64.0,93.0
127,22.008184250000003,22.14855302291667,60.0,89.0
128,22.377036500000003,22.617815052083337,57.0,89.0
129,22.377036500000003,22.65879863541667,62.0,83.0
130,22.131135000000004,22.868839500000004,38.0,90.0
131,22.131135000000004,22.868839500000004,50.0,90.0
132,22.868839500000004,23.112691820833337,57.0,89.0
133,22.868839500000004,23.112691820833337,62.0,89.0
134,23.114741000000002,23.51330634791667,59.0,84.0
135,23.114741000000002,23.53277355,62.0,89.0
136,23.114741000000002,23.85142091041667,43.0,84.0
137,23.606544000000003,23.93441266666667,59.0,89.0
138,23.606544000000003,23.93441266666667,62.0,89.0
139,23.114741000000002,24.049166700000004,50.0,77.0
140,23.975396250000003,24.302240327083336,62.0,89.0
141,24.344248500000003,24.511256602083336,59.0,89.0
142,24.344248500000003,24.52150249791667,62.0,88.0
143,24.098347000000004,24.74281384791667,40.0,92.0
144,24.836051500000004,25.499985550000005,64.0,90.0
145,24.836051500000004,25.510231445833337,60.0,89.0
146,25.081953000000002,25.745887050000004,45.0,89.0
147,25.573756000000003,25.839124702083335,64.0,99.0
148,25.573756000000003,25.859616493750003,60.0,90.0
149,25.081953000000002,26.016378700000004,52.0,77.0
150,25.942608250000003,26.06146064166667,64.0,93.0
151,25.942608250000003,26.08297702291667,60.0,89.0
152,26.065559000000004,26.309411320833338,38.0,90.0
153,26.065559000000004,26.43236207083334,50.0,90.0
154,26.311460500000003,26.503058752083337,38.0,79.0
155,26.311460500000003,26.552239052083337,57.0,89.0
156,26.311460500000003,26.59322263541667,62.0,83.0
157,26.557362000000005,26.680312750000002,40.0,77.0
158,26.803263500000003,26.990763393750004,42.0,75.0
159,26.803263500000003,27.047115820833337,57.0,89.0
160,26.803263500000003,27.047115820833337,62.0,89.0
161,27.049165000000002,27.44773034791667,59.0,84.0
162,27.049165000000002,27.467197550000005,62.0,89.0
163,27.049165000000002,27.78584491041667,43.0,84.0
164,27.540968000000003,27.86883666666667,59.0,89.0
165,27.540968000000003,27.86883666666667,62.0,89.0
166,27.049165000000002,27.983590700000004,50.0,77.0
167,27.909820250000003,28.236664327083336,62.0,89.0
168,28.032771000000004,28.276623320833338,59.0,89.0
169,28.278672500000003,28.445680602083335,59.0,89.0
170,28.278672500000003,28.45592649791667,62.0,88.0
171,28.032771000000004,28.677237847916672,40.0,92.0
172,28.770475500000003,29.434409550000005,64.0,90.0
173,28.770475500000003,29.444655445833337,60.0,89.0
174,29.016377000000006,29.680311050000004,45.0,89.0
175,29.508180000000003,29.77354870208334,64.0,99.0
176,29.508180000000003,29.794040493750003,60.0,90.0
177,29.016377000000006,29.950802700000004,52.0,77.0
178,29.877032250000003,29.99588464166667,64.0,93.0
179,29.877032250000003,30.01740102291667,60.0,89.0
180,30.245884500000003,30.486663052083337,57.0,89.0
181,30.245884500000003,30.52764663541667,62.0,83.0
182,29.999983000000004,30.737687500000003,38.0,90.0
183,29.999983000000004,30.737687500000003,50.0,90.0
184,30.737687500000003,30.981539820833337,57.0,89.0
185,30.737687500000003,30.981539820833337,62.0,89.0
186,30.983589000000006,31.38215434791667,59.0,84.0
187,30.983589000000006,31.401621550000005,62.0,89.0
188,30.983589000000006,31.72026891041667,43.0,84.0
189,31.475392000000003,31.80326066666667,59.0,89.0
190,31.475392000000003,31.80326066666667,62.0,89.0
191,30.983589000000006,31.918014700000004,50.0,77.0
192,31.844244250000003,32.17108832708334,62.0,89.0
193,32.213096500000006,32.380104602083335,59.0,89.0
194,32.213096500000006,32.39035049791667,62.0,88.0
195,31.967195000000004,32.61166184791667,40.0,92.0
196,32.7048995,33.368833550000005,64.0,90.0
197,32.7048995,33.37907944583334,60.0,89.0
198,32.950801000000006,33.61473505000001,45.0,89.0
199,33.442604,33.70797270208334,64.0,99.0
200,33.442604,33.72846449375,60.0,90.0
201,32.950801000000006,33.885226700000004,52.0,77.0
202,33.811456250000006,33.93030864166667,64.0,93.0
203,33.811456250000006,33.95182502291667,60.0,89.0
204,33.93440700000001,34.17825932083334,38.0,90.0
205,33.93440700000001,34.301210070833335,50.0,90.0
206,34.1803085,34.37190675208334,38.0,79.0
207,34.1803085,34.42108705208334,57.0,89.0
208,34.1803085,34.46207063541667,62.0,83.0
209,34.426210000000005,34.549160750000006,40.0,77.0
210,34.67211150000001,34.85961139375001,42.0,75.0
211,34.67211150000001,34.91596382083334,57.0,89.0
212,34.67211150000001,34.91596382083334,62.0,89.0
213,34.918013,35.316578347916675,59.0,84.0
214,34.918013,35.33604555,62.0,89.0
215,34.918013,35.65469291041667,43.0,84.0
216,35.409816000000006,35.737684666666674,59.0,89.0
217,35.409816000000006,35.737684666666674,62.0,89.0
218,34.918013,35.85243870000001,50.0,77.0
219,35.77866825,36.10551232708334,62.0,89.0
220,35.901619000000004,36.14547132083334,59.0,89.0
221,36.147520500000006,36.314528602083335,59.0,89.0
222,36.147520500000006,36.32477449791667,62.0,88.0
223,35.901619000000004,36.54608584791667,40.0,92.0
224,36.6393235,37.303257550000005,64.0,90.0
225,36.6393235,37.31350344583334,60.0,89.0
226,36.885225000000005,37.54915905000001,45.0,89.0
227,37.377028,37.64239670208334,64.0,99.0
228,37.377028,37.66288849375,60.0,90.0
229,36.885225000000005,37.819650700000004,52.0,77.0
230,37.745880250000006,37.86473264166667,64.0,93.0
231,37.745880250000006,37.88624902291667,60.0,89.0
232,38.1147325,38.35551105208334,57.0,89.0
233,38.1147325,38.39649463541667,62.0,83.0
234,37.86883100000001,38.60653550000001,38.0,90.0
235,37.86883100000001,38.60653550000001,50.0,90.0
236,38.60653550000001,38.85038782083334,57.0,89.0
237,38.60653550000001,38.85038782083334,62.0,89.0
238,38.852437,39.251002347916675,59.0,84.0
239,38.852437,39.27046955000001,62.0,89.0
240,38.852437,39.58995961875001,43.0,84.0
241,39.34427707916667,39.673224412500005,59.0,89.0
242,39.34427707916667,39.673224412500005,62.0,89.0
243,38.852437,39.788355979166674,50.0,77.0
244,39.714342829166675,40.04226220208334,62.0,89.0
245,40.08440857916667,40.25196612708334,59.0,89.0
246,40.08440857916667,40.262245731250005,62.0,88.0
247,39.83769807916667,40.48428518125001,40.0,92.0
248,40.577829579166675,41.24394792916667,64.0,90.0
249,40.577829579166675,41.25422753333334,60.0,89.0
250,40.824540079166674,41.49065842916667,45.0,89.0
251,41.31796107916667,41.58420282708334,64.0,99.0
252,41.31796107916667,41.60476203541667,60.0,90.0
253,40.824540079166674,41.76203997916667,52.0,77.0
254,41.688026829166674,41.807270237500006,64.0,93.0
255,41.688026829166674,41.82885740625001,60.0,89.0
256,41.81138207916668,42.05603665833334,38.0,90.0
257,41.81138207916668,42.17939190833334,50.0,90.0
258,42.058092579166676,42.25032117708334,38.0,79.0
259,42.058092579166676,42.29966327708334,57.0,89.0
260,42.058092579166676,42.34078169375,62.0,83.0
261,42.304803079166675,42.42815832916667,40.0,77.0
262,42.551513579166674,42.73963033541667,42.0,75.0
263,42.551513579166674,42.79616815833334,57.0,89.0
264,42.551513579166674,42.79616815833334,62.0,89.0
265,42.79822407916667,43.70591312708334,43.0,73.0
266,43.29164507916667,43.717220691666675,50.0,87.0
267,43.29164507916667,43.73880786041667,55.0,94.0
268,43.29164507916667,43.77170259375001,59.0,97.0
269,44.031776579166674,44.17980287916667,55.0,94.0
270,44.031776579166674,44.197278206250004,52.0,82.0
271,44.031776579166674,44.197278206250004,59.0,89.0
272,43.785066079166675,44.79452320833334,40.0,78.0
273,44.52519757916667,44.79863505000001,55.0,50.0
274,44.52519757916667,44.81611037708334,59.0,78.0
275,44.52519757916667,44.81919425833334,52.0,57.0
276,44.77190807916667,45.59016457083334,45.0,89.0
277,45.265329079166676,45.72379942500001,57.0,94.0
278,45.265329079166676,45.75669415833334,52.0,89.0
279,45.265329079166676,45.91294414166667,60.0,100.0
280,46.00546057916667,46.14731911666667,50.0,71.0
281,46.00546057916667,46.15348687916667,54.0,65.0
282,46.00546057916667,46.17712996875001,57.0,94.0
283,45.758750079166674,46.541027956250005,38.0,78.0
284,46.49888157916667,46.76923516875001,57.0,80.0
285,46.49888157916667,46.78979437708334,54.0,74.0
286,46.49888157916667,46.80829766458334,50.0,73.0
287,46.74559207916667,47.608050868750006,43.0,73.0
288,47.239013079166675,47.73037815833334,50.0,76.0
289,47.239013079166675,47.76121697083334,55.0,89.0
290,47.239013079166675,47.76121697083334,59.0,92.0
291,47.97914457916667,48.12100311666667,52.0,73.0
292,47.97914457916667,48.12100311666667,55.0,84.0
293,47.97914457916667,48.14156232500001,59.0,89.0
294,47.73243407916667,48.55685833333334,40.0,58.0
295,48.47256557916667,48.661710295833345,55.0,89.0
296,48.47256557916667,48.68638134583334,52.0,87.0
297,48.47256557916667,48.70385667291667,59.0,89.0
298,48.719276079166676,49.656775979166675,45.0,76.0
299,49.212697079166674,49.67116742500001,57.0,89.0
300,49.212697079166674,49.71639768333334,52.0,84.0
301,49.212697079166674,49.84489273541667,60.0,89.0
302,49.70611807916667,50.04534501666667,38.0,66.0
303,49.95282857916668,50.10599468125001,54.0,96.0
304,49.95282857916668,50.10599468125001,57.0,94.0
305,49.95282857916668,50.11524632500001,50.0,100.0
306,50.446249579166675,50.66006534583334,50.0,82.0
307,50.446249579166675,50.66828902916667,54.0,93.0
308,50.446249579166675,50.68062455416667,57.0,92.0
309,50.692960079166674,51.600649127083344,43.0,73.0
310,51.18638107916667,51.61195669166668,50.0,87.0
311,51.18638107916667,51.63354386041667,55.0,94.0
312,51.18638107916667,51.66643859375001,59.0,97.0
313,51.926512579166676,52.074538879166674,55.0,94.0
314,51.926512579166676,52.092014206250006,52.0,82.0
315,51.926512579166676,52.092014206250006,59.0,89.0
316,51.67980207916668,52.68925920833334,40.0,78.0
317,52.419933579166674,52.69337105000001,55.0,50.0
318,52.419933579166674,52.71084637708334,59.0,78.0
319,52.419933579166674,52.71393025833334,52.0,57.0
320,52.66664407916667,53.48490057083334,45.0,89.0
321,53.16006507916667,53.618535425000005,57.0,94.0
322,53.16006507916667,53.65143015833334,52.0,89.0
323,53.16006507916667,53.80768014166667,60.0,100.0
324,53.900196579166675,54.042055116666674,50.0,71.0
325,53.900196579166675,54.04822287916667,54.0,65.0
326,53.900196579166675,54.071865968750004,57.0,94.0
327,53.653486079166676,54.43540327708334,38.0,78.0
328,54.39339510416667,54.66286216458334,57.0,80.0
329,54.39339510416667,54.68335395625001,54.0,74.0
330,54.39339510416667,54.701796568750005,50.0,73.0
331,54.639296604166674,55.49892726458334,43.0,73.0
332,55.13109960416667,55.62085342500001,50.0,76.0
333,55.13109960416667,55.65159111250001,55.0,89.0
334,55.13109960416667,55.65159111250001,59.0,92.0
335,55.86880410416667,56.010197466666675,52.0,73.0
336,55.86880410416667,56.010197466666675,55.0,84.0
337,55.86880410416667,56.03068925833334,59.0,89.0
338,55.622902604166676,56.44462345000001,40.0,58.0
339,56.360607104166675,56.54913158750001,55.0,89.0
340,56.360607104166675,56.57372173750001,52.0,87.0
341,56.360607104166675,56.591139760416674,59.0,89.0
342,56.60650860416667,57.540934304166676,45.0,76.0
343,57.098311604166675,57.55527855833334,57.0,89.0
344,57.098311604166675,57.60036050000001,52.0,84.0
345,57.098311604166675,57.72843419791667,60.0,89.0
346,57.59011460416667,57.928229166666675,38.0,66.0
347,57.836016104166674,57.98867995208334,54.0,96.0
348,57.836016104166674,57.98867995208334,57.0,94.0
349,57.836016104166674,57.99790125833334,50.0,100.0
350,58.32781910416667,58.540933737500005,50.0,82.0
351,58.32781910416667,58.54913045416667,54.0,93.0
352,58.32781910416667,58.56142552916667,57.0,92.0
353,58.573720604166674,59.47843320625,43.0,73.0
354,59.06552360416667,59.489703691666676,50.0,87.0
355,59.06552360416667,59.51122007291667,55.0,94.0
356,59.06552360416667,59.54400693958334,59.0,97.0
357,59.80322810416667,59.95076900416667,55.0,94.0
358,59.80322810416667,59.96818702708334,52.0,82.0
359,59.80322810416667,59.96818702708334,59.0,89.0
360,59.557326604166676,60.563473575,40.0,78.0
361,60.295031104166675,60.56757193333334,55.0,50.0
362,60.295031104166675,60.584989956250006,59.0,78.0
363,60.295031104166675,60.588063725000005,52.0,57.0
364,60.54093260416667,61.356505912500005,45.0,89.0
365,61.032735604166675,61.48970255833334,57.0,94.0
366,61.032735604166675,61.522489425,52.0,89.0
367,61.032735604166675,61.67822704166667,60.0,100.0
368,61.770440104166674,61.91183346666667,50.0,71.0
369,61.770440104166674,61.91798100416668,54.0,65.0
370,61.770440104166674,61.94154656458334,57.0,94.0
371,61.52453860416667,62.30425127708334,38.0,78.0
372,62.26224310416667,62.531710164583345,57.0,80.0
373,62.26224310416667,62.55220195625001,54.0,74.0
374,62.26224310416667,62.570644568750005,50.0,73.0
375,62.508144604166674,63.367775264583344,43.0,73.0
376,62.99994760416667,63.48970142500001,50.0,76.0
377,62.99994760416667,63.52043911250001,55.0,89.0
378,62.99994760416667,63.52043911250001,59.0,92.0
379,63.73765210416667,63.879045466666675,52.0,73.0
380,63.73765210416667,63.879045466666675,55.0,84.0
381,63.73765210416667,63.89953725833334,59.0,89.0
382,63.491750604166675,64.31347145000001,40.0,58.0
383,64.22945510416668,64.41797958750001,55.0,89.0
384,64.22945510416668,64.44256973750001,52.0,87.0
385,64.22945510416668,64.45998776041668,59.0,89.0
386,64.47535660416668,65.40978230416667,45.0,76.0
387,64.96715960416668,65.42412655833334,57.0,89.0
388,64.96715960416668,65.46920850000001,52.0,84.0
389,64.96715960416668,65.59728219791667,60.0,89.0
390,65.45896260416667,65.79707716666667,38.0,66.0
391,65.70486410416667,65.85752795208334,54.0,96.0
392,65.70486410416667,65.85752795208334,57.0,94.0
393,65.70486410416667,65.86674925833334,50.0,100.0
394,66.19666710416668,66.40978173750001,50.0,82.0
395,66.19666710416668,66.41797845416667,54.0,93.0
396,66.19666710416668,66.43027352916667,57.0,92.0
397,66.44256860416667,67.34728120625,43.0,73.0
398,66.93437160416667,67.35855169166668,50.0,87.0
399,66.93437160416667,67.38006807291667,55.0,94.0
400,66.93437160416667,67.41285493958334,59.0,97.0
401,67.67207610416668,67.81961700416667,55.0,94.0
402,67.67207610416668,67.83703502708335,52.0,82.0
403,67.67207610416668,67.83703502708335,59.0,89.0
404,67.42617460416668,68.432321575,40.0,78.0
405,68.16387910416668,68.43641993333334,55.0,50.0
406,68.16387910416668,68.45383795625001,59.0,78.0
407,68.16387910416668,68.45691172500001,52.0,57.0
408,68.40978060416667,69.22535391250001,45.0,89.0
409,68.90158360416667,69.35855055833335,57.0,94.0
410,68.90158360416667,69.391337425,52.0,89.0
411,68.90158360416667,69.54707504166667,60.0,100.0
412,69.63928810416667,69.78068146666668,50.0,71.0
413,69.63928810416667,69.78682900416668,54.0,65.0
414,69.63928810416667,69.81039456458333,57.0,94.0
415,69.39338660416668,70.17309927708334,38.0,78.0
416,70.13109110416667,70.40055816458334,57.0,80.0
417,70.13109110416667,70.42104995625002,54.0,74.0
418,70.13109110416667,70.43949256875001,50.0,73.0
419,70.37699260416667,71.23662326458334,43.0,73.0
420,70.86879560416668,71.358549425,50.0,76.0
421,70.86879560416668,71.3892871125,55.0,89.0
422,70.86879560416668,71.3892871125,59.0,92.0
423,71.60650010416667,71.74789346666668,52.0,73.0
424,71.60650010416667,71.74789346666668,55.0,84.0
425,71.60650010416667,71.76838525833334,59.0,89.0
426,71.36059860416668,72.18231945000001,40.0,58.0
427,72.09830310416667,72.2868275875,55.0,89.0
428,72.09830310416667,72.31141773750001,52.0,87.0
429,72.09830310416667,72.32883576041667,59.0,89.0
430,72.34420460416668,73.27863030416668,45.0,76.0
431,72.83600760416667,73.29297455833334,57.0,89.0
432,72.83600760416667,73.33805650000001,52.0,84.0
433,72.83600760416667,73.46613019791667,60.0,89.0
434,73.32781060416667,73.66592516666668,38.0,66.0
435,73.57371210416667,73.72637595208334,54.0,96.0
436,73.57371210416667,73.72637595208334,57.0,94.0
437,73.57371210416667,73.73559725833334,50.0,100.0
438,74.06551510416668,74.27862973750001,50.0,82.0
439,74.06551510416668,74.28682645416667,54.0,93.0
440,74.06551510416668,74.29912152916668,57.0,92.0
441,74.31141660416668,74.44153948125,33.0,97.0
442,74.31141660416668,74.44153948125,45.0,97.0
443,74.55731810416668,74.67924426458335,28.0,94.0
444,74.55731810416668,74.67924426458335,40.0,94.0
445,74.80321960416667,74.92412117500001,33.0,105.0
446,74.80321960416667,74.92412117500001,45.0,105.0
447,75.04912110416667,75.15875218958334,28.0,100.0
448,75.04912110416667,75.15875218958334,40.0,100.0
449,75.29502260416668,75.43026842916667,33.0,100.0
450,75.29502260416668,75.43026842916667,45.0,100.0
451,75.54092410416668,75.64645683125,28.0,87.0
452,75.54092410416668,75.64645683125,40.0,87.0
453,75.78682560416668,75.92002225000002,33.0,102.0
454,75.78682560416668,75.92002225000002,45.0,102.0
455,76.03272710416667,76.15055490625001,28.0,89.0
456,76.03272710416667,76.15055490625001,40.0,89.0
457,76.27862860416667,76.40875148125001,33.0,100.0
458,76.27862860416667,76.40875148125001,45.0,100.0
459,76.52453010416667,76.63928413750001,28.0,89.0
460,76.52453010416667,76.63928413750001,40.0,89.0
461,76.77043160416667,76.95075937083334,33.0,102.0
462,76.77043160416667,76.95075937083334,45.0,102.0
463,77.01633310416668,77.137234675,28.0,82.0
464,77.01633310416668,77.137234675,40.0,82.0
465,77.26223460416668,77.39235748125,26.0,102.0
466,77.26223460416668,77.39235748125,38.0,102.0
467,77.50813610416668,77.629037675,26.0,94.0
468,77.50813610416668,77.629037675,38.0,94.0
469,77.75403760416668,77.89850473541668,30.0,109.0
470,77.75403760416668,77.89850473541668,42.0,109.0
471,77.99993910416667,78.15055377291668,26.0,97.0
472,77.99993910416667,78.15055377291668,38.0,97.0
473,78.24584060416667,78.37801266041667,31.0,100.0
474,78.24584060416667,78.37801266041667,43.0,100.0
475,78.49174210416668,78.61674203333334,26.0,97.0
476,78.49174210416668,78.61674203333334,38.0,97.0
477,78.73764360416668,78.89440581041667,31.0,105.0
478,78.73764360416668,78.89440581041667,43.0,105.0
479,78.98354510416668,79.10547126458334,26.0,82.0
480,78.98354510416668,79.10547126458334,38.0,82.0
481,79.22944660416667,79.39235634791667,31.0,94.0
482,79.22944660416667,79.39235634791667,43.0,94.0
483,79.47534810416667,79.59624967500001,26.0,82.0
484,79.47534810416667,79.59624967500001,38.0,82.0
485,79.72124960416667,79.88415934791668,31.0,97.0
486,79.72124960416667,79.88415934791668,43.0,97.0
487,79.96715110416667,80.13006084791668,26.0,76.0
488,79.96715110416667,80.13006084791668,38.0,76.0
489,80.21305260416668,80.34522466041668,31.0,102.0
490,80.21305260416668,80.34522466041668,43.0,102.0
491,80.21305260416668,80.39952790833334,41.0,105.0
492,80.45895410416668,80.58907698125,26.0,73.0
493,80.45895410416668,80.58907698125,38.0,73.0
494,80.70485560416668,80.83702766041668,26.0,73.0
495,80.70485560416668,80.83702766041668,38.0,73.0
496,80.70485560416668,80.85547027291668,31.0,80.0
497,80.70485560416668,80.85547027291668,43.0,80.0
498,80.95075710416668,81.06858490625001,26.0,64.0
499,80.95075710416668,81.06858490625001,38.0,64.0
500,81.19665860416667,81.33190442916668,31.0,105.0
501,81.19665860416667,81.33190442916668,43.0,105.0
502,81.44256010416667,81.56653544375001,26.0,94.0
503,81.44256010416667,81.56653544375001,38.0,94.0
504,81.68846160416668,81.86264183333334,31.0,102.0
505,81.68846160416668,81.86264183333334,43.0,102.0
506,81.93436310416668,82.05833844375002,26.0,92.0
507,81.93436310416668,82.05833844375002,38.0,92.0
508,82.18026460416668,82.32473173541668,33.0,108.0
509,82.18026460416668,82.32473173541668,45.0,108.0
510,82.42616610416667,82.56141192916668,28.0,97.0
511,82.42616610416667,82.56141192916668,40.0,97.0
512,82.67206760416667,82.85137078125001,33.0,108.0
513,82.67206760416667,82.85137078125001,45.0,108.0
514,82.91796910416667,83.05014116041667,28.0,84.0
515,82.91796910416667,83.05014116041667,40.0,84.0
516,83.16387060416668,83.34112460208334,33.0,108.0
517,83.16387060416668,83.34112460208334,45.0,108.0
518,83.40977210416668,83.5183786,28.0,78.0
519,83.40977210416668,83.5183786,40.0,78.0
520,83.65567360416668,83.82473088541667,33.0,97.0
521,83.65567360416668,83.82473088541667,45.0,97.0
522,83.90157510416668,84.02247667500001,28.0,87.0
523,83.90157510416668,84.02247667500001,40.0,87.0
524,84.14747660416668,84.33087813958335,33.0,100.0
525,84.14747660416668,84.33087813958335,45.0,100.0
526,84.39337810416667,84.52555016041669,28.0,82.0
527,84.39337810416667,84.52555016041669,40.0,82.0
528,84.63927960416667,84.79296804166668,33.0,97.0
529,84.63927960416667,84.79296804166668,45.0,97.0
530,84.88518110416668,85.03272200416667,28.0,87.0
531,84.88518110416668,85.03272200416667,40.0,87.0
532,85.13108260416668,85.26632842916668,33.0,100.0
533,85.13108260416668,85.26632842916668,45.0,100.0
534,85.37698410416668,85.5040332125,28.0,100.0
535,85.37698410416668,85.5040332125,40.0,100.0
536,85.62288560416667,85.79501665416667,33.0,94.0
537,85.62288560416667,85.79501665416667,45.0,94.0
538,85.86878710416667,85.98661490625001,28.0,89.0
539,85.86878710416667,85.98661490625001,40.0,89.0
540,86.11468860416667,86.24481148125001,29.0,111.0
541,86.11468860416667,86.24481148125001,41.0,111.0
542,86.36059010416668,86.47841790625,24.0,105.0
543,86.36059010416668,86.47841790625,36.0,105.0
544,86.60649160416668,86.7212456375,29.0,108.0
545,86.60649160416668,86.7212456375,41.0,108.0
546,86.85239310416668,86.9794422125,24.0,108.0
547,86.85239310416668,86.9794422125,36.0,108.0
548,87.09829460416668,87.21919617500001,29.0,111.0
549,87.09829460416668,87.21919617500001,41.0,111.0
550,87.34419610416668,87.49481077291668,24.0,105.0
551,87.34419610416668,87.49481077291668,36.0,105.0
552,87.59009760416669,87.74993357916668,29.0,105.0
553,87.59009760416669,87.74993357916668,41.0,105.0
554,87.83599910416667,87.96304821250001,24.0,108.0
555,87.83599910416667,87.96304821250001,36.0,108.0
556,88.08190060416668,88.19665463750002,26.0,71.0
557,88.08190060416668,88.19665463750002,38.0,71.0
558,88.08190060416668,88.21202348125001,42.0,79.0
559,88.32780210416668,88.43640860000001,42.0,93.0
560,88.32780210416668,88.44460531666667,26.0,94.0
561,88.32780210416668,88.44460531666667,38.0,94.0
562,88.57370360416667,88.69153140625001,42.0,102.0
563,88.57370360416667,88.69460517500002,26.0,92.0
564,88.57370360416667,88.69460517500002,38.0,92.0
565,88.81960510416667,88.94972798125002,42.0,93.0
566,88.81960510416667,88.95485092916667,26.0,89.0
567,88.81960510416667,88.95485092916667,38.0,89.0
568,90.04911260416668,90.95382520625,43.0,73.0
569,90.54091560416668,90.96509569166668,50.0,87.0
570,90.54091560416668,90.98661207291667,55.0,94.0
571,90.54091560416668,91.01939893958334,59.0,97.0
572,91.27862010416668,91.42616100416669,55.0,94.0
573,91.27862010416668,91.44357902708335,52.0,82.0
574,91.27862010416668,91.44357902708335,59.0,89.0
575,91.03271860416667,92.03886557500002,40.0,78.0
576,91.77042310416667,92.04296393333334,55.0,50.0
577,91.77042310416667,92.06038195625001,59.0,78.0
578,91.77042310416667,92.06345572500001,52.0,57.0
579,92.01632460416667,92.83189791250001,45.0,89.0
580,92.50812760416667,92.96509455833333,57.0,94.0
581,92.50812760416667,92.997881425,52.0,89.0
582,92.50812760416667,93.15361904166667,60.0,100.0
583,93.24583210416668,93.38722546666668,50.0,71.0
584,93.24583210416668,93.39337300416668,54.0,65.0
585,93.24583210416668,93.41693856458335,57.0,94.0
586,92.99993060416668,93.77964327708335,38.0,78.0
587,93.73763510416669,94.00710216458334,57.0,80.0
588,93.73763510416669,94.02759395625,54.0,74.0
589,93.73763510416669,94.04603656875001,50.0,73.0
590,93.98353660416669,94.84316726458334,43.0,73.0
591,94.47533960416668,94.96509342500002,50.0,76.0
592,94.47533960416668,94.99583111250001,55.0,89.0
593,94.47533960416668,94.99583111250001,59.0,92.0
594,95.21304410416667,95.35443746666668,52.0,73.0
595,95.21304410416667,95.35443746666668,55.0,84.0
596,95.21304410416667,95.37492925833334,59.0,89.0
597,94.96714260416667,95.79101392500002,40.0,58.0
598,95.70644305416667,95.8962118375,55.0,89.0
599,95.70644305416667,95.92096428750001,52.0,87.0
600,95.70644305416667,95.93849727291668,59.0,89.0
601,95.95396755416668,96.89456065416668,45.0,76.0
602,96.44901655416668,96.90899958333334,57.0,89.0
603,96.44901655416668,96.954379075,52.0,84.0
604,96.44901655416668,97.08329808541667,60.0,89.0
605,96.94406555416667,97.28441174166667,38.0,66.0
606,97.19159005416668,97.34526151458334,54.0,96.0
607,97.19159005416668,97.34526151458334,57.0,94.0
608,97.19159005416668,97.35454368333335,50.0,100.0
609,97.68663905416668,97.9011602875,50.0,82.0
610,97.68663905416668,97.90941110416668,54.0,93.0
611,97.68663905416668,97.92178732916668,57.0,92.0
612,97.93416355416667,98.84484744375001,43.0,73.0
613,98.42921255416668,98.85619231666668,50.0,87.0
614,98.42921255416668,98.87785071041668,55.0,94.0
615,98.42921255416668,98.91085397708335,59.0,97.0
616,99.17178605416667,99.32030075416668,55.0,94.0
617,99.17178605416667,99.33783373958335,52.0,82.0
618,99.17178605416667,99.33783373958335,59.0,89.0
619,98.92426155416668,99.93704930000001,40.0,78.0
620,99.66683505416668,99.94117470833335,55.0,50.0
621,99.66683505416668,99.95870769375001,59.0,78.0
622,99.66683505416668,99.96180175,52.0,57.0
623,99.91435955416668,100.7353158125,45.0,89.0
624,100.40940855416667,100.86939158333334,57.0,94.0
625,100.40940855416667,100.90239485000001,52.0,89.0
626,100.40940855416667,101.05916036666667,60.0,100.0
627,101.15198205416668,101.29430864166667,50.0,71.0
628,101.15198205416668,101.30049675416667,54.0,65.0
629,101.15198205416668,101.32421785208334,57.0,94.0
630,100.90445755416668,101.68931648958335,38.0,78.0
631,101.64703105416667,101.91827665208335,57.0,80.0
632,101.64703105416667,101.93890369375,54.0,74.0
633,101.64703105416667,101.95746803125002,50.0,73.0
634,101.89455555416667,102.75985995208335,43.0,73.0
635,102.38960455416668,102.88259085000001,50.0,76.0
636,102.38960455416668,102.9135314125,55.0,89.0
637,102.38960455416668,102.9135314125,59.0,92.0
638,103.13217805416667,103.27450464166668,52.0,73.0
639,103.13217805416667,103.27450464166668,55.0,84.0
640,103.13217805416667,103.29513168333334,59.0,89.0
641,102.88465355416668,103.71179792500001,40.0,58.0
642,103.62722705416668,103.8169958375,55.0,89.0
643,103.62722705416668,103.84174828750001,52.0,87.0
644,103.62722705416668,103.85928127291668,59.0,89.0
645,103.87475155416668,104.81534465416668,45.0,76.0
646,104.36980055416667,104.82978358333334,57.0,89.0
647,104.36980055416667,104.87516307500002,52.0,84.0
648,104.36980055416667,105.00408208541668,60.0,89.0
649,104.86484955416668,105.20519574166667,38.0,66.0
650,105.11237405416668,105.26604551458334,54.0,96.0
651,105.11237405416668,105.26604551458334,57.0,94.0
652,105.11237405416668,105.27532768333334,50.0,100.0
653,105.60742305416667,105.82159483541668,50.0,82.0
654,105.60742305416667,105.82979826875001,54.0,93.0
655,105.60742305416667,105.84210341875001,57.0,92.0
656,105.85440856875002,106.92085490208335,59.0,94.0
657,105.85440856875002,106.99878751875002,55.0,87.0
658,106.83882056875001,107.18131391041668,50.0,48.0
659,107.08492356875001,107.45407806875002,55.0,73.0
660,107.08492356875001,107.47458665208335,62.0,89.0
661,107.08492356875001,107.47766293958335,59.0,102.0
662,105.85440856875002,107.81605456458335,43.0,100.0
663,107.33102656875002,107.82015628125002,50.0,76.0
664,107.57712956875001,107.82938514375002,55.0,82.0
665,107.57712956875001,107.86835145208335,59.0,94.0
666,107.57712956875001,107.86835145208335,62.0,84.0
667,107.82323256875002,107.86835145208335,62.0,82.0
668,107.82323256875002,108.88719733750001,53.0,62.0
669,107.82323256875002,108.91691043541668,57.0,97.0
670,109.05318085000002,109.69457392916668,53.0,76.0
671,107.82323256875002,109.70994277291668,41.0,89.0
672,109.05318085000002,109.71609031041669,57.0,89.0
673,109.05318085000002,109.73043456458335,62.0,94.0
674,109.76527061041668,110.33494241875002,60.0,97.0
675,109.79805747708335,110.36260633750001,63.0,72.0
676,109.66383624166669,110.38617189791668,56.0,50.0
677,110.47326201250002,111.67613018333336,60.0,100.0
678,110.45686857916668,111.68535148958335,56.0,68.0
679,110.45686857916668,111.69969574375001,63.0,77.0
680,110.22326215416668,111.70891705000001,51.0,45.0
681,109.73555751250001,111.71813835625002,44.0,87.0
682,111.73555637916668,112.73043286458335,58.0,96.0
683,111.75092522291668,112.80215413541669,55.0,62.0
684,112.93022783333335,113.65871102708334,55.0,94.0
685,112.92715406458335,113.67612905000001,62.0,92.0
686,111.74170391666668,113.70071920000001,43.0,97.0
687,113.72530935000002,114.30625164375002,55.0,47.0
688,113.71608804375002,114.30625164375002,60.0,71.0
689,114.41383355000002,114.81239889791668,60.0,92.0
690,114.41690731875002,114.81854643541668,55.0,87.0
691,114.90461196041669,115.62387384791668,64.0,97.0
692,114.90768572916669,115.63002138541668,55.0,89.0
693,114.90563655000001,115.63002138541668,60.0,92.0
694,114.68330061041668,115.63514433333334,52.0,64.0
695,113.70994050625002,115.64743940833336,45.0,94.0
696,115.68125086458335,116.21301285833334,67.0,92.0
697,115.66895578958335,116.23862759791669,63.0,54.0
698,115.66588202083335,116.45174223125002,58.0,57.0
699,115.67510332708335,116.45993894791668,51.0,41.0
700,116.36977506458335,116.76834041250001,70.0,70.0
701,116.36977506458335,116.91793049166668,63.0,82.0
702,117.12079922916668,117.33186468333335,63.0,82.0
703,117.12694676666669,117.49887278541668,67.0,100.0
704,117.12387299791668,117.62489730416668,70.0,93.0
705,117.37284826666668,117.62797107291668,63.0,55.0
706,117.63616778958335,118.16075765625001,71.0,89.0
707,117.63309402083335,118.16383142500001,67.0,89.0
708,117.63924155833335,118.16997896250001,62.0,80.0
709,118.34620837083335,118.60133117708335,71.0,84.0
710,118.34313460208335,118.63719181250002,62.0,92.0
711,118.84620808750002,118.92715066458335,62.0,51.0
712,118.84518349791668,119.14641283541668,67.0,87.0
713,119.08801122916668,119.28063407083334,62.0,102.0
714,118.07981507916668,119.32571601250001,50.0,48.0
715,119.32776519166669,119.45378971041669,67.0,87.0
716,117.62797107291668,119.55317490000002,43.0,100.0
717,119.74989610000002,120.04702707916668,62.0,64.0
718,120.11874835000002,120.40973179166669,64.0,92.0
719,120.36464985000002,120.47633011458335,62.0,76.0
720,120.61055135000002,120.78473157916669,62.0,84.0
721,120.61055135000002,120.98862490625001,67.0,76.0
722,120.85645285000001,121.06341994583335,62.0,73.0
723,121.10235435000001,121.41382958333335,64.0,108.0
724,120.11874835000002,121.42817383750001,50.0,46.0
725,121.34825585000002,121.48964921250001,62.0,67.0
726,119.62694535000001,121.49272298125001,43.0,102.0
727,121.59415735000002,121.81649328958335,57.0,87.0
728,121.84005885000002,121.97530467500002,52.0,80.0
729,122.08596035000002,122.27243565416669,55.0,105.0
730,121.59415735000002,122.47530439166668,45.0,108.0
731,122.33186185000002,122.49784536250002,52.0,97.0
732,122.57776335000001,122.87182056041668,57.0,100.0
733,122.82366485000001,122.95378772708335,52.0,94.0
734,122.57776335000001,123.09927944791669,45.0,66.0
735,123.06956635000002,123.26526296041669,55.0,111.0
736,123.31546785000002,123.45276285416668,52.0,89.0
737,123.56136935000002,123.84313148541668,57.0,97.0
738,123.80727085000002,123.95173798125002,52.0,89.0
739,124.05317235000001,124.32981153750002,55.0,108.0
740,123.56136935000002,124.43227049583335,45.0,100.0
741,124.29907385000001,124.43739344375001,52.0,94.0
742,124.54497535000002,124.70481132500002,52.0,102.0
743,124.54497535000002,124.82468830625001,57.0,102.0
744,124.79087685000002,124.90255711458335,52.0,84.0
745,125.03677835000002,125.16690122708334,52.0,67.0
746,125.03677835000002,125.18739301875002,55.0,108.0
747,124.54497535000002,125.33595850833335,45.0,100.0
748,125.28267985000002,125.41280272708335,52.0,105.0
749,125.52858135000002,125.66382717500002,57.0,94.0
750,125.52858135000002,125.67612225000002,62.0,87.0
751,125.77448285000003,125.88001557708336,57.0,87.0
752,125.52858135000002,125.88616311458335,50.0,89.0
753,126.02038435000001,126.16177771250003,60.0,111.0
754,126.02038435000001,126.17817114583335,50.0,89.0
755,126.26628585000002,126.36874480833335,57.0,105.0
756,126.51218735000002,126.62386761458335,57.0,87.0
757,126.51218735000002,126.63923645833336,62.0,102.0
758,126.51218735000002,126.65870366041668,50.0,89.0
759,126.75808885000002,126.86054780833335,57.0,100.0
760,127.00399035000001,127.10030177083335,57.0,89.0
761,127.00399035000001,127.12489192083335,60.0,102.0
762,127.00399035000001,127.19149024375002,50.0,82.0
763,127.24989185000001,127.34620327083336,57.0,102.0
764,127.49579335000001,127.61362115208335,57.0,100.0
765,127.49579335000001,127.63718671250001,62.0,97.0
766,127.49579335000001,127.79702268750002,50.0,94.0
767,127.74169485000002,127.84108003958335,57.0,92.0
768,127.98759635000002,128.09927661458335,60.0,108.0
769,127.98759635000002,128.28985027708336,50.0,84.0
770,128.23349785000002,128.33595680833335,57.0,94.0
771,128.47939935000002,128.57878453958335,57.0,78.0
772,128.47939935000002,128.58493207708335,62.0,57.0
773,128.47939935000002,128.62386648125002,50.0,67.0
774,128.72530085000002,128.84927618958335,57.0,73.0
775,128.72530085000002,128.84927618958335,62.0,69.0
776,128.72530085000002,128.85542372708335,50.0,78.0
777,128.97120235000003,129.12796455625002,57.0,105.0
778,128.97120235000003,129.14025963125002,62.0,102.0
779,128.97120235000003,129.19661205833336,50.0,108.0
780,129.21710385000003,129.32263657708336,50.0,100.0
781,129.21710385000003,129.36669392916667,57.0,102.0
782,129.21710385000003,129.37284146666667,62.0,97.0
783,129.46300535,130.36771795208335,43.0,73.0
784,129.95480835,130.37898843750003,50.0,87.0
785,129.95480835,130.40050481875002,55.0,94.0
786,129.95480835,130.4332916854167,59.0,97.0
787,130.69251285,130.84005375,55.0,94.0
788,130.69251285,130.85747177291668,52.0,82.0
789,130.69251285,130.85747177291668,59.0,89.0
790,130.44661135,131.45275832083334,40.0,78.0
791,131.18431585000002,131.4568566791667,55.0,50.0
792,131.18431585000002,131.47427470208336,59.0,78.0
793,131.18431585000002,131.47734847083336,52.0,57.0
794,131.43021735000002,132.24579065833336,45.0,89.0
795,131.92202035000003,132.37898730416669,57.0,94.0
796,131.92202035000003,132.41177417083335,52.0,89.0
797,131.92202035000003,132.56751178750002,60.0,100.0
798,132.65972485000003,132.80111821250003,50.0,71.0
799,132.65972485000003,132.80726575000003,54.0,65.0
800,132.65972485000003,132.83083131041667,57.0,94.0
801,132.41382335000003,133.19353602291667,38.0,78.0
802,133.15152785,133.42099491041668,57.0,80.0
803,133.15152785,133.44148670208335,54.0,74.0
804,133.15152785,133.45992931458335,50.0,73.0
805,133.39742935,134.2570600104167,43.0,73.0
806,133.88923235000001,134.37898617083334,50.0,76.0
807,133.88923235000001,134.40972385833334,55.0,89.0
808,133.88923235000001,134.40972385833334,59.0,92.0
809,134.62693685000002,134.76833021250002,52.0,73.0
810,134.62693685000002,134.76833021250002,55.0,84.0
811,134.62693685000002,134.7888220041667,59.0,89.0
812,134.38103535000002,135.20275619583336,40.0,58.0
813,135.11873985000003,135.30726433333336,55.0,89.0
814,135.11873985000003,135.33185448333336,52.0,87.0
815,135.11873985000003,135.34927250625003,59.0,89.0
816,135.36464135000003,136.29906705000002,45.0,76.0
817,135.85644435,136.3134113041667,57.0,89.0
818,135.85644435,136.35849324583336,52.0,84.0
819,135.85644435,136.48656694375,60.0,89.0
820,136.34824735,136.68636191250002,38.0,66.0
821,136.59414885,136.74681269791668,54.0,96.0
822,136.59414885,136.74681269791668,57.0,94.0
823,136.59414885,136.75603400416668,50.0,100.0
824,137.08595185000001,137.29906648333335,50.0,82.0
825,137.08595185000001,137.30726320000002,54.0,93.0
826,137.08595185000001,137.31955827500002,57.0,92.0
827,137.33185335000002,138.23656595208337,43.0,73.0
828,137.82365635000002,138.2478364375,50.0,87.0
829,137.82365635000002,138.26935281875,55.0,94.0
830,137.82365635000002,138.30213968541668,59.0,97.0
831,138.56136085000003,138.70890175000002,55.0,94.0
832,138.56136085000003,138.7263197729167,52.0,82.0
833,138.56136085000003,138.7263197729167,59.0,89.0
834,138.31545935000003,139.32160632083335,40.0,78.0
835,139.05316385000003,139.32570467916668,55.0,50.0
836,139.05316385000003,139.34312270208335,59.0,78.0
837,139.05316385000003,139.34619647083335,52.0,57.0
838,139.29906535000003,140.11463865833335,45.0,89.0
839,139.79086835,140.2478353041667,57.0,94.0
840,139.79086835,140.28062217083334,52.0,89.0
841,139.79086835,140.4363597875,60.0,100.0
842,140.52857285000002,140.66996621250001,50.0,71.0
843,140.52857285000002,140.67611375,54.0,65.0
844,140.52857285000002,140.69967931041668,57.0,94.0
845,140.28267135000002,141.0623840229167,38.0,78.0
846,141.02037585000002,141.2898429104167,57.0,80.0
847,141.02037585000002,141.31033470208337,54.0,74.0
848,141.02037585000002,141.32877731458336,50.0,73.0
849,141.26627735000002,142.12590801041668,43.0,73.0
850,141.75808035000003,142.24783417083336,50.0,76.0
851,141.75808035000003,142.27857185833335,55.0,89.0
852,141.75808035000003,142.27857185833335,59.0,92.0
853,142.49578485,142.63717821250003,52.0,73.0
854,142.49578485,142.63717821250003,55.0,84.0
855,142.49578485,142.65767000416668,59.0,89.0
856,142.24988335,143.07160419583334,40.0,58.0
857,142.98758785,143.17611233333335,55.0,89.0
858,142.98758785,143.20070248333334,52.0,87.0
859,142.98758785,143.21812050625002,59.0,89.0
860,143.23348935,144.16791505000003,45.0,76.0
861,143.72529235000002,144.18225930416668,57.0,89.0
862,143.72529235000002,144.22734124583334,52.0,84.0
863,143.72529235000002,144.35541494375002,60.0,89.0
864,144.21709535000002,144.5552099125,38.0,66.0
865,144.46299685000002,144.6156606979167,54.0,96.0
866,144.46299685000002,144.6156606979167,57.0,94.0
867,144.46299685000002,144.6248820041667,50.0,100.0
868,144.95479985000003,145.16791448333336,50.0,82.0
869,144.95479985000003,145.17611120000004,54.0,93.0
870,144.95479985000003,145.18840627500003,57.0,92.0
871,145.20070135000003,146.10541395208335,43.0,73.0
872,145.69250435000004,146.11668443750003,50.0,87.0
873,145.69250435000004,146.13820081875002,55.0,94.0
874,145.69250435000004,146.1709876854167,59.0,97.0
875,146.43020885,146.57774975,55.0,94.0
876,146.43020885,146.59516777291668,52.0,82.0
877,146.43020885,146.59516777291668,59.0,89.0
878,146.18430735,147.19045432083334,40.0,78.0
879,146.92201185000002,147.1945526791667,55.0,50.0
880,146.92201185000002,147.21197070208336,59.0,78.0
881,146.92201185000002,147.21504447083336,52.0,57.0
882,147.16791335000002,147.98348665833336,45.0,89.0
883,147.65971635000002,148.11668330416668,57.0,94.0
884,147.65971635000002,148.14947017083335,52.0,89.0
885,147.65971635000002,148.30520778750002,60.0,100.0
886,148.39742085,148.53881421250003,50.0,71.0
887,148.39742085,148.54496175000003,54.0,65.0
888,148.39742085,148.5685273104167,57.0,94.0
889,148.15151935000003,148.93123202291667,38.0,78.0
890,148.88922385,149.15869091041668,57.0,80.0
891,148.88922385,149.17918270208335,54.0,74.0
892,148.88922385,149.19762531458335,50.0,73.0
893,149.13512535,149.9947560104167,43.0,73.0
894,149.62692835000001,150.11668217083337,50.0,76.0
895,149.62692835000001,150.14741985833336,55.0,89.0
896,149.62692835000001,150.14741985833336,59.0,92.0
897,150.36463285000002,150.50602621250002,52.0,73.0
898,150.36463285000002,150.50602621250002,55.0,84.0
899,150.36463285000002,150.5265180041667,59.0,89.0
900,150.11873135000002,150.94045219583336,40.0,58.0
901,150.85643585000003,151.04496033333336,55.0,89.0
902,150.85643585000003,151.06955048333336,52.0,87.0
903,150.85643585000003,151.08696850625003,59.0,89.0
904,151.10233735000003,152.03676305000002,45.0,76.0
905,151.59414035000003,152.0511073041667,57.0,89.0
906,151.59414035000003,152.09618924583336,52.0,84.0
907,151.59414035000003,152.22426294375003,60.0,89.0
908,152.08594335000004,152.42405791250002,38.0,66.0
909,152.33184485000004,152.48450869791668,54.0,96.0
910,152.33184485000004,152.48450869791668,57.0,94.0
911,152.33184485000004,152.49373000416668,50.0,100.0
912,152.82364785000001,153.03676248333335,50.0,82.0
913,152.82364785000001,153.04495920000002,54.0,93.0
914,152.82364785000001,153.05725427500002,57.0,92.0
915,153.06954935000002,153.97426195208334,43.0,73.0
916,153.56135235000002,153.9855324375,50.0,87.0
917,153.56135235000002,154.00704881875004,55.0,94.0
918,153.56135235000002,154.03983568541668,59.0,97.0
919,154.29905685000003,154.44659775000002,55.0,94.0
920,154.29905685000003,154.4640157729167,52.0,82.0
921,154.29905685000003,154.4640157729167,59.0,89.0
922,154.05315535000003,155.05930232083335,40.0,78.0
923,154.79085985000003,155.0634006791667,55.0,50.0
924,154.79085985000003,155.08081870208335,59.0,78.0
925,154.79085985000003,155.08389247083335,52.0,57.0
926,155.03676135,155.85233465833335,45.0,89.0
927,155.52856435,155.9855313041667,57.0,94.0
928,155.52856435,156.01831817083337,52.0,89.0
929,155.52856435,156.17405578750004,60.0,100.0
930,156.26626885000002,156.40766221250001,50.0,71.0
931,156.26626885000002,156.41380975,54.0,65.0
932,156.26626885000002,156.43737531041668,57.0,94.0
933,156.02036735000001,156.8000800229167,38.0,78.0
934,156.75807185000002,157.0275389104167,57.0,80.0
935,156.75807185000002,157.04803070208334,54.0,74.0
936,156.75807185000002,157.06647331458336,50.0,73.0
937,157.00397335000002,157.86360401041668,43.0,73.0
938,157.49577635000003,157.98553017083336,50.0,76.0
939,157.49577635000003,158.01626785833335,55.0,89.0
940,157.49577635000003,158.01626785833335,59.0,92.0
941,158.23348085000003,158.37487421250003,52.0,73.0
942,158.23348085000003,158.37487421250003,55.0,84.0
943,158.23348085000003,158.3953660041667,59.0,89.0
944,157.98757935000003,158.80930019583337,40.0,58.0
945,158.72528385000004,158.91380833333335,55.0,89.0
946,158.72528385000004,158.93839848333334,52.0,87.0
947,158.72528385000004,158.95581650625002,59.0,89.0
948,158.97118535,159.90561105000003,45.0,76.0
949,159.46298835000002,159.9199553041667,57.0,89.0
950,159.46298835000002,159.96503724583334,52.0,84.0
951,159.46298835000002,160.09311094375002,60.0,89.0
952,159.95479135000002,160.29290591250003,38.0,66.0
953,160.20069285000002,160.3533566979167,54.0,96.0
954,160.20069285000002,160.3533566979167,57.0,94.0
955,160.20069285000002,160.3625780041667,50.0,100.0
956,160.69249585000003,160.90561048333336,50.0,82.0
957,160.69249585000003,160.9138072,54.0,93.0
958,160.69249585000003,160.926102275,57.0,92.0
959,160.93839735000003,161.06852022708335,33.0,97.0
960,160.93839735000003,161.06852022708335,45.0,97.0
961,161.18429885000003,161.30622501041668,28.0,94.0
962,161.18429885000003,161.30622501041668,40.0,94.0
963,161.43020035,161.55110192083336,33.0,105.0
964,161.43020035,161.55110192083336,45.0,105.0
965,161.67610185,161.7857329354167,28.0,100.0
966,161.67610185,161.7857329354167,40.0,100.0
967,161.92200335,162.05724917500004,33.0,100.0
968,161.92200335,162.05724917500004,45.0,100.0
969,162.16790485,162.27343757708337,28.0,87.0
970,162.16790485,162.27343757708337,40.0,87.0
971,162.41380635000002,162.54700299583334,33.0,102.0
972,162.41380635000002,162.54700299583334,45.0,102.0
973,162.65970785000002,162.77753565208337,28.0,89.0
974,162.65970785000002,162.77753565208337,40.0,89.0
975,162.90560935000002,163.03573222708337,33.0,100.0
976,162.90560935000002,163.03573222708337,45.0,100.0
977,163.15151085000002,163.26626488333335,28.0,89.0
978,163.15151085000002,163.26626488333335,40.0,89.0
979,163.39741235000002,163.5777401166667,33.0,102.0
980,163.39741235000002,163.5777401166667,45.0,102.0
981,163.64331385000003,163.76421542083335,28.0,82.0
982,163.64331385000003,163.76421542083335,40.0,82.0
983,163.88921535000003,164.01933822708335,30.0,102.0
984,163.88921535000003,164.01933822708335,42.0,102.0
985,164.13511685000003,164.25601842083336,26.0,94.0
986,164.13511685000003,164.25601842083336,38.0,94.0
987,164.38101835000003,164.52548548125003,30.0,109.0
988,164.38101835000003,164.52548548125003,42.0,109.0
989,164.62691985000004,164.77753451875003,26.0,97.0
990,164.62691985000004,164.77753451875003,38.0,97.0
991,164.87282135000004,165.00499340625004,31.0,100.0
992,164.87282135000004,165.00499340625004,43.0,100.0
993,165.11872285000004,165.2437227791667,26.0,97.0
994,165.11872285000004,165.2437227791667,38.0,97.0
995,165.36462435,165.52138655625004,31.0,105.0
996,165.36462435,165.52138655625004,43.0,105.0
997,165.61052585000002,165.7324520104167,26.0,82.0
998,165.61052585000002,165.7324520104167,38.0,82.0
999,165.85642735000002,166.01933709375004,31.0,94.0
1000,165.85642735000002,166.01933709375004,43.0,94.0
1001,166.10232885000002,166.22323042083335,26.0,82.0
1002,166.10232885000002,166.22323042083335,38.0,82.0
1003,166.34823035000002,166.51114009375002,31.0,97.0
1004,166.34823035000002,166.51114009375002,43.0,97.0
1005,166.59413185000002,166.75704159375002,26.0,76.0
1006,166.59413185000002,166.75704159375002,38.0,76.0
1007,166.84003335000003,166.97220540625003,31.0,102.0
1008,166.84003335000003,166.97220540625003,43.0,102.0
1009,166.84003335000003,167.0265086541667,41.0,105.0
1010,167.08593485000003,167.21605772708335,26.0,73.0
1011,167.08593485000003,167.21605772708335,38.0,73.0
1012,167.33183635000003,167.46400840625003,26.0,73.0
1013,167.33183635000003,167.46400840625003,38.0,73.0
1014,167.33183635000003,167.48245101875003,31.0,80.0
1015,167.33183635000003,167.48245101875003,43.0,80.0
1016,167.57773785000003,167.69556565208336,26.0,64.0
1017,167.57773785000003,167.69556565208336,38.0,64.0
1018,167.82363935,167.95888517500003,31.0,105.0
1019,167.82363935,167.95888517500003,43.0,105.0
1020,168.06954085,168.19351618958336,26.0,94.0
1021,168.06954085,168.19351618958336,38.0,94.0
1022,168.31544235,168.48962257916668,31.0,102.0
1023,168.31544235,168.48962257916668,43.0,102.0
1024,168.56134385000001,168.68531918958337,26.0,92.0
1025,168.56134385000001,168.68531918958337,38.0,92.0
1026,168.80724535000002,168.95171248125,33.0,108.0
1027,168.80724535000002,168.95171248125,45.0,108.0
1028,169.05314685000002,169.18839267500002,28.0,97.0
1029,169.05314685000002,169.18839267500002,40.0,97.0
1030,169.29904835000002,169.47835152708336,33.0,108.0
1031,169.29904835000002,169.47835152708336,45.0,108.0
1032,169.54494985000002,169.67712190625002,28.0,84.0
1033,169.54494985000002,169.67712190625002,40.0,84.0
1034,169.79085135000003,169.9681053479167,33.0,108.0
1035,169.79085135000003,169.9681053479167,45.0,108.0
1036,170.03675285000003,170.14535934583336,28.0,78.0
1037,170.03675285000003,170.14535934583336,40.0,78.0
1038,170.28265435000003,170.45171163125002,33.0,97.0
1039,170.28265435000003,170.45171163125002,45.0,97.0
1040,170.52855585000003,170.64945742083336,28.0,87.0
1041,170.52855585000003,170.64945742083336,40.0,87.0
1042,170.77445735000003,170.9578588854167,33.0,100.0
1043,170.77445735000003,170.9578588854167,45.0,100.0
1044,171.02035885000004,171.15253090625004,28.0,82.0
1045,171.02035885000004,171.15253090625004,40.0,82.0
1046,171.26626035000004,171.41994878750003,33.0,97.0
1047,171.26626035000004,171.41994878750003,45.0,97.0
1048,171.51216185000004,171.65970275,28.0,87.0
1049,171.51216185000004,171.65970275,40.0,87.0
1050,171.75806335000001,171.893309175,33.0,100.0
1051,171.75806335000001,171.893309175,45.0,100.0
1052,172.00396485000002,172.13101395833337,28.0,100.0
1053,172.00396485000002,172.13101395833337,40.0,100.0
1054,172.24986635000002,172.4219974,33.0,94.0
1055,172.24986635000002,172.4219974,45.0,94.0
1056,172.49576785000002,172.61359565208335,28.0,89.0
1057,172.49576785000002,172.61359565208335,40.0,89.0
1058,172.74166935000002,172.87179222708335,29.0,111.0
1059,172.74166935000002,172.87179222708335,41.0,111.0
1060,172.98757085000003,173.10539865208335,24.0,105.0
1061,172.98757085000003,173.10539865208335,36.0,105.0
1062,173.23347235000003,173.34822638333335,29.0,108.0
1063,173.23347235000003,173.34822638333335,41.0,108.0
1064,173.47937385000003,173.60642295833335,24.0,108.0
1065,173.47937385000003,173.60642295833335,36.0,108.0
1066,173.72527535,173.84617692083336,29.0,111.0
1067,173.72527535,173.84617692083336,41.0,111.0
1068,173.97128822500002,174.12264708125002,24.0,105.0
1069,173.97128822500002,174.12264708125002,36.0,105.0
1070,174.21840472500003,174.37903045000002,29.0,105.0
1071,174.21840472500003,174.37903045000002,41.0,105.0
1072,174.46552122500003,174.59319808333336,24.0,108.0
1073,174.46552122500003,174.59319808333336,36.0,108.0
1074,174.712637725,174.82795875833335,26.0,71.0
1075,174.712637725,174.82795875833335,38.0,71.0
1076,174.712637725,174.84340353958336,42.0,79.0
1077,174.959754225,175.06889734583336,42.0,93.0
1078,174.959754225,175.07713456250002,26.0,94.0
1079,174.959754225,175.07713456250002,38.0,94.0
1080,175.20687072500002,175.32528071458336,42.0,102.0
1081,175.20687072500002,175.32836967083335,26.0,92.0
1082,175.20687072500002,175.32836967083335,38.0,92.0
1083,175.45398722500002,175.58475303958335,42.0,93.0
1084,175.45398722500002,175.5899013,26.0,89.0
1085,175.45398722500002,175.5899013,38.0,89.0
1086,177.67803572500003,178.58721851458336,43.0,73.0
1087,178.172268725,178.5985446875,50.0,87.0
1088,178.172268725,178.62016738125,55.0,94.0
1089,178.172268725,178.6531162479167,59.0,97.0
1090,178.91361822500002,179.06188812500002,55.0,94.0
1091,178.91361822500002,179.0793922104167,52.0,82.0
1092,178.91361822500002,179.0793922104167,59.0,89.0
1093,178.66650172500002,179.67762007083334,40.0,78.0
1094,179.40785122500003,179.6817386791667,55.0,50.0
1095,179.40785122500003,179.69924276458335,59.0,78.0
1096,179.40785122500003,179.70233172083334,52.0,57.0
1097,179.65496772500003,180.47457078333335,45.0,89.0
1098,180.14920072500001,180.6084255541667,57.0,94.0
1099,180.14920072500001,180.64137442083336,52.0,89.0
1100,180.14920072500001,180.79788153750002,60.0,100.0
1101,180.89055022500003,181.0326422125,50.0,71.0
1102,180.89055022500003,181.03882012500003,54.0,65.0
1103,180.89055022500003,181.0625021229167,57.0,94.0
1104,180.64343372500002,181.42699896041668,38.0,78.0
1105,181.38478322500004,181.65453884791668,57.0,80.0
1106,181.38478322500004,181.67503063958335,54.0,74.0
1107,181.38478322500004,181.69347325208335,50.0,73.0
1108,181.6309732875,182.4906039479167,43.0,73.0
1109,182.12277628750002,182.61253010833335,50.0,76.0
1110,182.12277628750002,182.64326779583337,55.0,89.0
1111,182.12277628750002,182.64326779583337,59.0,92.0
1112,182.86048078750002,183.00187415000002,52.0,73.0
1113,182.86048078750002,183.00187415000002,55.0,84.0
1114,182.86048078750002,183.0223659416667,59.0,89.0
1115,182.61457928750002,183.43630013333336,40.0,58.0
1116,183.35228378750003,183.54080827083337,55.0,89.0
1117,183.35228378750003,183.56539842083336,52.0,87.0
1118,183.35228378750003,183.58281644375003,59.0,89.0
1119,183.59818528750003,184.53261098750002,45.0,76.0
1120,184.08998828750003,184.5469552416667,57.0,89.0
1121,184.08998828750003,184.59203718333336,52.0,84.0
1122,184.08998828750003,184.72011088125004,60.0,89.0
1123,184.58179128750004,184.91990585000002,38.0,66.0
1124,184.8276927875,184.98035663541668,54.0,96.0
1125,184.8276927875,184.98035663541668,57.0,94.0
1126,184.8276927875,184.98957794166668,50.0,100.0
1127,185.31949578750002,185.53261042083335,50.0,82.0
1128,185.31949578750002,185.54080713750002,54.0,93.0
1129,185.31949578750002,185.55310221250002,57.0,92.0
1130,185.56539728750002,186.47010988958337,43.0,73.0
1131,186.05720028750002,186.48138037500001,50.0,87.0
1132,186.05720028750002,186.50289675625004,55.0,94.0
1133,186.05720028750002,186.53568362291668,59.0,97.0
1134,186.79490478750003,186.94244568750003,55.0,94.0
1135,186.79490478750003,186.9598637104167,52.0,82.0
1136,186.79490478750003,186.9598637104167,59.0,89.0
1137,186.54900328750003,187.55515025833336,40.0,78.0
1138,187.28670778750003,187.5592486166667,55.0,50.0
1139,187.28670778750003,187.57666663958335,59.0,78.0
1140,187.28670778750003,187.57974040833335,52.0,57.0
1141,187.53260928750004,188.34818259583335,45.0,89.0
1142,188.0244122875,188.4813792416667,57.0,94.0
1143,188.0244122875,188.51416610833337,52.0,89.0
1144,188.0244122875,188.66990372500004,60.0,100.0
1145,188.76211678750002,188.90351015000002,50.0,71.0
1146,188.76211678750002,188.90965768750002,54.0,65.0
1147,188.76211678750002,188.9332232479167,57.0,94.0
1148,188.51621528750002,189.2959279604167,38.0,78.0
1149,189.25391978750002,189.5233868479167,57.0,80.0
1150,189.25391978750002,189.54387863958337,54.0,74.0
1151,189.25391978750002,189.56232125208336,50.0,73.0
1152,189.49982128750003,190.35945194791668,43.0,73.0
1153,189.99162428750003,190.48137810833336,50.0,76.0
1154,189.99162428750003,190.51211579583335,55.0,89.0
1155,189.99162428750003,190.51211579583335,59.0,92.0
1156,190.72932878750004,190.87072215000003,52.0,73.0
1157,190.72932878750004,190.87072215000003,55.0,84.0
1158,190.72932878750004,190.8912139416667,59.0,89.0
1159,190.48342728750004,191.30514813333335,40.0,58.0
1160,191.22113178750004,191.40965627083335,55.0,89.0
1161,191.22113178750004,191.43424642083335,52.0,87.0
1162,191.22113178750004,191.45166444375002,59.0,89.0
1163,191.46703328750002,192.40145898750004,45.0,76.0
1164,191.95883628750002,192.4158032416667,57.0,89.0
1165,191.95883628750002,192.46088518333335,52.0,84.0
1166,191.95883628750002,192.58895888125002,60.0,89.0
1167,192.45063928750002,192.78875385000003,38.0,66.0
1168,192.69654078750003,192.8492046354167,54.0,96.0
1169,192.69654078750003,192.8492046354167,57.0,94.0
1170,192.69654078750003,192.8584259416667,50.0,100.0
1171,193.18834378750003,193.40145842083336,50.0,82.0
1172,193.18834378750003,193.40965513750004,54.0,93.0
1173,193.18834378750003,193.42195021250004,57.0,92.0
1174,193.43424528750003,194.33895788958336,43.0,73.0
1175,193.92604828750004,194.35022837500003,50.0,87.0
1176,193.92604828750004,194.37174475625002,55.0,94.0
1177,193.92604828750004,194.4045316229167,59.0,97.0
1178,194.66375278750002,194.81129368750004,55.0,94.0
1179,194.66375278750002,194.82871171041668,52.0,82.0
1180,194.66375278750002,194.82871171041668,59.0,89.0
1181,194.4178512875,195.42399825833337,40.0,78.0
1182,195.15555578750002,195.4280966166667,55.0,50.0
1183,195.15555578750002,195.44551463958337,59.0,78.0
1184,195.15555578750002,195.44858840833336,52.0,57.0
1185,195.40145728750002,196.21703059583336,45.0,89.0
1186,195.89326028750003,196.3502272416667,57.0,94.0
1187,195.89326028750003,196.38301410833336,52.0,89.0
1188,195.89326028750003,196.53875172500003,60.0,100.0
1189,196.63096478750003,196.77235815000003,50.0,71.0
1190,196.63096478750003,196.77850568750003,54.0,65.0
1191,196.63096478750003,196.8020712479167,57.0,94.0
1192,196.38506328750003,197.1647759604167,38.0,78.0
1193,197.12276778750004,197.39223484791668,57.0,80.0
1194,197.12276778750004,197.41272663958335,54.0,74.0
1195,197.12276778750004,197.43116925208335,50.0,73.0
1196,197.36866928750004,198.2282999479167,43.0,73.0
1197,197.86047228750002,198.35022610833337,50.0,76.0
1198,197.86047228750002,198.38096379583337,55.0,89.0
1199,197.86047228750002,198.38096379583337,59.0,92.0
1200,198.59817678750002,198.73957015000002,52.0,73.0
1201,198.59817678750002,198.73957015000002,55.0,84.0
1202,198.59817678750002,198.7600619416667,59.0,89.0
1203,198.35227528750002,199.17399613333336,40.0,58.0
1204,199.08997978750003,199.27850427083337,55.0,89.0
1205,199.08997978750003,199.30309442083336,52.0,87.0
1206,199.08997978750003,199.32051244375003,59.0,89.0
1207,199.33588128750003,200.27030698750002,45.0,76.0
1208,199.82768428750003,200.2846512416667,57.0,89.0
1209,199.82768428750003,200.32973318333336,52.0,84.0
1210,199.82768428750003,200.45780688125004,60.0,89.0
1211,200.31948728750004,200.65760185000002,38.0,66.0
1212,200.5653887875,200.71805263541668,54.0,96.0
1213,200.5653887875,200.71805263541668,57.0,94.0
1214,200.5653887875,200.72727394166668,50.0,100.0
1215,201.05719178750002,201.27030642083335,50.0,82.0
1216,201.05719178750002,201.27850313750002,54.0,93.0
1217,201.05719178750002,201.29079821250002,57.0,92.0
1218,201.30309328750002,202.20780588958337,43.0,73.0
1219,201.79489628750002,202.21907637500004,50.0,87.0
1220,201.79489628750002,202.24059275625004,55.0,94.0
1221,201.79489628750002,202.2733796229167,59.0,97.0
1222,202.53260078750003,202.68014168750003,55.0,94.0
1223,202.53260078750003,202.6975597104167,52.0,82.0
1224,202.53260078750003,202.6975597104167,59.0,89.0
1225,202.28669928750003,203.29284625833336,40.0,78.0
1226,203.02440378750003,203.2969446166667,55.0,50.0
1227,203.02440378750003,203.31436263958335,59.0,78.0
1228,203.02440378750003,203.31743640833335,52.0,57.0
1229,203.27030528750004,204.08587859583335,45.0,89.0
1230,203.76210828750004,204.2190752416667,57.0,94.0
1231,203.76210828750004,204.25186210833337,52.0,89.0
1232,203.76210828750004,204.40759972500004,60.0,100.0
1233,204.49981278750002,204.64120615000002,50.0,71.0
1234,204.49981278750002,204.64735368750001,54.0,65.0
1235,204.49981278750002,204.6709192479167,57.0,94.0
1236,204.25391128750002,205.0336239604167,38.0,78.0
1237,204.99161578750002,205.2610828479167,57.0,80.0
1238,204.99161578750002,205.28157463958337,54.0,74.0
1239,204.99161578750002,205.30001725208336,50.0,73.0
1240,205.23751728750003,206.0971479479167,43.0,73.0
1241,205.72932028750003,206.21907410833336,50.0,76.0
1242,205.72932028750003,206.24981179583335,55.0,89.0
1243,205.72932028750003,206.24981179583335,59.0,92.0
1244,206.46702478750004,206.60841815000003,52.0,73.0
1245,206.46702478750004,206.60841815000003,55.0,84.0
1246,206.46702478750004,206.6289099416667,59.0,89.0
1247,206.22112328750003,207.04377830833337,40.0,58.0
1248,206.95927713750004,207.14888952083336,55.0,89.0
1249,206.95927713750004,207.17362157083338,52.0,87.0
1250,206.95927713750004,207.19114010625003,59.0,89.0
1251,207.20659763750004,208.1518468041667,45.0,76.0
1252,207.7029691041667,208.16639376666672,57.0,89.0
1253,207.7029691041667,208.2121127916667,52.0,84.0
1254,207.7029691041667,208.3419963854167,60.0,89.0
1255,208.2017221041667,208.5446147916667,38.0,66.0
1256,208.4510986041667,208.6059198479167,54.0,96.0
1257,208.4510986041667,208.6059198479167,57.0,94.0
1258,208.4510986041667,208.6152714666667,50.0,100.0
1259,208.9517307541667,209.1698512541667,50.0,82.0
1260,209.1279050041667,209.1698512541667,50.0,39.0
1261,208.9517307541667,209.1782405041667,54.0,93.0
1262,208.9517307541667,209.19082437916668,57.0,92.0
1263,209.1677539416667,209.74593895208335,55.0,82.0
1264,209.2422085354167,209.74593895208335,59.0,94.0
1265,209.19082437916668,209.90483707708336,43.0,92.0
1266,210.1068552479167,210.6795473979167,55.0,89.0
1267,210.0621363604167,210.70106202291672,52.0,47.0
1268,210.17925725625003,210.72796558333337,59.0,87.0
1269,210.1515741354167,210.86480289583338,40.0,105.0
1270,211.16109371458336,211.65890588750003,57.0,80.0
1271,211.10722393125005,211.7178996354167,52.0,41.0
1272,211.18747891458338,211.73348288958337,45.0,97.0
1273,211.22375856458336,211.73904833750004,60.0,60.0
1274,212.1689865479167,213.20933638333335,54.0,102.0
1275,212.28620906458335,213.2239891979167,57.0,51.0
1276,212.12728238333335,213.23300631458335,50.0,46.0
1277,213.15072512500004,213.23300631458335,50.0,55.0
1278,212.23210636458336,213.2476591291667,38.0,97.0
1279,213.21948063958337,214.0220040229167,55.0,80.0
1280,213.22849775625002,214.07047102500002,43.0,76.0
1281,213.29725327083335,214.10879377083336,59.0,84.0
1282,214.17980356458335,214.91131715416668,55.0,69.0
1283,214.11442946875002,214.94963990000002,52.0,73.0
1284,214.23728768333336,214.97443697083335,59.0,57.0
1285,214.1572607729167,215.15365216458335,40.0,100.0
1286,215.09278662708337,215.78485033125003,57.0,78.0
1287,215.04544676458335,215.78823175000002,52.0,55.0
1288,215.17732209583335,215.79386744791668,60.0,43.0
1289,215.09616804583337,215.8986914291667,45.0,97.0
1290,215.90996282500004,216.0102782479167,57.0,76.0
1291,215.90770854583337,216.01816822500004,60.0,87.0
1292,215.91672566250003,216.06325380833337,52.0,71.0
1293,216.55919522500002,216.94918552083337,54.0,96.0
1294,216.56595806250002,216.96158405625002,57.0,92.0
1295,216.56821234166668,216.9706011729167,50.0,80.0
1296,216.00915110833336,217.01568675625003,38.0,58.0
1297,217.11036648125003,218.06354819583336,50.0,71.0
1298,217.11036648125003,218.11943320625002,55.0,82.0
1299,217.11374790000002,218.15250800833334,43.0,67.0
1300,218.33156814375002,219.12536661458336,59.0,76.0
1301,218.28708823750003,219.1584166479167,55.0,50.0
1302,218.2334842479167,219.17022023125003,52.0,62.0
1303,218.26884007083336,219.34373290625004,40.0,100.0
1304,219.43344013958335,220.27750458125004,57.0,62.0
1305,219.37324186458335,220.44200961458336,52.0,51.0
1306,219.45468658958336,220.6581334479167,45.0,100.0
1307,219.52550808958335,220.82267148958334,60.0,67.0
1308,220.7833788229167,222.06193993333335,38.0,97.0
1309,220.85459678125002,222.17290897708335,57.0,45.0
1310,220.77478355208336,222.22010270833334,54.0,57.0
1311,220.72689561458336,222.25581688333335,50.0,51.0
1312,222.32469422083335,225.85146900208335,43.0,84.0
1313,222.50709161458335,225.98922367708334,50.0,66.0
1314,222.56959142083335,225.99177468958337,55.0,73.0
1315,222.66908090833334,225.99177468958337,59.0,71.0
