,start,end,pitch,velocity
0,14.383333333333333,14.640625,82.0,119.0
1,14.633333333333333,14.883333333333333,81.0,116.0
2,14.883333333333333,15.183333333333334,82.0,113.0
3,15.133333333333333,15.383333333333333,81.0,113.0
4,15.383333333333333,15.633333333333333,79.0,114.0
5,15.633333333333333,15.883333333333333,77.0,113.0
6,15.883333333333333,18.383333333333333,79.0,116.0
7,18.383333333333333,18.633333333333333,74.0,113.0
8,18.633333333333333,18.883333333333333,77.0,114.0
9,18.883333333333333,19.191666666666666,79.0,110.0
10,19.133333333333333,19.384375,77.0,110.0
11,19.383333333333333,19.633333333333333,74.0,108.0
12,19.633333333333333,19.883333333333333,72.0,104.0
13,19.883333333333333,20.2,77.0,114.0
14,20.133333333333333,22.383333333333333,74.0,100.0
15,22.383333333333333,22.633333333333333,77.0,110.0
16,22.633333333333333,22.883333333333333,74.0,110.0
17,22.883333333333333,23.14375,77.0,102.0
18,23.133333333333333,23.383333333333333,74.0,108.0
19,23.383333333333333,23.633333333333333,72.0,107.0
20,23.633333333333333,23.911458333333332,70.0,96.0
21,23.883333333333333,24.133333333333333,74.0,104.0
22,24.133333333333333,26.383333333333333,72.0,91.0
23,26.383333333333333,26.633333333333333,70.0,107.0
24,26.633333333333333,26.917708333333334,74.0,113.0
25,26.883333333333333,27.133333333333333,72.0,108.0
26,27.133333333333333,27.383333333333333,74.0,100.0
27,27.383333333333333,27.633333333333333,70.0,110.0
28,27.633333333333333,27.883333333333333,72.0,93.0
29,27.883333333333333,30.133333333333333,74.0,110.0
30,30.133333333333333,30.383333333333333,70.0,108.0
31,30.383333333333333,30.633333333333333,82.0,110.0
32,30.633333333333333,30.883333333333333,81.0,110.0
33,30.883333333333333,31.133333333333333,82.0,104.0
34,31.133333333333333,31.383333333333333,81.0,96.0
35,31.383333333333333,31.633333333333333,79.0,114.0
36,31.633333333333333,31.916666666666668,77.0,107.0
37,31.883333333333333,34.38229166666667,79.0,114.0
38,34.38333333333333,34.651041666666664,79.0,110.0
39,34.63333333333333,34.88333333333333,77.0,107.0
40,34.88333333333333,35.184375,79.0,100.0
41,35.13333333333333,35.38333333333333,77.0,98.0
42,35.38333333333333,35.640625,74.0,113.0
43,35.63333333333333,35.88333333333333,72.0,107.0
44,35.88333333333333,36.13333333333333,77.0,116.0
45,36.13333333333333,38.38333333333333,74.0,104.0
46,38.38333333333333,38.63333333333333,77.0,113.0
47,38.63333333333333,38.88333333333333,74.0,107.0
48,38.88333333333333,39.1375,77.0,104.0
49,39.13333333333333,39.38333333333333,74.0,107.0
50,39.38333333333333,39.63333333333333,72.0,107.0
51,39.63333333333333,39.88333333333333,70.0,98.0
52,39.88333333333333,42.38333333333333,72.0,108.0
53,42.38333333333333,42.63333333333333,70.0,102.0
54,42.63333333333333,42.954166666666666,74.0,107.0
55,42.88333333333333,43.16979166666667,72.0,110.0
56,43.13333333333333,43.38333333333333,70.0,104.0
57,43.38333333333333,43.653125,67.0,107.0
58,43.63333333333333,43.88333333333333,65.0,98.0
59,43.88333333333333,46.38333333333333,67.0,102.0
60,46.38333333333333,46.63229166666667,77.0,90.0
61,46.63333333333333,46.88333333333333,77.0,104.0
62,46.88333333333333,47.13333333333333,82.0,104.0
63,47.13333333333333,47.38333333333333,81.0,94.0
64,47.38333333333333,47.63333333333333,79.0,102.0
65,47.63333333333333,47.88229166666667,77.0,110.0
66,47.88333333333333,48.38229166666667,77.0,110.0
67,48.38333333333333,48.63333333333333,77.0,116.0
68,48.63333333333333,48.88333333333333,74.0,104.0
69,48.88333333333333,49.38229166666667,79.0,116.0
70,49.38333333333333,49.63333333333333,79.0,114.0
71,49.63333333333333,49.88333333333333,77.0,108.0
72,49.88333333333333,50.38229166666667,79.0,114.0
73,50.38333333333333,50.63333333333333,79.0,116.0
74,50.63333333333333,50.88333333333333,77.0,96.0
75,50.88333333333333,51.13229166666667,82.0,113.0
76,51.13333333333333,51.38333333333333,82.0,113.0
77,51.38333333333333,51.63333333333333,81.0,110.0
78,51.63333333333333,51.88333333333333,79.0,110.0
79,51.88333333333333,52.38229166666667,77.0,114.0
80,52.38333333333333,52.63333333333333,77.0,117.0
81,52.63333333333333,52.88333333333333,74.0,113.0
82,52.88333333333333,53.38229166666667,79.0,120.0
83,53.38333333333333,53.63333333333333,79.0,116.0
84,53.63333333333333,53.88333333333333,77.0,102.0
85,53.88333333333333,54.38229166666667,79.0,117.0
86,54.38333333333333,54.63333333333333,79.0,114.0
87,54.63333333333333,54.88333333333333,77.0,110.0
88,54.88333333333333,55.13229166666667,82.0,116.0
89,55.13333333333333,55.38645833333333,82.0,113.0
90,55.38333333333333,55.63333333333333,81.0,114.0
91,55.63333333333333,55.88333333333333,79.0,98.0
92,55.88333333333333,56.38333333333333,77.0,114.0
93,56.38333333333333,56.88333333333333,82.0,107.0
94,56.88333333333333,57.13333333333333,74.0,117.0
95,57.13333333333333,57.38333333333333,75.0,114.0
96,57.38333333333333,57.88333333333333,77.0,117.0
97,57.88333333333333,58.38333333333333,75.0,113.0
98,58.38333333333333,58.63333333333333,77.0,113.0
99,58.63333333333333,58.88333333333333,79.0,114.0
100,58.88333333333333,59.13333333333333,69.0,113.0
101,59.13333333333333,59.38333333333333,70.0,108.0
102,59.38333333333333,59.63333333333333,72.0,110.0
103,59.63333333333333,59.88333333333333,74.0,110.0
104,59.88333333333333,60.135416666666664,72.0,113.0
105,60.13333333333333,62.38333333333333,70.0,102.0
106,62.38333333333333,62.63229166666667,77.0,90.0
107,62.63333333333333,62.88333333333333,77.0,104.0
108,62.88333333333333,63.13333333333333,82.0,104.0
109,63.13333333333333,63.38333333333333,81.0,94.0
110,63.38333333333333,63.63333333333333,79.0,102.0
111,63.63333333333333,63.88229166666667,77.0,110.0
112,63.88333333333333,64.38229166666666,77.0,110.0
113,64.38333333333333,64.63333333333333,77.0,116.0
114,64.63333333333333,64.88333333333333,74.0,104.0
115,64.88333333333333,65.38229166666666,79.0,116.0
116,65.38333333333333,65.63333333333333,79.0,114.0
117,65.63333333333333,65.88333333333333,77.0,108.0
118,65.88333333333333,66.38229166666666,79.0,114.0
119,66.38333333333333,66.63333333333333,79.0,116.0
120,66.63333333333333,66.88333333333333,77.0,96.0
121,66.88333333333333,67.13229166666666,82.0,113.0
122,67.13333333333333,67.38333333333333,82.0,113.0
123,67.38333333333333,67.63333333333333,81.0,110.0
124,67.63333333333333,67.88333333333333,79.0,110.0
125,67.88333333333333,68.38229166666666,77.0,114.0
126,68.38333333333333,68.63333333333333,77.0,117.0
127,68.63333333333333,68.88333333333333,74.0,113.0
128,68.88333333333333,69.38229166666666,79.0,120.0
129,69.38333333333333,69.63333333333333,79.0,116.0
130,69.63333333333333,69.88333333333333,77.0,102.0
131,69.88333333333333,70.38229166666666,79.0,117.0
132,70.38333333333333,70.63333333333333,79.0,114.0
133,70.63333333333333,70.88333333333333,77.0,110.0
134,70.88333333333333,71.13229166666666,82.0,116.0
135,71.13333333333333,71.38645833333334,82.0,113.0
136,71.38333333333333,71.63333333333333,81.0,114.0
137,71.63333333333333,71.88333333333333,79.0,98.0
138,71.88333333333333,72.38333333333333,77.0,114.0
139,72.38333333333333,72.88333333333333,82.0,107.0
140,72.88333333333333,73.13333333333333,74.0,117.0
141,73.13333333333333,73.38333333333333,75.0,114.0
142,73.38333333333333,73.88333333333333,77.0,117.0
143,73.88333333333333,74.38333333333333,75.0,113.0
144,74.38333333333333,74.63333333333333,77.0,113.0
145,74.63333333333333,74.88333333333333,79.0,114.0
146,74.88333333333333,75.13333333333333,69.0,113.0
147,75.13333333333333,75.38333333333333,70.0,108.0
148,75.38333333333333,75.63333333333333,72.0,110.0
149,75.63333333333333,75.88333333333333,74.0,110.0
150,75.88333333333333,76.13541666666667,72.0,113.0
151,76.13333333333333,76.88333333333333,70.0,102.0
152,86.3875,86.69375,82.0,119.0
153,86.6375,86.8875,81.0,116.0
154,86.8875,87.1875,82.0,113.0
155,87.1375,87.3875,81.0,113.0
156,87.3875,87.6375,79.0,114.0
157,87.6375,87.8875,77.0,113.0
158,87.8875,90.3875,79.0,116.0
159,90.3875,90.6375,74.0,113.0
160,90.6375,90.8875,77.0,114.0
161,90.8875,91.19583333333333,79.0,110.0
162,91.1375,91.38854166666667,77.0,110.0
163,91.3875,91.6375,74.0,108.0
164,91.6375,91.8875,72.0,104.0
165,91.8875,92.20416666666667,77.0,114.0
166,92.1375,94.3875,74.0,100.0
167,94.3875,94.6375,77.0,110.0
168,94.6375,94.8875,74.0,110.0
169,94.8875,95.14895833333333,77.0,102.0
170,95.1375,95.3875,74.0,108.0
171,95.3875,95.6375,72.0,107.0
172,95.6375,95.915625,70.0,96.0
173,95.8875,96.1375,74.0,104.0
174,96.1375,98.3875,72.0,91.0
175,98.3875,98.6375,70.0,107.0
176,98.6375,98.92291666666667,74.0,113.0
177,98.8875,99.1375,72.0,108.0
178,99.1375,99.3875,74.0,100.0
179,99.3875,99.6375,70.0,110.0
180,99.6375,99.8875,72.0,93.0
181,99.8875,102.1375,74.0,110.0
182,102.1375,102.3875,70.0,108.0
183,102.3875,102.6375,82.0,110.0
184,102.6375,102.8875,81.0,110.0
185,102.8875,103.1375,82.0,104.0
186,103.1375,103.3875,81.0,96.0
187,103.3875,103.6375,79.0,114.0
188,103.6375,103.92083333333333,77.0,107.0
189,103.8875,106.38645833333334,79.0,114.0
190,106.3875,106.65520833333333,79.0,110.0
191,106.6375,106.8875,77.0,107.0
192,106.8875,107.18958333333333,79.0,100.0
193,107.1375,107.3875,77.0,98.0
194,107.3875,107.64479166666666,74.0,113.0
195,107.6375,107.8875,72.0,107.0
196,107.8875,108.1375,77.0,116.0
197,108.1375,110.3875,74.0,104.0
198,110.3875,110.6375,77.0,113.0
199,110.6375,110.8875,74.0,107.0
200,110.8875,111.14270833333333,77.0,104.0
201,111.1375,111.3875,74.0,107.0
202,111.3875,111.6375,72.0,107.0
203,111.6375,111.8875,70.0,98.0
204,111.8875,114.3875,72.0,108.0
205,114.3875,114.6375,70.0,102.0
206,114.6375,114.959375,74.0,107.0
207,114.8875,115.17395833333333,72.0,110.0
208,115.1375,115.3875,70.0,104.0
209,115.3875,115.65729166666667,67.0,107.0
210,115.6375,115.8875,65.0,98.0
211,115.8875,118.3875,67.0,102.0
212,118.3875,118.63645833333334,77.0,90.0
213,118.6375,118.8875,77.0,104.0
214,118.8875,119.1375,82.0,104.0
215,119.1375,119.3875,81.0,94.0
216,119.3875,119.6375,79.0,102.0
217,119.6375,119.88645833333334,77.0,110.0
218,119.8875,120.38645833333334,77.0,110.0
219,120.3875,120.6375,77.0,116.0
220,120.6375,120.8875,74.0,104.0
221,120.8875,121.38645833333334,79.0,116.0
222,121.3875,121.6375,79.0,114.0
223,121.6375,121.8875,77.0,108.0
224,121.8875,122.38645833333334,79.0,114.0
225,122.3875,122.6375,79.0,116.0
226,122.6375,122.8875,77.0,96.0
227,122.8875,123.13645833333334,82.0,113.0
228,123.1375,123.3875,82.0,113.0
229,123.3875,123.6375,81.0,110.0
230,123.6375,123.8875,79.0,110.0
231,123.8875,124.38645833333334,77.0,114.0
232,124.3875,124.6375,77.0,117.0
233,124.6375,124.8875,74.0,113.0
234,124.8875,125.38645833333334,79.0,120.0
235,125.3875,125.6375,79.0,116.0
236,125.6375,125.8875,77.0,102.0
237,125.8875,126.38645833333334,79.0,117.0
238,126.3875,126.6375,79.0,114.0
239,126.6375,126.8875,77.0,110.0
240,126.8875,127.13645833333334,82.0,116.0
241,127.1375,127.390625,82.0,113.0
242,127.3875,127.6375,81.0,114.0
243,127.6375,127.8875,79.0,98.0
244,127.8875,128.3875,77.0,114.0
245,128.3875,128.8875,82.0,107.0
246,128.8875,129.1375,74.0,117.0
247,129.1375,129.3875,75.0,114.0
248,129.3875,129.8875,77.0,117.0
249,129.8875,130.3875,75.0,113.0
250,130.3875,130.6375,77.0,113.0
251,130.6375,130.8875,79.0,114.0
252,130.8875,131.1375,69.0,113.0
253,131.1375,131.3875,70.0,108.0
254,131.3875,131.6375,72.0,110.0
255,131.6375,131.8875,74.0,110.0
256,131.8875,132.13958333333332,72.0,113.0
257,132.1375,134.3875,70.0,102.0
258,134.3875,134.63645833333334,77.0,90.0
259,134.6375,134.8875,77.0,104.0
260,134.8875,135.1375,82.0,104.0
261,135.1375,135.3875,81.0,94.0
262,135.3875,135.6375,79.0,102.0
263,135.6375,135.88645833333334,77.0,110.0
264,135.8875,136.38645833333334,77.0,110.0
265,136.3875,136.6375,77.0,116.0
266,136.6375,136.8875,74.0,104.0
267,136.8875,137.38645833333334,79.0,116.0
268,137.3875,137.6375,79.0,114.0
269,137.6375,137.8875,77.0,108.0
270,137.8875,138.38645833333334,79.0,114.0
271,138.3875,138.6375,79.0,116.0
272,138.6375,138.8875,77.0,96.0
273,138.8875,139.13645833333334,82.0,113.0
274,139.1375,139.3875,82.0,113.0
275,139.3875,139.6375,81.0,110.0
276,139.6375,139.8875,79.0,110.0
277,139.8875,140.38645833333334,77.0,114.0
278,140.3875,140.6375,77.0,117.0
279,140.6375,140.8875,74.0,113.0
280,140.8875,141.38645833333334,79.0,120.0
281,141.3875,141.6375,79.0,116.0
282,141.6375,141.8875,77.0,102.0
283,141.8875,142.38645833333334,79.0,117.0
284,142.3875,142.6375,79.0,114.0
285,142.6375,142.8875,77.0,110.0
286,142.8875,143.13645833333334,82.0,116.0
287,143.1375,143.390625,82.0,113.0
288,143.3875,143.6375,81.0,114.0
289,143.6375,143.8875,79.0,98.0
290,143.8875,144.3875,77.0,114.0
291,144.3875,144.8875,82.0,107.0
292,144.8875,145.1375,74.0,117.0
293,145.1375,145.3875,75.0,114.0
294,145.3875,145.8875,77.0,117.0
295,145.8875,146.3875,75.0,113.0
296,146.3875,146.6375,77.0,113.0
297,146.6375,146.8875,79.0,114.0
298,146.8875,147.1375,69.0,113.0
299,147.1375,147.3875,70.0,108.0
300,147.3875,147.6375,72.0,110.0
301,147.6375,147.8875,74.0,110.0
302,147.8875,148.13958333333332,72.0,113.0
303,148.1375,148.8875,70.0,102.0
304,180.75833333333333,181.00729166666667,82.0,90.0
305,181.00833333333333,181.25729166666667,82.0,104.0
306,181.25833333333333,181.50833333333333,82.0,104.0
307,181.50833333333333,181.75833333333333,81.0,94.0
308,181.75833333333333,182.00833333333333,79.0,102.0
309,182.00833333333333,182.25729166666667,77.0,110.0
310,182.25833333333333,182.75729166666667,77.0,110.0
311,182.75833333333333,183.00833333333333,77.0,116.0
312,183.00833333333333,183.25833333333333,74.0,104.0
313,183.25833333333333,183.75729166666667,79.0,116.0
314,183.75833333333333,184.00833333333333,79.0,114.0
315,184.00833333333333,184.25833333333333,77.0,108.0
316,184.25833333333333,184.75729166666667,79.0,114.0
317,184.75833333333333,185.00833333333333,79.0,116.0
318,185.00833333333333,185.25833333333333,77.0,96.0
319,185.25833333333333,185.50729166666667,82.0,113.0
320,185.50833333333333,185.75833333333333,82.0,113.0
321,185.75833333333333,186.00833333333333,81.0,110.0
322,186.00833333333333,186.25833333333333,79.0,110.0
323,186.25833333333333,186.75729166666667,77.0,114.0
324,186.75833333333333,187.00833333333333,77.0,117.0
325,187.00833333333333,187.25833333333333,74.0,113.0
326,187.25833333333333,187.75729166666667,79.0,120.0
327,187.75833333333333,188.00833333333333,79.0,116.0
328,188.00833333333333,188.25833333333333,77.0,102.0
329,188.25833333333333,188.75729166666667,79.0,117.0
330,188.75833333333333,189.00833333333333,79.0,114.0
331,189.00833333333333,189.25833333333333,77.0,110.0
332,189.25833333333333,189.50729166666667,82.0,116.0
333,189.50833333333333,189.76145833333334,82.0,113.0
334,189.75833333333333,190.00833333333333,81.0,114.0
335,190.00833333333333,190.25833333333333,79.0,98.0
336,190.25833333333333,190.75833333333333,77.0,114.0
337,190.75833333333333,191.25833333333333,82.0,107.0
338,191.25833333333333,191.50833333333333,74.0,117.0
339,191.50833333333333,191.75833333333333,75.0,114.0
340,191.75833333333333,192.25833333333333,77.0,117.0
341,192.25833333333333,192.75833333333333,75.0,113.0
342,192.75833333333333,193.00833333333333,77.0,113.0
343,193.00833333333333,193.25833333333333,79.0,114.0
344,193.25833333333333,193.50833333333333,69.0,113.0
345,193.50833333333333,193.75833333333333,70.0,108.0
346,193.75833333333333,194.00833333333333,72.0,110.0
347,194.00833333333333,194.25833333333333,74.0,110.0
348,194.25833333333333,194.51041666666666,72.0,113.0
349,194.50833333333333,196.75833333333333,70.0,102.0
350,196.75833333333333,197.00729166666667,82.0,90.0
351,197.00833333333333,197.25729166666667,82.0,104.0
352,197.25833333333333,197.50833333333333,82.0,104.0
353,197.50833333333333,197.75833333333333,81.0,94.0
354,197.75833333333333,198.00833333333333,79.0,102.0
355,198.00833333333333,198.25729166666667,77.0,110.0
356,198.25833333333333,198.75729166666667,77.0,110.0
357,198.75833333333333,199.00833333333333,77.0,116.0
358,199.00833333333333,199.25833333333333,74.0,104.0
359,199.25833333333333,199.75729166666667,79.0,116.0
360,199.75833333333333,200.00833333333333,79.0,114.0
361,200.00833333333333,200.25833333333333,77.0,108.0
362,200.25833333333333,200.75729166666667,79.0,114.0
363,200.75833333333333,201.00833333333333,79.0,116.0
364,201.00833333333333,201.25833333333333,77.0,96.0
365,201.25833333333333,201.50729166666667,82.0,113.0
366,201.50833333333333,201.75833333333333,82.0,113.0
367,201.75833333333333,202.00833333333333,81.0,110.0
368,202.00833333333333,202.25833333333333,79.0,110.0
369,202.25833333333333,202.75729166666667,77.0,114.0
370,202.75833333333333,203.00833333333333,77.0,117.0
371,203.00833333333333,203.25833333333333,74.0,113.0
372,203.25833333333333,203.75729166666667,79.0,120.0
373,203.75833333333333,204.00833333333333,79.0,116.0
374,204.00833333333333,204.25833333333333,77.0,102.0
375,204.25833333333333,204.75729166666667,79.0,117.0
376,204.75833333333333,205.00833333333333,79.0,114.0
377,205.00833333333333,205.25833333333333,77.0,110.0
378,205.25833333333333,205.50729166666667,82.0,116.0
379,205.50833333333333,205.76145833333334,82.0,113.0
380,205.75833333333333,206.00833333333333,81.0,114.0
381,206.00833333333333,206.25833333333333,79.0,98.0
382,206.25833333333333,206.75833333333333,77.0,114.0
383,206.75833333333333,207.25833333333333,82.0,107.0
384,207.25833333333333,207.50833333333333,74.0,117.0
385,207.50833333333333,207.75833333333333,75.0,114.0
386,207.75833333333333,208.25833333333333,77.0,117.0
387,208.25833333333333,208.75833333333333,75.0,113.0
388,208.75833333333333,209.00833333333333,77.0,113.0
389,209.00833333333333,209.25833333333333,79.0,114.0
390,209.25833333333333,209.50833333333333,69.0,113.0
391,209.50833333333333,209.75833333333333,70.0,108.0
392,209.75833333333333,210.00833333333333,72.0,110.0
393,210.00833333333333,210.25833333333333,74.0,110.0
394,210.25833333333333,210.51041666666666,72.0,113.0
395,210.50833333333333,214.25833333333333,70.0,102.0
396,214.25833333333333,214.75833333333333,77.0,107.0
397,214.75833333333333,215.25833333333333,82.0,107.0
398,215.25833333333333,215.50833333333333,74.0,117.0
399,215.50833333333333,215.75833333333333,75.0,114.0
400,215.75833333333333,216.25833333333333,77.0,117.0
401,216.25833333333333,216.75833333333333,75.0,113.0
402,216.75833333333333,217.00833333333333,77.0,113.0
403,217.00833333333333,217.25833333333333,79.0,114.0
404,217.25833333333333,217.50833333333333,69.0,113.0
405,217.50833333333333,217.75833333333333,70.0,108.0
406,217.75833333333333,218.00833333333333,72.0,110.0
407,218.00833333333333,218.25833333333333,74.0,110.0
408,218.25833333333333,218.51041666666666,72.0,113.0
409,218.50833333333333,222.25833333333333,70.0,102.0
410,222.25833333333333,222.75833333333333,77.0,107.0
411,222.75833333333333,223.25833333333333,82.0,107.0
412,223.25833333333333,223.50833333333333,74.0,117.0
413,223.50833333333333,223.75833333333333,75.0,114.0
414,223.75833333333333,224.25833333333333,77.0,117.0
415,224.25833333333333,224.75833333333333,75.0,113.0
416,224.75833333333333,225.00833333333333,77.0,113.0
417,225.00833333333333,225.25833333333333,79.0,114.0
418,225.25833333333333,225.50833333333333,69.0,113.0
419,225.50833333333333,225.75833333333333,70.0,108.0
420,225.75833333333333,226.00833333333333,72.0,110.0
421,226.00833333333333,226.25833333333333,74.0,110.0
422,226.25833333333333,226.51041666666666,72.0,113.0
423,226.50833333333333,228.25833333333333,70.0,102.0
424,228.25833333333333,228.75833333333333,75.0,113.0
425,228.75833333333333,229.00833333333333,77.0,113.0
426,229.00833333333333,229.25833333333333,79.0,114.0
427,229.25833333333333,229.50833333333333,69.0,113.0
428,229.50833333333333,229.75833333333333,70.0,108.0
429,229.75833333333333,230.00833333333333,72.0,110.0
430,230.00833333333333,232.25833333333333,74.0,110.0
431,232.25833333333333,232.63645833333334,72.0,110.0
432,232.63645833333334,239.32395833333334,70.0,110.0
