,start,end,pitch,velocity
0,16.383333333333333,16.458333333333332,67.0,100.0
1,15.883333333333333,16.461458333333333,43.0,98.0
2,16.383333333333333,16.465625,62.0,90.0
3,16.383333333333333,16.475,70.0,90.0
4,16.633333333333333,16.734375,62.0,100.0
5,16.633333333333333,16.734375,67.0,113.0
6,16.633333333333333,16.76875,43.0,93.0
7,16.633333333333333,16.76875,70.0,93.0
8,16.883333333333333,17.316666666666666,41.0,96.0
9,17.383333333333333,17.516666666666666,67.0,110.0
10,17.383333333333333,17.523958333333333,62.0,104.0
11,17.383333333333333,17.535416666666666,70.0,98.0
12,17.383333333333333,17.738541666666666,42.0,100.0
13,18.383333333333333,18.447916666666668,67.0,113.0
14,18.383333333333333,18.457291666666666,62.0,107.0
15,18.383333333333333,18.458333333333332,70.0,98.0
16,17.883333333333333,18.530208333333334,43.0,93.0
17,18.633333333333333,18.778125,62.0,107.0
18,18.633333333333333,18.778125,70.0,100.0
19,18.633333333333333,18.782291666666666,67.0,116.0
20,18.883333333333333,19.36875,48.0,102.0
21,19.383333333333333,19.542708333333334,62.0,110.0
22,19.383333333333333,19.55,67.0,116.0
23,19.383333333333333,19.55625,70.0,102.0
24,19.383333333333333,19.864583333333332,49.0,106.0
25,20.383333333333333,20.463541666666668,69.0,88.0
26,20.383333333333333,20.464583333333334,62.0,89.0
27,20.383333333333333,20.465625,65.0,93.0
28,19.883333333333333,20.527083333333334,50.0,104.0
29,20.633333333333333,20.8,65.0,104.0
30,20.633333333333333,20.805208333333333,62.0,94.0
31,20.633333333333333,20.81458333333333,69.0,102.0
32,20.633333333333333,20.889583333333334,50.0,104.0
33,20.883333333333333,21.216666666666665,48.0,92.0
34,21.383333333333333,21.58020833333333,65.0,108.0
35,21.383333333333333,21.585416666666667,62.0,100.0
36,21.383333333333333,21.586458333333333,69.0,104.0
37,21.383333333333333,21.741666666666667,49.0,100.0
38,21.883333333333333,22.419791666666665,50.0,100.0
39,22.383333333333333,22.445833333333333,65.0,100.0
40,22.383333333333333,22.454166666666666,69.0,94.0
41,22.383333333333333,22.457291666666666,62.0,92.0
42,22.633333333333333,22.772916666666667,69.0,98.0
43,22.633333333333333,22.78125,62.0,90.0
44,22.633333333333333,22.789583333333333,65.0,100.0
45,22.883333333333333,23.384375,50.0,86.0
46,23.383333333333333,23.529166666666665,62.0,96.0
47,23.383333333333333,23.536458333333332,69.0,94.0
48,23.383333333333333,23.539583333333333,65.0,108.0
49,23.383333333333333,23.65,46.0,86.0
50,23.633333333333333,23.876041666666666,47.0,84.0
51,23.883333333333333,24.316666666666666,48.0,90.0
52,24.383333333333333,24.451041666666665,63.0,98.0
53,24.383333333333333,24.457291666666666,67.0,92.0
54,24.383333333333333,24.459375,60.0,92.0
55,24.633333333333333,24.789583333333333,60.0,96.0
56,24.633333333333333,24.804166666666667,63.0,104.0
57,24.633333333333333,24.810416666666665,67.0,102.0
58,24.883333333333333,25.369791666666668,51.0,93.0
59,25.383333333333333,25.539583333333333,60.0,102.0
60,25.383333333333333,25.563541666666666,63.0,108.0
61,25.383333333333333,25.569791666666667,67.0,98.0
62,25.383333333333333,25.910416666666666,52.0,93.0
63,26.383333333333333,26.45625,65.0,96.0
64,26.383333333333333,26.458333333333332,69.0,90.0
65,26.383333333333333,26.459374999999998,60.0,91.0
66,25.883333333333333,26.4875,53.0,92.0
67,26.633333333333333,26.722916666666666,65.0,102.0
68,26.633333333333333,26.728125,60.0,96.0
69,26.633333333333333,26.744791666666668,69.0,93.0
70,26.883333333333333,27.375,53.0,87.0
71,27.383333333333333,27.516666666666666,60.0,104.0
72,27.383333333333333,27.53125,65.0,113.0
73,27.383333333333333,27.55,69.0,96.0
74,27.883333333333333,28.401041666666668,55.0,88.0
75,28.383333333333333,28.458333333333332,67.0,98.0
76,28.383333333333333,28.460416666666667,62.0,91.0
77,28.383333333333333,28.471875,70.0,90.0
78,28.633333333333333,28.72083333333333,62.0,98.0
79,28.633333333333333,28.730208333333334,67.0,108.0
80,28.633333333333333,28.745833333333334,70.0,91.0
81,28.633333333333333,28.870833333333334,55.0,94.0
82,28.883333333333333,29.414583333333333,53.0,96.0
83,29.383333333333333,29.568749999999998,70.0,98.0
84,29.383333333333333,29.571875,67.0,113.0
85,29.383333333333333,29.572916666666668,62.0,108.0
86,29.383333333333333,29.860416666666666,54.0,95.0
87,29.883333333333333,30.211458333333333,55.0,98.0
88,32.38333333333333,32.458333333333336,67.0,100.0
89,31.883333333333333,32.46145833333333,43.0,98.0
90,32.38333333333333,32.465625,62.0,90.0
91,32.38333333333333,32.475,70.0,90.0
92,32.63333333333333,32.734375,62.0,100.0
93,32.63333333333333,32.734375,67.0,113.0
94,32.63333333333333,32.76875,43.0,93.0
95,32.63333333333333,32.76875,70.0,93.0
96,32.88333333333333,33.31666666666666,41.0,96.0
97,33.38333333333333,33.516666666666666,67.0,110.0
98,33.38333333333333,33.52395833333333,62.0,104.0
99,33.38333333333333,33.53541666666666,70.0,98.0
100,33.38333333333333,33.73854166666666,42.0,100.0
101,34.38333333333333,34.447916666666664,67.0,113.0
102,34.38333333333333,34.45729166666666,62.0,107.0
103,34.38333333333333,34.458333333333336,70.0,98.0
104,33.88333333333333,34.530208333333334,43.0,93.0
105,34.63333333333333,34.778125,62.0,107.0
106,34.63333333333333,34.778125,70.0,100.0
107,34.63333333333333,34.782291666666666,67.0,116.0
108,34.88333333333333,35.36875,48.0,102.0
109,35.38333333333333,35.54270833333333,62.0,110.0
110,35.38333333333333,35.55,67.0,116.0
111,35.38333333333333,35.55625,70.0,102.0
112,35.38333333333333,35.864583333333336,49.0,106.0
113,36.38333333333333,36.463541666666664,69.0,88.0
114,36.38333333333333,36.46458333333333,62.0,89.0
115,36.38333333333333,36.465625,65.0,93.0
116,35.88333333333333,36.52708333333333,50.0,104.0
117,36.63333333333333,36.8,65.0,104.0
118,36.63333333333333,36.80520833333333,62.0,94.0
119,36.63333333333333,36.81458333333333,69.0,102.0
120,36.63333333333333,36.889583333333334,50.0,104.0
121,36.88333333333333,37.21666666666667,48.0,92.0
122,37.38333333333333,37.58020833333333,65.0,108.0
123,37.38333333333333,37.58541666666667,62.0,100.0
124,37.38333333333333,37.58645833333333,69.0,104.0
125,37.38333333333333,37.74166666666667,49.0,100.0
126,37.88333333333333,38.41979166666667,50.0,100.0
127,38.38333333333333,38.44583333333333,65.0,100.0
128,38.38333333333333,38.454166666666666,69.0,94.0
129,38.38333333333333,38.45729166666666,62.0,92.0
130,38.63333333333333,38.77291666666667,69.0,98.0
131,38.63333333333333,38.78125,62.0,90.0
132,38.63333333333333,38.78958333333333,65.0,100.0
133,38.88333333333333,39.384375,50.0,86.0
134,39.38333333333333,39.52916666666667,62.0,96.0
135,39.38333333333333,39.536458333333336,69.0,94.0
136,39.38333333333333,39.53958333333333,65.0,108.0
137,39.38333333333333,39.65,46.0,86.0
138,39.63333333333333,39.876041666666666,47.0,84.0
139,39.88333333333333,40.31666666666666,48.0,90.0
140,40.38333333333333,40.45104166666667,63.0,98.0
141,40.38333333333333,40.45729166666666,67.0,92.0
142,40.38333333333333,40.459375,60.0,92.0
143,40.63333333333333,40.78958333333333,60.0,96.0
144,40.63333333333333,40.80416666666667,63.0,104.0
145,40.63333333333333,40.81041666666667,67.0,102.0
146,40.88333333333333,41.369791666666664,51.0,93.0
147,41.38333333333333,41.53958333333333,60.0,102.0
148,41.38333333333333,41.563541666666666,63.0,108.0
149,41.38333333333333,41.56979166666667,67.0,98.0
150,41.38333333333333,41.91041666666666,52.0,93.0
151,42.38333333333333,42.45625,65.0,96.0
152,42.38333333333333,42.458333333333336,69.0,90.0
153,42.38333333333333,42.459375,60.0,91.0
154,41.88333333333333,42.4875,53.0,92.0
155,42.63333333333333,42.72291666666666,65.0,102.0
156,42.63333333333333,42.728125,60.0,96.0
157,42.63333333333333,42.744791666666664,69.0,93.0
158,42.88333333333333,43.375,53.0,87.0
159,43.38333333333333,43.516666666666666,60.0,104.0
160,43.38333333333333,43.53125,65.0,113.0
161,43.38333333333333,43.55,69.0,96.0
162,43.88333333333333,44.401041666666664,55.0,88.0
163,44.38333333333333,44.458333333333336,67.0,98.0
164,44.38333333333333,44.46041666666667,62.0,91.0
165,44.38333333333333,44.471875,70.0,90.0
166,44.63333333333333,44.72083333333333,62.0,98.0
167,44.63333333333333,44.73020833333333,67.0,108.0
168,44.63333333333333,44.74583333333333,70.0,91.0
169,44.63333333333333,44.87083333333333,55.0,94.0
170,44.88333333333333,45.41458333333333,53.0,96.0
171,45.38333333333333,45.56875,70.0,98.0
172,45.38333333333333,45.571875,67.0,113.0
173,45.38333333333333,45.572916666666664,62.0,108.0
174,45.38333333333333,45.860416666666666,54.0,95.0
175,45.88333333333333,46.21145833333333,55.0,98.0
176,47.88333333333333,48.365625,46.0,102.0
177,48.63333333333333,48.7875,46.0,104.0
178,48.38333333333333,48.891666666666666,70.0,93.0
179,48.38333333333333,48.89375,62.0,104.0
180,48.38333333333333,48.901041666666664,65.0,108.0
181,48.88333333333333,49.369791666666664,55.0,114.0
182,49.63333333333333,49.78854166666667,55.0,113.0
183,49.38333333333333,49.89895833333333,70.0,100.0
184,49.38333333333333,49.91458333333333,62.0,107.0
185,49.38333333333333,49.915625,67.0,114.0
186,49.88333333333333,50.364583333333336,51.0,117.0
187,50.63333333333333,50.751041666666666,51.0,116.0
188,50.38333333333333,50.90416666666667,70.0,96.0
189,50.38333333333333,50.925,63.0,104.0
190,50.38333333333333,50.95625,67.0,108.0
191,50.88333333333333,51.38333333333333,53.0,114.0
192,51.38333333333333,51.780208333333334,60.0,108.0
193,51.63333333333333,51.80625,53.0,114.0
194,51.38333333333333,51.82604166666667,69.0,107.0
195,51.38333333333333,51.88854166666667,65.0,114.0
196,51.88333333333333,52.360416666666666,46.0,104.0
197,52.50833333333333,52.65416666666667,46.0,100.0
198,52.38333333333333,52.90833333333333,65.0,108.0
199,52.38333333333333,52.90833333333333,70.0,94.0
200,52.38333333333333,52.91458333333333,62.0,107.0
201,52.88333333333333,53.36875,55.0,116.0
202,53.63333333333333,53.83645833333333,55.0,116.0
203,53.38333333333333,53.94166666666666,62.0,113.0
204,53.38333333333333,53.94895833333333,67.0,114.0
205,53.38333333333333,53.96458333333333,70.0,98.0
206,53.88333333333333,54.369791666666664,51.0,117.0
207,54.63333333333333,54.85729166666667,51.0,116.0
208,54.38333333333333,54.891666666666666,70.0,98.0
209,54.38333333333333,54.91458333333333,63.0,107.0
210,54.38333333333333,54.915625,67.0,113.0
211,54.88333333333333,55.395833333333336,53.0,117.0
212,55.63333333333333,55.765625,53.0,113.0
213,55.38333333333333,55.840624999999996,60.0,108.0
214,55.38333333333333,55.86354166666666,65.0,114.0
215,55.38333333333333,55.876041666666666,69.0,102.0
216,55.88333333333333,56.371874999999996,50.0,107.0
217,56.38333333333333,56.64895833333333,69.0,90.0
218,56.38333333333333,56.699999999999996,62.0,88.0
219,56.38333333333333,56.728125,65.0,92.0
220,56.63333333333333,56.90416666666667,50.0,98.0
221,56.88333333333333,57.420833333333334,55.0,108.0
222,57.38333333333333,57.744791666666664,58.0,92.0
223,57.38333333333333,57.84166666666667,67.0,92.0
224,57.63333333333333,57.86354166666666,55.0,110.0
225,57.38333333333333,57.952083333333334,62.0,102.0
226,57.88333333333333,58.37916666666666,48.0,102.0
227,58.63333333333333,58.86875,48.0,96.0
228,58.38333333333333,58.915625,67.0,93.0
229,58.38333333333333,58.94583333333333,63.0,107.0
230,58.38333333333333,58.94895833333333,60.0,91.0
231,58.88333333333333,59.438541666666666,53.0,98.0
232,59.38333333333333,59.875,65.0,110.0
233,59.38333333333333,59.878125,60.0,94.0
234,59.38333333333333,59.88125,69.0,98.0
235,59.63333333333333,59.89895833333333,53.0,110.0
236,60.63333333333333,60.76875,46.0,108.0
237,60.38333333333333,60.94375,70.0,98.0
238,60.38333333333333,60.952083333333334,65.0,113.0
239,60.38333333333333,60.97604166666667,62.0,107.0
240,60.88333333333333,61.391666666666666,53.0,116.0
241,61.63333333333333,61.840624999999996,53.0,113.0
242,61.38333333333333,61.952083333333334,65.0,114.0
243,61.88333333333333,61.952083333333334,65.0,110.0
244,61.38333333333333,61.967708333333334,62.0,107.0
245,61.38333333333333,61.978125,70.0,96.0
246,61.88333333333333,62.125,60.0,114.0
247,61.88333333333333,62.140625,57.0,107.0
248,61.88333333333333,62.153124999999996,53.0,104.0
249,61.88333333333333,62.159375,41.0,107.0
250,62.38333333333333,62.66354166666667,57.0,104.0
251,62.38333333333333,62.708333333333336,41.0,107.0
252,62.38333333333333,62.71145833333333,65.0,108.0
253,62.38333333333333,62.71875,53.0,110.0
254,62.38333333333333,62.76770833333333,60.0,114.0
255,63.88333333333333,64.34375,58.0,94.0
256,63.88333333333333,64.35416666666667,46.0,90.0
257,64.63333333333333,64.77083333333333,46.0,107.0
258,64.38333333333333,64.90833333333333,62.0,107.0
259,64.38333333333333,64.921875,70.0,96.0
260,64.38333333333333,64.92708333333333,65.0,108.0
261,64.88333333333333,65.40729166666667,55.0,100.0
262,65.63333333333333,65.87395833333333,55.0,110.0
263,65.38333333333333,65.91979166666667,62.0,107.0
264,65.38333333333333,65.92291666666667,67.0,110.0
265,65.38333333333333,65.93958333333333,70.0,100.0
266,65.88333333333333,66.378125,51.0,113.0
267,66.63333333333333,66.86875,51.0,114.0
268,66.38333333333333,66.89375,63.0,96.0
269,66.38333333333333,66.91041666666666,70.0,100.0
270,66.38333333333333,66.934375,67.0,114.0
271,66.88333333333333,67.38020833333333,53.0,117.0
272,67.38333333333333,67.771875,60.0,107.0
273,67.63333333333333,67.84895833333333,53.0,110.0
274,67.38333333333333,67.86041666666667,69.0,92.0
275,67.38333333333333,67.88645833333334,65.0,110.0
276,67.88333333333333,68.37708333333333,46.0,100.0
277,68.50833333333333,68.71145833333333,46.0,104.0
278,68.38333333333333,68.98125,70.0,98.0
279,68.38333333333333,69.003125,62.0,102.0
280,68.38333333333333,69.175,65.0,104.0
281,68.88333333333333,69.4375,55.0,117.0
282,69.63333333333333,69.865625,55.0,114.0
283,69.38333333333333,69.92395833333333,62.0,110.0
284,69.38333333333333,69.92604166666666,67.0,114.0
285,69.38333333333333,69.92916666666666,70.0,104.0
286,69.88333333333333,70.378125,51.0,114.0
287,70.63333333333333,70.85729166666667,51.0,113.0
288,70.38333333333333,70.92916666666666,70.0,100.0
289,70.38333333333333,70.94895833333334,67.0,116.0
290,70.38333333333333,70.95729166666666,63.0,108.0
291,70.88333333333333,71.3875,53.0,117.0
292,71.38333333333333,71.63229166666666,60.0,108.0
293,71.38333333333333,71.68645833333333,69.0,96.0
294,71.38333333333333,71.68854166666667,65.0,113.0
295,71.63333333333333,71.77083333333333,53.0,114.0
296,71.88333333333333,72.384375,50.0,107.0
297,72.63333333333333,72.86145833333333,50.0,102.0
298,72.38333333333333,72.95208333333333,69.0,91.0
299,72.38333333333333,72.98541666666667,62.0,93.0
300,72.38333333333333,72.99166666666666,65.0,107.0
301,72.88333333333333,73.43854166666667,55.0,110.0
302,73.63333333333333,73.871875,55.0,104.0
303,73.38333333333333,73.88854166666667,58.0,91.0
304,73.38333333333333,73.903125,67.0,92.0
305,73.38333333333333,73.95520833333333,62.0,96.0
306,73.88333333333333,74.36354166666666,48.0,100.0
307,74.63333333333333,74.87291666666667,48.0,93.0
308,74.38333333333333,74.92291666666667,67.0,100.0
309,74.38333333333333,74.94791666666667,63.0,108.0
310,74.38333333333333,74.953125,60.0,96.0
311,74.88333333333333,75.428125,53.0,107.0
312,75.63333333333333,75.86354166666666,53.0,108.0
313,75.38333333333333,75.87083333333334,60.0,102.0
314,75.38333333333333,75.90208333333334,69.0,104.0
315,75.38333333333333,75.91770833333334,65.0,110.0
316,75.88333333333333,76.4,46.0,100.0
317,76.63333333333333,76.815625,46.0,98.0
318,76.38333333333333,77.13854166666667,70.0,92.0
319,76.38333333333333,77.171875,65.0,104.0
320,76.38333333333333,77.17708333333333,62.0,98.0
321,76.88333333333333,77.38541666666667,53.0,110.0
322,76.88333333333333,77.390625,75.0,110.0
323,77.38333333333333,77.79791666666667,65.0,102.0
324,77.38333333333333,77.80416666666666,62.0,92.0
325,77.38333333333333,77.81458333333333,70.0,91.0
326,77.63333333333333,77.87708333333333,53.0,110.0
327,77.38333333333333,77.88333333333333,74.0,98.0
328,77.88333333333333,78.15104166666667,70.0,90.0
329,77.88333333333333,78.15104166666667,70.0,104.0
330,77.88333333333333,78.1625,65.0,96.0
331,77.88333333333333,78.16666666666667,58.0,86.0
332,77.88333333333333,78.16979166666667,46.0,88.0
333,77.88333333333333,78.175,62.0,91.0
334,78.38333333333333,78.48125,70.0,93.0
335,78.38333333333333,78.48333333333333,58.0,93.0
336,78.38333333333333,78.48333333333333,65.0,104.0
337,78.38333333333333,78.48854166666666,46.0,91.0
338,78.38333333333333,78.49270833333333,62.0,94.0
339,78.63333333333333,78.72395833333333,70.0,100.0
340,78.63333333333333,78.72604166666666,65.0,110.0
341,78.63333333333333,78.72916666666667,58.0,94.0
342,78.63333333333333,78.734375,46.0,94.0
343,78.63333333333333,78.74270833333333,62.0,98.0
344,78.88333333333333,78.97083333333333,58.0,108.0
345,78.88333333333333,79.13958333333333,62.0,107.0
346,78.88333333333333,79.14791666666666,65.0,114.0
347,78.88333333333333,79.1625,70.0,102.0
348,78.88333333333333,79.16875,46.0,107.0
349,79.88333333333333,80.19270833333333,67.0,117.0
350,79.88333333333333,80.19270833333333,67.0,119.0
351,80.13333333333333,80.32916666666667,65.0,108.0
352,80.38333333333333,80.61979166666667,62.0,94.0
353,80.63333333333333,80.84479166666667,65.0,113.0
354,80.88333333333333,81.13333333333333,67.0,107.0
355,81.13333333333333,81.36979166666667,65.0,114.0
356,81.13333333333333,81.38333333333333,70.0,117.0
357,81.38333333333333,81.63333333333333,72.0,116.0
358,81.38333333333333,81.66666666666667,62.0,108.0
359,81.63333333333333,81.84166666666667,65.0,110.0
360,81.63333333333333,81.88333333333333,70.0,114.0
361,81.88333333333333,82.17395833333333,67.0,113.0
362,81.88333333333333,82.17395833333333,67.0,116.0
363,82.13333333333333,82.365625,65.0,113.0
364,82.38333333333333,82.67291666666667,62.0,108.0
365,82.63333333333333,82.86354166666666,65.0,113.0
366,82.88333333333333,83.10520833333334,67.0,104.0
367,83.13333333333333,83.365625,65.0,114.0
368,83.13333333333333,83.365625,65.0,114.0
369,83.38333333333333,83.64895833333333,62.0,108.0
370,83.38333333333333,83.64895833333333,62.0,110.0
371,83.63333333333333,83.88333333333333,65.0,107.0
372,83.63333333333333,83.88333333333333,65.0,110.0
373,83.88333333333333,84.15104166666667,67.0,100.0
374,83.88333333333333,84.15104166666667,67.0,117.0
375,84.13333333333333,84.37395833333333,65.0,110.0
376,84.38333333333333,84.7,62.0,102.0
377,84.63333333333333,84.88333333333333,65.0,113.0
378,84.88333333333333,85.13333333333333,67.0,102.0
379,85.13333333333333,85.3625,65.0,108.0
380,85.13333333333333,85.396875,70.0,96.0
381,85.38333333333333,85.63333333333333,72.0,114.0
382,85.38333333333333,85.66875,62.0,94.0
383,85.63333333333333,85.87395833333333,65.0,110.0
384,85.63333333333333,85.88333333333333,70.0,108.0
385,79.88333333333333,85.89479166666666,55.0,107.0
386,85.88333333333333,86.16979166666667,67.0,100.0
387,85.88333333333333,86.16979166666667,67.0,114.0
388,88.38333333333333,88.45833333333333,67.0,100.0
389,87.88333333333333,88.46145833333333,43.0,98.0
390,88.38333333333333,88.465625,62.0,90.0
391,88.38333333333333,88.475,70.0,90.0
392,88.63333333333333,88.734375,62.0,100.0
393,88.63333333333333,88.734375,67.0,113.0
394,88.63333333333333,88.76875,43.0,93.0
395,88.63333333333333,88.76875,70.0,93.0
396,88.88333333333333,89.31666666666666,41.0,96.0
397,89.38333333333333,89.51666666666667,67.0,110.0
398,89.38333333333333,89.52395833333333,62.0,104.0
399,89.38333333333333,89.53541666666666,70.0,98.0
400,89.38333333333333,89.73854166666666,42.0,100.0
401,90.38333333333333,90.44791666666667,67.0,113.0
402,90.38333333333333,90.45729166666666,62.0,107.0
403,90.38333333333333,90.45833333333333,70.0,98.0
404,89.88333333333333,90.53020833333333,43.0,93.0
405,90.63333333333333,90.778125,62.0,107.0
406,90.63333333333333,90.778125,70.0,100.0
407,90.63333333333333,90.78229166666667,67.0,116.0
408,90.88333333333333,91.36875,48.0,102.0
409,91.38333333333333,91.54270833333334,62.0,110.0
410,91.38333333333333,91.55,67.0,116.0
411,91.38333333333333,91.55625,70.0,102.0
412,91.38333333333333,91.86458333333333,49.0,106.0
413,92.38333333333333,92.46354166666667,69.0,88.0
414,92.38333333333333,92.46458333333334,62.0,89.0
415,92.38333333333333,92.465625,65.0,93.0
416,91.88333333333333,92.52708333333334,50.0,104.0
417,92.63333333333333,92.8,65.0,104.0
418,92.63333333333333,92.80520833333333,62.0,94.0
419,92.63333333333333,92.81458333333333,69.0,102.0
420,92.63333333333333,92.88958333333333,50.0,104.0
421,92.88333333333333,93.21666666666667,48.0,92.0
422,93.38333333333333,93.58020833333333,65.0,108.0
423,93.38333333333333,93.58541666666666,62.0,100.0
424,93.38333333333333,93.58645833333333,69.0,104.0
425,93.38333333333333,93.74166666666666,49.0,100.0
426,93.88333333333333,94.41979166666667,50.0,100.0
427,94.38333333333333,94.44583333333333,65.0,100.0
428,94.38333333333333,94.45416666666667,69.0,94.0
429,94.38333333333333,94.45729166666666,62.0,92.0
430,94.63333333333333,94.77291666666666,69.0,98.0
431,94.63333333333333,94.78125,62.0,90.0
432,94.63333333333333,94.78958333333333,65.0,100.0
433,94.88333333333333,95.384375,50.0,86.0
434,95.38333333333333,95.52916666666667,62.0,96.0
435,95.38333333333333,95.53645833333333,69.0,94.0
436,95.38333333333333,95.53958333333333,65.0,108.0
437,95.38333333333333,95.65,46.0,86.0
438,95.63333333333333,95.87604166666667,47.0,84.0
439,95.88333333333333,96.31666666666666,48.0,90.0
440,96.38333333333333,96.45104166666667,63.0,98.0
441,96.38333333333333,96.45729166666666,67.0,92.0
442,96.38333333333333,96.459375,60.0,92.0
443,96.63333333333333,96.78958333333333,60.0,96.0
444,96.63333333333333,96.80416666666666,63.0,104.0
445,96.63333333333333,96.81041666666667,67.0,102.0
446,96.88333333333333,97.36979166666667,51.0,93.0
447,97.38333333333333,97.53958333333333,60.0,102.0
448,97.38333333333333,97.56354166666667,63.0,108.0
449,97.38333333333333,97.56979166666666,67.0,98.0
450,97.38333333333333,97.91041666666666,52.0,93.0
451,98.38333333333333,98.45625,65.0,96.0
452,98.38333333333333,98.45833333333333,69.0,90.0
453,98.38333333333333,98.459375,60.0,91.0
454,97.88333333333333,98.4875,53.0,92.0
455,98.63333333333333,98.72291666666666,65.0,102.0
456,98.63333333333333,98.728125,60.0,96.0
457,98.63333333333333,98.74479166666667,69.0,93.0
458,98.88333333333333,99.375,53.0,87.0
459,99.38333333333333,99.51666666666667,60.0,104.0
460,99.38333333333333,99.53125,65.0,113.0
461,99.38333333333333,99.55,69.0,96.0
462,99.88333333333333,100.40104166666667,55.0,88.0
463,100.38333333333333,100.45833333333333,67.0,98.0
464,100.38333333333333,100.46041666666666,62.0,91.0
465,100.38333333333333,100.471875,70.0,90.0
466,100.63333333333333,100.72083333333333,62.0,98.0
467,100.63333333333333,100.73020833333334,67.0,108.0
468,100.63333333333333,100.74583333333334,70.0,91.0
469,100.63333333333333,100.87083333333334,55.0,94.0
470,100.88333333333333,101.41458333333333,53.0,96.0
471,101.38333333333333,101.56875,70.0,98.0
472,101.38333333333333,101.571875,67.0,113.0
473,101.38333333333333,101.57291666666667,62.0,108.0
474,101.38333333333333,101.86041666666667,54.0,95.0
475,101.88333333333333,102.21145833333333,55.0,98.0
476,104.38333333333333,104.45833333333333,67.0,100.0
477,103.88333333333333,104.46145833333333,43.0,98.0
478,104.38333333333333,104.465625,62.0,90.0
479,104.38333333333333,104.475,70.0,90.0
480,104.63333333333333,104.734375,62.0,100.0
481,104.63333333333333,104.734375,67.0,113.0
482,104.63333333333333,104.76875,43.0,93.0
483,104.63333333333333,104.76875,70.0,93.0
484,104.88333333333333,105.31666666666666,41.0,96.0
485,105.38333333333333,105.51666666666667,67.0,110.0
486,105.38333333333333,105.52395833333333,62.0,104.0
487,105.38333333333333,105.53541666666666,70.0,98.0
488,105.38333333333333,105.73854166666666,42.0,100.0
489,106.38333333333333,106.44791666666667,67.0,113.0
490,106.38333333333333,106.45729166666666,62.0,107.0
491,106.38333333333333,106.45833333333333,70.0,98.0
492,105.88333333333333,106.53020833333333,43.0,93.0
493,106.63333333333333,106.778125,62.0,107.0
494,106.63333333333333,106.778125,70.0,100.0
495,106.63333333333333,106.78229166666667,67.0,116.0
496,106.88333333333333,107.36874999999999,48.0,102.0
497,107.38333333333333,107.54270833333334,62.0,110.0
498,107.38333333333333,107.55,67.0,116.0
499,107.38333333333333,107.55624999999999,70.0,102.0
500,107.38333333333333,107.86458333333333,49.0,106.0
501,108.38333333333333,108.46354166666667,69.0,88.0
502,108.38333333333333,108.46458333333334,62.0,89.0
503,108.38333333333333,108.465625,65.0,93.0
504,107.88333333333333,108.52708333333334,50.0,104.0
505,108.63333333333333,108.8,65.0,104.0
506,108.63333333333333,108.80520833333333,62.0,94.0
507,108.63333333333333,108.81458333333333,69.0,102.0
508,108.63333333333333,108.88958333333333,50.0,104.0
509,108.88333333333333,109.21666666666667,48.0,92.0
510,109.38333333333333,109.58020833333333,65.0,108.0
511,109.38333333333333,109.58541666666666,62.0,100.0
512,109.38333333333333,109.58645833333333,69.0,104.0
513,109.38333333333333,109.74166666666666,49.0,100.0
514,109.88333333333333,110.41979166666667,50.0,100.0
515,110.38333333333333,110.44583333333333,65.0,100.0
516,110.38333333333333,110.45416666666667,69.0,94.0
517,110.38333333333333,110.45729166666666,62.0,92.0
518,110.63333333333333,110.77291666666666,69.0,98.0
519,110.63333333333333,110.78125,62.0,90.0
520,110.63333333333333,110.78958333333333,65.0,100.0
521,110.88333333333333,111.38437499999999,50.0,86.0
522,111.38333333333333,111.52916666666667,62.0,96.0
523,111.38333333333333,111.53645833333333,69.0,94.0
524,111.38333333333333,111.53958333333333,65.0,108.0
525,111.38333333333333,111.64999999999999,46.0,86.0
526,111.63333333333333,111.87604166666667,47.0,84.0
527,111.88333333333333,112.31666666666666,48.0,90.0
528,112.38333333333333,112.45104166666667,63.0,98.0
529,112.38333333333333,112.45729166666666,67.0,92.0
530,112.38333333333333,112.459375,60.0,92.0
531,112.63333333333333,112.78958333333333,60.0,96.0
532,112.63333333333333,112.80416666666666,63.0,104.0
533,112.63333333333333,112.81041666666667,67.0,102.0
534,112.88333333333333,113.36979166666667,51.0,93.0
535,113.38333333333333,113.53958333333333,60.0,102.0
536,113.38333333333333,113.56354166666667,63.0,108.0
537,113.38333333333333,113.56979166666666,67.0,98.0
538,113.38333333333333,113.91041666666666,52.0,93.0
539,114.38333333333333,114.45625,65.0,96.0
540,114.38333333333333,114.45833333333333,69.0,90.0
541,114.38333333333333,114.459375,60.0,91.0
542,113.88333333333333,114.4875,53.0,92.0
543,114.63333333333333,114.72291666666666,65.0,102.0
544,114.63333333333333,114.72812499999999,60.0,96.0
545,114.63333333333333,114.74479166666667,69.0,93.0
546,114.88333333333333,115.375,53.0,87.0
547,115.38333333333333,115.51666666666667,60.0,104.0
548,115.38333333333333,115.53125,65.0,113.0
549,115.38333333333333,115.55,69.0,96.0
550,115.88333333333333,116.40104166666667,55.0,88.0
551,116.38333333333333,116.45833333333333,67.0,98.0
552,116.38333333333333,116.46041666666666,62.0,91.0
553,116.38333333333333,116.471875,70.0,90.0
554,116.63333333333333,116.72083333333333,62.0,98.0
555,116.63333333333333,116.73020833333334,67.0,108.0
556,116.63333333333333,116.74583333333334,70.0,91.0
557,116.63333333333333,116.87083333333334,55.0,94.0
558,116.88333333333333,117.41458333333333,53.0,96.0
559,117.38333333333333,117.56875,70.0,98.0
560,117.38333333333333,117.57187499999999,67.0,113.0
561,117.38333333333333,117.57291666666667,62.0,108.0
562,117.38333333333333,117.86041666666667,54.0,95.0
563,117.88333333333333,118.21145833333333,55.0,98.0
564,119.88333333333333,120.365625,46.0,102.0
565,120.63333333333333,120.7875,46.0,104.0
566,120.38333333333333,120.89166666666667,70.0,93.0
567,120.38333333333333,120.89375,62.0,104.0
568,120.38333333333333,120.90104166666667,65.0,108.0
569,120.88333333333333,121.36979166666667,55.0,114.0
570,121.63333333333333,121.78854166666666,55.0,113.0
571,121.38333333333333,121.89895833333333,70.0,100.0
572,121.38333333333333,121.91458333333333,62.0,107.0
573,121.38333333333333,121.91562499999999,67.0,114.0
574,121.88333333333333,122.36458333333333,51.0,117.0
575,122.63333333333333,122.75104166666667,51.0,116.0
576,122.38333333333333,122.90416666666667,70.0,96.0
577,122.38333333333333,122.925,63.0,104.0
578,122.38333333333333,122.95625,67.0,108.0
579,122.88333333333333,123.38333333333333,53.0,114.0
580,123.38333333333333,123.78020833333333,60.0,108.0
581,123.63333333333333,123.80624999999999,53.0,114.0
582,123.38333333333333,123.82604166666667,69.0,107.0
583,123.38333333333333,123.88854166666667,65.0,114.0
584,123.88333333333333,124.36041666666667,46.0,104.0
585,124.63333333333333,124.77916666666667,46.0,100.0
586,124.38333333333333,124.90833333333333,65.0,108.0
587,124.38333333333333,124.90833333333333,70.0,94.0
588,124.38333333333333,124.91458333333333,62.0,107.0
589,124.88333333333333,125.36874999999999,55.0,116.0
590,125.63333333333333,125.83645833333333,55.0,116.0
591,125.38333333333333,125.94166666666666,62.0,113.0
592,125.38333333333333,125.94895833333334,67.0,114.0
593,125.38333333333333,125.96458333333334,70.0,98.0
594,125.88333333333333,126.36979166666667,51.0,117.0
595,126.63333333333333,126.85729166666667,51.0,116.0
596,126.38333333333333,126.89166666666667,70.0,98.0
597,126.38333333333333,126.91458333333333,63.0,107.0
598,126.38333333333333,126.91562499999999,67.0,113.0
599,126.88333333333333,127.39583333333333,53.0,117.0
600,127.63333333333333,127.765625,53.0,113.0
601,127.38333333333333,127.840625,60.0,108.0
602,127.38333333333333,127.86354166666666,65.0,114.0
603,127.38333333333333,127.87604166666667,69.0,102.0
604,127.88333333333333,128.371875,50.0,107.0
605,128.38333333333333,128.64895833333333,69.0,90.0
606,128.38333333333333,128.7,62.0,88.0
607,128.38333333333333,128.728125,65.0,92.0
608,128.63333333333333,128.90416666666667,50.0,98.0
609,128.88333333333333,129.42083333333332,55.0,108.0
610,129.38333333333333,129.74479166666666,58.0,92.0
611,129.38333333333333,129.84166666666667,67.0,92.0
612,129.63333333333333,129.86354166666666,55.0,110.0
613,129.38333333333333,129.95208333333332,62.0,102.0
614,129.88333333333333,130.37916666666666,48.0,102.0
615,130.63333333333333,130.86875,48.0,96.0
616,130.38333333333333,130.915625,67.0,93.0
617,130.38333333333333,130.94583333333333,63.0,107.0
618,130.38333333333333,130.94895833333334,60.0,91.0
619,130.88333333333333,131.43854166666665,53.0,98.0
620,131.38333333333333,131.875,65.0,110.0
621,131.38333333333333,131.878125,60.0,94.0
622,131.38333333333333,131.88125,69.0,98.0
623,131.63333333333333,131.89895833333333,53.0,110.0
624,132.63333333333333,132.76875,46.0,108.0
625,132.38333333333333,132.94375,70.0,98.0
626,132.38333333333333,132.95208333333332,65.0,113.0
627,132.38333333333333,132.97604166666667,62.0,107.0
628,132.88333333333333,133.39166666666665,53.0,116.0
629,133.63333333333333,133.840625,53.0,113.0
630,133.38333333333333,133.95208333333332,65.0,114.0
631,133.88333333333333,133.95208333333332,65.0,110.0
632,133.38333333333333,133.96770833333332,62.0,107.0
633,133.38333333333333,133.978125,70.0,96.0
634,133.88333333333333,134.125,60.0,114.0
635,133.88333333333333,134.140625,57.0,107.0
636,133.88333333333333,134.153125,53.0,104.0
637,133.88333333333333,134.159375,41.0,107.0
638,134.38333333333333,134.66354166666667,57.0,104.0
639,134.38333333333333,134.70833333333334,41.0,107.0
640,134.38333333333333,134.71145833333333,65.0,108.0
641,134.38333333333333,134.71875,53.0,110.0
642,134.38333333333333,134.76770833333333,60.0,114.0
643,135.88333333333333,136.34375,58.0,94.0
644,135.88333333333333,136.35416666666666,46.0,90.0
645,136.63333333333333,136.77083333333334,46.0,107.0
646,136.38333333333333,136.90833333333333,62.0,107.0
647,136.38333333333333,136.921875,70.0,96.0
648,136.38333333333333,136.92708333333334,65.0,108.0
649,136.88333333333333,137.40729166666665,55.0,100.0
650,137.63333333333333,137.87395833333332,55.0,110.0
651,137.38333333333333,137.91979166666667,62.0,107.0
652,137.38333333333333,137.92291666666665,67.0,110.0
653,137.38333333333333,137.93958333333333,70.0,100.0
654,137.88333333333333,138.378125,51.0,113.0
655,138.63333333333333,138.86875,51.0,114.0
656,138.38333333333333,138.89375,63.0,96.0
657,138.38333333333333,138.91041666666666,70.0,100.0
658,138.38333333333333,138.934375,67.0,114.0
659,138.88333333333333,139.38020833333334,53.0,117.0
660,139.38333333333333,139.771875,60.0,107.0
661,139.63333333333333,139.84895833333334,53.0,110.0
662,139.38333333333333,139.86041666666665,69.0,92.0
663,139.38333333333333,139.88645833333334,65.0,110.0
664,139.88333333333333,140.37708333333333,46.0,100.0
665,140.50833333333333,140.71145833333333,46.0,104.0
666,140.38333333333333,140.98125,70.0,98.0
667,140.38333333333333,141.003125,62.0,102.0
668,140.38333333333333,141.175,65.0,104.0
669,140.88333333333333,141.4375,55.0,117.0
670,141.63333333333333,141.865625,55.0,114.0
671,141.38333333333333,141.92395833333333,62.0,110.0
672,141.38333333333333,141.92604166666666,67.0,114.0
673,141.38333333333333,141.92916666666667,70.0,104.0
674,141.88333333333333,142.378125,51.0,114.0
675,142.63333333333333,142.85729166666667,51.0,113.0
676,142.38333333333333,142.92916666666667,70.0,100.0
677,142.38333333333333,142.94895833333334,67.0,116.0
678,142.38333333333333,142.95729166666666,63.0,108.0
679,142.88333333333333,143.3875,53.0,117.0
680,143.38333333333333,143.63229166666667,60.0,108.0
681,143.38333333333333,143.68645833333332,69.0,96.0
682,143.38333333333333,143.68854166666665,65.0,113.0
683,143.63333333333333,143.77083333333334,53.0,114.0
684,143.88333333333333,144.384375,50.0,107.0
685,144.63333333333333,144.86145833333333,50.0,102.0
686,144.38333333333333,144.95208333333332,69.0,91.0
687,144.38333333333333,144.98541666666665,62.0,93.0
688,144.38333333333333,144.99166666666667,65.0,107.0
689,144.88333333333333,145.43854166666665,55.0,110.0
690,145.63333333333333,145.871875,55.0,104.0
691,145.38333333333333,145.88854166666667,58.0,91.0
692,145.38333333333333,145.903125,67.0,92.0
693,145.38333333333333,145.95520833333333,62.0,96.0
694,145.88333333333333,146.36354166666666,48.0,100.0
695,146.63333333333333,146.87291666666667,48.0,93.0
696,146.38333333333333,146.92291666666665,67.0,100.0
697,146.38333333333333,146.94791666666666,63.0,108.0
698,146.38333333333333,146.953125,60.0,96.0
699,146.88333333333333,147.428125,53.0,107.0
700,147.63333333333333,147.86354166666666,53.0,108.0
701,147.38333333333333,147.87083333333334,60.0,102.0
702,147.38333333333333,147.90208333333334,69.0,104.0
703,147.38333333333333,147.91770833333334,65.0,110.0
704,147.88333333333333,148.4,46.0,100.0
705,148.63333333333333,148.815625,46.0,98.0
706,148.38333333333333,149.13854166666667,70.0,92.0
707,148.38333333333333,149.171875,65.0,104.0
708,148.38333333333333,149.17708333333334,62.0,98.0
709,148.88333333333333,149.38541666666666,53.0,110.0
710,149.38333333333333,149.79791666666665,65.0,102.0
711,149.38333333333333,149.80416666666667,62.0,92.0
712,149.38333333333333,149.81458333333333,70.0,91.0
713,149.63333333333333,149.87708333333333,53.0,110.0
714,149.88333333333333,150.15104166666666,70.0,90.0
715,149.88333333333333,150.1625,65.0,96.0
716,149.88333333333333,150.16666666666666,58.0,86.0
717,149.88333333333333,150.16979166666667,46.0,88.0
718,149.88333333333333,150.175,62.0,91.0
719,150.38333333333333,150.48125,70.0,93.0
720,150.38333333333333,150.48333333333332,58.0,93.0
721,150.38333333333333,150.48333333333332,65.0,104.0
722,150.38333333333333,150.48854166666666,46.0,91.0
723,150.38333333333333,150.49270833333333,62.0,94.0
724,150.63333333333333,150.72395833333334,70.0,100.0
725,150.63333333333333,150.72604166666667,65.0,110.0
726,150.63333333333333,150.72916666666666,58.0,94.0
727,150.63333333333333,150.734375,46.0,94.0
728,150.63333333333333,150.74270833333333,62.0,98.0
729,150.88333333333333,150.97083333333333,58.0,108.0
730,150.88333333333333,151.13958333333332,62.0,107.0
731,150.88333333333333,151.14791666666667,65.0,114.0
732,150.88333333333333,151.1625,70.0,102.0
733,150.88333333333333,151.16875,46.0,107.0
734,159.88333333333333,160.38541666666666,43.0,94.0
735,160.63333333333333,160.88229166666667,50.0,88.0
736,160.38333333333333,160.959375,70.0,88.0
737,160.38333333333333,161.00520833333334,67.0,93.0
738,160.38333333333333,161.00833333333333,62.0,89.0
739,160.88333333333333,161.16979166666667,50.0,100.0
740,161.13333333333333,161.421875,62.0,96.0
741,161.13333333333333,161.42291666666665,70.0,92.0
742,161.13333333333333,161.42916666666667,67.0,107.0
743,161.38333333333333,161.703125,50.0,93.0
744,161.63333333333333,161.99895833333332,62.0,91.0
745,161.63333333333333,162.01145833333334,67.0,98.0
746,161.63333333333333,162.01666666666665,70.0,89.0
747,161.88333333333333,162.38333333333333,43.0,94.0
748,162.63333333333333,162.88229166666667,50.0,89.0
749,162.38333333333333,162.95104166666667,70.0,91.0
750,162.38333333333333,162.98020833333334,62.0,96.0
751,162.38333333333333,162.99166666666667,67.0,104.0
752,162.88333333333333,163.16145833333334,50.0,98.0
753,163.13333333333333,163.38333333333333,70.0,91.0
754,163.13333333333333,163.403125,62.0,96.0
755,163.13333333333333,163.41770833333334,67.0,104.0
756,163.38333333333333,163.63333333333333,43.0,91.0
757,163.63333333333333,163.97395833333334,70.0,90.0
758,163.63333333333333,163.99375,62.0,92.0
759,163.63333333333333,163.99895833333332,67.0,102.0
760,163.75833333333333,164.38333333333333,38.0,104.0
761,164.63333333333333,164.88229166666667,45.0,100.0
762,164.38333333333333,164.94479166666667,65.0,94.0
763,164.38333333333333,164.95416666666665,69.0,100.0
764,164.38333333333333,164.959375,62.0,100.0
765,164.88333333333333,165.15625,45.0,104.0
766,165.13333333333333,165.421875,69.0,100.0
767,165.13333333333333,165.4375,62.0,94.0
768,165.13333333333333,165.43958333333333,65.0,108.0
769,165.38333333333333,165.63958333333332,45.0,107.0
770,165.63333333333333,165.94166666666666,69.0,91.0
771,165.63333333333333,165.96041666666667,62.0,90.0
772,165.63333333333333,165.96041666666667,65.0,102.0
773,165.88333333333333,166.38333333333333,38.0,100.0
774,166.63333333333333,166.88333333333333,45.0,89.0
775,166.38333333333333,166.94895833333334,65.0,104.0
776,166.38333333333333,166.953125,69.0,92.0
777,166.38333333333333,166.95416666666665,62.0,96.0
778,166.88333333333333,167.38333333333333,38.0,100.0
779,167.63333333333333,167.88333333333333,38.0,89.0
780,167.38333333333333,167.88333333333333,69.0,98.0
781,167.38333333333333,167.890625,62.0,100.0
782,167.38333333333333,167.90416666666667,65.0,104.0
783,167.88333333333333,168.38333333333333,48.0,104.0
784,168.38333333333333,168.87604166666665,67.0,91.0
785,168.63333333333333,168.88229166666667,55.0,100.0
786,168.38333333333333,168.91979166666667,60.0,96.0
787,168.38333333333333,168.93229166666666,63.0,107.0
788,168.88333333333333,169.14270833333333,55.0,104.0
789,169.13333333333333,169.37604166666665,67.0,102.0
790,169.13333333333333,169.40208333333334,60.0,104.0
791,169.13333333333333,169.4125,63.0,110.0
792,169.38333333333333,169.67395833333333,55.0,93.0
793,169.63333333333333,169.896875,67.0,89.0
794,169.63333333333333,169.91354166666667,60.0,90.0
795,169.63333333333333,169.92708333333334,63.0,100.0
796,169.88333333333333,170.38333333333333,48.0,104.0
797,170.63333333333333,170.88229166666667,55.0,92.0
798,170.38333333333333,170.96354166666666,67.0,88.0
799,170.38333333333333,170.97083333333333,60.0,100.0
800,170.38333333333333,170.98125,63.0,107.0
801,170.88333333333333,171.15833333333333,55.0,107.0
802,171.13333333333333,171.40104166666666,67.0,102.0
803,171.13333333333333,171.41770833333334,60.0,108.0
804,171.13333333333333,171.421875,63.0,114.0
805,171.38333333333333,171.71770833333332,55.0,107.0
806,171.63333333333333,171.88541666666666,67.0,96.0
807,171.63333333333333,171.91041666666666,60.0,102.0
808,171.63333333333333,171.91041666666666,63.0,107.0
809,171.88333333333333,172.38333333333333,55.0,98.0
810,172.64166666666665,172.890625,50.0,87.0
811,172.38333333333333,172.95520833333333,70.0,88.0
812,172.38333333333333,172.96666666666667,62.0,88.0
813,172.38333333333333,172.98541666666665,67.0,94.0
814,172.89166666666665,173.13854166666667,50.0,96.0
815,173.13333333333333,173.48541666666665,70.0,89.0
816,173.13333333333333,173.51770833333333,62.0,92.0
817,173.13333333333333,173.51979166666666,67.0,98.0
818,173.50833333333333,173.88854166666667,55.0,102.0
819,173.88333333333333,174.35,62.0,93.0
820,173.88333333333333,174.359375,70.0,91.0
821,173.88333333333333,174.36354166666666,67.0,107.0
822,175.26458333333332,175.42708333333334,58.0,87.0
823,175.48020833333334,175.55208333333334,62.0,98.0
824,175.70208333333332,175.83125,67.0,91.0
825,175.92395833333333,176.0375,70.0,88.0
826,176.15729166666665,176.25416666666666,74.0,85.0
827,176.425,176.63958333333332,79.0,91.0
828,176.71145833333333,176.91354166666667,82.0,87.0
829,177.04479166666667,177.19375,86.0,92.0
830,177.43020833333333,177.72395833333334,79.0,65.0
831,177.490625,177.80208333333334,82.0,77.0
832,177.659375,177.93020833333333,91.0,84.0
833,174.72708333333333,177.96145833333333,50.0,81.0
834,175.02708333333334,177.96145833333333,55.0,93.0
835,174.30625,177.97291666666666,43.0,107.0
836,182.25833333333333,182.740625,46.0,102.0
837,183.00833333333333,183.1625,46.0,104.0
838,182.75833333333333,183.26666666666665,70.0,93.0
839,182.75833333333333,183.26875,62.0,104.0
840,182.75833333333333,183.27604166666666,65.0,108.0
841,183.25833333333333,183.74479166666666,55.0,114.0
842,184.00833333333333,184.16354166666667,55.0,113.0
843,183.75833333333333,184.27395833333333,70.0,100.0
844,183.75833333333333,184.28958333333333,62.0,107.0
845,183.75833333333333,184.290625,67.0,114.0
846,184.25833333333333,184.73958333333334,51.0,117.0
847,185.00833333333333,185.12604166666665,51.0,116.0
848,184.75833333333333,185.27916666666667,70.0,96.0
849,184.75833333333333,185.3,63.0,104.0
850,184.75833333333333,185.33125,67.0,108.0
851,185.25833333333333,185.75833333333333,53.0,114.0
852,185.75833333333333,186.15520833333332,60.0,108.0
853,186.00833333333333,186.18125,53.0,114.0
854,185.75833333333333,186.20104166666667,69.0,107.0
855,185.75833333333333,186.26354166666667,65.0,114.0
856,186.25833333333333,186.73541666666665,46.0,104.0
857,187.00833333333333,187.15416666666667,46.0,100.0
858,186.75833333333333,187.28333333333333,65.0,108.0
859,186.75833333333333,187.28333333333333,70.0,94.0
860,186.75833333333333,187.28958333333333,62.0,107.0
861,187.25833333333333,187.74375,55.0,116.0
862,188.00833333333333,188.21145833333333,55.0,116.0
863,187.75833333333333,188.31666666666666,62.0,113.0
864,187.75833333333333,188.32395833333334,67.0,114.0
865,187.75833333333333,188.33958333333334,70.0,98.0
866,188.25833333333333,188.74479166666666,51.0,117.0
867,189.00833333333333,189.23229166666667,51.0,116.0
868,188.75833333333333,189.26666666666665,70.0,98.0
869,188.75833333333333,189.28958333333333,63.0,107.0
870,188.75833333333333,189.290625,67.0,113.0
871,189.25833333333333,189.77083333333334,53.0,117.0
872,190.00833333333333,190.140625,53.0,113.0
873,189.75833333333333,190.215625,60.0,108.0
874,189.75833333333333,190.23854166666666,65.0,114.0
875,189.75833333333333,190.25104166666665,69.0,102.0
876,190.25833333333333,190.746875,50.0,107.0
877,190.75833333333333,191.02395833333333,69.0,90.0
878,190.75833333333333,191.075,62.0,88.0
879,190.75833333333333,191.103125,65.0,92.0
880,191.00833333333333,191.27916666666667,50.0,98.0
881,191.25833333333333,191.79583333333332,55.0,108.0
882,191.75833333333333,192.11979166666666,58.0,92.0
883,191.75833333333333,192.21666666666667,67.0,92.0
884,192.00833333333333,192.23854166666666,55.0,110.0
885,191.75833333333333,192.32708333333332,62.0,102.0
886,192.25833333333333,192.75416666666666,48.0,102.0
887,193.00833333333333,193.24375,48.0,96.0
888,192.75833333333333,193.290625,67.0,93.0
889,192.75833333333333,193.32083333333333,63.0,107.0
890,192.75833333333333,193.32395833333334,60.0,91.0
891,193.25833333333333,193.81354166666665,53.0,98.0
892,193.75833333333333,194.25,65.0,110.0
893,193.75833333333333,194.253125,60.0,94.0
894,193.75833333333333,194.25625,69.0,98.0
895,194.00833333333333,194.27395833333333,53.0,110.0
896,195.00833333333333,195.14375,46.0,108.0
897,194.75833333333333,195.31875,70.0,98.0
898,194.75833333333333,195.32708333333332,65.0,113.0
899,194.75833333333333,195.35104166666667,62.0,107.0
900,195.25833333333333,195.76666666666665,53.0,116.0
901,196.00833333333333,196.215625,53.0,113.0
902,195.75833333333333,196.32708333333332,65.0,114.0
903,196.25833333333333,196.32708333333332,65.0,110.0
904,195.75833333333333,196.34270833333332,62.0,107.0
905,195.75833333333333,196.353125,70.0,96.0
906,196.25833333333333,196.5,60.0,114.0
907,196.25833333333333,196.515625,57.0,107.0
908,196.25833333333333,196.528125,53.0,104.0
909,196.25833333333333,196.534375,41.0,107.0
910,196.75833333333333,197.03854166666667,57.0,104.0
911,196.75833333333333,197.08333333333334,41.0,107.0
912,196.75833333333333,197.08645833333333,65.0,108.0
913,196.75833333333333,197.09375,53.0,110.0
914,196.75833333333333,197.14270833333333,60.0,114.0
915,198.25833333333333,198.52604166666666,70.0,108.0
916,198.25833333333333,198.53333333333333,58.0,94.0
917,198.25833333333333,198.53333333333333,65.0,114.0
918,198.25833333333333,198.53958333333333,62.0,110.0
919,198.25833333333333,198.54583333333332,46.0,92.0
920,199.25833333333333,199.34583333333333,67.0,107.0
921,199.25833333333333,199.35625,62.0,100.0
922,199.25833333333333,199.36041666666665,70.0,98.0
923,199.25833333333333,199.3625,55.0,91.0
924,199.25833333333333,199.36979166666666,43.0,92.0
925,199.50833333333333,199.67291666666665,70.0,104.0
926,199.50833333333333,199.68541666666667,67.0,113.0
927,199.50833333333333,199.68645833333332,55.0,102.0
928,199.50833333333333,199.68958333333333,62.0,102.0
929,199.50833333333333,199.696875,43.0,98.0
930,200.25833333333333,200.48854166666666,51.0,96.0
931,200.25833333333333,200.490625,39.0,89.0
932,200.25833333333333,200.503125,70.0,108.0
933,200.25833333333333,200.50520833333334,67.0,116.0
934,200.25833333333333,200.52395833333333,63.0,104.0
935,201.25833333333333,201.496875,65.0,114.0
936,201.25833333333333,201.49895833333332,53.0,108.0
937,201.25833333333333,201.5,69.0,102.0
938,201.25833333333333,201.50625,60.0,110.0
939,201.25833333333333,201.509375,41.0,98.0
940,202.88333333333333,203.08645833333333,46.0,104.0
941,202.75833333333333,203.35625,70.0,98.0
942,202.75833333333333,203.378125,62.0,102.0
943,202.75833333333333,203.55,65.0,104.0
944,203.25833333333333,203.8125,55.0,117.0
945,204.00833333333333,204.240625,55.0,114.0
946,203.75833333333333,204.29895833333333,62.0,110.0
947,203.75833333333333,204.30104166666666,67.0,114.0
948,203.75833333333333,204.30416666666667,70.0,104.0
949,204.25833333333333,204.753125,51.0,114.0
950,205.00833333333333,205.23229166666667,51.0,113.0
951,204.75833333333333,205.30416666666667,70.0,100.0
952,204.75833333333333,205.32395833333334,67.0,116.0
953,204.75833333333333,205.33229166666666,63.0,108.0
954,205.25833333333333,205.7625,53.0,117.0
955,205.75833333333333,206.00729166666667,60.0,108.0
956,205.75833333333333,206.06145833333332,69.0,96.0
957,205.75833333333333,206.06354166666665,65.0,113.0
958,206.00833333333333,206.14583333333334,53.0,114.0
959,206.25833333333333,206.759375,50.0,107.0
960,207.00833333333333,207.23645833333333,50.0,102.0
961,206.75833333333333,207.32708333333332,69.0,91.0
962,206.75833333333333,207.36041666666665,62.0,93.0
963,206.75833333333333,207.36666666666667,65.0,107.0
964,207.25833333333333,207.81354166666665,55.0,110.0
965,208.00833333333333,208.246875,55.0,104.0
966,207.75833333333333,208.26354166666667,58.0,91.0
967,207.75833333333333,208.278125,67.0,92.0
968,207.75833333333333,208.33020833333333,62.0,96.0
969,208.25833333333333,208.73854166666666,48.0,100.0
970,209.00833333333333,209.24791666666667,48.0,93.0
971,208.75833333333333,209.29791666666665,67.0,100.0
972,208.75833333333333,209.32291666666666,63.0,108.0
973,208.75833333333333,209.328125,60.0,96.0
974,209.25833333333333,209.803125,53.0,107.0
975,210.00833333333333,210.23854166666666,53.0,108.0
976,209.75833333333333,210.24583333333334,60.0,102.0
977,209.75833333333333,210.27708333333334,69.0,104.0
978,209.75833333333333,210.29270833333334,65.0,110.0
979,210.75833333333333,211.259375,50.0,107.0
980,211.50833333333333,211.73645833333333,50.0,102.0
981,211.25833333333333,211.82708333333332,69.0,91.0
982,211.25833333333333,211.86041666666665,62.0,93.0
983,211.25833333333333,211.86666666666667,65.0,107.0
984,211.75833333333333,212.31354166666665,55.0,110.0
985,212.50833333333333,212.746875,55.0,104.0
986,212.25833333333333,212.76354166666667,58.0,91.0
987,212.25833333333333,212.778125,67.0,92.0
988,212.25833333333333,212.83020833333333,62.0,96.0
989,212.75833333333333,213.23854166666666,48.0,100.0
990,213.50833333333333,213.74791666666667,48.0,93.0
991,213.25833333333333,213.79791666666665,67.0,100.0
992,213.25833333333333,213.82291666666666,63.0,108.0
993,213.25833333333333,213.828125,60.0,96.0
994,213.75833333333333,214.303125,53.0,107.0
995,214.50833333333333,214.73854166666666,53.0,108.0
996,214.25833333333333,214.74583333333334,60.0,102.0
997,214.25833333333333,214.77708333333334,69.0,104.0
998,214.25833333333333,214.79270833333334,65.0,110.0
999,215.25833333333333,215.759375,50.0,107.0
1000,216.00833333333333,216.23645833333333,50.0,102.0
1001,215.75833333333333,216.32708333333332,69.0,91.0
1002,215.75833333333333,216.36041666666665,62.0,93.0
1003,215.75833333333333,216.36666666666667,65.0,107.0
1004,216.25833333333333,216.81354166666665,55.0,110.0
1005,217.00833333333333,217.246875,55.0,104.0
1006,216.75833333333333,217.26354166666667,58.0,91.0
1007,216.75833333333333,217.278125,67.0,92.0
1008,216.75833333333333,217.33020833333333,62.0,96.0
1009,217.25833333333333,217.73854166666666,48.0,100.0
1010,218.00833333333333,218.24791666666667,48.0,93.0
1011,217.75833333333333,218.29791666666665,67.0,100.0
1012,217.75833333333333,218.32291666666666,63.0,108.0
1013,217.75833333333333,218.328125,60.0,96.0
1014,218.25833333333333,218.803125,53.0,107.0
1015,219.00833333333333,219.23854166666666,53.0,108.0
1016,218.75833333333333,219.24583333333334,60.0,102.0
1017,218.75833333333333,219.27708333333334,69.0,104.0
1018,218.75833333333333,219.29270833333334,65.0,110.0
1019,219.25833333333333,219.759375,50.0,107.0
1020,220.00833333333333,220.23645833333333,50.0,102.0
1021,219.75833333333333,220.32708333333332,69.0,91.0
1022,219.75833333333333,220.36041666666665,62.0,93.0
1023,219.75833333333333,220.36666666666667,65.0,107.0
1024,220.25833333333333,220.81354166666665,55.0,110.0
1025,221.00833333333333,221.246875,55.0,104.0
1026,220.75833333333333,221.26354166666667,58.0,91.0
1027,220.75833333333333,221.278125,67.0,92.0
1028,220.75833333333333,221.33020833333333,62.0,96.0
1029,221.25833333333333,221.73854166666666,48.0,100.0
1030,222.00833333333333,222.24791666666667,48.0,93.0
1031,221.75833333333333,222.29791666666665,67.0,100.0
1032,221.75833333333333,222.32291666666666,63.0,108.0
1033,221.75833333333333,222.328125,60.0,96.0
1034,222.25833333333333,222.803125,53.0,107.0
1035,223.00833333333333,223.23854166666666,53.0,108.0
1036,222.75833333333333,223.24583333333334,60.0,102.0
1037,222.75833333333333,223.27708333333334,69.0,104.0
1038,222.75833333333333,223.29270833333334,65.0,110.0
1039,223.25833333333333,223.759375,50.0,107.0
1040,224.00833333333333,224.23645833333333,50.0,102.0
1041,223.75833333333333,224.32708333333332,69.0,91.0
1042,223.75833333333333,224.36041666666665,62.0,93.0
1043,223.75833333333333,224.36666666666667,65.0,107.0
1044,224.25833333333333,224.81354166666665,55.0,110.0
1045,225.00833333333333,225.246875,55.0,104.0
1046,224.75833333333333,225.26354166666667,58.0,91.0
1047,224.75833333333333,225.278125,67.0,92.0
1048,224.75833333333333,225.33020833333333,62.0,96.0
1049,225.25833333333333,225.73854166666666,48.0,100.0
1050,226.00833333333333,226.24791666666667,48.0,93.0
1051,225.75833333333333,226.29791666666665,67.0,100.0
1052,225.75833333333333,226.32291666666666,63.0,108.0
1053,225.75833333333333,226.328125,60.0,96.0
1054,226.25833333333333,226.803125,53.0,107.0
1055,227.00833333333333,227.23854166666666,53.0,108.0
1056,226.75833333333333,227.24583333333334,60.0,102.0
1057,226.75833333333333,227.27708333333334,69.0,104.0
1058,226.75833333333333,227.29270833333334,65.0,110.0
1059,227.25833333333333,227.759375,50.0,107.0
1060,228.00833333333333,228.23645833333333,50.0,102.0
1061,227.75833333333333,228.32708333333332,69.0,91.0
1062,227.75833333333333,228.36041666666665,62.0,93.0
1063,227.75833333333333,228.36666666666667,65.0,107.0
1064,228.25833333333333,228.81354166666665,55.0,110.0
1065,229.00833333333333,229.246875,55.0,104.0
1066,228.75833333333333,229.26354166666667,58.0,91.0
1067,228.75833333333333,229.278125,67.0,92.0
1068,228.75833333333333,229.33020833333333,62.0,96.0
1069,229.25833333333333,229.73854166666666,48.0,100.0
1070,230.00833333333333,230.24791666666667,48.0,93.0
1071,229.75833333333333,230.29791666666665,67.0,100.0
1072,229.75833333333333,230.32291666666666,63.0,108.0
1073,229.75833333333333,230.328125,60.0,96.0
1074,233.13333333333333,233.19583333333333,70.0,86.0
1075,233.13333333333333,233.20520833333333,65.0,91.0
1076,233.13333333333333,233.21145833333333,62.0,89.0
1077,233.25833333333333,233.3125,65.0,104.0
1078,233.25833333333333,233.31562499999998,70.0,93.0
1079,233.25833333333333,233.31770833333334,62.0,91.0
1080,233.38333333333333,236.671875,62.0,110.0
1081,233.38333333333333,236.68229166666666,65.0,116.0
1082,233.38333333333333,236.728125,70.0,107.0
