,start,end,pitch,velocity
0,11.620535225,12.49279624375,71.0,95.0
1,11.620535225,12.49279624375,71.0,95.0
2,12.485587474999999,14.076322445833334,68.0,73.0
3,12.485587474999999,14.076322445833334,68.0,73.0
4,14.215691975,14.343046889583333,68.0,60.0
5,14.215691975,14.343046889583333,68.0,60.0
6,14.504042725,14.628994716666666,68.0,77.0
7,14.504042725,14.628994716666666,68.0,77.0
8,14.792393475,14.982224385416666,66.0,82.0
9,14.792393475,14.982224385416666,66.0,82.0
10,15.080744225,15.421959279166666,68.0,91.0
11,15.080744225,15.421959279166666,68.0,91.0
12,15.657445725,16.061136775,71.0,75.0
13,15.657445725,16.061136775,71.0,75.0
14,16.234147225,17.075170245833334,71.0,79.0
15,16.234147225,17.075170245833334,71.0,79.0
16,17.099199475,18.199738170833335,68.0,71.0
17,17.099199475,18.199738170833335,68.0,71.0
18,18.829303975,18.9590618125,68.0,85.0
19,18.829303975,18.9590618125,68.0,85.0
20,19.117654725,19.3339177875,68.0,85.0
21,19.117654725,19.3339177875,68.0,85.0
22,19.406005475,19.655909458333333,66.0,71.0
23,19.406005475,19.655909458333333,66.0,71.0
24,19.694356225,20.251834341666665,68.0,88.0
25,19.694356225,20.251834341666665,68.0,88.0
26,20.271057725,20.799700766666668,64.0,71.0
27,20.271057725,20.799700766666668,64.0,71.0
28,20.847759225,21.724826089583335,73.0,88.0
29,20.847759225,21.724826089583335,73.0,88.0
30,21.712811475,23.03201615625,69.0,91.0
31,21.712811475,23.03201615625,69.0,91.0
32,23.442915975,23.541435814583334,69.0,95.0
33,23.442915975,23.541435814583334,69.0,95.0
34,23.442915975,23.541435814583334,69.0,95.0
35,23.731266725,23.945126864583333,69.0,103.0
36,23.731266725,23.945126864583333,69.0,103.0
37,23.731266725,23.945126864583333,69.0,103.0
38,24.019617475,24.16379285,68.0,88.0
39,24.019617475,24.16379285,68.0,88.0
40,24.019617475,24.16379285,68.0,88.0
41,24.307968225,24.685227122916668,69.0,109.0
42,24.307968225,24.685227122916668,69.0,109.0
43,24.307968225,24.685227122916668,69.0,109.0
44,24.596318975,25.358045539583333,71.0,79.0
45,24.596318975,25.358045539583333,71.0,79.0
46,24.596318975,25.358045539583333,71.0,79.0
47,25.461371225,25.783362895833335,66.0,76.0
48,25.461371225,25.783362895833335,66.0,76.0
49,25.461371225,25.783362895833335,66.0,76.0
50,25.749721975,27.323636485416667,68.0,60.0
51,25.749721975,27.323636485416667,68.0,60.0
52,25.749721975,27.323636485416667,68.0,60.0
53,30.074983225,30.928020860416666,71.0,106.0
54,30.074983225,30.928020860416666,71.0,106.0
55,30.074983225,30.928020860416666,71.0,106.0
56,30.940035475,32.38899799375,68.0,106.0
57,30.940035475,32.38899799375,68.0,106.0
58,30.940035475,32.38899799375,68.0,106.0
59,32.670139975,32.739824739583334,68.0,85.0
60,32.670139975,32.739824739583334,68.0,85.0
61,32.670139975,32.739824739583334,68.0,85.0
62,32.958490725,33.114680714583336,68.0,98.0
63,32.958490725,33.114680714583336,68.0,98.0
64,32.958490725,33.114680714583336,68.0,98.0
65,33.246841475,33.436672385416664,66.0,76.0
66,33.246841475,33.436672385416664,66.0,76.0
67,33.246841475,33.436672385416664,66.0,76.0
68,33.535192225,34.09026741875,68.0,106.0
69,33.535192225,34.09026741875,68.0,106.0
70,33.535192225,34.09026741875,68.0,106.0
71,34.111893725,34.534808158333334,71.0,98.0
72,34.111893725,34.534808158333334,71.0,98.0
73,34.111893725,34.534808158333334,71.0,98.0
74,34.688595225,35.51520070833333,71.0,109.0
75,34.688595225,35.51520070833333,71.0,109.0
76,34.688595225,35.51520070833333,71.0,109.0
77,35.553647475,37.04586260625,68.0,111.0
78,35.553647475,37.04586260625,68.0,111.0
79,35.553647475,37.04586260625,68.0,111.0
80,37.283751975,37.375063045833336,68.0,109.0
81,37.283751975,37.375063045833336,68.0,109.0
82,37.283751975,37.375063045833336,68.0,109.0
83,37.572102725,37.72348686875,68.0,100.0
84,37.572102725,37.72348686875,68.0,100.0
85,37.572102725,37.72348686875,68.0,100.0
86,37.860453475,38.02865807916667,66.0,82.0
87,37.860453475,38.02865807916667,66.0,82.0
88,37.860453475,38.02865807916667,66.0,82.0
89,38.148804225,38.68705895833333,68.0,109.0
90,38.148804225,38.68705895833333,68.0,109.0
91,38.148804225,38.68705895833333,68.0,109.0
92,38.725505725,39.2301195375,64.0,98.0
93,38.725505725,39.2301195375,64.0,98.0
94,38.725505725,39.2301195375,64.0,98.0
95,39.302207225,40.16245362916667,73.0,113.0
96,39.302207225,40.16245362916667,73.0,113.0
97,39.302207225,40.16245362916667,73.0,113.0
98,40.167259475,41.577775227083336,69.0,109.0
99,40.167259475,41.577775227083336,69.0,109.0
100,40.167259475,41.577775227083336,69.0,109.0
101,41.897363975,42.14005918958333,69.0,103.0
102,41.897363975,42.14005918958333,69.0,103.0
103,41.897363975,42.14005918958333,69.0,103.0
104,42.185714725,42.30826379375,68.0,79.0
105,42.185714725,42.30826379375,68.0,79.0
106,42.185714725,42.30826379375,68.0,79.0
107,42.474065475,42.55336193125,69.0,106.0
108,42.474065475,42.55336193125,69.0,106.0
109,42.474065475,42.55336193125,69.0,106.0
110,42.762416225,43.13246635416667,69.0,113.0
111,42.762416225,43.13246635416667,69.0,113.0
112,42.762416225,43.13246635416667,69.0,113.0
113,43.050766975,43.42562295,68.0,85.0
114,43.050766975,43.42562295,68.0,85.0
115,43.050766975,43.42562295,68.0,85.0
116,43.627468475,43.92302799375,66.0,77.0
117,43.627468475,43.92302799375,66.0,77.0
118,43.627468475,43.92302799375,66.0,77.0
119,43.915819225,43.92302799375,66.0,58.0
120,43.915819225,43.92302799375,66.0,58.0
121,43.915819225,43.92302799375,66.0,58.0
122,43.915819225,45.46570450625,64.0,95.0
123,43.915819225,45.46570450625,64.0,95.0
124,43.915819225,45.46570450625,64.0,95.0
125,47.376028225,47.8662245,76.0,115.0
126,47.376028225,47.8662245,76.0,115.0
127,47.376028225,47.8662245,76.0,115.0
128,47.952729725,48.42129969375,75.0,109.0
129,47.952729725,48.42129969375,75.0,109.0
130,47.952729725,48.42129969375,75.0,109.0
131,48.529431225,49.27433732916667,76.0,111.0
132,48.529431225,49.27433732916667,76.0,111.0
133,48.529431225,49.27433732916667,76.0,111.0
134,49.394483475,49.49060039166667,76.0,109.0
135,49.394483475,49.49060039166667,76.0,109.0
136,49.394483475,49.49060039166667,76.0,109.0
137,49.682834225,49.79096575625,76.0,115.0
138,49.682834225,49.79096575625,76.0,115.0
139,49.682834225,49.79096575625,76.0,115.0
140,49.971184975,50.05528727708333,76.0,106.0
141,49.971184975,50.05528727708333,76.0,106.0
142,49.971184975,50.05528727708333,76.0,106.0
143,50.259535725,50.449366635416666,76.0,109.0
144,50.259535725,50.449366635416666,76.0,109.0
145,50.259535725,50.449366635416666,76.0,109.0
146,50.547886475,50.70888231041667,78.0,113.0
147,50.547886475,50.70888231041667,78.0,113.0
148,50.547886475,50.70888231041667,78.0,113.0
149,50.836237225,51.670051477083334,78.0,115.0
150,50.836237225,51.670051477083334,78.0,115.0
151,50.836237225,51.670051477083334,78.0,115.0
152,51.989640225,52.4077488125,75.0,113.0
153,51.989640225,52.4077488125,75.0,113.0
154,51.989640225,52.4077488125,75.0,113.0
155,52.566341725,53.01088246458333,73.0,109.0
156,52.566341725,53.01088246458333,73.0,109.0
157,52.566341725,53.01088246458333,73.0,109.0
158,53.143043225,53.85671133125,75.0,117.0
159,53.143043225,53.85671133125,75.0,117.0
160,53.143043225,53.85671133125,75.0,117.0
161,54.008095475,54.08498900833333,75.0,100.0
162,54.008095475,54.08498900833333,75.0,100.0
163,54.008095475,54.08498900833333,75.0,100.0
164,54.296446225,54.510306364583336,75.0,120.0
165,54.296446225,54.510306364583336,75.0,120.0
166,54.296446225,54.510306364583336,75.0,120.0
167,54.584796975,54.80586588333333,71.0,85.0
168,54.584796975,54.80586588333333,71.0,85.0
169,54.584796975,54.80586588333333,71.0,85.0
170,54.873147725,55.029337714583335,75.0,109.0
171,54.873147725,55.029337714583335,75.0,109.0
172,54.873147725,55.029337714583335,75.0,109.0
173,55.161498475,55.32489723333333,76.0,109.0
174,55.161498475,55.32489723333333,76.0,109.0
175,55.161498475,55.32489723333333,76.0,109.0
176,56.314901475,56.454271004166664,71.0,95.0
177,56.314901475,56.454271004166664,71.0,95.0
178,56.314901475,56.454271004166664,71.0,95.0
179,55.449849225,56.58643176458333,76.0,117.0
180,55.449849225,56.58643176458333,76.0,117.0
181,55.449849225,56.58643176458333,76.0,117.0
182,56.603252225,56.85796205416667,80.0,111.0
183,56.603252225,56.85796205416667,80.0,111.0
184,56.603252225,56.85796205416667,80.0,111.0
185,56.891602975,57.3097115625,78.0,111.0
186,56.891602975,57.3097115625,78.0,111.0
187,56.891602975,57.3097115625,78.0,111.0
188,57.468304475,57.725417227083334,76.0,100.0
189,57.468304475,57.725417227083334,76.0,100.0
190,57.468304475,57.725417227083334,76.0,100.0
191,57.756655225,58.09306443333333,78.0,113.0
192,57.756655225,58.09306443333333,78.0,113.0
193,57.756655225,58.09306443333333,78.0,113.0
194,58.045005975,58.59527532291666,73.0,98.0
195,58.045005975,58.59527532291666,73.0,98.0
196,58.045005975,58.59527532291666,73.0,98.0
197,58.621707475,58.82115007708333,71.0,95.0
198,58.621707475,58.82115007708333,71.0,95.0
199,58.621707475,58.82115007708333,71.0,95.0
200,58.910058225,59.24406451041666,80.0,117.0
201,58.910058225,59.24406451041666,80.0,117.0
202,58.910058225,59.24406451041666,80.0,117.0
203,59.198408975,59.55404156666667,81.0,106.0
204,59.198408975,59.55404156666667,81.0,106.0
205,59.198408975,59.55404156666667,81.0,106.0
206,59.775110475,60.0778787625,80.0,109.0
207,59.775110475,60.0778787625,80.0,109.0
208,59.775110475,60.0778787625,80.0,109.0
209,60.063461225,60.253292135416665,76.0,113.0
210,60.063461225,60.253292135416665,76.0,113.0
211,60.063461225,60.253292135416665,76.0,113.0
212,60.351811975,61.5773026625,76.0,111.0
213,60.351811975,61.5773026625,76.0,111.0
214,60.351811975,61.5773026625,76.0,111.0
215,61.793565725,62.28135907708333,78.0,117.0
216,61.793565725,62.28135907708333,78.0,117.0
217,61.793565725,62.28135907708333,78.0,117.0
218,62.370267225,64.93178305416667,78.0,113.0
219,62.370267225,64.93178305416667,78.0,113.0
220,62.370267225,64.93178305416667,78.0,113.0
221,65.542125475,65.72234469375,71.0,106.0
222,65.542125475,65.72234469375,71.0,106.0
223,65.542125475,65.72234469375,71.0,106.0
224,65.830476225,66.0467392875,81.0,106.0
225,65.830476225,66.0467392875,81.0,106.0
226,65.830476225,66.0467392875,81.0,106.0
227,66.118826975,66.25819650416666,80.0,85.0
228,66.118826975,66.25819650416666,80.0,85.0
229,66.118826975,66.25819650416666,80.0,85.0
230,66.407177725,66.66909632291667,80.0,79.0
231,66.407177725,66.66909632291667,80.0,79.0
232,66.407177725,66.66909632291667,80.0,79.0
233,66.695528475,66.80606292916667,78.0,71.0
234,66.695528475,66.80606292916667,78.0,71.0
235,66.695528475,66.80606292916667,78.0,71.0
236,66.983879225,67.30346797291666,78.0,106.0
237,66.983879225,67.30346797291666,78.0,106.0
238,66.983879225,67.30346797291666,78.0,106.0
239,67.272229975,67.84412562916667,80.0,103.0
240,67.272229975,67.84412562916667,80.0,103.0
241,67.272229975,67.84412562916667,80.0,103.0
242,67.848931475,68.08201499791667,71.0,91.0
243,67.848931475,68.08201499791667,71.0,91.0
244,67.848931475,68.08201499791667,71.0,91.0
245,68.13728222499999,68.30788975208333,80.0,115.0
246,68.13728222499999,68.30788975208333,80.0,115.0
247,68.13728222499999,68.30788975208333,80.0,115.0
248,68.425632975,68.53616742916667,78.0,106.0
249,68.425632975,68.53616742916667,78.0,106.0
250,68.425632975,68.53616742916667,78.0,106.0
251,68.713983725,68.92303801875,78.0,109.0
252,68.713983725,68.92303801875,78.0,109.0
253,68.713983725,68.92303801875,78.0,109.0
254,69.002334475,69.11046600625,76.0,109.0
255,69.002334475,69.11046600625,76.0,109.0
256,69.002334475,69.11046600625,76.0,109.0
257,69.290685225,69.52617167083334,76.0,115.0
258,69.290685225,69.52617167083334,76.0,115.0
259,69.290685225,69.52617167083334,76.0,115.0
260,69.579035975,70.328747925,78.0,113.0
261,69.579035975,70.328747925,78.0,113.0
262,69.579035975,70.328747925,78.0,113.0
263,70.155737475,70.37680638333333,71.0,103.0
264,70.155737475,70.37680638333333,71.0,103.0
265,70.155737475,70.37680638333333,71.0,103.0
266,70.444088225,70.60988990625,80.0,117.0
267,70.444088225,70.60988990625,80.0,117.0
268,70.444088225,70.60988990625,80.0,117.0
269,70.732438975,70.84297342916666,78.0,111.0
270,70.732438975,70.84297342916666,78.0,111.0
271,70.732438975,70.84297342916666,78.0,111.0
272,71.020789725,71.2370527875,78.0,113.0
273,71.020789725,71.2370527875,78.0,113.0
274,71.020789725,71.2370527875,78.0,113.0
275,71.309140475,71.46052461875,76.0,100.0
276,71.309140475,71.46052461875,76.0,100.0
277,71.309140475,71.46052461875,76.0,100.0
278,71.597491225,71.85220105416667,78.0,117.0
279,71.597491225,71.85220105416667,78.0,117.0
280,71.597491225,71.85220105416667,78.0,117.0
281,71.885841975,72.46734932083334,76.0,113.0
282,71.885841975,72.46734932083334,76.0,113.0
283,71.885841975,72.46734932083334,76.0,113.0
284,72.462543475,72.46734932083334,76.0,106.0
285,72.462543475,72.46734932083334,76.0,106.0
286,72.462543475,72.46734932083334,76.0,106.0
287,72.750894225,72.95994851875,78.0,113.0
288,72.750894225,72.95994851875,78.0,113.0
289,72.750894225,72.95994851875,78.0,113.0
290,73.039244975,73.29395480416666,76.0,91.0
291,73.039244975,73.29395480416666,76.0,91.0
292,73.039244975,73.29395480416666,76.0,91.0
293,73.327595725,73.54145586458333,78.0,109.0
294,73.327595725,73.54145586458333,78.0,109.0
295,73.327595725,73.54145586458333,78.0,109.0
296,73.615946475,73.846627075,76.0,106.0
297,73.615946475,73.846627075,76.0,106.0
298,73.615946475,73.846627075,76.0,106.0
299,73.904297225,74.13738074791667,78.0,120.0
300,73.904297225,74.13738074791667,78.0,120.0
301,73.904297225,74.13738074791667,78.0,120.0
302,74.192647975,74.68044132708333,80.0,113.0
303,74.192647975,74.68044132708333,80.0,113.0
304,74.192647975,74.68044132708333,80.0,113.0
305,74.769349475,74.8558547,80.0,120.0
306,74.769349475,74.8558547,80.0,120.0
307,74.769349475,74.8558547,80.0,120.0
308,75.057700225,75.27636621041667,80.0,113.0
309,75.057700225,75.27636621041667,80.0,113.0
310,75.057700225,75.27636621041667,80.0,113.0
311,75.346050975,75.41333281666667,78.0,106.0
312,75.346050975,75.41333281666667,78.0,106.0
313,75.346050975,75.41333281666667,78.0,106.0
314,75.634401725,75.865082325,78.0,111.0
315,75.634401725,75.865082325,78.0,111.0
316,75.634401725,75.865082325,78.0,111.0
317,75.922752475,76.07894246458333,76.0,103.0
318,75.922752475,76.07894246458333,76.0,103.0
319,75.922752475,76.07894246458333,76.0,103.0
320,76.211103225,76.43938090208333,78.0,115.0
321,76.211103225,76.43938090208333,78.0,115.0
322,76.211103225,76.43938090208333,78.0,115.0
323,76.499453975,77.1194080875,76.0,109.0
324,76.499453975,77.1194080875,76.0,109.0
325,76.499453975,77.1194080875,76.0,109.0
326,77.076155475,77.1194080875,76.0,115.0
327,77.076155475,77.1194080875,76.0,115.0
328,77.076155475,77.1194080875,76.0,115.0
329,77.364506225,77.54232252083334,76.0,115.0
330,77.364506225,77.54232252083334,76.0,115.0
331,77.364506225,77.54232252083334,76.0,115.0
332,77.652856975,77.7393622,75.0,103.0
333,77.652856975,77.7393622,75.0,103.0
334,77.652856975,77.7393622,75.0,103.0
335,77.941207725,78.21754386041667,75.0,111.0
336,77.941207725,78.21754386041667,75.0,111.0
337,77.941207725,78.21754386041667,75.0,111.0
338,78.229558475,78.44341861458334,71.0,100.0
339,78.229558475,78.44341861458334,71.0,100.0
340,78.229558475,78.44341861458334,71.0,100.0
341,78.517909225,78.73657521041666,78.0,120.0
342,78.517909225,78.73657521041666,78.0,120.0
343,78.517909225,78.73657521041666,78.0,120.0
344,78.806259975,79.29165040416666,80.0,109.0
345,78.806259975,79.29165040416666,80.0,109.0
346,78.806259975,79.29165040416666,80.0,109.0
347,79.382961475,79.46225793125,80.0,115.0
348,79.382961475,79.46225793125,80.0,115.0
349,79.382961475,79.46225793125,80.0,115.0
350,79.671312225,79.8875752875,80.0,115.0
351,79.671312225,79.8875752875,80.0,115.0
352,79.671312225,79.8875752875,80.0,115.0
353,79.959662975,80.0461682,78.0,109.0
354,79.959662975,80.0461682,78.0,109.0
355,79.959662975,80.0461682,78.0,109.0
356,80.24801372499999,80.49791770833333,78.0,100.0
357,80.24801372499999,80.49791770833333,78.0,100.0
358,80.24801372499999,80.49791770833333,78.0,100.0
359,80.536364475,80.64689892916667,76.0,72.0
360,80.536364475,80.64689892916667,76.0,72.0
361,80.536364475,80.64689892916667,76.0,72.0
362,80.536364475,80.64689892916667,76.0,111.0
363,80.536364475,80.64689892916667,76.0,111.0
364,80.536364475,80.64689892916667,76.0,111.0
365,80.824715225,80.97129352291667,78.0,109.0
366,80.824715225,80.97129352291667,78.0,109.0
367,80.824715225,80.97129352291667,78.0,109.0
368,81.113065975,81.18995950833333,76.0,106.0
369,81.113065975,81.18995950833333,76.0,106.0
370,81.113065975,81.18995950833333,76.0,106.0
371,81.401416725,81.60085932708333,76.0,106.0
372,81.401416725,81.60085932708333,76.0,106.0
373,81.401416725,81.60085932708333,76.0,106.0
374,81.689767475,81.91083638333333,73.0,103.0
375,81.689767475,81.91083638333333,73.0,103.0
376,81.689767475,81.91083638333333,73.0,103.0
377,81.978118225,82.1367111375,76.0,115.0
378,81.978118225,82.1367111375,76.0,115.0
379,81.978118225,82.1367111375,76.0,115.0
380,82.266468975,82.3529742,80.0,109.0
381,82.266468975,82.3529742,80.0,109.0
382,82.266468975,82.3529742,80.0,109.0
383,82.554819725,82.73503894375,80.0,106.0
384,82.554819725,82.73503894375,80.0,106.0
385,82.554819725,82.73503894375,80.0,106.0
386,82.843170475,83.02819553958334,76.0,109.0
387,82.843170475,83.02819553958334,76.0,109.0
388,82.843170475,83.02819553958334,76.0,109.0
389,83.131521225,83.96293255416667,78.0,117.0
390,83.131521225,83.96293255416667,78.0,117.0
391,83.131521225,83.96293255416667,78.0,117.0
392,83.996573475,84.17438977083333,71.0,103.0
393,83.996573475,84.17438977083333,71.0,103.0
394,83.996573475,84.17438977083333,71.0,103.0
395,84.284924225,84.46994928958334,81.0,115.0
396,84.284924225,84.46994928958334,81.0,115.0
397,84.284924225,84.46994928958334,81.0,115.0
398,84.573274975,84.67660066041667,80.0,113.0
399,84.573274975,84.67660066041667,80.0,113.0
400,84.573274975,84.67660066041667,80.0,113.0
401,84.861625725,85.07068001875,80.0,113.0
402,84.861625725,85.07068001875,80.0,113.0
403,84.861625725,85.07068001875,80.0,113.0
404,85.149976475,85.265316775,78.0,115.0
405,85.149976475,85.265316775,78.0,115.0
406,85.149976475,85.265316775,78.0,115.0
407,85.438327225,85.6257552125,78.0,117.0
408,85.438327225,85.6257552125,78.0,117.0
409,85.438327225,85.6257552125,78.0,117.0
410,85.726677975,86.18323332916667,80.0,115.0
411,85.726677975,86.18323332916667,80.0,115.0
412,85.726677975,86.18323332916667,80.0,115.0
413,86.303379475,86.52204546041666,71.0,109.0
414,86.303379475,86.52204546041666,71.0,109.0
415,86.303379475,86.52204546041666,71.0,109.0
416,86.591730225,86.79357575,80.0,120.0
417,86.591730225,86.79357575,80.0,120.0
418,86.591730225,86.79357575,80.0,120.0
419,86.880080975,86.99301835208334,78.0,98.0
420,86.880080975,86.99301835208334,78.0,98.0
421,86.880080975,86.99301835208334,78.0,98.0
422,87.168431725,87.38709771041667,78.0,111.0
423,87.168431725,87.38709771041667,78.0,111.0
424,87.168431725,87.38709771041667,78.0,111.0
425,87.456782475,87.55049646875,76.0,113.0
426,87.456782475,87.55049646875,76.0,113.0
427,87.456782475,87.55049646875,76.0,113.0
428,87.745133225,88.00705182291667,76.0,115.0
429,87.745133225,88.00705182291667,76.0,115.0
430,87.745133225,88.00705182291667,76.0,115.0
431,88.033483975,88.54770947916667,78.0,115.0
432,88.033483975,88.54770947916667,78.0,115.0
433,88.033483975,88.54770947916667,78.0,115.0
434,88.610185475,88.812031,71.0,106.0
435,88.610185475,88.812031,71.0,106.0
436,88.610185475,88.812031,71.0,106.0
437,88.898536225,89.07394959791667,80.0,115.0
438,88.898536225,89.07394959791667,80.0,115.0
439,88.898536225,89.07394959791667,80.0,115.0
440,89.186886975,89.26858635416667,78.0,111.0
441,89.186886975,89.26858635416667,78.0,111.0
442,89.186886975,89.26858635416667,78.0,111.0
443,89.475237725,89.67468032708334,78.0,113.0
444,89.475237725,89.67468032708334,78.0,113.0
445,89.475237725,89.67468032708334,78.0,113.0
446,89.763588475,89.85489954583333,76.0,106.0
447,89.763588475,89.85489954583333,76.0,106.0
448,89.763588475,89.85489954583333,76.0,106.0
449,90.051939225,90.31626074583333,78.0,120.0
450,90.051939225,90.31626074583333,78.0,120.0
451,90.051939225,90.31626074583333,78.0,120.0
452,90.340289975,90.78483071458334,76.0,113.0
453,90.340289975,90.78483071458334,76.0,113.0
454,90.340289975,90.78483071458334,76.0,113.0
455,90.916991475,91.12364284583333,76.0,111.0
456,90.916991475,91.12364284583333,76.0,111.0
457,90.916991475,91.12364284583333,76.0,111.0
458,91.205342225,91.38075559791666,78.0,115.0
459,91.205342225,91.38075559791666,78.0,115.0
460,91.205342225,91.38075559791666,78.0,115.0
461,91.493692975,91.60663035208333,76.0,111.0
462,91.493692975,91.60663035208333,76.0,111.0
463,91.493692975,91.60663035208333,76.0,111.0
464,91.782043725,91.92141325416667,78.0,111.0
465,91.782043725,91.92141325416667,78.0,111.0
466,91.782043725,91.92141325416667,78.0,111.0
467,92.070394475,92.19774938958334,76.0,111.0
468,92.070394475,92.19774938958334,76.0,111.0
469,92.070394475,92.19774938958334,76.0,111.0
470,92.35874522499999,92.589425825,78.0,117.0
471,92.35874522499999,92.589425825,78.0,117.0
472,92.35874522499999,92.589425825,78.0,117.0
473,92.647095975,93.13008348125,80.0,111.0
474,92.647095975,93.13008348125,80.0,111.0
475,92.647095975,93.13008348125,80.0,111.0
476,93.223797475,93.30789977708334,80.0,115.0
477,93.223797475,93.30789977708334,80.0,115.0
478,93.223797475,93.30789977708334,80.0,115.0
479,93.512148225,93.73802297916667,80.0,113.0
480,93.512148225,93.73802297916667,80.0,113.0
481,93.512148225,93.73802297916667,80.0,113.0
482,93.800498975,93.87979543125,78.0,109.0
483,93.800498975,93.87979543125,78.0,109.0
484,93.800498975,93.87979543125,78.0,109.0
485,94.088849725,94.32914201666667,78.0,109.0
486,94.088849725,94.32914201666667,78.0,109.0
487,94.088849725,94.32914201666667,78.0,109.0
488,94.377200475,94.48773492916666,76.0,111.0
489,94.377200475,94.48773492916666,76.0,111.0
490,94.377200475,94.48773492916666,76.0,111.0
491,94.665551225,94.90584351666666,78.0,117.0
492,94.665551225,94.90584351666666,78.0,117.0
493,94.665551225,94.90584351666666,78.0,117.0
494,94.953901975,95.43208363541666,76.0,113.0
495,94.953901975,95.43208363541666,76.0,113.0
496,94.953901975,95.43208363541666,76.0,113.0
497,95.530603475,95.65074962083334,76.0,117.0
498,95.530603475,95.65074962083334,76.0,117.0
499,95.530603475,95.65074962083334,76.0,117.0
500,95.818954225,96.02560559583333,76.0,117.0
501,95.818954225,96.02560559583333,76.0,117.0
502,95.818954225,96.02560559583333,76.0,117.0
503,96.107304975,96.18660143125,75.0,106.0
504,96.107304975,96.18660143125,75.0,106.0
505,96.107304975,96.18660143125,75.0,106.0
506,96.395655725,96.65036555416667,75.0,109.0
507,96.395655725,96.65036555416667,75.0,109.0
508,96.395655725,96.65036555416667,75.0,109.0
509,96.684006475,96.89306076875,71.0,100.0
510,96.684006475,96.89306076875,71.0,100.0
511,96.684006475,96.89306076875,71.0,100.0
512,96.972357225,97.21985828541666,78.0,117.0
513,96.972357225,97.21985828541666,78.0,117.0
514,96.972357225,97.21985828541666,78.0,117.0
515,97.260707975,97.83020070625,80.0,111.0
516,97.260707975,97.83020070625,80.0,111.0
517,97.260707975,97.83020070625,80.0,111.0
518,97.837409475,97.91910885416667,80.0,117.0
519,97.837409475,97.91910885416667,80.0,117.0
520,97.837409475,97.91910885416667,80.0,117.0
521,98.125760225,98.30597944375,80.0,115.0
522,98.125760225,98.30597944375,80.0,115.0
523,98.125760225,98.30597944375,80.0,115.0
524,98.414110975,98.49581035416666,78.0,100.0
525,98.414110975,98.49581035416666,78.0,100.0
526,98.414110975,98.49581035416666,78.0,100.0
527,98.702461725,98.87787509791667,78.0,106.0
528,98.702461725,98.87787509791667,78.0,106.0
529,98.702461725,98.87787509791667,78.0,106.0
530,98.990812475,99.11095862083333,76.0,106.0
531,98.990812475,99.11095862083333,76.0,106.0
532,98.990812475,99.11095862083333,76.0,106.0
533,99.279163225,99.56270812916667,78.0,113.0
534,99.279163225,99.56270812916667,78.0,113.0
535,99.279163225,99.56270812916667,78.0,113.0
536,99.567513975,99.82462672708333,76.0,106.0
537,99.567513975,99.82462672708333,76.0,106.0
538,99.567513975,99.82462672708333,76.0,106.0
539,100.144215475,100.57193575416666,76.0,113.0
540,100.144215475,100.57193575416666,76.0,113.0
541,100.144215475,100.57193575416666,76.0,113.0
542,100.432566225,101.16065186875,73.0,115.0
543,100.432566225,101.16065186875,73.0,115.0
544,100.432566225,101.16065186875,73.0,115.0
545,101.297618475,101.45380846458333,71.0,98.0
546,101.297618475,101.45380846458333,71.0,98.0
547,101.297618475,101.45380846458333,71.0,98.0
548,101.585969225,102.04973334791667,80.0,113.0
549,101.585969225,102.04973334791667,80.0,113.0
550,101.585969225,102.04973334791667,80.0,113.0
551,102.162670725,102.39815717083333,78.0,115.0
552,102.162670725,102.39815717083333,78.0,115.0
553,102.162670725,102.39815717083333,78.0,115.0
554,102.451021475,103.34971464583333,76.0,117.0
555,102.451021475,103.34971464583333,76.0,117.0
556,102.451021475,103.34971464583333,76.0,117.0
557,103.316073725,103.53473971041667,75.0,111.0
558,103.316073725,103.53473971041667,75.0,111.0
559,103.316073725,103.53473971041667,75.0,111.0
560,103.604424475,105.5507920375,76.0,115.0
561,103.604424475,105.5507920375,76.0,115.0
562,103.604424475,105.5507920375,76.0,115.0
563,126.960835225,127.81387286041667,71.0,106.0
564,126.960835225,127.81387286041667,71.0,106.0
565,126.960835225,127.81387286041667,71.0,106.0
566,127.825887475,129.27484999375,68.0,106.0
567,127.825887475,129.27484999375,68.0,106.0
568,127.825887475,129.27484999375,68.0,106.0
569,129.555991975,129.62567673958333,68.0,85.0
570,129.555991975,129.62567673958333,68.0,85.0
571,129.555991975,129.62567673958333,68.0,85.0
572,129.844342725,130.00053271458333,68.0,98.0
573,129.844342725,130.00053271458333,68.0,98.0
574,129.844342725,130.00053271458333,68.0,98.0
575,130.132693475,130.32252438541667,66.0,76.0
576,130.132693475,130.32252438541667,66.0,76.0
577,130.132693475,130.32252438541667,66.0,76.0
578,130.421044225,130.97611941875,68.0,106.0
579,130.421044225,130.97611941875,68.0,106.0
580,130.421044225,130.97611941875,68.0,106.0
581,130.997745725,131.42066015833333,71.0,98.0
582,130.997745725,131.42066015833333,71.0,98.0
583,130.997745725,131.42066015833333,71.0,98.0
584,131.574447225,132.40105270833334,71.0,109.0
585,131.574447225,132.40105270833334,71.0,109.0
586,131.574447225,132.40105270833334,71.0,109.0
587,132.439499475,133.93171460625,68.0,111.0
588,132.439499475,133.93171460625,68.0,111.0
589,132.439499475,133.93171460625,68.0,111.0
590,134.169603975,134.26091504583334,68.0,109.0
591,134.169603975,134.26091504583334,68.0,109.0
592,134.169603975,134.26091504583334,68.0,109.0
593,134.457954725,134.60933886875,68.0,100.0
594,134.457954725,134.60933886875,68.0,100.0
595,134.457954725,134.60933886875,68.0,100.0
596,134.74630547499999,134.91451007916666,66.0,82.0
597,134.74630547499999,134.91451007916666,66.0,82.0
598,134.74630547499999,134.91451007916666,66.0,82.0
599,135.034656225,135.57291095833332,68.0,109.0
600,135.034656225,135.57291095833332,68.0,109.0
601,135.034656225,135.57291095833332,68.0,109.0
602,135.611357725,136.1159715375,64.0,98.0
603,135.611357725,136.1159715375,64.0,98.0
604,135.611357725,136.1159715375,64.0,98.0
605,136.188059225,137.04830562916666,73.0,113.0
606,136.188059225,137.04830562916666,73.0,113.0
607,136.188059225,137.04830562916666,73.0,113.0
608,137.053111475,138.46362722708332,69.0,109.0
609,137.053111475,138.46362722708332,69.0,109.0
610,137.053111475,138.46362722708332,69.0,109.0
611,138.783215975,139.02591118958333,69.0,103.0
612,138.783215975,139.02591118958333,69.0,103.0
613,138.783215975,139.02591118958333,69.0,103.0
614,139.071566725,139.19411579375,68.0,79.0
615,139.071566725,139.19411579375,68.0,79.0
616,139.071566725,139.19411579375,68.0,79.0
617,139.359917475,139.43921393125,69.0,106.0
618,139.359917475,139.43921393125,69.0,106.0
619,139.359917475,139.43921393125,69.0,106.0
620,139.648268225,140.01831835416667,69.0,113.0
621,139.648268225,140.01831835416667,69.0,113.0
622,139.648268225,140.01831835416667,69.0,113.0
623,139.936618975,140.31147495,68.0,85.0
624,139.936618975,140.31147495,68.0,85.0
625,139.936618975,140.31147495,68.0,85.0
626,140.513320475,140.80887999375,66.0,77.0
627,140.513320475,140.80887999375,66.0,77.0
628,140.513320475,140.80887999375,66.0,77.0
629,140.801671225,140.80887999375,66.0,58.0
630,140.801671225,140.80887999375,66.0,58.0
631,140.801671225,140.80887999375,66.0,58.0
632,140.801671225,142.35155650625,64.0,95.0
633,140.801671225,142.35155650625,64.0,95.0
634,140.801671225,142.35155650625,64.0,95.0
635,144.261880225,144.7520765,76.0,115.0
636,144.261880225,144.7520765,76.0,115.0
637,144.261880225,144.7520765,76.0,115.0
638,144.838581725,145.30715169375,75.0,109.0
639,144.838581725,145.30715169375,75.0,109.0
640,144.838581725,145.30715169375,75.0,109.0
641,145.415283225,146.16018932916666,76.0,111.0
642,145.415283225,146.16018932916666,76.0,111.0
643,145.415283225,146.16018932916666,76.0,111.0
644,146.280335475,146.37645239166667,76.0,109.0
645,146.280335475,146.37645239166667,76.0,109.0
646,146.280335475,146.37645239166667,76.0,109.0
647,146.568686225,146.67681775625,76.0,115.0
648,146.568686225,146.67681775625,76.0,115.0
649,146.568686225,146.67681775625,76.0,115.0
650,146.857036975,146.94113927708332,76.0,106.0
651,146.857036975,146.94113927708332,76.0,106.0
652,146.857036975,146.94113927708332,76.0,106.0
653,147.145387725,147.33521863541668,76.0,109.0
654,147.145387725,147.33521863541668,76.0,109.0
655,147.145387725,147.33521863541668,76.0,109.0
656,147.433738475,147.59473431041667,78.0,113.0
657,147.433738475,147.59473431041667,78.0,113.0
658,147.433738475,147.59473431041667,78.0,113.0
659,147.722089225,148.55590347708332,78.0,115.0
660,147.722089225,148.55590347708332,78.0,115.0
661,147.722089225,148.55590347708332,78.0,115.0
662,148.875492225,149.2936008125,75.0,113.0
663,148.875492225,149.2936008125,75.0,113.0
664,148.875492225,149.2936008125,75.0,113.0
665,149.452193725,149.89673446458335,73.0,109.0
666,149.452193725,149.89673446458335,73.0,109.0
667,149.452193725,149.89673446458335,73.0,109.0
668,150.028895225,150.74256333125,75.0,117.0
669,150.028895225,150.74256333125,75.0,117.0
670,150.028895225,150.74256333125,75.0,117.0
671,150.893947475,150.97084100833334,75.0,100.0
672,150.893947475,150.97084100833334,75.0,100.0
673,150.893947475,150.97084100833334,75.0,100.0
674,151.182298225,151.39615836458333,75.0,120.0
675,151.182298225,151.39615836458333,75.0,120.0
676,151.182298225,151.39615836458333,75.0,120.0
677,151.470648975,151.69171788333333,71.0,85.0
678,151.470648975,151.69171788333333,71.0,85.0
679,151.470648975,151.69171788333333,71.0,85.0
680,151.758999725,151.91518971458333,75.0,109.0
681,151.758999725,151.91518971458333,75.0,109.0
682,151.758999725,151.91518971458333,75.0,109.0
683,152.047350475,152.21074923333333,76.0,109.0
684,152.047350475,152.21074923333333,76.0,109.0
685,152.047350475,152.21074923333333,76.0,109.0
686,153.200753475,153.34012300416666,71.0,95.0
687,153.200753475,153.34012300416666,71.0,95.0
688,153.200753475,153.34012300416666,71.0,95.0
689,152.335701225,153.47228376458332,76.0,117.0
690,152.335701225,153.47228376458332,76.0,117.0
691,152.335701225,153.47228376458332,76.0,117.0
692,153.489104225,153.74381405416668,80.0,111.0
693,153.489104225,153.74381405416668,80.0,111.0
694,153.489104225,153.74381405416668,80.0,111.0
695,153.777454975,154.1955635625,78.0,111.0
696,153.777454975,154.1955635625,78.0,111.0
697,153.777454975,154.1955635625,78.0,111.0
698,154.354156475,154.61126922708334,76.0,100.0
699,154.354156475,154.61126922708334,76.0,100.0
700,154.354156475,154.61126922708334,76.0,100.0
701,154.642507225,154.97891643333332,78.0,113.0
702,154.642507225,154.97891643333332,78.0,113.0
703,154.642507225,154.97891643333332,78.0,113.0
704,154.930857975,155.48112732291668,73.0,98.0
705,154.930857975,155.48112732291668,73.0,98.0
706,154.930857975,155.48112732291668,73.0,98.0
707,155.507559475,155.75025468958333,71.0,106.0
708,155.507559475,155.75025468958333,71.0,106.0
709,155.507559475,155.75025468958333,71.0,106.0
710,155.795910225,156.03860543958334,80.0,106.0
711,155.795910225,156.03860543958334,80.0,106.0
712,155.795910225,156.03860543958334,80.0,106.0
713,156.084260975,156.57205432708332,78.0,115.0
714,156.084260975,156.57205432708332,78.0,115.0
715,156.084260975,156.57205432708332,78.0,115.0
716,156.660962475,156.776302775,76.0,103.0
717,156.660962475,156.776302775,76.0,103.0
718,156.660962475,156.776302775,76.0,103.0
719,156.949313225,157.24487274375,76.0,111.0
720,156.949313225,157.24487274375,76.0,111.0
721,156.949313225,157.24487274375,76.0,111.0
722,157.237663975,158.18922145,73.0,113.0
723,157.237663975,158.18922145,73.0,113.0
724,157.237663975,158.18922145,73.0,113.0
725,158.679417725,159.16721107708332,78.0,117.0
726,158.679417725,159.16721107708332,78.0,117.0
727,158.679417725,159.16721107708332,78.0,117.0
728,159.256119225,161.81763505416666,78.0,113.0
729,159.256119225,161.81763505416666,78.0,113.0
730,159.256119225,161.81763505416666,78.0,113.0
731,162.427977475,162.60819669375,71.0,106.0
732,162.427977475,162.60819669375,71.0,106.0
733,162.427977475,162.60819669375,71.0,106.0
734,162.716328225,162.9325912875,81.0,106.0
735,162.716328225,162.9325912875,81.0,106.0
736,162.716328225,162.9325912875,81.0,106.0
737,163.004678975,163.14404850416668,80.0,85.0
738,163.004678975,163.14404850416668,80.0,85.0
739,163.004678975,163.14404850416668,80.0,85.0
740,163.293029725,163.55494832291666,80.0,79.0
741,163.293029725,163.55494832291666,80.0,79.0
742,163.293029725,163.55494832291666,80.0,79.0
743,163.581380475,163.69191492916667,78.0,71.0
744,163.581380475,163.69191492916667,78.0,71.0
745,163.581380475,163.69191492916667,78.0,71.0
746,163.869731225,164.18931997291668,78.0,106.0
747,163.869731225,164.18931997291668,78.0,106.0
748,163.869731225,164.18931997291668,78.0,106.0
749,164.158081975,164.72997762916665,80.0,103.0
750,164.158081975,164.72997762916665,80.0,103.0
751,164.158081975,164.72997762916665,80.0,103.0
752,164.734783475,164.96786699791667,71.0,91.0
753,164.734783475,164.96786699791667,71.0,91.0
754,164.734783475,164.96786699791667,71.0,91.0
755,165.023134225,165.19374175208333,80.0,115.0
756,165.023134225,165.19374175208333,80.0,115.0
757,165.023134225,165.19374175208333,80.0,115.0
758,165.311484975,165.42201942916665,78.0,106.0
759,165.311484975,165.42201942916665,78.0,106.0
760,165.311484975,165.42201942916665,78.0,106.0
761,165.599835725,165.80889001875,78.0,109.0
762,165.599835725,165.80889001875,78.0,109.0
763,165.599835725,165.80889001875,78.0,109.0
764,165.888186475,165.99631800625,76.0,109.0
765,165.888186475,165.99631800625,76.0,109.0
766,165.888186475,165.99631800625,76.0,109.0
767,166.176537225,166.41202367083332,76.0,115.0
768,166.176537225,166.41202367083332,76.0,115.0
769,166.176537225,166.41202367083332,76.0,115.0
770,166.464887975,167.214599925,78.0,113.0
771,166.464887975,167.214599925,78.0,113.0
772,166.464887975,167.214599925,78.0,113.0
773,167.041589475,167.26265838333333,71.0,103.0
774,167.041589475,167.26265838333333,71.0,103.0
775,167.041589475,167.26265838333333,71.0,103.0
776,167.329940225,167.49574190625,80.0,117.0
777,167.329940225,167.49574190625,80.0,117.0
778,167.329940225,167.49574190625,80.0,117.0
779,167.618290975,167.72882542916668,78.0,111.0
780,167.618290975,167.72882542916668,78.0,111.0
781,167.618290975,167.72882542916668,78.0,111.0
782,167.906641725,168.1229047875,78.0,113.0
783,167.906641725,168.1229047875,78.0,113.0
784,167.906641725,168.1229047875,78.0,113.0
785,168.194992475,168.34637661874999,76.0,100.0
786,168.194992475,168.34637661874999,76.0,100.0
787,168.194992475,168.34637661874999,76.0,100.0
788,168.483343225,168.73805305416667,78.0,117.0
789,168.483343225,168.73805305416667,78.0,117.0
790,168.483343225,168.73805305416667,78.0,117.0
791,168.771693975,169.35320132083334,76.0,113.0
792,168.771693975,169.35320132083334,76.0,113.0
793,168.771693975,169.35320132083334,76.0,113.0
794,169.348395475,169.35320132083334,76.0,106.0
795,169.348395475,169.35320132083334,76.0,106.0
796,169.348395475,169.35320132083334,76.0,106.0
797,169.636746225,169.84580051875,78.0,113.0
798,169.636746225,169.84580051875,78.0,113.0
799,169.636746225,169.84580051875,78.0,113.0
800,169.925096975,170.17980680416667,76.0,91.0
801,169.925096975,170.17980680416667,76.0,91.0
802,169.925096975,170.17980680416667,76.0,91.0
803,170.213447725,170.42730786458333,78.0,109.0
804,170.213447725,170.42730786458333,78.0,109.0
805,170.213447725,170.42730786458333,78.0,109.0
806,170.501798475,170.732479075,76.0,106.0
807,170.501798475,170.732479075,76.0,106.0
808,170.501798475,170.732479075,76.0,106.0
809,170.790149225,171.02323274791667,78.0,120.0
810,170.790149225,171.02323274791667,78.0,120.0
811,170.790149225,171.02323274791667,78.0,120.0
812,171.078499975,171.56629332708334,80.0,113.0
813,171.078499975,171.56629332708334,80.0,113.0
814,171.078499975,171.56629332708334,80.0,113.0
815,171.655201475,171.7417067,80.0,120.0
816,171.655201475,171.7417067,80.0,120.0
817,171.655201475,171.7417067,80.0,120.0
818,171.943552225,172.16221821041665,80.0,113.0
819,171.943552225,172.16221821041665,80.0,113.0
820,171.943552225,172.16221821041665,80.0,113.0
821,172.231902975,172.29918481666667,78.0,106.0
822,172.231902975,172.29918481666667,78.0,106.0
823,172.231902975,172.29918481666667,78.0,106.0
824,172.520253725,172.750934325,78.0,111.0
825,172.520253725,172.750934325,78.0,111.0
826,172.520253725,172.750934325,78.0,111.0
827,172.808604475,172.96479446458332,76.0,103.0
828,172.808604475,172.96479446458332,76.0,103.0
829,172.808604475,172.96479446458332,76.0,103.0
830,173.096955225,173.32523290208334,78.0,115.0
831,173.096955225,173.32523290208334,78.0,115.0
832,173.096955225,173.32523290208334,78.0,115.0
833,173.385305975,174.0052600875,76.0,109.0
834,173.385305975,174.0052600875,76.0,109.0
835,173.385305975,174.0052600875,76.0,109.0
836,173.962007475,174.0052600875,76.0,115.0
837,173.962007475,174.0052600875,76.0,115.0
838,173.962007475,174.0052600875,76.0,115.0
839,174.250358225,174.42817452083332,76.0,115.0
840,174.250358225,174.42817452083332,76.0,115.0
841,174.250358225,174.42817452083332,76.0,115.0
842,174.538708975,174.6252142,75.0,103.0
843,174.538708975,174.6252142,75.0,103.0
844,174.538708975,174.6252142,75.0,103.0
845,174.827059725,175.10339586041667,75.0,111.0
846,174.827059725,175.10339586041667,75.0,111.0
847,174.827059725,175.10339586041667,75.0,111.0
848,175.115410475,175.32927061458332,71.0,100.0
849,175.115410475,175.32927061458332,71.0,100.0
850,175.115410475,175.32927061458332,71.0,100.0
851,175.403761225,175.62242721041667,78.0,120.0
852,175.403761225,175.62242721041667,78.0,120.0
853,175.403761225,175.62242721041667,78.0,120.0
854,175.692111975,176.17750240416666,80.0,109.0
855,175.692111975,176.17750240416666,80.0,109.0
856,175.692111975,176.17750240416666,80.0,109.0
857,176.268813475,176.34810993125,80.0,115.0
858,176.268813475,176.34810993125,80.0,115.0
859,176.268813475,176.34810993125,80.0,115.0
860,176.557164225,176.7734272875,80.0,115.0
861,176.557164225,176.7734272875,80.0,115.0
862,176.557164225,176.7734272875,80.0,115.0
863,176.845514975,176.9320202,78.0,109.0
864,176.845514975,176.9320202,78.0,109.0
865,176.845514975,176.9320202,78.0,109.0
866,177.133865725,177.38376970833335,78.0,100.0
867,177.133865725,177.38376970833335,78.0,100.0
868,177.133865725,177.38376970833335,78.0,100.0
869,177.422216475,177.53275092916667,76.0,72.0
870,177.422216475,177.53275092916667,76.0,72.0
871,177.422216475,177.53275092916667,76.0,72.0
872,177.422216475,177.53275092916667,76.0,111.0
873,177.422216475,177.53275092916667,76.0,111.0
874,177.422216475,177.53275092916667,76.0,111.0
875,177.710567225,177.85714552291665,78.0,109.0
876,177.710567225,177.85714552291665,78.0,109.0
877,177.710567225,177.85714552291665,78.0,109.0
878,177.998917975,178.07581150833335,76.0,106.0
879,177.998917975,178.07581150833335,76.0,106.0
880,177.998917975,178.07581150833335,76.0,106.0
881,178.287268725,178.48671132708333,76.0,106.0
882,178.287268725,178.48671132708333,76.0,106.0
883,178.287268725,178.48671132708333,76.0,106.0
884,178.575619475,178.79668838333333,73.0,103.0
885,178.575619475,178.79668838333333,73.0,103.0
886,178.575619475,178.79668838333333,73.0,103.0
887,178.863970225,179.0225631375,76.0,115.0
888,178.863970225,179.0225631375,76.0,115.0
889,178.863970225,179.0225631375,76.0,115.0
890,179.152320975,179.2388262,80.0,109.0
891,179.152320975,179.2388262,80.0,109.0
892,179.152320975,179.2388262,80.0,109.0
893,179.440671725,179.62089094375,80.0,106.0
894,179.440671725,179.62089094375,80.0,106.0
895,179.440671725,179.62089094375,80.0,106.0
896,179.729022475,179.91404753958332,76.0,109.0
897,179.729022475,179.91404753958332,76.0,109.0
898,179.729022475,179.91404753958332,76.0,109.0
899,180.017373225,180.84878455416666,78.0,117.0
900,180.017373225,180.84878455416666,78.0,117.0
901,180.017373225,180.84878455416666,78.0,117.0
902,180.882425475,181.06024177083333,71.0,103.0
903,180.882425475,181.06024177083333,71.0,103.0
904,180.882425475,181.06024177083333,71.0,103.0
905,181.170776225,181.35580128958333,81.0,115.0
906,181.170776225,181.35580128958333,81.0,115.0
907,181.170776225,181.35580128958333,81.0,115.0
908,181.459126975,181.56245266041665,80.0,113.0
909,181.459126975,181.56245266041665,80.0,113.0
910,181.459126975,181.56245266041665,80.0,113.0
911,181.747477725,181.95653201875,80.0,113.0
912,181.747477725,181.95653201875,80.0,113.0
913,181.747477725,181.95653201875,80.0,113.0
914,182.035828475,182.151168775,78.0,115.0
915,182.035828475,182.151168775,78.0,115.0
916,182.035828475,182.151168775,78.0,115.0
917,182.324179225,182.5116072125,78.0,117.0
918,182.324179225,182.5116072125,78.0,117.0
919,182.324179225,182.5116072125,78.0,117.0
920,182.612529975,183.06908532916665,80.0,115.0
921,182.612529975,183.06908532916665,80.0,115.0
922,182.612529975,183.06908532916665,80.0,115.0
923,183.18923147499999,183.40789746041668,71.0,109.0
924,183.18923147499999,183.40789746041668,71.0,109.0
925,183.18923147499999,183.40789746041668,71.0,109.0
926,183.477582225,183.67942775,80.0,120.0
927,183.477582225,183.67942775,80.0,120.0
928,183.477582225,183.67942775,80.0,120.0
929,183.765932975,183.87887035208334,78.0,98.0
930,183.765932975,183.87887035208334,78.0,98.0
931,183.765932975,183.87887035208334,78.0,98.0
932,184.054283725,184.27294971041667,78.0,111.0
933,184.054283725,184.27294971041667,78.0,111.0
934,184.054283725,184.27294971041667,78.0,111.0
935,184.342634475,184.43634846875,76.0,113.0
936,184.342634475,184.43634846875,76.0,113.0
937,184.342634475,184.43634846875,76.0,113.0
938,184.630985225,184.89290382291668,76.0,115.0
939,184.630985225,184.89290382291668,76.0,115.0
940,184.630985225,184.89290382291668,76.0,115.0
941,184.919335975,185.43356147916666,78.0,115.0
942,184.919335975,185.43356147916666,78.0,115.0
943,184.919335975,185.43356147916666,78.0,115.0
944,185.496037475,185.697883,71.0,106.0
945,185.496037475,185.697883,71.0,106.0
946,185.496037475,185.697883,71.0,106.0
947,185.784388225,185.95980159791668,80.0,115.0
948,185.784388225,185.95980159791668,80.0,115.0
949,185.784388225,185.95980159791668,80.0,115.0
950,186.072738975,186.15443835416667,78.0,111.0
951,186.072738975,186.15443835416667,78.0,111.0
952,186.072738975,186.15443835416667,78.0,111.0
953,186.361089725,186.56053232708334,78.0,113.0
954,186.361089725,186.56053232708334,78.0,113.0
955,186.361089725,186.56053232708334,78.0,113.0
956,186.649440475,186.74075154583332,76.0,106.0
957,186.649440475,186.74075154583332,76.0,106.0
958,186.649440475,186.74075154583332,76.0,106.0
959,186.937791225,187.20211274583335,78.0,120.0
960,186.937791225,187.20211274583335,78.0,120.0
961,186.937791225,187.20211274583335,78.0,120.0
962,187.226141975,187.67068271458334,76.0,113.0
963,187.226141975,187.67068271458334,76.0,113.0
964,187.226141975,187.67068271458334,76.0,113.0
965,187.802843475,188.00949484583333,76.0,111.0
966,187.802843475,188.00949484583333,76.0,111.0
967,187.802843475,188.00949484583333,76.0,111.0
968,188.091194225,188.26660759791667,78.0,115.0
969,188.091194225,188.26660759791667,78.0,115.0
970,188.091194225,188.26660759791667,78.0,115.0
971,188.379544975,188.49248235208333,76.0,111.0
972,188.379544975,188.49248235208333,76.0,111.0
973,188.379544975,188.49248235208333,76.0,111.0
974,188.667895725,188.80726525416668,78.0,111.0
975,188.667895725,188.80726525416668,78.0,111.0
976,188.667895725,188.80726525416668,78.0,111.0
977,188.956246475,189.08360138958332,76.0,111.0
978,188.956246475,189.08360138958332,76.0,111.0
979,188.956246475,189.08360138958332,76.0,111.0
980,189.244597225,189.475277825,78.0,117.0
981,189.244597225,189.475277825,78.0,117.0
982,189.244597225,189.475277825,78.0,117.0
983,189.532947975,190.01593548125,80.0,111.0
984,189.532947975,190.01593548125,80.0,111.0
985,189.532947975,190.01593548125,80.0,111.0
986,190.109649475,190.19375177708332,80.0,115.0
987,190.109649475,190.19375177708332,80.0,115.0
988,190.109649475,190.19375177708332,80.0,115.0
989,190.398000225,190.62387497916666,80.0,113.0
990,190.398000225,190.62387497916666,80.0,113.0
991,190.398000225,190.62387497916666,80.0,113.0
992,190.686350975,190.76564743125,78.0,109.0
993,190.686350975,190.76564743125,78.0,109.0
994,190.686350975,190.76564743125,78.0,109.0
995,190.974701725,191.21499401666668,78.0,109.0
996,190.974701725,191.21499401666668,78.0,109.0
997,190.974701725,191.21499401666668,78.0,109.0
998,191.263052475,191.37358692916666,76.0,111.0
999,191.263052475,191.37358692916666,76.0,111.0
1000,191.263052475,191.37358692916666,76.0,111.0
1001,191.551403225,191.79169551666666,78.0,117.0
1002,191.551403225,191.79169551666666,78.0,117.0
1003,191.551403225,191.79169551666666,78.0,117.0
1004,191.839753975,192.31793563541666,76.0,113.0
1005,191.839753975,192.31793563541666,76.0,113.0
1006,191.839753975,192.31793563541666,76.0,113.0
1007,192.416455475,192.53660162083332,76.0,117.0
1008,192.416455475,192.53660162083332,76.0,117.0
1009,192.416455475,192.53660162083332,76.0,117.0
1010,192.704806225,192.91145759583333,76.0,117.0
1011,192.704806225,192.91145759583333,76.0,117.0
1012,192.704806225,192.91145759583333,76.0,117.0
1013,192.993156975,193.07245343125,75.0,106.0
1014,192.993156975,193.07245343125,75.0,106.0
1015,192.993156975,193.07245343125,75.0,106.0
1016,193.281507725,193.53621755416665,75.0,109.0
1017,193.281507725,193.53621755416665,75.0,109.0
1018,193.281507725,193.53621755416665,75.0,109.0
1019,193.569858475,193.77891276875,71.0,100.0
1020,193.569858475,193.77891276875,71.0,100.0
1021,193.569858475,193.77891276875,71.0,100.0
1022,193.858209225,194.10571028541668,78.0,117.0
1023,193.858209225,194.10571028541668,78.0,117.0
1024,193.858209225,194.10571028541668,78.0,117.0
1025,194.146559975,194.71605270625,80.0,111.0
1026,194.146559975,194.71605270625,80.0,111.0
1027,194.146559975,194.71605270625,80.0,111.0
1028,194.723261475,194.80496085416667,80.0,117.0
1029,194.723261475,194.80496085416667,80.0,117.0
1030,194.723261475,194.80496085416667,80.0,117.0
1031,195.011612225,195.19183144375,80.0,115.0
1032,195.011612225,195.19183144375,80.0,115.0
1033,195.011612225,195.19183144375,80.0,115.0
1034,195.299962975,195.38166235416668,78.0,100.0
1035,195.299962975,195.38166235416668,78.0,100.0
1036,195.299962975,195.38166235416668,78.0,100.0
1037,195.588313725,195.76372709791667,78.0,106.0
1038,195.588313725,195.76372709791667,78.0,106.0
1039,195.588313725,195.76372709791667,78.0,106.0
1040,195.876664475,195.99681062083334,76.0,106.0
1041,195.876664475,195.99681062083334,76.0,106.0
1042,195.876664475,195.99681062083334,76.0,106.0
1043,196.165015225,196.44856012916668,78.0,113.0
1044,196.165015225,196.44856012916668,78.0,113.0
1045,196.165015225,196.44856012916668,78.0,113.0
1046,196.453365975,196.71047872708334,76.0,106.0
1047,196.453365975,196.71047872708334,76.0,106.0
1048,196.453365975,196.71047872708334,76.0,106.0
1049,197.030067475,197.45778775416667,76.0,113.0
1050,197.030067475,197.45778775416667,76.0,113.0
1051,197.030067475,197.45778775416667,76.0,113.0
1052,197.318418225,198.04650386875,73.0,115.0
1053,197.318418225,198.04650386875,73.0,115.0
1054,197.318418225,198.04650386875,73.0,115.0
1055,198.183470475,198.33966046458335,71.0,98.0
1056,198.183470475,198.33966046458335,71.0,98.0
1057,198.183470475,198.33966046458335,71.0,98.0
1058,198.471821225,198.93558534791666,80.0,113.0
1059,198.471821225,198.93558534791666,80.0,113.0
1060,198.471821225,198.93558534791666,80.0,113.0
1061,199.048522725,199.28400917083334,78.0,115.0
1062,199.048522725,199.28400917083334,78.0,115.0
1063,199.048522725,199.28400917083334,78.0,115.0
1064,199.336873475,200.23556664583333,76.0,117.0
1065,199.336873475,200.23556664583333,76.0,117.0
1066,199.336873475,200.23556664583333,76.0,117.0
1067,200.201925725,200.42059171041666,75.0,111.0
1068,200.201925725,200.42059171041666,75.0,111.0
1069,200.201925725,200.42059171041666,75.0,111.0
1070,200.490276475,201.6580970125,76.0,115.0
1071,201.643679475,201.94885068541666,72.0,113.0
1072,201.932030225,202.13147282708334,82.0,117.0
1073,201.932030225,202.13147282708334,82.0,117.0
1074,201.932030225,202.13147282708334,82.0,117.0
1075,202.220380975,202.31649789166667,81.0,117.0
1076,202.220380975,202.31649789166667,81.0,117.0
1077,202.220380975,202.31649789166667,81.0,117.0
1078,202.508731725,202.77785909166667,81.0,111.0
1079,202.508731725,202.77785909166667,81.0,111.0
1080,202.508731725,202.77785909166667,81.0,111.0
1081,202.797082475,202.9268403125,79.0,115.0
1082,202.797082475,202.9268403125,79.0,115.0
1083,202.797082475,202.9268403125,79.0,115.0
1084,203.085433225,203.29689044166668,79.0,117.0
1085,203.085433225,203.29689044166668,79.0,117.0
1086,203.085433225,203.29689044166668,79.0,117.0
1087,203.373783975,203.81351886875,81.0,115.0
1088,203.373783975,203.81351886875,81.0,115.0
1089,203.373783975,203.81351886875,81.0,115.0
1090,203.950485475,204.123495925,72.0,113.0
1091,203.950485475,204.123495925,72.0,113.0
1092,203.950485475,204.123495925,72.0,113.0
1093,204.238836225,204.43347298125,81.0,113.0
1094,204.238836225,204.43347298125,81.0,113.0
1095,204.238836225,204.43347298125,81.0,113.0
1096,204.527186975,204.61849804583332,79.0,109.0
1097,204.527186975,204.61849804583332,79.0,109.0
1098,204.527186975,204.61849804583332,79.0,109.0
1099,204.815537725,205.05583001666668,79.0,113.0
1100,204.815537725,205.05583001666668,79.0,113.0
1101,204.815537725,205.05583001666668,79.0,113.0
1102,205.103888475,205.23845215833333,77.0,117.0
1103,205.103888475,205.23845215833333,77.0,117.0
1104,205.103888475,205.23845215833333,77.0,117.0
1105,205.392239225,205.59889059583332,77.0,117.0
1106,205.392239225,205.59889059583332,77.0,117.0
1107,205.392239225,205.59889059583332,77.0,117.0
1108,205.680589975,206.16357748125,79.0,117.0
1109,205.680589975,206.16357748125,79.0,117.0
1110,205.680589975,206.16357748125,79.0,117.0
1111,206.257291475,206.45673407708333,72.0,106.0
1112,206.257291475,206.45673407708333,72.0,106.0
1113,206.257291475,206.45673407708333,72.0,106.0
1114,206.545642225,206.73787605833334,81.0,117.0
1115,206.545642225,206.73787605833334,81.0,117.0
1116,206.545642225,206.73787605833334,81.0,117.0
1117,206.833992975,206.91569235416668,79.0,113.0
1118,206.833992975,206.91569235416668,79.0,113.0
1119,206.833992975,206.91569235416668,79.0,113.0
1120,207.122343725,207.353024325,79.0,113.0
1121,207.122343725,207.353024325,79.0,113.0
1122,207.122343725,207.353024325,79.0,113.0
1123,207.41069447499999,207.59091369375,77.0,113.0
1124,207.41069447499999,207.59091369375,77.0,113.0
1125,207.41069447499999,207.59091369375,77.0,113.0
1126,207.699045225,207.92251705625,79.0,120.0
1127,207.699045225,207.92251705625,79.0,120.0
1128,207.699045225,207.92251705625,79.0,120.0
1129,207.987395975,208.43914548333333,77.0,115.0
1130,207.987395975,208.43914548333333,77.0,115.0
1131,207.987395975,208.43914548333333,77.0,115.0
1132,208.564097475,208.74431669375,77.0,117.0
1133,208.564097475,208.74431669375,77.0,117.0
1134,208.564097475,208.74431669375,77.0,117.0
1135,208.852448225,209.04468205833334,79.0,120.0
1136,208.852448225,209.04468205833334,79.0,120.0
1137,208.852448225,209.04468205833334,79.0,120.0
1138,209.140798975,209.29218311875,77.0,106.0
1139,209.140798975,209.29218311875,77.0,106.0
1140,209.140798975,209.29218311875,77.0,106.0
1141,209.429149725,209.62138355833332,79.0,115.0
1142,209.429149725,209.62138355833332,79.0,115.0
1143,209.429149725,209.62138355833332,79.0,115.0
1144,209.717500475,209.9049284625,77.0,106.0
1145,209.717500475,209.9049284625,77.0,106.0
1146,209.717500475,209.9049284625,77.0,106.0
1147,210.005851225,210.21730844166666,79.0,117.0
1148,210.005851225,210.21730844166666,79.0,117.0
1149,210.005851225,210.21730844166666,79.0,117.0
1150,210.294201975,210.73393686875,81.0,111.0
1151,210.294201975,210.73393686875,81.0,111.0
1152,210.294201975,210.73393686875,81.0,111.0
1153,211.159254225,211.45961958958333,81.0,117.0
1154,211.159254225,211.45961958958333,81.0,117.0
1155,211.159254225,211.45961958958333,81.0,117.0
1156,211.735955725,212.07957370208334,79.0,109.0
1157,211.735955725,212.07957370208334,79.0,109.0
1158,211.735955725,212.07957370208334,79.0,109.0
1159,212.024306475,212.31986599375,77.0,109.0
1160,212.024306475,212.31986599375,77.0,109.0
1161,212.024306475,212.31986599375,77.0,109.0
1162,212.312657225,212.6730956625,79.0,115.0
1163,212.312657225,212.6730956625,79.0,115.0
1164,212.312657225,212.6730956625,79.0,115.0
1165,212.889358725,213.23057377916666,77.0,115.0
1166,212.889358725,213.23057377916666,77.0,115.0
1167,212.889358725,213.23057377916666,77.0,115.0
1168,213.177709475,213.23057377916666,77.0,117.0
1169,213.177709475,213.23057377916666,77.0,117.0
1170,213.177709475,213.23057377916666,77.0,117.0
1171,213.466060225,213.70394959375,79.0,117.0
1172,213.466060225,213.70394959375,79.0,117.0
1173,213.466060225,213.70394959375,79.0,117.0
1174,213.754410975,213.84572204583333,77.0,109.0
1175,213.754410975,213.84572204583333,77.0,109.0
1176,213.754410975,213.84572204583333,77.0,109.0
1177,214.042761725,214.29747155416666,77.0,115.0
1178,214.042761725,214.29747155416666,77.0,115.0
1179,214.042761725,214.29747155416666,77.0,115.0
1180,214.331112475,214.57861353541668,72.0,100.0
1181,214.331112475,214.57861353541668,72.0,100.0
1182,214.331112475,214.57861353541668,72.0,100.0
1183,214.619463225,214.93424612708333,79.0,123.0
1184,214.619463225,214.93424612708333,79.0,123.0
1185,214.619463225,214.93424612708333,79.0,123.0
1186,214.907813975,215.32351963958334,81.0,113.0
1187,214.907813975,215.32351963958334,81.0,113.0
1188,214.907813975,215.32351963958334,81.0,113.0
1189,215.484515475,215.6142733125,81.0,115.0
1190,215.484515475,215.6142733125,81.0,115.0
1191,215.484515475,215.6142733125,81.0,115.0
1192,215.772866225,215.9891292875,81.0,117.0
1193,215.772866225,215.9891292875,81.0,117.0
1194,215.772866225,215.9891292875,81.0,117.0
1195,216.061216975,216.15493096875,79.0,109.0
1196,216.061216975,216.15493096875,79.0,109.0
1197,216.061216975,216.15493096875,79.0,109.0
1198,216.34956772499999,216.59947170833334,79.0,111.0
1199,216.34956772499999,216.59947170833334,79.0,111.0
1200,216.34956772499999,216.59947170833334,79.0,111.0
1201,216.637918475,216.80131723333332,77.0,113.0
1202,216.637918475,216.80131723333332,77.0,113.0
1203,216.637918475,216.80131723333332,77.0,113.0
1204,216.926269225,217.15214397916665,79.0,120.0
1205,216.926269225,217.15214397916665,79.0,120.0
1206,216.926269225,217.15214397916665,79.0,120.0
1207,217.214619975,217.34918365833335,77.0,113.0
1208,217.214619975,217.34918365833335,77.0,113.0
1209,217.214619975,217.34918365833335,77.0,113.0
1210,217.502970725,217.77450101458334,77.0,113.0
1211,217.502970725,217.77450101458334,77.0,113.0
1212,217.502970725,217.77450101458334,77.0,113.0
1213,217.791321475,218.00037576875,74.0,106.0
1214,217.791321475,218.00037576875,74.0,106.0
1215,217.791321475,218.00037576875,74.0,106.0
1216,218.079672225,218.31515867083334,77.0,115.0
1217,218.079672225,218.31515867083334,77.0,115.0
1218,218.079672225,218.31515867083334,77.0,115.0
1219,218.368022975,218.53382465625,81.0,113.0
1220,218.368022975,218.53382465625,81.0,113.0
1221,218.368022975,218.53382465625,81.0,113.0
1222,218.656373725,218.9303069375,81.0,115.0
1223,218.656373725,218.9303069375,81.0,115.0
1224,218.656373725,218.9303069375,81.0,115.0
1225,218.944724475,219.49018797708334,82.0,109.0
1226,218.944724475,219.49018797708334,82.0,109.0
1227,218.944724475,219.49018797708334,82.0,109.0
1228,220.098127475,220.18703562291665,84.0,120.0
1229,220.098127475,220.18703562291665,84.0,120.0
1230,220.098127475,220.18703562291665,84.0,120.0
1231,219.521425975,220.28555546249999,79.0,120.0
1232,219.521425975,220.28555546249999,79.0,120.0
1233,219.521425975,220.28555546249999,79.0,120.0
1234,220.386478225,220.62677051666665,84.0,113.0
1235,220.386478225,220.62677051666665,84.0,113.0
1236,220.386478225,220.62677051666665,84.0,113.0
1237,220.674828975,220.77334881458333,81.0,103.0
1238,220.674828975,220.77334881458333,81.0,103.0
1239,220.674828975,220.77334881458333,81.0,103.0
1240,220.963179725,221.1506077125,81.0,113.0
1241,220.963179725,221.1506077125,81.0,113.0
1242,220.963179725,221.1506077125,81.0,113.0
1243,221.251530475,221.37888538958333,79.0,115.0
1244,221.251530475,221.37888538958333,79.0,115.0
1245,221.251530475,221.37888538958333,79.0,115.0
1246,221.539881225,221.7993969,79.0,115.0
1247,221.539881225,221.7993969,79.0,115.0
1248,221.539881225,221.7993969,79.0,115.0
1249,221.828231975,222.3040107125,81.0,115.0
1250,221.828231975,222.3040107125,81.0,115.0
1251,221.828231975,222.3040107125,81.0,115.0
1252,222.404933475,222.49384162291668,81.0,115.0
1253,222.404933475,222.49384162291668,81.0,115.0
1254,222.404933475,222.49384162291668,81.0,115.0
1255,222.693284225,222.86148882916666,81.0,115.0
1256,222.693284225,222.86148882916666,81.0,115.0
1257,222.693284225,222.86148882916666,81.0,115.0
1258,222.981634975,223.04891681666666,79.0,103.0
1259,222.981634975,223.04891681666666,79.0,103.0
1260,222.981634975,223.04891681666666,79.0,103.0
1261,223.269985725,223.52469555416667,79.0,109.0
1262,223.269985725,223.52469555416667,79.0,109.0
1263,223.269985725,223.52469555416667,79.0,109.0
1264,223.558336475,223.80824045833333,77.0,98.0
1265,223.558336475,223.80824045833333,77.0,98.0
1266,223.558336475,223.80824045833333,77.0,98.0
1267,223.846687225,224.13023212916667,81.0,117.0
1268,223.846687225,224.13023212916667,81.0,117.0
1269,223.846687225,224.13023212916667,81.0,117.0
1270,224.135037975,224.70933655208333,79.0,111.0
1271,224.135037975,224.70933655208333,79.0,111.0
1272,224.135037975,224.70933655208333,79.0,111.0
1273,224.711739475,224.91118207708334,79.0,115.0
1274,224.711739475,224.91118207708334,79.0,115.0
1275,224.711739475,224.91118207708334,79.0,115.0
1276,225.000090225,225.22596497916666,81.0,117.0
1277,225.000090225,225.22596497916666,81.0,117.0
1278,225.000090225,225.22596497916666,81.0,117.0
1279,225.288440975,225.37975204583333,79.0,113.0
1280,225.288440975,225.37975204583333,79.0,113.0
1281,225.288440975,225.37975204583333,79.0,113.0
1282,225.576791725,225.8218898625,79.0,113.0
1283,225.576791725,225.8218898625,79.0,113.0
1284,225.576791725,225.8218898625,79.0,113.0
1285,225.865142475,226.01892954166667,77.0,109.0
1286,225.865142475,226.01892954166667,77.0,109.0
1287,225.865142475,226.01892954166667,77.0,109.0
1288,226.153493225,226.42021766875,79.0,117.0
1289,226.153493225,226.42021766875,79.0,117.0
1290,226.153493225,226.42021766875,79.0,117.0
1291,226.441843975,226.86956425416668,77.0,115.0
1292,226.441843975,226.86956425416668,77.0,115.0
1293,226.441843975,226.86956425416668,77.0,115.0
1294,227.018545475,227.24201730625,77.0,111.0
1295,227.018545475,227.24201730625,77.0,111.0
1296,227.018545475,227.24201730625,77.0,111.0
1297,227.306896225,227.53517390208333,79.0,113.0
1298,227.306896225,227.53517390208333,79.0,113.0
1299,227.306896225,227.53517390208333,79.0,113.0
1300,227.595246975,227.82833049791665,77.0,91.0
1301,227.595246975,227.82833049791665,77.0,91.0
1302,227.595246975,227.82833049791665,77.0,91.0
1303,227.883597725,228.13830755416666,79.0,103.0
1304,227.883597725,228.13830755416666,79.0,103.0
1305,227.883597725,228.13830755416666,79.0,103.0
1306,228.171948475,228.43626999583333,77.0,95.0
1307,228.171948475,228.43626999583333,77.0,95.0
1308,228.171948475,228.43626999583333,77.0,95.0
1309,228.460299225,228.72221782291666,84.0,117.0
1310,228.460299225,228.72221782291666,84.0,117.0
1311,228.460299225,228.72221782291666,84.0,117.0
1312,228.748649975,229.22683163541666,81.0,113.0
1313,228.748649975,229.22683163541666,81.0,113.0
1314,228.748649975,229.22683163541666,81.0,113.0
1315,229.325351475,229.41666254583333,81.0,117.0
1316,229.325351475,229.41666254583333,81.0,117.0
1317,229.325351475,229.41666254583333,81.0,117.0
1318,229.613702225,229.82275651875,81.0,115.0
1319,229.613702225,229.82275651875,81.0,115.0
1320,229.613702225,229.82275651875,81.0,115.0
1321,229.902052975,229.9741406625,79.0,103.0
1322,229.902052975,229.9741406625,79.0,103.0
1323,229.902052975,229.9741406625,79.0,103.0
1324,230.190403725,230.43790478541666,79.0,106.0
1325,230.190403725,230.43790478541666,79.0,106.0
1326,230.190403725,230.43790478541666,79.0,106.0
1327,230.478754475,230.67819707708333,77.0,106.0
1328,230.478754475,230.67819707708333,77.0,106.0
1329,230.478754475,230.67819707708333,77.0,106.0
1330,230.767105225,231.06026182083335,79.0,115.0
1331,230.767105225,231.06026182083335,79.0,115.0
1332,230.767105225,231.06026182083335,79.0,115.0
1333,231.055455975,231.58409901666667,77.0,111.0
1334,231.055455975,231.58409901666667,77.0,111.0
1335,231.055455975,231.58409901666667,77.0,111.0
1336,231.63215747499999,231.77873577291666,77.0,115.0
1337,231.63215747499999,231.77873577291666,77.0,115.0
1338,231.63215747499999,231.77873577291666,77.0,115.0
1339,231.920508225,232.06948944583334,79.0,111.0
1340,231.920508225,232.06948944583334,79.0,111.0
1341,231.920508225,232.06948944583334,79.0,111.0
1342,232.208858975,232.2953642,77.0,98.0
1343,232.208858975,232.2953642,77.0,98.0
1344,232.208858975,232.2953642,77.0,98.0
1345,232.497209725,232.73750201666667,77.0,106.0
1346,232.497209725,232.73750201666667,77.0,106.0
1347,232.497209725,232.73750201666667,77.0,106.0
1348,232.785560475,233.01864399791666,72.0,85.0
1349,232.785560475,233.01864399791666,72.0,85.0
1350,232.785560475,233.01864399791666,72.0,85.0
1351,233.073911225,233.38148535833332,79.0,113.0
1352,233.073911225,233.38148535833332,79.0,113.0
1353,233.073911225,233.38148535833332,79.0,113.0
1354,233.362261975,233.84765240416667,81.0,113.0
1355,233.362261975,233.84765240416667,81.0,113.0
1356,233.362261975,233.84765240416667,81.0,113.0
1357,235.380717225,235.71952935625,81.0,115.0
1358,235.380717225,235.71952935625,81.0,115.0
1359,235.380717225,235.71952935625,81.0,115.0
1360,235.669067975,236.05593856458333,79.0,109.0
1361,235.669067975,236.05593856458333,79.0,109.0
1362,235.669067975,236.05593856458333,79.0,109.0
1363,236.245769475,236.58698452916667,77.0,106.0
1364,236.245769475,236.58698452916667,77.0,106.0
1365,236.245769475,236.58698452916667,77.0,106.0
1366,236.534120225,237.27422048333332,74.0,113.0
1367,236.534120225,237.27422048333332,74.0,113.0
1368,236.534120225,237.27422048333332,74.0,113.0
1369,237.399172475,237.51931862083333,72.0,111.0
1370,237.399172475,237.51931862083333,72.0,111.0
1371,237.399172475,237.51931862083333,72.0,111.0
1372,237.687523225,238.23298672708333,81.0,113.0
1373,237.687523225,238.23298672708333,81.0,113.0
1374,237.687523225,238.23298672708333,81.0,113.0
1375,238.264224725,238.48289071041665,79.0,106.0
1376,238.264224725,238.48289071041665,79.0,106.0
1377,238.264224725,238.48289071041665,79.0,106.0
1378,238.552575475,239.41522480208334,77.0,115.0
1379,238.552575475,239.41522480208334,77.0,115.0
1380,238.552575475,239.41522480208334,77.0,115.0
1381,239.417627725,239.6915609375,76.0,109.0
1382,239.417627725,239.6915609375,76.0,109.0
1383,239.417627725,239.6915609375,76.0,109.0
1384,239.705978475,242.41407260208334,77.0,113.0
1385,239.705978475,242.41407260208334,77.0,113.0
1386,239.705978475,242.41407260208334,77.0,113.0
