,start,end,pitch,velocity
0,2.4125346083333334,2.93396888125,75.0,82.0
1,2.31401476875,2.9387747270833335,64.0,36.0
2,2.393311225,4.366110939583334,52.0,75.0
3,3.479432383333333,4.486257085416667,64.0,67.0
4,3.4698206916666665,4.5126892375,68.0,71.0
5,4.63523830625,5.360921027083333,64.0,65.0
6,4.6304324604166665,5.3801444104166665,69.0,82.0
7,5.488275941666666,6.021724829166667,68.0,70.0
8,4.625626614583333,6.33650773125,52.0,77.0
9,5.483470095833333,6.7594221645833334,64.0,71.0
10,6.086603747916667,6.800271854166667,73.0,71.0
11,6.925223845833333,7.1943512125,64.0,53.0
12,6.918015077083333,7.213574595833333,75.0,95.0
13,8.071418077083333,9.030184320833333,68.0,60.0
14,8.071418077083333,9.0397960125,64.0,61.0
15,6.915612154166666,9.16234508125,52.0,73.0
16,9.121495391666667,9.246447383333333,69.0,69.0
17,9.0974661625,9.316132147916667,64.0,35.0
18,9.224821077083334,10.25807793125,72.0,66.0
19,10.383029922916666,11.19521786875,71.0,36.0
20,9.16955385,11.219247097916666,48.0,67.0
21,11.620535225,12.223668877083334,66.0,85.0
22,12.197236725,12.47837870625,59.0,47.0
23,12.773938225,13.24250819375,59.0,56.0
24,13.927341225,14.41032873125,59.0,30.0
25,15.080744225,15.270575135416667,59.0,57.0
26,12.485587474999999,15.388318358333333,64.0,71.0
27,11.620535225,15.460406045833333,52.0,76.0
28,16.234147225,16.784416572916665,71.0,88.0
29,16.810848725,17.2577923875,61.0,59.0
30,18.540953225,19.028746577083332,61.0,36.0
31,19.694356225,19.908216364583332,61.0,55.0
32,16.234147225,19.97549820625,49.0,79.0
33,17.099199475,20.8045066125,68.0,75.0
34,21.424460725,22.400047429166666,69.0,55.0
35,20.809312458333334,22.947913854166668,57.0,85.0
36,21.097663208333334,22.947913854166668,64.0,61.0
37,21.712811475,22.986360620833334,73.0,71.0
38,23.123327227083333,23.59430011875,47.0,58.0
39,23.123327227083333,23.993185322916666,71.0,48.0
40,25.461371225,26.302394245833334,66.0,71.0
41,26.038072725,27.133805575,59.0,24.0
42,27.768177225,28.147839045833333,66.0,68.0
43,27.768177225,28.260776422916667,69.0,65.0
44,26.326423475,28.960026991666666,68.0,71.0
45,28.633229475,28.960026991666666,68.0,69.0
46,25.461371225,28.9936679125,52.0,69.0
47,27.768177225,28.9936679125,52.0,63.0
48,28.633229475,29.625636639583334,71.0,71.0
49,30.651684725,30.9544530125,64.0,62.0
50,30.940035475,31.37015867708333,68.0,91.0
51,30.940035475,31.46627559375,71.0,82.0
52,31.805087725,32.43705645208333,64.0,42.0
53,32.381789225,33.0017433375,68.0,77.0
54,32.381789225,33.032981335416665,71.0,76.0
55,33.535192225,33.60968283541666,71.0,73.0
56,33.535192225,33.624100372916665,68.0,75.0
57,33.535192225,33.63851791041667,64.0,70.0
58,30.363333975,33.64812960208333,59.0,71.0
59,30.074983225,33.69618806041667,52.0,103.0
60,34.688595225,35.38784579375,68.0,73.0
61,34.688595225,35.3950545625,64.0,71.0
62,34.688595225,35.45993348125,71.0,69.0
63,35.265296725,35.48396271041667,61.0,51.0
64,35.553647475,35.59930301041667,64.0,57.0
65,35.553647475,36.01741159791667,71.0,88.0
66,36.130348975,36.329791577083334,68.0,67.0
67,35.841998225,36.83440538958333,61.0,67.0
68,36.995401225,37.54567057291667,61.0,12.0
69,36.707050475,38.15361007083333,71.0,73.0
70,34.976945975,38.22329483541667,56.0,14.0
71,38.148804225,38.345843904166664,61.0,75.0
72,34.688595225,38.552495275,49.0,82.0
73,38.148804225,38.69186480416667,68.0,95.0
74,38.148804225,38.70387941875,64.0,79.0
75,38.725505725,39.191672770833335,71.0,68.0
76,39.013856475,39.31422183958333,64.0,64.0
77,39.878908725,40.18888578125,57.0,52.0
78,40.167259475,41.032311725,61.0,91.0
79,40.455610225,41.171681254166664,57.0,59.0
80,41.609013225,42.20493810833333,57.0,58.0
81,41.032311725,42.68552269166667,69.0,71.0
82,39.302207225,43.13486927708333,45.0,103.0
83,42.762416225,43.175718966666665,64.0,70.0
84,39.590557975,43.3247001875,52.0,56.0
85,42.762416225,43.34152064791667,57.0,64.0
86,43.339117725,43.72118246875,64.0,38.0
87,42.762416225,43.80528477083333,61.0,66.0
88,44.492520725,44.780871475,64.0,36.0
89,44.780871475,45.36718466666667,68.0,66.0
90,45.069222225,45.62189449583333,64.0,39.0
91,45.357572975,45.76366694791667,75.0,60.0
92,46.222625225,46.78250626458333,64.0,6.0
93,43.915819225,46.787312110416664,52.0,73.0
94,44.204169975,46.80893841666666,59.0,56.0
95,46.222625225,46.86180272083333,76.0,61.0
96,49.106132725,49.50501792916667,57.0,76.0
97,49.394483475,49.937544054166665,61.0,106.0
98,49.971184975,50.20907434375,64.0,75.0
99,48.817781975,50.317205875,52.0,70.0
100,49.682834225,50.386890639583335,57.0,73.0
101,48.529431225,50.57912447291667,45.0,109.0
102,50.259535725,50.85546060833333,61.0,73.0
103,51.701289475,51.989640225,64.0,60.0
104,51.989640225,52.616803106249996,71.0,111.0
105,50.836237225,52.75617263541667,45.0,109.0
106,51.124587975,52.82826032291667,52.0,71.0
107,51.412938725,52.90515385625,57.0,77.0
108,52.566341725,53.123819841666666,64.0,71.0
109,54.008095475,54.24838776666667,59.0,106.0
110,54.296446225,54.55115605416667,68.0,106.0
111,53.143043225,54.594408666666666,44.0,103.0
112,53.431393975,54.71215188958333,51.0,49.0
113,53.719744725,54.810671729166664,56.0,72.0
114,54.873147725,55.09902247916666,63.0,70.0
115,54.584796975,55.30567385,59.0,77.0
116,55.161498475,55.36814984583334,68.0,61.0
117,56.314901475,56.535970383333336,64.0,82.0
118,56.603252225,56.87958836041667,73.0,103.0
119,55.449849225,57.11988065208333,49.0,100.0
120,55.738199975,57.21599756875,56.0,56.0
121,56.026550725,57.312114485416664,61.0,69.0
122,57.179953725,57.441872322916666,68.0,67.0
123,57.468304475,57.62930031041667,73.0,36.0
124,56.891602975,57.68697046041667,64.0,77.0
125,58.333356725,58.70580977708333,66.0,91.0
126,58.621707475,59.174379745833335,69.0,106.0
127,58.910058225,59.28251127708333,66.0,85.0
128,58.045005975,59.44831295833333,61.0,71.0
129,59.198408975,59.46032757291667,78.0,106.0
130,57.756655225,59.49637141666667,54.0,106.0
131,59.486759725,59.70061986458333,73.0,73.0
132,59.775110475,60.15717521875,69.0,70.0
133,60.928513475,61.20725253333333,69.0,60.0
134,60.640162725,61.53164712708333,66.0,73.0
135,61.216864225,61.55567635625,76.0,113.0
136,60.351811975,61.59892896875,61.0,70.0
137,60.063461225,61.74070142083333,54.0,106.0
138,61.505214975,61.77193941875,73.0,79.0
139,61.793565725,62.312597075,69.0,79.0
140,62.081916475,62.31980584375,73.0,79.0
141,62.946968725,63.24493116666667,59.0,85.0
142,62.658617975,63.3650773125,54.0,75.0
143,63.235319475,63.75194790208333,63.0,103.0
144,62.370267225,63.946584658333336,47.0,111.0
145,63.523670225,64.0282840375,54.0,60.0
146,63.812020975,64.03068696041667,71.0,103.0
147,63.523670225,64.03549280625,59.0,95.0
148,64.100371725,64.27818802083333,66.0,98.0
149,64.388722475,64.55212123333334,63.0,106.0
150,64.677073225,65.20331334375,47.0,109.0
151,64.677073225,65.31865364375,63.0,95.0
152,64.677073225,65.33066825833333,66.0,100.0
153,64.677073225,65.34989164166667,71.0,103.0
154,67.560580725,67.87776655,64.0,91.0
155,67.272229975,67.99070392708333,59.0,82.0
156,67.848931475,68.35835113333333,68.0,113.0
157,68.425632975,68.65150772916667,76.0,109.0
158,68.13728222499999,68.69476034166667,64.0,106.0
159,68.713983725,68.91823217291666,71.0,98.0
160,68.13728222499999,69.00954324375,59.0,70.0
161,66.983879225,69.15852446458334,52.0,113.0
162,69.002334475,69.27867061041667,68.0,103.0
163,69.867386725,70.06923225,66.0,91.0
164,70.155737475,70.37920930625,71.0,100.0
165,70.444088225,71.09768325833333,75.0,113.0
166,69.579035975,71.20341186666667,59.0,103.0
167,71.020789725,71.23224694166667,71.0,72.0
168,69.290685225,71.36921354791667,51.0,106.0
169,71.309140475,71.5830736875,66.0,70.0
170,72.174192725,72.59710715833333,61.0,65.0
171,72.462543475,72.89747252291667,64.0,85.0
172,73.039244975,73.37325126041667,73.0,103.0
173,73.327595725,73.50300909791666,68.0,72.0
174,72.750894225,73.70725754583333,61.0,100.0
175,71.597491225,73.73849554375,49.0,106.0
176,71.885841975,73.73849554375,56.0,71.0
177,73.615946475,73.76733061875,64.0,98.0
178,74.480998725,74.827019625,59.0,71.0
179,74.192647975,74.91352485,54.0,85.0
180,74.769349475,75.26435159583333,63.0,111.0
181,75.346050975,75.60316372708333,71.0,103.0
182,75.057700225,75.65602803125,59.0,100.0
183,75.057700225,75.68246018333333,54.0,70.0
184,75.634401725,75.82423263541666,66.0,91.0
185,73.904297225,76.0525103125,47.0,106.0
186,75.922752475,76.21831199375,63.0,95.0
187,76.499453975,76.76377549583333,52.0,65.0
188,76.787804725,77.14103439375,57.0,75.0
189,76.787804725,77.18428700625,52.0,44.0
190,77.076155475,77.58797805625,61.0,111.0
191,77.652856975,77.88834342083334,69.0,109.0
192,77.364506225,77.99166910625,57.0,95.0
193,77.364506225,78.00848956666667,52.0,69.0
194,77.941207725,78.14305325,64.0,79.0
195,76.211103225,78.431404,45.0,113.0
196,78.229558475,78.50829753333333,61.0,98.0
197,79.382961475,79.69534145416667,59.0,103.0
198,79.671312225,79.92602205416667,66.0,111.0
199,79.959662975,80.24080495625,63.0,69.0
200,78.517909225,80.421024175,44.0,106.0
201,78.806259975,80.5075294,51.0,70.0
202,79.094610725,80.5219469375,56.0,88.0
203,80.536364475,80.75743338333334,63.0,77.0
204,80.24801372499999,80.76464215208334,59.0,71.0
205,81.401416725,81.77867562291667,54.0,75.0
206,81.689767475,82.22802220833333,57.0,95.0
207,80.824715225,82.46591157708333,42.0,113.0
208,82.266468975,82.51397003541666,66.0,113.0
209,81.113065975,82.55241680208333,49.0,68.0
210,81.978118225,82.85037924375,54.0,91.0
211,82.554819725,83.10749199583333,57.0,88.0
212,82.843170475,83.1603563,61.0,100.0
213,83.996573475,84.24647745833333,63.0,100.0
214,84.284924225,84.53723113125,71.0,113.0
215,84.573274975,84.81356726666667,66.0,98.0
216,83.131521225,85.17400570416666,47.0,115.0
217,83.708222725,85.21725831666667,59.0,91.0
218,83.419871975,85.24609339166666,54.0,75.0
219,84.861625725,85.42871553333333,63.0,109.0
220,85.149976475,85.44073014791667,66.0,111.0
221,86.015028725,86.33221455,64.0,91.0
222,85.726677975,86.44515192708333,59.0,82.0
223,86.303379475,86.81279913333333,68.0,113.0
224,86.880080975,87.10595572916667,76.0,109.0
225,86.591730225,87.14920834166666,64.0,106.0
226,87.168431725,87.37268017291666,71.0,98.0
227,86.591730225,87.46399124375,59.0,70.0
228,85.46235645416667,87.62739000208333,52.0,115.0
229,87.456782475,87.73311861041667,68.0,103.0
230,88.321834725,88.52368025,66.0,91.0
231,88.610185475,88.83365730625,71.0,100.0
232,88.898536225,89.55213125833333,75.0,113.0
233,88.033483975,89.65785986666667,59.0,103.0
234,89.475237725,89.68669494166667,71.0,72.0
235,87.745133225,89.82366154791667,51.0,106.0
236,89.763588475,90.0375216875,66.0,70.0
237,90.628640725,91.05155515833333,61.0,65.0
238,90.916991475,91.35192052291667,64.0,85.0
239,91.493692975,91.82769926041667,73.0,103.0
240,91.782043725,91.95745709791666,68.0,72.0
241,91.205342225,92.16170554583333,61.0,100.0
242,90.051939225,92.19294354375,49.0,106.0
243,90.340289975,92.19294354375,56.0,71.0
244,92.070394475,92.22177861875,64.0,98.0
245,92.935446725,93.281467625,59.0,71.0
246,92.647095975,93.36797285,54.0,85.0
247,93.223797475,93.71879959583333,63.0,111.0
248,93.800498975,94.05761172708333,71.0,103.0
249,93.512148225,94.11047603125,59.0,100.0
250,93.512148225,94.13690818333333,54.0,70.0
251,94.088849725,94.27868063541666,66.0,91.0
252,92.35874522499999,94.5069583125,47.0,106.0
253,94.377200475,94.67275999375,63.0,95.0
254,94.953901975,95.21822349583333,52.0,65.0
255,95.242252725,95.59548239375,57.0,75.0
256,95.242252725,95.63873500625,52.0,44.0
257,95.530603475,96.04242605625,61.0,111.0
258,96.107304975,96.34279142083334,69.0,109.0
259,95.818954225,96.44611710625,57.0,95.0
260,95.818954225,96.46293756666667,52.0,69.0
261,96.395655725,96.59750125,64.0,79.0
262,94.665551225,96.885852,45.0,113.0
263,96.684006475,96.96274553333333,61.0,98.0
264,97.837409475,98.14978945416667,59.0,103.0
265,98.125760225,98.38047005416666,66.0,111.0
266,98.414110975,98.69525295625,63.0,69.0
267,96.972357225,98.875472175,44.0,106.0
268,97.260707975,98.9619774,51.0,70.0
269,97.549058725,98.9763949375,56.0,88.0
270,98.990812475,99.21188138333333,63.0,77.0
271,98.702461725,99.21909015208334,59.0,71.0
272,99.855864725,100.23312362291666,54.0,75.0
273,100.144215475,100.68247020833333,57.0,95.0
274,99.279163225,100.92035957708333,42.0,113.0
275,100.720916975,100.96841803541666,66.0,113.0
276,99.567513975,101.00686480208333,49.0,68.0
277,100.432566225,101.30482724375,54.0,91.0
278,101.009267725,101.56193999583333,57.0,88.0
279,101.297618475,101.6148043,61.0,100.0
280,102.451021475,102.70092545833333,63.0,100.0
281,102.739372225,102.99167913125,71.0,113.0
282,103.027722975,103.26801526666667,66.0,98.0
283,101.585969225,103.62845370416666,47.0,115.0
284,102.162670725,103.67170631666667,59.0,91.0
285,101.874319975,103.70054139166666,54.0,75.0
286,103.316073725,103.88316353333333,63.0,109.0
287,103.604424475,103.88316353333333,66.0,111.0
288,104.757827475,104.95486715416666,68.0,69.0
289,104.46947672499999,105.51234527083334,64.0,77.0
290,103.892775225,105.80550186666666,52.0,79.0
291,105.622879725,105.82232232708333,64.0,69.0
292,104.181125975,105.8823954,59.0,71.0
293,105.046178225,105.94727431875,69.0,91.0
294,105.911230475,107.11749777916667,68.0,73.0
295,105.911230475,107.13912408541667,52.0,73.0
296,109.371439475,109.62134345833333,68.0,106.0
297,109.659790225,109.80877144583333,68.0,49.0
298,109.659790225,109.89287374791667,71.0,109.0
299,109.083088725,110.14518065416667,64.0,100.0
300,109.948140975,110.20525372708333,76.0,95.0
301,108.794737975,110.2509092625,59.0,88.0
302,108.506387225,110.60654185416666,52.0,109.0
303,110.236491725,110.81559614791666,68.0,98.0
304,110.524842475,110.82040199375,71.0,76.0
305,111.678245475,112.08433944791666,66.0,75.0
306,111.966596225,112.21409728541667,71.0,111.0
307,112.254946975,112.51205972708334,73.0,88.0
308,111.389894725,112.88210985625,63.0,91.0
309,111.101543975,112.88451277916667,57.0,98.0
310,110.813193225,113.04070276875,51.0,103.0
311,112.543297725,113.10077584166666,66.0,76.0
312,112.831648475,113.1055816875,71.0,95.0
313,113.985051475,114.23495545833333,64.0,100.0
314,114.273402225,114.54252959166666,68.0,103.0
315,114.561752975,114.80444818958334,73.0,106.0
316,113.696700725,114.90296802916667,61.0,79.0
317,113.408349975,115.0375317125,56.0,82.0
318,113.119999225,115.30185323333333,49.0,109.0
319,115.138454475,115.40998476458333,68.0,70.0
320,114.850103725,115.43161107083333,64.0,82.0
321,116.291857475,116.53214976666666,63.0,98.0
322,116.58020822499999,116.65469883541667,63.0,60.0
323,116.58020822499999,116.83251513125,66.0,109.0
324,116.868558975,117.15210387916666,71.0,79.0
325,116.003506725,117.35394940416667,59.0,75.0
326,115.715155975,117.4308429375,54.0,77.0
327,115.426805225,117.62067384791666,47.0,109.0
328,117.445260475,117.70717907291666,66.0,91.0
329,117.156909725,117.71438784166666,63.0,77.0
330,118.887014225,119.175364975,64.0,100.0
331,118.598663475,119.18497666666667,61.0,95.0
332,117.733611225,119.3916280375,45.0,113.0
333,119.175364975,119.42526895833333,69.0,100.0
334,118.021961975,119.46611864791667,52.0,73.0
335,118.310312725,119.50937126041667,57.0,77.0
336,119.463715725,120.0259996875,61.0,79.0
337,119.752066475,120.04762599375,64.0,82.0
338,120.905469475,121.44372420833334,71.0,98.0
339,121.193820225,121.47015636041667,75.0,109.0
340,120.617118725,121.76811880208334,68.0,95.0
341,121.482170975,121.76811880208334,80.0,95.0
342,120.328767975,121.86183279583334,63.0,88.0
343,120.040417225,122.2463004625,56.0,111.0
344,121.770521725,122.34962614791667,71.0,85.0
345,122.058872475,122.36884953125,75.0,82.0
346,122.923924725,123.28196023958333,66.0,98.0
347,123.212275475,123.81540912708333,69.0,106.0
348,123.500626225,123.84905004791666,66.0,95.0
349,122.635573975,123.99803126875,61.0,85.0
350,123.788976975,124.03167218958333,78.0,106.0
351,124.077327725,124.23351771458333,78.0,62.0
352,122.347223225,124.39451355,54.0,109.0
353,124.365678475,124.6396116875,73.0,95.0
354,124.077327725,124.68046137708333,69.0,85.0
355,125.519081475,126.06214205416667,63.0,95.0
356,125.807432225,126.07896251458334,66.0,73.0
357,126.095782975,126.3697161875,71.0,79.0
358,126.384133725,126.95602937916667,63.0,100.0
359,126.672484475,127.00649076041667,66.0,45.0
360,125.230730725,127.02571414375,59.0,77.0
361,124.654029225,127.05214629583334,47.0,113.0
362,124.942379975,127.06656383333333,54.0,91.0
363,127.537536725,128.30406913541665,64.0,95.0
364,127.249185975,128.3737539,59.0,82.0
365,126.960835225,128.806280025,52.0,106.0
366,127.825887475,129.00331970416667,68.0,120.0
367,129.555991975,129.844342725,63.0,56.0
368,128.979290475,129.94045964166668,51.0,115.0
369,129.844342725,130.132693475,68.0,79.0
370,130.132693475,130.9112405,44.0,111.0
371,130.709394975,131.00976033958332,56.0,69.0
372,132.151148725,132.53801931458332,61.0,72.0
373,131.862797975,133.25168742083332,56.0,73.0
374,131.574447225,133.50639725,49.0,106.0
375,132.439499475,133.85241815,64.0,106.0
376,133.881253225,135.63298403125,59.0,75.0
377,133.881253225,135.63298403125,62.0,71.0
378,133.881253225,135.63778987708332,65.0,68.0
379,136.476409975,138.24015539583334,52.0,65.0
380,136.764760725,138.27139339375,57.0,66.0
381,136.188059225,138.30022846875,45.0,103.0
382,137.053111475,138.55974414375,61.0,103.0
383,139.071566725,139.47285485208334,59.0,59.0
384,139.359917475,140.01831835416667,63.0,77.0
385,139.648268225,140.10722650208334,59.0,60.0
386,138.783215975,140.12885280833333,54.0,60.0
387,138.494865225,140.26101356875,47.0,82.0
388,139.936618975,140.73919522916665,66.0,91.0
389,141.666723475,142.24102205208334,56.0,85.0
390,141.378372725,142.84896155,52.0,47.0
391,142.243424975,142.99073400208334,64.0,79.0
392,141.090021975,143.47131858541667,47.0,39.0
393,143.108477225,143.47131858541667,52.0,62.0
394,140.801671225,143.50015366041666,40.0,91.0
395,143.108477225,143.58665888541665,59.0,70.0
396,143.108477225,143.60828519166665,56.0,69.0
397,143.108477225,143.63471734375,64.0,75.0
398,145.98958180208334,146.39086992916666,57.0,76.0
399,146.27793255208334,146.82339605416666,61.0,106.0
400,146.85463405208333,147.09492634375,64.0,75.0
401,145.70123105208333,147.203057875,52.0,70.0
402,146.56628330208332,147.27274263958333,57.0,73.0
403,145.41288030208332,147.46257355,45.0,109.0
404,147.14298480208333,147.73890968541667,61.0,73.0
405,148.58473855208334,148.87308930208334,64.0,60.0
406,148.87308930208334,149.50025218333334,71.0,111.0
407,147.71968630208335,149.6396217125,45.0,109.0
408,148.00803705208332,149.71411232291666,52.0,71.0
409,148.29638780208333,149.79100585625,57.0,77.0
410,149.44979080208333,150.00967184166666,64.0,71.0
411,150.89154455208333,151.13423976666667,59.0,106.0
412,151.17989530208334,151.43460513125,68.0,106.0
413,150.02649230208334,151.47785774375,44.0,103.0
414,150.31484305208335,151.59800388958334,51.0,49.0
415,150.60319380208333,151.69412080625,56.0,72.0
416,151.75659680208332,151.98247155625,63.0,70.0
417,151.46824605208334,152.19152585,59.0,77.0
418,152.04494755208333,152.25159892291666,68.0,61.0
419,153.19835055208333,153.42182238333334,64.0,82.0
420,153.48670130208333,153.7630374375,73.0,103.0
421,152.33329830208334,154.00573265208334,49.0,100.0
422,152.62164905208334,154.10184956875,56.0,56.0
423,152.90999980208332,154.1955635625,61.0,69.0
424,154.06340280208335,154.3253214,68.0,67.0
425,154.35175355208332,154.51515231041665,73.0,36.0
426,153.77505205208334,154.5704195375,64.0,77.0
427,155.21680580208334,155.58925885416667,66.0,91.0
428,155.50515655208332,156.06023174583333,69.0,106.0
429,155.79350730208333,156.16836327708333,66.0,85.0
430,154.92845505208334,156.33176203541666,61.0,71.0
431,156.08185805208333,156.34617957291667,78.0,106.0
432,154.64010430208333,156.38222341666668,54.0,106.0
433,156.37020880208334,156.58647186458333,73.0,73.0
434,156.65855955208335,157.04062429583334,69.0,70.0
435,157.81196255208334,158.09070161041666,69.0,60.0
436,157.52361180208334,158.41509620416667,66.0,73.0
437,158.10031330208332,158.43912543333334,76.0,113.0
438,157.23526105208333,158.48478096875,61.0,70.0
439,156.94691030208332,158.62415049791667,54.0,106.0
440,158.38866405208333,158.65538849583334,73.0,79.0
441,158.67701480208333,159.198449075,69.0,79.0
442,158.96536555208334,159.20325492083333,73.0,79.0
443,159.83041780208333,160.13078316666667,59.0,85.0
444,159.54206705208333,160.24852638958333,54.0,75.0
445,160.11876855208334,160.63779990208334,63.0,103.0
446,159.25371630208332,160.83243665833334,47.0,111.0
447,160.40711930208334,160.9141360375,54.0,60.0
448,160.69547005208332,160.91653896041666,71.0,103.0
449,160.40711930208334,160.91894188333333,59.0,95.0
450,160.98382080208333,161.16404002083334,66.0,98.0
451,161.27217155208334,161.43797323333334,63.0,106.0
452,161.56052230208334,162.08676242083334,47.0,109.0
453,161.56052230208334,162.20450564375,63.0,95.0
454,161.56052230208334,162.21411733541666,66.0,100.0
455,161.56052230208334,162.23334071875,71.0,103.0
456,164.47767072291666,164.79725947083332,64.0,91.0
457,164.18931997291668,164.907793925,59.0,82.0
458,164.76602147291666,165.27784405416668,68.0,113.0
459,165.34272297291668,165.57100065,76.0,109.0
460,165.05437222291667,165.6142532625,64.0,106.0
461,165.63107372291665,165.83532217083334,71.0,98.0
462,165.05437222291667,165.92663324166668,59.0,70.0
463,163.90096922291667,166.07801738541667,52.0,113.0
464,165.91942447291666,166.19816353125,68.0,103.0
465,166.78447672291668,166.98632224791666,66.0,91.0
466,167.07282747291666,167.29629930416667,71.0,100.0
467,167.36117822291666,168.01477325625,75.0,113.0
468,166.49612597291667,168.12050186458333,59.0,103.0
469,167.93787972291668,168.1517398625,71.0,72.0
470,166.20777522291667,168.28630354583333,51.0,106.0
471,168.22623047291665,168.50016368541668,66.0,70.0
472,169.09128272291667,169.51419715625,61.0,65.0
473,169.37963347291668,169.81696544375,64.0,85.0
474,169.95633497291666,170.29034125833334,73.0,103.0
475,170.24468572291667,170.42009909583334,68.0,72.0
476,169.66798422291666,170.62675046666666,61.0,100.0
477,168.80293197291667,170.65558554166665,56.0,71.0
478,168.51458122291666,170.65798846458333,49.0,106.0
479,170.53303647291668,170.68442061666667,64.0,98.0
480,171.39808872291667,171.74410962291665,59.0,71.0
481,171.10973797291666,171.83061484791668,54.0,85.0
482,171.68643947291667,172.18144159375,63.0,111.0
483,172.26314097291666,172.520253725,71.0,103.0
484,171.97479022291665,172.57311802916666,59.0,100.0
485,171.97479022291665,172.59955018125,54.0,70.0
486,172.55149172291667,172.74372555625,66.0,91.0
487,170.82138722291666,172.96960031041667,47.0,106.0
488,172.83984247291667,173.13780491458334,63.0,95.0
489,173.41654397291666,173.68326841666666,52.0,65.0
490,173.70489472291666,174.05812439166667,57.0,75.0
491,173.70489472291666,174.10137700416666,52.0,44.0
492,173.99324547291667,174.50747097708333,61.0,111.0
493,174.56994697291665,174.80783634166667,69.0,109.0
494,174.28159622291668,174.91116202708332,57.0,95.0
495,174.28159622291668,174.92557956458333,52.0,69.0
496,174.85829772291666,175.06254617083334,64.0,79.0
497,173.12819322291668,175.34849399791668,45.0,113.0
498,175.14664847291667,175.42538753125,61.0,98.0
499,176.30005147291666,176.614834375,59.0,103.0
500,176.58840222291667,176.845514975,66.0,111.0
501,176.87675297291668,177.16029787708334,63.0,69.0
502,175.43499922291667,177.34051709583332,44.0,106.0
503,175.72334997291668,177.42461939791667,51.0,70.0
504,176.01170072291666,177.44143985833333,56.0,88.0
505,177.45345447291666,177.67452338125,63.0,77.0
506,177.16510372291665,177.68173215,59.0,71.0
507,178.31850672291668,178.69816854375,54.0,75.0
508,178.60685747291666,179.14751512916666,57.0,95.0
509,177.74180522291667,179.38540449791665,42.0,113.0
510,179.18355897291667,179.43346295625,66.0,113.0
511,178.03015597291667,179.47190972291668,49.0,68.0
512,178.89520822291666,179.76746924166667,54.0,91.0
513,179.47190972291668,180.02458199375,57.0,88.0
514,179.76026047291666,180.07984922083332,61.0,100.0
515,180.91366347291665,181.16356745625,63.0,100.0
516,181.20201422291666,181.45432112916666,71.0,113.0
517,181.49036497291667,181.7330601875,66.0,98.0
518,180.04861122291666,182.09109570208332,47.0,115.0
519,180.62531272291668,182.13434831458332,59.0,91.0
520,180.33696197291667,182.16318338958334,54.0,75.0
521,181.77871572291667,182.34580553125,63.0,109.0
522,182.06706647291668,182.36022306875,66.0,111.0
523,182.87925441875,183.19644024375,64.0,91.0
524,182.59090366875,183.30937762083335,59.0,82.0
525,183.16760516875,183.67702482708333,68.0,113.0
526,183.74430666875,183.97018142291665,76.0,109.0
527,183.45595591875,184.01343403541668,64.0,106.0
528,184.03265741875,184.23690586666666,71.0,98.0
529,183.45595591875,184.3282169375,59.0,70.0
530,182.32658214791667,184.49161569583333,52.0,115.0
531,184.32100816875,184.59734430416665,68.0,103.0
532,185.18606041875,185.38790594375,66.0,91.0
533,185.47441116875,185.697883,71.0,100.0
534,185.76276191875,186.41635695208333,75.0,113.0
535,184.89770966875,186.52208556041666,59.0,103.0
536,186.33946341875,186.55092063541667,71.0,72.0
537,184.60935891875,186.68788724166666,51.0,106.0
538,186.62781416875,186.90174738125,66.0,70.0
539,187.49286641875,187.91578085208334,61.0,65.0
540,187.78121716875,188.21614621666666,64.0,85.0
541,188.35791866875,188.69192495416667,73.0,103.0
542,188.64626941875,188.82168279166666,68.0,72.0
543,188.06956791875,189.02593123958334,61.0,100.0
544,186.91616491875,189.0571692375,49.0,106.0
545,187.20451566875,189.0571692375,56.0,71.0
546,188.93462016875,189.0860043125,64.0,98.0
547,189.79967241875,190.14569331875,59.0,71.0
548,189.51132166874999,190.23219854375,54.0,85.0
549,190.08802316875,190.58302528958333,63.0,111.0
550,190.66472466875,190.92183742083333,71.0,103.0
551,190.37637391875,190.974701725,59.0,100.0
552,190.37637391875,191.00113387708333,54.0,70.0
553,190.95307541875,191.14290632916666,66.0,91.0
554,189.22297091875,191.37118400625,47.0,106.0
555,191.24142616875,191.5369856875,63.0,95.0
556,191.81812766875,192.08244918958334,52.0,65.0
557,192.10647841875,192.4597080875,57.0,75.0
558,192.10647841875,192.5029607,52.0,44.0
559,192.39482916875,192.90665175,61.0,111.0
560,192.97153066875,193.20701711458332,69.0,109.0
561,192.68317991875,193.3103428,57.0,95.0
562,192.68317991875,193.32716326041665,52.0,69.0
563,193.25988141875,193.46172694375,64.0,79.0
564,191.52977691875,193.75007769375,45.0,113.0
565,193.54823216875,193.82697122708333,61.0,98.0
566,194.70163516875,195.01401514791667,59.0,103.0
567,194.98998591875,195.24469574791667,66.0,111.0
568,195.27833666875,195.55947865,63.0,69.0
569,193.83658291875,195.73969786875,44.0,106.0
570,194.12493366875,195.82620309375,51.0,70.0
571,194.41328441875,195.84062063125,56.0,88.0
572,195.85503816875,196.07610707708332,63.0,77.0
573,195.56668741875,196.08331584583334,59.0,71.0
574,196.72009041875,197.09734931666668,54.0,75.0
575,197.00844116875,197.54669590208334,57.0,95.0
576,196.14338891875,197.78458527083333,42.0,113.0
577,197.58514266875,197.83264372916668,66.0,113.0
578,196.43173966875,197.87109049583333,49.0,68.0
579,197.29679191875,198.1690529375,54.0,91.0
580,197.87349341875,198.42616568958334,57.0,88.0
581,198.16184416875,198.47902999375,61.0,100.0
582,199.31524716875,199.56515115208333,63.0,100.0
583,199.60359791875,199.855904825,71.0,113.0
584,199.89194866875,200.13224096041665,66.0,98.0
585,198.45019491875,200.49267939791667,47.0,115.0
586,199.02689641875,200.53593201041667,59.0,91.0
587,198.73854566875,200.56476708541666,54.0,75.0
588,200.18029941875,200.74738922708335,63.0,109.0
589,200.46865016875,200.74738922708335,66.0,111.0
590,200.75700091875,201.04054582291667,52.0,79.0
591,203.65012011041668,203.96730593541668,65.0,91.0
592,203.36176936041667,204.0802433125,60.0,82.0
593,203.93847086041666,204.44789051875,69.0,113.0
594,204.51517236041667,204.74104711458332,77.0,109.0
595,204.22682161041666,204.78429972708332,65.0,106.0
596,204.80352311041668,205.00777155833333,72.0,98.0
597,204.22682161041666,205.09908262916667,60.0,70.0
598,203.07341861041667,205.24806385,53.0,113.0
599,205.09187386041665,205.36820999583333,69.0,103.0
600,205.95692611041667,206.15877163541666,67.0,91.0
601,206.24527686041665,206.46874869166666,72.0,100.0
602,206.53362761041666,207.18722264375,76.0,113.0
603,205.66857536041667,207.29295125208333,60.0,103.0
604,207.11032911041667,207.32178632708334,72.0,72.0
605,205.38022461041666,207.45875293333333,52.0,106.0
606,207.39867986041668,207.67261307291668,67.0,70.0
607,208.26373211041667,208.68664654375,62.0,65.0
608,208.55208286041668,208.98701190833333,65.0,85.0
609,209.12878436041666,209.46279064583334,74.0,103.0
610,209.41713511041667,209.59254848333333,69.0,72.0
611,208.84043361041665,209.79679693125,62.0,100.0
612,207.68703061041666,209.82803492916668,50.0,106.0
613,207.97538136041666,209.82803492916668,57.0,71.0
614,209.70548586041667,209.85687000416667,65.0,98.0
615,210.57053811041666,210.91655901041668,60.0,71.0
616,210.28218736041666,211.00306423541667,55.0,85.0
617,210.85888886041667,211.35389098125,64.0,111.0
618,211.43559036041665,211.6927031125,72.0,103.0
619,211.14723961041668,211.74556741666666,60.0,100.0
620,211.14723961041668,211.77199956875,55.0,70.0
621,211.72394111041666,211.91377202083333,67.0,91.0
622,209.99383661041668,212.14204969791666,48.0,106.0
623,212.01229186041667,212.30785137916666,64.0,95.0
624,212.58899336041668,212.85331488125,53.0,65.0
625,212.87734411041666,213.23057377916666,58.0,75.0
626,212.87734411041666,213.27382639166666,53.0,44.0
627,213.16569486041666,213.67751744166668,62.0,111.0
628,213.74239636041668,213.97788280625,70.0,109.0
629,213.45404561041667,214.08120849166667,58.0,95.0
630,213.45404561041667,214.09802895208333,53.0,69.0
631,214.03074711041666,214.23259263541667,65.0,79.0
632,212.30064261041667,214.52094338541667,46.0,113.0
633,214.31909786041666,214.59783691875,62.0,98.0
634,215.47250086041666,215.78488083958334,60.0,103.0
635,215.76085161041667,216.01556143958334,67.0,111.0
636,216.04920236041667,216.33034434166666,64.0,69.0
637,214.60744861041667,216.51056356041667,45.0,106.0
638,214.89579936041667,216.59706878541667,52.0,70.0
639,215.18415011041665,216.61148632291668,57.0,88.0
640,216.62590386041666,216.84697276875,64.0,77.0
641,216.33755311041668,216.8541815375,60.0,71.0
642,217.49095611041668,217.86821500833332,55.0,75.0
643,217.77930686041665,218.31756159374999,58.0,95.0
644,216.91425461041666,218.5554509625,43.0,113.0
645,218.35600836041667,218.60350942083332,67.0,113.0
646,217.20260536041667,218.6419561875,50.0,68.0
647,218.06765761041666,218.93991862916667,55.0,91.0
648,218.64435911041667,219.19703138125,58.0,88.0
649,218.93270986041668,219.24989568541667,62.0,100.0
650,220.08611286041668,220.33601684375,64.0,100.0
651,220.37446361041665,220.62677051666665,72.0,113.0
652,220.66281436041666,220.90310665208332,67.0,98.0
653,219.22106061041666,221.26354508958335,48.0,115.0
654,219.79776211041667,221.30679770208334,60.0,91.0
655,219.50941136041666,221.33563277708333,55.0,75.0
656,220.95116511041667,221.51825491875,64.0,109.0
657,221.23951586041667,221.53267245625,67.0,111.0
658,222.10456811041666,222.42175393541666,65.0,91.0
659,221.81621736041666,222.5346913125,60.0,82.0
660,222.39291886041667,222.90233851874999,69.0,113.0
661,222.96962036041666,223.19549511458334,77.0,109.0
662,222.68126961041668,223.23874772708334,65.0,106.0
663,223.25797111041666,223.46221955833335,72.0,98.0
664,222.68126961041668,223.55353062916666,60.0,70.0
665,221.52786661041668,223.69290015833334,53.0,115.0
666,223.54632186041667,223.82265799583334,69.0,103.0
667,224.41137411041666,224.61321963541667,67.0,91.0
668,224.69972486041667,224.92319669166667,72.0,100.0
669,224.98807561041667,225.64167064375,76.0,113.0
670,224.12302336041665,225.74739925208334,60.0,103.0
671,225.56477711041666,225.77623432708333,72.0,72.0
672,223.83467261041667,225.91320093333334,52.0,106.0
673,225.85312786041666,226.12706107291666,67.0,70.0
674,226.71818011041665,227.14109454375,62.0,65.0
675,227.00653086041666,227.44145990833334,65.0,85.0
676,227.58323236041667,227.91723864583332,74.0,103.0
677,227.87158311041668,228.04699648333334,69.0,72.0
678,227.29488161041667,228.25124493125,62.0,100.0
679,226.14147861041667,228.28248292916666,50.0,106.0
680,226.42982936041668,228.28248292916666,57.0,71.0
681,228.15993386041666,228.31131800416668,65.0,98.0
682,229.02498611041668,229.37100701041666,60.0,71.0
683,228.73663536041667,229.45751223541666,55.0,85.0
684,229.31333686041665,229.80833898125,64.0,111.0
685,229.89003836041667,230.1471511125,72.0,103.0
686,229.60168761041666,230.20001541666667,60.0,100.0
687,229.60168761041666,230.22644756875,55.0,70.0
688,230.17838911041667,230.36822002083332,67.0,91.0
689,228.44828461041666,230.59649769791667,48.0,106.0
690,230.46673986041665,230.76229937916668,64.0,95.0
691,231.04344136041667,231.30776288125,53.0,65.0
692,231.33179211041667,231.68502177916668,58.0,75.0
693,231.33179211041667,231.72827439166667,53.0,44.0
694,231.62014286041668,232.13196544166667,62.0,111.0
695,232.19684436041666,232.43233080625,70.0,109.0
696,231.90849361041666,232.53565649166666,58.0,95.0
697,231.90849361041666,232.55247695208334,53.0,69.0
698,232.48519511041667,232.68704063541668,65.0,79.0
699,230.75509061041666,232.97539138541666,46.0,113.0
700,232.77354586041668,233.05228491875,62.0,98.0
701,233.06189661041665,233.16041644999999,45.0,106.0
702,233.073911225,233.16041644999999,45.0,98.0
703,233.362261975,233.60255426666666,52.0,58.0
704,233.650612725,233.81641440625,57.0,66.0
705,234.227314225,234.77037480416666,57.0,75.0
706,234.515664975,234.78719526458335,62.0,51.0
707,233.938963475,234.89772971874999,50.0,109.0
708,235.092366475,235.26297400208333,69.0,14.0
709,234.804015725,235.30622661458332,65.0,77.0
710,235.957418725,236.3466922375,55.0,70.0
711,236.245769475,236.83208266666668,58.0,68.0
712,235.380717225,237.21414741041667,43.0,91.0
713,235.669067975,237.22375910208333,50.0,62.0
714,236.822470975,237.22375910208333,67.0,72.0
715,236.534120225,237.38956078333334,55.0,68.0
716,237.110821725,237.66349399583333,58.0,63.0
717,237.399172475,237.66829984166665,62.0,68.0
718,238.264224725,238.61264854791668,60.0,64.0
719,237.975873975,239.28306404166668,55.0,65.0
720,238.840926225,239.29988450208333,60.0,60.0
721,237.687523225,239.41041895625,48.0,91.0
722,238.552575475,239.97510584166668,64.0,91.0
723,240.57103072499999,240.88100778125,53.0,53.0
724,240.859381475,241.4216654375,57.0,68.0
725,241.436082975,241.69079280416668,60.0,69.0
726,241.724433725,242.37562583541666,57.0,64.0
727,240.282679975,242.85380749583334,48.0,12.0
728,239.994329225,242.95953610416666,41.0,95.0
729,241.147732225,243.0075945625,53.0,62.0
730,242.301135225,243.050847175,65.0,54.0
731,244.607941225,245.588333775,65.0,75.0
732,244.607941225,245.60996008125,72.0,75.0
733,245.761344225,246.72491631458334,65.0,70.0
734,245.761344225,246.72972216041666,72.0,72.0
735,246.914747225,247.92397485,65.0,70.0
736,246.914747225,247.92878069583332,72.0,71.0
737,248.068150225,249.17109184375,65.0,73.0
738,248.068150225,249.1783006125,72.0,91.0
739,249.221553225,250.0577704,62.0,71.0
740,249.221553225,250.0577704,65.0,70.0
741,250.374956225,251.37937800416665,62.0,68.0
742,250.374956225,251.38418385,65.0,68.0
743,251.528359225,252.57122777083333,60.0,75.0
744,251.528359225,252.57122777083333,64.0,77.0
745,252.681762225,253.70300446458333,60.0,77.0
746,252.681762225,253.70300446458333,64.0,95.0
747,253.835165225,254.85640746458333,58.0,91.0
748,253.835165225,254.86121331041667,62.0,88.0
749,254.988568225,256.1660004541667,58.0,88.0
750,254.988568225,256.1756121458333,62.0,103.0
751,256.141971225,257.0190380895833,57.0,100.0
752,256.141971225,257.0214410125,60.0,103.0
753,257.295374225,258.45118014791666,57.0,85.0
754,257.295374225,258.45118014791666,60.0,100.0
755,258.3166164645833,258.51365614375,55.0,68.0
756,258.391107075,258.5160590666667,58.0,70.0
757,258.47040353125,260.59218446666665,65.0,69.0
758,260.755583225,261.7119465458333,62.0,64.0
759,260.755583225,261.73357285208334,67.0,64.0
760,260.755583225,261.74318454375,60.0,59.0
761,261.908986225,263.15129737291664,64.0,52.0
762,261.908986225,263.1585061416667,67.0,54.0
763,263.062389225,265.36198645625,65.0,52.0
764,263.062389225,265.41725368333334,60.0,52.0
765,263.062389225,265.54941444375,53.0,53.0
