,start,end,pitch,velocity
0,18.21321586666667,18.321671633333334,65.0,83.0
1,18.43380386666667,18.724244733333336,70.0,100.0
2,18.874979866666667,19.11762666666667,69.0,100.0
3,19.31615586666667,19.590052633333336,70.0,117.0
4,19.757331866666668,19.85292,72.0,97.0
5,19.977919866666667,21.0496099,72.0,107.0
6,21.74262386666667,21.82534436666667,69.0,90.0
7,21.96321186666667,22.319829133333336,70.0,112.0
8,22.404387866666667,22.593725900000003,69.0,99.0
9,22.84556386666667,23.12681356666667,67.0,112.0
10,23.286739866666668,23.367622133333334,65.0,92.0
11,23.507327866666667,24.667253100000003,65.0,99.0
12,25.49261986666667,25.80695776666667,67.0,99.0
13,25.933795866666667,26.060633966666668,69.0,93.0
14,26.15438386666667,26.628648066666667,70.0,99.0
15,26.816147866666668,27.045927033333335,72.0,97.0
16,27.036735866666668,27.511000066666668,65.0,97.0
17,27.69849986666667,27.823499733333335,70.0,112.0
18,27.91908786666667,28.465043166666668,70.0,117.0
19,28.80143986666667,28.948498533333336,65.0,93.0
20,29.02202786666667,29.3823216,75.0,96.0
21,29.463203866666667,29.696659500000003,74.0,99.0
22,29.90437986666667,30.13599726666667,72.0,96.0
23,30.34555586666667,30.442982233333336,70.0,102.0
24,30.566143866666668,32.062465800000005,72.0,100.0
25,32.330847866666666,32.448494800000006,65.0,86.0
26,32.55143586666667,32.884156100000006,70.0,117.0
27,32.99261186666667,33.20768516666667,69.0,93.0
28,33.43378786666667,33.7334199,70.0,112.0
29,33.87496386666667,33.95216966666667,72.0,93.0
30,34.09555186666667,35.35841816666667,72.0,100.0
31,35.86025586666667,35.966873400000004,69.0,90.0
32,36.08084386666667,36.4135641,70.0,112.0
33,36.52201986666667,36.86393126666667,69.0,79.0
34,36.963195866666666,37.25363673333334,70.0,102.0
35,37.40437186666667,37.72238623333334,79.0,100.0
36,37.84554786666667,38.1396652,79.0,122.0
37,38.28672386666667,38.37312083333334,77.0,100.0
38,38.50731186666667,39.01834073333334,77.0,102.0
39,39.38966386666667,39.689295900000005,74.0,100.0
40,39.83083986666667,41.084515,75.0,112.0
41,41.15436786666667,41.35841176666667,67.0,97.0
42,41.37495586666667,41.75730840000001,75.0,97.0
43,41.81613186666667,42.09738156666667,74.0,107.0
44,42.25730786666667,42.58818986666667,67.0,99.0
45,42.69848386666667,42.82532196666667,69.0,95.0
46,42.91907186666667,44.95767263333334,70.0,102.0
47,46.00730386666667,46.21134776666667,70.0,97.0
48,46.22789186666667,46.46502396666667,75.0,100.0
49,46.44847986666667,46.6764208,77.0,95.0
50,46.66906786666667,47.12862620000001,79.0,102.0
51,47.55141986666667,47.828993100000005,79.0,122.0
52,47.99259586666667,48.07531636666667,79.0,99.0
53,48.21318386666667,48.46502183333334,79.0,117.0
54,48.87494786666667,48.95215366666667,77.0,112.0
55,49.09553586666667,49.571638300000004,72.0,100.0
56,49.75729986666667,50.11024066666667,72.0,100.0
57,50.19847586666667,50.57899016666667,74.0,127.0
58,50.63965186666667,50.89700453333334,77.0,99.0
59,51.080827866666674,51.44479806666667,72.0,96.0
60,51.52200386666667,51.7995771,77.0,99.0
61,51.96317986666667,53.04222283333334,70.0,107.0
62,53.06611986666667,53.14700213333334,70.0,107.0
63,53.286707866666674,53.36391366666667,75.0,127.0
64,53.507295866666674,53.60472223333334,77.0,93.0
65,53.72788386666667,54.40251550000001,79.0,107.0
66,54.61023586666667,54.86758853333334,79.0,122.0
67,55.05141186666667,55.13229413333334,79.0,107.0
68,55.27199986666667,55.52935253333334,79.0,127.0
69,55.93376386666667,56.16905773333334,77.0,112.0
70,56.37493986666667,56.6028808,72.0,102.0
71,56.81611586666667,56.961336300000006,77.0,117.0
72,57.25729186666667,58.52015816666667,74.0,122.0
73,60.12493586666667,60.349200333333336,70.0,92.0
74,60.345523866666674,60.520156033333336,75.0,117.0
75,60.566111866666674,60.86206743333334,77.0,86.0
76,60.78669986666667,61.54405200000001,79.0,102.0
77,61.66905186666667,61.92824276666667,78.0,127.0
78,62.11022786666667,62.218683633333335,79.0,99.0
79,62.33081586666667,62.814271233333336,81.0,122.0
80,62.992579866666674,63.26831486666667,74.0,100.0
81,63.43375586666667,63.65985856666667,74.0,107.0
82,63.87493186666667,64.12309336666667,81.0,112.0
83,64.31610786666667,65.08816586666667,82.0,127.0
84,65.19845986666667,65.8730915,81.0,127.0
85,66.08081186666668,67.08264903333334,79.0,112.0
86,67.62492786666667,67.82713353333334,79.0,112.0
87,67.84551586666667,68.10286853333334,77.0,102.0
88,68.28669186666667,68.38595646666667,70.0,107.0
89,68.50727986666668,68.91352943333334,70.0,102.0
90,69.38963186666668,69.60470516666668,79.0,122.0
91,69.61021986666667,70.0422047,77.0,95.0
92,70.05139586666667,70.47970423333334,74.0,97.0
93,70.49257186666667,70.79955683333334,72.0,97.0
94,70.93374786666668,71.2223505,70.0,112.0
95,71.37492386666668,73.65617143333334,72.0,117.0
96,74.02197986666667,74.21867083333333,70.0,122.0
97,74.46315586666667,74.64146450000001,72.0,97.0
98,74.90433186666667,75.32712553333334,74.0,117.0
99,75.56609586666667,75.64697813333333,74.0,100.0
100,75.78668386666668,75.87308083333333,74.0,92.0
101,76.00727186666667,76.12308056666667,75.0,117.0
102,76.22785986666668,76.30506566666668,74.0,99.0
103,76.44844786666667,77.02749136666667,72.0,107.0
104,77.11021186666667,77.2002853,77.0,100.0
105,77.33079986666667,78.0054315,77.0,117.0
106,78.43373986666667,78.81976886666668,82.0,127.0
107,79.09550386666668,79.17270966666668,82.0,117.0
108,79.31609186666667,79.40432706666667,82.0,112.0
109,79.53667986666667,79.6763856,84.0,96.0
110,79.75726786666667,79.86020893333334,82.0,112.0
111,79.97785586666667,80.21498796666667,81.0,127.0
112,80.63961986666668,80.72785506666668,77.0,102.0
113,80.86020786666667,81.15064873333334,77.0,117.0
114,81.96314786666667,82.37307390000001,79.0,122.0
115,82.62491186666668,82.70395590000001,79.0,112.0
116,82.84549986666667,82.94476446666667,79.0,122.0
117,83.06608786666668,83.20763183333334,81.0,112.0
118,83.28667586666667,83.40799926666668,79.0,99.0
119,83.50726386666668,83.8068959,77.0,107.0
120,84.16902786666667,84.2535866,70.0,112.0
121,84.38961586666667,84.66167440000001,70.0,127.0
122,85.27196786666667,85.47601176666667,67.0,86.0
123,85.49255586666668,85.81240846666667,75.0,107.0
124,86.15431986666667,86.23704036666668,75.0,122.0
125,86.37490786666667,86.4760107,75.0,112.0
126,86.59549586666667,86.72049573333334,77.0,93.0
127,86.81608386666667,87.1488041,74.0,117.0
128,87.25725986666667,87.70762703333334,72.0,122.0
129,88.13961186666667,88.45211153333334,70.0,127.0
130,88.58078786666667,88.84733170000001,72.0,100.0
131,89.02196386666667,89.51828686666667,74.0,127.0
132,89.68372786666667,89.7627719,74.0,102.0
133,89.90431586666668,90.00174223333335,74.0,97.0
134,90.12490386666667,90.24622726666668,75.0,102.0
135,90.34549186666668,90.42085943333333,74.0,107.0
136,90.56607986666667,91.15431453333333,72.0,100.0
137,91.22784386666667,91.31056436666667,77.0,99.0
138,91.44843186666667,92.08078413333334,77.0,127.0
139,92.55137186666667,93.1377683,82.0,127.0
140,93.21313586666668,93.30137106666668,82.0,117.0
141,93.43372386666667,93.65798833333334,84.0,107.0
142,93.87489986666668,93.98335563333335,82.0,127.0
143,94.09548786666667,94.59916380000001,81.0,127.0
144,94.75725186666668,94.8418106,77.0,99.0
145,94.97783986666667,95.5256334,77.0,122.0
146,95.86019186666667,96.11386806666667,70.0,107.0
147,96.30136786666668,97.05872000000001,79.0,100.0
148,97.62489586666668,97.7480575,70.0,117.0
149,97.84548386666667,99.06055610000001,77.0,122.0
150,99.38959986666667,99.46129096666668,74.0,96.0
151,99.61018786666668,99.84364350000001,75.0,127.0
152,100.05136386666668,100.36937823333334,74.0,112.0
153,100.49253986666668,100.73334843333335,72.0,102.0
154,100.93371586666667,101.19290676666668,70.0,117.0
155,101.37489186666667,101.67452390000001,67.0,100.0
156,102.25724386666667,102.73518453333334,70.0,127.0
157,102.91900786666667,103.01091953333334,70.0,112.0
158,103.13959586666668,105.21128483333334,70.0,127.0
159,117.03663986666668,117.14509563333334,65.0,83.0
160,117.25722786666668,117.54766873333334,70.0,100.0
161,117.69840386666668,117.94105066666667,69.0,100.0
162,118.13957986666668,118.41347663333335,70.0,117.0
163,118.58075586666668,118.67634400000001,72.0,97.0
164,118.80134386666667,119.87303390000001,72.0,107.0
165,120.56604786666668,120.64876836666667,69.0,90.0
166,120.78663586666667,121.14325313333335,70.0,112.0
167,121.22781186666667,121.41714990000001,69.0,99.0
168,121.66898786666668,121.95023756666667,67.0,112.0
169,122.11016386666668,122.19104613333334,65.0,92.0
170,122.33075186666667,123.49067710000001,65.0,99.0
171,124.31604386666667,124.63038176666667,67.0,99.0
172,124.75721986666667,124.88405796666667,69.0,93.0
173,124.97780786666668,125.45207206666667,70.0,99.0
174,125.63957186666667,125.86935103333334,72.0,97.0
175,125.86015986666668,126.33442406666667,65.0,97.0
176,126.52192386666668,126.64692373333334,70.0,112.0
177,126.74251186666667,127.28846716666668,70.0,117.0
178,127.62486386666667,127.77192253333334,65.0,93.0
179,127.84545186666668,128.2057456,75.0,96.0
180,128.28662786666666,128.5200835,74.0,99.0
181,128.72780386666668,128.95942126666668,72.0,96.0
182,129.1689798666667,129.26640623333336,70.0,102.0
183,129.38956786666668,130.8858898,72.0,100.0
184,131.15427186666668,131.2719188,65.0,86.0
185,131.37485986666667,131.7075801,70.0,117.0
186,131.81603586666668,132.03110916666668,69.0,93.0
187,132.25721186666667,132.55684390000002,70.0,112.0
188,132.69838786666668,132.77559366666668,72.0,93.0
189,132.91897586666667,134.18184216666668,72.0,100.0
190,134.68367986666667,134.79029740000001,69.0,90.0
191,134.9042678666667,135.23698810000002,70.0,112.0
192,135.34544386666667,135.68735526666669,69.0,79.0
193,135.78661986666668,136.07706073333335,70.0,102.0
194,136.22779586666667,136.54581023333336,79.0,100.0
195,136.66897186666668,136.9630892,79.0,122.0
196,137.11014786666667,137.19654483333335,77.0,100.0
197,137.33073586666669,137.84176473333335,77.0,102.0
198,138.21308786666668,138.5127199,74.0,100.0
199,138.65426386666667,139.907939,75.0,112.0
200,139.97779186666668,140.18183576666667,67.0,97.0
201,140.19837986666667,140.58073240000002,75.0,97.0
202,140.63955586666668,140.92080556666667,74.0,107.0
203,141.08073186666667,141.41161386666667,67.0,99.0
204,141.52190786666668,141.64874596666667,69.0,95.0
205,141.74249586666667,143.78109663333333,70.0,102.0
206,144.83072786666668,145.03477176666667,70.0,97.0
207,145.05131586666667,145.28844796666667,75.0,100.0
208,145.2719038666667,145.4998448,77.0,95.0
209,145.49249186666668,145.9520502,79.0,102.0
210,146.37484386666668,146.6524171,79.0,122.0
211,146.81601986666666,146.8987403666667,79.0,99.0
212,147.03660786666669,147.28844583333336,79.0,117.0
213,147.6983718666667,147.7755776666667,77.0,112.0
214,147.91895986666668,148.3950623,72.0,100.0
215,148.5807238666667,148.9336646666667,72.0,100.0
216,149.02189986666667,149.4024141666667,74.0,127.0
217,149.46307586666668,149.72042853333335,77.0,99.0
218,149.90425186666667,150.26822206666668,72.0,96.0
219,150.34542786666668,150.6230011,77.0,99.0
220,150.78660386666667,151.86564683333336,70.0,107.0
221,151.88954386666668,151.97042613333335,70.0,107.0
222,152.11013186666668,152.18733766666668,75.0,127.0
223,152.33071986666667,152.42814623333334,77.0,93.0
224,152.5513078666667,153.2259395,79.0,107.0
225,153.4336598666667,153.69101253333335,79.0,122.0
226,153.87483586666667,153.95571813333333,79.0,107.0
227,154.0954238666667,154.35277653333335,79.0,127.0
228,154.75718786666667,154.99248173333334,77.0,112.0
229,155.19836386666668,155.42630480000003,72.0,102.0
230,155.63953986666667,155.78476030000002,77.0,117.0
231,156.08071586666668,157.3435821666667,74.0,122.0
232,158.9483598666667,159.17262433333335,70.0,92.0
233,159.16894786666668,159.34358003333335,75.0,117.0
234,159.38953586666668,159.68549143333334,77.0,86.0
235,159.61012386666667,160.367476,79.0,102.0
236,160.49247586666667,160.7516667666667,78.0,127.0
237,160.93365186666668,161.04210763333336,79.0,99.0
238,161.15423986666667,161.63769523333335,81.0,122.0
239,161.81600386666668,162.09173886666667,74.0,100.0
240,162.2571798666667,162.48328256666667,74.0,107.0
241,162.69835586666667,162.94651736666668,81.0,112.0
242,163.1395318666667,163.91158986666667,82.0,127.0
243,164.02188386666668,164.6965155,81.0,127.0
244,164.90423586666668,165.90607303333334,79.0,112.0
245,166.44835186666668,166.65055753333334,79.0,112.0
246,166.66893986666668,166.92629253333334,77.0,102.0
247,167.1101158666667,167.2093804666667,70.0,107.0
248,167.33070386666668,167.73695343333335,70.0,102.0
249,168.21305586666668,168.42812916666668,79.0,122.0
250,168.43364386666667,168.8656287,77.0,95.0
251,168.87481986666668,169.30312823333335,74.0,97.0
252,169.31599586666667,169.62298083333334,72.0,97.0
253,169.75717186666668,170.04577450000002,70.0,112.0
254,170.19834786666667,172.47959543333334,72.0,117.0
255,172.8454038666667,173.04209483333335,70.0,122.0
256,173.28657986666667,173.4648885,72.0,97.0
257,173.72775586666668,174.15054953333333,74.0,117.0
258,174.3895198666667,174.47040213333335,74.0,100.0
259,174.61010786666668,174.69650483333334,74.0,92.0
260,174.83069586666667,174.94650456666668,75.0,117.0
261,175.0512838666667,175.12848966666667,74.0,99.0
262,175.2718718666667,175.85091536666667,72.0,107.0
263,175.9336358666667,176.0237093,77.0,100.0
264,176.15422386666668,176.8288555,77.0,117.0
265,177.25716386666667,177.64319286666668,82.0,127.0
266,177.91892786666668,177.99613366666668,82.0,117.0
267,178.13951586666667,178.22775106666668,82.0,112.0
268,178.3601038666667,178.49980960000002,84.0,96.0
269,178.58069186666668,178.68363293333334,82.0,112.0
270,178.80127986666668,179.03841196666667,81.0,127.0
271,179.46304386666668,179.5512790666667,77.0,102.0
272,179.68363186666667,179.97407273333334,77.0,117.0
273,180.7865718666667,181.19649790000003,79.0,122.0
274,181.44833586666667,181.5273799,79.0,112.0
275,181.6689238666667,181.7681884666667,79.0,122.0
276,181.88951186666668,182.03105583333334,81.0,112.0
277,182.11009986666667,182.23142326666667,79.0,99.0
278,182.3306878666667,182.63031990000002,77.0,107.0
279,182.99245186666667,183.07701060000002,70.0,112.0
280,183.2130398666667,183.48509840000003,70.0,127.0
281,184.0953918666667,184.29943576666668,67.0,86.0
282,184.31597986666668,184.63583246666667,75.0,107.0
283,184.97774386666669,185.06046436666668,75.0,122.0
284,185.19833186666668,185.2994347,75.0,112.0
285,185.41891986666667,185.54391973333335,77.0,93.0
286,185.6395078666667,185.97222810000002,74.0,117.0
287,186.08068386666667,186.53105103333334,72.0,122.0
288,186.96303586666667,187.27553553333334,70.0,127.0
289,187.40421186666669,187.6707557,72.0,100.0
290,187.84538786666667,188.3417108666667,74.0,127.0
291,188.50715186666667,188.5861959,74.0,102.0
292,188.72773986666667,188.82516623333333,74.0,97.0
293,188.9483278666667,189.06965126666668,75.0,102.0
294,189.16891586666668,189.24428343333335,74.0,107.0
295,189.38950386666667,189.97773853333334,72.0,100.0
296,190.05126786666668,190.13398836666667,77.0,99.0
297,190.27185586666667,190.90420813333336,77.0,127.0
298,191.3747958666667,191.96119230000002,82.0,127.0
299,192.0365598666667,192.12479506666668,82.0,117.0
300,192.25714786666668,192.48141233333334,84.0,107.0
301,192.69832386666667,192.80677963333335,82.0,127.0
302,192.9189118666667,193.4225878,81.0,127.0
303,193.5806758666667,193.66523460000002,77.0,99.0
304,193.8012638666667,194.34905740000002,77.0,122.0
305,194.68361586666668,194.93729206666669,70.0,107.0
306,195.12479186666667,195.882144,79.0,100.0
307,196.44831986666668,196.5714815,70.0,117.0
308,196.66890786666667,197.8839801,77.0,122.0
309,198.21302386666667,198.28471496666668,74.0,96.0
310,198.4336118666667,198.6670675,75.0,127.0
311,198.87478786666668,199.19280223333334,74.0,112.0
312,199.3159638666667,199.55677243333335,72.0,102.0
313,199.75713986666668,200.01633076666667,70.0,117.0
314,200.1983158666667,200.4979479,67.0,100.0
315,201.0806678666667,201.55860853333334,70.0,127.0
316,201.7424318666667,201.83434353333334,70.0,112.0
317,229.3159318666667,229.51262283333335,70.0,122.0
318,229.75710786666667,229.93541650000003,72.0,97.0
319,230.19828386666669,230.62107753333336,74.0,117.0
320,230.8600478666667,230.94093013333335,74.0,100.0
321,231.08063586666668,231.16703283333334,74.0,92.0
322,231.30122386666667,231.41703256666668,75.0,117.0
323,231.5218118666667,231.5990176666667,74.0,99.0
324,231.7423998666667,232.32144336666667,72.0,107.0
325,232.4041638666667,232.4942373,77.0,100.0
326,232.62475186666668,233.2993835,77.0,117.0
327,233.72769186666667,234.11372086666668,82.0,127.0
328,234.38945586666668,234.46666166666668,82.0,117.0
329,234.61004386666667,234.6982790666667,82.0,112.0
330,234.8306318666667,234.97033760000002,84.0,96.0
331,235.05121986666668,235.15416093333334,82.0,112.0
332,235.27180786666668,235.50893996666667,81.0,127.0
333,235.93357186666668,236.0218070666667,77.0,102.0
334,236.15415986666667,236.44460073333335,77.0,117.0
335,237.2570998666667,237.66702590000003,79.0,122.0
336,237.9188638666667,237.99790790000003,79.0,112.0
337,238.1394518666667,238.2387164666667,79.0,122.0
338,238.36003986666668,238.50158383333334,81.0,112.0
339,238.58062786666667,238.7019512666667,79.0,99.0
340,238.8012158666667,239.10084790000002,77.0,107.0
341,239.46297986666667,239.54753860000002,70.0,112.0
342,239.6835678666667,239.95562640000003,70.0,127.0
343,240.5659198666667,240.76996376666668,67.0,86.0
344,240.78650786666668,241.10636046666667,75.0,107.0
345,241.4482718666667,241.53099236666668,75.0,122.0
346,241.66885986666668,241.7699627,75.0,112.0
347,241.88944786666667,242.01444773333336,77.0,93.0
348,242.1100358666667,242.44275610000003,74.0,117.0
349,242.55121186666668,243.00157903333334,72.0,122.0
350,243.44091680000002,243.7534164666667,71.0,127.0
351,243.8747398666667,244.14128370000003,73.0,100.0
352,244.31591586666667,244.8122388666667,75.0,127.0
353,244.97767986666668,245.0567239,75.0,102.0
354,245.1982678666667,245.29569423333336,75.0,97.0
355,245.4188558666667,245.54017926666668,76.0,102.0
356,245.63944386666668,245.71481143333335,75.0,107.0
357,245.86003186666667,246.44826653333334,73.0,100.0
358,246.52179586666668,246.60451636666667,78.0,99.0
359,246.7423838666667,247.37473613333336,78.0,127.0
360,247.8453238666667,248.43172030000002,83.0,127.0
361,248.5070878666667,248.59532306666668,83.0,117.0
362,248.7276758666667,248.95194033333334,85.0,107.0
363,249.1688518666667,249.27730763333335,83.0,127.0
364,249.3894398666667,249.89311580000003,82.0,127.0
365,250.0512038666667,250.13576260000002,78.0,99.0
366,250.2717918666667,250.81958540000002,78.0,122.0
367,251.1541438666667,251.4078200666667,71.0,107.0
368,251.5953198666667,252.352672,80.0,100.0
369,252.91884786666668,253.0420095,71.0,117.0
370,253.13943586666667,254.35450810000003,78.0,122.0
371,254.68355186666668,254.75524296666669,75.0,96.0
372,254.9041398666667,255.13759550000003,76.0,127.0
373,255.34531586666668,255.66333023333334,75.0,112.0
374,255.7864918666667,256.0273004333334,73.0,102.0
375,256.2276678666667,256.48685876666667,71.0,117.0
376,256.6688438666667,256.96847590000004,68.0,100.0
377,257.55119586666666,257.7478868333333,70.0,122.0
378,257.9923718666667,258.1706805,72.0,97.0
379,258.4335478666667,258.85634153333336,75.0,117.0
380,259.0953118666667,259.17619413333335,75.0,100.0
381,259.3158998666667,259.40229683333337,75.0,92.0
382,259.5364878666667,259.6522965666667,76.0,117.0
383,259.7570758666667,259.8342816666667,75.0,99.0
384,259.97766386666666,260.55670736666667,73.0,107.0
385,260.63942786666667,260.72950130000004,78.0,100.0
386,260.8600158666667,261.5346475,78.0,117.0
387,261.9629558666667,262.3489848666667,83.0,127.0
388,262.6247198666667,262.7019256666667,83.0,117.0
389,262.8453078666667,262.9335430666667,83.0,112.0
390,263.06589586666666,263.2056016,85.0,96.0
391,263.2864838666667,263.3894249333334,83.0,112.0
392,263.5070718666667,263.7442039666667,82.0,127.0
393,264.1688358666667,264.2570710666667,78.0,102.0
394,264.3894238666667,264.6798647333334,78.0,117.0
395,265.49236386666666,265.9022899,80.0,122.0
396,266.15412786666667,266.2331719,80.0,112.0
397,266.3747158666667,266.47398046666666,80.0,122.0
398,266.5953038666667,266.73684783333334,82.0,112.0
399,266.8158918666667,266.93721526666667,80.0,99.0
400,267.0364798666667,267.33611190000005,78.0,107.0
401,267.6982438666667,267.7828026,71.0,112.0
402,267.91883186666666,268.1908904,71.0,127.0
403,268.8011838666667,269.0052277666667,68.0,86.0
404,269.0217718666667,269.3416244666667,76.0,107.0
405,269.68353586666666,269.7662563666667,76.0,122.0
406,269.9041238666667,270.00522670000004,76.0,112.0
407,270.1247118666667,270.24971173333336,78.0,93.0
408,270.34529986666666,270.6780201,75.0,117.0
409,270.7864758666667,271.23684303333334,73.0,122.0
410,271.6688278666667,271.98132753333334,71.0,127.0
411,272.11000386666666,272.3765477,73.0,100.0
412,272.5511798666667,273.04750286666666,75.0,127.0
413,273.2129438666667,273.29198790000004,75.0,102.0
414,273.43353186666667,273.53095823333337,75.0,97.0
415,273.6541198666667,273.7754432666667,76.0,102.0
416,273.8747078666667,273.9500754333334,75.0,107.0
417,274.0952958666667,274.68353053333334,73.0,100.0
418,274.7570598666667,274.8397803666667,78.0,99.0
419,274.9776478666667,275.61000013333336,78.0,127.0
420,276.0805878666667,276.6669843,83.0,127.0
421,276.7423518666667,276.8305870666667,83.0,117.0
422,276.9629398666667,277.18720433333334,85.0,107.0
423,277.4041158666667,277.5125716333334,83.0,127.0
424,277.62470386666666,278.1283798,82.0,127.0
425,278.28646786666667,278.3710266,78.0,99.0
426,278.5070558666667,279.0548494,78.0,122.0
427,279.3894078666667,279.6430840666667,71.0,107.0
428,279.8305838666667,280.587936,80.0,100.0
429,281.1541118666667,281.27727350000004,71.0,117.0
430,281.3746998666667,282.5897721,78.0,122.0
431,282.9188158666667,282.9905069666667,75.0,96.0
432,283.13940386666667,283.3728595,76.0,127.0
433,283.5805798666667,283.89859423333337,75.0,112.0
434,284.0217558666667,284.26256443333335,73.0,102.0
435,284.4629318666667,284.7221227666667,71.0,117.0
436,284.90410786666666,285.2037399,68.0,100.0
437,285.7864598666667,286.15594476666666,71.0,127.0
438,286.67065010000005,287.0180762,71.0,112.0
439,287.1210172666667,290.7882927666667,71.0,117.0
440,293.492334,293.6449073666667,75.0,122.0
441,293.7460102,294.1577744666667,76.0,100.0
442,294.1761568,294.6779945,75.0,100.0
443,294.61733280000004,295.1522587,73.0,122.0
444,295.0438029333334,295.4151260666667,71.0,100.0
445,295.4721113,297.7478441666667,68.0,122.0
446,298.6963725666667,299.3912247666667,71.0,102.0
447,299.57872456666666,299.8728419,71.0,112.0
448,300.06034170000004,305.5180564666667,71.0,127.0
