,start,end,pitch,velocity
0,0.7867638666666668,1.4466896333333334,65.0,44.0
1,0.7867638666666668,1.6249982666666667,46.0,95.0
2,0.7867638666666668,1.6360276666666669,62.0,66.0
3,0.7867638666666668,1.6838217333333334,58.0,89.0
4,1.6691158666666668,2.3621298333333334,45.0,75.0
5,1.6691158666666668,2.3897033333333337,57.0,78.0
6,2.330879866666667,3.8382312000000005,58.0,79.0
7,2.330879866666667,3.845584133333334,62.0,65.0
8,2.330879866666667,3.847422366666667,65.0,74.0
9,2.330879866666667,3.8492606000000005,46.0,72.0
10,3.874995866666667,4.202201400000001,65.0,92.0
11,3.874995866666667,4.259186633333334,50.0,96.0
12,3.874995866666667,4.314333633333334,62.0,86.0
13,4.316171866666667,5.1948474000000004,63.0,93.0
14,4.316171866666667,5.198523866666667,51.0,93.0
15,4.316171866666667,5.213229733333334,67.0,77.0
16,5.198523866666667,5.9540377666666675,60.0,90.0
17,5.198523866666667,5.981611266666667,57.0,90.0
18,5.198523866666667,6.0551406000000005,45.0,92.0
19,5.213229733333334,6.080875866666667,65.0,88.0
20,6.080875866666667,6.919110266666667,55.0,82.0
21,6.080875866666667,6.931977900000001,58.0,96.0
22,6.080875866666667,6.939330833333334,62.0,81.0
23,6.080875866666667,6.963227866666667,43.0,77.0
24,6.963227866666667,7.794109333333334,57.0,88.0
25,6.963227866666667,7.797785800000001,53.0,89.0
26,6.963227866666667,7.799624033333334,60.0,81.0
27,6.963227866666667,7.845579866666667,41.0,85.0
28,7.845579866666667,8.270211766666668,58.0,82.0
29,7.845579866666667,8.560652633333333,55.0,67.0
30,8.286755866666667,8.825358233333334,51.0,85.0
31,7.845579866666667,9.588225066666668,39.0,99.0
32,8.948519866666667,9.591901533333335,51.0,61.0
33,9.169107866666668,9.643372066666668,55.0,85.0
34,8.507343866666668,9.659916166666667,58.0,99.0
35,9.610283866666668,9.92646,57.0,86.0
36,9.610283866666668,10.181974433333334,53.0,86.0
37,10.051459866666667,10.569841666666667,50.0,63.0
38,10.933811866666668,11.3547673,50.0,68.0
39,10.272047866666668,11.3768261,53.0,89.0
40,10.272047866666668,11.378664333333335,57.0,83.0
41,9.610283866666668,11.428296633333334,38.0,83.0
42,11.374987866666668,11.873149100000001,60.0,89.0
43,11.374987866666668,11.880502033333334,55.0,92.0
44,11.374987866666668,11.893369666666668,63.0,90.0
45,11.374987866666668,12.0937371,36.0,56.0
46,11.374987866666668,12.099251800000001,48.0,82.0
47,11.374987866666668,12.187487,43.0,71.0
48,12.257339866666667,12.707707033333334,62.0,92.0
49,12.257339866666667,12.7830746,65.0,89.0
50,12.257339866666667,13.128662466666668,57.0,92.0
51,12.257339866666667,13.156235966666667,38.0,83.0
52,13.139691866666668,14.045940900000002,63.0,100.0
53,13.139691866666668,14.064323233333335,39.0,95.0
54,13.139691866666668,14.064323233333335,67.0,90.0
55,14.022043866666667,18.38417156666667,65.0,89.0
56,14.022043866666667,18.398877433333336,60.0,93.0
57,14.022043866666667,18.400715666666667,53.0,85.0
58,14.022043866666667,18.415421533333333,48.0,74.0
59,14.022043866666667,18.435642100000003,41.0,59.0
60,18.43380386666667,18.957700366666668,58.0,71.0
61,18.43380386666667,19.18380306666667,62.0,64.0
62,18.43380386666667,19.237111833333334,65.0,74.0
63,18.874979866666667,19.577185,50.0,41.0
64,18.43380386666667,19.617626133333335,46.0,79.0
65,19.31615586666667,19.81799356666667,58.0,90.0
66,19.757331866666668,20.783066066666667,65.0,29.0
67,20.198507866666667,21.226080300000003,57.0,73.0
68,19.757331866666668,21.226080300000003,62.0,56.0
69,20.198507866666667,21.31247726666667,45.0,64.0
70,21.080859866666668,21.952182466666667,65.0,76.0
71,21.52203586666667,22.0643147,57.0,60.0
72,21.301447866666667,22.189314566666667,62.0,72.0
73,22.404387866666667,23.009166633333336,50.0,60.0
74,21.96321186666667,23.08821066666667,43.0,72.0
75,22.84556386666667,23.768357,58.0,78.0
76,22.84556386666667,23.829018700000002,62.0,72.0
77,24.38967986666667,24.628650200000003,57.0,59.0
78,24.16909186666667,24.689311900000003,53.0,61.0
79,24.830855866666667,24.948502800000004,53.0,72.0
80,23.94850386666667,25.014679200000003,48.0,56.0
81,23.727915866666667,25.05144386666667,41.0,76.0
82,24.610267866666668,25.05144386666667,60.0,95.0
83,25.05144386666667,25.490781633333334,57.0,66.0
84,25.49261986666667,26.240780833333336,63.0,83.0
85,25.49261986666667,26.295927833333334,58.0,86.0
86,25.933795866666667,26.4981335,51.0,58.0
87,26.37497186666667,26.50180996666667,58.0,70.0
88,26.37497186666667,26.534898166666668,63.0,74.0
89,25.49261986666667,26.645192166666668,39.0,99.0
90,27.25732386666667,27.3473973,38.0,68.0
91,27.25732386666667,28.1029112,62.0,79.0
92,27.69849986666667,28.226072833333337,50.0,40.0
93,27.91908786666667,28.227911066666667,53.0,62.0
94,27.25732386666667,28.249969866666667,69.0,72.0
95,28.139675866666668,28.264675733333334,57.0,100.0
96,27.25732386666667,28.2738669,65.0,72.0
97,28.360263866666667,28.50364606666667,69.0,37.0
98,28.360263866666667,28.6488665,62.0,90.0
99,28.58085186666667,28.80143986666667,65.0,82.0
100,28.80143986666667,28.874969200000002,62.0,34.0
101,29.463203866666667,29.968718033333335,55.0,52.0
102,29.02202786666667,29.99261506666667,48.0,77.0
103,29.90437986666667,30.33452646666667,67.0,69.0
104,29.90437986666667,30.509158633333335,63.0,95.0
105,30.78673186666667,30.821658300000003,69.0,38.0
106,30.34555586666667,30.87496706666667,60.0,61.0
107,30.78673186666667,30.884158233333334,65.0,66.0
108,31.44849586666667,31.643348600000003,55.0,72.0
109,31.22790786666667,31.753642600000003,53.0,82.0
110,30.78673186666667,32.150701000000005,41.0,81.0
111,31.669083866666668,32.1727598,60.0,96.0
112,31.00731986666667,32.189303900000006,48.0,63.0
113,31.88967186666667,32.283053800000005,53.0,61.0
114,32.11025986666667,32.4870977,57.0,66.0
115,32.55143586666667,33.363935000000005,62.0,86.0
116,32.55143586666667,33.415405533333335,58.0,95.0
117,32.55143586666667,33.970552000000005,46.0,96.0
118,33.43378786666667,34.0863607,58.0,57.0
119,33.43378786666667,34.17091943333334,65.0,63.0
120,33.43378786666667,34.20033116666667,62.0,61.0
121,32.99261186666667,34.268345800000006,50.0,35.0
122,34.31613986666667,34.44297796666667,59.0,65.0
123,34.31613986666667,34.99444796666667,65.0,63.0
124,34.31613986666667,35.09187433333334,62.0,69.0
125,34.31613986666667,35.28672706666667,57.0,69.0
126,34.31613986666667,35.95952046666667,45.0,71.0
127,35.19849186666667,36.0606233,65.0,95.0
128,35.63966786666667,36.097387966666666,57.0,86.0
129,35.41907986666667,36.17275553333334,62.0,75.0
130,36.52201986666667,37.06613693333333,50.0,42.0
131,36.08084386666667,37.16172506666667,43.0,88.0
132,37.40437186666667,37.885989,55.0,56.0
133,37.18378386666667,37.885989,58.0,69.0
134,36.963195866666666,37.90069486666667,62.0,90.0
135,38.28672386666667,38.7517969,50.0,75.0
136,38.50731186666667,38.7517969,53.0,66.0
137,38.06613586666667,38.90988496666667,45.0,43.0
138,38.94848786666667,39.084517133333335,45.0,34.0
139,37.84554786666667,39.1102524,38.0,97.0
140,39.16907586666667,39.5348843,53.0,63.0
141,38.72789986666667,39.59370776666667,57.0,95.0
142,39.61025186666667,40.6929713,39.0,97.0
143,40.05142786666667,40.7370889,51.0,35.0
144,40.49260386666667,41.19297076666667,63.0,96.0
145,40.49260386666667,41.2223825,58.0,97.0
146,41.37495586666667,41.586352700000006,57.0,79.0
147,41.37495586666667,41.62311736666667,60.0,89.0
148,41.81613186666667,42.634145700000005,48.0,54.0
149,41.37495586666667,42.6451751,41.0,85.0
150,42.25730786666667,42.91171893333334,53.0,82.0
151,42.25730786666667,43.031204100000004,69.0,85.0
152,42.25730786666667,43.0422335,65.0,89.0
153,43.58083586666667,44.064291233333336,53.0,79.0
154,44.46318786666667,45.181937100000006,53.0,86.0
155,44.02201186666667,45.33818693333334,62.0,93.0
156,44.02201186666667,45.4356133,58.0,88.0
157,44.02201186666667,45.44480446666667,65.0,88.0
158,43.13965986666667,45.65436306666667,46.0,112.0
159,45.34553986666667,45.716863000000004,53.0,89.0
160,45.78671586666667,46.34553880000001,46.0,92.0
161,45.78671586666667,46.663553166666674,56.0,102.0
162,45.78671586666667,46.6764208,58.0,117.0
163,46.66906786666667,47.873110700000005,39.0,117.0
164,47.11024386666667,47.9006842,51.0,78.0
165,47.55141986666667,48.430095400000006,63.0,99.0
166,47.55141986666667,48.46686006666667,58.0,99.0
167,47.99259586666667,48.529360000000004,55.0,69.0
168,48.87494786666667,49.479726633333335,48.0,73.0
169,48.43377186666667,49.49627073333334,41.0,75.0
170,49.31612386666667,49.7591381,57.0,92.0
171,49.31612386666667,49.7591381,60.0,93.0
172,50.19847586666667,50.58450486666667,62.0,86.0
173,50.19847586666667,50.5863431,58.0,100.0
174,50.19847586666667,50.6580342,65.0,82.0
175,50.19847586666667,50.8731075,53.0,49.0
176,50.19847586666667,50.950313300000005,50.0,60.0
177,50.19847586666667,50.9668574,46.0,69.0
178,51.080827866666674,51.45766570000001,50.0,70.0
179,51.080827866666674,51.518327400000004,62.0,88.0
180,51.080827866666674,51.54957736666667,65.0,82.0
181,51.080827866666674,51.7003125,57.0,88.0
182,51.96317986666667,52.35840003333334,43.0,68.0
183,51.96317986666667,52.4833999,62.0,90.0
184,51.96317986666667,52.4889146,58.0,99.0
185,51.96317986666667,52.645164433333335,55.0,102.0
186,52.84553186666667,53.205825600000004,41.0,69.0
187,52.84553186666667,53.2609726,57.0,85.0
188,52.84553186666667,53.26464906666667,60.0,85.0
189,52.84553186666667,53.46869296666667,53.0,95.0
190,53.72788386666667,54.3418538,55.0,90.0
191,53.72788386666667,54.415383133333336,63.0,90.0
192,53.72788386666667,54.49442716666667,58.0,99.0
193,53.72788386666667,54.812441533333335,39.0,99.0
194,54.16905986666667,54.86207383333334,51.0,38.0
195,54.61023586666667,55.04589716666667,63.0,102.0
196,54.61023586666667,55.069794200000004,58.0,102.0
197,55.05141186666667,55.39516150000001,55.0,82.0
198,55.49258786666667,56.22236650000001,57.0,93.0
199,55.49258786666667,56.22604296666667,60.0,95.0
200,55.49258786666667,56.59552786666667,41.0,76.0
201,55.93376386666667,56.78854236666667,48.0,61.0
202,56.37493986666667,56.797733533333336,57.0,99.0
203,56.37493986666667,56.80508646666667,60.0,99.0
204,56.81611586666667,56.928248100000005,53.0,40.0
205,57.25729186666667,57.757291333333335,65.0,83.0
206,57.25729186666667,57.9870705,58.0,122.0
207,57.25729186666667,57.9870705,62.0,97.0
208,57.69846786666667,58.24258493333334,53.0,35.0
209,58.139643866666674,58.521996400000006,58.0,99.0
210,58.139643866666674,58.534864033333335,62.0,89.0
211,58.139643866666674,58.578981633333335,65.0,77.0
212,58.58081986666667,58.73890793333334,53.0,49.0
213,57.25729186666667,58.75729026666667,46.0,97.0
214,57.69846786666667,58.90802540000001,50.0,36.0
215,59.02199586666667,59.69295103333334,67.0,92.0
216,59.02199586666667,59.81978913333334,60.0,100.0
217,59.02199586666667,59.827142066666674,63.0,117.0
218,59.02199586666667,59.834495000000004,48.0,81.0
219,59.90434786666667,60.305082733333336,53.0,100.0
220,59.90434786666667,60.305082733333336,69.0,107.0
221,59.90434786666667,60.33633270000001,65.0,100.0
222,59.90434786666667,60.50545016666667,60.0,82.0
223,60.78669986666667,61.27566993333334,67.0,100.0
224,60.78669986666667,61.31611106666667,70.0,97.0
225,60.78669986666667,61.49993440000001,63.0,100.0
226,61.22787586666667,61.819787000000005,51.0,40.0
227,61.66905186666667,62.121257266666674,67.0,112.0
228,60.78669986666667,62.165374866666674,39.0,122.0
229,61.66905186666667,62.18191896666667,63.0,97.0
230,61.66905186666667,62.1837572,70.0,107.0
231,62.11022786666667,62.257286533333335,51.0,59.0
232,62.55140386666667,63.27934426666667,62.0,107.0
233,62.55140386666667,63.28485896666667,66.0,122.0
234,62.55140386666667,63.28853543333334,69.0,102.0
235,62.992579866666674,63.4797117,45.0,50.0
236,62.55140386666667,63.507285200000005,38.0,83.0
237,63.43375586666667,63.88228480000001,72.0,97.0
238,63.43375586666667,63.95765236666667,69.0,96.0
239,63.43375586666667,64.1525051,66.0,127.0
240,63.87493186666667,64.18926976666667,62.0,86.0
241,64.31610786666667,64.77382796666667,70.0,117.0
242,64.31610786666667,64.98338656666667,62.0,90.0
243,64.31610786666667,65.0569159,67.0,100.0
244,64.31610786666667,65.18375400000001,43.0,69.0
245,65.19845986666667,65.6194153,69.0,92.0
246,65.19845986666667,65.63412116666667,41.0,60.0
247,65.19845986666667,65.67088583333334,60.0,90.0
248,65.19845986666667,65.89147383333334,65.0,92.0
249,66.08081186666668,67.15985483333334,40.0,76.0
250,66.08081186666668,67.24257533333333,70.0,117.0
251,66.08081186666668,67.24809003333334,64.0,93.0
252,66.08081186666668,67.2517665,67.0,97.0
253,67.84551586666667,68.4870593,67.0,79.0
254,67.84551586666667,68.56610333333334,60.0,89.0
255,67.84551586666667,68.5918386,63.0,93.0
256,68.28669186666667,68.77566193333334,55.0,56.0
257,67.84551586666667,68.8675736,48.0,73.0
258,68.72786786666667,69.42639653333333,67.0,86.0
259,68.72786786666667,69.51095526666667,63.0,112.0
260,69.61021986666667,70.30874853333334,67.0,81.0
261,69.16904386666667,70.32713086666668,60.0,63.0
262,69.61021986666667,70.35654260000001,63.0,82.0
263,70.49257186666667,70.56426296666667,55.0,20.0
264,69.61021986666667,70.67823343333333,48.0,64.0
265,70.49257186666667,70.97418900000001,67.0,88.0
266,70.49257186666667,71.06058596666668,63.0,117.0
267,70.93374786666668,71.31242393333333,60.0,71.0
268,71.37492386666668,71.63779123333335,69.0,97.0
269,71.37492386666668,71.6635265,65.0,107.0
270,71.37492386666668,71.73705583333334,60.0,55.0
271,71.81609986666668,72.33815813333334,48.0,52.0
272,71.37492386666668,72.98521626666667,41.0,92.0
273,72.25727586666667,73.00176036666667,60.0,100.0
274,72.25727586666667,73.00911330000001,57.0,107.0
275,72.69845186666667,73.1414661,48.0,48.0
276,73.13962786666667,73.94477406666667,53.0,102.0
277,73.13962786666667,73.96131816666667,57.0,100.0
278,73.13962786666667,73.9741858,60.0,100.0
279,73.13962786666667,74.08264156666667,41.0,107.0
280,74.90433186666667,75.14514043333334,58.0,127.0
281,74.90433186666667,75.16719923333333,62.0,99.0
282,74.90433186666667,75.18558156666667,65.0,92.0
283,75.78668386666668,75.91352196666668,65.0,96.0
284,75.78668386666668,75.95212486666668,50.0,39.0
285,74.90433186666667,76.1855805,46.0,122.0
286,75.78668386666668,76.2407275,53.0,86.0
287,76.22785986666668,76.26646276666668,50.0,30.0
288,75.78668386666668,76.3013892,70.0,127.0
289,75.78668386666668,76.3179333,74.0,100.0
290,76.44844786666667,76.49991840000001,69.0,40.0
291,76.22785986666668,76.50175663333334,65.0,79.0
292,76.66903586666668,77.22969703333334,69.0,112.0
293,76.66903586666668,77.2719764,65.0,102.0
294,76.66903586666668,77.33263810000001,72.0,102.0
295,77.11021186666667,77.6524907,48.0,53.0
296,77.55138786666667,77.99256386666667,53.0,88.0
297,77.55138786666667,78.02565206666667,69.0,122.0
298,77.55138786666667,78.0716079,72.0,112.0
299,76.66903586666668,78.18557836666668,41.0,92.0
300,77.99256386666667,78.49440156666667,48.0,37.0
301,78.43373986666667,79.01278336666667,74.0,95.0
302,78.43373986666667,79.08998916666667,67.0,96.0
303,78.43373986666667,79.16351850000001,70.0,122.0
304,78.87491586666667,79.37491533333333,50.0,56.0
305,79.31609186666667,79.67822383333333,74.0,100.0
306,79.31609186666667,79.68373853333334,70.0,127.0
307,79.31609186666667,79.78484136666667,55.0,93.0
308,78.43373986666667,79.82712073333335,43.0,89.0
309,79.75726786666667,79.90065006666667,50.0,63.0
310,80.19844386666668,80.88594313333334,62.0,107.0
311,80.19844386666668,80.9171931,69.0,97.0
312,80.19844386666668,80.9282225,65.0,100.0
313,80.63961986666668,81.14513403333333,45.0,48.0
314,81.08079586666668,81.48336896666667,69.0,112.0
315,81.08079586666668,81.49256013333334,65.0,112.0
316,80.19844386666668,81.55506006666667,38.0,85.0
317,81.08079586666668,81.59182473333334,50.0,96.0
318,81.52197186666668,81.61756000000001,45.0,89.0
319,81.08079586666668,81.62123646666667,62.0,92.0
320,81.96314786666667,82.11204476666667,70.0,99.0
321,81.96314786666667,82.63777950000001,63.0,122.0
322,81.96314786666667,82.65248536666667,67.0,97.0
323,82.40432386666667,83.00910263333334,51.0,86.0
324,82.84549986666667,83.2885141,70.0,97.0
325,81.96314786666667,83.34182286666667,39.0,127.0
326,83.28667586666667,83.38594046666667,51.0,100.0
327,82.84549986666667,83.38961693333334,67.0,96.0
328,82.84549986666667,83.5311609,63.0,122.0
329,83.72785186666667,84.2921895,69.0,112.0
330,83.50726386666668,84.4521158,62.0,41.0
331,83.72785186666667,84.4521158,65.0,102.0
332,84.61020386666668,85.02196813333335,69.0,117.0
333,84.61020386666668,85.06608573333334,65.0,127.0
334,84.16902786666667,85.10285040000001,45.0,66.0
335,83.72785186666667,85.11020333333335,38.0,70.0
336,85.05137986666668,85.12674743333334,50.0,83.0
337,84.61020386666668,85.23336496666667,62.0,100.0
338,85.49255586666668,86.194761,67.0,99.0
339,85.49255586666668,86.2113051,60.0,107.0
340,85.49255586666668,86.2113051,63.0,127.0
341,86.37490786666667,86.5863047,60.0,102.0
342,86.37490786666667,86.5863047,63.0,127.0
343,86.37490786666667,86.59549586666667,67.0,112.0
344,85.93373186666668,86.7572604,43.0,53.0
345,85.49255586666668,86.79770153333334,36.0,96.0
346,87.03667186666668,87.11203943333334,77.0,76.0
347,86.81608386666667,87.1212306,48.0,59.0
348,87.03667186666668,87.13042176666667,65.0,85.0
349,87.25725986666667,87.57895070000001,77.0,100.0
350,87.25725986666667,87.6230683,65.0,112.0
351,87.91902386666668,88.0035826,67.0,90.0
352,87.91902386666668,88.0035826,79.0,85.0
353,88.13961186666667,88.28299406666667,67.0,122.0
354,87.69843586666667,88.29034700000001,48.0,82.0
355,88.13961186666667,88.29218523333334,79.0,102.0
356,88.58078786666667,88.62858193333334,81.0,53.0
357,87.25725986666667,88.68189070000001,41.0,99.0
358,88.58078786666667,88.68189070000001,48.0,39.0
359,88.58078786666667,88.68924363333333,69.0,96.0
360,88.13961186666667,88.84365523333334,53.0,112.0
361,89.02196386666667,89.57894856666667,70.0,112.0
362,89.02196386666667,89.71681606666667,74.0,97.0
363,89.02196386666667,89.7351984,65.0,96.0
364,89.68372786666667,89.74806603333334,70.0,25.0
365,89.46313986666668,89.97600696666667,50.0,53.0
366,90.12490386666667,90.22784493333334,50.0,55.0
367,89.02196386666667,90.32710953333334,46.0,122.0
368,89.90431586666668,90.34916833333334,53.0,107.0
369,89.90431586666668,90.46681526666667,70.0,127.0
370,89.90431586666668,90.496227,74.0,112.0
371,90.56607986666667,90.64144743333334,65.0,41.0
372,90.78666786666668,90.95578533333334,69.0,99.0
373,90.78666786666668,90.96130003333334,65.0,75.0
374,90.78666786666668,90.97784413333333,72.0,102.0
375,91.44843186666667,91.5936523,57.0,99.0
376,91.22784386666667,91.75357860000001,53.0,100.0
377,91.88960786666668,92.0127695,53.0,100.0
378,91.00725586666667,92.02931360000001,48.0,81.0
379,91.66901986666667,92.07894590000001,60.0,122.0
380,90.78666786666668,92.15798993333334,41.0,74.0
381,92.11019586666667,92.16350463333335,57.0,90.0
382,92.55137186666667,93.26276816666667,70.0,112.0
383,92.55137186666667,93.26828286666668,67.0,96.0
384,92.55137186666667,93.27195933333334,62.0,95.0
385,93.21313586666668,93.5017385,55.0,86.0
386,93.65431186666667,93.805047,55.0,81.0
387,92.99254786666667,93.88409103333333,50.0,56.0
388,93.43372386666667,93.91166453333334,70.0,127.0
389,92.55137186666667,93.9318851,43.0,97.0
390,93.43372386666667,93.94659096666668,67.0,122.0
391,93.87489986666668,94.21681126666667,62.0,99.0
392,94.31607586666668,94.411664,38.0,90.0
393,94.31607586666668,94.98886926666667,62.0,100.0
394,94.31607586666668,94.99806043333334,65.0,102.0
395,94.31607586666668,94.99989866666668,69.0,100.0
396,94.97783986666667,95.25541310000001,57.0,47.0
397,95.41901586666667,95.53298633333334,57.0,112.0
398,94.75725186666668,95.5532069,50.0,86.0
399,95.19842786666668,95.63592740000001,69.0,112.0
400,95.19842786666668,95.64511856666667,65.0,112.0
401,95.63960386666668,95.97600056666667,62.0,100.0
402,96.08077986666667,96.13776510000001,39.0,117.0
403,96.08077986666667,96.14879450000001,62.0,70.0
404,96.08077986666667,96.75724973333334,70.0,95.0
405,96.08077986666667,96.76827913333334,63.0,122.0
406,96.08077986666667,96.77195560000001,67.0,95.0
407,96.52195586666667,96.90614663333334,51.0,59.0
408,96.96313186666667,97.38041083333334,51.0,56.0
409,96.96313186666667,97.4612931,58.0,99.0
410,96.96313186666667,97.7094546,70.0,99.0
411,96.96313186666667,97.76643983333334,63.0,127.0
412,96.96313186666667,97.76643983333334,67.0,96.0
413,97.84548386666667,98.42452736666668,62.0,107.0
414,97.84548386666667,98.43739500000001,69.0,97.0
415,97.84548386666667,98.52195373333335,65.0,100.0
416,98.28665986666667,98.79585050000001,57.0,90.0
417,97.84548386666667,99.08077666666668,50.0,74.0
418,98.94842386666667,99.09915900000001,57.0,92.0
419,98.72783586666668,99.154306,65.0,112.0
420,98.72783586666668,99.17452656666667,69.0,107.0
421,99.16901186666668,99.37857046666667,62.0,100.0
422,99.61018786666668,100.08261383333334,63.0,127.0
423,99.61018786666668,100.09548146666667,67.0,97.0
424,99.61018786666668,100.13959906666668,60.0,100.0
425,99.61018786666668,100.4061429,48.0,82.0
426,100.49253986666668,100.81239246666668,57.0,102.0
427,100.49253986666668,100.8197454,62.0,96.0
428,100.49253986666668,100.84180420000001,50.0,81.0
429,100.49253986666668,100.86018653333335,65.0,95.0
430,101.37489186666667,101.71312680000001,67.0,107.0
431,101.37489186666667,101.72047973333333,39.0,102.0
432,101.37489186666667,101.77195026666668,63.0,112.0
433,101.37489186666667,101.7793032,70.0,127.0
434,102.25724386666667,102.59547880000001,65.0,102.0
435,102.25724386666667,102.59915526666667,41.0,93.0
436,102.25724386666667,102.59915526666667,69.0,96.0
437,102.25724386666667,102.64878756666667,60.0,107.0
438,103.13959586666668,103.86385980000001,65.0,88.0
439,103.13959586666668,103.8804039,58.0,127.0
440,103.13959586666668,103.90797740000001,62.0,97.0
441,103.13959586666668,104.54400613333334,46.0,99.0
442,104.02194786666668,104.82709406666667,58.0,83.0
443,104.02194786666668,105.220476,62.0,79.0
444,104.02194786666668,105.33077,65.0,83.0
445,104.90429986666668,105.90246056666668,57.0,83.0
446,104.90429986666668,105.96128403333334,45.0,71.0
447,106.00723986666668,106.25907783333334,62.0,58.0
448,105.78665186666667,106.29032780000001,65.0,95.0
449,106.22782786666667,106.64694506666667,57.0,71.0
450,106.66900386666667,107.6965763,56.0,67.0
451,106.66900386666667,107.82157616666667,63.0,72.0
452,106.66900386666667,107.87672316666668,60.0,73.0
453,107.77194386666667,108.00723773333334,56.0,75.0
454,106.66900386666667,108.1156935,44.0,77.0
455,107.99253186666668,108.26275216666667,63.0,97.0
456,108.21311986666667,108.32525210000001,60.0,69.0
457,108.43370786666668,109.04583956666667,62.0,81.0
458,109.09547186666667,109.40429506666668,55.0,69.0
459,108.87488386666668,109.43186856666668,50.0,64.0
460,108.43370786666668,109.70025063333334,43.0,76.0
461,109.53664786666667,109.70025063333334,50.0,54.0
462,109.53664786666667,109.82525050000001,58.0,89.0
463,109.31605986666668,109.84363283333334,62.0,100.0
464,109.75723586666668,110.03848556666668,55.0,69.0
465,110.19841186666667,110.44657336666667,58.0,95.0
466,110.19841186666667,110.59363203333334,66.0,92.0
467,110.19841186666667,110.64877903333334,63.0,95.0
468,110.63958786666667,110.90796993333335,58.0,75.0
469,110.41899986666668,111.11385206666668,51.0,89.0
470,111.30135186666668,111.45392523333334,51.0,64.0
471,110.19841186666667,111.49252813333334,39.0,85.0
472,110.86017586666668,111.5127487,63.0,96.0
473,110.86017586666668,111.53296926666667,66.0,99.0
474,111.52193986666667,111.59363096666668,58.0,72.0
475,111.96311586666667,112.08260103333335,53.0,90.0
476,111.96311586666667,112.09914513333334,57.0,85.0
477,112.62487986666667,113.2829674,62.0,100.0
478,111.96311586666667,113.28480563333335,38.0,83.0
479,112.18370386666668,113.29583503333335,45.0,79.0
480,112.62487986666667,113.30318796666667,65.0,96.0
481,113.28664386666668,113.36936436666667,57.0,85.0
482,112.40429186666668,113.41899666666667,50.0,93.0
483,113.72781986666668,114.54399546666667,67.0,90.0
484,113.72781986666668,114.56237780000001,60.0,99.0
485,113.72781986666668,114.56237780000001,63.0,112.0
486,114.38958386666667,114.96678913333334,55.0,40.0
487,113.72781986666668,115.13958306666667,48.0,76.0
488,114.61017186666668,115.29399466666668,67.0,74.0
489,114.61017186666668,115.36568576666667,63.0,76.0
490,115.05134786666667,115.38039163333335,60.0,62.0
491,115.49252386666667,117.27193373333334,60.0,82.0
492,116.37487586666667,117.27928666666668,48.0,59.0
493,115.49252386666667,117.28112490000001,41.0,75.0
494,115.49252386666667,117.28112490000001,65.0,96.0
495,117.25722786666668,117.28112490000001,65.0,74.0
496,115.49252386666667,117.28847783333335,69.0,96.0
497,117.25722786666668,117.78112436666667,58.0,71.0
498,117.25722786666668,118.00722706666667,62.0,64.0
499,117.69840386666668,118.400609,50.0,41.0
500,117.25722786666668,118.44105013333335,46.0,79.0
501,118.13957986666668,118.64141756666668,58.0,90.0
502,118.58075586666668,119.60649006666668,65.0,29.0
503,119.02193186666668,120.04950430000001,57.0,73.0
504,118.58075586666668,120.04950430000001,62.0,56.0
505,119.02193186666668,120.13590126666668,45.0,64.0
506,119.90428386666667,120.77560646666667,65.0,76.0
507,120.34545986666667,120.88773870000001,57.0,60.0
508,120.12487186666668,121.01273856666667,62.0,72.0
509,121.22781186666667,121.83259063333334,50.0,60.0
510,120.78663586666667,121.91163466666667,43.0,72.0
511,121.66898786666668,122.59178100000001,58.0,78.0
512,121.66898786666668,122.65244270000001,62.0,72.0
513,123.21310386666667,123.45207420000001,57.0,59.0
514,122.99251586666668,123.51273590000001,53.0,61.0
515,123.65427986666667,123.7719268,53.0,72.0
516,122.77192786666667,123.8381032,48.0,56.0
517,122.55133986666668,123.87486786666668,41.0,76.0
518,123.43369186666668,123.87486786666668,60.0,95.0
519,123.87486786666668,124.31420563333334,57.0,66.0
520,124.31604386666667,125.06420483333335,63.0,83.0
521,124.31604386666667,125.11935183333334,58.0,86.0
522,124.75721986666667,125.32155750000001,51.0,58.0
523,125.19839586666667,125.32523396666667,58.0,70.0
524,125.19839586666667,125.35832216666668,63.0,74.0
525,124.31604386666667,125.46861616666668,39.0,99.0
526,126.08074786666667,126.17082130000001,38.0,68.0
527,126.08074786666667,126.92633520000001,62.0,79.0
528,126.52192386666668,127.04949683333334,50.0,40.0
529,126.74251186666667,127.05133506666668,53.0,62.0
530,126.08074786666667,127.07339386666668,69.0,72.0
531,126.96309986666668,127.08809973333334,57.0,100.0
532,126.08074786666667,127.0972909,65.0,72.0
533,127.18368786666667,127.32707006666668,69.0,37.0
534,127.18368786666667,127.47229050000001,62.0,90.0
535,127.40427586666668,127.62486386666667,65.0,82.0
536,127.62486386666667,127.69839320000001,62.0,34.0
537,128.28662786666666,128.79214203333333,55.0,52.0
538,127.84545186666668,128.8160390666667,48.0,77.0
539,128.72780386666668,129.15795046666668,67.0,69.0
540,128.72780386666668,129.33258263333335,63.0,95.0
541,129.61015586666667,129.6450823,69.0,38.0
542,129.1689798666667,129.6983910666667,60.0,61.0
543,129.61015586666667,129.70758223333334,65.0,66.0
544,130.27191986666668,130.4667726,55.0,72.0
545,130.0513318666667,130.57706660000002,53.0,82.0
546,129.61015586666667,130.97412500000002,41.0,81.0
547,130.49250786666667,130.9961838,60.0,96.0
548,129.83074386666667,131.01272790000002,48.0,63.0
549,130.71309586666666,131.10647780000002,53.0,61.0
550,130.93368386666668,131.3105217,57.0,66.0
551,131.37485986666667,132.18735900000001,62.0,86.0
552,131.37485986666667,132.23882953333333,58.0,95.0
553,131.37485986666667,132.79397600000001,46.0,96.0
554,132.25721186666667,132.90978470000002,58.0,57.0
555,132.25721186666667,132.99434343333334,65.0,63.0
556,132.25721186666667,133.0237551666667,62.0,61.0
557,131.81603586666668,133.0917698,50.0,35.0
558,133.13956386666666,133.26640196666668,59.0,65.0
559,133.13956386666666,133.81787196666667,65.0,63.0
560,133.13956386666666,133.91529833333334,62.0,69.0
561,133.13956386666666,134.11015106666667,57.0,69.0
562,133.13956386666666,134.78294446666666,45.0,71.0
563,134.0219158666667,134.88404730000002,65.0,95.0
564,134.46309186666667,134.9208119666667,57.0,86.0
565,134.24250386666668,134.99617953333333,62.0,75.0
566,135.34544386666667,135.88956093333334,50.0,42.0
567,134.9042678666667,135.98514906666668,43.0,88.0
568,136.22779586666667,136.709413,55.0,56.0
569,136.00720786666668,136.709413,58.0,69.0
570,135.78661986666668,136.7241188666667,62.0,90.0
571,137.11014786666667,137.5752209,50.0,75.0
572,137.33073586666669,137.5752209,53.0,66.0
573,136.88955986666667,137.73330896666667,45.0,43.0
574,137.77191186666667,137.90794113333334,45.0,34.0
575,136.66897186666668,137.93367640000002,38.0,97.0
576,137.9924998666667,138.3583083,53.0,63.0
577,137.55132386666668,138.41713176666667,57.0,95.0
578,138.43367586666668,139.5163953,39.0,97.0
579,138.8748518666667,139.56051290000002,51.0,35.0
580,139.31602786666667,140.01639476666668,63.0,96.0
581,139.31602786666667,140.0458065,58.0,97.0
582,140.19837986666667,140.4097767,57.0,79.0
583,140.19837986666667,140.44654136666668,60.0,89.0
584,140.63955586666668,141.45756970000002,48.0,54.0
585,140.19837986666667,141.4685991,41.0,85.0
586,141.08073186666667,141.73514293333335,53.0,82.0
587,141.08073186666667,141.8546281,69.0,85.0
588,141.08073186666667,141.8656575,65.0,89.0
589,142.40425986666668,142.88771523333335,53.0,79.0
590,143.28661186666668,144.00536110000002,53.0,86.0
591,142.8454358666667,144.16161093333335,62.0,93.0
592,142.8454358666667,144.25903730000002,58.0,88.0
593,142.8454358666667,144.26822846666667,65.0,88.0
594,141.96308386666666,144.47778706666668,46.0,112.0
595,144.16896386666667,144.540287,53.0,89.0
596,144.61013986666669,145.1689628,46.0,92.0
597,144.61013986666669,145.4869771666667,56.0,102.0
598,144.61013986666669,145.4998448,58.0,117.0
599,145.49249186666668,146.6965347,39.0,117.0
600,145.93366786666667,146.72410820000002,51.0,78.0
601,146.37484386666668,147.25351940000002,63.0,99.0
602,146.37484386666668,147.2902840666667,58.0,99.0
603,146.81601986666666,147.352784,55.0,69.0
604,147.6983718666667,148.30315063333333,48.0,73.0
605,147.25719586666668,148.31969473333334,41.0,75.0
606,148.13954786666667,148.58256210000002,57.0,92.0
607,148.13954786666667,148.58256210000002,60.0,93.0
608,149.02189986666667,149.40792886666668,62.0,86.0
609,149.02189986666667,149.4097671,58.0,100.0
610,149.02189986666667,149.48145820000002,65.0,82.0
611,149.02189986666667,149.69653150000002,53.0,49.0
612,149.02189986666667,149.77373730000002,50.0,60.0
613,149.02189986666667,149.7902814,46.0,69.0
614,149.90425186666667,150.28108970000002,50.0,70.0
615,149.90425186666667,150.34175140000002,62.0,88.0
616,149.90425186666667,150.37300136666667,65.0,82.0
617,149.90425186666667,150.5237365,57.0,88.0
618,150.78660386666667,151.18182403333336,43.0,68.0
619,150.78660386666667,151.3068239,62.0,90.0
620,150.78660386666667,151.3123386,58.0,99.0
621,150.78660386666667,151.46858843333334,55.0,102.0
622,151.66895586666666,152.0292496,41.0,69.0
623,151.66895586666666,152.08439660000002,57.0,85.0
624,151.66895586666666,152.08807306666668,60.0,85.0
625,151.66895586666666,152.29211696666667,53.0,95.0
626,152.5513078666667,153.1652778,55.0,90.0
627,152.5513078666667,153.23880713333335,63.0,90.0
628,152.5513078666667,153.31785116666669,58.0,99.0
629,152.5513078666667,153.63586553333334,39.0,99.0
630,152.99248386666667,153.68549783333336,51.0,38.0
631,153.4336598666667,153.86932116666668,63.0,102.0
632,153.4336598666667,153.8932182,58.0,102.0
633,153.87483586666667,154.21858550000002,55.0,82.0
634,154.31601186666668,155.0457905,57.0,93.0
635,154.31601186666668,155.04946696666667,60.0,95.0
636,154.31601186666668,155.41895186666667,41.0,76.0
637,154.75718786666667,155.61196636666668,48.0,61.0
638,155.19836386666668,155.62115753333333,57.0,99.0
639,155.19836386666668,155.62851046666668,60.0,99.0
640,155.63953986666667,155.7516721,53.0,40.0
641,156.08071586666668,156.58071533333336,65.0,83.0
642,156.08071586666668,156.8104945,58.0,122.0
643,156.08071586666668,156.8104945,62.0,97.0
644,156.5218918666667,157.06600893333334,53.0,35.0
645,156.96306786666668,157.34542040000002,58.0,99.0
646,156.96306786666668,157.35828803333334,62.0,89.0
647,156.96306786666668,157.40240563333336,65.0,77.0
648,157.4042438666667,157.56233193333335,53.0,49.0
649,156.08071586666668,157.5807142666667,46.0,97.0
650,156.5218918666667,157.7314494,50.0,36.0
651,157.84541986666667,158.51637503333333,67.0,92.0
652,157.84541986666667,158.64321313333335,60.0,100.0
653,157.84541986666667,158.65056606666667,63.0,117.0
654,157.84541986666667,158.65791900000002,48.0,81.0
655,158.72777186666667,159.12850673333335,53.0,100.0
656,158.72777186666667,159.12850673333335,69.0,107.0
657,158.72777186666667,159.1597567,65.0,100.0
658,158.72777186666667,159.32887416666668,60.0,82.0
659,159.61012386666667,160.09909393333334,67.0,100.0
660,159.61012386666667,160.13953506666667,70.0,97.0
661,159.61012386666667,160.32335840000002,63.0,100.0
662,160.05129986666668,160.643211,51.0,40.0
663,160.49247586666667,160.9446812666667,67.0,112.0
664,159.61012386666667,160.98879886666668,39.0,122.0
665,160.49247586666667,161.0053429666667,63.0,97.0
666,160.49247586666667,161.00718120000002,70.0,107.0
667,160.93365186666668,161.08071053333336,51.0,59.0
668,161.3748278666667,162.1027682666667,62.0,107.0
669,161.3748278666667,162.10828296666668,66.0,122.0
670,161.3748278666667,162.11195943333334,69.0,102.0
671,161.81600386666668,162.3031357,45.0,50.0
672,161.3748278666667,162.3307092,38.0,83.0
673,162.2571798666667,162.70570880000002,72.0,97.0
674,162.2571798666667,162.78107636666667,69.0,96.0
675,162.2571798666667,162.9759291,66.0,127.0
676,162.69835586666667,163.01269376666667,62.0,86.0
677,163.1395318666667,163.59725196666668,70.0,117.0
678,163.1395318666667,163.80681056666668,62.0,90.0
679,163.1395318666667,163.88033990000002,67.0,100.0
680,163.1395318666667,164.007178,43.0,69.0
681,164.02188386666668,164.4428393,69.0,92.0
682,164.02188386666668,164.45754516666668,41.0,60.0
683,164.02188386666668,164.49430983333335,60.0,90.0
684,164.02188386666668,164.71489783333334,65.0,92.0
685,164.90423586666668,165.98327883333334,40.0,76.0
686,164.90423586666668,166.06599933333334,70.0,117.0
687,164.90423586666668,166.07151403333336,64.0,93.0
688,164.90423586666668,166.07519050000002,67.0,97.0
689,166.66893986666668,167.31048330000002,67.0,79.0
690,166.66893986666668,167.38952733333335,60.0,89.0
691,166.66893986666668,167.4152626,63.0,93.0
692,167.1101158666667,167.59908593333336,55.0,56.0
693,166.66893986666668,167.6909976,48.0,73.0
694,167.55129186666667,168.24982053333335,67.0,86.0
695,167.55129186666667,168.33437926666667,63.0,112.0
696,168.43364386666667,169.13217253333335,67.0,81.0
697,167.9924678666667,169.15055486666668,60.0,63.0
698,168.43364386666667,169.1799666,63.0,82.0
699,169.31599586666667,169.38768696666668,55.0,20.0
700,168.43364386666667,169.50165743333335,48.0,64.0
701,169.31599586666667,169.797613,67.0,88.0
702,169.31599586666667,169.88400996666667,63.0,117.0
703,169.75717186666668,170.13584793333334,60.0,71.0
704,170.19834786666667,170.46121523333335,69.0,97.0
705,170.19834786666667,170.4869505,65.0,107.0
706,170.19834786666667,170.56047983333335,60.0,55.0
707,170.63952386666668,171.16158213333335,48.0,52.0
708,170.19834786666667,171.80864026666669,41.0,92.0
709,171.0806998666667,171.8251843666667,60.0,100.0
710,171.0806998666667,171.8325373,57.0,107.0
711,171.52187586666668,171.96489010000002,48.0,48.0
712,171.9630518666667,172.7534922,41.0,107.0
713,171.9630518666667,172.76819806666668,53.0,102.0
714,171.9630518666667,172.7847421666667,57.0,100.0
715,171.9630518666667,172.7976098,60.0,100.0
716,172.83253623333334,173.05496246666667,53.0,106.0
717,172.83805093333334,173.2314328666667,41.0,106.0
718,173.0457713,173.29025633333336,57.0,106.0
719,173.2534916666667,173.4648885,43.0,106.0
720,173.25900636666668,173.47224143333335,60.0,106.0
721,173.45385910000002,173.6909912,45.0,106.0
722,173.44834440000002,173.6965059,65.0,106.0
723,173.72775586666668,173.96856443333334,58.0,106.0
724,173.72775586666668,173.99062323333334,62.0,106.0
725,173.72775586666668,174.00900556666667,65.0,106.0
726,174.61010786666668,174.73694596666667,65.0,96.0
727,174.61010786666668,174.77554886666667,50.0,39.0
728,173.7351088,175.0090045,46.0,106.0
729,174.61010786666668,175.0641515,53.0,86.0
730,175.0512838666667,175.08988676666667,50.0,30.0
731,174.61010786666668,175.1248132,70.0,127.0
732,174.61010786666668,175.1413573,74.0,100.0
733,175.2718718666667,175.3233424,69.0,40.0
734,175.0512838666667,175.32518063333336,65.0,79.0
735,175.49245986666668,176.05312103333335,69.0,112.0
736,175.49245986666668,176.09540040000002,65.0,102.0
737,175.49245986666668,176.1560621,72.0,102.0
738,175.9336358666667,176.4759147,48.0,53.0
739,176.37481186666668,176.8159878666667,53.0,88.0
740,176.37481186666668,176.84907606666667,69.0,122.0
741,176.37481186666668,176.89503190000002,72.0,112.0
742,175.49245986666668,177.0090023666667,41.0,92.0
743,176.8159878666667,177.31782556666667,48.0,37.0
744,177.25716386666667,177.83620736666668,74.0,95.0
745,177.25716386666667,177.9134131666667,67.0,96.0
746,177.25716386666667,177.98694250000003,70.0,122.0
747,177.6983398666667,178.19833933333334,50.0,56.0
748,178.13951586666667,178.50164783333335,74.0,100.0
749,178.13951586666667,178.50716253333334,70.0,127.0
750,178.13951586666667,178.60826536666667,55.0,93.0
751,177.25716386666667,178.65054473333333,43.0,89.0
752,178.58069186666668,178.72407406666667,50.0,63.0
753,179.02186786666667,179.70936713333336,62.0,107.0
754,179.02186786666667,179.7406171,69.0,97.0
755,179.02186786666667,179.75164650000002,65.0,100.0
756,179.46304386666668,179.96855803333335,45.0,48.0
757,179.9042198666667,180.30679296666668,69.0,112.0
758,179.9042198666667,180.31598413333336,65.0,112.0
759,179.02186786666667,180.3784840666667,38.0,85.0
760,179.9042198666667,180.41524873333336,50.0,96.0
761,180.34539586666668,180.44098400000001,45.0,89.0
762,179.9042198666667,180.44466046666668,62.0,92.0
763,180.7865718666667,180.93546876666667,70.0,99.0
764,180.7865718666667,181.4612035,63.0,122.0
765,180.7865718666667,181.47590936666668,67.0,97.0
766,181.22774786666668,181.83252663333334,51.0,86.0
767,181.6689238666667,182.1119381,70.0,97.0
768,180.7865718666667,182.16524686666668,39.0,127.0
769,182.11009986666667,182.20936446666667,51.0,100.0
770,181.6689238666667,182.21304093333336,67.0,96.0
771,181.6689238666667,182.35458490000002,63.0,122.0
772,182.55127586666669,183.11561350000002,69.0,112.0
773,182.3306878666667,183.27553980000002,62.0,41.0
774,182.55127586666669,183.27553980000002,65.0,102.0
775,183.43362786666668,183.84539213333335,69.0,117.0
776,183.43362786666668,183.88950973333334,65.0,127.0
777,182.99245186666667,183.9262744,45.0,66.0
778,182.55127586666669,183.93362733333333,38.0,70.0
779,183.87480386666667,183.95017143333334,50.0,83.0
780,183.43362786666668,184.0567889666667,62.0,100.0
781,184.31597986666668,185.01818500000002,67.0,99.0
782,184.31597986666668,185.03472910000002,60.0,107.0
783,184.31597986666668,185.03472910000002,63.0,127.0
784,185.19833186666668,185.40972870000002,60.0,102.0
785,185.19833186666668,185.40972870000002,63.0,127.0
786,185.19833186666668,185.41891986666667,67.0,112.0
787,184.7571558666667,185.58068440000002,43.0,53.0
788,184.31597986666668,185.62112553333336,36.0,96.0
789,185.86009586666668,185.93546343333335,77.0,76.0
790,185.6395078666667,185.9446546,48.0,59.0
791,185.86009586666668,185.9538457666667,65.0,85.0
792,186.08068386666667,186.40237470000002,77.0,100.0
793,186.08068386666667,186.44649230000002,65.0,112.0
794,186.74244786666668,186.8270066,67.0,90.0
795,186.74244786666668,186.8270066,79.0,85.0
796,186.96303586666667,187.1064180666667,67.0,122.0
797,186.5218598666667,187.113771,48.0,82.0
798,186.96303586666667,187.11560923333334,79.0,102.0
799,187.40421186666669,187.45200593333334,81.0,53.0
800,186.08068386666667,187.5053147,41.0,99.0
801,187.40421186666669,187.5053147,48.0,39.0
802,187.40421186666669,187.51266763333334,69.0,96.0
803,186.96303586666667,187.66707923333334,53.0,112.0
804,187.84538786666667,188.40237256666668,70.0,112.0
805,187.84538786666667,188.54024006666668,74.0,97.0
806,187.84538786666667,188.55862240000002,65.0,96.0
807,188.50715186666667,188.57149003333336,70.0,25.0
808,188.28656386666668,188.79943096666668,50.0,53.0
809,188.9483278666667,189.05126893333335,50.0,55.0
810,187.84538786666667,189.15053353333334,46.0,122.0
811,188.72773986666667,189.17259233333334,53.0,107.0
812,188.72773986666667,189.29023926666667,70.0,127.0
813,188.72773986666667,189.31965100000002,74.0,112.0
814,189.38950386666667,189.46487143333334,65.0,41.0
815,189.6100918666667,189.77920933333334,69.0,99.0
816,189.6100918666667,189.78472403333336,65.0,75.0
817,189.6100918666667,189.80126813333334,72.0,102.0
818,190.27185586666667,190.41707630000002,57.0,99.0
819,190.05126786666668,190.57700260000001,53.0,100.0
820,190.71303186666668,190.8361935,53.0,100.0
821,189.83067986666669,190.8527376,48.0,81.0
822,190.4924438666667,190.90236990000002,60.0,122.0
823,189.6100918666667,190.98141393333336,41.0,74.0
824,190.93361986666667,190.98692863333335,57.0,90.0
825,191.3747958666667,192.08619216666668,70.0,112.0
826,191.3747958666667,192.09170686666667,67.0,96.0
827,191.3747958666667,192.09538333333336,62.0,95.0
828,192.0365598666667,192.3251625,55.0,86.0
829,192.47773586666668,192.62847100000002,55.0,81.0
830,191.81597186666667,192.70751503333335,50.0,56.0
831,192.25714786666668,192.73508853333334,70.0,127.0
832,191.3747958666667,192.7553091,43.0,97.0
833,192.25714786666668,192.77001496666668,67.0,122.0
834,192.69832386666667,193.04023526666668,62.0,99.0
835,193.13949986666668,193.23508800000002,38.0,90.0
836,193.13949986666668,193.81229326666667,62.0,100.0
837,193.13949986666668,193.82148443333335,65.0,102.0
838,193.13949986666668,193.82332266666668,69.0,100.0
839,193.8012638666667,194.07883710000002,57.0,47.0
840,194.24243986666667,194.35641033333334,57.0,112.0
841,193.5806758666667,194.3766309,50.0,86.0
842,194.02185186666668,194.4593514,69.0,112.0
843,194.02185186666668,194.46854256666668,65.0,112.0
844,194.4630278666667,194.7994245666667,62.0,100.0
845,194.90420386666668,194.9611891,39.0,117.0
846,194.90420386666668,194.97221850000003,62.0,70.0
847,194.90420386666668,195.58067373333336,70.0,95.0
848,194.90420386666668,195.59170313333334,63.0,122.0
849,194.90420386666668,195.5953796,67.0,95.0
850,195.3453798666667,195.72957063333334,51.0,59.0
851,195.78655586666667,196.20383483333336,51.0,56.0
852,195.78655586666667,196.28471710000002,58.0,99.0
853,195.78655586666667,196.5328786,70.0,99.0
854,195.78655586666667,196.58986383333334,63.0,127.0
855,195.78655586666667,196.58986383333334,67.0,96.0
856,196.66890786666667,197.24795136666668,62.0,107.0
857,196.66890786666667,197.26081900000003,69.0,97.0
858,196.66890786666667,197.34537773333335,65.0,100.0
859,197.11008386666668,197.61927450000002,57.0,90.0
860,196.66890786666667,197.90420066666667,50.0,74.0
861,197.7718478666667,197.922583,57.0,92.0
862,197.55125986666667,197.97773,65.0,112.0
863,197.55125986666667,197.99795056666667,69.0,107.0
864,197.99243586666668,198.2019944666667,62.0,100.0
865,198.4336118666667,198.90603783333336,63.0,127.0
866,198.4336118666667,198.91890546666667,67.0,97.0
867,198.4336118666667,198.9630230666667,60.0,100.0
868,198.4336118666667,199.2295669,48.0,82.0
869,199.3159638666667,199.63581646666668,57.0,102.0
870,199.3159638666667,199.6431694,62.0,96.0
871,199.3159638666667,199.6652282,50.0,81.0
872,199.3159638666667,199.68361053333334,65.0,95.0
873,200.1983158666667,200.53655080000001,67.0,107.0
874,200.1983158666667,200.54390373333334,39.0,102.0
875,200.1983158666667,200.59537426666668,63.0,112.0
876,200.1983158666667,200.6027272,70.0,127.0
877,201.0806678666667,201.4189028,65.0,102.0
878,201.0806678666667,201.42257926666667,41.0,93.0
879,201.0806678666667,201.42257926666667,69.0,96.0
880,201.0806678666667,201.4722115666667,60.0,107.0
881,201.96301986666668,202.45934286666667,55.0,107.0
882,201.96301986666668,202.48507813333336,62.0,96.0
883,201.96301986666668,202.49243106666668,58.0,127.0
884,202.40419586666667,202.8472101,50.0,51.0
885,203.06595986666667,203.18728326666667,50.0,51.0
886,201.96301986666668,203.19647443333335,43.0,78.0
887,202.6247838666667,203.31228313333335,58.0,122.0
888,202.6247838666667,203.3435331,62.0,95.0
889,203.2865478666667,203.46485650000002,55.0,89.0
890,203.72772386666668,204.18728220000003,53.0,99.0
891,203.72772386666668,204.24978213333335,57.0,93.0
892,203.72772386666668,204.27184093333335,60.0,93.0
893,204.1688998666667,204.56595826666668,48.0,58.0
894,203.72772386666668,204.9041932,41.0,79.0
895,204.83066386666667,204.95566373333335,48.0,59.0
896,204.38948786666668,205.04757540000003,57.0,107.0
897,204.38948786666668,205.07882536666668,60.0,96.0
898,205.0512518666667,205.19463406666668,53.0,88.0
899,205.49242786666667,206.03838316666668,62.0,95.0
900,205.49242786666667,206.04757433333336,58.0,117.0
901,205.49242786666667,206.05492726666668,53.0,95.0
902,206.15419186666668,206.83617643333335,58.0,107.0
903,206.15419186666668,206.88213226666667,62.0,95.0
904,205.49242786666667,206.93544103333335,46.0,99.0
905,207.03654386666668,207.17441136666667,58.0,25.0
906,206.81595586666668,207.3177935666667,53.0,66.0
907,207.69830786666668,208.00345460000003,53.0,58.0
908,207.25713186666667,208.28470430000002,46.0,60.0
909,208.3600718666667,208.47955703333335,46.0,64.0
910,207.91889586666667,208.60639513333334,62.0,95.0
911,207.91889586666667,208.63396863333335,58.0,102.0
912,208.58065986666668,208.70198326666667,53.0,95.0
913,209.0218358666667,209.49977653333335,55.0,96.0
914,209.0218358666667,209.54757060000003,58.0,107.0
915,209.0218358666667,209.56962940000003,63.0,96.0
916,209.46301186666668,209.9335996,51.0,85.0
917,209.0218358666667,210.26080513333335,39.0,107.0
918,210.12477586666668,210.2865404,51.0,89.0
919,209.6835998666667,210.34904033333336,58.0,107.0
920,209.6835998666667,210.37661383333335,63.0,99.0
921,210.34536386666667,210.48323136666667,55.0,97.0
922,210.7865398666667,211.2460982,53.0,107.0
923,210.7865398666667,211.29205403333336,57.0,93.0
924,210.7865398666667,211.3067599,60.0,90.0
925,211.22771586666667,211.6247742666667,48.0,54.0
926,211.4483038666667,211.95933273333335,53.0,97.0
927,210.7865398666667,212.00345033333335,41.0,76.0
928,211.4483038666667,212.0898473,57.0,97.0
929,211.4483038666667,212.13580313333335,60.0,92.0
930,211.88947986666668,212.2001413,48.0,75.0
931,212.1100678666667,212.3986705,53.0,92.0
932,212.55124386666668,213.09719916666668,55.0,102.0
933,212.55124386666668,213.1045521,59.0,90.0
934,212.55124386666668,213.10639033333334,62.0,89.0
935,212.9924198666667,213.34903713333335,50.0,48.0
936,213.2130078666667,213.694625,55.0,95.0
937,213.2130078666667,213.7369043666667,59.0,96.0
938,213.2130078666667,213.74793376666668,62.0,96.0
939,213.65418386666667,213.92072770000001,50.0,92.0
940,212.55124386666668,213.94646296666667,43.0,72.0
941,213.8747718666667,214.25344793333335,59.0,93.0
942,213.8747718666667,214.26447733333336,62.0,100.0
943,214.31594786666668,214.89682960000002,43.0,100.0
944,214.31594786666668,214.90785900000003,55.0,117.0
945,214.97771186666668,215.60271120000002,45.0,112.0
946,214.97771186666668,215.69278463333336,57.0,127.0
947,215.6394758666667,215.86557856666667,59.0,112.0
948,215.6394758666667,216.0861665666667,47.0,117.0
949,216.08065186666667,216.59168073333336,63.0,112.0
950,216.08065186666667,216.60087190000002,55.0,97.0
951,216.08065186666667,216.6063866,60.0,102.0
952,216.08065186666667,217.0365332,48.0,112.0
953,216.74241586666668,217.27550353333336,60.0,122.0
954,216.74241586666668,217.2773417666667,63.0,127.0
955,217.40417986666668,217.52366503333334,63.0,117.0
956,217.1835918666667,217.55491500000002,48.0,66.0
957,217.40417986666668,217.58065026666668,60.0,107.0
958,217.40417986666668,217.67256193333336,55.0,75.0
959,217.8453558666667,218.37109060000003,58.0,107.0
960,217.8453558666667,218.38395823333335,63.0,122.0
961,217.8453558666667,218.38947293333334,65.0,93.0
962,217.8453558666667,219.0034428666667,46.0,88.0
963,218.50711986666667,219.1266045,65.0,100.0
964,218.50711986666667,219.14498683333335,63.0,122.0
965,218.50711986666667,219.15601623333336,58.0,117.0
966,219.16888386666668,219.50711880000003,46.0,88.0
967,219.6100598666667,220.16520633333334,55.0,100.0
968,219.6100598666667,220.18175043333335,62.0,95.0
969,219.6100598666667,220.1854269,58.0,122.0
970,219.6100598666667,220.53652946666668,43.0,72.0
971,220.2718238666667,220.79939683333336,58.0,122.0
972,220.2718238666667,220.80307330000002,62.0,100.0
973,220.2718238666667,220.81594093333334,55.0,93.0
974,220.93358786666667,220.98138193333335,55.0,69.0
975,220.93358786666667,220.99241133333334,58.0,127.0
976,220.93358786666667,220.99241133333334,62.0,100.0
977,221.37476386666668,221.94277796666668,60.0,112.0
978,221.37476386666668,221.96299853333335,67.0,97.0
979,221.37476386666668,221.966675,65.0,107.0
980,221.37476386666668,222.3453510666667,48.0,76.0
981,222.0365278666667,222.5273361666667,60.0,85.0
982,222.0365278666667,222.56410083333336,65.0,102.0
983,222.0365278666667,222.56777730000002,67.0,100.0
984,222.47770386666667,222.63579193333334,48.0,56.0
985,222.6982918666667,222.88211520000002,65.0,99.0
986,222.6982918666667,222.8876299,67.0,95.0
987,222.6982918666667,222.97954156666668,60.0,82.0
988,223.13946786666668,223.67807023333336,60.0,112.0
989,223.13946786666668,223.68358493333335,67.0,107.0
990,223.13946786666668,223.68542316666668,63.0,127.0
991,223.13946786666668,224.09718743333335,48.0,97.0
992,223.80123186666668,224.2938784,60.0,112.0
993,224.2424078666667,224.36556950000002,48.0,77.0
994,223.80123186666668,224.4243929666667,63.0,122.0
995,223.80123186666668,224.48873113333335,67.0,96.0
996,224.4629958666667,224.53652520000003,60.0,112.0
997,224.90417186666667,225.4519654,62.0,107.0
998,224.90417186666667,225.45380363333334,65.0,96.0
999,224.90417186666667,225.4556418666667,57.0,117.0
1000,224.90417186666667,225.80674443333336,50.0,93.0
1001,225.78652386666667,225.80674443333336,50.0,86.0
1002,224.90417186666667,226.04203830000003,38.0,72.0
1003,225.56593586666668,226.04939123333335,57.0,127.0
1004,225.56593586666668,226.16519993333335,62.0,122.0
1005,225.56593586666668,226.23321456666667,65.0,102.0
1006,226.22769986666668,226.31409683333334,57.0,117.0
1007,226.6688758666667,227.1762282666667,55.0,117.0
1008,226.6688758666667,227.20012530000002,58.0,127.0
1009,226.6688758666667,227.20931646666668,63.0,122.0
1010,227.11005186666668,227.53836023333335,51.0,85.0
1011,227.33063986666667,227.79755113333334,55.0,100.0
1012,227.33063986666667,227.81409523333335,58.0,127.0
1013,227.33063986666667,227.83247756666668,63.0,127.0
1014,226.6688758666667,227.90784513333335,39.0,117.0
1015,227.77181586666669,227.96850683333335,51.0,122.0
1016,227.99240386666668,228.08431553333335,58.0,127.0
1017,227.99240386666668,228.1026978666667,63.0,127.0
1018,228.2129918666667,228.24608006666668,60.0,47.0
1019,228.4335798666667,228.98688810000002,41.0,96.0
1020,228.4335798666667,229.02549100000002,53.0,127.0
1021,228.4335798666667,229.0475498,57.0,127.0
1022,229.0953438666667,229.72953436666668,43.0,100.0
1023,229.0953438666667,229.7534314,55.0,127.0
1024,229.0953438666667,229.7626225666667,58.0,122.0
1025,229.75710786666667,230.2368867666667,60.0,112.0
1026,229.75710786666667,230.2442397,57.0,127.0
1027,229.75710786666667,230.25526910000002,45.0,122.0
1028,230.19828386666669,230.43909243333334,58.0,127.0
1029,230.19828386666669,230.46115123333334,62.0,99.0
1030,230.19828386666669,230.47953356666667,65.0,92.0
1031,231.08063586666668,231.2074739666667,65.0,96.0
1032,231.08063586666668,231.2460768666667,50.0,39.0
1033,230.19828386666669,231.4795325,46.0,122.0
1034,231.08063586666668,231.5346795,53.0,86.0
1035,231.5218118666667,231.5604147666667,50.0,30.0
1036,231.08063586666668,231.5953412,70.0,127.0
1037,231.08063586666668,231.6118853,74.0,100.0
1038,231.7423998666667,231.79387040000003,69.0,40.0
1039,231.5218118666667,231.79570863333336,65.0,79.0
1040,231.96298786666668,232.52364903333336,69.0,112.0
1041,231.96298786666668,232.56592840000002,65.0,102.0
1042,231.96298786666668,232.62659010000002,72.0,102.0
1043,232.4041638666667,232.9464427,48.0,53.0
1044,232.84533986666668,233.2865158666667,53.0,88.0
1045,232.84533986666668,233.31960406666667,69.0,122.0
1046,232.84533986666668,233.36555990000002,72.0,112.0
1047,231.96298786666668,233.4795303666667,41.0,92.0
1048,233.2865158666667,233.78835356666667,48.0,37.0
1049,233.72769186666667,234.3067353666667,74.0,95.0
1050,233.72769186666667,234.3839411666667,67.0,96.0
1051,233.72769186666667,234.45747050000003,70.0,122.0
1052,234.1688678666667,234.66886733333334,50.0,56.0
1053,234.61004386666667,234.97217583333335,74.0,100.0
1054,234.61004386666667,234.97769053333334,70.0,127.0
1055,234.61004386666667,235.07879336666667,55.0,93.0
1056,233.72769186666667,235.12107273333336,43.0,89.0
1057,235.05121986666668,235.19460206666668,50.0,63.0
1058,235.4923958666667,236.17989513333336,62.0,107.0
1059,235.4923958666667,236.2111451,69.0,97.0
1060,235.4923958666667,236.22217450000002,65.0,100.0
1061,235.93357186666668,236.43908603333335,45.0,48.0
1062,236.3747478666667,236.77732096666668,69.0,112.0
1063,236.3747478666667,236.78651213333336,65.0,112.0
1064,235.4923958666667,236.8490120666667,38.0,85.0
1065,236.3747478666667,236.88577673333336,50.0,96.0
1066,236.81592386666668,236.91151200000002,45.0,89.0
1067,236.3747478666667,236.91518846666668,62.0,92.0
1068,237.2570998666667,237.40599676666668,70.0,99.0
1069,237.2570998666667,237.9317315,63.0,122.0
1070,237.2570998666667,237.9464373666667,67.0,97.0
1071,237.69827586666668,238.30305463333335,51.0,86.0
1072,238.1394518666667,238.5824661,70.0,97.0
1073,237.2570998666667,238.63577486666668,39.0,127.0
1074,238.58062786666667,238.67989246666667,51.0,100.0
1075,238.1394518666667,238.68356893333336,67.0,96.0
1076,238.1394518666667,238.82511290000002,63.0,122.0
1077,239.0218038666667,239.58614150000002,69.0,112.0
1078,238.8012158666667,239.74606780000002,62.0,41.0
1079,239.0218038666667,239.74606780000002,65.0,102.0
1080,239.90415586666668,240.31592013333335,69.0,117.0
1081,239.90415586666668,240.36003773333334,65.0,127.0
1082,239.46297986666667,240.3968024,45.0,66.0
1083,239.0218038666667,240.40415533333336,38.0,70.0
1084,240.3453318666667,240.42069943333334,50.0,83.0
1085,239.90415586666668,240.5273169666667,62.0,100.0
1086,240.78650786666668,241.48871300000002,67.0,99.0
1087,240.78650786666668,241.50525710000002,60.0,107.0
1088,240.78650786666668,241.50525710000002,63.0,127.0
1089,241.66885986666668,241.88025670000002,60.0,102.0
1090,241.66885986666668,241.88025670000002,63.0,127.0
1091,241.66885986666668,241.88944786666667,67.0,112.0
1092,241.2276838666667,242.05121240000003,43.0,53.0
1093,240.78650786666668,242.09165353333336,36.0,96.0
1094,242.33062386666668,242.40599143333336,77.0,76.0
1095,242.1100358666667,242.4151826,48.0,59.0
1096,242.33062386666668,242.4243737666667,65.0,85.0
1097,242.55121186666668,242.99422610000002,69.0,112.0
1098,242.55121186666668,243.01077020000002,72.0,97.0
1099,242.55121186666668,243.11187303333335,65.0,102.0
1100,242.55121186666668,243.1762112,41.0,92.0
1101,243.43356386666667,244.01260736666669,42.0,102.0
1102,243.44091680000002,244.10268080000003,61.0,100.0
1103,243.44091680000002,244.14312193333336,66.0,102.0
1104,243.8747398666667,244.19091600000002,73.0,117.0
1105,244.31591586666667,244.8729005666667,71.0,112.0
1106,244.31591586666667,245.01076806666669,75.0,97.0
1107,244.31591586666667,245.02915040000002,66.0,96.0
1108,244.97767986666668,245.04201803333336,71.0,25.0
1109,244.75709186666668,245.26995896666668,51.0,53.0
1110,245.4188558666667,245.52179693333335,51.0,55.0
1111,244.31591586666667,245.62106153333335,47.0,122.0
1112,245.1982678666667,245.64312033333334,54.0,107.0
1113,245.1982678666667,245.76076726666668,71.0,127.0
1114,245.1982678666667,245.79017900000002,75.0,112.0
1115,245.86003186666667,245.93539943333334,66.0,41.0
1116,246.0806198666667,246.24973733333334,70.0,99.0
1117,246.0806198666667,246.25525203333336,66.0,75.0
1118,246.0806198666667,246.27179613333334,73.0,102.0
1119,246.7423838666667,246.88760430000002,58.0,99.0
1120,246.52179586666668,247.04753060000002,54.0,100.0
1121,247.18355986666668,247.3067215,54.0,100.0
1122,246.3012078666667,247.3232656,49.0,81.0
1123,246.9629718666667,247.37289790000003,61.0,122.0
1124,246.0806198666667,247.45194193333336,42.0,74.0
1125,247.40414786666668,247.45745663333335,58.0,90.0
1126,247.8453238666667,248.55672016666668,71.0,112.0
1127,247.8453238666667,248.5622348666667,68.0,96.0
1128,247.8453238666667,248.56591133333336,63.0,95.0
1129,248.5070878666667,248.7956905,56.0,86.0
1130,248.94826386666668,249.09899900000002,56.0,81.0
1131,248.28649986666667,249.17804303333335,51.0,56.0
1132,248.7276758666667,249.20561653333334,71.0,127.0
1133,247.8453238666667,249.2258371,44.0,97.0
1134,248.7276758666667,249.24054296666668,68.0,122.0
1135,249.1688518666667,249.5107632666667,63.0,99.0
1136,249.61002786666668,249.70561600000002,39.0,90.0
1137,249.61002786666668,250.28282126666667,63.0,100.0
1138,249.61002786666668,250.29201243333335,66.0,102.0
1139,249.61002786666668,250.29385066666669,70.0,100.0
1140,250.2717918666667,250.54936510000002,58.0,47.0
1141,250.71296786666667,250.82693833333335,58.0,112.0
1142,250.0512038666667,250.8471589,51.0,86.0
1143,250.49237986666668,250.92987940000003,70.0,112.0
1144,250.49237986666668,250.9390705666667,66.0,112.0
1145,250.9335558666667,251.2699525666667,63.0,100.0
1146,251.37473186666668,251.43171710000001,40.0,117.0
1147,251.37473186666668,251.44274650000003,63.0,70.0
1148,251.37473186666668,252.05120173333336,71.0,95.0
1149,251.37473186666668,252.06223113333334,64.0,122.0
1150,251.37473186666668,252.06590760000003,68.0,95.0
1151,251.8159078666667,252.20009863333334,52.0,59.0
1152,252.25708386666668,252.67436283333336,52.0,56.0
1153,252.25708386666668,252.75524510000002,59.0,99.0
1154,252.25708386666668,253.0034066,71.0,99.0
1155,252.25708386666668,253.06039183333334,64.0,127.0
1156,252.25708386666668,253.06039183333334,68.0,96.0
1157,253.13943586666667,253.71847936666668,63.0,107.0
1158,253.13943586666667,253.73134700000003,70.0,97.0
1159,253.13943586666667,253.81590573333335,66.0,100.0
1160,253.5806118666667,254.08980250000002,58.0,90.0
1161,253.13943586666667,254.3747286666667,51.0,74.0
1162,254.2423758666667,254.39311100000003,58.0,92.0
1163,254.0217878666667,254.448258,66.0,112.0
1164,254.0217878666667,254.46847856666668,70.0,107.0
1165,254.46296386666668,254.6725224666667,63.0,100.0
1166,254.9041398666667,255.37656583333336,64.0,127.0
1167,254.9041398666667,255.38943346666667,68.0,97.0
1168,254.9041398666667,255.4335510666667,61.0,100.0
1169,254.9041398666667,255.7000949,49.0,82.0
1170,255.7864918666667,256.1063444666667,58.0,102.0
1171,255.7864918666667,256.11369740000004,63.0,96.0
1172,255.7864918666667,256.1357562,51.0,81.0
1173,255.7864918666667,256.15413853333337,66.0,95.0
1174,256.6688438666667,257.00707880000004,68.0,107.0
1175,256.6688438666667,257.01443173333337,40.0,102.0
1176,256.6688438666667,257.0659022666667,64.0,112.0
1177,256.6688438666667,257.0732552,71.0,127.0
1178,257.57693113333335,258.09163646666667,70.0,112.0
1179,257.5732546666667,258.1081805666667,66.0,102.0
1180,257.5787693666667,258.11185703333337,54.0,127.0
1181,257.5806076,258.1136952666667,73.0,99.0
1182,257.55119586666666,258.29016566666667,42.0,102.0
1183,258.4335478666667,258.67435643333334,59.0,127.0
1184,258.4335478666667,258.69641523333337,63.0,99.0
1185,258.4335478666667,258.7147975666667,66.0,92.0
1186,259.3158998666667,259.4427379666667,66.0,96.0
1187,259.3158998666667,259.4813408666667,51.0,39.0
1188,258.4335478666667,259.71479650000003,47.0,122.0
1189,259.3158998666667,259.7699435,54.0,86.0
1190,259.7570758666667,259.7956787666667,51.0,30.0
1191,259.3158998666667,259.83060520000004,71.0,127.0
1192,259.3158998666667,259.8471493,75.0,100.0
1193,259.97766386666666,260.02913440000003,70.0,40.0
1194,259.7570758666667,260.03097263333336,66.0,79.0
1195,260.1982518666667,260.75891303333333,70.0,112.0
1196,260.1982518666667,260.80119240000005,66.0,102.0
1197,260.1982518666667,260.8618541,73.0,102.0
1198,260.63942786666667,261.1817067,49.0,53.0
1199,261.0806038666667,261.5217798666667,54.0,88.0
1200,261.0806038666667,261.5548680666667,70.0,122.0
1201,261.0806038666667,261.6008239,73.0,112.0
1202,260.1982518666667,261.7147943666667,42.0,92.0
1203,261.5217798666667,262.0236175666667,49.0,37.0
1204,261.9629558666667,262.5419993666667,75.0,95.0
1205,261.9629558666667,262.6192051666667,68.0,96.0
1206,261.9629558666667,262.69273450000003,71.0,122.0
1207,262.40413186666666,262.90413133333334,51.0,56.0
1208,262.8453078666667,263.20743983333335,75.0,100.0
1209,262.8453078666667,263.21295453333335,71.0,127.0
1210,262.8453078666667,263.3140573666667,56.0,93.0
1211,261.9629558666667,263.35633673333336,44.0,89.0
1212,263.2864838666667,263.4298660666667,51.0,63.0
1213,263.72765986666667,264.41515913333336,63.0,107.0
1214,263.72765986666667,264.44640910000004,70.0,97.0
1215,263.72765986666667,264.4574385,66.0,100.0
1216,264.1688358666667,264.6743500333333,46.0,48.0
1217,264.6100118666667,265.0125849666667,70.0,112.0
1218,264.6100118666667,265.02177613333333,66.0,112.0
1219,263.72765986666667,265.0842760666667,39.0,85.0
1220,264.6100118666667,265.12104073333336,51.0,96.0
1221,265.0511878666667,265.14677600000005,46.0,89.0
1222,264.6100118666667,265.1504524666667,63.0,92.0
1223,265.49236386666666,265.6412607666667,71.0,99.0
1224,265.49236386666666,266.16699550000004,64.0,122.0
1225,265.49236386666666,266.1817013666667,68.0,97.0
1226,265.9335398666667,266.53831863333335,52.0,86.0
1227,266.3747158666667,266.8177301,71.0,97.0
1228,265.49236386666666,266.8710388666667,40.0,127.0
1229,266.8158918666667,266.9151564666667,52.0,100.0
1230,266.3747158666667,266.91883293333336,68.0,96.0
1231,266.3747158666667,267.0603769,64.0,122.0
1232,267.25706786666666,267.8214055,70.0,112.0
1233,267.0364798666667,267.9813318,63.0,41.0
1234,267.25706786666666,267.9813318,66.0,102.0
1235,268.1394198666667,268.5511841333334,70.0,117.0
1236,268.1394198666667,268.5953017333334,66.0,127.0
1237,267.6982438666667,268.63206640000004,46.0,66.0
1238,267.25706786666666,268.63941933333336,39.0,70.0
1239,268.58059586666667,268.65596343333334,51.0,83.0
1240,268.1394198666667,268.7625809666667,63.0,100.0
1241,269.0217718666667,269.72397700000005,68.0,99.0
1242,269.0217718666667,269.7405211,61.0,107.0
1243,269.0217718666667,269.7405211,64.0,127.0
1244,269.9041238666667,270.11552070000005,61.0,102.0
1245,269.9041238666667,270.11552070000005,64.0,127.0
1246,269.9041238666667,270.1247118666667,68.0,112.0
1247,269.4629478666667,270.2864764,44.0,53.0
1248,269.0217718666667,270.32691753333336,37.0,96.0
1249,270.5658878666667,270.64125543333336,78.0,76.0
1250,270.34529986666666,270.6504466,49.0,59.0
1251,270.5658878666667,270.65963776666666,66.0,85.0
1252,270.7864758666667,271.1081667,78.0,100.0
1253,270.7864758666667,271.1522843,66.0,112.0
1254,271.4482398666667,271.53279860000004,68.0,90.0
1255,271.4482398666667,271.53279860000004,80.0,85.0
1256,271.6688278666667,271.8122100666667,68.0,122.0
1257,271.2276518666667,271.819563,49.0,82.0
1258,271.6688278666667,271.82140123333335,80.0,102.0
1259,272.11000386666666,272.15779793333337,82.0,53.0
1260,270.7864758666667,272.2111067,42.0,99.0
1261,272.11000386666666,272.2111067,49.0,39.0
1262,272.11000386666666,272.21845963333334,70.0,96.0
1263,271.6688278666667,272.37287123333334,54.0,112.0
1264,272.5511798666667,273.1081645666667,71.0,112.0
1265,272.5511798666667,273.2460320666667,75.0,97.0
1266,272.5511798666667,273.2644144,66.0,96.0
1267,273.2129438666667,273.27728203333334,71.0,25.0
1268,272.9923558666667,273.5052229666667,51.0,53.0
1269,273.6541198666667,273.7570609333334,51.0,55.0
1270,272.5511798666667,273.85632553333335,47.0,122.0
1271,273.43353186666667,273.8783843333334,54.0,107.0
1272,273.43353186666667,273.9960312666667,71.0,127.0
1273,273.43353186666667,274.025443,75.0,112.0
1274,274.0952958666667,274.17066343333335,66.0,41.0
1275,274.3158838666667,274.48500133333334,70.0,99.0
1276,274.3158838666667,274.49051603333334,66.0,75.0
1277,274.3158838666667,274.50706013333337,73.0,102.0
1278,274.9776478666667,275.1228683,58.0,99.0
1279,274.7570598666667,275.28279460000005,54.0,100.0
1280,275.4188238666667,275.5419855,54.0,100.0
1281,274.5364718666667,275.55852960000004,49.0,81.0
1282,275.19823586666666,275.6081619,61.0,122.0
1283,274.3158838666667,275.68720593333336,42.0,74.0
1284,275.6394118666667,275.69272063333335,58.0,90.0
1285,276.09713196666667,276.2147789,71.0,99.0
1286,276.0989702,276.4280139666667,75.0,107.0
1287,276.1026466666667,276.48867566666667,56.0,95.0
1288,276.0805878666667,276.51992563333334,44.0,122.0
1289,276.0934555,276.5236021,68.0,102.0
1290,276.7533812666667,277.0438221333334,63.0,112.0
1291,276.75154303333335,277.04933683333337,70.0,100.0
1292,276.7441901,277.36183650000004,39.0,122.0
1293,277.4224982,278.1798503333334,71.0,100.0
1294,277.41882173333335,278.1872032666667,68.0,127.0
1295,277.4280129,278.19639443333335,44.0,100.0
1296,277.42433643333334,278.20190913333334,75.0,112.0
1297,277.89860063333333,279.7974956666667,51.0,93.0
1298,277.8838947666667,279.80117213333335,66.0,127.0
1299,277.885733,279.8030103666667,63.0,107.0
1300,277.8894094666667,279.81220153333334,70.0,97.0
1301,277.8967624,279.85080443333334,39.0,97.0
1302,279.6099958666667,280.2533775333334,68.0,78.0
1303,279.6099958666667,280.26440693333336,64.0,76.0
1304,280.2717598666667,280.5438184,59.0,58.0
1305,280.05117186666666,280.5934507,52.0,69.0
1306,280.71293586666667,280.90411213333334,52.0,71.0
1307,279.6099958666667,280.9224944666667,40.0,76.0
1308,280.4923478666667,280.98867086666667,64.0,82.0
1309,280.4923478666667,281.10264133333334,68.0,99.0
1310,280.9335238666667,281.3471263666667,59.0,72.0
1311,281.3746998666667,281.97764040000004,63.0,72.0
1312,282.0364638666667,282.3471253,63.0,86.0
1313,281.8158758666667,282.3728605666667,51.0,39.0
1314,282.47763986666666,282.61366913333336,51.0,65.0
1315,282.2570518666667,282.67433083333333,70.0,97.0
1316,281.3746998666667,282.67800730000005,39.0,88.0
1317,282.6982278666667,282.8471247666667,63.0,82.0
1318,283.13940386666667,283.51072700000003,64.0,76.0
1319,283.13940386666667,283.5217564,68.0,85.0
1320,283.13940386666667,283.5603593,61.0,88.0
1321,283.13940386666667,283.57322693333333,37.0,88.0
1322,284.0217558666667,284.4022701666667,39.0,75.0
1323,284.0217558666667,284.42249073333335,66.0,93.0
1324,284.0217558666667,284.5916082,63.0,95.0
1325,284.90410786666666,285.1320488,40.0,74.0
1326,284.90410786666666,285.1449164333334,59.0,85.0
1327,284.90410786666666,285.1522693666667,64.0,85.0
1328,284.90410786666666,285.19454873333336,68.0,85.0
1329,285.7864598666667,286.5585178666667,66.0,90.0
1330,285.7864598666667,286.56219433333337,61.0,86.0
1331,285.7864598666667,286.5805766666667,54.0,76.0
1332,285.7864598666667,286.59344430000004,70.0,86.0
1333,285.7864598666667,286.6155031,42.0,73.0
1334,286.6688118666667,286.87469400000003,71.0,72.0
1335,286.6688118666667,286.8857234,75.0,79.0
1336,286.6688118666667,286.9243263,68.0,82.0
1337,287.33057586666666,287.5180756666667,59.0,62.0
1338,287.1099878666667,287.6485902333334,56.0,63.0
1339,287.5511638666667,288.0548398,63.0,93.0
1340,287.7717518666667,288.21108963333336,56.0,59.0
1341,288.4335158666667,289.1302063,68.0,81.0
1342,288.2129278666667,289.18719153333336,63.0,63.0
1343,288.4335158666667,289.36550016666666,56.0,57.0
1344,287.99233986666667,289.64307340000005,59.0,72.0
1345,289.5364558666667,289.70005863333336,56.0,68.0
1346,286.6688118666667,289.70557333333335,44.0,112.0
1347,289.75704386666666,289.83424966666666,63.0,89.0
1348,289.3158678666667,289.8360879,68.0,107.0
1349,290.1982198666667,290.9868219666667,68.0,72.0
1350,290.1982198666667,291.0033660666667,64.0,83.0
1351,290.1982198666667,291.00888076666666,61.0,86.0
1352,291.0805718666667,291.6228507,64.0,68.0
1353,291.0805718666667,291.75152703333333,68.0,56.0
1354,291.0805718666667,291.79932110000004,61.0,56.0
1355,290.1982198666667,291.9427033,49.0,100.0
1356,291.9629238666667,293.2074078333334,53.0,54.0
1357,291.9629238666667,293.2460107333334,65.0,78.0
1358,291.9629238666667,293.2993195,68.0,82.0
1359,291.9629238666667,293.30667243333335,61.0,74.0
1360,293.7276278666667,295.0897587666667,49.0,72.0
1361,293.7276278666667,295.1007881666667,64.0,69.0
1362,293.7276278666667,295.10997933333334,68.0,83.0
1363,293.7276278666667,295.11733226666666,61.0,81.0
1364,295.4923318666667,295.9941695666667,64.0,71.0
1365,295.4923318666667,295.99784603333336,68.0,77.0
1366,295.4923318666667,296.0603459666667,59.0,58.0
1367,296.8158598666667,298.5934315,56.0,61.0
1368,297.2570358666667,298.6522549666667,59.0,43.0
1369,295.9335078666667,298.7037255,47.0,52.0
1370,296.3746838666667,298.7846077666667,52.0,49.0
1371,295.4923318666667,298.85446063333336,40.0,66.0
1372,301.2276198666667,301.59526653333336,70.0,72.0
1373,301.2276198666667,301.6430606,66.0,90.0
1374,301.2276198666667,301.72210463333334,63.0,88.0
1375,301.2276198666667,301.89122210000005,51.0,52.0
1376,302.1099718666667,302.44269210000004,58.0,85.0
1377,302.1099718666667,302.4463685666667,66.0,63.0
1378,302.1099718666667,302.5070302666667,61.0,85.0
1379,302.1099718666667,302.71291240000005,46.0,90.0
1380,302.7717358666667,304.2882783666667,59.0,86.0
1381,302.7717358666667,304.3379106666667,47.0,66.0
1382,302.7717358666667,304.3452636,63.0,96.0
1383,304.31585186666666,304.3452636,63.0,85.0
1384,302.7717358666667,304.3452636,66.0,93.0
1385,304.31585186666666,304.3452636,66.0,100.0
1386,304.31585186666666,304.48864580000003,70.0,65.0
1387,304.31585186666666,304.68901323333336,51.0,93.0
1388,304.7570278666667,305.5456299666667,64.0,81.0
1389,304.7570278666667,305.5456299666667,71.0,66.0
1390,304.7570278666667,305.5713652333334,68.0,86.0
1391,304.7570278666667,305.58239463333337,52.0,66.0
1392,305.6393798666667,306.13937933333335,61.0,107.0
1393,305.6393798666667,306.2845997666667,58.0,99.0
1394,305.6393798666667,306.39121730000005,46.0,90.0
1395,306.5217318666667,307.7349658666667,59.0,79.0
1396,306.5217318666667,307.73864233333336,56.0,93.0
1397,306.5217318666667,307.7478335,63.0,71.0
1398,306.5217318666667,307.7515099666667,44.0,78.0
1399,307.2901134,308.10996546666667,58.0,86.0
1400,307.2937898666667,308.1136419333334,61.0,79.0
1401,307.28827516666666,308.13018603333336,54.0,89.0
1402,308.2974652666667,309.43900816666667,40.0,85.0
1403,308.18717126666667,309.4445228666667,52.0,83.0
1404,308.18717126666667,309.4665816666667,56.0,88.0
1405,309.4095964333334,309.4665816666667,56.0,85.0
1406,308.18717126666667,309.4886404666667,59.0,83.0
1407,310.50518350000004,311.5860647,54.0,76.0
1408,310.03091930000005,311.9959907333334,42.0,107.0
1409,311.17797690000003,312.9665779333334,61.0,107.0
1410,311.93532903333335,313.09341603333337,58.0,89.0
1411,313.18165123333335,313.3783422,61.0,57.0
1412,313.2882687666667,313.38018043333335,58.0,33.0
1413,314.42062050000004,314.7128996,51.0,55.0
1414,314.65775260000004,314.74231133333336,54.0,64.0
1415,314.9702522666667,315.71657500000003,59.0,64.0
1416,315.3084872,315.74047203333333,63.0,62.0
1417,315.6871632666667,315.78091316666666,66.0,59.0
1418,316.1393686666667,317.2735586333334,71.0,44.0
1419,316.58422113333336,317.2919409666667,75.0,57.0
1420,317.1136323333334,317.3250291666667,78.0,53.0
1421,314.1559149,317.43899963333337,47.0,68.0
1422,313.3654745666667,317.5290730666667,35.0,82.0
1423,313.8728269666667,317.5566465666667,42.0,58.0
1424,318.14304300000003,319.47392393333337,51.0,58.0
1425,318.0492931,319.4867915666667,54.0,59.0
1426,318.2496605333334,319.4996592,47.0,39.0
1427,318.2864252,319.5401003333334,35.0,40.0
