,start,end,pitch,velocity
0,16.10436135,16.63993545,55.0,96.0
1,16.57347735,17.06604915,58.0,97.0
2,17.04259335,17.40615825,62.0,95.0
3,17.51170935,17.9358684,62.0,95.0
4,17.98082535,18.107877600000002,60.0,71.0
5,18.21538335,18.5730843,60.0,99.0
6,18.91905735,19.130159550000002,58.0,97.0
7,19.15361535,19.4135838,57.0,73.0
8,19.38817335,19.76737545,58.0,79.0
9,19.857289350000002,20.06057295,57.0,93.0
10,20.091847350000002,20.41240995,58.0,107.0
11,20.56096335,20.83461435,60.0,102.0
12,21.03007935,22.22241585,55.0,99.0
13,23.61021735,23.91905205,55.0,93.0
14,24.07933335,24.4174878,58.0,93.0
15,24.548449350000002,24.8709666,62.0,96.0
16,25.01756535,25.4221779,62.0,97.0
17,25.48668135,25.6293708,60.0,92.0
18,25.72123935,26.104350750000002,60.0,95.0
19,26.42491335,26.70247365,57.0,97.0
20,26.89402935,27.3455535,58.0,112.0
21,31.11607335,31.469865000000002,55.0,97.0
22,31.58518935,31.9077066,58.0,122.0
23,32.05430535,32.34359355,62.0,102.0
24,32.52342135,32.9280339,62.0,112.0
25,32.99253735,33.103952400000004,60.0,102.0
26,33.22709535,33.48510915,60.0,96.0
27,33.93076935,34.0734588,58.0,97.0
28,34.16532735,34.38424815,57.0,88.0
29,34.39988535,34.913958300000004,58.0,102.0
30,34.86900135,35.0156001,57.0,89.0
31,35.10355935,35.3869836,58.0,107.0
32,35.572675350000004,35.860008900000004,60.0,97.0
33,36.041791350000004,36.84710715,55.0,93.0
34,37.21458135,37.496050950000004,55.0,100.0
35,37.68369735,37.99253205,62.0,107.0
36,38.62192935,39.6285741,60.0,96.0
37,40.49839335,40.78377225,58.0,117.0
38,40.96750935,41.26461615,55.0,93.0
39,41.43662535,41.7786891,58.0,107.0
40,41.90574135,42.9436605,57.0,102.0
41,46.12778535,46.66335945,55.0,96.0
42,46.59690135,47.08947315,58.0,97.0
43,47.06601735,47.42958225,62.0,95.0
44,47.53513335,47.9592924,62.0,95.0
45,48.00424935,48.1313016,60.0,71.0
46,48.23880735,48.5965083,60.0,99.0
47,48.94248135,49.15358355,58.0,97.0
48,49.17703935,49.4370078,57.0,73.0
49,49.41159735,49.79079945,58.0,79.0
50,49.88071335,50.08399695,57.0,93.0
51,50.11527135,50.43583395,58.0,107.0
52,50.58438735,50.85803835,60.0,102.0
53,51.05350335,52.24583985,55.0,99.0
54,53.633641350000005,53.94247605,55.0,93.0
55,54.102757350000005,54.4409118,58.0,93.0
56,54.571873350000004,54.8943906,62.0,96.0
57,55.040989350000004,55.4456019,62.0,97.0
58,55.51010535,55.6527948,60.0,92.0
59,55.74466335,56.12777475,60.0,95.0
60,56.44833735,56.72589765,57.0,97.0
61,56.91745335,57.3689775,58.0,112.0
62,61.13949735,61.493289000000004,55.0,97.0
63,61.60861335,61.9311306,58.0,122.0
64,62.07772935,62.36701755,62.0,102.0
65,62.54684535,62.9514579,62.0,112.0
66,63.015961350000005,63.1273764,60.0,102.0
67,63.250519350000005,63.50853315,60.0,96.0
68,63.954193350000004,64.0968828,58.0,97.0
69,64.18875135,64.40767215,57.0,88.0
70,64.42330935,64.9373823,58.0,102.0
71,64.89242535,65.0390241,57.0,89.0
72,65.12698335,65.4104076,58.0,107.0
73,65.59609935,65.8834329,60.0,97.0
74,66.06521535,66.87053115,55.0,93.0
75,67.23800535000001,67.51947495,55.0,100.0
76,67.70712135000001,68.01595605,62.0,107.0
77,68.64535335000001,68.94636945,58.0,99.0
78,69.11446935000001,69.4721703,55.0,88.0
79,69.58358535,70.45926855,57.0,117.0
80,70.52181735,70.7896044,55.0,81.0
81,70.99093335,71.2978134,54.0,90.0
82,71.46004935,72.1813152,57.0,93.0
83,71.92916535,73.50461325,55.0,93.0
84,74.27474535,74.58748935,55.0,99.0
85,74.74386135,75.0429228,67.0,117.0
86,75.21297735,75.47880975,62.0,112.0
87,75.68209335,76.10429775,62.0,127.0
88,76.15120935,76.2587151,63.0,89.0
89,76.38576735000001,76.9193868,63.0,127.0
90,78.02767335,78.24854880000001,53.0,112.0
91,78.49678935,78.7293927,65.0,127.0
92,78.96590535,79.2063273,60.0,107.0
93,79.43502135,79.88850015,60.0,117.0
94,79.90413735,80.01359775,62.0,97.0
95,80.13869535,80.97919485,62.0,112.0
96,81.78060135,81.9936582,55.0,99.0
97,82.24971735,82.5839625,67.0,117.0
98,82.71883335,82.9866204,62.0,117.0
99,83.18794935,83.5769247,62.0,112.0
100,83.65706535,83.7684804,63.0,122.0
101,83.89162335,84.1124988,63.0,127.0
102,84.59529735,84.72821355,67.0,117.0
103,84.82985535,85.40452245,67.0,100.0
104,85.53352935000001,85.7544048,67.0,102.0
105,85.76808735,86.28411495,69.0,127.0
106,86.47176135000001,86.80796115,62.0,122.0
107,86.70631935,87.09724935,69.0,122.0
108,87.40999335000001,87.5526828,70.0,127.0
109,87.64455135,88.0569825,69.0,127.0
110,88.11366735,88.3228149,67.0,122.0
111,88.58278335,89.249319,62.0,102.0
112,89.28645735,89.56010835000001,55.0,107.0
113,89.75557335,90.01358715,67.0,127.0
114,90.22468935,90.4924764,62.0,127.0
115,90.69380535,91.13164695,62.0,127.0
116,91.16292135,91.26847245,63.0,107.0
117,91.39747935,91.75322565,63.0,127.0
118,93.03938535,93.25048755,62.0,117.0
119,93.50850135,93.74110470000001,74.0,122.0
120,93.97761735,94.1515812,69.0,112.0
121,94.44673335,94.77902385,69.0,127.0
122,94.91584935,95.0155365,70.0,122.0
123,95.15040735000001,95.90099295,70.0,127.0
124,95.85408135,96.0788661,69.0,127.0
125,96.08863935000001,96.92522955,67.0,122.0
126,97.26142935,97.5644001,67.0,112.0
127,97.73054535,98.60231925000001,74.0,127.0
128,98.66877735,98.8974714,72.0,102.0
129,99.13789335,99.4838664,70.0,127.0
130,99.60700935,100.24813455,69.0,127.0
131,100.54524135,100.8091191,67.0,112.0
132,101.01435735,101.31341880000001,66.0,122.0
133,101.48347335,101.95258935,69.0,122.0
134,102.18714735,102.3572019,70.0,99.0
135,102.30442635,102.4432065,69.0,85.0
136,102.42170535,103.87401030000001,67.0,97.0
137,136.19805735,136.73363145,55.0,96.0
138,136.66717335,137.15974515,58.0,97.0
139,137.13628935,137.49985425,62.0,95.0
140,137.60540535,138.0295644,62.0,95.0
141,138.07452135,138.20157360000002,60.0,71.0
142,138.30907935,138.6667803,60.0,99.0
143,139.01275335,139.22385555,58.0,97.0
144,139.24731135,139.5072798,57.0,73.0
145,139.48186935,139.86107145,58.0,79.0
146,139.95098535,140.15426895000002,57.0,93.0
147,140.18554335000002,140.50610595,58.0,107.0
148,140.65465935,140.92831035,60.0,102.0
149,141.12377535000002,142.31611185,55.0,99.0
150,143.70391335,144.01274805,55.0,93.0
151,144.17302935,144.5111838,58.0,93.0
152,144.64214535,144.9646626,62.0,96.0
153,145.11126135,145.5158739,62.0,97.0
154,145.58037735,145.7230668,60.0,92.0
155,145.81493535,146.19804675,60.0,95.0
156,146.51860935,146.79616965,57.0,97.0
157,146.98772535,147.43924950000002,58.0,112.0
158,151.20976935000002,151.563561,55.0,97.0
159,151.67888535,152.0014026,58.0,122.0
160,152.14800135000002,152.43728955,62.0,102.0
161,152.61711735,153.0217299,62.0,112.0
162,153.08623335000001,153.1976484,60.0,102.0
163,153.32079135,153.57880515,60.0,96.0
164,154.02446535,154.1671548,58.0,97.0
165,154.25902335,154.47794415,57.0,88.0
166,154.49358135,155.0076543,58.0,102.0
167,154.96269735,155.1092961,57.0,89.0
168,155.19725535,155.4806796,58.0,107.0
169,155.66637135,155.9537049,60.0,97.0
170,156.13548735,156.94080315,55.0,93.0
171,157.30827735,157.58974695,55.0,100.0
172,157.77739335,158.08622805000002,62.0,107.0
173,158.71562535,159.7222701,60.0,96.0
174,160.59208935,160.87746825,58.0,117.0
175,161.06120535,161.35831215000002,55.0,93.0
176,161.53032135,161.8723851,58.0,107.0
177,161.99943735,163.03735650000002,57.0,102.0
178,166.22148135,166.75705545,55.0,96.0
179,166.69059735,167.18316915,58.0,97.0
180,167.15971335,167.52327825,62.0,95.0
181,167.62882935000002,168.0529884,62.0,95.0
182,168.09794535,168.2249976,60.0,71.0
183,168.33250335,168.6902043,60.0,99.0
184,169.03617735,169.24727955,58.0,97.0
185,169.27073535,169.5307038,57.0,73.0
186,169.50529335000002,169.88449545,58.0,79.0
187,169.97440935,170.17769295,57.0,93.0
188,170.20896735,170.52952995,58.0,107.0
189,170.67808335,170.95173435,60.0,102.0
190,171.14719935,172.33953585,55.0,99.0
191,173.72733735,174.03617205,55.0,93.0
192,174.19645335,174.5346078,58.0,93.0
193,174.66556935,174.9880866,62.0,96.0
194,175.13468535,175.5392979,62.0,97.0
195,175.60380135,175.7464908,60.0,92.0
196,175.83835935,176.22147075,60.0,95.0
197,176.54203335,176.81959365,57.0,97.0
198,177.01114935,177.4626735,58.0,112.0
199,181.23319335,181.586985,55.0,97.0
200,181.70230935,182.0248266,58.0,122.0
201,182.17142535,182.46071355,62.0,102.0
202,182.64054135,183.0451539,62.0,112.0
203,183.10965735,183.2210724,60.0,102.0
204,183.34421535,183.60222915,60.0,96.0
205,184.04788935,184.1905788,58.0,97.0
206,184.28244735,184.50136815000002,57.0,88.0
207,184.51700535,185.03107830000002,58.0,102.0
208,184.98612135000002,185.1327201,57.0,89.0
209,185.22067935,185.5041036,58.0,107.0
210,185.68979535,185.9771289,60.0,97.0
211,186.15891135,186.96422715,55.0,93.0
212,187.33170135,187.61317095,55.0,100.0
213,187.80081735000002,188.10965205,62.0,107.0
214,188.73904935000002,189.04006545000001,58.0,99.0
215,189.20816535,189.5658663,55.0,88.0
216,189.67728135000002,190.55296455,57.0,117.0
217,190.61551335000001,190.8833004,55.0,81.0
218,191.08462935,191.39150940000002,54.0,90.0
219,191.55374535,192.2750112,57.0,93.0
220,192.02286135,193.59830925,55.0,93.0
221,194.36844135,194.68118535,55.0,99.0
222,194.83755735,195.1366188,67.0,117.0
223,195.30667335,195.57250575,62.0,112.0
224,195.77578935,196.19799375,62.0,127.0
225,196.24490535,196.3524111,63.0,89.0
226,196.47946335,197.0130828,63.0,127.0
227,198.12136935,198.3422448,53.0,112.0
228,198.59048535,198.8230887,65.0,127.0
229,199.05960135,199.3000233,60.0,107.0
230,199.52871735,199.98219615,60.0,117.0
231,199.99783335,200.10729375,62.0,97.0
232,200.23239135,201.07289085,62.0,112.0
233,201.87429735,202.0873542,55.0,99.0
234,202.34341335,202.6776585,67.0,117.0
235,202.81252935,203.08031640000002,62.0,117.0
236,203.28164535000002,203.6706207,62.0,112.0
237,203.75076135,203.8621764,63.0,122.0
238,203.98531935,204.2061948,63.0,127.0
239,204.68899335,204.82190955000002,67.0,117.0
240,204.92355135,205.49821845,67.0,100.0
241,205.62722535,205.8481008,67.0,102.0
242,205.86178335,206.37781095,69.0,127.0
243,206.56545735,206.90165715,62.0,122.0
244,206.80001535,207.19094535,69.0,122.0
245,207.50368935,207.6463788,70.0,127.0
246,207.73824735,208.1506785,69.0,127.0
247,208.20736335,208.4165109,67.0,122.0
248,208.67647935,209.343015,62.0,102.0
249,209.38015335,209.65380435,55.0,107.0
250,209.84926935000001,210.10728315,67.0,127.0
251,210.31838535,210.5861724,62.0,127.0
252,210.78750135,211.22534295,62.0,127.0
253,211.25661735,211.36216845,63.0,107.0
254,211.49117535,211.84692165,63.0,127.0
255,213.13308135,213.34418355,62.0,117.0
256,213.60219735,213.83480070000002,74.0,122.0
257,214.07131335,214.2452772,69.0,112.0
258,214.54042935,214.87271985,69.0,127.0
259,215.00954535,215.10923250000002,70.0,122.0
260,215.24410335000002,215.99468895,70.0,127.0
261,215.94777735,216.1725621,69.0,127.0
262,216.18233535000002,217.01892555,67.0,122.0
263,217.35512535,217.6580961,67.0,112.0
264,217.82424135,218.69601525000002,74.0,127.0
265,218.76247335,218.9911674,72.0,102.0
266,219.23158935,219.5775624,70.0,127.0
267,219.70070535,220.34183055,69.0,127.0
268,220.63893735,220.9028151,67.0,112.0
269,221.10805335,221.40711480000002,66.0,122.0
270,221.57716935000002,222.04628535,69.0,122.0
271,222.28084335,222.4508979,70.0,99.0
272,222.39812235,222.5369025,69.0,85.0
273,222.51540135000002,223.56113910000002,67.0,97.0
274,224.39186535000002,224.70460935,55.0,99.0
275,224.86098135,225.1600428,67.0,117.0
276,225.33009735000002,225.59592975,62.0,112.0
277,225.79921335,226.22141775,62.0,127.0
278,226.26832935000002,226.37583510000002,63.0,89.0
279,226.50288735,227.0365068,63.0,127.0
280,228.14479335000001,228.3656688,53.0,112.0
281,228.61390935,228.8465127,65.0,127.0
282,229.08302535,229.3234473,60.0,107.0
283,229.55214135,230.00562015,60.0,117.0
284,230.02125735,230.13071775,62.0,97.0
285,230.25581535,231.09631485,62.0,112.0
286,231.89772135,232.1107782,55.0,99.0
287,232.36683735,232.7010825,67.0,117.0
288,232.83595335,233.1037404,62.0,117.0
289,233.30506935,233.6940447,62.0,112.0
290,233.77418535,233.88560040000002,63.0,122.0
291,234.00874335,234.2296188,63.0,127.0
292,234.71241735,234.84533355,67.0,117.0
293,234.94697535,235.52164245,67.0,100.0
294,235.65064935,235.8715248,67.0,102.0
295,235.88520735,236.40123495,69.0,127.0
296,236.58888135,236.92508115,62.0,122.0
297,236.82343935,237.21436935,69.0,122.0
298,237.52711335,237.6698028,70.0,127.0
299,237.76167135,238.1741025,69.0,127.0
300,238.23078735,238.4399349,67.0,122.0
301,238.69990335,239.366439,62.0,102.0
302,239.40357735,239.67722835,55.0,107.0
303,239.87269335000002,240.13070715,67.0,127.0
304,240.34180935,240.60959640000002,62.0,127.0
305,240.81092535000002,241.24876695,62.0,127.0
306,241.28004135,241.38559245000002,63.0,107.0
307,241.51459935,241.87034565000002,63.0,127.0
308,243.15650535,243.36760755,62.0,117.0
309,243.62562135000002,243.8582247,74.0,122.0
310,244.09473735,244.2687012,69.0,112.0
311,244.56385335000002,244.89614385000002,69.0,127.0
312,245.03296935,245.1326565,70.0,122.0
313,245.26752735,246.01811295000002,70.0,127.0
314,245.97120135,246.1959861,69.0,127.0
315,246.20575935,247.04234955,67.0,122.0
316,247.37854935000001,247.6815201,67.0,112.0
317,247.84766535,248.71943925,74.0,127.0
318,248.78589735,249.0145914,72.0,102.0
319,249.25501335,249.6009864,70.0,127.0
320,249.72412935,250.36525455,69.0,127.0
321,252.53882535,252.92975535,67.0,97.0
322,253.00794135,253.62952005,66.0,122.0
323,253.94617335,259.65766065,67.0,127.0
