,start,end,pitch,velocity
0,0.62353335,1.7435478,55.0,61.0
1,0.62353335,2.1188406,36.0,70.0
2,1.56176535,2.31235095,48.0,65.0
3,1.09264935,2.33189745,43.0,37.0
4,0.62353335,2.62118565,60.0,65.0
5,2.03088135,2.6309589,55.0,69.0
6,0.62353335,2.6426868,63.0,63.0
7,2.49999735,3.8135221500000003,38.0,66.0
8,2.96911335,3.9034360500000003,45.0,53.0
9,3.4382293500000003,4.31391255,50.0,54.0
10,3.90734535,4.41946365,62.0,71.0
11,3.4382293500000003,4.4292369,66.0,75.0
12,4.84557735,5.45151885,50.0,66.0
13,4.3764613500000005,5.55706995,43.0,69.0
14,5.78380935,6.2353335,41.0,69.0
15,5.31469335,6.3213381,62.0,88.0
16,6.7220413500000005,7.4902188,52.0,53.0
17,6.25292535,7.5664501500000005,40.0,65.0
18,7.19115735,8.18802885,58.0,81.0
19,7.66027335,8.2017114,55.0,70.0
20,9.06762135,9.43900485,48.0,53.0
21,8.12938935,9.9061662,36.0,74.0
22,9.06762135,10.0508103,60.0,66.0
23,8.59850535,10.0625382,43.0,51.0
24,9.06762135,10.074266100000001,63.0,68.0
25,9.536737350000001,10.0899033,55.0,54.0
26,10.00585335,11.159096850000001,38.0,72.0
27,10.47496935,11.20600845,45.0,53.0
28,10.94408535,11.56566405,50.0,53.0
29,11.647759350000001,11.71421745,43.0,21.0
30,10.94408535,11.9780952,66.0,72.0
31,10.94408535,11.9937324,62.0,73.0
32,11.41320135,12.060190500000001,57.0,71.0
33,12.35143335,12.90069,55.0,35.0
34,12.82054935,13.47731175,62.0,72.0
35,11.882317350000001,13.48122105,43.0,69.0
36,12.82054935,13.54767915,60.0,74.0
37,13.75878135,15.068396850000001,43.0,41.0
38,13.75878135,15.58833375,62.0,40.0
39,13.75878135,15.65479185,59.0,53.0
40,13.28966535,15.77207085,55.0,63.0
41,16.57347735,17.0171829,48.0,55.0
42,15.63524535,17.36315595,36.0,81.0
43,16.10436135,17.513664000000002,43.0,58.0
44,17.04259335,17.5762128,60.0,67.0
45,16.57347735,17.6074872,63.0,88.0
46,17.51170935,18.8545539,38.0,77.0
47,17.98082535,18.891692250000002,45.0,56.0
48,18.44994135,19.2611211,66.0,78.0
49,18.44994135,19.2923955,50.0,58.0
50,18.91905735,19.3002141,62.0,83.0
51,19.38817335,20.27949375,43.0,68.0
52,20.32640535,21.16690485,41.0,47.0
53,20.79552135,21.303730350000002,53.0,64.0
54,19.857289350000002,21.3213222,62.0,72.0
55,22.20286935,22.80881085,52.0,25.0
56,21.73375335,23.01600375,46.0,49.0
57,21.26463735,23.03164095,40.0,58.0
58,22.67198535,23.16846645,55.0,48.0
59,22.20286935,23.21537805,58.0,67.0
60,24.07933335,24.370576200000002,48.0,50.0
61,23.14110135,24.80646315,36.0,78.0
62,23.61021735,25.029293250000002,43.0,46.0
63,24.07933335,25.10356995,60.0,74.0
64,24.07933335,25.10356995,63.0,76.0
65,24.548449350000002,25.2228036,55.0,64.0
66,25.01756535,26.2587681,38.0,66.0
67,25.48668135,26.293951800000002,45.0,52.0
68,25.95579735,26.540237700000002,50.0,58.0
69,25.95579735,26.968306050000002,62.0,77.0
70,26.42491335,27.01521765,57.0,73.0
71,26.89402935,28.6825341,43.0,68.0
72,27.36314535,28.823268900000002,50.0,58.0
73,27.83226135,29.55626265,62.0,86.0
74,28.30137735,29.66963235,58.0,76.0
75,28.770493350000002,30.15438555,43.0,65.0
76,29.70872535,30.7310073,62.0,85.0
77,30.17784135,30.7701003,58.0,44.0
78,31.58518935,31.954618200000002,48.0,44.0
79,30.64695735,32.34359355,36.0,86.0
80,31.11607335,32.5410132,43.0,55.0
81,32.05430535,32.6152899,60.0,57.0
82,31.58518935,32.6348364,63.0,95.0
83,28.770493350000002,32.9397618,55.0,72.0
84,32.52342135,33.79003455,38.0,82.0
85,32.99253735,33.7998078,45.0,53.0
86,33.46165335,33.997227450000004,50.0,59.0
87,33.46165335,34.25133195,66.0,95.0
88,33.93076935,34.284561000000004,62.0,76.0
89,34.39988535,35.330298750000004,43.0,92.0
90,35.10355935,35.3987115,55.0,72.0
91,34.86900135,35.68213575,62.0,92.0
92,35.33811735,36.17470755,41.0,65.0
93,35.807233350000004,36.37017255,53.0,77.0
94,36.041791350000004,36.4034016,62.0,70.0
95,36.74546535,37.29276735,55.0,58.0
96,36.276349350000004,37.78924845,40.0,68.0
97,37.21458135,38.639521200000004,58.0,62.0
98,38.15281335,39.8983158,36.0,68.0
99,38.62192935,40.001912250000004,43.0,33.0
100,39.09104535,40.76813505,60.0,63.0
101,39.09104535,40.76813505,63.0,60.0
102,40.96750935,41.26461615,48.0,46.0
103,40.02927735,41.66336475,36.0,68.0
104,40.49839335,41.8764216,43.0,45.0
105,40.96750935,41.9976099,63.0,99.0
106,41.43662535,42.0406122,60.0,73.0
107,39.56016135,42.122707500000004,55.0,52.0
108,42.37485735,43.080486,45.0,39.0
109,42.84397335,43.4440509,50.0,44.0
110,43.78220535,44.356872450000004,62.0,67.0
111,43.78220535,44.57970255,57.0,68.0
112,42.84397335,44.61097695,54.0,72.0
113,43.78220535,44.7927594,50.0,47.0
114,44.720437350000005,45.21691845,54.0,69.0
115,44.720437350000005,45.63521355,62.0,72.0
116,43.31308935,45.6449868,45.0,53.0
117,44.720437350000005,45.64694145,57.0,78.0
118,45.189553350000004,45.7231728,50.0,63.0
119,41.90574135,45.7661751,38.0,73.0
120,46.59690135,47.0406069,48.0,55.0
121,45.658669350000004,47.38657995,36.0,81.0
122,46.12778535,47.537088000000004,43.0,58.0
123,47.06601735,47.5996368,60.0,67.0
124,46.59690135,47.6309112,63.0,88.0
125,47.53513335,48.877977900000005,38.0,77.0
126,48.00424935,48.915116250000004,45.0,56.0
127,48.47336535,49.2845451,66.0,78.0
128,48.47336535,49.3158195,50.0,58.0
129,48.94248135,49.323638100000004,62.0,83.0
130,49.41159735,50.30291775,43.0,68.0
131,50.34982935,51.19032885,41.0,47.0
132,50.81894535,51.32715435,53.0,64.0
133,49.88071335,51.3447462,62.0,72.0
134,52.22629335,52.83223485,52.0,25.0
135,51.75717735,53.03942775,46.0,49.0
136,51.28806135,53.05506495,40.0,58.0
137,52.69540935,53.19189045,55.0,48.0
138,52.22629335,53.238802050000004,58.0,67.0
139,54.102757350000005,54.3940002,48.0,50.0
140,53.16452535,54.829887150000005,36.0,78.0
141,53.633641350000005,55.05271725,43.0,46.0
142,54.102757350000005,55.12699395,60.0,74.0
143,54.102757350000005,55.12699395,63.0,76.0
144,54.571873350000004,55.246227600000005,55.0,64.0
145,55.040989350000004,56.2821921,38.0,66.0
146,55.51010535,56.3173758,45.0,52.0
147,55.97922135,56.563661700000004,50.0,58.0
148,55.97922135,56.99173005,62.0,77.0
149,56.44833735,57.03864165,57.0,73.0
150,56.91745335,58.705958100000004,43.0,68.0
151,57.38656935,58.8466929,50.0,58.0
152,57.85568535,59.57968665,62.0,86.0
153,58.32480135,59.69305635,58.0,76.0
154,58.79391735,60.17780955,43.0,65.0
155,59.73214935,60.7544313,62.0,85.0
156,60.20126535,60.7935243,58.0,44.0
157,61.60861335,61.978042200000004,48.0,44.0
158,60.67038135,62.36701755,36.0,86.0
159,61.13949735,62.5644372,43.0,55.0
160,62.07772935,62.6387139,60.0,57.0
161,61.60861335,62.6582604,63.0,95.0
162,58.79391735,62.963185800000005,55.0,72.0
163,62.54684535,63.81345855,38.0,82.0
164,63.015961350000005,63.8232318,45.0,53.0
165,63.485077350000005,64.02065145,50.0,59.0
166,63.485077350000005,64.27475595,66.0,95.0
167,63.954193350000004,64.307985,62.0,76.0
168,64.42330935,65.35372275,43.0,92.0
169,65.12698335,65.4221355,55.0,72.0
170,64.89242535,65.70555975,62.0,92.0
171,65.36154135,66.19813155,41.0,65.0
172,65.83065735,66.39359655,53.0,77.0
173,66.06521535,66.4268256,62.0,70.0
174,66.76888935,67.31619135,55.0,58.0
175,66.29977335,67.81267245000001,40.0,68.0
176,67.23800535000001,68.17623735000001,58.0,62.0
177,69.11446935000001,69.51321795,48.0,47.0
178,68.17623735000001,69.84941775,36.0,81.0
179,68.64535335000001,70.03901880000001,43.0,50.0
180,69.58358535,70.13870595,60.0,61.0
181,69.11446935000001,70.16020710000001,63.0,86.0
182,70.52181735,71.22549135,45.0,35.0
183,70.05270135,71.29976805,38.0,72.0
184,70.99093335,71.41704705000001,50.0,41.0
185,70.99093335,71.8881177,66.0,100.0
186,71.46004935,71.9115735,62.0,64.0
187,72.39828135,72.96903915,48.0,38.0
188,72.86739735,73.43229120000001,50.0,51.0
189,71.92916535,73.65903060000001,43.0,88.0
190,72.86739735,73.71180615,62.0,86.0
191,72.86739735,73.7254887,60.0,95.0
192,73.33651335,73.807584,48.0,43.0
193,73.80562935,74.66958465,62.0,82.0
194,73.80562935,74.6832672,59.0,88.0
195,73.80562935,74.6949951,55.0,89.0
196,73.80562935,74.83963920000001,43.0,79.0
197,74.97841935,75.11524485,43.0,66.0
198,74.74386135,75.24816105000001,59.0,90.0
199,74.74386135,75.5941341,62.0,96.0
200,75.44753535,75.64690965,59.0,97.0
201,75.21297735,75.72509565,55.0,99.0
202,76.15120935,76.72587645,48.0,86.0
203,76.38576735000001,76.7317404,55.0,59.0
204,75.68209335,77.0014821,36.0,88.0
205,75.91665135,77.04252975,43.0,61.0
206,76.62032535,77.14808085,63.0,107.0
207,76.62032535,77.1656727,60.0,102.0
208,76.85488335000001,77.4784167,48.0,66.0
209,77.08944135,77.58983175,55.0,99.0
210,77.55855735,78.3619185,57.0,93.0
211,77.55855735,78.36778245,60.0,96.0
212,78.02767335,78.5886579,48.0,63.0
213,77.55855735,78.82907985,41.0,88.0
214,78.73134735000001,78.9053112,48.0,81.0
215,78.49678935,78.99717975,57.0,97.0
216,78.49678935,79.08709365,60.0,97.0
217,78.96590535,79.37638185,53.0,88.0
218,79.43502135,80.24033715,62.0,96.0
219,79.43502135,80.25988365,58.0,100.0
220,79.43502135,80.27161155,53.0,86.0
221,79.43502135,80.51007885,46.0,127.0
222,80.37325335,80.59608345000001,53.0,81.0
223,80.60781135,80.9186007,46.0,81.0
224,80.37325335,80.9655123,58.0,107.0
225,80.84236935,81.1531587,53.0,92.0
226,80.37325335,81.1687959,62.0,99.0
227,81.07692735,81.2196168,58.0,31.0
228,81.31148535,81.93306405,55.0,99.0
229,81.31148535,81.94283730000001,62.0,93.0
230,81.31148535,82.1187558,59.0,96.0
231,81.78060135,82.3494045,50.0,60.0
232,82.48427535,82.62501015000001,50.0,69.0
233,81.31148535,82.68755895,43.0,85.0
234,82.24971735,82.8107019,62.0,96.0
235,82.24971735,82.81265655,59.0,95.0
236,82.71883335,83.0843529,55.0,95.0
237,83.18794935,84.010857,63.0,99.0
238,83.18794935,84.0147663,55.0,93.0
239,83.18794935,84.0225849,60.0,95.0
240,83.65706535,84.2923266,43.0,59.0
241,84.12618135,84.60702525,48.0,75.0
242,84.12618135,84.62461710000001,60.0,97.0
243,84.12618135,84.62657175,63.0,102.0
244,83.18794935,84.83181,36.0,73.0
245,84.59529735,85.1250075,43.0,56.0
246,85.06441335,85.87754775,66.0,95.0
247,85.06441335,85.887321,57.0,90.0
248,85.06441335,85.8912303,62.0,93.0
249,85.06441335,86.41703115,38.0,83.0
250,85.53352935000001,86.4658974,45.0,52.0
251,86.00264535000001,86.49521715,66.0,117.0
252,86.00264535000001,86.50303575000001,62.0,112.0
253,86.47176135000001,86.77473210000001,57.0,99.0
254,86.23720335,86.83141695,50.0,96.0
255,86.94087735000001,87.5878665,58.0,100.0
256,86.94087735000001,87.7794222,43.0,89.0
257,87.40999335000001,87.82828845,50.0,77.0
258,86.94087735000001,87.90647445,55.0,107.0
259,86.94087735000001,87.9240663,62.0,92.0
260,87.87910935000001,88.73915535,57.0,112.0
261,87.87910935000001,88.79779485,45.0,99.0
262,88.81734135,89.52492465,65.0,86.0
263,88.81734135,89.56792695,62.0,96.0
264,88.81734135,89.601156,58.0,117.0
265,89.28645735,89.9803581,50.0,39.0
266,89.99013135,90.14259405,53.0,66.0
267,88.81734135,90.14650335,46.0,90.0
268,89.75557335,90.47488455,65.0,93.0
269,89.75557335,90.5042043,62.0,97.0
270,89.75557335,90.60584610000001,58.0,122.0
271,90.69380535,91.516713,63.0,112.0
272,90.69380535,91.52257695,60.0,100.0
273,90.69380535,91.53039555000001,55.0,97.0
274,90.69380535,92.12851845,36.0,74.0
275,91.86659535,92.1304731,48.0,89.0
276,91.63203735,92.1539289,63.0,112.0
277,91.63203735,92.15588355,60.0,102.0
278,92.10115335,92.4275799,55.0,96.0
279,91.16292135,92.55854145,43.0,54.0
280,92.57026935,93.3853584,66.0,99.0
281,92.57026935,93.39513165,57.0,107.0
282,92.57026935,93.4009956,62.0,99.0
283,93.03938535,93.64532685,45.0,50.0
284,93.50850135,94.01280105000001,66.0,112.0
285,92.57026935,94.0303929,38.0,71.0
286,93.50850135,94.03625685,62.0,100.0
287,93.97761735,94.16917305,45.0,71.0
288,93.50850135,94.2375858,57.0,86.0
289,94.21217535,94.25713230000001,43.0,31.0
290,93.50850135,94.4174136,50.0,81.0
291,94.44673335,95.23641195,55.0,95.0
292,94.44673335,95.34782700000001,43.0,102.0
293,94.44673335,95.3712828,62.0,95.0
294,94.44673335,95.45533275,58.0,112.0
295,95.38496535,95.97136035,53.0,100.0
296,95.38496535,96.2117823,41.0,88.0
297,96.32319735,97.18715265,58.0,99.0
298,96.32319735,97.19497125000001,55.0,92.0
299,96.32319735,97.21060845000001,52.0,92.0
300,96.32319735,97.4080281,40.0,92.0
301,97.26142935,97.7325,55.0,95.0
302,97.26142935,97.74227325,58.0,100.0
303,97.49598735000001,97.7442279,40.0,75.0
304,97.73054535,97.8536883,52.0,69.0
305,98.19966135,99.0147504,55.0,95.0
306,98.19966135,99.04211550000001,63.0,97.0
307,98.19966135,99.0538434,60.0,93.0
308,99.13789335,99.61678260000001,60.0,92.0
309,99.13789335,99.61678260000001,63.0,95.0
310,99.13789335,99.86111385000001,55.0,93.0
311,98.19966135,99.9334359,36.0,78.0
312,99.60700935,100.0077126,48.0,89.0
313,98.66877735,100.08589860000001,43.0,56.0
314,100.07612535,100.8677586,57.0,96.0
315,100.07612535,100.8677586,62.0,99.0
316,100.07612535,100.86971325,66.0,99.0
317,100.54524135,101.2156863,45.0,56.0
318,101.01435735,101.4971559,66.0,107.0
319,100.07612535,101.5167024,38.0,76.0
320,101.01435735,101.5206117,62.0,102.0
321,101.48347335,101.7278046,57.0,68.0
322,101.48347335,101.759079,45.0,66.0
323,101.01435735,101.91936030000001,50.0,92.0
324,101.95258935,102.77354235,55.0,100.0
325,101.95258935,102.775497,62.0,93.0
326,101.95258935,102.78917955,58.0,112.0
327,102.42170535,103.02569220000001,50.0,41.0
328,102.89082135,103.40684895,58.0,127.0
329,102.89082135,103.67659065000001,62.0,97.0
330,103.35993735,103.69222785000001,55.0,95.0
331,103.59449535,103.71177435,58.0,58.0
332,101.95258935,103.72350225,43.0,88.0
333,103.12537935,103.81341615000001,50.0,63.0
334,103.82905335000001,104.6285052,62.0,97.0
335,103.82905335000001,104.63827845,55.0,97.0
336,103.82905335000001,104.63827845,59.0,90.0
337,104.29816935000001,104.87283645000001,50.0,62.0
338,104.76728535000001,105.3360885,59.0,97.0
339,105.23640135000001,105.72506385,55.0,107.0
340,103.82905335000001,105.72897315,43.0,88.0
341,105.00184335,105.7426557,50.0,83.0
342,105.47095935,105.74461035,59.0,90.0
343,104.76728535000001,105.76611150000001,62.0,97.0
344,106.17463335000001,106.75125510000001,48.0,99.0
345,105.70551735000001,107.01904215,36.0,99.0
346,105.94007535,107.02686075,43.0,88.0
347,106.40919135,107.10504675,55.0,93.0
348,106.87830735,107.26728270000001,48.0,92.0
349,106.64374935000001,107.5409337,63.0,127.0
350,107.34742335,107.5878453,55.0,102.0
351,107.11286535,107.5956639,60.0,95.0
352,108.28565535,108.5768982,57.0,90.0
353,108.05109735,108.6199005,53.0,96.0
354,107.58198135,109.01278515,41.0,88.0
355,108.52021335,109.0147398,60.0,112.0
356,107.81653935,109.0186491,48.0,81.0
357,108.75477135,109.2688443,53.0,96.0
358,108.98932935,109.3665768,57.0,112.0
359,109.22388735,109.45453605,60.0,107.0
360,110.16211935,110.40840525,58.0,92.0
361,109.92756135,110.44554360000001,53.0,90.0
362,109.69300335,110.9185689,50.0,43.0
363,109.45844535,110.9381154,46.0,122.0
364,110.63123535,110.9693898,53.0,97.0
365,110.39667735,110.97916305,65.0,93.0
366,110.86579335,111.15899085000001,58.0,112.0
367,111.10035135,111.73756725,62.0,97.0
368,111.80402535,112.16368095,55.0,89.0
369,112.03858335,112.3063704,58.0,107.0
370,111.56946735,112.3884657,50.0,68.0
371,112.50769935000001,112.6816632,50.0,83.0
372,111.33490935,112.76375850000001,43.0,76.0
373,112.74225735,113.15859780000001,58.0,97.0
374,112.27314135,113.22310125,62.0,96.0
375,112.97681535000001,113.49284295,55.0,88.0
376,113.68048935,114.25515645,48.0,96.0
377,113.91504735000001,114.5933109,55.0,92.0
378,114.38416335000001,114.6050388,48.0,96.0
379,113.21137335,114.9256014,36.0,83.0
380,114.14960535,115.02137925000001,63.0,117.0
381,114.61872135,115.07610945,60.0,100.0
382,113.44593135000001,115.1054292,43.0,78.0
383,114.85327935000001,115.15429545,55.0,95.0
384,115.55695335,116.11207395000001,50.0,89.0
385,115.08783735,116.46000165000001,38.0,81.0
386,115.32239535000001,116.4932307,45.0,89.0
387,115.79151135000001,116.56164345,57.0,86.0
388,116.26062735000001,116.74538055000001,50.0,93.0
389,116.02606935,116.81574795,66.0,112.0
390,116.49518535,116.8255212,62.0,100.0
391,116.72974335,116.96821065,57.0,100.0
392,117.19885935,117.71097765,55.0,92.0
393,116.96430135,117.96508215,43.0,95.0
394,117.43341735,118.0139484,62.0,100.0
395,117.66797535,118.16836575,58.0,100.0
396,118.13709135,118.4791551,57.0,89.0
397,118.37164935,118.68439335000001,62.0,100.0
398,117.90253335,118.75476075,45.0,122.0
399,118.60620735,118.85053860000001,57.0,100.0
400,119.54443935,119.8083171,58.0,99.0
401,119.30988135,119.82590895,53.0,95.0
402,119.07532335,120.2266122,50.0,92.0
403,120.01355535,120.250068,53.0,96.0
404,118.84076535,120.25984125000001,46.0,99.0
405,119.77899735,120.34584585,65.0,86.0
406,120.24811335,120.66640845,58.0,122.0
407,120.48267135,120.83059905,62.0,89.0
408,121.18634535,121.74537525000001,48.0,76.0
409,121.42090335,122.03466345,55.0,65.0
410,121.89001935,122.126532,48.0,82.0
411,120.71722935,122.37868185,36.0,86.0
412,120.95178735,122.53114455000001,43.0,52.0
413,122.12457735000001,122.56632825,60.0,97.0
414,121.65546135000001,122.5839201,63.0,117.0
415,122.35913535,122.63669565000001,55.0,95.0
416,123.06280935000001,123.61402065,50.0,73.0
417,122.82825135,123.89939955,45.0,45.0
418,123.29736735,123.9209007,57.0,89.0
419,122.59369335000001,123.9365379,38.0,83.0
420,123.76648335,124.01276925,50.0,89.0
421,123.53192535000001,124.2961935,66.0,112.0
422,124.00104135000001,124.4447469,62.0,69.0
423,124.23559935,124.52879685,57.0,95.0
424,124.70471535,125.16601275000001,50.0,81.0
425,124.47015735000001,125.3087022,43.0,73.0
426,125.17383135,125.4728928,58.0,102.0
427,124.93927335000001,125.47875675,62.0,89.0
428,125.64294735,126.1570203,53.0,82.0
429,125.40838935000001,126.19415865,41.0,89.0
430,125.87750535,126.23716095,62.0,95.0
431,126.11206335,126.387669,58.0,100.0
432,126.81573735,127.10111625,55.0,78.0
433,127.05029535,127.38258585,58.0,79.0
434,126.58117935,127.45686255,52.0,78.0
435,127.51941135,127.87515765,52.0,74.0
436,126.34662135,127.9162053,40.0,72.0
437,127.28485335,128.09798775000002,64.0,93.0
438,127.98852735,128.22504,58.0,88.0
439,127.75396935,128.2875888,55.0,85.0
440,128.69220135,129.2219115,48.0,78.0
441,129.39587535,129.6128415,48.0,83.0
442,128.92675935,129.65975310000002,55.0,64.0
443,128.22308535,129.94708665000002,36.0,69.0
444,129.63043335,130.0780482,60.0,92.0
445,129.16131735,130.11323190000002,63.0,122.0
446,128.45764335,130.12691445000002,43.0,48.0
447,129.86499135,130.1757807,55.0,96.0
448,130.56866535,131.1061941,50.0,79.0
449,130.09954935,131.4033009,38.0,82.0
450,130.33410735,131.4228474,45.0,70.0
451,131.27233935,131.55771825,50.0,92.0
452,130.80322335,131.62026705,57.0,73.0
453,131.03778135000002,131.8450518,66.0,107.0
454,131.50689735,131.85482505000002,62.0,89.0
455,131.74145535,132.0483354,57.0,92.0
456,132.44512935,132.95333835,50.0,67.0
457,132.91424535000002,133.46545665,62.0,99.0
458,132.67968735,133.48891245000002,55.0,66.0
459,133.14880335,133.49282175,50.0,71.0
460,131.97601335000002,133.73519835,43.0,90.0
461,132.21057135,133.8036111,48.0,58.0
462,133.38336135,133.8114297,60.0,100.0
463,133.85247735000002,135.6996216,43.0,75.0
464,133.85247735000002,135.7660797,55.0,74.0
465,133.85247735000002,135.769989,59.0,74.0
466,133.85247735000002,135.7817169,62.0,76.0
467,136.66717335,137.11087890000002,48.0,55.0
468,135.72894135,137.45685195000001,36.0,81.0
469,136.19805735,137.60736,43.0,58.0
470,137.13628935,137.6699088,60.0,67.0
471,136.66717335,137.7011832,63.0,88.0
472,137.60540535,138.9482499,38.0,77.0
473,138.07452135,138.98538825,45.0,56.0
474,138.54363735,139.3548171,66.0,78.0
475,138.54363735,139.3860915,50.0,58.0
476,139.01275335,139.3939101,62.0,83.0
477,139.48186935,140.37318975,43.0,68.0
478,140.42010135,141.26060085,41.0,47.0
479,140.88921735,141.39742635000002,53.0,64.0
480,139.95098535,141.4150182,62.0,72.0
481,142.29656535,142.90250685,52.0,25.0
482,141.82744935,143.10969975,46.0,49.0
483,141.35833335,143.12533695,40.0,58.0
484,142.76568135,143.26216245,55.0,48.0
485,142.29656535,143.30907405,58.0,67.0
486,144.17302935,144.4642722,48.0,50.0
487,143.23479735,144.90015915,36.0,78.0
488,143.70391335,145.12298925000002,43.0,46.0
489,144.17302935,145.19726595,60.0,74.0
490,144.17302935,145.19726595,63.0,76.0
491,144.64214535,145.31649960000001,55.0,64.0
492,145.11126135,146.3524641,38.0,66.0
493,145.58037735,146.3876478,45.0,52.0
494,146.04949335,146.6339337,50.0,58.0
495,146.04949335,147.06200205000002,62.0,77.0
496,146.51860935,147.10891365,57.0,73.0
497,146.98772535,148.7762301,43.0,68.0
498,147.45684135,148.9169649,50.0,58.0
499,147.92595735,149.64995865,62.0,86.0
500,148.39507335,149.76332835,58.0,76.0
501,148.86418935,150.24808155,43.0,65.0
502,149.80242135,150.8247033,62.0,85.0
503,150.27153735000002,150.8637963,58.0,44.0
504,151.67888535,152.0483142,48.0,44.0
505,150.74065335,152.43728955,36.0,86.0
506,151.20976935000002,152.6347092,43.0,55.0
507,152.14800135000002,152.70898590000002,60.0,57.0
508,151.67888535,152.7285324,63.0,95.0
509,148.86418935,153.0334578,55.0,72.0
510,152.61711735,153.88373055,38.0,82.0
511,153.08623335000001,153.8935038,45.0,53.0
512,153.55534935,154.09092345,50.0,59.0
513,153.55534935,154.34502795,66.0,95.0
514,154.02446535,154.378257,62.0,76.0
515,154.49358135,155.42399475,43.0,92.0
516,155.19725535,155.4924075,55.0,72.0
517,154.96269735,155.77583175,62.0,92.0
518,155.43181335,156.26840355000002,41.0,65.0
519,155.90092935,156.46386855,53.0,77.0
520,156.13548735,156.49709760000002,62.0,70.0
521,156.83916135,157.38646335,55.0,58.0
522,156.37004535,157.88294445,40.0,68.0
523,157.30827735,158.7332172,58.0,62.0
524,158.24650935,159.9920118,36.0,68.0
525,158.71562535,160.09560825,43.0,33.0
526,159.18474135,160.86183105,60.0,63.0
527,159.18474135,160.86183105,63.0,60.0
528,161.06120535,161.35831215000002,48.0,46.0
529,160.12297335,161.75706075,36.0,68.0
530,160.59208935,161.9701176,43.0,45.0
531,161.06120535,162.0913059,63.0,99.0
532,161.53032135,162.1343082,60.0,73.0
533,159.65385735,162.2164035,55.0,52.0
534,162.46855335,163.174182,45.0,39.0
535,162.93766935,163.5377469,50.0,44.0
536,163.87590135,164.45056845,62.0,67.0
537,163.87590135,164.67339855,57.0,68.0
538,162.93766935,164.70467295,54.0,72.0
539,163.87590135,164.88645540000002,50.0,47.0
540,164.81413335,165.31061445,54.0,69.0
541,164.81413335,165.72890955,62.0,72.0
542,163.40678535,165.7386828,45.0,53.0
543,164.81413335,165.74063745,57.0,78.0
544,165.28324935,165.8168688,50.0,63.0
545,161.99943735,165.8598711,38.0,73.0
546,166.69059735,167.1343029,48.0,55.0
547,165.75236535,167.48027595,36.0,81.0
548,166.22148135,167.630784,43.0,58.0
549,167.15971335,167.6933328,60.0,67.0
550,166.69059735,167.7246072,63.0,88.0
551,167.62882935000002,168.9716739,38.0,77.0
552,168.09794535,169.00881225,45.0,56.0
553,168.56706135000002,169.3782411,66.0,78.0
554,168.56706135000002,169.4095155,50.0,58.0
555,169.03617735,169.4173341,62.0,83.0
556,169.50529335000002,170.39661375,43.0,68.0
557,170.44352535000002,171.28402485,41.0,47.0
558,170.91264135,171.42085035,53.0,64.0
559,169.97440935,171.4384422,62.0,72.0
560,172.31998935000001,172.92593085000001,52.0,25.0
561,171.85087335,173.13312375,46.0,49.0
562,171.38175735000002,173.14876095,40.0,58.0
563,172.78910535,173.28558645,55.0,48.0
564,172.31998935000001,173.33249805,58.0,67.0
565,174.19645335,174.48769620000002,48.0,50.0
566,173.25822135,174.92358315,36.0,78.0
567,173.72733735,175.14641325,43.0,46.0
568,174.19645335,175.22068995,60.0,74.0
569,174.19645335,175.22068995,63.0,76.0
570,174.66556935,175.3399236,55.0,64.0
571,175.13468535,176.3758881,38.0,66.0
572,175.60380135,176.4110718,45.0,52.0
573,176.07291735,176.6573577,50.0,58.0
574,176.07291735,177.08542605,62.0,77.0
575,176.54203335,177.13233765,57.0,73.0
576,177.01114935,178.7996541,43.0,68.0
577,177.48026535,178.94038890000002,50.0,58.0
578,177.94938135,179.67338265,62.0,86.0
579,178.41849735,179.78675235,58.0,76.0
580,178.88761335,180.27150555,43.0,65.0
581,179.82584535,180.84812730000002,62.0,85.0
582,180.29496135,180.8872203,58.0,44.0
583,181.70230935,182.0717382,48.0,44.0
584,180.76407735,182.46071355,36.0,86.0
585,181.23319335,182.6581332,43.0,55.0
586,182.17142535,182.7324099,60.0,57.0
587,181.70230935,182.7519564,63.0,95.0
588,178.88761335,183.0568818,55.0,72.0
589,182.64054135,183.90715455,38.0,82.0
590,183.10965735,183.9169278,45.0,53.0
591,183.57877335,184.11434745,50.0,59.0
592,183.57877335,184.36845195,66.0,95.0
593,184.04788935,184.401681,62.0,76.0
594,184.51700535,185.44741875,43.0,92.0
595,185.22067935,185.51583150000002,55.0,72.0
596,184.98612135000002,185.79925575000001,62.0,92.0
597,185.45523735,186.29182755,41.0,65.0
598,185.92435335000002,186.48729255,53.0,77.0
599,186.15891135,186.5205216,62.0,70.0
600,186.86258535000002,187.40988735,55.0,58.0
601,186.39346935,187.90636845,40.0,68.0
602,187.33170135,188.26993335,58.0,62.0
603,189.20816535,189.60691395,48.0,47.0
604,188.26993335,189.94311375,36.0,81.0
605,188.73904935000002,190.1327148,43.0,50.0
606,189.67728135000002,190.23240195,60.0,61.0
607,189.20816535,190.2539031,63.0,86.0
608,190.61551335000001,191.31918735,45.0,35.0
609,190.14639735,191.39346405,38.0,72.0
610,191.08462935,191.51074305,50.0,41.0
611,191.08462935,191.9818137,66.0,100.0
612,191.55374535,192.0052695,62.0,64.0
613,192.49197735,193.06273515,48.0,38.0
614,192.96109335,193.5259872,50.0,51.0
615,192.02286135,193.75272660000002,43.0,88.0
616,192.96109335,193.80550215,62.0,86.0
617,192.96109335,193.8191847,60.0,95.0
618,193.43020935,193.90128,48.0,43.0
619,193.89932535,194.76328065,62.0,82.0
620,193.89932535,194.7769632,59.0,88.0
621,193.89932535,194.7886911,55.0,89.0
622,193.89932535,194.93333520000002,43.0,79.0
623,195.07211535000002,195.20894085,43.0,66.0
624,194.83755735,195.34185705000002,59.0,90.0
625,194.83755735,195.6878301,62.0,96.0
626,195.54123135,195.74060565,59.0,97.0
627,195.30667335,195.81879165,55.0,99.0
628,196.24490535,196.81957245,48.0,86.0
629,196.47946335,196.8254364,55.0,59.0
630,195.77578935,197.0951781,36.0,88.0
631,196.01034735000002,197.13622575,43.0,61.0
632,196.71402135,197.24177685,63.0,107.0
633,196.71402135,197.2593687,60.0,102.0
634,196.94857935000002,197.5721127,48.0,66.0
635,197.18313735,197.68352775,55.0,99.0
636,197.65225335,198.4556145,57.0,93.0
637,197.65225335,198.46147845000002,60.0,96.0
638,198.12136935,198.6823539,48.0,63.0
639,197.65225335,198.92277585,41.0,88.0
640,198.82504335000002,198.9990072,48.0,81.0
641,198.59048535,199.09087575,57.0,97.0
642,198.59048535,199.18078965,60.0,97.0
643,199.05960135,199.47007785,53.0,88.0
644,199.52871735,200.33403315,62.0,96.0
645,199.52871735,200.35357965,58.0,100.0
646,199.52871735,200.36530755,53.0,86.0
647,199.52871735,200.60377485,46.0,127.0
648,200.46694935,200.68977945,53.0,81.0
649,200.70150735,201.0122967,46.0,81.0
650,200.46694935,201.0592083,58.0,107.0
651,200.93606535,201.2468547,53.0,92.0
652,200.46694935,201.26249190000001,62.0,99.0
653,201.17062335,201.3133128,58.0,31.0
654,201.40518135,202.02676005,55.0,99.0
655,201.40518135,202.0365333,62.0,93.0
656,201.40518135,202.2124518,59.0,96.0
657,201.87429735,202.4431005,50.0,60.0
658,202.57797135,202.71870615,50.0,69.0
659,201.40518135,202.78125495,43.0,85.0
660,202.34341335,202.9043979,62.0,96.0
661,202.34341335,202.90635255,59.0,95.0
662,202.81252935,203.1780489,55.0,95.0
663,203.28164535000002,204.104553,63.0,99.0
664,203.28164535000002,204.1084623,55.0,93.0
665,203.28164535000002,204.1162809,60.0,95.0
666,203.75076135,204.38602260000002,43.0,59.0
667,204.21987735000002,204.70072125000002,48.0,75.0
668,204.21987735000002,204.71831310000002,60.0,97.0
669,204.21987735000002,204.72026775,63.0,102.0
670,203.28164535000002,204.925506,36.0,73.0
671,204.68899335,205.2187035,43.0,56.0
672,205.15810935000002,205.97124375,66.0,95.0
673,205.15810935000002,205.981017,57.0,90.0
674,205.15810935000002,205.9849263,62.0,93.0
675,205.15810935000002,206.51072715,38.0,83.0
676,205.62722535,206.5595934,45.0,52.0
677,206.09634135000002,206.58891315,66.0,117.0
678,206.09634135000002,206.59673175,62.0,112.0
679,206.56545735,206.86842810000002,57.0,99.0
680,206.33089935,206.92511295,50.0,96.0
681,207.03457335000002,207.6815625,58.0,100.0
682,207.03457335000002,207.8731182,43.0,89.0
683,207.50368935,207.92198445,50.0,77.0
684,207.03457335000002,208.00017045,55.0,107.0
685,207.03457335000002,208.01776230000002,62.0,92.0
686,207.97280535000002,208.83285135,57.0,112.0
687,207.97280535000002,208.89149085,45.0,99.0
688,208.91103735000002,209.61862065,65.0,86.0
689,208.91103735000002,209.66162295,62.0,96.0
690,208.91103735000002,209.694852,58.0,117.0
691,209.38015335,210.0740541,50.0,39.0
692,210.08382735,210.23629005,53.0,66.0
693,208.91103735000002,210.24019935,46.0,90.0
694,209.84926935000001,210.56858055,65.0,93.0
695,209.84926935000001,210.5979003,62.0,97.0
696,209.84926935000001,210.6995421,58.0,122.0
697,210.78750135,211.610409,63.0,112.0
698,210.78750135,211.61627295,60.0,100.0
699,210.78750135,211.62409155,55.0,97.0
700,210.78750135,212.22221445,36.0,74.0
701,211.96029135,212.2241691,48.0,89.0
702,211.72573335,212.2476249,63.0,112.0
703,211.72573335,212.24957955,60.0,102.0
704,212.19484935,212.5212759,55.0,96.0
705,211.25661735,212.65223745,43.0,54.0
706,212.66396535,213.4790544,66.0,99.0
707,212.66396535,213.48882765000002,57.0,107.0
708,212.66396535,213.4946916,62.0,99.0
709,213.13308135,213.73902285,45.0,50.0
710,213.60219735,214.10649705,66.0,112.0
711,212.66396535,214.1240889,38.0,71.0
712,213.60219735,214.12995285,62.0,100.0
713,214.07131335,214.26286905,45.0,71.0
714,213.60219735,214.3312818,57.0,86.0
715,214.30587135000002,214.35082830000002,43.0,31.0
716,213.60219735,214.5111096,50.0,81.0
717,214.54042935,215.33010795,55.0,95.0
718,214.54042935,215.44152300000002,43.0,102.0
719,214.54042935,215.4649788,62.0,95.0
720,214.54042935,215.54902875000002,58.0,112.0
721,215.47866135,216.06505635,53.0,100.0
722,215.47866135,216.3054783,41.0,88.0
723,216.41689335,217.28084865,58.0,99.0
724,216.41689335,217.28866725,55.0,92.0
725,216.41689335,217.30430445000002,52.0,92.0
726,216.41689335,217.50172410000002,40.0,92.0
727,217.35512535,217.826196,55.0,95.0
728,217.35512535,217.83596925,58.0,100.0
729,217.58968335,217.8379239,40.0,75.0
730,217.82424135,217.9473843,52.0,69.0
731,218.29335735,219.10844640000002,55.0,95.0
732,218.29335735,219.13581150000002,63.0,97.0
733,218.29335735,219.1475394,60.0,93.0
734,219.23158935,219.71047860000002,60.0,92.0
735,219.23158935,219.71047860000002,63.0,95.0
736,219.23158935,219.95480985,55.0,93.0
737,218.29335735,220.0271319,36.0,78.0
738,219.70070535,220.1014086,48.0,89.0
739,218.76247335,220.1795946,43.0,56.0
740,220.16982135,220.9614546,57.0,96.0
741,220.16982135,220.9614546,62.0,99.0
742,220.16982135,220.96340925,66.0,99.0
743,220.63893735,221.3093823,45.0,56.0
744,221.10805335,221.59085190000002,66.0,107.0
745,220.16982135,221.6103984,38.0,76.0
746,221.10805335,221.6143077,62.0,102.0
747,221.57716935000002,221.8215006,57.0,68.0
748,221.57716935000002,221.852775,45.0,66.0
749,221.10805335,222.01305630000002,50.0,92.0
750,222.04628535,222.17920155000002,55.0,83.0
751,222.04628535,222.1811562,50.0,70.0
752,222.04628535,222.18311085000002,67.0,86.0
753,222.04628535,222.1889748,62.0,79.0
754,222.04628535,222.19483875,43.0,62.0
755,222.04628535,222.2007027,70.0,90.0
756,222.28084335,222.39421305000002,55.0,51.0
757,222.28084335,222.4039863,43.0,55.0
758,222.28084335,222.4118049,50.0,56.0
759,222.28084335,222.41375955,62.0,53.0
760,222.28084335,222.41766885,67.0,55.0
761,222.28084335,222.4235328,70.0,50.0
762,222.51540135000002,222.6541815,55.0,48.0
763,222.51540135000002,222.65613615,62.0,57.0
764,222.51540135000002,222.6580908,67.0,59.0
765,222.51540135000002,222.66395475000002,70.0,50.0
766,222.51540135000002,222.6659094,50.0,56.0
767,222.51540135000002,222.673728,43.0,49.0
768,222.74995935,222.86137440000002,55.0,52.0
769,222.74995935,222.8770116,67.0,59.0
770,222.74995935,222.8809209,50.0,58.0
771,222.74995935,222.89069415,70.0,52.0
772,222.74995935,222.8965581,62.0,61.0
773,222.74995935,222.9004674,43.0,53.0
774,222.98451735,223.07443125,55.0,55.0
775,222.98451735,223.09788705,50.0,65.0
776,222.98451735,223.10961495,67.0,63.0
777,222.98451735,223.1193882,62.0,59.0
778,222.98451735,223.12134285000002,43.0,59.0
779,222.98451735,223.12916145,70.0,54.0
780,223.21907535,223.32462645,67.0,59.0
781,223.21907535,223.3304904,55.0,62.0
782,223.21907535,223.34417295,62.0,63.0
783,223.21907535,223.34612760000002,50.0,67.0
784,223.21907535,223.3539462,43.0,58.0
785,223.21907535,223.36762875,70.0,64.0
786,223.45363335000002,223.5533205,55.0,72.0
787,223.45363335000002,223.5650484,43.0,60.0
788,223.45363335000002,223.5650484,67.0,74.0
789,223.45363335000002,223.56700305,50.0,69.0
790,223.45363335000002,223.5845949,62.0,72.0
791,223.45363335000002,223.5845949,70.0,72.0
792,223.68819135,223.79765175,70.0,74.0
793,223.68819135,223.79960640000002,50.0,61.0
794,223.68819135,223.80156105,67.0,82.0
795,223.68819135,223.80547035,55.0,65.0
796,223.68819135,223.81328895000001,62.0,77.0
797,223.68819135,223.82110755,43.0,56.0
798,223.92274935,224.0224365,55.0,76.0
799,223.92274935,224.02439115,43.0,66.0
800,223.92274935,224.0302551,50.0,74.0
801,223.92274935,224.04393765,71.0,83.0
802,223.92274935,224.0498016,62.0,77.0
803,223.92274935,224.0498016,67.0,85.0
804,224.15730735,224.25699450000002,55.0,74.0
805,224.15730735,224.26285845,50.0,68.0
806,224.15730735,224.276541,43.0,61.0
807,224.15730735,224.28631425,62.0,69.0
808,224.15730735,224.28631425,67.0,63.0
809,224.15730735,224.2921782,71.0,65.0
810,224.39186535000002,224.4915525,43.0,60.0
811,224.39186535000002,224.4915525,50.0,75.0
812,224.39186535000002,224.49741645,55.0,82.0
813,224.39186535000002,224.52087225,62.0,77.0
814,224.39186535000002,224.52087225,67.0,72.0
815,224.39186535000002,224.52087225,71.0,74.0
816,224.62642335,224.7261105,50.0,79.0
817,224.62642335,224.72806515,55.0,88.0
818,224.62642335,224.73197445,43.0,69.0
819,224.62642335,224.7495663,71.0,76.0
820,224.62642335,224.75152095,67.0,75.0
821,224.62642335,224.7534756,62.0,82.0
822,224.86098135,224.95089525,55.0,88.0
823,224.86098135,224.95480455,50.0,88.0
824,224.86098135,224.9606685,43.0,69.0
825,224.86098135,224.98021500000002,67.0,82.0
826,224.86098135,224.98216965,62.0,88.0
827,224.86098135,224.98412430000002,71.0,81.0
828,225.09553935,225.1874079,50.0,92.0
829,225.09553935,225.19131720000001,55.0,90.0
830,225.09553935,225.19327185,43.0,69.0
831,225.09553935,225.20499975,67.0,89.0
832,225.09553935,225.2069544,62.0,93.0
833,225.09553935,225.20890905000002,71.0,88.0
834,225.33009735000002,225.4219659,50.0,90.0
835,225.33009735000002,225.4258752,43.0,63.0
836,225.33009735000002,225.43369380000001,55.0,90.0
837,225.33009735000002,225.4415124,67.0,92.0
838,225.33009735000002,225.44346705,62.0,97.0
839,225.33009735000002,225.44737635,71.0,90.0
840,225.56465535,225.69757155,50.0,92.0
841,225.56465535,225.70539015,67.0,95.0
842,225.56465535,225.70734480000002,62.0,99.0
843,225.56465535,225.71320875,71.0,93.0
844,225.56465535,225.71711805,55.0,97.0
845,225.56465535,225.72493665000002,43.0,77.0
846,226.26832935000002,226.84299645000002,48.0,86.0
847,226.50288735,226.8488604,55.0,59.0
848,225.79921335,227.1186021,36.0,88.0
849,226.03377135,227.15964975,43.0,61.0
850,226.73744535,227.26520085,63.0,107.0
851,226.73744535,227.28279270000002,60.0,102.0
852,226.97200335,227.5955367,48.0,66.0
853,227.20656135000002,227.70695175,55.0,99.0
854,227.67567735,228.4790385,57.0,93.0
855,227.67567735,228.48490245,60.0,96.0
856,228.14479335000001,228.70577790000002,48.0,63.0
857,227.67567735,228.94619985,41.0,88.0
858,228.84846735,229.0224312,48.0,81.0
859,228.61390935,229.11429975000001,57.0,97.0
860,228.61390935,229.20421365,60.0,97.0
861,229.08302535,229.49350185,53.0,88.0
862,229.55214135,230.35745715000002,62.0,96.0
863,229.55214135,230.37700365,58.0,100.0
864,229.55214135,230.38873155000002,53.0,86.0
865,229.55214135,230.62719885,46.0,127.0
866,230.49037335,230.71320345,53.0,81.0
867,230.72493135000002,231.0357207,46.0,81.0
868,230.49037335,231.0826323,58.0,107.0
869,230.95948935,231.2702787,53.0,92.0
870,230.49037335,231.2859159,62.0,99.0
871,231.19404735,231.3367368,58.0,31.0
872,231.42860535,232.05018405,55.0,99.0
873,231.42860535,232.0599573,62.0,93.0
874,231.42860535,232.2358758,59.0,96.0
875,231.89772135,232.46652450000002,50.0,60.0
876,232.60139535000002,232.74213015,50.0,69.0
877,231.42860535,232.80467895,43.0,85.0
878,232.36683735,232.9278219,62.0,96.0
879,232.36683735,232.92977655,59.0,95.0
880,232.83595335,233.2014729,55.0,95.0
881,233.30506935,234.12797700000002,63.0,99.0
882,233.30506935,234.13188630000002,55.0,93.0
883,233.30506935,234.1397049,60.0,95.0
884,233.77418535,234.4094466,43.0,59.0
885,234.24330135,234.72414525,48.0,75.0
886,234.24330135,234.7417371,60.0,97.0
887,234.24330135,234.74369175,63.0,102.0
888,233.30506935,234.94893000000002,36.0,73.0
889,234.71241735,235.2421275,43.0,56.0
890,235.18153335,235.99466775000002,66.0,95.0
891,235.18153335,236.004441,57.0,90.0
892,235.18153335,236.00835030000002,62.0,93.0
893,235.18153335,236.53415115,38.0,83.0
894,235.65064935,236.58301740000002,45.0,52.0
895,236.11976535,236.61233715,66.0,117.0
896,236.11976535,236.62015575,62.0,112.0
897,236.58888135,236.8918521,57.0,99.0
898,236.35432335000002,236.94853695,50.0,96.0
899,237.05799735,237.70498650000002,58.0,100.0
900,237.05799735,237.8965422,43.0,89.0
901,237.52711335,237.94540845,50.0,77.0
902,237.05799735,238.02359445000002,55.0,107.0
903,237.05799735,238.0411863,62.0,92.0
904,237.99622935,238.85627535,57.0,112.0
905,237.99622935,238.91491485,45.0,99.0
906,238.93446135,239.64204465,65.0,86.0
907,238.93446135,239.68504695000001,62.0,96.0
908,238.93446135,239.718276,58.0,117.0
909,239.40357735,240.09747810000002,50.0,39.0
910,240.10725135,240.25971405,53.0,66.0
911,238.93446135,240.26362335000002,46.0,90.0
912,239.87269335000002,240.59200455,65.0,93.0
913,239.87269335000002,240.6213243,62.0,97.0
914,239.87269335000002,240.7229661,58.0,122.0
915,240.81092535000002,241.633833,63.0,112.0
916,240.81092535000002,241.63969695,60.0,100.0
917,240.81092535000002,241.64751555,55.0,97.0
918,240.81092535000002,242.24563845,36.0,74.0
919,241.98371535,242.24759310000002,48.0,89.0
920,241.74915735000002,242.2710489,63.0,112.0
921,241.74915735000002,242.27300355,60.0,102.0
922,242.21827335,242.5446999,55.0,96.0
923,241.28004135,242.67566145,43.0,54.0
924,242.68738935000002,243.5024784,66.0,99.0
925,242.68738935000002,243.51225165,57.0,107.0
926,242.68738935000002,243.51811560000002,62.0,99.0
927,243.15650535,243.76244685,45.0,50.0
928,243.62562135000002,244.12992105,66.0,112.0
929,242.68738935000002,244.1475129,38.0,71.0
930,243.62562135000002,244.15337685,62.0,100.0
931,244.09473735,244.28629305,45.0,71.0
932,243.62562135000002,244.3547058,57.0,86.0
933,243.62562135000002,244.5345336,50.0,81.0
934,244.56385335000002,245.45712840000002,58.0,112.0
935,244.56385335000002,245.4688563,62.0,92.0
936,244.56385335000002,245.47472025000002,43.0,95.0
937,244.56385335000002,245.4805842,55.0,99.0
938,245.50208535000002,246.0552513,60.0,96.0
939,245.50208535000002,246.0747978,57.0,97.0
940,245.50208535000002,246.2546256,53.0,90.0
941,245.50208535000002,246.39536040000002,41.0,76.0
942,246.44031735000002,247.302318,58.0,102.0
943,246.44031735000002,247.3140459,55.0,96.0
944,246.44031735000002,247.34336565,52.0,95.0
945,246.44031735000002,247.52123880000002,40.0,77.0
946,247.61310735,248.31287205,40.0,89.0
947,247.84766535,248.31287205,52.0,97.0
948,247.37854935000001,248.33437320000002,55.0,93.0
949,247.37854935000001,248.33437320000002,58.0,97.0
950,248.55133935,249.39574815,43.0,73.0
951,248.31678135,249.40747605,36.0,96.0
952,249.25501335,249.4602516,63.0,117.0
953,248.78589735,249.491526,48.0,81.0
954,249.02045535000002,249.5384376,55.0,83.0
955,249.72412935,253.37150625,38.0,67.0
956,249.72412935,253.44969225,50.0,102.0
957,249.72412935,253.8386676,57.0,117.0
958,249.72412935,253.9051257,62.0,97.0
959,249.72412935,253.90708035,66.0,97.0
960,253.94617335,255.84804780000002,43.0,73.0
961,254.41528935,255.90473265,50.0,55.0
962,255.35352135,256.06501395,58.0,42.0
963,254.88440535,256.10606160000003,62.0,95.0
964,256.8058263,256.8840123,55.0,31.0
965,256.70613915,257.1224796,48.0,59.0
966,255.8050455,257.51927355,36.0,76.0
967,256.25656965,257.7284211,43.0,52.0
968,257.2123935,257.76946875,60.0,59.0
969,256.74523215,257.81247105,63.0,96.0
970,257.72255715,258.9950343,38.0,63.0
971,258.1193511,259.02435405,45.0,56.0
972,258.59237640000003,259.18072605000003,50.0,50.0
973,258.58260315,259.6009758,66.0,90.0
974,259.0732203,259.60683975,62.0,74.0
975,260.0036337,260.3398335,50.0,53.0
976,259.55601885,260.3906544,43.0,69.0
977,260.4922962,261.29956665000003,41.0,74.0
978,260.9614122,261.44812005,62.0,73.0
979,261.87814305,262.5329508,52.0,48.0
980,261.3875259,262.7870553,40.0,64.0
981,262.32771255,263.3109015,64.0,63.0
982,262.80269250000003,263.35194915,58.0,52.0
983,263.74287915,264.5579682,48.0,56.0
984,263.28744570000003,264.80620875,36.0,67.0
985,264.73584135,265.3085538,60.0,74.0
986,264.2374056,265.34960145,63.0,99.0
987,265.75225935000003,266.98759815,45.0,44.0
988,266.2389672,266.9973714,50.0,44.0
989,265.22450385,267.00714465,38.0,86.0
990,266.26437765000003,268.3460799,62.0,65.0
991,266.2702416,268.3538985,66.0,69.0
992,266.8644552,268.57868325,57.0,58.0
993,268.2014358,268.64709600000003,48.0,44.0
994,267.77336745,269.99775915,43.0,49.0
995,268.61191230000003,270.1795416,50.0,61.0
996,269.3468607,270.40432635,60.0,53.0
997,268.95788535,270.40628100000004,55.0,49.0
998,269.73583605,270.43560075,62.0,60.0
999,270.42778215,274.03997535,50.0,33.0
1000,270.4023717,274.0771137,43.0,23.0
1001,270.6564762,274.24912290000003,59.0,39.0
1002,270.7346622,274.24912290000003,62.0,54.0
1003,270.91253535,274.24912290000003,67.0,53.0
1004,270.57242625000003,274.25498685,55.0,40.0
