,start,end,pitch,velocity
0,36.202083333333334,37.01979166666666,65.0,80.0
1,37.202083333333334,38.2,60.0,77.0
2,38.202083333333334,38.78125,68.0,77.0
3,38.702083333333334,38.971875,67.0,76.0
4,38.952083333333334,39.223958333333336,65.0,77.0
5,39.202083333333334,39.7,63.0,77.0
6,39.702083333333334,39.96666666666667,60.0,77.0
7,39.952083333333334,40.251041666666666,63.0,76.0
8,40.202083333333334,40.702083333333334,65.0,77.0
9,40.702083333333334,41.203125,65.0,76.0
10,41.202083333333334,41.473958333333336,63.0,68.0
11,41.452083333333334,41.75625,65.0,79.0
12,41.702083333333334,42.186458333333334,67.0,76.0
13,42.202083333333334,43.83125,65.0,80.0
14,44.202083333333334,45.104166666666664,58.0,75.0
15,45.202083333333334,46.01145833333333,53.0,81.0
16,46.202083333333334,46.651041666666664,56.0,76.0
17,46.702083333333334,46.958333333333336,58.0,76.0
18,46.952083333333334,47.239583333333336,60.0,76.0
19,47.202083333333334,48.009375,63.0,76.0
20,48.202083333333334,48.63645833333333,65.0,78.0
21,48.702083333333334,49.08229166666666,58.0,77.0
22,49.202083333333334,49.389583333333334,58.0,76.0
23,49.452083333333334,49.7125,60.0,77.0
24,49.702083333333334,50.228125,62.0,74.0
25,50.202083333333334,52.13229166666667,60.0,76.0
26,52.202083333333334,53.15208333333333,65.0,78.0
27,53.202083333333334,54.208333333333336,60.0,78.0
28,54.202083333333334,54.760416666666664,68.0,77.0
29,54.702083333333334,54.96145833333333,67.0,80.0
30,54.952083333333334,55.231249999999996,65.0,77.0
31,55.202083333333334,55.702083333333334,63.0,79.0
32,55.702083333333334,55.93125,60.0,77.0
33,55.952083333333334,56.202083333333334,63.0,77.0
34,56.202083333333334,56.588541666666664,65.0,82.0
35,56.702083333333334,57.208333333333336,65.0,83.0
36,57.202083333333334,57.703125,63.0,77.0
37,57.702083333333334,57.990625,56.0,80.0
38,57.952083333333334,58.2125,58.0,76.0
39,58.202083333333334,58.702083333333334,60.0,76.0
40,58.702083333333334,60.18541666666667,58.0,74.0
41,60.202083333333334,61.14895833333333,58.0,78.0
42,61.202083333333334,62.217708333333334,53.0,81.0
43,62.202083333333334,62.682291666666664,56.0,77.0
44,62.702083333333334,62.95729166666666,58.0,71.0
45,62.952083333333334,63.225,60.0,78.0
46,63.202083333333334,63.702083333333334,63.0,77.0
47,63.702083333333334,63.9625,60.0,76.0
48,63.952083333333334,64.21875,63.0,76.0
49,64.20208333333333,64.58645833333333,58.0,78.0
50,64.70208333333333,64.94166666666666,58.0,76.0
51,64.95208333333333,65.19270833333333,60.0,77.0
52,65.20208333333333,65.73333333333333,53.0,85.0
53,65.70208333333333,65.98333333333333,55.0,77.0
54,65.95208333333333,66.19375,56.0,75.0
55,66.20208333333333,68.05729166666667,53.0,80.0
56,68.20208333333333,68.69375,65.0,85.0
57,68.70208333333333,69.121875,72.0,81.0
58,69.20208333333333,69.69895833333334,72.0,78.0
59,69.70208333333333,69.95208333333333,70.0,80.0
60,69.95208333333333,70.24791666666667,72.0,72.0
61,70.20208333333333,71.70208333333333,70.0,78.0
62,71.70208333333333,72.25,65.0,83.0
63,72.21041666666666,73.053125,68.0,80.0
64,72.95208333333333,73.2,65.0,80.0
65,73.20208333333333,73.68333333333334,63.0,77.0
66,73.70208333333333,74.003125,60.0,76.0
67,73.95208333333333,74.24895833333333,63.0,73.0
68,74.20208333333333,76.03229166666667,65.0,77.0
69,76.20208333333333,76.640625,65.0,90.0
70,76.70208333333333,77.09895833333333,70.0,80.0
71,77.20208333333333,77.63020833333333,70.0,78.0
72,77.70208333333333,78.16458333333333,65.0,78.0
73,78.20208333333333,78.73020833333334,68.0,77.0
74,78.70208333333333,78.94270833333333,67.0,77.0
75,78.95208333333333,79.21875,65.0,79.0
76,79.20208333333333,79.67604166666666,63.0,78.0
77,79.70208333333333,80.15104166666667,65.0,80.0
78,80.20208333333333,80.74479166666667,63.0,75.0
79,80.70208333333333,81.11979166666667,58.0,76.0
80,81.20208333333333,81.40625,58.0,77.0
81,81.45208333333333,81.628125,60.0,73.0
82,81.70208333333333,82.15625,62.0,77.0
83,82.20208333333333,84.00416666666666,60.0,77.0
84,84.20208333333333,84.70208333333333,65.0,83.0
85,84.70208333333333,85.04583333333333,72.0,77.0
86,85.20208333333333,85.66145833333333,72.0,77.0
87,85.70208333333333,85.94791666666667,70.0,79.0
88,85.95208333333333,86.22395833333333,72.0,76.0
89,86.20208333333333,87.70208333333333,70.0,81.0
90,87.70208333333333,88.20208333333333,65.0,77.0
91,88.20208333333333,89.45208333333333,68.0,77.0
92,89.70208333333333,90.20208333333333,65.0,77.0
93,90.20208333333333,91.70208333333333,70.0,77.0
94,92.20208333333333,92.70416666666667,63.0,77.0
95,92.70208333333333,93.215625,65.0,78.0
96,93.20208333333333,93.71458333333334,63.0,77.0
97,93.70208333333333,94.28020833333333,60.0,79.0
98,94.20208333333333,94.903125,70.0,85.0
99,94.95208333333333,95.21979166666667,68.0,75.0
100,95.20208333333333,95.67916666666666,70.0,82.0
101,95.70208333333333,96.20520833333333,72.0,77.0
102,96.20208333333333,96.63020833333333,63.0,80.0
103,96.70208333333333,97.24791666666667,60.0,80.0
104,97.20208333333333,97.43541666666667,63.0,76.0
105,97.45208333333333,97.73958333333333,65.0,81.0
106,97.70208333333333,98.24583333333334,67.0,77.0
107,98.20208333333333,100.18333333333334,65.0,80.0
108,132.20208333333332,133.01979166666666,65.0,80.0
109,133.20208333333332,134.2,60.0,77.0
110,134.20208333333332,134.78125,68.0,77.0
111,134.70208333333332,134.971875,67.0,76.0
112,134.95208333333332,135.22395833333334,65.0,77.0
113,135.20208333333332,135.7,63.0,77.0
114,135.70208333333332,135.96666666666667,60.0,77.0
115,135.95208333333332,136.25104166666665,63.0,76.0
116,136.20208333333332,136.70208333333332,65.0,77.0
117,136.70208333333332,137.203125,65.0,76.0
118,137.20208333333332,137.47395833333334,63.0,68.0
119,137.45208333333332,137.75625,65.0,79.0
120,137.70208333333332,138.18645833333332,67.0,76.0
121,138.20208333333332,139.83125,65.0,80.0
122,140.20208333333332,141.10416666666666,58.0,75.0
123,141.20208333333332,142.01145833333334,53.0,81.0
124,142.20208333333332,142.65104166666666,56.0,76.0
125,142.70208333333332,142.95833333333334,58.0,76.0
126,142.95208333333332,143.23958333333334,60.0,76.0
127,143.20208333333332,144.009375,63.0,76.0
128,144.20208333333332,144.63645833333334,65.0,78.0
129,144.70208333333332,145.08229166666666,58.0,77.0
130,145.20208333333332,145.38958333333332,58.0,76.0
131,145.45208333333332,145.7125,60.0,77.0
132,145.70208333333332,146.228125,62.0,74.0
133,146.20208333333332,148.13229166666667,60.0,76.0
134,148.20208333333332,149.15208333333334,65.0,78.0
135,149.20208333333332,150.20833333333334,60.0,78.0
136,150.20208333333332,150.76041666666666,68.0,77.0
137,150.70208333333332,150.96145833333333,67.0,80.0
138,150.95208333333332,151.23125,65.0,77.0
139,151.20208333333332,151.70208333333332,63.0,79.0
140,151.70208333333332,151.93125,60.0,77.0
141,151.95208333333332,152.20208333333332,63.0,77.0
142,152.20208333333332,152.58854166666666,65.0,82.0
143,152.70208333333332,153.20833333333334,65.0,83.0
144,153.20208333333332,153.703125,63.0,77.0
145,153.70208333333332,153.990625,56.0,80.0
146,153.95208333333332,154.2125,58.0,76.0
147,154.20208333333332,154.70208333333332,60.0,76.0
148,154.70208333333332,156.18541666666667,58.0,74.0
149,156.20208333333332,157.14895833333333,58.0,78.0
150,157.20208333333332,158.21770833333332,53.0,81.0
151,158.20208333333332,158.68229166666666,56.0,77.0
152,158.70208333333332,158.95729166666666,58.0,71.0
153,158.95208333333332,159.225,60.0,78.0
154,159.20208333333332,159.70208333333332,63.0,77.0
155,159.70208333333332,159.9625,60.0,76.0
156,159.95208333333332,160.21875,63.0,76.0
157,160.20208333333332,160.58645833333333,58.0,78.0
158,160.70208333333332,160.94166666666666,58.0,76.0
159,160.95208333333332,161.19270833333334,60.0,77.0
160,161.20208333333332,161.73333333333332,53.0,85.0
161,161.70208333333332,161.98333333333332,55.0,77.0
162,161.95208333333332,162.19375,56.0,75.0
163,162.20208333333332,164.05729166666666,53.0,80.0
164,164.20208333333332,164.69375,65.0,85.0
165,164.70208333333332,165.121875,72.0,81.0
166,165.20208333333332,165.69895833333334,72.0,78.0
167,165.70208333333332,165.95208333333332,70.0,80.0
168,165.95208333333332,166.24791666666667,72.0,72.0
169,166.20208333333332,167.70208333333332,70.0,78.0
170,167.70208333333332,168.25,65.0,83.0
171,168.20208333333332,169.04479166666667,67.0,80.0
172,168.95208333333332,169.2,65.0,80.0
173,169.20208333333332,169.68333333333334,63.0,77.0
174,169.70208333333332,170.003125,60.0,76.0
175,169.95208333333332,170.24895833333332,63.0,73.0
176,170.20208333333332,172.03229166666665,65.0,77.0
177,172.20208333333332,172.640625,65.0,90.0
178,172.70208333333332,173.09895833333334,70.0,80.0
179,173.20208333333332,173.63020833333334,70.0,78.0
180,173.70208333333332,174.16458333333333,65.0,78.0
181,174.20208333333332,174.73020833333334,68.0,77.0
182,174.70208333333332,174.94270833333334,67.0,77.0
183,174.95208333333332,175.21875,65.0,79.0
184,175.20208333333332,175.67604166666666,63.0,78.0
185,175.70208333333332,176.15104166666666,65.0,80.0
186,176.20208333333332,176.74479166666666,63.0,75.0
187,176.70208333333332,177.11979166666666,58.0,76.0
188,177.20208333333332,177.40625,58.0,77.0
189,177.45208333333332,177.628125,60.0,73.0
190,177.70208333333332,178.15625,62.0,77.0
191,178.20208333333332,180.00416666666666,60.0,77.0
192,180.20208333333332,180.70208333333332,65.0,83.0
193,180.70208333333332,181.04583333333332,72.0,77.0
194,181.20208333333332,181.66145833333334,72.0,77.0
195,181.70208333333332,181.94791666666666,70.0,79.0
196,181.95208333333332,182.22395833333334,72.0,76.0
197,182.20208333333332,183.70208333333332,70.0,81.0
198,183.70208333333332,184.20208333333332,65.0,77.0
199,184.20208333333332,185.45208333333332,68.0,77.0
200,185.70208333333332,186.20208333333332,65.0,77.0
201,186.20208333333332,187.70208333333332,70.0,77.0
202,188.20208333333332,188.70416666666665,63.0,77.0
203,188.70208333333332,189.215625,65.0,78.0
204,189.20208333333332,189.71458333333334,63.0,77.0
205,189.70208333333332,190.28020833333332,60.0,79.0
206,190.20208333333332,190.903125,70.0,85.0
207,190.95208333333332,191.21979166666665,68.0,75.0
208,191.20208333333332,191.67916666666667,70.0,82.0
209,191.70208333333332,192.20520833333333,72.0,77.0
210,192.20208333333332,192.63020833333334,63.0,80.0
211,192.70208333333332,193.24791666666667,60.0,80.0
212,193.20208333333332,193.43541666666667,63.0,76.0
213,193.45208333333332,193.73958333333334,65.0,81.0
214,193.70208333333332,194.24583333333334,67.0,77.0
215,194.20208333333332,196.18333333333334,65.0,80.0
216,196.20208333333332,196.69375,65.0,85.0
217,196.70208333333332,197.121875,72.0,81.0
218,197.20208333333332,197.69895833333334,72.0,78.0
219,197.70208333333332,197.95208333333332,70.0,80.0
220,197.95208333333332,198.24791666666667,72.0,72.0
221,198.20208333333332,199.70208333333332,70.0,78.0
222,199.70208333333332,200.25,65.0,83.0
223,200.20208333333332,201.04479166666667,67.0,80.0
224,200.95208333333332,201.2,65.0,80.0
225,201.20208333333332,201.68333333333334,63.0,77.0
226,201.70208333333332,202.003125,60.0,76.0
227,201.95208333333332,202.24895833333332,63.0,73.0
228,202.20208333333332,204.03229166666665,65.0,77.0
229,204.20208333333332,204.640625,65.0,90.0
230,204.70208333333332,205.09895833333334,70.0,80.0
231,205.20208333333332,205.63020833333334,70.0,78.0
232,205.70208333333332,206.16458333333333,65.0,78.0
233,206.20208333333332,206.73020833333334,68.0,77.0
234,206.70208333333332,206.94270833333334,67.0,77.0
235,206.95208333333332,207.21875,65.0,79.0
236,207.20208333333332,207.67604166666666,63.0,78.0
237,207.70208333333332,208.15104166666666,65.0,80.0
238,208.20208333333332,208.74479166666666,63.0,75.0
239,208.70208333333332,209.11979166666666,58.0,76.0
240,209.20208333333332,209.40625,58.0,77.0
241,209.45208333333332,209.62812499999998,60.0,73.0
242,209.70208333333332,210.15625,62.0,77.0
243,210.20208333333332,212.00416666666666,60.0,77.0
244,212.20208333333332,212.70208333333332,65.0,83.0
245,212.70208333333332,213.04583333333332,72.0,77.0
246,213.20208333333332,213.66145833333334,72.0,77.0
247,213.70208333333332,213.94791666666666,70.0,79.0
248,213.95208333333332,214.22395833333334,72.0,76.0
249,214.20208333333332,215.70208333333332,70.0,81.0
250,215.70208333333332,216.20208333333332,65.0,77.0
251,216.20208333333332,217.45208333333332,68.0,77.0
252,217.70208333333332,218.20208333333332,65.0,77.0
253,218.20208333333332,219.70208333333332,70.0,77.0
254,220.20208333333332,220.70416666666665,63.0,77.0
255,220.70208333333332,221.215625,65.0,78.0
256,221.20208333333332,221.71458333333334,63.0,77.0
257,221.70208333333332,222.28020833333332,60.0,79.0
258,222.20208333333332,222.903125,70.0,85.0
259,222.95208333333332,223.21979166666665,68.0,75.0
260,223.20208333333332,223.67916666666667,70.0,82.0
261,223.70208333333332,224.20520833333333,72.0,77.0
262,224.20208333333332,224.63020833333334,63.0,80.0
263,224.70208333333332,225.24791666666667,60.0,80.0
264,225.20208333333332,225.43541666666667,63.0,76.0
265,225.45208333333332,225.73958333333334,65.0,81.0
266,225.70208333333332,226.24583333333334,67.0,77.0
267,226.20208333333332,228.18333333333334,65.0,80.0
268,228.20208333333332,228.70416666666665,63.0,77.0
269,228.70208333333332,229.215625,65.0,78.0
270,229.20208333333332,229.71458333333334,63.0,77.0
271,229.70208333333332,230.28020833333332,60.0,79.0
272,230.20208333333332,230.903125,70.0,85.0
273,230.95208333333332,231.21979166666665,68.0,75.0
274,231.20208333333332,231.67916666666667,70.0,82.0
275,231.70208333333332,232.20520833333333,72.0,77.0
276,232.20208333333332,233.70208333333332,63.0,80.0
277,235.7625,236.271875,63.0,77.0
278,236.22395833333334,236.88958333333332,65.0,78.0
279,236.86249999999998,238.09166666666667,67.0,78.0
280,238.02395833333333,242.12083333333334,65.0,85.0
