,start,end,pitch,velocity
0,19.5172458875,19.7480143875,68.0,108.0
1,19.7480143875,19.977821352083332,75.0,102.0
2,19.9787828875,20.2095513875,75.0,114.0
3,20.2095513875,20.4403198875,73.0,84.0
4,20.4403198875,20.9018568875,71.0,102.0
5,20.9018568875,21.1326253875,73.0,102.0
6,21.1326253875,21.3633938875,71.0,105.0
7,21.3633938875,23.208580352083334,68.0,111.0
8,23.2095418875,23.473964127083335,68.0,111.0
9,23.440310387500002,23.670117352083334,80.0,102.0
10,23.671078887500002,23.901847387500002,80.0,105.0
11,23.901847387500002,24.131654352083334,78.0,108.0
12,24.132615887500002,24.5941528875,78.0,105.0
13,24.5941528875,24.8249213875,80.0,108.0
14,24.8249213875,25.0556898875,78.0,102.0
15,25.0556898875,26.900876352083333,75.0,105.0
16,26.9018378875,27.1326063875,75.0,100.0
17,27.1326063875,27.362413352083333,80.0,114.0
18,27.3633748875,27.5941433875,80.0,108.0
19,27.5941433875,27.8249118875,78.0,105.0
20,27.8249118875,28.2864488875,80.0,114.0
21,28.2864488875,28.5172173875,68.0,108.0
22,28.5172173875,28.7479858875,71.0,105.0
23,28.7479858875,29.208561352083333,73.0,102.0
24,29.2095228875,30.593172352083332,73.0,105.0
25,30.5941338875,30.823940852083332,73.0,114.0
26,30.8249023875,31.054709352083332,73.0,105.0
27,31.0556708875,31.2864393875,73.0,102.0
28,31.2864393875,31.5172078875,75.0,105.0
29,31.5172078875,31.7479763875,78.0,114.0
30,31.7479763875,31.9787448875,75.0,108.0
31,31.9787448875,32.2095133875,73.0,105.0
32,32.2095133875,32.4402818875,71.0,108.0
33,32.4402818875,32.900857352083335,75.0,108.0
34,32.9018188875,34.2864298875,75.0,114.0
35,34.2864298875,34.5171983875,68.0,120.0
36,34.5171983875,34.747005352083335,75.0,105.0
37,34.7479668875,34.9787353875,75.0,111.0
38,34.9787353875,35.2095038875,73.0,97.0
39,35.2095038875,35.6710408875,71.0,105.0
40,35.6710408875,35.9018093875,73.0,108.0
41,35.9018093875,36.1325778875,71.0,111.0
42,36.1325778875,37.977764352083334,68.0,117.0
43,37.9787258875,38.2094943875,68.0,117.0
44,38.2094943875,38.43930135208333,80.0,87.0
45,38.4402628875,38.6710313875,80.0,111.0
46,38.6710313875,38.90083835208333,78.0,108.0
47,38.9017998875,39.3633368875,78.0,111.0
48,39.3633368875,39.5941053875,80.0,111.0
49,39.5941053875,39.8248738875,78.0,102.0
50,39.8248738875,41.67006035208333,75.0,111.0
51,41.671021887500004,41.9017903875,75.0,102.0
52,41.9017903875,42.13159735208333,80.0,97.0
53,42.132558887500004,42.3633273875,80.0,108.0
54,42.3633273875,42.5940958875,78.0,108.0
55,42.5940958875,43.0556328875,80.0,114.0
56,43.0556328875,43.2864013875,68.0,111.0
57,43.2864013875,43.5171698875,71.0,108.0
58,43.5171698875,43.97774535208333,73.0,102.0
59,43.9787068875,45.36235635208333,73.0,105.0
60,45.3633178875,45.593124852083335,73.0,114.0
61,45.5940863875,45.82389335208333,73.0,105.0
62,45.8248548875,46.0556233875,73.0,111.0
63,46.0556233875,46.2863918875,75.0,108.0
64,46.2863918875,46.516198852083335,78.0,111.0
65,46.5171603875,46.74696735208333,78.0,105.0
66,46.7479288875,46.9786973875,78.0,102.0
67,46.9786973875,47.2094658875,75.0,111.0
68,47.2094658875,47.67004135208333,80.0,127.0
69,47.6710028875,50.6709933875,80.0,117.0
70,50.6709933875,50.9017618875,75.0,114.0
71,50.9017618875,51.3632988875,83.0,114.0
72,51.3632988875,51.5940673875,75.0,87.0
73,51.5940673875,51.8248358875,83.0,114.0
74,51.8248358875,52.517141387500004,80.0,108.0
75,52.517141387500004,52.7479098875,75.0,92.0
76,52.7479098875,53.2094468875,83.0,117.0
77,53.2094468875,53.440215387500004,75.0,100.0
78,53.440215387500004,53.6709838875,83.0,120.0
79,53.6709838875,54.5940578875,80.0,111.0
80,54.5940578875,54.82386485208333,83.0,108.0
81,54.8248263875,55.0555948875,83.0,114.0
82,55.0555948875,55.2863633875,80.0,105.0
83,55.2863633875,55.516170352083336,78.0,108.0
84,55.5171318875,55.7479003875,78.0,108.0
85,55.7479003875,55.977707352083335,80.0,102.0
86,55.9786688875,56.2094373875,80.0,114.0
87,56.2094373875,56.4402058875,78.0,108.0
88,56.4402058875,56.6709743875,71.0,111.0
89,56.6709743875,56.9017428875,73.0,105.0
90,56.9017428875,57.3632798875,78.0,111.0
91,57.3632798875,58.05462385208333,75.0,105.0
92,58.0555853875,58.285392352083335,75.0,52.0
93,58.2863538875,58.7478908875,75.0,111.0
94,58.7478908875,58.9786593875,68.0,108.0
95,58.9786593875,59.2094278875,75.0,108.0
96,59.2094278875,59.9017333875,73.0,114.0
97,59.9017333875,60.1325018875,75.0,111.0
98,60.1325018875,60.5940388875,78.0,117.0
99,60.5940388875,60.8248073875,75.0,108.0
100,60.8248073875,61.0555758875,83.0,111.0
101,61.0555758875,61.977688352083334,80.0,102.0
102,61.9786498875,62.2094183875,80.0,114.0
103,62.2094183875,62.439225352083334,83.0,108.0
104,62.4401868875,62.6709553875,83.0,105.0
105,62.6709553875,62.9017238875,80.0,105.0
106,62.9017238875,63.36229935208333,85.0,114.0
107,63.3632608875,63.5940293875,85.0,111.0
108,63.5940293875,63.824797887500004,83.0,89.0
109,63.824797887500004,64.05460485208333,82.0,97.0
110,64.05556638750001,64.2863348875,82.0,105.0
111,64.2863348875,64.5171033875,80.0,108.0
112,64.5171033875,65.4401773875,82.0,105.0
113,65.4401773875,65.6709458875,75.0,114.0
114,65.6709458875,66.1324828875,83.0,114.0
115,66.1324828875,66.3632513875,75.0,87.0
116,66.3632513875,66.5940198875,83.0,114.0
117,66.5940198875,67.2863253875,80.0,108.0
118,67.2863253875,67.5170938875,75.0,92.0
119,67.5170938875,67.9786308875,83.0,117.0
120,67.9786308875,68.2093993875,75.0,100.0
121,68.2093993875,68.4401678875,83.0,120.0
122,68.4401678875,69.3632418875,80.0,111.0
123,69.3632418875,69.59304885208333,83.0,108.0
124,69.5940103875,69.8247788875,83.0,114.0
125,69.8247788875,70.0555473875,80.0,105.0
126,70.0555473875,70.28535435208333,78.0,108.0
127,70.2863158875,70.5170843875,78.0,108.0
128,70.5170843875,70.74689135208334,80.0,102.0
129,70.7478528875,70.9786213875,80.0,114.0
130,70.9786213875,71.2093898875,78.0,108.0
131,71.2093898875,71.4401583875,71.0,111.0
132,71.4401583875,71.6709268875,73.0,105.0
133,71.6709268875,72.1324638875,78.0,111.0
134,72.1324638875,72.82380785208333,75.0,105.0
135,72.8247693875,73.05457635208333,75.0,52.0
136,73.0555378875,73.5170748875,75.0,111.0
137,73.5170748875,73.7478433875,68.0,108.0
138,73.7478433875,73.9786118875,75.0,108.0
139,73.9786118875,74.6709173875,73.0,114.0
140,74.6709173875,74.9016858875,75.0,111.0
141,74.9016858875,75.3632228875,78.0,117.0
142,75.3632228875,75.5939913875,75.0,108.0
143,75.5939913875,75.82475988750001,83.0,111.0
144,75.82475988750001,76.74687235208333,80.0,102.0
145,76.74783388750001,76.9786023875,80.0,114.0
146,76.9786023875,77.20840935208334,83.0,108.0
147,77.2093708875,77.4401393875,83.0,105.0
148,77.4401393875,77.67090788750001,80.0,105.0
149,77.67090788750001,78.13148335208334,85.0,114.0
150,78.1324448875,78.3632133875,85.0,111.0
151,78.3632133875,78.59398188750001,83.0,89.0
152,78.59398188750001,78.8247503875,75.0,114.0
153,78.8247503875,79.0555188875,78.0,108.0
154,79.0555188875,79.5170558875,82.0,120.0
155,79.5170558875,81.08435861666666,80.0,102.0
156,95.2093138875,95.4400823875,68.0,108.0
157,95.4400823875,95.66988935208333,75.0,102.0
158,95.6708508875,95.9016193875,75.0,114.0
159,95.9016193875,96.1323878875,73.0,84.0
160,96.1323878875,96.5939248875,71.0,102.0
161,96.5939248875,96.8246933875,73.0,102.0
162,96.8246933875,97.0554618875,71.0,105.0
163,97.0554618875,98.90064835208334,68.0,111.0
164,98.9016098875,99.16603212708334,68.0,111.0
165,99.1323783875,99.36218535208333,80.0,102.0
166,99.36314688750001,99.5939153875,80.0,105.0
167,99.5939153875,99.82372235208334,78.0,108.0
168,99.8246838875,100.28622088750001,78.0,105.0
169,100.28622088750001,100.5169893875,80.0,108.0
170,100.5169893875,100.7477578875,78.0,102.0
171,100.7477578875,102.59294435208334,75.0,105.0
172,102.5939058875,102.8246743875,75.0,100.0
173,102.8246743875,103.05448135208333,80.0,114.0
174,103.0554428875,103.2862113875,80.0,108.0
175,103.2862113875,103.5169798875,78.0,105.0
176,103.5169798875,103.9785168875,80.0,114.0
177,103.9785168875,104.2092853875,68.0,108.0
178,104.2092853875,104.4400538875,71.0,105.0
179,104.4400538875,104.90062935208333,73.0,102.0
180,104.9015908875,106.28524035208333,73.0,105.0
181,106.2862018875,106.51600885208333,73.0,114.0
182,106.5169703875,106.74677735208334,73.0,105.0
183,106.7477388875,106.9785073875,73.0,102.0
184,106.9785073875,107.2092758875,75.0,105.0
185,107.2092758875,107.4400443875,78.0,114.0
186,107.4400443875,107.6708128875,75.0,108.0
187,107.6708128875,107.9015813875,73.0,105.0
188,107.9015813875,108.1323498875,71.0,108.0
189,108.1323498875,108.59292535208334,75.0,108.0
190,108.5938868875,109.9784978875,75.0,114.0
191,109.9784978875,110.20926638750001,68.0,120.0
192,110.20926638750001,110.43907335208334,75.0,105.0
193,110.4400348875,110.6708033875,75.0,111.0
194,110.6708033875,110.9015718875,73.0,97.0
195,110.9015718875,111.3631088875,71.0,105.0
196,111.3631088875,111.5938773875,73.0,108.0
197,111.5938773875,111.8246458875,71.0,111.0
198,111.8246458875,113.66983235208333,68.0,117.0
199,113.6707938875,113.90156238750001,68.0,117.0
200,113.90156238750001,114.13136935208334,80.0,87.0
201,114.1323308875,114.3630993875,80.0,111.0
202,114.3630993875,114.59290635208333,78.0,108.0
203,114.5938678875,115.0554048875,78.0,111.0
204,115.0554048875,115.2861733875,80.0,111.0
205,115.2861733875,115.5169418875,78.0,102.0
206,115.5169418875,117.36212835208333,75.0,111.0
207,117.3630898875,117.5938583875,75.0,102.0
208,117.5938583875,117.82366535208334,80.0,97.0
209,117.8246268875,118.0553953875,80.0,108.0
210,118.0553953875,118.2861638875,78.0,108.0
211,118.2861638875,118.7477008875,80.0,114.0
212,118.7477008875,118.9784693875,68.0,111.0
213,118.9784693875,119.2092378875,71.0,108.0
214,119.2092378875,119.66981335208334,73.0,102.0
215,119.6707748875,121.05442435208333,73.0,105.0
216,121.0553858875,121.28519285208334,73.0,114.0
217,121.2861543875,121.51596135208334,73.0,105.0
218,121.5169228875,121.7476913875,73.0,111.0
219,121.7476913875,121.97845988750001,75.0,108.0
220,121.97845988750001,122.20826685208334,78.0,111.0
221,122.2092283875,122.43903535208334,78.0,105.0
222,122.4399968875,122.6707653875,78.0,102.0
223,122.6707653875,122.90153388750001,75.0,111.0
224,122.90153388750001,123.36210935208334,80.0,127.0
225,123.3630708875,126.3630613875,80.0,117.0
226,126.3630613875,126.59382988750001,75.0,114.0
227,126.59382988750001,127.0553668875,83.0,114.0
228,127.0553668875,127.2861353875,75.0,87.0
229,127.2861353875,127.5169038875,83.0,114.0
230,127.5169038875,128.2092093875,80.0,108.0
231,128.2092093875,128.4399778875,75.0,92.0
232,128.4399778875,128.9015148875,83.0,117.0
233,128.9015148875,129.1322833875,75.0,100.0
234,129.1322833875,129.3630518875,83.0,120.0
235,129.3630518875,130.2861258875,80.0,111.0
236,130.2861258875,130.51593285208332,83.0,108.0
237,130.5168943875,130.7476628875,83.0,114.0
238,130.7476628875,130.9784313875,80.0,105.0
239,130.9784313875,131.20823835208333,78.0,108.0
240,131.2091998875,131.4399683875,78.0,108.0
241,131.4399683875,131.66977535208335,80.0,102.0
242,131.6707368875,131.9015053875,80.0,114.0
243,131.9015053875,132.1322738875,78.0,108.0
244,132.1322738875,132.3630423875,71.0,111.0
245,132.3630423875,132.5938108875,73.0,105.0
246,132.5938108875,133.0553478875,78.0,111.0
247,133.0553478875,133.74669185208333,75.0,105.0
248,133.7476533875,133.97746035208334,75.0,52.0
249,133.9784218875,134.4399588875,75.0,111.0
250,134.4399588875,134.6707273875,68.0,108.0
251,134.6707273875,134.9014958875,75.0,108.0
252,134.9014958875,135.5938013875,73.0,114.0
253,135.5938013875,135.8245698875,75.0,111.0
254,135.8245698875,136.2861068875,78.0,117.0
255,136.2861068875,136.5168753875,75.0,108.0
256,136.5168753875,136.7476438875,83.0,111.0
257,136.7476438875,137.66975635208334,80.0,102.0
258,137.6707178875,137.9014863875,80.0,114.0
259,137.9014863875,138.13129335208333,83.0,108.0
260,138.1322548875,138.3630233875,83.0,105.0
261,138.3630233875,138.5937918875,80.0,105.0
262,138.5937918875,139.05436735208335,85.0,114.0
263,139.0553288875,139.2860973875,85.0,111.0
264,139.2860973875,139.5168658875,83.0,89.0
265,139.5168658875,139.74667285208332,82.0,97.0
266,139.7476343875,139.9784028875,82.0,105.0
267,139.9784028875,140.2091713875,80.0,108.0
268,140.2091713875,141.1322453875,82.0,105.0
269,141.1322453875,141.3630138875,75.0,114.0
270,141.3630138875,141.8245508875,83.0,114.0
271,141.8245508875,142.0553193875,75.0,87.0
272,142.0553193875,142.2860878875,83.0,114.0
273,142.2860878875,142.9783933875,80.0,108.0
274,142.9783933875,143.2091618875,75.0,92.0
275,143.2091618875,143.6706988875,83.0,117.0
276,143.6706988875,143.9014673875,75.0,100.0
277,143.9014673875,144.1322358875,83.0,120.0
278,144.1322358875,145.05530988750002,80.0,111.0
279,145.05530988750002,145.28511685208335,83.0,108.0
280,145.2860783875,145.5168468875,83.0,114.0
281,145.5168468875,145.7476153875,80.0,105.0
282,145.7476153875,145.97742235208332,78.0,108.0
283,145.9783838875,146.2091523875,78.0,108.0
284,146.2091523875,146.43895935208334,80.0,102.0
285,146.4399208875,146.6706893875,80.0,114.0
286,146.6706893875,146.90145788750002,78.0,108.0
287,146.90145788750002,147.1322263875,71.0,111.0
288,147.1322263875,147.3629948875,73.0,105.0
289,147.3629948875,147.8245318875,78.0,111.0
290,147.8245318875,148.51587585208333,75.0,105.0
291,148.5168373875,148.74664435208334,75.0,52.0
292,148.74760588750001,149.2091428875,75.0,111.0
293,149.2091428875,149.4399113875,68.0,108.0
294,149.4399113875,149.6706798875,75.0,108.0
295,149.6706798875,150.3629853875,73.0,114.0
296,150.3629853875,150.59375388750001,75.0,111.0
297,150.59375388750001,151.0552908875,78.0,117.0
298,151.0552908875,151.2860593875,75.0,108.0
299,151.2860593875,151.5168278875,83.0,111.0
300,151.5168278875,152.43894035208334,80.0,102.0
301,152.4399018875,152.6706703875,80.0,114.0
302,152.6706703875,152.90047735208333,83.0,108.0
303,152.9014388875,153.1322073875,83.0,105.0
304,153.1322073875,153.3629758875,80.0,105.0
305,153.3629758875,153.82355135208334,85.0,114.0
306,153.8245128875,154.0552813875,85.0,111.0
307,154.0552813875,154.2860498875,83.0,89.0
308,154.2860498875,154.5168183875,75.0,114.0
309,154.5168183875,154.7475868875,78.0,108.0
310,154.7475868875,155.2091238875,82.0,120.0
311,155.2091238875,156.1321978875,80.0,102.0
312,156.1321978875,156.36200485208334,68.0,114.0
313,156.3629663875,156.59277335208333,68.0,100.0
314,156.5937348875,156.82354185208334,68.0,94.0
315,156.82450338750002,156.94950299166666,68.0,92.0
316,156.9398876375,157.2860403875,66.0,102.0
317,157.2860403875,157.51584735208334,68.0,105.0
318,157.5168088875,158.2091143875,68.0,105.0
319,158.2091143875,158.3244986375,66.0,97.0
320,158.3244986375,158.43892135208333,68.0,97.0
321,158.4398828875,158.66968985208334,68.0,97.0
322,158.67065138750002,158.78507410208334,68.0,89.0
323,158.7860356375,158.90045835208335,68.0,84.0
324,158.9014198875,159.13122685208333,68.0,80.0
325,159.1321883875,159.3629568875,68.0,100.0
326,159.3629568875,160.0552623875,71.0,93.0
327,160.0552623875,160.16968510208335,68.0,71.0
328,160.1706466375,160.28506935208333,68.0,84.0
329,160.2860308875,160.51583785208334,68.0,105.0
330,160.51679938750001,160.74660635208335,68.0,100.0
331,160.7475678875,160.9783363875,68.0,100.0
332,160.9783363875,161.2091048875,66.0,97.0
333,161.2091048875,161.6706418875,68.0,114.0
334,161.6706418875,161.90044885208334,75.0,92.0
335,161.9014103875,162.13121735208333,75.0,94.0
336,162.1321788875,162.36198585208334,75.0,97.0
337,162.36294738750001,162.59275435208335,75.0,102.0
338,162.5937158875,162.82352285208333,75.0,97.0
339,162.8244843875,163.0552528875,75.0,94.0
340,163.0552528875,163.7475583875,71.0,111.0
341,163.7475583875,163.86198110208335,68.0,71.0
342,163.8629426375,163.97736535208332,68.0,84.0
343,163.9783268875,164.20813385208334,68.0,105.0
344,164.2090953875,164.43890235208335,68.0,100.0
345,164.4398638875,164.6706323875,68.0,100.0
346,164.6706323875,164.9014008875,66.0,97.0
347,164.9014008875,165.59274485208334,68.0,114.0
348,165.5937063875,165.70812910208335,68.0,71.0
349,165.7090906375,165.82351335208332,68.0,84.0
350,165.8244748875,166.05428185208334,68.0,105.0
351,166.0552433875,166.28505035208335,68.0,100.0
352,166.2860118875,166.51581885208333,68.0,100.0
353,166.5167803875,166.7475488875,68.0,97.0
354,166.7475488875,167.4398543875,71.0,114.0
355,167.4398543875,167.66966135208332,68.0,94.0
356,167.6706228875,167.90042985208333,68.0,92.0
357,167.9013913875,168.13119835208335,68.0,102.0
358,168.1321598875,168.3629283875,68.0,105.0
359,168.3629283875,168.59369688750002,66.0,100.0
360,168.59369688750002,168.82350385208335,68.0,100.0
361,168.8244653875,169.0552338875,68.0,102.0
362,169.0552338875,169.28504085208334,75.0,66.0
363,169.2860023875,169.51580935208332,75.0,73.0
364,169.5167708875,169.74657785208333,75.0,94.0
365,169.7475393875,169.9783078875,75.0,94.0
366,169.9783078875,170.2090763875,73.0,100.0
367,170.2090763875,170.43984488750002,71.0,114.0
368,170.43984488750002,172.5167613875,68.0,105.0
369,172.5167613875,172.7475298875,75.0,114.0
370,172.7475298875,173.2090668875,83.0,114.0
371,173.2090668875,173.4398353875,75.0,87.0
372,173.4398353875,173.6706038875,83.0,114.0
373,173.6706038875,174.3629093875,80.0,108.0
374,174.3629093875,174.5936778875,75.0,92.0
375,174.5936778875,175.0552148875,83.0,117.0
376,175.0552148875,175.2859833875,75.0,100.0
377,175.2859833875,175.5167518875,83.0,120.0
378,175.5167518875,176.4398258875,80.0,111.0
379,176.4398258875,176.66963285208334,83.0,108.0
380,176.6705943875,176.9013628875,83.0,114.0
381,176.9013628875,177.1321313875,80.0,105.0
382,177.1321313875,177.36193835208334,78.0,108.0
383,177.3628998875,177.5936683875,78.0,108.0
384,177.5936683875,177.82347535208334,80.0,102.0
385,177.8244368875,178.0552053875,80.0,114.0
386,178.0552053875,178.2859738875,78.0,108.0
387,178.2859738875,178.5167423875,71.0,111.0
388,178.5167423875,178.7475108875,73.0,105.0
389,178.7475108875,179.2090478875,78.0,111.0
390,179.2090478875,179.90039185208335,75.0,105.0
391,179.9013533875,180.13116035208333,75.0,52.0
392,180.1321218875,180.5936588875,75.0,111.0
393,180.5936588875,180.8244273875,68.0,108.0
394,180.8244273875,181.0551958875,75.0,108.0
395,181.0551958875,181.7475013875,73.0,114.0
396,181.7475013875,181.9782698875,75.0,111.0
397,181.9782698875,182.4398068875,78.0,117.0
398,182.4398068875,182.6705753875,75.0,108.0
399,182.6705753875,182.9013438875,83.0,111.0
400,182.9013438875,183.82345635208333,80.0,102.0
401,183.8244178875,184.05518638750002,80.0,114.0
402,184.05518638750002,184.28499335208335,83.0,108.0
403,184.2859548875,184.5167233875,83.0,105.0
404,184.5167233875,184.7474918875,80.0,105.0
405,184.7474918875,185.20806735208333,85.0,114.0
406,185.2090288875,185.4397973875,85.0,111.0
407,185.4397973875,185.6705658875,83.0,89.0
408,185.6705658875,185.90037285208334,82.0,97.0
409,185.90133438750001,186.1321028875,82.0,105.0
410,186.1321028875,186.3628713875,80.0,108.0
411,186.3628713875,187.2859453875,82.0,105.0
412,187.2859453875,187.5167138875,75.0,114.0
413,187.5167138875,187.9782508875,83.0,114.0
414,187.9782508875,188.2090193875,75.0,87.0
415,188.2090193875,188.4397878875,83.0,114.0
416,188.4397878875,189.1320933875,80.0,108.0
417,189.1320933875,189.3628618875,75.0,92.0
418,189.3628618875,189.8243988875,83.0,117.0
419,189.8243988875,190.0551673875,75.0,100.0
420,190.0551673875,190.2859358875,83.0,120.0
421,190.2859358875,191.2090098875,80.0,111.0
422,191.2090098875,191.43881685208333,83.0,108.0
423,191.4397783875,191.6705468875,83.0,114.0
424,191.6705468875,191.9013153875,80.0,105.0
425,191.9013153875,192.13112235208334,78.0,108.0
426,192.13208388750002,192.3628523875,78.0,108.0
427,192.3628523875,192.59265935208333,80.0,102.0
428,192.5936208875,192.8243893875,80.0,114.0
429,192.8243893875,193.0551578875,78.0,108.0
430,193.0551578875,193.2859263875,71.0,111.0
431,193.2859263875,193.5166948875,73.0,105.0
432,193.5166948875,193.97823188750002,78.0,111.0
433,193.97823188750002,194.66957585208334,75.0,105.0
434,194.6705373875,194.90034435208332,75.0,52.0
435,194.9013058875,195.3628428875,75.0,111.0
436,195.3628428875,195.5936113875,68.0,108.0
437,195.5936113875,195.82437988750002,75.0,108.0
438,195.82437988750002,196.5166853875,73.0,114.0
439,196.5166853875,196.7474538875,75.0,111.0
440,196.7474538875,197.2089908875,78.0,117.0
441,197.2089908875,197.4397593875,75.0,108.0
442,197.4397593875,197.67052788750001,83.0,111.0
443,197.67052788750001,198.59264035208332,80.0,102.0
444,198.5936018875,198.8243703875,80.0,114.0
445,198.8243703875,199.05417735208334,83.0,108.0
446,199.0551388875,199.2859073875,83.0,105.0
447,199.2859073875,199.5166758875,80.0,105.0
448,199.5166758875,199.97725135208333,85.0,114.0
449,199.9782128875,200.2089813875,85.0,111.0
450,200.2089813875,200.4397498875,83.0,89.0
451,200.4397498875,200.6705183875,75.0,114.0
452,200.6705183875,200.9012868875,78.0,108.0
453,200.9012868875,201.3628238875,82.0,120.0
454,201.3628238875,202.2858978875,80.0,102.0
455,202.2858978875,202.5166663875,80.0,114.0
456,202.5166663875,202.74647335208334,83.0,108.0
457,202.7474348875,202.9782033875,83.0,105.0
458,202.9782033875,203.2089718875,80.0,105.0
459,203.2089718875,203.66954735208333,85.0,114.0
460,203.6705088875,203.90127738750002,85.0,111.0
461,203.90127738750002,204.1320458875,83.0,89.0
462,204.1320458875,204.3628143875,75.0,114.0
463,204.3628143875,204.5935828875,78.0,108.0
464,204.5935828875,205.0551198875,82.0,120.0
465,205.0551198875,206.16088561666666,80.0,102.0
