,start,end,pitch,velocity
0,0.9913430145833333,4.576908583333333,32.0,100.0
1,0.9019202208333333,4.576908583333333,44.0,80.0
2,1.00672758125,4.58363933125,51.0,94.0
3,1.08461195,4.58940854375,56.0,100.0
4,4.7480618875000005,5.037484047916667,56.0,108.0
5,4.7480618875000005,5.065368575,44.0,102.0
6,5.2095988875,5.523059433333334,56.0,100.0
7,5.2095988875,5.523059433333334,63.0,94.0
8,5.2095988875,5.565366991666667,44.0,102.0
9,5.6711358875,5.698058879166667,64.0,47.0
10,5.6711358875,5.9220966312500005,56.0,114.0
11,5.6711358875,5.946135016666667,44.0,100.0
12,6.0172886375,6.205749579166667,59.0,111.0
13,6.0172886375,6.252864814583333,47.0,102.0
14,6.3634413875,6.52786394375,59.0,105.0
15,6.3634413875,6.53074855,56.0,97.0
16,6.3634413875,6.542286975,63.0,100.0
17,6.3634413875,6.549017722916667,51.0,82.0
18,6.8249783875,6.923055,51.0,117.0
19,6.8249783875,6.92593960625,63.0,108.0
20,7.0557468875,7.164400389583333,56.0,111.0
21,7.0557468875,7.177861885416667,44.0,102.0
22,7.2865153875,7.382668929166667,47.0,114.0
23,7.2865153875,7.3845920000000005,59.0,108.0
24,7.5172838875000005,7.639398885416667,64.0,111.0
25,7.5172838875000005,7.6461296333333335,52.0,105.0
26,7.7480523875000005,7.870167385416667,51.0,111.0
27,7.7480523875000005,7.879782739583334,63.0,89.0
28,7.9788208875,8.083628247916666,50.0,116.0
29,7.9788208875,8.093243602083334,62.0,105.0
30,8.2095893875,8.334588991666667,51.0,97.0
31,8.2095893875,8.349973558333334,63.0,82.0
32,8.4403578875,8.729780047916666,56.0,108.0
33,8.4403578875,8.757664575,44.0,102.0
34,8.9018948875,9.215355433333334,56.0,100.0
35,8.9018948875,9.215355433333334,63.0,94.0
36,8.9018948875,9.257662991666667,44.0,102.0
37,9.3634318875,9.390354879166667,64.0,47.0
38,9.3634318875,9.61439263125,56.0,114.0
39,9.3634318875,9.638431016666667,44.0,100.0
40,9.7095846375,9.898045579166666,59.0,111.0
41,9.7095846375,9.945160814583334,47.0,102.0
42,10.0557373875,10.31246734375,58.0,97.0
43,10.0557373875,10.330736516666667,43.0,90.0
44,10.0557373875,10.336505729166667,63.0,92.0
45,10.5172743875,10.627850960416668,56.0,111.0
46,10.5172743875,10.639389385416667,44.0,105.0
47,10.7480428875,10.861504066666667,47.0,111.0
48,10.7480428875,10.879773239583333,59.0,117.0
49,10.9788113875,11.095157172916666,61.0,108.0
50,10.9788113875,11.106695597916667,49.0,111.0
51,11.2095798875,11.3076565,58.0,123.0
52,11.2095798875,11.328810279166667,46.0,105.0
53,11.4403483875,11.53554039375,39.0,105.0
54,11.4403483875,11.577847952083333,51.0,92.0
55,11.6711168875,11.814385664583334,39.0,100.0
56,11.6711168875,11.981692827083334,51.0,117.0
57,12.1326538875,12.422076047916667,56.0,108.0
58,12.1326538875,12.449960575,44.0,102.0
59,12.5941908875,12.907651433333333,56.0,100.0
60,12.5941908875,12.907651433333333,63.0,94.0
61,12.5941908875,12.949958991666668,44.0,102.0
62,13.0557278875,13.082650879166668,64.0,47.0
63,13.0557278875,13.306688631250001,56.0,114.0
64,13.0557278875,13.330727016666668,44.0,100.0
65,13.4018806375,13.590341579166667,59.0,111.0
66,13.4018806375,13.637456814583334,47.0,102.0
67,13.7480333875,13.91245594375,59.0,105.0
68,13.7480333875,13.91534055,56.0,97.0
69,13.7480333875,13.926878975000001,63.0,100.0
70,13.7480333875,13.933609722916668,51.0,82.0
71,14.2095703875,14.307647,51.0,117.0
72,14.2095703875,14.31053160625,63.0,108.0
73,14.4403388875,14.548992389583333,56.0,111.0
74,14.4403388875,14.562453885416668,44.0,102.0
75,14.6711073875,14.767260929166667,47.0,114.0
76,14.6711073875,14.769184000000001,59.0,108.0
77,14.901875887500001,15.023990885416667,64.0,111.0
78,14.901875887500001,15.030721633333334,52.0,105.0
79,15.132644387500001,15.254759385416667,51.0,111.0
80,15.132644387500001,15.264374739583333,63.0,89.0
81,15.363412887500001,15.468220247916667,50.0,116.0
82,15.363412887500001,15.477835602083333,62.0,105.0
83,15.5941813875,15.719180991666667,51.0,97.0
84,15.5941813875,15.734565558333333,63.0,82.0
85,15.8249498875,16.114372047916667,56.0,108.0
86,15.8249498875,16.142256575,44.0,102.0
87,16.2864868875,16.599947433333334,56.0,100.0
88,16.2864868875,16.599947433333334,63.0,94.0
89,16.2864868875,16.642254991666668,44.0,102.0
90,16.7480238875,16.774946879166666,64.0,47.0
91,16.7480238875,16.99898463125,56.0,114.0
92,16.7480238875,17.023023016666667,44.0,100.0
93,17.0941766375,17.282637579166668,59.0,111.0
94,17.0941766375,17.329752814583333,47.0,102.0
95,17.4403293875,17.69705934375,58.0,97.0
96,17.4403293875,17.715328516666666,43.0,90.0
97,17.4403293875,17.721097729166665,63.0,92.0
98,17.9018663875,18.012442960416667,56.0,111.0
99,17.9018663875,18.02398138541667,44.0,105.0
100,18.1326348875,18.246096066666667,47.0,111.0
101,18.1326348875,18.264365239583334,59.0,117.0
102,18.3634033875,18.479749172916666,61.0,108.0
103,18.3634033875,18.491287597916667,49.0,111.0
104,18.5941718875,18.6922485,58.0,123.0
105,18.5941718875,18.713402279166665,46.0,105.0
106,18.8249403875,18.92013239375,39.0,105.0
107,18.8249403875,18.962439952083333,51.0,92.0
108,19.0557088875,19.198977664583335,39.0,100.0
109,19.0557088875,19.366284827083334,51.0,117.0
110,19.5172458875,19.959552179166668,56.0,80.0
111,19.5172458875,19.962436785416667,59.0,87.0
112,19.5172458875,20.020128910416666,44.0,100.0
113,20.2095513875,20.427819927083334,59.0,105.0
114,20.2095513875,20.433589139583333,56.0,92.0
115,20.2095513875,20.442242958333335,63.0,100.0
116,20.9018568875,21.036471845833333,63.0,111.0
117,20.9018568875,21.048010270833334,59.0,114.0
118,20.2095513875,21.151856095833335,44.0,102.0
119,21.1326253875,21.22781739375,56.0,100.0
120,21.3633938875,21.671085220833334,56.0,100.0
121,21.3633938875,21.68358518125,59.0,97.0
122,21.3633938875,21.955699704166665,44.0,108.0
123,22.0556993875,22.513390245833335,63.0,89.0
124,22.0556993875,22.537428631250002,56.0,82.0
125,22.0556993875,22.56146701666667,59.0,87.0
126,22.5172363875,22.70281272291667,51.0,48.0
127,22.7480048875,22.8287738625,56.0,100.0
128,22.7480048875,22.894158270833334,59.0,117.0
129,22.7480048875,22.92396586875,63.0,108.0
130,22.9787733875,23.049927008333334,56.0,87.0
131,22.0556993875,23.051850079166666,44.0,105.0
132,23.2095418875,23.688386525000002,59.0,89.0
133,23.2095418875,23.718194122916668,56.0,84.0
134,23.901847387500002,24.4672302125,63.0,105.0
135,23.901847387500002,24.48165324375,59.0,114.0
136,23.901847387500002,24.497037810416668,56.0,108.0
137,23.671078887500002,24.664344972916666,51.0,71.0
138,23.2095418875,24.855690520833335,44.0,102.0
139,24.5941528875,24.880690441666665,59.0,117.0
140,24.5941528875,24.901844220833333,63.0,111.0
141,24.8249213875,24.965305558333334,56.0,111.0
142,25.0556898875,25.396073425,63.0,108.0
143,25.0556898875,25.408573385416666,58.0,97.0
144,25.0556898875,25.480688541666666,51.0,105.0
145,25.7479953875,26.109532704166668,58.0,102.0
146,25.7479953875,26.288378291666668,63.0,102.0
147,26.2095323875,26.358570377083332,58.0,92.0
148,26.4403008875,26.511454508333333,58.0,94.0
149,26.4403008875,26.736453795833334,63.0,108.0
150,25.7479953875,26.753761433333334,51.0,102.0
151,26.4403008875,26.76626139375,67.0,93.0
152,26.6710693875,26.802799739583335,58.0,84.0
153,26.9018378875,27.350874927083332,59.0,92.0
154,26.9018378875,27.353759533333335,56.0,92.0
155,27.5941433875,27.77010436875,56.0,102.0
156,27.5941433875,27.77010436875,59.0,102.0
157,27.5941433875,27.782604329166666,63.0,102.0
158,28.2864488875,28.388371641666666,56.0,111.0
159,28.2864488875,28.53548656041667,59.0,114.0
160,28.2864488875,28.561448016666667,63.0,105.0
161,28.0556803875,28.591255614583332,51.0,69.0
162,28.5172173875,28.607601716666668,56.0,100.0
163,26.9018378875,28.616255535416666,44.0,100.0
164,28.7479858875,29.33067635,56.0,89.0
165,28.7479858875,29.3479839875,61.0,97.0
166,29.4402913875,29.757598075,56.0,108.0
167,29.4402913875,29.978751220833335,64.0,102.0
168,29.4402913875,29.987405039583333,61.0,108.0
169,29.9018283875,30.04317409375,56.0,80.0
170,30.1325968875,30.23355810625,56.0,105.0
171,28.7479858875,30.292211766666668,49.0,87.0
172,30.1325968875,30.479711172916666,64.0,105.0
173,30.1325968875,30.512403377083334,61.0,108.0
174,30.3633653875,30.593172352083332,56.0,111.0
175,31.0556708875,31.327785410416666,49.0,44.0
176,31.2864393875,31.472015722916666,54.0,108.0
177,31.2864393875,31.486438754166667,58.0,111.0
178,31.2864393875,31.513361745833333,61.0,94.0
179,31.9787448875,32.083552247916664,54.0,105.0
180,31.734514891666667,32.2095133875,49.0,66.0
181,31.9787448875,32.27201318958333,58.0,117.0
182,32.2095133875,32.3018207875,54.0,73.0
183,30.5941338875,32.30855153541667,42.0,105.0
184,31.9787448875,32.328743779166665,61.0,102.0
185,32.4402818875,32.580666058333335,39.0,108.0
186,32.4402818875,32.63451204166667,51.0,105.0
187,32.4402818875,32.640281254166666,58.0,94.0
188,32.9018188875,33.22777939375,51.0,108.0
189,32.9018188875,33.230664,58.0,100.0
190,32.9018188875,33.27585616458333,39.0,111.0
191,33.3633558875,33.45854789375,51.0,105.0
192,33.5941243875,33.695085606250004,55.0,109.0
193,33.8248928875,33.94700788541667,58.0,97.0
194,34.0556613875,34.142199575,63.0,64.0
195,34.2864298875,34.72873617916667,56.0,80.0
196,34.2864298875,34.731620785416666,59.0,87.0
197,34.2864298875,34.78931291041667,44.0,100.0
198,34.9787353875,35.19700392708334,59.0,105.0
199,34.9787353875,35.202773139583336,56.0,92.0
200,34.9787353875,35.211426958333334,63.0,100.0
201,35.6710408875,35.805655845833336,63.0,111.0
202,35.6710408875,35.81719427083333,59.0,114.0
203,34.9787353875,35.921040095833334,44.0,102.0
204,35.9018093875,35.99700139375,56.0,100.0
205,36.1325778875,36.440269220833336,56.0,100.0
206,36.1325778875,36.45276918125,59.0,97.0
207,36.1325778875,36.724883704166665,44.0,108.0
208,36.8248833875,37.28257424583333,63.0,89.0
209,36.8248833875,37.30661263125,56.0,82.0
210,36.8248833875,37.330651016666664,59.0,87.0
211,37.2864203875,37.471996722916664,51.0,48.0
212,37.5171888875,37.5979578625,56.0,100.0
213,37.5171888875,37.66334227083333,59.0,117.0
214,37.5171888875,37.69314986875,63.0,108.0
215,37.7479573875,37.81911100833334,56.0,87.0
216,36.8248833875,37.821034079166665,44.0,105.0
217,37.9787258875,38.457570525,59.0,89.0
218,37.9787258875,38.48737812291667,56.0,84.0
219,38.6710313875,39.2364142125,63.0,105.0
220,38.6710313875,39.25083724375,59.0,114.0
221,38.6710313875,39.26622181041667,56.0,108.0
222,38.4402628875,39.43352897291667,51.0,71.0
223,37.9787258875,39.62487452083333,44.0,102.0
224,39.3633368875,39.64987444166667,59.0,117.0
225,39.3633368875,39.671028220833335,63.0,111.0
226,39.5941053875,39.73448955833334,56.0,111.0
227,39.8248738875,40.165257425,63.0,108.0
228,39.8248738875,40.17775738541667,58.0,97.0
229,39.8248738875,40.24987254166667,51.0,105.0
230,40.5171793875,40.87871670416667,58.0,102.0
231,40.5171793875,41.05756229166667,63.0,102.0
232,40.9787163875,41.127754377083335,58.0,92.0
233,41.209484887500004,41.28063850833333,58.0,94.0
234,41.209484887500004,41.50563779583334,63.0,108.0
235,40.5171793875,41.522945433333334,51.0,102.0
236,41.209484887500004,41.53544539375,67.0,93.0
237,41.4402533875,41.57198373958333,58.0,84.0
238,41.671021887500004,42.120058927083335,59.0,92.0
239,41.671021887500004,42.122943533333334,56.0,92.0
240,42.3633273875,42.53928836875,56.0,102.0
241,42.3633273875,42.53928836875,59.0,102.0
242,42.3633273875,42.55178832916667,63.0,102.0
243,43.0556328875,43.15755564166667,56.0,111.0
244,43.0556328875,43.30467056041667,59.0,114.0
245,43.0556328875,43.33063201666667,63.0,105.0
246,42.8248643875,43.360439614583335,51.0,69.0
247,43.2864013875,43.37678571666667,56.0,100.0
248,41.671021887500004,43.385439535416666,44.0,100.0
249,43.5171698875,44.09986035,56.0,89.0
250,43.5171698875,44.117167987500004,61.0,97.0
251,44.2094753875,44.526782075,56.0,108.0
252,44.2094753875,44.747935220833334,64.0,102.0
253,44.2094753875,44.75658903958333,61.0,108.0
254,44.6710123875,44.81235809375,56.0,80.0
255,44.9017808875,45.002742106250004,56.0,105.0
256,43.5171698875,45.06139576666667,49.0,87.0
257,44.9017808875,45.24889517291667,64.0,105.0
258,44.9017808875,45.28158737708333,61.0,108.0
259,45.1325493875,45.36235635208333,56.0,111.0
260,45.8248548875,46.09696941041667,49.0,44.0
261,46.0556233875,46.24119972291667,54.0,108.0
262,46.0556233875,46.255622754166666,58.0,111.0
263,46.0556233875,46.28254574583333,61.0,94.0
264,46.7479288875,46.85273624791667,54.0,105.0
265,46.4017761375,46.9786973875,49.0,66.0
266,46.7479288875,47.041197189583336,58.0,117.0
267,46.9786973875,47.0710047875,54.0,73.0
268,45.3633178875,47.077735535416664,42.0,105.0
269,46.7479288875,47.09792777916667,61.0,102.0
270,47.2094658875,47.40369604166667,63.0,105.0
271,47.2094658875,47.42292675,58.0,100.0
272,47.2094658875,47.433503639583336,51.0,114.0
273,47.2094658875,47.4402343875,39.0,114.0
274,47.6710028875,48.221001145833334,56.0,97.0
275,47.6710028875,48.230616500000004,59.0,100.0
276,47.6710028875,48.23350110625,63.0,97.0
277,48.3633083875,48.425808189583336,59.0,69.0
278,48.3633083875,48.4440773625,63.0,87.0
279,48.3633083875,48.4556157875,56.0,71.0
280,48.5940768875,48.701768854166666,56.0,84.0
281,48.5940768875,48.704653460416665,59.0,97.0
282,48.5940768875,48.71619188541667,63.0,97.0
283,48.8248453875,48.92965274791667,56.0,102.0
284,48.8248453875,48.92965274791667,59.0,100.0
285,48.8248453875,48.93542196041667,63.0,97.0
286,48.1325398875,48.958498810416664,51.0,57.0
287,47.6710028875,48.993114085416664,44.0,108.0
288,49.0556138875,49.29119006458333,63.0,105.0
289,49.0556138875,49.351766795833335,59.0,111.0
290,49.0556138875,49.36042061458333,56.0,100.0
291,49.5171508875,49.61811210625,56.0,64.0
292,49.5171508875,49.630612066666664,59.0,92.0
293,49.5171508875,49.64215049166667,63.0,89.0
294,49.7479193875,49.813303795833335,56.0,64.0
295,49.9786878875,50.02868772916667,56.0,73.0
296,49.9786878875,50.10657209791667,59.0,114.0
297,49.9786878875,50.124841270833336,63.0,105.0
298,50.2094563875,50.334455991666665,56.0,105.0
299,50.4402248875,50.48445551666667,56.0,94.0
300,50.4402248875,50.5383015,59.0,123.0
301,50.4402248875,50.56522449166667,63.0,123.0
302,50.6709933875,50.72003169375,59.0,92.0
303,50.6709933875,50.733493189583335,63.0,82.0
304,49.9786878875,50.75080082708333,51.0,97.0
305,49.0556138875,50.78541610208333,44.0,108.0
306,50.6709933875,50.7979160625,56.0,120.0
307,50.9017618875,51.125799639583335,32.0,111.0
308,50.9017618875,51.23349160625,56.0,97.0
309,50.9017618875,51.242145425000004,59.0,102.0
310,51.1325303875,51.35368353333333,44.0,108.0
311,51.3632988875,51.587336639583334,32.0,102.0
312,51.3632988875,51.62002884375,56.0,102.0
313,51.3632988875,51.62675959166667,63.0,102.0
314,51.3632988875,51.63252880416667,59.0,108.0
315,51.5940673875,51.785412935416666,44.0,117.0
316,51.8248358875,52.06425820625,32.0,100.0
317,51.8248358875,52.07579663125,63.0,97.0
318,51.8248358875,52.09118119791667,56.0,94.0
319,51.8248358875,52.09118119791667,59.0,100.0
320,52.0556043875,52.26137296666667,44.0,108.0
321,52.1709886375,52.322911233333336,63.0,100.0
322,52.1709886375,52.341180406250004,59.0,108.0
323,52.1709886375,52.35271883125,56.0,102.0
324,52.2863728875,52.45656465625,32.0,97.0
325,52.517141387500004,52.60079496875,63.0,100.0
326,52.517141387500004,52.61810260625,59.0,102.0
327,52.517141387500004,52.636371779166666,56.0,105.0
328,52.517141387500004,52.66906398333333,44.0,111.0
329,52.7479098875,53.01713980416667,40.0,102.0
330,52.7479098875,53.10848566875,56.0,100.0
331,52.7479098875,53.11233181041667,52.0,94.0
332,52.978678387500004,53.11233181041667,52.0,111.0
333,53.2094468875,53.430600033333334,40.0,97.0
334,53.2094468875,53.526753575,59.0,105.0
335,53.2094468875,53.53540739375,56.0,111.0
336,53.2094468875,53.538292,52.0,102.0
337,53.440215387500004,53.538292,52.0,114.0
338,53.6709838875,53.90367545833333,40.0,100.0
339,53.6709838875,53.90656006458333,59.0,105.0
340,53.6709838875,53.919060025,56.0,114.0
341,53.6709838875,53.92579077291667,52.0,105.0
342,53.901752387500004,53.92579077291667,52.0,111.0
343,54.0171366375,54.10752096666667,52.0,97.0
344,54.0171366375,54.1440593125,56.0,108.0
345,54.0171366375,54.14790545416667,59.0,102.0
346,54.1325208875,54.345020214583336,40.0,105.0
347,54.363289387500004,54.46809674791667,52.0,94.0
348,54.363289387500004,54.46809674791667,52.0,114.0
349,54.363289387500004,54.479635172916666,56.0,105.0
350,54.363289387500004,54.495019739583334,59.0,100.0
351,54.5940578875,54.701749854166664,59.0,80.0
352,54.5940578875,54.737326664583335,63.0,64.0
353,54.5940578875,54.796941860416666,37.0,97.0
354,54.5940578875,54.944056779166665,56.0,84.0
355,54.5940578875,54.949825991666664,61.0,80.0
356,54.5940578875,54.949825991666664,64.0,67.0
357,54.8248263875,54.97097977083333,49.0,105.0
358,55.0555948875,55.26040193125,37.0,100.0
359,55.0555948875,55.270978820833335,61.0,111.0
360,55.0555948875,55.32770941041667,64.0,108.0
361,55.0555948875,55.330594016666666,56.0,114.0
362,55.2863633875,55.46040129791667,49.0,108.0
363,55.5171318875,55.74982345833333,42.0,82.0
364,55.5171318875,55.77386184375,58.0,105.0
365,55.5171318875,55.78059259166667,54.0,87.0
366,55.7479003875,55.78059259166667,54.0,111.0
367,55.5171318875,55.78059259166667,61.0,97.0
368,55.8632846375,55.920976762500004,54.0,87.0
369,55.8632846375,56.01039955625,58.0,105.0
370,55.8632846375,56.01616876875,61.0,94.0
371,55.9786688875,56.127706877083334,42.0,102.0
372,56.2094373875,56.325783172916665,54.0,78.0
373,56.2094373875,56.325783172916665,54.0,114.0
374,56.2094373875,56.341167739583334,58.0,94.0
375,56.2094373875,56.34982155833333,61.0,87.0
376,56.4402058875,56.652705214583335,35.0,100.0
377,56.4402058875,56.76424332291667,63.0,92.0
378,56.4402058875,56.77289714166667,54.0,84.0
379,56.4402058875,56.77578174791667,59.0,94.0
380,56.6709743875,56.81135855833333,47.0,102.0
381,56.9017428875,57.110396072916664,35.0,89.0
382,56.9017428875,57.230588,63.0,100.0
383,56.9017428875,57.233472606250004,54.0,105.0
384,56.9017428875,57.2363572125,59.0,111.0
385,57.1325113875,57.29116473125,47.0,97.0
386,57.3632798875,57.58731763958333,35.0,87.0
387,57.3632798875,57.61424063125,54.0,102.0
388,57.3632798875,57.61808677291667,63.0,100.0
389,57.3632798875,57.622894450000004,59.0,108.0
390,57.5940483875,57.79693236041667,47.0,108.0
391,57.7094326375,57.83443224166667,54.0,89.0
392,57.7094326375,57.84116298958333,63.0,92.0
393,57.7094326375,57.84404759583333,59.0,97.0
394,57.8248168875,58.10846983541667,35.0,97.0
395,58.0555853875,58.153662000000004,54.0,97.0
396,58.0555853875,58.16712349583334,59.0,102.0
397,58.0555853875,58.18058499166667,63.0,97.0
398,58.0555853875,58.19308495208333,47.0,108.0
399,58.2863538875,58.5401992375,37.0,105.0
400,58.5171223875,58.615199000000004,47.0,82.0
401,58.2863538875,58.633468172916665,64.0,105.0
402,58.5171223875,58.636352779166664,49.0,89.0
403,58.2863538875,58.63923738541667,56.0,89.0
404,58.2863538875,58.64212199166667,61.0,100.0
405,58.7478908875,58.96904403333333,37.0,100.0
406,58.7478908875,59.0825052125,61.0,100.0
407,58.7478908875,59.0825052125,64.0,100.0
408,58.7478908875,59.088274425,56.0,94.0
409,58.9786593875,59.148851156250004,49.0,108.0
410,59.2094278875,59.44211945833334,37.0,97.0
411,59.2094278875,59.46231170208333,64.0,92.0
412,59.2094278875,59.4632732375,56.0,100.0
413,59.2094278875,59.46519630833333,61.0,97.0
414,59.4401963875,59.64308036041667,49.0,105.0
415,59.5555806375,59.711349375,64.0,94.0
416,59.5555806375,59.7286570125,61.0,97.0
417,59.5555806375,59.73154161875,56.0,102.0
418,59.6709648875,59.93057945,37.0,100.0
419,59.9017333875,60.04500216458334,64.0,82.0
420,59.9017333875,60.052694447916664,61.0,89.0
421,59.9017333875,60.056540589583335,49.0,108.0
422,59.9017333875,60.07192515625,56.0,92.0
423,60.1325018875,60.37192420625,39.0,102.0
424,60.1325018875,60.49115459791667,58.0,94.0
425,60.1325018875,60.49403920416667,63.0,97.0
426,60.1325018875,60.49403920416667,66.0,94.0
427,60.3632703875,60.57865432083334,51.0,114.0
428,60.5940388875,60.75269223125,39.0,102.0
429,60.5940388875,60.82961506458334,66.0,108.0
430,60.5940388875,60.866153410416665,63.0,108.0
431,60.5940388875,60.904614827083336,58.0,105.0
432,60.8248073875,61.010383722916664,51.0,97.0
433,61.0555758875,61.28249824583333,32.0,84.0
434,61.0555758875,61.309421237500004,56.0,94.0
435,61.0555758875,61.31519045,59.0,100.0
436,61.2863443875,61.471920722916664,44.0,114.0
437,61.4017286375,61.547882020833335,63.0,97.0
438,61.4017286375,61.619997177083334,59.0,102.0
439,61.4017286375,61.622881783333334,56.0,97.0
440,61.5171128875,61.742112175,32.0,105.0
441,61.7478813875,61.87191945625,63.0,100.0
442,61.7478813875,61.893073235416665,59.0,111.0
443,61.7478813875,61.902688589583335,56.0,102.0
444,61.7478813875,61.93634232916667,44.0,117.0
445,61.9786498875,62.20845685208334,40.0,89.0
446,62.2094183875,62.36037944791667,52.0,102.0
447,61.9786498875,62.367110195833334,56.0,92.0
448,61.9786498875,62.367110195833334,59.0,97.0
449,61.9786498875,62.37961015625,64.0,97.0
450,62.4401868875,62.65268621458333,40.0,78.0
451,62.4401868875,62.79595499166667,64.0,105.0
452,62.4401868875,62.80749341666667,56.0,105.0
453,62.4401868875,62.81133955833334,59.0,111.0
454,62.6709553875,62.8440317625,52.0,80.0
455,62.9017238875,63.10460786041667,40.0,78.0
456,62.9017238875,63.170953804166665,64.0,102.0
457,62.9017238875,63.171915339583336,59.0,105.0
458,62.9017238875,63.177684552083335,56.0,102.0
459,63.1324923875,63.294030337500004,52.0,102.0
460,63.2478766375,63.44210679166667,59.0,94.0
461,63.2478766375,63.44499139791667,64.0,102.0
462,63.2478766375,63.447876004166666,56.0,100.0
463,63.3632608875,63.563260254166664,40.0,87.0
464,63.5940293875,63.72191359791667,56.0,100.0
465,63.5940293875,63.748836589583334,64.0,89.0
466,63.5940293875,63.75268273125,59.0,97.0
467,63.5940293875,63.75845194375,52.0,97.0
468,63.824797887500004,64.01325882916667,39.0,45.0
469,63.824797887500004,64.165181425,58.0,102.0
470,63.824797887500004,64.17191217291666,63.0,100.0
471,64.05556638750001,64.22575815625,51.0,105.0
472,64.2863348875,64.49018039583333,39.0,82.0
473,64.2863348875,64.65075681041667,63.0,105.0
474,64.2863348875,64.66037216458334,58.0,108.0
475,64.5171033875,64.69114129791667,51.0,102.0
476,64.7478718875,64.96037121458333,39.0,92.0
477,64.7478718875,65.00748645,63.0,111.0
478,64.7478718875,65.01517873333333,58.0,105.0
479,64.97864038750001,65.18729357291667,51.0,100.0
480,65.0940246375,65.30075475208334,58.0,97.0
481,65.0940246375,65.31806238958333,63.0,94.0
482,65.2094088875,65.47863880416666,39.0,97.0
483,65.4401773875,65.60459994375,51.0,102.0
484,65.4401773875,65.62863832916666,63.0,102.0
485,65.4401773875,65.63729214791667,58.0,102.0
486,65.6709458875,65.89498363958333,32.0,111.0
487,65.6709458875,66.00267560625,56.0,97.0
488,65.6709458875,66.011329425,59.0,102.0
489,65.90171438750001,66.12286753333333,44.0,108.0
490,66.1324828875,66.35652063958334,32.0,102.0
491,66.1324828875,66.38921284375,56.0,102.0
492,66.1324828875,66.39594359166666,63.0,102.0
493,66.1324828875,66.40171280416666,59.0,108.0
494,66.3632513875,66.55459693541667,44.0,117.0
495,66.5940198875,66.83344220625,32.0,100.0
496,66.5940198875,66.84498063125,63.0,97.0
497,66.5940198875,66.86036519791666,56.0,94.0
498,66.5940198875,66.86036519791666,59.0,100.0
499,66.8247883875,67.03055696666667,44.0,108.0
500,66.9401726375,67.09209523333334,63.0,100.0
501,66.9401726375,67.11036440625,59.0,108.0
502,66.9401726375,67.12190283125,56.0,102.0
503,67.0555568875,67.22574865625,32.0,97.0
504,67.2863253875,67.36997896875,63.0,100.0
505,67.2863253875,67.38728660625,59.0,102.0
506,67.2863253875,67.40555577916666,56.0,105.0
507,67.2863253875,67.43824798333334,44.0,111.0
508,67.5170938875,67.78632380416667,40.0,102.0
509,67.5170938875,67.87766966875,56.0,100.0
510,67.5170938875,67.88151581041667,52.0,94.0
511,67.7478623875,67.88151581041667,52.0,111.0
512,67.9786308875,68.19978403333333,40.0,97.0
513,67.9786308875,68.295937575,59.0,105.0
514,67.9786308875,68.30459139375,56.0,111.0
515,67.9786308875,68.307476,52.0,102.0
516,68.2093993875,68.307476,52.0,114.0
517,68.4401678875,68.67285945833333,40.0,100.0
518,68.4401678875,68.67574406458334,59.0,105.0
519,68.4401678875,68.688244025,56.0,114.0
520,68.4401678875,68.69497477291667,52.0,105.0
521,68.6709363875,68.69497477291667,52.0,111.0
522,68.7863206375,68.87670496666667,52.0,97.0
523,68.7863206375,68.9132433125,56.0,108.0
524,68.7863206375,68.91708945416667,59.0,102.0
525,68.9017048875,69.11420421458334,40.0,105.0
526,69.1324733875,69.23728074791667,52.0,94.0
527,69.1324733875,69.23728074791667,52.0,114.0
528,69.1324733875,69.24881917291667,56.0,105.0
529,69.1324733875,69.26420373958334,59.0,100.0
530,69.3632418875,69.47093385416667,59.0,80.0
531,69.3632418875,69.50651066458333,63.0,64.0
532,69.3632418875,69.56612586041666,37.0,97.0
533,69.3632418875,69.71324077916667,56.0,84.0
534,69.3632418875,69.71900999166667,61.0,80.0
535,69.3632418875,69.71900999166667,64.0,67.0
536,69.5940103875,69.74016377083333,49.0,105.0
537,69.8247788875,70.02958593125,37.0,100.0
538,69.8247788875,70.04016282083333,61.0,111.0
539,69.8247788875,70.09689341041667,64.0,108.0
540,69.8247788875,70.09977801666666,56.0,114.0
541,70.0555473875,70.22958529791667,49.0,108.0
542,70.2863158875,70.51900745833333,42.0,82.0
543,70.2863158875,70.54304584375001,58.0,105.0
544,70.2863158875,70.54977659166667,54.0,87.0
545,70.5170843875,70.54977659166667,54.0,111.0
546,70.2863158875,70.54977659166667,61.0,97.0
547,70.6324686375,70.6901607625,54.0,87.0
548,70.6324686375,70.77958355625,58.0,105.0
549,70.6324686375,70.78535276875,61.0,94.0
550,70.7478528875,70.89689087708334,42.0,102.0
551,70.9786213875,71.09496717291667,54.0,78.0
552,70.9786213875,71.09496717291667,54.0,114.0
553,70.9786213875,71.11035173958334,58.0,94.0
554,70.9786213875,71.11900555833333,61.0,87.0
555,71.2093898875,71.42188921458333,35.0,100.0
556,71.2093898875,71.53342732291667,63.0,92.0
557,71.2093898875,71.54208114166667,54.0,84.0
558,71.2093898875,71.54496574791666,59.0,94.0
559,71.4401583875,71.58054255833333,47.0,102.0
560,71.6709268875,71.87958007291667,35.0,89.0
561,71.6709268875,71.99977200000001,63.0,100.0
562,71.6709268875,72.00265660625,54.0,105.0
563,71.6709268875,72.0055412125,59.0,111.0
564,71.9016953875,72.06034873125,47.0,97.0
565,72.1324638875,72.35650163958333,35.0,87.0
566,72.1324638875,72.38342463125,54.0,102.0
567,72.1324638875,72.38727077291666,63.0,100.0
568,72.1324638875,72.39207845,59.0,108.0
569,72.3632323875,72.56611636041667,47.0,108.0
570,72.4786166375,72.60361624166667,54.0,89.0
571,72.4786166375,72.61034698958333,63.0,92.0
572,72.4786166375,72.61323159583334,59.0,97.0
573,72.5940008875,72.87765383541667,35.0,97.0
574,72.8247693875,72.922846,54.0,97.0
575,72.8247693875,72.93630749583333,59.0,102.0
576,72.8247693875,72.94976899166667,63.0,97.0
577,72.8247693875,72.96226895208333,47.0,108.0
578,73.0555378875,73.3093832375,37.0,105.0
579,73.2863063875,73.384383,47.0,82.0
580,73.0555378875,73.40265217291667,64.0,105.0
581,73.2863063875,73.40553677916667,49.0,89.0
582,73.0555378875,73.40842138541667,56.0,89.0
583,73.0555378875,73.41130599166667,61.0,100.0
584,73.5170748875,73.73822803333333,37.0,100.0
585,73.5170748875,73.8516892125,61.0,100.0
586,73.5170748875,73.8516892125,64.0,100.0
587,73.5170748875,73.857458425,56.0,94.0
588,73.7478433875,73.91803515625,49.0,108.0
589,73.9786118875,74.21130345833333,37.0,97.0
590,73.9786118875,74.23149570208334,64.0,92.0
591,73.9786118875,74.2324572375,56.0,100.0
592,73.9786118875,74.23438030833333,61.0,97.0
593,74.2093803875,74.41226436041667,49.0,105.0
594,74.3247646375,74.48053337500001,64.0,94.0
595,74.3247646375,74.4978410125,61.0,97.0
596,74.3247646375,74.50072561875,56.0,102.0
597,74.4401488875,74.69976345,37.0,100.0
598,74.6709173875,74.81418616458333,64.0,82.0
599,74.6709173875,74.82187844791667,61.0,89.0
600,74.6709173875,74.82572458958333,49.0,108.0
601,74.6709173875,74.84110915625,56.0,92.0
602,74.9016858875,75.14110820625,39.0,102.0
603,74.9016858875,75.26033859791667,58.0,94.0
604,74.9016858875,75.26322320416666,63.0,97.0
605,74.9016858875,75.26322320416666,66.0,94.0
606,75.1324543875,75.34783832083333,51.0,114.0
607,75.3632228875,75.52187623125,39.0,102.0
608,75.3632228875,75.59879906458333,66.0,108.0
609,75.3632228875,75.63533741041667,63.0,108.0
610,75.3632228875,75.67379882708333,58.0,105.0
611,75.5939913875,75.77956772291667,51.0,97.0
612,75.82475988750001,76.05168224583333,32.0,84.0
613,75.82475988750001,76.0786052375,56.0,94.0
614,75.82475988750001,76.08437445,59.0,100.0
615,76.0555283875,76.24110472291667,44.0,114.0
616,76.1709126375,76.31706602083334,63.0,97.0
617,76.1709126375,76.38918117708333,59.0,102.0
618,76.1709126375,76.39206578333334,56.0,97.0
619,76.2862968875,76.511296175,32.0,105.0
620,76.5170653875,76.64110345625001,63.0,100.0
621,76.5170653875,76.66225723541666,59.0,111.0
622,76.5170653875,76.67187258958333,56.0,102.0
623,76.5170653875,76.70552632916667,44.0,117.0
624,76.74783388750001,76.97764085208334,40.0,89.0
625,76.9786023875,77.12956344791667,52.0,102.0
626,76.74783388750001,77.13629419583333,56.0,92.0
627,76.74783388750001,77.13629419583333,59.0,97.0
628,76.74783388750001,77.14879415625,64.0,97.0
629,77.2093708875,77.42187021458334,40.0,78.0
630,77.2093708875,77.56513899166667,64.0,105.0
631,77.2093708875,77.57667741666667,56.0,105.0
632,77.2093708875,77.58052355833334,59.0,111.0
633,77.4401393875,77.6132157625,52.0,80.0
634,77.67090788750001,77.87379186041667,40.0,78.0
635,77.67090788750001,77.94013780416667,64.0,102.0
636,77.67090788750001,77.94109933958333,59.0,105.0
637,77.67090788750001,77.94686855208333,56.0,102.0
638,77.9016763875,78.0632143375,52.0,102.0
639,78.0170606375,78.21129079166667,59.0,94.0
640,78.0170606375,78.21417539791666,64.0,102.0
641,78.0170606375,78.21706000416667,56.0,100.0
642,78.1324448875,78.33244425416667,40.0,87.0
643,78.3632133875,78.49109759791666,56.0,100.0
644,78.3632133875,78.51802058958333,64.0,89.0
645,78.3632133875,78.52186673125,59.0,97.0
646,78.3632133875,78.52763594375,52.0,97.0
647,78.59398188750001,78.78244282916667,39.0,45.0
648,78.59398188750001,78.934365425,58.0,102.0
649,78.59398188750001,78.94109617291667,63.0,100.0
650,78.8247503875,78.99494215625,51.0,105.0
651,79.0555188875,79.25936439583333,39.0,82.0
652,79.0555188875,79.41994081041666,63.0,105.0
653,79.0555188875,79.42955616458333,58.0,108.0
654,79.2862873875,79.46032529791667,51.0,102.0
655,79.5170558875,79.77955505625,44.0,97.0
656,79.5170558875,79.79205501666667,59.0,94.0
657,79.5170558875,79.79205501666667,63.0,108.0
658,79.5170558875,79.80359344166666,68.0,97.0
659,79.7478243875,80.06032339791666,56.0,92.0
660,79.8632086375,80.06897721666667,68.0,105.0
661,79.8632086375,80.07570796458333,59.0,87.0
662,79.8632086375,80.08436178333334,63.0,97.0
663,79.9785928875,80.32570717291667,44.0,89.0
664,80.2093613875,80.36801473125,68.0,97.0
665,80.2093613875,80.3708993375,63.0,97.0
666,80.2093613875,80.37378394375,59.0,89.0
667,80.2093613875,80.37955315625,56.0,111.0
668,80.4401298875,80.72955204791667,56.0,108.0
669,80.4401298875,80.757436575,44.0,102.0
670,80.9016668875,81.21512743333334,56.0,100.0
671,80.9016668875,81.21512743333334,63.0,94.0
672,80.9016668875,81.25743499166667,44.0,102.0
673,81.3632038875,81.39012687916667,64.0,47.0
674,81.3632038875,81.61416463125,56.0,114.0
675,81.3632038875,81.63820301666667,44.0,100.0
676,81.70935663750001,81.89781757916667,59.0,111.0
677,81.70935663750001,81.94493281458334,47.0,102.0
678,82.0555093875,82.21993194375,59.0,105.0
679,82.0555093875,82.22281655,56.0,97.0
680,82.0555093875,82.234354975,63.0,100.0
681,82.0555093875,82.24108572291667,51.0,82.0
682,82.5170463875,82.615123,51.0,117.0
683,82.5170463875,82.61800760625,63.0,108.0
684,82.7478148875,82.85646838958334,56.0,111.0
685,82.7478148875,82.86992988541667,44.0,102.0
686,82.9785833875,83.07473692916666,47.0,114.0
687,82.9785833875,83.07666,59.0,108.0
688,83.2093518875,83.33146688541667,64.0,111.0
689,83.2093518875,83.33819763333334,52.0,105.0
690,83.4401203875,83.56223538541667,51.0,111.0
691,83.4401203875,83.57185073958334,63.0,89.0
692,83.6708888875,83.77569624791667,50.0,116.0
693,83.6708888875,83.78531160208334,62.0,105.0
694,83.9016573875,84.02665699166667,51.0,97.0
695,83.9016573875,84.04204155833334,63.0,82.0
696,84.1324258875,84.42184804791667,56.0,108.0
697,84.1324258875,84.449732575,44.0,102.0
698,84.5939628875,84.90742343333334,56.0,100.0
699,84.5939628875,84.90742343333334,63.0,94.0
700,84.5939628875,84.94973099166667,44.0,102.0
701,85.0554998875,85.08242287916667,64.0,47.0
702,85.0554998875,85.30646063125,56.0,114.0
703,85.0554998875,85.33049901666666,44.0,100.0
704,85.4016526375,85.59011357916667,59.0,111.0
705,85.4016526375,85.63722881458334,47.0,102.0
706,85.7478053875,86.00453534375,58.0,97.0
707,85.7478053875,86.02280451666667,43.0,90.0
708,85.7478053875,86.02857372916667,63.0,92.0
709,86.2093423875,86.31991896041667,56.0,111.0
710,86.2093423875,86.33145738541667,44.0,105.0
711,86.4401108875,86.55357206666667,47.0,111.0
712,86.4401108875,86.57184123958334,59.0,117.0
713,86.6708793875,86.78722517291666,61.0,108.0
714,86.6708793875,86.79876359791666,49.0,111.0
715,86.9016478875,86.9997245,58.0,123.0
716,86.9016478875,87.02087827916667,46.0,105.0
717,87.1324163875,87.22760839375,39.0,105.0
718,87.1324163875,87.26991595208334,51.0,92.0
719,87.3631848875,87.50645366458333,39.0,100.0
720,87.3631848875,87.67376082708333,51.0,117.0
721,87.8247218875,88.11414404791667,56.0,108.0
722,87.8247218875,88.142028575,44.0,102.0
723,88.2862588875,88.59971943333333,56.0,100.0
724,88.2862588875,88.59971943333333,63.0,94.0
725,88.2862588875,88.64202699166667,44.0,102.0
726,88.7477958875,88.77471887916667,64.0,47.0
727,88.7477958875,88.99875663125,56.0,114.0
728,88.7477958875,89.02279501666666,44.0,100.0
729,89.0939486375,89.28240957916667,59.0,111.0
730,89.0939486375,89.32952481458334,47.0,102.0
731,89.44010138750001,89.60452394375,59.0,105.0
732,89.44010138750001,89.60740855,56.0,97.0
733,89.44010138750001,89.618946975,63.0,100.0
734,89.44010138750001,89.62567772291666,51.0,82.0
735,89.9016383875,89.999715,51.0,117.0
736,89.9016383875,90.00259960625,63.0,108.0
737,90.1324068875,90.24106038958334,56.0,111.0
738,90.1324068875,90.25452188541666,44.0,102.0
739,90.36317538750001,90.45932892916667,47.0,114.0
740,90.36317538750001,90.461252,59.0,108.0
741,90.5939438875,90.71605888541667,64.0,111.0
742,90.5939438875,90.72278963333333,52.0,105.0
743,90.8247123875,90.94682738541667,51.0,111.0
744,90.8247123875,90.95644273958334,63.0,89.0
745,91.0554808875,91.16028824791667,50.0,116.0
746,91.0554808875,91.16990360208334,62.0,105.0
747,91.2862493875,91.41124899166667,51.0,97.0
748,91.2862493875,91.42663355833334,63.0,82.0
749,91.5170178875,91.80644004791667,56.0,108.0
750,91.5170178875,91.834324575,44.0,102.0
751,91.9785548875,92.29201543333333,56.0,100.0
752,91.9785548875,92.29201543333333,63.0,94.0
753,91.9785548875,92.33432299166667,44.0,102.0
754,92.4400918875,92.46701487916667,64.0,47.0
755,92.4400918875,92.69105263125,56.0,114.0
756,92.4400918875,92.71509101666666,44.0,100.0
757,92.7862446375,92.97470557916667,59.0,111.0
758,92.7862446375,93.02182081458334,47.0,102.0
759,93.1323973875,93.39585809166667,63.0,100.0
760,93.1323973875,93.40162730416667,51.0,111.0
761,93.1323973875,93.40739651666667,58.0,94.0
762,93.1323973875,93.42278108333333,67.0,82.0
763,93.5939343875,93.70162635416666,51.0,102.0
764,93.5939343875,93.71604938541667,63.0,100.0
765,93.5939343875,93.72181859791667,39.0,100.0
766,93.8247028875,93.92566410625,39.0,94.0
767,93.8247028875,93.95643323958333,51.0,100.0
768,93.8247028875,93.95931784583334,63.0,102.0
769,94.0554713875,94.15066339375001,55.0,116.0
770,94.0554713875,94.16797103125,43.0,99.0
771,94.0554713875,94.18720173958333,67.0,105.0
772,94.2862398875,94.94104550625,44.0,102.0
773,94.2862398875,95.018929875,68.0,100.0
774,94.2862398875,95.0246990875,56.0,117.0
775,95.2093138875,95.65162017916667,56.0,80.0
776,95.2093138875,95.65450478541666,59.0,87.0
777,95.2093138875,95.71219691041667,44.0,100.0
778,95.9016193875,96.11988792708334,59.0,105.0
779,95.9016193875,96.12565713958334,56.0,92.0
780,95.9016193875,96.13431095833333,63.0,100.0
781,96.5939248875,96.72853984583334,63.0,111.0
782,96.5939248875,96.74007827083334,59.0,114.0
783,95.9016193875,96.84392409583333,44.0,102.0
784,96.8246933875,96.91988539375001,56.0,100.0
785,97.0554618875,97.36315322083334,56.0,100.0
786,97.0554618875,97.37565318125,59.0,97.0
787,97.0554618875,97.64776770416667,44.0,108.0
788,97.7477673875,98.20545824583334,63.0,89.0
789,97.7477673875,98.22949663125,56.0,82.0
790,97.7477673875,98.25353501666667,59.0,87.0
791,98.2093043875,98.39488072291667,51.0,48.0
792,98.44007288750001,98.5208418625,56.0,100.0
793,98.44007288750001,98.58622627083334,59.0,117.0
794,98.44007288750001,98.61603386875,63.0,108.0
795,98.6708413875,98.74199500833333,56.0,87.0
796,97.7477673875,98.74391807916666,44.0,105.0
797,98.9016098875,99.380454525,59.0,89.0
798,98.9016098875,99.41026212291666,56.0,84.0
799,99.5939153875,100.1592982125,63.0,105.0
800,99.5939153875,100.17372124375,59.0,114.0
801,99.5939153875,100.18910581041666,56.0,108.0
802,99.36314688750001,100.35641297291667,51.0,71.0
803,98.9016098875,100.54775852083334,44.0,102.0
804,100.28622088750001,100.57275844166666,59.0,117.0
805,100.28622088750001,100.59391222083333,63.0,111.0
806,100.5169893875,100.65737355833333,56.0,111.0
807,100.7477578875,101.088141425,63.0,108.0
808,100.7477578875,101.10064138541667,58.0,97.0
809,100.7477578875,101.17275654166667,51.0,105.0
810,101.4400633875,101.80160070416667,58.0,102.0
811,101.4400633875,101.98044629166667,63.0,102.0
812,101.9016003875,102.05063837708333,58.0,92.0
813,102.13236888750001,102.20352250833334,58.0,94.0
814,102.13236888750001,102.42852179583333,63.0,108.0
815,101.4400633875,102.44582943333333,51.0,102.0
816,102.13236888750001,102.45832939375,67.0,93.0
817,102.3631373875,102.49486773958334,58.0,84.0
818,102.5939058875,103.04294292708333,59.0,92.0
819,102.5939058875,103.04582753333334,56.0,92.0
820,103.2862113875,103.46217236875,56.0,102.0
821,103.2862113875,103.46217236875,59.0,102.0
822,103.2862113875,103.47467232916667,63.0,102.0
823,103.9785168875,104.08043964166667,56.0,111.0
824,103.9785168875,104.22755456041666,59.0,114.0
825,103.9785168875,104.25351601666667,63.0,105.0
826,103.7477483875,104.28332361458334,51.0,69.0
827,104.2092853875,104.29966971666667,56.0,100.0
828,102.5939058875,104.30832353541666,44.0,100.0
829,104.4400538875,105.02274435,56.0,89.0
830,104.4400538875,105.04005198750001,61.0,97.0
831,105.1323593875,105.449666075,56.0,108.0
832,105.1323593875,105.67081922083334,64.0,102.0
833,105.1323593875,105.67947303958333,61.0,108.0
834,105.5938963875,105.73524209375,56.0,80.0
835,105.8246648875,105.92562610625001,56.0,105.0
836,104.4400538875,105.98427976666667,49.0,87.0
837,105.8246648875,106.17177917291667,64.0,105.0
838,105.8246648875,106.20447137708334,61.0,108.0
839,106.0554333875,106.28524035208333,56.0,111.0
840,106.7477388875,107.01985341041667,49.0,44.0
841,106.9785073875,107.16408372291667,54.0,108.0
842,106.9785073875,107.17850675416666,58.0,111.0
843,106.9785073875,107.20542974583333,61.0,94.0
844,107.6708128875,107.77562024791666,54.0,105.0
845,107.3246601375,107.9015813875,49.0,66.0
846,107.6708128875,107.96408118958334,58.0,117.0
847,107.9015813875,107.9938887875,54.0,73.0
848,106.2862018875,108.00061953541667,42.0,105.0
849,107.6708128875,108.02081177916666,61.0,102.0
850,108.1323498875,108.27273405833334,39.0,108.0
851,108.1323498875,108.32658004166667,51.0,105.0
852,108.1323498875,108.33234925416667,58.0,94.0
853,108.5938868875,108.91984739375,51.0,108.0
854,108.5938868875,108.922732,58.0,100.0
855,108.5938868875,108.96792416458334,39.0,111.0
856,109.0554238875,109.15061589375,51.0,105.0
857,109.2861923875,109.38715360625,55.0,109.0
858,109.5169608875,109.63907588541667,58.0,97.0
859,109.7477293875,109.834267575,63.0,64.0
860,109.9784978875,110.42080417916667,56.0,80.0
861,109.9784978875,110.42368878541667,59.0,87.0
862,109.9784978875,110.48138091041668,44.0,100.0
863,110.6708033875,110.88907192708334,59.0,105.0
864,110.6708033875,110.89484113958333,56.0,92.0
865,110.6708033875,110.90349495833334,63.0,100.0
866,111.3631088875,111.49772384583333,63.0,111.0
867,111.3631088875,111.50926227083333,59.0,114.0
868,110.6708033875,111.61310809583334,44.0,102.0
869,111.5938773875,111.68906939375,56.0,100.0
870,111.8246458875,112.13233722083334,56.0,100.0
871,111.8246458875,112.14483718125,59.0,97.0
872,111.8246458875,112.41695170416666,44.0,108.0
873,112.5169513875,112.97464224583334,63.0,89.0
874,112.5169513875,112.99868063125,56.0,82.0
875,112.5169513875,113.02271901666667,59.0,87.0
876,112.97848838750001,113.16406472291666,51.0,48.0
877,113.2092568875,113.2900258625,56.0,100.0
878,113.2092568875,113.35541027083333,59.0,117.0
879,113.2092568875,113.38521786875,63.0,108.0
880,113.4400253875,113.51117900833333,56.0,87.0
881,112.5169513875,113.51310207916667,44.0,105.0
882,113.6707938875,114.149638525,59.0,89.0
883,113.6707938875,114.17944612291667,56.0,84.0
884,114.3630993875,114.9284822125,63.0,105.0
885,114.3630993875,114.94290524375,59.0,114.0
886,114.3630993875,114.95828981041667,56.0,108.0
887,114.1323308875,115.12559697291667,51.0,71.0
888,113.6707938875,115.31694252083334,44.0,102.0
889,115.0554048875,115.34194244166667,59.0,117.0
890,115.0554048875,115.36309622083334,63.0,111.0
891,115.2861733875,115.42655755833333,56.0,111.0
892,115.5169418875,115.857325425,63.0,108.0
893,115.5169418875,115.86982538541668,58.0,97.0
894,115.5169418875,115.94194054166667,51.0,105.0
895,116.2092473875,116.57078470416667,58.0,102.0
896,116.2092473875,116.74963029166666,63.0,102.0
897,116.6707843875,116.81982237708334,58.0,92.0
898,116.9015528875,116.97270650833333,58.0,94.0
899,116.9015528875,117.19770579583333,63.0,108.0
900,116.2092473875,117.21501343333334,51.0,102.0
901,116.9015528875,117.22751339375,67.0,93.0
902,117.1323213875,117.26405173958334,58.0,84.0
903,117.3630898875,117.81212692708334,59.0,92.0
904,117.3630898875,117.81501153333333,56.0,92.0
905,118.0553953875,118.23135636875,56.0,102.0
906,118.0553953875,118.23135636875,59.0,102.0
907,118.0553953875,118.24385632916668,63.0,102.0
908,118.7477008875,118.84962364166667,56.0,111.0
909,118.7477008875,118.99673856041667,59.0,114.0
910,118.7477008875,119.02270001666666,63.0,105.0
911,118.5169323875,119.05250761458333,51.0,69.0
912,118.9784693875,119.06885371666667,56.0,100.0
913,117.3630898875,119.07750753541667,44.0,100.0
914,119.2092378875,119.79192835,56.0,89.0
915,119.2092378875,119.8092359875,61.0,97.0
916,119.9015433875,120.218850075,56.0,108.0
917,119.9015433875,120.44000322083333,64.0,102.0
918,119.9015433875,120.44865703958334,61.0,108.0
919,120.3630803875,120.50442609375,56.0,80.0
920,120.5938488875,120.69481010625,56.0,105.0
921,119.2092378875,120.75346376666667,49.0,87.0
922,120.5938488875,120.94096317291667,64.0,105.0
923,120.5938488875,120.97365537708333,61.0,108.0
924,120.8246173875,121.05442435208333,56.0,111.0
925,121.5169228875,121.78903741041667,49.0,44.0
926,121.7476913875,121.93326772291667,54.0,108.0
927,121.7476913875,121.94769075416667,58.0,111.0
928,121.7476913875,121.97461374583334,61.0,94.0
929,122.4399968875,122.54480424791667,54.0,105.0
930,122.0938441375,122.6707653875,49.0,66.0
931,122.4399968875,122.73326518958334,58.0,117.0
932,122.6707653875,122.76307278750001,54.0,73.0
933,121.0553858875,122.76980353541667,42.0,105.0
934,122.4399968875,122.78999577916667,61.0,102.0
935,122.90153388750001,123.09576404166667,63.0,105.0
936,122.90153388750001,123.11499475000001,58.0,100.0
937,122.90153388750001,123.12557163958334,51.0,114.0
938,122.90153388750001,123.1323023875,39.0,114.0
939,123.3630708875,123.91306914583333,56.0,97.0
940,123.3630708875,123.9226845,59.0,100.0
941,123.3630708875,123.92556910625,63.0,97.0
942,124.0553763875,124.11787618958334,59.0,69.0
943,124.0553763875,124.1361453625,63.0,87.0
944,124.0553763875,124.1476837875,56.0,71.0
945,124.2861448875,124.39383685416666,56.0,84.0
946,124.2861448875,124.39672146041667,59.0,97.0
947,124.2861448875,124.40825988541667,63.0,97.0
948,124.5169133875,124.62172074791667,56.0,102.0
949,124.5169133875,124.62172074791667,59.0,100.0
950,124.5169133875,124.62748996041667,63.0,97.0
951,123.82460788750001,124.65056681041666,51.0,57.0
952,123.3630708875,124.68518208541667,44.0,108.0
953,124.74768188750001,124.98325806458334,63.0,105.0
954,124.74768188750001,125.04383479583333,59.0,111.0
955,124.74768188750001,125.05248861458334,56.0,100.0
956,125.2092188875,125.31018010625,56.0,64.0
957,125.2092188875,125.32268006666666,59.0,92.0
958,125.2092188875,125.33421849166668,63.0,89.0
959,125.4399873875,125.50537179583334,56.0,64.0
960,125.67075588750001,125.72075572916667,56.0,73.0
961,125.67075588750001,125.79864009791667,59.0,114.0
962,125.67075588750001,125.81690927083334,63.0,105.0
963,125.9015243875,126.02652399166666,56.0,105.0
964,126.1322928875,126.17652351666666,56.0,94.0
965,126.1322928875,126.2303695,59.0,123.0
966,126.1322928875,126.25729249166668,63.0,123.0
967,126.3630613875,126.41209969375001,59.0,92.0
968,126.3630613875,126.42556118958333,63.0,82.0
969,125.67075588750001,126.44286882708333,51.0,97.0
970,124.74768188750001,126.47748410208334,44.0,108.0
971,126.3630613875,126.4899840625,56.0,120.0
972,126.59382988750001,126.81786763958334,32.0,111.0
973,126.59382988750001,126.92555960625,56.0,97.0
974,126.59382988750001,126.934213425,59.0,102.0
975,126.8245983875,127.04575153333333,44.0,108.0
976,127.0553668875,127.27940463958333,32.0,102.0
977,127.0553668875,127.31209684375,56.0,102.0
978,127.0553668875,127.31882759166668,63.0,102.0
979,127.0553668875,127.32459680416667,59.0,108.0
980,127.2861353875,127.47748093541666,44.0,117.0
981,127.5169038875,127.75632620625001,32.0,100.0
982,127.5169038875,127.76786463125,63.0,97.0
983,127.5169038875,127.78324919791667,56.0,94.0
984,127.5169038875,127.78324919791667,59.0,100.0
985,127.7476723875,127.95344096666666,44.0,108.0
986,127.86305663750001,128.01497923333332,63.0,100.0
987,127.86305663750001,128.03324840625,59.0,108.0
988,127.86305663750001,128.04478683125,56.0,102.0
989,127.9784408875,128.14863265625002,32.0,97.0
990,128.2092093875,128.29286296875,63.0,100.0
991,128.2092093875,128.31017060625,59.0,102.0
992,128.2092093875,128.32843977916667,56.0,105.0
993,128.2092093875,128.36113198333334,44.0,111.0
994,128.4399778875,128.70920780416668,40.0,102.0
995,128.4399778875,128.80055366875,56.0,100.0
996,128.4399778875,128.80439981041667,52.0,94.0
997,128.6707463875,128.80439981041667,52.0,111.0
998,128.9015148875,129.12266803333333,40.0,97.0
999,128.9015148875,129.218821575,59.0,105.0
1000,128.9015148875,129.22747539375,56.0,111.0
1001,128.9015148875,129.23036,52.0,102.0
1002,129.1322833875,129.23036,52.0,114.0
1003,129.3630518875,129.59574345833335,40.0,100.0
1004,129.3630518875,129.59862806458332,59.0,105.0
1005,129.3630518875,129.611128025,56.0,114.0
1006,129.3630518875,129.61785877291666,52.0,105.0
1007,129.5938203875,129.61785877291666,52.0,111.0
1008,129.7092046375,129.79958896666668,52.0,97.0
1009,129.7092046375,129.8361273125,56.0,108.0
1010,129.7092046375,129.83997345416668,59.0,102.0
1011,129.8245888875,130.03708821458335,40.0,105.0
1012,130.0553573875,130.16016474791667,52.0,94.0
1013,130.0553573875,130.16016474791667,52.0,114.0
1014,130.0553573875,130.17170317291666,56.0,105.0
1015,130.0553573875,130.18708773958335,59.0,100.0
1016,130.2861258875,130.39381785416666,59.0,80.0
1017,130.2861258875,130.42939466458333,63.0,64.0
1018,130.2861258875,130.48900986041667,37.0,97.0
1019,130.2861258875,130.63612477916666,56.0,84.0
1020,130.2861258875,130.64189399166668,61.0,80.0
1021,130.2861258875,130.64189399166668,64.0,67.0
1022,130.5168943875,130.66304777083334,49.0,105.0
1023,130.7476628875,130.95246993125,37.0,100.0
1024,130.7476628875,130.96304682083334,61.0,111.0
1025,130.7476628875,131.01977741041668,64.0,108.0
1026,130.7476628875,131.02266201666666,56.0,114.0
1027,130.9784313875,131.15246929791667,49.0,108.0
1028,131.2091998875,131.44189145833334,42.0,82.0
1029,131.2091998875,131.46592984375,58.0,105.0
1030,131.2091998875,131.47266059166668,54.0,87.0
1031,131.4399683875,131.47266059166668,54.0,111.0
1032,131.2091998875,131.47266059166668,61.0,97.0
1033,131.5553526375,131.6130447625,54.0,87.0
1034,131.5553526375,131.70246755625,58.0,105.0
1035,131.5553526375,131.70823676875,61.0,94.0
1036,131.6707368875,131.81977487708335,42.0,102.0
1037,131.9015053875,132.01785117291666,54.0,78.0
1038,131.9015053875,132.01785117291666,54.0,114.0
1039,131.9015053875,132.03323573958335,58.0,94.0
1040,131.9015053875,132.04188955833334,61.0,87.0
1041,132.1322738875,132.34477321458334,35.0,100.0
1042,132.1322738875,132.45631132291666,63.0,92.0
1043,132.1322738875,132.46496514166668,54.0,84.0
1044,132.1322738875,132.46784974791666,59.0,94.0
1045,132.3630423875,132.50342655833333,47.0,102.0
1046,132.5938108875,132.80246407291668,35.0,89.0
1047,132.5938108875,132.922656,63.0,100.0
1048,132.5938108875,132.92554060625,54.0,105.0
1049,132.5938108875,132.9284252125,59.0,111.0
1050,132.8245793875,132.98323273125,47.0,97.0
1051,133.0553478875,133.27938563958332,35.0,87.0
1052,133.0553478875,133.30630863125,54.0,102.0
1053,133.0553478875,133.31015477291666,63.0,100.0
1054,133.0553478875,133.31496245,59.0,108.0
1055,133.28611638750002,133.48900036041667,47.0,108.0
1056,133.4015006375,133.52650024166667,54.0,89.0
1057,133.4015006375,133.53323098958333,63.0,92.0
1058,133.4015006375,133.53611559583334,59.0,97.0
1059,133.5168848875,133.80053783541666,35.0,97.0
1060,133.7476533875,133.84573,54.0,97.0
1061,133.7476533875,133.85919149583333,59.0,102.0
1062,133.7476533875,133.87265299166665,63.0,97.0
1063,133.7476533875,133.88515295208333,47.0,108.0
1064,133.9784218875,134.2322672375,37.0,105.0
1065,134.2091903875,134.307267,47.0,82.0
1066,133.9784218875,134.32553617291666,64.0,105.0
1067,134.2091903875,134.32842077916666,49.0,89.0
1068,133.9784218875,134.33130538541667,56.0,89.0
1069,133.9784218875,134.33418999166668,61.0,100.0
1070,134.4399588875,134.66111203333332,37.0,100.0
1071,134.4399588875,134.7745732125,61.0,100.0
1072,134.4399588875,134.7745732125,64.0,100.0
1073,134.4399588875,134.78034242500001,56.0,94.0
1074,134.6707273875,134.84091915625,49.0,108.0
1075,134.9014958875,135.13418745833334,37.0,97.0
1076,134.9014958875,135.15437970208333,64.0,92.0
1077,134.9014958875,135.1553412375,56.0,100.0
1078,134.9014958875,135.15726430833334,61.0,97.0
1079,135.13226438750002,135.33514836041667,49.0,105.0
1080,135.2476486375,135.403417375,64.0,94.0
1081,135.2476486375,135.42072501250001,61.0,97.0
1082,135.2476486375,135.42360961875,56.0,102.0
1083,135.3630328875,135.62264745,37.0,100.0
1084,135.5938013875,135.73707016458334,64.0,82.0
1085,135.5938013875,135.74476244791666,61.0,89.0
1086,135.5938013875,135.74860858958334,49.0,108.0
1087,135.5938013875,135.76399315625,56.0,92.0
1088,135.8245698875,136.06399220625,39.0,102.0
1089,135.8245698875,136.18322259791668,58.0,94.0
1090,135.8245698875,136.18610720416666,63.0,97.0
1091,135.8245698875,136.18610720416666,66.0,94.0
1092,136.0553383875,136.27072232083333,51.0,114.0
1093,136.2861068875,136.44476023125,39.0,102.0
1094,136.2861068875,136.52168306458333,66.0,108.0
1095,136.2861068875,136.55822141041668,63.0,108.0
1096,136.2861068875,136.59668282708333,58.0,105.0
1097,136.5168753875,136.70245172291666,51.0,97.0
1098,136.7476438875,136.97456624583333,32.0,84.0
1099,136.7476438875,137.0014892375,56.0,94.0
1100,136.7476438875,137.00725845,59.0,100.0
1101,136.97841238750001,137.16398872291666,44.0,114.0
1102,137.0937966375,137.23995002083333,63.0,97.0
1103,137.0937966375,137.31206517708333,59.0,102.0
1104,137.0937966375,137.31494978333333,56.0,97.0
1105,137.2091808875,137.434180175,32.0,105.0
1106,137.4399493875,137.56398745625,63.0,100.0
1107,137.4399493875,137.58514123541667,59.0,111.0
1108,137.4399493875,137.59475658958334,56.0,102.0
1109,137.4399493875,137.62841032916666,44.0,117.0
1110,137.6707178875,137.90052485208332,40.0,89.0
1111,137.9014863875,138.05244744791668,52.0,102.0
1112,137.6707178875,138.05917819583334,56.0,92.0
1113,137.6707178875,138.05917819583334,59.0,97.0
1114,137.6707178875,138.07167815625002,64.0,97.0
1115,138.1322548875,138.34475421458333,40.0,78.0
1116,138.1322548875,138.48802299166667,64.0,105.0
1117,138.1322548875,138.49956141666667,56.0,105.0
1118,138.1322548875,138.50340755833332,59.0,111.0
1119,138.3630233875,138.53609976250002,52.0,80.0
1120,138.5937918875,138.79667586041666,40.0,78.0
1121,138.5937918875,138.86302180416666,64.0,102.0
1122,138.5937918875,138.86398333958334,59.0,105.0
1123,138.5937918875,138.86975255208333,56.0,102.0
1124,138.82456038750001,138.9860983375,52.0,102.0
1125,138.9399446375,139.13417479166668,59.0,94.0
1126,138.9399446375,139.13705939791666,64.0,102.0
1127,138.9399446375,139.13994400416667,56.0,100.0
1128,139.0553288875,139.25532825416667,40.0,87.0
1129,139.2860973875,139.41398159791666,56.0,100.0
1130,139.2860973875,139.44090458958334,64.0,89.0
1131,139.2860973875,139.44475073125,59.0,97.0
1132,139.2860973875,139.45051994375,52.0,97.0
1133,139.5168658875,139.70532682916667,39.0,45.0
1134,139.5168658875,139.857249425,58.0,102.0
1135,139.5168658875,139.86398017291665,63.0,100.0
1136,139.7476343875,139.91782615625002,51.0,105.0
1137,139.9784028875,140.18224839583334,39.0,82.0
1138,139.9784028875,140.34282481041666,63.0,105.0
1139,139.9784028875,140.35244016458333,58.0,108.0
1140,140.2091713875,140.38320929791666,51.0,102.0
1141,140.4399398875,140.65243921458332,39.0,92.0
1142,140.4399398875,140.69955445,63.0,111.0
1143,140.4399398875,140.70724673333333,58.0,105.0
1144,140.6707083875,140.87936157291668,51.0,100.0
1145,140.7860926375,140.99282275208333,58.0,97.0
1146,140.7860926375,141.01013038958334,63.0,94.0
1147,140.9014768875,141.17070680416666,39.0,97.0
1148,141.1322453875,141.29666794375,51.0,102.0
1149,141.1322453875,141.32070632916668,63.0,102.0
1150,141.1322453875,141.32936014791667,58.0,102.0
1151,141.3630138875,141.58705163958334,32.0,111.0
1152,141.3630138875,141.69474360625,56.0,97.0
1153,141.3630138875,141.703397425,59.0,102.0
1154,141.5937823875,141.81493553333334,44.0,108.0
1155,141.8245508875,142.04858863958333,32.0,102.0
1156,141.8245508875,142.08128084375,56.0,102.0
1157,141.8245508875,142.08801159166666,63.0,102.0
1158,141.8245508875,142.09378080416667,59.0,108.0
1159,142.0553193875,142.24666493541667,44.0,117.0
1160,142.2860878875,142.52551020625,32.0,100.0
1161,142.2860878875,142.53704863125,63.0,97.0
1162,142.2860878875,142.55243319791666,56.0,94.0
1163,142.2860878875,142.55243319791666,59.0,100.0
1164,142.5168563875,142.72262496666667,44.0,108.0
1165,142.6322406375,142.78416323333335,63.0,100.0
1166,142.6322406375,142.80243240625,59.0,108.0
1167,142.6322406375,142.81397083125,56.0,102.0
1168,142.7476248875,142.91781665625,32.0,97.0
1169,142.9783933875,143.06204696875,63.0,100.0
1170,142.9783933875,143.07935460625,59.0,102.0
1171,142.9783933875,143.09762377916667,56.0,105.0
1172,142.9783933875,143.13031598333333,44.0,111.0
1173,143.2091618875,143.47839180416668,40.0,102.0
1174,143.2091618875,143.56973766875,56.0,100.0
1175,143.2091618875,143.57358381041666,52.0,94.0
1176,143.4399303875,143.57358381041666,52.0,111.0
1177,143.6706988875,143.89185203333332,40.0,97.0
1178,143.6706988875,143.988005575,59.0,105.0
1179,143.6706988875,143.99665939375,56.0,111.0
1180,143.6706988875,143.99954400000001,52.0,102.0
1181,143.9014673875,143.99954400000001,52.0,114.0
1182,144.1322358875,144.36492745833334,40.0,100.0
1183,144.1322358875,144.36781206458335,59.0,105.0
1184,144.1322358875,144.380312025,56.0,114.0
1185,144.1322358875,144.38704277291666,52.0,105.0
1186,144.3630043875,144.38704277291666,52.0,111.0
1187,144.4783886375,144.56877296666667,52.0,97.0
1188,144.4783886375,144.6053113125,56.0,108.0
1189,144.4783886375,144.60915745416668,59.0,102.0
1190,144.5937728875,144.80627221458334,40.0,105.0
1191,144.8245413875,144.92934874791666,52.0,94.0
1192,144.8245413875,144.92934874791666,52.0,114.0
1193,144.8245413875,144.94088717291666,56.0,105.0
1194,144.8245413875,144.95627173958334,59.0,100.0
1195,145.05530988750002,145.16300185416668,59.0,80.0
1196,145.05530988750002,145.19857866458332,63.0,64.0
1197,145.05530988750002,145.25819386041667,37.0,97.0
1198,145.05530988750002,145.40530877916666,56.0,84.0
1199,145.05530988750002,145.41107799166667,61.0,80.0
1200,145.05530988750002,145.41107799166667,64.0,67.0
1201,145.2860783875,145.43223177083334,49.0,105.0
1202,145.5168468875,145.72165393125,37.0,100.0
1203,145.5168468875,145.73223082083334,61.0,111.0
1204,145.5168468875,145.78896141041668,64.0,108.0
1205,145.5168468875,145.79184601666668,56.0,114.0
1206,145.7476153875,145.92165329791666,49.0,108.0
1207,145.9783838875,146.21107545833334,42.0,82.0
1208,145.9783838875,146.23511384375,58.0,105.0
1209,145.9783838875,146.24184459166668,54.0,87.0
1210,146.2091523875,146.24184459166668,54.0,111.0
1211,145.9783838875,146.24184459166668,61.0,97.0
1212,146.3245366375,146.3822287625,54.0,87.0
1213,146.3245366375,146.47165155625,58.0,105.0
1214,146.3245366375,146.47742076875,61.0,94.0
1215,146.4399208875,146.58895887708334,42.0,102.0
1216,146.6706893875,146.78703517291666,54.0,78.0
1217,146.6706893875,146.78703517291666,54.0,114.0
1218,146.6706893875,146.80241973958334,58.0,94.0
1219,146.6706893875,146.81107355833333,61.0,87.0
1220,146.90145788750002,147.11395721458334,35.0,100.0
1221,146.90145788750002,147.22549532291666,63.0,92.0
1222,146.90145788750002,147.23414914166668,54.0,84.0
1223,146.90145788750002,147.23703374791666,59.0,94.0
1224,147.1322263875,147.27261055833333,47.0,102.0
1225,147.3629948875,147.57164807291667,35.0,89.0
1226,147.3629948875,147.69184,63.0,100.0
1227,147.3629948875,147.69472460625,54.0,105.0
1228,147.3629948875,147.6976092125,59.0,111.0
1229,147.5937633875,147.75241673125,47.0,97.0
1230,147.8245318875,148.04856963958335,35.0,87.0
1231,147.8245318875,148.07549263125,54.0,102.0
1232,147.8245318875,148.07933877291666,63.0,100.0
1233,147.8245318875,148.08414645,59.0,108.0
1234,148.0553003875,148.25818436041666,47.0,108.0
1235,148.1706846375,148.29568424166666,54.0,89.0
1236,148.1706846375,148.30241498958333,63.0,92.0
1237,148.1706846375,148.30529959583333,59.0,97.0
1238,148.2860688875,148.56972183541666,35.0,97.0
1239,148.5168373875,148.614914,54.0,97.0
1240,148.5168373875,148.62837549583332,59.0,102.0
1241,148.5168373875,148.64183699166668,63.0,97.0
1242,148.5168373875,148.65433695208333,47.0,108.0
1243,148.74760588750001,149.0014512375,37.0,105.0
1244,148.9783743875,149.076451,47.0,82.0
1245,148.74760588750001,149.09472017291668,64.0,105.0
1246,148.9783743875,149.09760477916666,49.0,89.0
1247,148.74760588750001,149.10048938541667,56.0,89.0
1248,148.74760588750001,149.10337399166667,61.0,100.0
1249,149.2091428875,149.43029603333335,37.0,100.0
1250,149.2091428875,149.5437572125,61.0,100.0
1251,149.2091428875,149.5437572125,64.0,100.0
1252,149.2091428875,149.549526425,56.0,94.0
1253,149.4399113875,149.61010315625,49.0,108.0
1254,149.6706798875,149.90337145833334,37.0,97.0
1255,149.6706798875,149.92356370208333,64.0,92.0
1256,149.6706798875,149.9245252375,56.0,100.0
1257,149.6706798875,149.92644830833333,61.0,97.0
1258,149.9014483875,150.10433236041666,49.0,105.0
1259,150.0168326375,150.172601375,64.0,94.0
1260,150.0168326375,150.1899090125,61.0,97.0
1261,150.0168326375,150.19279361875,56.0,102.0
1262,150.1322168875,150.39183145,37.0,100.0
1263,150.3629853875,150.50625416458334,64.0,82.0
1264,150.3629853875,150.51394644791668,61.0,89.0
1265,150.3629853875,150.51779258958334,49.0,108.0
1266,150.3629853875,150.53317715625,56.0,92.0
1267,150.59375388750001,150.83317620625002,39.0,102.0
1268,150.59375388750001,150.95240659791668,58.0,94.0
1269,150.59375388750001,150.95529120416666,63.0,97.0
1270,150.59375388750001,150.95529120416666,66.0,94.0
1271,150.8245223875,151.03990632083332,51.0,114.0
1272,151.0552908875,151.21394423125,39.0,102.0
1273,151.0552908875,151.29086706458332,66.0,108.0
1274,151.0552908875,151.32740541041667,63.0,108.0
1275,151.0552908875,151.36586682708332,58.0,105.0
1276,151.2860593875,151.47163572291666,51.0,97.0
1277,151.5168278875,151.74375024583333,32.0,84.0
1278,151.5168278875,151.7706732375,56.0,94.0
1279,151.5168278875,151.77644245,59.0,100.0
1280,151.7475963875,151.93317272291668,44.0,114.0
1281,151.86298063750002,152.00913402083333,63.0,97.0
1282,151.86298063750002,152.08124917708332,59.0,102.0
1283,151.86298063750002,152.08413378333333,56.0,97.0
1284,151.9783648875,152.203364175,32.0,105.0
1285,152.2091333875,152.33317145625,63.0,100.0
1286,152.2091333875,152.35432523541667,59.0,111.0
1287,152.2091333875,152.36394058958334,56.0,102.0
1288,152.2091333875,152.39759432916668,44.0,117.0
1289,152.4399018875,152.66970885208335,40.0,89.0
1290,152.6706703875,152.82163144791667,52.0,102.0
1291,152.4399018875,152.82836219583334,56.0,92.0
1292,152.4399018875,152.82836219583334,59.0,97.0
1293,152.4399018875,152.84086215625,64.0,97.0
1294,152.9014388875,153.11393821458333,40.0,78.0
1295,152.9014388875,153.25720699166666,64.0,105.0
1296,152.9014388875,153.26874541666666,56.0,105.0
1297,152.9014388875,153.27259155833335,59.0,111.0
1298,153.1322073875,153.3052837625,52.0,80.0
1299,153.3629758875,153.56585986041668,40.0,78.0
1300,153.3629758875,153.63220580416666,64.0,102.0
1301,153.3629758875,153.63316733958334,59.0,105.0
1302,153.3629758875,153.63893655208332,56.0,102.0
1303,153.5937443875,153.7552823375,52.0,102.0
1304,153.70912863750002,153.90335879166668,59.0,94.0
1305,153.70912863750002,153.90624339791668,64.0,102.0
1306,153.70912863750002,153.90912800416666,56.0,100.0
1307,153.8245128875,154.02451225416667,40.0,87.0
1308,154.0552813875,154.18316559791666,56.0,100.0
1309,154.0552813875,154.21008858958334,64.0,89.0
1310,154.0552813875,154.21393473125,59.0,97.0
1311,154.0552813875,154.21970394375,52.0,97.0
1312,154.2860498875,154.47451082916666,39.0,45.0
1313,154.2860498875,154.62643342500002,58.0,102.0
1314,154.2860498875,154.63316417291668,63.0,100.0
1315,154.5168183875,154.68701015625,51.0,105.0
1316,154.7475868875,154.95143239583334,39.0,82.0
1317,154.7475868875,155.11200881041668,63.0,105.0
1318,154.7475868875,155.12162416458332,58.0,108.0
1319,154.9783553875,155.15239329791666,51.0,102.0
1320,155.2091238875,155.47162305625,44.0,97.0
1321,155.2091238875,155.48412301666667,59.0,94.0
1322,155.2091238875,155.48412301666667,63.0,108.0
1323,155.2091238875,155.49566144166667,68.0,97.0
1324,155.4398923875,155.75239139791668,56.0,92.0
1325,155.55527663750001,155.76104521666667,68.0,105.0
1326,155.55527663750001,155.76777596458334,59.0,87.0
1327,155.55527663750001,155.77642978333333,63.0,97.0
1328,155.6706608875,156.01777517291666,44.0,89.0
1329,155.9014293875,156.06008273125,68.0,97.0
1330,155.9014293875,156.0629673375,63.0,97.0
1331,155.9014293875,156.06585194375,59.0,89.0
1332,155.9014293875,156.07162115625,56.0,111.0
1333,156.1321978875,156.35912024583334,32.0,105.0
1334,156.3629663875,156.51200437708334,63.0,94.0
1335,156.3629663875,156.52642740833335,59.0,94.0
1336,156.3629663875,156.53508122708334,68.0,94.0
1337,156.3629663875,156.55142732916667,44.0,97.0
1338,156.5937348875,156.79373425416668,32.0,82.0
1339,156.82450338750002,157.003348975,63.0,80.0
1340,156.82450338750002,157.01007972291666,44.0,100.0
1341,156.82450338750002,157.01584893541667,59.0,69.0
1342,156.82450338750002,157.02161814791666,68.0,87.0
1343,157.0552718875,157.25238664791667,32.0,100.0
1344,157.2860403875,157.4475783375,44.0,97.0
1345,157.2860403875,157.48027054166667,63.0,87.0
1346,157.2860403875,157.48411668333333,59.0,78.0
1347,157.2860403875,157.49277050208335,68.0,80.0
1348,157.5168088875,157.71969286041667,32.0,89.0
1349,157.7475773875,157.9206537625,44.0,92.0
1350,157.7475773875,158.02257651666667,63.0,92.0
1351,157.7475773875,158.04084568958334,59.0,87.0
1352,157.7475773875,158.04661490208335,68.0,92.0
1353,157.9783458875,158.17257604166667,32.0,78.0
1354,158.2091143875,158.387959975,44.0,89.0
1355,158.2091143875,158.4629597375,63.0,94.0
1356,158.2091143875,158.46872895,59.0,89.0
1357,158.2091143875,158.48122891041666,68.0,94.0
1358,158.4398828875,158.64853607291667,32.0,84.0
1359,158.67065138750002,158.85911232916666,44.0,97.0
1360,158.67065138750002,158.87641996666667,68.0,94.0
1361,158.67065138750002,158.90045835208335,59.0,80.0
1362,158.67065138750002,158.90045835208335,63.0,89.0
1363,158.9014198875,159.09565004166666,32.0,87.0
1364,159.1321883875,159.32930314791668,44.0,89.0
1365,159.1321883875,159.38891834375,63.0,87.0
1366,159.1321883875,159.39853369791666,59.0,80.0
1367,159.1321883875,159.41007212291666,68.0,94.0
1368,159.3629568875,159.59084078125,32.0,82.0
1369,159.5937253875,159.76199408541666,63.0,94.0
1370,159.5937253875,159.76199408541666,68.0,92.0
1371,159.5937253875,159.78218632916668,44.0,102.0
1372,159.5937253875,159.79372475416667,59.0,84.0
1373,159.8244938875,160.05141624583334,32.0,105.0
1374,160.0552623875,160.20430037708334,63.0,94.0
1375,160.0552623875,160.21872340833335,59.0,94.0
1376,160.0552623875,160.22737722708334,68.0,94.0
1377,160.0552623875,160.24372332916667,44.0,97.0
1378,160.2860308875,160.48603025416668,32.0,82.0
1379,160.51679938750001,160.695644975,63.0,80.0
1380,160.51679938750001,160.70237572291666,44.0,100.0
1381,160.51679938750001,160.70814493541667,59.0,69.0
1382,160.51679938750001,160.71391414791668,68.0,87.0
1383,160.7475678875,160.94468264791666,32.0,100.0
1384,160.9783363875,161.1398743375,44.0,97.0
1385,160.9783363875,161.17256654166667,63.0,87.0
1386,160.9783363875,161.17641268333333,59.0,78.0
1387,160.9783363875,161.18506650208334,68.0,80.0
1388,161.2091048875,161.41198886041667,32.0,89.0
1389,161.4398733875,161.6129497625,44.0,92.0
1390,161.4398733875,161.71487251666667,63.0,92.0
1391,161.4398733875,161.73314168958333,59.0,87.0
1392,161.4398733875,161.73891090208335,68.0,92.0
1393,161.6706418875,161.86487204166667,32.0,78.0
1394,161.9014103875,162.080255975,44.0,89.0
1395,161.9014103875,162.1552557375,63.0,94.0
1396,161.9014103875,162.16102495,59.0,89.0
1397,161.9014103875,162.17352491041666,68.0,94.0
1398,162.1321788875,162.34083207291667,32.0,84.0
1399,162.36294738750001,162.55140832916666,44.0,97.0
1400,162.36294738750001,162.56871596666667,68.0,94.0
1401,162.36294738750001,162.59275435208335,59.0,80.0
1402,162.36294738750001,162.59275435208335,63.0,89.0
1403,162.5937158875,162.78794604166666,32.0,87.0
1404,162.8244843875,163.02159914791667,44.0,89.0
1405,162.8244843875,163.08121434375,63.0,87.0
1406,162.8244843875,163.09082969791666,59.0,80.0
1407,162.8244843875,163.10236812291666,68.0,94.0
1408,163.0552528875,163.28313678125,32.0,82.0
1409,163.2860213875,163.45429008541666,63.0,94.0
1410,163.2860213875,163.45429008541666,68.0,92.0
1411,163.2860213875,163.47448232916668,44.0,102.0
1412,163.2860213875,163.48602075416667,59.0,84.0
1413,163.5167898875,163.74371224583334,32.0,105.0
1414,163.7475583875,163.89659637708334,63.0,94.0
1415,163.7475583875,163.91101940833335,59.0,94.0
1416,163.7475583875,163.91967322708334,68.0,94.0
1417,163.7475583875,163.93601932916667,44.0,97.0
1418,163.9783268875,164.17832625416668,32.0,82.0
1419,164.2090953875,164.387940975,63.0,80.0
1420,164.2090953875,164.39467172291666,44.0,100.0
1421,164.2090953875,164.40044093541667,59.0,69.0
1422,164.2090953875,164.40621014791668,68.0,87.0
1423,164.4398638875,164.63697864791666,32.0,100.0
1424,164.6706323875,164.8321703375,44.0,97.0
1425,164.6706323875,164.86486254166667,63.0,87.0
1426,164.6706323875,164.86870868333332,59.0,78.0
1427,164.6706323875,164.87736250208334,68.0,80.0
1428,164.9014008875,165.10428486041667,32.0,89.0
1429,165.1321693875,165.3052457625,44.0,92.0
1430,165.1321693875,165.40716851666667,63.0,92.0
1431,165.1321693875,165.42543768958333,59.0,87.0
1432,165.1321693875,165.43120690208335,68.0,92.0
1433,165.3629378875,165.55716804166667,32.0,78.0
1434,165.5937063875,165.772551975,44.0,89.0
1435,165.5937063875,165.8475517375,63.0,94.0
1436,165.5937063875,165.85332095,59.0,89.0
1437,165.5937063875,165.86582091041666,68.0,94.0
1438,165.8244748875,166.03312807291667,32.0,84.0
1439,166.0552433875,166.24370432916666,44.0,97.0
1440,166.0552433875,166.26101196666667,68.0,94.0
1441,166.0552433875,166.28505035208335,59.0,80.0
1442,166.0552433875,166.28505035208335,63.0,89.0
1443,166.2860118875,166.48024204166666,32.0,87.0
1444,166.5167803875,166.71389514791667,44.0,89.0
1445,166.5167803875,166.77351034375,63.0,87.0
1446,166.5167803875,166.78312569791666,59.0,80.0
1447,166.5167803875,166.79466412291666,68.0,94.0
1448,166.7475488875,166.97543278125,32.0,82.0
1449,166.9783173875,167.14658608541666,63.0,94.0
1450,166.9783173875,167.14658608541666,68.0,92.0
1451,166.9783173875,167.16677832916668,44.0,102.0
1452,166.9783173875,167.17831675416667,59.0,84.0
1453,167.2090858875,167.43600824583334,32.0,105.0
1454,167.4398543875,167.58889237708334,63.0,94.0
1455,167.4398543875,167.60331540833334,59.0,94.0
1456,167.4398543875,167.61196922708334,68.0,94.0
1457,167.4398543875,167.62831532916667,44.0,97.0
1458,167.6706228875,167.87062225416668,32.0,82.0
1459,167.9013913875,168.080236975,63.0,80.0
1460,167.9013913875,168.08696772291668,44.0,100.0
1461,167.9013913875,168.09273693541667,59.0,69.0
1462,167.9013913875,168.09850614791668,68.0,87.0
1463,168.1321598875,168.32927464791666,32.0,100.0
1464,168.3629283875,168.5244663375,44.0,97.0
1465,168.3629283875,168.55715854166667,63.0,87.0
1466,168.3629283875,168.56100468333332,59.0,78.0
1467,168.3629283875,168.56965850208334,68.0,80.0
1468,168.59369688750002,168.79658086041667,32.0,89.0
1469,168.8244653875,168.9975417625,44.0,92.0
1470,168.8244653875,169.09946451666667,63.0,92.0
1471,168.8244653875,169.11773368958333,59.0,87.0
1472,168.8244653875,169.12350290208335,68.0,92.0
1473,169.0552338875,169.24946404166667,32.0,78.0
1474,169.2860023875,169.464847975,44.0,89.0
1475,169.2860023875,169.5398477375,63.0,94.0
1476,169.2860023875,169.54561695,59.0,89.0
1477,169.2860023875,169.55811691041666,68.0,94.0
1478,169.5167708875,169.72542407291667,32.0,84.0
1479,169.7475393875,169.93600032916666,44.0,97.0
1480,169.7475393875,169.95330796666667,68.0,94.0
1481,169.7475393875,169.97734635208334,59.0,80.0
1482,169.7475393875,169.97734635208334,63.0,89.0
1483,169.9783078875,170.17253804166666,32.0,87.0
1484,170.2090763875,170.40619114791667,44.0,89.0
1485,170.2090763875,170.46580634375,63.0,87.0
1486,170.2090763875,170.47542169791666,59.0,80.0
1487,170.2090763875,170.48696012291666,68.0,94.0
1488,170.43984488750002,170.66772878125,32.0,82.0
1489,170.6706133875,170.83888208541666,63.0,94.0
1490,170.6706133875,170.83888208541666,68.0,92.0
1491,170.6706133875,170.85907432916667,44.0,102.0
1492,170.6706133875,170.87061275416667,59.0,84.0
1493,170.9013818875,172.70906847083333,63.0,92.0
1494,170.9013818875,172.72349150208333,68.0,97.0
1495,170.9013818875,172.72349150208333,71.0,100.0
1496,170.9013818875,172.7475298875,32.0,105.0
1497,170.9013818875,172.7475298875,44.0,97.0
1498,172.7475298875,172.97156763958333,32.0,111.0
1499,172.7475298875,173.07925960625,56.0,97.0
1500,172.7475298875,173.087913425,59.0,102.0
1501,172.9782983875,173.19945153333333,44.0,108.0
1502,173.2090668875,173.43310463958335,32.0,102.0
1503,173.2090668875,173.46579684375,56.0,102.0
1504,173.2090668875,173.47252759166668,63.0,102.0
1505,173.2090668875,173.47829680416666,59.0,108.0
1506,173.4398353875,173.63118093541667,44.0,117.0
1507,173.6706038875,173.91002620625,32.0,100.0
1508,173.6706038875,173.92156463125,63.0,97.0
1509,173.6706038875,173.93694919791668,56.0,94.0
1510,173.6706038875,173.93694919791668,59.0,100.0
1511,173.9013723875,174.10714096666666,44.0,108.0
1512,174.0167566375,174.16867923333334,63.0,100.0
1513,174.0167566375,174.18694840625,59.0,108.0
1514,174.0167566375,174.19848683125,56.0,102.0
1515,174.13214088750001,174.30233265625,32.0,97.0
1516,174.3629093875,174.44656296875002,63.0,100.0
1517,174.3629093875,174.46387060625,59.0,102.0
1518,174.3629093875,174.48213977916666,56.0,105.0
1519,174.3629093875,174.51483198333332,44.0,111.0
1520,174.5936778875,174.86290780416667,40.0,102.0
1521,174.5936778875,174.95425366875,56.0,100.0
1522,174.5936778875,174.95809981041666,52.0,94.0
1523,174.8244463875,174.95809981041666,52.0,111.0
1524,175.0552148875,175.27636803333334,40.0,97.0
1525,175.0552148875,175.372521575,59.0,105.0
1526,175.0552148875,175.38117539375,56.0,111.0
1527,175.0552148875,175.38406,52.0,102.0
1528,175.2859833875,175.38406,52.0,114.0
1529,175.5167518875,175.74944345833333,40.0,100.0
1530,175.5167518875,175.75232806458334,59.0,105.0
1531,175.5167518875,175.764828025,56.0,114.0
1532,175.5167518875,175.77155877291668,52.0,105.0
1533,175.7475203875,175.77155877291668,52.0,111.0
1534,175.8629046375,175.95328896666666,52.0,97.0
1535,175.8629046375,175.9898273125,56.0,108.0
1536,175.8629046375,175.99367345416667,59.0,102.0
1537,175.9782888875,176.19078821458334,40.0,105.0
1538,176.2090573875,176.31386474791668,52.0,94.0
1539,176.2090573875,176.31386474791668,52.0,114.0
1540,176.2090573875,176.32540317291668,56.0,105.0
1541,176.2090573875,176.34078773958333,59.0,100.0
1542,176.4398258875,176.54751785416667,59.0,80.0
1543,176.4398258875,176.58309466458334,63.0,64.0
1544,176.4398258875,176.64270986041666,37.0,97.0
1545,176.4398258875,176.78982477916668,56.0,84.0
1546,176.4398258875,176.79559399166666,61.0,80.0
1547,176.4398258875,176.79559399166666,64.0,67.0
1548,176.6705943875,176.81674777083333,49.0,105.0
1549,176.9013628875,177.10616993125,37.0,100.0
1550,176.9013628875,177.11674682083333,61.0,111.0
1551,176.9013628875,177.17347741041667,64.0,108.0
1552,176.9013628875,177.17636201666667,56.0,114.0
1553,177.1321313875,177.30616929791668,49.0,108.0
1554,177.3628998875,177.59559145833333,42.0,82.0
1555,177.3628998875,177.61962984375,58.0,105.0
1556,177.3628998875,177.62636059166667,54.0,87.0
1557,177.5936683875,177.62636059166667,54.0,111.0
1558,177.3628998875,177.62636059166667,61.0,97.0
1559,177.7090526375,177.7667447625,54.0,87.0
1560,177.7090526375,177.85616755625,58.0,105.0
1561,177.7090526375,177.86193676875,61.0,94.0
1562,177.8244368875,177.97347487708333,42.0,102.0
1563,178.0552053875,178.17155117291668,54.0,78.0
1564,178.0552053875,178.17155117291668,54.0,114.0
1565,178.0552053875,178.18693573958333,58.0,94.0
1566,178.0552053875,178.19558955833332,61.0,87.0
1567,178.2859738875,178.49847321458333,35.0,100.0
1568,178.2859738875,178.61001132291668,63.0,92.0
1569,178.2859738875,178.61866514166667,54.0,84.0
1570,178.2859738875,178.62154974791667,59.0,94.0
1571,178.5167423875,178.65712655833335,47.0,102.0
1572,178.7475108875,178.95616407291666,35.0,89.0
1573,178.7475108875,179.076356,63.0,100.0
1574,178.7475108875,179.07924060625,54.0,105.0
1575,178.7475108875,179.0821252125,59.0,111.0
1576,178.9782793875,179.13693273125,47.0,97.0
1577,179.2090478875,179.43308563958334,35.0,87.0
1578,179.2090478875,179.46000863125,54.0,102.0
1579,179.2090478875,179.46385477291668,63.0,100.0
1580,179.2090478875,179.46866245,59.0,108.0
1581,179.4398163875,179.64270036041668,47.0,108.0
1582,179.5552006375,179.68020024166668,54.0,89.0
1583,179.5552006375,179.68693098958335,63.0,92.0
1584,179.5552006375,179.68981559583332,59.0,97.0
1585,179.6705848875,179.95423783541668,35.0,97.0
1586,179.9013533875,179.99943,54.0,97.0
1587,179.9013533875,180.01289149583334,59.0,102.0
1588,179.9013533875,180.02635299166667,63.0,97.0
1589,179.9013533875,180.03885295208335,47.0,108.0
1590,180.1321218875,180.3859672375,37.0,105.0
1591,180.36289038750002,180.460967,47.0,82.0
1592,180.1321218875,180.47923617291667,64.0,105.0
1593,180.36289038750002,180.48212077916668,49.0,89.0
1594,180.1321218875,180.48500538541666,56.0,89.0
1595,180.1321218875,180.48788999166666,61.0,100.0
1596,180.5936588875,180.81481203333334,37.0,100.0
1597,180.5936588875,180.92827321250002,61.0,100.0
1598,180.5936588875,180.92827321250002,64.0,100.0
1599,180.5936588875,180.934042425,56.0,94.0
1600,180.8244273875,180.99461915625,49.0,108.0
1601,181.0551958875,181.28788745833333,37.0,97.0
1602,181.0551958875,181.30807970208335,64.0,92.0
1603,181.0551958875,181.3090412375,56.0,100.0
1604,181.0551958875,181.31096430833333,61.0,97.0
1605,181.2859643875,181.48884836041668,49.0,105.0
1606,181.4013486375,181.557117375,64.0,94.0
1607,181.4013486375,181.5744250125,61.0,97.0
1608,181.4013486375,181.57730961875,56.0,102.0
1609,181.5167328875,181.77634745,37.0,100.0
1610,181.7475013875,181.89077016458333,64.0,82.0
1611,181.7475013875,181.89846244791667,61.0,89.0
1612,181.7475013875,181.90230858958333,49.0,108.0
1613,181.7475013875,181.91769315625,56.0,92.0
1614,181.9782698875,182.21769220625,39.0,102.0
1615,181.9782698875,182.33692259791667,58.0,94.0
1616,181.9782698875,182.33980720416668,63.0,97.0
1617,181.9782698875,182.33980720416668,66.0,94.0
1618,182.20903838750002,182.42442232083334,51.0,114.0
1619,182.4398068875,182.59846023125002,39.0,102.0
1620,182.4398068875,182.67538306458334,66.0,108.0
1621,182.4398068875,182.71192141041666,63.0,108.0
1622,182.4398068875,182.75038282708334,58.0,105.0
1623,182.6705753875,182.85615172291668,51.0,97.0
1624,182.9013438875,183.12826624583334,32.0,84.0
1625,182.9013438875,183.1551892375,56.0,94.0
1626,182.9013438875,183.16095845,59.0,100.0
1627,183.1321123875,183.31768872291667,44.0,114.0
1628,183.2474966375,183.39365002083335,63.0,97.0
1629,183.2474966375,183.46576517708334,59.0,102.0
1630,183.2474966375,183.46864978333335,56.0,97.0
1631,183.3628808875,183.587880175,32.0,105.0
1632,183.5936493875,183.71768745625,63.0,100.0
1633,183.5936493875,183.73884123541666,59.0,111.0
1634,183.5936493875,183.74845658958333,56.0,102.0
1635,183.5936493875,183.78211032916667,44.0,117.0
1636,183.8244178875,184.05422485208334,40.0,89.0
1637,184.05518638750002,184.20614744791666,52.0,102.0
1638,183.8244178875,184.21287819583333,56.0,92.0
1639,183.8244178875,184.21287819583333,59.0,97.0
1640,183.8244178875,184.22537815625,64.0,97.0
1641,184.2859548875,184.49845421458335,40.0,78.0
1642,184.2859548875,184.64172299166668,64.0,105.0
1643,184.2859548875,184.65326141666668,56.0,105.0
1644,184.2859548875,184.65710755833334,59.0,111.0
1645,184.5167233875,184.6897997625,52.0,80.0
1646,184.7474918875,184.95037586041667,40.0,78.0
1647,184.7474918875,185.01672180416668,64.0,102.0
1648,184.7474918875,185.01768333958333,59.0,105.0
1649,184.7474918875,185.02345255208334,56.0,102.0
1650,184.9782603875,185.1397983375,52.0,102.0
1651,185.0936446375,185.28787479166667,59.0,94.0
1652,185.0936446375,185.29075939791667,64.0,102.0
1653,185.0936446375,185.29364400416668,56.0,100.0
1654,185.2090288875,185.40902825416666,40.0,87.0
1655,185.4397973875,185.56768159791667,56.0,100.0
1656,185.4397973875,185.59460458958333,64.0,89.0
1657,185.4397973875,185.59845073125,59.0,97.0
1658,185.4397973875,185.60421994375,52.0,97.0
1659,185.6705658875,185.85902682916668,39.0,45.0
1660,185.6705658875,186.010949425,58.0,102.0
1661,185.6705658875,186.01768017291667,63.0,100.0
1662,185.90133438750001,186.07152615625,51.0,105.0
1663,186.1321028875,186.33594839583333,39.0,82.0
1664,186.1321028875,186.49652481041667,63.0,105.0
1665,186.1321028875,186.50614016458334,58.0,108.0
1666,186.3628713875,186.53690929791668,51.0,102.0
1667,186.5936398875,186.80613921458334,39.0,92.0
1668,186.5936398875,186.85325445,63.0,111.0
1669,186.5936398875,186.86094673333335,58.0,105.0
1670,186.8244083875,187.03306157291667,51.0,100.0
1671,186.9397926375,187.14652275208334,58.0,97.0
1672,186.9397926375,187.16383038958332,63.0,94.0
1673,187.0551768875,187.32440680416667,39.0,97.0
1674,187.2859453875,187.45036794375,51.0,102.0
1675,187.2859453875,187.47440632916667,63.0,102.0
1676,187.2859453875,187.48306014791666,58.0,102.0
1677,187.5167138875,187.74075163958332,32.0,111.0
1678,187.5167138875,187.84844360625002,56.0,97.0
1679,187.5167138875,187.857097425,59.0,102.0
1680,187.7474823875,187.96863553333333,44.0,108.0
1681,187.9782508875,188.20228863958334,32.0,102.0
1682,187.9782508875,188.23498084375,56.0,102.0
1683,187.9782508875,188.24171159166667,63.0,102.0
1684,187.9782508875,188.24748080416666,59.0,108.0
1685,188.2090193875,188.40036493541666,44.0,117.0
1686,188.4397878875,188.67921020625,32.0,100.0
1687,188.4397878875,188.69074863125,63.0,97.0
1688,188.4397878875,188.70613319791667,56.0,94.0
1689,188.4397878875,188.70613319791667,59.0,100.0
1690,188.6705563875,188.87632496666666,44.0,108.0
1691,188.7859406375,188.93786323333333,63.0,100.0
1692,188.7859406375,188.95613240625,59.0,108.0
1693,188.7859406375,188.96767083125,56.0,102.0
1694,188.9013248875,189.07151665625,32.0,97.0
1695,189.1320933875,189.21574696875,63.0,100.0
1696,189.1320933875,189.23305460625,59.0,102.0
1697,189.1320933875,189.25132377916668,56.0,105.0
1698,189.1320933875,189.28401598333335,44.0,111.0
1699,189.3628618875,189.63209180416666,40.0,102.0
1700,189.3628618875,189.72343766875,56.0,100.0
1701,189.3628618875,189.72728381041668,52.0,94.0
1702,189.5936303875,189.72728381041668,52.0,111.0
1703,189.8243988875,190.04555203333334,40.0,97.0
1704,189.8243988875,190.141705575,59.0,105.0
1705,189.8243988875,190.15035939375,56.0,111.0
1706,189.8243988875,190.153244,52.0,102.0
1707,190.0551673875,190.153244,52.0,114.0
1708,190.2859358875,190.51862745833333,40.0,100.0
1709,190.2859358875,190.52151206458333,59.0,105.0
1710,190.2859358875,190.534012025,56.0,114.0
1711,190.2859358875,190.54074277291667,52.0,105.0
1712,190.5167043875,190.54074277291667,52.0,111.0
1713,190.6320886375,190.72247296666666,52.0,97.0
1714,190.6320886375,190.7590113125,56.0,108.0
1715,190.6320886375,190.76285745416666,59.0,102.0
1716,190.7474728875,190.95997221458333,40.0,105.0
1717,190.9782413875,191.08304874791668,52.0,94.0
1718,190.9782413875,191.08304874791668,52.0,114.0
1719,190.9782413875,191.09458717291668,56.0,105.0
1720,190.9782413875,191.10997173958333,59.0,100.0
1721,191.2090098875,191.31670185416667,59.0,80.0
1722,191.2090098875,191.35227866458334,63.0,64.0
1723,191.2090098875,191.41189386041668,37.0,97.0
1724,191.2090098875,191.55900877916667,56.0,84.0
1725,191.2090098875,191.56477799166666,61.0,80.0
1726,191.2090098875,191.56477799166666,64.0,67.0
1727,191.4397783875,191.58593177083333,49.0,105.0
1728,191.6705468875,191.87535393125,37.0,100.0
1729,191.6705468875,191.88593082083332,61.0,111.0
1730,191.6705468875,191.94266141041666,64.0,108.0
1731,191.6705468875,191.94554601666667,56.0,114.0
1732,191.9013153875,192.07535329791668,49.0,108.0
1733,192.13208388750002,192.36477545833333,42.0,82.0
1734,192.13208388750002,192.38881384375,58.0,105.0
1735,192.13208388750002,192.39554459166666,54.0,87.0
1736,192.3628523875,192.39554459166666,54.0,111.0
1737,192.13208388750002,192.39554459166666,61.0,97.0
1738,192.4782366375,192.5359287625,54.0,87.0
1739,192.4782366375,192.62535155625,58.0,105.0
1740,192.4782366375,192.63112076875,61.0,94.0
1741,192.5936208875,192.74265887708333,42.0,102.0
1742,192.8243893875,192.94073517291667,54.0,78.0
1743,192.8243893875,192.94073517291667,54.0,114.0
1744,192.8243893875,192.95611973958333,58.0,94.0
1745,192.8243893875,192.96477355833335,61.0,87.0
1746,193.0551578875,193.26765721458332,35.0,100.0
1747,193.0551578875,193.37919532291667,63.0,92.0
1748,193.0551578875,193.38784914166666,54.0,84.0
1749,193.0551578875,193.39073374791667,59.0,94.0
1750,193.2859263875,193.42631055833334,47.0,102.0
1751,193.5166948875,193.72534807291666,35.0,89.0
1752,193.5166948875,193.84554,63.0,100.0
1753,193.5166948875,193.84842460625,54.0,105.0
1754,193.5166948875,193.8513092125,59.0,111.0
1755,193.7474633875,193.90611673125,47.0,97.0
1756,193.97823188750002,194.20226963958333,35.0,87.0
1757,193.97823188750002,194.22919263125002,54.0,102.0
1758,193.97823188750002,194.23303877291667,63.0,100.0
1759,193.97823188750002,194.23784645,59.0,108.0
1760,194.2090003875,194.41188436041668,47.0,108.0
1761,194.3243846375,194.44938424166668,54.0,89.0
1762,194.3243846375,194.45611498958334,63.0,92.0
1763,194.3243846375,194.45899959583335,59.0,97.0
1764,194.4397688875,194.72342183541667,35.0,97.0
1765,194.6705373875,194.768614,54.0,97.0
1766,194.6705373875,194.78207549583334,59.0,102.0
1767,194.6705373875,194.79553699166667,63.0,97.0
1768,194.6705373875,194.80803695208334,47.0,108.0
1769,194.9013058875,195.1551512375,37.0,105.0
1770,195.1320743875,195.230151,47.0,82.0
1771,194.9013058875,195.24842017291667,64.0,105.0
1772,195.1320743875,195.25130477916667,49.0,89.0
1773,194.9013058875,195.25418938541668,56.0,89.0
1774,194.9013058875,195.25707399166666,61.0,100.0
1775,195.3628428875,195.58399603333334,37.0,100.0
1776,195.3628428875,195.6974572125,61.0,100.0
1777,195.3628428875,195.6974572125,64.0,100.0
1778,195.3628428875,195.703226425,56.0,94.0
1779,195.5936113875,195.76380315625,49.0,108.0
1780,195.82437988750002,196.05707145833333,37.0,97.0
1781,195.82437988750002,196.07726370208334,64.0,92.0
1782,195.82437988750002,196.0782252375,56.0,100.0
1783,195.82437988750002,196.08014830833335,61.0,97.0
1784,196.0551483875,196.25803236041668,49.0,105.0
1785,196.1705326375,196.326301375,64.0,94.0
1786,196.1705326375,196.3436090125,61.0,97.0
1787,196.1705326375,196.34649361875,56.0,102.0
1788,196.2859168875,196.54553145,37.0,100.0
1789,196.5166853875,196.65995416458333,64.0,82.0
1790,196.5166853875,196.66764644791667,61.0,89.0
1791,196.5166853875,196.67149258958332,49.0,108.0
1792,196.5166853875,196.68687715625,56.0,92.0
1793,196.7474538875,196.98687620625,39.0,102.0
1794,196.7474538875,197.10610659791666,58.0,94.0
1795,196.7474538875,197.10899120416667,63.0,97.0
1796,196.7474538875,197.10899120416667,66.0,94.0
1797,196.9782223875,197.19360632083334,51.0,114.0
1798,197.2089908875,197.36764423125,39.0,102.0
1799,197.2089908875,197.44456706458334,66.0,108.0
1800,197.2089908875,197.48110541041666,63.0,108.0
1801,197.2089908875,197.51956682708334,58.0,105.0
1802,197.4397593875,197.62533572291667,51.0,97.0
1803,197.67052788750001,197.89745024583334,32.0,84.0
1804,197.67052788750001,197.9243732375,56.0,94.0
1805,197.67052788750001,197.93014245,59.0,100.0
1806,197.9012963875,198.08687272291667,44.0,114.0
1807,198.0166806375,198.16283402083334,63.0,97.0
1808,198.0166806375,198.23494917708334,59.0,102.0
1809,198.0166806375,198.23783378333334,56.0,97.0
1810,198.1320648875,198.357064175,32.0,105.0
1811,198.3628333875,198.48687145625001,63.0,100.0
1812,198.3628333875,198.50802523541668,59.0,111.0
1813,198.3628333875,198.51764058958332,56.0,102.0
1814,198.3628333875,198.55129432916667,44.0,117.0
1815,198.5936018875,198.82340885208333,40.0,89.0
1816,198.8243703875,198.97533144791666,52.0,102.0
1817,198.5936018875,198.98206219583332,56.0,92.0
1818,198.5936018875,198.98206219583332,59.0,97.0
1819,198.5936018875,198.99456215625,64.0,97.0
1820,199.0551388875,199.26763821458334,40.0,78.0
1821,199.0551388875,199.41090699166668,64.0,105.0
1822,199.0551388875,199.42244541666668,56.0,105.0
1823,199.0551388875,199.42629155833333,59.0,111.0
1824,199.2859073875,199.4589837625,52.0,80.0
1825,199.5166758875,199.71955986041667,40.0,78.0
1826,199.5166758875,199.78590580416667,64.0,102.0
1827,199.5166758875,199.78686733958332,59.0,105.0
1828,199.5166758875,199.79263655208334,56.0,102.0
1829,199.7474443875,199.9089823375,52.0,102.0
1830,199.8628286375,200.05705879166666,59.0,94.0
1831,199.8628286375,200.05994339791667,64.0,102.0
1832,199.8628286375,200.06282800416668,56.0,100.0
1833,199.9782128875,200.17821225416668,40.0,87.0
1834,200.2089813875,200.33686559791667,56.0,100.0
1835,200.2089813875,200.36378858958332,64.0,89.0
1836,200.2089813875,200.36763473125,59.0,97.0
1837,200.2089813875,200.37340394375,52.0,97.0
1838,200.4397498875,200.62821082916668,39.0,45.0
1839,200.4397498875,200.780133425,58.0,102.0
1840,200.4397498875,200.78686417291667,63.0,100.0
1841,200.6705183875,200.84071015625,51.0,105.0
1842,200.9012868875,201.10513239583332,39.0,82.0
1843,200.9012868875,201.26570881041667,63.0,105.0
1844,200.9012868875,201.27532416458334,58.0,108.0
1845,201.1320553875,201.30609329791668,51.0,102.0
1846,201.3628238875,201.62532305625,44.0,97.0
1847,201.3628238875,201.63782301666666,59.0,94.0
1848,201.3628238875,201.63782301666666,63.0,108.0
1849,201.3628238875,201.64936144166666,68.0,97.0
1850,201.5935923875,201.90609139791667,56.0,92.0
1851,201.7089766375,201.91474521666666,68.0,105.0
1852,201.7089766375,201.92147596458332,59.0,87.0
1853,201.7089766375,201.93012978333334,63.0,97.0
1854,201.8243608875,202.17147517291667,44.0,89.0
1855,202.05512938750002,202.21378273125,68.0,97.0
1856,202.05512938750002,202.2166673375,63.0,97.0
1857,202.05512938750002,202.21955194375,59.0,89.0
1858,202.05512938750002,202.22532115625,56.0,111.0
1859,202.2858978875,202.51570485208333,40.0,89.0
1860,202.5166663875,202.66762744791666,52.0,102.0
1861,202.2858978875,202.67435819583335,56.0,92.0
1862,202.2858978875,202.67435819583335,59.0,97.0
1863,202.2858978875,202.68685815625,64.0,97.0
1864,202.7474348875,202.95993421458334,40.0,78.0
1865,202.7474348875,203.10320299166668,64.0,105.0
1866,202.7474348875,203.11474141666667,56.0,105.0
1867,202.7474348875,203.11858755833333,59.0,111.0
1868,202.9782033875,203.1512797625,52.0,80.0
1869,203.2089718875,203.41185586041667,40.0,78.0
1870,203.2089718875,203.47820180416667,64.0,102.0
1871,203.2089718875,203.47916333958332,59.0,105.0
1872,203.2089718875,203.48493255208334,56.0,102.0
1873,203.4397403875,203.6012783375,52.0,102.0
1874,203.5551246375,203.74935479166666,59.0,94.0
1875,203.5551246375,203.75223939791667,64.0,102.0
1876,203.5551246375,203.75512400416667,56.0,100.0
1877,203.6705088875,203.87050825416668,40.0,87.0
1878,203.90127738750002,204.02916159791667,56.0,100.0
1879,203.90127738750002,204.05608458958335,64.0,89.0
1880,203.90127738750002,204.05993073125,59.0,97.0
1881,203.90127738750002,204.06569994375,52.0,97.0
1882,204.1320458875,204.24550706666668,51.0,100.0
1883,204.1320458875,204.27819927083334,39.0,102.0
1884,204.1320458875,204.29935305,63.0,94.0
1885,204.3628143875,204.46762174791667,54.0,87.0
1886,204.3628143875,204.47916017291666,42.0,114.0
1887,204.3628143875,204.49069859791666,66.0,105.0
1888,204.5935828875,204.6858902875,59.0,120.0
1889,204.5935828875,204.70127485416666,47.0,100.0
1890,204.5935828875,204.78492843541667,71.0,111.0
1891,204.8243513875,204.90223575625,56.0,123.0
1892,204.8243513875,204.910889575,44.0,114.0
1893,204.8243513875,204.95319713333333,68.0,76.0
1894,205.0551198875,206.08396278333333,56.0,120.0
1895,205.0551198875,206.09646274375,68.0,100.0
1896,205.0551198875,206.91376784791666,44.0,114.0
