,start,end,pitch,velocity
0,25.478686387499998,25.842322654166665,61.0,92.0
1,25.819595387499998,26.09658395,63.0,92.0
2,26.160504387499998,26.856526929166666,65.0,90.0
3,27.183231387499998,27.433231320833332,68.0,90.0
4,27.524140387499997,27.8224357625,65.0,90.0
5,27.865049387499997,28.105106141666667,63.0,90.0
6,28.205958387499997,28.51987875833333,61.0,90.0
7,28.546867387499997,28.946015008333333,56.0,90.0
8,28.887776387499997,30.316753279166665,58.0,90.0
9,30.9332303875,31.318173466666664,61.0,90.0
10,31.2741393875,31.566752945833333,63.0,90.0
11,31.6150483875,32.26845730416667,65.0,90.0
12,32.296866387499996,32.6462981125,65.0,90.0
13,32.6377753875,32.886354866666665,68.0,90.0
14,32.978684387499996,33.1747070625,65.0,90.0
15,33.3195933875,33.47442289166666,63.0,90.0
16,33.660502387499996,33.8480023375,63.0,90.0
17,34.0014113875,34.30964994166666,61.0,90.0
18,34.342320387499996,35.3820928375,63.0,90.0
19,36.387774387499995,36.69885385,65.0,90.0
20,36.7286833875,37.102262833333334,63.0,90.0
21,37.0695923875,37.7087967625,61.0,90.0
22,37.7514103875,38.120728470833335,63.0,90.0
23,38.0923193875,38.4161829375,61.0,90.0
24,38.4332283875,38.94175097916666,58.0,90.0
25,39.1150463875,39.44885311666666,58.0,90.0
26,39.4559553875,39.79402347916667,56.0,90.0
27,39.7968643875,40.147716566666666,65.0,90.0
28,40.1377733875,40.46447784583333,68.0,90.0
29,40.4786823875,40.82101184166667,70.0,90.0
30,40.8195913875,41.18038674583333,68.0,90.0
31,41.1605003875,41.52413665416667,65.0,90.0
32,41.8423183875,42.19885238333333,58.0,90.0
33,42.1832273875,42.558227287499996,65.0,90.0
34,42.5241363875,42.975840812499996,63.0,90.0
35,43.2059543875,43.515613395833334,63.0,90.0
36,43.5468633875,43.8962951125,61.0,90.0
37,43.8877723875,44.45737450833333,58.0,90.0
38,44.5695903875,44.83237440833333,61.0,90.0
39,44.910499387499996,45.2599311125,65.0,90.0
40,45.2514083875,46.65623755833333,63.0,90.0
41,47.2968623875,47.63493047916666,61.0,90.0
42,47.637771387499996,47.975839479166666,63.0,90.0
43,47.9786803875,48.49714615833333,65.0,90.0
44,48.6604983875,48.9843619375,65.0,90.0
45,49.001407387499995,49.24323078541667,68.0,90.0
46,49.34288905625,49.688845625,65.0,90.0
47,49.68457455625,50.054733847916665,63.0,90.0
48,50.02626005625,50.36509817708333,61.0,90.0
49,50.36794555625,50.71817319375,56.0,90.0
50,50.709631056250004,51.9525120625,58.0,90.0
51,52.75974405625,53.09858217708333,61.0,90.0
52,53.10142955625,53.416064954166664,63.0,90.0
53,53.44311505625,53.83747707083333,65.0,90.0
54,54.12648605625,54.46105310833333,65.0,90.0
55,54.46817155625,54.77568850625,68.0,90.0
56,54.80985705625,55.1472714875,65.0,90.0
57,55.15154255625,55.49038067708334,63.0,90.0
58,55.49322805625,55.816405591666665,63.0,90.0
59,55.83491355625,56.215038675,61.0,90.0
60,56.17659905625,57.524833091666665,63.0,90.0
61,58.22671205625,58.491518318749996,63.0,90.0
62,58.56839755625,58.887304022916666,65.0,90.0
63,58.91008305625,59.41976392708333,61.0,90.0
64,59.593454056249996,59.95364752083333,63.0,90.0
65,59.93513955625,60.27397767708333,61.0,90.0
66,60.27682505625,60.675458139583334,58.0,90.0
67,60.96019605625,61.25347611041666,58.0,90.0
68,61.301881556249995,61.64071967708333,56.0,90.0
69,61.64356705625,61.969591970833335,65.0,90.0
70,61.98525255625,62.28137998958333,68.0,90.0
71,62.32693805625,62.655810349999996,70.0,90.0
72,62.66862355625,62.9889537125,68.0,90.0
73,63.01030905625,63.558429545833334,65.0,90.0
74,63.69368005625,64.13075275833333,58.0,90.0
75,64.03536555625,64.43684601875,65.0,90.0
76,64.37705105625,64.88673192708333,63.0,90.0
77,65.06042205625,65.41064969375,63.0,90.0
78,65.40210755625,65.76372471041667,61.0,90.0
79,65.74379305625,65.91178842708334,58.0,90.0
80,66.08547855625,66.42431667708334,58.0,90.0
81,66.42716405625,66.75176528125,56.0,90.0
82,66.76884955625,67.06782436875,58.0,90.0
83,67.11053505625,68.46161647083333,61.0,90.0
84,69.16064805625,69.52084152083333,65.0,90.0
85,69.50233355625,69.86110333124999,68.0,90.0
86,69.84401905625,70.03052239166666,70.0,90.0
87,70.18570455625,70.39783430416666,70.0,90.0
88,70.52739005625,70.77226466458333,70.0,90.0
89,70.86907555625,71.14384764583333,68.0,90.0
90,71.21076105624999,71.64498637916667,70.0,90.0
91,71.89413205625,72.22300435,70.0,90.0
92,72.23581755625,72.53763974791667,65.0,90.0
93,72.57750305625,72.78393804583334,68.0,90.0
94,72.91918855624999,73.19965540416666,68.0,90.0
95,73.26087405625,73.57408576458333,70.0,90.0
96,73.60255955625,73.95136350416666,68.0,90.0
97,73.94424505625,74.65608984791666,65.0,90.0
98,74.62761605624999,74.65608984791666,65.0,90.0
99,74.96930155625,75.32807133125,68.0,90.0
100,75.31098705625,75.49749039166666,70.0,90.0
101,75.65267255625,75.86480230416666,70.0,90.0
102,75.99435805625,76.23923266458333,70.0,90.0
103,76.33604355624999,76.61081564583333,68.0,90.0
104,76.67772905625,77.11195437916666,70.0,90.0
105,77.36110005625,77.68997235,70.0,90.0
106,77.70278555624999,78.00460774791667,65.0,90.0
107,78.04447105624999,79.35284178333333,68.0,90.0
108,80.09458405625,80.45477752083333,65.0,90.0
109,80.43626955625,80.79503933125,68.0,90.0
110,80.77795505625,80.96445839166667,70.0,90.0
111,81.11964055625,81.33177030416667,70.0,90.0
112,81.46132605624999,81.70620066458332,70.0,90.0
113,81.80301155625,82.07778364583334,68.0,90.0
114,82.14469705625,82.57892237916667,70.0,90.0
115,82.82806805625,83.15694035,70.0,90.0
116,83.16975355624999,83.47157574791666,65.0,90.0
117,83.51143905625,84.14640461041665,68.0,90.0
118,84.19481005624999,84.50802176458333,70.0,90.0
119,84.53649555625,84.88529950416665,68.0,90.0
120,84.87818105624999,85.48609650833333,65.0,90.0
121,85.56155205625,85.87049269583332,58.0,90.0
122,85.90323755624999,86.17800964583333,65.0,90.0
123,86.24492305625,86.64213244999999,63.0,90.0
124,86.92829405625,87.28564014166666,63.0,90.0
125,87.26997955625,87.62732564166666,61.0,90.0
126,87.61166505624999,87.81098159791667,58.0,90.0
127,87.95335055625,88.14697233958333,58.0,90.0
128,88.29503605625,88.51143687291666,56.0,90.0
129,88.63672155625,88.83746178749999,58.0,90.0
130,88.97840705624999,90.349420125,58.0,90.0
131,91.02852005624999,91.39298458958334,61.0,90.0
132,91.37020555625,91.647825025,63.0,90.0
133,91.71189105625,92.40949895208333,65.0,90.0
134,92.73694755624999,92.98751692291665,68.0,90.0
135,93.07863305625,93.37760786875,65.0,90.0
136,93.42031855625,93.66092209583333,63.0,90.0
137,93.76200405624999,94.07663945416667,61.0,90.0
138,94.10368955625,94.50374632916666,56.0,90.0
139,94.44537505624999,95.87760677708333,58.0,90.0
140,96.49548805625,96.88130793333332,61.0,90.0
141,96.83717355625,97.13045361041665,63.0,90.0
142,97.17885905624999,97.83375626458333,65.0,90.0
143,97.86223005624998,98.21245769375,65.0,90.0
144,98.20391555625,98.45306123333333,68.0,90.0
145,98.54560105624999,98.74207021875,65.0,90.0
146,98.88728655624999,99.04246872083333,63.0,90.0
147,99.22897205625,99.41689908125,63.0,90.0
148,99.57065755624998,99.87959819583332,61.0,90.0
149,99.91234305625,100.95448383125,63.0,90.0
150,101.96245605624999,102.27424407499998,65.0,90.0
151,102.30414155624999,102.67857191666667,63.0,90.0
152,102.64582705625,103.28648736874999,61.0,90.0
153,103.32919805625,103.69935734791666,63.0,90.0
154,103.67088355624999,103.99548478124998,61.0,90.0
155,104.01256905624999,104.52224992708332,58.0,90.0
156,104.69594005625,105.03050710833332,58.0,90.0
157,105.03762555624999,105.37646367708334,56.0,90.0
158,105.37931105625,105.73096238333332,65.0,90.0
159,105.72099655624999,106.04844516041666,68.0,90.0
160,106.06268205625,106.40579124583333,70.0,90.0
161,106.40436755625,106.76598471041666,68.0,90.0
162,106.74605305624999,107.11051758958332,65.0,90.0
163,107.42942405624999,107.78677014166666,58.0,90.0
164,107.77110955625,108.14696360624998,65.0,90.0
165,108.11279505625,108.56552834375,63.0,90.0
166,108.79616605625,109.10653038541666,63.0,90.0
167,109.13785155624998,109.48807919375,61.0,90.0
168,109.47953705625,109.722987975,58.0,90.0
169,109.82834100416666,110.13016319583332,58.0,90.0
170,110.16290805624999,110.42629062916666,56.0,90.0
171,110.50459355625,110.77936564583332,58.0,90.0
172,110.84627905624998,112.01797558333332,58.0,90.0
173,134.76426405625,135.12872858958332,61.0,90.0
174,135.10594955624998,135.38356902499999,63.0,90.0
175,135.44763505625,136.14524295208332,65.0,90.0
176,136.47269155624997,136.72326092291667,68.0,90.0
177,136.81437705625,137.11335186875,65.0,90.0
178,137.15606255625,137.39666609583333,63.0,90.0
179,137.49774805624997,137.81238345416665,61.0,90.0
180,137.83943355625,138.23949032916664,56.0,90.0
181,138.18111905625,139.61335077708333,58.0,90.0
182,140.23123205625,140.61705193333333,61.0,90.0
183,140.57291755625,140.86619761041663,63.0,90.0
184,140.91460305624997,141.56950026458333,65.0,90.0
185,141.59797405625,141.94820169374998,65.0,90.0
186,141.93965955624998,142.1888052333333,68.0,90.0
187,142.28134505625,142.47781421874998,65.0,90.0
188,142.62303055625,142.77821272083332,63.0,90.0
189,142.96471605624998,143.15264308125,63.0,90.0
190,143.30640155625,143.6153421958333,61.0,90.0
191,143.64808705625,144.69022783124998,63.0,90.0
192,145.69820005625,146.00998807499997,65.0,90.0
193,146.03988555625,146.41431591666665,63.0,90.0
194,146.38157105624998,147.02223136875,61.0,90.0
195,147.06494205625,147.43510134791666,63.0,90.0
196,147.40662755625,147.73122878124997,61.0,90.0
197,147.74831305624997,148.2579939270833,58.0,90.0
198,148.43168405625,148.76625110833334,58.0,90.0
199,148.77336955624997,149.11220767708332,56.0,90.0
200,149.11505505625,149.4667063833333,65.0,90.0
201,149.45674055625,149.78418916041664,68.0,90.0
202,149.79842605624998,150.14153524583332,70.0,90.0
203,150.14011155625,150.50172871041667,68.0,90.0
204,150.48179705625,150.84626158958332,65.0,90.0
205,151.16516805624997,151.52251414166665,58.0,90.0
206,151.50685355625,151.88270760625,65.0,90.0
207,151.84853905625,152.30127234375,63.0,90.0
208,152.53191005624998,152.84227438541666,63.0,90.0
209,152.87359555625,153.22382319374998,61.0,90.0
210,153.21528105624998,153.78618057916665,58.0,90.0
211,153.89865205625,154.16203462916667,56.0,90.0
212,154.24033755624998,154.56209140208333,58.0,90.0
213,154.58202305624997,155.91317281666664,58.0,90.0
214,156.63213605624998,156.99232952083332,65.0,90.0
215,156.97382155625,157.33259133125,68.0,90.0
216,157.31550705625,157.50201039166666,70.0,90.0
217,157.65719255624998,157.86932230416664,70.0,90.0
218,157.99887805625,158.24375266458333,70.0,90.0
219,158.34056355625,158.61533564583334,68.0,90.0
220,158.68224905625,159.11647437916665,70.0,90.0
221,159.36562005624998,159.69449235,70.0,90.0
222,159.70730555625,160.00912774791664,65.0,90.0
223,160.04899105624997,160.2554260458333,68.0,90.0
224,160.39067655624999,160.67114340416666,68.0,90.0
225,160.73236205625,161.0455737645833,70.0,90.0
226,161.07404755624998,161.42285150416666,68.0,90.0
227,161.41573305625,162.12757784791665,65.0,90.0
228,162.09910405624998,162.12757784791665,65.0,90.0
229,162.44078955624997,162.79955933124998,68.0,90.0
230,162.78247505624998,162.96897839166667,70.0,90.0
231,163.12416055625,163.33629030416665,70.0,90.0
232,163.46584605624997,163.71072066458333,70.0,90.0
233,163.80753155624998,164.08230364583332,68.0,90.0
234,164.14921705625,164.58344237916666,70.0,90.0
235,164.83258805625,165.16146034999997,70.0,90.0
236,165.17427355625,165.47609574791664,65.0,90.0
237,165.51595905624998,166.82432978333333,68.0,90.0
238,167.56607205625,167.9262655208333,65.0,90.0
239,167.90775755624998,168.26652733125,68.0,90.0
240,168.24944305625,168.43594639166665,70.0,90.0
241,168.59112855625,168.80325830416666,70.0,90.0
242,168.93281405624998,169.17768866458331,70.0,92.0
243,169.27449955624996,169.5492716458333,68.0,87.0
244,169.61618505625,170.05041037916664,70.0,87.0
245,170.29955605624997,170.62842834999998,70.0,87.0
246,170.64124155624998,170.94306374791665,65.0,87.0
247,170.98292705625,171.61789261041665,68.0,87.0
248,171.66629805624999,171.97950976458333,70.0,87.0
249,172.00798355625,172.35678750416665,68.0,87.0
250,172.34966905624998,172.9575845083333,65.0,87.0
251,173.03304005625,173.3419806958333,58.0,87.0
252,173.37472555624998,173.64949764583332,65.0,87.0
253,173.71641105624997,174.11362044999998,63.0,87.0
254,174.39978205625,174.75712814166667,63.0,87.0
255,174.74146755624997,175.09881364166665,61.0,87.0
256,175.08315305624998,175.28246959791664,58.0,87.0
257,175.42483855625,175.61846033958332,58.0,87.0
258,175.76652405624998,175.98292487291667,56.0,87.0
259,176.10820955625,176.30894978749998,58.0,87.0
260,176.44989505625,177.82090812499996,58.0,87.0
261,178.50000805625,178.83884617708333,61.0,87.0
262,178.84169355625,179.1805316770833,63.0,87.0
263,179.18337905624998,179.70302575416667,65.0,87.0
264,179.86675005625,180.19135128124998,65.0,87.0
265,180.20843555624998,180.45046278541668,68.0,87.0
266,180.55012105624996,180.89607762499998,65.0,87.0
267,180.89180655625,181.26196584791666,63.0,87.0
268,181.23349205625,181.5723301770833,61.0,87.0
269,181.57517755624997,181.92540519375,56.0,87.0
270,181.91686305625,183.1597440625,58.0,87.0
271,183.96697605624996,184.30581417708333,61.0,87.0
272,184.30866155625,184.62329695416668,63.0,87.0
273,184.65034705624998,185.04470907083333,65.0,87.0
274,185.33371805625,185.6682851083333,65.0,87.0
275,185.67540355625,185.98292050624997,68.0,87.0
276,186.01708905624997,186.35450348749998,65.0,87.0
277,186.35877455624995,186.69761267708333,63.0,87.0
278,186.70046005625,187.02363759166667,63.0,87.0
279,187.04214555624998,187.422270675,61.0,87.0
280,187.38383105624996,188.73206509166664,63.0,87.0
281,189.43394405624997,189.69875031875,63.0,87.0
282,189.77562955625,190.09453602291666,65.0,87.0
283,190.11731505625,190.62699592708333,61.0,87.0
284,190.80068605624996,191.1608795208333,63.0,87.0
285,191.14237155625,191.4812096770833,61.0,87.0
286,191.48405705624998,191.8826901395833,58.0,87.0
287,192.16742805625,192.46070811041665,58.0,87.0
288,192.50911355624999,192.8479516770833,56.0,87.0
289,192.85079905624997,193.1768239708333,65.0,87.0
290,193.19248455625,193.48861198958332,68.0,87.0
291,193.53417005625,193.86304235,70.0,87.0
292,193.87585555624997,194.19618571249998,68.0,87.0
293,194.21754105624996,194.76566154583332,65.0,87.0
294,194.90091205624998,195.33798475833333,58.0,87.0
295,195.24259755624996,195.64407801875,65.0,87.0
296,195.58428305625,196.09396392708334,63.0,87.0
297,196.26765405624997,196.61788169375,63.0,87.0
298,196.60933955625,196.97095671041666,61.0,87.0
299,196.95102505625,197.11902042708334,58.0,87.0
300,197.29271055624997,197.6315486770833,58.0,87.0
301,197.63439605624995,197.95899728125,56.0,87.0
302,197.97608155625,198.27505636874997,58.0,87.0
303,198.31776705624998,199.66884847083332,61.0,87.0
304,200.36788005625,200.72807352083333,65.0,87.0
305,200.70956555624997,201.06833533124995,68.0,87.0
306,201.05125105624995,201.23775439166667,70.0,87.0
307,201.39293655625,201.60506630416666,70.0,87.0
308,201.73462205624998,201.97949666458334,70.0,87.0
309,202.07630755624996,202.3510796458333,68.0,87.0
310,202.41799305625,202.85221837916663,70.0,85.0
311,203.10136405624996,203.43023634999997,70.0,85.0
312,203.44304955625,203.74487174791665,65.0,85.0
313,203.78473505624999,203.99117004583331,68.0,85.0
314,204.12642055624997,204.40688740416664,68.0,85.0
315,204.46810605625,204.78131776458332,70.0,87.0
316,204.80979155625,205.15859550416667,68.0,87.0
317,205.15147705624997,205.86332184791667,65.0,87.0
318,205.83484805625,205.86332184791667,65.0,87.0
319,206.17653355624998,206.53530333124996,68.0,87.0
320,206.51821905624996,206.70472239166662,70.0,87.0
321,206.85990455625,207.07203430416666,70.0,87.0
322,207.20159005624998,207.4464646645833,70.0,87.0
323,207.54327555624997,207.8180476458333,68.0,87.0
324,207.88496105625,208.31918637916664,70.0,87.0
325,208.56833205624997,208.89720434999998,70.0,87.0
326,208.91001755624995,209.21183974791666,65.0,87.0
327,209.25170305625,210.56007378333334,68.0,87.0
328,211.30181605625,211.6620095208333,65.0,87.0
329,211.64350155625,212.00227133124997,68.0,87.0
330,211.98518705624997,212.17169039166663,70.0,87.0
331,212.32687255624995,212.53900230416667,70.0,87.0
332,212.66855805625,212.9134326645833,70.0,87.0
333,213.01024355624997,213.2850156458333,68.0,87.0
334,213.35192905624996,213.78615437916665,70.0,87.0
335,214.03530005624998,214.36417235,70.0,87.0
336,214.37698555624996,214.67880774791666,65.0,87.0
337,214.71867105625,215.35363661041663,68.0,87.0
338,215.40204205624997,215.71525376458334,70.0,90.0
339,215.74372755624995,216.09253150416663,68.0,90.0
340,216.08541305625,216.6933285083333,65.0,90.0
341,216.76878405624996,217.0777246958333,58.0,90.0
342,217.11046955625,217.38524164583333,65.0,90.0
343,217.45215505624998,217.84936445,63.0,90.0
344,218.13552605625,218.49287214166662,63.0,90.0
345,218.47721155624998,218.83455764166666,61.0,90.0
346,218.81889705624997,219.01821359791666,58.0,90.0
347,219.16058255625,219.3542043395833,58.0,90.0
348,219.50226805625,219.71866887291662,56.0,90.0
349,219.84395355624997,220.04469378749997,58.0,90.0
350,220.18563905624995,221.55665212499997,58.0,90.0
351,222.23575205624996,222.60021658958328,61.0,90.0
352,222.57743755625,222.85505702499995,63.0,90.0
353,222.91912305625,223.6167309520833,65.0,90.0
354,223.94417955625,224.19474892291663,68.0,90.0
355,224.28586505624997,224.58483986874995,65.0,90.0
356,224.62755055624996,224.8681540958333,63.0,90.0
357,224.96923605625,225.28387145416667,61.0,90.0
358,225.31092155624998,225.71097832916666,56.0,90.0
359,225.65260705624996,227.0848387770833,58.0,90.0
360,227.70272005624997,228.08853993333332,61.0,90.0
361,228.04440555624996,228.33768561041666,63.0,90.0
362,228.38609105625,229.0409882645833,65.0,90.0
363,229.06946205624996,229.41968969375,65.0,90.0
364,229.41114755625,229.66029323333333,68.0,90.0
365,229.75283305624998,229.94930221874995,65.0,90.0
366,230.09451855624997,230.2497007208333,63.0,90.0
367,230.43620405624995,230.62413108124997,63.0,90.0
368,230.77788955625,231.08683019583333,61.0,90.0
369,231.11957505624997,232.16171583124998,63.0,90.0
370,233.16968805624998,233.481476075,65.0,90.0
371,233.51137355624996,233.88580391666665,63.0,90.0
372,233.85305905625,234.49371936874996,61.0,90.0
373,234.53643005624997,234.90658934791662,63.0,90.0
374,234.87811555624995,235.20271678125,61.0,90.0
375,235.21980105625,235.72948192708333,58.0,90.0
376,235.90317205624996,236.2377391083333,58.0,90.0
377,236.24485755625,236.5836956770833,56.0,90.0
378,236.58654305624998,236.93819438333333,65.0,90.0
379,236.92822855624996,237.25567716041667,68.0,90.0
380,237.26991405625,237.6130232458333,70.0,90.0
381,237.61159955624998,237.97321671041664,68.0,90.0
382,237.95328505624997,238.3177495895833,65.0,90.0
383,238.63665605625,238.99400214166667,58.0,90.0
384,238.97834155624997,239.35419560624996,65.0,90.0
385,239.32002705624996,239.77276034374995,63.0,90.0
386,240.00339805624998,240.31376238541662,63.0,90.0
387,240.34508355624996,240.69531119375,61.0,90.0
388,240.68676905625,240.930219975,58.0,90.0
389,241.03557300416662,241.33739519583332,58.0,90.0
390,241.37014005624997,241.63352262916663,56.0,90.0
391,241.71182555624995,241.98659764583329,58.0,90.0
392,242.05351105625,243.22520758333332,61.0,90.0
