,start,end,pitch,velocity
0,1.9545449333333333,2.292613025,56.0,83.0
1,2.295453933333333,2.633522025,61.0,83.0
2,2.6363629333333334,2.9659082999999997,56.0,83.0
3,2.9772719333333333,3.315340025,65.0,83.0
4,3.318180933333333,3.7130671916666667,56.0,83.0
5,1.6136359333333332,4.194601154166667,49.0,83.0
6,3.659089933333333,4.298294308333333,68.0,83.0
7,3.999998933333333,4.338067025,56.0,83.0
8,4.681816933333333,5.1775554375,56.0,83.0
9,5.022725933333333,5.487214445833333,61.0,83.0
10,5.3636349333333335,5.8295439,56.0,83.0
11,5.704543933333333,6.069600654166666,65.0,83.0
12,6.045452933333333,6.424714195833333,56.0,83.0
13,4.340907933333333,6.481532362499999,46.0,83.0
14,6.386361933333333,6.840907266666666,70.0,83.0
15,6.727270933333333,6.985793591666666,56.0,83.0
16,7.409088933333333,7.894884258333333,56.0,83.0
17,7.749997933333333,8.275565975,61.0,83.0
18,8.090906933333333,8.507100004166666,56.0,83.0
19,8.431815933333333,8.761361299999999,65.0,83.0
20,8.772724933333333,9.228690720833333,56.0,83.0
21,9.113633933333332,9.471588383333334,68.0,83.0
22,7.068179933333333,9.561076995833332,49.0,83.0
23,9.454542933333332,9.6945996875,56.0,83.0
24,10.136360933333332,10.735792591666666,58.0,83.0
25,10.477269933333332,10.85795165,63.0,83.0
26,10.818178933333332,11.345167429166667,58.0,83.0
27,11.159087933333334,11.514201475,66.0,83.0
28,11.499996933333334,12.116474041666667,58.0,83.0
29,11.840905933333334,12.284087633333332,70.0,83.0
30,9.795451933333332,12.349428524999999,51.0,83.0
31,12.863632933333333,13.450280504166667,56.0,83.0
32,13.204541933333333,13.839484945833332,61.0,83.0
33,13.545450933333333,14.022723533333332,56.0,83.0
34,13.886359933333333,14.303973458333333,65.0,83.0
35,14.227268933333333,14.6803938125,56.0,83.0
36,12.522723933333333,15.092325520833333,49.0,83.0
37,14.909086933333333,15.124995966666667,56.0,83.0
38,14.568177933333333,15.167609591666666,68.0,83.0
39,15.590904933333332,16.076700258333332,58.0,83.0
40,15.931813933333332,16.548291041666666,61.0,83.0
41,16.272722933333334,16.752836441666666,58.0,83.0
42,16.613631933333334,16.974427291666665,65.0,83.0
43,16.954540933333334,17.417608991666665,58.0,83.0
44,15.249995933333333,17.735790724999998,46.0,83.0
45,17.636358933333334,17.8593702375,58.0,83.0
46,17.295449933333334,17.889199774999998,61.0,83.0
47,18.339483745833334,18.8394836125,58.0,83.0
48,18.705960920833334,19.14488125833333,66.0,83.0
49,17.977267933333334,19.161926708333333,51.0,83.0
50,18.70169955833333,19.1889153375,63.0,83.0
51,19.036926741666665,19.374994833333332,58.0,83.0
52,19.352267566666665,19.995733304166666,42.0,89.0
53,19.723006104166664,20.021301479166667,58.0,78.0
54,20.039767383333334,20.704539933333333,44.0,72.0
55,20.392040016666666,20.7570967375,56.0,65.0
56,21.045448933333333,21.674710129166666,56.0,83.0
57,21.401982929166667,21.80113055,61.0,83.0
58,21.737210112499998,22.254255429166665,56.0,83.0
59,22.068175933333332,22.3849372125,65.0,83.0
60,22.41760765833333,22.9900506875,56.0,83.0
61,22.757096204166665,23.12499383333333,61.0,83.0
62,20.704539933333333,23.190334725,49.0,83.0
63,23.0795393,23.269880158333333,56.0,83.0
64,23.772720933333332,24.218743541666665,56.0,83.0
65,24.08522085,24.45880029583333,61.0,83.0
66,23.431811933333332,24.622152525,49.0,83.0
67,24.454538933333332,24.792607025,56.0,83.0
68,24.897720633333332,25.850845379166664,61.0,83.0
69,24.8650501875,25.863629466666666,56.0,83.0
70,24.968743341666666,25.874993099999998,65.0,83.0
71,25.042606958333334,25.886356733333333,68.0,83.0
72,24.79544793333333,25.9218680875,49.0,83.0
73,26.49999293333333,27.0340837,56.0,83.0
74,26.84090193333333,27.1917541125,61.0,83.0
75,27.18181093333333,27.667606258333333,56.0,83.0
76,27.52271993333333,27.80112895,65.0,83.0
77,27.86362893333333,28.305390179166665,56.0,83.0
78,28.20453793333333,28.417606058333334,61.0,83.0
79,26.15908393333333,28.605106008333333,49.0,83.0
80,28.54544693333333,28.755674149999997,56.0,83.0
81,29.22726493333333,29.690332991666665,58.0,83.0
82,29.56817393333333,29.9445942875,61.0,83.0
83,29.909082933333334,30.401980529166664,58.0,83.0
84,30.249991933333334,30.551128216666665,65.0,83.0
85,30.590900933333334,30.997150825,58.0,83.0
86,30.931809933333334,31.228684854166666,61.0,83.0
87,28.88635593333333,31.360787091666666,46.0,83.0
88,31.272718933333334,31.5127756875,58.0,83.0
89,31.954536933333333,32.480104974999996,56.0,83.0
90,32.29544593333333,32.642036749999995,61.0,83.0
91,32.63635493333333,33.068173,56.0,83.0
92,32.97726393333333,33.28976385,65.0,83.0
93,33.31817293333333,33.7712978125,56.0,83.0
94,33.65908193333333,33.964479579166664,61.0,83.0
95,31.613627933333333,34.099422725,49.0,83.0
96,33.99999093333333,34.2272636,56.0,83.0
97,35.36362693333333,35.818172266666664,56.0,69.0
98,35.02271793333333,35.86646770833333,63.0,73.0
99,36.04544493333333,36.492887995833335,56.0,50.0
100,35.70453593333333,36.82101290833333,60.0,66.0
101,34.68180893333333,36.9758424125,51.0,34.0
102,36.38635393333333,37.03692194166666,63.0,72.0
103,34.34089993333333,37.07385375,44.0,86.0
104,36.72726293333333,37.099421925,68.0,59.0
105,37.40908093333333,38.207376175,53.0,56.0
106,37.74998993333333,38.211637537499996,58.0,82.0
107,37.06817193333333,38.25993297916666,46.0,90.0
108,38.090898933333335,38.37641022083333,61.0,68.0
109,38.772716933333335,39.26561452916666,58.0,83.0
110,39.11362593333333,39.5070917375,61.0,83.0
111,38.43180793333333,39.546864454166666,46.0,83.0
112,39.454534933333335,39.792603025,58.0,83.0
113,40.136352933333335,40.7173186875,56.0,61.0
114,39.79544393333333,40.737205045833335,49.0,85.0
115,40.47726193333333,41.183227654166664,65.0,70.0
116,40.818170933333334,41.18748901666667,61.0,68.0
117,40.47726193333333,41.19885265,68.0,67.0
118,41.499988933333334,42.40197732916666,53.0,53.0
119,41.84089793333333,42.40197732916666,58.0,82.0
120,42.181806933333334,42.44175004583333,61.0,63.0
121,41.15907993333333,42.46163640416667,46.0,82.0
122,42.181806933333334,42.4815227625,65.0,59.0
123,42.863624933333334,43.3082270875,58.0,83.0
124,43.20453393333333,43.57527247083333,63.0,83.0
125,43.545442933333334,43.9474314625,58.0,83.0
126,43.88635193333333,44.2116359375,66.0,83.0
127,44.22726093333333,44.68322672083333,58.0,83.0
128,44.56816993333333,44.92470392916667,63.0,83.0
129,42.52271593333333,45.022715266666665,51.0,83.0
130,44.90907893333333,45.247147025,58.0,83.0
131,45.59089693333333,46.19174904583333,56.0,83.0
132,45.93180593333333,46.269874025,60.0,83.0
133,46.269874025,46.437487616666665,56.0,83.0
134,46.61362393333333,48.8522597,56.0,83.0
135,48.31816893333333,48.8522597,56.0,80.0
136,48.65907793333333,49.0099301125,61.0,80.0
137,48.99998693333333,49.312991575,56.0,80.0
138,46.60936257083333,49.33434691875,63.0,83.0
139,46.61362393333333,49.35000750416667,60.0,83.0
140,45.24998793333333,49.455360533333334,44.0,83.0
141,49.34146536666667,49.620508525,65.0,80.0
142,49.683150866666665,50.12591832708333,56.0,80.0
143,50.02483636666667,50.238389804166665,61.0,80.0
144,47.97725993333333,50.426316829166666,49.0,80.0
145,50.366521866666666,50.577227925,56.0,80.0
146,51.04989286666667,51.51401567083333,58.0,80.0
147,51.391578366666664,51.76885610625,61.0,80.0
148,51.73326386666667,52.227284152083335,58.0,80.0
149,52.074949366666665,52.37677155833333,65.0,80.0
150,52.41663486666667,52.8238100875,58.0,80.0
151,52.758320366666666,53.05587148958333,61.0,80.0
152,50.70820736666667,53.18827462083333,46.0,80.0
153,53.10000586666666,53.34060940625,58.0,80.0
154,53.783376866666664,54.3101420125,56.0,85.0
155,54.12506236666667,54.472442625,61.0,85.0
156,54.466747866666665,54.8995495,56.0,85.0
157,54.80843336666667,55.121645075,65.0,85.0
158,55.150118866666666,55.60427584375,56.0,85.0
159,55.49180436666667,55.79789762708333,61.0,85.0
160,53.44169136666667,55.9331481375,49.0,85.0
161,55.83348986666667,56.0612802,56.0,85.0
162,57.20023186666667,57.717031185416666,56.0,88.0
163,56.858546366666666,57.87363703958333,63.0,77.0
164,56.51686086666667,58.199661954166665,51.0,64.0
165,56.175175366666664,58.228135745833335,44.0,82.0
166,57.88360286666666,58.30928605208334,56.0,64.0
167,57.54191736666667,58.85598285208333,68.0,99.0
168,58.566973866666665,58.883032954166666,60.0,79.0
169,58.22528836666667,58.89015140208333,63.0,78.0
170,59.250344866666666,60.1700483375,53.0,59.0
171,59.59203036666666,60.20991164583333,58.0,77.0
172,59.93371586666667,60.27824874583333,65.0,78.0
173,58.90865936666667,60.316688364583335,46.0,88.0
174,60.275401366666664,60.316688364583335,46.0,85.0
175,60.61708686666667,61.111107152083335,58.0,85.0
176,60.958772366666665,61.35313438125,61.0,85.0
177,61.30045786666666,61.6392959875,58.0,85.0
178,61.98382886666667,62.4849676,61.0,65.0
179,61.642143366666666,62.651539281249995,49.0,79.0
180,62.32551436666667,62.943395645833334,68.0,95.0
181,62.667199866666664,63.0060379875,61.0,83.0
182,63.350570866666665,64.09516051874999,58.0,81.0
183,63.00888536666667,64.1848529625,46.0,100.0
184,63.69225636666667,64.29020599166667,65.0,79.0
185,64.03394186666667,64.30871395625,61.0,55.0
186,64.71731286666666,65.16292770625,58.0,85.0
187,65.05899836666667,65.43058134791667,63.0,85.0
188,64.37562736666666,65.7395219875,51.0,85.0
189,65.40068386666667,65.80358801874999,58.0,85.0
190,66.08405486666666,66.54105922291666,56.0,85.0
191,66.42574036666667,66.78308645208332,60.0,85.0
192,65.74236936666667,66.88132103333334,44.0,85.0
193,66.76742586666667,67.1062639875,56.0,85.0
194,67.45079686666666,67.95763035833333,56.0,85.0
195,67.79248236666666,68.14413369375,61.0,85.0
196,68.13416786666667,68.61964601458334,56.0,85.0
197,68.47585336666667,68.78764138541666,65.0,85.0
198,68.81753886666667,69.1563769875,56.0,85.0
199,69.15922436666666,69.4980624875,68.0,85.0
200,67.10911136666667,69.64612620416666,49.0,85.0
201,69.50090986666666,69.79846098958333,56.0,85.0
202,70.18428086666667,70.76087514791666,58.0,85.0
203,70.52596636666667,70.88473614166666,61.0,85.0
204,70.86765186666666,71.31041932708334,58.0,85.0
205,71.20933736666666,71.57807296874999,65.0,85.0
206,71.55102286666667,72.03222994583334,58.0,85.0
207,71.89270836666667,72.21730959166666,61.0,85.0
208,69.84259536666667,72.274257175,46.0,85.0
209,72.23439386666666,72.5732319875,58.0,85.0
210,72.91776486666666,73.81326561458333,48.0,63.0
211,72.57607936666666,73.84743416458333,41.0,69.0
212,73.25945036666667,73.86167106041667,65.0,66.0
213,73.25945036666667,73.87448426666666,68.0,82.0
214,73.60113586666667,73.91719495416666,60.0,67.0
215,74.79703511666666,75.12306003124999,53.0,69.0
216,74.28450686666666,75.14299168541666,48.0,61.0
217,73.94282136666666,75.16577071875,41.0,85.0
218,74.62619236666666,75.29532647083333,65.0,70.0
219,74.96787786666667,75.32522395208333,60.0,61.0
220,75.65124886666666,76.17659032291667,58.0,85.0
221,75.99293436666666,76.30187500625,61.0,85.0
222,76.33461986666666,76.84002966874999,58.0,85.0
223,76.67630536666667,77.10198855208333,65.0,85.0
224,77.01799086666666,77.41092919166667,58.0,85.0
225,77.35967636666666,77.69281972916667,68.0,85.0
226,75.30956336666667,77.80813858541666,46.0,85.0
227,77.70136186666666,78.04019998749999,58.0,85.0
228,78.38473286666667,78.8431609125,53.0,85.0
229,78.72641836666666,79.142135725,60.0,85.0
230,79.06810386666666,79.60768221875,53.0,85.0
231,79.40978936666667,79.76428807291666,65.0,85.0
232,79.75147486666665,80.22129242916667,53.0,85.0
233,80.09316036666667,80.39355886874999,68.0,85.0
234,78.04304736666666,80.50318296666666,41.0,85.0
235,80.43484586666666,80.7736839875,53.0,85.0
236,81.11821686666667,81.69054007916667,58.0,85.0
237,81.45990236666665,81.7816562125,61.0,85.0
238,81.80158786666667,82.27567649791666,58.0,85.0
239,82.14327336666666,82.45506138541666,65.0,85.0
240,82.48495886666666,82.92345525833332,58.0,85.0
241,82.82664436666667,83.1142296625,61.0,85.0
242,80.77653136666666,83.2509038625,46.0,85.0
243,83.16832986666665,83.40039126875,58.0,85.0
244,83.85170086666666,84.36850018541666,56.0,85.0
245,84.19338636666666,84.50802176458333,61.0,85.0
246,83.51001536666666,84.58774838125,49.0,85.0
247,84.53507186666667,84.73438840833333,56.0,85.0
248,85.21844286666666,85.74805539166667,58.0,85.0
249,85.56012836666666,85.88330590208332,61.0,85.0
250,84.87675736666665,86.01713272291667,46.0,85.0
251,85.90181386666666,86.08974089166666,58.0,85.0
252,86.58518486666667,86.9240229875,58.0,85.0
253,86.24349936666667,87.15323701041666,51.0,85.0
254,86.92687036666666,87.22442148958334,66.0,85.0
255,87.61024136666666,87.86223442291666,66.0,59.0
256,87.61024136666666,87.86650549166666,70.0,54.0
257,87.61024136666666,87.90494511041666,61.0,52.0
258,87.61024136666666,88.30784926249999,42.0,88.0
259,87.95192686666667,88.32350984791665,54.0,82.0
260,88.29361236666666,88.62817941875,44.0,85.0
261,88.29361236666666,88.80614061666665,56.0,53.0
262,88.63529786666666,88.80614061666665,56.0,85.0
263,88.29361236666666,88.81895382291665,63.0,69.0
264,89.31866886666666,89.9137711125,58.0,85.0
265,89.66035436666667,90.01200569375,61.0,85.0
266,88.97698336666667,90.1700352375,46.0,85.0
267,90.00203986666666,90.1700352375,58.0,85.0
268,90.34372536666666,91.02424898749999,46.0,85.0
269,90.34372536666666,91.02424898749999,58.0,85.0
270,90.34372536666666,91.02424898749999,61.0,85.0
271,90.34372536666666,91.02424898749999,65.0,85.0
272,92.05215286666666,92.58746015,56.0,85.0
273,92.39383836666667,92.74548969374999,61.0,85.0
274,92.73552386666665,93.22242570416665,56.0,85.0
275,93.07720936666666,93.356252525,65.0,85.0
276,93.41889486666666,93.86166232708334,56.0,85.0
277,93.76058036666666,93.97413380416666,61.0,85.0
278,91.71046736666666,94.16206082916666,49.0,85.0
279,94.10226586666667,94.312971925,56.0,85.0
280,94.78563686666666,95.24975967083333,58.0,85.0
281,95.12732236666666,95.50460010625,61.0,85.0
282,95.46900786666666,95.96302815208333,58.0,85.0
283,95.81069336666667,96.11251555833333,65.0,85.0
284,96.15237886666665,96.5595540875,58.0,85.0
285,96.49406436666666,96.79161548958334,61.0,85.0
286,94.44395136666665,96.92401862083332,46.0,85.0
287,96.83574986666666,97.07635340624999,58.0,85.0
288,97.51912086666667,98.04588601249999,56.0,85.0
289,97.86080636666665,98.208186625,61.0,85.0
290,98.20249186666666,98.63529349999999,56.0,85.0
291,98.54417736666666,98.85738907499999,65.0,85.0
292,98.88586286666666,99.34001984374999,56.0,85.0
293,99.22754836666667,99.53364162708333,61.0,85.0
294,97.17743536666666,99.6688921375,49.0,85.0
295,99.56923386666665,99.7970242,56.0,85.0
296,99.91091936666666,101.13956347708333,44.0,81.0
297,100.25260486666666,101.21786640416667,51.0,34.0
298,100.59429036666666,101.68768396666667,63.0,54.0
299,100.59429036666666,101.78449485833332,60.0,73.0
300,100.93597586666667,101.82720554583332,56.0,68.0
301,101.27766136666666,102.07777491249999,44.0,72.0
302,101.61934686666666,102.12333297916666,51.0,38.0
303,101.96103236666666,102.55898199166666,63.0,75.0
304,101.96103236666666,102.56467674999999,60.0,66.0
305,102.30271786666665,102.60169267916666,56.0,68.0
306,102.98608886666666,103.45021167083333,58.0,72.0
307,103.32777436666666,103.94992671458333,61.0,64.0
308,102.64440336666667,103.95277409375,46.0,64.0
309,103.66945986666667,103.99833216041665,58.0,53.0
310,104.35283086666666,104.84685115208333,58.0,85.0
311,104.69451636666666,105.08887838125,61.0,85.0
312,104.01114536666665,105.12874168958334,46.0,85.0
313,105.03620186666666,105.3750399875,58.0,85.0
314,105.71957286666665,106.12674808749999,61.0,69.0
315,106.06125836666666,106.60795516666667,65.0,51.0
316,106.06125836666666,106.63642895833333,68.0,82.0
317,105.37788736666667,106.65208954375,49.0,90.0
318,106.40294386666666,106.74462936666666,61.0,68.0
319,107.08631486666667,107.49633746666666,58.0,73.0
320,106.74462936666666,107.92629172083332,46.0,77.0
321,107.42800036666665,107.96900240833332,65.0,66.0
322,107.42800036666665,107.99889988958333,61.0,67.0
323,107.76968586666666,108.03306843958333,58.0,77.0
324,108.45305686666666,108.89867170624998,58.0,85.0
325,108.79474236666667,109.16632534791665,63.0,85.0
326,108.11137136666666,109.4752659875,51.0,85.0
327,109.13642786666665,109.53933201875,58.0,85.0
328,109.81979886666666,110.27680322291667,56.0,85.0
329,110.16148436666666,110.51883045208334,60.0,85.0
330,109.47811336666666,110.61706503333332,44.0,85.0
331,110.50316986666667,110.84200798749998,56.0,85.0
332,110.84485536666665,112.08204161458332,46.0,75.0
333,111.18654086666666,112.19878416041666,53.0,61.0
334,111.52822636666666,112.67429648125,61.0,63.0
335,111.86991186666665,112.95191595,58.0,79.0
336,112.55328286666665,113.43739409791665,53.0,55.0
337,111.52822636666666,113.46302051041665,65.0,63.0
338,112.21159736666667,113.48722323333332,46.0,60.0
339,112.89496836666666,113.515697025,61.0,69.0
340,113.23665386666666,113.53705236875,58.0,52.0
341,113.92002486666667,114.2588629875,56.0,85.0
342,114.26171036666666,114.65607238125,61.0,85.0
343,114.60339586666666,114.93369184999999,56.0,85.0
344,114.94508136666666,115.28391948749999,65.0,85.0
345,115.28676686666665,115.68255257083332,56.0,85.0
346,113.57833936666665,116.16518333958332,49.0,85.0
347,115.62845236666666,116.26911267916665,68.0,85.0
348,115.97013786666666,116.35880512291666,56.0,85.0
349,116.65350886666666,117.15037653124999,56.0,85.0
350,116.99519436666665,117.46074086041666,61.0,85.0
351,117.33687986666666,117.80385005,56.0,85.0
352,117.67856536666666,118.04445358958333,65.0,85.0
353,118.02025086666666,118.40037598541666,56.0,85.0
354,116.31182336666666,118.45732356874998,46.0,85.0
355,118.36193636666665,118.81751703333333,70.0,85.0
356,118.70362186666665,118.96273337083332,56.0,85.0
357,119.38699286666666,119.87389470416666,56.0,85.0
358,119.72867836666666,120.2554435125,61.0,85.0
359,120.07036386666665,120.48750491458333,56.0,85.0
360,120.41204936666666,120.74234535,65.0,85.0
361,120.75373486666666,121.21073922291666,56.0,85.0
362,121.09542036666666,121.45419014166666,68.0,85.0
363,119.04530736666666,121.54388258541665,49.0,85.0
364,121.43710586666666,121.67770940624999,56.0,85.0
365,121.77879136666665,122.58887073958333,44.0,79.0
366,122.12047686666666,122.66859735624999,51.0,52.0
367,122.80384786666666,123.05014616458332,44.0,64.0
368,122.46216236666666,123.37474738958332,60.0,76.0
369,122.46216236666666,123.4502029375,63.0,90.0
370,123.48721886666665,123.88158088124999,56.0,63.0
371,123.14553336666665,124.22184269166665,44.0,76.0
372,123.82890436666666,124.42115923333333,60.0,62.0
373,124.17058986666666,124.42543030208333,56.0,61.0
374,123.82890436666666,124.46956467916665,63.0,62.0
375,124.85396086666665,125.44194466458332,56.0,85.0
376,125.19564636666665,125.83203561041665,61.0,85.0
377,125.53733186666666,126.01569156666666,56.0,85.0
378,125.87901736666666,126.29758210416665,65.0,85.0
379,126.22070286666666,126.67485984374999,56.0,85.0
380,124.51227536666666,127.08772982291666,49.0,85.0
381,126.90407386666666,127.12047468333333,56.0,85.0
382,126.56238836666665,127.16318537083332,68.0,85.0
383,127.58744486666666,128.07434670416666,58.0,85.0
384,127.92913036666666,128.54701164583332,61.0,85.0
385,128.27081586666665,128.75202294583332,58.0,85.0
386,128.61250136666666,128.97411852083331,65.0,85.0
387,128.95418686666665,129.4183096708333,58.0,85.0
388,127.24575936666666,129.73721613749998,46.0,85.0
389,129.63755786666667,129.86107713125,58.0,85.0
390,129.29587236666666,129.89097461249997,61.0,85.0
391,130.34228421041666,130.84342294375,58.0,85.0
392,130.66261436666667,131.10253444791664,66.0,85.0
393,130.65834329791664,131.146668825,63.0,85.0
394,129.97924336666665,131.16660047916668,51.0,85.0
395,131.04131579583333,131.38015391666664,58.0,85.0
396,131.68767086666665,132.21870708125,56.0,85.0
397,132.02508529791666,132.3909735208333,63.0,85.0
398,132.02081422916666,132.39809196875,60.0,85.0
399,132.02935636666666,132.40521041666665,68.0,85.0
400,131.34598536666664,132.41944731249998,44.0,85.0
401,132.37104186666664,132.7098799875,56.0,85.0
402,133.05441286666667,133.68510735208332,56.0,85.0
403,133.41175895208332,133.81181572499997,61.0,85.0
404,133.74774969375,134.26597270208333,56.0,85.0
405,134.07946936666667,134.39695214374998,65.0,85.0
406,134.42969700416666,135.00344390624997,56.0,85.0
407,132.71272736666666,135.2041841375,49.0,85.0
408,135.78789686666664,136.32320414999998,56.0,85.0
409,136.12958236666665,136.48123369374997,61.0,85.0
410,136.47126786666666,136.95816970416666,56.0,85.0
411,136.81295336666665,137.09199652499998,65.0,85.0
412,137.15463886666666,137.59740632708332,56.0,85.0
413,137.49632436666667,137.70987780416664,61.0,85.0
414,135.44621136666666,137.89780482916666,49.0,85.0
415,137.83800986666665,138.04871592499998,56.0,85.0
416,138.52138086666668,138.98550367083334,58.0,85.0
417,138.86306636666666,139.24034410625,61.0,85.0
418,139.20475186666664,139.69877215208334,58.0,85.0
419,139.54643736666665,139.84825955833333,65.0,85.0
420,139.88812286666666,140.2952980875,58.0,85.0
421,140.22980836666665,140.52735948958332,61.0,85.0
422,138.17969536666664,140.6597626208333,46.0,85.0
423,140.57149386666666,140.81209740625,58.0,85.0
424,141.25486486666665,141.7816300125,56.0,85.0
425,141.59655036666666,141.943930625,61.0,85.0
426,141.93823586666667,142.3710375,56.0,85.0
427,142.27992136666666,142.59313307499997,65.0,85.0
428,142.62160686666664,143.07576384375,56.0,85.0
429,142.96329236666665,143.26938562708332,61.0,85.0
430,140.91317936666667,143.4046361375,49.0,85.0
431,143.30497786666666,143.5327682,56.0,85.0
432,143.64666336666664,144.83829154791664,44.0,66.0
433,143.98834886666666,144.97781312708332,51.0,45.0
434,144.67171986666665,145.24831414791666,56.0,71.0
435,144.33003436666667,145.42627534583332,63.0,72.0
436,145.01340536666666,145.82633211874997,44.0,66.0
437,145.35509086666667,145.93595621666665,56.0,62.0
438,146.03846186666664,146.3103865770833,56.0,73.0
439,145.69677636666665,146.32462347291664,63.0,93.0
440,146.72183286666666,147.53760699791667,53.0,53.0
441,146.38014736666665,147.54187806666664,46.0,78.0
442,147.40520386666665,147.74119460833333,58.0,67.0
443,147.06351836666664,147.7696684,61.0,86.0
444,148.08857486666665,148.58259515208331,58.0,85.0
445,148.43026036666666,148.82462238124998,61.0,85.0
446,147.74688936666666,148.86448568958332,46.0,85.0
447,148.77194586666667,149.11078398749999,58.0,85.0
448,149.45531686666664,149.85252626041665,61.0,65.0
449,149.79700236666667,150.29244634166665,65.0,63.0
450,149.79700236666667,150.30525954791665,68.0,48.0
451,149.11363136666665,150.43339161041666,49.0,63.0
452,150.13868786666666,150.43908636875,61.0,59.0
453,150.48037336666664,151.68481475416667,46.0,66.0
454,150.82205886666665,151.68623844374997,58.0,65.0
455,151.50542986666665,151.83003109166665,61.0,72.0
456,151.16374436666666,151.84569167708332,65.0,69.0
457,152.18880086666667,152.63441570624997,58.0,85.0
458,152.53048636666665,152.90206934791667,63.0,85.0
459,151.84711536666666,153.2110099875,51.0,85.0
460,152.87217186666663,153.27507601874998,58.0,85.0
461,153.55554286666666,154.01254722291665,56.0,85.0
462,153.89722836666664,154.25457445208332,60.0,85.0
463,153.21385736666667,154.3528090333333,44.0,85.0
464,154.23891386666665,154.5777519875,56.0,85.0
465,154.92228486666664,155.4291183583333,56.0,85.0
466,155.26397036666665,155.61562169374997,61.0,85.0
467,155.60565586666667,156.0911340145833,56.0,85.0
468,155.94734136666665,156.25912938541666,65.0,85.0
469,156.28902686666666,156.6278649875,56.0,85.0
470,156.63071236666667,156.9695504875,68.0,85.0
471,154.58059936666666,157.11761420416667,49.0,85.0
472,156.97239786666665,157.26994898958333,56.0,85.0
473,157.65576886666665,158.23236314791666,58.0,85.0
474,157.99745436666666,158.35622414166664,61.0,85.0
475,158.33913986666664,158.78190732708333,58.0,85.0
476,158.68082536666665,159.04956096874997,65.0,85.0
477,159.02251086666666,159.50371794583333,58.0,85.0
478,159.36419636666665,159.68879759166666,61.0,85.0
479,157.31408336666664,159.74574517499997,46.0,85.0
480,159.70588186666666,160.0447199875,58.0,85.0
481,160.73093836666663,161.61362590833332,53.0,73.0
482,161.07262386666665,161.9239902375,65.0,73.0
483,161.07262386666665,161.98805626874997,68.0,77.0
484,161.75599486666664,162.07917240208332,53.0,66.0
485,161.41430936666666,162.15178057083332,60.0,85.0
486,160.38925286666665,162.45075538333333,48.0,46.0
487,160.04756736666667,162.60593754791665,41.0,79.0
488,162.09768036666665,162.71698533541667,65.0,76.0
489,162.09768036666665,162.73549329999997,68.0,77.0
490,162.43936586666666,162.75684864375,60.0,75.0
491,163.12273686666666,163.64807832291666,58.0,85.0
492,163.46442236666667,163.77336300624998,61.0,85.0
493,163.80610786666665,164.31151766874999,58.0,85.0
494,164.14779336666663,164.57347655208332,65.0,85.0
495,164.48947886666667,164.88241719166666,58.0,85.0
496,164.83116436666666,165.16430772916664,68.0,85.0
497,162.78105136666665,165.27962658541665,46.0,85.0
498,165.17284986666664,165.51168798749998,58.0,85.0
499,165.85622086666666,166.3146489125,53.0,85.0
500,166.19790636666664,166.61362372499997,60.0,85.0
501,166.53959186666665,167.07917021875,53.0,85.0
502,166.88127736666667,167.23577607291665,65.0,85.0
503,167.22296286666665,167.69278042916665,53.0,85.0
504,167.56464836666663,167.86504686874997,68.0,85.0
505,165.51453536666665,167.97467096666665,41.0,85.0
506,167.90633386666667,168.2451719875,53.0,85.0
507,168.58970486666664,169.16202807916665,58.0,85.0
508,168.93139036666665,169.2531442125,61.0,85.0
509,169.27307586666666,169.74716449791666,58.0,85.0
510,169.61476136666664,169.92654938541665,65.0,85.0
511,169.95644686666665,170.3949432583333,58.0,85.0
512,170.29813236666666,170.58571766249997,61.0,85.0
513,168.24801936666665,170.7223918625,46.0,85.0
514,170.63981786666665,170.87187926874998,58.0,85.0
515,171.32318886666667,171.83998818541664,56.0,85.0
516,171.66487436666665,171.97950976458333,61.0,85.0
517,170.98150336666666,172.05923638125,49.0,85.0
518,172.00655986666663,172.20587640833332,56.0,85.0
519,172.68993086666666,173.21954339166666,58.0,85.0
520,173.03161636666664,173.35479390208332,61.0,85.0
521,172.34824536666665,173.48862072291666,46.0,85.0
522,173.37330186666665,173.56122889166664,58.0,85.0
523,174.05667286666664,174.3955109875,58.0,85.0
524,173.71498736666666,174.62472501041665,51.0,85.0
525,174.39835836666666,174.6959094895833,66.0,85.0
526,175.25257211666667,175.61134189166665,58.0,60.0
527,175.08172936666665,175.68964481874997,42.0,97.0
528,175.42341486666663,175.7380502645833,61.0,63.0
529,175.42341486666663,175.7722188145833,66.0,60.0
530,175.76510036666664,176.09966741875,44.0,85.0
531,176.10678586666666,176.27762861666665,56.0,85.0
532,176.79015686666665,177.38525911249997,58.0,85.0
533,177.13184236666666,177.48349369375,61.0,85.0
534,176.44847136666664,177.6415232375,46.0,85.0
535,177.47352786666664,177.6415232375,58.0,85.0
536,177.81521336666663,178.49573698749998,46.0,85.0
537,177.81521336666663,178.49573698749998,58.0,85.0
538,177.81521336666663,178.49573698749998,61.0,85.0
539,177.81521336666663,178.49573698749998,65.0,85.0
540,179.52364086666665,180.05894815,56.0,85.0
541,179.86532636666664,180.21697769374998,61.0,85.0
542,180.20701186666668,180.69391370416668,56.0,85.0
543,180.54869736666666,180.82774052499997,65.0,85.0
544,180.89038286666664,181.33315032708333,56.0,85.0
545,181.23206836666662,181.44562180416665,61.0,85.0
546,179.18195536666667,181.63354882916667,49.0,85.0
547,181.57375386666666,181.78445992499996,56.0,85.0
548,182.25712486666663,182.7212476708333,58.0,85.0
549,182.59881036666667,182.97608810624996,61.0,85.0
550,182.94049586666665,183.4345161520833,58.0,85.0
551,183.28218136666663,183.58400355833334,65.0,85.0
552,183.62386686666667,184.0310420875,58.0,85.0
553,183.96555236666666,184.26310348958333,61.0,85.0
554,181.91543936666665,184.39550662083332,46.0,85.0
555,184.30723786666664,184.54784140624997,58.0,85.0
556,184.99060886666666,185.5173740125,56.0,85.0
557,185.33229436666664,185.67967462499996,61.0,85.0
558,185.67397986666663,186.10678149999995,56.0,85.0
559,186.01566536666667,186.32887707499998,65.0,85.0
560,186.35735086666665,186.81150784375,56.0,85.0
561,186.69903636666663,187.0051296270833,61.0,85.0
562,184.64892336666662,187.14038013749996,49.0,85.0
563,187.04072186666667,187.26851219999998,56.0,85.0
564,188.0387282645833,188.40888755624997,60.0,45.0
565,188.00028864583334,188.73064140208334,63.0,99.0
566,188.34909259374996,188.80467326041662,56.0,93.0
567,188.6751175083333,189.472383675,60.0,67.0
568,189.00541349166667,189.83542451874996,56.0,75.0
569,187.69989014375,189.96355658124997,51.0,60.0
570,187.33400192083332,190.03189368124998,44.0,89.0
571,189.69020818125,190.03474106041665,60.0,56.0
572,189.369878025,190.0589437833333,63.0,96.0
573,190.45757686666667,190.9430550145833,56.0,87.0
574,190.11589136666663,191.2377587583333,49.0,87.0
575,190.79926236666665,191.27762206666665,61.0,87.0
576,191.14094786666664,191.3189090645833,56.0,87.0
577,191.82431886666666,192.3183391520833,58.0,87.0
578,192.16600436666664,192.56036638125,61.0,87.0
579,191.48263336666668,192.60022968958333,46.0,87.0
580,192.50768986666662,192.8465279875,58.0,87.0
581,193.19106086666665,193.62386249999997,56.0,87.0
582,193.53274636666663,193.94988741458332,61.0,87.0
583,193.87443186666667,194.32289408541664,56.0,87.0
584,194.21611736666665,194.5521081083333,65.0,87.0
585,194.55780286666663,195.03616256666663,56.0,87.0
586,194.89948836666667,195.2383264875,61.0,87.0
587,192.84937536666666,195.33229,49.0,87.0
588,195.24117386666666,195.58001198749997,56.0,87.0
589,195.92454486666662,196.37015970624998,58.0,87.0
590,196.26623036666666,196.63781334791662,63.0,87.0
591,195.58285936666664,196.94675398749996,51.0,87.0
592,196.60791586666664,197.01082001875,58.0,87.0
593,197.29128686666667,197.74829122291663,56.0,87.0
594,197.63297236666665,197.99031845208333,60.0,87.0
595,196.94960136666663,198.06150293125,44.0,87.0
596,197.97465786666663,198.06150293125,56.0,87.0
597,198.57972593958334,198.71497645,65.0,87.0
598,198.57972593958334,198.72067120833333,68.0,87.0
599,198.57972593958334,198.732060725,49.0,87.0
600,198.57972593958334,198.732060725,61.0,87.0
601,198.57972593958334,198.73917917291664,56.0,87.0
602,198.92141143958332,199.03388291666664,49.0,87.0
603,198.92141143958332,199.04384874375,65.0,87.0
604,198.92141143958332,199.04669612291667,56.0,87.0
605,198.92141143958332,199.04954350208334,61.0,87.0
606,198.92141143958332,199.05239088125,68.0,87.0
607,199.2630969395833,199.37414472708332,61.0,87.0
608,199.2630969395833,199.38411055416663,65.0,87.0
609,199.2630969395833,199.38838162291665,68.0,87.0
610,199.2630969395833,199.39407638125,49.0,87.0
611,199.2630969395833,199.40546589791666,56.0,87.0
612,199.6047824395833,201.00711667916664,65.0,87.0
613,199.6047824395833,201.01281143749998,61.0,87.0
614,199.6047824395833,201.01423512708334,68.0,87.0
615,199.6047824395833,201.02135357499998,56.0,87.0
616,199.6047824395833,201.02277726458334,49.0,87.0
617,201.31320993958332,201.8898042208333,58.0,87.0
618,201.6548954395833,202.01366521458334,61.0,87.0
619,201.99658093958334,202.43934839999997,58.0,87.0
620,202.33826643958332,202.70842573124997,65.0,87.0
621,202.6799519395833,203.16115901874997,58.0,87.0
622,203.0216374395833,203.34623866458332,61.0,87.0
623,200.97152443958333,203.40318624791666,46.0,87.0
624,203.36332293958333,203.70216106041664,58.0,87.0
625,204.32004233958332,204.97636323749998,65.0,72.0
626,204.7044385270833,205.2084246395833,53.0,56.0
627,205.41058856041667,205.79640843749996,53.0,68.0
628,203.98689897708329,206.1736861770833,48.0,63.0
629,203.61389230624997,206.23063376041665,41.0,72.0
630,205.0447003375,206.25768386249996,68.0,95.0
631,205.7038686145833,206.26480231041666,65.0,72.0
632,206.00853818541663,206.29469979166663,60.0,71.0
633,206.78017793958333,207.3055193958333,58.0,87.0
634,207.1218634395833,207.43080407916665,61.0,87.0
635,207.4635489395833,207.96895874166665,58.0,87.0
636,207.80523443958333,208.23091762499996,65.0,87.0
637,208.1469199395833,208.5398582645833,58.0,87.0
638,208.4886054395833,208.82174880208333,68.0,87.0
639,206.43849243958329,208.93706765833332,46.0,87.0
640,208.83029093958334,209.16912906041665,58.0,87.0
641,209.5136619395833,209.97208998541663,53.0,87.0
642,209.85534743958334,210.27106479791667,60.0,87.0
643,210.19703293958332,210.73661129166663,53.0,87.0
644,210.5387184395833,210.89321714583332,65.0,87.0
645,210.8804039395833,211.3502215020833,53.0,87.0
646,211.22208943958333,211.52391163124997,68.0,87.0
647,209.17197643958332,211.63211203958332,41.0,87.0
648,211.5637749395833,211.90261306041663,53.0,87.0
649,212.24714593958333,212.8194691520833,58.0,87.0
650,212.58883143958332,212.91058528541663,61.0,87.0
651,212.9305169395833,213.40460557083333,58.0,87.0
652,213.27220243958334,213.5839904583333,65.0,87.0
653,213.61388793958332,214.05238433124998,58.0,87.0
654,213.9555734395833,214.24315873541667,61.0,87.0
655,211.9054604395833,214.37983293541663,46.0,87.0
656,214.2972589395833,214.52932034166662,58.0,87.0
657,214.9806299395833,215.49742925833328,56.0,87.0
658,215.3223154395833,215.63695083749997,61.0,87.0
659,214.63894443958333,215.71667745416664,49.0,87.0
660,215.66400093958333,215.86331748124996,56.0,87.0
661,216.3473719395833,216.8769844645833,58.0,87.0
662,216.68905743958334,217.01223497499996,61.0,87.0
663,216.00568643958331,217.1460617958333,46.0,87.0
664,217.03074293958332,217.21866996458328,58.0,87.0
665,217.71411393958329,218.05295206041666,58.0,87.0
666,217.3724284395833,218.28216608333332,51.0,87.0
667,218.05579943958332,218.3533505625,66.0,87.0
668,219.01251883958332,219.28017248124996,54.0,78.0
669,218.6751044083333,219.3029515145833,42.0,85.0
670,219.35135696041664,219.50084436666663,56.0,78.0
671,219.34708589166667,219.87669841666667,44.0,55.0
672,219.7642269395833,219.93506968958332,56.0,87.0
673,220.44759793958332,221.04270018541666,58.0,87.0
674,220.7892834395833,221.14093476666665,61.0,87.0
675,220.10591243958334,221.29896431041664,46.0,87.0
676,221.13096893958328,221.29896431041664,58.0,87.0
677,221.47265443958332,222.15317806041662,46.0,87.0
678,221.47265443958332,222.15317806041662,58.0,87.0
679,221.47265443958332,222.15317806041662,61.0,87.0
680,221.47265443958332,222.15317806041662,65.0,87.0
681,223.1810819395833,223.71638922291663,56.0,87.0
682,223.52276743958333,223.87441876666662,61.0,87.0
683,223.86445293958332,224.35135477708332,56.0,87.0
684,224.2061384395833,224.48518159791666,65.0,87.0
685,224.54782393958334,224.99059139999997,56.0,87.0
686,224.88950943958332,225.10448656666665,61.0,87.0
687,222.8393964395833,225.2909899020833,49.0,87.0
688,225.2311949395833,225.44190099791666,56.0,87.0
689,225.91456593958333,226.37868874375,58.0,87.0
690,226.2562514395833,226.63352917916666,61.0,87.0
691,226.5979369395833,227.091957225,58.0,87.0
692,226.93962243958333,227.24144463124998,65.0,87.0
693,227.28130793958331,227.68848316041664,58.0,87.0
694,227.6229934395833,227.92054456249997,61.0,87.0
695,225.5728804395833,228.05294769374996,46.0,87.0
696,227.96467893958334,228.20528247916667,58.0,87.0
697,228.6480499395833,229.17481508541664,56.0,87.0
698,228.98973543958328,229.33711569791666,61.0,87.0
699,229.33142093958332,229.76422257291665,56.0,87.0
700,229.6731064395833,229.98631814791662,65.0,87.0
701,230.0147919395833,230.46894891666665,56.0,87.0
702,230.35647743958333,230.6625707,61.0,87.0
703,228.30636443958332,230.79782121041666,49.0,87.0
704,230.6981629395833,230.92595327291662,56.0,87.0
705,231.65061127083334,232.37099819999997,60.0,76.0
706,231.9538571520833,232.46496171249998,56.0,68.0
707,232.32828751249997,233.07714823333333,63.0,99.0
708,232.69559942499995,233.42595218124995,56.0,73.0
709,231.3516364583333,233.43591800833332,51.0,32.0
710,230.9330717208333,233.5412710375,44.0,72.0
711,233.01592958124996,233.56547376041664,60.0,77.0
712,233.35192032291667,233.64947144583329,63.0,97.0
713,234.05807035624997,234.93791051874996,53.0,38.0
714,234.36273992708328,235.00482392916666,58.0,82.0
715,233.68506368541665,235.0119423770833,46.0,78.0
716,234.70727280625,235.01763713541663,61.0,75.0
717,235.4817599395833,235.975780225,58.0,87.0
718,235.82344543958328,236.21780745416663,61.0,87.0
719,235.14007443958332,236.25767076249997,46.0,87.0
720,236.16513093958332,236.50396906041664,58.0,87.0
721,236.77731746041667,237.1602899583333,61.0,71.0
722,236.4811900270833,237.76535803125,49.0,86.0
723,237.11473189166662,237.77817123749998,68.0,85.0
724,237.12185033958332,237.78244230624995,65.0,68.0
725,237.4293672895833,237.82088192499998,61.0,62.0
726,237.81233978749998,238.93420717916666,46.0,85.0
727,238.79895666874995,239.08654196458332,65.0,66.0
728,238.47577913333333,239.08938934374999,61.0,72.0
729,238.12982256458332,239.09508410208332,58.0,71.0
730,239.58198593958332,240.02760077916662,58.0,87.0
731,239.9236714395833,240.29667811041662,63.0,87.0
732,239.24030043958334,240.60419506041666,51.0,87.0
733,240.26535693958328,240.66826109166664,58.0,87.0
734,240.9487279395833,241.40573229583333,56.0,87.0
735,241.2904134395833,241.64775952499997,60.0,87.0
736,240.60704243958332,241.74599410624995,44.0,87.0
737,241.63209893958333,241.97093706041665,56.0,87.0
738,242.3154699395833,242.78955857083332,56.0,87.0
739,242.65715543958333,242.99314618124998,61.0,87.0
740,242.99884093958332,243.45299791666662,56.0,87.0
741,243.3405264395833,243.6622802854166,65.0,87.0
742,243.68221193958328,244.20755339583332,56.0,87.0
743,244.02389743958332,244.36985400833333,61.0,87.0
744,244.3655829395833,244.61899968541667,56.0,87.0
745,241.9737844395833,244.63038920208334,49.0,87.0
746,245.04895393958333,245.38779206041664,56.0,87.0
747,245.3906394395833,245.78500145416666,61.0,87.0
748,245.7323249395833,246.06262092291666,56.0,87.0
749,246.07401043958333,246.41284856041665,65.0,87.0
750,246.41569593958332,246.81148164374997,56.0,87.0
751,244.7072684395833,247.2941124125,49.0,87.0
752,246.7573814395833,247.39804175208332,68.0,87.0
753,247.09906693958328,247.4877341958333,56.0,87.0
754,247.7824379395833,248.27930560416667,56.0,87.0
755,248.1241234395833,248.5896699333333,61.0,87.0
756,248.46580893958333,248.93277912291666,56.0,87.0
757,248.8074944395833,249.1733826625,65.0,87.0
758,249.1491799395833,249.5293050583333,56.0,87.0
759,247.44075243958332,249.58625264166665,46.0,87.0
760,249.49086543958333,249.94644610625,70.0,87.0
761,249.8325509395833,250.09166244374995,56.0,87.0
762,250.51592193958328,251.00282377708328,56.0,87.0
763,250.85760743958332,251.38437258541666,61.0,87.0
764,251.1992929395833,251.6164339875,56.0,87.0
765,251.54097843958328,251.87127442291666,65.0,87.0
766,251.88266393958332,252.3396682958333,56.0,87.0
767,252.2243494395833,252.5831192145833,68.0,87.0
768,250.1742364395833,252.67281165833333,49.0,87.0
769,252.5660349395833,252.80663847916662,56.0,87.0
770,253.2494059395833,253.85020294375,58.0,87.0
771,253.5910914395833,253.97264024791662,63.0,87.0
772,253.93277693958333,254.46096577499998,58.0,87.0
773,254.27446243958332,254.63038483541663,66.0,87.0
774,252.90772043958333,255.6141543375,51.0,87.0
775,254.95783343958328,255.62554385416666,70.0,87.0
776,254.6161479395833,255.63693337083333,58.0,87.0
777,255.93306080416664,259.1605650895833,65.0,87.0
778,255.84906311875,259.16625984791665,61.0,87.0
779,255.6412044395833,259.20185208749996,37.0,87.0
780,255.74655746874998,259.23174956875,49.0,87.0
781,255.7906918458333,259.30435773749997,56.0,87.0
