,start,end,pitch,velocity
0,0.61904765,0.97023814375,80.0,86.0
1,0.8571429,1.1805556145833334,75.0,54.0
2,1.09523815,1.33928578125,80.0,89.0
3,1.3333334,1.62500008125,84.0,79.0
4,1.57142865,2.05357153125,82.0,102.0
5,2.04761915,2.2738096375,84.0,88.0
6,2.7619048999999998,3.033730310416667,75.0,93.0
7,2.2857144,3.2500001625,80.0,95.0
8,3.00000015,3.2500001625,80.0,97.0
9,3.2380954,3.4960319208333335,84.0,77.0
10,3.47619065,4.085317664583333,82.0,102.0
11,3.95238115,4.436508158333333,84.0,96.0
12,4.42857165,4.736111347916666,77.0,92.0
13,4.6666669,4.841270083333333,75.0,96.0
14,4.90476215,5.335317727083333,80.0,96.0
15,5.1428574,5.361111379166666,84.0,97.0
16,5.38095265,5.85714315,82.0,96.0
17,5.85714315,6.075397129166666,84.0,97.0
18,6.5714289,6.825397166666667,75.0,88.0
19,6.0952383999999995,6.880952725,77.0,92.0
20,6.80952415,7.0595241625,80.0,99.0
21,7.0476194,7.32738131875,84.0,85.0
22,7.28571465,7.882936902083333,82.0,107.0
23,7.76190515,8.23809565,84.0,96.0
24,8.210317870833332,8.448413120833333,80.0,95.0
25,8.4761909,8.757936945833332,75.0,72.0
26,8.71428615,8.968254416666667,80.0,88.0
27,8.9523814,9.234127445833334,84.0,72.0
28,9.19047665,9.787698902083333,82.0,102.0
29,9.66666715,9.93452430625,84.0,93.0
30,9.9047624,10.519841795833333,80.0,117.0
31,10.3809529,10.658730691666667,75.0,79.0
32,10.61904815,10.855159272916666,80.0,95.0
33,10.8571434,11.156746589583333,84.0,73.0
34,11.09523865,11.91071488125,82.0,107.0
35,11.57142915,12.031746633333332,84.0,96.0
36,12.04761965,12.2857149,77.0,97.0
37,12.2857149,12.52381015,75.0,97.0
38,12.52381015,12.734127620833334,80.0,97.0
39,12.7619054,13.003968904166667,84.0,78.0
40,13.00000065,13.585318139583332,82.0,97.0
41,13.47619115,13.664683222916667,84.0,89.0
42,13.7142864,14.1904769,77.0,92.0
43,14.1904769,14.428572149999999,75.0,97.0
44,14.428572149999999,14.6666674,80.0,97.0
45,14.6666674,14.90476265,84.0,97.0
46,14.90476265,15.343254735416666,82.0,99.0
47,15.38095315,16.261905575,84.0,100.0
48,18.23809615,18.319445360416665,75.0,86.0
49,18.4761914,20.257937520833334,77.0,89.0
50,22.04762015,22.16071539375,77.0,83.0
51,22.2857154,23.361112279166665,80.0,122.0
52,25.85714415,25.97023939375,75.0,85.0
53,26.0952394,26.89881086875,77.0,92.0
54,29.66666815,29.928572925,75.0,93.0
55,29.9047634,30.420636441666666,72.0,85.0
56,30.380953899999998,30.66071581875,75.0,85.0
57,30.61904915,30.85912852708333,72.0,76.0
58,30.8571444,31.763890477083333,70.0,85.0
59,33.00000165,33.2500016625,72.0,69.0
60,33.2380969,33.569446122916666,75.0,69.0
61,33.714287399999996,34.04960487708333,75.0,63.0
62,33.95238265,34.18650964583333,77.0,69.0
63,34.1904779,34.48214458125,80.0,85.0
64,34.42857315,34.6785731625,77.0,82.0
65,34.6666684,36.37301769166667,75.0,93.0
66,37.28571615,37.78968442916667,77.0,102.0
67,37.76190665,38.251986039583336,80.0,89.0
68,38.23809715,38.69444637916666,82.0,96.0
69,38.71428765,39.83928770625,84.0,96.0
70,45.38095465,45.67262133125,84.0,100.0
71,45.6190499,45.896827691666665,87.0,97.0
72,45.85714515,46.11111341666667,89.0,96.0
73,46.0952404,46.32738326875,87.0,96.0
74,46.33333565,47.6071452375,82.0,92.0
75,78.9523849,79.05555950833333,80.0,112.0
76,79.19048015,79.40675000208333,80.0,102.0
77,79.4285754,79.55357540625,77.0,85.0
78,79.66667065,79.86508335833334,77.0,93.0
79,79.9047659,80.16468654791666,80.0,96.0
80,80.14286115,80.57341672708333,82.0,92.0
81,80.61905165,80.92460722083334,82.0,122.0
82,81.09524215,81.3214326375,80.0,122.0
83,81.3333374,81.47619455,77.0,92.0
84,81.57143265,81.7261945625,77.0,83.0
85,81.8095279,81.92460727083333,75.0,97.0
86,82.04762314999999,82.34127395833333,75.0,107.0
87,82.2857184,82.404766025,77.0,102.0
88,82.52381365,82.74008350208334,74.0,107.0
89,82.52381365,82.90873430416667,77.0,99.0
90,82.7619089,82.90873430416667,77.0,112.0
91,83.2380994,83.53968671666667,77.0,97.0
92,83.47619465,83.65278196041666,79.0,117.0
93,83.7142899,83.96428991249999,82.0,127.0
94,83.95238515,84.21032167083334,79.0,90.0
95,84.1904804,85.61309951875,77.0,96.0
96,86.33333765,86.59127417083333,74.0,96.0
97,86.5714329,86.86508370833333,77.0,107.0
98,87.0476234,87.26389325208334,77.0,97.0
99,87.28571864999999,87.54960755208333,79.0,99.0
100,87.5238139,87.82341708958333,82.0,102.0
101,87.76190915,88.06151233958333,84.0,99.0
102,88.0000044,89.86706798541667,86.0,107.0
103,90.14286165,90.2261949875,86.0,112.0
104,90.3809569,90.45833785625,86.0,97.0
105,90.61905215,90.70635374166666,86.0,107.0
106,90.8571474,90.93056010208333,86.0,102.0
107,91.09524265,91.23413154583334,86.0,127.0
108,91.3333379,91.57341727708334,86.0,127.0
109,91.8095284,92.02182999791667,74.0,92.0
110,92.04762365,92.46627446458334,79.0,97.0
111,92.52381414999999,93.70635389166667,77.0,112.0
112,93.95238565,94.03770311458334,86.0,112.0
113,94.1904809,94.27183011041667,86.0,100.0
114,94.42857615,94.50794123333333,86.0,100.0
115,94.6666714,94.75000473749999,86.0,99.0
116,94.90476665,95.02778252916667,86.0,107.0
117,95.1428619,95.29167143125,86.0,95.0
118,95.6190524,95.70635399166666,82.0,99.0
119,95.85714765,96.18056036458333,82.0,122.0
120,96.33333815,97.5833382125,84.0,112.0
121,99.66667165,99.9166716625,74.0,69.0
122,99.9047669,100.23611612291667,77.0,69.0
123,100.3809574,100.71627487708334,77.0,63.0
124,100.61905265,100.85317964583334,79.0,69.0
125,100.8571479,101.14881458125,82.0,85.0
126,101.09524315,101.3452431625,79.0,82.0
127,101.3333384,103.03968769166667,77.0,93.0
128,103.95238615,104.45635442916667,79.0,102.0
129,104.42857665,104.91865603958333,82.0,89.0
130,104.90476715,105.36111637916666,84.0,96.0
131,105.38095765,106.50595770625,86.0,96.0
132,112.04762465,112.33929133125,86.0,100.0
133,112.2857199,112.56349769166667,89.0,97.0
134,112.52381515,112.77778341666667,91.0,96.0
135,112.7619104,112.99405326875,89.0,96.0
136,113.00000565,113.2261961375,74.0,99.0
137,113.23810089999999,113.55159297916667,77.0,96.0
138,113.7142914,113.93849776041667,77.0,97.0
139,113.95238665,114.18849777291666,79.0,99.0
140,114.1904819,114.47421207291667,82.0,112.0
141,114.42857715,114.67064065416666,79.0,89.0
142,114.6666724,116.29167248125,77.0,107.0
143,116.80952965,117.309529675,75.0,122.0
144,117.5238154,117.81349795416666,75.0,117.0
145,117.76191065,117.97421224791667,77.0,97.0
146,118.0000059,118.26587892916666,80.0,100.0
147,118.23810115,118.46627576458333,77.0,102.0
148,118.47619639999999,120.28770442708333,75.0,122.0
149,120.14286315,120.56746634583334,72.0,100.0
150,120.61905365,121.19246637708333,74.0,112.0
151,121.3333394,121.55357750625,77.0,86.0
152,121.57143465,121.78968862916666,79.0,95.0
153,121.8095299,122.07143467499999,82.0,112.0
154,122.04762515,122.26587912916666,79.0,99.0
155,122.2857204,123.95040302291666,77.0,92.0
156,124.42857765,124.61905385,81.0,99.0
157,124.6666729,124.98214910625,84.0,96.0
158,125.1428634,125.30357769375,84.0,100.0
159,125.38095865,125.58730786666666,86.0,99.0
160,125.6190539,125.8452443875,89.0,100.0
161,125.85714915,126.05159360416667,86.0,112.0
162,126.0952444,127.86508575833334,84.0,127.0
163,180.3809614,180.62302490416667,74.0,96.0
164,180.61905665,181.04365984583333,72.0,102.0
165,181.09524715,181.29961223958333,74.0,78.0
166,181.3333424,181.57143765,70.0,86.0
167,181.57143765,181.92262814375,74.0,86.0
168,181.8095329,182.13294561458332,79.0,54.0
169,182.04762815,182.29167578125,82.0,89.0
170,182.2857234,182.57739008125,86.0,79.0
171,182.52381865,183.00596153125,84.0,102.0
172,183.00000915,183.2261996375,86.0,88.0
173,183.7142949,183.98612031041665,77.0,93.0
174,183.2381044,184.2023901625,82.0,95.0
175,183.95239014999999,184.2023901625,82.0,97.0
176,184.1904854,184.44842192083334,86.0,77.0
177,184.42858065,185.03770766458334,84.0,102.0
178,184.90477115,185.38889815833332,86.0,96.0
179,185.38096165,185.68850134791666,79.0,92.0
180,185.6190569,185.79366008333332,77.0,96.0
181,185.85715215,186.28770772708333,82.0,96.0
182,186.0952474,186.31350137916667,86.0,97.0
183,186.33334265,186.80953315,84.0,96.0
184,186.80953315,187.02778712916665,86.0,97.0
185,187.5238189,187.77778716666666,77.0,88.0
186,187.0476284,187.833342725,79.0,92.0
187,187.76191415,188.0119141625,82.0,99.0
188,188.0000094,188.27977131875,86.0,85.0
189,188.23810465,188.83532690208332,84.0,107.0
190,188.71429515,188.95040627291667,86.0,96.0
191,188.95239039999998,189.45635867916667,82.0,95.0
192,189.19048565,189.45635867916667,82.0,107.0
193,189.4285809,189.71032694583334,77.0,72.0
194,189.66667615,189.92064441666668,82.0,88.0
195,189.9047714,190.18651744583335,86.0,72.0
196,190.14286665,190.74008890208333,84.0,102.0
197,190.61905715,190.88691430625,86.0,93.0
198,190.8571524,191.47223179583332,82.0,117.0
199,191.3333429,191.61112069166666,77.0,79.0
200,191.57143815,191.80754927291667,82.0,95.0
201,191.8095334,192.10913658958333,86.0,73.0
202,192.04762865,192.86310488125,84.0,107.0
203,192.52381915,192.98413663333332,86.0,96.0
204,193.00000965,193.34723188958333,79.0,97.0
205,193.47620015,193.68651762083334,82.0,97.0
206,193.7142954,193.95635890416668,86.0,78.0
207,193.95239065,194.53770813958334,84.0,97.0
208,194.42858114999999,194.61707322291667,86.0,89.0
209,194.6666764,195.25794627083334,79.0,92.0
210,195.1428669,195.40080342083334,86.0,96.0
211,195.6190574,195.76786693125,86.0,97.0
212,195.85715265,196.29564473541666,84.0,99.0
213,196.33334315,196.80953365,86.0,100.0
214,196.80953365,197.16072414375,74.0,86.0
215,197.0476289,197.37104161458333,79.0,54.0
216,197.28572415,197.52977178125,82.0,89.0
217,197.5238194,197.81548608125,86.0,79.0
218,197.76191465,198.24405753125,84.0,102.0
219,198.23810515,198.4642956375,86.0,88.0
220,198.9523909,199.22421631041667,77.0,93.0
221,198.4762004,199.4404861625,82.0,95.0
222,199.19048615,199.4404861625,82.0,97.0
223,199.42858139999998,199.68651792083332,86.0,77.0
224,199.66667665,200.27580366458332,84.0,102.0
225,200.14286715,200.62699415833333,86.0,96.0
226,200.61905765,200.92659734791667,79.0,92.0
227,200.8571529,201.03175608333333,77.0,96.0
228,201.09524815,201.52580372708334,82.0,96.0
229,201.3333434,201.55159737916665,86.0,97.0
230,201.57143865,202.04762915,84.0,96.0
231,202.04762915,202.26588312916667,86.0,97.0
232,202.2857244,203.071438725,79.0,92.0
