,start,end,pitch,velocity
0,0.61904765,1.4623016604166668,68.0,61.0
1,0.61904765,1.5496032520833334,63.0,66.0
2,0.61904765,2.44642869375,44.0,77.0
3,1.09523815,2.6746033083333334,56.0,34.0
4,2.2857144,2.880952525,60.0,53.0
5,1.57142865,2.9484128458333334,68.0,63.0
6,1.57142865,3.0515874541666665,63.0,67.0
7,2.7619048999999998,3.746031933333333,56.0,53.0
8,2.52380965,3.9087303541666665,44.0,65.0
9,3.2380954,4.2023811625,68.0,75.0
10,3.00000015,4.353174820833333,60.0,44.0
11,4.42857165,4.97023834375,60.0,50.0
12,4.42857165,4.984127233333333,68.0,81.0
13,4.42857165,4.998016122916667,65.0,63.0
14,5.1428574,5.248016135416667,60.0,35.0
15,4.42857165,6.14285745,41.0,63.0
16,4.6666669,6.341270158333333,48.0,55.0
17,4.90476215,6.448413020833334,53.0,66.0
18,5.85714315,6.54166699375,60.0,50.0
19,6.0952383999999995,6.682540016666667,65.0,54.0
20,5.1428574,6.861111454166666,68.0,89.0
21,6.33333365,7.480159104166667,41.0,48.0
22,6.5714289,7.5079368833333335,48.0,58.0
23,6.80952415,7.519841645833333,53.0,75.0
24,7.0476194,7.924603570833333,68.0,93.0
25,7.76190515,7.9722226208333336,65.0,55.0
26,8.23809565,8.287698827083334,56.0,37.0
27,8.23809565,8.478175027083333,60.0,59.0
28,8.23809565,8.7976194875,67.0,69.0
29,8.23809565,8.813492504166666,63.0,74.0
30,8.71428615,9.819444935416666,60.0,60.0
31,8.23809565,9.984127483333333,44.0,78.0
32,8.4761909,9.99404811875,56.0,56.0
33,9.9047624,10.474206872916666,60.0,55.0
34,8.9523814,10.5357148125,67.0,75.0
35,9.66666715,10.563492591666666,63.0,55.0
36,10.3809529,11.378968822916667,56.0,61.0
37,10.14285765,11.509921210416666,44.0,78.0
38,10.8571434,11.783730747916666,67.0,79.0
39,11.57142915,11.942460914583334,63.0,67.0
40,10.61904815,11.960318058333334,60.0,67.0
41,12.04761965,12.58928634375,60.0,62.0
42,12.04761965,12.611111741666667,68.0,83.0
43,12.04761965,12.634921266666666,65.0,74.0
44,12.04761965,13.783730847916667,41.0,66.0
45,12.52381015,13.894841964583334,53.0,70.0
46,12.2857149,13.99404831875,48.0,33.0
47,12.7619054,14.561508664583334,65.0,70.0
48,12.7619054,14.561508664583334,68.0,82.0
49,13.47619115,14.58928644375,60.0,41.0
50,14.428572149999999,14.593254697916667,53.0,53.0
51,14.1904769,14.61904835,48.0,52.0
52,13.95238165,14.628968985416666,41.0,71.0
53,14.6666674,15.335318227083333,65.0,79.0
54,14.6666674,15.373016641666666,68.0,90.0
55,15.85714365,16.166667475,60.0,64.0
56,15.85714365,16.376984945833332,63.0,89.0
57,16.0952389,16.932540529166666,56.0,88.0
58,16.33333415,17.33928658125,60.0,69.0
59,15.85714365,17.640873897916666,44.0,92.0
60,17.0476199,17.837302479166667,56.0,50.0
61,17.5238104,18.025794552083333,60.0,54.0
62,16.5714294,18.105159635416666,68.0,95.0
63,17.28571515,18.11309614375,63.0,53.0
64,18.23809615,18.61309616875,60.0,58.0
65,18.0000009,18.730159666666665,56.0,67.0
66,18.9523819,19.057540635416668,56.0,34.0
67,17.76190565,19.103175558333334,44.0,83.0
68,18.4761914,19.694445429166667,68.0,99.0
69,20.14285815,20.926588347916667,53.0,54.0
70,19.66666765,21.35119154375,41.0,66.0
71,19.9047629,21.537699489583332,48.0,60.0
72,21.3333344,21.605159810416666,53.0,48.0
73,20.3809534,21.63690584375,60.0,92.0
74,21.09523915,21.646826479166666,56.0,50.0
75,21.8095249,22.2738106375,48.0,42.0
76,21.57142965,22.32738206875,41.0,57.0
77,22.04762015,22.3809535,53.0,56.0
78,22.7619059,23.329366245833334,56.0,70.0
79,22.2857154,23.329366245833334,60.0,89.0
80,23.2380964,23.581350385416666,53.0,57.0
81,23.95238215,24.259921847916665,56.0,65.0
82,23.7142869,24.484128208333335,49.0,68.0
83,23.47619165,24.785715525,37.0,77.0
84,24.6666679,24.823413939583332,49.0,50.0
85,24.90476315,25.277779041666665,56.0,73.0
86,24.1904774,25.337302854166666,61.0,93.0
87,25.85714415,26.164683847916667,60.0,71.0
88,25.6190489,26.218255279166666,55.0,52.0
89,25.38095365,26.57738228125,48.0,81.0
90,26.5714299,27.198414058333334,60.0,74.0
91,26.0952394,27.253969616666666,63.0,100.0
92,27.0476204,27.31547755625,55.0,48.0
93,27.28571565,28.682541116666666,37.0,70.0
94,27.76190615,28.787699852083332,53.0,59.0
95,27.5238109,29.071430025,49.0,56.0
96,28.71428715,29.119049075,56.0,69.0
97,28.9523824,29.130953837499998,53.0,34.0
98,28.0000014,29.152779235416666,61.0,99.0
99,29.66666815,30.057541185416667,55.0,75.0
100,29.4285729,30.194445954166667,51.0,77.0
101,29.19047765,30.509922160416668,39.0,82.0
102,30.380953899999998,30.581350735416667,51.0,82.0
103,30.14285865,31.069445997916667,58.0,93.0
104,30.61904915,31.1071444125,55.0,73.0
105,29.9047634,31.119049175,63.0,107.0
106,31.57143015,32.12103335208333,51.0,78.0
107,31.8095254,32.18650954583333,56.0,95.0
108,31.09523965,32.78968417916666,44.0,102.0
109,32.2857159,32.86111275416667,51.0,63.0
110,31.3333349,32.873017516666664,48.0,54.0
111,32.52381115,33.23611277291667,60.0,26.0
112,32.04762065,33.52777945416667,63.0,102.0
113,32.7619064,33.605160410416666,56.0,59.0
114,33.47619215,34.09920805416667,51.0,67.0
115,33.2380969,34.31349377916666,48.0,36.0
116,34.1904779,34.38492235416667,51.0,59.0
117,33.00000165,34.41071600625,44.0,85.0
118,34.42857315,34.827382693749996,60.0,64.0
119,33.714287399999996,34.86706523541667,63.0,100.0
120,34.6666684,34.94246206458333,56.0,50.0
121,35.38095415,36.22817641458333,53.0,74.0
122,34.90476365,36.61904945,41.0,77.0
123,35.1428589,36.8571447,48.0,59.0
124,36.333335149999996,36.90277962291667,56.0,89.0
125,36.5714304,36.93452565625,53.0,57.0
126,35.6190494,37.12301772916667,60.0,89.0
127,37.28571615,37.64087489791667,53.0,73.0
128,37.0476209,37.775795539583335,48.0,61.0
129,36.80952565,37.88889078333333,41.0,79.0
130,37.5238114,38.57738288125,60.0,99.0
131,38.23809715,38.61111304166667,56.0,93.0
132,38.4761924,38.738097175,53.0,76.0
133,38.952382899999996,39.74404960625,49.0,66.0
134,39.9047639,40.07341470208333,49.0,58.0
135,38.71428765,40.09127184583333,37.0,92.0
136,39.19047815,40.200398835416664,53.0,65.0
137,40.14285915,40.51785916875,56.0,97.0
138,39.4285734,40.56150996458333,61.0,122.0
139,40.3809544,40.605160760416666,53.0,77.0
140,41.09524015,41.690478275,48.0,72.0
141,40.61904965,41.94841479583333,36.0,74.0
142,40.8571449,41.976192575,43.0,50.0
143,41.8095259,41.9880973375,48.0,60.0
144,42.04762115,42.456351329166665,60.0,97.0
145,41.3333354,42.49801799791667,63.0,112.0
146,42.7619069,43.41071645625,49.0,86.0
147,43.00000215,43.75595456875,61.0,71.0
148,43.2380974,43.878970447916664,65.0,79.0
149,43.2380974,43.88690695625,68.0,107.0
150,43.7142879,44.28770062708333,49.0,59.0
151,42.52381165,44.44246253958333,37.0,89.0
152,44.42857365,44.44246253958333,37.0,89.0
153,43.95238315,44.54365302083333,65.0,65.0
154,43.95238315,44.55357365625,68.0,50.0
155,43.95238315,44.5595260375,61.0,100.0
156,44.42857365,45.009922885416664,63.0,97.0
157,44.42857365,45.02579590208333,58.0,102.0
158,44.42857365,45.04563717291666,55.0,88.0
159,44.90476415,45.33531972708333,49.0,52.0
160,45.1428594,45.75595466875,58.0,100.0
161,45.1428594,45.82738324375,63.0,102.0
162,45.6190499,45.853176895833336,49.0,81.0
163,45.85714515,45.9166689625,58.0,33.0
164,45.85714515,46.19246262708333,55.0,95.0
165,46.33333565,47.063494416666664,58.0,112.0
166,46.33333565,47.210319820833334,61.0,93.0
167,46.33333565,47.430557927083335,46.0,96.0
168,46.33333565,47.567462695833335,65.0,82.0
169,47.5238119,47.6547642875,46.0,86.0
170,47.28571665,47.76190715,58.0,117.0
171,47.76190715,48.18254209166667,61.0,97.0
172,48.0000024,48.26785955625,58.0,100.0
173,48.71428815,49.08531991458333,53.0,83.0
174,48.4761929,49.21627230208333,48.0,69.0
175,49.428573899999996,49.57738343125,48.0,62.0
176,48.23809765,49.63293898958333,41.0,88.0
177,48.9523834,49.849208841666666,60.0,107.0
178,49.66666915,50.00198662708333,56.0,96.0
179,49.9047644,50.27182791041667,53.0,72.0
180,50.3809549,51.09722477708333,49.0,90.0
181,51.3333359,51.509923210416666,49.0,57.0
182,50.14285965,51.53373273541666,37.0,92.0
183,50.61905015,51.59722480208333,53.0,63.0
184,51.57143115,51.966272439583335,56.0,102.0
185,51.8095264,51.97222482083333,53.0,35.0
186,50.8571454,51.98611371041667,61.0,122.0
187,52.52381215,52.878970897916666,55.0,81.0
188,52.2857169,52.98214550625,43.0,60.0
189,52.047621649999996,53.35516139791667,36.0,81.0
190,53.2380979,53.3928598125,43.0,85.0
191,52.7619074,53.78373284791667,63.0,127.0
192,53.00000265,53.82738364375,60.0,66.0
193,53.47619315,53.93254237916667,55.0,83.0
194,54.42857415,54.9880979875,53.0,41.0
195,54.666669399999996,55.03373291041667,58.0,82.0
196,54.1904789,55.277780541666665,49.0,65.0
197,53.95238365,55.305558320833335,46.0,107.0
198,55.1428599,55.309526575,53.0,63.0
199,54.90476465,55.7976218375,65.0,76.0
200,55.38095515,55.86309803125,58.0,78.0
201,56.33333615,56.67659013541667,53.0,81.0
202,56.0952409,56.837304429166664,48.0,77.0
203,57.0476219,57.164685397916664,48.0,65.0
204,55.85714565,57.204367939583335,41.0,79.0
205,56.5714314,57.61111399166666,60.0,107.0
206,57.5238124,57.73214574375,53.0,72.0
207,57.285717149999996,57.742066379166666,56.0,102.0
208,58.0000029,58.7261934125,49.0,72.0
209,58.23809815,58.82539976666666,53.0,71.0
210,57.76190765,59.18849502291667,37.0,93.0
211,58.9523839,59.521828372916666,49.0,78.0
212,58.4761934,59.531749008333335,61.0,117.0
213,59.19047915,59.56944742291667,56.0,122.0
214,59.66666965,59.978177602083335,58.0,96.0
215,59.66666965,60.498018897916666,55.0,88.0
216,60.14286015,60.68651097083333,51.0,81.0
217,60.8571459,61.015876066666664,51.0,117.0
218,59.66666965,61.03174908333333,39.0,95.0
219,60.61905065,61.06746337083333,58.0,127.0
220,60.61905065,61.138891945833336,63.0,127.0
221,61.09524115,61.18651099583333,55.0,95.0
222,61.57143165,62.06151103958333,60.0,117.0
223,61.57143165,62.123018979166666,63.0,117.0
224,61.57143165,62.19643168125,56.0,107.0
225,62.04762215,62.57738408125,51.0,52.0
226,62.04762215,62.813495204166664,48.0,35.0
227,62.7619079,62.91865393958333,51.0,97.0
228,61.57143165,62.93452695625,44.0,107.0
229,62.523812649999996,62.962304735416666,60.0,127.0
230,62.523812649999996,63.023812675,63.0,127.0
231,63.00000315,63.09325712291667,56.0,96.0
232,63.47619365,64.05754288541667,53.0,95.0
233,63.47619365,64.2500032125,60.0,93.0
234,63.47619365,64.25793972083333,56.0,112.0
235,63.95238415,64.52579687708334,48.0,44.0
236,64.6666699,64.77579688958333,48.0,97.0
237,63.47619365,64.80754292291667,41.0,79.0
238,64.42857465,64.89484451458333,60.0,97.0
239,64.42857465,64.95635245416666,56.0,117.0
240,64.90476515,65.21627310208333,53.0,97.0
241,65.1428604,65.28373342291667,56.0,79.0
242,65.38095565,65.500003275,53.0,53.0
243,65.38095565,66.1785747375,61.0,122.0
244,65.38095565,66.19246362708333,56.0,122.0
245,65.85714615,66.36706681041666,49.0,78.0
246,65.38095565,66.74405095624999,37.0,102.0
247,66.33333664999999,66.833336675,56.0,127.0
248,66.33333664999999,66.86508270833333,61.0,127.0
249,66.5714319,66.87698747083333,49.0,95.0
250,66.80952715,66.91071763125,53.0,89.0
251,67.28571765,67.94246371458333,55.0,97.0
252,67.28571765,68.05555895833334,58.0,127.0
253,67.76190815,68.24206690416666,51.0,95.0
254,67.28571765,68.58730501666666,39.0,112.0
255,68.4761939,68.62698755833333,51.0,102.0
256,68.23809865,68.70833676875,58.0,122.0
257,68.23809865,68.75595581875,63.0,127.0
258,68.71428915,68.80159074166667,55.0,90.0
259,69.19047965,69.66865427708333,60.0,122.0
260,69.19047965,69.72024158125,63.0,117.0
261,69.19047965,69.81349555416666,56.0,107.0
262,69.19047965,70.24008287708334,51.0,99.0
263,70.14286065,70.39484478958333,48.0,22.0
264,70.3809559,70.54563844791667,51.0,93.0
265,69.19047965,70.547622575,44.0,39.0
266,70.14286065,70.57738448125,60.0,127.0
267,70.14286065,70.63492416666666,63.0,122.0
268,70.61905115,70.70635274166666,56.0,97.0
269,70.8571464,70.9166702125,56.0,34.0
270,71.09524165,71.6309559625,53.0,100.0
271,71.09524165,71.6547654875,56.0,107.0
272,71.09524165,71.68651152083333,60.0,97.0
273,71.57143214999999,72.12500360625,48.0,65.0
274,71.09524165,72.37698774583333,41.0,66.0
275,72.2857179,72.38889250833333,48.0,78.0
276,72.04762265,72.55555918333333,56.0,122.0
277,72.04762265,72.64682902916667,60.0,100.0
278,72.52381315,72.67659093541667,53.0,93.0
279,73.00000365,73.25198778958334,49.0,96.0
280,73.00000365,73.26984493333333,56.0,112.0
281,73.00000365,73.36111477916667,53.0,93.0
282,73.00000365,73.37301954166666,37.0,89.0
283,73.95238465,74.20635291666666,51.0,99.0
284,73.95238465,74.20833704374999,55.0,81.0
285,73.95238465,74.21032117083334,48.0,96.0
286,73.95238465,74.34722593958334,36.0,96.0
287,74.6666704,74.76587675416667,61.0,40.0
288,74.90476565,75.09722597708333,34.0,95.0
289,74.90476565,75.20040058541666,58.0,117.0
290,74.90476565,75.21825772916667,61.0,102.0
291,75.85714665,76.19246412708333,55.0,107.0
292,75.85714665,76.20040063541667,51.0,96.0
293,75.85714665,76.20436888958334,39.0,89.0
294,75.85714665,76.22024190625,46.0,89.0
295,75.85714665,76.25595619375,58.0,97.0
296,76.80952764999999,76.97222607083333,53.0,95.0
297,76.80952764999999,77.00198797708333,49.0,95.0
298,76.80952764999999,77.00198797708333,56.0,96.0
299,76.80952764999999,77.08532131458334,37.0,100.0
300,77.28571815,78.14087692291666,55.0,85.0
301,77.28571815,78.15674993958334,39.0,89.0
302,77.28571815,78.16865470208333,51.0,95.0
303,77.28571815,78.18254359166667,58.0,88.0
304,78.71428965,79.17659126041667,60.0,112.0
305,78.71428965,79.2500039625,63.0,97.0
306,78.71428965,79.43651190833333,56.0,100.0
307,78.71428965,79.71627382708333,51.0,92.0
308,79.19048015,80.13889289583334,48.0,43.0
309,78.71428965,80.16865480208334,44.0,71.0
310,79.66667065,80.19246432708333,60.0,117.0
311,79.9047659,80.21825797916667,51.0,60.0
312,79.66667065,80.3809564,63.0,107.0
313,80.14286115,80.45833735625,56.0,89.0
314,80.3809564,80.46230561041666,60.0,35.0
315,80.61905165,81.42659137291666,60.0,112.0
316,80.61905165,81.43254375416667,63.0,97.0
317,80.61905165,81.43452788125,56.0,95.0
318,80.61905165,81.67659138541667,51.0,102.0
319,81.8095279,81.95635330416667,51.0,96.0
320,80.61905165,81.97421044791666,44.0,95.0
321,81.57143265,82.06151203958333,60.0,102.0
322,81.57143265,82.0833374375,63.0,107.0
323,82.04762314999999,82.13690886875,56.0,85.0
324,82.52381365,83.0476232,65.0,97.0
325,83.00000415,83.09325812291667,46.0,36.0
326,82.52381365,83.27182956041666,62.0,99.0
327,82.52381365,83.28373432291667,58.0,127.0
328,83.2380994,83.70040101041667,46.0,51.0
329,83.47619465,84.25794072083333,65.0,93.0
330,82.52381365,84.28968675416667,34.0,102.0
331,83.47619465,84.29563913541666,58.0,127.0
332,83.47619465,84.29563913541666,62.0,102.0
333,83.95238515,84.40675025208333,46.0,73.0
334,84.42857565,84.9166709125,58.0,127.0
335,84.42857565,84.98214710625,65.0,97.0
336,84.42857565,85.02182964791666,62.0,102.0
337,84.90476615,85.40079792083333,46.0,72.0
338,85.38095665,85.69246460208333,65.0,89.0
339,84.42857565,85.71627412708334,34.0,92.0
340,85.6190519,85.77778206666666,46.0,102.0
341,85.38095665,85.81548048125,58.0,122.0
342,85.38095665,86.16270272083334,62.0,99.0
343,85.85714715,86.37500431875,57.0,107.0
344,86.33333765,87.09325832291667,62.0,96.0
345,86.33333765,87.11706784791667,58.0,102.0
346,86.80952815,87.59325834791666,50.0,59.0
347,87.28571864999999,88.05754408541667,62.0,96.0
348,86.33333765,88.0595282125,43.0,77.0
349,87.28571864999999,88.06746472083333,55.0,96.0
350,87.28571864999999,88.06944884791666,58.0,117.0
351,87.76190915,88.22817901458333,50.0,38.0
352,88.23809965,89.00794095833334,62.0,92.0
353,88.23809965,89.00992508541667,58.0,112.0
354,88.23809965,89.0119092125,55.0,96.0
355,88.71429015,89.31151240208334,50.0,56.0
356,88.23809965,89.55159177916667,43.0,82.0
357,89.4285759,89.55754416041667,50.0,77.0
358,89.19048065,89.64087749791666,62.0,99.0
359,89.19048065,89.7142902,58.0,127.0
360,89.66667115,89.94841719583333,55.0,100.0
361,90.14286165,90.88690930625,55.0,99.0
362,90.14286165,90.93254422916667,58.0,127.0
363,90.14286165,90.93254422916667,63.0,117.0
364,90.14286165,91.09127439583334,51.0,85.0
365,90.14286165,91.45635377916666,39.0,92.0
366,91.3333379,91.48214743125,51.0,74.0
367,91.09524265,91.49802044791666,55.0,92.0
368,91.09524265,91.50198870208334,58.0,112.0
369,91.09524265,91.52976648125,63.0,117.0
370,92.04762365,92.8214332125,62.0,99.0
371,92.04762365,92.8214332125,65.0,100.0
372,92.04762365,92.82540146666666,57.0,107.0
373,92.52381414999999,93.0595284625,45.0,45.0
374,92.04762365,93.09325862291666,38.0,76.0
375,93.00000465,93.11508402083334,65.0,88.0
376,93.00000465,93.14881418125,62.0,99.0
377,93.00000465,93.2023856125,57.0,99.0
378,93.95238565,94.68452854375,55.0,92.0
379,93.95238565,94.69841743333333,62.0,97.0
380,93.95238565,94.72222695833334,58.0,107.0
381,93.95238565,94.93254442916667,51.0,95.0
382,95.1428619,95.30357619375,51.0,77.0
383,93.95238565,95.3214333375,39.0,97.0
384,94.90476665,95.44444921666667,58.0,127.0
385,94.90476665,95.45635397916666,55.0,93.0
386,94.90476665,95.47222699583334,62.0,95.0
387,95.85714765,96.25198893958333,57.0,100.0
388,95.85714765,96.261909575,53.0,96.0
389,95.85714765,96.261909575,60.0,107.0
390,96.33333815,96.97222707083333,48.0,72.0
391,95.85714765,97.738100125,41.0,79.0
392,96.80952865,97.76786203125,53.0,95.0
393,96.80952865,97.77183028541667,57.0,102.0
394,96.80952865,97.78968742916666,60.0,107.0
395,97.28571915,97.79365568333333,48.0,93.0
396,98.23810015,98.78770335208333,53.0,78.0
397,98.4761954,98.85317954583333,58.0,95.0
398,97.76190964999999,99.45635417916667,46.0,102.0
399,98.9523859,99.52778275416667,53.0,63.0
400,98.0000049,99.53968751666666,50.0,54.0
401,99.19048115,99.90278277291667,62.0,26.0
402,98.71429065,100.19444945416667,65.0,102.0
403,99.4285764,100.27183041041667,58.0,59.0
404,100.14286215,100.76587805416666,53.0,67.0
405,99.9047669,100.98016377916666,50.0,36.0
406,100.8571479,101.05159235416667,53.0,59.0
407,99.66667165,101.07738600625,46.0,85.0
408,101.09524315,101.49405269374999,62.0,64.0
409,100.3809574,101.53373523541667,65.0,100.0
410,101.3333384,101.60913206458333,58.0,50.0
411,102.04762415,102.89484641458333,55.0,74.0
412,101.57143365,103.28571945,43.0,77.0
413,101.8095289,103.5238147,50.0,59.0
414,103.00000514999999,103.56944962291666,58.0,89.0
415,103.2381004,103.60119565625,55.0,57.0
416,102.2857194,103.78968772916667,62.0,89.0
417,103.95238615,104.30754489791667,55.0,73.0
418,103.7142909,104.44246553958334,50.0,61.0
419,103.47619565,104.55556078333333,43.0,79.0
420,104.1904814,105.24405288125,62.0,99.0
421,104.90476715,105.27778304166667,58.0,93.0
422,105.1428624,105.404767175,55.0,76.0
423,105.6190529,106.41071960625,51.0,66.0
424,106.5714339,106.74008470208334,51.0,58.0
425,105.38095765,106.75794184583333,39.0,92.0
426,105.85714815,106.86706883541666,55.0,65.0
427,106.80952915,107.18452916875,58.0,97.0
428,106.0952434,107.22817996458333,63.0,122.0
429,107.0476244,107.27183076041666,55.0,77.0
430,107.76191015,108.357148275,50.0,72.0
431,107.28571965,108.61508479583333,38.0,74.0
432,107.5238149,108.642862575,45.0,50.0
433,108.4761959,108.6547673375,50.0,60.0
434,108.71429115,109.12302132916666,62.0,97.0
435,108.00000539999999,109.16468799791667,65.0,112.0
436,109.4285769,110.07738645625,51.0,86.0
437,109.66667215,110.42262456875,63.0,71.0
438,109.9047674,110.54564044791667,67.0,79.0
439,109.9047674,110.55357695625,70.0,107.0
440,110.3809579,110.95437062708334,51.0,59.0
441,109.19048165,111.10913253958333,39.0,89.0
442,110.61905315,111.21032302083333,67.0,65.0
443,110.61905315,111.22024365625,70.0,50.0
444,110.61905315,111.2261960375,63.0,100.0
445,111.09524365,111.67659288541667,65.0,97.0
446,111.09524365,111.69246590208333,60.0,102.0
447,111.09524365,111.71230717291667,57.0,88.0
448,111.57143415,112.00198972708333,51.0,52.0
449,111.8095294,112.42262466875,60.0,100.0
450,111.09524365,112.43452943125,41.0,89.0
451,111.8095294,112.49405324375,65.0,102.0
452,112.2857199,112.51984689583334,51.0,81.0
453,112.52381515,112.5833389625,60.0,33.0
454,112.52381515,112.85913262708333,57.0,95.0
455,113.00000565,113.6190533,74.0,95.0
456,113.00000565,113.77976759375,65.0,89.0
457,113.00000565,113.8214342625,70.0,107.0
458,113.47619614999999,114.119053325,58.0,73.0
459,113.95238665,114.55754541041667,70.0,122.0
460,113.95238665,114.76786288125,74.0,97.0
461,113.00000565,114.76984700833333,46.0,107.0
462,113.95238665,114.77976764375,65.0,90.0
463,114.42857715,114.85119621875,58.0,57.0
464,114.90476765,115.78175182083334,74.0,100.0
465,114.90476765,115.78968832916667,65.0,92.0
466,114.90476765,115.79564071041666,70.0,117.0
467,115.85714865,116.25397406666667,70.0,97.0
468,115.85714865,116.26389470208333,74.0,96.0
469,115.85714865,116.31151375208333,65.0,74.0
470,116.80952965,117.32937094583333,72.0,112.0
471,116.80952965,117.37897412291666,75.0,122.0
472,116.80952965,117.404767775,68.0,102.0
473,117.28572015,118.03770431458334,56.0,58.0
474,117.76191065,118.38294242708334,72.0,117.0
475,117.76191065,118.54167259375,68.0,100.0
476,116.80952965,118.55357735625,44.0,102.0
477,117.76191065,118.56151386458333,75.0,117.0
478,118.23810115,118.61706942291667,56.0,89.0
479,118.71429164999999,119.15079960833333,72.0,117.0
480,118.71429164999999,119.21230754791667,68.0,102.0
481,118.71429164999999,119.28770437708333,75.0,112.0
482,119.4285774,119.52579962708333,72.0,31.0
483,118.71429164999999,119.67262503124999,56.0,67.0
484,119.66667265,119.69445042916666,68.0,66.0
485,118.71429164999999,119.99206949166667,44.0,100.0
486,119.66667265,120.13691076875,72.0,127.0
487,119.9047679,120.14683140416666,56.0,96.0
488,119.66667265,120.166672675,75.0,127.0
489,120.14286315,120.24008537708333,68.0,96.0
490,120.61905365,121.37897432291666,65.0,97.0
491,120.61905365,121.38889495833334,74.0,97.0
492,120.61905365,121.41468861041666,70.0,112.0
493,120.61905365,121.83730767916667,58.0,100.0
494,121.57143465,122.09326007291666,74.0,97.0
495,121.57143465,122.14881563125,70.0,127.0
496,121.57143465,122.15675213958333,65.0,96.0
497,122.04762515,122.84722836458333,58.0,90.0
498,122.52381565,123.26984743333333,65.0,92.0
499,122.52381565,123.28968870416666,70.0,112.0
500,122.52381565,123.29564108541666,74.0,88.0
501,123.00000615,123.5238157,58.0,82.0
502,123.71429189999999,123.84127603333333,58.0,92.0
503,120.61905365,123.85516492291667,46.0,100.0
504,123.47619665,123.99206969166667,70.0,127.0
505,123.47619665,124.01389508958333,74.0,93.0
506,123.95238714999999,124.26389510208334,65.0,107.0
507,124.42857765,125.17460943333333,65.0,102.0
508,124.42857765,125.18849832291667,72.0,112.0
509,124.42857765,125.24008562708333,69.0,102.0
510,124.90476815,125.54167294375,53.0,56.0
511,125.38095865,125.89484756458333,65.0,97.0
512,125.38095865,126.01587931666667,69.0,107.0
513,126.0952444,126.15278408541667,65.0,44.0
514,125.38095865,126.15873646666667,72.0,97.0
515,125.85714915,126.51786346875,53.0,92.0
516,126.33333965,126.85913332708333,65.0,99.0
517,126.33333965,126.88294285208333,69.0,112.0
518,126.33333965,126.89683174166666,72.0,97.0
519,126.80953015,127.31151430208334,53.0,64.0
520,127.5238159,127.93849846041667,53.0,90.0
521,124.42857765,128.22222863333334,41.0,90.0
522,127.28572065,128.23611752291666,69.0,112.0
523,127.28572065,128.24603815833333,72.0,122.0
524,127.76191115,128.25397466666666,65.0,99.0
525,128.23810165,128.96826041666665,60.0,112.0
526,128.23810165,129.11508582083334,63.0,93.0
527,128.23810165,129.33532392708332,48.0,96.0
528,128.23810165,129.47222869583334,67.0,82.0
529,129.4285779,129.5595302875,48.0,86.0
530,129.19048265,129.66667315,60.0,117.0
531,129.66667315,130.08730809166667,63.0,97.0
532,129.9047684,130.17262555625,60.0,100.0
533,130.61905415,130.99008591458332,55.0,83.0
534,130.3809589,131.12103830208332,50.0,69.0
535,131.3333399,131.48214943125,50.0,62.0
536,130.14286365,131.53770498958332,43.0,88.0
537,130.8571494,131.75397484166666,62.0,107.0
538,131.57143514999999,131.90675262708334,58.0,96.0
539,131.8095304,132.17659391041667,55.0,72.0
540,132.2857209,133.00199077708334,51.0,90.0
541,133.2381019,133.41468921041667,51.0,57.0
542,132.04762565,133.43849873541666,39.0,92.0
543,132.52381615,133.50199080208333,55.0,63.0
544,133.47619715,133.87103843958334,58.0,102.0
545,133.7142924,133.87699082083333,55.0,35.0
546,132.7619114,133.89087971041667,63.0,122.0
547,134.42857815,134.78373689791667,57.0,81.0
548,134.1904829,134.88691150625,45.0,60.0
549,133.95238765,135.25992739791667,38.0,81.0
550,135.1428639,135.2976258125,45.0,85.0
551,134.6666734,135.68849884791666,65.0,127.0
552,134.90476865,135.73214964375,62.0,66.0
553,135.38095915,135.83730837916667,57.0,83.0
554,136.33334015,136.8928639875,55.0,41.0
555,136.5714354,136.93849891041666,60.0,82.0
556,136.0952449,137.18254654166665,51.0,65.0
557,135.85714965,137.21032432083334,48.0,107.0
558,137.04762589999999,137.214292575,55.0,63.0
559,136.80953065,137.7023878375,67.0,76.0
560,137.28572115,137.76786403124999,60.0,78.0
561,138.23810215,138.58135613541666,55.0,81.0
562,138.0000069,138.74207042916666,50.0,77.0
563,138.9523879,139.06945139791665,50.0,65.0
564,137.76191165,139.10913393958333,43.0,79.0
565,138.4761974,139.51587999166668,62.0,107.0
566,139.4285784,139.63691174375,55.0,72.0
567,139.19048315,139.64683237916665,58.0,102.0
568,139.9047689,140.6309594125,51.0,72.0
569,140.14286415,140.73016576666666,55.0,71.0
570,139.66667365,141.09326102291666,39.0,93.0
571,140.8571499,141.42659437291667,51.0,78.0
572,140.3809594,141.43651500833334,63.0,117.0
573,141.09524515,141.47421342291668,58.0,122.0
574,141.57143565,141.88294360208334,60.0,96.0
575,141.57143565,142.40278489791666,57.0,88.0
576,142.04762614999999,142.59127697083332,53.0,81.0
577,142.7619119,142.92064206666666,53.0,117.0
578,141.57143565,142.93651508333332,41.0,95.0
579,142.52381665,142.97222937083333,60.0,127.0
580,142.52381665,143.04365794583333,65.0,127.0
581,143.00000715,143.09127699583334,57.0,95.0
582,143.47619765,143.96627703958333,62.0,117.0
583,143.47619765,144.02778497916665,65.0,117.0
584,143.47619765,144.10119768125,58.0,107.0
585,143.95238815,144.48215008125,53.0,52.0
586,143.95238815,144.71826120416665,50.0,35.0
587,144.6666739,144.82341993958335,53.0,97.0
588,143.47619765,144.83929295625,46.0,107.0
589,144.42857865,144.86707073541666,62.0,127.0
590,144.42857865,144.928578675,65.0,127.0
591,144.90476915,144.99802312291666,58.0,96.0
592,145.38095965,145.96230888541666,55.0,95.0
593,145.38095965,146.15476921249999,62.0,93.0
594,145.38095965,146.16270572083334,58.0,112.0
595,145.85715015,146.43056287708333,50.0,44.0
596,146.5714359,146.68056288958334,50.0,97.0
597,145.38095965,146.71230892291666,43.0,79.0
598,146.33334065,146.79961051458332,62.0,97.0
599,146.33334065,146.86111845416667,58.0,117.0
600,146.80953115,147.12103910208333,55.0,97.0
601,147.0476264,147.18849942291666,58.0,79.0
602,147.28572165,147.404769275,55.0,53.0
603,147.28572165,148.0833407375,63.0,122.0
604,147.28572165,148.09722962708332,58.0,122.0
605,147.76191215,148.27183281041667,51.0,78.0
606,147.28572165,148.64881695625,39.0,102.0
607,148.23810265,148.738102675,58.0,127.0
608,148.23810265,148.76984870833334,63.0,127.0
609,148.4761979,148.78175347083334,51.0,95.0
610,148.71429315,148.81548363125,55.0,89.0
611,149.19048365,149.84722971458334,57.0,97.0
612,149.19048365,149.96032495833333,60.0,127.0
613,149.66667415,150.14683290416667,53.0,95.0
614,149.19048365,150.49207101666667,41.0,112.0
615,150.3809599,150.53175355833332,53.0,102.0
616,150.14286465,150.61310276875,60.0,122.0
617,150.14286465,150.66072181875,65.0,127.0
618,150.61905515,150.70635674166667,57.0,90.0
619,151.09524565,151.57342027708333,62.0,122.0
620,151.09524565,151.62500758125,65.0,117.0
621,151.09524565,151.71826155416667,58.0,107.0
622,151.09524565,152.14484887708332,53.0,99.0
623,152.04762665,152.29961078958334,50.0,22.0
624,152.2857219,152.45040444791667,53.0,93.0
625,151.09524565,152.452388575,46.0,39.0
626,152.04762665,152.48215048125,62.0,127.0
627,152.04762665,152.53969016666667,65.0,122.0
628,152.52381714999999,152.61111874166667,58.0,97.0
629,152.7619124,152.8214362125,58.0,34.0
630,153.00000765,153.5357219625,55.0,100.0
631,153.00000765,153.5595314875,58.0,107.0
632,153.00000765,153.59127752083333,62.0,97.0
633,153.47619815,154.02976960625,50.0,65.0
634,153.00000765,154.28175374583333,43.0,66.0
635,154.1904839,154.29365850833332,50.0,78.0
636,153.95238865,154.46032518333334,58.0,122.0
637,153.95238865,154.55159502916666,62.0,100.0
638,154.42857915,154.58135693541666,55.0,93.0
639,154.90476965,155.15675378958332,51.0,96.0
640,154.90476965,155.17461093333333,58.0,112.0
641,154.90476965,155.26588077916668,55.0,93.0
642,154.90476965,155.27778554166667,39.0,89.0
643,155.85715065,156.11111891666667,53.0,99.0
644,155.85715065,156.11310304375,57.0,81.0
645,155.85715065,156.11508717083333,50.0,96.0
646,155.85715065,156.25199193958332,38.0,96.0
647,156.5714364,156.67064275416666,63.0,40.0
648,156.80953165,157.00199197708332,36.0,95.0
649,156.80953165,157.10516658541667,60.0,117.0
650,156.80953165,157.12302372916668,63.0,102.0
651,157.76191265,158.09723012708332,57.0,107.0
652,157.76191265,158.10516663541665,53.0,96.0
653,157.76191265,158.10913488958334,41.0,89.0
654,157.76191265,158.12500790625,48.0,89.0
655,157.76191265,158.16072219375,60.0,97.0
656,158.71429365,158.87699207083332,55.0,95.0
657,158.71429365,158.90675397708333,51.0,95.0
658,158.71429365,158.90675397708333,58.0,96.0
659,158.71429365,158.99008731458332,39.0,100.0
660,159.19048415,160.04564292291667,57.0,85.0
661,159.19048415,160.06151593958333,41.0,89.0
662,159.19048415,160.07342070208333,53.0,95.0
663,159.19048415,160.08730959166667,60.0,88.0
664,160.61905565,161.023817575,74.0,95.0
665,160.61905565,161.05357948125,70.0,107.0
666,161.09524615,161.36111917916668,70.0,77.0
667,161.09524615,161.36707156041666,74.0,90.0
668,160.61905565,161.39881759375,65.0,97.0
669,160.61905565,161.58532553958332,58.0,93.0
670,160.61905565,161.63294458958333,46.0,93.0
671,161.57143665,161.76786523125,65.0,107.0
672,161.57143665,161.81746840833333,70.0,127.0
673,161.57143665,161.8214366625,74.0,107.0
674,161.8095319,162.49802399791668,58.0,102.0
675,162.04762715,162.49802399791668,70.0,112.0
676,162.04762715,162.49802399791668,74.0,99.0
677,162.04762715,162.51588114166665,65.0,97.0
678,161.8095319,162.53969066666667,46.0,78.0
679,162.52381765,162.53969066666667,46.0,107.0
680,162.52381765,163.01389703958333,62.0,117.0
681,162.52381765,163.07540497916668,65.0,117.0
682,162.52381765,163.14881768125,58.0,107.0
683,163.00000814999999,163.52977008125,53.0,52.0
684,163.00000814999999,163.76588120416667,50.0,35.0
685,163.7142939,163.87103993958334,53.0,97.0
686,163.47619865,163.91469073541666,62.0,127.0
687,163.47619865,163.976198675,65.0,127.0
688,163.95238915,164.04564312291666,58.0,96.0
689,164.42857965,165.00992888541666,55.0,95.0
690,164.42857965,165.2023892125,62.0,93.0
691,164.42857965,165.21032572083334,58.0,112.0
692,164.90477015,165.47818287708333,50.0,44.0
693,165.6190559,165.72818288958334,50.0,97.0
694,164.42857965,165.75992892291666,43.0,79.0
695,165.38096065,165.84723051458334,62.0,97.0
696,165.38096065,165.90873845416667,58.0,117.0
697,165.85715115,166.16865910208332,55.0,97.0
698,166.0952464,166.23611942291666,58.0,79.0
699,166.33334165,166.452389275,55.0,53.0
700,166.33334165,167.1309607375,63.0,122.0
701,166.33334165,167.14484962708335,58.0,122.0
702,166.80953215,167.31945281041666,51.0,78.0
703,166.33334165,167.69643695625,39.0,102.0
704,167.28572265,167.785722675,58.0,127.0
705,167.28572265,167.81746870833334,63.0,127.0
706,167.5238179,167.82937347083333,51.0,95.0
707,167.76191315,167.86310363125,55.0,89.0
708,168.23810365,168.89484971458333,57.0,97.0
709,168.23810365,169.00794495833333,60.0,127.0
710,168.71429415,169.19445290416667,53.0,95.0
711,168.23810365,169.53969101666667,41.0,112.0
712,169.4285799,169.57937355833334,53.0,102.0
713,169.19048465,169.66072276875,60.0,122.0
714,169.19048465,169.70834181875,65.0,127.0
715,169.66667515,169.75397674166666,57.0,90.0
716,170.14286565,170.62104027708332,62.0,122.0
717,170.14286565,170.67262758125,65.0,117.0
718,170.14286565,170.76588155416667,58.0,107.0
719,170.14286565,171.19246887708334,53.0,99.0
720,171.09524665,171.34723078958334,50.0,22.0
721,171.3333419,171.49802444791666,53.0,93.0
722,170.14286565,171.500008575,46.0,39.0
723,171.09524665,171.52977048125,62.0,127.0
724,171.09524665,171.58731016666667,65.0,122.0
725,171.57143715,171.65873874166667,58.0,97.0
726,171.8095324,171.8690562125,58.0,34.0
727,172.04762765,172.5833419625,55.0,100.0
728,172.04762765,172.6071514875,58.0,107.0
729,172.04762765,172.63889752083332,62.0,97.0
730,172.52381815,173.07738960625,50.0,65.0
731,172.04762765,173.32937374583332,43.0,66.0
732,173.2381039,173.34127850833332,50.0,78.0
733,173.00000865,173.50794518333333,58.0,122.0
734,173.00000865,173.59921502916666,62.0,100.0
735,173.47619914999999,173.62897693541666,55.0,93.0
736,173.95238965,174.20437378958334,51.0,96.0
737,173.95238965,174.22223093333332,58.0,112.0
738,173.95238965,174.31350077916667,55.0,93.0
739,173.95238965,174.32540554166667,39.0,89.0
740,174.90477065,175.15873891666666,53.0,99.0
741,174.90477065,175.16072304375,57.0,81.0
742,174.90477065,175.16270717083333,50.0,96.0
743,174.90477065,175.29961193958334,38.0,96.0
744,175.6190564,175.71826275416666,63.0,40.0
745,175.85715165,176.04961197708334,36.0,95.0
746,175.85715165,176.15278658541666,60.0,117.0
747,175.85715165,176.17064372916667,63.0,102.0
748,176.80953265,177.14485012708334,57.0,107.0
749,176.80953265,177.15278663541667,53.0,96.0
750,176.80953265,177.15675488958334,41.0,89.0
751,176.80953265,177.17262790625,48.0,89.0
752,176.80953265,177.20834219374998,60.0,97.0
753,177.76191365,177.92461207083332,55.0,95.0
754,177.76191365,177.95437397708332,51.0,95.0
755,177.76191365,177.95437397708332,58.0,96.0
756,177.76191365,178.03770731458334,39.0,100.0
757,178.23810415,179.09326292291667,57.0,85.0
758,178.23810415,179.10913593958333,41.0,89.0
759,178.23810415,179.12104070208332,53.0,95.0
760,178.23810415,179.13492959166666,60.0,88.0
761,179.66667565,180.12897726041666,62.0,112.0
762,179.66667565,180.2023899625,65.0,97.0
763,179.66667565,180.38889790833332,58.0,100.0
764,179.66667565,180.66865982708333,53.0,92.0
765,180.14286615,181.09127889583334,50.0,43.0
766,179.66667565,181.12104080208334,46.0,71.0
767,180.61905665,181.14485032708333,62.0,117.0
768,180.8571519,181.17064397916667,53.0,60.0
769,180.61905665,181.3333424,65.0,107.0
770,181.09524715,181.41072335625,58.0,89.0
771,181.3333424,181.41469161041667,62.0,35.0
772,181.57143765,182.41469166041668,69.0,61.0
773,181.57143765,182.50199325208334,65.0,66.0
774,181.57143765,183.39881869375,46.0,77.0
775,182.04762815,183.62699330833334,58.0,34.0
776,183.2381044,183.833342525,62.0,53.0
777,182.52381865,183.90080284583334,69.0,63.0
778,182.52381865,184.00397745416666,65.0,67.0
779,183.7142949,184.69842193333332,58.0,53.0
780,183.47619965,184.86112035416667,46.0,65.0
781,184.1904854,185.1547711625,69.0,75.0
782,183.95239014999999,185.30556482083333,62.0,44.0
783,185.38096165,185.92262834375,62.0,50.0
784,185.38096165,185.93651723333332,70.0,81.0
785,185.38096165,185.95040612291666,67.0,63.0
786,186.0952474,186.20040613541667,62.0,35.0
787,185.38096165,187.09524745,43.0,63.0
788,185.6190569,187.29366015833332,50.0,55.0
789,185.85715215,187.40080302083334,55.0,66.0
790,186.80953315,187.49405699375,62.0,50.0
791,187.0476284,187.63493001666666,67.0,54.0
792,186.0952474,187.81350145416667,70.0,89.0
793,187.28572365,188.43254910416667,43.0,48.0
794,187.5238189,188.46032688333332,50.0,58.0
795,187.76191415,188.47223164583332,55.0,75.0
796,188.0000094,188.87699357083332,70.0,93.0
797,188.71429515,188.92461262083333,67.0,55.0
798,189.19048565,189.24008882708333,58.0,37.0
799,189.19048565,189.43056502708333,62.0,59.0
800,189.19048565,189.7500094875,69.0,69.0
801,189.19048565,189.76588250416665,65.0,74.0
802,189.66667615,190.77183493541668,62.0,60.0
803,189.19048565,190.93651748333332,46.0,78.0
804,189.4285809,190.94643811875,58.0,56.0
805,190.8571524,191.42659687291666,62.0,55.0
806,189.9047714,191.4881048125,69.0,75.0
807,190.61905715,191.51588259166667,65.0,55.0
808,191.3333429,192.33135882291666,58.0,61.0
809,191.09524765,192.46231121041666,46.0,78.0
810,191.8095334,192.73612074791666,69.0,79.0
811,192.52381915,192.89485091458334,65.0,67.0
812,191.57143815,192.91270805833332,62.0,67.0
813,193.00000965,193.54167634375,62.0,62.0
814,193.00000965,193.56350174166667,70.0,83.0
815,193.00000965,193.58731126666666,67.0,74.0
816,193.00000965,194.73612084791665,43.0,66.0
817,193.47620015,194.84723196458333,55.0,70.0
818,193.2381049,194.94643831875,50.0,33.0
819,193.7142954,195.51389866458334,67.0,70.0
820,193.7142954,195.51389866458334,70.0,82.0
821,194.42858114999999,195.54167644375,62.0,41.0
822,195.38096215,195.54564469791666,55.0,53.0
823,195.1428669,195.57143835,50.0,52.0
824,194.90477165,195.58135898541667,43.0,71.0
825,195.6190574,196.28770822708333,67.0,79.0
826,195.6190574,196.32540664166666,70.0,90.0
827,196.80953365,197.65278766041666,69.0,61.0
828,196.80953365,197.74008925208332,65.0,66.0
829,196.80953365,198.63691469375,46.0,77.0
830,197.28572415,198.86508930833332,58.0,34.0
831,198.4762004,199.071438525,62.0,53.0
832,197.76191465,199.13889884583332,69.0,63.0
833,197.76191465,199.24207345416667,65.0,67.0
834,198.9523909,199.93651793333333,58.0,53.0
835,198.71429565,200.09921635416666,46.0,65.0
836,199.42858139999998,200.3928671625,69.0,75.0
837,199.19048615,200.54366082083334,62.0,44.0
838,200.61905765,201.16072434375,62.0,50.0
839,200.61905765,201.17461323333333,70.0,81.0
840,200.61905765,201.18850212291667,67.0,63.0
841,201.3333434,201.43850213541666,62.0,35.0
842,200.61905765,202.33334345,43.0,63.0
843,200.8571529,202.52381965,50.0,55.0
844,201.09524815,202.52381965,55.0,66.0
845,202.04762915,202.52381965,62.0,50.0
846,202.2857244,202.52381965,67.0,54.0
847,201.3333434,202.52381965,70.0,89.0
