,start,end,pitch,velocity
0,28.939062500000002,29.45625,70.0,86.0
1,29.689062500000002,30.134375000000002,70.0,83.0
2,30.064062500000002,30.3515625,73.0,87.0
3,30.439062500000002,30.7109375,68.0,81.0
4,30.814062500000002,31.0921875,70.0,83.0
5,31.189062500000002,31.4765625,66.0,81.0
6,31.564062500000002,31.834375,63.0,81.0
7,31.939062500000002,33.1421875,61.0,82.0
8,34.9390625,35.2234375,63.0,81.0
9,35.3140625,35.596875000000004,66.0,81.0
10,35.6890625,35.987500000000004,66.0,82.0
11,36.0640625,36.3265625,63.0,83.0
12,36.4390625,36.721875000000004,75.0,87.0
13,36.8140625,37.0828125,73.0,81.0
14,37.1890625,37.5125,66.0,82.0
15,37.5640625,37.88125,70.0,76.0
16,37.9390625,39.9296875,68.0,77.0
17,40.939062500000006,41.212500000000006,68.0,78.0
18,41.314062500000006,41.5625,68.0,80.0
19,41.689062500000006,41.98125,68.0,81.0
20,42.064062500000006,42.368750000000006,66.0,80.0
21,42.439062500000006,43.017187500000006,68.0,80.0
22,43.189062500000006,43.44375,70.0,80.0
23,43.564062500000006,43.831250000000004,73.0,80.0
24,43.939062500000006,44.5515625,70.0,80.0
25,44.689062500000006,44.987500000000004,68.0,77.0
26,45.064062500000006,45.4046875,66.0,78.0
27,45.439062500000006,46.575,63.0,80.0
28,46.939062500000006,47.184375,68.0,76.0
29,47.314062500000006,47.590625,68.0,75.0
30,47.689062500000006,47.95,68.0,77.0
31,48.064062500000006,48.3359375,70.0,80.0
32,48.439062500000006,48.712500000000006,68.0,80.0
33,48.814062500000006,49.090625,66.0,79.0
34,49.189062500000006,49.493750000000006,66.0,79.0
35,49.564062500000006,49.8484375,63.0,79.0
36,49.939062500000006,52.278125,68.0,72.0
37,52.939062500000006,53.456250000000004,70.0,86.0
38,53.689062500000006,54.134375000000006,70.0,83.0
39,54.064062500000006,54.3515625,73.0,87.0
40,54.439062500000006,54.7109375,68.0,81.0
41,54.814062500000006,55.0921875,70.0,83.0
42,55.189062500000006,55.4765625,66.0,81.0
43,55.564062500000006,55.834375,63.0,81.0
44,55.939062500000006,57.142187500000006,61.0,82.0
45,58.939062500000006,59.2234375,63.0,81.0
46,59.314062500000006,59.596875000000004,66.0,81.0
47,59.689062500000006,59.987500000000004,66.0,82.0
48,60.064062500000006,60.3265625,63.0,83.0
49,60.439062500000006,60.721875000000004,75.0,87.0
50,60.814062500000006,61.0828125,73.0,81.0
51,61.189062500000006,61.5125,66.0,82.0
52,61.564062500000006,61.88125,70.0,76.0
53,61.939062500000006,63.9296875,68.0,77.0
54,64.9390625,65.2125,68.0,78.0
55,65.3140625,65.5625,68.0,80.0
56,65.6890625,65.98125,68.0,81.0
57,66.0640625,66.36875,66.0,80.0
58,66.4390625,67.0171875,68.0,80.0
59,67.1890625,67.44375000000001,70.0,80.0
60,67.5640625,67.83125,73.0,80.0
61,67.9390625,68.5515625,70.0,80.0
62,68.6890625,68.9875,68.0,77.0
63,69.0640625,69.40468750000001,66.0,78.0
64,69.4390625,70.575,63.0,80.0
65,70.9390625,71.184375,68.0,76.0
66,71.3140625,71.590625,68.0,75.0
67,71.6890625,71.95,68.0,77.0
68,72.0640625,72.3359375,70.0,80.0
69,72.4390625,72.7125,68.0,80.0
70,72.8140625,73.090625,66.0,79.0
71,73.1890625,73.49375,68.0,79.0
72,73.5640625,73.8484375,70.0,79.0
73,73.9390625,76.278125,73.0,72.0
74,76.6015625,76.81562500000001,70.0,73.0
75,76.90156250000001,77.1265625,73.0,83.0
76,77.26406250000001,77.5046875,73.0,81.0
77,77.640625,77.9234375,73.0,81.0
78,78.0390625,78.3359375,75.0,84.0
79,78.4296875,79.4421875,78.0,80.0
80,79.55000000000001,79.828125,77.0,83.0
81,79.921875,81.571875,75.0,85.0
82,82.54218750000001,82.8375,73.0,84.0
83,82.91718750000001,83.20156250000001,75.0,87.0
84,83.296875,83.578125,78.0,84.0
85,83.66250000000001,83.97500000000001,75.0,84.0
86,84.0203125,84.3015625,73.0,81.0
87,84.40468750000001,84.665625,70.0,81.0
88,84.7859375,85.45,63.0,82.0
89,85.52187500000001,85.8015625,70.0,81.0
90,85.90468750000001,87.44843750000001,68.0,82.0
91,88.9390625,89.20156250000001,68.0,81.0
92,89.3140625,89.53437500000001,68.0,82.0
93,89.6890625,89.99375,68.0,83.0
94,90.0640625,90.3515625,66.0,84.0
95,90.4390625,90.8140625,68.0,83.0
96,90.8140625,91.5640625,68.0,83.0
97,91.5640625,91.86562500000001,70.0,82.0
98,91.9390625,92.80625,73.0,81.0
99,93.0640625,93.3359375,75.0,87.0
100,93.4390625,94.63593750000001,75.0,87.0
101,94.9390625,95.2109375,68.0,78.0
102,95.3140625,95.621875,68.0,82.0
103,95.6890625,95.97968750000001,68.0,63.0
104,96.0640625,96.3203125,70.0,86.0
105,96.4390625,96.73750000000001,75.0,89.0
106,96.8140625,97.49062500000001,78.0,80.0
107,97.5640625,97.8515625,75.0,87.0
108,97.9390625,100.0484375,73.0,81.0
109,100.6015625,100.81562500000001,70.0,73.0
110,100.90156250000001,101.1265625,73.0,83.0
111,101.26406250000001,101.5046875,73.0,81.0
112,101.640625,101.9234375,73.0,81.0
113,102.0390625,102.3359375,75.0,84.0
114,102.4296875,103.4421875,78.0,80.0
115,103.55000000000001,103.828125,77.0,83.0
116,103.921875,105.571875,75.0,85.0
117,106.91718750000001,107.20156250000001,75.0,87.0
118,107.296875,107.578125,78.0,84.0
119,107.66250000000001,107.97500000000001,75.0,84.0
120,108.0203125,108.3015625,73.0,81.0
121,108.40468750000001,108.665625,70.0,81.0
122,108.7859375,109.45,63.0,82.0
123,109.52187500000001,109.8015625,70.0,81.0
124,109.90468750000001,111.44843750000001,68.0,82.0
125,112.9390625,113.20156250000001,68.0,81.0
126,113.3140625,113.53437500000001,68.0,82.0
127,113.6890625,113.99375,68.0,83.0
128,114.0640625,114.3515625,66.0,84.0
129,114.4390625,114.8140625,68.0,83.0
130,114.8140625,115.5640625,68.0,83.0
131,115.5640625,115.86562500000001,70.0,82.0
132,115.9390625,116.80625,73.0,81.0
133,117.0640625,117.3359375,75.0,87.0
134,117.4390625,118.63593750000001,75.0,87.0
135,118.9390625,119.2109375,68.0,78.0
136,119.3140625,119.621875,68.0,82.0
137,119.6890625,119.97968750000001,68.0,63.0
138,120.0640625,120.3203125,70.0,86.0
139,120.4390625,120.73750000000001,75.0,89.0
140,120.8140625,121.49062500000001,78.0,80.0
141,121.5640625,121.8515625,75.0,87.0
142,121.9390625,124.0484375,73.0,81.0
143,124.9390625,125.1890625,68.0,82.0
144,125.3140625,125.5484375,68.0,83.0
145,125.6890625,125.92031250000001,68.0,83.0
146,126.0640625,126.3359375,70.0,82.0
147,126.4390625,126.715625,73.0,83.0
148,126.8140625,127.35625,75.0,89.0
149,127.5640625,127.70156250000001,70.0,81.0
150,127.7515625,127.8671875,68.0,71.0
151,127.9390625,130.2421875,66.0,81.0
152,154.9390625,155.45625,70.0,86.0
153,155.6890625,156.134375,70.0,83.0
154,156.0640625,156.3515625,73.0,87.0
155,156.4390625,156.7109375,68.0,81.0
156,156.8140625,157.09218750000002,70.0,83.0
157,157.1890625,157.4765625,66.0,81.0
158,157.5640625,157.83437500000002,63.0,81.0
159,157.9390625,159.1421875,61.0,82.0
160,160.9390625,161.22343750000002,63.0,81.0
161,161.3140625,161.596875,66.0,81.0
162,161.6890625,161.9875,66.0,82.0
163,162.0640625,162.32656250000002,63.0,83.0
164,162.4390625,162.721875,75.0,87.0
165,162.8140625,163.08281250000002,73.0,81.0
166,163.1890625,163.51250000000002,66.0,82.0
167,163.5640625,163.88125000000002,70.0,76.0
168,163.9390625,165.9296875,68.0,77.0
169,166.9390625,167.2125,68.0,78.0
170,167.3140625,167.5625,68.0,80.0
171,167.6890625,167.98125000000002,68.0,81.0
172,168.0640625,168.36875,66.0,80.0
173,168.4390625,169.0171875,68.0,80.0
174,169.1890625,169.44375000000002,70.0,80.0
175,169.5640625,169.83125,73.0,80.0
176,169.9390625,170.55156250000002,70.0,80.0
177,170.6890625,170.9875,68.0,77.0
178,171.0640625,171.40468750000002,66.0,78.0
179,171.4390625,172.57500000000002,63.0,80.0
180,172.9390625,173.18437500000002,68.0,76.0
181,173.3140625,173.59062500000002,68.0,75.0
182,173.6890625,173.95000000000002,68.0,77.0
183,174.0640625,174.3359375,70.0,80.0
184,174.4390625,174.7125,68.0,80.0
185,174.8140625,175.09062500000002,66.0,79.0
186,175.1890625,175.49375,68.0,79.0
187,175.5640625,175.84843750000002,70.0,79.0
188,175.9390625,178.27812500000002,73.0,72.0
189,178.6015625,178.815625,70.0,73.0
190,178.9015625,179.1265625,73.0,83.0
191,179.26406250000002,179.50468750000002,73.0,81.0
192,179.640625,179.9234375,73.0,81.0
193,180.0390625,180.3359375,75.0,84.0
194,180.4296875,181.44218750000002,78.0,80.0
195,181.55,181.828125,77.0,83.0
196,181.921875,183.571875,75.0,85.0
197,184.5421875,184.8375,73.0,84.0
198,184.9171875,185.20156250000002,75.0,87.0
199,185.296875,185.578125,78.0,84.0
200,185.66250000000002,185.97500000000002,75.0,84.0
201,186.02031250000002,186.30156250000002,73.0,81.0
202,186.40468750000002,186.665625,70.0,81.0
203,186.78593750000002,187.45000000000002,63.0,82.0
204,187.52187500000002,187.80156250000002,70.0,81.0
205,187.90468750000002,189.4484375,68.0,82.0
206,190.9390625,191.20156250000002,68.0,81.0
207,191.3140625,191.534375,68.0,82.0
208,191.6890625,191.99375,68.0,83.0
209,192.0640625,192.3515625,66.0,84.0
210,192.4390625,192.8140625,68.0,83.0
211,192.8140625,193.5640625,68.0,83.0
212,193.5640625,193.86562500000002,70.0,82.0
213,193.9390625,194.80625,73.0,81.0
214,195.0640625,195.3359375,75.0,87.0
215,195.4390625,196.6359375,75.0,87.0
216,196.9390625,197.2109375,68.0,78.0
217,197.3140625,197.62187500000002,68.0,82.0
218,197.6890625,197.9796875,68.0,63.0
219,198.0640625,198.3203125,70.0,86.0
220,198.4390625,198.7375,75.0,89.0
221,198.8140625,199.49062500000002,78.0,80.0
222,199.5640625,199.8515625,75.0,87.0
223,199.9390625,202.0484375,73.0,81.0
224,202.6015625,202.815625,70.0,73.0
225,202.9015625,203.1265625,73.0,83.0
226,203.26406250000002,203.50468750000002,73.0,81.0
227,203.640625,203.9234375,73.0,81.0
228,204.0390625,204.3359375,75.0,84.0
229,204.4296875,205.44218750000002,78.0,80.0
230,205.55,205.828125,77.0,83.0
231,205.921875,207.571875,75.0,85.0
232,208.9171875,209.20156250000002,75.0,87.0
233,209.296875,209.578125,78.0,84.0
234,209.66250000000002,209.97500000000002,75.0,84.0
235,210.02031250000002,210.30156250000002,73.0,81.0
236,210.40468750000002,210.665625,70.0,81.0
237,210.78593750000002,211.45000000000002,63.0,82.0
238,211.52187500000002,211.80156250000002,70.0,81.0
239,211.90468750000002,213.4484375,68.0,82.0
240,214.9390625,215.20156250000002,68.0,81.0
241,215.3140625,215.534375,68.0,82.0
242,215.6890625,215.99375,68.0,83.0
243,216.0640625,216.3515625,66.0,84.0
244,216.4390625,216.8140625,68.0,83.0
245,216.8140625,217.5640625,68.0,83.0
246,217.5640625,217.86562500000002,70.0,82.0
247,217.9390625,218.80625,73.0,81.0
248,219.0640625,219.3359375,75.0,87.0
249,219.4390625,220.6359375,75.0,87.0
250,220.9390625,221.2109375,68.0,78.0
251,221.3140625,221.62187500000002,68.0,82.0
252,221.6890625,221.9796875,68.0,63.0
253,222.0640625,222.3203125,70.0,86.0
254,222.4390625,222.7375,75.0,89.0
255,222.8140625,223.49062500000002,78.0,80.0
256,223.5640625,223.8515625,75.0,87.0
257,223.9390625,226.0484375,73.0,81.0
258,226.9390625,227.1890625,68.0,82.0
259,227.3140625,227.5484375,68.0,83.0
260,227.6890625,227.92031250000002,68.0,83.0
261,228.0640625,228.3359375,70.0,82.0
262,228.4390625,228.71562500000002,73.0,83.0
263,228.8140625,229.35625000000002,75.0,89.0
264,229.5640625,229.70156250000002,70.0,81.0
265,229.7515625,229.8671875,68.0,71.0
266,229.9390625,232.2421875,66.0,81.0
267,232.6015625,232.815625,70.0,73.0
268,232.9015625,233.1265625,73.0,83.0
269,233.26406250000002,233.50468750000002,73.0,81.0
270,233.640625,233.9234375,73.0,81.0
271,234.0390625,234.3359375,75.0,84.0
272,234.4296875,235.44218750000002,78.0,80.0
273,235.55,235.828125,77.0,83.0
274,235.921875,237.571875,75.0,85.0
275,238.5421875,238.8375,73.0,84.0
276,238.9171875,239.20156250000002,75.0,87.0
277,239.296875,239.578125,78.0,84.0
278,239.66250000000002,239.97500000000002,75.0,84.0
279,240.02031250000002,240.30156250000002,73.0,81.0
280,240.40468750000002,240.665625,70.0,81.0
281,240.78593750000002,241.45000000000002,63.0,82.0
282,241.52187500000002,241.80156250000002,70.0,81.0
283,241.90468750000002,243.4484375,68.0,82.0
284,244.9390625,245.20156250000002,68.0,81.0
285,245.3140625,245.534375,68.0,82.0
286,245.6890625,245.99375,68.0,83.0
287,246.0640625,246.3515625,66.0,84.0
288,246.4390625,246.8140625,68.0,83.0
289,246.8140625,247.5640625,68.0,83.0
290,247.5640625,247.86562500000002,70.0,82.0
291,247.9390625,248.80625,73.0,81.0
292,249.0640625,249.3359375,75.0,87.0
293,249.4390625,250.6359375,75.0,87.0
294,250.9390625,251.2109375,68.0,78.0
295,251.3140625,251.62187500000002,68.0,82.0
296,251.6890625,251.9796875,68.0,63.0
297,252.0640625,252.3203125,70.0,86.0
298,252.4390625,252.7375,75.0,89.0
299,252.8140625,253.49062500000002,78.0,80.0
300,253.5640625,253.8515625,75.0,87.0
301,253.9390625,256.04843750000003,73.0,81.0
302,256.6015625,256.815625,70.0,73.0
303,256.9015625,257.12656250000003,73.0,83.0
304,257.2640625,257.5046875,73.0,81.0
305,257.640625,257.92343750000003,73.0,81.0
306,258.0390625,258.3359375,75.0,84.0
307,258.4296875,259.4421875,78.0,80.0
308,259.55,259.828125,77.0,83.0
309,259.921875,261.57187500000003,75.0,85.0
310,262.9171875,263.2015625,75.0,87.0
311,263.296875,263.578125,78.0,84.0
312,263.6625,263.975,75.0,84.0
313,264.0203125,264.3015625,73.0,81.0
314,264.4046875,264.66562500000003,70.0,81.0
315,264.7859375,265.45,63.0,82.0
316,265.521875,265.8015625,70.0,81.0
317,265.9046875,267.4484375,68.0,82.0
318,268.93906250000003,269.2015625,68.0,81.0
319,269.31406250000003,269.534375,68.0,82.0
320,269.68906250000003,269.99375000000003,68.0,83.0
321,270.06406250000003,270.3515625,66.0,84.0
322,270.43906250000003,270.81406250000003,68.0,83.0
323,270.81406250000003,271.56406250000003,68.0,83.0
324,271.56406250000003,271.865625,70.0,82.0
325,271.93906250000003,272.80625000000003,73.0,81.0
326,273.06406250000003,273.3359375,75.0,87.0
327,273.43906250000003,274.6359375,75.0,87.0
328,274.93906250000003,275.2109375,68.0,78.0
329,275.31406250000003,275.621875,68.0,82.0
330,275.68906250000003,275.9796875,68.0,63.0
331,276.06406250000003,276.3203125,70.0,86.0
332,276.43906250000003,276.7375,75.0,89.0
333,276.81406250000003,277.490625,78.0,80.0
334,277.56406250000003,277.8515625,75.0,87.0
335,277.93906250000003,280.04843750000003,73.0,81.0
336,280.9265625,281.2375,68.0,80.0
337,281.33750000000003,281.6765625,68.0,81.0
338,281.79843750000003,282.09531250000003,68.0,82.0
339,282.2109375,282.78281250000003,70.0,85.0
340,282.7234375,283.4125,73.0,85.0
341,283.38125,284.115625,75.0,85.0
342,284.115625,284.77500000000003,70.0,82.0
343,284.7421875,285.2953125,68.0,75.0
344,285.43125000000003,287.85312500000003,66.0,81.0
