,start,end,pitch,velocity
0,1.5921875,2.2531250000000003,78.0,68.0
1,1.671875,2.2687500000000003,73.0,82.0
2,1.740625,2.2734375,70.0,74.0
3,1.8625,2.3359375,66.0,72.0
4,2.6578125000000004,2.9562500000000003,61.0,81.0
5,3.0250000000000004,3.1359375000000003,63.0,82.0
6,3.4000000000000004,3.5609375,66.0,82.0
7,3.78125,4.2234375,68.0,81.0
8,4.1468750000000005,4.5687500000000005,70.0,89.0
9,4.5015625,4.8968750000000005,73.0,78.0
10,1.7781250000000002,4.9437500000000005,42.0,81.0
11,4.9390625,4.9437500000000005,42.0,81.0
12,4.9390625,5.609375,61.0,76.0
13,4.9390625,5.784375000000001,54.0,74.0
14,5.6890625,6.0921875000000005,58.0,75.0
15,6.0640625,6.2328125000000005,61.0,82.0
16,5.3140625,6.5546875,49.0,65.0
17,6.4390625,6.65,66.0,80.0
18,6.4390625,6.825,54.0,72.0
19,6.8140625,7.2734375,49.0,62.0
20,7.1890625,7.340625,58.0,77.0
21,7.1890625,7.4203125000000005,61.0,80.0
22,7.9390625,8.4046875,58.0,63.0
23,7.9390625,8.7015625,61.0,73.0
24,8.3140625,8.75,53.0,65.0
25,7.9390625,8.809375000000001,46.0,80.0
26,8.6890625,9.2671875,58.0,81.0
27,9.0640625,9.571875,53.0,72.0
28,9.4390625,9.5921875,61.0,72.0
29,9.4390625,9.7265625,65.0,79.0
30,10.1890625,10.3546875,61.0,82.0
31,10.1890625,10.3625,65.0,85.0
32,9.8140625,10.378125,46.0,43.0
33,10.1890625,10.53125,70.0,80.0
34,10.5640625,10.785937500000001,58.0,80.0
35,10.9390625,11.215625000000001,58.0,80.0
36,10.9390625,11.43125,63.0,80.0
37,11.6890625,11.9640625,66.0,81.0
38,12.0640625,12.254687500000001,58.0,81.0
39,10.9390625,12.478125,51.0,80.0
40,11.3140625,12.512500000000001,54.0,55.0
41,12.4390625,12.8515625,63.0,81.0
42,13.1890625,13.387500000000001,58.0,80.0
43,13.1890625,13.55625,66.0,80.0
44,12.8140625,13.5703125,51.0,76.0
45,13.5640625,13.692187500000001,63.0,79.0
46,13.9390625,14.403125000000001,61.0,80.0
47,14.3140625,14.762500000000001,56.0,73.0
48,14.6890625,14.887500000000001,61.0,78.0
49,15.0640625,15.223437500000001,63.0,72.0
50,15.4390625,15.5859375,56.0,81.0
51,13.9390625,15.598437500000001,49.0,78.0
52,15.4390625,15.7296875,65.0,83.0
53,15.8140625,15.9453125,56.0,78.0
54,16.189062500000002,16.375,56.0,81.0
55,16.189062500000002,16.4046875,61.0,82.0
56,16.564062500000002,16.6546875,49.0,82.0
57,16.939062500000002,17.6828125,61.0,80.0
58,16.939062500000002,17.7015625,58.0,76.0
59,17.689062500000002,17.9984375,65.0,84.0
60,18.064062500000002,18.1328125,61.0,81.0
61,18.439062500000002,18.5921875,70.0,78.0
62,17.314062500000002,18.595312500000002,53.0,74.0
63,18.439062500000002,18.657812500000002,58.0,80.0
64,18.814062500000002,19.240625,53.0,71.0
65,19.189062500000002,19.4171875,58.0,75.0
66,19.189062500000002,19.440625,65.0,81.0
67,16.939062500000002,19.645312500000003,46.0,81.0
68,19.376562500000002,19.645312500000003,53.0,78.0
69,19.564062500000002,19.7765625,58.0,80.0
70,19.939062500000002,20.1703125,58.0,73.0
71,19.939062500000002,20.396875,63.0,76.0
72,20.314062500000002,20.4828125,58.0,68.0
73,20.689062500000002,20.962500000000002,66.0,80.0
74,19.939062500000002,21.2375,51.0,83.0
75,21.064062500000002,21.4296875,65.0,81.0
76,21.439062500000002,21.815625,63.0,82.0
77,21.814062500000002,22.0078125,58.0,81.0
78,22.189062500000002,22.365625,58.0,79.0
79,22.189062500000002,22.407812500000002,63.0,81.0
80,22.564062500000002,22.665625000000002,61.0,80.0
81,22.939062500000002,23.4484375,59.0,69.0
82,22.939062500000002,23.45625,56.0,72.0
83,23.314062500000002,23.8046875,51.0,67.0
84,22.939062500000002,24.207812500000003,44.0,80.0
85,24.064062500000002,24.275000000000002,51.0,73.0
86,23.689062500000002,24.285937500000003,63.0,80.0
87,24.439062500000002,24.637500000000003,56.0,73.0
88,24.439062500000002,24.8890625,61.0,75.0
89,24.814062500000002,25.140625,56.0,80.0
90,25.189062500000002,25.317187500000003,61.0,83.0
91,24.439062500000002,25.5421875,49.0,76.0
92,25.564062500000002,25.743750000000002,58.0,76.0
93,25.751562500000002,25.90625,56.0,80.0
94,25.939062500000002,27.14375,54.0,80.0
95,26.689062500000002,27.165625000000002,61.0,74.0
96,27.064062500000002,27.2265625,58.0,73.0
97,27.439062500000002,27.895312500000003,66.0,81.0
98,27.814062500000002,28.095312500000002,54.0,68.0
99,28.189062500000002,28.3203125,61.0,70.0
100,26.314062500000002,28.392187500000002,49.0,65.0
101,25.939062500000002,28.457812500000003,42.0,80.0
102,28.939062500000002,29.392187500000002,54.0,71.0
103,28.939062500000002,29.453125,58.0,71.0
104,29.689062500000002,29.9046875,56.0,71.0
105,30.064062500000002,30.334375,58.0,84.0
106,30.439062500000002,30.637500000000003,61.0,75.0
107,30.814062500000002,30.934375000000003,54.0,66.0
108,31.189062500000002,31.334375,58.0,69.0
109,31.189062500000002,31.337500000000002,54.0,68.0
110,31.189062500000002,31.365625,61.0,76.0
111,29.314062500000002,31.403125000000003,49.0,67.0
112,28.939062500000002,31.4609375,42.0,80.0
113,31.939062500000002,32.834375,61.0,70.0
114,32.3140625,32.903125,53.0,62.0
115,32.6890625,33.10625,58.0,69.0
116,33.0640625,33.50625,65.0,79.0
117,33.4390625,33.6234375,63.0,83.0
118,33.8140625,34.0296875,61.0,74.0
119,33.2515625,34.2703125,53.0,56.0
120,31.939062500000002,34.3609375,46.0,80.0
121,34.1890625,34.546875,58.0,72.0
122,34.5640625,34.6484375,53.0,69.0
123,34.9390625,35.0921875,39.0,62.0
124,34.9390625,35.7,66.0,69.0
125,36.0640625,36.346875000000004,63.0,82.0
126,35.6890625,36.6265625,58.0,74.0
127,36.4390625,37.2,66.0,82.0
128,36.8140625,37.234375,58.0,67.0
129,35.3140625,37.3046875,51.0,80.0
130,37.1890625,37.6171875,63.0,80.0
131,37.5640625,37.890625,66.0,76.0
132,37.9390625,38.0453125,37.0,74.0
133,37.9390625,38.720312500000006,61.0,71.0
134,37.9390625,38.7859375,65.0,76.0
135,39.064062500000006,39.2859375,63.0,76.0
136,39.439062500000006,39.626562500000006,61.0,73.0
137,39.439062500000006,39.640625,65.0,80.0
138,39.814062500000006,40.159375000000004,63.0,82.0
139,38.689062500000006,40.196875000000006,56.0,76.0
140,38.3140625,40.2875,49.0,76.0
141,40.189062500000006,40.307812500000004,61.0,85.0
142,40.939062500000006,41.740625,56.0,74.0
143,40.939062500000006,41.753125000000004,63.0,75.0
144,41.689062500000006,42.0828125,59.0,74.0
145,42.064062500000006,42.553125,56.0,77.0
146,42.439062500000006,42.6328125,68.0,81.0
147,42.814062500000006,42.909375000000004,63.0,76.0
148,41.314062500000006,43.4296875,51.0,63.0
149,43.189062500000006,43.501562500000006,59.0,81.0
150,40.939062500000006,43.5125,44.0,80.0
151,43.564062500000006,43.66875,56.0,81.0
152,43.939062500000006,44.354687500000004,61.0,80.0
153,43.939062500000006,44.525000000000006,58.0,78.0
154,44.689062500000006,44.8828125,61.0,76.0
155,44.689062500000006,44.934375,65.0,80.0
156,44.314062500000006,44.985937500000006,53.0,72.0
157,43.939062500000006,45.046875,46.0,81.0
158,45.439062500000006,45.962500000000006,66.0,80.0
159,46.189062500000006,46.331250000000004,63.0,79.0
160,45.814062500000006,46.5546875,54.0,49.0
161,45.439062500000006,46.5609375,51.0,81.0
162,46.564062500000006,46.7328125,61.0,80.0
163,46.939062500000006,47.428125,56.0,80.0
164,47.689062500000006,48.001562500000006,59.0,76.0
165,48.064062500000006,48.368750000000006,56.0,81.0
166,48.439062500000006,48.6921875,63.0,80.0
167,48.814062500000006,48.8828125,63.0,28.0
168,48.814062500000006,48.907812500000006,56.0,62.0
169,49.189062500000006,49.3203125,56.0,75.0
170,47.314062500000006,49.375,51.0,71.0
171,46.939062500000006,49.44375,44.0,80.0
172,49.189062500000006,49.462500000000006,59.0,72.0
173,49.189062500000006,49.553125,68.0,76.0
174,49.564062500000006,49.775000000000006,56.0,81.0
175,49.189062500000006,49.8578125,63.0,81.0
176,49.939062500000006,50.096875000000004,56.0,76.0
177,49.939062500000006,50.434375,61.0,75.0
178,50.314062500000006,50.6546875,56.0,77.0
179,50.689062500000006,51.0125,63.0,77.0
180,51.064062500000006,51.2015625,56.0,76.0
181,51.439062500000006,51.6015625,56.0,81.0
182,51.439062500000006,51.8265625,65.0,82.0
183,51.814062500000006,51.946875000000006,63.0,81.0
184,52.189062500000006,52.3359375,61.0,80.0
185,49.939062500000006,52.415625000000006,49.0,80.0
186,52.564062500000006,52.706250000000004,59.0,81.0
187,52.939062500000006,53.3328125,58.0,75.0
188,52.939062500000006,53.345312500000006,66.0,76.0
189,53.314062500000006,53.814062500000006,49.0,49.0
190,53.689062500000006,53.915625000000006,58.0,76.0
191,52.939062500000006,53.921875,42.0,80.0
192,53.689062500000006,53.9609375,61.0,81.0
193,54.439062500000006,54.6015625,58.0,75.0
194,54.439062500000006,54.618750000000006,66.0,76.0
195,54.064062500000006,54.73125,49.0,73.0
196,54.814062500000006,55.3671875,42.0,61.0
197,55.189062500000006,55.553125,58.0,75.0
198,55.189062500000006,55.667187500000004,61.0,80.0
199,55.189062500000006,55.729687500000004,66.0,79.0
200,55.564062500000006,55.743750000000006,44.0,81.0
201,55.939062500000006,56.400000000000006,61.0,75.0
202,55.939062500000006,56.421875,58.0,72.0
203,56.314062500000006,56.8203125,53.0,69.0
204,56.689062500000006,56.932812500000004,65.0,81.0
205,56.689062500000006,56.9765625,58.0,75.0
206,57.439062500000006,57.73125,70.0,86.0
207,57.814062500000006,58.071875000000006,58.0,83.0
208,58.189062500000006,58.423437500000006,58.0,76.0
209,58.189062500000006,58.484375,65.0,81.0
210,57.064062500000006,58.659375000000004,53.0,74.0
211,55.939062500000006,58.7328125,46.0,80.0
212,58.564062500000006,58.784375000000004,63.0,80.0
213,58.939062500000006,59.290625000000006,58.0,79.0
214,58.939062500000006,59.375,63.0,78.0
215,59.689062500000006,60.0765625,66.0,81.0
216,59.314062500000006,60.090625,54.0,65.0
217,58.939062500000006,60.1875,51.0,82.0
218,60.064062500000006,60.267187500000006,58.0,81.0
219,60.439062500000006,60.5921875,58.0,81.0
220,60.439062500000006,60.9125,63.0,80.0
221,60.814062500000006,60.96875,58.0,58.0
222,61.189062500000006,61.371875,51.0,82.0
223,61.189062500000006,61.6140625,58.0,80.0
224,61.189062500000006,61.675000000000004,63.0,78.0
225,61.564062500000006,61.715625,46.0,79.0
226,61.939062500000006,62.140625,56.0,81.0
227,61.939062500000006,62.434375,61.0,78.0
228,62.314062500000006,62.5078125,56.0,68.0
229,62.689062500000006,62.8265625,56.0,81.0
230,62.689062500000006,63.087500000000006,65.0,81.0
231,61.939062500000006,63.240625,49.0,84.0
232,63.064062500000006,63.2875,63.0,75.0
233,63.439062500000006,63.575,56.0,69.0
234,63.439062500000006,63.900000000000006,61.0,71.0
235,63.814062500000006,63.98125,56.0,76.0
236,63.439062500000006,64.58437500000001,49.0,73.0
237,64.1890625,64.58437500000001,65.0,83.0
238,64.1890625,64.5875,56.0,81.0
239,64.5640625,64.715625,61.0,72.0
240,64.9390625,65.3703125,59.0,77.0
241,64.9390625,65.5046875,56.0,70.0
242,65.6890625,65.846875,63.0,81.0
243,66.0640625,66.1875,59.0,80.0
244,66.4390625,66.5984375,68.0,73.0
245,66.4390625,66.609375,56.0,81.0
246,65.3140625,66.6265625,51.0,65.0
247,66.8140625,67.290625,51.0,49.0
248,64.9390625,67.38125000000001,44.0,81.0
249,67.1890625,67.5734375,59.0,81.0
250,67.1890625,67.746875,63.0,81.0
251,67.5640625,67.7578125,44.0,81.0
252,67.9390625,68.378125,58.0,78.0
253,67.9390625,68.3859375,61.0,80.0
254,68.3140625,68.875,53.0,69.0
255,67.9390625,68.8796875,46.0,75.0
256,68.6890625,68.9171875,61.0,81.0
257,68.6890625,68.940625,58.0,75.0
258,68.6890625,68.96718750000001,65.0,82.0
259,69.0640625,69.190625,46.0,81.0
260,69.4390625,69.5546875,39.0,71.0
261,69.4390625,69.909375,58.0,72.0
262,69.4390625,69.9859375,63.0,77.0
263,69.8140625,70.290625,51.0,67.0
264,70.1890625,70.328125,58.0,76.0
265,70.1890625,70.4015625,63.0,81.0
266,70.1890625,70.4078125,66.0,81.0
267,70.9390625,71.4484375,63.0,79.0
268,70.9390625,71.503125,56.0,76.0
269,71.6890625,71.8203125,59.0,84.0
270,72.0640625,72.2890625,56.0,80.0
271,72.4390625,72.65468750000001,56.0,76.0
272,72.4390625,72.659375,68.0,76.0
273,72.8140625,72.9875,56.0,72.0
274,71.3140625,73.31093750000001,51.0,65.0
275,70.9390625,73.33437500000001,44.0,81.0
276,73.1890625,73.4265625,56.0,75.0
277,73.1890625,73.43593750000001,59.0,81.0
278,73.1890625,73.609375,63.0,81.0
279,73.5640625,73.82656250000001,44.0,78.0
280,73.9390625,74.09218750000001,56.0,80.0
281,73.9390625,74.403125,61.0,80.0
282,74.3140625,74.5015625,56.0,74.0
283,74.6890625,74.8671875,56.0,80.0
284,74.6890625,75.128125,63.0,82.0
285,73.9390625,75.2078125,49.0,80.0
286,75.0640625,75.2390625,56.0,77.0
287,75.4390625,75.5890625,56.0,80.0
288,75.4390625,75.8640625,65.0,82.0
289,75.4390625,75.88906250000001,61.0,81.0
290,75.8140625,75.99062500000001,56.0,72.0
291,76.1890625,76.38906250000001,56.0,81.0
292,76.1890625,76.425,63.0,80.0
293,75.4390625,76.6046875,49.0,82.0
294,76.9390625,77.3171875,58.0,70.0
295,76.9390625,77.403125,61.0,74.0
296,77.6890625,77.90468750000001,66.0,81.0
297,77.8765625,78.0390625,61.0,82.0
298,78.0640625,78.228125,58.0,79.0
299,78.4390625,78.603125,58.0,71.0
300,78.4390625,78.68281250000001,61.0,73.0
301,77.3140625,78.91875,49.0,75.0
302,78.8140625,78.946875,58.0,70.0
303,76.9390625,79.04531250000001,42.0,76.0
304,79.1890625,79.34218750000001,58.0,80.0
305,79.1890625,79.5640625,61.0,82.0
306,79.1890625,79.6328125,66.0,80.0
307,79.5640625,79.6796875,58.0,78.0
308,79.9390625,80.11562500000001,58.0,72.0
309,79.9390625,80.33437500000001,63.0,72.0
310,80.3140625,80.4,58.0,64.0
311,80.6890625,80.853125,58.0,81.0
312,80.6890625,80.93593750000001,66.0,80.0
313,79.9390625,81.0203125,51.0,81.0
314,80.8765625,81.1265625,65.0,81.0
315,81.0640625,81.196875,58.0,60.0
316,81.0640625,81.228125,63.0,75.0
317,81.4390625,81.58906250000001,58.0,74.0
318,81.4390625,81.853125,63.0,72.0
319,81.8140625,81.92031250000001,58.0,67.0
320,81.4390625,82.3609375,51.0,80.0
321,82.1890625,82.38593750000001,58.0,74.0
322,82.1890625,82.540625,63.0,75.0
323,82.1890625,82.55625,66.0,80.0
324,82.9390625,83.0828125,58.0,74.0
325,82.9390625,83.40625,63.0,76.0
326,83.3140625,83.465625,58.0,66.0
327,82.9390625,83.79218750000001,51.0,81.0
328,83.6890625,83.85781250000001,58.0,77.0
329,83.6890625,84.16718750000001,66.0,80.0
330,84.0640625,84.2578125,58.0,71.0
331,84.4390625,84.62343750000001,58.0,75.0
332,84.4390625,84.86875,63.0,74.0
333,84.8140625,84.95156250000001,58.0,70.0
334,84.4390625,85.325,39.0,80.0
335,85.1890625,85.4,58.0,79.0
336,85.1890625,85.578125,63.0,80.0
337,85.5640625,85.8328125,61.0,79.0
338,85.9390625,86.2734375,63.0,79.0
339,85.9390625,86.309375,56.0,75.0
340,86.3140625,86.78437500000001,51.0,67.0
341,85.9390625,86.8453125,44.0,82.0
342,86.6890625,86.9890625,59.0,85.0
343,86.6890625,86.99531250000001,56.0,82.0
344,86.6890625,87.12812500000001,63.0,85.0
345,87.0640625,87.33125000000001,44.0,80.0
346,87.2515625,87.3453125,56.0,80.0
347,87.4390625,87.60781250000001,56.0,81.0
348,87.4390625,87.921875,61.0,82.0
349,87.8140625,87.9578125,56.0,77.0
350,88.1890625,88.2890625,56.0,80.0
351,87.4390625,88.46875,49.0,83.0
352,88.1890625,88.58906250000001,61.0,84.0
353,88.1890625,88.60625,65.0,84.0
354,88.5640625,88.73750000000001,56.0,81.0
355,88.9390625,89.32343750000001,63.0,77.0
356,88.9390625,89.35781250000001,56.0,80.0
357,89.6890625,90.05625,59.0,82.0
358,89.3140625,90.0875,51.0,61.0
359,88.9390625,90.14687500000001,44.0,81.0
360,90.0640625,90.3671875,56.0,76.0
361,90.4390625,90.715625,63.0,76.0
362,90.4390625,90.72968750000001,59.0,69.0
363,90.8140625,91.228125,51.0,55.0
364,90.4390625,91.328125,44.0,79.0
365,91.1890625,91.5171875,56.0,76.0
366,91.1890625,91.528125,59.0,80.0
367,91.5640625,91.83125000000001,44.0,80.0
368,91.9390625,92.309375,58.0,76.0
369,91.9390625,92.3140625,61.0,80.0
370,92.6890625,92.8359375,58.0,72.0
371,92.3140625,92.840625,53.0,74.0
372,91.9390625,92.87812500000001,46.0,80.0
373,92.6890625,93.0515625,61.0,75.0
374,92.6890625,93.05781250000001,65.0,83.0
375,93.0640625,93.27968750000001,58.0,82.0
376,93.4390625,93.6015625,58.0,82.0
377,93.4390625,93.84687500000001,66.0,80.0
378,93.8140625,93.965625,58.0,80.0
379,93.4390625,94.31875000000001,51.0,81.0
380,94.1890625,94.44062500000001,66.0,85.0
381,94.3765625,94.59218750000001,65.0,81.0
382,94.5640625,94.7625,63.0,83.0
383,94.7515625,94.890625,61.0,74.0
384,94.9390625,95.34687500000001,59.0,81.0
385,95.6890625,96.015625,59.0,83.0
386,95.6890625,96.03437500000001,63.0,81.0
387,96.0640625,96.24531250000001,56.0,70.0
388,95.3140625,96.60625,51.0,69.0
389,96.4390625,96.70156250000001,63.0,76.0
390,96.4390625,96.7046875,56.0,81.0
391,97.1890625,97.49375,59.0,86.0
392,96.8140625,97.56562500000001,51.0,62.0
393,94.9390625,97.62343750000001,44.0,81.0
394,97.5640625,97.84687500000001,56.0,81.0
395,97.9390625,98.3671875,61.0,86.0
396,98.3140625,98.525,56.0,80.0
397,98.6890625,98.9890625,63.0,85.0
398,99.0640625,99.20156250000001,63.0,77.0
399,97.9390625,99.37812500000001,49.0,81.0
400,99.0640625,99.3875,56.0,78.0
401,99.4390625,99.87031250000001,65.0,87.0
402,99.8140625,99.9921875,56.0,83.0
403,100.1890625,100.38125000000001,63.0,84.0
404,100.1890625,100.3828125,56.0,85.0
405,99.4390625,100.809375,49.0,85.0
406,100.5640625,100.8984375,61.0,77.0
407,100.9390625,101.3171875,58.0,70.0
408,100.9390625,101.403125,61.0,74.0
409,101.6890625,101.90468750000001,66.0,81.0
410,101.8765625,102.0390625,61.0,82.0
411,102.0640625,102.228125,58.0,79.0
412,102.4390625,102.603125,58.0,71.0
413,102.4390625,102.68281250000001,61.0,73.0
414,101.3140625,102.91875,49.0,75.0
415,102.8140625,102.946875,58.0,70.0
416,100.9390625,103.04531250000001,42.0,76.0
417,103.1890625,103.34218750000001,58.0,80.0
418,103.1890625,103.5640625,61.0,82.0
419,103.1890625,103.6328125,66.0,80.0
420,103.5640625,103.6796875,58.0,78.0
421,103.9390625,104.11562500000001,58.0,72.0
422,103.9390625,104.33437500000001,63.0,72.0
423,104.3140625,104.4,58.0,64.0
424,104.6890625,104.853125,58.0,81.0
425,104.6890625,104.93593750000001,66.0,80.0
426,103.9390625,105.0203125,51.0,81.0
427,104.8765625,105.1265625,65.0,81.0
428,105.0640625,105.196875,58.0,60.0
429,105.0640625,105.228125,63.0,75.0
430,105.4390625,105.58906250000001,58.0,74.0
431,105.4390625,105.853125,63.0,72.0
432,105.8140625,105.92031250000001,58.0,67.0
433,105.4390625,106.3609375,51.0,80.0
434,106.1890625,106.38593750000001,58.0,74.0
435,106.1890625,106.540625,63.0,75.0
436,106.1890625,106.55625,66.0,80.0
437,106.9390625,107.0828125,58.0,74.0
438,106.9390625,107.40625,63.0,76.0
439,107.3140625,107.465625,58.0,66.0
440,106.9390625,107.79218750000001,51.0,81.0
441,107.6890625,107.85781250000001,58.0,77.0
442,107.6890625,108.16718750000001,66.0,80.0
443,108.0640625,108.2578125,58.0,71.0
444,108.4390625,108.62343750000001,58.0,75.0
445,108.4390625,108.86875,63.0,74.0
446,108.8140625,108.95156250000001,58.0,70.0
447,108.4390625,109.325,39.0,80.0
448,109.1890625,109.4,58.0,79.0
449,109.1890625,109.578125,63.0,80.0
450,109.5640625,109.8328125,61.0,79.0
451,109.9390625,110.2734375,63.0,79.0
452,109.9390625,110.309375,56.0,75.0
453,110.3140625,110.78437500000001,51.0,67.0
454,109.9390625,110.8453125,44.0,82.0
455,110.6890625,110.9890625,59.0,85.0
456,110.6890625,110.99531250000001,56.0,82.0
457,110.6890625,111.12812500000001,63.0,85.0
458,111.0640625,111.33125000000001,44.0,80.0
459,111.2515625,111.3453125,56.0,80.0
460,111.4390625,111.60781250000001,56.0,81.0
461,111.4390625,111.921875,61.0,82.0
462,111.8140625,111.9578125,56.0,77.0
463,112.1890625,112.2890625,56.0,80.0
464,111.4390625,112.46875,49.0,83.0
465,112.1890625,112.58906250000001,61.0,84.0
466,112.1890625,112.60625,65.0,84.0
467,112.5640625,112.73750000000001,56.0,81.0
468,112.9390625,113.32343750000001,63.0,77.0
469,112.9390625,113.35781250000001,56.0,80.0
470,113.6890625,114.05625,59.0,82.0
471,113.3140625,114.0875,51.0,61.0
472,112.9390625,114.14687500000001,44.0,81.0
473,114.0640625,114.3671875,56.0,76.0
474,114.4390625,114.715625,63.0,76.0
475,114.4390625,114.72968750000001,59.0,69.0
476,114.8140625,115.228125,51.0,55.0
477,114.4390625,115.328125,44.0,79.0
478,115.1890625,115.5171875,56.0,76.0
479,115.1890625,115.528125,59.0,80.0
480,115.5640625,115.83125000000001,44.0,80.0
481,115.9390625,116.309375,58.0,76.0
482,115.9390625,116.3140625,61.0,80.0
483,116.6890625,116.8359375,58.0,72.0
484,116.3140625,116.840625,53.0,74.0
485,115.9390625,116.87812500000001,46.0,80.0
486,116.6890625,117.0515625,61.0,75.0
487,116.6890625,117.05781250000001,65.0,83.0
488,117.0640625,117.27968750000001,58.0,82.0
489,117.4390625,117.6015625,58.0,82.0
490,117.4390625,117.84687500000001,66.0,80.0
491,117.8140625,117.965625,58.0,80.0
492,117.4390625,118.31875000000001,51.0,81.0
493,118.1890625,118.44062500000001,66.0,85.0
494,118.3765625,118.59218750000001,65.0,81.0
495,118.5640625,118.7625,63.0,83.0
496,118.7515625,118.890625,61.0,74.0
497,118.9390625,119.34687500000001,59.0,81.0
498,119.6890625,120.015625,59.0,83.0
499,119.6890625,120.03437500000001,63.0,81.0
500,120.0640625,120.24531250000001,56.0,70.0
501,119.3140625,120.60625,51.0,69.0
502,120.4390625,120.70156250000001,63.0,76.0
503,120.4390625,120.7046875,56.0,81.0
504,121.1890625,121.49375,59.0,86.0
505,120.8140625,121.56562500000001,51.0,62.0
506,118.9390625,121.62343750000001,44.0,81.0
507,121.5640625,121.84687500000001,56.0,81.0
508,121.9390625,122.3671875,61.0,86.0
509,122.3140625,122.525,56.0,80.0
510,122.6890625,122.9890625,63.0,85.0
511,123.0640625,123.20156250000001,63.0,77.0
512,121.9390625,123.37812500000001,49.0,81.0
513,123.0640625,123.3875,56.0,78.0
514,123.4390625,123.87031250000001,65.0,87.0
515,123.8140625,123.9921875,56.0,83.0
516,124.1890625,124.38125000000001,63.0,84.0
517,124.1890625,124.3828125,56.0,85.0
518,123.4390625,124.809375,49.0,85.0
519,124.5640625,124.8984375,61.0,77.0
520,124.778125,125.25312500000001,56.0,65.0
521,124.84218750000001,125.540625,59.0,81.0
522,124.9625,125.571875,68.0,76.0
523,124.9140625,125.734375,63.0,73.0
524,125.65625,125.7828125,56.0,81.0
525,125.2734375,125.85468750000001,51.0,69.0
526,124.92500000000001,125.934375,44.0,81.0
527,126.259375,126.45156250000001,56.0,73.0
528,126.33125000000001,126.70156250000001,61.0,75.0
529,126.4296875,126.8484375,49.0,84.0
530,126.796875,126.96875,56.0,82.0
531,126.42812500000001,126.97968750000001,65.0,83.0
532,127.1484375,127.278125,61.0,70.0
533,127.14687500000001,127.29531250000001,56.0,73.0
534,127.9390625,128.3390625,54.0,73.0
535,127.9390625,128.3671875,58.0,74.0
536,128.6890625,128.878125,54.0,83.0
537,129.0640625,129.19375,56.0,86.0
538,129.4390625,129.88125,58.0,82.0
539,129.8140625,130.03125,61.0,81.0
540,128.3140625,130.375,49.0,68.0
541,127.9390625,130.628125,42.0,80.0
542,130.1890625,130.9203125,66.0,82.0
543,130.1890625,130.92656250000002,58.0,78.0
544,130.5640625,130.93125,49.0,80.0
545,130.1890625,130.9453125,61.0,84.0
546,130.9390625,130.9453125,61.0,76.0
547,130.9390625,131.784375,54.0,74.0
548,131.6890625,132.0921875,58.0,75.0
549,132.0640625,132.2328125,61.0,82.0
550,131.3140625,132.5546875,49.0,65.0
551,132.4390625,132.65,66.0,80.0
552,132.4390625,132.82500000000002,54.0,72.0
553,132.8140625,133.2734375,49.0,62.0
554,133.1890625,133.34062500000002,58.0,77.0
555,130.9390625,133.4015625,42.0,81.0
556,133.1890625,133.4203125,61.0,80.0
557,133.9390625,134.4046875,58.0,63.0
558,133.9390625,134.7015625,61.0,73.0
559,134.3140625,134.75,53.0,65.0
560,133.9390625,134.80937500000002,46.0,80.0
561,134.6890625,135.2671875,58.0,81.0
562,135.0640625,135.571875,53.0,72.0
563,135.4390625,135.5921875,61.0,72.0
564,135.4390625,135.7265625,65.0,79.0
565,136.1890625,136.3546875,61.0,82.0
566,136.1890625,136.3625,65.0,85.0
567,135.8140625,136.378125,46.0,43.0
568,136.1890625,136.53125,70.0,80.0
569,136.5640625,136.78593750000002,58.0,80.0
570,136.9390625,137.21562500000002,58.0,80.0
571,136.9390625,137.43125,63.0,80.0
572,137.6890625,137.9640625,66.0,81.0
573,138.0640625,138.25468750000002,58.0,81.0
574,136.9390625,138.478125,51.0,80.0
575,137.3140625,138.51250000000002,54.0,55.0
576,138.4390625,138.8515625,63.0,81.0
577,139.1890625,139.38750000000002,58.0,80.0
578,139.1890625,139.55625,66.0,80.0
579,138.8140625,139.5703125,51.0,76.0
580,139.5640625,139.69218750000002,63.0,79.0
581,139.9390625,140.40312500000002,61.0,80.0
582,140.3140625,140.76250000000002,56.0,73.0
583,140.6890625,140.88750000000002,61.0,78.0
584,141.0640625,141.22343750000002,63.0,72.0
585,141.4390625,141.5859375,56.0,81.0
586,139.9390625,141.59843750000002,49.0,78.0
587,141.4390625,141.7296875,65.0,83.0
588,141.8140625,141.9453125,56.0,78.0
589,142.1890625,142.375,56.0,81.0
590,142.1890625,142.4046875,61.0,82.0
591,142.5640625,142.6546875,49.0,82.0
592,142.9390625,143.6828125,61.0,80.0
593,142.9390625,143.7015625,58.0,76.0
594,143.6890625,143.9984375,65.0,84.0
595,144.0640625,144.1328125,61.0,81.0
596,144.4390625,144.5921875,70.0,78.0
597,143.3140625,144.5953125,53.0,74.0
598,144.4390625,144.6578125,58.0,80.0
599,144.8140625,145.240625,53.0,71.0
600,145.1890625,145.4171875,58.0,75.0
601,145.1890625,145.440625,65.0,81.0
602,142.9390625,145.64531250000002,46.0,81.0
603,145.3765625,145.64531250000002,53.0,78.0
604,145.5640625,145.7765625,58.0,80.0
605,145.9390625,146.1703125,58.0,73.0
606,145.9390625,146.396875,63.0,76.0
607,146.3140625,146.4828125,58.0,68.0
608,146.6890625,146.9625,66.0,80.0
609,145.9390625,147.2375,51.0,83.0
610,147.0640625,147.4296875,65.0,81.0
611,147.4390625,147.815625,63.0,82.0
612,147.8140625,148.0078125,58.0,81.0
613,148.1890625,148.365625,58.0,79.0
614,148.1890625,148.4078125,63.0,81.0
615,148.5640625,148.665625,61.0,80.0
616,148.9390625,149.4484375,59.0,69.0
617,148.9390625,149.45625,56.0,72.0
618,149.3140625,149.8046875,51.0,67.0
619,148.9390625,150.20781250000002,44.0,80.0
620,150.0640625,150.275,51.0,73.0
621,149.6890625,150.28593750000002,63.0,80.0
622,150.4390625,150.63750000000002,56.0,73.0
623,150.4390625,150.8890625,61.0,75.0
624,150.8140625,151.140625,56.0,80.0
625,151.1890625,151.31718750000002,61.0,83.0
626,150.4390625,151.5421875,49.0,76.0
627,151.5640625,151.74375,58.0,76.0
628,151.7515625,151.90625,56.0,80.0
629,151.9390625,153.14375,54.0,80.0
630,152.6890625,153.165625,61.0,74.0
631,153.0640625,153.2265625,58.0,73.0
632,153.4390625,153.89531250000002,66.0,81.0
633,153.8140625,154.0953125,54.0,68.0
634,154.1890625,154.3203125,61.0,70.0
635,152.3140625,154.3921875,49.0,65.0
636,151.9390625,154.45781250000002,42.0,80.0
637,154.9390625,155.33281250000002,58.0,75.0
638,154.9390625,155.3453125,66.0,76.0
639,155.3140625,155.8140625,49.0,49.0
640,155.6890625,155.915625,58.0,76.0
641,154.9390625,155.921875,42.0,80.0
642,155.6890625,155.9609375,61.0,81.0
643,156.4390625,156.6015625,58.0,75.0
644,156.4390625,156.61875,66.0,76.0
645,156.0640625,156.73125000000002,49.0,73.0
646,156.8140625,157.3671875,42.0,61.0
647,157.1890625,157.55312500000002,58.0,75.0
648,157.1890625,157.6671875,61.0,80.0
649,157.1890625,157.7296875,66.0,79.0
650,157.5640625,157.74375,44.0,81.0
651,157.9390625,158.4,61.0,75.0
652,157.9390625,158.421875,58.0,72.0
653,158.3140625,158.8203125,53.0,69.0
654,158.6890625,158.9328125,65.0,81.0
655,158.6890625,158.9765625,58.0,75.0
656,159.4390625,159.73125000000002,70.0,86.0
657,159.8140625,160.071875,58.0,83.0
658,160.1890625,160.4234375,58.0,76.0
659,160.1890625,160.484375,65.0,81.0
660,159.0640625,160.659375,53.0,74.0
661,157.9390625,160.73281250000002,46.0,80.0
662,160.5640625,160.784375,63.0,80.0
663,160.9390625,161.290625,58.0,79.0
664,160.9390625,161.375,63.0,78.0
665,161.6890625,162.07656250000002,66.0,81.0
666,161.3140625,162.09062500000002,54.0,65.0
667,160.9390625,162.1875,51.0,82.0
668,162.0640625,162.2671875,58.0,81.0
669,162.4390625,162.59218750000002,58.0,81.0
670,162.4390625,162.91250000000002,63.0,80.0
671,162.8140625,162.96875,58.0,58.0
672,163.1890625,163.37187500000002,51.0,82.0
673,163.1890625,163.61406250000002,58.0,80.0
674,163.1890625,163.675,63.0,78.0
675,163.5640625,163.71562500000002,46.0,79.0
676,163.9390625,164.140625,56.0,81.0
677,163.9390625,164.43437500000002,61.0,78.0
678,164.3140625,164.5078125,56.0,68.0
679,164.6890625,164.82656250000002,56.0,81.0
680,164.6890625,165.0875,65.0,81.0
681,163.9390625,165.24062500000002,49.0,84.0
682,165.0640625,165.28750000000002,63.0,75.0
683,165.4390625,165.57500000000002,56.0,69.0
684,165.4390625,165.9,61.0,71.0
685,165.8140625,165.98125000000002,56.0,76.0
686,165.4390625,166.58437500000002,49.0,73.0
687,166.1890625,166.58437500000002,65.0,83.0
688,166.1890625,166.5875,56.0,81.0
689,166.5640625,166.71562500000002,61.0,72.0
690,166.9390625,167.3703125,59.0,77.0
691,166.9390625,167.50468750000002,56.0,70.0
692,167.6890625,167.846875,63.0,81.0
693,168.0640625,168.1875,59.0,80.0
694,168.4390625,168.59843750000002,68.0,73.0
695,168.4390625,168.609375,56.0,81.0
696,167.3140625,168.6265625,51.0,65.0
697,168.8140625,169.290625,51.0,49.0
698,166.9390625,169.38125000000002,44.0,81.0
699,169.1890625,169.5734375,59.0,81.0
700,169.1890625,169.74687500000002,63.0,81.0
701,169.5640625,169.7578125,44.0,81.0
702,169.9390625,170.378125,58.0,78.0
703,169.9390625,170.3859375,61.0,80.0
704,170.3140625,170.875,53.0,69.0
705,169.9390625,170.87968750000002,46.0,75.0
706,170.6890625,170.9171875,61.0,81.0
707,170.6890625,170.940625,58.0,75.0
708,170.6890625,170.96718750000002,65.0,82.0
709,171.0640625,171.190625,46.0,81.0
710,171.4390625,171.5546875,39.0,71.0
711,171.4390625,171.909375,58.0,72.0
712,171.4390625,171.9859375,63.0,77.0
713,171.8140625,172.290625,51.0,67.0
714,172.1890625,172.328125,58.0,76.0
715,172.1890625,172.4015625,63.0,81.0
716,172.1890625,172.4078125,66.0,81.0
717,172.9390625,173.4484375,63.0,79.0
718,172.9390625,173.503125,56.0,76.0
719,173.6890625,173.8203125,59.0,84.0
720,174.0640625,174.2890625,56.0,80.0
721,174.4390625,174.65468750000002,56.0,76.0
722,174.4390625,174.659375,68.0,76.0
723,174.8140625,174.9875,56.0,72.0
724,173.3140625,175.31093750000002,51.0,65.0
725,172.9390625,175.33437500000002,44.0,81.0
726,175.1890625,175.42656250000002,56.0,75.0
727,175.1890625,175.43593750000002,59.0,81.0
728,175.1890625,175.609375,63.0,81.0
729,175.5640625,175.82656250000002,44.0,78.0
730,175.9390625,176.09218750000002,56.0,80.0
731,175.9390625,176.40312500000002,61.0,80.0
732,176.3140625,176.5015625,56.0,74.0
733,176.6890625,176.8671875,56.0,80.0
734,176.6890625,177.128125,63.0,82.0
735,175.9390625,177.20781250000002,49.0,80.0
736,177.0640625,177.23906250000002,56.0,77.0
737,177.4390625,177.5890625,56.0,80.0
738,177.4390625,177.86406250000002,65.0,82.0
739,177.4390625,177.88906250000002,61.0,81.0
740,177.8140625,177.99062500000002,56.0,72.0
741,178.1890625,178.38906250000002,56.0,81.0
742,178.1890625,178.425,63.0,80.0
743,177.4390625,178.6046875,49.0,82.0
744,178.9390625,179.31718750000002,58.0,70.0
745,178.9390625,179.40312500000002,61.0,74.0
746,179.6890625,179.90468750000002,66.0,81.0
747,179.8765625,180.0390625,61.0,82.0
748,180.0640625,180.228125,58.0,79.0
749,180.4390625,180.603125,58.0,71.0
750,180.4390625,180.6828125,61.0,73.0
751,179.3140625,180.91875000000002,49.0,75.0
752,180.8140625,180.946875,58.0,70.0
753,178.9390625,181.04531250000002,42.0,76.0
754,181.1890625,181.34218750000002,58.0,80.0
755,181.1890625,181.5640625,61.0,82.0
756,181.1890625,181.6328125,66.0,80.0
757,181.5640625,181.6796875,58.0,78.0
758,181.9390625,182.11562500000002,58.0,72.0
759,181.9390625,182.33437500000002,63.0,72.0
760,182.3140625,182.4,58.0,64.0
761,182.6890625,182.853125,58.0,81.0
762,182.6890625,182.93593750000002,66.0,80.0
763,181.9390625,183.02031250000002,51.0,81.0
764,182.8765625,183.1265625,65.0,81.0
765,183.0640625,183.196875,58.0,60.0
766,183.0640625,183.228125,63.0,75.0
767,183.4390625,183.5890625,58.0,74.0
768,183.4390625,183.853125,63.0,72.0
769,183.8140625,183.92031250000002,58.0,67.0
770,183.4390625,184.3609375,51.0,80.0
771,184.1890625,184.3859375,58.0,74.0
772,184.1890625,184.540625,63.0,75.0
773,184.1890625,184.55625,66.0,80.0
774,184.9390625,185.08281250000002,58.0,74.0
775,184.9390625,185.40625,63.0,76.0
776,185.3140625,185.46562500000002,58.0,66.0
777,184.9390625,185.7921875,51.0,81.0
778,185.6890625,185.85781250000002,58.0,77.0
779,185.6890625,186.1671875,66.0,80.0
780,186.0640625,186.2578125,58.0,71.0
781,186.4390625,186.62343750000002,58.0,75.0
782,186.4390625,186.86875,63.0,74.0
783,186.8140625,186.95156250000002,58.0,70.0
784,186.4390625,187.32500000000002,39.0,80.0
785,187.1890625,187.4,58.0,79.0
786,187.1890625,187.578125,63.0,80.0
787,187.5640625,187.83281250000002,61.0,79.0
788,187.9390625,188.2734375,63.0,79.0
789,187.9390625,188.30937500000002,56.0,75.0
790,188.3140625,188.784375,51.0,67.0
791,187.9390625,188.8453125,44.0,82.0
792,188.6890625,188.98906250000002,59.0,85.0
793,188.6890625,188.9953125,56.0,82.0
794,188.6890625,189.128125,63.0,85.0
795,189.0640625,189.33125,44.0,80.0
796,189.2515625,189.3453125,56.0,80.0
797,189.4390625,189.60781250000002,56.0,81.0
798,189.4390625,189.921875,61.0,82.0
799,189.8140625,189.95781250000002,56.0,77.0
800,190.1890625,190.2890625,56.0,80.0
801,189.4390625,190.46875,49.0,83.0
802,190.1890625,190.5890625,61.0,84.0
803,190.1890625,190.60625000000002,65.0,84.0
804,190.5640625,190.7375,56.0,81.0
805,190.9390625,191.3234375,63.0,77.0
806,190.9390625,191.35781250000002,56.0,80.0
807,191.6890625,192.05625,59.0,82.0
808,191.3140625,192.0875,51.0,61.0
809,190.9390625,192.14687500000002,44.0,81.0
810,192.0640625,192.3671875,56.0,76.0
811,192.4390625,192.71562500000002,63.0,76.0
812,192.4390625,192.7296875,59.0,69.0
813,192.8140625,193.228125,51.0,55.0
814,192.4390625,193.328125,44.0,79.0
815,193.1890625,193.5171875,56.0,76.0
816,193.1890625,193.52812500000002,59.0,80.0
817,193.5640625,193.83125,44.0,80.0
818,193.9390625,194.30937500000002,58.0,76.0
819,193.9390625,194.3140625,61.0,80.0
820,194.6890625,194.8359375,58.0,72.0
821,194.3140625,194.84062500000002,53.0,74.0
822,193.9390625,194.878125,46.0,80.0
823,194.6890625,195.05156250000002,61.0,75.0
824,194.6890625,195.0578125,65.0,83.0
825,195.0640625,195.27968750000002,58.0,82.0
826,195.4390625,195.6015625,58.0,82.0
827,195.4390625,195.846875,66.0,80.0
828,195.8140625,195.96562500000002,58.0,80.0
829,195.4390625,196.31875000000002,51.0,81.0
830,196.1890625,196.440625,66.0,85.0
831,196.3765625,196.59218750000002,65.0,81.0
832,196.5640625,196.76250000000002,63.0,83.0
833,196.7515625,196.890625,61.0,74.0
834,196.9390625,197.346875,59.0,81.0
835,197.6890625,198.015625,59.0,83.0
836,197.6890625,198.034375,63.0,81.0
837,198.0640625,198.2453125,56.0,70.0
838,197.3140625,198.60625000000002,51.0,69.0
839,198.4390625,198.70156250000002,63.0,76.0
840,198.4390625,198.7046875,56.0,81.0
841,199.1890625,199.49375,59.0,86.0
842,198.8140625,199.565625,51.0,62.0
843,196.9390625,199.62343750000002,44.0,81.0
844,199.5640625,199.846875,56.0,81.0
845,199.9390625,200.3671875,61.0,86.0
846,200.3140625,200.525,56.0,80.0
847,200.6890625,200.98906250000002,63.0,85.0
848,201.0640625,201.20156250000002,63.0,77.0
849,199.9390625,201.378125,49.0,81.0
850,201.0640625,201.38750000000002,56.0,78.0
851,201.4390625,201.8703125,65.0,87.0
852,201.8140625,201.9921875,56.0,83.0
853,202.1890625,202.38125000000002,63.0,84.0
854,202.1890625,202.3828125,56.0,85.0
855,201.4390625,202.80937500000002,49.0,85.0
856,202.5640625,202.8984375,61.0,77.0
857,202.9390625,203.31718750000002,58.0,70.0
858,202.9390625,203.40312500000002,61.0,74.0
859,203.6890625,203.90468750000002,66.0,81.0
860,203.8765625,204.0390625,61.0,82.0
861,204.0640625,204.228125,58.0,79.0
862,204.4390625,204.603125,58.0,71.0
863,204.4390625,204.6828125,61.0,73.0
864,203.3140625,204.91875000000002,49.0,75.0
865,204.8140625,204.946875,58.0,70.0
866,202.9390625,205.04531250000002,42.0,76.0
867,205.1890625,205.34218750000002,58.0,80.0
868,205.1890625,205.5640625,61.0,82.0
869,205.1890625,205.6328125,66.0,80.0
870,205.5640625,205.6796875,58.0,78.0
871,205.9390625,206.11562500000002,58.0,72.0
872,205.9390625,206.33437500000002,63.0,72.0
873,206.3140625,206.4,58.0,64.0
874,206.6890625,206.853125,58.0,81.0
875,206.6890625,206.93593750000002,66.0,80.0
876,205.9390625,207.02031250000002,51.0,81.0
877,206.8765625,207.1265625,65.0,81.0
878,207.0640625,207.196875,58.0,60.0
879,207.0640625,207.228125,63.0,75.0
880,207.4390625,207.5890625,58.0,74.0
881,207.4390625,207.853125,63.0,72.0
882,207.8140625,207.92031250000002,58.0,67.0
883,207.4390625,208.3609375,51.0,80.0
884,208.1890625,208.3859375,58.0,74.0
885,208.1890625,208.540625,63.0,75.0
886,208.1890625,208.55625,66.0,80.0
887,208.9390625,209.08281250000002,58.0,74.0
888,208.9390625,209.40625,63.0,76.0
889,209.3140625,209.46562500000002,58.0,66.0
890,208.9390625,209.7921875,51.0,81.0
891,209.6890625,209.85781250000002,58.0,77.0
892,209.6890625,210.1671875,66.0,80.0
893,210.0640625,210.2578125,58.0,71.0
894,210.4390625,210.62343750000002,58.0,75.0
895,210.4390625,210.86875,63.0,74.0
896,210.8140625,210.95156250000002,58.0,70.0
897,210.4390625,211.32500000000002,39.0,80.0
898,211.1890625,211.4,58.0,79.0
899,211.1890625,211.578125,63.0,80.0
900,211.5640625,211.83281250000002,61.0,79.0
901,211.9390625,212.2734375,63.0,79.0
902,211.9390625,212.30937500000002,56.0,75.0
903,212.3140625,212.784375,51.0,67.0
904,211.9390625,212.8453125,44.0,82.0
905,212.6890625,212.98906250000002,59.0,85.0
906,212.6890625,212.9953125,56.0,82.0
907,212.6890625,213.128125,63.0,85.0
908,213.0640625,213.33125,44.0,80.0
909,213.2515625,213.3453125,56.0,80.0
910,213.4390625,213.60781250000002,56.0,81.0
911,213.4390625,213.921875,61.0,82.0
912,213.8140625,213.95781250000002,56.0,77.0
913,214.1890625,214.2890625,56.0,80.0
914,213.4390625,214.46875,49.0,83.0
915,214.1890625,214.5890625,61.0,84.0
916,214.1890625,214.60625000000002,65.0,84.0
917,214.5640625,214.7375,56.0,81.0
918,214.9390625,215.3234375,63.0,77.0
919,214.9390625,215.35781250000002,56.0,80.0
920,215.6890625,216.05625,59.0,82.0
921,215.3140625,216.0875,51.0,61.0
922,214.9390625,216.14687500000002,44.0,81.0
923,216.0640625,216.3671875,56.0,76.0
924,216.4390625,216.71562500000002,63.0,76.0
925,216.4390625,216.7296875,59.0,69.0
926,216.8140625,217.228125,51.0,55.0
927,216.4390625,217.328125,44.0,79.0
928,217.1890625,217.5171875,56.0,76.0
929,217.1890625,217.52812500000002,59.0,80.0
930,217.5640625,217.83125,44.0,80.0
931,217.9390625,218.30937500000002,58.0,76.0
932,217.9390625,218.3140625,61.0,80.0
933,218.6890625,218.8359375,58.0,72.0
934,218.3140625,218.84062500000002,53.0,74.0
935,217.9390625,218.878125,46.0,80.0
936,218.6890625,219.05156250000002,61.0,75.0
937,218.6890625,219.0578125,65.0,83.0
938,219.0640625,219.27968750000002,58.0,82.0
939,219.4390625,219.6015625,58.0,82.0
940,219.4390625,219.846875,66.0,80.0
941,219.8140625,219.96562500000002,58.0,80.0
942,219.4390625,220.31875000000002,51.0,81.0
943,220.1890625,220.440625,66.0,85.0
944,220.3765625,220.59218750000002,65.0,81.0
945,220.5640625,220.76250000000002,63.0,83.0
946,220.7515625,220.890625,61.0,74.0
947,220.9390625,221.346875,59.0,81.0
948,221.6890625,222.015625,59.0,83.0
949,221.6890625,222.034375,63.0,81.0
950,222.0640625,222.2453125,56.0,70.0
951,221.3140625,222.60625000000002,51.0,69.0
952,222.4390625,222.70156250000002,63.0,76.0
953,222.4390625,222.7046875,56.0,81.0
954,223.1890625,223.49375,59.0,86.0
955,222.8140625,223.565625,51.0,62.0
956,220.9390625,223.62343750000002,44.0,81.0
957,223.5640625,223.846875,56.0,81.0
958,223.9390625,224.3671875,61.0,86.0
959,224.3140625,224.525,56.0,80.0
960,224.6890625,224.98906250000002,63.0,85.0
961,225.0640625,225.20156250000002,63.0,77.0
962,223.9390625,225.378125,49.0,81.0
963,225.0640625,225.38750000000002,56.0,78.0
964,225.4390625,225.8703125,65.0,87.0
965,225.8140625,225.9921875,56.0,83.0
966,226.1890625,226.38125000000002,63.0,84.0
967,226.1890625,226.3828125,56.0,85.0
968,225.4390625,226.80937500000002,49.0,85.0
969,226.5640625,226.8984375,61.0,77.0
970,226.77812500000002,227.253125,56.0,65.0
971,226.84218750000002,227.540625,59.0,81.0
972,226.9625,227.571875,68.0,76.0
973,226.9140625,227.734375,63.0,73.0
974,227.65625,227.7828125,56.0,81.0
975,227.2734375,227.8546875,51.0,69.0
976,226.925,227.93437500000002,44.0,81.0
977,228.259375,228.45156250000002,56.0,73.0
978,228.33125,228.70156250000002,61.0,75.0
979,228.4296875,228.84843750000002,49.0,84.0
980,228.796875,228.96875,56.0,82.0
981,228.42812500000002,228.9796875,65.0,83.0
982,229.1484375,229.27812500000002,61.0,70.0
983,229.14687500000002,229.29531250000002,56.0,73.0
984,229.9390625,230.3390625,54.0,73.0
985,229.9390625,230.3671875,58.0,74.0
986,230.6890625,230.878125,54.0,83.0
987,231.0640625,231.19375000000002,56.0,86.0
988,231.4390625,231.88125000000002,58.0,82.0
989,231.8140625,232.03125,61.0,81.0
990,230.3140625,232.375,49.0,68.0
991,229.9390625,232.628125,42.0,80.0
992,232.1890625,232.92031250000002,66.0,82.0
993,232.1890625,232.92656250000002,58.0,78.0
994,232.5640625,232.93125,49.0,80.0
995,232.1890625,232.9453125,61.0,84.0
996,234.0640625,234.5,54.0,78.0
997,234.4390625,234.9375,66.0,81.0
998,233.6890625,234.96875,61.0,76.0
999,234.8140625,235.0546875,54.0,63.0
1000,232.9390625,235.32656250000002,42.0,80.0
1001,235.1890625,235.32656250000002,61.0,76.0
1002,233.3140625,235.3390625,49.0,74.0
1003,235.9390625,236.7296875,63.0,76.0
1004,236.3140625,236.753125,58.0,69.0
1005,236.6890625,237.128125,66.0,86.0
1006,237.0640625,237.39375,65.0,85.0
1007,235.9390625,237.62968750000002,51.0,74.0
1008,237.4390625,237.83125,63.0,82.0
1009,237.8140625,238.0234375,58.0,72.0
1010,238.1890625,238.4296875,51.0,79.0
1011,238.1890625,238.4296875,58.0,73.0
1012,238.1890625,238.54375000000002,63.0,79.0
1013,238.9390625,239.55,66.0,79.0
1014,239.3140625,239.7265625,58.0,72.0
1015,239.6890625,240.11875,63.0,76.0
1016,240.0640625,240.525,58.0,76.0
1017,240.4390625,240.8859375,66.0,82.0
1018,238.9390625,240.9625,51.0,77.0
1019,240.8140625,241.253125,65.0,82.0
1020,241.1890625,241.41093750000002,51.0,77.0
1021,241.1890625,241.5890625,63.0,82.0
1022,241.5640625,241.7578125,58.0,81.0
1023,241.9390625,242.52968750000002,56.0,75.0
1024,241.9390625,242.5875,63.0,76.0
1025,242.6890625,243.078125,59.0,82.0
1026,242.3140625,243.23125000000002,51.0,65.0
1027,243.0640625,243.30156250000002,56.0,79.0
1028,241.9390625,243.3390625,44.0,80.0
1029,243.4390625,243.92656250000002,61.0,82.0
1030,243.8140625,244.228125,56.0,82.0
1031,243.4390625,244.9390625,49.0,76.0
1032,244.1890625,244.9703125,65.0,87.0
1033,244.5640625,244.97500000000002,56.0,80.0
1034,244.9390625,244.97500000000002,56.0,80.0
1035,244.9390625,245.3234375,63.0,77.0
1036,245.6890625,246.05625,59.0,82.0
1037,245.3140625,246.0875,51.0,61.0
1038,244.9390625,246.14687500000002,44.0,81.0
1039,246.0640625,246.3671875,56.0,76.0
1040,246.4390625,246.71562500000002,63.0,76.0
1041,246.4390625,246.7296875,59.0,69.0
1042,246.8140625,247.228125,51.0,55.0
1043,246.4390625,247.328125,44.0,79.0
1044,247.1890625,247.5171875,56.0,76.0
1045,247.1890625,247.52812500000002,59.0,80.0
1046,247.5640625,247.83125,44.0,80.0
1047,247.9390625,248.30937500000002,58.0,76.0
1048,247.9390625,248.3140625,61.0,80.0
1049,248.6890625,248.8359375,58.0,72.0
1050,248.3140625,248.84062500000002,53.0,74.0
1051,247.9390625,248.878125,46.0,80.0
1052,248.6890625,249.05156250000002,61.0,75.0
1053,248.6890625,249.0578125,65.0,83.0
1054,249.0640625,249.27968750000002,58.0,82.0
1055,249.4390625,249.6015625,58.0,82.0
1056,249.4390625,249.846875,66.0,80.0
1057,249.8140625,249.96562500000002,58.0,80.0
1058,249.4390625,250.31875000000002,51.0,81.0
1059,250.1890625,250.440625,66.0,85.0
1060,250.3765625,250.59218750000002,65.0,81.0
1061,250.5640625,250.76250000000002,63.0,83.0
1062,250.7515625,250.890625,61.0,74.0
1063,250.9390625,251.346875,59.0,81.0
1064,251.6890625,252.015625,59.0,83.0
1065,251.6890625,252.034375,63.0,81.0
1066,252.0640625,252.2453125,56.0,70.0
1067,251.3140625,252.60625000000002,51.0,69.0
1068,252.4390625,252.70156250000002,63.0,76.0
1069,252.4390625,252.7046875,56.0,81.0
1070,253.1890625,253.49375,59.0,86.0
1071,252.8140625,253.565625,51.0,62.0
1072,250.9390625,253.62343750000002,44.0,81.0
1073,253.5640625,253.846875,56.0,81.0
1074,253.9390625,254.3671875,61.0,86.0
1075,254.3140625,254.525,56.0,80.0
1076,254.6890625,254.98906250000002,63.0,85.0
1077,255.0640625,255.20156250000002,63.0,77.0
1078,253.9390625,255.378125,49.0,81.0
1079,255.0640625,255.38750000000002,56.0,78.0
1080,255.4390625,255.8703125,65.0,87.0
1081,255.8140625,255.9921875,56.0,83.0
1082,256.18906250000003,256.38125,63.0,84.0
1083,256.18906250000003,256.3828125,56.0,85.0
1084,255.4390625,256.809375,49.0,85.0
1085,256.56406250000003,256.8984375,61.0,77.0
1086,256.93906250000003,257.3171875,58.0,70.0
1087,256.93906250000003,257.403125,61.0,74.0
1088,257.68906250000003,257.9046875,66.0,81.0
1089,257.87656250000003,258.0390625,61.0,82.0
1090,258.06406250000003,258.22812500000003,58.0,79.0
1091,258.43906250000003,258.60312500000003,58.0,71.0
1092,258.43906250000003,258.6828125,61.0,73.0
1093,257.31406250000003,258.91875,49.0,75.0
1094,258.81406250000003,258.94687500000003,58.0,70.0
1095,256.93906250000003,259.0453125,42.0,76.0
1096,259.18906250000003,259.3421875,58.0,80.0
1097,259.18906250000003,259.56406250000003,61.0,82.0
1098,259.18906250000003,259.6328125,66.0,80.0
1099,259.56406250000003,259.6796875,58.0,78.0
1100,259.93906250000003,260.115625,58.0,72.0
1101,259.93906250000003,260.334375,63.0,72.0
1102,260.31406250000003,260.40000000000003,58.0,64.0
1103,260.68906250000003,260.85312500000003,58.0,81.0
1104,260.68906250000003,260.9359375,66.0,80.0
1105,259.93906250000003,261.0203125,51.0,81.0
1106,260.87656250000003,261.12656250000003,65.0,81.0
1107,261.06406250000003,261.19687500000003,58.0,60.0
1108,261.06406250000003,261.22812500000003,63.0,75.0
1109,261.43906250000003,261.5890625,58.0,74.0
1110,261.43906250000003,261.85312500000003,63.0,72.0
1111,261.81406250000003,261.9203125,58.0,67.0
1112,261.43906250000003,262.36093750000003,51.0,80.0
1113,262.18906250000003,262.3859375,58.0,74.0
1114,262.18906250000003,262.54062500000003,63.0,75.0
1115,262.18906250000003,262.55625000000003,66.0,80.0
1116,262.93906250000003,263.0828125,58.0,74.0
1117,262.93906250000003,263.40625,63.0,76.0
1118,263.31406250000003,263.465625,58.0,66.0
1119,262.93906250000003,263.7921875,51.0,81.0
1120,263.68906250000003,263.8578125,58.0,77.0
1121,263.68906250000003,264.1671875,66.0,80.0
1122,264.06406250000003,264.2578125,58.0,71.0
1123,264.43906250000003,264.6234375,58.0,75.0
1124,264.43906250000003,264.86875000000003,63.0,74.0
1125,264.81406250000003,264.9515625,58.0,70.0
1126,264.43906250000003,265.325,39.0,80.0
1127,265.18906250000003,265.40000000000003,58.0,79.0
1128,265.18906250000003,265.578125,63.0,80.0
1129,265.56406250000003,265.8328125,61.0,79.0
1130,265.93906250000003,266.2734375,63.0,79.0
1131,265.93906250000003,266.309375,56.0,75.0
1132,266.31406250000003,266.784375,51.0,67.0
1133,265.93906250000003,266.84531250000003,44.0,82.0
1134,266.68906250000003,266.9890625,59.0,85.0
1135,266.68906250000003,266.9953125,56.0,82.0
1136,266.68906250000003,267.128125,63.0,85.0
1137,267.06406250000003,267.33125,44.0,80.0
1138,267.25156250000003,267.34531250000003,56.0,80.0
1139,267.43906250000003,267.6078125,56.0,81.0
1140,267.43906250000003,267.921875,61.0,82.0
1141,267.81406250000003,267.9578125,56.0,77.0
1142,268.18906250000003,268.2890625,56.0,80.0
1143,267.43906250000003,268.46875,49.0,83.0
1144,268.18906250000003,268.5890625,61.0,84.0
1145,268.18906250000003,268.60625,65.0,84.0
1146,268.56406250000003,268.7375,56.0,81.0
1147,268.93906250000003,269.3234375,63.0,77.0
1148,268.93906250000003,269.3578125,56.0,80.0
1149,269.68906250000003,270.05625000000003,59.0,82.0
1150,269.31406250000003,270.08750000000003,51.0,61.0
1151,268.93906250000003,270.146875,44.0,81.0
1152,270.06406250000003,270.3671875,56.0,76.0
1153,270.43906250000003,270.715625,63.0,76.0
1154,270.43906250000003,270.7296875,59.0,69.0
1155,270.81406250000003,271.22812500000003,51.0,55.0
1156,270.43906250000003,271.328125,44.0,79.0
1157,271.18906250000003,271.51718750000003,56.0,76.0
1158,271.18906250000003,271.528125,59.0,80.0
1159,271.56406250000003,271.83125,44.0,80.0
1160,271.93906250000003,272.309375,58.0,76.0
1161,271.93906250000003,272.31406250000003,61.0,80.0
1162,272.68906250000003,272.8359375,58.0,72.0
1163,272.31406250000003,272.840625,53.0,74.0
1164,271.93906250000003,272.878125,46.0,80.0
1165,272.68906250000003,273.0515625,61.0,75.0
1166,272.68906250000003,273.0578125,65.0,83.0
1167,273.06406250000003,273.2796875,58.0,82.0
1168,273.43906250000003,273.6015625,58.0,82.0
1169,273.43906250000003,273.846875,66.0,80.0
1170,273.81406250000003,273.965625,58.0,80.0
1171,273.43906250000003,274.31875,51.0,81.0
1172,274.18906250000003,274.440625,66.0,85.0
1173,274.37656250000003,274.5921875,65.0,81.0
1174,274.56406250000003,274.7625,63.0,83.0
1175,274.75156250000003,274.890625,61.0,74.0
1176,274.93906250000003,275.346875,59.0,81.0
1177,275.68906250000003,276.015625,59.0,83.0
1178,275.68906250000003,276.034375,63.0,81.0
1179,276.06406250000003,276.2453125,56.0,70.0
1180,275.31406250000003,276.60625,51.0,69.0
1181,276.43906250000003,276.7015625,63.0,76.0
1182,276.43906250000003,276.70468750000003,56.0,81.0
1183,277.18906250000003,277.49375000000003,59.0,86.0
1184,276.81406250000003,277.565625,51.0,62.0
1185,274.93906250000003,277.6234375,44.0,81.0
1186,277.56406250000003,277.846875,56.0,81.0
1187,277.93906250000003,278.3671875,61.0,86.0
1188,278.31406250000003,278.52500000000003,56.0,80.0
1189,278.68906250000003,278.9890625,63.0,85.0
1190,279.06406250000003,279.2015625,63.0,77.0
1191,277.93906250000003,279.378125,49.0,81.0
1192,279.06406250000003,279.3875,56.0,78.0
1193,279.43906250000003,279.8703125,65.0,87.0
1194,279.81406250000003,279.9921875,56.0,83.0
1195,280.18906250000003,280.38125,63.0,84.0
1196,280.18906250000003,280.3828125,56.0,85.0
1197,279.43906250000003,280.809375,49.0,85.0
1198,280.56406250000003,280.8984375,61.0,77.0
1199,280.778125,281.253125,56.0,65.0
1200,280.8421875,281.54062500000003,59.0,81.0
1201,280.96250000000003,281.57187500000003,68.0,76.0
1202,280.9140625,281.734375,63.0,73.0
1203,281.65625,281.78281250000003,56.0,81.0
1204,281.2734375,281.8546875,51.0,69.0
1205,280.925,281.934375,44.0,81.0
1206,283.0359375,283.25937500000003,44.0,64.0
1207,282.83750000000003,283.2953125,37.0,78.0
1208,283.12656250000003,283.3390625,56.0,70.0
1209,283.2328125,283.36875000000003,61.0,70.0
1210,283.3203125,283.471875,65.0,82.0
1211,285.37656250000003,286.565625,58.0,73.0
1212,286.5078125,286.934375,61.0,81.0
1213,286.146875,286.97031250000003,54.0,83.0
1214,286.896875,287.4609375,66.0,81.0
1215,287.26875,287.471875,54.0,67.0
1216,287.65625,287.771875,58.0,82.0
1217,287.65000000000003,287.7734375,54.0,80.0
1218,285.77500000000003,287.78281250000003,49.0,68.0
1219,287.6546875,287.825,61.0,81.0
1220,285.371875,287.8671875,42.0,80.0
1221,288.3984375,288.815625,58.0,70.0
1222,288.39375,289.178125,63.0,76.0
1223,289.125,289.61093750000003,58.0,82.0
1224,289.521875,289.6984375,63.0,83.0
1225,288.7546875,290.0546875,46.0,59.0
1226,289.890625,290.13125,58.0,80.0
1227,289.896875,290.2609375,66.0,80.0
1228,290.278125,290.61875000000003,46.0,67.0
1229,288.4046875,290.65000000000003,39.0,82.0
1230,290.66562500000003,291.03125,63.0,81.0
1231,291.0140625,291.1859375,58.0,80.0
1232,291.4109375,291.87656250000003,63.0,80.0
1233,291.4140625,291.921875,56.0,72.0
1234,292.1609375,292.4890625,59.0,86.0
1235,291.7765625,292.515625,51.0,69.0
1236,291.4125,292.6046875,44.0,80.0
1237,292.50937500000003,292.7890625,56.0,83.0
1238,292.909375,293.44687500000003,61.0,81.0
1239,293.25937500000003,293.57187500000003,56.0,80.0
1240,292.903125,293.8171875,49.0,77.0
1241,293.66562500000003,294.015625,65.0,83.0
1242,293.6640625,294.028125,61.0,78.0
1243,294.01718750000003,294.175,56.0,70.0
1244,294.3875,295.1875,54.0,69.0
1245,294.3828125,295.1875,58.0,69.0
1246,295.1140625,295.3390625,61.0,71.0
1247,294.7625,295.75156250000003,49.0,65.0
1248,295.5,295.896875,66.0,82.0
1249,296.265625,296.5,54.0,73.0
1250,296.653125,296.82187500000003,58.0,80.0
1251,296.6515625,296.8828125,61.0,80.0
1252,295.834375,296.8890625,49.0,72.0
1253,294.3890625,296.95625,42.0,79.0
1254,297.440625,298.03281250000003,54.0,72.0
1255,297.4359375,298.2453125,58.0,76.0
1256,297.78125,300.6625,49.0,57.0
1257,297.44687500000003,300.7234375,42.0,81.0
1258,298.19375,300.859375,61.0,73.0
1259,298.575,300.890625,66.0,78.0
