,start,end,pitch,velocity
0,32.545575562500005,33.1536830625,58.0,104.0
1,33.1536830625,33.354696375,63.0,91.0
2,33.3563855625,33.760101375000005,63.0,92.0
3,33.7617905625,33.962803875000006,63.0,93.0
4,33.964493062500004,34.167195562500005,63.0,90.0
5,34.167195562500005,34.5726005625,66.0,98.0
6,34.5726005625,34.9780055625,63.0,96.0
7,34.9780055625,35.3834105625,61.0,98.0
8,35.3834105625,35.788815562500005,58.0,98.0
9,35.788815562500005,38.624961375000005,63.0,104.0
10,38.626650562500004,38.829353062500005,63.0,80.0
11,38.829353062500005,39.032055562500005,66.0,84.0
12,39.032055562500005,39.638473875,68.0,86.0
13,39.6401630625,39.901987125000005,68.0,83.0
14,39.8428655625,39.901987125000005,68.0,86.0
15,40.248270562500004,40.653675562500005,66.0,84.0
16,40.653675562500005,41.4644855625,68.0,87.0
17,41.4644855625,42.307390125000005,73.0,100.0
18,42.275295562500006,45.51684637500001,70.0,93.0
19,45.518535562500006,45.92394056250001,70.0,102.0
20,45.92394056250001,46.327656375000004,75.0,107.0
21,46.3293455625,46.734750562500004,75.0,102.0
22,46.734750562500004,47.140155562500006,73.0,98.0
23,47.140155562500006,47.54556056250001,75.0,86.0
24,47.54556056250001,47.954343937500006,78.0,100.0
25,47.9509655625,48.36819487500001,75.0,98.0
26,48.356370562500004,48.761775562500006,73.0,90.0
27,48.761775562500006,49.165491375,68.0,88.0
28,49.16718056250001,49.570896375000004,68.0,100.0
29,49.5725855625,49.977990562500004,68.0,89.0
30,49.977990562500004,50.383395562500006,66.0,91.0
31,50.383395562500006,50.78880056250001,70.0,94.0
32,50.78880056250001,51.597921375000006,68.0,92.0
33,51.599610562500004,51.817515750000005,68.0,88.0
34,51.802313062500005,52.005015562500006,70.0,87.0
35,52.005015562500006,52.6131230625,73.0,96.0
36,52.6131230625,52.8158255625,75.0,86.0
37,52.8158255625,53.221230562500004,73.0,94.0
38,53.221230562500004,53.635081500000005,70.0,88.0
39,53.626635562500006,54.03204056250001,68.0,87.0
40,54.03204056250001,54.449269875000006,70.0,93.0
41,54.4374455625,54.842850562500004,68.0,89.0
42,54.842850562500004,55.045553062500005,66.0,93.0
43,55.045553062500005,55.248255562500006,65.0,88.0
44,55.248255562500006,58.491495562500006,63.0,94.0
45,58.491495562500006,59.0996030625,58.0,104.0
46,59.0996030625,59.300616375000004,63.0,91.0
47,59.3023055625,59.706021375000006,63.0,92.0
48,59.707710562500004,59.90872387500001,63.0,93.0
49,59.910413062500005,60.113115562500006,63.0,90.0
50,60.113115562500006,60.51852056250001,66.0,98.0
51,60.51852056250001,60.9239255625,63.0,96.0
52,60.9239255625,61.329330562500004,61.0,98.0
53,61.329330562500004,61.734735562500006,58.0,98.0
54,61.734735562500006,64.570881375,63.0,104.0
55,64.5725705625,64.7752730625,63.0,80.0
56,64.7752730625,64.9779755625,66.0,84.0
57,64.9779755625,65.584393875,68.0,86.0
58,65.58608306250001,65.847907125,68.0,83.0
59,65.78878556250001,65.847907125,68.0,86.0
60,66.19419056250001,66.5995955625,66.0,84.0
61,66.5995955625,67.4104055625,68.0,87.0
62,67.4104055625,68.25331012500001,73.0,100.0
63,68.2212155625,71.462766375,70.0,93.0
64,71.4644555625,71.86986056250001,70.0,102.0
65,71.86986056250001,72.273576375,75.0,107.0
66,72.27526556250001,72.68067056250001,75.0,102.0
67,72.68067056250001,73.0860755625,73.0,98.0
68,73.0860755625,73.4914805625,75.0,86.0
69,73.4914805625,73.9002639375,78.0,100.0
70,73.8968855625,74.314114875,75.0,98.0
71,74.3022905625,74.7076955625,73.0,90.0
72,74.7076955625,75.111411375,68.0,88.0
73,75.11310056250001,75.516816375,68.0,100.0
74,75.51850556250001,75.92391056250001,68.0,89.0
75,75.92391056250001,76.3293155625,66.0,91.0
76,76.3293155625,76.7347205625,70.0,94.0
77,76.7347205625,77.54384137500001,68.0,92.0
78,77.5455305625,77.76343575000001,68.0,88.0
79,77.7482330625,77.9509355625,70.0,87.0
80,77.9509355625,78.55904306250001,73.0,96.0
81,78.55904306250001,78.76174556250001,75.0,86.0
82,78.76174556250001,79.16715056250001,73.0,94.0
83,79.16715056250001,79.58100150000001,70.0,88.0
84,79.57255556250001,79.9779605625,68.0,87.0
85,79.9779605625,80.39518987500001,70.0,93.0
86,80.3833655625,80.7887705625,68.0,89.0
87,80.7887705625,80.9914730625,66.0,93.0
88,80.9914730625,81.1941755625,65.0,88.0
89,81.1941755625,84.43741556250001,63.0,94.0
90,84.43741556250001,84.84282056250001,70.0,89.0
91,84.84282056250001,85.043833875,75.0,91.0
92,85.04552306250001,85.246536375,75.0,92.0
93,85.24822556250001,85.651941375,75.0,107.0
94,85.65363056250001,85.85633306250001,75.0,98.0
95,85.85633306250001,86.05903556250001,78.0,94.0
96,86.05903556250001,86.4644405625,77.0,110.0
97,86.4644405625,86.874913125,75.0,102.0
98,86.8698455625,86.874913125,75.0,90.0
99,87.2752505625,87.476263875,73.0,92.0
100,87.4779530625,87.68065556250001,73.0,93.0
101,87.68065556250001,90.51680137500001,75.0,108.0
102,90.5184905625,90.71950387500002,75.0,86.0
103,90.7211930625,90.92389556250001,75.0,87.0
104,90.92389556250001,91.530313875,77.0,104.0
105,91.53200306250001,91.733016375,77.0,91.0
106,91.73470556250001,92.13842137500001,77.0,108.0
107,92.14011056250001,92.34281306250001,77.0,107.0
108,92.34281306250001,92.54551556250001,75.0,93.0
109,92.54551556250001,92.9509205625,73.0,107.0
110,92.9509205625,93.35463637500001,75.0,104.0
111,93.3563255625,93.7617305625,75.0,108.0
112,93.7617305625,94.16713556250001,68.0,108.0
113,94.16713556250001,97.408686375,70.0,104.0
114,97.41037556250001,97.81578056250001,70.0,102.0
115,97.81578056250001,98.62659056250001,75.0,113.0
116,98.62659056250001,99.03199556250001,77.0,110.0
117,99.03199556250001,99.43571137500001,75.0,108.0
118,99.4374005625,99.6401030625,78.0,83.0
119,99.8428055625,100.2482105625,75.0,86.0
120,100.2482105625,100.4542914375,70.0,87.0
121,100.4509130625,100.4542914375,70.0,85.0
122,100.65361556250001,101.05902056250001,68.0,86.0
123,101.05902056250001,101.86983056250001,66.0,98.0
124,101.86983056250001,102.27523556250001,70.0,96.0
125,102.27523556250001,103.6941530625,68.0,91.0
126,103.6941530625,103.89685556250001,70.0,89.0
127,103.89685556250001,104.50496306250001,73.0,104.0
128,104.50496306250001,104.70766556250001,75.0,100.0
129,104.70766556250001,105.11307056250001,73.0,102.0
130,105.11307056250001,105.51847556250002,70.0,108.0
131,105.51847556250002,105.92219137500001,68.0,100.0
132,105.9238805625,106.1265830625,68.0,89.0
133,106.1265830625,106.3292855625,70.0,88.0
134,106.3292855625,106.7346905625,65.0,89.0
135,106.7346905625,106.9373930625,61.0,88.0
136,106.9373930625,107.14009556250001,65.0,84.0
137,107.14009556250001,110.38333556250001,63.0,91.0
138,110.38333556250001,110.78874056250001,70.0,89.0
139,110.78874056250001,110.989753875,75.0,91.0
140,110.99144306250001,111.192456375,75.0,92.0
141,111.19414556250001,111.59786137500001,75.0,107.0
142,111.59955056250001,111.80225306250001,75.0,98.0
143,111.80225306250001,112.00495556250002,78.0,94.0
144,112.00495556250002,112.41036056250002,77.0,110.0
145,112.41036056250002,112.81407637500001,75.0,102.0
146,112.8157655625,113.2211705625,75.0,90.0
147,113.2211705625,113.42218387500002,73.0,92.0
148,113.42387306250001,113.62657556250001,73.0,93.0
149,113.62657556250001,116.46272137500002,75.0,108.0
150,116.4644105625,116.66542387500002,75.0,86.0
151,116.66711306250001,116.86981556250001,75.0,87.0
152,116.86981556250001,117.476233875,77.0,104.0
153,117.47792306250001,117.678936375,77.0,91.0
154,117.68062556250001,118.08434137500001,77.0,108.0
155,118.08603056250001,118.28873306250001,77.0,107.0
156,118.28873306250001,118.49143556250002,75.0,93.0
157,118.49143556250002,118.89684056250002,73.0,107.0
158,118.89684056250002,119.30055637500001,75.0,104.0
159,119.3022455625,119.7076505625,75.0,108.0
160,119.7076505625,120.11305556250001,68.0,108.0
161,120.11305556250001,123.35460637500002,70.0,104.0
162,123.35629556250001,123.76170056250001,70.0,102.0
163,123.76170056250001,124.14007856250001,75.0,113.0
164,124.17724068750002,124.52183493750002,75.0,97.0
165,124.57251056250001,124.97791556250002,77.0,110.0
166,124.97791556250002,125.38163137500001,75.0,108.0
167,125.40865837500002,125.73636075000002,78.0,85.0
168,125.7887255625,126.1941305625,73.0,86.0
169,126.22115756250001,126.59108962500001,70.0,87.0
170,126.59953556250001,127.00494056250001,68.0,86.0
171,127.00494056250001,127.81575056250001,66.0,98.0
172,127.81575056250001,128.2211555625,70.0,96.0
173,128.2211555625,129.64007306250002,68.0,91.0
174,129.64007306250002,129.8427755625,70.0,89.0
175,129.8427755625,130.45088306250003,73.0,104.0
176,130.45088306250003,130.6535855625,75.0,100.0
177,130.6535855625,131.05899056250001,73.0,102.0
178,131.05899056250001,131.46439556250002,70.0,108.0
179,131.46439556250002,131.868111375,68.0,100.0
180,131.86980056250002,132.0725030625,68.0,89.0
181,132.0725030625,132.27520556250002,70.0,88.0
182,132.27520556250002,132.68061056250002,65.0,89.0
183,132.68061056250002,132.8833130625,61.0,88.0
184,132.8833130625,133.08601556250002,65.0,84.0
185,133.08601556250002,136.3292555625,63.0,91.0
186,162.2751755625,162.88328306250003,58.0,104.0
187,162.88328306250003,163.084296375,63.0,91.0
188,163.0859855625,163.489701375,63.0,92.0
189,163.49139056250002,163.69240387500002,63.0,93.0
190,163.6940930625,163.89679556250002,63.0,90.0
191,163.89679556250002,164.30220056250002,66.0,98.0
192,164.30220056250002,164.70760556250002,63.0,96.0
193,164.70760556250002,165.11301056250002,61.0,98.0
194,165.11301056250002,165.51841556250002,58.0,98.0
195,165.51841556250002,168.354561375,63.0,104.0
196,168.3562505625,168.55895306250002,63.0,80.0
197,168.55895306250002,168.7616555625,66.0,84.0
198,168.7616555625,169.36807387500002,68.0,86.0
199,169.36976306250003,169.570776375,68.0,83.0
200,169.5724655625,169.97787056250002,68.0,83.0
201,169.97787056250002,170.38327556250002,66.0,84.0
202,170.38327556250002,171.19408556250002,68.0,87.0
203,171.19408556250002,172.03699012500002,73.0,100.0
204,172.00489556250002,175.246446375,70.0,93.0
205,175.2481355625,175.6535405625,70.0,102.0
206,175.6535405625,176.057256375,75.0,107.0
207,176.0589455625,176.46435056250002,75.0,102.0
208,176.46435056250002,176.86975556250002,73.0,98.0
209,176.86975556250002,177.27516056250002,75.0,86.0
210,177.27516056250002,177.6839439375,78.0,100.0
211,177.68056556250002,178.097794875,75.0,98.0
212,178.08597056250002,178.49137556250002,73.0,90.0
213,178.49137556250002,178.89509137500002,68.0,88.0
214,178.89678056250003,179.30049637500002,68.0,100.0
215,179.30218556250003,179.7075905625,68.0,89.0
216,179.7075905625,180.1129955625,66.0,91.0
217,180.1129955625,180.5184005625,70.0,94.0
218,180.5184005625,181.327521375,68.0,92.0
219,181.3292105625,181.54711575000002,68.0,88.0
220,181.53191306250002,181.7346155625,70.0,87.0
221,181.7346155625,182.34272306250003,73.0,96.0
222,182.34272306250003,182.54542556250001,75.0,86.0
223,182.54542556250001,182.95083056250002,73.0,94.0
224,182.95083056250002,183.36468150000002,70.0,88.0
225,183.35623556250002,183.76164056250002,68.0,87.0
226,183.76164056250002,184.178869875,70.0,93.0
227,184.16704556250002,184.57245056250002,68.0,89.0
228,184.57245056250002,184.7751530625,66.0,93.0
229,184.7751530625,184.97785556250003,65.0,88.0
230,184.97785556250003,188.2210955625,63.0,94.0
231,188.2210955625,188.6265005625,70.0,104.0
232,188.6265005625,188.82751387500002,75.0,91.0
233,188.82920306250003,189.030216375,75.0,91.0
234,189.03190556250001,189.435621375,75.0,92.0
235,189.43731056250002,189.6400130625,75.0,93.0
236,189.6400130625,189.84271556250002,78.0,98.0
237,189.84271556250002,190.24812056250002,77.0,98.0
238,190.24812056250002,190.65183637500002,75.0,96.0
239,190.65352556250002,191.05893056250002,75.0,98.0
240,191.05893056250002,191.259943875,73.0,98.0
241,191.2616330625,191.46433556250003,73.0,98.0
242,191.46433556250003,194.300481375,75.0,104.0
243,194.3021705625,194.50318387500002,75.0,80.0
244,194.50487306250002,194.7075755625,75.0,84.0
245,194.7075755625,195.31399387500002,77.0,86.0
246,195.31568306250003,195.516696375,77.0,83.0
247,195.51838556250001,195.922101375,77.0,86.0
248,195.92379056250002,196.1264930625,77.0,84.0
249,196.1264930625,196.32919556250002,75.0,84.0
250,196.32919556250002,196.73460056250002,73.0,97.0
251,196.73460056250002,197.13831637500002,75.0,97.0
252,197.14000556250002,197.54541056250002,75.0,97.0
253,197.54541056250002,197.95081556250003,68.0,97.0
254,197.95081556250003,201.192366375,70.0,97.0
255,201.1940555625,201.5994605625,70.0,102.0
256,201.5994605625,202.003176375,75.0,107.0
257,202.00486556250002,202.41027056250002,75.0,102.0
258,202.41027056250002,202.81567556250002,78.0,98.0
259,202.81567556250002,203.22108056250002,75.0,86.0
260,203.22108056250002,203.42547225,77.0,100.0
261,203.4237830625,203.62817475000003,75.0,100.0
262,203.62648556250002,204.03020137500002,73.0,98.0
263,204.03189056250002,204.2345930625,73.0,90.0
264,204.2345930625,204.43729556250003,70.0,90.0
265,204.43729556250003,204.84270056250003,68.0,88.0
266,204.84270056250003,205.65351056250003,66.0,100.0
267,205.65351056250003,206.0589155625,70.0,91.0
268,206.0589155625,207.273441375,68.0,94.0
269,207.2751305625,207.49303575000002,68.0,88.0
270,207.47783306250003,207.6805355625,70.0,87.0
271,207.6805355625,208.28864306250003,73.0,96.0
272,208.28864306250003,208.49134556250002,75.0,86.0
273,208.49134556250002,208.89675056250002,73.0,94.0
274,208.89675056250002,209.31060150000002,70.0,88.0
275,209.30215556250002,209.70756056250002,68.0,87.0
276,209.70756056250002,210.124789875,70.0,93.0
277,210.11296556250002,210.51837056250002,68.0,89.0
278,210.51837056250002,210.7210730625,61.0,93.0
279,210.7210730625,210.92377556250003,65.0,88.0
280,210.92377556250003,214.1670155625,63.0,94.0
281,214.1670155625,214.5724205625,70.0,89.0
282,214.5724205625,214.77343387500002,75.0,91.0
283,214.77512306250003,214.976136375,75.0,92.0
284,214.97782556250002,215.381541375,75.0,107.0
285,215.38323056250002,215.58593306250003,75.0,98.0
286,215.58593306250003,215.78863556250002,78.0,94.0
287,215.78863556250002,216.19404056250002,77.0,110.0
288,216.19404056250002,216.59775637500002,75.0,102.0
289,216.59944556250002,217.00485056250002,75.0,90.0
290,217.00485056250002,217.205863875,73.0,92.0
291,217.2075530625,217.41025556250003,73.0,93.0
292,217.41025556250003,220.24640137500003,75.0,108.0
293,220.2480905625,220.44910387500002,75.0,86.0
294,220.45079306250003,220.6534955625,75.0,87.0
295,220.6534955625,221.25991387500002,77.0,104.0
296,221.26160306250003,221.462616375,77.0,91.0
297,221.46430556250002,221.868021375,77.0,108.0
298,221.86971056250002,222.07241306250003,77.0,107.0
299,222.07241306250003,222.27511556250002,75.0,93.0
300,222.27511556250002,222.68052056250002,73.0,107.0
301,222.68052056250002,223.08423637500002,75.0,104.0
302,223.08592556250002,223.49133056250002,75.0,108.0
303,223.49133056250002,223.89673556250003,68.0,108.0
304,223.89673556250003,227.1399755625,70.0,104.0
305,227.1399755625,227.54538056250001,70.0,102.0
306,227.54538056250001,227.949096375,75.0,113.0
307,227.95078556250002,228.35619056250002,75.0,113.0
308,228.35619056250002,228.76159556250002,78.0,110.0
309,228.76159556250002,229.16700056250002,75.0,108.0
310,229.16700056250002,229.3697030625,78.0,83.0
311,229.3697030625,229.58760825000002,75.0,85.0
312,229.57240556250002,229.97781056250003,73.0,86.0
313,229.97781056250003,230.38321556250003,70.0,88.0
314,230.38321556250003,230.78862056250003,68.0,86.0
315,230.78862056250003,231.59943056250003,66.0,98.0
316,231.59943056250003,232.00483556250003,70.0,96.0
317,232.00483556250003,233.42375306250003,68.0,91.0
318,233.42375306250003,233.6264555625,63.0,89.0
319,233.6264555625,234.23456306250003,73.0,104.0
320,234.23456306250003,234.43726556250002,75.0,100.0
321,234.43726556250002,234.840981375,73.0,102.0
322,234.84267056250002,235.04537306250003,73.0,108.0
323,235.04537306250003,235.24807556250002,70.0,108.0
324,235.24807556250002,235.65179137500002,68.0,100.0
325,235.65348056250002,235.8561830625,68.0,89.0
326,235.8561830625,236.05888556250002,70.0,88.0
327,236.05888556250002,236.46429056250003,61.0,89.0
328,236.46429056250003,236.86969556250003,65.0,88.0
329,236.86969556250003,240.1129355625,63.0,91.0
330,240.1129355625,240.51834056250001,70.0,102.0
331,240.51834056250001,240.922056375,75.0,113.0
332,240.92374556250002,241.32915056250002,75.0,113.0
333,241.32915056250002,241.73455556250002,78.0,110.0
334,241.73455556250002,242.13996056250002,75.0,108.0
335,242.13996056250002,242.3426630625,78.0,83.0
336,242.3426630625,242.56056825000002,75.0,85.0
337,242.54536556250002,242.95077056250003,73.0,86.0
338,242.95077056250003,243.35617556250003,70.0,88.0
339,243.35617556250003,243.76158056250003,68.0,86.0
340,243.76158056250003,244.57239056250003,66.0,98.0
341,244.57239056250003,244.97779556250003,70.0,96.0
342,244.97779556250003,246.39671306250003,68.0,91.0
343,246.39671306250003,246.5994155625,63.0,89.0
344,246.5994155625,247.20752306250003,73.0,104.0
345,247.20752306250003,247.41022556250002,75.0,100.0
346,247.41022556250002,247.813941375,73.0,102.0
347,247.81563056250002,248.01833306250003,73.0,108.0
348,248.01833306250003,248.22103556250002,70.0,108.0
349,248.22103556250002,248.62475137500002,68.0,100.0
350,248.62644056250002,249.03184556250002,68.0,89.0
351,249.03184556250002,249.43725056250003,61.0,89.0
352,249.43725056250003,249.84265556250003,65.0,88.0
353,249.84265556250003,253.0858955625,63.0,91.0
354,253.0858955625,253.49130056250002,70.0,107.0
355,253.49130056250002,253.895016375,73.0,108.0
356,253.89670556250002,254.30717812500004,73.0,104.0
357,254.30211056250002,254.70751556250002,70.0,102.0
358,254.70751556250002,255.11292056250002,68.0,107.0
359,255.11292056250002,255.92373056250003,66.0,107.0
360,255.92373056250003,256.3291355625,61.0,102.0
361,256.3291355625,258.13994456250003,63.0,98.0
