,start,end,pitch,velocity
0,7.410465562500001,7.804046250000001,63.0,80.0
1,6.599655562500001,7.841208375000001,51.0,87.0
2,7.005060562500001,7.841208375000001,58.0,68.0
3,7.815870562500001,8.630058937500001,66.0,85.0
4,9.0320855625,9.444247312500002,61.0,77.0
5,8.2212755625,9.491544562500001,49.0,86.0
6,8.6266805625,9.501679687500001,56.0,74.0
7,9.4374905625,10.219584375,65.0,83.0
8,10.6537055625,11.04728625,63.0,83.0
9,9.8428955625,11.195934750000001,51.0,84.0
10,10.2483005625,11.224650937500002,58.0,71.0
11,11.0591105625,12.256744500000002,66.0,82.0
12,12.2753255625,12.706068375000001,63.0,81.0
13,11.4645155625,12.722960250000002,51.0,83.0
14,11.8699205625,12.726338625,58.0,78.0
15,12.6807305625,13.496608125000002,66.0,86.0
16,13.896945562500001,14.244918187500001,61.0,77.0
17,13.0861355625,14.402012625000001,49.0,85.0
18,13.491540562500001,14.486472000000001,56.0,72.0
19,14.302350562500001,15.3935656875,65.0,87.0
20,14.707755562500001,15.878362500000001,49.0,84.0
21,15.113160562500001,15.907078687500002,56.0,82.0
22,15.518565562500001,16.010119125000003,61.0,87.0
23,15.923970562500001,16.8428885625,65.0,85.0
24,16.3293755625,17.663833687500002,42.0,86.0
25,16.734780562500003,17.834441625,54.0,38.0
26,17.1401855625,17.8496443125,58.0,87.0
27,17.545590562500003,17.9003199375,61.0,77.0
28,17.9509955625,19.027008000000002,46.0,87.0
29,18.356400562500003,19.077683625000002,53.0,81.0
30,18.7618055625,19.7178856875,62.0,85.0
31,19.167210562500003,19.780385625,70.0,83.0
32,19.5726155625,20.9205871875,51.0,87.0
33,19.978020562500003,20.964506062500003,58.0,74.0
34,20.3834255625,21.233086875,63.0,83.0
35,20.788830562500003,21.255046312500003,66.0,83.0
36,21.599640562500003,22.172275125000002,63.0,70.0
37,21.1942355625,22.192545375,51.0,87.0
38,22.0050455625,22.4003154375,66.0,83.0
39,22.410450562500003,22.976328375,63.0,84.0
40,22.8158555625,24.160448812500004,44.0,86.0
41,23.221260562500003,24.260110875000002,56.0,69.0
42,24.032070562500003,24.351327,63.0,72.0
43,23.6266655625,24.444232312500002,59.0,81.0
44,24.4374755625,25.677339187500003,49.0,88.0
45,24.842880562500003,25.692541875000003,56.0,76.0
46,25.2482855625,25.792203937500002,61.0,77.0
47,25.653690562500003,26.0117983125,65.0,86.0
48,26.464500562500003,27.300648375,56.0,74.0
49,26.0590955625,27.329364562500004,49.0,89.0
50,26.8699055625,27.640175062500003,61.0,82.0
51,27.6807155625,28.893552187500003,65.0,86.0
52,28.086120562500003,28.922268375,53.0,67.0
53,27.6807155625,28.939160250000004,46.0,81.0
54,28.4915255625,29.1300384375,58.0,82.0
55,28.896930562500003,29.307403125000004,68.0,83.0
56,29.3023355625,29.753348625,63.0,79.0
57,29.3023355625,30.135105000000003,66.0,83.0
58,30.518550562500003,30.940847437500004,68.0,76.0
59,30.1131455625,31.935778875000004,63.0,82.0
60,29.707740562500003,31.983076125000004,58.0,44.0
61,29.3023355625,32.03375175,51.0,83.0
62,30.9239555625,32.0726030625,66.0,84.0
63,33.7617905625,34.2026685,66.0,83.0
64,33.3563855625,35.179018875000004,63.0,82.0
65,32.9509805625,35.373275437500006,58.0,71.0
66,32.545575562500005,35.427329437500006,51.0,87.0
67,34.167195562500005,35.746585875,70.0,80.0
68,37.005030562500004,37.462800375,65.0,78.0
69,36.5996255625,38.358069750000006,63.0,81.0
70,36.1942205625,38.405367000000005,58.0,65.0
71,35.788815562500005,38.461110187500005,51.0,86.0
72,37.410435562500005,39.151987875,66.0,87.0
73,39.032055562500005,41.672255625000005,44.0,84.0
74,39.4374605625,41.679012375000006,51.0,73.0
75,39.8428655625,41.704350187500005,56.0,76.0
76,40.653675562500005,42.141849750000006,68.0,71.0
77,40.653675562500005,42.141849750000006,68.0,71.0
78,40.248270562500004,42.3665116875,59.0,73.0
79,43.491510562500004,43.9239425625,56.0,78.0
80,43.896915562500006,43.9881316875,58.0,85.0
81,44.30232056250001,44.96617125,61.0,80.0
82,42.275295562500006,45.0354279375,42.0,82.0
83,42.68070056250001,45.065833312500004,49.0,72.0
84,44.7077255625,45.0996170625,66.0,81.0
85,43.0861055625,45.2026575,54.0,79.0
86,45.113130562500004,45.510089625000006,68.0,79.0
87,45.518535562500006,45.89353518750001,63.0,73.0
88,45.518535562500006,46.462791375,70.0,78.0
89,46.734750562500004,47.172250125000005,65.0,68.0
90,46.3293455625,48.050627625000004,63.0,76.0
91,45.92394056250001,48.121573500000004,58.0,72.0
92,45.518535562500006,48.197586937500006,51.0,74.0
93,47.140155562500006,48.80738362500001,66.0,77.0
94,49.977990562500004,50.407044187500006,63.0,75.0
95,48.761775562500006,51.435759375,44.0,86.0
96,49.16718056250001,51.456029625000006,51.0,73.0
97,49.5725855625,51.621570000000006,56.0,78.0
98,50.383395562500006,51.67393481250001,59.0,78.0
99,50.383395562500006,51.702651,66.0,79.0
100,52.41042056250001,54.69589125,53.0,66.0
101,52.005015562500006,54.707715562500006,46.0,85.0
102,52.8158255625,54.86312081250001,58.0,78.0
103,53.221230562500004,55.10467462500001,61.0,81.0
104,53.626635562500006,55.212782625,65.0,77.0
105,56.464470562500004,56.87494312500001,65.0,77.0
106,56.869875562500006,57.271902187500004,70.0,92.0
107,56.0590655625,57.481361437500006,63.0,83.0
108,57.27528056250001,57.672239625,68.0,87.0
109,55.248255562500006,58.037104125000006,51.0,82.0
110,55.65366056250001,58.038793312500005,58.0,73.0
111,57.6806855625,58.13676618750001,65.0,90.0
112,58.086090562500004,59.64858900000001,66.0,85.0
113,58.491495562500006,59.6705484375,70.0,84.0
114,58.491495562500006,59.72798081250001,63.0,77.0
115,60.113115562500006,60.836087812500004,63.0,74.0
116,60.113115562500006,60.85466887500001,66.0,68.0
117,60.113115562500006,60.868182375,70.0,71.0
118,60.9239255625,61.462776375000004,63.0,87.0
119,60.9239255625,61.469533125000005,66.0,87.0
120,58.491495562500006,61.47966825,51.0,82.0
121,60.9239255625,61.4881141875,70.0,80.0
122,61.734735562500006,62.275275562500006,66.0,76.0
123,61.734735562500006,62.28034312500001,63.0,76.0
124,61.734735562500006,62.35973493750001,70.0,73.0
125,62.5455455625,63.162099000000005,63.0,52.0
126,62.5455455625,63.162099000000005,70.0,38.0
127,62.5455455625,63.20601787500001,66.0,63.0
128,63.356355562500006,63.81750375000001,66.0,76.0
129,63.356355562500006,63.93574687500001,63.0,79.0
130,63.356355562500006,63.97290900000001,70.0,81.0
131,61.734735562500006,64.24993575,51.0,81.0
132,64.1671655625,64.60128675,70.0,83.0
133,64.1671655625,64.63000293750001,63.0,82.0
134,64.1671655625,64.7313541875,66.0,88.0
135,64.9779755625,65.46615075000001,71.0,83.0
136,64.9779755625,65.5185155625,68.0,81.0
137,64.9779755625,65.537096625,63.0,84.0
138,65.78878556250001,66.341149875,71.0,77.0
139,65.78878556250001,66.37493362500001,63.0,77.0
140,65.78878556250001,66.38675793750001,68.0,78.0
141,66.5995955625,67.12831125000001,71.0,73.0
142,66.5995955625,67.18405443750001,68.0,73.0
143,66.5995955625,67.2077030625,63.0,77.0
144,67.4104055625,67.807364625,71.0,72.0
145,67.4104055625,67.85972943750001,68.0,76.0
146,67.4104055625,67.868175375,63.0,73.0
147,64.9779755625,67.901959125,56.0,72.0
148,64.9779755625,67.9053375,44.0,75.0
149,68.2212155625,68.63168812500001,70.0,86.0
150,68.2212155625,68.67053943750001,65.0,85.0
151,68.2212155625,68.68405293750001,61.0,81.0
152,69.03202556250001,69.4475656875,70.0,85.0
153,69.03202556250001,69.4644575625,65.0,80.0
154,69.03202556250001,69.46614675000001,61.0,79.0
155,69.43743056250001,70.10803800000001,58.0,64.0
156,69.8428355625,70.32763237500001,70.0,83.0
157,69.8428355625,70.3732404375,61.0,78.0
158,69.8428355625,70.3732404375,65.0,82.0
159,70.2482405625,70.77695625000001,58.0,71.0
160,68.2212155625,70.9712128125,46.0,86.0
161,68.62662056250001,71.03371275,53.0,71.0
162,70.6536455625,71.0759424375,70.0,88.0
163,70.6536455625,71.08607756250001,61.0,83.0
164,70.6536455625,71.192496375,65.0,87.0
165,71.0590505625,71.36310431250001,58.0,74.0
166,71.4644555625,71.90026593750001,70.0,87.0
167,71.4644555625,71.9070226875,66.0,87.0
168,71.4644555625,71.94418481250001,63.0,84.0
169,72.27526556250001,72.74992725000001,66.0,86.0
170,72.27526556250001,72.7516164375,70.0,83.0
171,72.27526556250001,72.76344075,63.0,83.0
172,71.86986056250001,73.212764625,58.0,65.0
173,73.0860755625,73.54215618750001,70.0,85.0
174,73.0860755625,73.5522913125,63.0,84.0
175,73.0860755625,73.55398050000001,66.0,86.0
176,73.4914805625,74.0522908125,58.0,38.0
177,71.4644555625,74.1164799375,51.0,85.0
178,73.8968855625,74.189115,70.0,87.0
179,73.8968855625,74.233033875,66.0,86.0
180,73.8968855625,74.3326959375,63.0,88.0
181,74.7076955625,74.81580356250001,60.0,87.0
182,74.7076955625,75.1063438125,68.0,86.0
183,74.7076955625,75.12323568750001,63.0,86.0
184,75.11310056250001,75.5691811875,56.0,50.0
185,75.51850556250001,75.85465387500001,68.0,70.0
186,75.51850556250001,75.92391056250001,63.0,77.0
187,75.51850556250001,75.9864105,59.0,80.0
188,75.92391056250001,76.4171533125,56.0,52.0
189,76.3293155625,76.7009368125,68.0,83.0
190,76.3293155625,76.75499081250001,63.0,85.0
191,76.3293155625,76.79046375,59.0,83.0
192,77.1401255625,77.48640900000001,59.0,85.0
193,77.1401255625,77.51681437500001,63.0,87.0
194,77.1401255625,77.52019275,68.0,86.0
195,76.7347205625,77.53877381250001,56.0,40.0
196,74.7076955625,77.62998993750001,44.0,78.0
197,77.9509355625,78.351273,65.0,80.0
198,77.9509355625,78.3630973125,68.0,84.0
199,77.9509355625,78.38674593750001,61.0,80.0
200,78.35634056250001,78.79721850000001,53.0,38.0
201,78.76174556250001,79.2076910625,68.0,83.0
202,78.76174556250001,79.24316400000001,65.0,84.0
203,78.76174556250001,79.27356937500001,61.0,83.0
204,79.57255556250001,80.0218794375,68.0,85.0
205,79.57255556250001,80.06748750000001,61.0,81.0
206,79.57255556250001,80.0826901875,65.0,86.0
207,79.9779605625,80.6840409375,53.0,64.0
208,80.3833655625,80.719513875,61.0,82.0
209,80.3833655625,80.7414733125,65.0,84.0
210,80.3833655625,80.74316250000001,68.0,84.0
211,77.9509355625,80.78539218750001,46.0,86.0
212,81.1941755625,81.6874183125,63.0,83.0
213,81.1941755625,82.023566625,66.0,86.0
214,81.1941755625,82.04721525000001,70.0,86.0
215,82.00498556250001,82.49147156250001,63.0,86.0
216,81.1941755625,82.60126875,51.0,84.0
217,81.59958056250001,82.61647143750001,58.0,74.0
218,82.41039056250001,82.6401200625,65.0,84.0
219,82.81579556250001,83.1536330625,63.0,86.0
220,82.81579556250001,83.199241125,66.0,83.0
221,82.81579556250001,83.2009303125,70.0,78.0
222,83.2212005625,83.7161325,58.0,46.0
223,82.81579556250001,84.02863218750001,51.0,76.0
224,83.6266055625,84.06410512500001,75.0,88.0
225,83.6266055625,84.0995780625,66.0,86.0
226,83.6266055625,84.10633481250001,70.0,89.0
227,84.0320105625,84.3968750625,58.0,75.0
228,84.43741556250001,84.85633406250001,70.0,87.0
229,84.43741556250001,84.94248262500001,66.0,88.0
230,84.43741556250001,84.983023125,63.0,87.0
231,84.84282056250001,85.3968740625,58.0,64.0
232,84.43741556250001,85.719508875,51.0,85.0
233,85.24822556250001,85.719508875,63.0,87.0
234,85.24822556250001,85.81579256250001,70.0,88.0
235,85.65363056250001,85.81748175000001,58.0,77.0
236,85.24822556250001,85.96613025,66.0,87.0
237,86.05903556250001,86.5556566875,65.0,89.0
238,86.05903556250001,86.5556566875,68.0,87.0
239,86.05903556250001,86.57930531250001,61.0,84.0
240,86.4644405625,86.96612925000001,56.0,64.0
241,86.05903556250001,87.33775050000001,49.0,86.0
242,86.8698455625,87.33775050000001,61.0,88.0
243,86.8698455625,87.36308831250001,68.0,88.0
244,86.8698455625,87.57085837500001,65.0,91.0
245,87.2752505625,87.66883125000001,56.0,75.0
246,87.68065556250001,88.14349293750001,70.0,85.0
247,87.68065556250001,88.18234425000001,63.0,87.0
248,87.68065556250001,88.20261450000001,66.0,88.0
249,88.08606056250001,88.60464112500001,58.0,64.0
250,87.68065556250001,89.00835693750001,51.0,84.0
251,88.49146556250001,89.01173531250001,70.0,88.0
252,88.49146556250001,89.0674785,63.0,87.0
253,88.49146556250001,89.1434919375,66.0,88.0
254,88.89687056250001,89.35295118750001,58.0,68.0
255,89.30227556250001,89.80903181250001,70.0,83.0
256,89.30227556250001,89.83099125000001,63.0,85.0
257,89.30227556250001,89.89518037500001,66.0,38.0
258,89.7076805625,90.2076800625,58.0,78.0
259,90.1130855625,90.59788237500001,70.0,89.0
260,89.30227556250001,90.61139587500001,51.0,85.0
261,90.5184905625,90.61477425000001,58.0,84.0
262,90.1130855625,90.63166612500001,63.0,89.0
263,90.1130855625,90.64517962500001,66.0,90.0
264,90.92389556250001,91.3799761875,68.0,86.0
265,90.92389556250001,91.4441653125,65.0,88.0
266,90.92389556250001,91.469503125,61.0,85.0
267,91.32930056250001,91.780313625,56.0,38.0
268,90.92389556250001,92.1840294375,49.0,82.0
269,91.73470556250001,92.2110564375,68.0,84.0
270,91.73470556250001,92.30734012500001,61.0,81.0
271,91.73470556250001,92.32929956250001,65.0,86.0
272,92.14011056250001,92.60463712500001,56.0,71.0
273,92.54551556250001,92.97119081250001,68.0,86.0
274,92.54551556250001,93.02355562500001,61.0,86.0
275,92.54551556250001,93.037069125,65.0,87.0
276,92.9509205625,93.41544712500001,56.0,71.0
277,92.54551556250001,93.80564943750001,49.0,83.0
278,93.3563255625,93.81578456250001,68.0,87.0
279,93.7617305625,93.83267643750001,56.0,81.0
280,93.3563255625,93.864771,61.0,87.0
281,93.3563255625,93.91206825,65.0,88.0
282,94.16713556250001,94.69754043750001,70.0,89.0
283,94.16713556250001,94.69922962500002,66.0,88.0
284,94.16713556250001,94.72794581250001,61.0,86.0
285,94.57254056250001,94.9982158125,54.0,56.0
286,94.97794556250001,95.51172881250001,70.0,87.0
287,94.97794556250001,95.513418,61.0,86.0
288,94.97794556250001,95.52862068750001,66.0,87.0
289,95.38335056250001,95.81747175000001,54.0,69.0
290,95.78875556250001,96.23132268750001,70.0,84.0
291,95.78875556250001,96.27355237500001,66.0,86.0
292,95.78875556250001,96.280309125,61.0,86.0
293,96.1941605625,96.59787637500001,54.0,71.0
294,94.16713556250001,97.0387543125,42.0,85.0
295,96.5995655625,97.06747050000001,61.0,87.0
296,96.5995655625,97.0826731875,70.0,88.0
297,96.5995655625,97.111389375,66.0,87.0
298,97.0049705625,97.1772676875,54.0,79.0
299,97.41037556250001,97.8664561875,70.0,88.0
300,97.41037556250001,97.87659131250001,66.0,88.0
301,97.41037556250001,97.91544262500001,63.0,88.0
302,97.81578056250001,98.297199,58.0,48.0
303,98.22118556250001,98.71611750000001,66.0,88.0
304,98.22118556250001,98.71611750000001,70.0,88.0
305,98.22118556250001,98.739766125,63.0,89.0
306,98.62659056250001,99.07084687500002,58.0,42.0
307,99.03199556250001,99.5286166875,66.0,89.0
308,99.03199556250001,99.57929231250002,70.0,89.0
309,99.03199556250001,99.58773825000002,63.0,88.0
310,99.4374005625,99.81915693750001,58.0,66.0
311,99.8428055625,100.14348093750002,70.0,88.0
312,99.8428055625,100.1485485,66.0,90.0
313,99.8428055625,100.32253481250001,63.0,88.0
314,97.41037556250001,100.3259131875,51.0,79.0
315,100.65361556250001,101.0792908125,68.0,88.0
316,100.65361556250001,101.09111512500002,63.0,89.0
317,100.65361556250001,101.17726368750002,59.0,83.0
318,101.46442556250001,101.89179000000001,68.0,90.0
319,101.05902056250001,101.918817,51.0,63.0
320,101.46442556250001,101.92895212500001,63.0,90.0
321,101.46442556250001,101.93908725000001,59.0,86.0
322,100.65361556250001,101.9711818125,44.0,81.0
323,102.27523556250001,102.73131618750001,68.0,87.0
324,102.27523556250001,102.780302625,61.0,86.0
325,102.27523556250001,102.79212693750002,65.0,89.0
326,102.6806405625,103.1772616875,56.0,66.0
327,102.27523556250001,103.1941535625,49.0,83.0
328,103.0860455625,103.47962625000001,68.0,87.0
329,103.0860455625,103.50665325000001,61.0,85.0
330,103.0860455625,103.52016675000002,65.0,87.0
331,103.4914505625,103.58266668750001,49.0,83.0
332,103.89685556250001,104.3917875,70.0,88.0
333,103.89685556250001,104.41374693750001,61.0,87.0
334,103.89685556250001,104.42050368750002,65.0,91.0
335,104.30226056250001,104.79719250000001,58.0,68.0
336,103.89685556250001,105.16881375000001,46.0,83.0
337,104.70766556250001,105.2178001875,70.0,89.0
338,104.70766556250001,105.22286775,61.0,85.0
339,104.70766556250001,105.28367850000001,65.0,88.0
340,105.11307056250001,105.49651612500001,58.0,82.0
341,105.51847556250002,106.03367775000001,70.0,86.0
342,105.51847556250002,106.057326375,61.0,83.0
343,105.51847556250002,106.08942093750001,65.0,87.0
344,106.3292855625,106.78874456250001,61.0,83.0
345,106.3292855625,106.8157715625,70.0,86.0
346,105.51847556250002,106.9238795625,46.0,84.0
347,106.3292855625,106.96779843750001,65.0,86.0
348,107.14009556250001,107.638405875,70.0,82.0
349,107.14009556250001,107.71104093750002,63.0,84.0
350,107.14009556250001,107.71948687500002,66.0,84.0
351,107.95090556250001,108.47286450000001,70.0,83.0
352,107.95090556250001,108.4745536875,63.0,81.0
353,107.95090556250001,108.47793206250002,66.0,79.0
354,108.76171556250002,109.31239068750001,70.0,83.0
355,108.76171556250002,109.33097175,63.0,84.0
356,108.76171556250002,109.3360393125,66.0,84.0
357,107.14009556250001,109.9171198125,51.0,84.0
358,109.5725255625,110.12488987500001,63.0,84.0
359,109.5725255625,110.13840337500001,70.0,84.0
360,109.5725255625,110.1536060625,66.0,84.0
361,110.38333556250001,110.83772700000002,63.0,87.0
362,110.38333556250001,110.8394161875,70.0,87.0
363,110.38333556250001,110.86306481250001,66.0,87.0
364,110.78874056250001,111.2566455,58.0,63.0
365,110.38333556250001,111.63671268750001,51.0,83.0
366,111.19414556250001,111.6536045625,70.0,88.0
367,111.19414556250001,111.67218562500001,63.0,88.0
368,111.19414556250001,111.69583425,66.0,88.0
369,111.59955056250001,111.76340175000001,58.0,74.0
370,112.00495556250002,112.33265793750002,61.0,78.0
371,112.00495556250002,112.38164437500001,68.0,85.0
372,112.00495556250002,112.42049568750001,65.0,84.0
373,112.00495556250002,113.21779218750001,49.0,77.0
374,112.8157655625,113.35799475,61.0,88.0
375,112.8157655625,113.46610275,68.0,89.0
376,112.8157655625,113.50664325000001,65.0,90.0
377,113.62657556250001,114.04042650000001,70.0,89.0
378,113.62657556250001,114.07252106250002,66.0,88.0
379,113.62657556250001,114.077588625,63.0,87.0
380,114.03198056250001,114.4441423125,58.0,44.0
381,113.62657556250001,114.91204725000001,51.0,85.0
382,114.43738556250001,114.9441418125,70.0,82.0
383,114.43738556250001,114.94920937500001,63.0,86.0
384,114.43738556250001,115.00157418750001,66.0,86.0
385,114.84279056250001,115.32927656250001,58.0,80.0
386,115.24819556250002,115.6063033125,63.0,88.0
387,115.24819556250002,115.6806275625,70.0,87.0
388,115.24819556250002,115.73299237500001,66.0,87.0
389,115.65360056250002,116.2008973125,58.0,77.0
390,115.24819556250002,116.52522131250001,51.0,83.0
391,116.4644105625,116.5927888125,58.0,83.0
392,116.0590055625,116.60461312500001,65.0,96.0
393,116.86981556250001,117.34954481250001,68.0,86.0
394,116.86981556250001,117.3765718125,73.0,84.0
395,116.86981556250001,117.41880150000001,65.0,84.0
396,117.27522056250001,117.71947687500001,56.0,38.0
397,116.86981556250001,118.11136837500001,49.0,81.0
398,117.68062556250001,118.23298987500002,73.0,83.0
399,117.68062556250001,118.25326012500001,65.0,86.0
400,117.68062556250001,118.30393575000001,68.0,86.0
401,118.08603056250001,118.53197606250001,56.0,52.0
402,118.49143556250002,118.9880566875,65.0,86.0
403,118.49143556250002,118.99481343750001,73.0,84.0
404,118.49143556250002,118.996502625,68.0,86.0
405,118.49143556250002,119.638393875,49.0,83.0
406,119.3022455625,119.70427218750001,73.0,84.0
407,119.3022455625,119.7110289375,65.0,86.0
408,119.3022455625,119.7718396875,68.0,87.0
409,120.11305556250001,120.63163612500001,66.0,89.0
410,120.11305556250001,120.73805493750001,61.0,83.0
411,120.11305556250001,120.73974412500002,70.0,88.0
412,120.92386556250001,121.48467581250002,61.0,84.0
413,120.92386556250001,121.503256875,66.0,88.0
414,120.92386556250001,121.50663525000002,70.0,83.0
415,121.73467556250002,122.34109387500001,61.0,83.0
416,121.73467556250002,122.35122900000002,66.0,87.0
417,121.73467556250002,122.381634375,70.0,82.0
418,120.11305556250001,122.88839062500001,54.0,80.0
419,122.5454855625,122.9846743125,61.0,84.0
420,122.5454855625,123.07589043750001,70.0,85.0
421,122.5454855625,123.09447150000001,66.0,86.0
422,123.35629556250001,123.78534918750002,70.0,86.0
423,123.35629556250001,123.80055187500001,63.0,87.0
424,123.35629556250001,123.80899781250001,66.0,87.0
425,124.16710556250001,124.5961591875,70.0,83.0
426,124.16710556250001,124.62318618750001,63.0,86.0
427,124.16710556250001,124.62318618750001,66.0,84.0
428,123.76170056250001,125.05730737500001,58.0,71.0
429,124.97791556250002,125.4272394375,70.0,83.0
430,124.97791556250002,125.4441313125,66.0,88.0
431,124.97791556250002,125.45933400000001,63.0,86.0
432,125.38332056250002,125.83433362500001,58.0,56.0
433,125.7887255625,126.02690100000001,70.0,87.0
434,125.7887255625,126.0556171875,66.0,88.0
435,123.35629556250001,126.12825225000002,51.0,87.0
436,125.7887255625,126.15190087500001,63.0,88.0
437,126.59953556250001,127.00156218750001,68.0,83.0
438,126.59953556250001,127.07926481250001,63.0,84.0
439,126.59953556250001,127.12487287500001,59.0,82.0
440,127.41034556250001,127.76338575000001,59.0,84.0
441,127.41034556250001,127.76507493750002,68.0,87.0
442,126.59953556250001,128.0218314375,44.0,81.0
443,127.41034556250001,128.04716925000002,63.0,87.0
444,128.2211555625,128.7752090625,68.0,85.0
445,128.2211555625,128.8596684375,65.0,86.0
446,128.2211555625,128.8833170625,61.0,84.0
447,129.0319655625,129.4458165,68.0,86.0
448,129.0319655625,129.4711543125,61.0,82.0
449,129.0319655625,129.4779110625,65.0,86.0
450,128.2211555625,129.50155968750002,49.0,81.0
451,129.8427755625,130.34446425000002,68.0,89.0
452,129.8427755625,130.3917615,61.0,88.0
453,129.8427755625,130.4002074375,65.0,89.0
454,130.6535855625,131.1535850625,68.0,85.0
455,130.6535855625,131.162031,61.0,84.0
456,130.6535855625,131.19750393750002,65.0,86.0
457,129.8427755625,131.273517375,46.0,83.0
458,131.46439556250002,131.92385456250003,68.0,83.0
459,131.46439556250002,132.0285841875,61.0,82.0
460,131.46439556250002,132.0657463125,65.0,85.0
461,131.46439556250002,132.18061106250002,49.0,87.0
462,132.27520556250002,132.7684483125,68.0,84.0
463,132.27520556250002,132.807299625,61.0,81.0
464,132.27520556250002,132.87824550000002,58.0,84.0
465,132.27520556250002,132.88669143750002,46.0,79.0
466,132.27520556250002,132.88669143750002,65.0,81.0
467,133.08601556250002,133.67892037500002,70.0,87.0
468,133.08601556250002,133.72115006250002,66.0,83.0
469,133.08601556250002,133.72959600000002,63.0,83.0
470,133.8968255625,134.45425743750002,70.0,84.0
471,133.8968255625,134.4576358125,66.0,75.0
472,133.8968255625,134.46439256250002,63.0,77.0
473,134.7076355625,135.23804043750002,70.0,84.0
474,134.7076355625,135.24986475,66.0,83.0
475,134.7076355625,135.25662150000002,63.0,83.0
476,135.5184455625,136.0015531875,70.0,83.0
477,135.5184455625,136.01506668750002,63.0,77.0
478,135.5184455625,136.02351262500002,66.0,79.0
479,133.08601556250002,136.1214855,51.0,84.0
480,137.1400655625,137.53364625,63.0,80.0
481,136.3292555625,137.570808375,51.0,87.0
482,136.7346605625,137.570808375,58.0,68.0
483,137.54547056250001,138.3596589375,66.0,85.0
484,138.76168556250002,139.17384731250002,61.0,77.0
485,137.95087556250002,139.2211445625,49.0,86.0
486,138.35628056250002,139.2312796875,56.0,74.0
487,139.16709056250002,139.94918437500002,65.0,83.0
488,140.3833055625,140.77688625000002,63.0,83.0
489,139.57249556250002,140.92553475000003,51.0,84.0
490,139.97790056250003,140.9542509375,58.0,71.0
491,140.7887105625,141.9863445,66.0,82.0
492,142.0049255625,142.435668375,63.0,81.0
493,141.1941155625,142.45256025,51.0,83.0
494,141.5995205625,142.45593862500002,58.0,78.0
495,142.4103305625,143.226208125,66.0,86.0
496,143.6265455625,143.97451818750002,61.0,77.0
497,142.8157355625,144.131612625,49.0,85.0
498,143.2211405625,144.21607200000003,56.0,72.0
499,144.03195056250001,145.1231656875,65.0,87.0
500,144.43735556250002,145.6079625,49.0,84.0
501,144.84276056250002,145.63667868750002,56.0,82.0
502,145.24816556250002,145.73971912500002,61.0,87.0
503,145.65357056250002,146.5724885625,65.0,85.0
504,146.05897556250002,147.39343368750002,42.0,86.0
505,146.46438056250003,147.56404162500002,54.0,38.0
506,146.86978556250003,147.5792443125,58.0,87.0
507,147.2751905625,147.6299199375,61.0,77.0
508,147.6805955625,148.756608,46.0,87.0
509,148.0860005625,148.80728362500003,53.0,81.0
510,148.4914055625,149.4474856875,62.0,85.0
511,148.8968105625,149.509985625,70.0,83.0
512,149.3022155625,150.65018718750002,51.0,87.0
513,149.7076205625,150.69410606250003,58.0,74.0
514,150.1130255625,150.962686875,63.0,83.0
515,150.51843056250001,150.98464631250002,66.0,83.0
516,151.32924056250002,151.901875125,63.0,70.0
517,150.92383556250002,151.922145375,51.0,87.0
518,151.73464556250002,152.12991543750002,66.0,83.0
519,152.14005056250002,152.705928375,63.0,84.0
520,152.54545556250002,153.89004881250003,44.0,86.0
521,152.95086056250003,153.98971087500001,56.0,69.0
522,153.7616705625,154.080927,63.0,72.0
523,153.35626556250003,154.17383231250002,59.0,81.0
524,154.1670755625,155.4069391875,49.0,88.0
525,154.5724805625,155.42214187500002,56.0,76.0
526,154.9778855625,155.5218039375,61.0,77.0
527,155.3832905625,155.74139831250002,65.0,86.0
528,156.5995055625,156.96437006250002,61.0,82.0
529,156.1941005625,157.030248375,56.0,74.0
530,155.7886955625,157.05896456250002,49.0,89.0
531,157.00491056250002,157.459302,68.0,85.0
532,157.41031556250002,158.6231521875,65.0,86.0
533,157.81572056250002,158.65186837500002,53.0,67.0
534,157.41031556250002,158.66876025000002,46.0,81.0
535,158.22112556250002,158.85963843750002,58.0,82.0
536,158.62653056250002,159.037003125,68.0,83.0
537,159.03193556250002,159.482948625,63.0,79.0
538,159.03193556250002,159.86470500000001,66.0,83.0
539,160.2481505625,160.6704474375,68.0,76.0
540,159.84274556250003,161.66537887500002,63.0,82.0
541,159.43734056250003,161.712676125,58.0,44.0
542,159.03193556250002,161.76335175000003,51.0,83.0
543,160.6535555625,161.8022030625,66.0,84.0
544,163.49139056250002,163.93226850000002,66.0,83.0
545,163.0859855625,164.908618875,63.0,82.0
546,162.6805805625,165.10287543750002,58.0,71.0
547,162.2751755625,165.15692943750003,51.0,87.0
548,163.89679556250002,165.47618587500003,70.0,80.0
549,166.7346305625,167.192400375,65.0,78.0
550,166.32922556250003,168.08766975,63.0,81.0
551,165.92382056250003,168.13496700000002,58.0,65.0
552,165.51841556250002,168.1907101875,51.0,86.0
553,167.1400355625,168.881587875,66.0,87.0
554,168.7616555625,171.40185562500002,44.0,84.0
555,169.1670605625,171.40861237500002,51.0,73.0
556,169.5724655625,171.43395018750002,56.0,76.0
557,170.38327556250002,171.87144975,68.0,71.0
558,170.38327556250002,171.87144975,68.0,71.0
559,169.97787056250002,172.0961116875,59.0,73.0
560,173.2211105625,173.6535425625,56.0,78.0
561,173.6265155625,173.71773168750002,58.0,85.0
562,174.0319205625,174.69577125,61.0,80.0
563,172.00489556250002,174.7650279375,42.0,82.0
564,172.41030056250003,174.79543331250002,49.0,72.0
565,174.4373255625,174.82921706250002,66.0,81.0
566,172.81570556250003,174.93225750000002,54.0,79.0
567,174.8427305625,175.239689625,68.0,79.0
568,175.2481355625,175.62313518750003,63.0,73.0
569,175.2481355625,176.19239137500003,70.0,78.0
570,176.46435056250002,176.901850125,65.0,68.0
571,176.0589455625,177.780227625,63.0,76.0
572,175.6535405625,177.85117350000002,58.0,72.0
573,175.2481355625,177.9271869375,51.0,74.0
574,176.86975556250002,178.536983625,66.0,77.0
575,179.7075905625,180.13664418750002,63.0,75.0
576,178.49137556250002,181.165359375,44.0,86.0
577,178.89678056250003,181.18562962500002,51.0,73.0
578,179.30218556250003,181.35117000000002,56.0,78.0
579,180.1129955625,181.40353481250003,59.0,78.0
580,180.1129955625,181.432251,66.0,79.0
581,182.95083056250002,183.45927600000002,68.0,82.0
582,182.1400205625,184.42549125000002,53.0,66.0
583,181.7346155625,184.4373155625,46.0,85.0
584,182.54542556250001,184.5927208125,58.0,78.0
585,182.95083056250002,184.834274625,61.0,81.0
586,183.35623556250002,184.94238262500002,65.0,77.0
587,186.19407056250003,186.60454312500002,65.0,77.0
588,186.5994755625,187.00150218750002,70.0,92.0
589,185.78866556250003,187.2109614375,63.0,83.0
590,187.0048805625,187.401839625,68.0,87.0
591,184.97785556250003,187.76670412500002,51.0,82.0
592,185.38326056250003,187.76839331250002,58.0,73.0
593,187.4102855625,187.8663661875,65.0,90.0
594,187.8156905625,189.37818900000002,66.0,85.0
595,188.2210955625,189.4001484375,70.0,84.0
596,188.2210955625,189.45758081250003,63.0,77.0
597,189.84271556250002,190.56568781250002,63.0,74.0
598,189.84271556250002,190.58426887500002,66.0,68.0
599,189.84271556250002,190.597782375,70.0,71.0
600,190.65352556250002,191.192376375,63.0,87.0
601,190.65352556250002,191.199133125,66.0,87.0
602,188.2210955625,191.20926825,51.0,82.0
603,190.65352556250002,191.2177141875,70.0,80.0
604,191.46433556250003,192.00487556250002,66.0,76.0
605,191.46433556250003,192.009943125,63.0,76.0
606,191.46433556250003,192.0893349375,70.0,73.0
607,192.27514556250003,192.89169900000002,63.0,52.0
608,192.27514556250003,192.89169900000002,70.0,38.0
609,192.27514556250003,192.93561787500002,66.0,63.0
610,193.0859555625,193.54710375000002,66.0,76.0
611,193.0859555625,193.665346875,63.0,79.0
612,193.0859555625,193.70250900000002,70.0,81.0
613,191.46433556250003,193.97953575000003,51.0,81.0
614,193.8967655625,194.33088675000002,70.0,83.0
615,193.8967655625,194.35960293750003,63.0,82.0
616,193.8967655625,194.46095418750002,66.0,88.0
617,194.7075755625,195.19575075000003,71.0,83.0
618,194.7075755625,195.2481155625,68.0,81.0
619,194.7075755625,195.266696625,63.0,84.0
620,195.51838556250001,196.07074987500002,71.0,77.0
621,195.51838556250001,196.10453362500002,63.0,77.0
622,195.51838556250001,196.11635793750003,68.0,78.0
623,196.32919556250002,196.85791125000003,71.0,73.0
624,196.32919556250002,196.9136544375,68.0,73.0
625,196.32919556250002,196.9373030625,63.0,77.0
626,197.14000556250002,197.53696462500002,71.0,72.0
627,197.14000556250002,197.58932943750003,68.0,76.0
628,197.14000556250002,197.59777537500003,63.0,73.0
629,194.7075755625,197.63155912500002,56.0,72.0
630,194.7075755625,197.6349375,44.0,75.0
631,197.95081556250003,198.36128812500002,70.0,86.0
632,197.95081556250003,198.40013943750003,65.0,85.0
633,197.95081556250003,198.41365293750002,61.0,81.0
634,198.76162556250003,199.1771656875,70.0,85.0
635,198.76162556250003,199.1940575625,65.0,80.0
636,198.76162556250003,199.19574675,61.0,79.0
637,199.16703056250003,199.83763800000003,58.0,64.0
638,199.5724355625,200.057232375,70.0,83.0
639,199.5724355625,200.10284043750002,61.0,78.0
640,199.5724355625,200.10284043750002,65.0,82.0
641,199.9778405625,200.50655625000002,58.0,71.0
642,197.95081556250003,200.7008128125,46.0,86.0
643,198.35622056250003,200.76331275,53.0,71.0
644,200.3832455625,200.8055424375,70.0,88.0
645,200.3832455625,200.8156775625,61.0,83.0
646,200.3832455625,200.92209637500002,65.0,87.0
647,200.7886505625,201.09270431250002,58.0,74.0
648,201.1940555625,201.62986593750003,70.0,87.0
649,201.1940555625,201.63662268750002,66.0,87.0
650,201.1940555625,201.67378481250003,63.0,84.0
651,202.00486556250002,202.47952725000002,66.0,86.0
652,202.00486556250002,202.48121643750002,70.0,83.0
653,202.00486556250002,202.49304075,63.0,83.0
654,201.5994605625,202.942364625,58.0,65.0
655,202.81567556250002,203.27175618750002,70.0,85.0
656,202.81567556250002,203.28189131250002,63.0,84.0
657,202.81567556250002,203.28358050000003,66.0,86.0
658,203.22108056250002,203.78189081250002,58.0,38.0
659,201.1940555625,203.8460799375,51.0,85.0
660,203.62648556250002,203.91871500000002,70.0,87.0
661,203.62648556250002,203.96263387500002,66.0,86.0
662,203.62648556250002,204.0622959375,63.0,88.0
663,204.43729556250003,204.5454035625,60.0,87.0
664,204.43729556250003,204.8359438125,68.0,86.0
665,204.43729556250003,204.8528356875,63.0,86.0
666,204.84270056250003,205.29878118750003,56.0,50.0
667,205.24810556250003,205.58425387500003,68.0,70.0
668,205.24810556250003,205.65351056250003,63.0,77.0
669,205.24810556250003,205.7160105,59.0,80.0
670,205.65351056250003,206.1467533125,56.0,52.0
671,206.0589155625,206.4305368125,68.0,83.0
672,206.0589155625,206.48459081250002,63.0,85.0
673,206.0589155625,206.52006375000002,59.0,83.0
674,206.8697255625,207.216009,59.0,85.0
675,206.8697255625,207.24641437500003,63.0,87.0
676,206.8697255625,207.24979275,68.0,86.0
677,206.4643205625,207.26837381250002,56.0,40.0
678,204.43729556250003,207.3595899375,44.0,78.0
679,207.6805355625,208.08087300000003,65.0,80.0
680,207.6805355625,208.0926973125,68.0,84.0
681,207.6805355625,208.11634593750003,61.0,80.0
682,208.0859405625,208.52681850000002,53.0,38.0
683,208.49134556250002,208.9372910625,68.0,83.0
684,208.49134556250002,208.972764,65.0,84.0
685,208.49134556250002,209.00316937500003,61.0,83.0
686,209.30215556250002,209.75147943750002,68.0,85.0
687,209.30215556250002,209.79708750000003,61.0,81.0
688,209.30215556250002,209.81229018750003,65.0,86.0
689,209.70756056250002,210.41364093750002,53.0,64.0
690,210.11296556250002,210.44911387500002,61.0,82.0
691,210.11296556250002,210.4710733125,65.0,84.0
692,210.11296556250002,210.47276250000002,68.0,84.0
693,207.6805355625,210.5149921875,46.0,86.0
694,210.92377556250003,211.4170183125,63.0,83.0
695,210.92377556250003,211.753166625,66.0,86.0
696,210.92377556250003,211.77681525000003,70.0,86.0
697,211.73458556250003,212.22107156250001,63.0,86.0
698,210.92377556250003,212.33086875,51.0,84.0
699,211.32918056250003,212.34607143750003,58.0,74.0
700,212.13999056250003,212.36972006250002,65.0,84.0
701,212.5453955625,212.8832330625,63.0,86.0
702,212.5453955625,212.92884112500002,66.0,83.0
703,212.5453955625,212.93053031250003,70.0,78.0
704,212.9508005625,213.44573250000002,58.0,46.0
705,212.5453955625,213.75823218750003,51.0,76.0
706,213.3562055625,213.79370512500003,75.0,88.0
707,213.3562055625,213.8291780625,66.0,86.0
708,213.3562055625,213.83593481250003,70.0,89.0
709,213.7616105625,214.12647506250002,58.0,75.0
710,214.1670155625,214.58593406250003,70.0,87.0
711,214.1670155625,214.67208262500003,66.0,88.0
712,214.1670155625,214.71262312500002,63.0,87.0
713,214.5724205625,215.12647406250002,58.0,64.0
714,214.1670155625,215.449108875,51.0,85.0
715,214.97782556250002,215.449108875,63.0,87.0
716,214.97782556250002,215.5453925625,70.0,88.0
717,215.38323056250002,215.54708175000002,58.0,77.0
718,214.97782556250002,215.69573025000003,66.0,87.0
719,215.78863556250002,216.2852566875,65.0,89.0
720,215.78863556250002,216.2852566875,68.0,87.0
721,215.78863556250002,216.30890531250003,61.0,84.0
722,216.19404056250002,216.69572925000003,56.0,64.0
723,215.78863556250002,217.06735050000003,49.0,86.0
724,216.59944556250002,217.06735050000003,61.0,88.0
725,216.59944556250002,217.09268831250003,68.0,88.0
726,216.59944556250002,217.30045837500003,65.0,91.0
727,217.00485056250002,217.39843125000002,56.0,75.0
728,217.41025556250003,217.87309293750002,70.0,85.0
729,217.41025556250003,217.91194425000003,63.0,87.0
730,217.41025556250003,217.93221450000001,66.0,88.0
731,217.81566056250003,218.334241125,58.0,64.0
732,217.41025556250003,218.73795693750003,51.0,84.0
733,218.22106556250003,218.7413353125,70.0,88.0
734,218.22106556250003,218.79707850000003,63.0,87.0
735,218.22106556250003,218.87309193750002,66.0,88.0
736,218.62647056250003,219.08255118750003,58.0,68.0
737,219.03187556250003,219.53863181250003,70.0,83.0
738,219.03187556250003,219.56059125000002,63.0,85.0
739,219.03187556250003,219.62478037500003,66.0,38.0
740,219.4372805625,219.9372800625,58.0,78.0
741,219.8426855625,220.32748237500002,70.0,89.0
742,219.03187556250003,220.34099587500003,51.0,85.0
743,220.2480905625,220.34437425000002,58.0,84.0
744,219.8426855625,220.36126612500001,63.0,89.0
745,219.8426855625,220.37477962500003,66.0,90.0
746,220.6534955625,221.1095761875,68.0,86.0
747,220.6534955625,221.17376531250002,65.0,88.0
748,220.6534955625,221.19910312500002,61.0,85.0
749,221.0589005625,221.50991362500002,56.0,38.0
750,220.6534955625,221.91362943750002,49.0,82.0
751,221.46430556250002,221.94065643750002,68.0,84.0
752,221.46430556250002,222.03694012500003,61.0,81.0
753,221.46430556250002,222.05889956250002,65.0,86.0
754,221.86971056250002,222.33423712500002,56.0,71.0
755,222.27511556250002,222.70079081250003,68.0,86.0
756,222.27511556250002,222.75315562500003,61.0,86.0
757,222.27511556250002,222.76666912500002,65.0,87.0
758,222.68052056250002,223.14504712500002,56.0,71.0
759,222.27511556250002,223.53524943750003,49.0,83.0
760,223.08592556250002,223.54538456250003,68.0,87.0
761,223.49133056250002,223.56227643750003,56.0,81.0
762,223.08592556250002,223.59437100000002,61.0,87.0
763,223.08592556250002,223.64166825,65.0,88.0
764,223.89673556250003,224.42714043750001,70.0,89.0
765,223.89673556250003,224.42882962500002,66.0,88.0
766,223.89673556250003,224.45754581250003,61.0,86.0
767,224.30214056250003,224.7278158125,54.0,56.0
768,224.70754556250003,225.24132881250003,70.0,87.0
769,224.70754556250003,225.243018,61.0,86.0
770,224.70754556250003,225.25822068750003,66.0,87.0
771,225.11295056250003,225.54707175000001,54.0,69.0
772,225.51835556250003,225.96092268750002,70.0,84.0
773,225.51835556250003,226.003152375,66.0,86.0
774,225.51835556250003,226.009909125,61.0,86.0
775,225.9237605625,226.32747637500003,54.0,71.0
776,223.89673556250003,226.7683543125,42.0,85.0
777,226.3291655625,226.79707050000002,61.0,87.0
778,226.3291655625,226.8122731875,70.0,88.0
779,226.3291655625,226.84098937500002,66.0,87.0
780,226.7345705625,226.9068676875,54.0,79.0
781,227.1399755625,227.5960561875,70.0,88.0
782,227.1399755625,227.60619131250002,66.0,88.0
783,227.1399755625,227.64504262500003,63.0,88.0
784,227.54538056250001,228.026799,58.0,48.0
785,227.95078556250002,228.44571750000003,66.0,88.0
786,227.95078556250002,228.44571750000003,70.0,88.0
787,227.95078556250002,228.46936612500002,63.0,89.0
788,228.35619056250002,228.80044687500003,58.0,42.0
789,228.76159556250002,229.2582166875,66.0,89.0
790,228.76159556250002,229.3088923125,70.0,89.0
791,228.76159556250002,229.31733825000003,63.0,88.0
792,229.16700056250002,229.54875693750003,58.0,66.0
793,229.57240556250002,229.87308093750002,70.0,88.0
794,229.57240556250002,229.8781485,66.0,90.0
795,229.57240556250002,230.05213481250001,63.0,88.0
796,227.1399755625,230.05551318750003,51.0,79.0
797,230.38321556250003,230.8088908125,68.0,88.0
798,230.38321556250003,230.82071512500002,63.0,89.0
799,230.38321556250003,230.90686368750002,59.0,83.0
800,231.19402556250003,231.62139000000002,68.0,90.0
801,230.78862056250003,231.64841700000002,51.0,63.0
802,231.19402556250003,231.65855212500003,63.0,90.0
803,231.19402556250003,231.66868725000003,59.0,86.0
804,230.38321556250003,231.70078181250003,44.0,81.0
805,232.00483556250003,232.46091618750003,68.0,87.0
806,232.00483556250003,232.50990262500002,61.0,86.0
807,232.00483556250003,232.52172693750003,65.0,89.0
808,232.4102405625,232.90686168750003,56.0,66.0
809,232.00483556250003,232.92375356250002,49.0,83.0
810,232.8156455625,233.20922625000003,68.0,87.0
811,232.8156455625,233.23625325000003,61.0,85.0
812,232.8156455625,233.24976675000002,65.0,87.0
813,233.2210505625,233.31226668750003,49.0,83.0
814,233.6264555625,234.12138750000003,70.0,88.0
815,233.6264555625,234.1433469375,61.0,87.0
816,233.6264555625,234.1501036875,65.0,91.0
817,234.03186056250001,234.52679250000003,58.0,68.0
818,233.6264555625,234.89841375000003,46.0,83.0
819,234.43726556250002,234.94740018750002,70.0,89.0
820,234.43726556250002,234.95246775,61.0,85.0
821,234.43726556250002,235.0132785,65.0,88.0
822,234.84267056250002,235.22611612500003,58.0,82.0
823,235.24807556250002,235.76327775000001,70.0,86.0
824,235.24807556250002,235.786926375,61.0,83.0
825,235.24807556250002,235.81902093750003,65.0,87.0
826,236.05888556250002,236.51834456250003,61.0,83.0
827,236.05888556250002,236.5453715625,70.0,86.0
828,235.24807556250002,236.65347956250002,46.0,84.0
829,236.05888556250002,236.69739843750003,65.0,86.0
830,236.86969556250003,237.36800587500002,70.0,82.0
831,236.86969556250003,237.44064093750004,63.0,84.0
832,236.86969556250003,237.44908687500003,66.0,84.0
833,237.68050556250003,238.20246450000002,70.0,83.0
834,237.68050556250003,238.20415368750002,63.0,81.0
835,237.68050556250003,238.2075320625,66.0,79.0
836,238.49131556250003,239.04199068750003,70.0,83.0
837,238.49131556250003,239.06057175,63.0,84.0
838,238.49131556250003,239.06563931250002,66.0,84.0
839,236.86969556250003,239.6467198125,51.0,84.0
840,239.3021255625,239.854489875,63.0,84.0
841,239.3021255625,239.86800337500003,70.0,84.0
842,239.3021255625,239.88320606250002,66.0,84.0
843,240.1129355625,240.5690161875,70.0,88.0
844,240.1129355625,240.57915131250002,66.0,88.0
845,240.1129355625,240.61800262500003,63.0,88.0
846,240.51834056250001,240.999759,58.0,48.0
847,240.92374556250002,241.41867750000003,66.0,88.0
848,240.92374556250002,241.41867750000003,70.0,88.0
849,240.92374556250002,241.44232612500002,63.0,89.0
850,241.32915056250002,241.77340687500003,58.0,42.0
851,241.73455556250002,242.2311766875,66.0,89.0
852,241.73455556250002,242.28185231250004,70.0,89.0
853,241.73455556250002,242.29029825000003,63.0,88.0
854,242.13996056250002,242.52171693750003,58.0,66.0
855,242.54536556250002,242.84604093750002,70.0,88.0
856,242.54536556250002,242.8511085,66.0,90.0
857,242.54536556250002,243.02509481250001,63.0,88.0
858,240.1129355625,243.02847318750003,51.0,79.0
859,243.35617556250003,243.7818508125,68.0,88.0
860,243.35617556250003,243.79367512500002,63.0,89.0
861,243.35617556250003,243.87982368750002,59.0,83.0
862,244.16698556250003,244.59435000000002,68.0,90.0
863,243.76158056250003,244.62137700000002,51.0,63.0
864,244.16698556250003,244.63151212500003,63.0,90.0
865,244.16698556250003,244.64164725000003,59.0,86.0
866,243.35617556250003,244.67374181250003,44.0,81.0
867,244.97779556250003,245.43387618750003,68.0,87.0
868,244.97779556250003,245.48286262500002,61.0,86.0
869,244.97779556250003,245.49468693750003,65.0,89.0
870,245.3832005625,245.87982168750003,56.0,66.0
871,244.97779556250003,245.89671356250003,49.0,83.0
872,245.7886055625,246.18218625000003,68.0,87.0
873,245.7886055625,246.20921325000003,61.0,85.0
874,245.7886055625,246.22272675000002,65.0,87.0
875,246.1940105625,246.28522668750003,49.0,83.0
876,246.5994155625,247.09434750000003,70.0,88.0
877,246.5994155625,247.1163069375,61.0,87.0
878,246.5994155625,247.12306368750004,65.0,91.0
879,247.00482056250002,247.49975250000003,58.0,68.0
880,246.5994155625,247.87137375000003,46.0,83.0
881,247.41022556250002,247.92036018750002,70.0,89.0
882,247.41022556250002,247.92542775,61.0,85.0
883,247.41022556250002,247.9862385,65.0,88.0
884,247.81563056250002,248.19907612500003,58.0,82.0
885,248.22103556250002,248.73623775000002,70.0,86.0
886,248.22103556250002,248.75988637500004,61.0,83.0
887,248.22103556250002,248.79198093750003,65.0,87.0
888,249.03184556250002,249.49130456250003,61.0,83.0
889,249.03184556250002,249.5183315625,70.0,86.0
890,248.22103556250002,249.62643956250002,46.0,84.0
891,249.03184556250002,249.67035843750003,65.0,86.0
892,249.84265556250003,250.34096587500002,70.0,82.0
893,249.84265556250003,250.41360093750004,63.0,84.0
894,249.84265556250003,250.42204687500004,66.0,84.0
895,250.65346556250003,251.17542450000002,70.0,83.0
896,250.65346556250003,251.17711368750003,63.0,81.0
897,250.65346556250003,251.18049206250004,66.0,79.0
898,251.46427556250003,252.01495068750003,70.0,83.0
899,251.46427556250003,252.03353175,63.0,84.0
900,251.46427556250003,252.03859931250003,66.0,84.0
901,249.84265556250003,252.6196798125,51.0,84.0
902,252.2750855625,252.827449875,63.0,84.0
903,252.2750855625,252.84096337500003,70.0,84.0
904,252.2750855625,252.85616606250002,66.0,84.0
905,253.49130056250002,254.3257591875,53.0,70.0
906,253.0858955625,254.36123212500002,46.0,88.0
907,253.89670556250002,254.70244800000003,58.0,83.0
908,254.30211056250002,254.90852887500003,61.0,77.0
909,255.51832556250002,256.097716875,61.0,81.0
910,254.70751556250002,256.1196763125,49.0,86.0
911,255.11292056250002,256.21089243750004,56.0,67.0
912,257.5453505625,257.955823125,65.0,74.0
913,257.13994556250003,258.989605875,63.0,79.0
914,257.95075556250004,259.00143018750003,66.0,76.0
915,256.7345405625,259.06899768750003,58.0,70.0
916,256.3291355625,259.09264631250005,51.0,81.0
