,start,end,pitch,velocity
0,27.136666666666667,27.438333333333336,66.0,88.0
1,27.53666666666667,27.823333333333334,66.0,88.0
2,27.936666666666667,28.21666666666667,66.0,87.0
3,28.33666666666667,28.651666666666667,68.0,87.0
4,28.736666666666668,29.488333333333337,71.0,87.0
5,30.33666666666667,30.628333333333334,73.0,89.0
6,30.736666666666668,31.05666666666667,75.0,89.0
7,31.13666666666667,31.478333333333335,73.0,93.0
8,31.53666666666667,31.918333333333337,71.0,90.0
9,31.936666666666667,32.97666666666667,68.0,87.0
10,33.13666666666667,33.46666666666667,75.0,87.0
11,33.53666666666667,33.833333333333336,73.0,90.0
12,33.93666666666667,34.65833333333334,75.0,91.0
13,34.73666666666667,34.873333333333335,73.0,87.0
14,34.905,35.04333333333334,75.0,86.0
15,35.13666666666667,35.46666666666667,73.0,91.0
16,35.53666666666667,35.95,71.0,89.0
17,35.93666666666667,36.318333333333335,68.0,88.0
18,36.336666666666666,37.07833333333333,78.0,88.0
19,37.13666666666667,38.78666666666667,75.0,85.0
20,39.93666666666667,40.23833333333334,66.0,88.0
21,40.336666666666666,40.623333333333335,66.0,88.0
22,40.73666666666667,41.01666666666667,66.0,87.0
23,41.13666666666667,41.45166666666667,68.0,87.0
24,41.53666666666667,42.288333333333334,71.0,87.0
25,43.13666666666667,43.428333333333335,73.0,89.0
26,43.53666666666667,43.85666666666667,75.0,89.0
27,43.93666666666667,44.278333333333336,73.0,93.0
28,44.336666666666666,44.718333333333334,71.0,90.0
29,44.73666666666667,45.77666666666667,68.0,87.0
30,45.93666666666667,46.26666666666667,75.0,87.0
31,46.33666666666667,46.63333333333333,73.0,90.0
32,46.73666666666667,47.458333333333336,75.0,91.0
33,47.53666666666667,47.67333333333334,73.0,87.0
34,47.705000000000005,47.843333333333334,75.0,86.0
35,47.93666666666667,48.26666666666667,73.0,91.0
36,48.33666666666667,49.13666666666667,71.0,89.0
37,49.13666666666667,49.51833333333334,68.0,88.0
38,49.53666666666667,49.93666666666667,71.0,88.0
39,49.93666666666667,51.58666666666667,71.0,85.0
40,52.73666666666667,53.035000000000004,73.0,91.0
41,53.13666666666667,53.52,75.0,90.0
42,53.53666666666667,53.89,73.0,93.0
43,53.93666666666667,54.333333333333336,71.0,87.0
44,54.33666666666667,55.68666666666667,75.0,90.0
45,55.93666666666667,56.226666666666674,73.0,88.0
46,56.33666666666667,56.650000000000006,75.0,86.0
47,56.73666666666667,57.050000000000004,73.0,91.0
48,57.13666666666667,57.54166666666667,71.0,93.0
49,57.53666666666667,58.601666666666674,68.0,85.0
50,58.73666666666667,59.06666666666667,75.0,89.0
51,59.13666666666667,59.46,73.0,98.0
52,59.53666666666667,60.660000000000004,75.0,89.0
53,60.73666666666667,61.013333333333335,73.0,93.0
54,61.13666666666667,61.905,71.0,87.0
55,61.93666666666667,62.33666666666667,73.0,93.0
56,62.33666666666667,62.73666666666667,75.0,82.0
57,62.73666666666667,64.555,73.0,92.0
58,65.53666666666668,65.86,73.0,90.0
59,65.93666666666667,66.26,75.0,88.0
60,66.33666666666667,66.61333333333334,73.0,94.0
61,66.73666666666666,67.02166666666668,71.0,88.0
62,67.13666666666667,68.30000000000001,75.0,89.0
63,68.73666666666666,69.02833333333334,73.0,89.0
64,69.13666666666667,69.495,75.0,89.0
65,69.53666666666668,69.85833333333333,73.0,91.0
66,69.93666666666667,70.36,71.0,86.0
67,70.33666666666667,71.46666666666667,68.0,84.0
68,71.53666666666668,71.86,75.0,89.0
69,71.93666666666667,72.265,73.0,91.0
70,72.33666666666667,73.00166666666667,75.0,90.0
71,73.13666666666667,73.26666666666667,75.0,87.0
72,73.33666666666667,73.49333333333334,75.0,89.0
73,73.53666666666668,73.84833333333334,73.0,92.0
74,73.93666666666667,74.28333333333333,71.0,89.0
75,74.33666666666667,74.60833333333333,73.0,91.0
76,74.73666666666666,75.02833333333334,75.0,88.0
77,75.13666666666667,77.51,78.0,85.0
78,77.53666666666668,77.89,75.0,94.0
79,77.93666666666667,78.29333333333334,78.0,91.0
80,78.33666666666667,79.13333333333334,80.0,88.0
81,79.13666666666667,80.00166666666667,83.0,90.0
82,79.93666666666667,80.61833333333334,80.0,88.0
83,80.73666666666668,81.11333333333334,80.0,91.0
84,81.13666666666667,81.49666666666667,75.0,83.0
85,81.53666666666668,81.87,78.0,88.0
86,81.93666666666667,82.22333333333334,78.0,88.0
87,82.33666666666667,82.59666666666668,78.0,88.0
88,82.73666666666668,83.11666666666667,80.0,88.0
89,83.13666666666667,83.89166666666667,75.0,91.0
90,83.93666666666667,84.28,75.0,89.0
91,84.33666666666667,84.64833333333334,78.0,90.0
92,84.73666666666668,85.02000000000001,80.0,87.0
93,85.13666666666667,85.43,80.0,83.0
94,85.53666666666668,85.885,80.0,86.0
95,85.93666666666667,86.275,83.0,86.0
96,86.33666666666667,86.61833333333334,80.0,89.0
97,86.73666666666668,87.045,78.0,89.0
98,87.13666666666667,87.435,75.0,91.0
99,87.53666666666668,87.915,73.0,94.0
100,87.93666666666667,88.32333333333334,78.0,87.0
101,88.33666666666667,90.025,75.0,84.0
102,90.73666666666668,90.89833333333334,75.0,91.0
103,90.93666666666667,91.11500000000001,73.0,88.0
104,91.13666666666667,91.39166666666667,75.0,93.0
105,91.53666666666668,91.80166666666668,79.0,76.0
106,92.33666666666667,92.61666666666667,79.0,94.0
107,92.73666666666668,93.01833333333335,80.0,88.0
108,93.13666666666667,93.73,82.0,89.0
109,93.93666666666667,94.48166666666667,83.0,93.0
110,94.73666666666668,95.38833333333334,82.0,88.0
111,95.53666666666668,96.13833333333334,80.0,88.0
112,96.33666666666667,96.62,80.0,93.0
113,96.73666666666668,97.05166666666668,83.0,92.0
114,97.13666666666667,97.85833333333333,80.0,93.0
115,98.33666666666667,98.635,83.0,93.0
116,98.73666666666668,98.98666666666668,80.0,93.0
117,99.13666666666667,99.68166666666667,80.0,91.0
118,99.93666666666667,100.19833333333334,75.0,89.0
119,100.33666666666667,101.09833333333334,75.0,89.0
120,101.13666666666667,102.84500000000001,73.0,91.0
121,103.13666666666667,103.49000000000001,75.0,94.0
122,103.53666666666668,103.89333333333335,78.0,91.0
123,103.93666666666667,104.73333333333333,80.0,88.0
124,104.73666666666668,105.60166666666667,83.0,90.0
125,105.53666666666668,106.21833333333333,80.0,88.0
126,106.33666666666667,106.71333333333334,80.0,91.0
127,106.73666666666668,107.09666666666668,75.0,83.0
128,107.13666666666667,107.47000000000001,78.0,88.0
129,107.53666666666668,107.82333333333334,78.0,88.0
130,107.93666666666667,108.19666666666667,78.0,88.0
131,108.33666666666667,108.71666666666667,80.0,88.0
132,108.73666666666668,109.49166666666667,75.0,91.0
133,109.53666666666668,109.88000000000001,75.0,89.0
134,109.93666666666667,110.24833333333333,78.0,90.0
135,110.33666666666667,110.62,80.0,87.0
136,110.73666666666668,111.03,80.0,83.0
137,111.13666666666667,111.48500000000001,80.0,86.0
138,111.53666666666668,111.87500000000001,83.0,86.0
139,111.93666666666667,112.21833333333333,80.0,89.0
140,112.33666666666667,112.64500000000001,78.0,89.0
141,112.73666666666668,113.03500000000001,75.0,91.0
142,113.13666666666667,113.515,73.0,94.0
143,113.53666666666668,113.92333333333335,78.0,87.0
144,113.93666666666667,115.62500000000001,75.0,84.0
145,116.33666666666667,116.49833333333333,75.0,91.0
146,116.53666666666668,116.715,73.0,88.0
147,116.73666666666668,116.99166666666667,75.0,93.0
148,117.13666666666667,117.53666666666668,79.0,76.0
149,117.93666666666667,118.21666666666667,79.0,94.0
150,118.33666666666667,118.61833333333334,80.0,88.0
151,118.73666666666668,119.33000000000001,82.0,89.0
152,119.53666666666668,120.08166666666668,83.0,93.0
153,120.33666666666667,120.98833333333334,82.0,88.0
154,121.13666666666667,121.73833333333334,80.0,88.0
155,121.93666666666667,122.22000000000001,80.0,93.0
156,122.33666666666667,122.65166666666667,83.0,92.0
157,122.73666666666668,123.45833333333334,80.0,93.0
158,123.53666666666668,123.98,80.0,85.0
159,123.93666666666668,124.29666666666668,75.0,88.0
160,124.33666666666667,125.06666666666668,73.0,90.0
161,125.13666666666667,125.42166666666668,75.0,88.0
162,125.53666666666668,125.86666666666667,73.0,89.0
163,125.93666666666668,126.62333333333333,68.0,88.0
164,126.73666666666668,129.15166666666667,71.0,88.0
165,155.17284393333333,155.47572141458335,66.0,88.0
166,155.57444943333334,155.86181850625002,66.0,88.0
167,155.97515183958333,156.25515183958333,66.0,87.0
168,156.37515183958334,156.69015183958334,68.0,87.0
169,156.77515183958334,157.52681850625,71.0,87.0
170,158.37515183958334,158.66681850625,73.0,89.0
171,158.77515183958334,159.09515183958334,75.0,89.0
172,159.17515183958335,159.51681850625002,73.0,93.0
173,159.57515183958333,159.95681850625002,71.0,90.0
174,159.97515183958333,161.01515183958332,68.0,87.0
175,161.17515183958335,161.50515183958333,75.0,87.0
176,161.57515183958333,161.87181850625,73.0,90.0
177,161.97515183958333,162.69681850625,75.0,91.0
178,162.77515183958334,162.91181850625,73.0,87.0
179,162.94348517291667,163.08181850625002,75.0,86.0
180,163.17515183958335,163.50515183958333,73.0,91.0
181,163.57515183958333,163.98848517291668,71.0,89.0
182,163.97515183958333,164.35681850625,68.0,88.0
183,164.37515183958334,165.11681850625,78.0,88.0
184,165.17515183958335,166.82515183958333,75.0,85.0
185,167.97515183958333,168.27681850625,66.0,88.0
186,168.37515183958334,168.66181850625,66.0,88.0
187,168.77515183958334,169.05515183958335,66.0,87.0
188,169.17515183958335,169.49015183958335,68.0,87.0
189,169.57515183958333,170.32681850625,71.0,87.0
190,171.17515183958335,171.46681850625,73.0,89.0
191,171.57515183958333,171.89515183958335,75.0,89.0
192,171.97515183958333,172.31681850625,73.0,93.0
193,172.37515183958334,172.75681850625,71.0,90.0
194,172.77515183958334,173.81515183958334,68.0,87.0
195,173.97515183958333,174.30515183958335,75.0,87.0
196,174.37515183958334,174.67181850625002,73.0,90.0
197,174.77515183958334,175.49681850625,75.0,91.0
198,175.57515183958333,175.71181850625,73.0,87.0
199,175.74348517291668,175.88181850625,75.0,86.0
200,175.97515183958333,176.30515183958335,73.0,91.0
201,176.37515183958334,177.17515183958335,71.0,89.0
202,177.17515183958335,177.55681850625,68.0,88.0
203,177.57515183958333,177.97515183958333,71.0,88.0
204,177.97515183958333,179.62515183958334,71.0,85.0
205,180.77515183958334,181.07348517291666,73.0,91.0
206,181.17515183958335,181.55848517291668,75.0,90.0
207,181.57515183958333,181.92848517291668,73.0,93.0
208,181.97515183958333,182.37181850625,71.0,87.0
209,182.37515183958334,183.72515183958333,75.0,90.0
210,183.97515183958333,184.26515183958332,73.0,88.0
211,184.37515183958334,184.68848517291667,75.0,86.0
212,184.77515183958334,185.08848517291668,73.0,91.0
213,185.17515183958335,185.58015183958335,71.0,93.0
214,185.57515183958333,186.64015183958332,68.0,85.0
215,186.77515183958334,187.10515183958333,75.0,89.0
216,187.17515183958335,187.49848517291667,73.0,98.0
217,187.57515183958333,188.69848517291666,75.0,89.0
218,188.77515183958334,189.05181850625002,73.0,93.0
219,189.17515183958335,189.94348517291667,71.0,87.0
220,189.97515183958333,190.37515183958334,73.0,93.0
221,190.37515183958334,190.77515183958334,75.0,82.0
222,190.77515183958334,192.59348517291667,73.0,92.0
223,193.57515183958333,193.89848517291668,73.0,90.0
224,193.97515183958333,194.29848517291668,75.0,88.0
225,194.37515183958334,194.65181850625,73.0,94.0
226,194.77515183958334,195.06015183958334,71.0,88.0
227,195.17515183958335,196.33848517291668,75.0,89.0
228,196.77515183958334,197.06681850625,73.0,89.0
229,197.17515183958335,197.53348517291667,75.0,89.0
230,197.57515183958333,197.89681850625,73.0,91.0
231,197.97515183958333,198.39848517291668,71.0,86.0
232,198.37515183958334,199.50515183958333,68.0,84.0
233,199.57515183958333,199.89848517291668,75.0,89.0
234,199.97515183958333,200.30348517291668,73.0,91.0
235,200.37515183958334,201.04015183958336,75.0,90.0
236,201.17515183958335,201.30515183958335,75.0,87.0
237,201.37515183958334,201.53181850625,75.0,89.0
238,201.57515183958333,201.88681850625,73.0,92.0
239,201.97515183958333,202.32181850625,71.0,89.0
240,202.37515183958334,202.64681850625,73.0,91.0
241,202.77515183958334,203.06681850625,75.0,88.0
242,203.17515183958335,205.54848517291668,78.0,85.0
243,205.57515183958333,205.92848517291668,75.0,94.0
244,205.97515183958333,206.33181850625002,78.0,91.0
245,206.37515183958334,207.17181850625002,80.0,88.0
246,207.17515183958335,208.04015183958336,83.0,90.0
247,207.97515183958333,208.65681850625,80.0,88.0
248,208.77515183958334,209.15181850625,80.0,91.0
249,209.17515183958335,209.53515183958334,75.0,83.0
250,209.57515183958333,209.90848517291667,78.0,88.0
251,209.97515183958333,210.26181850625,78.0,88.0
252,210.37515183958334,210.63515183958333,78.0,88.0
253,210.77515183958334,211.15515183958334,80.0,88.0
254,211.17515183958335,211.93015183958335,75.0,91.0
255,211.97515183958333,212.31848517291667,75.0,89.0
256,212.37515183958334,212.68681850625,78.0,90.0
257,212.77515183958334,213.05848517291668,80.0,87.0
258,213.17515183958335,213.46848517291667,80.0,83.0
259,213.57515183958333,213.92348517291668,80.0,86.0
260,213.97515183958333,214.31348517291667,83.0,86.0
261,214.37515183958334,214.65681850625,80.0,89.0
262,214.77515183958334,215.08348517291668,78.0,89.0
263,215.17515183958335,215.47348517291667,75.0,91.0
264,215.57515183958333,215.9534851729167,73.0,94.0
265,215.97515183958333,216.36181850625002,78.0,87.0
266,216.37515183958334,218.06348517291667,75.0,84.0
267,218.77515183958334,218.93681850625,75.0,91.0
268,218.97515183958333,219.15348517291667,73.0,88.0
269,219.17515183958335,219.43015183958335,75.0,93.0
270,219.57515183958333,219.84015183958334,79.0,76.0
271,220.37515183958334,220.65515183958334,79.0,94.0
272,220.77515183958334,221.05681850625,80.0,88.0
273,221.17515183958335,221.76848517291666,82.0,89.0
274,221.97515183958336,222.52015183958335,83.0,93.0
275,222.77515183958334,223.42681850625002,82.0,88.0
276,223.57515183958333,224.17681850625002,80.0,88.0
277,224.37515183958334,224.65848517291667,80.0,93.0
278,224.77515183958334,225.09015183958334,83.0,92.0
279,225.17515183958335,225.89681850625,80.0,93.0
280,226.37515183958334,226.67348517291668,83.0,93.0
281,226.77515183958334,227.02515183958334,80.0,93.0
282,227.17515183958335,227.72015183958334,80.0,91.0
283,227.97515183958336,228.23681850625002,75.0,89.0
284,228.37515183958334,229.13681850625,75.0,89.0
285,229.17515183958335,230.88348517291666,73.0,91.0
286,231.17515183958335,231.52848517291667,75.0,94.0
287,231.57515183958333,231.93181850625,78.0,91.0
288,231.97515183958336,232.77181850625,80.0,88.0
289,232.77515183958334,233.64015183958332,83.0,90.0
290,233.57515183958333,234.25681850625,80.0,88.0
291,234.37515183958334,234.75181850625,80.0,91.0
292,234.77515183958334,235.13515183958333,75.0,83.0
293,235.17515183958335,235.50848517291666,78.0,88.0
294,235.57515183958333,235.86181850625002,78.0,88.0
295,235.97515183958336,236.23515183958335,78.0,88.0
296,236.37515183958334,236.75515183958333,80.0,88.0
297,236.77515183958334,237.53015183958334,75.0,91.0
298,237.57515183958333,237.9184851729167,75.0,89.0
299,237.97515183958336,238.28681850625003,78.0,90.0
300,238.37515183958334,238.6584851729167,80.0,87.0
301,238.77515183958334,239.06848517291667,80.0,83.0
302,239.17515183958335,239.52348517291668,80.0,86.0
303,239.57515183958333,239.9134851729167,83.0,86.0
304,239.97515183958336,240.25681850625,80.0,89.0
305,240.37515183958334,240.68348517291668,78.0,89.0
306,240.77515183958334,241.07348517291666,75.0,91.0
307,241.17515183958335,241.55348517291668,73.0,94.0
308,241.57515183958333,241.96181850625,78.0,87.0
309,241.97515183958336,243.6634851729167,75.0,84.0
310,244.37515183958334,244.53681850625003,75.0,91.0
311,244.57515183958333,244.75348517291667,73.0,88.0
312,244.77515183958334,245.03015183958334,75.0,93.0
313,245.17515183958335,245.57515183958333,79.0,76.0
314,245.97515183958336,246.25515183958333,79.0,94.0
315,246.37515183958334,246.65681850625,80.0,88.0
316,246.77515183958334,247.36848517291668,82.0,89.0
317,247.57515183958333,248.12015183958334,83.0,93.0
318,248.37515183958334,249.02681850625,82.0,88.0
319,249.17515183958335,249.77681850625,80.0,88.0
320,249.97515183958336,250.25848517291666,80.0,93.0
321,250.37515183958334,250.69015183958334,83.0,92.0
322,250.77515183958334,251.49681850625,80.0,93.0
323,251.57515183958333,252.01848517291668,80.0,85.0
324,251.97515183958336,252.33515183958335,75.0,88.0
325,252.37515183958334,253.10515183958336,73.0,90.0
326,253.17515183958335,253.46015183958335,75.0,88.0
327,253.57515183958333,253.90515183958334,73.0,89.0
328,253.97515183958336,254.66181850625003,68.0,88.0
329,254.77515183958334,257.19015183958334,71.0,88.0
