,start,end,pitch,velocity
0,0.33666666666666667,0.785,63.0,92.0
1,0.7366666666666667,1.1816666666666666,64.0,94.0
2,1.1366666666666667,1.5650000000000002,66.0,89.0
3,1.3250000000000002,1.8900000000000001,52.0,73.0
4,1.5366666666666668,1.965,68.0,89.0
5,1.485,2.3666666666666667,59.0,78.0
6,1.53,2.4183333333333334,64.0,76.0
7,1.4133333333333333,2.43,56.0,78.0
8,2.3183333333333334,3.836666666666667,52.0,77.0
9,2.7233333333333336,3.8800000000000003,59.0,83.0
10,3.1433333333333335,3.8950000000000005,64.0,76.0
11,1.9000000000000001,3.9850000000000003,47.0,70.0
12,1.4866666666666668,4.111666666666667,40.0,82.0
13,4.58,5.1883333333333335,51.0,73.0
14,4.655,5.568333333333333,54.0,82.0
15,4.766666666666667,5.918333333333334,63.0,67.0
16,5.535,6.258333333333334,51.0,82.0
17,5.885000000000001,6.496666666666667,54.0,87.0
18,5.1000000000000005,6.8500000000000005,46.0,72.0
19,6.295000000000001,6.8516666666666675,63.0,78.0
20,4.691666666666667,6.933333333333334,39.0,86.0
21,7.781666666666667,8.003333333333334,56.0,63.0
22,7.848333333333334,8.266666666666667,61.0,80.0
23,7.943333333333334,8.428333333333335,64.0,87.0
24,8.306666666666667,8.825000000000001,56.0,75.0
25,7.911666666666667,8.83,49.0,83.0
26,9.375,9.936666666666667,54.0,74.0
27,9.473333333333334,10.583333333333334,61.0,82.0
28,10.280000000000001,10.695,54.0,85.0
29,9.861666666666668,10.706666666666667,49.0,80.0
30,9.49,10.851666666666667,42.0,84.0
31,10.956666666666667,11.125,54.0,70.0
32,11.035,11.568333333333333,59.0,74.0
33,11.5,11.945,54.0,69.0
34,11.108333333333334,11.945,63.0,88.0
35,11.103333333333333,12.233333333333334,47.0,80.0
36,11.886666666666667,12.438333333333334,61.0,87.0
37,12.301666666666668,12.465000000000002,54.0,81.0
38,12.701666666666668,13.06,61.0,80.0
39,12.698333333333334,13.356666666666667,37.0,87.0
40,13.541666666666668,14.093333333333334,39.0,89.0
41,13.525,14.465000000000002,58.0,80.0
42,13.523333333333333,15.530000000000001,63.0,83.0
43,15.13,16.075,52.0,87.0
44,15.503333333333334,16.45,59.0,83.0
45,16.32,16.93,52.0,71.0
46,15.915000000000001,16.94666666666667,64.0,85.0
47,16.706666666666667,16.963333333333335,59.0,76.0
48,16.711666666666666,16.96666666666667,56.0,75.0
49,14.755,17.093333333333334,47.0,82.0
50,14.370000000000001,17.16166666666667,40.0,83.0
51,17.393333333333334,18.00166666666667,51.0,75.0
52,17.44666666666667,18.331666666666667,54.0,80.0
53,18.295,19.77,51.0,85.0
54,17.51,19.77166666666667,58.0,75.0
55,18.663333333333334,19.776666666666667,54.0,87.0
56,17.901666666666667,20.186666666666667,46.0,73.0
57,19.880000000000003,20.243333333333336,58.0,83.0
58,17.503333333333334,20.263333333333335,39.0,83.0
59,19.121666666666666,20.268333333333334,63.0,79.0
60,20.693333333333335,20.83666666666667,37.0,84.0
61,20.62,20.846666666666668,49.0,76.0
62,20.688333333333336,20.94,52.0,79.0
63,20.715,21.003333333333334,56.0,72.0
64,21.10666666666667,21.691666666666666,49.0,69.0
65,21.49666666666667,21.700000000000003,56.0,86.0
66,21.888333333333335,22.133333333333336,61.0,91.0
67,22.303333333333335,22.723333333333336,61.0,79.0
68,22.291666666666668,22.745,66.0,76.0
69,22.718333333333334,23.198333333333334,49.0,77.0
70,23.1,23.25166666666667,61.0,83.0
71,22.291666666666668,23.276666666666667,42.0,84.0
72,23.09,23.288333333333334,64.0,85.0
73,23.885,24.00166666666667,35.0,83.0
74,23.89166666666667,24.645000000000003,63.0,86.0
75,23.89,24.675,59.0,75.0
76,25.078333333333337,25.448333333333334,61.0,74.0
77,24.706666666666667,25.796666666666667,54.0,82.0
78,25.456666666666667,26.093333333333334,59.0,74.0
79,25.901666666666667,26.933333333333334,54.0,76.0
80,24.290000000000003,26.950000000000003,47.0,83.0
81,26.34166666666667,27.12166666666667,63.0,75.0
82,26.32,27.12666666666667,59.0,55.0
83,27.53666666666667,28.15666666666667,54.0,77.0
84,27.936666666666667,28.740000000000002,61.0,82.0
85,28.33666666666667,28.91,54.0,70.0
86,29.13666666666667,29.490000000000002,54.0,62.0
87,27.136666666666667,29.51166666666667,47.0,88.0
88,28.736666666666668,29.546666666666667,63.0,83.0
89,29.53666666666667,29.741666666666667,59.0,83.0
90,30.736666666666668,31.221666666666668,52.0,80.0
91,31.13666666666667,31.37666666666667,63.0,89.0
92,31.53666666666667,31.85666666666667,64.0,74.0
93,31.936666666666667,32.11,59.0,75.0
94,32.336666666666666,32.818333333333335,47.0,61.0
95,32.73666666666667,33.11166666666667,52.0,81.0
96,32.73666666666667,33.13333333333333,56.0,81.0
97,30.33666666666667,33.24666666666667,40.0,87.0
98,33.13666666666667,33.40833333333334,47.0,82.0
99,33.53666666666667,33.57,51.0,77.0
100,33.53666666666667,33.766666666666666,56.0,69.0
101,33.53666666666667,34.388333333333335,61.0,80.0
102,33.93666666666667,34.391666666666666,56.0,83.0
103,33.53666666666667,34.55166666666667,49.0,76.0
104,34.336666666666666,35.208333333333336,64.0,86.0
105,35.13666666666667,35.99666666666667,61.0,83.0
106,35.93666666666667,36.38,54.0,93.0
107,35.53666666666667,36.468333333333334,49.0,82.0
108,35.13666666666667,36.57333333333334,42.0,86.0
109,36.336666666666666,36.75,61.0,87.0
110,36.73666666666667,36.913333333333334,54.0,74.0
111,36.73666666666667,37.545,59.0,74.0
112,37.13666666666667,37.580000000000005,54.0,74.0
113,36.73666666666667,37.83166666666667,47.0,81.0
114,37.53666666666667,37.99,61.0,85.0
115,37.93666666666667,38.098333333333336,59.0,79.0
116,38.336666666666666,38.79,52.0,75.0
117,38.336666666666666,38.855000000000004,40.0,82.0
118,38.336666666666666,39.11833333333334,56.0,73.0
119,39.13666666666667,39.57666666666667,54.0,82.0
120,39.13666666666667,39.580000000000005,58.0,87.0
121,39.13666666666667,39.78,42.0,84.0
122,39.53666666666667,39.79833333333334,49.0,77.0
123,39.93666666666667,40.79166666666667,59.0,79.0
124,40.73666666666667,41.220000000000006,61.0,86.0
125,41.13666666666667,41.64333333333334,54.0,75.0
126,41.93666666666667,42.21666666666667,54.0,73.0
127,41.53666666666667,42.28333333333334,63.0,85.0
128,42.336666666666666,42.718333333333334,59.0,84.0
129,42.336666666666666,42.805,54.0,85.0
130,40.336666666666666,42.92333333333334,51.0,76.0
131,39.93666666666667,42.935,47.0,83.0
132,43.13666666666667,43.663333333333334,56.0,76.0
133,43.13666666666667,43.98166666666667,59.0,80.0
134,43.53666666666667,44.09666666666667,51.0,81.0
135,43.13666666666667,44.12166666666667,44.0,87.0
136,43.93666666666667,44.27333333333333,56.0,92.0
137,44.73666666666667,45.595000000000006,59.0,81.0
138,44.73666666666667,45.87833333333334,40.0,87.0
139,45.13666666666667,45.91666666666667,47.0,81.0
140,45.53666666666667,45.92333333333334,52.0,93.0
141,45.93666666666667,46.10333333333334,59.0,87.0
142,46.33666666666667,46.58166666666667,56.0,78.0
143,46.33666666666667,47.025000000000006,61.0,81.0
144,46.73666666666667,47.23166666666667,56.0,82.0
145,46.33666666666667,47.36166666666667,49.0,86.0
146,47.13666666666667,47.47666666666667,64.0,81.0
147,47.93666666666667,48.395,58.0,81.0
148,48.33666666666667,48.85666666666667,54.0,84.0
149,48.73666666666667,49.11833333333334,61.0,86.0
150,47.93666666666667,49.335,42.0,86.0
151,49.53666666666667,50.345000000000006,47.0,83.0
152,49.53666666666667,50.388333333333335,63.0,89.0
153,49.93666666666667,50.42666666666667,54.0,84.0
154,50.33666666666667,50.63,59.0,83.0
155,51.13666666666667,51.36166666666667,37.0,87.0
156,51.13666666666667,51.39,56.0,78.0
157,51.13666666666667,51.39833333333333,61.0,82.0
158,51.93666666666667,52.71,62.0,80.0
159,51.93666666666667,52.71333333333334,65.0,79.0
160,51.93666666666667,52.723333333333336,38.0,79.0
161,52.73666666666667,53.29666666666667,58.0,82.0
162,52.73666666666667,53.60666666666667,63.0,87.0
163,53.53666666666667,54.335,58.0,93.0
164,53.93666666666667,54.38166666666667,63.0,89.0
165,54.73666666666667,54.95166666666667,58.0,79.0
166,54.33666666666667,55.00333333333334,66.0,88.0
167,53.13666666666667,55.28666666666667,46.0,67.0
168,55.13666666666667,55.29666666666667,63.0,88.0
169,52.73666666666667,55.31166666666667,39.0,88.0
170,55.13666666666667,55.32166666666667,58.0,89.0
171,55.93666666666667,56.475,56.0,78.0
172,55.93666666666667,56.51666666666667,59.0,83.0
173,56.73666666666667,56.97166666666667,58.0,82.0
174,57.13666666666667,57.428333333333335,59.0,88.0
175,56.33666666666667,57.690000000000005,51.0,82.0
176,57.53666666666667,57.928333333333335,63.0,88.0
177,57.53666666666667,58.00000000000001,56.0,83.0
178,58.33666666666667,58.50333333333334,56.0,83.0
179,58.33666666666667,58.53,59.0,88.0
180,57.93666666666667,58.605000000000004,51.0,86.0
181,55.93666666666667,58.61000000000001,44.0,87.0
182,58.73666666666667,59.23666666666667,56.0,84.0
183,59.13666666666667,59.96,64.0,87.0
184,59.53666666666667,60.06333333333334,44.0,60.0
185,59.13666666666667,60.12666666666667,37.0,88.0
186,59.93666666666667,60.39166666666667,61.0,86.0
187,60.33666666666667,60.82666666666667,56.0,89.0
188,60.73666666666667,61.28,61.0,83.0
189,61.13666666666667,61.39833333333334,56.0,81.0
190,60.73666666666667,61.608333333333334,49.0,87.0
191,61.53666666666667,61.74166666666667,56.0,88.0
192,61.53666666666667,62.01166666666667,64.0,85.0
193,62.33666666666667,63.15833333333334,54.0,83.0
194,62.33666666666667,63.16833333333334,61.0,86.0
195,63.13666666666667,63.546666666666674,58.0,86.0
196,62.73666666666667,64.07833333333333,49.0,81.0
197,63.93666666666667,64.46000000000001,61.0,83.0
198,63.53666666666667,64.52666666666667,54.0,87.0
199,64.73666666666666,64.77333333333334,54.0,72.0
200,64.33666666666667,65.02833333333334,49.0,69.0
201,64.73666666666666,65.17333333333333,58.0,87.0
202,62.33666666666667,65.29,42.0,87.0
203,65.13666666666667,65.325,54.0,84.0
204,64.73666666666666,65.36666666666667,61.0,87.0
205,65.53666666666668,66.33,63.0,86.0
206,66.33666666666667,66.84,58.0,81.0
207,66.73666666666666,67.04833333333333,63.0,87.0
208,65.93666666666667,67.40666666666667,46.0,75.0
209,67.13666666666667,67.71000000000001,58.0,83.0
210,67.13666666666667,67.93,66.0,87.0
211,67.93666666666667,68.23,58.0,87.0
212,67.93666666666667,68.28333333333333,63.0,87.0
213,65.53666666666668,68.35166666666667,39.0,87.0
214,67.53666666666668,68.385,46.0,81.0
215,68.33666666666667,68.46666666666667,61.0,90.0
216,68.73666666666666,69.26166666666667,56.0,77.0
217,68.73666666666666,69.55333333333334,59.0,82.0
218,69.53666666666668,69.94833333333334,56.0,90.0
219,69.93666666666667,70.26333333333334,58.0,89.0
220,69.13666666666667,70.45833333333334,51.0,78.0
221,70.33666666666667,70.96000000000001,59.0,88.0
222,70.73666666666666,71.25,51.0,70.0
223,68.73666666666666,71.33833333333334,44.0,87.0
224,71.13666666666667,71.40166666666667,63.0,90.0
225,71.13666666666667,71.46000000000001,56.0,82.0
226,71.93666666666667,72.75333333333334,61.0,88.0
227,72.33666666666667,73.03500000000001,44.0,75.0
228,71.93666666666667,73.19666666666667,37.0,88.0
229,72.73666666666666,73.38333333333334,56.0,92.0
230,73.53666666666668,74.00666666666667,59.0,79.0
231,73.53666666666668,74.38000000000001,65.0,78.0
232,73.53666666666668,74.58833333333334,37.0,89.0
233,74.33666666666667,74.59333333333333,59.0,90.0
234,73.93666666666667,74.66333333333334,56.0,86.0
235,75.13666666666667,75.59666666666668,54.0,81.0
236,75.13666666666667,75.70166666666667,61.0,83.0
237,75.93666666666667,76.76333333333334,54.0,89.0
238,76.33666666666667,76.83,61.0,85.0
239,77.13666666666667,77.37666666666667,54.0,85.0
240,76.73666666666666,77.405,66.0,86.0
241,75.53666666666668,77.65333333333334,49.0,82.0
242,75.13666666666667,77.685,42.0,83.0
243,77.53666666666668,78.105,61.0,88.0
244,77.53666666666668,78.13666666666667,54.0,89.0
245,77.93666666666667,78.24000000000001,42.0,87.0
246,78.33666666666667,79.20333333333333,59.0,86.0
247,79.13666666666667,79.56500000000001,56.0,85.0
248,79.53666666666668,79.84666666666668,52.0,91.0
249,79.93666666666667,79.99333333333334,52.0,75.0
250,78.33666666666667,80.03166666666667,40.0,88.0
251,78.73666666666668,80.04333333333334,47.0,83.0
252,79.93666666666667,80.31833333333334,64.0,83.0
253,79.93666666666667,80.355,56.0,88.0
254,79.93666666666667,80.36500000000001,59.0,86.0
255,80.73666666666668,80.90333333333334,52.0,87.0
256,80.33666666666667,81.13333333333334,47.0,81.0
257,80.73666666666668,81.14666666666668,59.0,86.0
258,80.73666666666668,81.16833333333334,56.0,85.0
259,81.13666666666667,81.25500000000001,52.0,91.0
260,81.53666666666668,82.07666666666667,54.0,86.0
261,81.53666666666668,82.24166666666667,51.0,87.0
262,82.33666666666667,82.65,54.0,87.0
263,82.33666666666667,82.71000000000001,58.0,87.0
264,81.93666666666667,82.86333333333334,46.0,64.0
265,81.53666666666668,83.14,39.0,89.0
266,83.13666666666667,83.61333333333334,58.0,85.0
267,83.53666666666668,83.79166666666667,51.0,83.0
268,83.93666666666667,84.46666666666667,54.0,90.0
269,84.33666666666667,84.57666666666667,39.0,90.0
270,84.73666666666668,85.32666666666667,52.0,81.0
271,84.73666666666668,85.35666666666667,49.0,82.0
272,85.13666666666667,85.62666666666667,44.0,76.0
273,84.73666666666668,85.65666666666667,37.0,90.0
274,85.53666666666668,86.31666666666668,52.0,91.0
275,86.33666666666667,86.76,54.0,87.0
276,86.73666666666668,87.19500000000001,56.0,91.0
277,87.13666666666667,87.53333333333335,58.0,90.0
278,87.13666666666667,87.69666666666667,49.0,82.0
279,86.33666666666667,87.775,42.0,87.0
280,87.53666666666668,87.87,61.0,87.0
281,87.93666666666667,88.42,54.0,84.0
282,87.93666666666667,88.60833333333333,59.0,88.0
283,88.73666666666668,88.99166666666667,59.0,93.0
284,88.33666666666667,89.25,51.0,84.0
285,89.13666666666667,89.325,61.0,93.0
286,87.93666666666667,89.34666666666668,47.0,88.0
287,89.53666666666668,89.74333333333334,54.0,87.0
288,89.53666666666668,90.14666666666668,63.0,90.0
289,89.93666666666667,90.24000000000001,54.0,88.0
290,90.33666666666667,90.50666666666667,54.0,87.0
291,90.33666666666667,90.70166666666667,57.0,89.0
292,89.53666666666668,90.81333333333333,47.0,92.0
293,90.73666666666668,90.87333333333333,54.0,77.0
294,90.33666666666667,90.91166666666668,63.0,91.0
295,91.13666666666667,91.98833333333334,51.0,83.0
296,91.53666666666668,92.15833333333335,46.0,88.0
297,91.13666666666667,92.31500000000001,39.0,87.0
298,91.93666666666667,92.31666666666668,56.0,103.0
299,92.33666666666667,92.55333333333334,51.0,94.0
300,92.73666666666668,93.01,49.0,93.0
301,92.73666666666668,93.20500000000001,55.0,87.0
302,93.13666666666667,93.64166666666667,46.0,77.0
303,92.73666666666668,93.68666666666667,39.0,93.0
304,93.53666666666668,93.74666666666667,51.0,91.0
305,93.53666666666668,93.75500000000001,55.0,90.0
306,93.53666666666668,93.80166666666668,58.0,89.0
307,94.33666666666667,94.69000000000001,44.0,89.0
308,94.33666666666667,94.69833333333334,56.0,88.0
309,94.33666666666667,95.08333333333334,59.0,92.0
310,95.13666666666667,95.28333333333335,42.0,87.0
311,95.13666666666667,95.33666666666667,58.0,87.0
312,95.13666666666667,95.34666666666668,54.0,86.0
313,95.93666666666667,96.83500000000001,56.0,83.0
314,95.93666666666667,96.83833333333334,53.0,79.0
315,95.93666666666667,96.905,41.0,82.0
316,95.93666666666667,96.97166666666668,59.0,83.0
317,97.53666666666668,98.34,56.0,83.0
318,98.33666666666667,98.80000000000001,52.0,86.0
319,98.73666666666668,99.33666666666667,49.0,92.0
320,99.13666666666667,99.59,53.0,87.0
321,99.53666666666668,100.00666666666667,49.0,90.0
322,97.93666666666667,100.18333333333334,44.0,78.0
323,97.53666666666668,100.19666666666667,37.0,88.0
324,99.93666666666667,100.34833333333334,53.0,90.0
325,100.33666666666667,100.46166666666667,49.0,88.0
326,99.93666666666667,100.46833333333333,56.0,89.0
327,100.73666666666668,101.03,58.0,59.0
328,100.73666666666668,101.31166666666667,54.0,74.0
329,100.73666666666668,101.33666666666667,59.0,71.0
330,101.53666666666668,101.775,54.0,89.0
331,101.13666666666667,102.10666666666667,49.0,89.0
332,100.73666666666668,102.12833333333334,42.0,86.0
333,101.93666666666667,102.21833333333333,54.0,88.0
334,101.93666666666667,102.33666666666667,59.0,89.0
335,102.33666666666667,102.96333333333334,58.0,88.0
336,102.33666666666667,103.01833333333335,54.0,87.0
337,103.13666666666667,103.33666666666667,54.0,87.0
338,102.33666666666667,103.71666666666667,42.0,88.0
339,102.73666666666668,103.72666666666667,49.0,86.0
340,103.13666666666667,103.83666666666667,58.0,89.0
341,103.13666666666667,103.85166666666667,61.0,87.0
342,103.53666666666668,103.855,54.0,90.0
343,103.13666666666667,103.87833333333334,66.0,83.0
344,103.93666666666667,104.80333333333334,59.0,86.0
345,104.73666666666668,105.165,56.0,85.0
346,105.13666666666667,105.44666666666667,52.0,91.0
347,105.53666666666668,105.59333333333333,52.0,75.0
348,103.93666666666667,105.63166666666667,40.0,88.0
349,104.33666666666667,105.64333333333335,47.0,83.0
350,105.53666666666668,105.91833333333334,64.0,83.0
351,105.53666666666668,105.95500000000001,56.0,88.0
352,105.53666666666668,105.965,59.0,86.0
353,106.33666666666667,106.50333333333334,52.0,87.0
354,105.93666666666667,106.73333333333333,47.0,81.0
355,106.33666666666667,106.74666666666667,59.0,86.0
356,106.33666666666667,106.76833333333335,56.0,85.0
357,106.73666666666668,106.855,52.0,91.0
358,107.13666666666667,107.67666666666668,54.0,86.0
359,107.13666666666667,107.84166666666667,51.0,87.0
360,107.93666666666667,108.25,54.0,87.0
361,107.93666666666667,108.31,58.0,87.0
362,107.53666666666668,108.46333333333334,46.0,64.0
363,107.13666666666667,108.74000000000001,39.0,89.0
364,108.73666666666668,109.21333333333334,58.0,85.0
365,109.13666666666667,109.39166666666668,51.0,83.0
366,109.53666666666668,110.06666666666668,54.0,90.0
367,109.93666666666667,110.17666666666668,39.0,90.0
368,110.33666666666667,110.92666666666668,52.0,81.0
369,110.33666666666667,110.95666666666668,49.0,82.0
370,110.73666666666668,111.22666666666667,44.0,76.0
371,110.33666666666667,111.25666666666667,37.0,90.0
372,111.13666666666667,111.91666666666667,52.0,91.0
373,111.93666666666667,112.36000000000001,54.0,87.0
374,112.33666666666667,112.795,56.0,91.0
375,112.73666666666668,113.13333333333334,58.0,90.0
376,112.73666666666668,113.29666666666667,49.0,82.0
377,111.93666666666667,113.37500000000001,42.0,87.0
378,113.13666666666667,113.47000000000001,61.0,87.0
379,113.53666666666668,114.02000000000001,54.0,84.0
380,113.53666666666668,114.20833333333334,59.0,88.0
381,114.33666666666667,114.59166666666667,59.0,93.0
382,113.93666666666667,114.85000000000001,51.0,84.0
383,114.73666666666668,114.92500000000001,61.0,93.0
384,113.53666666666668,114.94666666666667,47.0,88.0
385,115.13666666666667,115.34333333333333,54.0,87.0
386,115.13666666666667,115.74666666666667,63.0,90.0
387,115.53666666666668,115.84,54.0,88.0
388,115.93666666666667,116.10666666666667,54.0,87.0
389,115.93666666666667,116.30166666666668,57.0,89.0
390,115.13666666666667,116.41333333333334,47.0,92.0
391,116.33666666666667,116.47333333333334,54.0,77.0
392,115.93666666666667,116.51166666666667,63.0,91.0
393,116.73666666666668,117.58833333333334,51.0,83.0
394,117.13666666666667,117.75833333333334,46.0,88.0
395,116.73666666666668,117.915,39.0,87.0
396,117.53666666666668,117.91666666666667,56.0,103.0
397,117.93666666666667,118.15333333333334,51.0,94.0
398,118.33666666666667,118.61000000000001,49.0,93.0
399,118.33666666666667,118.805,55.0,87.0
400,118.73666666666668,119.24166666666667,46.0,77.0
401,118.33666666666667,119.28666666666668,39.0,93.0
402,119.13666666666667,119.34666666666668,51.0,91.0
403,119.13666666666667,119.355,55.0,90.0
404,119.13666666666667,119.40166666666667,58.0,89.0
405,119.93666666666667,120.29,44.0,89.0
406,119.93666666666667,120.29833333333335,56.0,88.0
407,119.93666666666667,120.68333333333334,59.0,92.0
408,120.73666666666668,120.88333333333334,42.0,87.0
409,120.73666666666668,120.93666666666667,58.0,87.0
410,120.73666666666668,120.94666666666667,54.0,86.0
411,121.53666666666668,122.435,56.0,83.0
412,121.53666666666668,122.43833333333335,53.0,79.0
413,121.53666666666668,122.50500000000001,41.0,82.0
414,121.53666666666668,122.57166666666667,59.0,83.0
415,123.53666666666668,124.09666666666668,44.0,76.0
416,123.13666666666667,124.11166666666668,37.0,88.0
417,123.13666666666667,124.39833333333334,64.0,87.0
418,123.93666666666668,124.84,56.0,91.0
419,124.33666666666667,124.86666666666667,61.0,87.0
420,124.73666666666668,125.275,64.0,80.0
421,125.53666666666668,125.89833333333334,61.0,87.0
422,125.13666666666667,125.99666666666667,49.0,80.0
423,124.73666666666668,126.06666666666668,42.0,86.0
424,126.33666666666667,126.61833333333334,54.0,77.0
425,126.33666666666667,127.17333333333335,63.0,85.0
426,126.73666666666668,127.215,54.0,81.0
427,127.13666666666667,127.92333333333335,61.0,84.0
428,127.53666666666668,127.98500000000001,54.0,88.0
429,127.93666666666668,128.37,59.0,81.0
430,128.33666666666667,128.47333333333333,54.0,74.0
431,128.73666666666668,128.89833333333334,54.0,88.0
432,126.33666666666667,129.08666666666667,47.0,83.0
433,128.73666666666668,129.12333333333333,63.0,87.0
434,129.53666666666666,130.425,56.0,83.0
435,130.73666666666668,131.67333333333335,59.0,85.0
436,130.33666666666667,131.675,52.0,87.0
437,131.53666666666666,131.985,56.0,77.0
438,129.93666666666667,132.31166666666667,47.0,82.0
439,129.53666666666666,132.33666666666667,40.0,86.0
440,131.93666666666667,132.36,59.0,82.0
441,132.33666666666667,132.66333333333336,52.0,87.0
442,133.53666666666666,134.05666666666667,54.0,88.0
443,132.73666666666668,134.145,58.0,83.0
444,133.93666666666667,134.47,51.0,83.0
445,134.33666666666667,134.79666666666668,58.0,86.0
446,134.73666666666668,135.035,51.0,89.0
447,133.13666666666668,135.24833333333333,46.0,80.0
448,132.73666666666668,135.60333333333335,39.0,88.0
449,135.13666666666668,135.6316666666667,54.0,94.0
450,135.53666666666666,135.69833333333335,46.0,89.0
451,135.93666666666667,136.68333333333334,64.0,85.0
452,136.33666666666667,136.96666666666667,44.0,86.0
453,135.93666666666667,137.005,37.0,89.0
454,136.73666666666668,137.16500000000002,61.0,94.0
455,137.13666666666668,137.51833333333335,56.0,82.0
456,137.53666666666666,138.34,61.0,83.0
457,138.33666666666667,138.81666666666666,54.0,94.0
458,137.93666666666667,138.94333333333336,49.0,84.0
459,137.53666666666666,138.96666666666667,42.0,87.0
460,138.73666666666668,139.04500000000002,61.0,87.0
461,139.13666666666668,140.03166666666667,63.0,90.0
462,139.93666666666667,140.595,54.0,92.0
463,139.13666666666668,140.66500000000002,47.0,91.0
464,139.53666666666666,140.68166666666667,51.0,69.0
465,140.33666666666667,140.70333333333335,61.0,88.0
466,140.73666666666668,141.24833333333333,59.0,88.0
467,140.73666666666668,141.25166666666667,54.0,88.0
468,141.13666666666668,141.71333333333334,47.0,86.0
469,141.53666666666666,141.745,54.0,90.0
470,141.53666666666666,142.05666666666667,63.0,93.0
471,141.53666666666666,142.07000000000002,59.0,94.0
472,141.93666666666667,142.17333333333335,54.0,93.0
473,142.33666666666667,142.87166666666667,52.0,88.0
474,142.33666666666667,143.175,56.0,87.0
475,143.53666666666666,144.20166666666668,56.0,88.0
476,142.73666666666668,144.27666666666667,47.0,89.0
477,143.13666666666668,144.31,59.0,89.0
478,143.93666666666667,144.45333333333335,63.0,75.0
479,144.33666666666667,144.81333333333333,47.0,83.0
480,144.73666666666668,145.07833333333335,56.0,85.0
481,144.73666666666668,145.1016666666667,59.0,88.0
482,142.33666666666667,145.22333333333333,40.0,88.0
483,144.73666666666668,145.275,63.0,89.0
484,145.13666666666668,145.315,47.0,85.0
485,145.5366666666667,145.96833333333333,58.0,82.0
486,145.93666666666667,146.40445718333334,59.0,101.0
487,146.33752293333333,146.78096233958334,61.0,88.0
488,145.5366666666667,146.79769590208335,39.0,89.0
489,146.33752293333333,146.84956994583334,46.0,80.0
490,146.73912843333335,147.79668958333335,63.0,98.0
491,147.54233943333332,148.11295391458333,49.0,88.0
492,147.14073393333334,148.17654145208334,42.0,88.0
493,147.94394493333334,148.18323487708332,54.0,88.0
494,147.94394493333334,148.43925838333334,58.0,89.0
495,148.34555043333333,148.54969989583333,54.0,93.0
496,148.74715593333335,149.40143822708333,56.0,82.0
497,148.74715593333335,149.44661884583334,61.0,87.0
498,149.55036693333332,149.73276276458333,56.0,84.0
499,149.14876143333333,149.86663126458333,44.0,77.0
500,148.74715593333335,149.94193229583334,37.0,90.0
501,149.55036693333332,150.01388661458333,64.0,88.0
502,149.55036693333332,150.02727346458335,61.0,87.0
503,149.95197243333334,150.39541183958335,56.0,87.0
504,150.35357793333333,150.93423255208333,61.0,88.0
505,151.15678893333333,151.38771209583334,59.0,96.0
506,150.75518343333334,151.64708231458334,49.0,87.0
507,150.35357793333333,151.68724286458334,42.0,87.0
508,151.55839443333335,151.86796533958332,58.0,89.0
509,151.95999993333334,152.85189881458334,59.0,87.0
510,152.76321093333334,153.20330362708333,61.0,82.0
511,152.36160543333332,153.27860465833334,51.0,73.0
512,151.95999993333334,153.33215205833335,47.0,87.0
513,153.16481643333333,153.56642193333334,63.0,83.0
514,153.56642193333334,154.19727723958334,54.0,77.0
515,153.56642193333334,154.20731737708334,59.0,78.0
516,154.77123843333334,155.17284393333333,54.0,78.0
517,154.36963293333332,155.17451728958332,59.0,75.0
518,154.36963293333332,155.17619064583334,63.0,83.0
519,153.56642193333334,155.22137126458333,47.0,82.0
520,155.17284393333333,155.22137126458333,47.0,88.0
521,155.57444943333334,156.19515183958333,54.0,77.0
522,155.97515183958333,156.77848517291667,61.0,82.0
523,156.37515183958334,156.94848517291666,54.0,70.0
524,157.17515183958335,157.52848517291667,54.0,62.0
525,156.77515183958334,157.58515183958335,63.0,83.0
526,157.57515183958333,157.78015183958334,59.0,83.0
527,158.77515183958334,159.26015183958333,52.0,80.0
528,159.17515183958335,159.41515183958333,63.0,89.0
529,159.57515183958333,159.89515183958335,64.0,74.0
530,159.97515183958333,160.14848517291668,59.0,75.0
531,160.37515183958334,160.85681850625,47.0,61.0
532,160.77515183958334,161.15015183958334,52.0,81.0
533,160.77515183958334,161.17181850625002,56.0,81.0
534,158.37515183958334,161.28515183958334,40.0,87.0
535,161.17515183958335,161.44681850625,47.0,82.0
536,161.57515183958333,161.60848517291666,51.0,77.0
537,161.57515183958333,161.80515183958335,56.0,69.0
538,161.57515183958333,162.42681850625002,61.0,80.0
539,161.97515183958333,162.43015183958335,56.0,83.0
540,161.57515183958333,162.59015183958334,49.0,76.0
541,162.37515183958334,163.24681850625,64.0,86.0
542,163.17515183958335,164.03515183958334,61.0,83.0
543,163.97515183958333,164.41848517291666,54.0,93.0
544,163.57515183958333,164.50681850625,49.0,82.0
545,163.17515183958335,164.61181850625002,42.0,86.0
546,164.37515183958334,164.78848517291667,61.0,87.0
547,164.77515183958334,164.95181850625,54.0,74.0
548,164.77515183958334,165.58348517291668,59.0,74.0
549,165.17515183958335,165.61848517291668,54.0,74.0
550,164.77515183958334,165.87015183958334,47.0,81.0
551,165.57515183958333,166.02848517291667,61.0,85.0
552,165.97515183958333,166.13681850625,59.0,79.0
553,166.37515183958334,166.8284851729167,52.0,75.0
554,166.37515183958334,166.89348517291668,40.0,82.0
555,166.37515183958334,167.15681850625,56.0,73.0
556,167.17515183958335,167.61515183958335,54.0,82.0
557,167.17515183958335,167.61848517291668,58.0,87.0
558,167.17515183958335,167.81848517291667,42.0,84.0
559,167.57515183958333,167.83681850625,49.0,77.0
560,167.97515183958333,168.83015183958335,59.0,79.0
561,168.77515183958334,169.25848517291666,61.0,86.0
562,169.17515183958335,169.68181850625,54.0,75.0
563,169.97515183958333,170.25515183958333,54.0,73.0
564,169.57515183958333,170.32181850625,63.0,85.0
565,170.37515183958334,170.75681850625,59.0,84.0
566,170.37515183958334,170.84348517291667,54.0,85.0
567,168.37515183958334,170.96181850625,51.0,76.0
568,167.97515183958333,170.97348517291667,47.0,83.0
569,171.17515183958335,171.70181850625,56.0,76.0
570,171.17515183958335,172.02015183958335,59.0,80.0
571,171.57515183958333,172.13515183958333,51.0,81.0
572,171.17515183958335,172.16015183958334,44.0,87.0
573,171.97515183958333,172.31181850625,56.0,92.0
574,172.77515183958334,173.63348517291666,59.0,81.0
575,172.77515183958334,173.91681850625,40.0,87.0
576,173.17515183958335,173.95515183958335,47.0,81.0
577,173.57515183958333,173.96181850625,52.0,93.0
578,173.97515183958333,174.14181850625002,59.0,87.0
579,174.37515183958334,174.62015183958334,56.0,78.0
580,174.37515183958334,175.06348517291667,61.0,81.0
581,174.77515183958334,175.27015183958335,56.0,82.0
582,174.37515183958334,175.40015183958334,49.0,86.0
583,175.17515183958335,175.51515183958332,64.0,81.0
584,175.97515183958333,176.43348517291668,58.0,81.0
585,176.37515183958334,176.89515183958335,54.0,84.0
586,176.77515183958334,177.15681850625,61.0,86.0
587,175.97515183958333,177.37348517291667,42.0,86.0
588,177.57515183958333,178.38348517291666,47.0,83.0
589,177.57515183958333,178.42681850625002,63.0,89.0
590,177.97515183958333,178.46515183958334,54.0,84.0
591,178.37515183958334,178.6684851729167,59.0,83.0
592,179.17515183958335,179.40015183958334,37.0,87.0
593,179.17515183958335,179.42848517291668,56.0,78.0
594,179.17515183958335,179.43681850625,61.0,82.0
595,179.97515183958333,180.74848517291667,62.0,80.0
596,179.97515183958333,180.75181850625,65.0,79.0
597,179.97515183958333,180.76181850625,38.0,79.0
598,180.77515183958334,181.33515183958335,58.0,82.0
599,180.77515183958334,181.64515183958335,63.0,87.0
600,181.57515183958333,182.37348517291667,58.0,93.0
601,181.97515183958333,182.42015183958335,63.0,89.0
602,182.77515183958334,182.99015183958335,58.0,79.0
603,182.37515183958334,183.04181850625,66.0,88.0
604,181.17515183958335,183.32515183958333,46.0,67.0
605,183.17515183958335,183.33515183958335,63.0,88.0
606,180.77515183958334,183.35015183958333,39.0,88.0
607,183.17515183958335,183.36015183958335,58.0,89.0
608,183.97515183958333,184.51348517291666,56.0,78.0
609,183.97515183958333,184.55515183958335,59.0,83.0
610,184.77515183958334,185.01015183958333,58.0,82.0
611,185.17515183958335,185.46681850625,59.0,88.0
612,184.37515183958334,185.72848517291666,51.0,82.0
613,185.57515183958333,185.96681850625,63.0,88.0
614,185.57515183958333,186.03848517291667,56.0,83.0
615,186.37515183958334,186.54181850625,56.0,83.0
616,186.37515183958334,186.56848517291667,59.0,88.0
617,185.97515183958333,186.64348517291668,51.0,86.0
618,183.97515183958333,186.64848517291668,44.0,87.0
619,186.77515183958334,187.27515183958334,56.0,84.0
620,187.17515183958335,187.99848517291667,64.0,87.0
621,187.57515183958333,188.10181850625,44.0,60.0
622,187.17515183958335,188.16515183958333,37.0,88.0
623,187.97515183958333,188.43015183958335,61.0,86.0
624,188.37515183958334,188.86515183958335,56.0,89.0
625,188.77515183958334,189.31848517291667,61.0,83.0
626,189.17515183958335,189.43681850625,56.0,81.0
627,188.77515183958334,189.64681850625,49.0,87.0
628,189.57515183958333,189.78015183958334,56.0,88.0
629,189.57515183958333,190.05015183958335,64.0,85.0
630,190.37515183958334,191.19681850625,54.0,83.0
631,190.37515183958334,191.20681850625002,61.0,86.0
632,191.17515183958335,191.58515183958335,58.0,86.0
633,190.77515183958334,192.11681850625,49.0,81.0
634,191.97515183958333,192.49848517291667,61.0,83.0
635,191.57515183958333,192.56515183958334,54.0,87.0
636,192.77515183958334,192.81181850625,54.0,72.0
637,192.37515183958334,193.06681850625,49.0,69.0
638,192.77515183958334,193.21181850625,58.0,87.0
639,190.37515183958334,193.32848517291666,42.0,87.0
640,193.17515183958335,193.36348517291668,54.0,84.0
641,192.77515183958334,193.40515183958334,61.0,87.0
642,193.57515183958333,194.36848517291668,63.0,86.0
643,194.37515183958334,194.87848517291667,58.0,81.0
644,194.77515183958334,195.08681850625,63.0,87.0
645,193.97515183958333,195.44515183958333,46.0,75.0
646,195.17515183958335,195.74848517291667,58.0,83.0
647,195.17515183958335,195.96848517291667,66.0,87.0
648,195.97515183958333,196.26848517291668,58.0,87.0
649,195.97515183958333,196.32181850625,63.0,87.0
650,193.57515183958333,196.39015183958332,39.0,87.0
651,195.57515183958333,196.42348517291668,46.0,81.0
652,196.37515183958334,196.50515183958333,61.0,90.0
653,196.77515183958334,197.30015183958335,56.0,77.0
654,196.77515183958334,197.59181850625,59.0,82.0
655,197.57515183958333,197.98681850625002,56.0,90.0
656,197.97515183958333,198.30181850625002,58.0,89.0
657,197.17515183958335,198.49681850625,51.0,78.0
658,198.37515183958334,198.99848517291667,59.0,88.0
659,198.77515183958334,199.28848517291667,51.0,70.0
660,196.77515183958334,199.37681850625,44.0,87.0
661,199.17515183958335,199.44015183958334,63.0,90.0
662,199.17515183958335,199.49848517291667,56.0,82.0
663,199.97515183958333,200.79181850625002,61.0,88.0
664,200.37515183958334,201.07348517291666,44.0,75.0
665,199.97515183958333,201.23515183958335,37.0,88.0
666,200.77515183958334,201.42181850625002,56.0,92.0
667,201.57515183958333,202.04515183958335,59.0,79.0
668,201.57515183958333,202.4184851729167,65.0,78.0
669,201.57515183958333,202.62681850625,37.0,89.0
670,202.37515183958334,202.63181850625,59.0,90.0
671,201.97515183958333,202.70181850625,56.0,86.0
672,203.17515183958335,203.63515183958333,54.0,81.0
673,203.17515183958335,203.74015183958335,61.0,83.0
674,203.97515183958333,204.80181850625002,54.0,89.0
675,204.37515183958334,204.86848517291668,61.0,85.0
676,205.17515183958335,205.41515183958336,54.0,85.0
677,204.77515183958334,205.44348517291667,66.0,86.0
678,203.57515183958333,205.69181850625,49.0,82.0
679,203.17515183958335,205.72348517291667,42.0,83.0
680,205.57515183958333,206.14348517291668,61.0,88.0
681,205.57515183958333,206.17515183958335,54.0,89.0
682,205.97515183958333,206.27848517291667,42.0,87.0
683,206.37515183958334,207.24181850625,59.0,86.0
684,207.17515183958335,207.6034851729167,56.0,85.0
685,207.57515183958333,207.88515183958333,52.0,91.0
686,207.97515183958333,208.03181850625,52.0,75.0
687,206.37515183958334,208.07015183958333,40.0,88.0
688,206.77515183958334,208.08181850625002,47.0,83.0
689,207.97515183958333,208.35681850625002,64.0,83.0
690,207.97515183958333,208.39348517291668,56.0,88.0
691,207.97515183958333,208.40348517291667,59.0,86.0
692,208.77515183958334,208.94181850625,52.0,87.0
693,208.37515183958334,209.17181850625002,47.0,81.0
694,208.77515183958334,209.18515183958334,59.0,86.0
695,208.77515183958334,209.20681850625002,56.0,85.0
696,209.17515183958335,209.2934851729167,52.0,91.0
697,209.57515183958333,210.11515183958335,54.0,86.0
698,209.57515183958333,210.28015183958334,51.0,87.0
699,210.37515183958334,210.68848517291667,54.0,87.0
700,210.37515183958334,210.74848517291667,58.0,87.0
701,209.97515183958333,210.90181850625,46.0,64.0
702,209.57515183958333,211.17848517291668,39.0,89.0
703,211.17515183958335,211.65181850625,58.0,85.0
704,211.57515183958333,211.83015183958335,51.0,83.0
705,211.97515183958333,212.50515183958333,54.0,90.0
706,212.37515183958334,212.61515183958335,39.0,90.0
707,212.77515183958334,213.36515183958335,52.0,81.0
708,212.77515183958334,213.39515183958335,49.0,82.0
709,213.17515183958335,213.66515183958336,44.0,76.0
710,212.77515183958334,213.69515183958333,37.0,90.0
711,213.57515183958333,214.35515183958336,52.0,91.0
712,214.37515183958334,214.79848517291668,54.0,87.0
713,214.77515183958334,215.2334851729167,56.0,91.0
714,215.17515183958335,215.57181850625,58.0,90.0
715,215.17515183958335,215.73515183958335,49.0,82.0
716,214.37515183958334,215.81348517291667,42.0,87.0
717,215.57515183958333,215.90848517291667,61.0,87.0
718,215.97515183958333,216.45848517291668,54.0,84.0
719,215.97515183958333,216.64681850625,59.0,88.0
720,216.77515183958334,217.03015183958334,59.0,93.0
721,216.37515183958334,217.28848517291667,51.0,84.0
722,217.17515183958335,217.36348517291668,61.0,93.0
723,215.97515183958333,217.38515183958333,47.0,88.0
724,217.57515183958333,217.78181850625,54.0,87.0
725,217.57515183958333,218.18515183958334,63.0,90.0
726,217.97515183958333,218.27848517291667,54.0,88.0
727,218.37515183958334,218.54515183958335,54.0,87.0
728,218.37515183958334,218.74015183958335,57.0,89.0
729,217.57515183958333,218.85181850625003,47.0,92.0
730,218.77515183958334,218.91181850625,54.0,77.0
731,218.37515183958334,218.95015183958333,63.0,91.0
732,219.17515183958335,220.02681850625,51.0,83.0
733,219.57515183958333,220.19681850625,46.0,88.0
734,219.17515183958335,220.3534851729167,39.0,87.0
735,219.97515183958336,220.35515183958336,56.0,103.0
736,220.37515183958334,220.59181850625,51.0,94.0
737,220.77515183958334,221.04848517291668,49.0,93.0
738,220.77515183958334,221.24348517291668,55.0,87.0
739,221.17515183958335,221.68015183958335,46.0,77.0
740,220.77515183958334,221.72515183958336,39.0,93.0
741,221.57515183958333,221.78515183958336,51.0,91.0
742,221.57515183958333,221.7934851729167,55.0,90.0
743,221.57515183958333,221.84015183958334,58.0,89.0
744,222.37515183958334,222.7284851729167,44.0,89.0
745,222.37515183958334,222.73681850625002,56.0,88.0
746,222.37515183958334,223.12181850625,59.0,92.0
747,223.17515183958335,223.32181850625,42.0,87.0
748,223.17515183958335,223.37515183958334,58.0,87.0
749,223.17515183958335,223.38515183958333,54.0,86.0
750,223.97515183958336,224.87348517291667,56.0,83.0
751,223.97515183958336,224.87681850625,53.0,79.0
752,223.97515183958336,224.94348517291667,41.0,82.0
753,223.97515183958336,225.01015183958333,59.0,83.0
754,225.57515183958333,226.37848517291667,56.0,83.0
755,226.37515183958334,226.83848517291668,52.0,86.0
756,226.77515183958334,227.37515183958334,49.0,92.0
757,227.17515183958335,227.62848517291667,53.0,87.0
758,227.57515183958333,228.04515183958335,49.0,90.0
759,225.97515183958336,228.22181850625003,44.0,78.0
760,225.57515183958333,228.23515183958335,37.0,88.0
761,227.97515183958336,228.38681850625,53.0,90.0
762,228.37515183958334,228.50015183958334,49.0,88.0
763,227.97515183958336,228.50681850625,56.0,89.0
764,228.77515183958334,229.06848517291667,58.0,59.0
765,228.77515183958334,229.35015183958336,54.0,74.0
766,228.77515183958334,229.37515183958334,59.0,71.0
767,229.57515183958333,229.81348517291667,54.0,89.0
768,229.17515183958335,230.14515183958335,49.0,89.0
769,228.77515183958334,230.16681850625002,42.0,86.0
770,229.97515183958336,230.25681850625,54.0,88.0
771,229.97515183958336,230.37515183958334,59.0,89.0
772,230.37515183958334,231.00181850625,58.0,88.0
773,230.37515183958334,231.05681850625,54.0,87.0
774,231.17515183958335,231.37515183958334,54.0,87.0
775,230.37515183958334,231.75515183958333,42.0,88.0
776,230.77515183958334,231.76515183958332,49.0,86.0
777,231.17515183958335,231.87515183958334,58.0,89.0
778,231.17515183958335,231.89015183958332,61.0,87.0
779,231.57515183958333,231.89348517291668,54.0,90.0
780,231.17515183958335,231.91681850625002,66.0,83.0
781,231.97515183958336,232.84181850625,59.0,86.0
782,232.77515183958334,233.20348517291666,56.0,85.0
783,233.17515183958335,233.48515183958335,52.0,91.0
784,233.57515183958333,233.63181850625,52.0,75.0
785,231.97515183958336,233.67015183958335,40.0,88.0
786,232.37515183958334,233.68181850625,47.0,83.0
787,233.57515183958333,233.95681850625002,64.0,83.0
788,233.57515183958333,233.99348517291668,56.0,88.0
789,233.57515183958333,234.00348517291667,59.0,86.0
790,234.37515183958334,234.54181850625002,52.0,87.0
791,233.97515183958336,234.77181850625,47.0,81.0
792,234.37515183958334,234.78515183958336,59.0,86.0
793,234.37515183958334,234.80681850625,56.0,85.0
794,234.77515183958334,234.89348517291668,52.0,91.0
795,235.17515183958335,235.71515183958334,54.0,86.0
796,235.17515183958335,235.88015183958333,51.0,87.0
797,235.97515183958336,236.2884851729167,54.0,87.0
798,235.97515183958336,236.3484851729167,58.0,87.0
799,235.57515183958333,236.50181850625,46.0,64.0
800,235.17515183958335,236.77848517291667,39.0,89.0
801,236.77515183958334,237.25181850625,58.0,85.0
802,237.17515183958335,237.43015183958335,51.0,83.0
803,237.57515183958333,238.10515183958336,54.0,90.0
804,237.97515183958336,238.21515183958334,39.0,90.0
805,238.37515183958334,238.96515183958334,52.0,81.0
806,238.37515183958334,238.99515183958334,49.0,82.0
807,238.77515183958334,239.26515183958332,44.0,76.0
808,238.37515183958334,239.29515183958335,37.0,90.0
809,239.17515183958335,239.95515183958335,52.0,91.0
810,239.97515183958336,240.39848517291668,54.0,87.0
811,240.37515183958334,240.83348517291668,56.0,91.0
812,240.77515183958334,241.17181850625002,58.0,90.0
813,240.77515183958334,241.33515183958335,49.0,82.0
814,239.97515183958336,241.4134851729167,42.0,87.0
815,241.17515183958335,241.50848517291666,61.0,87.0
816,241.57515183958333,242.05848517291668,54.0,84.0
817,241.57515183958333,242.24681850625,59.0,88.0
818,242.37515183958334,242.63015183958333,59.0,93.0
819,241.97515183958336,242.88848517291666,51.0,84.0
820,242.77515183958334,242.96348517291668,61.0,93.0
821,241.57515183958333,242.98515183958335,47.0,88.0
822,243.17515183958335,243.38181850625,54.0,87.0
823,243.17515183958335,243.78515183958336,63.0,90.0
824,243.57515183958333,243.87848517291667,54.0,88.0
825,243.97515183958336,244.14515183958335,54.0,87.0
826,243.97515183958336,244.34015183958334,57.0,89.0
827,243.17515183958335,244.45181850625,47.0,92.0
828,244.37515183958334,244.51181850625,54.0,77.0
829,243.97515183958336,244.55015183958335,63.0,91.0
830,244.77515183958334,245.62681850625,51.0,83.0
831,245.17515183958335,245.79681850625002,46.0,88.0
832,244.77515183958334,245.95348517291666,39.0,87.0
833,245.57515183958333,245.95515183958335,56.0,103.0
834,245.97515183958336,246.19181850625,51.0,94.0
835,246.37515183958334,246.64848517291668,49.0,93.0
836,246.37515183958334,246.84348517291667,55.0,87.0
837,246.77515183958334,247.28015183958334,46.0,77.0
838,246.37515183958334,247.32515183958333,39.0,93.0
839,247.17515183958335,247.38515183958333,51.0,91.0
840,247.17515183958335,247.39348517291668,55.0,90.0
841,247.17515183958335,247.44015183958334,58.0,89.0
842,247.97515183958336,248.32848517291666,44.0,89.0
843,247.97515183958336,248.33681850625,56.0,88.0
844,247.97515183958336,248.72181850625003,59.0,92.0
845,248.77515183958334,248.92181850625002,42.0,87.0
846,248.77515183958334,248.97515183958336,58.0,87.0
847,248.77515183958334,248.98515183958335,54.0,86.0
848,249.57515183958333,250.4734851729167,56.0,83.0
849,249.57515183958333,250.47681850625003,53.0,79.0
850,249.57515183958333,250.5434851729167,41.0,82.0
851,249.57515183958333,250.61015183958335,59.0,83.0
852,251.57515183958333,252.13515183958333,44.0,76.0
853,251.17515183958335,252.15015183958334,37.0,88.0
854,251.17515183958335,252.43681850625,64.0,87.0
855,251.97515183958336,252.87848517291667,56.0,91.0
856,252.37515183958334,252.90515183958334,61.0,87.0
857,252.77515183958334,253.31348517291667,64.0,80.0
858,253.57515183958333,253.93681850625,61.0,87.0
859,253.17515183958335,254.03515183958336,49.0,80.0
860,252.77515183958334,254.10515183958336,42.0,86.0
861,254.37515183958334,254.65681850625,54.0,77.0
862,254.37515183958334,255.21181850625,63.0,85.0
863,254.77515183958334,255.25348517291667,54.0,81.0
864,254.37515183958334,255.77515183958334,47.0,83.0
865,255.17515183958335,255.96181850625,61.0,84.0
866,255.57515183958333,256.0234851729167,54.0,88.0
867,255.84515183958337,256.0234851729167,54.0,76.0
868,255.94015183958334,257.3401518395833,35.0,76.0
869,255.89348517291668,257.34681850625003,59.0,79.0
870,255.9784851729167,257.35681850625,63.0,87.0
871,257.5801518395833,258.16181850625003,52.0,66.0
872,257.64681850625004,258.60015183958336,56.0,75.0
873,258.03015183958337,259.5484851729167,47.0,63.0
874,258.45348517291666,259.63181850625,52.0,78.0
875,258.88348517291666,259.6784851729167,59.0,75.0
876,258.88015183958333,259.7484851729167,56.0,78.0
877,259.72681850625,260.2984851729167,47.0,59.0
878,260.13681850625,260.36181850625,52.0,77.0
879,257.63181850625,260.48681850625,40.0,71.0
880,260.86681850625,261.43181850625,51.0,76.0
881,260.95181850625,261.71181850625,54.0,78.0
882,261.7651518395833,263.35015183958336,51.0,83.0
883,262.15181850625004,263.35515183958336,54.0,78.0
884,262.1784851729167,263.38681850625,58.0,80.0
885,261.36015183958335,263.49181850625,46.0,69.0
886,260.95848517291665,263.5751518395833,39.0,88.0
887,263.9184851729167,264.58181850625,56.0,66.0
888,264.01348517291666,264.93681850625,61.0,76.0
889,264.10515183958336,265.00181850625,64.0,83.0
890,264.07848517291666,265.28681850625003,37.0,88.0
891,264.49181850625,265.28681850625003,44.0,74.0
892,264.91015183958336,265.79181850625,56.0,94.0
893,265.36681850625,266.6184851729167,61.0,87.0
894,267.0801518395833,267.55015183958335,66.0,65.0
895,266.36181850625,267.56515183958334,49.0,87.0
896,265.81348517291667,267.60681850625,42.0,82.0
897,266.82348517291666,267.68515183958334,54.0,79.0
898,267.00015183958334,267.7484851729167,61.0,81.0
899,268.0334851729167,268.31348517291667,54.0,73.0
900,268.1134851729167,268.9134851729167,59.0,83.0
901,268.08681850625,269.83181850625,47.0,75.0
902,268.21348517291665,269.98515183958335,63.0,87.0
903,268.6634851729167,270.06515183958334,54.0,83.0
904,269.2701518395834,270.1634851729167,61.0,80.0
905,270.00681850625,270.26348517291666,59.0,81.0
906,272.24181850625,273.34181850625,59.0,71.0
907,272.38348517291666,273.34681850625003,71.0,62.0
908,272.00015183958334,273.36181850625,47.0,59.0
909,272.19015183958334,273.37848517291667,54.0,70.0
