,start,end,pitch,velocity
0,30.601660233333337,31.249964583333337,66.0,97.0
1,31.110134233333337,31.618608233333337,69.0,64.0
2,31.618608233333337,32.12708223333333,71.0,85.0
3,32.12708223333333,32.63343759166667,78.0,66.0
4,32.63555623333334,33.474538333333335,78.0,78.0
5,33.398267233333335,34.66945223333334,76.0,70.0
6,34.66945223333334,35.17792623333334,74.0,97.0
7,35.17792623333334,35.68640023333334,73.0,97.0
8,35.68640023333334,36.19487423333334,71.0,97.0
9,36.19487423333334,36.70334823333334,69.0,99.0
10,36.70334823333334,36.95758523333333,66.0,93.0
11,36.95758523333333,37.211822233333336,69.0,78.0
12,37.211822233333336,38.737244233333335,66.0,69.0
13,38.737244233333335,39.245718233333335,74.0,97.0
14,39.245718233333335,39.754192233333335,71.0,95.0
15,39.754192233333335,40.262666233333334,76.0,82.0
16,40.262666233333334,40.771140233333334,81.0,82.0
17,40.771140233333334,41.78808823333334,76.0,99.0
18,41.78808823333334,42.80291759166667,74.0,101.0
19,42.80503623333334,43.31351023333334,74.0,97.0
20,43.31351023333334,43.82198423333334,81.0,63.0
21,43.82198423333334,44.33045823333334,78.0,91.0
22,44.33045823333334,44.83893223333334,76.0,88.0
23,44.83893223333334,45.093169233333334,78.0,88.0
24,45.093169233333334,45.34740623333334,81.0,70.0
25,45.34740623333334,46.87070959166667,78.0,64.0
26,46.87282823333334,47.38130223333334,78.0,95.0
27,47.38130223333334,47.887657591666674,81.0,82.0
28,47.889776233333336,48.516894166666674,81.0,85.0
29,48.398250233333336,48.944859783333335,74.0,88.0
30,48.906724233333335,49.66943523333334,76.0,97.0
31,49.66943523333334,49.923672233333335,78.0,78.0
32,49.923672233333335,50.432146233333334,74.0,91.0
33,50.432146233333334,50.94062023333334,76.0,100.0
34,50.94062023333334,51.44909423333334,78.0,99.0
35,51.44909423333334,51.95756823333334,81.0,76.0
36,51.95756823333334,52.46604223333334,76.0,85.0
37,52.46604223333334,52.97451623333334,74.0,80.0
38,52.97451623333334,53.228753233333336,71.0,97.0
39,53.228753233333336,53.48299023333334,74.0,97.0
40,53.48299023333334,55.00841223333334,71.0,97.0
41,55.00841223333334,55.584682766666674,66.0,93.0
42,55.51688623333334,56.02536023333334,69.0,78.0
43,56.02536023333334,56.61646125833334,71.0,72.0
44,56.53383423333334,57.040189591666675,78.0,85.0
45,57.04230823333334,58.10374770833334,78.0,75.0
46,58.059256233333336,59.076204233333335,76.0,78.0
47,59.076204233333335,59.64611884166667,74.0,95.0
48,59.584678233333335,60.09315223333334,73.0,97.0
49,60.09315223333334,60.60162623333334,71.0,95.0
50,60.60162623333334,61.18425269166667,69.0,80.0
51,61.11010023333334,64.16094423333334,71.0,85.0
52,64.16094423333334,64.41518123333334,76.0,61.0
53,64.41518123333334,64.66941823333335,78.0,54.0
54,64.66941823333335,64.92365523333333,76.0,70.0
55,64.92365523333333,65.27111246666668,71.0,72.0
56,65.17789223333334,68.22661759166667,76.0,57.0
57,68.22873623333334,68.48297323333334,76.0,85.0
58,68.48297323333334,68.73721023333334,78.0,62.0
59,68.73721023333334,68.99144723333335,76.0,91.0
60,68.99144723333335,69.30076891666667,71.0,80.0
61,69.24568423333334,70.77110623333334,74.0,85.0
62,70.77110623333334,71.04864829166667,73.0,64.0
63,70.9829704,71.27110566666667,74.0,73.0
64,71.19483456666667,71.52534266666667,73.0,73.0
65,71.37915639166667,72.18000294166667,71.0,73.0
66,72.29652823333333,72.55076523333334,76.0,80.0
67,72.55076523333334,72.80500223333334,78.0,55.0
68,72.80500223333334,73.05923923333334,76.0,61.0
69,73.05923923333334,73.38762869166668,71.0,61.0
70,73.31347623333333,73.91517046666667,76.0,73.0
71,73.82195023333334,74.19483116666667,78.0,51.0
72,74.04652625,76.36220159166668,76.0,66.0
73,76.36432023333334,76.61855723333333,76.0,93.0
74,76.61855723333333,76.87279423333334,78.0,76.0
75,76.87279423333334,77.12703123333334,81.0,99.0
76,77.12703123333334,77.37914959166667,78.0,66.0
77,77.38126823333334,77.63550523333333,78.0,78.0
78,77.63550523333333,77.88974223333334,81.0,66.0
79,77.88974223333334,81.44906023333334,78.0,78.0
80,81.44906023333334,81.71389044166668,83.0,63.0
81,81.70329723333334,81.95753423333333,81.0,88.0
82,81.95753423333333,82.21177123333334,78.0,73.0
83,82.21177123333334,82.607957225,76.0,60.0
84,82.46600823333334,82.98507544166668,78.0,82.0
85,82.97448223333335,83.48295623333334,81.0,69.0
86,83.48295623333334,85.51685223333334,78.0,91.0
87,85.51685223333334,85.77108923333334,83.0,55.0
88,85.77108923333334,86.02532623333335,81.0,76.0
89,86.02532623333335,86.27956323333333,78.0,54.0
90,86.27956323333333,86.62066454166667,76.0,64.0
91,86.53380023333334,87.04227423333334,78.0,91.0
92,87.04227423333334,87.57193465,81.0,73.0
93,87.55074823333334,89.58252559166668,71.0,91.0
94,89.58464423333334,89.91303369166667,71.0,91.0
95,89.83888123333334,90.09311823333334,73.0,72.0
96,90.09311823333334,90.34735523333335,74.0,78.0
97,90.34735523333335,90.62701593333334,78.0,66.0
98,90.60159223333334,91.11006623333334,76.0,82.0
99,91.11006623333334,91.65031985833335,81.0,72.0
100,91.61854023333333,92.38125123333334,76.0,73.0
101,92.38125123333334,92.71811525833334,74.0,88.0
102,92.63548823333335,93.14396223333334,76.0,76.0
103,93.14396223333334,93.68209721666668,81.0,73.0
104,95.17785823333334,95.68845087500002,76.0,88.0
105,93.65243623333335,95.73506099166667,78.0,76.0
106,95.68633223333335,95.73506099166667,78.0,73.0
107,97.72022823333334,97.97446523333335,83.0,97.0
108,97.97446523333335,98.22870223333334,81.0,82.0
109,98.22870223333334,98.51895614166668,78.0,76.0
110,98.48293923333334,98.81768461666668,76.0,82.0
111,98.73717623333334,99.24565023333334,78.0,82.0
112,99.24565023333334,99.7625988,81.0,70.0
113,99.75412423333334,101.78802023333334,78.0,85.0
114,101.78802023333334,102.04225723333334,83.0,97.0
115,102.04225723333334,102.29649423333335,81.0,73.0
116,102.29649423333335,102.59522270833334,78.0,85.0
117,102.55073123333334,102.98717141666667,76.0,88.0
118,102.80496823333334,103.31344223333335,78.0,66.0
119,103.31344223333335,104.03166175833334,81.0,75.0
120,103.82191623333334,105.85369359166667,71.0,78.0
121,105.85581223333334,106.15877799166668,71.0,91.0
122,106.11004923333334,106.43420140833334,73.0,73.0
123,106.36428623333335,106.61852323333335,74.0,82.0
124,106.61852323333335,106.87276023333334,78.0,76.0
125,106.87276023333334,107.38123423333334,76.0,95.0
126,107.38123423333334,107.88970823333334,81.0,85.0
127,107.88970823333334,108.65241923333335,76.0,88.0
128,108.65241923333335,108.96597820000001,74.0,91.0
129,108.90665623333334,109.41513023333334,76.0,85.0
130,109.41513023333334,109.92360423333334,81.0,76.0
131,109.92360423333334,110.06979050833334,78.0,93.0
132,110.05072273333334,110.17784123333334,81.0,64.0
133,110.17784123333334,112.97444823333335,78.0,60.0
134,112.97444823333335,113.28376991666667,76.0,95.0
135,113.22868523333334,114.24563323333334,78.0,72.0
136,114.24563323333334,114.7625818,74.0,78.0
137,114.70749711666667,120.09308423333334,71.0,85.0
138,154.66931623333335,155.17779023333335,66.0,97.0
139,155.17779023333335,155.68626423333333,69.0,64.0
140,155.68626423333333,156.19473823333334,71.0,85.0
141,156.19473823333334,156.70109359166668,78.0,66.0
142,156.70321223333335,157.46592323333334,78.0,78.0
143,157.46592323333334,158.73710823333334,76.0,70.0
144,158.73710823333334,159.24558223333335,74.0,97.0
145,159.24558223333335,159.75405623333336,73.0,97.0
146,159.75405623333336,160.26253023333334,71.0,97.0
147,160.26253023333334,160.77100423333334,69.0,99.0
148,160.77100423333334,161.27735959166668,66.0,93.0
149,161.27947823333335,162.80490023333334,66.0,69.0
150,161.27947823333335,162.80490023333334,69.0,78.0
151,162.80490023333334,163.31337423333335,74.0,97.0
152,163.31337423333335,163.82184823333336,71.0,95.0
153,163.82184823333336,164.33032223333333,76.0,82.0
154,164.33032223333333,164.83879623333334,81.0,82.0
155,164.83879623333334,165.85574423333335,76.0,99.0
156,165.85574423333335,166.87057359166667,74.0,101.0
157,166.87269223333334,167.38116623333335,74.0,97.0
158,167.38116623333335,167.88964023333335,81.0,63.0
159,167.88964023333335,168.39811423333336,78.0,91.0
160,168.39811423333336,168.90658823333334,76.0,88.0
161,168.90658823333334,169.41294359166668,78.0,88.0
162,169.41506223333334,170.9383655916667,78.0,64.0
163,169.41506223333334,170.94048423333334,81.0,70.0
164,170.94048423333334,171.44895823333334,78.0,95.0
165,171.44895823333334,171.95531359166668,81.0,82.0
166,171.95743223333335,172.46590623333336,81.0,85.0
167,172.46590623333336,172.97438023333333,74.0,88.0
168,172.97438023333333,173.73709123333336,76.0,97.0
169,173.73709123333336,173.99132823333335,78.0,78.0
170,173.99132823333335,175.00827623333336,74.0,91.0
171,175.00827623333336,175.51675023333334,78.0,99.0
172,175.51675023333334,176.02522423333335,81.0,76.0
173,176.02522423333335,176.53369823333335,76.0,85.0
174,176.53369823333335,177.04217223333336,74.0,80.0
175,177.04217223333336,177.29640923333335,71.0,97.0
176,177.29640923333335,177.55064623333334,74.0,97.0
177,177.55064623333334,179.07606823333336,71.0,97.0
178,179.07606823333336,179.58454223333334,66.0,93.0
179,179.58454223333334,180.09301623333334,69.0,78.0
180,180.09301623333334,180.60149023333335,71.0,72.0
181,180.60149023333335,181.1078455916667,78.0,85.0
182,181.10996423333336,182.12691223333334,78.0,75.0
183,182.12691223333334,183.14386023333336,76.0,78.0
184,183.14386023333336,183.65233423333336,74.0,95.0
185,183.65233423333336,184.16080823333334,73.0,97.0
186,184.16080823333334,184.66928223333335,71.0,95.0
187,184.66928223333335,185.17775623333335,69.0,80.0
188,185.17775623333335,185.47436606666668,74.0,85.0
189,185.43199323333334,187.21165223333335,71.0,85.0
190,187.21165223333335,187.46588923333334,83.0,63.0
191,187.46588923333334,187.72012623333336,81.0,88.0
192,187.72012623333336,187.97436323333335,78.0,73.0
193,187.97436323333335,188.22860023333334,76.0,60.0
194,188.22860023333334,188.73707423333335,78.0,82.0
195,188.73707423333335,189.24554823333335,81.0,69.0
196,189.24554823333335,191.27944423333335,78.0,91.0
197,191.27944423333335,191.53368123333334,83.0,55.0
198,191.53368123333334,191.78791823333336,81.0,76.0
199,191.78791823333336,192.04215523333335,78.0,54.0
200,192.04215523333335,192.29639223333336,76.0,64.0
201,192.29639223333336,192.80486623333334,78.0,91.0
202,192.80486623333334,193.31334023333335,81.0,73.0
203,193.31334023333335,195.34511759166668,71.0,91.0
204,195.34723623333335,195.60147323333334,71.0,91.0
205,195.60147323333334,195.85571023333335,73.0,72.0
206,195.85571023333335,196.10994723333334,74.0,78.0
207,196.10994723333334,196.36418423333336,78.0,66.0
208,196.36418423333336,196.87265823333334,76.0,82.0
209,196.87265823333334,197.38113223333335,81.0,72.0
210,197.38113223333335,198.14384323333334,76.0,73.0
211,198.14384323333334,198.39808023333336,74.0,88.0
212,198.39808023333336,198.90655423333334,76.0,76.0
213,198.90655423333334,199.41502823333335,81.0,73.0
214,199.41502823333335,200.94045023333334,78.0,76.0
215,200.94045023333334,201.44892423333334,76.0,88.0
216,201.44892423333334,203.48282023333334,78.0,73.0
217,203.48282023333334,203.73705723333336,83.0,97.0
218,203.73705723333336,203.99129423333335,81.0,82.0
219,203.99129423333335,204.24553123333334,78.0,76.0
220,204.24553123333334,204.49976823333336,76.0,82.0
221,204.49976823333336,205.00824223333336,78.0,82.0
222,205.00824223333336,205.51671623333334,81.0,70.0
223,205.51671623333334,207.55061223333334,78.0,85.0
224,207.55061223333334,207.80484923333336,83.0,97.0
225,207.80484923333336,208.05908623333335,81.0,73.0
226,208.05908623333335,208.31332323333336,78.0,85.0
227,208.31332323333336,208.56756023333335,76.0,88.0
228,208.56756023333335,209.07603423333336,78.0,66.0
229,209.07603423333336,209.58450823333334,81.0,75.0
230,209.58450823333334,211.6162855916667,71.0,78.0
231,211.61840423333337,211.87264123333335,71.0,91.0
232,211.87264123333335,212.12687823333334,73.0,73.0
233,212.12687823333334,212.38111523333336,74.0,82.0
234,212.38111523333336,212.63535223333335,78.0,76.0
235,212.63535223333335,213.14382623333336,76.0,95.0
236,213.14382623333336,213.65230023333336,81.0,85.0
237,213.65230023333336,214.41501123333336,76.0,88.0
238,214.41501123333336,214.66924823333335,74.0,91.0
239,214.66924823333335,215.17772223333336,76.0,85.0
240,215.17772223333336,215.68619623333336,81.0,76.0
241,215.68619623333336,215.81331473333336,78.0,93.0
242,215.81331473333336,215.94043323333335,81.0,64.0
243,215.94043323333335,218.73704023333335,78.0,60.0
244,218.73704023333335,218.99127723333336,76.0,95.0
245,218.99127723333336,220.00822523333335,78.0,72.0
246,220.00822523333335,220.47008911666668,74.0,78.0
247,220.47008911666668,222.80483223333334,71.0,85.0
248,222.80483223333334,223.05906923333336,76.0,61.0
249,223.05906923333336,223.31330623333335,78.0,54.0
250,223.31330623333335,223.56754323333334,76.0,70.0
251,223.56754323333334,223.9150004666667,71.0,72.0
252,223.82178023333336,226.8705055916667,76.0,57.0
253,226.87262423333334,227.12686123333336,76.0,85.0
254,227.12686123333336,227.38109823333335,78.0,62.0
255,227.38109823333335,227.63533523333336,76.0,91.0
256,227.63533523333336,227.94465691666667,71.0,80.0
257,227.88957223333335,229.41499423333335,74.0,85.0
258,229.41499423333335,229.6925362916667,73.0,64.0
259,229.66923123333336,230.13745104166668,74.0,73.0
260,229.92346823333335,230.94041623333337,71.0,73.0
261,230.94041623333337,231.19465323333336,76.0,80.0
262,231.19465323333336,231.44889023333334,78.0,55.0
263,231.44889023333334,231.70312723333336,76.0,61.0
264,231.70312723333336,232.0315166916667,71.0,61.0
265,231.95736423333335,232.5590584666667,76.0,73.0
266,232.46583823333336,232.75397350000003,78.0,51.0
267,232.626855,235.02092008333335,76.0,66.0
268,235.02303872500002,236.02091895,76.0,101.0
269,236.02091895,239.9700670166667,78.0,95.0
270,239.94888060000002,242.12684423333334,71.0,88.0
