,start,end,pitch,velocity
0,1.1144055166666669,5.872874700000001,59.0,48.0
1,1.1144055166666669,5.976688141666667,54.0,52.0
2,1.1144055166666669,5.978806783333334,47.0,46.0
3,1.1144055166666669,6.006349125000001,61.0,52.0
4,1.1144055166666669,6.006349125000001,62.0,53.0
5,1.1144055166666669,6.040247391666667,66.0,57.0
6,6.608043358333334,9.046599916666667,64.0,45.0
7,6.629229775000001,9.434311341666668,40.0,39.0
8,6.608043358333334,9.476684175,52.0,36.0
9,6.608043358333334,9.493633308333335,67.0,30.0
10,6.608043358333334,9.735158458333334,59.0,36.0
11,10.262700233333334,10.771174233333335,62.0,69.0
12,10.262700233333334,10.783886083333334,66.0,64.0
13,10.771174233333335,11.17371615,61.0,41.0
14,10.771174233333335,11.222444908333335,64.0,46.0
15,11.279648233333335,11.620749541666667,62.0,61.0
16,11.279648233333335,11.665241016666668,66.0,63.0
17,12.042359233333334,12.161003166666667,66.0,73.0
18,12.042359233333334,12.296596233333334,74.0,73.0
19,12.288121666666667,12.296596233333334,74.0,74.0
20,12.296596233333334,12.421596091666668,66.0,76.0
21,12.805070233333334,12.90252775,71.0,54.0
22,12.805070233333334,12.908883675000002,64.0,55.0
23,11.788122233333334,13.387696691666667,59.0,31.0
24,13.313544233333335,13.578374441666668,62.0,64.0
25,13.313544233333335,13.584730366666667,69.0,69.0
26,10.262700233333334,13.605916783333335,54.0,61.0
27,10.262700233333334,13.669476033333334,47.0,54.0
28,13.822018233333335,13.923713033333334,64.0,51.0
29,13.822018233333335,13.936424883333334,54.0,47.0
30,13.822018233333335,14.004221416666669,47.0,47.0
31,14.330492233333334,14.826254383333335,66.0,62.0
32,14.330492233333334,14.828373025000001,62.0,63.0
33,14.838966233333334,15.457609600000001,55.0,45.0
34,15.347440233333336,15.650405991666668,59.0,60.0
35,15.347440233333336,15.752100791666669,64.0,67.0
36,16.110151233333333,16.211846033333334,62.0,60.0
37,16.110151233333333,16.23515109166667,66.0,56.0
38,15.855914233333335,16.455489825,55.0,39.0
39,16.364388233333333,16.752099658333336,62.0,66.0
40,16.364388233333333,16.773286075,66.0,66.0
41,16.872862233333336,17.519047941666667,55.0,49.0
42,17.381336233333336,17.826250983333335,62.0,69.0
43,17.381336233333336,17.84955604166667,66.0,73.0
44,17.381336233333336,17.908878008333335,59.0,67.0
45,14.330492233333334,17.91099665,43.0,78.0
46,17.889810233333336,18.019047375000003,55.0,52.0
47,18.398284233333335,18.74574146666667,61.0,64.0
48,18.398284233333335,18.75209739166667,64.0,66.0
49,18.398284233333335,18.794470225,69.0,70.0
50,18.906758233333335,19.487266050000002,61.0,46.0
51,19.415232233333334,19.743621691666668,69.0,63.0
52,19.415232233333334,19.747858975000003,64.0,61.0
53,19.923706233333334,20.04658745,64.0,52.0
54,19.923706233333334,20.1101467,71.0,63.0
55,20.177943233333334,20.383451475,73.0,64.0
56,20.432180233333334,20.809298450000004,76.0,64.0
57,20.432180233333334,20.896162758333336,69.0,67.0
58,20.432180233333334,20.985145708333334,61.0,60.0
59,20.940654233333333,21.235145425000002,64.0,48.0
60,20.940654233333333,21.413111325000003,73.0,64.0
61,21.449128233333337,21.792348183333335,71.0,70.0
62,21.449128233333337,21.819890525,64.0,61.0
63,21.449128233333337,21.86650064166667,61.0,61.0
64,18.398284233333335,21.87709385,54.0,70.0
65,22.466076233333336,22.949126533333335,66.0,70.0
66,22.466076233333336,22.978787516666667,62.0,60.0
67,23.483024233333335,23.783871350000002,61.0,54.0
68,23.737261233333335,23.900396641666667,62.0,60.0
69,23.228787233333335,23.978786383333336,59.0,57.0
70,23.991498233333335,24.171582775,64.0,47.0
71,24.245735233333335,24.449124833333336,61.0,53.0
72,24.499972233333335,24.639802583333335,66.0,49.0
73,24.754209233333334,24.934293775,64.0,70.0
74,24.499972233333335,25.129208808333335,59.0,36.0
75,25.008446233333334,25.18429349166667,69.0,63.0
76,25.262683233333334,25.504208383333335,66.0,72.0
77,25.516920233333334,25.7033607,71.0,62.0
78,25.771157233333337,26.023275591666668,69.0,49.0
79,25.516920233333334,26.154631375,59.0,42.0
80,26.025394233333337,26.15675001666667,74.0,58.0
81,26.279631233333337,26.58259699166667,71.0,51.0
82,26.533868233333337,27.163104808333337,78.0,58.0
83,26.533868233333337,27.476663775000002,59.0,44.0
84,27.557172158333337,27.966070000000002,62.0,65.0
85,28.557171025000002,29.55505125,66.0,79.0
86,22.466076233333336,29.58259359166667,47.0,64.0
87,22.974550233333336,29.586830875000004,54.0,47.0
88,30.601660233333337,32.129200875,66.0,72.0
89,30.601660233333337,32.1355568,62.0,67.0
90,30.601660233333337,32.15886185833334,59.0,53.0
91,30.601660233333337,32.18216691666667,71.0,61.0
92,30.601660233333337,32.19487876666667,47.0,63.0
93,32.63555623333334,33.3813181,64.0,59.0
94,32.63555623333334,33.864368400000004,69.0,61.0
95,32.63555623333334,33.913097158333336,73.0,66.0
96,33.65250423333334,33.997842825000006,66.0,44.0
97,32.63555623333334,34.15462230833334,42.0,63.0
98,32.63555623333334,34.17157144166667,54.0,70.0
99,34.66945223333334,35.127078833333336,67.0,75.0
100,34.66945223333334,35.135553400000006,62.0,73.0
101,34.66945223333334,35.16945166666667,59.0,66.0
102,34.66945223333334,35.18851944166667,43.0,73.0
103,34.66945223333334,35.21606178333334,55.0,76.0
104,35.68640023333334,36.171569175,45.0,70.0
105,35.68640023333334,36.35165371666667,69.0,64.0
106,35.68640023333334,36.374958775,64.0,72.0
107,35.68640023333334,36.4067384,61.0,63.0
108,35.68640023333334,36.432162100000006,57.0,66.0
109,36.70334823333334,37.283856050000004,62.0,69.0
110,36.70334823333334,37.379194925,66.0,63.0
111,37.720296233333336,38.20334653333334,61.0,56.0
112,36.70334823333334,38.502075008333335,47.0,66.0
113,38.228770233333336,38.586820675000006,62.0,59.0
114,37.720296233333336,38.61436301666667,59.0,47.0
115,37.211822233333336,38.819871258333336,54.0,41.0
116,38.733006950000004,39.02749814166667,59.0,66.0
117,38.733006950000004,39.11859973333333,62.0,75.0
118,38.733006950000004,39.15673528333334,67.0,72.0
119,39.26266736666667,39.77961593333334,62.0,45.0
120,38.733006950000004,40.169446,43.0,67.0
121,39.78597185833333,40.2202934,67.0,53.0
122,38.733006950000004,40.27325944166667,55.0,66.0
123,40.269022158333335,40.709699625000006,71.0,63.0
124,40.77537751666667,41.247834608333335,45.0,58.0
125,41.218173625000006,41.796562800000004,57.0,37.0
126,40.76902159166667,41.991477833333335,64.0,63.0
127,40.771140233333334,42.05503708333334,73.0,70.0
128,40.75842838333334,42.18639286666667,69.0,73.0
129,41.70757985,42.39825703333334,59.0,46.0
130,42.30079951666667,42.40461295833334,61.0,55.0
131,42.80503623333334,43.53596760833334,66.0,67.0
132,42.80503623333334,43.648255616666674,69.0,72.0
133,42.80503623333334,43.847407933333336,74.0,66.0
134,44.33045823333334,45.22452501666667,66.0,72.0
135,44.83893223333334,45.290202908333335,74.0,62.0
136,45.85588023333334,46.21604931666667,78.0,73.0
137,42.80503623333334,46.313506833333335,50.0,72.0
138,43.31351023333334,46.319862758333336,57.0,45.0
139,43.82198423333334,46.33045596666667,62.0,61.0
140,46.36435423333334,46.849523175,76.0,70.0
141,46.87282823333334,46.963929825,67.0,55.0
142,46.87282823333334,47.27113286666667,66.0,53.0
143,47.38130223333334,47.88130166666667,62.0,76.0
144,46.87282823333334,48.22028433333334,47.0,66.0
145,47.38130223333334,48.315623208333335,54.0,57.0
146,47.889776233333336,48.47240269166667,64.0,63.0
147,47.889776233333336,48.83680905833334,59.0,47.0
148,48.398250233333336,48.90460559166667,66.0,67.0
149,48.906724233333335,49.31985935833334,67.0,66.0
150,48.906724233333335,50.442739441666674,52.0,61.0
151,49.415198233333335,50.442739441666674,59.0,39.0
152,49.923672233333335,50.46816314166667,64.0,31.0
153,49.923672233333335,50.476637708333335,71.0,56.0
154,50.432146233333334,50.92790838333334,76.0,70.0
155,50.94062023333334,51.374941775,74.0,66.0
156,50.94062023333334,51.463924725000005,78.0,64.0
157,50.94062023333334,51.70333123333334,69.0,57.0
158,51.44909423333334,51.70756851666667,76.0,61.0
159,51.95756823333334,52.06138167500001,76.0,63.0
160,51.95756823333334,52.086805375000004,69.0,60.0
161,51.95756823333334,52.31773731666667,62.0,42.0
162,50.94062023333334,52.50841506666667,50.0,64.0
163,51.44909423333334,52.51477099166667,57.0,38.0
164,52.46604223333334,52.61434715000001,74.0,60.0
165,52.97451623333334,53.47451566666667,74.0,52.0
166,52.97451623333334,53.54654948333334,66.0,64.0
167,53.99146423333334,54.196972475,73.0,58.0
168,53.99146423333334,54.283836783333335,66.0,58.0
169,53.48299023333334,54.53383650000001,54.0,31.0
170,53.99146423333334,54.53383650000001,59.0,34.0
171,52.97451623333334,54.610107600000006,47.0,69.0
172,54.49993823333334,54.781717575,69.0,59.0
173,55.00841223333334,55.43849649166667,62.0,52.0
174,55.00841223333334,55.44273377500001,66.0,52.0
175,55.00841223333334,55.45756426666667,71.0,60.0
176,55.77112323333334,55.99358060833334,62.0,56.0
177,55.00841223333334,56.54230880000001,55.0,58.0
178,55.51688623333334,56.54230880000001,59.0,47.0
179,56.02536023333334,56.54230880000001,67.0,48.0
180,56.53383423333334,56.65671545000001,71.0,67.0
181,57.04230823333334,57.6101042,73.0,64.0
182,57.04230823333334,57.63340925833334,69.0,69.0
183,57.04230823333334,57.663070241666674,64.0,63.0
184,57.55078223333334,58.410950750000005,52.0,44.0
185,57.04230823333334,58.43425580833334,45.0,67.0
186,58.059256233333336,58.49781505833334,64.0,57.0
187,58.059256233333336,58.50840826666667,57.0,45.0
188,58.059256233333336,58.62917084166667,71.0,57.0
189,58.567730233333336,58.69484873333334,73.0,67.0
190,59.076204233333335,59.56561045833334,67.0,67.0
191,59.076204233333335,59.57196638333334,62.0,61.0
192,59.076204233333335,59.59739008333334,55.0,67.0
193,59.076204233333335,59.612220575,71.0,70.0
194,59.584678233333335,60.12493185833334,73.0,73.0
195,60.09315223333334,60.12493185833334,73.0,67.0
196,60.09315223333334,60.59738895,69.0,59.0
197,60.09315223333334,60.690609183333336,64.0,58.0
198,60.09315223333334,60.73721930000001,45.0,51.0
199,60.09315223333334,60.97238852500001,57.0,46.0
200,61.11010023333334,61.22238824166667,66.0,48.0
201,61.11010023333334,61.989336525000006,47.0,48.0
202,61.61857423333334,62.07196355000001,54.0,46.0
203,61.11010023333334,62.24992945,71.0,67.0
204,61.61857423333334,62.24992945,71.0,70.0
205,62.12704823333334,62.730861108333336,59.0,44.0
206,64.16094423333334,64.52535060000001,73.0,61.0
207,63.14399623333334,64.620689475,62.0,63.0
208,63.65247023333334,64.6524691,66.0,48.0
209,62.63552223333334,64.66094366666667,61.0,60.0
210,65.17789223333334,65.56348501666668,76.0,45.0
211,65.68636623333335,65.91941681666667,67.0,44.0
212,65.94060323333333,66.13975555,71.0,54.0
213,66.19484023333334,66.42365353333334,76.0,69.0
214,66.44907723333334,66.68212781666668,67.0,44.0
215,65.17789223333334,66.82831409166667,52.0,49.0
216,66.19484023333334,66.92577160833333,64.0,46.0
217,66.70331423333334,66.95543259166668,76.0,56.0
218,66.95755123333333,67.07195788333334,78.0,62.0
219,65.68636623333335,67.13975441666668,59.0,38.0
220,67.21178823333334,68.15882105833334,79.0,67.0
221,67.72026223333334,68.50839693333334,59.0,33.0
222,67.21178823333334,68.57195618333334,52.0,44.0
223,68.22873623333334,68.61432901666667,64.0,44.0
224,69.24568423333334,69.57619233333334,78.0,67.0
225,69.75415823333334,70.29017457500001,54.0,39.0
226,70.26263223333333,70.47025911666667,62.0,56.0
227,70.26263223333333,70.52322515833335,66.0,56.0
228,70.26263223333333,70.62068267500001,69.0,61.0
229,70.26263223333333,70.79652993333335,59.0,35.0
230,70.77110623333334,70.87068239166668,71.0,44.0
231,70.77110623333334,70.89398745000001,64.0,45.0
232,71.27958023333333,71.43847835833334,66.0,60.0
233,71.27958023333333,71.46390205833335,74.0,69.0
234,71.78805423333334,71.88127446666667,73.0,55.0
235,71.78805423333334,71.88339310833334,64.0,50.0
236,71.27958023333333,71.91093545000001,59.0,37.0
237,72.29652823333333,72.56559572500001,59.0,46.0
238,72.29652823333333,72.60796855833334,71.0,64.0
239,72.29652823333333,72.61008720000001,62.0,60.0
240,70.77110623333334,72.75415483333335,54.0,41.0
241,69.24568423333334,72.78805310000001,47.0,61.0
242,72.80500223333334,72.86432420000001,69.0,49.0
243,73.31347623333333,73.77534011666667,67.0,61.0
244,73.31347623333333,73.811357025,71.0,64.0
245,73.82195023333334,74.11856006666667,66.0,47.0
246,73.82195023333334,74.19483116666667,69.0,63.0
247,73.82195023333334,74.345254725,59.0,41.0
248,74.33042423333335,74.41516990000001,71.0,56.0
249,73.31347623333333,74.891864275,52.0,66.0
250,74.33042423333335,74.90033884166667,64.0,45.0
251,74.83889823333334,75.02322005833334,71.0,56.0
252,74.83889823333334,75.069830175,79.0,63.0
253,74.83889823333334,75.28169434166668,59.0,45.0
254,75.34737223333335,75.52957541666667,78.0,62.0
255,75.34737223333335,75.59737195000001,69.0,59.0
256,75.85584623333334,76.36855751666667,59.0,44.0
257,76.36432023333334,76.64821821666668,64.0,41.0
258,76.36432023333334,76.70542154166667,76.0,67.0
259,76.36432023333334,76.72025203333334,67.0,59.0
260,76.87279423333334,76.97237039166667,59.0,72.0
261,75.34737223333335,77.01050594166668,52.0,57.0
262,77.38126823333334,77.68211535,64.0,64.0
263,77.38126823333334,77.69906448333334,69.0,66.0
264,77.88974223333334,78.10372504166668,64.0,55.0
265,77.63550523333333,78.2287249,61.0,63.0
266,78.14397923333334,78.65669051666667,71.0,62.0
267,77.38126823333334,79.00202910833335,54.0,69.0
268,78.65245323333335,79.18423229166667,61.0,49.0
269,78.90669023333334,79.67787580000001,66.0,55.0
270,79.16092723333334,79.72660455833334,76.0,72.0
271,79.92363823333334,80.10796005833335,66.0,73.0
272,80.17787523333334,80.36855298333334,69.0,72.0
273,80.43211223333334,80.61643405833334,71.0,73.0
274,79.66940123333335,80.83465415,61.0,64.0
275,79.41516423333334,80.88550155,54.0,70.0
276,80.68634923333335,80.9744845,73.0,58.0
277,80.94058623333333,81.07829794166668,76.0,66.0
278,81.19482323333334,81.35372135833335,78.0,50.0
279,81.44906023333334,81.51897540833335,76.0,69.0
280,81.44906023333334,81.74143278333334,74.0,63.0
281,81.44906023333334,81.77109376666668,78.0,91.0
282,81.95753423333333,82.493550575,54.0,42.0
283,82.46600823333334,82.79227905,62.0,85.0
284,82.46600823333334,82.80075361666667,66.0,76.0
285,82.21177123333334,82.84312645000001,59.0,45.0
286,81.44906023333334,82.99566865000001,47.0,70.0
287,82.97448223333335,83.09948209166667,61.0,67.0
288,82.97448223333335,83.12702443333335,64.0,76.0
289,83.22871923333334,83.31982082500001,62.0,88.0
290,82.72024523333334,83.33676995833333,54.0,44.0
291,83.22871923333334,83.35371909166668,66.0,93.0
292,83.73719323333334,83.83041346666667,74.0,73.0
293,83.73719323333334,83.83465075000001,66.0,73.0
294,83.48295623333334,83.90880320833334,47.0,67.0
295,83.73719323333334,83.96176925,54.0,46.0
296,83.99143023333335,84.069819975,74.0,67.0
297,83.99143023333335,84.10583688333334,66.0,64.0
298,83.99143023333335,84.32193833333334,59.0,55.0
299,84.24566723333334,84.33888746666668,73.0,66.0
300,84.24566723333334,84.35371795833333,64.0,69.0
301,84.49990423333334,84.60371767500001,73.0,66.0
302,84.49990423333334,84.60795495833334,64.0,78.0
303,84.24566723333334,84.65032779166667,61.0,63.0
304,84.75414123333334,84.82617505,71.0,63.0
305,84.75414123333334,84.85159875000001,62.0,72.0
306,85.00837823333335,85.15880179166668,71.0,67.0
307,85.00837823333335,85.19270005833334,62.0,80.0
308,85.26261523333334,85.43634385000001,69.0,67.0
309,85.51685223333334,85.99142796666668,43.0,72.0
310,85.77108923333334,86.0083771,50.0,55.0
311,86.02532623333335,86.32829199166667,55.0,49.0
312,85.51685223333334,86.33464791666667,71.0,75.0
313,85.51685223333334,86.37278346666668,67.0,85.0
314,85.51685223333334,86.55922393333334,62.0,82.0
315,86.53380023333334,86.80498636666667,59.0,58.0
316,86.27956323333333,86.80922365,57.0,59.0
317,86.78803723333334,86.96388449166668,62.0,61.0
318,87.04227423333334,87.21812149166668,67.0,70.0
319,87.29651123333335,87.46176528333334,69.0,64.0
320,87.55074823333334,88.05286630833334,71.0,54.0
321,87.55074823333334,88.29015417500001,62.0,70.0
322,87.55074823333334,88.29227281666667,67.0,64.0
323,88.56769623333334,88.722357075,62.0,80.0
324,88.31345923333335,88.86642470833334,55.0,82.0
325,88.82193323333334,89.14608540833333,62.0,80.0
326,88.82193323333334,89.18633960000001,67.0,99.0
327,88.82193323333334,89.18633960000001,71.0,99.0
328,89.07617023333334,89.25201749166668,55.0,75.0
329,88.05922223333334,89.26684798333334,50.0,54.0
330,87.80498523333334,89.29439032500001,43.0,64.0
331,89.33040723333335,89.44693252500001,62.0,54.0
332,89.58464423333334,89.76049149166667,40.0,76.0
333,89.58464423333334,90.28379598333333,64.0,80.0
334,89.58464423333334,90.30074511666668,71.0,85.0
335,89.58464423333334,90.45328731666667,67.0,85.0
336,89.58464423333334,90.56557532500001,74.0,66.0
337,90.34735523333335,90.90243935000001,59.0,60.0
338,90.60159223333334,91.02320192500001,64.0,63.0
339,90.09311823333334,91.16938820000001,52.0,59.0
340,90.85582923333334,91.20116782500001,66.0,72.0
341,91.11006623333334,91.213879675,59.0,61.0
342,90.85582923333334,91.213879675,67.0,75.0
343,90.85582923333334,91.24354065833334,71.0,70.0
344,91.36430323333335,91.531675925,69.0,73.0
345,91.61854023333333,92.027438075,45.0,64.0
346,91.61854023333333,92.04862449166667,69.0,72.0
347,91.61854023333333,92.05074313333334,64.0,69.0
348,91.87277723333334,92.09735325000001,52.0,61.0
349,91.61854023333333,92.10794645833334,73.0,73.0
350,92.12701423333334,92.43421727500001,57.0,49.0
351,92.38125123333334,92.71175933333335,76.0,75.0
352,92.38125123333334,92.73294575000001,69.0,80.0
353,92.38125123333334,92.73506439166667,64.0,80.0
354,92.63548823333335,92.94480991666667,61.0,66.0
355,92.88972523333334,93.2287079,74.0,72.0
356,92.88972523333334,93.24989431666667,66.0,80.0
357,92.88972523333334,93.24989431666667,69.0,85.0
358,93.14396223333334,93.25413160000001,61.0,73.0
359,92.38125123333334,93.30074171666668,59.0,53.0
360,93.39819923333334,93.60158883333334,71.0,67.0
361,93.65243623333335,93.95116470833334,64.0,69.0
362,93.65243623333335,93.96387655833334,69.0,76.0
363,93.65243623333335,93.98294433333334,73.0,72.0
364,94.16091023333334,94.366418475,66.0,78.0
365,93.90667323333334,94.48929969166667,61.0,56.0
366,94.41514723333334,94.531672525,66.0,52.0
367,94.41514723333334,94.78379088333334,71.0,72.0
368,94.66938423333335,94.97658727500001,61.0,58.0
369,93.65243623333335,95.03167195833335,54.0,63.0
370,94.92362123333334,95.11218034166667,66.0,76.0
371,95.17785823333334,95.33463771666668,69.0,67.0
372,95.68633223333335,95.85158628333335,42.0,60.0
373,95.94056923333333,96.27743325833335,54.0,70.0
374,95.43209523333334,96.38548398333334,69.0,73.0
375,95.43209523333334,96.38972126666667,76.0,72.0
376,95.43209523333334,96.45963644166667,64.0,93.0
377,96.44904323333334,96.57404309166668,59.0,61.0
378,96.70328023333334,96.83039873333334,64.0,91.0
379,96.95751723333335,97.05921203333334,71.0,91.0
380,96.19480623333334,97.38336420833335,57.0,62.0
381,97.21175423333334,97.41938111666667,74.0,63.0
382,97.46599123333334,97.7032791,76.0,76.0
383,97.72022823333334,97.91938055000001,81.0,69.0
384,97.72022823333334,98.129126075,47.0,75.0
385,97.97446523333335,98.20963445833334,54.0,60.0
386,97.72022823333334,98.43632911666667,78.0,88.0
387,98.22870223333334,98.53166799166668,59.0,49.0
388,98.48293923333334,98.67785426666667,73.0,57.0
389,98.48293923333334,98.69692204166668,76.0,75.0
390,98.73717623333334,98.88971843333334,74.0,80.0
391,98.73717623333334,99.00836236666667,78.0,73.0
392,98.48293923333334,99.14395543333335,61.0,60.0
393,98.73717623333334,99.14395543333335,62.0,69.0
394,98.99141323333335,99.16514185000001,64.0,63.0
395,99.24565023333334,99.34522639166667,74.0,93.0
396,99.24565023333334,99.36641280833334,81.0,82.0
397,99.75412423333334,100.17361528333335,47.0,67.0
398,100.00836123333335,100.26047959166668,54.0,63.0
399,99.75412423333334,100.35581846666668,78.0,93.0
400,99.75412423333334,100.3727676,74.0,88.0
401,100.26259823333334,100.56344535000001,59.0,73.0
402,100.51683523333334,100.62276731666668,76.0,78.0
403,100.51683523333334,100.63124188333335,73.0,63.0
404,100.51683523333334,100.77107223333334,61.0,58.0
405,100.77107223333334,100.98505504166667,73.0,82.0
406,100.77107223333334,101.03802108333335,76.0,95.0
407,101.02530923333335,101.31556314166667,74.0,82.0
408,100.77107223333334,101.32191906666668,62.0,73.0
409,101.02530923333335,101.33463091666667,78.0,82.0
410,101.27954623333335,101.39607152500001,64.0,70.0
411,101.53378323333334,101.65242716666667,73.0,54.0
412,101.53378323333334,101.840986275,76.0,88.0
413,101.78802023333334,101.993528475,74.0,88.0
414,101.78802023333334,102.04013859166668,71.0,85.0
415,102.55073123333334,102.72657849166667,59.0,85.0
416,102.29649423333335,102.87700205000002,55.0,85.0
417,102.80496823333334,103.07827300833334,59.0,70.0
418,102.80496823333334,103.13123905,62.0,82.0
419,103.05920523333334,103.37700148333334,55.0,66.0
420,101.78802023333334,103.6015775,43.0,76.0
421,103.31344223333335,103.66937403333334,59.0,85.0
422,103.56767923333334,103.70327230000001,62.0,55.0
423,102.04225723333334,103.74776377500001,50.0,73.0
424,103.82191623333334,104.31555974166668,67.0,72.0
425,103.82191623333334,104.33039023333335,62.0,72.0
426,103.82191623333334,104.51471205833334,59.0,58.0
427,104.58462723333334,104.77954226666668,59.0,80.0
428,104.83886423333334,104.98293186666668,62.0,62.0
429,104.33039023333335,105.08462666666668,55.0,91.0
430,103.82191623333334,105.36428736666667,43.0,72.0
431,104.07615323333334,105.40877884166667,50.0,64.0
432,105.09310123333334,105.77742249166667,66.0,72.0
433,105.34733823333335,105.77954113333334,55.0,63.0
434,105.85581223333334,106.11428651666668,62.0,78.0
435,105.85581223333334,106.18420169166667,67.0,70.0
436,106.61852323333335,106.81131962500001,66.0,78.0
437,106.11004923333334,106.96386182500001,59.0,59.0
438,106.36428623333335,107.16937006666667,64.0,72.0
439,106.87276023333334,107.28165807500001,67.0,80.0
440,107.12699723333334,107.32403090833334,59.0,57.0
441,105.85581223333334,107.34733596666668,52.0,72.0
442,107.38123423333334,107.790132075,71.0,91.0
443,107.88970823333334,108.32614841666667,45.0,67.0
444,108.14394523333334,108.36428396666668,52.0,58.0
445,107.88970823333334,108.46174148333334,64.0,70.0
446,107.88970823333334,108.48504654166668,69.0,85.0
447,107.88970823333334,108.49563975000001,76.0,78.0
448,108.39818223333334,108.73928354166668,57.0,67.0
449,108.65241923333335,108.76894452500001,69.0,66.0
450,108.65241923333335,108.78165637500001,74.0,76.0
451,108.65241923333335,108.78589365833334,66.0,64.0
452,108.90665623333334,109.07191028333334,66.0,66.0
453,108.90665623333334,109.22021520000001,74.0,75.0
454,108.65241923333335,109.23292705000001,59.0,54.0
455,108.90665623333334,109.2456389,69.0,61.0
456,108.90665623333334,109.50411318333335,61.0,61.0
457,109.41513023333334,109.55072330000002,64.0,70.0
458,109.41513023333334,109.55707922500001,59.0,69.0
459,109.66936723333335,109.849451775,64.0,45.0
460,109.41513023333334,109.90029917500001,73.0,85.0
461,109.92360423333334,110.1100447,69.0,69.0
462,109.92360423333334,110.47021378333335,76.0,75.0
463,110.17784123333334,110.69478980000001,61.0,54.0
464,110.43207823333334,110.96385729166667,66.0,69.0
465,110.68631523333335,111.0507216,69.0,76.0
466,110.68631523333335,111.12275541666668,73.0,76.0
467,110.94055223333335,111.25622984166668,61.0,56.0
468,111.19478923333334,111.54436510833334,64.0,67.0
469,111.44902623333334,111.55072103333335,61.0,70.0
470,111.19478923333334,111.55919560000001,71.0,55.0
471,109.92360423333334,111.58038201666668,54.0,70.0
472,111.70326323333335,112.16512711666668,69.0,82.0
473,111.70326323333335,112.24775414166668,64.0,70.0
474,112.21173723333334,112.58673680833334,49.0,50.0
475,112.72021123333334,112.81555010833334,66.0,73.0
476,112.72021123333334,112.824024675,78.0,76.0
477,112.46597423333334,112.83461788333334,54.0,76.0
478,112.97444823333335,113.05919390000001,66.0,69.0
479,112.97444823333335,113.09521080833335,78.0,80.0
480,113.22868523333334,113.32826139166667,81.0,80.0
481,113.22868523333334,113.33249867500001,69.0,62.0
482,111.95750023333335,113.53165099166668,42.0,73.0
483,112.97444823333335,113.55919333333334,49.0,62.0
484,113.48292223333334,113.59309160000001,69.0,60.0
485,113.48292223333334,113.60792209166668,81.0,72.0
486,113.48292223333334,113.80495576666668,54.0,61.0
487,113.73715923333334,113.85792180833334,71.0,54.0
488,113.73715923333334,113.85792180833334,83.0,64.0
489,113.99139623333335,114.33249754166668,83.0,73.0
490,113.99139623333335,114.5083448,71.0,67.0
491,114.75410723333334,115.03800521666668,62.0,80.0
492,115.00834423333335,115.30495406666668,64.0,58.0
493,115.26258123333335,115.37910652500001,66.0,61.0
494,115.51681823333334,115.78164844166668,71.0,82.0
495,115.77105523333334,115.98503804166668,73.0,44.0
496,116.02529223333335,116.15029209166667,74.0,57.0
497,116.27952923333335,116.53800351666668,78.0,75.0
498,116.53376623333334,116.78376595000002,83.0,33.0
499,114.49987023333334,116.99139283333335,59.0,55.0
500,116.53376623333334,116.99139283333335,59.0,101.0
501,116.78800323333334,116.99139283333335,85.0,54.0
502,117.04224023333335,117.29012130833334,86.0,52.0
503,117.04224023333335,117.50410411666668,62.0,95.0
504,117.29647723333335,117.53164645833334,85.0,57.0
505,117.55071423333334,117.66512088333334,59.0,101.0
506,114.24563323333334,117.74139198333334,54.0,58.0
507,117.55071423333334,117.74774790833334,83.0,49.0
508,113.99139623333335,117.768934325,47.0,70.0
509,117.80495123333334,117.97020528333334,78.0,57.0
510,118.05918823333334,118.54859445833334,67.0,61.0
511,118.05918823333334,118.56554359166668,71.0,58.0
512,118.05918823333334,118.56554359166668,71.0,97.0
513,118.05918823333334,118.57401815833335,62.0,61.0
514,118.56766223333334,119.22020386666668,59.0,36.0
515,119.07613623333334,119.38122063333334,67.0,45.0
516,119.07613623333334,119.38545791666668,62.0,44.0
517,119.07613623333334,119.46384765833335,71.0,44.0
518,120.09308423333334,120.66935476666667,74.0,47.0
519,120.09308423333334,120.79859190833335,71.0,40.0
520,120.09308423333334,120.80071055,79.0,46.0
521,121.11003223333334,121.51893007500001,74.0,49.0
522,121.11003223333334,121.52740464166668,78.0,55.0
523,119.58461023333335,121.557065625,59.0,39.0
524,118.05918823333334,121.56554019166667,55.0,62.0
525,121.11003223333334,121.63969265000001,69.0,101.0
526,121.61850623333335,121.93418384166668,71.0,93.0
527,121.61850623333335,122.08672604166668,73.0,44.0
528,121.87274323333334,122.14392936666668,69.0,72.0
529,121.61850623333335,122.16087850000001,76.0,53.0
530,122.12698023333334,122.49986116666668,78.0,58.0
531,122.12698023333334,122.55494585000001,74.0,57.0
532,122.63545423333335,123.17782650000001,54.0,45.0
533,122.12698023333334,123.20113155833334,66.0,93.0
534,123.14392823333334,123.20113155833334,66.0,49.0
535,123.14392823333334,123.52952101666668,74.0,49.0
536,123.14392823333334,124.4235878,59.0,39.0
537,124.16087623333334,124.86214662500001,73.0,47.0
538,124.16087623333334,124.92994315833334,64.0,41.0
539,125.17782423333334,125.49773912500001,71.0,67.0
540,125.17782423333334,125.49773912500001,71.0,99.0
541,125.17782423333334,125.52104418333334,62.0,61.0
542,122.12698023333334,125.62062034166668,47.0,32.0
543,124.92358723333335,125.62697626666667,59.0,36.0
544,123.65240223333335,125.65875589166667,54.0,37.0
545,125.68629823333335,125.81977265833335,69.0,64.0
546,125.68629823333335,126.20748408333334,74.0,99.0
547,126.19477223333334,126.64816155000001,71.0,44.0
548,126.19477223333334,126.65663611666668,67.0,45.0
549,126.19477223333334,126.66934796666668,62.0,45.0
550,127.21172023333334,127.44477081666668,62.0,44.0
551,127.21172023333334,127.48926229166668,67.0,45.0
552,127.21172023333334,127.56341475,71.0,45.0
553,126.19477223333334,128.24349872500002,83.0,91.0
554,128.22866823333334,128.43629511666668,78.0,50.0
555,128.22866823333334,128.47019338333334,74.0,48.0
556,128.48290523333335,128.66087113333333,76.0,56.0
557,128.48290523333335,128.67993890833336,73.0,39.0
558,128.73714223333334,128.83459975000002,74.0,39.0
559,128.73714223333334,128.929938625,78.0,56.0
560,128.99137923333333,129.1163790916667,76.0,40.0
561,129.24561623333335,129.72866653333335,78.0,52.0
562,129.24561623333335,129.76044615833334,74.0,48.0
563,126.19477223333334,129.832479975,43.0,56.0
564,126.70324623333335,130.16086943333335,55.0,38.0
565,129.24561623333335,130.24773374166668,86.0,82.0
566,129.24561623333335,130.28586929166667,83.0,101.0
567,130.26256423333334,130.64180109166668,76.0,51.0
568,130.26256423333334,130.64180109166668,76.0,101.0
569,130.26256423333334,130.66722479166668,73.0,49.0
570,130.26256423333334,130.677818,69.0,47.0
571,131.02527523333333,131.40451209166667,69.0,48.0
572,131.27951223333335,131.40451209166667,69.0,47.0
573,131.27951223333335,131.63120675000002,61.0,52.0
574,131.27951223333335,131.6439186,64.0,52.0
575,130.77103823333334,131.71171513333334,57.0,37.0
576,132.04222323333335,132.27739245833334,64.0,30.0
577,131.78798623333336,132.28162974166668,52.0,29.0
578,130.26256423333334,132.29434159166667,45.0,62.0
579,132.29646023333333,132.49561255,69.0,62.0
580,132.55069723333335,132.65874795833335,69.0,63.0
581,132.55069723333335,132.80493423333334,64.0,49.0
582,132.29646023333333,132.87273076666668,57.0,45.0
583,132.80493423333334,132.99137470000002,73.0,63.0
584,133.05917123333336,133.37061155833334,64.0,54.0
585,133.31340823333335,133.38756069166666,69.0,56.0
586,133.31340823333335,133.38756069166666,69.0,61.0
587,133.31340823333335,133.57611980000001,74.0,70.0
588,133.31340823333335,133.67357731666667,61.0,61.0
589,132.80493423333334,133.728662,59.0,46.0
590,133.56764523333334,133.73925520833333,73.0,64.0
591,133.82188223333335,134.04857689166667,69.0,56.0
592,133.31340823333335,134.19264452500002,76.0,103.0
593,134.33035623333333,134.54010175833335,78.0,69.0
594,134.33035623333333,134.54010175833335,78.0,113.0
595,134.58459323333335,134.80705060833336,73.0,53.0
596,134.83883023333334,135.0718808166667,74.0,67.0
597,135.09306723333336,135.37908385833333,73.0,51.0
598,135.34730423333335,135.55069383333336,78.0,66.0
599,134.83883023333334,135.62060900833333,66.0,47.0
600,135.60154123333334,135.8600155166667,73.0,51.0
601,135.34730423333335,135.9151002,69.0,51.0
602,134.33035623333333,136.02103228333334,59.0,61.0
603,135.85577823333335,136.09518474166669,74.0,66.0
604,136.11001523333334,136.34518445833334,73.0,51.0
605,135.85577823333335,136.35154038333334,66.0,60.0
606,136.36425223333333,136.56552319166667,78.0,63.0
607,136.61848923333335,136.88755672500002,73.0,47.0
608,136.87272623333334,137.10789545833333,74.0,60.0
609,136.61848923333335,137.43416627500002,66.0,56.0
610,137.12696323333336,137.46806454166668,73.0,57.0
611,137.38120023333335,137.5930644,78.0,61.0
612,137.38120023333335,137.83882683333334,69.0,50.0
613,137.63543723333333,137.840945475,76.0,54.0
614,137.88967423333335,137.99136903333334,66.0,55.0
615,136.36425223333333,138.00408088333336,59.0,48.0
616,137.88967423333335,138.11425025,74.0,58.0
617,137.38120023333335,138.35365675833336,83.0,109.0
618,138.14391123333334,138.4850125416667,73.0,54.0
619,138.39814823333336,138.705351275,76.0,72.0
620,138.39814823333336,138.705351275,76.0,99.0
621,138.65238523333335,138.92992729166667,68.0,57.0
622,138.90662223333334,139.175689725,71.0,70.0
623,139.16085923333335,139.52314695833334,68.0,60.0
624,139.41509623333334,139.78373988333334,76.0,60.0
625,139.66933323333333,139.97441763333333,68.0,52.0
626,139.92357023333335,140.154502175,71.0,66.0
627,138.39814823333336,140.21594278333333,52.0,63.0
628,139.41509623333334,140.38967140000003,64.0,55.0
629,140.17780723333334,140.54221360000003,68.0,58.0
630,140.43204423333336,140.7159422166667,76.0,67.0
631,140.68628123333335,140.97017921666668,68.0,55.0
632,140.94051823333334,141.1290773416667,71.0,57.0
633,141.19475523333335,141.52102605000002,68.0,59.0
634,141.44899223333334,141.71805972500002,76.0,70.0
635,140.43204423333336,141.883313775,52.0,54.0
636,141.44899223333334,141.89602562500002,64.0,44.0
637,141.70322923333333,141.95322895,68.0,56.0
638,141.95746623333335,142.18204225000002,71.0,60.0
639,142.21170323333334,142.45110974166667,68.0,56.0
640,141.44899223333334,142.51678763333334,83.0,101.0
641,142.46594023333336,142.75831278333334,76.0,63.0
642,142.72017723333335,143.027380275,71.0,53.0
643,142.46594023333336,143.15873605833335,74.0,103.0
644,142.97441423333333,143.15873605833335,74.0,66.0
645,143.22865123333335,143.56339661666667,71.0,58.0
646,143.48288823333334,143.77737942500002,78.0,75.0
647,143.48288823333334,143.82610818333333,67.0,49.0
648,143.73712523333336,143.97229445833335,71.0,54.0
649,142.46594023333336,144.09305703333334,55.0,61.0
650,142.97441423333333,144.09729431666668,62.0,48.0
651,143.99136223333335,144.19475183333336,74.0,61.0
652,143.99136223333335,144.27737885833335,76.0,103.0
653,144.24559923333334,144.49559895000002,71.0,53.0
654,144.24559923333334,144.49983623333335,78.0,99.0
655,144.49983623333335,144.74348002500003,76.0,60.0
656,144.75407323333334,144.99771702500001,69.0,55.0
657,145.00831023333333,145.19051341666668,73.0,63.0
658,145.26254723333335,145.51466559166667,66.0,56.0
659,145.51678423333334,145.90025837500002,61.0,61.0
660,145.51678423333334,145.91932615000002,76.0,62.0
661,144.49983623333335,145.94898713333333,54.0,67.0
662,145.77102123333336,146.0104277416667,64.0,53.0
663,146.02525823333335,146.35788497500002,69.0,75.0
664,144.49983623333335,146.41932558333335,81.0,95.0
665,146.27949523333334,146.43203743333333,73.0,38.0
666,146.53373223333335,146.87483354166667,74.0,73.0
667,146.78796923333334,147.09729091666668,64.0,57.0
668,147.04220623333336,147.311273725,71.0,62.0
669,147.29644323333335,147.5866971416667,64.0,57.0
670,147.55068023333334,147.8388155,74.0,67.0
671,146.53373223333335,147.89813746666667,52.0,61.0
672,146.53373223333335,147.9362730166667,59.0,67.0
673,147.80491723333336,148.00406955000003,64.0,48.0
674,146.53373223333335,148.18627273333334,76.0,106.0
675,148.05915423333335,148.25618790833335,71.0,56.0
676,148.31339123333333,148.49983170000002,64.0,47.0
677,147.55068023333334,148.56339095,78.0,106.0
678,148.56762823333335,148.7879669666667,73.0,60.0
679,148.82186523333334,149.12483099166667,66.0,48.0
680,148.56762823333335,149.35364429166668,71.0,101.0
681,149.07610223333336,149.35364429166668,71.0,52.0
682,149.33033923333335,149.48923735833336,73.0,66.0
683,149.58457623333334,149.8811860666667,74.0,82.0
684,149.83881323333335,150.02737234166668,78.0,53.0
685,148.56762823333335,150.18838910833335,59.0,60.0
686,150.09305023333334,150.2116941666667,81.0,42.0
687,150.1777959,150.29855847500002,83.0,42.0
688,150.34728723333333,150.5866937416667,85.0,51.0
689,149.58457623333334,150.65237163333336,69.0,101.0
690,150.60152423333335,150.93838825833333,86.0,64.0
691,151.36423523333335,151.646014575,73.0,62.0
692,150.60152423333335,151.67567555833335,71.0,106.0
693,151.10999823333336,151.67567555833335,71.0,61.0
694,151.61847223333334,151.925675275,74.0,58.0
695,151.87270923333335,152.256183375,71.0,53.0
696,152.12694623333334,152.35364089166669,76.0,54.0
697,152.38118323333336,152.58457283333334,78.0,46.0
698,152.63542023333335,153.98711361666668,71.0,48.0
699,152.63542023333335,154.00618139166667,74.0,51.0
700,150.85576123333334,154.01253731666668,66.0,58.0
701,150.60152423333335,154.0633847166667,59.0,67.0
702,154.16084223333334,154.41931651666667,76.0,56.0
703,154.16084223333334,154.42990972500002,73.0,49.0
704,154.41507923333336,154.71380770833335,78.0,53.0
705,154.41507923333336,154.72651955833334,74.0,48.0
706,154.66931623333335,156.196856875,66.0,72.0
707,154.66931623333335,156.20321280000002,62.0,67.0
708,154.66931623333335,156.22651785833335,59.0,53.0
709,154.66931623333335,156.2498229166667,71.0,61.0
710,154.66931623333335,156.26253476666668,47.0,63.0
711,156.70321223333335,157.44897410000002,64.0,59.0
712,156.70321223333335,157.93202440000002,69.0,61.0
713,156.70321223333335,157.98075315833336,73.0,66.0
714,157.72016023333336,158.06549882500002,66.0,44.0
715,156.70321223333335,158.22227830833336,42.0,63.0
716,156.70321223333335,158.23922744166669,54.0,70.0
717,158.73710823333334,159.19473483333334,67.0,75.0
718,158.73710823333334,159.20320940000002,62.0,73.0
719,158.73710823333334,159.23710766666667,59.0,66.0
720,158.73710823333334,159.25617544166667,43.0,73.0
721,158.73710823333334,159.28371778333334,55.0,76.0
722,159.75405623333336,160.239225175,45.0,70.0
723,159.75405623333336,160.41930971666667,69.0,64.0
724,159.75405623333336,160.442614775,64.0,72.0
725,159.75405623333336,160.47439440000002,61.0,63.0
726,159.75405623333336,160.49981810000003,57.0,66.0
727,160.77100423333334,161.35151205000003,62.0,69.0
728,160.77100423333334,161.446850925,66.0,63.0
729,161.78795223333336,162.27100253333336,61.0,56.0
730,160.77100423333334,162.56973100833335,47.0,66.0
731,162.29642623333334,162.654476675,62.0,59.0
732,161.78795223333336,162.6820190166667,59.0,47.0
733,161.27947823333335,162.88752725833334,54.0,41.0
734,162.80066295,163.09515414166668,59.0,66.0
735,162.80066295,163.18625573333335,62.0,75.0
736,162.80066295,163.22439128333335,67.0,72.0
737,163.33032336666668,163.84727193333336,62.0,45.0
738,162.80066295,164.23710200000002,43.0,67.0
739,163.85362785833334,164.2879494,67.0,53.0
740,162.80066295,164.34091544166668,55.0,66.0
741,164.33667815833334,164.777355625,71.0,63.0
742,164.84303351666668,165.31549060833333,45.0,58.0
743,165.28582962500002,165.8642188,57.0,37.0
744,164.83667759166667,166.05913383333333,64.0,63.0
745,164.83879623333334,166.12269308333336,73.0,70.0
746,164.82608438333335,166.2540488666667,69.0,73.0
747,165.77523585,166.46591303333335,59.0,46.0
748,166.36845551666667,166.47226895833336,61.0,55.0
749,166.87269223333334,167.60362360833335,66.0,67.0
750,166.87269223333334,167.7159116166667,69.0,72.0
751,166.87269223333334,167.91506393333336,74.0,66.0
752,168.39811423333336,169.2921810166667,66.0,72.0
753,168.90658823333334,169.35785890833336,74.0,62.0
754,169.92353623333335,170.28370531666667,78.0,73.0
755,166.87269223333334,170.38116283333335,50.0,72.0
756,167.38116623333335,170.38751875833336,57.0,45.0
757,167.88964023333335,170.39811196666668,62.0,61.0
758,170.43201023333336,170.917179175,76.0,70.0
759,170.94048423333334,171.031585825,67.0,55.0
760,170.94048423333334,171.33878886666668,66.0,53.0
761,171.44895823333334,171.94895766666667,62.0,76.0
762,170.94048423333334,172.28794033333335,47.0,66.0
763,171.44895823333334,172.38327920833333,54.0,57.0
764,171.95743223333335,172.54005869166667,64.0,63.0
765,171.95743223333335,172.90446505833336,59.0,47.0
766,172.46590623333336,172.9722615916667,66.0,67.0
767,172.97438023333333,173.38751535833336,67.0,66.0
768,172.97438023333333,174.51039544166667,52.0,61.0
769,173.48285423333334,174.51039544166667,59.0,39.0
770,173.99132823333335,174.53581914166668,64.0,31.0
771,173.99132823333335,174.54429370833336,71.0,56.0
772,174.49980223333336,174.99556438333335,78.0,70.0
773,175.00827623333336,175.44259777500002,74.0,66.0
774,175.00827623333336,175.53158072500003,78.0,64.0
775,175.00827623333336,175.77098723333336,69.0,57.0
776,175.51675023333334,175.77522451666667,76.0,61.0
777,176.02522423333335,176.129037675,74.0,63.0
778,176.02522423333335,176.154461375,69.0,60.0
779,176.02522423333335,176.3853933166667,62.0,42.0
780,175.00827623333336,176.57607106666669,50.0,64.0
781,175.51675023333334,176.5824269916667,57.0,38.0
782,176.53369823333335,176.68200315,74.0,60.0
783,177.04217223333336,177.5421716666667,74.0,52.0
784,177.04217223333336,177.61420548333334,66.0,64.0
785,178.05912023333335,178.26462847500002,73.0,58.0
786,178.05912023333335,178.35149278333336,66.0,58.0
787,177.55064623333334,178.6014925,54.0,31.0
788,178.05912023333335,178.6014925,59.0,34.0
789,177.04217223333336,178.67776360000002,47.0,69.0
790,178.56759423333335,178.84937357500002,69.0,59.0
791,179.07606823333336,179.50615249166668,62.0,52.0
792,179.07606823333336,179.51038977500002,67.0,52.0
793,179.07606823333336,179.52522026666668,71.0,60.0
794,179.83877923333336,180.06123660833336,62.0,56.0
795,179.07606823333336,180.60996480000003,55.0,58.0
796,179.58454223333334,180.60996480000003,59.0,47.0
797,180.09301623333334,180.60996480000003,67.0,48.0
798,180.60149023333335,180.72437145,71.0,67.0
799,181.10996423333336,181.67776020000002,73.0,64.0
800,181.10996423333336,181.70106525833336,69.0,69.0
801,181.10996423333336,181.73072624166667,64.0,63.0
802,181.61843823333334,182.47860675,52.0,44.0
803,181.10996423333336,182.50191180833335,45.0,67.0
804,182.12691223333334,182.56547105833334,64.0,57.0
805,182.12691223333334,182.5760642666667,57.0,45.0
806,182.12691223333334,182.69682684166668,71.0,57.0
807,182.63538623333335,182.76250473333334,73.0,67.0
808,183.14386023333336,183.63326645833334,67.0,67.0
809,183.14386023333336,183.63962238333335,62.0,61.0
810,183.14386023333336,183.66504608333335,55.0,67.0
811,183.14386023333336,183.679876575,71.0,70.0
812,183.65233423333336,184.19258785833335,73.0,73.0
813,184.16080823333334,184.19258785833335,73.0,67.0
814,184.16080823333334,184.66504495,69.0,59.0
815,184.16080823333334,184.75826518333335,64.0,58.0
816,184.16080823333334,184.80487530000002,45.0,51.0
817,184.16080823333334,185.040044525,57.0,46.0
818,185.17775623333335,185.2900442416667,66.0,48.0
819,185.17775623333335,186.05699252500003,47.0,48.0
820,185.68623023333336,186.13961955000002,54.0,46.0
821,185.17775623333335,186.31758545000002,71.0,67.0
822,185.68623023333336,186.31758545000002,71.0,70.0
823,186.19470423333334,186.62266985000002,74.0,64.0
824,186.19470423333334,186.79851710833336,59.0,44.0
825,186.70317823333335,187.19258445833336,76.0,69.0
826,186.70317823333335,187.21165223333335,61.0,60.0
827,187.21165223333335,187.28156740833336,76.0,69.0
828,187.21165223333335,187.50402478333336,74.0,63.0
829,187.21165223333335,187.53368576666668,78.0,91.0
830,187.72012623333336,188.256142575,54.0,42.0
831,188.22860023333334,188.55487105,62.0,85.0
832,188.22860023333334,188.56334561666668,66.0,76.0
833,187.97436323333335,188.60571845,59.0,45.0
834,187.21165223333335,188.75826065,47.0,70.0
835,188.73707423333335,188.86207409166667,61.0,67.0
836,188.73707423333335,188.88961643333334,64.0,76.0
837,188.99131123333336,189.082412825,62.0,88.0
838,188.48283723333336,189.09936195833336,54.0,44.0
839,188.99131123333336,189.1163110916667,66.0,93.0
840,189.49978523333334,189.59300546666668,74.0,73.0
841,189.49978523333334,189.59724275000002,66.0,73.0
842,189.24554823333335,189.67139520833334,47.0,67.0
843,189.49978523333334,189.72436125000002,54.0,46.0
844,189.75402223333336,189.832411975,74.0,67.0
845,189.75402223333336,189.86842888333334,66.0,64.0
846,189.75402223333336,190.08453033333336,59.0,55.0
847,190.00825923333335,190.1014794666667,73.0,66.0
848,190.00825923333335,190.11630995833335,64.0,69.0
849,190.26249623333334,190.36630967500002,73.0,66.0
850,190.26249623333334,190.37054695833336,64.0,78.0
851,190.00825923333335,190.4129197916667,61.0,63.0
852,190.51673323333335,190.58876705000003,71.0,63.0
853,190.51673323333335,190.61419075,62.0,72.0
854,190.77097023333334,190.92139379166667,71.0,67.0
855,190.77097023333334,190.95529205833336,62.0,80.0
856,191.02520723333336,191.19893585000003,69.0,67.0
857,191.27944423333335,191.75401996666668,43.0,72.0
858,191.53368123333334,191.77096910000003,50.0,55.0
859,191.78791823333336,192.0908839916667,55.0,49.0
860,191.27944423333335,192.0972399166667,71.0,75.0
861,191.27944423333335,192.1353754666667,67.0,85.0
862,191.27944423333335,192.32181593333334,62.0,82.0
863,192.29639223333336,192.56757836666668,59.0,58.0
864,192.04215523333335,192.57181565000002,57.0,59.0
865,192.55062923333335,192.7264764916667,62.0,61.0
866,192.80486623333334,192.98071349166668,66.0,70.0
867,193.05910323333336,193.22435728333335,69.0,64.0
868,193.31334023333335,193.81545830833335,71.0,54.0
869,193.31334023333335,194.052746175,62.0,70.0
870,193.31334023333335,194.05486481666668,67.0,64.0
871,194.33028823333336,194.484949075,62.0,80.0
872,194.07605123333335,194.62901670833335,55.0,82.0
873,194.58452523333335,194.90867740833335,62.0,80.0
874,194.58452523333335,194.9489316,67.0,99.0
875,194.58452523333335,194.9489316,71.0,99.0
876,194.83876223333334,195.01460949166668,55.0,75.0
877,193.82181423333336,195.02943998333336,50.0,54.0
878,193.56757723333334,195.056982325,43.0,64.0
879,195.09299923333336,195.209524525,62.0,54.0
880,195.34723623333335,195.52308349166668,40.0,76.0
881,195.34723623333335,196.04638798333335,64.0,80.0
882,195.34723623333335,196.06333711666667,71.0,85.0
883,195.34723623333335,196.21587931666667,67.0,85.0
884,195.34723623333335,196.328167325,74.0,66.0
885,196.10994723333334,196.66503135000002,59.0,60.0
886,196.36418423333336,196.785793925,64.0,63.0
887,195.85571023333335,196.93198020000003,52.0,59.0
888,196.87265823333334,196.97647167500003,59.0,61.0
889,196.61842123333335,196.97647167500003,67.0,75.0
890,196.61842123333335,197.00613265833334,71.0,70.0
891,197.12689523333336,197.294267925,69.0,73.0
892,197.38113223333335,197.790030075,45.0,64.0
893,197.38113223333335,197.81121649166667,69.0,72.0
894,197.38113223333335,197.81333513333334,64.0,69.0
895,197.63536923333336,197.85994525,52.0,61.0
896,197.38113223333335,197.87053845833336,73.0,73.0
897,197.88960623333335,198.19680927500002,57.0,49.0
898,198.14384323333334,198.47435133333335,76.0,75.0
899,198.14384323333334,198.49553775,69.0,80.0
900,198.14384323333334,198.49765639166668,64.0,80.0
901,198.39808023333336,198.7074019166667,61.0,66.0
902,198.65231723333335,198.99129990000003,74.0,72.0
903,198.65231723333335,199.0124863166667,66.0,80.0
904,198.65231723333335,199.0124863166667,69.0,85.0
905,198.90655423333334,199.0167236,61.0,73.0
906,198.14384323333334,199.06333371666668,59.0,53.0
907,199.16079123333336,199.36418083333336,71.0,67.0
908,199.41502823333335,199.71375670833336,64.0,69.0
909,199.41502823333335,199.72646855833335,69.0,76.0
910,199.41502823333335,199.74553633333335,73.0,72.0
911,199.92350223333335,200.12901047500003,66.0,78.0
912,199.66926523333336,200.25189169166669,61.0,56.0
913,200.17773923333334,200.29426452500002,66.0,52.0
914,200.17773923333334,200.54638288333334,71.0,72.0
915,200.43197623333336,200.73917927500003,61.0,58.0
916,199.41502823333335,200.79426395833335,54.0,63.0
917,200.68621323333335,200.87477234166667,66.0,76.0
918,200.94045023333334,201.09722971666667,69.0,67.0
919,201.44892423333334,201.61417828333336,42.0,60.0
920,201.70316123333336,202.04002525833334,54.0,70.0
921,201.19468723333335,202.14807598333334,69.0,73.0
922,201.19468723333335,202.15231326666668,76.0,72.0
923,201.19468723333335,202.2222284416667,64.0,93.0
924,202.46587223333336,202.59299073333335,64.0,91.0
925,202.55061790000002,202.72010923333335,69.0,66.0
926,202.72010923333335,202.82180403333336,71.0,91.0
927,202.8048549,203.01248178333336,74.0,63.0
928,202.21163523333334,203.0167190666667,61.0,43.0
929,201.95739823333335,203.14595620833336,57.0,62.0
930,203.0167190666667,203.22222730833334,76.0,91.0
931,203.22858323333335,203.46587110000002,78.0,76.0
932,203.33451531666668,203.51248121666669,81.0,70.0
933,203.48282023333334,203.68197255,83.0,69.0
934,203.48282023333334,203.89171807500003,47.0,75.0
935,203.73705723333336,203.97222645833335,54.0,60.0
936,203.48282023333334,204.1989211166667,78.0,88.0
937,203.99129423333335,204.29425999166668,59.0,49.0
938,204.24553123333334,204.4404462666667,73.0,57.0
939,204.24553123333334,204.4595140416667,76.0,75.0
940,204.49976823333336,204.65231043333335,74.0,80.0
941,204.49976823333336,204.77095436666667,78.0,73.0
942,204.24553123333334,204.90654743333334,61.0,60.0
943,204.49976823333336,204.90654743333334,62.0,69.0
944,204.75400523333334,204.92773385,64.0,63.0
945,205.00824223333336,205.10781839166668,74.0,93.0
946,205.00824223333336,205.12900480833335,81.0,82.0
947,205.51671623333334,205.93620728333335,47.0,67.0
948,205.77095323333336,206.02307159166668,54.0,63.0
949,205.51671623333334,206.1184104666667,78.0,93.0
950,205.51671623333334,206.13535960000002,74.0,88.0
951,206.02519023333335,206.32603735,59.0,73.0
952,206.27942723333337,206.3853593166667,76.0,78.0
953,206.27942723333337,206.39383388333334,73.0,63.0
954,206.53366423333335,206.74764704166668,73.0,82.0
955,206.53366423333335,206.80061308333336,76.0,95.0
956,206.78790123333334,207.07815514166668,74.0,82.0
957,206.53366423333335,207.0845110666667,62.0,73.0
958,206.27942723333337,207.09086699166667,61.0,58.0
959,206.78790123333334,207.09722291666668,78.0,82.0
960,207.04213823333336,207.158663525,64.0,70.0
961,207.29637523333335,207.33451078333334,78.0,50.0
962,207.29637523333335,207.4150191666667,73.0,54.0
963,207.29637523333335,207.60357827500002,76.0,88.0
964,207.55061223333334,207.75612047500002,74.0,88.0
965,207.55061223333334,207.8027305916667,71.0,85.0
966,208.31332323333336,208.4891704916667,59.0,85.0
967,208.05908623333335,208.63959405000003,55.0,85.0
968,208.56756023333335,208.84086500833334,59.0,70.0
969,208.56756023333335,208.89383105000002,62.0,82.0
970,208.82179723333334,209.13959348333336,55.0,66.0
971,207.55061223333334,209.36416950000003,43.0,76.0
972,209.07603423333336,209.43196603333334,59.0,85.0
973,209.33027123333335,209.46586430000002,62.0,55.0
974,207.80484923333336,209.51035577500002,50.0,73.0
975,209.58450823333334,210.0781517416667,67.0,72.0
976,209.58450823333334,210.09298223333334,62.0,72.0
977,209.58450823333334,210.27730405833336,59.0,58.0
978,210.34721923333336,210.5421342666667,59.0,80.0
979,210.60145623333335,210.74552386666667,62.0,62.0
980,210.09298223333334,210.8472186666667,55.0,91.0
981,209.58450823333334,211.12687936666669,43.0,72.0
982,209.83874523333336,211.1713708416667,50.0,64.0
983,210.85569323333334,211.54001449166668,66.0,72.0
984,211.10993023333336,211.54213313333335,55.0,63.0
985,211.61840423333337,211.8768785166667,62.0,78.0
986,211.61840423333337,211.9467936916667,67.0,70.0
987,212.38111523333336,212.57391162500002,66.0,78.0
988,211.87264123333335,212.72645382500002,59.0,59.0
989,212.12687823333334,212.9319620666667,64.0,72.0
990,212.63535223333335,213.044250075,67.0,80.0
991,212.88958923333334,213.08662290833334,59.0,57.0
992,211.61840423333337,213.10992796666667,52.0,72.0
993,213.14382623333336,213.55272407500001,71.0,91.0
994,213.65230023333336,214.0887404166667,45.0,67.0
995,213.90653723333335,214.1268759666667,52.0,58.0
996,213.65230023333336,214.22433348333334,64.0,70.0
997,213.65230023333336,214.24763854166667,69.0,85.0
998,213.65230023333336,214.25823175000002,76.0,78.0
999,214.16077423333334,214.5018755416667,57.0,67.0
1000,214.41501123333336,214.531536525,69.0,66.0
1001,214.41501123333336,214.54424837500002,74.0,76.0
1002,214.41501123333336,214.54848565833336,66.0,64.0
1003,214.66924823333335,214.83450228333336,66.0,66.0
1004,214.66924823333335,214.98280720000002,74.0,75.0
1005,214.41501123333336,214.99551905,59.0,54.0
1006,214.66924823333335,215.00823090000003,69.0,61.0
1007,214.66924823333335,215.26670518333336,61.0,61.0
1008,215.17772223333336,215.31331530000003,64.0,70.0
1009,215.17772223333336,215.319671225,59.0,69.0
1010,215.43195923333334,215.61204377500002,64.0,45.0
1011,215.17772223333336,215.66289117500003,73.0,85.0
1012,215.68619623333336,215.87263670000002,69.0,69.0
1013,215.68619623333336,216.23280578333336,76.0,75.0
1014,215.94043323333335,216.4573818,61.0,54.0
1015,216.19467023333334,216.72644929166668,66.0,69.0
1016,216.44890723333336,216.81331360000001,69.0,76.0
1017,216.44890723333336,216.8853474166667,73.0,76.0
1018,216.70314423333335,217.0188218416667,61.0,56.0
1019,216.95738123333336,217.30695710833336,64.0,67.0
1020,217.21161823333335,217.31331303333334,61.0,70.0
1021,216.95738123333336,217.32178760000002,71.0,55.0
1022,215.68619623333336,217.3429740166667,54.0,70.0
1023,217.46585523333334,217.92771911666668,69.0,82.0
1024,217.46585523333334,218.01034614166667,64.0,70.0
1025,217.97432923333335,218.34932880833335,49.0,50.0
1026,218.48280323333336,218.57814210833334,66.0,73.0
1027,218.48280323333336,218.58661667500002,78.0,76.0
1028,218.22856623333334,218.59720988333336,54.0,76.0
1029,218.73704023333335,218.8217859,66.0,69.0
1030,218.73704023333335,218.85780280833336,78.0,80.0
1031,218.99127723333336,219.09085339166668,81.0,80.0
1032,218.99127723333336,219.09509067500002,69.0,62.0
1033,217.72009223333336,219.2942429916667,42.0,73.0
1034,218.73704023333335,219.32178533333337,49.0,62.0
1035,219.24551423333335,219.35568360000002,69.0,60.0
1036,219.24551423333335,219.37051409166668,81.0,72.0
1037,219.24551423333335,219.56754776666668,54.0,61.0
1038,219.49975123333334,219.62051380833336,71.0,54.0
1039,219.49975123333334,219.62051380833336,83.0,64.0
1040,219.75398823333336,220.09508954166668,83.0,73.0
1041,219.75398823333336,220.27093680000002,71.0,67.0
1042,220.51669923333336,220.8005972166667,62.0,80.0
1043,220.77093623333334,221.0675460666667,64.0,58.0
1044,221.02517323333336,221.141698525,66.0,61.0
1045,221.27941023333335,221.5442404416667,71.0,82.0
1046,221.53364723333334,221.7476300416667,73.0,44.0
1047,221.78788423333336,221.91288409166668,74.0,57.0
1048,222.04212123333335,222.30059551666668,78.0,75.0
1049,222.29635823333336,222.54635795000002,83.0,33.0
1050,222.55059523333335,222.75398483333336,85.0,54.0
1051,222.80483223333334,223.05271330833335,86.0,52.0
1052,223.05906923333336,223.29423845833335,85.0,57.0
1053,220.26246223333337,223.42771288333336,59.0,55.0
1054,220.00822523333335,223.50398398333334,54.0,58.0
1055,223.31330623333335,223.51033990833335,83.0,49.0
1056,219.75398823333336,223.53152632500002,47.0,70.0
1057,223.56754323333334,223.73279728333335,78.0,57.0
1058,223.79211925,224.31754238333335,71.0,54.0
1059,223.78788196666667,224.32389830833336,67.0,53.0
1060,224.34932200833336,224.78364355000002,69.0,46.0
1061,224.31966102500002,224.85355872500003,66.0,41.0
1062,224.33237287500003,224.88957563333335,59.0,33.0
1063,224.80694860833336,225.15016855833335,67.0,49.0
1064,224.81330453333337,225.27516841666667,71.0,44.0
1065,224.83449095000003,225.36627000833334,64.0,33.0
1066,225.8408457416667,226.06330311666667,78.0,53.0
1067,225.3387276666667,226.10991323333334,59.0,35.0
1068,226.10991323333334,226.28576049166668,71.0,35.0
1069,225.86626944166667,226.50398058333334,64.0,33.0
1070,226.35991295000002,226.56118390833336,76.0,54.0
1071,226.59931945833335,226.84931917500003,74.0,48.0
1072,226.58872625,227.24338652500003,59.0,7.0
1073,226.85779374166668,227.268810225,73.0,51.0
1074,226.874742875,227.33448811666668,64.0,44.0
1075,227.38109823333335,227.52304722500003,59.0,49.0
1076,223.7815260416667,227.53364043333335,52.0,58.0
1077,227.8938095166667,228.3133005666667,47.0,63.0
1078,228.13957195000003,228.35355475833336,54.0,51.0
1079,227.90652136666668,228.45736820000002,74.0,62.0
1080,228.38957166666668,228.68406285833336,59.0,41.0
1081,228.63321545833335,229.06329971666668,61.0,50.0
1082,228.89592702500002,229.1014352666667,62.0,66.0
1083,229.17346908333334,229.366265475,66.0,54.0
1084,229.42770608333336,229.61838383333335,73.0,63.0
1085,229.67346851666667,229.90651910000003,74.0,58.0
1086,229.92134959166668,230.26456954166667,71.0,54.0
1087,230.92558574166668,231.2878734666667,66.0,48.0
1088,229.91075638333336,231.336602225,47.0,52.0
1089,230.40651853333335,231.3514327166667,54.0,37.0
1090,230.9234671,231.3768564166667,69.0,44.0
1091,230.92982302500002,231.40863604166668,62.0,43.0
1092,230.90228068333334,231.44465295000003,59.0,44.0
1093,231.93405917500002,232.8577869416667,67.0,53.0
1094,231.9425337416667,232.85990558333336,71.0,45.0
1095,232.49338057500003,232.9573631,59.0,28.0
1096,232.9531258166667,233.51032857500002,66.0,48.0
1097,232.9467698916667,233.52092178333336,64.0,37.0
1098,232.9531258166667,233.612023375,69.0,49.0
1099,233.99337887500002,234.35990388333335,64.0,36.0
1100,233.96159925,234.38744622500002,67.0,48.0
1101,233.9510060416667,234.3895648666667,71.0,41.0
1102,233.4552438916667,234.40863264166669,59.0,38.0
1103,231.91922868333336,234.47219189166668,52.0,61.0
1104,235.00185230833335,235.43405520833335,64.0,48.0
1105,235.01880144166668,235.56117370833334,69.0,48.0
1106,235.56964827500002,235.63744480833336,61.0,61.0
1107,234.99973366666669,235.67346171666668,54.0,61.0
1108,236.05905450000003,236.6967656416667,69.0,58.0
1109,236.07600363333336,236.7539689666667,64.0,51.0
1110,236.59507084166668,237.3514259166667,54.0,36.0
1111,237.14168039166668,237.49549355000002,64.0,39.0
1112,237.13956175,237.60142563333335,71.0,48.0
1113,237.67345945000002,238.404390825,54.0,37.0
1114,238.17981480833336,238.42769588333334,73.0,54.0
1115,238.1776961666667,238.4891364916667,76.0,59.0
1116,238.6861701666667,238.80269545833335,73.0,55.0
1117,238.69464473333335,238.84083100833337,81.0,57.0
1118,236.0548172166667,239.4043896916667,42.0,70.0
1119,238.734898925,239.54633868333335,54.0,34.0
1120,239.3408304416667,239.78786383333335,85.0,50.0
1121,239.91921961666668,240.069643175,86.0,56.0
1122,240.76667628333337,240.98489637500003,61.0,48.0
1123,240.96370995833337,241.0632861166667,62.0,54.0
1124,241.1522690666667,241.30269262500002,66.0,67.0
1125,241.35142138333336,241.5971838166667,71.0,53.0
1126,241.55904826666668,241.7243023166667,73.0,58.0
1127,241.78150564166668,241.99972573333335,74.0,70.0
1128,242.014556225,242.2370136,78.0,62.0
1129,242.26455594166669,242.50819973333336,83.0,44.0
1130,242.52726750833335,242.80904685000002,85.0,41.0
1131,242.8556569666667,243.12684310000003,86.0,39.0
1132,243.20947012500002,243.65226623333336,78.0,53.0
1133,243.60989340000003,243.87896089166668,90.0,33.0
1134,244.08658777500003,244.575994,81.0,39.0
1135,244.5654007916667,244.98277320000003,93.0,32.0
1136,245.06328158333335,246.13955155000002,83.0,25.0
1137,245.70734865000003,246.2052294416667,95.0,32.0
1138,240.32811745833337,246.20946672500003,54.0,45.0
1139,240.57599853333335,246.22641585833335,59.0,45.0
1140,239.9509992416667,246.3132801666667,47.0,57.0
