,start,end,pitch,velocity
0,19.33574774166667,19.557761827083333,60.0,74.0
1,19.559627491666667,20.0036556625,69.0,92.0
2,20.007386991666667,20.145446170833335,67.0,54.0
3,20.23126674166667,20.895443333333333,67.0,89.0
4,20.902905991666668,21.01484586666667,65.0,69.0
5,21.126785741666666,22.568944464583335,65.0,79.0
6,22.917823741666666,23.132375168750002,60.0,82.0
7,23.141703491666668,23.544687041666666,69.0,86.0
8,23.589462991666668,23.69207454375,67.0,44.0
9,23.813342741666666,24.471922339583333,67.0,95.0
10,24.484981991666668,24.58759354375,65.0,73.0
11,24.708861741666666,25.992438975000002,65.0,86.0
12,26.499899741666667,26.733107814583335,60.0,75.0
13,26.72377949166667,27.119300383333336,69.0,95.0
14,27.17153899166667,27.289075860416666,67.0,74.0
15,27.395418741666667,27.949521122916668,67.0,88.0
16,28.06705799166667,28.143550239583334,65.0,56.0
17,28.290937741666667,28.581981416666668,70.0,112.0
18,28.738697241666667,29.748021781250003,69.0,99.0
19,30.081975741666668,30.22936324375,65.0,81.0
20,30.30585549166667,30.6603317625,72.0,85.0
21,30.75361499166667,30.871151860416667,69.0,99.0
22,30.977494741666668,31.248016106250002,67.0,88.0
23,31.425254241666668,32.72189112708333,65.0,90.0
24,32.544652991666666,33.813304908333336,62.0,86.0
25,33.88793149166667,34.26106440833333,72.0,102.0
26,34.33569099166667,34.4438995375,69.0,83.0
27,34.55957074166667,34.84128609375,67.0,82.0
28,35.007330241666665,35.19576236458334,65.0,92.0
29,35.45508974166667,36.99799435208333,67.0,89.0
30,40.82820374166667,41.05021782708334,60.0,74.0
31,41.05208349166667,41.4961116625,69.0,92.0
32,41.49984299166667,41.637902170833335,67.0,54.0
33,41.72372274166667,42.38789933333334,67.0,89.0
34,42.39536199166667,42.507301866666666,65.0,69.0
35,42.61924174166667,44.061400464583336,65.0,79.0
36,44.41027974166667,44.62483116875,60.0,82.0
37,44.634159491666665,45.03714304166667,69.0,86.0
38,45.08191899166667,45.18453054375,67.0,44.0
39,45.30579874166667,45.964378339583334,67.0,95.0
40,45.97743799166667,46.08004954375,65.0,73.0
41,46.20131774166667,47.484894975,65.0,86.0
42,47.99235574166667,48.22556381458334,60.0,75.0
43,48.216235491666666,48.611756383333336,69.0,95.0
44,48.66399499166667,48.78153186041667,67.0,74.0
45,48.88787474166667,49.44197712291667,67.0,88.0
46,49.55951399166667,49.63600623958334,65.0,56.0
47,49.78339374166667,50.07443741666667,70.0,112.0
48,50.23115324166667,51.24047778125,69.0,99.0
49,51.57443174166667,51.721819243750005,65.0,81.0
50,51.79831149166667,52.152787762500004,72.0,85.0
51,52.24607099166667,52.36360786041667,69.0,99.0
52,52.46995074166667,52.74047210625,67.0,88.0
53,52.91771024166667,54.214347127083336,65.0,90.0
54,54.03710899166667,55.30576090833333,62.0,86.0
55,55.38038749166667,55.75352040833334,72.0,102.0
56,55.82814699166667,55.9363555375,69.0,83.0
57,56.052026741666666,56.333742093750004,67.0,82.0
58,56.72366599166667,56.91209811458334,65.0,92.0
59,56.947545741666666,58.490450352083336,65.0,89.0
60,58.96246349166667,59.26656681875,72.0,107.0
61,59.41022299166667,59.52216286666667,69.0,89.0
62,59.634102741666666,59.904624106250004,67.0,85.0
63,60.08186224166667,60.559472375000006,65.0,89.0
64,61.20126099166667,61.45126004583334,62.0,77.0
65,61.42514074166667,62.576255789583335,60.0,77.0
66,63.66393824166667,63.89341498541667,60.0,96.0
67,63.88781799166667,64.16580201458333,65.0,81.0
68,64.11169774166667,64.37475644791667,67.0,90.0
69,64.33557749166667,64.71990439583334,69.0,95.0
70,64.78333699166667,64.8691575625,69.0,86.0
71,65.00721674166667,65.52587149583334,69.0,122.0
72,65.45497624166667,65.74975124583334,70.0,95.0
73,65.90273574166667,66.37288321666666,69.0,90.0
74,66.35049524166666,67.15646234166667,67.0,79.0
75,67.46989399166667,67.62847548125,67.0,92.0
76,67.69377374166667,67.79638529375,69.0,95.0
77,67.91765349166667,68.26839843333333,70.0,112.0
78,68.36541299166667,68.44936789791667,69.0,85.0
79,68.58929274166667,69.15458911041667,67.0,89.0
80,69.48481174166668,69.57436364166666,65.0,77.0
81,69.70869149166667,69.91951158958334,65.0,79.0
82,69.93257124166666,70.34115178541667,69.0,82.0
83,70.38033074166667,72.02584690416667,67.0,90.0
84,73.29076749166667,73.58554249583334,67.0,102.0
85,73.73852699166667,73.857929525,65.0,82.0
86,73.96240674166667,74.57994171875,67.0,90.0
87,74.63404599166667,74.74971719583334,65.0,93.0
88,74.85792574166668,78.46798671041667,65.0,85.0
89,80.45491949166667,80.8541717125,65.0,96.0
90,80.90267899166668,81.27954323750001,67.0,112.0
91,81.35043849166667,81.88028723333333,69.0,97.0
92,81.79819799166667,82.1526742625,72.0,97.0
93,82.24595749166667,82.57618012291667,74.0,102.0
94,82.69371699166668,83.05565592083333,72.0,102.0
95,83.14147649166667,83.49035576875,69.0,99.0
96,83.58923599166667,84.17505467083333,74.0,107.0
97,84.48475499166668,84.86161923750001,72.0,100.0
98,84.93251449166667,85.26087145833334,69.0,100.0
99,85.38027399166667,86.260867675,74.0,127.0
100,86.27579299166668,87.46795266041667,72.0,85.0
101,87.61907149166667,87.89145852083334,74.0,127.0
102,88.06683099166668,88.3093673875,72.0,112.0
103,88.51459049166667,88.83361913541667,77.0,127.0
104,88.96234999166667,89.88398829583333,69.0,117.0
105,89.85786899166666,90.25338988333334,67.0,107.0
106,90.30562849166667,90.68435840208333,72.0,102.0
107,90.75338799166667,91.87278674166667,69.0,100.0
108,91.64890699166666,91.92875667916667,67.0,97.0
109,92.09666649166667,92.38024750833334,72.0,112.0
110,92.54442599166667,93.44554198541667,69.0,122.0
111,94.78322349166667,95.09478947708334,65.0,107.0
112,95.23098299166666,95.56120562291667,67.0,122.0
113,95.67874249166667,96.05374107291667,69.0,96.0
114,96.12650199166667,96.45112762916668,72.0,112.0
115,96.57426149166668,97.27015438125001,74.0,127.0
116,97.02202099166666,97.30746767291667,72.0,117.0
117,97.46978049166667,97.77201815416667,69.0,100.0
118,97.91753999166667,98.484702025,74.0,122.0
119,98.81305899166667,99.10037133750001,72.0,100.0
120,99.26081849166667,99.59104112291666,69.0,107.0
121,99.70857799166667,100.64887294166667,73.0,127.0
122,100.60409699166667,101.02387152291666,72.0,117.0
123,101.05185649166667,101.39700443958334,70.0,112.0
124,101.49961599166667,102.12647929166667,70.0,127.0
125,102.39513499166667,102.74214860416667,77.0,112.0
126,102.84289449166667,103.1302068375,79.0,117.0
127,103.29065399166667,104.09662109166668,77.0,99.0
128,104.18617299166667,104.842886925,72.0,92.0
129,105.08169199166667,105.90071874375,72.0,122.0
130,105.97721099166667,106.55183568333334,69.0,117.0
131,106.64885024166666,106.80370040208334,67.0,88.0
132,106.87272999166667,107.85780089166667,65.0,99.0
133,109.11152749166668,109.40070550208334,65.0,102.0
134,109.55928699166667,109.85406199583333,67.0,93.0
135,110.00704649166667,110.27010519791668,69.0,102.0
136,110.45480599166667,111.52010046875,62.0,102.0
137,111.35032499166667,112.40069415208333,65.0,100.0
138,112.69360349166668,113.00890080625001,65.0,102.0
139,113.14136299166667,113.44919764791668,67.0,100.0
140,113.58912249166667,113.90441980625,69.0,102.0
141,114.03688199166668,114.738371875,70.0,112.0
142,114.70852124166667,114.96411728958334,69.0,99.0
143,114.93240099166667,115.86896461250001,67.0,102.0
144,116.27567949166666,116.87269215833334,69.0,102.0
145,117.17119849166667,117.424928875,67.0,107.0
146,117.39507824166667,118.79246101458334,65.0,72.0
147,133.96217974166666,134.18419382708333,60.0,74.0
148,134.18605949166667,134.63008766250002,69.0,92.0
149,134.6338189916667,134.77187817083333,67.0,54.0
150,134.85769874166667,135.52187533333333,67.0,89.0
151,135.52933799166667,135.64127786666668,65.0,69.0
152,135.75321774166667,137.19537646458335,65.0,79.0
153,137.54425574166666,137.75880716875,60.0,82.0
154,137.76813549166667,138.17111904166669,69.0,86.0
155,138.21589499166666,138.31850654375,67.0,44.0
156,138.43977474166667,139.09835433958335,67.0,95.0
157,139.11141399166667,139.21402554375,65.0,73.0
158,139.33529374166667,140.618870975,65.0,86.0
159,141.12633174166666,141.35953981458334,60.0,75.0
160,141.35021149166667,141.74573238333335,69.0,95.0
161,141.79797099166666,141.91550786041668,67.0,74.0
162,142.02185074166667,142.57595312291667,67.0,88.0
163,142.69348999166667,142.76998223958333,65.0,56.0
164,142.91736974166668,143.20841341666667,70.0,112.0
165,143.36512924166666,144.37445378125,69.0,99.0
166,144.70840774166666,144.85579524375,65.0,81.0
167,144.93228749166667,145.28676376250002,72.0,85.0
168,145.38004699166666,145.49758386041668,69.0,99.0
169,145.60392674166667,145.87444810625001,67.0,88.0
170,146.0516862416667,147.34832312708335,65.0,90.0
171,147.17108499166667,148.43973690833334,62.0,86.0
172,148.51436349166667,148.88749640833333,72.0,102.0
173,148.96212299166666,149.0703315375,69.0,83.0
174,149.18600274166667,149.46771809375,67.0,82.0
175,149.85764199166667,150.04607411458335,65.0,92.0
176,150.08152174166668,151.62442635208333,65.0,89.0
177,152.09643949166667,152.40054281875,72.0,107.0
178,152.54419899166666,152.65613886666668,69.0,89.0
179,152.76807874166667,153.03860010625002,67.0,85.0
180,153.21583824166666,153.693448375,65.0,89.0
181,154.33523699166668,154.58523604583334,62.0,77.0
182,154.55911674166668,155.71023178958333,60.0,77.0
183,156.79791424166666,157.02739098541667,60.0,96.0
184,157.02179399166667,157.29977801458335,65.0,81.0
185,157.24567374166668,157.50873244791669,67.0,90.0
186,157.4695534916667,157.85388039583333,69.0,95.0
187,157.91731299166668,158.0031335625,69.0,86.0
188,158.14119274166669,158.65984749583333,69.0,122.0
189,158.58895224166668,158.88372724583334,70.0,95.0
190,159.03671174166666,159.50685921666667,69.0,90.0
191,159.48447124166668,160.2904383416667,67.0,79.0
192,160.60386999166667,160.76245148125,67.0,92.0
193,160.82774974166668,160.93036129375,69.0,95.0
194,161.05162949166666,161.40237443333334,70.0,112.0
195,161.49938899166668,161.58334389791668,69.0,85.0
196,161.7232687416667,162.28856511041667,67.0,89.0
197,162.61878774166667,162.70833964166667,65.0,77.0
198,162.84266749166667,163.05348758958334,65.0,79.0
199,163.06654724166668,163.47512778541667,69.0,82.0
200,163.51430674166667,165.15982290416667,67.0,90.0
201,166.42474349166667,166.71951849583334,67.0,102.0
202,166.87250299166666,166.991905525,65.0,82.0
203,167.09638274166667,167.71391771875,67.0,90.0
204,167.76802199166667,167.88369319583333,65.0,93.0
205,167.99190174166668,171.60196271041667,65.0,85.0
206,173.58889549166668,173.9881477125,65.0,96.0
207,174.03665499166667,174.4135192375,67.0,112.0
208,174.48441449166668,175.01426323333334,69.0,97.0
209,174.93217399166667,175.28665026250002,72.0,97.0
210,175.37993349166666,175.7101561229167,74.0,102.0
211,175.82769299166668,176.18963192083334,72.0,102.0
212,176.27545249166667,176.62433176875,69.0,99.0
213,176.7232119916667,177.30903067083335,74.0,107.0
214,177.61873099166667,177.9955952375,72.0,100.0
215,178.06649049166668,178.39484745833335,69.0,100.0
216,178.51424999166667,179.394843675,74.0,127.0
217,179.40976899166668,180.60192866041666,72.0,85.0
218,180.75304749166668,181.02543452083333,74.0,127.0
219,181.20080699166667,181.4433433875,72.0,112.0
220,181.64856649166668,181.96759513541667,77.0,127.0
221,182.09632599166667,183.01796429583334,69.0,117.0
222,182.99184499166668,183.38736588333333,67.0,107.0
223,183.43960449166667,183.81833440208334,72.0,102.0
224,183.88736399166666,185.00676274166668,69.0,100.0
225,184.78288299166667,185.0627326791667,67.0,97.0
226,185.23064249166669,185.51422350833334,72.0,112.0
227,185.67840199166668,186.5795179854167,69.0,122.0
228,187.91719949166668,188.22876547708333,65.0,107.0
229,188.36495899166667,188.69518162291666,67.0,122.0
230,188.8127184916667,189.18771707291668,69.0,96.0
231,189.26047799166668,189.58510362916667,72.0,112.0
232,189.70823749166667,190.40413038125,74.0,127.0
233,190.15599699166668,190.44144367291668,72.0,117.0
234,190.60375649166667,190.90599415416668,69.0,100.0
235,191.05151599166666,191.618678025,74.0,122.0
236,191.94703499166667,192.2343473375,72.0,100.0
237,192.3947944916667,192.72501712291668,69.0,107.0
238,192.84255399166668,193.78284894166669,73.0,127.0
239,193.73807299166668,194.15784752291668,72.0,117.0
240,194.18583249166667,194.53098043958335,70.0,112.0
241,194.63359199166666,195.2604552916667,70.0,127.0
242,195.52911099166667,195.87612460416668,77.0,112.0
243,195.9768704916667,196.26418283750002,79.0,117.0
244,196.42462999166668,197.23059709166668,77.0,99.0
245,197.32014899166668,197.976862925,72.0,92.0
246,198.21566799166666,199.03469474375,72.0,122.0
247,199.11118699166667,199.68581168333336,69.0,117.0
248,199.78282624166667,199.93767640208335,67.0,88.0
249,200.00670599166668,200.9917768916667,65.0,99.0
250,202.24550349166668,202.53468150208334,65.0,102.0
251,202.69326299166667,202.98803799583334,67.0,93.0
252,203.1410224916667,203.40408119791667,69.0,102.0
253,203.58878199166668,204.65407646875002,62.0,102.0
254,204.4843009916667,205.53467015208335,65.0,100.0
255,205.82757949166668,206.14287680625,65.0,102.0
256,206.27533899166667,206.58317364791668,67.0,100.0
257,206.72309849166666,207.03839580625,69.0,102.0
258,207.17085799166668,207.872347875,70.0,112.0
259,207.84249724166668,208.09809328958335,69.0,99.0
260,208.0663769916667,209.0029406125,67.0,102.0
261,209.40965549166668,210.00666815833335,69.0,102.0
262,209.85741499166667,210.19696594583334,72.0,102.0
263,210.30517449166666,210.558904875,67.0,107.0
264,210.75293399166668,210.84435155625002,65.0,99.0
265,210.9768137416667,213.67083340000002,65.0,100.0
266,245.2304154916667,245.6296677125,65.0,96.0
267,245.67817499166668,246.0550392375,67.0,112.0
268,246.12593449166667,246.65578323333335,69.0,97.0
269,246.5736939916667,246.9281702625,72.0,97.0
270,247.02145349166668,247.35167612291667,74.0,102.0
271,247.46921299166667,247.83115192083335,72.0,102.0
272,247.91697249166668,248.26585176875,69.0,99.0
273,248.36473199166667,248.95055067083334,74.0,107.0
274,249.26025099166668,249.6371152375,72.0,100.0
275,249.70801049166667,250.03636745833333,69.0,100.0
276,250.1557699916667,251.03636367500002,74.0,127.0
277,251.05128899166667,252.24344866041668,72.0,85.0
278,252.39456749166666,252.66695452083334,74.0,127.0
279,252.84232699166668,253.0848633875,72.0,112.0
280,253.29008649166667,253.6091151354167,77.0,127.0
281,253.7378459916667,254.65948429583335,69.0,117.0
282,254.63336499166667,255.02888588333334,67.0,107.0
283,255.08112449166669,255.45985440208335,72.0,102.0
284,255.52888399166667,256.64828274166666,69.0,100.0
285,256.4244029916667,256.7042526791667,67.0,97.0
286,256.8721624916667,257.15574350833333,72.0,112.0
287,257.31992199166666,258.2210379854167,69.0,122.0
288,259.5587194916667,259.87028547708337,65.0,107.0
289,260.00647899166665,260.3367016229167,67.0,122.0
290,260.4542384916667,260.82923707291667,69.0,96.0
291,260.9019979916667,261.2266236291667,72.0,112.0
292,261.34975749166665,262.04565038125,74.0,127.0
293,261.79751699166667,262.08296367291666,72.0,117.0
294,262.2452764916667,262.54751415416666,69.0,100.0
295,262.6930359916667,263.260198025,74.0,122.0
296,263.5885549916667,263.8758673375,72.0,100.0
297,264.0363144916667,264.36653712291667,69.0,107.0
298,264.48407399166666,265.42436894166667,73.0,127.0
299,265.3795929916667,265.79936752291667,72.0,117.0
300,265.82735249166666,266.17250043958336,70.0,112.0
301,266.2751119916667,266.9019752916667,70.0,127.0
302,267.17063099166666,267.51764460416666,77.0,112.0
303,267.6183904916667,267.90570283750003,79.0,117.0
304,268.0661499916667,268.87211709166667,77.0,99.0
305,268.96166899166667,269.618382925,72.0,92.0
306,269.8571879916667,270.67621474375,72.0,122.0
307,270.7527069916667,271.0773326291667,77.0,127.0
308,271.2004664916667,271.4728535208333,79.0,99.0
309,271.64822599166666,272.17807473333335,81.0,117.0
310,272.5437449916667,273.08292205625,77.0,122.0
311,273.4392639916667,273.75082997708336,77.0,117.0
312,273.8870234916667,274.19112681875004,77.0,122.0
313,274.33478299166666,274.65008030625,76.0,127.0
314,274.7825424916667,275.12209344583334,74.0,127.0
315,275.2303019916667,275.5157486729167,72.0,112.0
316,275.67806149166665,276.1463433020833,74.0,127.0
317,276.12582099166667,276.49895390833336,72.0,122.0
318,276.5735804916667,276.9597730604167,69.0,107.0
319,277.02133999166665,277.6314123104167,74.0,127.0
320,277.9168589916667,278.19484301458334,72.0,112.0
321,278.3646184916667,278.6668561541667,69.0,107.0
322,278.81237799166666,279.5250618625,74.0,127.0
323,279.7078969916667,280.4690881416667,72.0,117.0
324,281.0511754916667,281.35714448333334,74.0,127.0
325,281.49893499166666,281.7787846791667,72.0,95.0
326,281.9466944916667,282.21721585625,77.0,117.0
327,282.3944539916667,283.40750986041667,69.0,107.0
328,283.2899729916667,283.58288233125,67.0,97.0
329,283.7377324916667,284.07541778125,72.0,122.0
330,284.18549199166665,284.7843703229167,69.0,117.0
331,285.0810109916667,285.34780102708334,67.0,100.0
332,285.5287704916667,285.84779913541666,67.0,112.0
333,285.97652999166667,286.6201842729167,65.0,112.0
334,288.2153274916667,288.49704284375,65.0,100.0
335,288.66308699166666,288.92987702708336,67.0,112.0
336,289.1108464916667,289.39629317291667,69.0,107.0
337,289.5586059916667,290.215319925,62.0,100.0
338,290.4541249916667,291.57912073541667,65.0,99.0
339,291.79740349166667,292.06792485625,65.0,99.0
340,292.2451629916667,292.57165429375,67.0,107.0
341,292.6929224916667,293.00075714791666,69.0,95.0
342,293.14068199166667,293.6108294666667,70.0,112.0
343,293.5884414916667,294.01567868125,69.0,92.0
344,294.0362009916667,295.32164388958336,67.0,82.0
345,295.6033592416667,295.8832089291667,69.0,112.0
346,296.0511187416667,296.2936551375,72.0,79.0
347,296.49887824166666,296.7619369479167,67.0,90.0
348,296.7227579916667,299.8234925291667,65.0,86.0
