,start,end,pitch,velocity
0,3.4402854916666668,4.229461610416667,64.0,72.0
1,3.4402854916666668,4.240655597916667,60.0,72.0
2,3.4402854916666668,4.335804491666667,57.0,73.0
3,4.335804491666667,5.102592635416667,64.0,59.0
4,4.335804491666667,5.124980610416667,57.0,54.0
5,4.335804491666667,5.128711939583334,60.0,56.0
6,5.231323491666667,5.9440073625,64.0,63.0
7,5.231323491666667,5.947738691666667,60.0,60.0
8,5.231323491666667,5.953335685416667,57.0,56.0
9,6.126842491666667,6.602586960416667,60.0,85.0
10,6.126842491666667,6.6604225625,64.0,69.0
11,3.4402854916666668,6.720123829166667,41.0,72.0
12,6.574601991666667,7.139898360416667,57.0,70.0
13,7.022361491666667,7.75183634375,64.0,66.0
14,7.022361491666667,7.766761660416667,61.0,77.0
15,7.917880491666667,8.6529523375,64.0,63.0
16,7.917880491666667,8.68093730625,61.0,61.0
17,7.917880491666667,8.688399964583335,57.0,64.0
18,8.813399491666667,9.522352033333334,57.0,56.0
19,8.813399491666667,9.550337002083333,64.0,64.0
20,8.813399491666667,9.565262318750001,61.0,66.0
21,7.022361491666667,10.083917072916668,41.0,64.0
22,9.708918491666667,10.1529466625,61.0,96.0
23,9.708918491666667,10.166006314583333,57.0,72.0
24,9.708918491666667,10.184662960416667,64.0,79.0
25,10.604437491666667,11.358165983333334,64.0,65.0
26,10.604437491666667,11.369359970833333,57.0,64.0
27,10.604437491666667,11.384285287500001,60.0,65.0
28,11.499956491666667,12.248087989583334,57.0,50.0
29,11.499956491666667,12.276072958333334,64.0,55.0
30,11.499956491666667,12.277938622916666,60.0,53.0
31,12.395475491666668,13.117487685416668,57.0,56.0
32,12.395475491666668,13.143606989583335,64.0,57.0
33,12.395475491666668,13.1529353125,60.0,58.0
34,13.290994491666668,13.764873295833334,60.0,89.0
35,13.290994491666668,13.796589593750001,64.0,76.0
36,10.604437491666667,14.063379629166667,41.0,67.0
37,14.186513491666668,14.867481064583334,64.0,69.0
38,14.186513491666668,14.92718233125,61.0,76.0
39,13.738753991666668,14.968226952083334,57.0,69.0
40,15.082032491666668,15.785388039583333,64.0,63.0
41,15.082032491666668,15.807776014583334,61.0,60.0
42,15.082032491666668,15.828298325,57.0,53.0
43,17.768589491666667,18.152916395833333,65.0,82.0
44,15.977551491666667,18.186498358333335,61.0,47.0
45,15.977551491666667,18.192095352083335,57.0,46.0
46,15.977551491666667,18.193961016666666,64.0,52.0
47,14.186513491666668,18.210751997916667,37.0,61.0
48,17.99246924166667,18.240602631250002,60.0,56.0
49,18.44022874166667,18.641720516666666,60.0,56.0
50,18.216348991666667,18.751794727083333,57.0,51.0
51,18.664108491666667,19.01298776875,65.0,69.0
52,18.88798824166667,19.141718625,60.0,63.0
53,19.33574774166667,19.542836510416667,60.0,55.0
54,19.111867991666667,19.634254075,57.0,56.0
55,19.78350724166667,20.024177972916668,60.0,61.0
56,19.559627491666667,20.158505822916666,65.0,67.0
57,20.23126674166667,20.427161522916666,60.0,64.0
58,20.007386991666667,20.557758043750002,57.0,64.0
59,20.67902624166667,20.94768194166667,60.0,61.0
60,20.455146491666667,20.981263904166667,65.0,72.0
61,17.768589491666667,21.182755679166668,41.0,65.0
62,21.126785741666666,21.270441914583333,60.0,56.0
63,20.902905991666668,21.58760489375,57.0,71.0
64,21.350665491666668,21.699544768750002,65.0,73.0
65,21.574545241666666,21.846932270833335,61.0,52.0
66,22.022304741666666,22.2872291125,61.0,59.0
67,21.798424991666668,22.380512341666666,57.0,71.0
68,22.246184491666668,22.591332439583333,65.0,77.0
69,22.470064241666666,22.731257283333335,61.0,53.0
70,22.693943991666668,23.236852385416668,57.0,63.0
71,23.141703491666668,23.509239414583334,65.0,75.0
72,23.365583241666666,23.667820904166668,61.0,48.0
73,23.813342741666666,24.016700181250002,61.0,59.0
74,23.589462991666668,24.152893695833335,57.0,58.0
75,24.261102241666666,24.550280252083333,61.0,71.0
76,24.037222491666668,24.734981045833333,65.0,71.0
77,21.350665491666668,24.80027930625,41.0,65.0
78,24.708861741666666,24.84878658541667,61.0,58.0
79,24.484981991666668,25.03908437291667,57.0,73.0
80,24.93274149166667,25.268561116666667,65.0,72.0
81,25.156621241666667,25.4327396,62.0,59.0
82,25.604380741666667,25.802141187500002,62.0,59.0
83,25.38050099166667,25.904752739583333,57.0,69.0
84,26.052140241666667,26.31146761875,62.0,62.0
85,25.82826049166667,26.395422525,65.0,69.0
86,26.499899741666667,26.692063193750002,62.0,52.0
87,26.27601999166667,26.774152435416667,57.0,52.0
88,26.72377949166667,27.102509402083335,65.0,69.0
89,26.947659241666667,27.203255289583335,62.0,64.0
90,27.395418741666667,27.593179187500002,62.0,57.0
91,27.17153899166667,27.652880454166667,57.0,58.0
92,27.61929849166667,27.962580775000003,65.0,73.0
93,27.843178241666667,28.06705799166667,62.0,72.0
94,24.93274149166667,28.401011952083334,41.0,55.0
95,28.290937741666667,28.451384895833336,62.0,67.0
96,28.06705799166667,28.58757841041667,57.0,78.0
97,28.51481749166667,28.854368445833334,65.0,74.0
98,28.738697241666667,29.03533791041667,63.0,86.0
99,29.186456741666667,29.4066051625,63.0,69.0
100,28.96257699166667,29.50735105,57.0,72.0
101,29.41033649166667,29.738693458333334,65.0,75.0
102,29.634216241666667,29.927125581250003,63.0,78.0
103,30.081975741666668,30.31145248541667,63.0,59.0
104,29.85809599166667,30.41966103125,57.0,71.0
105,30.30585549166667,30.781599960416667,65.0,72.0
106,30.529735241666668,30.783465625,63.0,69.0
107,30.977494741666668,31.1976431625,63.0,63.0
108,30.75361499166667,31.313314366666667,57.0,53.0
109,31.425254241666668,31.686447283333333,63.0,78.0
110,28.51481749166667,32.10435615,41.0,70.0
111,31.64913399166667,32.13047545416667,57.0,75.0
112,31.873013741666668,32.14353510625,63.0,70.0
113,31.20137449166667,32.16219175208334,65.0,74.0
114,32.32077324166667,32.58010061875,62.0,68.0
115,32.544652991666666,32.91218891458333,58.0,52.0
116,32.76853274166667,33.03532277708334,62.0,67.0
117,32.99241249166667,33.10994936041667,58.0,24.0
118,33.216292241666665,33.44576898541667,62.0,69.0
119,32.99241249166667,33.66591740625,65.0,65.0
120,33.66405174166667,33.889797156250005,62.0,59.0
121,33.440171991666666,34.01106535416667,58.0,37.0
122,33.88793149166667,34.31143735208334,65.0,55.0
123,34.111811241666665,34.34875064375,62.0,59.0
124,34.55957074166667,34.79464447916667,62.0,67.0
125,34.33569099166667,34.90098736041667,58.0,44.0
126,35.007330241666665,35.19203103541667,62.0,52.0
127,32.09689349166667,35.376731829166665,46.0,70.0
128,34.78345049166667,35.49240303333333,65.0,52.0
129,35.45508974166667,35.69202914375,62.0,55.0
130,35.23120999166667,35.757327404166666,58.0,38.0
131,35.902849241666665,36.1677736125,61.0,73.0
132,35.67896949166667,36.290907475000004,65.0,53.0
133,36.35060874166667,36.645383745833335,61.0,43.0
134,36.12672899166667,36.6826970375,58.0,67.0
135,36.798368241666665,37.03903897291667,61.0,40.0
136,36.57448849166667,37.22373976666667,65.0,66.0
137,35.67896949166667,37.47000749166667,46.0,68.0
138,37.02224799166667,37.47000749166667,58.0,38.0
139,37.24612774166667,37.47000749166667,61.0,45.0
140,37.47000749166667,39.26664248541667,58.0,43.0
141,37.47000749166667,39.26664248541667,65.0,50.0
142,37.47000749166667,39.26850815,61.0,55.0
143,37.47000749166667,39.2797021375,46.0,49.0
144,39.484925241666666,39.751715277083335,60.0,60.0
145,39.93268474166667,40.16402715,60.0,74.0
146,39.70880499166667,40.255444714583334,57.0,59.0
147,40.380444241666666,40.662159593750005,60.0,76.0
148,40.15656449166667,40.723726525000004,65.0,92.0
149,40.60432399166667,41.02409852291667,57.0,72.0
150,40.82820374166667,41.09499377708333,60.0,69.0
151,41.275963241666666,41.56700691666667,60.0,69.0
152,41.05208349166667,41.68081245625,65.0,86.0
153,41.49984299166667,41.93827416875,57.0,60.0
154,41.72372274166667,41.94573682708334,60.0,67.0
155,41.94760249166667,42.3244667375,65.0,81.0
156,42.171482241666666,42.425212625,60.0,69.0
157,39.26104549166667,42.712524970833336,41.0,73.0
158,42.39536199166667,42.84312149166667,57.0,75.0
159,42.61924174166667,42.84312149166667,60.0,70.0
160,43.06700124166667,43.39349254375,61.0,89.0
161,43.51476074166667,43.757297137500004,61.0,72.0
162,43.29088099166667,43.848714702083335,57.0,66.0
163,43.96252024166667,44.261026575,61.0,63.0
164,43.73864049166667,44.41587673541667,65.0,79.0
165,44.18639999166667,44.76102468333333,57.0,70.0
166,44.85803924166667,45.14721725208334,61.0,75.0
167,44.634159491666665,45.223709500000005,65.0,75.0
168,45.30579874166667,45.52035016875,61.0,61.0
169,45.08191899166667,45.5931110875,57.0,78.0
170,42.84312149166667,45.91587106041667,41.0,72.0
171,45.75355824166667,46.048333245833334,61.0,78.0
172,46.20131774166667,46.48489875833334,61.0,68.0
173,45.97743799166667,46.5334060375,57.0,81.0
174,45.529678491666665,46.53713736666667,65.0,73.0
175,46.64907724166667,46.943852245833334,62.0,73.0
176,47.09683674166667,47.328179150000004,62.0,63.0
177,46.87295699166667,47.408402727083335,57.0,69.0
178,47.54459624166667,47.80765494791667,62.0,61.0
179,47.320716491666666,47.960639443750004,65.0,85.0
180,47.99235574166667,48.22929514375,62.0,59.0
181,47.76847599166667,48.37108565208334,57.0,65.0
182,48.216235491666666,48.54086112916667,65.0,78.0
183,48.44011524166667,48.757278220833335,62.0,69.0
184,48.66399499166667,49.03899357291667,57.0,72.0
185,48.88787474166667,49.15653044166667,62.0,69.0
186,49.33563424166667,49.52593202916667,62.0,78.0
187,46.425197491666665,49.78152807708334,41.0,72.0
188,49.78339374166667,50.087497068750004,62.0,74.0
189,49.111754491666666,50.21995925416667,65.0,93.0
190,49.55951399166667,50.22928757708333,57.0,76.0
191,50.23115324166667,50.56510720208333,63.0,89.0
192,50.67891274166667,50.95876242916667,63.0,63.0
193,50.45503299166667,51.1229409125,57.0,73.0
194,51.12667224166667,51.4139845875,63.0,72.0
195,50.902792491666666,51.46435753125,65.0,77.0
196,51.57443174166667,51.841221777083334,63.0,73.0
197,51.35055199166667,51.91398269583333,57.0,72.0
198,52.02219124166667,52.309503587500004,63.0,72.0
199,51.79831149166667,52.354279537500005,65.0,78.0
200,52.46995074166667,52.73114378333334,63.0,77.0
201,52.24607099166667,52.78338239166667,57.0,71.0
202,50.007273491666666,52.78711372083333,41.0,78.0
203,52.91771024166667,53.16584363125,63.0,78.0
204,52.69383049166667,53.55390186458334,65.0,82.0
205,53.36546974166667,53.60987180208333,63.0,69.0
206,53.14158999166667,53.663976075,57.0,86.0
207,53.81322924166667,54.15091453125,62.0,82.0
208,54.03710899166667,54.5371071,58.0,47.0
209,54.26098874166667,54.5706890625,62.0,58.0
210,54.70874824166667,54.95688163125,62.0,59.0
211,54.48486849166667,55.05762751875,65.0,71.0
212,55.15650774166667,55.38038749166667,62.0,59.0
213,54.93262799166667,55.48113337916667,58.0,53.0
214,55.38038749166667,55.788968035416666,65.0,58.0
215,55.60426724166667,55.826281327083336,62.0,47.0
216,56.052026741666666,56.272175162500005,62.0,64.0
217,55.82814699166667,56.367324056250006,58.0,48.0
218,56.49978624166667,56.630382762500005,62.0,64.0
219,53.58934949166667,57.06321694583333,46.0,95.0
220,56.947545741666666,57.11732121875,62.0,70.0
221,56.72366599166667,57.30388767708334,58.0,63.0
222,56.27590649166667,57.469931825,65.0,60.0
223,57.39530524166667,57.69754290416667,61.0,60.0
224,57.843064741666666,58.13410841666667,61.0,60.0
225,57.61918499166667,58.19007835416667,58.0,62.0
226,58.29082424166667,58.55015161875,61.0,67.0
227,58.06694449166667,58.768434375000005,65.0,70.0
228,58.738583741666666,59.02403042291667,61.0,56.0
229,58.51470399166667,59.08000036041667,58.0,72.0
230,59.18634324166667,59.484849575000005,61.0,66.0
231,58.96246349166667,59.63969973541667,65.0,59.0
232,59.634102741666666,59.897161447916666,61.0,67.0
233,59.41022299166667,59.8990271125,58.0,73.0
234,57.17142549166667,60.10798154583333,46.0,77.0
235,60.08186224166667,60.346786612500004,61.0,70.0
236,59.85798249166667,60.68633756666667,65.0,66.0
237,60.30574199166667,60.76096415,58.0,69.0
238,60.529621741666666,60.77962079583334,61.0,50.0
239,60.97738124166667,61.26842491666667,60.0,55.0
240,61.42514074166667,61.64902049166667,60.0,61.0
241,61.20126099166667,61.76655736041667,57.0,58.0
242,61.87290024166667,62.119167966666666,60.0,69.0
243,60.75350149166667,62.46618157916667,45.0,72.0
244,61.64902049166667,62.52215151666667,65.0,82.0
245,62.09677999166667,62.63595705625,57.0,69.0
246,62.32065974166667,62.79453854583333,60.0,58.0
247,62.76841924166667,63.10423886666667,57.0,50.0
248,62.99229899166667,63.296402318750005,60.0,56.0
249,63.21617874166667,63.52774472708334,57.0,63.0
250,62.54453949166667,63.68072922291667,45.0,68.0
251,63.66393824166667,63.940056600000005,60.0,74.0
252,63.44005849166667,64.28333888333334,65.0,88.0
253,64.11169774166667,64.32251783958334,60.0,70.0
254,63.88781799166667,64.60423319166667,57.0,76.0
255,64.55945724166666,64.89341120208334,62.0,75.0
256,65.00721674166667,65.20124585833334,62.0,64.0
257,64.78333699166667,65.34863336041667,57.0,72.0
258,65.45497624166667,65.75161691041667,62.0,70.0
259,64.33557749166667,66.02400393958334,38.0,72.0
260,65.23109649166668,66.15646612500001,65.0,81.0
261,65.67885599166667,66.19564508125,57.0,76.0
262,65.90273574166667,66.29639096875,62.0,60.0
263,66.35049524166666,66.66952388541667,57.0,52.0
264,66.57437499166667,66.87474698958333,62.0,64.0
265,66.12661549166667,67.05385078958334,38.0,64.0
266,66.79825474166667,67.12101471458334,57.0,71.0
267,67.24601424166667,67.55198323333333,57.0,71.0
268,67.02213449166666,67.80757928125,65.0,85.0
269,67.46989399166667,67.81131061041667,62.0,72.0
270,67.69377374166667,67.83183292083334,57.0,81.0
271,68.36541299166667,68.89339606875001,58.0,85.0
272,68.58929274166667,69.20496205416667,62.0,63.0
273,67.91765349166667,69.64525889583334,46.0,78.0
274,68.14153324166666,69.70309449791667,53.0,55.0
275,69.03705224166667,69.77398975208334,58.0,88.0
276,69.48481174166668,70.21055526458333,62.0,81.0
277,68.81317249166666,70.21801792291667,70.0,89.0
278,69.26093199166667,70.23667456875,65.0,72.0
279,70.38033074166667,70.64898644166666,62.0,66.0
280,70.15645099166667,70.6676430875,58.0,90.0
281,69.93257124166666,70.947492775,53.0,67.0
282,70.82809024166667,70.98294040208333,58.0,81.0
283,69.70869149166667,71.03331334583334,46.0,71.0
284,70.60421049166666,71.1154025875,65.0,76.0
285,71.27584974166668,71.45868487083334,65.0,60.0
286,71.05196999166667,71.47920718125,62.0,77.0
287,71.94748899166667,72.4362931125,48.0,66.0
288,72.17136874166667,72.86539596666667,55.0,62.0
289,71.49972949166667,73.11166369166666,36.0,72.0
290,71.72360924166667,73.25158853541667,43.0,58.0
291,72.61912824166667,73.32621511875,48.0,52.0
292,72.39524849166666,73.99972003333333,64.0,71.0
293,72.84300799166667,74.02024234375,60.0,64.0
294,73.29076749166667,74.28703237916667,36.0,72.0
295,73.06688774166668,74.29636070208333,55.0,72.0
296,73.73852699166667,74.56128507291668,48.0,60.0
297,74.18628649166666,74.97359694583334,64.0,89.0
298,74.63404599166667,75.08180549166667,55.0,67.0
299,75.30568524166667,75.60605723958334,60.0,65.0
300,75.75344474166667,75.95866784583333,60.0,66.0
301,75.52956499166667,76.0295631,57.0,58.0
302,76.20120424166667,76.46053161875,60.0,71.0
303,75.08180549166667,76.70679934375,41.0,71.0
304,76.64896374166668,76.902694125,60.0,66.0
305,76.42508399166667,77.06314127916667,57.0,61.0
306,75.97732449166666,77.15455884375001,65.0,77.0
307,77.09672324166667,77.41388622083333,61.0,45.0
308,77.54448274166667,77.78888480208333,61.0,67.0
309,77.32060299166668,77.88589936041667,57.0,74.0
310,77.99224224166667,78.22358465,61.0,79.0
311,76.87284349166667,78.56500126875001,41.0,69.0
312,78.44000174166666,78.68440380208334,61.0,57.0
313,78.21612199166667,78.81873165208334,57.0,63.0
314,77.76836249166666,78.84485095625,65.0,86.0
315,78.88776124166667,79.16574526458334,62.0,57.0
316,79.11164099166668,79.56313182083333,57.0,71.0
317,79.33552074166667,79.5780571375,62.0,64.0
318,79.78328024166667,80.01835397916668,62.0,72.0
319,78.66388149166667,80.26835303333334,41.0,63.0
320,80.23103974166666,80.47544180208334,62.0,71.0
321,79.55940049166666,80.6862619,65.0,88.0
322,80.00715999166667,80.71611253333333,57.0,82.0
323,80.67879924166667,81.00529054375001,63.0,72.0
324,81.12655874166667,81.40827409375001,63.0,82.0
325,80.90267899166668,81.48290067708334,57.0,90.0
326,81.57431824166667,81.84110827708334,63.0,93.0
327,80.45491949166667,81.87095891041668,41.0,79.0
328,81.79819799166667,82.141480275,57.0,99.0
329,81.35043849166667,82.22730084583334,65.0,102.0
330,82.02207774166666,82.25342015,63.0,99.0
331,82.69371699166668,83.1825211125,58.0,102.0
332,82.91759674166667,83.24222237916668,62.0,100.0
333,82.24595749166667,83.9101303,46.0,92.0
334,82.46983724166667,83.96423457291667,53.0,64.0
335,83.36535624166667,84.11721906875,58.0,100.0
336,83.58923599166667,84.50527730208334,65.0,88.0
337,83.81311574166666,84.648933475,62.0,95.0
338,84.70863474166667,84.97542477708333,65.0,83.0
339,84.48475499166668,85.02766338541667,58.0,95.0
340,84.26087524166667,85.32616971875001,53.0,62.0
341,85.15639424166667,85.32616971875001,58.0,96.0
342,84.03699549166667,85.41199028958334,46.0,78.0
343,85.38027399166667,85.76833222500001,65.0,90.0
344,85.60415374166666,85.82803349166667,62.0,93.0
345,86.27579299166668,86.57803065416667,62.0,75.0
346,86.49967274166667,86.58362764791667,65.0,86.0
347,86.05191324166667,86.83362670208334,58.0,61.0
348,85.82803349166667,87.51832560416668,46.0,100.0
349,86.94743224166668,87.648922125,58.0,72.0
350,87.17131199166667,87.65078778958333,62.0,77.0
351,87.39519174166666,87.9735477625,70.0,79.0
352,86.72355249166667,87.98847307916667,65.0,93.0
353,88.06683099166668,88.53884413125,62.0,81.0
354,87.84295124166667,88.56309777083334,58.0,77.0
355,88.29071074166667,88.5780230875,65.0,79.0
356,88.73847024166668,88.87839508541667,58.0,82.0
357,87.61907149166667,88.90078306041667,46.0,83.0
358,88.51459049166667,89.01085727083334,70.0,96.0
359,88.96234999166667,89.39891550416667,65.0,93.0
360,89.18622974166666,89.439960125,62.0,92.0
361,89.85786899166666,90.4138370375,53.0,76.0
362,90.08174874166667,90.72540302291667,57.0,83.0
363,90.52950824166668,90.80935792916667,53.0,74.0
364,89.41010949166667,91.05002866041667,41.0,71.0
365,89.63398924166667,91.24032644791667,48.0,53.0
366,90.97726774166667,91.66942930208334,57.0,86.0
367,90.30562849166667,91.67129496666666,65.0,97.0
368,90.75338799166667,91.78510050625,60.0,81.0
369,91.64890699166666,91.9586073125,53.0,85.0
370,91.87278674166667,91.9698013,60.0,36.0
371,91.42502724166667,92.20674070208334,48.0,58.0
372,92.32054624166668,92.43062045208333,48.0,77.0
373,91.20114749166667,92.4735307375,41.0,65.0
374,91.87278674166667,92.48099339583334,57.0,86.0
375,92.54442599166667,92.88397694583334,60.0,86.0
376,92.09666649166667,92.93061856041668,65.0,100.0
377,92.76830574166667,93.12278201250001,57.0,83.0
378,93.43994499166666,93.96233107500001,50.0,81.0
379,93.66382474166667,94.22165845208333,57.0,81.0
380,92.99218549166667,94.633970325,38.0,78.0
381,93.21606524166667,94.82426811250001,45.0,63.0
382,94.11158424166668,94.84852175208334,50.0,74.0
383,94.55934374166667,95.33172887916668,57.0,69.0
384,93.88770449166667,95.33359454375001,65.0,92.0
385,94.33546399166667,95.37090783541667,62.0,85.0
386,95.23098299166666,95.77762271458333,50.0,81.0
387,95.45486274166667,95.81680167083334,57.0,86.0
388,94.78322349166667,95.93993553333334,38.0,70.0
389,95.00710324166667,95.95486085,45.0,60.0
390,95.90262224166668,96.04627841458334,50.0,82.0
391,95.67874249166667,96.19926291041666,62.0,99.0
392,96.12650199166667,96.58172415,57.0,100.0
393,95.67874249166667,96.63769408750001,65.0,97.0
394,96.35038174166667,96.67687304375,62.0,92.0
395,97.24590074166667,97.51455644166667,62.0,92.0
396,97.02202099166666,97.55373539791667,58.0,99.0
397,97.46978049166667,97.9809725875,65.0,82.0
398,96.57426149166668,98.21044933125,46.0,112.0
399,96.79814124166667,98.3391801875,53.0,51.0
400,97.69366024166668,98.56119427291667,58.0,95.0
401,97.91753999166667,98.81492465625,62.0,95.0
402,98.14141974166667,99.0555953875,65.0,76.0
403,98.81305899166667,99.38954934791667,58.0,96.0
404,99.03693874166667,99.68432435208334,62.0,77.0
405,98.58917924166667,99.76268226458333,53.0,50.0
406,98.36529949166668,100.02760663541667,46.0,92.0
407,99.70857799166667,100.11715853541666,65.0,85.0
408,99.93245774166667,100.15633749166668,62.0,93.0
409,99.48469824166668,100.18432246041667,58.0,81.0
410,100.60409699166667,101.17499035416667,58.0,89.0
411,100.82797674166667,101.4287207375,61.0,85.0
412,100.15633749166668,101.84849526875,46.0,100.0
413,100.38021724166667,101.94364416250001,53.0,65.0
414,101.27573624166666,102.15632992500001,58.0,85.0
415,101.72349574166667,102.4361796125,61.0,90.0
416,101.05185649166667,102.43804527708333,70.0,122.0
417,101.49961599166667,102.67311901458334,65.0,69.0
418,102.61901474166667,102.77386490208333,61.0,97.0
419,102.39513499166667,102.9511030375,58.0,90.0
420,102.84289449166667,103.12087851458334,61.0,97.0
421,102.17125524166667,103.21043041458334,53.0,58.0
422,103.06677424166666,103.22908706041667,58.0,97.0
423,101.94737549166668,103.29998231458333,46.0,78.0
424,102.84289449166667,103.35968358125001,70.0,107.0
425,102.84289449166667,103.45669813958334,65.0,99.0
426,103.51453374166667,103.768264125,70.0,112.0
427,103.51453374166667,103.77012978958334,65.0,69.0
428,103.29065399166667,103.78692077083333,61.0,99.0
429,104.18617299166667,104.42497805833334,57.0,88.0
430,104.41005274166668,104.65632046666667,60.0,77.0
431,103.96229324166667,104.74027537291667,52.0,55.0
432,103.73841349166668,105.31676572916668,45.0,69.0
433,104.85781224166666,105.51825750416667,52.0,58.0
434,105.30557174166667,105.65818234791666,57.0,81.0
435,105.08169199166667,105.71974927916668,60.0,88.0
436,104.63393249166667,105.77758488125001,64.0,97.0
437,105.97721099166667,106.20295640625001,57.0,92.0
438,106.20109074166668,106.48653742291667,60.0,86.0
439,105.75333124166667,106.53131337291667,52.0,53.0
440,106.64885024166666,106.79250641458334,52.0,65.0
441,105.52945149166668,106.83728236458333,45.0,81.0
442,106.42497049166667,107.22160926875,64.0,99.0
443,106.87272999166667,107.22347493333334,60.0,97.0
444,107.09660974166667,107.64884645833334,57.0,81.0
445,107.76824899166667,108.27757542291667,50.0,86.0
446,108.43988824166667,108.68615596666667,50.0,66.0
447,107.99212874166668,108.72533492291667,57.0,83.0
448,107.32048949166668,108.94548334375,38.0,86.0
449,107.54436924166667,109.141378125,45.0,63.0
450,108.66376799166667,109.67868952500001,62.0,66.0
451,108.21600849166667,109.68615218333333,65.0,95.0
452,108.88764774166667,109.70480882916667,57.0,64.0
453,109.78316674166668,109.91003193333334,57.0,52.0
454,109.78316674166668,109.93241990833334,65.0,70.0
455,109.78316674166668,109.93801690208333,62.0,74.0
456,109.55928699166667,110.11712070208334,50.0,88.0
457,109.11152749166668,110.32794080000001,38.0,66.0
458,109.33540724166667,110.40816437708334,45.0,40.0
459,110.00704649166667,110.50331327083333,62.0,112.0
460,110.23092624166667,110.574208525,50.0,86.0
461,110.00704649166667,110.88017751666668,65.0,102.0
462,110.67868574166667,110.887640175,62.0,96.0
463,110.45480599166667,111.00890837291666,57.0,92.0
464,111.35032499166667,111.65629398333334,55.0,81.0
465,111.57420474166668,111.72345790833334,62.0,70.0
466,111.57420474166668,111.73278623125,58.0,72.0
467,111.12644524166667,111.92494968333334,50.0,58.0
468,111.79808449166667,112.29621693541667,58.0,97.0
469,110.90256549166668,112.46972374166667,43.0,79.0
470,112.24584399166667,112.62084257291667,55.0,74.0
471,112.02196424166667,112.74397643541667,50.0,59.0
472,112.46972374166667,112.89322960208334,58.0,74.0
473,111.79808449166667,113.18054194791667,62.0,82.0
474,113.14136299166667,113.36897407083333,55.0,82.0
475,113.36524274166668,113.49957059166667,62.0,63.0
476,113.36524274166668,113.53501821875001,58.0,69.0
477,112.91748324166667,113.69919670208334,50.0,64.0
478,113.81300224166667,113.96412107291667,50.0,79.0
479,112.69360349166668,113.99583737083334,43.0,81.0
480,113.58912249166667,114.09844892291667,58.0,107.0
481,113.58912249166667,114.32046300833333,62.0,97.0
482,114.26076174166667,114.43799987708334,58.0,81.0
483,114.03688199166668,114.63202899375,55.0,90.0
484,114.93240099166667,115.42680210625001,48.0,85.0
485,115.15628074166668,115.499563025,55.0,67.0
486,114.48464149166666,116.07791904583334,36.0,78.0
487,115.38016049166667,116.17306793958333,64.0,92.0
488,116.05179974166667,116.21411256041667,60.0,59.0
489,115.82791999166668,116.23463487083333,55.0,69.0
490,114.70852124166667,116.28687347916667,43.0,41.0
491,116.27567949166666,117.23276542291667,36.0,73.0
492,115.60404024166667,117.37082460208333,48.0,79.0
493,116.27567949166666,117.648808625,64.0,72.0
494,116.27567949166666,117.79059913333334,55.0,69.0
495,116.27567949166666,118.06671749166667,60.0,73.0
496,118.29059724166667,118.59843189791667,60.0,63.0
497,118.73835674166668,118.92865452916668,60.0,69.0
498,118.51447699166667,119.08910168333334,57.0,64.0
499,119.18611624166667,119.47715991666666,60.0,72.0
500,118.96223649166667,119.61708476041667,65.0,83.0
501,119.63387574166667,119.86335248541667,60.0,61.0
502,119.40999599166668,120.02193397500001,57.0,55.0
503,120.08163524166667,120.35029094166667,60.0,63.0
504,119.85775549166667,120.51260376041667,65.0,74.0
505,120.52939474166668,120.7271551875,60.0,59.0
506,120.30551499166667,120.89319933541667,57.0,65.0
507,118.06671749166667,121.01073620416668,48.0,53.0
508,118.06671749166667,121.1749146875,53.0,69.0
509,118.06671749166667,121.20289965625001,41.0,48.0
510,120.97715424166667,121.26073525833334,60.0,69.0
511,120.75327449166667,121.28125756875001,65.0,77.0
512,121.42491374166667,121.58536089583333,60.0,72.0
513,121.20103399166668,121.94170283125,57.0,73.0
514,121.87267324166667,122.15065726458334,61.0,70.0
515,122.32043274166668,122.56856613125001,61.0,69.0
516,122.09655299166667,122.68237167083333,57.0,61.0
517,122.76819224166667,123.03498227708334,61.0,82.0
518,122.54431249166667,123.07229556875001,65.0,75.0
519,123.21595174166667,123.44542848541667,61.0,72.0
520,122.99207199166668,123.58162200000001,57.0,74.0
521,123.43983149166667,123.78497943958334,65.0,78.0
522,123.66371124166668,123.92676994791667,61.0,86.0
523,124.11147074166668,124.32042517500001,61.0,63.0
524,123.88759099166667,124.46221568333334,57.0,67.0
525,121.64879349166667,124.77191600416667,49.0,59.0
526,124.55923024166667,124.77191600416667,61.0,90.0
527,121.64879349166667,124.79057265,53.0,66.0
528,121.64879349166667,124.79990097291667,41.0,50.0
529,124.33535049166667,125.19169053541667,65.0,78.0
530,125.00698974166667,125.215944175,61.0,77.0
531,124.78310999166668,125.35586901875,57.0,77.0
532,125.45474924166668,125.7420615875,62.0,64.0
533,125.90250874166667,126.09653785833333,62.0,68.0
534,125.67862899166667,126.24392536041667,57.0,73.0
535,126.35026824166667,126.61705827708334,62.0,83.0
536,126.12638849166667,126.63758058750001,65.0,79.0
537,126.79802774166667,127.01257916875001,62.0,76.0
538,126.57414799166668,127.07228043541667,57.0,75.0
539,127.24578724166668,127.50138328958334,62.0,70.0
540,127.02190749166667,127.59093518958333,65.0,86.0
541,127.69354674166667,127.9136951625,62.0,67.0
542,127.46966699166667,128.02003804375,57.0,68.0
543,125.23086949166667,128.14130624166668,50.0,56.0
544,125.23086949166667,128.25324611666667,41.0,55.0
545,125.23086949166667,128.29988773125,53.0,56.0
546,128.14130624166668,128.37078298541667,62.0,76.0
547,127.91742649166667,128.63384169166667,65.0,79.0
548,128.58906574166667,128.79242318125,62.0,82.0
549,128.36518599166666,128.89876606250002,57.0,73.0
550,129.03682524166666,129.32413758750002,63.0,88.0
551,129.48458474166668,129.75883743541667,63.0,88.0
552,129.26070499166667,129.83159835416666,57.0,66.0
553,129.93234424166667,130.24017889791668,63.0,81.0
554,129.70846449166666,130.25510421458333,65.0,90.0
555,130.38010374166666,130.64316244791667,63.0,79.0
556,130.15622399166668,130.71032637291668,57.0,88.0
557,130.82786324166668,131.12263824583334,63.0,88.0
558,130.60398349166667,131.17301118958335,65.0,86.0
559,131.27562274166667,131.53681578333334,63.0,83.0
560,131.05174299166669,131.63569600625001,57.0,77.0
561,131.72338224166668,132.02748556875,63.0,88.0
562,128.81294549166668,132.25323098333334,51.0,66.0
563,128.81294549166668,132.25509664791667,41.0,43.0
564,128.81294549166668,132.26815630000002,53.0,42.0
565,131.94726199166666,132.37076785208333,57.0,83.0
566,132.17114174166667,132.41927513125,63.0,83.0
567,131.49950249166668,132.42114079583334,65.0,85.0
568,132.61890124166666,132.88569127708334,60.0,60.0
569,133.06666074166668,133.29800315,60.0,74.0
570,133.29054049166666,133.29800315,60.0,75.0
571,132.84278099166667,133.38942071458334,57.0,59.0
572,133.51442024166667,133.79613559375,60.0,76.0
573,133.29054049166666,133.857702525,65.0,75.0
574,132.39502149166668,133.96217974166666,41.0,73.0
575,133.73829999166668,134.15807452291668,57.0,72.0
576,133.96217974166666,134.18605949166667,41.0,73.0
577,133.96217974166666,134.22896977708334,60.0,74.0
578,134.18605949166667,134.6338189916667,41.0,74.0
579,134.40993924166668,134.70098291666667,60.0,69.0
580,134.6338189916667,135.07225016875,57.0,72.0
581,134.85769874166667,135.07971282708334,60.0,72.0
582,135.08157849166668,135.4584427375,65.0,72.0
583,135.08157849166668,135.52933799166667,60.0,72.0
584,135.30545824166668,135.52933799166667,60.0,69.0
585,134.6338189916667,135.75321774166667,41.0,72.0
586,135.52933799166667,135.97709749166668,57.0,75.0
587,135.75321774166667,135.97709749166668,60.0,70.0
588,136.20097724166666,136.52746854375002,61.0,70.0
589,136.64873674166668,136.8912731375,61.0,68.0
590,136.87261649166666,136.8912731375,61.0,75.0
591,136.42485699166667,136.98269070208335,57.0,68.0
592,137.09649624166667,137.395002575,61.0,63.0
593,135.97709749166668,137.54425574166666,41.0,73.0
594,136.87261649166666,137.54985273541666,65.0,79.0
595,137.54425574166666,137.76626982708333,61.0,58.0
596,137.54425574166666,137.76813549166667,41.0,73.0
597,137.32037599166668,137.89500068333334,57.0,70.0
598,137.76813549166667,138.21589499166666,41.0,74.0
599,137.99201524166668,138.28119325208334,61.0,75.0
600,138.43977474166667,138.65432616875,61.0,81.0
601,138.21589499166666,138.7270870875,57.0,82.0
602,138.66365449166668,138.88753424166669,61.0,81.0
603,138.88753424166669,139.18230924583335,61.0,78.0
604,138.21589499166666,139.33529374166667,41.0,72.0
605,139.33529374166667,139.61887475833333,61.0,68.0
606,139.11141399166667,139.6673820375,57.0,81.0
607,138.66365449166668,139.67111336666667,65.0,80.0
608,139.78305324166666,140.07782824583333,62.0,73.0
609,140.23081274166668,140.46215515,62.0,63.0
610,140.45469249166666,140.46215515,62.0,70.0
611,140.00693299166667,140.54237872708333,57.0,69.0
612,140.67857224166667,140.94163094791668,62.0,69.0
613,140.45469249166666,141.09461544375,65.0,70.0
614,139.55917349166668,141.12633174166666,41.0,73.0
615,141.12633174166666,141.35021149166667,41.0,73.0
616,141.12633174166666,141.36327114375,62.0,59.0
617,140.90245199166668,141.50506165208333,57.0,68.0
618,141.35021149166667,141.79797099166666,41.0,74.0
619,141.57409124166668,141.89125422083333,62.0,69.0
620,141.79797099166666,142.17296957291668,57.0,72.0
621,142.02185074166667,142.29050644166668,62.0,77.0
622,142.24573049166668,142.29050644166668,62.0,77.0
623,142.4696102416667,142.65990802916667,62.0,76.0
624,141.79797099166666,142.91736974166668,41.0,72.0
625,142.91736974166668,143.22147306875002,62.0,74.0
626,142.24573049166668,143.3539352541667,65.0,76.0
627,142.69348999166667,143.36326357708333,57.0,76.0
628,143.36512924166666,143.69908320208333,63.0,73.0
629,143.81288874166668,144.03676849166666,63.0,73.0
630,144.03676849166666,144.09273842916667,63.0,73.0
631,144.03676849166666,144.09273842916667,63.0,73.0
632,143.58900899166667,144.2569169125,57.0,71.0
633,144.26064824166667,144.5479605875,63.0,72.0
634,144.03676849166666,144.59833353125,65.0,74.0
635,143.14124949166668,144.70840774166666,41.0,73.0
636,144.70840774166666,144.93228749166667,41.0,73.0
637,144.70840774166666,144.97519777708334,63.0,73.0
638,144.48452799166668,145.04795869583333,57.0,72.0
639,144.93228749166667,145.38004699166666,41.0,74.0
640,145.15616724166668,145.4434795875,63.0,72.0
641,145.60392674166667,145.86511978333334,63.0,80.0
642,145.82780649166668,145.86511978333334,63.0,80.0
643,145.38004699166666,145.91735839166668,57.0,71.0
644,146.0516862416667,146.29981963125002,63.0,81.0
645,145.38004699166666,146.49944574166668,41.0,72.0
646,145.82780649166668,146.68787786458333,65.0,80.0
647,146.49944574166668,146.74384780208334,63.0,69.0
648,146.27556599166667,146.797952075,57.0,81.0
649,146.94720524166667,147.28489053125,62.0,82.0
650,147.17108499166667,147.6710831,58.0,47.0
651,147.39496474166668,147.7046650625,62.0,71.0
652,147.61884449166666,147.7046650625,62.0,71.0
653,147.84272424166667,148.09085763125,62.0,71.0
654,147.61884449166666,148.19160351875001,65.0,71.0
655,146.72332549166669,148.29048374166666,46.0,73.0
656,148.29048374166666,148.51436349166667,46.0,73.0
657,148.29048374166666,148.51436349166667,62.0,59.0
658,148.06660399166668,148.61510937916668,58.0,71.0
659,148.73824324166668,148.96025732708333,62.0,47.0
660,148.51436349166667,148.96212299166666,46.0,74.0
661,149.18600274166667,149.4061511625,62.0,70.0
662,148.96212299166666,149.50130005625002,58.0,48.0
663,149.40988249166668,149.63376224166666,62.0,70.0
664,149.63376224166666,149.7643587625,62.0,70.0
665,148.96212299166666,150.08152174166668,46.0,72.0
666,150.08152174166668,150.25129721875,62.0,70.0
667,149.85764199166667,150.43786367708333,58.0,68.0
668,149.40988249166668,150.603907825,65.0,70.0
669,150.52928124166667,150.83151890416667,61.0,60.0
670,150.97704074166668,151.26808441666668,61.0,70.0
671,151.20092049166666,151.26808441666668,61.0,70.0
672,150.75316099166668,151.32405435416666,58.0,62.0
673,151.42480024166667,151.68412761875,61.0,70.0
674,150.3054014916667,151.87255974166666,46.0,73.0
675,151.20092049166666,151.90241037500002,65.0,70.0
676,151.87255974166666,152.09643949166667,46.0,73.0
677,151.87255974166666,152.15800642291669,61.0,56.0
678,151.64867999166668,152.21397636041667,58.0,72.0
679,152.09643949166667,152.54419899166666,46.0,74.0
680,152.32031924166668,152.61882557500002,61.0,66.0
681,152.76807874166667,153.03113744791668,61.0,73.0
682,152.99195849166668,153.03113744791668,61.0,73.0
683,152.54419899166666,153.0330031125,58.0,73.0
684,153.21583824166666,153.4807626125,61.0,73.0
685,152.54419899166666,153.66359774166668,46.0,72.0
686,152.99195849166668,153.82031356666667,65.0,73.0
687,153.43971799166667,153.89494015,58.0,69.0
688,153.66359774166668,153.91359679583334,61.0,50.0
689,154.11135724166667,154.40240091666666,60.0,55.0
690,154.55911674166668,154.78299649166667,60.0,73.0
691,154.33523699166668,154.90053336041666,57.0,58.0
692,154.78299649166667,155.00687624166667,60.0,73.0
693,155.00687624166667,155.25314396666667,60.0,74.0
694,153.8874774916667,155.45463574166666,45.0,73.0
695,154.78299649166667,155.6561275166667,64.0,73.0
696,155.45463574166666,155.67851549166667,45.0,73.0
697,155.23075599166668,155.76993305625,57.0,69.0
698,155.45463574166666,155.92851454583334,60.0,58.0
699,155.67851549166667,156.12627499166666,45.0,74.0
700,155.90239524166668,156.23821486666668,57.0,73.0
701,156.12627499166666,156.43037831875,60.0,73.0
702,156.35015474166667,156.66172072708335,57.0,73.0
703,156.57403449166668,156.79791424166666,60.0,74.0
704,156.79791424166666,157.0740326,60.0,74.0
705,156.12627499166666,157.24567374166668,45.0,73.0
706,156.57403449166668,157.41731488333335,64.0,74.0
707,157.24567374166668,157.45649383958335,60.0,70.0
708,157.02179399166667,157.73820919166667,57.0,76.0
709,157.69343324166667,158.02738720208333,62.0,75.0
710,158.14119274166669,158.33522185833334,62.0,74.0
711,157.91731299166668,158.48260936041666,57.0,72.0
712,158.36507249166667,158.58895224166668,62.0,74.0
713,158.58895224166668,158.88559291041668,62.0,74.0
714,157.4695534916667,159.15797993958333,38.0,72.0
715,158.36507249166667,159.290442125,65.0,74.0
716,158.81283199166668,159.32962108125,57.0,76.0
717,159.03671174166666,159.43036696875,62.0,60.0
718,159.48447124166668,159.80349988541667,57.0,52.0
719,159.70835099166666,160.00872298958333,62.0,73.0
720,159.26059149166667,160.18782678958334,38.0,64.0
721,159.93223074166667,160.25499071458333,57.0,73.0
722,160.15611049166668,160.37999024166666,62.0,73.0
723,160.37999024166666,160.68595923333334,57.0,73.0
724,160.15611049166668,160.94155528125,65.0,73.0
725,160.60386999166667,160.94528661041667,62.0,72.0
726,160.82774974166668,160.96580892083335,57.0,81.0
727,161.49938899166668,162.02737206875,58.0,85.0
728,161.7232687416667,162.33893805416668,62.0,63.0
729,161.05162949166666,162.77923489583333,46.0,78.0
730,161.27550924166667,162.83707049791667,53.0,55.0
731,162.17102824166668,162.90796575208333,58.0,88.0
732,162.61878774166667,163.34453126458334,62.0,81.0
733,161.94714849166667,163.35199392291668,70.0,89.0
734,162.39490799166668,163.37065056875,65.0,72.0
735,163.51430674166667,163.78296244166668,62.0,66.0
736,163.29042699166666,163.8016190875,58.0,90.0
737,163.06654724166668,164.08146877500002,53.0,67.0
738,163.96206624166666,164.11691640208335,58.0,81.0
739,162.84266749166667,164.16728934583335,46.0,71.0
740,163.73818649166668,164.24937858750002,65.0,76.0
741,164.40982574166668,164.59266087083333,65.0,60.0
742,164.18594599166667,164.61318318125,62.0,77.0
743,165.08146499166668,165.5702691125,48.0,66.0
744,165.3053447416667,165.99937196666667,55.0,62.0
745,164.63370549166666,166.24563969166667,36.0,72.0
746,164.85758524166667,166.38556453541668,43.0,58.0
747,165.75310424166668,166.46019111875,48.0,52.0
748,165.52922449166667,167.13369603333334,64.0,71.0
749,165.97698399166669,167.15421834375002,60.0,64.0
750,166.42474349166667,167.42100837916666,36.0,72.0
751,166.20086374166667,167.43033670208334,55.0,72.0
752,166.87250299166666,167.69526107291668,48.0,60.0
753,167.32026249166668,168.10757294583334,64.0,89.0
754,167.76802199166667,168.21578149166666,55.0,67.0
755,168.43966124166667,168.74003323958334,60.0,65.0
756,168.8874207416667,169.09264384583335,60.0,66.0
757,168.66354099166668,169.1635391,57.0,58.0
758,169.33518024166668,169.59450761875001,60.0,71.0
759,168.21578149166666,169.84077534375,41.0,71.0
760,169.78293974166667,170.036670125,60.0,66.0
761,169.5590599916667,170.19711727916666,57.0,61.0
762,169.11130049166667,170.28853484375,65.0,77.0
763,170.23069924166668,170.54786222083334,61.0,45.0
764,170.67845874166667,170.92286080208333,61.0,67.0
765,170.45457899166666,171.01987536041668,57.0,74.0
766,171.12621824166666,171.35756065,61.0,79.0
767,170.00681949166668,171.69897726875,41.0,69.0
768,171.57397774166668,171.81837980208334,61.0,57.0
769,171.35009799166667,171.95270765208335,57.0,63.0
770,170.90233849166668,171.97882695625,65.0,86.0
771,172.02173724166667,172.29972126458335,62.0,57.0
772,172.24561699166668,172.69710782083334,57.0,71.0
773,172.46949674166666,172.71203313750001,62.0,64.0
774,172.91725624166668,173.15232997916667,62.0,72.0
775,171.79785749166666,173.40232903333333,41.0,63.0
776,173.36501574166667,173.60941780208333,62.0,71.0
777,172.69337649166667,173.8202379,65.0,88.0
778,173.1411359916667,173.85008853333335,57.0,82.0
779,173.81277524166669,174.13926654375,63.0,72.0
780,174.26053474166667,174.54225009375,63.0,82.0
781,174.03665499166667,174.61687667708335,57.0,90.0
782,174.70829424166666,174.97508427708334,63.0,93.0
783,173.58889549166668,175.00493491041667,41.0,79.0
784,174.93217399166667,175.275456275,57.0,99.0
785,174.48441449166668,175.36127684583334,65.0,102.0
786,175.15605374166668,175.38739615,63.0,99.0
787,175.82769299166668,176.3164971125,58.0,102.0
788,176.05157274166666,176.37619837916668,62.0,100.0
789,175.37993349166666,177.0441063,46.0,92.0
790,175.60381324166667,177.09821057291668,53.0,64.0
791,176.49933224166668,177.25119506875,58.0,100.0
792,176.7232119916667,177.63925330208335,65.0,88.0
793,176.94709174166667,177.782909475,62.0,95.0
794,177.84261074166668,178.10940077708335,65.0,83.0
795,177.61873099166667,178.16163938541666,58.0,95.0
796,177.3948512416667,178.46014571875,53.0,62.0
797,178.29037024166666,178.46014571875,58.0,96.0
798,177.17097149166668,178.54596628958333,46.0,78.0
799,178.51424999166667,178.902308225,65.0,90.0
800,178.73812974166668,178.96200949166666,62.0,93.0
801,179.40976899166668,179.7120066541667,62.0,75.0
802,179.63364874166666,179.71760364791666,65.0,86.0
803,179.18588924166667,179.96760270208335,58.0,61.0
804,178.96200949166666,180.65230160416667,46.0,100.0
805,180.08140824166668,180.782898125,58.0,72.0
806,180.3052879916667,180.78476378958334,62.0,77.0
807,180.52916774166667,181.1075237625,70.0,79.0
808,179.85752849166667,181.12244907916667,65.0,93.0
809,181.20080699166667,181.67282013125,62.0,81.0
810,180.9769272416667,181.69707377083333,58.0,77.0
811,181.42468674166668,181.7119990875,65.0,79.0
812,181.87244624166667,182.01237108541667,58.0,82.0
813,180.75304749166668,182.03475906041666,46.0,83.0
814,181.64856649166668,182.14483327083335,70.0,96.0
815,182.09632599166667,182.53289150416668,65.0,93.0
816,182.32020574166668,182.57393612500002,62.0,92.0
817,182.99184499166668,183.54781303750002,53.0,76.0
818,183.21572474166666,183.85937902291667,57.0,83.0
819,183.66348424166668,183.94333392916667,53.0,74.0
820,182.54408549166666,184.18400466041666,41.0,71.0
821,182.76796524166667,184.37430244791668,48.0,53.0
822,184.11124374166667,184.80340530208335,57.0,86.0
823,183.43960449166667,184.80527096666668,65.0,97.0
824,183.88736399166666,184.91907650625,60.0,81.0
825,184.78288299166667,185.0925833125,53.0,85.0
826,185.00676274166668,185.10377730000002,60.0,36.0
827,184.5590032416667,185.34071670208334,48.0,58.0
828,185.45452224166667,185.56459645208335,48.0,77.0
829,184.33512349166668,185.60750673750002,41.0,65.0
830,185.00676274166668,185.61496939583333,57.0,86.0
831,185.67840199166668,186.01795294583334,60.0,86.0
832,185.23064249166669,186.06459456041668,65.0,100.0
833,185.90228174166668,186.2567580125,57.0,83.0
834,186.57392099166668,187.096307075,50.0,81.0
835,186.79780074166666,187.35563445208334,57.0,81.0
836,186.12616149166666,187.767946325,38.0,78.0
837,186.35004124166667,187.9582441125,45.0,63.0
838,187.24556024166668,187.98249775208333,50.0,74.0
839,187.69331974166667,188.46570487916668,57.0,69.0
840,187.02168049166667,188.46757054375,65.0,92.0
841,187.46943999166666,188.50488383541668,62.0,85.0
842,188.36495899166667,188.91159871458333,50.0,81.0
843,188.58883874166668,188.95077767083333,57.0,86.0
844,187.91719949166668,189.07391153333333,38.0,70.0
845,188.1410792416667,189.08883685,45.0,60.0
846,189.03659824166667,189.18025441458335,50.0,82.0
847,188.8127184916667,189.33323891041667,62.0,99.0
848,189.26047799166668,189.71570015,57.0,100.0
849,188.8127184916667,189.7716700875,65.0,97.0
850,189.48435774166668,189.81084904375,62.0,92.0
851,190.37987674166666,190.64853244166667,62.0,92.0
852,190.15599699166668,190.68771139791667,58.0,99.0
853,190.60375649166667,191.1149485875,65.0,82.0
854,189.70823749166667,191.34442533125,46.0,112.0
855,189.93211724166667,191.4731561875,53.0,51.0
856,190.82763624166668,191.69517027291667,58.0,95.0
857,191.05151599166666,191.94890065625,62.0,95.0
858,191.27539574166667,192.1895713875,65.0,76.0
859,191.94703499166667,192.5235253479167,58.0,96.0
860,192.17091474166668,192.81830035208336,62.0,77.0
861,191.7231552416667,192.89665826458335,53.0,50.0
862,191.49927549166668,193.16158263541666,46.0,92.0
863,192.84255399166668,193.25113453541667,65.0,85.0
864,193.06643374166669,193.29031349166667,62.0,93.0
865,192.61867424166667,193.31829846041668,58.0,81.0
866,193.73807299166668,194.30896635416667,58.0,89.0
867,193.96195274166666,194.5626967375,61.0,85.0
868,193.29031349166667,194.98247126875,46.0,100.0
869,193.51419324166667,195.0776201625,53.0,65.0
870,194.40971224166668,195.290305925,58.0,85.0
871,194.85747174166667,195.5701556125,61.0,90.0
872,194.18583249166667,195.57202127708334,70.0,122.0
873,194.63359199166666,195.80709501458335,65.0,69.0
874,195.75299074166668,195.90784090208334,61.0,97.0
875,195.52911099166667,196.0850790375,58.0,90.0
876,195.9768704916667,196.25485451458334,61.0,97.0
877,195.30523124166666,196.34440641458335,53.0,58.0
878,196.20075024166667,196.36306306041666,58.0,97.0
879,195.08135149166668,196.43395831458335,46.0,78.0
880,195.9768704916667,196.49365958125,70.0,107.0
881,195.9768704916667,196.59067413958334,65.0,99.0
882,196.6485097416667,196.90224012500002,70.0,112.0
883,196.6485097416667,196.90410578958335,65.0,69.0
884,196.42462999166668,196.92089677083334,61.0,99.0
885,197.32014899166668,197.55895405833334,57.0,88.0
886,197.54402874166666,197.7902964666667,60.0,77.0
887,197.09626924166668,197.8742513729167,52.0,55.0
888,196.87238949166667,198.45074172916668,45.0,69.0
889,197.99178824166668,198.65223350416667,52.0,58.0
890,198.43954774166667,198.79215834791668,57.0,81.0
891,198.21566799166666,198.85372527916667,60.0,88.0
892,197.76790849166667,198.91156088125,64.0,97.0
893,199.11118699166667,199.33693240625,57.0,92.0
894,199.33506674166668,199.62051342291667,60.0,86.0
895,198.88730724166666,199.66528937291667,52.0,53.0
896,199.78282624166667,199.92648241458335,52.0,65.0
897,198.66342749166668,199.97125836458335,45.0,81.0
898,199.5589464916667,200.35558526875002,64.0,99.0
899,200.00670599166668,200.35745093333335,60.0,97.0
900,200.2305857416667,200.78282245833333,57.0,81.0
901,200.90222499166669,201.4115514229167,50.0,86.0
902,201.57386424166668,201.82013196666668,50.0,66.0
903,201.12610474166667,201.85931092291668,57.0,83.0
904,200.45446549166667,202.07945934375002,38.0,86.0
905,200.67834524166668,202.275354125,45.0,63.0
906,201.79774399166666,202.812665525,62.0,66.0
907,201.34998449166667,202.82012818333334,65.0,95.0
908,202.02162374166667,202.83878482916668,57.0,64.0
909,202.91714274166668,203.04400793333335,57.0,52.0
910,202.91714274166668,203.06639590833333,65.0,70.0
911,202.91714274166668,203.07199290208334,62.0,74.0
912,202.69326299166667,203.25109670208334,50.0,88.0
913,202.24550349166668,203.4619168,38.0,66.0
914,202.46938324166666,203.54214037708334,45.0,40.0
915,203.1410224916667,203.63728927083335,62.0,112.0
916,203.36490224166667,203.708184525,50.0,86.0
917,203.1410224916667,204.01415351666668,65.0,102.0
918,203.8126617416667,204.02161617500002,62.0,96.0
919,203.58878199166668,204.14288437291668,57.0,92.0
920,204.4843009916667,204.79026998333333,55.0,81.0
921,204.70818074166667,204.85743390833335,62.0,70.0
922,204.70818074166667,204.86676223125002,58.0,72.0
923,204.26042124166668,205.05892568333334,50.0,58.0
924,204.93206049166668,205.43019293541667,58.0,97.0
925,204.03654149166667,205.60369974166667,43.0,79.0
926,205.37981999166666,205.75481857291666,55.0,74.0
927,205.15594024166668,205.8779524354167,50.0,59.0
928,205.60369974166667,206.02720560208334,58.0,74.0
929,204.93206049166668,206.31451794791667,62.0,82.0
930,206.27533899166667,206.50295007083335,55.0,82.0
931,206.49921874166668,206.6335465916667,62.0,63.0
932,206.49921874166668,206.66899421875002,58.0,69.0
933,206.05145924166666,206.83317270208335,50.0,64.0
934,206.94697824166667,207.0980970729167,50.0,79.0
935,205.82757949166668,207.12981337083335,43.0,81.0
936,206.72309849166666,207.23242492291666,58.0,107.0
937,206.72309849166666,207.45443900833334,62.0,97.0
938,207.3947377416667,207.57197587708333,58.0,81.0
939,207.17085799166668,207.76600499375002,55.0,90.0
940,208.0663769916667,208.56077810625,48.0,85.0
941,208.29025674166667,208.633539025,55.0,67.0
942,207.61861749166667,209.21189504583333,36.0,78.0
943,208.51413649166668,209.30704393958334,64.0,92.0
944,209.18577574166667,209.34808856041667,60.0,59.0
945,208.96189599166667,209.36861087083335,55.0,69.0
946,207.84249724166668,209.42084947916666,43.0,41.0
947,209.40965549166668,210.36674142291668,36.0,73.0
948,208.73801624166668,210.50480060208335,48.0,79.0
949,209.40965549166668,210.782784625,64.0,72.0
950,209.40965549166668,210.92457513333335,55.0,69.0
951,209.40965549166668,211.20069349166667,60.0,73.0
952,211.20069349166667,211.55143843333335,65.0,85.0
953,211.42457324166668,211.69136327708335,60.0,70.0
954,211.87233274166667,212.0477052125,60.0,78.0
955,211.6484529916667,212.22494334791668,57.0,81.0
956,211.20069349166667,212.41524113541666,48.0,56.0
957,212.32009224166669,212.48613638958335,60.0,90.0
958,211.20069349166667,212.6167329104167,41.0,55.0
959,212.09621249166668,212.797702375,65.0,96.0
960,211.20069349166667,212.84620965416667,53.0,56.0
961,212.76785174166668,212.9208362375,60.0,79.0
962,212.54397199166667,213.18389494375,57.0,75.0
963,212.99173149166668,213.33501377500002,65.0,90.0
964,213.21561124166666,213.48613260625,61.0,92.0
965,213.66337074166668,213.87419083958335,61.0,78.0
966,212.99173149166668,213.94135476458334,49.0,65.0
967,213.43949099166667,214.02157834166667,57.0,92.0
968,212.99173149166668,214.21187612916668,53.0,64.0
969,212.99173149166668,214.3014280291667,41.0,60.0
970,214.11113024166667,214.39471125833333,61.0,95.0
971,213.88725049166666,214.6223223375,65.0,96.0
972,214.5588897416667,214.7118742375,61.0,76.0
973,214.33500999166668,214.90030636041666,57.0,88.0
974,214.78276949166667,215.13911142708335,65.0,88.0
975,215.00664924166668,215.28649892916667,62.0,95.0
976,215.45440874166667,215.63724387083334,62.0,92.0
977,215.2305289916667,215.80142235416668,57.0,85.0
978,214.78276949166667,215.99358580625,53.0,63.0
979,214.78276949166667,216.13351065,50.0,70.0
980,215.9021682416667,216.16895827708333,62.0,96.0
981,215.67828849166668,216.40216635000002,65.0,92.0
982,216.34992774166668,216.49171825000002,62.0,89.0
983,214.78276949166667,216.52343454791668,41.0,63.0
984,216.12604799166667,216.66522505625002,57.0,86.0
985,216.57380749166668,217.006641675,65.0,93.0
986,217.02156699166667,217.05514895416667,65.0,28.0
987,216.79768724166667,217.08126825833335,63.0,100.0
988,217.24544674166668,217.45066984583335,63.0,85.0
989,217.02156699166667,217.52343076458334,57.0,73.0
990,217.69320624166667,217.97865292291667,63.0,93.0
991,217.46932649166666,218.0588765,65.0,97.0
992,216.57380749166668,218.32380087083334,51.0,83.0
993,218.14096574166666,218.33312919375,65.0,21.0
994,216.57380749166668,218.34245751666668,41.0,40.0
995,218.14096574166666,218.38909913125002,63.0,99.0
996,217.91708599166668,218.39656178958333,57.0,96.0
997,218.8126049916667,219.35364772083335,56.0,102.0
998,219.03648474166667,219.5290201916667,60.0,89.0
999,218.36484549166667,220.04767494583334,44.0,96.0
1000,218.58872524166668,220.18759978958335,51.0,79.0
1001,219.4842442416667,220.2081221,56.0,96.0
1002,219.26036449166668,220.58312068125002,68.0,127.0
1003,219.93200374166668,220.61297131458335,60.0,97.0
1004,219.70812399166667,220.6894635625,63.0,102.0
1005,220.60364299166667,221.1372230625,56.0,99.0
1006,220.82752274166668,221.36669980625,60.0,95.0
1007,220.37976324166667,221.618564525,51.0,44.0
1008,220.15588349166669,221.86856357916668,44.0,78.0
1009,221.05140249166666,221.87416057291668,68.0,127.0
1010,221.72304174166666,222.04393605,60.0,97.0
1011,221.49916199166668,222.07378668333334,63.0,112.0
1012,221.27528224166667,222.08498067083335,56.0,100.0
1013,222.3946809916667,222.94878337291667,56.0,102.0
1014,222.61856074166667,223.1297528375,59.0,95.0
1015,221.94692149166667,223.60176597708335,44.0,96.0
1016,222.17080124166668,223.74542215,51.0,57.0
1017,223.0663202416667,223.83310838541666,56.0,92.0
1018,223.51407974166668,224.17825633333334,59.0,97.0
1019,222.84244049166668,224.33497215833333,68.0,127.0
1020,223.29019999166667,224.43385238125,63.0,100.0
1021,223.96183924166667,224.67638877708333,51.0,39.0
1022,224.18571899166668,224.69131409375,56.0,93.0
1023,223.7379594916667,224.76594067708334,44.0,77.0
1024,224.40959874166668,224.82377627916668,59.0,92.0
1025,224.85735824166667,225.155864575,63.0,93.0
1026,224.63347849166666,225.43944559166667,68.0,112.0
1027,225.08123799166668,225.53832581458335,59.0,90.0
1028,225.30511774166666,225.54578847291668,63.0,92.0
1029,225.9767569916667,226.52526237916666,54.0,99.0
1030,226.20063674166667,226.69690352083333,58.0,90.0
1031,225.52899749166667,227.215558275,42.0,82.0
1032,225.75287724166668,227.30697583958334,49.0,67.0
1033,226.6483962416667,227.40212473333335,54.0,100.0
1034,227.09615574166668,227.84988423333334,58.0,107.0
1035,226.87227599166667,227.98607774791668,61.0,89.0
1036,226.42451649166668,228.01219705208334,66.0,102.0
1037,227.76779499166668,228.31816604375,54.0,93.0
1038,227.99167474166669,228.57935908541668,58.0,86.0
1039,227.54391524166667,228.93196969166667,49.0,41.0
1040,227.3200354916667,228.96182032500002,42.0,73.0
1041,228.43943424166667,229.00659627500002,54.0,95.0
1042,228.66331399166668,229.08308852291668,61.0,99.0
1043,228.21555449166667,229.09241684583336,66.0,112.0
1044,228.88719374166666,229.10547649791667,58.0,112.0
1045,229.78271274166667,230.02711480208333,60.0,100.0
1046,229.55883299166666,230.10920404375,57.0,81.0
1047,230.2304722416667,230.42636702291668,57.0,85.0
1048,229.11107349166667,230.82935057291667,45.0,79.0
1049,229.33495324166668,230.98046940416668,54.0,97.0
1050,230.67823174166668,231.21740880625,57.0,97.0
1051,230.00659249166668,231.3461396625,63.0,117.0
1052,230.45435199166667,231.43009456875,60.0,107.0
1053,231.34987099166668,231.66516830625,57.0,95.0
1054,231.5737507416667,231.73233223125,63.0,86.0
1055,231.5737507416667,231.73792922500002,60.0,88.0
1056,231.12599124166667,231.85919742291668,54.0,92.0
1057,232.02151024166668,232.11852480000002,54.0,93.0
1058,230.9021114916667,232.15583809166668,45.0,76.0
1059,231.79763049166667,232.2509869854167,60.0,93.0
1060,232.24538999166668,232.60919458541667,57.0,117.0
1061,232.46926974166666,232.70807480833335,60.0,107.0
1062,231.79763049166667,232.7155374666667,63.0,102.0
1063,233.14090899166666,233.64090710000002,53.0,92.0
1064,233.36478874166667,233.73419032916667,56.0,79.0
1065,233.8125482416667,234.0326966625,53.0,95.0
1066,233.58866849166668,234.111054575,60.0,74.0
1067,232.69314949166667,234.32000900833333,41.0,83.0
1068,232.91702924166668,234.54202309375,48.0,97.0
1069,234.03642799166667,234.87784271875,56.0,112.0
1070,233.58866849166668,235.01590189791668,65.0,72.0
1071,234.26030774166668,235.06627484166668,60.0,72.0
1072,235.1558267416667,235.22672199583334,60.0,32.0
1073,234.93194699166668,235.45806440416666,53.0,93.0
1074,234.4841874916667,235.46179573333333,41.0,82.0
1075,234.70806724166667,235.47858671458334,48.0,72.0
1076,235.1558267416667,235.4972433604167,56.0,99.0
1077,235.60358624166668,235.88716725833333,60.0,73.0
1078,236.05134574166667,236.26589716875,60.0,71.0
1079,235.37970649166667,236.27895682083334,65.0,69.0
1080,235.82746599166668,236.3162701125,56.0,107.0
1081,236.72298499166666,237.21925177083335,49.0,96.0
1082,236.94686474166667,237.65395161875,53.0,85.0
1083,236.27522549166667,237.96551760416668,37.0,83.0
1084,236.49910524166668,238.11290510625,44.0,46.0
1085,237.3946242416667,238.20618833541667,49.0,86.0
1086,237.84238374166668,238.59051523958334,53.0,93.0
1087,237.61850399166667,238.63902251875,56.0,102.0
1088,237.17074449166668,238.66514182291667,61.0,127.0
1089,238.7379027416667,238.81066366041668,56.0,35.0
1090,238.7379027416667,239.03267774583335,53.0,85.0
1091,238.51402299166668,239.04014040416666,49.0,92.0
1092,238.29014324166667,239.26215448958334,44.0,75.0
1093,239.18566224166668,239.30319911041667,49.0,97.0
1094,238.0662634916667,239.30693043958334,37.0,79.0
1095,238.96178249166667,239.48043724583334,56.0,99.0
1096,239.63342174166667,239.87036114375002,56.0,102.0
1097,238.96178249166667,239.89648044791667,61.0,102.0
1098,239.40954199166669,239.91700275833335,53.0,102.0
1099,240.30506099166666,240.83117840416668,48.0,93.0
1100,240.52894074166667,240.8871483416667,55.0,85.0
1101,240.75282049166668,241.26960958125002,60.0,86.0
1102,240.75282049166668,241.3069228729167,64.0,89.0
1103,239.85730149166668,241.50654898333335,36.0,76.0
1104,240.08118124166668,241.70617509375,43.0,73.0
1105,240.97670024166666,241.76214503125001,48.0,81.0
1106,241.20057999166667,242.21923285416668,55.0,90.0
1107,241.42445974166668,242.41139630625,60.0,85.0
1108,241.42445974166668,242.41885896458334,64.0,82.0
1109,242.09609899166668,242.62221640416666,48.0,90.0
1110,242.3199787416667,242.67632067708334,55.0,83.0
1111,242.54385849166667,243.04758792916667,60.0,99.0
1112,242.54385849166667,243.05691625208334,64.0,96.0
1113,243.21549774166667,243.3125123,64.0,50.0
1114,241.6483394916667,243.33116894583335,36.0,79.0
1115,242.76773824166668,243.33676593958333,48.0,95.0
1116,241.87221924166667,243.37594489583336,43.0,58.0
1117,243.21549774166667,243.38154188958333,60.0,85.0
1118,242.9916179916667,243.38340755416667,55.0,93.0
1119,243.43937749166668,246.62220127083333,36.0,69.0
1120,243.43937749166668,246.78824541875002,48.0,72.0
1121,243.43937749166668,246.80130507083334,55.0,72.0
1122,243.43937749166668,246.81436472291668,60.0,78.0
1123,243.43937749166668,246.82369304583335,64.0,75.0
1124,247.02145349166668,247.6259288166667,65.0,52.0
1125,247.02145349166668,247.6315258104167,70.0,75.0
1126,247.02145349166668,247.65204812083334,62.0,68.0
1127,247.46921299166667,248.18562819166667,58.0,71.0
1128,247.91697249166668,248.56808943125,62.0,64.0
1129,247.91697249166668,248.59794006458336,70.0,59.0
1130,247.91697249166668,248.66510398958334,65.0,59.0
1131,248.8124914916667,249.58301096458334,62.0,58.0
1132,248.8124914916667,249.58674229375,70.0,55.0
1133,248.8124914916667,249.59607061666668,65.0,47.0
1134,247.02145349166668,250.45987331875,46.0,93.0
1135,249.70801049166667,250.47293297083334,70.0,67.0
1136,249.70801049166667,250.48599262291668,65.0,65.0
1137,249.70801049166667,250.48785828750002,62.0,71.0
1138,248.36473199166667,250.49345528125002,58.0,48.0
1139,250.60352949166668,251.3833772875,62.0,51.0
1140,250.60352949166668,251.38897428125,46.0,50.0
1141,250.60352949166668,251.39270561041667,58.0,43.0
1142,250.60352949166668,251.40389959791668,65.0,58.0
1143,250.60352949166668,251.40389959791668,70.0,59.0
1144,251.49904849166668,252.2788962875,46.0,34.0
1145,251.49904849166668,252.29941859791668,58.0,34.0
1146,251.49904849166668,252.31061258541666,62.0,29.0
1147,251.49904849166668,252.31434391458333,70.0,33.0
1148,251.49904849166668,252.33113489583334,65.0,34.0
1149,252.39456749166666,253.11471402083333,70.0,82.0
1150,252.39456749166666,253.14269898958335,62.0,85.0
1151,252.39456749166666,253.15948997083333,65.0,81.0
1152,252.39456749166666,254.06620295833335,46.0,88.0
1153,252.39456749166666,254.0736656166667,58.0,81.0
1154,253.7378459916667,254.10165058541668,62.0,73.0
1155,253.29008649166667,254.10351625,70.0,100.0
1156,253.29008649166667,254.10911324375002,65.0,90.0
1157,254.18560549166668,254.81246879166667,69.0,70.0
1158,254.18560549166668,254.96731895208333,65.0,76.0
1159,254.18560549166668,254.99530392083335,60.0,70.0
1160,255.08112449166669,255.16507939791668,60.0,62.0
1161,255.08112449166669,255.81246500833333,69.0,73.0
1162,255.08112449166669,255.86283795208334,65.0,77.0
1163,255.08112449166669,256.23223953958336,53.0,72.0
1164,255.97664349166666,256.73596897708336,69.0,71.0
1165,255.97664349166666,256.75089429375004,65.0,72.0
1166,255.52888399166667,256.81992388333333,60.0,73.0
1167,256.4244029916667,257.06059461458335,53.0,52.0
1168,254.63336499166667,257.24342974375,48.0,56.0
1169,254.18560549166668,257.29939968125,41.0,71.0
1170,256.8721624916667,257.62029398958333,69.0,75.0
1171,257.31992199166666,257.62962231250003,60.0,82.0
1172,256.8721624916667,257.6482789583333,65.0,83.0
1173,257.7676814916667,258.02700886875,69.0,63.0
1174,257.7676814916667,258.03074019791666,65.0,69.0
1175,257.7676814916667,258.36469415833335,62.0,82.0
1176,258.66320049166666,259.17625825208336,65.0,63.0
1177,258.66320049166666,259.22663119583336,62.0,73.0
1178,259.1109599916667,259.81804686875,50.0,58.0
1179,259.5587194916667,260.304985325,65.0,65.0
1180,259.5587194916667,260.35162693958335,62.0,69.0
1181,260.00647899166665,260.53259640416667,50.0,63.0
1182,258.66320049166666,260.60908865208336,57.0,69.0
1183,257.7676814916667,260.73595384375,38.0,71.0
1184,258.2154409916667,260.76953580625,45.0,52.0
1185,260.67811824166665,260.82550574375,50.0,68.0
1186,260.4542384916667,260.976624575,62.0,78.0
1187,260.9019979916667,261.3012502125,57.0,86.0
1188,260.4542384916667,261.3441604979167,65.0,89.0
1189,261.12587774166667,261.38520511875004,62.0,67.0
1190,262.2452764916667,262.92624406458333,65.0,76.0
1191,262.2452764916667,262.94116938125,70.0,79.0
1192,262.2452764916667,263.39825720416667,58.0,58.0
1193,263.14079549166667,263.73780815833334,70.0,63.0
1194,262.6930359916667,263.8758673375,62.0,67.0
1195,263.14079549166667,263.87959866666665,65.0,57.0
1196,263.5885549916667,264.15758268958336,58.0,56.0
1197,264.0363144916667,264.61093918333336,70.0,85.0
1198,261.34975749166665,264.78071466041666,46.0,92.0
1199,264.0363144916667,264.8646695666667,65.0,88.0
1200,261.79751699166667,264.93556482083335,53.0,45.0
1201,264.48407399166666,265.02511672083335,58.0,53.0
1202,264.9318334916667,265.3963839729167,70.0,57.0
1203,264.9318334916667,265.4430255875,65.0,68.0
1204,264.9318334916667,265.6911589770833,61.0,72.0
1205,265.82735249166666,266.34600724583333,70.0,63.0
1206,265.82735249166666,266.47846943125,65.0,63.0
1207,265.82735249166666,266.53630503333335,61.0,53.0
1208,266.2751119916667,266.94488557708337,58.0,37.0
1209,266.7228714916667,267.18369064375,70.0,63.0
1210,266.7228714916667,267.24525757500004,65.0,69.0
1211,266.7228714916667,267.4057047291667,61.0,61.0
1212,267.17063099166666,267.73219603125,58.0,49.0
1213,265.3795929916667,267.88144919791665,53.0,26.0
1214,264.9318334916667,267.93368780625,46.0,81.0
1215,267.84227024166665,268.0288367,58.0,61.0
1216,267.6183904916667,268.1053289479167,70.0,76.0
1217,267.6183904916667,268.11279160625,65.0,92.0
1218,268.0661499916667,268.22473148125,61.0,81.0
1219,268.51390949166665,269.04189256875003,64.0,82.0
1220,268.96166899166667,269.64823355833335,52.0,63.0
1221,269.4094284916667,269.67062153333336,64.0,36.0
1222,268.51390949166665,270.02136647500004,60.0,82.0
1223,269.4094284916667,270.21912692083333,57.0,96.0
1224,269.8571879916667,270.5474838875,52.0,71.0
1225,270.7527069916667,271.28069006875,52.0,52.0
1226,268.51390949166665,271.33852567083335,45.0,81.0
1227,270.30494749166667,271.37210763333337,57.0,67.0
1228,271.2004664916667,271.88143406458335,69.0,79.0
1229,271.8721057416667,271.97471729375,45.0,30.0
1230,270.30494749166667,272.07546318125003,64.0,76.0
1231,270.30494749166667,272.08665716875004,60.0,78.0
1232,271.64822599166666,272.3012085958334,57.0,82.0
1233,272.99150449166666,273.58478582916666,65.0,75.0
1234,272.99150449166666,273.62583045,62.0,83.0
1235,272.99150449166666,273.75082997708336,57.0,68.0
1236,273.4392639916667,274.1594105208333,50.0,59.0
1237,273.8870234916667,274.43552887916667,62.0,73.0
1238,273.8870234916667,274.4560511895833,65.0,67.0
1239,273.8870234916667,274.61090135,57.0,74.0
1240,274.5586627416667,274.61276701458337,65.0,24.0
1241,274.5586627416667,274.65008030625,62.0,32.0
1242,274.33478299166666,274.8907510375,50.0,81.0
1243,274.7825424916667,275.05492952083335,57.0,100.0
1244,272.0959854916667,275.08664581875,38.0,88.0
1245,272.5437449916667,275.1034368,45.0,56.0
1246,275.00642224166666,275.24895863750004,50.0,100.0
1247,274.7825424916667,275.3086599041667,62.0,107.0
1248,274.7825424916667,275.3478388604167,65.0,97.0
1249,275.4541817416667,275.6519421875,65.0,63.0
1250,275.2303019916667,275.65940484583336,57.0,107.0
1251,275.4541817416667,275.69298680833333,62.0,99.0
1252,276.12582099166667,276.6351474229167,55.0,100.0
1253,276.34970074166665,276.65380406875,62.0,99.0
1254,276.79746024166667,277.0549219541667,55.0,97.0
1255,276.5735804916667,277.1071605625,67.0,96.0
1256,275.67806149166665,277.31798066041665,43.0,112.0
1257,275.9019412416667,277.498950125,50.0,92.0
1258,277.02133999166665,277.94297829583337,62.0,117.0
1259,277.2452197416667,278.0343958604167,67.0,77.0
1260,276.5735804916667,278.170589375,70.0,127.0
1261,278.14073874166667,278.20976833125,67.0,34.0
1262,277.9168589916667,278.22096231875,55.0,90.0
1263,277.6929792416667,278.4597673854167,50.0,95.0
1264,278.14073874166667,278.4989463416667,62.0,93.0
1265,277.46909949166667,278.7545423895833,43.0,88.0
1266,278.5884982416667,278.76013938333335,50.0,77.0
1267,278.3646184916667,278.92804919583335,67.0,93.0
1268,278.3646184916667,278.92804919583335,70.0,117.0
1269,279.0362577416667,279.2228242,70.0,36.0
1270,278.81237799166666,279.3105104354167,62.0,102.0
1271,279.0362577416667,279.3384954041667,67.0,66.0
1272,279.9317767416667,280.25267105,52.0,88.0
1273,279.7078969916667,280.25453671458337,48.0,85.0
1274,280.3795362416667,280.57169969375,48.0,93.0
1275,280.15565649166666,280.66125159375,55.0,88.0
1276,279.2601374916667,280.83848972916667,36.0,92.0
1277,279.48401724166666,281.07356346666666,43.0,82.0
1278,280.82729574166666,281.0903544479167,55.0,95.0
1279,280.6034159916667,281.09781710625003,52.0,86.0
1280,280.15565649166666,281.12766773958333,60.0,96.0
1281,281.7228147416667,281.88885888958333,67.0,85.0
1282,281.7228147416667,281.89632154791667,60.0,79.0
1283,281.7228147416667,281.90005287708334,64.0,85.0
1284,281.49893499166666,282.06050003125,48.0,89.0
1285,281.9466944916667,282.2265441791667,60.0,85.0
1286,281.0511754916667,282.26945446458336,36.0,92.0
1287,281.2750552416667,282.33661838958335,43.0,83.0
1288,281.9466944916667,282.46348358125,64.0,117.0
1289,282.17057424166666,282.5026625375,48.0,99.0
1290,281.9466944916667,282.67616934375,67.0,127.0
1291,282.6183337416667,282.7470645979167,64.0,76.0
1292,282.3944539916667,282.8347508333333,60.0,99.0
1293,282.84221349166666,283.35900258125,60.0,61.0
1294,282.84221349166666,283.5810166666667,69.0,97.0
1295,282.84221349166666,283.6071359708333,65.0,99.0
1296,283.2899729916667,283.812359075,53.0,93.0
1297,283.51385274166665,283.879523,60.0,85.0
1298,283.7377324916667,284.23213360625,69.0,96.0
1299,283.7377324916667,284.2377306,65.0,93.0
1300,282.84221349166666,284.4858639895833,41.0,88.0
1301,283.0660932416667,284.7228033916667,48.0,72.0
1302,283.96161224166667,284.7284003854167,53.0,88.0
1303,284.18549199166665,285.18362254375,60.0,82.0
1304,284.4093717416667,285.3608606791667,69.0,92.0
1305,284.4093717416667,285.3776516604167,65.0,96.0
1306,285.0810109916667,285.6575013479167,53.0,90.0
1307,285.30489074166667,285.7041429625,60.0,69.0
1308,285.7526502416667,286.10712651250003,53.0,89.0
1309,284.85713124166665,286.3328719270833,48.0,66.0
1310,284.63325149166667,286.36085689583336,41.0,75.0
1311,285.97652999166667,286.3963045229167,60.0,83.0
1312,285.5287704916667,286.40190151666667,65.0,107.0
1313,285.5287704916667,286.41869249791665,69.0,99.0
1314,286.8720489916667,287.3925694104167,50.0,93.0
1315,287.0959287416667,287.44480801875,57.0,90.0
1316,287.31980849166666,287.82353792916666,65.0,97.0
1317,287.31980849166666,287.83846324583334,62.0,100.0
1318,287.5436882416667,287.85898555625,50.0,93.0
1319,286.4242894916667,288.04555201458334,38.0,97.0
1320,286.64816924166666,288.19480518125,45.0,76.0
1321,287.7675679916667,288.70972860625,57.0,95.0
1322,287.99144774166666,288.72838525208334,65.0,96.0
1323,287.99144774166666,288.7489075625,62.0,95.0
1324,288.8869667416667,288.961593325,62.0,34.0
1325,288.66308699166666,289.20786105,50.0,93.0
1326,288.8869667416667,289.2787563041667,57.0,85.0
1327,288.2153274916667,289.37390519791666,38.0,78.0
1328,288.4392072416667,289.40002450208334,45.0,81.0
1329,289.33472624166666,289.46345709791666,50.0,96.0
1330,289.1108464916667,289.6220385875,62.0,99.0
1331,289.5586059916667,289.9112165979167,57.0,97.0
1332,289.1108464916667,289.9597238770833,65.0,99.0
1333,289.7824857416667,289.98770884583337,62.0,89.0
1334,290.00636549166666,290.7059897104167,70.0,81.0
1335,290.00636549166666,290.75449698958334,65.0,82.0
1336,290.00636549166666,290.7600939833333,62.0,86.0
1337,290.9018844916667,291.6742696291667,62.0,67.0
1338,290.9018844916667,291.69665760416666,65.0,64.0
1339,290.9018844916667,291.7041202625,70.0,63.0
1340,290.9018844916667,292.11270080625,58.0,53.0
1341,291.79740349166667,292.51195302708334,70.0,61.0
1342,291.79740349166667,292.5287440083333,62.0,71.0
1343,291.79740349166667,292.5306096729167,65.0,64.0
1344,290.4541249916667,292.8104593604167,53.0,29.0
1345,292.2451629916667,292.83284733541666,58.0,45.0
1346,290.00636549166666,292.92053357083336,46.0,92.0
1347,292.6929224916667,293.14254765625003,70.0,90.0
1348,292.6929224916667,293.170532625,65.0,82.0
1349,293.14068199166667,293.2638158541667,62.0,86.0
1350,293.5884414916667,294.3477669770833,64.0,78.0
1351,293.5884414916667,294.35336397083336,60.0,82.0
1352,294.48396049166666,295.10149546875,64.0,66.0
1353,294.48396049166666,295.14440575416666,60.0,66.0
1354,294.48396049166666,295.19477869791666,55.0,75.0
1355,294.0362009916667,297.3328303104167,43.0,46.0
1356,293.5884414916667,297.334695975,36.0,74.0
1357,294.9317199916667,297.34775562708336,48.0,52.0
1358,297.17051749166666,297.34775562708336,48.0,58.0
1359,295.3794794916667,297.35335262083333,60.0,59.0
1360,295.3794794916667,297.35894961458337,55.0,63.0
1361,295.3794794916667,297.36268094375004,64.0,63.0
1362,297.17051749166666,297.5100684458333,65.0,85.0
1363,297.3943972416667,297.64439629583336,60.0,64.0
1364,297.84215674166666,298.0268575354167,60.0,63.0
1365,297.6182769916667,298.1817076958333,57.0,61.0
1366,298.2899162416667,298.5417809604167,60.0,68.0
1367,298.0660364916667,298.57536292291667,65.0,81.0
1368,298.7376757416667,298.9279735291667,60.0,64.0
1369,298.51379599166665,299.06789837291666,57.0,64.0
1370,298.9615554916667,299.32722575,65.0,82.0
1371,299.18543524166665,299.4727475875,60.0,77.0
1372,299.63319474166667,299.83655218125,60.0,78.0
1373,299.4093149916667,299.9354324041667,57.0,77.0
1374,297.17051749166666,300.28058035208335,41.0,58.0
1375,297.17051749166666,300.30669965625003,53.0,72.0
1376,300.0809542416667,300.32908763125,60.0,86.0
1377,299.85707449166665,300.40931120833335,65.0,99.0
1378,300.5287137416667,300.6630415916667,60.0,81.0
1379,300.30483399166667,300.7525934916667,57.0,88.0
1380,300.7395338395834,301.13505473125,65.0,90.0
1381,300.95035393750004,301.23206928958336,61.0,70.0
1382,301.3981134375,301.62385885208334,61.0,58.0
1383,301.1649053645833,301.74512705,57.0,74.0
1384,301.84214160833335,302.11079730833336,61.0,72.0
1385,301.62759018125,302.19102088541666,65.0,86.0
1386,302.28057278541667,302.4727362375,61.0,66.0
1387,302.0473647125,302.61452674583336,57.0,72.0
1388,302.73766060833333,303.00071931458336,61.0,72.0
1389,302.49698987708337,303.1667634625,65.0,79.0
1390,300.72274285833333,303.32721061666666,48.0,55.0
1391,303.1816887791667,303.3607925791667,61.0,64.0
1392,300.737668175,303.4895234354167,41.0,59.0
1393,302.9354210541667,303.5566873604167,57.0,72.0
1394,300.72833985208337,303.7339254958333,53.0,57.0
1395,303.6070603041667,303.86825334583335,61.0,82.0
1396,303.3981058708333,303.9932528729167,65.0,77.0
1397,304.05295413958333,304.2115356291667,61.0,67.0
1398,303.8645220166667,304.45966901875,57.0,74.0
1399,304.31601284583337,304.84959291666667,65.0,81.0
1400,304.5473552541667,304.85332424583333,62.0,62.0
1401,305.00630874166666,305.260039125,62.0,59.0
1402,304.77123500416667,305.3831729875,57.0,64.0
1403,305.4932471979167,305.7842908729167,62.0,75.0
1404,305.2451138083334,305.8794397666667,65.0,77.0
1405,305.9298127104167,306.1648864479167,62.0,70.0
1406,305.70406729583334,306.3458559125,57.0,70.0
1407,306.36264689375,306.6499592395833,62.0,61.0
1408,306.15182679583336,306.85331667916665,65.0,82.0
1409,306.8197347166667,307.01749516250004,62.0,72.0
1410,306.58839230833337,307.24883757083336,57.0,74.0
1411,307.2842851979167,307.52122460000004,62.0,76.0
1412,304.30481885833336,308.55666844375,50.0,63.0
1413,304.30668452291667,308.5659967666667,53.0,63.0
1414,308.2003265083333,308.5659967666667,53.0,60.0
1415,304.31414718125,308.63129502708335,41.0,56.0
1416,308.18726685625,308.63129502708335,41.0,55.0
1417,307.75443267291666,308.6499516729167,62.0,59.0
1418,307.5025679541667,308.67047398333335,57.0,68.0
1419,307.04174880208336,308.68353363541667,65.0,72.0
1420,308.22084881875,308.68353363541667,65.0,61.0
1421,308.48577318958337,308.77495120000003,61.0,55.0
1422,308.99323395625004,309.27494930833336,61.0,50.0
1423,308.7395035729167,309.61263459791667,57.0,48.0
1424,309.57345564166667,309.91860358958337,61.0,40.0
1425,309.2936059541667,310.21337859375,65.0,59.0
1426,310.1518116625,314.00814035625,61.0,54.0
1427,310.95591309791666,314.01933434375,65.0,26.0
1428,313.82530522708333,314.01933434375,65.0,44.0
1429,309.8533053291667,314.036125325,57.0,49.0
1430,313.8271708916667,314.1816471625,53.0,71.0
1431,313.81970823333336,314.23948276458333,41.0,64.0
1432,313.76933528958335,318.3943177916667,48.0,64.0
1433,313.82157389791666,319.9353567375,69.0,58.0
1434,313.80851424583335,319.96707303541666,60.0,62.0
