,start,end,pitch,velocity
0,27.765613893749997,28.180544283333333,71.0,100.0
1,28.18228039375,28.59721078333333,71.0,102.0
2,28.59894689375,29.015613393749998,71.0,94.0
3,29.015613393749998,29.638877033333333,74.0,96.0
4,29.64061314375,30.26561289375,74.0,96.0
5,30.26561289375,30.69269605625,72.0,104.0
6,30.682279393749997,32.76387578333333,71.0,94.0
7,32.76561189375,33.18054228333333,71.0,100.0
8,33.182278393749996,33.59894489375,71.0,98.0
9,33.59894489375,34.01561139375,69.0,98.0
10,34.01561139375,36.09894389375,67.0,98.0
11,36.09894389375,36.51387428333333,69.0,87.0
12,36.515610393749995,36.93227689375,69.0,88.0
13,36.93227689375,37.34894339375,67.0,87.0
14,37.34894339375,41.09720578333333,71.0,89.0
15,41.098941893749995,41.513872283333335,71.0,92.0
16,41.51560839375,41.93053878333333,71.0,94.0
17,41.93227489375,42.348941393749996,71.0,102.0
18,42.348941393749996,42.97220503333333,74.0,102.0
19,42.97394114375,43.59894089375,74.0,96.0
20,43.59894089375,44.01387128333333,76.0,96.0
21,44.015607393749995,46.09893989375,76.0,107.0
22,46.09893989375,46.51387028333333,71.0,93.0
23,46.51560639375,46.932272893749996,71.0,96.0
24,46.932272893749996,47.15275891666666,69.0,91.0
25,47.14060614375,48.80553603333333,67.0,89.0
26,48.80727214375,49.02602205625,67.0,87.0
27,49.01560539375,49.43227189375,69.0,90.0
28,49.43227189375,49.84893839375,74.0,98.0
29,49.84893839375,50.265604893749995,71.0,91.0
30,50.265604893749995,50.49824368958333,69.0,83.0
31,50.47393814375,54.43226989375,67.0,85.0
32,54.43226989375,54.84720028333333,72.0,102.0
33,54.848936393749995,55.26386678333333,72.0,100.0
34,55.26560289375,55.473936143749995,72.0,87.0
35,55.473936143749995,56.09719978333333,74.0,107.0
36,56.098935893749996,56.51386628333333,74.0,107.0
37,56.515602393749994,56.723935643749996,74.0,94.0
38,56.723935643749996,57.34893539375,76.0,96.0
39,57.34893539375,61.098933893749994,74.0,102.0
40,61.098933893749994,61.513864283333334,72.0,89.0
41,61.51560039375,61.93053078333333,72.0,94.0
42,61.93226689375,62.14060014375,72.0,88.0
43,62.14060014375,62.76386378333333,74.0,93.0
44,62.76559989375,63.18053028333333,74.0,90.0
45,63.18226639375,63.390599643749994,74.0,92.0
46,63.390599643749994,64.01559939375,69.0,98.0
47,64.01559939375,67.76559789375,71.0,89.0
48,67.76559789375,67.97219503333334,72.0,88.0
49,67.97393114375,68.18052828333333,72.0,88.0
50,68.18226439375,68.59719478333334,72.0,88.0
51,68.59893089375,69.01559739375,72.0,87.0
52,69.01559739375,69.43052778333333,74.0,102.0
53,69.43226389374999,69.84719428333332,74.0,96.0
54,69.84893039375,70.26559689375,74.0,108.0
55,70.26559689375,70.68226339374999,76.0,107.0
56,70.68226339374999,71.51559639375,74.0,108.0
57,71.51559639375,72.34892939375,76.0,114.0
58,72.34892939375,73.59719278333333,71.0,102.0
59,73.59892889375,74.01559539374999,71.0,104.0
60,74.01559539374999,74.43052578333332,69.0,96.0
61,74.43226189375,74.84719228333333,69.0,102.0
62,74.84892839375,75.26559489374999,69.0,104.0
63,75.26559489374999,75.68226139375,67.0,102.0
64,75.68226139375,76.09719178333333,69.0,102.0
65,76.09892789375,76.30552503333332,69.0,87.0
66,76.30726114375,76.51559439374999,69.0,88.0
67,76.51559439374999,76.93052478333333,71.0,92.0
68,76.93226089375,77.34892739374999,71.0,94.0
69,77.34892739374999,81.09892589374999,69.0,91.0
70,81.09892589374999,81.30552303333333,71.0,88.0
71,81.30725914375,81.51385628333333,71.0,88.0
72,81.51559239375,81.93052278333333,71.0,91.0
73,81.93225889374999,82.34892539375,71.0,89.0
74,82.34892539375,82.76385578333333,74.0,104.0
75,82.76559189375,83.18052228333333,74.0,93.0
76,83.18225839374999,83.39059164375,74.0,104.0
77,83.39059164375,83.80725814374999,72.0,100.0
78,83.80725814374999,86.51385428333333,71.0,110.0
79,86.51559039374999,86.93225689375,71.0,107.0
80,86.93225689375,87.34892339375,69.0,92.0
81,87.34892339375,88.59718678333333,67.0,98.0
82,88.59892289375,89.01558939374999,67.0,94.0
83,89.01558939374999,89.43051978333332,69.0,88.0
84,89.43225589375,89.63885303333333,69.0,88.0
85,89.64058914374999,90.26558889374999,69.0,89.0
86,90.26558889374999,90.68225539375,67.0,87.0
87,90.68225539375,94.43051778333333,71.0,93.0
88,94.43225389375,94.84718428333333,71.0,94.0
89,94.84892039374999,95.26385078333333,71.0,98.0
90,95.26558689375,95.68225339374999,71.0,93.0
91,95.68225339374999,96.09718378333334,74.0,100.0
92,96.09891989375,96.51385028333333,74.0,93.0
93,96.51558639375,96.93225289374999,74.0,93.0
94,96.93225289374999,97.13885003333333,76.0,88.0
95,97.14058614375,99.84891839375,76.0,92.0
96,99.84891839375,100.26558489374999,71.0,100.0
97,100.26558489374999,100.68225139375,69.0,93.0
98,100.68225139375,101.93051478333332,67.0,98.0
99,101.93225089375,102.13884803333333,67.0,91.0
100,102.14058414374999,102.34891739375,67.0,89.0
101,102.34891739375,102.76558389374999,69.0,102.0
102,102.76558389374999,103.18225039375,74.0,108.0
103,103.18225039375,103.59891689375,71.0,91.0
104,103.59891689375,104.01558339374999,69.0,86.0
105,104.01558339374999,107.17183213125,67.0,88.0
106,134.43223789375,134.84716828333333,71.0,100.0
107,134.84890439375,135.26383478333332,71.0,102.0
108,135.26557089374998,135.68223739375,71.0,94.0
109,135.68223739375,136.30550103333331,74.0,96.0
110,136.30723714375,136.93223689375,74.0,96.0
111,136.93223689375,137.35932005625,72.0,104.0
112,137.34890339375,139.43049978333332,71.0,94.0
113,139.43223589375,139.84716628333334,71.0,100.0
114,139.84890239375,140.26556889375,71.0,98.0
115,140.26556889375,140.68223539375,69.0,98.0
116,140.68223539375,142.76556789375,67.0,98.0
117,142.76556789375,143.18049828333332,69.0,87.0
118,143.18223439374998,143.59890089375,69.0,88.0
119,143.59890089375,144.01556739375,67.0,87.0
120,144.01556739375,147.76382978333334,71.0,89.0
121,147.76556589375,148.18049628333333,71.0,92.0
122,148.18223239374998,148.59716278333332,71.0,94.0
123,148.59889889375,149.01556539375,71.0,102.0
124,149.01556539375,149.63882903333334,74.0,102.0
125,149.64056514375,150.26556489375,74.0,96.0
126,150.26556489375,150.68049528333333,76.0,96.0
127,150.68223139375,152.76556389375,76.0,107.0
128,152.76556389375,153.18049428333333,71.0,93.0
129,153.18223039375,153.59889689374998,71.0,96.0
130,153.59889689374998,153.81938291666665,69.0,91.0
131,153.80723014375,155.47216003333332,67.0,89.0
132,155.47389614374998,155.69264605625,67.0,87.0
133,155.68222939375,156.09889589374998,69.0,90.0
134,156.09889589374998,156.51556239375,74.0,98.0
135,156.51556239375,156.93222889375,71.0,91.0
136,156.93222889375,157.16486768958333,69.0,83.0
137,157.14056214375,160.68222739375,67.0,85.0
138,161.09889389375,161.51382428333332,72.0,102.0
139,161.51556039374998,161.9304907833333,72.0,100.0
140,161.93222689375,162.14056014374998,72.0,87.0
141,162.14056014374998,162.76382378333332,74.0,107.0
142,162.76555989374998,163.1804902833333,74.0,107.0
143,163.18222639375,163.39055964374998,74.0,94.0
144,163.39055964374998,164.01555939374998,76.0,96.0
145,164.01555939374998,167.76555789374999,74.0,102.0
146,167.76555789374999,168.18048828333332,72.0,89.0
147,168.18222439375,168.59715478333334,72.0,94.0
148,168.59889089375,168.80722414374998,72.0,88.0
149,168.80722414374998,169.43048778333332,74.0,93.0
150,169.43222389374998,169.8471542833333,74.0,90.0
151,169.84889039375,170.05722364374998,74.0,92.0
152,170.05722364374998,170.68222339374998,69.0,98.0
153,170.68222339374998,174.43222189374998,71.0,89.0
154,174.43222189374998,174.63881903333333,72.0,88.0
155,174.64055514375,174.84715228333332,72.0,88.0
156,174.84888839375,175.26381878333333,72.0,88.0
157,175.26555489375,175.68222139374998,72.0,87.0
158,175.68222139374998,176.09715178333332,74.0,102.0
159,176.09888789375,176.51381828333334,74.0,96.0
160,176.51555439375,176.93222089374999,74.0,108.0
161,176.93222089374999,177.34888739375,76.0,107.0
162,177.34888739375,178.18222039375,74.0,108.0
163,178.18222039375,179.01555339375,76.0,114.0
164,179.01555339375,180.2638167833333,71.0,102.0
165,180.26555289375,180.68221939375,71.0,104.0
166,180.68221939375,181.09714978333332,69.0,96.0
167,181.09888589374998,181.5138162833333,69.0,102.0
168,181.51555239375,181.93221889375,69.0,104.0
169,181.93221889375,182.34888539374998,67.0,102.0
170,182.34888539374998,182.7638157833333,69.0,102.0
171,182.76555189375,182.97214903333332,69.0,87.0
172,182.97388514374998,183.18221839375,69.0,88.0
173,183.18221839375,183.59714878333332,71.0,92.0
174,183.59888489374998,184.01555139375,71.0,94.0
175,184.01555139375,187.76554989374998,69.0,91.0
176,187.76554989374998,187.97214703333333,71.0,88.0
177,187.97388314375,188.1804802833333,71.0,88.0
178,188.18221639375,188.59714678333333,71.0,91.0
179,188.59888289375,189.01554939374998,71.0,89.0
180,189.01554939374998,189.4304797833333,74.0,104.0
181,189.43221589375,189.84714628333333,74.0,93.0
182,189.84888239375,190.05721564375,74.0,104.0
183,190.05721564375,190.47388214375,72.0,100.0
184,190.47388214375,193.18047828333331,71.0,110.0
185,193.18221439375,193.59888089375,71.0,107.0
186,193.59888089375,194.01554739374998,69.0,92.0
187,194.01554739374998,195.26381078333333,67.0,98.0
188,195.26554689374998,195.68221339374998,67.0,94.0
189,195.68221339374998,196.09714378333334,69.0,88.0
190,196.09887989375,196.30547703333332,69.0,88.0
191,196.30721314374998,196.93221289374998,69.0,89.0
192,196.93221289374998,197.34887939375,67.0,87.0
193,197.34887939375,201.0971417833333,71.0,93.0
194,201.09887789375,201.51380828333333,71.0,94.0
195,201.51554439375,201.93047478333332,71.0,98.0
196,201.93221089374998,202.34887739375,71.0,93.0
197,202.34887739375,202.76380778333333,74.0,100.0
198,202.76554389375,203.18047428333333,74.0,93.0
199,203.18221039374998,203.59887689375,74.0,93.0
200,203.59887689375,203.80547403333333,76.0,88.0
201,203.80721014374998,206.51554239375,76.0,92.0
202,206.51554239375,206.93220889375,71.0,100.0
203,206.93220889375,207.34887539374998,69.0,93.0
204,207.34887539374998,208.59713878333332,67.0,98.0
205,208.59887489374998,208.80547203333333,67.0,91.0
206,208.80720814375,209.01554139375,67.0,89.0
207,209.01554139375,209.43220789375,69.0,102.0
208,209.43220789375,209.84887439374998,74.0,108.0
209,209.84887439374998,210.26554089375,71.0,91.0
210,210.26554089375,210.68220739375,69.0,86.0
211,210.68220739375,214.01553939374998,67.0,88.0
212,241.19782018749999,241.43740342499999,72.0,102.0
213,241.61448668749998,241.895736575,72.0,100.0
214,242.0311531875,242.15962535833333,72.0,87.0
215,242.23948643749998,242.51900021458331,74.0,107.0
216,242.86448618749998,243.09538887291666,74.0,107.0
217,243.2811526875,243.47038872291665,74.0,94.0
218,243.48948593749998,243.86795800833332,76.0,96.0
219,244.11448568749998,244.47038832291665,74.0,102.0
220,247.86448418749998,248.10233131458332,72.0,89.0
221,248.28115068749997,248.562400575,72.0,94.0
222,248.6978171875,248.82802546874998,72.0,88.0
223,248.90615043749997,249.3262891583333,74.0,93.0
224,249.53115018749997,249.80371952291665,74.0,90.0
225,249.9478166875,250.13010828125,74.0,92.0
226,250.15614993749998,250.46170537083333,69.0,98.0
227,250.78114968749998,251.03114958749998,71.0,89.0
228,254.53114818749998,254.60927315625,72.0,88.0
229,254.7394814375,254.81413418541666,72.0,88.0
230,254.9478146875,255.19087014583332,72.0,88.0
231,255.3644811875,255.48948113749998,72.0,87.0
232,255.78114768749998,256.17177253125,74.0,102.0
233,256.1978141875,256.44955019791666,74.0,96.0
234,256.61448068749996,256.88705002291664,74.0,108.0
235,257.0311471875,257.32802206875,76.0,107.0
236,257.4478136875,257.7203830229167,74.0,108.0
237,258.2811466875,258.8783686708333,76.0,114.0
238,259.11447968749997,259.50857675208334,71.0,102.0
239,260.36447918749997,260.74642347916665,71.0,104.0
240,260.7811456875,261.0867011208333,69.0,96.0
241,261.1978121875,261.4460759770833,69.0,102.0
242,261.61447868749997,261.9443396666667,69.0,104.0
243,262.0311451875,262.30371452291666,67.0,102.0
244,262.4478116875,262.69260325625,69.0,102.0
245,262.86447818749997,262.94086704583333,69.0,87.0
246,263.0728114375,263.187394725,69.0,88.0
247,263.2811446875,263.4894779375,71.0,92.0
248,263.6978111875,264.0814915895833,71.0,94.0
249,264.11447768749997,264.42176923125,69.0,91.0
250,268.0728094375,268.1700316208333,71.0,88.0
251,268.2811426875,268.3783648708333,71.0,88.0
252,268.4894759375,268.71864251249997,71.0,91.0
253,268.90614243749997,269.1387812333333,71.0,89.0
254,269.3228089375,269.5502394020833,74.0,104.0
255,269.7394754375,269.82801706875,74.0,93.0
256,270.15614193749997,270.35926685625,74.0,104.0
257,270.3644751875,270.6908639458333,72.0,100.0
258,270.7811416875,271.0710721270833,71.0,110.0
259,273.4894739375,273.8314876895833,71.0,107.0
260,273.90614043749997,274.30718194375,69.0,92.0
261,274.3228069375,274.6769734625,67.0,98.0
262,275.5728064375,275.80370912291664,67.0,94.0
263,275.9894729375,276.2221117333333,69.0,88.0
264,276.4061394375,276.48600051666665,69.0,88.0
265,276.6144726875,277.14051414375,69.0,89.0
266,277.2394724375,277.5033612208333,67.0,87.0
267,277.6561389375,277.9773193645833,71.0,93.0
268,281.4061374375,281.5554429333333,71.0,94.0
269,281.8228039375,282.02245663541663,71.0,98.0
270,282.23947043749996,282.42870647291664,71.0,93.0
271,282.6561369375,282.8887757333333,74.0,100.0
272,283.0728034375,283.2603033625,74.0,93.0
273,283.48946993749996,283.74467816875,74.0,93.0
274,283.9061364375,284.0137752833333,76.0,88.0
275,284.1144696875,284.37488625,76.0,92.0
276,286.7186353125,287.05891295416666,71.0,100.0
277,287.13530181249996,287.53287109791665,69.0,93.0
278,287.5519683125,287.91481538958334,67.0,98.0
279,288.8019678125,288.90266221666667,67.0,91.0
280,289.0103010625,289.12141212916663,67.0,89.0
281,289.2186343125,289.4148147895833,69.0,102.0
282,289.63530081249996,289.9651617916667,74.0,108.0
283,290.0519673125,290.4599532604166,71.0,91.0
284,290.4686338125,290.854050325,69.0,86.0
285,290.88530031249996,291.19085574583335,67.0,88.0
286,293.38529931249997,293.7255769541666,71.0,100.0
287,293.8019658125,294.1995350979166,69.0,93.0
288,294.2186323125,294.5814793895833,67.0,98.0
289,295.4686318125,295.56932621666664,67.0,91.0
290,295.67696506249996,295.78807612916665,67.0,89.0
291,295.88529831249997,296.08147878958334,69.0,102.0
292,296.3019648125,296.63182579166664,74.0,108.0
293,296.7186313125,297.12661726041665,71.0,91.0
294,297.13529781249997,297.520714325,69.0,86.0
295,297.5519643125,297.8575197458333,67.0,88.0
