,start,end,pitch,velocity
0,1.0937495625,1.38020778125,62.0,77.0
1,1.3020828125,1.7326381958333332,67.0,87.0
2,1.7187493125,2.310762964583333,79.0,88.0
3,0.6770830624999999,2.3246518479166665,55.0,92.0
4,2.1354158125,2.39062404375,62.0,82.0
5,2.7604155625,3.0434015604166667,62.0,79.0
6,2.9687488125,3.36979031875,66.0,87.0
7,3.3854153124999997,3.7881929291666663,78.0,88.0
8,2.3437490624999997,3.8819428916666663,50.0,94.0
9,3.8020818125,4.062498375,62.0,86.0
10,4.0104150625,4.576387058333333,52.0,104.0
11,4.6354148125,4.9982618895833335,64.0,88.0
12,4.4270815625,5.001734110416667,59.0,79.0
13,4.6354148125,5.0520813124999995,47.0,97.0
14,5.0520813124999995,5.423608941666666,76.0,74.0
15,5.260414562499999,5.581594989583333,50.0,97.0
16,5.468747812499999,5.970483722916667,59.0,86.0
17,6.0937475625,6.3020808125,59.0,81.0
18,5.6770810625,6.519094614583333,52.0,96.0
19,6.3020808125,6.741316747916667,62.0,90.0
20,6.5104140625,7.274302645833333,50.0,97.0
21,6.7187473125,7.3229137374999995,67.0,88.0
22,7.1354138124999995,7.324649847916667,59.0,84.0
23,7.760413562499999,8.001732910416667,62.0,83.0
24,7.968746812499999,8.371524429166666,67.0,88.0
25,7.343747062499999,8.982635295833333,55.0,94.0
26,8.385413312499999,9.034718608333334,79.0,90.0
27,8.802079812499999,9.079857479166666,62.0,84.0
28,9.4270795625,10.04166265,62.0,82.0
29,9.6354128125,10.0520793125,66.0,87.0
30,9.0104130625,10.51562079375,50.0,92.0
31,10.0520793125,10.595481872916666,78.0,87.0
32,10.4687458125,10.685759614583333,62.0,77.0
33,10.677079062499999,11.251731610416666,52.0,88.0
34,11.093745562499999,11.701384208333332,59.0,74.0
35,11.3020788125,11.706592539583333,64.0,87.0
36,11.3020788125,11.79687028125,47.0,97.0
37,11.9270785625,12.276036756249999,50.0,97.0
38,12.1354118125,12.50520333125,59.0,73.0
39,11.7187453125,12.581592189583333,76.0,82.0
40,12.968744812499999,13.178814172916667,67.0,81.0
41,12.7604115625,13.215272491666665,59.0,75.0
42,12.3437450625,13.220480822916667,52.0,89.0
43,13.385411312499999,13.621522329166666,59.0,81.0
44,13.5937445625,13.772563935416667,62.0,77.0
45,13.1770780625,14.003466620833333,50.0,93.0
46,13.802077812499999,14.0520777125,67.0,88.0
47,14.4270775625,14.649299695833333,60.0,74.0
48,14.6354108125,15.1770772625,67.0,87.0
49,15.0520773125,15.343743862499998,76.0,81.0
50,14.0104110625,15.5520771125,48.0,92.0
51,15.260410562499999,15.661452068749998,64.0,81.0
52,15.4687438125,15.888882533333332,67.0,88.0
53,16.0937435625,16.569437816666667,57.0,78.0
54,16.302076812499998,16.736104416666667,62.0,91.0
55,16.927076562499998,17.079854279166664,57.0,71.0
56,16.7187433125,17.25520143125,78.0,85.0
57,15.677077062499999,17.305548633333334,50.0,100.0
58,17.361104166666667,17.574645747916666,79.0,100.0
59,17.5520763125,17.81075676458333,59.0,84.0
60,17.760409562499998,17.97221503333333,64.0,83.0
61,17.3437430625,18.154506627083332,55.0,98.0
62,17.9687428125,18.230895485416667,67.0,88.0
63,18.194437166666667,18.373256539583334,78.0,93.0
64,18.3854093125,18.56770090625,59.0,80.0
65,18.593742562499997,18.812492475,66.0,83.0
66,18.1770760625,18.99478406875,54.0,88.0
67,18.8020758125,19.045131270833334,67.0,87.0
68,19.218742312499998,19.3229089375,59.0,97.0
69,19.4270755625,19.619783818749998,64.0,97.0
70,19.6354088125,19.739575437499997,67.0,97.0
71,19.0104090625,19.74825598958333,76.0,90.0
72,19.0104090625,19.852422614583332,52.0,88.0
73,20.052075312499998,20.1562419375,57.0,97.0
74,19.8437420625,20.270825225,74.0,86.0
75,20.2604085625,20.42013072083333,62.0,97.0
76,20.4687418125,20.5729084375,66.0,97.0
77,19.8437420625,20.597213983333333,50.0,97.0
78,20.6770750625,21.071172127083333,72.0,86.0
79,21.0937415625,21.336797020833334,60.0,71.0
80,21.3020748125,21.69096354583333,67.0,88.0
81,21.7187413125,21.989574537499998,60.0,78.0
82,20.6770750625,22.168393910416665,48.0,96.0
83,21.9270745625,22.319435516666665,64.0,83.0
84,22.1354078125,22.425338252083332,67.0,86.0
85,22.7604075625,23.020824124999997,57.0,78.0
86,22.9687408125,23.428810072916665,66.0,85.0
87,23.3854073125,23.883671002083332,64.0,82.0
88,22.343741062499998,23.987837627083334,50.0,93.0
89,24.4270735625,24.5729068375,62.0,72.0
90,24.635406812499998,24.98436500625,71.0,98.0
91,25.0520733125,25.564225885416665,72.0,96.0
92,25.6770730625,25.8020730125,67.0,79.0
93,24.010407062499997,26.449642197916667,55.0,90.0
94,25.6770730625,26.458322749999997,71.0,87.0
95,25.6770730625,26.489572737499998,62.0,70.0
96,27.765613893749997,28.060752664583333,62.0,80.0
97,27.97394714375,28.87325233958333,71.0,90.0
98,28.59894689375,28.881932891666665,62.0,86.0
99,28.80728014375,29.019085614583332,67.0,81.0
100,27.34894739375,29.0833217,55.0,88.0
101,29.43227989375,29.687488124999998,62.0,79.0
102,29.64061314375,30.06596019583333,69.0,94.0
103,29.015613393749998,30.446168377083332,50.0,98.0
104,30.057279643749997,30.4999878,62.0,78.0
105,30.26561289375,30.605890535416666,66.0,84.0
106,30.47394614375,30.718737712499998,69.0,84.0
107,31.09894589375,31.2499875,64.0,76.0
108,31.307279143749998,31.80033450208333,71.0,90.0
109,30.682279393749997,32.052070512499995,52.0,93.0
110,31.72394564375,32.35241761458333,67.0,82.0
111,31.93227889375,32.36977871875,64.0,82.0
112,32.76561189375,32.98783402708333,64.0,64.0
113,32.97394514375,33.515611593749995,71.0,93.0
114,33.39061164375,33.69616707708333,67.0,80.0
115,33.59894489375,33.90970865833333,64.0,65.0
116,32.34894539375,34.04165305,52.0,91.0
117,34.43227789375,34.652763916666665,60.0,70.0
118,34.64061114375,35.045124870833334,67.0,94.0
119,34.01561139375,35.335055310416664,48.0,96.0
120,35.05727764375,35.33679142083333,60.0,77.0
121,35.26561089375,35.47568025416666,64.0,87.0
122,35.473944143749996,35.69269405625,67.0,86.0
123,36.09894389375,36.37672156041666,62.0,75.0
124,36.30727714375,36.96526299166666,69.0,89.0
125,36.72394364375,36.99304075833333,62.0,82.0
126,36.93227689375,37.18574901458333,66.0,79.0
127,35.68227739375,37.27255453541667,50.0,98.0
128,37.140610143749996,37.29859619166667,67.0,65.0
129,37.765609893749996,37.928804272916665,62.0,74.0
130,37.97394314375,38.38192909166666,69.0,104.0
131,37.34894339375,38.86283167708333,55.0,91.0
132,38.39060964375,39.185748214583334,71.0,90.0
133,39.432275893749996,39.59720638333333,62.0,78.0
134,39.64060914375,40.027761766666664,69.0,93.0
135,39.01560939375,40.51734490416666,55.0,89.0
136,40.057275643749996,40.69442816666666,71.0,88.0
137,40.47394214375,40.729150374999996,62.0,82.0
138,41.098941893749995,41.513872283333335,62.0,77.0
139,41.51560839375,41.895816575,69.0,90.0
140,41.93227489375,41.999983199999996,71.0,77.0
141,40.68227539375,42.355885835416665,55.0,100.0
142,41.93227489375,42.3645663875,62.0,84.0
143,42.14060814375,42.44442746666667,71.0,93.0
144,42.76560789375,42.96699670208333,62.0,74.0
145,42.97394114375,43.36977431875,69.0,102.0
146,43.390607643749995,43.64407976458333,62.0,79.0
147,42.348941393749996,43.88713522291666,50.0,102.0
148,43.59894089375,43.989565737499994,69.0,83.0
149,43.80727414375,44.01907961458333,62.0,78.0
150,44.43227389375,44.60241271458333,67.0,67.0
151,44.640607143749996,45.388870733333334,76.0,96.0
152,44.015607393749995,45.52775956666667,52.0,94.0
153,45.057273643749994,45.5312317875,67.0,81.0
154,45.47394014375,45.67359284166666,71.0,83.0
155,46.09893989375,46.21525929166666,64.0,72.0
156,46.307273143749995,46.73435630625,71.0,100.0
157,46.72393964375,46.965258991666666,64.0,77.0
158,47.14060614375,47.30032830208333,64.0,79.0
159,46.932272893749996,47.331578289583334,67.0,84.0
160,45.682273393749995,47.35761994583333,52.0,94.0
161,47.76560589375,48.006925241666664,60.0,75.0
162,47.973939143749995,48.354147325,67.0,94.0
163,48.39060564375,48.694424966666666,60.0,79.0
164,48.598938893749995,48.777758266666666,64.0,84.0
165,47.348939393749994,48.871508229166665,48.0,96.0
166,48.80727214375,49.06074426458333,67.0,85.0
167,49.43227189375,49.666646799999995,62.0,75.0
168,49.640605143749994,50.18400770416667,69.0,89.0
169,50.05727164375,50.331577089583334,62.0,80.0
170,50.265604893749995,50.64234085416666,66.0,83.0
171,49.01560539375,50.67532695208333,50.0,100.0
172,50.47393814375,50.708313049999994,62.0,84.0
173,51.09893789375,51.270812825,62.0,84.0
174,51.30727114375,51.682270993749995,69.0,100.0
175,50.68227139375,52.09199305208333,55.0,89.0
176,51.72393764375,52.32463184791666,71.0,93.0
177,52.76560389375,52.916645499999994,62.0,73.0
178,52.97393714375,53.37845087083333,69.0,91.0
179,53.39060364375,53.624978549999994,71.0,88.0
180,52.34893739375,53.89233955416666,55.0,88.0
181,53.59893689375,54.03470060833333,67.0,81.0
182,53.807270143749996,54.03643671875,62.0,77.0
183,54.43226989375,54.79338086041666,64.0,72.0
184,54.64060314375,54.914908589583334,67.0,76.0
185,55.26560289375,55.51386668333333,64.0,80.0
186,54.01560339375,55.52601945625,48.0,104.0
187,54.848936393749995,55.60067220416666,72.0,96.0
188,55.473936143749995,55.70136660833333,67.0,87.0
189,56.098935893749996,56.397546885416666,62.0,77.0
190,56.30726914375,56.77428284583333,69.0,100.0
191,56.93226889375,57.145810475,66.0,82.0
192,56.723935643749996,57.14754658541666,62.0,78.0
193,55.68226939375,57.22740766458333,50.0,94.0
194,57.140602143749994,57.366296497916665,69.0,86.0
195,57.765601893749995,58.14060174375,62.0,80.0
196,58.18226839375,58.67879597291666,71.0,100.0
197,58.59893489375,58.77601815625,62.0,83.0
198,57.34893539375,58.77949037708333,55.0,104.0
199,58.807268143749994,59.187476325,67.0,89.0
200,59.22393464375,59.38018458125,62.0,80.0
201,59.432267893749994,59.671851131249994,67.0,81.0
202,59.64060114375,60.170114820833334,71.0,96.0
203,60.057267643749995,60.29511477083333,62.0,81.0
204,59.015601393749996,60.64407296458333,55.0,96.0
205,60.26560089375,60.68573961458333,67.0,86.0
206,60.47393414375,60.72219793333333,71.0,90.0
207,61.098933893749994,61.3853921125,64.0,82.0
208,61.307267143749996,61.579836479166666,67.0,87.0
209,61.51560039375,62.08157238958333,72.0,100.0
210,61.93226689375,62.192683456249995,64.0,81.0
211,60.682267393749996,62.270808425,48.0,92.0
212,62.14060014375,62.56768330625,67.0,92.0
213,62.55726664375,62.93573871458333,62.0,81.0
214,62.76559989375,62.99303035833333,66.0,84.0
215,62.973933143749996,63.486085716666665,69.0,96.0
216,63.390599643749994,63.689210635416664,62.0,79.0
217,62.348933393749995,63.96698830208333,50.0,93.0
218,63.598932893749996,63.97046052291666,66.0,84.0
219,63.80726614375,64.0520577125,69.0,87.0
220,64.43226589375,64.90969625833333,62.0,74.0
221,64.64059914375,65.05552953333333,71.0,90.0
222,65.05726564375,65.35934885625,62.0,76.0
223,65.05726564375,65.41490438958333,69.0,76.0
224,64.01559939375,65.55379322291667,55.0,104.0
225,65.47393214374999,65.79337646041667,62.0,79.0
226,65.47393214374999,65.88712642291667,67.0,87.0
227,65.68226539375,66.50170951041666,55.0,96.0
228,66.30726514375,66.58851503125,67.0,83.0
229,66.09893189374999,66.71698720208333,62.0,82.0
230,66.51559839375,66.94962599791667,57.0,107.0
231,66.93226489375,67.35761194583333,59.0,100.0
232,67.97393114375,68.2187227125,64.0,78.0
233,67.76559789375,68.24650047916667,60.0,80.0
234,68.59893089375,68.88886133333332,60.0,77.0
235,67.34893139375,68.90275021666666,48.0,102.0
236,68.18226439375,69.04337516041666,67.0,94.0
237,68.80726414374999,69.31420838541666,64.0,87.0
238,69.43226389374999,69.68573601458333,62.0,79.0
239,69.64059714375,70.27427744583333,69.0,100.0
240,70.05726364374999,70.32462464791666,62.0,83.0
241,70.26559689375,70.63712452291666,66.0,80.0
242,69.01559739375,70.66316617916667,50.0,96.0
243,70.47393014375,70.69094394583333,62.0,84.0
244,71.09892989375,71.33851313125,62.0,83.0
245,70.68226339374999,71.49129084791666,55.0,104.0
246,71.30726314374999,71.85413792499999,67.0,87.0
247,71.93226289374999,72.1353878125,62.0,84.0
248,71.51559639375,72.40448492708333,54.0,103.0
249,72.14059614375,72.41142936874999,69.0,87.0
250,72.76559589375,73.00865135208333,64.0,76.0
251,73.39059564374999,73.66490108958332,64.0,78.0
252,72.97392914375,73.76906771458333,71.0,85.0
253,73.59892889375,73.93052598333333,67.0,83.0
254,72.34892939375,73.96872041249999,52.0,94.0
255,73.80726214375,74.02948427708333,64.0,80.0
256,74.43226189375,74.66837291041666,60.0,77.0
257,74.64059514374999,75.07809496875,64.0,87.0
258,74.01559539374999,75.30726154375,48.0,91.0
259,75.05726164375,75.67878917291667,67.0,85.0
260,76.09892789375,76.39927499583332,61.0,81.0
261,76.30726114375,76.93052478333333,69.0,91.0
262,76.72392764375,76.979135875,61.0,81.0
263,76.93226089375,77.10934415624999,64.0,86.0
264,75.68226139375,77.12323303958333,49.0,109.0
265,77.14059414375,77.49649677916666,69.0,91.0
266,77.76559389375,77.9895521375,62.0,81.0
267,77.97392714374999,78.35760754583333,67.0,107.0
268,77.34892739374999,78.77080182499999,50.0,108.0
269,78.39059364375,80.28816232916667,69.0,96.0
270,79.01559339375,80.31420398541667,66.0,85.0
271,79.01559339375,80.33156508958334,50.0,83.0
272,79.01559339375,80.36107896666667,62.0,77.0
273,81.09892589374999,81.33330079999999,62.0,77.0
274,81.30725914375,81.94614777708333,71.0,88.0
275,81.72392564375,81.9687172125,62.0,81.0
276,81.93225889374999,82.36802260833333,67.0,84.0
277,80.68225939375,82.39232815416666,55.0,100.0
278,82.14059214375,82.41142536875,71.0,87.0
279,82.76559189375,83.00170291041667,62.0,84.0
280,82.97392514375,83.35586943541666,69.0,100.0
281,83.39059164375,83.84892479375,62.0,81.0
282,82.34892539375,83.88017478124999,50.0,102.0
283,83.59892489375,83.92878587291666,66.0,84.0
284,83.80725814374999,84.07114692708333,69.0,83.0
285,84.43225789374999,84.60066060416666,64.0,81.0
286,84.64059114375,85.04163265,71.0,102.0
287,85.05725764374999,85.34545197291666,64.0,84.0
288,85.05725764374999,85.46177137083333,69.0,87.0
289,84.01559139375,85.53642411874999,52.0,100.0
290,85.47392414375,85.84197955208333,64.0,88.0
291,85.47392414375,86.02600725625,67.0,91.0
292,86.09892389375,86.25864605208334,64.0,81.0
293,86.30725714375,86.70482642916666,69.0,110.0
294,86.72392364375,87.23607621666666,71.0,94.0
295,86.93225689375,87.36107616666666,69.0,87.0
296,85.68225739374999,87.3645483875,52.0,98.0
297,87.76558989374999,87.95482592916666,60.0,84.0
298,87.97392314375,88.35933965625,67.0,88.0
299,88.39058964374999,88.64232565416667,60.0,84.0
300,88.59892289375,88.77427004583333,64.0,87.0
301,87.34892339375,88.84197835208333,48.0,100.0
302,88.80725614375,89.23086708541666,67.0,89.0
303,89.43225589375,89.64753358541667,62.0,81.0
304,89.64058914374999,90.30725554374999,69.0,98.0
305,90.05725564375,90.34718608333333,62.0,76.0
306,90.26558889374999,90.49475546875,66.0,84.0
307,89.01558939374999,90.67183873124999,50.0,94.0
308,90.47392214375,90.69788038749999,67.0,86.0
309,91.09892189374999,91.47218563333332,62.0,80.0
310,91.51558839375,91.88017158125,69.0,107.0
311,91.93225489375,92.05725484375,62.0,80.0
312,90.68225539375,92.16315757916666,55.0,90.0
313,92.14058814375,92.66489348958333,62.0,91.0
314,92.14058814375,92.69093514583332,71.0,100.0
315,92.76558789375,92.8437128625,69.0,80.0
316,92.76558789375,92.84892119375,62.0,82.0
317,92.34892139374999,93.34892099375,55.0,93.0
318,92.97392114374999,93.44614317708333,62.0,104.0
319,92.97392114374999,93.46003206041667,71.0,108.0
320,93.59892089374999,93.83850413124999,69.0,87.0
321,93.39058764375,93.86628189791666,55.0,84.0
322,93.80725414375,94.08503181041667,67.0,84.0
323,93.59892089374999,94.08676792083332,62.0,85.0
324,94.43225389375,94.77426764583333,62.0,84.0
325,94.64058714375,94.89579537499999,67.0,81.0
326,95.05725364375,95.27947577708333,62.0,75.0
327,94.84892039374999,95.29683688125,71.0,107.0
328,94.01558739375,95.59892009375,55.0,108.0
329,95.26558689375,95.92878107291666,67.0,84.0
330,95.47392014375,95.93051718333332,71.0,89.0
331,96.09891989375,96.29510037083332,62.0,81.0
332,96.30725314374999,96.71871131249999,69.0,102.0
333,96.72391964375,97.02426674583333,62.0,80.0
334,95.68225339374999,97.24475276874999,50.0,92.0
335,96.93225289374999,97.29683608124999,66.0,85.0
336,97.14058614375,97.40100270625,69.0,86.0
337,97.76558589375,97.91662749999999,64.0,79.0
338,97.97391914375,98.3645439875,71.0,108.0
339,98.39058564375,98.66489108958332,64.0,86.0
340,98.39058564375,98.74648827916666,69.0,91.0
341,97.34891939375,98.85412712499999,52.0,98.0
342,98.80725214374999,99.23086308541666,64.0,91.0
343,98.80725214374999,99.23433530624999,71.0,92.0
344,99.64058514374999,99.96697390208332,64.0,104.0
345,99.64058514374999,100.00690444166666,71.0,107.0
346,100.05725164374999,100.33676542083333,64.0,88.0
347,100.05725164374999,100.42009872083332,69.0,92.0
348,99.01558539375,100.67357084166666,52.0,102.0
349,100.47391814375,100.70655693958332,67.0,89.0
350,100.47391814375,100.71697360208333,64.0,86.0
351,101.09891789375,101.35759834583332,64.0,84.0
352,101.30725114375,101.87843147083333,72.0,107.0
353,101.72391764375,101.99995919999999,64.0,81.0
354,100.68225139375,102.22218133333332,48.0,102.0
355,102.14058414374999,102.36801460833333,64.0,86.0
356,101.93225089375,102.41141736875,67.0,89.0
357,102.34891739375,103.30377812291667,50.0,92.0
358,102.97391714375,103.47565305416666,66.0,93.0
359,102.97391714375,103.48780582708332,69.0,94.0
360,102.97391714375,103.50690304166666,62.0,88.0
361,103.39058364374999,103.96002786041666,50.0,85.0
362,103.80725014375,103.979125075,69.0,46.0
363,103.59891689375,104.02600005625,66.0,88.0
364,103.59891689375,104.04509727083332,62.0,86.0
365,104.43224989375,104.604124825,62.0,79.0
366,104.64058314374999,105.00343022083332,69.0,107.0
367,104.01558339374999,105.53468000833332,55.0,93.0
368,105.05724964375,105.62148552916666,71.0,90.0
369,105.47391614374999,105.86627709791667,67.0,84.0
370,106.09891589374999,106.3332908,62.0,81.0
371,106.30724914375,106.64058234375,71.0,87.0
372,106.51558239375,106.89579057499999,57.0,102.0
373,105.68224939375,106.99301275833332,55.0,94.0
374,106.93224889375,107.34197095208333,59.0,100.0
375,107.76558189375,108.05898455416666,64.0,79.0
376,108.39058164375,108.66141486875,64.0,81.0
377,107.34891539374999,108.85065090416666,60.0,108.0
378,107.97391514374999,108.85933145624999,72.0,96.0
379,108.59891489374999,109.05551193333332,67.0,84.0
380,108.80724814374999,109.07113692708333,64.0,80.0
381,109.64058114375,110.13710872291666,64.0,78.0
382,110.05724764374999,110.33849753125,67.0,80.0
383,109.64058114375,110.48953913749999,72.0,100.0
384,109.43224789374999,110.49127524791666,60.0,81.0
385,110.26558089375,110.49821968958332,64.0,83.0
386,109.01558139375,110.50516413125,48.0,91.0
387,110.47391414375,110.70828904999999,67.0,85.0
388,111.09891389375,111.35064990416666,62.0,79.0
389,111.30724714374999,111.69439976666666,71.0,102.0
390,111.72391364375,112.04856629166666,62.0,82.0
391,111.72391364375,112.07634405833333,69.0,82.0
392,110.68224739374999,112.19266345624999,55.0,94.0
393,112.14058014375,112.62669106041666,62.0,87.0
394,112.14058014375,112.67356604166666,71.0,91.0
395,112.76557989375,112.89057984374999,62.0,81.0
396,112.97391314375,113.35759354583332,69.0,113.0
397,112.97391314375,113.4062046375,62.0,100.0
398,113.59891289375,113.6978711875,62.0,77.0
399,113.39057964374999,113.69960729791666,71.0,88.0
400,113.80724614374999,113.91314887916666,62.0,74.0
401,112.34891339375,114.02425994583332,55.0,98.0
402,113.59891289375,114.06071826458333,67.0,86.0
403,114.43224589375,114.57807916875,60.0,81.0
404,114.64057914374999,115.06939841666666,69.0,92.0
405,114.64057914374999,115.09717618333333,60.0,88.0
406,114.01557939374999,115.67703706249999,57.0,108.0
407,115.47391214375,115.9270369625,60.0,87.0
408,115.47391214375,115.96349528124999,69.0,89.0
409,115.05724564375,116.08502301041666,64.0,91.0
410,116.09891189375,116.26557849375,60.0,81.0
411,116.30724514375,116.87668936041666,69.0,104.0
412,116.72391164375,117.00516153125,60.0,80.0
413,115.68224539375,117.04335596041666,45.0,89.0
414,115.89057864374999,117.30898085416666,57.0,87.0
415,116.93224489375,117.39405026458333,64.0,78.0
416,117.14057814374999,117.62668906041667,69.0,88.0
417,117.76557789374999,117.93224449374999,62.0,81.0
418,117.55724464375,118.15793884791665,57.0,84.0
419,117.97391114374999,118.49821648958333,67.0,117.0
420,118.59891089374999,118.79509137083333,67.0,98.0
421,117.34891139375,118.83849413124999,50.0,107.0
422,118.59891089374999,118.89231355416666,62.0,86.0
423,118.39057764374999,119.03814682916666,57.0,90.0
424,118.80724414375,119.48259109583333,69.0,91.0
425,119.01557739375,119.52599385625,62.0,96.0
426,119.01557739375,119.55029940208333,66.0,100.0
427,119.43224389375,119.8645353875,57.0,87.0
428,119.64057714375,120.09543807291666,69.0,102.0
429,119.64057714375,120.11106306666666,66.0,106.0
430,119.64057714375,120.11453528749999,62.0,100.0
431,119.01557739375,120.52252123541666,50.0,96.0
432,120.05724364375,120.63363230208333,57.0,90.0
433,120.26557689375,120.6353684125,62.0,88.0
434,120.26557689375,120.65967395833333,66.0,91.0
435,120.26557689375,120.67877117291665,69.0,89.0
436,121.09890989374999,121.2499515,60.0,81.0
437,120.89057664375,121.56939581666666,55.0,87.0
438,121.30724314375,121.91140956874999,67.0,107.0
439,121.30724314375,121.97043732291667,60.0,89.0
440,121.93224289374999,122.13884003333332,64.0,74.0
441,120.68224339375,122.18918723541665,48.0,110.0
442,121.72390964374999,122.39752048541666,55.0,88.0
443,122.14057614375,122.60932595624999,60.0,83.0
444,122.14057614375,122.68397870416666,67.0,82.0
445,122.55724264374999,123.32460344791666,55.0,87.0
446,122.76557589375,123.64231165416666,64.0,78.0
447,122.97390914374999,123.66314497916666,72.0,100.0
448,122.34890939374999,123.81939491666667,48.0,92.0
449,123.39057564375,123.91835321041665,55.0,86.0
450,123.59890889375,124.00168651041666,67.0,83.0
451,123.80724214374999,124.03988093958333,72.0,82.0
452,123.80724214374999,124.04161705,64.0,86.0
453,124.22390864375,124.50515853124999,62.0,84.0
454,124.01557539375,124.86106116666666,55.0,107.0
455,124.64057514375,125.00342222083333,71.0,98.0
456,124.43224189374999,125.020783325,67.0,84.0
457,125.05724164374999,125.479116475,62.0,83.0
458,124.84890839375,125.73085248541666,54.0,95.0
459,125.26557489375,125.7603663625,66.0,87.0
460,125.47390814375,125.78467190833332,69.0,91.0
461,125.89057464375,126.17356064166665,64.0,86.0
462,126.09890789375,126.30724114374999,67.0,87.0
463,126.30724114374999,126.82633815833333,71.0,104.0
464,126.30724114374999,126.86106036666666,64.0,90.0
465,126.72390764375,127.06939361666666,67.0,83.0
466,127.14057414374999,127.31071296458333,64.0,75.0
467,125.68224139374999,127.32633795833333,52.0,104.0
468,126.93224089374999,127.33154628958333,71.0,88.0
469,127.14057414374999,127.35932405624999,50.0,90.0
470,127.76557389374999,127.91487938958333,60.0,78.0
471,127.55724064374999,128.23432370625,55.0,86.0
472,127.97390714375,128.57807356875,67.0,96.0
473,127.97390714375,128.71696240208334,60.0,88.0
474,127.34890739375,128.77946237708332,48.0,104.0
475,128.39057364375,129.05724004375,55.0,86.0
476,128.80724014375,129.22564275416667,67.0,83.0
477,128.59890689374998,129.23258719583333,64.0,80.0
478,129.43223989375,129.59022594166666,62.0,83.0
479,129.22390664374998,129.91314247916665,57.0,84.0
480,129.64057314375,130.08328129999998,69.0,93.0
481,129.64057314375,130.09890629375,62.0,88.0
482,129.64057314375,130.1596701583333,66.0,95.0
483,130.05723964375,130.34196175208334,57.0,87.0
484,129.01557339375,130.3645311875,50.0,96.0
485,130.26557289375,130.72216993333333,69.0,89.0
486,130.26557289375,130.79161435,62.0,88.0
487,131.09890589375,131.52772516666667,55.0,84.0
488,131.30723914375,131.90272501666666,67.0,89.0
489,131.30723914375,131.99821108958332,59.0,89.0
490,131.72390564375,132.05029440208332,55.0,86.0
491,130.68223939375,132.06418328541665,43.0,92.0
492,132.14057214375,132.22043322291665,59.0,74.0
493,131.93223889375,132.38883593333333,62.0,82.0
494,130.89057264375,132.42529425208332,50.0,84.0
495,132.34890539375,133.39230775416667,59.0,86.0
496,132.34890539375,133.43918273541667,67.0,88.0
497,132.34890539375,133.44091884583332,43.0,87.0
498,132.34890539375,133.46696050208334,55.0,88.0
499,134.43223789375,134.72737666458332,62.0,80.0
500,134.64057114374998,135.53987633958332,71.0,90.0
501,135.26557089374998,135.54855689166666,62.0,86.0
502,135.47390414375,135.68570961458332,67.0,81.0
503,134.01557139374998,135.74994569999998,55.0,88.0
504,136.09890389375,136.354112125,62.0,79.0
505,136.30723714375,136.73258419583334,69.0,94.0
506,135.68223739375,137.11279237708334,50.0,98.0
507,136.72390364375,137.1666118,62.0,78.0
508,136.93223689375,137.27251453541666,66.0,84.0
509,137.14057014374998,137.38536171249999,69.0,84.0
510,137.76556989374998,137.9166115,64.0,76.0
511,137.97390314375,138.46695850208332,71.0,90.0
512,137.34890339375,138.71869451249998,52.0,93.0
513,138.39056964374998,139.01904161458333,67.0,82.0
514,138.59890289375,139.03640271875,64.0,82.0
515,139.43223589375,139.65445802708334,64.0,64.0
516,139.64056914374999,140.18223559375,71.0,93.0
517,140.05723564375,140.36279107708333,67.0,80.0
518,140.26556889375,140.5763326583333,64.0,65.0
519,139.01556939374998,140.70827705,52.0,91.0
520,141.09890189375,141.31938791666667,60.0,70.0
521,141.30723514375,141.71174887083333,67.0,94.0
522,140.68223539375,142.00167931041665,48.0,96.0
523,141.72390164375,142.00341542083333,60.0,77.0
524,141.93223489374998,142.14230425416665,64.0,87.0
525,142.14056814375,142.35931805625,67.0,86.0
526,142.76556789375,143.04334556041667,62.0,75.0
527,142.97390114375,143.63188699166665,69.0,89.0
528,143.39056764375,143.65966475833332,62.0,82.0
529,143.59890089375,143.85237301458332,66.0,79.0
530,142.34890139375,143.93917853541666,50.0,98.0
531,143.80723414374998,143.96522019166665,67.0,65.0
532,144.43223389374998,144.59542827291665,62.0,74.0
533,144.64056714375,145.04855309166666,69.0,104.0
534,144.01556739375,145.52945567708332,55.0,91.0
535,145.05723364374998,145.8523722145833,71.0,90.0
536,146.09889989375,146.26383038333333,62.0,78.0
537,146.30723314374998,146.69438576666667,69.0,93.0
538,145.68223339374998,147.18396890416665,55.0,89.0
539,146.72389964375,147.36105216666667,71.0,88.0
540,147.14056614375,147.395774375,62.0,82.0
541,147.76556589375,148.18049628333333,62.0,77.0
542,148.18223239374998,148.56244057499998,69.0,90.0
543,148.59889889375,148.6666072,71.0,77.0
544,147.34889939375,149.02250983541666,55.0,100.0
545,148.59889889375,149.0311903875,62.0,84.0
546,148.80723214374999,149.11105146666665,71.0,93.0
547,149.43223189375,149.63362070208333,62.0,74.0
548,149.64056514375,150.03639831875,69.0,102.0
549,150.05723164375,150.31070376458334,62.0,79.0
550,149.01556539375,150.55375922291665,50.0,102.0
551,150.26556489375,150.6561897375,69.0,83.0
552,150.47389814375,150.68570361458333,62.0,78.0
553,151.09889789374998,151.26903671458334,67.0,67.0
554,151.30723114375,152.05549473333332,76.0,96.0
555,150.68223139375,152.19438356666666,52.0,94.0
556,151.72389764374998,152.1978557875,67.0,81.0
557,152.14056414375,152.34021684166666,71.0,83.0
558,152.76556389375,152.88188329166667,64.0,72.0
559,152.97389714374998,153.40098030625,71.0,100.0
560,153.39056364375,153.63188299166666,64.0,77.0
561,153.80723014375,153.9669523020833,64.0,79.0
562,153.59889689374998,153.99820228958333,67.0,84.0
563,152.34889739374998,154.02424394583332,52.0,94.0
564,154.43222989375,154.67354924166665,60.0,75.0
565,154.64056314375,155.020771325,67.0,94.0
566,155.05722964375,155.36104896666666,60.0,79.0
567,155.26556289375,155.44438226666665,64.0,84.0
568,154.01556339375,155.53813222916665,48.0,96.0
569,155.47389614374998,155.72736826458333,67.0,85.0
570,156.09889589374998,156.33327079999998,62.0,75.0
571,156.30722914375,156.85063170416666,69.0,89.0
572,156.72389564374998,156.99820108958332,62.0,80.0
573,156.93222889375,157.30896485416665,66.0,83.0
574,155.68222939375,157.34195095208332,50.0,100.0
575,157.14056214375,157.37493705,62.0,84.0
576,157.76556189375,157.937436825,62.0,84.0
577,157.97389514374998,158.34889499374998,69.0,100.0
578,157.34889539374998,158.75861705208334,55.0,89.0
579,158.39056164375,158.99125584791665,71.0,93.0
580,159.43222789375,159.5832695,62.0,73.0
581,159.64056114375,159.83326939999998,43.0,100.0
582,159.64056114375,160.04507487083333,69.0,91.0
583,159.84889439375,160.24472756875,45.0,98.0
584,160.05722764375,160.29160255,71.0,88.0
585,159.01556139375,160.55896355416667,55.0,88.0
586,160.26556089374998,160.67181073125,47.0,98.0
587,160.26556089374998,160.70132460833332,67.0,81.0
588,160.47389414375,160.70306071874998,62.0,77.0
589,161.09368556249999,161.17354664166666,67.0,88.0
590,161.09368556249999,161.18222719374998,64.0,84.0
591,161.09368556249999,161.18743552499998,72.0,86.0
592,160.6770190625,161.36104656666666,48.0,88.0
593,161.3020188125,161.59194925208334,64.0,91.0
594,161.3020188125,161.60062980416666,72.0,89.0
595,161.3020188125,161.62146312916667,67.0,100.0
596,161.5103520625,162.01208797291665,48.0,93.0
597,161.9270185625,162.27771286666666,72.0,91.0
598,161.9270185625,162.28812952916667,64.0,100.0
599,161.9270185625,162.31764340625,67.0,107.0
600,162.76035156249998,162.82805986875,66.0,95.0
601,162.76035156249998,162.82979597916665,62.0,92.0
602,162.76035156249998,162.8332682,69.0,92.0
603,162.3436850625,163.03812922916666,50.0,89.0
604,162.9686848125,163.33500411041666,69.0,100.0
605,162.9686848125,163.33847633124998,62.0,102.0
606,162.9686848125,163.35236521458333,66.0,106.0
607,163.1770180625,163.92528165208333,50.0,91.0
608,163.5936845625,164.00861495208332,62.0,92.0
609,163.5936845625,164.02771216666665,66.0,103.0
610,163.5936845625,164.03639271875,69.0,100.0
611,164.4270175625,164.48430920625,62.0,93.0
612,164.4270175625,164.49298975833332,71.0,88.0
613,164.4270175625,164.50167031041667,67.0,94.0
614,164.01035106249998,164.69611467708333,43.0,86.0
615,164.63535081249998,164.92528125208332,62.0,104.0
616,164.63535081249998,164.93048958333333,67.0,107.0
617,164.63535081249998,164.94611457708334,71.0,94.0
618,165.26035056249998,165.31764220624999,67.0,96.0
619,165.26035056249998,165.32458664791665,62.0,94.0
620,165.26035056249998,165.32632275833333,71.0,91.0
621,164.8436840625,165.59194765208332,50.0,93.0
622,165.4686838125,165.83500311041666,71.0,96.0
623,165.4686838125,165.85062810416665,67.0,107.0
624,165.4686838125,165.86104476666665,62.0,98.0
625,166.0936835625,166.16139186875,71.0,87.0
626,166.0936835625,166.16312797916666,62.0,91.0
627,166.0936835625,166.16486408958332,67.0,91.0
628,165.6770170625,166.26729460416666,43.0,94.0
629,166.51035006249998,166.69784998749998,43.0,102.0
630,166.3020168125,166.71000276041667,62.0,94.0
631,166.3020168125,166.77250273541665,67.0,100.0
632,166.3020168125,166.78291939791666,71.0,91.0
633,166.7186833125,166.99472486874998,45.0,83.0
634,166.9270165625,167.31416918541666,47.0,110.0
635,167.76034956249998,167.82979397916665,67.0,98.0
636,167.76034956249998,167.8367384208333,72.0,89.0
637,167.76034956249998,167.83847453125,64.0,94.0
638,167.9686828125,168.05201611249998,67.0,107.0
639,167.9686828125,168.05375222291667,64.0,94.0
640,167.9686828125,168.08673832083332,72.0,90.0
641,167.3436830625,168.12493275,48.0,108.0
642,168.5936825625,168.65097420625,72.0,91.0
643,168.5936825625,168.6561825375,67.0,107.0
644,168.5936825625,168.66139086875,64.0,96.0
645,168.1770160625,168.84715468333332,55.0,100.0
646,168.8020158125,168.87840467083333,64.0,98.0
647,168.8020158125,168.88187689166665,67.0,108.0
648,168.8020158125,168.91833521041667,72.0,89.0
649,168.8020158125,168.97389074375,48.0,91.0
650,169.4270155625,169.49298775833333,62.0,90.0
651,169.4270155625,169.49472386875,69.0,90.0
652,169.4270155625,169.4999322,66.0,89.0
653,169.01034906249998,169.51902941458331,50.0,117.0
654,169.63534881249998,169.81764040624998,50.0,92.0
655,169.63534881249998,169.86798760833332,69.0,93.0
656,169.63534881249998,169.87666816041667,66.0,95.0
657,169.63534881249998,169.88014038125,62.0,92.0
658,169.8436820625,170.40791794791664,57.0,113.0
659,170.26034856249998,170.53291789791666,62.0,100.0
660,170.26034856249998,170.55722344375,66.0,106.0
661,170.26034856249998,170.57632065833332,69.0,107.0
662,170.4686818125,170.68048728333332,50.0,91.0
663,171.0936815625,171.15965375833332,67.0,92.0
664,171.0936815625,171.16138986874998,62.0,89.0
665,171.0936815625,171.16486208958332,71.0,89.0
666,170.6770150625,171.3332648,43.0,102.0
667,171.3020148125,171.36625089791667,62.0,102.0
668,171.3020148125,171.48604251666666,71.0,94.0
669,171.3020148125,171.52423694583334,67.0,108.0
670,171.92701456249998,172.00687564166665,62.0,96.0
671,171.92701456249998,172.0103478625,67.0,98.0
672,171.5103480625,172.01729230416666,50.0,94.0
673,171.92701456249998,172.06416728541666,71.0,92.0
674,172.3436810625,172.80375032291667,43.0,96.0
675,172.7603475625,172.85583363541664,62.0,89.0
676,172.7603475625,173.03986133958333,67.0,91.0
677,172.7603475625,173.04854189166664,71.0,89.0
678,172.9686808125,173.10583353541665,43.0,92.0
679,173.17701406249998,173.5832639,45.0,107.0
680,173.5936805625,174.0103470625,47.0,100.0
681,174.42701356249998,174.49819408958334,67.0,107.0
682,174.42701356249998,174.5034024208333,64.0,92.0
683,174.42701356249998,174.51208297291666,72.0,90.0
684,174.6353468125,174.70999956041666,67.0,114.0
685,174.6353468125,174.72041622291667,64.0,108.0
686,174.6353468125,174.77076342499998,72.0,93.0
687,174.0103470625,174.79159675,48.0,96.0
688,175.2603465625,175.29680488124998,67.0,94.0
689,175.2603465625,175.31937431666665,64.0,98.0
690,175.2603465625,175.31937431666665,72.0,91.0
691,174.8436800625,175.59715198333333,55.0,100.0
692,175.4686798125,175.61798530833332,64.0,98.0
693,175.4686798125,175.63708252291667,67.0,113.0
694,175.4686798125,175.67354084166666,72.0,91.0
695,176.0936795625,176.14749898541666,69.0,91.0
696,176.0936795625,176.15097120624998,66.0,97.0
697,176.0936795625,176.16138786874998,62.0,98.0
698,175.67701306249998,176.18222119375,50.0,98.0
699,176.30201281249998,176.54680438124998,62.0,102.0
700,176.30201281249998,176.55374882291665,69.0,104.0
701,176.30201281249998,176.562429375,66.0,109.0
702,176.5103460625,176.98256809583333,55.0,104.0
703,176.92701256249998,177.21173467083332,62.0,96.0
704,176.92701256249998,177.21520689166667,69.0,100.0
705,176.92701256249998,177.25166521041666,66.0,103.0
706,177.7603455625,177.81069276458334,62.0,89.0
707,177.7603455625,177.82805386875,67.0,98.0
708,177.3436790625,178.062428775,43.0,92.0
709,177.9686788125,178.20478982916666,62.0,93.0
710,177.9686788125,178.21173427083332,71.0,94.0
711,177.9686788125,178.2499287,67.0,102.0
712,178.5936785625,178.67180353125,66.0,86.0
713,178.5936785625,178.67527575208334,62.0,87.0
714,178.5936785625,178.687428525,69.0,88.0
715,178.80201181249998,178.99645617916667,62.0,87.0
716,178.17701206249998,179.0103450625,42.0,90.0
717,178.80201181249998,179.06937281666666,66.0,89.0
718,178.80201181249998,179.10062280416665,69.0,88.0
719,179.42701156249998,179.50513653125,64.0,84.0
720,179.42701156249998,179.50513653125,71.0,86.0
721,179.42701156249998,179.51555319374998,67.0,85.0
722,179.0103450625,179.74471976875,41.0,86.0
723,179.6353448125,179.95652523958333,64.0,88.0
724,179.6353448125,179.95999746041664,71.0,89.0
725,179.6353448125,180.03985853958332,67.0,92.0
726,179.8436780625,180.35235841458334,41.0,88.0
727,180.4686778125,180.59194165208334,41.0,91.0
728,180.2603445625,180.64055274375,64.0,88.0
729,180.2603445625,180.65096940625,71.0,88.0
730,180.2603445625,180.69263605625,67.0,94.0
731,181.09367756249998,181.16312197916665,69.0,89.0
732,181.09367756249998,181.1752747520833,61.0,86.0
733,181.09367756249998,181.1752747520833,64.0,88.0
734,180.6770110625,181.38534411249998,45.0,96.0
735,181.3020108125,181.53464960833332,61.0,86.0
736,181.3020108125,181.54159405,69.0,98.0
737,181.3020108125,181.61624679791666,64.0,96.0
738,181.5103440625,181.979093875,45.0,91.0
739,181.9270105625,182.15791324791667,61.0,95.0
740,181.9270105625,182.21520489166664,69.0,96.0
741,181.9270105625,182.2325659958333,64.0,98.0
742,182.7603435625,182.81763520625,69.0,86.0
743,182.7603435625,182.83152408958333,64.0,86.0
744,182.7603435625,182.84020464166665,61.0,84.0
745,182.34367706249998,183.00860735208332,49.0,106.0
746,182.96867681249998,183.16832951041667,69.0,89.0
747,182.96867681249998,183.1978433875,61.0,86.0
748,182.96867681249998,183.2377739270833,64.0,94.0
749,183.1770100625,183.77944037708332,49.0,106.0
750,183.59367656249998,183.78985703958332,61.0,103.0
751,183.59367656249998,183.84020424166667,69.0,94.0
752,183.59367656249998,184.17353744166667,64.0,91.0
753,184.4270095625,184.48603731666665,69.0,93.0
754,184.4270095625,184.49471786875,62.0,92.0
755,184.4270095625,184.51034286249998,66.0,103.0
756,184.0103430625,184.66485668958333,50.0,88.0
757,184.6353428125,184.98430100624998,69.0,93.0
758,184.6353428125,185.04159264999998,62.0,91.0
759,184.6353428125,185.05721764375,66.0,95.0
760,184.84367606249998,185.32978697916667,50.0,89.0
761,185.2603425625,185.60409242499998,62.0,102.0
762,185.2603425625,185.61971741874999,69.0,94.0
763,185.2603425625,185.62318963958333,66.0,103.0
764,185.6770090625,186.96693910208333,62.0,77.0
765,185.6770090625,186.98082798541665,69.0,81.0
766,185.6770090625,186.98603631666666,50.0,77.0
767,185.6770090625,186.99645297916666,66.0,77.0
768,187.34367506249998,187.7603415625,43.0,96.0
769,187.7603415625,188.05027200208332,62.0,92.0
770,187.96867481249998,188.0728414375,43.0,96.0
771,187.7603415625,188.12839697083334,71.0,98.0
772,187.7603415625,188.19784138749998,67.0,100.0
773,188.1770080625,188.63186899166666,43.0,98.0
774,188.59367456249998,188.99471606875,71.0,91.0
775,188.59367456249998,189.02943827708333,62.0,90.0
776,188.59367456249998,189.05895215416666,67.0,96.0
777,189.0103410625,189.49297975833332,38.0,94.0
778,189.63534081249998,189.73950743749998,38.0,107.0
779,189.4270075625,190.02770176666667,62.0,88.0
780,189.4270075625,190.04679898125,69.0,87.0
781,189.4270075625,190.0554795333333,66.0,88.0
782,189.84367406249999,190.09020174166665,38.0,110.0
783,190.4686738125,190.66138206875,38.0,98.0
784,190.26034056249998,190.69089594583332,62.0,94.0
785,190.26034056249998,190.73777092708332,66.0,91.0
786,190.26034056249998,190.92527085208332,69.0,104.0
787,190.6770070625,191.1978401875,40.0,108.0
788,191.3020068125,191.4061734375,40.0,97.0
789,191.0936735625,191.4061734375,64.0,93.0
790,191.0936735625,191.4061734375,71.0,88.0
791,191.0936735625,191.41138176874998,67.0,96.0
792,191.51034006249998,191.9270065625,35.0,108.0
793,191.9270065625,192.13533981249998,38.0,97.0
794,191.9270065625,192.31589529583331,71.0,102.0
795,191.9270065625,192.34193695208333,64.0,100.0
796,191.9270065625,192.34540917291665,67.0,108.0
797,192.3436730625,192.86450618749998,40.0,107.0
798,192.9686728125,193.0728394375,40.0,97.0
799,192.76033956249998,193.10582553541667,71.0,92.0
800,192.76033956249998,193.14749218541667,67.0,98.0
801,192.76033956249998,193.15096440624998,64.0,92.0
802,193.1770060625,193.90617243749998,40.0,104.0
803,193.5936725625,193.93047798333333,71.0,91.0
804,193.5936725625,193.95825574999998,64.0,88.0
805,193.5936725625,194.00513073124998,67.0,94.0
806,194.01033906249998,194.48603331666666,48.0,110.0
807,194.63533881249998,194.7395054375,48.0,114.0
808,194.4270055625,194.93221369375,72.0,88.0
809,194.4270055625,194.9461025770833,67.0,96.0
810,194.4270055625,194.9478386875,64.0,91.0
811,194.8436720625,195.10582473541666,48.0,104.0
812,195.4686718125,195.60929675625,48.0,107.0
813,195.26033856249998,195.70478282916665,67.0,107.0
814,195.26033856249998,195.72040782291666,64.0,98.0
815,195.26033856249998,195.73950503749998,72.0,93.0
816,195.6770050625,196.11276877708332,38.0,114.0
817,196.3020048125,196.51033806249998,38.0,102.0
818,196.0936715625,196.75339352083333,69.0,88.0
819,196.0936715625,196.75686574166664,62.0,89.0
820,196.0936715625,196.76554629375,66.0,91.0
821,196.51033806249998,197.03117118749998,38.0,104.0
822,197.13533781249998,197.30374052291666,38.0,94.0
823,196.9270045625,197.39228215416665,62.0,88.0
824,196.9270045625,197.45651823958332,69.0,91.0
825,197.3436710625,197.8645041875,43.0,98.0
826,197.9686708125,198.0728374375,43.0,97.0
827,197.76033756249998,198.09714298333333,62.0,102.0
828,197.76033756249998,198.1179763083333,71.0,96.0
829,197.76033756249998,198.13012908124998,67.0,104.0
830,198.1770040625,198.83846213125,43.0,89.0
831,198.5936705625,198.87839267083334,62.0,98.0
832,198.5936705625,198.99297595833332,67.0,98.0
833,198.5936705625,198.99992039999998,71.0,92.0
834,199.01033706249999,199.53117018749998,43.0,89.0
835,199.6353368125,199.7395034375,43.0,97.0
836,199.42700356249998,199.77422564583333,62.0,94.0
837,199.42700356249998,199.81242007499998,71.0,94.0
838,199.42700356249998,199.82457284791667,67.0,98.0
839,200.2603365625,200.44436426666667,62.0,96.0
840,199.8436700625,200.4686698125,43.0,96.0
841,200.2603365625,200.47735036458332,67.0,100.0
842,200.2603365625,200.49818368958333,71.0,93.0
843,200.67700306249998,201.0936695625,43.0,107.0
844,201.0936695625,201.39922499583332,62.0,102.0
845,201.0936695625,201.40269721666667,71.0,98.0
846,201.30200281249998,201.40616943749998,43.0,97.0
847,201.0936695625,201.40964165833333,67.0,107.0
848,201.92700256249998,202.18394690416665,62.0,89.0
849,201.92700256249998,202.24644687916665,71.0,91.0
850,201.92700256249998,202.25339132083332,67.0,94.0
851,201.5103360625,202.26901631458333,43.0,107.0
852,202.3436690625,202.90443272708333,38.0,90.0
853,202.3436690625,202.9061688375,50.0,93.0
854,202.9686688125,203.02943267708332,38.0,77.0
855,202.7603355625,203.22561315416667,69.0,96.0
856,202.7603355625,203.22908537499998,62.0,91.0
857,202.7603355625,203.23429370624999,66.0,97.0
858,203.17700206249998,203.37839087083333,38.0,88.0
859,203.17700206249998,203.40269641666666,50.0,90.0
860,203.80200181249998,203.90443232708333,50.0,86.0
861,203.80200181249998,203.90616843749999,38.0,97.0
862,203.5936685625,203.98776562708332,69.0,91.0
863,203.5936685625,203.99297395833332,62.0,89.0
864,203.5936685625,203.99471006874998,66.0,95.0
865,204.0103350625,204.41137656875,40.0,86.0
866,204.0103350625,204.42352934166667,52.0,90.0
867,204.6353348125,204.73082088541665,52.0,88.0
868,204.6353348125,204.7377653270833,40.0,90.0
869,204.42700156249998,205.01727910416665,71.0,88.0
870,204.42700156249998,205.06762630625,64.0,88.0
871,204.42700156249998,205.0728346375,67.0,87.0
872,204.8436680625,205.3645011875,40.0,91.0
873,204.8436680625,205.3645011875,52.0,94.0
874,205.2603345625,205.84887599375,71.0,93.0
875,205.2603345625,205.85929265624998,67.0,91.0
876,205.2603345625,205.88359820208333,64.0,93.0
877,205.67700106249998,206.19436196666666,52.0,96.0
878,205.67700106249998,206.19783418749998,40.0,89.0
879,206.30200081249998,206.4061674375,40.0,97.0
880,206.0936675625,206.48950073749998,71.0,102.0
881,206.30200081249998,206.5103340625,52.0,97.0
882,206.0936675625,206.52248683541666,64.0,104.0
883,206.0936675625,206.52943127708332,67.0,102.0
884,206.5103340625,206.86450058749998,52.0,81.0
885,206.5103340625,206.91137556875,40.0,86.0
886,206.92700056249998,207.26554209374999,64.0,94.0
887,206.92700056249998,207.27422264583333,71.0,92.0
888,206.92700056249998,207.27595875625,67.0,92.0
889,207.34366706249997,207.92352794166666,48.0,89.0
890,207.34366706249997,207.96866681249998,36.0,89.0
891,207.7603335625,208.04852789166665,67.0,104.0
892,207.7603335625,208.05720844375,64.0,93.0
893,207.7603335625,208.05894455416666,72.0,91.0
894,207.96866681249998,208.07283343749998,36.0,97.0
895,207.96866681249998,208.07283343749998,48.0,97.0
896,208.17700006249999,208.64227765416666,36.0,94.0
897,208.17700006249999,208.64574987499998,48.0,90.0
898,208.8019998125,208.88186089166666,36.0,91.0
899,208.8019998125,208.91137476875,48.0,96.0
900,208.59366656249998,208.98776362708332,67.0,104.0
901,208.59366656249998,208.99123584791664,64.0,96.0
902,208.59366656249998,209.01901361458332,72.0,91.0
903,209.0103330625,209.52248563541664,50.0,100.0
904,209.0103330625,209.5311661875,38.0,98.0
905,209.6353328125,209.73429110625,38.0,107.0
906,209.6353328125,209.74817998958332,50.0,96.0
907,209.4269995625,210.02248543541666,62.0,91.0
908,209.4269995625,210.02248543541666,69.0,90.0
909,209.4269995625,210.03637431874998,66.0,97.0
910,209.84366606249998,210.07977707916666,38.0,102.0
911,209.84366606249998,210.08324929999998,50.0,91.0
912,210.46866581249998,210.54331856041665,38.0,89.0
913,210.46866581249998,210.57977687916664,50.0,90.0
914,210.2603325625,210.68047128333333,62.0,98.0
915,210.2603325625,210.7377629270833,66.0,106.0
916,210.2603325625,210.7377629270833,69.0,104.0
917,210.6769990625,211.19783218749998,43.0,87.0
918,210.6769990625,211.22560995416666,55.0,84.0
919,211.3019988125,211.4061654375,43.0,97.0
920,211.3019988125,211.4061654375,55.0,97.0
921,211.09366556249998,211.42005432083332,71.0,89.0
922,211.09366556249998,211.43567931458333,62.0,90.0
923,211.09366556249998,211.4478320875,67.0,91.0
924,211.5103320625,212.15790124791667,55.0,80.0
925,211.5103320625,212.15963735833333,43.0,83.0
926,211.9269985625,212.38359560208332,62.0,92.0
927,211.9269985625,212.38533171249998,67.0,100.0
928,211.9269985625,212.39054004374998,71.0,92.0
929,212.34366506249998,212.55373442291665,55.0,77.0
930,212.34366506249998,212.56935941666666,43.0,81.0
931,212.7603315625,212.9999148,62.0,94.0
932,212.7603315625,213.00512313125,67.0,96.0
933,212.7603315625,213.02074812499998,71.0,89.0
934,212.96866481249998,213.20824804999998,55.0,88.0
935,212.96866481249998,213.22213693333333,43.0,87.0
936,214.01553939374998,214.53637251875,48.0,102.0
937,214.4269975625,214.73602521666666,67.0,100.0
938,214.6353308125,214.73949743749998,48.0,97.0
939,214.4269975625,214.83498351041666,64.0,108.0
940,214.4269975625,214.854080725,60.0,96.0
941,214.84887239374999,215.54678878125,48.0,91.0
942,215.26553889374998,215.78810812916666,67.0,92.0
943,215.26553889374998,215.89748308541667,64.0,107.0
944,215.26553889374998,215.9061636375,60.0,92.0
945,215.68220539375,216.20303851875,48.0,90.0
946,216.3019968125,216.4061634375,48.0,97.0
947,216.09366356249998,216.44088564583333,67.0,100.0
948,216.09366356249998,216.4894967375,64.0,107.0
949,216.09366356249998,216.49296895833334,60.0,94.0
950,216.51553839374998,217.27595475625,48.0,89.0
951,216.93220489375,217.28637141874998,60.0,93.0
952,216.93220489375,217.30026030208333,67.0,98.0
953,216.93220489375,217.3228297375,64.0,104.0
954,217.34887139375,217.86970451874998,43.0,87.0
955,217.34887139375,217.88706562291665,55.0,92.0
956,217.96866281249999,218.0728294375,43.0,97.0
957,217.96866281249999,218.0728294375,55.0,97.0
958,217.76032956249998,218.1144960875,67.0,94.0
959,217.76032956249998,218.16831551041665,62.0,102.0
960,217.76032956249998,218.18567661458331,59.0,92.0
961,218.18220439375,218.8332458,43.0,87.0
962,218.18220439375,218.8471346833333,55.0,88.0
963,218.5936625625,219.01380128333332,67.0,96.0
964,218.5936625625,219.02769016666664,62.0,107.0
965,218.5936625625,219.05373182291666,59.0,92.0
966,219.01553739374998,219.53637051874998,43.0,88.0
967,219.01553739374998,219.55373162291664,55.0,91.0
968,219.63532881249998,219.73949543749998,43.0,97.0
969,219.63532881249998,219.73949543749998,55.0,97.0
970,219.4269955625,219.80720374375,67.0,96.0
971,219.4269955625,219.84539817291665,62.0,108.0
972,219.4269955625,219.86102316666666,59.0,94.0
973,219.84887039375,220.29678688125,43.0,88.0
974,219.84887039375,220.32456464791665,55.0,92.0
975,220.26553689374998,220.61796730833333,59.0,93.0
976,220.26553689374998,220.64921729583332,67.0,100.0
977,220.26553689374998,220.66484228958333,62.0,110.0
978,220.68220339375,221.20303651875,45.0,89.0
979,220.68220339375,221.23081428541664,57.0,89.0
980,221.3019948125,221.40616143749997,45.0,97.0
981,221.3019948125,221.40616143749997,57.0,97.0
982,221.0936615625,221.48255029583333,69.0,92.0
983,221.0936615625,221.50338362083332,60.0,89.0
984,221.0936615625,221.51206417291667,64.0,100.0
985,221.51553639374998,222.2117166708333,45.0,86.0
986,221.51553639374998,222.2117166708333,57.0,89.0
987,221.9269945625,222.35928605625,69.0,92.0
988,221.9269945625,222.36970271874998,60.0,92.0
989,221.9269945625,222.37664716041667,64.0,104.0
990,222.34886939375,222.86970251875,45.0,85.0
991,222.34886939375,222.88879973333331,57.0,87.0
992,222.9686608125,223.0728274375,45.0,97.0
993,222.9686608125,223.0728274375,57.0,97.0
994,222.76032756249998,223.17873017291666,69.0,90.0
995,222.76032756249998,223.2169246020833,60.0,89.0
996,222.76032756249998,223.2499107,64.0,104.0
997,223.5936605625,223.82109102708333,60.0,90.0
998,223.18220239374998,223.84886879375,57.0,91.0
999,223.5936605625,223.86102156666666,69.0,90.0
1000,223.18220239374998,223.86622989791667,45.0,87.0
1001,223.5936605625,223.9408826458333,64.0,102.0
1002,224.01553539374999,224.53636851874998,50.0,93.0
1003,224.63532681249998,224.7394934375,50.0,97.0
1004,224.4269935625,224.9061600375,69.0,94.0
1005,224.4269935625,224.91484058958332,66.0,97.0
1006,224.4269935625,224.91657669999998,62.0,96.0
1007,224.84886839375,225.52942367708332,50.0,89.0
1008,225.26032656249998,225.63879863333332,69.0,100.0
1009,225.26032656249998,225.65789584791665,66.0,103.0
1010,225.26032656249998,225.6700486208333,62.0,98.0
1011,225.68220139374998,226.20303451875,50.0,93.0
1012,226.30199281249998,226.40615943749998,50.0,97.0
1013,226.0936595625,226.48428440625,69.0,98.0
1014,226.0936595625,226.50858995208333,66.0,100.0
1015,226.0936595625,226.520742725,62.0,93.0
1016,226.93220089374998,227.18393690416664,62.0,94.0
1017,226.93220089374998,227.19435356666665,66.0,103.0
1018,226.93220089374998,227.20303411875,69.0,98.0
1019,226.51553439375,227.24470076875,50.0,90.0
1020,227.34886739375,227.86970051875,48.0,94.0
1021,227.9686588125,228.0728254375,48.0,97.0
1022,227.7603255625,228.145742075,67.0,100.0
1023,227.7603255625,228.15268651666665,60.0,91.0
1024,227.7603255625,228.17178373124997,64.0,102.0
1025,228.18220039374998,228.87490845,48.0,88.0
1026,228.5936585625,229.01206117291665,67.0,94.0
1027,228.5936585625,229.02768616666665,64.0,100.0
1028,228.5936585625,229.04504727083332,60.0,91.0
1029,229.01553339375,229.53636651875,48.0,91.0
1030,229.6353248125,229.7394914375,48.0,97.0
1031,229.42699156249998,229.86622749791667,67.0,96.0
1032,229.42699156249998,229.895741375,60.0,91.0
1033,229.42699156249998,229.89747748541666,64.0,98.0
1034,229.84886639375,230.36101896666665,48.0,93.0
1035,230.26553289375,230.645741075,60.0,91.0
1036,230.26553289375,230.66136606875,67.0,92.0
1037,230.26553289375,230.6978243875,64.0,98.0
1038,230.68219939374998,231.16310197916664,55.0,96.0
1039,230.68219939374998,231.19782418749998,43.0,91.0
1040,231.0936575625,231.30199081249998,59.0,87.0
1041,231.0936575625,231.36969911875,62.0,104.0
1042,231.0936575625,231.36969911875,67.0,89.0
1043,231.30199081249998,231.40615743749999,43.0,97.0
1044,231.30199081249998,231.40615743749999,55.0,97.0
1045,231.51553239375,232.03115718749999,54.0,88.0
1046,231.51553239375,232.05719884375,42.0,90.0
1047,231.92699056249998,232.09886549375,57.0,88.0
1048,231.92699056249998,232.11449048749998,62.0,98.0
1049,231.92699056249998,232.14053214375,66.0,87.0
1050,232.34886539374997,232.854073525,52.0,87.0
1051,232.34886539374997,232.86969851875,40.0,88.0
1052,232.9686568125,233.07282343749998,40.0,97.0
1053,232.9686568125,233.07282343749998,52.0,97.0
1054,232.7603235625,233.16657339999998,67.0,94.0
1055,232.7603235625,233.19087894583333,59.0,96.0
1056,232.7603235625,233.19955949791665,64.0,98.0
1057,233.18219839374999,233.61275377708333,40.0,91.0
1058,233.59886489374998,233.68914263541666,67.0,93.0
1059,233.59886489374998,233.70303151874998,59.0,98.0
1060,233.59886489374998,233.70823984999998,64.0,104.0
1061,233.18219839374999,233.72212873333334,52.0,96.0
1062,233.80719814374999,233.90789254791665,59.0,90.0
1063,233.80719814374999,233.93567031458332,64.0,102.0
1064,233.80719814374999,233.94782308749998,67.0,92.0
1065,234.01553139375,234.53636451875,48.0,98.0
1066,234.6353228125,234.7394894375,48.0,97.0
1067,234.42698956249998,234.86101716666664,67.0,100.0
1068,234.42698956249998,234.89226715416666,60.0,96.0
1069,234.42698956249998,234.90094770624998,64.0,107.0
1070,235.26553089375,235.34018364166664,60.0,90.0
1071,235.26553089375,235.34018364166664,67.0,89.0
1072,235.26553089375,235.34191975208333,64.0,100.0
1073,234.84886439374998,235.55893355416666,48.0,90.0
1074,235.47386414374998,235.65962795833332,60.0,96.0
1075,235.47386414374998,235.67525295208333,67.0,100.0
1076,235.47386414374998,235.6908779458333,64.0,107.0
1077,235.68219739375,236.20303051874998,50.0,102.0
1078,236.30198881249999,236.4061554375,50.0,97.0
1079,236.09365556249998,236.56934981666666,69.0,102.0
1080,236.09365556249998,236.58497481041667,62.0,98.0
1081,236.09365556249998,236.59712758333333,66.0,106.0
1082,236.93219689375,236.99122464791665,69.0,89.0
1083,236.93219689375,236.99643297916666,62.0,90.0
1084,236.93219689375,237.00164131041666,66.0,97.0
1085,236.51553039375,237.31934951666665,50.0,94.0
1086,237.14053014375,237.3783772708333,62.0,98.0
1087,237.14053014375,237.38011338125,66.0,106.0
1088,237.14053014375,237.38879393333332,69.0,98.0
1089,237.34886339374998,237.86969651874998,43.0,87.0
1090,237.34886339374998,238.02073812499998,55.0,93.0
1091,237.96865481249998,238.07282143749998,43.0,97.0
1092,237.7603215625,238.12316863958333,59.0,90.0
1093,237.7603215625,238.15962695833332,62.0,102.0
1094,237.7603215625,238.1978213875,67.0,92.0
1095,238.18219639375,238.59886289374998,43.0,89.0
1096,238.18219639375,238.80893225416665,55.0,92.0
1097,238.59365456249998,238.9061544375,38.0,97.0
1098,238.59365456249998,238.9565016395833,59.0,90.0
1099,238.59365456249998,238.99295995833333,62.0,102.0
1100,238.59365456249998,239.03115438749998,67.0,92.0
1101,239.01552939375,239.03115438749998,67.0,108.0
1102,239.01552939375,240.32976497916664,62.0,116.0
1103,239.01552939375,240.33323719999999,59.0,108.0
1104,239.01552939375,240.39747328541665,43.0,93.0
1105,239.01552939375,240.43566771458333,55.0,98.0
1106,241.1231674395833,241.20302851875,67.0,88.0
1107,241.1231674395833,241.20997296041665,64.0,84.0
1108,241.1231674395833,241.21518129166665,72.0,86.0
1109,240.70650093958332,241.39052844375,48.0,88.0
1110,241.33150068958332,241.61969501874998,64.0,91.0
1111,241.33150068958332,241.62837557083333,72.0,89.0
1112,241.33150068958332,241.6492088958333,67.0,100.0
1113,241.53983393958333,242.03983373958332,48.0,93.0
1114,241.95650043958332,242.30545863333333,72.0,91.0
1115,241.95650043958332,242.31761140625,64.0,100.0
1116,241.95650043958332,242.34712528333333,67.0,107.0
1117,242.78983343958333,242.85580563541666,66.0,95.0
1118,242.78983343958333,242.85927785624997,62.0,92.0
1119,242.78983343958333,242.86275007708332,69.0,92.0
1120,242.3731669395833,243.06761110624998,50.0,89.0
1121,242.99816668958331,243.3644859875,69.0,100.0
1122,242.99816668958331,243.36795820833333,62.0,102.0
1123,242.99816668958331,243.38011098125,66.0,106.0
1124,243.20649993958332,243.95476352916666,50.0,91.0
1125,243.62316643958331,244.03809682916665,62.0,92.0
1126,243.62316643958331,244.05545793333332,66.0,103.0
1127,243.62316643958331,244.06587459583332,69.0,100.0
1128,244.45649943958333,244.51205497291664,62.0,93.0
1129,244.45649943958333,244.520735525,71.0,88.0
1130,244.45649943958333,244.5294160770833,67.0,94.0
1131,244.03983293958333,244.72559655416666,43.0,86.0
1132,244.6648326895833,244.95476312916665,62.0,104.0
1133,244.6648326895833,244.95997146041665,67.0,107.0
1134,244.6648326895833,244.97386034374998,71.0,94.0
1135,245.2898324395833,245.3471240833333,67.0,96.0
1136,245.2898324395833,245.35406852499997,62.0,94.0
1137,245.2898324395833,245.35406852499997,71.0,91.0
1138,244.87316593958332,245.61969341875,50.0,93.0
1139,245.49816568958332,245.86274887708333,71.0,96.0
1140,245.49816568958332,245.87837387083331,67.0,107.0
1141,245.49816568958332,245.88879053333332,62.0,98.0
1142,246.12316543958332,246.18913763541664,71.0,87.0
1143,246.12316543958332,246.19087374583333,62.0,91.0
1144,246.12316543958332,246.19260985625,67.0,91.0
1145,245.70649893958333,246.29677648125,43.0,94.0
1146,246.5398319395833,246.72559575416665,43.0,102.0
1147,246.33149868958333,246.7377485270833,62.0,94.0
1148,246.33149868958333,246.80024850208332,67.0,100.0
1149,246.33149868958333,246.81066516458333,71.0,91.0
1150,246.74816518958332,247.0242067458333,45.0,83.0
1151,246.95649843958333,247.3436510625,47.0,110.0
1152,247.7898314395833,247.85753974583332,67.0,98.0
1153,247.7898314395833,247.86448418749998,72.0,89.0
1154,247.7898314395833,247.86795640833333,64.0,94.0
1155,247.99816468958332,248.07976187916665,67.0,107.0
1156,247.99816468958332,248.0832341,64.0,94.0
1157,247.99816468958332,248.11622019791665,72.0,90.0
1158,247.37316493958332,248.15267851666664,48.0,108.0
1159,248.62316443958332,248.68045608333333,72.0,91.0
1160,248.62316443958332,248.68392830416664,67.0,107.0
1161,248.62316443958332,248.68913663541665,64.0,96.0
1162,248.20649793958333,248.87490044999998,55.0,100.0
1163,248.83149768958333,248.90788654791666,64.0,98.0
1164,248.83149768958333,248.91135876874998,67.0,108.0
1165,248.83149768958333,248.9460809770833,72.0,89.0
1166,248.83149768958333,249.00337262083332,48.0,91.0
1167,249.45649743958333,249.52246963541666,62.0,90.0
1168,249.45649743958333,249.52246963541666,69.0,90.0
1169,249.45649743958333,249.52767796666666,66.0,89.0
1170,249.0398309395833,249.54677518124998,50.0,117.0
1171,249.6648306895833,249.84538617291665,50.0,92.0
1172,249.6648306895833,249.895733375,69.0,93.0
1173,249.6648306895833,249.9044139270833,66.0,95.0
1174,249.6648306895833,249.90962225833331,62.0,92.0
1175,249.87316393958332,250.4356637145833,57.0,113.0
1176,250.2898304395833,250.562399775,62.0,100.0
1177,250.2898304395833,250.58496921041666,66.0,106.0
1178,250.2898304395833,250.60580253541664,69.0,107.0
1179,250.49816368958332,250.70996916041665,50.0,91.0
1180,251.12316343958332,251.187399525,67.0,92.0
1181,251.12316343958332,251.18913563541665,62.0,89.0
1182,251.12316343958332,251.19260785625,71.0,89.0
1183,250.70649693958333,251.36101056666666,43.0,102.0
1184,251.33149668958333,251.395732775,62.0,102.0
1185,251.33149668958333,251.51552439374998,71.0,94.0
1186,251.33149668958333,251.55371882291666,67.0,108.0
1187,251.95649643958333,252.03635751874998,62.0,96.0
1188,251.95649643958333,252.03809362916667,67.0,98.0
1189,251.5398299395833,252.04503807083333,50.0,94.0
1190,251.95649643958333,252.09191305208333,71.0,92.0
1191,252.37316293958332,252.8314960895833,43.0,96.0
1192,252.78982943958331,252.8853155125,62.0,89.0
1193,252.78982943958331,253.06760710625,67.0,91.0
1194,252.78982943958331,253.07802376875,71.0,89.0
1195,252.99816268958332,253.13531541249998,43.0,92.0
1196,253.2064959395833,253.61100966666666,45.0,107.0
1197,253.62316243958333,254.03982893958332,47.0,100.0
1198,254.4564954395833,254.52593985624998,67.0,107.0
1199,254.4564954395833,254.53288429791667,64.0,92.0
1200,254.4564954395833,254.54156485,72.0,90.0
1201,254.66482868958332,254.73774532708333,67.0,114.0
1202,254.66482868958332,254.7498981,64.0,108.0
1203,254.66482868958332,254.8002453020833,72.0,93.0
1204,254.03982893958332,254.82107862708332,48.0,96.0
1205,255.28982843958332,255.3262867583333,67.0,94.0
1206,255.28982843958332,255.34712008333332,64.0,98.0
1207,255.28982843958332,255.34712008333332,72.0,91.0
1208,254.87316193958333,255.62663386041666,55.0,100.0
1209,255.49816168958333,255.645731075,64.0,98.0
1210,255.49816168958333,255.6665644,67.0,113.0
1211,255.49816168958333,255.70128660833333,72.0,91.0
1212,256.1231614395833,256.1769808625,69.0,91.0
1213,256.1231614395833,256.1787169729167,66.0,97.0
1214,256.1231614395833,256.1891336354167,62.0,98.0
1215,255.7064949395833,256.20996696041664,50.0,98.0
1216,256.33149468958334,256.5762862583333,62.0,102.0
1217,256.33149468958334,256.5814945895833,69.0,104.0
1218,256.33149468958334,256.59017514166663,66.0,109.0
1219,256.53982793958335,257.01204997291666,55.0,104.0
1220,256.9564944395833,257.2412165479167,62.0,96.0
1221,256.9564944395833,257.2429526583333,69.0,100.0
1222,256.9564944395833,257.28114708749996,66.0,103.0
1223,257.7898274395833,257.83843853125,62.0,89.0
1224,257.7898274395833,257.85579963541664,67.0,98.0
1225,257.37316093958333,258.09017454166667,43.0,92.0
1226,257.9981606895833,258.2325355958333,62.0,93.0
1227,257.9981606895833,258.24121614791665,71.0,94.0
1228,257.9981606895833,258.2794105770833,67.0,102.0
1229,258.62316043958333,258.69954929791663,66.0,86.0
1230,258.62316043958333,258.70475762916664,62.0,87.0
1231,258.62316043958333,258.71691040208333,69.0,88.0
1232,258.83149368958334,259.02593805624997,62.0,87.0
1233,258.2064939395833,259.03809082916666,42.0,90.0
1234,258.83149368958334,259.09885469375,66.0,89.0
1235,258.83149368958334,259.12836857083335,69.0,88.0
1236,259.4564934395833,259.5328822979167,64.0,84.0
1237,259.4564934395833,259.5346184083333,71.0,86.0
1238,259.4564934395833,259.5450350708333,67.0,85.0
1239,259.0398269395833,259.77420164583333,41.0,86.0
1240,259.6648266895833,259.98427100624997,64.0,88.0
1241,259.6648266895833,259.98774322708334,71.0,89.0
1242,259.6648266895833,260.06760430624996,67.0,92.0
1243,259.87315993958333,260.38184029166666,41.0,88.0
1244,260.4981596895833,260.61968741875,41.0,91.0
1245,260.2898264395833,260.6700346208333,64.0,88.0
1246,260.2898264395833,260.67871517291667,71.0,88.0
1247,260.2898264395833,260.72038182291664,67.0,94.0
1248,261.12315943958333,261.1908677458333,69.0,89.0
1249,261.12315943958333,261.20302051875,61.0,86.0
1250,261.12315943958333,261.20475662916664,64.0,88.0
1251,260.7064929395833,261.41482598958333,45.0,96.0
1252,261.33149268958334,261.5641314854167,61.0,86.0
1253,261.33149268958334,261.5693398166666,69.0,98.0
1254,261.33149268958334,261.6439925645833,64.0,96.0
1255,261.5398259395833,262.00857575208335,45.0,91.0
1256,261.9564924395833,262.18565901458334,61.0,95.0
1257,261.9564924395833,262.2429506583333,69.0,96.0
1258,261.9564924395833,262.2603117625,64.0,98.0
1259,262.7898254395833,262.84711708333333,69.0,86.0
1260,262.7898254395833,262.85926985624997,64.0,86.0
1261,262.7898254395833,262.86795040833334,61.0,84.0
1262,262.37315893958333,263.03635311875,49.0,106.0
1263,262.9981586895833,263.1960752770833,69.0,89.0
1264,262.9981586895833,263.2273252645833,61.0,86.0
1265,262.9981586895833,263.26725580416667,64.0,94.0
1266,263.2064919395833,263.80892225416665,49.0,106.0
1267,263.62315843958334,263.81933891666665,61.0,103.0
1268,263.62315843958334,263.8679500083333,69.0,94.0
1269,263.62315843958334,264.20128320833334,64.0,91.0
1270,264.54676918125,264.604060825,69.0,93.0
1271,264.54676918125,264.6127413770833,62.0,92.0
1272,264.54676918125,264.63010248125,66.0,103.0
1273,264.0398249395833,264.69433856666666,50.0,88.0
1274,264.75510243125,265.1023245145833,69.0,93.0
1275,264.75510243125,265.16135226874997,62.0,91.0
1276,264.75510243125,265.17524115208334,66.0,95.0
1277,264.87315793958334,265.35926885624997,50.0,89.0
1278,265.3939910645833,265.73774092708334,62.0,102.0
1279,265.3939910645833,265.75510203125,69.0,94.0
1280,265.3939910645833,265.7585742520833,66.0,103.0
1281,265.7585742520833,267.04850429166663,62.0,77.0
1282,265.7585742520833,267.062393175,69.0,81.0
1283,265.7585742520833,267.06760150625,50.0,77.0
1284,265.7585742520833,267.07801816874996,66.0,77.0
1285,267.9686428125,268.04503167083334,71.0,88.0
1286,267.9686428125,268.0519761125,62.0,88.0
1287,267.9686428125,268.0519761125,67.0,88.0
1288,267.55197631249996,268.1752399520833,43.0,87.0
1289,267.55197631249996,268.2186427125,55.0,88.0
1290,268.1769760625,268.3662120979167,71.0,89.0
1291,268.1769760625,268.395725975,62.0,91.0
1292,268.1769760625,268.41655929999996,67.0,92.0
1293,268.3853093125,268.78808692916664,55.0,88.0
1294,268.3853093125,268.82107302708334,43.0,89.0
1295,268.80197581249996,269.28461450833333,67.0,88.0
1296,268.80197581249996,269.28635061874996,62.0,89.0
1297,268.80197581249996,269.28635061874996,71.0,89.0
1298,269.6353088125,269.69433656666666,66.0,87.0
1299,269.6353088125,269.70301711875,69.0,88.0
1300,269.6353088125,269.7186421125,62.0,90.0
1301,269.2186423125,269.8853087125,38.0,92.0
1302,269.2186423125,269.9078781479167,50.0,88.0
1303,269.8436420625,270.25683634166666,62.0,88.0
1304,269.8436420625,270.26204467291666,66.0,89.0
1305,269.8436420625,270.3037113229166,69.0,89.0
1306,270.05197531249996,270.51204457291664,38.0,96.0
1307,270.05197531249996,270.5901695416666,50.0,94.0
1308,270.4686418125,270.854058325,62.0,88.0
1309,270.4686418125,270.90093330625,66.0,93.0
1310,270.4686418125,270.91482218958333,69.0,91.0
1311,271.30197481249996,271.3731553395833,64.0,88.0
1312,271.30197481249996,271.3783636708333,67.0,89.0
1313,271.30197481249996,271.39919699583334,71.0,88.0
1314,270.8853083125,271.5241969458333,40.0,92.0
1315,270.8853083125,271.5762802583333,52.0,88.0
1316,271.5103080625,271.7637801833333,71.0,91.0
1317,271.5103080625,271.76551629375,67.0,92.0
1318,271.5103080625,271.77246073541664,64.0,89.0
1319,272.1353078125,272.20822445,64.0,91.0
1320,272.1353078125,272.20822445,67.0,96.0
1321,272.1353078125,272.2221133333333,71.0,87.0
1322,271.7186413125,272.3939882645833,40.0,88.0
1323,271.7186413125,272.4165577,52.0,88.0
1324,272.3436410625,272.62662706041664,71.0,90.0
1325,272.3436410625,272.65614093749997,64.0,90.0
1326,272.3436410625,272.65614093749997,67.0,92.0
1327,272.9686408125,273.0519741125,71.0,88.0
1328,272.9686408125,273.0554463333333,67.0,88.0
1329,272.9686408125,273.06412688541667,64.0,88.0
1330,272.55197431249996,273.2394740375,52.0,89.0
1331,272.55197431249996,273.2429462583333,40.0,88.0
1332,273.1769740625,273.4564878395833,71.0,92.0
1333,273.1769740625,273.47384894375,64.0,91.0
1334,273.1769740625,273.48079338541663,67.0,93.0
1335,273.3853073125,273.7325293958333,52.0,96.0
1336,273.3853073125,273.7794043770833,40.0,94.0
1337,273.80197381249997,274.17350144166664,71.0,89.0
1338,273.80197381249997,274.19086254583334,64.0,88.0
1339,273.80197381249997,274.20127920833335,67.0,92.0
1340,274.6353068125,274.6995428979167,67.0,100.0
1341,274.6353068125,274.7099595604167,64.0,92.0
1342,274.6353068125,274.71343178125,72.0,88.0
1343,274.2186403125,274.87489005,36.0,94.0
1344,274.2186403125,274.87662616041666,48.0,91.0
1345,274.84364006249996,275.16829271041667,72.0,89.0
1346,274.84364006249996,275.1978065875,67.0,96.0
1347,274.84364006249996,275.24988989999997,64.0,91.0
1348,275.05197331249997,275.5033620208333,36.0,100.0
1349,275.05197331249997,275.5103064625,48.0,100.0
1350,275.4686398125,275.55370922291667,67.0,98.0
1351,275.4686398125,275.5641258854167,64.0,91.0
1352,275.4686398125,275.5693342166667,72.0,88.0
1353,275.6769730625,275.8887785333333,64.0,90.0
1354,275.6769730625,275.8939868645833,67.0,102.0
1355,275.6769730625,275.94433406666667,72.0,88.0
1356,276.30197281249997,276.39225055416665,66.0,85.0
1357,276.30197281249997,276.39572277499997,62.0,86.0
1358,276.30197281249997,276.40266721666666,69.0,87.0
1359,275.8853063125,276.5311393875,38.0,107.0
1360,275.8853063125,276.55718104375,50.0,91.0
1361,276.5103060625,276.76898651458333,62.0,88.0
1362,276.5103060625,276.8054448333333,66.0,90.0
1363,276.5103060625,276.9478058875,69.0,88.0
1364,276.7186393125,277.1127363770833,38.0,104.0
1365,276.7186393125,277.15961135833334,50.0,90.0
1366,277.1353058125,277.55891675416666,62.0,89.0
1367,277.1353058125,277.56759730625,69.0,91.0
1368,277.1353058125,277.5797500791667,66.0,100.0
1369,277.9686388125,278.03287489791666,67.0,88.0
1370,277.9686388125,278.03461100833334,62.0,90.0
1371,277.9686388125,278.04676378125,71.0,87.0
1372,277.55197231249997,278.1665554,43.0,94.0
1373,277.55197231249997,278.21169427083333,55.0,98.0
1374,278.1769720625,278.354055325,62.0,91.0
1375,278.1769720625,278.37662476041663,67.0,93.0
1376,278.1769720625,278.39224975416664,71.0,88.0
1377,278.80197181249997,278.88530511249996,62.0,96.0
1378,278.80197181249997,278.90266621666666,67.0,96.0
1379,278.80197181249997,278.9061384375,71.0,90.0
1380,278.3853053125,279.01204117291667,43.0,88.0
1381,278.3853053125,279.0294022770833,55.0,89.0
1382,279.6353048125,279.6995408979167,67.0,83.0
1383,279.6353048125,279.7186381125,62.0,86.0
1384,279.6353048125,279.72037422291663,71.0,86.0
1385,279.2186383125,279.8158602958333,43.0,88.0
1386,279.2186383125,279.86099916666666,55.0,88.0
1387,279.84363806249996,280.04329076041665,71.0,89.0
1388,279.84363806249996,280.06933241666667,62.0,89.0
1389,279.84363806249996,280.0710685270833,67.0,91.0
1390,280.0519713125,280.53461000833335,43.0,92.0
1391,280.0519713125,280.53461000833335,55.0,89.0
1392,280.4686378125,280.8262765583333,62.0,90.0
1393,280.4686378125,280.8366932208333,71.0,88.0
1394,280.4686378125,280.8471098833333,67.0,91.0
1395,281.3019708125,281.3419013520833,71.0,85.0
1396,281.3019708125,281.3644707875,67.0,90.0
1397,281.3019708125,281.36620689791664,62.0,89.0
1398,280.8853043125,281.50683184166667,43.0,100.0
1399,280.8853043125,281.53634571875,55.0,89.0
1400,281.5103040625,281.70822065,62.0,90.0
1401,281.5103040625,281.7325261958333,67.0,91.0
1402,281.5103040625,281.7377345270833,71.0,91.0
1403,281.7186373125,282.2012760083333,55.0,93.0
1404,282.1353038125,282.20995656041663,62.0,94.0
1405,282.1353038125,282.20995656041663,67.0,102.0
1406,282.1353038125,282.2116926708333,71.0,98.0
1407,281.7186373125,282.2741926458333,43.0,90.0
1408,282.34363706249997,282.4877342270833,62.0,91.0
1409,282.34363706249997,282.499887,67.0,94.0
1410,282.34363706249997,282.50509533125,71.0,91.0
1411,282.9686368125,283.0346090083333,66.0,87.0
1412,282.9686368125,283.04155345,69.0,88.0
1413,282.9686368125,283.0450256708333,62.0,87.0
1414,282.5519703125,283.20648393958334,38.0,88.0
1415,282.5519703125,283.21342838124997,50.0,90.0
1416,283.1769700625,283.4564838395833,66.0,90.0
1417,283.1769700625,283.4669005020833,62.0,89.0
1418,283.1769700625,283.4773171645833,69.0,92.0
1419,283.38530331249996,283.8575253458333,38.0,92.0
1420,283.38530331249996,283.88877533333334,50.0,96.0
1421,283.8019698125,284.10926135625,62.0,88.0
1422,283.8019698125,284.17523355208334,66.0,93.0
1423,283.8019698125,284.1908585458333,69.0,94.0
1424,284.63530281249996,284.70995556041663,64.0,86.0
1425,284.63530281249996,284.71516389166663,67.0,87.0
1426,284.63530281249996,284.7186361125,71.0,84.0
1427,284.2186363125,284.7741916458333,40.0,100.0
1428,284.2186363125,284.83495551041665,52.0,89.0
1429,284.84363606249997,285.12662206041665,71.0,93.0
1430,284.84363606249997,285.14398316458335,64.0,89.0
1431,284.84363606249997,285.1491914958333,67.0,94.0
1432,285.4686358125,285.54676078125,64.0,91.0
1433,285.4686358125,285.54676078125,67.0,93.0
1434,285.4686358125,285.54676078125,71.0,88.0
1435,285.0519693125,285.729052375,40.0,90.0
1436,285.0519693125,285.7412051479167,52.0,94.0
1437,285.6769690625,285.9356495145833,67.0,94.0
1438,285.6769690625,285.94259395625,71.0,92.0
1439,285.6769690625,285.95821895,64.0,89.0
1440,286.3019688125,286.3523160145833,71.0,83.0
1441,286.3019688125,286.36446878749996,67.0,86.0
1442,286.3019688125,286.37314933958334,64.0,87.0
1443,285.88530231249996,286.5172465041667,40.0,94.0
1444,285.88530231249996,286.55370482291664,52.0,94.0
1445,286.5103020625,286.76551029374997,67.0,96.0
1446,286.5103020625,286.7811352875,71.0,92.0
1447,286.5103020625,286.8887741333333,64.0,90.0
1448,286.7186353125,287.1005796041666,52.0,93.0
1449,286.7186353125,287.14051014374996,40.0,96.0
1450,287.13530181249996,287.4894683375,71.0,91.0
1451,287.13530181249996,287.51724610416665,64.0,89.0
1452,287.13530181249996,287.52419054583333,67.0,91.0
1453,287.9686348125,288.0311347875,64.0,92.0
1454,287.9686348125,288.0398153395833,60.0,89.0
1455,287.5519683125,288.1700236208333,36.0,83.0
1456,287.5519683125,288.19606527708333,48.0,92.0
1457,288.1769680625,288.4478012875,60.0,88.0
1458,288.1769680625,288.44953739791663,67.0,93.0
1459,288.1769680625,288.4512735083333,64.0,94.0
1460,288.38530131249996,288.8314816895833,36.0,90.0
1461,288.38530131249996,288.8418983520833,48.0,96.0
1462,288.8019678125,289.14224545416664,60.0,91.0
1463,288.8019678125,289.15613433749996,67.0,89.0
1464,288.8019678125,289.18217599375,64.0,98.0
1465,289.63530081249996,289.7064813395833,69.0,90.0
1466,289.63530081249996,289.70821745,66.0,90.0
1467,289.63530081249996,289.7168980020833,62.0,88.0
1468,289.2186343125,289.82280073749996,38.0,107.0
1469,289.2186343125,289.85578683541667,50.0,92.0
1470,289.8436340625,290.14050894375,66.0,95.0
1471,289.8436340625,290.1596061583333,69.0,98.0
1472,289.8436340625,290.2429394583333,62.0,91.0
1473,290.0519673125,290.4512727083333,38.0,102.0
1474,290.0519673125,290.50856435208334,50.0,100.0
1475,290.4686338125,290.8471058833333,62.0,89.0
1476,290.4686338125,290.854050325,66.0,93.0
1477,290.4686338125,290.85578643541663,69.0,91.0
1478,291.3019668125,291.37141122916665,62.0,87.0
1479,291.3019668125,291.3887723333333,59.0,87.0
1480,291.3019668125,291.3887723333333,67.0,87.0
1481,290.88530031249996,291.49120284791667,43.0,89.0
1482,290.88530031249996,291.5241889458333,55.0,91.0
1483,291.5103000625,291.75682774166665,59.0,86.0
1484,291.5103000625,291.7898138395833,67.0,88.0
1485,291.5103000625,291.80717494375,62.0,88.0
1486,292.13529981249997,292.2064803395833,62.0,90.0
1487,292.13529981249997,292.21516089166664,67.0,88.0
1488,292.13529981249997,292.22557755416665,59.0,89.0
1489,291.7186333125,292.41654969999996,43.0,88.0
1490,291.7186333125,292.42870247291665,55.0,87.0
1491,292.3436330625,292.5398135395833,59.0,91.0
1492,292.3436330625,292.68217459375,62.0,100.0
1493,292.3436330625,292.70127180833333,67.0,91.0
1494,292.9686328125,293.02766056666667,62.0,86.0
1495,292.9686328125,293.0484938916666,59.0,84.0
1496,292.9686328125,293.0484938916666,67.0,86.0
1497,292.5519663125,293.18391050416665,43.0,90.0
1498,292.5519663125,293.20474382916666,55.0,91.0
1499,293.17696606249996,293.43217429375,59.0,86.0
1500,293.17696606249996,293.48078538541665,67.0,89.0
1501,293.17696606249996,293.56238257499996,62.0,91.0
1502,293.38529931249997,293.7221047333333,55.0,98.0
1503,293.38529931249997,293.8002297020833,43.0,88.0
1504,293.8019658125,294.09884069375,59.0,89.0
1505,293.8019658125,294.22036842291664,67.0,90.0
1506,293.8019658125,294.23078508541664,62.0,92.0
1507,294.63529881249997,294.70474322916664,67.0,84.0
1508,294.63529881249997,294.70821545,60.0,85.0
1509,294.63529881249997,294.70995156041664,64.0,87.0
1510,294.2186323125,294.8332154,36.0,102.0
1511,294.2186323125,294.8627292770833,48.0,88.0
1512,294.8436320625,295.1439791645833,60.0,87.0
1513,294.8436320625,295.1630763791666,64.0,89.0
1514,294.8436320625,295.187381925,67.0,90.0
1515,295.0519653125,295.47384014375,36.0,96.0
1516,295.0519653125,295.47384014375,48.0,92.0
1517,295.4686318125,295.8227983375,60.0,91.0
1518,295.4686318125,295.88182609166665,67.0,90.0
1519,295.4686318125,295.9234927416667,64.0,98.0
1520,296.3019648125,296.3852981125,69.0,87.0
1521,296.3019648125,296.39050644375,62.0,87.0
1522,296.3019648125,296.39224255416667,66.0,84.0
1523,295.88529831249997,296.520714725,38.0,107.0
1524,295.88529831249997,296.54849249166665,50.0,91.0
1525,296.5102980625,296.9043951270833,69.0,89.0
1526,296.5102980625,296.9096034583333,62.0,87.0
1527,296.5102980625,296.9981450895833,66.0,86.0
1528,296.7186313125,297.0745339479167,38.0,96.0
1529,296.7186313125,297.11446448749996,50.0,93.0
1530,297.13529781249997,297.53807542916667,62.0,89.0
1531,297.13529781249997,297.54154765,69.0,91.0
1532,297.13529781249997,297.54675598125,66.0,103.0
1533,297.9686308125,298.0450196708333,62.0,87.0
1534,297.9686308125,298.0450196708333,67.0,86.0
1535,297.9686308125,298.0554363333333,59.0,86.0
1536,297.5519643125,298.17001962083333,43.0,92.0
1537,297.5519643125,298.19085294583334,55.0,91.0
1538,298.17696406249996,298.4269639625,59.0,81.0
1539,298.17696406249996,298.49640837916667,67.0,81.0
1540,298.17696406249996,298.54154725,62.0,85.0
1541,298.3852973125,298.85578323541665,43.0,84.0
1542,298.3852973125,298.86619989791666,55.0,88.0
1543,298.8019638125,299.17175533125,59.0,87.0
1544,298.8019638125,299.25508863125,62.0,88.0
1545,298.8019638125,299.2637691833333,67.0,88.0
1546,299.2186303125,299.72383844374997,55.0,94.0
1547,299.2186303125,299.74467176875,43.0,92.0
1548,299.8436300625,299.92869947291666,43.0,85.0
1549,300.0519633125,300.39224095416665,45.0,108.0
1550,300.4686298125,300.79675468125,47.0,107.0
1551,301.3002267020833,301.9877264270833,60.0,70.0
1552,301.50682384166663,302.0589069541667,67.0,86.0
1553,300.88182409166666,302.27592075625,48.0,88.0
1554,301.92869867291665,302.58842063124996,64.0,81.0
1555,303.2168926020833,303.63182299166664,66.0,86.0
1556,303.60925355625,304.13008668124996,69.0,86.0
1557,303.01550379375,304.14223945416666,62.0,73.0
1558,302.56758730625,304.2012672083333,50.0,88.0
1559,304.22383664374996,305.8158498958333,53.0,94.0
1560,305.26550289375,305.9095998583333,69.0,84.0
1561,304.64050314375,305.94258595624996,60.0,65.0
1562,304.84883639375,305.99466926875,65.0,82.0
1563,306.93216889375,307.48946033749996,69.0,78.0
1564,306.30716914375,307.50508533125,60.0,71.0
1565,306.51550239375,307.57973807916665,65.0,79.0
1566,305.89050264375,307.66133526875,53.0,86.0
1567,309.22383464374997,312.0658473958333,71.0,65.0
1568,309.11793190833333,312.10404182499997,67.0,68.0
1569,309.01550139374996,312.520708325,62.0,38.0
1570,308.91133476875,313.05022200208333,55.0,90.0
