,start,end,pitch,velocity
0,1.6146768,1.823392125,59.0,75.0
1,1.6146768,1.8291260624999999,54.0,76.0
2,1.6146768,2.0550432,35.0,84.0
3,1.8899058,2.1662815875,63.0,82.0
4,1.8899058,2.167428375,59.0,81.0
5,2.1651348,2.373850125,42.0,81.0
6,2.4403638,2.6089415625,59.0,80.0
7,2.4403638,2.6112351375,63.0,82.0
8,2.4403638,2.690363475,44.0,82.0
9,2.7155928,2.928895275,54.0,74.0
10,2.7155928,2.94036315,59.0,76.0
11,2.7155928,3.0951794625,47.0,87.0
12,2.9908218,3.3979313625,63.0,81.0
13,2.9908218,3.4025185125,59.0,80.0
14,3.2660508,3.506876175,42.0,82.0
15,3.5412798,3.7339401,59.0,80.0
16,3.5412798,3.7373804625,63.0,82.0
17,3.5412798,3.8165088,47.0,83.0
18,3.8165088,4.0240773375,56.0,72.0
19,3.8165088,4.0309580625,59.0,75.0
20,3.8165088,4.217884425,44.0,81.0
21,4.0917378,4.3314163875,63.0,81.0
22,4.0917378,4.33485675,59.0,79.0
23,4.3669668,4.5504527999999995,39.0,80.0
24,4.6421958,4.800452475,63.0,81.0
25,4.6421958,4.8130671375,59.0,75.0
26,4.7798103,4.8130671375,59.0,75.0
27,4.6421958,4.8795808124999995,42.0,81.0
28,4.9174248,5.1456355125,56.0,69.0
29,4.9174248,5.27063535,44.0,81.0
30,5.1926537999999995,5.5837083375,56.0,76.0
31,5.1926537999999995,5.6043505125,63.0,81.0
32,5.1926537999999995,5.6204055375,59.0,77.0
33,5.4678828,5.6972403,39.0,84.0
34,5.7431118,5.8990749,56.0,74.0
35,5.7431118,5.9082492,59.0,75.0
36,5.7431118,5.9185702875,63.0,80.0
37,5.7431118,6.0034325625,42.0,81.0
38,6.0183408,6.227056125,54.0,77.0
39,6.0183408,6.2282029125,59.0,74.0
40,6.0183408,6.4587072,35.0,84.0
41,6.2935698,6.5607712875,54.0,67.0
42,6.2935698,6.584853825,63.0,80.0
43,6.2935698,6.6100831499999995,59.0,81.0
44,6.5687988,6.777514125,42.0,81.0
45,6.8440278,6.9541194,63.0,80.0
46,6.8440278,6.9850826625,59.0,80.0
47,6.8440278,6.997697325,54.0,77.0
48,6.8440278,7.094027475,44.0,82.0
49,7.1192568,7.286687775,54.0,73.0
50,7.1192568,7.2970088625,59.0,75.0
51,7.1192568,7.4988434625,47.0,87.0
52,7.3944858,7.7671917375,59.0,80.0
53,7.3944858,7.7717788875,63.0,81.0
54,7.6697147999999995,7.9105401749999995,42.0,82.0
55,7.9449438,8.081411512499999,63.0,81.0
56,7.9449438,8.084851875,59.0,78.0
57,7.9449438,8.2201728,47.0,83.0
58,8.2201728,8.419713825,59.0,72.0
59,8.2201728,8.4300349125,56.0,70.0
60,8.2201728,8.621548425,44.0,81.0
61,8.4954018,8.771777587499999,63.0,81.0
62,8.4954018,8.80274085,59.0,79.0
63,8.7706308,8.9541168,39.0,80.0
64,9.0458598,9.1823275125,63.0,81.0
65,9.0458598,9.1869146625,59.0,77.0
66,9.0458598,9.2832448125,42.0,81.0
67,9.3210888,9.52751055,59.0,73.0
68,9.3210888,9.5355380625,56.0,69.0
69,9.3210888,9.67429935,44.0,81.0
70,9.5963178,9.8979229125,56.0,75.0
71,9.5963178,9.9415008375,63.0,79.0
72,9.5963178,9.95870265,59.0,77.0
73,9.871546799999999,10.1009043,39.0,84.0
74,10.1467758,10.3015921125,56.0,80.0
75,10.1467758,10.314206775,59.0,81.0
76,10.1467758,10.3199407125,63.0,82.0
77,10.1467758,10.4070965625,42.0,81.0
78,10.4220048,10.630720125,59.0,75.0
79,10.4220048,10.6364540625,54.0,76.0
80,10.4220048,10.8623712,35.0,84.0
81,10.6972338,10.9736095875,63.0,82.0
82,10.6972338,10.974756375,59.0,81.0
83,10.9724628,11.181178125,42.0,81.0
84,11.2476918,11.4162695625,59.0,80.0
85,11.2476918,11.4185631375,63.0,82.0
86,11.2476918,11.497691475,44.0,82.0
87,11.5229208,11.736223275,54.0,74.0
88,11.5229208,11.74769115,59.0,76.0
89,11.5229208,11.9025074625,47.0,87.0
90,11.7981498,12.2052593625,63.0,81.0
91,11.7981498,12.2098465125,59.0,80.0
92,12.0733788,12.314204175,42.0,82.0
93,12.3486078,12.5412681,59.0,80.0
94,12.3486078,12.5447084625,63.0,82.0
95,12.3486078,12.6238368,47.0,83.0
96,12.6238368,12.8314053375,56.0,72.0
97,12.6238368,12.8382860625,59.0,75.0
98,12.6238368,13.025212425,44.0,81.0
99,12.899065799999999,13.1387443875,63.0,81.0
100,12.899065799999999,13.14218475,59.0,79.0
101,13.1742948,13.3577808,39.0,80.0
102,13.4495238,13.607780475,63.0,81.0
103,13.4495238,13.6203951375,59.0,75.0
104,13.5871383,13.6203951375,59.0,75.0
105,13.4495238,13.6869088125,42.0,81.0
106,13.7247528,13.9529635125,56.0,69.0
107,13.7247528,14.07796335,44.0,81.0
108,13.9999818,14.3910363375,56.0,76.0
109,13.9999818,14.4116785125,63.0,81.0
110,13.9999818,14.4277335375,59.0,77.0
111,14.2752108,14.504568299999999,39.0,84.0
112,14.5504398,14.7064029,56.0,74.0
113,14.5504398,14.7155772,59.0,75.0
114,14.5504398,14.7258982875,63.0,80.0
115,14.5504398,14.8107605625,42.0,81.0
116,14.825668799999999,15.034384124999999,54.0,77.0
117,14.825668799999999,15.0355309125,59.0,74.0
118,14.825668799999999,15.2660352,35.0,84.0
119,15.1008978,15.3680992875,54.0,67.0
120,15.1008978,15.392181825,63.0,80.0
121,15.1008978,15.41741115,59.0,81.0
122,15.3761268,15.584842125,42.0,81.0
123,15.6513558,15.7614474,63.0,80.0
124,15.6513558,15.7924106625,59.0,80.0
125,15.6513558,15.805025324999999,54.0,77.0
126,15.6513558,15.901355474999999,44.0,82.0
127,15.9265848,16.094015775,54.0,73.0
128,15.9265848,16.1043368625,59.0,75.0
129,15.9265848,16.3061714625,47.0,87.0
130,16.2018138,16.5745197375,59.0,80.0
131,16.2018138,16.5791068875,63.0,81.0
132,16.4770428,16.717868175,42.0,82.0
133,16.7522718,16.8887395125,63.0,81.0
134,16.7522718,16.892179875,59.0,78.0
135,16.7522718,17.0275008,47.0,83.0
136,17.0275008,17.2580050875,61.0,75.0
137,17.0275008,17.2935555,66.0,78.0
138,17.302729799999998,17.4460782375,66.0,71.0
139,17.302729799999998,17.463280049999998,61.0,80.0
140,17.0275008,17.525206575,42.0,84.0
141,17.5779588,17.782086975,37.0,96.0
142,17.8531878,17.9999766,58.0,72.0
143,17.8531878,18.017178412499998,61.0,77.0
144,17.8531878,18.020618775,66.0,75.0
145,17.8531878,18.041260949999998,39.0,86.0
146,18.1284168,18.3313981875,58.0,70.0
147,18.1284168,18.341719275,61.0,73.0
148,18.1284168,18.649058325,42.0,82.0
149,18.4036458,18.763737074999998,61.0,80.0
150,18.4036458,18.76603065,58.0,76.0
151,18.4036458,18.76603065,66.0,73.0
152,18.6788748,18.9139662375,39.0,91.0
153,18.9541038,19.1272687125,58.0,77.0
154,18.9541038,19.1272687125,61.0,81.0
155,18.9541038,19.1272687125,66.0,77.0
156,18.9541038,19.1834613,42.0,84.0
157,19.229332799999998,19.654373658333334,35.0,79.0
158,19.505017199999998,19.870366075,66.0,83.0
159,19.505017199999998,19.8807061375,63.0,91.0
160,19.505017199999998,19.892195095833333,59.0,82.0
161,19.7807522,19.94734209583333,42.0,80.0
162,20.0564872,20.186312429166666,63.0,85.0
163,20.0564872,20.19205690833333,66.0,80.0
164,20.0564872,20.198950283333332,59.0,81.0
165,20.0564872,20.2529483875,44.0,80.0
166,20.3322222,20.497663199999998,64.0,84.0
167,20.3322222,20.504556575,68.0,74.0
168,20.3322222,20.510301054166668,61.0,80.0
169,20.3322222,20.853820908333333,37.0,84.0
170,20.607957199999998,21.00202847083333,61.0,81.0
171,20.607957199999998,21.00202847083333,64.0,81.0
172,20.607957199999998,21.013517429166665,68.0,81.0
173,20.8836922,21.047984304166665,44.0,82.0
174,21.1594272,21.25363665833333,64.0,82.0
175,21.1594272,21.291550220833333,61.0,82.0
176,21.1594272,21.304188075,68.0,81.0
177,21.1594272,21.340952741666666,47.0,82.0
178,21.4351622,21.5833697625,61.0,81.0
179,21.4351622,21.58681645,54.0,82.0
180,21.4351622,21.58681645,58.0,81.0
181,21.4351622,21.829233470833334,42.0,82.0
182,21.710897199999998,22.119904116666667,54.0,78.0
183,21.710897199999998,22.126797491666665,61.0,78.0
184,21.710897199999998,22.12909528333333,58.0,77.0
185,21.9866322,22.175051116666666,37.0,84.0
186,22.2623672,22.378405679166665,58.0,76.0
187,22.2623672,22.378405679166665,61.0,74.0
188,22.2623672,22.3830012625,42.0,84.0
189,22.2623672,22.386447949999997,54.0,74.0
190,22.538102199999997,22.708138783333332,63.0,80.0
191,22.538102199999997,22.715032158333333,59.0,73.0
192,22.538102199999997,22.970087033333332,35.0,76.0
193,23.0895722,23.256162095833332,42.0,81.0
194,22.8138372,23.273395533333332,63.0,84.0
195,22.8138372,23.274544429166667,59.0,80.0
196,23.3653072,23.557172804166665,44.0,80.0
197,23.3653072,23.566363970833333,54.0,81.0
198,23.6410422,24.069991325,47.0,84.0
199,23.9163218,24.230541575,63.0,81.0
200,23.9163218,24.2431562375,59.0,81.0
201,23.9163218,24.2500369625,54.0,79.0
202,24.1915508,24.4667798,42.0,74.0
203,24.4667798,24.602100725,59.0,80.0
204,24.4667798,24.6032475125,54.0,78.0
205,24.4667798,24.6043943,63.0,81.0
206,24.4667798,24.7420088,44.0,74.0
207,25.0172378,25.1445312125,59.0,80.0
208,25.0172378,25.1468247875,54.0,78.0
209,24.7420088,25.147971575,47.0,69.0
210,25.0172378,25.1640266,63.0,82.0
211,25.2924668,25.5676958,42.0,73.0
212,25.5676958,25.7362735625,59.0,80.0
213,25.5676958,25.744301075,54.0,80.0
214,25.5676958,25.8371908625,63.0,83.0
215,25.5676958,25.8429248,47.0,81.0
216,25.8429248,26.28787835,40.0,73.0
217,26.1181538,26.5390248125,52.0,76.0
218,26.1181538,26.547052325,56.0,72.0
219,26.1181538,26.5688412875,59.0,78.0
220,26.3933828,26.6686118,44.0,78.0
221,26.6686118,26.8154006,52.0,81.0
222,26.6686118,26.8211345375,56.0,80.0
223,26.6686118,26.8578317375,59.0,82.0
224,26.6686118,26.9438408,47.0,81.0
225,26.9438408,27.338335700000002,42.0,77.0
226,27.2190698,27.6043904,58.0,74.0
227,27.2190698,27.606683975,54.0,79.0
228,27.2190698,27.61815185,61.0,80.0
229,27.4942988,27.7695278,49.0,76.0
230,27.7695278,27.93007805,58.0,81.0
231,27.7695278,27.946133075,54.0,80.0
232,27.7695278,27.96677525,61.0,82.0
233,27.7695278,28.044756800000002,42.0,81.0
234,28.044756800000002,28.4128755875,47.0,60.0
235,28.3199858,28.502325012500002,54.0,80.0
236,28.3199858,28.5034718,59.0,81.0
237,28.3199858,28.528701125,63.0,82.0
238,28.5952148,28.9312235375,42.0,80.0
239,28.8704438,29.005764725,54.0,78.0
240,28.8704438,29.008058300000002,59.0,80.0
241,28.8704438,29.01264545,63.0,81.0
242,29.1456728,29.6307639125,47.0,74.0
243,29.4209018,29.7431490875,63.0,82.0
244,29.4209018,29.7511766,54.0,80.0
245,29.4209018,29.767231625,59.0,81.0
246,29.6961308,30.0481945625,42.0,80.0
247,29.971359800000002,30.11356145,54.0,79.0
248,29.971359800000002,30.1353504125,59.0,80.0
249,29.971359800000002,30.1445247125,63.0,81.0
250,30.246588799999998,30.637643337500002,44.0,76.0
251,30.5218178,30.958743837500002,56.0,79.0
252,30.5218178,30.964477775,59.0,81.0
253,30.5218178,30.9656245625,63.0,82.0
254,31.0722758,31.233972837499998,56.0,80.0
255,31.0722758,31.2362664125,59.0,81.0
256,30.7970468,31.248881075,51.0,79.0
257,31.0722758,31.262642525,63.0,83.0
258,31.3475048,31.908283887499998,42.0,66.0
259,31.897962800000002,31.908283887499998,42.0,79.0
260,31.6227338,31.9954397375,58.0,80.0
261,31.6227338,32.00346725,54.0,80.0
262,31.6227338,32.0080544,61.0,80.0
263,32.1731918,32.3188338125,58.0,83.0
264,32.1731918,32.33374205,54.0,80.0
265,32.1731918,32.349797075,61.0,81.0
266,32.1731918,32.4484208,44.0,81.0
267,32.4484208,32.927777975,47.0,81.0
268,32.723649800000004,33.1215850625,54.0,81.0
269,32.723649800000004,33.1215850625,63.0,83.0
270,32.723649800000004,33.129612574999996,59.0,82.0
271,32.9988788,33.274107799999996,47.0,81.0
272,33.274107799999996,33.4266305375,54.0,79.0
273,33.274107799999996,33.4541534375,59.0,81.0
274,33.274107799999996,33.462180950000004,63.0,82.0
275,33.274107799999996,33.5493368,42.0,81.0
276,33.5493368,33.9610335125,39.0,80.0
277,33.8245658,34.2465836,58.0,77.0
278,33.8245658,34.258051475,63.0,80.0
279,33.8245658,34.2637854125,66.0,78.0
280,34.0997948,34.469060375,46.0,80.0
281,34.3750238,34.5229593875,66.0,80.0
282,34.3750238,34.5665373125,63.0,83.0
283,34.3750238,34.5688308875,58.0,82.0
284,34.650252800000004,35.04933485,44.0,77.0
285,34.9254818,35.3348849375,63.0,81.0
286,34.9254818,35.3383253,56.0,75.0
287,34.9254818,35.340618875000004,59.0,75.0
288,35.200710799999996,35.4759398,39.0,76.0
289,35.4759398,35.6410772,59.0,81.0
290,35.4759398,35.6491047125,56.0,81.0
291,35.4759398,35.650251499999996,63.0,84.0
292,35.4759398,35.7511688,42.0,81.0
293,35.7511688,36.1445169125,44.0,79.0
294,36.0263978,36.400250525000004,56.0,79.0
295,36.0263978,36.4025441,63.0,82.0
296,36.0263978,36.4082780375,59.0,81.0
297,36.3016268,36.6651584375,51.0,76.0
298,36.576855800000004,36.7511675,59.0,82.0
299,36.576855800000004,36.7523142875,63.0,85.0
300,36.576855800000004,36.769516100000004,56.0,80.0
301,36.8520848,37.2741026,49.0,77.0
302,37.127313799999996,37.4266253375,64.0,80.0
303,37.127313799999996,37.4472675125,56.0,80.0
304,37.127313799999996,37.4495610875,61.0,80.0
305,37.4025428,37.6777718,44.0,80.0
306,37.6777718,37.8234138125,56.0,75.0
307,37.6777718,37.8257073875,61.0,80.0
308,37.6777718,37.83832205,64.0,80.0
309,37.6777718,37.9530008,47.0,81.0
310,37.9530008,38.482816625,49.0,74.0
311,38.2282298,38.606669675,64.0,81.0
312,38.2282298,38.620431124999996,56.0,78.0
313,38.2282298,38.6353393625,61.0,80.0
314,38.503458800000004,38.7786878,44.0,76.0
315,38.7786878,38.93923805,61.0,80.0
316,38.7786878,38.9472655625,56.0,80.0
317,38.7786878,38.97593525,64.0,80.0
318,38.7786878,39.053916799999996,42.0,81.0
319,39.053916799999996,39.537861125,47.0,78.0
320,39.3291458,39.7052921,54.0,79.0
321,39.3291458,39.7064388875,59.0,80.0
322,39.3291458,39.708732462499995,63.0,81.0
323,39.6043748,39.8796038,42.0,79.0
324,39.8796038,40.061943012499995,63.0,81.0
325,39.8796038,40.0802916125,59.0,82.0
326,39.8796038,40.083731975,54.0,81.0
327,39.8796038,40.1548328,44.0,81.0
328,40.1548328,40.5825845375,47.0,75.0
329,40.430061800000004,40.720199037499995,63.0,81.0
330,40.430061800000004,40.7385476375,54.0,78.0
331,40.430061800000004,40.7591898125,59.0,79.0
332,40.7052908,40.980519799999996,42.0,75.0
333,40.980519799999996,41.1766204625,63.0,82.0
334,40.980519799999996,41.184647975000004,54.0,78.0
335,40.980519799999996,41.1915287,59.0,81.0
336,40.980519799999996,41.2557488,44.0,81.0
337,41.2557488,41.6238675875,47.0,80.0
338,41.5309778,41.702995924999996,54.0,77.0
339,41.5309778,41.716757375,63.0,84.0
340,41.5309778,41.7179041625,59.0,80.0
341,41.8062068,42.0814358,42.0,76.0
342,42.0814358,42.2500135625,54.0,80.0
343,42.0814358,42.2500135625,59.0,80.0
344,42.0814358,42.2523071375,63.0,82.0
345,42.0814358,42.356664800000004,44.0,81.0
346,42.356664800000004,42.71904965,47.0,76.0
347,42.6318938,42.794737624999996,54.0,76.0
348,42.6318938,42.8004715625,59.0,79.0
349,42.6318938,42.8188201625,63.0,82.0
350,42.907122799999996,43.2500122625,42.0,77.0
351,43.1823518,43.3968010625,54.0,76.0
352,43.1823518,43.4128560875,59.0,75.0
353,43.1823518,43.4128560875,63.0,81.0
354,43.4575808,43.895653625,47.0,72.0
355,43.7328098,44.030974549999996,54.0,75.0
356,43.7328098,44.033268125,59.0,76.0
357,43.7328098,44.037855275,63.0,76.0
358,44.0080388,44.283267800000004,42.0,77.0
359,44.283267800000004,44.459873075000004,54.0,72.0
360,44.283267800000004,44.464460224999996,59.0,74.0
361,44.283267800000004,44.4724877375,63.0,75.0
362,44.283267800000004,44.5584968,44.0,81.0
363,44.5584968,45.026386099999996,47.0,73.0
364,44.833725799999996,45.2247803375,54.0,81.0
365,44.833725799999996,45.23280785,63.0,82.0
366,44.833725799999996,45.239688575,59.0,81.0
367,45.3841838,45.584871612499995,54.0,81.0
368,45.3841838,45.5871651875,59.0,83.0
369,45.3841838,45.6032202125,63.0,83.0
370,45.1089548,45.6594128,42.0,81.0
371,45.6594128,46.0321187375,47.0,72.0
372,45.9346418,46.3016138,54.0,80.0
373,45.9346418,46.3050541625,63.0,83.0
374,45.9346418,46.313081675,59.0,80.0
375,46.209870800000004,46.4850998,42.0,81.0
376,46.4850998,46.661705075,54.0,81.0
377,46.4850998,46.693815125,59.0,82.0
378,46.4850998,46.758035225,63.0,83.0
379,46.4850998,46.760328799999996,47.0,81.0
380,46.760328799999996,47.1273008,44.0,81.0
381,47.0355578,47.473630625,56.0,78.0
382,47.0355578,47.478217775000005,59.0,83.0
383,47.0355578,47.48051135,63.0,85.0
384,47.5860158,47.7695018,59.0,83.0
385,47.3107868,47.7935843375,39.0,78.0
386,47.5860158,47.800465062499995,56.0,80.0
387,47.5860158,47.826841175,63.0,84.0
388,47.861244799999994,48.24197825,42.0,73.0
389,48.136473800000005,48.2740883,64.0,73.0
390,48.136473800000005,48.555051237499995,54.0,77.0
391,48.136473800000005,48.555051237499995,58.0,81.0
392,48.136473800000005,48.555051237499995,63.0,80.0
393,48.4117028,48.686931799999996,37.0,75.0
394,48.686931799999996,48.847482049999996,63.0,86.0
395,48.686931799999996,48.8509224125,58.0,85.0
396,48.686931799999996,48.860096712499995,54.0,81.0
397,48.686931799999996,48.9621608,39.0,81.0
398,48.9621608,49.258031974999994,42.0,78.0
399,49.2373898,49.643352574999994,61.0,78.0
400,49.2373898,49.6444993625,54.0,77.0
401,49.2373898,49.6513800875,58.0,78.0
402,49.5126188,49.787847799999994,37.0,78.0
403,49.787847799999994,49.947251262500004,54.0,81.0
404,49.787847799999994,49.947251262500004,58.0,84.0
405,49.787847799999994,49.955278775,61.0,81.0
406,49.787847799999994,50.063076800000005,42.0,81.0
407,50.063076800000005,50.225920625,49.0,74.0
408,50.063076800000005,50.32454435,52.0,76.0
409,50.063076800000005,50.3383058,37.0,81.0
410,50.3383058,50.737387850000005,56.0,73.0
411,50.3383058,50.7454153625,61.0,76.0
412,50.3383058,50.753442875000005,64.0,72.0
413,50.6135348,50.904818825,44.0,77.0
414,50.8887638,51.111240575,61.0,83.0
415,50.8887638,51.122708450000005,64.0,82.0
416,50.8887638,51.123855237499995,56.0,81.0
417,50.8887638,51.1639928,47.0,81.0
418,51.1639928,51.478212575,49.0,69.0
419,51.4392218,51.77408375,64.0,80.0
420,51.4392218,51.7844048375,61.0,80.0
421,51.4392218,51.794725924999995,56.0,80.0
422,51.989679800000005,52.18692725,61.0,77.0
423,51.989679800000005,52.1926611875,56.0,77.0
424,51.989679800000005,52.2293583875,64.0,81.0
425,51.714450799999995,52.2649088,44.0,65.0
426,52.2649088,52.620412925,40.0,78.0
427,52.5401378,52.900229075,52.0,76.0
428,52.5401378,52.905963012499996,59.0,80.0
429,52.5401378,52.923164825,56.0,74.0
430,52.8153668,53.0905958,35.0,80.0
431,53.0905958,53.2798157375,52.0,81.0
432,53.0905958,53.2832561,56.0,80.0
433,53.0905958,53.318806512500004,59.0,80.0
434,53.0905958,53.3658248,37.0,81.0
435,53.3658248,53.720182137500004,42.0,81.0
436,53.641053799999995,54.051603725,54.0,80.0
437,53.641053799999995,54.0642183875,61.0,81.0
438,53.641053799999995,54.0688055375,58.0,80.0
439,53.916282800000005,54.313071275,37.0,78.0
440,54.1915118,54.3715574375,54.0,80.0
441,54.1915118,54.395639974999995,61.0,81.0
442,54.1915118,54.4025207,58.0,81.0
443,54.4667408,55.0171988,47.0,76.0
444,54.7419698,55.169721537499996,54.0,80.0
445,54.7419698,55.1743086875,63.0,83.0
446,54.7419698,55.1766022625,59.0,82.0
447,55.0171988,55.2924278,42.0,77.0
448,55.2924278,55.457565200000005,54.0,82.0
449,55.2924278,55.4942624,59.0,84.0
450,55.2924278,55.496555975,63.0,85.0
451,55.2924278,55.567656799999995,47.0,81.0
452,55.842885800000005,56.0343993125,56.0,74.0
453,55.842885800000005,56.0573350625,63.0,85.0
454,55.842885800000005,56.088298325,59.0,80.0
455,55.567656799999995,56.1181148,44.0,81.0
456,56.1181148,56.3933438,39.0,81.0
457,56.1181148,56.399077737499994,51.0,81.0
458,56.3933438,56.5963251875,63.0,85.0
459,56.3933438,56.60435269999999,59.0,85.0
460,56.3933438,56.629582025000005,56.0,80.0
461,56.3933438,56.66857279999999,44.0,81.0
462,56.66857279999999,57.219751849999994,42.0,81.0
463,56.94401685,57.26226099583333,58.0,81.0
464,56.94401685,57.26340989166666,61.0,81.0
465,56.94401685,57.292132287499996,54.0,81.0
466,57.219751849999994,57.433446475,49.0,75.0
467,57.219751849999994,57.49548685,37.0,81.0
468,57.49548685,57.6230142875,58.0,81.0
469,57.49548685,57.63794993333333,54.0,80.0
470,57.49548685,57.640247724999995,61.0,80.0
471,57.49548685,57.771221849999996,39.0,81.0
472,57.771221849999996,57.91483382916666,58.0,86.0
473,57.771221849999996,57.922876099999996,54.0,82.0
474,57.771221849999996,57.92976947499999,61.0,85.0
475,57.771221849999996,58.046956849999994,42.0,81.0
476,58.046956849999994,58.32269185,42.0,81.0
477,58.046956849999994,58.469750516666664,58.0,84.0
478,58.046956849999994,58.47894168333333,54.0,82.0
479,58.046956849999994,58.48698395416666,61.0,83.0
480,58.598426849999996,58.8017814125,54.0,81.0
481,58.598426849999996,58.810972579166666,58.0,82.0
482,58.598426849999996,58.81441926666666,61.0,84.0
483,58.598426849999996,58.87416184999999,37.0,81.0
484,58.87416184999999,59.30384889166666,47.0,84.0
485,59.14989685,59.46469430833333,63.0,81.0
486,59.14989685,59.4773321625,59.0,81.0
487,59.14989685,59.484225537499995,54.0,79.0
488,59.425631849999995,59.70136685,42.0,74.0
489,59.70136685,59.83693655833333,59.0,80.0
490,59.70136685,59.83808545416667,54.0,78.0
491,59.70136685,59.83923435,63.0,81.0
492,59.70136685,59.97710185,44.0,74.0
493,60.252836849999994,60.380364287499994,59.0,80.0
494,60.252836849999994,60.382662079166664,54.0,78.0
495,59.97710185,60.383810974999996,47.0,69.0
496,60.252836849999994,60.39989551666666,63.0,82.0
497,60.52857185,60.804306849999996,42.0,73.0
498,60.804306849999996,60.9731945375,59.0,80.0
499,60.804306849999996,60.98123680833333,54.0,80.0
500,60.804306849999996,61.07429737083333,63.0,83.0
501,60.804306849999996,61.08004185,47.0,81.0
502,61.08004185,61.52581343333333,40.0,73.0
503,61.35577685,61.77742162083333,52.0,76.0
504,61.35577685,61.785463891666666,56.0,72.0
505,61.35577685,61.807292912499996,59.0,78.0
506,61.631511849999995,61.90724685,44.0,78.0
507,61.90724685,62.054305516666666,52.0,81.0
508,61.90724685,62.06004999583333,56.0,80.0
509,61.90724685,62.096814662499995,59.0,82.0
510,61.90724685,62.18298185,47.0,81.0
511,62.18298185,62.578202016666665,42.0,77.0
512,62.458716849999995,62.844745849999995,58.0,74.0
513,62.458716849999995,62.847043641666666,54.0,79.0
514,62.458716849999995,62.8585326,61.0,80.0
515,62.73445185,63.01018685,49.0,76.0
516,63.01018685,63.171032266666664,58.0,81.0
517,63.01018685,63.18711680833333,54.0,80.0
518,63.01018685,63.20779693333333,61.0,82.0
519,63.01018685,63.285921849999994,42.0,81.0
520,63.285921849999994,63.6547174125,47.0,60.0
521,63.56165685,63.744331287499996,54.0,80.0
522,63.56165685,63.74548018333333,59.0,81.0
523,63.56165685,63.77075589166667,63.0,82.0
524,63.837391849999996,64.17401832916667,42.0,80.0
525,64.11312685,64.24869655833334,54.0,78.0
526,64.11312685,64.25099435,59.0,80.0
527,64.11312685,64.25558993333333,63.0,81.0
528,64.38886185,64.8748447875,47.0,74.0
529,64.66459685,64.98743657916667,63.0,82.0
530,64.66459685,64.99547885,54.0,80.0
531,64.66459685,65.01156339166667,59.0,81.0
532,64.94033184999999,65.29304287083333,42.0,80.0
533,65.21606685,65.35852993333333,54.0,79.0
534,65.21606685,65.38035895416667,59.0,80.0
535,65.21606685,65.38955012083333,63.0,81.0
536,65.49180185,65.88357532916666,44.0,76.0
537,65.76753685,66.2052661625,56.0,79.0
538,65.76753685,66.21101064166666,59.0,81.0
539,65.76753685,66.2121595375,63.0,82.0
540,66.31900685,66.4810011625,56.0,80.0
541,66.31900685,66.48329895416666,59.0,81.0
542,66.04327185,66.49593680833333,51.0,79.0
543,66.31900685,66.50972355833333,63.0,83.0
544,66.59474184999999,67.15655191249999,42.0,66.0
545,67.14621185,67.15655191249999,42.0,79.0
546,66.87047685,67.24386799583333,58.0,80.0
547,66.87047685,67.25191026666667,54.0,80.0
548,66.87047685,67.25650585,61.0,80.0
549,67.42194685,67.56785662083333,58.0,83.0
550,67.42194685,67.58279226666666,54.0,80.0
551,67.42194685,67.59887680833333,61.0,81.0
552,67.42194685,67.69768185,44.0,81.0
553,67.69768185,68.17792030833333,47.0,81.0
554,67.97341684999999,68.37208370416667,54.0,81.0
555,67.97341684999999,68.37208370416667,63.0,83.0
556,67.97341684999999,68.380125975,59.0,82.0
557,68.24915185,68.52488685,47.0,81.0
558,68.52488685,68.67768999583333,54.0,79.0
559,68.52488685,68.70526349583334,59.0,81.0
560,68.52488685,68.71330576666666,63.0,82.0
561,68.52488685,68.80062185,42.0,81.0
562,68.80062185,69.21307545416667,39.0,80.0
563,69.07635685,69.49915051666666,58.0,77.0
564,69.07635685,69.510639475,63.0,80.0
565,69.07635685,69.51638395416666,66.0,78.0
566,69.35209185,69.72203630833333,46.0,80.0
567,69.62782684999999,69.7760344125,66.0,80.0
568,69.62782684999999,69.81969245416667,63.0,83.0
569,69.62782684999999,69.82199024583333,58.0,82.0
570,69.90356185,70.3033776,44.0,77.0
571,70.17929685,70.5894526625,63.0,81.0
572,70.17929685,70.59289935,56.0,75.0
573,70.17929685,70.59519714166666,59.0,75.0
574,70.45503185,70.73076685,39.0,76.0
575,70.73076685,70.89620785,59.0,81.0
576,70.73076685,70.90425012083332,56.0,81.0
577,70.73076685,70.90539901666666,63.0,84.0
578,70.73076685,71.00650184999999,42.0,81.0
579,71.28223685,71.40287091249999,54.0,78.0
580,71.28223685,71.4442311625,58.0,79.0
581,71.28223685,71.50167595416667,42.0,89.0
582,71.55797185,71.91183176666667,44.0,85.0
583,71.55797185,71.9750210375,56.0,73.0
584,71.55797185,71.99340337083333,59.0,81.0
585,72.10944185,73.00098501666666,58.0,75.0
586,72.05889043333333,73.16297932916666,42.0,73.0
587,71.99110557916666,73.16872380833333,49.0,71.0
588,72.10944185,73.16987270416666,54.0,78.0
589,73.21238185,73.69032251666667,58.0,76.0
590,73.21238185,73.701811475,61.0,76.0
591,73.76385185,74.170560975,58.0,77.0
592,73.76385185,74.170560975,66.0,72.0
593,73.76385185,74.19238999583334,61.0,73.0
594,73.19629730833333,74.19353889166666,42.0,74.0
595,74.31532185,74.72777545416666,47.0,80.0
596,74.59105685,74.85645178749999,63.0,80.0
597,74.59105685,74.85645178749999,66.0,74.0
598,74.59105685,74.859898475,59.0,76.0
599,74.86679185,75.07474199583334,42.0,82.0
600,75.14252685,75.28498993333334,63.0,78.0
601,75.14252685,75.287287725,66.0,74.0
602,75.14252685,75.29992557916667,44.0,85.0
603,75.14252685,75.31371232916666,59.0,74.0
604,75.41826185,75.89620251666666,47.0,74.0
605,75.69399684999999,76.06509020416667,63.0,77.0
606,75.69399684999999,76.06509020416667,66.0,73.0
607,75.69399684999999,76.08806812083333,59.0,75.0
608,75.96973185,76.17423530833332,42.0,80.0
609,76.24546685,76.36150532916666,63.0,78.0
610,76.24546685,76.36495201666666,66.0,73.0
611,76.24546685,76.37873876666666,59.0,75.0
612,76.24546685,76.43273687083334,44.0,81.0
613,76.52120185,76.72992560833333,59.0,75.0
614,76.52120185,76.73565954583334,54.0,76.0
615,76.52120185,76.96157668333333,35.0,84.0
616,76.79643928333334,77.07281507083334,63.0,82.0
617,76.79643928333334,77.07396185833333,59.0,81.0
618,77.07166828333334,77.28038360833334,42.0,81.0
619,77.34689728333333,77.51547504583334,59.0,80.0
620,77.34689728333333,77.51776862083334,63.0,82.0
621,77.34689728333333,77.59689695833333,44.0,82.0
622,77.62212628333334,77.83542875833334,54.0,74.0
623,77.62212628333334,77.84689663333334,59.0,76.0
624,77.62212628333334,78.00171294583333,47.0,87.0
625,77.89735528333334,78.30446484583334,63.0,81.0
626,77.89735528333334,78.30905199583334,59.0,80.0
627,78.17258428333334,78.41340965833334,42.0,82.0
628,78.44781328333333,78.64047358333333,59.0,80.0
629,78.44781328333333,78.64391394583333,63.0,82.0
630,78.44781328333333,78.72304228333334,47.0,83.0
631,78.72304228333334,78.93061082083334,56.0,72.0
632,78.72304228333334,78.93749154583334,59.0,75.0
633,78.72304228333334,79.12441790833334,44.0,81.0
634,78.99827128333334,79.23794987083333,63.0,81.0
635,78.99827128333334,79.24139023333333,59.0,79.0
636,79.27350028333333,79.45698628333334,39.0,80.0
637,79.54872928333334,79.70698595833333,63.0,81.0
638,79.54872928333334,79.71960062083333,59.0,75.0
639,79.68634378333334,79.71960062083333,59.0,75.0
640,79.54872928333334,79.78611429583334,42.0,81.0
641,79.82395828333334,80.05216899583334,56.0,69.0
642,79.82395828333334,80.17716883333334,44.0,81.0
643,80.09918728333334,80.49024182083333,56.0,76.0
644,80.09918728333334,80.51088399583334,63.0,81.0
645,80.09918728333334,80.52693902083334,59.0,77.0
646,80.37441628333333,80.60377378333334,39.0,84.0
647,80.64964528333334,80.80560838333334,56.0,74.0
648,80.64964528333334,80.81478268333333,59.0,75.0
649,80.64964528333334,80.82510377083334,63.0,80.0
650,80.64964528333334,80.90996604583334,42.0,81.0
651,80.92487428333334,81.13358960833334,54.0,77.0
652,80.92487428333334,81.13473639583334,59.0,74.0
653,80.92487428333334,81.36524068333334,35.0,84.0
654,81.20010328333333,81.46730477083334,54.0,67.0
655,81.20010328333333,81.49138730833334,63.0,80.0
656,81.20010328333333,81.51661663333334,59.0,81.0
657,81.47533228333334,81.68404760833334,42.0,81.0
658,81.75056128333334,81.86065288333334,63.0,80.0
659,81.75056128333334,81.89161614583334,59.0,80.0
660,81.75056128333334,81.90423080833334,54.0,77.0
661,81.75056128333334,82.00056095833334,44.0,82.0
662,82.02579028333334,82.19322125833334,54.0,73.0
663,82.02579028333334,82.20354234583334,59.0,75.0
664,82.02579028333334,82.40537694583334,47.0,87.0
665,82.30101928333333,82.67372522083333,59.0,80.0
666,82.30101928333333,82.67831237083334,63.0,81.0
667,82.57624828333334,82.81707365833334,42.0,82.0
668,82.85147728333334,82.98794499583335,63.0,81.0
669,82.85147728333334,82.99138535833333,59.0,78.0
670,82.85147728333334,83.12670628333333,47.0,83.0
671,83.12670628333333,83.35721057083333,61.0,75.0
672,83.12670628333333,83.39276098333333,66.0,78.0
673,83.40193528333334,83.54528372083334,66.0,71.0
674,83.40193528333334,83.56248553333334,61.0,80.0
675,83.12670628333333,83.62441205833333,42.0,84.0
676,83.67716428333334,83.88129245833333,37.0,96.0
677,83.95239328333334,84.09918208333333,58.0,72.0
678,83.95239328333334,84.11638389583334,61.0,77.0
679,83.95239328333334,84.11982425833334,66.0,75.0
680,83.95239328333334,84.14046643333334,39.0,86.0
681,84.22762228333333,84.43060367083334,58.0,70.0
682,84.22762228333333,84.44092475833334,61.0,73.0
683,84.22762228333333,84.74826380833333,42.0,82.0
684,84.50285128333334,84.86294255833334,61.0,80.0
685,84.50285128333334,84.86523613333334,58.0,76.0
686,84.50285128333334,84.86523613333334,66.0,73.0
687,84.77808028333334,85.01317172083334,39.0,91.0
688,85.05330928333333,85.22647419583333,58.0,77.0
689,85.05330928333333,85.22647419583333,61.0,81.0
690,85.05330928333333,85.22647419583333,66.0,77.0
691,85.05330928333333,85.28266678333334,42.0,84.0
692,85.32853828333333,85.75284965833333,35.0,79.0
693,85.60376728333334,85.96844570833333,66.0,83.0
694,85.60376728333334,85.97876679583334,63.0,91.0
695,85.60376728333334,85.99023467083333,59.0,82.0
696,85.87899628333334,86.04528047083333,42.0,80.0
697,86.15422528333333,86.28381227083334,63.0,85.0
698,86.15422528333333,86.28954620833333,66.0,80.0
699,86.15422528333333,86.29642693333334,59.0,81.0
700,86.15422528333333,86.35032594583333,44.0,80.0
701,86.42945428333334,86.59459168333333,64.0,84.0
702,86.42945428333334,86.60147240833334,68.0,74.0
703,86.42945428333334,86.60720634583333,61.0,80.0
704,86.42945428333334,86.95009580833334,37.0,84.0
705,86.70468328333334,87.09803139583335,61.0,81.0
706,86.70468328333334,87.09803139583335,64.0,81.0
707,86.70468328333334,87.10949927083334,68.0,81.0
708,86.97991228333333,87.14390289583334,44.0,82.0
709,87.25514128333333,87.34917785833333,64.0,82.0
710,87.25514128333333,87.38702184583335,61.0,82.0
711,87.25514128333333,87.39963650833334,68.0,81.0
712,87.25514128333333,87.43633370833334,47.0,82.0
713,87.53037028333334,87.67830587083334,61.0,81.0
714,87.53037028333334,87.68174623333334,54.0,82.0
715,87.53037028333334,87.68174623333334,58.0,81.0
716,87.53037028333334,87.92371839583333,42.0,82.0
717,87.80559928333334,88.21385563333334,54.0,78.0
718,87.80559928333334,88.22073635833334,61.0,78.0
719,87.80559928333334,88.22302993333334,58.0,77.0
720,88.08082828333333,88.26890143333334,37.0,84.0
721,88.35605728333334,88.47188282083334,58.0,76.0
722,88.35605728333334,88.47188282083334,61.0,74.0
723,88.35605728333334,88.47646997083334,42.0,84.0
724,88.35605728333334,88.47991033333334,54.0,74.0
725,88.63128628333334,88.80101083333334,63.0,80.0
726,88.63128628333334,88.80789155833334,59.0,73.0
727,88.63128628333334,89.06247838333334,35.0,76.0
728,89.18174428333333,89.34802847083334,42.0,81.0
729,88.90651528333333,89.36523028333333,63.0,84.0
730,88.90651528333333,89.36637707083334,59.0,80.0
731,89.45697328333334,89.64848679583334,44.0,80.0
732,89.45697328333334,89.65766109583333,54.0,81.0
733,89.73220228333334,90.16110080833334,47.0,84.0
734,90.00743128333333,90.32165632916667,63.0,81.0
735,90.00743128333333,90.3342825875,59.0,81.0
736,90.00743128333333,90.3411696375,54.0,79.0
737,90.28266028333334,90.5581117125,42.0,74.0
738,90.5581117125,90.69355702916667,59.0,80.0
739,90.5581117125,90.69470487083333,54.0,78.0
740,90.5581117125,90.6958527125,63.0,81.0
741,90.5581117125,90.8335937125,44.0,74.0
742,91.1090757125,91.2364861375,59.0,80.0
743,91.1090757125,91.23878182083334,54.0,78.0
744,90.8335937125,91.2399296625,47.0,69.0
745,91.1090757125,91.25599944583334,63.0,82.0
746,91.3845577125,91.6600397125,42.0,73.0
747,91.6600397125,91.8287724375,59.0,80.0
748,91.6600397125,91.83680732916666,54.0,80.0
749,91.6600397125,91.92978250416667,63.0,83.0
750,91.6600397125,91.9355217125,47.0,81.0
751,91.9355217125,92.38088427916666,40.0,73.0
752,92.2110037125,92.63226160416667,52.0,76.0
753,92.2110037125,92.64029649583334,56.0,72.0
754,92.2110037125,92.6621054875,59.0,78.0
755,92.4864857125,92.7619677125,44.0,78.0
756,92.7619677125,92.90889144583333,52.0,81.0
757,92.7619677125,92.91463065416667,56.0,80.0
758,92.7619677125,92.9513615875,59.0,82.0
759,92.7619677125,93.0374497125,47.0,81.0
760,93.0374497125,93.43230724583333,42.0,77.0
761,93.3129317125,93.6986065125,58.0,74.0
762,93.3129317125,93.70090219583334,54.0,79.0
763,93.3129317125,93.7123806125,61.0,80.0
764,93.5884137125,93.8638957125,49.0,76.0
765,93.8638957125,94.02459354583334,58.0,81.0
766,93.8638957125,94.04066332916666,54.0,80.0
767,93.8638957125,94.06132447916667,61.0,82.0
768,93.8638957125,94.13937771249999,42.0,81.0
769,94.13937771249999,94.5078348875,47.0,60.0
770,94.4148597125,94.5973665375,54.0,80.0
771,94.4148597125,94.59851437916667,59.0,81.0
772,94.4148597125,94.62376689583333,63.0,82.0
773,94.6903417125,95.02665932083333,42.0,80.0
774,94.9658237125,95.10126902916667,54.0,78.0
775,94.9658237125,95.1035647125,59.0,80.0
776,94.9658237125,95.10815607916666,63.0,81.0
777,95.2413057125,95.7268427375,47.0,74.0
778,95.5167877125,95.83933122083333,63.0,82.0
779,95.5167877125,95.8473661125,54.0,80.0
780,95.5167877125,95.86343589583333,59.0,81.0
781,95.7922697125,96.14465710416667,42.0,80.0
782,96.0677517125,96.21008407916666,54.0,79.0
783,96.0677517125,96.23189307083334,59.0,80.0
784,96.0677517125,96.24107580416667,63.0,81.0
785,96.3432337125,96.73464772083334,44.0,76.0
786,96.6187157125,97.0560433875,56.0,79.0
787,96.6187157125,97.06178259583334,59.0,81.0
788,96.6187157125,97.0629304375,63.0,82.0
789,97.1696797125,97.3315253875,56.0,80.0
790,97.1696797125,97.33382107083334,59.0,81.0
791,96.8941977125,97.34644732916666,51.0,79.0
792,97.1696797125,97.36022142916667,63.0,83.0
793,97.4451617125,98.0064562875,42.0,66.0
794,97.9961257125,98.0064562875,42.0,79.0
795,97.7206437125,98.09369225416667,58.0,80.0
796,97.7206437125,98.10172714583334,54.0,80.0
797,97.7206437125,98.1063185125,61.0,80.0
798,98.2716077125,98.41738360416667,58.0,83.0
799,98.2716077125,98.43230554583333,54.0,80.0
800,98.2716077125,98.44837532916667,61.0,81.0
801,98.2716077125,98.5470897125,44.0,81.0
802,98.5470897125,99.02688752916667,47.0,81.0
803,98.82257171250001,99.22087277083334,54.0,81.0
804,98.82257171250001,99.22087277083334,63.0,83.0
805,98.82257171250001,99.2289076625,59.0,82.0
806,99.0980537125,99.3735357125,47.0,81.0
807,99.3735357125,99.52619865416666,54.0,79.0
808,99.3735357125,99.55374685416666,59.0,81.0
809,99.3735357125,99.56178174583333,63.0,82.0
810,99.3735357125,99.6490177125,42.0,81.0
811,99.6490177125,100.06109287083333,39.0,80.0
812,99.9244997125,100.34690544583333,58.0,77.0
813,99.9244997125,100.3583838625,63.0,80.0
814,99.9244997125,100.36412307083333,66.0,78.0
815,100.1999817125,100.56958672916667,46.0,80.0
816,100.4754637125,100.6235352875,66.0,80.0
817,100.4754637125,100.66715327083334,63.0,83.0
818,100.4754637125,100.66944895416667,58.0,82.0
819,100.7509457125,101.1503946125,44.0,77.0
820,101.0264277125,101.4362071875,63.0,81.0
821,101.0264277125,101.4396507125,56.0,75.0
822,101.0264277125,101.44194639583333,59.0,75.0
823,101.3019097125,101.5773917125,39.0,76.0
824,101.5773917125,101.7426809125,59.0,81.0
825,101.5773917125,101.75071580416667,56.0,81.0
826,101.5773917125,101.75186364583334,63.0,84.0
827,101.5773917125,101.8528737125,42.0,81.0
828,101.8528737125,102.24658340416667,44.0,79.0
829,102.1283557125,102.50255209583334,56.0,79.0
830,102.1283557125,102.50484777916667,63.0,82.0
831,102.1283557125,102.5105869875,59.0,81.0
832,102.4038377125,102.76770352083334,51.0,76.0
833,102.6793197125,102.85379164583333,59.0,82.0
834,102.6793197125,102.8549394875,63.0,85.0
835,102.6793197125,102.8721571125,56.0,80.0
836,102.9548017125,103.37720744583333,49.0,77.0
837,103.2302837125,103.5298703875,64.0,80.0
838,103.2302837125,103.5505315375,56.0,80.0
839,103.2302837125,103.55282722083334,61.0,80.0
840,103.5057657125,103.7812477125,44.0,80.0
841,103.7812477125,103.92702360416666,56.0,75.0
842,103.7812477125,103.9293192875,61.0,80.0
843,103.7812477125,103.94194554583333,64.0,80.0
844,103.7812477125,104.0567297125,47.0,81.0
845,104.0567297125,104.5870325625,49.0,74.0
846,104.3322117125,104.7109994625,64.0,81.0
847,104.3322117125,104.7247735625,56.0,78.0
848,104.3322117125,104.73969550416666,61.0,80.0
849,104.6076937125,104.8831757125,44.0,76.0
850,104.8831757125,105.04387354583334,61.0,80.0
851,104.8831757125,105.0519084375,56.0,80.0
852,104.8831757125,105.08060447916667,64.0,80.0
853,104.8831757125,105.1586577125,42.0,81.0
854,105.1586577125,105.64304689583334,47.0,78.0
855,105.4341397125,105.81063177916667,54.0,79.0
856,105.4341397125,105.81177962083333,59.0,80.0
857,105.4341397125,105.81407530416666,63.0,81.0
858,105.7096217125,105.9851037125,42.0,79.0
859,105.9851037125,106.1676105375,63.0,81.0
860,105.9851037125,106.18597600416666,59.0,82.0
861,105.9851037125,106.18941952916667,54.0,81.0
862,105.9851037125,106.2605857125,44.0,81.0
863,106.2605857125,106.68873065416666,47.0,75.0
864,106.5360677125,106.82647165416667,63.0,81.0
865,106.5360677125,106.84483712083333,54.0,78.0
866,106.5360677125,106.86549827083334,59.0,79.0
867,106.8115497125,107.08703171249999,42.0,75.0
868,107.08703171249999,107.2833126375,63.0,82.0
869,107.08703171249999,107.29134752916667,54.0,78.0
870,107.08703171249999,107.29823457916666,59.0,81.0
871,107.08703171249999,107.3625137125,44.0,81.0
872,107.3625137125,107.7309708875,47.0,80.0
873,107.6379957125,107.8101719625,54.0,77.0
874,107.6379957125,107.8239460625,63.0,84.0
875,107.6379957125,107.82509390416666,59.0,80.0
876,107.9134777125,108.18895971250001,42.0,76.0
877,108.18895971250001,108.35769243749999,54.0,80.0
878,108.18895971250001,108.35769243749999,59.0,80.0
879,108.18895971250001,108.35998812083334,63.0,82.0
880,108.18895971250001,108.4644417125,44.0,81.0
881,108.4644417125,108.82715967916667,47.0,76.0
882,108.7399237125,108.90291722916666,54.0,76.0
883,108.7399237125,108.9086564375,59.0,79.0
884,108.7399237125,108.92702190416666,63.0,82.0
885,109.0154057125,109.35861037083333,42.0,77.0
886,109.2908877125,109.50553410416667,54.0,76.0
887,109.2908877125,109.52160388749999,59.0,75.0
888,109.2908877125,109.52160388749999,63.0,81.0
889,109.5663697125,110.00484522916666,47.0,72.0
890,109.8418517125,110.14029054583334,54.0,75.0
891,109.8418517125,110.14258622916667,59.0,76.0
892,109.8418517125,110.14717759583334,63.0,76.0
893,110.1173337125,110.3928157125,42.0,77.0
894,110.3928157125,110.56958332916666,54.0,72.0
895,110.3928157125,110.57417469583334,59.0,74.0
896,110.3928157125,110.5822095875,63.0,75.0
897,110.3928157125,110.66829771249999,44.0,81.0
898,110.66829771249999,111.1366171125,47.0,73.0
899,110.9437797125,111.33519372083333,54.0,81.0
900,110.9437797125,111.3432286125,63.0,82.0
901,110.9437797125,111.3501156625,59.0,81.0
902,111.4947437125,111.69561600416667,54.0,81.0
903,111.4947437125,111.6979116875,59.0,83.0
904,111.4947437125,111.71398147083333,63.0,83.0
905,111.2192617125,111.77022571250001,42.0,81.0
906,111.77022571250001,112.14327425416667,47.0,72.0
907,112.0457077125,112.41301704583333,54.0,80.0
908,112.0457077125,112.41646057083334,63.0,83.0
909,112.0457077125,112.4244954625,59.0,80.0
910,112.3211897125,112.5966717125,42.0,81.0
911,112.5966717125,112.77343932916666,54.0,81.0
912,112.5966717125,112.80557889583334,59.0,82.0
913,112.5966717125,112.86985802916666,63.0,83.0
914,112.5966717125,112.8721537125,47.0,81.0
915,112.8721537125,113.23946304583333,44.0,81.0
916,113.1476357125,113.58611122916666,56.0,78.0
917,113.1476357125,113.59070259583333,59.0,83.0
918,113.1476357125,113.59299827916666,63.0,85.0
919,113.6985997125,113.88225437916667,59.0,83.0
920,113.4231177125,113.90635905416667,39.0,78.0
921,113.6985997125,113.91324610416666,56.0,80.0
922,113.6985997125,113.93964646250001,63.0,84.0
923,113.9740817125,114.35516514583333,42.0,73.0
924,114.24956371249999,114.3873047125,64.0,73.0
925,114.24956371249999,114.66852592083333,54.0,77.0
926,114.24956371249999,114.66852592083333,58.0,81.0
927,114.24956371249999,114.66852592083333,63.0,80.0
928,114.5250457125,114.8005277125,37.0,75.0
929,114.8005277125,114.96122554583333,63.0,86.0
930,114.8005277125,114.96466907083334,58.0,85.0
931,114.8005277125,114.97385180416667,54.0,81.0
932,114.8005277125,115.0759939,39.0,81.0
933,115.0759939,115.37186507499999,42.0,78.0
934,115.3512229,115.75718567499999,61.0,78.0
935,115.3512229,115.7583324625,54.0,77.0
936,115.3512229,115.7652131875,58.0,78.0
937,115.62645189999999,115.9016809,37.0,78.0
938,115.9016809,116.0610843625,54.0,81.0
939,115.9016809,116.0610843625,58.0,84.0
940,115.9016809,116.06911187499999,61.0,81.0
941,115.9016809,116.1769099,42.0,81.0
942,116.1769099,116.339753725,49.0,74.0
943,116.1769099,116.43837744999999,52.0,76.0
944,116.1769099,116.4521389,37.0,81.0
945,116.4521389,116.85122095,56.0,73.0
946,116.4521389,116.85924846249999,61.0,76.0
947,116.4521389,116.867275975,64.0,72.0
948,116.72736789999999,117.018651925,44.0,77.0
949,117.0025969,117.22507367499999,61.0,83.0
950,117.0025969,117.23654155,64.0,82.0
951,117.0025969,117.23768833749999,56.0,81.0
952,117.0025969,117.2778259,47.0,81.0
953,117.2778259,117.592045675,49.0,69.0
954,117.55305489999999,117.88791685,64.0,80.0
955,117.55305489999999,117.8982379375,61.0,80.0
956,117.55305489999999,117.90855902499999,56.0,80.0
957,118.1035129,118.30076034999999,61.0,77.0
958,118.1035129,118.3064942875,56.0,77.0
959,118.1035129,118.3431914875,64.0,81.0
960,117.8282839,118.3787419,44.0,65.0
961,118.3787419,118.73424602499999,40.0,78.0
962,118.65397089999999,119.01406217499999,52.0,76.0
963,118.65397089999999,119.01979611249999,59.0,80.0
964,118.65397089999999,119.036997925,56.0,74.0
965,118.9291999,119.2044289,35.0,80.0
966,119.2044289,119.3936488375,52.0,81.0
967,119.2044289,119.3970892,56.0,80.0
968,119.2044289,119.4326396125,59.0,80.0
969,119.2044289,119.47965789999999,37.0,81.0
970,119.47965789999999,119.8340152375,42.0,81.0
971,119.7548869,120.165436825,54.0,80.0
972,119.7548869,120.1780514875,61.0,81.0
973,119.7548869,120.18263863749999,58.0,80.0
974,120.0301159,120.42690437499999,37.0,78.0
975,120.3053449,120.4853905375,54.0,80.0
976,120.3053449,120.50947307499999,61.0,81.0
977,120.3053449,120.51635379999999,58.0,81.0
978,120.58057389999999,121.1310319,47.0,76.0
979,120.8558029,121.28355463749999,54.0,80.0
980,120.8558029,121.2881417875,63.0,83.0
981,120.8558029,121.29043536249999,59.0,82.0
982,121.1310319,121.40626089999999,42.0,77.0
983,121.40626089999999,121.5713983,54.0,82.0
984,121.40626089999999,121.60809549999999,59.0,84.0
985,121.40626089999999,121.610389075,63.0,85.0
986,121.40626089999999,121.6814899,47.0,81.0
987,121.9567189,122.1482324125,56.0,74.0
988,121.9567189,122.1711681625,63.0,85.0
989,121.9567189,122.20213142499999,59.0,80.0
990,121.6814899,122.2319479,44.0,81.0
991,122.2319479,122.50717689999999,39.0,81.0
992,122.2319479,122.5129108375,51.0,81.0
993,122.50717689999999,122.7101582875,63.0,85.0
994,122.50717689999999,122.7181858,59.0,85.0
995,122.50717689999999,122.743415125,56.0,80.0
996,122.50717689999999,122.7824059,44.0,81.0
997,122.7824059,123.33286389999999,42.0,81.0
998,123.0576349,123.3752950375,58.0,81.0
999,123.0576349,123.376441825,61.0,81.0
1000,123.0576349,123.4051115125,54.0,81.0
1001,123.33286389999999,123.546166375,49.0,75.0
1002,123.33286389999999,123.6080929,37.0,81.0
1003,123.6080929,123.7353863125,58.0,81.0
1004,123.6080929,123.75029454999999,54.0,80.0
1005,123.6080929,123.75258812499999,61.0,80.0
1006,123.6080929,123.8833219,39.0,81.0
1007,123.8833219,124.0266703375,58.0,86.0
1008,123.8833219,124.03469785,54.0,82.0
1009,123.8833219,124.04157857499999,61.0,85.0
1010,123.8833219,124.1585509,42.0,81.0
1011,124.1585509,124.43377989999999,42.0,81.0
1012,124.1585509,124.5805687,58.0,84.0
1013,124.1585509,124.589743,54.0,82.0
1014,124.1585509,124.59777051249999,61.0,83.0
1015,124.7090089,124.91199028749999,54.0,81.0
1016,124.7090089,124.92116458749999,58.0,82.0
1017,124.7090089,124.92460495,61.0,84.0
1018,124.7090089,124.9842379,37.0,81.0
1019,124.9842379,125.41313642499999,47.0,84.0
1020,125.25946689999999,125.57368667499999,63.0,81.0
1021,125.25946689999999,125.58630133749999,59.0,81.0
1022,125.25946689999999,125.59318206249999,54.0,79.0
1023,125.5346959,125.8099249,42.0,74.0
1024,125.8099249,125.945245825,59.0,80.0
1025,125.8099249,125.94639261249999,54.0,78.0
1026,125.8099249,125.9475394,63.0,81.0
1027,125.8099249,126.0851539,44.0,74.0
1028,126.36038289999999,126.4876763125,59.0,80.0
1029,126.36038289999999,126.4899698875,54.0,78.0
1030,126.0851539,126.491116675,47.0,69.0
1031,126.36038289999999,126.5071717,63.0,82.0
1032,126.6356119,126.9108409,42.0,73.0
1033,126.9108409,127.07941866249999,59.0,80.0
1034,126.9108409,127.087446175,54.0,80.0
1035,126.9108409,127.1803359625,63.0,83.0
1036,126.9108409,127.18606989999999,47.0,81.0
1037,127.18606989999999,127.63102345,40.0,73.0
1038,127.4612989,127.88216991249999,52.0,76.0
1039,127.4612989,127.890197425,56.0,72.0
1040,127.4612989,127.9119863875,59.0,78.0
1041,127.7365279,128.0117569,44.0,78.0
1042,128.0117569,128.1585457,52.0,81.0
1043,128.0117569,128.1642796375,56.0,80.0
1044,128.0117569,128.2009768375,59.0,82.0
1045,128.0117569,128.2869859,47.0,81.0
1046,128.2869859,128.6814808,42.0,77.0
1047,128.5622149,128.9475355,58.0,74.0
1048,128.5622149,128.949829075,54.0,79.0
1049,128.5622149,128.96129695,61.0,80.0
1050,128.83744389999998,129.1126729,49.0,76.0
1051,129.1126729,129.27322315,58.0,81.0
1052,129.1126729,129.289278175,54.0,80.0
1053,129.1126729,129.30992035,61.0,82.0
1054,129.1126729,129.3879019,42.0,81.0
1055,129.3879019,129.75602068749998,47.0,60.0
1056,129.6631309,129.84547011249998,54.0,80.0
1057,129.6631309,129.8466169,59.0,81.0
1058,129.6631309,129.87184622499998,63.0,82.0
1059,129.9383599,130.2743686375,42.0,80.0
1060,130.2135889,130.348909825,54.0,78.0
1061,130.2135889,130.3512034,59.0,80.0
1062,130.2135889,130.35579055,63.0,81.0
1063,130.4888179,130.9739090125,47.0,74.0
1064,130.76404689999998,131.0862941875,63.0,82.0
1065,130.76404689999998,131.0943217,54.0,80.0
1066,130.76404689999998,131.11037672499998,59.0,81.0
1067,131.0392759,131.3913396625,42.0,80.0
1068,131.3145049,131.45670655,54.0,79.0
1069,131.3145049,131.4784955125,59.0,80.0
1070,131.3145049,131.4876698125,63.0,81.0
1071,131.5897339,131.9807884375,44.0,76.0
1072,131.8649629,132.3018889375,56.0,79.0
1073,131.8649629,132.307622875,59.0,81.0
1074,131.8649629,132.3087696625,63.0,82.0
1075,132.4154209,132.5771179375,56.0,80.0
1076,132.4154209,132.5794115125,59.0,81.0
1077,132.1401919,132.592026175,51.0,79.0
1078,132.4154209,132.605787625,63.0,83.0
1079,132.69064989999998,133.2514289875,42.0,66.0
1080,133.2411079,133.2514289875,42.0,79.0
1081,132.9658789,133.33858483749998,58.0,80.0
1082,132.9658789,133.34661235,54.0,80.0
1083,132.9658789,133.3511995,61.0,80.0
1084,133.5163369,133.6619789125,58.0,83.0
1085,133.5163369,133.67688715,54.0,80.0
1086,133.5163369,133.69294217499998,61.0,81.0
1087,133.5163369,133.7915659,44.0,81.0
1088,133.7915659,134.27092307499998,47.0,81.0
1089,134.0667949,134.4647301625,54.0,81.0
1090,134.0667949,134.4647301625,63.0,83.0
1091,134.0667949,134.472757675,59.0,82.0
1092,134.3420239,134.61725289999998,47.0,81.0
1093,134.61725289999998,134.7697756375,54.0,79.0
1094,134.61725289999998,134.79729853749998,59.0,81.0
1095,134.61725289999998,134.80532605,63.0,82.0
1096,134.61725289999998,134.8924819,42.0,81.0
1097,134.8924819,135.30417861249998,39.0,80.0
1098,135.1677109,135.5897287,58.0,77.0
1099,135.1677109,135.601196575,63.0,80.0
1100,135.1677109,135.60693051249999,66.0,78.0
1101,135.4429399,135.81220547499998,46.0,80.0
1102,135.7181689,135.8661044875,66.0,80.0
1103,135.7181689,135.9096824125,63.0,83.0
1104,135.7181689,135.9119759875,58.0,82.0
1105,135.9933979,136.39247995,44.0,77.0
1106,136.2686269,136.67803003749998,63.0,81.0
1107,136.2686269,136.6814704,56.0,75.0
1108,136.2686269,136.683763975,59.0,75.0
1109,136.54385589999998,136.8190849,39.0,76.0
1110,136.8190849,136.9842223,59.0,81.0
1111,136.8190849,136.9922498125,56.0,81.0
1112,136.8190849,136.99339659999998,63.0,84.0
1113,136.8190849,137.0943139,42.0,81.0
1114,137.3695429,137.4899555875,54.0,78.0
1115,137.3695429,137.5312399375,58.0,79.0
1116,137.3695429,137.5885793125,42.0,89.0
1117,137.6447719,137.99798245,44.0,85.0
1118,137.6447719,138.0610557625,56.0,73.0
1119,137.6447719,138.0794043625,59.0,81.0
1120,138.1952299,139.085137,58.0,75.0
1121,138.14477125,139.24683403749998,42.0,73.0
1122,138.0771107875,139.252567975,49.0,71.0
1123,138.1952299,139.2537147625,54.0,78.0
1124,139.2961459,139.7732095,58.0,76.0
1125,139.2961459,139.784677375,61.0,76.0
1126,139.8466039,140.252566675,58.0,77.0
1127,139.8466039,140.252566675,66.0,72.0
1128,139.8466039,140.27435563749998,61.0,73.0
1129,139.28009087499998,140.27550242499998,42.0,74.0
1130,140.39706189999998,140.8087586125,47.0,80.0
1131,140.6722909,140.9371988125,63.0,80.0
1132,140.6722909,140.9371988125,66.0,74.0
1133,140.6722909,140.940639175,59.0,76.0
1134,140.9475199,141.15508843749998,42.0,82.0
1135,141.2227489,141.36495055,63.0,78.0
1136,141.2227489,141.36724412499998,66.0,74.0
1137,141.2227489,141.37985878749998,44.0,85.0
1138,141.2227489,141.3936202375,59.0,74.0
1139,141.4979779,141.9750415,47.0,74.0
1140,141.7732069,142.1436192625,63.0,77.0
1141,141.7732069,142.1436192625,66.0,73.0
1142,141.7732069,142.1665550125,59.0,75.0
1143,142.0484359,142.252564075,42.0,80.0
1144,142.32366489999998,142.43949043749998,63.0,78.0
1145,142.32366489999998,142.4429308,66.0,73.0
1146,142.32366489999998,142.45669225,59.0,75.0
1147,142.32366489999998,142.5105912625,44.0,81.0
1148,142.5988939,142.9670126875,47.0,80.0
1149,142.8741229,143.046141025,54.0,77.0
1150,142.8741229,143.059902475,63.0,84.0
1151,142.8741229,143.0610492625,59.0,80.0
1152,143.1493519,143.4245809,42.0,76.0
1153,143.4245809,143.5931586625,54.0,80.0
1154,143.4245809,143.5931586625,59.0,80.0
1155,143.4245809,143.59545223749998,63.0,82.0
1156,143.4245809,143.6998099,44.0,81.0
1157,143.6998099,144.06219475,47.0,76.0
1158,143.9750389,144.137882725,54.0,76.0
1159,143.9750389,144.1436166625,59.0,79.0
1160,143.9750389,144.1619652625,63.0,82.0
1161,144.25026789999998,144.5931573625,42.0,77.0
1162,144.5254969,144.7399461625,54.0,76.0
1163,144.5254969,144.7560011875,59.0,75.0
1164,144.5254969,144.7560011875,63.0,81.0
1165,144.8007259,145.23879872499998,47.0,72.0
1166,145.0759549,145.37411964999998,54.0,75.0
1167,145.0759549,145.376413225,59.0,76.0
1168,145.0759549,145.38100037499999,63.0,76.0
1169,145.3511839,145.6264129,42.0,77.0
1170,145.6264129,145.803018175,54.0,72.0
1171,145.6264129,145.807605325,59.0,74.0
1172,145.6264129,145.8156328375,63.0,75.0
1173,145.6264129,145.9016419,44.0,81.0
1174,145.9016419,146.36953119999998,47.0,73.0
1175,146.17687089999998,146.56792543749998,54.0,81.0
1176,146.17687089999998,146.57595295,63.0,82.0
1177,146.17687089999998,146.582833675,59.0,81.0
1178,146.7273289,146.92801671249998,54.0,81.0
1179,146.7273289,146.9303102875,59.0,83.0
1180,146.7273289,146.9463653125,63.0,83.0
1181,146.4520999,147.0025579,42.0,81.0
1182,147.0025579,147.3752638375,47.0,72.0
1183,147.2777869,147.6447589,54.0,80.0
1184,147.2777869,147.6481992625,63.0,83.0
1185,147.2777869,147.656226775,59.0,80.0
1186,147.5530159,147.8282449,42.0,81.0
1187,147.8282449,148.004850175,54.0,81.0
1188,147.8282449,148.036960225,59.0,82.0
1189,147.8282449,148.101180325,63.0,83.0
1190,147.8282449,148.10347389999998,47.0,81.0
1191,148.10347389999998,148.4704459,44.0,81.0
1192,148.3787029,148.81677572499999,56.0,78.0
1193,148.3787029,148.82136287499998,59.0,83.0
1194,148.3787029,148.82365645,63.0,85.0
1195,148.9291609,149.1126469,59.0,83.0
1196,148.6539319,149.13672943749998,39.0,78.0
1197,148.9291609,149.1436101625,56.0,80.0
1198,148.9291609,149.16998627499999,63.0,84.0
1199,149.2043899,149.58512335,42.0,73.0
1200,149.4796189,149.6172334,64.0,73.0
1201,149.4796189,149.8981963375,54.0,77.0
1202,149.4796189,149.8981963375,58.0,81.0
1203,149.4796189,149.8981963375,63.0,80.0
1204,149.7548479,150.03007689999998,37.0,75.0
1205,150.03007689999998,150.19062715,63.0,86.0
1206,150.03007689999998,150.1940675125,58.0,85.0
1207,150.03007689999998,150.20324181249998,54.0,81.0
1208,150.03007689999998,150.3053059,39.0,81.0
1209,150.3053059,150.601177075,42.0,78.0
1210,150.5805349,150.986497675,61.0,78.0
1211,150.5805349,150.9876444625,54.0,77.0
1212,150.5805349,150.9945251875,58.0,78.0
1213,150.8557639,151.1309929,37.0,78.0
1214,151.1309929,151.2903963625,54.0,81.0
1215,151.1309929,151.2903963625,58.0,84.0
1216,151.1309929,151.298423875,61.0,81.0
1217,151.1309929,151.4062219,42.0,81.0
1218,151.4062219,151.569065725,49.0,74.0
1219,151.4062219,151.66768945,52.0,76.0
1220,151.4062219,151.6814509,37.0,81.0
1221,151.6814509,152.08053295,56.0,73.0
1222,151.6814509,152.0885604625,61.0,76.0
1223,151.6814509,152.09658797499998,64.0,72.0
1224,151.95667989999998,152.247963925,44.0,77.0
1225,152.2319089,152.454385675,61.0,83.0
1226,152.2319089,152.46585355,64.0,82.0
1227,152.2319089,152.4670003375,56.0,81.0
1228,152.2319089,152.5071379,47.0,81.0
1229,152.5071379,152.821357675,49.0,69.0
1230,152.7823669,153.11722885,64.0,80.0
1231,152.7823669,153.1275499375,61.0,80.0
1232,152.7823669,153.13787102499998,56.0,80.0
1233,153.3328249,153.53007235,61.0,77.0
1234,153.3328249,153.5358062875,56.0,77.0
1235,153.3328249,153.5725034875,64.0,81.0
1236,153.0575959,153.6080539,44.0,65.0
1237,153.6080539,153.963558025,40.0,78.0
1238,153.88328289999998,154.24337417499999,52.0,76.0
1239,153.88328289999998,154.24910811249998,59.0,80.0
1240,153.88328289999998,154.266309925,56.0,74.0
1241,154.1585119,154.4337409,35.0,80.0
1242,154.4337409,154.6229608375,52.0,81.0
1243,154.4337409,154.6264012,56.0,80.0
1244,154.4337409,154.6619516125,59.0,80.0
1245,154.4337409,154.7089699,37.0,81.0
1246,154.7089699,155.0633272375,42.0,81.0
1247,154.9841989,155.394748825,54.0,80.0
1248,154.9841989,155.4073634875,61.0,81.0
1249,154.9841989,155.41195063749998,58.0,80.0
1250,155.2594279,155.65621637499999,37.0,78.0
1251,155.5346569,155.7147025375,54.0,80.0
1252,155.5346569,155.738785075,61.0,81.0
1253,155.5346569,155.74566579999998,58.0,81.0
1254,155.80988589999998,156.3603439,47.0,76.0
1255,156.0851149,156.5128666375,54.0,80.0
1256,156.0851149,156.5174537875,63.0,83.0
1257,156.0851149,156.5197473625,59.0,82.0
1258,156.3603439,156.6355729,42.0,77.0
1259,156.6355729,156.8007103,54.0,82.0
1260,156.6355729,156.83740749999998,59.0,84.0
1261,156.6355729,156.839701075,63.0,85.0
1262,156.6355729,156.9108019,47.0,81.0
1263,157.1860309,157.3775444125,56.0,74.0
1264,157.1860309,157.4004801625,63.0,85.0
1265,157.1860309,157.431443425,59.0,80.0
1266,156.9108019,157.4612599,44.0,81.0
1267,157.4612599,157.73648889999998,39.0,81.0
1268,157.4612599,157.74222283749998,51.0,81.0
1269,157.73648889999998,157.9394702875,63.0,85.0
1270,157.73648889999998,157.9474978,59.0,85.0
1271,157.73648889999998,157.972727125,56.0,80.0
1272,157.73648889999998,158.0117179,44.0,81.0
1273,158.0117179,158.5621759,42.0,81.0
1274,158.2869469,158.6046070375,58.0,81.0
1275,158.2869469,158.605753825,61.0,81.0
1276,158.2869469,158.6344235125,54.0,81.0
1277,158.5621759,158.77547837499998,49.0,75.0
1278,158.5621759,158.8374049,37.0,81.0
1279,158.8374049,158.9646983125,58.0,81.0
1280,158.8374049,158.97960655,54.0,80.0
1281,158.8374049,158.98190012499998,61.0,80.0
1282,158.8374049,159.1126339,39.0,81.0
1283,159.1126339,159.2559823375,58.0,86.0
1284,159.1126339,159.26400984999998,54.0,82.0
1285,159.1126339,159.270890575,61.0,85.0
1286,159.1126339,159.3878629,42.0,81.0
1287,159.3878629,159.66309189999998,42.0,81.0
1288,159.3878629,159.8098807,58.0,84.0
1289,159.3878629,159.819055,54.0,82.0
1290,159.3878629,159.8270825125,61.0,83.0
1291,159.9383209,160.1413022875,54.0,81.0
1292,159.9383209,160.1504765875,58.0,82.0
1293,159.9383209,160.15391695,61.0,84.0
1294,159.9383209,160.2135499,37.0,81.0
1295,160.2135499,160.642448425,47.0,84.0
1296,160.4887789,160.802998675,63.0,81.0
1297,160.4887789,160.8156133375,59.0,81.0
1298,160.4887789,160.8224940625,54.0,79.0
1299,160.7640079,161.0392369,42.0,74.0
1300,161.0392369,161.174557825,59.0,80.0
1301,161.0392369,161.1757046125,54.0,78.0
1302,161.0392369,161.1768514,63.0,81.0
1303,161.0392369,161.3144659,44.0,74.0
1304,161.58969489999998,161.7169883125,59.0,80.0
1305,161.58969489999998,161.7192818875,54.0,78.0
1306,161.3144659,161.720428675,47.0,69.0
1307,161.58969489999998,161.7364837,63.0,82.0
1308,161.8649239,162.1401529,42.0,73.0
1309,162.1401529,162.3087306625,59.0,80.0
1310,162.1401529,162.316758175,54.0,80.0
1311,162.1401529,162.4096479625,63.0,83.0
1312,162.1401529,162.4153819,47.0,81.0
1313,162.4153819,162.86033544999998,40.0,73.0
1314,162.6906109,163.11148191249998,52.0,76.0
1315,162.6906109,163.119509425,56.0,72.0
1316,162.6906109,163.1412983875,59.0,78.0
1317,162.9658399,163.2410689,44.0,78.0
1318,163.2410689,163.38785769999998,52.0,81.0
1319,163.2410689,163.39359163749998,56.0,80.0
1320,163.2410689,163.4302888375,59.0,82.0
1321,163.2410689,163.51629789999998,47.0,81.0
1322,163.51629789999998,163.9107928,42.0,77.0
1323,163.7915269,164.1768475,58.0,74.0
1324,163.7915269,164.179141075,54.0,79.0
1325,163.7915269,164.19060894999998,61.0,80.0
1326,164.0667559,164.3419849,49.0,76.0
1327,164.3419849,164.50253515,58.0,81.0
1328,164.3419849,164.51859017499999,54.0,80.0
1329,164.3419849,164.53923235,61.0,82.0
1330,164.3419849,164.6172139,42.0,81.0
1331,164.6172139,164.98533268749998,47.0,60.0
1332,164.8924429,165.0747821125,54.0,80.0
1333,164.8924429,165.0759289,59.0,81.0
1334,164.8924429,165.101158225,63.0,82.0
1335,165.1676719,165.5036806375,42.0,80.0
1336,165.44290089999998,165.57822182499999,54.0,78.0
1337,165.44290089999998,165.5805154,59.0,80.0
1338,165.44290089999998,165.58510255,63.0,81.0
1339,165.7181299,166.2032210125,47.0,74.0
1340,165.9933589,166.3156061875,63.0,82.0
1341,165.9933589,166.3236337,54.0,80.0
1342,165.9933589,166.339688725,59.0,81.0
1343,166.2685879,166.6206516625,42.0,80.0
1344,166.5438169,166.68601855,54.0,79.0
1345,166.5438169,166.70780751249998,59.0,80.0
1346,166.5438169,166.7169818125,63.0,81.0
1347,166.8190459,167.2101004375,44.0,76.0
1348,167.0942749,167.5312009375,56.0,79.0
1349,167.0942749,167.536934875,59.0,81.0
1350,167.0942749,167.5380816625,63.0,82.0
1351,167.6447329,167.80642993749998,56.0,80.0
1352,167.6447329,167.8087235125,59.0,81.0
1353,167.36950389999998,167.821338175,51.0,79.0
1354,167.6447329,167.835099625,63.0,83.0
1355,167.9199619,168.48074098749998,42.0,66.0
1356,168.4704199,168.48074098749998,42.0,79.0
1357,168.1951909,168.5678968375,58.0,80.0
1358,168.1951909,168.57592434999998,54.0,80.0
1359,168.1951909,168.5805115,61.0,80.0
1360,168.7456489,168.89129091249998,58.0,83.0
1361,168.7456489,168.90619915,54.0,80.0
1362,168.7456489,168.92225417499998,61.0,81.0
1363,168.7456489,169.0208779,44.0,81.0
1364,169.0208779,169.50023507499998,47.0,81.0
1365,169.29610689999998,169.6940421625,54.0,81.0
1366,169.29610689999998,169.6940421625,63.0,83.0
1367,169.29610689999998,169.702069675,59.0,82.0
1368,169.5713359,169.8465649,47.0,81.0
1369,169.8465649,169.9990876375,54.0,79.0
1370,169.8465649,170.0266105375,59.0,81.0
1371,169.8465649,170.03463804999998,63.0,82.0
1372,169.8465649,170.1217939,42.0,81.0
1373,170.1217939,170.5334906125,39.0,80.0
1374,170.3970229,170.8190407,58.0,77.0
1375,170.3970229,170.830508575,63.0,80.0
1376,170.3970229,170.8362425125,66.0,78.0
1377,170.6722519,171.04151747499998,46.0,80.0
1378,170.9474809,171.0954164875,66.0,80.0
1379,170.9474809,171.13899441249998,63.0,83.0
1380,170.9474809,171.1412879875,58.0,82.0
1381,171.22270989999998,171.62179195,44.0,77.0
1382,171.4979389,171.9073420375,63.0,81.0
1383,171.4979389,171.9107824,56.0,75.0
1384,171.4979389,171.913075975,59.0,75.0
1385,171.7731679,172.0483969,39.0,76.0
1386,172.0483969,172.2135343,59.0,81.0
1387,172.0483969,172.2215618125,56.0,81.0
1388,172.0483969,172.2227086,63.0,84.0
1389,172.0483969,172.3236259,42.0,81.0
1390,172.5988549,172.71926758749998,54.0,78.0
1391,172.5988549,172.7605519375,58.0,79.0
1392,172.5988549,172.8178913125,42.0,89.0
1393,172.8740839,173.22729445,44.0,85.0
1394,172.8740839,173.2903677625,56.0,73.0
1395,172.8740839,173.30871636249998,59.0,81.0
1396,173.4245419,174.314449,58.0,75.0
1397,173.37408324999998,174.4761460375,42.0,73.0
1398,173.3064227875,174.481879975,49.0,71.0
1399,173.4245419,174.4830267625,54.0,78.0
1400,174.5254579,175.0025215,58.0,76.0
1401,174.5254579,175.013989375,61.0,76.0
1402,175.07591589999998,175.481878675,58.0,77.0
1403,175.07591589999998,175.481878675,66.0,72.0
1404,175.07591589999998,175.5036676375,61.0,73.0
1405,174.50940287499998,175.504814425,42.0,74.0
1406,175.6263739,176.0380706125,47.0,80.0
1407,175.9016029,176.1665108125,63.0,80.0
1408,175.9016029,176.1665108125,66.0,74.0
1409,175.9016029,176.169951175,59.0,76.0
1410,176.1768319,176.3844004375,42.0,82.0
1411,176.4520609,176.59426255,63.0,78.0
1412,176.4520609,176.596556125,66.0,74.0
1413,176.4520609,176.60917078749998,44.0,85.0
1414,176.4520609,176.62293223749998,59.0,74.0
1415,176.7272899,177.2043535,47.0,74.0
1416,177.00251889999998,177.3729312625,63.0,77.0
1417,177.00251889999998,177.3729312625,66.0,73.0
1418,177.00251889999998,177.3958670125,59.0,75.0
1419,177.2777479,177.481876075,42.0,80.0
1420,177.5529769,177.6688024375,63.0,78.0
1421,177.5529769,177.6722428,66.0,73.0
1422,177.5529769,177.68600425,59.0,75.0
1423,177.5529769,177.73990326249998,44.0,81.0
1424,177.8282059,178.16421463749998,47.0,85.0
1425,178.1034349,178.417654675,63.0,81.0
1426,178.1034349,178.4486179375,54.0,78.0
1427,178.1034349,178.4520583,59.0,80.0
1428,178.3786639,178.74792947499998,42.0,80.0
1429,178.6538929,178.81444315,54.0,81.0
1430,178.6538929,178.8247642375,59.0,82.0
1431,178.6538929,178.86031465,63.0,81.0
1432,178.92912189999998,179.353433275,44.0,81.0
1433,179.2043509,179.605726525,56.0,81.0
1434,179.2043509,179.6114604625,59.0,85.0
1435,179.2043509,179.6183411875,63.0,86.0
1436,179.47957989999998,179.81444184999998,51.0,79.0
1437,179.7548089,179.94861598749998,63.0,91.0
1438,179.7548089,179.9577902875,59.0,91.0
1439,179.7548089,179.9899003375,56.0,82.0
1440,180.0300379,180.3889823875,37.0,86.0
1441,180.3052669,180.67682605,49.0,75.0
1442,180.3052669,180.6848535625,52.0,73.0
1443,180.3052669,180.697468225,56.0,71.0
1444,180.5804959,180.92453215,44.0,85.0
1445,180.85572489999998,181.0632934375,49.0,83.0
1446,180.85572489999998,181.0862291875,52.0,85.0
1447,180.85572489999998,181.0976970625,56.0,82.0
1448,181.1309539,181.55755885,42.0,82.0
1449,181.40618289999998,181.79723743749997,54.0,81.0
1450,181.40618289999998,181.8155860375,58.0,82.0
1451,181.40618289999998,181.8476960875,61.0,80.0
1452,181.6814119,182.11833793749997,49.0,76.0
1453,181.9566409,182.2169616625,54.0,83.0
1454,181.9566409,182.21810845,58.0,87.0
1455,181.9566409,182.23645705,61.0,85.0
1456,182.5070989,182.8109975875,40.0,83.0
1457,182.5070989,182.8373737,64.0,83.0
1458,182.5070989,182.8408140625,59.0,82.0
1459,182.5070989,182.84425442499997,68.0,81.0
1460,182.9199424,183.1137494875,59.0,81.0
1461,182.9199424,183.151593475,64.0,80.0
1462,182.9199424,183.1756760125,68.0,81.0
1463,182.9199424,183.215813575,40.0,82.0
1464,183.33278589999998,183.64012495,35.0,70.0
1465,183.33278589999998,183.6435653125,47.0,74.0
1466,183.33278589999998,183.665354275,63.0,80.0
1467,183.33278589999998,183.672235,66.0,76.0
1468,183.33278589999998,183.6756753625,71.0,80.0
