,start,end,pitch,velocity
0,36.7179678625,36.93551591041666,68.0,86.0
1,37.00642936249999,37.2948908625,68.0,88.0
2,37.2948908625,37.8718138625,67.0,87.0
3,38.160275362499995,38.71796759583333,65.0,89.0
4,38.737198362499996,39.24921752499999,68.0,85.0
5,39.314121362499996,39.73960207499999,67.0,88.0
6,39.8910443625,40.13142894583333,63.0,87.0
7,40.179505862499994,42.18912097916666,65.0,88.0
8,45.948735862499994,46.16267814166666,72.0,87.0
9,46.2371973625,46.451139641666664,70.0,89.0
10,46.525658862499995,47.25883184166666,68.0,87.0
11,47.3910433625,47.794889462499995,67.0,88.0
12,47.96796636249999,48.441523991666664,70.0,87.0
13,48.544889362499994,48.99440853333333,70.0,87.0
14,49.121812362499995,49.35137963958333,67.0,81.0
15,49.41027386249999,52.5905619,68.0,83.0
16,53.73719636249999,54.19633091666666,68.0,91.0
17,54.314119362499994,55.862196079166665,72.0,87.0
18,56.0448883625,56.243205643749995,70.0,85.0
19,56.33334986249999,56.500417147916664,68.0,76.0
20,56.6218113625,56.77926326458333,67.0,87.0
21,56.910272862499994,57.13503244791666,65.0,89.0
22,57.19873436249999,57.428301639583324,63.0,82.0
23,57.487195862499995,58.229984224999995,67.0,83.0
24,58.35258036249999,58.623013018749994,63.0,87.0
25,58.641041862499996,60.91628194374999,65.0,87.0
26,64.4102718625,64.64464683124999,58.0,88.0
27,64.6987333625,64.93671409999999,60.0,88.0
28,64.98719486249999,65.38983903958334,61.0,84.0
29,65.5641178625,65.81652167499999,61.0,83.0
30,65.8525793625,66.80089654374999,60.0,89.0
31,67.0064253625,67.21555995,60.0,89.0
32,67.2948868625,67.78887718125,67.0,83.0
33,67.87180986249999,68.10618483125,63.0,80.0
34,68.1602713625,71.09250846041667,65.0,88.0
35,72.76516867916666,73.15485654375,67.0,88.0
36,73.34070767916666,73.54934056666666,67.0,81.0
37,73.62847717916667,74.09969973541666,67.0,87.0
38,74.20401617916666,74.40065867083332,70.0,88.0
39,74.49178567916667,74.71600608125,68.0,87.0
40,74.77955517916666,74.96660535416666,67.0,87.0
41,75.06732467916666,75.32511818958332,68.0,80.0
42,75.35509417916666,76.21840267916666,65.0,85.0
43,76.50617217916667,76.94502066666666,65.0,93.0
44,77.08171117916666,77.29633926458332,68.0,82.0
45,77.36948067916666,78.23278917916666,67.0,88.0
46,78.23278917916666,78.75916755624999,65.0,87.0
47,78.80832817916666,79.09609767916666,63.0,84.0
48,79.09609767916666,79.36348350624999,60.0,87.0
49,79.38386717916666,81.726790525,65.0,87.0
50,82.5493605125,82.72724510416667,70.0,80.0
51,82.8378220125,83.03012967916666,70.0,86.0
52,83.1262835125,83.2993604125,70.0,84.0
53,83.4147450125,83.92315840625,70.0,88.0
54,83.9916680125,84.2368602875,68.0,84.0
55,84.2801295125,84.54335063125001,65.0,89.0
56,84.5685910125,85.6791677875,68.0,82.0
57,85.7224370125,85.90512929583333,68.0,76.0
58,86.0108985125,86.18277348958333,68.0,87.0
59,86.2993600125,86.51330229166666,68.0,82.0
60,86.5878215125,86.87508108958333,68.0,87.0
61,86.8762830125,87.89671556875,63.0,83.0
62,88.0301290125,88.26931167291667,63.0,86.0
63,88.3185905125,88.52291740833333,65.0,88.0
64,88.6070520125,88.8810904375,63.0,83.0
65,88.8955135125,89.76089801250001,58.0,83.0
66,89.76089801250001,90.676763275,63.0,82.0
67,90.6262825125,90.94599400833333,60.0,84.0
68,90.9147440125,93.35665839166667,65.0,87.0
69,95.23435437916667,95.43579302916667,68.0,89.0
70,95.52212387916667,95.72715964791666,70.0,88.0
71,95.8100519625,96.60211916458334,72.0,85.0
72,96.6754364625,97.5408209625,70.0,81.0
73,97.5408209625,98.13697472916667,68.0,81.0
74,98.1177439625,98.42183046041667,70.0,83.0
75,98.4062054625,98.71750349791667,68.0,80.0
76,98.69466696250001,99.67062837083334,65.0,86.0
77,99.5600514625,99.72231105625,68.0,83.0
78,99.8485129625,100.03120524583333,68.0,83.0
79,100.1369744625,100.37856096875001,67.0,87.0
80,100.4254359625,100.88216667083334,65.0,89.0
81,101.0023589625,101.52519543125,68.0,83.0
82,101.5792819625,102.17663765208334,67.0,89.0
83,102.1562049625,102.43264723333334,63.0,82.0
84,102.44466646250001,104.4638969625,65.0,87.0
85,105.3292814625,105.49634874791667,65.0,88.0
86,105.6177429625,105.7908198625,65.0,88.0
87,105.9062044625,106.13096404791666,63.0,79.0
88,106.1946659625,106.6562043625,65.0,88.0
89,106.7715889625,107.03240623541667,68.0,79.0
90,107.0600504625,108.45548296875,65.0,88.0
91,108.7908194625,109.24634824791667,65.0,88.0
92,109.3677424625,109.59490589375,67.0,75.0
93,109.6562039625,110.32928079583334,68.0,85.0
94,110.5215884625,110.71870382083334,68.0,85.0
95,110.8100499625,111.01317493541667,72.0,88.0
96,111.0985114625,111.39057873125,70.0,82.0
97,111.3869729625,111.67543446250001,68.0,84.0
98,111.67543446250001,112.01197287916668,68.0,83.0
99,111.9638959625,113.1177419625,70.0,80.0
100,113.6946649625,113.8965880125,68.0,89.0
101,113.9831264625,114.18865528125,70.0,88.0
102,114.2715879625,115.06365516458334,72.0,85.0
103,115.1369724625,116.0023569625,70.0,81.0
104,116.0023569625,116.59851072916666,68.0,81.0
105,116.57927996250001,116.88336646041667,70.0,83.0
106,116.8677414625,117.17903949791668,68.0,80.0
107,117.1562029625,118.13216437083334,65.0,86.0
108,118.02158746250001,118.18384705625,68.0,83.0
109,118.3100489625,118.49274124583334,68.0,83.0
110,118.5985104625,118.84009696875,67.0,87.0
111,118.8869719625,119.34370267083334,65.0,89.0
112,119.46388054583333,119.98546276458335,68.0,83.0
113,120.03941954583334,120.63534221875001,67.0,89.0
114,120.61495854583335,120.89073765,63.0,82.0
115,120.90272804583334,122.62934504583333,65.0,87.0
116,122.91711454583334,123.11855319583334,68.0,89.0
117,123.20488404583334,123.40991981458333,70.0,88.0
118,123.49265354583333,124.28282063125,72.0,85.0
119,124.35596204583334,125.21927054583334,70.0,81.0
120,125.21927054583334,125.81399417916667,65.0,81.0
121,125.79480954583335,126.09816656041667,70.0,83.0
122,126.08257904583334,126.39313029791667,72.0,80.0
123,126.37034854583334,127.34396868750001,65.0,86.0
124,127.23365704583334,127.39552738958334,68.0,83.0
125,127.52142654583334,127.70368056250001,68.0,83.0
126,127.80919604583335,128.05020300208335,67.0,87.0
127,128.09696554583334,128.5526005875,65.0,89.0
128,128.67250454583333,129.19408676458335,68.0,83.0
129,129.24804354583335,129.84396621875,67.0,89.0
130,129.82358254583335,130.09936165000002,63.0,82.0
131,130.11135204583334,132.12573854583334,65.0,87.0
132,154.33589869583335,154.55344674375002,68.0,86.0
133,154.62436019583336,154.91282169583334,68.0,88.0
134,154.91282169583334,155.48974469583337,67.0,87.0
135,155.77820619583335,156.3358984291667,65.0,89.0
136,156.35512919583334,156.86714835833337,68.0,85.0
137,156.93205219583336,157.35753290833335,67.0,88.0
138,157.50897519583336,157.7493597791667,63.0,87.0
139,157.79743669583337,159.80705181250002,65.0,88.0
140,163.56666669583336,163.780608975,72.0,87.0
141,163.85512819583334,164.06907047500002,70.0,89.0
142,164.14358969583336,164.876762675,68.0,87.0
143,165.00897419583336,165.41282029583334,67.0,88.0
144,165.58589719583335,166.05945482500002,70.0,87.0
145,166.16282019583335,166.61233936666667,70.0,87.0
146,166.73974319583334,166.96931047291667,67.0,81.0
147,167.02820469583335,170.20849273333334,68.0,83.0
148,171.35512719583335,171.81426175000001,68.0,91.0
149,171.93205019583337,173.48012691250003,72.0,87.0
150,173.66281919583335,173.86113647708336,70.0,85.0
151,173.95128069583336,174.11834798125003,68.0,76.0
152,174.23974219583334,174.3971940979167,67.0,87.0
153,174.52820369583335,174.75296328125,65.0,89.0
154,174.81666519583337,175.0462324729167,63.0,82.0
155,175.10512669583335,175.84791505833334,67.0,83.0
156,175.97051119583335,176.24094385208335,63.0,87.0
157,176.25897269583336,178.53421277708335,65.0,87.0
158,182.02820269583336,182.26257766458335,60.0,88.0
159,182.31666419583337,182.55464493333335,60.0,88.0
160,182.60512569583335,183.0077698729167,63.0,84.0
161,183.47051019583336,184.04743319583335,65.0,83.0
162,184.04743319583335,184.62435619583334,68.0,89.0
163,184.62435619583334,185.20127919583337,67.0,83.0
164,185.20127919583337,185.43565416458335,63.0,80.0
165,185.48974069583335,188.42202969375003,65.0,88.0
166,190.38245941250003,190.77214727708335,67.0,88.0
167,190.95799841250002,191.1666313,67.0,81.0
168,191.2457679125,191.71699046875003,67.0,87.0
169,191.8213069125,192.0179494041667,70.0,88.0
170,192.10907641250003,192.33329681458335,68.0,87.0
171,192.39684591250003,192.58389608750002,67.0,87.0
172,192.68461541250002,192.94240892291668,68.0,80.0
173,192.97238491250002,193.8356934125,65.0,85.0
174,194.12346291250003,194.56231140000003,65.0,93.0
175,194.69900191250002,194.9136299979167,68.0,82.0
176,194.98677141250002,195.8500799125,67.0,88.0
177,195.8500799125,196.37645828958335,65.0,87.0
178,196.42561891250003,196.71338841250002,63.0,84.0
179,196.71338841250002,196.98077423958335,60.0,87.0
180,197.00115791250002,199.34408125833335,65.0,87.0
181,200.1680381291667,200.34592272083336,70.0,80.0
182,200.4564996291667,200.64880729583336,70.0,86.0
183,200.74496112916668,200.9180380291667,70.0,84.0
184,201.0334226291667,201.5418360229167,70.0,88.0
185,201.6103456291667,201.8555379041667,68.0,84.0
186,201.8988071291667,202.1620282479167,65.0,89.0
187,202.1872686291667,203.2978454041667,68.0,82.0
188,203.3411146291667,203.52380691250002,68.0,76.0
189,203.6295761291667,203.80145110625003,68.0,87.0
190,203.9180376291667,204.13197990833336,68.0,82.0
191,204.2064991291667,204.49375870625002,68.0,87.0
192,204.49496062916668,205.51539318541668,63.0,83.0
193,205.6488066291667,205.88798928958337,63.0,86.0
194,205.93726812916668,206.14159502500002,65.0,88.0
195,206.2257296291667,206.4997680541667,63.0,83.0
196,206.5141911291667,207.3795756291667,58.0,83.0
197,207.3795756291667,208.2954408916667,63.0,82.0
198,208.24496012916669,208.56467162500002,60.0,84.0
199,208.5334216291667,210.9781328416667,65.0,87.0
200,212.8603441291667,213.0622671791667,68.0,89.0
201,213.1488056291667,213.3543344479167,70.0,88.0
202,213.43726712916668,214.22933433125002,72.0,85.0
203,214.3026516291667,215.1680361291667,70.0,81.0
204,215.1680361291667,215.76418989583337,68.0,81.0
205,215.7449591291667,216.04904562708336,70.0,83.0
206,216.0334206291667,216.34471866458335,68.0,80.0
207,216.32188212916668,217.29784353750003,65.0,86.0
208,217.1872666291667,217.3495262229167,68.0,83.0
209,217.4757281291667,217.65842041250002,68.0,83.0
210,217.7641896291667,218.00577613541668,67.0,87.0
211,218.0526511291667,218.50938183750003,65.0,89.0
212,218.62957412916668,219.15241059791668,68.0,83.0
213,219.2064971291667,219.80385281875004,67.0,89.0
214,219.7834201291667,220.05986240000004,63.0,82.0
215,220.07188162916668,222.0911121291667,65.0,87.0
216,222.9564966291667,223.12356391458337,65.0,88.0
217,223.2449581291667,223.4180350291667,65.0,88.0
218,223.5334196291667,223.75817921458335,63.0,79.0
219,223.82188112916668,224.2834195291667,65.0,88.0
220,224.3988041291667,224.65962140208336,68.0,79.0
221,224.6872656291667,226.0826981354167,65.0,88.0
222,226.4180346291667,226.87356341458337,65.0,88.0
223,226.9949576291667,227.2221210604167,67.0,75.0
224,227.2834191291667,227.95649596250001,68.0,85.0
225,228.1488036291667,228.34591898750003,68.0,85.0
226,228.4372651291667,228.64039010208336,72.0,88.0
227,228.7257266291667,229.0177938979167,70.0,82.0
228,229.01418812916668,229.3026496291667,68.0,84.0
229,229.3026496291667,229.63918804583335,68.0,83.0
230,229.5911111291667,230.7449571291667,70.0,80.0
231,231.3218801291667,231.5238031791667,68.0,89.0
232,231.6103416291667,231.8158704479167,70.0,88.0
233,231.8988031291667,232.69087033125004,72.0,85.0
234,232.7641876291667,233.6281967791667,70.0,81.0
235,233.6281967791667,234.22292041250003,68.0,81.0
236,234.2037357791667,234.50709279375002,70.0,83.0
237,234.4915052791667,234.80205653125003,68.0,80.0
238,234.77927477916668,235.75289492083334,65.0,86.0
239,235.6425832791667,235.8044536229167,68.0,83.0
240,235.9303527791667,236.11260679583336,68.0,83.0
241,236.2181222791667,236.4591292354167,67.0,87.0
242,236.5058917791667,236.96152682083334,65.0,89.0
243,237.08143077916668,237.6030129979167,68.0,83.0
244,237.6569697791667,238.25289245208336,67.0,89.0
245,238.2325087791667,238.50828788333337,63.0,82.0
246,238.5202782791667,240.2468952791667,65.0,87.0
247,240.5346647791667,240.7361034291667,68.0,89.0
248,240.82243427916669,241.0274700479167,70.0,88.0
249,241.11020377916668,241.90037086458335,72.0,85.0
250,241.9735122791667,242.8368207791667,70.0,81.0
251,242.8368207791667,243.43154441250002,65.0,81.0
252,243.41235977916668,243.71571679375003,70.0,83.0
253,243.70012927916667,244.01068053125002,72.0,80.0
254,243.9878987791667,244.96151892083336,65.0,86.0
255,244.8512072791667,245.01307762291668,68.0,83.0
256,245.13897677916668,245.32123079583334,68.0,83.0
257,245.42674627916668,245.66775323541668,67.0,87.0
258,245.7145503791667,246.17128108750003,65.0,89.0
259,246.2914733791667,246.8143098479167,68.0,83.0
260,246.8683963791667,247.46575206875002,67.0,89.0
261,247.4453193791667,247.72176165000002,63.0,82.0
262,247.7337808791667,249.7530113791667,65.0,87.0
263,249.7530113791667,249.9549344291667,68.0,89.0
264,250.0414728791667,250.2470016979167,70.0,88.0
265,250.3299343791667,251.12200158125003,72.0,85.0
266,251.1953188791667,252.0607033791667,70.0,81.0
267,252.0607033791667,252.65685714583336,68.0,81.0
268,252.6376263791667,252.94171287708338,70.0,83.0
269,252.9260878791667,253.23738591458337,68.0,80.0
270,253.2145493791667,254.19051078750005,65.0,86.0
271,254.0799338791667,254.2421934729167,68.0,83.0
272,254.3683953791667,254.55108766250004,68.0,83.0
273,254.6568568791667,254.8984433854167,67.0,87.0
274,254.9453183791667,255.40204908750002,65.0,89.0
275,255.5222413791667,256.0450778479167,68.0,83.0
276,256.0991643791667,256.69652006875003,67.0,89.0
277,256.6760873791667,256.95252965000003,63.0,82.0
278,256.9645488791667,258.9837793791667,65.0,87.0
279,259.8491638791667,260.01623116458336,65.0,88.0
280,260.1376253791667,260.3107022791667,65.0,88.0
281,260.4260868791667,260.65084646458337,63.0,79.0
282,260.7145483791667,261.1760867791667,65.0,88.0
283,261.2914713791667,261.55228865208335,68.0,79.0
284,261.5799328791667,262.9753653854167,65.0,88.0
285,263.3107018791667,263.76623066458336,65.0,88.0
286,263.8876248791667,264.1147883104167,67.0,75.0
287,264.1760863791667,264.8491632125,68.0,85.0
288,265.0414708791667,265.23858623750004,68.0,85.0
289,265.3299323791667,265.53305735208335,72.0,88.0
290,265.6183938791667,265.9104611479167,70.0,82.0
291,265.9068553791667,266.1953168791667,68.0,84.0
292,266.1953168791667,266.53185529583334,68.0,83.0
293,266.4837783791667,267.6376243791667,70.0,80.0
294,268.2145473791667,268.4164704291667,68.0,89.0
295,268.5030088791667,268.7085376979167,70.0,88.0
296,268.7914703791667,269.58353758125,72.0,85.0
297,269.6568548791667,270.5222393791667,70.0,81.0
298,270.5222393791667,271.11839314583335,68.0,81.0
299,271.0991623791667,271.40324887708334,70.0,83.0
300,271.3876238791667,271.69892191458337,68.0,80.0
301,271.6760853791667,272.6520467875,65.0,86.0
302,272.5414698791667,272.7037294729167,68.0,83.0
303,272.8299313791667,273.0126236625,68.0,83.0
304,273.1183928791667,273.3599793854167,67.0,87.0
305,273.4068543791667,273.86358508750004,65.0,89.0
306,273.9837773791667,274.5066138479167,68.0,83.0
307,274.5607003791667,275.15805606875006,67.0,89.0
308,275.1376233791667,275.41406565000005,63.0,82.0
309,275.4260848791667,277.1568538791667,65.0,87.0
310,277.4453153791667,277.6472384291667,68.0,89.0
311,277.7337768791667,277.9393056979167,70.0,88.0
312,278.0222383791667,278.81430558125004,72.0,85.0
313,278.8876228791667,279.7530073791667,70.0,81.0
314,279.7530073791667,280.34916114583336,65.0,81.0
315,280.3299303791667,280.63401687708335,70.0,83.0
316,280.6183918791667,280.9296899145834,72.0,80.0
317,280.9068533791667,281.8828147875,65.0,86.0
318,281.7722378791667,281.9344974729167,68.0,83.0
319,282.0606993791667,282.2433916625,68.0,83.0
320,282.3491608791667,282.5907473854167,67.0,87.0
321,282.6376223791667,283.09435308750005,65.0,89.0
322,283.2145453791667,283.7373818479167,68.0,83.0
323,283.7914683791667,284.38882406875,67.0,89.0
324,284.3683913791667,284.64483365,63.0,82.0
325,284.6568528791667,286.6760833791667,65.0,87.0
