,start,end,pitch,velocity
0,15.061413149999998,15.534906099999999,65.0,92.0
1,15.030087916666666,15.586713216666665,60.0,83.0
2,14.987919333333332,15.607195099999998,56.0,83.0
3,14.913220699999998,15.621652899999999,53.0,77.0
4,16.712011983333333,16.863818883333334,53.0,74.0
5,16.99875835,17.131288183333332,53.0,83.0
6,17.001167983333332,17.132493,60.0,80.0
7,18.474658766666664,18.557791116666664,53.0,74.0
8,18.478273216666665,18.8095978,65.0,76.0
9,18.750561783333332,18.820441149999997,53.0,71.0
10,18.46502023333333,18.820441149999997,60.0,76.0
11,16.569843616666667,18.975862499999998,48.0,31.0
12,15.00358195,19.054175583333333,41.0,91.0
13,19.633692399999997,19.743330716666666,37.0,87.0
14,19.56501785,20.202365866666664,61.0,75.0
15,19.638511666666666,20.207185133333333,65.0,84.0
16,19.508391466666666,20.213209216666666,56.0,66.0
17,20.509594116666666,20.57706385,56.0,64.0
18,21.0722435,21.325255,65.0,72.0
19,21.084291666666665,21.330074266666664,61.0,76.0
20,21.083086849999997,21.34573688333333,56.0,62.0
21,21.705977066666666,21.789109416666665,56.0,52.0
22,21.955374116666665,22.087903949999998,56.0,70.0
23,21.955374116666665,22.11922918333333,61.0,70.0
24,21.961398199999998,22.6770593,49.0,71.0
25,23.397539666666663,23.48549128333333,56.0,75.0
26,23.39513003333333,23.67826195,61.0,78.0
27,23.668623416666666,23.758984666666667,56.0,86.0
28,24.111995949999997,24.29271845,53.0,79.0
29,24.174646416666665,24.499946916666666,56.0,81.0
30,24.233682433333332,24.514404716666665,60.0,81.0
31,24.255369133333332,24.557778116666665,65.0,91.0
32,24.8240426,24.944524266666665,53.0,79.0
33,25.121632316666666,25.25416215,60.0,76.0
34,25.1276564,25.2577766,53.0,78.0
35,25.7059684,26.010787016666665,60.0,74.0
36,25.97223288333333,26.379460916666666,53.0,77.0
37,26.30235265,26.46861735,60.0,73.0
38,26.567412316666665,26.802351566666665,65.0,88.0
39,26.834881616666664,26.99512223333333,53.0,75.0
40,24.555368483333332,27.905963633333332,48.0,72.0
41,27.78307233333333,28.078252416666665,56.0,79.0
42,27.99993933333333,28.15174623333333,53.0,86.0
43,27.78307233333333,28.189095549999998,60.0,82.0
44,24.24452578333333,28.36861323333333,41.0,90.0
45,28.275842349999998,28.374637316666664,48.0,79.0
46,28.885479583333332,28.99029863333333,37.0,88.0
47,28.79150388333333,29.063792449999998,56.0,73.0
48,28.850539899999998,29.204755999999996,61.0,81.0
49,28.89752775,29.242105316666663,65.0,83.0
50,29.15776815,29.314394316666665,56.0,73.0
51,30.042103583333333,30.1806575,56.0,81.0
52,30.044513216666665,30.210777916666665,65.0,86.0
53,30.322825866666665,30.6722227,61.0,71.0
54,30.614391499999996,30.745716516666665,56.0,67.0
55,30.918005299999997,32.143303849999995,56.0,73.0
56,30.90595713333333,32.19993023333333,61.0,78.0
57,32.06619558333333,32.43486948333333,49.0,73.0
58,32.3710142,32.80715783333333,56.0,84.0
59,32.373423833333334,33.06378378333333,61.0,84.0
60,32.63486905,33.13125351666667,49.0,80.0
61,32.969808083333334,33.13245833333333,56.0,68.0
62,36.42950636249999,37.40426584791666,53.0,89.0
63,36.7179678625,37.46916968541666,60.0,82.0
64,37.2948908625,37.60739082083333,65.0,87.0
65,36.141044862499996,37.63623697083333,48.0,80.0
66,35.8525833625,37.65306389166666,41.0,89.0
67,38.160275362499995,38.517246468749995,56.0,78.0
68,38.160275362499995,38.860996422916664,65.0,86.0
69,38.160275362499995,38.93791948958333,37.0,82.0
70,38.4487368625,38.96676563958333,44.0,75.0
71,38.737198362499996,39.065323318749996,56.0,79.0
72,39.314121362499996,39.69152515833333,58.0,77.0
73,39.60258286249999,39.89945782291666,46.0,74.0
74,39.314121362499996,39.91027512916666,63.0,81.0
75,39.314121362499996,39.93431358749999,39.0,88.0
76,39.8910443625,40.267246235416664,58.0,86.0
77,40.179505862499994,40.40546737083333,63.0,84.0
78,41.0448903625,41.4343133875,53.0,82.0
79,40.4679673625,41.50522683958333,65.0,86.0
80,41.333351862499995,41.52565952916666,60.0,81.0
81,41.910274862499996,42.125419064583326,56.0,76.0
82,40.4679673625,42.614601691666664,41.0,86.0
83,40.756428862499995,42.63263053541666,48.0,69.0
84,42.4871978625,43.3597939,65.0,89.0
85,43.352582362499994,44.13022648958333,53.0,87.0
86,43.0641208625,44.15907263958333,48.0,74.0
87,42.775659362499994,44.181909174999994,41.0,85.0
88,44.21796686249999,44.59537065833333,60.0,81.0
89,44.506428362499996,44.614601425,53.0,86.0
90,43.6410438625,44.614601425,65.0,88.0
91,45.0833513625,45.4150820875,56.0,78.0
92,45.0833513625,45.50282246041666,63.0,77.0
93,45.6602743625,46.085755074999994,56.0,84.0
94,45.948735862499994,46.16267814166666,68.0,82.0
95,45.37181286249999,46.749216524999994,51.0,78.0
96,45.0833513625,46.804504979166666,44.0,87.0
97,46.525658862499995,46.911476118749995,63.0,80.0
98,47.3910433625,47.716764472916665,58.0,73.0
99,47.3910433625,48.076139424999994,63.0,83.0
100,47.96796636249999,48.18311056458333,58.0,81.0
101,48.2564278625,48.90907200624999,67.0,81.0
102,47.679504862499996,49.151860435416665,46.0,74.0
103,47.3910433625,49.192725814583326,39.0,89.0
104,48.8333508625,49.21796619583333,63.0,86.0
105,49.698735362499995,50.06652377499999,60.0,79.0
106,50.275658362499996,50.37541796458333,60.0,74.0
107,49.698735362499995,50.391042962499995,65.0,85.0
108,50.56411986249999,50.690321768749996,65.0,88.0
109,50.56411986249999,50.69873522916666,60.0,84.0
110,49.9871968625,51.822533156249996,48.0,73.0
111,49.698735362499995,51.83815815416666,41.0,87.0
112,51.717965862499995,52.3093119375,60.0,75.0
113,52.00642736249999,52.60738882083333,65.0,81.0
114,52.5833503625,52.71676380625,60.0,73.0
115,52.871811862499996,52.966763772916664,65.0,80.0
116,52.871811862499996,53.04609068541666,60.0,83.0
117,52.871811862499996,53.11460029166666,68.0,83.0
118,52.00642736249999,53.887436727083326,41.0,88.0
119,52.294888862499995,53.91868672291666,48.0,74.0
120,53.73719636249999,53.97157133124999,65.0,87.0
121,54.0256578625,54.13262900208333,60.0,80.0
122,54.314119362499994,54.671090468749995,56.0,82.0
123,54.314119362499994,54.74440776666666,60.0,82.0
124,54.891042362499995,55.01123465416666,56.0,80.0
125,55.1795038625,55.31171538333333,56.0,87.0
126,55.1795038625,55.31532115208333,63.0,85.0
127,55.75642686249999,55.85979223333333,60.0,85.0
128,55.75642686249999,55.86580184791666,56.0,83.0
129,54.60258086249999,55.89945568958333,51.0,75.0
130,54.314119362499994,55.92349414791666,44.0,87.0
131,56.6218113625,56.972772854166664,58.0,74.0
132,56.6218113625,57.205945899999996,63.0,79.0
133,57.19873436249999,57.329743960416664,58.0,76.0
134,57.487195862499995,57.64825353333333,58.0,78.0
135,57.487195862499995,57.71916698541666,67.0,78.0
136,56.910272862499994,57.8333496625,46.0,61.0
137,56.6218113625,57.893445808333325,39.0,88.0
138,58.064118862499996,58.345368824999994,63.0,80.0
139,58.35258036249999,58.44272458124999,58.0,72.0
140,58.9295033625,59.07373411249999,56.0,75.0
141,58.9295033625,59.28527254583333,61.0,78.0
142,59.2179648625,59.584551352083324,56.0,66.0
143,59.506426362499994,59.64224365208332,61.0,80.0
144,58.9295033625,60.48118584791666,49.0,81.0
145,60.3718108625,60.970368474999994,63.0,83.0
146,60.660272362499995,60.97397424374999,49.0,81.0
147,60.94873386249999,61.11700307083333,56.0,78.0
148,61.237195362499996,61.53647416874999,56.0,80.0
149,61.237195362499996,61.8429645125,60.0,81.0
150,61.8141183625,62.203541387499996,56.0,83.0
151,62.102579862499994,62.290079837499995,60.0,88.0
152,61.5256568625,62.80089707708333,51.0,77.0
153,62.679502862499994,62.952339364583324,56.0,83.0
154,62.679502862499994,63.02325281666666,63.0,83.0
155,61.237195362499996,63.10137780625,44.0,84.0
156,62.9679643625,63.143445108333324,51.0,81.0
157,63.54488736249999,63.83815655416666,58.0,78.0
158,63.54488736249999,64.15666612708333,65.0,86.0
159,64.1218103625,64.25281996041666,58.0,83.0
160,64.4102718625,64.80450257916667,58.0,79.0
161,64.4102718625,64.81171411666666,61.0,82.0
162,64.98719486249999,65.13863715,58.0,76.0
163,64.98719486249999,65.15546407083333,65.0,84.0
164,63.54488736249999,65.16748329999999,46.0,88.0
165,63.833348862499996,65.19632945,53.0,79.0
166,65.8525793625,66.19392547083334,60.0,74.0
167,65.8525793625,66.39224275208332,63.0,82.0
168,66.42950236249999,66.77084847083333,60.0,82.0
169,66.14104086249999,67.10738688749998,55.0,78.0
170,66.7179638625,67.3670022375,67.0,78.0
171,65.8525793625,67.44632915,48.0,84.0
172,67.0064253625,67.58094451666666,63.0,83.0
173,67.2948868625,67.63503104791667,60.0,89.0
174,67.5833483625,67.6987329625,55.0,82.0
175,67.87180986249999,68.26964634791666,60.0,83.0
176,68.1602713625,68.5253647125,65.0,82.0
177,68.44862617916667,69.3311193125,60.0,80.0
178,69.59970417916666,69.94742565833333,60.0,76.0
179,68.73639567916666,69.96661029166665,48.0,77.0
180,69.88747367916666,70.23639419791667,65.0,83.0
181,69.31193467916665,70.23999131666666,68.0,81.0
182,70.17524317916666,70.26037498958333,60.0,62.0
183,68.1602713625,70.27596250416666,41.0,83.0
184,70.46301267916667,70.81672935625,60.0,79.0
185,70.46301267916667,71.10329981666666,65.0,85.0
186,71.03855167916666,71.13687292499999,60.0,72.0
187,70.75078217916666,71.47859920625,48.0,74.0
188,71.32632117916665,71.94502560416666,60.0,83.0
189,71.32632117916665,72.13207577916666,65.0,84.0
190,71.32632117916665,72.15485753125,68.0,82.0
191,70.46301267916667,72.17763928333333,41.0,90.0
192,71.90186017916666,72.19082871875,48.0,80.0
193,72.18962967916666,72.26996533124999,60.0,77.0
194,72.76516867916666,73.36588751041666,60.0,87.0
195,72.76516867916666,73.43423276666667,63.0,87.0
196,72.76516867916666,73.683633,67.0,87.0
197,73.62847717916667,74.00377656875,60.0,75.0
198,73.34070767916666,74.02775736041666,55.0,77.0
199,74.20401617916666,74.45101833333332,55.0,75.0
200,72.76516867916666,74.73878783333333,48.0,91.0
201,73.91624667916666,74.77236094166666,67.0,91.0
202,74.49178567916667,74.89826009791666,60.0,87.0
203,74.77955517916666,75.10329586666666,63.0,83.0
204,75.06732467916666,75.75437436041666,65.0,88.0
205,75.64286367916667,76.02415826666666,61.0,78.0
206,75.35509417916666,76.09729968124999,56.0,75.0
207,75.93063317916666,76.58171167291667,68.0,74.0
208,75.06732467916666,76.86588405416666,49.0,87.0
209,76.79394167916666,76.91024851875,56.0,83.0
210,76.50617217916667,77.11288620833332,65.0,89.0
211,77.08171117916666,77.22799400833333,61.0,76.0
212,77.36948067916666,78.00497165833333,63.0,84.0
213,77.94501967916666,78.32151810833332,58.0,80.0
214,77.65725017916667,78.56012698541666,46.0,74.0
215,77.36948067916666,78.7267934875,39.0,87.0
216,78.23278917916666,78.88626575208333,67.0,91.0
217,78.80832817916666,79.19801604375,63.0,88.0
218,79.09609767916666,79.33710463541667,58.0,81.0
219,79.67163667916667,80.34189980625,65.0,88.0
220,80.24717567916666,80.41624026041666,60.0,74.0
221,80.53494517916667,80.68122800833333,60.0,80.0
222,80.53494517916667,81.15724672291667,68.0,87.0
223,79.95940617916666,81.2879420375,48.0,75.0
224,79.67163667916667,81.30352955208333,41.0,87.0
225,81.11048417916666,81.40784599583333,65.0,89.0
226,81.39825367916666,81.52415283541666,60.0,83.0
227,81.97379267916666,82.26875641666666,58.0,79.0
228,81.97379267916666,82.59022589166666,65.0,84.0
229,82.5493605125,82.72363933541666,58.0,80.0
230,82.26156217916666,82.98445660833333,53.0,76.0
231,81.97379267916666,83.28133156875,46.0,87.0
232,82.8378220125,83.71282189583333,61.0,88.0
233,83.4147450125,83.74887958333333,53.0,78.0
234,83.7032065125,84.05416800416667,58.0,77.0
235,83.9916680125,84.15392760625,61.0,76.0
236,84.2801295125,84.50729294375,56.0,80.0
237,84.2801295125,84.6407063875,61.0,86.0
238,84.5685910125,84.95320634583334,56.0,80.0
239,84.8570525125,85.051764025,61.0,80.0
240,85.1455140125,85.29815822291667,65.0,93.0
241,84.2801295125,85.43157166666667,49.0,86.0
242,85.7224370125,85.99887928333334,61.0,84.0
243,86.0108985125,86.13710041875,56.0,87.0
244,86.5878215125,87.14190797708333,63.0,83.0
245,87.1647445125,87.3522444875,60.0,76.0
246,86.5878215125,87.39070602083333,56.0,81.0
247,87.4532060125,87.77171558541667,68.0,89.0
248,86.8762830125,88.15152322708333,51.0,78.0
249,86.5878215125,88.33661935625,44.0,83.0
250,88.0301290125,88.43036934375,63.0,88.0
251,88.3185905125,88.51570587083333,56.0,91.0
252,88.6070520125,88.72724430416666,51.0,88.0
253,88.8955135125,89.19238847291666,58.0,80.0
254,88.8955135125,89.48325381875,61.0,82.0
255,89.4724365125,89.84623453958334,58.0,82.0
256,88.8955135125,89.86306146041667,46.0,88.0
257,89.1839750125,89.91354222291666,53.0,80.0
258,89.76089801250001,89.96041721666667,61.0,86.0
259,90.0493595125,90.41113831041666,60.0,83.0
260,90.3378210125,90.47003253333334,55.0,91.0
261,90.0493595125,90.62147482083333,63.0,83.0
262,90.0493595125,90.90512862916667,48.0,89.0
263,90.6262825125,90.96883054375,60.0,94.0
264,90.9147440125,91.19839782083334,63.0,92.0
265,91.2032055125,91.81378235416666,65.0,87.0
266,91.7801285125,91.91113811041667,60.0,75.0
267,92.0685900125,92.18878230416666,60.0,82.0
268,92.0685900125,92.20198327291666,68.0,81.0
269,92.64442887916667,92.73675492708334,65.0,81.0
270,92.64442887916667,92.7499443625,60.0,77.0
271,91.4916670125,92.9945484375,48.0,72.0
272,91.2032055125,93.33507567916666,41.0,89.0
273,93.50773737916667,93.83507518541667,60.0,78.0
274,93.50773737916667,94.12044660625,65.0,84.0
275,94.08327637916666,94.18279666458334,60.0,75.0
276,93.79550687916667,94.50773639166667,48.0,73.0
277,94.37104587916667,94.53771238125,60.0,88.0
278,94.37104587916667,94.53891142083333,68.0,87.0
279,94.94658487916666,95.5556969875,65.0,90.0
280,93.50773737916667,95.67440190625,41.0,88.0
281,95.23435437916667,95.706775975,48.0,80.0
282,95.52212387916667,95.74755197083334,60.0,89.0
283,95.8100519625,96.26197497916667,63.0,84.0
284,95.8100519625,96.29082112916667,56.0,86.0
285,96.3869749625,96.70067684375,60.0,87.0
286,96.6754364625,96.74875376041668,63.0,88.0
287,96.09851346250001,97.03961910625,51.0,82.0
288,95.8100519625,97.10211909791667,44.0,88.0
289,96.9638979625,97.15380178333334,56.0,89.0
290,96.9638979625,97.21990754375,68.0,88.0
291,97.5408209625,97.63577287291668,56.0,82.0
292,97.2523594625,97.65259979375,51.0,82.0
293,97.8292824625,98.14538818958334,56.0,84.0
294,97.5408209625,98.16702280208334,63.0,83.0
295,98.1177439625,98.78360925833334,62.0,79.0
296,98.9831284625,99.01918615,62.0,54.0
297,98.69466696250001,99.21990727708334,58.0,86.0
298,98.9831284625,99.29683034375,65.0,87.0
299,98.4062054625,99.51437839166667,53.0,82.0
300,98.1177439625,99.59009953541667,46.0,89.0
301,99.2715899625,99.90259949375,70.0,91.0
302,99.5600514625,99.90380141666667,65.0,88.0
303,99.8485129625,100.18144561041667,62.0,89.0
304,100.1369744625,100.32086866875001,58.0,84.0
305,100.4254359625,100.67543592916667,56.0,86.0
306,100.4254359625,100.84009936875,61.0,84.0
307,100.7138974625,101.3052435375,44.0,73.0
308,100.4254359625,101.34250314791667,37.0,85.0
309,101.29082046250001,101.48673389791666,56.0,87.0
310,101.0023589625,101.51077235625,61.0,90.0
311,101.5792819625,101.88336846041668,63.0,86.0
312,101.5792819625,102.22711841458333,39.0,88.0
313,101.8677434625,102.2427434125,58.0,85.0
314,102.1562049625,102.49274337916667,67.0,88.0
315,102.44466646250001,102.62976259166666,58.0,79.0
316,102.7331279625,103.30524327083333,65.0,83.0
317,103.3100509625,103.67663745208334,60.0,93.0
318,103.5985124625,103.74394513541667,65.0,88.0
319,103.0215894625,104.00596433125,48.0,80.0
320,103.88697396250001,104.0600508625,60.0,88.0
321,102.7331279625,104.139377775,41.0,89.0
322,103.88697396250001,104.20187776666667,68.0,86.0
323,104.1754354625,104.46149311666667,65.0,93.0
324,104.4638969625,104.82687768333334,60.0,88.0
325,104.7523584625,104.86293537083334,65.0,85.0
326,105.0408199625,105.56125258541667,65.0,88.0
327,105.0408199625,105.62014680833333,58.0,80.0
328,105.6177429625,105.90139677083333,61.0,79.0
329,105.9062044625,106.04202175208334,58.0,77.0
330,105.3292814625,106.29202171875001,53.0,80.0
331,106.1946659625,106.86293510416667,58.0,87.0
332,106.48312746250001,107.08649276666667,53.0,82.0
333,105.0408199625,107.12856006875,46.0,87.0
334,106.7715889625,107.12856006875,61.0,88.0
335,106.1946659625,107.13336776041668,65.0,88.0
336,107.0600504625,107.22831967083334,58.0,78.0
337,107.3485119625,107.79923305625,65.0,85.0
338,107.9254349625,108.28000222291666,60.0,89.0
339,108.2138964625,108.35091567500001,65.0,87.0
340,107.63697346250001,108.63817525208333,48.0,81.0
341,107.3485119625,108.90980983125,41.0,81.0
342,108.5023579625,108.91822329166666,60.0,88.0
343,108.7908194625,108.927838675,48.0,76.0
344,108.5023579625,109.07687711666667,68.0,80.0
345,109.07928096250001,109.21509825208334,65.0,87.0
346,109.3677424625,109.46990591041667,63.0,85.0
347,109.6562039625,109.80884817291667,56.0,78.0
348,109.6562039625,109.98192507291667,61.0,84.0
349,109.9446654625,110.25716542083333,56.0,79.0
350,110.2331269625,110.4062038625,61.0,79.0
351,110.5215884625,110.60572306666667,56.0,75.0
352,110.8100499625,110.9903384,56.0,88.0
353,111.0985114625,111.50355948541667,56.0,88.0
354,109.6562039625,111.62855946875,49.0,87.0
355,110.8100499625,111.81846328958333,65.0,89.0
356,111.67543446250001,111.86053059166667,56.0,74.0
357,111.3869729625,111.94827096458334,61.0,90.0
358,111.9638959625,112.80524200416667,63.0,82.0
359,112.5408189625,112.97831890416667,51.0,78.0
360,112.82928046250001,113.01798236041667,55.0,88.0
361,112.2523574625,113.22952079375,46.0,74.0
362,113.4062034625,113.6441842,46.0,83.0
363,111.9638959625,113.65500150625,39.0,89.0
364,113.1177419625,113.74274187916667,55.0,80.0
365,113.1177419625,113.831684175,63.0,89.0
366,113.6946649625,114.04081876250001,51.0,90.0
367,113.9831264625,114.06125145208334,63.0,41.0
368,113.9831264625,114.11053029166666,55.0,84.0
369,114.2715879625,114.62134753125,56.0,82.0
370,114.2715879625,114.6321648375,60.0,88.0
371,114.8485109625,115.22711668125001,56.0,89.0
372,115.1369724625,115.47711664791667,63.0,83.0
373,114.5600494625,115.6417800875,51.0,79.0
374,114.2715879625,115.72471276875001,44.0,87.0
375,115.7138954625,116.10692425625001,56.0,104.0
376,115.4254339625,116.16221271041667,68.0,90.0
377,116.0023569625,116.44466459583333,51.0,88.0
378,116.2908184625,116.46269343958333,56.0,85.0
379,116.57927996250001,116.9831260625,58.0,77.0
380,116.57927996250001,117.05764528333333,62.0,88.0
381,117.1562029625,117.34490486041668,58.0,82.0
382,117.4446644625,117.5888952125,65.0,83.0
383,116.8677414625,117.84610671666667,53.0,88.0
384,116.57927996250001,117.9206259375,46.0,89.0
385,117.7331259625,117.99634708125001,58.0,91.0
386,117.7331259625,118.01918361666667,70.0,89.0
387,118.02158746250001,118.34730857291667,53.0,88.0
388,118.3100489625,118.39418356666667,58.0,85.0
389,118.3100489625,118.47711624791667,62.0,87.0
390,118.3100489625,118.7787989,65.0,89.0
391,118.5985104625,118.78721236041667,58.0,83.0
392,118.8869719625,119.052837325,56.0,87.0
393,118.8869719625,119.29923152291667,61.0,84.0
394,119.1754334625,119.33769305625,56.0,80.0
395,118.8869719625,119.54781331666668,49.0,83.0
396,119.46388054583333,119.56100275208334,56.0,88.0
397,119.46388054583333,119.81280106458334,61.0,87.0
398,119.75165004583334,119.84037897500001,56.0,76.0
399,119.46388054583333,119.95308869583334,65.0,89.0
400,120.03941954583334,120.23846011666667,58.0,80.0
401,120.03941954583334,120.45668532083334,63.0,81.0
402,120.32718904583334,120.56220080416668,58.0,81.0
403,120.03941954583334,120.60656526875,39.0,88.0
404,120.61495854583335,121.02263200416667,63.0,88.0
405,120.61495854583335,121.02263200416667,67.0,87.0
406,120.90272804583334,121.02862720208334,58.0,78.0
407,121.19049754583334,121.80080869375,65.0,82.0
408,121.76603654583334,122.13174361875001,60.0,84.0
409,122.05380604583334,122.21567638958334,65.0,85.0
410,121.47826704583333,122.42311023750001,48.0,75.0
411,121.19049754583334,122.51903340416668,41.0,87.0
412,122.34157554583334,122.70248646041668,60.0,87.0
413,122.62934504583333,122.73126341041667,48.0,85.0
414,122.34157554583334,122.92670686250001,68.0,83.0
415,122.34157554583334,122.97466844583334,65.0,88.0
416,122.91711454583334,123.24685043125001,60.0,87.0
417,123.20488404583334,123.29840913333334,65.0,81.0
418,123.49265354583333,124.05620215,56.0,85.0
419,123.49265354583333,124.12095028750001,60.0,85.0
420,124.06819254583334,124.40752074791668,63.0,83.0
421,124.35596204583334,124.48306024166668,56.0,85.0
422,123.78042304583334,124.7540431875,51.0,77.0
423,124.64373154583333,124.78521821666668,68.0,87.0
424,124.64373154583333,124.81279612708335,56.0,94.0
425,123.49265354583333,124.84876731458334,44.0,87.0
426,124.93150104583334,125.06579347916667,51.0,89.0
427,125.21927054583334,125.33437834583334,56.0,88.0
428,125.50704004583334,125.73605660625,56.0,80.0
429,125.21927054583334,125.79960570416668,63.0,86.0
430,125.79480954583335,126.51183521666667,62.0,88.0
431,126.37034854583334,126.76003641041667,58.0,81.0
432,126.65811804583333,126.83557590416667,65.0,83.0
433,126.94588754583334,127.2288608875,70.0,89.0
434,126.08257904583334,127.34157060833334,53.0,81.0
435,127.23365704583334,127.4734649625,65.0,89.0
436,125.79480954583335,127.49744575416668,46.0,88.0
437,127.52142654583334,127.84516723333334,62.0,89.0
438,127.80919604583335,127.97106638958334,58.0,83.0
439,128.09696554583334,128.22526278125,56.0,86.0
440,128.09696554583334,128.42070623333333,61.0,82.0
441,128.09696554583334,128.56938714166668,49.0,89.0
442,128.38473504583334,128.66890742708335,56.0,79.0
443,128.67250454583333,129.05979433125,65.0,84.0
444,128.96027404583333,129.11135303333333,56.0,78.0
445,129.24804354583335,129.49384666041666,58.0,82.0
446,129.24804354583335,129.61614869791669,63.0,84.0
447,129.53581304583335,129.74564497291666,46.0,76.0
448,129.24804354583335,129.78041712083333,39.0,90.0
449,129.82358254583335,129.90391819791668,58.0,77.0
450,130.11135204583334,130.21566848958335,58.0,79.0
451,129.82358254583335,130.23725120208334,67.0,80.0
452,129.82358254583335,130.24804255833334,63.0,84.0
453,130.39912154583334,130.75883342083335,60.0,76.0
454,130.39912154583334,131.02382116875,65.0,82.0
455,130.97466054583333,131.34995993541668,60.0,78.0
456,131.26243004583336,131.40511575625,65.0,80.0
457,131.55019954583335,131.88952774791667,68.0,82.0
458,131.83796904583335,132.23365210833333,65.0,79.0
459,130.68689104583333,132.3859301354167,48.0,74.0
460,130.39912154583334,132.46506674791667,41.0,87.0
461,132.12573854583334,132.68089387291667,60.0,78.0
462,132.41350804583334,132.69288426875002,65.0,82.0
463,132.72652657708335,133.19888228333335,65.0,92.0
464,132.69528234791667,133.25056496875,60.0,83.0
465,132.65331596250002,133.27099765833336,56.0,83.0
466,132.57897550833334,133.28542073333335,53.0,77.0
467,134.37316097291668,134.52460326041668,53.0,74.0
468,134.65921862708336,134.79143014791669,53.0,83.0
469,134.6616224729167,134.79263207083335,60.0,80.0
470,136.13157420000002,136.21450688125003,53.0,74.0
471,136.13517996875,136.46570877083334,65.0,76.0
472,136.4068145479167,136.47652607708335,53.0,71.0
473,136.12195881666668,136.47652607708335,60.0,76.0
474,134.23133406875002,136.63157413333334,48.0,31.0
475,132.66890347708335,136.70969912291667,41.0,91.0
476,137.28782404583336,137.39719903125,37.0,87.0
477,137.21931443958334,137.8551316625,61.0,75.0
478,137.29263173750002,137.8599393541667,65.0,84.0
479,137.16282406250002,137.86594896875002,56.0,66.0
480,138.16162200625,138.22892968958337,56.0,64.0
481,138.72292000833335,138.97532382083335,65.0,72.0
482,138.73493923750001,138.9801315125,61.0,76.0
483,138.73373731458335,138.9957565104167,56.0,62.0
484,139.35513146250003,139.43806414375,56.0,52.0
485,139.60392950625,139.73614102708336,56.0,70.0
486,139.60392950625,139.76739102291668,61.0,70.0
487,139.60993912083336,140.32388133333336,49.0,71.0
488,141.04263123750002,141.1303716104167,56.0,75.0
489,141.0402273916667,141.32267927708335,61.0,78.0
490,141.31306389375,141.4032081125,56.0,86.0
491,141.75537152708335,141.93565996458335,53.0,79.0
492,141.81787151875002,142.14239070625,56.0,81.0
493,141.8767657416667,142.15681378125004,60.0,81.0
494,141.89840035416668,142.20008300625003,65.0,91.0
495,142.46570797083336,142.58590026250002,53.0,79.0
496,142.76258293125002,142.89479445208335,60.0,76.0
497,142.76859254583334,142.89840022083337,53.0,78.0
498,143.34551554583336,143.64960204375,60.0,74.0
499,143.6111405104167,144.01739045625,53.0,77.0
500,143.94046738958335,144.10633275208335,60.0,73.0
501,144.20489043125002,144.4392654,65.0,88.0
502,144.47171731875002,144.63157306666668,53.0,75.0
503,142.1976791604167,145.5402267916667,48.0,72.0
504,145.4176306541667,145.71210176875002,56.0,79.0
505,145.6339767791667,145.7854190666667,53.0,86.0
506,145.4176306541667,145.82267867708336,60.0,82.0
507,141.88758304791668,146.0017651916667,41.0,90.0
508,145.90921712708337,146.00777480625,48.0,79.0
509,146.51739012291668,146.6219574166667,37.0,88.0
510,146.4236401354167,146.69527471458335,56.0,73.0
511,146.48253435833337,146.83589969583335,61.0,81.0
512,146.52940935208335,146.87315930625002,65.0,83.0
513,146.78902470208337,146.94527468125003,56.0,73.0
514,147.6712361229167,147.80945725833337,56.0,81.0
515,147.67363996875002,147.83950533125002,65.0,86.0
516,147.95128416250003,148.29984180833335,61.0,71.0
517,148.24214950833334,148.37315910625003,56.0,67.0
518,148.54503408333335,149.76738968958335,56.0,73.0
519,148.53301485416668,149.82388006666667,61.0,78.0
520,149.6904666229167,150.0582550354167,49.0,73.0
521,149.99455312083336,150.4296492166667,56.0,84.0
522,149.9969569666667,150.6856587979167,61.0,84.0
523,150.25777423958334,150.75296648125,49.0,80.0
524,150.5919088104167,150.75416840416668,56.0,68.0
525,154.04743719583337,155.02219668125002,53.0,89.0
526,154.33589869583335,155.08710051875002,60.0,82.0
527,154.91282169583334,155.2253216541667,65.0,87.0
528,153.75897569583336,155.25416780416668,48.0,80.0
529,153.47051419583335,155.27099472500004,41.0,89.0
530,155.77820619583335,156.13517730208335,56.0,78.0
531,155.77820619583335,156.47892725625002,65.0,86.0
532,155.77820619583335,156.55585032291668,37.0,82.0
533,156.06666769583336,156.58469647291668,44.0,75.0
534,156.35512919583334,156.68325415208335,56.0,79.0
535,156.93205219583336,157.30945599166668,58.0,77.0
536,157.22051369583335,157.51738865625003,46.0,74.0
537,156.93205219583336,157.5282059625,63.0,81.0
538,156.93205219583336,157.55224442083335,39.0,88.0
539,157.50897519583336,157.88517706875,58.0,86.0
540,157.79743669583337,158.02339820416668,63.0,84.0
541,158.66282119583335,159.05224422083336,53.0,82.0
542,158.08589819583335,159.12315767291668,65.0,86.0
543,158.95128269583336,159.14359036250002,60.0,81.0
544,159.52820569583335,159.7433498979167,56.0,76.0
545,158.08589819583335,160.232532525,41.0,86.0
546,158.37435969583336,160.25056136875003,48.0,69.0
547,160.10512869583334,160.97772473333336,65.0,89.0
548,160.97051319583335,161.74815732291668,53.0,87.0
549,160.68205169583337,161.7770034729167,48.0,74.0
550,160.39359019583335,161.79984000833335,41.0,85.0
551,161.83589769583335,162.2133014916667,60.0,81.0
552,162.12435919583336,162.23253225833335,53.0,86.0
553,161.25897469583336,162.23253225833335,65.0,88.0
554,162.70128219583336,163.03301292083336,56.0,78.0
555,162.70128219583336,163.12075329375003,63.0,77.0
556,163.27820519583335,163.70368590833334,56.0,84.0
557,163.56666669583336,163.780608975,68.0,82.0
558,162.98974369583334,164.36714735833334,51.0,78.0
559,162.70128219583336,164.42243581250003,44.0,87.0
560,164.14358969583336,164.52940695208335,63.0,80.0
561,165.00897419583336,165.33469530625,58.0,73.0
562,165.00897419583336,165.69407025833334,63.0,83.0
563,165.58589719583335,165.8010413979167,58.0,81.0
564,165.87435869583337,166.52700283958336,67.0,81.0
565,165.29743569583337,166.76979126875003,46.0,74.0
566,165.00897419583336,166.8106566479167,39.0,89.0
567,166.45128169583336,166.8358970291667,63.0,86.0
568,167.31666619583336,167.68445460833334,60.0,79.0
569,167.89358919583336,167.9933487979167,60.0,74.0
570,167.31666619583336,168.00897379583336,65.0,85.0
571,168.18205069583337,168.30825260208337,65.0,88.0
572,168.18205069583337,168.31666606250002,60.0,84.0
573,167.60512769583335,169.44046398958335,48.0,73.0
574,167.31666619583336,169.45608898750004,41.0,87.0
575,169.33589669583336,169.92724277083335,60.0,75.0
576,169.62435819583334,170.2253196541667,65.0,81.0
577,170.20128119583336,170.33469463958335,60.0,73.0
578,170.48974269583334,170.58469460625003,65.0,80.0
579,170.48974269583334,170.66402151875002,60.0,83.0
580,170.48974269583334,170.73253112500004,68.0,83.0
581,169.62435819583334,171.5053675604167,41.0,88.0
582,169.91281969583335,171.53661755625,48.0,74.0
583,171.35512719583335,171.58950216458334,65.0,87.0
584,171.64358869583336,171.75055983541668,60.0,80.0
585,171.93205019583337,172.28902130208337,56.0,82.0
586,171.93205019583337,172.36233860000002,60.0,82.0
587,172.50897319583336,172.62916548750002,56.0,80.0
588,172.79743469583335,172.9296462166667,56.0,87.0
589,172.79743469583335,172.9332519854167,63.0,85.0
590,173.37435769583334,173.4777230666667,60.0,85.0
591,173.37435769583334,173.48373268125002,56.0,83.0
592,172.22051169583335,173.5173865229167,51.0,75.0
593,171.93205019583337,173.54142498125003,44.0,87.0
594,174.23974219583334,174.59070368750002,58.0,74.0
595,174.23974219583334,174.82387673333335,63.0,79.0
596,174.81666519583337,174.94767479375002,58.0,76.0
597,175.10512669583335,175.2661843666667,58.0,78.0
598,175.10512669583335,175.33709781875,67.0,78.0
599,174.52820369583335,175.45128049583334,46.0,61.0
600,174.23974219583334,175.5113766416667,39.0,88.0
601,175.68204969583337,175.96329965833337,63.0,80.0
602,175.97051119583335,176.06065541458335,58.0,72.0
603,176.54743419583335,176.69166494583334,56.0,75.0
604,176.54743419583335,176.90320337916668,61.0,78.0
605,176.83589569583336,177.20248218541667,56.0,66.0
606,177.12435719583334,177.26017448541668,61.0,80.0
607,176.54743419583335,178.09911668125002,49.0,81.0
608,177.98974169583335,178.58829930833335,63.0,83.0
609,178.27820319583336,178.59190507708337,49.0,81.0
610,178.56666469583337,178.7349339041667,56.0,78.0
611,178.85512619583335,179.15440500208337,56.0,80.0
612,178.85512619583335,179.46089534583336,60.0,81.0
613,179.43204919583337,179.82147222083336,56.0,83.0
614,179.72051069583335,179.90801067083336,60.0,88.0
615,179.14358769583336,180.4188279104167,51.0,77.0
616,180.29743369583335,180.57027019791667,56.0,83.0
617,180.29743369583335,180.64118365000002,63.0,83.0
618,178.85512619583335,180.71930863958335,44.0,84.0
619,180.58589519583336,180.7613759416667,51.0,81.0
620,181.16281819583335,181.45608738750002,58.0,78.0
621,181.16281819583335,181.7745969604167,65.0,86.0
622,181.73974119583335,181.87075079375,58.0,83.0
623,182.02820269583336,182.42243341250003,58.0,79.0
624,182.02820269583336,182.42964495,61.0,82.0
625,182.60512569583335,182.75656798333335,58.0,76.0
626,182.60512569583335,182.77339490416668,65.0,84.0
627,181.16281819583335,182.78541413333335,46.0,88.0
628,181.45127969583336,182.81426028333334,53.0,79.0
629,183.47051019583336,183.8118563041667,60.0,74.0
630,183.47051019583336,184.01017358541668,63.0,82.0
631,184.04743319583335,184.3887793041667,60.0,82.0
632,183.75897169583334,184.72531772083335,55.0,78.0
633,184.33589469583336,184.98493307083336,67.0,78.0
634,183.47051019583336,185.06425998333336,48.0,84.0
635,184.62435619583334,185.19887535000004,63.0,83.0
636,184.91281769583335,185.25296188125003,60.0,89.0
637,185.20127919583337,185.31666379583336,55.0,82.0
638,185.48974069583335,185.88726001458335,60.0,83.0
639,185.77814741250003,186.14265544583336,65.0,82.0
640,186.06591691250003,186.94841004583336,60.0,80.0
641,187.2169949125,187.56471639166668,60.0,76.0
642,186.35368641250002,187.58390102500002,48.0,77.0
643,187.5047644125,187.85368493125003,65.0,83.0
644,186.92922541250002,187.85728205,68.0,81.0
645,187.79253391250003,187.87766572291667,60.0,62.0
646,185.77814741250003,187.89325323750003,41.0,83.0
647,188.08030341250003,188.43402008958336,60.0,79.0
648,188.08030341250003,188.72059055000003,65.0,85.0
649,188.65584241250002,188.75416365833334,60.0,72.0
650,188.36807291250003,189.09588993958334,48.0,74.0
651,188.94361191250002,189.56231633750002,60.0,83.0
652,188.94361191250002,189.74936651250002,65.0,84.0
653,188.94361191250002,189.77214826458336,68.0,82.0
654,188.08030341250003,189.79493001666668,41.0,90.0
655,189.5191509125,189.80811945208336,48.0,80.0
656,189.8069204125,189.88725606458334,60.0,77.0
657,190.38245941250003,190.98317824375002,60.0,87.0
658,190.38245941250003,191.05152350000003,63.0,87.0
659,190.38245941250003,191.30092373333335,67.0,87.0
660,191.2457679125,191.62106730208336,60.0,75.0
661,190.95799841250002,191.64504809375,55.0,77.0
662,191.8213069125,192.0683090666667,55.0,75.0
663,190.38245941250003,192.3560785666667,48.0,91.0
664,191.5335374125,192.389651675,67.0,91.0
665,192.10907641250003,192.51555083125,60.0,87.0
666,192.39684591250003,192.72058660000002,63.0,83.0
667,192.68461541250002,193.37166509375,65.0,88.0
668,193.26015441250001,193.64144900000002,61.0,78.0
669,192.97238491250002,193.71459041458334,56.0,75.0
670,193.5479239125,194.19900240625003,68.0,74.0
671,192.68461541250002,194.48317478750002,49.0,87.0
672,194.41123241250003,194.52753925208336,56.0,83.0
673,194.12346291250003,194.73017694166668,65.0,89.0
674,194.69900191250002,194.8452847416667,61.0,76.0
675,194.98677141250002,195.62226239166668,63.0,84.0
676,195.5623104125,195.93880884166668,58.0,80.0
677,195.27454091250002,196.17741771875,46.0,74.0
678,194.98677141250002,196.34408422083337,39.0,87.0
679,195.8500799125,196.50355648541668,67.0,91.0
680,196.42561891250003,196.81530677708335,63.0,88.0
681,196.71338841250002,196.95439536875003,58.0,81.0
682,197.28892741250002,197.95919053958335,65.0,88.0
683,197.8644664125,198.03353099375002,60.0,74.0
684,198.15223591250003,198.2985187416667,60.0,80.0
685,198.15223591250003,198.77453745625002,68.0,87.0
686,197.5766969125,198.90523277083335,48.0,75.0
687,197.28892741250002,198.92082028541668,41.0,87.0
688,198.72777491250002,199.0251367291667,65.0,89.0
689,199.01554441250002,199.14144356875002,60.0,83.0
690,199.5911151291667,199.8867881666667,58.0,79.0
691,199.5911151291667,200.20890350833335,65.0,84.0
692,200.1680381291667,200.34231695208337,58.0,80.0
693,199.8795766291667,200.60313422500002,53.0,76.0
694,199.5911151291667,200.9000091854167,46.0,87.0
695,200.4564996291667,201.33149951250002,61.0,88.0
696,201.0334226291667,201.36755720000002,53.0,78.0
697,201.3218841291667,201.67284562083336,58.0,77.0
698,201.6103456291667,201.7726052229167,61.0,76.0
699,201.8988071291667,202.1259705604167,56.0,80.0
700,201.8988071291667,202.2593840041667,61.0,86.0
701,202.1872686291667,202.57188396250004,56.0,80.0
702,202.4757301291667,202.67044164166668,61.0,80.0
703,202.7641916291667,202.91683583958337,65.0,93.0
704,201.8988071291667,203.05024928333336,49.0,86.0
705,203.3411146291667,203.61755690000004,61.0,84.0
706,203.6295761291667,203.7557780354167,56.0,87.0
707,204.2064991291667,204.76058559375002,63.0,83.0
708,204.7834221291667,204.9709221041667,60.0,76.0
709,204.2064991291667,205.00938363750004,56.0,81.0
710,205.0718836291667,205.39039320208337,68.0,89.0
711,204.49496062916668,205.77020084375002,51.0,78.0
712,204.2064991291667,205.9552969729167,44.0,83.0
713,205.6488066291667,206.0490469604167,63.0,88.0
714,205.93726812916668,206.13438348750003,56.0,91.0
715,206.2257296291667,206.34592192083338,51.0,88.0
716,206.5141911291667,206.81106608958336,58.0,80.0
717,206.5141911291667,207.1019314354167,61.0,82.0
718,207.0911141291667,207.46491215625002,58.0,82.0
719,206.5141911291667,207.48173907708338,46.0,88.0
720,206.8026526291667,207.53221983958338,53.0,80.0
721,207.3795756291667,207.57909483333336,61.0,86.0
722,207.6680371291667,208.02981592708335,60.0,83.0
723,207.9564986291667,208.08871015000003,55.0,91.0
724,207.6680371291667,208.24015243750003,63.0,83.0
725,207.6680371291667,208.52380624583336,48.0,89.0
726,208.24496012916669,208.5875081604167,60.0,94.0
727,208.5334216291667,208.81707543750002,63.0,92.0
728,208.8218831291667,209.43245997083335,65.0,87.0
729,209.3988061291667,209.52981572708336,60.0,75.0
730,209.68726762916668,209.80745992083337,60.0,82.0
731,209.68726762916668,209.8206810729167,68.0,81.0
732,210.2641906291667,210.35673869375003,65.0,81.0
733,210.2641906291667,210.36995984583336,60.0,77.0
734,209.1103446291667,210.61515212083336,48.0,72.0
735,208.8218831291667,210.9564982291667,41.0,89.0
736,211.1295751291667,211.4577000854167,60.0,78.0
737,211.1295751291667,211.74375773958337,65.0,84.0
738,211.7064981291667,211.80625773125004,60.0,75.0
739,211.4180366291667,212.1319788416667,48.0,73.0
740,211.9949596291667,212.16202691458335,60.0,88.0
741,211.9949596291667,212.16322883750001,68.0,87.0
742,212.5718826291667,213.18245947083335,65.0,90.0
743,211.1295751291667,213.30144983958337,41.0,88.0
744,212.8603441291667,213.33390175833335,48.0,80.0
745,213.1488056291667,213.37476713750004,60.0,89.0
746,213.43726712916668,213.88919014583337,63.0,84.0
747,213.43726712916668,213.91803629583336,56.0,86.0
748,214.0141901291667,214.3278920104167,60.0,87.0
749,214.3026516291667,214.37596892708336,63.0,88.0
750,213.7257286291667,214.6668342729167,51.0,82.0
751,213.43726712916668,214.72933426458337,44.0,88.0
752,214.5911131291667,214.78101695000004,56.0,89.0
753,214.5911131291667,214.8471227104167,68.0,88.0
754,215.1680361291667,215.26298803958338,56.0,82.0
755,214.87957462916668,215.2798149604167,51.0,82.0
756,215.4564976291667,215.77260335625004,56.0,84.0
757,215.1680361291667,215.79423796875002,63.0,83.0
758,215.7449591291667,216.41082442500004,62.0,79.0
759,216.6103436291667,216.6464013166667,62.0,54.0
760,216.32188212916668,216.84712244375004,58.0,86.0
761,216.6103436291667,216.9240455104167,65.0,87.0
762,216.0334206291667,217.14159355833337,53.0,82.0
763,215.7449591291667,217.21731470208337,46.0,89.0
764,216.8988051291667,217.5298146604167,70.0,91.0
765,217.1872666291667,217.53101658333335,65.0,88.0
766,217.4757281291667,217.80866077708336,62.0,89.0
767,217.7641896291667,217.9480838354167,58.0,84.0
768,218.0526511291667,218.30265109583337,56.0,86.0
769,218.0526511291667,218.4673145354167,61.0,84.0
770,218.3411126291667,218.9324587041667,44.0,73.0
771,218.0526511291667,218.96971831458336,37.0,85.0
772,218.9180356291667,219.11394906458335,56.0,87.0
773,218.62957412916668,219.1379875229167,61.0,90.0
774,219.2064971291667,219.51058362708335,63.0,86.0
775,219.2064971291667,219.85433358125002,39.0,88.0
776,219.4949586291667,219.8699585791667,58.0,85.0
777,219.7834201291667,220.11995854583336,67.0,88.0
778,220.07188162916668,220.25697775833336,58.0,79.0
779,220.3603431291667,220.93245843750003,65.0,83.0
780,220.9372661291667,221.30385261875003,60.0,93.0
781,221.2257276291667,221.37116030208335,65.0,88.0
782,220.6488046291667,221.6331794979167,48.0,80.0
783,221.5141891291667,221.6872660291667,60.0,88.0
784,220.3603431291667,221.7665929416667,41.0,89.0
785,221.5141891291667,221.82909293333336,68.0,86.0
786,221.8026506291667,222.08870828333335,65.0,93.0
787,222.0911121291667,222.45409285000002,60.0,88.0
788,222.37957362916669,222.49015053750003,65.0,85.0
789,222.6680351291667,223.18846775208337,65.0,88.0
790,222.6680351291667,223.24736197500002,58.0,80.0
791,223.2449581291667,223.52861193750002,61.0,79.0
792,223.5334196291667,223.66923691875002,58.0,77.0
793,222.9564966291667,223.9192368854167,53.0,80.0
794,223.82188112916668,224.49015027083337,58.0,87.0
795,224.1103426291667,224.71370793333335,53.0,82.0
796,222.6680351291667,224.7557752354167,46.0,87.0
797,224.3988041291667,224.7557752354167,61.0,88.0
798,223.82188112916668,224.76058292708336,65.0,88.0
799,224.6872656291667,224.85553483750004,58.0,78.0
800,224.9757271291667,225.4264482229167,65.0,85.0
801,225.5526501291667,225.90721738958337,60.0,89.0
802,225.8411116291667,225.9781308416667,65.0,87.0
803,225.2641886291667,226.26539041875003,48.0,81.0
804,224.9757271291667,226.5370249979167,41.0,81.0
805,226.1295731291667,226.54543845833336,60.0,88.0
806,226.4180346291667,226.5550538416667,48.0,76.0
807,226.1295731291667,226.70409228333335,68.0,80.0
808,226.70649612916668,226.84231341875002,65.0,87.0
809,226.9949576291667,227.09712107708336,63.0,85.0
810,227.2834191291667,227.43606333958337,56.0,78.0
811,227.2834191291667,227.60914023958335,61.0,84.0
812,227.57188062916669,227.88438058750003,56.0,79.0
813,227.8603421291667,228.03341902916668,61.0,79.0
814,228.1488036291667,228.23293823333336,56.0,75.0
815,228.4372651291667,228.6175535666667,56.0,88.0
816,228.7257266291667,229.13077465208337,56.0,88.0
817,227.2834191291667,229.25577463541669,49.0,87.0
818,228.4372651291667,229.44567845625002,65.0,89.0
819,229.3026496291667,229.48774575833335,56.0,74.0
820,229.01418812916668,229.57548613125002,61.0,90.0
821,229.5911111291667,230.43245717083337,63.0,82.0
822,230.1680341291667,230.60553407083336,51.0,78.0
823,230.45649562916668,230.64519752708335,55.0,88.0
824,229.8795726291667,230.8567359604167,46.0,74.0
825,231.0334186291667,231.27139936666669,46.0,83.0
826,229.5911111291667,231.2822166729167,39.0,89.0
827,230.7449571291667,231.36995704583336,55.0,80.0
828,230.7449571291667,231.4588993416667,63.0,89.0
829,231.3218801291667,231.6680339291667,51.0,90.0
830,231.6103416291667,231.68846661875003,63.0,41.0
831,231.6103416291667,231.73774545833336,55.0,84.0
832,231.8988031291667,232.2485626979167,56.0,82.0
833,231.8988031291667,232.2593800041667,60.0,88.0
834,232.4757261291667,232.85433184791668,56.0,89.0
835,232.7641876291667,233.10421648125003,63.0,83.0
836,232.1872646291667,233.26848490416668,51.0,79.0
837,231.8988031291667,233.3512186354167,44.0,87.0
838,233.34042727916668,233.73251322291668,56.0,104.0
839,233.0526491291667,233.78766904375001,68.0,90.0
840,233.6281967791667,234.06944334583335,51.0,88.0
841,233.9159662791667,234.08742893958336,56.0,85.0
842,234.2037357791667,234.6066130791667,58.0,77.0
843,234.2037357791667,234.68095353333337,62.0,88.0
844,234.77927477916668,234.96752399375004,58.0,82.0
845,235.06704427916668,235.2109290291667,65.0,83.0
846,234.4915052791667,235.46752350000003,53.0,88.0
847,234.2037357791667,235.5418639541667,46.0,89.0
848,235.35481377916668,235.6174034479167,58.0,91.0
849,235.35481377916668,235.64018520000002,70.0,89.0
850,235.6425832791667,235.96752300625002,53.0,88.0
851,235.9303527791667,236.01428555,58.0,85.0
852,235.9303527791667,236.09701928125003,62.0,87.0
853,235.9303527791667,236.3979782166667,65.0,89.0
854,236.2181222791667,236.40637149375002,58.0,83.0
855,236.5058917791667,236.6713592416667,56.0,87.0
856,236.5058917791667,236.91716235625003,61.0,84.0
857,236.79366127916668,236.95553162291668,56.0,80.0
858,236.5058917791667,237.16536355000002,49.0,83.0
859,237.08143077916668,237.1785529854167,56.0,88.0
860,237.08143077916668,237.4303512979167,61.0,87.0
861,237.36920027916668,237.45792920833335,56.0,76.0
862,237.08143077916668,237.57063892916668,65.0,89.0
863,237.6569697791667,237.85601035000002,58.0,80.0
864,237.6569697791667,238.07423555416668,63.0,81.0
865,237.9447392791667,238.1797510375,58.0,81.0
866,237.6569697791667,238.22411550208335,39.0,88.0
867,238.2325087791667,238.64018223750003,63.0,88.0
868,238.2325087791667,238.64018223750003,67.0,87.0
869,238.5202782791667,238.6461774354167,58.0,78.0
870,238.80804777916669,239.41835892708335,65.0,82.0
871,239.38358677916668,239.74929385208335,60.0,84.0
872,239.6713562791667,239.8332266229167,65.0,85.0
873,239.09581727916668,240.04066047083336,48.0,75.0
874,238.80804777916669,240.13658363750002,41.0,87.0
875,239.9591257791667,240.32003669375,60.0,87.0
876,240.2468952791667,240.34881364375002,48.0,85.0
877,239.9591257791667,240.54425709583336,68.0,83.0
878,239.9591257791667,240.59221867916668,65.0,88.0
879,240.5346647791667,240.86440066458334,60.0,87.0
880,240.82243427916669,240.9159593666667,65.0,81.0
881,241.11020377916668,241.67375238333335,56.0,85.0
882,241.11020377916668,241.73850052083336,60.0,85.0
883,241.6857427791667,242.02507098125002,63.0,83.0
884,241.9735122791667,242.10061047500002,56.0,85.0
885,241.39797327916668,242.37159342083336,51.0,77.0
886,242.2612817791667,242.40276845000002,68.0,87.0
887,242.2612817791667,242.43034636041668,56.0,94.0
888,241.11020377916668,242.4663175479167,44.0,87.0
889,242.5490512791667,242.68334371250003,51.0,89.0
890,242.8368207791667,242.9519285791667,56.0,88.0
891,243.12459027916668,243.35360683958336,56.0,80.0
892,242.8368207791667,243.4171559375,63.0,86.0
893,243.41235977916668,244.12938545000003,62.0,88.0
894,243.9878987791667,244.37758664375002,58.0,81.0
895,244.2756682791667,244.45312613750002,65.0,83.0
896,244.5634377791667,244.84641112083335,70.0,89.0
897,243.70012927916667,244.95912084166667,53.0,81.0
898,244.8512072791667,245.09101519583336,65.0,89.0
899,243.41235977916668,245.11499598750004,46.0,88.0
900,245.13897677916668,245.46271746666667,62.0,89.0
901,245.42674627916668,245.58861662291667,58.0,83.0
902,245.7145503791667,245.84315613125003,56.0,86.0
903,245.7145503791667,246.0390695666667,61.0,82.0
904,245.7145503791667,246.18810800833336,49.0,89.0
905,246.0030118791667,246.2878676104167,56.0,79.0
906,246.2914733791667,246.67969448125004,65.0,84.0
907,246.5799348791667,246.7313771666667,56.0,78.0
908,246.8683963791667,247.11479057708337,58.0,82.0
909,246.8683963791667,247.23738671458335,63.0,84.0
910,247.1568578791667,247.36719438958337,46.0,76.0
911,246.8683963791667,247.4020501541667,39.0,90.0
912,247.4453193791667,247.52584821458336,58.0,77.0
913,247.7337808791667,247.8383481729167,58.0,79.0
914,247.4453193791667,247.8599827854167,67.0,80.0
915,247.4453193791667,247.8708000916667,63.0,84.0
916,248.0222423791667,248.3828192541667,60.0,76.0
917,248.0222423791667,248.64844421875003,65.0,82.0
918,248.5991653791667,248.97536725208337,60.0,78.0
919,248.8876268791667,249.03065570625003,65.0,80.0
920,249.17608837916669,249.51623256458336,68.0,82.0
921,249.4645498791667,249.8611844416667,65.0,79.0
922,248.3107038791667,250.01382865208336,48.0,74.0
923,248.0222423791667,250.09315556458336,41.0,87.0
924,249.7530113791667,250.30950168958336,60.0,78.0
925,250.0414728791667,250.32152091875002,65.0,82.0
926,250.3299343791667,250.78185739583336,63.0,84.0
927,250.3299343791667,250.81070354583338,56.0,86.0
928,250.9068573791667,251.2205592604167,60.0,87.0
929,251.1953188791667,251.26863617708335,63.0,88.0
930,250.6183958791667,251.5595015229167,51.0,82.0
931,250.3299343791667,251.62200151458336,44.0,88.0
932,251.4837803791667,251.67368420000003,56.0,89.0
933,251.4837803791667,251.7397899604167,68.0,88.0
934,252.0607033791667,252.15565528958336,56.0,82.0
935,251.7722418791667,252.1724822104167,51.0,82.0
936,252.3491648791667,252.66527060625003,56.0,84.0
937,252.0607033791667,252.68690521875004,63.0,83.0
938,252.6376263791667,253.30349167500003,62.0,79.0
939,253.5030108791667,253.53906856666669,62.0,54.0
940,253.2145493791667,253.73978969375003,58.0,86.0
941,253.5030108791667,253.8167127604167,65.0,87.0
942,252.9260878791667,254.03426080833336,53.0,82.0
943,252.6376263791667,254.10998195208336,46.0,89.0
944,253.7914723791667,254.4224819104167,70.0,91.0
945,254.0799338791667,254.42368383333337,65.0,88.0
946,254.3683953791667,254.70132802708338,62.0,89.0
947,254.6568568791667,254.84075108541668,58.0,84.0
948,254.9453183791667,255.19531834583336,56.0,86.0
949,254.9453183791667,255.3599817854167,61.0,84.0
950,255.2337798791667,255.8251259541667,44.0,73.0
951,254.9453183791667,255.86238556458338,37.0,85.0
952,255.8107028791667,256.00661631458337,56.0,87.0
953,255.5222413791667,256.0306547729167,61.0,90.0
954,256.0991643791667,256.40325087708334,63.0,86.0
955,256.0991643791667,256.74700083125003,39.0,88.0
956,256.3876258791667,256.7626258291667,58.0,85.0
957,256.6760873791667,257.01262579583334,67.0,88.0
958,256.9645488791667,257.1496450083334,58.0,79.0
959,257.2530103791667,257.8251256875,65.0,83.0
960,257.8299333791667,258.19651986875004,60.0,93.0
961,258.1183948791667,258.26382755208334,65.0,88.0
962,257.5414718791667,258.5258467479167,48.0,80.0
963,258.4068563791667,258.5799332791667,60.0,88.0
964,257.2530103791667,258.6592601916667,41.0,89.0
965,258.4068563791667,258.72176018333334,68.0,86.0
966,258.6953178791667,258.9813755333334,65.0,93.0
967,258.9837793791667,259.34676010000004,60.0,88.0
968,259.2722408791667,259.3828177875,65.0,85.0
969,259.5607023791667,260.0811350020834,65.0,88.0
970,259.5607023791667,260.14002922500003,58.0,80.0
971,260.1376253791667,260.42127918750003,61.0,79.0
972,260.4260868791667,260.56190416875006,58.0,77.0
973,259.8491638791667,260.8119041354167,53.0,80.0
974,260.7145483791667,261.3828175208334,58.0,87.0
975,261.0030098791667,261.60637518333334,53.0,82.0
976,259.5607023791667,261.6484424854167,46.0,87.0
977,261.2914713791667,261.6484424854167,61.0,88.0
978,260.7145483791667,261.65325017708335,65.0,88.0
979,261.5799328791667,261.74820208750003,58.0,78.0
980,261.8683943791667,262.3191154729167,65.0,85.0
981,262.4453173791667,262.79988463958335,60.0,89.0
982,262.7337788791667,262.8707980916667,65.0,87.0
983,262.1568558791667,263.15805766875,48.0,81.0
984,261.8683943791667,263.4296922479167,41.0,81.0
985,263.0222403791667,263.43810570833335,60.0,88.0
986,263.3107018791667,263.4477210916667,48.0,76.0
987,263.0222403791667,263.59675953333334,68.0,80.0
988,263.5991633791667,263.73498066875004,65.0,87.0
989,263.8876248791667,263.9897883270834,63.0,85.0
990,264.1760863791667,264.32873058958336,56.0,78.0
991,264.1760863791667,264.50180748958337,61.0,84.0
992,264.4645478791667,264.77704783750005,56.0,79.0
993,264.7530093791667,264.9260862791667,61.0,79.0
994,265.0414708791667,265.12560548333335,56.0,75.0
995,265.3299323791667,265.5102208166667,56.0,88.0
996,265.6183938791667,266.0234419020834,56.0,88.0
997,264.1760863791667,266.1484418854167,49.0,87.0
998,265.3299323791667,266.33834570625004,65.0,89.0
999,266.1953168791667,266.3804130083334,56.0,74.0
1000,265.9068553791667,266.46815338125003,61.0,90.0
1001,266.4837783791667,267.3251244208334,63.0,82.0
1002,267.0607013791667,267.49820132083335,51.0,78.0
1003,267.34916287916667,267.53786477708337,55.0,88.0
1004,266.7722398791667,267.7494032104167,46.0,74.0
1005,267.9260858791667,268.1640666166667,46.0,83.0
1006,266.4837783791667,268.1748839229167,39.0,89.0
1007,267.6376243791667,268.26262429583335,55.0,80.0
1008,267.6376243791667,268.3515665916667,63.0,89.0
1009,268.2145473791667,268.5607011791667,51.0,90.0
1010,268.5030088791667,268.58113386875004,63.0,41.0
1011,268.5030088791667,268.6304127083334,55.0,84.0
1012,268.7914703791667,269.1412299479167,56.0,82.0
1013,268.7914703791667,269.1520472541667,60.0,88.0
1014,269.3683933791667,269.7469990979167,56.0,89.0
1015,269.6568548791667,269.99699906458335,63.0,83.0
1016,269.0799318791667,270.1616625041667,51.0,79.0
1017,268.7914703791667,270.2445951854167,44.0,87.0
1018,270.2337778791667,270.6268066729167,56.0,104.0
1019,269.9453163791667,270.68209512708336,68.0,90.0
1020,270.5222393791667,270.9645470125,51.0,88.0
1021,270.8107008791667,270.98257585625004,56.0,85.0
1022,271.0991623791667,271.5030084791667,58.0,77.0
1023,271.0991623791667,271.5775277,62.0,88.0
1024,271.6760853791667,271.86478727708334,58.0,82.0
1025,271.9645468791667,272.1087776291667,65.0,83.0
1026,271.3876238791667,272.36598913333336,53.0,88.0
1027,271.0991623791667,272.4405083541667,46.0,89.0
1028,272.2530083791667,272.5162294979167,58.0,91.0
1029,272.2530083791667,272.53906603333337,70.0,89.0
1030,272.5414698791667,272.8671909895834,53.0,88.0
1031,272.8299313791667,272.9140659833334,58.0,85.0
1032,272.8299313791667,272.9969986645834,62.0,87.0
1033,272.8299313791667,273.2986813166667,65.0,89.0
1034,273.1183928791667,273.30709477708336,58.0,83.0
1035,273.4068543791667,273.5727197416667,56.0,87.0
1036,273.4068543791667,273.81911393958336,61.0,84.0
1037,273.6953158791667,273.8575754729167,56.0,80.0
1038,273.4068543791667,274.0679119833334,49.0,83.0
1039,273.9837773791667,274.0811331354167,56.0,88.0
1040,273.9837773791667,274.3335369479167,61.0,87.0
1041,274.2722388791667,274.361181175,56.0,76.0
1042,273.9837773791667,274.4741619291667,65.0,89.0
1043,274.5607003791667,274.76021958333337,58.0,80.0
1044,274.5607003791667,274.9789695541667,63.0,81.0
1045,274.8491618791667,275.0847387708334,58.0,81.0
1046,274.5607003791667,275.12920991875,39.0,88.0
1047,275.1376233791667,275.5462771708334,63.0,88.0
1048,275.1376233791667,275.5462771708334,67.0,87.0
1049,275.4260848791667,275.5522867854167,58.0,78.0
1050,275.7145463791667,276.32632514375,65.0,82.0
1051,276.2914693791667,276.65805586875,60.0,84.0
1052,276.5799308791667,276.7421904729167,65.0,85.0
1053,276.0030078791667,276.95012313750004,48.0,75.0
1054,275.7145463791667,277.0462769708334,41.0,87.0
1055,276.8683923791667,277.2301711770834,60.0,87.0
1056,277.1568538791667,277.25901732708337,48.0,85.0
1057,276.8683923791667,277.45493076250006,68.0,83.0
1058,276.8683923791667,277.50300767916667,65.0,88.0
1059,277.4453153791667,277.77584418125,60.0,87.0
1060,277.7337768791667,277.8275268666667,65.0,81.0
1061,278.0222383791667,278.58714215000003,56.0,85.0
1062,278.0222383791667,278.65204598750006,60.0,85.0
1063,278.5991613791667,278.9393055645834,63.0,83.0
1064,278.8876228791667,279.0150267083334,56.0,85.0
1065,278.3106998791667,279.2866612875,51.0,77.0
1066,279.1760843791667,279.3179112833334,68.0,87.0
1067,279.1760843791667,279.3455555104167,56.0,94.0
1068,278.0222383791667,279.3816131979167,44.0,87.0
1069,279.4645458791667,279.5991612458334,51.0,89.0
1070,279.7530073791667,279.8683919791667,56.0,88.0
1071,280.0414688791667,280.27103615625003,56.0,80.0
1072,279.7530073791667,280.3347380708334,63.0,86.0
1073,280.3299303791667,281.04868028333334,62.0,88.0
1074,280.9068533791667,281.29747832708335,58.0,81.0
1075,281.1953148791667,281.37319947083336,65.0,83.0
1076,281.48377637916667,281.76743018750005,70.0,89.0
1077,280.6183918791667,281.8804109416667,53.0,81.0
1078,281.7722378791667,282.0126224625,65.0,89.0
1079,280.3299303791667,282.03666092083336,46.0,88.0
1080,282.0606993791667,282.3852185666667,62.0,89.0
1081,282.3491608791667,282.5114204729167,58.0,83.0
1082,282.6376223791667,282.76622813125005,56.0,86.0
1083,282.6376223791667,282.9621415666667,61.0,82.0
1084,282.6376223791667,283.11118000833335,49.0,89.0
1085,282.9260838791667,283.2109396104167,56.0,79.0
1086,283.2145453791667,283.60276648125,65.0,84.0
1087,283.5030068791667,283.6544491666667,56.0,78.0
1088,283.7914683791667,284.0378625770834,58.0,82.0
1089,283.7914683791667,284.16045871458334,63.0,84.0
1090,284.0799298791667,284.2902663895834,46.0,76.0
1091,283.7914683791667,284.3251221541667,39.0,90.0
1092,284.3683913791667,284.4489202145834,58.0,77.0
1093,284.6568528791667,284.7614201729167,58.0,79.0
1094,284.3683913791667,284.7830547854167,67.0,80.0
1095,284.3683913791667,284.7938720916667,63.0,84.0
1096,284.9453143791667,285.3058912541667,60.0,76.0
1097,284.9453143791667,285.57151621875005,65.0,82.0
1098,285.5222373791667,285.89843925208334,60.0,78.0
1099,285.8106988791667,285.95372770625005,65.0,80.0
1100,286.0991603791667,286.4393045645834,68.0,82.0
1101,286.3876218791667,286.7842564416667,65.0,79.0
1102,285.2337758791667,286.93690065208335,48.0,74.0
1103,284.9453143791667,287.01622756458335,41.0,87.0
1104,286.6760833791667,287.2325736895834,60.0,78.0
1105,286.9645448791667,287.24459291875,65.0,82.0
1106,287.2782467604167,287.7506024666667,65.0,92.0
1107,287.24699676458334,287.80228515208336,60.0,83.0
1108,287.20492946250005,287.8227178416667,56.0,83.0
1109,287.1304102416667,287.8371409166667,53.0,77.0
1110,288.92488115625,289.07632344375,53.0,74.0
1111,289.2109388104167,289.34315033125006,53.0,83.0
1112,289.21334265625,289.3443522541667,60.0,80.0
1113,290.68329438333336,290.76622706458335,53.0,74.0
1114,290.68690015208335,291.0174289541667,65.0,76.0
1115,290.95853473125004,291.0282462604167,53.0,71.0
1116,290.67367900000005,291.0282462604167,60.0,76.0
1117,288.7830542520834,291.1832943166667,48.0,31.0
1118,287.2205544604167,291.26141930625005,41.0,91.0
1119,291.8395442291667,291.9489192145834,37.0,87.0
1120,291.7710346229167,292.4068518458334,61.0,75.0
1121,291.84435192083333,292.41165953750004,65.0,84.0
1122,291.7145442458334,292.41766915208336,56.0,66.0
1123,292.7133421895834,292.7806498729167,56.0,64.0
1124,293.2746401916667,293.52704400416667,65.0,72.0
1125,293.28665942083336,293.5318516958334,61.0,76.0
1126,293.2854574979167,293.54747669375,56.0,62.0
1127,293.90685164583334,293.9897843270834,56.0,52.0
1128,294.15564968958336,294.2878612104167,56.0,70.0
1129,294.15564968958336,294.31911120625,61.0,70.0
1130,294.1616593041667,294.8756015166667,49.0,71.0
1131,295.5943514208334,295.68209179375003,56.0,75.0
1132,295.59194757500006,295.8743994604167,61.0,78.0
1133,295.86478407708336,295.9549282958334,56.0,86.0
1134,296.30709171041667,296.4873801479167,53.0,79.0
1135,296.36959170208337,296.6941108895834,56.0,81.0
1136,296.428485925,296.70853396458335,60.0,81.0
1137,296.4501205375,296.75180318958337,65.0,91.0
1138,297.0174281541667,297.13762044583336,53.0,79.0
1139,297.31430311458337,297.4465146354167,60.0,76.0
1140,297.3203127291667,297.4501204041667,53.0,78.0
1141,297.8972357291667,298.2013222270834,60.0,74.0
1142,298.16286069375,298.56911063958336,53.0,77.0
1143,298.4921875729167,298.6580529354167,60.0,73.0
1144,298.75661061458334,298.9909855833334,65.0,88.0
1145,299.02343750208337,299.18329325,53.0,75.0
1146,296.74939934375004,300.09194697500004,48.0,72.0
1147,299.96935083750003,300.2638219520834,56.0,79.0
1148,300.18569696250006,300.33713925,53.0,86.0
1149,299.96935083750003,300.3743988604167,60.0,82.0
1150,296.43930323125005,300.55348537500004,41.0,90.0
1151,300.4609373104167,300.55949498958336,48.0,79.0
1152,301.06911030625,301.1736776,37.0,88.0
1153,300.97536031875,301.2469948979167,56.0,73.0
1154,301.0342545416667,301.3876198791667,61.0,81.0
1155,301.0811295354167,301.42487948958336,65.0,83.0
1156,301.3407448854167,301.49699486458337,56.0,73.0
1157,302.22295630625,302.3611774416667,56.0,81.0
1158,302.22536015208334,302.39122551458337,65.0,86.0
1159,302.50300434583335,302.8515619916667,61.0,71.0
1160,302.7938696916667,302.9248792895834,56.0,67.0
1161,303.0967542666667,304.31910987291667,56.0,73.0
1162,303.0847350375,304.37560025000005,61.0,78.0
1163,304.24218680625006,304.60997521875004,49.0,73.0
1164,304.5462733041667,304.98136940000006,56.0,84.0
1165,304.54867715,305.23737898125,61.0,84.0
1166,304.8094944229167,305.30468666458336,49.0,80.0
1167,305.14362899375004,305.3058885875,56.0,68.0
1168,305.7397827604167,306.2121384666667,65.0,92.0
1169,305.70853276458337,306.2638211520834,60.0,83.0
1170,305.6664654625,306.28425384166667,56.0,83.0
1171,305.5919462416667,306.2986769166667,53.0,77.0
1172,307.38641715625005,307.53785944375005,53.0,74.0
1173,307.6724748104167,307.80468633125,53.0,83.0
1174,307.67487865625003,307.8058882541667,60.0,80.0
1175,309.1448303833334,309.22776306458337,53.0,74.0
1176,309.1484361520834,309.4789649541667,65.0,76.0
1177,309.42007073125,309.4897822604167,53.0,71.0
1178,309.135215,309.4897822604167,60.0,76.0
1179,307.24459025208336,309.6448303166667,48.0,31.0
1180,305.6820904604167,309.72295530625,41.0,91.0
1181,310.3010802291667,310.41045521458335,37.0,87.0
1182,310.2325706229167,310.86838784583335,61.0,75.0
1183,310.30588792083336,310.8731955375,65.0,84.0
1184,310.17608024583336,310.8792051520834,56.0,66.0
1185,311.17487818958335,311.2421858729167,56.0,64.0
1186,311.7361761916667,311.9885800041667,65.0,72.0
1187,311.7481954208334,311.99338769583335,61.0,76.0
1188,311.7469934979167,312.00901269375004,56.0,62.0
1189,312.36838764583337,312.45132032708335,56.0,52.0
1190,312.6171856895834,312.7493972104167,56.0,70.0
1191,312.6171856895834,312.78064720625,61.0,70.0
1192,312.6231953041667,313.3371375166667,49.0,71.0
1193,314.05588742083336,314.14362779375006,56.0,75.0
1194,314.05348357500003,314.3359354604167,61.0,78.0
1195,314.3263200770834,314.41646429583335,56.0,86.0
1196,314.7686277104167,314.9489161479167,53.0,79.0
1197,314.83112770208334,315.15564688958335,56.0,81.0
1198,314.89002192500004,315.1700699645834,60.0,81.0
1199,314.91165653750005,315.2133391895834,65.0,91.0
1200,315.4789641541667,315.5991564458334,53.0,79.0
1201,315.7758391145834,315.9080506354167,60.0,76.0
1202,315.7818487291667,315.9116564041667,53.0,78.0
1203,316.3587717291667,316.66285822708335,60.0,74.0
1204,316.62439669375004,317.0306466395834,53.0,77.0
1205,316.9537235729167,317.1195889354167,60.0,73.0
1206,317.21814661458336,317.45252158333335,65.0,88.0
1207,317.48497350208334,317.64482925000004,53.0,75.0
1208,315.21093534375007,318.55348297500007,48.0,72.0
1209,318.4308868375,318.72535795208336,56.0,79.0
1210,318.6472329625,318.79867525000003,53.0,86.0
1211,318.4308868375,318.8359348604167,60.0,82.0
1212,314.90083923125,319.01502137500006,41.0,90.0
1213,318.9224733104167,319.0210309895834,48.0,79.0
