,start,end,pitch,velocity
0,17.241451720833336,17.517186720833337,58.0,86.0
1,17.4988043875,18.704685454166672,65.0,91.0
2,19.06865565416667,19.309464220833338,65.0,86.0
3,19.291081887500003,20.699168620833337,63.0,91.0
4,21.028212387500005,21.4418148875,65.0,90.0
5,21.47857955416667,21.83703505416667,58.0,91.0
6,21.952843754166672,22.313137487500004,61.0,91.0
7,22.401372687500004,22.57600485416667,63.0,92.0
8,22.63666655416667,23.818650587500002,65.0,91.0
9,25.028208120833337,25.34438425416667,65.0,91.0
10,25.484089987500006,25.870118987500003,65.0,97.0
11,25.90136895416667,26.241442120833337,73.0,88.0
12,26.346221420833338,26.75063275416667,72.0,91.0
13,26.802103287500003,27.022691287500002,70.0,83.0
14,27.03188245416667,27.695484687500006,68.0,89.0
15,27.899528587500004,28.166072420833338,65.0,86.0
16,28.149528320833337,29.877467654166672,70.0,90.0
17,31.414230720833338,31.689965720833335,58.0,86.0
18,31.66974515416667,32.87746445416667,65.0,91.0
19,33.23959642083334,33.48224322083334,65.0,86.0
20,33.463860887500005,34.87010938750001,63.0,91.0
21,34.974888687500005,35.195476687500005,58.0,89.0
22,35.199153154166666,35.612755654166676,65.0,90.0
23,35.65135855416667,36.00981405416667,58.0,91.0
24,36.12378452083334,36.484078254166675,61.0,91.0
25,36.574151687500006,36.74694562083334,63.0,92.0
26,36.80944555416667,37.99142958750001,65.0,91.0
27,39.1991488875,39.517163254166675,65.0,91.0
28,39.656868987500005,40.042897987500005,65.0,97.0
29,40.074147954166676,40.4123828875,73.0,88.0
30,40.517162187500006,40.921573520833334,72.0,91.0
31,40.97488228750001,41.1954702875,70.0,83.0
32,41.20282322083334,41.866425454166674,68.0,89.0
33,42.033704687500006,42.300248520833335,65.0,86.0
34,42.254292687500005,43.980393787500006,70.0,90.0
35,46.18443555416667,46.507964620833334,73.0,94.0
36,46.64031742083334,46.96017002083334,73.0,92.0
37,47.07781695416667,47.35539018750001,73.0,93.0
38,47.52818412083334,47.85171318750001,72.0,92.0
39,47.96936012083334,48.14766875416667,70.0,91.0
40,48.184433420833344,48.99325608750001,68.0,85.0
41,49.059432487500004,49.30943222083334,65.0,90.0
42,49.313108687500005,50.290116279166675,70.0,90.0
43,55.63371468333334,55.80787988333334,73.0,92.0
44,55.81695098750001,56.116297425000006,75.0,106.0
45,56.094526775000006,57.30758239166668,77.0,91.0
46,57.38972516666668,57.55222500416667,70.0,93.0
47,57.579010691666674,57.871867541666674,77.0,95.0
48,57.83972471666667,59.207580491666675,75.0,93.0
49,59.52186589166668,59.661151466666674,70.0,91.0
50,59.70757999166668,59.973651154166674,77.0,101.0
51,60.130793854166676,60.329007941666674,77.0,97.0
52,60.57543626666668,60.83257886666668,77.0,95.0
53,60.984364429166675,61.402221154166675,77.0,93.0
54,61.42364970416668,61.852220704166676,75.0,91.0
55,61.814720741666676,62.11472044166668,77.0,91.0
56,62.712934129166676,62.954005316666674,73.0,99.0
57,62.966505304166674,63.116505154166674,75.0,94.0
58,63.12721942916668,63.33079065416668,77.0,95.0
59,63.41471914166668,63.69864742916668,77.0,94.0
60,63.82007587916668,64.20578977916668,77.0,97.0
61,64.86293197916667,65.04150322916668,75.0,101.0
62,65.13078885416668,65.39150287916668,75.0,94.0
63,65.53078845416668,65.97900229166667,75.0,95.0
64,65.96650230416668,66.07721647916668,73.0,92.0
65,66.11471644166667,66.36114476666668,75.0,97.0
66,66.35935905416667,66.47007322916667,73.0,90.0
67,66.51828746666668,67.23078675416667,77.0,94.0
68,67.46828651666668,67.69864342916668,77.0,90.0
69,67.83435757916668,68.13257156666668,77.0,94.0
70,68.23078575416667,68.51471404166668,77.0,101.0
71,68.66292817916667,68.87721367916667,75.0,97.0
72,68.94864217916668,69.42364170416667,75.0,94.0
73,69.57899869166668,69.87542696666668,73.0,85.0
74,69.84328414166667,70.85756884166668,77.0,94.0
75,71.28613984166668,71.50042534166667,80.0,92.0
76,71.50578247916668,71.96292487916668,77.0,95.0
77,71.94149632916668,72.68435272916668,75.0,91.0
78,73.42185199166667,73.70578027916667,77.0,101.0
79,73.84328014166668,74.04685136666669,77.0,96.0
80,74.25935115416668,74.52720802916667,77.0,97.0
81,74.69863642916668,74.87720767916667,77.0,95.0
82,74.91113621666668,75.37185004166668,75.0,91.0
83,75.33435007916668,75.51649275416668,77.0,92.0
84,77.23077675416668,77.62541921666667,77.0,92.0
85,77.65934775416667,78.10577587916669,70.0,96.0
86,78.09506160416667,78.55577542916669,80.0,94.0
87,78.54327544166668,78.95577502916667,77.0,91.0
88,78.95041789166667,79.80755989166667,75.0,94.0
89,79.80934560416668,80.03255966666669,73.0,86.0
90,80.00934540416668,81.32637705416668,70.0,86.0
91,82.93260255416668,83.18351805416668,68.0,91.0
92,83.14688805416668,83.61575205416668,70.0,84.0
93,83.60659455416668,84.73663005416668,65.0,91.0
94,90.30001013125,90.55119654375002,58.0,86.0
95,90.53452987708334,91.66000558541668,65.0,91.0
96,92.01357666041669,92.24750499791669,65.0,86.0
97,92.22964787291669,93.5975036479167,63.0,91.0
98,93.75107492291669,93.96536042291669,58.0,83.0
99,93.91714618541668,94.3189314979167,65.0,90.0
100,94.35464574791669,94.70285968541668,58.0,91.0
101,94.81535957291669,95.16535922291669,61.0,91.0
102,95.25107342291669,95.42071611041669,63.0,92.0
103,95.4796446229167,96.62785776041669,65.0,91.0
104,97.79824667708336,98.10321091875002,65.0,91.0
105,98.23796256041669,98.61030262291669,65.0,97.0
106,98.64044443750002,98.96845830208336,73.0,88.0
107,99.06952203333336,99.45959257500002,72.0,91.0
108,99.50923791666669,99.7220036666667,70.0,83.0
109,99.73086890625002,100.37093920416669,68.0,89.0
110,100.56774752291669,100.82483947083335,65.0,86.0
111,100.80888203958335,102.47554708125003,70.0,90.0
112,103.95781513958336,104.22377232708335,58.0,86.0
113,104.20426880000002,105.36916128125003,65.0,91.0
114,105.71845172083336,105.95249404583336,65.0,86.0
115,105.93476356666669,107.2911452229167,63.0,91.0
116,107.39220895416669,107.6049747041667,58.0,89.0
117,107.60852080000002,108.00745658125003,65.0,90.0
118,108.04469058750003,108.39301148333335,58.0,91.0
119,108.50452210000002,108.85703953333335,61.0,91.0
120,108.94516889166668,109.11423337500001,63.0,92.0
121,109.17538435833335,110.33185736666668,65.0,91.0
122,111.51351019166668,111.82466078333336,65.0,91.0
123,111.96135121666669,112.33904846666668,65.0,97.0
124,112.36962395833335,112.70055869166669,73.0,88.0
125,112.80307651666668,113.19875935000002,72.0,91.0
126,113.25091754166668,113.46674454166669,70.0,83.0
127,113.47393877500002,114.12321833333336,68.0,89.0
128,114.28688714166668,114.54767810000001,65.0,86.0
129,114.50271414166669,116.18403275833334,70.0,90.0
130,118.32510204583335,118.63938744583335,73.0,94.0
131,118.76795874583334,119.07867272083335,73.0,92.0
132,119.19295832083334,119.46260090833334,73.0,93.0
133,119.63045788333335,119.94474328333335,72.0,92.0
134,120.05902888333334,120.23224299583335,70.0,91.0
135,120.26795724583334,121.05367074583334,68.0,85.0
136,121.11795639583335,121.35744319583335,70.0,90.0
137,121.36096432083335,122.62856932083335,66.0,90.0
138,124.32399100833335,124.50356838333335,73.0,101.0
139,124.59159650833335,124.72363869583334,75.0,94.0
140,124.74828657083334,125.00532869583336,77.0,92.0
141,125.15145538333336,125.36448344583334,77.0,101.0
142,125.56342700833335,125.80110294583335,77.0,96.0
143,125.98772257083336,126.26810127083334,77.0,97.0
144,126.43189433333335,126.61465290833334,77.0,95.0
145,126.70775633333335,126.84223905833335,77.0,87.0
146,126.86810112083334,127.03361832083334,75.0,92.0
147,127.11637692083335,127.38879064583334,77.0,106.0
148,127.46465269583335,127.63016989583335,73.0,92.0
149,127.63879058333335,127.92327327083335,75.0,106.0
150,127.90258362083334,129.06249237083333,77.0,91.0
151,129.14207706666667,129.29951635625,70.0,93.0
152,129.3254678875,129.60920462916667,77.0,95.0
153,129.57806279166667,130.9033209875,75.0,93.0
154,131.20781895416667,131.34276691666668,70.0,91.0
155,131.38774957083334,131.64553478125,77.0,101.0
156,131.79778376458333,131.99031508958333,77.0,97.0
157,132.23157358958335,132.48332158958334,77.0,95.0
158,132.63192283958332,133.04101333958334,77.0,93.0
159,133.06199233958333,133.48157233958332,75.0,91.0
160,133.44485908958333,133.73856508958335,77.0,91.0
161,134.32422883958333,134.56024258958334,73.0,99.0
162,134.57248033958334,134.71933333958333,75.0,94.0
163,134.72982283958333,134.92912333958333,77.0,95.0
164,135.01129108958332,135.28926283958333,77.0,94.0
165,135.40814383958335,135.78576583958335,77.0,97.0
166,136.42912183958333,136.60394683958333,75.0,101.0
167,136.69135933958333,136.94660383958333,75.0,94.0
168,137.08296733958335,137.52177808958334,75.0,95.0
169,137.50954033958334,137.61793183958335,73.0,92.0
170,137.65464508958334,137.89590358958333,75.0,97.0
171,137.89415533958334,138.00254683958335,73.0,90.0
172,138.04974958958334,138.74730133958334,77.0,94.0
173,138.97981858958335,139.20534283958332,77.0,90.0
174,139.33820983958333,139.63016758958332,77.0,94.0
175,139.72632133958334,140.00429308958334,77.0,101.0
176,140.14939783958334,140.35918783958334,75.0,97.0
177,140.42911783958334,140.89093535,75.0,94.0
178,141.04197695625,141.33017128541667,73.0,85.0
179,141.29892129791668,142.28503201458332,77.0,94.0
180,142.70169851458334,142.91003176458332,80.0,92.0
181,142.91524009583333,143.3596843625,77.0,95.0
182,143.3388510375,144.06107297083332,75.0,91.0
183,144.77808657291666,145.05412812916666,77.0,101.0
184,145.18780863125,145.38572521875,77.0,96.0
185,145.59232235833332,145.85273892083333,77.0,97.0
186,146.01940552083335,146.1930165625,77.0,95.0
187,146.22600266041667,146.676917625,75.0,91.0
188,146.640204375,146.818525875,77.0,92.0
189,148.496845875,148.883209125,77.0,92.0
190,148.916425875,149.35348837499998,70.0,96.0
191,149.342998875,149.794047375,80.0,94.0
192,149.781809625,150.18565537499998,77.0,91.0
193,150.180410625,151.019570625,75.0,94.0
194,151.021318875,151.239850125,73.0,86.0
195,151.217122875,152.47353207499998,70.0,86.0
196,153.99610091041666,154.23394803749997,68.0,91.0
197,154.19922582916664,154.64367009583333,70.0,84.0
198,154.63498954374998,155.7061696708333,65.0,91.0
199,191.48270920208333,191.81008982708335,75.0,106.0
200,191.78628032708335,193.0781102,77.0,91.0
201,193.16329530000002,193.33181365000002,70.0,93.0
202,193.3595914,193.66329480000002,77.0,95.0
203,193.6299615,195.0484786,75.0,93.0
204,195.37440420000001,195.51884850000002,78.0,91.0
205,195.5669966,196.2336626,77.0,101.0
206,196.24292185000002,196.36599709166666,70.0,91.0
207,196.418431525,196.60757001666667,77.0,92.0
208,196.7161842,196.83228901666666,75.0,90.0
209,196.85288825833334,197.08509789166666,73.0,86.0
210,197.137532325,197.29296296666666,70.0,90.0
211,197.32479815833332,198.28172656666666,68.0,90.0
212,198.710565325,198.9633742,73.0,99.0
213,198.97648280833334,199.13378610833334,75.0,94.0
214,199.14502205833332,199.35850510833333,77.0,95.0
215,199.44652005,199.744272725,77.0,94.0
216,199.87161349166666,200.27610769166665,77.0,97.0
217,200.51580795833334,200.70681910833332,77.0,92.0
218,200.79455554999998,200.90979701666666,70.0,93.0
219,200.96370028333334,201.14957361666666,75.0,101.0
220,201.24251028333333,201.51388534999998,75.0,94.0
221,201.65886655,202.11740379166667,75.0,95.0
222,202.10463008958334,202.21776859375,73.0,92.0
223,202.25608970000002,202.5079141125,75.0,97.0
224,202.50608929791667,202.61838760208335,73.0,90.0
225,202.66694867708335,203.38457345208334,77.0,94.0
226,203.62378171041667,203.85552597291667,77.0,90.0
227,203.99124012291668,204.28898088125,77.0,94.0
228,204.38615396458334,204.66707251458334,77.0,101.0
229,204.81371553125,205.02572953125,75.0,97.0
230,205.09640086458333,205.56636523125,75.0,94.0
231,205.72007538125,206.01336141458333,73.0,85.0
232,205.98155931458334,206.98810641875002,77.0,94.0
233,207.41821341875,207.63326691875,80.0,92.0
234,207.63864325625002,208.09742405625002,77.0,95.0
235,208.07591870625,208.81396418958334,75.0,91.0
236,209.54470975833334,209.82463919583333,77.0,101.0
237,209.96020250833334,210.16090663333333,77.0,96.0
238,210.37041357083334,210.63449794583332,77.0,97.0
239,210.80351194583332,210.97956819583334,77.0,95.0
240,211.01301888333333,211.46724400833332,75.0,91.0
241,211.43027219583334,211.60984957083332,77.0,92.0
242,213.29998957083333,213.68907388333332,77.0,92.0
243,213.72252457083334,214.16266519583334,70.0,96.0
244,214.15210182083334,214.60632694583333,80.0,94.0
245,214.59400300833332,215.00069294583332,77.0,91.0
246,214.99541125833332,215.8344262875,75.0,94.0
247,215.83616844583335,216.0539382375,73.0,86.0
248,216.03129017916666,217.28564417916667,70.0,86.0
249,217.98076535416666,219.33642762083335,77.0,96.0
250,219.4346732041667,219.61537490208335,70.0,97.0
251,219.65221699583336,220.6136202041667,77.0,94.0
252,221.10660250625003,221.32239191250002,77.0,97.0
253,221.28905858958336,221.58730411041668,75.0,97.0
254,221.55572517291668,221.86449700625002,77.0,92.0
255,222.9925668291667,223.26800533958334,77.0,99.0
256,223.40835617291668,223.5855491,77.0,97.0
257,223.83818060000002,224.11011033958334,77.0,97.0
258,224.2662506416667,224.39081200625003,77.0,96.0
259,224.48028566250002,224.89081185,75.0,107.0
260,224.90660131875,225.36975906875003,77.0,95.0
261,226.37677629791668,226.54519729791667,77.0,96.0
262,226.62239025625001,226.84168843333336,77.0,92.0
263,227.02765328750002,227.66624957916667,77.0,97.0
264,227.89431968333335,228.01537227708334,73.0,89.0
265,228.0662494541667,228.28905640208336,75.0,101.0
266,228.35923181875003,228.54695105833335,75.0,94.0
267,228.72414398541667,229.2346701416667,75.0,107.0
268,229.30133678750002,229.52295770833337,75.0,106.0
269,229.58044893333337,229.6710411666667,73.0,92.0
270,229.7233059166667,230.31738190833337,77.0,97.0
271,230.56825270833338,230.82783430000003,77.0,101.0
272,230.99159718333337,231.25466309166669,77.0,101.0
273,231.4213195354167,231.56145780416668,77.0,107.0
274,231.66007362291668,231.87114607708335,77.0,104.0
275,232.05626700000002,232.54242568541667,75.0,107.0
276,232.63066089166668,232.9265083479167,73.0,91.0
277,233.07875733125002,233.9541889854167,77.0,90.0
278,234.31751042291668,234.4887905291667,80.0,92.0
279,234.5406935916667,234.97840941875,77.0,97.0
280,234.98359972500003,235.71889311041667,75.0,92.0
281,235.98705893333334,236.1548788354167,73.0,97.0
282,236.2015915916667,236.37460180000002,72.0,97.0
283,236.42131455625002,236.727542625,70.0,93.0
284,236.81058752500002,237.1254661041667,72.0,104.0
285,237.2396528416667,237.50089825625003,73.0,94.0
286,237.64276662708335,237.90401204166668,75.0,107.0
287,238.05107071875003,238.8226962479167,77.0,106.0
288,240.12227578125,240.43171603125,77.0,101.0
289,240.55759003125002,240.88101628125,70.0,96.0
290,240.97367353125,241.22029990624998,80.0,93.0
291,241.39107446875,241.72382078125,77.0,94.0
292,241.79600384375,242.49716944166667,75.0,97.0
293,242.68688556875,242.894332175,73.0,94.0
294,242.88723998333333,244.67979142708333,70.0,83.0
295,245.70815921874998,246.10532195208333,70.0,90.0
296,246.09291061666667,246.51844211666668,65.0,91.0
