,start,end,pitch,velocity
0,0.21253594583333335,0.6159940125,61.0,88.0
1,0.21073479375,0.6466135979166667,58.0,86.0
2,0.58897673125,1.18335691875,53.0,76.0
3,0.21613825,1.2193799604166666,46.0,92.0
4,1.0482705125,1.318443325,58.0,89.0
5,1.0464693604166666,1.41030208125,61.0,93.0
6,1.7255036958333334,1.8119589958333333,58.0,75.0
7,1.0518728166666667,1.9038177520833335,65.0,91.0
8,1.9110223604166667,2.408140335416667,56.0,89.0
9,1.90742005625,2.4495668333333334,60.0,91.0
10,2.31808273125,2.878241029166667,48.0,73.0
11,1.9164258166666668,2.968298633333333,41.0,92.0
12,2.7791776645833335,3.0511516291666667,56.0,91.0
13,2.7755753604166666,3.0817712145833336,60.0,94.0
14,2.7773765125,3.1790334270833336,65.0,94.0
15,3.2024484041666668,3.32852905,41.0,91.0
16,3.50143965,3.5626788208333333,56.0,90.0
17,3.652736425,4.12283711875,54.0,91.0
18,3.6473329687500002,4.131842879166666,58.0,91.0
19,4.0742060125,4.605545877083333,49.0,76.0
20,3.63652605625,4.632563158333333,42.0,91.0
21,4.526295185416667,4.951367077083334,54.0,91.0
22,4.524494033333333,4.96577629375,58.0,94.0
23,4.5280963375,4.96577629375,61.0,93.0
24,5.226943345833334,5.304392885416667,54.0,91.0
25,5.39805279375,5.648412933333334,56.0,88.0
26,5.389047033333333,5.972620308333333,61.0,91.0
27,6.0716836729166666,6.134723995833333,56.0,83.0
28,5.383643577083333,6.4517267625,49.0,97.0
29,6.2391908166666665,6.462533675,56.0,92.0
30,6.24099196875,6.60842699375,61.0,93.0
31,6.242793120833333,6.72730303125,65.0,94.0
32,6.678671925000001,6.876798654166667,49.0,90.0
33,6.96505510625,7.060516166666667,56.0,88.0
34,7.109147272916667,7.471178841666667,56.0,87.0
35,7.114550729166667,7.6188733125,61.0,90.0
36,7.58104911875,8.0943774625,53.0,79.0
37,7.10554496875,8.141207416666667,46.0,91.0
38,7.9881094895833336,8.211452347916667,58.0,91.0
39,7.982706033333334,8.252878845833333,61.0,95.0
40,7.9899106416666665,8.26188460625,65.0,96.0
41,8.852662489583334,9.000356960416667,58.0,83.0
42,8.8508613375,9.005760416666666,56.0,85.0
43,8.849060185416667,9.09401686875,61.0,80.0
44,9.531696825000001,9.619953277083333,56.0,76.0
45,9.2399101875,9.821682310416668,48.0,81.0
46,9.69920396875,9.983785997916668,56.0,92.0
47,9.701005120833333,10.07204245,60.0,99.0
48,8.847259033333334,10.198123095833333,41.0,95.0
49,9.697402816666667,10.23954959375,65.0,92.0
50,10.118872404166668,10.253958810416666,48.0,92.0
51,10.560154664583333,10.988828860416668,58.0,86.0
52,10.565558120833334,11.237387847916667,63.0,83.0
53,10.567359272916667,11.7038862375,39.0,92.0
54,11.435514577083334,11.766926560416668,58.0,91.0
55,11.437315729166667,11.865989925000001,63.0,92.0
56,11.896609510416667,12.051508589583333,46.0,56.0
57,12.11995236875,12.251436470833333,58.0,79.0
58,12.321681402083334,13.234865508333334,63.0,86.0
59,12.31988025,13.24387126875,67.0,84.0
60,12.309073337500001,13.25467818125,58.0,85.0
61,12.30366988125,13.274490854166666,39.0,91.0
62,14.061594314583333,14.60554224375,57.0,75.0
63,14.056190858333334,14.616349156250001,53.0,83.0
64,14.068798922916667,14.6217526125,60.0,82.0
65,14.48666620625,15.073841785416667,48.0,66.0
66,14.063395466666668,15.280974275,41.0,91.0
67,14.924346162500001,15.342213445833334,65.0,90.0
68,14.92974961875,15.380037639583334,60.0,79.0
69,14.931550770833335,15.385441095833334,57.0,73.0
70,15.749712279166667,16.798437487500003,48.0,69.0
71,15.782320929166668,16.831525687500005,41.0,79.0
72,15.601579345833335,16.910569720833337,53.0,77.0
73,15.700799304166669,16.93446675416667,57.0,74.0
74,15.831233904166668,16.971231420833337,65.0,78.0
75,15.793190479166668,17.015349020833337,60.0,79.0
76,17.48593675416667,17.947333320833337,58.0,79.0
77,17.482260287500004,17.967553887500003,61.0,83.0
78,18.382994620833337,18.559465020833336,58.0,90.0
79,17.49696615416667,18.579685587500002,46.0,90.0
80,18.37931815416667,18.63299435416667,61.0,91.0
81,18.381156387500003,18.93630285416667,65.0,92.0
82,19.081523287500005,19.15137615416667,58.0,60.0
83,19.2524789875,19.583360987500004,56.0,85.0
84,19.248802520833337,19.754316687500005,60.0,85.0
85,19.70284615416667,19.838875420833336,56.0,78.0
86,19.2524789875,20.009831120833336,41.0,91.0
87,20.13850745416667,20.32600725416667,56.0,94.0
88,20.1403456875,20.344389587500004,60.0,95.0
89,20.142183920833336,20.432624787500004,65.0,92.0
90,21.035565320833335,21.366447320833338,61.0,86.0
91,21.03740355416667,21.381153187500004,58.0,79.0
92,21.035565320833335,21.392182587500002,54.0,82.0
93,21.493285420833338,21.862770320833338,49.0,53.0
94,21.039241787500004,22.07968185416667,42.0,90.0
95,21.9160790875,22.136667087500005,58.0,96.0
96,21.91424085416667,22.177108220833336,54.0,94.0
97,21.910564387500003,22.24512285416667,61.0,97.0
98,22.616445987500004,22.717548820833336,56.0,82.0
99,22.76901935416667,23.074166087500004,56.0,88.0
100,22.781886987500002,23.283724687500005,61.0,80.0
101,23.491445054166668,23.59070965416667,56.0,83.0
102,23.664238987500003,23.848062320833336,56.0,91.0
103,22.78004875416667,23.868282887500005,37.0,87.0
104,23.66791545416667,23.89401815416667,61.0,97.0
105,23.666077220833337,24.178944320833338,65.0,95.0
106,24.114606154166673,24.22490015416667,56.0,86.0
107,24.563135087500005,24.95651702083334,58.0,83.0
108,24.56129685416667,24.962031720833338,61.0,85.0
109,24.570488020833338,25.568648720833338,46.0,90.0
110,25.458354720833338,25.667913320833335,58.0,92.0
111,25.454678254166673,25.715707387500004,61.0,101.0
112,25.458354720833338,25.756148520833335,65.0,97.0
113,25.89585425416667,26.002471787500006,46.0,89.0
114,26.184456887500005,26.239603887500003,58.0,65.0
115,26.333353787500002,26.72305925416667,56.0,91.0
116,26.326000854166672,26.888500254166672,60.0,90.0
117,27.041073620833338,27.131147054166668,56.0,76.0
118,26.31497145416667,27.425264387500004,41.0,94.0
119,27.195485220833337,27.436293787500006,56.0,86.0
120,27.195485220833337,27.629308287500002,65.0,92.0
121,27.20099992083334,27.656881787500005,60.0,94.0
122,27.64401415416667,27.745116987500005,56.0,91.0
123,28.10724895416667,28.52085145416667,51.0,72.0
124,28.114601887500005,28.559454354166668,63.0,85.0
125,28.109087187500002,29.13298315416667,39.0,92.0
126,28.952836287500006,29.43077695416667,55.0,96.0
127,28.958350987500005,29.44732105416667,58.0,91.0
128,28.95099805416667,29.473056320833336,63.0,89.0
129,29.405041687500002,29.64585025416667,39.0,92.0
130,29.708350187500002,29.76165895416667,51.0,92.0
131,29.870114720833335,30.28371722083334,53.0,93.0
132,29.84989415416667,30.337025987500006,57.0,79.0
133,30.292908387500006,30.800260787500005,48.0,63.0
134,29.84437945416667,30.8829812875,41.0,95.0
135,30.563128687500004,31.269010287500002,53.0,92.0
136,30.71570205416667,31.36643665416667,57.0,96.0
137,30.724893220833337,31.46018655416667,60.0,97.0
138,31.158716287500006,31.48776005416667,48.0,94.0
139,30.72121675416667,31.544745287500007,65.0,97.0
140,31.649524587500004,32.10908292083334,58.0,79.0
141,31.644009887500005,32.1293034875,61.0,83.0
142,32.54474422083334,32.72121462083334,58.0,90.0
143,31.660553987500002,32.7414351875,46.0,90.0
144,32.541067754166676,32.79474395416667,61.0,91.0
145,32.542905987500006,33.09805245416667,65.0,92.0
146,33.243272887500005,33.31312575416667,58.0,60.0
147,33.414228587500006,33.74511058750001,56.0,85.0
148,33.412390354166675,33.9160662875,60.0,85.0
149,33.86459575416667,34.00062502083334,56.0,78.0
150,33.414228587500006,34.17158072083333,41.0,91.0
151,34.30025705416667,34.487756854166676,56.0,94.0
152,34.30209528750001,34.50797742083334,60.0,95.0
153,34.30393352083334,34.594374387500004,65.0,92.0
154,35.197314920833335,35.52819692083334,61.0,86.0
155,35.199153154166666,35.542902787500005,58.0,79.0
156,35.197314920833335,35.55393218750001,54.0,82.0
157,35.65503502083334,36.02451992083334,49.0,53.0
158,35.200991387500004,36.24143145416667,42.0,90.0
159,36.0778286875,36.29841668750001,58.0,96.0
160,36.07599045416667,36.34069605416667,54.0,94.0
161,36.0723139875,36.408710687500005,61.0,97.0
162,36.77819558750001,36.87929842083334,56.0,82.0
163,36.930768954166666,37.235915687500004,56.0,88.0
164,36.94363658750001,37.445474287500005,61.0,80.0
165,37.65319465416667,37.752459254166666,56.0,83.0
166,37.82598858750001,38.00981192083334,56.0,91.0
167,36.94179835416667,38.03187072083334,37.0,87.0
168,37.82966505416667,38.055767754166666,61.0,97.0
169,37.82782682083334,38.34069392083334,65.0,95.0
170,38.27635575416667,38.38664975416667,56.0,86.0
171,38.72488468750001,39.11826662083334,58.0,83.0
172,38.72304645416667,39.12378132083334,61.0,85.0
173,38.73223762083334,39.73039832083334,46.0,90.0
174,39.620104320833335,39.82966292083334,58.0,92.0
175,39.618266087500004,39.877456987500004,61.0,101.0
176,39.620104320833335,39.91789812083334,65.0,97.0
177,40.0594420875,40.16605962083334,46.0,89.0
178,40.346206487500005,40.4013534875,58.0,65.0
179,40.49510338750001,40.88480885416667,56.0,91.0
180,40.48775045416667,41.05208808750001,60.0,90.0
181,41.20466145416667,41.29289665416667,56.0,76.0
182,40.476721054166674,41.5870139875,41.0,94.0
183,41.35723482083334,41.59988162083334,56.0,86.0
184,41.35723482083334,41.7910578875,65.0,92.0
185,41.36274952083334,41.818631387500005,60.0,94.0
186,41.80576375416668,41.906866587500005,56.0,91.0
187,42.26899855416667,42.684439287500005,51.0,72.0
188,42.27635148750001,42.72120395416667,63.0,85.0
189,42.2708367875,43.294732754166674,39.0,92.0
190,43.114585887500006,43.594364787500005,55.0,96.0
191,43.120100587500005,43.60907065416667,58.0,91.0
192,43.11274765416667,43.63480592083334,63.0,89.0
193,43.56679128750001,43.80759985416667,39.0,92.0
194,43.87009978750001,43.92340855416667,51.0,92.0
195,44.031864320833336,44.44546682083334,53.0,93.0
196,44.01164375416667,44.498775587500006,57.0,79.0
197,44.454657987500006,44.9620103875,48.0,63.0
198,44.00612905416667,45.04473088750001,41.0,95.0
199,44.724878287500005,45.4307598875,53.0,92.0
200,44.87745165416668,45.5300244875,57.0,96.0
201,44.88664282083334,45.623774387500006,60.0,97.0
202,45.320465887500006,45.64950965416667,48.0,94.0
203,44.88296635416667,45.70649488750001,65.0,97.0
204,45.79289185416667,46.364582420833344,58.0,80.0
205,45.78553892083334,46.364582420833344,61.0,90.0
206,45.79473008750001,46.37561182083334,54.0,85.0
207,46.17708262083334,46.72487615416667,49.0,81.0
208,45.78737715416668,46.83884662083334,42.0,93.0
209,46.61642038750001,47.02083172083334,54.0,94.0
210,46.620096854166675,47.0741404875,58.0,99.0
211,46.61825862083334,47.234066787500005,61.0,92.0
212,47.026346420833335,47.34803725416667,49.0,90.0
213,47.316787287500006,47.38480192083334,54.0,87.0
214,47.47487535416667,47.99325715416667,56.0,90.0
215,47.46936065416667,48.022668887500004,60.0,90.0
216,48.189948120833336,48.28921272083333,56.0,84.0
217,47.91972782083334,48.46568312083334,51.0,62.0
218,47.454654787500004,48.55943302083334,44.0,92.0
219,48.36090382083334,48.914212054166676,56.0,92.0
220,48.359065587500005,48.965682587500005,60.0,94.0
221,48.362742054166674,48.9767119875,63.0,91.0
222,48.82046215416667,49.08516775416667,44.0,91.0
223,49.26531462083334,49.49877025416667,58.0,90.0
224,49.26531462083334,49.90134335416667,63.0,92.0
225,49.267152854166675,50.27924672916667,51.0,94.0
226,50.15243531250001,50.50388409583334,58.0,92.0
227,50.14518894583334,50.53649274583334,67.0,93.0
228,50.15062372083334,50.576347762500006,63.0,95.0
229,50.81910104583334,50.92236177083334,58.0,85.0
230,50.99120225416667,51.366201729166676,58.0,85.0
231,50.99301384583334,51.62707092916668,63.0,89.0
232,51.71221573750001,51.79373736250001,58.0,89.0
233,50.985767479166675,52.10533112916667,51.0,90.0
234,51.88975172083334,52.29373666250001,58.0,99.0
235,51.88975172083334,52.46221468750001,63.0,101.0
236,52.31728735416667,52.500258112500006,51.0,99.0
237,52.58721451250001,52.64699703750001,63.0,38.0
238,52.58177973750001,52.70677956250001,58.0,93.0
239,52.766562087500006,53.24663387916667,65.0,86.0
240,52.779243229166674,53.27743093750001,60.0,83.0
241,52.76837367916667,53.30460481250001,53.0,85.0
242,52.77743163750001,53.306416404166676,57.0,78.0
243,53.64351442916667,53.77595255000001,57.0,88.0
244,53.648957091666674,53.78502365416667,60.0,87.0
245,52.762938904166674,54.34743211250001,41.0,92.0
246,54.34561789166667,54.56695283333334,53.0,91.0
247,54.494384000000004,54.61049413333334,57.0,80.0
248,54.5324826375,54.68850562916667,65.0,92.0
249,55.21644389166667,55.29445538750001,65.0,92.0
250,54.944310766666675,55.4795059125,48.0,74.0
251,54.516154650000004,55.63371468333334,41.0,97.0
252,55.37246688333334,55.869563391666674,65.0,96.0
253,55.367024220833336,56.13081119166667,69.0,99.0
254,55.37428110416667,56.16890982916667,72.0,94.0
255,55.806065662500004,56.18342359583334,48.0,96.0
256,56.09815521666667,56.19975158333334,65.0,96.0
257,56.26687775416667,56.843799979166675,58.0,90.0
258,56.24873554583334,56.86375640833334,61.0,83.0
259,56.698662312500005,57.28793955416668,53.0,77.0
260,56.23785022083334,57.37008232916668,46.0,91.0
261,57.148653979166674,57.42722512916668,58.0,92.0
262,57.14686826666667,57.47543936666668,61.0,97.0
263,57.573653554166675,57.698653429166676,46.0,90.0
264,57.84508185416668,57.898653229166676,58.0,77.0
265,57.150439691666676,57.93079605416668,65.0,99.0
266,57.98972456666667,58.44865267916668,56.0,87.0
267,57.98793885416668,58.54329544166668,60.0,91.0
268,58.695081004166674,58.77365235416668,56.0,86.0
269,57.991510279166675,59.032580666666675,41.0,92.0
270,58.845080854166675,59.125437716666674,56.0,92.0
271,58.84329514166667,59.345080354166676,60.0,101.0
272,59.27365185416667,59.48972306666668,41.0,89.0
273,58.839723716666676,59.52365160416667,65.0,94.0
274,59.69508000416668,60.141508129166674,58.0,80.0
275,59.693294291666675,60.18436522916667,54.0,85.0
276,60.09507960416668,60.62722192916667,49.0,76.0
277,59.70222285416668,60.68793615416668,42.0,91.0
278,60.53257916666668,60.89507880416667,54.0,91.0
279,60.529007741666675,60.91115021666668,58.0,92.0
280,60.53079345416668,60.93793590416668,61.0,91.0
281,60.954007316666676,61.17364995416668,42.0,90.0
282,61.23079275416668,61.320078379166674,54.0,93.0
283,61.407578291666674,61.714720841666676,56.0,87.0
284,61.40579257916668,61.93436347916668,61.0,90.0
285,62.10400616666668,62.187934654166675,56.0,91.0
286,61.38793545416668,62.42186299166668,49.0,90.0
287,62.25400601666668,62.655791329166675,56.0,91.0
288,62.25936315416668,62.718291266666675,65.0,96.0
289,62.257577441666676,62.72007697916668,61.0,95.0
290,62.680791304166675,62.93971961666668,49.0,104.0
291,63.10221945416668,63.541504729166675,58.0,90.0
292,63.10043374166668,63.54507615416668,61.0,90.0
293,63.80579017916668,63.927218629166674,58.0,85.0
294,63.523647604166676,64.06828991666667,53.0,81.0
295,63.10757659166668,64.16114696666668,46.0,90.0
296,63.98257571666667,64.38257531666667,58.0,91.0
297,63.984361429166675,64.44328954166667,65.0,97.0
298,63.979004291666676,64.47007522916668,61.0,97.0
299,64.39507530416668,64.51650375416668,53.0,94.0
300,64.84507485416668,65.28436012916667,56.0,89.0
301,64.83971771666668,65.39328859166667,60.0,90.0
302,65.50221705416668,65.58257411666668,56.0,86.0
303,64.83793200416667,65.87543096666667,41.0,93.0
304,65.66293117916668,66.19150207916668,56.0,91.0
305,65.66114546666668,66.32721622916668,60.0,95.0
306,66.09685931666668,66.37007332916667,41.0,95.0
307,65.66471689166667,66.38971616666667,65.0,92.0
308,66.50578747916668,66.97185844166668,63.0,92.0
309,66.50757319166668,67.19685821666667,51.0,84.0
310,66.91828706666668,67.42900084166668,46.0,83.0
311,66.47900179166668,67.51828646666668,39.0,94.0
312,67.35935805416668,67.78792905416668,51.0,93.0
313,67.35757234166668,67.85757184166668,55.0,95.0
314,67.35578662916667,67.86114326666667,58.0,95.0
315,67.76828621666668,68.05578592916667,39.0,95.0
316,68.04864307916668,68.11650015416667,51.0,93.0
317,67.35042949166667,68.18257151666668,63.0,93.0
318,68.22007147916668,68.43078555416668,51.0,87.0
319,68.22185719166667,68.55399971666668,53.0,87.0
320,68.18614294166667,68.74149952916667,57.0,83.0
321,68.89864222916668,68.99149927916667,53.0,92.0
322,68.60578537916668,69.13792770416669,48.0,86.0
323,68.19864292916668,69.24328474166668,41.0,99.0
324,69.05578492916668,69.56649870416668,53.0,93.0
325,69.05757064166667,69.86828411666667,57.0,104.0
326,69.49328449166669,69.88435552916668,48.0,94.0
327,69.06471349166668,69.88435552916668,60.0,99.0
328,69.05578492916668,69.89506980416668,65.0,95.0
329,69.81292702916667,69.92542691666668,53.0,97.0
330,69.93971261666668,70.47721207916668,58.0,86.0
331,69.93792690416667,70.52721202916668,61.0,87.0
332,70.37364075416667,70.97899729166667,53.0,83.0
333,70.82185459166668,71.29328269166668,58.0,92.0
334,69.94149832916668,71.35578262916668,46.0,92.0
335,71.26828271666668,71.44149682916668,53.0,90.0
336,70.82006887916668,71.47006822916669,61.0,104.0
337,71.53078245416668,71.59328239166668,58.0,85.0
338,70.81828316666667,71.65221090416668,65.0,99.0
339,71.69149657916668,72.19863892916668,56.0,91.0
340,71.68971086666667,72.29685311666668,60.0,92.0
341,72.41649585416668,72.50756719166668,56.0,89.0
342,72.13435327916667,72.66470989166667,48.0,79.0
343,71.68435372916667,72.78256691666668,41.0,95.0
344,72.58256711666668,73.04685236666668,60.0,96.0
345,72.57899569166668,73.07006662916667,56.0,96.0
346,72.57899569166668,73.09506660416668,65.0,95.0
347,72.98970956666668,73.17185224166667,41.0,96.0
348,73.80578017916667,74.04327994166668,54.0,82.0
349,73.41828056666668,74.43970811666668,42.0,93.0
350,74.27006542916668,74.68970786666668,54.0,92.0
351,74.27185114166667,74.76292207916669,58.0,95.0
352,74.26827971666668,74.80042204166668,61.0,94.0
353,74.70577927916668,74.97720757916667,42.0,90.0
354,74.98256471666667,75.03613609166668,54.0,91.0
355,75.12899314166668,75.38792145416667,56.0,91.0
356,75.12542171666668,75.62363550416669,61.0,92.0
357,75.78792105416667,75.86113526666668,56.0,95.0
358,75.12542171666668,76.11113501666668,49.0,99.0
359,75.94506375416668,76.18077780416668,56.0,97.0
360,75.94684946666668,76.34149192916668,61.0,106.0
361,75.94863517916667,76.57720597916668,65.0,104.0
362,76.35756334166668,76.60756309166668,49.0,96.0
363,76.62363450416667,76.71113441666668,56.0,91.0
364,76.81292002916668,77.26649100416668,58.0,90.0
365,76.80934860416667,77.27184814166668,61.0,91.0
366,77.23970531666669,77.75041909166669,53.0,79.0
367,76.78970576666669,77.81827616666668,46.0,93.0
368,77.66649060416668,77.86649040416668,58.0,92.0
369,77.66470489166667,78.15756154166668,61.0,99.0
370,77.66291917916668,78.18791865416668,65.0,95.0
371,78.09863302916668,78.19149007916668,46.0,87.0
372,78.10756159166668,78.41648985416668,58.0,93.0
373,78.55577542916669,79.03077495416667,56.0,91.0
374,78.55041829166667,79.08791775416668,60.0,90.0
375,79.23970331666668,79.33613179166667,56.0,89.0
376,78.97184644166668,79.47006022916668,48.0,77.0
377,78.54327544166668,79.57184584166669,41.0,91.0
378,79.39506030416668,79.87005982916668,60.0,97.0
379,79.38970316666668,79.88077410416668,56.0,91.0
380,79.39684601666667,79.89505980416668,65.0,97.0
381,79.81470274166668,80.20366755416669,41.0,95.0
382,80.33187255416668,80.81538855416669,63.0,86.0
383,80.26227555416668,80.84102955416668,58.0,86.0
384,80.65055355416668,81.21648705416668,46.0,78.0
385,80.30256855416668,81.28974705416668,39.0,94.0
386,81.09011355416668,81.49121205416668,63.0,95.0
387,81.08828205416668,81.50220105416668,58.0,92.0
388,81.08645055416669,81.50220105416668,67.0,92.0
389,81.96557055416669,83.01318855416669,53.0,49.0
390,82.01868405416668,83.04432405416668,57.0,78.0
391,81.96190755416669,83.07912255416669,41.0,90.0
392,82.09743855416669,83.08095405416668,60.0,70.0
393,83.78974455416669,84.28058655416669,56.0,81.0
394,83.78425005416668,84.34468905416668,61.0,85.0
395,83.79157605416668,84.88681305416668,46.0,91.0
396,84.66520155416669,84.93076905416669,61.0,91.0
397,84.66703305416668,84.94725255416668,65.0,94.0
398,84.65970705416669,84.95457855416669,58.0,89.0
399,85.38407502083335,85.48478167083334,58.0,79.0
400,85.53778517083335,85.90350932083335,58.0,86.0
401,85.53248482083335,85.97594743750001,61.0,85.0
402,85.94944568750002,86.48654782083335,53.0,86.0
403,85.51658377083335,86.51834992083334,46.0,90.0
404,86.39114152083334,86.54308488750002,58.0,89.0
405,86.3893747375,86.55368558750001,61.0,91.0
406,86.3893747375,86.56428628750001,65.0,91.0
407,87.23919752083334,87.63319020416668,58.0,84.0
408,87.23566395416668,87.63672377083334,61.0,88.0
409,88.07768554583335,88.17099535833334,61.0,92.0
410,88.08296723333335,88.17979817083335,58.0,91.0
411,88.07944610833334,88.18507985833335,65.0,92.0
412,87.65792517083335,88.79551269166669,53.0,86.0
413,87.23743073750002,88.79893734583335,46.0,91.0
414,88.75198098333335,89.16708766875001,56.0,86.0
415,88.91023860625002,89.20989584583334,61.0,91.0
416,88.91366326041668,89.21503282708335,65.0,92.0
417,89.56092289791668,89.66611207708334,58.0,94.0
418,89.32633408750002,89.91356960625001,53.0,90.0
419,88.91195093333334,90.05424751666668,46.0,92.0
420,89.73221374583335,90.15594239166667,58.0,92.0
421,90.18136611041668,90.23729829166668,46.0,74.0
422,89.72882391666668,90.48452987708335,61.0,111.0
423,89.73051883125001,90.50286321041668,65.0,106.0
424,90.14407798958334,90.50619654375002,53.0,106.0
425,90.42452987708334,90.52786321041668,58.0,93.0
426,90.54619654375001,90.96452987708335,58.0,79.0
427,90.54119654375002,90.98286321041668,61.0,83.0
428,91.37250587291669,91.54214856041669,58.0,90.0
429,90.55619654375002,91.56357711041669,46.0,90.0
430,91.36893444791669,91.61536277291668,61.0,91.0
431,91.3707201604167,91.90821962291669,65.0,92.0
432,92.05107662291668,92.11893369791669,58.0,60.0
433,92.21536217291668,92.53857613541669,56.0,85.0
434,92.21357646041669,92.70464739791669,60.0,85.0
435,92.65286173541669,92.78500446041669,56.0,78.0
436,92.2171478854167,92.95107572291668,41.0,91.0
437,93.0778613104167,93.2582182729167,56.0,94.0
438,93.07964702291669,93.2778611104167,60.0,95.0
439,93.08143273541668,93.36357531041669,65.0,92.0
440,93.94750329791668,94.2689315479167,61.0,86.0
441,93.95107472291669,94.28500296041669,58.0,79.0
442,93.94928901041669,94.29571723541669,54.0,82.0
443,94.39214571041668,94.75285963541668,49.0,53.0
444,93.9528604354167,94.96178799791669,42.0,90.0
445,94.8046452979167,95.01714508541669,58.0,96.0
446,94.80285958541668,95.05821647291668,54.0,94.0
447,94.79750244791668,95.1242878354167,61.0,97.0
448,95.48321604791668,95.58143023541669,56.0,82.0
449,95.63143018541669,95.92785846041669,56.0,88.0
450,95.64393017291668,96.13142968541669,61.0,80.0
451,96.33321519791669,96.43142938541669,56.0,83.0
452,96.5010721729167,96.68142913541669,56.0,91.0
453,95.64214446041669,96.7010719729167,37.0,87.0
454,96.50464359791668,96.7260719479167,61.0,97.0
455,96.50285788541669,97.00285738541669,65.0,95.0
456,96.94035744791668,97.04750019791669,56.0,86.0
457,97.37448822500002,97.75214743125002,58.0,83.0
458,97.37271517708335,97.75746657500002,61.0,85.0
459,97.37980736875002,98.34434543541668,46.0,90.0
460,98.23796256041669,98.44009002291669,58.0,92.0
461,98.23441646458336,98.48441622083335,61.0,101.0
462,98.23618951250002,98.52342327500003,65.0,97.0
463,98.65994796458335,98.76278474375002,46.0,89.0
464,98.93831648750002,98.98973487708335,58.0,65.0
465,99.08016032083336,99.45604647916669,56.0,91.0
466,99.07306812916669,99.61739383958336,60.0,90.0
467,99.76455681666668,99.84966311666669,56.0,76.0
468,99.06420288958336,100.13335078333336,41.0,94.0
469,99.91171979375002,100.14576211875003,56.0,86.0
470,99.9134928416667,100.33193215000003,65.0,92.0
471,99.9188119854167,100.35675482083336,60.0,94.0
472,100.34611653333336,100.44186112083335,56.0,91.0
473,100.79292460833335,101.19186038958335,51.0,72.0
474,100.80001680000002,101.22909439583336,63.0,85.0
475,100.79469765625002,101.78228534583336,39.0,92.0
476,101.60675360208336,102.06951910833335,55.0,96.0
477,101.61384579375002,102.08370349166668,58.0,91.0
478,101.60675360208336,102.10852616250003,63.0,89.0
479,102.04469643750002,102.27519266666668,39.0,92.0
480,102.33547629583336,102.38689468541669,51.0,92.0
481,102.49327756041669,102.89221334166669,53.0,93.0
482,102.47200098541668,102.94185868333335,57.0,79.0
483,102.90107858125002,103.38866675833336,48.0,63.0
484,102.46845488958336,103.46845391458335,41.0,95.0
485,103.15994357708335,103.84079397708335,53.0,92.0
486,103.30887960208335,103.93653856458336,57.0,96.0
487,103.31597179375002,104.02696400833335,60.0,97.0
488,103.73618415000003,104.05355972708335,48.0,94.0
489,103.3124256979167,104.10852421250003,65.0,97.0
490,104.20781489583335,104.65284992291669,58.0,79.0
491,104.20249575208335,104.67235345000002,61.0,83.0
492,105.07306227916669,105.24327487916669,58.0,90.0
493,104.21845318333335,105.26277840625002,46.0,90.0
494,105.06951618333336,105.31419679583335,61.0,91.0
495,105.07128923125002,105.60497665416669,65.0,92.0
496,105.74682048750002,105.81419630833335,58.0,60.0
497,105.90994089583336,106.23086256875003,56.0,85.0
498,105.90816784791669,106.39575602500003,60.0,85.0
499,106.34611068333335,106.47554318125002,56.0,78.0
500,105.91171394375002,106.64043663750002,41.0,91.0
501,106.76632303958336,106.94540087916668,56.0,94.0
502,106.76809608750003,106.96490440625003,60.0,95.0
503,106.76986913541668,107.05001070625002,65.0,92.0
504,107.62979737500002,107.94894600000002,61.0,86.0
505,107.63334347083335,107.96490343125002,58.0,79.0
506,107.6315704229167,107.97554171875002,54.0,82.0
507,108.07128630625002,108.43257976666669,49.0,53.0
508,107.63511651875002,108.64301109166668,42.0,90.0
509,108.48473795833335,108.69876640000001,58.0,96.0
510,108.48293940000002,108.74013324166668,54.0,94.0
511,108.47754372500002,108.80667990000002,61.0,97.0
512,109.16819012500002,109.26711083333335,56.0,82.0
513,109.31926902500001,109.61782970833335,56.0,88.0
514,109.33185893333335,109.82286535833335,61.0,80.0
515,110.02430389166669,110.12322460000001,56.0,83.0
516,110.19336837500002,110.37502276666669,56.0,91.0
517,109.32826181666668,110.39480690833335,37.0,87.0
518,110.19876405000002,110.41998672500002,61.0,97.0
519,110.19516693333335,110.69876326666669,65.0,95.0
520,110.63581372500002,110.74372722500001,56.0,86.0
521,111.07466195833335,111.45775488333335,58.0,83.0
522,111.07286340000002,111.46494911666669,61.0,85.0
523,111.08005763333335,112.05847336666669,46.0,90.0
524,111.95055986666668,112.15559551666668,58.0,92.0
525,111.94696275000001,112.20055947500002,61.0,101.0
526,111.94876130833335,112.24192631666668,65.0,97.0
527,112.37861675000002,112.48293313333335,46.0,89.0
528,112.66099040833335,112.71314860000001,58.0,65.0
529,112.80487507500001,113.18616944166668,56.0,91.0
530,112.79768084166669,113.34983825000002,60.0,90.0
531,113.49911859166669,113.58544939166669,56.0,76.0
532,112.78868805000002,113.87501728333335,41.0,94.0
533,113.64839893333335,113.88580863333335,56.0,86.0
534,113.65019749166669,114.07465725833335,65.0,92.0
535,113.65559316666668,114.10163563333334,60.0,94.0
536,114.08904572500002,114.18616787500002,56.0,91.0
537,114.54228242500002,114.94695805000002,51.0,72.0
538,114.54947665833335,114.98472777500001,63.0,85.0
539,114.54408098333334,115.54296197083335,39.0,92.0
540,115.36796214583335,115.83224739583335,55.0,96.0
541,115.37331928333334,115.84653309583335,58.0,91.0
542,115.36617643333335,115.87153307083335,63.0,89.0
543,115.80724742083335,116.03939004583334,39.0,92.0
544,116.10010427083334,116.15188993333335,51.0,92.0
545,116.25903268333334,116.66081799583334,53.0,93.0
546,116.23938984583334,116.71081794583334,57.0,79.0
547,116.66974655833334,117.16081749583334,48.0,63.0
548,116.23403270833334,117.24117455833334,41.0,95.0
549,116.93224629583335,117.61617418333334,53.0,92.0
550,117.08046043333334,117.71260265833335,57.0,96.0
551,117.08938899583335,117.80367399583335,60.0,97.0
552,117.51081714583334,117.83045968333334,48.0,94.0
553,117.08403185833335,117.88581677083334,65.0,97.0
554,117.96795954583335,118.52331613333335,58.0,80.0
555,117.96260240833335,118.52510184583335,61.0,90.0
556,117.96974525833335,118.53581612083335,54.0,85.0
557,118.34117345833334,118.87331578333334,49.0,81.0
558,117.96438812083335,118.98402995833335,42.0,93.0
559,118.76795874583334,119.16260120833334,54.0,94.0
560,118.77153017083334,119.21260115833334,58.0,99.0
561,118.76974445833335,119.36795814583334,61.0,92.0
562,119.16617263333335,119.48045803333335,49.0,90.0
563,119.44831520833334,119.51617228333335,54.0,87.0
564,119.60188648333335,120.10545740833335,56.0,90.0
565,119.59652934583335,120.13581452083335,60.0,90.0
566,120.29831435833334,120.39474283333335,56.0,84.0
567,120.03581462083335,120.56617123333335,51.0,62.0
568,119.58224364583334,120.65545685833335,44.0,92.0
569,120.46259990833335,121.00188508333335,56.0,92.0
570,120.46081419583335,121.05188503333335,60.0,94.0
571,120.46617133333335,121.06081359583335,63.0,91.0
572,120.90902803333334,121.16554188333335,44.0,91.0
573,121.33807700833334,121.56342900833334,58.0,90.0
574,121.33983757083335,121.94723163333335,63.0,92.0
575,121.34159813333335,122.31518919583336,51.0,94.0
576,122.19194982083334,122.53349894583334,58.0,92.0
577,122.18314700833335,122.56342850833335,67.0,93.0
578,122.19018925833335,122.60392144583335,63.0,95.0
579,122.83807625833334,122.94018888333335,58.0,85.0
580,123.00709025833335,123.37152669583335,58.0,85.0
581,123.00885082083335,123.62504769583335,63.0,89.0
582,123.70603357083336,123.78701944583335,58.0,89.0
583,123.00180857083335,124.08807563333335,51.0,90.0
584,123.87856869583335,124.27117413333335,58.0,99.0
585,123.88032925833335,124.43666700833334,63.0,101.0
586,124.29582200833335,124.47363882083334,51.0,99.0
587,124.55814582083335,124.61448382083336,63.0,38.0
588,124.55286413333334,124.67258238333335,58.0,93.0
589,124.73068094583336,125.19899057083335,65.0,86.0
590,124.74476544583335,125.22892013333335,60.0,83.0
591,124.73244150833335,125.25532857083336,53.0,85.0
592,124.74300488333336,125.25532857083336,57.0,78.0
593,125.58455375833336,125.71131425833335,57.0,88.0
594,125.58983544583334,125.72187763333335,60.0,87.0
595,124.72892038333335,126.26637713333335,41.0,92.0
596,126.26465299583334,126.47499777083334,53.0,91.0
597,126.40603227083335,126.51637707083334,57.0,80.0
598,126.44051502083335,126.59051498333335,65.0,92.0
599,127.09051485833335,127.16465277083334,65.0,92.0
600,126.83189423333334,127.34223893333335,48.0,74.0
601,126.42499778333334,127.48879062083334,41.0,97.0
602,127.24051482083334,127.71120435833335,65.0,96.0
603,127.23534240833334,127.96120429583334,69.0,99.0
604,127.24223895833335,127.99568704583335,72.0,94.0
605,127.65258368333335,128.00948014583335,48.0,96.0
606,127.93016982083334,128.02499738333336,65.0,96.0
607,128.08879047083335,128.63879033333333,58.0,90.0
608,128.07327323333334,128.65775584583335,61.0,83.0
609,128.50085933333335,129.065952575,53.0,77.0
610,128.06292840833333,129.14553727083333,46.0,91.0
611,128.9310046125,129.20263063958333,58.0,92.0
612,128.92927451041666,129.24761329375,61.0,97.0
613,129.34276890833334,129.46560615625,46.0,90.0
614,129.605744425,129.65937758958333,58.0,77.0
615,128.93446481666666,129.688789325,65.0,99.0
616,129.74588269375,130.19051892916667,56.0,87.0
617,129.74415259166668,130.28394444166668,60.0,91.0
618,130.42927301666666,130.50712761041666,56.0,86.0
619,129.74934289791668,130.75626231041667,41.0,92.0
620,130.57460159166666,130.84795772083334,56.0,92.0
621,130.57287148958332,131.059030175,60.0,101.0
622,130.99155619375,131.20089854583333,41.0,89.0
623,130.5711413875,131.23204038333333,65.0,94.0
624,131.39986028541668,131.83238580625,58.0,80.0
625,131.39813018333334,131.87217815416668,54.0,85.0
626,131.78567305,132.30674833958335,49.0,76.0
627,131.40505059166668,132.36444058958332,42.0,91.0
628,132.21409108958335,132.56898583958335,54.0,91.0
629,132.20884633958335,132.58297183958334,58.0,92.0
630,132.21234283958333,132.61094383958334,61.0,91.0
631,132.62492983958333,132.83996458958333,42.0,90.0
632,132.89590858958334,132.98332108958334,54.0,93.0
633,133.06898533958335,133.36968433958333,56.0,87.0
634,133.06898533958335,133.58471908958333,61.0,90.0
635,133.75255108958333,133.83471883958333,56.0,91.0
636,133.05150283958335,134.06373958958335,49.0,90.0
637,133.89940408958333,134.29276033958334,56.0,91.0
638,133.90290058958334,134.35220083958333,65.0,96.0
639,133.90290058958334,134.35394908958332,61.0,95.0
640,134.31723583958333,134.56898383958332,49.0,104.0
641,134.72807458958334,135.15814408958335,58.0,90.0
642,134.72807458958334,135.16164058958333,61.0,90.0
643,135.41863333958332,135.53576608958335,58.0,85.0
644,135.14240983958334,135.67562608958335,53.0,81.0
645,134.73506758958334,135.76653508958333,46.0,90.0
646,135.58996183958334,135.98156983958333,58.0,91.0
647,135.59171008958333,136.04275858958334,65.0,97.0
648,135.58821358958335,136.06723408958334,61.0,97.0
649,135.99555583958335,136.11268858958334,53.0,94.0
650,136.43436658958333,136.86618433958333,56.0,89.0
651,136.43087008958332,136.97282758958335,60.0,90.0
652,137.07947083958334,137.15814208958335,56.0,86.0
653,136.42912183958333,137.44310683958332,41.0,93.0
654,137.23681333958334,137.75254708958335,56.0,91.0
655,137.23506508958334,137.88541408958335,60.0,95.0
656,137.66163808958333,137.92912033958333,41.0,95.0
657,137.23856158958333,137.94835108958333,65.0,92.0
658,138.06198733958334,138.51828058958333,63.0,92.0
659,138.06198733958334,138.73856008958333,51.0,84.0
660,138.46583308958333,138.96408433958334,46.0,83.0
661,138.03401533958333,139.05149683958334,39.0,94.0
662,138.89765083958335,139.31723083958335,51.0,93.0
663,138.89590258958333,139.38366433958333,55.0,95.0
664,138.89415433958334,139.38890908958334,58.0,95.0
665,139.29625183958333,139.57772008958332,39.0,95.0
666,139.57247533958335,139.63716058958335,51.0,93.0
667,138.88716133958334,139.70359408958333,63.0,93.0
668,139.73855908958333,139.94485258958335,51.0,87.0
669,139.74205558958334,140.06723008958335,53.0,87.0
670,139.70709058958334,140.25079633958333,57.0,83.0
671,140.40289408958333,140.495102175,53.0,92.0
672,140.11792933958333,140.63572711875,48.0,86.0
673,139.71758008958335,140.73815763333334,41.0,99.0
674,140.55586603958332,141.05239361875,53.0,93.0
675,140.55933826041667,141.34753238958334,57.0,104.0
676,140.56454659166667,141.36142127291666,60.0,99.0
677,140.98121309166666,141.36315738333334,48.0,94.0
678,140.55760215,141.37357404583332,65.0,95.0
679,141.29371296666667,141.40308792291665,53.0,97.0
680,141.41697680625,141.93954604166666,58.0,86.0
681,141.41350458541666,141.98642102291666,61.0,87.0
682,141.83711552708334,142.42565695833332,53.0,83.0
683,142.27461535208334,142.73294850208333,58.0,92.0
684,141.41871291666666,142.79197625625,46.0,92.0
685,142.70690684583334,142.87704566666667,53.0,90.0
686,142.27114313125,142.90482343333332,61.0,104.0
687,142.9638511875,143.02287894166668,58.0,85.0
688,142.26940702083334,143.08017058541665,65.0,99.0
689,143.120101125,143.61315648333334,56.0,91.0
690,143.11836501458333,143.70864255625,60.0,92.0
691,143.82496195416667,143.911767475,56.0,89.0
692,143.55065650833333,144.06628130208333,48.0,79.0
693,143.11142057291667,144.18086458958334,41.0,95.0
694,143.9846841125,144.43607282083335,60.0,96.0
695,143.98294800208333,144.45864225625,56.0,96.0
696,143.98121189166667,144.48294780208334,65.0,95.0
697,144.3805172875,144.55760055,41.0,96.0
698,145.17391974791667,145.40482243333332,54.0,82.0
699,144.7971837875,145.79023894583332,42.0,93.0
700,145.62530845625,146.03503051458333,54.0,92.0
701,145.62878067708334,146.10621104166665,58.0,95.0
702,145.62357234583334,146.14266936041668,61.0,94.0
703,146.04891939791668,146.315029875,42.0,90.0
704,146.318526375,146.372722125,54.0,91.0
705,146.463631125,146.717127375,56.0,91.0
706,146.458386375,146.946148125,61.0,92.0
707,147.10873537499998,147.180413625,56.0,95.0
708,146.460134625,147.423420375,49.0,99.0
709,147.262581375,147.491602125,56.0,97.0
710,147.262581375,147.64894462499998,61.0,106.0
711,147.264329625,147.879713625,65.0,104.0
712,147.664678875,147.91118212499998,49.0,96.0
713,147.926916375,148.010832375,56.0,91.0
714,148.110482625,148.55628637499998,58.0,90.0
715,148.10873437499998,148.559782875,61.0,91.0
716,148.530062625,149.030062125,53.0,79.0
717,148.087755375,149.096495625,46.0,93.0
718,148.947894375,149.141950125,58.0,92.0
719,148.94614612499998,149.426914875,61.0,99.0
720,148.944397875,149.456635125,65.0,95.0
721,149.369222625,149.461879875,46.0,87.0
722,149.379712125,149.682159375,58.0,93.0
723,149.816774625,150.281809125,56.0,91.0
724,149.811529875,150.339501375,60.0,90.0
725,150.48810262499998,150.582508125,56.0,89.0
726,150.22586512499998,150.711878625,48.0,77.0
727,149.806285125,150.811528875,41.0,91.0
728,150.638452125,151.105234875,60.0,97.0
729,150.63320737499998,151.11572437499999,56.0,91.0
730,150.640200375,151.129710375,65.0,97.0
731,151.049290875,151.428661125,41.0,95.0
732,151.551038625,152.010828375,63.0,86.0
733,151.484605125,152.037052125,58.0,86.0
734,151.853485875,152.3936709958333,46.0,78.0
735,151.52306662499998,152.46137930208332,39.0,94.0
736,152.27387937708332,152.65408755833332,63.0,95.0
737,152.27040715624997,152.66450422083332,58.0,92.0
738,152.26867104583332,152.66450422083332,67.0,92.0
739,153.10374015624998,154.09505920416666,53.0,49.0
740,153.15408735833333,154.12457308125,57.0,78.0
741,153.09853182499998,154.15929528958333,41.0,90.0
742,153.22874010624997,154.16103139999998,60.0,70.0
743,154.76867004583332,155.2217948645833,61.0,88.0
744,154.77387837708332,155.25130874166666,54.0,88.0
745,155.6176280395833,155.76519742499997,58.0,99.0
746,155.61068359791665,155.7999196333333,61.0,97.0
747,155.61589192916665,155.806864075,54.0,93.0
748,155.18880876666665,156.34679441458331,49.0,85.0
749,154.78429503958333,156.36415551874998,42.0,92.0
750,156.43707215624997,156.83811366249998,66.0,90.0
751,156.2790861083333,156.88498864374998,54.0,86.0
752,156.4301277145833,156.88672475416664,58.0,93.0
753,156.43707215624997,156.88672475416664,61.0,92.0
754,157.15094130625,157.25408805625,54.0,91.0
755,156.85373865625,157.46387805625,49.0,78.0
756,156.46311381249998,157.54429755625,42.0,90.0
757,157.32751455624998,157.64744430624998,58.0,97.0
758,157.32052155625,157.65268905624998,54.0,92.0
759,157.32226980625,157.66842330625,61.0,99.0
760,157.71562605625,157.83275880624998,42.0,95.0
761,158.13695430625,158.80303755625,58.0,92.0
762,158.13520605624998,158.81877180625,55.0,86.0
763,158.99184855625,159.17716305624998,55.0,91.0
764,158.98660380625,159.17716305624998,58.0,94.0
765,158.98135905625,159.21912105625,63.0,92.0
766,158.15268855624998,159.62646330625,39.0,94.0
767,159.66142830625,159.88870080625,55.0,91.0
768,159.65618355625,159.94114830625,63.0,91.0
769,159.65793180625,159.95163780625,58.0,92.0
770,160.07751180625,160.32401505625,55.0,96.0
771,160.22960955624998,160.78030830625,46.0,87.0
772,159.80128830625,160.83450405624998,39.0,93.0
773,160.65967905624998,160.97261580625,55.0,96.0
774,160.66142730625,160.97436405624998,58.0,99.0
775,160.65793080625,161.06702130624998,63.0,93.0
776,161.03555280625,161.13170655624998,39.0,97.0
777,161.50902086874999,161.89282349375,61.0,90.0
778,161.51078143125,161.92099249375,58.0,84.0
779,161.50726030625,161.95092205625,54.0,86.0
780,161.49141524375,162.54071049375,42.0,92.0
781,162.35409086875,162.65866818125,61.0,94.0
782,162.35056974375,162.68683718124998,58.0,96.0
783,162.35937255625,162.70092168125,54.0,92.0
784,163.20092143125,163.61466610416664,66.0,91.0
785,163.18859749375,163.62530439166665,58.0,92.0
786,163.19563974375,163.63594267916665,61.0,92.0
787,163.04071024375,163.64658096666665,54.0,92.0
788,163.59352686875,163.90012681874998,49.0,82.0
789,163.86998500416667,164.14658047916666,54.0,91.0
790,163.86289281249998,164.21927544374998,66.0,88.0
791,163.87175805208332,164.23345982708332,61.0,95.0
792,163.86821195624998,164.23523287499998,58.0,95.0
793,163.18683693124999,164.37707670833333,42.0,90.0
794,164.04019760416665,164.37707670833333,49.0,91.0
795,164.33984270208333,164.4355872895833,54.0,101.0
796,164.89835279583332,165.213955325,58.0,89.0
797,164.90367193958332,165.40899059583333,67.0,83.0
798,164.90189889166666,165.43381326666665,63.0,87.0
799,165.32565734374998,165.93558582708332,46.0,76.0
800,165.73877750833333,165.97281983333332,58.0,92.0
801,165.74055055624999,165.97813897708332,63.0,95.0
802,165.73700446041664,165.97991202499998,67.0,101.0
803,164.91962937083332,165.98345812083332,39.0,92.0
804,166.4086150583333,166.65509380833333,63.0,104.0
805,166.41213618333333,166.65685437083332,58.0,94.0
806,166.86460074583331,166.90685424583333,58.0,80.0
807,166.83291062083333,167.08467105833333,63.0,101.0
808,167.24136112083332,167.32586812083332,58.0,88.0
809,166.97551618333333,167.5617834958333,46.0,87.0
810,166.57586849583333,167.68150174583332,39.0,94.0
811,167.4086145583333,167.77305099583333,58.0,95.0
812,167.83114955833332,167.9226988083333,46.0,94.0
813,167.4138962458333,167.92445937083332,63.0,99.0
814,168.29769862083333,168.4473464333333,61.0,83.0
815,168.2994591833333,168.47375487083332,54.0,71.0
816,168.3487549333333,168.50016330833333,66.0,81.0
817,168.28537468333332,168.73607868333332,58.0,80.0
818,168.64452943333333,169.19734605833332,49.0,90.0
819,169.08995174583333,169.2395995583333,58.0,99.0
820,169.0917123083333,169.2501629333333,54.0,95.0
821,169.08819118333332,169.2536840583333,61.0,99.0
822,168.2589662458333,169.29593755833332,42.0,92.0
823,169.77657112083332,170.03713437083331,54.0,87.0
824,169.76600774583332,170.06530337083333,58.0,97.0
825,169.7695288708333,170.0811484333333,61.0,96.0
826,170.22727512083333,170.2783314333333,61.0,64.0
827,170.2096694958333,170.2836131208333,58.0,72.0
828,170.20086668333332,170.40509193333332,54.0,90.0
829,170.30650043333333,170.97551418333333,49.0,92.0
830,170.77657062083333,171.20614787083332,54.0,91.0
831,170.77481005833332,171.20790843333333,65.0,91.0
832,170.77128893333332,171.2395985583333,58.0,91.0
833,170.7695283708333,171.2395985583333,61.0,91.0
834,169.9121344333333,171.31178162083333,42.0,92.0
835,171.18678168333332,171.4420632458333,49.0,91.0
836,171.47375337083332,171.64276737083333,54.0,86.0
837,172.03361224583333,172.19734455833333,58.0,91.0
838,172.03185168333331,172.22727412083333,55.0,91.0
839,172.72023162083332,172.83466818333332,51.0,91.0
840,172.70790768333333,172.88396393333332,55.0,95.0
841,172.71494993333332,172.8874850583333,58.0,91.0
842,172.71318937083333,172.93502024583333,63.0,90.0
843,172.44558387083333,173.17797787083333,46.0,85.0
844,171.62692230833332,173.1938229333333,39.0,104.0
845,173.16213280833333,173.28185105833333,51.0,88.0
846,173.3135411833333,173.71670999583333,51.0,80.0
847,173.3082594958333,173.7431184333333,55.0,93.0
848,173.3029778083333,173.7589634958333,63.0,92.0
849,173.31002005833332,173.76952687083332,58.0,92.0
850,174.06178024583332,174.15156893333332,51.0,90.0
851,173.73255505833333,174.31882237083332,46.0,77.0
852,173.31178062083333,174.41917443333332,39.0,97.0
853,174.1938224333333,174.42269555833332,51.0,87.0
854,174.1991041208333,174.44910399583333,55.0,97.0
855,174.20086468333332,174.51248424583332,58.0,97.0
856,174.20262524583333,174.5793856208333,63.0,95.0
857,174.6339630583333,174.79762175416667,39.0,97.0
858,175.0763670875,175.4160879625,62.0,82.0
859,175.07462492916665,175.4317673875,58.0,89.0
860,175.06765629583333,175.45615760416666,55.0,83.0
861,175.91957172083332,176.08856107916665,62.0,91.0
862,175.48228997916667,176.1059826625,50.0,62.0
863,175.9178295625,176.13037287916666,58.0,97.0
864,175.91608740416666,176.173806275,55.0,95.0
865,175.91086092916666,176.173806275,67.0,88.0
866,175.07288277083333,176.21186852083332,43.0,95.0
867,176.755120575,177.004255275,62.0,92.0
868,176.75685067708332,177.0146358875,58.0,91.0
869,176.59768128541666,177.01982619375,55.0,95.0
870,177.42434906249997,177.43637654999998,62.0,99.0
871,177.1513139520833,177.48105007499998,50.0,75.0
872,177.4174762125,177.61507064999998,58.0,95.0
873,177.42263085,177.64084383749997,55.0,91.0
874,177.42091263749998,177.694108425,67.0,93.0
875,176.75339047291666,177.81573073124997,43.0,96.0
876,177.59445209999998,177.89449777708333,50.0,89.0
877,177.8516896,178.0258461020833,55.0,104.0
878,177.96292097291663,178.0564583270833,43.0,104.0
879,178.24693439374997,178.3829887270833,55.0,101.0
880,178.75033542708331,179.01394069791664,58.0,104.0
881,178.3523765020833,179.39489283125,46.0,95.0
882,179.17040318124998,179.41189962291665,62.0,95.0
883,179.17720589791665,179.42720573541663,65.0,96.0
884,179.17550521874998,179.45781796041663,58.0,95.0
885,179.82516466041665,180.10407604374998,58.0,90.0
886,179.82006262291665,180.14149098541665,62.0,91.0
887,179.82856601874997,180.17550456874997,70.0,86.0
888,179.82686533958332,180.19591271874998,65.0,92.0
889,180.25883784791665,180.41019829374997,58.0,91.0
890,180.36427995625,180.90169457291665,53.0,84.0
891,179.97142306874997,180.9595176645833,46.0,92.0
892,180.77074227708331,181.02584415208332,70.0,90.0
893,180.77244295625,181.04285094374998,62.0,106.0
894,180.77754499374998,181.06325909375,65.0,101.0
895,180.77414363541664,181.08536792291665,58.0,95.0
896,181.17890527708332,181.27924534791666,46.0,94.0
897,181.5768642020833,181.8574762645833,58.0,86.0
898,181.57516352291665,182.05985708541664,66.0,86.0
899,181.57856488124997,182.07686387708333,61.0,86.0
900,181.98162584374998,182.13468696874997,58.0,84.0
901,182.4135983520833,182.55475472291664,58.0,95.0
902,182.41019699375,182.55985676041664,61.0,99.0
903,182.41189767291664,182.56836015624998,66.0,92.0
904,181.57516352291665,182.57516287291665,42.0,92.0
905,183.05815575625,183.28944812291664,58.0,90.0
906,183.0564550770833,183.32516238541663,61.0,96.0
907,183.05475439791664,183.40339362708332,66.0,91.0
908,183.9952299770833,184.15679449791665,58.0,93.0
909,183.99352929791664,184.2401277770833,61.0,96.0
910,183.98842726041664,184.32516173541666,66.0,91.0
911,183.21631891874998,184.36937939374997,42.0,91.0
912,184.2605359270833,184.39659026041664,49.0,85.0
913,184.4135970520833,184.55985546041666,58.0,96.0
914,184.8166580145833,185.9174033333333,60.0,90.0
915,184.87448110625,187.62261274583332,65.0,91.0
916,184.8166580145833,187.89729387083332,53.0,90.0
917,184.81835869374999,189.91337241875001,41.0,93.0
918,191.93508970208333,192.52881310833334,61.0,81.0
919,191.94104207708332,192.55563302500002,58.0,77.0
920,192.89477705000002,193.0225547,65.0,91.0
921,192.429196275,193.02625840000002,53.0,71.0
922,192.88736965,193.02811025,61.0,83.0
923,192.88736965,193.0484806,58.0,81.0
924,191.92913732708334,193.1003324,46.0,90.0
925,193.64292445,194.08366475000003,56.0,71.0
926,193.71699845,194.13551655,60.0,80.0
927,193.75403545,194.13551655,65.0,79.0
928,194.6225531,194.74292335,60.0,87.0
929,194.6299605,194.75403445,56.0,80.0
930,194.61884940000002,194.78181220000002,65.0,90.0
931,193.7373688,194.82810845,41.0,82.0
932,195.5336633,195.87440370000002,61.0,84.0
933,195.5225522,195.8781074,58.0,78.0
934,195.49107075,195.8855148,54.0,75.0
935,196.40906823333333,196.54951760833333,58.0,91.0
936,196.407195575,196.56075355833335,61.0,88.0
937,196.41468620833334,196.564498875,54.0,86.0
938,195.54477440000002,196.60195204166666,42.0,88.0
939,197.31918018333334,197.44277563333333,37.0,81.0
940,197.3229255,197.95026604166668,61.0,81.0
941,197.32105284166667,197.97086528333332,56.0,76.0
942,198.03828098333332,198.2892172,49.0,79.0
943,198.21992884166667,198.45775645,56.0,90.0
944,198.22554681666668,198.55138936666665,61.0,90.0
945,198.2218015,198.67498481666667,65.0,91.0
946,198.68622076666668,198.811688875,56.0,67.0
947,199.148767375,199.74801804166665,56.0,71.0
948,199.17498459166666,199.75738133333334,61.0,69.0
949,199.61131398333333,200.2892163,53.0,77.0
950,200.013935525,200.31917883333332,61.0,91.0
951,200.01580818333332,200.356632,58.0,89.0
952,199.13191345,200.36974060833333,46.0,80.0
953,200.89864461666667,201.21462928333332,56.0,80.0
954,200.89306841666667,201.29827228333332,60.0,80.0
955,201.39864388333334,201.90390048541667,48.0,57.0
956,201.81630938541667,202.05718491041668,56.0,91.0
957,201.81265975625,202.08273231458335,53.0,94.0
958,201.81265975625,202.10098046041668,60.0,90.0
959,200.91165575,202.25608970000002,41.0,82.0
960,203.10399835208335,203.22630031875002,51.0,84.0
961,202.71550975208334,203.88766879791666,39.0,96.0
962,203.55183937708335,203.9983829729167,55.0,90.0
963,203.55723505208334,204.01266867291667,58.0,90.0
964,203.55363793541667,204.15731138541668,63.0,89.0
965,204.44092424791668,204.78191343125,53.0,86.0
966,204.44622459791668,204.83138336458333,57.0,81.0
967,204.44269103125,204.88438686458335,60.0,85.0
968,204.90382148125,205.47095893125,48.0,76.0
969,205.28014633125,206.01866176458333,57.0,107.0
970,205.28544668125,206.02042854791668,65.0,97.0
971,205.13350331458332,206.02219533125,53.0,97.0
972,205.70064076458334,206.02572889791668,48.0,92.0
973,205.28721346458335,206.03632959791668,60.0,101.0
974,204.44445781458333,206.03809638125,41.0,92.0
975,206.09816701458334,206.62996879791666,58.0,86.0
976,206.09640023125002,206.67943873125,61.0,87.0
977,206.52749536458333,207.13147541875,53.0,83.0
978,206.97376951875,207.44688721875002,58.0,92.0
979,206.09993379791666,207.50961115625,46.0,92.0
980,207.42179764375,207.59563255625,53.0,90.0
981,206.97197740625,207.62430635625,61.0,104.0
982,207.68523818125,207.74796211875,58.0,85.0
983,206.97018529375,207.80710183125,65.0,99.0
984,207.84652830625,208.35297173125,56.0,91.0
985,207.84473619375,208.45048936666666,60.0,92.0
986,208.56928357708333,208.65970902083333,56.0,89.0
987,208.28914200625002,208.8157372375,48.0,79.0
988,207.83935985625,208.9327584,41.0,95.0
989,208.73417703333334,209.19516949166666,60.0,96.0
990,208.7306309375,209.21821911458335,56.0,96.0
991,208.7306309375,209.24304178541666,65.0,95.0
992,209.13843195833334,209.31928284583333,41.0,96.0
993,209.94435744583333,210.17851225833334,54.0,82.0
994,209.56231538333333,210.56935713333334,42.0,93.0
995,210.40210369583332,210.81583588333334,54.0,92.0
996,210.40386425833333,210.88801894583332,58.0,95.0
997,210.40034313333334,210.92499075833334,61.0,94.0
998,210.83168094583334,211.09928644583334,42.0,90.0
999,211.10456813333332,211.15738500833334,54.0,91.0
1000,211.24893425833332,211.50421582083334,56.0,91.0
1001,211.24541313333333,211.73661007083334,61.0,92.0
1002,211.89858182083333,211.97076488333332,56.0,95.0
1003,211.24541313333333,212.21724363333334,49.0,99.0
1004,212.05351132083334,212.28590557083334,56.0,97.0
1005,212.05527188333332,212.44435619583334,61.0,106.0
1006,212.05703244583333,212.67675044583333,65.0,104.0
1007,212.46020125833334,212.70668000833334,49.0,96.0
1008,212.72252507083334,212.80879263333333,56.0,91.0
1009,212.90914469583333,213.35632757083334,58.0,90.0
1010,212.90562357083334,213.36160925833332,61.0,91.0
1011,213.32991913333333,213.83344000833333,53.0,79.0
1012,212.88625738333332,213.90034138333334,46.0,93.0
1013,213.75069357083333,213.94787657083333,58.0,92.0
1014,213.74893300833332,214.23484825833333,61.0,99.0
1015,213.74717244583334,214.26477782083333,65.0,95.0
1016,214.17674969583334,214.26829894583332,46.0,87.0
1017,214.18555250833333,214.49012982083332,58.0,93.0
1018,214.62745369583334,215.09576332083333,56.0,91.0
1019,214.62217200833334,215.15210132083334,60.0,90.0
1020,215.3013258375,215.3954023875,56.0,89.0
1021,215.03766475833334,215.5260642625,48.0,77.0
1022,214.61512975833332,215.6253672875,41.0,91.0
1023,215.45289361250002,215.91630772916668,60.0,97.0
1024,215.44766713750002,215.92676067916668,56.0,91.0
1025,215.45463577083333,215.94069794583334,65.0,97.0
1026,215.86230082083333,216.23860702083334,41.0,95.0
1027,216.36055810416667,216.82048790416667,63.0,86.0
1028,216.2943560875,216.84487812083333,58.0,86.0
1029,216.66369365416668,217.20202057916669,46.0,78.0
1030,216.33268357083335,217.2717069125,39.0,94.0
1031,217.08181165416667,217.46334432916666,63.0,95.0
1032,217.08006949583333,217.47379727916666,58.0,92.0
1033,217.0783273375,217.47379727916666,67.0,92.0
1034,217.9145633375,218.91107790416666,53.0,49.0
1035,217.96508592916666,218.94069459583335,57.0,78.0
1036,217.91107902083334,218.97379560416667,41.0,90.0
1037,218.0399987375,218.9755377625,60.0,70.0
1038,219.66976085000002,220.2276554125,58.0,90.0
1039,219.65397138125002,220.24870803750002,61.0,83.0
1040,220.08905896458336,220.66274299583336,53.0,77.0
1041,219.64344506875003,220.74344472500002,46.0,91.0
1042,220.52590093333336,220.80133944375,58.0,92.0
1043,220.52414654791667,220.84695346458335,61.0,97.0
1044,220.9434446625,221.06800602708336,46.0,90.0
1045,221.21011124583336,221.26274280833334,58.0,77.0
1046,220.52765531875002,221.29432174583334,65.0,99.0
1047,221.35221646458336,221.80309351666668,56.0,87.0
1048,221.35046207916668,221.89607594375002,60.0,91.0
1049,222.0451987041667,222.1223916625,56.0,86.0
1050,221.35397085000002,222.37677754791667,41.0,92.0
1051,222.19256707916668,222.46975997500002,56.0,92.0
1052,222.19081269375002,222.68379499583335,60.0,101.0
1053,222.61361957916668,222.82765460000002,41.0,89.0
1054,222.18905830833336,222.85923353750002,65.0,94.0
1055,223.02940892291667,223.46625089166668,58.0,80.0
1056,223.0276545375,223.5083561416667,54.0,85.0
1057,223.42063687083336,223.9451981104167,49.0,76.0
1058,223.03467207916668,224.0030928291667,42.0,91.0
1059,223.85221568333336,224.2083559229167,54.0,91.0
1060,223.84695252708335,224.22239100625,58.0,92.0
1061,223.8487069125,224.2504611729167,61.0,91.0
1062,224.26449625625003,224.48028566250002,42.0,90.0
1063,224.53642599583335,224.6241452666667,54.0,93.0
1064,224.71011015208336,225.01186444375003,56.0,87.0
1065,224.7083557666667,225.22765385000002,61.0,90.0
1066,225.39607485000002,225.47677657916668,56.0,91.0
1067,224.6925662979167,225.70835545416668,49.0,90.0
1068,225.54344322500003,225.93642555833335,56.0,91.0
1069,225.54695199583335,225.9978290479167,65.0,96.0
1070,225.54695199583335,225.99958343333336,61.0,95.0
1071,225.96098695416669,226.21537283958335,49.0,104.0
1072,226.37502191250002,226.806600725,58.0,90.0
1073,226.37502191250002,226.81010949583336,61.0,90.0
1074,227.06800415208335,227.18554797500002,58.0,85.0
1075,226.79081125625,227.32589880833336,53.0,81.0
1076,226.3820394541667,227.41712685000002,46.0,90.0
1077,227.2399339229167,227.63291625625,58.0,91.0
1078,227.24168830833335,227.69431974583335,65.0,97.0
1079,227.23817953750003,227.71888114166669,61.0,97.0
1080,227.64695133958335,227.76449516250003,53.0,94.0
1081,228.08730207916668,228.52063527708336,56.0,89.0
1082,228.08379330833336,228.6276527875,60.0,90.0
1083,228.7346702979167,228.8136176416667,56.0,86.0
1084,228.0802845375,229.09958246458336,41.0,93.0
1085,228.8908106,229.4097174166667,56.0,91.0
1086,228.88905621458335,229.54212145000002,60.0,95.0
1087,229.31888064166668,229.58567540833337,41.0,95.0
1088,228.89431937083336,229.60483915000003,65.0,92.0
1089,229.71633728333336,230.1727827666667,63.0,92.0
1090,229.7180794416667,230.3922947166667,51.0,84.0
1091,230.1205180166667,230.6170331416667,46.0,83.0
1092,229.69020490833336,230.70414105833336,39.0,94.0
1093,230.55083112500003,230.96894912500002,51.0,93.0
1094,230.5490889666667,231.0351511416667,55.0,95.0
1095,230.54560465000003,231.0403776166667,58.0,95.0
1096,230.94804322500002,231.2285307166667,39.0,95.0
1097,231.2233042416667,231.28776410000003,51.0,93.0
1098,230.54037817500003,231.3538455541667,63.0,93.0
1099,231.38844759583336,231.59259964166668,51.0,87.0
1100,231.3901776979167,231.7119766854167,53.0,87.0
1101,231.35730575833335,231.89536750625,57.0,83.0
1102,232.04588638750002,232.13758179791668,53.0,92.0
1103,231.7638797479167,232.2777200666667,48.0,86.0
1104,231.36768637083335,232.37979608958335,41.0,99.0
1105,232.19813537083334,232.69294456666668,53.0,93.0
1106,232.20159557500003,232.98706192083336,57.0,104.0
1107,232.20678588125003,233.0009027375,60.0,99.0
1108,232.62201038125002,233.00263283958336,48.0,94.0
1109,232.19986547291668,233.01128335,65.0,95.0
1110,232.93342875625,233.04242518750002,53.0,97.0
1111,233.05453590208336,233.57702673125002,58.0,86.0
1112,233.05280580000002,233.62373948750002,61.0,87.0
1113,233.47495070833335,234.06145531458336,53.0,83.0
1114,233.90920633125003,234.36768338333334,58.0,92.0
1115,233.05799610625002,234.4265068541667,46.0,92.0
1116,234.34173185208334,234.51128185625,53.0,90.0
1117,233.9074762291667,234.53896348958335,61.0,104.0
1118,234.5977869604167,234.65661043125002,58.0,85.0
1119,233.90574612708335,234.71370380000002,65.0,99.0
1120,234.75349614791668,235.24311503750002,56.0,91.0
1121,234.75003594375002,235.34000075416668,60.0,92.0
1122,235.45591759375003,235.5424226979167,56.0,89.0
1123,235.18256146458336,235.69640178333336,48.0,79.0
1124,234.74484563750002,235.81058852083336,41.0,95.0
1125,235.6150869854167,236.06491352708335,60.0,96.0
1126,235.61335688333335,236.0874048541667,56.0,96.0
1127,235.61162678125,236.11162628333335,65.0,95.0
1128,236.0095502604167,236.1860206729167,41.0,96.0
1129,236.80020691250002,237.03031048958334,54.0,82.0
1130,236.42477476041668,237.41439315208336,42.0,93.0
1131,237.2500334541667,237.65833754583335,54.0,92.0
1132,237.25176355625,237.7275416291667,58.0,95.0
1133,237.24830335208335,237.765603875,61.0,94.0
1134,237.6721783625,237.93515387916668,42.0,90.0
1135,237.94034418541668,237.99224724791668,54.0,91.0
1136,238.08221255625003,238.3348074604167,56.0,91.0
1137,238.07875235208334,238.56145083333334,61.0,92.0
1138,238.72235032708335,238.7932845125,56.0,95.0
1139,238.08048245416668,239.03376870208336,49.0,99.0
1140,238.87286920833336,239.10124268333334,56.0,97.0
1141,238.8745993104167,239.25742206458335,61.0,106.0
1142,238.8763294125,239.48738696458335,65.0,104.0
1143,239.27310148958335,239.51700365625,49.0,96.0
1144,239.53268308125,239.61804883958334,56.0,91.0
1145,239.71735186458335,240.16248553125,58.0,90.0
1146,239.71560970625,240.16598203125,61.0,91.0
1147,240.13626178125,240.63626128125,53.0,79.0
1148,239.69470380625,240.70269478125,46.0,93.0
1149,240.55409353125,240.74814928125,58.0,92.0
1150,240.55234528125,241.03311403125,61.0,99.0
1151,240.55059703125,241.06283428125,65.0,95.0
1152,240.97542178125,241.06807903125,46.0,87.0
1153,240.98591128125,241.28720128125,58.0,93.0
1154,241.42452515624998,241.89283478125,56.0,91.0
1155,241.41924346874998,241.94929763541666,60.0,90.0
1156,242.10000670833332,242.19752434375,56.0,89.0
1157,241.83649678125,242.32872988958334,48.0,77.0
1158,241.41220121875,242.42979362083332,41.0,91.0
1159,242.25426187708334,242.72766567083332,60.0,97.0
1160,242.24894273333334,242.73830395833332,56.0,91.0
1161,242.256034925,242.75248834166666,65.0,97.0
1162,242.6709281375,243.05567953541666,41.0,95.0
1163,243.17801984166667,243.64610449166668,63.0,86.0
1164,243.11241706875,243.67270021041665,58.0,86.0
1165,243.48653017916666,244.03617503333334,46.0,78.0
1166,243.149651075,244.10532390208334,39.0,94.0
1167,243.91206167916667,244.30213222083333,63.0,95.0
1168,243.90851558333333,244.31099746041667,67.0,92.0
1169,243.91028863124998,244.31277050833333,58.0,92.0
1170,244.77376296666665,245.59291110416666,41.0,79.0
1171,244.65851485208333,246.56099526666665,60.0,77.0
1172,244.78085515833334,246.56986050625,69.0,70.0
1173,244.72766372083333,246.57517965,65.0,79.0
1174,244.84823097916666,246.59113708125,72.0,79.0
1175,246.54503783541665,246.94220056875,61.0,88.0
1176,246.5432647875,246.97234238333334,58.0,86.0
1177,246.91560485,247.50071066249998,53.0,76.0
1178,246.55035697916665,247.53794466875,46.0,92.0
1179,247.36950511666666,247.63368925625,58.0,89.0
1180,247.36773206875,247.7241147,61.0,93.0
1181,248.03439808541665,248.12127743333332,58.0,75.0
1182,247.37127816458332,248.20992982916667,65.0,91.0
1183,248.21702202083333,248.70638324583334,56.0,89.0
1184,248.21524897291667,248.74893639583334,60.0,91.0
1185,248.61773085,249.1709218,48.0,73.0
1186,248.22234116458333,249.25780114791667,41.0,92.0
1187,249.07163111666665,249.3411344,56.0,91.0
1188,249.06985806875,249.37127621458333,60.0,94.0
1189,249.06985806875,249.46524775416665,65.0,94.0
1190,249.490070425,249.61241073125,41.0,91.0
1191,249.78262333125,249.84468000833334,56.0,90.0
1192,249.93333240416666,250.39301389375,54.0,91.0
1193,249.92801326041666,250.40181670625,58.0,91.0
1194,250.34547870625,250.86660520625,49.0,76.0
1195,249.91737497291666,250.89301364375,42.0,91.0
1196,250.78737989375,251.20287264375,54.0,91.0
1197,250.78561933125,251.21871770625,58.0,94.0
1198,250.78914045625,251.21871770625,61.0,93.0
1199,251.47223870625,251.54794289375,54.0,91.0
1200,251.63949214375,251.88421033125,56.0,88.0
1201,251.63068933125,252.20111158125,61.0,91.0
1202,252.29794251875,252.36132276875,56.0,83.0
1203,251.62540764375,252.66942120625,49.0,97.0
1204,252.46167483125,252.67998458125,56.0,92.0
1205,252.46343539375,252.82259014375,61.0,93.0
1206,252.46519595625,252.93878726875,65.0,94.0
1207,252.89301264375,253.08491395625,49.0,90.0
1208,253.17294208125,253.26449133124999,56.0,88.0
1209,253.31202651875,253.66766014375,56.0,87.0
1210,253.31906876875,253.81026570625,61.0,90.0
1211,253.77329389375,254.27681476875,53.0,79.0
1212,253.31026595625,254.32258939375,46.0,91.0
1213,254.17118101875,254.38949076875,58.0,91.0
1214,254.16765989375,254.43174426875,61.0,95.0
1215,254.17470214375,254.44054708125,65.0,96.0
1216,255.01801158125,255.16237770625,58.0,83.0
1217,255.01625101875,255.16589883125,56.0,85.0
1218,255.01272989375,255.25216639375,61.0,80.0
1219,255.67998308125,255.76801120625,56.0,76.0
1220,255.39653251875,255.96519420625,48.0,81.0
1221,255.84371539375,256.12188426875,56.0,92.0
1222,255.84723651875,256.20991239375,60.0,99.0
1223,255.01096933125,256.33139120625,41.0,95.0
1224,255.84195483125,256.37188414375,65.0,92.0
1225,256.25392645625,256.38596864375,48.0,92.0
1226,256.68897255625,257.1091849125,58.0,86.0
1227,256.6925186520833,257.35563857291663,63.0,83.0
1228,256.6942917,257.81308493541667,39.0,92.0
1229,257.54890079583333,257.8751416125,58.0,91.0
1230,257.55067384374996,257.9726592479166,63.0,92.0
1231,258.0045741104166,258.15705623125,46.0,56.0
1232,258.22265900416664,258.35209150208334,58.0,79.0
1233,258.42124037083335,259.3219487125,63.0,86.0
1234,258.41946732291666,259.3308139520833,67.0,84.0
1235,258.40882903541666,259.3414522395833,58.0,85.0
1236,258.40350989166666,259.35918271875,39.0,91.0
1237,260.11257837708337,260.50694437708336,61.0,88.0
1238,260.11081781458336,260.53687393958336,58.0,86.0
1239,260.4805359395833,261.06152156458336,53.0,76.0
1240,260.11786006458334,261.09673281458333,46.0,92.0
1241,260.93123993958335,261.1935637520833,58.0,89.0
1242,260.92947937708334,261.2833524395833,61.0,93.0
1243,261.5908845020833,261.6748005020833,58.0,75.0
1244,260.93300050208336,261.76396125208333,65.0,91.0
1245,261.7709542520833,262.25347125208333,56.0,89.0
1246,261.7692060020833,262.2936810020833,60.0,91.0
1247,262.1660587520833,262.7115127520833,48.0,73.0
1248,261.77619900208333,262.79717700208334,41.0,92.0
1249,262.61361075208333,262.87759650208335,56.0,91.0
1250,262.61186250208334,262.9090650020833,60.0,94.0
1251,262.61186250208334,263.0017222520833,65.0,94.0
1252,263.0261977520833,263.14682700208334,41.0,91.0
1253,263.31424625625,263.37501012083334,56.0,90.0
1254,263.46007953125,263.91320435,54.0,91.0
1255,263.45660731041664,263.9218849020833,58.0,91.0
1256,263.86632936875,264.3784819416667,49.0,76.0
1257,263.44619064791664,264.40452359791664,42.0,91.0
1258,264.3020930833333,264.71181514166665,54.0,91.0
1259,264.30035697291663,264.72570402499997,58.0,94.0
1260,264.30382919375,264.72570402499997,61.0,93.0
1261,264.9777872604167,265.05322583333333,54.0,91.0
1262,265.144453875,265.38831344791663,56.0,88.0
1263,265.1356819479167,265.70410282291664,61.0,91.0
1264,265.80059402083333,265.86375189583333,56.0,83.0
1265,265.13041879166667,266.17076934375,49.0,97.0
1266,265.96375186458334,266.18129565625,56.0,92.0
1267,265.96550625,266.32358750000003,61.0,93.0
1268,265.96726063541666,266.4406086625,65.0,94.0
1269,266.39450941666666,266.58777163958337,49.0,90.0
1270,266.6764240354167,266.7686225270833,56.0,88.0
1271,266.8164948208333,267.17287745208336,56.0,87.0
1272,266.8235870125,267.31826738125,61.0,90.0
1273,267.281033375,267.78812507916666,53.0,79.0
1274,266.8147217729167,267.83422432500004,46.0,91.0
1275,267.68174220416665,267.90160014583336,58.0,91.0
1276,267.67819610833334,267.94415329583336,61.0,95.0
1277,267.68351525208334,267.9530185354167,65.0,96.0
1278,268.5332626895833,268.6781389229167,58.0,83.0
1279,268.52972912291665,268.6816724895833,56.0,85.0
1280,268.5279623395833,268.7682448729166,61.0,80.0
1281,269.1975732229167,269.28586884375,56.0,76.0
1282,268.91312110625,269.48129128125,48.0,81.0
1283,269.36157303125,269.63974190625,56.0,92.0
1284,269.36333359375,269.72600946874996,60.0,99.0
1285,268.52619555625,269.84924884375,41.0,95.0
1286,269.35981246874996,269.88974178125,65.0,92.0
1287,269.77178409375,269.90381396875,48.0,92.0
1288,270.20101646875,270.61422288750003,58.0,86.0
1289,270.20623693958333,270.853806125,63.0,83.0
1290,270.20797305,271.30216693125004,39.0,92.0
1291,271.04438172083337,271.3627205041667,58.0,91.0
1292,271.0461118229167,271.45787611875005,63.0,92.0
1293,271.48901795625005,271.6378067354167,46.0,56.0
1294,271.70182051250003,271.8281179645834,58.0,79.0
1295,271.8246577604167,272.08112322708337,60.0,84.0
1296,271.83157816875,272.1086146270834,65.0,92.0
1297,271.8177373520834,272.1704702770834,69.0,83.0
1298,272.51239456458336,272.6068962520834,65.0,93.0
1299,272.6670336895834,272.89211952708337,65.0,94.0
1300,272.6601608395834,273.4093014895834,69.0,94.0
1301,273.0690954145834,273.4247654020834,65.0,101.0
1302,272.2237348645834,273.4264836145834,48.0,79.0
1303,272.6618790520834,273.4471021645834,72.0,92.0
1304,271.82984806666667,273.4522568020834,41.0,95.0
1305,273.49693032708336,273.8818099270834,61.0,88.0
1306,273.4952121145834,273.9110195395834,58.0,86.0
1307,273.8560367395834,274.4246991270834,53.0,76.0
1308,273.5020849645834,274.4612844520834,46.0,92.0
1309,274.2958991395834,274.5571031604167,58.0,89.0
1310,274.2941809270834,274.64595323541675,61.0,93.0
1311,274.94908878541673,275.0346251104167,58.0,75.0
1312,274.29761735208336,275.1220376104167,65.0,91.0
1313,275.1290306104167,275.6132958604167,56.0,89.0
1314,275.1272823604167,275.6535056104167,60.0,91.0
1315,275.5258833604167,276.0695891104167,48.0,73.0
1316,275.1360236104167,276.15525336041674,41.0,92.0
1317,275.9734353604167,276.23742111041673,56.0,91.0
1318,275.96993886041673,276.2671413604167,60.0,94.0
1319,275.9716871104167,276.3597986104167,65.0,94.0
1320,276.3842741104167,276.50490336041673,41.0,91.0
1321,276.6727353604167,276.7339241104167,56.0,90.0
1322,276.8213366104167,277.2758816104167,54.0,91.0
1323,276.8160918604167,277.28462286041673,58.0,91.0
1324,277.2304271104167,277.7461608604167,49.0,76.0
1325,276.8056023604167,277.77238461041674,42.0,91.0
1326,277.66923786041673,278.0818248604167,54.0,91.0
1327,277.66748961041674,278.0958108604167,58.0,94.0
1328,277.6709861104167,278.0958108604167,61.0,93.0
1329,278.3493071104167,278.42448186041673,54.0,91.0
1330,278.5153908604167,278.7583976104167,56.0,88.0
1331,278.50490136041674,279.0730826104167,61.0,91.0
1332,279.16923636041673,279.2304251104167,56.0,83.0
1333,278.5014048604167,279.5381171104167,49.0,97.0
1334,279.33182361041673,279.5486066104167,56.0,92.0
1335,279.3335718604167,279.6902148604167,61.0,93.0
1336,279.3335718604167,279.8055993604167,65.0,94.0
1337,279.7583966104167,279.9507041104167,49.0,90.0
1338,280.0363683604167,280.1290256104167,56.0,88.0
1339,280.1744801104167,280.5276266104167,56.0,87.0
1340,280.18147311041673,280.66923486041674,61.0,90.0
1341,280.6325216104167,281.1325211104167,53.0,79.0
1342,280.1727318604167,281.1779756104167,46.0,91.0
1343,281.0293743604167,281.2444091104167,58.0,91.0
1344,281.0241296104167,281.28636711041673,61.0,95.0
1345,281.03112261041673,281.2951083604167,65.0,96.0
1346,281.86853436041673,282.0118908604167,58.0,83.0
1347,281.8667861104167,282.0153873604167,56.0,85.0
1348,281.8650378604167,282.1027998604167,61.0,80.0
1349,282.52412826041666,282.61093378125,56.0,76.0
1350,282.2444081104167,282.80537814791666,48.0,81.0
1351,282.68732263958333,282.9616280854167,56.0,92.0
1352,282.68905875,283.04669749583337,60.0,99.0
1353,281.8632896104167,283.168225225,41.0,95.0
1354,282.6855865291667,283.20815576458335,65.0,92.0
1355,283.09183636666666,283.2220446479167,48.0,92.0
1356,283.51718341875,283.92907265,58.0,86.0
1357,283.52239175,284.167003625,63.0,83.0
1358,283.5241278604167,284.6135552375,39.0,92.0
1359,284.35665875,284.67390005,58.0,91.0
1360,284.3583828875,284.767003475,63.0,92.0
1361,284.79803795000004,284.946313775,46.0,56.0
1362,285.01183100000003,285.1359689,58.0,79.0
1363,285.1756240625,285.622175675,53.0,91.0
1364,285.1825206125,285.66700325,57.0,86.0
1365,285.17734820000004,285.718727375,60.0,83.0
1366,285.8445894125,285.96010662500004,53.0,96.0
1367,285.5790722375,286.13941692500003,48.0,90.0
1368,286.001485925,286.456658225,53.0,86.0
1369,286.0032100625,286.76527883750003,57.0,97.0
1370,286.7342443625,286.77045125,53.0,76.0
1371,286.4204513375,286.7790719375,48.0,101.0
1372,286.0101066125,286.78769262500003,60.0,99.0
1373,285.17045165,286.79803745000004,41.0,93.0
1374,286.01527902500004,286.8032098625,65.0,97.0
1375,286.85493398750003,287.2411407875,61.0,88.0
1376,286.85320985,287.270451125,58.0,86.0
1377,287.215278725,287.7842441,53.0,76.0
1378,286.8601064,287.8204509875,46.0,92.0
1379,287.656657925,287.91527855000004,58.0,89.0
1380,287.6549337875,288.0032095625,61.0,93.0
1381,288.3032094875,288.387692225,58.0,75.0
1382,287.65838206250004,288.47389910000004,65.0,91.0
1383,288.48079565,288.9583817375,56.0,89.0
1384,288.4790715125,288.9980369,60.0,91.0
1385,288.8721748625,289.408381625,48.0,73.0
1386,288.48596806250004,289.49286436250003,41.0,92.0
1387,289.31355406250003,289.573898825,56.0,91.0
1388,289.3101057875,289.60320916250004,60.0,94.0
1389,289.31182992500004,289.69458845,65.0,94.0
1390,289.718726375,289.83769186250004,41.0,91.0
1391,290.0032090625,290.063553875,56.0,90.0
1392,290.14976075000004,290.59803650000003,54.0,91.0
1393,290.1445883375,290.6066571875,58.0,91.0
1394,290.55320892500004,291.0618294875,49.0,76.0
1395,290.1342435125,291.08769155,42.0,91.0
1396,290.9859674375,291.3928638875,54.0,91.0
1397,290.9825191625,291.4066569875,58.0,94.0
1398,290.987691575,291.4066569875,61.0,93.0
1399,291.6549327875,291.7307948375,54.0,91.0
1400,291.8204499875,292.0601051,56.0,88.0
1401,291.8101051625,292.37044985,61.0,91.0
1402,292.46527741250003,292.525622225,56.0,83.0
1403,291.80493275000003,292.829070425,49.0,97.0
1404,292.6256222,292.83941525,56.0,92.0
1405,292.6273463375,292.97907038750003,61.0,93.0
1406,292.6273463375,293.0928634625,65.0,94.0
1407,293.04631175000003,293.23596687500003,49.0,90.0
1408,293.3204496125,293.4118289,56.0,88.0
1409,293.456656475,293.80493225000004,56.0,87.0
1410,293.463553025,293.9445873875,61.0,90.0
1411,293.9083805,294.401483825,53.0,79.0
1412,293.4549323375,294.4463114,46.0,91.0
1413,294.2997597125,294.511828625,58.0,91.0
1414,294.2945873,294.55320792500004,61.0,95.0
1415,294.30148385,294.5618286125,65.0,96.0
1416,295.1376905375,295.5963111125,60.0,82.0
1417,295.1480353625,295.642862825,65.0,90.0
1418,295.539414575,296.1204489125,48.0,85.0
1419,295.9549317125,296.1687247625,60.0,92.0
1420,295.153207775,296.2618281875,41.0,91.0
1421,295.9583799875,296.367000575,65.0,97.0
1422,295.953207575,296.3773454,68.0,92.0
1423,296.3825178125,296.4549315875,60.0,90.0
1424,296.78424185,297.029069375,51.0,65.0
1425,296.9307935375,297.2756210375,63.0,81.0
1426,296.82217287500004,297.30320723750003,55.0,80.0
1427,296.8618280375,297.3170003375,58.0,79.0
1428,296.81010391250004,297.80665538750003,39.0,93.0
1429,297.19803485,297.87217261250004,46.0,79.0
1430,298.3549311125,299.718723875,53.0,78.0
1431,298.56355175,299.746310075,65.0,91.0
1432,298.43251730000003,299.7687238625,57.0,77.0
1433,298.5238965875,299.7997583375,60.0,78.0
1434,300.0601031,300.2894133875,53.0,82.0
1435,299.56010322500003,300.3342409625,48.0,85.0
1436,298.525620725,300.3359651,41.0,92.0
1437,300.546309875,300.718723625,57.0,74.0
1438,300.54975815,301.3428614,60.0,79.0
1439,302.6307921125,304.0376883125,56.0,82.0
1440,303.0480333875,304.215274475,65.0,70.0
1441,302.83941275,304.2945848,61.0,78.0
1442,302.41182665,304.8963087875,53.0,76.0
1443,302.235964625,304.932515675,46.0,92.0
