,start,end,pitch,velocity
0,16.77386885625,17.095497925,64.0,99.0
1,17.11094735625,17.48735168125,69.0,107.0
2,17.44802585625,17.7724639125,67.0,100.0
3,17.78510435625,18.1544862125,66.0,90.0
4,18.12218285625,18.50982313125,64.0,86.0
5,18.45926135625,18.869373531249998,62.0,75.0
6,18.79633985625,19.764036049999998,64.0,85.0
7,20.48173235625,20.7106648375,66.0,112.0
8,20.81881085625,21.10251859375,67.0,117.0
9,21.15588935625,21.50420380625,66.0,107.0
10,21.49296785625,21.8230238875,64.0,88.0
11,21.830046356249998,22.1348215,60.0,99.0
12,22.16712485625,22.696619,62.0,96.0
13,22.84128185625,23.1544839625,64.0,96.0
14,23.17836035625,24.46206764375,57.0,78.0
15,24.86375285625,25.124988693749998,62.0,99.0
16,25.20083135625,25.393247,62.0,72.0
17,25.53790985625,25.714876068749998,62.0,78.0
18,25.87498835625,26.15307811875,62.0,93.0
19,26.21206685625,26.5617858,60.0,78.0
20,26.549145356249998,26.83004410625,62.0,95.0
21,26.886223856249998,27.40588654375,64.0,93.0
22,27.56038085625,27.7527965,69.0,122.0
23,27.89745935625,28.084257025,69.0,112.0
24,28.23453785625,28.51262761875,66.0,112.0
25,28.57161635625,28.82723421875,64.0,99.0
26,28.908694856249998,29.23734639375,66.0,112.0
27,29.245773356249998,29.4578519125,66.0,102.0
28,29.58285185625,29.8848180125,66.0,100.0
29,29.91993035625,30.206447081249998,62.0,89.0
30,30.25700885625,30.938188325,64.0,86.0
31,30.93116585625,31.2612218875,66.0,112.0
32,31.268244356249998,32.6320077875,64.0,92.0
33,32.95363685625,33.2162771875,64.0,99.0
34,33.29071535625,33.65026575625,69.0,97.0
35,33.62779385625,33.83565893125,67.0,107.0
36,33.96487235625,34.1151531875,66.0,107.0
37,34.30195085625,34.57723163125,64.0,88.0
38,34.63902935625,34.99015279375,62.0,83.0
39,34.976107856249996,35.9100962,64.0,93.0
40,36.66150035625,36.8567249875,66.0,122.0
41,36.99857885625,37.21206190625,67.0,99.0
42,37.335657356249996,37.582848256249996,66.0,122.0
43,37.67273585625,37.83846611875,64.0,100.0
44,38.00981435625,38.241555825,60.0,95.0
45,38.34689285625,38.808971299999996,62.0,99.0
46,39.02104985625,39.25419581875,64.0,107.0
47,39.35812835625,40.3230155625,57.0,102.0
48,41.04352085625,41.3735768875,62.0,112.0
49,41.71767785625,41.8342508375,62.0,117.0
50,42.054756356249996,42.20082370625,62.0,99.0
51,42.39183485625,42.5982954375,60.0,95.0
52,42.72891335625,42.92273349375,62.0,96.0
53,43.06599185625,43.601103975,64.0,99.0
54,43.74014885625,44.0224521,69.0,102.0
55,44.07722735625,44.21767673125,67.0,96.0
56,44.414305856249996,44.55194624375,66.0,107.0
57,44.75138435625,44.97610335625,64.0,97.0
58,45.08846285625,45.264024575,66.0,117.0
59,45.42554135625,45.58565364375,66.0,127.0
60,45.76261985625,45.91711416875,66.0,117.0
61,46.09969835625,46.27104659375,62.0,96.0
62,46.43677685625,46.68958573125,64.0,99.0
63,47.11093385625,47.42554045625,66.0,122.0
64,47.44801235625,48.2443603125,64.0,107.0
65,49.133404856249996,49.5730114,69.0,127.0
66,49.80756185625,50.30475264375,69.0,122.0
67,50.48171885625,50.95362875625,69.0,117.0
68,51.15587585625,51.612336325,71.0,127.0
69,51.83003285625,52.3173921875,64.0,127.0
70,52.50418985625,52.771043668749996,71.0,122.0
71,53.17834685625,53.50980738125,69.0,122.0
72,53.51542535625,53.7612117625,67.0,97.0
73,53.852503856249996,54.11935766875,64.0,99.0
74,54.18958235625,54.456436168749995,62.0,95.0
75,54.52666085625,54.7415484,64.0,99.0
76,54.86373935625,55.17553696875,69.0,112.0
77,55.20081785625,55.432559325,67.0,102.0
78,55.53789635625,56.1039073375,67.0,112.0
79,57.22328885625,57.6544684375,62.0,100.0
80,57.89744585625,58.3791872125,62.0,102.0
81,58.571602856249996,59.028063325,62.0,100.0
82,59.24575985625,59.705029312499995,64.0,102.0
83,59.91991685625,60.338455993749996,57.0,95.0
84,60.59407385625,60.9466017875,64.0,122.0
85,61.26823085625,61.56177005,62.0,112.0
86,61.94238785625,62.0926686875,62.0,97.0
87,62.27946635625,62.43115168125,57.0,99.0
88,62.61654485625,62.747162775,60.0,92.0
89,62.95362335625,63.11935361875,57.0,89.0
90,63.290701856249996,64.16429696875,59.0,102.0
91,65.797995,66.0399541875,64.0,99.0
92,66.11439235625001,66.47394275625,69.0,97.0
93,66.45147085625,66.65933593125,67.0,107.0
94,66.78854935625,66.9388301875,66.0,107.0
95,67.12562785625,67.40090863125,64.0,88.0
96,67.46270635625001,67.81382979375,62.0,83.0
97,67.79978485625,68.7337732,64.0,93.0
98,69.48517735625,69.6804019875,66.0,122.0
99,69.82225585625001,70.03573890625,67.0,99.0
100,70.15933435625,70.40652525625,66.0,122.0
101,70.49641285625,70.66214311875001,64.0,100.0
102,70.83349135625001,71.06523282500001,60.0,95.0
103,71.17056985625,71.6326483,62.0,99.0
104,71.84472685625,72.07787281875001,64.0,107.0
105,72.18180535625001,73.14669256250001,57.0,102.0
106,73.86719785625,74.03573710625,62.0,112.0
107,74.20427635625,74.37281560625,62.0,112.0
108,74.54135485625,74.6579278375,62.0,117.0
109,74.87843335625,75.02450070625,62.0,99.0
110,75.21551185625,75.4219724375,60.0,95.0
111,75.55259035625001,75.74641049375,62.0,96.0
112,75.88966885625,76.424780975,64.0,99.0
113,76.56382585625,76.8461291,69.0,102.0
114,76.90090435625001,77.04135373125,67.0,96.0
115,77.23798285625,77.37562324375,66.0,107.0
116,77.57506135625,77.79978035625,64.0,97.0
117,77.91213985625001,78.087701575,66.0,117.0
118,78.24921835625,78.40652165625,62.0,96.0
119,78.58629685625,78.74500465,64.0,100.0
120,78.92337535625,79.12843144375,60.0,100.0
121,79.26045385625,79.413543675,62.0,95.0
122,79.59753235625,79.81944236875,55.0,92.0
123,79.93461085625,81.33629561875,57.0,95.0
124,81.95708185625,82.3966884,69.0,127.0
125,82.63123885625001,83.12842964375,69.0,122.0
126,83.30539585625,83.77730575625,69.0,117.0
127,83.97955285625,84.436013325,71.0,127.0
128,84.65370985625,85.1410691875,64.0,127.0
129,85.32786685625,85.59472066875,71.0,122.0
130,86.00202385625,86.33348438125,69.0,122.0
131,86.33910235625001,86.5848887625,67.0,97.0
132,86.67618085625,86.94303466875,64.0,99.0
133,87.01325935625,87.28011316875,62.0,95.0
134,87.35033785625001,87.5652254,64.0,99.0
135,87.68741635625,87.99921396875,69.0,112.0
136,88.02449485625,88.256236325,67.0,102.0
137,88.36157335625,88.92758433750001,67.0,112.0
138,90.04696585625,90.4781454375,62.0,100.0
139,90.72112285625,91.2028642125,62.0,102.0
140,91.39527985625,91.85174032500001,62.0,100.0
141,92.06943685625001,92.5287063125,64.0,102.0
142,92.74359385625,93.16213299375,57.0,95.0
143,93.41775085625,93.7702787875,64.0,122.0
144,94.09190785625,94.38544705000001,62.0,112.0
145,94.76606485625,94.9163456875,62.0,97.0
146,95.10314335625,95.25482868125,57.0,99.0
147,95.44022185625,95.570839775,60.0,92.0
148,95.77730035625001,95.94303061875,57.0,89.0
149,96.11437885625,96.98797396875,59.0,102.0
150,98.483374,98.784321925,64.0,99.0
151,98.79977135625,99.17617568125,69.0,107.0
152,99.13684985625,99.4612879125,67.0,100.0
153,99.47392835625,99.8433102125,66.0,90.0
154,99.81100685625,100.19864713125,64.0,86.0
155,100.14808535625001,100.55819753125,62.0,75.0
156,100.48516385625,101.45286005,64.0,85.0
157,102.17055635625,102.3994888375,66.0,112.0
158,102.50763485625001,102.79134259375,67.0,117.0
159,102.84471335625,103.19302780625,66.0,107.0
160,103.18179185625,103.5118478875,64.0,88.0
161,103.51887035625,103.8236455,60.0,99.0
162,103.85594885625,104.385443,62.0,96.0
163,104.53010585625,104.8433079625,64.0,96.0
164,104.86718435625,106.15089164375,57.0,78.0
165,106.55257685625,106.81381269375,62.0,99.0
166,106.88965535625,107.082071,62.0,72.0
167,107.22673385625001,107.40370006875,62.0,78.0
168,107.56381235625,107.84190211875,62.0,93.0
169,107.90089085625,108.2506098,60.0,78.0
170,108.23796935625,108.51886810625,62.0,95.0
171,108.57504785625,109.09471054375,64.0,93.0
172,109.24920485625,109.4416205,69.0,122.0
173,109.58628335625,109.773081025,69.0,112.0
174,109.92336185625,110.20145161875,66.0,112.0
175,110.26044035625,110.51605821875,64.0,99.0
176,110.59751885625,110.92617039375,66.0,112.0
177,110.93459735625,111.2169006,62.0,97.0
178,111.27167585625,111.51886675625,64.0,95.0
179,111.60875435625,111.9135295,60.0,95.0
180,111.94583285625001,112.24358553125,62.0,95.0
181,112.28291135625,112.66212466875,55.0,86.0
182,112.61998985625,113.85875334375,57.0,95.0
183,130.82222885625,131.2618354,69.0,127.0
184,131.49638585625001,131.99357664375,69.0,122.0
185,132.17054285625,132.64245275625,69.0,117.0
186,132.84469985625,133.301160325,71.0,127.0
187,133.51885685625,134.0062161875,64.0,127.0
188,134.19301385625,134.45986766875,71.0,122.0
189,134.86717085625,135.19863138125,69.0,122.0
190,135.20424935625,135.4500357625,67.0,97.0
191,135.54132785625,135.80818166875,64.0,99.0
192,135.87840635625,136.14526016874999,62.0,95.0
193,136.21548485625,136.4303724,64.0,99.0
194,136.55256335625,136.86436096875,69.0,112.0
195,136.88964185625,137.121383325,67.0,102.0
196,137.22672035624998,137.79273133750002,67.0,112.0
197,138.91211285625,139.3432924375,62.0,100.0
198,139.58626985625,140.06801121249998,62.0,102.0
199,140.26042685625,140.71688732500002,62.0,100.0
200,140.93458385625001,141.3938533125,64.0,102.0
201,141.60874085625,142.02727999375,57.0,95.0
202,142.28289785625,142.6354257875,64.0,122.0
203,142.95705485625,143.25059405,62.0,112.0
204,143.63121185625,143.7814926875,62.0,97.0
205,143.96829035625,144.11997568125,57.0,99.0
206,144.30536885625,144.435986775,60.0,92.0
207,144.64244735625,144.80817761875,57.0,89.0
208,144.97952585625,145.9423945,59.0,102.0
209,147.48478639375,147.78476092500003,64.0,99.0
210,147.80021035625,148.17661468125002,69.0,107.0
211,148.13728885625002,148.4617269125,67.0,100.0
212,148.47436735625,148.84374921250003,66.0,90.0
213,148.81144585625,149.19908613125003,64.0,86.0
214,149.14852435625002,149.55863653125002,62.0,75.0
215,149.48560285625,150.45329905000003,64.0,85.0
216,151.17099535625002,151.3999278375,66.0,112.0
217,151.50807385625,151.79178159375002,67.0,117.0
218,151.84515235625003,152.19346680625,66.0,107.0
219,152.18223085625002,152.5122868875,64.0,88.0
220,152.51930935625,152.82408450000003,60.0,99.0
221,152.85638785625002,153.385882,62.0,96.0
222,153.53054485625,153.8437469625,64.0,96.0
223,153.86762335625002,155.15133064375001,57.0,78.0
224,155.55301585625003,155.81425169375,62.0,99.0
225,155.89009435625002,156.08251,62.0,72.0
226,156.22717285625,156.40413906875003,62.0,78.0
227,156.56425135625003,156.84234111875003,62.0,93.0
228,156.90132985625002,157.2510488,60.0,78.0
229,157.23840835625,157.51930710625,62.0,95.0
230,157.57548685625002,158.09514954375,64.0,93.0
231,158.24964385625,158.44205950000003,69.0,122.0
232,158.58672235625002,158.773520025,69.0,112.0
233,158.92380085625,159.20189061875,66.0,112.0
234,159.26087935625003,159.51649721875,64.0,99.0
235,159.59795785625002,159.92660939375003,66.0,112.0
236,159.93503635625,160.2173396,62.0,97.0
237,160.27211485625003,160.51930575625002,64.0,95.0
238,160.60919335625002,160.9139685,60.0,95.0
239,160.94627185625,161.24402453125,62.0,95.0
240,161.28335035625003,161.66256366875,55.0,86.0
241,161.62042885625002,162.85919234375,57.0,95.0
242,163.64289985625,163.90413569375002,62.0,99.0
243,163.97997835625,164.17239400000003,62.0,72.0
244,164.31705685625002,164.49402306875,62.0,78.0
245,164.65413535625,164.93222511875,62.0,93.0
246,164.99121385625,165.34093280000002,60.0,78.0
247,165.32829235625002,165.60919110625002,62.0,95.0
248,165.66537085625,166.18503354375002,64.0,93.0
249,166.33952785625002,166.5319435,69.0,122.0
250,166.67660635625,166.86340402500002,69.0,112.0
251,167.01368485625002,167.29177461875003,66.0,112.0
252,167.35076335625,167.60638121875002,64.0,99.0
253,167.68784185625,168.01649339375,66.0,112.0
254,168.02492035625002,168.30722360000001,62.0,97.0
255,168.38166176875,168.762279575,64.0,97.0
256,168.88727951875,169.34373998750002,60.0,89.0
257,169.53053765625,170.44626758125003,62.0,99.0
258,171.4379635,171.93640100000002,55.0,97.0
259,172.0853124625,174.22856992500002,57.0,97.0
