,start,end,pitch,velocity
0,20.29838845,20.54032395,68.0,84.0
1,20.54032395,20.780243320833335,70.0,73.0
2,20.78225945,21.024194950000002,70.0,73.0
3,21.024194950000002,21.266130450000002,68.0,65.0
4,21.266130450000002,21.506049820833333,70.0,74.0
5,21.508065950000002,21.99193695,70.0,84.0
6,21.99193695,22.27217890416667,61.0,60.0
7,22.23387245,22.504033758333335,63.0,60.0
8,22.47580795,22.715727320833334,65.0,64.0
9,22.71774345,22.957662820833335,65.0,61.0
10,22.95967895,23.927420950000002,65.0,69.0
11,23.927420950000002,24.411291950000003,68.0,94.0
12,24.411291950000003,24.651211320833333,70.0,78.0
13,24.653227450000003,24.89516295,70.0,70.0
14,24.89516295,25.13709845,68.0,73.0
15,25.13709845,25.37903395,73.0,89.0
16,25.37903395,25.86290495,70.0,84.0
17,25.86290495,26.155243679166666,61.0,63.0
18,26.10484045,26.37903401666667,63.0,66.0
19,26.34677595,26.627017904166667,65.0,68.0
20,26.58871145,26.830646950000002,68.0,73.0
21,26.830646950000002,27.79838895,65.0,75.0
22,27.79838895,28.038308320833334,68.0,70.0
23,28.04032445,28.28225995,68.0,84.0
24,28.28225995,28.522179320833335,70.0,84.0
25,28.52419545,28.76613095,70.0,84.0
26,28.76613095,29.00806645,68.0,84.0
27,29.00806645,29.247985820833335,70.0,84.0
28,29.25000195,29.733872950000002,70.0,84.0
29,29.733872950000002,29.985889095833336,61.0,84.0
30,29.975808450000002,30.217743950000003,63.0,84.0
31,30.217743950000003,30.457663320833333,65.0,84.0
32,30.459679450000003,30.699598820833334,65.0,84.0
33,30.70161495,31.42742145,65.0,84.0
34,31.42742145,32.39516345,68.0,84.0
35,32.39516345,32.87903445,61.0,84.0
36,32.87903445,35.78226045,63.0,84.0
37,35.78226045,36.02419595,68.0,84.0
38,36.02419595,36.264115320833334,70.0,84.0
39,36.26613145,36.50806695,70.0,84.0
40,36.50806695,36.750002450000004,68.0,84.0
41,36.750002450000004,36.98992182083334,70.0,84.0
42,36.99193795,37.47580895,70.0,84.0
43,37.47580895,37.75605090416667,61.0,84.0
44,37.717744450000005,37.98790575833333,63.0,85.0
45,37.95967995,38.199599320833336,65.0,85.0
46,38.20161545,38.44153482083333,65.0,85.0
47,38.44355095,39.41129295,65.0,85.0
48,39.41129295,39.895163950000004,68.0,85.0
49,39.895163950000004,40.13508332083334,70.0,85.0
50,40.13709945,40.379034950000005,70.0,85.0
51,40.379034950000005,40.62097045,68.0,85.0
52,40.62097045,40.862905950000005,73.0,85.0
53,40.862905950000005,41.34677695,70.0,85.0
54,41.34677695,41.63911567916667,61.0,85.0
55,41.58871245,41.86290601666667,63.0,85.0
56,41.83064795,42.11088990416667,65.0,85.0
57,42.07258345,42.31451895,68.0,85.0
58,42.31451895,43.28226095,65.0,85.0
59,43.28226095,43.522180320833336,68.0,88.0
60,43.524196450000005,43.76613195,68.0,89.0
61,43.76613195,44.006051320833336,70.0,89.0
62,44.00806745,44.25000295,70.0,90.0
63,44.25000295,44.49193845,68.0,90.0
64,44.49193845,44.73185782083333,70.0,92.0
65,44.73387395,45.217744950000004,70.0,90.0
66,45.217744950000004,45.469761095833334,61.0,92.0
67,45.45968045,45.701615950000004,63.0,93.0
68,45.701615950000004,45.94153532083334,65.0,93.0
69,45.94355145,46.183470820833335,65.0,95.0
70,46.185486950000005,46.80040634583334,65.0,92.0
71,46.77419666666667,47.39314832083333,68.0,95.0
72,47.39516445,47.63709995,68.0,95.0
73,47.63709995,47.877019320833334,66.0,96.0
74,47.87903545,48.12097095,66.0,97.0
75,48.12097095,48.362906450000004,65.0,95.0
76,48.362906450000004,48.60484195,66.0,96.0
77,48.60484195,48.846777450000005,65.0,97.0
78,48.846777450000005,49.57258395,66.0,99.0
79,49.57258395,49.860890420833336,68.0,97.0
80,49.814519450000006,50.068551725,66.0,98.0
81,50.05645495,50.37298722916667,65.0,98.0
82,50.29839045,50.5645195,66.0,99.0
83,50.54032595,50.82661629166667,65.0,99.0
84,50.78226145,51.054438887500005,63.0,100.0
85,51.024196950000004,51.282261483333336,61.0,99.0
86,51.26613245,51.74798732083334,65.0,99.0
87,51.75000345,52.23185832083334,65.0,100.0
88,52.23387445,52.71572932083333,65.0,101.0
89,52.71774545,53.19960032083333,65.0,101.0
90,53.20161645,54.653229450000005,65.0,101.0
91,54.653229450000005,54.92137462916667,73.0,102.0
92,54.89516495,55.137100450000005,75.0,102.0
93,55.137100450000005,55.37903595,77.0,101.0
94,55.37903595,55.620971450000006,75.0,101.0
95,55.620971450000006,55.88911662916667,77.0,100.0
96,55.86290695,56.10484245,75.0,102.0
97,56.10484245,56.34677795,77.0,101.0
98,56.34677795,56.58871345,80.0,100.0
99,56.58871345,57.314519950000005,77.0,100.0
100,57.314519950000005,57.55645545,75.0,102.0
101,57.55645545,57.798390950000005,80.0,101.0
102,57.798390950000005,58.552423258333334,77.0,101.0
103,58.52419745,58.76613295,73.0,100.0
104,58.76613295,59.006052320833334,75.0,100.0
105,59.00806845,59.489923320833334,75.0,100.0
106,59.491939450000004,59.973794320833335,75.0,102.0
107,59.975810450000004,60.459681450000005,75.0,102.0
108,60.459681450000005,60.70161695,73.0,101.0
109,60.70161695,62.153229950000004,75.0,101.0
110,62.153229950000004,62.39314932083334,70.0,100.0
111,62.39516545,62.637100950000004,70.0,100.0
112,62.637100950000004,62.87903645,72.0,100.0
113,62.87903645,63.13710098333333,73.0,100.0
114,63.120971950000005,63.36290745,72.0,102.0
115,63.36290745,63.60685907916667,73.0,102.0
116,63.604842950000005,63.8770203875,72.0,101.0
117,63.84677845,64.08871395,73.0,101.0
118,64.08871395,64.33064945000001,80.0,101.0
119,64.33064945000001,65.29839145,75.0,100.0
120,65.29839145,65.54032695000001,73.0,100.0
121,65.54032695000001,66.02419795,72.0,100.0
122,66.02419795,66.74798832083334,70.0,100.0
123,66.75000445,66.99193995,70.0,100.0
124,66.99193995,67.23387545,68.0,100.0
125,67.23387545,67.50202062916667,70.0,100.0
126,67.47581095000001,67.71774645,68.0,100.0
127,67.71774645,67.95968195,70.0,100.0
128,67.95968195,68.44355295,73.0,100.0
129,68.44355295,69.677424,77.0,100.0
130,69.65323045000001,69.92137562916668,73.0,100.0
131,70.13710145,70.37903695,75.0,100.0
132,70.62097245,70.86290795000001,77.0,100.0
133,70.86290795000001,71.10484345,75.0,100.0
134,71.10484345,71.37298862916667,77.0,100.0
135,71.34677895,71.58871445,75.0,100.0
136,71.58871445,71.83064995000001,77.0,100.0
137,71.83064995000001,72.07258545,80.0,100.0
138,72.07258545,72.79839195000001,77.0,100.0
139,72.79839195000001,73.04032745,75.0,100.0
140,73.04032745,73.28226295,80.0,100.0
141,73.28226295,74.03629525833334,77.0,100.0
142,74.00806945000001,74.25000495,73.0,100.0
143,74.25000495,74.48992432083334,75.0,100.0
144,74.49194045,74.97379532083333,75.0,100.0
145,74.97581145000001,75.45766632083334,75.0,100.0
146,75.45968245,75.94355345000001,75.0,100.0
147,75.94355345000001,76.18548895,73.0,100.0
148,76.18548895,77.63710195,75.0,100.0
149,77.63710195,77.87702132083334,70.0,100.0
150,77.87903745,78.12097295000001,70.0,100.0
151,78.12097295000001,78.36290845,72.0,100.0
152,78.36290845,78.62097298333333,73.0,99.0
153,78.60484395,78.84677945,72.0,99.0
154,78.84677945,79.09073107916667,73.0,99.0
155,79.08871495000001,79.3608923875,72.0,99.0
156,79.33065045000001,79.57258595,73.0,99.0
157,79.57258595,79.81452145,80.0,99.0
158,79.81452145,81.26613445000001,75.0,99.0
159,81.26613445000001,82.23387645000001,73.0,89.0
160,82.23387645000001,82.71774745,72.0,89.0
161,82.71774745,84.97782824583334,70.0,73.0
162,97.71774845,97.95968395,68.0,84.0
163,97.95968395,98.19960332083333,70.0,73.0
164,98.20161945000001,98.44355495,70.0,73.0
165,98.44355495,98.68549045,68.0,65.0
166,98.68549045,98.92540982083334,70.0,74.0
167,98.92742595,99.41129695000001,70.0,84.0
168,99.41129695000001,99.69153890416668,61.0,60.0
169,99.65323245,99.92339375833333,63.0,60.0
170,99.89516795,100.13508732083334,65.0,64.0
171,100.13710345,100.37702282083333,65.0,61.0
172,100.37903895000001,101.34678095000001,65.0,69.0
173,101.34678095000001,101.83065195,68.0,94.0
174,101.83065195,102.07057132083334,70.0,78.0
175,102.07258745,102.31452295000001,70.0,70.0
176,102.31452295000001,102.55645845000001,68.0,73.0
177,102.55645845000001,102.79839395,73.0,89.0
178,102.79839395,103.28226495,70.0,84.0
179,103.28226495,103.57460367916667,61.0,63.0
180,103.52420045000001,103.79839401666668,63.0,66.0
181,103.76613595,104.04637790416668,65.0,68.0
182,104.00807145,104.25000695,68.0,73.0
183,104.25000695,105.21774895,65.0,75.0
184,105.21774895,105.45766832083333,68.0,70.0
185,105.45968445000001,105.70161995000001,68.0,75.0
186,105.70161995000001,105.94153932083334,70.0,63.0
187,105.94355545,106.18549095,70.0,75.0
188,106.18549095,106.42742645,68.0,72.0
189,106.42742645,106.66734582083333,70.0,92.0
190,106.66936195000001,107.15323295,70.0,92.0
191,107.15323295,107.40524909583334,61.0,69.0
192,107.39516845,107.63710395000001,63.0,67.0
193,107.63710395000001,107.87702332083335,65.0,67.0
194,107.87903945000001,108.11895882083334,65.0,74.0
195,108.12097495,108.84678145000001,65.0,76.0
196,108.84678145000001,109.81452345000001,68.0,71.0
197,109.81452345000001,110.29839445,61.0,64.0
198,110.29839445,113.20162045000001,63.0,75.0
199,113.20162045000001,113.44355595,68.0,84.0
200,113.44355595,113.68347532083334,70.0,73.0
201,113.68549145,113.92742695000001,70.0,73.0
202,113.92742695000001,114.16936245000001,68.0,65.0
203,114.16936245000001,114.40928182083334,70.0,74.0
204,114.41129795,114.89516895,70.0,84.0
205,114.89516895,115.17541090416667,61.0,60.0
206,115.13710445000001,115.40726575833334,63.0,60.0
207,115.37903995,115.61895932083334,65.0,64.0
208,115.62097545,115.86089482083334,65.0,61.0
209,115.86291095,116.83065295,65.0,69.0
210,116.83065295,117.31452395000001,68.0,94.0
211,117.31452395000001,117.55444332083334,70.0,78.0
212,117.55645945,117.79839495,70.0,70.0
213,117.79839495,118.04033045,68.0,73.0
214,118.04033045,118.28226595000001,73.0,89.0
215,118.28226595000001,118.76613695,70.0,84.0
216,118.76613695,119.05847567916668,61.0,63.0
217,119.00807245,119.28226601666667,63.0,66.0
218,119.25000795000001,119.53024990416667,65.0,68.0
219,119.49194345000001,119.73387895,68.0,73.0
220,119.73387895,120.70162095,65.0,75.0
221,120.70162095,120.94154032083334,68.0,70.0
222,120.94355645,121.18549195,68.0,75.0
223,121.18549195,121.42541132083333,70.0,63.0
224,121.42742745000001,121.66936295000001,70.0,75.0
225,121.66936295000001,121.91129845,68.0,72.0
226,121.91129845,122.15121782083334,70.0,92.0
227,122.15323395,122.63710495000001,70.0,92.0
228,122.63710495000001,122.88912109583335,61.0,69.0
229,122.87904045,123.12097595,63.0,67.0
230,123.12097595,123.36089532083334,65.0,67.0
231,123.36291145000001,123.60283082083333,65.0,74.0
232,123.60484695000001,124.21976634583334,65.0,76.0
233,124.19355666666667,124.81250832083335,68.0,71.0
234,124.81452445000001,125.05645995,68.0,94.0
235,125.05645995,125.29637932083334,66.0,68.0
236,125.29839545,125.54033095000001,66.0,75.0
237,125.54033095000001,125.78226645000001,65.0,60.0
238,125.78226645000001,126.02420195,66.0,90.0
239,126.02420195,126.26613745,65.0,90.0
240,126.26613745,126.99194395,66.0,90.0
241,126.99194395,127.28025042083334,68.0,90.0
242,127.23387945,127.487911725,66.0,90.0
243,127.47581495,127.79234722916668,65.0,90.0
244,127.71775045000001,127.9838795,66.0,91.0
245,127.95968595000001,128.24597629166666,65.0,91.0
246,128.20162145,128.4737988875,63.0,92.0
247,128.44355695000002,128.70162148333333,61.0,92.0
248,128.68549245,129.16734732083333,65.0,92.0
249,129.16936345000002,129.65121832083335,65.0,92.0
250,129.65323445,130.13508932083334,65.0,94.0
251,130.13710545,130.61896032083334,65.0,94.0
252,130.62097645,132.07258945,65.0,94.0
253,132.07258945,132.34073462916666,73.0,95.0
254,132.31452495000002,132.55646045,75.0,94.0
255,132.55646045,132.79839595,77.0,94.0
256,132.79839595,133.04033145,75.0,95.0
257,133.04033145,133.30847662916668,77.0,95.0
258,133.28226695,133.52420245000002,75.0,95.0
259,133.52420245000002,133.76613795,77.0,96.0
260,133.76613795,134.00807345,80.0,95.0
261,134.00807345,134.73387995000002,77.0,95.0
262,134.73387995000002,134.97581545,75.0,96.0
263,134.97581545,135.21775095,80.0,97.0
264,135.21775095,135.97178325833335,77.0,97.0
265,135.94355745000001,136.18549295,73.0,97.0
266,136.18549295,136.42541232083335,75.0,97.0
267,136.42742845,136.90928332083334,75.0,98.0
268,136.91129945,137.39315432083333,75.0,98.0
269,137.39517045,137.87904145000002,75.0,99.0
270,137.87904145000002,138.12097695,73.0,100.0
271,138.12097695,139.57258995,75.0,100.0
272,139.57258995,139.81250932083333,70.0,101.0
273,139.81452545000002,140.05646095,70.0,101.0
274,140.05646095,140.29839645,72.0,101.0
275,140.29839645,140.55646098333335,73.0,101.0
276,140.54033195,140.78226745,72.0,101.0
277,140.78226745,141.02621907916668,73.0,101.0
278,141.02420295000002,141.2963803875,72.0,101.0
279,141.26613845,141.50807395,73.0,101.0
280,141.50807395,141.75000945,80.0,101.0
281,141.75000945,142.71775145,75.0,101.0
282,142.71775145,142.95968695000002,73.0,102.0
283,142.95968695000002,143.44355795,72.0,102.0
284,143.44355795,144.16734832083333,70.0,103.0
285,144.16936445000002,144.41129995,70.0,105.0
286,144.41129995,144.65323545,68.0,105.0
287,144.65323545,144.92138062916666,70.0,105.0
288,144.89517095,145.13710645,68.0,105.0
289,145.13710645,145.37904195000002,70.0,106.0
290,145.37904195000002,145.86291295,73.0,106.0
291,145.86291295,147.096784,77.0,106.0
292,147.096784,147.58267112916667,73.0,107.0
293,147.55646145,147.94355825,75.0,107.0
294,148.04033245,148.28226795,77.0,107.0
295,148.28226795,148.52420345000002,75.0,107.0
296,148.52420345000002,148.79234862916667,77.0,107.0
297,148.76613895,149.00807445,75.0,107.0
298,149.00807445,149.25000995000002,77.0,107.0
299,149.25000995000002,149.49194545,80.0,107.0
300,149.49194545,150.21775195,77.0,107.0
301,150.21775195,150.45968745000002,75.0,107.0
302,150.45968745000002,150.70162295,80.0,107.0
303,150.70162295,151.45565525833334,77.0,107.0
304,151.42742945,151.66936495000002,73.0,107.0
305,151.66936495000002,151.90928432083334,75.0,107.0
306,151.91130045,152.39315532083333,75.0,107.0
307,152.39517145000002,152.87702632083335,75.0,107.0
308,152.87904245000001,153.36291345,75.0,107.0
309,153.36291345,153.60484895000002,73.0,103.0
310,153.60484895000002,155.05646195,75.0,106.0
311,155.05646195,155.29638132083335,70.0,103.0
312,155.29839745,155.54033295000002,70.0,103.0
313,155.54033295000002,155.78226845,72.0,106.0
314,155.78226845,156.04033298333334,73.0,106.0
315,156.02420395000001,156.26613945,72.0,105.0
316,156.26613945,156.51009107916667,73.0,105.0
317,156.50807495,156.7802523875,72.0,104.0
318,156.75001045000002,156.99194595,73.0,104.0
319,156.99194595,157.23388145,80.0,103.0
320,157.23388145,158.68549445000002,75.0,103.0
321,158.68549445000002,159.03831705416667,70.0,103.0
322,158.92742995,159.65323645,73.0,103.0
323,159.65323645,161.745978525,77.0,103.0
324,181.91130245000002,182.3709799,73.0,101.0
325,182.3709799,182.87904445,75.0,101.0
326,182.87904445,183.12097995000002,77.0,102.0
327,183.12097995000002,183.36291545,75.0,102.0
328,183.36291545,183.63106062916668,77.0,102.0
329,183.60485095,183.84678645,75.0,102.0
330,183.84678645,184.08872195,77.0,102.0
331,184.08872195,184.33065745000002,80.0,102.0
332,184.33065745000002,185.05646395000002,77.0,102.0
333,185.05646395000002,185.29839945,75.0,102.0
334,185.29839945,185.54033495000002,80.0,102.0
335,185.54033495000002,186.29436725833335,77.0,102.0
336,186.26614145000002,186.50807695,73.0,102.0
337,186.50807695,186.74799632083335,75.0,102.0
338,186.75001245,187.23186732083335,75.0,102.0
339,187.23388345,187.71573832083334,75.0,102.0
340,187.71775445,188.20162545000002,75.0,102.0
341,188.20162545000002,188.44356095,73.0,102.0
342,188.44356095,189.89517395000001,75.0,102.0
343,189.89517395000001,190.13509332083333,70.0,102.0
344,190.13710945,190.37904495,70.0,102.0
345,190.37904495,190.62098045000002,72.0,102.0
346,190.62098045000002,190.87904498333333,73.0,102.0
347,190.86291595,191.10485145,72.0,102.0
348,191.10485145,191.3488030791667,73.0,102.0
349,191.34678695000002,191.6189643875,72.0,102.0
350,191.58872245,191.83065795000002,73.0,102.0
351,191.83065795000002,192.07259345,80.0,102.0
352,192.07259345,193.04033545000001,75.0,102.0
353,193.04033545000001,193.28227095,73.0,101.0
354,193.28227095,193.76614195000002,72.0,100.0
355,193.76614195000002,194.48993232083333,70.0,100.0
356,194.49194845,194.73388395,70.0,100.0
357,194.73388395,194.97581945000002,68.0,100.0
358,194.97581945000002,195.24396462916667,70.0,100.0
359,195.21775495,195.45969045,68.0,100.0
360,195.45969045,195.70162595000002,70.0,100.0
361,195.70162595000002,196.18549695000002,73.0,100.0
362,196.18549695000002,197.39517445,77.0,100.0
363,197.39517445,197.86896480416667,73.0,100.0
364,197.86896480416667,198.36291645,75.0,100.0
365,198.36291645,198.60485195,77.0,100.0
366,198.60485195,198.84678745000002,75.0,100.0
367,198.84678745000002,199.11493262916667,77.0,100.0
368,199.08872295,199.33065845000002,75.0,100.0
369,199.33065845000002,199.57259395,77.0,100.0
370,199.57259395,199.81452945,80.0,100.0
371,199.81452945,200.54033595,77.0,100.0
372,200.54033595,200.78227145,75.0,100.0
373,200.78227145,201.02420695,80.0,100.0
374,201.02420695,201.77823925833334,77.0,100.0
375,201.75001345,201.99194895000002,73.0,100.0
376,201.99194895000002,202.23186832083334,75.0,100.0
377,202.23388445,202.71573932083334,75.0,100.0
378,202.71775545,203.19961032083333,75.0,100.0
379,203.20162645000002,203.68549745,75.0,100.0
380,203.68549745,203.92743295,73.0,99.0
381,203.92743295,205.37904595,75.0,99.0
382,205.37904595,205.61896532083335,70.0,99.0
383,205.62098145000002,205.86291695,70.0,99.0
384,205.86291695,206.10485245,72.0,99.0
385,206.10485245,206.36291698333335,73.0,99.0
386,206.34678795000002,206.58872345,72.0,99.0
387,206.58872345,206.83267507916668,73.0,99.0
388,206.83065895000001,207.10283638750002,72.0,99.0
389,207.07259445,207.31452995,73.0,99.0
390,207.31452995,207.55646545000002,80.0,99.0
391,207.55646545000002,209.00807845,75.0,99.0
392,209.00807845,209.97582045000001,73.0,99.0
393,209.97582045000001,210.94356245,72.0,99.0
394,210.94356245,213.870982,70.0,99.0
