,start,end,pitch,velocity
0,0.9435484500000001,1.2278226625000002,65.0,104.0
1,1.18548395,1.4072581583333335,63.0,58.0
2,0.9435484500000001,1.5786291375000001,58.0,51.0
3,0.9435484500000001,1.6229839791666667,61.0,64.0
4,1.4274194500000001,1.71774205,65.0,68.0
5,1.66935495,1.8810485125,63.0,61.0
6,1.4274194500000001,1.9254033541666669,54.0,61.0
7,1.91129045,2.0383065875,58.0,58.0
8,1.91129045,2.0463711041666666,65.0,69.0
9,1.91129045,2.0544356208333334,61.0,68.0
10,0.9435484500000001,2.0766130416666666,42.0,58.0
11,1.18548395,2.1229840125,49.0,74.0
12,2.15322595,2.286290475,68.0,65.0
13,2.3951614500000002,2.977822779166667,60.0,63.0
14,2.3951614500000002,2.977822779166667,60.0,85.0
15,2.3951614500000002,4.308468029166667,56.0,59.0
16,2.3951614500000002,4.352822870833333,41.0,50.0
17,4.81451645,5.0745971125,61.0,87.0
18,5.0564519500000005,5.215726154166667,60.0,58.0
19,4.81451645,5.508064883333334,58.0,60.0
20,5.29838745,5.560484241666667,61.0,72.0
21,5.54032295,5.713710058333334,60.0,59.0
22,5.7822584500000005,5.903226200000001,61.0,73.0
23,5.29838745,5.991935883333333,49.0,81.0
24,4.81451645,6.020161691666667,42.0,71.0
25,5.7822584500000005,6.0907262125,58.0,61.0
26,6.02419395,6.129032666666667,63.0,86.0
27,6.26612945,7.733871483333334,65.0,67.0
28,6.26612945,7.733871483333334,65.0,87.0
29,7.71774245,7.733871483333334,65.0,61.0
30,6.26612945,7.750000516666667,60.0,64.0
31,7.71774245,8.276210229166667,61.0,59.0
32,6.26612945,8.290323133333334,49.0,85.0
33,8.68548445,8.963710275,65.0,90.0
34,8.92741995,9.149194158333334,63.0,64.0
35,8.68548445,9.286290941666667,58.0,60.0
36,8.68548445,9.306452233333333,61.0,72.0
37,9.169355450000001,9.4173393375,65.0,71.0
38,9.41129095,9.6108877375,63.0,65.0
39,9.169355450000001,9.6834683875,54.0,58.0
40,8.92741995,9.810484525,49.0,70.0
41,9.65322645,9.810484525,58.0,59.0
42,9.65322645,9.810484525,61.0,65.0
43,8.68548445,9.850807108333333,42.0,74.0
44,9.65322645,9.881049045833334,65.0,70.0
45,9.89516195,10.153226483333334,68.0,70.0
46,10.13709745,12.066533062500001,60.0,63.0
47,10.13709745,12.066533062500001,60.0,87.0
48,10.13709745,12.080645966666667,56.0,61.0
49,10.13709745,12.1028233875,41.0,58.0
50,12.55645245,12.808468595833334,61.0,74.0
51,12.79838795,12.957662154166668,60.0,60.0
52,13.04032345,13.288307337500001,61.0,72.0
53,12.55645245,13.375000891666668,58.0,60.0
54,13.282258950000001,13.497984770833334,60.0,61.0
55,13.04032345,13.71774285,54.0,52.0
56,12.55645245,13.729839625,42.0,73.0
57,13.524194450000001,13.731855754166668,58.0,57.0
58,13.524194450000001,13.739920270833334,61.0,66.0
59,13.524194450000001,13.739920270833334,61.0,76.0
60,12.79838795,13.8931460875,49.0,66.0
61,14.00806545,15.282259083333335,65.0,70.0
62,14.00806545,15.292339729166667,49.0,75.0
63,14.00806545,15.647178462500001,60.0,71.0
64,14.00806545,16.348791412500002,56.0,93.0
65,16.35080754166667,20.29838845,80.0,66.0
66,16.30242044166667,20.320565870833335,73.0,54.0
67,16.383065608333332,20.326614258333333,61.0,73.0
68,20.29838845,20.326614258333333,61.0,74.0
69,16.4334688375,20.334678775,84.0,51.0
70,20.29838845,21.0786304375,58.0,67.0
71,20.29838845,21.088711083333333,66.0,73.0
72,21.266130450000002,21.798388550000002,58.0,70.0
73,21.266130450000002,21.834678875,61.0,74.0
74,21.266130450000002,22.072582116666666,66.0,76.0
75,20.29838845,22.268146645833333,42.0,73.0
76,22.23387245,23.064517666666667,65.0,74.0
77,22.23387245,23.07056605416667,60.0,71.0
78,23.20161445,23.483872533333333,63.0,86.0
79,23.44354995,23.731856420833335,60.0,64.0
80,23.68548545,24.058469345833334,56.0,74.0
81,22.23387245,24.0907274125,49.0,70.0
82,24.169356450000002,24.955646825000002,58.0,59.0
83,24.169356450000002,24.979840375000002,66.0,66.0
84,24.169356450000002,24.9858887625,61.0,65.0
85,25.13709845,25.842743658333333,58.0,68.0
86,25.13709845,25.955646891666667,61.0,69.0
87,25.13709845,26.012098508333334,66.0,74.0
88,24.169356450000002,26.167340454166666,42.0,72.0
89,26.10484045,26.7399211375,60.0,63.0
90,26.10484045,26.9516147,65.0,68.0
91,26.830646950000002,27.0302437375,61.0,63.0
92,27.072582450000002,27.30443730416667,68.0,75.0
93,27.072582450000002,27.669356683333334,60.0,65.0
94,26.10484045,27.699598620833335,49.0,62.0
95,27.314517950000003,27.810485725000003,70.0,86.0
96,28.04032445,28.810485791666668,58.0,67.0
97,28.04032445,28.810485791666668,61.0,72.0
98,29.00806645,29.58467939166667,61.0,65.0
99,29.00806645,29.618953587500002,58.0,60.0
100,28.04032445,29.975808450000002,42.0,69.0
101,29.975808450000002,30.784276245833336,60.0,62.0
102,29.975808450000002,30.80645366666667,68.0,64.0
103,29.975808450000002,30.812502054166668,63.0,60.0
104,30.94355045,31.2278246625,63.0,74.0
105,31.18548595,31.46572790416667,60.0,63.0
106,30.94355045,31.727824695833334,68.0,76.0
107,31.42742145,31.7721795375,56.0,72.0
108,29.975808450000002,31.957663420833335,49.0,71.0
109,31.91129245,32.774195733333336,58.0,64.0
110,31.91129245,32.78024412083334,66.0,72.0
111,31.91129245,32.798389283333336,61.0,68.0
112,31.91129245,33.536292558333336,42.0,65.0
113,32.87903445,33.6471796625,66.0,75.0
114,32.87903445,33.65121192083333,58.0,63.0
115,32.87903445,33.67338934166667,61.0,74.0
116,33.72177644166667,33.81250225416667,65.0,62.0
117,32.39516345,33.84677645,49.0,65.0
118,33.84677645,35.506050754166665,54.0,62.0
119,33.64314740416667,35.707663670833334,63.0,60.0
120,33.84677645,35.711695929166666,66.0,85.0
121,33.84677645,35.7278249625,42.0,76.0
122,35.78226045,36.60685727916667,58.0,59.0
123,35.78226045,36.645163733333334,66.0,67.0
124,35.78226045,36.651212120833335,61.0,69.0
125,36.750002450000004,37.24395409583334,58.0,72.0
126,36.750002450000004,37.26613151666667,61.0,74.0
127,36.750002450000004,37.26613151666667,66.0,77.0
128,35.78226045,37.687502512500004,42.0,74.0
129,37.717744450000005,38.5221799875,65.0,72.0
130,37.717744450000005,38.528228375000005,60.0,69.0
131,38.68548645,38.9939542125,72.0,93.0
132,38.92742195,39.155244545833334,68.0,72.0
133,38.68548645,39.17943809583333,60.0,76.0
134,37.717744450000005,39.37298649583334,49.0,74.0
135,39.16935745,39.516131666666666,63.0,65.0
136,39.65322845,40.47580915,66.0,59.0
137,39.65322845,40.48387366666667,58.0,63.0
138,39.65322845,40.5000027,61.0,68.0
139,40.62097045,41.24798662083334,58.0,74.0
140,40.62097045,41.40322856666667,61.0,74.0
141,40.62097045,41.50806728333333,66.0,85.0
142,39.65322845,41.643147937500004,42.0,76.0
143,41.58871245,42.433470570833336,60.0,71.0
144,41.58871245,42.43951895833334,65.0,76.0
145,42.556454450000004,42.856857695833334,73.0,76.0
146,42.556454450000004,42.9979867375,60.0,71.0
147,42.79838995,43.06653512916667,72.0,62.0
148,41.58871245,43.42742225,49.0,74.0
149,43.040325450000005,43.5060512875,65.0,60.0
150,43.524196450000005,44.39516425,66.0,73.0
151,43.524196450000005,44.39718037916667,58.0,64.0
152,43.524196450000005,44.411293283333336,61.0,68.0
153,44.49193845,45.02621267916667,58.0,72.0
154,44.49193845,45.08669655416667,61.0,76.0
155,44.49193845,45.326615925,66.0,83.0
156,43.524196450000005,45.48185787083334,42.0,65.0
157,45.45968045,46.280245020833334,60.0,77.0
158,45.45968045,46.280245020833334,65.0,75.0
159,46.42742245,46.70363214583334,73.0,85.0
160,46.669357950000006,46.95766442083334,72.0,60.0
161,46.42742245,47.16129346666667,60.0,73.0
162,45.45968045,47.26411605416667,49.0,73.0
163,46.91129345,47.27621282916667,70.0,62.0
164,47.39516445,48.21572902083334,58.0,61.0
165,47.39516445,48.2237935375,61.0,67.0
166,48.362906450000004,49.1068581125,66.0,72.0
167,48.846777450000005,49.18145489166667,54.0,55.0
168,47.39516445,49.18951940833333,42.0,72.0
169,48.362906450000004,49.203632312500005,58.0,66.0
170,47.87903545,49.223793604166666,49.0,54.0
171,48.362906450000004,49.223793604166666,61.0,73.0
172,49.330648450000005,50.16935818333334,66.0,56.0
173,49.330648450000005,50.1955678625,58.0,63.0
174,49.330648450000005,50.20564850833333,61.0,70.0
175,49.330648450000005,50.76008402916667,42.0,77.0
176,50.29839045,50.81048725833334,58.0,75.0
177,49.814519450000006,50.84072919583333,49.0,75.0
178,50.29839045,50.842745325,61.0,81.0
179,50.29839045,50.848793712500004,66.0,87.0
180,51.26613245,51.584680858333336,65.0,75.0
181,51.26613245,51.6229873125,57.0,71.0
182,51.26613245,51.63105182916667,60.0,86.0
183,51.75000345,52.052422825,65.0,68.0
184,51.75000345,52.090729279166666,60.0,81.0
185,51.75000345,52.100809925,57.0,81.0
186,52.23387445,52.43145510833334,65.0,74.0
187,51.75000345,52.475809950000006,53.0,51.0
188,52.23387445,52.512100275,60.0,93.0
189,52.23387445,52.52822930833334,57.0,90.0
190,51.26613245,52.58266479583334,41.0,77.0
191,52.23387445,52.58266479583334,45.0,2.0
192,51.75000345,52.584680925,48.0,59.0
193,52.71774545,53.01008417916667,60.0,81.0
194,52.71774545,53.028229341666666,41.0,63.0
195,52.71774545,53.030245470833336,57.0,74.0
196,52.71774545,53.04234224583334,45.0,62.0
197,52.71774545,53.052422891666666,53.0,63.0
198,52.71774545,53.05847127916667,48.0,69.0
199,53.20161645,53.39718097916667,65.0,88.0
200,53.20161645,53.407261625000004,60.0,88.0
201,53.20161645,53.41532614166667,53.0,88.0
202,53.20161645,53.42137452916667,45.0,88.0
203,53.20161645,53.42339065833334,48.0,88.0
204,53.20161645,53.42742291666667,41.0,88.0
205,53.20161645,53.429439045833334,57.0,88.0
206,55.137100450000005,55.91129405,58.0,70.0
207,55.137100450000005,55.91129405,66.0,81.0
208,55.137100450000005,55.921374695833336,61.0,75.0
209,56.10484245,56.97177799166667,66.0,87.0
210,56.10484245,56.97379412083334,58.0,76.0
211,56.10484245,56.983874766666666,61.0,85.0
212,57.07258445,57.923390958333336,58.0,73.0
213,57.07258445,57.923390958333336,66.0,85.0
214,57.07258445,57.93347160416667,61.0,83.0
215,55.137100450000005,58.36895550416667,54.0,58.0
216,55.137100450000005,58.53831035416667,42.0,60.0
217,58.04032645,58.608874875000005,61.0,81.0
218,58.04032645,58.61089100416667,66.0,86.0
219,58.04032645,58.61895552083334,58.0,74.0
220,55.137100450000005,58.66532649166667,49.0,76.0
221,59.00806845,59.870971733333334,56.0,61.0
222,59.00806845,59.870971733333334,63.0,69.0
223,59.25000395,59.94153625416667,60.0,11.0
224,59.975810450000004,60.832665345833334,63.0,74.0
225,59.975810450000004,60.834681475000004,56.0,76.0
226,59.975810450000004,60.834681475000004,60.0,79.0
227,60.943552450000006,61.752020245833336,56.0,67.0
228,60.943552450000006,61.76613315,60.0,69.0
229,60.943552450000006,61.76613315,63.0,71.0
230,59.00806845,62.256052537500004,53.0,59.0
231,61.91129445,62.33669770416667,63.0,76.0
232,61.91129445,62.37500415833334,60.0,75.0
233,59.00806845,62.39314932083334,48.0,68.0
234,61.91129445,62.40322996666667,56.0,77.0
235,59.00806845,62.44153642083334,41.0,59.0
236,62.87903645,63.76008489583334,58.0,61.0
237,62.87903645,63.76613328333334,54.0,74.0
238,62.87903645,64.37298816250001,39.0,65.0
239,63.84677845,64.37500429166667,63.0,76.0
240,63.84677845,64.37903655000001,54.0,67.0
241,63.84677845,64.39516558333334,58.0,71.0
242,63.36290745,64.42742365000001,46.0,72.0
243,64.33064945000001,64.75202044583334,51.0,55.0
244,64.81452045,65.72581083333334,65.0,67.0
245,64.81452045,65.73387535,56.0,60.0
246,64.81452045,65.7399237375,60.0,57.0
247,65.29839145,66.25403667500001,48.0,75.0
248,65.78226245,66.26411732083334,65.0,74.0
249,65.78226245,66.27016570833334,56.0,74.0
250,65.78226245,66.27419796666668,60.0,77.0
251,64.81452045,66.30242377500001,41.0,60.0
252,66.26613345,66.74193993333334,53.0,60.0
253,66.75000445,67.31250448750001,70.0,72.0
254,66.75000445,67.34476255416666,65.0,81.0
255,66.75000445,67.52823030833333,62.0,85.0
256,67.47581095000001,68.5584723125,50.0,37.0
257,67.71774645,68.58064973333333,70.0,67.0
258,67.71774645,68.58468199166667,62.0,83.0
259,67.71774645,68.6129078,65.0,77.0
260,68.68548845000001,69.47984334166667,70.0,64.0
261,68.68548845000001,69.53024657083334,65.0,75.0
262,68.68548845000001,69.54032721666667,62.0,77.0
263,66.75000445,69.69153690416667,58.0,57.0
264,66.75000445,69.79637562083333,46.0,52.0
265,66.75000445,69.95766595416667,53.0,72.0
266,69.65323045000001,70.01008531250001,70.0,95.0
267,69.65323045000001,70.08064983333334,65.0,95.0
268,69.65323045000001,70.09073047916667,62.0,95.0
269,70.13710145,70.34476275416667,44.0,87.0
270,70.62097245,71.40927895416667,66.0,60.0
271,70.62097245,71.42339185833333,58.0,66.0
272,70.62097245,71.4375047625,61.0,65.0
273,71.58871445,72.4294403125,66.0,86.0
274,71.58871445,72.44355321666667,58.0,83.0
275,71.58871445,72.44960160416667,61.0,86.0
276,72.07258545,72.92339195833334,54.0,54.0
277,72.55645645,73.41129521666667,66.0,73.0
278,72.55645645,73.42339199166668,58.0,66.0
279,72.55645645,73.42944037916666,61.0,73.0
280,73.04032745,73.67339200833334,54.0,54.0
281,73.52419845,74.03024687083334,66.0,83.0
282,73.52419845,74.044359775,61.0,76.0
283,73.52419845,74.05645655000001,58.0,68.0
284,71.10484345,74.12097268333333,49.0,79.0
285,74.00806945000001,74.20363397916667,54.0,59.0
286,70.62097245,74.21774688333333,42.0,79.0
287,74.49194045,75.38306954166667,65.0,75.0
288,74.49194045,75.3931501875,56.0,69.0
289,74.49194045,75.39516631666667,60.0,74.0
290,75.45968245,76.29234379583333,65.0,76.0
291,75.45968245,76.30040831250001,56.0,75.0
292,75.45968245,76.3125050875,60.0,79.0
293,75.94355345000001,76.8326664125,53.0,56.0
294,76.42742445,77.25403740833333,65.0,81.0
295,76.42742445,77.26613418333334,56.0,74.0
296,76.42742445,77.2741987,60.0,79.0
297,76.91129545,77.71371485833333,53.0,54.0
298,77.39516645,77.78024712083334,65.0,72.0
299,77.39516645,77.80444067083334,60.0,75.0
300,74.97581145000001,77.82056970416667,48.0,73.0
301,77.39516645,77.82258583333333,56.0,72.0
302,74.49194045,77.9092793875,41.0,71.0
303,78.12097295000001,78.21371489166667,54.0,34.0
304,78.12097295000001,78.229843925,58.0,10.0
305,78.36290845,79.22581173333333,54.0,69.0
306,78.36290845,79.23992463750001,63.0,73.0
307,78.36290845,79.24798915416667,58.0,74.0
308,79.33065045000001,79.85887629166668,54.0,85.0
309,79.33065045000001,79.86290855,63.0,77.0
310,79.33065045000001,79.87097306666666,58.0,79.0
311,78.36290845,79.87702145416667,39.0,67.0
312,78.84677945,79.88306984166667,46.0,66.0
313,79.81452145,80.14113437500001,51.0,58.0
314,80.29839245000001,82.08468289166667,65.0,63.0
315,80.29839245000001,82.18347322083333,60.0,75.0
316,80.29839245000001,82.23387645000001,57.0,68.0
317,80.29839245000001,82.2399248375,53.0,63.0
318,82.23387645000001,82.2399248375,53.0,66.0
319,80.29839245000001,82.24194096666668,45.0,71.0
320,80.29839245000001,82.25807,48.0,74.0
321,80.29839245000001,82.26210225833334,41.0,51.0
322,82.23387645000001,82.49798937083334,65.0,73.0
323,82.47581195000001,82.67137647916667,63.0,64.0
324,82.71774745,82.94960230416667,65.0,68.0
325,82.95968295,83.17540877083334,63.0,63.0
326,82.23387645000001,83.28629587500001,58.0,73.0
327,82.23387645000001,83.33669910416667,42.0,73.0
328,83.20161845,83.45363459583334,65.0,66.0
329,83.44355395000001,83.67137654583334,68.0,67.0
330,83.68548945,85.55242505833334,60.0,61.0
331,83.68548945,85.57661860833333,56.0,67.0
332,83.68548945,85.5907315125,49.0,69.0
333,83.68548945,85.5907315125,53.0,62.0
334,83.68548945,85.66532829166667,65.0,72.0
335,86.10484445,86.36694124166667,61.0,79.0
336,86.34677995,86.58065093333333,60.0,63.0
337,86.58871545000001,86.82661869166667,61.0,66.0
338,86.83065095,87.0544412875,60.0,63.0
339,86.10484445,87.23790904166667,53.0,65.0
340,86.10484445,87.24194130000001,49.0,90.0
341,86.10484445,87.26613485,42.0,72.0
342,87.07258645,87.29839291666667,61.0,72.0
343,87.31452195,87.580651,63.0,74.0
344,87.55645745000001,89.20968336666667,53.0,68.0
345,87.55645745000001,89.31855434166667,48.0,62.0
346,87.55645745000001,89.43347370416667,37.0,66.0
347,87.55645745000001,89.5705704875,56.0,67.0
348,89.97581245,90.2721834375,65.0,90.0
349,90.21774795,90.42137699583334,63.0,64.0
350,90.45968345,90.6592802375,65.0,67.0
351,90.70161895000001,90.907264125,63.0,67.0
352,90.94355445000001,91.13710285,65.0,74.0
353,89.97581245,91.23387705,53.0,64.0
354,89.97581245,91.23790930833334,49.0,87.0
355,89.97581245,91.25403834166667,42.0,73.0
356,91.18548995,91.3850867375,68.0,85.0
357,91.42742545,92.66532875833333,60.0,60.0
358,91.42742545,93.43952235833333,65.0,68.0
359,91.42742545,93.52823204166667,53.0,67.0
360,91.42742545,93.53226430000001,49.0,70.0
361,93.12097395,93.74597399166667,60.0,70.0
362,93.84678045000001,94.13911917916667,61.0,79.0
363,94.08871595000001,94.35686112916667,60.0,63.0
364,94.33065145,94.61089340416667,61.0,74.0
365,94.57258695,94.81855470833334,60.0,63.0
366,94.81452245,95.07258698333334,61.0,81.0
367,93.84678045000001,95.13911924583334,49.0,64.0
368,93.84678045000001,95.14315150416667,53.0,59.0
369,93.84678045000001,95.16331279583333,42.0,58.0
370,95.29839345,97.30444197083334,53.0,67.0
371,95.29839345,97.30847422916668,56.0,60.0
372,95.29839345,97.32057100416667,49.0,59.0
373,95.29839345,97.60484521666667,60.0,71.0
374,97.71774845,98.49799043750001,58.0,67.0
375,97.71774845,98.50807108333333,66.0,73.0
376,97.71774845,98.51008721250001,61.0,74.0
377,98.68549045,99.21774855000001,58.0,70.0
378,98.68549045,99.254038875,61.0,74.0
379,98.68549045,99.49194211666668,66.0,76.0
380,97.71774845,99.68750664583334,42.0,73.0
381,99.65323245,100.48387766666667,65.0,74.0
382,99.65323245,100.48992605416667,60.0,71.0
383,100.62097445,100.90323253333334,63.0,86.0
384,100.86290995,101.15121642083334,60.0,64.0
385,101.10484545,101.47782934583334,56.0,74.0
386,99.65323245,101.5100874125,49.0,70.0
387,101.58871645,102.375006825,58.0,59.0
388,101.58871645,102.399200375,66.0,66.0
389,101.58871645,102.40524876250001,61.0,65.0
390,102.55645845000001,103.26210365833334,58.0,68.0
391,102.55645845000001,103.37500689166667,61.0,69.0
392,102.55645845000001,103.43145850833334,66.0,74.0
393,101.58871645,103.58670045416667,42.0,72.0
394,103.52420045000001,104.1592811375,60.0,63.0
395,103.52420045000001,104.3709747,65.0,68.0
396,104.25000695,104.4496037375,61.0,63.0
397,104.49194245000001,104.72379730416667,68.0,75.0
398,104.49194245000001,105.08871668333335,60.0,65.0
399,103.52420045000001,105.11895862083334,49.0,62.0
400,104.73387795000001,105.229845725,70.0,86.0
401,105.45968445000001,106.22984579166668,58.0,67.0
402,105.45968445000001,106.22984579166668,61.0,72.0
403,106.42742645,107.00403939166667,61.0,65.0
404,106.42742645,107.0383135875,58.0,60.0
405,105.45968445000001,107.39516845,42.0,69.0
406,107.39516845,108.20363624583334,60.0,62.0
407,107.39516845,108.22581366666667,68.0,64.0
408,107.39516845,108.23186205416667,63.0,60.0
409,108.36291045,108.64718466250001,63.0,74.0
410,108.60484595000001,108.88508790416667,60.0,63.0
411,108.36291045,109.14718469583333,68.0,76.0
412,108.84678145000001,109.1915395375,56.0,72.0
413,107.39516845,109.37702342083334,49.0,71.0
414,109.33065245,110.19355573333334,58.0,64.0
415,109.33065245,110.19960412083334,66.0,72.0
416,109.33065245,110.21774928333333,61.0,68.0
417,109.33065245,110.95565255833334,42.0,65.0
418,110.29839445,111.0665396625,66.0,75.0
419,110.29839445,111.07057192083334,58.0,63.0
420,110.29839445,111.09274934166667,61.0,74.0
421,111.14113644166667,111.23186225416667,65.0,62.0
422,109.81452345000001,111.26613645,49.0,65.0
423,111.26613645,112.92541075416668,54.0,62.0
424,111.06250740416667,113.12702367083334,63.0,60.0
425,111.26613645,113.13105592916668,66.0,85.0
426,111.26613645,113.1471849625,42.0,76.0
427,113.20162045000001,114.02621727916667,58.0,59.0
428,113.20162045000001,114.06452373333335,66.0,67.0
429,113.20162045000001,114.07057212083333,61.0,69.0
430,114.16936245000001,114.66331409583334,58.0,72.0
431,114.16936245000001,114.68549151666667,61.0,74.0
432,114.16936245000001,114.68549151666667,66.0,77.0
433,113.20162045000001,115.1068625125,42.0,74.0
434,115.13710445000001,115.94153998750001,65.0,72.0
435,115.13710445000001,115.94758837500001,60.0,69.0
436,116.10484645000001,116.41331421250001,72.0,93.0
437,116.34678195000001,116.57460454583334,68.0,72.0
438,116.10484645000001,116.59879809583335,60.0,76.0
439,115.13710445000001,116.79234649583334,49.0,74.0
440,116.58871745,116.93549166666668,63.0,65.0
441,117.07258845000001,117.89516915,66.0,59.0
442,117.07258845000001,117.90323366666668,58.0,63.0
443,117.07258845000001,117.91936270000001,61.0,68.0
444,118.04033045,118.66734662083334,58.0,74.0
445,118.04033045,118.82258856666667,61.0,74.0
446,118.04033045,118.92742728333334,66.0,85.0
447,117.07258845000001,119.0625079375,42.0,76.0
448,119.00807245,119.85283057083333,60.0,71.0
449,119.00807245,119.85887895833334,65.0,76.0
450,119.97581445,120.27621769583334,73.0,76.0
451,119.97581445,120.41734673750001,60.0,71.0
452,120.21774995000001,120.48589512916668,72.0,62.0
453,119.00807245,120.84678225,49.0,74.0
454,120.45968545000001,120.92541128750001,65.0,60.0
455,120.94355645,121.81452425,66.0,73.0
456,120.94355645,121.81654037916667,58.0,64.0
457,120.94355645,121.83065328333333,61.0,68.0
458,121.91129845,122.44557267916667,58.0,72.0
459,121.91129845,122.50605655416668,61.0,76.0
460,121.91129845,122.74597592500001,66.0,83.0
461,120.94355645,122.90121787083334,42.0,65.0
462,122.87904045,123.69960502083335,60.0,77.0
463,122.87904045,123.69960502083335,65.0,75.0
464,123.84678245,124.12299214583334,73.0,85.0
465,124.08871795,124.37702442083334,72.0,60.0
466,123.84678245,124.58065346666667,60.0,73.0
467,122.87904045,124.68347605416668,49.0,73.0
468,124.33065345,124.69557282916668,70.0,62.0
469,124.81452445000001,125.63508902083333,58.0,61.0
470,124.81452445000001,125.64315353750001,61.0,67.0
471,125.78226645000001,126.5262181125,66.0,72.0
472,126.26613745,126.60081489166667,54.0,55.0
473,124.81452445000001,126.60887940833334,42.0,72.0
474,125.78226645000001,126.6229923125,58.0,66.0
475,125.29839545,126.64315360416667,49.0,54.0
476,125.78226645000001,126.64315360416667,61.0,73.0
477,126.75000845000001,127.58871818333334,66.0,56.0
478,126.75000845000001,127.61492786250001,58.0,63.0
479,126.75000845000001,127.62500850833334,61.0,70.0
480,126.75000845000001,128.17944402916666,42.0,77.0
481,127.71775045000001,128.22984725833334,58.0,75.0
482,127.23387945,128.26008919583333,49.0,75.0
483,127.71775045000001,128.262105325,61.0,81.0
484,127.71775045000001,128.2681537125,66.0,87.0
485,128.68549245,129.00404085833333,65.0,75.0
486,128.68549245,129.0423473125,57.0,71.0
487,128.68549245,129.05041182916668,60.0,86.0
488,129.16936345000002,129.47178282500002,65.0,68.0
489,129.16936345000002,129.51008927916666,60.0,81.0
490,129.16936345000002,129.520169925,57.0,81.0
491,129.65323445,129.85081510833334,65.0,74.0
492,129.16936345000002,129.89516995,53.0,51.0
493,129.65323445,129.931460275,60.0,93.0
494,129.65323445,129.94758930833333,57.0,90.0
495,128.68549245,130.00202479583334,41.0,77.0
496,129.65323445,130.00202479583334,45.0,2.0
497,129.16936345000002,130.004040925,48.0,59.0
498,130.13710545,130.42944417916667,60.0,81.0
499,130.13710545,130.44758934166668,41.0,63.0
500,130.13710545,130.44960547083335,57.0,74.0
501,130.13710545,130.46170224583335,45.0,62.0
502,130.13710545,130.47178289166666,53.0,63.0
503,130.13710545,130.47783127916668,48.0,69.0
504,130.62097645,130.81654097916666,65.0,96.0
505,130.62097645,130.826621625,60.0,96.0
506,130.62097645,130.83468614166668,53.0,96.0
507,130.62097645,130.84073452916667,45.0,96.0
508,130.62097645,130.84275065833333,48.0,96.0
509,130.62097645,130.84678291666668,41.0,96.0
510,130.62097645,130.84879904583335,57.0,96.0
511,131.58871845000002,132.40928302083333,58.0,72.0
512,131.58871845000002,132.41533140833334,63.0,77.0
513,131.58871845000002,132.41533140833334,65.0,70.0
514,131.58871845000002,132.4173475375,54.0,75.0
515,132.55646045,133.33065405,58.0,70.0
516,132.55646045,133.33065405,66.0,81.0
517,132.55646045,133.34073469583333,61.0,75.0
518,133.52420245000002,134.39113799166668,66.0,87.0
519,133.52420245000002,134.39315412083334,58.0,76.0
520,133.52420245000002,134.40323476666669,61.0,85.0
521,134.49194445,135.34275095833334,58.0,73.0
522,134.49194445,135.34275095833334,66.0,85.0
523,134.49194445,135.35283160416668,61.0,83.0
524,132.55646045,135.78831550416666,54.0,58.0
525,132.55646045,135.95767035416668,42.0,60.0
526,135.45968645,136.028234875,61.0,81.0
527,135.45968645,136.03025100416667,66.0,86.0
528,135.45968645,136.03831552083335,58.0,74.0
529,132.55646045,136.08468649166667,49.0,76.0
530,136.42742845,137.29033173333335,56.0,61.0
531,136.42742845,137.29033173333335,63.0,69.0
532,136.66936395000002,137.36089625416668,60.0,11.0
533,137.39517045,138.25202534583335,63.0,74.0
534,137.39517045,138.254041475,56.0,76.0
535,137.39517045,138.254041475,60.0,79.0
536,138.36291245,139.17138024583335,56.0,67.0
537,138.36291245,139.18549315,60.0,69.0
538,138.36291245,139.18549315,63.0,71.0
539,136.42742845,139.6754125375,53.0,59.0
540,139.33065445,139.75605770416666,63.0,76.0
541,139.33065445,139.79436415833334,60.0,75.0
542,136.42742845,139.81250932083333,48.0,68.0
543,139.33065445,139.82258996666667,56.0,77.0
544,136.42742845,139.86089642083334,41.0,59.0
545,140.29839645,141.17944489583334,58.0,61.0
546,140.29839645,141.18549328333333,54.0,74.0
547,140.29839645,141.79234816250002,39.0,65.0
548,141.26613845,141.79436429166668,63.0,76.0
549,141.26613845,141.79839655,54.0,67.0
550,141.26613845,141.81452558333334,58.0,71.0
551,140.78226745,141.84678365000002,46.0,72.0
552,141.75000945,142.17138044583334,51.0,55.0
553,142.23388045000002,143.14517083333334,65.0,67.0
554,142.23388045000002,143.15323535000002,56.0,60.0
555,142.23388045000002,143.1592837375,60.0,57.0
556,142.71775145,143.67339667500002,48.0,75.0
557,143.20162245,143.68347732083333,65.0,74.0
558,143.20162245,143.68952570833335,56.0,74.0
559,143.20162245,143.69355796666667,60.0,77.0
560,142.23388045000002,143.721783775,41.0,60.0
561,143.68549345,144.16129993333334,53.0,60.0
562,144.16936445000002,144.73186448750002,70.0,72.0
563,144.16936445000002,144.76412255416668,65.0,81.0
564,144.16936445000002,144.94759030833333,62.0,85.0
565,144.89517095,145.9778323125,50.0,37.0
566,145.13710645,146.00000973333334,70.0,67.0
567,145.13710645,146.00404199166667,62.0,83.0
568,145.13710645,146.0322678,65.0,77.0
569,146.10484845000002,146.89920334166666,70.0,64.0
570,146.10484845000002,146.94960657083334,65.0,75.0
571,146.10484845000002,146.95968721666668,62.0,77.0
572,144.16936445000002,147.11089690416668,58.0,57.0
573,144.16936445000002,147.21573562083333,46.0,52.0
574,144.16936445000002,147.37702595416667,53.0,72.0
575,147.07259045,147.4294453125,70.0,54.0
576,147.07259045,147.50000983333334,65.0,54.0
577,147.07259045,147.51009047916668,62.0,54.0
578,147.55646145,147.76412275416666,44.0,87.0
579,148.04033245,148.82863895416668,66.0,60.0
580,148.04033245,148.84275185833334,58.0,66.0
581,148.04033245,148.8568647625,61.0,65.0
582,149.00807445,149.8488003125,66.0,86.0
583,149.00807445,149.86291321666667,58.0,83.0
584,149.00807445,149.86896160416669,61.0,86.0
585,149.49194545,150.34275195833334,54.0,54.0
586,149.97581645,150.83065521666668,66.0,73.0
587,149.97581645,150.8427519916667,58.0,66.0
588,149.97581645,150.84880037916668,61.0,73.0
589,150.45968745000002,151.09275200833335,54.0,54.0
590,150.94355845,151.44960687083335,66.0,83.0
591,150.94355845,151.46371977500002,61.0,76.0
592,150.94355845,151.47581655000002,58.0,68.0
593,148.52420345000002,151.54033268333333,49.0,79.0
594,151.42742945,151.62299397916667,54.0,59.0
595,148.04033245,151.63710688333333,42.0,79.0
596,151.91130045,152.80242954166667,65.0,75.0
597,151.91130045,152.8125101875,56.0,69.0
598,151.91130045,152.81452631666667,60.0,74.0
599,152.87904245000001,153.71170379583333,65.0,76.0
600,152.87904245000001,153.7197683125,56.0,75.0
601,152.87904245000001,153.7318650875,60.0,79.0
602,153.36291345,154.25202641250002,53.0,56.0
603,153.84678445,154.67339740833333,65.0,81.0
604,153.84678445,154.68549418333333,56.0,74.0
605,153.84678445,154.6935587,60.0,79.0
606,154.33065545,155.13307485833334,53.0,54.0
607,154.81452645000002,155.19960712083335,65.0,72.0
608,154.81452645000002,155.22380067083333,60.0,75.0
609,152.39517145000002,155.23992970416668,48.0,73.0
610,154.81452645000002,155.24194583333335,56.0,72.0
611,151.91130045,155.3286393875,41.0,71.0
612,155.54033295000002,155.63307489166667,54.0,34.0
613,155.54033295000002,155.649203925,58.0,10.0
614,155.78226845,156.64517173333334,54.0,69.0
615,155.78226845,156.6592846375,63.0,73.0
616,155.78226845,156.6673491541667,58.0,74.0
617,156.75001045000002,157.27823629166667,54.0,85.0
618,156.75001045000002,157.28226855,63.0,77.0
619,156.75001045000002,157.29033306666668,58.0,79.0
620,155.78226845,157.29638145416666,39.0,67.0
621,156.26613945,157.30242984166668,46.0,66.0
622,157.23388145,157.56049437500002,51.0,58.0
623,157.71775245,159.50404289166667,65.0,63.0
624,157.71775245,159.60283322083333,60.0,75.0
625,157.71775245,159.65323645,57.0,68.0
626,157.71775245,159.6592848375,53.0,63.0
627,157.71775245,159.6613009666667,45.0,71.0
628,157.71775245,159.67743000000002,48.0,74.0
629,157.71775245,159.68146225833334,41.0,51.0
630,159.65323645,160.51009134583333,61.0,77.0
631,159.65323645,160.51210747500002,58.0,70.0
632,159.65323645,160.51210747500002,65.0,68.0
633,160.62097845,161.50605915416668,58.0,74.0
634,160.62097845,161.50605915416668,65.0,93.0
635,160.62097845,161.50807528333334,61.0,81.0
636,159.65323645,161.58872045,42.0,60.0
637,159.65323645,161.58872045,49.0,87.0
638,159.65323645,161.58872045,54.0,61.0
639,161.58872045,162.47984954166668,65.0,76.0
640,161.58872045,162.49396244583335,72.0,86.0
641,161.58872045,163.33065605000002,56.0,63.0
642,162.55646245,163.38912379583334,65.0,75.0
643,161.58872045,163.52420445,49.0,67.0
644,161.58872045,163.52420445,60.0,56.0
645,162.55646245,163.52420445,72.0,85.0
646,163.52420445,164.4254141875,58.0,66.0
647,163.52420445,164.431462575,61.0,71.0
648,163.52420445,164.4375109625,65.0,67.0
649,164.49194645,165.32259166666668,61.0,77.0
650,164.49194645,165.32460779583334,65.0,86.0
651,164.49194645,165.326623925,58.0,73.0
652,163.52420445,165.3467852166667,53.0,58.0
653,163.52420445,165.37501102500002,49.0,72.0
654,163.52420445,165.40323683333335,42.0,62.0
655,165.45968845000002,166.318559475,72.0,70.0
656,165.45968845000002,166.32662399166668,68.0,83.0
657,165.45968845000002,166.32864012083334,61.0,68.0
658,166.42743045,167.37299502916667,68.0,83.0
659,166.42743045,167.38105954583335,72.0,87.0
660,165.45968845000002,167.38307567500001,56.0,74.0
661,166.42743045,167.38710793333334,61.0,73.0
662,165.45968845000002,167.42339825833335,49.0,76.0
663,167.39517245000002,167.42339825833335,49.0,72.0
664,167.39517245000002,168.29436605833334,58.0,68.0
665,167.39517245000002,168.30444670416668,65.0,74.0
666,167.39517245000002,168.30646283333334,61.0,73.0
667,167.39517245000002,168.80847899583335,42.0,43.0
668,168.36291445,168.82460802916668,65.0,77.0
669,168.36291445,168.834688675,61.0,77.0
670,168.36291445,168.8407370625,58.0,74.0
671,167.39517245000002,168.92138222916668,54.0,63.0
672,169.33065645000002,170.21170489583335,60.0,59.0
673,169.33065645000002,170.22380167083335,65.0,70.0
674,169.33065645000002,170.23791457500002,72.0,81.0
675,169.33065645000002,170.25807586666667,56.0,66.0
676,170.29839845,170.76009202916669,60.0,59.0
677,170.29839845,170.79839848333333,56.0,63.0
678,170.29839845,170.82662429166666,72.0,85.0
679,170.29839845,170.8488017125,65.0,77.0
680,169.33065645000002,170.8608984875,49.0,68.0
681,171.26614045,172.11089857083334,58.0,65.0
682,171.26614045,172.13509212083335,61.0,70.0
683,171.26614045,172.14114050833334,66.0,74.0
684,172.23388245,173.0524308916667,58.0,76.0
685,172.23388245,173.0625115375,66.0,86.0
686,172.23388245,173.06855992500002,61.0,79.0
687,173.20162445,174.02823740833335,58.0,67.0
688,173.20162445,174.060495475,66.0,83.0
689,173.20162445,174.06251160416667,61.0,74.0
690,174.16936645,174.97178585833333,66.0,86.0
691,174.16936645,174.98388263333334,61.0,86.0
692,174.16936645,174.9858987625,58.0,86.0
693,171.26614045,174.99396327916668,49.0,83.0
694,171.26614045,175.01815682916668,54.0,59.0
695,171.26614045,175.07460844583335,42.0,59.0
696,175.13710845,175.18549555,60.0,49.0
697,175.37904395,175.4294471791667,60.0,56.0
698,175.37904395,175.44759234166668,57.0,52.0
699,175.62097945000002,175.67743106666668,60.0,73.0
700,175.62097945000002,175.69759235833334,57.0,63.0
701,175.86291495,175.91331817916668,60.0,61.0
702,175.86291495,175.92743108333335,57.0,58.0
703,176.10485045000001,176.15726980833335,60.0,68.0
704,176.10485045000001,176.18146335833333,57.0,66.0
705,176.34678595,176.40525369583335,60.0,72.0
706,176.34678595,176.42138272916668,57.0,64.0
707,176.58872145,176.649205325,60.0,73.0
708,176.58872145,176.65323758333335,57.0,60.0
709,176.83065695000002,176.88509243750002,60.0,73.0
710,176.83065695000002,176.89517308333333,57.0,66.0
711,177.07259245,177.12904406666667,60.0,81.0
712,177.07259245,177.1391247125,57.0,73.0
713,177.31452795,177.3649311791667,60.0,75.0
714,177.31452795,177.38509247083334,57.0,72.0
715,177.55646345,177.61493119583335,60.0,72.0
716,177.55646345,177.62702797083335,57.0,63.0
717,177.79839895,177.85686669583333,60.0,85.0
718,177.79839895,177.8649312125,57.0,77.0
719,178.04033445000002,178.09476993750002,60.0,75.0
720,178.04033445000002,178.10888284166668,57.0,70.0
721,178.28226995,178.33468930833334,60.0,81.0
722,178.28226995,178.34275382500002,57.0,74.0
723,178.52420545,178.57662480833335,60.0,79.0
724,178.52420545,178.5967861,57.0,71.0
725,178.76614095000002,178.82259256666669,60.0,77.0
726,178.76614095000002,178.84275385833334,57.0,67.0
727,179.00807645,179.0625119375,60.0,86.0
728,179.00807645,179.07057645416668,57.0,72.0
729,179.25001195000002,179.310495825,60.0,83.0
730,179.25001195000002,179.32460872916667,57.0,77.0
731,179.49194745,179.54436680833334,60.0,70.0
732,179.49194745,179.5705764875,57.0,65.0
733,179.73388295,179.7883184375,60.0,79.0
734,179.73388295,179.8004152125,57.0,69.0
735,179.97581845000002,180.03227006666668,60.0,87.0
736,179.97581845000002,180.05041522916667,57.0,87.0
737,180.21775395,180.2721894375,60.0,87.0
738,180.21775395,180.29235072916669,57.0,79.0
739,180.45968945,180.4979959041667,65.0,87.0
740,180.45968945,180.51815719583334,60.0,100.0
741,180.45968945,180.52823784166668,57.0,100.0
742,180.70162495,180.7560604375,60.0,100.0
743,180.70162495,180.7580765666667,65.0,100.0
744,180.70162495,180.77017334166666,57.0,93.0
745,180.94356045,180.9979959375,65.0,108.0
746,180.94356045,181.004044325,60.0,108.0
747,180.94356045,181.01210884166667,57.0,98.0
748,181.18549595000002,181.24194756666668,65.0,111.0
749,181.18549595000002,181.245979825,60.0,108.0
750,181.18549595000002,181.25606047083335,57.0,100.0
751,181.42743145,181.48388306666666,65.0,108.0
752,181.42743145,181.49194758333334,60.0,104.0
753,181.42743145,181.50001210000002,57.0,95.0
754,181.66936695,181.7197701791667,65.0,90.0
755,181.66936695,181.73186695416666,60.0,100.0
756,181.66936695,181.74597985833333,57.0,87.0
757,175.13710845,181.90928632083333,53.0,52.0
758,175.13710845,181.91130245000002,48.0,59.0
759,175.13710845,181.9254153541667,45.0,58.0
760,175.13710845,181.935496,41.0,45.0
761,181.91130245000002,182.17944762916667,61.0,74.0
762,181.91130245000002,182.17944762916667,70.0,76.0
763,181.91130245000002,182.1834798875,65.0,77.0
764,181.91130245000002,182.2318669875,46.0,95.0
765,182.39517345000002,182.69356056666666,68.0,87.0
766,182.39517345000002,182.70968960000002,44.0,83.0
767,182.39517345000002,182.72985089166667,63.0,77.0
768,182.39517345000002,182.73186702083333,60.0,71.0
769,182.87904445,183.7197703125,61.0,75.0
770,182.87904445,183.7197703125,61.0,93.0
771,182.87904445,183.72783482916668,58.0,71.0
772,182.87904445,183.72783482916668,58.0,77.0
773,182.87904445,183.79638322083335,42.0,59.0
774,182.87904445,183.79638322083335,42.0,87.0
775,182.87904445,183.94356065,65.0,76.0
776,182.87904445,183.98186710416667,49.0,85.0
777,182.87904445,183.99194775,54.0,61.0
778,184.33065745000002,185.7298510916667,58.0,81.0
779,184.33065745000002,185.74396399583335,61.0,83.0
780,184.33065745000002,185.74396399583335,65.0,95.0
781,184.33065745000002,186.24598015833334,54.0,60.0
782,185.78227045,186.26210919166667,65.0,90.0
783,185.78227045,186.278238225,61.0,77.0
784,185.78227045,186.2842866125,58.0,77.0
785,184.33065745000002,186.35888339166667,49.0,83.0
786,184.33065745000002,186.37904468333335,42.0,63.0
787,186.75001245,187.78227058333334,53.0,66.0
788,186.75001245,187.78831897083333,65.0,73.0
789,186.75001245,187.81654477916666,60.0,71.0
790,186.75001245,187.81856090833335,41.0,70.0
791,186.75001245,187.82057703750002,56.0,64.0
792,186.75001245,187.84477058750002,48.0,86.0
793,188.20162545000002,189.25606100416667,53.0,58.0
794,188.20162545000002,189.54033521666668,65.0,85.0
795,188.20162545000002,189.55243199166668,56.0,87.0
796,188.20162545000002,189.55243199166668,60.0,83.0
797,189.41130295000002,189.786302975,53.0,58.0
798,189.65323845,190.19960945416668,60.0,66.0
799,189.65323845,190.2036417125,65.0,75.0
800,189.65323845,190.22581913333335,56.0,67.0
801,188.20162545000002,190.28025462083335,48.0,81.0
802,188.20162545000002,190.30848042916668,41.0,79.0
803,190.13710945,190.32662559166667,53.0,65.0
804,190.62098045000002,191.52420631666666,54.0,71.0
805,190.62098045000002,191.53227083333334,63.0,74.0
806,190.62098045000002,191.54033535000002,58.0,74.0
807,190.62098045000002,191.65323858333335,39.0,85.0
808,191.10485145,191.68549665,46.0,70.0
809,191.58872245,191.7520289125,51.0,66.0
810,192.07259345,193.44154515416668,60.0,75.0
811,192.07259345,193.44759354166666,68.0,85.0
812,192.07259345,193.44960967083335,63.0,77.0
813,192.79839995,193.47581935000002,56.0,60.0
814,192.07259345,194.05646455000002,44.0,86.0
815,192.79839995,194.08065810000002,51.0,50.0
816,193.52420645,194.09073874583333,60.0,73.0
817,193.52420645,194.092754875,63.0,83.0
818,193.52420645,194.10081939166668,68.0,98.0
819,194.00807745,194.46573877083335,56.0,64.0
820,194.49194845,195.09477107083333,73.0,70.0
821,194.49194845,195.32460979583334,62.0,85.0
822,194.49194845,195.32460979583334,65.0,85.0
823,194.49194845,195.326625925,70.0,79.0
824,194.49194845,195.52420658333335,58.0,60.0
825,195.45969045,195.74396466250002,70.0,79.0
826,195.45969045,195.7681582125,65.0,79.0
827,195.45969045,195.78831950416668,62.0,79.0
828,195.70162595000002,196.49194858333334,58.0,84.0
829,196.66936795,196.97581958333333,58.0,64.0
830,195.94356145,197.22380347083333,70.0,85.0
831,195.94356145,197.24799702083334,65.0,85.0
832,195.94356145,197.26815831250002,62.0,85.0
833,197.15323895,197.53831962083333,58.0,92.0
834,194.49194845,197.71977124583336,53.0,74.0
835,197.39517445,197.7580777,70.0,94.0
836,194.49194845,197.77420673333333,50.0,68.0
837,197.39517445,197.77622286250002,65.0,94.0
838,194.49194845,197.78630350833333,46.0,61.0
839,197.39517445,197.81049705833334,62.0,94.0
840,198.36291645,199.25404554166667,58.0,81.0
841,198.36291645,199.25606167083333,61.0,81.0
842,198.36291645,199.26211005833335,66.0,90.0
843,199.33065845000002,199.40525522916667,61.0,64.0
844,199.33065845000002,199.40928748750002,66.0,72.0
845,199.33065845000002,199.42743265000001,58.0,63.0
846,198.84678745000002,199.47178749166667,54.0,61.0
847,198.60485195,199.51009394583335,49.0,63.0
848,198.36291645,199.584690725,42.0,85.0
849,199.57259395,199.584690725,42.0,79.0
850,200.05646495000002,200.39920690833335,54.0,12.0
851,200.54033595,200.84678758333334,54.0,46.0
852,199.81452945,201.1875134125,58.0,94.0
853,199.81452945,201.1875134125,66.0,94.0
854,199.81452945,201.1935618,61.0,94.0
855,201.02420695,201.4012231041667,54.0,66.0
856,201.26614245000002,201.78831990416668,66.0,98.0
857,201.50807795,201.8044489375,54.0,60.0
858,201.26614245000002,201.8225941,61.0,81.0
859,201.26614245000002,201.83065861666668,58.0,76.0
860,199.81452945,201.9516263666667,49.0,94.0
861,202.23388445,203.30041677916668,56.0,72.0
862,202.23388445,203.30243290833334,60.0,73.0
863,202.23388445,203.31251355416669,65.0,77.0
864,202.95969095,203.3790458166667,53.0,51.0
865,202.23388445,203.44557807916667,41.0,86.0
866,202.71775545,203.4979974375,48.0,77.0
867,203.44356195,203.5846909916667,56.0,56.0
868,203.68549745,205.01412657083335,60.0,77.0
869,203.68549745,205.01412657083335,65.0,85.0
870,203.68549745,205.02823947500002,56.0,74.0
871,204.89517495,205.27823949166668,53.0,61.0
872,204.41130395000002,205.62501370833334,48.0,86.0
873,205.13711045000002,205.68751371250002,65.0,90.0
874,205.13711045000002,205.69154597083335,60.0,77.0
875,205.13711045000002,205.73186855416668,56.0,77.0
876,205.62098145000002,205.75807823333335,53.0,62.0
877,203.68549745,205.82461049583335,41.0,79.0
878,206.10485245,207.11493316250002,39.0,86.0
879,206.58872345,207.11896542083335,46.0,74.0
880,206.83065895000001,207.1270299375,51.0,61.0
881,206.10485245,207.14315897083335,58.0,75.0
882,206.10485245,207.14517510000002,63.0,73.0
883,206.10485245,207.14719122916668,54.0,72.0
884,207.55646545000002,208.70162681666667,65.0,71.0
885,207.55646545000002,208.8689655375,60.0,75.0
886,207.55646545000002,208.9536429625,57.0,71.0
887,208.76614295000002,209.32662685833336,53.0,48.0
888,209.00807845,209.77420753333334,60.0,76.0
889,209.00807845,209.86896560416668,57.0,73.0
890,208.28227195000002,209.99194948333334,48.0,13.0
891,207.55646545000002,210.07461077916668,41.0,70.0
892,211.91130445000002,212.17138511250002,65.0,62.0
893,212.15323995,212.32057867083336,63.0,56.0
894,212.39517545,212.63711095000002,65.0,65.0
895,212.63711095000002,212.8145303166667,63.0,59.0
896,211.91130445000002,213.1633206625,42.0,63.0
897,212.87904645,213.26211099166667,65.0,64.0
898,212.39517545,213.26614325,49.0,53.0
899,212.87904645,213.28025615416666,53.0,59.0
900,213.36291745,215.37299822916668,60.0,48.0
901,213.36291745,215.37299822916668,60.0,58.0
902,213.36291745,215.5463853375,49.0,60.0
903,213.36291745,215.55243372500001,53.0,61.0
904,215.78227245000002,216.02420795,70.0,67.0
905,216.02420795,216.1955789291667,68.0,54.0
906,216.26614345000002,216.5141273375,70.0,60.0
907,216.50807895,216.70969186666667,68.0,53.0
908,215.78227245000002,216.84880477916667,58.0,59.0
909,215.78227245000002,216.85283703750002,65.0,50.0
910,215.78227245000002,216.86291768333334,54.0,57.0
911,216.75001445,217.00203059583333,70.0,59.0
912,216.99194995000002,217.07461124583335,68.0,59.0
913,217.23388545,218.79638555416668,60.0,47.0
914,217.23388545,218.8246113625,53.0,58.0
915,217.23388545,218.83065975000002,49.0,65.0
916,218.92743395000002,219.19759525833334,63.0,62.0
917,217.23388545,219.28832107083335,68.0,55.0
918,219.16936945,219.6350952875,56.0,60.0
919,219.65324045,219.92138562916668,65.0,71.0
920,219.89517595,220.1088856416667,63.0,59.0
921,220.13711145000002,220.39315985416667,65.0,63.0
922,220.37904695,220.61090180416667,63.0,60.0
923,220.62098245,220.75001471666667,65.0,65.0
924,220.13711145000002,220.84678891666667,53.0,37.0
925,219.65324045,220.84880504583333,42.0,65.0
926,219.89517595,220.85082117500002,49.0,67.0
927,221.10485345,222.6290471,60.0,41.0
928,221.10485345,222.66332129583336,53.0,53.0
929,221.10485345,222.6915471041667,49.0,59.0
930,222.79840195,222.98791809166667,60.0,53.0
931,223.04033745,223.52420845,49.0,63.0
932,223.52420845,224.20969236666667,61.0,54.0
933,224.00807945,224.71775691666667,49.0,52.0
934,224.73388595,225.0262246791667,54.0,35.0
935,224.97582145,226.6048538166667,61.0,67.0
936,225.45969245,226.71574092083335,66.0,61.0
937,226.42743445000002,226.94356351666667,63.0,48.0
938,226.91130545000001,227.3649345125,57.0,52.0
939,229.30243464166668,229.53025723750002,41.0,43.0
940,229.58872498333335,229.75203144583335,41.0,47.0
941,229.8891282291667,229.995983075,41.0,12.0
942,230.03832178750002,230.20162825,41.0,55.0
943,230.24195083333333,230.3004185791667,41.0,55.0
944,230.32864438750002,230.3971927791667,41.0,50.0
945,230.70566054166667,230.82057990416666,41.0,35.0
946,230.87904765000002,230.94961217083335,41.0,74.0
947,227.15324095,231.03428959583334,63.0,69.0
948,230.98791862500002,231.13711218333336,41.0,52.0
949,231.17138637916668,231.2600960625,41.0,61.0
950,231.2842896125,231.45162833333333,41.0,55.0
951,231.54638640416667,231.65928963750002,41.0,60.0
952,231.69759609166667,231.762112225,41.0,61.0
953,231.79437029166667,231.86493481250002,41.0,53.0
954,231.9254186875,231.9738057875,41.0,59.0
955,232.20162838333334,232.26009612916667,41.0,71.0
956,232.34880581250002,232.40122517083336,41.0,69.0
957,232.45566065833336,232.50404775833334,41.0,58.0
958,232.5786445375,232.6350961541667,41.0,85.0
959,232.7238058375,232.76211229166668,41.0,75.0
960,232.82662842500002,232.88912842916668,41.0,77.0
961,232.96372520833336,233.02219295416668,41.0,75.0
962,233.09074134583335,233.14920909166668,41.0,67.0
963,233.21775748333334,233.27824135833333,41.0,71.0
964,233.35283813750002,233.41130588333334,41.0,67.0
965,233.48590266250002,233.5463865375,41.0,75.0
966,233.62098331666667,233.67541880416667,41.0,66.0
967,233.7479994541667,233.80646720000001,41.0,69.0
968,233.891144625,233.94961237083334,41.0,70.0
969,234.02622527916668,234.084693025,41.0,69.0
970,234.16735432083334,234.21775755000002,41.0,62.0
971,234.29437045833333,234.35082207500002,41.0,65.0
972,234.43549950000002,234.495983375,41.0,70.0
973,234.58469305833336,234.64114467500002,41.0,65.0
974,234.72582210000002,234.77219307083334,41.0,58.0
975,234.85485436666667,234.91130598333334,41.0,61.0
976,235.13912857916668,235.18348342083334,41.0,54.0
977,235.27420923333335,235.32259633333334,41.0,53.0
978,235.41332214583335,235.46372537500002,41.0,56.0
979,235.56251570416669,235.608886675,41.0,50.0
980,235.70162861666668,235.79437055833336,41.0,53.0
981,235.90122540416667,236.02622541250003,41.0,59.0
982,236.13912864583335,236.2459834916667,41.0,52.0
983,236.34880607916668,236.44759640833334,41.0,58.0
984,236.5584835125,236.67743513333335,41.0,55.0
985,236.939531925,237.4536448625,41.0,39.0
986,237.31453195,242.1673548541667,68.0,47.0
987,237.55646745,242.213725825,65.0,72.0
988,237.79840295000002,242.24800002083333,61.0,60.0
989,237.55646745,242.286306475,37.0,76.0
