,start,end,pitch,velocity
0,12.288113208333334,12.57643250625,74.0,95.0
1,12.730264208333335,12.940285933333334,74.0,88.0
2,13.025031541666667,13.113461741666667,77.0,83.0
3,13.172415208333334,13.432178920833334,70.0,88.0
4,13.614566208333335,13.771161354166667,70.0,86.0
5,13.909333541666667,14.01342325625,74.0,81.0
6,14.056717208333334,14.214233502083333,72.0,79.0
7,14.351484541666668,14.450968516666668,72.0,78.0
8,14.498868208333334,14.672965164583333,72.0,80.0
9,14.793635541666667,14.909700179166668,74.0,81.0
10,14.941019208333334,15.231180802083333,75.0,88.0
11,15.383170208333334,15.536080762500001,72.0,81.0
12,15.677937541666667,15.782948404166667,70.0,88.0
13,15.825321208333333,16.09153295625,69.0,80.0
14,16.267472208333334,16.55947609791667,65.0,83.0
15,16.709623208333333,17.00070595,69.0,84.0
16,17.151774208333332,17.392193814583333,65.0,84.0
17,17.593925208333335,17.734860839583334,70.0,85.0
18,17.888692541666668,17.979886185416667,70.0,83.0
19,18.036076208333334,18.203725129166667,70.0,78.0
20,18.330843541666667,18.42480062916667,72.0,79.0
21,18.478227208333333,18.920378208333336,74.0,85.0
22,19.362529208333335,19.65084850625,74.0,95.0
23,19.804680208333334,20.014701933333335,74.0,88.0
24,20.099447541666667,20.187877741666668,77.0,83.0
25,20.246831208333333,20.506594920833333,70.0,88.0
26,20.688982208333336,20.845577354166668,70.0,86.0
27,20.98374954166667,21.08783925625,74.0,81.0
28,21.131133208333335,21.288649502083334,72.0,79.0
29,21.425900541666667,21.52538451666667,72.0,78.0
30,21.573284208333334,21.747381164583334,72.0,80.0
31,21.868051541666667,21.98411617916667,74.0,81.0
32,22.015435208333333,22.305596802083333,75.0,88.0
33,22.457586208333336,22.610496762500002,72.0,81.0
34,22.75235354166667,22.857364404166667,70.0,88.0
35,22.899737208333335,23.165948956250002,69.0,80.0
36,23.341888208333334,23.6495516125,79.0,84.0
37,23.784039208333333,24.118245277083332,77.0,85.0
38,24.225940364583334,24.480910785416665,69.0,83.0
39,24.667766364583333,25.557861660416666,70.0,83.0
40,26.435070364583332,26.609829822916666,77.0,83.0
41,26.729314989583333,26.83501340625,75.0,86.0
42,26.87637365625,26.994020589583332,74.0,85.0
43,27.17049098958333,27.274351172916667,72.0,81.0
44,27.317549656249998,27.43243923958333,74.0,86.0
45,27.611666989583334,27.721960989583334,74.0,84.0
46,27.75872565625,27.87729170625,72.0,80.0
47,28.052842989583333,28.594202706249998,70.0,75.0
48,28.935194989583334,29.025268422916668,70.0,80.0
49,29.08225365625,29.224716739583332,70.0,81.0
50,29.376370989583332,29.46552530625,72.0,79.0
51,29.52342965625,29.742179422916667,74.0,90.0
52,29.96460565625,30.088686406249998,75.0,82.0
53,30.258722989583333,30.35063465625,75.0,79.0
54,30.40578165625,30.520671239583333,75.0,73.0
55,30.699898989583332,30.79456800625,75.0,79.0
56,30.846957656249998,31.013317772916665,77.0,74.0
57,31.141074989583334,31.244935172916666,75.0,81.0
58,31.28813365625,31.42324380625,74.0,84.0
59,31.582250989583333,32.22930912291667,72.0,80.0
60,32.464602989583334,32.55835288958333,72.0,83.0
61,32.61166165625,32.75228650625,72.0,79.0
62,32.90577898958333,33.009639172916664,74.0,83.0
63,33.05283765625,33.29824180625,75.0,84.0
64,33.49401365625,33.60246942291667,79.0,83.0
65,33.78813098958334,33.87268972291667,79.0,77.0
66,33.93518965625,35.25871765625,79.0,81.0
67,35.25871765625,35.63555548958333,77.0,76.0
68,36.14106965625,36.44162080625,77.0,81.0
69,36.58224565625,36.920480589583335,77.0,81.0
70,37.02342165625,38.74676540625,74.0,85.0
71,40.55282965625,40.727461822916666,77.0,83.0
72,40.84694698958333,40.95264540625,75.0,86.0
73,40.994005656249996,41.111652589583336,74.0,85.0
74,41.288122989583336,41.39198317291667,72.0,81.0
75,41.43518165625,41.55007123958333,74.0,86.0
76,41.729298989583334,41.83959298958334,74.0,84.0
77,41.87635765625,41.99492370625,72.0,80.0
78,42.17047498958333,42.71183470625,70.0,75.0
79,43.05282698958334,43.14290042291667,70.0,80.0
80,43.199885656250004,43.34234873958333,70.0,81.0
81,43.494002989583336,43.58315730625,72.0,79.0
82,43.64106165625,43.859811422916664,74.0,90.0
83,44.08223765625,44.206318406250006,75.0,82.0
84,44.376354989583334,44.46826665625,75.0,79.0
85,44.52341365625,44.63830323958334,75.0,73.0
86,44.81753098958333,44.91220000625,75.0,79.0
87,44.96458965625,45.130949772916665,77.0,74.0
88,45.25870698958333,45.36256717291667,75.0,81.0
89,45.40576565625,45.54087580625,74.0,84.0
90,45.69988298958333,46.34694112291667,72.0,80.0
91,46.582234989583334,46.67598488958333,72.0,83.0
92,46.72929365625,46.86991850625,72.0,79.0
93,47.02341098958333,47.127271172916664,74.0,83.0
94,47.170469656250006,47.415873806250005,75.0,84.0
95,47.611645656250005,47.72010142291667,79.0,83.0
96,47.90576298958334,47.99032172291667,79.0,77.0
97,48.05282165625,49.37634965625,79.0,81.0
98,49.37634965625,49.75318748958334,77.0,76.0
99,50.25870165625,50.55925280625,77.0,81.0
100,50.69987765625,51.038112589583335,69.0,81.0
101,51.14105365625,52.864397406250006,70.0,85.0
102,54.67046165625,54.88921142291667,82.0,85.0
103,55.11163765625,55.24215222291667,82.0,88.0
104,55.405754989583336,55.47928432291667,82.0,80.0
105,55.55281365625,55.87634272291667,82.0,81.0
106,55.99398965625,56.146563022916666,81.0,84.0
107,56.28810698958333,56.372665722916665,79.0,81.0
108,56.43516565625001,56.56200375625,81.0,81.0
109,56.72928298958334,57.00501798958334,81.0,81.0
110,57.17045898958334,57.26512800625,81.0,81.0
111,57.317517656250004,57.62634085625,81.0,83.0
112,57.75869365625,57.95262727291667,79.0,81.0
113,58.052810989583335,58.162185872916666,77.0,79.0
114,58.19986965625,58.728361739583335,79.0,82.0
115,58.93516298958333,59.00777320625,79.0,80.0
116,59.08222165625,59.40483160625,79.0,83.0
117,59.523397656250005,59.79361795625,82.0,84.0
118,59.96457365625,60.22468367291667,79.0,83.0
119,60.40574965625,60.70813903958334,79.0,83.0
120,60.84692565625,61.42964562291667,77.0,81.0
121,61.729277656250005,62.053725839583336,82.0,81.0
122,62.170453656250004,62.33681377291667,82.0,81.0
123,62.464570989583336,62.55464442291667,82.0,79.0
124,62.61162965625,62.91309992291667,82.0,81.0
125,63.05280565625,63.20813637291667,81.0,81.0
126,63.346922989583334,63.422290556250005,79.0,81.0
127,63.49398165625,63.681481456250005,81.0,83.0
128,63.78809898958333,64.08221632291668,81.0,86.0
129,64.22927498958333,64.37633365625001,81.0,86.0
130,64.37633365625001,64.65850247291667,81.0,81.0
131,64.81750965625,64.99489917291666,79.0,82.0
132,65.11162698958333,65.21824452291668,77.0,81.0
133,65.25868565625001,65.37357523958335,79.0,82.0
134,65.55280298958334,65.91677318958334,79.0,81.0
135,65.99397898958333,66.07394213958334,79.0,80.0
136,66.14103765625,66.44710350625,79.0,80.0
137,66.58221365625,67.03349993958334,82.0,90.0
138,67.90574165625,68.24030012291666,82.0,86.0
139,68.34691765625,68.67963788958333,81.0,82.0
140,68.78809365625,70.63735638958335,82.0,84.0
141,72.31750165625,72.60591098958334,74.0,95.0
142,72.75996988125,72.97030178125,74.0,88.0
143,73.05517254791667,73.14373334791667,77.0,83.0
144,73.20277388125,73.46292123125,70.0,88.0
145,73.64557788124999,73.80240429791667,70.0,86.0
146,73.94078054791666,74.04502398958333,74.0,81.0
147,74.08838188125,74.24613080625,72.0,79.0
148,74.38358454791667,74.48321544791666,72.0,78.0
149,74.53118588125,74.70553995624999,72.0,80.0
150,74.82638854791666,74.94262459791666,74.0,81.0
151,74.97398988124999,75.26458000625,75.0,88.0
152,75.41679388125,75.56993026458333,72.0,81.0
153,75.71199654791667,75.81716249791667,70.0,88.0
154,75.85959788125,76.12620278958333,69.0,80.0
155,76.30240188124999,76.59483702291666,65.0,83.0
156,76.74520588125,77.03671851458333,69.0,84.0
157,77.18800988125,77.42878455625,65.0,84.0
158,77.63081388124999,77.77195765625,70.0,85.0
159,77.92601654791666,78.01734487291667,70.0,83.0
160,78.07361788125,78.24151439791666,70.0,78.0
161,78.36882054791667,78.46291639791667,72.0,79.0
162,78.51642188125,78.95922588124999,74.0,85.0
163,79.40202988125,79.69077498958333,74.0,95.0
164,79.84483388125,80.05516578125,74.0,88.0
165,80.14003654791667,80.22859734791666,77.0,83.0
166,80.28763788124999,80.54778523125,70.0,88.0
167,80.73044188125,80.88726829791666,70.0,86.0
168,81.02564454791667,81.12988798958334,74.0,81.0
169,81.17324588125,81.33099480625,72.0,79.0
170,81.46844854791667,81.56807944791666,72.0,78.0
171,81.61604988124999,81.79040395625,72.0,80.0
172,81.91125254791666,82.02748859791666,74.0,81.0
173,82.05885388125,82.34944400625,75.0,88.0
174,82.50165788125,82.65479426458333,72.0,81.0
175,82.79686054791667,82.90202649791667,70.0,88.0
176,82.94446188124999,83.21106678958333,69.0,80.0
177,83.38726588125,83.69538366458333,79.0,84.0
178,83.83006988125,84.16494040625,77.0,85.0
179,84.27287388124999,84.52840868958333,69.0,83.0
180,84.71567788125,85.60774343958333,70.0,83.0
181,86.48689388125,86.66186521458333,77.0,83.0
182,86.78135038125001,86.88704879791666,75.0,86.0
183,86.92840904791667,87.04605598125,74.0,85.0
184,87.22252638125,87.32638656458333,72.0,81.0
185,87.36958504791667,87.48447463125001,74.0,86.0
186,87.66370238125,87.77399638125,74.0,84.0
187,87.81076104791667,87.92932709791667,72.0,80.0
188,88.10487838125,88.64623809791667,70.0,75.0
189,88.98723038125,89.07730381458333,70.0,80.0
190,89.13428904791667,89.27675213125,70.0,81.0
191,89.42840638125,89.51756069791666,72.0,79.0
192,89.57546504791667,89.79421481458334,74.0,90.0
193,90.01664104791666,90.14072179791667,75.0,82.0
194,90.31075838125,90.40267004791667,75.0,79.0
195,90.45781704791666,90.57270663125,75.0,73.0
196,90.75193438125001,90.84660339791667,75.0,79.0
197,90.89899304791668,91.06535316458334,77.0,74.0
198,91.19311038125001,91.29697056458333,75.0,81.0
199,91.34016904791667,91.47527919791666,74.0,84.0
200,91.63428638125,92.28134451458334,72.0,80.0
201,92.51663838125,92.61038828125001,72.0,83.0
202,92.66369704791667,92.80432189791667,72.0,79.0
203,92.95781438125,93.06167456458334,74.0,83.0
204,93.10487304791667,93.35027719791667,75.0,84.0
205,93.54604904791667,93.65450481458333,79.0,83.0
206,93.84016638125,93.92472511458334,79.0,77.0
207,93.98722504791667,95.31075304791668,79.0,81.0
208,95.31075304791668,95.68759088125,77.0,76.0
209,96.19310504791667,96.49365619791666,77.0,81.0
210,96.63428104791667,96.97251598125,77.0,81.0
211,97.07545704791667,98.79880079791667,74.0,85.0
212,100.60486504791668,100.77949721458333,77.0,83.0
213,100.89898238125001,101.00468079791668,75.0,86.0
214,101.04604104791667,101.16368798125,74.0,85.0
215,101.34015838125,101.44401856458333,72.0,81.0
216,101.48721704791667,101.60210663125001,74.0,86.0
217,101.78133438125,101.89162838125,74.0,84.0
218,101.92839304791667,102.04695909791667,72.0,80.0
219,102.22251038125,102.76387009791667,70.0,75.0
220,103.10486238125,103.19493581458335,70.0,80.0
221,103.25192104791667,103.39438413125,70.0,81.0
222,103.54603838125,103.63519269791666,72.0,79.0
223,103.69309704791667,103.91184681458334,74.0,90.0
224,104.13427304791668,104.25835379791667,75.0,82.0
225,104.42839038125001,104.52030204791667,75.0,79.0
226,104.57544904791666,104.69033863125,75.0,73.0
227,104.86956638125,104.96423539791667,75.0,79.0
228,105.01662504791668,105.18298516458333,77.0,74.0
229,105.31074238125001,105.41460256458333,75.0,81.0
230,105.45780104791667,105.59291119791666,74.0,84.0
231,105.75191838125001,106.39897651458334,72.0,80.0
232,106.63427038125,106.72802028125,72.0,83.0
233,106.78132904791667,106.92195389791667,72.0,79.0
234,107.07544638125,107.17930656458334,74.0,83.0
235,107.22250504791667,107.46790919791667,75.0,84.0
236,107.66368104791667,107.77213681458333,79.0,83.0
237,107.95779838125,108.04235711458334,79.0,77.0
238,108.10485704791667,109.42838504791666,79.0,81.0
239,109.42838504791666,109.80522288125,77.0,76.0
240,110.31073704791667,110.61128819791668,77.0,81.0
241,110.75191304791667,111.09014798125,69.0,81.0
242,111.19308904791667,112.91643279791667,70.0,85.0
243,114.72249704791668,114.94124681458334,82.0,85.0
244,115.16367304791667,115.29418761458334,82.0,88.0
245,115.45779038125,115.53131971458333,82.0,80.0
246,115.60484904791667,115.92837811458334,82.0,81.0
247,116.04602504791667,116.19859841458333,81.0,84.0
248,116.34014238125,116.42470111458334,79.0,81.0
249,116.48720104791667,116.61403914791667,81.0,81.0
250,116.78131838125,117.05705338125,81.0,81.0
251,117.22249438125,117.31716339791667,81.0,81.0
252,117.36955304791667,117.67837624791667,81.0,83.0
253,117.81072904791667,118.00466266458334,79.0,81.0
254,118.10484638125001,118.21422126458333,77.0,79.0
255,118.25190504791667,118.78039713125,79.0,82.0
256,118.98719838125001,119.05980859791667,79.0,80.0
257,119.13425704791666,119.45686699791668,79.0,83.0
258,119.57543304791668,119.84565334791668,82.0,84.0
259,120.01660904791667,120.27671906458335,79.0,83.0
260,120.45778504791667,120.76017443125001,79.0,83.0
261,120.89896104791667,121.48168101458333,77.0,81.0
262,121.78131304791667,122.10576123125,82.0,81.0
263,122.22248904791667,122.38884916458335,82.0,81.0
264,122.51660638125,122.60667981458334,82.0,79.0
265,122.66366504791668,122.96513531458334,82.0,81.0
266,123.10484104791666,123.26017176458333,81.0,81.0
267,123.39895838125,123.47432594791667,79.0,81.0
268,123.54601704791668,123.73351684791668,81.0,83.0
269,123.84013438125001,124.13425171458334,81.0,86.0
270,124.28131038125001,124.42836904791668,81.0,86.0
271,124.42836904791668,124.71053786458333,81.0,81.0
272,124.86954504791667,125.04693456458334,79.0,82.0
273,125.16366238125,125.27027991458334,77.0,81.0
274,125.31072104791667,125.42561063125001,79.0,82.0
275,125.60483838125,125.96880858125002,79.0,81.0
276,126.04601438125,126.12597753125002,79.0,80.0
277,126.19307304791667,126.49913889791668,79.0,80.0
278,126.63424904791668,127.08553533125001,82.0,90.0
279,127.95777704791666,128.29233551458333,82.0,86.0
280,128.39895304791668,128.73167328125,81.0,82.0
281,128.84012904791666,130.68939178125,82.0,84.0
282,132.36953704791668,132.58828681458334,82.0,85.0
283,132.81071304791666,132.94122761458334,82.0,88.0
284,133.10483038125,133.17835971458334,82.0,80.0
285,133.25188904791668,133.57541811458333,82.0,81.0
286,133.69306504791666,133.84563841458333,81.0,84.0
287,133.98718238125002,134.07174111458335,79.0,81.0
288,134.13424104791667,134.2610791479167,81.0,81.0
289,134.42835838125,134.70409338125,81.0,81.0
290,134.86953438125,134.96420339791666,81.0,81.0
291,135.01659304791667,135.32541624791668,81.0,83.0
292,135.45776904791666,135.65170266458335,79.0,81.0
293,135.75188638125002,135.86126126458333,77.0,79.0
294,135.89894504791667,136.42743713125,79.0,82.0
295,136.63423838125001,136.7068485979167,79.0,80.0
296,136.78129704791667,137.10390699791668,79.0,83.0
297,137.22247304791668,137.49269334791666,82.0,84.0
298,137.66364904791666,137.92375906458335,79.0,83.0
299,138.10482504791668,138.40721443125,79.0,83.0
300,138.54600104791666,139.12872101458333,77.0,81.0
301,139.4283530479167,139.75280123125,82.0,81.0
302,139.86952904791667,140.03588916458335,82.0,81.0
303,140.16364638125,140.25371981458335,82.0,79.0
304,140.31070504791666,140.61217531458334,82.0,81.0
305,140.75188104791667,140.90721176458334,81.0,81.0
306,141.04599838125,141.12136594791667,79.0,81.0
307,141.19305704791668,141.38055684791667,81.0,83.0
308,141.48717438125001,141.78129171458335,81.0,86.0
309,141.92835038125,142.07540904791668,81.0,86.0
310,142.07540904791668,142.35757786458333,81.0,81.0
311,142.51658504791666,142.69397456458336,79.0,82.0
312,142.81070238125,142.91731991458335,77.0,81.0
313,142.95776104791668,143.07265063125,79.0,82.0
314,143.25187838125,143.61584858125002,79.0,81.0
315,143.69305438125002,143.77301753125,79.0,80.0
316,143.84011304791667,144.14617889791668,79.0,80.0
317,144.2812890479167,144.73257533125002,82.0,90.0
318,145.60481704791667,145.93937551458333,82.0,86.0
319,146.04599304791668,146.37871328125001,81.0,82.0
320,146.48716904791667,148.33643178125,82.0,84.0
321,150.01657704791668,150.30426056458333,74.0,95.0
322,150.45775304791667,150.66731164791668,74.0,88.0
323,150.75187038125,150.84010558125,77.0,83.0
324,150.89892904791668,151.15811994791667,70.0,88.0
325,151.34010504791667,151.49635488125,70.0,86.0
326,151.63422238125003,151.73808256458335,74.0,81.0
327,151.78128104791668,151.93844999791668,72.0,79.0
328,152.07539838125,152.17466298125,72.0,78.0
329,152.2224570479167,152.3961700979167,72.0,80.0
330,152.51657438125,152.63238308125,74.0,81.0
331,152.66363304791668,152.95315479791668,75.0,88.0
332,153.10480904791666,153.25738241458333,72.0,81.0
333,153.39892638125002,153.50370568125,70.0,88.0
334,153.54598504791667,153.81160976458335,69.0,80.0
335,153.9871610479167,154.27852103125002,65.0,83.0
336,154.42833704791667,154.71877791458334,69.0,84.0
337,154.86951304791666,155.10940249791668,65.0,84.0
338,155.31068904791667,155.4513138979167,70.0,85.0
339,155.60480638125,155.69579893125,70.0,83.0
340,155.75186504791668,155.91914428125,70.0,78.0
341,156.04598238125,156.13973228125002,72.0,79.0
342,156.19304104791667,156.63421704791668,74.0,85.0
343,157.0753930479167,157.36307656458334,74.0,95.0
344,157.51656904791668,157.72612764791666,74.0,88.0
345,157.81068638125,157.89892158125002,77.0,83.0
346,157.95774504791666,158.21693594791668,70.0,88.0
347,158.39892104791667,158.55517088125,70.0,86.0
348,158.69303838125,158.79689856458333,74.0,81.0
349,158.8400970479167,158.99726599791666,72.0,79.0
350,159.13421438125,159.23347898125002,72.0,78.0
351,159.28127304791667,159.45498609791667,72.0,80.0
352,159.57539038125,159.69119908125,74.0,81.0
353,159.72244904791665,160.01197079791666,75.0,88.0
354,160.1636250479167,160.31619841458334,72.0,81.0
355,160.45774238125,160.56252168125002,70.0,88.0
356,160.60480104791668,160.87042576458333,69.0,80.0
357,161.04597704791667,161.35296201458334,79.0,84.0
358,161.48715304791668,161.82079239791668,77.0,85.0
359,161.9283290479167,162.18292436458336,69.0,83.0
360,162.36950504791668,163.25829086458333,70.0,83.0
361,163.69303304791669,163.84560641458336,72.0,81.0
362,163.98715038125,164.09192968125,70.0,88.0
363,164.13420904791667,164.39983376458335,69.0,80.0
364,164.57538504791665,164.88237001458333,79.0,84.0
365,165.0165610479167,165.3502003979167,77.0,85.0
366,165.45773704791668,165.71233236458335,69.0,83.0
367,165.89891304791666,166.78769886458335,70.0,83.0
368,167.22244104791667,167.37501441458335,72.0,81.0
369,167.51655838125,167.62133768125,70.0,88.0
370,167.66361704791666,168.10479304791667,69.0,80.0
371,168.54596904791669,169.19854188125,79.0,83.0
372,169.42832104791668,170.09559974791668,77.0,84.0
373,170.31067304791668,171.02023111458334,69.0,81.0
374,171.19302504791668,173.01563339791667,70.0,83.0
