,start,end,pitch,velocity
0,18.78333333333333,19.639583333333334,77.0,127.0
1,19.78333333333333,20.35,77.0,112.0
2,20.53333333333333,20.75208333333333,75.0,117.0
3,20.78333333333333,22.197916666666668,70.0,112.0
4,22.78333333333333,23.575,75.0,127.0
5,23.78333333333333,24.285416666666666,75.0,127.0
6,24.28333333333333,24.766666666666666,72.0,102.0
7,24.78333333333333,26.06458333333333,77.0,112.0
8,26.78333333333333,27.379166666666666,77.0,122.0
9,27.78333333333333,28.28125,77.0,127.0
10,28.28333333333333,28.65,75.0,112.0
11,28.78333333333333,30.454166666666666,70.0,122.0
12,30.78333333333333,31.322916666666668,68.0,127.0
13,31.28333333333333,31.745833333333334,75.0,112.0
14,31.78333333333333,32.295833333333334,72.0,117.0
15,32.28333333333333,32.739583333333336,68.0,93.0
16,32.78333333333333,35.55625,65.0,100.0
17,34.78333333333333,35.55625,65.0,107.0
18,35.53333333333333,36.1625,70.0,127.0
19,36.28333333333333,36.68541666666667,70.0,122.0
20,36.78333333333333,37.30416666666667,72.0,112.0
21,37.28333333333333,37.547916666666666,75.0,100.0
22,37.53333333333333,38.34583333333333,72.0,102.0
23,38.78333333333333,39.329166666666666,77.0,127.0
24,39.53333333333333,39.77291666666667,75.0,122.0
25,39.78333333333333,40.2875,72.0,107.0
26,40.28333333333333,40.66458333333333,77.0,117.0
27,40.78333333333333,41.6125,75.0,127.0
28,42.7375,43.34375,72.0,122.0
29,43.52291666666667,43.625,72.0,102.0
30,43.775,44.09791666666666,72.0,112.0
31,44.291666666666664,44.49166666666667,72.0,107.0
32,44.52916666666667,44.827083333333334,75.0,122.0
33,44.78125,45.083333333333336,77.0,95.0
34,45.266666666666666,45.702083333333334,70.0,117.0
35,45.74791666666667,46.39791666666667,68.0,127.0
36,46.78333333333333,47.25208333333333,70.0,127.0
37,47.28333333333333,47.52291666666667,68.0,112.0
38,47.53333333333333,47.8625,70.0,112.0
39,47.78333333333333,48.08958333333333,68.0,95.0
40,48.28333333333333,48.702083333333334,63.0,117.0
41,48.78333333333333,49.88125,65.0,102.0
42,50.28333333333333,50.53541666666666,79.0,127.0
43,50.53333333333333,50.68125,77.0,112.0
44,50.78333333333333,53.94583333333333,77.0,127.0
45,54.746031783333336,55.35119054375,77.0,127.0
46,55.46031753333333,56.067460420833335,77.0,122.0
47,56.17460328333333,56.57738108125,75.0,127.0
48,56.650793783333334,58.03174623333334,70.0,127.0
49,58.55555578333333,59.14682565416667,75.0,127.0
50,59.269841533333334,59.9047622,75.0,127.0
51,59.984127283333336,60.21627015208333,72.0,117.0
52,60.22222253333334,60.43452413125,75.0,112.0
53,60.46031778333333,61.06150828958333,77.0,117.0
54,62.365079783333336,62.9166671125,77.0,127.0
55,63.07936553333333,63.79166715625,77.0,102.0
56,63.79365128333333,64.21627035208333,75.0,127.0
57,64.26984178333333,65.63690534375,70.0,127.0
58,66.17460378333334,66.61706412291667,68.0,127.0
59,66.65079428333334,67.0476197,75.0,112.0
60,67.12698478333333,67.55555623333333,72.0,117.0
61,67.60317528333333,68.023810225,68.0,107.0
62,68.07936578333333,69.44642934375,65.0,102.0
63,69.98412778333334,70.70833416875,65.0,117.0
64,70.69841353333334,71.31944531041667,70.0,127.0
65,71.41269928333332,71.72222310833334,68.0,127.0
66,71.65079453333334,71.88492152916666,70.0,107.0
67,71.88888978333333,71.92261994375,70.0,61.0
68,71.88888978333333,72.16071519375001,72.0,107.0
69,72.36508028333333,72.7500009375,75.0,127.0
70,72.84127078333333,73.49206446666666,72.0,117.0
71,73.79365178333333,74.28968355416667,77.0,127.0
72,74.50793753333333,74.71428675,77.0,102.0
73,74.74603278333333,75.23015979166667,72.0,122.0
74,75.22222328333334,75.62896933541667,77.0,107.0
75,75.69841378333334,76.87896939791666,75.0,127.0
76,77.60317578333334,78.12103295208334,72.0,117.0
77,78.31746153333333,78.42262026875,72.0,100.0
78,78.55555678333333,78.98611236041667,72.0,107.0
79,79.03174728333333,79.41071555625,75.0,127.0
80,79.50793778333333,79.93254097916667,77.0,127.0
81,79.98412828333333,80.42857275,70.0,127.0
82,80.46031878333334,81.15873151666666,68.0,127.0
83,81.41269978333334,81.84127123333333,70.0,127.0
84,81.88889028333332,82.12896966041666,68.0,127.0
85,82.12698553333334,82.404763325,70.0,117.0
86,82.36508078333333,82.68849349791667,68.0,127.0
87,82.84127128333333,83.19047764999999,63.0,127.0
88,83.31746178333333,84.57936660833333,65.0,127.0
89,85.22222378333333,85.32738251875,74.0,127.0
90,85.46031903333333,85.56150951458334,74.0,93.0
91,85.69841428333334,85.79563651041667,74.0,72.0
92,85.93650953333334,86.00595398125,74.0,89.0
93,86.17460478333334,86.49404924375,74.0,122.0
94,86.65079528333334,87.1071445125,70.0,117.0
95,87.12698578333334,88.32341441458334,72.0,117.0
96,89.03174778333333,89.13690651875001,77.0,127.0
97,89.26984303333333,89.37301764166666,77.0,93.0
98,89.50793828333333,89.60516051041667,77.0,117.0
99,89.74603353333333,89.8452398875,77.0,102.0
100,89.98412878333333,90.21825577916667,77.0,122.0
101,90.46031928333333,90.7619066,74.0,127.0
102,90.93650978333334,91.15079550833333,75.0,127.0
103,91.17460503333334,91.40079552083333,74.0,95.0
104,91.41270028333334,92.05357333124999,72.0,102.0
105,92.84127178333333,93.38889085833333,75.0,127.0
106,93.55555753333334,93.66071626875001,75.0,117.0
107,93.79365278333333,94.14285914999999,75.0,127.0
108,94.26984328333333,94.69643060625,74.0,127.0
109,94.74603378333333,95.17460523333332,72.0,127.0
110,95.22222428333333,95.71031954583333,74.0,99.0
111,95.69841478333333,96.30754179791666,70.0,112.0
112,96.65079578333334,96.84127198333334,67.0,127.0
113,96.88889103333332,97.13690691875,70.0,100.0
114,97.12698628333334,97.37500216875,67.0,99.0
115,97.36508153333332,97.59920852916667,70.0,100.0
116,97.60317678333334,97.9047641,67.0,107.0
117,98.07936728333334,98.4761927,63.0,122.0
118,98.55555778333334,99.88889118333333,65.0,117.0
119,100.46031978333333,100.55555788333334,79.0,127.0
120,100.69841503333333,100.78571662499999,79.0,102.0
121,100.93651028333333,101.02778012916667,79.0,107.0
122,101.17460553333333,101.24404998125,79.0,92.0
123,101.41270078333334,101.74801826041667,79.0,112.0
124,101.88889128333334,102.08928811875,75.0,112.0
125,102.12698653333334,103.18651039583332,77.0,127.0
126,104.26984378333333,104.38492315416667,77.0,117.0
127,104.50793903333333,104.61309776875001,77.0,93.0
128,104.74603428333333,104.84325651041667,77.0,107.0
129,104.98412953333333,105.07539937916667,77.0,96.0
130,105.22222478333333,105.52778035416667,77.0,99.0
131,105.69841528333333,105.88889148333334,72.0,100.0
132,105.93651053333333,107.20833599375,70.0,122.0
133,108.07936778333334,108.69444717916667,80.0,127.0
134,108.79365353333333,108.88492337916666,80.0,97.0
135,109.03174878333334,109.47420912291668,80.0,127.0
136,109.50793928333334,109.86508215833334,79.0,127.0
137,109.98412978333333,110.29166948125,77.0,127.0
138,110.46032028333333,110.92460602083332,75.0,127.0
139,110.93651078333333,111.56944732291666,72.0,107.0
140,111.41270128333333,111.65079653333333,70.0,127.0
141,111.88889178333334,112.26389180208334,67.0,107.0
142,112.36508228333332,112.44444736666667,75.0,127.0
143,112.60317753333334,112.79563786041666,75.0,117.0
144,112.84127278333332,113.13492359166666,72.0,127.0
145,113.31746328333332,113.64881250625,70.0,127.0
146,113.79365378333333,114.05754268541666,67.0,107.0
147,114.03174903333334,114.24405063124999,70.0,95.0
148,114.26984428333333,115.08532051458333,65.0,100.0
149,115.69841578333333,115.80357451875,79.0,122.0
150,115.93651103333333,116.03373326041667,79.0,95.0
151,116.17460628333333,116.2738126375,79.0,96.0
152,116.41270153333333,116.48413010833333,79.0,92.0
153,116.65079678333333,116.92659044791667,79.0,122.0
154,117.12698728333334,117.35119364375001,75.0,122.0
155,117.36508253333334,117.81349525416667,77.0,112.0
156,119.50793978333333,119.60516201041666,77.0,122.0
157,119.74603503333333,119.82936837083334,77.0,96.0
158,119.98413028333333,120.07540012916667,77.0,99.0
159,120.22222553333333,120.29960648958333,77.0,102.0
160,120.46032078333333,120.64484460208334,77.0,117.0
161,120.93651128333333,121.15674938958334,72.0,122.0
162,121.17460653333333,121.7142891,70.0,122.0
163,123.31746378333334,123.83135269791667,80.0,127.0
164,124.03174953333334,124.12103525208333,80.0,117.0
165,124.26984478333333,124.45436860208333,80.0,127.0
166,124.74603528333333,125.17262260625,79.0,127.0
167,125.22222578333333,125.67262263125,77.0,112.0
168,125.69841628333333,125.90873375416666,77.0,95.0
169,125.93651153333333,126.14484487708333,75.0,102.0
170,126.17460678333333,126.66667029999999,72.0,107.0
171,126.65079728333333,126.81944808541667,70.0,122.0
172,127.12698778333333,127.547622725,67.0,96.0
173,127.60317828333334,128.09127354583333,75.0,127.0
174,128.07936878333334,128.5873053166667,72.0,117.0
175,128.55555928333334,128.98214660625,70.0,93.0
176,129.03174978333334,130.46032128333331,65.0,102.0
177,130.46032128333331,130.90873400416666,75.0,127.0
178,130.93651178333334,134.68254371666666,77.0,127.0
179,153.79365578333335,153.88889388333334,79.0,127.0
180,154.03175103333334,154.119052625,79.0,102.0
181,154.26984628333332,154.36111612916665,79.0,107.0
182,154.50794153333334,154.57738598125002,79.0,92.0
183,154.74603678333335,155.08135426041667,79.0,112.0
184,155.22222728333332,155.42262411874998,75.0,112.0
185,155.46032253333334,156.51984639583333,77.0,127.0
186,157.60317978333333,157.71825915416667,77.0,117.0
187,157.84127503333332,157.94643376875,77.0,93.0
188,158.07937028333333,158.17659251041667,77.0,107.0
189,158.31746553333335,158.40873537916667,77.0,96.0
190,158.55556078333333,158.86111635416665,77.0,99.0
191,159.03175128333334,159.2222274833333,72.0,100.0
192,159.26984653333335,160.54167199375001,70.0,122.0
193,161.4127037833333,162.02778317916665,80.0,127.0
194,162.12698953333333,162.21825937916668,80.0,97.0
195,162.36508478333332,162.80754512291668,80.0,127.0
196,162.84127528333335,163.1984181583333,79.0,127.0
197,163.31746578333332,163.62500548125,77.0,127.0
198,163.79365628333335,164.25794202083333,75.0,127.0
199,164.26984678333332,164.90278332291666,72.0,107.0
200,164.74603728333335,164.98413253333334,70.0,127.0
201,165.22222778333332,165.59722780208335,67.0,107.0
202,165.69841828333335,165.77778336666665,75.0,127.0
203,165.9365135333333,166.12897386041666,75.0,117.0
204,166.17460878333333,166.46825959166665,72.0,127.0
205,166.65079928333333,166.98214850624998,70.0,127.0
206,167.12698978333333,167.39087868541668,67.0,107.0
207,167.36508503333334,167.57738663125,70.0,95.0
208,167.60318028333333,168.41865651458335,65.0,100.0
209,169.03175178333333,169.13691051875,79.0,122.0
210,169.26984703333335,169.36706926041666,79.0,95.0
211,169.50794228333334,169.60714863750002,79.0,96.0
212,169.74603753333332,169.81746610833335,79.0,92.0
213,169.98413278333334,170.25992644791665,79.0,122.0
214,170.46032328333334,170.68452964375,75.0,122.0
215,170.69841853333332,171.14683125416667,77.0,112.0
216,172.84127578333334,172.93849801041665,77.0,122.0
217,173.07937103333333,173.16270437083335,77.0,96.0
218,173.31746628333332,173.40873612916667,77.0,99.0
219,173.55556153333333,173.63294248958334,77.0,102.0
220,173.79365678333335,173.97818060208334,77.0,117.0
221,174.26984728333332,174.49008538958333,72.0,122.0
222,174.50794253333333,175.0476251,70.0,122.0
223,176.65079978333333,177.16468869791666,80.0,127.0
224,177.36508553333334,177.45437125208332,80.0,117.0
225,177.60318078333333,177.78770460208335,80.0,127.0
226,178.07937128333333,178.50595860625,79.0,127.0
227,178.55556178333333,179.00595863125,77.0,112.0
228,179.03175228333333,179.24206975416666,77.0,95.0
229,179.26984753333335,179.47818087708333,75.0,102.0
230,179.50794278333333,180.0000063,72.0,107.0
231,179.98413328333334,180.15278408541667,70.0,122.0
232,180.46032378333334,180.880958725,67.0,96.0
233,180.93651428333334,181.42460954583333,75.0,127.0
234,181.41270478333334,181.92064131666666,72.0,117.0
235,181.88889528333334,182.31548260625,70.0,93.0
236,182.36508578333334,183.79365728333335,65.0,102.0
237,183.79365728333335,184.24207000416666,75.0,127.0
238,184.26984778333332,195.69841978333332,77.0,127.0
