,start,end,pitch,velocity
0,20.3,22.05,68.0,74.0
1,20.3,22.08125,71.0,80.0
2,22.3,24.054166666666667,68.0,84.0
3,24.3,25.37708333333333,68.0,79.0
4,24.3,25.38125,71.0,79.0
5,25.3,26.25208333333333,73.0,87.0
6,26.3,27.89375,71.0,85.0
7,27.966666666666665,28.429166666666667,68.0,81.0
8,28.3,30.204166666666666,69.0,81.0
9,31.3,32.02916666666667,71.0,85.0
10,32.3,33.854166666666664,73.0,90.0
11,35.3,35.625,66.0,77.0
12,35.3,35.67916666666667,71.0,83.0
13,35.63333333333333,35.98125,69.0,85.0
14,35.96666666666667,36.30833333333333,66.0,79.0
15,36.3,39.99375,68.0,86.0
16,38.3,40.2375,71.0,90.0
17,40.3,42.00625,73.0,92.0
18,41.96666666666667,42.44166666666666,75.0,83.0
19,42.3,43.31041666666667,76.0,86.0
20,43.3,44.09791666666666,73.0,90.0
21,44.3,47.708333333333336,69.0,82.0
22,44.3,48.05416666666667,66.0,78.0
23,46.3,48.06458333333333,73.0,88.0
24,48.3,49.69375,66.0,79.0
25,48.3,49.735416666666666,71.0,88.0
26,49.63333333333333,50.125,69.0,82.0
27,49.96666666666667,50.31458333333333,68.0,79.0
28,50.3,51.918749999999996,66.0,80.0
29,50.3,52.11666666666667,71.0,85.0
30,52.3,53.96875,64.0,82.0
31,52.3,54.025,68.0,84.0
32,53.96666666666667,54.63333333333333,71.0,85.0
33,54.3,55.30625,76.0,87.0
34,55.3,56.34375,75.0,88.0
35,56.3,58.09583333333333,73.0,90.0
36,58.3,60.110416666666666,76.0,85.0
37,60.3,62.418749999999996,66.0,66.0
38,60.3,62.447916666666664,69.0,80.0
39,62.3,64.0,73.0,91.0
40,64.3,69.09004702083332,66.0,79.0
41,64.3,69.11070816666667,71.0,82.0
42,69.2801295625,70.56408236458333,71.0,91.0
43,71.27449903124999,72.75783236458332,64.0,80.0
44,71.27449903124999,72.75783236458332,68.0,85.0
45,72.94116569791666,73.29324903125,66.0,87.0
46,73.27449903124999,74.89533236458333,64.0,90.0
47,76.27449903124999,76.66199903124999,61.0,81.0
48,76.27449903124999,76.67241569791666,68.0,87.0
49,76.60783236458333,77.03908236458332,66.0,84.0
50,76.94116569791666,77.31408236458333,64.0,83.0
51,77.27449903124999,79.07241569791665,66.0,81.0
52,79.27449903124999,80.53074903125,73.0,90.0
53,81.27449903124999,82.79324903125,66.0,79.0
54,81.27449903124999,82.85991569791666,71.0,85.0
55,82.94116569791666,83.28908236458332,68.0,81.0
56,83.27449903124999,84.58908236458333,66.0,87.0
57,85.27449903124999,86.85366569791665,68.0,84.0
58,85.27449903124999,87.02449903125,71.0,84.0
59,86.94116569791666,87.40366569791667,68.0,83.0
60,87.27449903125,88.13283236458332,71.0,87.0
61,88.27449903125,89.29116569791665,75.0,91.0
62,89.27449903125,91.15158236458333,73.0,92.0
63,91.27449903125,92.25366569791666,73.0,91.0
64,91.27449903125,92.33908236458333,68.0,81.0
65,92.27449903125,93.14533236458333,71.0,92.0
66,93.27449903125,94.96824903125,73.0,88.0
67,93.27449903125,95.01616569791666,69.0,85.0
68,94.94116569791666,95.34324903125,66.0,80.0
69,95.27449903125,96.12449903125,69.0,83.0
70,95.27449903125,96.29533236458333,73.0,95.0
71,96.27449903124999,97.07449903124999,71.0,92.0
72,96.27449903124999,97.14533236458333,68.0,84.0
73,97.27449903124999,97.98908236458333,73.0,92.0
74,97.94116569791666,98.46616569791667,69.0,82.0
75,98.27449903124999,99.01616569791666,71.0,91.0
76,98.94116569791666,99.19533236458332,69.0,80.0
77,99.27449903124999,100.27033236458333,66.0,92.0
78,100.27449903124999,100.96824903125,66.0,90.0
79,100.94116569791666,101.26408236458333,68.0,83.0
80,101.27449903124999,102.68908236458333,64.0,93.0
81,102.94116569791666,103.34324903125,66.0,91.0
82,103.27449903125,104.12658236458333,68.0,93.0
83,104.27449903125,105.00158236458333,71.0,92.0
84,104.27449903125,105.15366569791667,68.0,95.0
85,105.27449903125,107.13699903124999,73.0,91.0
86,107.27449903125,108.90158236458333,73.0,98.0
87,107.27449903125,108.97033236458333,76.0,92.0
88,109.27449903125,111.14741569791666,73.0,98.0
89,111.27449903125,112.28908236458332,73.0,95.0
90,111.27449903125,112.35574903124999,66.0,86.0
91,112.27449903125,112.93074903125,69.0,92.0
92,112.94116569791666,113.15158236458333,66.0,80.0
93,113.27449903125,113.76616569791666,66.0,90.0
94,113.27449903125,113.79741569791666,71.0,93.0
95,113.94116569791666,114.15158236458333,66.0,78.0
96,113.94116569791666,114.15158236458333,71.0,83.0
97,114.27449903125,114.93908236458333,71.0,91.0
98,114.27449903125,115.08491569791666,66.0,91.0
99,114.94116569791666,115.33491569791666,73.0,91.0
100,115.27449903125,116.14741569791666,71.0,93.0
101,116.27449903125,116.65991569791666,71.0,93.0
102,116.60783236458332,116.95991569791666,73.0,96.0
103,116.94116569791666,117.28908236458332,76.0,91.0
104,117.27449903125,119.21616569791667,80.0,93.0
105,119.27449903125,120.42866569791666,76.0,85.0
106,119.27449903125,120.45783236458333,83.0,92.0
107,120.60783236458332,120.91616569791665,76.0,87.0
108,120.60783236458332,120.95574903125,80.0,93.0
109,120.94116569791666,121.25574903124999,78.0,91.0
110,121.27449903125,123.33283236458333,76.0,86.0
111,121.27449903125,123.34533236458333,73.0,87.0
112,123.27449903125,124.09116569791667,80.0,92.0
113,123.94116569791666,124.13699903124999,73.0,65.0
114,124.27449903125,125.00158236458333,73.0,93.0
115,124.27449903125,125.02241569791666,76.0,95.0
116,125.27449903125,126.37241569791667,73.0,91.0
117,125.27449903125,126.85783236458332,78.0,90.0
118,126.27449903125,127.18908236458333,81.0,83.0
119,127.27449903125,128.61616569791664,73.0,91.0
120,127.27449903125,128.66199903125,78.0,87.0
121,128.60783236458332,128.91408236458332,76.0,93.0
122,128.94116569791666,129.31616569791666,73.0,95.0
123,129.27449903125,130.52241569791664,71.0,96.0
124,130.60783236458332,131.14533236458334,66.0,89.0
125,131.27449903125,133.08283236458334,66.0,91.0
126,131.27449903125,133.10574903124999,71.0,93.0
127,134.27449903125,137.05158236458334,88.0,107.0
128,137.25366569791666,138.46616569791667,88.0,100.0
129,138.59116569791667,138.84949903125,86.0,107.0
130,138.93074903125,139.17866569791664,83.0,107.0
131,139.27241569791664,140.13908236458332,81.0,102.0
132,140.26824903124998,140.75366569791666,81.0,108.0
133,140.78908236458332,140.94116569791666,83.0,93.0
134,140.92866569791664,141.11408236458334,81.0,96.0
135,141.09741569791666,141.22241569791666,79.0,93.0
136,141.27449903125,142.27033236458334,80.0,98.0
137,142.27241569791664,142.84324903125,68.0,105.0
138,142.93699903125,143.08283236458334,68.0,95.0
139,143.10991569791668,143.25783236458332,71.0,91.0
140,143.30366569791664,144.35158236458332,69.0,102.0
141,144.93491569791667,145.06824903125,78.0,102.0
142,145.11408236458334,145.22449903125,80.0,96.0
143,145.30158236458334,146.63074903125,83.0,120.0
144,146.91408236458332,147.63908236458332,83.0,102.0
145,147.59533236458333,147.72241569791666,81.0,83.0
146,147.70991569791664,147.86408236458334,79.0,84.0
147,147.85158236458332,148.4953323645833,81.0,95.0
148,148.56199903125,148.79324903125,81.0,100.0
149,148.77241569791664,148.92658236458334,79.0,93.0
150,148.95158236458332,149.07658236458332,76.0,95.0
151,149.09741569791666,149.27241569791664,74.0,95.0
152,149.28699903125,150.34116569791667,76.0,95.0
153,150.28283236458333,150.71824903125,71.0,97.0
154,150.91408236458332,151.12449903125,71.0,93.0
155,150.62449903125,151.18699903125,80.0,93.0
156,151.26408236458332,151.68699903125,73.0,108.0
157,151.61408236458334,151.96824903125,81.0,100.0
158,151.91824903125,152.21824903125,73.0,105.0
159,152.27449903125,152.71616569791667,73.0,107.0
160,152.6203323645833,152.97033236458333,81.0,97.0
161,152.95574903124998,153.2453323645833,73.0,100.0
162,153.2765823645833,153.64741569791664,75.0,98.0
163,153.58491569791664,153.99949903125,83.0,97.0
164,153.92449903124998,154.15366569791667,75.0,100.0
165,154.27449903125,154.67241569791668,75.0,100.0
166,154.61824903125,154.9328323645833,83.0,102.0
167,154.93491569791667,155.24116569791664,75.0,100.0
168,155.28283236458333,155.69741569791665,76.0,98.0
169,155.63283236458332,155.97033236458333,78.0,92.0
170,155.93699903125,156.1515823645833,76.0,92.0
171,156.2765823645833,156.54949903124998,76.0,102.0
172,156.63491569791665,156.79324903125,76.0,97.0
173,156.79533236458332,156.93491569791667,78.0,94.0
174,156.95783236458334,157.26408236458332,76.0,95.0
175,157.28283236458333,157.80991569791667,81.0,98.0
176,157.92866569791664,158.54949903124998,81.0,107.0
177,158.59533236458333,158.71616569791667,80.0,102.0
178,158.77241569791664,158.91824903125,76.0,95.0
179,158.9640823645833,159.22866569791665,73.0,105.0
180,159.27033236458334,159.43074903125,71.0,94.0
181,159.44533236458332,159.60783236458332,73.0,100.0
182,159.60574903125,160.27449903125,76.0,93.0
183,160.25366569791666,160.63074903125,71.0,95.0
184,160.59949903125,160.7765823645833,69.0,102.0
185,160.77033236458334,160.95366569791668,67.0,102.0
186,160.94324903125,161.12866569791666,69.0,108.0
187,161.09949903125,161.27033236458334,67.0,102.0
188,161.92241569791668,162.07449903125,69.0,93.0
189,161.28283236458333,162.11616569791664,71.0,98.0
190,162.0890823645833,162.1828323645833,67.0,108.0
191,162.2765823645833,162.59741569791666,64.0,97.0
192,162.5890823645833,162.89949903125,62.0,102.0
193,162.92866569791664,163.23699903124998,60.0,102.0
194,163.25574903125,163.50783236458332,59.0,96.0
195,163.60574903125,163.86199903124998,59.0,98.0
196,163.9640823645833,165.20574903124998,59.0,98.0
197,165.27449903125,166.56408236458333,71.0,91.0
198,167.27449903125,168.75783236458332,64.0,80.0
199,167.27449903125,168.75783236458332,68.0,85.0
200,168.94116569791666,169.29324903125,66.0,87.0
201,169.27449903125,170.89533236458334,64.0,90.0
202,172.27449903125,172.66199903125,61.0,81.0
203,172.27449903125,172.67241569791668,68.0,87.0
204,172.60783236458332,173.03908236458332,66.0,84.0
205,172.94116569791666,173.31408236458333,64.0,83.0
206,173.27449903125,175.07241569791665,66.0,81.0
207,175.27449903125,176.53074903125,73.0,90.0
208,177.27449903125,178.79324903124999,66.0,79.0
209,177.27449903125,178.85991569791668,71.0,85.0
210,178.94116569791666,179.28908236458332,68.0,81.0
211,179.27449903125,180.5890823645833,66.0,87.0
212,181.27449903125,182.85366569791665,68.0,84.0
213,181.27449903125,183.02449903125,71.0,84.0
214,182.94116569791666,183.40366569791667,68.0,83.0
215,183.27449903125,184.13283236458332,71.0,87.0
216,184.27449903125,185.29116569791665,75.0,91.0
217,185.27449903125,187.1515823645833,73.0,92.0
218,187.27449903125,188.25366569791666,73.0,91.0
219,187.27449903125,188.3390823645833,68.0,81.0
220,188.27449903125,189.14533236458334,71.0,92.0
221,189.27449903125,190.96824903125,73.0,88.0
222,189.27449903125,191.01616569791668,69.0,85.0
223,190.94116569791666,191.34324903125,66.0,80.0
224,191.27449903125,192.12449903125,69.0,83.0
225,191.27449903125,192.29533236458332,73.0,95.0
226,192.27449903125,193.07449903124999,71.0,92.0
227,192.27449903125,193.14533236458334,68.0,84.0
228,193.27449903125,193.98908236458334,73.0,92.0
229,193.94116569791666,194.46616569791667,69.0,82.0
230,194.27449903125,195.01616569791668,71.0,91.0
231,194.94116569791666,195.19533236458332,69.0,80.0
232,195.27449903125,196.27033236458334,66.0,92.0
233,196.27449903125,196.96824903125,66.0,90.0
234,196.94116569791666,197.26408236458332,68.0,83.0
235,197.27449903125,198.68908236458333,64.0,93.0
236,198.94116569791663,199.34324903124997,66.0,91.0
237,199.27449903125,200.12658236458333,68.0,93.0
238,200.27449903125,201.00158236458333,71.0,92.0
239,200.27449903125,201.15366569791667,68.0,95.0
240,201.27449903125,203.13699903125,73.0,91.0
241,203.27449903125,204.9015823645833,73.0,98.0
242,203.27449903125,204.97033236458333,76.0,92.0
243,205.27449903125,207.14741569791664,73.0,98.0
244,207.27449903125,208.28908236458335,73.0,95.0
245,207.27449903125,208.35574903125,66.0,86.0
246,208.27449903125,208.93074903125,69.0,92.0
247,208.94116569791663,209.1515823645833,66.0,80.0
248,209.27449903125,209.76616569791668,66.0,90.0
249,209.27449903125,209.79741569791668,71.0,93.0
250,209.94116569791663,210.1515823645833,66.0,78.0
251,209.94116569791663,210.1515823645833,71.0,83.0
252,210.27449903125,210.93908236458333,71.0,91.0
253,210.27449903125,211.08491569791664,66.0,91.0
254,210.94116569791663,211.33491569791664,73.0,91.0
255,211.27449903125,212.14741569791664,71.0,93.0
256,212.27449903125,212.65991569791663,71.0,93.0
257,212.60783236458332,212.95991569791664,73.0,96.0
258,212.94116569791663,213.28908236458335,76.0,91.0
259,213.27449903125,215.21616569791667,80.0,93.0
260,215.27449903125,216.42866569791664,76.0,85.0
261,215.27449903125,216.45783236458334,83.0,92.0
262,216.60783236458332,216.91616569791665,76.0,87.0
263,216.60783236458332,216.95574903124998,80.0,93.0
264,216.94116569791663,217.25574903125,78.0,91.0
265,217.27449903125,219.33283236458334,76.0,86.0
266,217.27449903125,219.34533236458333,73.0,87.0
267,219.27449903125,220.09116569791667,80.0,92.0
268,219.94116569791663,220.13699903125,73.0,65.0
269,220.27449903125,221.00158236458333,73.0,93.0
270,220.27449903125,221.02241569791664,76.0,95.0
271,221.27449903125,222.37241569791667,73.0,91.0
272,221.27449903125,222.85783236458332,78.0,90.0
273,222.27449903125,223.18908236458333,81.0,83.0
274,223.27449903125,224.61616569791664,73.0,91.0
275,223.27449903125,224.66199903125,78.0,87.0
276,224.60783236458332,224.91408236458335,76.0,93.0
277,224.94116569791663,225.31616569791663,73.0,95.0
278,225.27449903125,226.52241569791664,71.0,96.0
279,226.60783236458332,227.14533236458334,66.0,89.0
280,227.27449903125,229.08283236458334,66.0,91.0
281,227.27449903125,229.10574903125,71.0,93.0
282,229.27449903125,230.68908236458333,64.0,93.0
283,230.94116569791663,231.34324903124997,66.0,91.0
284,231.27449903125,232.12658236458333,68.0,93.0
285,232.27449903125,233.00158236458333,71.0,92.0
286,232.27449903125,233.15366569791667,68.0,95.0
287,233.27449903125,235.13699903125,73.0,91.0
288,235.27449903125,236.9015823645833,73.0,98.0
289,235.27449903125,236.97033236458333,76.0,92.0
290,237.27449903125,239.14741569791664,73.0,98.0
291,239.27449903125,240.28908236458335,73.0,95.0
292,239.27449903125,240.35574903125,66.0,86.0
293,240.27449903125,240.93074903125,69.0,92.0
294,240.94116569791663,241.1515823645833,66.0,80.0
295,241.27449903125,241.76616569791668,66.0,90.0
296,241.27449903125,241.79741569791668,71.0,93.0
297,241.94116569791663,242.1515823645833,66.0,78.0
298,241.94116569791663,242.1515823645833,71.0,83.0
299,242.27449903125,242.93908236458333,71.0,91.0
300,242.27449903125,243.08491569791664,66.0,91.0
301,242.94116569791663,243.33491569791664,73.0,91.0
302,243.27449903125,244.14741569791664,71.0,93.0
303,244.27449903125,244.65991569791663,71.0,93.0
304,244.60783236458332,244.95991569791664,73.0,96.0
305,244.94116569791663,245.28908236458335,76.0,91.0
306,245.27449903125,247.21616569791667,80.0,93.0
307,247.27449903125,248.42866569791664,76.0,85.0
308,247.27449903125,248.45783236458334,83.0,92.0
309,248.60783236458332,248.91616569791665,76.0,87.0
310,248.60783236458332,248.95574903124998,80.0,93.0
311,248.94116569791663,249.25574903125,78.0,91.0
312,249.27449903125,251.33283236458334,76.0,86.0
313,249.27449903125,251.34533236458333,73.0,87.0
314,251.27449903125,252.09116569791667,80.0,92.0
315,251.94116569791663,252.13699903125,73.0,65.0
316,252.27449903125,253.00158236458333,73.0,93.0
317,252.27449903125,253.02241569791664,76.0,95.0
318,253.27449903125,254.37241569791667,73.0,91.0
319,253.27449903125,254.85783236458332,78.0,90.0
320,254.27449903125,255.18908236458333,81.0,83.0
321,255.27449903125,256.61616569791664,73.0,91.0
322,255.27449903125,256.66199903125,78.0,87.0
323,256.6078323645833,256.91408236458335,76.0,93.0
324,256.94116569791663,257.31616569791663,73.0,95.0
325,257.27449903125,258.52241569791664,71.0,96.0
326,258.6078323645833,259.14533236458334,66.0,89.0
327,259.27449903125,261.08283236458334,66.0,91.0
328,259.27449903125,261.10574903125,71.0,93.0
