,start,end,pitch,velocity
0,3.3,3.5666666666666664,59.0,95.0
1,3.6333333333333333,3.8874999999999997,61.0,93.0
2,3.966666666666667,4.197916666666667,64.0,91.0
3,4.3,4.485416666666667,68.0,89.0
4,4.633333333333333,4.858333333333333,68.0,91.0
5,4.966666666666667,5.170833333333333,68.0,91.0
6,5.3,5.527083333333334,68.0,93.0
7,5.633333333333333,5.88125,68.0,92.0
8,5.966666666666667,6.24375,66.0,84.0
9,6.3,6.991666666666666,64.0,93.0
10,7.3,7.566666666666666,59.0,95.0
11,7.633333333333333,7.8875,61.0,93.0
12,7.966666666666667,8.197916666666666,64.0,91.0
13,8.3,8.485416666666666,68.0,89.0
14,8.633333333333333,8.858333333333333,68.0,91.0
15,8.966666666666667,9.170833333333333,68.0,91.0
16,9.3,9.527083333333334,68.0,93.0
17,9.633333333333333,9.88125,68.0,92.0
18,9.966666666666667,10.24375,66.0,84.0
19,10.3,10.991666666666667,64.0,93.0
20,11.3,11.604166666666666,68.0,95.0
21,11.633333333333333,11.902083333333334,66.0,92.0
22,11.966666666666667,12.183333333333334,64.0,94.0
23,12.3,12.53125,64.0,96.0
24,12.633333333333333,12.733333333333333,64.0,93.0
25,12.8,12.9125,61.0,91.0
26,12.966666666666667,13.920833333333333,64.0,95.0
27,13.966666666666667,14.083333333333334,64.0,93.0
28,14.133333333333333,14.260416666666666,61.0,86.0
29,14.299999999999999,15.135416666666666,64.0,92.0
30,15.299999999999999,15.5375,64.0,97.0
31,15.633333333333333,15.864583333333334,64.0,97.0
32,15.966666666666667,16.06875,64.0,93.0
33,16.133333333333333,16.270833333333332,61.0,92.0
34,16.3,16.483333333333334,66.0,94.0
35,16.633333333333333,16.829166666666666,66.0,92.0
36,16.966666666666665,17.152083333333334,66.0,91.0
37,17.3,17.53125,66.0,92.0
38,17.633333333333333,17.85625,66.0,91.0
39,17.966666666666665,18.204166666666666,64.0,92.0
40,18.3,19.122916666666665,66.0,91.0
41,19.3,19.5625,64.0,93.0
42,19.633333333333333,19.916666666666668,66.0,91.0
43,19.966666666666665,20.227083333333333,68.0,95.0
44,20.3,20.54375,71.0,93.0
45,20.633333333333333,20.833333333333332,71.0,92.0
46,20.966666666666665,21.179166666666667,71.0,91.0
47,21.3,21.516666666666666,71.0,93.0
48,21.633333333333333,21.895833333333332,71.0,93.0
49,21.966666666666665,22.204166666666666,68.0,93.0
50,22.3,23.14375,68.0,93.0
51,23.3,23.541666666666668,64.0,93.0
52,23.633333333333333,23.875,66.0,91.0
53,23.966666666666665,24.254166666666666,68.0,93.0
54,24.3,24.5375,73.0,97.0
55,24.633333333333333,24.85,73.0,96.0
56,24.966666666666665,25.183333333333334,73.0,98.0
57,25.3,25.51875,73.0,97.0
58,25.633333333333333,25.910416666666666,73.0,98.0
59,25.966666666666665,26.224999999999998,71.0,93.0
60,26.3,27.041666666666668,68.0,95.0
61,27.3,27.541666666666668,68.0,95.0
62,27.633333333333333,27.8875,68.0,93.0
63,27.966666666666665,28.22083333333333,71.0,93.0
64,28.3,28.535416666666666,73.0,93.0
65,28.633333333333333,28.8625,73.0,97.0
66,28.966666666666665,29.172916666666666,71.0,97.0
67,29.3,29.516666666666666,73.0,95.0
68,29.633333333333333,29.872916666666665,73.0,95.0
69,29.966666666666665,30.214583333333334,76.0,93.0
70,30.3,31.08125,76.0,93.0
71,31.3,31.527083333333334,76.0,95.0
72,31.633333333333333,31.889583333333334,76.0,92.0
73,31.966666666666665,32.22083333333333,73.0,102.0
74,32.3,32.51875,78.0,93.0
75,32.63333333333333,32.83958333333333,78.0,91.0
76,32.96666666666667,33.204166666666666,78.0,94.0
77,33.3,33.516666666666666,78.0,93.0
78,33.63333333333333,33.895833333333336,78.0,93.0
79,33.96666666666667,34.21666666666667,76.0,91.0
80,34.3,35.125,78.0,93.0
81,35.3,35.53333333333333,71.0,87.0
82,35.63333333333333,35.825,73.0,98.0
83,35.96666666666667,36.177083333333336,76.0,93.0
84,36.3,36.84375,78.0,95.0
85,36.96666666666667,37.62291666666667,80.0,93.0
86,39.3,39.53333333333333,71.0,87.0
87,39.63333333333333,39.825,73.0,98.0
88,39.96666666666667,40.177083333333336,76.0,93.0
89,40.3,40.84375,78.0,95.0
90,40.96666666666667,41.62291666666667,80.0,93.0
91,43.3,43.5375,80.0,97.0
92,43.63333333333333,43.864583333333336,78.0,92.0
93,43.96666666666667,44.197916666666664,76.0,96.0
94,44.3,44.96041666666667,78.0,94.0
95,44.96666666666667,46.416666666666664,73.0,107.0
96,47.3,47.579166666666666,73.0,98.0
97,47.63333333333333,47.90416666666667,76.0,93.0
98,47.96666666666667,48.31458333333333,73.0,100.0
99,48.3,48.96458333333333,78.0,91.0
100,48.96666666666667,50.989583333333336,71.0,96.0
101,51.3,51.510416666666664,83.0,97.0
102,51.63333333333333,51.90416666666667,83.0,93.0
103,51.96666666666667,52.21458333333333,78.0,95.0
104,52.3,52.87708333333333,78.0,94.0
105,52.96666666666667,54.291666666666664,80.0,92.0
106,55.3,55.55625,80.0,92.0
107,55.63333333333333,55.9,78.0,92.0
108,55.96666666666667,56.21041666666667,76.0,98.0
109,56.3,56.84375,78.0,94.0
110,56.96666666666667,58.11875,80.0,92.0
111,59.3,59.53125,80.0,94.0
112,59.63333333333333,59.860416666666666,78.0,94.0
113,59.96666666666667,60.231249999999996,76.0,93.0
114,60.3,60.93333333333333,78.0,95.0
115,60.96666666666667,62.28125,73.0,102.0
116,63.3,63.57083333333333,73.0,95.0
117,63.63333333333333,63.94583333333333,76.0,97.0
118,63.96666666666667,64.24583333333334,73.0,96.0
119,64.3,66.55625,78.0,93.0
120,68.2883945625,68.55285722916666,59.0,95.0
121,68.61897289583332,68.871038875,61.0,93.0
122,68.94955122916666,69.17888994791666,64.0,91.0
123,69.2801295625,69.46401376041666,68.0,89.0
124,69.61070789583333,69.83384827083333,68.0,91.0
125,69.94128622916666,70.14533236458333,68.0,91.0
126,70.27449903124999,70.50158236458333,68.0,93.0
127,70.60783236458333,70.85574903125,68.0,92.0
128,70.94116569791666,71.21824903125,66.0,84.0
129,71.27449903124999,71.96616569791667,64.0,93.0
130,72.27449903124999,72.54116569791665,59.0,95.0
131,72.60783236458333,72.86199903125,61.0,93.0
132,72.94116569791666,73.17241569791666,64.0,91.0
133,73.27449903124999,73.45991569791666,68.0,89.0
134,73.60783236458333,73.83283236458333,68.0,91.0
135,73.94116569791666,74.14533236458333,68.0,91.0
136,74.27449903124999,74.50158236458333,68.0,93.0
137,74.60783236458333,74.85574903125,68.0,92.0
138,74.94116569791666,75.21824903125,66.0,84.0
139,75.27449903124999,75.96616569791667,64.0,93.0
140,76.27449903124999,76.57866569791666,68.0,95.0
141,76.60783236458333,76.87658236458333,66.0,92.0
142,76.94116569791666,77.15783236458333,64.0,94.0
143,77.27449903124999,77.50574903124999,64.0,96.0
144,77.60783236458333,77.70783236458333,64.0,93.0
145,77.77449903124999,77.88699903125,61.0,91.0
146,77.94116569791666,78.89533236458333,64.0,95.0
147,78.94116569791666,79.05783236458333,64.0,93.0
148,79.10783236458333,79.23491569791666,61.0,86.0
149,79.27449903124999,80.10991569791666,64.0,92.0
150,80.27449903124999,80.51199903125,64.0,97.0
151,80.60783236458333,80.83908236458333,64.0,97.0
152,80.94116569791666,81.04324903125,64.0,93.0
153,81.10783236458333,81.24533236458333,61.0,92.0
154,81.27449903124999,81.45783236458333,66.0,94.0
155,81.60783236458333,81.80366569791666,66.0,92.0
156,81.94116569791666,82.12658236458333,66.0,91.0
157,82.27449903124999,82.50574903124999,66.0,92.0
158,82.60783236458333,82.83074903125,66.0,91.0
159,82.94116569791666,83.17866569791666,64.0,92.0
160,83.27449903124999,84.09741569791666,66.0,91.0
161,84.27449903124999,84.53699903124999,64.0,93.0
162,84.60783236458333,84.89116569791666,66.0,91.0
163,84.94116569791666,85.20158236458333,68.0,95.0
164,85.27449903124999,85.51824903125,71.0,93.0
165,85.60783236458333,85.80783236458333,71.0,92.0
166,85.94116569791666,86.15366569791667,71.0,91.0
167,86.27449903125,86.49116569791666,71.0,93.0
168,86.60783236458333,86.87033236458333,71.0,93.0
169,86.94116569791666,87.17866569791666,68.0,93.0
170,87.27449903125,88.11824903125,68.0,93.0
171,88.27449903125,88.51616569791666,64.0,93.0
172,88.60783236458333,88.84949903124999,66.0,91.0
173,88.94116569791666,89.22866569791665,68.0,93.0
174,89.27449903125,89.51199903124999,73.0,97.0
175,89.60783236458333,89.82449903124999,73.0,96.0
176,89.94116569791666,90.15783236458333,73.0,98.0
177,90.27449903125,90.49324903125,73.0,97.0
178,90.60783236458333,90.88491569791665,73.0,98.0
179,90.94116569791666,91.19949903124999,71.0,93.0
180,91.27449903125,92.01616569791666,68.0,95.0
181,92.27449903125,92.51616569791666,68.0,95.0
182,92.60783236458333,92.86199903125,68.0,93.0
183,92.94116569791666,93.19533236458332,71.0,93.0
184,93.27449903125,93.50991569791665,73.0,93.0
185,93.60783236458333,93.83699903125,73.0,97.0
186,93.94116569791666,94.14741569791666,71.0,97.0
187,94.27449903125,94.49116569791666,73.0,95.0
188,94.60783236458333,94.84741569791666,73.0,95.0
189,94.94116569791666,95.18908236458333,76.0,93.0
190,95.27449903125,96.05574903124999,76.0,93.0
191,96.27449903124999,96.50158236458333,76.0,95.0
192,96.60783236458333,96.86408236458333,76.0,92.0
193,96.94116569791666,97.19533236458332,73.0,102.0
194,97.27449903124999,97.49324903124999,78.0,93.0
195,97.60783236458333,97.81408236458333,78.0,91.0
196,97.94116569791666,98.17866569791666,78.0,94.0
197,98.27449903124999,98.49116569791666,78.0,93.0
198,98.60783236458333,98.87033236458333,78.0,93.0
199,98.94116569791666,99.19116569791666,76.0,91.0
200,99.27449903124999,100.09949903124999,78.0,93.0
201,100.27449903124999,100.50783236458332,71.0,87.0
202,100.60783236458333,100.79949903125,73.0,98.0
203,100.94116569791666,101.15158236458333,76.0,93.0
204,101.27449903124999,101.81824903124999,78.0,95.0
205,101.94116569791666,102.59741569791666,80.0,93.0
206,104.27449903125,104.50783236458332,71.0,87.0
207,104.60783236458332,104.79949903125,73.0,98.0
208,104.94116569791666,105.15158236458333,76.0,93.0
209,105.27449903125,105.81824903124999,78.0,95.0
210,105.94116569791666,106.59741569791666,80.0,93.0
211,108.27449903125,108.51199903124999,80.0,97.0
212,108.60783236458332,108.83908236458333,78.0,92.0
213,108.94116569791666,109.17241569791666,76.0,96.0
214,109.27449903125,109.93491569791667,78.0,94.0
215,109.94116569791666,111.39116569791666,73.0,107.0
216,112.27449903125,112.55366569791666,73.0,98.0
217,112.60783236458332,112.87866569791666,76.0,93.0
218,112.94116569791666,113.28908236458332,73.0,100.0
219,113.27449903125,113.93908236458333,78.0,91.0
220,113.94116569791666,115.96408236458333,71.0,96.0
221,116.27449903125,116.48491569791666,83.0,97.0
222,116.60783236458332,116.87866569791666,83.0,93.0
223,116.94116569791666,117.18908236458333,78.0,95.0
224,117.27449903125,117.85158236458332,78.0,94.0
225,117.94116569791666,119.26616569791666,80.0,92.0
226,120.27449903125,120.53074903125,80.0,92.0
227,120.60783236458332,120.87449903125,78.0,92.0
228,120.94116569791666,121.18491569791667,76.0,98.0
229,121.27449903125,121.81824903124999,78.0,94.0
230,121.94116569791666,123.09324903125,80.0,92.0
231,124.27449903125,124.50574903124999,80.0,94.0
232,124.60783236458332,124.83491569791666,78.0,94.0
233,124.94116569791666,125.20574903125,76.0,93.0
234,125.27449903125,125.90783236458333,78.0,95.0
235,125.94116569791666,127.25574903124999,73.0,102.0
236,128.27449903125,128.54533236458332,73.0,95.0
237,128.60783236458332,128.92033236458332,76.0,97.0
238,128.94116569791666,129.22033236458333,73.0,96.0
239,129.27449903125,129.93699903125,78.0,93.0
240,129.94116569791666,131.86408236458334,71.0,96.0
241,132.60783236458332,132.89741569791664,76.0,97.0
242,132.94116569791666,133.19949903124999,73.0,102.0
243,133.27449903125,136.45574903124998,76.0,95.0
244,164.27449903125,164.54116569791665,59.0,95.0
245,164.60783236458332,164.86199903124998,61.0,93.0
246,164.94116569791666,165.17241569791668,64.0,91.0
247,165.27449903125,165.45991569791664,68.0,89.0
248,165.60783236458332,165.83283236458334,68.0,91.0
249,165.94116569791666,166.14533236458334,68.0,91.0
250,166.27449903125,166.50158236458333,68.0,93.0
251,166.60783236458332,166.85574903125,68.0,92.0
252,166.94116569791666,167.21824903125,66.0,84.0
253,167.27449903125,167.96616569791667,64.0,93.0
254,168.27449903125,168.54116569791665,59.0,95.0
255,168.60783236458332,168.86199903124998,61.0,93.0
256,168.94116569791666,169.17241569791668,64.0,91.0
257,169.27449903125,169.45991569791664,68.0,89.0
258,169.60783236458332,169.83283236458334,68.0,91.0
259,169.94116569791666,170.14533236458334,68.0,91.0
260,170.27449903125,170.50158236458333,68.0,93.0
261,170.60783236458332,170.85574903125,68.0,92.0
262,170.94116569791666,171.21824903125,66.0,84.0
263,171.27449903125,171.96616569791667,64.0,93.0
264,172.27449903125,172.57866569791668,68.0,95.0
265,172.60783236458332,172.87658236458333,66.0,92.0
266,172.94116569791666,173.15783236458333,64.0,94.0
267,173.27449903125,173.50574903125,64.0,96.0
268,173.60783236458332,173.70783236458334,64.0,93.0
269,173.77449903125,173.88699903124999,61.0,91.0
270,173.94116569791666,174.89533236458334,64.0,95.0
271,174.94116569791666,175.0578323645833,64.0,93.0
272,175.10783236458332,175.23491569791668,61.0,86.0
273,175.27449903125,176.10991569791668,64.0,92.0
274,176.27449903125,176.51199903124999,64.0,97.0
275,176.60783236458332,176.8390823645833,64.0,97.0
276,176.94116569791666,177.04324903124999,64.0,93.0
277,177.10783236458332,177.2453323645833,61.0,92.0
278,177.27449903125,177.45783236458334,66.0,94.0
279,177.60783236458332,177.80366569791664,66.0,92.0
280,177.94116569791666,178.12658236458333,66.0,91.0
281,178.27449903125,178.50574903125,66.0,92.0
282,178.60783236458332,178.83074903124998,66.0,91.0
283,178.94116569791666,179.17866569791664,64.0,92.0
284,179.27449903125,180.09741569791666,66.0,91.0
285,180.27449903125,180.53699903125,64.0,93.0
286,180.60783236458332,180.89116569791668,66.0,91.0
287,180.94116569791666,181.20158236458332,68.0,95.0
288,181.27449903125,181.51824903124998,71.0,93.0
289,181.60783236458332,181.8078323645833,71.0,92.0
290,181.94116569791666,182.15366569791667,71.0,91.0
291,182.27449903125,182.49116569791664,71.0,93.0
292,182.60783236458332,182.8703323645833,71.0,93.0
293,182.94116569791666,183.17866569791664,68.0,93.0
294,183.27449903125,184.11824903125,68.0,93.0
295,184.27449903125,184.51616569791668,64.0,93.0
296,184.60783236458332,184.84949903125,66.0,91.0
297,184.94116569791666,185.22866569791665,68.0,93.0
298,185.27449903125,185.51199903124999,73.0,97.0
299,185.60783236458332,185.82449903124999,73.0,96.0
300,185.94116569791666,186.15783236458333,73.0,98.0
301,186.27449903125,186.49324903125,73.0,97.0
302,186.60783236458332,186.88491569791665,73.0,98.0
303,186.94116569791666,187.19949903124999,71.0,93.0
304,187.27449903125,188.01616569791668,68.0,95.0
305,188.27449903125,188.51616569791668,68.0,95.0
306,188.60783236458332,188.86199903124998,68.0,93.0
307,188.94116569791666,189.19533236458332,71.0,93.0
308,189.27449903125,189.50991569791665,73.0,93.0
309,189.60783236458332,189.83699903125,73.0,97.0
310,189.94116569791666,190.14741569791664,71.0,97.0
311,190.27449903125,190.49116569791664,73.0,95.0
312,190.60783236458332,190.84741569791666,73.0,95.0
313,190.94116569791666,191.18908236458333,76.0,93.0
314,191.27449903125,192.05574903125,76.0,93.0
315,192.27449903125,192.50158236458333,76.0,95.0
316,192.60783236458332,192.86408236458334,76.0,92.0
317,192.94116569791666,193.19533236458332,73.0,102.0
318,193.27449903125,193.49324903125,78.0,93.0
319,193.60783236458332,193.81408236458333,78.0,91.0
320,193.94116569791666,194.17866569791664,78.0,94.0
321,194.27449903125,194.49116569791664,78.0,93.0
322,194.60783236458332,194.8703323645833,78.0,93.0
323,194.94116569791666,195.19116569791666,76.0,91.0
324,195.27449903125,196.09949903125,78.0,93.0
325,196.27449903125,196.50783236458332,71.0,87.0
326,196.60783236458332,196.79949903124998,73.0,98.0
327,196.94116569791666,197.1515823645833,76.0,93.0
328,197.27449903125,197.81824903125,78.0,95.0
329,197.94116569791666,198.59741569791663,80.0,93.0
330,200.27449903125,200.50783236458335,71.0,87.0
331,200.60783236458332,200.79949903124998,73.0,98.0
332,200.94116569791663,201.1515823645833,76.0,93.0
333,201.27449903125,201.81824903125,78.0,95.0
334,201.94116569791663,202.59741569791663,80.0,93.0
335,204.27449903125,204.51199903125,80.0,97.0
336,204.60783236458332,204.8390823645833,78.0,92.0
337,204.94116569791663,205.17241569791668,76.0,96.0
338,205.27449903125,205.93491569791667,78.0,94.0
339,205.94116569791663,207.39116569791668,73.0,107.0
340,208.27449903125,208.55366569791664,73.0,98.0
341,208.60783236458332,208.87866569791663,76.0,93.0
342,208.94116569791663,209.28908236458335,73.0,100.0
343,209.27449903125,209.93908236458333,78.0,91.0
344,209.94116569791663,211.9640823645833,71.0,96.0
345,212.27449903125,212.48491569791668,83.0,97.0
346,212.60783236458332,212.87866569791663,83.0,93.0
347,212.94116569791663,213.18908236458333,78.0,95.0
348,213.27449903125,213.85158236458335,78.0,94.0
349,213.94116569791663,215.26616569791668,80.0,92.0
350,216.27449903125,216.53074903124997,80.0,92.0
351,216.60783236458332,216.87449903124997,78.0,92.0
352,216.94116569791663,217.18491569791667,76.0,98.0
353,217.27449903125,217.81824903125,78.0,94.0
354,217.94116569791663,219.09324903124997,80.0,92.0
355,220.27449903125,220.50574903125,80.0,94.0
356,220.60783236458332,220.83491569791664,78.0,94.0
357,220.94116569791663,221.20574903124998,76.0,93.0
358,221.27449903125,221.90783236458333,78.0,95.0
359,221.94116569791663,223.25574903125,73.0,102.0
360,224.27449903125,224.54533236458332,73.0,95.0
361,224.60783236458332,224.92033236458332,76.0,97.0
362,224.94116569791663,225.22033236458333,73.0,96.0
363,225.27449903125,225.93699903124997,78.0,93.0
364,225.94116569791663,227.86408236458334,71.0,96.0
365,228.27449903125,228.50783236458335,71.0,87.0
366,228.60783236458332,228.79949903124998,73.0,98.0
367,228.94116569791663,229.1515823645833,76.0,93.0
368,229.27449903125,229.81824903125,78.0,95.0
369,229.94116569791663,230.59741569791663,80.0,93.0
370,232.27449903125,232.50783236458335,71.0,87.0
371,232.60783236458332,232.79949903124998,73.0,98.0
372,232.94116569791663,233.1515823645833,76.0,93.0
373,233.27449903125,233.81824903125,78.0,95.0
374,233.94116569791663,234.59741569791663,80.0,93.0
375,236.27449903125,236.51199903125,80.0,97.0
376,236.60783236458332,236.8390823645833,78.0,92.0
377,236.94116569791663,237.17241569791668,76.0,96.0
378,237.27449903125,237.93491569791667,78.0,94.0
379,237.94116569791663,239.39116569791668,73.0,107.0
380,240.27449903125,240.55366569791664,73.0,98.0
381,240.60783236458332,240.87866569791663,76.0,93.0
382,240.94116569791663,241.28908236458335,73.0,100.0
383,241.27449903125,241.93908236458333,78.0,91.0
384,241.94116569791663,243.9640823645833,71.0,96.0
385,244.27449903125,244.48491569791668,83.0,97.0
386,244.60783236458332,244.87866569791663,83.0,93.0
387,244.94116569791663,245.18908236458333,78.0,95.0
388,245.27449903125,245.85158236458335,78.0,94.0
389,245.94116569791663,247.26616569791668,80.0,92.0
390,248.27449903125,248.53074903124997,80.0,92.0
391,248.60783236458332,248.87449903124997,78.0,92.0
392,248.94116569791663,249.18491569791667,76.0,98.0
393,249.27449903125,249.81824903125,78.0,94.0
394,249.94116569791663,251.09324903124997,80.0,92.0
395,252.27449903125,252.50574903125,80.0,94.0
396,252.60783236458332,252.83491569791664,78.0,94.0
397,252.94116569791663,253.20574903124998,76.0,93.0
398,253.27449903125,253.90783236458333,78.0,95.0
399,253.94116569791663,255.25574903125,73.0,102.0
400,256.27449903125,256.5453323645833,73.0,95.0
401,256.6078323645833,256.9203323645833,76.0,97.0
402,256.94116569791663,257.2203323645833,73.0,96.0
403,257.27449903125,257.93699903124997,78.0,93.0
404,257.94116569791663,259.86408236458334,71.0,96.0
405,260.6078323645833,260.89741569791664,76.0,97.0
406,260.94116569791663,261.19949903125,73.0,102.0
407,261.27449903125,264.45574903125,76.0,95.0
