,start,end,pitch,velocity
0,0.27291666666666664,0.54375,40.0,90.0
1,0.13333333333333333,0.8104166666666667,64.0,84.0
2,0.17708333333333334,0.8458333333333333,59.0,79.0
3,0.21666666666666667,0.8624999999999999,56.0,79.0
4,0.30625,0.86875,52.0,77.0
5,4.966666666666667,5.2,54.0,77.0
6,5.3,5.585416666666666,52.0,79.0
7,5.3,5.622916666666667,59.0,82.0
8,6.3,6.622916666666667,52.0,76.0
9,6.3,6.63125,56.0,76.0
10,4.633333333333333,7.610416666666667,47.0,78.0
11,4.3,7.720833333333333,40.0,91.0
12,8.3,8.65,37.0,89.0
13,8.3,8.870833333333334,56.0,75.0
14,8.3,9.333333333333334,61.0,81.0
15,9.966666666666667,10.220833333333333,56.0,80.0
16,10.3,10.625,56.0,80.0
17,10.3,10.689583333333333,64.0,85.0
18,10.3,10.69375,59.0,79.0
19,9.633333333333333,11.585416666666667,52.0,77.0
20,12.3,12.770833333333334,54.0,81.0
21,12.3,13.120833333333334,57.0,78.0
22,12.966666666666667,13.44375,52.0,82.0
23,12.3,13.483333333333333,61.0,70.0
24,13.299999999999999,13.84375,57.0,83.0
25,14.299999999999999,14.883333333333333,61.0,87.0
26,14.299999999999999,14.902083333333334,57.0,81.0
27,14.299999999999999,14.920833333333333,64.0,82.0
28,15.633333333333333,15.975,57.0,80.0
29,12.633333333333333,16.05,49.0,83.0
30,12.3,16.139583333333334,42.0,91.0
31,15.633333333333333,16.185416666666665,61.0,91.0
32,15.966666666666667,16.19375,54.0,83.0
33,16.3,16.764583333333334,54.0,89.0
34,16.3,17.44375,59.0,87.0
35,16.966666666666665,17.541666666666668,54.0,78.0
36,17.670833333333334,17.89375,54.0,70.0
37,16.633333333333333,17.964583333333334,51.0,70.0
38,16.3,17.975,47.0,91.0
39,17.633333333333333,18.00625,61.0,90.0
40,17.979166666666668,18.285416666666666,49.0,82.0
41,17.983333333333334,18.285416666666666,54.0,82.0
42,18.3,19.422916666666666,51.0,89.0
43,18.3,20.01875,63.0,80.0
44,18.3,20.041666666666668,59.0,85.0
45,20.3,21.05625,56.0,83.0
46,20.3,21.5875,52.0,85.0
47,20.966666666666665,21.835416666666667,59.0,84.0
48,21.633333333333333,22.035416666666666,64.0,86.0
49,21.966666666666665,22.108333333333334,52.0,69.0
50,22.3,22.766666666666666,52.0,86.0
51,22.3,22.858333333333334,59.0,89.0
52,20.633333333333333,23.760416666666668,47.0,77.0
53,20.3,23.941666666666666,40.0,91.0
54,23.966666666666665,24.1875,63.0,91.0
55,24.3,25.010416666666668,61.0,86.0
56,25.3,25.475,56.0,81.0
57,25.633333333333333,25.777083333333334,56.0,92.0
58,25.633333333333333,25.870833333333334,61.0,92.0
59,26.3,27.318749999999998,56.0,85.0
60,24.966666666666665,27.452083333333334,44.0,59.0
61,24.3,27.477083333333333,37.0,91.0
62,26.3,27.693749999999998,64.0,89.0
63,28.3,28.756249999999998,54.0,82.0
64,28.3,29.077083333333334,61.0,81.0
65,28.966666666666665,29.15625,54.0,85.0
66,29.3,29.572916666666668,54.0,91.0
67,29.3,29.583333333333332,57.0,85.0
68,28.633333333333333,29.662499999999998,49.0,80.0
69,28.3,29.675,42.0,87.0
70,30.3,30.72083333333333,54.0,86.0
71,30.3,31.052083333333332,59.0,88.0
72,30.966666666666665,31.204166666666666,54.0,82.0
73,31.3,31.589583333333334,59.0,89.0
74,30.3,31.664583333333333,44.0,91.0
75,30.633333333333333,31.697916666666668,51.0,79.0
76,31.3,31.716666666666665,63.0,92.0
77,31.3,31.745833333333334,54.0,88.0
78,32.3,32.65833333333333,57.0,88.0
79,32.63333333333333,32.91041666666666,52.0,63.0
80,32.3,32.947916666666664,45.0,96.0
81,32.3,33.01875,61.0,89.0
82,32.96666666666667,33.041666666666664,57.0,70.0
83,33.3,33.56875,54.0,86.0
84,33.96666666666667,34.12083333333333,54.0,89.0
85,33.3,34.12291666666667,47.0,95.0
86,33.3,34.19583333333333,59.0,89.0
87,34.63333333333333,34.889583333333334,66.0,88.0
88,34.96666666666667,35.172916666666666,56.0,72.0
89,34.3,35.2375,49.0,93.0
90,34.96666666666667,35.577083333333334,71.0,91.0
91,35.3,36.18125,59.0,79.0
92,35.3,36.18333333333333,35.0,88.0
93,35.3,36.18541666666667,63.0,90.0
94,36.3,36.5875,52.0,87.0
95,36.3,36.795833333333334,59.0,88.0
96,36.8,37.15208333333333,56.0,83.0
97,37.13333333333333,37.485416666666666,52.0,83.0
98,37.3,37.67916666666667,56.0,81.0
99,37.3,37.71458333333333,59.0,85.0
100,37.63333333333333,37.9625,52.0,76.0
101,37.96666666666667,38.0625,59.0,58.0
102,38.3,38.51875,64.0,90.0
103,38.3,38.52708333333333,56.0,86.0
104,38.3,38.53125,59.0,90.0
105,38.8,38.96041666666667,56.0,88.0
106,38.8,38.96458333333333,59.0,88.0
107,39.13333333333333,39.21041666666667,52.0,80.0
108,36.3,39.4875,40.0,92.0
109,39.63333333333333,39.78333333333333,47.0,91.0
110,39.3,39.85208333333333,56.0,88.0
111,40.3,41.06875,56.0,78.0
112,40.3,41.139583333333334,61.0,88.0
113,40.3,41.395833333333336,49.0,98.0
114,41.3,41.44375,64.0,98.0
115,41.63333333333333,41.8875,52.0,74.0
116,41.8,41.9375,61.0,85.0
117,41.8,41.96458333333333,56.0,87.0
118,41.96666666666667,42.047916666666666,56.0,70.0
119,42.3,42.55833333333333,56.0,84.0
120,42.3,42.766666666666666,64.0,86.0
121,42.8,42.927083333333336,56.0,79.0
122,42.8,43.010416666666664,61.0,84.0
123,43.13333333333333,43.208333333333336,56.0,67.0
124,43.3,43.483333333333334,56.0,89.0
125,42.3,43.59166666666667,49.0,91.0
126,43.63333333333333,43.74166666666667,56.0,79.0
127,43.3,43.77291666666667,61.0,93.0
128,44.3,44.66458333333333,54.0,80.0
129,44.3,44.6875,57.0,75.0
130,44.3,44.72708333333333,61.0,86.0
131,44.96666666666667,45.0625,54.0,76.0
132,45.3,45.541666666666664,66.0,90.0
133,45.3,45.55416666666667,54.0,92.0
134,45.8,45.989583333333336,61.0,85.0
135,45.96666666666667,46.11666666666667,57.0,80.0
136,44.63333333333333,46.18125,49.0,80.0
137,44.3,46.22083333333333,42.0,92.0
138,46.13333333333333,46.2625,54.0,77.0
139,46.3,46.947916666666664,54.0,84.0
140,46.3,46.99583333333333,57.0,79.0
141,47.3,47.59375,54.0,92.0
142,47.3,47.65,61.0,92.0
143,47.8,47.95,57.0,80.0
144,47.63333333333333,47.983333333333334,49.0,85.0
145,47.8,47.989583333333336,54.0,91.0
146,47.96666666666667,47.989583333333336,54.0,79.0
147,46.3,48.15,42.0,91.0
148,48.3,48.5875,54.0,88.0
149,48.3,48.60625,59.0,90.0
150,48.8,48.927083333333336,54.0,83.0
151,48.8,48.93333333333333,63.0,90.0
152,48.96666666666667,49.11666666666667,54.0,79.0
153,49.3,49.46458333333333,54.0,90.0
154,49.3,49.54375,59.0,90.0
155,49.63333333333333,49.80833333333333,54.0,84.0
156,48.3,50.110416666666666,47.0,91.0
157,49.96666666666667,50.13125,54.0,92.0
158,49.96666666666667,50.14791666666667,61.0,91.0
159,50.3,50.5625,54.0,91.0
160,50.3,50.61666666666667,59.0,92.0
161,50.8,50.920833333333334,54.0,85.0
162,50.8,51.020833333333336,59.0,86.0
163,51.13333333333333,51.202083333333334,54.0,85.0
164,51.3,51.458333333333336,54.0,91.0
165,51.3,51.61666666666667,59.0,96.0
166,50.3,51.7125,47.0,96.0
167,51.63125,52.03333333333333,57.0,90.0
168,51.975,52.31666666666666,54.0,84.0
169,52.3,52.62291666666667,52.0,88.0
170,52.3,52.65416666666667,56.0,86.0
171,52.8,52.9375,52.0,82.0
172,52.8,52.95625,59.0,84.0
173,53.13333333333333,53.26875,52.0,79.0
174,53.3,53.43958333333333,52.0,86.0
175,53.3,53.63333333333333,64.0,93.0
176,53.63333333333333,53.858333333333334,59.0,78.0
177,53.96666666666667,54.204166666666666,52.0,80.0
178,52.3,54.20625,40.0,93.0
179,54.3,54.577083333333334,52.0,55.0
180,54.3,54.68333333333333,59.0,83.0
181,54.3,54.68958333333333,56.0,79.0
182,54.8,55.168749999999996,64.0,85.0
183,55.13333333333333,55.40625,52.0,74.0
184,55.3,55.672916666666666,56.0,92.0
185,55.3,55.766666666666666,59.0,93.0
186,55.3,55.77291666666667,64.0,92.0
187,54.3,56.06875,40.0,88.0
188,55.96666666666667,56.08125,59.0,60.0
189,55.63333333333333,56.139583333333334,52.0,89.0
190,56.3,56.74583333333333,61.0,85.0
191,56.63333333333333,56.885416666666664,56.0,84.0
192,56.8,56.99166666666667,61.0,87.0
193,57.3,57.43333333333333,56.0,88.0
194,57.3,57.458333333333336,64.0,89.0
195,57.8,57.9375,56.0,80.0
196,57.8,57.95625,61.0,82.0
197,56.3,58.18541666666667,49.0,91.0
198,58.13333333333333,58.239583333333336,56.0,71.0
199,58.3,59.11875,56.0,81.0
200,58.3,59.135416666666664,61.0,84.0
201,59.3,59.34375,56.0,73.0
202,59.3,59.579166666666666,64.0,96.0
203,59.63333333333333,59.78125,61.0,86.0
204,58.3,59.895833333333336,49.0,92.0
205,59.8,59.9375,56.0,86.0
206,59.96666666666667,60.13125,61.0,83.0
207,60.13333333333333,60.229166666666664,56.0,79.0
208,60.3,60.66458333333333,54.0,85.0
209,60.3,60.68125,57.0,82.0
210,60.96666666666667,61.09791666666666,61.0,78.0
211,61.63333333333333,61.75416666666666,54.0,92.0
212,61.63333333333333,61.770833333333336,66.0,89.0
213,61.96666666666667,62.07083333333333,54.0,84.0
214,60.3,62.16041666666666,42.0,92.0
215,62.3,62.8125,57.0,74.0
216,62.3,62.83541666666667,61.0,84.0
217,63.3,63.333333333333336,54.0,80.0
218,63.3,63.63125,57.0,95.0
219,63.3,63.6625,61.0,96.0
220,63.8,63.979166666666664,54.0,88.0
221,63.96666666666667,64.12291666666667,57.0,77.0
222,63.63333333333333,64.13125,49.0,81.0
223,62.3,64.21458333333334,42.0,92.0
224,64.13333333333333,64.25208333333333,54.0,79.0
225,64.3,64.55416666666666,54.0,89.0
226,64.3,64.84583333333333,59.0,91.0
227,64.63333333333333,65.03333333333333,54.0,85.0
228,64.96666666666667,65.15416666666667,59.0,83.0
229,65.63333333333333,65.7875,54.0,87.0
230,65.63333333333333,66.09375,59.0,90.0
231,64.3,66.13958333333333,47.0,91.0
232,65.96666666666667,66.14166666666667,54.0,76.0
233,66.3,67.482609875,54.0,87.0
234,66.3,67.51153547916667,47.0,93.0
235,66.3,67.52806439583333,59.0,85.0
236,66.3,68.28426233333333,35.0,93.0
237,69.2801295625,70.01824903125,64.0,91.0
238,69.94128622916666,70.40366569791667,59.0,82.0
239,69.61070789583333,70.40991569791666,47.0,76.0
240,70.27449903124999,70.94949903125,56.0,89.0
241,70.94116569791666,71.14324903125,59.0,80.0
242,71.27449903124999,71.72866569791665,56.0,91.0
243,71.27449903124999,71.95366569791666,64.0,93.0
244,71.94116569791666,72.08074903125,59.0,78.0
245,70.60783236458333,72.44116569791666,47.0,66.0
246,72.27449903124999,72.46616569791667,56.0,87.0
247,72.27449903124999,72.67658236458333,59.0,92.0
248,69.2801295625,72.82449903125,40.0,91.0
249,72.60783236458333,72.84949903124999,47.0,83.0
250,72.27449903124999,72.99116569791666,64.0,91.0
251,72.94116569791666,73.35991569791666,59.0,92.0
252,73.27449903124999,74.06199903125,61.0,92.0
253,73.94116569791666,74.58491569791666,56.0,91.0
254,74.27449903124999,75.00366569791666,64.0,93.0
255,73.60783236458333,75.00574903124999,52.0,58.0
256,73.27449903124999,75.06408236458333,49.0,93.0
257,74.94116569791666,75.37241569791667,56.0,76.0
258,75.27449903124999,75.89116569791666,61.0,84.0
259,75.94116569791666,76.06199903125,56.0,73.0
260,76.27449903124999,76.51824903125,56.0,93.0
261,76.27449903124999,76.65158236458333,64.0,92.0
262,75.27449903124999,76.73699903125,49.0,87.0
263,76.60783236458333,76.92449903125,61.0,87.0
264,76.91199903124999,77.20158236458333,56.0,79.0
265,77.27449903124999,78.35574903125,61.0,89.0
266,77.94116569791666,78.35991569791666,57.0,71.0
267,77.27449903124999,78.58491569791666,54.0,82.0
268,78.27449903124999,78.69533236458332,66.0,91.0
269,77.27449903124999,79.13074903124999,42.0,91.0
270,77.60783236458333,79.15991569791666,49.0,77.0
271,78.94116569791666,79.38283236458332,54.0,87.0
272,79.27449903124999,79.86408236458333,57.0,80.0
273,79.27449903124999,79.87033236458333,61.0,87.0
274,79.94116569791666,80.38283236458332,49.0,74.0
275,80.27449903124999,80.53699903124999,54.0,91.0
276,80.27449903124999,80.72866569791665,61.0,93.0
277,79.27449903124999,80.96199903124999,42.0,92.0
278,80.60783236458333,80.96199903124999,49.0,85.0
279,80.94116569791666,81.17241569791666,54.0,96.0
280,81.27449903124999,81.48074903125,54.0,92.0
281,81.27449903124999,81.70574903125,59.0,91.0
282,81.60783236458333,82.09116569791667,54.0,87.0
283,81.94116569791666,82.17241569791666,59.0,83.0
284,82.27449903124999,82.95366569791666,61.0,86.0
285,81.27449903124999,83.11616569791666,47.0,92.0
286,82.94116569791666,83.18908236458333,54.0,86.0
287,83.27449903124999,83.99741569791667,63.0,92.0
288,83.27449903124999,84.00366569791666,59.0,91.0
289,83.94116569791666,84.24949903125,54.0,85.0
290,84.27449903124999,84.64533236458333,61.0,92.0
291,83.27449903124999,84.75991569791665,47.0,93.0
292,84.60783236458333,84.95574903125,59.0,94.0
293,84.94116569791666,85.18908236458333,54.0,75.0
294,85.27449903124999,85.93283236458333,56.0,83.0
295,85.27449903124999,85.96824903125,52.0,90.0
296,85.94116569791666,86.14324903125,59.0,91.0
297,86.27449903125,86.74116569791666,64.0,100.0
298,85.27449903124999,87.19116569791666,40.0,91.0
299,85.60783236458333,87.19116569791666,47.0,77.0
300,87.27449903125,88.05574903125,59.0,89.0
301,86.94116569791666,88.24324903125,52.0,79.0
302,88.27449903125,88.67866569791666,56.0,93.0
303,88.27449903125,88.71616569791667,59.0,94.0
304,88.60783236458333,88.73074903124999,52.0,79.0
305,87.94116569791666,88.90783236458333,47.0,78.0
306,87.27449903125,88.98699903125,40.0,91.0
307,88.94116569791666,89.23699903125,63.0,92.0
308,89.27449903125,89.74533236458333,56.0,83.0
309,89.27449903125,90.16824903124999,61.0,91.0
310,89.94116569791666,90.28908236458332,56.0,85.0
311,89.27449903125,90.73074903124999,49.0,94.0
312,90.27449903125,90.94949903124999,64.0,95.0
313,90.94116569791666,91.15783236458333,56.0,78.0
314,91.27449903125,91.75366569791666,56.0,86.0
315,91.27449903125,91.95574903125,61.0,89.0
316,91.94116569791666,92.43283236458333,52.0,71.0
317,92.27449903125,92.47033236458333,56.0,94.0
318,91.27449903125,92.61824903125,49.0,97.0
319,92.27449903125,92.68491569791667,64.0,94.0
320,92.60783236458333,92.89324903125,61.0,95.0
321,92.94116569791666,93.07866569791666,56.0,91.0
322,93.27449903125,93.66616569791665,54.0,91.0
323,93.27449903125,93.82449903124999,57.0,78.0
324,93.27449903125,93.95991569791666,61.0,91.0
325,93.94116569791666,94.10574903124999,54.0,82.0
326,94.27449903125,94.49949903125,54.0,98.0
327,94.27449903125,94.51616569791666,61.0,93.0
328,94.60783236458333,94.72033236458333,54.0,64.0
329,94.94116569791666,95.12658236458333,57.0,85.0
330,93.27449903125,95.16199903124999,42.0,92.0
331,93.60783236458333,95.17866569791666,49.0,78.0
332,95.27449903125,95.60366569791665,56.0,91.0
333,95.27449903125,95.82241569791665,59.0,91.0
334,95.94116569791666,96.12449903125,56.0,90.0
335,96.27449903124999,96.43908236458333,56.0,96.0
336,95.60783236458333,96.49116569791666,51.0,86.0
337,95.27449903125,96.65366569791667,44.0,92.0
338,96.27449903124999,96.69533236458332,59.0,100.0
339,96.94116569791666,97.01616569791666,56.0,86.0
340,97.27449903124999,97.63283236458332,57.0,88.0
341,97.60783236458333,97.88491569791665,52.0,63.0
342,97.27449903124999,97.92241569791666,45.0,96.0
343,97.27449903124999,97.99324903124999,61.0,89.0
344,97.94116569791666,98.01616569791666,57.0,70.0
345,98.27449903124999,98.54324903124999,54.0,86.0
346,98.94116569791666,99.09533236458333,54.0,89.0
347,98.27449903124999,99.09741569791666,47.0,95.0
348,98.27449903124999,99.17033236458333,59.0,89.0
349,99.60783236458333,99.86408236458333,66.0,88.0
350,99.94116569791666,100.14741569791666,56.0,72.0
351,99.27449903124999,100.21199903124999,49.0,93.0
352,99.94116569791666,100.55158236458333,71.0,91.0
353,100.27449903124999,101.15574903125,59.0,79.0
354,100.27449903124999,101.15783236458333,35.0,88.0
355,100.27449903124999,101.15991569791666,63.0,90.0
356,101.27449903124999,101.52033236458333,56.0,86.0
357,101.27449903124999,101.69324903124999,59.0,91.0
358,101.27449903124999,101.74324903124999,64.0,91.0
359,101.94116569791666,102.07241569791665,56.0,91.0
360,102.27449903125,102.42449903125,56.0,93.0
361,102.27449903125,102.52658236458333,64.0,96.0
362,102.27449903125,102.52866569791667,59.0,108.0
363,102.60783236458332,102.80991569791667,56.0,88.0
364,101.60783236458333,103.04533236458332,47.0,77.0
365,102.94116569791666,103.12866569791666,59.0,92.0
366,101.27449903124999,103.17449903125,40.0,94.0
367,103.27449903125,103.60991569791666,64.0,90.0
368,103.27449903125,103.64116569791666,56.0,86.0
369,103.27449903125,103.64324903125,59.0,91.0
370,103.94116569791666,104.03074903125,56.0,77.0
371,103.94116569791666,104.05991569791667,59.0,90.0
372,104.27449903125,104.39533236458333,56.0,96.0
373,104.27449903125,104.43283236458333,64.0,98.0
374,104.60783236458332,104.75783236458332,59.0,96.0
375,103.27449903125,104.78283236458333,40.0,93.0
376,104.77449903125,104.91824903124999,56.0,87.0
377,104.94116569791666,105.09533236458333,59.0,91.0
378,105.27449903125,105.45574903125,56.0,89.0
379,105.27449903125,105.55991569791667,61.0,92.0
380,105.60783236458332,105.69741569791665,56.0,79.0
381,105.94116569791666,106.03699903124999,56.0,73.0
382,106.27449903125,106.42241569791666,56.0,96.0
383,106.27449903125,106.48699903125,64.0,95.0
384,105.27449903125,106.53908236458332,49.0,95.0
385,106.60783236458332,106.75158236458333,61.0,94.0
386,107.27449903125,107.47658236458332,56.0,88.0
387,107.60783236458332,107.74533236458333,56.0,80.0
388,107.27449903125,107.74533236458333,64.0,91.0
389,107.94116569791666,108.07658236458332,61.0,85.0
390,107.94116569791666,108.08491569791666,56.0,83.0
391,107.27449903125,108.16824903124999,37.0,96.0
392,108.27449903125,108.38699903124999,37.0,97.0
393,108.27449903125,108.39533236458333,56.0,92.0
394,108.27449903125,108.48699903125,61.0,95.0
395,108.27449903125,108.49324903125,64.0,93.0
396,108.60783236458332,108.71408236458333,56.0,91.0
397,108.94116569791666,109.04324903124999,61.0,85.0
398,108.94116569791666,109.05991569791667,56.0,86.0
399,109.27449903125,109.56616569791666,57.0,79.0
400,109.27449903125,109.59116569791667,61.0,91.0
401,109.27449903125,109.66199903124999,54.0,91.0
402,109.94116569791666,110.03699903124999,54.0,88.0
403,109.94116569791666,110.03908236458332,61.0,88.0
404,110.27449903125,110.38699903124999,54.0,100.0
405,110.27449903125,110.40158236458333,66.0,95.0
406,110.60783236458332,110.76616569791666,61.0,93.0
407,110.77449903125,110.98074903124999,57.0,91.0
408,110.94116569791666,111.07449903124999,54.0,94.0
409,109.27449903125,111.16199903124999,42.0,94.0
410,111.27449903125,111.69949903124999,61.0,93.0
411,111.27449903125,111.73491569791666,54.0,97.0
412,111.94116569791666,112.00366569791666,61.0,88.0
413,111.94116569791666,112.02866569791667,54.0,86.0
414,111.94116569791666,112.03491569791666,57.0,91.0
415,111.60783236458332,112.35366569791665,49.0,86.0
416,111.27449903125,112.47658236458332,42.0,92.0
417,112.27449903125,112.60158236458332,54.0,96.0
418,112.27449903125,112.61824903125,57.0,107.0
419,112.27449903125,112.71824903125,61.0,105.0
420,112.60783236458332,112.79533236458332,49.0,81.0
421,112.94116569791666,113.27033236458333,42.0,92.0
422,113.27449903125,113.35574903124999,35.0,93.0
423,113.27449903125,113.57241569791665,59.0,87.0
424,113.27449903125,113.60366569791665,54.0,91.0
425,113.77449903125,113.89741569791666,54.0,91.0
426,113.77449903125,113.94533236458332,63.0,92.0
427,114.10783236458332,114.21408236458333,54.0,82.0
428,114.27449903125,114.47658236458332,54.0,92.0
429,114.27449903125,114.65991569791666,59.0,95.0
430,114.60783236458332,114.77241569791666,54.0,94.0
431,114.77449903125,115.04324903124999,61.0,93.0
432,114.94116569791666,115.16199903124999,54.0,83.0
433,115.27449903125,115.44116569791666,54.0,94.0
434,115.45366569791666,115.58074903125,54.0,87.0
435,115.27449903125,115.61616569791666,59.0,98.0
436,115.77449903125,115.92866569791666,59.0,92.0
437,115.94116569791666,116.07866569791666,54.0,91.0
438,116.27449903125,116.52866569791667,54.0,100.0
439,116.27449903125,116.63699903124999,59.0,105.0
440,116.60783236458332,116.76616569791666,61.0,92.0
441,115.27449903125,117.00366569791666,47.0,98.0
442,116.94116569791666,117.14741569791666,63.0,95.0
443,117.27449903125,117.81616569791666,64.0,96.0
444,117.94116569791666,118.10366569791665,56.0,86.0
445,118.27449903125,118.47658236458332,56.0,93.0
446,118.27449903125,118.48074903124999,64.0,95.0
447,118.27449903125,118.48699903125,59.0,96.0
448,118.77449903125,118.91199903124999,56.0,84.0
449,118.77449903125,119.03699903124999,59.0,94.0
450,117.27449903125,119.18908236458333,40.0,97.0
451,117.60783236458332,119.18908236458333,47.0,74.0
452,119.10783236458332,119.50574903124999,56.0,82.0
453,119.27449903125,119.60158236458332,59.0,91.0
454,119.27449903125,119.63491569791665,64.0,93.0
455,119.94116569791666,120.10574903124999,56.0,78.0
456,120.27449903125,120.45574903125,56.0,93.0
457,120.27449903125,120.48699903125,59.0,100.0
458,120.27449903125,120.67449903125,64.0,93.0
459,119.60783236458332,120.69533236458332,47.0,76.0
460,119.27449903125,120.72449903124999,40.0,92.0
461,120.60783236458332,120.95158236458332,63.0,100.0
462,120.94116569791666,121.19324903124999,59.0,91.0
463,121.27449903125,121.45783236458333,56.0,85.0
464,121.27449903125,121.67866569791666,61.0,89.0
465,121.60783236458332,121.72658236458332,56.0,80.0
466,121.94116569791666,122.06408236458333,61.0,80.0
467,121.27449903125,122.35366569791665,49.0,98.0
468,122.27449903125,122.47866569791665,56.0,92.0
469,122.27449903125,122.62658236458333,64.0,94.0
470,122.60783236458332,122.82658236458332,61.0,91.0
471,122.94116569791666,123.18491569791667,56.0,85.0
472,123.27449903125,123.57658236458332,61.0,92.0
473,123.27449903125,123.58699903125,56.0,91.0
474,123.77449903125,123.94949903124999,61.0,92.0
475,123.94116569791666,124.04116569791665,56.0,85.0
476,124.27449903125,124.44533236458332,56.0,94.0
477,124.27449903125,124.44533236458332,61.0,98.0
478,124.27449903125,124.53491569791666,64.0,93.0
479,123.27449903125,124.54324903124999,37.0,95.0
480,124.60783236458332,124.63283236458332,56.0,67.0
481,124.60783236458332,124.85574903124999,61.0,98.0
482,124.77449903125,124.90158236458333,56.0,91.0
483,125.27449903125,125.62449903125,61.0,93.0
484,125.27449903125,125.64741569791666,54.0,92.0
485,125.77449903125,126.00991569791665,54.0,86.0
486,125.77449903125,126.02658236458333,61.0,91.0
487,126.10783236458332,126.15158236458333,61.0,50.0
488,126.10783236458332,126.16199903124999,57.0,70.0
489,126.10783236458332,126.20574903125,54.0,75.0
490,126.27449903125,126.35991569791666,54.0,88.0
491,126.27449903125,126.52866569791667,66.0,98.0
492,126.60783236458332,126.74949903125,61.0,94.0
493,125.27449903125,127.19116569791666,42.0,92.0
494,126.94116569791666,127.35783236458332,54.0,97.0
495,127.27449903125,127.83908236458333,57.0,91.0
496,127.27449903125,127.93699903125,61.0,93.0
497,127.94116569791666,128.10366569791665,54.0,81.0
498,127.60783236458332,128.37241569791667,49.0,69.0
499,128.27449903125,128.55158236458334,54.0,97.0
500,128.27449903125,128.62033236458333,61.0,96.0
501,128.77449903125,128.94949903124999,57.0,96.0
502,128.60783236458332,129.04324903124999,49.0,90.0
503,127.27449903125,129.08908236458333,42.0,92.0
504,128.94116569791666,129.14741569791664,54.0,91.0
505,129.27449903125,129.49324903125,54.0,94.0
506,129.27449903125,129.65158236458333,59.0,95.0
507,129.77449903125,129.97658236458332,54.0,92.0
508,129.77449903125,130.07033236458332,63.0,92.0
509,130.10783236458332,130.20991569791664,54.0,91.0
510,130.27449903125,130.44116569791666,54.0,93.0
511,130.27449903125,130.52241569791664,59.0,107.0
512,130.60783236458332,130.77033236458334,54.0,93.0
513,130.94116569791666,131.12241569791667,63.0,87.0
514,129.27449903125,131.13699903124999,47.0,98.0
515,131.27449903125,131.68283236458333,54.0,88.0
516,131.27449903125,131.84324903125,59.0,86.0
517,131.94116569791666,132.09533236458333,54.0,83.0
518,132.27449903125,132.40366569791667,54.0,92.0
519,132.27449903125,132.49324903125,59.0,96.0
520,132.27449903125,132.75366569791666,63.0,94.0
521,132.60783236458332,132.83908236458333,54.0,91.0
522,132.94116569791666,133.16616569791665,54.0,55.0
523,132.94116569791666,133.21616569791667,59.0,88.0
524,131.27449903125,133.23074903124999,47.0,97.0
525,133.27449903125,133.53283236458333,56.0,92.0
526,133.27449903125,133.54949903124998,59.0,92.0
527,133.27449903125,133.55783236458333,52.0,90.0
528,133.27449903125,133.59533236458333,40.0,93.0
529,134.27449903125,134.74741569791667,52.0,93.0
530,134.27449903125,134.82449903125,56.0,95.0
531,134.27449903125,134.85366569791665,59.0,95.0
532,134.27449903125,134.89949903125,40.0,96.0
533,134.27449903125,134.93074903125,64.0,91.0
534,135.27449903125,135.72033236458333,54.0,92.0
535,135.27449903125,136.02449903125,57.0,93.0
536,135.27449903125,136.04116569791665,61.0,95.0
537,135.94116569791666,136.09116569791667,54.0,92.0
538,136.27449903125,136.63908236458332,54.0,97.0
539,136.27449903125,136.71824903125,57.0,97.0
540,136.27449903125,136.79533236458332,61.0,100.0
541,135.27449903125,136.84324903125,42.0,95.0
542,136.60783236458332,136.88283236458332,49.0,81.0
543,136.94116569791666,137.07866569791668,54.0,93.0
544,137.27449903125,137.96824903125,59.0,86.0
545,137.27449903125,138.19533236458332,56.0,91.0
546,138.27449903125,138.48699903124998,56.0,92.0
547,138.27449903125,138.52449903125,59.0,96.0
548,138.27449903125,138.60991569791668,63.0,94.0
549,137.27449903125,138.77241569791664,44.0,97.0
550,138.60783236458332,138.7765823645833,51.0,83.0
551,139.27449903125,139.41824903125,52.0,93.0
552,139.27449903125,139.52241569791664,60.0,96.0
553,139.27449903125,139.64949903125,57.0,96.0
554,139.60783236458332,139.7765823645833,52.0,92.0
555,139.94116569791666,140.06824903125,52.0,74.0
556,139.94116569791666,140.07866569791668,57.0,74.0
557,139.94116569791666,140.08699903125,60.0,77.0
558,139.94116569791666,140.12241569791667,64.0,81.0
559,140.27449903125,140.48491569791668,52.0,98.0
560,139.27449903125,140.50574903125,45.0,95.0
561,140.27449903125,140.56199903125,57.0,102.0
562,140.27449903125,140.56408236458333,60.0,98.0
563,140.27449903125,140.68074903125,64.0,93.0
564,140.60783236458332,140.75574903125,48.0,91.0
565,140.94116569791666,141.1515823645833,52.0,100.0
566,141.27449903125,141.46824903125,56.0,93.0
567,141.27449903125,141.47033236458333,52.0,91.0
568,141.27449903125,141.48699903124998,59.0,92.0
569,141.27449903125,141.51408236458332,40.0,96.0
570,142.27449903125,142.60366569791665,52.0,87.0
571,142.27449903125,142.62449903125,56.0,87.0
572,142.27449903125,142.62449903125,59.0,88.0
573,142.27449903125,142.63699903125,64.0,91.0
574,142.60783236458332,142.63699903125,64.0,91.0
575,142.60783236458332,142.78491569791666,52.0,94.0
576,142.27449903125,142.98491569791668,40.0,94.0
577,143.27449903125,143.64116569791668,54.0,94.0
578,143.27449903125,143.70574903124998,66.0,89.0
579,143.94116569791666,144.10991569791668,54.0,86.0
580,143.60783236458332,144.38908236458332,49.0,76.0
581,144.27449903125,144.68699903125,61.0,98.0
582,144.27449903125,144.68908236458333,57.0,96.0
583,144.27449903125,144.69116569791666,54.0,94.0
584,144.60783236458332,145.22033236458333,49.0,91.0
585,143.27449903125,145.22241569791666,42.0,94.0
586,144.94116569791666,145.25574903125,54.0,93.0
587,144.94116569791666,145.28074903125,57.0,91.0
588,144.94116569791666,145.28908236458332,66.0,86.0
589,144.94116569791666,145.29324903125,61.0,92.0
590,145.94116569791666,147.25366569791666,59.0,94.0
591,145.94116569791666,147.25783236458332,63.0,95.0
592,145.94116569791666,147.27033236458334,44.0,96.0
593,145.94116569791666,147.27449903125,56.0,92.0
594,147.27449903125,147.67658236458334,52.0,91.0
595,147.27449903125,147.83283236458334,60.0,92.0
596,147.27449903125,147.90783236458333,57.0,89.0
597,147.94116569791666,148.10991569791668,52.0,90.0
598,147.27449903125,148.44116569791666,45.0,98.0
599,148.27449903125,148.67449903124998,52.0,97.0
600,148.27449903125,148.67449903124998,60.0,97.0
601,148.60783236458332,148.75991569791665,48.0,87.0
602,148.94116569791666,149.13074903125,57.0,95.0
603,148.94116569791666,149.14949903125,52.0,93.0
604,148.94116569791666,149.1828323645833,60.0,96.0
605,149.27449903125,149.85366569791665,56.0,95.0
606,149.27449903125,150.06616569791666,52.0,92.0
607,150.27449903125,150.44533236458332,52.0,94.0
608,150.27449903125,150.45366569791668,64.0,92.0
609,150.60783236458332,150.75366569791666,52.0,94.0
610,150.60783236458332,151.20991569791664,56.0,98.0
611,150.60783236458332,151.23283236458332,59.0,96.0
612,150.94116569791666,151.26199903125,52.0,92.0
613,149.94116569791666,151.28908236458332,47.0,81.0
614,149.27449903125,151.3078323645833,40.0,91.0
615,151.27449903125,151.4640823645833,61.0,93.0
616,151.27449903125,151.47241569791666,57.0,91.0
617,151.27449903125,151.47449903125,54.0,88.0
618,151.60783236458332,151.76199903125,54.0,89.0
619,151.60783236458332,151.8703323645833,66.0,89.0
620,151.60783236458332,151.98283236458332,61.0,89.0
621,151.60783236458332,151.9953323645833,57.0,90.0
622,151.94116569791666,152.13491569791665,54.0,87.0
623,151.27449903125,152.45574903124998,42.0,93.0
624,152.27449903125,152.71824903125,54.0,95.0
625,152.27449903125,152.79324903125,61.0,100.0
626,152.27449903125,152.79533236458332,57.0,102.0
627,152.60783236458332,152.8390823645833,49.0,84.0
628,152.94116569791666,153.16408236458332,42.0,96.0
629,152.94116569791666,153.17449903124998,54.0,96.0
630,152.94116569791666,153.19324903125,57.0,92.0
631,152.94116569791666,153.19324903125,61.0,93.0
632,153.27449903125,153.68699903125,56.0,96.0
633,153.27449903125,153.74116569791664,59.0,96.0
634,153.94116569791666,154.0890823645833,54.0,91.0
635,153.94116569791666,154.0890823645833,59.0,93.0
636,153.60783236458332,154.35574903125,51.0,87.0
637,153.27449903125,154.49324903125,44.0,95.0
638,154.27449903125,154.63491569791665,63.0,105.0
639,154.27449903125,154.66408236458332,59.0,100.0
640,154.27449903125,154.70158236458332,54.0,94.0
641,154.60783236458332,155.00991569791665,44.0,75.0
642,154.60783236458332,155.08699903125,51.0,97.0
643,154.94116569791666,155.0890823645833,59.0,97.0
644,154.94116569791666,155.10158236458332,63.0,96.0
645,154.94116569791666,155.19949903125,54.0,93.0
646,155.27449903125,155.6828323645833,57.0,79.0
647,155.27449903125,155.69324903125,60.0,77.0
648,155.94116569791666,156.10158236458332,60.0,83.0
649,155.94116569791666,156.12866569791666,57.0,80.0
650,155.60783236458332,156.43699903125,52.0,81.0
651,156.27449903125,156.70366569791668,57.0,97.0
652,156.27449903125,156.7140823645833,60.0,96.0
653,156.94116569791666,157.24324903125,57.0,93.0
654,156.94116569791666,157.26616569791668,60.0,92.0
655,155.27449903125,157.27033236458334,45.0,98.0
656,156.60783236458332,157.30574903125,52.0,91.0
657,157.27449903125,157.30574903125,52.0,93.0
658,157.27449903125,157.76408236458332,64.0,93.0
659,157.94116569791666,158.04324903125,64.0,79.0
660,157.94116569791666,158.13491569791665,56.0,92.0
661,157.94116569791666,158.14741569791664,52.0,93.0
662,157.94116569791666,158.14741569791664,59.0,91.0
663,157.60783236458332,158.37658236458333,47.0,86.0
664,157.27449903125,158.45158236458332,40.0,93.0
665,158.27449903125,158.67033236458332,52.0,93.0
666,158.27449903125,158.70158236458332,64.0,96.0
667,158.27449903125,158.70366569791668,56.0,98.0
668,158.27449903125,158.71824903125,59.0,105.0
669,158.60783236458332,159.00991569791665,47.0,88.0
670,158.94116569791666,159.1515823645833,52.0,96.0
671,158.94116569791666,159.16824903125,56.0,98.0
672,158.94116569791666,159.18491569791667,59.0,98.0
673,158.94116569791666,159.23491569791668,64.0,93.0
674,159.60783236458332,159.76616569791668,54.0,92.0
675,159.94116569791666,160.09741569791666,54.0,87.0
676,159.94116569791666,160.10366569791665,57.0,84.0
677,159.27449903125,160.10991569791668,42.0,96.0
678,159.94116569791666,160.10991569791668,66.0,82.0
679,159.94116569791666,160.11199903124998,61.0,91.0
680,160.27449903125,160.66199903125,56.0,86.0
681,160.27449903125,160.76199903125,59.0,93.0
682,160.27449903125,160.8703323645833,44.0,95.0
683,160.27449903125,160.8703323645833,68.0,91.0
684,160.60783236458332,160.89116569791668,51.0,92.0
685,160.94116569791666,161.03283236458333,56.0,95.0
686,161.27449903125,161.45158236458332,52.0,90.0
687,161.27449903125,161.68908236458333,61.0,93.0
688,161.27449903125,161.72866569791665,57.0,85.0
689,161.60783236458332,161.87241569791667,52.0,91.0
690,161.94116569791666,162.00991569791665,52.0,75.0
691,161.94116569791666,162.13074903125,57.0,92.0
692,161.94116569791666,162.1515823645833,61.0,88.0
693,162.27449903125,162.46199903125,52.0,97.0
694,162.27449903125,162.50574903125,57.0,97.0
695,162.27449903125,162.65574903125,61.0,97.0
696,162.60783236458332,162.7453323645833,52.0,93.0
697,161.27449903125,163.27033236458334,45.0,107.0
698,162.94116569791666,163.27033236458334,57.0,95.0
699,162.94116569791666,163.28074903125,52.0,93.0
700,162.94116569791666,163.3078323645833,61.0,92.0
701,163.27449903125,163.48074903125,35.0,93.0
702,163.27449903125,163.48283236458332,59.0,93.0
703,163.27449903125,163.48908236458334,63.0,93.0
704,163.27449903125,163.4953323645833,54.0,91.0
705,163.60783236458332,163.8078323645833,54.0,88.0
706,163.60783236458332,163.8078323645833,59.0,86.0
707,163.60783236458332,163.81408236458333,35.0,91.0
708,163.60783236458332,163.81616569791666,63.0,92.0
709,163.94116569791666,165.2140823645833,54.0,100.0
710,163.94116569791666,165.22241569791666,59.0,105.0
711,163.94116569791666,165.22866569791665,63.0,105.0
712,163.94116569791666,165.24324903125,35.0,100.0
713,165.27449903125,166.01824903124998,64.0,91.0
714,165.94116569791666,166.40366569791667,59.0,82.0
715,165.60783236458332,166.40991569791666,47.0,76.0
716,166.27449903125,166.94949903125,56.0,89.0
717,166.94116569791666,167.14324903124998,59.0,80.0
718,167.27449903125,167.72866569791665,56.0,91.0
719,167.27449903125,167.95366569791668,64.0,93.0
720,167.94116569791666,168.08074903124998,59.0,78.0
721,166.60783236458332,168.44116569791666,47.0,66.0
722,168.27449903125,168.46616569791667,56.0,87.0
723,168.27449903125,168.67658236458334,59.0,92.0
724,165.27449903125,168.82449903125,40.0,91.0
725,168.60783236458332,168.84949903125,47.0,83.0
726,168.27449903125,168.99116569791664,64.0,91.0
727,168.94116569791666,169.35991569791668,56.0,92.0
728,169.27449903125,170.06199903125,61.0,92.0
729,169.94116569791666,170.58491569791664,56.0,91.0
730,170.27449903125,171.00366569791666,64.0,93.0
731,169.60783236458332,171.00574903125,52.0,58.0
732,169.27449903125,171.06408236458333,49.0,93.0
733,170.94116569791666,171.37241569791667,56.0,76.0
734,171.27449903125,171.89116569791668,61.0,84.0
735,171.94116569791666,172.06199903125,56.0,73.0
736,172.27449903125,172.51824903124998,56.0,93.0
737,172.27449903125,172.6515823645833,64.0,92.0
738,171.27449903125,172.73699903124998,49.0,87.0
739,172.77449903125,172.92241569791668,56.0,79.0
740,172.60783236458332,172.92449903124998,61.0,87.0
741,173.27449903125,174.35574903124999,61.0,89.0
742,173.94116569791666,174.35991569791668,57.0,71.0
743,173.27449903125,174.58491569791664,54.0,82.0
744,174.27449903125,174.69533236458332,66.0,91.0
745,173.27449903125,175.13074903125,42.0,91.0
746,173.60783236458332,175.15991569791666,49.0,77.0
747,174.94116569791666,175.38283236458332,54.0,87.0
748,175.27449903125,175.86408236458334,57.0,80.0
749,175.27449903125,175.8703323645833,61.0,87.0
750,175.94116569791666,176.38283236458332,49.0,74.0
751,176.27449903125,176.53699903125,54.0,91.0
752,176.27449903125,176.72866569791665,61.0,93.0
753,175.27449903125,176.96199903125,42.0,92.0
754,176.60783236458332,176.96199903125,49.0,85.0
755,176.94116569791666,177.17241569791668,54.0,96.0
756,177.27449903125,177.48074903124999,54.0,92.0
757,177.27449903125,177.70574903124998,59.0,91.0
758,177.60783236458332,178.09116569791667,54.0,87.0
759,177.94116569791666,178.17241569791668,59.0,83.0
760,178.27449903125,178.95366569791668,61.0,86.0
761,177.27449903125,179.11616569791664,47.0,92.0
762,178.94116569791666,179.18908236458333,54.0,86.0
763,179.27449903125,179.31408236458333,54.0,73.0
764,179.27449903125,179.99741569791667,63.0,92.0
765,179.27449903125,180.00366569791666,59.0,91.0
766,179.94116569791666,180.24949903125,54.0,85.0
767,180.27449903125,180.64533236458334,61.0,92.0
768,179.27449903125,180.75991569791665,47.0,93.0
769,180.60783236458332,180.95574903124998,59.0,94.0
770,180.94116569791666,181.18908236458333,54.0,75.0
771,181.27449903125,181.9328323645833,56.0,83.0
772,181.27449903125,181.96824903125,52.0,90.0
773,181.94116569791666,182.14324903124998,59.0,91.0
774,182.27449903125,182.74116569791664,64.0,100.0
775,181.27449903125,183.19116569791666,40.0,91.0
776,181.60783236458332,183.19116569791666,47.0,77.0
777,183.27449903125,184.05574903125,59.0,89.0
778,182.94116569791666,184.24324903125,52.0,79.0
779,184.27449903125,184.31408236458333,52.0,76.0
780,184.27449903125,184.67866569791664,56.0,93.0
781,184.27449903125,184.71616569791667,59.0,94.0
782,184.60783236458332,184.73074903124999,52.0,79.0
783,183.94116569791666,184.90783236458333,47.0,78.0
784,183.27449903125,184.98699903124998,40.0,91.0
785,184.94116569791666,185.23699903124998,63.0,92.0
786,185.27449903125,185.7453323645833,56.0,83.0
787,185.27449903125,186.16824903124999,61.0,91.0
788,185.94116569791666,186.28908236458332,56.0,85.0
789,185.27449903125,186.73074903124999,49.0,94.0
790,186.27449903125,186.94949903124999,64.0,95.0
791,186.94116569791666,187.15783236458333,56.0,78.0
792,187.27449903125,187.75366569791666,56.0,86.0
793,187.27449903125,187.95574903124998,61.0,89.0
794,187.94116569791666,188.4328323645833,52.0,71.0
795,188.27449903125,188.47033236458333,56.0,94.0
796,187.27449903125,188.61824903125,49.0,97.0
797,188.27449903125,188.68491569791667,64.0,94.0
798,188.60783236458332,188.89324903124998,61.0,95.0
799,188.94116569791666,189.07866569791668,56.0,91.0
800,189.27449903125,189.66616569791665,54.0,91.0
801,189.27449903125,189.82449903124999,57.0,78.0
802,189.27449903125,189.95991569791664,61.0,91.0
803,189.94116569791666,190.10574903124999,54.0,82.0
804,190.27449903125,190.49949903125,54.0,98.0
805,190.27449903125,190.51616569791668,61.0,93.0
806,190.60783236458332,190.72033236458333,54.0,64.0
807,190.94116569791666,191.12658236458333,57.0,85.0
808,189.27449903125,191.16199903125,42.0,92.0
809,189.60783236458332,191.17866569791664,49.0,78.0
810,191.27449903125,191.60366569791665,56.0,91.0
811,191.27449903125,191.82241569791665,59.0,91.0
812,191.94116569791666,192.12449903125,56.0,90.0
813,192.27449903125,192.43908236458333,56.0,96.0
814,191.60783236458332,192.49116569791664,51.0,86.0
815,191.27449903125,192.65366569791667,44.0,92.0
816,192.27449903125,192.69533236458332,59.0,100.0
817,192.94116569791666,193.01616569791668,56.0,86.0
818,193.27449903125,193.40783236458333,45.0,94.0
819,193.27449903125,193.47033236458333,52.0,89.0
820,193.27449903125,193.48491569791668,57.0,92.0
821,193.60783236458332,193.74116569791664,45.0,92.0
822,193.60783236458332,193.77241569791664,52.0,90.0
823,193.60783236458332,193.78699903125,57.0,85.0
824,193.94116569791666,194.1203323645833,52.0,91.0
825,193.94116569791666,194.12449903125,45.0,91.0
826,193.94116569791666,194.15574903125,57.0,89.0
827,194.27449903125,194.48491569791668,54.0,91.0
828,194.27449903125,194.49116569791664,47.0,93.0
829,194.27449903125,194.50366569791666,59.0,91.0
830,194.60783236458332,194.7765823645833,47.0,93.0
831,194.60783236458332,194.77866569791667,54.0,91.0
832,194.60783236458332,194.80366569791664,59.0,90.0
833,194.94116569791666,195.14533236458334,54.0,93.0
834,194.94116569791666,195.17658236458334,59.0,96.0
835,194.94116569791666,195.19533236458332,47.0,95.0
836,195.27449903125,195.43699903125,49.0,96.0
837,195.27449903125,195.46199903125,56.0,92.0
838,195.27449903125,195.47241569791666,61.0,94.0
839,195.60783236458332,195.76199903124999,49.0,95.0
840,195.60783236458332,195.79533236458332,56.0,91.0
841,195.60783236458332,195.79741569791668,61.0,98.0
842,195.94116569791666,196.13074903125,61.0,96.0
843,195.94116569791666,196.14949903125,56.0,92.0
844,195.94116569791666,196.16408236458332,49.0,96.0
845,196.27449903125,197.17658236458334,54.0,93.0
846,196.27449903125,197.19324903125,59.0,97.0
847,196.27449903125,197.20783236458334,63.0,100.0
848,196.27449903125,197.21616569791667,47.0,108.0
849,197.27449903125,197.63283236458332,52.0,87.0
850,197.27449903125,197.82449903124999,59.0,87.0
851,197.77449903125,197.96199903125,56.0,64.0
852,197.94116569791666,198.17658236458334,52.0,90.0
853,197.60783236458332,198.51408236458332,47.0,69.0
854,198.27449903125,198.58491569791664,52.0,105.0
855,198.27449903125,198.64533236458334,59.0,102.0
856,198.94116569791663,199.07033236458335,56.0,80.0
857,198.60783236458332,199.07658236458332,47.0,69.0
858,197.27449903125,199.08491569791664,40.0,93.0
859,199.27449903125,199.54116569791665,64.0,93.0
860,199.27449903125,199.56824903125,52.0,87.0
861,199.77449903125,199.94949903125,59.0,83.0
862,199.94116569791663,200.07658236458332,56.0,87.0
863,200.10783236458332,200.20366569791668,52.0,90.0
864,199.60783236458332,200.44741569791665,47.0,63.0
865,199.27449903125,200.47241569791663,40.0,93.0
866,200.27449903125,200.63074903125,52.0,95.0
867,200.27449903125,200.6515823645833,59.0,87.0
868,200.60783236458332,200.79533236458332,47.0,80.0
869,200.77449903125,200.94116569791663,56.0,95.0
870,200.94116569791663,201.14324903124998,52.0,102.0
871,201.10783236458332,201.23491569791668,56.0,102.0
872,201.94116569791663,202.12449903124997,49.0,70.0
873,201.60783236458332,202.40574903124997,44.0,39.0
874,202.27449903125,202.41408236458335,56.0,67.0
875,201.27449903125,202.45158236458332,37.0,85.0
876,202.27449903125,202.56408236458333,49.0,90.0
877,202.60783236458332,202.75158236458333,44.0,41.0
878,202.77449903125,202.86199903124998,49.0,80.0
879,202.77449903125,202.89116569791668,61.0,72.0
880,203.10783236458332,203.23908236458334,49.0,50.0
881,203.27449903125,203.58491569791664,49.0,74.0
882,203.27449903125,203.62658236458333,56.0,74.0
883,203.77449903125,204.09741569791663,49.0,87.0
884,203.94116569791663,204.16199903125,56.0,80.0
885,204.10783236458332,204.24324903125,61.0,72.0
886,203.27449903125,204.46824903124997,37.0,93.0
887,203.60783236458332,204.48699903124998,44.0,56.0
888,204.27449903125,204.60991569791668,49.0,93.0
889,204.60783236458332,204.64949903125,37.0,68.0
890,204.60783236458332,204.7453323645833,44.0,87.0
891,204.27449903125,204.75991569791665,61.0,72.0
892,204.94116569791663,205.02241569791664,49.0,95.0
893,205.27449903125,205.58491569791664,57.0,68.0
894,205.27449903125,205.59533236458333,61.0,85.0
895,205.27449903125,205.59741569791663,54.0,70.0
896,205.77449903125,205.85574903125,54.0,95.0
897,205.77449903125,205.87658236458333,61.0,102.0
898,205.27449903125,206.19324903125,42.0,102.0
899,206.10783236458332,206.20783236458334,54.0,74.0
900,205.60783236458332,206.24116569791664,49.0,54.0
901,206.27449903125,206.57658236458332,54.0,83.0
902,206.27449903125,206.62866569791663,61.0,93.0
903,206.77449903125,207.09533236458333,54.0,72.0
904,206.94116569791663,207.13283236458335,57.0,72.0
905,206.27449903125,207.13699903125,42.0,87.0
906,207.10783236458332,207.21616569791667,61.0,90.0
907,206.60783236458332,207.23491569791668,49.0,53.0
908,207.27449903125,207.59533236458333,54.0,102.0
909,207.27449903125,207.60574903125,61.0,74.0
910,207.94116569791663,208.09949903125,54.0,93.0
911,207.60783236458332,208.3703323645833,49.0,69.0
912,207.27449903125,208.43074903125,42.0,93.0
913,208.27449903125,208.58283236458334,54.0,103.0
914,208.27449903125,208.82449903125,61.0,67.0
915,208.60783236458332,208.86824903125,49.0,69.0
916,208.27449903125,208.93491569791667,66.0,69.0
917,208.94116569791663,209.13491569791665,54.0,102.0
918,209.77449903125,209.97241569791663,59.0,93.0
919,209.94116569791663,210.12866569791663,63.0,102.0
920,210.10783236458332,210.22241569791663,59.0,85.0
921,209.60783236458332,210.49324903125,54.0,80.0
922,210.27449903125,210.61824903125,59.0,102.0
923,210.27449903125,210.63699903125,66.0,110.0
924,210.60783236458332,211.00783236458335,54.0,83.0
925,209.27449903125,211.14116569791668,47.0,87.0
926,210.94116569791663,211.15783236458333,59.0,85.0
927,211.27449903125,211.45158236458332,63.0,80.0
928,211.27449903125,211.47449903125,59.0,93.0
929,211.27449903125,211.50366569791663,66.0,68.0
930,211.27449903125,211.54533236458332,71.0,87.0
931,211.60783236458332,211.70574903124998,57.0,30.0
932,211.60783236458332,211.76199903125,59.0,61.0
933,211.94116569791663,212.04949903124998,63.0,66.0
934,211.94116569791663,212.07866569791668,66.0,61.0
935,211.94116569791663,212.08074903124998,59.0,87.0
936,211.60783236458332,212.40574903124997,54.0,41.0
937,212.27449903125,212.5890823645833,71.0,93.0
938,212.27449903125,212.59533236458333,59.0,95.0
939,212.27449903125,212.59741569791663,63.0,103.0
940,212.27449903125,212.63699903125,66.0,93.0
941,212.77449903125,213.06408236458333,59.0,102.0
942,212.94116569791663,213.12449903124997,63.0,93.0
943,213.10783236458332,213.19741569791665,66.0,102.0
944,212.60783236458332,213.27241569791664,54.0,85.0
945,211.27449903125,213.32658236458332,47.0,85.0
946,213.27449903125,213.63283236458335,52.0,87.0
947,213.27449903125,213.82449903125,59.0,87.0
948,213.77449903125,213.96199903125,56.0,64.0
949,213.94116569791663,214.17658236458334,52.0,90.0
950,213.60783236458332,214.51408236458332,47.0,69.0
951,214.27449903125,214.58491569791664,52.0,105.0
952,214.27449903125,214.64533236458334,59.0,102.0
953,214.94116569791663,215.07033236458335,56.0,80.0
954,214.60783236458332,215.07658236458332,47.0,69.0
955,213.27449903125,215.08491569791664,40.0,93.0
956,215.27449903125,215.54116569791665,64.0,93.0
957,215.27449903125,215.56824903125,52.0,87.0
958,215.77449903125,215.94949903125,59.0,83.0
959,215.94116569791663,216.07658236458332,56.0,87.0
960,216.10783236458332,216.20366569791668,52.0,90.0
961,215.60783236458332,216.44741569791665,47.0,63.0
962,215.27449903125,216.47241569791663,40.0,93.0
963,216.27449903125,216.63074903125,52.0,95.0
964,216.27449903125,216.6515823645833,59.0,87.0
965,216.60783236458332,216.79533236458332,47.0,80.0
966,216.77449903125,216.94116569791663,56.0,95.0
967,216.94116569791663,217.14324903124998,52.0,102.0
968,217.10783236458332,217.23491569791668,56.0,102.0
969,217.94116569791663,218.12449903124997,49.0,70.0
970,217.60783236458332,218.40574903124997,44.0,39.0
971,218.27449903125,218.41408236458335,56.0,67.0
972,217.27449903125,218.45158236458332,37.0,85.0
973,218.27449903125,218.56408236458333,49.0,90.0
974,218.60783236458332,218.75158236458333,44.0,41.0
975,218.77449903125,218.86199903124998,49.0,80.0
976,218.77449903125,218.89116569791668,61.0,72.0
977,219.10783236458332,219.23908236458334,49.0,50.0
978,219.27449903125,219.58491569791664,49.0,74.0
979,219.27449903125,219.62658236458333,56.0,74.0
980,219.77449903125,220.09741569791663,49.0,87.0
981,219.94116569791663,220.16199903125,56.0,80.0
982,220.10783236458332,220.24324903125,61.0,72.0
983,219.27449903125,220.46824903124997,37.0,93.0
984,219.60783236458332,220.48699903124998,44.0,56.0
985,220.27449903125,220.60991569791668,49.0,93.0
986,220.60783236458332,220.64949903125,37.0,68.0
987,220.60783236458332,220.7453323645833,44.0,87.0
988,220.27449903125,220.75991569791665,61.0,72.0
989,220.94116569791663,221.02241569791664,49.0,95.0
990,221.27449903125,221.58491569791664,57.0,68.0
991,221.27449903125,221.59533236458333,61.0,85.0
992,221.27449903125,221.59741569791663,54.0,70.0
993,221.77449903125,221.85574903125,54.0,95.0
994,221.77449903125,221.87658236458333,61.0,102.0
995,221.27449903125,222.19324903125,42.0,102.0
996,222.10783236458332,222.20783236458334,54.0,74.0
997,221.60783236458332,222.24116569791664,49.0,54.0
998,222.27449903125,222.57658236458332,54.0,83.0
999,222.27449903125,222.62866569791663,61.0,93.0
1000,222.77449903125,223.09533236458333,54.0,72.0
1001,222.94116569791663,223.13283236458335,57.0,72.0
1002,222.27449903125,223.13699903125,42.0,87.0
1003,223.10783236458332,223.21616569791667,61.0,90.0
1004,222.60783236458332,223.23491569791668,49.0,53.0
1005,223.27449903125,223.59533236458333,54.0,102.0
1006,223.27449903125,223.60574903125,61.0,74.0
1007,223.94116569791663,224.09949903125,54.0,93.0
1008,223.60783236458332,224.3703323645833,49.0,69.0
1009,223.27449903125,224.43074903125,42.0,93.0
1010,224.27449903125,224.58283236458334,54.0,103.0
1011,224.27449903125,224.82449903125,61.0,67.0
1012,224.60783236458332,224.86824903125,49.0,69.0
1013,224.27449903125,224.93491569791667,66.0,69.0
1014,224.94116569791663,225.13491569791665,54.0,102.0
1015,225.77449903125,225.97241569791663,59.0,93.0
1016,225.94116569791663,226.12866569791663,63.0,102.0
1017,226.10783236458332,226.22241569791663,59.0,85.0
1018,225.60783236458332,226.49324903125,54.0,80.0
1019,226.27449903125,226.61824903125,59.0,102.0
1020,226.27449903125,226.63699903125,66.0,110.0
1021,226.60783236458332,227.00783236458335,54.0,83.0
1022,225.27449903125,227.14116569791668,47.0,87.0
1023,226.94116569791663,227.15783236458333,59.0,85.0
1024,227.27449903125,227.45158236458332,63.0,80.0
1025,227.27449903125,227.47449903125,59.0,93.0
1026,227.27449903125,227.50366569791663,66.0,68.0
1027,227.27449903125,227.54533236458332,71.0,87.0
1028,227.60783236458332,227.70574903124998,57.0,30.0
1029,227.60783236458332,227.76199903125,59.0,61.0
1030,227.94116569791663,228.04949903124998,63.0,66.0
1031,227.94116569791663,228.07866569791668,66.0,61.0
1032,227.94116569791663,228.08074903124998,59.0,87.0
1033,227.60783236458332,228.40574903124997,54.0,41.0
1034,228.27449903125,228.5890823645833,71.0,93.0
1035,228.27449903125,228.59533236458333,59.0,95.0
1036,228.27449903125,228.59741569791663,63.0,103.0
1037,228.27449903125,228.63699903125,66.0,93.0
1038,228.77449903125,229.06408236458333,59.0,102.0
1039,228.94116569791663,229.12449903124997,63.0,93.0
1040,229.10783236458332,229.19741569791665,66.0,102.0
1041,228.60783236458332,229.27241569791664,54.0,85.0
1042,227.27449903125,229.32658236458332,47.0,85.0
1043,229.27449903125,229.63283236458335,52.0,87.0
1044,229.27449903125,229.82449903125,59.0,87.0
1045,229.77449903125,229.96199903125,56.0,64.0
1046,229.94116569791663,230.17658236458334,52.0,90.0
1047,229.60783236458332,230.51408236458332,47.0,69.0
1048,230.27449903125,230.58491569791664,52.0,105.0
1049,230.27449903125,230.64533236458334,59.0,102.0
1050,230.94116569791663,231.07033236458335,56.0,80.0
1051,230.60783236458332,231.07658236458332,47.0,69.0
1052,229.27449903125,231.08491569791664,40.0,93.0
1053,231.27449903125,231.54116569791665,64.0,93.0
1054,231.27449903125,231.56824903125,52.0,87.0
1055,231.77449903125,231.94949903125,59.0,83.0
1056,231.94116569791663,232.07658236458332,56.0,87.0
1057,232.10783236458332,232.20366569791668,52.0,90.0
1058,231.60783236458332,232.44741569791665,47.0,63.0
1059,231.27449903125,232.47241569791663,40.0,93.0
1060,232.27449903125,232.63074903125,52.0,95.0
1061,232.27449903125,232.6515823645833,59.0,87.0
1062,232.60783236458332,232.79533236458332,47.0,80.0
1063,232.77449903125,232.94116569791663,56.0,95.0
1064,232.94116569791663,233.14324903124998,52.0,102.0
1065,233.10783236458332,233.23491569791668,56.0,102.0
1066,233.94116569791663,234.12449903124997,49.0,70.0
1067,233.60783236458332,234.40574903124997,44.0,39.0
1068,234.27449903125,234.41408236458335,56.0,67.0
1069,233.27449903125,234.45158236458332,37.0,85.0
1070,234.27449903125,234.56408236458333,49.0,90.0
1071,234.60783236458332,234.75158236458333,44.0,41.0
1072,234.77449903125,234.86199903124998,49.0,80.0
1073,234.77449903125,234.89116569791668,61.0,72.0
1074,235.10783236458332,235.23908236458334,49.0,50.0
1075,235.27449903125,235.58491569791664,49.0,74.0
1076,235.27449903125,235.62658236458333,56.0,74.0
1077,235.77449903125,236.09741569791663,49.0,87.0
1078,235.94116569791663,236.16199903125,56.0,80.0
1079,236.10783236458332,236.24324903125,61.0,72.0
1080,235.27449903125,236.46824903124997,37.0,93.0
1081,235.60783236458332,236.48699903124998,44.0,56.0
1082,236.27449903125,236.60991569791668,49.0,93.0
1083,236.60783236458332,236.64949903125,37.0,68.0
1084,236.60783236458332,236.7453323645833,44.0,87.0
1085,236.27449903125,236.75991569791665,61.0,72.0
1086,236.94116569791663,237.02241569791664,49.0,95.0
1087,237.27449903125,237.58491569791664,57.0,68.0
1088,237.27449903125,237.59533236458333,61.0,85.0
1089,237.27449903125,237.59741569791663,54.0,70.0
1090,237.77449903125,237.85574903125,54.0,95.0
1091,237.77449903125,237.87658236458333,61.0,102.0
1092,237.27449903125,238.19324903125,42.0,102.0
1093,238.10783236458332,238.20783236458334,54.0,74.0
1094,237.60783236458332,238.24116569791664,49.0,54.0
1095,238.27449903125,238.57658236458332,54.0,83.0
1096,238.27449903125,238.62866569791663,61.0,93.0
1097,238.77449903125,239.09533236458333,54.0,72.0
1098,238.94116569791663,239.13283236458335,57.0,72.0
1099,238.27449903125,239.13699903125,42.0,87.0
1100,239.10783236458332,239.21616569791667,61.0,90.0
1101,238.60783236458332,239.23491569791668,49.0,53.0
1102,239.27449903125,239.59533236458333,54.0,102.0
1103,239.27449903125,239.60574903125,61.0,74.0
1104,239.94116569791663,240.09949903125,54.0,93.0
1105,239.60783236458332,240.3703323645833,49.0,69.0
1106,239.27449903125,240.43074903125,42.0,93.0
1107,240.27449903125,240.58283236458334,54.0,103.0
1108,240.27449903125,240.82449903125,61.0,67.0
1109,240.60783236458332,240.86824903125,49.0,69.0
1110,240.27449903125,240.93491569791667,66.0,69.0
1111,240.94116569791663,241.13491569791665,54.0,102.0
1112,241.77449903125,241.97241569791663,59.0,93.0
1113,241.94116569791663,242.12866569791663,63.0,102.0
1114,242.10783236458332,242.22241569791663,59.0,85.0
1115,241.60783236458332,242.49324903125,54.0,80.0
1116,242.27449903125,242.61824903125,59.0,102.0
1117,242.27449903125,242.63699903125,66.0,110.0
1118,242.60783236458332,243.00783236458335,54.0,83.0
1119,241.27449903125,243.14116569791668,47.0,87.0
1120,242.94116569791663,243.15783236458333,59.0,85.0
1121,243.27449903125,243.45158236458332,63.0,80.0
1122,243.27449903125,243.47449903125,59.0,93.0
1123,243.27449903125,243.50366569791663,66.0,68.0
1124,243.27449903125,243.54533236458332,71.0,87.0
1125,243.60783236458332,243.70574903124998,57.0,30.0
1126,243.60783236458332,243.76199903125,59.0,61.0
1127,243.94116569791663,244.04949903124998,63.0,66.0
1128,243.94116569791663,244.07866569791668,66.0,61.0
1129,243.94116569791663,244.08074903124998,59.0,87.0
1130,243.60783236458332,244.40574903124997,54.0,41.0
1131,244.27449903125,244.5890823645833,71.0,93.0
1132,244.27449903125,244.59533236458333,59.0,95.0
1133,244.27449903125,244.59741569791663,63.0,103.0
1134,244.27449903125,244.63699903125,66.0,93.0
1135,244.77449903125,245.06408236458333,59.0,102.0
1136,244.94116569791663,245.12449903124997,63.0,93.0
1137,245.10783236458332,245.19741569791665,66.0,102.0
1138,244.60783236458332,245.27241569791664,54.0,85.0
1139,243.27449903125,245.32658236458332,47.0,85.0
1140,245.27449903125,245.63283236458335,52.0,87.0
1141,245.27449903125,245.82449903125,59.0,87.0
1142,245.77449903125,245.96199903125,56.0,64.0
1143,245.94116569791663,246.17658236458334,52.0,90.0
1144,245.60783236458332,246.51408236458332,47.0,69.0
1145,246.27449903125,246.58491569791664,52.0,105.0
1146,246.27449903125,246.64533236458334,59.0,102.0
1147,246.94116569791663,247.07033236458335,56.0,80.0
1148,246.60783236458332,247.07658236458332,47.0,69.0
1149,245.27449903125,247.08491569791664,40.0,93.0
1150,247.27449903125,247.54116569791665,64.0,93.0
1151,247.27449903125,247.56824903125,52.0,87.0
1152,247.77449903125,247.94949903125,59.0,83.0
1153,247.94116569791663,248.07658236458332,56.0,87.0
1154,248.10783236458332,248.20366569791668,52.0,90.0
1155,247.60783236458332,248.44741569791665,47.0,63.0
1156,247.27449903125,248.47241569791663,40.0,93.0
1157,248.27449903125,248.63074903125,52.0,95.0
1158,248.27449903125,248.6515823645833,59.0,87.0
1159,248.60783236458332,248.79533236458332,47.0,80.0
1160,248.77449903125,248.94116569791663,56.0,95.0
1161,248.94116569791663,249.14324903124998,52.0,102.0
1162,249.10783236458332,249.23491569791668,56.0,102.0
1163,249.94116569791663,250.12449903124997,49.0,70.0
1164,249.60783236458332,250.40574903124997,44.0,39.0
1165,250.27449903125,250.41408236458335,56.0,67.0
1166,249.27449903125,250.45158236458332,37.0,85.0
1167,250.27449903125,250.56408236458333,49.0,90.0
1168,250.60783236458332,250.75158236458333,44.0,41.0
1169,250.77449903125,250.86199903124998,49.0,80.0
1170,250.77449903125,250.89116569791668,61.0,72.0
1171,251.10783236458332,251.23908236458334,49.0,50.0
1172,251.27449903125,251.58491569791664,49.0,74.0
1173,251.27449903125,251.62658236458333,56.0,74.0
1174,251.77449903125,252.09741569791663,49.0,87.0
1175,251.94116569791663,252.16199903125,56.0,80.0
1176,252.10783236458332,252.24324903125,61.0,72.0
1177,251.27449903125,252.46824903124997,37.0,93.0
1178,251.60783236458332,252.48699903124998,44.0,56.0
1179,252.27449903125,252.60991569791668,49.0,93.0
1180,252.60783236458332,252.64949903125,37.0,68.0
1181,252.60783236458332,252.7453323645833,44.0,87.0
1182,252.27449903125,252.75991569791665,61.0,72.0
1183,252.94116569791663,253.02241569791664,49.0,95.0
1184,253.27449903125,253.58491569791664,57.0,68.0
1185,253.27449903125,253.59533236458333,61.0,85.0
1186,253.27449903125,253.59741569791663,54.0,70.0
1187,253.77449903125,253.85574903125,54.0,95.0
1188,253.77449903125,253.87658236458333,61.0,102.0
1189,253.27449903125,254.19324903125,42.0,102.0
1190,254.10783236458332,254.20783236458334,54.0,74.0
1191,253.60783236458332,254.24116569791664,49.0,54.0
1192,254.27449903125,254.57658236458332,54.0,83.0
1193,254.27449903125,254.62866569791663,61.0,93.0
1194,254.77449903125,255.09533236458333,54.0,72.0
1195,254.94116569791663,255.13283236458335,57.0,72.0
1196,254.27449903125,255.13699903125,42.0,87.0
1197,255.10783236458332,255.21616569791667,61.0,90.0
1198,254.60783236458332,255.23491569791668,49.0,53.0
1199,255.27449903125,255.59533236458333,54.0,102.0
1200,255.27449903125,255.60574903125,61.0,74.0
1201,255.94116569791663,256.09949903125,54.0,93.0
1202,255.60783236458332,256.3703323645833,49.0,69.0
1203,255.27449903125,256.43074903125,42.0,93.0
1204,256.27449903125,256.58283236458334,54.0,103.0
1205,256.27449903125,256.82449903125,61.0,67.0
1206,256.6078323645833,256.86824903125,49.0,69.0
1207,256.27449903125,256.93491569791667,66.0,69.0
1208,256.94116569791663,257.13491569791665,54.0,102.0
1209,257.77449903125,257.97241569791663,59.0,93.0
1210,257.94116569791663,258.12866569791663,63.0,102.0
1211,258.1078323645833,258.22241569791663,59.0,85.0
1212,257.6078323645833,258.49324903125,54.0,80.0
1213,258.27449903125,258.61824903125,59.0,102.0
1214,258.27449903125,258.63699903125,66.0,110.0
1215,258.6078323645833,259.00783236458335,54.0,83.0
1216,257.27449903125,259.1411656979167,47.0,87.0
1217,258.94116569791663,259.1578323645833,59.0,85.0
1218,259.27449903125,259.4515823645833,63.0,80.0
1219,259.27449903125,259.47449903125,59.0,93.0
1220,259.27449903125,259.50366569791663,66.0,68.0
1221,259.27449903125,259.5453323645833,71.0,87.0
1222,259.6078323645833,259.70574903125,57.0,30.0
1223,259.6078323645833,259.76199903125,59.0,61.0
1224,259.94116569791663,260.04949903125,63.0,66.0
1225,259.94116569791663,260.0786656979167,66.0,61.0
1226,259.94116569791663,260.08074903125,59.0,87.0
1227,259.6078323645833,260.40574903124997,54.0,41.0
1228,260.27449903125,260.5890823645833,71.0,93.0
1229,260.27449903125,260.5953323645833,59.0,95.0
1230,260.27449903125,260.59741569791663,63.0,103.0
1231,260.27449903125,260.63699903125,66.0,93.0
1232,260.77449903125,261.0640823645833,59.0,102.0
1233,260.94116569791663,261.12449903124997,63.0,93.0
1234,261.1078323645833,261.19741569791665,66.0,102.0
1235,260.6078323645833,261.27241569791664,54.0,85.0
1236,259.27449903125,261.3265823645833,47.0,85.0
1237,261.27449903125,261.73699903125,59.0,88.0
1238,261.27449903125,262.20574903125,52.0,85.0
1239,261.94116569791663,262.2203323645833,56.0,86.0
1240,262.27449903125,262.78074903124997,59.0,90.0
1241,262.6078323645833,262.81616569791663,56.0,71.0
1242,262.94116569791663,263.43074903125,52.0,71.0
1243,263.6078323645833,264.0953323645833,59.0,81.0
1244,263.94116569791663,264.12241569791667,52.0,80.0
1245,264.27449903125,264.4015823645833,52.0,81.0
1246,264.27449903125,264.66199903125,56.0,91.0
1247,264.27449903125,264.7515823645833,59.0,91.0
1248,264.6078323645833,264.7828323645833,52.0,83.0
1249,261.27449903125,265.1203323645833,40.0,92.0
1250,261.6078323645833,265.1203323645833,47.0,76.0
1251,264.94116569791663,265.36199903125,56.0,82.0
1252,264.94116569791663,265.38699903125,59.0,73.0
1253,264.27449903125,265.4078323645833,64.0,85.0
1254,265.6078323645833,266.04949903125,52.0,82.0
1255,265.94116569791663,266.1099156979167,57.0,73.0
1256,266.27449903125,266.42658236458334,52.0,86.0
1257,266.27449903125,266.64949903125,57.0,82.0
1258,266.6078323645833,266.7765823645833,52.0,77.0
1259,266.27449903125,266.80991569791667,60.0,83.0
1260,266.94116569791663,267.0953323645833,57.0,78.0
1261,266.94116569791663,267.13491569791665,60.0,76.0
1262,267.6078323645833,267.71616569791667,60.0,72.0
1263,267.6078323645833,267.72658236458335,57.0,76.0
1264,267.94116569791663,268.08283236458334,57.0,68.0
1265,267.94116569791663,268.13283236458335,60.0,78.0
1266,268.27449903125,268.3765823645833,60.0,78.0
1267,268.27449903125,268.4515823645833,57.0,80.0
1268,268.27449903125,268.49324903125,52.0,91.0
1269,268.27449903125,268.66824903125,64.0,91.0
1270,268.6078323645833,269.12241569791667,60.0,84.0
1271,265.27449903125,269.15991569791663,40.0,87.0
1272,268.94116569791663,269.25783236458335,52.0,92.0
1273,269.79324903125,269.9849156979167,52.0,81.0
1274,270.1703323645833,270.34116569791667,56.0,82.0
1275,269.96824903124997,270.39949903125,59.0,86.0
1276,270.3599156979167,270.59949903125,64.0,88.0
1277,270.57033236458335,270.72449903125,59.0,80.0
1278,270.83699903125,271.04949903125,68.0,90.0
1279,271.14533236458334,271.3078323645833,64.0,75.0
1280,271.55158236458334,271.69533236458335,71.0,84.0
1281,271.55574903125,271.70574903125,64.0,78.0
1282,272.14324903125,272.22449903125,64.0,76.0
1283,272.17658236458334,272.23908236458334,68.0,82.0
1284,272.22658236458335,272.25991569791665,71.0,78.0
1285,272.25991569791665,272.34741569791663,76.0,89.0
1286,272.69116569791663,272.78491569791663,76.0,63.0
1287,272.72241569791663,272.84116569791667,80.0,71.0
1288,272.78699903125,272.91824903125,88.0,83.0
1289,269.5578323645833,273.25991569791665,47.0,76.0
1290,269.31824903125,273.30574903125,40.0,94.0
