,start,end,pitch,velocity
0,21.629687500000003,21.971875,61.0,112.0
1,22.004687500000003,23.8234375,60.0,97.0
2,23.879687500000003,24.121875000000003,56.0,97.0
3,24.254687500000003,24.4671875,58.0,100.0
4,24.629687500000003,24.8125,60.0,100.0
5,25.004687500000003,26.004687500000003,58.0,117.0
6,26.129687500000003,26.865625,56.0,93.0
7,27.067187500000003,27.485937500000002,56.0,89.0
8,27.629687500000003,28.0296875,61.0,95.0
9,28.004687500000003,29.067187500000003,60.0,95.0
10,29.879687500000003,30.153125000000003,56.0,95.0
11,30.254687500000003,30.453125,58.0,96.0
12,30.629687500000003,30.834375,60.0,90.0
13,31.004687500000003,32.053125,58.0,99.0
14,32.1296875,33.1296875,56.0,86.0
15,33.2546875,33.50625,63.0,102.0
16,33.6296875,34.0375,63.0,107.0
17,34.0046875,35.875,60.0,96.0
18,35.8796875,36.1390625,56.0,89.0
19,36.2546875,36.4671875,58.0,92.0
20,36.6296875,36.807812500000004,60.0,89.0
21,37.0046875,38.0046875,58.0,102.0
22,38.1296875,39.135937500000004,56.0,75.0
23,39.2546875,39.4921875,56.0,88.0
24,39.6296875,39.8671875,60.0,83.0
25,40.0046875,41.587500000000006,63.0,95.0
26,41.8796875,42.13125,63.0,89.0
27,42.2546875,42.515625,68.0,90.0
28,42.6296875,42.900000000000006,67.0,90.0
29,43.0046875,43.768750000000004,68.0,100.0
30,43.7546875,44.048437500000006,70.0,107.0
31,44.3171875,45.7015625,68.0,102.0
32,45.8171875,45.985937500000006,68.0,88.0
33,46.0046875,46.2015625,67.0,86.0
34,46.3796875,47.79375,68.0,99.0
35,47.8796875,48.071875000000006,65.0,90.0
36,48.2546875,48.421875,67.0,97.0
37,48.6296875,48.7546875,68.0,107.0
38,49.0046875,49.503125000000004,67.0,102.0
39,49.7546875,49.892187500000006,67.0,107.0
40,50.1296875,50.251562500000006,65.0,96.0
41,50.3171875,51.556250000000006,63.0,107.0
42,52.0046875,53.078125,65.0,100.0
43,53.5046875,54.0078125,63.0,107.0
44,54.2546875,55.025000000000006,61.0,97.0
45,55.0046875,57.21875,60.0,85.0
46,57.6296875,57.798437500000006,68.0,117.0
47,57.8171875,57.9890625,67.0,74.0
48,58.0046875,59.651562500000004,68.0,102.0
49,59.8796875,60.121875,65.0,88.0
50,60.2546875,60.48125,67.0,95.0
51,60.6296875,60.8265625,68.0,102.0
52,61.0046875,61.490625,67.0,100.0
53,61.5671875,61.8890625,67.0,102.0
54,62.1296875,62.415625000000006,70.0,107.0
55,62.5046875,63.2796875,63.0,102.0
56,63.6296875,63.868750000000006,63.0,122.0
57,64.0046875,64.2453125,65.0,112.0
58,64.3796875,64.5703125,68.0,127.0
59,64.7546875,64.9453125,68.0,127.0
60,65.1296875,65.36562500000001,65.0,96.0
61,65.5046875,65.87343750000001,68.0,112.0
62,65.8796875,66.3140625,65.0,102.0
63,66.6296875,66.8921875,68.0,122.0
64,67.0046875,68.621875,70.0,127.0
65,68.8796875,69.184375,63.0,107.0
66,69.2546875,69.5046875,68.0,127.0
67,69.6296875,69.8671875,70.0,127.0
68,70.0046875,70.6046875,73.0,122.0
69,70.7546875,71.18593750000001,72.0,127.0
70,71.5046875,71.76875,72.0,122.0
71,71.8796875,72.10000000000001,70.0,112.0
72,72.2546875,72.47500000000001,70.0,127.0
73,72.6296875,72.809375,68.0,122.0
74,73.0046875,73.50625000000001,70.0,127.0
75,73.7546875,74.1265625,72.0,102.0
76,74.5046875,74.765625,70.0,117.0
77,74.8796875,75.07656250000001,68.0,102.0
78,75.2546875,75.49843750000001,68.0,117.0
79,75.6296875,75.8203125,67.0,100.0
80,76.0046875,76.278125,68.0,122.0
81,76.3796875,76.5859375,68.0,127.0
82,76.7546875,76.965625,68.0,122.0
83,77.1296875,77.35625,67.0,107.0
84,77.5046875,77.746875,65.0,107.0
85,78.2546875,78.77187500000001,67.0,102.0
86,79.0046875,80.5859375,63.0,100.0
87,81.6296875,81.87031250000001,63.0,122.0
88,82.0046875,82.25,65.0,97.0
89,82.3796875,82.575,68.0,112.0
90,82.7546875,83.02656250000001,68.0,127.0
91,83.1296875,83.809375,65.0,117.0
92,83.8796875,84.57343750000001,68.0,122.0
93,85.0046875,85.2515625,63.0,117.0
94,85.3796875,85.571875,68.0,117.0
95,85.7546875,85.9578125,68.0,117.0
96,86.1296875,86.671875,70.0,127.0
97,86.8796875,87.4140625,68.0,127.0
98,87.6296875,87.7359375,68.0,122.0
99,87.8171875,87.9546875,70.0,117.0
100,88.0046875,88.27968750000001,72.0,107.0
101,88.3796875,88.56562500000001,70.0,127.0
102,88.7546875,88.9921875,70.0,127.0
103,89.1296875,89.3671875,68.0,107.0
104,89.5046875,89.74531250000001,68.0,127.0
105,89.8796875,90.3046875,65.0,100.0
106,90.6296875,91.15,72.0,112.0
107,91.3796875,91.62031250000001,70.0,127.0
108,91.7546875,91.93281250000001,70.0,127.0
109,92.1296875,92.3375,68.0,112.0
110,92.5046875,92.99375,70.0,127.0
111,92.8796875,93.17812500000001,63.0,112.0
112,93.2546875,93.5171875,68.0,122.0
113,93.6296875,93.8828125,70.0,127.0
114,94.0046875,94.51406250000001,73.0,127.0
115,94.7546875,94.99531250000001,72.0,122.0
116,95.5046875,95.77968750000001,72.0,107.0
117,95.8796875,96.1015625,70.0,122.0
118,96.2546875,96.509375,70.0,127.0
119,96.6296875,96.8875,68.0,122.0
120,97.0046875,97.540625,70.0,117.0
121,97.7546875,98.21875,70.0,127.0
122,98.5046875,98.7546875,70.0,127.0
123,98.8796875,99.0875,68.0,127.0
124,99.2546875,99.48750000000001,68.0,122.0
125,99.6296875,99.85625,67.0,102.0
126,100.0046875,100.3375,68.0,127.0
127,100.3796875,100.55312500000001,68.0,127.0
128,100.7546875,100.9703125,68.0,122.0
129,101.1296875,101.375,67.0,122.0
130,101.5046875,101.8921875,65.0,112.0
131,102.2546875,102.80781250000001,67.0,112.0
132,103.0046875,104.46406250000001,63.0,117.0
133,105.6296875,105.8359375,63.0,127.0
134,106.0046875,106.2390625,65.0,102.0
135,106.3796875,106.58437500000001,68.0,127.0
136,106.7546875,106.93125,68.0,127.0
137,107.1296875,107.6875,65.0,112.0
138,107.8796875,108.265625,68.0,127.0
139,109.0046875,109.19843750000001,63.0,127.0
140,109.3796875,109.52656250000001,68.0,127.0
141,109.7546875,109.92500000000001,68.0,127.0
142,110.1296875,110.684375,70.0,127.0
143,110.8796875,111.296875,68.0,127.0
144,111.6296875,111.78437500000001,68.0,112.0
145,111.8171875,111.93281250000001,70.0,107.0
146,112.0046875,112.28125,72.0,122.0
147,112.3796875,112.57656250000001,70.0,127.0
148,112.7546875,113.04218750000001,70.0,127.0
149,113.1296875,113.35000000000001,68.0,122.0
150,113.5046875,113.8875,73.0,127.0
151,114.0671875,114.49375,72.0,127.0
152,114.6296875,114.984375,70.0,127.0
153,115.0046875,117.60781250000001,68.0,127.0
154,132.62968750000002,132.79375000000002,68.0,127.0
155,132.81718750000002,132.96875,67.0,96.0
156,133.00468750000002,134.41875000000002,68.0,99.0
157,134.87968750000002,135.071875,65.0,90.0
158,135.25468750000002,135.421875,67.0,97.0
159,135.62968750000002,135.75468750000002,68.0,107.0
160,136.00468750000002,136.503125,67.0,102.0
161,136.75468750000002,136.8921875,67.0,107.0
162,137.12968750000002,137.2515625,65.0,96.0
163,137.31718750000002,138.55625,63.0,107.0
164,139.00468750000002,140.078125,65.0,100.0
165,140.50468750000002,141.0078125,63.0,107.0
166,141.25468750000002,142.025,61.0,97.0
167,142.00468750000002,144.21875,60.0,85.0
168,144.62968750000002,144.7984375,68.0,117.0
169,144.81718750000002,144.98906250000002,67.0,74.0
170,145.00468750000002,146.6515625,68.0,102.0
171,146.87968750000002,147.12187500000002,65.0,88.0
172,147.25468750000002,147.48125000000002,67.0,95.0
173,147.62968750000002,147.8265625,68.0,102.0
174,148.00468750000002,148.490625,67.0,100.0
175,148.56718750000002,148.8890625,67.0,102.0
176,149.12968750000002,149.415625,70.0,107.0
177,149.50468750000002,150.2796875,63.0,102.0
178,150.62968750000002,150.86875,63.0,122.0
179,151.00468750000002,151.2453125,65.0,112.0
180,151.37968750000002,151.5703125,68.0,127.0
181,151.75468750000002,151.9453125,68.0,127.0
182,152.12968750000002,152.365625,65.0,96.0
183,152.50468750000002,152.8734375,68.0,112.0
184,152.87968750000002,153.3140625,65.0,102.0
185,153.62968750000002,153.8921875,68.0,122.0
186,154.00468750000002,155.62187500000002,70.0,127.0
187,155.87968750000002,156.18437500000002,63.0,107.0
188,156.25468750000002,156.50468750000002,68.0,127.0
189,156.62968750000002,156.8671875,70.0,127.0
190,157.00468750000002,157.6046875,73.0,122.0
191,157.75468750000002,158.18593750000002,72.0,127.0
192,158.50468750000002,158.76875,72.0,122.0
193,158.87968750000002,159.10000000000002,70.0,112.0
194,159.25468750000002,159.47500000000002,70.0,127.0
195,159.62968750000002,159.80937500000002,68.0,122.0
196,160.00468750000002,160.50625000000002,70.0,127.0
197,160.75468750000002,161.1265625,72.0,102.0
198,161.50468750000002,161.765625,70.0,117.0
199,161.87968750000002,162.07656250000002,68.0,102.0
200,162.25468750000002,162.49843750000002,68.0,117.0
201,162.62968750000002,162.8203125,67.0,100.0
202,163.00468750000002,163.27812500000002,68.0,122.0
203,163.37968750000002,163.5859375,68.0,127.0
204,163.75468750000002,163.96562500000002,68.0,122.0
205,164.12968750000002,164.35625000000002,67.0,107.0
206,164.50468750000002,164.74687500000002,65.0,107.0
207,165.25468750000002,165.77187500000002,67.0,102.0
208,166.00468750000002,167.5859375,63.0,100.0
209,168.62968750000002,168.8703125,63.0,122.0
210,169.00468750000002,169.25,65.0,97.0
211,169.37968750000002,169.57500000000002,68.0,112.0
212,169.75468750000002,170.0265625,68.0,127.0
213,170.12968750000002,170.80937500000002,65.0,117.0
214,170.87968750000002,171.5734375,68.0,122.0
215,172.00468750000002,172.2515625,63.0,117.0
216,172.37968750000002,172.571875,68.0,117.0
217,172.75468750000002,172.95781250000002,68.0,117.0
218,173.12968750000002,173.671875,70.0,127.0
219,173.87968750000002,174.4140625,68.0,127.0
220,174.62968750000002,174.7359375,68.0,122.0
221,174.81718750000002,174.9546875,70.0,117.0
222,175.00468750000002,175.27968750000002,72.0,107.0
223,175.37968750000002,175.565625,70.0,127.0
224,175.75468750000002,175.9921875,70.0,127.0
225,176.12968750000002,176.3671875,68.0,107.0
226,176.50468750000002,176.7453125,68.0,127.0
227,176.87968750000002,177.3046875,65.0,100.0
228,177.62968750000002,178.15,72.0,112.0
229,178.37968750000002,178.6203125,70.0,127.0
230,178.75468750000002,178.9328125,70.0,127.0
231,179.12968750000002,179.3375,68.0,112.0
232,179.50468750000002,179.99375,70.0,127.0
233,179.87968750000002,180.17812500000002,63.0,112.0
234,180.25468750000002,180.5171875,68.0,122.0
235,180.62968750000002,180.8828125,70.0,127.0
236,181.00468750000002,181.51406250000002,73.0,127.0
237,181.75468750000002,181.9953125,72.0,122.0
238,182.50468750000002,182.77968750000002,72.0,107.0
239,182.87968750000002,183.1015625,70.0,122.0
240,183.25468750000002,183.509375,70.0,127.0
241,183.62968750000002,183.88750000000002,68.0,122.0
242,184.00468750000002,184.540625,70.0,117.0
243,184.75468750000002,185.21875,70.0,127.0
244,185.50468750000002,185.75468750000002,70.0,127.0
245,185.87968750000002,186.0875,68.0,127.0
246,186.25468750000002,186.4875,68.0,122.0
247,186.62968750000002,186.85625000000002,67.0,102.0
248,187.00468750000002,187.3375,68.0,127.0
249,187.37968750000002,187.55312500000002,68.0,127.0
250,187.75468750000002,187.9703125,68.0,122.0
251,188.12968750000002,188.375,67.0,122.0
252,188.50468750000002,188.8921875,65.0,112.0
253,189.25468750000002,189.8078125,67.0,112.0
254,190.00468750000002,191.4640625,63.0,117.0
255,192.62968750000002,192.8359375,63.0,127.0
256,193.00468750000002,193.23906250000002,65.0,102.0
257,193.37968750000002,193.58437500000002,68.0,127.0
258,193.75468750000002,193.93125,68.0,127.0
259,194.12968750000002,194.6875,65.0,112.0
260,194.87968750000002,195.265625,68.0,127.0
261,196.00468750000002,196.1984375,63.0,127.0
262,196.37968750000002,196.5265625,68.0,127.0
263,196.75468750000002,196.925,68.0,127.0
264,197.12968750000002,197.68437500000002,70.0,127.0
265,197.87968750000002,198.296875,68.0,127.0
266,198.62968750000002,198.784375,68.0,112.0
267,198.81718750000002,198.9328125,70.0,107.0
268,199.00468750000002,199.28125,72.0,122.0
269,199.37968750000002,199.57656250000002,70.0,127.0
270,199.75468750000002,200.0421875,70.0,127.0
271,200.12968750000002,200.35000000000002,68.0,122.0
272,200.50468750000002,200.88750000000002,73.0,127.0
273,201.06718750000002,201.49375,72.0,127.0
274,201.62968750000002,201.984375,70.0,127.0
275,202.00468750000002,203.50468750000002,68.0,127.0
276,203.87968750000002,204.17812500000002,63.0,112.0
277,204.25468750000002,204.5171875,68.0,122.0
278,204.62968750000002,204.8828125,70.0,127.0
279,205.00468750000002,205.51406250000002,73.0,127.0
280,205.75468750000002,205.9953125,72.0,122.0
281,206.50468750000002,206.77968750000002,72.0,107.0
282,206.87968750000002,207.1015625,70.0,122.0
283,207.25468750000002,207.509375,70.0,127.0
284,207.62968750000002,207.88750000000002,68.0,122.0
285,208.00468750000002,208.540625,70.0,117.0
286,208.75468750000002,209.21875,70.0,127.0
287,209.50468750000002,209.75468750000002,70.0,127.0
288,209.87968750000002,210.0875,68.0,127.0
289,210.25468750000002,210.4875,68.0,122.0
290,210.62968750000002,210.85625000000002,67.0,102.0
291,211.00468750000002,211.3375,68.0,127.0
292,211.37968750000002,211.55312500000002,68.0,127.0
293,211.75468750000002,211.9703125,68.0,122.0
294,212.12968750000002,212.375,67.0,122.0
295,212.50468750000002,212.8921875,65.0,112.0
296,213.25468750000002,213.8078125,67.0,112.0
297,214.00468750000002,215.4640625,63.0,117.0
298,216.62968750000002,216.8359375,63.0,127.0
299,217.00468750000002,217.23906250000002,65.0,102.0
300,217.37968750000002,217.58437500000002,68.0,127.0
301,217.75468750000002,217.93125,68.0,127.0
302,218.12968750000002,218.6875,65.0,112.0
303,218.87968750000002,219.265625,68.0,127.0
304,220.00468750000002,220.1984375,63.0,127.0
305,220.37968750000002,220.5265625,68.0,127.0
306,220.75468750000002,220.925,68.0,127.0
307,221.12968750000002,221.68437500000002,70.0,127.0
308,221.87968750000002,222.296875,68.0,127.0
309,222.62968750000002,222.784375,68.0,112.0
310,222.81718750000002,222.9328125,70.0,107.0
311,223.00468750000002,223.28125,72.0,122.0
312,223.37968750000002,223.57656250000002,70.0,127.0
313,223.75468750000002,224.0421875,70.0,127.0
314,224.12968750000002,224.35000000000002,68.0,122.0
315,224.50468750000002,224.88750000000002,73.0,127.0
316,225.06718750000002,225.49375,72.0,127.0
317,225.62968750000002,225.984375,70.0,127.0
318,226.00468750000002,227.50468750000002,68.0,127.0
319,229.00468750000002,231.42812500000002,72.0,117.0
320,231.62968750000002,231.88125000000002,72.0,127.0
321,232.00468750000002,232.4015625,72.0,99.0
322,232.37968750000002,234.6640625,70.0,96.0
323,235.00468750000002,235.34843750000002,72.0,99.0
324,235.37968750000002,235.665625,68.0,96.0
325,235.75468750000002,236.11562500000002,68.0,93.0
326,236.12968750000002,236.41875000000002,65.0,89.0
327,236.50468750000002,237.484375,65.0,83.0
328,237.69375000000002,239.5484375,67.0,70.0
329,240.25468750000002,247.61875,68.0,100.0
