,start,end,pitch,velocity
0,11.129687500000001,11.6046875,60.0,60.0
1,10.754687500000001,11.670312500000001,56.0,82.0
2,10.379687500000001,12.01875,51.0,68.0
3,11.879687500000001,12.0265625,56.0,61.0
4,10.004687500000001,12.0640625,44.0,69.0
5,11.504687500000001,12.3921875,63.0,69.0
6,12.629687500000001,12.8296875,37.0,32.0
7,12.254687500000001,13.154687500000001,60.0,77.0
8,12.629687500000001,13.1671875,63.0,58.0
9,11.504687500000001,13.201562500000001,68.0,95.0
10,13.754687500000001,14.9,49.0,55.0
11,14.879687500000001,14.9,49.0,60.0
12,14.129687500000001,14.975000000000001,52.0,70.0
13,13.004687500000001,15.2984375,37.0,74.0
14,13.379687500000001,15.315625,44.0,66.0
15,14.504687500000001,15.378125,56.0,75.0
16,15.254687500000001,15.879687500000001,52.0,76.0
17,14.504687500000001,15.9921875,61.0,60.0
18,15.629687500000001,16.003125,56.0,55.0
19,17.1296875,17.5625,60.0,50.0
20,16.7546875,17.63125,56.0,77.0
21,16.3796875,17.990625,51.0,76.0
22,17.8796875,18.048437500000002,56.0,69.0
23,16.0046875,18.110937500000002,44.0,63.0
24,17.5046875,18.45,63.0,83.0
25,18.2546875,19.05,60.0,75.0
26,17.5046875,19.0890625,68.0,90.0
27,18.6296875,19.0921875,63.0,62.0
28,18.8171875,21.040625000000002,37.0,82.0
29,19.379687500000003,21.126562500000002,44.0,63.0
30,19.754687500000003,21.1703125,49.0,54.0
31,20.129687500000003,21.8578125,52.0,42.0
32,20.504687500000003,21.89375,56.0,48.0
33,20.504687500000003,21.907812500000002,61.0,43.0
34,22.754687500000003,23.954687500000002,56.0,44.0
35,22.379687500000003,23.970312500000002,51.0,40.0
36,22.004687500000003,24.19375,44.0,72.0
37,24.254687500000003,25.056250000000002,63.0,55.0
38,23.504687500000003,25.098437500000003,68.0,54.0
39,23.129687500000003,25.1078125,60.0,42.0
40,24.817187500000003,27.1328125,37.0,64.0
41,26.129687500000003,27.137500000000003,61.0,45.0
42,25.379687500000003,27.3046875,44.0,35.0
43,26.129687500000003,27.4046875,56.0,50.0
44,25.754687500000003,27.5390625,49.0,36.0
45,26.129687500000003,27.834375,52.0,42.0
46,27.254687500000003,27.962500000000002,61.0,63.0
47,27.629687500000003,27.9765625,56.0,60.0
48,28.379687500000003,29.668750000000003,51.0,37.0
49,28.754687500000003,29.6796875,56.0,53.0
50,28.004687500000003,29.959375,44.0,70.0
51,29.504687500000003,31.4328125,63.0,63.0
52,29.129687500000003,31.439062500000002,60.0,42.0
53,29.504687500000003,31.446875000000002,68.0,50.0
54,32.1296875,33.0984375,61.0,48.0
55,32.1296875,33.2171875,56.0,64.0
56,31.379687500000003,33.315625000000004,44.0,36.0
57,31.004687500000003,33.3734375,37.0,59.0
58,31.754687500000003,33.5296875,49.0,52.0
59,32.1296875,33.6625,52.0,50.0
60,33.2546875,34.025,61.0,88.0
61,33.6296875,34.0390625,56.0,58.0
62,35.1296875,35.59375,60.0,58.0
63,34.7546875,35.690625000000004,56.0,76.0
64,35.8796875,36.059375,56.0,58.0
65,34.3796875,36.096875000000004,51.0,42.0
66,34.0046875,36.182812500000004,44.0,69.0
67,35.5046875,36.3875,63.0,85.0
68,36.2546875,37.065625000000004,60.0,72.0
69,36.6296875,37.0671875,63.0,48.0
70,35.5046875,37.134375,68.0,92.0
71,37.7546875,38.7109375,49.0,63.0
72,38.1296875,39.1,61.0,55.0
73,38.1296875,39.134375000000006,56.0,61.0
74,37.0046875,39.314062500000006,37.0,70.0
75,37.3796875,39.31875,44.0,39.0
76,38.8796875,39.5,49.0,41.0
77,38.1296875,39.6609375,52.0,41.0
78,39.2546875,40.053125,61.0,112.0
79,39.6296875,40.06875,56.0,59.0
80,41.1296875,41.620312500000004,60.0,67.0
81,40.7546875,41.69375,56.0,73.0
82,40.3796875,42.0609375,51.0,34.0
83,41.8796875,42.0921875,56.0,53.0
84,40.0046875,42.209375,44.0,72.0
85,41.5046875,42.3671875,63.0,65.0
86,42.2546875,43.040625000000006,60.0,79.0
87,42.6296875,43.048437500000006,63.0,46.0
88,41.5046875,43.0609375,68.0,69.0
89,43.3796875,45.1234375,44.0,36.0
90,43.7546875,45.1703125,49.0,45.0
91,43.0046875,45.209375,37.0,73.0
92,44.1296875,45.917187500000004,52.0,64.0
93,44.1296875,45.954687500000006,56.0,69.0
94,44.1296875,45.96875,61.0,65.0
95,46.5671875,47.548437500000006,53.0,95.0
96,47.8796875,48.1078125,53.0,78.0
97,46.0046875,48.2640625,41.0,86.0
98,46.3796875,48.2703125,48.0,60.0
99,47.1296875,48.35625,60.0,36.0
100,47.5046875,48.9671875,68.0,127.0
101,48.2546875,49.0359375,65.0,100.0
102,48.6296875,49.040625000000006,60.0,79.0
103,49.7546875,50.706250000000004,48.0,88.0
104,50.1296875,51.0296875,60.0,71.0
105,50.8796875,51.089062500000004,48.0,60.0
106,49.0046875,51.1328125,36.0,75.0
107,49.3796875,51.1875,43.0,63.0
108,51.2546875,51.965625,63.0,97.0
109,50.5046875,51.96875,67.0,102.0
110,51.6296875,51.9984375,60.0,86.0
111,52.0046875,53.234375,37.0,75.0
112,52.7546875,53.407812500000006,49.0,99.0
113,52.3796875,53.4265625,44.0,50.0
114,53.1296875,53.4296875,61.0,96.0
115,53.5046875,54.3203125,39.0,99.0
116,53.8796875,54.634375000000006,51.0,88.0
117,54.6296875,55.021875,70.0,93.0
118,54.2546875,55.0609375,63.0,99.0
119,55.7546875,56.746875,56.0,88.0
120,56.1296875,57.251562500000006,60.0,76.0
121,56.8796875,57.2859375,56.0,92.0
122,55.3796875,57.3265625,51.0,48.0
123,55.0046875,57.434375,44.0,86.0
124,56.5046875,58.0546875,68.0,122.0
125,57.6296875,58.0609375,60.0,76.0
126,57.2546875,58.06875,63.0,117.0
127,58.7546875,59.681250000000006,53.0,90.0
128,59.8796875,60.2171875,53.0,75.0
129,59.1296875,60.307812500000004,60.0,81.0
130,58.3796875,60.35625,48.0,59.0
131,58.0046875,60.423437500000006,41.0,76.0
132,59.5046875,60.9109375,68.0,107.0
133,60.2546875,60.9359375,65.0,77.0
134,60.6296875,61.071875000000006,60.0,81.0
135,61.7546875,62.7,48.0,89.0
136,62.1296875,62.775000000000006,55.0,72.0
137,61.0046875,63.2484375,36.0,72.0
138,62.8796875,63.267187500000006,48.0,86.0
139,61.3796875,63.282812500000006,43.0,62.0
140,62.5046875,63.292187500000004,63.0,122.0
141,63.2546875,63.728125000000006,60.0,100.0
142,63.6296875,64.0046875,63.0,107.0
143,65.1296875,65.6265625,53.0,82.0
144,64.7546875,65.653125,46.0,99.0
145,65.5046875,66.3390625,58.0,96.0
146,65.5046875,66.34375,61.0,99.0
147,64.0046875,66.4296875,34.0,89.0
148,64.3796875,66.4375,41.0,72.0
149,65.8796875,66.5953125,46.0,89.0
150,66.6296875,66.9921875,58.0,97.0
151,66.2546875,67.00625000000001,53.0,95.0
152,66.6296875,67.0171875,61.0,112.0
153,67.7546875,68.2375,51.0,96.0
154,67.3796875,68.24062500000001,46.0,66.0
155,67.0046875,68.340625,39.0,88.0
156,68.1296875,68.340625,55.0,102.0
157,68.5046875,68.5171875,54.0,36.0
158,68.5046875,69.0359375,56.0,63.0
159,68.5046875,69.121875,49.0,112.0
160,68.5046875,69.203125,53.0,99.0
161,68.5046875,69.26875,37.0,117.0
162,69.2546875,69.9296875,39.0,102.0
163,69.2546875,69.953125,51.0,92.0
164,69.2546875,69.953125,58.0,89.0
165,69.2546875,69.9625,55.0,83.0
166,70.7546875,71.6265625,56.0,112.0
167,71.1296875,71.9640625,60.0,88.0
168,71.8796875,72.3328125,56.0,73.0
169,72.4421875,72.590625,56.0,86.0
170,70.3796875,72.59218750000001,51.0,60.0
171,72.2546875,72.65625,63.0,127.0
172,70.0046875,72.6875,44.0,97.0
173,71.5046875,72.9328125,68.0,117.0
174,72.6296875,72.978125,60.0,97.0
175,72.8171875,72.99843750000001,63.0,88.0
176,73.3796875,73.81875000000001,55.0,69.0
177,73.7546875,74.2140625,60.0,93.0
178,73.0046875,74.759375,43.0,77.0
179,74.1296875,74.90625,55.0,79.0
180,74.8796875,75.74062500000001,43.0,63.0
181,74.5046875,75.91875,63.0,107.0
182,75.2546875,75.9453125,60.0,93.0
183,75.6296875,75.99062500000001,55.0,89.0
184,76.3796875,76.7,53.0,71.0
185,76.5671875,76.7375,56.0,65.0
186,76.1921875,76.8671875,48.0,71.0
187,76.7546875,78.0546875,60.0,96.0
188,77.1296875,78.11562500000001,56.0,79.0
189,77.5046875,78.35000000000001,53.0,85.0
190,75.8171875,78.6265625,41.0,74.0
191,77.8796875,78.73125,48.0,59.0
192,78.6296875,78.9609375,53.0,85.0
193,78.2546875,78.9765625,60.0,95.0
194,79.3796875,79.8015625,48.0,77.0
195,79.5671875,79.8828125,55.0,66.0
196,79.9421875,80.1265625,48.0,82.0
197,79.0046875,80.30625,36.0,66.0
198,80.1296875,80.4703125,60.0,88.0
199,79.7546875,80.484375,63.0,100.0
200,80.3171875,80.49062500000001,55.0,78.0
201,79.1921875,80.54531250000001,43.0,61.0
202,80.8796875,81.27187500000001,48.0,81.0
203,81.0671875,81.340625,60.0,83.0
204,80.5046875,81.496875,36.0,75.0
205,80.6921875,81.540625,43.0,58.0
206,81.4421875,81.5515625,48.0,89.0
207,81.6296875,81.98750000000001,63.0,107.0
208,81.2546875,81.99062500000001,67.0,112.0
209,81.8171875,82.02656250000001,60.0,93.0
210,82.3796875,82.8046875,49.0,89.0
211,82.5671875,82.82656250000001,53.0,74.0
212,82.7546875,83.2046875,56.0,112.0
213,82.0046875,83.3828125,37.0,72.0
214,82.1921875,83.4078125,44.0,31.0
215,83.1296875,83.46875,53.0,71.0
216,82.9421875,83.53125,49.0,93.0
217,83.3171875,83.5390625,61.0,100.0
218,84.0671875,84.15156250000001,65.0,70.0
219,84.0671875,84.17500000000001,61.0,66.0
220,84.0671875,84.1765625,68.0,65.0
221,83.8796875,84.31562500000001,49.0,78.0
222,84.2546875,84.34375,61.0,75.0
223,84.2546875,84.54531250000001,65.0,89.0
224,84.2546875,84.6015625,68.0,86.0
225,83.6921875,84.65,44.0,62.0
226,84.6296875,84.71718750000001,65.0,33.0
227,83.5046875,84.71875,37.0,77.0
228,84.4421875,84.75625000000001,49.0,99.0
229,84.6296875,84.94062500000001,61.0,107.0
230,84.8171875,84.98750000000001,65.0,76.0
231,84.8171875,85.01406250000001,68.0,99.0
232,85.5671875,85.70625000000001,56.0,93.0
233,85.3796875,85.77968750000001,48.0,74.0
234,85.7546875,86.196875,60.0,95.0
235,85.7546875,86.22500000000001,63.0,117.0
236,85.0046875,86.3765625,36.0,73.0
237,85.1921875,86.5078125,44.0,75.0
238,85.9421875,86.52187500000001,48.0,72.0
239,86.1296875,86.9703125,56.0,85.0
240,86.3171875,87.025,63.0,76.0
241,86.3171875,87.04375,60.0,63.0
242,87.0671875,87.22187500000001,56.0,86.0
243,86.8796875,87.29531250000001,48.0,79.0
244,86.5046875,87.4609375,36.0,69.0
245,86.6921875,87.525,44.0,73.0
246,87.4421875,87.53125,48.0,75.0
247,87.2546875,87.65468750000001,60.0,117.0
248,87.2546875,87.76875000000001,63.0,127.0
249,87.6296875,87.97968750000001,56.0,97.0
250,87.8171875,87.98125,60.0,66.0
251,87.8171875,88.0046875,63.0,58.0
252,88.3796875,88.809375,46.0,95.0
253,88.5671875,88.8359375,53.0,81.0
254,88.7546875,89.203125,61.0,107.0
255,88.7546875,89.22500000000001,58.0,73.0
256,88.0046875,89.3515625,34.0,81.0
257,88.1921875,89.46875,41.0,52.0
258,88.9421875,89.60000000000001,46.0,89.0
259,89.3171875,89.92031250000001,58.0,70.0
260,89.1296875,89.9234375,53.0,75.0
261,89.3171875,89.95625000000001,61.0,85.0
262,90.0671875,90.2,53.0,62.0
263,90.2546875,90.309375,53.0,59.0
264,89.8796875,90.3453125,46.0,85.0
265,89.6921875,90.48125,41.0,66.0
266,89.5046875,90.53437500000001,34.0,58.0
267,90.4421875,90.609375,46.0,96.0
268,90.2546875,90.7203125,58.0,112.0
269,90.6296875,90.9703125,53.0,85.0
270,90.8171875,90.996875,58.0,107.0
271,90.2546875,91.015625,61.0,107.0
272,90.2546875,91.03125,65.0,96.0
273,91.3796875,91.75,51.0,95.0
274,91.5671875,91.92031250000001,55.0,72.0
275,91.7546875,92.321875,63.0,117.0
276,92.1296875,92.36875,58.0,99.0
277,91.0046875,92.39687500000001,39.0,83.0
278,92.3171875,92.421875,55.0,93.0
279,91.1921875,92.4265625,46.0,71.0
280,91.9421875,92.74375,51.0,96.0
281,92.5046875,92.97187500000001,58.0,127.0
282,92.5046875,92.984375,55.0,83.0
283,92.5046875,93.00312500000001,63.0,112.0
284,92.8796875,93.30625,51.0,102.0
285,92.8796875,93.47500000000001,46.0,38.0
286,92.5046875,93.540625,39.0,100.0
287,93.4421875,93.609375,51.0,107.0
288,93.2546875,93.66250000000001,58.0,127.0
289,93.6296875,93.86250000000001,55.0,100.0
290,93.2546875,93.91875,63.0,127.0
291,93.8171875,93.9546875,58.0,127.0
292,94.7546875,95.5515625,56.0,122.0
293,95.1296875,95.95,60.0,93.0
294,95.8796875,96.2984375,56.0,89.0
295,94.3796875,96.5234375,51.0,39.0
296,94.0046875,96.54531250000001,44.0,100.0
297,96.4421875,96.578125,56.0,92.0
298,96.2546875,96.63906250000001,63.0,100.0
299,95.5046875,96.92031250000001,68.0,127.0
300,96.6296875,96.9734375,60.0,97.0
301,96.8171875,97.028125,63.0,89.0
302,97.3796875,98.02656250000001,48.0,73.0
303,98.1296875,98.70156250000001,60.0,81.0
304,97.7546875,98.94375000000001,55.0,97.0
305,97.0046875,99.309375,43.0,96.0
306,98.8796875,99.5875,48.0,89.0
307,99.6296875,99.91718750000001,43.0,99.0
308,98.5046875,100.00625000000001,63.0,127.0
309,99.2546875,100.0625,60.0,117.0
310,100.7546875,101.6421875,53.0,92.0
311,101.1296875,101.72968750000001,56.0,100.0
312,100.0046875,102.7265625,41.0,93.0
313,100.3796875,102.72968750000001,48.0,56.0
314,101.8796875,102.7390625,53.0,77.0
315,101.5046875,102.91875,65.0,73.0
316,102.2546875,102.92812500000001,60.0,77.0
317,102.6296875,102.9453125,56.0,95.0
318,103.3796875,103.778125,48.0,93.0
319,103.5671875,103.8125,55.0,78.0
320,103.9421875,104.12031250000001,48.0,90.0
321,103.7546875,104.1453125,60.0,100.0
322,103.0046875,104.34218750000001,36.0,69.0
323,104.1296875,104.446875,55.0,95.0
324,103.1921875,104.509375,43.0,69.0
325,103.7546875,104.509375,63.0,117.0
326,104.3171875,104.5125,60.0,86.0
327,104.8796875,105.2671875,48.0,85.0
328,105.0671875,105.353125,60.0,86.0
329,104.6921875,105.4734375,43.0,70.0
330,104.5046875,105.49062500000001,36.0,74.0
331,105.4421875,105.6921875,63.0,102.0
332,105.6296875,105.946875,60.0,90.0
333,105.2546875,106.04531250000001,67.0,112.0
334,105.8171875,106.07656250000001,63.0,82.0
335,106.5671875,106.8125,53.0,64.0
336,106.3796875,106.8171875,49.0,95.0
337,106.7546875,107.165625,56.0,107.0
338,106.0046875,107.4140625,37.0,71.0
339,106.1921875,107.5125,44.0,37.0
340,107.1296875,107.56875000000001,53.0,85.0
341,106.9421875,107.58125000000001,49.0,86.0
342,106.7546875,107.60468750000001,61.0,100.0
343,107.3171875,107.83906250000001,56.0,92.0
344,107.8796875,108.28125,49.0,86.0
345,108.0671875,108.36562500000001,53.0,77.0
346,107.6921875,108.65156250000001,44.0,37.0
347,107.5046875,108.8015625,37.0,78.0
348,108.4421875,108.8671875,49.0,97.0
349,108.6296875,108.97187500000001,56.0,99.0
350,108.2546875,108.978125,61.0,122.0
351,108.8171875,109.00625000000001,53.0,86.0
352,109.5671875,109.72187500000001,56.0,92.0
353,109.7546875,109.790625,56.0,38.0
354,109.3796875,109.7984375,48.0,78.0
355,109.7546875,110.1375,60.0,97.0
356,109.7546875,110.1640625,63.0,112.0
357,109.0046875,110.375,36.0,71.0
358,109.1921875,110.525,44.0,92.0
359,109.9421875,110.56093750000001,48.0,82.0
360,110.1296875,111.01406250000001,56.0,90.0
361,110.3171875,111.06562500000001,60.0,78.0
362,110.3171875,111.140625,63.0,102.0
363,111.0671875,111.19843750000001,56.0,69.0
364,110.8796875,111.3140625,48.0,77.0
365,111.2546875,111.671875,63.0,112.0
366,111.2546875,111.703125,60.0,112.0
367,111.4421875,111.90625,48.0,95.0
368,110.5046875,111.9265625,36.0,66.0
369,110.6921875,111.934375,44.0,73.0
370,111.6296875,112.01406250000001,56.0,93.0
371,111.8171875,112.040625,60.0,67.0
372,111.8171875,112.07656250000001,63.0,99.0
373,112.5671875,112.73750000000001,49.0,75.0
374,112.3796875,112.790625,46.0,95.0
375,112.1921875,112.97500000000001,41.0,53.0
376,112.7546875,113.075,53.0,85.0
377,112.0046875,113.0859375,34.0,76.0
378,113.1296875,113.36250000000001,49.0,107.0
379,112.9421875,113.384375,46.0,100.0
380,113.3171875,113.44843750000001,53.0,73.0
381,114.0671875,114.2828125,55.0,88.0
382,113.8796875,114.3484375,51.0,97.0
383,114.4421875,114.66718750000001,51.0,54.0
384,113.6921875,114.68125,46.0,35.0
385,113.5046875,114.7109375,39.0,92.0
386,114.6296875,114.9765625,55.0,90.0
387,114.2546875,114.9890625,58.0,102.0
388,114.2546875,115.01093750000001,63.0,112.0
389,115.3796875,115.72968750000001,56.0,96.0
390,115.5671875,115.875,60.0,68.0
391,115.7546875,116.13125000000001,63.0,102.0
392,115.1921875,116.18125,51.0,34.0
393,115.9421875,116.38906250000001,56.0,93.0
394,116.3171875,116.4234375,63.0,82.0
395,116.5046875,117.14375000000001,68.0,89.0
396,115.0046875,117.825,44.0,89.0
397,116.5046875,117.87812500000001,56.0,99.0
398,116.5046875,117.8953125,51.0,72.0
399,116.1296875,118.0046875,60.0,82.0
400,116.5046875,118.0046875,63.0,96.0
401,117.2546875,118.0046875,68.0,27.0
402,118.7546875,119.63593750000001,56.0,82.0
403,119.1296875,120.03437500000001,60.0,68.0
404,119.8796875,120.3296875,56.0,67.0
405,118.3796875,120.4109375,51.0,42.0
406,118.0046875,120.4859375,44.0,53.0
407,119.5046875,120.871875,68.0,99.0
408,120.6296875,121.1453125,60.0,63.0
409,120.2546875,121.184375,63.0,76.0
410,121.3796875,121.94843750000001,60.0,56.0
411,121.7546875,122.57343750000001,63.0,83.0
412,122.1296875,122.59375,60.0,45.0
413,121.0046875,123.09687500000001,43.0,65.0
414,122.8796875,123.30000000000001,60.0,44.0
415,122.5046875,124.11250000000001,67.0,90.0
416,123.2546875,124.13125000000001,63.0,68.0
417,123.6296875,124.17812500000001,60.0,64.0
418,124.7546875,125.66875,53.0,63.0
419,125.1296875,125.728125,56.0,56.0
420,124.0046875,126.0546875,41.0,58.0
421,125.8796875,126.059375,53.0,83.0
422,124.3796875,126.13906250000001,48.0,54.0
423,125.5046875,126.3046875,65.0,65.0
424,125.5046875,126.35468750000001,60.0,67.0
425,126.2546875,126.92500000000001,56.0,95.0
426,127.3796875,128.84375,54.0,66.0
427,127.0046875,129.3546875,42.0,102.0
428,128.12968750000002,129.51250000000002,66.0,26.0
429,127.0046875,129.646875,61.0,107.0
430,127.0046875,129.65625,58.0,122.0
431,129.81718750000002,130.6875,58.0,100.0
432,129.81718750000002,130.7125,39.0,63.0
433,129.81718750000002,130.84062500000002,51.0,71.0
434,129.81718750000002,130.896875,55.0,88.0
435,130.75468750000002,131.0796875,63.0,79.0
436,131.12968750000002,131.5390625,51.0,63.0
437,131.12968750000002,131.753125,58.0,100.0
438,131.12968750000002,131.803125,63.0,92.0
439,131.12968750000002,132.1703125,55.0,81.0
440,131.12968750000002,132.2015625,39.0,74.0
441,132.25468750000002,132.94218750000002,37.0,69.0
442,132.25468750000002,132.953125,61.0,100.0
443,132.25468750000002,132.959375,64.0,92.0
444,132.25468750000002,132.9671875,67.0,81.0
445,133.7640625,134.5484375,53.0,95.0
446,134.87968750000002,135.1078125,53.0,78.0
447,133.00468750000002,135.2640625,41.0,86.0
448,133.37968750000002,135.27031250000002,48.0,80.0
449,134.12968750000002,135.35625000000002,60.0,70.0
450,134.50468750000002,135.9671875,68.0,127.0
451,135.25468750000002,136.03593750000002,65.0,100.0
452,135.62968750000002,136.040625,60.0,79.0
453,136.75468750000002,137.70625,48.0,88.0
454,137.12968750000002,138.0296875,60.0,71.0
455,137.87968750000002,138.0890625,48.0,60.0
456,136.00468750000002,138.1328125,36.0,75.0
457,136.37968750000002,138.1875,43.0,63.0
458,138.25468750000002,138.96562500000002,63.0,97.0
459,137.50468750000002,138.96875,67.0,102.0
460,138.62968750000002,138.9984375,60.0,86.0
461,139.00468750000002,140.234375,37.0,75.0
462,139.75468750000002,140.4078125,49.0,99.0
463,139.37968750000002,140.42656250000002,44.0,50.0
464,140.12968750000002,140.4296875,61.0,96.0
465,140.50468750000002,141.3203125,39.0,99.0
466,140.87968750000002,141.634375,51.0,88.0
467,141.62968750000002,142.021875,70.0,93.0
468,141.25468750000002,142.0609375,63.0,99.0
469,142.75468750000002,143.74687500000002,56.0,88.0
470,143.12968750000002,144.2515625,60.0,76.0
471,143.87968750000002,144.28593750000002,56.0,92.0
472,142.37968750000002,144.3265625,51.0,48.0
473,142.00468750000002,144.43437500000002,44.0,86.0
474,143.50468750000002,145.0546875,68.0,122.0
475,144.62968750000002,145.0609375,60.0,76.0
476,144.25468750000002,145.06875,63.0,117.0
477,145.75468750000002,146.68125,53.0,90.0
478,146.87968750000002,147.2171875,53.0,75.0
479,146.12968750000002,147.3078125,60.0,81.0
480,145.37968750000002,147.35625000000002,48.0,59.0
481,145.00468750000002,147.4234375,41.0,76.0
482,146.50468750000002,147.91093750000002,68.0,107.0
483,147.25468750000002,147.9359375,65.0,77.0
484,147.62968750000002,148.071875,60.0,81.0
485,149.50468750000002,149.5484375,61.0,63.0
486,148.75468750000002,149.70000000000002,48.0,89.0
487,149.12968750000002,149.775,55.0,72.0
488,148.00468750000002,150.2484375,36.0,72.0
489,149.87968750000002,150.2671875,48.0,86.0
490,148.37968750000002,150.2828125,43.0,62.0
491,149.50468750000002,150.2921875,63.0,122.0
492,150.25468750000002,150.728125,60.0,100.0
493,150.62968750000002,151.00468750000002,63.0,107.0
494,152.12968750000002,152.6265625,53.0,82.0
495,151.75468750000002,152.65312500000002,46.0,99.0
496,152.50468750000002,153.3390625,58.0,96.0
497,152.50468750000002,153.34375,61.0,99.0
498,151.00468750000002,153.4296875,34.0,89.0
499,151.37968750000002,153.4375,41.0,72.0
500,152.87968750000002,153.5953125,46.0,89.0
501,153.62968750000002,153.9921875,58.0,97.0
502,153.25468750000002,154.00625000000002,53.0,95.0
503,153.62968750000002,154.0171875,61.0,112.0
504,154.75468750000002,155.2375,51.0,96.0
505,154.37968750000002,155.24062500000002,46.0,66.0
506,154.00468750000002,155.34062500000002,39.0,88.0
507,155.12968750000002,155.34062500000002,55.0,102.0
508,155.50468750000002,155.5171875,54.0,36.0
509,155.50468750000002,156.03593750000002,56.0,63.0
510,155.50468750000002,156.12187500000002,49.0,112.0
511,155.50468750000002,156.203125,53.0,99.0
512,155.50468750000002,156.26875,37.0,117.0
513,156.25468750000002,156.9296875,39.0,102.0
514,156.25468750000002,156.953125,51.0,92.0
515,156.25468750000002,156.953125,58.0,89.0
516,156.25468750000002,156.9625,55.0,83.0
517,157.37968750000002,157.79531250000002,56.0,92.0
518,157.56718750000002,157.90468750000002,60.0,71.0
519,157.00468750000002,158.36406250000002,44.0,82.0
520,157.19218750000002,158.40468750000002,51.0,41.0
521,157.94218750000002,158.57656250000002,56.0,100.0
522,158.12968750000002,158.72500000000002,63.0,96.0
523,158.31718750000002,158.909375,60.0,90.0
524,157.75468750000002,158.9390625,68.0,112.0
525,158.87968750000002,159.2734375,56.0,76.0
526,159.06718750000002,159.3390625,60.0,88.0
527,158.69218750000002,159.596875,51.0,63.0
528,159.44218750000002,159.625,56.0,85.0
529,158.50468750000002,159.7046875,44.0,72.0
530,159.81718750000002,160.07656250000002,60.0,93.0
531,159.62968750000002,160.08125,63.0,107.0
532,159.25468750000002,160.14687500000002,68.0,107.0
533,160.56718750000002,160.7421875,63.0,88.0
534,160.19218750000002,160.80937500000002,48.0,64.0
535,160.37968750000002,160.8515625,60.0,92.0
536,160.00468750000002,161.32656250000002,43.0,70.0
537,160.94218750000002,161.471875,48.0,55.0
538,161.31718750000002,161.7375,60.0,86.0
539,161.12968750000002,161.95625,63.0,97.0
540,160.75468750000002,161.97500000000002,68.0,117.0
541,161.87968750000002,162.33125,55.0,41.0
542,162.06718750000002,162.4859375,60.0,83.0
543,162.44218750000002,162.6109375,55.0,83.0
544,161.50468750000002,162.65312500000002,43.0,66.0
545,161.69218750000002,162.65625,48.0,46.0
546,162.62968750000002,162.9625,63.0,99.0
547,162.25468750000002,162.96718750000002,68.0,117.0
548,162.81718750000002,163.05156250000002,60.0,85.0
549,163.37968750000002,163.815625,53.0,86.0
550,163.56718750000002,163.84062500000002,60.0,73.0
551,163.94218750000002,164.1484375,53.0,72.0
552,163.00468750000002,164.39687500000002,41.0,65.0
553,163.19218750000002,164.5234375,48.0,53.0
554,164.12968750000002,164.6109375,60.0,75.0
555,163.75468750000002,164.675,68.0,102.0
556,164.31718750000002,164.80937500000002,65.0,68.0
557,164.87968750000002,165.1828125,53.0,75.0
558,164.69218750000002,165.35000000000002,48.0,67.0
559,165.06718750000002,165.43125,60.0,82.0
560,165.44218750000002,165.5625,48.0,72.0
561,164.50468750000002,165.5875,41.0,59.0
562,165.25468750000002,165.784375,68.0,117.0
563,165.62968750000002,165.89531250000002,65.0,83.0
564,165.81718750000002,166.05625,60.0,88.0
565,166.37968750000002,166.80156250000002,48.0,77.0
566,166.56718750000002,166.8828125,55.0,66.0
567,166.94218750000002,167.1265625,48.0,82.0
568,166.00468750000002,167.30625,36.0,66.0
569,167.12968750000002,167.4703125,60.0,88.0
570,166.75468750000002,167.484375,63.0,100.0
571,167.31718750000002,167.49062500000002,55.0,78.0
572,166.19218750000002,167.54531250000002,43.0,61.0
573,167.87968750000002,168.27187500000002,48.0,81.0
574,168.06718750000002,168.34062500000002,60.0,83.0
575,167.50468750000002,168.49687500000002,36.0,75.0
576,167.69218750000002,168.540625,43.0,58.0
577,168.44218750000002,168.55156250000002,48.0,89.0
578,168.62968750000002,168.9875,63.0,107.0
579,168.25468750000002,168.99062500000002,67.0,112.0
580,168.81718750000002,169.0265625,60.0,93.0
581,169.37968750000002,169.8046875,49.0,89.0
582,169.56718750000002,169.82656250000002,53.0,74.0
583,169.75468750000002,170.2046875,56.0,112.0
584,169.00468750000002,170.3828125,37.0,72.0
585,169.19218750000002,170.4078125,44.0,31.0
586,170.12968750000002,170.46875,53.0,71.0
587,169.94218750000002,170.53125,49.0,93.0
588,170.31718750000002,170.5390625,61.0,100.0
589,171.06718750000002,171.1515625,65.0,70.0
590,171.06718750000002,171.175,61.0,66.0
591,171.06718750000002,171.17656250000002,68.0,65.0
592,170.87968750000002,171.315625,49.0,78.0
593,171.25468750000002,171.34375,61.0,75.0
594,171.25468750000002,171.54531250000002,65.0,89.0
595,171.25468750000002,171.6015625,68.0,86.0
596,170.69218750000002,171.65,44.0,62.0
597,171.62968750000002,171.71718750000002,65.0,33.0
598,170.50468750000002,171.71875,37.0,77.0
599,171.44218750000002,171.75625000000002,49.0,99.0
600,171.62968750000002,171.940625,61.0,107.0
601,171.81718750000002,171.9875,65.0,76.0
602,171.81718750000002,172.01406250000002,68.0,99.0
603,172.56718750000002,172.70625,56.0,93.0
604,172.37968750000002,172.77968750000002,48.0,74.0
605,172.75468750000002,173.196875,60.0,95.0
606,172.75468750000002,173.22500000000002,63.0,117.0
607,172.00468750000002,173.3765625,36.0,73.0
608,172.19218750000002,173.5078125,44.0,75.0
609,172.94218750000002,173.52187500000002,48.0,72.0
610,173.12968750000002,173.9703125,56.0,85.0
611,173.31718750000002,174.025,63.0,76.0
612,173.31718750000002,174.04375000000002,60.0,63.0
613,174.06718750000002,174.221875,56.0,86.0
614,173.87968750000002,174.29531250000002,48.0,79.0
615,173.50468750000002,174.4609375,36.0,69.0
616,173.69218750000002,174.525,44.0,73.0
617,174.44218750000002,174.53125,48.0,75.0
618,174.25468750000002,174.65468750000002,60.0,117.0
619,174.25468750000002,174.76875,63.0,127.0
620,174.62968750000002,174.9796875,56.0,97.0
621,174.81718750000002,174.98125000000002,60.0,66.0
622,174.81718750000002,175.00468750000002,63.0,58.0
623,175.37968750000002,175.80937500000002,46.0,95.0
624,175.56718750000002,175.8359375,53.0,81.0
625,175.75468750000002,176.203125,61.0,107.0
626,175.75468750000002,176.22500000000002,58.0,73.0
627,175.00468750000002,176.3515625,34.0,81.0
628,175.19218750000002,176.46875,41.0,52.0
629,175.94218750000002,176.60000000000002,46.0,89.0
630,176.31718750000002,176.92031250000002,58.0,70.0
631,176.12968750000002,176.9234375,53.0,75.0
632,176.31718750000002,176.95625,61.0,85.0
633,177.06718750000002,177.20000000000002,53.0,62.0
634,177.25468750000002,177.30937500000002,53.0,59.0
635,176.87968750000002,177.3453125,46.0,85.0
636,176.69218750000002,177.48125000000002,41.0,66.0
637,176.50468750000002,177.534375,34.0,58.0
638,177.44218750000002,177.609375,46.0,96.0
639,177.25468750000002,177.7203125,58.0,112.0
640,177.62968750000002,177.9703125,53.0,85.0
641,177.81718750000002,177.99687500000002,58.0,107.0
642,177.25468750000002,178.015625,61.0,107.0
643,177.25468750000002,178.03125,65.0,96.0
644,178.37968750000002,178.75,51.0,95.0
645,178.56718750000002,178.92031250000002,55.0,72.0
646,178.75468750000002,179.321875,63.0,117.0
647,179.12968750000002,179.36875,58.0,99.0
648,178.00468750000002,179.39687500000002,39.0,83.0
649,179.31718750000002,179.421875,55.0,93.0
650,178.19218750000002,179.42656250000002,46.0,71.0
651,178.94218750000002,179.74375,51.0,96.0
652,179.50468750000002,179.971875,58.0,127.0
653,179.50468750000002,179.984375,55.0,83.0
654,179.50468750000002,180.003125,63.0,112.0
655,179.87968750000002,180.30625,51.0,102.0
656,179.87968750000002,180.47500000000002,46.0,38.0
657,179.50468750000002,180.540625,39.0,100.0
658,180.44218750000002,180.609375,51.0,107.0
659,180.25468750000002,180.66250000000002,58.0,127.0
660,180.62968750000002,180.8625,55.0,100.0
661,180.25468750000002,180.91875000000002,63.0,127.0
662,180.81718750000002,180.9546875,58.0,127.0
663,181.37968750000002,181.7765625,56.0,97.0
664,181.56718750000002,181.8234375,60.0,69.0
665,181.75468750000002,182.05,63.0,100.0
666,181.00468750000002,182.37343750000002,44.0,85.0
667,181.19218750000002,182.4296875,51.0,35.0
668,181.94218750000002,182.61875,56.0,100.0
669,182.12968750000002,182.95625,60.0,86.0
670,182.31718750000002,183.0109375,63.0,93.0
671,182.31718750000002,183.0859375,68.0,117.0
672,182.87968750000002,183.27968750000002,56.0,95.0
673,183.06718750000002,183.3375,60.0,89.0
674,182.69218750000002,183.5796875,51.0,34.0
675,183.44218750000002,183.59843750000002,56.0,99.0
676,182.50468750000002,183.6671875,44.0,81.0
677,183.25468750000002,184.003125,68.0,127.0
678,183.62968750000002,184.0390625,63.0,112.0
679,183.81718750000002,184.05937500000002,60.0,90.0
680,184.19218750000002,184.446875,60.0,92.0
681,184.37968750000002,184.64687500000002,63.0,112.0
682,184.56718750000002,184.8546875,60.0,93.0
683,184.00468750000002,185.4171875,43.0,72.0
684,184.94218750000002,185.52968750000002,55.0,79.0
685,185.31718750000002,185.7921875,60.0,93.0
686,185.12968750000002,185.86875,63.0,99.0
687,184.75468750000002,185.95781250000002,67.0,117.0
688,186.06718750000002,186.24843750000002,63.0,97.0
689,185.87968750000002,186.3,60.0,88.0
690,185.69218750000002,186.3125,55.0,67.0
691,186.44218750000002,186.5578125,55.0,92.0
692,185.50468750000002,186.571875,43.0,73.0
693,186.62968750000002,186.940625,63.0,102.0
694,186.25468750000002,186.96718750000002,67.0,99.0
695,186.81718750000002,187.025,60.0,85.0
696,187.37968750000002,187.8203125,53.0,85.0
697,187.56718750000002,187.95156250000002,60.0,90.0
698,187.94218750000002,188.134375,53.0,83.0
699,187.00468750000002,188.3703125,41.0,76.0
700,187.75468750000002,188.375,68.0,122.0
701,187.19218750000002,188.509375,48.0,49.0
702,188.12968750000002,188.628125,65.0,96.0
703,188.31718750000002,188.6953125,60.0,97.0
704,188.87968750000002,189.1515625,53.0,89.0
705,189.06718750000002,189.26250000000002,60.0,81.0
706,188.69218750000002,189.35000000000002,48.0,63.0
707,189.44218750000002,189.534375,48.0,58.0
708,188.50468750000002,189.546875,41.0,62.0
709,189.25468750000002,189.64531250000002,65.0,97.0
710,189.25468750000002,189.94218750000002,68.0,112.0
711,189.62968750000002,190.00625000000002,60.0,100.0
712,189.81718750000002,190.015625,65.0,89.0
713,190.37968750000002,190.77812500000002,48.0,93.0
714,190.56718750000002,190.8125,55.0,78.0
715,190.94218750000002,191.1203125,48.0,90.0
716,190.75468750000002,191.14531250000002,60.0,100.0
717,190.00468750000002,191.34218750000002,36.0,69.0
718,191.12968750000002,191.446875,55.0,95.0
719,190.19218750000002,191.509375,43.0,69.0
720,190.75468750000002,191.509375,63.0,117.0
721,191.31718750000002,191.51250000000002,60.0,86.0
722,191.87968750000002,192.2671875,48.0,85.0
723,192.06718750000002,192.353125,60.0,86.0
724,191.69218750000002,192.47343750000002,43.0,70.0
725,191.50468750000002,192.49062500000002,36.0,74.0
726,192.44218750000002,192.69218750000002,63.0,102.0
727,192.62968750000002,192.946875,60.0,90.0
728,192.25468750000002,193.04531250000002,67.0,112.0
729,192.81718750000002,193.07656250000002,63.0,82.0
730,193.56718750000002,193.8125,53.0,64.0
731,193.37968750000002,193.81718750000002,49.0,95.0
732,193.75468750000002,194.165625,56.0,107.0
733,193.00468750000002,194.4140625,37.0,71.0
734,193.19218750000002,194.51250000000002,44.0,37.0
735,194.12968750000002,194.56875000000002,53.0,85.0
736,193.94218750000002,194.58125,49.0,86.0
737,193.75468750000002,194.6046875,61.0,100.0
738,194.31718750000002,194.8390625,56.0,92.0
739,194.87968750000002,195.28125,49.0,86.0
740,195.06718750000002,195.36562500000002,53.0,77.0
741,194.69218750000002,195.6515625,44.0,37.0
742,194.50468750000002,195.80156250000002,37.0,78.0
743,195.44218750000002,195.8671875,49.0,97.0
744,195.62968750000002,195.971875,56.0,99.0
745,195.25468750000002,195.978125,61.0,122.0
746,195.81718750000002,196.00625000000002,53.0,86.0
747,196.56718750000002,196.721875,56.0,92.0
748,196.75468750000002,196.790625,56.0,38.0
749,196.37968750000002,196.7984375,48.0,78.0
750,196.75468750000002,197.13750000000002,60.0,97.0
751,196.75468750000002,197.1640625,63.0,112.0
752,196.00468750000002,197.375,36.0,71.0
753,196.19218750000002,197.525,44.0,92.0
754,196.94218750000002,197.56093750000002,48.0,82.0
755,197.12968750000002,198.01406250000002,56.0,90.0
756,197.31718750000002,198.065625,60.0,78.0
757,197.31718750000002,198.140625,63.0,102.0
758,198.06718750000002,198.1984375,56.0,69.0
759,197.87968750000002,198.3140625,48.0,77.0
760,198.25468750000002,198.671875,63.0,112.0
761,198.25468750000002,198.703125,60.0,112.0
762,198.44218750000002,198.90625,48.0,95.0
763,197.50468750000002,198.92656250000002,36.0,66.0
764,197.69218750000002,198.93437500000002,44.0,73.0
765,198.62968750000002,199.01406250000002,56.0,93.0
766,198.81718750000002,199.040625,60.0,67.0
767,198.81718750000002,199.07656250000002,63.0,99.0
768,199.56718750000002,199.7375,49.0,75.0
769,199.37968750000002,199.790625,46.0,95.0
770,199.19218750000002,199.97500000000002,41.0,53.0
771,199.75468750000002,200.07500000000002,53.0,85.0
772,199.00468750000002,200.0859375,34.0,76.0
773,200.12968750000002,200.3625,49.0,107.0
774,199.94218750000002,200.384375,46.0,100.0
775,200.31718750000002,200.4484375,53.0,73.0
776,201.06718750000002,201.2828125,55.0,88.0
777,200.87968750000002,201.34843750000002,51.0,97.0
778,201.44218750000002,201.6671875,51.0,54.0
779,200.69218750000002,201.68125,46.0,35.0
780,200.50468750000002,201.7109375,39.0,92.0
781,201.62968750000002,201.9765625,55.0,90.0
782,201.25468750000002,201.98906250000002,58.0,102.0
783,201.25468750000002,202.0109375,63.0,112.0
784,202.37968750000002,202.7296875,56.0,96.0
785,202.56718750000002,202.875,60.0,68.0
786,202.75468750000002,203.13125000000002,63.0,102.0
787,202.19218750000002,203.18125,51.0,34.0
788,202.94218750000002,203.38906250000002,56.0,93.0
789,203.31718750000002,203.4234375,63.0,82.0
790,203.50468750000002,204.14375,68.0,89.0
791,202.00468750000002,204.82500000000002,44.0,89.0
792,203.50468750000002,204.878125,56.0,99.0
793,203.50468750000002,204.89531250000002,51.0,72.0
794,203.12968750000002,205.00468750000002,60.0,82.0
795,203.50468750000002,205.00468750000002,63.0,96.0
796,204.25468750000002,205.00468750000002,68.0,27.0
797,205.753125,206.571875,56.0,86.0
798,206.7828125,207.103125,56.0,52.0
799,206.1125,207.23281250000002,60.0,68.0
800,205.0328125,207.3984375,44.0,72.0
801,205.36875,207.84218750000002,51.0,68.0
802,206.5328125,208.0234375,68.0,107.0
803,207.5328125,208.12968750000002,60.0,48.0
804,207.1578125,208.4640625,63.0,67.0
805,208.2828125,208.853125,60.0,50.0
806,208.7046875,209.52968750000002,63.0,82.0
807,207.9078125,210.29531250000002,43.0,67.0
808,209.1578125,210.390625,60.0,47.0
809,209.5328125,210.775,67.0,85.0
810,210.2828125,210.9390625,63.0,85.0
811,210.5328125,210.94218750000002,60.0,55.0
812,212.1578125,212.67812500000002,65.0,62.0
813,211.71875,212.93125,53.0,61.0
814,211.2828125,212.99062500000002,48.0,55.0
815,210.9078125,213.1171875,41.0,63.0
816,213.2828125,213.546875,68.0,69.0
817,212.9078125,214.0328125,65.0,57.0
818,213.6578125,214.0328125,68.0,58.0
819,212.5328125,214.0328125,77.0,93.0
820,214.75468750000002,215.384375,48.0,88.0
821,214.00468750000002,215.38906250000002,36.0,93.0
822,214.37968750000002,215.415625,43.0,58.0
823,215.12968750000002,215.425,60.0,58.0
824,215.12968750000002,215.43437500000002,63.0,57.0
825,215.12968750000002,215.43437500000002,67.0,48.0
826,215.50468750000002,215.796875,48.0,100.0
827,215.50468750000002,215.8,67.0,100.0
828,215.50468750000002,215.80156250000002,60.0,100.0
829,215.50468750000002,215.80156250000002,63.0,127.0
830,215.50468750000002,215.80312500000002,36.0,67.0
831,215.50468750000002,215.83437500000002,43.0,72.0
832,215.87968750000002,216.1359375,36.0,68.0
833,215.87968750000002,216.14687500000002,67.0,107.0
834,215.87968750000002,216.1484375,63.0,127.0
835,215.87968750000002,216.1515625,60.0,117.0
836,215.87968750000002,216.16093750000002,48.0,122.0
837,215.87968750000002,216.1828125,43.0,69.0
838,216.25468750000002,216.49375,63.0,127.0
839,216.25468750000002,216.49687500000002,60.0,122.0
840,216.25468750000002,216.50625000000002,67.0,122.0
841,216.62968750000002,216.91093750000002,63.0,127.0
842,216.62968750000002,216.9484375,67.0,107.0
843,216.62968750000002,216.971875,60.0,112.0
844,217.37968750000002,217.76406250000002,49.0,92.0
845,217.56718750000002,217.85781250000002,61.0,90.0
846,216.96562500000002,218.25468750000002,37.0,95.0
847,217.75468750000002,218.284375,68.0,122.0
848,217.20781250000002,218.36562500000002,44.0,69.0
849,218.31718750000002,218.4484375,68.0,27.0
850,217.94218750000002,218.6046875,49.0,96.0
851,218.31718750000002,218.984375,61.0,93.0
852,218.12968750000002,219.0953125,65.0,61.0
853,218.87968750000002,219.321875,49.0,92.0
854,219.06718750000002,219.32656250000002,61.0,97.0
855,218.69218750000002,219.525,44.0,53.0
856,219.25468750000002,219.55,65.0,93.0
857,218.50468750000002,219.565625,37.0,83.0
858,219.25468750000002,219.5734375,68.0,122.0
859,219.44218750000002,219.63906250000002,49.0,102.0
860,219.81718750000002,219.91875000000002,65.0,69.0
861,219.81718750000002,219.946875,68.0,100.0
862,219.62968750000002,219.984375,61.0,117.0
863,220.19218750000002,220.42812500000002,56.0,100.0
864,220.56718750000002,220.6953125,63.0,27.0
865,220.56718750000002,220.81875000000002,56.0,97.0
866,220.37968750000002,220.96875,60.0,72.0
867,220.75468750000002,221.05937500000002,68.0,100.0
868,220.75468750000002,221.06093750000002,63.0,64.0
869,220.00468750000002,221.421875,48.0,102.0
870,220.94218750000002,221.5625,56.0,83.0
871,221.31718750000002,221.7453125,68.0,92.0
872,221.12968750000002,221.74843750000002,60.0,69.0
873,221.12968750000002,221.80937500000002,63.0,34.0
874,221.69218750000002,221.95625,56.0,90.0
875,222.06718750000002,222.13750000000002,63.0,29.0
876,221.50468750000002,222.24687500000002,48.0,88.0
877,222.06718750000002,222.29531250000002,56.0,96.0
878,221.87968750000002,222.30937500000002,60.0,69.0
879,222.25468750000002,222.4640625,68.0,107.0
880,222.44218750000002,222.70625,56.0,99.0
881,222.62968750000002,222.96875,68.0,100.0
882,222.81718750000002,223.0,56.0,112.0
883,222.25468750000002,223.00468750000002,63.0,35.0
884,223.56718750000002,223.68437500000002,58.0,90.0
885,223.37968750000002,223.77968750000002,46.0,96.0
886,223.19218750000002,223.9453125,41.0,66.0
887,223.00468750000002,223.96875,34.0,95.0
888,223.75468750000002,223.971875,58.0,81.0
889,223.75468750000002,224.05,61.0,117.0
890,223.75468750000002,224.18125,65.0,92.0
891,223.94218750000002,224.20156250000002,46.0,112.0
892,224.12968750000002,224.2265625,58.0,122.0
893,224.50468750000002,225.07500000000002,67.0,100.0
894,224.50468750000002,225.10625000000002,70.0,100.0
895,224.50468750000002,225.11562500000002,63.0,117.0
896,224.50468750000002,225.3671875,51.0,83.0
897,225.25468750000002,225.4921875,63.0,112.0
898,224.50468750000002,225.5,39.0,100.0
899,225.44218750000002,225.5890625,51.0,85.0
900,225.25468750000002,225.6828125,67.0,127.0
901,225.62968750000002,225.9953125,63.0,122.0
902,225.25468750000002,226.05312500000002,70.0,122.0
903,226.37968750000002,226.790625,56.0,93.0
904,226.56718750000002,226.81875000000002,60.0,62.0
905,226.75468750000002,227.09843750000002,63.0,102.0
906,226.00468750000002,227.3984375,44.0,72.0
907,226.19218750000002,227.41250000000002,51.0,34.0
908,226.94218750000002,227.46875,56.0,89.0
909,227.50468750000002,229.009375,51.0,65.0
910,227.50468750000002,229.01875,56.0,65.0
911,229.00468750000002,229.01875,56.0,65.0
912,227.50468750000002,229.02968750000002,63.0,70.0
913,227.50468750000002,229.034375,44.0,64.0
914,227.12968750000002,229.05,60.0,77.0
915,227.50468750000002,229.05156250000002,68.0,75.0
916,229.75468750000002,230.6421875,63.0,78.0
917,230.12968750000002,230.728125,68.0,66.0
918,230.87968750000002,231.42031250000002,63.0,64.0
919,229.37968750000002,231.5546875,60.0,55.0
920,230.50468750000002,231.978125,75.0,83.0
921,231.62968750000002,231.98906250000002,68.0,43.0
922,231.25468750000002,232.875,72.0,67.0
923,233.12968750000002,233.6265625,72.0,60.0
924,232.75468750000002,233.6328125,67.0,58.0
925,233.50468750000002,233.93593750000002,63.0,55.0
926,232.00468750000002,234.2734375,55.0,61.0
927,232.37968750000002,234.315625,60.0,51.0
928,233.50468750000002,234.946875,75.0,97.0
929,233.87968750000002,234.9859375,72.0,61.0
930,234.25468750000002,235.00468750000002,67.0,38.0
931,235.3296875,235.753125,48.0,55.0
932,234.98281250000002,235.8296875,41.0,57.0
933,236.0953125,236.23125000000002,65.0,33.0
934,235.7109375,236.51250000000002,68.0,83.0
935,236.45625,237.36406250000002,37.0,73.0
936,237.34375,239.1578125,39.0,56.0
937,237.3296875,239.453125,67.0,63.0
938,237.321875,239.45781250000002,70.0,56.0
939,237.3078125,239.46875,63.0,42.0
940,239.8078125,239.88906250000002,32.0,93.0
941,239.73125000000002,240.509375,56.0,39.0
942,239.51875,240.76250000000002,63.0,58.0
943,239.62343750000002,240.9875,60.0,53.0
944,241.09843750000002,241.36562500000002,56.0,72.0
945,241.27812500000002,241.4640625,60.0,68.0
946,241.42656250000002,241.5171875,63.0,63.0
947,241.65,242.23906250000002,68.0,89.0
948,241.86875,242.27968750000002,72.0,65.0
949,242.1125,242.3140625,75.0,64.0
950,242.45625,243.07656250000002,80.0,74.0
951,242.721875,243.1046875,84.0,69.0
952,242.99062500000002,243.15625,87.0,60.0
953,240.51406250000002,244.4546875,44.0,62.0
954,240.7125,244.54531250000002,48.0,55.0
955,240.9140625,244.5484375,51.0,58.0
956,244.01875,244.56093750000002,99.0,82.0
957,243.65625,244.6421875,96.0,73.0
958,243.3359375,244.6890625,92.0,90.0
959,244.88125000000002,248.89687500000002,32.0,61.0
960,244.8921875,248.89687500000002,51.0,34.0
961,244.89375,248.909375,44.0,35.0
962,244.99062500000002,249.228125,92.0,82.0
963,244.92031250000002,249.234375,96.0,50.0
964,244.8203125,249.2453125,99.0,38.0
