,start,end,pitch,velocity
0,24.34375,24.864062500000003,76.0,104.0
1,25.09375,25.579687500000002,76.0,98.0
2,25.84375,26.360937500000002,74.0,87.0
3,26.59375,27.051562500000003,72.0,90.0
4,27.34375,28.192187500000003,74.0,100.0
5,28.46875,28.642187500000002,69.0,85.0
6,28.84375,29.971875,72.0,93.0
7,30.34375,30.7890625,76.0,108.0
8,31.09375,31.621875000000003,76.0,77.0
9,31.84375,32.35625,74.0,90.0
10,32.59375,33.059375,72.0,77.0
11,33.34375,33.475,74.0,87.0
12,33.71875,34.1109375,72.0,81.0
13,34.09375,34.321875,69.0,71.0
14,34.46875,34.69375,76.0,81.0
15,34.84375,36.0453125,74.0,93.0
16,36.34375,36.515625,69.0,93.0
17,36.71875,38.3125,72.0,70.0
18,38.59375,38.96875,72.0,98.0
19,38.96875,39.1859375,71.0,64.0
20,39.15625,39.3828125,69.0,65.0
21,39.34375,39.860937500000006,67.0,90.0
22,39.71875,39.860937500000006,67.0,63.0
23,40.09375,40.296875,67.0,64.0
24,40.46875,40.6875,77.0,67.0
25,40.84375,41.940625000000004,76.0,90.0
26,42.34375,42.646875,74.0,77.0
27,42.71875,42.8328125,72.0,60.0
28,43.09375,43.275000000000006,72.0,95.0
29,43.46875,43.8796875,69.0,72.0
30,43.84375,44.110937500000006,67.0,64.0
31,44.21875,44.415625000000006,69.0,81.0
32,44.59375,44.907812500000006,72.0,86.0
33,44.96875,45.359375,76.0,72.0
34,45.34375,45.734375,74.0,85.0
35,46.09375,46.50625,72.0,86.0
36,46.84375,47.896875,74.0,108.0
37,47.96875,48.331250000000004,72.0,65.0
38,48.34375,50.034375000000004,81.0,85.0
39,50.59375,51.001562500000006,72.0,72.0
40,50.96875,51.240625,81.0,72.0
41,51.34375,51.526562500000004,79.0,83.0
42,51.71875,51.9375,79.0,98.0
43,52.09375,52.370312500000004,76.0,79.0
44,52.46875,52.8265625,79.0,86.0
45,52.84375,53.7,72.0,81.0
46,53.96875,54.2,67.0,83.0
47,54.34375,54.609375,76.0,77.0
48,54.71875,55.421875,74.0,77.0
49,55.46875,55.8265625,72.0,72.0
50,55.84375,56.706250000000004,67.0,72.0
51,56.59375,56.9671875,74.0,79.0
52,56.96875,57.1328125,67.0,69.0
53,57.15625,57.44375,74.0,79.0
54,57.71875,59.365625,72.0,83.0
55,63.34375,63.712500000000006,76.0,74.0
56,63.71875,63.809375,79.0,87.0
57,63.90625,64.2453125,79.0,111.0
58,64.46875,64.6765625,76.0,74.0
59,64.84375,65.11562500000001,76.0,86.0
60,65.21875,65.29375,79.0,90.0
61,65.40625,65.75625000000001,79.0,100.0
62,65.96875,66.2515625,76.0,69.0
63,66.34375,66.7109375,76.0,75.0
64,66.71875,67.04375,84.0,73.0
65,67.09375,67.409375,76.0,72.0
66,67.46875,67.88906250000001,81.0,79.0
67,68.21875,69.0890625,79.0,98.0
68,69.34375,69.7421875,69.0,79.0
69,69.71875,69.8078125,72.0,74.0
70,69.90625,70.3359375,72.0,86.0
71,70.46875,70.7,69.0,69.0
72,70.84375,71.15,67.0,74.0
73,71.21875,71.2984375,79.0,81.0
74,71.40625,71.7828125,79.0,93.0
75,71.96875,72.28750000000001,76.0,71.0
76,72.34375,72.7546875,81.0,108.0
77,72.71875,73.0984375,79.0,86.0
78,73.09375,73.38906250000001,72.0,70.0
79,73.46875,73.715625,76.0,85.0
80,73.84375,75.13125000000001,74.0,87.0
81,75.34375,75.8828125,72.0,77.0
82,76.09375,76.640625,84.0,79.0
83,76.84375,77.35468750000001,83.0,108.0
84,77.59375,78.01875000000001,79.0,112.0
85,78.34375,78.6734375,81.0,87.0
86,78.71875,78.8359375,79.0,74.0
87,79.09375,79.509375,79.0,93.0
88,79.46875,79.74843750000001,72.0,65.0
89,79.84375,80.38593750000001,77.0,117.0
90,80.59375,81.1109375,76.0,112.0
91,81.34375,81.7046875,74.0,111.0
92,81.71875,81.80312500000001,72.0,61.0
93,81.90625,82.259375,72.0,76.0
94,82.46875,82.63125000000001,69.0,81.0
95,82.84375,83.0015625,67.0,85.0
96,83.21875,83.3125,79.0,76.0
97,83.40625,83.828125,79.0,108.0
98,83.96875,84.2078125,76.0,73.0
99,84.34375,84.5796875,81.0,93.0
100,84.71875,84.85468750000001,79.0,104.0
101,85.09375,85.35000000000001,79.0,114.0
102,85.46875,85.6421875,72.0,72.0
103,85.84375,87.07656250000001,74.0,95.0
104,87.34375,87.7125,76.0,74.0
105,87.71875,87.809375,79.0,87.0
106,87.90625,88.24531250000001,79.0,111.0
107,88.46875,88.6765625,76.0,74.0
108,88.84375,89.11562500000001,76.0,86.0
109,89.21875,89.29375,79.0,90.0
110,89.40625,89.75625000000001,79.0,100.0
111,89.96875,90.2515625,76.0,69.0
112,90.34375,90.7109375,76.0,75.0
113,90.71875,91.04375,84.0,73.0
114,91.46875,91.734375,76.0,74.0
115,91.84375,92.3484375,81.0,111.0
116,92.59375,93.0828125,79.0,104.0
117,93.34375,93.7421875,69.0,79.0
118,93.71875,93.80781250000001,72.0,74.0
119,93.90625,94.3359375,72.0,86.0
120,94.46875,94.7,69.0,69.0
121,94.84375,95.15,67.0,74.0
122,95.21875,95.2984375,79.0,81.0
123,95.40625,95.7828125,79.0,93.0
124,95.96875,96.28750000000001,76.0,71.0
125,96.34375,96.7546875,81.0,108.0
126,96.71875,97.0984375,79.0,86.0
127,97.09375,97.38906250000001,72.0,70.0
128,97.46875,97.715625,76.0,85.0
129,97.84375,99.13125000000001,74.0,87.0
130,99.34375,99.8828125,72.0,77.0
131,100.09375,100.640625,84.0,79.0
132,100.84375,101.35468750000001,83.0,108.0
133,101.59375,102.01875000000001,79.0,112.0
134,102.34375,102.6734375,81.0,87.0
135,102.71875,102.8359375,79.0,74.0
136,103.09375,103.509375,79.0,93.0
137,103.46875,103.74843750000001,72.0,65.0
138,103.84375,105.34375,77.0,117.0
139,105.34375,106.45937500000001,76.0,112.0
140,106.8609375,107.22187500000001,74.0,111.0
141,107.2359375,107.3203125,72.0,61.0
142,107.4234375,107.77656250000001,72.0,76.0
143,107.9859375,108.1484375,69.0,81.0
144,108.3609375,108.51875000000001,67.0,85.0
145,108.7359375,108.8296875,79.0,76.0
146,108.9234375,109.3453125,79.0,108.0
147,109.4859375,109.72500000000001,76.0,73.0
148,109.84375,111.4390625,74.0,90.0
149,111.71875,112.0328125,69.0,81.0
150,112.09375,112.4765625,74.0,100.0
151,112.46875,112.796875,69.0,79.0
152,112.84375,113.665625,72.0,104.0
153,118.46875,118.76093750000001,67.0,59.0
154,118.84375,119.44375000000001,76.0,76.0
155,119.59375,119.78125,76.0,93.0
156,119.96875,120.2078125,76.0,93.0
157,120.34375,121.46406250000001,74.0,90.0
158,121.46875,121.73281250000001,67.0,76.0
159,121.84375,122.40937500000001,72.0,77.0
160,122.59375,123.0828125,74.0,95.0
161,123.34375,123.5671875,76.0,72.0
162,123.71875,123.9546875,67.0,79.0
163,124.09375,124.353125,69.0,73.0
164,124.46875,124.63125000000001,67.0,86.0
165,125.59375,125.72968750000001,76.0,73.0
166,124.84375,125.809375,69.0,95.0
167,125.96875,127.89375000000001,74.0,98.0
168,128.96875,129.1171875,69.0,66.0
169,129.34375,129.55937500000002,69.0,69.0
170,129.71875,129.8515625,74.0,73.0
171,130.09375,130.315625,74.0,75.0
172,130.46875,130.6875,69.0,64.0
173,130.84375,133.7484375,72.0,98.0
174,148.84375,150.534375,81.0,85.0
175,151.09375,151.5015625,72.0,72.0
176,151.46875,151.740625,81.0,72.0
177,151.84375,152.0265625,79.0,83.0
178,152.21875,152.4375,79.0,98.0
179,152.59375,152.8703125,76.0,79.0
180,152.96875,153.3265625,79.0,86.0
181,153.34375,154.20000000000002,72.0,81.0
182,154.46875,154.70000000000002,67.0,83.0
183,154.84375,155.109375,76.0,77.0
184,155.21875,155.921875,74.0,77.0
185,155.96875,156.32656250000002,72.0,72.0
186,156.34375,157.20625,67.0,72.0
187,157.09375,157.46718750000002,74.0,79.0
188,157.46875,157.6328125,67.0,69.0
189,157.65625,157.94375000000002,74.0,79.0
190,158.21875,159.86562500000002,72.0,83.0
191,163.84375,164.2125,76.0,74.0
192,164.21875,164.30937500000002,79.0,87.0
193,164.40625,164.7453125,79.0,111.0
194,164.96875,165.17656250000002,76.0,74.0
195,165.34375,165.61562500000002,76.0,86.0
196,165.71875,165.79375000000002,79.0,90.0
197,165.90625,166.25625000000002,79.0,100.0
198,166.46875,166.7515625,76.0,69.0
199,166.84375,167.2109375,76.0,75.0
200,167.21875,167.54375000000002,84.0,73.0
201,167.59375,167.909375,76.0,72.0
202,167.96875,168.38906250000002,81.0,79.0
203,168.71875,169.5890625,79.0,98.0
204,169.84375,170.2421875,69.0,79.0
205,170.21875,170.3078125,72.0,74.0
206,170.40625,170.8359375,72.0,86.0
207,170.96875,171.20000000000002,69.0,69.0
208,171.34375,171.65,67.0,74.0
209,171.71875,171.7984375,79.0,81.0
210,171.90625,172.2828125,79.0,93.0
211,172.46875,172.78750000000002,76.0,71.0
212,172.84375,173.25468750000002,81.0,108.0
213,173.21875,173.59843750000002,79.0,86.0
214,173.59375,173.88906250000002,72.0,70.0
215,173.96875,174.21562500000002,76.0,85.0
216,174.34375,175.63125000000002,74.0,87.0
217,175.84375,176.3828125,72.0,77.0
218,176.59375,177.140625,84.0,79.0
219,177.34375,177.8546875,83.0,108.0
220,178.09375,178.51875,79.0,112.0
221,178.84375,179.1734375,81.0,87.0
222,179.21875,179.3359375,79.0,74.0
223,179.59375,180.009375,79.0,93.0
224,179.96875,180.24843750000002,72.0,65.0
225,180.34375,180.8859375,77.0,117.0
226,181.09375,181.6109375,76.0,112.0
227,181.84375,182.2046875,74.0,111.0
228,182.21875,182.30312500000002,72.0,61.0
229,182.40625,182.759375,72.0,76.0
230,182.96875,183.13125000000002,69.0,81.0
231,183.34375,183.5015625,67.0,85.0
232,183.71875,183.8125,79.0,76.0
233,183.90625,184.328125,79.0,108.0
234,184.46875,184.70781250000002,76.0,73.0
235,184.84375,185.0796875,81.0,93.0
236,185.21875,185.3546875,79.0,104.0
237,185.59375,185.85000000000002,79.0,114.0
238,185.96875,186.1421875,72.0,72.0
239,186.34375,187.57656250000002,74.0,95.0
240,187.84375,188.2125,76.0,74.0
241,188.21875,188.30937500000002,79.0,87.0
242,188.40625,188.7453125,79.0,111.0
243,188.96875,189.17656250000002,76.0,74.0
244,189.34375,189.61562500000002,76.0,86.0
245,189.71875,189.79375000000002,79.0,90.0
246,189.90625,190.25625000000002,79.0,100.0
247,190.46875,190.7515625,76.0,69.0
248,190.84375,191.2109375,76.0,75.0
249,191.21875,191.54375000000002,84.0,73.0
250,191.96875,192.234375,76.0,74.0
251,192.34375,192.84843750000002,81.0,111.0
252,193.09375,193.58281250000002,79.0,104.0
253,193.84375,194.2421875,69.0,79.0
254,194.21875,194.3078125,72.0,74.0
255,194.40625,194.8359375,72.0,86.0
256,194.96875,195.20000000000002,69.0,69.0
257,195.34375,195.65,67.0,74.0
258,195.71875,195.7984375,79.0,81.0
259,195.90625,196.2828125,79.0,93.0
260,196.46875,196.78750000000002,76.0,71.0
261,196.84375,197.25468750000002,81.0,108.0
262,197.21875,197.59843750000002,79.0,86.0
263,197.59375,197.88906250000002,72.0,70.0
264,197.96875,198.21562500000002,76.0,85.0
265,198.34375,199.63125000000002,74.0,87.0
266,199.84375,200.3828125,72.0,77.0
267,200.59375,201.140625,84.0,79.0
268,201.34375,201.8546875,83.0,108.0
269,202.09375,202.51875,79.0,112.0
270,202.84375,203.1734375,81.0,87.0
271,203.21875,203.3359375,79.0,74.0
272,203.59375,204.009375,79.0,93.0
273,203.96875,204.24843750000002,72.0,65.0
274,204.34375,205.84375,77.0,117.0
275,205.84375,206.95937500000002,76.0,112.0
276,207.3609375,207.721875,74.0,111.0
277,207.7359375,207.8203125,72.0,61.0
278,207.9234375,208.2765625,72.0,76.0
279,208.4859375,208.6484375,69.0,81.0
280,208.8609375,209.01875,67.0,85.0
281,209.2359375,209.3296875,79.0,76.0
282,209.4234375,209.8453125,79.0,108.0
283,209.9859375,210.22500000000002,76.0,73.0
284,210.34375,211.9390625,74.0,90.0
285,212.21875,212.5328125,69.0,81.0
286,212.59375,212.9765625,74.0,100.0
287,212.96875,213.296875,69.0,79.0
288,213.34375,214.165625,72.0,104.0
289,220.84375,221.36406250000002,76.0,104.0
290,221.59375,222.0796875,76.0,98.0
291,222.34375,222.8609375,74.0,87.0
292,223.09375,223.55156250000002,72.0,90.0
293,223.84375,224.69218750000002,74.0,100.0
294,224.96875,225.1421875,69.0,85.0
295,225.34375,226.471875,72.0,93.0
296,226.84375,227.2890625,76.0,108.0
297,227.59375,228.12187500000002,76.0,77.0
298,228.34375,228.85625000000002,74.0,90.0
299,229.09375,229.55937500000002,72.0,77.0
300,229.84375,229.97500000000002,74.0,87.0
301,230.21875,230.6109375,72.0,81.0
302,230.59375,230.821875,69.0,71.0
303,230.96875,231.19375000000002,76.0,81.0
304,231.34375,232.54531250000002,74.0,93.0
305,232.84375,233.015625,69.0,93.0
306,233.21875,234.8125,72.0,70.0
307,235.09375,235.46875,72.0,98.0
308,235.46875,235.68593750000002,71.0,64.0
309,235.65625,235.8828125,69.0,65.0
310,235.84375,236.3609375,67.0,90.0
311,236.21875,236.3609375,67.0,63.0
312,236.59375,236.796875,67.0,64.0
313,236.96875,237.1875,77.0,67.0
314,237.34375,238.440625,76.0,90.0
315,238.84375,239.14687500000002,74.0,77.0
316,239.21875,239.33281250000002,72.0,60.0
317,239.59375,239.775,72.0,95.0
318,239.96875,240.37968750000002,69.0,72.0
319,240.34375,240.6109375,67.0,64.0
320,240.71875,240.915625,69.0,81.0
321,241.09375,241.4078125,72.0,86.0
322,241.46875,241.859375,76.0,72.0
323,241.84375,242.234375,74.0,85.0
324,242.59375,243.00625000000002,72.0,86.0
325,243.34375,244.39687500000002,74.0,108.0
326,244.46875,244.83125,72.0,65.0
327,244.84375,246.534375,81.0,85.0
328,247.09375,247.5015625,72.0,72.0
329,247.46875,247.74062500000002,81.0,72.0
330,247.84375,248.0265625,79.0,83.0
331,248.21875,248.4375,79.0,98.0
332,248.59375,248.8703125,76.0,79.0
333,248.96875,249.32656250000002,79.0,86.0
334,249.71875,250.4453125,72.0,74.0
335,250.46875,250.7921875,67.0,77.0
336,250.84375,251.98906250000002,74.0,86.0
337,251.59375,251.98906250000002,74.0,85.0
338,251.96875,253.3,69.0,87.0
339,254.96875,255.159375,69.0,63.0
340,255.34375,255.53593750000002,69.0,66.0
341,255.71875,255.8140625,74.0,72.0
342,256.09375,256.515625,74.0,70.0
343,256.46875,256.828125,69.0,67.0
344,256.84375,260.2171875,72.0,68.0
