,start,end,pitch,velocity
0,22.866913379166665,23.0443325625,68.0,86.0
1,23.108848629166665,23.25602590625,71.0,85.0
2,23.350783879166666,23.483848266666666,73.0,87.0
3,23.592719129166664,23.743928660416664,76.0,82.0
4,23.834654379166665,23.95158975,76.0,84.0
5,24.076589629166666,24.203605635416665,76.0,84.0
6,24.318524879166667,24.653201974999998,76.0,85.0
7,24.802395379166665,24.93344363958333,76.0,83.0
8,25.044330629166666,25.286265879166667,76.0,85.0
9,25.286265879166667,26.012071629166666,76.0,85.0
10,26.012071629166666,26.149168270833332,76.0,85.0
11,26.254006879166667,26.447555079166666,78.0,78.0
12,26.495942129166664,26.709651599999997,76.0,80.0
13,26.737877379166665,26.905215927083333,75.0,86.0
14,26.979812629166666,27.12698990625,73.0,84.0
15,27.221747879166664,27.409247697916665,71.0,85.0
16,27.463683129166665,27.626989422916665,73.0,85.0
17,27.705618379166665,28.673359379166666,71.0,85.0
18,28.915294629166667,29.036262254166665,68.0,84.0
19,29.157229879166664,30.298357808333332,68.0,85.0
20,30.608841379166666,30.774163799999997,68.0,79.0
21,30.850776629166663,30.993921652083333,71.0,80.0
22,31.092711879166664,31.243921410416664,73.0,83.0
23,31.334647129166665,31.463679262499998,76.0,85.0
24,31.576582379166666,31.681420987499997,76.0,83.0
25,31.818517629166664,31.943517508333333,76.0,84.0
26,32.06045287916667,32.368920322916665,76.0,85.0
27,32.54432337916666,32.74190383333333,78.0,85.0
28,32.78625862916667,32.95561330416667,76.0,79.0
29,33.028193879166665,33.68343518125,80.0,84.0
30,33.753999629166664,33.87899950833333,80.0,77.0
31,33.99593487916666,34.15319279166666,80.0,85.0
32,34.237870129166666,34.40520867708333,78.0,84.0
33,34.47980537916666,34.669321325,76.0,84.0
34,34.72174062916667,34.85278888958333,75.0,84.0
35,34.963675879166665,35.15722407916667,75.0,84.0
36,35.20561112916666,35.36286904166666,76.0,73.0
37,35.44754637916667,36.71972256875,75.0,84.0
38,36.65722262916667,36.81246441458333,73.0,85.0
39,36.899157879166665,37.85883437083333,71.0,82.0
40,38.350769379166664,38.45964024166666,71.0,84.0
41,38.59270462916666,38.808430227083335,71.0,85.0
42,38.834639879166666,39.29431685416667,73.0,90.0
43,39.31851037916667,39.49189730833333,76.0,79.0
44,39.560445629166665,39.71165516041666,76.0,79.0
45,39.80238087916666,40.17536438958333,76.0,84.0
46,40.286251379166664,40.64713812708333,78.0,85.0
47,40.770121879166666,41.459637341666664,76.0,80.0
48,41.495927629166665,41.61084687291667,76.0,85.0
49,41.73786287916666,41.917298189583335,76.0,85.0
50,41.97979812916667,42.1935076,75.0,86.0
51,42.221733379166665,42.41729770625,73.0,85.0
52,42.46366862916666,42.59471688958333,71.0,84.0
53,42.70560387916667,42.878990808333334,71.0,84.0
54,42.947539129166664,43.09471640625,73.0,86.0
55,43.18947437916666,43.92737689166666,71.0,84.0
56,44.157215379166665,44.51810212708333,66.0,80.0
57,44.64108587916667,45.28221429166666,68.0,78.0
58,46.092697379166665,46.25600367291666,78.0,85.0
59,46.33463262916666,46.48180990625,80.0,84.0
60,46.57656787916667,46.77414833333333,78.0,84.0
61,46.818503129166665,46.96164815208333,76.0,82.0
62,47.06043837916666,47.2378575625,78.0,85.0
63,47.30237362916667,47.447534779166666,76.0,80.0
64,47.544308879166664,47.8910827375,78.0,84.0
65,48.028179379166666,48.1935018,78.0,85.0
66,48.27011462916666,48.40721127083333,76.0,84.0
67,48.51204987916666,49.04229130208333,78.0,86.0
68,49.23785562916667,49.37495227083333,73.0,88.0
69,49.479790879166664,49.610839139583334,73.0,86.0
70,49.72172612916666,49.850758262499994,73.0,88.0
71,49.963661379166666,50.08261287708333,73.0,89.0
72,50.20559662916666,50.376967431249994,73.0,88.0
73,50.44753187916666,51.06648289375,80.0,84.0
74,51.17333762916667,53.350754879166665,78.0,80.0
75,53.83462537916667,54.012044562499995,68.0,86.0
76,54.076560629166664,54.223737906249994,71.0,85.0
77,54.31849587916666,54.45156026666666,73.0,87.0
78,54.560431129166666,54.71164066041666,76.0,82.0
79,54.80236637916666,54.919301749999995,76.0,84.0
80,55.04430162916666,55.17131763541666,76.0,84.0
81,55.286236879166665,55.620913975,76.0,85.0
82,55.77010737916666,55.90115563958333,76.0,83.0
83,56.012042629166665,56.25397787916666,76.0,85.0
84,56.25397787916666,56.97978362916666,76.0,85.0
85,56.97978362916666,57.11688027083333,76.0,85.0
86,57.221718879166666,57.41526707916666,78.0,78.0
87,57.46365412916666,57.6773636,76.0,80.0
88,57.70558937916666,57.87292792708333,75.0,86.0
89,57.947524629166665,58.094701906249995,73.0,84.0
90,58.18945987916666,58.37695969791666,71.0,85.0
91,58.43139512916667,58.594701422916664,73.0,85.0
92,58.673330379166664,59.64107137916666,71.0,85.0
93,59.883006629166665,60.003974254166664,68.0,84.0
94,60.12494187916666,61.26606980833333,68.0,85.0
95,61.57655337916666,61.741875799999995,68.0,79.0
96,61.818488629166666,61.96163365208333,71.0,80.0
97,62.06042387916666,62.21163341041667,73.0,83.0
98,62.30235912916666,62.4313912625,76.0,85.0
99,62.544294379166665,62.649132987499996,76.0,83.0
100,62.78622962916666,62.91122950833333,76.0,84.0
101,63.02816487916666,63.336632322916664,76.0,85.0
102,63.51203537916666,63.70961583333333,78.0,85.0
103,63.753970629166666,63.92332530416666,76.0,79.0
104,63.99590587916666,64.65114718125,80.0,84.0
105,64.72171162916666,64.84671150833333,80.0,77.0
106,64.96364687916666,65.12090479166666,80.0,85.0
107,65.20558212916666,65.37292067708333,78.0,84.0
108,65.44751737916667,65.63703332499999,76.0,84.0
109,65.68945262916667,65.82050088958333,75.0,84.0
110,65.93138787916666,66.12493607916666,75.0,84.0
111,66.17332312916666,66.33058104166666,76.0,73.0
112,66.41525837916666,67.68743456874999,75.0,84.0
113,67.62493462916666,67.78017641458332,73.0,85.0
114,67.86686987916666,68.82654637083333,71.0,82.0
115,69.31848137916667,69.42735224166667,71.0,84.0
116,69.56041662916667,69.77614222708333,71.0,85.0
117,69.80235187916666,70.26202885416666,73.0,90.0
118,70.28622237916666,70.45960930833333,76.0,79.0
119,70.52815762916666,70.67936716041666,76.0,79.0
120,70.77009287916667,71.14307638958333,76.0,84.0
121,71.25396337916666,71.61485012708333,78.0,85.0
122,71.73783387916666,72.42734934166667,76.0,80.0
123,72.46363962916666,72.57855887291666,76.0,85.0
124,72.70557487916666,72.88501018958333,76.0,85.0
125,72.94751012916666,73.1612196,75.0,86.0
126,73.18944537916666,73.38500970625,73.0,85.0
127,73.43138062916667,73.56242888958333,71.0,84.0
128,73.67331587916667,73.84670280833333,71.0,84.0
129,73.91525112916666,74.06242840624999,73.0,86.0
130,74.15718637916666,74.89508889166666,71.0,84.0
131,75.36686262916666,75.60879787916666,80.0,80.0
132,75.60879787916666,76.24992629166667,80.0,78.0
133,77.06040937916666,77.22371567291667,78.0,85.0
134,77.30234462916667,77.44952190625,80.0,84.0
135,77.54427987916667,77.74186033333334,78.0,84.0
136,77.78621512916666,77.92936015208333,76.0,82.0
137,78.02815037916666,78.2055695625,78.0,85.0
138,78.27008562916666,78.41524677916667,76.0,80.0
139,78.51202087916666,78.85879473749999,78.0,84.0
140,78.99589137916666,79.1612138,78.0,85.0
141,79.23782662916666,79.37492327083334,76.0,84.0
142,79.47976187916666,80.01000330208333,78.0,86.0
143,80.20556762916667,80.34266427083332,73.0,88.0
144,80.44750287916666,80.57855113958333,73.0,86.0
145,80.68943812916666,81.17330862916667,80.0,88.0
146,81.41524387916667,84.31846687916666,78.0,84.0
147,88.67330137916666,88.91926888333333,71.0,86.0
148,88.91523662916666,89.03418812708333,73.0,93.0
149,89.15717187916667,89.36281684166666,85.0,86.0
150,89.39910712916667,89.53418764375,83.0,79.0
151,89.64104237916666,89.77813902083332,83.0,87.0
152,89.88297762916666,90.03015490624999,83.0,84.0
153,90.12491287916666,90.2539450125,83.0,90.0
154,90.36684812916666,90.50797702499999,80.0,76.0
155,90.60878337916667,90.72168649583332,80.0,79.0
156,90.85071862916666,90.95958949166666,80.0,79.0
157,91.09265387916666,91.28620207916666,80.0,85.0
158,91.33458912916666,91.46765351666666,78.0,73.0
159,91.57652437916666,91.70152425833332,78.0,75.0
160,91.81845962916667,91.94547563541666,78.0,79.0
161,92.06039487916667,92.25394307916666,78.0,86.0
162,92.30233012916666,92.42934613541667,76.0,79.0
163,92.54426537916666,92.68741040208333,76.0,75.0
164,92.78620062916666,92.91724888958333,76.0,77.0
165,93.02813587916665,93.75394162916666,73.0,84.0
166,93.75394162916666,95.10273064791666,71.0,85.0
167,96.41522937916666,96.71764844166667,71.0,86.0
168,96.65716462916666,96.77208387291667,73.0,91.0
169,96.89909987916666,97.10877709583333,85.0,84.0
170,97.14103512916667,97.26200275416666,83.0,84.0
171,97.38297037916666,97.52006702083332,83.0,85.0
172,97.62490562916666,97.76805065208333,83.0,86.0
173,97.86684087916666,98.04829231666666,83.0,88.0
174,98.10877612916666,98.24788889791667,80.0,82.0
175,98.35071137916667,98.47571125833333,80.0,80.0
176,98.59264662916667,98.72369488958333,80.0,78.0
177,98.83458187916666,99.05030747708332,80.0,85.0
178,99.07651712916666,99.20756538958332,78.0,79.0
179,99.31845237916666,99.4474845125,78.0,77.0
180,99.56038762916666,99.69345201666665,78.0,77.0
181,99.80232287916667,99.95958079166667,78.0,80.0
182,100.04425812916666,100.17127413541667,76.0,69.0
183,100.28619337916666,100.427322275,76.0,76.0
184,100.52812862916666,101.49586962916666,80.0,78.0
185,101.49586962916666,102.98780367083333,78.0,84.0
186,103.91522212916666,104.1410283625,78.0,85.0
187,104.15715737916666,104.38497973958333,80.0,86.0
188,104.39909262916666,104.54425377916667,78.0,86.0
189,104.64102787916666,104.85070509583333,78.0,85.0
190,104.88296312916665,105.02005977083333,76.0,79.0
191,105.12489837916667,105.266027275,76.0,79.0
192,105.36683362916666,105.50594639791666,76.0,79.0
193,105.60876887916666,106.06038134583332,76.0,84.0
194,106.09263937916666,106.32852624791666,73.0,88.0
195,106.33457462916667,107.27207372291666,76.0,82.0
196,107.54425087916665,107.98981496458333,73.0,95.0
197,108.02812137916666,108.37892749166666,85.0,88.0
198,108.51199187916666,108.72368522291666,85.0,86.0
199,108.75392712916666,109.09868486041665,83.0,85.0
200,109.23779762916666,109.36884588958333,83.0,84.0
201,109.47973287916666,109.63699079166666,80.0,77.0
202,109.72166812916666,109.8265067375,80.0,84.0
203,109.96360337916666,110.08053874999999,80.0,80.0
204,110.20553862916667,111.42932776875,80.0,85.0
205,111.89908537916666,112.02408525833333,80.0,85.0
206,112.14102062916666,112.26400438124999,80.0,85.0
207,112.38295587916666,112.58053633333333,80.0,83.0
208,112.62489112916666,112.77206840625,78.0,80.0
209,112.86682637916667,112.98981013125,78.0,80.0
210,113.10876162916666,113.225697,78.0,80.0
211,113.35069687916666,113.53416444375,78.0,85.0
212,113.59263212916666,113.7216642625,76.0,79.0
213,113.83456737916666,113.95553500416666,76.0,80.0
214,114.07650262916665,114.20755088958333,76.0,82.0
215,114.31843787916667,114.75190520208332,76.0,82.0
216,115.04424362916666,115.19142090624999,76.0,80.0
217,115.28617887916666,115.67529140625,76.0,85.0
218,115.77004937916666,115.92327503749999,73.0,90.0
219,116.01198462916666,116.17125866875,76.0,84.0
220,116.25391987916666,116.87287089374999,80.0,84.0
221,116.97972562916667,118.43133712916666,78.0,80.0
222,119.64101337916667,119.88698088333332,71.0,86.0
223,119.88294862916666,120.00190012708333,73.0,93.0
224,120.12488387916666,120.33052884166666,85.0,86.0
225,120.36681912916666,120.50189964375,83.0,79.0
226,120.60875437916665,120.74585102083333,83.0,87.0
227,120.85068962916667,120.99786690625,83.0,84.0
228,121.09262487916666,121.22165701249999,83.0,90.0
229,121.33456012916666,121.475689025,80.0,76.0
230,121.57649537916666,121.68939849583333,80.0,79.0
231,121.81843062916666,121.92730149166665,80.0,79.0
232,122.06036587916665,122.25391407916666,80.0,85.0
233,122.30230112916666,122.43536551666666,78.0,73.0
234,122.54423637916666,122.66923625833333,78.0,75.0
235,122.78617162916666,122.91318763541666,78.0,79.0
236,123.02810687916666,123.22165507916667,78.0,86.0
237,123.27004212916665,123.39705813541666,76.0,79.0
238,123.51197737916667,123.65512240208332,76.0,75.0
239,123.75391262916666,123.88496088958333,76.0,77.0
240,123.99584787916666,124.72165362916667,73.0,84.0
241,124.72165362916667,126.07044264791666,71.0,85.0
242,127.38294137916667,127.68536044166666,71.0,86.0
243,127.62487662916666,127.73979587291666,73.0,91.0
244,127.86681187916666,128.07648909583332,85.0,84.0
245,128.10874712916666,128.22971475416665,83.0,84.0
246,128.35068237916667,128.48777902083333,83.0,85.0
247,128.59261762916665,128.73576265208334,83.0,86.0
248,128.83455287916667,129.01600431666665,83.0,88.0
249,129.07648812916665,129.21560089791666,80.0,82.0
250,129.31842337916666,129.44342325833333,80.0,80.0
251,129.56035862916667,129.69140688958333,80.0,78.0
252,129.80229387916665,130.01801947708333,80.0,85.0
253,130.04422912916667,130.17527738958333,78.0,79.0
254,130.28616437916665,130.4151965125,78.0,77.0
255,130.52809962916666,130.66116401666665,78.0,77.0
256,130.77003487916667,130.92729279166667,78.0,80.0
257,131.01197012916666,131.13898613541667,76.0,69.0
258,131.25390537916667,131.395034275,76.0,76.0
259,131.49584062916665,132.46358162916667,80.0,78.0
260,132.46358162916667,133.95551567083334,78.0,84.0
261,134.88293412916667,135.1087403625,78.0,85.0
262,135.12486937916665,135.35269173958332,80.0,86.0
263,135.36680462916667,135.51196577916667,78.0,86.0
264,135.60873987916665,135.81841709583333,78.0,85.0
265,135.85067512916666,135.98777177083332,76.0,79.0
266,136.09261037916667,136.233739275,76.0,79.0
267,136.33454562916666,136.47365839791667,76.0,79.0
268,136.57648087916667,137.02809334583333,76.0,84.0
269,137.06035137916666,137.29623824791665,73.0,88.0
270,137.30228662916667,138.23978572291665,76.0,82.0
271,138.51196287916665,138.95752696458334,73.0,95.0
272,138.99583337916667,139.34663949166665,85.0,88.0
273,139.47970387916666,139.69139722291666,85.0,86.0
274,139.72163912916665,140.06639686041666,83.0,85.0
275,140.20550962916667,140.33655788958333,83.0,84.0
276,140.44744487916665,140.60470279166665,80.0,77.0
277,140.68938012916666,140.7942187375,80.0,84.0
278,140.93131537916665,141.04825075,80.0,80.0
279,141.17325062916666,142.39703976875,80.0,85.0
280,142.86679737916666,143.35268400625,71.0,85.0
281,143.10873262916667,143.59260312916666,80.0,85.0
282,143.83453837916664,144.31840887916667,78.0,80.0
283,144.80227937916666,145.03413399375,76.0,80.0
284,145.04421462916665,145.28614987916666,73.0,82.0
285,145.28614987916666,145.71961720208333,80.0,82.0
286,145.77002037916665,146.40308428333333,78.0,85.0
287,146.49582612916666,146.68735820208332,76.0,79.0
288,146.73776137916667,146.95348697708332,76.0,86.0
289,146.97969662916665,147.19945448125,73.0,84.0
290,147.22163187916667,147.93534086666665,78.0,84.0
291,147.94743762916667,151.040176575,76.0,84.0
292,181.57643737916666,181.75385656249998,68.0,86.0
293,181.81837262916665,181.96554990625,71.0,85.0
294,182.06030787916666,182.19337226666667,73.0,87.0
295,182.30224312916667,182.45345266041664,76.0,82.0
296,182.54417837916665,182.66111375,76.0,84.0
297,182.78611362916666,182.91312963541665,76.0,84.0
298,183.02804887916665,183.362725975,76.0,85.0
299,183.51191937916667,183.64296763958333,76.0,83.0
300,183.75385462916665,183.99578987916667,76.0,85.0
301,183.99578987916667,184.72159562916664,76.0,85.0
302,184.72159562916664,184.85869227083333,76.0,85.0
303,184.96353087916665,185.15707907916666,78.0,78.0
304,185.20546612916667,185.4191756,76.0,80.0
305,185.44740137916665,185.61473992708332,75.0,86.0
306,185.68933662916666,185.83651390625,73.0,84.0
307,185.93127187916664,186.11877169791666,71.0,85.0
308,186.17320712916666,186.33651342291665,73.0,85.0
309,186.41514237916667,187.38288337916666,71.0,85.0
310,187.62481862916667,187.74578625416666,68.0,84.0
311,187.86675387916665,189.00788180833334,68.0,85.0
312,189.31836537916666,189.48368779999998,68.0,79.0
313,189.56030062916665,189.70344565208333,71.0,80.0
314,189.80223587916666,189.95344541041666,73.0,83.0
315,190.04417112916667,190.17320326249998,76.0,85.0
316,190.28610637916665,190.39094498749998,76.0,83.0
317,190.52804162916667,190.65304150833333,76.0,84.0
318,190.76997687916665,191.07844432291665,76.0,85.0
319,191.25384737916664,191.45142783333333,78.0,85.0
320,191.49578262916665,191.66513730416665,76.0,79.0
321,191.73771787916667,192.39295918124998,80.0,84.0
322,192.46352362916664,192.5885235083333,80.0,77.0
323,192.70545887916666,192.86271679166666,80.0,85.0
324,192.94739412916667,193.1147326770833,78.0,84.0
325,193.18932937916665,193.378845325,76.0,84.0
326,193.43126462916666,193.56231288958332,75.0,84.0
327,193.67319987916665,193.86674807916665,75.0,84.0
328,193.91513512916666,194.07239304166666,76.0,73.0
329,194.15707037916667,195.42924656875,75.0,84.0
330,195.36674662916667,195.52198841458332,73.0,85.0
331,195.60868187916665,196.56835837083332,71.0,82.0
332,197.06029337916667,197.16916424166666,71.0,84.0
333,197.30222862916665,197.51795422708332,71.0,85.0
334,197.54416387916666,198.00384085416667,73.0,90.0
335,198.02803437916666,198.20142130833332,76.0,79.0
336,198.26996962916667,198.42117916041664,76.0,79.0
337,198.51190487916665,198.88488838958332,76.0,84.0
338,198.99577537916664,199.35666212708333,78.0,85.0
339,199.47964587916667,200.16916134166667,76.0,80.0
340,200.20545162916665,200.32037087291667,76.0,85.0
341,200.44738687916666,200.62682218958332,76.0,85.0
342,200.68932212916667,200.9030316,75.0,86.0
343,200.93125737916665,201.12682170624998,73.0,85.0
344,201.17319262916666,201.30424088958333,71.0,84.0
345,201.41512787916665,201.58851480833331,71.0,84.0
346,201.65706312916666,201.80424040625,73.0,86.0
347,201.89899837916664,202.63690089166667,71.0,84.0
348,203.10867462916664,203.35060987916665,80.0,80.0
349,203.35060987916665,203.99173829166665,80.0,78.0
350,204.80222137916667,204.96552767291666,78.0,85.0
351,205.04415662916665,205.19133390624998,80.0,84.0
352,205.28609187916666,205.48367233333332,78.0,84.0
353,205.52802712916665,205.67117215208333,76.0,82.0
354,205.76996237916666,205.9473815625,78.0,85.0
355,206.01189762916667,206.15705877916665,76.0,80.0
356,206.25383287916665,206.6006067375,78.0,84.0
357,206.73770337916665,206.9030258,78.0,85.0
358,206.97963862916666,207.11673527083332,76.0,84.0
359,207.22157387916667,207.75181530208332,78.0,86.0
360,207.94737962916665,208.08447627083333,73.0,88.0
361,208.18931487916666,208.32036313958332,73.0,86.0
362,208.43125012916664,208.91512062916667,80.0,88.0
363,209.15705587916665,212.06027887916665,78.0,84.0
364,216.41511337916666,216.6610808833333,71.0,86.0
365,216.65704862916667,216.77600012708334,73.0,93.0
366,216.89898387916665,217.10462884166665,85.0,86.0
367,217.14091912916666,217.27599964375,83.0,79.0
368,217.38285437916664,217.51995102083333,83.0,87.0
369,217.62478962916666,217.77196690625,83.0,84.0
370,217.86672487916667,217.99575701249998,83.0,90.0
371,218.10866012916665,218.24978902499998,80.0,76.0
372,218.35059537916666,218.46349849583333,80.0,79.0
373,218.59253062916665,218.70140149166664,80.0,79.0
374,218.83446587916666,219.02801407916667,80.0,85.0
375,219.07640112916667,219.20946551666665,78.0,73.0
376,219.31833637916665,219.44333625833332,78.0,75.0
377,219.56027162916666,219.68728763541665,78.0,79.0
378,219.80220687916665,219.99575507916666,78.0,86.0
379,220.04414212916666,220.17115813541665,76.0,79.0
380,220.28607737916664,220.42922240208333,76.0,75.0
381,220.52801262916665,220.65906088958332,76.0,77.0
382,220.76994787916666,221.49575362916664,73.0,84.0
383,221.49575362916664,222.84454264791665,71.0,85.0
384,224.15704137916666,224.45946044166666,71.0,86.0
385,224.39897662916667,224.51389587291666,73.0,91.0
386,224.64091187916665,224.85058909583333,85.0,84.0
387,224.88284712916666,225.00381475416665,83.0,84.0
388,225.12478237916665,225.26187902083333,83.0,85.0
389,225.36671762916666,225.5098626520833,83.0,86.0
390,225.60865287916664,225.79010431666666,83.0,88.0
391,225.85058812916665,225.98970089791666,80.0,82.0
392,226.09252337916666,226.21752325833333,80.0,80.0
393,226.33445862916665,226.4655068895833,80.0,78.0
394,226.57639387916666,226.79211947708333,80.0,85.0
395,226.81832912916664,226.94937738958333,78.0,79.0
396,227.06026437916665,227.1892965125,78.0,77.0
397,227.30219962916667,227.43526401666665,78.0,77.0
398,227.54413487916665,227.70139279166665,78.0,80.0
399,227.78607012916666,227.91308613541665,76.0,69.0
400,228.02800537916664,228.16913427499998,76.0,76.0
401,228.26994062916665,229.23768162916664,80.0,78.0
402,229.23768162916664,230.7296156708333,78.0,84.0
403,231.65703412916665,231.8828403625,78.0,85.0
404,231.89896937916666,232.12679173958333,80.0,86.0
405,232.14090462916664,232.28606577916665,78.0,86.0
406,232.38283987916665,232.59251709583333,78.0,85.0
407,232.62477512916666,232.76187177083332,76.0,79.0
408,232.86671037916665,233.00783927499998,76.0,79.0
409,233.10864562916666,233.24775839791664,76.0,79.0
410,233.35058087916664,233.80219334583333,76.0,84.0
411,233.83445137916667,234.07033824791665,73.0,88.0
412,234.07638662916665,235.01388572291665,76.0,82.0
413,235.28606287916665,235.7316269645833,73.0,95.0
414,235.76993337916664,236.12073949166665,85.0,88.0
415,236.25380387916667,236.46549722291667,85.0,86.0
416,236.49573912916665,236.84049686041666,83.0,85.0
417,236.97960962916665,237.1106578895833,83.0,84.0
418,237.22154487916666,237.37880279166666,80.0,77.0
419,237.46348012916664,237.5683187375,80.0,84.0
420,237.70541537916665,237.82235075,80.0,80.0
421,237.94735062916666,239.17113976874998,80.0,85.0
422,239.64089737916666,239.76589725833333,80.0,85.0
423,239.88283262916664,240.00581638124999,80.0,85.0
424,240.12476787916665,240.3223483333333,80.0,83.0
425,240.36670312916667,240.51388040625,78.0,80.0
426,240.60863837916665,240.73162213125,78.0,80.0
427,240.85057362916666,240.96750899999998,78.0,80.0
428,241.09250887916664,241.27597644374998,78.0,85.0
429,241.33444412916666,241.4634762625,76.0,79.0
430,241.57637937916667,241.69734700416666,76.0,80.0
431,241.81831462916665,241.9493628895833,76.0,82.0
432,242.06024987916666,242.49371720208333,76.0,82.0
433,242.78605562916664,242.93323290625,76.0,80.0
434,243.02799087916665,243.41710340625,76.0,85.0
435,243.51186137916665,243.6650870375,73.0,90.0
436,243.75379662916666,243.91307066874998,76.0,84.0
437,243.99573187916664,244.61468289375,80.0,84.0
438,244.72153762916665,246.17314912916666,78.0,80.0
439,247.38282537916666,247.62879288333332,71.0,86.0
440,247.62476062916664,247.7437121270833,73.0,93.0
441,247.86669587916666,248.07234084166666,85.0,86.0
442,248.10863112916667,248.24371164374998,83.0,79.0
443,248.35056637916665,248.4876630208333,83.0,87.0
444,248.59250162916666,248.73967890625,83.0,84.0
445,248.83443687916665,248.96346901249998,83.0,90.0
446,249.07637212916666,249.217501025,80.0,76.0
447,249.31830737916664,249.4312104958333,80.0,79.0
448,249.56024262916665,249.66911349166665,80.0,79.0
449,249.80217787916666,249.99572607916664,80.0,85.0
450,250.04411312916665,250.17717751666666,78.0,73.0
451,250.28604837916666,250.41104825833332,78.0,75.0
452,250.52798362916664,250.65499963541666,78.0,79.0
453,250.76991887916665,250.96346707916666,78.0,86.0
454,251.01185412916666,251.13887013541665,76.0,79.0
455,251.25378937916665,251.39693440208333,76.0,75.0
456,251.49572462916666,251.62677288958332,76.0,77.0
457,251.73765987916664,252.46346562916665,73.0,84.0
458,252.46346562916665,253.81225464791666,71.0,85.0
459,255.12475337916666,255.42717244166664,71.0,86.0
460,255.36668862916665,255.48160787291664,73.0,91.0
461,255.60862387916666,255.8183010958333,85.0,84.0
462,255.85055912916664,255.97152675416666,83.0,84.0
463,256.0924943791667,256.2295910208333,83.0,85.0
464,256.33442962916666,256.4775746520833,83.0,86.0
465,256.57636487916665,256.75781631666666,83.0,88.0
466,256.81830012916663,256.95741289791664,80.0,82.0
467,257.06023537916667,257.1852352583333,80.0,80.0
468,257.30217062916665,257.4332188895833,80.0,78.0
469,257.54410587916664,257.7598314770833,80.0,85.0
470,257.7860411291667,257.91708938958334,78.0,79.0
471,258.02797637916666,258.1570085125,78.0,77.0
472,258.26991162916664,258.4029760166666,78.0,77.0
473,258.5118468791666,258.66910479166665,78.0,80.0
474,258.75378212916667,258.8807981354166,76.0,69.0
475,258.99571737916665,259.136846275,76.0,76.0
476,259.23765262916663,260.2053936291667,80.0,78.0
477,260.2053936291667,261.6973276708333,78.0,84.0
478,262.6247461291667,262.85055236249997,78.0,85.0
479,262.86668137916666,263.09450373958333,80.0,86.0
480,263.10861662916665,263.2537777791666,78.0,86.0
481,263.35055187916663,263.56022909583334,78.0,85.0
482,263.59248712916667,263.7295837708333,76.0,79.0
483,263.83442237916665,263.975551275,76.0,79.0
484,264.07635762916664,264.21547039791665,76.0,79.0
485,264.3182928791667,264.7699053458333,76.0,84.0
486,264.80216337916664,265.03805024791666,73.0,88.0
487,265.0440986291666,265.98159772291666,76.0,82.0
488,266.25377487916666,266.6993389645833,73.0,95.0
489,266.7376453791667,267.08845149166666,85.0,88.0
490,267.22151587916665,267.4332092229167,85.0,86.0
491,267.46345112916663,267.80820886041664,83.0,85.0
492,267.94732162916665,268.0783698895833,83.0,84.0
493,268.18925687916663,268.34651479166666,80.0,77.0
494,268.4311921291667,268.53603073749997,80.0,84.0
495,268.67312737916666,268.79006275,80.0,80.0
496,268.91506262916664,270.13885176875,80.0,85.0
497,270.60860937916664,271.09449600625,71.0,85.0
498,270.8505446291667,271.33441512916664,80.0,85.0
499,271.5763503791666,272.06022087916665,78.0,80.0
500,272.5440913791667,272.77594599375,76.0,80.0
501,272.78602662916666,273.02796187916664,73.0,82.0
502,273.02796187916664,273.4614292020833,80.0,82.0
503,273.51183237916666,274.1448962833333,78.0,85.0
504,274.23763812916667,274.4291702020833,76.0,79.0
505,274.47957337916665,274.6952989770833,76.0,86.0
506,274.72150862916664,274.94126648125,73.0,84.0
507,274.9634438791667,275.67715286666663,78.0,84.0
508,275.6892496291666,278.78198857499996,76.0,84.0
