,start,end,pitch,velocity
0,0.12499987916666666,1.1290311666666666,56.0,72.0
1,1.0927408791666666,2.1391108354166666,59.0,80.0
2,1.5766113791666665,2.1673366145833333,52.0,72.0
3,2.0604818791666664,2.421368627083333,56.0,58.0
4,0.6088703791666666,3.2036259354166665,47.0,75.0
5,0.12499987916666666,3.4012063895833333,40.0,84.0
6,3.9959638791666663,5.006043547916667,52.0,76.0
7,4.9637048791666665,5.437494743749999,56.0,79.0
8,5.447575379166667,5.657252595833333,52.0,80.0
9,5.931445879166667,6.062494139583333,61.0,83.0
10,4.479834379166666,7.038299647916666,44.0,55.0
11,3.9959638791666663,7.1007995875,37.0,76.0
12,8.350798379166665,8.919346216666666,52.0,84.0
13,7.866927879166666,9.129023433333332,45.0,80.0
14,8.834668879166665,9.596764916666666,57.0,73.0
15,9.802409879166666,10.816521802083333,59.0,76.0
16,10.286280379166666,10.953618443749999,51.0,77.0
17,9.802409879166666,10.9717635875,44.0,85.0
18,10.770150879166666,10.999989366666666,56.0,80.0
19,11.737891879166666,11.949585222916665,52.0,75.0
20,11.737891879166666,12.304423589583333,57.0,71.0
21,12.221762379166666,12.796358597916665,52.0,64.0
22,11.737891879166666,13.114906677083333,45.0,78.0
23,12.705632879166666,13.330632275,61.0,80.0
24,13.673373879166666,14.592727829166666,56.0,65.0
25,13.673373879166666,14.659260022916666,59.0,71.0
26,14.641114879166667,15.274178783333333,63.0,85.0
27,13.673373879166666,15.389098027083332,44.0,79.0
28,14.157244379166666,15.397162535416665,51.0,78.0
29,15.124985379166667,15.661275183333332,56.0,80.0
30,15.608855879166665,15.661275183333332,56.0,71.0
31,15.608855879166665,16.59070976875,61.0,79.0
32,16.576596879166665,17.145144716666668,64.0,80.0
33,17.060467379166667,17.29232199375,56.0,69.0
34,16.818532129166666,17.37296707708333,44.0,71.0
35,15.608855879166665,17.395144475,37.0,85.0
36,17.544337879166665,18.14514375,61.0,71.0
37,17.544337879166665,18.18949854583333,56.0,68.0
38,17.544337879166665,18.510062752083332,37.0,68.0
39,18.512078879166666,18.691514189583334,56.0,70.0
40,18.512078879166666,18.727804477083332,61.0,74.0
41,18.512078879166666,18.754014129166666,64.0,74.0
42,19.479819879166666,19.72377125625,56.0,78.0
43,19.479819879166666,20.02619031875,64.0,80.0
44,20.447560879166666,20.6733671125,56.0,80.0
45,20.447560879166666,21.122963452083333,64.0,81.0
46,20.931431379166664,21.173366629166665,56.0,65.0
47,19.479819879166666,21.203608535416667,49.0,79.0
48,21.415301879166666,21.7136886875,56.0,77.0
49,21.415301879166666,22.006027114583333,64.0,77.0
50,21.899172379166664,22.181430170833334,63.0,75.0
51,22.141107629166665,23.258042033333332,61.0,77.0
52,21.415301879166666,23.316509718749998,49.0,78.0
53,23.350783879166666,23.600783637499998,56.0,75.0
54,23.350783879166666,24.082638010416666,61.0,80.0
55,24.318524879166667,24.38102481875,61.0,46.0
56,23.834654379166665,24.383040945833333,56.0,72.0
57,24.318524879166667,24.93344363958333,64.0,81.0
58,23.350783879166666,25.01207259583333,49.0,84.0
59,24.802395379166665,25.36086258125,56.0,79.0
60,25.286265879166667,25.82860406458333,61.0,78.0
61,26.254006879166667,26.46166796875,56.0,73.0
62,25.286265879166667,26.70561934583333,49.0,82.0
63,26.254006879166667,26.768119285416667,64.0,80.0
64,26.254006879166667,26.7701354125,61.0,79.0
65,26.737877379166665,26.858845004166664,56.0,59.0
66,27.221747879166664,27.73182803125,56.0,73.0
67,27.221747879166664,27.74594092083333,59.0,76.0
68,27.705618379166665,28.326585520833333,51.0,66.0
69,28.189488879166664,28.981826822916666,56.0,84.0
70,28.189488879166664,29.020133237499998,63.0,85.0
71,27.221747879166664,29.056423525,44.0,84.0
72,28.673359379166666,29.064488033333333,51.0,61.0
73,29.157229879166664,29.856825977083332,56.0,71.0
74,29.157229879166664,29.868922739583333,59.0,71.0
75,29.641100379166666,30.18948694583333,51.0,59.0
76,30.124970879166664,30.451583466666666,56.0,82.0
77,30.124970879166664,30.469728610416666,59.0,84.0
78,30.366906129166665,30.856825010416664,51.0,79.0
79,29.157229879166664,30.9072281875,44.0,75.0
80,30.608841379166666,30.931421712499997,63.0,85.0
81,30.850776629166663,31.187469852083332,56.0,73.0
82,31.092711879166664,32.10077542083333,61.0,82.0
83,31.576582379166666,32.16125923333333,56.0,69.0
84,31.092711879166664,32.54230725208333,49.0,84.0
85,32.06045287916667,33.040290641666665,64.0,79.0
86,32.54432337916666,33.120935724999995,56.0,68.0
87,33.028193879166665,33.73585448541667,61.0,76.0
88,33.51206437916667,33.9314188125,56.0,69.0
89,33.028193879166665,34.503998904166664,49.0,79.0
90,33.99593487916666,34.52012792083333,64.0,82.0
91,33.99593487916666,35.01004680208333,61.0,79.0
92,34.47980537916666,35.01407905625,56.0,73.0
93,34.963675879166665,35.5160947,59.0,72.0
94,35.93141687916666,36.11891669791667,59.0,81.0
95,35.93141687916666,36.13101346041667,56.0,76.0
96,35.93141687916666,36.1330295875,63.0,84.0
97,34.963675879166665,36.675367772916665,44.0,77.0
98,36.415287379166664,36.70964193333333,63.0,77.0
99,35.44754637916667,36.7136741875,51.0,58.0
100,36.65722262916667,36.93746429375,64.0,79.0
101,36.899157879166665,37.89714078541667,63.0,83.0
102,37.38302837916667,37.99794713958333,51.0,75.0
103,37.86689887916666,38.139076035416664,56.0,79.0
104,36.899157879166665,38.272140422916664,44.0,81.0
105,38.10883412916667,38.348753252083334,51.0,77.0
106,37.86689887916666,38.374962904166665,59.0,84.0
107,38.350769379166664,38.56649497708333,56.0,81.0
108,38.834639879166666,39.758026083333334,57.0,72.0
109,38.834639879166666,39.8346389125,61.0,76.0
110,39.31851037916667,39.96568717291667,52.0,66.0
111,38.834639879166666,40.274154616666664,45.0,85.0
112,40.286251379166664,40.70762193958333,52.0,78.0
113,39.80238087916666,41.27616977708333,64.0,84.0
114,40.52818662916666,41.459637341666664,57.0,72.0
115,40.770121879166666,41.93544333333333,45.0,79.0
116,41.25399237916666,42.00600778125,52.0,67.0
117,41.73786287916666,42.05439483125,57.0,84.0
118,41.73786287916666,42.11891089791666,64.0,81.0
119,41.73786287916666,42.128991533333334,61.0,84.0
120,42.221733379166665,42.556410475,45.0,75.0
121,42.70560387916667,43.23987755625,56.0,73.0
122,42.70560387916667,43.247942064583334,59.0,77.0
123,43.18947437916666,43.75600608958333,51.0,70.0
124,43.67334487916666,43.973747814583334,56.0,79.0
125,43.67334487916666,44.07657029583333,63.0,86.0
126,44.157215379166665,44.48181183958333,61.0,78.0
127,42.70560387916667,44.501973110416664,44.0,84.0
128,43.91528012916667,44.54229565208333,51.0,73.0
129,44.39915062916666,44.70560194583333,63.0,80.0
130,44.64108587916667,45.221730479166666,56.0,70.0
131,44.64108587916667,45.253988512499994,59.0,70.0
132,45.608826879166664,45.82858473125,59.0,85.0
133,45.608826879166664,45.86487501875,56.0,80.0
134,45.12495637916666,45.88503628958333,51.0,65.0
135,44.64108587916667,45.935439466666665,44.0,72.0
136,46.57656787916667,47.239873689583334,61.0,78.0
137,46.57656787916667,47.54834113333333,54.0,79.0
138,47.544308879166664,47.81043765416666,57.0,85.0
139,47.06043837916666,48.29834040833333,49.0,74.0
140,46.57656787916667,48.314469425,42.0,84.0
141,47.78624412916666,48.61285623333333,54.0,81.0
142,48.27011462916666,48.81446894166666,57.0,75.0
143,48.028179379166666,48.96366234583333,61.0,80.0
144,48.51204987916666,48.96366234583333,66.0,79.0
145,48.99592037916666,49.65317780833333,49.0,57.0
146,48.51204987916666,49.782209941666665,42.0,80.0
147,49.479790879166664,49.782209941666665,54.0,84.0
148,49.479790879166664,49.81245184791666,61.0,82.0
149,50.44753187916666,50.68140262083333,54.0,77.0
150,50.93140237916666,51.20156340833333,54.0,80.0
151,50.44753187916666,51.30438588958333,63.0,84.0
152,50.44753187916666,51.39712773541667,47.0,78.0
153,51.415272879166665,51.626966222916664,54.0,83.0
154,51.415272879166665,52.44954607291666,61.0,81.0
155,51.89914337916667,52.47373959791666,54.0,75.0
156,52.38301387916666,52.90115853958333,59.0,79.0
157,53.350754879166665,53.55841596875,54.0,80.0
158,53.350754879166665,53.8184963625,59.0,85.0
159,53.83462537916667,54.28220559166667,56.0,78.0
160,52.38301387916666,54.3507539125,47.0,84.0
161,54.31849587916666,54.5684956375,56.0,75.0
162,54.31849587916666,55.050350010416665,61.0,80.0
163,55.286236879166665,55.34873681875,61.0,46.0
164,54.80236637916666,55.35075294583333,56.0,72.0
165,55.286236879166665,55.90115563958333,64.0,81.0
166,54.31849587916666,55.97978459583333,49.0,84.0
167,55.77010737916666,56.328574581249995,56.0,79.0
168,56.25397787916666,56.79631606458333,61.0,78.0
169,57.221718879166666,57.42937996875,56.0,73.0
170,56.25397787916666,57.67333134583333,49.0,82.0
171,57.221718879166666,57.735831285416666,64.0,80.0
172,57.221718879166666,57.737847412499995,61.0,79.0
173,57.70558937916666,57.826557004166666,56.0,59.0
174,58.18945987916666,58.699540031249995,56.0,73.0
175,58.18945987916666,58.71365292083333,59.0,76.0
176,58.673330379166664,59.29429752083333,51.0,66.0
177,59.157200879166666,59.949538822916665,56.0,84.0
178,59.157200879166666,59.9878452375,63.0,85.0
179,58.18945987916666,60.024135525,44.0,84.0
180,59.64107137916666,60.03220003333333,51.0,61.0
181,60.12494187916666,60.82453797708333,56.0,71.0
182,60.12494187916666,60.83663473958333,59.0,71.0
183,60.608812379166665,61.15719894583333,51.0,59.0
184,61.09268287916667,61.41929546666666,56.0,82.0
185,61.09268287916667,61.437440610416665,59.0,84.0
186,61.334618129166664,61.82453701041666,51.0,79.0
187,60.12494187916666,61.874940187499995,44.0,75.0
188,61.57655337916666,61.899133712499996,63.0,85.0
189,61.818488629166666,62.15518185208333,56.0,73.0
190,62.06042387916666,63.06848742083333,61.0,82.0
191,62.544294379166665,63.12897123333333,56.0,69.0
192,62.06042387916666,63.51001925208333,49.0,84.0
193,63.02816487916666,64.00800264166666,64.0,79.0
194,63.51203537916666,64.088647725,56.0,68.0
195,63.99590587916666,64.70356648541666,61.0,76.0
196,64.47977637916667,64.89913081249999,56.0,69.0
197,63.99590587916666,65.47171090416667,49.0,79.0
198,64.96364687916666,65.48783992083332,64.0,82.0
199,64.96364687916666,65.97775880208333,61.0,79.0
200,65.44751737916667,65.98179105625,56.0,73.0
201,65.93138787916666,66.4838067,59.0,72.0
202,66.89912887916667,67.08662869791667,59.0,81.0
203,66.89912887916667,67.09872546041666,56.0,76.0
204,66.89912887916667,67.1007415875,63.0,84.0
205,65.93138787916666,67.64307977291666,44.0,77.0
206,67.38299937916666,67.67735393333334,63.0,77.0
207,66.41525837916666,67.6813861875,51.0,58.0
208,67.62493462916666,67.90517629375,64.0,79.0
209,67.86686987916666,68.86485278541666,63.0,83.0
210,68.35074037916667,68.96565913958332,51.0,75.0
211,68.83461087916666,69.10678803541666,56.0,79.0
212,67.86686987916666,69.23985242291667,44.0,81.0
213,69.07654612916666,69.31646525208333,51.0,77.0
214,68.83461087916666,69.34267490416666,59.0,84.0
215,69.31848137916667,69.53420697708333,56.0,81.0
216,69.80235187916666,70.72573808333333,57.0,72.0
217,69.80235187916666,70.8023509125,61.0,76.0
218,70.28622237916666,70.93339917291667,52.0,66.0
219,69.80235187916666,71.24186661666667,45.0,85.0
220,71.25396337916666,71.67533393958333,52.0,78.0
221,70.77009287916667,72.24388177708333,64.0,84.0
222,71.49589862916666,72.42734934166667,57.0,72.0
223,71.73783387916666,72.90315533333333,45.0,79.0
224,72.22170437916667,72.97371978125,52.0,67.0
225,72.70557487916666,73.02210683125,57.0,84.0
226,72.70557487916666,73.08662289791667,64.0,81.0
227,72.70557487916666,73.09670353333333,61.0,84.0
228,73.18944537916666,73.524122475,45.0,75.0
229,73.67331587916667,74.39912162916666,63.0,82.0
230,73.67331587916667,74.42533128125,56.0,76.0
231,74.15718637916666,74.73783097916666,51.0,75.0
232,74.64105687916667,75.09468547291667,59.0,90.0
233,73.67331587916667,75.266056275,44.0,84.0
234,74.88299212916667,75.27412078333333,51.0,78.0
235,75.12492737916666,75.6894429625,56.0,84.0
236,75.60879787916666,76.40113582291666,61.0,83.0
237,76.33460362916666,76.669280725,56.0,79.0
238,76.09266837916667,76.97371591458332,52.0,69.0
239,75.60879787916666,76.98581267708333,49.0,85.0
240,76.81847412916666,77.07653839583332,56.0,84.0
241,76.57653887916666,77.13298995416666,64.0,85.0
242,77.06040937916666,77.58057016666666,63.0,85.0
243,77.30234462916667,77.61686045416667,56.0,70.0
244,77.54427987916667,78.05436003125,61.0,82.0
245,78.02815037916666,78.70355295208333,49.0,64.0
246,78.51202087916666,78.74790774791666,54.0,76.0
247,78.51202087916666,78.7862141625,57.0,79.0
248,78.51202087916666,78.89105277083333,61.0,83.0
249,77.54427987916667,79.01000426875,42.0,83.0
250,78.99589137916666,79.26202015416666,54.0,55.0
251,79.47976187916666,80.09871289374999,54.0,75.0
252,79.47976187916666,80.13298705416666,61.0,78.0
253,79.96363237916667,80.51403507291666,49.0,67.0
254,80.44750287916666,80.7095994,54.0,85.0
255,80.44750287916666,80.76605095833332,57.0,85.0
256,80.44750287916666,80.88500245624999,61.0,85.0
257,79.47976187916666,80.94347014166667,42.0,81.0
258,80.68943812916666,81.0362119875,49.0,77.0
259,80.93137337916666,81.24790533125,54.0,85.0
260,81.17330862916667,81.314437525,57.0,79.0
261,81.41524387916667,81.53419537708334,35.0,85.0
262,81.41524387916667,82.18742055208332,59.0,84.0
263,81.41524387916667,82.20556569583333,54.0,85.0
264,82.38298487916666,82.59266209583333,54.0,87.0
265,82.38298487916666,82.70556521249999,59.0,90.0
266,82.38298487916666,82.766049025,63.0,88.0
267,82.86685537916667,82.93741982708333,63.0,55.0
268,82.62492012916667,83.11483901041666,51.0,78.0
269,82.86685537916667,83.1410486625,54.0,86.0
270,83.10879062916666,83.21967761875,59.0,85.0
271,83.35072587916666,83.73983840625,51.0,80.0
272,83.35072587916666,83.75999967708333,47.0,83.0
273,83.35072587916666,83.97370914791667,61.0,86.0
274,83.35072587916666,84.02008007083333,73.0,87.0
275,84.31846687916666,84.51403120625,47.0,87.0
276,84.31846687916666,84.54024085833333,51.0,85.0
277,84.80233737916666,85.10072418749999,42.0,68.0
278,85.04427262916666,85.13499834791666,54.0,79.0
279,85.28620787916667,85.45556255416666,75.0,93.0
280,85.28620787916667,85.49588509583333,63.0,87.0
281,85.28620787916667,85.50596573125,51.0,84.0
282,85.28620787916667,85.50798185833332,47.0,85.0
283,85.77007837916666,86.04830391666667,42.0,69.0
284,86.01201362916666,86.3345939625,54.0,87.0
285,86.01201362916666,86.3345939625,59.0,87.0
286,86.25394887916666,86.52612603541667,51.0,75.0
287,86.25394887916666,86.55031956041667,47.0,77.0
288,86.49588412916667,86.69548071041666,54.0,80.0
289,86.49588412916667,86.73177099791666,63.0,91.0
290,86.49588412916667,86.7458838875,59.0,85.0
291,86.97975462916666,87.09669,54.0,64.0
292,87.22168987916666,87.4958831625,54.0,84.0
293,87.22168987916666,87.49991541666667,47.0,86.0
294,87.22168987916666,87.49991541666667,51.0,85.0
295,87.22168987916666,87.52410894166667,59.0,86.0
296,87.22168987916666,87.66322171041666,66.0,84.0
297,87.70556037916666,87.9071730875,51.0,76.0
298,87.70556037916666,87.90918921458334,47.0,79.0
299,88.18943087916666,88.30435012291666,61.0,91.0
300,88.18943087916666,88.30838237708333,73.0,98.0
301,88.18943087916666,88.717656175,51.0,85.0
302,88.18943087916666,88.73983357291667,47.0,78.0
303,88.67330137916666,88.77209160625,63.0,95.0
304,88.67330137916666,88.79023674999999,75.0,91.0
305,89.15717187916667,89.37289747708333,56.0,78.0
306,89.15717187916667,89.70555844583333,64.0,83.0
307,89.64104237916666,89.93539693333332,56.0,78.0
308,90.12491287916666,90.28217079166666,56.0,84.0
309,90.12491287916666,90.34668685833333,59.0,86.0
310,90.12491287916666,90.35676749375,64.0,85.0
311,90.36684812916666,90.77813805416666,47.0,80.0
312,89.15717187916667,90.92733145833333,40.0,83.0
313,90.60878337916667,90.93942822083334,56.0,77.0
314,90.85071862916666,91.03015393958333,59.0,81.0
315,91.09265387916666,91.59870177708333,56.0,77.0
316,91.09265387916666,91.63902431874999,59.0,84.0
317,91.09265387916666,91.64910495416666,64.0,82.0
318,91.57652437916666,92.1168464375,47.0,64.0
319,92.06039487916667,92.29829787499999,56.0,83.0
320,92.06039487916667,92.32450752708333,59.0,90.0
321,91.09265387916666,92.37491070416667,40.0,84.0
322,92.30233012916666,92.40112035624999,47.0,84.0
323,92.06039487916667,92.40515261041666,64.0,84.0
324,92.54426537916666,92.88902311041666,56.0,84.0
325,93.02813587916665,93.33458719583332,56.0,70.0
326,93.02813587916665,93.44144193125,63.0,85.0
327,93.51200637916666,94.02611878541666,51.0,71.0
328,93.99587687916666,94.18740895208333,59.0,85.0
329,93.99587687916666,94.21563473124999,56.0,83.0
330,93.99587687916666,94.25394114583332,63.0,90.0
331,94.23781212916666,94.64708592708332,51.0,79.0
332,93.02813587916665,94.69345684999999,44.0,85.0
333,94.47974737916667,94.76805355208333,61.0,76.0
334,94.72168262916666,94.9716823875,63.0,78.0
335,94.96361787916666,95.43539161666666,56.0,75.0
336,94.96361787916666,95.46563352291666,59.0,74.0
337,95.44748837916666,96.02208459791666,51.0,74.0
338,95.93135887916667,96.17329412916666,56.0,85.0
339,95.93135887916667,96.25192308541666,63.0,87.0
340,96.41522937916666,96.48377769999999,56.0,72.0
341,96.17329412916666,96.5200679875,51.0,79.0
342,94.96361787916666,96.60676145208333,44.0,84.0
343,96.41522937916666,96.653132375,59.0,84.0
344,96.65716462916666,96.80837416041666,56.0,75.0
345,96.89909987916666,97.47167997083332,64.0,85.0
346,97.38297037916666,97.69345394999999,56.0,79.0
347,96.89909987916666,97.95151821666666,49.0,85.0
348,97.86684087916666,98.12087289166666,56.0,84.0
349,97.86684087916666,98.17127606874999,61.0,84.0
350,97.86684087916666,98.18337283125,64.0,85.0
351,98.10877612916666,98.2136147375,49.0,76.0
352,98.35071137916667,98.709582,56.0,84.0
353,98.59264662916667,98.74788841458333,61.0,76.0
354,98.83458187916666,99.10272678125,56.0,80.0
355,98.83458187916666,99.23377504166666,64.0,80.0
356,98.83458187916666,99.40716197083333,61.0,84.0
357,99.31845237916666,99.50998445208333,56.0,75.0
358,98.83458187916666,99.653129475,37.0,85.0
359,99.80232287916667,100.0039355875,56.0,85.0
360,99.80232287916667,100.17933864375,64.0,85.0
361,99.80232287916667,100.18135477083332,61.0,86.0
362,100.28619337916666,100.50191897708333,37.0,87.0
363,100.28619337916666,100.5845801875,56.0,78.0
364,100.28619337916666,100.65917688958332,61.0,80.0
365,100.77006387916666,100.96966046041666,54.0,79.0
366,100.77006387916666,101.08659583125,59.0,78.0
367,101.25393437916667,101.33861171666666,59.0,65.0
368,101.25393437916667,101.45957934166667,54.0,79.0
369,100.77006387916666,101.49586962916666,47.0,86.0
370,101.73780487916666,101.96159498541667,54.0,85.0
371,101.73780487916666,102.06240133958333,59.0,86.0
372,101.73780487916666,102.26401404791666,63.0,88.0
373,102.22167537916665,102.55433634791666,54.0,88.0
374,102.70554587916666,102.92127147708332,54.0,84.0
375,102.70554587916666,103.24183568333333,59.0,80.0
376,103.18941637916666,103.46562578958333,54.0,78.0
377,103.67328687916667,103.93135114583333,54.0,85.0
378,102.70554587916666,103.95352854375,47.0,95.0
379,103.67328687916667,103.99788333958332,59.0,86.0
380,103.67328687916667,104.03417362708333,63.0,89.0
381,104.15715737916666,104.29022176666666,59.0,79.0
382,104.15715737916666,104.30635078333333,47.0,90.0
383,104.15715737916666,104.33659268958333,54.0,83.0
384,104.64102787916666,104.87288249375,52.0,80.0
385,104.64102787916666,104.99788237291666,57.0,79.0
386,104.64102787916666,105.00393075416666,61.0,83.0
387,105.12489837916667,105.55836570208332,52.0,79.0
388,105.60876887916666,105.69747847083333,57.0,72.0
389,105.85070412916666,106.10876839583332,52.0,85.0
390,104.64102787916666,106.11884903125,45.0,87.0
391,105.60876887916666,106.13901030208332,64.0,85.0
392,106.09263937916666,106.38094555208333,57.0,81.0
393,106.57650987916666,106.63497756458332,57.0,57.0
394,106.33457462916667,106.64909045416667,52.0,83.0
395,106.57650987916666,106.959574025,61.0,82.0
396,106.81844512916666,107.12892869999999,52.0,73.0
397,107.06038037916666,107.27408985,57.0,69.0
398,106.57650987916666,107.41925099999999,45.0,85.0
399,107.54425087916665,107.74989584166666,52.0,76.0
400,107.54425087916665,107.85675057708333,45.0,87.0
401,107.54425087916665,107.88296022916666,57.0,72.0
402,108.02812137916666,108.13094386041666,45.0,87.0
403,108.02812137916666,108.13094386041666,52.0,84.0
404,107.54425087916665,108.4232822875,64.0,82.0
405,108.51199187916666,108.89707215208333,56.0,79.0
406,108.51199187916666,108.91521729583333,59.0,79.0
407,108.99586237916667,109.59666825,51.0,74.0
408,109.47973287916666,109.64303917291666,56.0,85.0
409,109.47973287916666,109.65715206249999,63.0,87.0
410,109.72166812916666,110.07045811458333,51.0,77.0
411,109.96360337916666,110.17328059583333,59.0,84.0
412,108.51199187916666,110.24586117083332,44.0,85.0
413,110.20553862916667,110.35473203333332,56.0,71.0
414,110.44747387916667,110.86279605833333,56.0,74.0
415,110.44747387916667,110.87086056666666,59.0,76.0
416,111.17327962916666,111.28819887291667,56.0,81.0
417,110.93134437916666,111.39505360833333,51.0,60.0
418,111.41521487916665,111.70755330624999,56.0,81.0
419,111.41521487916665,111.74585972083332,59.0,85.0
420,111.41521487916665,111.749891975,63.0,86.0
421,111.65715012916667,111.86682734583333,51.0,86.0
422,110.44747387916667,111.88698861666666,44.0,79.0
423,111.89908537916666,112.02005300416666,56.0,83.0
424,112.38295587916666,112.69343945,54.0,80.0
425,112.38295587916666,112.73981037291666,57.0,84.0
426,112.38295587916666,112.81843932916667,61.0,80.0
427,112.86682637916667,112.9353747,54.0,85.0
428,112.86682637916667,113.11279388333332,49.0,72.0
429,112.38295587916666,113.11884226458332,42.0,85.0
430,113.35069687916666,113.96561563958333,42.0,86.0
431,113.35069687916666,114.13497031458333,49.0,85.0
432,114.31843787916667,114.72771167708332,61.0,90.0
433,114.31843787916667,114.76803421874999,54.0,85.0
434,115.04424362916666,115.14303385625,54.0,73.0
435,114.80230837916666,115.39706586874999,49.0,80.0
436,115.28617887916666,115.5482754,54.0,85.0
437,115.28617887916666,115.58053343333333,57.0,87.0
438,114.31843787916667,115.58658181458333,42.0,85.0
439,115.28617887916666,115.63496886458333,61.0,86.0
440,115.52811412916667,115.67327527916666,49.0,80.0
441,115.77004937916666,115.94948468958333,54.0,81.0
442,115.77004937916666,116.1168232375,42.0,84.0
443,116.25391987916666,116.48980674791666,54.0,79.0
444,116.25391987916666,116.55029056041666,59.0,83.0
445,116.73779037916665,117.02811267916665,59.0,82.0
446,117.22166087916666,117.459563875,54.0,86.0
447,116.25391987916666,117.56037022916667,47.0,86.0
448,117.22166087916666,117.61682178749999,61.0,88.0
449,117.70553137916666,118.03012783958333,54.0,87.0
450,118.18940187916667,118.40109522291667,54.0,84.0
451,118.18940187916667,118.51399833958332,59.0,84.0
452,118.18940187916667,118.74786908124999,63.0,86.0
453,118.67327237916666,118.7781109875,54.0,72.0
454,118.91520762916666,119.02609461875,59.0,79.0
455,118.91520762916666,119.03819138124999,63.0,85.0
456,118.91520762916666,119.0442397625,54.0,79.0
457,118.18940187916667,119.28012663125,47.0,86.0
458,119.15714287916666,119.42528778124999,59.0,89.0
459,119.15714287916666,119.42730390833333,54.0,85.0
460,119.15714287916666,119.50190061041666,63.0,89.0
461,119.64101337916667,119.93738406041666,61.0,85.0
462,119.64101337916667,119.94544856875,54.0,79.0
463,119.39907812916665,120.08254521041665,47.0,85.0
464,119.88294862916666,120.10875486249999,59.0,85.0
465,120.12488387916666,120.34060947708333,56.0,78.0
466,120.12488387916666,120.67327044583332,64.0,83.0
467,120.60875437916665,120.90310893333333,56.0,78.0
468,121.09262487916666,121.24988279166666,56.0,84.0
469,121.09262487916666,121.31439885833333,59.0,86.0
470,121.09262487916666,121.32447949374999,64.0,85.0
471,121.33456012916666,121.74585005416667,47.0,80.0
472,120.12488387916666,121.89504345833333,40.0,83.0
473,121.57649537916666,121.90714022083333,56.0,77.0
474,121.81843062916666,121.99786593958332,59.0,81.0
475,122.06036587916665,122.56641377708333,56.0,77.0
476,122.06036587916665,122.60673631875,59.0,84.0
477,122.06036587916665,122.61681695416667,64.0,82.0
478,122.54423637916666,123.0845584375,47.0,64.0
479,123.02810687916666,123.266009875,56.0,83.0
480,123.02810687916666,123.29221952708333,59.0,90.0
481,122.06036587916665,123.34262270416666,40.0,84.0
482,123.27004212916665,123.36883235625,47.0,84.0
483,123.02810687916666,123.37286461041666,64.0,84.0
484,123.51197737916667,123.85673511041666,56.0,84.0
485,123.99584787916666,124.30229919583333,56.0,70.0
486,123.99584787916666,124.40915393124999,63.0,85.0
487,124.47971837916666,124.99383078541666,51.0,71.0
488,124.96358887916666,125.15512095208332,59.0,85.0
489,124.96358887916666,125.18334673125,56.0,83.0
490,124.96358887916666,125.22165314583333,63.0,90.0
491,125.20552412916666,125.61479792708333,51.0,79.0
492,123.99584787916666,125.66116885,44.0,85.0
493,125.44745937916666,125.73576555208332,61.0,76.0
494,125.68939462916666,125.93939438749999,63.0,78.0
495,125.93132987916665,126.40310361666666,56.0,75.0
496,125.93132987916665,126.43334552291665,59.0,74.0
497,126.41520037916666,126.98979659791667,51.0,74.0
498,126.89907087916666,127.14100612916666,56.0,85.0
499,126.89907087916666,127.21963508541666,63.0,87.0
500,127.38294137916667,127.4514897,56.0,72.0
501,127.14100612916666,127.48777998749999,51.0,79.0
502,125.93132987916665,127.57447345208332,44.0,84.0
503,127.38294137916667,127.62084437499999,59.0,84.0
504,127.62487662916666,127.77608616041665,56.0,75.0
505,127.86681187916666,128.43939197083333,64.0,85.0
506,128.35068237916667,128.66116595,56.0,79.0
507,127.86681187916666,128.91923021666665,49.0,85.0
508,128.83455287916667,129.08858489166667,56.0,84.0
509,128.83455287916667,129.13898806875,61.0,84.0
510,128.83455287916667,129.15108483125,64.0,85.0
511,129.07648812916665,129.1813267375,49.0,76.0
512,129.31842337916666,129.677294,56.0,84.0
513,129.56035862916667,129.71560041458332,61.0,76.0
514,129.80229387916665,130.07043878125,56.0,80.0
515,129.80229387916665,130.20148704166667,64.0,80.0
516,129.80229387916665,130.37487397083333,61.0,84.0
517,130.28616437916665,130.47769645208334,56.0,75.0
518,129.80229387916665,130.620841475,37.0,85.0
519,130.77003487916667,130.9716475875,56.0,85.0
520,130.77003487916667,131.14705064375,64.0,85.0
521,130.77003487916667,131.14906677083331,61.0,86.0
522,131.25390537916667,131.4696309770833,37.0,87.0
523,131.25390537916667,131.5522921875,56.0,78.0
524,131.25390537916667,131.6268888895833,61.0,80.0
525,131.73777587916666,131.93737246041667,54.0,79.0
526,131.73777587916666,132.05430783125,59.0,78.0
527,132.22164637916666,132.30632371666667,59.0,65.0
528,132.22164637916666,132.42729134166666,54.0,79.0
529,131.73777587916666,132.46358162916667,47.0,86.0
530,132.70551687916665,132.92930698541667,54.0,85.0
531,132.70551687916665,133.03011333958332,59.0,86.0
532,132.70551687916665,133.23172604791665,63.0,88.0
533,133.18938737916665,133.52204834791667,54.0,88.0
534,133.67325787916667,133.88898347708331,54.0,84.0
535,133.67325787916667,134.2095476833333,59.0,80.0
536,134.15712837916666,134.43333778958333,54.0,78.0
537,134.64099887916666,134.89906314583334,54.0,85.0
538,133.67325787916667,134.92124054375,47.0,95.0
539,134.64099887916666,134.96559533958333,59.0,86.0
540,134.64099887916666,135.00188562708334,63.0,89.0
541,135.12486937916665,135.25793376666667,59.0,79.0
542,135.12486937916665,135.27406278333333,47.0,90.0
543,135.12486937916665,135.30430468958332,54.0,83.0
544,135.60873987916665,135.84059449375,52.0,80.0
545,135.60873987916665,135.96559437291666,57.0,79.0
546,135.60873987916665,135.97164275416665,61.0,83.0
547,136.09261037916667,136.5260777020833,52.0,79.0
548,136.57648087916667,136.66519047083332,57.0,72.0
549,136.81841612916665,137.07648039583333,52.0,85.0
550,135.60873987916665,137.08656103125,45.0,87.0
551,136.57648087916667,137.1067223020833,64.0,85.0
552,137.06035137916666,137.34865755208332,57.0,81.0
553,137.54422187916666,137.60268956458333,57.0,57.0
554,137.30228662916667,137.61680245416665,52.0,83.0
555,137.54422187916666,137.927286025,61.0,82.0
556,137.78615712916667,138.0966407,52.0,73.0
557,138.02809237916665,138.24180185,57.0,69.0
558,137.54422187916666,138.38696299999998,45.0,85.0
559,138.51196287916665,138.71760784166665,52.0,76.0
560,138.51196287916665,138.82446257708332,45.0,87.0
561,138.51196287916665,138.85067222916666,57.0,72.0
562,138.99583337916667,139.09865586041667,45.0,87.0
563,138.99583337916667,139.09865586041667,52.0,84.0
564,138.51196287916665,139.39099428749998,64.0,82.0
565,139.47970387916666,139.86478415208333,56.0,79.0
566,139.47970387916666,139.88292929583332,59.0,79.0
567,139.96357437916666,140.56438025,51.0,74.0
568,140.44744487916665,140.61075117291665,56.0,85.0
569,140.44744487916665,140.6248640625,63.0,87.0
570,140.68938012916666,141.03817011458332,51.0,77.0
571,140.93131537916665,141.14099259583332,59.0,84.0
572,139.47970387916666,141.2135731708333,44.0,85.0
573,141.17325062916666,141.3224440333333,56.0,71.0
574,141.41518587916667,141.83050805833332,56.0,74.0
575,141.41518587916667,141.83857256666667,59.0,76.0
576,142.14099162916665,142.25591087291667,56.0,81.0
577,141.89905637916667,142.36276560833332,51.0,60.0
578,142.38292687916666,142.67526530625,56.0,81.0
579,142.38292687916666,142.71357172083333,59.0,85.0
580,142.38292687916666,142.717603975,63.0,86.0
581,142.62486212916667,142.83453934583332,51.0,86.0
582,141.41518587916667,142.85470061666666,44.0,79.0
583,142.86679737916666,142.98776500416665,56.0,83.0
584,143.35066787916665,143.84461901458332,54.0,79.0
585,143.35066787916665,143.85671577708334,57.0,73.0
586,143.35066787916665,143.86276415833333,61.0,83.0
587,143.83453837916664,144.38090881875,49.0,74.0
588,144.31840887916667,144.5684086375,54.0,84.0
589,144.31840887916667,144.65510210208333,57.0,87.0
590,144.31840887916667,144.69542464375,61.0,87.0
591,144.56034412916665,145.08252104375,49.0,79.0
592,143.35066787916665,145.10268231458332,42.0,85.0
593,144.80227937916666,145.11881133125,54.0,83.0
594,145.04421462916665,145.16518225416667,57.0,84.0
595,145.28614987916666,145.55429478124998,54.0,79.0
596,145.28614987916666,145.98977823125,59.0,83.0
597,145.77002037916665,146.02808464583333,54.0,76.0
598,146.25389087916665,146.46356809583332,54.0,85.0
599,146.25389087916665,146.61679375416665,59.0,84.0
600,145.28614987916666,146.69542271041666,47.0,84.0
601,146.25389087916665,146.733729125,63.0,85.0
602,146.73776137916667,146.83856773333332,54.0,72.0
603,147.22163187916667,147.63695405833332,56.0,72.0
604,147.22163187916667,147.67324434583333,52.0,71.0
605,147.70550237916666,148.29017923333333,47.0,67.0
606,148.18937287916665,148.37284044375,59.0,83.0
607,148.18937287916665,148.42122749375,52.0,80.0
608,147.22163187916667,148.45146939999998,40.0,85.0
609,148.91517862916666,149.03211399999998,56.0,65.0
610,148.91517862916666,149.056307525,59.0,72.0
611,149.15711387916667,149.55429091458333,64.0,84.0
612,149.15711387916667,149.59461345625,56.0,79.0
613,149.15711387916667,149.61477472708333,59.0,84.0
614,149.64098437916667,150.21154834375,47.0,71.0
615,150.12485487916666,150.3748546375,52.0,83.0
616,150.12485487916666,150.46154810208333,56.0,86.0
617,150.60872537916666,150.6893704625,56.0,68.0
618,150.12485487916666,150.74783814791667,59.0,85.0
619,149.15711387916667,150.78211230833332,40.0,85.0
620,150.36679012916665,150.798241325,47.0,78.0
621,150.85066062916667,150.92928958541665,59.0,49.0
622,150.60872537916666,150.99783790625,52.0,86.0
623,150.85066062916667,151.02001530416666,56.0,80.0
624,150.12485487916666,151.05025721041665,64.0,82.0
625,151.09259587916665,151.51396643958333,64.0,78.0
626,151.33453112916666,151.65509533541666,56.0,70.0
627,151.57646637916665,151.85469191666667,59.0,70.0
628,151.81840162916666,152.39904622916666,64.0,83.0
629,152.30227212916665,152.63090084375,56.0,79.0
630,152.54420737916666,152.88493285625,59.0,76.0
631,151.09259587916665,152.89904574583332,40.0,84.0
632,152.06033687916667,152.903078,47.0,75.0
633,152.78614262916665,152.95348117708332,64.0,78.0
634,153.02807787916666,153.3022711625,56.0,77.0
635,153.02807787916666,153.40710977083333,59.0,80.0
636,153.02807787916666,153.41920653333332,64.0,84.0
637,153.51194837916665,153.77606102708333,56.0,70.0
638,153.27001312916667,154.12283488541667,47.0,76.0
639,153.99581887916665,154.22565736666667,56.0,85.0
640,153.99581887916665,154.30025406874998,59.0,88.0
641,153.02807787916666,154.32646372083332,40.0,84.0
642,154.23775412916666,154.34259273749998,47.0,79.0
643,153.99581887916665,154.35872175416665,64.0,85.0
644,154.72162462916666,154.8103342208333,59.0,77.0
645,154.47968937916667,154.83452774583333,56.0,73.0
646,154.96355987916667,155.21960801875,56.0,78.0
647,154.96355987916667,155.47162390416665,59.0,84.0
648,155.44743037916666,155.72363978958333,56.0,74.0
649,155.68936562916664,155.99380081875,59.0,77.0
650,155.93130087916666,156.24783283124998,63.0,91.0
651,156.17323612916667,156.4837197,59.0,77.0
652,155.20549512916665,156.71557431458334,51.0,82.0
653,154.96355987916667,156.72968720416665,44.0,84.0
654,156.41517137916665,157.08049331666666,56.0,84.0
655,156.65710662916666,157.48170260625,63.0,85.0
656,157.14097712916666,157.814363575,51.0,73.0
657,157.38291237916667,157.92121831041666,56.0,75.0
658,156.89904187916665,158.05428269791665,44.0,85.0
659,157.62484762916665,158.13291165416666,59.0,80.0
660,158.10871812916665,158.53412094375,56.0,79.0
661,157.86678287916666,158.61476602708333,51.0,85.0
662,158.35065337916666,158.65307244166667,59.0,86.0
663,158.59258862916667,158.88694318333333,63.0,83.0
664,158.83452387916665,159.39299108125,61.0,80.0
665,159.31839437916665,159.90508736041664,57.0,77.0
666,159.07645912916666,160.15911937291665,52.0,67.0
667,158.83452387916665,160.34661919166666,45.0,85.0
668,159.56032962916666,160.56234478958334,64.0,85.0
669,160.28613537916667,160.64903825416667,52.0,80.0
670,160.04420012916665,160.66919952499998,61.0,83.0
671,160.52807062916665,160.6812962875,57.0,82.0
672,160.77000587916666,161.2861344125,59.0,77.0
673,161.25387637916666,161.54823093333331,56.0,78.0
674,161.01194112916667,161.5764567125,51.0,81.0
675,161.49581162916667,161.9998434,63.0,90.0
676,161.97968212916666,162.26193992083333,59.0,85.0
677,160.77000587916666,162.43532685,44.0,86.0
678,161.73774687916665,162.49984291666667,51.0,78.0
679,162.22161737916664,162.57645574583333,56.0,79.0
680,162.46355262916666,162.75589105625,59.0,73.0
681,162.70548787916667,162.75589105625,59.0,81.0
682,163.18935837916666,163.58048703333333,52.0,78.0
683,163.43129362916665,163.92121251041667,64.0,84.0
684,163.91516412916667,164.19338966666666,59.0,85.0
685,162.94742312916665,164.44540555208332,47.0,73.0
686,164.15709937916665,164.44540555208332,56.0,72.0
687,162.70548787916667,164.5058893645833,40.0,80.0
688,164.39903462916666,165.22161447916665,59.0,84.0
689,164.88290512916666,165.49782388958332,47.0,77.0
690,165.12484037916667,165.82443647708334,52.0,80.0
691,165.60871087916667,166.01193629583332,47.0,77.0
692,164.64096987916665,166.01798467708332,40.0,84.0
693,165.85064612916665,166.15104906458333,59.0,84.0
694,165.36677562916665,166.15508131874998,64.0,84.0
695,166.09258137916666,166.19338773333334,52.0,85.0
696,166.57645187916665,166.7538710625,56.0,72.0
697,166.57645187916665,166.88088706874998,61.0,76.0
698,167.06032237916665,167.3224189,61.0,74.0
699,166.81838712916667,167.38088658541665,56.0,73.0
700,167.30225762916666,167.7720152395833,64.0,85.0
701,167.54419287916664,168.07645042916667,56.0,75.0
702,167.78612812916666,168.11072458958333,61.0,75.0
703,166.57645187916665,168.38895012708332,49.0,79.0
704,168.02806337916667,168.54015965833332,64.0,79.0
705,168.26999862916665,168.57040156458334,56.0,80.0
706,168.51193387916666,168.80628843333332,61.0,84.0
707,168.75386912916665,169.19136870625,56.0,80.0
708,168.99580437916666,169.30023956875,61.0,83.0
709,168.51193387916666,169.41717493958333,49.0,88.0
710,169.23773962916667,169.69338435,64.0,87.0
711,169.47967487916665,169.93935185416666,56.0,86.0
712,169.72161012916666,170.09459363958334,61.0,85.0
713,169.96354537916665,170.21354513749998,64.0,86.0
714,170.20548062916666,170.33652888958332,56.0,80.0
715,170.44741587916667,170.72564141666666,54.0,80.0
716,170.44741587916667,170.89499609166666,61.0,83.0
717,170.93128637916666,171.52201161458333,54.0,85.0
718,171.17322162916665,171.52805999583333,57.0,75.0
719,171.41515687916666,171.76596299166667,66.0,84.0
720,171.65709212916667,171.98975309791666,61.0,85.0
721,170.68935112916665,172.1248336125,49.0,70.0
722,171.89902737916665,172.12886586666664,57.0,86.0
723,170.44741587916667,172.20144644166666,42.0,84.0
724,172.14096262916667,172.28007539791665,54.0,85.0
725,172.38289787916665,172.52604290208333,54.0,84.0
726,172.38289787916665,172.68934919583333,59.0,84.0
727,172.62483312916666,173.00184889374998,54.0,83.0
728,172.86676837916664,173.16313906041665,59.0,80.0
729,173.10870362916665,173.30628408333334,61.0,84.0
730,173.35063887916667,173.63289667083333,63.0,77.0
731,172.38289787916665,173.89297706458333,47.0,88.0
732,173.59257412916665,173.89499319166666,61.0,78.0
733,173.83450937916666,174.03007370625,59.0,76.0
734,174.24176705,175.136927475,61.0,76.0
735,174.31636375208333,175.16918550833333,64.0,84.0
736,174.18329936458332,175.1974112875,56.0,74.0
737,175.27402411666665,175.8748299875,61.0,78.0
738,175.74378172708333,175.94136218124999,56.0,60.0
739,174.26797670208333,175.96757183333332,37.0,88.0
740,176.21958771874998,176.99176439166666,61.0,75.0
741,176.21757159166665,177.00587728124998,64.0,78.0
742,176.22160384583333,177.0441836958333,56.0,75.0
743,177.20748998958334,177.57442511874999,61.0,80.0
744,177.20547386249999,177.57845737291666,64.0,80.0
745,178.18934387916667,178.46152103541667,56.0,73.0
746,178.18934387916667,178.76998847916667,61.0,77.0
747,178.67321437916667,178.9917624583333,56.0,66.0
748,179.15708487916666,179.8062778,64.0,80.0
749,179.64095537916666,179.88289062916667,56.0,83.0
750,180.12482587916665,180.32845471458333,56.0,73.0
751,180.12482587916665,180.73571238541666,61.0,78.0
752,180.60869637916664,180.88692191666667,56.0,53.0
753,181.09256687916667,181.19135710625,61.0,72.0
754,181.09256687916667,181.34458276458332,64.0,78.0
755,181.09256687916667,181.3546634,56.0,81.0
756,181.57643737916666,181.87684031458332,59.0,80.0
757,181.81837262916665,182.02804984583332,61.0,79.0
758,178.18934387916667,182.104662675,37.0,80.0
759,182.06030787916666,182.3103076375,56.0,75.0
760,182.06030787916666,182.79216201041666,61.0,80.0
761,183.02804887916665,183.09054881875,61.0,46.0
762,182.54417837916665,183.09256494583332,56.0,72.0
763,183.02804887916665,183.64296763958333,64.0,81.0
764,182.06030787916666,183.72159659583332,49.0,84.0
765,183.51191937916667,184.07038658124998,56.0,79.0
766,183.99578987916667,184.53812806458333,61.0,78.0
767,184.96353087916665,185.17119196874998,56.0,73.0
768,183.99578987916667,185.41514334583331,49.0,82.0
769,184.96353087916665,185.47764328541666,64.0,80.0
770,184.96353087916665,185.47965941249998,61.0,79.0
771,185.44740137916665,185.56836900416667,56.0,59.0
772,185.93127187916664,186.44135203124998,56.0,73.0
773,185.93127187916664,186.45546492083332,59.0,76.0
774,186.41514237916667,187.03610952083332,51.0,66.0
775,186.89901287916666,187.69135082291666,56.0,84.0
776,186.89901287916666,187.7296572375,63.0,85.0
777,185.93127187916664,187.765947525,44.0,84.0
778,187.38288337916666,187.77401203333332,51.0,61.0
779,187.86675387916665,188.56634997708332,56.0,71.0
780,187.86675387916665,188.5784467395833,59.0,71.0
781,188.35062437916665,188.8990109458333,51.0,59.0
782,188.83449487916667,189.16110746666666,56.0,82.0
783,188.83449487916667,189.17925261041665,59.0,84.0
784,189.07643012916665,189.56634901041664,51.0,79.0
785,187.86675387916665,189.6167521875,44.0,75.0
786,189.31836537916666,189.64094571249998,63.0,85.0
787,189.56030062916665,189.8969938520833,56.0,73.0
788,189.80223587916666,190.81029942083333,61.0,82.0
789,190.28610637916665,190.87078323333333,56.0,69.0
790,189.80223587916666,191.25183125208332,49.0,84.0
791,190.76997687916665,191.74981464166666,64.0,79.0
792,191.25384737916664,191.830459725,56.0,68.0
793,191.73771787916667,192.44537848541665,61.0,76.0
794,192.22158837916666,192.6409428125,56.0,69.0
795,191.73771787916667,193.21352290416667,49.0,79.0
796,192.70545887916666,193.22965192083333,64.0,82.0
797,192.70545887916666,193.71957080208333,61.0,79.0
798,193.18932937916665,193.72360305625,56.0,73.0
799,193.67319987916665,194.22561869999998,59.0,72.0
800,194.64094087916666,194.82844069791665,59.0,81.0
801,194.64094087916666,194.84053746041667,56.0,76.0
802,194.64094087916666,194.8425535875,63.0,84.0
803,193.67319987916665,195.38489177291666,44.0,77.0
804,195.12481137916666,195.41916593333332,63.0,77.0
805,194.15707037916667,195.4231981875,51.0,58.0
806,195.36674662916667,195.64698829374998,64.0,79.0
807,195.60868187916665,196.60666478541665,63.0,83.0
808,196.09255237916665,196.70747113958333,51.0,75.0
809,196.57642287916664,196.84860003541667,56.0,79.0
810,195.60868187916665,196.98166442291665,44.0,81.0
811,196.81835812916665,197.05827725208331,51.0,77.0
812,196.57642287916664,197.08448690416665,59.0,84.0
813,197.06029337916667,197.2760189770833,56.0,81.0
814,197.54416387916666,198.46755008333332,57.0,72.0
815,197.54416387916666,198.54416291249998,61.0,76.0
816,198.02803437916666,198.67521117291665,52.0,66.0
817,197.54416387916666,198.98367861666665,45.0,85.0
818,198.99577537916664,199.41714593958332,52.0,78.0
819,198.51190487916665,199.98569377708333,64.0,84.0
820,199.23771062916666,200.16916134166667,57.0,72.0
821,199.47964587916667,200.6449673333333,45.0,79.0
822,199.96351637916666,200.71553178124998,52.0,67.0
823,200.44738687916666,200.76391883124998,57.0,84.0
824,200.44738687916666,200.82843489791665,64.0,81.0
825,200.44738687916666,200.83851553333332,61.0,84.0
826,200.93125737916665,201.265934475,45.0,75.0
827,201.41512787916665,202.14093362916665,63.0,82.0
828,201.41512787916665,202.16714328125,56.0,76.0
829,201.89899837916664,202.47964297916667,51.0,75.0
830,202.38286887916667,202.83649747291665,59.0,90.0
831,201.41512787916665,203.007868275,44.0,84.0
832,202.62480412916665,203.0159327833333,51.0,78.0
833,202.86673937916666,203.4312549625,56.0,84.0
834,203.35060987916665,204.14294782291665,61.0,83.0
835,204.07641562916666,204.411092725,56.0,79.0
836,203.83448037916665,204.71552791458333,52.0,69.0
837,203.35060987916665,204.72762467708333,49.0,85.0
838,204.56028612916666,204.81835039583333,56.0,84.0
839,204.31835087916664,204.87480195416666,64.0,85.0
840,204.80222137916667,205.32238216666664,63.0,85.0
841,205.04415662916665,205.35867245416665,56.0,70.0
842,205.28609187916666,205.79617203125,61.0,82.0
843,205.76996237916666,206.4453649520833,49.0,64.0
844,206.25383287916665,206.48971974791667,54.0,76.0
845,206.25383287916665,206.5280261625,57.0,79.0
846,206.25383287916665,206.63286477083332,61.0,83.0
847,205.28609187916666,206.75181626875,42.0,83.0
848,206.73770337916665,207.00383215416664,54.0,55.0
849,207.22157387916667,207.84052489375,54.0,75.0
850,207.22157387916667,207.87479905416666,61.0,78.0
851,207.70544437916666,208.25584707291665,49.0,67.0
852,208.18931487916666,208.45141139999998,54.0,85.0
853,208.18931487916666,208.50786295833333,57.0,85.0
854,208.18931487916666,208.62681445625,61.0,85.0
855,207.22157387916667,208.68528214166665,42.0,81.0
856,208.43125012916664,208.77802398749998,49.0,77.0
857,208.67318537916665,208.98971733124998,54.0,85.0
858,208.91512062916667,209.056249525,57.0,79.0
859,209.15705587916665,209.27600737708332,35.0,85.0
860,209.15705587916665,209.92923255208333,59.0,84.0
861,209.15705587916665,209.94737769583332,54.0,85.0
862,210.12479687916667,210.33447409583331,54.0,87.0
863,210.12479687916667,210.4473772125,59.0,90.0
864,210.12479687916667,210.50786102499998,63.0,88.0
865,210.60866737916666,210.67923182708333,63.0,55.0
866,210.36673212916665,210.85665101041667,51.0,78.0
867,210.60866737916666,210.88286066249998,54.0,86.0
868,210.85060262916664,210.96148961875,59.0,85.0
869,211.09253787916666,211.48165040625,51.0,80.0
870,211.09253787916666,211.5018116770833,47.0,83.0
871,211.09253787916666,211.71552114791666,61.0,86.0
872,211.09253787916666,211.7618920708333,73.0,87.0
873,212.06027887916665,212.25584320624998,47.0,87.0
874,212.06027887916665,212.28205285833332,51.0,85.0
875,212.54414937916667,212.8425361875,42.0,68.0
876,212.78608462916665,212.87681034791666,54.0,79.0
877,213.02801987916666,213.19737455416666,75.0,93.0
878,213.02801987916666,213.2376970958333,63.0,87.0
879,213.02801987916666,213.24777773124998,51.0,84.0
880,213.02801987916666,213.24979385833333,47.0,85.0
881,213.51189037916666,213.79011591666665,42.0,69.0
882,213.75382562916664,214.0764059625,54.0,87.0
883,213.75382562916664,214.0764059625,59.0,87.0
884,213.99576087916665,214.26793803541665,51.0,75.0
885,213.99576087916665,214.29213156041666,47.0,77.0
886,214.23769612916666,214.43729271041664,54.0,80.0
887,214.23769612916666,214.47358299791665,63.0,91.0
888,214.23769612916666,214.4876958875,59.0,85.0
889,214.72156662916666,214.83850199999998,54.0,64.0
890,214.96350187916664,215.2376951625,54.0,84.0
891,214.96350187916664,215.24172741666666,47.0,86.0
892,214.96350187916664,215.24172741666666,51.0,85.0
893,214.96350187916664,215.26592094166665,59.0,86.0
894,214.96350187916664,215.40503371041666,66.0,84.0
895,215.44737237916667,215.6489850875,51.0,76.0
896,215.44737237916667,215.65100121458332,47.0,79.0
897,215.93124287916666,216.04616212291666,61.0,91.0
898,215.93124287916666,216.05019437708333,73.0,98.0
899,215.93124287916666,216.45946817499998,51.0,85.0
900,215.93124287916666,216.48164557291665,47.0,78.0
901,216.41511337916666,216.51390360624998,63.0,95.0
902,216.41511337916666,216.53204875,75.0,91.0
903,216.89898387916665,217.11470947708332,56.0,78.0
904,216.89898387916665,217.44737044583331,64.0,83.0
905,217.38285437916664,217.67720893333333,56.0,78.0
906,217.86672487916667,218.02398279166667,56.0,84.0
907,217.86672487916667,218.0884988583333,59.0,86.0
908,217.86672487916667,218.09857949374998,64.0,85.0
909,218.10866012916665,218.51995005416666,47.0,80.0
910,216.89898387916665,218.6691434583333,40.0,83.0
911,218.35059537916666,218.68124022083333,56.0,77.0
912,218.59253062916665,218.7719659395833,59.0,81.0
913,218.83446587916666,219.34051377708332,56.0,77.0
914,218.83446587916666,219.38083631875,59.0,84.0
915,218.83446587916666,219.39091695416664,64.0,82.0
916,219.31833637916665,219.8586584375,47.0,64.0
917,219.80220687916665,220.04010987499998,56.0,83.0
918,219.80220687916665,220.06631952708332,59.0,90.0
919,218.83446587916666,220.11672270416665,40.0,84.0
920,220.04414212916666,220.14293235625,47.0,84.0
921,219.80220687916665,220.14696461041666,64.0,84.0
922,220.28607737916664,220.63083511041665,56.0,84.0
923,220.76994787916666,221.07639919583332,56.0,70.0
924,220.76994787916666,221.18325393125,63.0,85.0
925,221.25381837916666,221.76793078541667,51.0,71.0
926,221.73768887916665,221.9292209520833,59.0,85.0
927,221.73768887916665,221.95744673125,56.0,83.0
928,221.73768887916665,221.99575314583333,63.0,90.0
929,221.97962412916667,222.38889792708332,51.0,79.0
930,220.76994787916666,222.43526885,44.0,85.0
931,222.22155937916665,222.5098655520833,61.0,76.0
932,222.46349462916666,222.7134943875,63.0,78.0
933,222.70542987916664,223.17720361666665,56.0,75.0
934,222.70542987916664,223.20744552291666,59.0,74.0
935,223.18930037916667,223.76389659791664,51.0,74.0
936,223.67317087916666,223.91510612916665,56.0,85.0
937,223.67317087916666,223.99373508541666,63.0,87.0
938,224.15704137916666,224.2255897,56.0,72.0
939,223.91510612916665,224.26187998749998,51.0,79.0
940,222.70542987916664,224.34857345208331,44.0,84.0
941,224.15704137916666,224.394944375,59.0,84.0
942,224.39897662916667,224.55018616041664,56.0,75.0
943,224.64091187916665,225.21349197083333,64.0,85.0
944,225.12478237916665,225.43526595,56.0,79.0
945,224.64091187916665,225.69333021666665,49.0,85.0
946,225.60865287916664,225.86268489166665,56.0,84.0
947,225.60865287916664,225.91308806875,61.0,84.0
948,225.60865287916664,225.92518483125,64.0,85.0
949,225.85058812916665,225.95542673749998,49.0,76.0
950,226.09252337916666,226.451394,56.0,84.0
951,226.33445862916665,226.48970041458333,61.0,76.0
952,226.57639387916666,226.84453878124998,56.0,80.0
953,226.57639387916666,226.97558704166664,64.0,80.0
954,226.57639387916666,227.1489739708333,61.0,84.0
955,227.06026437916665,227.2517964520833,56.0,75.0
956,226.57639387916666,227.394941475,37.0,85.0
957,227.54413487916665,227.74574758749998,56.0,85.0
958,227.54413487916665,227.92115064375,64.0,85.0
959,227.54413487916665,227.92316677083332,61.0,86.0
960,228.02800537916664,228.24373097708332,37.0,87.0
961,228.02800537916664,228.32639218749998,56.0,78.0
962,228.02800537916664,228.40098888958332,61.0,80.0
963,228.51187587916667,228.71147246041664,54.0,79.0
964,228.51187587916667,228.82840783125,59.0,78.0
965,228.99574637916666,229.08042371666664,59.0,65.0
966,228.99574637916666,229.20139134166666,54.0,79.0
967,228.51187587916667,229.23768162916664,47.0,86.0
968,229.47961687916666,229.70340698541665,54.0,85.0
969,229.47961687916666,229.80421333958333,59.0,86.0
970,229.47961687916666,230.00582604791666,63.0,88.0
971,229.96348737916665,230.29614834791664,54.0,88.0
972,230.44735787916665,230.66308347708332,54.0,84.0
973,230.44735787916665,230.98364768333332,59.0,80.0
974,230.93122837916664,231.2074377895833,54.0,78.0
975,231.41509887916666,231.6731631458333,54.0,85.0
976,230.44735787916665,231.69534054374998,47.0,95.0
977,231.41509887916666,231.73969533958333,59.0,86.0
978,231.41509887916666,231.77598562708332,63.0,89.0
979,231.89896937916666,232.03203376666664,59.0,79.0
980,231.89896937916666,232.0481627833333,47.0,90.0
981,231.89896937916666,232.07840468958332,54.0,83.0
982,232.38283987916665,232.61469449375,52.0,80.0
983,232.38283987916665,232.73969437291666,57.0,79.0
984,232.38283987916665,232.74574275416666,61.0,83.0
985,232.86671037916665,233.30017770208332,52.0,79.0
986,233.35058087916664,233.43929047083333,57.0,72.0
987,233.59251612916665,233.85058039583333,52.0,85.0
988,232.38283987916665,233.86066103124998,45.0,87.0
989,233.35058087916664,233.88082230208332,64.0,85.0
990,233.83445137916667,234.12275755208333,57.0,81.0
991,234.31832187916666,234.37678956458333,57.0,57.0
992,234.07638662916665,234.39090245416665,52.0,83.0
993,234.31832187916666,234.70138602499998,61.0,82.0
994,234.56025712916664,234.8707407,52.0,73.0
995,234.80219237916666,235.01590184999998,57.0,69.0
996,234.31832187916666,235.16106299999998,45.0,85.0
997,235.28606287916665,235.49170784166665,52.0,76.0
998,235.28606287916665,235.59856257708333,45.0,87.0
999,235.28606287916665,235.62477222916667,57.0,72.0
1000,235.76993337916664,235.87275586041665,45.0,87.0
1001,235.76993337916664,235.87275586041665,52.0,84.0
1002,235.28606287916665,236.16509428749998,64.0,82.0
1003,236.25380387916667,236.6388841520833,56.0,79.0
1004,236.25380387916667,236.65702929583333,59.0,79.0
1005,236.73767437916666,237.33848024999998,51.0,74.0
1006,237.22154487916666,237.38485117291665,56.0,85.0
1007,237.22154487916666,237.3989640625,63.0,87.0
1008,237.46348012916664,237.81227011458333,51.0,77.0
1009,237.70541537916665,237.91509259583333,59.0,84.0
1010,236.25380387916667,237.98767317083332,44.0,85.0
1011,237.94735062916666,238.09654403333332,56.0,71.0
1012,238.18928587916665,238.60460805833333,56.0,74.0
1013,238.18928587916665,238.61267256666665,59.0,76.0
1014,238.91509162916665,239.03001087291665,56.0,81.0
1015,238.67315637916664,239.13686560833332,51.0,60.0
1016,239.15702687916666,239.44936530624997,56.0,81.0
1017,239.15702687916666,239.48767172083333,59.0,85.0
1018,239.15702687916666,239.49170397499998,63.0,86.0
1019,239.39896212916665,239.60863934583332,51.0,86.0
1020,238.18928587916665,239.62880061666667,44.0,79.0
1021,239.64089737916666,239.76186500416665,56.0,83.0
1022,240.12476787916665,240.43525144999998,54.0,80.0
1023,240.12476787916665,240.48162237291666,57.0,84.0
1024,240.12476787916665,240.56025132916665,61.0,80.0
1025,240.60863837916665,240.6771867,54.0,85.0
1026,240.60863837916665,240.8546058833333,49.0,72.0
1027,240.12476787916665,240.86065426458333,42.0,85.0
1028,241.09250887916664,241.70742763958333,42.0,86.0
1029,241.09250887916664,241.87678231458332,49.0,85.0
1030,242.06024987916666,242.46952367708332,61.0,90.0
1031,242.06024987916666,242.50984621875,54.0,85.0
1032,242.78605562916664,242.88484585625,54.0,73.0
1033,242.54412037916666,243.13887786875,49.0,80.0
1034,243.02799087916665,243.29008739999998,54.0,85.0
1035,243.02799087916665,243.3223454333333,57.0,87.0
1036,242.06024987916666,243.3283938145833,42.0,85.0
1037,243.02799087916665,243.3767808645833,61.0,86.0
1038,243.26992612916666,243.41508727916664,49.0,80.0
1039,243.51186137916665,243.6912966895833,54.0,81.0
1040,243.51186137916665,243.85863523749998,42.0,84.0
1041,243.99573187916664,244.23161874791666,54.0,79.0
1042,243.99573187916664,244.29210256041665,59.0,83.0
1043,244.47960237916666,244.76992467916665,59.0,82.0
1044,244.96347287916666,245.201375875,54.0,86.0
1045,243.99573187916664,245.30218222916665,47.0,86.0
1046,244.96347287916666,245.3586337875,61.0,88.0
1047,245.44734337916665,245.77193983958333,54.0,87.0
1048,245.93121387916665,246.14290722291665,54.0,84.0
1049,245.93121387916665,246.25581033958332,59.0,84.0
1050,245.93121387916665,246.48968108124998,63.0,86.0
1051,246.41508437916664,246.5199229875,54.0,72.0
1052,246.65701962916665,246.76790661874998,59.0,79.0
1053,246.65701962916665,246.78000338125,63.0,85.0
1054,246.65701962916665,246.7860517625,54.0,79.0
1055,245.93121387916665,247.02193863124998,47.0,86.0
1056,246.89895487916667,247.16709978125,59.0,89.0
1057,246.89895487916667,247.1691159083333,54.0,85.0
1058,246.89895487916667,247.24371261041665,63.0,89.0
1059,247.38282537916666,247.67919606041664,61.0,85.0
1060,247.38282537916666,247.68726056875,54.0,79.0
1061,247.14089012916665,247.82435721041665,47.0,85.0
1062,247.62476062916664,247.8505668625,59.0,85.0
1063,247.86669587916666,248.08242147708333,56.0,78.0
1064,247.86669587916666,248.41508244583332,64.0,83.0
1065,248.35056637916665,248.6449209333333,56.0,78.0
1066,248.83443687916665,248.99169479166665,56.0,84.0
1067,248.83443687916665,249.05621085833332,59.0,86.0
1068,248.83443687916665,249.06629149375,64.0,85.0
1069,249.07637212916666,249.48766205416666,47.0,80.0
1070,247.86669587916666,249.63685545833332,40.0,83.0
1071,249.31830737916664,249.6489522208333,56.0,77.0
1072,249.56024262916665,249.73967793958332,59.0,81.0
1073,249.80217787916666,250.30822577708332,56.0,77.0
1074,249.80217787916666,250.34854831874998,59.0,84.0
1075,249.80217787916666,250.35862895416665,64.0,82.0
1076,250.28604837916666,250.82637043749997,47.0,64.0
1077,250.76991887916665,251.007821875,56.0,83.0
1078,250.76991887916665,251.03403152708333,59.0,90.0
1079,249.80217787916666,251.08443470416665,40.0,84.0
1080,251.01185412916666,251.11064435625,47.0,84.0
1081,250.76991887916665,251.11467661041667,64.0,84.0
1082,251.25378937916665,251.59854711041666,56.0,84.0
1083,251.73765987916664,252.04411119583332,56.0,70.0
1084,251.73765987916664,252.15096593125,63.0,85.0
1085,252.22153037916667,252.73564278541664,51.0,71.0
1086,252.70540087916666,252.89693295208332,59.0,85.0
1087,252.70540087916666,252.92515873124998,56.0,83.0
1088,252.70540087916666,252.9634651458333,63.0,90.0
1089,252.94733612916664,253.35660992708333,51.0,79.0
1090,251.73765987916664,253.40298084999998,44.0,85.0
1091,253.18927137916666,253.47757755208332,61.0,76.0
1092,253.43120662916667,253.6812063875,63.0,78.0
1093,253.67314187916665,254.14491561666665,56.0,75.0
1094,253.67314187916665,254.17515752291666,59.0,74.0
1095,254.15701237916664,254.73160859791665,51.0,74.0
1096,254.64088287916664,254.88281812916665,56.0,85.0
1097,254.64088287916664,254.96144708541667,63.0,87.0
1098,255.12475337916666,255.19330169999998,56.0,72.0
1099,254.88281812916665,255.2295919875,51.0,79.0
1100,253.67314187916665,255.31628545208332,44.0,84.0
1101,255.12475337916666,255.362656375,59.0,84.0
1102,255.36668862916665,255.51789816041665,56.0,75.0
1103,255.60862387916666,256.18120397083334,64.0,85.0
1104,256.0924943791667,256.40297795,56.0,79.0
1105,255.60862387916666,256.66104221666666,49.0,85.0
1106,256.57636487916665,256.8303968916667,56.0,84.0
1107,256.57636487916665,256.88080006875,61.0,84.0
1108,256.57636487916665,256.89289683124997,64.0,85.0
1109,256.81830012916663,256.9231387375,49.0,76.0
1110,257.06023537916667,257.419106,56.0,84.0
1111,257.30217062916665,257.4574124145833,61.0,76.0
1112,257.54410587916664,257.81225078125,56.0,80.0
1113,257.54410587916664,257.94329904166665,64.0,80.0
1114,257.54410587916664,258.1166859708333,61.0,84.0
1115,258.02797637916666,258.21950845208335,56.0,75.0
1116,257.54410587916664,258.362653475,37.0,85.0
1117,258.5118468791666,258.7134595875,56.0,85.0
1118,258.5118468791666,258.88886264375,64.0,85.0
1119,258.5118468791666,258.8908787708333,61.0,86.0
1120,258.99571737916665,259.2114429770833,37.0,87.0
1121,258.99571737916665,259.2941041875,56.0,78.0
1122,258.99571737916665,259.3687008895833,61.0,80.0
1123,259.4795878791667,259.67918446041665,54.0,79.0
1124,259.4795878791667,259.79611983125,59.0,78.0
1125,259.96345837916664,260.04813571666665,59.0,65.0
1126,259.96345837916664,260.16910334166664,54.0,79.0
1127,259.4795878791667,260.2053936291667,47.0,86.0
1128,260.44732887916666,260.6711189854166,54.0,85.0
1129,260.44732887916666,260.77192533958333,59.0,86.0
1130,260.44732887916666,260.97353804791663,63.0,88.0
1131,260.9311993791666,261.26386034791665,54.0,88.0
1132,261.41506987916665,261.6307954770833,54.0,84.0
1133,261.41506987916665,261.9513596833333,59.0,80.0
1134,261.8989403791667,262.1751497895833,54.0,78.0
1135,262.38281087916664,262.6408751458333,54.0,85.0
1136,261.41506987916665,262.66305254375,47.0,95.0
1137,262.38281087916664,262.7074073395833,59.0,86.0
1138,262.38281087916664,262.7436976270833,63.0,89.0
1139,262.86668137916666,262.99974576666665,59.0,79.0
1140,262.86668137916666,263.01587478333335,47.0,90.0
1141,262.86668137916666,263.0461166895833,54.0,83.0
1142,263.35055187916663,263.58240649375,52.0,80.0
1143,263.35055187916663,263.70740637291664,57.0,79.0
1144,263.35055187916663,263.71345475416666,61.0,83.0
1145,263.83442237916665,264.2678897020833,52.0,79.0
1146,264.3182928791667,264.40700247083333,57.0,72.0
1147,264.56022812916666,264.81829239583334,52.0,85.0
1148,263.35055187916663,264.82837303125,45.0,87.0
1149,264.3182928791667,264.8485343020833,64.0,85.0
1150,264.80216337916664,265.09046955208333,57.0,81.0
1151,265.28603387916667,265.3445015645833,57.0,57.0
1152,265.0440986291666,265.3586144541666,52.0,83.0
1153,265.28603387916667,265.669098025,61.0,82.0
1154,265.52796912916665,265.8384527,52.0,73.0
1155,265.76990437916663,265.98361385,57.0,69.0
1156,265.28603387916667,266.12877499999996,45.0,85.0
1157,266.25377487916666,266.45941984166666,52.0,76.0
1158,266.25377487916666,266.56627457708333,45.0,87.0
1159,266.25377487916666,266.59248422916664,57.0,72.0
1160,266.7376453791667,266.84046786041665,45.0,87.0
1161,266.7376453791667,266.84046786041665,52.0,84.0
1162,266.25377487916666,267.1328062875,64.0,82.0
1163,267.22151587916665,267.60659615208334,56.0,79.0
1164,267.22151587916665,267.6247412958333,59.0,79.0
1165,267.70538637916667,268.30619225,51.0,74.0
1166,268.18925687916663,268.35256317291663,56.0,85.0
1167,268.18925687916663,268.3666760625,63.0,87.0
1168,268.4311921291667,268.77998211458333,51.0,77.0
1169,268.67312737916666,268.8828045958333,59.0,84.0
1170,267.22151587916665,268.9553851708333,44.0,85.0
1171,268.91506262916664,269.0642560333333,56.0,71.0
1172,269.1569978791666,269.57232005833333,56.0,74.0
1173,269.1569978791666,269.5803845666667,59.0,76.0
1174,269.88280362916663,269.99772287291665,56.0,81.0
1175,269.64086837916665,270.10457760833333,51.0,60.0
1176,270.12473887916667,270.41707730625,56.0,81.0
1177,270.12473887916667,270.4553837208333,59.0,85.0
1178,270.12473887916667,270.459415975,63.0,86.0
1179,270.36667412916665,270.5763513458333,51.0,86.0
1180,269.1569978791666,270.59651261666664,44.0,79.0
1181,270.60860937916664,270.72957700416663,56.0,83.0
1182,271.09247987916666,271.5864310145833,54.0,79.0
1183,271.09247987916666,271.5985277770833,57.0,73.0
1184,271.09247987916666,271.6045761583333,61.0,83.0
1185,271.5763503791666,272.12272081875,49.0,74.0
1186,272.06022087916665,272.3102206375,54.0,84.0
1187,272.06022087916665,272.3969141020833,57.0,87.0
1188,272.06022087916665,272.43723664375,61.0,87.0
1189,272.30215612916663,272.82433304374996,49.0,79.0
1190,271.09247987916666,272.8444943145833,42.0,85.0
1191,272.5440913791667,272.86062333125,54.0,83.0
1192,272.78602662916666,272.90699425416665,57.0,84.0
1193,273.02796187916664,273.29610678125,54.0,79.0
1194,273.02796187916664,273.73159023125,59.0,83.0
1195,273.51183237916666,273.76989664583334,54.0,76.0
1196,273.99570287916663,274.20538009583333,54.0,85.0
1197,273.99570287916663,274.35860575416666,59.0,84.0
1198,273.02796187916664,274.43723471041665,47.0,84.0
1199,273.99570287916663,274.475541125,63.0,85.0
1200,274.47957337916665,274.5803797333333,54.0,72.0
1201,274.9634438791667,275.74973344166665,59.0,83.0
1202,275.44731437916664,276.66505513749996,47.0,73.0
1203,275.93118487916666,276.6771519,64.0,80.0
1204,274.9634438791667,276.701345425,40.0,84.0
1205,276.89892587916665,277.46747371666663,56.0,73.0
1206,276.89892587916665,277.55215105416664,59.0,72.0
1207,276.41505537916663,277.56626394374996,52.0,81.0
1208,277.3827963791667,278.24368264375,47.0,63.0
1209,276.89892587916665,278.3122309645833,40.0,76.0
1210,277.86666687916664,278.50981141874996,52.0,70.0
1211,277.86666687916664,278.5360210708333,56.0,69.0
1212,279.31827837916666,279.91706812291665,56.0,78.0
1213,279.8021488791667,280.25577747291663,61.0,80.0
1214,278.83440787916663,280.32634192083333,37.0,88.0
1215,279.8021488791667,280.40900313124996,64.0,83.0
1216,280.76988987916667,281.15698627916663,56.0,70.0
1217,280.76988987916667,281.35255060624996,61.0,74.0
1218,280.76988987916667,281.91303393541665,37.0,79.0
1219,281.73763087916666,281.98359838333334,64.0,81.0
1220,281.73763087916666,281.98561451041667,61.0,80.0
1221,282.70537187916665,283.6569838625,56.0,75.0
1222,282.70537187916665,283.73359669166666,52.0,73.0
1223,283.67311287916664,284.23158008125,59.0,79.0
1224,283.18924237916667,284.636821625,47.0,74.0
1225,282.70537187916665,284.64488613333333,40.0,81.0
1226,284.15698337916666,284.82230531666664,52.0,69.0
1227,284.6408538791666,284.98964386458334,56.0,72.0
1228,284.6408538791666,285.01383738958333,64.0,73.0
1229,284.6408538791666,285.0259341520833,59.0,73.0
1230,286.54609397291665,287.5501252604167,52.0,76.0
1231,286.5440778458333,287.57431878541666,56.0,75.0
1232,287.52593173541663,287.7053670458333,61.0,80.0
1233,287.01383545625,288.2335923416667,44.0,70.0
1234,286.5521423541667,288.3162535520833,37.0,86.0
1235,288.023915125,288.8364143395833,56.0,85.0
1236,289.00375288749996,289.6569780625,44.0,58.0
1237,288.51585013333334,289.69931673125,37.0,84.0
1238,288.5218985145833,289.7255263833333,64.0,76.0
1239,289.5622200895833,289.82633273749997,61.0,78.0
1240,290.75173506875,294.24769943125,47.0,72.0
1241,290.53802559791666,294.26987682916666,40.0,76.0
1242,290.76383183125,294.2920542270833,52.0,71.0
1243,290.8585898041666,294.3001187354167,56.0,72.0
1244,290.927138125,294.3162477520833,59.0,73.0
1245,290.9956864458333,294.3464896583333,64.0,71.0
