,start,end,pitch,velocity
0,15.850001320833334,16.300001358333333,63.0,89.0
1,16.31153982083333,16.81730909375,61.0,89.0
2,16.773078320833335,17.119232195833334,63.0,89.0
3,17.234616820833335,17.3884629875,66.0,89.0
4,17.696155320833334,18.425001535416666,66.0,89.0
5,18.619232320833333,19.221155447916665,61.0,89.0
6,19.542309320833333,20.015386283333335,59.0,89.0
7,20.003847820833332,20.496155554166666,58.0,89.0
8,20.465386320833332,20.75192480625,59.0,89.0
9,20.92692482083333,21.15577099375,63.0,89.0
10,21.388463320833335,22.09230953333333,63.0,89.0
11,23.234617320833333,23.726925054166667,56.0,89.0
12,23.696155820833333,24.23654048125,54.0,89.0
13,24.157694320833333,24.590386664583335,56.0,89.0
14,24.619232820833332,24.930771308333334,68.0,89.0
15,25.080771320833332,25.6961559875,66.0,89.0
16,26.034617554166665,26.48654066875,59.0,89.0
17,26.926925320833334,27.505771522916667,56.0,89.0
18,27.388463820833334,27.961540791666668,58.0,89.0
19,27.850002320833333,28.069233108333332,59.0,89.0
20,28.311540820833333,28.5576946875,63.0,89.0
21,28.773079320833332,29.678848627083333,61.0,89.0
22,30.619233320833334,31.086541052083334,63.0,89.0
23,31.080771820833334,31.57500263125,59.0,89.0
24,31.542310320833334,31.81923342083333,63.0,89.0
25,32.00384882083333,32.31731038541667,66.0,89.0
26,32.46538732083334,33.20192584375,66.0,89.0
27,33.388464320833336,33.82500281875,61.0,89.0
28,34.311541320833335,34.79807982291667,71.0,90.0
29,34.77307982083333,35.30000294166667,70.0,90.0
30,35.234618320833334,35.71538759166667,68.0,90.0
31,35.69615682083333,36.14423378125,63.0,90.0
32,36.157695320833334,37.52884928125,66.0,90.0
33,38.00384932083333,38.540387827083336,71.0,90.0
34,38.465387820833335,39.00769555833333,70.0,90.0
35,38.92692632083333,39.394234052083334,68.0,90.0
36,39.388464820833335,39.76731100625,63.0,90.0
37,39.85000332083333,40.45769567916667,66.0,90.0
38,40.77308032083333,41.3423111375,59.0,90.0
39,41.696157320833336,42.02500350208334,64.0,90.0
40,42.15769582083333,42.469234308333334,63.0,90.0
41,42.619234320833336,42.86346511041667,61.0,90.0
42,43.08077282083333,43.325003610416665,59.0,90.0
43,43.542311320833335,45.36154224166667,59.0,90.0
44,47.23461932083333,47.515388575,71.0,90.0
45,47.696157820833335,47.900003991666665,71.0,90.0
46,48.15769632083333,48.40961941875,71.0,90.0
47,48.619234820833334,48.84808099375,63.0,90.0
48,49.08077332083333,50.4576965125,70.0,90.0
49,50.926927320833336,51.12500426041667,68.0,90.0
50,51.38846582083333,51.56731198958333,68.0,90.0
51,51.850004320833335,52.04423510625,68.0,90.0
52,52.31154282083333,52.58654284375,59.0,90.0
53,52.773081320833334,54.13846605,66.0,90.0
54,54.15769682083333,54.41346607291667,68.0,90.0
55,54.38846607083333,54.546158391666665,70.0,90.0
56,54.61923532083333,54.89038918958333,71.0,90.0
57,55.080773820833336,55.371158460416666,71.0,90.0
58,55.54231232083333,55.77500464791667,71.0,90.0
59,56.003850820833335,56.28077392083333,71.0,91.0
60,56.46538932083333,56.9884662875,71.0,91.0
61,57.38846632083333,57.56154325833333,68.0,91.0
62,57.850004820833334,60.15962039791667,66.0,91.0
63,61.54231282083333,61.798082072916664,71.0,91.0
64,61.77308207083333,61.90962054375,73.0,91.0
65,62.003851320833334,62.23654364791667,75.0,91.0
66,62.46538982083333,62.61538983333333,75.0,91.0
67,62.92692832083333,63.373082204166664,75.0,91.0
68,63.38846682083333,63.68269761458333,66.0,91.0
69,63.85000532083333,64.02500533541667,73.0,91.0
70,64.31154382083334,64.50962076041667,73.0,91.0
71,64.77308232083334,64.96539002916667,73.0,91.0
72,65.23462082083333,65.4346208375,66.0,91.0
73,65.69615932083333,66.0346208875,71.0,91.0
74,66.15769782083333,66.50962092708333,70.0,91.0
75,66.61923632083334,67.0500055875,68.0,91.0
76,67.08077482083333,67.38846715416666,63.0,91.0
77,67.54231332083333,68.92308266666667,66.0,91.0
78,68.92692882083334,69.08654421875,73.0,91.0
79,69.15769807083333,69.27500577291667,75.0,91.0
80,69.38846732083333,69.67500580625,76.0,91.0
81,69.85000582083333,70.13846738333334,76.0,91.0
82,70.31154432083333,70.66731358125,76.0,91.0
83,70.77308282083334,71.1692367,68.0,91.0
84,71.23462132083333,71.71731366875,75.0,91.0
85,71.69615982083333,71.96731368958334,73.0,91.0
86,72.15769832083333,72.8307753,71.0,91.0
87,72.85000607083333,72.98269838958333,66.0,91.0
88,73.08077532083334,73.34808303541666,65.0,91.0
89,73.54231382083333,73.80577538125,68.0,91.0
90,74.00385232083333,74.330775425,71.0,91.0
91,74.46539082083333,74.746160075,75.0,91.0
92,74.92692932083334,76.11539095833334,73.0,90.0
93,76.31154482083333,76.47692945,71.0,90.0
94,76.54231407083333,76.68846792916666,73.0,90.0
95,76.77308332083334,77.07116026875,75.0,90.0
96,77.23462182083334,77.40769875833334,75.0,90.0
97,77.69616032083333,78.13077574166667,75.0,90.0
98,78.15769882083333,78.51539115833333,66.0,90.0
99,78.61923732083334,79.05192966458333,67.0,90.0
100,79.08077582083334,79.41346815625,70.0,90.0
101,79.54231432083333,79.84039126875,76.0,90.0
102,80.00385282083333,80.28269899791667,75.0,90.0
103,80.46539132083333,80.80000673333333,73.0,90.0
104,80.92692982083334,81.46346832708333,71.0,90.0
105,81.61923757083333,82.01154529583333,71.0,90.0
106,82.08077607083334,82.22692992916667,66.0,90.0
107,83.69616082083333,83.93462237916667,73.0,89.0
108,82.31154532083333,83.95577622708333,67.0,90.0
109,83.92693007083334,84.08462239166667,75.0,89.0
110,84.15769932083333,84.48077627083333,78.0,89.0
111,84.61923782083333,84.88462245833334,76.0,89.0
112,84.61923782083333,84.88462245833334,76.0,89.0
113,85.08077632083334,85.407699425,76.0,89.0
114,85.54231482083333,85.84231484583333,68.0,89.0
115,86.00385332083333,86.29231488333333,75.0,89.0
116,86.46539182083333,86.71731491875,73.0,89.0
117,86.92693032083334,87.42308420833334,71.0,89.0
118,87.61923807083333,87.75962269791667,66.0,89.0
119,87.85000732083333,88.16346888541666,65.0,89.0
120,88.31154582083333,88.69039200625,68.0,89.0
121,88.77308432083333,89.09616127083333,71.0,88.0
122,89.23462282083334,89.55962284791667,75.0,88.0
123,89.69616132083333,90.83462295416666,73.0,88.0
124,91.08077682083334,91.39231530833334,71.0,88.0
125,91.54231532083334,93.10962314375,71.0,88.0
126,106.31154732083333,106.76154735833333,63.0,87.0
127,106.77308582083333,107.27885509375,61.0,87.0
128,107.23462432083333,107.58077819583333,63.0,87.0
129,107.69616282083334,107.8500089875,66.0,87.0
130,108.15770132083334,108.88654753541667,66.0,87.0
131,109.08077832083333,109.68270144791667,61.0,87.0
132,110.00385532083334,110.47693228333333,59.0,87.0
133,110.46539382083333,110.95770155416666,58.0,87.0
134,110.92693232083333,111.21347080625,59.0,87.0
135,111.38847082083333,111.61731699375,63.0,87.0
136,111.85000932083334,112.55385553333333,63.0,87.0
137,113.69616332083334,114.18847105416667,56.0,87.0
138,114.15770182083334,114.69808648125,54.0,87.0
139,114.61924032083333,115.05193266458333,56.0,87.0
140,115.08077882083333,115.39231730833333,68.0,87.0
141,115.54231732083333,116.1577019875,66.0,87.0
142,116.49616355416667,116.94808666875,59.0,87.0
143,117.38847132083333,117.96731752291667,56.0,87.0
144,117.85000982083334,118.42308679166666,58.0,87.0
145,118.31154832083334,118.53077910833333,59.0,87.0
146,118.77308682083333,119.0192406875,63.0,87.0
147,119.23462532083333,120.14039462708334,61.0,87.0
148,121.08077932083333,121.54808705208333,63.0,87.0
149,121.54231782083333,122.03654863125,59.0,87.0
150,122.00385632083334,122.28077942083333,63.0,87.0
151,122.46539482083334,122.77885638541666,66.0,87.0
152,122.92693332083333,123.66347184375,66.0,87.0
153,123.85001032083333,124.28654881875,61.0,87.0
154,124.77308732083333,125.25962582291666,71.0,87.0
155,125.23462582083333,125.76154894166666,70.0,87.0
156,125.69616432083333,126.17693359166667,68.0,87.0
157,126.15770282083334,126.60577978124999,63.0,87.0
158,126.61924132083334,127.99039528125,66.0,87.0
159,128.46539532083332,129.00193382708332,71.0,87.0
160,128.92693382083334,129.46924155833332,70.0,87.0
161,129.38847232083333,129.85578005208333,68.0,87.0
162,129.85001082083332,130.22885700625,63.0,87.0
163,130.31154932083334,130.91924167916667,66.0,87.0
164,131.23462632083334,131.8038571375,59.0,87.0
165,132.15770332083332,132.48654950208334,64.0,87.0
166,132.61924182083334,132.93078030833334,63.0,88.0
167,133.08078032083333,133.32501111041665,61.0,88.0
168,133.54231882083334,133.78654961041667,59.0,88.0
169,134.00385732083333,135.82308824166665,59.0,88.0
170,137.69616532083333,137.976934575,71.0,88.0
171,138.15770382083332,138.36154999166666,71.0,88.0
172,138.61924232083334,138.87116541875,71.0,88.0
173,139.08078082083333,139.30962699375,63.0,88.0
174,139.54231932083334,140.9192425125,70.0,88.0
175,141.38847332083333,141.58655026041666,68.0,89.0
176,141.85001182083334,142.02885798958334,68.0,89.0
177,142.31155032083333,142.50578110625,68.0,89.0
178,142.77308882083332,143.04808884375,59.0,89.0
179,143.23462732083334,144.60001205,66.0,89.0
180,144.61924282083334,144.87501207291666,68.0,89.0
181,144.85001207083334,145.00770439166666,70.0,89.0
182,145.08078132083332,145.35193518958334,71.0,89.0
183,145.54231982083334,145.83270446041666,71.0,89.0
184,146.00385832083333,146.23655064791666,71.0,89.0
185,146.46539682083332,146.74231992083332,71.0,89.0
186,146.92693532083334,147.4500122875,71.0,89.0
187,147.85001232083334,148.02308925833333,68.0,89.0
188,148.31155082083333,150.62116639791665,66.0,89.0
189,152.00385882083333,152.25962807291666,71.0,89.0
190,152.23462807083334,152.37116654375,73.0,89.0
191,152.46539732083332,152.69808964791667,75.0,89.0
192,152.92693582083334,153.07693583333332,75.0,89.0
193,153.38847432083332,153.83462820416668,75.0,89.0
194,153.85001282083334,154.14424361458333,66.0,89.0
195,154.31155132083333,154.48655133541666,73.0,89.0
196,154.77308982083332,154.97116676041668,73.0,89.0
197,155.23462832083334,155.42693602916665,73.0,89.0
198,155.69616682083333,155.8961668375,66.0,89.0
199,156.15770532083334,156.4961668875,71.0,89.0
200,156.61924382083333,156.97116692708335,70.0,89.0
201,157.08078232083332,157.5115515875,68.0,89.0
202,157.54232082083334,157.85001315416667,63.0,89.0
203,158.00385932083333,159.38462866666666,66.0,89.0
204,159.38847482083332,159.54809021875,73.0,89.0
205,159.61924407083333,159.73655177291667,75.0,89.0
206,159.85001332083334,160.13655180625,76.0,89.0
207,160.31155182083333,160.60001338333333,76.0,89.0
208,160.77309032083332,161.12885958125,76.0,89.0
209,161.23462882083334,161.6307827,68.0,89.0
210,161.69616732083333,162.17885966875,75.0,89.0
211,162.15770582083334,162.42885968958333,73.0,89.0
212,162.61924432083333,163.2923213,71.0,89.0
213,163.31155207083333,163.44424438958333,66.0,89.0
214,163.54232132083334,163.80962903541666,65.0,89.0
215,164.00385982083333,164.26732138124999,68.0,89.0
216,164.46539832083334,164.792321425,71.0,89.0
217,164.92693682083333,165.207706075,75.0,89.0
218,165.38847532083332,166.57693695833333,73.0,89.0
219,166.77309082083335,166.93847545,71.0,89.0
220,167.00386007083333,167.15001392916668,73.0,89.0
221,167.23462932083333,167.53270626875,75.0,89.0
222,167.69616782083332,167.86924475833334,75.0,89.0
223,168.15770632083334,168.59232174166667,75.0,89.0
224,168.61924482083333,168.97693715833333,66.0,89.0
225,169.08078332083332,169.51347566458332,67.0,89.0
226,169.54232182083334,169.87501415625,70.0,89.0
227,170.00386032083333,170.30193726875,76.0,89.0
228,170.46539882083334,170.74424499791667,75.0,89.0
229,170.92693732083333,171.26155273333333,73.0,89.0
230,171.38847582083332,171.92501432708335,71.0,89.0
231,172.08078357083332,172.47309129583334,71.0,89.0
232,172.54232207083334,172.68847592916666,66.0,89.0
233,174.15770682083334,174.39616837916665,73.0,89.0
234,172.77309132083334,174.41732222708333,67.0,89.0
235,174.38847607083332,174.54616839166667,75.0,89.0
236,174.61924532083333,174.94232227083333,78.0,90.0
237,175.08078382083335,175.34616845833332,76.0,90.0
238,175.08078382083335,175.34616845833332,76.0,90.0
239,175.54232232083334,175.869245425,76.0,90.0
240,176.00386082083332,176.30386084583333,68.0,90.0
241,176.46539932083334,176.75386088333335,75.0,90.0
242,176.92693782083333,177.17886091875,73.0,90.0
243,177.38847632083332,177.88463020833333,71.0,90.0
244,178.08078407083335,178.22116869791665,66.0,90.0
245,178.31155332083333,178.62501488541668,65.0,90.0
246,178.77309182083334,179.15193800625,68.0,90.0
247,179.23463032083333,179.55770727083333,71.0,90.0
248,179.69616882083332,180.02116884791667,75.0,90.0
249,180.15770732083334,181.29616895416666,73.0,90.0
250,181.54232282083333,181.85386130833334,71.0,90.0
251,182.00386132083332,183.57116914375,71.0,91.0
252,196.31155482083332,196.56732407291668,71.0,92.0
253,196.54232407083333,196.67886254375,73.0,92.0
254,196.77309332083334,197.00578564791667,75.0,92.0
255,197.23463182083333,197.38463183333334,75.0,92.0
256,197.69617032083335,198.14232420416667,75.0,92.0
257,198.15770882083334,198.45193961458332,66.0,92.0
258,198.61924732083332,198.79424733541666,73.0,92.0
259,199.08078582083334,199.27886276041667,73.0,92.0
260,199.54232432083333,199.73463202916668,73.0,92.0
261,200.00386282083332,200.2038628375,66.0,92.0
262,200.46540132083334,200.8038628875,71.0,92.0
263,200.92693982083333,201.27886292708334,70.0,92.0
264,201.38847832083334,201.8192475875,68.0,92.0
265,201.85001682083333,202.15770915416667,63.0,92.0
266,202.31155532083332,203.69232466666668,66.0,92.0
267,203.69617082083334,203.85578621875,73.0,92.0
268,203.92694007083333,204.04424777291666,75.0,92.0
269,204.15770932083333,204.44424780625,76.0,92.0
270,204.61924782083332,204.90770938333333,76.0,92.0
271,205.08078632083334,205.43655558125,76.0,92.0
272,205.54232482083333,205.9384787,68.0,92.0
273,206.00386332083332,206.48655566875,75.0,92.0
274,206.46540182083334,206.73655568958333,73.0,92.0
275,206.92694032083332,207.6000173,71.0,92.0
276,207.61924807083332,207.75194038958332,66.0,92.0
277,207.85001732083333,208.11732503541666,65.0,92.0
278,208.31155582083332,208.57501738125,68.0,92.0
279,208.77309432083334,209.100017425,71.0,92.0
280,209.23463282083333,209.515402075,75.0,92.0
281,209.69617132083334,210.88463295833333,73.0,92.0
282,211.08078682083334,211.24617145,71.0,92.0
283,211.31155607083332,211.45770992916667,73.0,92.0
284,211.54232532083333,211.84040226875,75.0,92.0
285,212.00386382083335,212.17694075833333,75.0,92.0
286,212.46540232083333,212.90001774166666,75.0,92.0
287,212.92694082083332,213.28463315833332,66.0,92.0
288,213.38847932083334,213.82117166458335,67.0,92.0
289,213.85001782083333,214.18271015625,70.0,92.0
290,214.31155632083332,214.60963326875,76.0,92.0
291,214.77309482083334,215.05194099791666,75.0,92.0
292,215.23463332083332,215.56924873333332,73.0,92.0
293,215.69617182083334,216.23271032708334,71.0,92.0
294,216.38847957083334,216.78078729583333,71.0,92.0
295,216.85001807083333,216.99617192916668,66.0,92.0
296,218.46540282083333,218.70386437916667,73.0,92.0
297,217.08078732083334,218.72501822708332,67.0,92.0
298,218.69617207083334,218.85386439166666,75.0,92.0
299,218.92694132083332,219.25001827083332,78.0,92.0
300,219.38847982083334,219.65386445833335,76.0,92.0
301,219.38847982083334,219.65386445833335,76.0,92.0
302,219.85001832083333,220.176941425,76.0,92.0
303,220.31155682083335,220.61155684583332,68.0,92.0
304,220.77309532083333,221.06155688333334,75.0,92.0
305,221.23463382083332,221.48655691875,73.0,92.0
306,221.69617232083334,222.19232620833333,71.0,92.0
307,222.38848007083334,222.52886469791667,66.0,92.0
308,222.61924932083332,222.93271088541667,65.0,92.0
309,223.08078782083334,223.45963400624998,68.0,92.0
310,223.54232632083333,223.86540327083333,71.0,92.0
311,224.00386482083334,224.32886484791666,75.0,92.0
312,224.46540332083333,225.60386495416665,73.0,92.0
313,225.85001882083333,226.16155730833333,71.0,92.0
314,226.31155732083334,227.87886514375,71.0,92.0
