,start,end,pitch,velocity
0,1.0807693208333333,1.56346166875,75.0,70.0
1,1.5423078208333334,2.16346171875,66.0,63.0
2,1.0807693208333333,2.45192328125,47.0,79.0
3,2.0038463208333335,2.48653866875,71.0,66.0
4,1.5423078208333334,2.5807694458333335,54.0,72.0
5,2.0038463208333335,2.59038483125,59.0,56.0
6,2.465384820833333,2.871154085416667,75.0,79.0
7,2.926923320833333,3.30576950625,73.0,72.0
8,2.926923320833333,3.8326926270833335,46.0,49.0
9,3.3884618208333332,3.8384618583333334,54.0,49.0
10,3.3884618208333332,3.8961541708333334,66.0,62.0
11,3.8500003208333333,4.313461897916667,70.0,74.0
12,3.8500003208333333,4.36730805625,58.0,61.0
13,4.773077320833333,5.211538895833334,71.0,75.0
14,4.773077320833333,5.63653893125,44.0,71.0
15,5.2346158208333335,5.730769708333333,51.0,63.0
16,5.2346158208333335,5.7903850979166664,63.0,73.0
17,5.696154320833333,6.053846658333334,66.0,85.0
18,5.696154320833333,6.207692825,56.0,58.0
19,6.157692820833334,6.661539016666667,71.0,65.0
20,6.157692820833334,6.669231325,58.0,61.0
21,8.465385320833333,8.94807766875,75.0,70.0
22,8.926923820833334,9.54807771875,66.0,63.0
23,8.465385320833333,9.83653928125,47.0,79.0
24,9.388462320833334,9.87115466875,71.0,66.0
25,8.926923820833334,9.965385445833332,54.0,72.0
26,9.388462320833334,9.97500083125,59.0,56.0
27,9.850000820833333,10.255770085416666,75.0,79.0
28,10.311539320833333,10.69038550625,73.0,72.0
29,10.311539320833333,11.217308627083334,46.0,49.0
30,10.773077820833333,11.223077858333333,54.0,49.0
31,10.773077820833333,11.280770170833334,66.0,62.0
32,11.234616320833334,11.698077897916667,70.0,74.0
33,11.234616320833334,11.75192405625,58.0,61.0
34,12.157693320833333,12.596154895833333,71.0,75.0
35,12.157693320833333,13.02115493125,44.0,71.0
36,12.619231820833333,13.115385708333333,51.0,63.0
37,12.619231820833333,13.175001097916667,63.0,73.0
38,13.080770320833333,13.438462658333334,66.0,85.0
39,13.080770320833333,13.592308825,56.0,58.0
40,13.542308820833334,14.046155016666667,71.0,65.0
41,13.542308820833334,14.053847325,58.0,61.0
42,15.850001320833334,16.705770622916667,63.0,83.0
43,15.850001320833334,17.23077066666667,47.0,85.0
44,16.773078320833335,17.275001439583335,59.0,64.0
45,16.31153982083333,17.673078395833333,54.0,66.0
46,18.157693820833334,18.62884770625,49.0,65.0
47,17.696155320833334,19.042309279166666,46.0,73.0
48,17.234616820833335,19.117309285416667,63.0,64.0
49,18.619232320833333,19.161540058333333,54.0,79.0
50,19.542309320833333,21.146155608333334,44.0,74.0
51,20.465386320833332,21.38654024375,56.0,55.0
52,20.92692482083333,21.451924864583333,59.0,59.0
53,20.003847820833332,21.70961719375,51.0,61.0
54,21.388463320833335,22.93846345,39.0,63.0
55,22.311540320833334,22.99038653125,51.0,58.0
56,21.850001820833334,23.22115578125,46.0,61.0
57,22.773078820833334,23.282694247916666,54.0,61.0
58,23.234617320833333,24.615386666666666,40.0,79.0
59,23.696155820833333,24.65192513125,47.0,70.0
60,24.157694320833333,24.7038482125,56.0,59.0
61,24.619232820833332,25.105771322916667,52.0,54.0
62,25.080771320833332,26.50961759375,47.0,76.0
63,26.465386820833334,26.888463779166667,59.0,60.0
64,25.54230982083333,26.90192531875,54.0,65.0
65,26.003848320833335,26.946156091666666,63.0,63.0
66,26.926925320833334,27.915386941666668,64.0,76.0
67,27.388463820833334,28.057694645833333,56.0,62.0
68,26.926925320833334,28.315386975,49.0,76.0
69,27.850002320833333,28.3500023625,66.0,74.0
70,28.311540820833333,28.78269470625,64.0,81.0
71,29.234617820833332,30.188464054166666,49.0,63.0
72,28.773079320833332,30.20192559375,42.0,87.0
73,29.69615632083333,30.21346405625,56.0,65.0
74,30.157694820833335,30.580771779166668,58.0,73.0
75,31.542310320833334,31.988464204166668,59.0,63.0
76,31.080771820833334,32.00384882083333,54.0,64.0
77,30.619233320833334,32.055771902083336,47.0,79.0
78,32.00384882083333,32.52115655625,61.0,69.0
79,32.46538732083334,33.92884898125,42.0,72.0
80,33.388464320833336,33.9346182125,56.0,74.0
81,33.85000282083333,34.292310549999996,54.0,59.0
82,33.85000282083333,34.30961824375,58.0,70.0
83,32.92692582083333,34.348079785416665,49.0,70.0
84,35.234618320833334,35.476926033333335,56.0,61.0
85,34.77307982083333,35.63654143125,51.0,65.0
86,34.311541320833335,35.67692605,44.0,68.0
87,34.311541320833335,35.692310666666664,59.0,77.0
88,35.69615682083333,36.171156860416666,58.0,68.0
89,36.157695320833334,37.73846468333333,39.0,58.0
90,37.542310820833336,38.00384932083333,51.0,51.0
91,36.61923382083333,38.03269547708333,46.0,57.0
92,37.08077232083333,38.0423108625,54.0,85.0
93,38.00384932083333,38.588464754166665,56.0,72.0
94,38.00384932083333,39.371157127083336,40.0,86.0
95,38.465387820833335,39.42884943958333,47.0,74.0
96,38.92692632083333,39.438464825,52.0,59.0
97,39.388464820833335,39.84423408958333,58.0,74.0
98,39.85000332083333,40.305772589583334,47.0,81.0
99,39.85000332083333,40.305772589583334,63.0,67.0
100,39.85000332083333,40.30961874375,66.0,79.0
101,40.77308032083333,41.35000344583333,63.0,69.0
102,40.77308032083333,41.36346498541667,59.0,60.0
103,40.77308032083333,41.40577268125,44.0,61.0
104,41.696157320833336,42.14423428125,64.0,71.0
105,42.15769582083333,42.49808046458333,47.0,63.0
106,41.696157320833336,42.51731123541666,40.0,63.0
107,42.15769582083333,42.60384970416666,63.0,54.0
108,42.619234320833336,43.06923435833333,61.0,61.0
109,42.619234320833336,43.201926677083335,42.0,64.0
110,43.08077282083333,43.455772852083335,59.0,61.0
111,43.08077282083333,43.4884651625,49.0,65.0
112,43.542311320833335,44.019234437499996,59.0,64.0
113,44.92692682083333,45.419234554166664,61.0,59.0
114,45.38846532083333,46.23654231458333,64.0,71.0
115,46.31154232083333,47.12885008125,63.0,74.0
116,44.465388320833334,47.17115777708333,59.0,60.0
117,44.00384982083333,47.17885008541667,54.0,63.0
118,43.542311320833335,47.19808085625,47.0,79.0
119,47.23461932083333,48.390388647916666,44.0,81.0
120,47.696157820833335,48.6115425125,51.0,65.0
121,48.15769632083333,48.655773285416664,59.0,59.0
122,48.619234820833334,48.91346561458333,39.0,74.0
123,49.54231182083333,50.15192725625,51.0,54.0
124,49.08077332083333,50.236542647916664,43.0,63.0
125,50.00385032083333,50.598081139583336,67.0,77.0
126,50.926927320833336,51.72885046458333,56.0,60.0
127,50.926927320833336,51.736542772916664,59.0,69.0
128,50.926927320833336,52.11731203541667,40.0,63.0
129,51.38846582083333,52.165388962499996,47.0,58.0
130,51.850004320833335,52.28461974166667,56.0,59.0
131,51.850004320833335,52.30961974375,59.0,72.0
132,52.773081320833334,53.62115831458333,54.0,64.0
133,52.773081320833334,53.634619854166665,58.0,68.0
134,53.23461982083333,54.36731222291667,46.0,59.0
135,53.696158320833334,54.390389147916665,58.0,77.0
136,53.696158320833334,54.417312227083336,54.0,62.0
137,52.773081320833334,54.4500045375,39.0,59.0
138,55.54231232083333,56.83077396666667,49.0,61.0
139,56.003850820833335,57.055773985416664,53.0,66.0
140,54.61923532083333,57.763466352083334,37.0,83.0
141,56.46538932083333,57.782697122916666,61.0,81.0
142,56.926927820833335,57.7846202,49.0,58.0
143,55.080773820833336,57.90962021041667,44.0,61.0
144,57.38846632083333,58.01923560416667,53.0,68.0
145,57.850004820833334,58.25192793125,56.0,69.0
146,59.69615882083333,60.11731270208333,56.0,58.0
147,60.157697320833336,60.794235835416664,58.0,79.0
148,58.31154332083333,61.446158966666665,42.0,64.0
149,58.77308182083333,61.53077435833333,49.0,71.0
150,61.080774320833335,61.588466670833334,59.0,90.0
151,59.234620320833336,61.60000513333333,54.0,63.0
152,61.54231282083333,62.03269747708333,61.0,87.0
153,62.003851320833334,62.53846675,63.0,90.0
154,62.46538982083333,63.34231297083333,54.0,69.0
155,62.003851320833334,63.39808220625,47.0,83.0
156,63.38846682083333,63.8192360875,66.0,67.0
157,62.92692832083333,63.83077455,63.0,70.0
158,63.85000532083333,64.64615923333334,61.0,58.0
159,63.85000532083333,64.66539000416667,66.0,66.0
160,64.77308232083334,65.20192851041666,54.0,60.0
161,63.85000532083333,65.20962081875,46.0,68.0
162,64.77308232083334,65.20962081875,61.0,67.0
163,64.77308232083334,65.20962081875,66.0,79.0
164,63.85000532083333,65.25769774583333,49.0,74.0
165,65.69615932083333,66.5192363125,59.0,65.0
166,65.69615932083333,66.53846708333333,63.0,75.0
167,66.15769782083333,67.01731327708333,51.0,58.0
168,65.69615932083333,67.08269789791666,44.0,66.0
169,66.61923632083334,67.09423636041667,63.0,74.0
170,66.61923632083334,67.1076979,59.0,68.0
171,67.54231332083333,68.37885185208333,54.0,65.0
172,67.54231332083333,68.39039031458333,58.0,71.0
173,68.46539032083334,68.97115959375,54.0,70.0
174,68.46539032083334,68.976928825,58.0,74.0
175,67.54231332083333,68.98654421041667,39.0,75.0
176,68.92692882083334,69.33846731666667,51.0,54.0
177,68.00385182083333,69.36731347291666,46.0,74.0
178,69.38846732083333,69.82308274166667,59.0,58.0
179,69.38846732083333,69.92692890416667,56.0,63.0
180,69.38846732083333,70.74423666458333,40.0,77.0
181,69.85000582083333,70.8000059,47.0,68.0
182,70.31154432083333,70.83269821041667,56.0,59.0
183,70.31154432083333,70.83269821041667,59.0,65.0
184,70.77308282083334,71.192313625,52.0,59.0
185,71.23462132083333,72.069236775,54.0,66.0
186,71.23462132083333,72.07500600624999,58.0,65.0
187,71.23462132083333,72.61731374375,39.0,70.0
188,72.15769832083333,72.65577528541667,58.0,77.0
189,72.15769832083333,72.65962143958333,54.0,70.0
190,71.69615982083333,72.67692913333333,46.0,64.0
191,72.61923682083334,72.79423683541667,51.0,59.0
192,73.08077532083334,73.85962153958333,73.0,77.0
193,73.08077532083334,73.87116000208333,68.0,85.0
194,73.08077532083334,73.87692923333333,65.0,67.0
195,74.00385232083333,74.33269850208333,61.0,59.0
196,74.00385232083333,74.34039081041666,73.0,83.0
197,74.00385232083333,74.34423696458333,68.0,85.0
198,73.54231382083333,74.38462158333333,56.0,60.0
199,74.00385232083333,74.40000619999999,65.0,70.0
200,73.08077532083334,74.4115446625,49.0,77.0
201,74.92692932083334,75.74039092708334,66.0,48.0
202,74.92692932083334,75.76539092916667,58.0,64.0
203,74.92692932083334,75.7730832375,61.0,59.0
204,74.92692932083334,76.34616020833333,42.0,81.0
205,75.85000632083333,76.35962174791666,61.0,85.0
206,75.85000632083333,76.361544825,66.0,87.0
207,75.85000632083333,76.36539097916666,58.0,77.0
208,75.38846782083333,76.3730832875,49.0,61.0
209,76.31154482083333,76.57116022708334,54.0,60.0
210,76.77308332083334,77.54808338541666,71.0,54.0
211,76.77308332083334,77.5730833875,66.0,58.0
212,76.77308332083334,77.57692954166667,63.0,63.0
213,77.92692957083334,78.03846804166666,59.0,61.0
214,77.69616032083333,78.11731420208334,71.0,79.0
215,77.69616032083333,78.12308343333333,66.0,95.0
216,77.69616032083333,78.14039112708333,63.0,83.0
217,77.23462182083334,78.15385266666667,54.0,74.0
218,76.77308332083334,78.20385267083333,47.0,79.0
219,78.61923732083334,79.34808353541666,73.0,76.0
220,78.61923732083334,79.39231430833333,70.0,87.0
221,78.61923732083334,79.41539123333334,67.0,71.0
222,78.61923732083334,79.54231432083333,51.0,64.0
223,79.08077582083334,79.89616050416667,55.0,66.0
224,79.54231432083333,79.915391275,73.0,90.0
225,79.54231432083333,79.93077589166667,70.0,95.0
226,79.54231432083333,79.99039128125,67.0,71.0
227,79.54231432083333,80.30385284583333,43.0,75.0
228,80.46539132083333,81.24423753958334,66.0,63.0
229,80.46539132083333,81.253852925,59.0,64.0
230,80.46539132083333,81.25577600208334,63.0,62.0
231,81.38846832083334,81.96154529166667,66.0,74.0
232,81.38846832083334,81.99808375625,63.0,75.0
233,81.38846832083334,82.01346837291666,59.0,68.0
234,81.85000682083333,82.09039145625,56.0,43.0
235,80.46539132083333,82.21346838958333,44.0,72.0
236,80.92692982083334,82.24231454583334,51.0,60.0
237,82.31154532083333,83.17500693125,66.0,67.0
238,82.31154532083333,83.21923770416667,61.0,74.0
239,82.31154532083333,83.23462232083334,42.0,60.0
240,82.31154532083333,83.2500069375,57.0,58.0
241,83.23462232083334,83.2500069375,57.0,60.0
242,83.23462232083334,84.11346854791667,61.0,63.0
243,83.23462232083334,84.11346854791667,66.0,72.0
244,83.23462232083334,84.14423778125,42.0,64.0
245,84.15769932083333,84.9576993875,64.0,73.0
246,84.15769932083333,84.95962246458333,56.0,64.0
247,84.15769932083333,84.98462246666666,59.0,67.0
248,84.61923782083333,85.50962251041666,47.0,72.0
249,85.08077632083334,85.5115455875,64.0,76.0
250,85.08077632083334,85.52693020416666,56.0,68.0
251,85.08077632083334,85.53077635833333,59.0,79.0
252,84.15769932083333,85.53654558958333,40.0,74.0
253,86.00385332083333,86.80193031041667,54.0,65.0
254,86.00385332083333,86.80962261875,63.0,71.0
255,86.00385332083333,86.81923800416666,58.0,68.0
256,86.00385332083333,87.40962266875,39.0,67.0
257,86.46539182083333,87.43077651666667,46.0,63.0
258,86.92693032083334,87.43269959375,63.0,73.0
259,86.92693032083334,87.44231497916667,58.0,77.0
260,86.92693032083334,87.44616113333333,54.0,72.0
261,87.85000732083333,88.42885352291667,68.0,77.0
262,87.85000732083333,88.49231506666666,71.0,74.0
263,87.85000732083333,88.65193046458333,65.0,66.0
264,88.77308432083333,89.15000742916666,68.0,75.0
265,88.77308432083333,89.15193050625,71.0,79.0
266,88.31154582083333,89.15962281458333,53.0,62.0
267,87.85000732083333,89.17116127708333,49.0,75.0
268,88.77308432083333,89.18654589375,65.0,63.0
269,89.69616132083333,89.81923825416666,64.0,71.0
270,89.69616132083333,90.51154600416666,58.0,63.0
271,89.69616132083333,90.51154600416666,66.0,66.0
272,89.69616132083333,90.52116138958333,61.0,63.0
273,89.69616132083333,91.12693067083333,42.0,73.0
274,90.61923832083333,91.12885374791666,61.0,90.0
275,90.61923832083333,91.12885374791666,66.0,95.0
276,90.61923832083333,91.13269990208333,58.0,83.0
277,90.15769982083333,91.176930675,49.0,64.0
278,91.08077682083334,91.54039224375,54.0,66.0
279,91.54231532083334,92.3192384625,63.0,73.0
280,91.54231532083334,92.330776925,71.0,74.0
281,91.54231532083334,92.34039231041666,66.0,77.0
282,92.46539232083333,92.92308466666667,78.0,81.0
283,92.46539232083333,93.06731544791667,71.0,69.0
284,92.46539232083333,93.1961616125,66.0,76.0
285,92.46539232083333,93.26731546458333,63.0,65.0
286,92.92693082083333,93.38270008958334,75.0,65.0
287,92.92693082083333,93.57500779791667,59.0,54.0
288,93.85000782083333,94.31923862916666,75.0,49.0
289,94.31154632083333,94.75385405,78.0,73.0
290,93.38846932083334,94.86346944375,66.0,63.0
291,92.00385382083333,94.95962329791666,54.0,68.0
292,93.38846932083334,94.9846233,63.0,65.0
293,93.38846932083334,94.9846233,71.0,74.0
294,91.54231532083334,95.05770022916667,47.0,81.0
295,94.77308482083333,95.27693101666667,75.0,66.0
296,95.23462332083334,95.73846951666667,70.0,64.0
297,95.72116182291667,96.1269310875,73.0,69.0
298,96.15770032083333,96.66154651666666,78.0,76.0
299,96.61923882083333,97.11346963125,73.0,59.0
300,97.08077732083333,97.68846967916667,70.0,60.0
301,97.54231582083334,98.05193124791667,73.0,51.0
302,95.23462332083334,98.35000819583334,42.0,65.0
303,95.23462332083334,98.39039281458334,58.0,62.0
304,96.61923882083333,98.40385435416667,54.0,57.0
305,96.15770032083333,98.40962358541667,61.0,62.0
306,95.69616182083334,98.41346973958333,49.0,63.0
307,97.08077732083333,98.45962358958333,66.0,61.0
308,98.00385432083333,98.53077744166667,78.0,58.0
309,98.46539282083333,98.98654671041666,73.0,58.0
310,99.38846982083334,99.86731601458334,75.0,63.0
311,98.92693132083333,99.86923909166667,71.0,62.0
312,99.85000832083334,100.30000835833333,78.0,68.0
313,100.31154682083333,100.79231609166666,75.0,65.0
314,100.77308532083333,101.284623825,71.0,59.0
315,101.23462382083333,101.70193155208334,75.0,59.0
316,98.92693132083333,102.04231619583334,47.0,63.0
317,98.92693132083333,102.05385465833334,66.0,70.0
318,98.92693132083333,102.0577008125,63.0,58.0
319,101.69616232083334,102.18847005416667,78.0,76.0
320,102.15770082083333,102.58654701041667,75.0,63.0
321,102.61923932083333,103.35193168958334,70.0,60.0
322,103.08077782083333,103.48462400833333,73.0,59.0
323,103.54231632083334,104.03654713125,78.0,71.0
324,104.00385482083334,104.49039332291666,73.0,67.0
325,104.46539332083333,105.01731644375,70.0,60.0
326,104.92693182083333,105.43654724791666,73.0,63.0
327,105.38847032083333,105.89231651666667,78.0,65.0
328,102.61923932083333,106.14808576875,61.0,59.0
329,102.61923932083333,106.15193192291666,58.0,59.0
330,102.61923932083333,106.16154730833333,42.0,71.0
331,105.85000882083334,106.30000885833333,73.0,59.0
332,106.31154732083333,107.16731662291667,63.0,83.0
333,106.31154732083333,107.69231666666667,47.0,85.0
334,107.23462432083333,107.73654743958333,59.0,64.0
335,106.77308582083333,108.13462439583333,54.0,66.0
336,108.61923982083333,109.09039370625,49.0,65.0
337,108.15770132083334,109.50385527916667,46.0,73.0
338,107.69616282083334,109.57885528541667,63.0,64.0
339,109.08077832083333,109.62308605833333,54.0,79.0
340,110.00385532083334,111.60770160833333,44.0,74.0
341,110.92693232083333,111.84808624375,56.0,55.0
342,111.38847082083333,111.91347086458333,59.0,59.0
343,110.46539382083333,112.17116319375,51.0,61.0
344,111.85000932083334,113.40000945,39.0,63.0
345,112.77308632083333,113.45193253125,51.0,58.0
346,112.31154782083333,113.68270178125,46.0,61.0
347,113.23462482083333,113.74424024791666,54.0,61.0
348,113.69616332083334,115.07693266666666,40.0,79.0
349,114.15770182083334,115.11347113125,47.0,70.0
350,114.61924032083333,115.1653942125,56.0,59.0
351,115.08077882083333,115.56731732291667,52.0,54.0
352,115.54231732083333,116.97116359375,47.0,76.0
353,116.92693282083333,117.35000977916667,59.0,60.0
354,116.00385582083334,117.36347131875,54.0,65.0
355,116.46539432083333,117.40770209166666,63.0,63.0
356,117.38847132083333,118.37693294166667,64.0,76.0
357,117.85000982083334,118.51924064583334,56.0,62.0
358,117.38847132083333,118.776932975,49.0,76.0
359,118.31154832083334,118.8115483625,66.0,74.0
360,118.77308682083333,119.24424070625,64.0,81.0
361,119.69616382083333,120.65001005416667,49.0,63.0
362,119.23462532083333,120.66347159375,42.0,87.0
363,120.15770232083334,120.67501005625,56.0,65.0
364,120.61924082083333,121.04231777916667,58.0,73.0
365,122.00385632083334,122.45001020416666,59.0,63.0
366,121.54231782083333,122.46539482083334,54.0,64.0
367,121.08077932083333,122.51731790208333,47.0,79.0
368,122.46539482083334,122.98270255625,61.0,69.0
369,122.92693332083333,124.39039498125,42.0,72.0
370,123.85001032083333,124.3961642125,56.0,74.0
371,124.31154882083334,124.75385655,54.0,59.0
372,124.31154882083334,124.77116424375,58.0,70.0
373,123.38847182083333,124.80962578541667,49.0,70.0
374,125.69616432083333,125.93847203333333,56.0,61.0
375,125.23462582083333,126.09808743125,51.0,65.0
376,124.77308732083333,126.13847205,44.0,68.0
377,124.77308732083333,126.15385666666667,59.0,77.0
378,126.15770282083334,126.63270286041667,58.0,68.0
379,126.61924132083334,128.20001068333335,39.0,58.0
380,128.00385682083333,128.46539532083332,51.0,51.0
381,127.08077982083333,128.49424147708334,46.0,57.0
382,127.54231832083333,128.5038568625,54.0,85.0
383,128.46539532083332,129.05001075416666,56.0,72.0
384,128.46539532083332,129.83270312708333,40.0,86.0
385,128.92693382083334,129.89039543958333,47.0,74.0
386,129.38847232083333,129.900010825,52.0,59.0
387,129.85001082083332,130.30578008958332,58.0,74.0
388,130.31154932083334,130.76731858958334,47.0,81.0
389,130.31154932083334,130.76731858958334,63.0,67.0
390,130.31154932083334,130.77116474375,66.0,79.0
391,131.23462632083334,131.81154944583332,63.0,69.0
392,131.23462632083334,131.82501098541667,59.0,60.0
393,131.23462632083334,131.86731868125,44.0,61.0
394,132.15770332083332,132.60578028125,64.0,71.0
395,132.61924182083334,132.95962646458332,47.0,63.0
396,132.15770332083332,132.97885723541665,40.0,63.0
397,132.61924182083334,133.06539570416666,63.0,54.0
398,133.08078032083333,133.53078035833335,61.0,61.0
399,133.08078032083333,133.66347267708332,42.0,64.0
400,133.54231882083334,133.91731885208333,59.0,61.0
401,133.54231882083334,133.9500111625,49.0,65.0
402,134.00385732083333,134.4807804375,59.0,64.0
403,135.38847282083333,135.88078055416668,61.0,59.0
404,135.85001132083335,136.69808831458334,64.0,71.0
405,136.77308832083332,137.59039608125,63.0,74.0
406,134.92693432083334,137.63270377708332,59.0,60.0
407,134.46539582083332,137.64039608541665,54.0,63.0
408,134.00385732083333,137.65962685625,47.0,79.0
409,137.69616532083333,138.85193464791666,44.0,81.0
410,138.15770382083332,139.0730885125,51.0,65.0
411,138.61924232083334,139.11731928541667,59.0,59.0
412,139.08078082083333,139.37501161458334,39.0,74.0
413,140.00385782083333,140.61347325625,51.0,54.0
414,139.54231932083334,140.69808864791668,43.0,63.0
415,140.46539632083332,141.05962713958334,67.0,77.0
416,141.38847332083333,142.19039646458333,56.0,60.0
417,141.38847332083333,142.19808877291666,59.0,69.0
418,141.38847332083333,142.57885803541666,40.0,63.0
419,141.85001182083334,142.6269349625,47.0,58.0
420,142.31155032083333,142.74616574166666,56.0,59.0
421,142.31155032083333,142.77116574375,59.0,72.0
422,143.23462732083334,144.08270431458334,54.0,64.0
423,143.23462732083334,144.09616585416666,58.0,68.0
424,143.69616582083333,144.82885822291666,46.0,59.0
425,144.15770432083335,144.85193514791666,58.0,77.0
426,144.15770432083335,144.87885822708333,54.0,62.0
427,143.23462732083334,144.9115505375,39.0,59.0
428,146.00385832083333,147.29231996666667,49.0,61.0
429,146.46539682083332,147.51731998541666,53.0,66.0
430,145.08078132083332,148.22501235208333,37.0,83.0
431,146.92693532083334,148.24424312291666,61.0,81.0
432,147.38847382083333,148.2461662,49.0,58.0
433,145.54231982083334,148.37116621041667,44.0,61.0
434,147.85001232083334,148.48078160416668,53.0,68.0
435,148.31155082083333,148.71347393125,56.0,69.0
436,150.15770482083335,150.57885870208332,56.0,58.0
437,150.61924332083333,151.25578183541666,58.0,79.0
438,148.77308932083332,151.90770496666667,42.0,64.0
439,149.23462782083334,151.99232035833333,49.0,71.0
440,151.54232032083334,152.05001267083333,59.0,90.0
441,149.69616632083333,152.06155113333332,54.0,63.0
442,152.00385882083333,152.49424347708333,61.0,87.0
443,152.46539732083332,153.00001275,63.0,90.0
444,152.92693582083334,153.80385897083335,54.0,69.0
445,152.46539732083332,153.85962820625,47.0,83.0
446,153.85001282083334,154.2807820875,66.0,67.0
447,153.38847432083332,154.29232055,63.0,70.0
448,154.31155132083333,155.10770523333332,61.0,58.0
449,154.31155132083333,155.12693600416665,66.0,66.0
450,155.23462832083334,155.66347451041668,54.0,60.0
451,154.31155132083333,155.67116681875,46.0,68.0
452,155.23462832083334,155.67116681875,61.0,67.0
453,155.23462832083334,155.67116681875,66.0,79.0
454,154.31155132083333,155.71924374583332,49.0,74.0
455,156.15770532083334,156.9807823125,59.0,65.0
456,156.15770532083334,157.00001308333333,63.0,75.0
457,156.61924382083333,157.47885927708333,51.0,58.0
458,156.15770532083334,157.54424389791666,44.0,66.0
459,157.08078232083332,157.55578236041666,63.0,74.0
460,157.08078232083332,157.5692439,59.0,68.0
461,158.00385932083333,158.84039785208333,54.0,65.0
462,158.00385932083333,158.85193631458333,58.0,71.0
463,158.92693632083333,159.43270559375,54.0,70.0
464,158.92693632083333,159.438474825,58.0,74.0
465,158.00385932083333,159.44809021041667,39.0,75.0
466,159.38847482083332,159.80001331666668,51.0,54.0
467,158.46539782083335,159.82885947291666,46.0,74.0
468,159.85001332083334,160.28462874166667,59.0,58.0
469,159.85001332083334,160.38847490416666,56.0,63.0
470,159.85001332083334,161.20578266458332,40.0,77.0
471,160.31155182083333,161.2615519,47.0,68.0
472,160.77309032083332,161.29424421041668,56.0,59.0
473,160.77309032083332,161.29424421041668,59.0,65.0
474,161.23462882083334,161.653859625,52.0,59.0
475,161.69616732083333,162.530782775,54.0,66.0
476,161.69616732083333,162.53655200625,58.0,65.0
477,161.69616732083333,163.07885974375,39.0,70.0
478,162.61924432083333,163.11732128541666,58.0,77.0
479,162.61924432083333,163.12116743958333,54.0,70.0
480,162.15770582083334,163.13847513333334,46.0,64.0
481,163.08078282083332,163.25578283541665,51.0,59.0
482,163.54232132083334,164.32116753958334,73.0,77.0
483,163.54232132083334,164.33270600208334,68.0,85.0
484,163.54232132083334,164.33847523333333,65.0,67.0
485,164.46539832083334,164.79424450208333,61.0,59.0
486,164.46539832083334,164.80193681041666,73.0,83.0
487,164.46539832083334,164.80578296458333,68.0,85.0
488,164.00385982083333,164.84616758333334,56.0,60.0
489,164.46539832083334,164.8615522,65.0,70.0
490,163.54232132083334,164.8730906625,49.0,77.0
491,164.46539832083334,164.884629125,53.0,63.0
492,165.38847532083332,166.20193692708332,66.0,48.0
493,165.38847532083332,166.22693692916667,58.0,64.0
494,165.38847532083332,166.2346292375,61.0,59.0
495,165.38847532083332,166.80770620833334,42.0,81.0
496,166.31155232083333,166.82116774791666,61.0,85.0
497,166.31155232083333,166.823090825,66.0,87.0
498,166.31155232083333,166.82693697916667,58.0,77.0
499,165.85001382083334,166.8346292875,49.0,61.0
500,166.77309082083335,167.03270622708334,54.0,60.0
501,167.23462932083333,168.00962938541667,71.0,54.0
502,167.23462932083333,168.0346293875,66.0,58.0
503,167.23462932083333,168.03847554166666,63.0,63.0
504,168.38847557083332,168.50001404166667,59.0,61.0
505,168.15770632083334,168.57886020208332,71.0,79.0
506,168.15770632083334,168.58462943333333,66.0,95.0
507,168.15770632083334,168.60193712708335,63.0,83.0
508,167.69616782083332,168.61539866666666,54.0,74.0
509,167.23462932083333,168.66539867083333,47.0,79.0
510,169.08078332083332,169.80962953541666,73.0,76.0
511,169.08078332083332,169.85386030833334,70.0,87.0
512,169.08078332083332,169.87693723333334,67.0,71.0
513,169.08078332083332,170.00386032083333,51.0,64.0
514,169.54232182083334,170.35770650416666,55.0,66.0
515,170.00386032083333,170.376937275,73.0,90.0
516,170.00386032083333,170.39232189166665,70.0,95.0
517,170.00386032083333,170.45193728125,67.0,71.0
518,170.00386032083333,170.76539884583335,43.0,75.0
519,170.92693732083333,171.70578353958334,66.0,63.0
520,170.92693732083333,171.715398925,59.0,64.0
521,170.92693732083333,171.71732200208334,63.0,62.0
522,171.85001432083334,172.42309129166668,66.0,74.0
523,171.85001432083334,172.45962975625,63.0,75.0
524,171.85001432083334,172.47501437291666,59.0,68.0
525,172.31155282083333,172.55193745625,56.0,43.0
526,170.92693732083333,172.67501438958334,44.0,72.0
527,171.38847582083332,172.70386054583332,51.0,60.0
528,172.77309132083334,173.63655293125,66.0,67.0
529,172.77309132083334,173.68078370416666,61.0,74.0
530,172.77309132083334,173.7115529375,57.0,58.0
531,172.77309132083334,173.75578371041667,42.0,60.0
532,173.69616832083332,173.75578371041667,42.0,64.0
533,173.69616832083332,174.57116839374999,54.0,60.0
534,173.69616832083332,174.57501454791665,61.0,63.0
535,173.69616832083332,174.57501454791665,66.0,72.0
536,174.61924532083333,175.4192453875,64.0,73.0
537,174.61924532083333,175.42116846458333,56.0,64.0
538,174.61924532083333,175.44616846666668,59.0,67.0
539,175.08078382083335,175.97116851041667,47.0,72.0
540,175.54232232083334,175.9730915875,64.0,76.0
541,175.54232232083334,175.98847620416666,56.0,68.0
542,175.54232232083334,175.99232235833333,59.0,79.0
543,174.61924532083333,175.99809158958334,40.0,74.0
544,176.46539932083334,177.26347631041668,54.0,65.0
545,176.46539932083334,177.27116861875,63.0,71.0
546,176.46539932083334,177.28078400416666,58.0,68.0
547,176.46539932083334,177.87116866875,39.0,67.0
548,176.92693782083333,177.89232251666667,46.0,63.0
549,177.38847632083332,177.89424559375,63.0,73.0
550,177.38847632083332,177.90386097916667,58.0,77.0
551,177.38847632083332,177.90770713333333,54.0,72.0
552,178.31155332083333,178.89039952291665,68.0,77.0
553,178.31155332083333,178.95386106666666,71.0,74.0
554,178.31155332083333,179.11347646458333,65.0,66.0
555,179.23463032083333,179.61155342916666,68.0,75.0
556,179.23463032083333,179.61347650625,71.0,79.0
557,178.77309182083334,179.62116881458334,53.0,62.0
558,178.31155332083333,179.63270727708334,49.0,75.0
559,179.23463032083333,179.64809189375,65.0,63.0
560,180.15770732083334,180.28078425416666,64.0,71.0
561,180.15770732083334,180.97309200416666,58.0,63.0
562,180.15770732083334,180.97309200416666,66.0,66.0
563,180.15770732083334,180.98270738958334,61.0,63.0
564,180.15770732083334,181.58847667083333,42.0,73.0
565,181.08078432083335,181.59039974791668,61.0,90.0
566,181.08078432083335,181.59039974791668,66.0,95.0
567,181.08078432083335,181.59424590208334,58.0,83.0
568,180.61924582083333,181.638476675,49.0,64.0
569,181.54232282083333,182.00193824375,54.0,66.0
570,182.00386132083332,183.14809218541666,68.0,58.0
571,182.00386132083332,183.76539992916668,71.0,67.0
572,182.92693832083333,184.06539995416668,64.0,51.0
573,183.85001532083334,184.65963077291667,66.0,63.0
574,183.85001532083334,184.68078462083332,63.0,65.0
575,183.85001532083334,184.70386154583332,71.0,74.0
576,184.08078457083334,184.70386154583332,71.0,12.0
577,182.00386132083332,184.76155385833334,47.0,81.0
578,183.38847682083332,185.02886157291667,68.0,56.0
579,184.77309232083334,185.10193850208333,64.0,57.0
580,183.85001532083334,185.10386157916668,76.0,73.0
581,182.00386132083332,185.26924620833333,52.0,72.0
582,182.46539982083334,185.42693852916668,59.0,63.0
583,185.23463082083333,185.76732317291666,68.0,59.0
584,186.15770782083334,186.72116940625,66.0,59.0
585,187.08078482083334,187.57116947708334,63.0,64.0
586,187.31155407083332,187.57116947708334,66.0,11.0
587,187.54232332083333,188.48270801458332,75.0,63.0
588,186.61924632083333,188.53270801875,70.0,65.0
589,188.00386182083332,188.85770804583333,63.0,54.0
590,185.69616932083332,188.96732343958334,51.0,62.0
591,187.08078482083334,188.97501574791667,58.0,57.0
592,188.46540032083334,189.27886192708334,66.0,63.0
593,188.92693882083333,189.28463115833333,70.0,61.0
594,189.38847732083335,190.12501584375,66.0,74.0
595,189.38847732083335,190.16347738541666,69.0,71.0
596,189.38847732083335,191.007708225,57.0,64.0
597,189.38847732083335,191.04616976666668,62.0,61.0
598,190.31155432083332,191.07116976875,66.0,74.0
599,190.31155432083332,191.07116976875,69.0,81.0
600,191.23463132083333,191.85770829583333,62.0,62.0
601,191.23463132083333,192.00578523125,66.0,69.0
602,191.23463132083333,192.03655446458333,69.0,75.0
603,192.15770832083334,192.8654006875,66.0,72.0
604,192.15770832083334,192.87693915,69.0,86.0
605,189.38847732083335,192.95001607916666,54.0,66.0
606,191.23463132083333,193.01924685416665,57.0,75.0
607,192.15770832083334,193.02309300833332,62.0,64.0
608,189.38847732083335,193.02886223958333,50.0,60.0
609,193.08078532083334,194.29809311458334,58.0,61.0
610,193.54232382083333,194.73270853541666,49.0,71.0
611,193.08078532083334,194.92693932083333,42.0,50.0
612,194.00386232083332,194.92693932083333,54.0,56.0
613,194.46540082083334,194.92693932083333,58.0,54.0
614,193.08078532083334,194.92693932083333,61.0,67.0
615,194.92693932083333,195.49232398333334,56.0,75.0
616,194.92693932083333,195.49424706041665,59.0,81.0
617,194.92693932083333,195.6000163,40.0,70.0
618,195.85001632083333,196.35386251666665,58.0,85.0
619,195.85001632083333,196.35770867083332,42.0,76.0
620,195.85001632083333,196.35770867083332,59.0,90.0
621,195.85001632083333,196.3730932875,61.0,85.0
622,196.31155482083332,196.3730932875,61.0,87.0
623,196.77309332083334,197.30770875,63.0,90.0
624,197.23463182083333,198.11155497083334,54.0,69.0
625,196.77309332083334,198.16732420625,47.0,83.0
626,198.15770882083334,198.5884780875,66.0,67.0
627,197.69617032083335,198.60001655,63.0,70.0
628,198.61924732083332,199.41540123333334,61.0,58.0
629,198.61924732083332,199.43463200416667,66.0,66.0
630,199.54232432083333,199.97117051041667,54.0,60.0
631,198.61924732083332,199.97886281875,46.0,68.0
632,199.54232432083333,199.97886281875,61.0,67.0
633,199.54232432083333,199.97886281875,66.0,79.0
634,198.61924732083332,200.02693974583335,49.0,74.0
635,200.46540132083334,201.2884783125,59.0,65.0
636,200.46540132083334,201.30770908333332,63.0,75.0
637,200.92693982083333,201.78655527708332,51.0,58.0
638,200.46540132083334,201.85193989791668,44.0,66.0
639,201.38847832083334,201.86347836041668,63.0,74.0
640,201.38847832083334,201.8769399,59.0,68.0
641,202.31155532083332,203.14809385208332,54.0,65.0
642,202.31155532083332,203.15963231458332,58.0,71.0
643,203.23463232083333,203.74040159375,54.0,70.0
644,203.23463232083333,203.746170825,58.0,74.0
645,202.31155532083332,203.75578621041666,39.0,75.0
646,203.69617082083334,204.10770931666667,51.0,54.0
647,202.77309382083334,204.13655547291665,46.0,74.0
648,204.15770932083333,204.59232474166666,59.0,58.0
649,204.15770932083333,204.69617090416668,56.0,63.0
650,204.15770932083333,205.51347866458335,40.0,77.0
651,204.61924782083332,205.5692479,47.0,68.0
652,205.08078632083334,205.60194021041667,56.0,59.0
653,205.08078632083334,205.60194021041667,59.0,65.0
654,205.54232482083333,205.961555625,52.0,59.0
655,206.00386332083332,206.838478775,54.0,66.0
656,206.00386332083332,206.84424800625,58.0,65.0
657,206.00386332083332,207.38655574375,39.0,70.0
658,206.92694032083332,207.42501728541666,58.0,77.0
659,206.92694032083332,207.42886343958332,54.0,70.0
660,206.46540182083334,207.44617113333334,46.0,64.0
661,207.38847882083334,207.56347883541667,51.0,59.0
662,207.85001732083333,208.62886353958334,73.0,77.0
663,207.85001732083333,208.64040200208333,68.0,85.0
664,207.85001732083333,208.64617123333332,65.0,67.0
665,208.77309432083334,209.10194050208332,61.0,59.0
666,208.77309432083334,209.10963281041666,73.0,83.0
667,208.77309432083334,209.11347896458332,68.0,85.0
668,208.31155582083332,209.15386358333333,56.0,60.0
669,208.77309432083334,209.1692482,65.0,70.0
670,207.85001732083333,209.1807866625,49.0,77.0
671,208.77309432083334,209.192325125,53.0,63.0
672,209.69617132083334,210.50963292708335,66.0,48.0
673,209.69617132083334,210.53463292916666,58.0,64.0
674,209.69617132083334,210.5423252375,61.0,59.0
675,209.69617132083334,211.11540220833334,42.0,81.0
676,210.61924832083332,211.12886374791665,61.0,85.0
677,210.61924832083332,211.130786825,66.0,87.0
678,210.61924832083332,211.13463297916667,58.0,77.0
679,210.15770982083333,211.1423252875,49.0,61.0
680,211.08078682083334,211.34040222708333,54.0,60.0
681,211.54232532083333,212.31732538541667,71.0,54.0
682,211.54232532083333,212.3423253875,66.0,58.0
683,211.54232532083333,212.34617154166668,63.0,63.0
684,212.69617157083334,212.80771004166667,59.0,61.0
685,212.46540232083333,212.88655620208334,71.0,79.0
686,212.46540232083333,212.89232543333333,66.0,95.0
687,212.46540232083333,212.90963312708334,63.0,83.0
688,212.00386382083335,212.92309466666666,54.0,74.0
689,211.54232532083333,212.97309467083332,47.0,79.0
690,213.38847932083334,214.11732553541665,73.0,76.0
691,213.38847932083334,214.16155630833333,70.0,87.0
692,213.38847932083334,214.18463323333333,67.0,71.0
693,213.38847932083334,214.31155632083332,51.0,64.0
694,213.85001782083333,214.66540250416668,55.0,66.0
695,214.31155632083332,214.684633275,73.0,90.0
696,214.31155632083332,214.70001789166668,70.0,95.0
697,214.31155632083332,214.75963328125,67.0,71.0
698,214.31155632083332,215.07309484583334,43.0,75.0
699,215.23463332083332,216.01347953958333,66.0,63.0
700,215.23463332083332,216.023094925,59.0,64.0
701,215.23463332083332,216.02501800208333,63.0,62.0
702,216.15771032083333,216.73078729166667,66.0,74.0
703,216.15771032083333,216.76732575625,63.0,75.0
704,216.15771032083333,216.78271037291665,59.0,68.0
705,216.61924882083332,216.85963345625,56.0,43.0
706,215.23463332083332,216.98271038958333,44.0,72.0
707,215.69617182083334,217.01155654583334,51.0,60.0
708,217.08078732083334,217.94424893125,66.0,67.0
709,217.08078732083334,217.98847970416668,61.0,74.0
710,217.08078732083334,218.0192489375,57.0,58.0
711,217.08078732083334,218.06347971041666,42.0,60.0
712,218.00386432083334,218.06347971041666,42.0,64.0
713,218.00386432083334,218.87886439375,54.0,60.0
714,218.00386432083334,218.88271054791667,61.0,63.0
715,218.00386432083334,218.88271054791667,66.0,72.0
716,218.92694132083332,219.7269413875,64.0,73.0
717,218.92694132083332,219.72886446458332,56.0,64.0
718,218.92694132083332,219.75386446666667,59.0,67.0
719,219.38847982083334,220.27886451041667,47.0,72.0
720,219.85001832083333,220.2807875875,64.0,76.0
721,219.85001832083333,220.29617220416665,56.0,68.0
722,219.85001832083333,220.30001835833332,59.0,79.0
723,218.92694132083332,220.30578758958333,40.0,74.0
724,220.77309532083333,221.57117231041667,54.0,65.0
725,220.77309532083333,221.57886461875,63.0,71.0
726,220.77309532083333,221.58848000416666,58.0,68.0
727,220.77309532083333,222.17886466875,39.0,67.0
728,221.23463382083332,222.20001851666666,46.0,63.0
729,221.69617232083334,222.20194159375,63.0,73.0
730,221.69617232083334,222.21155697916666,58.0,77.0
731,221.69617232083334,222.21540313333333,54.0,72.0
732,222.61924932083332,223.19809552291667,68.0,77.0
733,222.61924932083332,223.26155706666665,71.0,74.0
734,222.61924932083332,223.42117246458332,65.0,66.0
735,223.54232632083333,223.91924942916665,68.0,75.0
736,223.54232632083333,223.92117250625,71.0,79.0
737,223.08078782083334,223.92886481458333,53.0,62.0
738,222.61924932083332,223.94040327708333,49.0,75.0
739,223.54232632083333,223.95578789375,65.0,63.0
740,224.46540332083333,224.58848025416665,64.0,71.0
741,224.46540332083333,225.28078800416665,58.0,63.0
742,224.46540332083333,225.28078800416665,66.0,66.0
743,224.46540332083333,225.29040338958333,61.0,63.0
744,224.46540332083333,225.89617267083332,42.0,73.0
745,225.38848032083334,225.89809574791667,61.0,90.0
746,225.38848032083334,225.89809574791667,66.0,95.0
747,225.38848032083334,225.90194190208334,58.0,83.0
748,224.92694182083332,225.94617267499999,49.0,64.0
749,225.85001882083333,226.30963424375,54.0,66.0
750,226.31155732083334,226.79424966875,75.0,70.0
751,226.77309582083333,227.39424971875,66.0,63.0
752,226.31155732083334,227.68271128125,47.0,79.0
753,227.23463432083332,227.71732666875,71.0,66.0
754,226.77309582083333,227.81155744583333,54.0,72.0
755,227.23463432083332,227.82117283125,59.0,56.0
756,227.69617282083334,228.10194208541665,75.0,79.0
757,228.15771132083333,228.53655750625,73.0,72.0
758,228.15771132083333,229.06348062708332,46.0,49.0
759,228.61924982083335,229.06924985833334,54.0,49.0
760,228.61924982083335,229.12694217083333,66.0,62.0
761,229.08078832083334,229.54424989791667,70.0,74.0
762,229.08078832083334,229.59809605625,58.0,61.0
763,230.00386532083334,230.44232689583333,71.0,75.0
764,230.00386532083334,230.86732693125,44.0,71.0
765,230.46540382083333,230.96155770833334,51.0,63.0
766,230.46540382083333,231.02117309791666,63.0,73.0
767,230.92694232083332,231.28463465833335,66.0,85.0
768,230.92694232083332,231.438480825,56.0,58.0
769,231.38848082083334,231.89232701666666,71.0,65.0
770,231.38848082083334,231.900019325,58.0,61.0
771,233.69617332083334,234.17886566875,75.0,70.0
772,234.15771182083333,234.77886571875,66.0,63.0
773,233.69617332083334,235.06732728125,47.0,79.0
774,234.61925032083334,235.10194266874998,71.0,66.0
775,234.15771182083333,235.19617344583332,54.0,72.0
776,234.61925032083334,235.20578883125,59.0,56.0
777,235.08078882083333,235.48655808541668,75.0,79.0
778,235.54232732083332,235.92117350625,73.0,72.0
779,235.54232732083332,236.44809662708334,46.0,49.0
780,236.00386582083334,236.45386585833333,54.0,49.0
781,236.00386582083334,236.51155817083333,66.0,62.0
782,236.46540432083333,236.92886589791667,70.0,74.0
783,236.46540432083333,236.98271205625,58.0,61.0
784,237.38848132083334,237.82694289583333,71.0,75.0
785,237.38848132083334,238.25194293125,44.0,71.0
786,237.85001982083332,238.34617370833334,51.0,63.0
787,237.85001982083332,238.40578909791665,63.0,73.0
788,238.31155832083334,238.66925065833334,66.0,85.0
789,238.31155832083334,238.823096825,56.0,58.0
790,238.77309682083333,239.23463532083332,58.0,61.0
791,238.77309682083333,239.23463532083332,71.0,65.0
792,239.63463535416668,242.30002019166668,68.0,59.0
793,239.63463535416668,242.31155865416667,80.0,74.0
