,start,end,pitch,velocity
0,2.59201789375,2.7486892125,71.0,100.0
1,2.82999964375,2.9509737,73.0,82.0
2,3.06798139375,3.13144319375,76.0,79.0
3,3.30596314375,3.46461764375,76.0,91.0
4,4.25789014375,4.36299875,73.0,76.0
5,4.97183539375,5.17015351875,71.0,75.0
6,5.44779889375,5.71354518125,69.0,82.0
7,6.16174414375,6.2708191125,71.0,88.0
8,6.87568939375,7.15333476875,66.0,82.0
9,8.30357989375,8.49396529375,64.0,73.0
10,8.30357989375,8.575275725,52.0,75.0
11,8.54156164375,8.686333874999999,66.0,71.0
12,8.54156164375,8.71608159375,54.0,75.0
13,8.77954339375,8.876719275,69.0,91.0
14,8.77954339375,8.9758783375,57.0,75.0
15,9.01752514375,9.144448743749999,69.0,88.0
16,9.01752514375,9.289220975,54.0,77.0
17,9.25550689375,9.3606155,57.0,71.0
18,9.25550689375,10.352206125,59.0,77.0
19,10.20743389375,10.374021118749999,64.0,77.0
20,10.44541564375,10.6020869625,66.0,75.0
21,10.683397393749999,10.780573275,69.0,82.0
22,10.92137914375,11.859423875,69.0,72.0
23,12.11128789375,12.27787511875,59.0,73.0
24,12.11128789375,12.2917573875,71.0,82.0
25,12.34926964375,12.5218064125,69.0,75.0
26,12.34926964375,12.539655043749999,57.0,79.0
27,12.58725139375,12.849031318749999,66.0,59.0
28,12.58725139375,12.96008946875,54.0,76.0
29,13.06321489375,13.612556099999999,57.0,95.0
30,12.82523314375,14.235275012499999,69.0,59.0
31,13.777160143749999,14.30468635625,57.0,103.0
32,14.491105393749999,15.6869636875,61.0,72.0
33,29.245973893749998,29.52758563125,52.0,95.0
34,29.48395564375,29.6802905875,54.0,85.0
35,29.72193739375,29.9182723375,57.0,82.0
36,29.95991914375,30.231614975,54.0,71.0
37,30.19790089375,30.691713025,61.0,75.0
38,31.14982789375,31.919302218749998,66.0,91.0
39,32.10175489375,32.9089096625,61.0,82.0
40,32.10175489375,32.91485920625,64.0,98.0
41,38.28928039375,38.735496175,69.0,82.0
42,38.76524389375,39.663624999999996,64.0,71.0
43,44.47680589375,44.70685491875,71.0,75.0
44,44.71478764375,44.8992235,69.0,77.0
45,44.952769393749996,45.25421294375,66.0,91.0
46,45.42873289375,46.33702990625,73.0,91.0
47,45.42873289375,46.34099626875,69.0,95.0
48,53.28213064375,53.46061695625,69.0,91.0
49,53.52011239375,53.740245512499996,66.0,68.0
50,53.75809414375,53.902866375,64.0,82.0
51,53.996075893749996,54.24397355,54.0,98.0
52,54.23405764375,54.440308493749995,57.0,79.0
53,54.47203939375,54.68622296875,59.0,71.0
54,54.71002114375,54.90833926875,61.0,64.0
55,54.94800289375,55.776972656249995,59.0,72.0
56,59.94561964375,60.21136593125,61.0,69.0
57,60.183601393749996,60.3839027,64.0,73.0
58,60.42158314375,60.6020526375,69.0,82.0
59,60.65956489375,61.438955125,62.0,73.0
60,60.65956489375,61.44887103125,66.0,75.0
61,61.61149189375,62.3948484875,64.0,77.0
62,62.56341889375,63.43205228125,69.0,76.0
63,62.56341889375,63.453867275,66.0,69.0
64,68.51296264375,68.70731440624999,69.0,77.0
65,68.75094439375,69.14361428125,66.0,77.0
66,68.98892614374999,69.17534518125,69.0,61.0
67,69.22690789375,69.4311755625,71.0,82.0
68,69.46488964375,70.069759925,73.0,68.0
69,70.17883489375,70.40888391874999,69.0,75.0
70,70.41681664375,71.60077585,71.0,68.0
71,75.89039689375,76.05698411875,54.0,95.0
72,76.12837864375,76.36636039375,49.0,73.0
73,76.36636039375,77.43331190625,52.0,98.0
74,77.31828739375,77.5701514125,59.0,98.0
75,77.55626914375,77.79226771249999,57.0,76.0
76,77.83391451874999,78.73229562499999,61.0,82.0
77,83.50581289375,83.7497441875,90.0,85.0
78,83.86278551875,84.10076726875,88.0,68.0
79,84.21975814375,86.1374944125,81.0,73.0
80,89.93132014375,90.03841193125,80.0,69.0
81,89.93132014375,90.03841193125,83.0,71.0
82,90.40728364374999,90.4766949875,81.0,65.0
83,90.40728364374999,90.488594075,85.0,69.0
84,90.88324714375,90.96257439375,80.0,73.0
85,90.88324714375,90.99232211249999,76.0,73.0
86,91.35921064375,91.4365547125,73.0,62.0
87,91.35921064375,91.45043698125,76.0,70.0
88,92.07315589375,92.900142475,66.0,98.0
89,92.07315589375,92.90609201875,62.0,79.0
90,93.02508289375,94.70682059375,61.0,76.0
91,93.02508289375,94.70682059375,64.0,85.0
92,98.97462664375,99.14914659375,61.0,73.0
93,99.21260839375,99.317717,69.0,85.0
94,99.45059014374999,99.66874008125,69.0,82.0
95,99.68857189375,100.31525716875,64.0,82.0
96,100.16453539375,100.5552221,61.0,71.0
97,100.64049889374999,101.45955275,59.0,68.0
98,105.40013389375,105.66389699999999,74.0,98.0
99,105.63811564375,105.86023194375,73.0,73.0
100,105.87609739375,106.3342122625,66.0,95.0
101,106.35206089375,107.194912925,69.0,88.0
102,108.73187839375,109.99516485,61.0,71.0
103,110.15976889375,110.859831875,61.0,71.0
104,110.87371414375,111.84150659375,59.0,71.0
105,111.82564114375,111.95058156249999,61.0,69.0
106,111.94463201875,112.05767335,59.0,71.0
107,112.06362289375,114.5525153625,57.0,66.0
108,115.39536739374999,115.6313659625,54.0,69.0
109,115.63334914375,115.82373454374999,57.0,67.0
110,115.87133089375,116.206488525,59.0,76.0
111,116.34729439375,116.72409883125,61.0,69.0
112,116.82325789375,117.31508684375,54.0,65.0
113,117.29922139375,117.47770770625,57.0,66.0
114,117.53720314374999,118.10042661874999,59.0,73.0
115,118.25114839375,119.5303003,61.0,71.0
116,119.67903889375,119.87339065625,59.0,79.0
117,119.91702064374999,120.09550695624999,57.0,71.0
118,120.15500239375,120.40290005,54.0,53.0
119,120.39298414375,121.59082561875,57.0,68.0
120,122.05885639374999,122.32856904375,66.0,88.0
121,122.53481989375,122.7946166375,64.0,100.0
122,123.01078339375,123.234882875,59.0,111.0
123,123.24876514374999,123.38362146875,57.0,98.0
124,123.36775601875,123.4847637125,59.0,95.0
125,123.48674689375,124.6984706375,61.0,103.0
126,137.05170664375,137.30555384375,52.0,88.0
127,137.52767014375,137.69029100625,64.0,69.0
128,137.28968839375,137.95008775,57.0,68.0
129,137.76565189375,138.01553273125,62.0,85.0
130,138.00363364375,138.211867675,52.0,98.0
131,138.24161539375,138.45579896875,57.0,69.0
132,138.47959714375,138.66998254375,62.0,88.0
133,138.71757889375,139.4255746,61.0,91.0
134,144.66712264375,144.80396215,78.0,71.0
135,144.90510439375,145.002280275,81.0,73.0
136,145.14308614375,145.2640602,81.0,67.0
137,145.38106789375,145.47229423125,76.0,85.0
138,145.38106789375,145.50799149374998,78.0,71.0
139,145.61904964375,145.80150231875,76.0,69.0
140,145.85703139375,146.40835578125,69.0,64.0
141,159.89795464374998,160.3640022375,66.0,75.0
142,160.61189989375,161.11364475,57.0,85.0
143,161.08786339374998,161.48449964374998,61.0,69.0
144,161.56382689375,162.74778609999998,59.0,73.0
145,175.12878664375,175.30132341249998,81.0,75.0
146,175.36676839375,175.4520451875,69.0,71.0
147,175.60475014375,175.8169505375,69.0,85.0
148,175.84273189375,176.03311729375,73.0,113.0
149,176.08071364375,176.2691158625,71.0,70.0
150,176.08071364375,176.52097988124999,69.0,66.0
151,176.79465889374998,177.58198185,71.0,79.0
152,180.97718815,181.207237175,61.0,96.0
153,181.23103534999998,181.3619253125,64.0,68.0
154,181.35597576875,181.476949825,61.0,85.0
155,181.49083209375,181.7188979375,66.0,82.0
156,181.77244383125,181.8854851625,61.0,93.0
157,181.99852649375,182.23254188125,61.0,92.0
158,182.2305587,182.34161685,59.0,52.0
159,182.349549575,182.46854045,57.0,76.0
160,182.8532776125,182.9326048625,64.0,62.0
161,182.92665531875,183.2023175125,66.0,97.0
162,182.51415361875,183.24793068124998,54.0,67.0
163,183.18050251875,183.3451065625,69.0,78.0
164,183.4323665375,183.65249965625,69.0,82.0
165,183.65249965625,183.82701960625,71.0,79.0
166,183.9162627625,184.1225136125,73.0,75.0
167,184.15226133125,184.29108401874998,76.0,75.0
168,184.4001589875,185.72294088125,78.0,90.0
169,196.07118064374998,196.32106148124998,73.0,71.0
170,196.30916239375,196.32106148124998,73.0,75.0
171,196.07118064374998,196.3230446625,76.0,79.0
172,196.30916239375,196.3230446625,76.0,88.0
173,196.78512589375,196.96361220625,73.0,82.0
174,196.78512589375,196.96361220625,76.0,98.0
175,197.02310764375,197.17779578124998,71.0,75.0
176,197.02310764375,197.18176214375,74.0,82.0
177,197.49907114375,197.6081461125,71.0,69.0
178,197.49907114375,197.61806201875,74.0,72.0
179,197.73705289375,197.9056233,74.0,88.0
180,197.73705289375,197.9175223875,71.0,77.0
181,197.97503464375,198.1237732375,69.0,67.0
182,197.97503464375,198.12575641875,73.0,75.0
183,198.45099814374998,198.5283422125,69.0,59.0
184,198.45099814374998,198.55015720625,73.0,71.0
185,198.68897989375,198.84366803125,69.0,71.0
186,198.92696164375,199.1431284,66.0,75.0
187,199.16494339375,199.34342970625,69.0,68.0
188,199.40292514375,199.59331054375,71.0,62.0
189,199.64090689374999,200.21602945625,69.0,71.0
190,205.82843239375,205.91767554999998,88.0,111.0
191,205.82843239375,205.94940645,83.0,95.0
192,205.94742326875,206.0802964125,88.0,70.0
193,205.94742326875,206.0802964125,90.0,79.0
194,206.18540501875,206.568159,83.0,69.0
195,206.42338676875,207.02627386875,81.0,88.0
196,212.01595789375,212.14288149375,78.0,75.0
197,212.13494876875,212.36896415625,76.0,95.0
198,212.37293051875,212.5335682,71.0,100.0
199,212.61091226874998,212.7120545125,69.0,75.0
200,212.96788489374998,213.810736925,73.0,100.0
201,213.91981189375,214.48303536875,68.0,91.0
202,214.39577539375,214.6238412375,66.0,85.0
203,214.63375714375,214.79637800625,69.0,98.0
204,214.87173889375,215.91885859375,69.0,79.0
205,221.29724614375,221.5332447125,64.0,85.0
206,221.29724614375,221.5451438,68.0,98.0
207,222.48715489375,222.7191871,62.0,100.0
208,222.48715489375,222.72513664375,66.0,106.0
209,226.9671613375,227.1099503875,76.0,58.0
210,227.22100853749998,227.45105756249998,76.0,77.0
211,227.48080528124999,228.00436513124998,74.0,69.0
212,228.16301963125,228.96422485624998,74.0,71.0
213,229.35292838125,229.58297740625,69.0,66.0
214,229.62660739375,229.84872369375,64.0,55.0
215,229.85269005625,230.09463816875,62.0,39.0
216,228.91662850625,230.09860453125,73.0,74.0
217,230.08075589999999,231.6157381875,61.0,38.0
218,242.178161525,242.9516022125,74.0,81.0
219,242.92780403749998,244.954615275,73.0,60.0
220,251.99689189375,252.1654623,83.0,68.0
221,252.23487364375,252.395511325,85.0,68.0
222,252.47285539375,252.538300375,88.0,68.0
223,252.71083714374998,252.871474825,88.0,68.0
224,253.66276414375,253.77382229375,85.0,67.0
225,254.33704576875,254.4183562,83.0,66.0
226,254.85267289375,255.00537785,81.0,65.0
227,254.85267289375,255.02322648125,85.0,65.0
228,255.52695451875,255.71337355625,85.0,64.0
229,255.52695451875,255.72527264375,81.0,64.0
230,256.0247330125,256.2587484,78.0,54.0
231,256.25279885624997,257.62119391875,81.0,69.0
232,257.43874124375,257.6906052625,69.0,64.0
233,257.67672299375,257.7540670625,76.0,55.0
234,257.7302688875,258.0317124375,78.0,86.0
235,257.93453655625,258.19631648125,76.0,63.0
236,258.16260239999997,258.36290370625,74.0,70.0
237,258.3966177875,258.90232900625,76.0,66.0
238,259.5547956375,259.8562391875,71.0,86.0
239,259.8086428375,260.04067504375,73.0,74.0
240,260.0466245875,260.41747948125,76.0,73.0
241,260.52655445,261.54789279375,76.0,74.0
242,261.264297875,261.96832721875,73.0,90.0
243,261.96039449375,262.406610275,71.0,74.0
244,262.4185093625,263.7274089875,69.0,62.0
245,263.40018408125,263.93960938125,76.0,72.0
246,264.08636479375,264.2351033875,86.0,44.0
247,264.18155749375,264.310464275,88.0,61.0
248,264.30848109375,266.0596301375,93.0,68.0
