,start,end,pitch,velocity
0,17.34688639375,17.40638183125,73.0,75.0
1,17.58486814375,17.66022903125,73.0,83.0
2,17.82284989375,18.2571665875,73.0,84.0
3,18.53679514375,18.602240124999998,73.0,82.0
4,18.77477689375,19.213059949999998,73.0,84.0
5,19.25074039375,19.65927573125,71.0,80.0
6,20.202667393749998,20.32165826875,71.0,80.0
7,20.44064914375,20.6052531875,69.0,80.0
8,20.67863089375,20.93247809375,71.0,83.0
9,21.15459439375,21.2557366375,71.0,79.0
10,21.39257614375,21.53536519375,69.0,80.0
11,21.630557893749998,22.0490091375,71.0,81.0
12,22.10652139375,22.32070496875,73.0,79.0
13,22.58248489375,23.282547875,66.0,81.0
14,24.01037539375,24.2067103375,66.0,75.0
15,24.24835714375,24.5002211625,69.0,78.0
16,24.48633889375,24.742169275,71.0,81.0
17,24.96230239375,25.249863675,73.0,80.0
18,25.43826589375,25.73574308125,66.0,81.0
19,25.91422939375,26.011405274999998,69.0,83.0
20,26.152211143749998,26.6182587375,71.0,84.0
21,26.62817464375,26.878055481249998,73.0,81.0
22,27.34211989375,27.52060620625,73.0,104.0
23,27.580101643749998,27.78238613125,76.0,80.0
24,27.81808339375,28.13142603125,71.0,84.0
25,28.29404689375,29.58311470625,73.0,100.0
26,32.57771839375,32.6471297375,73.0,80.0
27,32.81570014375,32.88907785,73.0,88.0
28,33.053681893749996,33.5514603875,73.0,91.0
29,33.76762714375,33.84298803125,73.0,88.0
30,34.00560889375,34.4557910375,73.0,96.0
31,34.48157239375,35.05272859375,71.0,89.0
32,35.43349939375,35.64371660625,71.0,80.0
33,35.67148114375,35.8440179125,69.0,83.0
34,35.909462893749996,36.17520918125,71.0,80.0
35,36.38542639375,36.5222659,71.0,77.0
36,36.62340814375,36.78999536875,69.0,75.0
37,36.86138989375,37.291740225,71.0,84.0
38,37.33735339375,37.51583970625,73.0,75.0
39,37.81331689375,38.9774442875,66.0,69.0
40,39.24120739375,39.3344169125,66.0,75.0
41,39.47918914375,39.750884975,69.0,89.0
42,39.71717089375,40.10984078125,71.0,77.0
43,40.19313439375,40.4251666,73.0,80.0
44,40.66909789375,40.958642356249996,66.0,79.0
45,41.14506139375,41.34734588125,69.0,84.0
46,41.38304314375,41.8173598375,71.0,73.0
47,41.85900664375,42.34686923125,73.0,80.0
48,42.57295189375,42.72367366875,76.0,88.0
49,42.81093364375,42.987436775,73.0,75.0
50,43.04891539375,43.45348436875,71.0,77.0
51,43.52487889375,44.84171124375,69.0,85.0
52,46.38065989375,46.67813708125,69.0,98.0
53,46.618641643749996,46.842741124999996,71.0,82.0
54,46.85662339375,47.017261075,73.0,91.0
55,47.09460514375,47.350435525,76.0,86.0
56,47.33258689375,47.756987681249996,78.0,100.0
57,47.80855039375,47.99496943125,76.0,84.0
58,48.04653214375,48.5284451875,78.0,104.0
59,48.76047739375,48.91516553125,78.0,82.0
60,48.99845914375,49.260239068749996,76.0,84.0
61,49.23644089375,49.63704350625,78.0,91.0
62,49.71240439375,50.08920883125,76.0,88.0
63,50.18836789375,50.5036937125,78.0,104.0
64,50.66433139375,50.76349045625,81.0,89.0
65,50.90231314375,51.05303491875,81.0,91.0
66,51.140294893749996,51.570645225,78.0,100.0
67,51.61625839375,51.9712478375,76.0,91.0
68,52.09222189375,52.45712724375,76.0,89.0
69,52.56818539375,52.7645203375,78.0,78.0
70,52.80616714375,53.67480053125,73.0,95.0
71,54.71002114375,54.791331575,73.0,88.0
72,54.94800289375,55.15425374375,73.0,83.0
73,55.18598464375,55.30497551875,71.0,84.0
74,55.42396639375,56.439355193749996,71.0,86.0
75,56.61387514375,56.6753537625,73.0,82.0
76,56.851856893749996,57.250476325,73.0,82.0
77,57.32782039375,57.41706355,71.0,78.0
78,57.56580214375,58.18455469375,71.0,83.0
79,58.27974739375,58.710097725,69.0,89.0
80,58.75571089375,59.154330325,76.0,85.0
81,59.23167439375,60.7329426,73.0,95.0
82,61.61149189375,61.901036356249996,69.0,98.0
83,61.84947364375,62.041842224999996,71.0,79.0
84,62.08745539375,62.26990806875,73.0,88.0
85,62.32543714375,62.53962071875,76.0,88.0
86,62.56341889375,62.98781968125,78.0,100.0
87,63.039382393749996,63.22580143125,76.0,91.0
88,63.27736414375,63.96751121875,78.0,88.0
89,63.99130939375,64.15393025624999,78.0,100.0
90,64.22929114375,64.405794275,76.0,84.0
91,64.46727289374999,64.87382505,78.0,91.0
92,64.94323639375,65.29227629374999,76.0,91.0
93,65.41919989375,65.7662566125,78.0,81.0
94,65.89516339375,66.27196783125,81.0,84.0
95,66.37112689375,66.7419817875,78.0,82.0
96,66.84709039375,66.96806445,76.0,91.0
97,67.08507214375,67.7970342125,76.0,89.0
98,67.79901739374999,68.2095359125,78.0,79.0
99,68.03699914375,68.68748259375,73.0,104.0
100,69.94085314375,70.00828130625,73.0,83.0
101,70.17883489375,70.3474053,73.0,91.0
102,70.41681664375,70.50407661875,71.0,82.0
103,70.65479839375,71.6285403875,71.0,83.0
104,71.84470714375,71.9141184875,73.0,81.0
105,72.08268889375,72.4535437875,73.0,88.0
106,72.55865239375,72.65781145625,71.0,82.0
107,72.79663414375,73.480831675,71.0,84.0
108,73.51057939374999,73.92704745625,69.0,86.0
109,73.98654289375,76.39214175,76.0,94.0
110,78.27021439375,78.32970983125,73.0,75.0
111,78.50819614375,78.58355703125,73.0,83.0
112,78.74617789375,79.1804945875,73.0,84.0
113,79.46012314375,79.52556812499999,73.0,82.0
114,79.69810489375,80.13638795,73.0,84.0
115,80.17406839375,80.58260373125,71.0,80.0
116,81.12599539375,81.24498626875,71.0,80.0
117,81.36397714374999,81.5285811875,69.0,80.0
118,81.60195889375,81.85580609375,71.0,83.0
119,82.07792239375,82.1790646375,71.0,79.0
120,82.31590414375,82.45869319375,69.0,80.0
121,82.55388589374999,82.97233713749999,71.0,81.0
122,83.02984939375,83.24403296875,73.0,79.0
123,83.50581289375,84.1543131625,66.0,81.0
124,84.93370339375,85.1300383375,66.0,75.0
125,85.17168514375,85.4235491625,69.0,78.0
126,85.40966689375,85.66549727499999,71.0,81.0
127,85.88563039374999,86.173191675,73.0,80.0
128,86.36159389375,86.65907108125,66.0,81.0
129,86.83755739375,86.934733275,69.0,83.0
130,87.07553914374999,87.5415867375,71.0,84.0
131,87.55150264375,87.80138348125,73.0,81.0
132,88.26544789375,88.44393420624999,73.0,104.0
133,88.50342964375,88.70571413125,76.0,80.0
134,88.74141139375,89.05475403125,71.0,84.0
135,89.21737489375,90.50644270625,73.0,100.0
136,93.50104639375,93.57045773749999,73.0,80.0
137,93.73902814375,93.81240585,73.0,88.0
138,93.97700989375,94.4747883875,73.0,91.0
139,94.69095514375,94.76631603125,73.0,88.0
140,94.92893689374999,95.3791190375,73.0,96.0
141,95.40490039375,95.97605659375,71.0,89.0
142,96.35682739375,96.56704460625,71.0,80.0
143,96.59480914375,96.7673459125,69.0,83.0
144,96.83279089375,97.09853718125,71.0,80.0
145,97.30875439375,97.44559389999999,71.0,77.0
146,97.54673614375,97.71332336875,69.0,75.0
147,97.78471789375,98.215068225,71.0,84.0
148,98.26068139375,98.43916770625,73.0,75.0
149,98.73664489375,99.9007722875,66.0,69.0
150,100.16453539375,100.2577449125,66.0,75.0
151,100.40251714375,100.674212975,69.0,89.0
152,100.64049889374999,101.03316878125,71.0,77.0
153,101.11646239375,101.3484946,73.0,80.0
154,101.59242589375,101.88197035625,66.0,79.0
155,102.06838939375,102.27067388125,69.0,84.0
156,102.30637114375,102.7406878375,71.0,73.0
157,102.78233464375,103.27019723125,73.0,80.0
158,103.49627989375,103.64700166875,76.0,88.0
159,103.73426164375,103.910764775,73.0,75.0
160,103.97224339374999,104.37681236875,71.0,77.0
161,104.44820689375,105.76503924375,69.0,85.0
162,123.96271039375,124.02220583124999,73.0,75.0
163,124.20069214375,124.27605303125,73.0,83.0
164,124.43867389374999,124.8729905875,73.0,84.0
165,125.15261914375,125.218064125,73.0,82.0
166,125.39060089374999,125.82888394999999,73.0,84.0
167,125.86656439375,126.27509973125,71.0,80.0
168,126.81849139375,126.93748226875,71.0,80.0
169,127.05647314375,127.2210771875,69.0,80.0
170,127.29445489375,127.54830209375,71.0,83.0
171,127.77041839374999,127.8715606375,71.0,79.0
172,128.00840014375,128.15118919374999,69.0,80.0
173,128.24638189375,128.6648331375,71.0,81.0
174,128.72234539375,128.93652896875,73.0,79.0
175,129.19830889375,129.898371875,66.0,81.0
176,130.62619939375,130.8225343375,66.0,75.0
177,130.86418114375,131.1160451625,69.0,78.0
178,131.10216289375,131.35799327499998,71.0,81.0
179,131.57812639375,131.865687675,73.0,80.0
180,132.05408989375,132.35156708125,66.0,81.0
181,132.53005339375,132.627229275,69.0,83.0
182,132.76803514374998,133.2340827375,71.0,84.0
183,133.24399864375,133.49387948125,73.0,81.0
184,133.95794389374998,134.13643020625,73.0,104.0
185,134.19592564375,134.39821013125,76.0,80.0
186,134.43390739375,134.74725003125,71.0,84.0
187,134.90987089375,136.19893870625,73.0,100.0
188,139.19354239375,139.2629537375,73.0,80.0
189,139.43152414375,139.50490185,73.0,88.0
190,139.66950589375,140.1672843875,73.0,91.0
191,140.38345114375,140.45881203125,73.0,88.0
192,140.62143289375,141.0716150375,73.0,96.0
193,141.09739639375,141.66855259375,71.0,89.0
194,142.04932339375,142.25954060625,71.0,80.0
195,142.28730514375,142.4598419125,69.0,83.0
196,142.52528689375,142.79103318125,71.0,80.0
197,143.00125039374998,143.1380899,71.0,77.0
198,143.23923214375,143.40581936875,69.0,75.0
199,143.47721389375,143.907564225,71.0,84.0
200,143.95317739375,144.13166370625,73.0,75.0
201,144.42914089375,145.5932682875,66.0,69.0
202,145.85703139375,145.9502409125,66.0,75.0
203,146.09501314375,146.366708975,69.0,89.0
204,146.33299489375,146.72566478125,71.0,77.0
205,146.80895839375,147.0409906,73.0,80.0
206,147.28492189375,147.57446635624999,66.0,79.0
207,147.76088539375,147.96316988125,69.0,84.0
208,147.99886714375,148.4331838375,71.0,73.0
209,148.47483064375,148.96269323125,73.0,80.0
210,149.18877589375,149.33949766875,76.0,88.0
211,149.42675764375,149.603260775,73.0,75.0
212,149.66473939375,150.06930836875,71.0,77.0
213,150.14070289375,151.45753524375,69.0,85.0
214,152.99648389375,153.29396108125,69.0,98.0
215,153.23446564374999,153.458565125,71.0,82.0
216,153.47244739375,153.633085075,73.0,91.0
217,153.71042914375,153.966259525,76.0,86.0
218,153.94841089375,154.37281168125,78.0,100.0
219,154.42437439374999,154.61079343125,76.0,84.0
220,154.66235614375,155.1442691875,78.0,104.0
221,155.37630139375,155.53098953125,78.0,82.0
222,155.61428314375,155.87606306875,76.0,84.0
223,155.85226489375,156.25286750625,78.0,91.0
224,156.32822839375,156.70503283125,76.0,88.0
225,156.80419189375,157.1195177125,78.0,104.0
226,157.28015539375,157.37931445625,81.0,89.0
227,157.51813714375,157.66885891875,81.0,91.0
228,157.75611889375,158.186469225,78.0,100.0
229,158.23208239375,158.5870718375,76.0,91.0
230,158.70804589374998,159.07295124375,76.0,89.0
231,159.18400939375,159.3803443375,78.0,78.0
232,159.42199114375,160.29062453125,73.0,95.0
233,161.32584514375,161.407155575,73.0,88.0
234,161.56382689375,161.77007774375,73.0,83.0
235,161.80180864375,161.92079951875,71.0,84.0
236,162.03979039375,163.05517919375,71.0,86.0
237,163.22969914375,163.29117776249998,73.0,82.0
238,163.46768089374999,163.866300325,73.0,82.0
239,163.94364439375,164.03288755,71.0,78.0
240,164.18162614375,164.80037869375,71.0,83.0
241,164.89557139375,165.325921725,69.0,89.0
242,165.37153489375,165.770154325,76.0,85.0
243,165.84749839375,167.3487666,73.0,95.0
244,168.22731589375,168.51686035625,69.0,98.0
245,168.46529764375,168.65766622499999,71.0,79.0
246,168.70327939375,168.88573206875,73.0,88.0
247,168.94126114374998,169.15544471875,76.0,88.0
248,169.17924289375,169.60364368125,78.0,100.0
249,169.65520639375,169.84162543125,76.0,91.0
250,169.89318814375,170.58333521875,78.0,88.0
251,170.60713339375,170.76975425625,78.0,100.0
252,170.84511514375,171.021618275,76.0,84.0
253,171.08309689375,171.48964905,78.0,91.0
254,171.55906039375,171.90810029375,76.0,91.0
255,172.03502389375,172.3820806125,78.0,81.0
256,172.51098739374999,172.88779183124998,81.0,84.0
257,172.98695089375,173.35780578749998,78.0,82.0
258,173.46291439375,173.58388845,76.0,91.0
259,173.70089614375,174.4128582125,76.0,89.0
260,174.41484139375,174.8253599125,78.0,79.0
261,174.65282314375,175.30330659375,73.0,104.0
262,176.55667714375,176.62410530625,73.0,83.0
263,176.79465889374998,176.9632293,73.0,91.0
264,177.03264064375,177.11990061875,71.0,82.0
265,177.27062239375,178.24436438749999,71.0,83.0
266,178.46053114375,178.5299424875,73.0,81.0
267,178.69851289375,179.0693677875,73.0,88.0
268,179.17447639374998,179.27363545625,71.0,82.0
269,179.41245814375,180.096655675,71.0,84.0
270,180.12640339375,180.54287145625,69.0,86.0
271,180.60236689375,183.00796574999998,76.0,94.0
272,183.45814789375,183.75562508125,69.0,98.0
273,183.69612964375,183.920229125,71.0,82.0
274,183.93411139375,184.094749075,73.0,91.0
275,184.17209314375,184.42792352499998,76.0,86.0
276,184.41007489375,184.83447568124998,78.0,100.0
277,184.88603839375,185.07245743125,76.0,84.0
278,185.12402014375,185.6059331875,78.0,104.0
279,185.83796539374998,185.99265353125,78.0,82.0
280,186.07594714375,186.33772706874998,76.0,84.0
281,186.31392889375,186.71453150624998,78.0,91.0
282,186.78989239375,187.16669683125,76.0,88.0
283,187.26585589375,187.58118171249998,78.0,104.0
284,187.74181939375,187.84097845624999,81.0,89.0
285,187.97980114375,188.13052291875,81.0,91.0
286,188.21778289374998,188.648133225,78.0,100.0
287,188.69374639375,189.0487358375,76.0,91.0
288,189.16970989375,189.53461524374998,76.0,89.0
289,189.64567339375,189.8420083375,78.0,78.0
290,189.88365514375,190.75228853125,73.0,95.0
291,191.78750914375,191.868819575,73.0,88.0
292,192.02549089375,192.23174174375,73.0,83.0
293,192.26347264375,192.38246351875,71.0,84.0
294,192.50145439375,193.51684319375,71.0,86.0
295,193.69136314375,193.7528417625,73.0,82.0
296,193.92934489375,194.32796432499998,73.0,82.0
297,194.40530839375,194.49455154999998,71.0,78.0
298,194.64329014375,195.26204269375,71.0,83.0
299,195.35723539375,195.78758572499999,69.0,89.0
300,195.83319889375,196.231818325,76.0,85.0
301,196.30916239375,197.8104306,73.0,95.0
302,198.68897989375,198.97852435625,69.0,98.0
303,198.92696164375,199.119330225,71.0,79.0
304,199.16494339375,199.34739606875,73.0,88.0
305,199.40292514375,199.61710871875,76.0,88.0
306,199.64090689374999,200.06530768125,78.0,100.0
307,200.11687039375,200.30328943125,76.0,91.0
308,200.35485214375,201.04499921875,78.0,88.0
309,201.06879739375,201.23141825625,78.0,100.0
310,201.30677914375,201.483282275,76.0,84.0
311,201.54476089375,201.95131305,78.0,91.0
312,202.02072439375,202.36976429375,76.0,91.0
313,202.49668789375,202.8437446125,78.0,81.0
314,202.97265139375,203.34945583125,81.0,84.0
315,203.44861489375,203.8194697875,78.0,82.0
316,203.92457839374998,204.04555245,76.0,91.0
317,204.16256014375,204.87452221249998,76.0,89.0
318,204.87650539375,205.2870239125,78.0,79.0
319,205.11448714374998,205.76497059375,73.0,104.0
320,207.01834114375,207.08576930625,73.0,83.0
321,207.25632289375,207.4248933,73.0,91.0
322,207.49430464374998,207.58156461875,71.0,82.0
323,207.73228639375,208.7060283875,71.0,83.0
324,208.92219514375,208.9916064875,73.0,81.0
325,209.16017689375,209.53103178749998,73.0,88.0
326,209.63614039375,209.73529945625,71.0,82.0
327,209.87412214375,210.558319675,71.0,84.0
328,210.58806739375,211.00453545624998,69.0,86.0
329,211.06403089375,213.46962975,76.0,94.0
330,215.34770239374998,215.40719783125,73.0,75.0
331,215.58568414375,215.66104503124998,73.0,83.0
332,215.82366589375,216.2579825875,73.0,84.0
333,216.53761114374998,216.603056125,73.0,82.0
334,216.77559289375,217.21387595,73.0,84.0
335,217.25155639375,217.66009173125,71.0,80.0
336,218.20348339375,218.32247426875,71.0,80.0
337,218.44146514375,218.6060691875,69.0,80.0
338,218.67944689375,218.93329409375,71.0,83.0
339,219.15541039375,219.2565526375,71.0,79.0
340,219.39339214375,219.53618119375,69.0,80.0
341,219.63137389375,220.0498251375,71.0,81.0
342,220.10733739375,220.32152096875,73.0,79.0
343,220.58330089375,221.283363875,66.0,81.0
344,222.01119139374998,222.20752633749998,66.0,75.0
345,222.24917314375,222.50103716249998,69.0,78.0
346,222.48715489375,222.742985275,71.0,81.0
347,222.96311839375,223.250679675,73.0,80.0
348,223.43908189375,223.73655908125,66.0,81.0
349,223.91504539375,224.012221275,69.0,83.0
350,224.15302714375,224.6190747375,71.0,84.0
351,224.62899064375,224.87887148125,73.0,81.0
352,225.34293589375,225.52142220625,73.0,104.0
353,225.58091764374998,225.78320213125,76.0,80.0
354,225.81889939375,226.13224203125,71.0,84.0
355,226.29486289375,227.58393070625,73.0,100.0
356,230.57853439375,230.6479457375,73.0,80.0
357,230.81651614375,230.88989385,73.0,88.0
358,231.05449789374998,231.5522763875,73.0,91.0
359,231.76844314375,231.84380403125,73.0,88.0
360,232.00642489375,232.4566070375,73.0,96.0
361,232.48238839375,233.05354459375,71.0,89.0
362,233.43431539374998,233.64453260624998,71.0,80.0
363,233.67229714375,233.8448339125,69.0,83.0
364,233.91027889375,234.17602518125,71.0,80.0
365,234.38624239375,234.5230819,71.0,77.0
366,234.62422414374998,234.79081136874998,69.0,75.0
367,234.86220589375,235.292556225,71.0,84.0
368,235.33816939375,235.51665570625,73.0,75.0
369,235.81413289374998,236.9782602875,66.0,69.0
370,237.24202339375,237.3352329125,66.0,75.0
371,237.48000514375,237.751700975,69.0,89.0
372,237.71798689375,238.11065678125,71.0,77.0
373,238.19395039375,238.4259826,73.0,80.0
374,238.66991389375,238.95945835625,66.0,79.0
375,239.14587739375,239.34816188125,69.0,84.0
376,239.38385914375,239.8181758375,71.0,73.0
377,239.85982264375,240.34768523124998,73.0,80.0
378,240.57376789375,240.72448966874998,76.0,88.0
379,240.81174964375,240.988252775,73.0,75.0
380,241.04973139375,241.45430036874998,71.0,77.0
381,241.52569489375,242.84252724375,69.0,85.0
382,244.85743939374998,244.9506489125,66.0,75.0
383,245.09542114375,245.367116975,69.0,89.0
384,245.33340289375,245.72607278125,71.0,77.0
385,245.80936639375,246.0413986,73.0,80.0
386,246.28532989375,246.57487435625,66.0,79.0
387,246.76129339375,246.96357788125,69.0,84.0
388,246.99927514375,247.4335918375,71.0,73.0
389,247.47523864375,248.87139824375,73.0,80.0
390,250.09303789375,250.24375966875,76.0,88.0
391,250.33101964374998,250.50752277499998,73.0,75.0
392,250.56900139375,250.97357036875,71.0,77.0
393,251.04496489375,252.36179724375,69.0,85.0
