,start,end,pitch,velocity
0,22.648508200000002,22.735551833333336,60.0,112.0
1,22.942740200000003,23.03591366666667,60.0,100.0
2,23.2369722,23.364472733333336,60.0,97.0
3,23.5312042,23.632959433333333,63.0,122.0
4,23.825436200000002,24.043658266666668,65.0,102.0
5,24.119668200000003,24.201807966666667,63.0,117.0
6,24.4139002,24.6272184,60.0,112.0
7,24.7081322,24.985200666666668,56.0,112.0
8,25.002364200000002,25.8997718,58.0,102.0
9,27.356220200000003,27.516821833333335,60.0,112.0
10,27.6504522,27.78040466666667,60.0,96.0
11,27.9446842,28.088122300000002,60.0,97.0
12,28.238916200000002,28.373772533333334,63.0,112.0
13,28.533148200000003,28.696201766666668,65.0,97.0
14,28.8273802,29.002693433333334,63.0,127.0
15,29.1216122,29.261372400000003,58.0,122.0
16,29.415844200000002,29.62671046666667,56.0,96.0
17,29.710076200000003,30.6957534,53.0,95.0
18,32.0639322,32.168139366666665,51.0,95.0
19,32.358164200000004,32.452563633333334,51.0,90.0
20,32.652396200000005,32.84609893333334,51.0,100.0
21,32.9466282,33.169754133333335,53.0,86.0
22,33.2408602,33.710405433333335,56.0,102.0
23,33.8293242,34.1456236,56.0,117.0
24,34.417788200000004,34.58574563333334,60.0,99.0
25,34.712020200000005,34.83829476666667,63.0,100.0
26,35.0062522,35.15459416666667,63.0,112.0
27,35.3004842,35.48683113333333,55.0,95.0
28,35.5947162,36.172146500000004,60.0,112.0
29,36.771644200000004,36.8783033,58.0,117.0
30,37.065876200000005,37.1762132,58.0,107.0
31,37.3601082,37.465541333333334,58.0,102.0
32,37.6543402,37.74138383333334,56.0,99.0
33,37.9485722,38.06381306666667,58.0,127.0
34,38.2428042,38.36907876666667,56.0,107.0
35,38.5370362,38.70744556666667,55.0,95.0
36,38.831268200000004,38.9710284,55.0,95.0
37,39.125500200000005,39.89172936666667,53.0,83.0
38,41.479356200000005,41.566399833333335,60.0,112.0
39,41.773588200000006,41.86676166666667,60.0,100.0
40,42.0678202,42.19532073333333,60.0,97.0
41,42.3620522,42.463807433333336,63.0,122.0
42,42.6562842,42.87450626666667,65.0,102.0
43,42.9505162,43.03265596666667,63.0,117.0
44,43.244748200000004,43.4580664,60.0,112.0
45,43.538980200000005,43.81604866666667,56.0,112.0
46,43.833212200000006,44.7306198,58.0,102.0
47,46.187068200000006,46.347669833333335,60.0,112.0
48,46.4813002,46.61125266666667,60.0,96.0
49,46.7755322,46.918970300000005,60.0,97.0
50,47.0697642,47.20462053333333,63.0,112.0
51,47.3639962,47.52704976666667,65.0,97.0
52,47.6582282,47.83354143333334,63.0,127.0
53,47.952460200000004,48.0922204,58.0,122.0
54,48.246692200000005,48.45755846666667,56.0,96.0
55,48.540924200000006,49.526601400000004,53.0,95.0
56,50.8947802,50.99898736666667,51.0,95.0
57,51.1890122,51.28341163333334,51.0,90.0
58,51.4832442,51.67694693333333,51.0,100.0
59,51.7774762,52.00060213333334,53.0,86.0
60,52.0717082,52.54125343333334,56.0,102.0
61,52.660172200000005,52.9764716,56.0,117.0
62,52.954404200000006,53.141977100000005,58.0,112.0
63,53.2486362,53.416593633333335,60.0,99.0
64,53.8371002,53.98544216666667,63.0,112.0
65,54.1313322,54.317679133333336,55.0,95.0
66,54.425564200000004,55.0029945,60.0,112.0
67,55.6024922,55.7091513,58.0,117.0
68,55.8967242,56.0070612,58.0,107.0
69,56.1909562,56.29638933333334,58.0,102.0
70,56.4851882,56.57223183333333,56.0,99.0
71,56.779420200000004,57.1030754,51.0,96.0
72,57.367884200000006,57.822717833333336,56.0,99.0
73,57.9563482,59.41524853333334,53.0,89.0
74,60.0159722,60.12385726666667,60.0,107.0
75,60.3102042,60.409507500000004,65.0,117.0
76,60.6044362,60.70986933333334,65.0,99.0
77,60.8986682,61.04946210000001,65.0,99.0
78,61.192900200000004,61.310593000000004,63.0,102.0
79,61.487132200000005,61.73477746666667,60.0,117.0
80,61.781364200000006,62.07682216666667,63.0,122.0
81,62.3698282,62.60276186666667,60.0,107.0
82,62.6640602,62.76213753333334,65.0,107.0
83,62.9582922,63.06372533333334,65.0,96.0
84,63.2525242,63.36776506666667,65.0,95.0
85,63.546756200000004,63.64973740000001,63.0,112.0
86,63.840988200000005,64.22103786666668,65.0,102.0
87,65.0179162,65.1245753,65.0,99.0
88,65.31214820000001,65.41635536666666,65.0,88.0
89,65.6063802,65.71916913333334,65.0,95.0
90,65.9006122,65.99501163333333,63.0,100.0
91,66.1948442,66.4559751,65.0,100.0
92,66.78330820000001,66.91816453333334,63.0,102.0
93,67.0775402,67.195233,63.0,102.0
94,67.37177220000001,67.80331246666667,58.0,107.0
95,67.9602362,68.28879526666667,63.0,107.0
96,68.5487002,68.93242776666668,60.0,102.0
97,69.7256282,69.86784033333333,58.0,127.0
98,70.01986020000001,70.15226460000001,58.0,112.0
99,70.3140922,70.4759198,58.0,127.0
100,70.6083242,70.70517556666667,56.0,117.0
101,70.9025562,71.30835116666667,53.0,100.0
102,72.07948420000001,72.22537423333334,58.0,117.0
103,72.3737162,72.48160126666667,58.0,112.0
104,72.6679482,72.81996806666668,58.0,112.0
105,72.9621802,73.2122774,56.0,107.0
106,73.2564122,73.72840936666667,51.0,100.0
107,74.4333402,74.59394183333333,68.0,127.0
108,74.72757220000001,74.85997660000001,68.0,117.0
109,75.0218042,75.24738206666667,68.0,127.0
110,75.3160362,75.5514218,65.0,97.0
111,75.61026820000001,75.98663996666667,67.0,122.0
112,76.19873220000001,76.36668963333334,63.0,127.0
113,76.4929642,76.66337356666668,63.0,117.0
114,76.78719620000001,77.088784,60.0,117.0
115,77.0814282,77.088784,60.0,127.0
116,77.3756602,77.71893086666667,67.0,112.0
117,77.9641242,78.43366943333334,65.0,127.0
118,78.99393620000001,79.1189848,60.0,93.0
119,79.1410522,79.27100466666667,65.0,102.0
120,79.4352842,79.55910683333333,65.0,97.0
121,79.7295162,79.85701673333334,65.0,99.0
122,80.0237482,80.13531116666667,63.0,107.0
123,80.31798020000001,80.72377516666667,60.0,97.0
124,80.6122122,80.94444916666667,63.0,100.0
125,81.3477922,81.47774466666667,60.0,96.0
126,81.49490820000001,81.63221646666668,65.0,112.0
127,81.7891402,81.9178667,65.0,100.0
128,82.0833722,82.2120987,65.0,96.0
129,82.37760420000001,82.51613843333334,63.0,96.0
130,82.6718362,83.02001073333334,65.0,100.0
131,83.8487642,83.95174540000001,65.0,100.0
132,84.1429962,84.2459774,65.0,96.0
133,84.4372282,84.57944033333334,65.0,95.0
134,84.7314602,84.8417972,63.0,102.0
135,85.02569220000001,85.47929986666666,65.0,102.0
136,85.61415620000001,85.73184900000001,63.0,117.0
137,85.9083882,86.08247546666666,63.0,127.0
138,86.2026202,86.64151626666667,58.0,112.0
139,86.7910842,87.2508217,63.0,127.0
140,87.3795482,88.10532046666667,60.0,100.0
141,88.5564762,88.70972203333334,58.0,117.0
142,88.8507082,88.99046840000001,58.0,97.0
143,89.14494020000001,89.2736667,58.0,112.0
144,89.4391722,89.57648046666667,60.0,97.0
145,89.73340420000001,89.97859753333334,56.0,107.0
146,90.0276362,90.35987316666667,53.0,93.0
147,90.9103322,91.04641450000001,58.0,127.0
148,91.20456420000001,91.33819456666667,58.0,107.0
149,91.4987962,91.63365253333333,58.0,117.0
150,91.79302820000001,91.93524033333334,60.0,97.0
151,92.0872602,92.46363196666667,51.0,97.0
152,93.2641882,93.37207326666667,68.0,127.0
153,93.5584202,93.66753123333334,68.0,112.0
154,93.85265220000001,93.97647483333334,68.0,127.0
155,94.1468842,94.2903223,65.0,102.0
156,94.44111620000001,94.69979516666668,67.0,117.0
157,95.02958020000001,95.1399172,63.0,127.0
158,95.3238122,95.40472600000001,63.0,117.0
159,95.6180442,95.73696296666667,60.0,102.0
160,95.91227620000001,96.03732480000001,60.0,100.0
161,96.2065082,96.61107720000001,67.0,127.0
162,96.7949722,97.70954333333334,65.0,127.0
163,99.14882820000001,99.57669056666667,53.0,96.0
164,99.73729220000001,100.14553910000001,56.0,102.0
165,100.3257562,101.6608339,58.0,122.0
166,103.85654020000001,104.23046003333334,58.0,112.0
167,104.4450042,104.7870489,60.0,97.0
168,105.0334682,105.32770020000001,56.0,89.0
169,105.32770020000001,107.86790313333334,53.0,89.0
170,108.56425220000001,109.04728306666668,53.0,97.0
171,109.1527162,109.58548243333334,56.0,107.0
172,109.7411802,112.03741576666667,58.0,112.0
173,113.27196420000001,113.39946473333335,56.0,100.0
174,113.56619620000001,113.70350446666667,48.0,86.0
175,113.8604282,113.9744431,56.0,97.0
176,114.15466020000001,116.76351726666667,53.0,99.0
177,135.6335962,135.72063983333334,60.0,112.0
178,135.92782820000002,136.02100166666668,60.0,100.0
179,136.22206020000002,136.34956073333333,60.0,97.0
180,136.5162922,136.61804743333334,63.0,122.0
181,136.8105242,137.02874626666667,65.0,102.0
182,137.1047562,137.18689596666667,63.0,117.0
183,137.39898820000002,137.6123064,60.0,112.0
184,137.6932202,137.97028866666668,56.0,112.0
185,137.9874522,138.88485980000002,58.0,102.0
186,140.34130820000001,140.50190983333334,60.0,112.0
187,140.6355402,140.7654926666667,60.0,96.0
188,140.9297722,141.0732103,60.0,97.0
189,141.2240042,141.35886053333334,63.0,112.0
190,141.51823620000002,141.68128976666668,65.0,97.0
191,141.8124682,141.98778143333334,63.0,127.0
192,142.1067002,142.24646040000002,60.0,122.0
193,142.2354267,142.40583606666667,58.0,100.0
194,142.4009322,142.61179846666667,56.0,96.0
195,142.69516420000002,143.68084140000002,53.0,95.0
196,145.0490202,145.15322736666667,51.0,95.0
197,145.3432522,145.43765163333333,51.0,90.0
198,145.9317162,146.15484213333335,53.0,86.0
199,146.2259482,146.69549343333335,56.0,102.0
200,146.81441220000002,147.1307116,56.0,117.0
201,147.4028762,147.57083363333334,60.0,99.0
202,147.6971082,147.82338276666667,63.0,100.0
203,148.28557220000002,148.47191913333333,55.0,95.0
204,148.5798042,149.15723450000002,60.0,112.0
205,149.75673220000002,149.86339130000002,58.0,117.0
206,150.0509642,150.1613012,58.0,107.0
207,150.3451962,150.45062933333335,58.0,102.0
208,150.6394282,150.72647183333333,56.0,99.0
209,150.93366020000002,151.41423913333335,51.0,102.0
210,151.5221242,151.69253356666667,56.0,95.0
211,151.8163562,151.9561164,55.0,95.0
212,152.1105882,152.87681736666667,53.0,83.0
213,154.4644442,154.55148783333334,60.0,112.0
214,154.7586762,154.85184966666668,60.0,100.0
215,155.05290820000002,155.18040873333334,60.0,97.0
216,155.3471402,155.44889543333335,63.0,122.0
217,155.6413722,155.85959426666668,65.0,102.0
218,155.9356042,156.01774396666667,63.0,117.0
219,156.22983620000002,156.3634665666667,60.0,112.0
220,156.33772126666668,156.52529416666667,58.0,100.0
221,156.52406820000002,156.80113666666668,56.0,112.0
222,156.8183002,157.71570780000002,58.0,102.0
223,159.17215620000002,159.33275783333335,60.0,112.0
224,159.4663882,159.59634066666666,60.0,96.0
225,159.7606202,159.9040583,60.0,97.0
226,160.0548522,160.18970853333335,63.0,112.0
227,160.34908420000002,160.51213776666668,65.0,97.0
228,160.64331620000002,160.81862943333334,63.0,127.0
229,160.9375482,161.07730840000002,60.0,122.0
230,161.05033713333333,161.1692559,58.0,100.0
231,161.2317802,161.44264646666667,56.0,96.0
232,161.5260122,162.51168940000002,53.0,95.0
233,163.8798682,163.98407536666667,51.0,95.0
234,164.1741002,164.26849963333333,51.0,90.0
235,164.46833220000002,164.66203493333333,51.0,100.0
236,164.7625642,164.98569013333335,53.0,86.0
237,165.0567962,165.52634143333336,56.0,102.0
238,165.64526020000002,165.96155960000002,56.0,117.0
239,165.93949220000002,166.1270651,58.0,112.0
240,166.2337242,166.40168163333334,60.0,99.0
241,166.8221882,166.97053016666666,63.0,112.0
242,167.11642020000002,167.30276713333333,55.0,95.0
243,167.41065220000002,167.98808250000002,60.0,112.0
244,168.58758020000002,168.69423930000002,58.0,117.0
245,168.8818122,168.9921492,58.0,107.0
246,169.1760442,169.28147733333336,58.0,102.0
247,169.4702762,169.55731983333334,56.0,99.0
248,169.76450820000002,170.0881634,51.0,96.0
249,170.3529722,170.63617050000002,56.0,99.0
250,170.65823790000002,170.93530636666668,55.0,97.0
251,170.9414362,172.40033653333333,53.0,89.0
252,173.0010602,173.10894526666667,60.0,107.0
253,173.2952922,173.3945955,65.0,117.0
254,173.5895242,173.69495733333335,65.0,99.0
255,173.88375620000002,174.03455010000002,65.0,99.0
256,174.17798820000002,174.295681,63.0,102.0
257,174.4722202,174.71986546666668,60.0,117.0
258,174.7664522,175.06191016666668,63.0,122.0
259,175.35491620000002,175.5878498666667,60.0,107.0
260,175.6491482,175.74722553333334,65.0,107.0
261,175.9433802,176.04881333333336,65.0,96.0
262,176.2376122,176.35285306666668,65.0,95.0
263,176.53184420000002,176.6348254,63.0,112.0
264,176.82607620000002,177.20612586666667,65.0,102.0
265,178.00300420000002,178.10966330000002,65.0,99.0
266,178.29723620000001,178.40144336666668,65.0,88.0
267,178.5914682,178.70425713333336,65.0,95.0
268,178.8857002,178.98009963333334,63.0,100.0
269,179.17993220000002,179.4410631,65.0,100.0
270,179.7683962,179.90325253333336,63.0,102.0
271,180.0626282,180.18032100000002,63.0,102.0
272,180.3568602,180.78840046666667,58.0,107.0
273,180.94532420000002,181.27388326666667,63.0,107.0
274,181.5337882,181.91751576666667,60.0,102.0
275,182.7107162,182.85292833333335,58.0,127.0
276,183.0049482,183.1373526,58.0,112.0
277,183.29918020000002,183.4610078,58.0,127.0
278,183.59341220000002,183.6902635666667,56.0,117.0
279,183.8876442,184.29343916666667,53.0,100.0
280,185.06457220000001,185.21046223333335,58.0,117.0
281,185.3588042,185.4666892666667,58.0,112.0
282,185.6530362,185.80505606666668,58.0,112.0
283,185.94726820000002,186.19736540000002,56.0,107.0
284,186.24150020000002,186.71349736666667,51.0,100.0
285,187.41842820000002,187.57902983333335,68.0,127.0
286,187.71266020000002,187.8450646,68.0,117.0
287,188.0068922,188.23247006666668,68.0,127.0
288,188.3011242,188.5365098,65.0,97.0
289,188.5953562,188.9717279666667,67.0,122.0
290,189.1838202,189.35177763333334,63.0,127.0
291,189.4780522,189.64846156666667,63.0,117.0
292,189.7722842,190.07387200000002,60.0,117.0
293,190.06651620000002,190.07387200000002,60.0,127.0
294,190.36074820000002,190.70401886666667,67.0,112.0
295,190.9492122,191.41875743333335,65.0,127.0
296,191.83926400000001,191.9643126,60.0,93.0
297,192.1261402,192.2560926666667,65.0,102.0
298,192.4203722,192.54419483333334,65.0,97.0
299,192.71460420000003,192.84210473333334,65.0,99.0
300,193.00883620000002,193.1203991666667,63.0,107.0
301,193.3030682,193.70886316666667,60.0,97.0
302,193.5973002,193.92953716666668,63.0,100.0
303,194.19312000000002,194.32307246666667,60.0,96.0
304,194.47999620000002,194.61730446666667,65.0,112.0
305,194.7742282,194.9029547,65.0,100.0
306,195.0684602,195.1971867,65.0,96.0
307,195.3626922,195.50122643333336,63.0,96.0
308,195.65692420000002,196.00509873333334,65.0,100.0
309,196.83385220000002,196.9368334,65.0,100.0
310,197.12808420000002,197.2310654,65.0,96.0
311,197.4223162,197.56452833333336,65.0,95.0
312,197.7165482,197.82688520000002,63.0,102.0
313,198.0107802,198.46438786666667,65.0,102.0
314,198.59924420000002,198.716937,63.0,117.0
315,198.8934762,199.06756346666668,63.0,127.0
316,199.1877082,199.62660426666667,58.0,112.0
317,199.77617220000002,200.2359097,63.0,127.0
318,200.3646362,201.09040846666667,60.0,100.0
319,201.5415642,201.69481003333334,58.0,117.0
320,201.8357962,201.97555640000002,58.0,97.0
321,202.1300282,202.25875470000003,58.0,112.0
322,202.42426020000002,202.56156846666667,60.0,97.0
323,202.71849220000001,202.96368553333335,56.0,107.0
324,203.0127242,203.34496116666668,53.0,93.0
325,203.89542020000002,204.03150250000002,58.0,127.0
326,204.1896522,204.32328256666668,58.0,107.0
327,204.4838842,204.61874053333335,58.0,117.0
328,204.7781162,204.92032833333334,60.0,97.0
329,205.07234820000002,205.4487199666667,51.0,97.0
330,206.24927620000003,206.35716126666668,68.0,127.0
331,206.54350820000002,206.65261923333335,68.0,112.0
332,206.8377402,206.96156283333335,68.0,127.0
333,207.1319722,207.2754103,65.0,102.0
334,207.4262042,207.68488316666668,67.0,117.0
335,208.01466820000002,208.1250052,63.0,127.0
336,208.3089002,208.389814,63.0,117.0
337,208.6031322,208.72205096666667,60.0,102.0
338,208.89736420000003,209.0224128,60.0,100.0
339,209.19159620000002,209.5961652,67.0,127.0
340,209.7800602,210.69463133333335,65.0,127.0
341,210.66275620000002,210.77064126666667,60.0,107.0
342,210.9569882,211.05629150000001,65.0,117.0
343,211.2512202,211.35665333333336,65.0,99.0
344,211.5454522,211.69624610000002,65.0,99.0
345,211.83968420000002,211.957377,63.0,102.0
346,212.13391620000002,212.38156146666668,60.0,117.0
347,212.4281482,212.72360616666668,63.0,122.0
348,213.01661220000003,213.2495458666667,60.0,107.0
349,213.31084420000002,213.40892153333334,65.0,107.0
350,213.6050762,213.71050933333333,65.0,96.0
351,213.8993082,214.0145490666667,65.0,95.0
352,214.1935402,214.29652140000002,63.0,112.0
353,214.48777220000002,214.86782186666667,65.0,102.0
354,215.66470020000003,215.7713593,65.0,99.0
355,215.95893220000002,216.0631393666667,65.0,88.0
356,216.25316420000001,216.36595313333333,65.0,95.0
357,216.5473962,216.64179563333334,63.0,100.0
358,216.8416282,217.10275910000001,65.0,100.0
359,217.43009220000002,217.56494853333334,63.0,102.0
360,217.7243242,217.84201700000003,63.0,102.0
361,218.0185562,218.45009646666668,58.0,107.0
362,218.60702020000002,218.93557926666668,63.0,107.0
363,219.1954842,219.57921176666667,60.0,102.0
364,220.3724122,220.51462433333336,58.0,127.0
365,220.6666442,220.79904860000002,58.0,112.0
366,220.9608762,221.1227038,58.0,127.0
367,221.25510820000002,221.3519595666667,56.0,117.0
368,221.54934020000002,221.95513516666668,53.0,100.0
369,222.72626820000002,222.87215823333335,58.0,117.0
370,223.02050020000001,223.12838526666667,58.0,112.0
371,223.3147322,223.4667520666667,58.0,112.0
372,223.6089642,223.8590614,56.0,107.0
373,223.90319620000002,224.37519336666668,51.0,100.0
374,225.0801242,225.24072583333336,68.0,127.0
375,225.37435620000002,225.5067606,68.0,117.0
376,225.66858820000002,225.89416606666668,68.0,127.0
377,225.9628202,226.1982058,65.0,97.0
378,226.2570522,226.63342396666667,67.0,122.0
379,226.84551620000002,227.01347363333335,63.0,127.0
380,227.1397482,227.31015756666667,63.0,117.0
381,227.4339802,227.735568,60.0,117.0
382,227.7282122,227.735568,60.0,127.0
383,228.02244420000002,228.36571486666668,67.0,112.0
384,228.6109082,229.08045343333336,65.0,127.0
385,229.49973403333334,229.62478263333335,60.0,93.0
386,229.78783620000002,229.91778866666667,65.0,102.0
387,230.0820682,230.20589083333334,65.0,97.0
388,230.3763002,230.50380073333335,65.0,99.0
389,230.67053220000003,230.7820951666667,63.0,107.0
390,230.96476420000002,231.37055916666668,60.0,97.0
391,231.2589962,231.59123316666668,63.0,100.0
392,231.84255633333333,231.9725088,60.0,96.0
393,232.14169220000002,232.27900046666667,65.0,112.0
394,232.43592420000002,232.56465070000002,65.0,100.0
395,232.7301562,232.8588827,65.0,96.0
396,233.0243882,233.16292243333334,63.0,96.0
397,233.31862020000003,233.66679473333335,65.0,100.0
398,234.4955482,234.59852940000002,65.0,100.0
399,234.78978020000002,234.8927614,65.0,96.0
400,235.08401220000002,235.22622433333333,65.0,95.0
401,235.3782442,235.48858120000003,63.0,102.0
402,235.6724762,236.12608386666668,65.0,102.0
403,236.26094020000002,236.378633,63.0,117.0
404,236.55517220000002,236.7292594666667,63.0,127.0
405,236.8494042,237.28830026666668,58.0,112.0
406,237.43786820000003,237.71738860000002,63.0,127.0
407,237.7431339,238.0005869,61.0,97.0
408,238.0263322,238.75210446666668,60.0,100.0
409,239.20326020000002,239.35650603333335,58.0,117.0
410,239.4974922,239.63725240000002,58.0,97.0
411,239.7917242,239.9204507,58.0,112.0
412,240.08595620000003,240.22326446666668,60.0,97.0
413,240.38018820000002,240.62538153333335,56.0,107.0
414,240.67442020000001,241.00665716666668,53.0,93.0
415,241.55711620000002,241.69319850000002,58.0,127.0
416,241.85134820000002,241.98497856666668,58.0,107.0
417,242.1455802,242.28043653333336,58.0,117.0
418,242.4398122,242.58202433333335,60.0,97.0
419,242.73404420000003,243.1104159666667,51.0,97.0
420,243.9109722,244.01885726666669,68.0,127.0
421,244.20520420000003,244.31431523333336,68.0,112.0
422,244.49943620000002,244.62325883333335,68.0,127.0
423,244.7936682,244.9371063,65.0,102.0
424,245.0879002,245.3465791666667,67.0,117.0
425,245.67636420000002,245.7867012,63.0,127.0
426,245.97059620000002,246.05151,63.0,117.0
427,246.2648282,246.38374696666668,60.0,102.0
428,246.5590602,246.68410880000002,60.0,100.0
429,246.85329220000003,247.2578612,67.0,127.0
430,247.44175620000001,248.35632733333335,65.0,127.0
431,249.79561220000002,250.22347456666668,53.0,96.0
432,250.3840762,250.7923231,56.0,102.0
433,250.97254020000003,252.30761790000003,58.0,122.0
434,254.5033242,254.87724403333334,58.0,112.0
435,255.09178820000002,255.43383290000003,60.0,97.0
436,255.6802522,255.9744842,56.0,89.0
437,255.9744842,258.5146871333333,53.0,89.0
438,259.2110362,259.69406706666666,53.0,97.0
439,259.7995002,260.23226643333334,56.0,107.0
440,260.3879642,262.68419976666667,58.0,112.0
441,263.91874820000004,264.04624873333336,56.0,100.0
442,264.2129802,264.35028846666665,48.0,86.0
443,264.5072122,264.6212271,56.0,97.0
444,264.8014442,267.4103012666667,53.0,99.0
