,start,end,pitch,velocity
0,6.7599802,7.1093807,65.0,62.0
1,6.7599802,7.1608713,58.0,100.0
2,6.7599802,7.163323233333334,61.0,95.0
3,6.4657482,7.2969536,53.0,61.0
4,6.1715162,7.3116652,46.0,97.0
5,7.3484442,7.453877333333334,46.0,73.0
6,7.201328200000001,7.474718766666667,65.0,50.0
7,7.201328200000001,7.533565166666667,61.0,68.0
8,7.201328200000001,7.571570133333334,58.0,79.0
9,7.6426762,8.014144100000001,46.0,93.0
10,7.9369082,8.4849153,65.0,76.0
11,7.9369082,8.533953966666667,61.0,86.0
12,8.2311402,8.541309766666668,58.0,79.0
13,9.1138362,9.3197986,55.0,66.0
14,8.525372200000001,9.560088066666667,39.0,96.0
15,8.8196042,9.5919632,46.0,47.0
16,9.555184200000001,9.690040533333335,55.0,83.0
17,9.7023002,9.829800733333334,39.0,85.0
18,9.1138362,10.067638266666668,58.0,96.0
19,9.1138362,10.099513400000001,63.0,93.0
20,9.9965322,10.445236000000001,39.0,82.0
21,10.5849962,10.836319366666668,55.0,92.0
22,10.2907642,10.852256933333335,58.0,112.0
23,10.2907642,10.8792282,63.0,100.0
24,11.4676922,11.737404866666667,60.0,74.0
25,10.8792282,11.950723066666667,44.0,97.0
26,11.173460200000001,12.003439633333334,56.0,89.0
27,12.0561562,12.145651766666667,44.0,107.0
28,11.909040200000002,12.153007566666668,60.0,88.0
29,12.6446202,12.944982033333334,56.0,112.0
30,12.350388200000001,13.011184233333335,44.0,97.0
31,11.4676922,13.2294063,68.0,90.0
32,11.4676922,13.253925633333335,63.0,96.0
33,12.938852200000001,13.273541100000001,60.0,102.0
34,13.2330842,14.3327763,41.0,78.0
35,13.527316200000001,14.358521600000001,48.0,48.0
36,14.2628962,14.401430433333335,53.0,90.0
37,14.4100122,14.495829866666668,41.0,75.0
38,13.8215482,14.612296700000002,60.0,85.0
39,13.8215482,14.642945866666668,56.0,97.0
40,14.704244200000002,15.054870666666668,41.0,88.0
41,14.9984762,15.499896566666667,56.0,107.0
42,14.9984762,15.503574466666668,60.0,93.0
43,15.292708200000002,15.525641866666668,53.0,86.0
44,15.5869402,16.6498533,46.0,77.0
45,16.6167522,16.751608533333336,53.0,70.0
46,16.175404200000003,16.84233006666667,58.0,97.0
47,16.175404200000003,16.87543116666667,61.0,72.0
48,16.175404200000003,16.8962726,65.0,67.0
49,16.7638682,16.90117646666667,46.0,93.0
50,17.058100200000002,17.430794066666667,46.0,86.0
51,17.3523322,17.4847366,58.0,76.0
52,17.3523322,17.896661400000003,65.0,59.0
53,17.3523322,17.921180733333333,61.0,86.0
54,17.6465642,17.939570233333335,58.0,88.0
55,18.5292602,18.8124585,55.0,79.0
56,17.9407962,19.001257366666668,39.0,96.0
57,18.235028200000002,19.022098800000002,51.0,72.0
58,18.9706082,19.114046300000002,55.0,78.0
59,18.5292602,19.129983866666667,58.0,93.0
60,18.5292602,19.13733966666667,63.0,83.0
61,19.1177242,19.223157333333333,39.0,97.0
62,19.411956200000002,19.756452833333334,39.0,92.0
63,19.7061882,20.2063826,63.0,100.0
64,19.7061882,20.2358058,58.0,102.0
65,20.0004202,20.2725848,55.0,93.0
66,20.2946522,21.37718076666667,41.0,88.0
67,20.588884200000003,21.38085866666667,48.0,56.0
68,21.3244642,21.49487356666667,53.0,77.0
69,21.471580200000002,21.5708835,41.0,82.0
70,20.8831162,21.672638733333336,56.0,99.0
71,20.8831162,21.771942033333335,60.0,89.0
72,22.0600442,22.506296066666668,56.0,107.0
73,21.765812200000003,22.532041366666668,41.0,85.0
74,22.0600442,22.5602386,60.0,93.0
75,22.3542762,22.6043734,53.0,72.0
76,22.648508200000002,23.005264500000003,56.0,100.0
77,22.648508200000002,23.00649046666667,41.0,90.0
78,22.648508200000002,23.0273319,53.0,90.0
79,22.648508200000002,23.038365600000002,60.0,82.0
80,25.296596200000003,25.66193426666667,58.0,78.0
81,25.002364200000002,26.152320933333336,46.0,88.0
82,26.179292200000003,26.309244666666668,46.0,72.0
83,26.032176200000002,26.361961233333336,61.0,66.0
84,25.5908282,26.3778988,65.0,55.0
85,26.4735242,27.285114133333334,46.0,95.0
86,26.7677562,27.352542300000003,65.0,69.0
87,27.061988200000002,27.388095333333336,58.0,81.0
88,27.356220200000003,28.457138266666668,48.0,88.0
89,28.533148200000003,28.6471631,48.0,85.0
90,27.6504522,28.677812266666667,55.0,45.0
91,28.386032200000002,28.896034333333336,60.0,85.0
92,27.9446842,28.92790946666667,63.0,100.0
93,29.1216122,29.667167366666668,63.0,107.0
94,28.8273802,29.684330900000003,48.0,95.0
95,29.1216122,29.6916867,60.0,95.0
96,29.415844200000002,29.734595533333334,55.0,77.0
97,29.710076200000003,30.7619556,41.0,72.0
98,30.0043082,30.898037900000002,48.0,63.0
99,30.887004200000003,31.0010191,41.0,81.0
100,30.739888200000003,31.007148933333337,53.0,86.0
101,30.2985402,31.1849141,56.0,89.0
102,30.2985402,31.224145033333336,60.0,88.0
103,31.1812362,31.526958800000003,41.0,92.0
104,31.4754682,32.029605133333334,56.0,96.0
105,31.769700200000003,32.0381869,53.0,77.0
106,31.4754682,32.0418648,60.0,82.0
107,32.358164200000004,33.0974221,51.0,63.0
108,32.0639322,33.12071546666667,44.0,97.0
109,32.652396200000005,33.18078783333333,60.0,75.0
110,33.0937442,33.2739613,56.0,95.0
111,32.652396200000005,33.30583643333333,63.0,93.0
112,33.2408602,33.36468283333333,44.0,90.0
113,33.5350922,34.300095400000004,44.0,93.0
114,34.1235562,34.400624666666666,56.0,72.0
115,33.8293242,34.41901416666667,60.0,95.0
116,33.8293242,34.4508893,63.0,93.0
117,34.712020200000005,35.050387,55.0,40.0
118,34.417788200000004,35.51502836666667,48.0,81.0
119,35.0062522,35.58858636666667,63.0,93.0
120,35.0062522,35.62291343333334,60.0,88.0
121,35.447600200000004,35.6535626,55.0,83.0
122,35.5947162,35.71731286666667,48.0,82.0
123,35.8889482,36.28370946666667,48.0,88.0
124,36.1831802,36.66008123333334,60.0,90.0
125,36.1831802,36.67356686666667,63.0,97.0
126,36.4774122,36.6833746,55.0,85.0
127,36.771644200000004,37.37604576666667,46.0,89.0
128,37.065876200000005,37.43611813333334,58.0,78.0
129,37.3601082,37.86888436666667,65.0,68.0
130,37.3601082,37.8934037,61.0,69.0
131,37.801456200000004,37.9485722,58.0,92.0
132,37.9485722,38.10181803333334,39.0,96.0
133,38.2428042,38.60446436666667,39.0,63.0
134,38.5370362,39.02006706666667,55.0,76.0
135,38.831268200000004,39.059298000000005,51.0,72.0
136,38.5370362,39.06910573333334,58.0,83.0
137,39.125500200000005,40.030263600000005,41.0,72.0
138,39.419732200000006,40.1957691,48.0,47.0
139,39.7139642,40.28526466666667,56.0,83.0
140,40.155312200000004,40.301202233333335,53.0,89.0
141,39.7139642,40.37843813333333,60.0,73.0
142,40.3024282,40.411539233333336,41.0,79.0
143,40.5966602,41.38127886666667,41.0,81.0
144,40.8908922,41.44748106666667,60.0,95.0
145,41.479356200000005,41.753972733333335,53.0,99.0
146,41.185124200000004,41.75642466666667,56.0,90.0
147,41.479356200000005,41.79442963333334,60.0,76.0
148,41.479356200000005,41.816497033333334,41.0,88.0
149,43.833212200000006,44.912062866666666,46.0,90.0
150,45.0101402,45.1388667,46.0,83.0
151,44.4216762,45.19893906666667,65.0,71.0
152,44.4216762,45.244299833333336,61.0,74.0
153,44.863024200000005,45.251655633333336,58.0,90.0
154,45.3043722,46.07795716666667,46.0,96.0
155,45.598604200000004,46.156419033333336,65.0,59.0
156,45.598604200000004,46.180938366666666,61.0,64.0
157,45.892836200000005,46.19319803333334,58.0,88.0
158,46.4813002,46.836830533333334,55.0,82.0
159,46.187068200000006,47.27327466666667,48.0,72.0
160,46.7755322,47.39464536666667,60.0,78.0
161,46.7755322,47.39464536666667,63.0,83.0
162,47.216880200000006,47.40690503333334,55.0,81.0
163,47.3639962,47.48291496666667,48.0,76.0
164,47.6582282,48.227076733333334,48.0,89.0
165,47.952460200000004,48.5041452,63.0,76.0
166,47.952460200000004,48.551957900000005,60.0,76.0
167,48.246692200000005,48.587510933333334,55.0,79.0
168,48.540924200000006,49.5376351,41.0,77.0
169,48.8351562,49.676169333333334,48.0,69.0
170,49.7178522,49.820833400000005,41.0,81.0
171,49.570736200000006,49.849030633333335,53.0,83.0
172,49.1293882,49.92626653333333,60.0,78.0
173,49.1293882,49.93607426666667,56.0,93.0
174,50.306316200000005,50.6226156,56.0,107.0
175,50.012084200000004,50.6299714,41.0,85.0
176,50.600548200000006,50.812640433333335,53.0,97.0
177,50.306316200000005,50.867808933333336,60.0,93.0
178,50.7476642,50.87393876666667,56.0,83.0
179,51.1890122,51.512667400000005,56.0,89.0
180,50.8947802,51.971178933333334,44.0,89.0
181,51.4832442,52.02512146666667,60.0,66.0
182,51.4832442,52.12442476666667,63.0,73.0
183,51.924592200000006,52.16120376666667,56.0,95.0
184,52.0717082,52.178367300000005,44.0,89.0
185,52.365940200000004,53.15546273333334,44.0,88.0
186,52.954404200000006,53.1861119,56.0,77.0
187,52.660172200000005,53.204501400000005,63.0,90.0
188,52.660172200000005,53.21798703333334,60.0,86.0
189,53.5428682,53.92659576666667,55.0,68.0
190,53.2486362,54.31277526666667,48.0,79.0
191,53.8371002,54.3667178,60.0,90.0
192,53.8371002,54.3703957,63.0,92.0
193,54.27844820000001,54.42801613333334,55.0,81.0
194,54.425564200000004,54.54938683333334,48.0,73.0
195,54.719796200000005,55.3413613,48.0,83.0
196,55.014028200000006,55.54609773333333,60.0,82.0
197,55.014028200000006,55.558357400000006,63.0,89.0
198,55.30826020000001,55.607396066666674,55.0,69.0
199,55.8967242,56.24122083333334,58.0,88.0
200,55.6024922,56.46189483333334,46.0,97.0
201,56.1909562,56.6727611,65.0,65.0
202,56.1909562,56.678890933333335,61.0,70.0
203,56.6323042,56.768386500000005,58.0,64.0
204,56.779420200000004,56.914276533333336,39.0,92.0
205,57.073652200000005,57.49048086666667,39.0,88.0
206,57.367884200000006,57.8827902,55.0,82.0
207,57.66211620000001,57.92815096666667,51.0,62.0
208,57.367884200000006,57.95021836666667,58.0,88.0
209,58.2505802,58.550942033333335,53.0,74.0
210,57.9563482,59.01435743333334,41.0,82.0
211,58.5448122,59.0928193,56.0,93.0
212,58.9861602,59.17618503333334,53.0,88.0
213,58.5448122,59.181088900000006,60.0,90.0
214,59.133276200000005,59.26445463333334,41.0,92.0
215,59.427508200000005,60.14960256666667,41.0,97.0
216,60.0159722,60.246453933333335,53.0,115.0
217,59.721740200000006,60.269747300000006,56.0,115.0
218,59.721740200000006,60.2918147,60.0,115.0
219,60.3102042,61.37066536666667,41.0,115.0
220,60.8986682,61.3988626,53.0,96.0
221,60.6044362,61.43441563333334,48.0,107.0
222,61.487132200000005,61.62811836666667,41.0,96.0
223,61.3400162,61.83653270000001,60.0,112.0
224,60.8986682,61.8806675,65.0,100.0
225,60.8986682,61.883119433333334,68.0,122.0
226,61.781364200000006,62.067014433333334,41.0,96.0
227,62.07559620000001,62.291366333333336,65.0,112.0
228,62.07559620000001,62.295044233333336,68.0,127.0
229,62.3698282,62.42990056666667,65.0,55.0
230,62.3698282,62.44951603333334,68.0,66.0
231,62.222712200000004,62.52307403333334,41.0,99.0
232,62.3698282,62.748651900000006,60.0,97.0
233,62.9582922,63.324856233333335,60.0,93.0
234,63.2525242,63.58598713333334,65.0,102.0
235,63.2525242,63.58721310000001,68.0,127.0
236,62.6640602,63.730651200000004,41.0,127.0
237,63.840988200000005,63.955003100000006,41.0,97.0
238,63.6938722,63.997911933333334,60.0,99.0
239,63.6938722,64.02733513333334,65.0,100.0
240,63.6938722,64.03101303333334,68.0,112.0
241,64.1352202,64.46745716666668,41.0,99.0
242,64.4294522,64.64399636666667,65.0,117.0
243,64.5765682,64.84995876666667,48.0,93.0
244,64.72368420000001,64.9848151,60.0,112.0
245,64.8708002,65.00443056666667,65.0,65.0
246,64.4294522,65.06082503333333,68.0,127.0
247,65.31214820000001,65.50462496666667,61.0,93.0
248,65.6063802,65.93248733333334,65.0,107.0
249,65.6063802,65.94965086666667,68.0,102.0
250,65.0179162,66.0808293,49.0,99.0
251,66.04772820000001,66.12741603333333,68.0,33.0
252,66.04772820000001,66.18013260000001,61.0,122.0
253,66.1948442,66.29659943333334,49.0,97.0
254,66.78330820000001,67.14864626666667,65.0,112.0
255,66.78330820000001,67.18174736666667,68.0,112.0
256,67.0775402,67.2871805,61.0,102.0
257,66.4890762,67.30679596666667,49.0,102.0
258,67.37177220000001,67.67213403333334,46.0,102.0
259,67.9602362,68.23117483333334,55.0,86.0
260,67.9602362,68.26304996666667,51.0,96.0
261,67.9602362,68.30841073333333,58.0,86.0
262,67.9602362,68.38564663333334,39.0,112.0
263,68.8429322,69.05992830000001,56.0,107.0
264,68.5487002,69.20091446666667,44.0,93.0
265,69.1371642,69.35538626666667,60.0,96.0
266,69.1371642,69.35661223333334,63.0,107.0
267,69.43139620000001,69.61406523333333,56.0,97.0
268,69.2842802,69.66432986666668,44.0,93.0
269,69.5785122,69.67413760000001,63.0,23.0
270,69.5785122,69.7182724,60.0,69.0
271,70.01986020000001,70.3729386,53.0,68.0
272,69.7256282,70.78731533333334,46.0,102.0
273,70.3140922,70.86332526666668,61.0,100.0
274,70.3140922,70.86945510000001,58.0,95.0
275,70.9025562,71.0459943,46.0,111.0
276,70.75544020000001,71.3328705,53.0,100.0
277,71.1967882,71.49837600000001,46.0,110.0
278,71.6381362,71.76195883333334,46.0,109.0
279,71.49102020000001,71.8036417,58.0,109.0
280,71.7852522,72.01205603333334,53.0,109.0
281,71.49102020000001,72.05864276666667,61.0,109.0
282,71.9323682,72.07703226666668,58.0,111.0
283,72.3737162,72.70717913333334,51.0,99.0
284,72.6679482,72.97443986666667,63.0,100.0
285,72.81506420000001,72.97934373333334,51.0,28.0
286,72.6679482,72.9916034,55.0,83.0
287,72.6679482,72.9952813,58.0,117.0
288,72.07948420000001,73.06393543333334,39.0,117.0
289,73.1092962,73.22576303333334,58.0,107.0
290,73.1092962,73.2453785,55.0,86.0
291,73.1092962,73.24783043333333,63.0,99.0
292,73.2564122,73.3226144,39.0,77.0
293,73.2564122,73.3410039,51.0,79.0
294,73.55064420000001,73.96502093333334,51.0,90.0
295,73.55064420000001,73.99076623333333,39.0,92.0
296,73.8448762,74.30338773333334,58.0,112.0
297,73.8448762,74.3487485,63.0,112.0
298,74.13910820000001,74.37571976666668,55.0,93.0
299,74.72757220000001,74.91391913333334,49.0,83.0
300,75.0218042,75.323392,56.0,95.0
301,75.0218042,75.3270699,53.0,93.0
302,75.46315220000001,75.5036091,56.0,38.0
303,74.4333402,75.5219986,37.0,90.0
304,75.46315220000001,75.57471516666668,49.0,99.0
305,75.61026820000001,75.74022066666667,39.0,89.0
306,75.9045002,76.2870018,39.0,102.0
307,76.19873220000001,76.7320277,55.0,112.0
308,76.19873220000001,76.74551333333334,58.0,100.0
309,76.4929642,76.7504172,51.0,88.0
310,77.0814282,77.31068396666667,55.0,66.0
311,76.78719620000001,77.87095073333334,48.0,97.0
312,77.3756602,77.87830653333334,63.0,107.0
313,77.3756602,77.88566233333334,60.0,99.0
314,77.8170082,78.01561480000001,55.0,86.0
315,77.9641242,78.07936506666667,41.0,86.0
316,78.25835620000001,78.98780636666667,41.0,85.0
317,78.5525882,79.08956160000001,56.0,112.0
318,78.84682020000001,79.09814336666668,53.0,90.0
319,78.5525882,79.1741533,60.0,92.0
320,79.1410522,80.15492663333333,41.0,89.0
321,79.4352842,80.23829236666667,48.0,72.0
322,80.17086420000001,80.31552826666667,53.0,97.0
323,79.7295162,80.3326918,56.0,102.0
324,79.7295162,80.33882163333334,60.0,90.0
325,80.31798020000001,80.43076913333334,41.0,88.0
326,80.6122122,80.85740553333333,41.0,96.0
327,80.90644420000001,81.02781490000001,60.0,100.0
328,80.90644420000001,81.04252650000001,56.0,122.0
329,81.0535602,81.39560490000001,41.0,96.0
330,81.2006762,81.4728408,56.0,112.0
331,81.3477922,81.50961980000001,53.0,83.0
332,81.2006762,81.52678333333334,60.0,96.0
333,81.7891402,81.93503023333334,53.0,44.0
334,81.49490820000001,82.58969643333334,41.0,93.0
335,82.0833722,82.66325443333334,56.0,117.0
336,82.0833722,82.68899973333333,60.0,97.0
337,82.6718362,82.789529,41.0,92.0
338,82.5247202,82.84347153333334,53.0,99.0
339,82.96606820000001,83.25417036666667,41.0,99.0
340,83.2603002,83.4956858,56.0,112.0
341,83.4074162,83.56556590000001,41.0,97.0
342,83.55453220000001,83.7604946,53.0,112.0
343,83.2603002,83.78133603333333,60.0,96.0
344,83.70164820000001,83.85734596666667,56.0,96.0
345,83.8487642,84.87244636666667,37.0,122.0
346,84.1429962,84.89206183333334,49.0,89.0
347,84.87857620000001,85.03059606666667,53.0,73.0
348,84.4372282,85.04162976666667,56.0,112.0
349,84.4372282,85.05634136666667,61.0,107.0
350,85.02569220000001,85.12622146666668,37.0,112.0
351,85.3199242,85.88264290000001,37.0,93.0
352,85.61415620000001,85.97949426666668,56.0,107.0
353,85.76127220000001,85.98685006666668,49.0,90.0
354,85.9083882,86.13886993333334,53.0,93.0
355,85.61415620000001,86.1474517,61.0,107.0
356,86.2026202,86.73223780000001,46.0,107.0
357,86.7910842,86.92961843333335,55.0,96.0
358,86.7910842,86.96884936666667,51.0,95.0
359,86.7910842,86.9896908,58.0,73.0
360,86.7910842,87.29618246666668,39.0,88.0
361,87.3795482,87.80618460000001,63.0,97.0
362,87.3795482,87.83070393333334,60.0,100.0
363,87.3795482,87.86380503333334,56.0,102.0
364,87.3795482,88.00356523333333,44.0,88.0
365,87.9680122,88.13964753333335,56.0,81.0
366,87.9680122,88.18133040000001,60.0,102.0
367,87.9680122,88.23159503333333,63.0,102.0
368,88.26224420000001,88.33089833333334,60.0,41.0
369,88.1151282,88.48537013333333,44.0,89.0
370,88.26224420000001,88.4939519,63.0,27.0
371,88.40936020000001,88.50008173333333,60.0,36.0
372,88.26224420000001,88.52337510000001,56.0,88.0
373,89.14494020000001,89.26876283333334,53.0,55.0
374,88.5564762,89.63900476666667,46.0,117.0
375,89.73340420000001,89.84741910000001,46.0,86.0
376,89.5862882,89.85722683333334,53.0,86.0
377,89.14494020000001,89.87316440000001,61.0,97.0
378,89.14494020000001,89.90503953333334,58.0,97.0
379,90.0276362,90.35374333333334,46.0,102.0
380,90.46898420000001,90.63571566666667,46.0,107.0
381,90.32186820000001,90.71908140000001,58.0,100.0
382,90.6161002,90.83800016666667,53.0,97.0
383,90.32186820000001,90.88213496666667,61.0,100.0
384,90.7632162,90.93852943333334,58.0,65.0
385,91.20456420000001,91.92665856666667,51.0,86.0
386,90.9103322,91.9327884,39.0,100.0
387,91.9401442,92.1019718,55.0,70.0
388,91.4987962,92.16694803333334,58.0,102.0
389,91.4987962,92.1792077,63.0,96.0
390,92.0872602,92.19514526666667,39.0,102.0
391,92.6757242,93.11216833333334,51.0,92.0
392,92.9699562,93.12442800000001,58.0,100.0
393,92.38149220000001,93.14894733333334,39.0,96.0
394,92.9699562,93.18204843333334,63.0,99.0
395,92.9699562,93.28748156666667,55.0,81.0
396,93.5584202,93.72392570000001,49.0,63.0
397,94.1468842,94.2792886,49.0,82.0
398,93.2641882,94.2940002,37.0,89.0
399,93.85265220000001,94.29522616666667,53.0,93.0
400,93.85265220000001,94.3675582,56.0,99.0
401,94.44111620000001,94.58087640000001,39.0,96.0
402,94.7353482,95.36917296666667,39.0,97.0
403,95.02958020000001,95.42434146666668,55.0,96.0
404,95.02958020000001,95.44763483333334,58.0,89.0
405,95.3238122,95.48318786666667,51.0,85.0
406,95.76516020000001,96.01648336666668,48.0,68.0
407,96.50074020000001,96.61475510000001,48.0,79.0
408,95.6180442,96.64172636666667,36.0,66.0
409,96.2065082,96.68586116666667,51.0,97.0
410,96.2065082,96.7067026,55.0,92.0
411,96.7949722,96.9236987,41.0,96.0
412,97.08920420000001,97.59307650000001,41.0,97.0
413,97.6776682,97.94615490000001,53.0,82.0
414,97.3834362,97.9866118,56.0,117.0
415,97.3834362,97.9976455,60.0,95.0
416,97.97190020000001,98.81659123333334,41.0,82.0
417,98.56036420000001,99.13166466666667,56.0,100.0
418,98.8545962,99.15128013333334,53.0,68.0
419,98.56036420000001,99.15373206666668,60.0,89.0
420,99.4430602,99.86601870000001,53.0,75.0
421,99.73729220000001,100.10876010000001,56.0,67.0
422,99.73729220000001,100.1676065,60.0,73.0
423,99.14882820000001,100.20193356666667,41.0,74.0
424,100.61998820000001,101.031913,53.0,42.0
425,100.9142202,101.94525816666668,61.0,72.0
426,101.20845220000001,102.21864873333334,53.0,55.0
427,100.3257562,102.4515824,46.0,89.0
428,101.79691620000001,102.61463596666667,58.0,45.0
429,102.3853802,102.62199176666667,53.0,63.0
430,102.0911482,102.63792933333335,61.0,93.0
431,102.9738442,103.91416063333334,51.0,52.0
432,103.26807620000001,104.24639760000001,63.0,93.0
433,102.67961220000001,104.58353843333335,39.0,86.0
434,104.1507722,104.6325771,51.0,53.0
435,103.5623082,104.96604003333334,58.0,83.0
436,104.4450042,104.97094390000001,63.0,90.0
437,104.73923620000001,105.09231460000001,55.0,71.0
438,105.32770020000001,106.2287857,48.0,43.0
439,105.91616420000001,106.61251326666667,56.0,72.0
440,105.0334682,107.1813618,41.0,67.0
441,106.50462820000001,107.41061756666667,48.0,58.0
442,106.79886020000001,107.47681976666668,56.0,85.0
443,107.0930922,107.48049766666668,53.0,73.0
444,105.6219322,107.60064240000001,60.0,88.0
445,108.2700202,108.44655940000001,56.0,112.0
446,107.97578820000001,108.57896380000001,60.0,95.0
447,107.6815562,108.61819473333334,48.0,78.0
448,107.38732420000001,109.19439906666668,41.0,74.0
449,108.8584842,109.25079353333334,48.0,72.0
450,109.1527162,109.75834373333333,65.0,95.0
451,109.1527162,109.76202163333333,68.0,107.0
452,109.44694820000001,109.77673323333335,60.0,60.0
453,110.03541220000001,110.90462256666667,58.0,76.0
454,110.3296442,111.15471976666667,61.0,88.0
455,110.62387620000001,111.35945620000001,65.0,78.0
456,111.2123402,111.44037,58.0,72.0
457,109.7411802,111.47592303333334,46.0,97.0
458,111.8008042,111.97856936666668,65.0,64.0
459,111.50657220000001,112.0582572,61.0,99.0
460,112.3892682,113.22169956666667,51.0,76.0
461,112.68350020000001,113.71208623333334,55.0,68.0
462,112.09503620000001,113.77828843333334,39.0,95.0
463,113.56619620000001,113.84449063333334,51.0,65.0
464,112.9777322,114.44031043333334,63.0,99.0
465,113.8604282,114.5371618,58.0,96.0
466,114.15466020000001,114.6916336,55.0,63.0
467,114.74312420000001,115.21266943333335,48.0,72.0
468,115.6258202,115.89185496666667,48.0,43.0
469,115.6258202,116.21918806666667,56.0,86.0
470,116.21428420000001,116.72306036666667,55.0,39.0
471,115.9200522,116.73409406666667,48.0,42.0
472,114.4488922,116.77332500000001,41.0,77.0
473,116.80274820000001,118.52277943333334,65.0,50.0
474,116.80274820000001,118.52523136666667,68.0,58.0
475,116.80274820000001,118.55588053333334,72.0,60.0
476,116.80274820000001,118.60001533333335,53.0,59.0
477,116.80274820000001,118.86727606666668,41.0,68.0
478,115.0373562,118.90528103333334,60.0,86.0
479,119.76590963333334,120.11531013333334,65.0,62.0
480,119.76590963333334,120.16557476666668,58.0,100.0
481,119.76590963333334,120.16802670000001,61.0,95.0
482,119.47167763333334,120.30288303333334,53.0,61.0
483,119.17744563333333,120.31636866666668,46.0,97.0
484,120.35437363333334,120.45858080000001,46.0,73.0
485,120.20725763333334,120.4806482,65.0,50.0
486,120.20725763333334,120.53949460000001,61.0,68.0
487,120.20725763333334,120.57749956666667,58.0,79.0
488,120.64860563333335,121.01884756666668,46.0,93.0
489,120.94283763333334,121.49084473333335,65.0,76.0
490,120.94283763333334,121.53988340000001,61.0,86.0
491,121.23706963333333,121.5472392,58.0,79.0
492,122.11976563333334,122.32572803333333,55.0,66.0
493,121.53130163333334,122.56479153333333,39.0,96.0
494,121.82553363333334,122.59789263333334,46.0,47.0
495,122.56111363333333,122.69596996666668,55.0,83.0
496,122.70822963333335,122.83573016666668,39.0,85.0
497,122.11976563333334,123.07234173333335,58.0,96.0
498,122.11976563333334,123.10421686666668,63.0,93.0
499,123.00246163333334,123.44993946666668,39.0,82.0
500,123.59092563333334,123.84102283333334,55.0,92.0
501,123.29669363333335,123.85818636666667,58.0,112.0
502,123.29669363333335,123.88393166666667,63.0,100.0
503,124.47362163333334,124.7433343,60.0,74.0
504,123.88515763333334,124.9566525,44.0,97.0
505,124.17938963333334,125.00814310000001,56.0,89.0
506,125.06208563333334,125.15158120000001,44.0,107.0
507,124.91496963333334,125.15771103333334,60.0,88.0
508,125.65054963333334,125.9496855,56.0,112.0
509,125.35631763333335,126.01711366666667,44.0,97.0
510,124.47362163333334,126.23533573333334,68.0,90.0
511,124.47362163333334,126.25985506666667,63.0,96.0
512,125.94478163333333,126.27947053333334,60.0,102.0
513,126.23901363333334,127.33747976666668,41.0,78.0
514,126.53324563333334,127.36322506666667,48.0,48.0
515,127.26882563333334,127.40735986666668,53.0,90.0
516,127.41594163333335,127.5017593,41.0,75.0
517,126.82747763333334,127.61822613333334,60.0,85.0
518,126.82747763333334,127.64887530000001,56.0,97.0
519,127.71017363333334,128.05957413333334,41.0,88.0
520,128.00440563333333,128.50460003333333,56.0,107.0
521,128.00440563333333,128.5095039,60.0,93.0
522,128.29863763333333,128.53034533333334,53.0,86.0
523,128.59286963333335,129.65578273333335,46.0,77.0
524,129.62268163333334,129.756312,53.0,70.0
525,129.18133363333334,129.8482595,58.0,97.0
526,129.18133363333334,129.88013463333334,61.0,72.0
527,129.18133363333334,129.9009760666667,65.0,67.0
528,129.76979763333335,129.90587993333335,46.0,93.0
529,130.06402963333335,130.43549753333335,46.0,86.0
530,130.35826163333334,130.48944006666667,58.0,76.0
531,130.35826163333334,130.90136486666668,65.0,59.0
532,130.35826163333334,130.92711016666667,61.0,86.0
533,130.65249363333334,130.9442737,58.0,88.0
534,131.53518963333335,131.81716196666667,55.0,79.0
535,130.94672563333333,132.00596083333335,39.0,96.0
536,131.24095763333335,132.02680226666666,51.0,72.0
537,131.97653763333335,132.11997573333335,55.0,78.0
538,131.53518963333335,132.1359133,58.0,93.0
539,131.53518963333335,132.14204313333335,63.0,83.0
540,132.12365363333333,132.22908676666668,39.0,97.0
541,132.41788563333333,132.76238226666666,39.0,92.0
542,132.71211763333335,133.21231203333335,63.0,100.0
543,132.71211763333335,133.24050926666666,58.0,102.0
544,133.00634963333334,133.2772882666667,55.0,93.0
545,133.30058163333334,134.3831102,41.0,88.0
546,133.59481363333333,134.38556213333334,48.0,56.0
547,134.33039363333333,134.49957703333334,53.0,77.0
548,134.47750963333334,134.57681293333334,41.0,82.0
549,133.88904563333335,134.67856816666668,56.0,99.0
550,133.88904563333335,134.7766455,60.0,89.0
551,135.06597363333333,135.51099953333335,56.0,107.0
552,134.77174163333333,135.53674483333333,41.0,85.0
553,135.06597363333333,135.56616803333335,60.0,93.0
554,135.36020563333335,135.60907686666667,53.0,72.0
555,135.65443763333334,136.01119393333335,56.0,100.0
556,135.65443763333334,136.0124199,41.0,90.0
557,135.65443763333334,136.03203536666666,53.0,90.0
558,135.65443763333334,136.04429503333336,60.0,82.0
559,138.30252563333335,138.6678637,58.0,78.0
560,138.00829363333335,139.15825036666666,46.0,88.0
561,139.18522163333336,139.3151741,46.0,72.0
562,139.03810563333334,139.3666647,61.0,66.0
563,138.59675763333334,139.38260226666668,65.0,55.0
564,139.47945363333335,140.28981760000002,46.0,95.0
565,139.77368563333334,140.35847173333335,65.0,69.0
566,140.06791763333334,140.3927988,58.0,81.0
567,140.36214963333333,141.46184173333333,48.0,88.0
568,141.53907763333333,141.65186656666668,48.0,85.0
569,140.65638163333335,141.6837417,55.0,45.0
570,141.39196163333335,141.90196376666668,60.0,85.0
571,140.95061363333335,141.9338389,63.0,100.0
572,142.12754163333335,142.6730968,63.0,107.0
573,141.83330963333333,142.69026033333336,48.0,95.0
574,142.12754163333335,142.69761613333336,60.0,95.0
575,142.42177363333334,142.74052496666667,55.0,77.0
576,142.71600563333334,143.76665906666668,41.0,72.0
577,143.01023763333333,143.90396733333336,48.0,63.0
578,143.89293363333334,144.00572256666666,41.0,81.0
579,143.74581763333333,144.01307836666666,53.0,86.0
580,143.30446963333335,144.18961756666667,56.0,89.0
581,143.30446963333335,144.23007446666668,60.0,88.0
582,144.18716563333334,144.53166226666667,41.0,92.0
583,144.48139763333333,145.03553456666668,56.0,96.0
584,144.77562963333335,145.04411633333333,53.0,77.0
585,144.48139763333333,145.04656826666667,60.0,82.0
586,145.36409363333334,146.10212556666667,51.0,63.0
587,145.06986163333335,146.12541893333335,44.0,97.0
588,145.65832563333333,146.18671726666668,60.0,75.0
589,146.09967363333334,146.27866476666668,56.0,95.0
590,145.65832563333333,146.3105399,63.0,93.0
591,146.24678963333335,146.3693863,44.0,90.0
592,146.54102163333334,147.3047988666667,44.0,93.0
593,147.12948563333333,147.40655410000002,56.0,72.0
594,146.83525363333334,147.42371763333335,60.0,95.0
595,146.83525363333334,147.45559276666668,63.0,93.0
596,147.71794963333335,148.05509046666668,55.0,40.0
597,147.42371763333335,148.51973183333334,48.0,81.0
598,148.01218163333334,148.5945158,63.0,93.0
599,148.01218163333334,148.62761690000002,60.0,88.0
600,148.45352963333335,148.65826606666667,55.0,83.0
601,148.60064563333333,148.7232423,48.0,82.0
602,148.89487763333335,149.2896389,48.0,88.0
603,149.18910963333335,149.6647847,60.0,90.0
604,149.18910963333335,149.67827033333333,63.0,97.0
605,149.48334163333334,149.68930403333334,55.0,85.0
606,149.77757363333333,150.38074923333335,46.0,89.0
607,150.07180563333335,150.44082160000002,58.0,78.0
608,150.36603763333335,150.8748138,65.0,68.0
609,150.36603763333335,150.89933313333333,61.0,69.0
610,150.80738563333335,150.95327566666668,58.0,92.0
611,150.95450163333334,151.1065215,39.0,96.0
612,151.24873363333333,151.60916783333334,39.0,63.0
613,151.54296563333335,152.02599650000002,55.0,76.0
614,151.83719763333335,152.06400146666667,51.0,72.0
615,151.54296563333335,152.0738092,58.0,83.0
616,152.13142963333334,153.03619303333335,41.0,72.0
617,152.42566163333333,153.20169853333334,48.0,47.0
618,152.71989363333336,153.28996813333333,56.0,83.0
619,153.16124163333333,153.30713166666666,53.0,89.0
620,152.71989363333336,153.38436756666667,60.0,73.0
621,153.30835763333334,153.4162427,41.0,79.0
622,153.60258963333334,154.38598233333335,41.0,81.0
623,153.89682163333333,154.45218453333334,60.0,95.0
624,154.48528563333335,154.75990216666668,53.0,99.0
625,154.19105363333335,154.76112813333333,56.0,90.0
626,154.48528563333335,154.8003590666667,60.0,76.0
627,154.48528563333335,154.8212005,41.0,88.0
628,156.83914163333336,157.91676633333336,46.0,90.0
629,158.01606963333333,158.14479613333333,46.0,83.0
630,157.42760563333334,158.20364253333335,65.0,71.0
631,157.42760563333334,158.25022926666668,61.0,74.0
632,157.86895363333335,158.2563591,58.0,90.0
633,158.31030163333335,159.08266063333335,46.0,96.0
634,158.60453363333335,159.16234846666669,65.0,59.0
635,158.60453363333335,159.18564183333334,61.0,64.0
636,158.89876563333334,159.1979015,58.0,88.0
637,159.48722963333336,159.84275996666668,55.0,82.0
638,159.19299763333333,160.27920410000002,48.0,72.0
639,159.78146163333335,160.39934883333333,60.0,78.0
640,159.78146163333335,160.39934883333333,63.0,83.0
641,160.22280963333336,160.4116085,55.0,81.0
642,160.36992563333334,160.48761843333335,48.0,76.0
643,160.66415763333333,161.2317802,48.0,89.0
644,160.95838963333335,161.51007463333335,63.0,76.0
645,160.95838963333335,161.55666136666667,60.0,76.0
646,161.25262163333335,161.59344036666667,55.0,79.0
647,161.54685363333334,162.54233856666667,41.0,77.0
648,161.84108563333334,162.68209876666668,48.0,69.0
649,162.72378163333335,162.82676283333333,41.0,81.0
650,162.57666563333333,162.8537341,53.0,83.0
651,162.13531763333333,162.93219596666668,60.0,78.0
652,162.13531763333333,162.94077773333333,56.0,93.0
653,163.31224563333333,163.62731906666667,56.0,107.0
654,163.01801363333334,163.63590083333335,41.0,85.0
655,163.60647763333336,163.81856986666668,53.0,97.0
656,163.31224563333333,163.8725124,60.0,93.0
657,163.75359363333334,163.87864223333335,56.0,83.0
658,164.19494163333334,164.51859683333333,56.0,89.0
659,163.90070963333335,164.97588240000002,44.0,89.0
660,164.48917363333334,165.0310509,60.0,66.0
661,164.48917363333334,165.12912823333335,63.0,73.0
662,164.93052163333334,165.16713320000002,56.0,95.0
663,165.07763763333335,165.18307076666667,44.0,89.0
664,165.37186963333335,166.16139216666667,44.0,88.0
665,165.96033363333333,166.19204133333335,56.0,77.0
666,165.66610163333334,166.21043083333333,63.0,90.0
667,165.66610163333334,166.22391646666668,60.0,86.0
668,166.54879763333335,166.93252520000001,55.0,68.0
669,166.25456563333336,167.3187047,48.0,79.0
670,166.84302963333334,167.3714212666667,60.0,90.0
671,166.84302963333334,167.37509916666667,63.0,92.0
672,167.28437763333335,167.4327196,55.0,81.0
673,167.43149363333333,167.5540903,48.0,73.0
674,167.72572563333335,168.34606476666667,48.0,83.0
675,168.01995763333335,168.55202716666668,60.0,82.0
676,168.01995763333335,168.5630608666667,63.0,89.0
677,168.31418963333334,168.61209953333335,55.0,69.0
678,168.90265363333333,169.24715026666667,58.0,88.0
679,168.60842163333334,169.46659830000002,46.0,97.0
680,169.19688563333335,169.67869053333334,65.0,65.0
681,169.19688563333335,169.68482036666668,61.0,70.0
682,169.63823363333336,169.77308996666667,58.0,64.0
683,169.78534963333334,169.92020596666669,39.0,92.0
684,170.07958163333333,170.49518433333336,39.0,88.0
685,170.37381363333336,170.88871963333335,55.0,82.0
686,170.66804563333335,170.93285443333335,51.0,62.0
687,170.37381363333336,170.95492183333334,58.0,88.0
688,171.25650963333334,171.5556455,53.0,74.0
689,170.96227763333334,172.02028686666668,41.0,82.0
690,171.55074163333333,172.09874873333334,56.0,93.0
691,171.99208963333334,172.1808885,53.0,88.0
692,171.55074163333333,172.18701833333336,60.0,90.0
693,172.13920563333335,172.2691581,41.0,92.0
694,172.43343763333334,173.15430603333334,41.0,97.0
695,173.02190163333336,173.25238336666666,53.0,115.0
696,172.72766963333333,173.2744507666667,56.0,115.0
697,172.72766963333333,173.2965181666667,60.0,115.0
698,173.31613363333335,174.37659480000002,41.0,115.0
699,173.90459763333334,174.40479203333334,53.0,96.0
700,173.61036563333334,174.44034506666668,48.0,107.0
701,174.49306163333335,174.63282183333334,41.0,96.0
702,174.34594563333334,174.84123616666668,60.0,112.0
703,173.90459763333334,174.88659693333335,65.0,100.0
704,173.90459763333334,174.88904886666668,68.0,122.0
705,174.78729363333335,175.0717179,41.0,96.0
706,175.08152563333334,175.29729576666668,65.0,112.0
707,175.08152563333334,175.30097366666666,68.0,127.0
708,175.37575763333334,175.43460403333336,65.0,55.0
709,175.37575763333334,175.45421950000002,68.0,66.0
710,175.22864163333335,175.5277775,41.0,99.0
711,175.37575763333334,175.75335536666668,60.0,97.0
712,175.96422163333335,176.33078566666669,60.0,93.0
713,176.25845363333335,176.59191656666667,65.0,102.0
714,176.25845363333335,176.59191656666667,68.0,127.0
715,175.66998963333333,176.73535466666667,41.0,127.0
716,176.84691763333333,176.95970656666668,41.0,97.0
717,176.69980163333335,177.00384136666668,60.0,99.0
718,176.69980163333335,177.03326456666667,65.0,100.0
719,176.69980163333335,177.0369424666667,68.0,112.0
720,177.14114963333336,177.47216063333335,41.0,99.0
721,177.43538163333335,177.6499258,65.0,117.0
722,177.58249763333333,177.85466223333336,48.0,93.0
723,177.72961363333334,177.98951856666667,60.0,112.0
724,177.87672963333335,178.01036000000002,65.0,65.0
725,177.43538163333335,178.06675446666668,68.0,127.0
726,178.31807763333333,178.50932843333334,61.0,93.0
727,178.61230963333335,178.93719080000002,65.0,107.0
728,178.61230963333335,178.9555803,68.0,102.0
729,178.02384563333334,179.0855327666667,49.0,99.0
730,179.05365763333333,179.13211950000002,68.0,33.0
731,179.05365763333333,179.1848360666667,61.0,122.0
732,179.20077363333334,179.30130290000002,49.0,97.0
733,179.78923763333336,180.15334973333336,65.0,112.0
734,179.78923763333336,180.18767680000002,68.0,112.0
735,180.08346963333335,180.29310993333334,61.0,102.0
736,179.49500563333334,180.31149943333335,49.0,102.0
737,180.37770163333334,180.67806346666669,46.0,102.0
738,180.96616563333333,181.23587830000002,55.0,86.0
739,180.96616563333333,181.2689794,51.0,96.0
740,180.96616563333333,181.3131142,58.0,86.0
741,180.96616563333333,181.3903501,39.0,112.0
742,181.84886163333334,182.06585773333333,56.0,107.0
743,181.55462963333335,182.20684390000002,44.0,93.0
744,182.14309363333334,182.36008973333335,60.0,96.0
745,182.14309363333334,182.3625416666667,63.0,107.0
746,182.43732563333333,182.61999466666668,56.0,97.0
747,182.29020963333335,182.6702593,44.0,93.0
748,182.58444163333334,182.68006703333336,63.0,23.0
749,182.58444163333334,182.72420183333335,60.0,69.0
750,183.02578963333335,183.37886803333333,53.0,68.0
751,182.73155763333335,183.79201880000002,46.0,102.0
752,183.32002163333334,183.86802873333335,61.0,100.0
753,183.32002163333334,183.87415856666667,58.0,95.0
754,183.90848563333336,184.05069776666667,46.0,111.0
755,183.76136963333335,184.33757396666667,53.0,100.0
756,184.20271763333335,184.50430543333334,46.0,110.0
757,184.64406563333335,184.7678882666667,46.0,109.0
758,184.49694963333334,184.80834516666667,58.0,109.0
759,184.79118163333334,185.0167595,53.0,109.0
760,184.49694963333334,185.06334623333333,61.0,109.0
761,184.93829763333335,185.08173573333335,58.0,111.0
762,185.37964563333335,185.71188260000002,51.0,99.0
763,185.67387763333335,185.9803693,63.0,100.0
764,185.82099363333336,185.98404720000002,51.0,28.0
765,185.67387763333335,185.99753283333334,55.0,83.0
766,185.67387763333335,186.00121073333335,58.0,117.0
767,185.08541363333333,186.06863890000002,39.0,117.0
768,186.11522563333335,186.2304665,58.0,107.0
769,186.11522563333335,186.25130793333335,55.0,86.0
770,186.11522563333335,186.2525339,63.0,99.0
771,186.26234163333334,186.32854383333336,39.0,77.0
772,186.26234163333334,186.3457073666667,51.0,79.0
773,186.55657363333336,186.97095036666667,51.0,90.0
774,186.55657363333336,186.99669566666668,39.0,92.0
775,186.85080563333335,187.3080912,58.0,112.0
776,186.85080563333335,187.35345196666668,63.0,112.0
777,187.14503763333335,187.3816492,55.0,93.0
778,187.73350163333333,187.91862260000002,49.0,83.0
779,188.02773363333336,188.32932143333335,56.0,95.0
780,188.02773363333336,188.33299933333333,53.0,93.0
781,188.46908163333333,188.5083125666667,56.0,38.0
782,187.43926963333334,188.52792803333335,37.0,90.0
783,188.46908163333333,188.5806446,49.0,99.0
784,188.61619763333334,188.74492413333334,39.0,89.0
785,188.91042963333334,189.29293123333335,39.0,102.0
786,189.20466163333336,189.73795713333334,55.0,112.0
787,189.20466163333336,189.7502168,58.0,100.0
788,189.49889363333335,189.75634663333335,51.0,88.0
789,190.08735763333334,190.31538743333334,55.0,66.0
790,189.79312563333335,190.87688016666667,48.0,97.0
791,190.38158963333333,190.88301,63.0,107.0
792,190.38158963333333,190.89159176666666,60.0,99.0
793,190.82293763333334,191.02154423333334,55.0,86.0
794,190.97005363333335,191.08406853333335,41.0,86.0
795,191.26428563333334,191.99373580000002,41.0,85.0
796,191.55851763333334,192.09549103333333,56.0,112.0
797,191.85274963333333,192.10284683333333,53.0,90.0
798,191.55851763333334,192.18008273333334,60.0,92.0
799,192.14698163333335,193.15963010000002,41.0,89.0
800,192.44121363333335,193.24422180000002,48.0,72.0
801,193.17679363333335,193.32023173333334,53.0,97.0
802,192.73544563333334,193.33862123333336,56.0,102.0
803,192.73544563333334,193.34475106666667,60.0,90.0
804,193.32390963333336,193.43547260000003,41.0,88.0
805,193.61814163333335,193.862109,41.0,96.0
806,193.91237363333335,194.03251836666666,60.0,100.0
807,193.91237363333335,194.0472299666667,56.0,122.0
808,194.05948963333336,194.40153433333336,41.0,96.0
809,194.20660563333334,194.47754426666668,56.0,112.0
810,194.35372163333335,194.51432326666668,53.0,83.0
811,194.20660563333334,194.5314868,60.0,96.0
812,194.79506963333336,194.94095966666669,53.0,44.0
813,194.50083763333333,195.59562586666667,41.0,93.0
814,195.08930163333335,195.66918386666669,56.0,117.0
815,195.08930163333335,195.69370320000002,60.0,97.0
816,195.67776563333334,195.79545843333335,41.0,92.0
817,195.53064963333335,195.848175,53.0,99.0
818,195.97199763333336,196.2600998,41.0,99.0
819,196.26622963333335,196.50161523333335,56.0,112.0
820,196.41334563333334,196.57149533333333,41.0,97.0
821,196.56046163333335,196.76519806666667,53.0,112.0
822,196.26622963333335,196.78726546666667,60.0,96.0
823,196.70757763333336,196.86327540000002,56.0,96.0
824,196.85469363333334,197.87837580000001,37.0,122.0
825,197.14892563333333,197.8967653,49.0,89.0
826,197.88450563333333,198.0365255,53.0,73.0
827,197.44315763333336,198.04633323333334,56.0,112.0
828,197.44315763333336,198.06104483333334,61.0,107.0
829,198.03162163333334,198.1321509,37.0,112.0
830,198.32585363333334,198.88857233333334,37.0,93.0
831,198.62008563333333,198.9854237,56.0,107.0
832,198.76720163333334,198.99155353333336,49.0,90.0
833,198.91431763333335,199.1447993666667,53.0,93.0
834,198.62008563333333,199.1521551666667,61.0,107.0
835,199.20854963333335,199.73816723333334,46.0,107.0
836,199.79701363333334,199.93432190000001,55.0,96.0
837,199.79701363333334,199.97477880000002,51.0,95.0
838,199.79701363333334,199.99562023333334,58.0,73.0
839,199.79701363333334,200.3021119,39.0,88.0
840,200.38547763333335,200.81088806666668,63.0,97.0
841,200.38547763333335,200.8366333666667,60.0,100.0
842,200.38547763333335,200.86850850000002,56.0,102.0
843,200.38547763333335,201.00949466666668,44.0,88.0
844,200.97394163333334,201.14557696666668,56.0,81.0
845,200.97394163333334,201.1860338666667,60.0,102.0
846,200.97394163333334,201.23752446666668,63.0,102.0
847,201.26817363333333,201.3368277666667,60.0,41.0
848,201.12105763333335,201.49129956666667,44.0,89.0
849,201.26817363333333,201.49988133333335,63.0,27.0
850,201.41528963333334,201.50478520000001,60.0,36.0
851,201.26817363333333,201.5280785666667,56.0,88.0
852,202.15086963333334,202.27469226666668,53.0,55.0
853,201.56240563333336,202.64370823333334,46.0,117.0
854,202.73933363333336,202.85334853333333,46.0,86.0
855,202.59221763333335,202.8619303,53.0,86.0
856,202.15086963333334,202.87909383333334,61.0,97.0
857,202.15086963333334,202.90974300000002,58.0,97.0
858,203.03356563333335,203.35967276666668,46.0,102.0
859,203.47491363333336,203.64041913333335,46.0,107.0
860,203.32779763333335,203.72378486666668,58.0,100.0
861,203.62202963333334,203.84392960000002,53.0,97.0
862,203.32779763333335,203.88806440000002,61.0,100.0
863,203.76914563333335,203.94445886666668,58.0,65.0
864,204.21049363333336,204.932588,51.0,86.0
865,203.91626163333333,204.93749186666668,39.0,100.0
866,204.94607363333336,205.10667526666668,55.0,70.0
867,204.50472563333335,205.17287746666668,58.0,102.0
868,204.50472563333335,205.18513713333334,63.0,96.0
869,205.09318963333334,205.20107470000002,39.0,102.0
870,205.68165363333335,206.1180977666667,51.0,92.0
871,205.97588563333335,206.13035743333336,58.0,100.0
872,205.38742163333333,206.1548767666667,39.0,96.0
873,205.97588563333335,206.18675190000002,63.0,99.0
874,205.97588563333335,206.29341100000002,55.0,81.0
875,206.56434963333334,206.72862916666668,49.0,63.0
876,207.15281363333335,207.28399206666668,49.0,82.0
877,206.27011763333334,207.29870366666668,37.0,89.0
878,206.85858163333336,207.30115560000002,53.0,93.0
879,206.85858163333336,207.37348763333335,56.0,99.0
880,207.44704563333335,207.58680583333336,39.0,96.0
881,207.74127763333334,208.3751024,39.0,97.0
882,208.03550963333333,208.4302709,55.0,96.0
883,208.03550963333333,208.4535642666667,58.0,89.0
884,208.32974163333336,208.4891173,51.0,85.0
885,208.77108963333333,209.0224128,48.0,68.0
886,209.50666963333336,209.62068453333333,48.0,79.0
887,208.62397363333335,209.64642983333334,36.0,66.0
888,209.21243763333334,209.69056463333334,51.0,97.0
889,209.21243763333334,209.71263203333334,55.0,92.0
890,209.80090163333335,209.92840216666667,41.0,96.0
891,210.09513363333335,210.59777996666668,41.0,97.0
892,210.68359763333333,210.95208433333335,53.0,82.0
893,210.38936563333334,210.9569882,56.0,117.0
894,210.38936563333334,210.9569882,60.0,95.0
895,210.97782963333336,212.03829080000003,41.0,115.0
896,211.56629363333334,212.06648803333334,53.0,96.0
897,211.27206163333335,212.1020410666667,48.0,107.0
898,212.15475763333333,212.29451783333334,41.0,96.0
899,212.00764163333335,212.50293216666668,60.0,112.0
900,211.56629363333334,212.54829293333336,65.0,100.0
901,211.56629363333334,212.5507448666667,68.0,122.0
902,212.44898963333335,212.73341390000002,41.0,96.0
903,212.74322163333335,212.95899176666668,65.0,112.0
904,212.74322163333335,212.96266966666667,68.0,127.0
905,213.03745363333334,213.09630003333334,65.0,55.0
906,213.03745363333334,213.1159155,68.0,66.0
907,212.89033763333336,213.18947350000002,41.0,99.0
908,213.03745363333334,213.4150513666667,60.0,97.0
909,213.62591763333336,213.9924816666667,60.0,93.0
910,213.92014963333335,214.25361256666667,65.0,102.0
911,213.92014963333335,214.25361256666667,68.0,127.0
912,213.33168563333334,214.39705066666667,41.0,127.0
913,214.50861363333334,214.6214025666667,41.0,97.0
914,214.36149763333336,214.66553736666668,60.0,99.0
915,214.36149763333336,214.69496056666668,65.0,100.0
916,214.36149763333336,214.6986384666667,68.0,112.0
917,214.80284563333333,215.13385663333335,41.0,99.0
918,215.09707763333336,215.3116218,65.0,117.0
919,215.24419363333334,215.51635823333334,48.0,93.0
920,215.39130963333335,215.65121456666668,60.0,112.0
921,215.53842563333333,215.67205600000003,65.0,65.0
922,215.09707763333336,215.7284504666667,68.0,127.0
923,215.97977363333334,216.17102443333334,61.0,93.0
924,216.27400563333336,216.5988868,65.0,107.0
925,216.27400563333336,216.61727630000001,68.0,102.0
926,215.68554163333334,216.74722876666667,49.0,99.0
927,216.71535363333334,216.79381550000002,68.0,33.0
928,216.71535363333334,216.84653206666667,61.0,122.0
929,216.86246963333335,216.9629989,49.0,97.0
930,217.45093363333334,217.81504573333333,65.0,112.0
931,217.45093363333334,217.84937280000003,68.0,112.0
932,217.74516563333336,217.95480593333335,61.0,102.0
933,217.15670163333334,217.97319543333336,49.0,102.0
934,218.03939763333335,218.3397594666667,46.0,102.0
935,218.62786163333334,218.8975743,55.0,86.0
936,218.62786163333334,218.9306754,51.0,96.0
937,218.62786163333334,218.9748102,58.0,86.0
938,218.62786163333334,219.0520461,39.0,112.0
939,219.51055763333335,219.72755373333334,56.0,107.0
940,219.21632563333335,219.8685399,44.0,93.0
941,219.80478963333334,220.02178573333336,60.0,96.0
942,219.80478963333334,220.0242376666667,63.0,107.0
943,220.09902163333334,220.2816906666667,56.0,97.0
944,219.95190563333335,220.3319553,44.0,93.0
945,220.24613763333335,220.34176303333334,63.0,23.0
946,220.24613763333335,220.38589783333336,60.0,69.0
947,220.68748563333335,221.04056403333334,53.0,68.0
948,220.39325363333336,221.4537148,46.0,102.0
949,220.98171763333335,221.52972473333335,61.0,100.0
950,220.98171763333335,221.53585456666667,58.0,95.0
951,221.57018163333333,221.71239376666668,46.0,111.0
952,221.42306563333335,221.99926996666667,53.0,100.0
953,221.86441363333336,222.16600143333335,46.0,110.0
954,222.30576163333333,222.4295842666667,46.0,109.0
955,222.15864563333335,222.47004116666668,58.0,109.0
956,222.45287763333334,222.6784555,53.0,109.0
957,222.15864563333335,222.72504223333334,61.0,109.0
958,222.59999363333336,222.74343173333335,58.0,111.0
959,223.04134163333336,223.3735786,51.0,99.0
960,223.33557363333335,223.6420653,63.0,100.0
961,223.48268963333334,223.64574320000003,51.0,28.0
962,223.33557363333335,223.65922883333334,55.0,83.0
963,223.33557363333335,223.66290673333336,58.0,117.0
964,222.74710963333334,223.7303349,39.0,117.0
965,223.77692163333336,223.8921625,58.0,107.0
966,223.77692163333336,223.91300393333336,55.0,86.0
967,223.77692163333336,223.9142299,63.0,99.0
968,223.92403763333334,223.99023983333333,39.0,77.0
969,223.92403763333334,224.0074033666667,51.0,79.0
970,224.21826963333334,224.63264636666668,51.0,90.0
971,224.21826963333334,224.6583916666667,39.0,92.0
972,224.51250163333336,224.9697872,58.0,112.0
973,224.51250163333336,225.0151479666667,63.0,112.0
974,224.80673363333335,225.0433452,55.0,93.0
975,225.39519763333334,225.58031860000003,49.0,83.0
976,225.68942963333333,225.99101743333335,56.0,95.0
977,225.68942963333333,225.99469533333334,53.0,93.0
978,226.13077763333334,226.17000856666667,56.0,38.0
979,225.10096563333335,226.18962403333336,37.0,90.0
980,226.13077763333334,226.2423406,49.0,99.0
981,226.27789363333335,226.40662013333335,39.0,89.0
982,226.57212563333334,226.95462723333335,39.0,102.0
983,226.86635763333334,227.39965313333335,55.0,112.0
984,226.86635763333334,227.4119128,58.0,100.0
985,227.16058963333336,227.41804263333336,51.0,88.0
986,227.74905363333335,227.97708343333335,55.0,66.0
987,227.45482163333335,228.53857616666667,48.0,97.0
988,228.04328563333334,228.54470600000002,63.0,107.0
989,228.04328563333334,228.55328776666667,60.0,99.0
990,228.48463363333335,228.68324023333335,55.0,86.0
991,228.63174963333336,228.74576453333336,41.0,86.0
992,228.92598163333335,229.6554318,41.0,85.0
993,229.22021363333334,229.75718703333334,56.0,112.0
994,229.51444563333334,229.76454283333334,53.0,90.0
995,229.22021363333334,229.84177873333334,60.0,92.0
996,229.80867763333336,230.82132610000002,41.0,89.0
997,230.10290963333335,230.90591780000003,48.0,72.0
998,230.83848963333335,230.98192773333335,53.0,97.0
999,230.39714163333335,231.00031723333333,56.0,102.0
1000,230.39714163333335,231.00644706666668,60.0,90.0
1001,230.98560563333334,231.0971686,41.0,88.0
1002,231.27983763333336,231.523805,41.0,96.0
1003,231.57406963333335,231.69421436666667,60.0,100.0
1004,231.57406963333335,231.70892596666667,56.0,122.0
1005,231.72118563333333,232.06323033333334,41.0,96.0
1006,231.86830163333335,232.1392402666667,56.0,112.0
1007,232.01541763333336,232.17601926666669,53.0,83.0
1008,231.86830163333335,232.19318280000002,60.0,96.0
1009,232.45676563333336,232.6026556666667,53.0,44.0
1010,232.16253363333334,233.25732186666667,41.0,93.0
1011,232.75099763333336,233.3308798666667,56.0,117.0
1012,232.75099763333336,233.35539920000002,60.0,97.0
1013,233.33946163333334,233.45715443333336,41.0,92.0
1014,233.19234563333336,233.509871,53.0,99.0
1015,233.63369363333334,233.9217958,41.0,99.0
1016,233.92792563333336,234.16331123333336,56.0,112.0
1017,234.07504163333334,234.23319133333334,41.0,97.0
1018,234.22215763333335,234.42689406666668,53.0,112.0
1019,233.92792563333336,234.44896146666667,60.0,96.0
1020,234.36927363333334,234.52497140000003,56.0,96.0
1021,234.51638963333335,235.54007180000002,37.0,122.0
1022,234.81062163333334,235.5584613,49.0,89.0
1023,235.54620163333334,235.69822150000002,53.0,73.0
1024,235.10485363333333,235.70802923333335,56.0,112.0
1025,235.10485363333333,235.72274083333335,61.0,107.0
1026,235.69331763333335,235.7938469,37.0,112.0
1027,235.98754963333334,236.55026833333335,37.0,93.0
1028,236.28178163333334,236.64711970000002,56.0,107.0
1029,236.42889763333335,236.65324953333334,49.0,90.0
1030,236.57601363333336,236.8064953666667,53.0,93.0
1031,236.28178163333334,236.8138511666667,61.0,107.0
1032,236.87024563333335,237.39986323333335,46.0,107.0
1033,237.45870963333334,237.59601790000002,55.0,96.0
1034,237.45870963333334,237.6364748,51.0,95.0
1035,237.45870963333334,237.65731623333335,58.0,73.0
1036,237.45870963333334,237.9638079,39.0,88.0
1037,238.04717363333336,238.47258406666668,63.0,97.0
1038,238.04717363333336,238.4983293666667,60.0,100.0
1039,238.04717363333336,238.53020450000002,56.0,102.0
1040,238.04717363333336,238.6711906666667,44.0,88.0
1041,238.63563763333335,238.8072729666667,56.0,81.0
1042,238.63563763333335,238.84772986666667,60.0,102.0
1043,238.63563763333335,238.8992204666667,63.0,102.0
1044,238.92986963333334,238.9985237666667,60.0,41.0
1045,238.78275363333336,239.15299556666668,44.0,89.0
1046,238.92986963333334,239.16157733333335,63.0,27.0
1047,239.07698563333335,239.16648120000002,60.0,36.0
1048,238.92986963333334,239.18977456666667,56.0,88.0
1049,239.81256563333335,239.93638826666668,53.0,55.0
1050,239.22410163333336,240.30540423333335,46.0,117.0
1051,240.40102963333334,240.51504453333334,46.0,86.0
1052,240.25391363333335,240.52362630000002,53.0,86.0
1053,239.81256563333335,240.54078983333335,61.0,97.0
1054,239.81256563333335,240.57143900000003,58.0,97.0
1055,240.69526163333336,241.02136876666668,46.0,102.0
1056,241.13660963333334,241.30211513333336,46.0,107.0
1057,240.98949363333335,241.38548086666668,58.0,100.0
1058,241.28372563333335,241.5056256,53.0,97.0
1059,240.98949363333335,241.54976040000003,61.0,100.0
1060,241.43084163333336,241.60615486666669,58.0,65.0
1061,241.87218963333333,242.59428400000002,51.0,86.0
1062,241.57795763333334,242.59918786666668,39.0,100.0
1063,242.60776963333336,242.7683712666667,55.0,70.0
1064,242.16642163333336,242.83457346666668,58.0,102.0
1065,242.16642163333336,242.84683313333335,63.0,96.0
1066,242.75488563333334,242.86277070000003,39.0,102.0
1067,243.34334963333336,243.77979376666667,51.0,92.0
1068,243.63758163333335,243.79205343333334,58.0,100.0
1069,243.04911763333334,243.8165727666667,39.0,96.0
1070,243.63758163333335,243.84844790000002,63.0,99.0
1071,243.63758163333335,243.95510700000003,55.0,81.0
1072,244.22604563333334,244.39032516666668,49.0,63.0
1073,244.81450963333336,244.9456880666667,49.0,82.0
1074,243.93181363333335,244.9603996666667,37.0,89.0
1075,244.52027763333334,244.96285160000002,53.0,93.0
1076,244.52027763333334,245.03518363333336,56.0,99.0
1077,245.10874163333335,245.24850183333334,39.0,96.0
1078,245.40297363333335,246.0367984,39.0,97.0
1079,245.69720563333334,246.09196690000002,55.0,96.0
1080,245.69720563333334,246.1152602666667,58.0,89.0
1081,245.99143763333336,246.1508133,51.0,85.0
1082,246.43278563333334,246.68410880000002,48.0,68.0
1083,247.16836563333334,247.28238053333334,48.0,79.0
1084,246.28566963333336,247.30812583333335,36.0,66.0
1085,246.87413363333334,247.35226063333334,51.0,97.0
1086,246.87413363333334,247.37432803333334,55.0,92.0
1087,247.46259763333336,247.59009816666668,41.0,96.0
1088,247.75682963333335,248.25947596666668,41.0,97.0
1089,248.34529363333334,248.61378033333335,53.0,82.0
1090,248.05106163333335,248.65301126666668,56.0,117.0
1091,248.05106163333335,248.6640449666667,60.0,95.0
1092,248.63952563333334,249.48421666666667,41.0,82.0
1093,249.22798963333335,249.79806413333336,56.0,100.0
1094,249.52222163333334,249.81890556666667,53.0,68.0
1095,249.22798963333335,249.82013153333335,60.0,89.0
1096,250.11068563333336,250.53241816666667,53.0,75.0
1097,250.40491763333335,250.77638553333335,56.0,67.0
1098,250.40491763333335,250.83523193333335,60.0,73.0
1099,249.81645363333334,250.86833303333336,41.0,74.0
1100,251.28761363333334,251.69953843333334,53.0,42.0
1101,251.58184563333336,252.61165763333335,61.0,72.0
1102,251.87607763333335,252.88627416666668,53.0,55.0
1103,250.99338163333334,253.1179818666667,46.0,89.0
1104,252.46454163333334,253.2822614,58.0,45.0
1105,253.05300563333336,253.2896172,53.0,63.0
1106,252.75877363333336,253.3055547666667,61.0,93.0
1107,253.64146963333334,254.5805601,51.0,52.0
1108,253.93570163333334,254.91279706666668,63.0,93.0
1109,253.34723763333335,255.24993790000002,39.0,86.0
1110,254.81839763333335,255.29897656666668,51.0,53.0
1111,254.22993363333336,255.6324395,58.0,83.0
1112,255.11262963333334,255.63856933333335,63.0,90.0
1113,255.40686163333334,255.75871406666667,55.0,71.0
1114,255.99532563333335,256.89641113333334,48.0,43.0
1115,256.58378963333337,257.27891273333336,56.0,72.0
1116,255.70109363333336,257.8477612666667,41.0,67.0
1117,257.17225363333336,258.07701703333333,48.0,58.0
1118,257.4664856333334,258.14321923333335,56.0,85.0
1119,257.76071763333334,258.14689713333337,53.0,73.0
1120,256.28955763333335,258.26826783333337,60.0,88.0
1121,258.9376456333334,259.1129588666667,56.0,112.0
1122,258.64341363333335,259.24658923333334,60.0,95.0
1123,258.34918163333333,259.2845942,48.0,78.0
1124,258.05494963333336,259.8620245,41.0,74.0
1125,259.52610963333336,259.917193,48.0,72.0
1126,259.8203416333333,260.4247432,65.0,95.0
1127,259.8203416333333,260.4296470666667,68.0,107.0
1128,260.11457363333335,260.4443586666667,60.0,60.0
1129,260.70303763333334,261.572248,58.0,76.0
1130,260.99726963333336,261.8211192333334,61.0,88.0
1131,261.2915016333333,262.02708163333335,65.0,78.0
1132,261.87996563333337,262.1079954333334,58.0,72.0
1133,260.4088056333334,262.1435484666667,46.0,97.0
1134,262.46842963333336,262.6461948,65.0,64.0
1135,262.17419763333334,262.72588263333336,61.0,99.0
1136,263.05689363333335,263.88932500000004,51.0,76.0
1137,263.35112563333337,264.3797116666667,55.0,68.0
1138,262.7626616333333,264.4446879,39.0,95.0
1139,264.2338216333334,264.51089010000004,51.0,65.0
1140,263.64535763333333,265.1079358666667,63.0,99.0
1141,264.52805363333334,265.20356126666667,58.0,96.0
1142,264.82228563333337,265.3580330666667,55.0,63.0
1143,265.41074963333335,265.8802948666667,48.0,72.0
1144,266.29344563333336,266.55825443333333,48.0,43.0
1145,266.29344563333336,266.8868135,56.0,86.0
1146,266.88190963333335,267.3894598333334,55.0,39.0
1147,266.5876776333333,267.40049353333336,48.0,42.0
1148,265.11651763333333,267.4397244666667,41.0,77.0
1149,267.47037363333334,269.1904048666667,65.0,50.0
1150,267.47037363333334,269.1928568,68.0,58.0
1151,267.47037363333334,269.22228,72.0,60.0
1152,267.47037363333334,269.2664148,53.0,59.0
1153,267.47037363333334,269.5349015,41.0,68.0
1154,265.7049816333334,269.5716805,60.0,86.0
1155,270.3918522,270.7412527,65.0,62.0
1156,270.3918522,270.79274330000004,58.0,100.0
1157,270.3918522,270.79519523333335,61.0,95.0
1158,270.0976202,270.92882560000004,53.0,61.0
1159,269.80338820000003,270.94353720000004,46.0,97.0
1160,270.9803162,271.08574933333335,46.0,73.0
1161,270.8332002,271.10659076666667,65.0,50.0
1162,270.8332002,271.16543716666666,61.0,68.0
1163,270.8332002,271.20344213333334,58.0,79.0
1164,271.2745482,271.6460161,46.0,93.0
1165,271.5687802,272.1167873,65.0,76.0
1166,271.5687802,272.16582596666666,61.0,86.0
1167,271.8630122,272.1731817666667,58.0,79.0
1168,272.7457082,272.9516706,55.0,66.0
1169,272.15724420000004,273.1919600666667,39.0,96.0
1170,272.4514762,273.2238352,46.0,47.0
1171,273.18705620000003,273.3219125333334,55.0,83.0
1172,273.3341722,273.46167273333333,39.0,85.0
1173,272.7457082,273.69951026666666,58.0,96.0
1174,272.7457082,273.7313854,63.0,93.0
1175,273.62840420000003,274.077108,39.0,82.0
1176,274.2168682,274.4681913666667,55.0,92.0
1177,273.9226362,274.48412893333335,58.0,112.0
1178,273.9226362,274.51110020000004,63.0,100.0
1179,275.09956420000003,275.36927686666667,60.0,74.0
1180,274.51110020000004,275.58259506666667,44.0,97.0
1181,274.8053322,275.63531163333334,56.0,89.0
1182,275.6880282,275.77752376666666,44.0,107.0
1183,275.54091220000004,275.7848795666667,60.0,88.0
1184,276.2764922,276.57685403333335,56.0,112.0
1185,275.98226020000004,276.64305623333337,44.0,97.0
1186,275.09956420000003,276.86127830000004,68.0,90.0
1187,275.09956420000003,276.88579763333337,63.0,96.0
1188,276.57072420000003,276.90541310000003,60.0,102.0
1189,276.8649562,277.9646483,41.0,78.0
1190,277.1591882,277.9903936,48.0,48.0
1191,277.89476820000004,278.03330243333335,53.0,90.0
1192,278.0418842,278.1277018666667,41.0,75.0
1193,277.45342020000004,278.2441687,60.0,85.0
1194,277.45342020000004,278.2748178666667,56.0,97.0
1195,278.3361162,278.6867426666667,41.0,88.0
1196,278.6303482,279.13176856666666,56.0,107.0
1197,278.6303482,279.1354464666667,60.0,93.0
1198,278.92458020000004,279.1575138666667,53.0,86.0
1199,279.2188122,280.2817253,46.0,77.0
1200,280.2486242,280.38348053333334,53.0,70.0
1201,279.8072762,280.4742020666667,58.0,97.0
1202,279.8072762,280.5073031666667,61.0,72.0
1203,279.8072762,280.5281446,65.0,67.0
1204,280.39574020000003,280.5330484666667,46.0,93.0
1205,280.6899722,281.0626660666667,46.0,86.0
1206,280.9842042,281.1166086,58.0,76.0
1207,280.9842042,281.5285334,65.0,59.0
1208,280.9842042,281.55305273333335,61.0,86.0
1209,281.27843620000004,281.57144223333336,58.0,88.0
1210,282.1611322,282.44433050000004,55.0,79.0
1211,281.5726682,282.6331293666667,39.0,96.0
1212,281.86690020000003,282.6539708,51.0,72.0
1213,282.6024802,282.7459183,55.0,78.0
1214,282.1611322,282.7618558666667,58.0,93.0
1215,282.1611322,282.7692116666667,63.0,83.0
1216,282.74959620000004,282.85502933333333,39.0,97.0
1217,283.0438282,283.38832483333334,39.0,92.0
1218,283.33806020000003,283.8382546,63.0,100.0
1219,283.33806020000003,283.8676778,58.0,102.0
1220,283.6322922,283.9044568,55.0,93.0
1221,285.1034522,290.9304717666667,65.0,97.0
1222,285.1034522,290.93782756666667,68.0,95.0
1223,285.1034522,290.9415054666667,60.0,93.0
1224,285.1034522,290.96725076666667,53.0,96.0
1225,285.1034522,291.00525573333334,41.0,72.0
