,start,end,pitch,velocity
0,33.401041666666664,33.625,66.0,85.0
1,33.651041666666664,34.032291666666666,71.0,84.0
2,34.151041666666664,34.5375,71.0,87.0
3,34.651041666666664,35.053125,71.0,85.0
4,35.151041666666664,35.328125,73.0,81.0
5,35.401041666666664,35.563541666666666,74.0,85.0
6,35.651041666666664,35.838541666666664,73.0,90.0
7,35.901041666666664,36.09791666666666,71.0,85.0
8,36.151041666666664,36.49166666666667,69.0,85.0
9,36.651041666666664,37.015625,69.0,84.0
10,37.151041666666664,37.35104166666667,71.0,85.0
11,37.401041666666664,37.65208333333333,73.0,85.0
12,37.651041666666664,38.028125,71.0,85.0
13,38.151041666666664,38.534375,66.0,88.0
14,38.651041666666664,39.090625,66.0,85.0
15,39.401041666666664,39.651041666666664,64.0,87.0
16,39.651041666666664,41.151041666666664,66.0,86.0
17,41.651041666666664,42.015625,69.0,83.0
18,42.151041666666664,42.572916666666664,69.0,85.0
19,42.651041666666664,42.833333333333336,69.0,83.0
20,42.901041666666664,43.121875,66.0,82.0
21,43.151041666666664,43.375,64.0,88.0
22,43.401041666666664,43.60520833333333,66.0,78.0
23,43.651041666666664,44.041666666666664,69.0,82.0
24,44.151041666666664,44.33125,71.0,79.0
25,44.401041666666664,44.577083333333334,73.0,83.0
26,44.651041666666664,45.05416666666667,74.0,86.0
27,45.151041666666664,45.380208333333336,73.0,87.0
28,45.401041666666664,45.64270833333333,71.0,83.0
29,45.651041666666664,46.123958333333334,73.0,86.0
30,46.151041666666664,46.309375,69.0,78.0
31,46.401041666666664,46.55833333333333,69.0,82.0
32,46.651041666666664,46.822916666666664,69.0,83.0
33,46.901041666666664,47.06875,71.0,84.0
34,47.151041666666664,47.588541666666664,73.0,83.0
35,47.651041666666664,49.229166666666664,71.0,83.0
36,49.651041666666664,50.04270833333333,73.0,85.0
37,50.151041666666664,50.623958333333334,73.0,84.0
38,50.651041666666664,51.04895833333333,74.0,84.0
39,51.151041666666664,51.54270833333333,74.0,86.0
40,51.651041666666664,52.04479166666667,76.0,85.0
41,52.151041666666664,52.401041666666664,76.0,84.0
42,52.401041666666664,52.651041666666664,76.0,84.0
43,52.651041666666664,53.155208333333334,78.0,84.0
44,53.151041666666664,53.37083333333333,76.0,88.0
45,53.401041666666664,53.615625,78.0,84.0
46,53.651041666666664,54.01145833333333,81.0,84.0
47,54.151041666666664,54.545833333333334,81.0,84.0
48,54.651041666666664,55.321875,78.0,94.0
49,55.401041666666664,55.901041666666664,76.0,85.0
50,55.901041666666664,57.42916666666667,74.0,87.0
51,57.651041666666664,58.08229166666666,78.0,87.0
52,58.151041666666664,58.50625,74.0,89.0
53,58.651041666666664,59.036458333333336,76.0,83.0
54,59.151041666666664,59.557291666666664,73.0,89.0
55,59.651041666666664,59.828125,74.0,85.0
56,59.901041666666664,60.109375,76.0,79.0
57,60.151041666666664,60.40208333333333,74.0,88.0
58,60.401041666666664,60.661458333333336,73.0,81.0
59,60.651041666666664,61.06041666666667,71.0,84.0
60,61.151041666666664,61.33229166666666,73.0,78.0
61,61.401041666666664,61.615625,74.0,84.0
62,61.651041666666664,62.159375,73.0,81.0
63,62.151041666666664,62.526041666666664,69.0,84.0
64,62.651041666666664,62.829166666666666,69.0,83.0
65,62.901041666666664,63.072916666666664,71.0,79.0
66,63.151041666666664,63.6125,73.0,84.0
67,63.651041666666664,65.15104166666667,71.0,84.0
68,65.40104166666667,65.625,66.0,85.0
69,65.65104166666667,66.03229166666667,71.0,84.0
70,66.15104166666667,66.5375,71.0,87.0
71,66.65104166666667,67.053125,71.0,85.0
72,67.15104166666667,67.328125,73.0,81.0
73,67.40104166666667,67.56354166666667,74.0,85.0
74,67.65104166666667,67.83854166666667,73.0,90.0
75,67.90104166666667,68.09791666666666,71.0,85.0
76,68.15104166666667,68.49166666666666,69.0,85.0
77,68.65104166666667,69.015625,69.0,84.0
78,69.15104166666667,69.35104166666666,71.0,85.0
79,69.40104166666667,69.65208333333334,73.0,85.0
80,69.65104166666667,70.028125,71.0,85.0
81,70.15104166666667,70.534375,66.0,88.0
82,70.65104166666667,71.090625,66.0,85.0
83,71.40104166666667,71.65104166666667,64.0,87.0
84,71.65104166666667,73.15104166666667,66.0,86.0
85,73.65104166666667,74.015625,69.0,83.0
86,74.15104166666667,74.57291666666667,69.0,85.0
87,74.65104166666667,74.83333333333333,69.0,83.0
88,74.90104166666667,75.121875,66.0,82.0
89,75.15104166666667,75.375,64.0,88.0
90,75.40104166666667,75.60520833333334,66.0,78.0
91,75.65104166666667,76.04166666666667,69.0,82.0
92,76.15104166666667,76.33125,71.0,79.0
93,76.40104166666667,76.57708333333333,73.0,83.0
94,76.65104166666667,77.05416666666666,74.0,86.0
95,77.15104166666667,77.38020833333333,73.0,87.0
96,77.40104166666667,77.64270833333333,71.0,83.0
97,77.65104166666667,78.12395833333333,73.0,86.0
98,78.15104166666667,78.309375,69.0,78.0
99,78.40104166666667,78.55833333333334,69.0,82.0
100,78.65104166666667,78.82291666666667,69.0,83.0
101,78.90104166666667,79.06875,71.0,84.0
102,79.15104166666667,79.58854166666667,73.0,83.0
103,79.65104166666667,81.22916666666667,71.0,83.0
104,81.65104166666667,82.04270833333334,73.0,85.0
105,82.15104166666667,82.62395833333333,73.0,84.0
106,82.65104166666667,83.04895833333333,74.0,84.0
107,83.15104166666667,83.54270833333334,74.0,86.0
108,83.65104166666667,84.04479166666667,76.0,85.0
109,84.15104166666667,84.40104166666667,76.0,84.0
110,84.40104166666667,84.65104166666667,76.0,84.0
111,84.65104166666667,85.15520833333333,78.0,84.0
112,85.15104166666667,85.37083333333334,76.0,88.0
113,85.40104166666667,85.615625,78.0,84.0
114,85.65104166666667,86.01145833333334,81.0,84.0
115,86.15104166666667,86.54583333333333,81.0,84.0
116,86.65104166666667,87.321875,78.0,94.0
117,87.40104166666667,87.90104166666667,76.0,85.0
118,87.90104166666667,89.42916666666666,74.0,87.0
119,89.65104166666667,90.08229166666666,78.0,87.0
120,90.15104166666667,90.50625,74.0,89.0
121,90.65104166666667,91.03645833333333,76.0,83.0
122,91.15104166666667,91.55729166666667,73.0,89.0
123,91.65104166666667,91.828125,74.0,85.0
124,91.90104166666667,92.109375,76.0,79.0
125,92.15104166666667,92.40208333333334,74.0,88.0
126,92.40104166666667,92.66145833333333,73.0,81.0
127,92.65104166666667,93.06041666666667,71.0,84.0
128,93.15104166666667,93.33229166666666,73.0,78.0
129,93.40104166666667,93.615625,74.0,84.0
130,93.65104166666667,94.159375,73.0,81.0
131,94.15104166666667,94.52604166666667,69.0,84.0
132,94.65104166666667,94.82916666666667,69.0,83.0
133,94.90104166666667,95.07291666666667,71.0,79.0
134,95.15104166666667,95.6125,73.0,84.0
135,95.65104166666667,97.15104166666667,71.0,84.0
136,97.65104166666667,98.26666666666667,73.0,86.0
137,98.40104166666667,98.584375,66.0,85.0
138,98.65104166666667,99.05833333333334,73.0,78.0
139,99.15104166666667,99.31770833333333,76.0,84.0
140,99.40104166666667,99.615625,74.0,89.0
141,99.65104166666667,100.228125,73.0,87.0
142,100.40104166666667,100.61458333333333,73.0,79.0
143,100.65104166666667,101.025,74.0,87.0
144,101.15104166666667,101.60729166666667,76.0,83.0
145,101.65104166666667,102.31458333333333,74.0,85.0
146,102.40104166666667,102.55729166666667,74.0,89.0
147,102.65104166666667,103.0375,76.0,87.0
148,103.15104166666667,103.62604166666667,78.0,87.0
149,103.65104166666667,105.34895833333333,76.0,89.0
150,105.65104166666667,106.19270833333333,78.0,87.0
151,106.40104166666667,106.65104166666667,78.0,94.0
152,106.65104166666667,107.034375,76.0,85.0
153,107.15104166666667,107.55416666666666,74.0,94.0
154,107.65104166666667,108.653125,76.0,85.0
155,108.65104166666667,109.40104166666667,69.0,85.0
156,109.65104166666667,110.07916666666667,74.0,80.0
157,110.15104166666667,110.32187499999999,71.0,86.0
158,110.40104166666667,110.61770833333333,73.0,82.0
159,110.65104166666667,110.97812499999999,74.0,90.0
160,111.15104166666667,111.375,76.0,83.0
161,111.40104166666667,111.62083333333334,74.0,86.0
162,111.65104166666667,113.19791666666667,73.0,79.0
163,113.40104166666667,113.625,66.0,85.0
164,113.65104166666667,114.03229166666667,71.0,84.0
165,114.15104166666667,114.40104166666667,71.0,87.0
166,114.40104166666667,114.65104166666667,71.0,87.0
167,114.65104166666667,115.053125,71.0,85.0
168,115.15104166666667,115.328125,73.0,81.0
169,115.40104166666667,115.56354166666667,74.0,85.0
170,115.65104166666667,115.83854166666667,73.0,90.0
171,115.90104166666667,116.09791666666666,71.0,85.0
172,116.15104166666667,116.49166666666666,69.0,85.0
173,116.65104166666667,117.015625,69.0,84.0
174,117.15104166666667,117.35104166666666,71.0,85.0
175,117.40104166666667,117.65208333333334,73.0,85.0
176,117.65104166666667,118.028125,71.0,85.0
177,118.15104166666667,118.534375,66.0,88.0
178,118.65104166666667,119.090625,66.0,85.0
179,119.40104166666667,119.65104166666667,64.0,87.0
180,119.65104166666667,121.15104166666667,66.0,86.0
181,121.65104166666667,122.015625,69.0,83.0
182,122.15104166666667,122.57291666666667,69.0,85.0
183,122.65104166666667,122.83333333333333,69.0,83.0
184,122.90104166666667,123.121875,66.0,82.0
185,123.15104166666667,123.375,64.0,88.0
186,123.40104166666667,123.60520833333334,66.0,78.0
187,123.65104166666667,124.04166666666667,69.0,82.0
188,124.15104166666667,124.33125,71.0,79.0
189,124.40104166666667,124.57708333333333,73.0,83.0
190,124.65104166666667,125.05416666666666,74.0,86.0
191,125.15104166666667,125.38020833333333,73.0,87.0
192,125.40104166666667,125.64270833333333,71.0,83.0
193,125.65104166666667,126.12395833333333,73.0,86.0
194,126.15104166666667,126.65104166666667,69.0,78.0
195,126.65104166666667,126.82291666666667,69.0,83.0
196,126.90104166666667,127.06875,71.0,84.0
197,127.15104166666667,127.58854166666667,73.0,83.0
198,127.65104166666667,129.22916666666666,71.0,83.0
199,129.65104166666666,130.04270833333334,73.0,85.0
200,130.15104166666666,130.62395833333332,73.0,84.0
201,130.65104166666666,131.04895833333333,74.0,84.0
202,131.15104166666666,131.54270833333334,74.0,86.0
203,131.65104166666666,132.04479166666667,76.0,85.0
204,132.15104166666666,132.65104166666666,76.0,84.0
205,132.65104166666666,133.15520833333332,78.0,84.0
206,133.15104166666666,133.37083333333334,76.0,88.0
207,133.40104166666666,133.615625,78.0,84.0
208,133.65104166666666,134.01145833333334,81.0,84.0
209,134.15104166666666,134.54583333333332,81.0,84.0
210,134.65104166666666,135.321875,78.0,94.0
211,135.40104166666666,135.90104166666666,76.0,85.0
212,135.90104166666666,137.42916666666667,74.0,87.0
213,137.65104166666666,138.08229166666666,78.0,87.0
214,138.15104166666666,138.50625,74.0,89.0
215,138.65104166666666,139.03645833333334,76.0,83.0
216,139.15104166666666,139.55729166666666,73.0,89.0
217,139.65104166666666,139.828125,74.0,85.0
218,139.90104166666666,140.109375,76.0,79.0
219,140.15104166666666,140.40208333333334,74.0,88.0
220,140.40104166666666,140.66145833333334,73.0,81.0
221,140.65104166666666,141.06041666666667,71.0,84.0
222,141.15104166666666,141.33229166666666,73.0,78.0
223,141.40104166666666,141.615625,74.0,84.0
224,141.65104166666666,142.159375,73.0,81.0
225,142.15104166666666,142.52604166666666,69.0,84.0
226,142.65104166666666,142.82916666666665,69.0,83.0
227,142.90104166666666,143.07291666666666,71.0,79.0
228,143.15104166666666,143.6125,73.0,84.0
229,143.65104166666666,145.15104166666666,71.0,84.0
230,177.65104166666666,178.26666666666665,75.0,86.0
231,178.40104166666666,178.584375,68.0,85.0
232,178.65104166666666,179.05833333333334,75.0,78.0
233,179.15104166666666,179.31770833333334,78.0,84.0
234,179.40104166666666,179.615625,76.0,89.0
235,179.65104166666666,180.228125,75.0,87.0
236,180.40104166666666,180.61458333333334,75.0,79.0
237,180.65104166666666,181.025,76.0,87.0
238,181.15104166666666,181.60729166666667,78.0,83.0
239,181.65104166666666,182.31458333333333,76.0,85.0
240,182.40104166666666,182.55729166666666,76.0,89.0
241,182.65104166666666,183.0375,78.0,87.0
242,183.15104166666666,183.62604166666665,80.0,87.0
243,183.65104166666666,185.34895833333334,78.0,89.0
244,185.65104166666666,186.19270833333334,80.0,87.0
245,186.40104166666666,186.65104166666666,80.0,94.0
246,186.65104166666666,187.034375,78.0,85.0
247,187.15104166666666,187.55416666666667,76.0,94.0
248,187.65104166666666,188.653125,78.0,85.0
249,188.65104166666666,189.40104166666666,71.0,85.0
250,189.65104166666666,190.07916666666665,76.0,80.0
251,190.15104166666666,190.321875,73.0,86.0
252,190.40104166666666,190.61770833333333,75.0,82.0
253,190.65104166666666,190.978125,76.0,90.0
254,191.15104166666666,191.375,78.0,83.0
255,191.40104166666666,191.62083333333334,76.0,86.0
256,191.65104166666666,193.19791666666666,75.0,79.0
257,193.40104166666666,193.625,68.0,85.0
258,193.65104166666666,194.03229166666665,73.0,84.0
259,194.15104166666666,194.40104166666666,73.0,87.0
260,194.40104166666666,194.65104166666666,73.0,87.0
261,194.65104166666666,195.053125,73.0,85.0
262,195.15104166666666,195.328125,75.0,81.0
263,195.40104166666666,195.56354166666665,76.0,85.0
264,195.65104166666666,195.83854166666666,75.0,90.0
265,195.90104166666666,196.09791666666666,73.0,85.0
266,196.15104166666666,196.49166666666667,71.0,85.0
267,196.65104166666666,197.015625,71.0,84.0
268,197.15104166666666,197.35104166666667,73.0,85.0
269,197.40104166666666,197.65208333333334,75.0,85.0
270,197.65104166666666,198.028125,73.0,85.0
271,198.15104166666666,198.534375,68.0,88.0
272,198.65104166666666,199.090625,68.0,85.0
273,199.40104166666666,199.65104166666666,66.0,87.0
274,199.65104166666666,201.15104166666666,68.0,86.0
275,201.65104166666666,202.015625,71.0,83.0
276,202.15104166666666,202.57291666666666,71.0,85.0
277,202.65104166666666,202.83333333333334,71.0,83.0
278,202.90104166666666,203.121875,68.0,82.0
279,203.15104166666666,203.375,66.0,88.0
280,203.40104166666666,203.60520833333334,68.0,78.0
281,203.65104166666666,204.04166666666666,71.0,82.0
282,204.15104166666666,204.33125,73.0,79.0
283,204.40104166666666,204.57708333333332,75.0,83.0
284,204.65104166666666,205.05416666666667,76.0,86.0
285,205.15104166666666,205.38020833333334,75.0,87.0
286,205.40104166666666,205.64270833333333,73.0,83.0
287,205.65104166666666,206.12395833333332,75.0,86.0
288,206.15104166666666,206.65104166666666,71.0,78.0
289,206.65104166666666,206.82291666666666,71.0,83.0
290,206.90104166666666,207.06875,73.0,84.0
291,207.15104166666666,207.58854166666666,75.0,83.0
292,207.65104166666666,209.22916666666666,73.0,83.0
293,209.65104166666666,210.04270833333334,75.0,85.0
294,210.15104166666666,210.62395833333332,75.0,84.0
295,210.65104166666666,211.04895833333333,76.0,84.0
296,211.15104166666666,211.54270833333334,76.0,86.0
297,211.65104166666666,212.04479166666667,78.0,85.0
298,212.15104166666666,212.65104166666666,78.0,84.0
299,212.65104166666666,213.15520833333332,80.0,84.0
300,213.15104166666666,213.37083333333334,78.0,88.0
301,213.40104166666666,213.615625,80.0,84.0
302,213.65104166666666,214.01145833333334,83.0,84.0
303,214.15104166666666,214.54583333333332,83.0,84.0
304,214.65104166666666,215.321875,80.0,94.0
305,215.40104166666666,215.90104166666666,78.0,85.0
306,215.90104166666666,217.42916666666667,76.0,87.0
307,217.65104166666666,218.08229166666666,80.0,87.0
308,218.15104166666666,218.50625,76.0,89.0
309,218.65104166666666,219.03645833333334,78.0,83.0
310,219.15104166666666,219.55729166666666,75.0,89.0
311,219.65104166666666,219.828125,76.0,85.0
312,219.90104166666666,220.109375,78.0,79.0
313,220.15104166666666,220.40208333333334,76.0,88.0
314,220.40104166666666,220.66145833333334,75.0,81.0
315,220.65104166666666,221.06041666666667,73.0,84.0
316,221.15104166666666,221.33229166666666,75.0,78.0
317,221.40104166666666,221.615625,76.0,84.0
318,221.65104166666666,222.15937499999998,75.0,81.0
319,222.15104166666666,222.52604166666666,71.0,84.0
320,222.65104166666666,222.82916666666665,71.0,83.0
321,222.90104166666666,223.07291666666666,73.0,79.0
322,223.15104166666666,223.61249999999998,75.0,84.0
323,223.65104166666666,225.15104166666666,73.0,84.0
324,225.65104166666666,226.08229166666666,80.0,87.0
325,226.15104166666666,226.50625,76.0,89.0
326,226.65104166666666,227.03645833333334,78.0,83.0
327,227.15104166666666,227.55729166666666,75.0,89.0
328,227.65104166666666,227.828125,76.0,85.0
329,227.90104166666666,228.109375,78.0,79.0
330,228.15104166666666,228.40208333333334,76.0,88.0
331,228.40104166666666,228.66145833333334,75.0,81.0
332,228.65104166666666,229.06041666666667,73.0,84.0
333,229.15104166666666,229.33229166666666,75.0,78.0
334,229.40104166666666,229.615625,76.0,84.0
335,229.65104166666666,230.15937499999998,75.0,81.0
336,230.15104166666666,230.52604166666666,71.0,84.0
337,230.65104166666666,230.82916666666665,71.0,83.0
338,230.90104166666666,231.07291666666666,73.0,79.0
339,231.15104166666666,231.61249999999998,75.0,84.0
340,231.65104166666666,233.15104166666666,73.0,84.0
