,start,end,pitch,velocity
0,1.6510416666666667,1.9114583333333333,71.0,77.0
1,1.9010416666666667,2.1041666666666665,66.0,76.0
2,2.1510416666666665,2.265625,74.0,85.0
3,1.6510416666666667,2.4895833333333335,47.0,72.0
4,2.9010416666666665,3.084375,71.0,77.0
5,2.6510416666666665,3.2229166666666664,54.0,31.0
6,3.4010416666666665,3.8916666666666666,71.0,71.0
7,4.151041666666667,4.40625,71.0,63.0
8,4.401041666666667,4.61875,66.0,60.0
9,4.901041666666667,5.026041666666667,71.0,58.0
10,3.6510416666666665,5.289583333333333,47.0,73.0
11,3.9010416666666665,5.325,54.0,57.0
12,5.651041666666667,5.96875,71.0,79.0
13,5.901041666666667,6.078125,66.0,70.0
14,6.151041666666667,6.375,74.0,84.0
15,5.651041666666667,7.15625,47.0,83.0
16,6.901041666666667,7.166666666666667,71.0,67.0
17,6.651041666666667,7.260416666666667,54.0,55.0
18,7.151041666666667,7.3,66.0,63.0
19,7.401041666666667,7.852083333333333,71.0,65.0
20,8.151041666666666,8.259375,66.0,70.0
21,8.401041666666666,8.559375,71.0,57.0
22,8.901041666666666,9.203125,71.0,68.0
23,9.151041666666666,9.252083333333333,66.0,68.0
24,7.651041666666667,9.297916666666666,47.0,75.0
25,7.901041666666667,9.31875,54.0,61.0
26,9.651041666666666,10.057291666666666,71.0,81.0
27,9.901041666666666,10.082291666666666,66.0,72.0
28,10.151041666666666,10.370833333333334,74.0,86.0
29,9.651041666666666,10.480208333333334,47.0,81.0
30,10.651041666666666,11.021875,54.0,63.0
31,10.901041666666666,11.041666666666666,71.0,75.0
32,11.151041666666666,11.260416666666666,66.0,65.0
33,11.401041666666666,11.746875,71.0,79.0
34,11.651041666666666,12.2375,47.0,79.0
35,11.901041666666666,12.28125,54.0,61.0
36,12.151041666666666,12.498958333333333,71.0,75.0
37,12.401041666666666,12.54375,66.0,71.0
38,12.651041666666666,12.9125,74.0,85.0
39,12.901041666666666,13.030208333333333,66.0,73.0
40,13.151041666666666,13.338541666666666,71.0,77.0
41,13.401041666666666,13.523958333333333,66.0,61.0
42,13.651041666666666,13.967708333333333,59.0,82.0
43,13.901041666666666,14.288541666666667,54.0,67.0
44,13.651041666666666,14.294791666666667,66.0,78.0
45,14.151041666666666,14.5125,59.0,84.0
46,14.401041666666666,14.730208333333334,54.0,68.0
47,14.651041666666666,15.18125,62.0,82.0
48,14.901041666666666,15.191666666666666,54.0,72.0
49,14.651041666666666,15.209375,66.0,77.0
50,13.651041666666666,15.302083333333334,47.0,83.0
51,15.401041666666666,15.503124999999999,62.0,73.0
52,15.151041666666666,15.521875,59.0,87.0
53,15.651041666666666,15.941666666666666,57.0,74.0
54,15.651041666666666,16.19375,61.0,78.0
55,15.901041666666666,16.28333333333333,52.0,73.0
56,16.151041666666668,16.453125,57.0,86.0
57,16.401041666666668,16.72083333333333,52.0,79.0
58,16.651041666666668,16.965625,57.0,84.0
59,16.651041666666668,16.96875,64.0,84.0
60,15.651041666666666,17.169791666666665,45.0,82.0
61,16.901041666666668,17.178125,52.0,80.0
62,17.151041666666668,17.429166666666667,61.0,94.0
63,17.401041666666668,17.547916666666666,57.0,85.0
64,17.651041666666668,18.0125,55.0,83.0
65,17.651041666666668,18.047916666666666,59.0,80.0
66,18.151041666666668,18.429166666666667,62.0,88.0
67,18.401041666666668,18.630208333333332,55.0,78.0
68,17.901041666666668,18.794791666666665,50.0,82.0
69,17.651041666666668,19.182291666666668,43.0,80.0
70,18.901041666666668,19.194791666666667,50.0,81.0
71,18.651041666666668,19.203125,62.0,83.0
72,19.151041666666668,19.4625,55.0,84.0
73,19.401041666666668,19.639583333333334,59.0,79.0
74,19.651041666666668,20.178125,61.0,84.0
75,20.151041666666668,20.528125,57.0,85.0
76,20.401041666666668,20.547916666666666,61.0,87.0
77,20.651041666666668,20.926041666666666,62.0,77.0
78,20.901041666666668,21.15,61.0,85.0
79,19.651041666666668,21.238541666666666,45.0,82.0
80,19.901041666666668,21.286458333333332,52.0,78.0
81,21.151041666666668,21.328125,57.0,83.0
82,21.651041666666668,21.961458333333333,59.0,79.0
83,21.651041666666668,22.217708333333334,62.0,83.0
84,21.901041666666668,22.248958333333334,54.0,75.0
85,22.151041666666668,22.447916666666668,59.0,85.0
86,22.401041666666668,22.72083333333333,54.0,72.0
87,22.651041666666668,22.945833333333333,66.0,79.0
88,22.651041666666668,22.95625,59.0,85.0
89,22.901041666666668,23.13125,54.0,68.0
90,21.651041666666668,23.184375,47.0,81.0
91,23.151041666666668,23.427083333333332,62.0,83.0
92,23.401041666666668,23.571875,59.0,75.0
93,23.651041666666668,23.903125,57.0,74.0
94,23.651041666666668,23.989583333333332,61.0,83.0
95,23.901041666666668,24.282291666666666,52.0,78.0
96,24.151041666666668,24.469791666666666,57.0,85.0
97,24.401041666666668,24.667708333333334,52.0,81.0
98,23.651041666666668,24.766666666666666,45.0,72.0
99,24.651041666666668,24.88125,62.0,83.0
100,24.651041666666668,24.895833333333332,57.0,83.0
101,24.901041666666668,25.14270833333333,52.0,83.0
102,25.151041666666668,25.323958333333334,57.0,74.0
103,25.151041666666668,25.371875,61.0,88.0
104,25.651041666666668,25.93958333333333,55.0,79.0
105,25.651041666666668,26.134375,59.0,72.0
106,26.151041666666668,26.494791666666668,55.0,84.0
107,26.401041666666668,26.605208333333334,59.0,75.0
108,25.901041666666668,26.770833333333332,50.0,71.0
109,26.651041666666668,27.12708333333333,62.0,84.0
110,27.151041666666668,27.412499999999998,55.0,86.0
111,25.651041666666668,27.434375,43.0,81.0
112,26.901041666666668,27.46875,50.0,75.0
113,27.401041666666668,27.613541666666666,62.0,78.0
114,27.651041666666668,27.911458333333332,57.0,67.0
115,27.651041666666668,28.178124999999998,61.0,73.0
116,28.151041666666668,28.5,57.0,79.0
117,28.401041666666668,28.692708333333332,61.0,87.0
118,27.901041666666668,28.778125,52.0,73.0
119,28.651041666666668,29.164583333333333,62.0,83.0
120,28.901041666666668,29.286458333333332,52.0,79.0
121,27.651041666666668,29.30625,45.0,84.0
122,29.151041666666668,29.376041666666666,61.0,83.0
123,29.651041666666668,30.130208333333332,59.0,78.0
124,29.651041666666668,30.1875,62.0,75.0
125,30.401041666666668,30.5625,59.0,75.0
126,30.151041666666668,30.761458333333334,54.0,68.0
127,30.651041666666668,31.094791666666666,66.0,77.0
128,29.651041666666668,31.508333333333333,47.0,81.0
129,30.901041666666668,31.546875,54.0,71.0
130,31.401041666666668,31.876041666666666,59.0,76.0
131,31.151041666666668,31.933333333333334,62.0,74.0
132,32.151041666666664,32.459375,62.0,74.0
133,32.401041666666664,32.5625,59.0,78.0
134,31.901041666666668,32.96666666666667,54.0,64.0
135,32.901041666666664,33.192708333333336,59.0,79.0
136,31.651041666666668,33.259375,47.0,77.0
137,33.151041666666664,33.416666666666664,54.0,71.0
138,32.651041666666664,33.43125,66.0,86.0
139,33.901041666666664,34.196875,54.0,71.0
140,33.651041666666664,34.221875,62.0,79.0
141,34.151041666666664,34.59583333333333,59.0,88.0
142,34.401041666666664,34.703125,54.0,77.0
143,34.901041666666664,35.15625,54.0,63.0
144,33.651041666666664,35.18020833333333,47.0,83.0
145,34.651041666666664,35.24270833333333,66.0,85.0
146,35.151041666666664,35.41770833333333,59.0,83.0
147,35.651041666666664,36.197916666666664,61.0,80.0
148,35.901041666666664,36.203125,49.0,53.0
149,35.651041666666664,36.65416666666667,42.0,84.0
150,36.151041666666664,36.68958333333333,57.0,84.0
151,36.401041666666664,36.71145833333333,49.0,70.0
152,36.651041666666664,36.91979166666667,61.0,72.0
153,36.901041666666664,37.11875,49.0,71.0
154,36.651041666666664,37.21145833333333,66.0,83.0
155,37.151041666666664,37.41770833333333,57.0,85.0
156,37.901041666666664,38.240625,54.0,71.0
157,37.651041666666664,38.253125,62.0,79.0
158,38.401041666666664,38.83229166666666,54.0,74.0
159,38.151041666666664,38.97604166666667,59.0,87.0
160,38.901041666666664,39.32604166666667,54.0,68.0
161,37.651041666666664,39.447916666666664,47.0,79.0
162,39.151041666666664,39.579166666666666,59.0,85.0
163,38.651041666666664,39.5875,66.0,88.0
164,39.651041666666664,40.21666666666667,62.0,77.0
165,39.901041666666664,40.21875,54.0,60.0
166,40.151041666666664,40.475,59.0,84.0
167,40.401041666666664,40.690625,54.0,67.0
168,40.651041666666664,40.932291666666664,59.0,85.0
169,40.651041666666664,41.03125,66.0,73.0
170,40.901041666666664,41.141666666666666,54.0,68.0
171,39.651041666666664,41.175,47.0,78.0
172,41.151041666666664,41.286458333333336,59.0,75.0
173,41.151041666666664,41.39375,62.0,79.0
174,41.401041666666664,41.5125,59.0,82.0
175,41.651041666666664,41.94583333333333,57.0,82.0
176,41.651041666666664,42.03958333333333,61.0,79.0
177,41.901041666666664,42.244791666666664,52.0,76.0
178,42.151041666666664,42.434375,61.0,78.0
179,42.401041666666664,42.73125,52.0,70.0
180,42.651041666666664,42.922916666666666,57.0,80.0
181,42.651041666666664,42.927083333333336,64.0,84.0
182,43.151041666666664,43.425,57.0,84.0
183,42.901041666666664,43.49270833333333,52.0,78.0
184,41.651041666666664,43.515625,45.0,83.0
185,43.651041666666664,43.92916666666667,57.0,80.0
186,43.651041666666664,44.02916666666667,61.0,84.0
187,44.151041666666664,44.42916666666667,57.0,85.0
188,43.651041666666664,44.49270833333333,45.0,84.0
189,43.901041666666664,44.541666666666664,52.0,71.0
190,44.401041666666664,44.577083333333334,61.0,83.0
191,44.651041666666664,45.0125,59.0,79.0
192,44.901041666666664,45.1625,54.0,73.0
193,44.651041666666664,45.221875,62.0,82.0
194,44.651041666666664,45.28958333333333,47.0,83.0
195,45.151041666666664,45.44895833333333,59.0,84.0
196,45.401041666666664,45.590625,62.0,78.0
197,45.651041666666664,45.946875,57.0,79.0
198,45.901041666666664,46.21041666666667,52.0,72.0
199,45.651041666666664,46.23125,61.0,75.0
200,46.151041666666664,46.40208333333333,57.0,84.0
201,46.401041666666664,46.70729166666666,52.0,76.0
202,46.651041666666664,46.940625,57.0,82.0
203,46.651041666666664,46.978125,61.0,85.0
204,46.651041666666664,47.059375,64.0,84.0
205,45.651041666666664,47.270833333333336,45.0,83.0
206,47.151041666666664,47.48125,57.0,84.0
207,46.901041666666664,47.5,52.0,77.0
208,47.401041666666664,47.6,61.0,87.0
209,47.651041666666664,47.928125,62.0,83.0
210,47.651041666666664,47.95104166666667,59.0,81.0
211,47.901041666666664,48.223958333333336,54.0,71.0
212,48.151041666666664,48.47083333333333,59.0,86.0
213,48.401041666666664,48.677083333333336,54.0,71.0
214,48.651041666666664,48.940625,59.0,78.0
215,48.651041666666664,48.96875,62.0,77.0
216,48.901041666666664,49.094791666666666,54.0,74.0
217,48.651041666666664,49.104166666666664,66.0,80.0
218,47.651041666666664,49.157291666666666,47.0,84.0
219,49.151041666666664,49.28125,59.0,85.0
220,49.651041666666664,49.916666666666664,57.0,79.0
221,49.651041666666664,50.208333333333336,61.0,77.0
222,50.151041666666664,50.454166666666666,57.0,85.0
223,49.651041666666664,50.48645833333333,45.0,80.0
224,49.901041666666664,50.53125,52.0,77.0
225,50.401041666666664,50.56875,61.0,84.0
226,50.651041666666664,50.9875,59.0,80.0
227,50.651041666666664,51.197916666666664,62.0,82.0
228,50.651041666666664,51.244791666666664,47.0,84.0
229,50.901041666666664,51.28541666666666,54.0,69.0
230,51.151041666666664,51.50625,59.0,87.0
231,51.651041666666664,51.83020833333333,61.0,84.0
232,51.651041666666664,52.012499999999996,64.0,84.0
233,51.901041666666664,52.170833333333334,61.0,80.0
234,51.651041666666664,52.467708333333334,49.0,72.0
235,52.151041666666664,52.50208333333333,64.0,81.0
236,52.651041666666664,52.81666666666666,57.0,84.0
237,52.651041666666664,52.98020833333333,62.0,84.0
238,52.901041666666664,53.09791666666666,57.0,78.0
239,53.151041666666664,53.45520833333333,66.0,90.0
240,52.651041666666664,53.53333333333333,50.0,78.0
241,53.401041666666664,53.547916666666666,57.0,84.0
242,53.651041666666664,53.85729166666667,57.0,66.0
243,53.651041666666664,53.860416666666666,52.0,69.0
244,53.651041666666664,54.166666666666664,61.0,66.0
245,53.901041666666664,54.278124999999996,52.0,78.0
246,54.151041666666664,54.45625,57.0,89.0
247,54.401041666666664,54.67604166666666,52.0,76.0
248,53.651041666666664,54.871874999999996,45.0,79.0
249,54.651041666666664,54.90208333333333,57.0,82.0
250,54.651041666666664,54.952083333333334,61.0,85.0
251,54.651041666666664,55.065625,64.0,85.0
252,55.151041666666664,55.471875,57.0,84.0
253,54.901041666666664,55.53854166666667,52.0,75.0
254,55.401041666666664,55.572916666666664,61.0,92.0
255,55.651041666666664,55.952083333333334,59.0,80.0
256,55.651041666666664,55.965624999999996,62.0,83.0
257,55.901041666666664,56.168749999999996,54.0,72.0
258,56.151041666666664,56.31875,59.0,89.0
259,56.401041666666664,56.70625,54.0,76.0
260,55.651041666666664,56.822916666666664,47.0,84.0
261,56.651041666666664,56.928125,59.0,85.0
262,56.651041666666664,56.96458333333333,62.0,84.0
263,56.651041666666664,57.0375,66.0,84.0
264,57.151041666666664,57.280208333333334,59.0,84.0
265,57.401041666666664,57.532291666666666,62.0,72.0
266,56.901041666666664,57.552083333333336,54.0,75.0
267,56.901041666666664,57.58020833333333,47.0,49.0
268,57.651041666666664,58.03333333333333,59.0,80.0
269,57.651041666666664,58.16041666666666,66.0,75.0
270,57.901041666666664,58.291666666666664,54.0,71.0
271,57.651041666666664,58.36875,47.0,83.0
272,58.151041666666664,58.407291666666666,62.0,81.0
273,58.401041666666664,58.54270833333333,59.0,83.0
274,58.651041666666664,58.896875,57.0,82.0
275,58.651041666666664,59.052083333333336,61.0,74.0
276,58.901041666666664,59.409375,52.0,83.0
277,59.151041666666664,59.44375,57.0,83.0
278,58.651041666666664,59.483333333333334,45.0,83.0
279,59.401041666666664,59.50416666666666,61.0,83.0
280,59.651041666666664,59.969791666666666,55.0,77.0
281,59.651041666666664,60.151041666666664,62.0,79.0
282,59.901041666666664,60.235416666666666,50.0,74.0
283,60.151041666666664,60.4625,55.0,83.0
284,60.401041666666664,60.686458333333334,50.0,78.0
285,60.651041666666664,60.918749999999996,55.0,81.0
286,60.651041666666664,60.921875,62.0,79.0
287,60.901041666666664,61.21666666666667,50.0,80.0
288,59.651041666666664,61.25833333333333,43.0,82.0
289,61.151041666666664,61.293749999999996,55.0,79.0
290,61.151041666666664,61.395833333333336,59.0,83.0
291,61.401041666666664,61.489583333333336,43.0,54.0
292,61.401041666666664,61.557291666666664,50.0,78.0
293,61.651041666666664,61.940625,57.0,78.0
294,61.651041666666664,61.97291666666666,61.0,73.0
295,61.901041666666664,62.23020833333333,52.0,80.0
296,62.151041666666664,62.453125,57.0,83.0
297,62.401041666666664,62.69166666666666,52.0,81.0
298,61.651041666666664,62.76979166666666,45.0,84.0
299,62.651041666666664,62.92916666666667,61.0,86.0
300,62.651041666666664,62.93541666666667,57.0,83.0
301,63.151041666666664,63.24166666666667,57.0,74.0
302,62.901041666666664,63.266666666666666,52.0,77.0
303,63.151041666666664,63.46666666666667,61.0,71.0
304,63.401041666666664,63.552083333333336,57.0,78.0
305,63.151041666666664,63.62291666666667,64.0,83.0
306,63.651041666666664,63.938541666666666,62.0,83.0
307,63.651041666666664,63.958333333333336,59.0,82.0
308,63.901041666666664,64.20416666666667,54.0,70.0
309,64.15104166666667,64.41979166666667,59.0,87.0
310,64.40104166666667,64.69270833333333,54.0,75.0
311,64.65104166666667,64.87083333333334,59.0,79.0
312,64.65104166666667,65.07604166666667,66.0,82.0
313,65.15104166666667,65.27395833333333,59.0,83.0
314,64.90104166666667,65.44583333333333,54.0,81.0
315,63.651041666666664,65.47604166666666,47.0,82.0
316,65.15104166666667,65.48020833333334,62.0,83.0
317,65.40104166666667,65.66770833333334,59.0,83.0
318,65.90104166666667,66.196875,54.0,71.0
319,65.65104166666667,66.221875,62.0,79.0
320,66.15104166666667,66.59583333333333,59.0,88.0
321,66.40104166666667,66.703125,54.0,77.0
322,66.90104166666667,67.15625,54.0,63.0
323,65.65104166666667,67.18020833333333,47.0,83.0
324,66.65104166666667,67.24270833333333,66.0,85.0
325,67.15104166666667,67.41770833333334,59.0,83.0
326,67.65104166666667,68.19791666666667,61.0,80.0
327,67.90104166666667,68.203125,49.0,53.0
328,67.65104166666667,68.65416666666667,42.0,84.0
329,68.15104166666667,68.68958333333333,57.0,84.0
330,68.40104166666667,68.71145833333333,49.0,70.0
331,68.65104166666667,68.91979166666667,61.0,72.0
332,68.90104166666667,69.11875,49.0,71.0
333,68.65104166666667,69.21145833333333,66.0,83.0
334,69.15104166666667,69.41770833333334,57.0,85.0
335,69.90104166666667,70.240625,54.0,71.0
336,69.65104166666667,70.253125,62.0,79.0
337,70.40104166666667,70.83229166666666,54.0,74.0
338,70.15104166666667,70.97604166666666,59.0,87.0
339,70.90104166666667,71.32604166666667,54.0,68.0
340,69.65104166666667,71.44791666666667,47.0,79.0
341,71.15104166666667,71.57916666666667,59.0,85.0
342,70.65104166666667,71.5875,66.0,88.0
343,71.65104166666667,72.21666666666667,62.0,77.0
344,71.90104166666667,72.21875,54.0,60.0
345,72.15104166666667,72.475,59.0,84.0
346,72.40104166666667,72.690625,54.0,67.0
347,72.65104166666667,72.93229166666667,59.0,85.0
348,72.65104166666667,73.03125,66.0,73.0
349,72.90104166666667,73.14166666666667,54.0,68.0
350,71.65104166666667,73.175,47.0,78.0
351,73.15104166666667,73.28645833333333,59.0,75.0
352,73.15104166666667,73.39375,62.0,79.0
353,73.40104166666667,73.5125,59.0,82.0
354,73.65104166666667,73.94583333333333,57.0,82.0
355,73.65104166666667,74.03958333333333,61.0,79.0
356,73.90104166666667,74.24479166666667,52.0,76.0
357,74.15104166666667,74.434375,61.0,78.0
358,74.40104166666667,74.73125,52.0,70.0
359,74.65104166666667,74.92291666666667,57.0,80.0
360,74.65104166666667,74.92708333333333,64.0,84.0
361,75.15104166666667,75.425,57.0,84.0
362,74.90104166666667,75.49270833333333,52.0,78.0
363,73.65104166666667,75.515625,45.0,83.0
364,75.65104166666667,75.92916666666666,57.0,80.0
365,75.65104166666667,76.02916666666667,61.0,84.0
366,76.15104166666667,76.42916666666666,57.0,85.0
367,75.65104166666667,76.49270833333333,45.0,84.0
368,75.90104166666667,76.54166666666667,52.0,71.0
369,76.40104166666667,76.57708333333333,61.0,83.0
370,76.65104166666667,77.0125,59.0,79.0
371,76.90104166666667,77.1625,54.0,73.0
372,76.65104166666667,77.221875,62.0,82.0
373,76.65104166666667,77.28958333333333,47.0,83.0
374,77.15104166666667,77.44895833333334,59.0,84.0
375,77.40104166666667,77.590625,62.0,78.0
376,77.65104166666667,77.946875,57.0,79.0
377,77.90104166666667,78.21041666666666,52.0,72.0
378,77.65104166666667,78.23125,61.0,75.0
379,78.15104166666667,78.40208333333334,57.0,84.0
380,78.40104166666667,78.70729166666666,52.0,76.0
381,78.65104166666667,78.940625,57.0,82.0
382,78.65104166666667,78.978125,61.0,85.0
383,78.65104166666667,79.059375,64.0,84.0
384,77.65104166666667,79.27083333333333,45.0,83.0
385,79.15104166666667,79.48125,57.0,84.0
386,78.90104166666667,79.5,52.0,77.0
387,79.40104166666667,79.6,61.0,87.0
388,79.65104166666667,79.928125,62.0,83.0
389,79.65104166666667,79.95104166666667,59.0,81.0
390,79.90104166666667,80.22395833333333,54.0,71.0
391,80.15104166666667,80.47083333333333,59.0,86.0
392,80.40104166666667,80.67708333333333,54.0,71.0
393,80.65104166666667,80.940625,59.0,78.0
394,80.65104166666667,80.96875,62.0,77.0
395,80.90104166666667,81.09479166666667,54.0,74.0
396,80.65104166666667,81.10416666666667,66.0,80.0
397,79.65104166666667,81.15729166666667,47.0,84.0
398,81.15104166666667,81.28125,59.0,85.0
399,81.65104166666667,81.91666666666667,57.0,79.0
400,81.65104166666667,82.20833333333333,61.0,77.0
401,82.15104166666667,82.45416666666667,57.0,85.0
402,81.65104166666667,82.48645833333333,45.0,80.0
403,81.90104166666667,82.53125,52.0,77.0
404,82.40104166666667,82.56875,61.0,84.0
405,82.65104166666667,82.9875,59.0,80.0
406,82.65104166666667,83.19791666666667,62.0,82.0
407,82.65104166666667,83.24479166666667,47.0,84.0
408,82.90104166666667,83.28541666666666,54.0,69.0
409,83.15104166666667,83.50625,59.0,87.0
410,83.65104166666667,83.83020833333333,61.0,84.0
411,83.65104166666667,84.0125,64.0,84.0
412,83.90104166666667,84.17083333333333,61.0,80.0
413,83.65104166666667,84.46770833333333,49.0,72.0
414,84.15104166666667,84.50208333333333,64.0,81.0
415,84.65104166666667,84.81666666666666,57.0,84.0
416,84.65104166666667,84.98020833333334,62.0,84.0
417,84.90104166666667,85.09791666666666,57.0,78.0
418,85.15104166666667,85.45520833333333,66.0,90.0
419,84.65104166666667,85.53333333333333,50.0,78.0
420,85.40104166666667,85.54791666666667,57.0,84.0
421,85.65104166666667,85.85729166666667,57.0,66.0
422,85.65104166666667,85.86041666666667,52.0,69.0
423,85.65104166666667,86.16666666666667,61.0,66.0
424,85.90104166666667,86.278125,52.0,78.0
425,86.15104166666667,86.45625,57.0,89.0
426,86.40104166666667,86.67604166666666,52.0,76.0
427,85.65104166666667,86.871875,45.0,79.0
428,86.65104166666667,86.90208333333334,57.0,82.0
429,86.65104166666667,86.95208333333333,61.0,85.0
430,86.65104166666667,87.065625,64.0,85.0
431,87.15104166666667,87.471875,57.0,84.0
432,86.90104166666667,87.53854166666666,52.0,75.0
433,87.40104166666667,87.57291666666667,61.0,92.0
434,87.65104166666667,87.95208333333333,59.0,80.0
435,87.65104166666667,87.965625,62.0,83.0
436,87.90104166666667,88.16875,54.0,72.0
437,88.15104166666667,88.31875,59.0,89.0
438,88.40104166666667,88.70625,54.0,76.0
439,87.65104166666667,88.82291666666667,47.0,84.0
440,88.65104166666667,88.928125,59.0,85.0
441,88.65104166666667,88.96458333333334,62.0,84.0
442,88.65104166666667,89.0375,66.0,84.0
443,89.15104166666667,89.28020833333333,59.0,84.0
444,89.40104166666667,89.53229166666667,62.0,72.0
445,88.90104166666667,89.55208333333333,54.0,75.0
446,88.90104166666667,89.58020833333333,47.0,49.0
447,89.65104166666667,90.03333333333333,59.0,80.0
448,89.65104166666667,90.16041666666666,66.0,75.0
449,89.90104166666667,90.29166666666667,54.0,71.0
450,89.65104166666667,90.36875,47.0,83.0
451,90.15104166666667,90.40729166666667,62.0,81.0
452,90.40104166666667,90.54270833333334,59.0,83.0
453,90.65104166666667,90.896875,57.0,82.0
454,90.65104166666667,91.05208333333333,61.0,74.0
455,90.90104166666667,91.409375,52.0,83.0
456,91.15104166666667,91.44375,57.0,83.0
457,90.65104166666667,91.48333333333333,45.0,83.0
458,91.40104166666667,91.50416666666666,61.0,83.0
459,91.65104166666667,91.96979166666667,55.0,77.0
460,91.65104166666667,92.15104166666667,62.0,79.0
461,91.90104166666667,92.23541666666667,50.0,74.0
462,92.15104166666667,92.4625,55.0,83.0
463,92.40104166666667,92.68645833333333,50.0,78.0
464,92.65104166666667,92.91875,55.0,81.0
465,92.65104166666667,92.921875,62.0,79.0
466,92.90104166666667,93.21666666666667,50.0,80.0
467,91.65104166666667,93.25833333333333,43.0,82.0
468,93.15104166666667,93.29375,55.0,79.0
469,93.15104166666667,93.39583333333333,59.0,83.0
470,93.40104166666667,93.48958333333333,43.0,54.0
471,93.40104166666667,93.55729166666667,50.0,78.0
472,93.65104166666667,93.940625,57.0,78.0
473,93.65104166666667,93.97291666666666,61.0,73.0
474,93.90104166666667,94.23020833333334,52.0,80.0
475,94.15104166666667,94.453125,57.0,83.0
476,94.40104166666667,94.69166666666666,52.0,81.0
477,93.65104166666667,94.76979166666666,45.0,84.0
478,94.65104166666667,94.92916666666666,61.0,86.0
479,94.65104166666667,94.93541666666667,57.0,83.0
480,95.15104166666667,95.24166666666666,57.0,74.0
481,94.90104166666667,95.26666666666667,52.0,77.0
482,95.15104166666667,95.46666666666667,61.0,71.0
483,95.40104166666667,95.55208333333333,57.0,78.0
484,95.15104166666667,95.62291666666667,64.0,83.0
485,95.65104166666667,95.93854166666667,62.0,83.0
486,95.65104166666667,95.95833333333333,59.0,82.0
487,95.90104166666667,96.20416666666667,54.0,70.0
488,96.15104166666667,96.41979166666667,59.0,87.0
489,96.40104166666667,96.69270833333333,54.0,75.0
490,96.65104166666667,96.87083333333334,59.0,79.0
491,96.65104166666667,97.07604166666667,66.0,82.0
492,97.15104166666667,97.27395833333333,59.0,83.0
493,96.90104166666667,97.44583333333333,54.0,81.0
494,95.65104166666667,97.47604166666666,47.0,82.0
495,97.15104166666667,97.48020833333334,62.0,83.0
496,97.40104166666667,97.66770833333334,59.0,83.0
497,97.65104166666667,98.003125,57.0,83.0
498,97.65104166666667,98.24583333333334,61.0,84.0
499,98.15104166666667,98.46979166666667,57.0,84.0
500,97.90104166666667,98.778125,49.0,67.0
501,97.65104166666667,98.81770833333333,42.0,94.0
502,98.65104166666667,98.95,57.0,85.0
503,98.65104166666667,98.953125,66.0,85.0
504,98.65104166666667,98.98854166666666,61.0,97.0
505,98.90104166666667,99.03645833333333,49.0,79.0
506,99.15104166666667,99.259375,57.0,83.0
507,99.40104166666667,99.51354166666667,61.0,90.0
508,99.65104166666667,99.96979166666667,57.0,81.0
509,99.65104166666667,100.22291666666666,61.0,85.0
510,99.90104166666667,100.278125,49.0,67.0
511,100.15104166666667,100.41770833333334,57.0,73.0
512,100.40104166666667,100.69583333333333,49.0,71.0
513,99.65104166666667,100.7125,42.0,85.0
514,100.65104166666667,100.91979166666667,57.0,85.0
515,100.65104166666667,101.03645833333333,61.0,90.0
516,100.90104166666667,101.13541666666667,49.0,81.0
517,100.65104166666667,101.15520833333333,66.0,82.0
518,101.15104166666667,101.325,57.0,87.0
519,101.65104166666667,101.97708333333333,59.0,83.0
520,101.65104166666667,101.978125,55.0,83.0
521,102.15104166666667,102.44166666666666,62.0,81.0
522,102.40104166666667,102.47916666666667,59.0,72.0
523,102.15104166666667,102.521875,55.0,83.0
524,101.90104166666667,102.75937499999999,50.0,75.0
525,102.65104166666667,102.89166666666667,55.0,81.0
526,102.65104166666667,102.91562499999999,67.0,84.0
527,102.65104166666667,102.940625,59.0,86.0
528,102.65104166666667,102.94687499999999,62.0,84.0
529,102.90104166666667,103.11041666666667,50.0,82.0
530,101.65104166666667,103.15104166666667,43.0,85.0
531,103.15104166666667,103.44583333333333,55.0,84.0
532,103.40104166666667,103.58125,59.0,79.0
533,103.65104166666667,103.90729166666667,57.0,76.0
534,103.65104166666667,103.91354166666666,61.0,83.0
535,104.15104166666667,104.33229166666666,57.0,82.0
536,104.40104166666667,104.52604166666667,64.0,85.0
537,103.90104166666667,104.73229166666667,52.0,81.0
538,103.65104166666667,104.90833333333333,45.0,84.0
539,104.65104166666667,104.93124999999999,69.0,89.0
540,105.15104166666667,105.365625,52.0,88.0
541,104.90104166666667,105.39166666666667,64.0,88.0
542,105.40104166666667,105.56354166666667,57.0,84.0
543,105.65104166666667,105.79270833333334,57.0,80.0
544,105.65104166666667,105.96249999999999,62.0,83.0
545,105.90104166666667,106.17083333333333,57.0,82.0
546,106.15104166666667,106.46145833333333,62.0,75.0
547,106.40104166666667,106.48958333333333,57.0,77.0
548,106.65104166666667,106.79166666666667,57.0,81.0
549,105.65104166666667,106.82291666666667,50.0,92.0
550,106.65104166666667,106.88229166666666,62.0,85.0
551,106.65104166666667,107.04062499999999,66.0,84.0
552,106.90104166666667,107.109375,57.0,83.0
553,107.15104166666667,107.328125,62.0,75.0
554,107.65104166666667,107.965625,61.0,85.0
555,108.15104166666667,108.4125,64.0,81.0
556,108.40104166666667,108.521875,57.0,83.0
557,107.90104166666667,108.66666666666667,52.0,82.0
558,108.65104166666667,108.78541666666666,57.0,87.0
559,107.65104166666667,108.80104166666666,45.0,84.0
560,108.65104166666667,108.95104166666667,69.0,72.0
561,108.90104166666667,108.953125,57.0,66.0
562,109.15104166666667,109.26354166666667,57.0,72.0
563,109.15104166666667,109.40833333333333,45.0,81.0
564,109.15104166666667,109.42395833333333,61.0,65.0
565,109.15104166666667,109.45416666666667,64.0,82.0
566,109.40104166666667,109.54791666666667,57.0,76.0
567,109.65104166666667,109.92291666666667,55.0,80.0
568,109.65104166666667,109.971875,59.0,83.0
569,110.15104166666667,110.40729166666667,62.0,79.0
570,110.40104166666667,110.60520833333334,55.0,79.0
571,110.65104166666667,110.95416666666667,67.0,88.0
572,110.90104166666667,111.02083333333333,55.0,77.0
573,109.90104166666667,111.07395833333334,50.0,69.0
574,109.65104166666667,111.10208333333333,43.0,84.0
575,111.15104166666667,111.29375,55.0,84.0
576,111.15104166666667,111.30833333333334,43.0,84.0
577,111.15104166666667,111.34583333333333,62.0,82.0
578,111.65104166666667,111.94375,54.0,84.0
579,111.65104166666667,111.99479166666667,66.0,77.0
580,112.15104166666667,112.39166666666667,58.0,82.0
581,112.40104166666667,112.58854166666667,54.0,89.0
582,112.65104166666667,112.95833333333333,61.0,86.0
583,112.90104166666667,113.13541666666667,54.0,88.0
584,111.65104166666667,113.59270833333333,42.0,89.0
585,113.15104166666667,113.61041666666667,66.0,82.0
586,111.90104166666667,113.61145833333333,49.0,71.0
587,113.90104166666667,114.19687499999999,54.0,71.0
588,113.65104166666667,114.221875,62.0,79.0
589,114.15104166666667,114.59583333333333,59.0,88.0
590,114.40104166666667,114.703125,54.0,77.0
591,114.90104166666667,115.15625,54.0,63.0
592,113.65104166666667,115.18020833333333,47.0,83.0
593,114.65104166666667,115.24270833333333,66.0,85.0
594,115.15104166666667,115.41770833333334,59.0,83.0
595,115.65104166666667,116.19791666666667,61.0,80.0
596,115.90104166666667,116.203125,49.0,53.0
597,115.65104166666667,116.65416666666667,42.0,84.0
598,116.15104166666667,116.68958333333333,57.0,84.0
599,116.40104166666667,116.71145833333333,49.0,70.0
600,116.65104166666667,116.91979166666667,61.0,72.0
601,116.90104166666667,117.11874999999999,49.0,71.0
602,116.65104166666667,117.21145833333333,66.0,83.0
603,117.15104166666667,117.41770833333334,57.0,85.0
604,117.90104166666667,118.240625,54.0,71.0
605,117.65104166666667,118.253125,62.0,79.0
606,118.40104166666667,118.83229166666666,54.0,74.0
607,118.15104166666667,118.97604166666666,59.0,87.0
608,118.90104166666667,119.32604166666667,54.0,68.0
609,117.65104166666667,119.44791666666667,47.0,79.0
610,119.15104166666667,119.57916666666667,59.0,85.0
611,118.65104166666667,119.58749999999999,66.0,88.0
612,119.65104166666667,120.21666666666667,62.0,77.0
613,119.90104166666667,120.21875,54.0,60.0
614,120.15104166666667,120.475,59.0,84.0
615,120.40104166666667,120.690625,54.0,67.0
616,120.65104166666667,120.93229166666667,59.0,85.0
617,120.65104166666667,121.03125,66.0,73.0
618,120.90104166666667,121.14166666666667,54.0,68.0
619,119.65104166666667,121.175,47.0,78.0
620,121.15104166666667,121.28645833333333,59.0,75.0
621,121.15104166666667,121.39375,62.0,79.0
622,121.40104166666667,121.5125,59.0,82.0
623,121.65104166666667,121.94583333333333,57.0,82.0
624,121.65104166666667,122.03958333333333,61.0,79.0
625,121.90104166666667,122.24479166666667,52.0,76.0
626,122.15104166666667,122.434375,61.0,78.0
627,122.40104166666667,122.73125,52.0,70.0
628,122.65104166666667,122.92291666666667,57.0,80.0
629,122.65104166666667,122.92708333333333,64.0,84.0
630,123.15104166666667,123.425,57.0,84.0
631,122.90104166666667,123.49270833333333,52.0,78.0
632,121.65104166666667,123.515625,45.0,83.0
633,123.65104166666667,123.92916666666666,57.0,80.0
634,123.65104166666667,124.02916666666667,61.0,84.0
635,124.15104166666667,124.42916666666666,57.0,85.0
636,123.65104166666667,124.49270833333333,45.0,84.0
637,123.90104166666667,124.54166666666667,52.0,71.0
638,124.40104166666667,124.57708333333333,61.0,83.0
639,124.65104166666667,125.0125,59.0,79.0
640,124.90104166666667,125.1625,54.0,73.0
641,124.65104166666667,125.221875,62.0,82.0
642,124.65104166666667,125.28958333333333,47.0,83.0
643,125.15104166666667,125.44895833333334,59.0,84.0
644,125.40104166666667,125.590625,62.0,78.0
645,125.65104166666667,125.94687499999999,57.0,79.0
646,125.90104166666667,126.21041666666666,52.0,72.0
647,125.65104166666667,126.23125,61.0,75.0
648,126.15104166666667,126.40208333333334,57.0,84.0
649,126.40104166666667,126.70729166666666,52.0,76.0
650,126.65104166666667,126.940625,57.0,82.0
651,126.65104166666667,126.97812499999999,61.0,85.0
652,126.65104166666667,127.059375,64.0,84.0
653,125.65104166666667,127.27083333333333,45.0,83.0
654,127.15104166666667,127.48125,57.0,84.0
655,126.90104166666667,127.5,52.0,77.0
656,127.40104166666667,127.6,61.0,87.0
657,127.65104166666667,127.928125,62.0,83.0
658,127.65104166666667,127.95104166666667,59.0,81.0
659,127.90104166666667,128.22395833333334,54.0,71.0
660,128.15104166666666,128.47083333333333,59.0,86.0
661,128.40104166666666,128.67708333333334,54.0,71.0
662,128.65104166666666,128.940625,59.0,78.0
663,128.65104166666666,128.96875,62.0,77.0
664,128.90104166666666,129.09479166666665,54.0,74.0
665,128.65104166666666,129.10416666666666,66.0,80.0
666,127.65104166666667,129.15729166666665,47.0,84.0
667,129.15104166666666,129.28125,59.0,85.0
668,129.65104166666666,129.91666666666666,57.0,79.0
669,129.65104166666666,130.20833333333334,61.0,77.0
670,130.15104166666666,130.45416666666665,57.0,85.0
671,129.65104166666666,130.48645833333333,45.0,80.0
672,129.90104166666666,130.53125,52.0,77.0
673,130.40104166666666,130.56875,61.0,84.0
674,130.65104166666666,130.9875,59.0,80.0
675,130.65104166666666,131.19791666666666,62.0,82.0
676,130.65104166666666,131.24479166666666,47.0,84.0
677,130.90104166666666,131.28541666666666,54.0,69.0
678,131.15104166666666,131.50625,59.0,87.0
679,131.65104166666666,131.83020833333333,61.0,84.0
680,131.65104166666666,132.0125,64.0,84.0
681,131.90104166666666,132.17083333333332,61.0,80.0
682,131.65104166666666,132.46770833333332,49.0,72.0
683,132.15104166666666,132.50208333333333,64.0,81.0
684,132.65104166666666,132.81666666666666,57.0,84.0
685,132.65104166666666,132.98020833333334,62.0,84.0
686,132.90104166666666,133.09791666666666,57.0,78.0
687,133.15104166666666,133.45520833333333,66.0,90.0
688,132.65104166666666,133.53333333333333,50.0,78.0
689,133.40104166666666,133.54791666666665,57.0,84.0
690,133.65104166666666,133.85729166666667,57.0,66.0
691,133.65104166666666,133.86041666666665,52.0,69.0
692,133.65104166666666,134.16666666666666,61.0,66.0
693,133.90104166666666,134.278125,52.0,78.0
694,134.15104166666666,134.45625,57.0,89.0
695,134.40104166666666,134.67604166666666,52.0,76.0
696,133.65104166666666,134.871875,45.0,79.0
697,134.65104166666666,134.90208333333334,57.0,82.0
698,134.65104166666666,134.95208333333332,61.0,85.0
699,134.65104166666666,135.065625,64.0,85.0
700,135.15104166666666,135.471875,57.0,84.0
701,134.90104166666666,135.53854166666667,52.0,75.0
702,135.40104166666666,135.57291666666666,61.0,92.0
703,135.65104166666666,135.95208333333332,59.0,80.0
704,135.65104166666666,135.965625,62.0,83.0
705,135.90104166666666,136.16875,54.0,72.0
706,136.15104166666666,136.31875,59.0,89.0
707,136.40104166666666,136.70625,54.0,76.0
708,135.65104166666666,136.82291666666666,47.0,84.0
709,136.65104166666666,136.928125,59.0,85.0
710,136.65104166666666,136.96458333333334,62.0,84.0
711,136.65104166666666,137.0375,66.0,84.0
712,137.15104166666666,137.28020833333332,59.0,84.0
713,137.40104166666666,137.53229166666665,62.0,72.0
714,136.90104166666666,137.55208333333334,54.0,75.0
715,136.90104166666666,137.58020833333333,47.0,49.0
716,137.65104166666666,138.03333333333333,59.0,80.0
717,137.65104166666666,138.16041666666666,66.0,75.0
718,137.90104166666666,138.29166666666666,54.0,71.0
719,137.65104166666666,138.36875,47.0,83.0
720,138.15104166666666,138.40729166666665,62.0,81.0
721,138.40104166666666,138.54270833333334,59.0,83.0
722,138.65104166666666,138.896875,57.0,82.0
723,138.65104166666666,139.05208333333334,61.0,74.0
724,138.90104166666666,139.409375,52.0,83.0
725,139.15104166666666,139.44375,57.0,83.0
726,138.65104166666666,139.48333333333332,45.0,83.0
727,139.40104166666666,139.50416666666666,61.0,83.0
728,139.65104166666666,139.96979166666665,55.0,77.0
729,139.65104166666666,140.15104166666666,62.0,79.0
730,139.90104166666666,140.23541666666665,50.0,74.0
731,140.15104166666666,140.4625,55.0,83.0
732,140.40104166666666,140.68645833333332,50.0,78.0
733,140.65104166666666,140.91875,55.0,81.0
734,140.65104166666666,140.921875,62.0,79.0
735,140.90104166666666,141.21666666666667,50.0,80.0
736,139.65104166666666,141.25833333333333,43.0,82.0
737,141.15104166666666,141.29375,55.0,79.0
738,141.15104166666666,141.39583333333334,59.0,83.0
739,141.40104166666666,141.48958333333334,43.0,54.0
740,141.40104166666666,141.55729166666666,50.0,78.0
741,141.65104166666666,141.940625,57.0,78.0
742,141.65104166666666,141.97291666666666,61.0,73.0
743,141.90104166666666,142.23020833333334,52.0,80.0
744,142.15104166666666,142.453125,57.0,83.0
745,142.40104166666666,142.69166666666666,52.0,81.0
746,141.65104166666666,142.76979166666666,45.0,84.0
747,142.65104166666666,142.92916666666667,61.0,86.0
748,142.65104166666666,142.93541666666667,57.0,83.0
749,143.15104166666666,143.24166666666667,57.0,74.0
750,142.90104166666666,143.26666666666665,52.0,77.0
751,143.15104166666666,143.46666666666667,61.0,71.0
752,143.40104166666666,143.55208333333334,57.0,78.0
753,143.15104166666666,143.62291666666667,64.0,83.0
754,143.65104166666666,143.93854166666665,62.0,83.0
755,143.65104166666666,143.95833333333334,59.0,82.0
756,143.90104166666666,144.20416666666665,54.0,70.0
757,144.15104166666666,144.41979166666667,59.0,87.0
758,144.40104166666666,144.69270833333334,54.0,75.0
759,144.65104166666666,144.87083333333334,59.0,79.0
760,144.65104166666666,145.07604166666667,66.0,82.0
761,145.15104166666666,145.27395833333333,59.0,83.0
762,144.90104166666666,145.44583333333333,54.0,81.0
763,143.65104166666666,145.47604166666667,47.0,82.0
764,145.15104166666666,145.48020833333334,62.0,83.0
765,145.40104166666666,145.66770833333334,59.0,83.0
766,145.65104166666666,145.946875,37.0,81.0
767,145.65104166666666,146.16666666666666,61.0,83.0
768,145.65104166666666,146.24895833333332,64.0,82.0
769,146.40104166666666,146.71770833333332,56.0,79.0
770,146.65104166666666,146.83541666666667,64.0,89.0
771,146.65104166666666,146.846875,61.0,84.0
772,146.65104166666666,146.87604166666665,68.0,87.0
773,146.15104166666666,146.92604166666666,49.0,74.0
774,146.90104166666666,147.02291666666667,56.0,77.0
775,147.15104166666666,147.28229166666665,61.0,85.0
776,147.40104166666666,147.56354166666665,64.0,73.0
777,147.65104166666666,147.74791666666667,64.0,72.0
778,147.65104166666666,147.94375,61.0,66.0
779,147.65104166666666,148.16354166666667,68.0,82.0
780,148.15104166666666,148.44895833333334,61.0,65.0
781,148.40104166666666,148.53125,64.0,77.0
782,147.90104166666666,148.68645833333332,56.0,77.0
783,148.65104166666666,148.94895833333334,61.0,83.0
784,147.65104166666666,148.975,49.0,86.0
785,148.65104166666666,149.00416666666666,64.0,84.0
786,148.90104166666666,149.015625,56.0,77.0
787,148.65104166666666,149.05416666666667,68.0,83.0
788,149.15104166666666,149.265625,61.0,88.0
789,149.65104166666666,150.00625,63.0,83.0
790,149.65104166666666,150.0125,59.0,79.0
791,150.15104166666666,150.2625,59.0,78.0
792,150.15104166666666,150.30208333333334,66.0,77.0
793,150.40104166666666,150.49479166666666,59.0,69.0
794,150.65104166666666,150.896875,59.0,84.0
795,150.65104166666666,150.959375,63.0,88.0
796,150.90104166666666,151.171875,54.0,72.0
797,149.65104166666666,151.24375,47.0,87.0
798,151.15104166666666,151.49166666666667,59.0,79.0
799,151.40104166666666,151.53125,63.0,76.0
800,151.65104166666666,151.76666666666665,35.0,79.0
801,151.65104166666666,152.04375,59.0,81.0
802,151.65104166666666,152.10208333333333,66.0,76.0
803,151.65104166666666,152.20208333333332,63.0,84.0
804,152.40104166666666,152.715625,54.0,72.0
805,152.65104166666666,152.89895833333333,59.0,84.0
806,152.15104166666666,152.94375,47.0,84.0
807,152.65104166666666,152.96145833333333,63.0,87.0
808,152.65104166666666,152.98020833333334,66.0,83.0
809,152.90104166666666,153.02083333333334,54.0,83.0
810,153.15104166666666,153.34791666666666,59.0,85.0
811,153.65104166666666,153.87083333333334,64.0,78.0
812,153.65104166666666,153.87708333333333,61.0,78.0
813,154.15104166666666,154.47916666666666,57.0,84.0
814,154.40104166666666,154.509375,61.0,72.0
815,153.90104166666666,154.728125,52.0,71.0
816,153.65104166666666,154.76458333333332,45.0,85.0
817,154.65104166666666,154.92708333333334,57.0,83.0
818,154.65104166666666,154.953125,61.0,84.0
819,154.65104166666666,154.99583333333334,64.0,84.0
820,154.90104166666666,155.05833333333334,52.0,81.0
821,155.15104166666666,155.42291666666665,57.0,80.0
822,155.40104166666666,155.553125,64.0,84.0
823,155.65104166666666,155.965625,59.0,75.0
824,155.65104166666666,155.98229166666667,63.0,78.0
825,156.15104166666666,156.2875,59.0,84.0
826,155.90104166666666,156.71145833333333,54.0,79.0
827,155.65104166666666,156.72291666666666,47.0,88.0
828,156.65104166666666,156.934375,59.0,83.0
829,156.65104166666666,156.94270833333334,63.0,85.0
830,156.90104166666666,157.0,54.0,83.0
831,156.65104166666666,157.01354166666667,66.0,83.0
832,157.15104166666666,157.265625,59.0,87.0
833,157.65104166666666,157.740625,37.0,85.0
834,157.65104166666666,158.453125,61.0,77.0
835,157.65104166666666,158.5,64.0,78.0
836,158.65104166666666,158.775,61.0,86.0
837,159.15104166666666,159.234375,61.0,84.0
838,158.40104166666666,159.25104166666665,56.0,77.0
839,158.15104166666666,159.25729166666667,49.0,82.0
840,159.15104166666666,159.36041666666665,64.0,88.0
841,159.40104166666666,159.48541666666665,61.0,78.0
842,160.15104166666666,160.26145833333334,56.0,87.0
843,159.90104166666666,160.51145833333334,51.0,78.0
844,160.40104166666666,160.72604166666667,60.0,85.0
845,160.40104166666666,160.73020833333334,56.0,85.0
846,160.65104166666666,160.98854166666666,51.0,86.0
847,160.90104166666666,161.178125,56.0,84.0
848,160.90104166666666,161.3,60.0,84.0
849,159.65104166666666,161.54166666666666,44.0,84.0
850,161.40104166666666,161.571875,60.0,55.0
851,160.90104166666666,161.609375,63.0,86.0
852,161.15104166666666,161.61875,51.0,81.0
853,161.40104166666666,161.62604166666665,56.0,84.0
854,161.65104166666666,161.946875,37.0,81.0
855,161.65104166666666,162.16666666666666,61.0,83.0
856,161.65104166666666,162.24895833333332,64.0,82.0
857,162.40104166666666,162.71770833333332,56.0,79.0
858,162.65104166666666,162.83541666666667,64.0,89.0
859,162.65104166666666,162.846875,61.0,84.0
860,162.65104166666666,162.87604166666665,68.0,87.0
861,162.15104166666666,162.92604166666666,49.0,74.0
862,162.90104166666666,163.02291666666667,56.0,77.0
863,163.15104166666666,163.28229166666665,61.0,85.0
864,163.40104166666666,163.56354166666665,64.0,73.0
865,163.65104166666666,163.74791666666667,64.0,72.0
866,163.65104166666666,163.94375,61.0,66.0
867,163.65104166666666,164.16354166666667,68.0,82.0
868,164.15104166666666,164.44895833333334,61.0,65.0
869,164.40104166666666,164.53125,64.0,77.0
870,163.90104166666666,164.68645833333332,56.0,77.0
871,164.65104166666666,164.94895833333334,61.0,83.0
872,163.65104166666666,164.975,49.0,86.0
873,164.65104166666666,165.00416666666666,64.0,84.0
874,164.90104166666666,165.015625,56.0,77.0
875,164.65104166666666,165.05416666666667,68.0,83.0
876,165.15104166666666,165.265625,61.0,88.0
877,165.65104166666666,166.00625,63.0,83.0
878,165.65104166666666,166.0125,59.0,79.0
879,166.15104166666666,166.2625,59.0,78.0
880,166.15104166666666,166.30208333333334,66.0,77.0
881,166.40104166666666,166.49479166666666,59.0,69.0
882,166.65104166666666,166.896875,59.0,84.0
883,166.65104166666666,166.959375,63.0,88.0
884,166.90104166666666,167.171875,54.0,72.0
885,165.65104166666666,167.24375,47.0,87.0
886,167.15104166666666,167.49166666666667,59.0,79.0
887,167.40104166666666,167.53125,63.0,76.0
888,167.65104166666666,167.76666666666665,35.0,79.0
889,167.65104166666666,168.04375,59.0,81.0
890,167.65104166666666,168.10208333333333,66.0,76.0
891,167.65104166666666,168.20208333333332,63.0,84.0
892,168.40104166666666,168.715625,54.0,72.0
893,168.65104166666666,168.89895833333333,59.0,84.0
894,168.15104166666666,168.94375,47.0,84.0
895,168.65104166666666,168.96145833333333,63.0,87.0
896,168.65104166666666,168.98020833333334,66.0,83.0
897,168.90104166666666,169.02083333333334,54.0,83.0
898,169.15104166666666,169.34791666666666,59.0,85.0
899,169.65104166666666,169.87083333333334,64.0,78.0
900,169.65104166666666,169.87708333333333,61.0,78.0
901,170.15104166666666,170.47916666666666,57.0,84.0
902,170.40104166666666,170.509375,61.0,72.0
903,169.90104166666666,170.728125,52.0,71.0
904,169.65104166666666,170.76458333333332,45.0,85.0
905,170.65104166666666,170.92708333333334,57.0,83.0
906,170.65104166666666,170.953125,61.0,84.0
907,170.65104166666666,170.99583333333334,64.0,84.0
908,170.90104166666666,171.05833333333334,52.0,81.0
909,171.15104166666666,171.42291666666665,57.0,80.0
910,171.40104166666666,171.553125,64.0,84.0
911,171.65104166666666,171.965625,59.0,75.0
912,171.65104166666666,171.98229166666667,63.0,78.0
913,172.15104166666666,172.2875,59.0,84.0
914,171.90104166666666,172.71145833333333,54.0,79.0
915,171.65104166666666,172.72291666666666,47.0,88.0
916,172.65104166666666,172.934375,59.0,83.0
917,172.65104166666666,172.94270833333334,63.0,85.0
918,172.90104166666666,173.0,54.0,83.0
919,172.65104166666666,173.01354166666667,66.0,83.0
920,173.15104166666666,173.265625,59.0,87.0
921,173.65104166666666,173.740625,37.0,85.0
922,173.65104166666666,174.453125,61.0,77.0
923,173.65104166666666,174.5,64.0,78.0
924,174.65104166666666,174.775,61.0,86.0
925,175.15104166666666,175.234375,61.0,84.0
926,174.40104166666666,175.25104166666665,56.0,77.0
927,174.15104166666666,175.25729166666667,49.0,82.0
928,175.15104166666666,175.36041666666665,64.0,88.0
929,175.40104166666666,175.48541666666665,61.0,78.0
930,175.65104166666666,175.98020833333334,56.0,79.0
931,175.65104166666666,175.99375,61.0,83.0
932,176.15104166666666,176.23854166666666,56.0,70.0
933,175.90104166666666,176.309375,44.0,71.0
934,175.65104166666666,176.540625,37.0,90.0
935,176.40104166666666,176.54166666666666,44.0,65.0
936,176.40104166666666,176.55833333333334,56.0,69.0
937,176.40104166666666,176.56354166666665,61.0,73.0
938,176.65104166666666,176.76041666666666,44.0,78.0
939,176.65104166666666,176.77916666666667,56.0,80.0
940,176.65104166666666,176.78020833333332,61.0,81.0
941,176.65104166666666,176.78125,37.0,81.0
942,176.90104166666666,177.04791666666665,56.0,83.0
943,176.90104166666666,177.05,61.0,85.0
944,176.90104166666666,177.60520833333334,44.0,79.0
945,176.90104166666666,177.61770833333333,37.0,83.0
946,177.15104166666666,177.621875,56.0,86.0
947,177.15104166666666,177.63645833333334,61.0,87.0
948,177.65104166666666,178.003125,59.0,83.0
949,177.65104166666666,178.24583333333334,63.0,84.0
950,178.15104166666666,178.46979166666665,59.0,84.0
951,177.90104166666666,178.778125,51.0,67.0
952,177.65104166666666,178.81770833333334,44.0,94.0
953,178.65104166666666,178.95,59.0,85.0
954,178.65104166666666,178.953125,68.0,85.0
955,178.65104166666666,178.98854166666666,63.0,97.0
956,178.90104166666666,179.03645833333334,51.0,79.0
957,179.15104166666666,179.259375,59.0,83.0
958,179.40104166666666,179.51354166666667,63.0,90.0
959,179.65104166666666,179.96979166666665,59.0,81.0
960,179.65104166666666,180.22291666666666,63.0,85.0
961,179.90104166666666,180.278125,51.0,67.0
962,180.15104166666666,180.41770833333334,59.0,73.0
963,180.40104166666666,180.69583333333333,51.0,71.0
964,179.65104166666666,180.7125,44.0,85.0
965,180.65104166666666,180.91979166666667,59.0,85.0
966,180.65104166666666,181.03645833333334,63.0,90.0
967,180.90104166666666,181.13541666666666,51.0,81.0
968,180.65104166666666,181.15520833333332,68.0,82.0
969,181.15104166666666,181.325,59.0,87.0
970,181.65104166666666,181.97708333333333,61.0,83.0
971,181.65104166666666,181.978125,57.0,83.0
972,182.15104166666666,182.44166666666666,64.0,81.0
973,182.40104166666666,182.47916666666666,61.0,72.0
974,182.15104166666666,182.521875,57.0,83.0
975,181.90104166666666,182.759375,52.0,75.0
976,182.65104166666666,182.89166666666665,57.0,81.0
977,182.65104166666666,182.915625,69.0,84.0
978,182.65104166666666,182.940625,61.0,86.0
979,182.65104166666666,182.946875,64.0,84.0
980,182.90104166666666,183.11041666666665,52.0,82.0
981,181.65104166666666,183.15104166666666,45.0,85.0
982,183.15104166666666,183.44583333333333,57.0,84.0
983,183.40104166666666,183.58125,61.0,79.0
984,183.65104166666666,183.90729166666665,59.0,76.0
985,183.65104166666666,183.91354166666667,63.0,83.0
986,184.15104166666666,184.33229166666666,59.0,82.0
987,184.40104166666666,184.52604166666666,66.0,85.0
988,183.90104166666666,184.73229166666667,54.0,81.0
989,183.65104166666666,184.90833333333333,47.0,84.0
990,184.65104166666666,184.93125,71.0,89.0
991,185.15104166666666,185.365625,54.0,88.0
992,184.90104166666666,185.39166666666665,66.0,88.0
993,185.40104166666666,185.56354166666665,59.0,84.0
994,185.65104166666666,185.79270833333334,59.0,80.0
995,185.65104166666666,185.9625,64.0,83.0
996,185.90104166666666,186.17083333333332,59.0,82.0
997,186.15104166666666,186.46145833333333,64.0,75.0
998,186.40104166666666,186.48958333333334,59.0,77.0
999,186.65104166666666,186.79166666666666,59.0,81.0
1000,185.65104166666666,186.82291666666666,52.0,92.0
1001,186.65104166666666,186.88229166666667,64.0,85.0
1002,186.65104166666666,187.040625,68.0,84.0
1003,186.90104166666666,187.109375,59.0,83.0
1004,187.15104166666666,187.328125,64.0,75.0
1005,187.65104166666666,187.965625,63.0,85.0
1006,188.15104166666666,188.4125,66.0,81.0
1007,188.40104166666666,188.521875,59.0,83.0
1008,187.90104166666666,188.66666666666666,54.0,82.0
1009,188.65104166666666,188.78541666666666,59.0,87.0
1010,187.65104166666666,188.80104166666666,47.0,84.0
1011,188.65104166666666,188.95104166666667,71.0,72.0
1012,188.90104166666666,188.953125,59.0,66.0
1013,189.15104166666666,189.26354166666667,59.0,72.0
1014,189.15104166666666,189.40833333333333,47.0,81.0
1015,189.15104166666666,189.42395833333333,63.0,65.0
1016,189.15104166666666,189.45416666666665,66.0,82.0
1017,189.40104166666666,189.54791666666665,59.0,76.0
1018,189.65104166666666,189.92291666666665,57.0,80.0
1019,189.65104166666666,189.971875,61.0,83.0
1020,190.15104166666666,190.40729166666665,64.0,79.0
1021,190.40104166666666,190.60520833333334,57.0,79.0
1022,190.65104166666666,190.95416666666665,69.0,88.0
1023,190.90104166666666,191.02083333333334,57.0,77.0
1024,189.90104166666666,191.07395833333334,52.0,69.0
1025,189.65104166666666,191.10208333333333,45.0,84.0
1026,191.15104166666666,191.29375,57.0,84.0
1027,191.15104166666666,191.30833333333334,45.0,84.0
1028,191.15104166666666,191.34583333333333,64.0,82.0
1029,191.65104166666666,191.94375,56.0,84.0
1030,191.65104166666666,191.99479166666666,68.0,77.0
1031,192.15104166666666,192.39166666666665,60.0,82.0
1032,192.40104166666666,192.58854166666666,56.0,89.0
1033,192.65104166666666,192.95833333333334,63.0,86.0
1034,192.90104166666666,193.13541666666666,56.0,88.0
1035,191.65104166666666,193.59270833333332,44.0,89.0
1036,193.15104166666666,193.61041666666665,68.0,82.0
1037,191.90104166666666,193.61145833333333,51.0,71.0
1038,193.90104166666666,194.196875,56.0,71.0
1039,193.65104166666666,194.221875,64.0,79.0
1040,194.15104166666666,194.59583333333333,61.0,88.0
1041,194.40104166666666,194.703125,56.0,77.0
1042,194.90104166666666,195.15625,56.0,63.0
1043,193.65104166666666,195.18020833333333,49.0,83.0
1044,194.65104166666666,195.24270833333333,68.0,85.0
1045,195.15104166666666,195.41770833333334,61.0,83.0
1046,195.65104166666666,196.19791666666666,63.0,80.0
1047,195.90104166666666,196.203125,51.0,53.0
1048,195.65104166666666,196.65416666666667,44.0,84.0
1049,196.15104166666666,196.68958333333333,59.0,84.0
1050,196.40104166666666,196.71145833333333,51.0,70.0
1051,196.65104166666666,196.91979166666667,63.0,72.0
1052,196.90104166666666,197.11875,51.0,71.0
1053,196.65104166666666,197.21145833333333,68.0,83.0
1054,197.15104166666666,197.41770833333334,59.0,85.0
1055,197.90104166666666,198.240625,56.0,71.0
1056,197.65104166666666,198.253125,64.0,79.0
1057,198.40104166666666,198.83229166666666,56.0,74.0
1058,198.15104166666666,198.97604166666667,61.0,87.0
1059,198.90104166666666,199.32604166666667,56.0,68.0
1060,197.65104166666666,199.44791666666666,49.0,79.0
1061,199.15104166666666,199.57916666666665,61.0,85.0
1062,198.65104166666666,199.5875,68.0,88.0
1063,199.65104166666666,200.21666666666667,64.0,77.0
1064,199.90104166666666,200.21875,56.0,60.0
1065,200.15104166666666,200.475,61.0,84.0
1066,200.40104166666666,200.690625,56.0,67.0
1067,200.65104166666666,200.93229166666666,61.0,85.0
1068,200.65104166666666,201.03125,68.0,73.0
1069,200.90104166666666,201.14166666666665,56.0,68.0
1070,199.65104166666666,201.175,49.0,78.0
1071,201.15104166666666,201.28645833333334,61.0,75.0
1072,201.15104166666666,201.39375,64.0,79.0
1073,201.40104166666666,201.5125,61.0,82.0
1074,201.65104166666666,201.94583333333333,59.0,82.0
1075,201.65104166666666,202.03958333333333,63.0,79.0
1076,201.90104166666666,202.24479166666666,54.0,76.0
1077,202.15104166666666,202.434375,63.0,78.0
1078,202.40104166666666,202.73125,54.0,70.0
1079,202.65104166666666,202.92291666666665,59.0,80.0
1080,202.65104166666666,202.92708333333334,66.0,84.0
1081,203.15104166666666,203.425,59.0,84.0
1082,202.90104166666666,203.49270833333333,54.0,78.0
1083,201.65104166666666,203.515625,47.0,83.0
1084,203.65104166666666,203.92916666666667,59.0,80.0
1085,203.65104166666666,204.02916666666667,63.0,84.0
1086,204.15104166666666,204.42916666666667,59.0,85.0
1087,203.65104166666666,204.49270833333333,47.0,84.0
1088,203.90104166666666,204.54166666666666,54.0,71.0
1089,204.40104166666666,204.57708333333332,63.0,83.0
1090,204.65104166666666,205.0125,61.0,79.0
1091,204.90104166666666,205.1625,56.0,73.0
1092,204.65104166666666,205.22187499999998,64.0,82.0
1093,204.65104166666666,205.28958333333333,49.0,83.0
1094,205.15104166666666,205.44895833333334,61.0,84.0
1095,205.40104166666666,205.590625,64.0,78.0
1096,205.65104166666666,205.946875,59.0,79.0
1097,205.90104166666666,206.21041666666667,54.0,72.0
1098,205.65104166666666,206.23125,63.0,75.0
1099,206.15104166666666,206.40208333333334,59.0,84.0
1100,206.40104166666666,206.70729166666666,54.0,76.0
1101,206.65104166666666,206.94062499999998,59.0,82.0
1102,206.65104166666666,206.978125,63.0,85.0
1103,206.65104166666666,207.059375,66.0,84.0
1104,205.65104166666666,207.27083333333334,47.0,83.0
1105,207.15104166666666,207.48125,59.0,84.0
1106,206.90104166666666,207.5,54.0,77.0
1107,207.40104166666666,207.6,63.0,87.0
1108,207.65104166666666,207.928125,64.0,83.0
1109,207.65104166666666,207.95104166666667,61.0,81.0
1110,207.90104166666666,208.22395833333334,56.0,71.0
1111,208.15104166666666,208.47083333333333,61.0,86.0
1112,208.40104166666666,208.67708333333334,56.0,71.0
1113,208.65104166666666,208.94062499999998,61.0,78.0
1114,208.65104166666666,208.96875,64.0,77.0
1115,208.90104166666666,209.09479166666665,56.0,74.0
1116,208.65104166666666,209.10416666666666,68.0,80.0
1117,207.65104166666666,209.15729166666665,49.0,84.0
1118,209.15104166666666,209.28125,61.0,85.0
1119,209.65104166666666,209.91666666666666,59.0,79.0
1120,209.65104166666666,210.20833333333334,63.0,77.0
1121,210.15104166666666,210.45416666666665,59.0,85.0
1122,209.65104166666666,210.48645833333333,47.0,80.0
1123,209.90104166666666,210.53125,54.0,77.0
1124,210.40104166666666,210.56875,63.0,84.0
1125,210.65104166666666,210.98749999999998,61.0,80.0
1126,210.65104166666666,211.19791666666666,64.0,82.0
1127,210.65104166666666,211.24479166666666,49.0,84.0
1128,210.90104166666666,211.28541666666666,56.0,69.0
1129,211.15104166666666,211.50625,61.0,87.0
1130,211.65104166666666,211.83020833333333,63.0,84.0
1131,211.65104166666666,212.0125,66.0,84.0
1132,211.90104166666666,212.17083333333332,63.0,80.0
1133,211.65104166666666,212.46770833333332,51.0,72.0
1134,212.15104166666666,212.50208333333333,66.0,81.0
1135,212.65104166666666,212.81666666666666,59.0,84.0
1136,212.65104166666666,212.98020833333334,64.0,84.0
1137,212.90104166666666,213.09791666666666,59.0,78.0
1138,213.15104166666666,213.45520833333333,68.0,90.0
1139,212.65104166666666,213.53333333333333,52.0,78.0
1140,213.40104166666666,213.54791666666665,59.0,84.0
1141,213.65104166666666,213.85729166666667,59.0,66.0
1142,213.65104166666666,213.86041666666665,54.0,69.0
1143,213.65104166666666,214.16666666666666,63.0,66.0
1144,213.90104166666666,214.278125,54.0,78.0
1145,214.15104166666666,214.45624999999998,59.0,89.0
1146,214.40104166666666,214.67604166666666,54.0,76.0
1147,213.65104166666666,214.871875,47.0,79.0
1148,214.65104166666666,214.90208333333334,59.0,82.0
1149,214.65104166666666,214.95208333333332,63.0,85.0
1150,214.65104166666666,215.06562499999998,66.0,85.0
1151,215.15104166666666,215.47187499999998,59.0,84.0
1152,214.90104166666666,215.53854166666667,54.0,75.0
1153,215.40104166666666,215.57291666666666,63.0,92.0
1154,215.65104166666666,215.95208333333332,61.0,80.0
1155,215.65104166666666,215.965625,64.0,83.0
1156,215.90104166666666,216.16875,56.0,72.0
1157,216.15104166666666,216.31875,61.0,89.0
1158,216.40104166666666,216.70624999999998,56.0,76.0
1159,215.65104166666666,216.82291666666666,49.0,84.0
1160,216.65104166666666,216.928125,61.0,85.0
1161,216.65104166666666,216.96458333333334,64.0,84.0
1162,216.65104166666666,217.0375,68.0,84.0
1163,217.15104166666666,217.28020833333332,61.0,84.0
1164,217.40104166666666,217.53229166666665,64.0,72.0
1165,216.90104166666666,217.55208333333334,56.0,75.0
1166,216.90104166666666,217.58020833333333,49.0,49.0
1167,217.65104166666666,218.03333333333333,61.0,80.0
1168,217.65104166666666,218.16041666666666,68.0,75.0
1169,217.90104166666666,218.29166666666666,56.0,71.0
1170,217.65104166666666,218.36875,49.0,83.0
1171,218.15104166666666,218.40729166666665,64.0,81.0
1172,218.40104166666666,218.54270833333334,61.0,83.0
1173,218.65104166666666,218.896875,59.0,82.0
1174,218.65104166666666,219.05208333333334,63.0,74.0
1175,218.90104166666666,219.40937499999998,54.0,83.0
1176,219.15104166666666,219.44375,59.0,83.0
1177,218.65104166666666,219.48333333333332,47.0,83.0
1178,219.40104166666666,219.50416666666666,63.0,83.0
1179,219.65104166666666,219.96979166666665,57.0,77.0
1180,219.65104166666666,220.15104166666666,64.0,79.0
1181,219.90104166666666,220.23541666666665,52.0,74.0
1182,220.15104166666666,220.4625,57.0,83.0
1183,220.40104166666666,220.68645833333332,52.0,78.0
1184,220.65104166666666,220.91875,57.0,81.0
1185,220.65104166666666,220.921875,64.0,79.0
1186,220.90104166666666,221.21666666666667,52.0,80.0
1187,219.65104166666666,221.25833333333333,45.0,82.0
1188,221.15104166666666,221.29375,57.0,79.0
1189,221.15104166666666,221.39583333333334,61.0,83.0
1190,221.40104166666666,221.48958333333334,45.0,54.0
1191,221.40104166666666,221.55729166666666,52.0,78.0
1192,221.65104166666666,221.94062499999998,59.0,78.0
1193,221.65104166666666,221.97291666666666,63.0,73.0
1194,221.90104166666666,222.23020833333334,54.0,80.0
1195,222.15104166666666,222.453125,59.0,83.0
1196,222.40104166666666,222.69166666666666,54.0,81.0
1197,221.65104166666666,222.76979166666666,47.0,84.0
1198,222.65104166666666,222.92916666666667,63.0,86.0
1199,222.65104166666666,222.93541666666667,59.0,83.0
1200,223.15104166666666,223.24166666666667,59.0,74.0
1201,222.90104166666666,223.26666666666665,54.0,77.0
1202,223.15104166666666,223.46666666666667,63.0,71.0
1203,223.40104166666666,223.55208333333334,59.0,78.0
1204,223.15104166666666,223.62291666666667,66.0,83.0
1205,223.65104166666666,223.93854166666665,64.0,83.0
1206,223.65104166666666,223.95833333333334,61.0,82.0
1207,223.90104166666666,224.20416666666665,56.0,70.0
1208,224.15104166666666,224.41979166666667,61.0,87.0
1209,224.40104166666666,224.69270833333334,56.0,75.0
1210,224.65104166666666,224.87083333333334,61.0,79.0
1211,224.65104166666666,225.07604166666667,68.0,82.0
1212,225.15104166666666,225.27395833333333,61.0,83.0
1213,224.90104166666666,225.44583333333333,56.0,81.0
1214,223.65104166666666,225.47604166666667,49.0,82.0
1215,225.15104166666666,225.48020833333334,64.0,83.0
1216,225.40104166666666,225.66770833333334,61.0,83.0
1217,225.65104166666666,225.66770833333334,61.0,80.0
1218,225.65104166666666,226.16041666666666,68.0,75.0
1219,225.90104166666666,226.29166666666666,56.0,71.0
1220,225.65104166666666,226.36875,49.0,83.0
1221,226.15104166666666,226.40729166666665,64.0,81.0
1222,226.40104166666666,226.54270833333334,61.0,83.0
1223,226.65104166666666,226.896875,59.0,82.0
1224,226.65104166666666,227.05208333333334,63.0,74.0
1225,226.90104166666666,227.40937499999998,54.0,83.0
1226,227.15104166666666,227.44375,59.0,83.0
1227,226.65104166666666,227.48333333333332,47.0,83.0
1228,227.40104166666666,227.50416666666666,63.0,83.0
1229,227.65104166666666,227.96979166666665,57.0,77.0
1230,227.65104166666666,228.15104166666666,64.0,79.0
1231,227.90104166666666,228.23541666666665,52.0,74.0
1232,228.15104166666666,228.4625,57.0,83.0
1233,228.40104166666666,228.68645833333332,52.0,78.0
1234,228.65104166666666,228.91875,57.0,81.0
1235,228.65104166666666,228.921875,64.0,79.0
1236,228.90104166666666,229.21666666666667,52.0,80.0
1237,227.65104166666666,229.25833333333333,45.0,82.0
1238,229.15104166666666,229.29375,57.0,79.0
1239,229.15104166666666,229.39583333333334,61.0,83.0
1240,229.40104166666666,229.48958333333334,45.0,54.0
1241,229.40104166666666,229.55729166666666,52.0,78.0
1242,229.65104166666666,229.94062499999998,59.0,78.0
1243,229.65104166666666,229.97291666666666,63.0,73.0
1244,229.90104166666666,230.23020833333334,54.0,80.0
1245,230.15104166666666,230.453125,59.0,83.0
1246,230.40104166666666,230.69166666666666,54.0,81.0
1247,229.65104166666666,230.76979166666666,47.0,84.0
1248,230.65104166666666,230.92916666666667,63.0,86.0
1249,230.65104166666666,230.93541666666667,59.0,83.0
1250,231.15104166666666,231.24166666666667,59.0,74.0
1251,230.90104166666666,231.26666666666665,54.0,77.0
1252,231.15104166666666,231.46666666666667,63.0,71.0
1253,231.40104166666666,231.55208333333334,59.0,78.0
1254,231.15104166666666,231.62291666666667,66.0,83.0
1255,231.65104166666666,231.93854166666665,64.0,83.0
1256,231.65104166666666,231.95833333333334,61.0,82.0
1257,231.90104166666666,232.20416666666665,56.0,70.0
1258,232.15104166666666,232.41979166666667,61.0,87.0
1259,232.40104166666666,232.69270833333334,56.0,75.0
1260,232.65104166666666,232.87083333333334,61.0,79.0
1261,232.65104166666666,233.07604166666667,68.0,82.0
1262,233.15104166666666,233.27395833333333,61.0,83.0
1263,232.90104166666666,233.44583333333333,56.0,81.0
1264,231.65104166666666,233.47604166666667,49.0,82.0
1265,233.15104166666666,233.48020833333334,64.0,83.0
1266,233.40104166666666,233.66770833333334,61.0,83.0
1267,233.65104166666666,233.66770833333334,61.0,82.0
1268,233.90104166666666,234.28854166666667,56.0,67.0
1269,233.65104166666666,234.29479166666667,68.0,78.0
1270,234.15104166666666,234.5125,61.0,84.0
1271,234.40104166666666,234.73020833333334,56.0,68.0
1272,234.65104166666666,235.18125,64.0,82.0
1273,234.90104166666666,235.19166666666666,56.0,72.0
1274,234.65104166666666,235.209375,68.0,77.0
1275,233.65104166666666,235.30208333333334,49.0,83.0
1276,235.40104166666666,235.50312499999998,64.0,73.0
1277,235.15104166666666,235.521875,61.0,87.0
1278,235.65104166666666,235.94166666666666,59.0,74.0
1279,235.65104166666666,236.19375,63.0,78.0
1280,235.90104166666666,236.28333333333333,54.0,73.0
1281,236.15104166666666,236.453125,59.0,86.0
1282,236.40104166666666,236.72083333333333,54.0,79.0
1283,236.65104166666666,236.965625,59.0,84.0
1284,236.65104166666666,236.96875,66.0,84.0
1285,235.65104166666666,237.16979166666667,47.0,82.0
1286,236.90104166666666,237.178125,54.0,80.0
1287,237.15104166666666,237.42916666666667,63.0,94.0
1288,237.40104166666666,237.54791666666665,59.0,85.0
1289,237.65104166666666,238.0125,57.0,83.0
1290,237.65104166666666,238.04791666666665,61.0,80.0
1291,238.15104166666666,238.42916666666667,64.0,88.0
1292,238.40104166666666,238.63020833333334,57.0,78.0
1293,237.90104166666666,238.79479166666667,52.0,82.0
1294,237.65104166666666,239.18229166666666,45.0,80.0
1295,238.90104166666666,239.19479166666667,52.0,81.0
1296,238.65104166666666,239.203125,64.0,83.0
1297,239.15104166666666,239.4625,57.0,84.0
1298,239.40104166666666,239.63958333333332,61.0,79.0
1299,239.65104166666666,240.178125,63.0,84.0
1300,240.15104166666666,240.528125,59.0,85.0
1301,240.40104166666666,240.54791666666665,63.0,87.0
1302,240.65104166666666,240.92604166666666,64.0,77.0
1303,240.90104166666666,241.15,63.0,85.0
1304,239.65104166666666,241.23854166666666,47.0,82.0
1305,239.90104166666666,241.28645833333334,54.0,78.0
1306,241.15104166666666,241.328125,59.0,83.0
1307,241.65104166666666,241.96145833333333,61.0,79.0
1308,241.65104166666666,242.21770833333332,64.0,83.0
1309,241.90104166666666,242.24895833333332,56.0,75.0
1310,242.15104166666666,242.44791666666666,61.0,85.0
1311,242.40104166666666,242.72083333333333,56.0,72.0
1312,242.65104166666666,242.94583333333333,68.0,79.0
1313,242.65104166666666,242.95624999999998,61.0,85.0
1314,242.90104166666666,243.13125,56.0,68.0
1315,241.65104166666666,243.184375,49.0,81.0
1316,243.15104166666666,243.42708333333334,64.0,83.0
1317,243.40104166666666,243.571875,61.0,75.0
1318,243.65104166666666,243.903125,59.0,74.0
1319,243.65104166666666,243.98958333333334,63.0,83.0
1320,243.90104166666666,244.28229166666665,54.0,78.0
1321,244.15104166666666,244.46979166666665,59.0,85.0
1322,244.40104166666666,244.66770833333334,54.0,81.0
1323,243.65104166666666,244.76666666666665,47.0,72.0
1324,244.65104166666666,244.88125,64.0,83.0
1325,244.65104166666666,244.89583333333334,59.0,83.0
1326,244.90104166666666,245.14270833333333,54.0,83.0
1327,245.15104166666666,245.32395833333334,59.0,74.0
1328,245.15104166666666,245.371875,63.0,88.0
1329,245.65104166666666,245.93958333333333,57.0,79.0
1330,245.65104166666666,246.134375,61.0,72.0
1331,246.15104166666666,246.49479166666666,57.0,84.0
1332,246.40104166666666,246.60520833333334,61.0,75.0
1333,245.90104166666666,246.77083333333334,52.0,71.0
1334,246.65104166666666,247.12708333333333,64.0,84.0
1335,247.15104166666666,247.4125,57.0,86.0
1336,245.65104166666666,247.434375,45.0,81.0
1337,246.90104166666666,247.46875,52.0,75.0
1338,247.40104166666666,247.61354166666666,64.0,78.0
1339,247.65104166666666,247.91145833333334,59.0,67.0
1340,247.65104166666666,248.178125,63.0,73.0
1341,248.15104166666666,248.5,59.0,79.0
1342,248.40104166666666,248.69270833333334,63.0,87.0
1343,247.90104166666666,248.778125,54.0,73.0
1344,248.65104166666666,249.16458333333333,64.0,83.0
1345,248.90104166666666,249.28645833333334,54.0,79.0
1346,247.65104166666666,249.30625,47.0,84.0
1347,249.15104166666666,249.37604166666665,63.0,83.0
1348,249.809375,251.41770833333334,73.0,77.0
1349,249.65104166666666,251.50833333333333,49.0,81.0
1350,249.65104166666666,252.17604166666666,61.0,78.0
1351,249.70416666666665,252.2875,68.0,75.0
