,start,end,pitch,velocity
0,28.24668875,28.493441433333334,71.0,127.0
1,28.63629825,28.887921052083335,71.0,127.0
2,29.025907750000002,29.332725231250002,71.0,122.0
3,29.41551725,29.717464612500002,69.0,127.0
4,29.80512675,30.147658435416666,71.0,127.0
5,30.194736250000002,30.449605797916668,69.0,122.0
6,30.58434575,30.9057735875,62.0,107.0
7,30.97395525,31.33109729166667,64.0,102.0
8,31.363564750000002,32.13629025833333,67.0,127.0
9,34.48044075,34.720699941666666,67.0,127.0
10,34.87005025,35.09894583125,67.0,122.0
11,35.259659750000004,35.516152670833335,67.0,127.0
12,35.64926925,35.91712578125,64.0,117.0
13,36.03887875,36.56647494791667,76.0,107.0
14,36.42848825,36.6914746625,74.0,117.0
15,36.81809775,37.09894126458333,74.0,122.0
16,37.20770725,37.579459647916664,69.0,127.0
17,37.597316750000005,39.28075446458333,71.0,127.0
18,40.71419275,40.97068567083333,71.0,127.0
19,41.10380225,41.473931275,71.0,127.0
20,41.49341175,41.80672272291667,69.0,107.0
21,41.88302125,42.193085477083336,71.0,127.0
22,42.272630750000005,43.456069606250004,74.0,127.0
23,43.83106875,44.11515901041667,71.0,127.0
24,44.22067825,44.482041289583336,69.0,127.0
25,44.610287750000005,44.86515729791667,69.0,127.0
26,44.999897250000004,45.259636916666665,67.0,127.0
27,45.38950675,46.233660666666665,64.0,127.0
28,46.947944750000005,47.155736483333335,69.0,127.0
29,47.337554250000004,47.434956625,69.0,122.0
30,47.532359,47.61677439166667,69.0,112.0
31,47.72716375,47.980409925000004,69.0,122.0
32,48.11677325,48.412227120833336,67.0,112.0
33,48.50638275,48.75638217916667,69.0,127.0
34,48.89599225,49.40897809166667,71.0,122.0
35,49.675211250000004,50.00150920625,64.0,127.0
36,50.06482075,51.79208953333333,62.0,107.0
37,53.18169675,53.4057222125,71.0,127.0
38,53.57130625,53.78072135625,71.0,127.0
39,53.96091575,54.15247375416667,71.0,127.0
40,54.350525250000004,54.602148052083336,69.0,117.0
41,54.74013475,55.00799128125,71.0,117.0
42,55.12974425,55.36188657708333,69.0,127.0
43,55.324549000000005,55.482016172916666,71.0,112.0
44,55.51935375,55.82617123125,62.0,122.0
45,55.90896325,56.24337807083334,64.0,112.0
46,56.29857275,57.40571307916667,67.0,127.0
47,59.41544875,59.824538725000004,67.0,127.0
48,59.999863000000005,60.08590176458333,67.0,122.0
49,60.19466775,60.438173687500004,67.0,99.0
50,60.58427725,60.88460123958333,64.0,112.0
51,60.97388675,61.30343145208334,76.0,127.0
52,61.363496250000004,61.63784627291667,74.0,117.0
53,61.75310575,62.01933890833334,74.0,127.0
54,62.53232475,62.980375675000005,69.0,122.0
55,63.116739,65.05179951666666,71.0,127.0
56,65.64920075,65.91543390833334,71.0,122.0
57,66.03881025,66.41056264791666,71.0,117.0
58,66.42841975,66.77744492708334,69.0,107.0
59,66.81802925,67.13621034166667,71.0,127.0
60,67.20763875,68.23361043333334,74.0,127.0
61,68.76607675,69.05016701041667,71.0,127.0
62,69.15568625,69.408932425,69.0,127.0
63,69.54529575000001,69.81477565416667,69.0,127.0
64,69.93490525,70.20438515416667,67.0,127.0
65,70.32451475,71.51769384375,64.0,107.0
66,71.88295275,72.25795189375,69.0,127.0
67,72.467367,72.56314600208333,69.0,127.0
68,72.66217175,72.85210638125,69.0,112.0
69,73.05178125,73.29366381458334,67.0,117.0
70,73.44139075,73.61184490625,69.0,127.0
71,73.83100025,74.01768813541666,69.0,127.0
72,74.025805,74.14106447708333,67.0,112.0
73,74.22060975000001,74.58586865625,62.0,117.0
74,74.61021925,74.93327046041667,64.0,122.0
75,74.99982875,77.01443453958333,67.0,127.0
76,78.11670475,78.53715833541666,74.0,127.0
77,78.701119,78.80014474791668,74.0,112.0
78,78.89592375000001,79.17514389166666,74.0,122.0
79,79.28553325,79.53228593333334,76.0,127.0
80,79.67514275,80.11832355625,79.0,127.0
81,80.259557,80.64267300833333,79.0,127.0
82,81.038776,81.41215177083333,71.0,117.0
83,81.62319025000001,83.61506881875,74.0,127.0
84,84.35045675,84.64591062083333,76.0,127.0
85,84.74006625,85.01279290000001,79.0,127.0
86,85.12967575,85.41376601041667,76.0,127.0
87,85.51928525,85.78064828958334,74.0,112.0
88,85.90889475,86.27415365625001,76.0,127.0
89,86.29850425000001,86.57610101875001,74.0,127.0
90,86.68811375,86.98843773958333,71.0,127.0
91,87.46733275,87.79525407916667,67.0,127.0
92,87.85694225,88.18973369791667,64.0,107.0
93,88.24655175000001,88.54038224791667,71.0,127.0
94,88.63616125,88.88129056041667,67.0,127.0
95,89.02577075,90.1653785375,69.0,127.0
96,90.58420875,90.85206528125,71.0,127.0
97,90.97381825000001,91.33096029166667,71.0,127.0
98,91.36342775,91.7140763,69.0,112.0
99,91.75303725,92.11180266458334,71.0,127.0
100,92.14264675,93.13128085625,74.0,127.0
101,93.70108475,94.00790223125,69.0,127.0
102,94.09069425,94.34718717083334,71.0,127.0
103,94.48030375,94.75952389166667,69.0,127.0
104,94.86991325,95.16374374791667,67.0,127.0
105,95.25952275,96.46406545416667,64.0,117.0
106,96.81796075,97.2173104875,69.0,127.0
107,97.402375,97.50140074791668,69.0,107.0
108,97.59717975000001,97.83094545,69.0,127.0
109,97.98678925,98.25302240833334,71.0,127.0
110,98.37639875,98.67834611250001,69.0,127.0
111,98.76600825,99.00789081458333,67.0,127.0
112,99.15561775,99.68646069375,64.0,127.0
113,99.93483675,100.25951133333334,76.0,127.0
114,100.32444625000001,100.59554952708334,79.0,127.0
115,100.71405575,100.92996434791667,79.0,127.0
116,101.10366525,101.41210610416667,71.0,127.0
117,101.49327475,102.85853137291667,74.0,127.0
118,103.05171275000001,103.47216633541667,74.0,127.0
119,103.636127,103.73515274791667,74.0,112.0
120,103.83093175,104.11015189166667,74.0,122.0
121,104.22054125,104.46729393333334,76.0,127.0
122,104.61015075,105.05333155625,79.0,127.0
123,105.194565,105.57768100833334,79.0,127.0
124,105.97378400000001,106.34715977083334,71.0,117.0
125,106.55819825,108.55007681875,74.0,127.0
126,109.28546475,109.58091862083333,76.0,127.0
127,109.67507425000001,109.9478009,79.0,127.0
128,110.06468375,110.34877401041668,76.0,127.0
129,110.45429325,110.71565628958334,74.0,112.0
130,110.84390275,111.20916165625,76.0,127.0
131,111.23351225,111.51110901875,74.0,127.0
132,111.62312175000001,112.24162683125,71.0,127.0
133,112.40234075000001,112.73026207916666,67.0,127.0
134,112.79195025,113.12474169791668,64.0,107.0
135,113.18155975,113.47539024791666,71.0,127.0
136,113.57116925,113.81629856041667,67.0,127.0
137,113.96077875,115.1003865375,69.0,127.0
138,115.51921675,115.78707328125,71.0,127.0
139,115.90882625,116.26596829166667,71.0,127.0
140,116.29843575000001,116.6490843,69.0,112.0
141,116.68804525,117.04681066458333,71.0,127.0
142,117.07765475000001,118.06628885625,74.0,127.0
143,118.63609275,118.94291023125,69.0,127.0
144,119.02570225000001,119.28219517083333,71.0,127.0
145,119.41531175,119.69453189166667,69.0,127.0
146,119.80492125,120.09875174791667,67.0,127.0
147,120.19453075,121.39907345416667,64.0,117.0
148,121.75296875000001,121.92666965208333,62.0,107.0
149,122.14257825,122.41855164583333,64.0,127.0
150,122.53218775,122.7951741625,64.0,127.0
151,122.92179725,123.15556295,62.0,127.0
152,123.31140675,123.61497748541667,76.0,127.0
153,123.70101625000001,123.9445221875,74.0,127.0
154,124.09062575,124.39419648541667,71.0,127.0
155,124.86984475,125.19289596041666,69.0,127.0
156,125.25945425,125.52731078125001,71.0,127.0
157,125.64906375000001,125.98834868958333,62.0,122.0
158,126.03867325,126.32438688333333,64.0,127.0
159,126.42828275000001,127.90717547708334,67.0,127.0
160,152.92172875,153.1457542125,71.0,127.0
161,153.31133825,153.52075335625,71.0,127.0
162,153.70094775,153.89250575416668,71.0,127.0
163,154.09055725000002,154.34218005208334,69.0,117.0
164,154.48016675,154.74802328125,71.0,117.0
165,154.86977625,155.10191857708332,69.0,127.0
166,155.064581,155.22204817291666,71.0,112.0
167,155.25938575,155.56620323125,62.0,122.0
168,155.64899525,155.98341007083334,64.0,112.0
169,156.03860475,157.14574507916666,67.0,127.0
170,159.15548075,159.564570725,67.0,127.0
171,159.73989500000002,159.82593376458334,67.0,122.0
172,159.93469975,160.1782056875,67.0,99.0
173,160.32430925,160.62463323958335,64.0,112.0
174,160.71391875,161.04346345208333,76.0,127.0
175,161.10352825,161.37787827291666,74.0,117.0
176,161.49313775000002,161.75937090833335,74.0,127.0
177,162.27235675,162.72040767500002,69.0,122.0
178,162.856771,164.79183151666666,71.0,127.0
179,165.38923275,165.65546590833333,71.0,122.0
180,165.77884225,166.15059464791668,71.0,117.0
181,166.16845175,166.51747692708335,69.0,107.0
182,166.55806125,166.87624234166668,71.0,127.0
183,166.94767075000001,167.97364243333334,74.0,127.0
184,168.50610875,168.79019901041667,71.0,127.0
185,168.89571825000002,169.148964425,69.0,127.0
186,169.28532775,169.55480765416667,69.0,127.0
187,169.67493725,169.94441715416667,67.0,127.0
188,170.06454675,171.25772584375,64.0,107.0
189,171.62298475,171.99798389375002,69.0,127.0
190,172.207399,172.30317800208334,69.0,127.0
191,172.40220375,172.59213838125,69.0,112.0
192,172.79181325000002,173.03369581458333,67.0,117.0
193,173.18142275,173.35187690625,69.0,127.0
194,173.57103225,173.75772013541666,69.0,127.0
195,173.765837,173.88109647708333,67.0,112.0
196,173.96064175,174.32590065625,62.0,117.0
197,174.35025125,174.67330246041666,64.0,122.0
198,174.73986075,176.75446653958335,67.0,127.0
199,177.85673675,178.27719033541666,74.0,127.0
200,178.44115100000002,178.54017674791666,74.0,112.0
201,178.63595575,178.91517589166668,74.0,122.0
202,179.02556525,179.27231793333334,76.0,127.0
203,179.41517475,179.85835555625002,79.0,127.0
204,179.99958900000001,180.38270500833335,79.0,127.0
205,180.778808,181.15218377083335,71.0,117.0
206,181.36322225,183.35510081875,74.0,127.0
207,184.09048875,184.38594262083333,76.0,127.0
208,184.48009825,184.7528249,79.0,127.0
209,184.86970775,185.15379801041666,76.0,127.0
210,185.25931725,185.52068028958334,74.0,112.0
211,185.64892675000002,186.01418565625,76.0,127.0
212,186.03853625,186.31613301875,74.0,127.0
213,186.42814575,186.72846973958335,71.0,127.0
214,187.20736475,187.53528607916667,67.0,127.0
215,187.59697425000002,187.92976569791668,64.0,107.0
216,187.98658375,188.28041424791667,71.0,127.0
217,188.37619325,188.62132256041667,67.0,127.0
218,188.76580275,189.90541053750002,69.0,127.0
219,190.32424075,190.59209728125,71.0,127.0
220,190.71385025,191.07099229166667,71.0,127.0
221,191.10345975,191.4541083,69.0,112.0
222,191.49306925000002,191.85183466458335,71.0,127.0
223,191.88267875,192.87131285625,74.0,127.0
224,193.44111675,193.74793423125,69.0,127.0
225,193.83072625,194.08721917083335,71.0,127.0
226,194.22033575,194.49955589166666,69.0,127.0
227,194.60994525,194.90377574791668,67.0,127.0
228,194.99955475000002,196.20409745416669,64.0,117.0
229,196.55799275,196.9573424875,69.0,127.0
230,197.14240700000002,197.24143274791666,69.0,107.0
231,197.33721175,197.57097745000002,69.0,127.0
232,197.72682125,197.99305440833334,71.0,127.0
233,198.11643075,198.4183781125,69.0,127.0
234,198.50604025,198.74792281458335,67.0,127.0
235,198.89564975000002,199.42649269375,64.0,127.0
236,199.67486875,199.99954333333335,76.0,127.0
237,200.06447825,200.33558152708335,79.0,127.0
238,200.45408775,200.66999634791668,79.0,127.0
239,200.84369725000002,201.15213810416668,71.0,127.0
240,201.23330675,202.5985633729167,74.0,127.0
241,202.79174475,203.21219833541667,74.0,127.0
242,203.376159,203.47518474791667,74.0,112.0
243,203.57096375,203.85018389166666,74.0,122.0
244,203.96057325,204.20732593333335,76.0,127.0
245,204.35018275000002,204.79336355625,79.0,127.0
246,204.934597,205.31771300833333,79.0,127.0
247,205.713816,206.08719177083333,71.0,117.0
248,206.29823025000002,208.29010881875,74.0,127.0
249,209.02549675,209.32095062083334,76.0,127.0
250,209.41510625,209.68783290000002,79.0,127.0
251,209.80471575,210.08880601041668,76.0,127.0
252,210.19432525000002,210.45568828958335,74.0,112.0
253,210.58393475,210.94919365625,76.0,127.0
254,210.97354425,211.25114101875002,74.0,127.0
255,211.36315375,211.98165883125,71.0,127.0
256,212.14237275,212.47029407916668,67.0,127.0
257,212.53198225,212.86477369791666,64.0,107.0
258,212.92159175,213.21542224791668,71.0,127.0
259,213.31120125,213.55633056041668,67.0,127.0
260,213.70081075000002,214.8404185375,69.0,127.0
261,215.25924875,215.52710528125002,71.0,127.0
262,215.64885825000002,216.00600029166668,71.0,127.0
263,216.03846775,216.3891163,69.0,112.0
264,216.42807725,216.78684266458333,71.0,127.0
265,216.81768675,217.80632085625,74.0,127.0
266,218.37612475,218.68294223125,69.0,127.0
267,218.76573425,219.02222717083333,71.0,127.0
268,219.15534375000001,219.43456389166667,69.0,127.0
269,219.54495325000002,219.83878374791666,67.0,127.0
270,219.93456275,221.13910545416667,64.0,117.0
271,221.49300075,221.66670165208333,62.0,107.0
272,221.88261025,222.15858364583335,64.0,127.0
273,222.27221975,222.5352061625,64.0,127.0
274,222.66182925,222.89559495,62.0,127.0
275,223.05143875000002,223.35500948541667,76.0,127.0
276,223.44104825,223.6845541875,74.0,127.0
277,223.83065775,224.13422848541668,71.0,127.0
278,224.60987675,224.93292796041666,69.0,127.0
279,224.99948625000002,225.26734278125,71.0,127.0
280,225.38909575,225.72838068958333,62.0,122.0
281,225.77870525,226.06441888333333,64.0,127.0
282,226.16831475,227.64720747708333,67.0,127.0
283,227.72675275,228.14720633541668,74.0,127.0
284,228.311167,228.41019274791668,74.0,112.0
285,228.50597175000001,228.78519189166667,74.0,122.0
286,228.89558125000002,229.14233393333333,76.0,127.0
287,229.28519075,229.72837155625,79.0,127.0
288,229.869605,230.25272100833334,79.0,127.0
289,230.64882400000002,231.02219977083334,71.0,117.0
290,231.23323825,233.22511681875,74.0,127.0
291,233.96050475,234.25595862083335,76.0,127.0
292,234.35011425000002,234.6228409,79.0,127.0
293,234.73972375,235.0238140104167,76.0,127.0
294,235.12933325,235.39069628958333,74.0,112.0
295,235.51894275,235.88420165625,76.0,127.0
296,235.90855225,236.18614901875,74.0,127.0
297,236.29816175000002,236.59848573958334,71.0,127.0
298,237.07738075,237.40530207916666,67.0,127.0
299,237.46699025,237.79978169791667,64.0,107.0
300,237.85659975000002,238.15043024791666,71.0,127.0
301,238.24620925000002,238.49133856041666,67.0,127.0
302,238.63581875,239.7754265375,69.0,127.0
303,240.19425675,240.46211328125,71.0,127.0
304,240.58386625,240.94100829166666,71.0,127.0
305,240.97347575,241.3241243,69.0,112.0
306,241.36308525,241.72185066458334,71.0,127.0
307,241.75269475000002,242.74132885625,74.0,127.0
308,243.31113275,243.61795023125,69.0,127.0
309,243.70074225000002,243.95723517083334,71.0,127.0
310,244.09035175,244.36957189166668,69.0,127.0
311,244.47996125,244.77379174791668,67.0,127.0
312,244.86957075,246.07411345416668,64.0,117.0
313,246.42800875,246.82735848750002,69.0,127.0
314,247.012423,247.11144874791668,69.0,107.0
315,247.20722775000002,247.44099345,69.0,127.0
316,247.59683725000002,247.86307040833333,71.0,127.0
317,247.98644675,248.28839411250001,69.0,127.0
318,248.37605625,248.61793881458334,67.0,127.0
319,248.76566575,249.29650869375,64.0,127.0
320,249.54488475,249.86955933333334,76.0,127.0
321,249.93449425,250.20559752708334,79.0,127.0
322,250.32410375,250.54001234791667,79.0,127.0
323,250.71371325,251.02215410416667,71.0,127.0
324,251.10332275000002,252.46857937291668,74.0,127.0
325,252.66176075,253.08221433541667,74.0,127.0
326,253.246175,253.34520074791666,74.0,112.0
327,253.44097975,253.72019989166668,74.0,122.0
328,253.83058925,254.07734193333334,76.0,127.0
329,254.22019875,254.66337955625002,79.0,127.0
330,254.80461300000002,255.18772900833335,79.0,127.0
331,255.583832,255.95720777083335,71.0,117.0
332,256.16824625,258.16012481875003,74.0,127.0
333,258.89551275,259.19096662083336,76.0,127.0
334,259.28512225000003,259.5578489,79.0,127.0
335,259.67473175000003,259.95882201041667,76.0,127.0
336,260.06434125,260.3257042895833,74.0,112.0
337,260.45395075,260.81920965625,76.0,127.0
338,260.84356025,261.12115701875,74.0,127.0
339,261.23316975,261.85167483125,71.0,127.0
340,261.97667454583336,262.304595875,74.0,127.0
341,262.40199825,262.73478969791665,76.0,107.0
342,262.79160775,263.08543824791667,76.0,127.0
343,263.18121725000003,263.4263465604167,67.0,127.0
344,263.57082675,264.7104345375,69.0,127.0
345,265.12926475,265.39712128125,71.0,127.0
346,265.51887425,265.8760162916667,71.0,127.0
347,265.90848375,266.25913230000003,69.0,112.0
348,266.29809325,266.65685866458335,71.0,127.0
349,266.68770275,267.67633685625003,74.0,127.0
350,268.24614075,268.55295823125,69.0,127.0
351,268.63575025,268.89224317083335,71.0,127.0
352,269.02535975,269.30457989166666,69.0,127.0
353,269.41496925,269.70879974791666,67.0,127.0
354,269.80457875,271.0091214541667,64.0,117.0
355,271.36301675,271.5367176520833,62.0,107.0
356,271.75262625,272.02859964583337,64.0,127.0
357,272.14223575,272.4052221625,64.0,127.0
358,272.53184525,272.76561095,62.0,127.0
359,272.92145475,273.22502548541667,76.0,127.0
360,273.31106425,273.5545701875,74.0,127.0
361,273.70067375,274.0042444854167,71.0,127.0
362,274.47989275000003,274.80294396041666,69.0,127.0
363,274.86950225,275.13735878125,71.0,127.0
364,275.25911175,275.59839668958335,62.0,122.0
365,275.64872125,275.9344348833333,64.0,127.0
366,276.03833075,277.51722347708335,67.0,127.0
367,279.15520675,279.40682955208337,64.0,107.0
368,279.54481625,279.81591952708334,67.0,122.0
369,279.93442575,280.22013938333333,67.0,112.0
370,280.32403525,280.5594243229167,64.0,117.0
371,280.71364475,281.05942318125,76.0,122.0
372,281.10325425,281.4815001395833,74.0,127.0
373,281.49286375,281.9344211833333,71.0,122.0
374,282.27208275,282.86136711875,69.0,127.0
375,283.05130175,283.460391725,71.0,127.0
376,285.38895875000003,286.16006088541667,62.0,112.0
377,286.16817775,286.94577337708336,64.0,100.0
378,286.94739675,289.343495175,67.0,127.0
