,start,end,pitch,velocity
0,3.3116807500000003,4.7191450687500005,43.0,97.0
1,3.70129025,4.808430579166667,50.0,78.0
2,4.48050925,4.8620018854166664,55.0,102.0
3,4.09089975,4.891222597916667,62.0,117.0
4,5.25972825,5.962648722916667,50.0,75.0
5,4.8701187500000005,6.006479791666667,43.0,92.0
6,5.64933775,6.451283970833334,71.0,122.0
7,6.0389472500000005,6.462647581250001,67.0,96.0
8,6.42855675,7.88472225625,40.0,97.0
9,7.207775750000001,7.935046816666667,59.0,100.0
10,7.59738525,7.949657172916667,55.0,88.0
11,6.81816625,8.00160510625,47.0,63.0
12,8.76621375,9.058420875,52.0,70.0
13,8.37660425,9.074654604166668,47.0,52.0
14,7.98699475,9.120109045833333,40.0,86.0
15,8.76621375,9.568159970833333,67.0,97.0
16,9.155823250000001,9.571406716666667,64.0,86.0
17,8.76621375,9.579523581250001,71.0,97.0
18,9.54543275,10.69965089375,36.0,86.0
19,9.93504225,10.732118352083333,43.0,59.0
20,10.324651750000001,11.043805952083334,60.0,89.0
21,10.324651750000001,11.050299443750001,64.0,95.0
22,10.71426125,11.162312175,55.0,88.0
23,11.10387075,12.202894214583333,38.0,86.0
24,11.493480250000001,12.2045175875,45.0,71.0
25,11.88308975,12.540555781250001,50.0,72.0
26,12.27269925,12.685035970833333,62.0,82.0
27,11.88308975,12.719126802083334,66.0,127.0
28,13.44152775,14.436655347916668,55.0,97.0
29,13.831137250000001,14.553538197916668,62.0,99.0
30,14.22074675,14.8733426625,71.0,122.0
31,14.61035625,15.01457610625,55.0,88.0
32,12.662308750000001,15.196393872916667,43.0,86.0
33,13.05191825,15.313276722916667,50.0,59.0
34,14.999965750000001,15.736977054166667,67.0,97.0
35,14.999965750000001,15.751587410416667,71.0,112.0
36,15.38957525,15.797041852083334,62.0,112.0
37,16.16879425,16.454507883333335,59.0,99.0
38,16.363599,16.522689545833334,62.0,102.0
39,15.9739895,16.6265854125,54.0,95.0
40,15.77918475,17.209376289583332,47.0,97.0
41,16.94801325,17.290544935416666,62.0,99.0
42,16.7532085,17.300285172916666,54.0,90.0
43,17.142818000000002,17.316518902083335,59.0,93.0
44,16.55840375,17.321389020833333,66.0,127.0
45,17.922037,17.969114814583335,66.0,37.0
46,17.922037,18.098984647916666,62.0,100.0
47,17.72723225,18.173659802083336,59.0,90.0
48,18.311646500000002,18.454503316666667,59.0,86.0
49,17.5324275,18.4674903,54.0,81.0
50,17.33762275,18.524308352083334,47.0,77.0
51,18.50645125,18.801905120833332,66.0,117.0
52,18.11684175,18.83437257916667,71.0,112.0
53,18.701256,18.89768412291667,62.0,102.0
54,19.480475000000002,19.652552529166666,64.0,96.0
55,19.28567025,19.7142407,52.0,92.0
56,19.0908655,19.973980366666666,47.0,86.0
57,19.8700845,19.975603739583335,52.0,95.0
58,18.89606075,19.998330960416666,40.0,75.0
59,19.67527975,20.253200508333332,67.0,122.0
60,20.06488925,20.31326530625,64.0,112.0
61,20.259694,20.405797562500002,62.0,93.0
62,21.038913,21.277548818750002,64.0,65.0
63,20.84410825,21.2824189375,61.0,96.0
64,20.649303500000002,21.344107108333333,49.0,86.0
65,20.45449875,21.582742927083334,37.0,102.0
66,21.4285225,21.62819736875,49.0,67.0
67,21.62332725,21.996703020833333,61.0,95.0
68,21.818132000000002,22.0031965125,64.0,55.0
69,21.23371775,22.01780686875,67.0,54.0
70,22.40254625,22.745077935416667,57.0,90.0
71,22.597351,22.8311167,60.0,81.0
72,22.2077415,23.02105133125,52.0,63.0
73,22.01293675,23.06975251875,45.0,76.0
74,22.79215575,23.4642321375,64.0,89.0
75,23.18176525,23.597348716666666,60.0,95.0
76,23.57137475,24.501567431250002,38.0,66.0
77,24.74020325,25.108708902083333,57.0,83.0
78,23.57137475,25.149293225,62.0,83.0
79,24.35059375,25.162280208333335,66.0,93.0
80,25.51942225,25.946369327083335,55.0,79.0
81,25.714227,25.9966938875,59.0,72.0
82,26.1038365,26.275914029166668,55.0,71.0
83,25.12981275,26.563251035416666,43.0,85.0
84,25.324617500000002,26.697990987500003,50.0,67.0
85,25.90903175,27.32623630625,67.0,90.0
86,26.68825075,27.611949939583333,59.0,66.0
87,26.68825075,28.167143477083336,43.0,72.0
88,27.07786025,28.191494070833333,50.0,44.0
89,27.85707925,28.264545852083334,59.0,54.0
90,27.46746975,28.313247039583334,67.0,92.0
91,26.29864125,28.329480768750003,62.0,81.0
92,28.24668875,29.668763425,43.0,79.0
93,28.63629825,29.84084095416667,50.0,69.0
94,29.025907750000002,30.232073827083333,67.0,100.0
95,29.41551725,30.449605797916668,62.0,97.0
96,30.194736250000002,30.72720256666667,50.0,92.0
97,29.80512675,30.80512446666667,43.0,85.0
98,30.97395525,31.381421852083335,59.0,90.0
99,30.58434575,31.396032208333335,62.0,92.0
100,30.58434575,31.43661653125,67.0,96.0
101,32.14278375,33.09895039791667,52.0,93.0
102,32.922002750000004,33.512910491666666,67.0,97.0
103,33.31161225,33.616806358333335,52.0,71.0
104,32.53239325,33.743429445833335,59.0,88.0
105,31.75317425,33.975571772916666,47.0,88.0
106,31.363564750000002,34.032389825,40.0,92.0
107,33.70122175,34.516154954166666,64.0,89.0
108,33.70122175,34.542128920833335,67.0,89.0
109,34.09083125,34.566479514583335,59.0,89.0
110,34.48044075,35.86030772916667,36.0,74.0
111,34.87005025,35.97232046041667,43.0,48.0
112,35.259659750000004,36.011281410416665,64.0,107.0
113,35.64926925,36.137904497916665,55.0,93.0
114,36.03887875,37.163876181250004,38.0,79.0
115,36.42848825,37.19634363958333,45.0,62.0
116,36.81809775,37.4901741375,50.0,82.0
117,36.81809775,37.5875765125,62.0,83.0
118,36.81809775,37.6070569875,66.0,122.0
119,37.20770725,37.63303095416667,57.0,89.0
120,37.98692625,38.529132804166665,50.0,59.0
121,38.37653575,38.84893726875,55.0,96.0
122,37.597316750000005,39.061599120833336,43.0,83.0
123,38.76614525,39.21581954791667,50.0,64.0
124,39.15575475,39.753155983333336,62.0,79.0
125,39.15575475,39.76776633958333,67.0,95.0
126,38.37653575,39.80185717083334,59.0,88.0
127,39.934973750000005,40.2564015875,55.0,93.0
128,39.15575475,40.40737526875,43.0,75.0
129,39.54536425,40.4901672875,50.0,37.0
130,39.934973750000005,40.52263474583334,67.0,95.0
131,39.934973750000005,40.67685517291667,62.0,89.0
132,40.32458325,40.72717973333334,59.0,96.0
133,40.71419275,42.18659198541667,47.0,72.0
134,41.10380225,42.279124241666665,54.0,85.0
135,41.49341175,42.292111225,62.0,97.0
136,41.88302125,42.31808519166667,59.0,85.0
137,41.49341175,42.33918903958333,66.0,122.0
138,42.66224025,43.18009621041667,54.0,99.0
139,42.272630750000005,43.39113468958333,47.0,82.0
140,43.05184975,43.44308262291667,66.0,127.0
141,43.2466545,43.814835020833335,62.0,97.0
142,43.83106875,45.22067596666667,40.0,78.0
143,44.22067825,45.40574047916667,47.0,63.0
144,44.610287750000005,45.93496005,67.0,92.0
145,44.999897250000004,45.96580413541667,64.0,97.0
146,43.44145925,46.23853078541667,59.0,82.0
147,45.38950675,46.55671187708334,40.0,93.0
148,45.77911625,46.590802708333335,47.0,86.0
149,46.16872575,46.902490308333334,52.0,92.0
150,46.16872575,46.96580185208334,67.0,93.0
151,46.55833525,46.978788835416665,64.0,96.0
152,46.947944750000005,48.37164279791667,45.0,92.0
153,47.337554250000004,48.522616479166665,52.0,53.0
154,47.72716375,48.977160895833336,64.0,107.0
155,48.11677325,49.071316525,60.0,96.0
156,48.311578000000004,49.1979396125,57.0,72.0
157,48.89599225,49.4122248375,52.0,59.0
158,48.50638275,49.47715975416667,45.0,88.0
159,49.675211250000004,50.00313257916667,60.0,86.0
160,49.285601750000005,50.004755952083336,64.0,100.0
161,51.23364925,51.733648108333334,57.0,99.0
162,51.62325875,52.05507594583334,66.0,127.0
163,52.012868250000004,52.4122179875,62.0,112.0
164,50.06482075,52.48039965,38.0,76.0
165,50.45443025,52.51449048125,45.0,58.0
166,52.40247775,52.863515658333334,57.0,102.0
167,52.79208725,53.017736085416665,59.0,85.0
168,50.84403975,53.0355931875,50.0,100.0
169,52.986892000000005,53.21416420833334,57.0,82.0
170,53.96091575,54.501498931250005,55.0,90.0
171,53.18169675,54.7011738,43.0,88.0
172,53.57130625,54.840783870833334,50.0,51.0
173,54.350525250000004,55.376496933333335,67.0,67.0
174,53.96091575,55.41058776458333,71.0,88.0
175,55.51935375,55.75798956875,55.0,81.0
176,55.12974425,55.80669075625,50.0,47.0
177,54.74013475,55.863508808333336,43.0,81.0
178,55.51935375,56.280715647916665,67.0,97.0
179,55.51935375,56.280715647916665,71.0,100.0
180,55.90896325,56.3375337,62.0,86.0
181,57.46740125,57.973893600000004,59.0,90.0
182,57.85701075,58.55506110416667,67.0,117.0
183,57.07779175,58.563177968750004,52.0,88.0
184,58.24662025,58.63135963125,64.0,95.0
185,56.688182250000004,58.96252770625,47.0,44.0
186,56.29857275,58.970644570833336,40.0,82.0
187,58.63622975,59.0940209125,59.0,96.0
188,59.025839250000004,59.37486442708334,55.0,85.0
189,60.19466775,60.50797872291667,48.0,75.0
190,59.80505825,60.66544589583334,55.0,81.0
191,59.41544875,60.824536441666666,36.0,93.0
192,60.19466775,60.957653020833334,64.0,102.0
193,59.80505825,60.980380241666666,43.0,66.0
194,60.58427725,60.9836269875,60.0,99.0
195,60.97388675,62.04693624791667,38.0,74.0
196,61.363496250000004,62.058299858333335,45.0,44.0
197,61.75310575,62.48037681666667,50.0,78.0
198,61.75310575,62.519337766666666,66.0,127.0
199,62.14271525,62.574532445833334,62.0,97.0
200,63.31154375,63.957646170833335,55.0,88.0
201,63.701153250000004,64.1297237,59.0,92.0
202,64.09076275,64.59076160833334,67.0,112.0
203,64.09076275,64.59563172708333,62.0,107.0
204,62.53232475,65.10699419583334,43.0,82.0
205,62.92193425,65.16705899375,50.0,69.0
206,64.48037225,65.39108445625,55.0,100.0
207,64.86998175000001,65.42030516875,67.0,102.0
208,65.25959125,65.6979019375,62.0,102.0
209,65.64920075,67.1199766125,47.0,82.0
210,66.03881025,67.26121005625001,54.0,90.0
211,66.42841975,67.66055979375,66.0,127.0
212,66.81802925,67.82452045833334,62.0,112.0
213,67.59724825,68.26283114583333,54.0,92.0
214,67.20763875,68.59237584791667,47.0,78.0
215,67.98685775,68.71412881666667,66.0,127.0
216,68.37646725,68.75795988541667,62.0,96.0
217,69.54529575000001,69.94789223333333,52.0,99.0
218,68.76607675,69.94951560625,40.0,85.0
219,69.15568625,69.95763247083333,47.0,74.0
220,69.93490525,70.35860558125,55.0,107.0
221,70.32451475,71.39594087500001,37.0,94.0
222,70.72711123333333,71.54042106458334,49.0,92.0
223,71.10373375,71.88457612291667,67.0,77.0
224,71.5030834875,71.92353707291667,57.0,100.0
225,72.27256225000001,72.87483360208334,52.0,57.0
226,71.88295275,72.95113212916667,45.0,82.0
227,72.66217175,73.26281972916667,64.0,97.0
228,72.66217175,73.42353364791667,60.0,99.0
229,73.05178125,73.6264552625,57.0,85.0
230,73.44139075,74.48846628125,38.0,86.0
231,73.83100025,74.50794675625,45.0,54.0
232,74.22060975000001,74.65729706458333,50.0,62.0
233,74.61021925,75.05340005625,57.0,72.0
234,74.22060975000001,75.06963378541667,66.0,112.0
235,74.22060975000001,75.09398437916667,62.0,97.0
236,75.77904775,75.99170960208333,59.0,112.0
237,75.9738525,76.06963150208334,62.0,99.0
238,76.16865725,76.29203359166667,67.0,117.0
239,76.363462,76.55826675,71.0,127.0
240,75.584243,76.69625344791667,55.0,96.0
241,76.55826675,76.84073363750001,74.0,122.0
242,76.7530715,76.93488926666667,71.0,117.0
243,76.94787625000001,76.98521382708334,67.0,112.0
244,77.142681,77.3472259875,62.0,95.0
245,77.33748575,77.51443339791668,59.0,99.0
246,77.5322905,77.74495235208333,57.0,95.0
247,77.72709525,77.9511207125,59.0,117.0
248,74.99982875,78.01605562916667,43.0,96.0
249,77.92190000000001,78.04689971458333,55.0,102.0
250,75.38943825,78.07936717291666,50.0,69.0
251,78.50631425,78.94300156458334,55.0,107.0
252,78.701119,78.98520926041667,62.0,97.0
253,79.0907285,79.26929952083333,55.0,112.0
254,78.11670475,79.47871462708333,43.0,102.0
255,78.89592375000001,79.5874806125,71.0,127.0
256,78.3115095,79.6264415625,50.0,99.0
257,79.28553325,79.74007766666666,67.0,97.0
258,79.480338,79.85209039791667,62.0,112.0
259,80.06475225,80.52741353125,55.0,97.0
260,80.259557,80.54527063333333,62.0,96.0
261,79.67514275,80.77741296041667,43.0,96.0
262,79.86994750000001,80.78715319791667,50.0,89.0
263,80.6491665,80.91539965833334,55.0,107.0
264,80.45436175,81.11020440833333,71.0,122.0
265,80.84397125,81.11507452708334,67.0,107.0
266,81.038776,81.253061225,62.0,100.0
267,81.62319025000001,81.95273495208333,59.0,96.0
268,81.817995,81.97708554583333,62.0,102.0
269,81.4283855,82.06474768333334,54.0,93.0
270,81.23358075,82.63779832291667,47.0,83.0
271,82.2076045,82.74818768125,54.0,96.0
272,82.40240925,82.75305780000001,62.0,100.0
273,82.59721400000001,82.75792791875,59.0,93.0
274,82.01279975,82.78877200416667,66.0,127.0
275,83.376433,83.52578330833333,71.0,100.0
276,83.18162825,83.63454929375,59.0,97.0
277,83.57123775000001,83.87156173958334,74.0,69.0
278,83.7660425,83.88941884166667,59.0,112.0
279,82.9868235,83.93487328333333,54.0,85.0
280,82.79201875,83.99493808125,47.0,79.0
281,83.57123775000001,84.26928810416666,78.0,127.0
282,83.96084725,84.32935290208333,71.0,95.0
283,84.155652,84.35857361458334,74.0,127.0
284,84.74006625,85.18487042916666,52.0,102.0
285,84.934871,85.20272753125,59.0,70.0
286,85.3244805,85.49818140208333,52.0,93.0
287,85.12967575,85.59071365833334,64.0,99.0
288,85.12967575,85.59883052291667,67.0,122.0
289,84.35045675,85.73844059375,40.0,86.0
290,85.51928525,85.83746634166667,59.0,92.0
291,85.71409,85.8699338,64.0,96.0
292,85.71409,85.91376486875001,67.0,95.0
293,84.54526150000001,85.93162197083333,47.0,78.0
294,86.29850425000001,86.73032144583334,52.0,95.0
295,86.493309,86.78876287083334,71.0,78.0
296,85.90889475,86.94947678958333,40.0,95.0
297,86.1036995,86.9705806375,47.0,95.0
298,86.8829185,87.17999574375,52.0,95.0
299,86.68811375,87.44622890208333,79.0,127.0
300,87.07772325,87.45434576666666,76.0,99.0
301,87.27252800000001,87.51278719166667,71.0,85.0
302,87.85694225,88.16213635833334,57.0,93.0
303,88.051747,88.20596742708334,60.0,93.0
304,87.6621375,88.36992809166667,52.0,81.0
305,88.4413565,88.60207041875,52.0,89.0
306,87.46733275,88.694602675,45.0,88.0
307,88.63616125,88.86343345833333,60.0,122.0
308,88.24655175000001,88.89752428958333,64.0,100.0
309,88.830966,89.10206927708333,57.0,96.0
310,89.41538025,89.86992466666666,50.0,112.0
311,89.610185,89.92998946458333,57.0,102.0
312,89.02577075,90.23843031875,38.0,89.0
313,89.22057550000001,90.25628742083333,45.0,100.0
314,89.80498975,90.45271554375,66.0,127.0
315,90.19459925,90.49492323958333,62.0,127.0
316,89.99979450000001,90.50953359583333,50.0,100.0
317,90.389404,90.54037768125,57.0,112.0
318,90.97381825000001,91.24816827291667,59.0,89.0
319,91.168623,91.33745378333333,62.0,117.0
320,90.7790135,91.45433663333334,54.0,102.0
321,90.58420875,92.07608846041667,47.0,90.0
322,91.5582325,92.10855591875,54.0,95.0
323,91.75303725,92.13128313958333,62.0,122.0
324,91.36342775,92.15563373333333,66.0,127.0
325,91.94784200000001,92.16050385208334,59.0,95.0
326,92.53225625,92.78225567916667,59.0,95.0
327,92.727061,92.87316456250001,62.0,122.0
328,92.3374515,92.97868380208334,54.0,86.0
329,93.1166705,93.21244950208333,54.0,107.0
330,92.14264675,93.23355335000001,47.0,79.0
331,92.92186575000001,93.46731905,66.0,127.0
332,93.31147525,93.54361757708334,62.0,127.0
333,93.50628,93.78387676875,59.0,102.0
334,94.285499,94.52413481875,59.0,100.0
335,94.09069425,94.53062831041667,52.0,93.0
336,94.67510850000001,94.7822511125,52.0,95.0
337,93.89588950000001,94.80822507916668,47.0,93.0
338,93.70108475,94.86179638541667,40.0,81.0
339,94.48030375,95.10205557708333,67.0,117.0
340,94.86991325,95.10530232291667,62.0,102.0
341,95.064718,95.31958754791667,64.0,107.0
342,95.843937,96.06958583541667,60.0,96.0
343,95.64913225000001,96.11504027708334,48.0,93.0
344,95.4543275,96.30659828125,43.0,82.0
345,95.25952275,96.31309177291666,36.0,86.0
346,96.2335465,96.38289680833334,48.0,96.0
347,96.42835125,96.67348056041666,64.0,117.0
348,96.03874175,96.68484417083333,67.0,127.0
349,96.62315600000001,96.798480275,60.0,100.0
350,97.20757025,97.48841376458334,57.0,89.0
351,97.402375,97.52737471458333,60.0,99.0
352,97.0127655,97.70756910833333,52.0,89.0
353,96.81796075,98.23841205208333,45.0,81.0
354,97.7919845,98.29685347708333,52.0,88.0
355,97.59717975000001,98.3276975625,64.0,112.0
356,97.98678925,98.34230791875001,60.0,112.0
357,98.181594,98.35367152916668,57.0,102.0
358,98.76600825,99.03224140833333,57.0,107.0
359,98.960813,99.18321508958334,64.0,107.0
360,98.57120350000001,99.27737071875,52.0,72.0
361,98.37639875,99.41373404375,45.0,88.0
362,99.35042250000001,99.54847399583333,69.0,99.0
363,99.15561775,99.90236929166667,72.0,127.0
364,99.740032,99.91048615625,69.0,122.0
365,99.54522725,99.93159000416667,64.0,86.0
366,100.32444625000001,100.73678297083333,48.0,97.0
367,100.519251,100.77899066666667,55.0,95.0
368,100.9088605,101.08905489375,48.0,102.0
369,99.93483675,101.31145698333334,36.0,88.0
370,101.10366525,101.39100225625,60.0,102.0
371,100.71405575,101.39100225625,64.0,127.0
372,100.1296415,101.39262562916667,43.0,89.0
373,101.29847000000001,101.44944368125,55.0,97.0
374,102.077689,102.19457185,69.0,100.0
375,102.077689,102.20106534166666,66.0,122.0
376,101.88288425,102.3114547,50.0,100.0
377,101.49327475,102.60041507916667,38.0,88.0
378,101.6880795,102.61502543541667,45.0,95.0
379,102.27249375000001,102.68483047083333,66.0,127.0
380,102.4672985,102.74489526875,50.0,112.0
381,102.27249375000001,103.01112842708334,69.0,127.0
382,102.66210325,103.03385564791667,62.0,112.0
383,102.856908,103.04034913958334,66.0,127.0
384,103.44132225,103.86664595416667,55.0,95.0
385,103.636127,103.93320424375,62.0,99.0
386,104.02573650000001,104.201060775,55.0,95.0
387,103.05171275000001,104.5224886125,43.0,89.0
388,103.83093175,104.6004105125,71.0,117.0
389,103.2465175,104.6491117,50.0,79.0
390,104.22054125,104.79196851666667,67.0,112.0
391,104.415346,104.80333212708334,62.0,112.0
392,104.99976025000001,105.45268129375,55.0,92.0
393,105.194565,105.47540851458334,62.0,100.0
394,104.61015075,105.69618723125001,43.0,89.0
395,104.8049555,105.72378457083333,50.0,83.0
396,105.5841745,105.91047245625,55.0,95.0
397,105.38936975,106.03709554375,71.0,122.0
398,105.77897925,106.06469288333334,67.0,127.0
399,105.97378400000001,106.19293934375,62.0,127.0
400,106.753003,106.90722342708334,62.0,117.0
401,106.55819825,106.92508052916666,59.0,95.0
402,106.3633935,106.9867687,54.0,86.0
403,106.94780775000001,107.40884565833333,66.0,122.0
404,106.16858875,107.57280632291668,47.0,85.0
405,107.1426125,107.68481905416667,54.0,99.0
406,107.532222,107.82929924375,59.0,97.0
407,107.33741725,107.93157173750001,62.0,107.0
408,108.11663625,108.32929810208334,59.0,77.0
409,108.311441,108.42994722291667,62.0,102.0
410,108.311441,108.43481734166667,66.0,117.0
411,107.9218315,108.55819368333334,54.0,95.0
412,108.70105050000001,108.80007624791666,54.0,112.0
413,107.72702675000001,108.83092033333334,47.0,85.0
414,108.50624575,108.92020584375,62.0,99.0
415,108.50624575,109.08903662708333,66.0,122.0
416,109.09066,109.25949078333333,62.0,100.0
417,108.89585525,109.33741268333334,59.0,107.0
418,109.67507425000001,110.09877458125,52.0,88.0
419,109.869879,110.16533287083334,59.0,96.0
420,110.2594885,110.47539709791667,52.0,93.0
421,109.28546475,110.74163025625,40.0,86.0
422,110.06468375,110.81792878333334,67.0,107.0
423,109.4802695,110.86662997083333,47.0,63.0
424,110.45429325,110.91046103958334,64.0,99.0
425,110.64909800000001,110.93318826041667,59.0,107.0
426,111.23351225,111.65883595416668,52.0,90.0
427,111.428317,111.68805666666667,59.0,82.0
428,111.0387075,111.86825106041667,47.0,79.0
429,110.84390275,111.87799129791667,40.0,76.0
430,111.8179265,112.03545847083333,52.0,90.0
431,112.01273125,112.32441885,64.0,117.0
432,111.62312175000001,112.33902920625,67.0,127.0
433,112.207536,112.42019785208333,59.0,97.0
434,112.79195025,113.0744171375,57.0,81.0
435,112.986755,113.17993637708334,60.0,100.0
436,112.5971455,113.22863756458334,52.0,75.0
437,113.37636450000001,113.51435119791667,52.0,90.0
438,112.40234075000001,113.53220830000001,45.0,74.0
439,113.57116925,113.81792193333334,60.0,112.0
440,113.18155975,113.83090891666667,64.0,117.0
441,113.765974,113.99486958125,57.0,99.0
442,114.545193,114.74324449583334,57.0,102.0
443,114.35038825000001,114.80330929375,50.0,100.0
444,114.1555835,115.05980221458334,45.0,81.0
445,113.96077875,115.06791907916667,38.0,78.0
446,114.9348025,115.14259423333334,50.0,100.0
447,115.12960725,115.35038596666666,62.0,99.0
448,114.73999775,115.40720401875001,66.0,127.0
449,115.32441200000001,115.55493095416666,64.0,92.0
450,115.90882625,116.17668278125001,59.0,90.0
451,116.10363100000001,116.2692150375,62.0,112.0
452,115.7140215,116.37148753125,54.0,78.0
453,115.51921675,116.96726539166667,47.0,82.0
454,116.4932405,117.01596657916667,54.0,86.0
455,116.29843575000001,117.04031717291667,66.0,127.0
456,116.68804525,117.05655090208333,62.0,102.0
457,116.88285,117.08577161458334,59.0,107.0
458,117.46726425,117.720510425,59.0,90.0
459,117.662069,117.8081725625,62.0,100.0
460,117.2724595,117.92180866666666,54.0,78.0
461,118.05167850000001,118.15719773958334,54.0,100.0
462,117.07765475000001,118.17992496041667,47.0,79.0
463,117.85687375,118.40719716875,66.0,122.0
464,118.24648325,118.48674244166666,62.0,112.0
465,118.441288,118.72700163333333,59.0,99.0
466,119.02570225000001,119.45751944583334,52.0,92.0
467,119.220507,119.52083098958333,59.0,96.0
468,118.8308975,119.72699935,47.0,90.0
469,119.6101165,119.72699935,52.0,107.0
470,118.63609275,119.76758367291667,40.0,81.0
471,119.41531175,120.10686861250001,67.0,117.0
472,119.80492125,120.17180352916667,64.0,102.0
473,119.99972600000001,120.19453075,59.0,100.0
474,120.77894500000001,120.97212637708334,60.0,86.0
475,120.58414025,121.04842490416667,48.0,97.0
476,120.19453075,121.2172556875,36.0,88.0
477,120.3893355,121.23348941666667,43.0,66.0
478,121.1685545,121.30167107916667,48.0,102.0
479,120.97374975000001,121.60361844166667,67.0,117.0
480,121.36335925,121.60524181458334,64.0,117.0
481,121.558164,121.73024152916668,60.0,102.0
482,122.14257825,122.43965549375001,59.0,92.0
483,122.337383,122.48510993541667,62.0,95.0
484,121.9477735,122.60361615833334,54.0,85.0
485,122.72699250000001,122.83088836666667,54.0,93.0
486,121.75296875000001,122.86010907916668,47.0,85.0
487,122.53218775,123.06140732083334,66.0,122.0
488,122.92179725,123.15718632291667,62.0,99.0
489,123.116602,123.31303012291667,59.0,97.0
490,123.895821,124.11822308958334,59.0,93.0
491,123.70101625000001,124.16043078541666,52.0,97.0
492,123.5062115,124.37471601041668,47.0,90.0
493,123.31140675,124.4120535875,40.0,73.0
494,124.2854305,124.50783258958333,52.0,97.0
495,124.09062575,124.655559525,67.0,122.0
496,124.48023525,124.66854650833334,64.0,112.0
497,124.67504000000001,124.77731249375,59.0,99.0
498,124.86984475,125.04679239791668,45.0,93.0
499,124.86984475,125.33412940416667,64.0,97.0
500,124.86984475,125.44127201666667,60.0,100.0
501,125.25945425,125.56951847708334,57.0,99.0
502,125.64906375000001,125.92666051875,38.0,79.0
503,125.64906375000001,126.44126973333334,62.0,99.0
504,125.64906375000001,126.45912683541667,66.0,127.0
505,127.012697,127.2562029375,59.0,71.0
506,126.81789225,127.29029376875,55.0,92.0
507,127.40230650000001,127.57600740208333,55.0,85.0
508,127.20750175,127.64418906458334,62.0,100.0
509,127.59711125,127.86496778125,59.0,88.0
510,126.42828275000001,127.90879885000001,43.0,81.0
511,127.791916,127.92178583333333,62.0,83.0
512,126.6230875,127.98672075,50.0,65.0
513,127.98672075,129.39418506875,43.0,97.0
514,128.37633025,129.48347057916666,50.0,78.0
515,129.15554925,129.53704188541667,55.0,102.0
516,128.76593975,129.56626259791668,62.0,117.0
517,129.93476825,130.63768872291666,50.0,75.0
518,129.54515875,130.68151979166666,43.0,92.0
519,130.32437775,131.12632397083334,71.0,122.0
520,130.71398725,131.13768758125,67.0,96.0
521,131.10359675,132.55976225625,40.0,97.0
522,131.88281575,132.61008681666667,59.0,100.0
523,132.27242525,132.62469717291668,55.0,88.0
524,131.49320625000001,132.67664510625,47.0,63.0
525,133.44125375000002,133.733460875,52.0,70.0
526,133.05164425,133.74969460416668,47.0,52.0
527,132.66203475,133.79514904583334,40.0,86.0
528,133.44125375000002,134.24319997083333,67.0,97.0
529,133.83086325,134.24644671666667,64.0,86.0
530,133.44125375000002,134.25456358125,71.0,97.0
531,134.22047275,135.37469089375,36.0,86.0
532,134.61008225,135.40715835208334,43.0,59.0
533,134.99969175,135.71884595208334,60.0,89.0
534,134.99969175,135.72533944375002,64.0,95.0
535,135.38930125000002,135.837352175,55.0,88.0
536,135.77891075,136.87793421458335,38.0,86.0
537,136.16852025,136.87955758750002,45.0,71.0
538,136.55812975,137.21559578125002,50.0,72.0
539,136.94773925,137.36007597083335,62.0,82.0
540,136.55812975,137.39416680208333,66.0,127.0
541,138.11656775,139.11169534791668,55.0,97.0
542,138.50617725,139.22857819791668,62.0,99.0
543,138.89578675,139.54838266250002,71.0,122.0
544,139.28539625,139.68961610625,55.0,88.0
545,137.33734875000002,139.87143387291667,43.0,86.0
546,137.72695825,139.98831672291666,50.0,59.0
547,139.67500575,140.41201705416668,67.0,97.0
548,139.67500575,140.42662741041667,71.0,112.0
549,140.06461525,140.47208185208333,62.0,112.0
550,140.84383425000001,141.12954788333334,59.0,99.0
551,141.03863900000002,141.19772954583334,62.0,102.0
552,140.6490295,141.30162541250002,54.0,95.0
553,140.45422475,141.88441628958333,47.0,97.0
554,141.62305325,141.96558493541667,62.0,99.0
555,141.4282485,141.97532517291668,54.0,90.0
556,141.817858,141.99155890208334,59.0,93.0
557,141.23344375,141.99642902083335,66.0,127.0
558,142.597077,142.64415481458335,66.0,37.0
559,142.597077,142.77402464791666,62.0,100.0
560,142.40227225,142.84869980208333,59.0,90.0
561,142.9866865,143.12954331666668,59.0,86.0
562,142.2074675,143.1425303,54.0,81.0
563,142.01266275,143.19934835208335,47.0,77.0
564,143.18149125,143.47694512083334,66.0,117.0
565,142.79188175000002,143.50941257916668,71.0,112.0
566,143.376296,143.57272412291667,62.0,102.0
567,144.155515,144.32759252916668,64.0,96.0
568,143.96071025,144.3892807,52.0,92.0
569,143.7659055,144.64902036666666,47.0,86.0
570,144.54512450000001,144.65064373958333,52.0,95.0
571,143.57110075,144.67337096041666,40.0,75.0
572,144.35031975,144.92824050833335,67.0,122.0
573,144.73992925000002,144.98830530625,64.0,112.0
574,144.934734,145.0808375625,62.0,93.0
575,145.713953,145.95258881875,64.0,65.0
576,145.51914825,145.9574589375,61.0,96.0
577,145.3243435,146.01914710833333,49.0,86.0
578,145.12953875,146.25778292708333,37.0,102.0
579,146.1035625,146.30323736875002,49.0,67.0
580,146.29836725,146.67174302083333,61.0,95.0
581,146.49317200000002,146.6782365125,64.0,55.0
582,145.90875775,146.69284686875,67.0,54.0
583,147.07758625,147.42011793541667,57.0,90.0
584,147.272391,147.5061567,60.0,81.0
585,146.8827815,147.69609133125002,52.0,63.0
586,146.68797675000002,147.74479251875002,45.0,76.0
587,147.46719575,148.1392721375,64.0,89.0
588,147.85680525,148.27238871666668,60.0,95.0
589,148.24641475,149.17660743125,38.0,66.0
590,149.41524325,149.78374890208335,57.0,83.0
591,148.24641475,149.824333225,62.0,83.0
592,149.02563375,149.83732020833332,66.0,93.0
593,150.19446225000002,150.62140932708334,55.0,79.0
594,150.38926700000002,150.6717338875,59.0,72.0
595,150.7788765,150.95095402916667,55.0,71.0
596,149.80485275,151.23829103541667,43.0,85.0
597,149.9996575,151.37303098750002,50.0,67.0
598,150.58407175,152.00127630625,67.0,90.0
599,151.36329075,152.28698993958335,59.0,66.0
600,151.36329075,152.84218347708332,43.0,72.0
601,151.75290025,152.86653407083332,50.0,44.0
602,152.53211925,152.92172875,59.0,54.0
603,150.97368125,152.92172875,62.0,81.0
604,152.14250975000002,152.92172875,67.0,92.0
605,153.70094775,154.24153093125,55.0,90.0
606,152.92172875,154.4412058,43.0,88.0
607,153.31133825,154.58081587083333,50.0,51.0
608,154.09055725000002,155.11652893333334,67.0,67.0
609,153.70094775,155.15061976458333,71.0,88.0
610,155.25938575,155.49802156875,55.0,81.0
611,154.86977625,155.54672275625,50.0,47.0
612,154.48016675,155.60354080833335,43.0,81.0
613,155.25938575,156.02074764791666,67.0,97.0
614,155.25938575,156.02074764791666,71.0,100.0
615,155.64899525,156.0775657,62.0,86.0
616,157.20743325,157.7139256,59.0,90.0
617,157.59704275,158.29509310416668,67.0,117.0
618,156.81782375,158.30320996875,52.0,88.0
619,157.98665225,158.37139163125,64.0,95.0
620,156.42821425,158.70255970625,47.0,44.0
621,156.03860475,158.71067657083333,40.0,82.0
622,158.37626175,158.8340529125,59.0,96.0
623,158.76587125,159.11489642708335,55.0,85.0
624,159.93469975,160.24801072291666,48.0,75.0
625,159.54509025000002,160.40547789583334,55.0,81.0
626,159.15548075,160.56456844166667,36.0,93.0
627,159.93469975,160.69768502083335,64.0,102.0
628,159.54509025000002,160.72041224166668,43.0,66.0
629,160.32430925,160.72365898750002,60.0,99.0
630,160.71391875,161.78696824791666,38.0,74.0
631,161.10352825,161.79833185833334,45.0,44.0
632,161.49313775000002,162.22040881666666,50.0,78.0
633,161.49313775000002,162.25936976666668,66.0,127.0
634,161.88274725,162.31456444583333,62.0,97.0
635,163.05157575,163.69767817083334,55.0,88.0
636,163.44118525000002,163.8697557,59.0,92.0
637,163.83079475,164.33079360833335,67.0,112.0
638,163.83079475,164.33566372708333,62.0,107.0
639,162.27235675,164.84702619583334,43.0,82.0
640,162.66196625,164.90709099375002,50.0,69.0
641,164.22040425,165.13111645625,55.0,100.0
642,164.61001375,165.16033716875,67.0,102.0
643,164.99962325,165.4379339375,62.0,102.0
644,165.38923275,166.8600086125,47.0,82.0
645,165.77884225,167.00124205625,54.0,90.0
646,166.16845175,167.40059179375,66.0,127.0
647,166.55806125,167.56455245833334,62.0,112.0
648,167.33728025,168.00286314583335,54.0,92.0
649,166.94767075000001,168.33240784791667,47.0,78.0
650,167.72688975,168.45416081666667,66.0,127.0
651,168.11649925,168.49799188541667,62.0,96.0
652,169.28532775,169.68792423333335,52.0,99.0
653,168.50610875,169.68954760625002,40.0,85.0
654,168.89571825000002,169.69766447083333,47.0,74.0
655,169.67493725,170.09863758125002,55.0,107.0
656,170.06454675,171.135972875,37.0,117.0
657,170.45415625,171.26746608125,49.0,92.0
658,170.84376575000002,171.62460812291667,67.0,77.0
659,171.23337525,171.66356907291666,61.0,100.0
660,172.01259425,172.61486560208334,52.0,57.0
661,171.62298475,172.69116412916668,45.0,82.0
662,172.40220375,173.00285172916668,64.0,97.0
663,172.40220375,173.16356564791667,60.0,99.0
664,172.79181325000002,173.36648726250002,57.0,85.0
665,173.18142275,174.22849828125,38.0,86.0
666,173.57103225,174.24797875625,45.0,54.0
667,173.96064175,174.39732906458335,50.0,62.0
668,174.35025125,174.79343205625,57.0,72.0
669,173.96064175,174.80966578541668,66.0,112.0
670,173.96064175,174.83401637916668,62.0,97.0
671,175.51907975,175.73174160208333,59.0,112.0
672,175.7138845,175.80966350208334,62.0,99.0
673,175.90868925,176.03206559166668,67.0,117.0
674,176.103494,176.29829875000001,71.0,127.0
675,175.324275,176.43628544791667,55.0,96.0
676,176.29829875000001,176.5807656375,74.0,122.0
677,176.49310350000002,176.67492126666667,71.0,117.0
678,176.68790825,176.72524582708334,67.0,112.0
679,176.882713,177.0872579875,62.0,95.0
680,177.07751775,177.25446539791668,59.0,99.0
681,177.2723225,177.48498435208333,57.0,95.0
682,177.46712725,177.6911527125,59.0,117.0
683,174.73986075,177.75608762916667,43.0,96.0
684,177.661932,177.78693171458335,55.0,102.0
685,175.12947025,177.81939917291666,50.0,69.0
686,178.24634625000002,178.68303356458333,55.0,107.0
687,178.44115100000002,178.72524126041668,62.0,97.0
688,178.8307605,179.00933152083334,55.0,112.0
689,177.85673675,179.21874662708333,43.0,102.0
690,178.63595575,179.32751261250002,71.0,127.0
691,178.0515415,179.3664735625,50.0,99.0
692,179.02556525,179.48010966666666,67.0,97.0
693,179.22037,179.59212239791668,62.0,112.0
694,179.80478425,180.26744553125002,55.0,97.0
695,179.99958900000001,180.28530263333334,62.0,96.0
696,179.41517475,180.51744496041667,43.0,96.0
697,179.6099795,180.52718519791668,50.0,89.0
698,180.3891985,180.65543165833333,55.0,107.0
699,180.19439375000002,180.85023640833333,71.0,122.0
700,180.58400325,180.85510652708334,67.0,107.0
701,180.778808,180.993093225,62.0,100.0
702,181.36322225,181.69276695208333,59.0,96.0
703,181.558027,181.71711754583333,62.0,102.0
704,181.1684175,181.80477968333335,54.0,93.0
705,180.97361275,182.37783032291668,47.0,83.0
706,181.94763650000002,182.48821968125,54.0,96.0
707,182.14244125000002,182.4930898,62.0,100.0
708,182.337246,182.49795991875,59.0,93.0
709,181.75283175,182.52880400416666,66.0,127.0
710,183.116465,183.26581530833334,71.0,100.0
711,182.92166025,183.37458129375,59.0,97.0
712,183.31126975,183.61159373958333,74.0,69.0
713,183.5060745,183.62945084166668,59.0,112.0
714,182.7268555,183.67490528333335,54.0,85.0
715,182.53205075,183.73497008125,47.0,79.0
716,183.31126975,184.00932010416668,78.0,127.0
717,183.70087925,184.06938490208333,71.0,95.0
718,183.89568400000002,184.09860561458333,74.0,127.0
719,184.48009825,184.92490242916668,52.0,102.0
720,184.674903,184.94275953125,59.0,70.0
721,185.0645125,185.23821340208335,52.0,93.0
722,184.86970775,185.33074565833334,64.0,99.0
723,184.86970775,185.33886252291668,67.0,122.0
724,184.09048875,185.47847259375,40.0,86.0
725,185.25931725,185.57749834166668,59.0,92.0
726,185.454122,185.6099658,64.0,96.0
727,185.454122,185.65379686875,67.0,95.0
728,184.2852935,185.67165397083335,47.0,78.0
729,186.03853625,186.47035344583333,52.0,95.0
730,186.233341,186.52879487083334,71.0,78.0
731,185.64892675000002,186.68950878958333,40.0,95.0
732,185.84373150000002,186.7106126375,47.0,95.0
733,186.6229505,186.92002774375,52.0,95.0
734,186.42814575,187.18626090208335,79.0,127.0
735,186.81775525,187.19437776666666,76.0,99.0
736,187.01256,187.25281919166667,71.0,85.0
737,187.59697425000002,187.90216835833334,57.0,93.0
738,187.79177900000002,187.94599942708334,60.0,93.0
739,187.4021695,188.10996009166666,52.0,81.0
740,188.1813885,188.34210241875002,52.0,89.0
741,187.20736475,188.434634675,45.0,88.0
742,188.37619325,188.60346545833335,60.0,122.0
743,187.98658375,188.63755628958333,64.0,100.0
744,188.570998,188.84210127708334,57.0,96.0
745,189.15541225,189.60995666666668,50.0,112.0
746,189.35021700000001,189.67002146458333,57.0,102.0
747,188.76580275,189.97846231875002,38.0,89.0
748,188.9606075,189.99631942083334,45.0,100.0
749,189.54502175000002,190.19274754375002,66.0,127.0
750,189.93463125,190.23495523958334,62.0,127.0
751,189.7398265,190.24956559583333,50.0,100.0
752,190.129436,190.28040968125,57.0,112.0
753,190.71385025,190.98820027291669,59.0,89.0
754,190.908655,191.07748578333334,62.0,117.0
755,190.5190455,191.19436863333334,54.0,102.0
756,190.32424075,191.81612046041667,47.0,90.0
757,191.29826450000002,191.84858791875,54.0,95.0
758,191.49306925000002,191.87131513958334,62.0,122.0
759,191.10345975,191.89566573333335,66.0,127.0
760,191.687874,191.90053585208335,59.0,95.0
761,192.27228825,192.52228767916668,59.0,95.0
762,192.467093,192.6131965625,62.0,122.0
763,192.0774835,192.71871580208335,54.0,86.0
764,192.8567025,192.95248150208334,54.0,107.0
765,191.88267875,192.97358535,47.0,79.0
766,192.66189775,193.20735105,66.0,127.0
767,193.05150725000001,193.28364957708334,62.0,127.0
768,193.24631200000002,193.52390876875,59.0,102.0
769,194.025531,194.26416681875,59.0,100.0
770,193.83072625,194.27066031041667,52.0,93.0
771,194.4151405,194.52228311250002,52.0,95.0
772,193.6359215,194.54825707916666,47.0,93.0
773,193.44111675,194.60182838541667,40.0,81.0
774,194.22033575,194.84208757708333,67.0,117.0
775,194.60994525,194.84533432291667,62.0,102.0
776,194.80475,195.05961954791667,64.0,107.0
777,195.583969,195.80961783541667,60.0,96.0
778,195.38916425,195.85507227708334,48.0,93.0
779,195.19435950000002,196.04663028125,43.0,82.0
780,194.99955475000002,196.05312377291668,36.0,86.0
781,195.9735785,196.12292880833334,48.0,96.0
782,196.16838325,196.41351256041668,64.0,117.0
783,195.77877375,196.42487617083333,67.0,127.0
784,196.363188,196.53851227500002,60.0,100.0
785,196.94760225000002,197.22844576458334,57.0,89.0
786,197.14240700000002,197.26740671458333,60.0,99.0
787,196.7527975,197.44760110833334,52.0,89.0
788,196.55799275,197.97844405208335,45.0,81.0
789,197.5320165,198.03688547708333,52.0,88.0
790,197.33721175,198.0677295625,64.0,112.0
791,197.72682125,198.08233991875,60.0,112.0
792,197.921626,198.09370352916667,57.0,102.0
793,198.50604025,198.77227340833335,57.0,107.0
794,198.70084500000002,198.92324708958333,64.0,107.0
795,198.3112355,199.01740271875,52.0,72.0
796,198.11643075,199.15376604375,45.0,88.0
797,199.0904545,199.28850599583333,69.0,99.0
798,198.89564975000002,199.64240129166666,72.0,127.0
799,199.480064,199.65051815625,69.0,122.0
800,199.28525925,199.67162200416666,64.0,86.0
801,200.06447825,200.47681497083335,48.0,97.0
802,200.259283,200.51902266666667,55.0,95.0
803,200.64889250000002,200.82908689375,48.0,102.0
804,199.67486875,201.05148898333334,36.0,88.0
805,200.84369725000002,201.13103425625002,60.0,102.0
806,200.45408775,201.13103425625002,64.0,127.0
807,199.8696735,201.13265762916666,43.0,89.0
808,201.038502,201.18947568125,55.0,97.0
809,201.817721,201.93460385,69.0,100.0
810,201.817721,201.94109734166668,66.0,122.0
811,201.62291625,202.0514867,50.0,100.0
812,201.23330675,202.34044707916667,38.0,88.0
813,201.4281115,202.35505743541668,45.0,95.0
814,202.01252575,202.42486247083335,66.0,127.0
815,202.2073305,202.48492726875,50.0,112.0
816,202.01252575,202.75116042708333,69.0,127.0
817,202.40213525000001,202.77388764791667,62.0,112.0
818,202.59694000000002,202.78038113958334,66.0,127.0
819,203.18135425,203.60667795416668,55.0,95.0
820,203.376159,203.67323624375,62.0,99.0
821,203.7657685,203.94109277500002,55.0,95.0
822,202.79174475,204.2625206125,43.0,89.0
823,203.57096375,204.3404425125,71.0,117.0
824,202.9865495,204.3891437,50.0,79.0
825,203.96057325,204.53200051666667,67.0,112.0
826,204.155378,204.54336412708335,62.0,112.0
827,204.73979225,205.19271329375002,55.0,92.0
828,204.934597,205.21544051458335,62.0,100.0
829,204.35018275000002,205.43621923125,43.0,89.0
830,204.54498750000002,205.46381657083333,50.0,83.0
831,205.3242065,205.65050445625002,55.0,95.0
832,205.12940175,205.77712754375,71.0,122.0
833,205.51901125,205.80472488333334,67.0,127.0
834,205.713816,205.93297134375,62.0,127.0
835,206.493035,206.64725542708334,62.0,117.0
836,206.29823025000002,206.66511252916666,59.0,95.0
837,206.10342550000001,206.7268007,54.0,86.0
838,206.68783975,207.14887765833333,66.0,122.0
839,205.90862075,207.31283832291666,47.0,85.0
840,206.8826445,207.42485105416668,54.0,99.0
841,207.272254,207.56933124375,59.0,97.0
842,207.07744925,207.6716037375,62.0,107.0
843,207.85666825,208.06933010208334,59.0,77.0
844,208.05147300000002,208.16997922291668,62.0,102.0
845,208.05147300000002,208.1748493416667,66.0,117.0
846,207.6618635,208.29822568333333,54.0,95.0
847,208.4410825,208.54010824791666,54.0,112.0
848,207.46705875,208.57095233333334,47.0,85.0
849,208.24627775000002,208.66023784375,62.0,99.0
850,208.24627775000002,208.82906862708333,66.0,122.0
851,208.830692,208.99952278333333,62.0,100.0
852,208.63588725,209.07744468333334,59.0,107.0
853,209.41510625,209.83880658125,52.0,88.0
854,209.609911,209.90536487083335,59.0,96.0
855,209.99952050000002,210.21542909791668,52.0,93.0
856,209.02549675,210.48166225625002,40.0,86.0
857,209.80471575,210.55796078333333,67.0,107.0
858,209.2203015,210.60666197083333,47.0,63.0
859,210.19432525000002,210.65049303958335,64.0,99.0
860,210.38913,210.67322026041668,59.0,107.0
861,210.97354425,211.39886795416666,52.0,90.0
862,211.168349,211.42808866666667,59.0,82.0
863,210.7787395,211.60828306041668,47.0,79.0
864,210.58393475,211.61802329791666,40.0,76.0
865,211.5579585,211.77549047083335,52.0,90.0
866,211.75276325000002,212.06445085000001,64.0,117.0
867,211.36315375,212.07906120625,67.0,127.0
868,211.94756800000002,212.16022985208335,59.0,97.0
869,212.53198225,212.81444913750002,57.0,81.0
870,212.726787,212.91996837708334,60.0,100.0
871,212.3371775,212.96866956458334,52.0,75.0
872,213.1163965,213.25438319791667,52.0,90.0
873,212.14237275,213.2722403,45.0,74.0
874,213.31120125,213.55795393333335,60.0,112.0
875,212.92159175,213.57094091666667,64.0,117.0
876,213.506006,213.73490158125,57.0,99.0
877,214.285225,214.48327649583334,57.0,102.0
878,214.09042025,214.54334129375002,50.0,100.0
879,213.89561550000002,214.79983421458334,45.0,81.0
880,213.70081075000002,214.80795107916668,38.0,78.0
881,214.6748345,214.88262623333333,50.0,100.0
882,214.86963925,215.09041796666668,62.0,99.0
883,214.48002975,215.14723601875,66.0,127.0
884,215.064444,215.29496295416666,64.0,92.0
885,215.64885825000002,215.91671478125,59.0,90.0
886,215.843663,216.00924703750002,62.0,112.0
887,215.45405350000001,216.11151953125,54.0,78.0
888,215.25924875,216.70729739166669,47.0,82.0
889,216.2332725,216.7559985791667,54.0,86.0
890,216.03846775,216.7803491729167,66.0,127.0
891,216.42807725,216.79658290208334,62.0,102.0
892,216.622882,216.82580361458335,59.0,107.0
893,217.20729625,217.460542425,59.0,90.0
894,217.40210100000002,217.54820456250002,62.0,100.0
895,217.0124915,217.66184066666668,54.0,78.0
896,217.7917105,217.89722973958334,54.0,100.0
897,216.81768675,217.91995696041667,47.0,79.0
898,217.59690575000002,218.14722916875002,66.0,122.0
899,217.98651525,218.22677444166666,62.0,112.0
900,218.18132,218.46703363333333,59.0,99.0
901,218.76573425,219.19755144583334,52.0,92.0
902,218.960539,219.26086298958333,59.0,96.0
903,218.5709295,219.46703135,47.0,90.0
904,219.35014850000002,219.46703135,52.0,107.0
905,218.37612475,219.50761567291667,40.0,81.0
906,219.15534375000001,219.8469006125,67.0,117.0
907,219.54495325000002,219.91183552916667,64.0,102.0
908,219.739758,219.93456275,59.0,100.0
909,220.518977,220.71215837708334,60.0,86.0
910,220.32417225,220.78845690416668,48.0,97.0
911,219.93456275,220.9572876875,36.0,88.0
912,220.1293675,220.97352141666667,43.0,66.0
913,220.9085865,221.04170307916667,48.0,102.0
914,220.71378175,221.34365044166668,67.0,117.0
915,221.10339125000002,221.34527381458335,64.0,117.0
916,221.29819600000002,221.47027352916666,60.0,102.0
917,221.88261025,222.17968749375,59.0,92.0
918,222.077415,222.22514193541667,62.0,95.0
919,221.6878055,222.34364815833334,54.0,85.0
920,222.4670245,222.57092036666668,54.0,93.0
921,221.49300075,222.60014107916666,47.0,85.0
922,222.27221975,222.80143932083334,66.0,122.0
923,222.66182925,222.89721832291667,62.0,99.0
924,222.856634,223.05306212291669,59.0,97.0
925,223.635853,223.85825508958334,59.0,93.0
926,223.44104825,223.90046278541666,52.0,97.0
927,223.24624350000002,224.11474801041666,47.0,90.0
928,223.05143875000002,224.1520855875,40.0,73.0
929,224.0254625,224.24786458958334,52.0,97.0
930,223.83065775,224.39559152500001,67.0,122.0
931,224.22026725,224.40857850833333,64.0,112.0
932,224.415072,224.51734449375002,59.0,99.0
933,224.60987675,224.78682439791666,45.0,93.0
934,224.60987675,225.07416140416666,64.0,97.0
935,224.60987675,225.18130401666667,60.0,100.0
936,224.99948625000002,225.30955047708335,57.0,99.0
937,225.38909575,225.66669251875,38.0,79.0
938,225.38909575,226.18130173333333,62.0,99.0
939,225.38909575,226.19915883541668,66.0,127.0
940,226.75272900000002,226.99623493750002,59.0,71.0
941,226.55792425,227.03032576875,55.0,92.0
942,227.1423385,227.31603940208333,55.0,85.0
943,226.94753375000002,227.38422106458333,62.0,100.0
944,227.33714325,227.60499978125,59.0,88.0
945,226.16831475,227.64883085,43.0,81.0
946,227.531948,227.66181783333334,62.0,83.0
947,226.3631195,227.72675275,50.0,65.0
948,228.11636225,228.55304956458335,55.0,107.0
949,228.311167,228.59525726041667,62.0,97.0
950,228.70077650000002,228.87934752083333,55.0,112.0
951,227.72675275,229.08876262708333,43.0,102.0
952,228.50597175000001,229.1975286125,71.0,127.0
953,227.9215575,229.2364895625,50.0,99.0
954,228.89558125000002,229.35012566666668,67.0,97.0
955,229.090386,229.46213839791668,62.0,112.0
956,229.67480025,230.13746153125,55.0,97.0
957,229.869605,230.15531863333334,62.0,96.0
958,229.28519075,230.38746096041666,43.0,96.0
959,229.4799955,230.39720119791667,50.0,89.0
960,230.2592145,230.52544765833335,55.0,107.0
961,230.06440975,230.72025240833335,71.0,122.0
962,230.45401925000002,230.72512252708333,67.0,107.0
963,230.64882400000002,230.86310922500002,62.0,100.0
964,231.23323825,231.56278295208335,59.0,96.0
965,231.428043,231.58713354583335,62.0,102.0
966,231.0384335,231.67479568333334,54.0,93.0
967,230.84362875,232.24784632291667,47.0,83.0
968,231.8176525,232.35823568125,54.0,96.0
969,232.01245725,232.3631058,62.0,100.0
970,232.20726200000001,232.36797591875,59.0,93.0
971,231.62284775,232.39882000416668,66.0,127.0
972,232.986481,233.13583130833334,71.0,100.0
973,232.79167625,233.24459729375002,59.0,97.0
974,233.18128575,233.48160973958335,74.0,69.0
975,233.3760905,233.49946684166667,59.0,112.0
976,232.59687150000002,233.54492128333334,54.0,85.0
977,232.40206675000002,233.60498608125002,47.0,79.0
978,233.18128575,233.87933610416667,78.0,127.0
979,233.57089525,233.93940090208335,71.0,95.0
980,233.7657,233.96862161458333,74.0,127.0
981,234.35011425000002,234.79491842916667,52.0,102.0
982,234.544919,234.81277553125,59.0,70.0
983,234.9345285,235.10822940208334,52.0,93.0
984,234.73972375,235.20076165833333,64.0,99.0
985,234.73972375,235.20887852291668,67.0,122.0
986,233.96050475,235.34848859375,40.0,86.0
987,235.12933325,235.44751434166668,59.0,92.0
988,235.324138,235.47998180000002,64.0,96.0
989,235.324138,235.52381286875,67.0,95.0
990,234.15530950000002,235.54166997083334,47.0,78.0
991,235.90855225,236.34036944583335,52.0,95.0
992,236.10335700000002,236.39881087083333,71.0,78.0
993,235.51894275,236.55952478958335,40.0,95.0
994,235.7137475,236.5806286375,47.0,95.0
995,236.4929665,236.79004374375,52.0,95.0
996,236.29816175000002,237.05627690208334,79.0,127.0
997,236.68777125,237.06439376666668,76.0,99.0
998,236.882576,237.12283519166667,71.0,85.0
999,237.46699025,237.77218435833333,57.0,93.0
1000,237.661795,237.81601542708333,60.0,93.0
1001,237.2721855,237.97997609166669,52.0,81.0
1002,238.05140450000002,238.21211841875,52.0,89.0
1003,237.07738075,238.304650675,45.0,88.0
1004,238.24620925000002,238.47348145833334,60.0,122.0
1005,237.85659975000002,238.50757228958335,64.0,100.0
1006,238.441014,238.71211727708334,57.0,96.0
1007,239.02542825,239.47997266666667,50.0,112.0
1008,239.220233,239.54003746458335,57.0,102.0
1009,238.63581875,239.84847831875,38.0,89.0
1010,238.8306235,239.86633542083334,45.0,100.0
1011,239.41503775,240.06276354375,66.0,127.0
1012,239.80464725000002,240.10497123958334,62.0,127.0
1013,239.6098425,240.11958159583335,50.0,100.0
1014,239.99945200000002,240.15042568125,57.0,112.0
1015,240.58386625,240.85821627291668,59.0,89.0
1016,240.778671,240.94750178333334,62.0,117.0
1017,240.3890615,241.06438463333333,54.0,102.0
1018,240.19425675,241.68613646041666,47.0,90.0
1019,241.1682805,241.71860391875,54.0,95.0
1020,241.36308525,241.74133113958334,62.0,122.0
1021,240.97347575,241.76568173333334,66.0,127.0
1022,241.55789000000001,241.77055185208334,59.0,95.0
1023,242.14230425,242.39230367916667,59.0,95.0
1024,242.337109,242.4832125625,62.0,122.0
1025,241.94749950000002,242.58873180208334,54.0,86.0
1026,242.7267185,242.82249750208334,54.0,107.0
1027,241.75269475000002,242.84360135,47.0,79.0
1028,242.53191375,243.07736705000002,66.0,127.0
1029,242.92152325,243.15366557708333,62.0,127.0
1030,243.116328,243.39392476875,59.0,102.0
1031,243.895547,244.13418281875002,59.0,100.0
1032,243.70074225000002,244.14067631041667,52.0,93.0
1033,244.2851565,244.3922991125,52.0,95.0
1034,243.50593750000002,244.41827307916668,47.0,93.0
1035,243.31113275,244.4718443854167,40.0,81.0
1036,244.09035175,244.71210357708335,67.0,117.0
1037,244.47996125,244.71535032291666,62.0,102.0
1038,244.674766,244.92963554791666,64.0,107.0
1039,245.45398500000002,245.67963383541667,60.0,96.0
1040,245.25918025000001,245.72508827708333,48.0,93.0
1041,245.0643755,245.91664628125,43.0,82.0
1042,244.86957075,245.92313977291667,36.0,86.0
1043,245.8435945,245.99294480833333,48.0,96.0
1044,246.03839925,246.28352856041667,64.0,117.0
1045,245.64878975000002,246.29489217083335,67.0,127.0
1046,246.233204,246.408528275,60.0,100.0
1047,246.81761825,247.09846176458333,57.0,89.0
1048,247.012423,247.13742271458335,60.0,99.0
1049,246.6228135,247.31761710833334,52.0,89.0
1050,246.42800875,247.84846005208334,45.0,81.0
1051,247.40203250000002,247.90690147708335,52.0,88.0
1052,247.20722775000002,247.9377455625,64.0,112.0
1053,247.59683725000002,247.95235591875002,60.0,112.0
1054,247.791642,247.96371952916667,57.0,102.0
1055,248.37605625,248.64228940833334,57.0,107.0
1056,248.570861,248.79326308958335,64.0,107.0
1057,248.1812515,248.88741871875,52.0,72.0
1058,247.98644675,249.02378204375,45.0,88.0
1059,248.9604705,249.15852199583335,69.0,99.0
1060,248.76566575,249.51241729166668,72.0,127.0
1061,249.35008000000002,249.52053415625,69.0,122.0
1062,249.15527525000002,249.54163800416669,64.0,86.0
1063,249.93449425,250.34683097083334,48.0,97.0
1064,250.129299,250.38903866666666,55.0,95.0
1065,250.5189085,250.69910289375,48.0,102.0
1066,249.54488475,250.92150498333334,36.0,88.0
1067,250.71371325,251.00105025625,60.0,102.0
1068,250.32410375,251.00105025625,64.0,127.0
1069,249.7396895,251.00267362916668,43.0,89.0
1070,250.90851800000002,251.05949168125,55.0,97.0
1071,251.687737,251.80461985,69.0,100.0
1072,251.687737,251.81111334166667,66.0,122.0
1073,251.49293225,251.92150270000002,50.0,100.0
1074,251.10332275000002,252.2104630791667,38.0,88.0
1075,251.29812750000002,252.22507343541668,45.0,95.0
1076,251.88254175,252.29487847083334,66.0,127.0
1077,252.0773465,252.35494326875002,50.0,112.0
1078,251.88254175,252.62117642708333,69.0,127.0
1079,252.27215125,252.6439036479167,62.0,112.0
1080,252.466956,252.65039713958333,66.0,127.0
1081,253.05137025000002,253.47669395416668,55.0,95.0
1082,253.246175,253.54325224375,62.0,99.0
1083,253.6357845,253.811108775,55.0,95.0
1084,252.66176075,254.13253661250002,43.0,89.0
1085,253.44097975,254.2104585125,71.0,117.0
1086,252.85656550000002,254.2591597,50.0,79.0
1087,253.83058925,254.40201651666666,67.0,112.0
1088,254.025394,254.41338012708334,62.0,112.0
1089,254.60980825000001,255.06272929375,55.0,92.0
1090,254.80461300000002,255.08545651458334,62.0,100.0
1091,254.22019875,255.30623523125,43.0,89.0
1092,254.4150035,255.33383257083335,50.0,83.0
1093,255.1942225,255.52052045625,55.0,95.0
1094,254.99941775000002,255.64714354375002,71.0,122.0
1095,255.38902725,255.67474088333333,67.0,127.0
1096,255.583832,255.80298734375,62.0,127.0
1097,256.363051,256.51727142708336,62.0,117.0
1098,256.16824625,256.5351285291667,59.0,95.0
1099,255.9734415,256.59681670000003,54.0,86.0
1100,256.55785575,257.01889365833335,66.0,122.0
1101,255.77863675,257.1828543229167,47.0,85.0
1102,256.7526605,257.2948670541667,54.0,99.0
1103,257.14227,257.43934724375003,59.0,97.0
1104,256.94746525,257.5416197375,62.0,107.0
1105,257.72668425,257.93934610208333,59.0,77.0
1106,257.921489,258.0399952229167,62.0,102.0
1107,257.921489,258.04486534166665,66.0,117.0
1108,257.5318795,258.16824168333335,54.0,95.0
1109,258.3110985,258.41012424791666,54.0,112.0
1110,257.33707475,258.44096833333333,47.0,85.0
1111,258.11629375,258.53025384375,62.0,99.0
1112,258.11629375,258.6990846270833,66.0,122.0
1113,258.700708,258.8695387833333,62.0,100.0
1114,258.50590325,258.94746068333336,59.0,107.0
1115,259.28512225000003,259.70882258125,52.0,88.0
1116,259.47992700000003,259.7753808708333,59.0,96.0
1117,259.8695365,260.08544509791665,52.0,93.0
1118,258.89551275,260.35167825625,40.0,86.0
1119,259.67473175000003,260.42797678333335,67.0,107.0
1120,259.0903175,260.47667797083335,47.0,63.0
1121,260.06434125,260.5205090395833,64.0,99.0
1122,260.259146,260.5432362604167,59.0,107.0
1123,260.84356025,261.26888395416665,52.0,90.0
1124,261.038365,261.2981046666667,59.0,82.0
1125,260.6487555,261.4782990604167,47.0,79.0
1126,260.45395075,261.48803929791666,40.0,76.0
1127,261.4279745,261.64550647083337,52.0,90.0
1128,261.62277925,261.93446685000004,64.0,117.0
1129,261.23316975,261.94907720625,67.0,127.0
1130,261.817584,262.03024585208334,59.0,97.0
1131,262.40199825,262.6844651375,57.0,81.0
1132,262.596803,262.78998437708333,60.0,100.0
1133,262.2071935,262.83868556458333,52.0,75.0
1134,262.98641250000003,263.12439919791666,52.0,90.0
1135,262.01238875,263.1422563,45.0,74.0
1136,263.18121725000003,263.4279699333333,60.0,112.0
1137,262.79160775,263.44095691666666,64.0,117.0
1138,263.37602200000003,263.60491758125,57.0,99.0
1139,264.155241,264.35329249583333,57.0,102.0
1140,263.96043625,264.41335729375,50.0,100.0
1141,263.7656315,264.66985021458333,45.0,81.0
1142,263.57082675,264.67796707916665,38.0,78.0
1143,264.5448505,264.75264223333335,50.0,100.0
1144,264.73965525,264.9604339666667,62.0,99.0
1145,264.35004575,265.01725201875,66.0,127.0
1146,264.93446,265.16497895416666,64.0,92.0
1147,265.51887425,265.78673078125,59.0,90.0
1148,265.713679,265.8792630375,62.0,112.0
1149,265.3240695,265.98153553125,54.0,78.0
1150,265.12926475,266.5773133916667,47.0,82.0
1151,266.1032885,266.6260145791667,54.0,86.0
1152,265.90848375,266.6503651729167,66.0,127.0
1153,266.29809325,266.66659890208336,62.0,102.0
1154,266.492898,266.69581961458334,59.0,107.0
1155,267.07731225000003,267.330558425,59.0,90.0
1156,267.272117,267.4182205625,62.0,100.0
1157,266.88250750000003,267.53185666666667,54.0,78.0
1158,267.6617265,267.76724573958336,54.0,100.0
1159,266.68770275,267.78997296041666,47.0,79.0
1160,267.46692175,268.01724516875,66.0,122.0
1161,267.85653125,268.09679044166666,62.0,112.0
1162,268.051336,268.3370496333333,59.0,99.0
1163,268.63575025,269.06756744583333,52.0,92.0
1164,268.830555,269.1308789895833,59.0,96.0
1165,268.4409455,269.33704735000003,47.0,90.0
1166,269.2201645,269.33704735000003,52.0,107.0
1167,268.24614075,269.37763167291666,40.0,81.0
1168,269.02535975,269.71691661250003,67.0,117.0
1169,269.41496925,269.78185152916666,64.0,102.0
1170,269.609774,269.80457875,59.0,100.0
1171,270.388993,270.58217437708333,60.0,86.0
1172,270.19418825,270.6584729041667,48.0,97.0
1173,269.80457875,270.82730368750003,36.0,88.0
1174,269.9993835,270.84353741666666,43.0,66.0
1175,270.77860250000003,270.9117190791667,48.0,102.0
1176,270.58379775000003,271.21366644166665,67.0,117.0
1177,270.97340725,271.21528981458334,64.0,117.0
1178,271.168212,271.3402895291667,60.0,102.0
1179,271.75262625,272.04970349375003,59.0,92.0
1180,271.947431,272.0951579354167,62.0,95.0
1181,271.5578215,272.21366415833336,54.0,85.0
1182,272.3370405,272.4409363666667,54.0,93.0
1183,271.36301675,272.47015707916665,47.0,85.0
1184,272.14223575,272.67145532083333,66.0,122.0
1185,272.53184525,272.7672343229167,62.0,99.0
1186,272.72665,272.92307812291665,59.0,97.0
1187,273.505869,273.72827108958336,59.0,93.0
1188,273.31106425,273.7704787854167,52.0,97.0
1189,273.1162595,273.98476401041665,47.0,90.0
1190,272.92145475,274.0221015875,40.0,73.0
1191,273.8954785,274.11788058958336,52.0,97.0
1192,273.70067375,274.265607525,67.0,122.0
1193,274.09028325,274.27859450833336,64.0,112.0
1194,274.28508800000003,274.38736049375,59.0,99.0
1195,274.47989275000003,274.65684039791665,45.0,93.0
1196,274.47989275000003,274.9441774041667,64.0,97.0
1197,274.47989275000003,275.0513200166667,60.0,100.0
1198,274.86950225,275.17956647708337,57.0,99.0
1199,275.25911175,275.53670851875,38.0,79.0
1200,275.25911175,276.05131773333335,62.0,99.0
1201,275.25911175,276.0691748354167,66.0,127.0
1202,276.622745,276.8662509375,59.0,71.0
1203,276.42794025,276.90034176875,55.0,92.0
1204,277.0123545,277.18605540208335,55.0,85.0
1205,276.81754975,277.2542370645833,62.0,100.0
1206,277.20715925,277.47501578125,59.0,88.0
1207,276.03833075,277.51884685,43.0,81.0
1208,277.401964,277.53183383333334,62.0,83.0
1209,276.2331355,277.59676875,50.0,65.0
1210,277.59676875,278.629233925,43.0,77.0
1211,277.59676875,279.0009863229167,67.0,89.0
1212,277.59676875,279.0107265604167,71.0,81.0
1213,277.59676875,279.0204667979167,62.0,88.0
1214,279.15520675,279.93767249583334,36.0,72.0
1215,279.54481625,279.9652698354167,43.0,38.0
1216,279.93442575,280.0399449895833,48.0,51.0
1217,279.15520675,280.14221748333335,67.0,81.0
1218,279.15520675,280.14871097500003,71.0,76.0
1219,279.15520675,280.15033434791667,64.0,90.0
1220,279.15520675,280.32078850416667,60.0,86.0
1221,280.71364475,281.824031825,66.0,99.0
1222,280.71364475,281.86461614791665,69.0,76.0
1223,280.71364475,281.8727330125,62.0,89.0
1224,280.71364475,281.88247325000003,59.0,86.0
1225,280.71364475,281.9831223708333,47.0,58.0
1226,282.27208275,282.63084816458337,57.0,93.0
1227,282.27208275,282.64708189375,60.0,95.0
1228,282.27208275,282.6487052666667,64.0,89.0
1229,282.27208275,282.77208160833334,45.0,95.0
1230,283.05130175,284.69902526041665,57.0,99.0
1231,283.05130175,284.70064863333334,50.0,92.0
1232,283.05130175,284.7038953791667,66.0,117.0
1233,283.05130175,284.71038887083336,62.0,122.0
1234,286.92953964791667,287.0350588875,60.0,34.0
1235,286.966877225,287.85973232916666,67.0,57.0
1236,286.93603313958334,288.16654981041665,64.0,57.0
1237,287.6844080541667,288.61622410833337,48.0,81.0
1238,288.0772643,288.9636259125,60.0,64.0
1239,287.35161660625,289.11297622083333,43.0,47.0
1240,286.95064349583333,289.13083332291666,36.0,65.0
1241,288.48473090208336,289.3353783104167,67.0,95.0
1242,289.28018363125,289.3727158875,64.0,48.0
1243,289.8662212541667,291.0951145520833,57.0,50.0
1244,290.00096120625,291.1925169270833,66.0,76.0
1245,289.91654581458334,291.3207633875,62.0,44.0
1246,290.81589441041666,291.42465925416667,50.0,89.0
1247,290.4068044354167,291.7769311770833,45.0,34.0
1248,290.0561558854167,291.84511283958335,38.0,65.0
1249,291.25420509791667,292.6178383479167,57.0,76.0
1250,291.68926903958334,292.6340720770833,66.0,122.0
1251,292.56426704166665,292.66166941666665,62.0,86.0
1252,293.8808224770833,294.3889382,74.0,79.0
1253,293.78829022083335,294.40679530208337,71.0,53.0
1254,293.7201085583333,294.41328879375,67.0,44.0
1255,294.99445629791666,295.29315691458334,59.0,66.0
1256,295.187637675,295.3954294083333,62.0,68.0
1257,295.3727021875,295.45874095208336,67.0,65.0
1258,295.5756238020833,295.8028960104167,71.0,73.0
1259,295.8175063666667,295.90192175833334,74.0,39.0
1260,296.05938893125,296.4652321604167,79.0,66.0
1261,296.30614161458334,296.5788682645833,83.0,64.0
1262,296.551270925,296.6356863166667,86.0,93.0
1263,297.25581477083335,299.55451082083334,95.0,49.0
1264,294.74283349583334,299.5674978041667,55.0,76.0
1265,296.86620527083335,299.57236792291667,91.0,72.0
1266,297.6795151020833,299.57561466875,98.0,68.0
1267,294.42789915000003,299.5772380416667,50.0,57.0
1268,293.9230301729167,299.61457561875,43.0,66.0
