,start,end,pitch,velocity
0,48.85269168749999,49.145499618749994,76.0,114.0
1,49.26365018749999,49.52906088541666,74.0,110.0
2,49.67460868749999,50.169471214583325,76.0,114.0
3,50.4965256875,50.722552862499995,69.0,110.0
4,50.907484187499996,51.12152507291666,76.0,114.0
5,51.318442687499996,51.81330521458332,74.0,114.0
6,52.551318187499994,52.95029039791666,72.0,89.0
7,52.962276687499994,53.419468018749996,69.0,89.0
8,55.42802768749999,55.755082160416656,76.0,104.0
9,55.83898618749999,56.15062971666666,74.0,107.0
10,56.24994468749999,56.82014960624999,76.0,108.0
11,57.07186168749999,57.32186144166666,74.0,102.0
12,57.48282018749999,57.743093904166656,79.0,108.0
13,57.893778687499996,58.303024860416656,74.0,107.0
14,59.126654187499994,59.45199633333333,79.0,104.0
15,59.537612687499994,59.93829722499999,76.0,107.0
16,62.00336368749999,62.30130859999999,76.0,108.0
17,62.41432218749999,62.662609614583324,79.0,113.0
18,62.82528068749999,63.188294029166656,81.0,114.0
19,63.64719768749999,63.931443983333324,79.0,114.0
20,64.05815618749999,64.27562172708332,81.0,114.0
21,64.4691146875,64.80473079583332,74.0,113.0
22,65.70199018749999,66.00335975416665,79.0,108.0
23,66.1129486875,66.57870165416666,76.0,110.0
24,69.40061668749999,69.73109581458333,69.0,102.0
25,69.8115751875,70.08554752083333,76.0,107.0
26,70.22253368749999,70.49821834791666,74.0,108.0
27,70.6334921875,70.89205357708332,76.0,108.0
28,71.04445068749999,71.51191598124998,74.0,113.0
29,72.2773261875,72.48280543749999,72.0,107.0
30,72.48280543749999,72.68828468749999,69.0,98.0
31,72.68828468749999,73.19342117708332,76.0,104.0
32,75.15403568749998,75.45540525416666,76.0,110.0
33,75.56499418749999,75.80300765208332,74.0,107.0
34,75.97595268749998,76.32013043124999,76.0,113.0
35,76.7978696875,77.04615711458332,74.0,110.0
36,77.20882818749999,77.43143070833332,72.0,107.0
37,77.6197866875,77.93143021666666,74.0,113.0
38,78.85266218749999,79.06499074583333,74.0,110.0
39,79.05814143749998,79.23964810833333,76.0,91.0
40,79.2636206875,79.64033264583333,69.0,89.0
41,81.72937168749999,82.03245358125,76.0,113.0
42,82.14033018749998,82.40231623124998,74.0,108.0
43,82.55128868749999,83.08039775625,76.0,113.0
44,83.37320568749999,83.63176707708332,74.0,110.0
45,83.78416418749998,84.04101324999999,79.0,108.0
46,84.19512268749999,84.52731414166665,74.0,108.0
47,85.4279981875,85.63005278333333,76.0,104.0
48,85.63347743749999,85.81840876249998,79.0,102.0
49,85.83895668749999,86.16772348749998,76.0,100.0
50,88.30470768749998,88.57696769374999,76.0,108.0
51,88.71566618749999,88.95710430624999,79.0,107.0
52,89.12662468749998,89.46052846874998,81.0,114.0
53,89.94854168749998,90.22936332916666,79.0,114.0
54,90.35950018749999,90.59922597916666,81.0,113.0
55,90.77045868749998,91.07354058124999,74.0,110.0
56,92.00333418749999,92.19853947499999,76.0,108.0
57,92.20881343749998,92.40573105208333,79.0,94.0
58,92.4142926875,92.73449785208332,76.0,102.0
59,95.70196068749999,96.03757679583332,69.0,100.0
60,96.11291918749998,96.46737089374999,76.0,110.0
61,96.52387768749999,96.85264448749999,74.0,104.0
62,96.93483618749998,97.15230172708333,76.0,94.0
63,97.14031543749999,97.35264399583332,79.0,94.0
64,97.34579468749999,97.71394501041665,76.0,102.0
65,97.75675318749998,98.00504061458332,74.0,108.0
66,98.16771168749999,98.42456074999998,74.0,113.0
67,98.57867018749998,98.84579321249998,76.0,110.0
68,99.40058718749998,99.70538140833332,69.0,93.0
69,102.27729668749998,102.56496763749999,78.0,116.0
70,102.68825518749999,102.94681657708333,83.0,107.0
71,103.09921368749998,103.39030929166665,83.0,117.0
72,103.51017218749999,103.78756917499999,81.0,116.0
73,103.92113068749998,104.24133585208332,78.0,119.0
74,105.56496468749998,105.84236167499999,76.0,116.0
75,105.97592318749999,106.23619690416665,78.0,114.0
76,106.38688168749998,106.65914169374999,81.0,116.0
77,106.79784018749999,107.07352484791666,76.0,116.0
78,107.20879868749999,107.48619567499999,78.0,119.0
79,108.85263268749999,109.27386514999999,71.0,119.0
80,109.26359118749998,109.61119358541666,73.0,116.0
81,109.67454968749999,110.06496026249998,74.0,117.0
82,110.08550818749998,110.47249410833332,78.0,119.0
83,110.49646668749999,110.80468556249998,76.0,116.0
84,112.14030068749999,112.47762912291665,76.0,116.0
85,112.55125918749998,112.89543693124999,78.0,113.0
86,112.96221768749999,113.34235429999998,81.0,113.0
87,113.37317618749998,113.73618952916665,76.0,113.0
88,113.78413468749999,114.41769570833331,78.0,116.0
89,115.42796868749998,115.76016014166665,83.0,119.0
90,115.83892718749999,115.92968052291666,78.0,120.0
91,116.24988568749998,116.56324154374998,83.0,116.0
92,116.66084418749999,116.94337815624998,78.0,119.0
93,117.07180268749998,117.43139137499999,76.0,116.0
94,118.71563668749998,119.02043090833332,81.0,119.0
95,119.12659518749999,119.38001959583332,85.0,119.0
96,119.53755368749998,119.81152602083331,85.0,119.0
97,119.94851218749999,120.24474477291665,81.0,120.0
98,120.35947068749998,120.82351132708332,83.0,119.0
99,121.18138768749998,121.51186681458331,78.0,119.0
100,122.00330468749998,122.30638658124998,83.0,116.0
101,122.41426318749998,122.72248206249998,81.0,117.0
102,122.82522168749999,123.11974194583331,78.0,114.0
103,123.23618018749998,123.49816623124998,76.0,119.0
104,123.64713868749999,123.92111102083332,78.0,117.0
105,124.05809718749998,124.33035719374999,81.0,114.0
106,124.46905568749999,124.74987732916665,76.0,116.0
107,124.88001418749998,125.05809620416665,74.0,110.0
108,125.29097268749999,125.72076678541664,71.0,116.0
109,157.34573568749997,157.64710525416663,76.0,110.0
110,157.7566941875,157.99470765208332,74.0,107.0
111,158.16765268749998,158.51183043125,76.0,113.0
112,158.98956968749997,159.2378571145833,74.0,110.0
113,159.4005281875,159.62313070833332,72.0,107.0
114,159.81148668749998,160.12313021666665,74.0,113.0
115,161.04436218749998,161.2566907458333,74.0,110.0
116,161.24984143749998,161.4313481083333,76.0,91.0
117,161.45532068749998,161.83203264583332,69.0,89.0
118,163.9210716875,164.22415358124996,76.0,113.0
119,164.33203018749998,164.59401623124998,74.0,108.0
120,164.74298868749997,165.27209775625,76.0,113.0
121,165.5649056875,165.8234670770833,74.0,110.0
122,165.97586418749998,166.23271325,79.0,108.0
123,166.38682268749997,166.71901414166663,74.0,108.0
124,167.61969818749998,167.82175278333332,76.0,104.0
125,167.82517743749997,168.01010876249998,79.0,102.0
126,168.03065668749997,168.35942348749998,76.0,100.0
127,170.49640768749998,170.76866769375,76.0,108.0
128,170.90736618749997,171.14880430624999,79.0,107.0
129,171.31832468749997,171.65222846874997,81.0,114.0
130,172.14024168749998,172.42106332916666,79.0,114.0
131,172.55120018749997,172.79092597916664,81.0,113.0
132,172.96215868749997,173.26524058124997,74.0,110.0
133,174.19503418749997,174.390239475,76.0,108.0
134,174.40051343749997,174.59743105208332,79.0,94.0
135,174.60599268749996,174.9261978520833,76.0,102.0
136,177.8936606875,178.2292767958333,69.0,100.0
137,178.30461918749998,178.65907089374997,76.0,110.0
138,178.71557768749997,179.04434448749998,74.0,104.0
139,179.12653618749997,179.3440017270833,76.0,94.0
140,179.3320154375,179.54434399583332,79.0,94.0
141,179.5374946875,179.90564501041663,76.0,102.0
142,179.94845318749998,180.19674061458332,74.0,108.0
143,180.35941168749997,180.61626074999998,74.0,113.0
144,180.77037018749996,181.03749321249998,76.0,110.0
145,181.59228718749998,181.89708140833332,69.0,93.0
146,184.46899668749998,184.7566676375,78.0,116.0
147,184.87995518749997,185.13851657708332,83.0,107.0
148,185.29091368749997,185.58200929166665,83.0,117.0
149,185.7018721875,185.97926917499998,81.0,116.0
150,186.11283068749998,186.43303585208332,78.0,119.0
151,187.75666468749998,188.03406167499998,76.0,116.0
152,188.16762318749997,188.42789690416663,78.0,114.0
153,188.57858168749996,188.85084169374997,81.0,116.0
154,188.98954018749998,189.26522484791664,76.0,116.0
155,189.40049868749998,189.67789567499997,78.0,119.0
156,191.04433268749997,191.46556514999997,71.0,119.0
157,191.45529118749997,191.80289358541665,73.0,116.0
158,191.8662496875,192.25666026249996,74.0,117.0
159,192.27720818749998,192.6641941083333,78.0,119.0
160,192.68816668749997,192.99638556249997,76.0,116.0
161,194.33200068749997,194.66932912291665,76.0,116.0
162,194.74295918749996,195.08713693124997,78.0,113.0
163,195.15391768749998,195.53405429999998,81.0,113.0
164,195.56487618749998,195.92788952916663,76.0,113.0
165,195.97583468749997,196.6093957083333,78.0,116.0
166,197.61966868749997,197.95186014166663,83.0,119.0
167,198.03062718749996,198.12138052291664,78.0,120.0
168,198.44158568749998,198.75494154374996,83.0,116.0
169,198.85254418749997,199.13507815624996,78.0,119.0
170,199.26350268749997,199.62309137499997,76.0,116.0
171,200.90733668749996,201.2121309083333,81.0,119.0
172,201.31829518749998,201.57171959583331,85.0,119.0
173,201.72925368749998,202.0032260208333,85.0,119.0
174,202.14021218749997,202.43644477291664,81.0,120.0
175,202.55117068749996,203.0152113270833,83.0,119.0
176,203.37308768749998,203.7035668145833,78.0,119.0
177,204.19500468749996,204.49808658124996,83.0,116.0
178,204.60596318749998,204.91418206249998,81.0,117.0
179,205.01692168749997,205.3114419458333,78.0,114.0
180,205.42788018749997,205.68986623124997,76.0,119.0
181,205.8388386875,206.1128110208333,78.0,117.0
182,206.24979718749998,206.52205719374996,81.0,114.0
183,206.66075568749997,206.94157732916665,76.0,116.0
184,207.07171418749996,207.24979620416664,74.0,110.0
185,207.48267268749998,207.91246678541663,71.0,116.0
186,220.63334468749997,220.97067312291665,76.0,116.0
187,221.04430318749996,221.38848093124997,78.0,113.0
188,221.45526168749998,221.83539829999998,81.0,113.0
189,221.86622018749998,222.22923352916663,76.0,113.0
190,222.27717868749997,222.9107397083333,78.0,116.0
191,223.92101268749997,224.25320414166663,83.0,119.0
192,224.33197118749996,224.42272452291664,78.0,120.0
193,224.74292968749998,225.05628554374996,83.0,116.0
194,225.15388818749997,225.43642215624996,78.0,119.0
195,225.56484668749997,225.92443537499997,76.0,116.0
196,227.20868068749996,227.5134749083333,81.0,119.0
197,227.61963918749996,227.87306359583332,85.0,119.0
198,228.03059768749998,228.3045700208333,85.0,119.0
199,228.44155618749997,228.73778877291664,81.0,120.0
200,228.85251468749996,229.3165553270833,83.0,119.0
201,229.67443168749998,230.0049108145833,78.0,119.0
202,230.49634868749996,230.79943058124996,83.0,116.0
203,230.90730718749998,231.21552606249998,81.0,117.0
204,231.31826568749997,231.6127859458333,78.0,114.0
205,231.72922418749997,231.99121023124997,76.0,119.0
206,232.14018268749996,232.4141550208333,78.0,117.0
207,232.55114118749998,232.82340119374996,81.0,114.0
208,232.96209968749997,233.24292132916665,76.0,116.0
209,233.37305818749996,233.55114020416664,74.0,110.0
210,233.78401668749996,234.21381078541663,71.0,116.0
211,237.07168468749998,237.5716841958333,83.0,119.0
212,237.48264318749997,237.86277979999997,81.0,114.0
213,237.89360168749997,238.54599830624997,78.0,116.0
214,238.51003943749996,238.93983353541662,76.0,88.0
215,238.92099793749998,239.53743568749996,78.0,106.0
216,239.53743568749996,239.83024361874996,81.0,101.0
217,242.82510368749996,243.49804823124998,76.0,114.0
218,243.64702068749997,244.67441693749996,74.0,116.0
219,244.87989618749998,245.84907331666665,78.0,113.0
