,start,end,pitch,velocity
0,32.03256385,32.826041000000004,68.0,116.0
1,32.90212785000001,33.91299600000001,70.0,116.0
2,33.77169185,34.130387000000006,72.0,116.0
3,34.20647385,34.42386485000001,72.0,108.0
4,34.42386485000001,34.64125585000001,72.0,108.0
5,34.64125585000001,34.999951,72.0,110.0
6,35.076037850000006,35.469153241666675,70.0,108.0
7,35.510819850000004,35.88400773333334,72.0,110.0
8,35.94560185,36.271688350000005,75.0,110.0
9,36.16299285000001,36.57422415833334,72.0,108.0
10,36.81516585000001,37.14487553333334,72.0,108.0
11,37.032556850000006,37.315165150000006,75.0,94.0
12,37.249947850000005,37.61951255,77.0,107.0
13,37.684729850000004,38.03799022500001,77.0,108.0
14,38.11951185000001,38.48183018333334,77.0,108.0
15,38.55429385000001,38.87856875833334,79.0,107.0
16,38.989075850000006,39.528930166666676,75.0,91.0
17,39.423857850000005,39.91117600833334,72.0,102.0
18,40.29342185000001,40.63400108333334,72.0,107.0
19,40.51081285000001,40.847768900000005,70.0,91.0
20,40.72820385000001,41.195594500000006,68.0,94.0
21,41.162985850000005,41.195594500000006,68.0,89.0
22,41.380376850000005,41.494507125000005,68.0,88.0
23,41.597767850000004,41.838709541666674,68.0,94.0
24,42.03254985000001,42.521679600000006,65.0,96.0
25,42.46733185000001,43.061533916666676,72.0,104.0
26,42.902113850000006,43.360446541666676,75.0,94.0
27,43.119504850000006,43.69559100000001,68.0,91.0
28,44.20645985000001,44.38580742500001,70.0,100.0
29,44.42385085000001,44.711893925000005,70.0,93.0
30,44.858632850000006,44.99269063333334,70.0,98.0
31,45.076023850000006,45.36950170000001,70.0,100.0
32,45.510805850000004,46.00355878333334,68.0,100.0
33,45.94558785000001,46.423848050000004,72.0,107.0
34,46.38036985000001,46.91478939166667,70.0,113.0
35,47.249933850000005,47.82602000000001,68.0,116.0
36,47.467324850000004,47.93471550000001,70.0,116.0
37,47.68471585000001,48.170222416666675,72.0,116.0
38,48.11949785000001,48.170222416666675,72.0,108.0
39,48.989061850000006,49.54703208333334,70.0,108.0
40,49.423843850000004,49.96188657500001,72.0,110.0
41,49.85862585000001,50.34956719166667,75.0,110.0
42,50.07601685000001,50.65210300000001,72.0,108.0
43,50.72818985000001,51.22275437500001,72.0,108.0
44,50.945580850000006,51.39304399166667,75.0,94.0
45,51.162971850000005,51.69739139166668,77.0,107.0
46,51.59775385000001,51.69739139166668,77.0,108.0
47,52.03253585000001,52.115869066666676,77.0,108.0
48,52.46731785000001,52.88036075000001,79.0,107.0
49,52.902099850000006,53.53072215833334,75.0,91.0
50,53.33688185000001,53.912968000000006,72.0,102.0
51,53.98905485000001,54.097750350000005,75.0,93.0
52,54.20644585000001,54.30789498333334,75.0,89.0
53,54.42383685000001,54.93832888333334,75.0,92.0
54,54.64122785000001,55.26260379166668,77.0,96.0
55,55.076009850000005,55.710066933333344,80.0,102.0
56,55.51079185000001,55.710066933333344,80.0,107.0
57,55.94557385000001,56.610427991666675,77.0,104.0
58,56.38035585000001,56.73905100000001,73.0,104.0
59,56.59774685000001,57.60861500000001,70.0,107.0
60,57.68470185000001,57.80064371666668,75.0,98.0
61,57.90209285000001,58.326005300000006,75.0,102.0
62,58.11948385000001,58.670207716666674,77.0,107.0
63,58.55426585000001,59.07600425000001,80.0,107.0
64,58.989047850000006,59.07600425000001,80.0,110.0
65,59.42382985000001,59.999916000000006,77.0,98.0
66,59.85861185000001,60.383973433333345,80.0,108.0
67,60.29339385000001,62.17382600000001,82.0,113.0
68,62.68469485000001,62.81875263333335,75.0,93.0
69,62.90208585000001,63.00534657500001,75.0,92.0
70,63.11947685000001,63.253534633333345,75.0,102.0
71,63.33686785000001,63.78795417500001,84.0,116.0
72,63.77164985000001,63.78795417500001,84.0,114.0
73,64.20643185000002,64.22092458333334,84.0,114.0
74,64.64121385000001,64.67563409166668,84.0,114.0
75,65.07599585000001,65.54338650000001,84.0,114.0
76,65.51077785000001,65.63758926666668,82.0,104.0
77,65.72816885000002,66.30425500000001,82.0,108.0
78,66.38034185000001,66.60679080833334,80.0,107.0
79,66.59773285000001,66.84229772500001,79.0,97.0
80,66.81512385,67.05425395000002,80.0,100.0
81,67.24990585,67.33505065833334,80.0,100.0
82,67.46729685000001,67.55425325000002,80.0,92.0
83,67.68468785000002,67.81512245,80.0,100.0
84,67.90207885000001,68.62671551666668,82.0,108.0
85,68.55425185000001,69.34772900000002,72.0,113.0
86,68.98903385000001,69.8042501,75.0,110.0
87,69.85859785000001,69.97453971666668,75.0,98.0
88,70.07598885000002,70.19555390000001,75.0,93.0
89,70.29337985000001,70.46548105833334,77.0,96.0
90,70.51077085000001,70.86946600000002,80.0,102.0
91,70.94555285000001,71.10497291666668,80.0,100.0
92,71.16294385,71.43105941666668,80.0,100.0
93,71.59772585000002,71.83504435833335,80.0,100.0
94,72.03250785000002,72.60859400000001,82.0,108.0
95,72.46728985000001,72.82598500000002,77.0,102.0
96,72.68468085,73.34410021666667,80.0,107.0
97,73.33685385000001,73.34410021666667,80.0,93.0
98,73.55424485000002,73.68649104166668,80.0,100.0
99,73.77163585000001,74.00533117500001,82.0,100.0
100,74.20641785000001,74.31873653333335,82.0,92.0
101,74.42380885000001,74.64119985,82.0,91.0
102,74.64119985,75.23359032500001,82.0,107.0
103,75.07598185,75.668372325,80.0,107.0
104,75.51076385000002,76.08685000000001,84.0,110.0
105,75.94554585000002,76.30424100000002,82.0,114.0
106,76.16293685000001,76.52163200000001,75.0,107.0
107,76.59771885,76.73177663333334,75.0,93.0
108,76.81510985000001,76.91837057500001,75.0,92.0
109,77.03250085,77.16655863333335,75.0,102.0
110,77.24989185000001,77.80967367500001,84.0,116.0
111,77.68467385000001,77.80967367500001,84.0,114.0
112,78.11945585000001,78.24264408333335,84.0,114.0
113,78.55423785,79.07235306666668,87.0,114.0
114,79.42380185000002,79.55061326666667,82.0,104.0
115,78.98901985,79.56510600000001,84.0,114.0
116,79.64119285000001,80.21727900000002,82.0,108.0
117,80.29336585000001,80.51981480833335,80.0,107.0
118,80.51075685,80.75532172500002,79.0,97.0
119,80.72814785000001,80.96727795000001,80.0,100.0
120,81.16292985000001,81.24807465833335,80.0,100.0
121,81.38032085000002,81.46727725000001,80.0,92.0
122,81.59771185000001,81.95640700000001,80.0,100.0
123,81.81510285000002,82.39118900000001,82.0,108.0
124,82.46727585000001,83.04336200000002,72.0,113.0
125,82.90205785000002,83.695535,75.0,110.0
126,83.77162185000002,83.88756371666668,75.0,98.0
127,83.98901285000001,84.34770800000001,75.0,93.0
128,84.20640385000002,84.61763515833334,77.0,96.0
129,84.42379485000001,84.78249000000001,80.0,102.0
130,84.85857685000002,85.18104016666668,80.0,100.0
131,85.07596785000001,85.18104016666668,80.0,100.0
132,85.51074985000001,85.74806835833334,80.0,100.0
133,85.94553185000001,86.29154585833335,82.0,108.0
134,86.38031385000001,86.65567578333335,77.0,102.0
135,86.59770485000001,87.17379100000001,80.0,107.0
136,87.24987785000002,87.36400812500001,80.0,93.0
137,87.46726885000001,87.59951504166668,80.0,100.0
138,87.68465985000002,87.91835517500002,82.0,100.0
139,88.11944185000002,88.23176053333334,82.0,92.0
140,88.33683285000001,88.55422385000001,82.0,91.0
141,88.55422385000001,89.13031000000001,82.0,107.0
142,88.98900585000001,89.78248300000001,80.0,107.0
143,89.42378785000001,90.43465600000002,84.0,110.0
144,90.29335185000001,91.30422000000002,82.0,113.0
145,91.16291585000002,93.91291200000002,80.0,117.0
146,105.10311372500001,106.08680800000002,68.0,116.0
147,105.97267772500001,106.95637200000002,70.0,116.0
148,106.84224172500002,107.20637165000002,72.0,116.0
149,107.27702372500002,107.62303773333335,72.0,108.0
150,107.49441472500001,107.62303773333335,72.0,108.0
151,107.71180572500002,107.84042873333335,72.0,110.0
152,108.14658772500002,108.69550000000002,70.0,108.0
153,108.58136972500002,109.09223857500001,72.0,110.0
154,109.01615172500001,109.47991919166668,75.0,110.0
155,109.23354272500002,109.78245500000001,72.0,108.0
156,109.88571572500001,110.19730949166669,72.0,108.0
157,110.10310672500002,110.36759910833335,75.0,94.0
158,110.32049772500002,110.87665636666668,77.0,107.0
159,110.75527972500002,110.87665636666668,77.0,108.0
160,111.19006172500002,111.29513404166669,77.0,108.0
161,111.62484372500002,112.15745167500002,79.0,107.0
162,112.05962572500002,112.80781308333336,75.0,91.0
163,112.49440772500002,113.19005892500002,72.0,102.0
164,113.36397172500001,113.91288400000002,72.0,107.0
165,113.58136272500002,114.12665181666668,70.0,91.0
166,113.79875372500001,114.24802845833335,68.0,94.0
167,114.23353572500002,114.24802845833335,68.0,89.0
168,114.45092672500002,114.46904264166669,68.0,88.0
169,114.66831772500002,114.69368000833335,68.0,94.0
170,115.10309972500002,115.78244660000001,65.0,96.0
171,115.53788172500002,116.08679400000001,72.0,104.0
172,115.97266372500002,116.62121354166669,75.0,94.0
173,116.19005472500002,117.17374900000002,68.0,91.0
174,117.27700972500001,117.55237165833336,70.0,100.0
175,117.49440072500002,117.55237165833336,70.0,93.0
176,117.92918272500002,118.15925486666669,70.0,98.0
177,118.14657372500002,118.15925486666669,70.0,100.0
178,118.58135572500002,119.13026800000002,68.0,100.0
179,119.01613772500002,119.56505000000001,72.0,107.0
180,119.45091972500002,120.43461400000002,70.0,113.0
181,120.32048372500002,120.77519323333335,68.0,116.0
182,120.53787472500002,120.88388873333335,70.0,116.0
183,120.75526572500002,121.11939565000002,72.0,116.0
184,121.19004772500001,121.53606173333336,72.0,108.0
185,121.40743872500002,121.53606173333336,72.0,108.0
186,121.62482972500001,121.75345273333335,72.0,110.0
187,122.05961172500002,122.59040808333336,70.0,108.0
188,122.49439372500002,123.00526257500002,72.0,110.0
189,122.92917572500002,123.39294319166669,75.0,110.0
190,123.14656672500001,123.69547900000002,72.0,108.0
191,123.79873972500002,124.11033349166668,72.0,108.0
192,124.01613072500002,124.28062310833336,75.0,94.0
193,124.23352172500002,124.58497050833336,77.0,107.0
194,124.66830372500002,125.00344818333335,77.0,108.0
195,125.10308572500001,125.65199800000002,77.0,108.0
196,125.53786772500003,126.08678000000002,79.0,107.0
197,125.97264972500003,126.52156200000002,75.0,91.0
198,126.40743172500002,127.17373500000002,72.0,102.0
199,127.05960472500001,127.29692323333336,75.0,93.0
200,127.27699572500002,127.29692323333336,75.0,89.0
201,127.49438672500003,127.50706786666669,75.0,92.0
202,127.71177772500002,128.26069,77.0,96.0
203,128.14655972500003,128.52518238333334,80.0,102.0
204,128.58134172500002,129.130254,80.0,107.0
205,129.01612372500003,129.4255434416667,77.0,104.0
206,129.450905725,129.86032544166667,73.0,104.0
207,129.66829672500003,130.86938200000003,70.0,107.0
208,130.75525172500002,130.99981660000003,75.0,98.0
209,130.97264272500001,130.99981660000003,75.0,102.0
210,131.190033725,131.581337525,77.0,107.0
211,131.62481572500002,131.98713405833337,80.0,107.0
212,132.05959772500003,132.60851000000002,80.0,110.0
213,132.49437972500002,133.043292,77.0,98.0
214,132.92916172500003,133.47807400000002,80.0,108.0
215,133.363943725,135.32589750000002,82.0,113.0
216,135.755244725,135.88930250833334,75.0,93.0
217,135.97263572500003,136.07589645000002,75.0,92.0
218,136.19002672500002,136.32408450833336,75.0,102.0
219,136.40741772500002,136.94002567500002,84.0,116.0
220,136.84219972500003,136.94002567500002,84.0,114.0
221,137.276981725,137.37299608333336,84.0,114.0
222,137.71176372500003,137.8277055916667,84.0,114.0
223,138.146545725,138.20270506666668,84.0,114.0
224,138.58132772500002,138.7081391416667,82.0,104.0
225,138.79871872500001,139.56502200000003,82.0,108.0
226,139.45089172500002,139.67734068333334,80.0,107.0
227,139.668282725,139.91284760000002,79.0,97.0
228,139.88567372500003,140.12480382500001,80.0,100.0
229,140.32045572500002,140.40560053333334,80.0,100.0
230,140.537846725,140.62480312500003,80.0,92.0
231,140.75523772500003,140.88567232500003,80.0,100.0
232,140.97262872500002,141.73893200000003,82.0,108.0
233,141.62480172500003,142.17371400000002,72.0,113.0
234,142.059583725,142.82588700000002,75.0,110.0
235,142.92914772500004,143.04508959166668,75.0,98.0
236,143.14653872500003,143.26610377500003,75.0,93.0
237,143.36392972500002,143.53603093333336,77.0,96.0
238,143.581320725,144.02153750000002,80.0,102.0
239,144.01610272500002,144.02153750000002,80.0,100.0
240,144.23349372500002,144.67371050000003,80.0,100.0
241,144.66827572500003,144.67371050000003,80.0,100.0
242,145.103057725,145.65197000000003,82.0,108.0
243,145.53783972500003,145.86936100000003,77.0,102.0
244,145.75523072500002,146.304143,80.0,107.0
245,146.40740372500002,146.72080908333336,80.0,93.0
246,146.62479472500002,146.72080908333336,80.0,100.0
247,146.84218572500004,147.28240250000002,82.0,100.0
248,147.27696772500002,147.28240250000002,82.0,92.0
249,147.494358725,147.71174972500003,82.0,91.0
250,147.71174972500003,148.36935750000004,82.0,107.0
251,148.14653172500002,148.695444,80.0,107.0
252,148.58131372500003,149.13022600000002,84.0,110.0
253,149.016095725,149.347617,82.0,114.0
254,149.23348672500003,149.56500800000003,75.0,107.0
255,149.66826872500002,149.80232650833335,75.0,93.0
256,149.885659725,149.98892045000002,75.0,92.0
257,150.10305072500003,150.43457200000003,75.0,102.0
258,150.32044172500002,150.744354175,84.0,116.0
259,150.75522372500004,151.17732458333336,84.0,114.0
260,151.19000572500002,151.6320340916667,84.0,114.0
261,151.62478772500003,152.00703356666668,87.0,114.0
262,152.05956972500002,152.49978650000003,84.0,114.0
263,152.49435172500003,152.6211631416667,82.0,104.0
264,152.71174272500002,153.47804600000003,82.0,108.0
265,153.36391572500003,153.59036468333335,80.0,107.0
266,153.58130672500002,153.82587160000003,79.0,97.0
267,153.798697725,154.03782782500002,80.0,100.0
268,154.23347972500002,154.31862453333335,80.0,100.0
269,154.45087072500002,154.53782712500004,80.0,92.0
270,154.66826172500004,154.79869632500004,80.0,100.0
271,154.88565272500003,155.651956,82.0,108.0
272,155.53782572500003,156.08673800000003,72.0,113.0
273,155.97260772500002,156.54325910000003,75.0,110.0
274,156.84217172500001,156.9581135916667,75.0,98.0
275,157.05956272500003,157.3385478416667,75.0,93.0
276,157.27695372500003,157.60847500000003,77.0,96.0
277,157.49434472500002,157.8494166916667,80.0,102.0
278,157.92912672500003,158.24796685833337,80.0,100.0
279,158.14651772500002,158.24796685833337,80.0,100.0
280,158.58129972500004,159.1972408916667,80.0,100.0
281,159.01608172500002,159.635646075,82.0,108.0
282,159.45086372500003,159.99977600000003,77.0,102.0
283,159.66825472500003,160.3005002166667,80.0,107.0
284,160.32042772500003,160.43455800000004,80.0,93.0
285,160.53781872500002,160.6700649166667,80.0,100.0
286,160.75520972500001,160.98890505000003,82.0,100.0
287,161.18999172500003,161.30231040833337,82.0,92.0
288,161.40738272500002,161.624773725,82.0,91.0
289,161.624773725,162.17368600000003,82.0,107.0
290,162.05955572500002,162.60846800000002,80.0,107.0
291,162.49433772500004,163.478032,84.0,110.0
292,163.36390172500003,164.34759600000004,82.0,113.0
293,164.23346572500003,166.30411500000002,80.0,117.0
294,177.49431672500003,177.8928668916667,75.0,93.0
295,177.71170772500002,177.8928668916667,75.0,92.0
296,177.92909872500002,178.07946083333337,75.0,102.0
297,178.14648972500004,178.6700397166667,84.0,116.0
298,178.58127172500002,178.6700397166667,84.0,114.0
299,179.01605372500003,179.10301012500003,84.0,114.0
300,179.45083572500002,179.55771963333336,84.0,114.0
301,179.88561772500003,179.93271910833337,84.0,114.0
302,180.32039972500002,180.71170352500002,82.0,104.0
303,180.53779072500004,180.71170352500002,82.0,108.0
304,181.18996372500004,181.6809050666667,80.0,107.0
305,181.62474572500003,181.6809050666667,80.0,100.0
306,181.40735472500003,181.91641198333338,79.0,97.0
307,182.05952772500004,182.12836820833337,80.0,100.0
308,182.27691872500003,182.4091649166667,80.0,92.0
309,182.49430972500002,182.62836750833335,80.0,100.0
310,182.71170072500004,183.26604777500003,82.0,108.0
311,183.36387372500002,183.91278600000004,72.0,113.0
312,183.79865572500003,184.36930710000001,75.0,110.0
313,184.66821972500003,185.04865397500004,75.0,98.0
314,184.88561072500002,185.04865397500004,75.0,93.0
315,185.10300172500004,185.5395953166667,77.0,96.0
316,185.32039272500003,185.78053700833337,80.0,102.0
317,185.75517472500002,185.78053700833337,80.0,100.0
318,185.97256572500004,186.17908717500003,80.0,100.0
319,186.40734772500002,186.50517367500004,80.0,100.0
320,186.84212972500004,187.34756380000002,82.0,108.0
321,187.27691172500002,187.71169372500003,77.0,102.0
322,187.49430272500004,188.01241794166668,80.0,107.0
323,188.14647572500002,188.52509838333336,80.0,93.0
324,188.36386672500004,188.52509838333336,80.0,100.0
325,188.58125772500003,189.07944543333338,82.0,100.0
326,189.01603972500004,189.07944543333338,82.0,92.0
327,189.23343072500003,189.3928507916667,82.0,91.0
328,189.45082172500003,189.71531410833336,82.0,107.0
329,189.88560372500004,190.4580666916667,80.0,107.0
330,190.32038572500002,190.8765443666667,84.0,110.0
331,190.75516772500004,191.22074678333337,82.0,114.0
332,190.97255872500003,191.3058915916667,75.0,107.0
333,191.40734072500004,191.8058908916667,75.0,93.0
334,191.62473172500003,191.8058908916667,75.0,92.0
335,191.84212272500002,191.99248483333335,75.0,102.0
336,192.05951372500002,192.5830637166667,84.0,116.0
337,192.49429572500003,192.5830637166667,84.0,114.0
338,192.92907772500004,193.01603412500003,84.0,114.0
339,193.36385972500003,193.84574310833335,87.0,114.0
340,193.79864172500004,194.3384960416667,84.0,114.0
341,194.23342372500002,194.62472752500003,82.0,104.0
342,194.45081472500004,194.62472752500003,82.0,108.0
343,195.10298772500002,195.5939290666667,80.0,107.0
344,195.53776972500003,195.5939290666667,80.0,100.0
345,195.32037872500004,195.82943598333335,79.0,97.0
346,195.97255172500002,196.04139220833338,80.0,100.0
347,196.18994272500004,196.3221889166667,80.0,92.0
348,196.40733372500003,196.54139150833336,80.0,100.0
349,196.62472472500002,197.17907177500004,82.0,108.0
350,197.27689772500003,197.82581000000002,72.0,113.0
351,197.71167972500004,198.47798300000002,75.0,110.0
352,198.58124372500004,198.96167797500004,75.0,98.0
353,198.79863472500003,198.96167797500004,75.0,93.0
354,199.01602572500002,199.4526193166667,77.0,96.0
355,199.23341672500004,199.69356100833338,80.0,102.0
356,199.66819872500002,199.69356100833338,80.0,100.0
357,199.88558972500005,200.09211117500004,80.0,100.0
358,200.32037172500003,200.41819767500004,80.0,100.0
359,200.75515372500004,201.26058780000002,82.0,108.0
360,201.18993572500003,201.62471772500004,77.0,102.0
361,201.40732672500002,201.9254419416667,80.0,107.0
362,202.05949972500002,202.43812238333336,80.0,93.0
363,202.27689072500004,202.43812238333336,80.0,100.0
364,202.49428172500004,202.99246943333335,82.0,100.0
365,202.92906372500002,202.99246943333335,82.0,92.0
366,203.14645472500004,203.3058747916667,82.0,91.0
367,203.36384572500003,203.62833810833337,82.0,107.0
368,203.79862772500005,204.3710906916667,80.0,107.0
369,204.23340972500003,205.43449500000003,84.0,110.0
370,205.10297372500003,206.30405900000002,82.0,113.0
371,205.97253772500002,207.82579600000003,80.0,117.0
