,start,end,pitch,velocity
0,4.206515850000001,5.7282528500000005,68.0,83.0
1,4.206515850000001,5.751803541666668,60.0,81.0
2,4.206515850000001,5.7970933333333345,63.0,86.0
3,4.206515850000001,7.108685700000001,44.0,71.0
4,5.945643850000001,7.315207150000001,60.0,80.0
5,5.945643850000001,7.355062166666668,63.0,85.0
6,5.945643850000001,7.374989675000001,67.0,80.0
7,7.6847718500000015,8.186582741666667,68.0,80.0
8,8.554335850000001,9.021726500000002,65.0,78.0
9,7.6847718500000015,9.054335150000002,61.0,81.0
10,8.11955385,9.101436533333334,56.0,38.0
11,7.6847718500000015,9.139479958333334,49.0,84.0
12,9.423899850000002,10.724622666666669,63.0,76.0
13,9.423899850000002,10.748173358333336,58.0,74.0
14,9.423899850000002,10.762666091666668,67.0,76.0
15,9.423899850000002,10.771724050000001,51.0,79.0
16,11.163027850000002,12.896721075000002,61.0,78.0
17,11.163027850000002,12.900344258333336,65.0,82.0
18,11.163027850000002,12.907590625000003,68.0,83.0
19,11.163027850000002,12.922083358333335,49.0,84.0
20,12.902155850000002,14.440197175000002,63.0,87.0
21,12.902155850000002,14.447443541666669,60.0,81.0
22,12.902155850000002,14.451066725000002,67.0,76.0
23,12.902155850000002,14.485486966666668,48.0,74.0
24,14.641283850000002,15.932948708333337,65.0,87.0
25,14.641283850000002,16.014470333333335,58.0,78.0
26,14.641283850000002,16.03983261666667,61.0,84.0
27,14.641283850000002,16.05613694166667,70.0,86.0
28,14.641283850000002,16.15396289166667,46.0,76.0
29,16.38041185,17.720989683333336,51.0,77.0
30,16.38041185,17.73548241666667,58.0,77.0
31,16.38041185,17.851424283333337,63.0,84.0
32,16.38041185,17.907583625000004,67.0,78.0
33,18.119539850000002,18.704683958333337,63.0,81.0
34,18.119539850000002,18.717365100000002,68.0,85.0
35,18.119539850000002,19.00178499166667,60.0,83.0
36,18.989103850000003,20.27352234166667,56.0,79.0
37,19.858667850000003,20.57243496666667,63.0,83.0
38,19.858667850000003,20.59417406666667,60.0,86.0
39,20.728231850000004,21.11047769166667,60.0,86.0
40,20.728231850000004,21.128593608333336,63.0,81.0
41,18.119539850000002,21.18656454166667,44.0,79.0
42,18.554321850000004,21.226419558333337,51.0,38.0
43,21.597795850000004,22.237287708333337,68.0,82.0
44,21.597795850000004,22.266273175000002,65.0,81.0
45,21.597795850000004,22.269896358333337,60.0,81.0
46,22.467359850000005,22.998156208333338,60.0,74.0
47,22.467359850000005,23.00177939166667,68.0,75.0
48,22.467359850000005,23.038011225000005,65.0,77.0
49,21.597795850000004,23.20830084166667,53.0,81.0
50,23.336923850000005,24.01264754166667,67.0,76.0
51,23.336923850000005,24.02351709166667,63.0,86.0
52,23.336923850000005,24.06699529166667,60.0,81.0
53,23.336923850000005,24.739095800000005,48.0,83.0
54,24.206487850000002,24.76808126666667,60.0,72.0
55,24.206487850000002,24.970979533333338,67.0,77.0
56,24.206487850000002,25.010834550000006,63.0,86.0
57,25.076051850000002,25.84960149166667,68.0,86.0
58,25.076051850000002,25.858659450000005,61.0,81.0
59,25.076051850000002,25.869529000000004,65.0,87.0
60,25.076051850000002,26.483658575000003,49.0,86.0
61,25.945615850000003,26.499962900000003,65.0,82.0
62,25.945615850000003,26.509020858333336,61.0,81.0
63,25.945615850000003,26.525325183333337,68.0,81.0
64,26.815179850000003,27.44923693333334,63.0,76.0
65,26.815179850000003,27.48546876666667,60.0,88.0
66,27.684743850000004,28.239090900000004,60.0,74.0
67,27.684743850000004,28.251772041666673,63.0,84.0
68,26.815179850000003,28.298873425000004,48.0,84.0
69,26.815179850000003,28.347786400000004,67.0,82.0
70,28.554307850000004,29.83510315833334,65.0,83.0
71,28.554307850000004,29.893074091666673,61.0,79.0
72,28.554307850000004,29.981842083333337,70.0,84.0
73,28.554307850000004,30.13220419166667,46.0,81.0
74,30.293435850000005,31.815172850000003,63.0,86.0
75,30.293435850000005,31.816984441666673,51.0,77.0
76,30.293435850000005,31.820607625000005,58.0,77.0
77,30.293435850000005,31.83872354166667,67.0,82.0
78,33.77169185,34.27169115,68.0,81.0
79,33.77169185,34.33872004166667,63.0,80.0
80,33.77169185,34.36227073333334,60.0,80.0
81,34.20647385,34.71009633333334,56.0,66.0
82,33.77169185,35.105023316666674,44.0,81.0
83,34.64125585000001,35.195602900000004,68.0,86.0
84,34.64125585000001,35.199226083333336,60.0,83.0
85,34.64125585000001,35.29161725833334,63.0,88.0
86,35.06335670833334,35.30792158333334,56.0,85.0
87,35.076037850000006,35.30792158333334,56.0,65.0
88,35.266254975,35.494515525000004,44.0,79.0
89,35.510819850000004,36.10502191666667,67.0,81.0
90,35.510819850000004,36.11770305833334,63.0,87.0
91,35.510819850000004,36.15574648333334,60.0,83.0
92,36.38038385000001,36.90574543333334,67.0,76.0
93,36.38038385000001,36.918426575000005,60.0,76.0
94,35.510819850000004,36.92204975833334,48.0,81.0
95,36.38038385000001,36.94922363333334,63.0,85.0
96,36.83509335833334,37.278933316666674,51.0,75.0
97,37.249947850000005,37.86045424166667,65.0,83.0
98,37.249947850000005,37.87857015833334,68.0,81.0
99,37.249947850000005,37.89306289166667,60.0,79.0
100,38.11951185000001,38.66480094166667,68.0,81.0
101,38.11951185000001,38.66842412500001,65.0,84.0
102,38.11951185000001,38.68110526666667,60.0,81.0
103,37.249947850000005,38.79885872500001,53.0,83.0
104,40.03255265000001,40.070596075000005,70.0,74.0
105,40.02349469166667,40.090523583333336,75.0,82.0
106,38.989075850000006,40.32603050000001,48.0,86.0
107,40.26443638333334,40.32603050000001,48.0,85.0
108,39.85863985,40.37494347500001,60.0,81.0
109,39.423857850000005,40.72276907500001,55.0,73.0
110,40.29342185000001,40.76262409166667,63.0,86.0
111,40.72820385000001,41.32965228333334,65.0,86.0
112,40.72820385000001,41.396681175000005,61.0,80.0
113,41.162985850000005,41.96733255000001,56.0,38.0
114,40.72820385000001,42.10682510833334,49.0,84.0
115,42.027115075000005,42.10682510833334,49.0,81.0
116,41.597767850000004,42.108636700000005,61.0,78.0
117,41.597767850000004,42.42204205833334,65.0,82.0
118,42.46733185000001,42.99088184166667,60.0,81.0
119,42.46733185000001,43.00175139166667,67.0,78.0
120,43.126751216666676,43.32421470833334,63.0,76.0
121,43.126751216666676,43.327837891666675,68.0,80.0
122,43.336895850000005,43.50718546666668,67.0,89.0
123,43.336895850000005,43.52530138333334,60.0,91.0
124,42.902113850000006,43.56696799166667,55.0,65.0
125,43.561533216666675,43.86225743333334,63.0,81.0
126,43.561533216666675,43.88399653333334,68.0,88.0
127,42.46733185000001,43.89848926666667,48.0,71.0
128,44.64124185000001,45.52348699166667,60.0,78.0
129,44.20645985000001,45.57964633333334,46.0,88.0
130,44.20645985000001,45.57964633333334,53.0,88.0
131,45.510805850000004,45.57964633333334,53.0,82.0
132,45.69377660833334,45.76624027500001,46.0,87.0
133,45.076023850000006,46.001747191666674,65.0,90.0
134,46.38036985000001,46.67203610833334,58.0,78.0
135,45.94558785000001,47.13218039166667,51.0,80.0
136,46.99268783333334,47.31877433333334,75.0,75.0
137,47.00899215833334,47.33689025000001,70.0,53.0
138,46.81515185000001,47.63399128333334,67.0,116.0
139,47.249933850000005,47.73000564166667,63.0,86.0
140,47.68471585000001,47.978193700000006,68.0,84.0
141,47.68471585000001,48.550656666666676,60.0,76.0
142,48.55427985000001,49.005366175000006,63.0,87.0
143,48.55427985000001,49.07420665833334,58.0,86.0
144,47.68471585000001,49.30246720833334,44.0,78.0
145,48.11949785000001,49.33507585833334,51.0,62.0
146,48.989061850000006,49.398481566666675,60.0,80.0
147,49.88036495000001,50.061524116666675,75.0,81.0
148,49.88036495000001,50.07964003333334,70.0,81.0
149,50.10500231666668,50.240871691666676,72.0,61.0
150,50.51261044166667,50.691958016666675,75.0,84.0
151,50.51261044166667,50.70101597500001,70.0,81.0
152,50.503552483333344,50.73543621666668,60.0,74.0
153,49.423843850000004,50.802465108333344,48.0,78.0
154,50.766233275000005,50.90572583333334,72.0,44.0
155,50.71369711666667,50.958261991666674,58.0,77.0
156,50.925653341666674,51.04521839166667,48.0,80.0
157,50.29340785000001,51.04521839166667,67.0,86.0
158,50.29340785000001,51.05789953333334,63.0,89.0
159,49.85862585000001,51.065145900000005,55.0,66.0
160,51.162971850000005,51.882173741666676,68.0,84.0
161,51.162971850000005,51.90572443333334,60.0,83.0
162,51.162971850000005,52.49086854166667,53.0,84.0
163,52.03253585000001,52.51623082500001,65.0,85.0
164,52.501738091666674,52.726375458333344,53.0,88.0
165,52.03253585000001,52.89123030000001,60.0,76.0
166,52.68833203333334,52.94920123333334,51.0,77.0
167,52.90934621666668,53.06333150833334,48.0,85.0
168,52.46731785000001,53.41296870000001,67.0,84.0
169,52.902099850000006,53.516229425000006,63.0,88.0
170,53.34050503333334,53.78072180833334,48.0,87.0
171,53.93108391666667,54.130359000000006,70.0,80.0
172,53.912968000000006,54.137605366666676,75.0,98.0
173,53.77166385000001,54.24811245833334,67.0,97.0
174,54.20644585000001,54.58506850833334,63.0,86.0
175,53.33688185000001,54.62492352500001,55.0,65.0
176,54.64122785000001,55.11405327500001,68.0,83.0
177,54.64122785000001,55.144850333333345,65.0,84.0
178,54.64122785000001,55.193763308333345,61.0,82.0
179,54.64122785000001,56.04883457500001,49.0,83.0
180,55.51079185000001,56.09774755000001,61.0,86.0
181,55.51079185000001,56.340500833333344,65.0,86.0
182,56.14484893333334,56.405718133333345,49.0,84.0
183,55.51079185000001,56.577819341666675,68.0,87.0
184,56.38035585000001,56.83687695000001,65.0,86.0
185,56.38035585000001,56.867674008333346,61.0,86.0
186,56.811514666666675,56.94013767500001,75.0,81.0
187,56.811514666666675,56.958253591666676,70.0,81.0
188,57.036152033333344,57.16115185833334,70.0,61.0
189,56.815137850000006,57.29158645833334,53.0,42.0
190,57.44376015833334,57.55970202500001,75.0,84.0
191,57.44376015833334,57.568759983333344,70.0,81.0
192,56.38035585000001,57.637600466666676,46.0,79.0
193,57.691948216666674,57.79883212500001,46.0,80.0
194,57.69738299166668,57.82600600000001,70.0,44.0
195,57.24991985000001,58.03433904166668,65.0,98.0
196,57.68470185000001,58.092309975000006,61.0,77.0
197,57.89303489166667,58.15571568333334,46.0,75.0
198,58.11948385000001,58.34049803333334,58.0,79.0
199,58.11948385000001,58.530715158333344,63.0,61.0
200,58.11948385000001,58.595932458333344,67.0,82.0
201,58.989047850000006,59.42926462500001,63.0,88.0
202,58.55426585000001,59.53977171666668,58.0,66.0
203,59.44194576666668,59.67926427500001,44.0,83.0
204,58.11948385000001,59.713684516666675,51.0,86.0
205,59.42382985000001,59.82600320000001,68.0,87.0
206,59.63759766666668,59.89846686666667,46.0,88.0
207,59.85861185000001,60.208249041666676,63.0,88.0
208,59.85861185000001,60.30064021666668,67.0,91.0
209,59.85861185000001,60.344118416666674,70.0,88.0
210,60.51078485000001,60.80788588333334,63.0,82.0
211,59.86223503333334,60.822378616666676,51.0,100.0
212,60.72817585000001,61.02165370000001,67.0,88.0
213,60.72817585000001,61.07418985833334,75.0,90.0
214,61.17563899166667,61.624913725000006,46.0,88.0
215,61.16295785000001,61.77708742500001,63.0,84.0
216,61.59773985000001,61.898464066666676,79.0,109.0
217,61.59773985000001,61.992666833333345,70.0,96.0
218,62.03252185000001,62.697375991666675,63.0,81.0
219,60.29339385000001,62.824187408333344,58.0,75.0
220,62.46730385000001,62.93469450000001,67.0,109.0
221,62.46730385000001,62.94556405000001,75.0,96.0
222,62.90208585000001,63.02708567500001,70.0,86.0
223,61.588681891666674,63.17382460000001,39.0,95.0
224,63.33686785000001,63.52165020000001,68.0,91.0
225,63.33686785000001,63.70643255000001,72.0,92.0
226,63.33686785000001,63.88215694166668,63.0,88.0
227,63.33686785000001,64.68650364166668,44.0,85.0
228,63.77164985000001,64.70461955833335,51.0,67.0
229,64.64121385000001,64.77346004166668,56.0,78.0
230,64.20643185000002,64.80063391666668,68.0,96.0
231,64.20643185000002,64.86947440000002,60.0,91.0
232,64.20643185000002,64.91838737500001,63.0,110.0
233,65.07599585000001,65.51077785000001,67.0,76.0
234,65.07599585000001,65.55063286666667,63.0,88.0
235,65.51077785000001,66.02345829166667,55.0,70.0
236,65.94555985000001,66.50896485833334,60.0,94.0
237,65.07599585000001,66.53251555000001,48.0,82.0
238,65.94555985000001,66.65389219166667,67.0,100.0
239,66.38034185000001,66.76077610000002,63.0,79.0
240,66.38034185000001,66.78613838333334,55.0,71.0
241,66.81512385,67.39121000000002,68.0,88.0
242,66.81512385,67.43831138333334,65.0,88.0
243,66.81512385,67.44374615833334,60.0,84.0
244,67.68468785000002,68.26258559166668,68.0,86.0
245,67.68468785000002,68.309686975,60.0,87.0
246,67.68468785000002,68.39120860000001,65.0,88.0
247,66.81512385,68.39664337500001,53.0,88.0
248,68.55425185000001,69.25352623333335,60.0,80.0
249,68.55425185000001,69.27345374166667,63.0,84.0
250,68.55425185000001,69.28251170000001,67.0,76.0
251,69.20642485,69.53432294166667,55.0,78.0
252,69.42381585000001,69.88577172500001,60.0,100.0
253,68.55425185000001,69.91475719166668,48.0,81.0
254,69.42381585000001,69.97816290000002,67.0,106.0
255,69.85859785000001,70.22997414166667,63.0,83.0
256,69.85859785000001,70.28613348333334,55.0,77.0
257,70.29337985000001,70.58685770000001,61.0,88.0
258,70.29337985000001,70.79337915,68.0,90.0
259,70.29337985000001,70.83504575833335,65.0,91.0
260,70.72816185,71.29700163333334,56.0,64.0
261,71.59772585000002,71.73540681666668,56.0,80.0
262,70.29337985000001,71.75895750833334,49.0,84.0
263,71.16294385,71.89663847500002,68.0,89.0
264,71.16294385,71.90569643333335,65.0,93.0
265,72.03250785000002,72.33866684166668,60.0,84.0
266,72.03250785000002,72.67199970833335,67.0,85.0
267,72.03250785000002,73.32779589166668,48.0,81.0
268,72.90207185000001,73.40388274166668,63.0,98.0
269,72.68468085,73.483592775,60.0,82.0
270,73.33685385000001,73.73359242500001,67.0,90.0
271,72.46728985000001,73.77525903333334,55.0,71.0
272,73.77163585000001,74.33685245000001,65.0,88.0
273,73.77163585000001,74.33866404166668,68.0,86.0
274,73.77163585000001,74.41475089166669,61.0,85.0
275,74.20641785000001,74.55786663333335,56.0,38.0
276,73.77163585000001,75.08503980833335,49.0,84.0
277,74.64119985,75.14482233333335,61.0,88.0
278,74.64119985,75.14482233333335,68.0,88.0
279,74.64119985,75.38576402500001,65.0,89.0
280,75.07598185,75.50714066666667,56.0,74.0
281,75.51076385000002,75.77706782500002,63.0,87.0
282,75.51076385000002,75.87308218333335,68.0,88.0
283,75.94554585000002,76.44011037500002,63.0,88.0
284,76.59771885,76.78068960833335,63.0,91.0
285,76.16293685000001,76.79518234166667,67.0,84.0
286,76.38032785000001,76.82779099166667,75.0,92.0
287,75.72815485000001,76.84771850000001,58.0,81.0
288,75.51076385000002,76.91655898333335,51.0,84.0
289,76.81510985000001,77.08141382500001,70.0,87.0
290,77.03250085,77.29880482500002,75.0,91.0
291,77.24989185000001,77.53612333333335,72.0,90.0
292,77.24989185000001,77.592282675,68.0,83.0
293,77.24989185000001,78.55967262500002,44.0,86.0
294,77.68467385000001,78.63757106666668,51.0,64.0
295,78.11945585000001,78.76075930000002,60.0,93.0
296,78.55423785,78.83503455833335,56.0,78.0
297,78.11945585000001,78.83865774166668,68.0,91.0
298,78.55423785,78.90749822500001,63.0,81.0
299,78.77525203333335,79.04880237500001,46.0,91.0
300,78.98901985,80.38756861666668,48.0,85.0
301,79.64119285000001,80.50894525833334,60.0,84.0
302,80.29698903333335,80.53249595000001,51.0,95.0
303,79.42380185000002,80.65206100000002,55.0,70.0
304,80.07597485000001,80.68466965000002,67.0,100.0
305,80.50169889166668,80.72090148333335,48.0,79.0
306,79.85858385000002,80.744452175,63.0,89.0
307,80.72814785000001,81.23177033333334,60.0,88.0
308,80.72814785000001,81.39481358333335,68.0,94.0
309,81.38032085000002,82.06510250000001,60.0,83.0
310,80.72814785000001,82.06691409166667,53.0,81.0
311,81.59771185000001,82.06872568333334,65.0,96.0
312,82.03249385000001,82.46908744166667,68.0,85.0
313,82.25894280833334,82.50350768333334,46.0,99.0
314,82.46727585000001,82.88575352500001,60.0,88.0
315,82.46727585000001,83.15386909166668,67.0,84.0
316,83.33683985000002,83.76256389166667,67.0,113.0
317,82.46727585000001,83.82234641666668,48.0,79.0
318,83.11944885000001,84.01256354166668,60.0,80.0
319,83.77162185000002,84.19734589166669,63.0,96.0
320,82.90205785000002,84.23720090833335,55.0,73.0
321,84.20640385000002,84.59951924166668,61.0,86.0
322,84.20640385000002,84.86582321666668,65.0,88.0
323,84.85857685000002,85.42560504166669,61.0,84.0
324,85.07596785000001,85.52524258333335,63.0,100.0
325,84.64118585000001,85.55785123333335,56.0,68.0
326,84.20640385000002,85.61401057500001,49.0,84.0
327,85.07596785000001,85.87125659166668,68.0,94.0
328,85.51074985000001,85.99806800833335,65.0,83.0
329,86.59770485000001,87.23357352500001,60.0,87.0
330,86.38031385000001,87.29335605000001,55.0,71.0
331,85.94553185000001,87.32234151666668,48.0,87.0
332,86.81509585000002,87.33683425000001,63.0,84.0
333,87.24987785000002,87.67741348333335,67.0,83.0
334,87.68465985000002,87.97994929166668,68.0,83.0
335,87.68465985000002,88.01436953333335,70.0,83.0
336,87.68465985000002,88.34407921666669,61.0,87.0
337,88.33683285000001,88.72089028333335,58.0,84.0
338,87.68465985000002,88.99081744166668,46.0,84.0
339,88.11944185000002,89.02886086666668,53.0,48.0
340,88.98900585000001,89.31871553333335,65.0,74.0
341,88.55422385000001,89.40386034166669,61.0,96.0
342,88.98900585000001,89.40748352500002,58.0,83.0
343,89.19552730000001,89.45096172500001,46.0,90.0
344,88.55422385000001,89.80422210000002,70.0,100.0
345,89.42378785000001,89.83139597500002,63.0,89.0
346,89.42378785000001,89.88030895000001,67.0,86.0
347,90.07596085000002,90.48719215833334,63.0,88.0
348,89.85856985000001,90.74987295000001,58.0,71.0
349,89.42378785000001,90.82595980000002,51.0,86.0
350,90.29335185000001,91.06871308333335,70.0,104.0
351,90.72813385000002,91.18827813333334,67.0,84.0
352,90.32052572500001,91.19190131666669,39.0,84.0
353,91.16291585000002,91.86581341666668,63.0,74.0
354,91.16291585000002,91.87124819166668,68.0,87.0
355,91.16291585000002,91.88574092500001,60.0,76.0
356,91.16291585000002,92.17378400000001,44.0,82.0
357,92.25892880833335,92.51617482500001,44.0,77.0
358,92.03247985000002,92.56689939166668,68.0,85.0
359,92.03247985000002,92.62305873333335,60.0,83.0
360,92.47631980833334,92.70276876666668,46.0,79.0
361,92.03247985000002,92.84044973333334,63.0,87.0
362,92.67921807500001,92.92559454166668,47.0,75.0
363,92.46726185000001,93.02160890000002,56.0,71.0
364,92.90204385000001,93.42015906666668,63.0,89.0
365,92.90204385000001,93.56689799166668,60.0,88.0
366,92.91653658333335,93.83682515000001,48.0,84.0
367,93.55421685000002,94.12849140833335,56.0,80.0
368,91.59769785000002,94.30059261666668,51.0,63.0
369,94.24443327500002,94.30059261666668,51.0,85.0
370,93.77160785000001,94.56689659166668,60.0,88.0
371,93.77160785000001,94.59044728333335,63.0,89.0
372,94.20638985000001,94.63211389166668,56.0,64.0
373,94.42740403333335,94.66472254166668,52.0,79.0
374,94.64841821666668,95.55059086666668,53.0,97.0
375,95.07595385000002,95.92740193333334,60.0,76.0
376,95.71906889166668,96.18645954166668,53.0,87.0
377,96.16653203333335,96.37305348333335,41.0,74.0
378,95.72812685000001,96.72087908333334,65.0,34.0
379,95.51073585000002,96.76616887500002,68.0,89.0
380,96.38029985000001,96.84769050000001,48.0,84.0
381,96.81689344166668,97.31508115000001,51.0,90.0
382,97.24986385000001,97.52341419166669,63.0,84.0
383,97.03247285000002,97.90384844166668,60.0,84.0
384,96.81508185000001,98.07232646666668,55.0,69.0
385,97.46725485000002,98.09587715833335,68.0,91.0
386,98.11942785000002,98.67015171666668,65.0,87.0
387,98.11942785000002,98.71362991666668,61.0,83.0
388,98.55420985000002,99.44188976666668,56.0,38.0
389,98.11942785000002,99.55964322500002,49.0,83.0
390,98.98899185000002,99.82957038333335,61.0,84.0
391,98.98899185000002,99.87848335833336,65.0,87.0
392,99.63029530000001,99.90565723333334,49.0,90.0
393,99.85855585000002,101.22811915000001,48.0,89.0
394,101.18645254166668,101.22811915000001,48.0,89.0
395,100.29333785000001,101.30420600000002,55.0,67.0
396,100.72811985000001,101.39297399166668,67.0,89.0
397,100.72811985000001,101.41290150000002,63.0,91.0
398,101.38572762500002,101.59406066666668,47.0,85.0
399,101.59768385000001,102.19369750833334,70.0,91.0
400,101.59768385000001,102.24623366666668,61.0,86.0
401,101.59768385000001,102.89116030000001,46.0,83.0
402,102.03246585000002,102.91289940000001,53.0,38.0
403,102.67739248333335,102.91289940000001,53.0,91.0
404,102.46724785000002,103.09043538333334,61.0,88.0
405,102.46724785000002,103.13029040000002,70.0,89.0
406,102.90202985000002,103.33500025833335,58.0,85.0
407,103.13210199166669,103.36398572500002,46.0,100.0
408,103.33681185000002,103.95818779166669,63.0,87.0
409,103.33681185000002,103.96905734166668,67.0,85.0
410,104.20637585000001,104.89296909166669,63.0,88.0
411,104.20637585000001,104.92195455833335,67.0,85.0
412,103.33681185000002,105.43463500000001,51.0,86.0
413,105.52159140000002,106.00166319166668,51.0,91.0
414,105.07593985000001,106.04695298333336,68.0,86.0
415,103.98898485000002,106.11760505833335,58.0,65.0
416,105.94550385000002,106.45818429166668,67.0,81.0
417,105.97992409166669,106.77340124166669,53.0,72.0
418,106.84224172500002,107.34224102500002,68.0,81.0
419,106.84224172500002,107.40926991666669,63.0,80.0
420,106.84224172500002,107.43282060833334,60.0,80.0
421,107.27702372500002,107.78064620833335,56.0,66.0
422,106.84224172500002,108.17557319166669,44.0,81.0
423,107.71180572500002,108.26615277500002,68.0,86.0
424,107.71180572500002,108.26977595833335,60.0,83.0
425,107.71180572500002,108.36216713333334,63.0,88.0
426,108.14658772500002,108.53789152500002,56.0,65.0
427,108.34223962500002,108.57050017500002,44.0,79.0
428,108.58136972500002,109.17557179166668,67.0,81.0
429,108.58136972500002,109.18825293333335,63.0,87.0
430,108.58136972500002,109.22629635833336,60.0,83.0
431,109.45093372500001,109.97629530833335,67.0,76.0
432,109.45093372500001,109.98897645000002,60.0,76.0
433,108.58136972500002,109.99259963333336,48.0,81.0
434,109.45093372500001,110.01977350833334,63.0,85.0
435,109.91107800833335,110.35491796666669,51.0,75.0
436,110.32049772500002,110.93100411666668,65.0,83.0
437,110.32049772500002,110.94912003333334,68.0,81.0
438,110.32049772500002,110.96361276666669,60.0,79.0
439,111.19006172500002,111.73535081666668,68.0,81.0
440,111.19006172500002,111.73897400000001,65.0,84.0
441,111.19006172500002,111.75165514166669,60.0,81.0
442,110.32049772500002,111.86940860000001,53.0,83.0
443,112.05962572500002,113.39658037500001,48.0,86.0
444,113.34042103333336,113.39658037500001,48.0,85.0
445,113.12484162500002,113.40563833333336,70.0,62.0
446,113.12121844166668,113.40926151666669,75.0,61.0
447,112.92918972500001,113.44549335000002,60.0,81.0
448,112.49440772500002,113.79331895000001,55.0,73.0
449,113.55056566666669,113.82592760000001,75.0,68.0
450,113.36397172500001,113.83317396666668,63.0,86.0
451,113.55781203333335,113.84042033333336,70.0,52.0
452,113.79875372500001,114.40020215833336,65.0,86.0
453,113.79875372500001,114.46723105000002,61.0,80.0
454,114.23353572500002,115.03788242500002,56.0,38.0
455,113.79875372500001,115.17737498333335,49.0,84.0
456,115.10309972500002,115.17737498333335,49.0,81.0
457,114.66831772500002,115.17918657500002,61.0,78.0
458,114.66831772500002,115.49259193333336,65.0,82.0
459,115.53788172500002,116.06143171666669,60.0,81.0
460,115.53788172500002,116.07230126666668,67.0,78.0
461,115.97266372500002,116.63751786666668,55.0,65.0
462,115.53788172500002,116.85672045833336,48.0,71.0
463,116.40744572500002,117.11940125000002,60.0,91.0
464,116.40744572500002,117.23534311666668,67.0,89.0
465,117.71179172500001,118.59403686666668,60.0,78.0
466,117.27700972500001,118.65019620833336,53.0,88.0
467,118.58679050000002,118.65019620833336,53.0,82.0
468,117.28244450000003,118.65563098333335,46.0,88.0
469,118.76976125833335,118.84222492500002,46.0,87.0
470,118.14657372500002,119.07229706666668,65.0,90.0
471,119.45091972500002,119.74258598333336,58.0,78.0
472,119.01613772500002,120.20273026666669,51.0,67.0
473,119.88570172500002,120.70454115833336,67.0,116.0
474,120.32048372500002,120.80055551666669,63.0,86.0
475,120.75526572500002,121.04874357500002,68.0,84.0
476,120.75526572500002,121.62120654166668,60.0,76.0
477,121.62482972500001,122.07591605000002,63.0,87.0
478,121.62482972500001,122.14475653333335,58.0,86.0
479,120.75526572500002,122.37301708333335,44.0,78.0
480,121.19004772500001,122.40562573333335,51.0,62.0
481,122.05961172500002,122.46903144166669,60.0,80.0
482,122.93823368333335,123.22084198333336,70.0,62.0
483,122.93461050000002,123.22627675833336,75.0,62.0
484,123.36758090833335,123.63931965833335,70.0,71.0
485,123.36395772500002,123.63931965833335,75.0,80.0
486,123.57772554166668,123.82953678333335,58.0,85.0
487,122.49439372500002,123.87301498333335,48.0,78.0
488,123.79511654166669,124.01431913333336,56.0,77.0
489,123.36395772500002,124.11576826666669,67.0,86.0
490,124.00163799166668,124.12120304166669,48.0,80.0
491,123.36395772500002,124.12844940833335,63.0,89.0
492,122.92917572500002,124.13569577500002,55.0,66.0
493,124.23352172500002,124.95272361666669,68.0,84.0
494,124.23352172500002,124.97627430833336,60.0,83.0
495,124.23352172500002,125.56141841666668,53.0,84.0
496,124.23895650000001,125.56141841666668,53.0,84.0
497,125.10308572500001,125.58678070000002,65.0,85.0
498,125.57772274166669,125.80236010833335,53.0,88.0
499,125.10308572500001,125.96178017500002,60.0,76.0
500,125.76431668333335,126.02518588333335,51.0,77.0
501,125.98533086666669,126.13931615833336,48.0,85.0
502,125.53786772500003,126.48351857500002,67.0,84.0
503,125.97264972500003,126.58677930000002,63.0,88.0
504,126.41648968333335,126.85670645833335,48.0,87.0
505,126.60127203333336,126.88388033333335,70.0,62.0
506,126.5994604416667,126.88931510833335,75.0,62.0
507,127.03061925833336,127.30235800833336,70.0,71.0
508,127.02880766666668,127.30235800833336,75.0,80.0
509,126.84221372500002,127.31866233333335,67.0,97.0
510,127.27699572500002,127.65561838333335,63.0,86.0
511,126.40743172500002,127.69547340000003,55.0,65.0
512,127.71177772500002,128.18460315000002,68.0,83.0
513,127.71177772500002,128.21540020833336,65.0,84.0
514,127.71177772500002,128.26431318333334,61.0,82.0
515,127.71177772500002,129.11938445,49.0,83.0
516,128.58134172500002,129.16829742500002,61.0,86.0
517,128.58134172500002,129.41105070833336,65.0,86.0
518,129.22083358333336,129.48170278333336,49.0,84.0
519,128.58134172500002,129.64836921666668,68.0,87.0
520,129.450905725,129.90742682500002,65.0,86.0
521,129.450905725,129.93822388333336,61.0,86.0
522,129.89474568333335,130.16286125000002,70.0,77.0
523,129.89112250000002,130.16829602500002,75.0,77.0
524,129.88568772500003,130.36213633333335,53.0,42.0
525,130.32409290833334,130.57952733333335,70.0,86.0
526,130.320469725,130.57952733333335,75.0,95.0
527,129.450905725,130.70815034166668,46.0,79.0
528,130.76793286666668,130.87481677500003,46.0,80.0
529,130.320469725,131.10488891666668,65.0,98.0
530,130.75525172500002,131.16285985000002,61.0,77.0
531,130.96901954166668,131.23170033333335,46.0,75.0
532,131.190033725,131.41104790833336,58.0,79.0
533,131.190033725,131.60126503333336,63.0,61.0
534,131.190033725,131.66648233333336,67.0,82.0
535,132.05959772500003,132.4998145,63.0,88.0
536,131.62481572500002,132.6103215916667,58.0,66.0
537,132.5179304166667,132.75524892500002,44.0,83.0
538,131.190033725,132.7842343916667,51.0,86.0
539,132.49437972500002,132.896553075,68.0,87.0
540,132.71358231666667,132.97445151666668,46.0,88.0
541,132.92916172500003,133.2787989166667,63.0,88.0
542,132.92916172500003,133.37119009166668,67.0,91.0
543,132.92916172500003,133.4146682916667,70.0,88.0
544,133.58133472500003,133.87843575833335,63.0,82.0
545,133.79872572500003,134.092203575,67.0,88.0
546,133.79872572500003,134.14473973333335,75.0,90.0
547,134.2516236416667,134.700898375,46.0,88.0
548,134.233507725,134.84763730000003,63.0,84.0
549,134.66828972500002,134.96901394166667,79.0,109.0
550,134.66828972500002,135.06321670833336,70.0,96.0
551,135.10307172500004,135.7679258666667,63.0,81.0
552,133.363943725,135.89473728333334,58.0,75.0
553,132.92916172500003,135.9907516416667,51.0,84.0
554,135.53785372500002,136.00524437500002,67.0,109.0
555,135.53785372500002,136.016113925,75.0,96.0
556,135.97263572500003,136.09763555000004,70.0,86.0
557,134.6646665416667,136.24980925000003,39.0,95.0
558,136.40741772500002,136.59220007500002,68.0,91.0
559,136.40741772500002,136.77698242500003,72.0,92.0
560,136.40741772500002,136.95270681666668,63.0,88.0
561,136.40741772500002,137.7570535166667,44.0,85.0
562,136.4128525,137.7570535166667,44.0,85.0
563,136.84219972500003,137.77516943333336,51.0,67.0
564,137.71176372500003,137.8440099166667,56.0,78.0
565,137.276981725,137.87118379166668,68.0,96.0
566,137.276981725,137.940024275,60.0,91.0
567,137.276981725,137.98893725000002,63.0,110.0
568,138.146545725,138.58132772500002,67.0,76.0
569,138.146545725,138.6211827416667,63.0,88.0
570,138.58132772500002,139.0940081666667,55.0,70.0
571,139.01610972500004,139.57951473333335,60.0,94.0
572,138.146545725,139.603065425,48.0,82.0
573,139.01610972500004,139.72444206666668,67.0,100.0
574,139.45089172500002,139.83132597500003,63.0,79.0
575,139.45089172500002,139.85668825833335,55.0,71.0
576,139.88567372500003,140.461759875,68.0,88.0
577,139.88567372500003,140.50886125833335,65.0,88.0
578,139.88567372500003,140.51429603333335,60.0,84.0
579,140.75523772500003,141.33313546666668,68.0,86.0
580,140.75523772500003,141.38023685000002,60.0,87.0
581,140.75523772500003,141.461758475,65.0,88.0
582,139.88567372500003,141.46719325,53.0,88.0
583,141.62480172500003,142.32407610833334,60.0,80.0
584,141.62480172500003,142.3440036166667,63.0,84.0
585,141.62480172500003,142.35306157500003,67.0,76.0
586,142.27697472500003,142.6048728166667,55.0,78.0
587,142.49436572500002,142.95632160000002,60.0,100.0
588,141.62480172500003,142.98530706666668,48.0,81.0
589,142.49436572500002,143.048712775,67.0,106.0
590,142.92914772500004,143.30052401666669,63.0,83.0
591,142.92914772500004,143.35668335833336,55.0,77.0
592,143.36392972500002,143.65740757500004,61.0,88.0
593,143.36392972500002,143.86392902500003,68.0,90.0
594,143.36392972500002,143.90559563333335,65.0,91.0
595,143.79871172500003,144.36755150833335,56.0,64.0
596,144.66827572500003,144.8059566916667,56.0,80.0
597,143.36392972500002,144.82950738333335,49.0,84.0
598,144.23349372500002,144.96718835000001,68.0,89.0
599,144.23349372500002,144.97624630833334,65.0,93.0
600,145.103057725,145.4092167166667,60.0,84.0
601,145.103057725,145.74254958333336,67.0,85.0
602,145.103057725,146.3983457666667,48.0,81.0
603,145.972621725,146.4744326166667,63.0,98.0
604,145.75523072500002,146.55414265000002,60.0,82.0
605,146.40740372500002,146.80414230000002,67.0,90.0
606,145.53783972500003,146.84580890833337,55.0,71.0
607,146.84218572500004,147.40740232500002,65.0,88.0
608,146.84218572500004,147.4092139166667,68.0,86.0
609,146.84218572500004,147.48530076666668,61.0,85.0
610,147.27696772500002,147.62841650833334,56.0,38.0
611,146.84218572500004,148.15558968333335,49.0,84.0
612,147.71174972500003,148.21537220833335,61.0,88.0
613,147.71174972500003,148.21537220833335,68.0,88.0
614,147.71174972500003,148.45631390000003,65.0,89.0
615,148.14653172500002,148.5776905416667,56.0,74.0
616,148.58131372500003,148.84761770000003,63.0,87.0
617,148.58131372500003,148.94363205833335,68.0,88.0
618,149.016095725,149.51066025000003,63.0,88.0
619,149.66826872500002,149.85123948333336,63.0,91.0
620,149.23348672500003,149.8657322166667,67.0,84.0
621,149.45087772500003,149.8983408666667,75.0,92.0
622,148.79870472500002,149.91826837500003,58.0,81.0
623,148.58131372500003,149.98710885833336,51.0,84.0
624,149.885659725,150.1519637,70.0,87.0
625,150.10305072500003,150.36935470000003,75.0,91.0
626,150.32044172500002,150.60667320833335,72.0,90.0
627,150.32044172500002,150.66283255000002,68.0,83.0
628,150.32044172500002,151.63022250000003,44.0,86.0
629,150.75522372500004,151.7081209416667,51.0,64.0
630,151.19000572500002,151.83130917500003,60.0,93.0
631,151.62478772500003,151.90558443333336,56.0,78.0
632,151.19000572500002,151.9092076166667,68.0,91.0
633,151.62478772500003,151.97804810000002,63.0,81.0
634,151.85848305000002,152.1102942916667,46.0,88.0
635,152.05956972500002,153.45811849166668,48.0,85.0
636,152.71174272500002,153.57949513333335,60.0,84.0
637,153.3602925416667,153.61391537500003,51.0,94.0
638,152.49435172500003,153.72261087500002,55.0,70.0
639,153.14652472500003,153.75521952500003,67.0,100.0
640,153.55956762500003,153.8113788666667,48.0,64.0
641,152.929133725,153.81500205000003,63.0,89.0
642,153.798697725,154.30232020833336,60.0,88.0
643,153.798697725,154.46536345833337,68.0,94.0
644,154.45087072500002,155.13565237500003,60.0,83.0
645,153.798697725,155.1374639666667,53.0,81.0
646,154.66826172500004,155.13927555833337,65.0,96.0
647,155.10304372500002,155.5396373166667,68.0,85.0
648,155.33492745833337,155.58311551666668,46.0,90.0
649,155.53782572500003,155.95630340000002,60.0,88.0
650,155.53782572500003,156.2244189666667,67.0,84.0
651,156.40738972500003,156.83311376666668,67.0,113.0
652,155.53782572500003,156.8928962916667,48.0,79.0
653,156.18999872500004,157.0831134166667,60.0,80.0
654,156.84217172500001,157.2678957666667,63.0,96.0
655,155.97260772500002,157.30775078333335,55.0,73.0
656,157.27695372500003,157.6700691166667,61.0,86.0
657,157.27695372500003,157.9363730916667,65.0,88.0
658,157.92912672500003,158.49615491666668,61.0,84.0
659,158.14651772500002,158.59579245833336,63.0,100.0
660,157.711735725,158.62840110833335,56.0,68.0
661,157.27695372500003,158.68456045000002,49.0,84.0
662,158.14651772500002,158.9418064666667,68.0,94.0
663,158.58129972500004,159.06861788333336,65.0,83.0
664,159.66825472500003,160.30412340000004,60.0,87.0
665,159.45086372500003,160.363905925,55.0,71.0
666,159.01608172500002,160.3928913916667,48.0,87.0
667,159.88564572500002,160.40738412500002,63.0,84.0
668,160.32042772500003,160.74796335833335,67.0,83.0
669,160.75520972500001,161.0504991666667,68.0,83.0
670,160.75520972500001,161.08491940833335,70.0,83.0
671,160.75520972500001,161.41462909166668,61.0,87.0
672,161.40738272500002,161.79144015833336,58.0,84.0
673,160.75520972500001,162.0613673166667,46.0,84.0
674,161.18999172500003,162.0994107416667,53.0,48.0
675,162.05955572500002,162.38926540833336,65.0,74.0
676,161.624773725,162.47441021666668,61.0,96.0
677,162.05955572500002,162.47803340000002,58.0,83.0
678,162.27513513333335,162.50339568333337,46.0,94.0
679,161.624773725,162.87477197500002,70.0,100.0
680,162.49433772500004,162.90194585000003,63.0,89.0
681,162.49433772500004,162.950858825,67.0,86.0
682,162.49433772500004,163.478032,51.0,86.0
683,163.146510725,163.55774203333337,63.0,88.0
684,162.92911972500002,163.82042282500004,58.0,71.0
685,163.36390172500003,164.13926295833335,70.0,104.0
686,163.3711480916667,164.25339323333336,39.0,83.0
687,163.79868372500002,164.25882800833335,67.0,84.0
688,164.23346572500003,164.8041171,68.0,89.0
689,164.23346572500003,164.8820155416667,63.0,92.0
690,164.23346572500003,164.89107350000003,60.0,88.0
691,165.10302972500003,165.59215947500002,63.0,89.0
692,165.10302972500003,165.68273905833337,60.0,84.0
693,164.66824772500001,165.7624490916667,51.0,46.0
694,164.23346572500003,165.80955047500004,44.0,86.0
695,165.54686968333337,165.80955047500004,44.0,79.0
696,165.10302972500003,165.83491275833336,68.0,86.0
697,165.97259372500002,166.66643333333337,65.0,81.0
698,165.97259372500002,166.71172312500002,58.0,80.0
699,165.97259372500002,166.74433177500003,62.0,85.0
700,167.28599768333336,167.38020045000002,44.0,84.0
701,166.84215772500002,167.5559248416667,65.0,81.0
702,166.84215772500002,167.6374464666667,58.0,80.0
703,166.84215772500002,167.7298376416667,62.0,80.0
704,167.4907075416667,167.7352724166667,44.0,90.0
705,167.71172172500002,168.20628625000003,68.0,83.0
706,167.71172172500002,168.2733151416667,65.0,81.0
707,167.71172172500002,168.2841846916667,61.0,80.0
708,168.14650372500003,169.05954592500004,56.0,64.0
709,167.71172172500002,169.07585025000003,49.0,84.0
710,168.58128572500001,169.18998052500004,61.0,86.0
711,168.58128572500001,169.23889350000002,65.0,88.0
712,168.58128572500001,169.30773398333335,68.0,86.0
713,169.45084972500004,170.10121113333335,63.0,87.0
714,169.45084972500004,170.12838500833337,68.0,84.0
715,169.45084972500004,170.15555888333336,60.0,81.0
716,170.10302272500002,170.53780472500003,56.0,63.0
717,170.56497860000002,170.74976095000002,51.0,91.0
718,169.45084972500004,170.88925350833335,44.0,80.0
719,170.32041372500004,170.98707945833337,60.0,88.0
720,170.32041372500004,170.99251423333337,68.0,90.0
721,170.32041372500004,171.00338378333336,63.0,90.0
722,170.9852678666667,171.2461370666667,39.0,94.0
723,171.18997772500003,171.83309276666668,64.0,83.0
724,171.18997772500003,171.91642598333337,61.0,79.0
725,171.18997772500003,171.9254839416667,58.0,78.0
726,172.05954172500003,172.6591785666667,61.0,87.0
727,171.18997772500003,172.80954067500002,42.0,81.0
728,172.5015700916667,172.80954067500002,42.0,84.0
729,172.05954172500003,172.84758410000003,64.0,87.0
730,172.05954172500003,172.87294638333336,58.0,84.0
731,173.38562682500003,173.62113374166668,45.0,82.0
732,172.92910572500003,173.67366990000002,64.0,77.0
733,172.92910572500003,173.7243944666667,61.0,87.0
734,173.5885250916667,173.7678726666667,44.0,86.0
735,174.0287418666667,174.27874151666668,44.0,83.0
736,173.79866972500002,174.30410380000004,64.0,82.0
737,172.92910572500003,174.41823407500002,58.0,70.0
738,173.79866972500002,174.42729203333337,61.0,81.0
739,174.2461328666667,174.4580890916667,42.0,76.0
740,174.42729203333337,174.66823372500002,40.0,73.0
741,174.68997282500004,174.97076953333337,39.0,83.0
742,174.66823372500002,175.34576900833335,63.0,84.0
743,175.11207368333336,175.40011675833335,39.0,76.0
744,174.66823372500002,175.41642108333335,60.0,83.0
745,174.66823372500002,175.43816018333337,56.0,83.0
746,175.5559136416667,175.62294253333337,51.0,77.0
747,175.55953682500004,175.62294253333337,51.0,81.0
748,175.76605827500003,175.80953647500002,39.0,84.0
749,175.53779772500002,176.15011570833337,56.0,83.0
750,175.53779772500002,176.15192730000004,60.0,86.0
751,175.53779772500002,176.18997072500002,63.0,86.0
752,176.19359390833336,176.23888370000003,39.0,81.0
753,176.64468023333336,176.8602596416667,39.0,90.0
754,176.86569441666668,176.9254769416667,51.0,76.0
755,176.40736172500002,177.0450419916667,63.0,82.0
756,176.40736172500002,177.05228835833336,56.0,78.0
757,176.40736172500002,177.07946223333337,60.0,82.0
758,177.0776506416667,177.1265636166667,39.0,79.0
759,177.53960651666668,177.75518592500003,39.0,91.0
760,177.27692572500004,177.86931620000001,56.0,84.0
761,177.73888160000004,177.95083782500004,51.0,84.0
762,177.27692572500004,177.9580841916667,63.0,86.0
763,177.27692572500004,177.9852580666667,60.0,87.0
764,177.93091031666668,178.0069971666667,39.0,91.0
765,178.14648972500004,178.33127207500002,68.0,91.0
766,178.14648972500004,178.51605442500002,72.0,92.0
767,178.14648972500004,178.6917788166667,63.0,88.0
768,178.14648972500004,179.4961255166667,44.0,85.0
769,178.58127172500002,179.51424143333335,51.0,67.0
770,179.45083572500002,179.58308191666669,56.0,78.0
771,179.01605372500003,179.6102557916667,68.0,96.0
772,179.01605372500003,179.67909627500003,60.0,91.0
773,179.01605372500003,179.72800925000004,63.0,110.0
774,179.88561772500003,180.32039972500002,67.0,76.0
775,179.88561772500003,180.3602547416667,63.0,88.0
776,180.32039972500002,180.8330801666667,55.0,70.0
777,180.75518172500003,181.31858673333335,60.0,94.0
778,179.88561772500003,181.34213742500003,48.0,82.0
779,180.75518172500003,181.4635140666667,67.0,100.0
780,181.18996372500004,181.57039797500002,63.0,79.0
781,181.18996372500004,181.59576025833337,55.0,71.0
782,181.62474572500003,182.20083187500003,68.0,88.0
783,181.62474572500003,182.24793325833338,65.0,88.0
784,181.62474572500003,182.25336803333337,60.0,84.0
785,182.49430972500002,183.0722074666667,68.0,86.0
786,182.49430972500002,183.11930885000004,60.0,87.0
787,182.49430972500002,183.20083047500003,65.0,88.0
788,181.62474572500003,183.20626525000003,53.0,88.0
789,183.36387372500002,184.06314810833337,60.0,80.0
790,183.36387372500002,184.0830756166667,63.0,84.0
791,183.36387372500002,184.09213357500002,67.0,76.0
792,184.01604672500002,184.3439448166667,55.0,78.0
793,184.23343772500002,184.69539360000002,60.0,100.0
794,183.36387372500002,184.7243790666667,48.0,81.0
795,184.23343772500002,184.78778477500003,67.0,106.0
796,184.66821972500003,185.0395960166667,63.0,83.0
797,184.66821972500003,185.09575535833335,55.0,77.0
798,185.10300172500004,185.39647957500003,61.0,88.0
799,185.10300172500004,185.60300102500003,68.0,90.0
800,185.10300172500004,185.64466763333337,65.0,91.0
801,185.53778372500003,186.10662350833337,56.0,64.0
802,186.40734772500002,186.5450286916667,56.0,80.0
803,185.10300172500004,186.56857938333337,49.0,84.0
804,185.97256572500004,186.70626035000004,68.0,89.0
805,185.97256572500004,186.71531830833337,65.0,93.0
806,186.84212972500004,187.14828871666668,60.0,84.0
807,186.84212972500004,187.48162158333335,67.0,85.0
808,186.84212972500004,188.1374177666667,48.0,81.0
809,187.71169372500003,188.21350461666668,63.0,98.0
810,187.49430272500004,188.29321465000004,60.0,82.0
811,188.14647572500002,188.54321430000002,67.0,90.0
812,187.27691172500002,188.58488090833336,55.0,71.0
813,188.58125772500003,189.14647432500004,65.0,88.0
814,188.58125772500003,189.1482859166667,68.0,86.0
815,188.58125772500003,189.2243727666667,61.0,85.0
816,189.01603972500004,189.36748850833337,56.0,38.0
817,188.58125772500003,189.89466168333337,49.0,84.0
818,189.45082172500003,189.95444420833337,61.0,88.0
819,189.45082172500003,189.95444420833337,68.0,88.0
820,189.45082172500003,190.19538590000002,65.0,89.0
821,189.88560372500004,190.3167625416667,56.0,74.0
822,190.32038572500002,190.58668970000002,63.0,87.0
823,190.32038572500002,190.68270405833337,68.0,88.0
824,191.0124137416667,191.20081927500004,39.0,88.0
825,190.75516772500004,191.24973225000002,63.0,88.0
826,191.40734072500004,191.59031148333335,63.0,91.0
827,190.97255872500003,191.6048042166667,67.0,84.0
828,191.18994972500002,191.6374128666667,75.0,92.0
829,190.53777672500004,191.65734037500002,58.0,81.0
830,190.32038572500002,191.72618085833335,51.0,84.0
831,191.62473172500003,191.89103570000003,70.0,87.0
832,191.85661545833335,192.08487600833337,39.0,85.0
833,191.84212272500002,192.10842670000002,75.0,91.0
834,192.05951372500002,192.34574520833337,72.0,90.0
835,192.05951372500002,192.40190455000004,68.0,83.0
836,192.05951372500002,193.36929450000002,44.0,86.0
837,192.49429572500003,193.44719294166669,51.0,64.0
838,192.92907772500004,193.57038117500002,60.0,93.0
839,193.36385972500003,193.64465643333335,56.0,78.0
840,192.92907772500004,193.64827961666668,68.0,91.0
841,193.36385972500003,193.71712010000002,63.0,81.0
842,193.64465643333335,193.88016335000003,46.0,80.0
843,193.79864172500004,195.1971904916667,48.0,85.0
844,194.45081472500004,195.31856713333337,60.0,84.0
845,195.13921955833337,195.36204533333336,51.0,95.0
846,194.23342372500002,195.46168287500004,55.0,70.0
847,194.88559672500003,195.49429152500002,67.0,100.0
848,194.66820572500004,195.55407405000003,63.0,89.0
849,195.33668305000003,195.5613204166667,48.0,76.0
850,195.53776972500003,196.04139220833338,60.0,88.0
851,195.53776972500003,196.20443545833336,68.0,94.0
852,196.18994272500004,196.87472437500003,60.0,83.0
853,195.53776972500003,196.8765359666667,53.0,81.0
854,196.40733372500003,196.87834755833336,65.0,96.0
855,196.84211572500004,197.2787093166667,68.0,85.0
856,197.0558835416667,197.28595568333336,46.0,94.0
857,197.27689772500003,197.69537540000002,60.0,88.0
858,197.27689772500003,197.9634909666667,67.0,84.0
859,198.14646172500002,198.5721857666667,67.0,113.0
860,197.27689772500003,198.6319682916667,48.0,79.0
861,197.92907072500003,198.82218541666668,60.0,80.0
862,198.58124372500004,199.0069677666667,63.0,96.0
863,197.71167972500004,199.04682278333337,55.0,73.0
864,199.01602572500002,199.4091411166667,61.0,86.0
865,199.01602572500002,199.6754450916667,65.0,88.0
866,199.66819872500002,200.2352269166667,61.0,84.0
867,199.88558972500005,200.33486445833336,63.0,100.0
868,199.45080772500003,200.36747310833337,56.0,68.0
869,199.01602572500002,200.42363245000004,49.0,84.0
870,199.88558972500005,200.68087846666668,68.0,94.0
871,200.32037172500003,200.80768988333335,65.0,83.0
872,200.7950087416667,201.02508088333337,48.0,95.0
873,201.23703710833337,201.68450025000004,48.0,95.0
874,201.40732672500002,202.04319540000003,60.0,87.0
875,201.18993572500003,202.10297792500003,55.0,71.0
876,201.62471772500004,202.14645612500004,63.0,84.0
877,202.05949972500002,202.48703535833337,67.0,83.0
878,202.49428172500004,202.7895711666667,68.0,83.0
879,202.49428172500004,202.82399140833337,70.0,83.0
880,202.49428172500004,203.1537010916667,61.0,87.0
881,203.14645472500004,203.53051215833335,58.0,84.0
882,202.49428172500004,203.8004393166667,46.0,84.0
883,202.92906372500002,203.8384827416667,53.0,48.0
884,203.79862772500005,204.12833740833335,65.0,74.0
885,203.36384572500003,204.2134822166667,61.0,96.0
886,203.79862772500005,204.21710540000004,58.0,83.0
887,204.05225055833336,204.3221777166667,46.0,80.0
888,203.36384572500003,204.61384397500004,70.0,100.0
889,204.23340972500003,204.64101785000003,63.0,89.0
890,204.23340972500003,204.68993082500003,67.0,86.0
891,204.88558272500003,205.29681403333336,63.0,88.0
892,204.66819172500004,205.55949482500003,58.0,71.0
893,204.23340972500003,205.63558167500003,51.0,86.0
894,205.10297372500003,205.87833495833337,70.0,104.0
895,205.16094465833336,205.99790000833337,39.0,85.0
896,205.53775572500004,205.99790000833337,67.0,84.0
897,205.97253772500002,206.4797833916667,68.0,86.0
898,205.97253772500002,206.53775432500004,63.0,87.0
899,205.97253772500002,206.5504354666667,60.0,85.0
900,206.40731972500004,206.94536245000003,56.0,69.0
901,205.97253772500002,207.2895648666667,44.0,86.0
902,207.09753615000002,207.2895648666667,44.0,90.0
903,206.84210172500002,207.48340517500003,68.0,87.0
904,206.84210172500002,207.53594133333337,60.0,85.0
905,207.31130396666669,207.5504340666667,46.0,83.0
906,206.84210172500002,207.61746295833336,63.0,88.0
907,207.27688372500003,207.70441935833335,56.0,76.0
908,207.51963700833338,207.72253527500004,47.0,80.0
909,207.71166572500005,208.34209962500003,60.0,83.0
910,207.71166572500005,208.3656503166667,63.0,88.0
911,207.71166572500005,208.41094010833336,67.0,83.0
912,207.71166572500005,208.80949027500003,48.0,83.0
913,208.58122972500004,209.04862037500004,60.0,87.0
914,208.58122972500004,209.20079407500003,67.0,79.0
915,209.06492470000003,209.28593888333336,51.0,92.0
916,208.58122972500004,209.3439098166667,63.0,94.0
917,209.2623881916667,209.47615600833336,52.0,90.0
918,209.45079372500004,210.12470582500004,65.0,88.0
919,209.45079372500004,210.13376378333336,60.0,82.0
920,209.45079372500004,210.16274925000002,68.0,86.0
921,210.32035772500004,210.92361775000003,68.0,88.0
922,210.32035772500004,211.00876255833336,65.0,91.0
923,210.5558646416667,211.00876255833336,65.0,84.0
924,209.45079372500004,211.0939073666667,53.0,82.0
925,210.99426982500003,211.0939073666667,53.0,93.0
926,211.23158833333338,211.41818227500002,51.0,94.0
927,210.32035772500004,211.52506618333337,60.0,88.0
928,211.18992172500003,211.8765149666667,63.0,87.0
929,211.18992172500003,211.88376133333335,67.0,79.0
930,211.6591239666667,212.15187690000002,51.0,92.0
931,211.84209472500004,212.30948537500004,60.0,86.0
932,212.49426772500004,212.86202083333336,60.0,83.0
933,212.05948572500003,212.86926720000002,67.0,100.0
934,212.05948572500003,212.91274540000003,63.0,108.0
935,211.62470372500005,212.9960786166667,55.0,73.0
936,212.92904972500003,213.56310680833337,68.0,85.0
937,212.92904972500003,213.6156429666667,65.0,88.0
938,212.92904972500003,213.6319472916667,61.0,84.0
939,213.79861372500002,214.39643897500002,68.0,87.0
940,213.79861372500002,214.41817807500004,61.0,86.0
941,213.79861372500002,214.6428154416667,65.0,88.0
942,212.92904972500003,214.6862936416667,49.0,85.0
943,214.46709105000002,214.6862936416667,49.0,83.0
944,214.66817772500002,215.3384666416667,63.0,88.0
945,214.66817772500002,215.3710752916667,67.0,80.0
946,214.66817772500002,215.3928143916667,60.0,79.0
947,215.53774172500005,216.1047699166667,60.0,86.0
948,215.53774172500005,216.1210742416667,67.0,80.0
949,214.66817772500002,216.2243349666667,48.0,82.0
950,215.98882805000002,216.2243349666667,48.0,83.0
951,215.53774172500005,216.23339292500003,63.0,91.0
952,216.19897268333338,216.2732479416667,46.0,88.0
953,216.40730572500004,217.00513097500004,65.0,86.0
954,216.40730572500004,217.01600052500004,61.0,86.0
955,216.40730572500004,217.04136280833336,58.0,84.0
956,216.40730572500004,217.60839100000004,46.0,79.0
957,217.27686972500004,217.7949849416667,65.0,85.0
958,217.27686972500004,217.84570950833336,61.0,85.0
959,217.27686972500004,217.89099930000003,58.0,83.0
960,217.5449852916667,217.95078182500004,53.0,76.0
961,217.93266590833338,218.13556417500004,46.0,77.0
962,218.14643372500004,218.81491105000003,67.0,86.0
963,218.14643372500004,218.83483855833336,63.0,86.0
964,218.14643372500004,218.85838925000004,58.0,83.0
965,219.01599772500003,219.59208387500004,63.0,87.0
966,219.01599772500003,219.59751865000004,67.0,85.0
967,219.01599772500003,219.6156345666667,58.0,83.0
968,218.14643372500004,219.8982428666667,51.0,81.0
969,219.6808518666667,219.9525906166667,53.0,84.0
970,219.93809788333337,220.38918420833338,51.0,95.0
971,219.94896743333337,220.40186535000004,39.0,95.0
972,220.38918420833338,221.77142865000005,65.0,71.0
973,221.82577640000002,221.8928052916667,51.0,75.0
974,219.93990947500004,222.0830224166667,67.0,86.0
975,219.93990947500004,222.10294992500005,63.0,86.0
976,219.93990947500004,222.1265006166667,58.0,83.0
977,222.2895438666667,222.33664525000003,51.0,77.0
978,222.74787655833336,222.99787620833337,51.0,80.0
979,222.96526755833338,223.3764988666667,39.0,84.0
980,223.3928031916667,224.09570075833338,63.0,74.0
981,223.3928031916667,224.10113553333338,68.0,87.0
982,223.3928031916667,224.1156282666667,60.0,76.0
983,223.3928031916667,224.4036713416667,44.0,82.0
984,224.48881615000005,224.74425057500002,44.0,77.0
985,224.2623671916667,224.79678673333336,68.0,85.0
986,224.2623671916667,224.85294607500003,60.0,83.0
987,224.70620715000004,224.93265610833336,46.0,79.0
988,224.2623671916667,225.07033707500003,63.0,87.0
989,224.9091054166667,225.15548188333338,47.0,75.0
990,224.6971491916667,225.2514962416667,56.0,71.0
991,225.1319311916667,225.65004640833337,63.0,89.0
992,225.1319311916667,225.79678533333336,60.0,88.0
993,225.14461233333336,226.0667124916667,48.0,84.0
994,225.7841041916667,226.35837875000004,56.0,80.0
995,223.8275851916667,226.53047995833336,51.0,63.0
996,226.47250902500002,226.53047995833336,51.0,85.0
997,226.0014951916667,226.79678393333336,60.0,88.0
998,226.0014951916667,226.82033462500004,63.0,89.0
999,226.4362771916667,226.86200123333336,56.0,64.0
1000,226.65729137500003,226.89460988333337,52.0,79.0
1001,226.87830555833338,227.78047820833336,53.0,97.0
1002,227.3058411916667,228.15728927500004,60.0,76.0
1003,227.9471446416667,228.41634688333338,53.0,87.0
1004,228.39641937500002,228.60294082500005,41.0,74.0
1005,227.9580141916667,228.95076642500004,65.0,34.0
1006,227.7406231916667,228.99605621666672,68.0,89.0
1007,228.6101871916667,229.0775778416667,48.0,84.0
1008,229.04678078333336,229.5449684916667,51.0,90.0
1009,229.4797511916667,229.75330153333337,63.0,84.0
1010,229.26236019166672,230.13373578333338,60.0,84.0
1011,229.0449691916667,230.30221380833336,55.0,69.0
1012,229.6971421916667,230.32576450000005,68.0,91.0
1013,230.3493151916667,230.90003905833336,65.0,87.0
1014,230.3493151916667,230.94351725833337,61.0,83.0
1015,230.7840971916667,231.67177710833337,56.0,38.0
1016,230.3493151916667,231.7895305666667,49.0,83.0
1017,231.2188791916667,232.05945772500004,61.0,84.0
1018,231.2188791916667,232.10837070000002,65.0,87.0
1019,231.8601826416667,232.13373298333337,49.0,90.0
1020,232.0884431916667,233.4580064916667,48.0,89.0
1021,233.4145282916667,233.4580064916667,48.0,89.0
1022,232.5232251916667,233.5340933416667,55.0,67.0
1023,232.9580071916667,233.62286133333336,67.0,89.0
1024,232.9580071916667,233.64097725000005,63.0,91.0
1025,233.61380337500003,233.82394800833336,47.0,85.0
1026,233.8275711916667,234.42358485000003,70.0,91.0
1027,233.8275711916667,234.47612100833337,61.0,86.0
1028,233.8275711916667,235.1210476416667,46.0,83.0
1029,234.2623531916667,235.1427867416667,53.0,38.0
1030,234.90727982500005,235.1427867416667,53.0,91.0
1031,234.6971351916667,235.32032272500004,61.0,88.0
1032,234.6971351916667,235.3601777416667,70.0,89.0
1033,235.1319171916667,235.56488760000005,58.0,85.0
1034,235.36198933333338,235.5938730666667,46.0,100.0
1035,235.56669919166671,236.18807513333337,63.0,87.0
1036,235.56669919166671,236.19894468333337,67.0,85.0
1037,236.4362631916667,237.12285643333337,63.0,88.0
1038,236.4362631916667,237.15184190000005,67.0,85.0
1039,235.56669919166671,237.6645223416667,51.0,86.0
1040,237.75147874166672,238.2297389416667,51.0,91.0
1041,237.3058271916667,238.27684032500002,68.0,86.0
1042,236.2188721916667,238.34749240000005,58.0,65.0
1043,238.1753911916667,238.68807163333338,67.0,81.0
1044,238.2079998416667,239.0014769916667,53.0,72.0
1045,239.0721290666667,239.5721283666667,68.0,81.0
1046,239.0721290666667,239.63915725833337,63.0,80.0
1047,239.0721290666667,239.66270795000003,60.0,80.0
1048,239.5069110666667,240.01053355000005,56.0,66.0
1049,239.0721290666667,240.40546053333338,44.0,81.0
1050,239.94169306666672,240.4960401166667,68.0,86.0
1051,239.94169306666672,240.49966330000004,60.0,83.0
1052,239.94169306666672,240.59205447500003,63.0,88.0
