,start,end,pitch,velocity
0,0.1266890625,0.584458875,58.0,95.0
1,0.5320940625,1.016890875,53.0,72.0
2,0.9374990625,1.3597959375000002,58.0,81.0
3,1.3429040625000002,1.8766873125,53.0,66.0
4,1.7483090625000002,2.5236461250000004,60.0,86.0
5,2.1537140625,2.5726325625000004,55.0,63.0
6,2.5591190625,3.2888480625000005,60.0,77.0
7,2.9645240625000002,3.3597939375,55.0,55.0
8,3.3699290625000002,3.7516854375000004,65.0,74.0
9,3.7753340625000003,4.229725500000001,60.0,55.0
10,4.180739062500001,4.5810765,65.0,56.0
11,4.586144062500001,5.0557381875,60.0,62.0
12,4.991549062500001,6.613169062500001,65.0,67.0
13,6.613169062500001,7.067560500000001,58.0,70.0
14,7.018574062500001,7.545600562500001,53.0,56.0
15,7.423979062500001,7.858100250000001,58.0,38.0
16,7.829384062500001,8.260126875000001,53.0,57.0
17,8.2347890625,8.829383062500002,60.0,65.0
18,8.6401940625,9.0692476875,55.0,69.0
19,9.045599062500001,9.427355437500001,60.0,73.0
20,9.451004062500001,9.8530306875,55.0,66.0
21,9.856409062500001,10.19593575,65.0,74.0
22,10.261814062500001,10.697624437500002,60.0,75.0
23,10.667219062500001,11.074313250000001,65.0,73.0
24,11.072624062500001,11.515191187500001,60.0,66.0
25,11.478029062500001,12.339514687500001,65.0,67.0
26,29.315849062500003,29.8158485625,65.0,95.0
27,30.126659062500003,30.7280098125,64.0,95.0
28,30.937469062500004,32.135103,62.0,97.0
29,35.8023290625,36.5219229375,60.0,92.0
30,36.613139062500004,37.334422125,60.0,85.0
31,37.4239490625,38.675637,64.0,95.0
32,55.26176906250001,55.361431125,69.0,102.0
33,55.4644715625,55.59960656250001,69.0,96.0
34,56.072579062500004,56.157038437500006,72.0,88.0
35,56.072579062500004,56.1773086875,60.0,95.0
36,56.275281562500005,56.4340651875,60.0,97.0
37,56.275281562500005,56.43744356250001,72.0,71.0
38,56.88338906250001,57.38507775000001,62.0,93.0
39,56.88338906250001,57.4137939375,74.0,88.0
40,64.99148906250001,65.378313,58.0,90.0
41,65.39689406250001,65.84452875000001,53.0,59.0
42,65.80229906250001,66.2043256875,58.0,71.0
43,66.2077040625,66.6232441875,53.0,60.0
44,66.6131090625,67.0489194375,60.0,74.0
45,67.0185140625,67.47290550000001,55.0,67.0
46,67.4239190625,67.85128350000001,60.0,72.0
47,67.8293240625,68.0252698125,50.0,75.0
48,68.03202656250001,68.2245939375,53.0,63.0
49,68.23472906250001,68.6080395,57.0,79.0
50,68.64013406250001,69.0674985,53.0,64.0
51,69.04553906250001,69.47628187500001,57.0,63.0
52,69.4509440625,69.8394571875,53.0,68.0
53,69.8563490625,70.24148381250001,57.0,71.0
54,70.2617540625,70.55229431250001,53.0,72.0
55,70.6671590625,71.01682087500001,57.0,88.0
56,71.0725640625,71.37999618750001,50.0,76.0
57,71.47796906250001,71.9239145625,58.0,75.0
58,71.88337406250001,72.33607631250001,53.0,61.0
59,72.28877906250001,72.71445431250001,58.0,70.0
60,72.6941840625,73.04215668750001,53.0,59.0
61,73.0995890625,73.469521125,60.0,78.0
62,73.5049940625,73.93742606250001,55.0,70.0
63,73.9103990625,74.32593918750001,60.0,72.0
64,74.3158040625,74.70938475000001,55.0,66.0
65,74.72120906250001,75.09114112500001,65.0,77.0
66,75.12661406250001,75.58269468750001,60.0,68.0
67,75.53201906250001,75.9475591875,65.0,77.0
68,75.9374240625,76.2482345625,60.0,63.0
69,76.3428290625,77.1536390625,65.0,67.0
70,94.18064906250001,94.68064856250001,65.0,95.0
71,94.99145906250001,95.59280981250001,64.0,95.0
72,95.8022690625,96.999903,62.0,97.0
73,100.66712906250001,101.38672293750001,60.0,92.0
74,101.47793906250001,102.199222125,60.0,85.0
75,102.2887490625,103.54043700000001,64.0,95.0
76,120.12656906250001,120.22623112500001,69.0,102.0
77,120.32927156250001,120.46440656250002,69.0,96.0
78,120.93737906250001,121.02183843750001,72.0,88.0
79,120.93737906250001,121.0421086875,60.0,95.0
80,121.14008156250001,121.29886518750001,60.0,97.0
81,121.14008156250001,121.30224356250001,72.0,71.0
82,121.74818906250002,122.24987775000001,62.0,93.0
83,121.74818906250002,122.2785939375,74.0,88.0
84,129.85628906250003,129.9373700625,77.0,73.0
85,129.85628906250003,129.962707875,70.0,112.0
86,130.0589915625,130.18230225000002,77.0,85.0
87,130.0589915625,130.1873698125,70.0,96.0
88,131.4779090625,131.564057625,79.0,89.0
89,131.4779090625,131.56912518750002,72.0,88.0
90,131.68061156250002,131.79040875,72.0,88.0
91,131.68061156250002,131.79040875,79.0,86.0
92,133.0995290625,133.47115031250001,65.0,92.0
93,133.0995290625,133.5049340625,77.0,99.0
94,133.91033906250001,134.381622375,60.0,88.0
95,133.91033906250001,134.4002034375,72.0,96.0
96,134.72114906250002,135.266756625,74.0,97.0
97,134.72114906250002,135.30391875,62.0,92.0
98,136.34276906250003,136.43567437500002,58.0,99.0
99,136.34276906250003,136.4407419375,70.0,92.0
100,136.34276906250003,136.4474986875,77.0,72.0
101,136.5454715625,136.63499850000002,58.0,102.0
102,136.5454715625,136.6890525,70.0,83.0
103,136.5454715625,136.7008768125,77.0,72.0
104,136.9508765625,137.13499800000002,58.0,75.0
105,137.1535790625,137.30560593750002,62.0,82.0
106,137.35628156250002,137.5623624375,58.0,75.0
107,137.5589840625,137.76337575000002,62.0,90.0
108,137.9643890625,138.0589835625,60.0,93.0
109,137.9643890625,138.084321375,72.0,96.0
110,138.16709156250002,138.2650644375,60.0,99.0
111,138.16709156250002,138.27688875,72.0,89.0
112,138.16709156250002,138.27688875,72.0,99.0
113,138.3697940625,138.47790206250002,76.0,86.0
114,138.57249656250002,138.68398293750002,72.0,89.0
115,138.7751990625,138.868104375,76.0,95.0
116,138.97790156250002,139.0691176875,72.0,95.0
117,139.1806040625,139.27182018750003,76.0,95.0
118,139.38330656250002,139.50661725,72.0,97.0
119,139.5860090625,139.807292625,65.0,95.0
120,139.5860090625,139.81236018750002,72.0,88.0
121,139.9914140625,140.20087331250002,65.0,85.0
122,139.9914140625,140.21776518750002,72.0,79.0
123,140.39681906250001,140.550535125,65.0,85.0
124,140.39681906250001,140.5657378125,72.0,85.0
125,140.80222406250002,140.972832,65.0,93.0
126,140.80222406250002,140.98296712500002,72.0,93.0
127,141.20762906250002,141.2988451875,60.0,89.0
128,141.20762906250002,141.30391275000002,67.0,81.0
129,141.4103315625,141.50830443750002,67.0,63.0
130,141.4103315625,141.51843956250002,60.0,58.0
131,141.61303406250002,141.70931775000003,67.0,62.0
132,141.61303406250002,141.7143853125,60.0,59.0
133,141.8157365625,141.918777,67.0,69.0
134,141.8157365625,141.9204661875,60.0,67.0
135,142.01843906250002,142.11472275,67.0,72.0
136,142.01843906250002,142.12147950000002,60.0,75.0
137,142.2211415625,142.3224928125,60.0,77.0
138,142.2211415625,142.324182,67.0,75.0
139,142.42384406250002,142.523506125,60.0,81.0
140,142.42384406250002,142.52688450000002,67.0,81.0
141,142.6265465625,142.76337075,60.0,89.0
142,142.6265465625,142.76674912500002,67.0,88.0
143,154.58599406250002,154.787007375,62.0,112.0
144,154.7886965625,154.90693968750003,64.0,89.0
145,154.99139906250002,155.1839664375,64.0,90.0
146,155.1941015625,155.37822300000002,62.0,96.0
147,155.39680406250002,155.66369568750002,60.0,96.0
148,155.80220906250003,156.0826141875,65.0,78.0
149,155.80220906250003,156.097816875,58.0,102.0
150,156.20761406250003,156.30220856250003,65.0,70.0
151,156.20761406250003,156.30389775,58.0,93.0
152,156.41031656250001,156.5809245,58.0,99.0
153,156.41031656250001,156.59274881250002,65.0,75.0
154,156.81572156250002,156.94578900000002,58.0,99.0
155,156.81572156250002,156.96268087500002,65.0,83.0
156,157.0184240625,157.097815875,58.0,77.0
157,157.0184240625,157.1214645,65.0,92.0
158,157.22112656250002,157.33599131250003,58.0,93.0
159,157.22112656250002,157.3461264375,65.0,78.0
160,157.4238290625,157.71436931250003,60.0,102.0
161,157.4238290625,157.7447746875,67.0,90.0
162,157.8292340625,157.94409881250002,67.0,78.0
163,157.8292340625,157.9508555625,60.0,79.0
164,158.03193656250002,158.17720668750002,67.0,112.0
165,158.03193656250002,158.19409856250002,60.0,112.0
166,158.43734156250002,158.5116658125,60.0,92.0
167,158.43734156250002,158.5116658125,67.0,89.0
168,158.6400440625,158.7245034375,67.0,81.0
169,158.6400440625,158.7346385625,60.0,83.0
170,158.84274656250003,158.955922125,67.0,81.0
171,158.84274656250003,158.9593005,60.0,85.0
172,159.0454490625,159.138354375,65.0,97.0
173,159.0454490625,159.15017868750002,72.0,82.0
174,159.24815156250003,159.3528811875,65.0,97.0
175,159.24815156250003,159.37652981250002,72.0,96.0
176,159.85625906250002,159.95085356250001,60.0,92.0
177,159.85625906250002,159.95085356250001,67.0,82.0
178,160.0589615625,160.1907181875,67.0,85.0
179,160.0589615625,160.20085331250002,60.0,93.0
180,160.66706906250002,161.47787906250002,62.0,99.0
181,160.66706906250002,161.482946625,69.0,93.0
182,161.47787906250002,161.482946625,69.0,95.0
183,161.47787906250002,162.1197703125,62.0,99.0
184,162.28868906250003,162.50659425,65.0,78.0
185,162.28868906250003,162.53531043750002,58.0,99.0
186,162.69409406250003,162.97618837500002,58.0,95.0
187,162.69409406250003,162.97956675,65.0,83.0
188,163.0994990625,163.36301231250002,65.0,82.0
189,163.0994990625,163.37314743750002,58.0,100.0
190,163.5049040625,163.75321462500003,58.0,97.0
191,163.5049040625,163.75321462500003,65.0,81.0
192,163.9103090625,164.145106125,67.0,86.0
193,163.9103090625,164.16368718750002,60.0,90.0
194,164.3157140625,164.58936243750003,60.0,93.0
195,164.3157140625,164.5927408125,67.0,93.0
196,164.7211190625,164.97449718750002,67.0,89.0
197,164.7211190625,164.9778755625,60.0,95.0
198,165.1265240625,165.3832805625,60.0,96.0
199,165.1265240625,165.41199675000001,67.0,90.0
200,192.69406406250002,192.92548275000001,69.0,93.0
201,192.8967665625,193.10960418750003,70.0,95.0
202,193.09946906250002,193.594401,69.0,97.0
203,197.5589240625,197.9710858125,65.0,95.0
204,197.9643290625,198.86466600000003,64.0,72.0
205,199.18054406250002,199.37986818750002,62.0,92.0
206,199.3832465625,199.53527343750002,60.0,75.0
207,199.58594906250002,200.80892081250002,60.0,83.0
208,204.4508090625,207.02344162500003,77.0,107.0
209,208.50485906250003,208.90519650000002,72.0,88.0
210,207.69404906250003,209.32749337500002,74.0,97.0
211,208.9102640625,209.34438525000002,70.0,76.0
212,209.3156690625,210.4102625625,69.0,79.0
213,212.55890906250002,213.813975375,67.0,85.0
214,213.77512406250003,214.11633993750002,65.0,66.0
215,214.18052906250003,216.87478312500002,65.0,76.0
