,start,end,pitch,velocity
0,11.478029062500001,11.8699205625,53.0,83.0
1,11.883434062500001,12.349649812500001,55.0,75.0
2,12.288839062500001,12.755054812500001,57.0,85.0
3,12.694244062500001,13.114851750000001,60.0,102.0
4,13.099649062500001,14.021945437500001,62.0,93.0
5,14.721269062500001,15.0996470625,62.0,96.0
6,15.126674062500001,15.511808812500002,60.0,74.0
7,15.532079062500001,15.820930125000002,57.0,79.0
8,15.937484062500001,16.488159187500003,62.0,96.0
9,16.7482940625,17.783766,60.0,92.0
10,17.964509062500003,18.24998175,53.0,86.0
11,18.3699140625,18.64863,55.0,78.0
12,18.775319062500003,19.118224125,57.0,88.0
13,19.1807240625,19.621602000000003,60.0,107.0
14,19.586129062500003,20.491533562500003,62.0,100.0
15,21.207749062500003,21.564167625000003,62.0,93.0
16,21.6131540625,21.964505062500002,60.0,89.0
17,22.018559062500003,22.402004625000004,57.0,90.0
18,22.4239640625,23.0590985625,62.0,96.0
19,23.2347740625,24.212813625000003,60.0,97.0
20,24.450989062500003,24.788826562500002,53.0,88.0
21,24.8563940625,25.229704500000004,55.0,83.0
22,25.261799062500003,25.614839250000003,57.0,90.0
23,25.6672040625,25.989838875000004,60.0,89.0
24,26.072609062500003,27.195918750000004,62.0,88.0
25,27.2888240625,27.6030129375,60.0,93.0
26,27.694229062500003,27.984769312500003,62.0,89.0
27,28.0996340625,28.371593250000004,64.0,93.0
28,28.505039062500003,28.773619875,65.0,100.0
29,28.9104440625,29.118214125,67.0,112.0
30,29.315849062500003,29.5219299375,65.0,93.0
31,29.7212540625,29.886794437500004,57.0,92.0
32,30.126659062500003,30.265172437500002,64.0,97.0
33,30.5320640625,30.739834125,55.0,88.0
34,30.734766562500003,31.013482500000002,57.0,92.0
35,31.3428740625,31.702671000000002,65.0,93.0
36,31.748279062500004,32.059089562500006,62.0,97.0
37,32.153684062500005,32.378346,53.0,90.0
38,32.5590890625,32.756724000000006,62.0,95.0
39,32.7617915625,32.996588625,60.0,88.0
40,33.1671965625,33.619898812500004,62.0,112.0
41,33.978006562500006,34.0675335,60.0,88.0
42,34.1807090625,34.381722375,62.0,96.0
43,34.5861140625,34.874965125,60.0,93.0
44,34.991519062500004,35.2989511875,62.0,73.0
45,35.396924062500005,35.728004812500004,64.0,92.0
46,35.8023290625,36.327666375,65.0,112.0
47,37.018544062500006,37.1165169375,67.0,95.0
48,37.221246562500006,38.3090833125,67.0,102.0
49,38.640164062500006,38.91888,60.0,100.0
50,39.0455690625,39.320906625000006,69.0,127.0
51,39.4509740625,39.54725775,69.0,117.0
52,39.6536765625,40.070905875,69.0,112.0
53,40.261784062500006,40.62833775000001,60.0,102.0
54,40.6671890625,41.1807020625,67.0,117.0
55,41.0725940625,41.195904750000004,65.0,100.0
56,41.2752965625,41.5827286875,67.0,107.0
57,41.680701562500005,42.128336250000004,72.0,117.0
58,42.2888090625,42.56414662500001,70.0,112.0
59,42.6942140625,42.785430187500005,62.0,112.0
60,42.8969165625,43.2432,62.0,107.0
61,43.505024062500006,43.969550625000004,65.0,102.0
62,43.9104290625,44.4712393125,64.0,96.0
63,45.126644062500006,45.46954912500001,60.0,100.0
64,45.53204906250001,45.8056974375,69.0,102.0
65,45.9374540625,46.035426937500006,69.0,112.0
66,46.1401565625,46.38508875,69.0,102.0
67,46.748264062500006,47.101304250000005,60.0,107.0
68,47.15366906250001,47.45941200000001,67.0,107.0
69,47.5590740625,47.692519875,65.0,112.0
70,47.7617765625,47.93745206250001,67.0,117.0
71,48.369884062500006,48.672248625,72.0,112.0
72,48.77528906250001,49.037113125000005,70.0,107.0
73,49.1806940625,49.278666937500006,62.0,100.0
74,49.3833965625,49.663801687500005,62.0,97.0
75,49.788801562500005,50.282044312500005,69.0,117.0
76,50.39690906250001,50.96616525,67.0,107.0
77,52.01852906250001,52.19082618750001,62.0,117.0
78,52.4239340625,52.538798812500005,62.0,97.0
79,52.6266365625,52.8090688125,62.0,107.0
80,53.032041562500005,53.126636062500005,62.0,117.0
81,53.234744062500006,53.4509600625,62.0,97.0
82,53.43744656250001,53.6080545,60.0,95.0
83,53.64014906250001,53.983054125,64.0,112.0
84,54.0455540625,54.1401485625,64.0,102.0
85,54.2482565625,54.403661812500005,64.0,100.0
86,54.653661562500005,54.7347425625,64.0,97.0
87,54.856364062500006,55.006701750000005,64.0,88.0
88,55.05906656250001,55.1739313125,62.0,92.0
89,55.26176906250001,55.3529851875,65.0,112.0
90,55.4644715625,55.609741687500005,65.0,112.0
91,56.072579062500004,56.157038437500006,67.0,117.0
92,56.275281562500005,56.42899762500001,67.0,127.0
93,56.88338906250001,57.325956187500005,69.0,127.0
94,58.099604062500006,58.23136068750001,62.0,96.0
95,58.30230656250001,58.407036187500005,64.0,93.0
96,58.50500906250001,58.6435224375,65.0,95.0
97,58.7077115625,58.876630312500005,64.0,96.0
98,58.9104140625,59.08440037500001,62.0,90.0
99,59.113116562500004,59.260075875000005,65.0,99.0
100,59.518521562500005,59.65027818750001,62.0,100.0
101,59.721224062500006,59.893521187500006,65.0,92.0
102,59.92392656250001,60.08102100000001,64.0,96.0
103,60.12662906250001,60.459399000000005,62.0,102.0
104,60.937439062500005,61.148587500000005,64.0,97.0
105,61.140141562500006,61.58439787500001,65.0,107.0
106,61.74824906250001,63.66040931250001,65.0,117.0
107,76.3428290625,76.7347205625,53.0,83.0
108,76.7482340625,77.2144498125,55.0,75.0
109,77.1536390625,77.61985481250001,57.0,85.0
110,77.5590440625,77.97965175,60.0,102.0
111,77.96444906250001,78.88674543750001,62.0,93.0
112,79.5860690625,79.96444706250001,62.0,96.0
113,79.9914740625,80.37660881250001,60.0,74.0
114,80.3968790625,80.685730125,57.0,79.0
115,80.80228406250001,81.3529591875,62.0,96.0
116,81.61309406250001,82.648566,60.0,92.0
117,82.8293090625,83.11478175,53.0,86.0
118,83.2347140625,83.51343000000001,55.0,78.0
119,83.6401190625,83.98302412500001,57.0,88.0
120,84.04552406250001,84.48640200000001,60.0,107.0
121,84.45092906250001,85.35633356250001,62.0,100.0
122,86.0725490625,86.42896762500001,62.0,93.0
123,86.4779540625,86.82930506250001,60.0,89.0
124,86.8833590625,87.266804625,57.0,90.0
125,87.28876406250001,87.92389856250001,62.0,96.0
126,88.09957406250001,89.07761362500001,60.0,97.0
127,89.3157890625,89.65362656250001,53.0,88.0
128,89.7211940625,90.09450450000001,55.0,83.0
129,90.1265990625,90.47963925,57.0,90.0
130,90.53200406250001,90.854638875,60.0,89.0
131,90.93740906250001,92.06071875,62.0,88.0
132,92.15362406250001,92.46781293750001,60.0,93.0
133,92.5590290625,92.84956931250001,62.0,89.0
134,92.9644340625,93.23639325,64.0,93.0
135,93.3698390625,93.63841987500001,65.0,100.0
136,93.77524406250001,93.98301412500001,67.0,112.0
137,94.18064906250001,94.38672993750001,65.0,93.0
138,94.58605406250001,94.7515944375,57.0,92.0
139,94.99145906250001,95.12997243750002,64.0,97.0
140,95.39686406250001,95.604634125,55.0,88.0
141,95.5995665625,95.87828250000001,57.0,92.0
142,96.2076740625,96.56747100000001,65.0,93.0
143,96.6130790625,96.92388956250001,62.0,97.0
144,97.01848406250001,97.24314600000001,53.0,90.0
145,97.42388906250001,97.62152400000001,62.0,95.0
146,97.62659156250001,97.861388625,60.0,88.0
147,98.03199656250001,98.48469881250001,62.0,112.0
148,98.84280656250002,98.93233350000001,60.0,88.0
149,99.0455090625,99.24652237500001,62.0,96.0
150,99.4509140625,99.739765125,60.0,93.0
151,99.8563190625,100.16375118750001,62.0,73.0
152,100.26172406250001,100.5928048125,64.0,92.0
153,100.66712906250001,101.19246637500001,65.0,112.0
154,101.88334406250002,101.98131693750001,67.0,95.0
155,102.08604656250002,103.17388331250001,67.0,102.0
156,103.50496406250001,103.78368,60.0,100.0
157,103.91036906250001,104.18570662500001,69.0,127.0
158,104.31577406250001,104.41205775,69.0,117.0
159,104.51847656250001,104.93570587500001,69.0,112.0
160,105.12658406250002,105.49313775,60.0,102.0
161,105.5319890625,106.0455020625,67.0,117.0
162,105.9373940625,106.06070475000001,65.0,100.0
163,106.1400965625,106.44752868750001,67.0,107.0
164,106.54550156250001,106.99313625,72.0,117.0
165,107.15360906250001,107.42894662500001,70.0,112.0
166,107.55901406250001,107.65023018750001,62.0,112.0
167,107.76171656250001,108.108,62.0,107.0
168,108.36982406250002,108.83435062500001,65.0,102.0
169,108.7752290625,109.3360393125,64.0,96.0
170,109.99144406250001,110.334349125,60.0,100.0
171,110.39684906250001,110.6704974375,69.0,102.0
172,110.80225406250001,110.90022693750001,69.0,112.0
173,111.00495656250001,111.24988875000001,69.0,102.0
174,111.61306406250002,111.96610425000001,60.0,107.0
175,112.0184690625,112.32421200000002,67.0,107.0
176,112.4238740625,112.557319875,65.0,112.0
177,112.6265765625,112.80225206250002,67.0,117.0
178,113.23468406250001,113.53704862500001,72.0,112.0
179,113.64008906250001,113.90191312500001,70.0,107.0
180,114.04549406250001,114.14346693750001,62.0,100.0
181,114.24819656250001,114.52860168750001,62.0,97.0
182,114.65360156250001,115.14684431250001,69.0,117.0
183,115.26170906250002,115.83096525,67.0,107.0
184,116.88332906250001,117.05562618750001,62.0,117.0
185,117.28873406250001,117.40359881250001,62.0,97.0
186,117.49143656250001,117.6738688125,62.0,107.0
187,117.89684156250001,117.99143606250001,62.0,117.0
188,118.09954406250002,118.3157600625,62.0,97.0
189,118.30224656250002,118.47285450000001,60.0,95.0
190,118.50494906250002,118.84785412500001,64.0,112.0
191,118.9103540625,119.0049485625,64.0,102.0
192,119.1130565625,119.26846181250001,64.0,100.0
193,119.51846156250001,119.5995425625,64.0,97.0
194,119.72116406250001,119.87150175000001,64.0,88.0
195,119.92386656250001,120.0387313125,62.0,92.0
196,120.12656906250001,120.21778518750001,65.0,112.0
197,120.32927156250001,120.47454168750001,65.0,112.0
198,120.93737906250001,121.02183843750001,67.0,117.0
199,121.14008156250001,121.29379762500001,67.0,127.0
200,121.74818906250002,122.19075618750001,69.0,127.0
201,122.96440406250001,123.09616068750002,62.0,96.0
202,123.16710656250001,123.27183618750001,64.0,93.0
203,123.36980906250001,123.50832243750001,65.0,95.0
204,123.57251156250001,123.74143031250001,64.0,96.0
205,123.77521406250001,123.94920037500002,62.0,90.0
206,123.97791656250001,124.12487587500001,65.0,99.0
207,124.38332156250002,124.51507818750001,62.0,100.0
208,124.58602406250002,124.75832118750002,65.0,92.0
209,124.78872656250002,124.94582100000001,64.0,96.0
210,124.99142906250002,125.32419900000001,62.0,102.0
211,125.8022390625,126.01338750000001,64.0,97.0
212,126.00494156250001,126.44919787500001,65.0,107.0
213,126.61304906250001,128.5252093125,65.0,117.0
214,129.04547906250002,129.178924875,69.0,127.0
215,129.2481815625,129.43399218750002,67.0,112.0
216,129.45088406250002,129.63162712500002,65.0,102.0
217,129.6535865625,129.82081612500002,64.0,112.0
218,129.85628906250003,130.1333158125,62.0,127.0
219,130.2616940625,130.56068025000002,69.0,122.0
220,130.6670990625,130.908652875,69.0,127.0
221,131.0725040625,131.40358481250001,70.0,127.0
222,131.4779090625,131.7380439375,67.0,127.0
223,132.2887190625,132.4323,67.0,127.0
224,132.49142156250002,132.66878625,65.0,117.0
225,132.6941240625,132.85797525,64.0,100.0
226,132.89682656250002,133.10290743750002,62.0,95.0
227,133.0995290625,133.35121800000002,60.0,100.0
228,133.5049340625,133.5995285625,67.0,102.0
229,133.7076365625,133.8191229375,60.0,99.0
230,133.91033906250001,134.16878475000001,65.0,117.0
231,134.31574406250002,134.40189262500002,67.0,102.0
232,134.5184465625,135.1214865,69.0,127.0
233,135.53195906250002,135.672161625,69.0,127.0
234,135.7346615625,135.92722893750002,67.0,88.0
235,135.93736406250002,136.111350375,65.0,122.0
236,136.1400665625,136.3191204375,64.0,102.0
237,136.34276906250003,136.6062823125,62.0,112.0
238,136.7481740625,137.0184440625,69.0,127.0
239,137.1535790625,137.36641668750002,69.0,122.0
240,137.5589840625,137.82418650000002,70.0,127.0
241,137.9643890625,138.3934426875,64.0,117.0
242,139.1806040625,139.3968200625,64.0,112.0
243,139.38330656250002,139.50154968750002,65.0,107.0
244,139.5860090625,140.39681906250001,65.0,107.0
245,141.0049265625,141.10627781250002,67.0,100.0
246,141.20762906250002,142.0724930625,67.0,122.0
247,142.42384406250002,142.70256,60.0,100.0
248,142.82924906250003,143.10458662500002,69.0,127.0
249,143.2346540625,143.33093775,69.0,117.0
250,143.4373565625,143.85458587500003,69.0,112.0
251,144.0454640625,144.41201775000002,60.0,102.0
252,144.4508690625,144.96438206250002,67.0,117.0
253,144.8562740625,144.97958475000001,65.0,100.0
254,145.05897656250002,145.3664086875,67.0,107.0
255,145.46438156250002,145.91201625000002,72.0,117.0
256,146.0724890625,146.347826625,70.0,112.0
257,146.4778940625,146.5691101875,62.0,112.0
258,146.6805965625,147.02688,62.0,107.0
259,147.28870406250002,147.75323062500001,65.0,102.0
260,147.69410906250002,148.25491931250002,64.0,96.0
261,148.91032406250002,149.25322912500002,60.0,100.0
262,149.31572906250003,149.58937743750002,69.0,102.0
263,149.72113406250003,149.8191069375,69.0,112.0
264,149.92383656250001,150.16876875000003,69.0,102.0
265,150.5319440625,150.88498425,60.0,107.0
266,150.9373490625,151.24309200000002,67.0,107.0
267,151.3427540625,151.47619987500002,65.0,112.0
268,151.54545656250002,151.7211320625,67.0,117.0
269,152.1535640625,152.455928625,72.0,112.0
270,152.5589690625,152.82079312500002,70.0,107.0
271,152.9643740625,153.06234693750002,62.0,100.0
272,153.1670765625,153.44748168750002,62.0,97.0
273,153.5724815625,154.0657243125,69.0,117.0
274,154.18058906250002,154.74984525000002,67.0,107.0
275,155.80220906250003,155.97450618750003,62.0,117.0
276,156.20761406250003,156.3224788125,62.0,97.0
277,156.41031656250001,156.59274881250002,62.0,107.0
278,156.81572156250002,156.91031606250002,62.0,117.0
279,157.0184240625,157.2346400625,62.0,97.0
280,157.22112656250002,157.3917345,60.0,95.0
281,157.4238290625,157.76673412500003,64.0,112.0
282,157.8292340625,157.9238285625,64.0,102.0
283,158.03193656250002,158.18734181250002,64.0,100.0
284,158.43734156250002,158.5184225625,64.0,97.0
285,158.6400440625,158.79038175000002,64.0,88.0
286,158.84274656250003,158.9576113125,62.0,92.0
287,159.0454490625,159.1366651875,65.0,112.0
288,159.24815156250003,159.39342168750002,65.0,112.0
289,159.85625906250002,159.9407184375,67.0,117.0
290,160.0589615625,160.21267762500003,67.0,127.0
291,160.66706906250002,161.1096361875,69.0,127.0
292,161.88328406250002,162.0150406875,62.0,96.0
293,162.0859865625,162.19071618750002,64.0,93.0
294,162.28868906250003,162.42720243750003,65.0,95.0
295,162.4913915625,162.6603103125,64.0,96.0
296,162.69409406250003,162.868080375,62.0,90.0
297,162.89679656250001,163.04375587500002,65.0,99.0
298,163.30220156250002,163.43395818750002,62.0,100.0
299,163.5049040625,163.6772011875,65.0,92.0
300,163.70760656250002,163.86470100000003,64.0,96.0
301,163.9103090625,164.24307900000002,62.0,102.0
302,164.7211190625,164.93226750000002,64.0,97.0
303,164.92382156250002,165.368077875,65.0,107.0
304,165.1265240625,165.40524000000002,60.0,100.0
305,165.5319290625,165.807266625,69.0,127.0
306,165.9373340625,166.03361775000002,69.0,117.0
307,166.1400365625,166.557265875,69.0,112.0
308,166.74814406250002,167.11469775,60.0,102.0
309,165.5319290625,167.15354906250002,65.0,117.0
310,167.15354906250002,167.6670620625,67.0,117.0
311,167.55895406250002,167.68226475,65.0,100.0
312,167.7616565625,168.06908868750003,67.0,107.0
313,168.1670615625,168.61469625,72.0,117.0
314,168.77516906250003,169.05050662500003,70.0,112.0
315,169.18057406250003,169.27179018750002,62.0,112.0
316,169.38327656250001,169.72956000000002,62.0,107.0
317,169.9913840625,170.455910625,65.0,102.0
318,170.3967890625,170.9575993125,64.0,96.0
319,171.6130040625,171.955909125,60.0,100.0
320,172.0184090625,172.2920574375,69.0,102.0
321,172.4238140625,172.52178693750002,69.0,112.0
322,172.62651656250003,172.87144875,69.0,102.0
323,173.23462406250002,173.58766425000002,60.0,107.0
324,173.64002906250002,173.945772,67.0,107.0
325,174.04543406250002,174.178879875,65.0,112.0
326,174.2481365625,174.42381206250002,67.0,117.0
327,174.85624406250002,175.15860862500003,72.0,112.0
328,175.26164906250003,175.523473125,70.0,107.0
329,175.66705406250003,175.7650269375,62.0,100.0
330,175.86975656250002,176.1501616875,62.0,97.0
331,176.27516156250002,176.76840431250002,69.0,117.0
332,176.8832690625,177.45252525,67.0,107.0
333,178.5048890625,178.6771861875,62.0,117.0
334,178.91029406250001,179.02515881250002,62.0,97.0
335,179.11299656250003,179.2954288125,62.0,107.0
336,179.5184015625,179.6129960625,62.0,117.0
337,179.72110406250002,179.93732006250002,62.0,97.0
338,179.9238065625,180.09441450000003,60.0,95.0
339,180.12650906250002,180.46941412500001,64.0,112.0
340,180.53191406250002,180.62650856250002,64.0,102.0
341,180.7346165625,180.8900218125,64.0,100.0
342,181.1400215625,181.22110256250002,64.0,97.0
343,181.34272406250003,181.49306175,64.0,88.0
344,181.5454265625,181.66029131250002,62.0,92.0
345,181.74812906250003,181.83934518750002,65.0,112.0
346,181.9508315625,182.0961016875,65.0,112.0
347,182.5589390625,182.64339843750003,67.0,117.0
348,182.76164156250002,182.915357625,67.0,127.0
349,183.3697490625,183.81231618750002,69.0,127.0
350,184.5859640625,184.71772068750002,62.0,96.0
351,184.78866656250003,184.89339618750003,64.0,93.0
352,184.9913690625,185.12988243750002,65.0,95.0
353,185.19407156250003,185.36299031250002,64.0,96.0
354,185.39677406250001,185.57076037500002,62.0,90.0
355,185.59947656250003,185.746435875,65.0,99.0
356,186.0048815625,186.1366381875,62.0,100.0
357,186.20758406250002,186.37988118750002,65.0,92.0
358,186.4102865625,186.567381,64.0,96.0
359,186.61298906250002,186.945759,62.0,102.0
360,187.42379906250002,187.6349475,64.0,97.0
361,187.6265015625,188.07075787500003,65.0,107.0
362,188.23460906250003,189.8562290625,65.0,117.0
