,start,end,pitch,velocity
0,0.5320940625,1.0067557500000002,58.0,36.0
1,0.1266890625,1.7601333750000001,46.0,51.0
2,0.9374990625,1.7854711875000002,62.0,53.0
3,1.7483090625000002,3.2719561875000003,43.0,38.0
4,2.5591190625,3.3124966875000004,62.0,42.0
5,2.1537140625,3.3986452500000004,55.0,35.0
6,3.7753340625000003,4.27702275,55.0,35.0
7,4.180739062500001,4.9222923750000005,60.0,37.0
8,4.991549062500001,5.680737562500001,60.0,42.0
9,3.3699290625000002,6.5743177500000005,48.0,52.0
10,5.802359062500001,6.581074500000001,60.0,58.0
11,6.613169062500001,7.908775875000001,53.0,33.0
12,6.613169062500001,7.959451500000001,62.0,29.0
13,6.613169062500001,8.0962756875,58.0,36.0
14,6.613169062500001,8.1199243125,46.0,37.0
15,8.2347890625,9.5489769375,43.0,37.0
16,8.2347890625,9.80404425,62.0,52.0
17,8.2347890625,9.8800576875,55.0,42.0
18,10.667219062500001,11.172286125000001,60.0,35.0
19,11.072624062500001,12.190866187500001,55.0,35.0
20,9.856409062500001,12.204379687500001,48.0,41.0
21,11.478029062500001,12.204379687500001,60.0,52.0
22,12.288839062500001,12.749987250000002,41.0,56.0
23,13.505054062500001,14.1537020625,58.0,54.0
24,13.099649062500001,14.319242437500002,46.0,74.0
25,13.910459062500001,14.68241775,65.0,93.0
26,14.315864062500001,14.770255500000001,62.0,54.0
27,14.721269062500001,15.501673687500002,36.0,72.0
28,15.126674062500001,16.043902875,55.0,50.0
29,15.937484062500001,16.368226875,60.0,46.0
30,15.532079062500001,16.38511875,64.0,86.0
31,17.5591040625,18.081063,60.0,53.0
32,17.153699062500003,18.3732924375,65.0,65.0
33,17.964509062500003,18.6672110625,69.0,73.0
34,16.342889062500003,18.976332375000002,41.0,49.0
35,16.7482940625,19.015183687500002,48.0,41.0
36,18.1672115625,19.0253188125,53.0,58.0
37,18.775319062500003,19.658764125,69.0,70.0
38,18.775319062500003,19.6621425,65.0,70.0
39,19.1807240625,19.685791125,60.0,67.0
40,19.9915340625,20.425655250000002,62.0,64.0
41,19.586129062500003,20.694236062500003,46.0,72.0
42,20.396939062500003,21.12835725,65.0,76.0
43,20.8023440625,21.157073437500003,62.0,51.0
44,21.207749062500003,22.091194125,36.0,66.0
45,21.6131540625,22.8243015,55.0,57.0
46,22.018559062500003,22.846260937500002,64.0,79.0
47,22.4239640625,22.864842000000003,60.0,56.0
48,23.640179062500003,24.72294825,53.0,63.0
49,24.0455840625,25.300650375000004,57.0,72.0
50,22.829369062500003,25.532069062500003,41.0,63.0
51,23.2347740625,25.60132575,48.0,49.0
52,25.261799062500003,26.0675415,60.0,62.0
53,24.450989062500003,26.0861225625,65.0,69.0
54,25.6672040625,26.092879312500003,57.0,56.0
55,26.883419062500003,27.334432125000003,58.0,70.0
56,26.4780140625,27.34456725,53.0,59.0
57,26.072609062500003,27.388486125000004,46.0,59.0
58,27.2888240625,27.815850562500003,62.0,83.0
59,27.694229062500003,29.0675385,36.0,63.0
60,28.0996340625,29.14186275,43.0,56.0
61,28.505039062500003,29.219565375000002,48.0,54.0
62,28.505039062500003,29.347943625000003,55.0,68.0
63,28.9104440625,29.378349000000004,60.0,64.0
64,28.9104440625,29.413821937500003,64.0,63.0
65,29.7212540625,30.037132125000003,60.0,76.0
66,29.315849062500003,30.162132000000003,41.0,74.0
67,30.126659062500003,30.847942125000003,40.0,74.0
68,30.5320640625,30.949293375000003,57.0,68.0
69,30.937469062500004,32.155373250000004,38.0,66.0
70,31.3428740625,32.168886750000006,45.0,61.0
71,31.748279062500004,32.3124676875,50.0,53.0
72,32.153684062500005,32.5590890625,57.0,50.0
73,31.748279062500004,32.5590890625,62.0,66.0
74,31.748279062500004,32.5590890625,65.0,57.0
75,33.369899062500004,33.881722875,65.0,59.0
76,33.369899062500004,34.1300334375,62.0,63.0
77,33.775304062500005,34.3057089375,58.0,54.0
78,34.1807090625,34.827667875,65.0,66.0
79,34.1807090625,34.929019125,62.0,59.0
80,34.5861140625,35.067532500000006,58.0,52.0
81,32.9644940625,35.10131625,53.0,41.0
82,32.5590890625,35.216181000000006,46.0,76.0
83,34.991519062500004,35.812464187500005,65.0,83.0
84,35.396924062500005,35.92057218750001,62.0,63.0
85,36.613139062500004,37.317530250000004,60.0,69.0
86,36.613139062500004,37.331043750000006,55.0,58.0
87,37.018544062500006,37.606381312500005,48.0,56.0
88,37.4239490625,38.1097591875,64.0,85.0
89,37.4239490625,38.1198943125,60.0,89.0
90,37.4239490625,38.124961875000004,55.0,89.0
91,37.8293540625,38.297259000000004,48.0,95.0
92,35.8023290625,38.484758812500004,36.0,72.0
93,36.2077340625,38.516853375000004,43.0,59.0
94,38.234759062500004,38.6975964375,60.0,102.0
95,38.437461562500005,38.719555875000005,48.0,102.0
96,38.640164062500006,38.9323935,55.0,102.0
97,38.84286656250001,38.999961000000006,60.0,117.0
98,38.234759062500004,39.043879875,64.0,107.0
99,39.4509740625,39.903676312500004,53.0,99.0
100,39.6536765625,40.0084059375,65.0,86.0
101,40.059081562500005,40.216176000000004,53.0,107.0
102,39.2482715625,40.2178651875,48.0,86.0
103,39.0455690625,40.276986750000006,41.0,96.0
104,39.856379062500004,40.665499875,72.0,127.0
105,40.46448656250001,40.700972812500005,65.0,107.0
106,40.261784062500006,40.820905125,69.0,112.0
107,41.2752965625,41.5658368125,52.0,82.0
108,41.0725940625,41.75671500000001,64.0,96.0
109,40.8698915625,41.942525625,45.0,55.0
110,41.680701562500005,41.942525625,52.0,89.0
111,40.6671890625,41.993201250000006,40.0,81.0
112,41.883404062500006,42.239822625,69.0,100.0
113,41.477999062500004,42.24995775000001,72.0,112.0
114,42.08610656250001,42.28205231250001,64.0,96.0
115,42.8969165625,43.0557001875,58.0,93.0
116,42.6942140625,43.136781187500006,53.0,82.0
117,42.4915115625,43.4002944375,50.0,61.0
118,43.302321562500005,43.429010625000004,53.0,83.0
119,42.2888090625,43.44928087500001,46.0,96.0
120,43.099619062500004,43.49319975,62.0,100.0
121,43.505024062500006,43.7516454375,58.0,127.0
122,43.70772656250001,43.868199375,62.0,92.0
123,44.3158340625,44.77698225,48.0,96.0
124,44.5185365625,44.8563740625,55.0,93.0
125,43.9104290625,45.0354279375,36.0,79.0
126,44.1131315625,45.0590765625,43.0,72.0
127,44.923941562500005,45.45265725,48.0,89.0
128,45.126644062500006,45.46617075,60.0,99.0
129,44.721239062500004,45.476305875,64.0,99.0
130,45.32934656250001,45.483062625,55.0,102.0
131,45.9374540625,46.395223875000006,53.0,97.0
132,46.1401565625,46.624953375000004,60.0,102.0
133,46.545561562500005,46.670561437500005,53.0,102.0
134,45.7347515625,46.6975884375,48.0,72.0
135,45.53204906250001,46.73137218750001,41.0,82.0
136,46.95096656250001,47.246574375,60.0,112.0
137,46.342859062500004,47.300628375,69.0,122.0
138,46.748264062500006,47.57427675,65.0,99.0
139,47.7617765625,48.03204656250001,57.0,97.0
140,47.5590740625,48.043870875,52.0,92.0
141,47.964479062500004,48.331032750000006,60.0,102.0
142,47.3563715625,48.63508650000001,48.0,74.0
143,48.167181562500005,48.645221625000005,52.0,99.0
144,47.15366906250001,48.65028918750001,40.0,70.0
145,48.369884062500006,48.738126937500006,64.0,99.0
146,48.57258656250001,48.75164043750001,57.0,89.0
147,49.1806940625,49.640153062500005,58.0,100.0
148,49.3833965625,49.6435314375,62.0,92.0
149,48.9779915625,49.866504187500006,53.0,61.0
150,49.788801562500005,49.913801437500005,58.0,107.0
151,48.77528906250001,49.94251762500001,46.0,88.0
152,49.586099062500004,50.006706750000006,65.0,95.0
153,49.991504062500006,50.391841500000005,62.0,100.0
154,50.19420656250001,50.393530687500004,65.0,99.0
155,51.0050165625,51.261773062500005,52.0,99.0
156,50.8023140625,51.270219000000004,48.0,100.0
157,51.207719062500004,51.6333943125,55.0,112.0
158,50.39690906250001,51.755015812500005,36.0,90.0
159,50.5996115625,51.7887995625,43.0,72.0
160,51.410421562500005,51.871569750000006,48.0,99.0
161,51.613124062500006,51.905353500000004,52.0,99.0
162,51.81582656250001,51.94927237500001,55.0,107.0
163,52.4239340625,52.876636312500004,58.0,102.0
164,52.6266365625,52.88001468750001,62.0,88.0
165,52.2212315625,53.102987437500005,53.0,59.0
166,53.032041562500005,53.145217125,58.0,99.0
167,52.01852906250001,53.1671765625,46.0,86.0
168,52.829339062500004,53.234744062500006,65.0,100.0
169,53.43744656250001,53.589473437500004,65.0,102.0
170,53.234744062500006,53.64859500000001,62.0,107.0
171,54.0455540625,54.53372925000001,48.0,93.0
172,54.2482565625,54.63508050000001,55.0,83.0
173,53.64014906250001,54.7516344375,36.0,72.0
174,53.8428515625,54.763458750000005,43.0,63.0
175,54.856364062500006,55.165485375,60.0,107.0
176,54.653661562500005,55.16886375000001,48.0,95.0
177,55.05906656250001,55.178998875000005,55.0,100.0
178,54.450959062500004,55.185755625000006,64.0,107.0
179,55.26176906250001,55.381701375000006,60.0,77.0
180,55.26176906250001,55.381701375000006,69.0,78.0
181,55.26176906250001,55.383390562500004,41.0,69.0
182,55.26176906250001,55.38676893750001,65.0,81.0
183,55.4644715625,55.6131200625,65.0,82.0
184,55.4644715625,55.616498437500006,69.0,78.0
185,55.4644715625,55.62325518750001,60.0,71.0
186,55.4644715625,55.6350795,41.0,75.0
187,56.072579062500004,56.1756195,60.0,89.0
188,56.072579062500004,56.1756195,64.0,82.0
189,56.072579062500004,56.1756195,67.0,79.0
190,56.072579062500004,56.17899787500001,36.0,75.0
191,56.275281562500005,56.39859225000001,36.0,79.0
192,56.275281562500005,56.415484125000006,64.0,79.0
193,56.275281562500005,56.42224087500001,60.0,72.0
194,56.275281562500005,56.42224087500001,67.0,73.0
195,56.88338906250001,57.356361562500005,65.0,96.0
196,56.88338906250001,57.368185875,69.0,86.0
197,56.88338906250001,57.434064187500006,62.0,93.0
198,57.491496562500004,57.78541518750001,50.0,86.0
199,56.88338906250001,58.0185230625,38.0,86.0
200,57.2887940625,58.03541493750001,45.0,56.0
201,57.694199062500005,58.11480675000001,65.0,99.0
202,57.896901562500005,58.12832025000001,50.0,97.0
203,58.099604062500006,58.361428125,62.0,99.0
204,58.30230656250001,58.46615775000001,65.0,97.0
205,58.9104140625,59.352981187500006,58.0,97.0
206,59.113116562500004,59.376629812500006,62.0,72.0
207,58.7077115625,59.63338631250001,53.0,51.0
208,59.518521562500005,59.684061937500005,58.0,100.0
209,59.315819062500005,59.714467312500005,65.0,99.0
210,58.50500906250001,59.731359187500004,46.0,71.0
211,59.92392656250001,60.0455480625,65.0,90.0
212,59.721224062500006,60.05737237500001,62.0,102.0
213,60.5320340625,60.9712228125,48.0,81.0
214,60.734736562500004,61.131695625000006,55.0,81.0
215,60.3293315625,61.24656037500001,43.0,85.0
216,60.12662906250001,61.26176306250001,36.0,66.0
217,61.140141562500006,61.680681562500006,48.0,88.0
218,61.54554656250001,61.69250587500001,55.0,88.0
219,61.342844062500006,61.704330187500005,60.0,95.0
220,60.937439062500005,61.744870687500004,64.0,95.0
221,62.1536540625,62.6232481875,53.0,90.0
222,62.761761562500006,62.99318025000001,53.0,88.0
223,61.74824906250001,63.270207000000006,41.0,77.0
224,61.9509515625,63.42392306250001,48.0,59.0
225,62.356356562500004,63.93405768750001,60.0,86.0
226,62.96446406250001,63.952638750000006,67.0,99.0
227,62.559059062500005,63.969530625000004,69.0,96.0
228,63.16716656250001,63.976287375000005,65.0,95.0
229,63.7752740625,64.2617600625,53.0,76.0
230,63.977976562500004,64.41547612500001,60.0,53.0
231,63.36986906250001,64.47966525000001,41.0,72.0
232,63.57257156250001,64.503313875,48.0,64.0
233,64.3833815625,64.59453,53.0,71.0
234,64.1806790625,65.0421646875,69.0,96.0
235,64.5860840625,65.04723225000001,65.0,74.0
236,65.80229906250001,66.30567693750001,58.0,66.0
237,65.39689406250001,66.3377715,53.0,52.0
238,64.99148906250001,66.351285,46.0,89.0
239,65.80229906250001,66.5962171875,65.0,85.0
240,66.2077040625,66.6705414375,62.0,66.0
241,67.0185140625,67.49317575,60.0,57.0
242,66.6131090625,67.5793243125,48.0,63.0
243,67.4239190625,68.1215535,64.0,65.0
244,67.4239190625,68.124931875,67.0,66.0
245,67.8293240625,68.23472906250001,60.0,55.0
246,69.04553906250001,69.2077010625,57.0,66.0
247,68.23472906250001,69.81074100000001,45.0,69.0
248,68.64013406250001,69.87999768750001,52.0,64.0
249,69.4509440625,70.0556731875,57.0,82.0
250,69.04553906250001,70.30736212500001,64.0,72.0
251,70.2617540625,70.847902125,57.0,72.0
252,69.8563490625,71.10128025,45.0,62.0
253,70.6671590625,71.3766178125,64.0,68.0
254,71.0725640625,71.38506375,57.0,66.0
255,71.47796906250001,72.45600862500001,46.0,74.0
256,71.88337406250001,72.476278875,58.0,68.0
257,72.28877906250001,72.949251375,65.0,72.0
258,72.6941840625,73.14012956250001,62.0,66.0
259,73.0995890625,73.9408044375,48.0,68.0
260,73.5049940625,73.996547625,60.0,63.0
261,73.9103990625,74.65533075,64.0,72.0
262,75.53201906250001,76.13843737500001,69.0,45.0
263,75.53201906250001,76.20431568750001,65.0,69.0
264,75.9374240625,76.54384237500001,53.0,59.0
265,76.3428290625,77.0624229375,69.0,69.0
266,76.3428290625,77.08269318750001,65.0,73.0
267,74.3158040625,77.131679625,60.0,56.0
268,77.1536390625,77.239787625,60.0,36.0
269,76.7482340625,77.260057875,53.0,55.0
270,75.12661406250001,77.864787,48.0,58.0
271,77.1536390625,77.9070166875,65.0,86.0
272,77.1536390625,77.91377343750001,69.0,79.0
273,77.5590440625,77.9272869375,60.0,73.0
274,74.72120906250001,77.945868,41.0,68.0
275,78.36985406250001,79.0185020625,58.0,54.0
276,77.96444906250001,79.18404243750001,46.0,74.0
277,78.77525906250001,79.54721775,65.0,93.0
278,79.1806640625,79.6350555,62.0,54.0
279,79.5860690625,80.3664736875,36.0,72.0
280,79.9914740625,80.908702875,55.0,50.0
281,80.80228406250001,81.23302687500001,60.0,46.0
282,80.3968790625,81.24991875,64.0,86.0
283,82.42390406250001,82.945863,60.0,53.0
284,82.01849906250001,83.2380924375,65.0,65.0
285,82.8293090625,83.5320110625,69.0,73.0
286,81.20768906250001,83.841132375,41.0,49.0
287,81.61309406250001,83.8799836875,48.0,41.0
288,83.0320115625,83.8901188125,53.0,58.0
289,83.6401190625,84.52356412500001,69.0,70.0
290,83.6401190625,84.5269425,65.0,70.0
291,84.04552406250001,84.55059112500001,60.0,67.0
292,84.85633406250001,85.29045525000001,62.0,64.0
293,84.45092906250001,85.55903606250001,46.0,72.0
294,85.26173906250001,85.99315725000001,65.0,76.0
295,85.66714406250001,86.0218734375,62.0,51.0
296,86.0725490625,86.955994125,36.0,66.0
297,86.4779540625,87.6891015,55.0,57.0
298,86.8833590625,87.71106093750001,64.0,79.0
299,87.28876406250001,87.72964200000001,60.0,56.0
300,88.50497906250001,89.58774825,53.0,63.0
301,88.91038406250001,90.165450375,57.0,72.0
302,87.69416906250001,90.3968690625,41.0,63.0
303,88.09957406250001,90.46612575,48.0,49.0
304,90.1265990625,90.9323415,60.0,62.0
305,89.3157890625,90.95092256250001,65.0,69.0
306,90.53200406250001,90.9576793125,57.0,56.0
307,91.74821906250001,92.19923212500001,58.0,70.0
308,91.34281406250001,92.20936725000001,53.0,59.0
309,90.93740906250001,92.253286125,46.0,59.0
310,92.15362406250001,92.6806505625,62.0,83.0
311,92.5590290625,93.93233850000001,36.0,63.0
312,92.9644340625,94.00666275,43.0,56.0
313,93.3698390625,94.084365375,48.0,54.0
314,93.3698390625,94.212743625,55.0,68.0
315,93.77524406250001,94.243149,60.0,64.0
316,93.77524406250001,94.2786219375,64.0,63.0
317,94.58605406250001,94.901932125,60.0,76.0
318,94.18064906250001,95.026932,41.0,74.0
319,94.99145906250001,95.712742125,40.0,74.0
320,95.39686406250001,95.81409337500001,57.0,68.0
321,95.8022690625,97.02017325000001,38.0,66.0
322,96.2076740625,97.03368675000002,45.0,61.0
323,96.6130790625,97.1772676875,50.0,53.0
324,97.01848406250001,97.42388906250001,57.0,50.0
325,96.6130790625,97.42388906250001,62.0,66.0
326,96.6130790625,97.42388906250001,65.0,57.0
327,98.23469906250001,98.74652287500001,65.0,59.0
328,98.23469906250001,98.9948334375,62.0,63.0
329,98.64010406250001,99.1705089375,58.0,54.0
330,99.0455090625,99.692467875,65.0,66.0
331,99.0455090625,99.79381912500001,62.0,59.0
332,99.4509140625,99.93233250000002,58.0,52.0
333,97.82929406250001,99.96611625000001,53.0,41.0
334,97.42388906250001,100.08098100000001,46.0,76.0
335,99.8563190625,100.67726418750001,65.0,83.0
336,100.26172406250001,100.7853721875,62.0,63.0
337,101.47793906250001,102.18233025,60.0,69.0
338,101.47793906250001,102.19584375000001,55.0,58.0
339,101.88334406250002,102.47118131250001,48.0,56.0
340,102.2887490625,102.9745591875,64.0,85.0
341,102.2887490625,102.98469431250001,60.0,89.0
342,102.2887490625,102.98976187500001,55.0,89.0
343,102.6941540625,103.16205900000001,48.0,95.0
344,100.66712906250001,103.3495588125,36.0,72.0
345,101.07253406250001,103.38165337500001,43.0,59.0
346,103.0995590625,103.56239643750001,60.0,102.0
347,103.30226156250001,103.58435587500001,48.0,102.0
348,103.50496406250001,103.7971935,55.0,102.0
349,103.70766656250001,103.86476100000002,60.0,117.0
350,103.0995590625,103.908679875,64.0,107.0
351,104.31577406250001,104.76847631250001,53.0,99.0
352,104.51847656250001,104.8732059375,65.0,86.0
353,104.92388156250001,105.080976,53.0,107.0
354,104.11307156250001,105.08266518750001,48.0,86.0
355,103.91036906250001,105.14178675000001,41.0,96.0
356,104.72117906250001,105.53029987500001,72.0,127.0
357,105.32928656250002,105.56577281250001,65.0,107.0
358,105.12658406250002,105.68570512500001,69.0,112.0
359,106.1400965625,106.43063681250001,52.0,82.0
360,105.9373940625,106.62151500000002,64.0,96.0
361,105.7346915625,106.807325625,45.0,55.0
362,106.54550156250001,106.807325625,52.0,89.0
363,105.5319890625,106.85800125000002,40.0,81.0
364,106.74820406250001,107.104622625,69.0,100.0
365,106.3427990625,107.11475775000001,72.0,112.0
366,106.95090656250001,107.14685231250002,64.0,96.0
367,107.76171656250001,107.92050018750001,58.0,93.0
368,107.55901406250001,108.00158118750001,53.0,82.0
369,107.35631156250001,108.26509443750001,50.0,61.0
370,108.16712156250001,108.293810625,53.0,83.0
371,107.15360906250001,108.31408087500002,46.0,96.0
372,107.96441906250001,108.35799975,62.0,100.0
373,108.36982406250002,108.6164454375,58.0,127.0
374,108.57252656250002,108.732999375,62.0,92.0
375,109.1806340625,109.64178225,48.0,96.0
376,109.3833365625,109.72117406250001,55.0,93.0
377,108.7752290625,109.9002279375,36.0,79.0
378,108.9779315625,109.92387656250001,43.0,72.0
379,109.78874156250001,110.31745725,48.0,89.0
380,109.99144406250001,110.33097075,60.0,99.0
381,109.5860390625,110.34110587500001,64.0,99.0
382,110.19414656250001,110.347862625,55.0,102.0
383,110.80225406250001,111.26002387500002,53.0,97.0
384,111.00495656250001,111.489753375,60.0,102.0
385,111.41036156250001,111.53536143750001,53.0,102.0
386,110.59955156250001,111.5623884375,48.0,72.0
387,110.39684906250001,111.59617218750002,41.0,82.0
388,111.81576656250002,112.11137437500001,60.0,112.0
389,111.20765906250001,112.165428375,69.0,122.0
390,111.61306406250002,112.43907675000001,65.0,99.0
391,112.6265765625,112.89684656250002,57.0,97.0
392,112.4238740625,112.90867087500001,52.0,92.0
393,112.8292790625,113.19583275000001,60.0,102.0
394,112.2211715625,113.49988650000002,48.0,74.0
395,113.03198156250001,113.51002162500001,52.0,99.0
396,112.0184690625,113.51508918750001,40.0,70.0
397,113.23468406250001,113.60292693750002,64.0,99.0
398,113.43738656250001,113.6164404375,57.0,89.0
399,114.04549406250001,114.50495306250001,58.0,100.0
400,114.24819656250001,114.5083314375,62.0,92.0
401,113.84279156250001,114.73130418750002,53.0,61.0
402,114.65360156250001,114.77860143750001,58.0,107.0
403,113.64008906250001,114.80731762500001,46.0,88.0
404,114.45089906250001,114.87150675000001,65.0,95.0
405,114.85630406250002,115.25664150000001,62.0,100.0
406,115.05900656250002,115.2583306875,65.0,99.0
407,115.8698165625,116.12657306250001,52.0,99.0
408,115.6671140625,116.13501900000001,48.0,100.0
409,116.0725190625,116.4981943125,55.0,112.0
410,115.26170906250002,116.61981581250001,36.0,90.0
411,115.4644115625,116.6535995625,43.0,72.0
412,116.27522156250001,116.73636975000001,48.0,99.0
413,116.47792406250001,116.7701535,52.0,99.0
414,116.68062656250001,116.81407237500001,55.0,107.0
415,117.28873406250001,117.74143631250001,58.0,102.0
416,117.49143656250001,117.74481468750001,62.0,88.0
417,117.08603156250001,117.96778743750001,53.0,59.0
418,117.89684156250001,118.010017125,58.0,99.0
419,116.88332906250001,118.0319765625,46.0,86.0
420,117.69413906250001,118.09954406250002,65.0,100.0
421,118.30224656250002,118.4542734375,65.0,102.0
422,118.09954406250002,118.51339500000002,62.0,107.0
423,118.9103540625,119.39852925000001,48.0,93.0
424,119.1130565625,119.49988050000002,55.0,83.0
425,118.50494906250002,119.6164344375,36.0,72.0
426,118.7076515625,119.62825875000001,43.0,63.0
427,119.72116406250001,120.030285375,60.0,107.0
428,119.51846156250001,120.03366375000002,48.0,95.0
429,119.92386656250001,120.04379887500001,55.0,100.0
430,119.3157590625,120.05055562500002,64.0,107.0
431,120.12656906250001,120.24650137500001,60.0,77.0
432,120.12656906250001,120.24650137500001,69.0,78.0
433,120.12656906250001,120.24819056250001,41.0,69.0
434,120.12656906250001,120.25156893750001,65.0,81.0
435,120.32927156250001,120.4779200625,65.0,82.0
436,120.32927156250001,120.48129843750002,69.0,78.0
437,120.32927156250001,120.48805518750001,60.0,71.0
438,120.32927156250001,120.4998795,41.0,75.0
439,120.93737906250001,121.04041950000001,60.0,89.0
440,120.93737906250001,121.04041950000001,64.0,82.0
441,120.93737906250001,121.04041950000001,67.0,79.0
442,120.93737906250001,121.04379787500001,36.0,75.0
443,121.14008156250001,121.26339225000001,36.0,79.0
444,121.14008156250001,121.28028412500001,64.0,79.0
445,121.14008156250001,121.28704087500002,60.0,72.0
446,121.14008156250001,121.28704087500002,67.0,73.0
447,121.74818906250002,122.22116156250001,65.0,96.0
448,121.74818906250002,122.23298587500001,69.0,86.0
449,121.74818906250002,122.29886418750002,62.0,93.0
450,122.3562965625,122.65021518750001,50.0,86.0
451,121.74818906250002,122.88332306250001,38.0,86.0
452,122.1535940625,122.90021493750001,45.0,56.0
453,122.5589990625,122.97960675000002,65.0,99.0
454,122.76170156250001,122.99312025,50.0,97.0
455,122.96440406250001,123.226228125,62.0,99.0
456,123.16710656250001,123.33095775000001,65.0,97.0
457,123.77521406250001,124.21778118750001,58.0,97.0
458,123.97791656250001,124.24142981250002,62.0,72.0
459,123.57251156250001,124.49818631250001,53.0,51.0
460,124.38332156250002,124.5488619375,58.0,100.0
461,124.18061906250001,124.57926731250001,65.0,99.0
462,123.36980906250001,124.5961591875,46.0,71.0
463,124.78872656250002,124.9103480625,65.0,90.0
464,124.58602406250002,124.92217237500002,62.0,102.0
465,125.3968340625,125.8360228125,48.0,81.0
466,125.5995365625,125.99649562500001,55.0,81.0
467,125.1941315625,126.11136037500002,43.0,85.0
468,124.99142906250002,126.12656306250001,36.0,66.0
469,126.00494156250001,126.54548156250002,48.0,88.0
470,126.41034656250001,126.55730587500001,55.0,88.0
471,126.20764406250001,126.56913018750001,60.0,95.0
472,125.8022390625,126.60967068750001,64.0,95.0
473,127.42385906250001,127.82250731250001,65.0,83.0
474,127.42385906250001,127.96946662500001,69.0,86.0
475,127.62656156250002,128.0826421875,53.0,75.0
476,126.61304906250001,128.1096691875,41.0,85.0
477,127.01845406250001,128.12487187500003,48.0,65.0
478,127.82926406250002,128.15696643750002,60.0,90.0
479,128.23466906250002,128.9914250625,69.0,85.0
480,128.23466906250002,128.999871,65.0,89.0
481,128.23466906250002,129.2549383125,53.0,78.0
482,129.45088406250002,129.65696493750002,53.0,43.0
483,128.23466906250002,129.739735125,48.0,69.0
484,129.04547906250002,129.76845131250002,65.0,78.0
485,129.04547906250002,129.7752080625,69.0,76.0
486,128.23466906250002,129.77689725000002,60.0,90.0
487,128.23466906250002,129.814059375,41.0,66.0
488,129.85628906250003,129.9542619375,65.0,79.0
489,129.85628906250003,129.96777543750002,62.0,92.0
490,129.85628906250003,129.9711538125,58.0,112.0
491,129.85628906250003,129.97622137500002,46.0,92.0
492,130.0589915625,130.2042616875,62.0,88.0
493,130.0589915625,130.20764006250002,58.0,95.0
494,130.0589915625,130.23297787500002,65.0,81.0
495,130.0589915625,130.25155893750002,46.0,88.0
496,131.4779090625,131.56912518750002,55.0,82.0
497,131.4779090625,131.57419275,48.0,86.0
498,131.4779090625,131.57588193750001,64.0,90.0
499,131.4779090625,131.57757112500002,60.0,92.0
500,131.4779090625,131.58601706250002,67.0,82.0
501,131.68061156250002,131.8241925,64.0,90.0
502,131.68061156250002,131.82757087500002,55.0,78.0
503,131.68061156250002,131.8393951875,67.0,82.0
504,131.68061156250002,131.841084375,60.0,86.0
505,131.68061156250002,131.85290868750002,48.0,85.0
506,133.0995290625,133.726217625,69.0,95.0
507,133.0995290625,133.74142031250003,65.0,96.0
508,133.0995290625,133.753244625,60.0,99.0
509,133.0995290625,133.79040675000002,53.0,100.0
510,133.91033906250001,134.27351437500002,48.0,96.0
511,133.91033906250001,134.43905475000003,67.0,93.0
512,133.91033906250001,134.59108162500002,60.0,92.0
513,133.91033906250001,134.68229775,64.0,93.0
514,134.72114906250002,134.999865,69.0,92.0
515,134.72114906250002,135.08770275,65.0,95.0
516,134.72114906250002,135.172162125,62.0,96.0
517,135.3292565625,135.509999625,50.0,40.0
518,135.12655406250002,135.75493181250002,45.0,61.0
519,134.72114906250002,135.7701345,38.0,89.0
520,135.7346615625,135.8900668125,50.0,112.0
521,135.53195906250002,135.96270187500002,62.0,102.0
522,135.93736406250002,136.21101243750002,57.0,95.0
523,135.53195906250002,136.26506643750002,65.0,97.0
524,136.1400665625,136.3022285625,62.0,99.0
525,136.34276906250003,136.43567437500002,62.0,75.0
526,136.34276906250003,136.44412031250002,65.0,76.0
527,136.34276906250003,136.45256625000002,46.0,107.0
528,136.34276906250003,136.45425543750002,58.0,93.0
529,136.5454715625,136.70932275,62.0,81.0
530,136.5454715625,136.7143903125,58.0,93.0
531,136.5454715625,136.732971375,65.0,81.0
532,136.5454715625,136.74479568750002,46.0,96.0
533,137.9643890625,138.0589835625,55.0,88.0
534,137.9643890625,138.06236193750001,48.0,85.0
535,137.9643890625,138.0691186875,60.0,95.0
536,137.9643890625,138.07249706250002,64.0,92.0
537,137.9643890625,138.07249706250002,67.0,81.0
538,138.16709156250002,138.300537375,64.0,83.0
539,138.16709156250002,138.31405087500002,60.0,82.0
540,138.16709156250002,138.31574006250003,67.0,74.0
541,138.16709156250002,138.3191184375,55.0,78.0
542,138.16709156250002,138.33263193750003,48.0,82.0
543,139.5860090625,139.85796825,41.0,53.0
544,139.5860090625,139.85796825,53.0,85.0
545,139.5860090625,139.8866844375,69.0,72.0
546,139.5860090625,139.888373625,65.0,79.0
547,139.5860090625,139.89175200000003,48.0,70.0
548,139.5860090625,139.8934411875,60.0,81.0
549,139.9914140625,140.246481375,41.0,50.0
550,139.9914140625,140.2583056875,53.0,73.0
551,139.9914140625,140.2718191875,65.0,77.0
552,139.9914140625,140.2718191875,69.0,72.0
553,139.9914140625,140.27688675000002,48.0,63.0
554,139.9914140625,140.27857593750002,60.0,77.0
555,140.39681906250001,140.6164134375,53.0,85.0
556,140.39681906250001,140.6603323125,69.0,76.0
557,140.39681906250001,140.6620215,41.0,53.0
558,140.39681906250001,140.66539987500002,65.0,83.0
559,140.39681906250001,140.672156625,60.0,75.0
560,140.39681906250001,140.68229175000002,48.0,63.0
561,140.80222406250002,140.88499425,41.0,40.0
562,140.80222406250002,140.88837262500002,53.0,79.0
563,140.80222406250002,140.901886125,48.0,63.0
564,140.80222406250002,140.9474941875,65.0,96.0
565,140.80222406250002,140.9474941875,69.0,88.0
566,140.80222406250002,141.09614268750002,60.0,89.0
567,141.20762906250002,141.3089803125,67.0,58.0
568,141.20762906250002,141.3157370625,64.0,61.0
569,141.20762906250002,141.33093975,60.0,61.0
570,141.4103315625,141.50661525,48.0,69.0
571,141.4103315625,141.513372,43.0,53.0
572,141.4103315625,141.51675037500002,64.0,69.0
573,141.4103315625,141.52519631250001,67.0,68.0
574,141.4103315625,141.52857468750003,60.0,64.0
575,141.20762906250002,141.54715575,36.0,56.0
576,141.61303406250002,141.69918262500002,36.0,59.0
577,141.61303406250002,141.70762856250002,48.0,86.0
578,141.61303406250002,141.7211420625,43.0,79.0
579,141.61303406250002,141.72620962500002,64.0,67.0
580,141.61303406250002,141.73465556250002,67.0,69.0
581,141.61303406250002,141.73634475,60.0,68.0
582,141.8157365625,141.91202025,36.0,65.0
583,141.8157365625,141.91370943750002,48.0,97.0
584,141.8157365625,141.93060131250002,43.0,96.0
585,141.8157365625,141.93904725000002,64.0,88.0
586,141.8157365625,141.94749318750002,67.0,79.0
587,141.8157365625,141.9542499375,60.0,85.0
588,142.01843906250002,142.118101125,43.0,100.0
589,142.01843906250002,142.118101125,48.0,100.0
590,142.01843906250002,142.118101125,64.0,85.0
591,142.01843906250002,142.11979031250002,60.0,86.0
592,142.01843906250002,142.12147950000002,36.0,73.0
593,142.01843906250002,142.124857875,67.0,79.0
594,142.2211415625,142.30222256250002,36.0,60.0
595,142.2211415625,142.3157360625,43.0,92.0
596,142.2211415625,142.32080362500002,48.0,95.0
597,142.2211415625,142.324182,64.0,82.0
598,142.2211415625,142.334317125,60.0,83.0
599,142.2211415625,142.334317125,67.0,78.0
600,142.42384406250002,142.5218169375,64.0,76.0
601,142.42384406250002,142.523506125,43.0,83.0
602,142.42384406250002,142.52519531250002,48.0,86.0
603,142.42384406250002,142.530262875,36.0,59.0
604,142.42384406250002,142.530262875,60.0,76.0
605,142.42384406250002,142.530262875,67.0,72.0
606,142.6265465625,142.73296537500002,43.0,83.0
607,142.6265465625,142.73296537500002,48.0,95.0
608,142.6265465625,142.74985725000002,36.0,66.0
609,142.6265465625,142.75830318750002,64.0,86.0
610,142.6265465625,142.7701275,60.0,86.0
611,142.6265465625,142.7785734375,67.0,81.0
612,143.2346540625,144.28195031250002,48.0,41.0
613,142.82924906250003,144.32418,41.0,69.0
614,143.6400590625,144.38836912500003,69.0,92.0
615,144.0454640625,144.4001934375,65.0,66.0
616,144.4508690625,145.0555981875,60.0,78.0
617,144.4508690625,145.09444950000002,64.0,78.0
618,144.8562740625,145.3917465,57.0,70.0
619,144.4508690625,145.482962625,43.0,58.0
620,145.6670840625,146.07417825000002,57.0,76.0
621,145.2616790625,146.080935,64.0,86.0
622,146.0724890625,147.2177581875,46.0,79.0
623,146.88329906250001,147.22789331250002,58.0,54.0
624,146.4778940625,147.22958250000002,53.0,50.0
625,146.88329906250001,147.67046043750003,65.0,72.0
626,147.28870406250002,147.85796025000002,62.0,65.0
627,148.09951406250002,148.5927568125,55.0,66.0
628,147.69410906250002,148.67552700000002,48.0,65.0
629,148.50491906250002,149.2143778125,67.0,74.0
630,148.91032406250002,149.40863437500002,60.0,70.0
631,148.50491906250002,149.4305938125,64.0,75.0
632,149.31572906250003,150.6468088125,41.0,70.0
633,150.1265390625,150.65863312500002,69.0,78.0
634,150.1265390625,150.74478168750002,65.0,90.0
635,149.72113406250003,150.8934301875,48.0,52.0
636,150.5319440625,150.89849775000002,60.0,75.0
637,151.3427540625,151.75998337500002,55.0,74.0
638,150.9373490625,152.32079362500002,43.0,66.0
639,152.1535640625,152.54545556250002,57.0,64.0
640,151.7481590625,152.5488339375,60.0,72.0
641,151.7481590625,152.5555906875,64.0,70.0
642,153.36977906250002,153.56910318750002,58.0,92.0
643,152.9643740625,153.66876525,50.0,53.0
644,152.5589690625,153.70761656250002,46.0,89.0
645,153.36977906250002,153.76335975,53.0,48.0
646,153.36977906250002,154.07585943750001,62.0,81.0
647,153.77518406250002,154.07923781250003,58.0,81.0
648,153.36977906250002,154.13835937500002,65.0,72.0
649,154.7886965625,155.03362875000002,64.0,95.0
650,154.3832915625,155.0623449375,55.0,81.0
651,154.58599406250002,155.080926,60.0,74.0
652,155.1941015625,155.42045268750002,55.0,102.0
653,154.18058906250002,155.48295262500002,48.0,75.0
654,154.99139906250002,155.72450643750003,67.0,122.0
655,155.39680406250002,155.7346415625,64.0,127.0
656,155.5995065625,155.79376312500003,60.0,102.0
657,155.80220906250003,156.07416825,65.0,83.0
658,155.80220906250003,156.08768175,62.0,97.0
659,155.80220906250003,156.10119525000002,58.0,107.0
660,155.80220906250003,156.104573625,46.0,107.0
661,156.20761406250003,156.3055869375,62.0,88.0
662,156.20761406250003,156.3055869375,65.0,78.0
663,156.20761406250003,156.320789625,46.0,96.0
664,156.20761406250003,156.32585718750002,58.0,99.0
665,156.41031656250001,156.55727587500002,62.0,90.0
666,156.41031656250001,156.564032625,46.0,100.0
667,156.41031656250001,156.56741100000002,65.0,83.0
668,156.41031656250001,156.57416775000002,58.0,100.0
669,156.81572156250002,156.881599875,65.0,66.0
670,156.81572156250002,156.89511337500002,62.0,77.0
671,156.81572156250002,156.91369443750003,46.0,112.0
672,156.81572156250002,156.91369443750003,58.0,100.0
673,157.0184240625,157.07585643750002,65.0,66.0
674,157.0184240625,157.09950506250001,62.0,79.0
675,157.0184240625,157.11470775,46.0,93.0
676,157.0184240625,157.11470775,58.0,97.0
677,157.22112656250002,157.29207243750002,62.0,86.0
678,157.22112656250002,157.3123426875,58.0,112.0
679,157.22112656250002,157.314031875,46.0,100.0
680,157.4238290625,157.73801793750002,64.0,92.0
681,157.4238290625,157.74646387500002,48.0,102.0
682,157.4238290625,157.7616665625,60.0,90.0
683,157.4238290625,157.7701125,55.0,75.0
684,157.8292340625,157.9322745,64.0,81.0
685,157.8292340625,157.9407204375,55.0,86.0
686,157.8292340625,157.94409881250002,60.0,89.0
687,157.8292340625,157.94578800000002,48.0,92.0
688,158.03193656250002,158.1839634375,48.0,107.0
689,158.03193656250002,158.19578775000002,55.0,96.0
690,158.03193656250002,158.19747693750003,60.0,102.0
691,158.03193656250002,158.199166125,64.0,95.0
692,158.43734156250002,158.46267937500002,66.0,65.0
693,158.43734156250002,158.5116658125,55.0,89.0
694,158.43734156250002,158.51335500000002,64.0,92.0
695,158.43734156250002,158.51335500000002,67.0,86.0
696,158.43734156250002,158.51504418750002,48.0,86.0
697,158.43734156250002,158.52180093750002,60.0,92.0
698,158.6400440625,158.71267912500002,64.0,88.0
699,158.6400440625,158.7160575,48.0,88.0
700,158.6400440625,158.7160575,55.0,93.0
701,158.6400440625,158.7245034375,67.0,81.0
702,158.6400440625,158.73126018750003,60.0,90.0
703,158.84274656250003,158.915381625,67.0,69.0
704,158.84274656250003,158.91876000000002,48.0,81.0
705,158.84274656250003,158.92720593750002,64.0,85.0
706,158.84274656250003,158.9305843125,55.0,83.0
707,158.84274656250003,158.9339626875,60.0,86.0
708,159.0454490625,159.13328681250002,57.0,100.0
709,159.0454490625,159.13328681250002,69.0,95.0
710,159.0454490625,159.13497600000002,60.0,97.0
711,159.0454490625,159.1366651875,53.0,92.0
712,159.0454490625,159.138354375,65.0,96.0
713,159.24815156250003,159.35794875000002,53.0,95.0
714,159.24815156250003,159.3647055,57.0,102.0
715,159.24815156250003,159.36808387500002,69.0,89.0
716,159.24815156250003,159.37484062500002,65.0,96.0
717,159.24815156250003,159.38328656250002,60.0,102.0
718,159.85625906250002,159.93734006250003,48.0,82.0
719,159.85625906250002,159.9474751875,64.0,93.0
720,159.85625906250002,159.9474751875,67.0,88.0
721,159.85625906250002,159.95085356250001,60.0,95.0
722,159.85625906250002,159.96098868750002,55.0,90.0
723,160.0589615625,160.205920875,64.0,95.0
724,160.0589615625,160.21267762500003,60.0,95.0
725,160.0589615625,160.21774518750001,55.0,83.0
726,160.0589615625,160.23632625000002,48.0,88.0
727,160.0589615625,160.239704625,67.0,88.0
728,160.66706906250002,161.40862237500002,38.0,59.0
729,160.66706906250002,161.41031156250003,50.0,85.0
730,160.66706906250002,161.4136899375,69.0,93.0
731,160.66706906250002,161.43227100000001,62.0,102.0
732,160.66706906250002,161.43227100000001,65.0,100.0
733,160.66706906250002,161.43564937500003,45.0,92.0
734,161.47787906250002,162.273486375,65.0,96.0
735,161.47787906250002,162.28531068750002,69.0,95.0
736,161.47787906250002,162.28868906250003,45.0,72.0
737,161.47787906250002,162.29037825,62.0,99.0
738,162.28868906250003,162.29037825,62.0,86.0
739,161.47787906250002,162.2920674375,50.0,74.0
740,161.47787906250002,162.3022025625,38.0,59.0
741,162.28868906250003,162.540378,65.0,73.0
742,162.28868906250003,162.58091850000002,58.0,112.0
743,162.69409406250003,162.95760731250002,65.0,69.0
744,162.69409406250003,162.97618837500002,62.0,85.0
745,162.69409406250003,162.989701875,58.0,96.0
746,162.28868906250003,163.0049045625,46.0,102.0
747,163.0994990625,163.3697690625,65.0,76.0
748,163.0994990625,163.37314743750002,62.0,92.0
749,163.0994990625,163.3866609375,58.0,102.0
750,163.5049040625,163.77010650000003,62.0,86.0
751,163.5049040625,163.773484875,58.0,107.0
752,163.0994990625,163.8089578125,46.0,64.0
753,163.9103090625,164.20929525000003,64.0,90.0
754,163.9103090625,164.2109844375,55.0,92.0
755,163.9103090625,164.2211195625,60.0,86.0
756,163.9103090625,164.25997087500002,48.0,59.0
757,164.3157140625,164.591051625,64.0,95.0
758,164.3157140625,164.5927408125,55.0,97.0
759,164.3157140625,164.60118675,60.0,99.0
760,164.3157140625,164.62314618750003,48.0,63.0
761,164.7211190625,165.0049025625,55.0,99.0
762,164.7211190625,165.00659175,64.0,95.0
763,164.7211190625,165.01841606250002,60.0,99.0
764,164.7211190625,165.023483625,48.0,86.0
765,165.1265240625,165.43057781250002,55.0,96.0
766,165.1265240625,165.46436156250002,60.0,102.0
767,165.1265240625,165.46773993750003,64.0,97.0
768,165.1265240625,165.5285506875,48.0,95.0
769,165.9373340625,166.3900363125,53.0,99.0
770,166.1400365625,166.4947659375,65.0,86.0
771,166.5454415625,166.702536,53.0,107.0
772,165.73463156250003,166.70422518750001,48.0,86.0
773,165.5319290625,166.76334675,41.0,96.0
774,166.34273906250002,167.151859875,72.0,127.0
775,166.9508465625,167.18733281250002,65.0,107.0
776,166.74814406250002,167.30726512500001,69.0,112.0
777,167.7616565625,168.05219681250003,52.0,82.0
778,167.55895406250002,168.243075,64.0,96.0
779,167.3562515625,168.42888562500002,45.0,55.0
780,168.1670615625,168.42888562500002,52.0,89.0
781,167.15354906250002,168.47956125000002,40.0,81.0
782,168.36976406250002,168.726182625,69.0,100.0
783,167.96435906250002,168.73631775,72.0,112.0
784,168.5724665625,168.7684123125,64.0,96.0
785,169.38327656250001,169.54206018750003,58.0,93.0
786,169.18057406250003,169.6231411875,53.0,82.0
787,168.9778715625,169.88665443750003,50.0,61.0
788,169.78868156250002,169.915370625,53.0,83.0
789,168.77516906250003,169.93564087500002,46.0,96.0
790,169.5859790625,169.97955975000002,62.0,100.0
791,169.9913840625,170.23800543750002,58.0,127.0
792,170.19408656250002,170.354559375,62.0,92.0
793,170.8021940625,171.26334225000002,48.0,96.0
794,171.00489656250002,171.34273406250003,55.0,93.0
795,170.3967890625,171.52178793750002,36.0,79.0
796,170.59949156250002,171.54543656250002,43.0,72.0
797,171.41030156250002,171.93901725,48.0,89.0
798,171.6130040625,171.95253075000002,60.0,99.0
799,171.2075990625,171.96266587500003,64.0,99.0
800,171.81570656250003,171.96942262500002,55.0,102.0
801,172.4238140625,172.88158387500002,53.0,97.0
802,172.62651656250003,173.111313375,60.0,102.0
803,173.0319215625,173.15692143750002,53.0,102.0
804,172.22111156250003,173.18394843750002,48.0,72.0
805,172.0184090625,173.21773218750002,41.0,82.0
806,173.4373265625,173.732934375,60.0,112.0
807,172.82921906250002,173.78698837500002,69.0,122.0
808,173.23462406250002,174.06063675000001,65.0,99.0
809,174.2481365625,174.51840656250002,57.0,97.0
810,174.04543406250002,174.53023087500003,52.0,92.0
811,174.45083906250002,174.81739275,60.0,102.0
812,173.8427315625,175.12144650000002,48.0,74.0
813,174.6535415625,175.13158162500002,52.0,99.0
814,173.64002906250002,175.1366491875,40.0,70.0
815,174.85624406250002,175.22448693750002,64.0,99.0
816,175.0589465625,175.2380004375,57.0,89.0
817,175.66705406250003,176.1265130625,58.0,100.0
818,175.86975656250002,176.12989143750002,62.0,92.0
819,175.4643515625,176.35286418750002,53.0,61.0
820,176.27516156250002,176.4001614375,58.0,107.0
821,175.26164906250003,176.428877625,46.0,88.0
822,176.0724590625,176.49306675000003,65.0,95.0
823,176.4778640625,176.87820150000002,62.0,100.0
824,176.68056656250002,176.87989068750002,65.0,99.0
825,177.49137656250002,177.74813306250002,52.0,99.0
826,177.2886740625,177.75657900000002,48.0,100.0
827,177.6940790625,178.11975431250002,55.0,112.0
828,176.8832690625,178.24137581250002,36.0,90.0
829,177.08597156250002,178.27515956250002,43.0,72.0
830,177.89678156250002,178.35792975,48.0,99.0
831,178.0994840625,178.3917135,52.0,99.0
832,178.30218656250003,178.435632375,55.0,107.0
833,178.91029406250001,179.36299631250003,58.0,102.0
834,179.11299656250003,179.3663746875,62.0,88.0
835,178.70759156250003,179.5893474375,53.0,59.0
836,179.5184015625,179.631577125,58.0,99.0
837,178.5048890625,179.65353656250002,46.0,86.0
838,179.31569906250002,179.72110406250002,65.0,100.0
839,179.9238065625,180.07583343750002,65.0,102.0
840,179.72110406250002,180.13495500000002,62.0,107.0
841,180.53191406250002,181.02008925,48.0,93.0
842,180.7346165625,181.1214405,55.0,83.0
843,180.12650906250002,181.23799443750002,36.0,72.0
844,180.3292115625,181.24981875,43.0,63.0
845,181.34272406250003,181.65184537500002,60.0,107.0
846,181.1400215625,181.65522375,48.0,95.0
847,181.5454265625,181.665358875,55.0,100.0
848,180.93731906250002,181.672115625,64.0,107.0
849,181.74812906250003,181.86806137500002,60.0,77.0
850,181.74812906250003,181.86806137500002,69.0,78.0
851,181.74812906250003,181.86975056250003,41.0,69.0
852,181.74812906250003,181.8731289375,65.0,81.0
853,181.9508315625,182.09948006250002,65.0,82.0
854,181.9508315625,182.1028584375,69.0,78.0
855,181.9508315625,182.10961518750003,60.0,71.0
856,181.9508315625,182.1214395,41.0,75.0
857,182.5589390625,182.66197950000003,60.0,89.0
858,182.5589390625,182.66197950000003,64.0,82.0
859,182.5589390625,182.66197950000003,67.0,79.0
860,182.5589390625,182.665357875,36.0,75.0
861,182.76164156250002,182.88495225000003,36.0,79.0
862,182.76164156250002,182.90184412500003,64.0,79.0
863,182.76164156250002,182.90860087500002,60.0,72.0
864,182.76164156250002,182.90860087500002,67.0,73.0
865,183.3697490625,184.23461306250002,38.0,63.0
866,183.3697490625,184.23630225000002,45.0,67.0
867,183.3697490625,184.2565725,50.0,86.0
868,183.3697490625,184.2835995,62.0,97.0
869,183.3697490625,184.28697787500002,65.0,93.0
870,183.3697490625,184.3359643125,57.0,107.0
871,184.9913690625,186.03866531250003,58.0,112.0
872,184.9913690625,186.0488004375,62.0,96.0
873,184.9913690625,186.057246375,65.0,90.0
874,184.9913690625,186.0589355625,46.0,66.0
875,186.61298906250002,188.2379874375,64.0,97.0
876,186.61298906250002,188.24305500000003,55.0,86.0
877,186.61298906250002,188.2447441875,60.0,100.0
878,188.23460906250003,188.2447441875,60.0,72.0
879,186.61298906250002,188.246433375,67.0,90.0
880,186.61298906250002,188.25656850000001,48.0,83.0
881,188.23460906250003,188.29541981250003,40.0,62.0
882,188.23460906250003,188.9609596875,69.0,76.0
883,188.23460906250003,188.96433806250002,65.0,77.0
884,188.64001406250003,189.25994587500003,48.0,55.0
885,189.04541906250003,189.46602675000003,60.0,73.0
886,188.23460906250003,189.54879693750001,41.0,52.0
887,189.04541906250003,189.73460756250003,65.0,81.0
888,189.04541906250003,189.77514806250002,69.0,74.0
889,189.4508240625,189.8241345,48.0,41.0
890,189.8562290625,190.57582293750002,62.0,62.0
891,189.8562290625,190.58426887500002,67.0,81.0
892,189.8562290625,190.9440658125,43.0,60.0
893,190.6670390625,190.97278200000002,67.0,81.0
894,190.6670390625,191.05893056250002,62.0,68.0
895,191.4778490625,192.12480787500002,58.0,69.0
896,191.4778490625,192.1484565,65.0,59.0
897,191.4778490625,192.158591625,62.0,59.0
898,192.28865906250002,192.509942625,58.0,72.0
899,192.28865906250002,192.54203718750003,62.0,67.0
900,191.4778490625,192.57582093750003,46.0,55.0
901,192.28865906250002,192.61467225,65.0,60.0
902,193.09946906250002,193.665346875,64.0,71.0
903,193.09946906250002,193.6805495625,67.0,66.0
904,193.50487406250002,193.94237362500002,55.0,65.0
905,193.09946906250002,194.03696812500002,48.0,70.0
906,193.91027906250002,194.38325156250002,67.0,73.0
907,193.91027906250002,194.64169725000002,64.0,85.0
908,194.31568406250003,194.9035213125,60.0,73.0
909,195.12649406250003,195.6636556875,48.0,62.0
910,194.72108906250003,195.75487181250003,41.0,72.0
911,195.9373040625,196.351155,60.0,61.0
912,195.53189906250003,196.46939812500003,69.0,73.0
913,195.53189906250003,196.557235875,65.0,74.0
914,196.7481140625,197.21770818750002,62.0,37.0
915,196.3427090625,197.62311318750002,43.0,67.0
916,197.1535190625,197.8764913125,67.0,65.0
917,197.5589240625,197.93223450000002,62.0,53.0
918,198.77513906250002,199.5555436875,58.0,89.0
919,198.36973406250002,199.57581393750002,50.0,63.0
920,198.77513906250002,199.58594906250002,62.0,72.0
921,199.18054406250002,199.58763825000003,53.0,47.0
922,198.77513906250002,199.5994625625,65.0,66.0
923,197.9643290625,199.60621931250003,46.0,85.0
924,200.39675906250002,201.16871775,60.0,64.0
925,199.99135406250002,201.17378531250003,43.0,61.0
926,200.39675906250002,201.1839204375,64.0,59.0
927,200.39675906250002,201.185609625,48.0,53.0
928,199.58594906250002,201.20756906250003,36.0,72.0
929,200.80216406250003,201.20925825,55.0,59.0
930,201.20756906250003,202.32750037500003,41.0,68.0
931,201.61297406250003,202.80722962500002,48.0,55.0
932,202.4237840625,202.95756731250003,60.0,56.0
933,202.01837906250003,203.31398587500001,65.0,78.0
934,203.2345940625,203.72783681250002,60.0,72.0
935,202.8291890625,204.22783631250002,43.0,69.0
936,203.6399990625,204.449119875,65.0,72.0
937,204.0454040625,204.48628200000002,60.0,59.0
938,204.85621406250002,205.70080781250002,50.0,46.0
939,204.4508090625,205.72276725000003,46.0,85.0
940,205.26161906250002,205.92884812500003,53.0,39.0
941,205.66702406250002,206.09945606250002,58.0,56.0
942,205.26161906250002,206.1366181875,62.0,73.0
943,206.88323906250002,207.15519825,55.0,59.0
944,206.47783406250002,207.18560362500003,52.0,43.0
945,206.07242906250002,207.22614412500002,48.0,78.0
946,206.88323906250002,207.79540031250002,67.0,48.0
947,207.28864406250003,207.9372920625,60.0,57.0
948,206.88323906250002,207.98796768750003,64.0,60.0
949,208.09945406250003,208.5926968125,60.0,68.0
950,207.69404906250003,208.78695337500002,41.0,66.0
951,208.50485906250003,209.20925025000003,69.0,64.0
952,208.50485906250003,209.3494528125,65.0,58.0
953,208.9102640625,209.4710743125,60.0,57.0
954,209.7210740625,210.23965462500001,60.0,62.0
955,209.3156690625,210.4879651875,43.0,71.0
956,210.1264790625,210.86127562500002,65.0,73.0
957,210.5318840625,210.95924850000003,60.0,59.0
958,211.34269406250002,211.91363943750002,58.0,69.0
959,210.9372890625,211.996409625,46.0,69.0
960,212.15350406250002,212.55384150000003,58.0,56.0
961,211.74809906250002,212.57917931250003,62.0,69.0
962,211.74809906250002,212.597760375,65.0,65.0
963,212.55890906250002,214.18052906250003,48.0,68.0
964,212.96431406250002,214.18052906250003,52.0,48.0
965,213.36971906250002,214.18052906250003,55.0,53.0
966,213.77512406250003,214.18052906250003,60.0,59.0
967,213.36971906250002,214.18052906250003,64.0,66.0
968,213.36971906250002,214.18052906250003,67.0,60.0
969,214.18052906250003,215.78863556250002,53.0,61.0
970,214.18052906250003,215.7953923125,48.0,63.0
971,214.18052906250003,215.81397337500002,41.0,50.0
972,214.18052906250003,215.83931118750002,65.0,64.0
973,214.18052906250003,215.85113550000003,69.0,62.0
974,214.18052906250003,215.85789225000002,60.0,69.0
