,start,end,pitch,velocity
0,18.758453316666667,19.061419075,67.0,87.0
1,19.012690316666667,19.192774858333333,69.0,87.0
2,19.266927316666667,19.508452466666668,79.0,98.0
3,19.521164316666667,19.660994666666667,76.0,83.0
4,19.775401316666667,19.993621408333336,76.0,86.0
5,20.02963831666667,20.207604216666667,74.0,84.0
6,20.28387531666667,20.410993816666668,74.0,89.0
7,20.53811231666667,20.76692561666667,72.0,86.0
8,21.04658631666667,21.275399616666668,69.0,86.0
9,21.30082331666667,21.652517833333334,76.0,104.0
10,22.826245316666668,23.095312808333336,67.0,90.0
11,23.080482316666668,23.160990700000003,69.0,93.0
12,23.334719316666668,23.523278425,79.0,104.0
13,23.588956316666668,23.675820625000004,79.0,96.0
14,23.843193316666667,24.031752425,79.0,98.0
15,24.097430316666667,24.343192750000004,81.0,100.0
16,24.351667316666667,24.667344925000002,79.0,104.0
17,24.60590431666667,24.855904033333335,76.0,94.0
18,24.86014131666667,25.091073258333335,74.0,91.0
19,25.11437831666667,25.40675086666667,72.0,89.0
20,25.36861531666667,25.7033607,74.0,91.0
21,27.14827431666667,27.38979946666667,74.0,100.0
22,27.40251131666667,27.629205975,76.0,100.0
23,27.65674831666667,27.87284976666667,74.0,93.0
24,27.910985316666668,28.127086766666668,76.0,94.0
25,28.165222316666668,28.497849058333337,79.0,104.0
26,29.43640731666667,29.677932466666668,81.0,104.0
27,29.69064431666667,29.877084783333334,79.0,93.0
28,29.94488131666667,30.158864125,76.0,92.0
29,30.19911831666667,30.461829883333337,79.0,87.0
30,30.45335531666667,30.824117608333335,72.0,89.0
31,31.47030331666667,31.671574275,69.0,104.0
32,31.72454031666667,32.002082375,67.0,89.0
33,31.97877731666667,32.171573708333334,69.0,89.0
34,32.23301431666667,32.408861575,76.0,88.0
35,32.48725131666667,32.71606461666667,76.0,98.0
36,32.74148831666667,32.980894825,74.0,94.0
37,32.99572531666667,33.2287759,72.0,89.0
38,33.24996231666667,33.59953819166667,69.0,94.0
39,33.75843631666667,34.16097823333334,74.0,96.0
40,35.02962131666667,35.332587075000006,67.0,87.0
41,35.28385831666667,35.46394285833334,69.0,87.0
42,35.53809531666667,35.77962046666667,79.0,98.0
43,35.792332316666666,35.93216266666667,76.0,83.0
44,36.04656931666667,36.264789408333336,76.0,86.0
45,36.30080631666667,36.47877221666667,74.0,84.0
46,36.55504331666667,36.68216181666667,74.0,89.0
47,36.80928031666667,37.03809361666667,72.0,86.0
48,37.31775431666667,37.54656761666667,69.0,86.0
49,37.57199131666667,37.92368583333334,76.0,104.0
50,39.09741331666667,39.366480808333336,67.0,90.0
51,39.35165031666667,39.4321587,69.0,93.0
52,39.60588731666667,39.794446425000004,79.0,104.0
53,39.86012431666667,39.946988625,79.0,96.0
54,40.11436131666667,40.302920425,79.0,98.0
55,40.36859831666667,40.61436075,81.0,100.0
56,40.622835316666674,40.938512925000005,79.0,104.0
57,40.87707231666667,41.127072033333334,76.0,94.0
58,41.13130931666667,41.362241258333334,74.0,91.0
59,41.38554631666667,41.67791886666667,72.0,89.0
60,41.63978331666667,41.9745287,74.0,91.0
61,43.41944231666667,43.66096746666667,74.0,100.0
62,43.67367931666667,43.900373975,76.0,100.0
63,43.92791631666667,44.14401776666667,74.0,93.0
64,44.18215331666667,44.39825476666667,76.0,94.0
65,44.43639031666667,44.76901705833334,79.0,104.0
66,45.70757531666667,45.94910046666667,81.0,104.0
67,45.96181231666667,46.14825278333334,79.0,93.0
68,46.21604931666667,46.430032125000004,76.0,92.0
69,46.47028631666667,46.73299788333334,79.0,87.0
70,46.72452331666667,47.095285608333334,72.0,89.0
71,47.74147131666667,47.94274227500001,69.0,104.0
72,47.99570831666667,48.273250375,67.0,89.0
73,48.24994531666667,48.44274170833334,69.0,89.0
74,48.50418231666667,48.68850414166667,76.0,107.0
75,48.75841931666667,49.023249525000004,74.0,113.0
76,49.01265631666667,49.370706758333334,76.0,108.0
77,49.52113031666667,49.652486100000004,74.0,94.0
78,49.775367316666674,50.09316356666667,74.0,104.0
79,50.283841316666674,50.58892571666667,72.0,102.0
80,53.33468531666667,53.61434601666667,72.0,102.0
81,53.58892231666667,53.75417636666667,74.0,100.0
82,53.84315931666667,54.120701375,76.0,110.0
83,54.35163331666667,54.485107741666674,79.0,107.0
84,54.605870316666675,54.89188694166667,79.0,110.0
85,55.622818316666674,55.79442829166667,76.0,104.0
86,55.87705531666667,56.213919341666674,81.0,114.0
87,56.38552931666667,56.637647675000004,79.0,114.0
88,56.63976631666667,56.85798640833334,76.0,114.0
89,57.91095131666667,58.11222227500001,74.0,110.0
90,58.16518831666667,58.455442225000006,76.0,91.0
91,58.41942531666667,58.63552676666667,74.0,104.0
92,58.67366231666667,58.93001795833334,72.0,93.0
93,58.927899316666675,59.20967865833334,74.0,110.0
94,59.69061031666667,59.80925425,76.0,92.0
95,59.944847316666674,60.28171134166667,76.0,108.0
96,60.453321316666674,60.766880283333336,67.0,107.0
97,61.47026931666667,61.703319900000004,72.0,113.0
98,61.72450631666667,61.868573950000005,74.0,91.0
99,61.97874331666667,62.31772598333334,76.0,108.0
100,62.48721731666667,62.62492902500001,79.0,113.0
101,62.74145431666667,62.99145403333334,79.0,116.0
102,64.01263931666668,64.30924915,81.0,116.0
103,64.52111331666667,64.7033165,84.0,114.0
104,64.77535031666667,65.078316075,81.0,116.0
105,65.53806131666667,65.79229831666667,79.0,107.0
106,65.79229831666667,66.03806075,76.0,104.0
107,66.04653531666668,66.33890786666667,74.0,110.0
108,66.80924631666667,67.06348331666668,76.0,108.0
109,67.06348331666668,67.52958448333334,74.0,113.0
110,67.57195731666667,68.01475342500001,72.0,108.0
111,68.08043131666668,68.42788855,74.0,113.0
112,69.60585331666667,69.82195476666668,72.0,108.0
113,69.86009031666667,69.99780202500001,74.0,104.0
114,70.11432731666667,70.37492024166667,76.0,114.0
115,70.62280131666667,70.75203845833335,79.0,113.0
116,70.87703831666667,71.20754641666667,79.0,113.0
117,71.63974931666667,71.87703718333334,79.0,114.0
118,71.89398631666667,72.05924036666667,76.0,108.0
119,72.14822331666667,72.463900925,81.0,107.0
120,72.65669731666668,72.89822246666667,79.0,114.0
121,72.91093431666667,73.14610354166668,76.0,114.0
122,74.18211931666667,74.41305125833334,74.0,114.0
123,74.43635631666668,74.65881369166668,76.0,102.0
124,74.69059331666668,74.89822020000001,74.0,108.0
125,74.94483031666667,75.1778809,72.0,108.0
126,75.19906731666667,75.48508394166667,74.0,116.0
127,75.96177831666667,76.08042225000001,76.0,107.0
128,76.21601531666667,76.51262515,76.0,114.0
129,76.72448931666668,76.96177718333334,79.0,108.0
130,76.97872631666668,77.23720060000001,67.0,108.0
131,77.74143731666668,78.03592850833334,67.0,94.0
132,77.99567431666668,78.14609787500001,69.0,107.0
133,78.24991131666667,78.54016522500001,72.0,114.0
134,78.75838531666668,78.89821566666667,69.0,108.0
135,79.77533331666667,79.97872291666667,81.0,113.0
136,80.02957031666668,80.28380731666667,79.0,113.0
137,80.28380731666667,80.55711209166667,76.0,116.0
138,80.79228131666667,80.98719635,76.0,113.0
139,81.04651831666668,81.22660285833334,79.0,107.0
140,81.30075531666667,81.60583971666668,74.0,116.0
141,81.80922931666667,82.06134767500001,72.0,107.0
142,82.06346631666668,82.28168640833334,69.0,108.0
143,82.31770331666668,82.58677080833334,72.0,113.0
144,82.57194031666667,82.82617731666667,74.0,102.0
145,82.82617731666667,83.141854925,72.0,96.0
146,85.87702131666667,86.15668201666668,72.0,102.0
147,86.13125831666667,86.29651236666668,74.0,100.0
148,86.38549531666668,86.663037375,76.0,110.0
149,86.89396931666667,87.02744374166667,79.0,107.0
150,87.14820631666667,87.43422294166668,79.0,110.0
151,88.16515431666667,88.33676429166667,76.0,104.0
152,88.41939131666668,88.75625534166667,81.0,114.0
153,88.92786531666667,89.179983675,79.0,114.0
154,89.18210231666667,89.40032240833334,76.0,114.0
155,90.45328731666667,90.65455827500001,74.0,110.0
156,90.70752431666668,90.997778225,76.0,91.0
157,90.96176131666668,91.17786276666668,74.0,104.0
158,91.21599831666667,91.47235395833334,72.0,93.0
159,91.47023531666667,91.75201465833334,74.0,110.0
160,92.23294631666667,92.35159025,76.0,92.0
161,92.48718331666667,92.82404734166667,76.0,108.0
162,92.99565731666668,93.30921628333334,67.0,107.0
163,94.01260531666668,94.2456559,72.0,113.0
164,94.26684231666667,94.41090995,74.0,91.0
165,94.52107931666667,94.86006198333334,76.0,108.0
166,95.02955331666668,95.167265025,79.0,113.0
167,95.28379031666668,95.53379003333335,79.0,116.0
168,96.55497531666667,96.85158515,81.0,116.0
169,97.06344931666668,97.2456525,84.0,114.0
170,97.31768631666668,97.62065207500001,81.0,116.0
171,98.08039731666668,98.33463431666668,79.0,107.0
172,98.33463431666668,98.58039675,76.0,104.0
173,98.58887131666667,98.88124386666668,74.0,110.0
174,99.35158231666668,99.60581931666667,76.0,108.0
175,99.60581931666667,100.07192048333334,74.0,113.0
176,100.11429331666668,100.55708942500002,72.0,108.0
177,100.62276731666668,100.97022455000001,74.0,113.0
178,102.14818931666667,102.36429076666667,72.0,108.0
179,102.40242631666668,102.540138025,74.0,104.0
180,102.65666331666668,102.91725624166668,76.0,114.0
181,103.16513731666667,103.29437445833334,79.0,113.0
182,103.41937431666668,103.74988241666668,79.0,113.0
183,104.18208531666667,104.41937318333335,79.0,114.0
184,104.43632231666668,104.60157636666668,76.0,108.0
185,104.69055931666668,105.00623692500001,81.0,107.0
186,105.19903331666667,105.44055846666667,79.0,114.0
187,105.45327031666667,105.68843954166668,76.0,114.0
188,106.72445531666668,106.95538725833335,74.0,114.0
189,106.97869231666668,107.20114969166667,76.0,102.0
190,107.23292931666667,107.4405562,74.0,108.0
191,107.48716631666667,107.72021690000001,72.0,108.0
192,107.74140331666668,108.02741994166668,74.0,116.0
193,108.50411431666667,108.62275825,76.0,107.0
194,108.75835131666668,109.05496115000001,76.0,114.0
195,109.26682531666668,109.50411318333335,79.0,108.0
196,109.52106231666667,109.77953660000001,67.0,108.0
197,110.28377331666668,110.58038315,72.0,107.0
198,110.53801031666667,110.70750165000001,74.0,107.0
199,110.79224731666667,111.09309443333335,76.0,113.0
200,111.30072131666668,111.42148389166668,79.0,110.0
201,111.55495831666667,111.82190716666668,79.0,114.0
202,112.31766931666668,112.55283854166667,79.0,110.0
203,112.57190631666667,112.74987221666667,76.0,108.0
204,112.82614331666667,113.09944809166667,81.0,114.0
205,113.33461731666668,113.55283740833335,81.0,114.0
206,113.58885431666668,113.83037946666667,79.0,108.0
207,113.84309131666667,114.09309103333334,76.0,117.0
208,114.86003931666667,115.19902198333334,74.0,107.0
209,115.11427631666668,115.32190320000001,76.0,104.0
210,115.36851331666668,115.57825884166668,79.0,107.0
211,115.62275031666668,115.83249584166667,81.0,107.0
212,116.38546131666668,116.75622360833334,69.0,104.0
213,116.89393531666667,117.36639240833334,72.0,110.0
214,134.69052531666668,134.993491075,67.0,87.0
215,134.94476231666667,135.12484685833334,69.0,87.0
216,135.1989993166667,135.4405244666667,79.0,98.0
217,135.45323631666668,135.5930666666667,76.0,83.0
218,135.70747331666666,135.92569340833336,76.0,86.0
219,135.96171031666668,136.1396762166667,74.0,84.0
220,136.21594731666667,136.34306581666667,74.0,89.0
221,136.4701843166667,136.69899761666667,72.0,86.0
222,136.97865831666667,137.20747161666668,69.0,86.0
223,137.23289531666668,137.58458983333335,76.0,104.0
224,138.75831731666668,139.02738480833335,67.0,90.0
225,139.01255431666667,139.09306270000002,69.0,93.0
226,139.26679131666668,139.455350425,79.0,104.0
227,139.52102831666667,139.607892625,79.0,96.0
228,139.7752653166667,139.963824425,79.0,98.0
229,140.02950231666668,140.27526475000002,81.0,100.0
230,140.28373931666667,140.599416925,79.0,104.0
231,140.5379763166667,140.78797603333334,76.0,94.0
232,140.79221331666668,141.02314525833336,74.0,91.0
233,141.0464503166667,141.33882286666667,72.0,89.0
234,141.30068731666668,141.63543270000002,74.0,91.0
235,143.0803463166667,143.3218714666667,74.0,100.0
236,143.33458331666668,143.56127797500002,76.0,100.0
237,143.58882031666667,143.80492176666667,74.0,93.0
238,143.8430573166667,144.05915876666668,76.0,94.0
239,144.09729431666668,144.42992105833335,79.0,104.0
240,145.36847931666668,145.61000446666668,81.0,104.0
241,145.62271631666667,145.80915678333335,79.0,93.0
242,145.8769533166667,146.090936125,76.0,92.0
243,146.13119031666668,146.39390188333334,79.0,87.0
244,146.3854273166667,146.75618960833336,72.0,89.0
245,147.40237531666668,147.60364627500002,69.0,104.0
246,147.65661231666667,147.93415437500002,67.0,89.0
247,147.91084931666668,148.10364570833335,69.0,89.0
248,148.16508631666667,148.3494081416667,76.0,107.0
249,148.4193233166667,148.684153525,74.0,113.0
250,148.67356031666668,149.03161075833336,76.0,108.0
251,149.1820343166667,149.31339010000002,74.0,94.0
252,149.43627131666668,149.7540675666667,74.0,104.0
253,149.94474531666668,150.24982971666668,72.0,102.0
254,152.99558931666667,153.2752500166667,72.0,102.0
255,153.24982631666668,153.41508036666667,74.0,100.0
256,153.50406331666667,153.78160537500003,76.0,110.0
257,154.01253731666668,154.14601174166668,79.0,107.0
258,154.26677431666667,154.55279094166667,79.0,110.0
259,155.28372231666668,155.45533229166668,76.0,104.0
260,155.53795931666667,155.87482334166668,81.0,114.0
261,156.04643331666668,156.29855167500003,79.0,114.0
262,156.30067031666667,156.51889040833333,76.0,114.0
263,157.57185531666667,157.773126275,74.0,110.0
264,157.8260923166667,158.116346225,76.0,91.0
265,158.08032931666668,158.29643076666667,74.0,104.0
266,158.33456631666667,158.59092195833335,72.0,93.0
267,158.58880331666668,158.87058265833335,74.0,110.0
268,159.35151431666668,159.47015825000003,76.0,92.0
269,159.60575131666667,159.94261534166668,76.0,108.0
270,160.11422531666668,160.42778428333335,67.0,107.0
271,161.1311733166667,161.3642239,72.0,113.0
272,161.38541031666668,161.52947795,74.0,91.0
273,161.63964731666667,161.97862998333335,76.0,108.0
274,162.14812131666667,162.28583302500002,79.0,113.0
275,162.4023583166667,162.65235803333334,79.0,116.0
276,163.67354331666667,163.97015315000002,81.0,116.0
277,164.18201731666667,164.36422050000002,84.0,114.0
278,164.4362543166667,164.73922007500002,81.0,116.0
279,165.1989653166667,165.45320231666668,79.0,107.0
280,165.45320231666668,165.69896475000002,76.0,104.0
281,165.7074393166667,165.99981186666668,74.0,110.0
282,166.4701503166667,166.72438731666668,76.0,108.0
283,166.72438731666668,167.19048848333335,74.0,113.0
284,167.23286131666669,167.67565742500003,72.0,108.0
285,167.7413353166667,168.08879255000002,74.0,113.0
286,169.26675731666668,169.48285876666668,72.0,108.0
287,169.52099431666667,169.65870602500001,74.0,104.0
288,169.7752313166667,170.0358242416667,76.0,114.0
289,170.28370531666667,170.41294245833336,79.0,113.0
290,170.5379423166667,170.8684504166667,79.0,113.0
291,171.30065331666668,171.53794118333334,79.0,114.0
292,171.55489031666667,171.7201443666667,76.0,108.0
293,171.8091273166667,172.124804925,81.0,107.0
294,172.31760131666667,172.55912646666667,79.0,114.0
295,172.57183831666669,172.80700754166668,76.0,114.0
296,173.8430233166667,174.07395525833334,74.0,114.0
297,174.09726031666668,174.31971769166668,76.0,102.0
298,174.3514973166667,174.5591242,74.0,108.0
299,174.60573431666668,174.8387849,72.0,108.0
300,174.85997131666667,175.14598794166668,74.0,116.0
301,175.62268231666667,175.74132625000001,76.0,107.0
302,175.8769193166667,176.17352915,76.0,114.0
303,176.3853933166667,176.62268118333336,79.0,108.0
304,176.63963031666668,176.8981046,67.0,108.0
305,177.40234131666668,177.69683250833336,67.0,94.0
306,177.6565783166667,177.80700187500003,69.0,107.0
307,177.91081531666669,178.20106922500003,72.0,114.0
308,178.4192893166667,178.55911966666667,69.0,108.0
309,179.43623731666668,179.63962691666669,81.0,113.0
310,179.6904743166667,179.94471131666668,79.0,113.0
311,179.94471131666668,180.21801609166667,76.0,116.0
312,180.4531853166667,180.64810035000002,76.0,113.0
313,180.70742231666668,180.88750685833335,79.0,107.0
314,180.96165931666667,181.2667437166667,74.0,116.0
315,181.47013331666668,181.72225167500002,72.0,107.0
316,181.7243703166667,181.94259040833336,69.0,108.0
317,181.97860731666668,182.24767480833336,72.0,113.0
318,182.23284431666667,182.4870813166667,74.0,102.0
319,182.4870813166667,182.802758925,72.0,96.0
320,185.53792531666667,185.8175860166667,72.0,102.0
321,185.7921623166667,185.95741636666668,74.0,100.0
322,186.04639931666668,186.323941375,76.0,110.0
323,186.5548733166667,186.6883477416667,79.0,107.0
324,186.80911031666668,187.09512694166668,79.0,110.0
325,187.8260583166667,187.99766829166668,76.0,104.0
326,188.08029531666668,188.4171593416667,81.0,114.0
327,188.58876931666668,188.840887675,79.0,114.0
328,188.84300631666667,189.06122640833334,76.0,114.0
329,190.11419131666668,190.31546227500002,74.0,110.0
330,190.3684283166667,190.658682225,76.0,91.0
331,190.62266531666668,190.83876676666668,74.0,104.0
332,190.87690231666667,191.13325795833336,72.0,93.0
333,191.1311393166667,191.41291865833335,74.0,110.0
334,191.8938503166667,192.01249425,76.0,92.0
335,192.14808731666668,192.4849513416667,76.0,108.0
336,192.65656131666668,192.97012028333336,67.0,107.0
337,193.6735093166667,193.90655990000002,72.0,113.0
338,193.92774631666668,194.07181395,74.0,91.0
339,194.18198331666667,194.52096598333335,76.0,108.0
340,194.69045731666668,194.82816902500002,79.0,113.0
341,194.94469431666667,195.19469403333335,79.0,116.0
342,196.21587931666667,196.51248915000002,81.0,116.0
343,196.72435331666668,196.90655650000002,84.0,114.0
344,196.9785903166667,197.28155607500003,81.0,116.0
345,197.7413013166667,197.99553831666668,79.0,107.0
346,197.99553831666668,198.24130075000002,76.0,104.0
347,198.24977531666667,198.54214786666668,74.0,110.0
348,199.0124863166667,199.26672331666668,76.0,108.0
349,199.26672331666668,199.73282448333336,74.0,113.0
350,199.7751973166667,200.21799342500003,72.0,108.0
351,200.2836713166667,200.63112855000003,74.0,113.0
352,201.8090933166667,202.0251947666667,72.0,108.0
353,202.06333031666668,202.20104202500002,74.0,104.0
354,202.3175673166667,202.5781602416667,76.0,114.0
355,202.82604131666668,202.95527845833334,79.0,113.0
356,203.0802783166667,203.4107864166667,79.0,113.0
357,203.8429893166667,204.08027718333335,79.0,114.0
358,204.09722631666668,204.2624803666667,76.0,108.0
359,204.3514633166667,204.667140925,81.0,107.0
360,204.85993731666667,205.10146246666667,79.0,114.0
361,205.1141743166667,205.34934354166668,76.0,114.0
362,206.3853593166667,206.61629125833335,74.0,114.0
363,206.63959631666668,206.8620536916667,76.0,102.0
364,206.89383331666667,207.10146020000002,74.0,108.0
365,207.1480703166667,207.3811209,72.0,108.0
366,207.40230731666668,207.68832394166668,74.0,116.0
367,208.16501831666667,208.28366225000002,76.0,107.0
368,208.4192553166667,208.71586515,76.0,114.0
369,208.92772931666667,209.16501718333336,79.0,108.0
370,209.1819663166667,209.44044060000002,67.0,108.0
371,209.94467731666668,210.24128715,72.0,107.0
372,210.19891431666667,210.36840565000003,74.0,107.0
373,210.4531513166667,210.75399843333335,76.0,113.0
374,210.9616253166667,211.08238789166668,79.0,110.0
375,211.2158623166667,211.4828111666667,79.0,114.0
376,211.97857331666668,212.21374254166668,79.0,110.0
377,212.23281031666667,212.41077621666668,76.0,108.0
378,212.4870473166667,212.76035209166668,81.0,114.0
379,212.9955213166667,213.21374140833336,81.0,114.0
380,213.24975831666669,213.4912834666667,79.0,108.0
381,213.50399531666667,213.75399503333335,76.0,117.0
382,214.5209433166667,214.85992598333334,74.0,107.0
383,214.77518031666668,214.98280720000002,76.0,104.0
384,215.0294173166667,215.23916284166668,79.0,107.0
385,215.28365431666668,215.49339984166667,81.0,107.0
386,216.04636531666668,216.41712760833335,69.0,104.0
387,216.5548393166667,217.02729640833334,72.0,110.0
388,218.08026131666668,218.37687115000003,72.0,96.0
389,218.3344983166667,218.54424384166668,74.0,93.0
390,218.58873531666669,218.91500613333335,76.0,102.0
391,219.0972093166667,219.25822608333334,79.0,100.0
392,219.35144631666668,219.65653071666668,79.0,108.0
393,220.137462375,220.3938180166667,79.0,113.0
394,220.40441122500002,220.62474995833335,76.0,104.0
395,220.70102105833334,220.98703768333334,81.0,114.0
396,221.21796962500002,221.50398625000003,81.0,110.0
397,221.47432526666668,221.7666978166667,79.0,102.0
398,221.7857655916667,222.24762947500002,76.0,113.0
399,222.91076431666667,223.29000117500001,74.0,110.0
400,223.28364525,223.68618716666668,76.0,98.0
401,223.6734753166667,224.06330538333336,79.0,94.0
402,224.18194931666667,224.7412707166667,81.0,107.0
403,225.7073713166667,226.70525154166668,69.0,116.0
404,226.72431931666668,227.287878,72.0,116.0
