,start,end,pitch,velocity
0,1.470337316666667,2.627115666666667,60.0,77.0
1,1.2161003166666668,2.6694885000000004,55.0,73.0
2,0.9618633166666668,2.6843189916666668,48.0,90.0
3,1.7245743166666667,3.0444880750000003,67.0,86.0
4,3.504233316666667,4.622876116666667,57.0,82.0
5,3.249996316666667,4.661011666666667,52.0,76.0
6,2.9957593166666667,4.726689558333334,45.0,88.0
7,3.758470316666667,4.999994333333333,60.0,79.0
8,5.538129316666667,5.809315450000001,62.0,65.0
9,5.283892316666667,6.5402468250000005,57.0,76.0
10,5.029655316666667,6.588975583333334,50.0,80.0
11,5.7923663166666675,7.239398575000001,67.0,86.0
12,7.0635513166666675,8.716091816666667,43.0,80.0
13,7.317788316666667,8.775413783333335,50.0,77.0
14,7.572025316666667,8.775413783333335,55.0,79.0
15,7.826262316666667,8.963972891666668,67.0,75.0
16,7.826262316666667,8.985159308333333,59.0,79.0
17,9.097447316666667,10.713970908333334,40.0,92.0
18,9.351684316666667,10.777530158333334,47.0,78.0
19,9.860158316666668,11.112275541666667,59.0,87.0
20,9.605921316666668,11.118631466666667,52.0,86.0
21,9.860158316666668,11.169478866666667,64.0,91.0
22,11.131343316666667,12.777527891666669,45.0,83.0
23,11.385580316666667,12.811426158333335,52.0,77.0
24,11.639817316666667,12.900409108333335,57.0,87.0
25,11.894054316666669,13.124985125,60.0,87.0
26,11.894054316666669,13.169476600000001,69.0,85.0
27,13.673713316666667,13.9321876,62.0,84.0
28,13.419476316666668,13.974560433333334,57.0,80.0
29,13.165239316666668,14.019051908333335,50.0,86.0
30,13.927950316666667,14.194899166666668,65.0,81.0
31,14.182187316666669,14.930067825000002,43.0,88.0
32,14.436424316666669,14.955491525000001,50.0,81.0
33,14.690661316666668,15.0508304,55.0,84.0
34,14.944898316666668,15.237270866666668,59.0,80.0
35,15.961846316666668,16.230913808333334,65.0,83.0
36,15.707609316666668,16.692777691666667,60.0,83.0
37,15.199135316666668,16.783879283333334,48.0,85.0
38,15.453372316666668,16.790235208333335,55.0,74.0
39,16.21608331666667,16.976675675000003,64.0,88.0
40,20.28387531666667,20.819891658333336,60.0,78.0
41,19.775401316666667,20.8728577,55.0,66.0
42,19.266927316666667,20.885569550000003,48.0,89.0
43,20.79234931666667,21.336840225000003,64.0,80.0
44,21.30082331666667,23.065651825000003,45.0,87.0
45,21.80929731666667,23.146160208333335,52.0,65.0
46,22.31777131666667,23.16946526666667,57.0,73.0
47,24.351667316666667,24.868615883333334,60.0,81.0
48,23.843193316666667,24.925819208333337,55.0,73.0
49,23.334719316666668,24.983022533333337,48.0,86.0
50,24.86014131666667,25.523276158333335,64.0,80.0
51,25.36861531666667,27.061410008333336,43.0,86.0
52,25.87708931666667,27.11437605,50.0,66.0
53,26.38556331666667,27.120731975,55.0,79.0
54,28.419459316666668,28.868611350000002,64.0,77.0
55,27.910985316666668,28.94700109166667,59.0,66.0
56,27.40251131666667,28.949119733333337,52.0,86.0
57,30.45335531666667,31.046574983333336,57.0,72.0
58,29.94488131666667,31.148269783333337,52.0,78.0
59,29.43640731666667,31.2203036,45.0,87.0
60,30.45335531666667,31.519032075000002,60.0,69.0
61,31.47030331666667,33.13555566666667,41.0,88.0
62,31.97877731666667,33.27538601666667,48.0,74.0
63,32.48725131666667,33.47877561666667,53.0,78.0
64,32.48725131666667,33.627080533333334,65.0,73.0
65,32.48725131666667,33.63767374166667,57.0,76.0
66,33.50419931666667,35.129197475000005,43.0,84.0
67,34.01267331666667,35.17580759166667,50.0,67.0
68,34.52114731666667,35.205468575000005,59.0,84.0
69,34.52114731666667,35.218180425,67.0,83.0
70,34.52114731666667,35.54021395833334,55.0,80.0
71,36.55504331666667,37.15885619166667,60.0,78.0
72,36.04656931666667,37.23300865,55.0,76.0
73,35.53809531666667,37.29233061666667,48.0,87.0
74,36.55504331666667,37.722414875000005,67.0,78.0
75,36.55504331666667,37.811397825,64.0,81.0
76,37.57199131666667,39.22029453333334,45.0,72.0
77,38.08046531666667,39.26478600833334,52.0,75.0
78,38.58893931666667,39.29868427500001,57.0,70.0
79,38.58893931666667,39.514785725,60.0,74.0
80,38.58893931666667,39.533853500000006,69.0,80.0
81,40.622835316666674,40.96181798333334,60.0,75.0
82,40.11436131666667,41.02537723333334,55.0,74.0
83,39.60588731666667,41.07622463333334,48.0,78.0
84,40.622835316666674,41.711817133333334,67.0,85.0
85,40.622835316666674,41.7457154,64.0,86.0
86,41.63978331666667,43.277493325,43.0,81.0
87,42.65673131666667,43.595289575,59.0,84.0
88,42.14825731666667,43.6270692,50.0,67.0
89,42.65673131666667,43.63978105,55.0,72.0
90,42.65673131666667,43.70757758333334,67.0,84.0
91,44.69062731666667,45.12283021666667,64.0,76.0
92,44.18215331666667,45.16096576666667,59.0,61.0
93,43.67367931666667,45.27537241666667,52.0,86.0
94,44.69062731666667,45.612236441666674,71.0,82.0
95,44.69062731666667,45.667321125,67.0,84.0
96,45.70757531666667,45.81562604166667,69.0,84.0
97,45.70757531666667,46.18003240833334,72.0,84.0
98,45.70757531666667,46.357998308333336,64.0,85.0
99,46.72452331666667,47.256302375000004,57.0,81.0
100,46.21604931666667,47.30926841666667,52.0,67.0
101,46.72452331666667,47.34316668333334,59.0,75.0
102,45.70757531666667,47.38130223333334,45.0,75.0
103,46.72452331666667,47.451217408333335,67.0,88.0
104,47.74147131666667,48.3813011,57.0,85.0
105,47.74147131666667,48.436385783333336,65.0,89.0
106,47.74147131666667,48.45333491666667,41.0,84.0
107,48.75841931666667,49.341045775000005,43.0,86.0
108,48.75841931666667,49.47240155833334,67.0,87.0
109,48.75841931666667,49.480876125,59.0,86.0
110,49.775367316666674,50.1101127,60.0,84.0
111,49.775367316666674,50.99570491666667,67.0,88.0
112,50.792315316666674,51.43426374166667,60.0,83.0
113,49.775367316666674,51.51477212500001,48.0,83.0
114,51.04655231666667,51.565619525,65.0,85.0
115,51.55502631666667,51.79231418333334,67.0,65.0
116,50.283841316666674,51.80926331666667,55.0,64.0
117,51.80926331666667,52.81985539166667,64.0,87.0
118,51.80926331666667,52.94697389166667,48.0,84.0
119,52.82621131666667,53.457566533333335,60.0,81.0
120,52.82621131666667,53.55502405000001,67.0,81.0
121,52.82621131666667,53.56349861666667,64.0,42.0
122,53.84315931666667,54.487226383333336,67.0,84.0
123,53.84315931666667,54.57197205000001,60.0,85.0
124,53.84315931666667,54.605870316666675,64.0,88.0
125,53.84315931666667,55.421547358333335,48.0,87.0
126,54.86010731666667,55.59315733333334,67.0,88.0
127,54.86010731666667,55.60163190000001,60.0,88.0
128,54.86010731666667,55.6524793,64.0,90.0
129,55.87705531666667,56.54019015833334,69.0,90.0
130,55.87705531666667,56.559257933333335,60.0,84.0
131,55.87705531666667,56.62705446666667,64.0,87.0
132,55.87705531666667,57.43849422500001,45.0,86.0
133,56.89400331666667,57.55713815833334,60.0,85.0
134,56.89400331666667,57.63976518333334,69.0,88.0
135,55.87705531666667,57.745697266666674,57.0,86.0
136,56.89400331666667,57.76476504166667,64.0,89.0
137,57.91095131666667,58.62281491666667,69.0,90.0
138,57.91095131666667,58.66942503333334,65.0,88.0
139,57.91095131666667,58.682136883333335,62.0,86.0
140,58.927899316666675,59.60374600833334,69.0,89.0
141,58.927899316666675,59.743576358333335,65.0,91.0
142,58.927899316666675,59.87916942500001,62.0,91.0
143,57.91095131666667,59.88552535,50.0,86.0
144,59.944847316666674,60.686371900000005,67.0,88.0
145,59.944847316666674,60.75840571666667,59.0,88.0
146,59.944847316666674,60.766880283333336,62.0,85.0
147,59.944847316666674,61.66094706666667,43.0,85.0
148,60.961795316666674,61.67577755833334,59.0,91.0
149,60.961795316666674,61.68637076666667,67.0,92.0
150,59.944847316666674,61.703319900000004,55.0,84.0
151,60.961795316666674,61.81772655,62.0,96.0
152,61.97874331666667,62.59103075833334,67.0,89.0
153,61.97874331666667,62.68636963333334,59.0,87.0
154,61.97874331666667,62.71179333333334,64.0,91.0
155,62.74145431666667,63.11857253333334,52.0,80.0
156,61.97874331666667,63.49145346666667,40.0,93.0
157,62.99569131666667,63.49992803333334,64.0,102.0
158,62.99569131666667,63.68213121666667,59.0,98.0
159,63.758402316666675,63.87704625000001,64.0,38.0
160,62.99569131666667,63.902469950000004,67.0,98.0
161,63.50416531666667,64.048656225,52.0,84.0
162,64.01263931666668,64.74145205,69.0,94.0
163,64.01263931666668,64.760519825,60.0,89.0
164,64.01263931666668,64.76687575000001,64.0,98.0
165,64.77535031666667,65.23933284166667,57.0,88.0
166,64.01263931666668,65.5677223,45.0,84.0
167,64.52111331666667,65.62916290833334,52.0,75.0
168,65.02958731666668,65.73509499166667,60.0,91.0
169,65.02958731666668,65.74780684166667,69.0,94.0
170,65.02958731666668,65.93424730833334,64.0,104.0
171,65.53806131666667,65.9745015,57.0,86.0
172,66.04653531666668,66.75416163333334,69.0,88.0
173,66.04653531666668,66.77534805,65.0,93.0
174,66.04653531666668,66.78382261666667,62.0,89.0
175,66.04653531666668,67.31348303333334,50.0,87.0
176,66.80924631666667,67.33466945,57.0,79.0
177,67.57195731666667,67.66729619166668,52.0,83.0
178,67.57195731666667,67.69060125,50.0,80.0
179,67.06348331666668,67.75204185833334,65.0,100.0
180,67.06348331666668,67.75416050000001,69.0,94.0
181,67.06348331666668,67.93000775833335,62.0,96.0
182,68.08043131666668,68.57619346666667,67.0,90.0
183,68.08043131666668,68.63127815,59.0,85.0
184,68.08043131666668,68.65458320833334,62.0,94.0
185,68.58890531666667,69.04017599166667,55.0,102.0
186,68.84314231666667,69.43636198333334,59.0,98.0
187,68.84314231666667,69.43636198333334,67.0,107.0
188,68.08043131666668,69.69695490833334,43.0,91.0
189,68.33466831666668,69.76051415833334,50.0,85.0
190,69.60585331666667,69.90458179166667,67.0,94.0
191,69.60585331666667,69.91305635833334,59.0,102.0
192,69.35161631666668,69.97025968333334,55.0,96.0
193,69.86009031666667,70.04653078333334,62.0,87.0
194,70.11432731666667,70.45966590833333,60.0,98.0
195,70.11432731666667,70.658818225,64.0,100.0
196,70.11432731666667,70.72025883333333,67.0,98.0
197,70.87703831666667,71.26051245833334,60.0,96.0
198,70.11432731666667,71.36856318333334,48.0,91.0
199,70.62280131666667,71.38127503333334,55.0,77.0
200,71.13127531666667,71.80076608333334,64.0,107.0
201,71.13127531666667,71.80500336666667,72.0,104.0
202,71.13127531666667,72.05500308333335,67.0,113.0
203,71.63974931666667,72.11008776666667,47.0,88.0
204,72.14822331666667,72.20118935833334,72.0,84.0
205,72.14822331666667,72.62703633333334,69.0,110.0
206,72.14822331666667,72.83678185833334,64.0,91.0
207,72.91093431666667,73.39610325833334,69.0,90.0
208,72.91093431666667,73.44271337500001,60.0,102.0
209,72.91093431666667,73.44271337500001,64.0,100.0
210,73.41940831666668,73.81347566666668,57.0,88.0
211,72.65669731666668,73.86644170833334,52.0,83.0
212,72.14822331666667,73.93423824166668,45.0,86.0
213,73.67364531666668,74.01898390833334,69.0,94.0
214,73.67364531666668,74.02533983333333,60.0,92.0
215,73.67364531666668,74.06983130833333,64.0,102.0
216,74.18211931666667,74.38127163333334,62.0,91.0
217,74.18211931666667,74.66093233333334,65.0,94.0
218,74.18211931666667,74.74779664166667,69.0,91.0
219,74.94483031666667,75.33466038333334,62.0,86.0
220,74.18211931666667,75.42364333333335,50.0,88.0
221,74.69059331666668,75.46813480833335,57.0,69.0
222,75.19906731666667,75.80288019166667,74.0,107.0
223,75.19906731666667,75.82194796666667,65.0,104.0
224,75.70754131666668,75.87067672500001,50.0,82.0
225,75.19906731666667,76.137625575,69.0,108.0
226,76.21601531666667,76.43635405,67.0,94.0
227,76.21601531666667,76.557116625,71.0,91.0
228,76.21601531666667,76.86431966666667,62.0,88.0
229,76.72448931666668,77.1355058,55.0,85.0
230,76.97872631666668,77.36008181666668,59.0,94.0
231,76.97872631666668,77.45965797500001,67.0,102.0
232,76.97872631666668,77.57194598333334,62.0,104.0
233,77.48720031666667,77.75838645,55.0,91.0
234,76.47025231666667,77.83042026666668,50.0,78.0
235,76.21601531666667,77.85372532500001,43.0,88.0
236,77.74143731666668,78.04228443333334,59.0,94.0
237,77.99567431666668,78.17999614166668,62.0,88.0
238,78.24991131666667,78.97660540833334,57.0,86.0
239,78.24991131666667,78.98296133333334,65.0,91.0
240,78.24991131666667,78.99143590000001,40.0,88.0
241,78.24991131666667,79.02957145,60.0,89.0
242,79.01262231666668,79.442706575,53.0,81.0
243,79.26685931666667,79.75202825833334,57.0,91.0
244,79.26685931666667,79.75202825833334,65.0,92.0
245,78.24991131666667,79.87067219166667,41.0,87.0
246,79.26685931666667,80.08041771666667,60.0,93.0
247,79.77533331666667,80.15668881666667,53.0,83.0
248,80.28380731666667,81.018975975,59.0,87.0
249,80.28380731666667,81.031687825,67.0,89.0
250,80.28380731666667,81.03804375,62.0,90.0
251,81.04651831666668,81.44694159166667,55.0,81.0
252,80.28380731666667,81.87702585000001,43.0,87.0
253,81.30075531666667,82.05287310833334,59.0,88.0
254,81.30075531666667,82.05711039166667,67.0,88.0
255,81.30075531666667,82.20329666666667,62.0,93.0
256,81.80922931666667,82.30287282500001,55.0,79.0
257,82.31770331666668,82.61431315,60.0,88.0
258,82.31770331666668,82.87914335833334,67.0,90.0
259,82.31770331666668,82.88973656666667,64.0,94.0
260,82.82617731666667,83.205414175,60.0,84.0
261,83.08041431666668,83.62066794166667,65.0,113.0
262,83.58888831666667,83.98507430833334,60.0,84.0
263,82.57194031666667,84.08041318333333,55.0,73.0
264,83.84312531666667,84.09736231666668,64.0,91.0
265,82.31770331666668,84.146091075,48.0,87.0
266,84.09736231666668,84.18634526666668,67.0,70.0
267,84.35159931666668,84.54651435000001,60.0,86.0
268,84.35159931666668,84.66727692500001,67.0,88.0
269,84.35159931666668,84.67151420833333,64.0,89.0
270,84.86007331666667,85.19058141666667,60.0,89.0
271,85.11431031666667,85.61854703333334,72.0,96.0
272,85.11431031666667,85.64820801666667,64.0,98.0
273,85.11431031666667,85.66727579166667,67.0,108.0
274,85.36854731666668,85.87702131666667,60.0,86.0
275,84.60583631666667,86.05074993333334,55.0,80.0
276,84.35159931666668,86.052868575,48.0,86.0
277,85.87702131666667,86.12278375000001,64.0,87.0
278,85.87702131666667,86.13761424166667,72.0,87.0
279,85.87702131666667,86.25837681666667,67.0,91.0
280,86.38549531666668,87.00837596666668,72.0,89.0
281,86.38549531666668,87.133375825,64.0,98.0
282,86.38549531666668,87.13549446666667,67.0,104.0
283,87.14820631666667,87.552866875,60.0,98.0
284,86.89396931666667,87.629137975,55.0,73.0
285,86.38549531666668,87.63549390000001,48.0,92.0
286,87.40244331666668,88.11218827500001,72.0,93.0
287,87.40244331666668,88.12701876666668,64.0,100.0
288,87.40244331666668,88.26896775833335,67.0,113.0
289,87.91091731666667,88.40667946666667,47.0,88.0
290,88.41939131666668,89.02956011666667,64.0,91.0
291,88.41939131666668,89.040153325,72.0,92.0
292,88.41939131666668,89.04650925000001,69.0,100.0
293,89.18210231666667,89.75625420833335,72.0,91.0
294,89.18210231666667,89.76261013333334,69.0,108.0
295,89.18210231666667,89.76684741666668,64.0,91.0
296,88.41939131666668,90.07193181666668,45.0,93.0
297,88.92786531666667,90.10583008333334,52.0,83.0
298,89.94481331666667,90.26049092500001,64.0,96.0
299,89.94481331666667,90.26684685000001,72.0,88.0
300,89.94481331666667,90.34099930833334,69.0,104.0
301,89.69057631666668,90.39608399166667,57.0,85.0
302,90.96176131666668,91.41726927500001,62.0,89.0
303,91.21599831666667,91.82616711666668,74.0,98.0
304,91.21599831666667,91.8304044,69.0,110.0
305,91.21599831666667,91.83676032500001,65.0,102.0
306,91.72447231666668,91.92150599166668,62.0,87.0
307,90.70752431666668,92.027438075,57.0,74.0
308,90.45328731666667,92.09735325000001,50.0,93.0
309,91.97870931666668,92.21599718333334,74.0,96.0
310,91.97870931666668,92.22235310833334,65.0,96.0
311,91.97870931666668,92.38548851666667,69.0,93.0
312,92.48718331666667,92.70116612500001,67.0,96.0
313,92.48718331666667,92.82192870000002,71.0,93.0
314,92.48718331666667,93.05497928333334,62.0,104.0
315,92.99565731666668,93.438453425,55.0,85.0
316,93.24989431666667,93.807097075,67.0,91.0
317,93.24989431666667,93.83463941666668,59.0,100.0
318,93.24989431666667,93.84311398333334,62.0,108.0
319,93.75836831666668,94.02955445,55.0,86.0
320,92.48718331666667,94.0931137,43.0,87.0
321,92.74142031666668,94.10158826666668,50.0,81.0
322,94.01260531666668,94.290147375,67.0,91.0
323,94.01260531666668,94.33463885,59.0,96.0
324,94.26684231666667,94.4236218,62.0,88.0
325,94.52107931666667,95.23294291666667,67.0,100.0
326,94.52107931666667,95.24565476666668,59.0,104.0
327,94.52107931666667,95.25201069166667,64.0,110.0
328,95.28379031666668,95.61006113333335,52.0,91.0
329,94.52107931666667,96.03802675000001,40.0,96.0
330,95.02955331666668,96.11641649166667,47.0,75.0
331,95.53802731666667,96.23717906666667,59.0,107.0
332,95.53802731666667,96.44056866666668,64.0,108.0
333,95.53802731666667,96.47870421666667,67.0,100.0
334,96.04650131666668,96.57192445000001,52.0,82.0
335,96.55497531666667,97.35794050833334,69.0,98.0
336,96.55497531666667,97.36429643333334,60.0,96.0
337,96.55497531666667,97.37700828333334,64.0,108.0
338,97.31768631666668,97.69692317500001,57.0,89.0
339,96.55497531666667,98.129126075,45.0,84.0
340,97.06344931666668,98.16302434166667,52.0,74.0
341,97.57192331666667,98.27107506666667,60.0,96.0
342,97.57192331666667,98.31768518333334,69.0,94.0
343,97.57192331666667,98.49565108333334,64.0,104.0
344,98.08039731666668,98.51683750000001,57.0,85.0
345,98.58887131666667,99.33887046666668,69.0,92.0
346,98.58887131666667,99.35793824166667,62.0,90.0
347,98.58887131666667,99.35793824166667,65.0,102.0
348,98.58887131666667,99.794378425,50.0,89.0
349,99.35158231666668,99.84098854166668,57.0,86.0
350,99.60581931666667,100.30285242500001,69.0,100.0
351,99.60581931666667,100.41090315000001,65.0,108.0
352,100.11429331666668,100.47234375833334,50.0,81.0
353,99.60581931666667,100.493530175,62.0,96.0
354,100.62276731666668,101.16302094166667,59.0,93.0
355,100.62276731666668,101.16302094166667,67.0,93.0
356,100.62276731666668,101.21174970000001,62.0,107.0
357,101.13124131666667,101.47234262500001,55.0,89.0
358,101.38547831666668,101.82403714166668,59.0,100.0
359,101.38547831666668,101.90242688333335,67.0,104.0
360,101.38547831666668,101.949037,62.0,113.0
361,101.89395231666667,102.18632486666668,55.0,88.0
362,102.14818931666667,102.40878224166667,59.0,100.0
363,100.62276731666668,102.43844322500001,43.0,91.0
364,102.14818931666667,102.44268050833334,67.0,98.0
365,100.87700431666667,102.49352790833335,50.0,83.0
366,102.14818931666667,102.53590074166668,62.0,113.0
367,102.40242631666668,102.56344308333334,55.0,86.0
368,102.65666331666668,103.19267965833335,40.0,88.0
369,102.65666331666668,103.40666246666667,72.0,91.0
370,102.65666331666668,103.45327258333334,64.0,92.0
371,102.65666331666668,103.45962850833334,67.0,98.0
372,103.41937431666668,103.82827215833335,60.0,86.0
373,102.65666331666668,103.89183140833335,48.0,91.0
374,103.16513731666667,103.93420424166668,55.0,68.0
375,103.67361131666668,104.33462751666667,72.0,89.0
376,103.67361131666668,104.33674615833334,64.0,100.0
377,103.67361131666668,104.59945772500001,67.0,107.0
378,104.18208531666667,104.69903388333334,47.0,84.0
379,104.69055931666668,105.42572797500002,72.0,91.0
380,104.69055931666668,105.44479575000001,69.0,107.0
381,104.69055931666668,105.45962624166667,64.0,92.0
382,105.45327031666667,105.82403260833334,57.0,87.0
383,104.69055931666668,106.239286375,45.0,94.0
384,105.19903331666667,106.26259143333334,52.0,63.0
385,105.70750731666668,106.29648970000001,72.0,88.0
386,105.70750731666668,106.32191340000001,64.0,98.0
387,105.70750731666668,106.37487944166668,69.0,104.0
388,106.21598131666667,106.67784520000001,57.0,79.0
389,106.72445531666668,107.47869175000001,62.0,94.0
390,106.72445531666668,107.485047675,65.0,102.0
391,106.72445531666668,107.49140360000001,69.0,94.0
392,106.72445531666668,107.95326748333335,50.0,88.0
393,107.48716631666667,107.95962340833334,57.0,88.0
394,107.74140331666668,108.50623295833334,69.0,100.0
395,107.74140331666668,108.54436850833335,62.0,98.0
396,108.24987731666667,108.60157183333334,50.0,88.0
397,107.74140331666668,108.64606330833334,65.0,108.0
398,108.75835131666668,109.51682503333335,71.0,96.0
399,108.75835131666668,109.531655525,62.0,91.0
400,108.75835131666668,109.53377416666667,67.0,104.0
401,109.52106231666667,109.99140076666667,55.0,90.0
402,108.75835131666668,110.01046854166668,43.0,87.0
403,109.26682531666668,110.05284137500001,50.0,66.0
404,109.77529931666668,110.51046797500001,71.0,98.0
405,109.77529931666668,110.55284080833334,62.0,104.0
406,109.77529931666668,110.63123055000001,67.0,107.0
407,110.28377331666668,110.69267115833334,43.0,85.0
408,110.79224731666667,111.48716178333335,71.0,96.0
409,110.79224731666667,111.54012782500001,64.0,98.0
410,110.79224731666667,111.54012782500001,67.0,102.0
411,111.55495831666667,111.95538159166668,52.0,89.0
412,111.80919531666667,112.38122856666668,64.0,100.0
413,110.79224731666667,112.49139793333335,40.0,96.0
414,111.80919531666667,112.61851643333334,71.0,102.0
415,111.30072131666668,112.64182149166668,47.0,63.0
416,111.80919531666667,112.67571975833334,67.0,107.0
417,112.31766931666668,112.77741455833335,52.0,84.0
418,112.82614331666667,113.42995619166668,69.0,91.0
419,112.82614331666667,113.42995619166668,69.0,98.0
420,112.82614331666667,113.459617175,64.0,98.0
421,112.82614331666667,113.459617175,64.0,107.0
422,112.82614331666667,113.46173581666667,60.0,94.0
423,112.82614331666667,113.46173581666667,60.0,96.0
424,112.82614331666667,114.03165042500001,45.0,91.0
425,112.82614331666667,114.03165042500001,45.0,91.0
426,113.58885431666668,114.0507182,57.0,81.0
427,113.33461731666668,114.08673510833334,52.0,64.0
428,113.33461731666668,114.08673510833334,52.0,70.0
429,113.84309131666667,114.25834508333334,60.0,100.0
430,113.84309131666667,114.25834508333334,60.0,102.0
431,113.84309131666667,114.2795315,69.0,102.0
432,113.84309131666667,114.2795315,69.0,104.0
433,113.84309131666667,114.31342976666667,64.0,110.0
434,113.84309131666667,114.31342976666667,64.0,114.0
435,114.86003931666667,115.58037748333334,69.0,93.0
436,114.86003931666667,115.61639439166667,60.0,94.0
437,114.86003931666667,115.62063167500001,41.0,91.0
438,114.86003931666667,115.67995364166667,53.0,91.0
439,114.86003931666667,115.72444511666667,65.0,107.0
440,115.87698731666667,116.5676645,43.0,86.0
441,115.87698731666667,116.65029152500001,59.0,87.0
442,115.87698731666667,116.65664745000001,67.0,87.0
443,115.87698731666667,116.81978285833334,62.0,90.0
444,115.87698731666667,116.85791840833335,55.0,86.0
445,116.89393531666667,117.66300224166667,67.0,84.0
446,116.89393531666667,117.67783273333335,64.0,83.0
447,116.89393531666667,117.69478186666667,60.0,83.0
448,117.65664631666668,118.03376453333334,55.0,78.0
449,116.89393531666667,118.47656064166668,48.0,78.0
450,117.91088331666667,118.47656064166668,60.0,83.0
451,117.91088331666667,118.47867928333335,67.0,86.0
452,117.91088331666667,118.51045890833335,64.0,86.0
453,118.41935731666668,118.98715328333334,55.0,66.0
454,118.92783131666668,120.58037181666668,41.0,91.0
455,120.70749031666668,120.96172731666668,41.0,97.0
456,118.92783131666668,122.76892865833334,69.0,88.0
457,118.92783131666668,122.78587779166668,60.0,88.0
458,118.92783131666668,122.86214889166668,65.0,91.0
459,120.96172731666668,122.86850481666667,41.0,97.0
460,118.92783131666668,122.96384369166668,53.0,89.0
461,122.99562331666668,124.77528231666668,48.0,88.0
462,124.77528231666668,124.90240081666667,48.0,97.0
463,122.99562331666668,126.85790707500001,60.0,84.0
464,122.99562331666668,126.92782225,67.0,83.0
465,122.99562331666668,126.97655100833335,64.0,89.0
466,125.02951931666668,127.06341531666668,48.0,97.0
467,127.06341531666668,128.84307431666667,41.0,88.0
468,128.84307431666667,128.97019281666667,41.0,97.0
469,127.06341531666668,130.773156875,53.0,88.0
470,127.06341531666668,130.85790254166668,60.0,88.0
471,127.06341531666668,130.98078375833333,69.0,91.0
472,127.06341531666668,131.05069893333334,65.0,94.0
473,129.0973113166667,131.25832581666668,41.0,97.0
474,131.1312073166667,132.91086631666667,43.0,83.0
475,132.91086631666667,133.03798481666666,43.0,97.0
476,133.1651033166667,133.29222181666668,43.0,97.0
477,133.50408598333334,133.63120448333333,43.0,97.0
478,133.92781431666668,134.05493281666668,43.0,97.0
479,134.18205131666667,134.30916981666667,43.0,97.0
480,131.1312073166667,134.30916981666667,55.0,86.0
481,131.1312073166667,134.4362883166667,62.0,88.0
482,131.1312073166667,134.44476288333334,67.0,87.0
483,131.1312073166667,134.45747473333336,71.0,91.0
484,134.4362883166667,134.56340681666669,43.0,97.0
485,134.69052531666668,134.9235759,55.0,86.0
486,134.69052531666668,135.0718808166667,43.0,97.0
487,136.21594731666667,136.8197601916667,60.0,78.0
488,135.70747331666666,136.89391265,55.0,76.0
489,135.1989993166667,136.9532346166667,48.0,87.0
490,136.21594731666667,137.38331887500001,67.0,78.0
491,136.21594731666667,137.47230182500002,64.0,81.0
492,137.23289531666668,138.88119853333333,45.0,72.0
493,137.7413693166667,138.92569000833333,52.0,75.0
494,138.24984331666667,138.95958827500002,57.0,70.0
495,138.24984331666667,139.175689725,60.0,74.0
496,138.24984331666667,139.1947575,69.0,80.0
497,140.28373931666667,140.62272198333335,60.0,75.0
498,139.7752653166667,140.68628123333335,55.0,74.0
499,139.26679131666668,140.73712863333336,48.0,78.0
500,140.28373931666667,141.37272113333336,67.0,85.0
501,140.28373931666667,141.4066194,64.0,86.0
502,141.30068731666668,142.938397325,43.0,81.0
503,142.31763531666667,143.25619357500003,59.0,84.0
504,141.8091613166667,143.2879732,50.0,67.0
505,142.31763531666667,143.30068505,55.0,72.0
506,142.31763531666667,143.36848158333333,67.0,84.0
507,144.35153131666667,144.7837342166667,64.0,76.0
508,143.8430573166667,144.82186976666668,59.0,61.0
509,143.33458331666668,144.9362764166667,52.0,86.0
510,144.35153131666667,145.27314044166667,71.0,82.0
511,144.35153131666667,145.32822512500002,67.0,84.0
512,145.36847931666668,145.47653004166668,69.0,84.0
513,145.36847931666668,145.84093640833333,72.0,84.0
514,145.36847931666668,146.01890230833334,64.0,85.0
515,146.3854273166667,146.917206375,57.0,81.0
516,145.8769533166667,146.97017241666668,52.0,67.0
517,146.3854273166667,147.00407068333334,59.0,75.0
518,145.36847931666668,147.04220623333336,45.0,75.0
519,146.3854273166667,147.11212140833334,67.0,88.0
520,147.40237531666668,148.04220510000002,57.0,85.0
521,147.40237531666668,148.09728978333334,65.0,89.0
522,147.40237531666668,148.1142389166667,41.0,84.0
523,148.4193233166667,149.001949775,43.0,86.0
524,148.4193233166667,149.13330555833335,67.0,87.0
525,148.4193233166667,149.14178012500003,59.0,86.0
526,149.43627131666668,149.77101670000002,60.0,84.0
527,149.43627131666668,150.65660891666667,67.0,88.0
528,150.4532193166667,151.09516774166667,60.0,83.0
529,149.43627131666668,151.17567612500002,48.0,83.0
530,150.70745631666668,151.226523525,65.0,85.0
531,151.2159303166667,151.45321818333335,67.0,65.0
532,149.94474531666668,151.47016731666668,55.0,64.0
533,151.47016731666668,152.48075939166668,64.0,87.0
534,151.47016731666668,152.60787789166667,48.0,84.0
535,152.4871153166667,153.11847053333335,60.0,81.0
536,152.4871153166667,153.21592805,67.0,81.0
537,152.4871153166667,153.22440261666668,64.0,42.0
538,153.50406331666667,154.14813038333335,67.0,84.0
539,153.50406331666667,154.23287605000002,60.0,85.0
540,153.50406331666667,154.26677431666667,64.0,88.0
541,153.50406331666667,155.08245135833334,48.0,87.0
542,154.5210113166667,155.25406133333334,67.0,88.0
543,154.5210113166667,155.26253590000002,60.0,88.0
544,154.5210113166667,155.31338330000003,64.0,90.0
545,155.28372231666668,155.41084081666668,48.0,97.0
546,155.53795931666667,156.20109415833335,69.0,90.0
547,155.53795931666667,156.22016193333334,60.0,84.0
548,155.53795931666667,156.28795846666668,64.0,87.0
549,155.53795931666667,157.09939822500002,45.0,86.0
550,156.5549073166667,157.21804215833333,60.0,85.0
551,156.5549073166667,157.30066918333335,69.0,88.0
552,155.53795931666667,157.40660126666668,57.0,86.0
553,156.5549073166667,157.42566904166668,64.0,89.0
554,157.57185531666667,158.2837189166667,69.0,90.0
555,157.57185531666667,158.33032903333336,65.0,88.0
556,157.57185531666667,158.34304088333334,62.0,86.0
557,157.57185531666667,159.22439581666669,50.0,86.0
558,158.58880331666668,159.26465000833335,69.0,89.0
559,158.58880331666668,159.40448035833336,65.0,91.0
560,159.35151431666668,159.47863281666667,50.0,97.0
561,158.58880331666668,159.540073425,62.0,91.0
562,159.60575131666667,160.34727590000003,67.0,88.0
563,159.60575131666667,160.41930971666667,59.0,88.0
564,159.60575131666667,160.42778428333335,62.0,85.0
565,159.60575131666667,161.32185106666668,43.0,85.0
566,160.62269931666668,161.33668155833334,59.0,91.0
567,160.62269931666668,161.3472747666667,67.0,92.0
568,159.60575131666667,161.3642239,55.0,84.0
569,160.62269931666668,161.47863055000002,62.0,96.0
570,161.63964731666667,162.25193475833333,67.0,89.0
571,161.63964731666667,162.34727363333334,59.0,87.0
572,161.63964731666667,162.37269733333335,64.0,91.0
573,162.4023583166667,162.77947653333334,52.0,80.0
574,161.63964731666667,163.15235746666667,40.0,93.0
575,162.65659531666668,163.16083203333335,64.0,102.0
576,162.65659531666668,163.3430352166667,59.0,98.0
577,163.41930631666668,163.53795025000002,64.0,38.0
578,163.41930631666668,163.54642481666667,40.0,97.0
579,162.65659531666668,163.56337395000003,67.0,98.0
580,163.1650693166667,163.70956022500002,52.0,84.0
581,163.67354331666667,164.40235605,69.0,94.0
582,163.67354331666667,164.421423825,60.0,89.0
583,163.67354331666667,164.42777975,64.0,98.0
584,164.4362543166667,164.90023684166667,57.0,88.0
585,163.67354331666667,165.1989653166667,45.0,84.0
586,164.18201731666667,165.29006690833336,52.0,75.0
587,164.69049131666668,165.3959989916667,60.0,91.0
588,164.69049131666668,165.40871084166668,69.0,94.0
589,164.69049131666668,165.59515130833336,64.0,104.0
590,165.1989653166667,165.63540550000002,57.0,86.0
591,165.1989653166667,165.7074393166667,45.0,97.0
592,165.7074393166667,166.41506563333334,69.0,88.0
593,165.7074393166667,166.43625205,65.0,93.0
594,165.7074393166667,166.44472661666669,62.0,89.0
595,165.7074393166667,166.97438703333336,50.0,87.0
596,166.4701503166667,166.99557345000002,57.0,79.0
597,167.23286131666669,167.35150525,50.0,80.0
598,166.72438731666668,167.41294585833336,65.0,100.0
599,166.72438731666668,167.41506450000003,69.0,94.0
600,166.72438731666668,167.59091175833333,62.0,96.0
601,167.7413353166667,168.23709746666668,67.0,90.0
602,167.7413353166667,168.29218215,59.0,85.0
603,167.7413353166667,168.31548720833334,62.0,94.0
604,168.24980931666667,168.7010799916667,55.0,102.0
605,168.5040463166667,169.09726598333336,59.0,98.0
606,168.5040463166667,169.09726598333336,67.0,107.0
607,167.7413353166667,169.35785890833336,43.0,91.0
608,167.99557231666668,169.42141815833335,50.0,85.0
609,169.26675731666668,169.56548579166667,67.0,94.0
610,169.26675731666668,169.57396035833335,59.0,102.0
611,169.0125203166667,169.63116368333334,55.0,96.0
612,169.52099431666667,169.70743478333335,62.0,87.0
613,169.7752313166667,170.12056990833335,60.0,98.0
614,169.7752313166667,170.31972222500002,64.0,100.0
615,169.7752313166667,170.38116283333335,67.0,98.0
616,170.5379423166667,170.92141645833334,60.0,96.0
617,169.7752313166667,171.02946718333334,48.0,91.0
618,170.28370531666667,171.04217903333335,55.0,77.0
619,170.79217931666668,171.46167008333336,64.0,107.0
620,170.79217931666668,171.46590736666667,72.0,104.0
621,170.79217931666668,171.71590708333335,67.0,113.0
622,171.30065331666668,171.77099176666667,47.0,88.0
623,171.8091273166667,171.86209335833334,72.0,84.0
624,171.8091273166667,172.28794033333335,69.0,110.0
625,171.8091273166667,172.49768585833334,64.0,91.0
626,172.57183831666669,173.05700725833336,69.0,90.0
627,172.57183831666669,173.10361737500003,60.0,102.0
628,172.57183831666669,173.10361737500003,64.0,100.0
629,173.0803123166667,173.4743796666667,57.0,88.0
630,172.31760131666667,173.52734570833334,52.0,83.0
631,171.8091273166667,173.59514224166668,45.0,86.0
632,173.33454931666668,173.67988790833334,69.0,94.0
633,173.33454931666668,173.68624383333335,60.0,92.0
634,173.33454931666668,173.73073530833335,64.0,102.0
635,173.8430233166667,174.04217563333336,62.0,91.0
636,173.8430233166667,174.32183633333335,65.0,94.0
637,173.8430233166667,174.40870064166668,69.0,91.0
638,174.60573431666668,174.99556438333335,62.0,86.0
639,173.8430233166667,175.08454733333335,50.0,88.0
640,174.3514973166667,175.12903880833335,57.0,69.0
641,174.85997131666667,175.4637841916667,74.0,107.0
642,174.85997131666667,175.4828519666667,65.0,104.0
643,175.36844531666668,175.53158072500003,50.0,82.0
644,174.85997131666667,175.798529575,69.0,108.0
645,175.8769193166667,176.09725805000002,67.0,94.0
646,175.8769193166667,176.218020625,71.0,91.0
647,175.8769193166667,176.52522366666668,62.0,88.0
648,176.3853933166667,176.79640980000002,55.0,85.0
649,176.63963031666668,177.0209858166667,59.0,94.0
650,176.63963031666668,177.12056197500002,67.0,102.0
651,176.63963031666668,177.23284998333335,62.0,104.0
652,177.1481043166667,177.41929045,55.0,91.0
653,176.13115631666668,177.49132426666668,50.0,78.0
654,175.8769193166667,177.51462932500002,43.0,88.0
655,177.40234131666668,177.70318843333334,59.0,94.0
656,177.6565783166667,177.84090014166668,62.0,88.0
657,177.91081531666669,178.63750940833336,57.0,86.0
658,177.91081531666669,178.64386533333334,65.0,91.0
659,177.91081531666669,178.69047545,60.0,89.0
660,178.67352631666668,179.103610575,53.0,81.0
661,178.92776331666667,179.41293225833334,57.0,91.0
662,178.92776331666667,179.41293225833334,65.0,92.0
663,177.91081531666669,179.43623731666668,41.0,87.0
664,178.92776331666667,179.74132171666668,60.0,93.0
665,179.43623731666668,179.8175928166667,41.0,97.0
666,179.43623731666668,179.8175928166667,53.0,83.0
667,179.94471131666668,180.679879975,59.0,87.0
668,179.94471131666668,180.69259182500002,67.0,89.0
669,179.94471131666668,180.69894775,62.0,90.0
670,180.70742231666668,181.1078455916667,55.0,81.0
671,179.94471131666668,181.47013331666668,43.0,87.0
672,180.96165931666667,181.71377710833335,59.0,88.0
673,180.96165931666667,181.71801439166669,67.0,88.0
674,180.96165931666667,181.86420066666668,62.0,93.0
675,181.47013331666668,181.96377682500002,55.0,79.0
676,181.47013331666668,181.97860731666668,43.0,97.0
677,181.97860731666668,182.27521715,60.0,88.0
678,181.97860731666668,182.54004735833334,67.0,90.0
679,181.97860731666668,182.5506405666667,64.0,94.0
680,182.4870813166667,182.866318175,60.0,84.0
681,182.74131831666668,183.28157194166667,65.0,113.0
682,181.97860731666668,183.63114781666667,48.0,87.0
683,183.24979231666669,183.64597830833335,60.0,84.0
684,182.23284431666667,183.74131718333334,55.0,73.0
685,183.50402931666667,183.7582663166667,64.0,91.0
686,183.7582663166667,183.8472492666667,67.0,70.0
687,183.7582663166667,184.01250331666668,48.0,97.0
688,184.01250331666668,184.20741835,60.0,86.0
689,184.01250331666668,184.32818092500003,67.0,88.0
690,184.01250331666668,184.33241820833334,64.0,89.0
691,184.01250331666668,184.64809581666668,48.0,86.0
692,184.5209773166667,184.8514854166667,60.0,89.0
693,184.77521431666668,184.90233281666667,48.0,97.0
694,184.77521431666668,185.27945103333334,72.0,96.0
695,185.0294513166667,185.28368831666668,48.0,97.0
696,184.77521431666668,185.3091120166667,64.0,98.0
697,184.77521431666668,185.32817979166668,67.0,108.0
698,185.0294513166667,185.53792531666667,60.0,86.0
699,184.26674031666667,185.71165393333334,55.0,80.0
700,185.53792531666667,185.78368775,64.0,87.0
701,185.53792531666667,185.7921623166667,48.0,97.0
702,185.53792531666667,185.79851824166667,72.0,87.0
703,185.53792531666667,185.91928081666669,67.0,91.0
704,186.04639931666668,186.6692799666667,72.0,89.0
705,186.04639931666668,186.79427982500002,64.0,98.0
706,186.04639931666668,186.7963984666667,67.0,104.0
707,186.04639931666668,187.57182131666667,48.0,92.0
708,188.08029531666668,188.69046411666667,64.0,91.0
709,188.08029531666668,188.70105732500002,72.0,92.0
710,188.08029531666668,188.70741325000003,69.0,100.0
711,188.84300631666667,189.41715820833335,72.0,91.0
712,188.84300631666667,189.42351413333336,69.0,108.0
713,188.84300631666667,189.4277514166667,64.0,91.0
714,188.84300631666667,189.54851399166668,57.0,85.0
715,189.60571731666667,189.72436125000002,64.0,80.0
716,188.08029531666668,189.7328358166667,45.0,93.0
717,188.58876931666668,189.76673408333335,52.0,83.0
718,189.7328358166667,189.88114073333335,67.0,76.0
719,189.8599543166667,190.02732700833334,69.0,88.0
720,189.98707281666668,190.15656415,72.0,110.0
721,190.11419131666668,190.44046213333334,74.0,127.0
722,190.62266531666668,191.078173275,62.0,89.0
723,190.87690231666667,191.48707111666667,74.0,98.0
724,190.87690231666667,191.4913084,69.0,110.0
725,190.87690231666667,191.49766432500002,65.0,102.0
726,191.38537631666668,191.58240999166668,62.0,87.0
727,190.3684283166667,191.688342075,57.0,74.0
728,190.11419131666668,191.75825725,50.0,93.0
729,191.6396133166667,191.87690118333336,74.0,96.0
730,191.6396133166667,191.88325710833334,65.0,96.0
731,191.6396133166667,192.04639251666669,69.0,93.0
732,192.14808731666668,192.362070125,67.0,96.0
733,192.14808731666668,192.48283270000002,71.0,93.0
734,192.14808731666668,192.71588328333334,62.0,104.0
735,192.65656131666668,193.09935742500002,55.0,85.0
736,192.91079831666667,193.46800107500002,67.0,91.0
737,192.91079831666667,193.4955434166667,59.0,100.0
738,192.91079831666667,193.50401798333334,62.0,108.0
739,193.41927231666668,193.69045845000002,55.0,86.0
740,192.14808731666668,193.75401770000002,43.0,87.0
741,192.4023243166667,193.7624922666667,50.0,81.0
742,193.6735093166667,193.95105137500002,67.0,91.0
743,193.6735093166667,193.99554285000002,59.0,96.0
744,193.92774631666668,194.08452580000002,62.0,88.0
745,194.18198331666667,194.8938469166667,67.0,100.0
746,194.18198331666667,194.90655876666668,59.0,104.0
747,194.18198331666667,194.91291469166669,64.0,110.0
748,194.94469431666667,195.27096513333336,52.0,91.0
749,194.18198331666667,195.69893075000002,40.0,96.0
750,194.69045731666668,195.77732049166667,47.0,75.0
751,195.1989313166667,195.8980830666667,59.0,107.0
752,195.1989313166667,196.1014726666667,64.0,108.0
753,195.1989313166667,196.1396082166667,67.0,100.0
754,195.7074053166667,196.23282845000003,52.0,82.0
755,196.21587931666667,197.01884450833336,69.0,98.0
756,196.21587931666667,197.02520043333334,60.0,96.0
757,196.21587931666667,197.03791228333336,64.0,108.0
758,196.9785903166667,197.357827175,57.0,89.0
759,196.21587931666667,197.790030075,45.0,84.0
760,196.72435331666668,197.8239283416667,52.0,74.0
761,197.2328273166667,197.93197906666668,60.0,96.0
762,197.2328273166667,197.97858918333336,69.0,94.0
763,197.2328273166667,198.15655508333336,64.0,104.0
764,197.7413013166667,198.17774150000002,57.0,85.0
765,198.24977531666667,198.99977446666668,69.0,92.0
766,198.24977531666667,199.01884224166668,62.0,90.0
767,198.24977531666667,199.01884224166668,65.0,102.0
768,198.24977531666667,199.455282425,50.0,89.0
769,199.0124863166667,199.50189254166668,57.0,86.0
770,199.26672331666668,199.963756425,69.0,100.0
771,199.26672331666668,200.07180715,65.0,108.0
772,199.7751973166667,200.13324775833334,50.0,81.0
773,199.26672331666668,200.154434175,62.0,96.0
774,200.2836713166667,200.8239249416667,59.0,93.0
775,200.2836713166667,200.8239249416667,67.0,93.0
776,200.2836713166667,200.87265370000003,62.0,107.0
777,200.79214531666668,201.13324662500003,55.0,89.0
778,201.0463823166667,201.4849411416667,59.0,100.0
779,201.0463823166667,201.56333088333335,67.0,104.0
780,201.0463823166667,201.60994100000002,62.0,113.0
781,201.55485631666667,201.84722886666668,55.0,88.0
782,201.8090933166667,202.0696862416667,59.0,100.0
783,200.2836713166667,202.09934722500003,43.0,91.0
784,201.8090933166667,202.10358450833334,67.0,98.0
785,200.5379083166667,202.15443190833335,50.0,83.0
786,201.8090933166667,202.19680474166668,62.0,113.0
787,202.06333031666668,202.22434708333336,55.0,86.0
788,202.3175673166667,202.85358365833335,40.0,88.0
789,202.3175673166667,203.06756646666668,72.0,91.0
790,202.3175673166667,203.11417658333335,64.0,92.0
791,202.3175673166667,203.12053250833335,67.0,98.0
792,203.0802783166667,203.48917615833335,60.0,86.0
793,202.3175673166667,203.55273540833335,48.0,91.0
794,202.82604131666668,203.59510824166668,55.0,68.0
795,203.33451531666668,203.9955315166667,72.0,89.0
796,203.33451531666668,203.99765015833336,64.0,100.0
797,203.33451531666668,204.26036172500002,67.0,107.0
798,203.8429893166667,204.35993788333334,47.0,84.0
799,204.3514633166667,205.08663197500002,72.0,91.0
800,204.3514633166667,205.10569975,69.0,107.0
801,204.3514633166667,205.12053024166667,64.0,92.0
802,205.1141743166667,205.48493660833336,57.0,87.0
803,204.3514633166667,205.90019037500002,45.0,94.0
804,204.85993731666667,205.92349543333336,52.0,63.0
805,205.36841131666668,205.9573937,72.0,88.0
806,205.36841131666668,205.98281740000002,64.0,98.0
807,205.36841131666668,206.0357834416667,69.0,104.0
808,205.8768853166667,206.33874920000002,57.0,79.0
809,206.3853593166667,207.13959575,62.0,94.0
810,206.3853593166667,207.14595167500002,65.0,102.0
811,206.3853593166667,207.15230760000003,69.0,94.0
812,206.3853593166667,207.61417148333337,50.0,88.0
813,207.1480703166667,207.62052740833334,57.0,88.0
814,207.40230731666668,208.16713695833334,69.0,100.0
815,207.40230731666668,208.20527250833337,62.0,98.0
816,207.9107813166667,208.26247583333335,50.0,88.0
817,207.40230731666668,208.30696730833336,65.0,108.0
818,208.4192553166667,209.17772903333335,71.0,96.0
819,208.4192553166667,209.192559525,62.0,91.0
820,208.4192553166667,209.19467816666668,67.0,104.0
821,209.1819663166667,209.65230476666667,55.0,90.0
822,208.4192553166667,209.6713725416667,43.0,87.0
823,208.92772931666667,209.71374537500003,50.0,66.0
824,209.43620331666668,210.17137197500003,71.0,98.0
825,209.43620331666668,210.21374480833336,62.0,104.0
826,209.43620331666668,210.29213455000001,67.0,107.0
827,209.94467731666668,210.35357515833334,43.0,85.0
828,210.4531513166667,211.14806578333335,71.0,74.0
829,210.4531513166667,211.20103182500003,64.0,74.0
830,210.4531513166667,211.20103182500003,67.0,74.0
831,211.2158623166667,211.6162855916667,52.0,89.0
832,211.47009931666668,212.04213256666668,64.0,79.0
833,210.4531513166667,212.15230193333335,40.0,74.0
834,211.47009931666668,212.27942043333334,71.0,79.0
835,210.9616253166667,212.30272549166668,47.0,63.0
836,211.47009931666668,212.33662375833336,67.0,79.0
837,211.97857331666668,212.43831855833335,52.0,84.0
838,212.4870473166667,213.09086019166668,69.0,76.0
839,212.4870473166667,213.09086019166668,69.0,76.0
840,212.4870473166667,213.12052117500002,64.0,76.0
841,212.4870473166667,213.12052117500002,64.0,76.0
842,212.4870473166667,213.1226398166667,60.0,76.0
843,212.4870473166667,213.1226398166667,60.0,76.0
844,212.4870473166667,213.69255442500003,45.0,76.0
845,212.4870473166667,213.69255442500003,45.0,76.0
846,213.24975831666669,213.71162220000002,57.0,81.0
847,212.9955213166667,213.74763910833335,52.0,64.0
848,212.9955213166667,213.74763910833335,52.0,70.0
849,213.50399531666667,213.91924908333334,60.0,65.0
850,213.50399531666667,213.91924908333334,60.0,65.0
851,213.50399531666667,213.9404355,69.0,65.0
852,213.50399531666667,213.9404355,69.0,65.0
853,213.50399531666667,213.9743337666667,64.0,65.0
854,213.50399531666667,213.9743337666667,64.0,65.0
855,214.5209433166667,215.24128148333335,69.0,63.0
856,214.5209433166667,215.27729839166668,60.0,63.0
857,214.5209433166667,215.28153567500001,41.0,63.0
858,214.5209433166667,215.34085764166667,53.0,63.0
859,214.5209433166667,215.38534911666667,65.0,63.0
860,215.53789131666667,216.22856850000002,43.0,67.0
861,215.53789131666667,216.31119552500002,59.0,67.0
862,215.53789131666667,216.31755145000002,67.0,67.0
863,215.53789131666667,216.48068685833334,62.0,67.0
864,215.53789131666667,216.51882240833336,55.0,67.0
865,216.5548393166667,217.3239062416667,67.0,72.0
866,216.5548393166667,217.33873673333335,64.0,72.0
867,216.5548393166667,217.35568586666668,60.0,72.0
868,217.31755031666668,217.69466853333336,55.0,78.0
869,216.5548393166667,218.1374646416667,48.0,72.0
870,217.57178731666667,218.1374646416667,60.0,83.0
871,217.57178731666667,218.13958328333337,67.0,86.0
872,217.57178731666667,218.17136290833335,64.0,86.0
873,218.08026131666668,218.64805728333334,55.0,66.0
874,219.107802525,220.264580875,60.0,77.0
875,218.85356552500002,220.30695370833334,55.0,73.0
876,218.59932852500003,220.32178420000002,48.0,90.0
877,219.36203952500003,220.68195328333334,67.0,86.0
878,220.99339360833335,221.90229088333336,69.0,85.0
879,220.8705123916667,221.98703655000003,57.0,82.0
880,220.9594953416667,222.19890071666669,60.0,85.0
881,220.95525805833336,222.21373120833334,64.0,76.0
882,220.76034302500003,222.48915462500003,45.0,88.0
883,222.63957818333336,224.97643994166668,62.0,65.0
884,222.62686633333334,225.3768632166667,57.0,76.0
885,222.55271387500002,225.603557875,50.0,80.0
886,222.6692391666667,225.60991380000002,65.0,86.0
887,225.7073713166667,226.9785563166667,43.0,80.0
888,226.72431931666668,228.34084290833334,48.0,92.0
889,228.5039783166667,228.67770693333335,48.0,97.0
890,227.48279303333337,228.68618150000003,60.0,97.0
891,227.48703031666668,228.73914754166668,55.0,87.0
892,227.2327933166667,228.7455034666667,52.0,86.0
893,227.48703031666668,228.7963508666667,64.0,91.0
894,228.76880852500003,230.41499310000003,45.0,83.0
895,229.02304552500001,230.4488913666667,52.0,77.0
896,229.27728252500003,230.5378743166667,57.0,87.0
897,229.53151952500002,230.76245033333336,60.0,87.0
898,229.53151952500002,230.80694180833336,69.0,85.0
899,229.55058730000002,230.81965365833335,64.0,97.0
900,231.31117852500003,231.69253402500001,62.0,84.0
901,230.80270452500002,231.819652525,50.0,86.0
902,231.056941525,231.819652525,57.0,80.0
903,231.56541552500002,231.83236437500003,65.0,81.0
904,232.58024488333336,234.48278510000003,62.0,97.0
905,231.819652525,234.489141025,43.0,88.0
906,232.07388952500003,234.514564725,50.0,81.0
907,232.32812652500002,234.60990360000002,55.0,84.0
908,232.58236352500003,234.794225425,59.0,80.0
909,240.9615913166667,242.10565781666668,79.0,97.0
910,241.97853931666668,242.50184380833335,86.0,74.0
911,242.4870133166667,242.6395555166667,79.0,60.0
912,235.8768513166667,243.6310798166667,64.0,88.0
913,239.94464331666668,243.7581983166667,76.0,97.0
914,242.89802980000002,243.8916727416667,79.0,43.0
915,242.98277546666668,243.92345236666668,84.0,48.0
916,243.0590465666667,243.92345236666668,88.0,81.0
917,236.90862980833336,244.28150280833336,67.0,97.0
918,234.85990331666667,244.63955325000003,48.0,85.0
