,start,end,pitch,velocity
0,1.5275719,8.841902333333334,59.0,54.0
1,1.5275719,8.8455788,67.0,61.0
2,1.5275719,8.851093500000001,64.0,53.0
3,1.5275719,8.876828766666668,40.0,66.0
4,9.0275639,9.840063033333333,55.0,79.0
5,9.0275639,9.854768900000002,59.0,79.0
6,9.0275639,9.865798300000002,64.0,79.0
7,9.0275639,10.213224400000001,40.0,79.0
8,9.909915900000001,10.216900866666668,64.0,79.0
9,9.909915900000001,10.222415566666667,59.0,79.0
10,9.909915900000001,10.253665533333335,55.0,79.0
11,10.7922679,11.523884766666667,52.0,79.0
12,10.7922679,11.536752400000001,60.0,79.0
13,10.7922679,11.544105333333334,55.0,79.0
14,10.7922679,11.996310733333335,36.0,79.0
15,11.674619900000001,12.102928266666668,52.0,79.0
16,11.674619900000001,12.1047665,60.0,79.0
17,11.674619900000001,12.106604733333334,55.0,79.0
18,12.5569719,13.362118100000002,55.0,79.0
19,12.5569719,13.371309266666668,59.0,79.0
20,12.5569719,13.373147500000002,64.0,79.0
21,12.5569719,13.511015,40.0,79.0
22,12.998147900000001,13.5330738,47.0,79.0
23,13.439323900000002,13.8915293,55.0,79.0
24,13.439323900000002,13.900720466666668,59.0,79.0
25,13.439323900000002,13.911749866666668,64.0,79.0
26,14.3216759,15.090057433333335,60.0,79.0
27,14.3216759,15.121307400000001,64.0,79.0
28,14.3216759,15.145204433333335,69.0,79.0
29,14.3216759,15.316160133333334,45.0,79.0
30,15.204027900000002,15.621306866666668,69.0,79.0
31,15.204027900000002,15.641527433333335,64.0,79.0
32,15.204027900000002,15.643365666666668,60.0,79.0
33,16.0863799,16.805129133333335,57.0,78.0
34,16.0863799,16.8639526,54.0,78.0
35,16.0863799,16.8639526,62.0,78.0
36,16.9687319,17.330863866666668,57.0,78.0
37,16.9687319,17.330863866666668,62.0,78.0
38,16.9687319,17.393363800000003,54.0,78.0
39,16.0863799,17.455863733333334,38.0,78.0
40,17.851083900000003,18.413583300000003,36.0,78.0
41,17.851083900000003,18.435642100000003,52.0,78.0
42,17.851083900000003,18.439318566666667,55.0,78.0
43,17.851083900000003,18.448509733333335,60.0,78.0
44,18.7334359,19.284905900000002,54.0,78.0
45,18.7334359,19.32167056666667,62.0,78.0
46,18.7334359,19.6157879,38.0,78.0
47,18.7334359,19.6157879,57.0,78.0
48,19.6157879,20.147037333333333,59.0,82.0
49,19.6157879,20.211375500000003,55.0,82.0
50,19.6157879,20.215051966666667,52.0,82.0
51,20.277551900000002,20.3988753,59.0,85.0
52,20.277551900000002,20.430125266666668,52.0,85.0
53,20.277551900000002,20.435639966666667,55.0,85.0
54,19.6157879,20.470566400000003,40.0,82.0
55,20.9393159,23.172769400000004,59.0,83.0
56,23.1451959,23.172769400000004,59.0,76.0
57,20.9393159,23.181960566666667,52.0,83.0
58,20.9393159,23.181960566666667,55.0,83.0
59,23.1451959,23.181960566666667,55.0,76.0
60,20.9393159,23.191151733333335,40.0,83.0
61,23.1451959,23.191151733333335,40.0,76.0
62,23.1451959,23.917253900000002,64.0,76.0
63,24.027547900000002,24.38416516666667,64.0,76.0
64,24.027547900000002,24.398871033333336,59.0,76.0
65,24.027547900000002,24.4025475,55.0,76.0
66,24.909899900000003,26.279383733333336,38.0,76.0
67,24.909899900000003,26.305119,62.0,76.0
68,24.909899900000003,26.317986633333334,57.0,76.0
69,24.909899900000003,26.356589533333334,54.0,76.0
70,25.3510759,26.492618800000002,45.0,76.0
71,26.012839900000003,26.670927433333336,50.0,76.0
72,27.556955900000002,28.055117133333336,64.0,76.0
73,27.556955900000002,28.148867033333335,59.0,76.0
74,27.9981319,29.71688006666667,52.0,76.0
75,28.439307900000003,29.744453566666667,64.0,76.0
76,27.115779900000003,29.759159433333334,47.0,76.0
77,27.556955900000002,29.79960056666667,55.0,76.0
78,28.439307900000003,29.819821133333335,59.0,76.0
79,26.6746039,29.86577696666667,40.0,76.0
80,31.086363900000002,31.47055466666667,64.0,76.0
81,30.645187900000003,31.494451700000003,47.0,76.0
82,31.086363900000002,31.4999664,55.0,76.0
83,31.086363900000002,31.4999664,59.0,76.0
84,30.2040119,31.65253976666667,40.0,76.0
85,31.968715900000003,32.7352592,52.0,75.0
86,31.968715900000003,32.751803300000006,60.0,75.0
87,31.968715900000003,32.7904062,55.0,75.0
88,32.409891900000005,32.87680316666667,43.0,75.0
89,31.968715900000003,32.889670800000005,36.0,75.0
90,32.851067900000004,33.233420433333336,52.0,74.0
91,32.851067900000004,33.27202333333334,60.0,74.0
92,32.851067900000004,33.284890966666666,55.0,74.0
93,33.7334199,34.494448500000004,67.0,74.0
94,33.7334199,34.579007233333336,59.0,74.0
95,34.615771900000006,35.27018296666667,67.0,74.0
96,34.615771900000006,35.39702106666667,59.0,74.0
97,33.7334199,35.43010926666667,62.0,74.0
98,35.056947900000004,36.34371123333334,55.0,74.0
99,34.1745959,36.492608133333334,50.0,74.0
100,35.4981239,36.5459169,67.0,74.0
101,35.4981239,36.56429923333334,62.0,74.0
102,35.4981239,36.580843333333334,59.0,74.0
103,33.7334199,36.59187273333334,43.0,74.0
104,38.1451799,38.88782616666667,64.0,74.0
105,38.1451799,38.911723200000004,59.0,74.0
106,38.1451799,38.92459083333333,55.0,74.0
107,39.0275319,39.729737033333336,64.0,74.0
108,39.0275319,39.78672226666667,59.0,74.0
109,39.0275319,39.7885605,55.0,74.0
110,38.5863559,39.955839733333335,52.0,74.0
111,37.704003900000004,40.1084131,47.0,74.0
112,37.262827900000005,40.19848653333334,40.0,74.0
113,39.909883900000004,40.36576576666667,64.0,74.0
114,39.909883900000004,40.37495693333334,55.0,74.0
115,39.909883900000004,40.37679516666667,59.0,74.0
116,40.7922359,41.56245566666667,64.0,74.0
117,40.7922359,41.56245566666667,69.0,74.0
118,40.7922359,41.57899976666667,60.0,74.0
119,41.674587900000006,42.330837200000005,69.0,74.0
120,41.674587900000006,42.40988123333334,64.0,74.0
121,41.674587900000006,42.44480766666667,60.0,74.0
122,42.5569399,43.3400273,64.0,74.0
123,42.115763900000005,43.373115500000004,57.0,74.0
124,42.5569399,43.374953733333335,60.0,74.0
125,41.2334119,43.4778948,52.0,74.0
126,40.7922359,43.72421806666667,45.0,74.0
127,42.5569399,43.78487976666667,69.0,74.0
128,43.4392919,43.860247333333334,64.0,74.0
129,43.4392919,43.88230613333334,60.0,74.0
130,44.1176,45.7389218,43.0,74.0
131,45.2039959,45.95767156666667,59.0,74.0
132,45.2039959,46.00178916666667,55.0,74.0
133,45.2039959,46.05142146666667,50.0,74.0
134,46.968699900000004,47.40803766666667,57.0,74.0
135,46.08634790000001,47.42825823333334,38.0,74.0
136,46.968699900000004,47.50546403333334,54.0,74.0
137,46.527523900000006,47.86208130000001,50.0,74.0
138,47.4098759,47.86208130000001,50.0,74.0
139,48.733403900000006,49.490756033333334,55.0,74.0
140,48.733403900000006,49.49810896666667,64.0,74.0
141,48.733403900000006,49.50178543333334,59.0,74.0
142,49.174579900000005,49.94296143333334,52.0,74.0
143,49.6157559,50.5863431,64.0,74.0
144,49.6157559,51.036710266666674,59.0,74.0
145,50.4981079,51.22421006666667,52.0,74.0
146,49.6157559,51.27384236666667,55.0,74.0
147,47.8510519,51.30141586666667,40.0,74.0
148,48.2922279,51.3197982,47.0,74.0
149,51.380459900000005,52.121267933333336,64.0,74.0
150,51.380459900000005,52.14884143333334,59.0,74.0
151,51.380459900000005,52.163547300000005,55.0,74.0
152,52.2628119,52.75913490000001,64.0,74.0
153,51.821635900000004,52.768326066666674,47.0,74.0
154,52.2628119,52.79957603333334,59.0,74.0
155,52.2628119,52.816120133333335,55.0,74.0
156,51.380459900000005,52.83266423333334,40.0,74.0
157,53.14516390000001,53.75361913333334,62.0,74.0
158,53.14516390000001,53.87861900000001,57.0,74.0
159,53.14516390000001,53.92273660000001,54.0,74.0
160,54.027515900000004,54.44663310000001,62.0,74.0
161,54.027515900000004,54.47604483333334,57.0,74.0
162,53.14516390000001,54.52016243333334,38.0,74.0
163,54.027515900000004,54.53486830000001,54.0,74.0
164,54.4686919,54.82530916666667,50.0,74.0
165,53.586339900000006,54.91354436666667,45.0,74.0
166,54.9098679,55.422735,64.0,74.0
167,54.9098679,55.49258786666667,59.0,74.0
168,54.9098679,55.6378083,55.0,74.0
169,55.792219900000006,56.25177823333334,64.0,74.0
170,55.792219900000006,56.4319251,59.0,74.0
171,55.792219900000006,56.5146456,55.0,74.0
172,56.674571900000004,57.36758586666667,64.0,74.0
173,56.674571900000004,57.404350533333336,55.0,74.0
174,56.674571900000004,57.41170346666667,59.0,74.0
175,56.233395900000005,57.90251176666667,52.0,74.0
176,55.35104390000001,58.03854103333334,47.0,74.0
177,57.5569239,58.058761600000004,64.0,74.0
178,54.9098679,58.11758506666667,40.0,74.0
179,57.5569239,58.15618796666667,59.0,74.0
180,57.5569239,58.191114400000004,55.0,74.0
181,58.439275900000005,59.1947898,64.0,75.0
182,58.439275900000005,59.220525066666674,59.0,75.0
183,58.439275900000005,59.224201533333336,55.0,75.0
184,58.880451900000004,59.735230400000006,47.0,76.0
185,59.3216279,59.75545096666667,64.0,77.0
186,59.3216279,59.76648036666667,59.0,77.0
187,59.3216279,59.790377400000004,55.0,77.0
188,58.439275900000005,59.871259666666674,40.0,75.0
189,60.20397990000001,60.913537966666674,60.0,78.0
190,60.20397990000001,60.92272913333334,52.0,78.0
191,60.20397990000001,60.94294970000001,55.0,78.0
192,60.20397990000001,61.488905,36.0,78.0
193,61.086331900000005,61.5385373,60.0,78.0
194,61.086331900000005,61.54037553333334,55.0,78.0
195,61.086331900000005,61.54405200000001,52.0,78.0
196,60.645155900000006,61.54589023333334,43.0,78.0
197,61.5275079,61.97787506666667,48.0,79.0
198,61.9686839,62.737065433333335,67.0,79.0
199,61.9686839,62.74258013333334,59.0,79.0
200,61.9686839,62.75544776666667,62.0,79.0
201,62.85103590000001,63.57897630000001,67.0,79.0
202,62.85103590000001,63.6175792,59.0,79.0
203,62.85103590000001,63.62860860000001,62.0,79.0
204,63.733387900000004,64.46868123333334,67.0,80.0
205,63.733387900000004,64.47971063333334,59.0,80.0
206,63.733387900000004,64.48706356666668,62.0,80.0
207,63.292211900000005,64.57897523333334,55.0,80.0
208,62.40985990000001,64.61206343333333,50.0,79.0
209,61.9686839,64.852872,43.0,79.0
210,64.61573990000001,64.90618076666667,67.0,81.0
211,64.61573990000001,64.91904840000001,62.0,81.0
212,64.61573990000001,64.9411072,59.0,81.0
213,65.4980919,66.07162070000001,64.0,81.0
214,65.4980919,66.26095873333334,55.0,81.0
215,65.4980919,66.26095873333334,59.0,81.0
216,66.3804439,67.1028696,64.0,82.0
217,66.3804439,67.10838430000001,59.0,82.0
218,66.3804439,67.13228133333334,55.0,82.0
219,66.8216199,67.3289723,52.0,82.0
220,67.2627959,67.9355893,64.0,82.0
221,67.2627959,67.94845693333333,59.0,82.0
222,67.2627959,67.9852216,55.0,82.0
223,65.4980919,68.0844862,40.0,81.0
224,65.9392679,68.11573616666668,47.0,81.0
225,67.7039719,68.11573616666668,52.0,82.0
226,68.14514790000001,68.61022093333334,64.0,82.0
227,68.14514790000001,68.61205916666667,55.0,82.0
228,68.14514790000001,68.61205916666667,59.0,82.0
229,69.02749990000001,69.84183726666667,60.0,83.0
230,69.02749990000001,69.84551373333333,64.0,83.0
231,69.02749990000001,69.84735196666668,69.0,83.0
232,69.9098519,70.66720403333333,69.0,84.0
233,69.9098519,70.67271873333334,60.0,84.0
234,69.9098519,70.67271873333334,64.0,84.0
235,70.3510279,70.97235076666668,57.0,84.0
236,70.7922039,71.54036486666668,69.0,84.0
237,70.7922039,71.56058543333334,64.0,84.0
238,70.7922039,71.5642619,60.0,84.0
239,71.2333799,71.8785998,57.0,84.0
240,71.6745559,72.42639333333334,69.0,84.0
241,71.6745559,72.43742273333334,64.0,84.0
242,71.6745559,72.45212860000001,60.0,84.0
243,69.46867590000001,72.47602563333334,52.0,84.0
244,69.02749990000001,72.6010255,45.0,83.0
245,72.5569079,73.25359833333334,59.0,84.0
246,72.5569079,73.27198066666668,62.0,84.0
247,72.5569079,73.27565713333334,67.0,84.0
248,72.99808390000001,73.82161243333334,50.0,84.0
249,73.43925990000001,73.85653886666667,62.0,84.0
250,73.43925990000001,73.85837710000001,67.0,84.0
251,73.43925990000001,73.88227413333334,59.0,84.0
252,72.5569079,73.9024947,43.0,84.0
253,74.32161190000001,75.01462586666668,54.0,84.0
254,74.32161190000001,75.0385229,57.0,84.0
255,74.32161190000001,75.05506700000001,62.0,84.0
256,75.2039639,75.9980807,62.0,84.0
257,75.2039639,76.02197773333334,57.0,84.0
258,75.2039639,76.07712473333333,54.0,84.0
259,74.32161190000001,76.09550706666667,38.0,84.0
260,74.7627879,76.30506566666668,45.0,84.0
261,76.0863159,76.8804327,55.0,84.0
262,76.0863159,76.8859474,64.0,84.0
263,76.0863159,76.88778563333334,59.0,84.0
264,76.9686679,77.77565233333334,64.0,84.0
265,76.9686679,77.78668173333334,55.0,84.0
266,76.9686679,77.78668173333334,59.0,84.0
267,77.85101990000001,78.05138733333334,59.0,84.0
268,77.85101990000001,78.05874026666667,64.0,84.0
269,77.85101990000001,78.07712260000001,55.0,84.0
270,78.29219590000001,78.51094566666667,64.0,84.0
271,78.29219590000001,78.51462213333333,59.0,84.0
272,78.29219590000001,78.53851916666667,55.0,84.0
273,77.40984390000001,78.88778350000001,52.0,84.0
274,76.5274919,79.22050373333335,47.0,84.0
275,76.0863159,79.24256253333334,40.0,84.0
276,79.6157239,80.38962013333334,55.0,84.0
277,79.6157239,80.38962013333334,59.0,84.0
278,79.6157239,80.39697306666667,64.0,84.0
279,80.4980759,81.2591045,55.0,84.0
280,80.4980759,81.26094273333334,64.0,84.0
281,80.4980759,81.26461920000001,59.0,84.0
282,80.9392519,81.52748656666667,52.0,84.0
283,81.3804279,82.12858886666668,55.0,83.0
284,81.3804279,82.12858886666668,64.0,83.0
285,81.3804279,82.13410356666667,59.0,83.0
286,81.8216039,82.22050053333334,52.0,83.0
287,80.0568999,82.35469156666667,47.0,84.0
288,79.6157239,82.45211793333334,40.0,84.0
289,82.26277990000001,82.54219136666667,59.0,83.0
290,82.26277990000001,82.54219136666667,64.0,83.0
291,82.26277990000001,82.55873546666668,55.0,83.0
292,83.14513190000001,83.90983696666667,62.0,83.0
293,83.14513190000001,83.93741046666668,57.0,83.0
294,83.14513190000001,83.95395456666667,54.0,83.0
295,84.02748390000001,84.40799820000001,62.0,83.0
296,84.02748390000001,84.4190276,57.0,83.0
297,83.14513190000001,84.43557170000001,38.0,83.0
298,84.02748390000001,84.4521158,54.0,83.0
299,83.58630790000001,84.5017481,45.0,83.0
300,84.9098359,85.68557036666667,67.0,83.0
301,84.9098359,85.68924683333334,59.0,83.0
302,84.9098359,85.69108506666667,62.0,83.0
303,85.7921879,86.54402533333334,67.0,83.0
304,85.7921879,86.55137826666667,59.0,83.0
305,85.7921879,86.55137826666667,62.0,83.0
306,86.2333639,86.59365763333334,55.0,83.0
307,84.9098359,86.61203996666667,43.0,83.0
308,85.3510119,86.63593700000001,50.0,83.0
309,86.67453990000001,87.4741714,64.0,83.0
310,86.67453990000001,87.4741714,69.0,83.0
311,86.67453990000001,87.48152433333334,60.0,83.0
312,87.55689190000001,88.34917046666668,69.0,83.0
313,87.55689190000001,88.37122926666667,64.0,83.0
314,87.55689190000001,88.37490573333334,60.0,83.0
315,87.99806790000001,88.52564086666668,57.0,83.0
316,88.43924390000001,89.16166960000001,69.0,83.0
317,88.43924390000001,89.1782137,64.0,83.0
318,88.43924390000001,89.18005193333335,60.0,83.0
319,88.8804199,89.40799286666667,57.0,83.0
320,89.3215959,89.8013748,69.0,83.0
321,89.3215959,89.8124042,64.0,83.0
322,89.3215959,89.82527183333335,60.0,83.0
323,89.7627719,90.0274775,57.0,83.0
324,86.67453990000001,90.18924203333334,45.0,83.0
325,87.11571590000001,90.2039479,52.0,83.0
326,90.2039479,90.93556476666667,62.0,83.0
327,90.2039479,90.9760059,57.0,83.0
328,90.2039479,91.00909410000001,54.0,83.0
329,90.2039479,91.48887300000001,38.0,83.0
330,91.0862999,91.4943877,62.0,83.0
331,90.6451239,91.50725533333333,45.0,83.0
332,91.0862999,91.50909356666668,57.0,83.0
333,91.0862999,91.53482883333334,54.0,83.0
334,91.96865190000001,92.7351952,67.0,83.0
335,91.96865190000001,92.73887166666667,59.0,83.0
336,91.96865190000001,92.74806283333334,62.0,83.0
337,91.96865190000001,93.22416526666667,43.0,83.0
338,92.40982790000001,93.24990053333335,50.0,83.0
339,92.85100390000001,93.30688576666667,67.0,83.0
340,92.85100390000001,93.31056223333334,62.0,83.0
341,92.85100390000001,93.31975340000001,59.0,83.0
342,93.7333559,94.51276683333334,64.0,83.0
343,93.7333559,94.52011976666667,55.0,83.0
344,93.7333559,94.52379623333334,59.0,83.0
345,94.1745319,94.92453110000001,47.0,83.0
346,94.6157079,94.98519280000001,64.0,83.0
347,94.6157079,94.99070750000001,59.0,83.0
348,94.6157079,95.00541336666667,55.0,83.0
349,93.7333559,95.05136920000001,40.0,83.0
350,95.4980599,96.26460320000001,52.0,83.0
351,95.4980599,96.26460320000001,60.0,83.0
352,95.4980599,96.27747083333334,55.0,83.0
353,95.4980599,96.78482323333334,36.0,83.0
354,95.93923590000001,96.80688203333334,43.0,83.0
355,96.38041190000001,96.81791143333334,55.0,83.0
356,96.38041190000001,96.81791143333334,60.0,83.0
357,96.38041190000001,96.83077906666668,52.0,83.0
358,97.26276390000001,97.76092513333334,67.0,82.0
359,97.26276390000001,97.98702783333334,55.0,82.0
360,97.26276390000001,97.99805723333334,59.0,82.0
361,97.26276390000001,98.01643956666668,64.0,82.0
362,97.26276390000001,98.547689,40.0,82.0
363,98.14511590000001,98.58813013333334,59.0,82.0
364,98.14511590000001,98.60099776666668,55.0,82.0
365,98.14511590000001,98.60283600000001,64.0,82.0
366,99.0274679,99.75908476666667,69.0,82.0
367,99.0274679,99.77562886666668,60.0,82.0
368,99.0274679,99.7829818,64.0,82.0
369,99.9098199,100.56423096666667,69.0,81.0
370,99.9098199,100.60651033333335,64.0,81.0
371,99.9098199,100.61937796666668,60.0,81.0
372,99.4686439,100.6543044,52.0,81.0
373,100.3509959,100.70026023333334,57.0,81.0
374,99.0274679,100.79217190000001,45.0,82.0
375,100.79217190000001,101.44842120000001,62.0,81.0
376,100.79217190000001,101.51092113333334,57.0,81.0
377,100.79217190000001,101.52930346666668,54.0,81.0
378,101.67452390000001,102.06974406666667,62.0,80.0
379,101.67452390000001,102.0991558,57.0,80.0
380,101.67452390000001,102.13592046666668,54.0,80.0
381,100.79217190000001,102.16900866666667,38.0,81.0
382,102.55687590000001,103.00356660000001,60.0,80.0
383,102.55687590000001,103.01275776666668,55.0,80.0
384,102.55687590000001,103.03481656666668,52.0,80.0
385,102.55687590000001,103.04400773333334,36.0,80.0
386,103.4392279,103.83260983333334,62.0,80.0
387,103.4392279,103.84547746666668,57.0,80.0
388,103.4392279,103.8804039,38.0,80.0
389,103.4392279,103.88959506666667,54.0,80.0
390,104.3215799,105.15246136666667,64.0,80.0
391,104.3215799,105.16165253333334,59.0,80.0
392,104.3215799,105.16716723333334,55.0,80.0
393,105.20393190000001,105.98150460000001,64.0,79.0
394,105.20393190000001,106.00723986666668,55.0,79.0
395,105.20393190000001,106.00907810000001,59.0,79.0
396,105.64510790000001,106.21496023333334,52.0,79.0
397,106.52745990000001,106.86018013333334,52.0,79.0
398,106.08628390000001,106.87672423333335,64.0,79.0
399,106.08628390000001,106.89143010000001,59.0,79.0
400,106.08628390000001,106.90062126666668,55.0,79.0
401,104.7627559,106.93738593333335,47.0,80.0
402,104.3215799,106.98701823333334,40.0,80.0
403,107.8509879,108.64878116666668,59.0,79.0
404,107.8509879,108.65061940000001,67.0,79.0
405,107.8509879,108.6561341,62.0,79.0
406,108.2921639,109.0862807,50.0,79.0
407,108.7333399,109.10833950000001,62.0,79.0
408,108.7333399,109.11753066666668,67.0,79.0
409,108.7333399,109.12304536666667,59.0,79.0
410,107.8509879,109.22230996666667,43.0,79.0
411,109.6156919,110.29767646666667,62.0,78.0
412,109.6156919,110.34547053333334,57.0,78.0
413,109.6156919,110.36385286666668,54.0,78.0
414,109.6156919,110.86201410000001,38.0,78.0
415,110.05686790000001,110.92635226666667,45.0,78.0
416,110.49804390000001,110.93186696666668,62.0,78.0
417,110.49804390000001,110.93921990000001,57.0,78.0
418,110.49804390000001,110.97966103333334,54.0,78.0
419,110.49804390000001,111.27194013333335,50.0,78.0
420,111.38039590000001,112.12120393333335,62.0,78.0
421,111.38039590000001,112.13039510000002,59.0,78.0
422,112.26274790000001,112.99620300000001,66.0,78.0
423,112.26274790000001,112.99987946666667,62.0,78.0
424,112.26274790000001,113.0182618,59.0,78.0
425,111.38039590000001,113.05870293333334,47.0,78.0
426,113.1450999,113.878555,55.0,78.0
427,113.1450999,113.88223146666668,59.0,78.0
428,113.1450999,113.89326086666668,64.0,78.0
429,114.0274519,114.86568630000001,64.0,78.0
430,114.0274519,114.87303923333334,59.0,78.0
431,114.0274519,114.89693626666667,55.0,78.0
432,113.1450999,115.03664200000001,40.0,78.0
433,114.90980390000001,115.64509723333335,52.0,78.0
434,114.90980390000001,115.69289130000001,60.0,78.0
435,114.90980390000001,115.69472953333334,55.0,78.0
436,115.79215590000001,116.28480243333334,52.0,78.0
437,115.79215590000001,116.28480243333334,60.0,78.0
438,115.79215590000001,116.29031713333335,55.0,78.0
439,114.90980390000001,116.29215536666668,36.0,78.0
440,116.67450790000001,117.42634533333334,62.0,78.0
441,116.67450790000001,117.45391883333335,57.0,78.0
442,116.67450790000001,117.45943353333334,54.0,78.0
443,117.5568599,118.24987386666668,62.0,78.0
444,117.5568599,118.34546200000001,57.0,78.0
445,116.67450790000001,118.39325606666668,38.0,78.0
446,117.11568390000001,118.39509430000001,45.0,78.0
447,117.5568599,118.39877076666667,54.0,78.0
448,118.4392119,119.18185816666667,52.0,78.0
449,118.4392119,119.19656403333335,60.0,78.0
450,118.4392119,119.21862283333334,55.0,78.0
451,118.4392119,119.77009283333334,36.0,78.0
452,118.8803879,119.82340160000001,43.0,78.0
453,119.32156390000002,119.88773976666667,60.0,78.0
454,119.32156390000002,119.93737206666668,52.0,78.0
455,119.32156390000002,119.94840146666668,55.0,78.0
456,120.20391590000001,120.92817983333335,59.0,78.0
457,120.20391590000001,120.97597390000001,66.0,78.0
458,120.20391590000001,120.98884153333334,63.0,78.0
459,120.20391590000001,121.60832616666667,54.0,78.0
460,120.20391590000001,121.69472313333334,47.0,78.0
461,121.08626790000001,121.85097296666667,59.0,78.0
462,121.08626790000001,121.87487000000002,63.0,78.0
463,121.08626790000001,121.88589940000001,66.0,78.0
464,121.96861990000001,122.74803083333335,64.0,78.0
465,121.96861990000001,122.7517073,59.0,78.0
466,121.96861990000001,122.76089846666667,55.0,78.0
467,122.8509719,123.24619206666668,64.0,78.0
468,122.8509719,123.26273616666667,59.0,78.0
469,122.8509719,123.2811185,55.0,78.0
470,122.4097959,123.28479496666668,47.0,78.0
471,121.96861990000001,123.41163306666668,40.0,78.0
472,123.73332390000002,124.51089660000001,52.0,78.0
473,123.73332390000002,124.51641130000002,60.0,78.0
474,123.73332390000002,124.53479363333334,55.0,78.0
475,123.73332390000002,125.0513372,36.0,78.0
476,124.61567590000001,125.06788130000001,60.0,78.0
477,124.61567590000001,125.073396,55.0,78.0
478,124.61567590000001,125.07891070000001,52.0,78.0
479,124.17449990000001,125.14141063333334,43.0,78.0
480,125.05685190000001,125.46493970000002,48.0,78.0
481,125.49802790000001,126.24251240000001,55.0,78.0
482,125.49802790000001,126.24986533333335,59.0,78.0
483,125.49802790000001,126.25905650000001,64.0,78.0
484,125.93920390000001,126.79582063333335,47.0,78.0
485,125.49802790000001,126.79765886666668,40.0,78.0
486,126.38037990000001,126.83810000000001,59.0,78.0
487,126.38037990000001,126.8436147,64.0,78.0
488,126.38037990000001,126.85096763333334,55.0,78.0
489,126.8215559,127.29214363333334,52.0,78.0
490,127.2627319,128.0292752,69.0,78.0
491,127.2627319,128.051334,60.0,78.0
492,127.2627319,128.051334,64.0,78.0
493,127.7039079,128.89324486666666,52.0,78.0
494,128.1450839,128.89508310000002,69.0,78.0
495,128.1450839,128.9116272,64.0,78.0
496,128.1450839,128.92633306666667,60.0,78.0
497,127.2627319,128.9612595,45.0,78.0
498,129.0274359,129.4134649,62.0,78.0
499,129.0274359,129.81787623333335,57.0,78.0
500,129.0274359,129.83993503333335,54.0,78.0
501,129.9097879,130.26824340000002,62.0,78.0
502,129.9097879,130.30684630000002,57.0,78.0
503,129.9097879,130.3399345,54.0,78.0
504,129.0274359,130.38405210000002,38.0,78.0
505,130.79213990000002,131.2388306,52.0,77.0
506,130.79213990000002,131.2553747,60.0,77.0
507,130.79213990000002,131.25721293333334,55.0,77.0
508,130.79213990000002,131.52743323333334,36.0,77.0
509,131.67449190000002,132.09177086666668,62.0,76.0
510,131.67449190000002,132.11934436666667,57.0,76.0
511,131.67449190000002,132.1487561,54.0,76.0
512,131.67449190000002,132.52007923333335,38.0,76.0
513,132.55684390000002,133.35647540000002,64.0,76.0
514,132.55684390000002,133.3619901,59.0,76.0
515,132.55684390000002,133.37485773333336,55.0,76.0
516,133.43919590000002,134.2057392,64.0,76.0
517,133.43919590000002,134.22044506666668,55.0,76.0
518,133.43919590000002,134.22412153333335,59.0,76.0
519,133.8803719,134.44103306666668,52.0,76.0
520,132.9980199,134.8123562,47.0,76.0
521,134.3215479,135.6652964666667,64.0,76.0
522,132.55684390000002,135.68000233333333,40.0,76.0
523,134.3215479,135.70757583333335,59.0,76.0
524,134.3215479,135.73698756666667,55.0,76.0
525,136.0862519,136.82705993333335,64.0,76.0
526,136.0862519,136.85463343333333,59.0,76.0
527,136.0862519,136.8693393,55.0,76.0
528,136.9686039,137.46492690000002,64.0,76.0
529,136.52742790000002,137.47411806666668,47.0,76.0
530,136.9686039,137.50536803333335,59.0,76.0
531,136.9686039,137.52191213333333,55.0,76.0
532,136.0862519,137.53845623333333,40.0,76.0
533,137.8509559,138.45941113333333,62.0,76.0
534,137.8509559,138.58441100000002,57.0,76.0
535,137.8509559,138.6285286,54.0,76.0
536,138.7333079,139.15242510000002,62.0,77.0
537,138.7333079,139.18183683333334,57.0,77.0
538,137.8509559,139.22595443333336,38.0,76.0
539,138.7333079,139.2406603,54.0,77.0
540,139.1744839,139.53110116666667,50.0,78.0
541,138.29213190000002,139.6193363666667,45.0,77.0
542,139.6156599,140.12852700000002,64.0,78.0
543,139.6156599,140.19837986666667,59.0,78.0
544,139.6156599,140.34360030000002,55.0,78.0
545,140.49801190000002,140.95757023333334,64.0,78.0
546,140.49801190000002,141.1377171,59.0,78.0
547,140.49801190000002,141.2204376,55.0,78.0
548,141.38036390000002,142.07337786666668,64.0,78.0
549,141.38036390000002,142.11014253333335,55.0,78.0
550,141.38036390000002,142.11749546666667,59.0,78.0
551,140.9391879,142.60830376666667,52.0,78.0
552,140.0568359,142.74433303333333,47.0,78.0
553,142.26271590000002,142.7645536,64.0,78.0
554,139.6156599,142.82337706666667,40.0,78.0
555,142.26271590000002,142.86197996666667,59.0,78.0
556,142.26271590000002,142.8969064,55.0,78.0
557,143.14506790000002,143.9005818,64.0,78.0
558,143.14506790000002,143.92631706666668,59.0,78.0
559,143.14506790000002,143.92999353333335,55.0,78.0
560,143.5862439,144.4410224,47.0,79.0
561,144.0274199,144.46124296666667,64.0,79.0
562,144.0274199,144.4722723666667,59.0,79.0
563,144.0274199,144.4961694,55.0,79.0
564,143.14506790000002,144.57705166666668,40.0,78.0
565,144.9097719,145.61932996666667,60.0,79.0
566,144.9097719,145.62852113333335,52.0,79.0
567,144.9097719,145.64874170000002,55.0,79.0
568,144.9097719,146.19469700000002,36.0,79.0
569,145.7921239,146.2443293,60.0,79.0
570,145.7921239,146.24616753333333,55.0,79.0
571,145.7921239,146.24984400000002,52.0,79.0
572,145.35094790000002,146.25168223333336,43.0,79.0
573,146.23329990000002,146.6836670666667,48.0,79.0
574,146.6744759,147.44285743333336,67.0,79.0
575,146.6744759,147.44837213333335,59.0,79.0
576,146.6744759,147.46123976666667,62.0,79.0
577,147.5568279,148.28476830000002,67.0,79.0
578,147.5568279,148.32337120000003,59.0,79.0
579,147.5568279,148.3344006,62.0,79.0
580,148.4391799,149.17447323333334,67.0,79.0
581,148.4391799,149.18550263333336,59.0,79.0
582,148.4391799,149.19285556666668,62.0,79.0
583,147.99800390000001,149.28476723333335,55.0,79.0
584,147.11565190000002,149.31785543333334,50.0,79.0
585,146.6744759,149.55866400000002,43.0,79.0
586,149.32153190000002,149.61197276666667,67.0,79.0
587,149.32153190000002,149.6248404,62.0,79.0
588,149.32153190000002,149.6468992,59.0,79.0
589,150.20388390000002,150.7774127,64.0,79.0
590,150.20388390000002,150.96675073333336,55.0,79.0
591,150.20388390000002,150.96675073333336,59.0,79.0
592,151.08623590000002,151.80866160000002,64.0,79.0
593,151.08623590000002,151.8141763,59.0,79.0
594,151.08623590000002,151.83807333333334,55.0,79.0
595,151.5274119,152.0347643,52.0,79.0
596,151.96858790000002,152.6413813,64.0,79.0
597,151.96858790000002,152.65424893333335,59.0,79.0
598,151.96858790000002,152.69101360000002,55.0,79.0
599,150.20388390000002,152.79027820000002,40.0,79.0
600,150.6450599,152.82152816666667,47.0,79.0
601,152.4097639,152.82152816666667,52.0,79.0
602,152.85093990000001,153.31601293333335,64.0,79.0
603,152.85093990000001,153.31785116666669,55.0,79.0
604,152.85093990000001,153.31785116666669,59.0,79.0
605,153.7332919,154.5476292666667,60.0,79.0
606,153.7332919,154.55130573333335,64.0,79.0
607,153.7332919,154.55314396666668,69.0,79.0
608,154.6156439,155.37299603333335,69.0,79.0
609,154.6156439,155.37851073333334,60.0,79.0
610,154.6156439,155.37851073333334,64.0,79.0
611,155.05681990000002,155.67814276666667,57.0,79.0
612,155.4979959,156.24615686666667,69.0,79.0
613,155.4979959,156.26637743333333,64.0,79.0
614,155.4979959,156.27005390000002,60.0,79.0
615,155.93917190000002,156.58439180000002,57.0,78.0
616,156.3803479,157.13218533333335,69.0,78.0
617,156.3803479,157.14321473333334,64.0,78.0
618,156.3803479,157.1579206,60.0,78.0
619,154.17446790000002,157.18181763333334,52.0,79.0
620,153.7332919,157.30681750000002,45.0,79.0
621,157.2626999,157.95939033333335,59.0,78.0
622,157.2626999,157.97777266666668,62.0,78.0
623,157.2626999,157.98144913333334,67.0,78.0
624,157.7038759,158.52740443333334,50.0,78.0
625,158.1450519,158.56233086666668,62.0,78.0
626,158.1450519,158.56416910000002,67.0,78.0
627,158.1450519,158.58806613333334,59.0,78.0
628,157.2626999,158.6082867,43.0,78.0
629,159.02740390000002,159.72041786666668,54.0,77.0
630,159.02740390000002,159.7443149,57.0,77.0
631,159.02740390000002,159.760859,62.0,77.0
632,159.90975590000002,160.7038727,62.0,76.0
633,159.90975590000002,160.72776973333333,57.0,76.0
634,159.90975590000002,160.78291673333334,54.0,76.0
635,159.02740390000002,160.80129906666667,38.0,77.0
636,159.4685799,161.01085766666668,45.0,77.0
637,160.79210790000002,161.5862247,55.0,76.0
638,160.79210790000002,161.59173940000002,64.0,76.0
639,160.79210790000002,161.59357763333335,59.0,76.0
640,161.67445990000002,162.48144433333334,64.0,75.0
641,161.67445990000002,162.49247373333336,55.0,75.0
642,161.67445990000002,162.49247373333336,59.0,75.0
643,162.5568119,162.75717933333334,59.0,75.0
644,162.5568119,162.7645322666667,64.0,75.0
645,162.5568119,162.78291460000003,55.0,75.0
646,162.9979879,163.2167376666667,64.0,75.0
647,162.9979879,163.22041413333335,59.0,75.0
648,162.9979879,163.24431116666668,55.0,75.0
649,162.1156359,163.59357550000001,52.0,75.0
650,163.4391639,163.75717826666667,59.0,75.0
651,163.4391639,163.7590165,64.0,75.0
652,163.4391639,163.7847517666667,55.0,75.0
653,161.2332839,163.92629573333335,47.0,75.0
654,160.79210790000002,163.94835453333334,40.0,76.0
655,164.3215159,165.09541213333335,55.0,74.0
656,164.3215159,165.09541213333335,59.0,74.0
657,164.3215159,165.10276506666668,64.0,74.0
658,165.2038679,165.9648965,55.0,74.0
659,165.2038679,165.96673473333334,64.0,74.0
660,165.2038679,165.9704112,59.0,74.0
661,165.64504390000002,166.23327856666668,52.0,74.0
662,166.0862199,166.8343808666667,55.0,74.0
663,166.0862199,166.8343808666667,64.0,74.0
664,166.0862199,166.83989556666668,59.0,74.0
665,166.52739590000002,166.92629253333334,52.0,74.0
666,164.76269190000002,167.06048356666668,47.0,74.0
667,164.3215159,167.15790993333334,40.0,74.0
668,166.9685719,167.2479833666667,59.0,74.0
669,166.9685719,167.2479833666667,64.0,74.0
670,166.9685719,167.2645274666667,55.0,74.0
671,167.85092390000003,168.6156289666667,62.0,74.0
672,167.85092390000003,168.64320246666668,57.0,74.0
673,167.85092390000003,168.65974656666668,54.0,74.0
674,168.73327590000002,169.1137902,62.0,74.0
675,168.73327590000002,169.12481960000002,57.0,74.0
676,167.85092390000003,169.1413637,38.0,74.0
677,168.73327590000002,169.1579078,54.0,74.0
678,168.2920999,169.20754010000002,45.0,74.0
679,169.61562790000002,170.39136236666667,67.0,73.0
680,169.61562790000002,170.39503883333336,59.0,73.0
681,169.61562790000002,170.3968770666667,62.0,73.0
682,170.49797990000002,171.24981733333334,67.0,73.0
683,170.49797990000002,171.2571702666667,59.0,73.0
684,170.49797990000002,171.2571702666667,62.0,73.0
685,170.9391559,171.29944963333335,55.0,73.0
686,169.61562790000002,171.3178319666667,43.0,73.0
687,170.0568039,171.34172900000002,50.0,73.0
688,171.38033190000002,172.17996340000002,64.0,73.0
689,171.38033190000002,172.17996340000002,69.0,73.0
690,171.38033190000002,172.18731633333334,60.0,73.0
691,172.2626839,173.05496246666667,69.0,73.0
692,172.2626839,173.0770212666667,64.0,73.0
693,172.2626839,173.08069773333335,60.0,73.0
694,172.70385990000003,173.2314328666667,57.0,73.0
695,173.1450359,173.8674616,69.0,73.0
696,173.1450359,173.88400570000002,64.0,73.0
697,173.1450359,173.88584393333335,60.0,73.0
698,173.58621190000002,174.1137848666667,57.0,73.0
699,174.0273879,174.50716680000002,69.0,72.0
700,174.0273879,174.5181962,64.0,72.0
701,174.0273879,174.53106383333335,60.0,72.0
702,174.46856390000002,174.7332695,57.0,72.0
703,171.38033190000002,174.89503403333336,45.0,73.0
704,171.8215079,174.9097399,52.0,73.0
705,174.9097399,175.6413567666667,62.0,72.0
706,174.9097399,175.68179790000002,57.0,72.0
707,174.9097399,175.7148861,54.0,72.0
708,174.9097399,176.19466500000001,38.0,72.0
709,175.7920919,176.2001797,62.0,72.0
710,175.35091590000002,176.21304733333335,45.0,72.0
711,175.7920919,176.21488556666668,57.0,72.0
712,175.7920919,176.24062083333334,54.0,72.0
713,176.23326790000002,176.2939296,50.0,72.0
714,176.6744439,177.44098720000002,67.0,72.0
715,176.6744439,177.44466366666668,59.0,72.0
716,176.6744439,177.45385483333334,62.0,72.0
717,176.6744439,177.9299572666667,43.0,72.0
718,177.1156199,177.95569253333335,50.0,72.0
719,177.55679590000003,178.01267776666668,67.0,72.0
720,177.55679590000003,178.01635423333335,62.0,72.0
721,177.55679590000003,178.02554540000003,59.0,72.0
722,178.43914790000002,179.21855883333333,64.0,72.0
723,178.43914790000002,179.22591176666668,55.0,72.0
724,178.43914790000002,179.22958823333335,59.0,72.0
725,178.8803239,179.63032310000003,47.0,72.0
726,179.32149990000002,179.69098480000002,64.0,72.0
727,179.32149990000002,179.69649950000002,59.0,72.0
728,179.32149990000002,179.7112053666667,55.0,72.0
729,178.43914790000002,179.7571612,40.0,72.0
730,180.20385190000002,180.9703952,52.0,72.0
731,180.20385190000002,180.9703952,60.0,72.0
732,180.20385190000002,180.98326283333336,55.0,72.0
733,180.20385190000002,181.49061523333336,36.0,72.0
734,180.6450279,181.51267403333335,43.0,72.0
735,181.08620390000002,181.52370343333334,55.0,72.0
736,181.08620390000002,181.52370343333334,60.0,72.0
737,181.08620390000002,181.53657106666668,52.0,72.0
738,181.5273799,181.6762768,48.0,72.0
739,181.9685559,182.46671713333336,67.0,72.0
740,181.9685559,182.69281983333335,55.0,72.0
741,181.9685559,182.70384923333336,59.0,72.0
742,181.9685559,182.7222315666667,64.0,72.0
743,181.9685559,183.25348100000002,40.0,72.0
744,182.8509079,183.29392213333335,59.0,72.0
745,182.8509079,183.30678976666667,55.0,72.0
746,182.8509079,183.30862800000003,64.0,72.0
747,183.7332599,184.4648767666667,69.0,72.0
748,183.7332599,184.48142086666667,60.0,72.0
749,183.7332599,184.48877380000002,64.0,72.0
750,184.6156119,185.2700229666667,69.0,72.0
751,184.6156119,185.31230233333335,64.0,72.0
752,184.6156119,185.3251699666667,60.0,72.0
753,184.17443590000002,185.3600964,52.0,72.0
754,185.05678790000002,185.40605223333336,57.0,72.0
755,183.7332599,185.4979639,45.0,72.0
756,185.4979639,186.15421320000002,62.0,72.0
757,185.4979639,186.21671313333334,57.0,72.0
758,185.4979639,186.23509546666668,54.0,72.0
759,186.38031590000003,186.7755360666667,62.0,72.0
760,186.38031590000003,186.8049478,57.0,72.0
761,186.38031590000003,186.84171246666668,54.0,72.0
762,185.4979639,186.8748006666667,38.0,72.0
763,187.26266790000003,187.7093586,60.0,72.0
764,187.26266790000003,187.71854976666668,55.0,72.0
765,187.26266790000003,187.74060856666668,52.0,72.0
766,187.26266790000003,187.74979973333336,36.0,72.0
767,188.14501990000002,188.53840183333335,62.0,72.0
768,188.14501990000002,188.55126946666667,57.0,72.0
769,188.14501990000002,188.5861959,38.0,72.0
770,188.14501990000002,188.5953870666667,54.0,72.0
771,189.02737190000002,189.85825336666667,64.0,72.0
772,189.02737190000002,189.86744453333336,59.0,72.0
773,189.02737190000002,189.87295923333335,55.0,72.0
774,189.90972390000002,190.68729660000002,64.0,72.0
775,189.90972390000002,190.71303186666668,55.0,72.0
776,189.90972390000002,190.7148701,59.0,72.0
777,190.3508999,190.92075223333336,52.0,72.0
778,191.23325190000003,191.56597213333336,52.0,72.0
779,190.79207590000001,191.58251623333334,64.0,72.0
780,190.79207590000001,191.5972221,59.0,72.0
781,190.79207590000001,191.6064132666667,55.0,72.0
782,189.4685479,191.64317793333333,47.0,72.0
783,189.02737190000002,191.69281023333335,40.0,72.0
784,191.6744279,191.99244226666667,59.0,72.0
785,191.6744279,191.9942805,64.0,72.0
786,191.6744279,192.0200157666667,55.0,72.0
787,192.5567799,193.33067613333336,55.0,72.0
788,192.5567799,193.33067613333336,59.0,72.0
789,192.5567799,193.33802906666668,64.0,72.0
790,193.4391319,194.2001605,55.0,72.0
791,193.4391319,194.20199873333334,64.0,72.0
792,193.4391319,194.2056752,59.0,72.0
793,193.88030790000002,194.46854256666668,52.0,72.0
794,194.3214839,195.0696448666667,55.0,72.0
795,194.3214839,195.0696448666667,64.0,72.0
796,194.3214839,195.07515956666668,59.0,72.0
797,194.76265990000002,195.16155653333334,52.0,72.0
798,192.99795590000002,195.29574756666668,47.0,72.0
799,192.5567799,195.39317393333334,40.0,72.0
800,195.2038359,195.4832473666667,59.0,72.0
801,195.2038359,195.4832473666667,64.0,72.0
802,195.2038359,195.4997914666667,55.0,72.0
803,196.08618790000003,196.8508929666667,62.0,73.0
804,196.08618790000003,196.87846646666668,57.0,73.0
805,196.08618790000003,196.89501056666668,54.0,73.0
806,196.96853990000002,197.3490542,62.0,73.0
807,196.96853990000002,197.36008360000002,57.0,73.0
808,196.08618790000003,197.37662770000003,38.0,73.0
809,196.96853990000002,197.3931718,54.0,73.0
810,196.5273639,197.44280410000002,45.0,73.0
811,197.85089190000002,198.62662636666667,67.0,73.0
812,197.85089190000002,198.63030283333336,59.0,73.0
813,197.85089190000002,198.6321410666667,62.0,73.0
814,198.73324390000002,199.48508133333334,67.0,73.0
815,198.73324390000002,199.4924342666667,59.0,73.0
816,198.73324390000002,199.4924342666667,62.0,73.0
817,199.1744199,199.53471363333335,55.0,74.0
818,197.85089190000002,199.5530959666667,43.0,73.0
819,198.2920679,199.57699300000002,50.0,73.0
820,199.61559590000002,200.41522740000002,64.0,74.0
821,199.61559590000002,200.41522740000002,69.0,74.0
822,199.61559590000002,200.42258033333334,60.0,74.0
823,200.4979479,201.2902264666667,69.0,74.0
824,200.4979479,201.3122852666667,64.0,74.0
825,200.4979479,201.31596173333335,60.0,74.0
826,200.93912390000003,201.4666968666667,57.0,74.0
827,201.3802999,202.1027256,69.0,74.0
828,201.3802999,202.11926970000002,64.0,74.0
829,201.3802999,202.12110793333335,60.0,74.0
830,201.82147590000002,202.3490488666667,57.0,74.0
831,202.2626519,202.74243080000002,69.0,75.0
832,202.2626519,202.7534602,64.0,75.0
833,202.2626519,202.76632783333335,60.0,75.0
834,202.70382790000002,202.9685335,57.0,75.0
835,199.61559590000002,203.13029803333336,45.0,74.0
836,200.0567719,203.1450039,52.0,74.0
837,203.1450039,203.8766207666667,62.0,75.0
838,203.1450039,203.91706190000002,57.0,75.0
839,203.1450039,203.9501501,54.0,75.0
840,203.1450039,204.42992900000002,38.0,75.0
841,204.0273559,204.4354437,62.0,75.0
842,203.58617990000002,204.44831133333335,45.0,75.0
843,204.0273559,204.45014956666668,57.0,75.0
844,204.0273559,204.47588483333334,54.0,75.0
845,204.46853190000002,204.5291936,50.0,75.0
846,204.90970790000003,205.67625120000002,67.0,75.0
847,204.90970790000003,205.67992766666669,59.0,75.0
848,204.90970790000003,205.68911883333334,62.0,75.0
849,204.90970790000003,206.1652212666667,43.0,75.0
850,205.3508839,206.19095653333335,50.0,75.0
851,205.79205990000003,206.24794176666668,67.0,75.0
852,205.79205990000003,206.25161823333335,62.0,75.0
853,205.79205990000003,206.26080940000003,59.0,75.0
854,206.67441190000002,207.45382283333336,64.0,75.0
855,206.67441190000002,207.46117576666668,55.0,75.0
856,206.67441190000002,207.46485223333335,59.0,75.0
857,207.1155879,207.86558710000003,47.0,75.0
858,207.55676390000002,207.92624880000002,64.0,75.0
859,207.55676390000002,207.93176350000002,59.0,75.0
860,207.55676390000002,207.9464693666667,55.0,75.0
861,206.67441190000002,207.9924252,40.0,75.0
862,208.43911590000002,209.2056592,52.0,75.0
863,208.43911590000002,209.2056592,60.0,75.0
864,208.43911590000002,209.21852683333336,55.0,75.0
865,208.43911590000002,209.72587923333336,36.0,75.0
866,208.8802919,209.74793803333336,43.0,76.0
867,209.32146790000002,209.75896743333334,55.0,77.0
868,209.32146790000002,209.75896743333334,60.0,77.0
869,209.32146790000002,209.77183506666668,52.0,77.0
870,209.76264390000003,209.9115408,48.0,77.0
871,210.2038199,210.70198113333336,67.0,77.0
872,210.2038199,210.92808383333335,55.0,77.0
873,210.2038199,210.93911323333336,59.0,77.0
874,210.2038199,210.9574955666667,64.0,77.0
875,210.2038199,211.48874500000002,40.0,77.0
876,211.0861719,211.52918613333335,59.0,78.0
877,211.0861719,211.54205376666667,55.0,78.0
878,211.0861719,211.54389200000003,64.0,78.0
879,211.9685239,212.7001407666667,69.0,78.0
880,211.9685239,212.7166848666667,60.0,78.0
881,211.9685239,212.72403780000002,64.0,78.0
882,212.8508759,213.5052869666667,69.0,78.0
883,212.8508759,213.54756633333335,64.0,78.0
884,212.8508759,213.5604339666667,60.0,78.0
885,212.40969990000002,213.5953604,52.0,78.0
886,213.29205190000002,213.64131623333336,57.0,78.0
887,211.9685239,213.7332279,45.0,78.0
888,213.7332279,214.38947720000002,62.0,78.0
889,213.7332279,214.45197713333334,57.0,78.0
890,213.7332279,214.47035946666668,54.0,78.0
891,214.61557990000003,215.0108000666667,62.0,78.0
892,214.61557990000003,215.0402118,57.0,78.0
893,214.61557990000003,215.07697646666668,54.0,78.0
894,213.7332279,215.1100646666667,38.0,78.0
895,215.49793190000003,215.9446226,60.0,78.0
896,215.49793190000003,215.95381376666668,55.0,78.0
897,215.49793190000003,215.97587256666668,52.0,78.0
898,215.49793190000003,215.98506373333336,36.0,78.0
899,216.38028390000002,216.77366583333335,62.0,78.0
900,216.38028390000002,216.7865334666667,57.0,78.0
901,216.38028390000002,216.8214599,38.0,78.0
902,216.38028390000002,216.8306510666667,54.0,78.0
903,217.26263590000002,218.09351736666667,64.0,78.0
904,217.26263590000002,218.10270853333336,59.0,78.0
905,217.26263590000002,218.10822323333335,55.0,78.0
906,218.14498790000002,218.92256060000003,64.0,78.0
907,218.14498790000002,218.94829586666668,55.0,78.0
908,218.14498790000002,218.9501341,59.0,78.0
909,218.5861639,219.15601623333336,52.0,78.0
910,219.46851590000003,219.80123613333336,52.0,78.0
911,217.7038119,219.87844193333336,47.0,78.0
912,219.02733990000002,220.58248530000003,55.0,78.0
913,219.02733990000002,220.58248530000003,59.0,78.0
914,217.26263590000002,220.7920439,40.0,78.0
915,219.02733990000002,220.7920439,64.0,78.0
916,220.7920439,221.52549900000002,64.0,78.0
917,220.7920439,221.56410190000003,55.0,78.0
918,220.7920439,221.56410190000003,59.0,78.0
919,221.6743959,222.08064546666668,64.0,77.0
920,221.6743959,222.08432193333334,59.0,77.0
921,221.6743959,222.0879984,55.0,77.0
922,220.7920439,222.13763070000002,40.0,78.0
923,222.5567479,223.0806444,60.0,76.0
924,222.5567479,223.23689423333335,52.0,76.0
925,222.5567479,223.2663059666667,55.0,76.0
926,223.2185119,223.84534946666668,43.0,76.0
927,222.5567479,223.84902593333334,36.0,76.0
928,223.43909990000003,223.89130530000003,60.0,76.0
929,223.43909990000003,223.90968763333336,52.0,76.0
930,223.43909990000003,223.91887880000002,55.0,76.0
931,223.88027590000002,224.32880483333335,48.0,76.0
932,224.32145190000003,225.02365703333336,55.0,76.0
933,224.32145190000003,225.0254952666667,64.0,76.0
934,224.32145190000003,225.0310099666667,59.0,76.0
935,224.32145190000003,225.53100943333334,40.0,76.0
936,225.20380390000003,225.69645043333335,64.0,76.0
937,225.20380390000003,225.70196513333335,55.0,76.0
938,225.20380390000003,225.72953863333336,59.0,76.0
939,226.08615590000002,226.80490513333336,69.0,76.0
940,226.08615590000002,226.81409630000002,60.0,76.0
941,226.08615590000002,226.83431686666668,64.0,76.0
942,226.96850790000002,227.76997763333335,69.0,76.0
943,226.96850790000002,227.80674230000002,64.0,76.0
944,226.96850790000002,227.82144816666667,60.0,76.0
945,226.08615590000002,227.8784334,45.0,76.0
946,227.85085990000002,228.087992,62.0,76.0
947,227.85085990000002,228.51262390000002,57.0,76.0
948,227.85085990000002,228.58982970000002,54.0,76.0
949,228.73321190000001,229.09718210000003,62.0,76.0
950,228.73321190000001,229.12659383333335,57.0,76.0
951,227.85085990000002,229.15232910000003,38.0,76.0
952,228.73321190000001,229.17990260000002,54.0,76.0
953,229.6155639,230.1063722,52.0,76.0
954,229.6155639,230.1155633666667,55.0,76.0
955,229.6155639,230.11740160000002,60.0,76.0
956,229.6155639,230.48872473333336,36.0,76.0
957,230.4979159,234.0254856666667,62.0,76.0
958,230.4979159,234.0824709,57.0,76.0
959,230.4979159,234.1026914666667,38.0,76.0
960,230.4979159,234.12842673333336,54.0,76.0
961,234.90967590000002,235.6909250666667,55.0,77.0
962,234.90967590000002,235.69276330000002,64.0,77.0
963,234.90967590000002,235.71114563333336,59.0,77.0
964,235.79202790000002,238.07695193333336,59.0,77.0
965,235.79202790000002,238.21849590000002,64.0,77.0
966,238.4390839,243.0769466,59.0,77.0
967,238.4390839,243.12657890000003,52.0,77.0
968,234.90967590000002,243.17253473333335,40.0,77.0
969,238.4390839,243.21849056666667,64.0,77.0
970,235.79202790000002,243.23319643333335,55.0,77.0
971,238.4390839,243.2846669666667,47.0,77.0
