,start,end,pitch,velocity
0,33.43125,33.68125,76.0,94.0
1,33.68125,33.93125,78.0,110.0
2,33.93125,34.18125,76.0,104.0
3,34.18125,34.43125,74.0,109.0
4,34.43125,34.93125,71.0,106.0
5,34.93125,35.17916666666667,74.0,94.0
6,35.18125,37.43125,74.0,101.0
7,37.43125,37.68125,71.0,101.0
8,37.68125,37.92916666666667,74.0,101.0
9,37.93125,38.18125,74.0,106.0
10,38.18125,38.43125,76.0,104.0
11,38.43125,38.93125,74.0,112.0
12,38.93125,39.18125,71.0,109.0
13,39.18125,41.42916666666667,69.0,99.0
14,41.43125,41.68125,69.0,112.0
15,41.68125,41.93125,71.0,106.0
16,41.93125,42.18125,69.0,109.0
17,42.18125,42.43125,67.0,109.0
18,42.43125,42.69166666666666,69.0,104.0
19,42.69166666666666,42.95,64.0,104.0
20,42.93125,44.17916666666667,67.0,109.0
21,44.18125,44.43125,67.0,109.0
22,44.43125,44.7,69.0,109.0
23,44.7,44.93125,64.0,109.0
24,44.93125,45.92916666666667,67.0,94.0
25,45.93125,46.17916666666667,67.0,104.0
26,46.18125,46.42916666666667,67.0,104.0
27,46.43125,46.67916666666667,67.0,109.0
28,46.68125,46.92916666666667,67.0,109.0
29,46.93125,47.17916666666667,67.0,104.0
30,47.18125,47.43125,67.0,106.0
31,47.43125,47.93125,74.0,112.0
32,47.93125,48.28125,76.0,106.0
33,48.28125,48.672916666666666,69.0,94.0
34,48.645833333333336,48.91041666666666,71.0,80.0
35,48.87083333333333,49.43125,69.0,84.0
36,49.43125,49.67916666666667,76.0,94.0
37,49.68125,49.92916666666667,76.0,110.0
38,49.93125,50.19375,76.0,104.0
39,50.19375,50.41875,71.0,109.0
40,50.41875,50.93125,76.0,106.0
41,50.93125,51.18125,71.0,94.0
42,51.18125,53.43125,74.0,101.0
43,53.43125,53.69166666666666,71.0,101.0
44,53.69375,53.93125,71.0,101.0
45,53.93125,54.18125,74.0,106.0
46,54.18125,54.43333333333333,71.0,104.0
47,54.43333333333333,54.666666666666664,74.0,107.0
48,54.668749999999996,54.94375,74.0,99.0
49,54.94375,55.21666666666667,76.0,93.0
50,55.18125,57.43125,69.0,99.0
51,57.43125,57.67916666666667,74.0,109.0
52,57.68125,57.93125,74.0,109.0
53,57.93125,58.18125,76.0,106.0
54,58.18125,58.43125,74.0,115.0
55,58.43125,58.93125,79.0,115.0
56,58.93125,59.43125,76.0,112.0
57,59.43125,59.67916666666667,74.0,112.0
58,59.68125,59.93125,74.0,109.0
59,59.93125,60.18125,76.0,109.0
60,60.18125,60.43125,74.0,115.0
61,60.43125,60.93125,79.0,112.0
62,60.93125,61.68125,76.0,112.0
63,61.68125,61.93125,74.0,112.0
64,61.93125,62.18125,76.0,101.0
65,62.18125,62.43125,74.0,115.0
66,62.43125,62.68125,79.0,115.0
67,62.68125,62.93125,76.0,106.0
68,62.93125,63.18125,79.0,112.0
69,63.18125,63.43125,76.0,104.0
70,63.43125,63.92916666666667,79.0,115.0
71,63.93125,64.18125,79.0,112.0
72,64.18125,64.68125,81.0,115.0
73,64.68125,64.93125,83.0,115.0
74,64.93125,65.2132351875,81.0,112.0
75,65.2132351875,66.09313670833333,74.0,115.0
76,66.0955876875,66.3897051875,74.0,115.0
77,66.3897051875,66.6838226875,76.0,109.0
78,66.6838226875,66.9779401875,83.0,115.0
79,66.9779401875,67.2720576875,81.0,112.0
80,67.2720576875,67.52904295833332,83.0,115.0
81,67.52904295833332,67.77904295833332,81.0,115.0
82,67.77904295833332,68.27904295833332,83.0,118.0
83,68.27904295833332,68.52904295833332,86.0,109.0
84,68.52904295833332,69.02695962499999,81.0,112.0
85,69.02904295833332,69.27695962499999,81.0,109.0
86,69.27904295833332,69.52695962499999,81.0,112.0
87,69.52904295833332,69.77904295833332,81.0,115.0
88,69.77904295833332,70.77904295833332,83.0,115.0
89,70.77904295833332,71.27904295833332,86.0,109.0
90,71.27904295833332,74.27695962499999,79.0,109.0
91,74.27904295833332,74.52904295833332,79.0,109.0
92,74.52904295833332,74.77904295833332,81.0,112.0
93,74.77904295833332,75.02904295833332,83.0,115.0
94,75.02904295833332,75.27904295833332,81.0,115.0
95,75.27904295833332,75.52904295833332,83.0,112.0
96,75.52904295833332,75.77904295833332,81.0,115.0
97,75.77904295833332,76.27695962499999,83.0,115.0
98,76.27904295833332,76.52695962499999,83.0,112.0
99,76.52904295833332,76.77904295833332,83.0,112.0
100,76.77904295833332,77.02695962499999,81.0,118.0
101,77.02904295833332,77.27695962499999,81.0,109.0
102,77.27904295833332,77.52695962499999,81.0,112.0
103,77.52904295833332,77.77904295833332,81.0,115.0
104,77.77904295833332,78.27904295833332,88.0,115.0
105,78.27904295833332,78.77904295833332,86.0,115.0
106,78.77904295833332,79.27904295833332,81.0,106.0
107,79.27904295833332,80.52695962499999,79.0,112.0
108,80.52904295833332,80.77904295833332,79.0,109.0
109,80.77904295833332,81.27904295833332,78.0,113.0
110,81.27904295833332,81.52904295833332,79.0,109.0
111,81.52904295833332,82.02904295833332,78.0,117.0
112,82.02904295833332,82.77904295833332,79.0,117.0
113,82.77904295833332,85.77904295833332,76.0,106.0
114,85.77904295833332,86.02904295833332,83.0,109.0
115,86.02904295833332,86.27904295833332,81.0,118.0
116,86.27904295833332,86.52904295833332,79.0,115.0
117,86.52904295833332,86.77904295833332,81.0,115.0
118,86.77904295833332,87.02904295833332,83.0,112.0
119,87.02904295833332,87.27904295833332,81.0,115.0
120,87.27904295833332,87.52904295833332,83.0,112.0
121,87.52904295833332,87.77904295833332,81.0,115.0
122,87.77904295833332,88.27904295833332,83.0,115.0
123,88.27904295833332,88.52904295833332,86.0,109.0
124,88.52904295833332,89.02695962499999,81.0,112.0
125,89.02904295833332,89.27695962499999,81.0,112.0
126,89.27904295833332,89.52695962499999,81.0,115.0
127,89.52904295833332,89.77904295833332,81.0,112.0
128,89.77904295833332,90.77904295833332,83.0,118.0
129,90.77904295833332,91.27904295833332,86.0,115.0
130,91.27904295833332,94.27695962499999,79.0,109.0
131,94.27904295833332,94.52904295833332,79.0,112.0
132,94.52904295833332,94.77904295833332,81.0,112.0
133,94.77904295833332,95.02904295833332,83.0,112.0
134,95.02904295833332,95.27904295833332,81.0,112.0
135,95.27904295833332,95.52904295833332,83.0,115.0
136,95.52904295833332,95.77904295833332,81.0,112.0
137,95.77904295833332,96.02904295833332,83.0,115.0
138,96.02904295833332,96.52904295833332,86.0,112.0
139,96.52904295833332,96.77904295833332,79.0,109.0
140,96.77904295833332,97.02695962499999,81.0,112.0
141,97.02904295833332,97.27695962499999,81.0,112.0
142,97.27904295833332,97.52695962499999,81.0,115.0
143,97.52904295833332,97.77904295833332,81.0,106.0
144,97.77904295833332,98.27904295833332,88.0,112.0
145,98.27904295833332,98.77904295833332,86.0,112.0
146,98.77904295833332,99.27904295833332,78.0,117.0
147,99.27904295833332,100.52695962499999,79.0,106.0
148,100.52904295833332,100.77904295833332,79.0,112.0
149,100.77904295833332,101.27695962499999,78.0,117.0
150,101.27904295833332,101.52904295833332,78.0,113.0
151,101.52904295833332,102.27904295833332,79.0,112.0
152,102.27904295833332,102.77904295833332,78.0,120.0
153,102.77904295833332,103.27904295833332,74.0,109.0
154,103.27904295833332,104.27904295833332,76.0,106.0
155,104.27904295833332,104.83737629166666,83.0,96.0
156,104.77904295833332,112.27904295833332,81.0,106.0
157,135.77904295833332,136.02904295833332,76.0,94.0
158,136.02904295833332,136.27904295833332,78.0,110.0
159,136.27904295833332,136.52904295833332,76.0,104.0
160,136.52904295833332,136.77904295833332,74.0,109.0
161,136.77904295833332,137.27904295833332,71.0,106.0
162,137.27904295833332,137.526959625,74.0,94.0
163,137.52904295833332,139.77904295833332,74.0,101.0
164,139.77904295833332,140.02904295833332,71.0,101.0
165,140.02904295833332,140.276959625,74.0,101.0
166,140.27904295833332,140.52904295833332,74.0,106.0
167,140.52904295833332,140.77904295833332,76.0,104.0
168,140.77904295833332,141.27904295833332,74.0,112.0
169,141.27904295833332,141.52904295833332,71.0,109.0
170,141.52904295833332,143.776959625,69.0,99.0
171,143.77904295833332,144.02904295833332,69.0,112.0
172,144.02904295833332,144.27904295833332,71.0,106.0
173,144.27904295833332,144.52904295833332,69.0,109.0
174,144.52904295833332,144.77904295833332,67.0,109.0
175,144.77904295833332,145.039459625,69.0,104.0
176,145.039459625,145.29779295833333,64.0,104.0
177,145.27904295833332,146.526959625,67.0,109.0
178,146.52904295833332,146.77904295833332,67.0,109.0
179,146.77904295833332,147.0415429583333,69.0,109.0
180,147.0415429583333,147.27904295833332,64.0,109.0
181,147.27904295833332,148.276959625,67.0,94.0
182,148.27904295833332,148.526959625,67.0,104.0
183,148.52904295833332,148.776959625,67.0,104.0
184,148.77904295833332,149.026959625,67.0,109.0
185,149.02904295833332,149.276959625,67.0,109.0
186,149.27904295833332,149.526959625,67.0,104.0
187,149.52904295833332,149.77904295833332,67.0,106.0
188,149.77904295833332,150.27904295833332,74.0,112.0
189,150.27904295833332,150.78112629166668,76.0,106.0
190,150.78112629166668,151.01445962499997,69.0,94.0
191,151.01445962499997,151.24154295833333,71.0,78.0
192,151.24154295833333,151.77904295833332,69.0,84.0
193,151.77904295833332,152.02904295833332,76.0,94.0
194,152.02904295833332,152.27904295833332,78.0,110.0
195,152.27904295833332,152.5415429583333,76.0,104.0
196,152.5415429583333,152.76654295833333,71.0,109.0
197,152.76654295833333,153.27904295833332,76.0,106.0
198,153.27904295833332,153.52904295833332,71.0,94.0
199,153.52904295833332,155.77904295833332,74.0,101.0
200,155.77904295833332,156.039459625,71.0,101.0
201,156.0415429583333,156.27904295833332,71.0,101.0
202,156.27904295833332,156.52904295833332,74.0,106.0
203,156.52904295833332,156.77904295833332,71.0,104.0
204,156.77904295833332,157.27904295833332,76.0,112.0
205,157.27904295833332,157.52904295833332,71.0,109.0
206,157.52904295833332,159.77904295833332,69.0,99.0
207,159.77904295833332,160.026959625,74.0,109.0
208,160.02904295833332,160.27904295833332,74.0,109.0
209,160.27904295833332,160.52904295833332,76.0,106.0
210,160.52904295833332,160.77904295833332,74.0,115.0
211,160.77904295833332,161.27904295833332,79.0,115.0
212,161.27904295833332,161.77904295833332,76.0,112.0
213,161.77904295833332,162.026959625,74.0,112.0
214,162.02904295833332,162.27904295833332,74.0,109.0
215,162.27904295833332,162.52904295833332,76.0,109.0
216,162.52904295833332,162.77904295833332,74.0,115.0
217,162.77904295833332,163.27904295833332,79.0,112.0
218,163.27904295833332,164.02904295833332,76.0,112.0
219,164.02904295833332,164.27904295833332,74.0,112.0
220,164.27904295833332,164.52904295833332,76.0,101.0
221,164.52904295833332,164.77904295833332,74.0,115.0
222,164.77904295833332,165.02904295833332,79.0,115.0
223,165.02904295833332,165.27904295833332,76.0,106.0
224,165.27904295833332,165.52904295833332,79.0,112.0
225,165.52904295833332,165.77904295833332,76.0,104.0
226,165.77904295833332,166.276959625,79.0,115.0
227,166.27904295833332,166.52904295833332,79.0,112.0
228,166.52904295833332,167.02904295833332,81.0,115.0
229,167.02904295833332,167.27904295833332,83.0,115.0
230,167.27904295833332,167.52904295833332,81.0,112.0
231,167.52904295833332,168.276959625,74.0,115.0
232,168.27904295833332,168.52904295833332,74.0,115.0
233,168.52904295833332,168.77904295833332,76.0,109.0
234,168.77904295833332,169.02904295833332,83.0,115.0
235,169.02904295833332,169.27904295833332,81.0,112.0
236,169.27904295833332,169.52904295833332,83.0,115.0
237,169.52904295833332,169.77904295833332,81.0,115.0
238,169.77904295833332,170.27904295833332,83.0,118.0
239,170.27904295833332,170.52904295833332,86.0,109.0
240,170.52904295833332,171.026959625,81.0,112.0
241,171.02904295833332,171.276959625,81.0,109.0
242,171.27904295833332,171.526959625,81.0,112.0
243,171.52904295833332,171.77904295833332,81.0,115.0
244,171.77904295833332,172.77904295833332,83.0,115.0
245,172.77904295833332,173.27904295833332,86.0,109.0
246,173.27904295833332,176.276959625,79.0,109.0
247,176.27904295833332,176.52904295833332,79.0,109.0
248,176.52904295833332,176.77904295833332,81.0,112.0
249,176.77904295833332,177.02904295833332,83.0,115.0
250,177.02904295833332,177.27904295833332,81.0,115.0
251,177.27904295833332,177.52904295833332,83.0,112.0
252,177.52904295833332,177.77904295833332,81.0,115.0
253,177.77904295833332,178.276959625,83.0,115.0
254,178.27904295833332,178.526959625,83.0,112.0
255,178.52904295833332,178.77904295833332,83.0,112.0
256,178.77904295833332,179.026959625,81.0,118.0
257,179.02904295833332,179.276959625,81.0,109.0
258,179.27904295833332,179.526959625,81.0,112.0
259,179.52904295833332,179.77904295833332,81.0,115.0
260,179.77904295833332,180.27904295833332,88.0,115.0
261,180.27904295833332,180.77904295833332,86.0,115.0
262,180.77904295833332,181.27904295833332,81.0,106.0
263,181.27904295833332,182.526959625,79.0,112.0
264,182.52904295833332,182.77904295833332,79.0,109.0
265,182.77904295833332,183.27904295833332,78.0,113.0
266,183.27904295833332,183.52904295833332,79.0,109.0
267,183.52904295833332,184.02904295833332,78.0,117.0
268,184.02904295833332,184.77904295833332,79.0,117.0
269,184.77904295833332,187.77904295833332,76.0,106.0
270,187.77904295833332,188.02904295833332,83.0,109.0
271,188.02904295833332,188.27904295833332,81.0,118.0
272,188.27904295833332,188.52904295833332,79.0,115.0
273,188.52904295833332,188.77904295833332,81.0,115.0
274,188.77904295833332,189.02904295833332,83.0,112.0
275,189.02904295833332,189.27904295833332,81.0,115.0
276,189.27904295833332,189.52904295833332,83.0,112.0
277,189.52904295833332,189.77904295833332,81.0,115.0
278,189.77904295833332,190.27904295833332,83.0,115.0
279,190.27904295833332,190.52904295833332,86.0,109.0
280,190.52904295833332,191.026959625,81.0,112.0
281,191.02904295833332,191.276959625,81.0,112.0
282,191.27904295833332,191.526959625,81.0,115.0
283,191.52904295833332,191.77904295833332,81.0,112.0
284,191.77904295833332,192.77904295833332,83.0,118.0
285,192.77904295833332,193.27904295833332,86.0,115.0
286,193.27904295833332,196.27695962500002,79.0,109.0
287,196.27904295833332,196.52904295833332,79.0,112.0
288,196.52904295833332,196.77904295833332,81.0,112.0
289,196.77904295833332,197.02904295833332,83.0,112.0
290,197.02904295833332,197.27904295833332,81.0,112.0
291,197.27904295833332,197.52904295833332,83.0,115.0
292,197.52904295833332,197.77904295833332,81.0,112.0
293,197.77904295833332,198.02904295833332,83.0,115.0
294,198.02904295833332,198.52904295833332,86.0,112.0
295,198.52904295833332,198.77904295833332,79.0,109.0
296,198.77904295833332,199.02695962500002,81.0,112.0
297,199.02904295833332,199.27695962500002,81.0,112.0
298,199.27904295833332,199.52695962500002,81.0,115.0
299,199.52904295833332,199.77904295833332,81.0,106.0
300,199.77904295833332,200.27904295833332,88.0,112.0
301,200.27904295833332,200.77904295833332,86.0,112.0
302,200.77904295833332,201.27904295833332,78.0,117.0
303,201.27904295833332,202.52695962500002,79.0,106.0
304,202.52904295833332,202.77904295833332,79.0,112.0
305,202.77904295833332,203.27695962500002,78.0,117.0
306,203.27904295833332,203.52904295833332,78.0,113.0
307,203.52904295833332,204.27904295833332,79.0,112.0
308,204.27904295833332,204.77904295833332,78.0,120.0
309,204.77904295833332,205.27904295833332,74.0,109.0
310,205.27904295833332,206.27904295833332,76.0,106.0
311,206.27904295833332,206.83737629166666,83.0,96.0
312,206.77904295833332,215.77904295833332,81.0,106.0
313,215.77904295833332,216.0440726,76.0,94.0
314,216.0440726,216.31192959999998,78.0,110.0
315,216.31192959999998,216.57978659999998,76.0,104.0
316,216.57978659999998,216.84764359999997,74.0,109.0
317,216.84764359999997,217.38335759999998,71.0,106.0
318,217.38335759999998,217.6489824583333,74.0,94.0
319,217.65121459999997,220.10577362291664,74.0,101.0
320,220.10577362291664,220.38879237291664,71.0,101.0
321,220.38879237291664,220.66945263333332,74.0,101.0
322,220.67181112291667,220.95482987291666,74.0,106.0
323,220.95482987291666,221.23784862291666,76.0,104.0
324,221.23784862291666,221.80388612291665,74.0,112.0
325,221.80388612291665,222.08690487291665,71.0,109.0
326,222.08690487291665,224.63171513333333,69.0,99.0
327,224.63407362291665,224.91709237291664,69.0,112.0
328,224.91709237291664,225.20011112291664,71.0,106.0
329,225.20011112291664,225.48312987291666,69.0,109.0
330,225.48312987291666,225.76614862291666,67.0,109.0
331,225.76614862291666,226.06095982083332,69.0,104.0
332,226.06095982083332,226.35341252916666,64.0,104.0
333,226.33218612291665,227.74492138333332,67.0,109.0
334,227.74727987291666,228.06567596666665,67.0,109.0
335,228.06567596666665,228.39114752916666,69.0,109.0
336,228.39114752916666,228.67416627916666,64.0,109.0
337,228.67416627916666,229.72605263333332,67.0,94.0
338,229.72841112291664,230.00907138333332,67.0,104.0
339,230.01142987291666,230.29209013333332,67.0,104.0
340,230.29444862291666,230.57510888333331,67.0,109.0
341,230.57746737291666,230.8581276333333,67.0,109.0
342,230.86048612291665,231.1411463833333,67.0,104.0
343,231.14350487291665,231.42652362291665,67.0,106.0
344,231.42652362291665,231.99256112291664,74.0,112.0
345,231.99256112291664,232.25907044583332,76.0,106.0
346,232.25907044583332,232.63642877916666,71.0,104.0
347,232.63642877916666,233.79444716458332,69.0,103.0
348,233.79680565416666,234.46897518541664,69.0,106.0
349,234.46897518541664,234.77322034166664,71.0,101.0
350,234.77322034166664,235.54208794583332,69.0,109.0
351,235.54208794583332,236.20010653958332,67.0,96.0
352,236.17416315416665,237.10104956041664,76.0,109.0
353,237.07982315416666,237.37935133124998,74.0,106.0
354,237.36755888333332,237.9972756020833,71.0,96.0
355,237.9972756020833,238.38642638333332,69.0,87.0
356,238.36755846666665,240.56802924791666,67.0,104.0
357,240.57038773749997,240.9335951333333,67.0,101.0
358,240.93595362291666,241.2944440395833,67.0,99.0
359,241.2944440395833,243.22133002916667,69.0,112.0
360,243.22133002916667,244.30623523749998,71.0,101.0
361,244.24019752916666,244.60104643541666,69.0,96.0
362,244.60104643541666,247.91944127916665,67.0,80.0
