,start,end,pitch,velocity
0,0.71875,1.0625,62.0,89.0
1,0.7645833333333333,1.1729166666666666,50.0,104.0
2,1.4020833333333333,1.8770833333333332,59.0,78.0
3,1.5,1.8958333333333333,62.0,99.0
4,1.475,1.95,47.0,78.0
5,0.7604166666666666,2.125,66.0,108.0
6,1.4208333333333334,2.15,57.0,78.0
7,2.25,2.4229166666666666,36.0,94.0
8,2.2020833333333334,2.872916666666667,60.0,64.0
9,2.24375,2.8791666666666664,64.0,82.0
10,3.120833333333333,3.3916666666666666,60.0,58.0
11,2.9791666666666665,5.879166666666666,55.0,26.0
12,2.7041666666666666,5.989583333333333,48.0,73.0
13,3.277083333333333,7.270833333333333,62.0,99.0
14,3.49375,7.291666666666667,67.0,82.0
15,7.5375,7.7625,59.0,78.0
16,7.6,7.8062499999999995,62.0,99.0
17,7.608333333333333,7.8125,47.0,73.0
18,7.633333333333333,7.829166666666667,66.0,99.0
19,8.302083333333334,8.458333333333334,40.0,71.0
20,8.245833333333334,8.49375,52.0,78.0
21,8.29375,8.516666666666666,55.0,78.0
22,8.34375,8.60625,59.0,89.0
23,9.416666666666666,9.604166666666666,43.0,74.0
24,9.13125,9.65,36.0,91.0
25,9.65,9.797916666666666,48.0,73.0
26,9.85625,10.05,50.0,82.0
27,10.05,10.145833333333334,52.0,71.0
28,10.5875,12.416666666666666,55.0,55.0
29,10.310416666666667,12.4625,48.0,80.0
30,11.14375,12.897916666666667,72.0,10.0
31,10.795833333333333,12.90625,60.0,76.0
32,14.924999999999999,15.422916666666666,60.0,85.0
33,15.004166666666666,15.479166666666666,64.0,91.0
34,15.060416666666667,15.497916666666667,67.0,91.0
35,15.729166666666666,15.879166666666666,60.0,101.0
36,15.4125,15.9,55.0,73.0
37,15.010416666666666,15.91875,48.0,101.0
38,15.725,16.041666666666668,64.0,106.0
39,16.072916666666668,16.195833333333333,60.0,62.0
40,15.727083333333333,16.40625,67.0,104.0
41,16.41875,16.925,62.0,101.0
42,16.414583333333333,16.941666666666666,59.0,82.0
43,16.39375,16.979166666666668,66.0,86.0
44,17.19375,17.241666666666667,59.0,85.0
45,16.797916666666666,17.297916666666666,54.0,22.0
46,16.41875,17.397916666666667,47.0,91.0
47,17.170833333333334,17.6125,62.0,112.0
48,17.53333333333333,17.645833333333332,59.0,91.0
49,17.170833333333334,17.652083333333334,66.0,117.0
50,17.825,18.2125,60.0,87.0
51,17.935416666666665,18.272916666666667,67.0,19.0
52,17.897916666666667,18.295833333333334,64.0,99.0
53,18.21875,18.697916666666668,55.0,85.0
54,18.55625,18.729166666666668,60.0,99.0
55,17.89375,18.78333333333333,48.0,101.0
56,18.552083333333332,18.841666666666665,64.0,104.0
57,18.55625,19.270833333333332,67.0,101.0
58,19.26875,19.683333333333334,59.0,89.0
59,19.28125,19.9125,66.0,101.0
60,19.28333333333333,20.135416666666668,62.0,104.0
61,19.264583333333334,26.052083333333332,47.0,96.0
62,19.65833333333333,26.09375,54.0,83.0
63,20.091666666666665,26.129166666666666,59.0,112.0
64,20.466666666666665,26.160416666666666,62.0,104.0
65,20.83125,26.162499999999998,43.0,69.0
66,26.43125,27.172916666666666,74.0,94.0
67,26.43125,27.241666666666667,67.0,96.0
68,27.43125,28.3,74.0,89.0
69,27.43125,28.325,67.0,89.0
70,26.93125,28.36875,62.0,89.0
71,28.43125,29.15,74.0,94.0
72,28.43125,29.285416666666666,67.0,99.0
73,29.43125,30.247916666666665,74.0,94.0
74,29.43125,30.26875,67.0,74.0
75,28.93125,30.327083333333334,62.0,91.0
76,30.43125,30.724999999999998,62.0,76.0
77,30.43125,31.18958333333333,74.0,91.0
78,30.43125,31.241666666666667,67.0,89.0
79,31.43125,32.25833333333333,74.0,96.0
80,31.43125,32.30833333333333,67.0,82.0
81,30.93125,32.333333333333336,62.0,94.0
82,32.43125,32.9875,74.0,94.0
83,32.43125,33.141666666666666,67.0,99.0
84,32.93125,33.5375,62.0,94.0
85,33.43125,34.40625,74.0,85.0
86,33.93125,34.40833333333333,62.0,89.0
87,33.43125,34.43125,67.0,87.0
88,34.43125,34.63333333333333,62.0,85.0
89,34.43125,34.96666666666667,74.0,87.0
90,34.43125,35.00625,67.0,89.0
91,34.93125,35.14375,62.0,61.0
92,35.43125,35.6375,62.0,96.0
93,35.43125,35.725,67.0,89.0
94,35.43125,35.74583333333333,74.0,94.0
95,36.43125,36.770833333333336,62.0,96.0
96,36.43125,37.03333333333333,74.0,94.0
97,36.43125,37.0625,67.0,91.0
98,36.93125,37.24583333333333,62.0,85.0
99,34.43125,37.65833333333333,43.0,78.0
100,37.43125,37.74166666666667,67.0,101.0
101,37.43125,37.760416666666664,74.0,96.0
102,37.43125,37.81666666666666,62.0,106.0
103,38.43125,38.70625,62.0,94.0
104,38.43125,38.71041666666667,66.0,83.0
105,38.43125,38.71875,59.0,82.0
106,39.43125,39.791666666666664,66.0,83.0
107,39.43125,39.81875,74.0,73.0
108,38.93125,40.520833333333336,54.0,37.0
109,40.43125,41.260416666666664,66.0,110.0
110,40.43125,41.270833333333336,74.0,87.0
111,40.93125,41.67916666666667,54.0,38.0
112,41.43125,41.7875,66.0,110.0
113,38.43125,41.84791666666666,47.0,89.0
114,41.43125,41.8625,74.0,101.0
115,42.43125,43.077083333333334,67.0,96.0
116,42.43125,43.104166666666664,64.0,82.0
117,43.43125,44.16041666666666,64.0,96.0
118,43.43125,44.16458333333333,67.0,96.0
119,44.43125,45.11875,64.0,91.0
120,44.43125,45.125,67.0,94.0
121,42.93125,45.59166666666667,59.0,61.0
122,45.43125,45.625,67.0,101.0
123,45.43125,45.670833333333334,64.0,101.0
124,42.43125,45.70625,52.0,99.0
125,46.43125,46.947916666666664,64.0,80.0
126,46.43125,46.96458333333333,67.0,89.0
127,46.43125,47.00625,60.0,85.0
128,46.93125,47.6,55.0,32.0
129,47.43125,47.635416666666664,60.0,99.0
130,47.43125,47.635416666666664,64.0,99.0
131,47.43125,47.675,67.0,96.0
132,46.43125,47.71458333333333,48.0,94.0
133,48.43125,48.56666666666666,38.0,82.0
134,48.43125,48.983333333333334,62.0,89.0
135,48.43125,49.05,69.0,91.0
136,48.43125,49.05416666666667,66.0,74.0
137,48.93125,49.59375,50.0,59.0
138,49.43125,49.764583333333334,74.0,89.0
139,49.43125,49.80833333333333,69.0,99.0
140,49.43125,49.81458333333333,66.0,101.0
141,49.43125,49.864583333333336,62.0,94.0
142,50.43125,50.9,59.0,80.0
143,50.43125,50.91041666666666,62.0,101.0
144,50.43125,50.9125,55.0,85.0
145,50.93125,51.614583333333336,50.0,38.0
146,51.43125,51.666666666666664,55.0,96.0
147,51.43125,51.983333333333334,62.0,104.0
148,51.93125,52.479166666666664,50.0,69.0
149,52.43125,52.8625,62.0,106.0
150,52.43125,52.90833333333333,55.0,96.0
151,53.43125,53.83125,55.0,104.0
152,53.43125,53.84583333333333,62.0,106.0
153,50.43125,53.89375,43.0,91.0
154,52.93125,54.547916666666666,50.0,38.0
155,54.43125,55.12083333333333,54.0,88.0
156,54.43125,55.15208333333333,62.0,101.0
157,55.43125,55.68541666666667,54.0,113.0
158,55.43125,55.80625,62.0,106.0
159,56.43125,57.0,54.0,110.0
160,56.43125,57.02291666666667,62.0,99.0
161,57.43125,57.770833333333336,54.0,117.0
162,56.93125,57.87916666666666,50.0,66.0
163,54.43125,58.02291666666667,42.0,68.0
164,57.43125,58.03125,62.0,106.0
165,58.43125,58.71875,55.0,87.0
166,58.43125,58.99375,59.0,99.0
167,58.93125,59.27291666666667,55.0,61.0
168,59.43125,59.71666666666667,55.0,104.0
169,58.43125,59.86875,40.0,89.0
170,59.43125,59.93333333333333,59.0,104.0
171,59.43125,60.00833333333333,64.0,82.0
172,60.43125,60.97291666666666,59.0,85.0
173,60.43125,61.13333333333333,62.0,104.0
174,60.43125,61.139583333333334,66.0,99.0
175,60.93125,61.50416666666666,54.0,42.0
176,60.43125,61.65208333333333,47.0,85.0
177,61.43125,61.725,59.0,99.0
178,61.43125,61.889583333333334,62.0,106.0
179,61.43125,61.94166666666666,66.0,117.0
180,61.93125,62.06666666666666,47.0,80.0
181,62.43125,62.57083333333333,36.0,99.0
182,62.43125,62.93541666666667,67.0,96.0
183,62.43125,62.954166666666666,64.0,96.0
184,62.43125,62.96458333333333,60.0,89.0
185,63.43125,63.57083333333333,60.0,99.0
186,63.43125,63.927083333333336,64.0,112.0
187,63.43125,63.92916666666667,67.0,104.0
188,63.43125,64.33541666666666,72.0,94.0
189,64.43125,64.52291666666666,38.0,104.0
190,64.43125,65.50245072916667,62.0,99.0
191,64.43125,66.5882345,66.0,83.0
192,64.43125,66.62745016666666,69.0,99.0
193,64.93125,66.69362660416667,50.0,80.0
194,65.44607820833333,66.7058815,57.0,88.0
195,65.59313695833333,66.85294025,62.0,88.0
196,66.6838226875,66.85294025,62.0,101.0
197,66.6838226875,66.97548920833333,59.0,89.0
198,66.6838226875,67.39154295833333,67.0,91.0
199,67.77904295833332,67.989459625,59.0,104.0
200,66.6838226875,68.06862629166666,43.0,96.0
201,67.77904295833332,68.34154295833332,62.0,106.0
202,67.77904295833332,68.55612629166666,67.0,99.0
203,68.27904295833332,68.59154295833332,59.0,94.0
204,68.77904295833332,69.114459625,57.0,96.0
205,68.77904295833332,69.37279295833332,62.0,99.0
206,68.77904295833332,69.41445962499999,66.0,88.0
207,69.77904295833332,70.03945962499999,57.0,104.0
208,69.77904295833332,70.18737629166667,62.0,109.0
209,68.77904295833332,70.251959625,50.0,101.0
210,69.77904295833332,70.301959625,66.0,110.0
211,70.77904295833332,70.99570962499999,59.0,87.0
212,70.77904295833332,71.30612629166666,64.0,94.0
213,70.77904295833332,71.47279295833333,67.0,89.0
214,70.77904295833332,71.83737629166666,40.0,96.0
215,71.27904295833332,71.84362629166667,59.0,69.0
216,72.27904295833332,72.50612629166666,59.0,94.0
217,71.77904295833332,72.520709625,64.0,109.0
218,71.77904295833332,72.60195962499999,67.0,101.0
219,72.77904295833332,73.16237629166666,60.0,101.0
220,72.77904295833332,73.48529295833333,48.0,101.0
221,72.77904295833332,73.63529295833332,67.0,101.0
222,73.27904295833332,73.65612629166667,55.0,87.0
223,73.77904295833332,74.13737629166665,62.0,101.0
224,73.77904295833332,74.31654295833333,66.0,101.0
225,73.77904295833332,74.32904295833333,50.0,106.0
226,74.27904295833332,74.54987629166666,62.0,104.0
227,74.77904295833332,75.14779295833333,64.0,94.0
228,74.77904295833332,75.33945962499999,67.0,91.0
229,75.27904295833332,75.80820962499999,47.0,55.0
230,75.77904295833332,75.876959625,59.0,94.0
231,74.77904295833332,75.99779295833332,40.0,101.0
232,75.77904295833332,76.314459625,64.0,109.0
233,76.27904295833332,76.47904295833332,59.0,101.0
234,75.77904295833332,76.69362629166666,67.0,106.0
235,76.77904295833332,76.84779295833333,59.0,80.0
236,76.77904295833332,77.56029295833332,62.0,104.0
237,76.77904295833332,77.60612629166665,66.0,101.0
238,77.27904295833332,77.66445962499999,59.0,85.0
239,76.77904295833332,78.06029295833332,47.0,101.0
240,77.77904295833332,78.15612629166667,59.0,104.0
241,77.77904295833332,78.18737629166667,62.0,109.0
242,77.77904295833332,78.251959625,66.0,113.0
243,78.77904295833332,79.46237629166666,67.0,91.0
244,78.77904295833332,79.53529295833333,60.0,87.0
245,79.27904295833332,79.87487629166667,55.0,67.0
246,78.77904295833332,79.93112629166666,48.0,101.0
247,79.77904295833332,80.11654295833333,60.0,106.0
248,79.77904295833332,80.16237629166666,67.0,106.0
249,80.77904295833332,80.908209625,38.0,104.0
250,80.77904295833332,82.014459625,62.0,91.0
251,81.77904295833332,82.74570962499999,57.0,96.0
252,80.77904295833332,82.783209625,66.0,99.0
253,82.77904295833332,83.32904295833333,64.0,89.0
254,82.77904295833332,83.82487629166667,60.0,80.0
255,83.27904295833332,83.91029295833333,55.0,51.0
256,83.77904295833332,84.35612629166667,62.0,104.0
257,82.77904295833332,84.514459625,48.0,91.0
258,84.27904295833332,84.67904295833333,55.0,76.0
259,84.77904295833332,85.35404295833332,66.0,96.0
260,84.77904295833332,85.37487629166665,62.0,96.0
261,85.27904295833332,85.88320962499999,57.0,76.0
262,84.77904295833332,85.970709625,50.0,91.0
263,85.77904295833332,86.32070962499999,62.0,106.0
264,85.77904295833332,86.40195962499999,66.0,117.0
265,85.77904295833332,86.614459625,74.0,99.0
266,86.52904295833332,86.670709625,66.0,25.0
267,86.27904295833332,86.69570962499999,50.0,101.0
268,86.27904295833332,86.72695962499999,57.0,106.0
269,86.52904295833332,86.73737629166666,62.0,112.0
270,86.77904295833332,86.89154295833333,43.0,106.0
271,86.77904295833332,87.10612629166667,62.0,101.0
272,86.77904295833332,87.31862629166666,67.0,99.0
273,86.77904295833332,87.55404295833333,71.0,99.0
274,87.27904295833332,87.61654295833333,62.0,91.0
275,87.77904295833332,87.98737629166666,62.0,112.0
276,87.27904295833332,88.05612629166666,50.0,48.0
277,87.77904295833332,88.11654295833333,67.0,112.0
278,88.27904295833332,88.55612629166666,62.0,82.0
279,87.77904295833332,88.614459625,71.0,101.0
280,88.77904295833332,89.23737629166666,69.0,104.0
281,88.77904295833332,89.24362629166666,62.0,104.0
282,88.77904295833332,89.25404295833333,66.0,107.0
283,88.77904295833332,89.99779295833332,50.0,106.0
284,89.27904295833332,90.00612629166666,57.0,76.0
285,89.77904295833332,90.11029295833333,62.0,106.0
286,89.77904295833332,90.13737629166667,66.0,117.0
287,89.77904295833332,90.16237629166666,69.0,106.0
288,90.27904295833332,90.40404295833332,50.0,89.0
289,90.77904295833332,90.88112629166666,40.0,101.0
290,90.77904295833332,91.470709625,64.0,96.0
291,90.77904295833332,91.51237629166667,67.0,104.0
292,91.77904295833332,92.064459625,64.0,101.0
293,91.27904295833332,92.11237629166666,52.0,85.0
294,91.77904295833332,92.32279295833332,67.0,106.0
295,92.27904295833332,92.44154295833333,64.0,106.0
296,91.77904295833332,92.62070962499999,71.0,99.0
297,92.77904295833332,93.12070962499999,60.0,99.0
298,92.77904295833332,93.23112629166665,64.0,99.0
299,92.77904295833332,93.295709625,67.0,101.0
300,92.77904295833332,93.595709625,48.0,101.0
301,93.27904295833332,93.64987629166666,55.0,87.0
302,93.52904295833332,93.658209625,60.0,112.0
303,93.77904295833332,94.05612629166666,62.0,109.0
304,93.77904295833332,94.29362629166665,66.0,113.0
305,94.02904295833332,94.395709625,57.0,101.0
306,93.77904295833332,94.42487629166666,50.0,112.0
307,94.27904295833332,94.61237629166666,62.0,109.0
308,94.52904295833332,94.71237629166666,66.0,110.0
309,94.77904295833332,94.920709625,43.0,106.0
310,94.77904295833332,95.408209625,67.0,106.0
311,94.77904295833332,95.52279295833333,62.0,109.0
312,95.77904295833332,96.033209625,62.0,109.0
313,95.27904295833332,96.30612629166666,50.0,99.0
314,95.77904295833332,96.37487629166665,67.0,112.0
315,95.77904295833332,96.37487629166665,71.0,101.0
316,96.27904295833332,96.66654295833332,62.0,106.0
317,96.77904295833332,97.30820962499999,54.0,96.0
318,96.77904295833332,97.54362629166665,57.0,91.0
319,97.52904295833332,97.54362629166665,57.0,104.0
320,96.764459625,97.645709625,62.0,99.0
321,96.84779295833333,97.84779295833333,38.0,106.0
322,97.27904295833332,97.84779295833333,52.0,76.0
323,97.77904295833332,98.38529295833332,69.0,106.0
324,97.82487629166665,98.81029295833332,57.0,77.0
325,97.82279295833332,98.82487629166665,64.0,79.0
326,97.83112629166666,98.83737629166666,45.0,74.0
327,97.82279295833332,98.845709625,60.0,83.0
328,98.77904295833332,99.02279295833333,40.0,99.0
329,98.77904295833332,99.11029295833333,52.0,91.0
330,98.77904295833332,99.14154295833333,55.0,94.0
331,99.27904295833332,100.44570962499999,52.0,89.0
332,99.27904295833332,100.44570962499999,52.0,89.0
333,100.27904295833332,100.62487629166665,59.0,64.0
334,99.77904295833332,100.701959625,64.0,101.0
335,99.77904295833332,100.71029295833333,67.0,104.0
336,100.77904295833332,101.04362629166667,62.0,101.0
337,100.77904295833332,101.39154295833333,66.0,107.0
338,101.27904295833332,101.51237629166667,62.0,85.0
339,101.77904295833332,101.94779295833332,62.0,101.0
340,100.77904295833332,102.18737629166665,50.0,94.0
341,101.77904295833332,102.34570962499998,66.0,117.0
342,102.27904295833332,102.47904295833332,62.0,94.0
343,101.77904295833332,102.68112629166666,69.0,104.0
344,102.77904295833332,103.22695962499999,64.0,99.0
345,102.77904295833332,103.545709625,60.0,80.0
346,102.77904295833332,104.25612629166666,48.0,101.0
347,103.27904295833332,104.25820962499999,55.0,85.0
348,103.77904295833332,104.27487629166666,60.0,101.0
349,104.02904295833332,104.451959625,62.0,104.0
350,104.52904295833332,104.59779295833333,60.0,66.0
351,104.27904295833332,104.75612629166666,67.0,94.0
352,104.77904295833332,106.51029295833332,62.0,87.0
353,104.77904295833332,106.551959625,66.0,91.0
354,104.77904295833332,106.55820962499999,50.0,104.0
355,106.77904295833332,107.15612629166665,59.0,104.0
356,106.77904295833332,107.16029295833333,40.0,101.0
357,106.77904295833332,107.20404295833333,64.0,106.0
358,106.77904295833332,107.33529295833333,67.0,104.0
359,107.77904295833332,108.27695962499999,62.0,96.0
360,107.77904295833332,108.28320962499998,59.0,91.0
361,107.77904295833332,108.33529295833333,66.0,99.0
362,107.77904295833332,108.35404295833332,47.0,101.0
363,108.77904295833332,109.40820962499998,67.0,101.0
364,108.77904295833332,109.46029295833333,60.0,96.0
365,109.27904295833332,109.81654295833333,55.0,91.0
366,109.77904295833332,110.09154295833332,60.0,109.0
367,109.77904295833332,110.12904295833333,64.0,118.0
368,110.02904295833332,110.26862629166666,55.0,96.0
369,108.77904295833332,110.31654295833333,48.0,104.0
370,109.77904295833332,110.389459625,67.0,115.0
371,110.27904295833332,110.60195962499999,60.0,104.0
372,110.52904295833332,110.63112629166666,64.0,91.0
373,110.77904295833332,111.19987629166667,52.0,106.0
374,110.77904295833332,111.208209625,55.0,112.0
375,110.77904295833332,111.25820962499999,40.0,104.0
376,111.77904295833332,112.34362629166665,62.0,109.0
377,111.77904295833332,112.36654295833333,59.0,96.0
378,111.77904295833332,112.38112629166666,66.0,96.0
379,111.77904295833332,112.55820962499999,47.0,101.0
380,112.77904295833332,113.114459625,53.0,112.0
381,112.77904295833332,113.20404295833333,57.0,112.0
382,113.27904295833332,113.42487629166666,53.0,106.0
383,113.02904295833332,113.58737629166666,48.0,94.0
384,112.77904295833332,113.68112629166666,41.0,109.0
385,113.52904295833332,113.82279295833332,57.0,115.0
386,113.52904295833332,113.86654295833333,53.0,106.0
387,113.52904295833332,113.87070962499999,60.0,109.0
388,113.77904295833332,114.03529295833333,41.0,51.0
389,113.77904295833332,114.03945962499999,48.0,91.0
390,114.02904295833332,114.16445962499999,53.0,112.0
391,114.02904295833332,114.37070962499999,57.0,121.0
392,114.02904295833332,114.38737629166667,65.0,109.0
393,114.02904295833332,114.420709625,60.0,115.0
394,114.77904295833332,115.08112629166666,58.0,104.0
395,114.77904295833332,115.29154295833332,62.0,109.0
396,115.02904295833332,115.583209625,53.0,74.0
397,115.27904295833332,115.81445962499998,58.0,113.0
398,115.52904295833332,116.04362629166667,62.0,112.0
399,115.52904295833332,116.083209625,65.0,109.0
400,116.02904295833332,116.47695962499999,58.0,113.0
401,116.27904295833332,116.56029295833332,62.0,104.0
402,116.52904295833332,116.645709625,65.0,106.0
403,114.77904295833332,116.65612629166665,46.0,117.0
404,115.77904295833332,116.69779295833332,53.0,82.0
405,116.77904295833332,117.12487629166665,60.0,91.0
406,116.77904295833332,117.34154295833332,64.0,101.0
407,117.02904295833332,117.62695962499998,53.0,85.0
408,117.52904295833332,117.82904295833333,67.0,96.0
409,117.27904295833332,117.86029295833333,60.0,96.0
410,117.52904295833332,118.04362629166667,64.0,109.0
411,118.02904295833332,118.36029295833333,60.0,91.0
412,118.27904295833332,118.53945962499999,64.0,115.0
413,118.27904295833332,118.56445962499998,67.0,99.0
414,116.77904295833332,118.60195962499999,46.0,99.0
415,117.77904295833332,118.62487629166665,53.0,87.0
416,118.52904295833332,118.65612629166665,60.0,96.0
417,118.77904295833332,119.09987629166666,58.0,113.0
418,118.77904295833332,119.30612629166666,62.0,106.0
419,119.27904295833332,119.49154295833333,58.0,96.0
420,119.02904295833332,119.64987629166666,53.0,96.0
421,119.52904295833332,119.86654295833333,58.0,101.0
422,119.52904295833332,120.08112629166666,62.0,104.0
423,119.52904295833332,120.11029295833333,65.0,106.0
424,120.02904295833332,120.49154295833333,58.0,101.0
425,120.27904295833332,120.576959625,62.0,94.0
426,118.77904295833332,120.65820962499998,46.0,96.0
427,119.77904295833332,120.670709625,53.0,89.0
428,120.52904295833332,120.68320962499999,65.0,101.0
429,120.77904295833332,121.07904295833333,60.0,101.0
430,120.77904295833332,121.31237629166665,64.0,106.0
431,120.77904295833332,121.35612629166667,67.0,104.0
432,121.27904295833332,121.41029295833333,60.0,89.0
433,121.02904295833332,121.57904295833333,55.0,94.0
434,121.52904295833332,121.87487629166665,60.0,106.0
435,121.52904295833332,121.93529295833332,64.0,112.0
436,121.52904295833332,122.04154295833332,72.0,94.0
437,121.77904295833332,122.07487629166667,55.0,89.0
438,120.77904295833332,122.10195962499999,48.0,104.0
439,121.52904295833332,122.108209625,67.0,112.0
440,122.02904295833332,122.31445962499998,60.0,109.0
441,123.27904295833332,123.41029295833333,48.0,74.0
442,123.27904295833332,123.420709625,62.0,101.0
443,123.27904295833332,123.42487629166666,58.0,93.0
444,123.77904295833332,125.75820962499999,63.0,80.0
445,123.77904295833332,125.770709625,56.0,80.0
446,123.77904295833332,125.79987629166666,51.0,67.0
447,123.77904295833332,125.80404295833333,44.0,63.0
448,126.77904295833332,127.64362629166666,55.0,101.0
449,126.77904295833332,127.86237629166666,59.0,101.0
450,127.52904295833332,128.09154295833332,50.0,40.0
451,127.77904295833332,128.24362629166666,55.0,99.0
452,128.02904295833332,128.3540429583333,62.0,104.0
453,126.77904295833332,128.65404295833332,43.0,104.0
454,128.77904295833332,130.151959625,55.0,101.0
455,128.77904295833332,130.364459625,60.0,101.0
456,130.02904295833332,130.576959625,50.0,76.0
457,130.27904295833332,130.6040429583333,55.0,101.0
458,128.77904295833332,130.61029295833333,43.0,104.0
459,130.52904295833332,130.69987629166667,60.0,96.0
460,130.77904295833332,131.395709625,55.0,106.0
461,131.27904295833332,131.633209625,50.0,61.0
462,130.77904295833332,131.76862629166666,59.0,104.0
463,131.52904295833332,131.86654295833333,55.0,96.0
464,131.77904295833332,132.1040429583333,50.0,74.0
465,130.77904295833332,132.19362629166665,43.0,104.0
466,132.02904295833332,132.27904295833332,55.0,109.0
467,132.02904295833332,132.36654295833333,59.0,112.0
468,132.02904295833332,132.589459625,62.0,112.0
469,132.52904295833332,132.664459625,55.0,106.0
470,132.27904295833332,132.676959625,43.0,89.0
471,132.64779295833333,134.1352929583333,36.0,99.0
472,132.59987629166665,135.06862629166665,60.0,85.0
473,132.76445962499997,135.10820962499997,67.0,74.0
474,132.683209625,135.11237629166666,64.0,99.0
475,132.84154295833332,135.22070962499998,72.0,40.0
476,137.27904295833332,137.70195962499997,59.0,99.0
477,137.27904295833332,137.71237629166666,62.0,106.0
478,137.27904295833332,137.83112629166666,66.0,96.0
479,137.27904295833332,137.88737629166667,47.0,99.0
480,138.02904295833332,138.351959625,60.0,94.0
481,138.02904295833332,138.35820962499997,48.0,104.0
482,138.02904295833332,138.37904295833334,64.0,101.0
483,138.77904295833332,139.25195962499998,38.0,96.0
484,138.77904295833332,140.70195962499997,62.0,101.0
485,138.77904295833332,140.72070962499998,66.0,99.0
486,140.77904295833332,141.05404295833333,62.0,94.0
487,140.77904295833332,141.058209625,66.0,83.0
488,140.77904295833332,141.06654295833334,59.0,82.0
489,141.77904295833332,142.13945962499997,66.0,83.0
490,141.77904295833332,142.1665429583333,74.0,73.0
491,141.27904295833332,142.86862629166666,54.0,37.0
492,142.77904295833332,143.60820962499997,66.0,110.0
493,142.77904295833332,143.61862629166666,74.0,87.0
494,143.27904295833332,144.026959625,54.0,38.0
495,143.77904295833332,144.1352929583333,66.0,110.0
496,140.77904295833332,144.195709625,47.0,89.0
497,143.77904295833332,144.21029295833333,74.0,101.0
498,144.77904295833332,145.42487629166666,67.0,96.0
499,144.77904295833332,145.45195962499997,64.0,82.0
500,145.77904295833332,146.508209625,64.0,96.0
501,145.77904295833332,146.51237629166667,67.0,96.0
502,146.77904295833332,147.46654295833332,64.0,91.0
503,146.77904295833332,147.47279295833334,67.0,94.0
504,145.27904295833332,147.93945962499998,59.0,61.0
505,147.77904295833332,147.97279295833334,67.0,101.0
506,147.77904295833332,148.01862629166666,64.0,101.0
507,144.77904295833332,148.05404295833333,52.0,99.0
508,148.77904295833332,149.29570962499997,64.0,80.0
509,148.77904295833332,149.31237629166668,67.0,89.0
510,148.776959625,149.351959625,61.0,85.0
511,149.27904295833332,149.9477929583333,55.0,32.0
512,149.776959625,149.98112629166667,61.0,99.0
513,149.77904295833332,149.98320962499997,64.0,99.0
514,149.77904295833332,150.02279295833333,67.0,96.0
515,148.78529295833334,150.06862629166665,49.0,94.0
516,150.77904295833332,150.914459625,38.0,82.0
517,150.77904295833332,151.33112629166666,62.0,89.0
518,150.77904295833332,151.39779295833333,69.0,91.0
519,150.77904295833332,151.401959625,66.0,74.0
520,151.27904295833332,151.94154295833334,50.0,59.0
521,151.77904295833332,152.11237629166666,74.0,89.0
522,151.77904295833332,152.15612629166668,69.0,99.0
523,151.77904295833332,152.16237629166665,66.0,101.0
524,151.77904295833332,152.21237629166666,62.0,94.0
525,152.77904295833332,153.24779295833332,59.0,80.0
526,152.77904295833332,153.258209625,62.0,101.0
527,152.77904295833332,153.2602929583333,55.0,85.0
528,153.27904295833332,153.96237629166666,50.0,38.0
529,153.77904295833332,154.01445962499997,55.0,96.0
530,153.77904295833332,154.33112629166666,62.0,104.0
531,154.27904295833332,154.82695962499997,50.0,69.0
532,154.77904295833332,155.21029295833333,62.0,106.0
533,154.77904295833332,155.25612629166665,55.0,96.0
534,155.77904295833332,156.17904295833333,55.0,104.0
535,155.77904295833332,156.19362629166665,62.0,106.0
536,152.77904295833332,156.24154295833333,43.0,91.0
537,155.27904295833332,156.895709625,50.0,38.0
538,156.77904295833332,157.46862629166668,54.0,88.0
539,156.77904295833332,157.49987629166668,62.0,101.0
540,157.77904295833332,158.03320962499998,54.0,113.0
541,157.77904295833332,158.15404295833332,62.0,106.0
542,158.77904295833332,159.34779295833334,54.0,110.0
543,158.77904295833332,159.370709625,62.0,99.0
544,159.77904295833332,160.11862629166666,54.0,117.0
545,159.27904295833332,160.226959625,50.0,66.0
546,156.77904295833332,160.370709625,42.0,68.0
547,159.77904295833332,160.37904295833334,62.0,106.0
548,160.77904295833332,161.06654295833334,55.0,87.0
549,160.77904295833332,161.34154295833332,59.0,99.0
550,161.27904295833332,161.620709625,55.0,61.0
551,161.77904295833332,162.06445962499998,55.0,104.0
552,160.77904295833332,162.21654295833332,40.0,89.0
553,161.77904295833332,162.28112629166668,59.0,104.0
554,161.77904295833332,162.35612629166667,64.0,82.0
555,162.77904295833332,163.320709625,59.0,85.0
556,162.77904295833332,163.48112629166667,62.0,104.0
557,162.77904295833332,163.48737629166666,66.0,99.0
558,163.27904295833332,163.851959625,54.0,42.0
559,162.77904295833332,163.99987629166668,47.0,85.0
560,163.77904295833332,164.0727929583333,59.0,99.0
561,163.77904295833332,164.23737629166666,62.0,106.0
562,163.77904295833332,164.289459625,66.0,117.0
563,164.27904295833332,164.414459625,47.0,80.0
564,164.78529295833334,164.92487629166666,37.0,99.0
565,164.77904295833332,165.28320962499998,67.0,96.0
566,164.77904295833332,165.301959625,64.0,96.0
567,164.776959625,165.31029295833332,61.0,89.0
568,165.78112629166668,165.92070962499997,61.0,99.0
569,165.77904295833332,166.27487629166666,64.0,112.0
570,165.77904295833332,166.276959625,67.0,104.0
571,165.78112629166668,166.68529295833332,73.0,94.0
572,166.77904295833332,166.870709625,38.0,104.0
573,166.77904295833332,167.77487629166666,62.0,99.0
574,166.77904295833332,168.6977929583333,66.0,83.0
575,166.77904295833332,168.73112629166667,69.0,99.0
576,167.27904295833332,168.78737629166665,50.0,80.0
577,167.726959625,168.79779295833333,57.0,88.0
578,167.851959625,168.92279295833333,62.0,88.0
579,168.77904295833332,168.92279295833333,62.0,101.0
580,168.77904295833332,169.026959625,59.0,89.0
581,168.77904295833332,169.39154295833333,67.0,91.0
582,169.77904295833332,169.989459625,59.0,104.0
583,168.77904295833332,170.06862629166665,43.0,96.0
584,169.77904295833332,170.34154295833332,62.0,106.0
585,169.77904295833332,170.55612629166666,67.0,99.0
586,170.27904295833332,170.59154295833332,59.0,94.0
587,170.77904295833332,171.114459625,57.0,96.0
588,170.77904295833332,171.37279295833332,62.0,99.0
589,170.77904295833332,171.414459625,66.0,88.0
590,171.77904295833332,172.039459625,57.0,104.0
591,171.77904295833332,172.18737629166665,62.0,109.0
592,170.77904295833332,172.25195962499998,50.0,101.0
593,171.77904295833332,172.301959625,66.0,110.0
594,172.77904295833332,172.995709625,59.0,87.0
595,172.77904295833332,173.30612629166666,64.0,94.0
596,172.77904295833332,173.47279295833334,67.0,89.0
597,172.77904295833332,173.83737629166666,40.0,96.0
598,173.27904295833332,173.84362629166665,59.0,69.0
599,174.27904295833332,174.50612629166665,59.0,94.0
600,173.77904295833332,174.520709625,64.0,109.0
601,173.77904295833332,174.601959625,67.0,101.0
602,174.77904295833332,175.16237629166665,60.0,101.0
603,174.77904295833332,175.48529295833333,48.0,101.0
604,174.77904295833332,175.6352929583333,67.0,101.0
605,175.27904295833332,175.65612629166665,55.0,87.0
606,175.77904295833332,176.13737629166667,62.0,101.0
607,175.77904295833332,176.31654295833334,66.0,101.0
608,175.77904295833332,176.32904295833333,50.0,106.0
609,176.27904295833332,176.54987629166666,62.0,104.0
610,176.78529295833334,177.15404295833332,62.0,94.0
611,176.77904295833332,177.339459625,67.0,91.0
612,177.28112629166665,177.81029295833332,50.0,55.0
613,177.77904295833332,177.87695962499998,59.0,94.0
614,176.776959625,177.995709625,43.0,101.0
615,177.789459625,178.32487629166667,62.0,109.0
616,178.27904295833332,178.4790429583333,59.0,101.0
617,177.77904295833332,178.69362629166665,67.0,106.0
618,178.789459625,178.85820962499997,57.0,80.0
619,178.776959625,179.558209625,62.0,104.0
620,178.79362629166667,179.620709625,66.0,101.0
621,179.289459625,179.67487629166666,57.0,85.0
622,178.78529295833334,180.06654295833334,50.0,101.0
623,179.789459625,180.1665429583333,57.0,104.0
624,179.77904295833332,180.18737629166665,62.0,109.0
625,179.77904295833332,180.25195962499998,66.0,113.0
626,180.789459625,181.47279295833334,64.0,91.0
627,180.78529295833334,181.5415429583333,59.0,87.0
628,181.27904295833332,181.87487629166665,55.0,67.0
629,180.78112629166665,181.933209625,47.0,101.0
630,181.78529295833334,182.12279295833332,59.0,106.0
631,181.776959625,182.16029295833334,64.0,106.0
632,182.77904295833332,182.90820962499998,38.0,104.0
633,182.77904295833332,184.01445962499997,62.0,91.0
634,183.77904295833332,184.745709625,57.0,96.0
635,182.77904295833332,184.78320962499998,66.0,99.0
636,184.77904295833332,185.32904295833333,64.0,89.0
637,184.77904295833332,185.82487629166667,60.0,80.0
638,185.27904295833332,185.91029295833334,55.0,51.0
639,185.77904295833332,186.35612629166667,62.0,104.0
640,184.77904295833332,186.51445962499997,48.0,91.0
641,186.27904295833332,186.67904295833333,55.0,76.0
642,186.77904295833332,187.3540429583333,66.0,96.0
643,186.77904295833332,187.37487629166665,62.0,96.0
644,187.27904295833332,187.883209625,57.0,76.0
645,186.77904295833332,187.97070962499998,50.0,91.0
646,187.77904295833332,188.320709625,62.0,106.0
647,187.77904295833332,188.401959625,66.0,117.0
648,187.77904295833332,188.614459625,74.0,99.0
649,188.52904295833332,188.67070962499997,66.0,25.0
650,188.27904295833332,188.695709625,50.0,101.0
651,188.27904295833332,188.726959625,57.0,106.0
652,188.52904295833332,188.73737629166666,62.0,112.0
653,188.77904295833332,188.89154295833333,43.0,106.0
654,188.77904295833332,189.10612629166667,62.0,101.0
655,188.77904295833332,189.31862629166665,67.0,99.0
656,188.77904295833332,189.55404295833333,71.0,99.0
657,189.27904295833332,189.61654295833333,62.0,91.0
658,189.77904295833332,189.98737629166666,62.0,112.0
659,189.27904295833332,190.05612629166666,50.0,48.0
660,189.77904295833332,190.11654295833333,67.0,112.0
661,190.27904295833332,190.55612629166666,62.0,82.0
662,189.77904295833332,190.614459625,71.0,101.0
663,190.77904295833332,191.23737629166666,69.0,104.0
664,190.77904295833332,191.24362629166666,62.0,104.0
665,190.77904295833332,191.25404295833334,66.0,107.0
666,190.77904295833332,191.99779295833332,50.0,106.0
667,191.27904295833332,192.00612629166665,57.0,76.0
668,191.77904295833332,192.11029295833333,62.0,106.0
669,191.77904295833332,192.13737629166667,66.0,117.0
670,191.77904295833332,192.16237629166665,69.0,106.0
671,192.27904295833332,192.40404295833332,50.0,89.0
672,192.77904295833332,192.88112629166665,40.0,101.0
673,192.77904295833332,193.47070962499998,64.0,96.0
674,192.77904295833332,193.51237629166667,67.0,104.0
675,193.77904295833332,194.06445962499998,64.0,101.0
676,193.27904295833332,194.11237629166666,52.0,85.0
677,193.77904295833332,194.3227929583333,67.0,106.0
678,194.27904295833332,194.44154295833334,64.0,106.0
679,193.77904295833332,194.620709625,71.0,99.0
680,194.77904295833332,195.120709625,59.0,99.0
681,194.77904295833332,195.23112629166667,62.0,99.0
682,194.77904295833332,195.29570962499997,66.0,101.0
683,194.78529295833334,195.601959625,47.0,101.0
684,195.27904295833332,195.64987629166666,54.0,87.0
685,195.78529295833334,196.06237629166668,60.0,109.0
686,195.77695962500002,196.12279295833332,48.0,112.0
687,195.77695962500002,196.2915429583333,64.0,113.0
688,196.02904295833332,196.395709625,57.0,101.0
689,196.27904295833332,196.61237629166664,62.0,109.0
690,196.28112629166668,196.62695962499998,50.0,112.0
691,196.52904295833332,196.71237629166666,66.0,110.0
692,196.77904295833332,196.92070962499997,43.0,106.0
693,196.77904295833332,197.40820962499998,67.0,106.0
694,196.77904295833332,197.5227929583333,62.0,109.0
695,197.77904295833332,198.03320962499998,62.0,109.0
696,197.27904295833332,198.30612629166666,50.0,99.0
697,197.77904295833332,198.37487629166668,67.0,112.0
698,197.77904295833332,198.37487629166668,71.0,101.0
699,198.27904295833332,198.6665429583333,62.0,106.0
700,198.77904295833332,199.30820962500002,54.0,96.0
701,198.77904295833332,199.54362629166667,57.0,91.0
702,199.52904295833332,199.54362629166667,57.0,104.0
703,198.76445962499997,199.645709625,62.0,99.0
704,198.84779295833334,199.84779295833334,38.0,106.0
705,199.27904295833332,199.84779295833334,52.0,76.0
706,199.77904295833332,200.3852929583333,69.0,106.0
707,199.82487629166667,200.81029295833332,57.0,77.0
708,199.8227929583333,200.82487629166667,64.0,79.0
709,199.83112629166664,200.83737629166666,45.0,74.0
710,199.8227929583333,200.84570962499998,60.0,83.0
711,200.77904295833332,201.0227929583333,40.0,99.0
712,200.77904295833332,201.11029295833333,52.0,91.0
713,200.77904295833332,201.14154295833333,55.0,94.0
714,201.27904295833332,202.445709625,52.0,89.0
715,202.27904295833332,202.62487629166668,59.0,64.0
716,201.77904295833332,202.70195962499997,64.0,101.0
717,201.77904295833332,202.7102929583333,67.0,104.0
718,202.77904295833332,203.04362629166667,62.0,101.0
719,202.77904295833332,203.39154295833333,66.0,107.0
720,203.27904295833332,203.51237629166667,62.0,85.0
721,203.77904295833332,203.9477929583333,62.0,101.0
722,202.77904295833332,204.18737629166668,50.0,94.0
723,203.77904295833332,204.34570962499998,66.0,117.0
724,204.27904295833332,204.4790429583333,62.0,94.0
725,203.77904295833332,204.68112629166666,69.0,104.0
726,204.77904295833332,205.226959625,64.0,99.0
727,204.77904295833332,205.54570962499997,60.0,80.0
728,204.77904295833332,206.25612629166665,48.0,101.0
729,205.27904295833332,206.258209625,55.0,85.0
730,205.77904295833332,206.27487629166666,60.0,101.0
731,206.02904295833332,206.45195962499997,62.0,104.0
732,206.52904295833332,206.59779295833334,60.0,66.0
733,206.27904295833332,206.75612629166665,67.0,94.0
734,206.77904295833332,208.5102929583333,62.0,87.0
735,206.77904295833332,208.551959625,66.0,91.0
736,206.77904295833332,208.55820962500002,50.0,104.0
737,208.77904295833332,209.12070962500002,60.0,85.0
738,208.77904295833332,209.63112629166665,66.0,99.0
739,209.27904295833332,209.64987629166666,60.0,50.0
740,209.77904295833332,210.37279295833332,62.0,104.0
741,210.27904295833332,210.46445962500002,60.0,67.0
742,208.77904295833332,210.48320962499997,48.0,94.0
743,209.77904295833332,210.5415429583333,66.0,101.0
744,210.77904295833332,211.01862629166664,59.0,87.0
745,210.77904295833332,211.45195962499997,62.0,96.0
746,211.27904295833332,211.489459625,59.0,28.0
747,210.77904295833332,211.57904295833333,66.0,96.0
748,211.77904295833332,211.96862629166668,59.0,94.0
749,210.77904295833332,212.6040429583333,47.0,91.0
750,211.77904295833332,212.69362629166665,62.0,96.0
751,212.27904295833332,212.71237629166666,59.0,71.0
752,211.77904295833332,212.72279295833334,66.0,93.0
753,212.78112629166668,213.54362629166667,60.0,89.0
754,213.301959625,214.48529295833333,52.0,82.0
755,212.78320962499998,214.570709625,57.0,91.0
756,212.770709625,214.5727929583333,45.0,104.0
757,214.31654295833334,214.71654295833332,60.0,87.0
758,213.7915429583333,214.79570962499997,64.0,91.0
759,214.94987629166667,216.79184005833332,52.0,76.0
760,214.78529295833334,216.79630434166666,45.0,48.0
761,215.083209625,216.92130427499998,60.0,55.0
762,214.97070962499998,216.93916140833332,57.0,87.0
763,216.80969719166666,219.89586805,55.0,46.0
764,216.87442929999997,219.9123774770833,59.0,71.0
765,216.94362569166665,219.92416992499997,62.0,64.0
766,216.81639361666666,219.94067935208332,43.0,66.0
767,221.0845468,222.99020638333332,62.0,51.0
768,221.25907502916664,223.037376175,69.0,94.0
769,221.12464112291664,223.14586669583332,66.0,93.0
770,223.4619043,225.1600168,66.0,39.0
771,223.28265909166666,225.19067716458332,62.0,52.0
772,221.37464101875,225.26614883124998,50.0,80.0
773,223.49728164374997,225.26614883124998,74.0,46.0
774,223.1104893520833,225.29209221666665,57.0,8.0
775,225.70954487291664,227.52322336249998,52.0,67.0
776,225.70246940416666,227.82039304999998,64.0,69.0
777,225.77086560208332,227.95482695624997,67.0,76.0
778,228.01614768541666,229.92652424791666,50.0,45.0
779,228.0916193520833,230.03973174791665,67.0,59.0
780,228.01143070625,230.112844925,62.0,61.0
781,225.85812971666664,230.22133544583332,71.0,50.0
782,230.23312789374998,231.68124049791666,48.0,76.0
783,230.1293543520833,231.70482539374999,60.0,59.0
784,230.20482601875,231.7354857583333,64.0,76.0
785,230.282656175,231.82274987291666,67.0,62.0
786,232.54916466458332,233.2567115395833,38.0,76.0
787,232.50907034166664,234.35105070625,66.0,46.0
788,232.57746653958333,234.36520164374997,69.0,74.0
789,232.44303263333333,234.36991862291666,62.0,55.0
790,234.47840914374999,235.25671070624998,55.0,85.0
791,234.47605065416664,235.41944648749998,62.0,96.0
792,235.04208815416666,235.77321992499998,50.0,18.0
793,234.46425820624998,235.95482362291665,43.0,91.0
794,235.58454075833333,236.3274649770833,55.0,94.0
795,235.58218226875,236.44774794583333,62.0,104.0
796,236.6930308625,237.21897403958332,62.0,74.0
797,236.72133273749998,237.23312497708332,57.0,50.0
798,237.19538914375,237.84397377916665,54.0,45.0
799,236.67652143541665,238.23548304999997,47.0,82.0
800,237.75435117499998,238.36755846666665,57.0,96.0
801,237.74020023749998,238.77086018541667,66.0,101.0
802,238.28029435208333,238.84161487291664,62.0,82.0
803,238.83218091458332,239.0161431020833,36.0,71.0
804,238.82274695624997,240.19302940416665,60.0,51.0
805,239.93595403958332,240.47604815416665,55.0,101.0
806,239.35340711249998,240.51614247708332,48.0,54.0
807,238.84869034166664,240.5562368,64.0,71.0
808,240.49963304999997,240.76614237291665,60.0,85.0
809,240.98784039375,241.1387837270833,38.0,91.0
810,241.63406653958333,241.93595320625,54.0,25.0
811,241.75199101874998,243.82746185208333,57.0,85.0
812,241.37699117499997,243.87227315416663,50.0,61.0
813,242.5255756020833,244.15765039374998,66.0,1.0
814,241.999632425,244.30859372708332,62.0,82.0
815,245.0019896645833,245.30859331041665,57.0,99.0
816,244.7873671125,245.5255743520833,50.0,73.0
817,245.452461175,245.76849877916663,55.0,73.0
818,245.23783862291666,245.8085931020833,59.0,94.0
819,246.03972508124997,246.34397023749997,55.0,35.0
820,245.69774409166666,246.8982152895833,50.0,64.0
821,246.63878143541666,247.2732151333333,55.0,55.0
822,247.17180008124998,248.41472409166664,50.0,43.0
823,248.60576174791666,251.36519456041665,50.0,55.0
824,244.50434836249997,251.39113794583332,43.0,89.0
825,248.58689383125,252.79208075833333,55.0,51.0
826,248.73547867499997,252.80151471666665,59.0,35.0
827,246.30623440416664,252.81566565416665,62.0,66.0
828,248.76849752916664,252.85104299791664,67.0,33.0
