,start,end,pitch,velocity
0,22.385707916666668,22.499955,73.0,103.0
1,22.708287916666666,22.893771416666667,73.0,83.0
2,23.03086791666667,23.21635141666667,73.0,80.0
3,23.353447916666667,23.541619583333336,73.0,87.0
4,23.67602791666667,23.90586616666667,73.0,87.0
5,23.998607916666668,24.235166583333335,71.0,87.0
6,24.32118791666667,24.606133583333335,70.0,90.0
7,24.64376791666667,25.17333675,75.0,102.0
8,25.28892791666667,26.491882500000003,73.0,87.0
9,27.224407916666667,27.48650416666667,66.0,90.0
10,27.54698791666667,28.02010525,73.0,90.0
11,28.19214791666667,28.413921666666667,71.0,85.0
12,28.51472791666667,29.025479583333336,70.0,93.0
13,29.15988791666667,29.788918916666667,71.0,87.0
14,29.80504791666667,30.110154833333336,70.0,74.0
15,30.12762791666667,31.092679750000002,68.0,87.0
16,31.095367916666667,31.31042125,66.0,87.0
17,31.41794791666667,32.00396825,66.0,80.0
18,32.06310791666667,32.92869758333334,75.0,103.0
19,33.030847916666666,35.4434775,73.0,87.0
20,36.90180791666667,37.411215500000004,78.0,93.0
21,37.54696791666667,38.17599891666667,77.0,83.0
22,38.19212791666667,41.17868108333334,73.0,90.0
23,43.03082791666667,43.145075000000006,73.0,103.0
24,43.35340791666667,43.53889141666667,73.0,83.0
25,43.67598791666667,43.86147141666667,73.0,80.0
26,43.99856791666667,44.186739583333335,73.0,87.0
27,44.32114791666667,44.55098616666667,73.0,87.0
28,44.64372791666667,44.88028658333334,71.0,87.0
29,44.96630791666667,45.25125358333334,70.0,90.0
30,45.28888791666667,45.81845675,75.0,102.0
31,45.93404791666667,47.1370025,73.0,87.0
32,47.86952791666667,48.13162416666667,66.0,90.0
33,48.19210791666667,48.665225250000006,73.0,90.0
34,48.83726791666667,49.05904166666667,71.0,85.0
35,49.15984791666667,49.670599583333335,70.0,93.0
36,49.80500791666667,50.43403891666667,71.0,87.0
37,50.45016791666667,50.75527483333334,70.0,74.0
38,50.77274791666667,51.73779975,68.0,87.0
39,51.74048791666667,51.95554125,66.0,87.0
40,52.06306791666667,52.649088250000005,66.0,80.0
41,52.70822791666667,53.350699750000004,75.0,103.0
42,53.35338791666667,54.96359975,77.0,87.0
43,54.96628791666667,55.149083250000004,77.0,93.0
44,55.28886791666667,55.51467391666667,77.0,71.0
45,55.61144791666667,56.811714333333335,75.0,80.0
46,57.54692791666667,57.72300283333334,75.0,87.0
47,57.86950791666667,58.10069025000001,75.0,93.0
48,58.19208791666667,58.40176491666667,77.0,80.0
49,58.51466791666667,58.71628041666667,78.0,93.0
50,58.83724791666667,59.02004325,78.0,80.0
51,59.15982791666667,59.39773066666667,78.0,93.0
52,59.48240791666667,59.68402041666667,75.0,93.0
53,59.80498791666667,60.00256816666667,78.0,93.0
54,60.12756791666667,61.693425000000005,75.0,103.0
55,62.06304791666667,62.237778750000004,75.0,103.0
56,62.38562791666667,62.60605758333334,75.0,103.0
57,62.70820791666667,63.23777675,82.0,87.0
58,63.35336791666667,66.43205075208334,80.0,87.0
59,67.27659495208334,67.53945271041667,73.0,90.0
60,67.62326766458334,67.8588165875,73.0,105.0
61,67.97008816458333,68.31401849375,73.0,105.0
62,68.31690866458334,68.99736444374999,83.0,93.0
63,69.00014995208332,69.40500721875,82.0,95.0
64,71.26521855208333,71.51925030208334,73.0,103.0
65,71.58779855208333,72.36064646875,85.0,102.0
66,72.55553855208333,73.14559113541667,82.0,93.0
67,73.52327855208333,73.73026738541667,80.0,93.0
68,73.84585855208333,74.16306221875,80.0,90.0
69,74.16843855208333,75.98832738541667,78.0,93.0
70,76.42649855208333,76.61735838541667,78.0,102.0
71,76.74907855208333,77.41574388541666,77.0,93.0
72,77.71681855208334,78.47353746875,78.0,103.0
73,78.68455855208333,79.18993388541666,82.0,93.0
74,79.32971855208334,81.58509038541666,75.0,105.0
75,82.87809855208333,83.09046371875,75.0,87.0
76,83.20067855208333,83.47352746875,75.0,105.0
77,83.52325855208333,84.02325755208334,82.0,93.0
78,84.16841855208334,87.08911163541667,80.0,93.0
79,88.03937855208333,88.23964696875001,73.0,102.0
80,88.36195855208334,88.68185038541667,73.0,105.0
81,88.68453855208332,88.96007563541667,73.0,105.0
82,89.00711855208334,89.64959038541667,83.0,90.0
83,89.65227855208333,90.05012721874999,82.0,95.0
84,91.91033855208333,92.16437030208334,73.0,103.0
85,92.23291855208333,93.00576646875,85.0,102.0
86,93.20065855208333,93.79071113541667,82.0,93.0
87,94.16839855208333,94.37538738541667,80.0,93.0
88,94.49097855208333,94.80818221875,80.0,90.0
89,94.81355855208334,96.63344738541667,78.0,93.0
90,97.07161855208334,97.26247838541667,78.0,102.0
91,97.39419855208334,98.06086388541667,77.0,93.0
92,98.36193855208333,99.11865746875,78.0,103.0
93,99.32967855208334,99.83505388541667,82.0,93.0
94,99.97483855208333,102.23021038541667,75.0,105.0
95,103.52321855208334,103.73558371875001,73.0,87.0
96,103.84579855208334,104.11961702708334,73.0,105.0
97,104.17016342083333,104.68048386458332,80.0,93.0
98,104.82883536458333,107.80506678124999,78.0,93.0
99,136.17463369791665,136.28888078125,73.0,103.0
100,136.49721369791666,136.68269719791667,73.0,83.0
101,136.81979369791665,137.00527719791666,73.0,80.0
102,137.14237369791667,137.33054536458332,73.0,87.0
103,137.46495369791666,137.69479194791666,73.0,87.0
104,137.78753369791667,138.02409236458334,71.0,87.0
105,138.11011369791666,138.39505936458332,70.0,90.0
106,138.43269369791665,138.96226253125,75.0,102.0
107,139.07785369791665,140.28080828125,73.0,87.0
108,141.01333369791666,141.27542994791665,66.0,90.0
109,141.33591369791665,141.80903103125,73.0,90.0
110,141.98107369791666,142.20284744791667,71.0,85.0
111,142.30365369791667,142.81440536458334,70.0,93.0
112,142.94881369791665,143.57784469791665,71.0,87.0
113,143.59397369791665,143.89908061458334,70.0,74.0
114,143.91655369791667,144.88160553125,68.0,87.0
115,144.88429369791666,145.09934703124998,66.0,87.0
116,145.20687369791665,145.79289403125,66.0,80.0
117,145.85203369791665,146.49450553124998,75.0,103.0
118,146.49719369791666,148.10740553124998,77.0,87.0
119,148.11009369791665,148.29288903124998,77.0,93.0
120,148.43267369791667,148.65847969791668,77.0,71.0
121,148.75525369791666,149.95552011458332,75.0,80.0
122,150.69073369791667,150.86680861458333,75.0,87.0
123,151.01331369791666,151.24449603124998,75.0,93.0
124,151.33589369791667,151.54557069791667,77.0,80.0
125,151.65847369791666,151.86008619791664,78.0,93.0
126,151.98105369791665,152.16384903124998,78.0,80.0
127,152.30363369791667,152.54153644791666,78.0,93.0
128,152.62621369791665,152.82782619791666,75.0,93.0
129,152.94879369791667,153.14637394791666,78.0,93.0
130,153.27137369791666,154.83723078124999,75.0,103.0
131,155.20685369791667,155.38158453124998,75.0,103.0
132,155.52943369791666,155.74986336458332,75.0,103.0
133,155.85201369791668,156.38158253125,82.0,87.0
134,156.49717369791665,159.56168369791666,80.0,87.0
135,160.36813369791668,160.61275686458333,73.0,90.0
136,160.69071369791666,160.90979928125,73.0,105.0
137,161.01329369791665,161.33318553125,73.0,105.0
138,161.33587369791667,161.97834553125,83.0,93.0
139,161.98103369791664,162.37888236458332,82.0,95.0
140,164.23909369791664,164.49312544791667,73.0,103.0
141,164.56167369791666,165.33452161458334,85.0,102.0
142,165.52941369791665,166.11946628125,82.0,93.0
143,166.49715369791664,166.70414253125,80.0,93.0
144,166.81973369791666,167.13693736458333,80.0,90.0
145,167.14231369791668,168.96220253125,78.0,93.0
146,169.40037369791668,169.59123353125,78.0,102.0
147,169.72295369791667,170.38961903125,77.0,93.0
148,170.69069369791666,171.44741261458333,78.0,103.0
149,171.65843369791668,172.16380903125,82.0,93.0
150,172.30359369791665,174.55896553125,75.0,105.0
151,175.85197369791666,176.06433886458333,75.0,87.0
152,176.17455369791668,176.44740261458332,75.0,105.0
153,176.49713369791667,176.99713269791664,82.0,93.0
154,177.14229369791667,180.06298678125,80.0,93.0
155,181.01325369791667,181.21352211458333,73.0,102.0
156,181.33583369791666,181.65572553125,73.0,105.0
157,181.65841369791667,181.93395078125,73.0,105.0
158,181.98099369791666,182.62346553125,83.0,90.0
159,182.62615369791666,183.02400236458334,82.0,95.0
160,184.88421369791666,185.13824544791666,73.0,103.0
161,185.20679369791668,185.97964161458333,85.0,102.0
162,186.17453369791667,186.76458628125,82.0,93.0
163,187.14227369791666,187.34926253125,80.0,93.0
164,187.46485369791668,187.78205736458332,80.0,90.0
165,187.78743369791667,189.60732253125,78.0,93.0
166,190.04549369791667,190.23635353125,78.0,102.0
167,190.36807369791666,191.03473903125,77.0,93.0
168,191.33581369791665,192.09253261458332,78.0,103.0
169,192.30355369791667,192.80892903125,82.0,93.0
170,192.94871369791667,195.20408553125,75.0,105.0
171,196.49709369791668,196.70945886458333,73.0,87.0
172,196.81967369791667,197.09252261458334,73.0,105.0
173,197.14225369791666,197.64225269791666,80.0,93.0
174,197.78741369791666,200.70810678125,78.0,93.0
175,208.43255369791666,208.83040236458334,82.0,95.0
176,210.69061369791666,210.94464544791668,73.0,103.0
177,211.01319369791668,211.78604161458333,85.0,102.0
178,211.98093369791667,212.57098628125,82.0,93.0
179,212.94867369791666,213.15566253125002,80.0,93.0
180,213.27125369791668,213.58845736458335,80.0,90.0
181,213.59383369791666,215.41372253125002,78.0,93.0
182,215.85189369791667,216.04275353125,78.0,102.0
183,216.17447369791665,216.84113903125,77.0,93.0
184,217.14221369791665,217.89893261458332,78.0,103.0
185,218.10995369791667,218.61532903124998,82.0,93.0
186,218.75511369791667,221.01048553125,75.0,105.0
187,222.30349369791668,222.51585886458332,75.0,87.0
188,222.62607369791667,222.89892261458334,75.0,105.0
189,222.94865369791665,223.44865269791666,82.0,93.0
190,223.59381369791666,226.51450678125,80.0,93.0
191,227.46477369791666,227.66504211458334,73.0,102.0
192,227.78735369791667,228.10724553125,73.0,105.0
193,228.10993369791666,228.38547078124998,73.0,105.0
194,228.43251369791665,229.07498553124998,83.0,90.0
195,229.07767369791668,229.47552236458333,82.0,95.0
196,231.33573369791668,231.58976544791665,73.0,103.0
197,231.65831369791667,232.43116161458335,85.0,102.0
198,232.62605369791666,233.21610628125,82.0,93.0
199,233.59379369791668,233.80078253124998,80.0,93.0
200,233.91637369791667,234.2335773645833,80.0,90.0
201,234.23895369791666,236.05884253124998,78.0,93.0
202,236.49701369791666,236.68787353124998,78.0,102.0
203,236.81959369791667,237.48625903124997,77.0,93.0
204,237.78733369791667,238.54405261458334,78.0,103.0
205,238.75507369791666,239.26044903125,82.0,93.0
206,239.4002336979167,241.65560553125,75.0,105.0
207,242.94861369791664,243.16097886458334,73.0,87.0
208,243.27119369791666,243.5440426145833,73.0,105.0
209,243.59377369791667,244.09377269791668,80.0,93.0
210,244.23893369791665,247.15962678124998,78.0,93.0
