,start,end,pitch,velocity
0,2.385747916666667,2.748650416666667,56.0,67.0
1,2.7083279166666667,3.212359166666667,58.0,80.0
2,3.353487916666667,3.7002614166666667,54.0,68.0
3,2.063167916666667,3.7244549166666667,49.0,68.0
4,1.7405879166666667,3.790315,42.0,66.0
5,3.353487916666667,4.43144275,61.0,74.0
6,4.966387916666667,5.3440753333333335,56.0,90.0
7,5.2889679166666665,5.684128416666667,59.0,80.0
8,4.3212279166666665,6.702943583333334,40.0,68.0
9,4.643807916666667,6.741922000000001,47.0,59.0
10,5.934127916666667,7.174716833333334,56.0,68.0
11,5.934127916666667,7.30240475,59.0,67.0
12,5.934127916666667,7.674715833333334,64.0,65.0
13,7.869607916666667,8.422026166666667,59.0,102.0
14,7.547027916666667,8.427402500000001,54.0,47.0
15,8.514767916666667,8.606165583333334,54.0,68.0
16,7.2244479166666675,9.331970583333334,47.0,66.0
17,9.159927916666668,9.587346416666668,54.0,52.0
18,8.514767916666667,9.864227583333333,59.0,83.0
19,8.514767916666667,10.228474166666667,63.0,87.0
20,9.805087916666666,10.2338505,54.0,60.0
21,10.127667916666667,10.301054666666667,59.0,67.0
22,10.450247916666667,10.63304325,54.0,74.0
23,10.450247916666667,11.10884875,61.0,70.0
24,9.482507916666668,11.478471666666668,47.0,80.0
25,12.063147916666667,12.4757815,54.0,71.0
26,12.063147916666667,12.723092833333334,61.0,80.0
27,12.708307916666667,13.755348833333334,54.0,85.0
28,13.676047916666667,14.033574083333335,61.0,83.0
29,12.385727916666667,14.061799833333334,49.0,64.0
30,12.063147916666667,14.122283583333335,42.0,87.0
31,13.030887916666668,14.50400325,66.0,95.0
32,13.998627916666667,14.704271666666667,54.0,71.0
33,14.321207916666667,15.30238875,61.0,68.0
34,15.288947916666668,16.27012875,59.0,74.0
35,16.256687916666667,16.486526166666668,52.0,53.0
36,16.57926791666667,16.764751416666666,52.0,74.0
37,14.966367916666668,16.79700941666667,47.0,61.0
38,16.57926791666667,16.8144825,59.0,80.0
39,14.643787916666668,16.822547,40.0,83.0
40,15.611527916666667,17.022815416666667,64.0,80.0
41,17.869587916666667,18.267436583333335,61.0,71.0
42,17.224427916666667,18.310447250000003,54.0,74.0
43,18.19216791666667,18.854801000000002,63.0,85.0
44,18.837327916666666,19.184101416666667,54.0,80.0
45,17.54700791666667,19.40721925,42.0,68.0
46,17.224427916666667,19.43410091666667,35.0,80.0
47,19.15990791666667,19.491896500000003,59.0,70.0
48,19.482487916666667,19.66528325,54.0,47.0
49,19.66528325,21.184097416666667,35.0,74.0
50,19.7177025,21.41796791666667,54.0,64.0
51,19.8306055,21.430064666666667,59.0,68.0
52,19.920659083333334,21.434096916666668,63.0,72.0
53,23.03086791666667,23.387050000000002,54.0,61.0
54,23.353447916666667,23.721726750000002,56.0,72.0
55,23.998607916666668,24.35479,58.0,74.0
56,22.385707916666668,24.729789250000003,42.0,87.0
57,22.708287916666666,24.78489666666667,49.0,51.0
58,25.611507916666667,26.243227083333334,56.0,60.0
59,25.93408791666667,26.475753500000003,65.0,80.0
60,25.28892791666667,26.667957416666667,53.0,49.0
61,24.966347916666667,26.810430250000003,46.0,66.0
62,27.54698791666667,28.237846750000003,59.0,69.0
63,28.19214791666667,28.84134016666667,54.0,68.0
64,28.51472791666667,28.973060333333336,59.0,87.0
65,29.15988791666667,29.348059583333335,54.0,68.0
66,29.15988791666667,29.416607833333334,63.0,80.0
67,27.869567916666668,29.739187833333336,51.0,61.0
68,27.54698791666667,29.825209166666667,44.0,80.0
69,30.12762791666667,30.364186583333336,56.0,72.0
70,30.12762791666667,30.759347083333335,65.0,61.0
71,30.450207916666667,30.944830583333335,56.0,70.0
72,30.77278791666667,30.987841250000002,61.0,74.0
73,31.095367916666667,31.823861083333334,65.0,87.0
74,30.12762791666667,32.30101066666667,49.0,80.0
75,32.06310791666667,32.40719325,63.0,74.0
76,32.38568791666667,32.70289158333333,65.0,68.0
77,32.70826791666667,33.495900750000004,66.0,80.0
78,33.35342791666667,34.065792083333335,54.0,83.0
79,33.67600791666667,34.0886415,61.0,74.0
80,34.32116791666667,34.47976975,54.0,74.0
81,34.32116791666667,34.48111383333334,58.0,68.0
82,32.70826791666667,34.51606,42.0,85.0
83,33.030847916666666,34.54966208333334,49.0,65.0
84,35.288907916666666,35.66256308333334,58.0,74.0
85,35.288907916666666,36.323852083333335,65.0,61.0
86,36.256647916666665,36.783528583333336,61.0,93.0
87,35.93406791666667,37.0563775,58.0,87.0
88,35.61148791666667,37.275463083333335,53.0,61.0
89,37.22438791666667,37.60745166666667,61.0,102.0
90,35.288907916666666,37.62223658333333,46.0,71.0
91,37.54696791666667,37.67196766666667,53.0,66.0
92,37.86954791666667,38.23110633333334,56.0,69.0
93,37.86954791666667,38.54831,59.0,68.0
94,38.19212791666667,39.0241155,51.0,69.0
95,38.514707916666666,39.31174933333334,56.0,95.0
96,38.83728791666667,39.84938266666667,63.0,105.0
97,39.48244791666667,39.87626433333334,51.0,65.0
98,37.86954791666667,39.90180191666667,44.0,83.0
99,39.80502791666667,40.31040325,59.0,74.0
100,40.12760791666667,40.48916633333334,56.0,59.0
101,40.45018791666667,40.762015250000005,61.0,74.0
102,41.09534791666667,41.31846575,61.0,61.0
103,41.41792791666667,42.0079805,63.0,83.0
104,40.772767916666666,42.424646333333335,56.0,70.0
105,42.06308791666667,42.92598941666667,65.0,87.0
106,42.38566791666667,42.963623750000004,53.0,59.0
107,40.45018791666667,42.97975275,49.0,83.0
108,42.70824791666667,43.02813975,56.0,72.0
109,43.67598791666667,43.987815250000004,54.0,68.0
110,43.99856791666667,44.26738458333334,56.0,87.0
111,43.35340791666667,44.79560933333334,49.0,59.0
112,44.64372791666667,45.08324316666667,58.0,83.0
113,43.03082791666667,45.231092333333336,42.0,85.0
114,44.96630791666667,45.27275891666667,49.0,55.0
115,45.61146791666667,46.02678966666667,58.0,67.0
116,45.61146791666667,46.29695041666667,61.0,70.0
117,46.256627916666666,46.40582116666667,58.0,59.0
118,46.57920791666667,46.80904616666667,58.0,68.0
119,46.57920791666667,46.955551250000006,65.0,69.0
120,45.93404791666667,47.1853895,53.0,54.0
121,45.61146791666667,47.60339941666667,46.0,68.0
122,47.54694791666667,47.68135625,58.0,74.0
123,47.54694791666667,47.87356016666667,61.0,87.0
124,47.86952791666667,47.935388,58.0,47.0
125,48.19210791666667,48.592644750000005,56.0,64.0
126,48.19210791666667,48.8789345,59.0,66.0
127,48.83726791666667,49.214955333333336,56.0,80.0
128,49.15984791666667,49.62624483333334,59.0,105.0
129,48.51468791666667,50.28081341666667,51.0,63.0
130,48.19210791666667,50.49049041666667,44.0,80.0
131,50.12758791666667,50.72973725000001,59.0,90.0
132,50.45016791666667,50.82113491666667,56.0,67.0
133,50.77274791666667,51.11145691666667,61.0,72.0
134,51.09532791666667,51.54290766666667,56.0,69.0
135,51.41790791666667,51.767369583333334,61.0,56.0
136,51.74048791666667,52.40043283333333,63.0,93.0
137,52.38564791666667,52.75123858333334,61.0,93.0
138,50.77274791666667,52.78349658333334,49.0,72.0
139,52.70822791666667,52.83994808333334,56.0,74.0
140,53.35338791666667,53.81844075,58.0,72.0
141,53.998547916666666,54.19881633333333,58.0,66.0
142,53.35338791666667,54.22973025,65.0,65.0
143,53.67596791666667,54.54424575,53.0,56.0
144,54.96628791666667,55.17327675000001,53.0,36.0
145,54.32112791666667,55.243169083333335,61.0,90.0
146,53.35338791666667,55.25392175,46.0,80.0
147,55.28886791666667,55.68402841666667,58.0,71.0
148,55.61144791666667,55.95418916666667,65.0,93.0
149,55.93402791666667,56.59128466666667,66.0,93.0
150,56.57918791666667,56.763327333333336,58.0,66.0
151,56.90176791666667,57.338595000000005,58.0,80.0
152,56.90176791666667,57.36816483333334,63.0,93.0
153,57.54692791666667,57.69074483333333,58.0,71.0
154,56.25660791666667,57.779454333333334,46.0,49.0
155,55.93402791666667,57.825153166666674,39.0,74.0
156,57.54692791666667,57.91789491666667,63.0,80.0
157,57.86950791666667,58.12622783333334,58.0,72.0
158,57.54692791666667,58.24181900000001,66.0,83.0
159,58.51466791666667,58.92998966666667,56.0,69.0
160,58.51466791666667,59.20821491666667,59.0,70.0
161,59.15982791666667,60.08724541666667,56.0,87.0
162,59.48240791666667,60.141008750000005,63.0,103.0
163,58.83724791666667,60.21762150000001,51.0,68.0
164,60.12756791666667,60.51466391666667,59.0,83.0
165,58.51466791666667,60.63966366666667,44.0,80.0
166,61.09530791666667,61.88562891666667,60.0,69.0
167,61.09530791666667,62.20417666666667,56.0,83.0
168,61.740467916666674,62.32380008333334,63.0,85.0
169,62.06304791666667,62.57514366666667,68.0,93.0
170,61.41788791666667,62.80094966666667,51.0,69.0
171,62.70820791666667,63.06439,56.0,87.0
172,61.09530791666667,63.11815333333334,44.0,87.0
173,63.03078791666667,63.13831458333334,51.0,71.0
174,62.70820791666667,63.674603833333336,63.0,93.0
175,63.35336791666667,64.01734508333334,56.0,80.0
176,63.67594791666667,64.39368841666668,61.0,74.0
177,64.32110791666668,64.48105383333333,56.0,83.0
178,64.64368791666666,65.12486975,56.0,102.0
179,64.64368791666666,65.41250358333333,65.0,69.0
180,65.28884791666667,65.64771816666666,56.0,21.0
181,63.99852791666667,66.03203048541667,44.0,69.0
182,63.67594791666667,66.05131423125,37.0,93.0
183,65.61142791666667,66.05957869375001,63.0,87.0
184,65.93501510416667,66.14911037083334,56.0,87.0
185,66.27884779375,66.61728705625,56.0,83.0
186,66.28163330208334,67.03937910625001,65.0,65.0
187,66.84335643125,67.29089801875,56.0,93.0
188,67.21267451458334,67.41806553541667,61.0,105.0
189,67.95997256666666,68.12182213333334,56.0,105.0
190,67.59292087083334,68.17818046458333,65.0,103.0
191,68.33280460416667,68.86463729791666,61.0,102.0
192,68.32846934791667,68.86747820625,56.0,105.0
193,66.26492025208334,68.88872961874999,37.0,93.0
194,66.59918125208334,68.89987165208332,44.0,60.0
195,69.65231855208333,70.01656513541667,56.0,80.0
196,69.32973855208333,70.10930688541667,49.0,60.0
197,69.97489855208333,70.51522005208334,58.0,105.0
198,70.62005855208334,70.77328405208333,54.0,54.0
199,70.94263855208334,71.08914363541666,54.0,74.0
200,69.00014995208332,71.43322896875,42.0,93.0
201,70.94263855208334,71.47489555208334,58.0,87.0
202,70.29747855208333,71.49640088541666,49.0,61.0
203,71.26521855208333,71.57973405208334,54.0,72.0
204,70.94263855208334,71.71683055208334,61.0,87.0
205,72.23295855208333,72.42113021875,56.0,95.0
206,71.91037855208333,72.74236613541666,53.0,66.0
207,73.20069855208334,73.54747205208334,53.0,74.0
208,72.55553855208333,73.57435371875,56.0,95.0
209,72.55553855208333,73.66306321875,65.0,68.0
210,71.58779855208333,73.79612746875,46.0,83.0
211,73.52327855208333,73.85392305208333,61.0,95.0
212,73.84585855208333,74.29343830208333,58.0,80.0
213,74.16843855208333,74.85392105208334,63.0,70.0
214,74.81359855208333,74.97488855208333,58.0,70.0
215,74.49101855208333,75.27058688541666,46.0,68.0
216,75.13617855208334,75.87004805208333,58.0,74.0
217,75.13617855208334,76.02327355208334,66.0,67.0
218,74.16843855208333,76.12004755208334,39.0,83.0
219,75.78133855208333,76.14558513541667,46.0,50.0
220,75.13617855208334,76.18456355208333,63.0,87.0
221,76.10391855208333,76.54612196875,58.0,83.0
222,76.42649855208333,76.69531521875,66.0,87.0
223,76.74907855208333,77.14558313541667,61.0,64.0
224,77.07165855208333,77.52327055208333,56.0,72.0
225,77.39423855208334,77.55284038541666,61.0,69.0
226,77.71681855208334,78.06896838541667,56.0,85.0
227,77.71681855208334,78.42783863541666,65.0,93.0
228,77.71681855208334,78.66842955208334,61.0,93.0
229,78.36197855208333,78.70606388541667,56.0,83.0
230,78.68455855208333,79.01520305208334,66.0,93.0
231,76.74907855208333,79.10525663541667,49.0,87.0
232,79.00713855208333,79.32568630208334,65.0,102.0
233,79.32971855208334,79.99772796875,63.0,93.0
234,79.97487855208334,80.17245880208333,61.0,68.0
235,79.65229855208334,80.48697430208333,54.0,68.0
236,80.29745855208333,80.92917771875,59.0,71.0
237,79.32971855208334,80.95337121875,47.0,83.0
238,80.29745855208333,80.99772596875,63.0,80.0
239,80.94261855208333,81.55148830208333,66.0,74.0
240,81.91035855208334,82.09315388541667,60.0,66.0
241,81.91035855208334,82.58508838541667,66.0,74.0
242,82.23293855208334,82.68186238541666,60.0,67.0
243,82.55551855208333,82.69933546875001,63.0,58.0
244,82.87809855208333,83.50981771875,60.0,80.0
245,83.52325855208333,83.56626921875,60.0,37.0
246,82.87809855208333,83.62003255208333,66.0,93.0
247,81.91035855208334,83.74772046875,36.0,59.0
248,83.52325855208333,83.90363413541667,63.0,93.0
249,83.84583855208334,84.05820371875001,60.0,56.0
250,84.49099855208334,84.87943863541666,56.0,72.0
251,84.49099855208334,85.19126596875,61.0,68.0
252,85.13615855208333,85.55551255208333,56.0,87.0
253,85.45873855208333,86.15362963541666,63.0,95.0
254,86.10389855208334,86.45336021874999,61.0,93.0
255,84.49099855208334,86.86464971875,37.0,93.0
256,84.81357855208333,86.89421955208333,44.0,68.0
257,86.42647855208334,86.93185388541667,56.0,95.0
258,86.74905855208334,86.96142371875,61.0,70.0
259,87.07163855208333,87.47620763541667,58.0,80.0
260,87.07163855208333,87.73561571875,63.0,87.0
261,87.07163855208333,87.78937905208333,66.0,83.0
262,87.71679855208333,88.06491613541667,58.0,95.0
263,87.39421855208333,88.15228155208334,46.0,52.0
264,87.07163855208333,88.18453955208334,39.0,93.0
265,88.03937855208333,88.32163605208333,63.0,102.0
266,88.36195855208334,88.73158146875,61.0,74.0
267,88.36195855208334,88.99636588541667,65.0,87.0
268,88.36195855208334,89.04744105208333,37.0,102.0
269,88.68453855208332,89.09986030208333,44.0,69.0
270,89.00711855208334,89.52459063541667,61.0,85.0
271,89.65227855208333,90.13077221875,61.0,85.0
272,89.65227855208333,90.37808355208333,66.0,80.0
273,90.29743855208334,91.20066255208333,61.0,93.0
274,90.62001855208334,91.29340430208333,68.0,93.0
275,91.26517855208334,91.99367171875,66.0,93.0
276,89.65227855208333,92.01114480208334,42.0,74.0
277,89.97485855208333,92.01652113541667,49.0,71.0
278,91.91033855208333,92.26383246875,61.0,83.0
279,92.23291855208333,93.00979871875,70.0,87.0
280,92.87807855208334,93.04205671875,58.0,83.0
281,92.55549855208334,93.26786271875,53.0,63.0
282,93.20065855208333,93.89151738541666,58.0,102.0
283,93.20065855208333,93.91839905208333,62.0,71.0
284,93.52323855208334,93.99904405208333,53.0,52.0
285,92.23291855208333,94.16033405208333,46.0,83.0
286,93.84581855208333,94.48829038541666,65.0,87.0
287,94.16839855208333,94.65898896875001,58.0,65.0
288,94.81355855208334,95.19931046875,58.0,65.0
289,94.81355855208334,95.55011621875,63.0,70.0
290,95.45871855208333,95.66301921875001,58.0,68.0
291,95.78129855208334,96.49366271875,66.0,95.0
292,96.42645855208333,96.79204921875001,63.0,93.0
293,96.74903855208333,97.29742455208333,58.0,95.0
294,95.13613855208334,97.31220946875,46.0,54.0
295,97.07161855208334,97.32296213541667,63.0,103.0
296,94.81355855208334,97.32430621875,39.0,80.0
297,97.39419855208334,98.16435830208333,65.0,83.0
298,98.03935855208334,98.39957288541666,61.0,90.0
299,97.71677855208333,98.40091696875,56.0,85.0
300,98.36193855208333,98.83236771874999,63.0,93.0
301,97.39419855208334,99.66569938541667,49.0,74.0
302,99.00709855208333,99.75709705208334,61.0,80.0
303,99.65225855208334,99.93317196875,56.0,68.0
304,99.97483855208333,100.15091346875,54.0,85.0
305,99.97483855208333,100.60924588541667,63.0,87.0
306,100.29741855208333,100.73827788541666,54.0,80.0
307,99.97483855208333,101.05548155208334,47.0,87.0
308,100.61999855208333,101.06892238541667,59.0,87.0
309,100.94257855208333,101.25440588541667,63.0,64.0
310,101.26515855208334,101.74902855208333,58.0,68.0
311,101.26515855208334,101.97349046875,61.0,74.0
312,101.58773855208334,102.04875913541667,53.0,63.0
313,101.26515855208334,102.31488763541667,46.0,83.0
314,101.91031855208334,102.34983380208334,58.0,80.0
315,102.23289855208333,102.43047880208334,61.0,71.0
316,102.55547855208334,102.76246738541667,56.0,80.0
317,102.55547855208334,102.91703696875001,61.0,83.0
318,102.87805855208333,103.35386405208334,56.0,74.0
319,103.20063855208333,103.44660580208333,61.0,80.0
320,103.52321855208334,104.36042923958333,63.0,90.0
321,102.55547855208334,105.03350548958333,49.0,90.0
322,104.17016342083333,105.06097798958332,61.0,83.0
323,104.49916536458333,105.10356036458333,56.0,63.0
324,105.10356036458333,105.26015361458333,58.0,68.0
325,105.10218673958333,105.26152723958333,54.0,68.0
326,105.12416473958332,105.85493323958333,42.0,87.0
327,105.44147211458333,105.87691123958332,49.0,61.0
328,105.75877948958333,105.88790023958333,66.0,67.0
329,106.10218573958333,106.45383373958333,59.0,59.0
330,106.10905386458333,106.53350398958332,47.0,80.0
331,106.12141648958332,106.54724023958333,52.0,52.0
332,106.09669123958332,106.56097648958333,64.0,71.0
333,106.75191036458332,106.89064648958333,47.0,60.0
334,106.75465761458332,106.92361348958333,59.0,61.0
335,106.74504223958333,106.92773436458333,63.0,68.0
336,107.74189486458333,110.23382536458332,42.0,83.0
337,107.76474428124999,110.23651353125,54.0,65.0
338,107.67200253124999,110.24726619791666,58.0,59.0
339,107.58866936458332,110.26070703124999,61.0,68.0
340,107.52012111458332,110.27280378124999,66.0,69.0
341,111.01339369791665,111.48651103124999,57.0,87.0
342,111.98113369791666,112.33193944791665,57.0,80.0
343,112.30371369791666,112.64779903124999,56.0,64.0
344,111.33597369791666,112.73650853125,64.0,102.0
345,110.36823369791665,112.75666978125,45.0,87.0
346,112.62629369791665,112.91123936458332,57.0,64.0
347,110.69081369791665,113.05236811458333,52.0,56.0
348,112.94887369791665,113.73650653124999,44.0,87.0
349,113.27145369791666,113.97440928124999,52.0,74.0
350,113.59403369791666,114.03086078125,59.0,69.0
351,113.91661369791666,114.36016119791665,64.0,93.0
352,114.56177369791666,114.74456903125,53.0,74.0
353,114.88435369791665,115.28220236458333,56.0,87.0
354,114.23919369791666,115.29564319791666,41.0,82.0
355,115.20693369791665,115.57252436458333,59.0,74.0
356,116.17467369791666,116.56714603124999,57.0,87.0
357,116.49725369791666,117.20961786458332,66.0,87.0
358,117.14241369791665,117.46499369791665,61.0,80.0
359,117.46499369791665,117.81579944791666,54.0,93.0
360,115.52951369791666,117.87359503124999,42.0,93.0
361,115.85209369791666,117.87359503124999,49.0,59.0
362,118.11015369791666,118.30773394791666,52.0,80.0
363,118.11015369791666,118.50262603124999,57.0,72.0
364,118.43273369791666,118.88031344791666,52.0,80.0
365,118.75531369791666,119.09671086458333,57.0,95.0
366,119.07789369791666,119.43407578124999,52.0,85.0
367,119.72305369791665,120.00799936458333,52.0,85.0
368,119.40047369791665,120.08595619791666,61.0,83.0
369,118.11015369791666,120.23514944791665,45.0,83.0
370,120.04563369791666,120.44617053124999,57.0,70.0
371,120.36821369791666,120.57117028124999,52.0,74.0
372,120.69079369791666,121.40450194791666,62.0,67.0
373,121.65853369791665,122.14643594791666,57.0,87.0
374,121.33595369791666,122.35342478125,54.0,64.0
375,120.69079369791666,122.58191894791666,38.0,72.0
376,121.01337369791666,122.66794028125,45.0,49.0
377,121.98111369791665,122.68406928124999,66.0,85.0
378,122.30369369791666,122.69616603124999,62.0,93.0
379,122.62627369791666,123.02412236458332,57.0,80.0
380,122.94885369791666,123.37358403124999,54.0,87.0
381,123.27143369791666,123.69347586458332,61.0,69.0
382,123.59401369791667,124.00664728125,57.0,53.0
383,123.91659369791665,124.34535628124999,52.0,102.0
384,123.27143369791666,124.47170011458333,49.0,70.0
385,124.23917369791666,124.79024786458332,61.0,93.0
386,124.56175369791666,124.98245178124999,57.0,64.0
387,124.88433369791666,125.27277378125,52.0,74.0
388,123.27143369791666,125.69347186458333,45.0,80.0
389,125.52949369791666,125.70556861458333,52.0,87.0
390,125.20691369791666,125.84400919791666,61.0,90.0
391,125.85207369791667,126.22976111458333,59.0,85.0
392,126.49723369791666,126.88298561458333,59.0,68.0
393,126.17465369791665,126.89911461458333,54.0,59.0
394,126.81981369791666,127.57115628124998,62.0,95.0
395,127.14239369791666,127.63029594791666,54.0,56.0
396,127.46497369791666,127.63029594791666,59.0,70.0
397,127.78755369791666,127.87088686458333,54.0,55.0
398,125.85207369791667,127.95287594791665,47.0,83.0
399,127.78755369791666,128.16524111458332,59.0,93.0
400,128.11013369791667,128.29292903125,54.0,74.0
401,128.43271369791665,129.16255094791666,52.0,71.0
402,129.07787369791666,129.47841053125,59.0,70.0
403,128.43271369791665,129.51604486458334,56.0,74.0
404,130.04561369791665,130.19211878125,52.0,74.0
405,129.40045369791665,130.44211828125,64.0,93.0
406,130.36819369791667,130.67598878125,56.0,93.0
407,128.43271369791665,130.71093494791666,40.0,85.0
408,128.75529369791667,130.73244028124998,47.0,60.0
409,130.04561369791665,130.82921428125,59.0,71.0
410,130.69077369791665,130.90179478125,52.0,69.0
411,131.01335369791667,131.40851419791665,57.0,83.0
412,131.33593369791666,131.95824428125,52.0,69.0
413,131.65851369791665,132.33189944791667,57.0,63.0
414,131.98109369791666,132.44883469791665,62.0,80.0
415,132.30367369791665,132.94480144791666,52.0,68.0
416,132.62625369791667,133.31980069791666,57.0,80.0
417,131.01335369791667,133.34533828125,45.0,74.0
418,133.27141369791667,133.54829486458334,52.0,70.0
419,132.94883369791665,133.80501478124998,61.0,90.0
420,134.23915369791666,134.46092744791667,47.0,93.0
421,134.56173369791665,134.65178728125,53.0,112.0
422,134.88431369791667,135.24990436458333,56.0,93.0
423,135.20689369791666,135.39103311458334,59.0,87.0
424,135.52947369791667,136.11549403125,56.0,71.0
425,135.52947369791667,136.11549403125,61.0,69.0
426,133.59399369791666,136.11683811458332,37.0,93.0
427,133.91657369791665,136.13431119791665,44.0,72.0
428,136.81979369791665,137.13162103125,54.0,68.0
429,137.14237369791667,137.41119036458332,56.0,87.0
430,136.49721369791666,137.9394151145833,49.0,59.0
431,137.78753369791667,138.22704894791667,58.0,83.0
432,136.17463369791665,138.37489811458332,42.0,85.0
433,138.11011369791666,138.41656469791667,49.0,55.0
434,138.75527369791666,139.17059544791667,58.0,67.0
435,138.75527369791666,139.44075619791667,61.0,70.0
436,139.40043369791667,139.54962694791666,58.0,59.0
437,139.72301369791666,139.95285194791666,58.0,68.0
438,139.72301369791666,140.09935703125,65.0,69.0
439,139.07785369791665,140.32919528125,53.0,54.0
440,138.75527369791666,140.74720519791666,46.0,68.0
441,140.69075369791665,140.82516203125,58.0,74.0
442,140.69075369791665,141.01736594791666,61.0,87.0
443,141.01333369791666,141.07919378124998,58.0,47.0
444,141.33591369791665,141.73645053125,56.0,64.0
445,141.33591369791665,142.02274028124998,59.0,66.0
446,141.98107369791666,142.35876111458333,56.0,80.0
447,142.30365369791667,142.77005061458334,59.0,105.0
448,141.65849369791667,143.42461919791666,51.0,63.0
449,141.33591369791665,143.63429619791665,44.0,80.0
450,143.27139369791666,143.87354303125,59.0,90.0
451,143.59397369791665,143.96494069791666,56.0,67.0
452,143.91655369791667,144.25526269791666,61.0,72.0
453,144.23913369791666,144.68671344791665,56.0,69.0
454,144.56171369791667,144.91117536458333,61.0,56.0
455,144.88429369791666,145.54423861458332,63.0,93.0
456,145.52945369791667,145.89504436458333,61.0,93.0
457,143.91655369791667,145.92730236458334,49.0,72.0
458,145.85203369791665,145.98375386458332,56.0,74.0
459,146.49719369791666,146.96224653125,58.0,72.0
460,147.14235369791666,147.34262211458332,58.0,66.0
461,146.49719369791666,147.37353603124998,65.0,65.0
462,146.81977369791667,147.68805153124998,53.0,56.0
463,148.11009369791665,148.31708253124998,53.0,36.0
464,147.46493369791665,148.38697486458332,61.0,90.0
465,146.49719369791666,148.39772753124998,46.0,80.0
466,148.43267369791667,148.82783419791667,58.0,71.0
467,148.75525369791666,149.09799494791667,65.0,93.0
468,149.07783369791667,149.73509044791666,66.0,93.0
469,149.72299369791665,149.90713311458333,58.0,66.0
470,150.04557369791667,150.48240078125,58.0,80.0
471,150.04557369791667,150.51197061458333,63.0,93.0
472,150.69073369791667,150.83455061458332,58.0,71.0
473,149.40041369791666,150.92326011458334,46.0,49.0
474,149.07783369791667,150.96895894791666,39.0,74.0
475,150.69073369791667,151.06170069791665,63.0,80.0
476,151.01331369791666,151.27003361458333,58.0,72.0
477,150.69073369791667,151.38562478125,66.0,83.0
478,151.65847369791666,152.07379544791667,56.0,69.0
479,151.65847369791666,152.35202069791666,59.0,70.0
480,152.30363369791667,153.23105119791666,56.0,87.0
481,152.62621369791665,153.28481453125,63.0,103.0
482,151.98105369791665,153.36142728125,51.0,68.0
483,153.27137369791666,153.65846969791664,59.0,83.0
484,151.65847369791666,153.78346944791667,44.0,80.0
485,154.23911369791665,155.02943469791666,60.0,69.0
486,154.23911369791665,155.34798244791665,56.0,83.0
487,154.88427369791665,155.46760586458333,63.0,85.0
488,155.20685369791667,155.71894944791666,68.0,93.0
489,154.56169369791667,155.94475544791666,51.0,69.0
490,155.85201369791668,156.20819578125,56.0,87.0
491,154.23911369791665,156.26195911458333,44.0,87.0
492,156.17459369791666,156.28212036458334,51.0,71.0
493,155.85201369791668,156.81840961458335,63.0,93.0
494,156.49717369791665,157.16115086458333,56.0,80.0
495,156.81975369791667,157.53749419791666,61.0,74.0
496,157.46491369791667,157.62485961458333,56.0,83.0
497,157.78749369791666,158.26867553124998,56.0,102.0
498,157.78749369791666,158.55630936458334,65.0,69.0
499,158.43265369791666,158.79152394791666,56.0,21.0
500,157.14233369791665,159.17324361458333,44.0,69.0
501,156.81975369791667,159.19206078125,37.0,93.0
502,158.75523369791665,159.20012528125,63.0,87.0
503,159.07781369791667,159.28749069791667,56.0,87.0
504,159.41383453125,159.74044678125,56.0,83.0
505,159.41652269791666,160.14367178125,65.0,65.0
506,159.95818828125,160.38157453125,56.0,93.0
507,160.30764994791667,160.49985386458332,61.0,105.0
508,161.00388511458334,161.15442244791666,56.0,105.0
509,160.66248794791665,161.20684169791667,65.0,103.0
510,161.35065861458332,161.85065761458333,61.0,102.0
511,161.34662636458333,161.85334578125,56.0,105.0
512,159.40039369791666,161.87350703125,37.0,93.0
513,159.72297369791664,161.88425969791666,44.0,60.0
514,162.62619369791668,162.99044028125,56.0,80.0
515,162.30361369791666,163.08318203125,49.0,60.0
516,162.94877369791666,163.48909519791667,58.0,105.0
517,163.59393369791667,163.74715919791666,54.0,54.0
518,163.91651369791666,164.06301878124998,54.0,74.0
519,161.98103369791664,164.40710411458332,42.0,93.0
520,163.91651369791666,164.44877069791667,58.0,87.0
521,163.27135369791665,164.47027603125,49.0,61.0
522,164.23909369791664,164.55360919791667,54.0,72.0
523,163.91651369791666,164.69070569791666,61.0,87.0
524,165.20683369791666,165.3950053645833,56.0,95.0
525,164.88425369791668,165.71624128125,53.0,66.0
526,166.17457369791666,166.52134719791667,53.0,74.0
527,165.52941369791665,166.54822886458334,56.0,95.0
528,165.52941369791665,166.63693836458333,65.0,68.0
529,164.56167369791666,166.77000261458332,46.0,83.0
530,166.49715369791664,166.82779819791665,61.0,95.0
531,166.81973369791666,167.26731344791665,58.0,80.0
532,167.14231369791668,167.82779619791665,63.0,70.0
533,167.78747369791665,167.94876369791666,58.0,70.0
534,167.46489369791666,168.24446203125,46.0,68.0
535,168.11005369791667,168.84392319791667,58.0,74.0
536,168.11005369791667,168.99714869791666,66.0,67.0
537,167.14231369791668,169.09392269791667,39.0,83.0
538,168.75521369791664,169.11946028124999,46.0,50.0
539,168.11005369791667,169.15843869791667,63.0,87.0
540,169.07779369791666,169.51999711458333,58.0,83.0
541,169.40037369791668,169.66919036458333,66.0,87.0
542,169.72295369791667,170.11945828125,61.0,64.0
543,170.04553369791665,170.49714569791666,56.0,72.0
544,170.36811369791667,170.52671553125,61.0,69.0
545,170.69069369791666,171.04284353124999,56.0,85.0
546,170.69069369791666,171.40171378125,65.0,93.0
547,170.69069369791666,171.64230469791664,61.0,93.0
548,171.33585369791666,171.67993903125,56.0,83.0
549,171.65843369791668,171.98907819791665,66.0,93.0
550,169.72295369791667,172.07913178125,49.0,87.0
551,171.98101369791667,172.29956144791666,65.0,102.0
552,172.30359369791665,172.97160311458333,63.0,93.0
553,172.94875369791666,173.14633394791667,61.0,68.0
554,172.62617369791667,173.46084944791664,54.0,68.0
555,173.27133369791665,173.90305286458334,59.0,71.0
556,172.30359369791665,173.9272463645833,47.0,83.0
557,173.27133369791665,173.97160111458334,63.0,80.0
558,173.91649369791668,174.52536344791667,66.0,74.0
559,174.88423369791667,175.06702903125,60.0,66.0
560,174.88423369791667,175.55896353125001,66.0,74.0
561,175.20681369791666,175.65573753125,60.0,67.0
562,175.52939369791665,175.67321061458333,63.0,58.0
563,175.85197369791666,176.48369286458333,60.0,80.0
564,176.49713369791667,176.54014436458334,60.0,37.0
565,175.85197369791666,176.59390769791668,66.0,93.0
566,174.88423369791667,176.72159561458332,36.0,59.0
567,176.49713369791667,176.87750928125,63.0,93.0
568,176.81971369791665,177.03207886458333,60.0,56.0
569,177.46487369791666,177.85331378125,56.0,72.0
570,177.46487369791666,178.16514111458332,61.0,68.0
571,178.11003369791666,178.52938769791666,56.0,87.0
572,178.43261369791668,179.12750478125,63.0,95.0
573,179.07777369791665,179.42723536458334,61.0,93.0
574,177.46487369791666,179.83852486458335,37.0,93.0
575,177.78745369791665,179.86809469791666,44.0,68.0
576,179.40035369791667,179.90572903125,56.0,95.0
577,179.72293369791666,179.93529886458333,61.0,70.0
578,180.04551369791665,180.45008278125,58.0,80.0
579,180.04551369791665,180.70949086458333,63.0,87.0
580,180.04551369791665,180.76325419791667,66.0,83.0
581,180.69067369791668,181.03879128124998,58.0,95.0
582,180.36809369791666,181.12615669791666,46.0,52.0
583,180.04551369791665,181.15841469791667,39.0,93.0
584,181.01325369791667,181.29551119791665,63.0,102.0
585,181.33583369791666,181.70545661458334,61.0,74.0
586,181.33583369791666,181.97024103125,65.0,87.0
587,181.33583369791666,182.02131619791666,37.0,102.0
588,181.65841369791667,182.07373544791665,44.0,69.0
589,181.98099369791666,182.49846578125,61.0,85.0
590,182.62615369791666,183.10464736458334,61.0,85.0
591,182.62615369791666,183.35195869791664,66.0,80.0
592,183.27131369791667,184.17453769791666,61.0,93.0
593,183.59389369791666,184.26727944791668,68.0,93.0
594,184.23905369791666,184.9675468645833,66.0,93.0
595,182.62615369791666,184.98501994791667,42.0,74.0
596,182.94873369791668,184.99039628125,49.0,71.0
597,184.88421369791666,185.23770761458331,61.0,83.0
598,185.20679369791668,185.98367386458332,70.0,87.0
599,185.85195369791666,186.0159318645833,58.0,83.0
600,185.52937369791667,186.24173786458334,53.0,63.0
601,186.17453369791667,186.86539253125,58.0,102.0
602,186.17453369791667,186.89227419791666,62.0,71.0
603,186.49711369791666,186.97291919791667,53.0,52.0
604,185.20679369791668,187.13420919791668,46.0,83.0
605,186.81969369791665,187.46216553124998,65.0,87.0
606,187.14227369791666,187.63286411458333,58.0,65.0
607,187.78743369791667,188.17318561458333,58.0,65.0
608,187.78743369791667,188.5239913645833,63.0,70.0
609,188.43259369791667,188.63689436458333,58.0,68.0
610,188.75517369791666,189.46753786458333,66.0,95.0
611,189.40033369791666,189.76592436458333,63.0,93.0
612,189.72291369791668,190.27129969791667,58.0,95.0
613,188.11001369791666,190.28608461458333,46.0,54.0
614,190.04549369791667,190.29683728125,63.0,103.0
615,187.78743369791667,190.29818136458334,39.0,80.0
616,190.36807369791666,191.13823344791666,65.0,83.0
617,191.01323369791666,191.37344803125,61.0,90.0
618,190.69065369791667,191.37479211458333,56.0,85.0
619,191.33581369791665,191.80624286458334,63.0,93.0
620,190.36807369791666,192.63957453125,49.0,74.0
621,191.98097369791668,192.73097219791666,61.0,80.0
622,192.62613369791666,192.90704711458335,56.0,68.0
623,192.94871369791667,193.12478861458334,54.0,85.0
624,192.94871369791667,193.58312103125002,63.0,87.0
625,193.27129369791666,193.71215303125,54.0,80.0
626,192.94871369791667,194.02935669791668,47.0,87.0
627,193.59387369791665,194.04279753125002,59.0,87.0
628,193.91645369791667,194.22828103125,63.0,64.0
629,194.23903369791668,194.72290369791665,58.0,68.0
630,194.23903369791668,194.94736561458333,61.0,74.0
631,194.56161369791667,195.02263428125,53.0,63.0
632,194.23903369791668,195.28876278125,46.0,83.0
633,194.88419369791666,195.32370894791666,58.0,80.0
634,195.20677369791667,195.40435394791666,61.0,71.0
635,195.52935369791666,195.73634253125,56.0,80.0
636,195.52935369791666,195.89091211458333,61.0,83.0
637,195.85193369791665,196.32773919791666,56.0,74.0
638,196.17451369791667,196.42048094791664,61.0,80.0
639,196.49709369791668,197.32908128125,63.0,90.0
640,195.52935369791666,197.98768211458332,49.0,90.0
641,197.14225369791666,198.01456378125,61.0,83.0
642,197.46483369791667,198.0562303645833,56.0,63.0
643,198.10327328124998,198.39090711458334,51.0,90.0
644,198.10864961458333,198.43257369791667,66.0,80.0
645,198.11537003125,198.4352618645833,63.0,74.0
646,198.77934719791665,198.87208894791667,65.0,65.0
647,198.77665903125,198.88418569791668,49.0,69.0
648,198.78203536458335,198.92182003124998,61.0,74.0
649,199.09923903125,199.56698003125,60.0,68.0
650,199.09789494791664,199.89628044791667,63.0,80.0
651,199.74439903125,200.12611869791667,60.0,64.0
652,200.06294678125,200.6529993645833,56.0,80.0
653,199.09655086458332,200.65568753125,48.0,65.0
654,200.38418269791666,200.67450469791666,63.0,70.0
655,200.69869819791666,200.95945036458335,65.0,69.0
656,200.70676269791664,201.02799861458334,61.0,72.0
657,200.71482719791666,201.04278353125,49.0,87.0
658,201.38014844791667,201.50918044791666,47.0,66.0
659,201.37073986458333,201.52530944791667,59.0,68.0
660,201.37342803125,201.56025561458333,63.0,74.0
661,201.69466394791667,202.48498494791664,58.0,80.0
662,201.69197578125,202.48901719791667,61.0,77.0
663,202.65837169791666,202.86267236458332,56.0,72.0
664,202.64627494791665,203.04277953125,61.0,68.0
665,202.9513818645833,203.22826303124998,56.0,75.0
666,202.32369494791666,203.26052103125,53.0,64.0
667,201.67047044791667,203.28068228125,46.0,83.0
668,203.26992961458333,203.69197178125,59.0,72.0
669,203.26992961458333,204.00245503125,66.0,72.0
670,203.59250961458332,204.25514269791665,54.0,66.0
671,203.26992961458333,204.36938978125,47.0,74.0
672,203.90971328125,204.63148603125,59.0,87.0
673,204.23632553125,204.73094819791666,63.0,102.0
674,204.88014144791666,205.09922703125,60.0,69.0
675,204.55621736458335,205.32906528125,51.0,60.0
676,204.55621736458335,205.34653836458332,56.0,65.0
677,204.56293778125,205.38148453125,48.0,50.0
678,205.19331286458333,205.38820494791668,60.0,67.0
679,205.19062469791666,205.40971028125,63.0,80.0
680,205.18793653125,205.45675319791667,66.0,74.0
681,206.14357978125,206.26320319791665,65.0,69.0
682,206.15164428125001,206.28067628125,61.0,71.0
683,206.1489561145833,206.28336444791665,37.0,93.0
684,206.78605161458333,207.1973411145833,61.0,80.0
685,206.79008386458332,207.34653436458333,65.0,63.0
686,206.78336344791666,207.51723294791668,68.0,87.0
687,207.42986753125,207.55352319791666,61.0,72.0
688,207.76857653125,207.91508161458333,61.0,95.0
689,207.76857653125,208.32233886458334,65.0,95.0
690,207.76857653125,208.32771519791666,73.0,80.0
691,206.78336344791666,208.33443561458333,37.0,103.0
692,207.11131978125002,208.33443561458333,44.0,59.0
693,208.06696303125,208.33712378125,61.0,64.0
694,207.76588836458333,208.33981194791664,68.0,95.0
695,209.07771369791666,209.44196028124998,56.0,80.0
696,208.75513369791668,209.53470203125,49.0,60.0
697,209.40029369791665,209.94061519791666,58.0,105.0
698,210.04545369791668,210.19867919791665,54.0,54.0
699,210.36803369791664,210.51453878125,54.0,74.0
700,208.43255369791666,210.85862411458334,42.0,93.0
701,210.36803369791664,210.90029069791666,58.0,87.0
702,209.72287369791667,210.92179603124998,49.0,61.0
703,210.69061369791666,211.00512919791666,54.0,72.0
704,210.36803369791664,211.14222569791667,61.0,87.0
705,211.65835369791665,211.84652536458333,56.0,95.0
706,211.33577369791666,212.16776128125,53.0,66.0
707,212.62609369791664,212.97286719791668,53.0,74.0
708,211.98093369791667,212.99974886458332,56.0,95.0
709,211.98093369791667,213.08845836458335,65.0,68.0
710,211.01319369791668,213.22152261458334,46.0,83.0
711,212.94867369791666,213.27931819791667,61.0,95.0
712,213.27125369791668,213.71883344791667,58.0,80.0
713,213.59383369791666,214.27931619791667,63.0,70.0
714,214.23899369791667,214.40028369791668,58.0,70.0
715,213.91641369791665,214.69598203125,46.0,68.0
716,214.56157369791669,215.29544319791665,58.0,74.0
717,214.56157369791669,215.44866869791667,66.0,67.0
718,213.59383369791666,215.54544269791666,39.0,83.0
719,215.20673369791666,215.57098028125,46.0,50.0
720,214.56157369791669,215.60995869791668,63.0,87.0
721,215.52931369791668,215.97151711458332,58.0,83.0
722,215.85189369791667,216.12071036458332,66.0,87.0
723,216.17447369791665,216.57097828125,61.0,64.0
724,216.49705369791667,216.94866569791668,56.0,72.0
725,216.81963369791666,216.97823553125,61.0,69.0
726,217.14221369791665,217.49436353125,56.0,85.0
727,217.14221369791665,217.85323378125,65.0,93.0
728,217.14221369791665,218.09382469791666,61.0,93.0
729,217.78737369791668,218.13145903125002,56.0,83.0
730,218.10995369791667,218.44059819791667,66.0,93.0
731,216.17447369791665,218.53065178125001,49.0,87.0
732,218.43253369791665,218.75108144791665,65.0,102.0
733,218.75511369791667,219.42312311458335,63.0,93.0
734,219.40027369791665,219.59785394791666,61.0,68.0
735,219.07769369791666,219.91236944791666,54.0,68.0
736,219.72285369791666,220.35457286458333,59.0,71.0
737,218.75511369791667,220.37876636458333,47.0,83.0
738,219.72285369791666,220.42312111458332,63.0,80.0
739,220.36801369791667,220.97688344791666,66.0,74.0
740,221.33575369791666,221.51854903125002,60.0,66.0
741,221.33575369791666,222.01048353125,66.0,74.0
742,221.65833369791665,222.10725753125,60.0,67.0
743,221.98091369791666,222.1247306145833,63.0,58.0
744,222.30349369791668,222.93521286458332,60.0,80.0
745,222.94865369791665,222.99166436458333,60.0,37.0
746,222.30349369791668,223.04542769791667,66.0,93.0
747,221.33575369791666,223.17311561458334,36.0,59.0
748,222.94865369791665,223.32902928125,63.0,93.0
749,223.27123369791667,223.4835988645833,60.0,56.0
750,223.91639369791665,224.30483378125,56.0,72.0
751,223.91639369791665,224.61666111458334,61.0,68.0
752,224.56155369791668,224.98090769791668,56.0,87.0
753,224.88413369791667,225.57902478124998,63.0,95.0
754,225.52929369791667,225.87875536458333,61.0,93.0
755,223.91639369791665,226.29004486458334,37.0,93.0
756,224.23897369791666,226.31961469791668,44.0,68.0
757,225.85187369791666,226.35724903124998,56.0,95.0
758,226.17445369791665,226.38681886458335,61.0,70.0
759,226.49703369791666,226.90160278125,58.0,80.0
760,226.49703369791666,227.16101086458332,63.0,87.0
761,226.49703369791666,227.21477419791665,66.0,83.0
762,227.14219369791667,227.49031128125,58.0,95.0
763,226.81961369791668,227.57767669791667,46.0,52.0
764,226.49703369791666,227.60993469791669,39.0,93.0
765,227.46477369791666,227.74703119791667,63.0,102.0
766,227.78735369791667,228.15697661458333,61.0,74.0
767,227.78735369791667,228.42176103125,65.0,87.0
768,227.78735369791667,228.47283619791665,37.0,102.0
769,228.10993369791666,228.52525544791666,44.0,69.0
770,228.43251369791665,228.94998578125,61.0,85.0
771,229.07767369791668,229.55616736458333,61.0,85.0
772,229.07767369791668,229.80347869791666,66.0,80.0
773,229.72283369791666,230.62605769791668,61.0,93.0
774,230.04541369791667,230.71879944791667,68.0,93.0
775,230.69057369791665,231.41906686458333,66.0,93.0
776,229.07767369791668,231.43653994791669,42.0,74.0
777,229.40025369791667,231.44191628125,49.0,71.0
778,231.33573369791668,231.68922761458333,61.0,83.0
779,231.65831369791667,232.4351938645833,70.0,87.0
780,232.30347369791667,232.46745186458332,58.0,83.0
781,231.98089369791666,232.69325786458333,53.0,63.0
782,232.62605369791666,233.31691253125,58.0,102.0
783,232.62605369791666,233.34379419791668,62.0,71.0
784,232.94863369791665,233.42443919791668,53.0,52.0
785,231.65831369791667,233.58572919791666,46.0,83.0
786,233.27121369791666,233.91368553125,65.0,87.0
787,233.59379369791668,234.08438411458332,58.0,65.0
788,234.23895369791666,234.62470561458332,58.0,65.0
789,234.23895369791666,234.97551136458333,63.0,70.0
790,234.88411369791666,235.08841436458334,58.0,68.0
791,235.20669369791665,235.91905786458335,66.0,95.0
792,235.85185369791668,236.21744436458334,63.0,93.0
793,236.17443369791664,236.7228196979167,58.0,95.0
794,234.56153369791667,236.73760461458335,46.0,54.0
795,236.49701369791666,236.74835728124998,63.0,103.0
796,234.23895369791666,236.74970136458336,39.0,80.0
797,236.81959369791667,237.58975344791668,65.0,83.0
798,237.46475369791665,237.82496803125002,61.0,90.0
799,237.1421736979167,237.82631211458335,56.0,85.0
800,237.78733369791667,238.25776286458336,63.0,93.0
801,236.81959369791667,239.09109453125,49.0,74.0
802,238.43249369791664,239.18249219791664,61.0,80.0
803,239.07765369791667,239.3585671145833,56.0,68.0
804,239.4002336979167,239.57630861458335,54.0,85.0
805,239.4002336979167,240.03464103124998,63.0,87.0
806,239.72281369791665,240.16367303124997,54.0,80.0
807,239.4002336979167,240.48087669791664,47.0,87.0
808,240.04539369791667,240.49431753124998,59.0,87.0
809,240.36797369791668,240.67980103125,63.0,64.0
810,240.69055369791664,241.17442369791667,58.0,68.0
811,240.69055369791664,241.39888561458332,61.0,74.0
812,241.01313369791666,241.47415428124998,53.0,63.0
813,240.69055369791664,241.74028278125002,46.0,83.0
814,241.33571369791667,241.77522894791667,58.0,80.0
815,241.6582936979167,241.85587394791668,61.0,71.0
816,241.98087369791665,242.18786253125,56.0,80.0
817,241.98087369791665,242.34243211458335,61.0,83.0
818,242.30345369791667,242.77925919791664,56.0,74.0
819,242.62603369791668,242.87200094791666,61.0,80.0
820,242.94861369791664,243.78060128124997,63.0,90.0
821,241.98087369791665,244.43920211458334,49.0,90.0
822,243.59377369791667,244.46608378125,61.0,83.0
823,243.9163536979167,244.50775036458333,56.0,63.0
824,245.19860919791665,245.53731819791665,54.0,55.0
825,245.50237203125,245.90559703125,56.0,80.0
826,245.8424251145833,246.19726311458334,58.0,87.0
827,246.16500511458332,246.59107953125,61.0,93.0
828,244.54269653125,246.70263844791668,42.0,93.0
829,246.48892919791666,246.76715444791665,54.0,59.0
830,244.86393244791668,246.84511128125,49.0,54.0
831,247.17441169791664,247.89752853124998,59.0,68.0
832,247.84779744791666,248.68650544791666,56.0,65.0
833,247.18247619791669,248.69591403125003,52.0,68.0
834,248.2012913645833,249.01580586458334,64.0,74.0
835,247.5332819479167,249.5399983645833,47.0,45.0
836,247.17978803124998,249.57628861458335,40.0,85.0
837,249.78730969791667,249.9795136145833,54.0,68.0
838,249.78193336458332,250.20666369791667,59.0,71.0
839,250.07897578125,251.09913503125,54.0,80.0
840,250.42709336458336,251.36526353124998,59.0,72.0
841,249.7899978645833,251.81687553125,39.0,80.0
842,251.36391944791666,252.31553044791667,54.0,65.0
843,251.79268203125002,252.33434761458335,59.0,49.0
844,250.73354436458334,252.41230444791665,63.0,74.0
845,252.47547636458336,253.51982911458333,35.0,85.0
846,253.23891569791664,253.57359244791667,47.0,80.0
847,252.87063686458333,253.59240961458335,42.0,71.0
848,253.9566561979167,254.63004194791665,49.0,60.0
849,254.01848403125,254.9163316979167,53.0,65.0
850,254.10584944791668,254.93918111458333,56.0,72.0
851,254.0157958645833,254.94186928124998,37.0,93.0
852,254.13945153125002,254.95934236458334,61.0,85.0
853,254.46606378125,254.96203053124998,44.0,66.0
854,254.87869736458333,255.02789061458333,49.0,102.0
855,255.95934036458334,256.07224336458336,42.0,87.0
856,255.84374919791668,256.10046911458335,54.0,83.0
857,256.05208211458336,256.40692011458333,61.0,72.0
858,256.83299453125,256.9956286145833,66.0,56.0
859,257.01175761458336,257.14885411458334,68.0,69.0
860,257.20664969791665,257.42170303125,70.0,80.0
861,257.39616544791664,257.62869186458335,73.0,58.0
862,257.63541228125,257.77788511458334,78.0,80.0
863,257.8625623645833,258.0036911145833,80.0,65.0
864,258.14078761458336,258.63675436458334,82.0,59.0
865,258.4109483645833,258.97680744791666,85.0,59.0
866,258.71605528125,258.9929364479167,90.0,68.0
867,256.6448228645833,260.27250378125,61.0,64.0
868,256.39616744791664,260.27788011458335,54.0,61.0
