,start,end,pitch,velocity
0,29.36693321041666,29.665620954166663,80.0,94.0
1,29.781297710416663,30.06617330416666,79.0,100.0
2,30.19566221041666,30.53405988541666,77.0,97.0
3,30.610026710416662,30.76541339791666,75.0,98.0
4,30.81720896041666,31.290275097916663,72.0,97.0
5,31.43875571041666,31.737443454166662,70.0,93.0
6,31.853120210416662,32.188064847916664,72.0,93.0
7,32.26748471041666,32.405606210416664,75.0,98.0
8,32.47466696041666,34.31858898541666,72.0,95.0
9,35.99676521041666,36.312718141666664,80.0,97.0
10,36.41112971041666,36.51644735416666,79.0,98.0
11,36.61831196041666,36.770245610416666,79.0,107.0
12,36.825494210416664,37.20014877916666,77.0,102.0
13,37.23985871041666,37.37280065416666,75.0,96.0
14,37.44704096041666,38.01679214791666,72.0,93.0
15,38.068587710416665,38.42943012916666,72.0,93.0
16,38.48295221041666,38.69013446041666,72.0,92.0
17,38.69013446041666,39.311681210416666,77.0,98.0
18,39.311681210416666,41.73398701666666,75.0,102.0
19,42.62659721041666,42.738820929166664,68.0,76.0
20,42.833779460416665,43.078945122916664,68.0,90.0
21,43.24814396041666,43.37245331041666,68.0,86.0
22,43.45532621041666,43.836886854166664,68.0,91.0
23,43.86969071041666,44.25815742916666,65.0,93.0
24,44.28405521041666,45.12832287916666,68.0,91.0
25,45.52714871041666,45.83964860416666,77.0,93.0
26,45.94151321041666,46.623488116666664,75.0,100.0
27,46.77024221041666,47.381429847916664,75.0,96.0
28,47.39178896041666,47.61968943541666,77.0,88.0
29,47.598971210416664,48.91112546041666,72.0,97.0
30,49.25642921041666,49.423865810416665,72.0,92.0
31,49.46352097291666,49.579038185416664,70.0,87.0
32,49.67041747291666,49.78076227291666,70.0,90.0
33,49.87731397291666,51.39800324791666,70.0,89.0
34,51.53248597291666,51.64283077291666,77.0,87.0
35,51.73938247291666,52.07386514791666,77.0,95.0
36,52.15317547291666,52.360071972916664,77.0,94.0
37,52.360071972916664,52.59800294791666,72.0,98.0
38,52.56696847291666,53.022140772916664,77.0,94.0
39,53.18765797291666,55.04972647291666,75.0,95.0
40,55.877312472916664,56.17558826041666,80.0,94.0
41,56.291069816666656,56.57516028541666,79.0,100.0
42,56.70429231666666,57.04175735833333,77.0,97.0
43,57.117514816666656,57.272473254166655,75.0,98.0
44,57.32412606666666,57.79588842083332,72.0,97.0
45,57.943959816666656,58.24182436874999,70.0,93.0
46,58.35718231666666,58.69120383749999,72.0,93.0
47,58.770404816666655,58.908145649999994,75.0,98.0
48,58.97701606666666,60.815856191666654,72.0,95.0
49,62.48940731666666,62.80448947291666,80.0,97.0
50,62.90262981666666,63.00765720208332,79.0,98.0
51,63.109241066666655,63.260755983333326,79.0,107.0
52,63.31585231666666,63.689474327083325,77.0,102.0
53,63.72907481666666,63.86165036874999,75.0,96.0
54,63.935686066666655,64.50386700416666,72.0,93.0
55,64.55551981666666,64.91536774375,72.0,93.0
56,64.96874231666666,65.17535356666666,72.0,92.0
57,65.17535356666666,65.79518731666666,77.0,98.0
58,65.79518731666666,68.21081718125,75.0,102.0
59,69.10096731666665,69.21288174374999,68.0,76.0
60,69.30757856666665,69.55206854583332,68.0,90.0
61,69.72080106666665,69.84476781666666,68.0,86.0
62,69.92741231666666,70.30792136874999,68.0,91.0
63,70.34063481666665,70.72803091041666,65.0,93.0
64,70.75385731666665,71.59579816041665,68.0,91.0
65,71.99352481666665,72.30516345208332,77.0,93.0
66,72.40674731666665,73.08684268124999,75.0,100.0
67,73.23319231666666,73.84269550416666,75.0,96.0
68,73.85302606666666,74.08029844166666,77.0,88.0
69,74.05963731666665,75.36817523333332,72.0,97.0
70,75.71252731666665,75.87953807708332,72.0,92.0
71,75.91913856666666,76.03449651458332,70.0,87.0
72,76.12574981666666,76.23594248333332,70.0,90.0
73,76.53897231666666,76.91087256666665,70.0,91.0
74,76.95219481666666,77.08132684791666,68.0,91.0
75,77.15880606666666,77.98525106666665,70.0,92.0
76,78.19186231666666,78.51383151458333,72.0,94.0
77,78.60508481666665,78.99592443124999,70.0,92.0
78,79.01830731666665,82.35117282499999,68.0,92.0
79,85.01758475,85.13153498749999,75.0,102.0
80,85.22476699999999,85.33181116249999,75.0,102.0
81,85.43194924999999,85.58388289999999,75.0,98.0
82,85.63913149999999,85.96199050624999,82.0,93.0
83,86.053496,86.33146551875,80.0,95.0
84,86.46786049999999,86.83042943749999,82.0,96.0
85,86.88222499999999,87.01861998125,80.0,92.0
86,87.08940725,87.6522523625,82.0,97.0
87,87.71095399999999,88.02345389374999,80.0,98.0
88,88.12531849999999,88.28243170625,82.0,92.0
89,88.33250075,88.85390941249999,84.0,94.0
90,88.95404749999999,90.69265188124999,75.0,102.0
91,91.64741674999999,91.76827306249999,72.0,93.0
92,91.854599,91.99790005624999,72.0,93.0
93,92.06178125,92.20162926875,75.0,100.0
94,92.26896349999998,92.552112575,82.0,92.0
95,92.68332799999999,92.93367321874999,80.0,92.0
96,93.0976925,93.38602113124999,82.0,94.0
97,93.512057,93.63118679374999,80.0,87.0
98,93.71923924999999,94.2475539875,82.0,93.0
99,94.340786,94.6342370875,80.0,97.0
100,94.75476031666666,94.96137156666666,80.0,92.0
101,94.96137156666666,95.37459406666666,72.0,92.0
102,95.58120531666665,98.01749630625,75.0,97.0
103,98.88698531666665,99.18312810833332,77.0,94.0
104,99.30020781666666,99.582576525,77.0,95.0
105,99.71343031666666,100.01990367083333,77.0,95.0
106,100.12665281666666,100.24717604583333,72.0,97.0
107,100.33326406666666,101.46101713958332,72.0,96.0
108,101.77954281666666,101.93622301458332,70.0,95.0
109,101.98615406666666,102.11528609791665,68.0,92.0
110,102.19276531666665,102.48029930624999,72.0,95.0
111,102.60598781666666,102.87802596249999,75.0,100.0
112,103.01921031666666,103.13973354583332,75.0,96.0
113,103.22582156666665,103.75612377499999,77.0,95.0
114,103.84565531666667,105.08532281666666,72.0,93.0
115,105.49854531666665,105.66039079583332,72.0,97.0
116,105.70515656666666,105.82051451458332,70.0,87.0
117,105.91176781666665,106.02196048333333,70.0,91.0
118,106.11837906666666,106.23373701458333,70.0,91.0
119,106.32499031666666,106.67450768124999,70.0,91.0
120,106.73821281666666,106.87423188958333,68.0,90.0
121,106.94482406666665,107.42863874374999,70.0,92.0
122,107.56465781666665,107.85219180624999,70.0,92.0
123,107.97788031666666,108.11906467083332,70.0,92.0
124,108.18449156666665,108.7457854625,72.0,93.0
125,108.80432531666666,111.99819088958333,68.0,93.0
126,131.98258551666666,132.28127326041664,80.0,94.0
127,132.3968834,132.68097386875,79.0,100.0
128,132.8101059,133.14757094166666,77.0,97.0
129,133.22332839999999,133.37828683749999,75.0,98.0
130,133.42993965,133.90170200416665,72.0,97.0
131,134.0497734,134.34763795208332,70.0,93.0
132,134.46299589999998,134.79701742083333,72.0,93.0
133,134.8762184,135.01395923333334,75.0,98.0
134,135.08282964999998,136.921669775,72.0,95.0
135,138.5952209,138.91030305625,80.0,97.0
136,139.0084434,139.11347078541667,79.0,98.0
137,139.21505464999998,139.36656956666667,79.0,107.0
138,139.4216659,139.79528791041665,77.0,102.0
139,139.83488839999998,139.96746395208334,75.0,96.0
140,140.04149965,140.60968058749998,72.0,93.0
141,140.6613334,141.02118132708333,72.0,93.0
142,141.07455589999998,141.28116715,72.0,92.0
143,141.28116715,141.90100089999999,77.0,98.0
144,141.90100089999999,144.31943809999999,75.0,102.0
145,145.2108171875,145.322886125,68.0,76.0
146,145.4177136875,145.6625412125,68.0,90.0
147,145.8315066875,145.9556445875,68.0,86.0
148,146.0384031875,146.419437575,68.0,91.0
149,146.4521961875,146.840127125,65.0,93.0
150,146.8659891875,147.709092425,68.0,91.0
151,148.1073681875,148.419437075,77.0,93.0
152,148.52116118749998,149.2021955,75.0,100.0
153,149.3487471875,149.9590918625,75.0,96.0
154,149.9694366875,150.1970228375,77.0,88.0
155,150.1763331875,151.4866776875,72.0,97.0
156,151.8315051875,151.998746525,72.0,92.0
157,152.0384016875,152.1539189,70.0,87.0
158,152.2452981875,152.3556429875,70.0,90.0
159,152.4521946875,153.9728839625,70.0,89.0
160,154.1073666875,154.2177114875,77.0,87.0
161,154.3142631875,154.6487458625,77.0,95.0
162,154.7280561875,154.9349526875,77.0,94.0
163,154.9349526875,155.1728836625,72.0,98.0
164,155.1418491875,155.5970214875,77.0,94.0
165,155.7625386875,157.6246071875,75.0,95.0
166,158.4521931875,158.750468975,80.0,94.0
167,158.8659861875,159.150468875,79.0,100.0
168,159.2797791875,159.6177101375,77.0,97.0
169,159.6935721875,159.8487445625,75.0,98.0
170,159.9004686875,160.3728823625,72.0,97.0
171,160.5211581875,160.819433975,70.0,93.0
172,160.9349511875,161.2694338625,72.0,93.0
173,161.3487441875,161.4866751875,75.0,98.0
174,161.5556406875,163.3970195375,72.0,95.0
175,165.0728811875,165.38839835,80.0,97.0
176,165.4866741875,165.591846575,79.0,98.0
177,165.6935706875,165.8452947875,79.0,107.0
178,165.9004671875,166.274605025,77.0,102.0
179,166.3142601875,166.447018775,75.0,96.0
180,166.5211566875,167.0901220625,72.0,93.0
181,167.1418461875,167.502190925,72.0,93.0
182,167.5556391875,167.7625356875,72.0,92.0
183,167.7625356875,168.3832251875,77.0,98.0
184,168.3832251875,170.8021901,75.0,102.0
185,171.6935691875,171.805638125,68.0,76.0
186,171.9004656875,172.1452932125,68.0,90.0
187,172.3142586875,172.4383965875,68.0,86.0
188,172.5211551875,172.902189575,68.0,91.0
189,172.9349481875,173.322879125,65.0,93.0
190,173.3487411875,174.191844425,68.0,91.0
191,174.5901201875,174.902189075,77.0,93.0
192,175.0039131875,175.6849475,75.0,100.0
193,175.83149918750001,176.4418438625,75.0,96.0
194,176.45218868749998,176.6797748375,77.0,88.0
195,176.6590851875,177.9694296875,72.0,97.0
196,178.3142571875,178.481498525,72.0,92.0
197,178.5211536875,178.6366709,70.0,87.0
198,178.7280501875,178.8383949875,70.0,90.0
199,179.1418431875,179.51425688749998,70.0,91.0
200,179.5556361875,179.6849465,68.0,91.0
201,179.7625326875,180.5901186875,70.0,92.0
202,180.7970151875,181.1194289,72.0,94.0
203,181.2108081875,181.6021874,70.0,92.0
204,181.6246011875,184.9590831125,68.0,92.0
205,187.6245996875,187.73839276249998,75.0,102.0
206,187.8314961875,187.9383927125,75.0,102.0
207,188.0383926875,188.19011678750002,75.0,98.0
208,188.2452891875,188.5677029,82.0,93.0
209,188.6590821875,188.936668325,80.0,95.0
210,189.07287518750002,189.4349440625,82.0,96.0
211,189.48666818750002,189.62287505,80.0,92.0
212,189.6935646875,190.2556335125,82.0,97.0
213,190.3142541875,190.62632307500002,80.0,98.0
214,190.7280471875,190.8849437,82.0,92.0
215,190.9349436875,191.4556332125,84.0,94.0
216,191.5556331875,193.29183965,75.0,102.0
217,194.2452876875,194.3659773125,72.0,93.0
218,194.4521841875,194.5952876,72.0,93.0
219,194.6590806875,194.798735825,75.0,100.0
220,194.8659771875,195.1487357375,82.0,92.0
221,195.2797701875,195.529770125,80.0,92.0
222,195.6935631875,195.98149415,82.0,94.0
223,196.1073561875,196.226321675,80.0,87.0
224,196.31425268750002,196.8418387625,82.0,93.0
225,196.93494218749998,197.2280455625,80.0,97.0
226,197.34873518749998,197.5556316875,80.0,92.0
227,197.5556316875,197.9694246875,72.0,92.0
228,198.1763211875,200.61597575000002,75.0,97.0
229,201.4866651875,201.7832168375,77.0,94.0
230,201.9004581875,202.1832167375,77.0,95.0
231,202.3142511875,202.6211476625,77.0,95.0
232,202.72804418750002,202.8487338125,72.0,97.0
233,202.9349406875,204.06425074999999,72.0,96.0
234,204.3832161875,204.5401127,70.0,95.0
235,204.5901126875,204.719423,68.0,92.0
236,204.7970091875,205.08494015,72.0,95.0
237,205.2108021875,205.4832159125,75.0,100.0
238,205.6245951875,205.74528481250002,75.0,96.0
239,205.8314916875,206.3625260375,77.0,95.0
240,206.4521811875,207.6935601875,72.0,93.0
241,208.1073531875,208.2694221125,72.0,97.0
242,208.3142496875,208.4297669,70.0,87.0
243,208.5211461875,208.6314909875,70.0,91.0
244,208.72804268750002,208.8435599,70.0,91.0
245,208.9349391875,209.2849391,70.0,91.0
246,209.3487321875,209.48493905,68.0,90.0
247,209.55562868750002,210.040111325,70.0,92.0
248,210.1763181875,210.46424915,70.0,92.0
249,210.59011118749999,210.7314904625,70.0,92.0
250,210.7970076875,211.3590765125,72.0,93.0
251,211.41769718749998,214.61597225,68.0,93.0
252,217.4176956875,217.5314887625,75.0,102.0
253,217.6245921875,217.73148871249998,75.0,102.0
254,217.83148868749998,217.9832127875,75.0,98.0
255,218.0383851875,218.36079890000002,82.0,93.0
256,218.4521781875,218.72976432500002,80.0,95.0
257,218.8659711875,219.22804006249999,82.0,96.0
258,219.2797641875,219.41597105,80.0,92.0
259,219.4866606875,220.04872951250002,82.0,97.0
260,220.1073501875,220.419419075,80.0,98.0
261,220.5211431875,220.6780397,82.0,92.0
262,220.7280396875,221.2487292125,84.0,94.0
263,221.3487291875,223.08493565,75.0,102.0
264,224.03838368750002,224.1590733125,72.0,93.0
265,224.2452801875,224.3883836,72.0,93.0
266,224.4521766875,224.59183182499999,75.0,100.0
267,224.65907318749998,224.9418317375,82.0,92.0
268,225.07286618749998,225.32286612500002,80.0,92.0
269,225.48665918749998,225.77459015,82.0,94.0
270,225.9004521875,226.019417675,80.0,87.0
271,226.1073486875,226.6349347625,82.0,93.0
272,226.7280381875,227.02114156250002,80.0,97.0
273,227.1418311875,227.3487276875,80.0,92.0
274,227.3487276875,227.7625206875,72.0,92.0
275,227.9694171875,230.40907175,75.0,97.0
276,231.27976118750001,231.57631283749998,77.0,94.0
277,231.6935541875,231.9763127375,77.0,95.0
278,232.1073471875,232.41424366249998,77.0,95.0
279,232.5211401875,232.64182981250002,72.0,97.0
280,232.7280366875,233.85734675,72.0,96.0
281,234.1763121875,234.3332087,70.0,95.0
282,234.3832086875,234.512519,68.0,92.0
283,234.5901051875,234.87803615,72.0,95.0
284,235.0038981875,235.2763119125,75.0,100.0
285,235.4176911875,235.5383808125,75.0,96.0
286,235.6245876875,236.1556220375,77.0,95.0
287,236.2452771875,237.4866561875,72.0,93.0
288,237.9004491875,238.06251811250002,72.0,97.0
289,238.10734568750001,238.2228629,70.0,87.0
290,238.31424218749999,238.4245869875,70.0,91.0
291,238.5211386875,238.6366559,70.0,91.0
292,238.72803518749998,239.07803510000002,70.0,91.0
293,239.1418281875,239.27803505,68.0,90.0
294,239.3487246875,239.833207325,70.0,92.0
295,239.9694141875,240.25734515,70.0,92.0
296,240.3832071875,240.5245864625,70.0,92.0
297,240.5901036875,241.1521725125,72.0,93.0
298,241.2107931875,244.40906825000002,68.0,93.0
299,247.2107916875,247.32458476250002,75.0,102.0
300,247.4176881875,247.5245847125,75.0,102.0
301,247.6245846875,247.7763087875,75.0,98.0
302,247.8314811875,248.1538949,82.0,93.0
303,248.2452741875,248.522860325,80.0,95.0
304,248.6590671875,249.0211360625,82.0,96.0
305,249.0728601875,249.20906705,80.0,92.0
306,249.2797566875,249.8418255125,82.0,97.0
307,249.9004461875,250.212515075,80.0,98.0
308,250.3142391875,250.4711357,82.0,92.0
309,250.52113568750002,251.0418252125,84.0,94.0
310,251.1418251875,252.87803165000003,75.0,102.0
311,253.8314796875,253.95216931250002,72.0,93.0
312,254.0383761875,254.1814796,72.0,93.0
313,254.2452726875,254.384927825,75.0,100.0
314,254.4521691875,254.73492773750002,82.0,92.0
315,254.8659621875,255.115962125,80.0,92.0
316,255.2797551875,255.56768615,82.0,94.0
317,255.6935481875,255.812513675,80.0,87.0
318,255.9004446875,256.4280307625,82.0,93.0
319,256.5211341875,256.8142375625,80.0,97.0
320,256.9349271875,257.1418236875,80.0,92.0
321,257.1418236875,257.5556166875,72.0,92.0
322,257.7625131875,260.20216775,75.0,97.0
