,start,end,pitch,velocity
0,2.9149403854166662,3.3625980937499995,68.0,90.0
1,2.9149403854166662,3.381537458333333,63.0,91.0
2,3.741385385416666,3.860186854166666,63.0,92.0
3,3.741385385416666,3.8946220624999994,68.0,93.0
4,3.741385385416666,3.953161916666666,72.0,93.0
5,4.5678303854166655,4.719345302083332,63.0,80.0
6,4.5678303854166655,5.084358510416666,68.0,79.0
7,4.5678303854166655,5.125680760416666,72.0,87.0
8,4.981052885416665,5.230708145833332,63.0,67.0
9,5.394275385416666,5.621547760416665,63.0,94.0
10,3.328162885416666,5.685252895833332,51.0,74.0
11,5.394275385416666,5.717966343749999,68.0,93.0
12,2.9149403854166662,5.7317404270833325,44.0,92.0
13,5.394275385416666,5.766175635416666,72.0,93.0
14,6.220720385416666,6.463488604166666,65.0,90.0
15,6.220720385416666,6.499645572916665,41.0,93.0
16,6.220720385416666,6.711422104166665,68.0,86.0
17,6.6339428854166655,6.782014281249999,65.0,78.0
18,6.220720385416666,6.802675406249999,72.0,91.0
19,7.047165385416665,7.262385437499999,65.0,92.0
20,7.047165385416665,7.2796030416666655,68.0,89.0
21,7.873610385416665,7.963141927083332,60.0,74.0
22,7.873610385416665,7.968307208333332,70.0,76.0
23,7.873610385416665,8.570923354166665,65.0,91.0
24,8.286832885416665,8.5846974375,60.0,86.0
25,8.700055385416665,8.880840229166665,60.0,93.0
26,7.873610385416665,9.054738031249999,53.0,91.0
27,8.700055385416665,9.199365906249998,72.0,90.0
28,8.700055385416665,9.226914072916665,65.0,94.0
29,9.113277885416665,9.302671531249999,60.0,91.0
30,9.939722885416664,10.149777656249999,61.0,83.0
31,10.352945385416664,10.771333166666665,61.0,92.0
32,10.352945385416664,10.84020358333333,65.0,97.0
33,10.352945385416664,10.905630479166664,68.0,92.0
34,10.766167885416666,11.420436843749998,56.0,81.0
35,11.179390385416665,11.430767406249998,65.0,86.0
36,11.179390385416665,11.446263249999998,61.0,76.0
37,11.179390385416665,11.446263249999998,68.0,80.0
38,9.526500385416664,12.202116072916665,49.0,95.0
39,12.005835385416665,12.214168395833331,65.0,105.0
40,12.005835385416665,12.245160083333332,68.0,93.0
41,12.005835385416665,12.248603604166664,61.0,94.0
42,12.419057885416665,12.549911677083331,49.0,93.0
43,12.832280385416665,13.207624156249997,65.0,91.0
44,12.832280385416665,13.242059364583332,61.0,87.0
45,12.832280385416665,13.255833447916665,58.0,84.0
46,13.658725385416664,13.863614874999998,58.0,92.0
47,13.658725385416664,13.896328322916665,61.0,94.0
48,13.658725385416664,13.915267687499998,65.0,97.0
49,13.245502885416665,14.133931260416665,53.0,81.0
50,12.832280385416665,14.147705343749998,46.0,92.0
51,14.485170385416664,14.702112197916664,58.0,91.0
52,14.485170385416664,14.958654499999998,67.0,88.0
53,14.485170385416664,14.963819781249997,63.0,92.0
54,14.898392885416664,15.079177729166664,58.0,79.0
55,15.311615385416664,15.535444239583331,58.0,94.0
56,15.311615385416664,15.583653531249997,67.0,96.0
57,14.485170385416664,15.600871135416664,51.0,93.0
58,15.518226635416664,15.728281406249998,63.0,88.0
59,15.724837885416663,15.836752312499998,58.0,93.0
60,16.138060385416665,16.48069070833333,60.0,91.0
61,16.138060385416665,16.499630072916663,56.0,90.0
62,16.551282885416665,17.186612479166662,51.0,74.0
63,16.964505385416665,17.376006124999996,56.0,91.0
64,16.964505385416665,17.4276589375,60.0,96.0
65,16.964505385416665,17.458650624999997,63.0,92.0
66,17.584339135416663,17.732410531249997,56.0,82.0
67,17.790950385416664,17.858099041666662,56.0,82.0
68,17.377727885416665,18.007892197916664,51.0,78.0
69,17.790950385416664,18.217946968749995,68.0,90.0
70,17.790950385416664,18.22655577083333,60.0,94.0
71,17.790950385416664,18.233442812499998,63.0,92.0
72,18.410784135416662,18.534750885416663,56.0,85.0
73,18.617395385416664,18.71725748958333,63.0,92.0
74,18.617395385416664,18.72758805208333,56.0,86.0
75,18.617395385416664,18.75341445833333,60.0,94.0
76,18.617395385416664,18.865328885416663,68.0,91.0
77,18.204172885416664,18.966912749999995,51.0,78.0
78,16.138060385416665,19.065053093749995,44.0,92.0
79,19.030617885416664,19.16147167708333,67.0,105.0
80,19.443840385416664,19.872558729166663,65.0,91.0
81,19.443840385416664,19.88461105208333,68.0,86.0
82,20.270285385416663,20.397695656249997,65.0,93.0
83,20.270285385416663,20.418356781249997,68.0,92.0
84,19.857062885416664,20.843631604166664,48.0,72.0
85,19.443840385416664,20.957267791666663,41.0,95.0
86,20.89011913541666,21.05712989583333,60.0,84.0
87,21.096730385416663,21.50650936458333,60.0,80.0
88,21.096730385416663,21.52028344791666,65.0,91.0
89,21.096730385416663,21.528892249999995,68.0,87.0
90,21.716564135416665,21.81642623958333,60.0,85.0
91,21.923175385416663,22.119456072916662,60.0,92.0
92,21.923175385416663,22.133230156249997,65.0,96.0
93,21.509952885416663,22.210709374999997,48.0,74.0
94,21.096730385416663,22.22964873958333,41.0,92.0
95,21.923175385416663,22.393215979166662,68.0,92.0
96,22.336397885416662,22.52923505208333,67.0,94.0
97,22.749620385416662,23.21621745833333,61.0,85.0
98,22.749620385416662,23.217939218749997,65.0,91.0
99,23.162842885416662,23.698310374999995,56.0,81.0
100,22.749620385416662,23.718971499999995,49.0,93.0
101,23.576065385416662,23.78956367708333,65.0,97.0
102,23.576065385416662,23.79472895833333,61.0,91.0
103,23.989287885416662,24.168350968749994,61.0,87.0
104,23.576065385416662,24.24410842708333,68.0,91.0
105,24.40251038541666,24.526477135416663,39.0,95.0
106,24.40251038541666,25.03956173958333,67.0,91.0
107,24.40251038541666,25.067109906249996,63.0,86.0
108,25.022344135416663,25.38391382291666,58.0,89.0
109,24.81573288541666,25.42695783333333,51.0,90.0
110,25.22895538541666,25.470001843749994,63.0,93.0
111,25.435566635416663,25.55953338541666,67.0,105.0
112,25.64217788541666,25.77819695833333,63.0,85.0
113,26.05540038541666,26.437631197916662,63.0,87.0
114,26.05540038541666,26.44796176041666,68.0,86.0
115,26.88184538541666,27.040247343749996,63.0,89.0
116,26.88184538541666,27.14010944791666,68.0,92.0
117,26.88184538541666,27.250302114583327,72.0,93.0
118,27.29511071041666,27.441864804166663,63.0,80.0
119,27.50229296041666,27.69221002291666,70.0,81.0
120,27.70947521041666,28.111754079166662,68.0,82.0
121,28.12383971041666,28.293038547916662,63.0,62.0
122,26.46862288541666,28.748839497916663,51.0,73.0
123,26.05540038541666,28.942209597916662,44.0,92.0
124,30.610026710416662,31.84966717291666,56.0,74.0
125,30.19566221041666,31.99469474791666,63.0,84.0
126,29.781297710416663,32.13626928541666,51.0,71.0
127,29.36693321041666,32.16907314166666,44.0,92.0
128,31.02439121041666,32.614514979166664,68.0,82.0
129,33.09621371041666,33.66423837916666,55.0,81.0
130,32.68184921041666,33.835163735416664,63.0,85.0
131,33.51057821041666,34.05270509791666,60.0,88.0
132,33.92494271041666,35.22328481041666,55.0,68.0
133,34.33930721041666,35.34932067916666,60.0,84.0
134,34.33930721041666,35.38557757291666,67.0,82.0
135,32.68184921041666,35.48916869791666,48.0,88.0
136,35.99676521041666,36.91354666666666,65.0,88.0
137,36.825494210416664,37.34172331666666,60.0,92.0
138,37.23985871041666,37.46775918541666,65.0,85.0
139,37.65422321041666,38.48985828541666,60.0,81.0
140,36.41112971041666,38.49676436041666,48.0,74.0
141,35.99676521041666,38.56755162916666,41.0,93.0
142,37.65422321041666,38.58309029791666,68.0,83.0
143,39.72604571041666,40.39938802291666,55.0,83.0
144,39.311681210416666,40.406294097916664,63.0,88.0
145,40.554774710416666,41.853116810416665,55.0,64.0
146,40.14041021041666,41.94289578541666,60.0,92.0
147,40.969139210416664,41.958434454166664,63.0,79.0
148,40.969139210416664,42.02749520416666,67.0,81.0
149,39.311681210416666,42.120727216666666,48.0,91.0
150,42.62659721041666,43.20325447291666,61.0,80.0
151,42.62659721041666,43.486403547916666,65.0,86.0
152,43.45532621041666,44.05788125416666,61.0,85.0
153,44.28405521041666,44.51368220416666,61.0,79.0
154,44.28405521041666,44.61382029166666,65.0,88.0
155,45.11278421041666,45.425284104166664,61.0,80.0
156,43.04096171041666,45.475353147916664,56.0,73.0
157,42.62659721041666,45.47880618541666,49.0,93.0
158,45.11278421041666,45.48225922291666,68.0,82.0
159,45.94151321041666,46.51471743541666,60.0,87.0
160,46.355877710416664,46.796139991666664,55.0,71.0
161,45.94151321041666,46.82894384791666,63.0,86.0
162,45.94151321041666,46.913543266666665,48.0,92.0
163,46.77024221041666,47.18978626666666,60.0,91.0
164,47.598971210416664,48.546830004166665,65.0,88.0
165,48.01333571041666,48.64006201666666,48.0,70.0
166,47.598971210416664,48.652147647916664,41.0,86.0
167,48.42770021041666,48.75746529166666,60.0,87.0
168,49.25642921041666,49.76352089791666,58.0,79.0
169,49.25642921041666,50.14110701041666,61.0,83.0
170,49.67041747291666,50.32558972291666,53.0,77.0
171,50.29110697291666,50.32558972291666,53.0,69.0
172,50.08421047291666,50.62731378541666,58.0,87.0
173,50.91179647291666,52.01179619791666,61.0,75.0
174,50.91179647291666,52.058347910416664,65.0,85.0
175,49.25642921041666,52.11179617291666,46.0,83.0
176,52.56696847291666,53.073864897916664,58.0,78.0
177,52.56696847291666,53.463519972916664,63.0,84.0
178,53.39455447291666,53.927312960416664,58.0,84.0
179,53.808347472916665,54.02731293541666,63.0,86.0
180,54.222140472916664,54.48593351041666,58.0,82.0
181,54.222140472916664,54.729036897916664,67.0,83.0
182,52.98076147291666,55.37214018541666,46.0,73.0
183,52.56696847291666,55.384209147916664,39.0,93.0
184,55.04972647291666,55.39972638541666,63.0,86.0
185,55.04972647291666,55.434209135416666,58.0,81.0
186,55.877312472916664,56.30656566041666,56.0,87.0
187,55.877312472916664,56.310009181249995,60.0,86.0
188,56.70429231666666,56.87646835833333,56.0,91.0
189,56.70429231666666,57.08135784791666,63.0,91.0
190,57.117514816666656,57.44809281666666,56.0,86.0
191,57.53073731666666,57.99561262916666,60.0,74.0
192,57.943959816666656,58.159179868749995,56.0,78.0
193,55.877312472916664,58.51730603541666,44.0,92.0
194,56.291069816666656,58.524193077083325,51.0,76.0
195,58.35718231666666,58.53624539999999,60.0,93.0
196,58.35718231666666,58.54141068124999,56.0,92.0
197,58.35718231666666,58.60511581666666,63.0,92.0
198,58.770404816666655,58.94258085833332,44.0,92.0
199,59.18362731666666,59.81895691041666,63.0,91.0
200,59.18362731666666,59.820678670833324,60.0,88.0
201,59.596849816666655,60.24250997291666,55.0,78.0
202,60.01007231666666,60.57136621249999,60.0,91.0
203,60.01007231666666,60.748707535416656,67.0,85.0
204,60.423294816666655,60.94670998333332,55.0,68.0
205,60.83651731666666,61.26179213958332,63.0,83.0
206,60.83651731666666,61.27040094166666,60.0,81.0
207,61.24973981666666,61.735276254166656,55.0,62.0
208,61.66296231666666,61.86957356666666,60.0,91.0
209,59.18362731666666,61.94705278541666,48.0,92.0
210,61.66296231666666,61.962548629166655,63.0,92.0
211,61.66296231666666,62.02625376458332,67.0,92.0
212,62.48940731666666,63.028318327083326,65.0,90.0
213,62.48940731666666,63.028318327083326,68.0,86.0
214,62.076184816666654,63.03864888958333,60.0,84.0
215,63.31585231666666,63.451871389583324,60.0,84.0
216,63.31585231666666,63.80138875416666,65.0,91.0
217,63.72907481666666,64.18534132708332,60.0,80.0
218,64.14229731666666,64.57618094166665,68.0,85.0
219,64.14229731666666,64.61405967083333,65.0,91.0
220,64.55551981666666,64.8275579625,60.0,75.0
221,62.90262981666666,65.01006456666666,48.0,73.0
222,62.48940731666666,65.03072569166666,41.0,91.0
223,64.96874231666666,65.36991249375,65.0,94.0
224,64.96874231666666,65.47493987916666,68.0,93.0
225,65.38196481666665,65.61095895208332,60.0,88.0
226,65.79518731666666,66.44601275416666,63.0,89.0
227,65.79518731666666,66.45289979583332,60.0,88.0
228,66.62163231666666,67.09855995208332,63.0,91.0
229,66.62163231666666,67.16743036874999,67.0,88.0
230,67.03485481666665,67.25179662916666,60.0,50.0
231,66.20840981666666,67.64263624374999,55.0,79.0
232,67.44807731666666,67.72872426458332,60.0,83.0
233,67.44807731666666,67.85441277499999,63.0,86.0
234,67.86129981666666,68.30551400416665,55.0,71.0
235,65.79518731666666,68.48802060833333,48.0,92.0
236,68.27452231666666,68.71701474374998,63.0,93.0
237,68.27452231666666,68.71873650416666,60.0,91.0
238,69.10096731666665,69.33684849374998,56.0,85.0
239,69.10096731666665,69.63299128541665,61.0,85.0
240,69.51418981666666,70.02727442083332,56.0,85.0
241,69.92741231666666,70.36129594166665,65.0,95.0
242,69.92741231666666,70.40778347291666,61.0,92.0
243,70.34063481666665,70.48009741041666,56.0,72.0
244,70.75385731666665,70.93464216041666,56.0,78.0
245,70.75385731666665,71.14986221249998,61.0,81.0
246,71.58030231666666,71.74042603541666,56.0,91.0
247,69.10096731666665,71.81446173333332,49.0,94.0
248,71.58030231666666,71.97458545208332,61.0,94.0
249,71.58030231666666,71.9969683375,65.0,96.0
250,72.40674731666665,73.01797226458332,63.0,88.0
251,72.40674731666665,73.01969402499999,60.0,86.0
252,72.81996981666666,73.24868816041666,55.0,83.0
253,72.40674731666665,73.32272385833332,48.0,94.0
254,73.23319231666666,73.4225859625,60.0,88.0
255,73.23319231666666,73.62058841041666,63.0,93.0
256,73.23319231666666,73.63264073333332,67.0,91.0
257,73.64641481666666,73.98732337916665,60.0,80.0
258,74.05963731666665,74.47630333749998,60.0,85.0
259,74.05963731666665,74.74489796249999,68.0,87.0
260,74.47285981666666,75.01693610833333,48.0,76.0
261,74.88608231666666,75.05825835833332,60.0,92.0
262,74.05963731666665,75.08408476458332,41.0,93.0
263,74.88608231666666,75.25798256666666,65.0,94.0
264,75.29930481666665,75.53346423333332,60.0,92.0
265,75.71252731666665,76.29448233749999,61.0,91.0
266,75.71252731666665,76.60095569166666,58.0,86.0
267,76.53897231666666,76.90570728541665,65.0,92.0
268,76.53897231666666,76.91775960833333,61.0,92.0
269,76.12574981666666,76.93842073333332,53.0,75.0
270,75.71252731666665,76.97629946249998,46.0,92.0
271,76.95219481666666,77.25178112916666,58.0,83.0
272,77.36541731666665,77.81996206666665,58.0,90.0
273,77.36541731666665,77.95425937916666,63.0,91.0
274,77.77863981666665,78.31066378541665,46.0,74.0
275,77.36541731666665,78.34509899374999,39.0,95.0
276,78.19186231666666,78.37781244166666,58.0,87.0
277,78.19186231666666,78.59475425416666,67.0,87.0
278,78.19186231666666,78.63091122291665,63.0,91.0
279,78.60508481666665,78.71355572291665,58.0,86.0
280,79.01830731666665,79.49523495208332,60.0,86.0
281,79.01830731666665,79.55721832708332,56.0,86.0
282,79.43152981666665,80.03414596249999,51.0,75.0
283,79.84475231666666,80.07891173333331,60.0,91.0
284,79.84475231666666,80.11334694166666,56.0,91.0
285,79.84475231666666,80.11679046249999,63.0,91.0
286,80.4649664,80.58565602499999,56.0,83.0
287,80.2580699,80.847724925,51.0,70.0
288,80.6718629,81.07531107499999,56.0,91.0
289,80.6718629,81.09427658749999,60.0,93.0
290,80.6718629,81.11151796249999,63.0,92.0
291,81.29255239999999,81.40289719999998,56.0,78.0
292,81.08565589999999,81.5873799125,51.0,76.0
293,81.49944889999999,81.67186265,56.0,86.0
294,79.01830731666665,82.2718625,44.0,91.0
295,81.91324189999999,82.28565559999998,51.0,91.0
296,81.49944889999999,82.34944868749999,60.0,94.0
297,81.49944889999999,82.3839314375,63.0,94.0
298,81.49944889999999,82.3977245375,68.0,91.0
299,82.74082789999999,83.39082773749999,51.0,85.0
300,83.1546209,83.65806905,60.0,94.0
301,83.1546209,83.69600007499999,63.0,93.0
302,83.5684139,83.806344875,51.0,78.0
303,82.32703489999999,83.81496556249999,44.0,91.0
304,83.7753104,83.88565519999999,56.0,80.0
305,83.9822069,84.2391033875,56.0,91.0
306,83.9822069,84.2391033875,60.0,92.0
307,83.9822069,84.247724075,63.0,92.0
308,83.9822069,84.27875854999999,44.0,93.0
309,84.39603799999999,84.55660424374999,51.0,80.0
310,84.39603799999999,84.55833076249999,44.0,76.0
311,84.39603799999999,84.55833076249999,68.0,61.0
312,84.39603799999999,84.58077550624999,63.0,71.0
313,84.39603799999999,84.58422854374999,60.0,72.0
314,84.39603799999999,84.60322024999999,56.0,76.0
315,84.8104025,85.11254328124998,56.0,96.0
316,85.22476699999999,85.53899341249999,56.0,91.0
317,84.8104025,85.54071993125,60.0,102.0
318,84.8104025,85.56143815624999,63.0,98.0
319,84.8104025,85.58388289999999,68.0,92.0
320,84.8104025,85.61323371875,51.0,100.0
321,84.8104025,85.62013979374998,44.0,95.0
322,85.63913149999999,86.27621691875,63.0,91.0
323,85.63913149999999,86.281396475,60.0,90.0
324,85.63913149999999,86.28312299374998,56.0,91.0
325,86.46786049999999,86.83215595624999,60.0,98.0
326,86.46786049999999,86.833882475,56.0,94.0
327,86.46786049999999,86.84251506874999,63.0,96.0
328,86.053496,87.17745970624999,51.0,84.0
329,85.63913149999999,87.21026356249999,44.0,92.0
330,87.2965895,87.70922748125,56.0,87.0
331,87.2965895,87.73685178125,60.0,92.0
332,87.2965895,87.76792911874999,63.0,91.0
333,87.91813624999999,88.02690693125,56.0,91.0
334,87.71095399999999,88.2599869625,51.0,81.0
335,87.2965895,88.27034607499999,44.0,91.0
336,88.12531849999999,88.31350904374999,56.0,95.0
337,88.12531849999999,88.33250075,60.0,100.0
338,88.12531849999999,88.37911675624999,63.0,95.0
339,88.95404749999999,89.39603629999999,67.0,91.0
340,88.95404749999999,89.42366059999999,60.0,91.0
341,88.95404749999999,89.42538711875,63.0,92.0
342,89.36841199999999,89.96060793125,55.0,80.0
343,89.7827765,89.9934117875,60.0,96.0
344,89.7827765,90.02966868124999,63.0,97.0
345,89.7827765,90.04520735,67.0,96.0
346,88.95404749999999,90.39223761874999,48.0,92.0
347,90.19714099999999,90.47165748124999,55.0,73.0
348,90.40432324999999,90.54244474999999,60.0,89.0
349,90.61150549999999,90.97234791874999,67.0,87.0
350,90.61150549999999,90.991339625,63.0,91.0
351,90.61150549999999,91.018963925,60.0,92.0
352,91.02587,91.56281733124999,55.0,80.0
353,90.61150549999999,91.64569023124999,48.0,92.0
354,91.44023449999999,91.71475098124999,60.0,93.0
355,91.44023449999999,91.82524818124999,67.0,97.0
356,91.44023449999999,91.86323159374999,63.0,96.0
357,91.854599,92.06868732499998,48.0,93.0
358,91.854599,92.17227845,60.0,85.0
359,92.26896349999998,92.634985475,60.0,86.0
360,92.26896349999998,92.7144053375,65.0,92.0
361,93.0976925,93.36184986874999,60.0,94.0
362,93.0976925,93.38256809375,65.0,98.0
363,93.0976925,93.40155979999999,68.0,92.0
364,92.68332799999999,93.449902325,48.0,73.0
365,92.26896349999998,93.79175303749999,41.0,93.0
366,93.71923924999999,93.87462593749999,60.0,91.0
367,93.92642149999999,94.3684103,60.0,91.0
368,93.92642149999999,94.38394896874999,68.0,91.0
369,93.92642149999999,94.39948763749999,65.0,95.0
370,94.75476031666666,94.91316227499999,60.0,94.0
371,94.340786,94.9338234,48.0,81.0
372,93.92642149999999,94.93554516041667,41.0,94.0
373,94.75476031666666,95.04229430625,65.0,102.0
374,94.75476031666666,95.38148110833333,68.0,96.0
375,95.16798281666667,95.44862976458333,60.0,97.0
376,95.58120531666665,95.98409725416666,67.0,92.0
377,95.58120531666665,96.01853246249999,60.0,92.0
378,95.58120531666665,96.02369774374999,63.0,91.0
379,95.99442781666666,96.59187868125,55.0,74.0
380,96.40765031666666,96.80193345208333,60.0,93.0
381,96.40765031666666,96.83981218125,63.0,97.0
382,95.58120531666665,96.96377893124999,48.0,92.0
383,96.40765031666666,97.00510118125,67.0,94.0
384,96.82087281666666,97.12390264999999,55.0,78.0
385,97.02748406666666,97.70241415,60.0,93.0
386,97.23409531666665,97.91419068124999,63.0,92.0
387,97.23409531666665,97.93657356666665,67.0,92.0
388,97.85392906666667,97.96412173333333,60.0,86.0
389,97.64731781666666,98.12941073333333,55.0,82.0
390,98.06054031666666,98.29469973333333,60.0,96.0
391,98.26715156666666,98.40317063958332,55.0,85.0
392,97.23409531666665,98.44793641041666,48.0,93.0
393,98.06054031666666,98.48925866041665,63.0,94.0
394,98.47376281666666,98.70792223333332,60.0,94.0
395,98.88698531666665,99.42933984791667,65.0,94.0
396,98.88698531666665,99.45688801458333,60.0,92.0
397,99.71343031666666,99.93725917083333,60.0,97.0
398,99.71343031666666,100.03539951458333,68.0,92.0
399,99.71343031666666,100.04400831666666,65.0,100.0
400,99.30020781666666,100.45378729583332,48.0,79.0
401,100.33326406666666,100.46756137916665,60.0,84.0
402,98.88698531666665,100.47961370208333,41.0,95.0
403,100.53987531666667,101.10977801458333,65.0,97.0
404,100.53987531666667,101.13043913958333,60.0,93.0
405,101.36632031666666,101.57465332708333,60.0,96.0
406,100.95309781666666,101.57809684791665,48.0,76.0
407,100.53987531666667,101.648689025,41.0,92.0
408,101.36632031666666,101.67107191041666,65.0,98.0
409,101.36632031666666,101.87079611875,68.0,94.0
410,101.77954281666666,102.07396384791666,60.0,96.0
411,102.19276531666665,102.71790224374999,67.0,92.0
412,102.19276531666665,102.73684160833332,63.0,91.0
413,102.19276531666665,102.75922449375,60.0,91.0
414,102.60598781666666,103.16383819166666,55.0,79.0
415,103.01921031666666,103.21204748333332,60.0,94.0
416,102.19276531666665,103.27575261874999,48.0,91.0
417,103.01921031666666,103.45309394166665,67.0,93.0
418,103.01921031666666,103.47031154583333,63.0,96.0
419,103.43243281666666,103.95068270208333,60.0,92.0
420,103.84565531666667,104.24854725416665,68.0,88.0
421,103.84565531666667,104.28126070208333,65.0,92.0
422,104.46548906666666,104.56707293125,60.0,87.0
423,104.25887781666665,104.80984115,48.0,75.0
424,104.67210031666666,104.95963430625,60.0,97.0
425,104.67210031666666,104.95963430625,68.0,93.0
426,104.67210031666666,104.96135606666665,65.0,100.0
427,103.84565531666667,105.10598394166666,41.0,93.0
428,105.08532281666666,105.18001963958332,48.0,90.0
429,105.49854531666665,106.05295217083332,58.0,89.0
430,105.49854531666665,106.05467393125,61.0,90.0
431,105.91176781666665,106.45412234791665,53.0,80.0
432,105.49854531666665,106.50405339999999,46.0,93.0
433,106.32499031666666,106.67106416041666,58.0,92.0
434,106.32499031666666,106.68483824375,61.0,97.0
435,106.32499031666666,106.69172528541665,65.0,97.0
436,106.73821281666666,106.87939717083333,46.0,91.0
437,107.15143531666666,107.26334974374998,39.0,97.0
438,107.15143531666666,107.60598006666666,58.0,92.0
439,107.15143531666666,107.80398251458332,63.0,93.0
440,107.77126906666666,107.90212285833333,58.0,92.0
441,107.97788031666666,108.21376149374998,58.0,97.0
442,107.97788031666666,108.33945000416665,63.0,97.0
443,107.97788031666666,108.36355465,67.0,94.0
444,107.56465781666665,108.41520746249999,51.0,91.0
445,108.39110281666666,108.51162604583332,58.0,96.0
446,108.80432531666666,109.40177618124999,60.0,86.0
447,108.80432531666666,109.75990234791666,56.0,84.0
448,109.21754781666665,109.89764318124999,51.0,75.0
449,109.63077031666666,110.16623780625,60.0,86.0
450,109.63077031666666,110.22477766041666,63.0,86.0
451,110.25060406666665,110.49853756666666,56.0,61.0
452,110.45721531666666,110.85838549374999,68.0,85.0
453,110.45721531666666,110.94791703541665,60.0,90.0
454,110.45721531666666,110.98063048333333,63.0,82.0
455,110.87043781666665,111.12525835833333,56.0,76.0
456,110.04399281666666,111.41967938958332,51.0,76.0
457,108.80432531666666,111.47133220208332,44.0,91.0
458,111.28366031666665,111.81568428541667,56.0,86.0
459,111.28366031666665,111.83462365,60.0,87.0
460,111.28366031666665,111.90865934791665,63.0,88.0
461,112.11010531666666,112.73510434791666,65.0,92.0
462,112.11010531666666,113.02780361874999,61.0,84.0
463,112.93655031666665,113.14660508749999,68.0,80.0
464,112.93655031666665,113.16382269166665,65.0,85.0
465,113.76299531666666,113.97821536874999,61.0,87.0
466,113.76299531666666,114.46719532708332,68.0,83.0
467,114.58944031666665,114.87008726458332,65.0,83.0
468,114.17621781666665,114.87180902499999,61.0,82.0
469,112.11010531666666,114.94584472291666,49.0,92.0
470,112.52332781666667,114.96306232708332,56.0,71.0
471,115.41588531666666,115.87215182708331,60.0,83.0
472,115.41588531666666,115.95479632708333,63.0,86.0
473,116.24233031666665,116.73647555624999,67.0,95.0
474,116.86216406666665,117.36836162916666,67.0,79.0
475,116.44894156666666,117.43034500416665,60.0,89.0
476,116.65555281666666,117.46822373333332,63.0,89.0
477,117.06877531666666,117.54914647291666,72.0,90.0
478,115.82910781666666,118.01918706666666,55.0,76.0
479,115.41588531666666,118.19136310833332,48.0,87.0
480,117.89522031666665,118.19136310833332,60.0,86.0
481,117.89522031666665,118.27575316041664,67.0,80.0
482,118.72292151666664,119.15109816666664,61.0,83.0
483,118.72292151666664,119.20979980416665,65.0,88.0
484,119.34446826666665,119.81580788541665,61.0,92.0
485,119.75883276666664,120.22499282916665,68.0,83.0
486,119.96601501666665,120.24053149791665,61.0,83.0
487,120.38037951666665,120.79474401666664,65.0,82.0
488,120.38037951666665,120.82064179791665,68.0,78.0
489,120.38037951666665,121.05372182916665,61.0,75.0
490,119.13728601666665,121.25917756041665,56.0,77.0
491,118.72292151666664,121.34550349791665,49.0,93.0
492,121.20910851666665,121.61311390416665,73.0,92.0
493,121.20910851666665,121.64591776041665,68.0,87.0
494,121.20910851666665,121.64937079791665,65.0,91.0
495,121.62347301666665,121.75296192291665,61.0,92.0
496,122.03783751666664,122.46946720416665,54.0,91.0
497,122.03783751666664,122.69909419791665,58.0,89.0
498,122.65938426666665,123.14971559166665,54.0,90.0
499,122.45220201666665,123.23258849166665,49.0,80.0
500,122.03783751666664,123.31028183541665,42.0,92.0
501,123.07374876666665,123.36725695416665,61.0,88.0
502,123.28093101666664,123.43113814791664,54.0,87.0
503,123.69529551666665,123.93010206666665,58.0,78.0
504,123.69529551666665,123.94218769791665,56.0,80.0
505,123.69529551666665,124.39280909166665,63.0,84.0
506,124.10966001666665,124.80717359166665,46.0,78.0
507,123.69529551666665,124.81580618541665,39.0,94.0
508,124.52402451666664,124.87968737916665,58.0,89.0
509,124.52402451666664,125.02816799166665,63.0,92.0
510,125.35275351666665,125.85344395416665,60.0,86.0
511,125.35275351666665,126.24709022916664,56.0,81.0
512,126.18148251666665,126.65454865416665,58.0,80.0
513,126.59584701666665,126.90834691041665,56.0,70.0
514,125.76711801666664,127.08790486041664,51.0,77.0
515,127.01021151666664,127.51780802916664,60.0,84.0
516,127.01021151666664,127.68528034791665,56.0,82.0
517,127.83894051666665,128.37243481041665,63.0,92.0
518,125.35275351666665,128.46048726666666,44.0,91.0
519,128.04612276666666,128.71083248541666,51.0,83.0
520,128.25330501666664,128.87485176666664,56.0,86.0
521,128.66766951666665,129.44805599166665,60.0,83.0
522,129.49639851666666,130.56338710416665,56.0,88.0
523,130.32512751666664,130.84653617916666,68.0,82.0
524,129.91076301666664,130.84826269791665,63.0,79.0
525,130.73949201666665,130.97429856666665,56.0,75.0
526,128.66766951666665,131.70288947916666,44.0,92.0
527,129.08203401666665,131.70979555416665,51.0,75.0
528,131.15385651666665,131.97740596041666,60.0,81.0
529,131.15385651666665,132.00848329791665,63.0,84.0
530,133.22332839999999,134.45955237916667,56.0,74.0
531,132.8101059,134.60418025416666,63.0,84.0
532,132.3968834,134.74536460833332,51.0,71.0
533,131.98258551666666,134.77807805625,44.0,92.0
534,133.6365509,135.22229224375,68.0,82.0
535,135.7026634,136.26912257708332,55.0,81.0
536,135.2894409,136.43957685833334,63.0,85.0
537,136.1158859,136.65651867083332,60.0,88.0
538,136.52910839999998,137.82387223333333,55.0,68.0
539,136.9423309,137.94956074375,60.0,84.0
540,136.9423309,137.9857177125,67.0,82.0
541,135.2894409,138.08902333749998,48.0,88.0
542,138.5952209,139.50947568125,65.0,88.0
543,139.4216659,139.93647226458333,60.0,92.0
544,139.83488839999998,140.062160775,65.0,85.0
545,140.2481109,141.08144294166667,60.0,81.0
546,139.0084434,141.08832998333332,48.0,74.0
547,138.5952209,141.15892216041667,41.0,93.0
548,140.2481109,141.17441800416665,68.0,83.0
549,142.3142661875,142.9866798125,55.0,83.0
550,141.90100089999999,142.9935763625,63.0,88.0
551,143.1418521875,144.4384035875,55.0,64.0
552,142.7280591875,144.5280587375,60.0,92.0
553,143.5556451875,144.543575975,63.0,79.0
554,143.5556451875,144.612541475,67.0,81.0
555,141.90100089999999,144.7056449,48.0,91.0
556,145.2108171875,145.7866791125,61.0,80.0
557,145.2108171875,146.0694376625,65.0,86.0
558,146.0384031875,146.640127175,61.0,85.0
559,146.8659891875,147.095299475,61.0,79.0
560,146.8659891875,147.19529945,65.0,88.0
561,147.6935751875,148.005644075,61.0,80.0
562,145.6246101875,148.0556440625,56.0,73.0
563,145.2108171875,148.0590923375,49.0,93.0
564,147.6935751875,148.0625406125,68.0,82.0
565,148.52116118749998,149.0935748375,60.0,87.0
566,148.9349541875,149.37460925,55.0,71.0
567,148.52116118749998,149.4073678625,63.0,86.0
568,148.52116118749998,149.4918506,48.0,92.0
569,149.3487471875,149.7677126,60.0,91.0
570,150.1763331875,151.122884675,65.0,88.0
571,150.5901261875,151.2159881,48.0,70.0
572,150.1763331875,151.2280570625,41.0,86.0
573,151.0039191875,151.33322945,60.0,87.0
574,151.8315051875,152.3384016125,58.0,79.0
575,151.8315051875,152.715987725,61.0,83.0
576,152.2452981875,152.9004704375,53.0,77.0
577,152.8659876875,152.9004704375,53.0,69.0
578,152.6590911875,153.2021945,58.0,87.0
579,153.4866771875,154.5866769125,61.0,75.0
580,153.4866771875,154.633228625,65.0,85.0
581,151.8315051875,154.6866768875,46.0,83.0
582,155.1418491875,155.6487456125,58.0,78.0
583,155.1418491875,156.0384006875,63.0,84.0
584,155.9694351875,156.502193675,58.0,84.0
585,156.3832281875,156.60219365,63.0,86.0
586,156.7970211875,157.060814225,58.0,82.0
587,156.7970211875,157.3039176125,67.0,83.0
588,155.55564218749998,157.94702089999998,46.0,73.0
589,155.1418491875,157.9590898625,39.0,93.0
590,157.6246071875,157.9746071,63.0,86.0
591,157.6246071875,158.00908985,58.0,81.0
592,158.4521931875,158.881503425,56.0,87.0
593,158.4521931875,158.8849517,60.0,86.0
594,159.2797791875,159.4521929375,56.0,91.0
595,159.2797791875,159.6573653,63.0,91.0
596,159.6935721875,160.0246065875,56.0,86.0
597,160.1073651875,160.57288231249998,60.0,74.0
598,160.5211581875,160.736675375,56.0,78.0
599,158.4521931875,161.095295975,44.0,92.0
600,158.8659861875,161.102192525,51.0,76.0
601,160.9349511875,161.1142614875,60.0,93.0
602,160.9349511875,161.1194339,56.0,92.0
603,160.9349511875,161.1832269875,63.0,92.0
604,161.3487441875,161.5211579375,44.0,92.0
605,161.7625371875,162.398743925,63.0,91.0
606,161.7625371875,162.4004680625,60.0,88.0
607,162.1763301875,162.82288175,55.0,78.0
608,162.5901231875,163.1521920125,60.0,91.0
609,162.5901231875,163.329778175,67.0,85.0
610,163.0039161875,163.5280539875,55.0,68.0
611,163.4177091875,163.84357115,63.0,83.0
612,163.4177091875,163.8521918375,60.0,81.0
613,163.8315021875,164.3177089625,55.0,62.0
614,164.2452951875,164.4521916875,60.0,91.0
615,161.7625371875,164.529777875,48.0,92.0
616,164.2452951875,164.5452951125,63.0,92.0
617,164.2452951875,164.6090882,67.0,92.0
618,165.0728811875,165.61253622499999,65.0,90.0
619,165.0728811875,165.61253622499999,68.0,86.0
620,164.6590881875,165.62288105,60.0,84.0
621,165.9004671875,166.03667405,60.0,84.0
622,165.9004671875,166.3866739625,65.0,91.0
623,166.3142601875,166.771156625,60.0,80.0
624,166.7280531875,167.1625358375,68.0,85.0
625,166.7280531875,167.2004668625,65.0,91.0
626,167.1418461875,167.4142599125,60.0,75.0
627,165.4866741875,167.5970184875,48.0,73.0
628,165.0728811875,167.6177081375,41.0,91.0
629,167.5556391875,167.957363225,65.0,94.0
630,167.5556391875,168.0625356125,68.0,93.0
631,167.9694321875,168.198742475,60.0,88.0
632,168.3832251875,169.0349491625,63.0,89.0
633,168.3832251875,169.0418457125,60.0,88.0
634,169.21081118749998,169.688397275,63.0,91.0
635,169.21081118749998,169.757362775,67.0,88.0
636,169.62460418749998,169.84184551250002,60.0,50.0
637,168.7970181875,170.233224725,55.0,79.0
638,170.0383971875,170.3194316,60.0,83.0
639,170.0383971875,170.44529363750001,63.0,86.0
640,170.4521901875,170.8970176625,55.0,71.0
641,168.3832251875,171.0797762375,48.0,92.0
642,170.8659831875,171.309086525,63.0,93.0
643,170.8659831875,171.3108106625,60.0,91.0
644,171.6935691875,171.929776025,56.0,85.0
645,171.6935691875,172.226327675,61.0,85.0
646,172.1073621875,172.6211551625,56.0,85.0
647,172.5211551875,172.9556378375,65.0,95.0
648,172.5211551875,173.00218955,61.0,92.0
649,172.9349481875,173.074603325,56.0,72.0
650,173.3487411875,173.529775625,56.0,78.0
651,173.3487411875,173.7452928125,61.0,81.0
652,174.1763271875,174.336671975,56.0,91.0
653,171.6935691875,174.4108098875,49.0,94.0
654,174.1763271875,174.571154675,61.0,94.0
655,174.1763271875,174.5935684625,65.0,96.0
656,175.0039131875,175.615982,63.0,88.0
657,175.0039131875,175.6177061375,60.0,86.0
658,175.41770618750002,175.847016425,55.0,83.0
659,175.0039131875,175.9211543375,48.0,94.0
660,175.83149918750001,176.02115431250002,60.0,88.0
661,175.83149918750001,176.219430125,63.0,93.0
662,175.83149918750001,176.2314990875,67.0,91.0
663,176.2452921875,176.5866714125,60.0,80.0
664,176.6590851875,177.0763264625,60.0,85.0
665,176.6590851875,177.3452919125,68.0,87.0
666,177.0728781875,177.6177056375,48.0,76.0
667,177.4866711875,177.65908493749998,60.0,92.0
668,176.6590851875,177.684947,41.0,93.0
669,177.4866711875,177.8590848875,65.0,94.0
670,177.9004641875,178.1349468875,60.0,92.0
671,178.3142571875,178.8970156625,61.0,91.0
672,178.3142571875,179.2039121375,58.0,86.0
673,179.1418431875,179.509084475,65.0,92.0
674,179.1418431875,179.5211534375,61.0,92.0
675,178.7280501875,179.5418430875,53.0,75.0
676,178.3142571875,179.5797741125,46.0,92.0
677,179.5556361875,179.8556361125,58.0,83.0
678,179.9694291875,180.4246014875,58.0,90.0
679,179.9694291875,180.5590842125,63.0,91.0
680,180.3832221875,180.91598067500001,46.0,74.0
681,179.9694291875,180.950463425,39.0,95.0
682,180.7970151875,180.9832220375,58.0,87.0
683,180.7970151875,181.2004633625,67.0,87.0
684,180.7970151875,181.23667025,63.0,91.0
685,181.2108081875,181.31942885,58.0,86.0
686,181.6246011875,182.102187275,60.0,86.0
687,181.6246011875,182.164256225,56.0,86.0
688,182.0383941875,182.6418423125,51.0,75.0
689,182.4521871875,182.6866698875,60.0,91.0
690,182.4521871875,182.72115263749998,56.0,91.0
691,182.4521871875,182.7246009125,63.0,91.0
692,183.0728766875,183.1935663125,56.0,83.0
693,182.86598018749999,183.4556352125,51.0,70.0
694,183.27977318749998,183.6832213625,56.0,91.0
695,183.27977318749998,183.702186875,60.0,93.0
696,183.27977318749998,183.71942825,63.0,92.0
697,183.9004626875,184.01080748750002,56.0,78.0
698,183.69356618749998,184.1952902,51.0,76.0
699,184.1073591875,184.2797729375,56.0,86.0
700,181.6246011875,184.8797727875,44.0,91.0
701,184.5211521875,184.89356588750002,51.0,91.0
702,184.1073591875,184.957358975,60.0,94.0
703,184.1073591875,184.991841725,63.0,94.0
704,184.1073591875,185.00563482500002,68.0,91.0
705,185.3487381875,185.998738025,51.0,85.0
706,185.7625311875,186.2659793375,60.0,94.0
707,185.7625311875,186.3039103625,63.0,93.0
708,186.1763241875,186.4142551625,51.0,78.0
709,184.9349451875,186.42287585,44.0,91.0
710,186.3832206875,186.4935654875,56.0,80.0
711,186.5901171875,186.847013675,56.0,91.0
712,186.5901171875,186.847013675,60.0,92.0
713,186.5901171875,186.85563436249998,63.0,92.0
714,186.5901171875,186.8866688375,44.0,93.0
715,187.0039101875,187.164254975,51.0,80.0
716,187.0039101875,187.1659791125,44.0,76.0
717,187.0039101875,187.1659791125,68.0,61.0
718,187.0039101875,187.1883929,63.0,71.0
719,187.0039101875,187.191841175,60.0,72.0
720,187.0039101875,187.2108066875,56.0,76.0
721,187.4177031875,187.71942725,56.0,96.0
722,187.8314961875,188.14528921250002,56.0,91.0
723,187.4177031875,188.14701335,60.0,102.0
724,187.4177031875,188.16770300000002,63.0,98.0
725,187.4177031875,188.19011678750002,68.0,92.0
726,187.4177031875,188.219427125,51.0,100.0
727,187.4177031875,188.226323675,44.0,95.0
728,188.2452891875,188.881495925,63.0,91.0
729,188.2452891875,188.8866683375,60.0,90.0
730,188.2452891875,188.888392475,56.0,91.0
731,189.07287518750002,189.43666819999999,60.0,98.0
732,189.07287518750002,189.4383923375,56.0,94.0
733,189.07287518750002,189.447013025,63.0,96.0
734,188.6590821875,189.7814957,51.0,84.0
735,188.2452891875,189.8142543125,44.0,92.0
736,189.9004611875,190.31253005,56.0,87.0
737,189.9004611875,190.34011625,60.0,92.0
738,189.9004611875,190.371150725,63.0,91.0
739,190.52115068749998,190.62977135,56.0,91.0
740,190.3142541875,190.8625299125,51.0,81.0
741,189.9004611875,190.8728747375,44.0,91.0
742,190.7280471875,190.915978175,56.0,95.0
743,190.7280471875,190.9349436875,60.0,100.0
744,190.7280471875,190.9814954,63.0,95.0
745,191.5556331875,191.9970123875,67.0,91.0
746,191.5556331875,192.0245985875,60.0,91.0
747,191.5556331875,192.026322725,63.0,92.0
748,191.9694261875,192.56080535,55.0,80.0
749,192.3832191875,192.5935639625,60.0,96.0
750,192.3832191875,192.62977085,63.0,97.0
751,192.3832191875,192.6452880875,67.0,96.0
752,191.5556331875,192.991839725,48.0,92.0
753,192.7970121875,193.07115005,55.0,73.0
754,193.0039086875,193.1418396875,60.0,89.0
755,193.2108051875,193.571149925,67.0,87.0
756,193.2108051875,193.5901154375,63.0,91.0
757,193.2108051875,193.6177016375,60.0,92.0
758,193.6245981875,194.16080495,55.0,80.0
759,193.2108051875,194.24356355,48.0,92.0
760,194.0383911875,194.31252905,60.0,93.0
761,194.0383911875,194.42287385,67.0,97.0
762,194.0383911875,194.460804875,63.0,96.0
763,194.4521841875,194.6659772375,48.0,93.0
764,194.4521841875,194.7694254875,60.0,85.0
765,194.8659771875,195.2314943375,60.0,86.0
766,194.8659771875,195.3108046625,65.0,92.0
767,195.6935631875,195.957356225,60.0,94.0
768,195.6935631875,195.978045875,65.0,98.0
769,195.6935631875,195.9970113875,68.0,92.0
770,195.2797701875,196.0452872375,48.0,73.0
771,194.8659771875,196.3866664625,41.0,93.0
772,196.31425268750002,196.4694250625,60.0,91.0
773,196.5211491875,196.96252838750002,60.0,91.0
774,196.5211491875,196.978045625,68.0,91.0
775,196.5211491875,196.9935628625,65.0,95.0
776,197.34873518749998,197.5073558375,60.0,94.0
777,196.93494218749998,197.5280454875,48.0,81.0
778,196.5211491875,197.529769625,41.0,94.0
779,197.34873518749998,197.63666615,65.0,102.0
780,197.34873518749998,197.9763212375,68.0,96.0
781,197.7625281875,198.0435626,60.0,97.0
782,198.1763211875,198.5797693625,67.0,92.0
783,198.1763211875,198.6142521125,60.0,92.0
784,198.1763211875,198.619424525,63.0,91.0
785,198.5901141875,199.1883899,55.0,74.0
786,199.0039071875,199.39873467500001,60.0,93.0
787,199.0039071875,199.4366657,63.0,97.0
788,198.1763211875,199.56080359999999,48.0,92.0
789,199.0039071875,199.6021829,67.0,94.0
790,199.4177001875,199.7211483875,55.0,78.0
791,199.6245966875,200.3004585875,60.0,93.0
792,199.8314931875,200.5125275,63.0,92.0
793,199.8314931875,200.5349412875,67.0,92.0
794,200.4521826875,200.5625274875,60.0,86.0
795,200.2452861875,200.72804468750002,55.0,82.0
796,200.6590791875,200.8935618875,60.0,96.0
797,200.8659756875,201.00218255,55.0,85.0
798,199.8314931875,201.04701012499999,48.0,93.0
799,200.6590791875,201.088389425,63.0,94.0
800,201.0728721875,201.3073548875,60.0,94.0
801,201.4866651875,202.0297685,65.0,94.0
802,201.4866651875,202.0573547,60.0,92.0
803,202.3142511875,202.53838906250002,60.0,97.0
804,202.3142511875,202.6366649,68.0,92.0
805,202.3142511875,202.64528558749998,65.0,100.0
806,201.9004581875,203.0556303125,48.0,79.0
807,202.9349406875,203.0694234125,60.0,84.0
808,201.4866651875,203.081492375,41.0,95.0
809,203.14183718750002,203.7125267,65.0,97.0
810,203.14183718750002,203.73321635,60.0,93.0
811,203.9694231875,204.178043825,60.0,96.0
812,203.55563018750001,204.1814921,48.0,76.0
813,203.14183718750002,204.2521817375,41.0,92.0
814,203.9694231875,204.274595525,65.0,98.0
815,203.9694231875,204.474595475,68.0,94.0
816,204.3832161875,204.6780437,60.0,96.0
817,204.7970091875,205.322871125,67.0,92.0
818,204.7970091875,205.3418366375,63.0,91.0
819,204.7970091875,205.364250425,60.0,91.0
820,205.2108021875,205.7694227375,55.0,79.0
821,205.6245951875,205.8176985875,60.0,94.0
822,204.7970091875,205.881491675,48.0,91.0
823,205.6245951875,206.0590778375,67.0,93.0
824,205.6245951875,206.0763192125,63.0,96.0
825,206.0383881875,206.557353575,60.0,92.0
826,206.4521811875,206.8556293625,68.0,88.0
827,206.4521811875,206.888387975,65.0,92.0
828,207.0728706875,207.17459480000002,60.0,87.0
829,206.8659741875,207.4176981875,48.0,75.0
830,207.2797671875,207.56769815,60.0,97.0
831,207.2797671875,207.56769815,68.0,93.0
832,207.2797671875,207.5694222875,65.0,100.0
833,206.4521811875,207.7142498375,41.0,93.0
834,207.6935601875,207.78838775,48.0,90.0
835,208.1073531875,208.6625254625,58.0,89.0
836,208.1073531875,208.6642496,61.0,90.0
837,208.5211461875,209.06424950000002,53.0,80.0
838,208.1073531875,209.1142494875,46.0,93.0
839,208.9349391875,209.281490825,58.0,92.0
840,208.9349391875,209.295283925,61.0,97.0
841,208.9349391875,209.302180475,65.0,97.0
842,209.3487321875,209.4901114625,46.0,91.0
843,209.7625251875,209.874594125,39.0,97.0
844,209.7625251875,210.2176974875,58.0,92.0
845,209.7625251875,210.41597330000002,63.0,93.0
846,210.38321468750001,210.5142491375,58.0,92.0
847,210.59011118749999,210.826318025,58.0,97.0
848,210.59011118749999,210.95218006250002,63.0,97.0
849,210.59011118749999,210.9763179875,67.0,94.0
850,210.1763181875,211.0280421125,51.0,91.0
851,211.00390418749998,211.1245938125,58.0,96.0
852,211.41769718749998,211.89183500000001,60.0,92.0
853,211.41769718749998,212.0556280625,56.0,91.0
854,211.83149018749998,212.43838658750002,51.0,80.0
855,212.2452831875,212.715972725,56.0,92.0
856,212.2452831875,212.74011065000002,60.0,94.0
857,212.2452831875,212.93321405,63.0,93.0
858,212.6590761875,213.31769671249998,51.0,80.0
859,213.0728691875,213.5883863,60.0,95.0
860,213.0728691875,213.709075925,63.0,92.0
861,212.8659726875,213.771144875,56.0,87.0
862,213.9004551875,213.95390344999998,56.0,82.0
863,213.4866621875,214.0901103125,51.0,76.0
864,213.9004551875,214.1245930625,60.0,96.0
865,213.9004551875,214.157351675,63.0,93.0
866,211.41769718749998,214.21079993749998,44.0,92.0
867,213.9004551875,214.2314895875,68.0,89.0
868,214.3142481875,214.5694205375,56.0,80.0
869,214.7280411875,214.9814894,39.0,93.0
870,215.1418341875,215.309075525,39.0,95.0
871,215.1418341875,215.34700655,55.0,76.0
872,215.1418341875,215.36079965,51.0,83.0
873,215.1418341875,215.3763168875,58.0,82.0
874,215.55562718750002,215.7176961125,39.0,98.0
875,215.55562718750002,215.729765075,55.0,88.0
876,215.55562718750002,215.74700645000001,51.0,92.0
877,215.55562718750002,215.750454725,63.0,91.0
878,215.55562718750002,215.76079955,58.0,92.0
879,215.96942018750002,216.18838565,39.0,95.0
880,215.96942018750002,216.2090753,63.0,91.0
881,215.96942018750002,216.2211442625,58.0,92.0
882,215.96942018750002,216.2280408125,55.0,91.0
883,215.96942018750002,216.2314890875,51.0,91.0
884,216.38321318750002,216.7866613625,51.0,94.0
885,216.38321318750002,216.853902725,55.0,95.0
886,216.38321318750002,217.047006125,63.0,92.0
887,216.38321318750002,217.05390267500002,58.0,94.0
888,217.0039026875,217.10907507500002,51.0,92.0
889,216.79700618750002,217.27804055000001,46.0,92.0
890,216.38321318750002,217.31941985,39.0,102.0
891,217.4176956875,217.47114395,39.0,81.0
892,217.21079918750002,217.4728680875,51.0,107.0
893,217.21079918750002,217.52286807500002,55.0,102.0
894,217.21079918750002,217.55217841249998,58.0,102.0
895,217.4176956875,217.55217841249998,58.0,72.0
896,217.21079918750002,217.571143925,63.0,93.0
897,217.6245921875,217.88493695,63.0,56.0
898,217.4176956875,217.9073507375,46.0,97.0
899,217.6245921875,217.978040375,51.0,107.0
900,217.83148868749998,217.99528175,55.0,87.0
901,218.0383851875,218.67459192500002,63.0,91.0
902,218.0383851875,218.6797643375,60.0,90.0
903,218.0383851875,218.681488475,56.0,91.0
904,218.8659711875,219.2297642,60.0,98.0
905,218.8659711875,219.2314883375,56.0,94.0
906,218.8659711875,219.24010902499998,63.0,96.0
907,218.4521781875,219.57459169999998,51.0,84.0
908,218.0383851875,219.6073503125,44.0,92.0
909,219.6935571875,220.10562605,56.0,87.0
910,219.6935571875,220.13321224999999,60.0,92.0
911,219.6935571875,220.164246725,63.0,91.0
912,220.3142466875,220.42286735,56.0,91.0
913,220.1073501875,220.6556259125,51.0,81.0
914,219.6935571875,220.6659707375,44.0,91.0
915,220.5211431875,220.709074175,56.0,95.0
916,220.5211431875,220.7280396875,60.0,100.0
917,220.5211431875,220.77459140000002,63.0,95.0
918,221.3487291875,221.7901083875,67.0,91.0
919,221.3487291875,221.8176945875,60.0,91.0
920,221.3487291875,221.819418725,63.0,92.0
921,221.7625221875,222.35390135,55.0,80.0
922,222.1763151875,222.3866599625,60.0,96.0
923,222.1763151875,222.42286685,63.0,97.0
924,222.1763151875,222.4383840875,67.0,96.0
925,221.3487291875,222.784935725,48.0,92.0
926,222.5901081875,222.86424605000002,55.0,73.0
927,222.79700468750002,222.9349356875,60.0,89.0
928,223.0039011875,223.364245925,67.0,87.0
929,223.0039011875,223.3832114375,63.0,91.0
930,223.0039011875,223.4107976375,60.0,92.0
931,223.4176941875,223.95390095,55.0,80.0
932,223.0039011875,224.03665955,48.0,92.0
933,223.8314871875,224.10562505000001,60.0,93.0
934,223.8314871875,224.21596985000002,67.0,97.0
935,223.8314871875,224.253900875,63.0,96.0
936,224.2452801875,224.4590732375,48.0,93.0
937,224.2452801875,224.56252148750002,60.0,85.0
938,224.65907318749998,225.0245903375,60.0,86.0
939,224.65907318749998,225.1039006625,65.0,92.0
940,225.48665918749998,225.750452225,60.0,94.0
941,225.48665918749998,225.771141875,65.0,98.0
942,225.48665918749998,225.7901073875,68.0,92.0
943,225.07286618749998,225.8383832375,48.0,73.0
944,224.65907318749998,226.1797624625,41.0,93.0
945,226.1073486875,226.2625210625,60.0,91.0
946,226.3142451875,226.7556243875,60.0,91.0
947,226.3142451875,226.77114162499998,68.0,91.0
948,226.3142451875,226.78665886250002,65.0,95.0
949,227.1418311875,227.30045183750002,60.0,94.0
950,226.7280381875,227.3211414875,48.0,81.0
951,226.3142451875,227.32286562500002,41.0,94.0
952,227.1418311875,227.42976215,65.0,102.0
953,227.1418311875,227.76941723750002,68.0,96.0
954,227.5556241875,227.83665860000002,60.0,97.0
955,227.9694171875,228.37286536250002,67.0,92.0
956,227.9694171875,228.40734811250002,60.0,92.0
957,227.9694171875,228.412520525,63.0,91.0
958,228.3832101875,228.9814859,55.0,74.0
959,228.7970031875,229.191830675,60.0,93.0
960,228.7970031875,229.22976169999998,63.0,97.0
961,227.9694171875,229.3538996,48.0,92.0
962,228.7970031875,229.3952789,67.0,94.0
963,229.21079618750002,229.5142443875,55.0,78.0
964,229.4176926875,230.09355458750002,60.0,93.0
965,229.62458918750002,230.3056235,63.0,92.0
966,229.62458918750002,230.32803728750002,67.0,92.0
967,230.2452786875,230.3556234875,60.0,86.0
968,230.03838218750002,230.5211406875,55.0,82.0
969,230.45217518750002,230.68665788750002,60.0,96.0
970,230.6590716875,230.79527855,55.0,85.0
971,229.62458918750002,230.840106125,48.0,93.0
972,230.45217518750002,230.881485425,63.0,94.0
973,230.86596818750002,231.10045088750002,60.0,94.0
974,231.27976118750001,231.8228645,65.0,94.0
975,231.27976118750001,231.8504507,60.0,92.0
976,232.1073471875,232.3314850625,60.0,97.0
977,232.1073471875,232.42976090000002,68.0,92.0
978,232.1073471875,232.4383815875,65.0,100.0
979,231.6935541875,232.8487263125,48.0,79.0
980,232.7280366875,232.8625194125,60.0,84.0
981,231.27976118750001,232.874588375,41.0,95.0
982,232.9349331875,233.5056227,65.0,97.0
983,232.9349331875,233.52631235,60.0,93.0
984,233.7625191875,233.97113982500002,60.0,96.0
985,233.3487261875,233.9745881,48.0,76.0
986,232.9349331875,234.0452777375,41.0,92.0
987,233.7625191875,234.067691525,65.0,98.0
988,233.7625191875,234.267691475,68.0,94.0
989,234.1763121875,234.4711397,60.0,96.0
990,234.5901051875,235.115967125,67.0,92.0
991,234.5901051875,235.13493263750001,63.0,91.0
992,234.5901051875,235.15734642500001,60.0,91.0
993,235.0038981875,235.5625187375,55.0,79.0
994,235.4176911875,235.6107945875,60.0,94.0
995,234.5901051875,235.674587675,48.0,91.0
996,235.4176911875,235.8521738375,67.0,93.0
997,235.4176911875,235.8694152125,63.0,96.0
998,235.8314841875,236.350449575,60.0,92.0
999,236.2452771875,236.6487253625,68.0,88.0
1000,236.2452771875,236.681483975,65.0,92.0
1001,236.86596668750002,236.9676908,60.0,87.0
1002,236.6590701875,237.2107941875,48.0,75.0
1003,237.0728631875,237.36079415,60.0,97.0
1004,237.0728631875,237.36079415,68.0,93.0
1005,237.0728631875,237.3625182875,65.0,100.0
1006,236.2452771875,237.5073458375,41.0,93.0
1007,237.4866561875,237.58148375000002,48.0,90.0
1008,237.9004491875,238.4556214625,58.0,89.0
1009,237.9004491875,238.4573456,61.0,90.0
1010,238.31424218749999,238.8573455,53.0,80.0
1011,237.9004491875,238.9073454875,46.0,93.0
1012,238.72803518749998,239.07458682499998,58.0,92.0
1013,238.72803518749998,239.088379925,61.0,97.0
1014,238.72803518749998,239.095276475,65.0,97.0
1015,239.1418281875,239.2832074625,46.0,91.0
1016,239.5556211875,239.667690125,39.0,97.0
1017,239.5556211875,240.0107934875,58.0,92.0
1018,239.5556211875,240.2090693,63.0,93.0
1019,240.1763106875,240.30734513750002,58.0,92.0
1020,240.3832071875,240.619414025,58.0,97.0
1021,240.3832071875,240.7452760625,63.0,97.0
1022,240.3832071875,240.7694139875,67.0,94.0
1023,239.9694141875,240.82113811250002,51.0,91.0
1024,240.7970001875,240.9176898125,58.0,96.0
1025,241.2107931875,241.684931,60.0,92.0
1026,241.2107931875,241.8487240625,56.0,91.0
1027,241.6245861875,242.2314825875,51.0,80.0
1028,242.0383791875,242.50906872500002,56.0,92.0
1029,242.0383791875,242.53320665,60.0,94.0
1030,242.0383791875,242.72631005,63.0,93.0
1031,242.4521721875,243.1107927125,51.0,80.0
1032,242.86596518750002,243.38148230000002,60.0,95.0
1033,242.86596518750002,243.502171925,63.0,92.0
1034,242.6590686875,243.564240875,56.0,87.0
1035,243.69355118750002,243.74699945,56.0,82.0
1036,243.27975818750002,243.88320631250002,51.0,76.0
1037,243.69355118750002,243.91768906250002,60.0,96.0
1038,243.69355118750002,243.95044767500002,63.0,93.0
1039,241.2107931875,244.0038959375,44.0,92.0
1040,243.69355118750002,244.02458558749998,68.0,89.0
1041,244.10734418750002,244.3625165375,56.0,80.0
1042,244.52113718750002,244.7745854,39.0,93.0
1043,244.93493018750002,245.10217152500002,39.0,95.0
1044,244.93493018750002,245.14010255,55.0,76.0
1045,244.93493018750002,245.15389565,51.0,83.0
1046,244.93493018750002,245.16941288750002,58.0,82.0
1047,245.3487231875,245.51079211249998,39.0,98.0
1048,245.3487231875,245.522861075,55.0,88.0
1049,245.3487231875,245.54010245,51.0,92.0
1050,245.3487231875,245.543550725,63.0,91.0
1051,245.3487231875,245.55389555,58.0,92.0
1052,245.7625161875,245.98148165,39.0,95.0
1053,245.7625161875,246.0021713,63.0,91.0
1054,245.7625161875,246.0142402625,58.0,92.0
1055,245.7625161875,246.0211368125,55.0,91.0
1056,245.7625161875,246.0245850875,51.0,91.0
1057,246.1763091875,246.5797573625,51.0,94.0
1058,246.1763091875,246.646998725,55.0,95.0
1059,246.1763091875,246.840102125,63.0,92.0
1060,246.1763091875,246.846998675,58.0,94.0
1061,246.7969986875,246.902171075,51.0,92.0
1062,246.5901021875,247.07113655,46.0,92.0
1063,246.1763091875,247.11251585000002,39.0,102.0
1064,247.2107916875,247.26423995,39.0,81.0
1065,247.0038951875,247.2659640875,51.0,107.0
1066,247.0038951875,247.315964075,55.0,102.0
1067,247.0038951875,247.3452744125,58.0,102.0
1068,247.2107916875,247.3452744125,58.0,72.0
1069,247.0038951875,247.364239925,63.0,93.0
1070,247.4176881875,247.67803295,63.0,56.0
1071,247.2107916875,247.7004467375,46.0,97.0
1072,247.4176881875,247.771136375,51.0,107.0
1073,247.6245846875,247.78837775,55.0,87.0
1074,247.8314811875,248.467687925,63.0,91.0
1075,247.8314811875,248.4728603375,60.0,90.0
1076,247.8314811875,248.474584475,56.0,91.0
1077,248.6590671875,249.02286020000003,60.0,98.0
1078,248.6590671875,249.02458433750002,56.0,94.0
1079,248.6590671875,249.033205025,63.0,96.0
1080,248.2452741875,249.3676877,51.0,84.0
1081,247.8314811875,249.4004463125,44.0,92.0
1082,249.4866531875,249.89872205,56.0,87.0
1083,249.4866531875,249.92630825,60.0,92.0
1084,249.4866531875,249.957342725,63.0,91.0
1085,250.10734268750002,250.21596335,56.0,91.0
1086,249.9004461875,250.4487219125,51.0,81.0
1087,249.4866531875,250.4590667375,44.0,91.0
1088,250.3142391875,250.502170175,56.0,95.0
1089,250.3142391875,250.52113568750002,60.0,100.0
1090,250.3142391875,250.5676874,63.0,95.0
1091,251.1418251875,251.58320438750002,67.0,91.0
1092,251.1418251875,251.6107905875,60.0,91.0
1093,251.1418251875,251.612514725,63.0,92.0
1094,251.5556181875,252.14699735,55.0,80.0
1095,251.9694111875,252.1797559625,60.0,96.0
1096,251.9694111875,252.21596285,63.0,97.0
1097,251.9694111875,252.23148008750002,67.0,96.0
1098,251.1418251875,252.57803172500002,48.0,92.0
1099,252.38320418749998,252.65734205,55.0,73.0
1100,252.5901006875,252.7280316875,60.0,89.0
1101,252.7969971875,253.157341925,67.0,87.0
1102,252.7969971875,253.1763074375,63.0,91.0
1103,252.7969971875,253.20389363750002,60.0,92.0
1104,253.2107901875,253.74699695,55.0,80.0
1105,252.7969971875,253.82975555000002,48.0,92.0
1106,253.6245831875,253.89872105,60.0,93.0
1107,253.6245831875,254.00906585,67.0,97.0
1108,253.6245831875,254.046996875,63.0,96.0
1109,254.0383761875,254.2521692375,48.0,93.0
1110,254.0383761875,254.3556174875,60.0,85.0
1111,254.4521691875,254.8176863375,60.0,86.0
1112,254.4521691875,254.8969966625,65.0,92.0
1113,255.2797551875,255.543548225,60.0,94.0
1114,255.2797551875,255.564237875,65.0,98.0
1115,255.2797551875,255.58320338750002,68.0,92.0
1116,254.8659621875,255.6314792375,48.0,73.0
1117,254.4521691875,255.9728584625,41.0,93.0
1118,255.9004446875,256.0556170625,60.0,91.0
1119,256.10734118749997,256.5487203875,60.0,91.0
1120,256.10734118749997,256.56423762500003,68.0,91.0
1121,256.10734118749997,256.5797548625,65.0,95.0
1122,256.9349271875,257.0935478375,60.0,94.0
1123,256.5211341875,257.1142374875,48.0,81.0
1124,256.10734118749997,257.115961625,41.0,94.0
1125,256.9349271875,257.22285815,65.0,102.0
1126,256.9349271875,257.5625132375,68.0,96.0
1127,257.3487201875,257.6297546,60.0,97.0
1128,257.7625131875,258.1659613625,67.0,92.0
1129,257.7625131875,258.2004441125,60.0,92.0
1130,257.7625131875,258.205616525,63.0,91.0
1131,258.1763061875,258.7745819,55.0,74.0
1132,258.5900991875,258.984926675,60.0,93.0
1133,258.5900991875,259.02285770000003,63.0,97.0
1134,257.7625131875,259.1469956,48.0,92.0
1135,258.5900991875,259.1883749,67.0,94.0
1136,259.0038921875,259.3073403875,55.0,78.0
1137,259.2107886875,259.8866505875,60.0,93.0
1138,259.4176851875,260.0987195,63.0,92.0
1139,259.4176851875,260.1211332875,67.0,92.0
1140,260.0383746875,260.1487194875,60.0,86.0
1141,259.8314781875,260.3142366875,55.0,82.0
1142,260.2452711875,260.4797538875,60.0,96.0
1143,260.45216768750004,260.58837455,55.0,85.0
1144,259.4176851875,260.633202125,48.0,93.0
1145,260.2452711875,260.674581425,63.0,94.0
1146,260.6590641875,260.8935468875,60.0,94.0
1147,261.0728571875,261.6159605,65.0,94.0
1148,261.0728571875,261.6435467,60.0,92.0
1149,261.9004431875,262.1245810625,60.0,97.0
1150,261.9004431875,262.2228569,68.0,92.0
1151,261.9004431875,262.2314775875,65.0,100.0
1152,261.4866501875,262.64182231250004,48.0,79.0
1153,262.52113268749997,262.65561541249997,60.0,93.0
1154,261.0728571875,262.667684375,41.0,95.0
1155,262.7280291875,263.2987187,65.0,88.0
1156,262.7280291875,263.31940835,60.0,88.0
1157,263.5556151875,263.764235825,60.0,74.0
1158,263.1418221875,263.7676841,48.0,82.0
1159,262.7280291875,263.8383737375,41.0,88.0
1160,263.5556151875,263.860787525,65.0,74.0
1161,263.5556151875,264.060787475,68.0,74.0
1162,263.9694081875,264.2642357,60.0,66.0
1163,264.3832011875,264.909063125,67.0,60.0
1164,264.3832011875,264.9280286375,63.0,60.0
1165,264.3832011875,264.950442425,60.0,60.0
1166,264.7969941875,265.3556147375,55.0,52.0
1167,265.2107871875,265.4038905875,60.0,44.0
1168,264.3832011875,265.467683675,48.0,60.0
1169,265.2107871875,265.6452698375,67.0,44.0
1170,265.2107871875,265.6625112125,63.0,44.0
1171,265.6245801875,266.143545575,60.0,35.0
1172,266.0383731875,266.44182136250004,68.0,30.0
1173,266.0383731875,266.474579975,65.0,30.0
1174,266.6590626875,266.7607868,60.0,19.0
1175,266.4521661875,267.0038901875,48.0,22.0
1176,266.86595918750004,267.15389015,60.0,13.0
1177,266.86595918750004,267.15389015,68.0,13.0
1178,266.86595918750004,267.1556142875,65.0,13.0
1179,266.0383731875,267.3004418375,41.0,30.0
1180,267.2797521875,267.37457975,48.0,8.0
1181,267.69354518750004,268.2487174625,58.0,1.0
1182,267.69354518750004,268.2504416,61.0,1.0
1183,268.1073381875,268.6504415,53.0,1.0
1184,267.69354518750004,268.70044148750003,46.0,1.0
