,start,end,pitch,velocity
0,17.1079374375,17.2443009375,73.0,52.0
1,17.3352099375,17.4829370625,73.0,56.0
2,17.5624824375,17.7139974375,73.0,57.0
3,17.7897549375,17.973466875,73.0,58.0
4,18.0170274375,18.1647545625,70.0,57.0
5,18.2442999375,18.420436125,73.0,52.0
6,18.4715724375,18.632557125,70.0,54.0
7,18.6988449375,18.8617235625,73.0,59.0
8,18.9261174375,19.0852081875,77.0,59.0
9,19.1533899375,19.4829350625,77.0,60.0
10,19.8352074375,20.2026313125,75.0,64.0
11,20.2897524375,20.4336916875,73.0,57.0
12,20.5170249375,20.64391875,75.0,60.0
13,20.7442974375,20.8541458125,75.0,59.0
14,20.9715699375,21.0927819375,75.0,59.0
15,21.1988424375,21.31058475,75.0,59.0
16,21.4261149375,21.549220875,75.0,58.0
17,21.6533874375,21.8049024375,77.0,59.0
18,21.8806599375,21.9905083125,75.0,63.0
19,22.1079324375,22.7442954375,68.0,54.0
20,24.380657437500002,24.511339125,73.0,54.0
21,24.6079299375,24.761338875,73.0,56.0
22,24.8352024375,24.950732625,73.0,56.0
23,25.0624749375,25.2139899375,73.0,55.0
24,25.2897474375,25.45452,70.0,58.0
25,25.5170199375,25.6685349375,73.0,58.0
26,25.7442924375,25.8882316875,70.0,54.0
27,25.9715649375,26.1495950625,73.0,58.0
28,26.1988374375,26.5397461875,80.0,45.0
29,26.6533824375,26.935579125,80.0,58.0
30,27.1079274375,27.306790875,77.0,58.0
31,27.3351999375,27.5018664375,75.0,58.0
32,27.5624724375,27.723457125,73.0,52.0
33,27.7897449375,27.91663875,75.0,58.0
34,28.0170174375,28.12875975,75.0,58.0
35,28.2442899375,28.40148675,75.0,58.0
36,28.4715624375,28.65906225,73.0,47.0
37,28.6988349375,28.878759,75.0,59.0
38,28.9261074375,29.2291374375,80.0,55.0
39,29.3806524375,30.6192875625,77.0,55.0
40,31.6533774375,31.784059125,75.0,57.0
41,31.8806499375,31.9904983125,75.0,59.0
42,32.1079224375,32.21966475,75.0,59.0
43,32.3351949375,32.6723158125,75.0,62.0
44,32.7897399375,32.8958004375,75.0,60.0
45,33.0170124375,33.117391125,75.0,60.0
46,33.2442849375,33.359815125,75.0,60.0
47,33.4715574375,33.6382239375,75.0,60.0
48,33.6988299375,33.8351934375,73.0,59.0
49,33.9261024375,34.2594354375,77.0,61.0
50,34.3806474375,34.5851926875,75.0,62.0
51,34.6079199375,34.8048894375,77.0,53.0
52,34.8351924375,35.0397376875,75.0,59.0
53,35.2897374375,35.4412524375,70.0,49.0
54,35.5170099375,35.6761006875,73.0,58.0
55,35.7442824375,35.890115625,70.0,54.0
56,35.9715549375,36.185569875,73.0,58.0
57,36.1988274375,36.3636,70.0,52.0
58,36.4260999375,36.617387625,73.0,52.0
59,36.6533724375,37.1079174375,77.0,56.0
60,37.1079174375,37.7897349375,73.0,54.0
61,38.9260974375,39.056779125,75.0,59.0
62,39.1533699375,39.2745819375,75.0,59.0
63,39.3806424375,39.496172625,75.0,61.0
64,39.6079149375,39.723445125,75.0,59.0
65,39.8351874375,40.1666265,75.0,59.0
66,40.2897324375,40.4071565625,75.0,60.0
67,40.5170049375,40.640110875,75.0,59.0
68,40.7442774375,41.0624589375,77.0,60.0
69,41.1988224375,41.5132160625,75.0,59.0
70,41.6533674375,41.8200339375,77.0,62.0
71,41.8806399375,42.0454125,75.0,58.0
72,42.1079124375,42.2442759375,73.0,55.0
73,42.3351849375,42.46207875,75.0,53.0
74,42.5624574375,42.67419975,75.0,60.0
75,42.7897299375,42.905260125,75.0,59.0
76,43.0170024375,43.1268508125,75.0,57.0
77,43.2442749375,43.4090475,75.0,60.0
78,43.4715474375,43.602229125,73.0,56.0
79,43.6988199375,43.8616985625,75.0,59.0
80,43.9260924375,44.276470875,80.0,59.0
81,44.3806374375,45.9715449375,75.0,60.0
82,46.1988174375,46.314347625,73.0,55.0
83,46.4260899375,46.556771625,73.0,54.0
84,46.6533624375,46.7859380625,73.0,55.0
85,46.8806349375,47.034043875,73.0,58.0
86,47.1079074375,47.231013375,80.0,54.0
87,47.3351799375,47.4563919375,80.0,58.0
88,47.5624524375,47.6836644375,80.0,57.0
89,47.7897249375,47.9260884375,80.0,59.0
90,48.0169974375,48.1230579375,75.0,54.0
91,48.2442699375,48.40146675,75.0,59.0
92,48.4715424375,48.6685119375,73.0,58.0
93,48.9260874375,49.1154811875,77.0,59.0
94,49.1533599375,49.321920375,75.0,53.0
95,49.3806324375,49.541617125,73.0,58.0
96,49.6079049375,49.738586625,75.0,60.0
97,49.8351774375,49.950707625,75.0,60.0
98,50.0624499375,50.181768,75.0,59.0
99,50.289722437500004,50.405252625,75.0,60.0
100,50.5169949375,50.67419175,75.0,62.0
101,50.7442674375,50.859797625,77.0,57.0
102,50.9715399375,51.1041155625,78.0,53.0
103,51.1988124375,51.6798725625,78.0,57.0
104,51.6533574375,53.1116893125,77.0,51.0
105,53.4715374375,53.571916125,73.0,58.0
106,53.6988099375,53.8029765,73.0,53.0
107,53.9260824375,54.034036875,73.0,56.0
108,54.1533549375,54.2745669375,73.0,53.0
109,54.3806274375,54.488581875,73.0,52.0
110,54.6078999375,54.738581625,73.0,52.0
111,54.8351724375,55.2897174375,77.0,53.0
112,55.2897174375,55.746156375,73.0,59.0
113,55.7442624375,56.0359288125,70.0,58.0
114,56.1988074375,56.36358,77.0,60.0
115,56.4260799375,56.5908525,73.0,53.0
116,56.6533524375,56.79539775,70.0,51.0
117,56.8806249375,56.9980490625,73.0,50.0
118,57.1078974375,57.2215336875,73.0,54.0
119,57.3351699375,57.4563819375,73.0,54.0
120,57.5624424375,57.6685029375,73.0,54.0
121,57.7897149375,57.969639,73.0,58.0
122,58.0169874375,58.1230479375,73.0,54.0
123,58.2442599375,58.424184,73.0,58.0
124,58.4715324375,58.91660775,80.0,60.0
125,58.9260774375,59.299183125,77.0,60.0
126,59.3806224375,60.1419853125,75.0,60.0
127,60.7442574375,60.859787625,73.0,55.0
128,60.9715299375,61.102211625,73.0,54.0
129,61.1988024375,61.3313780625,73.0,55.0
130,61.4260749375,61.579483875,73.0,58.0
131,61.6533474375,61.776453375,80.0,54.0
132,61.8806199375,62.0018319375,80.0,58.0
133,62.1078924375,62.2291044375,80.0,57.0
134,62.335164937500004,62.4715284375,80.0,59.0
135,62.5624374375,62.6684979375,75.0,54.0
136,62.7897099375,62.946906750000004,75.0,59.0
137,63.0169824375,63.2139519375,73.0,58.0
138,63.4715274375,63.6609211875,77.0,59.0
139,63.6987999375,63.867360375,75.0,53.0
140,63.9260724375,64.087057125,73.0,58.0
141,64.1533449375,64.284026625,75.0,60.0
142,64.3806174375,64.496147625,75.0,60.0
143,64.6078899375,64.727208,75.0,59.0
144,64.8351624375,64.950692625,75.0,60.0
145,65.0624349375,65.21963175,75.0,62.0
146,65.2897074375,65.405237625,77.0,57.0
147,65.5169799375,65.6495555625,78.0,53.0
148,65.7442524375,66.2253125625,78.0,57.0
149,66.1987974375,67.6571293125,77.0,51.0
150,68.0169774375,68.117356125,73.0,58.0
151,68.2442499375,68.3484165,73.0,53.0
152,68.4715224375,68.579476875,73.0,56.0
153,68.6987949375,68.8200069375,73.0,53.0
154,68.9260674375,69.034021875,82.0,52.0
155,69.1533399375,69.284021625,82.0,52.0
156,69.3806124375,69.8351574375,84.0,53.0
157,69.8351574375,70.0624299375,82.0,59.0
158,70.0624299375,70.2897024375,77.0,59.0
159,70.2897024375,70.5813688125,73.0,58.0
160,70.7442474375,70.90902,70.0,60.0
161,70.9715199375,71.1362925,73.0,53.0
162,71.1987924375,71.34083775,75.0,51.0
163,71.4260649375,71.5207618125,77.0,44.0
164,71.6533374375,71.768867625,73.0,59.0
165,71.8806099375,72.8200029375,73.0,58.0
166,73.0169724375,73.1722753125,80.0,51.0
167,73.2442449375,73.5359113125,80.0,59.0
168,73.6987899375,74.071895625,77.0,58.0
169,74.1533349375,74.6078799375,75.0,60.0
170,74.6078799375,75.1116673125,75.0,58.0
171,75.0624249375,76.8806049375,73.0,51.0
172,77.1078774375,77.2442409375,73.0,52.0
173,77.3351499375,77.4828770625,73.0,56.0
174,77.5624224375,77.7139374375,73.0,57.0
175,77.7896949375,77.973406875,73.0,58.0
176,78.0169674375,78.1646945625,70.0,57.0
177,78.2442399375,78.420376125,73.0,52.0
178,78.4715124375,78.632497125,70.0,54.0
179,78.6987849375,78.8616635625,73.0,59.0
180,78.9260574375,79.0851481875,77.0,59.0
181,79.1533299375,79.4828750625,77.0,60.0
182,79.8351474375,80.2025713125,75.0,64.0
183,80.2896924375,80.4336316875,73.0,57.0
184,80.5169649375,80.64385875,75.0,60.0
185,80.7442374375,80.8540858125,75.0,59.0
186,80.9715099375,81.0927219375,75.0,59.0
187,81.1987824375,81.31052475,75.0,59.0
188,81.4260549375,81.549160875,75.0,58.0
189,81.6533274375,81.8048424375,77.0,59.0
190,81.8805999375,81.9904483125,75.0,63.0
191,82.1078724375,82.7442354375,68.0,54.0
192,84.3805974375,84.511279125,73.0,54.0
193,84.6078699375,84.761278875,73.0,56.0
194,84.8351424375,84.950672625,73.0,56.0
195,85.0624149375,85.2139299375,73.0,55.0
196,85.2896874375,85.45446,70.0,58.0
197,85.5169599375,85.6684749375,73.0,58.0
198,85.7442324375,85.8881716875,70.0,54.0
199,85.9715049375,86.14953506250001,73.0,58.0
200,86.1987774375,86.5396861875,80.0,45.0
201,86.6533224375,86.935519125,80.0,58.0
202,87.1078674375,87.306730875,77.0,58.0
203,87.3351399375,87.5018064375,75.0,58.0
204,87.5624124375,87.723397125,73.0,52.0
205,87.7896849375,87.91657875,75.0,58.0
206,88.0169574375,88.12869975,75.0,58.0
207,88.2442299375,88.40142675,75.0,58.0
208,88.4715024375,88.65900225,73.0,47.0
209,88.6987749375,88.878699,75.0,59.0
210,88.9260474375,89.2290774375,80.0,55.0
211,89.3805924375,90.6192275625,77.0,55.0
212,91.65331743750001,91.783999125,75.0,57.0
213,91.8805899375,91.9904383125,75.0,59.0
214,92.1078624375,92.21960475,75.0,59.0
215,92.3351349375,92.6722558125,75.0,62.0
216,92.7896799375,92.8957404375,75.0,60.0
217,93.0169524375,93.117331125,75.0,60.0
218,93.2442249375,93.359755125,75.0,60.0
219,93.4714974375,93.6381639375,75.0,60.0
220,93.6987699375,93.8351334375,73.0,59.0
221,93.9260424375,94.2593754375,77.0,61.0
222,94.3805874375,94.5851326875,75.0,62.0
223,94.6078599375,94.8048294375,77.0,53.0
224,94.8351324375,95.0396776875,75.0,59.0
225,95.2896774375,95.4411924375,70.0,49.0
226,95.5169499375,95.6760406875,73.0,58.0
227,95.7442224375,95.890055625,70.0,54.0
228,95.9714949375,96.185509875,73.0,58.0
229,96.1987674375,96.36354,70.0,52.0
230,96.4260399375,96.617327625,73.0,52.0
231,96.6533124375,97.1078574375,77.0,56.0
232,97.1078574375,97.7896749375,73.0,54.0
233,98.9260374375,99.056719125,75.0,59.0
234,99.1533099375,99.2745219375,75.0,59.0
235,99.3805824375,99.496112625,75.0,61.0
236,99.6078549375,99.72338512500001,75.0,59.0
237,99.8351274375,100.1665665,75.0,59.0
238,100.2896724375,100.4070965625,75.0,60.0
239,100.5169449375,100.640050875,75.0,59.0
240,100.7442174375,101.0623989375,77.0,60.0
241,101.1987624375,101.5131560625,75.0,59.0
242,101.6533074375,101.8199739375,77.0,62.0
243,101.8805799375,102.0453525,75.0,58.0
244,102.1078524375,102.2442159375,73.0,55.0
245,102.3351249375,102.46201875,75.0,53.0
246,102.5623974375,102.67413975,75.0,60.0
247,102.7896699375,102.905200125,75.0,59.0
248,103.0169424375,103.1267908125,75.0,57.0
249,103.2442149375,103.4089875,75.0,60.0
250,103.4714874375,103.602169125,73.0,56.0
251,103.6987599375,103.8616385625,75.0,59.0
252,103.9260324375,104.276410875,80.0,59.0
253,104.3805774375,105.9714849375,75.0,60.0
254,106.1987574375,106.314287625,73.0,55.0
255,106.4260299375,106.556711625,73.0,54.0
256,106.6533024375,106.7858780625,73.0,55.0
257,106.8805749375,107.033983875,73.0,58.0
258,107.1078474375,107.230953375,80.0,54.0
259,107.3351199375,107.4563319375,80.0,58.0
260,107.5623924375,107.6836044375,80.0,57.0
261,107.7896649375,107.9260284375,80.0,59.0
262,108.0169374375,108.1229979375,75.0,54.0
263,108.2442099375,108.40140675,75.0,59.0
264,108.4714824375,108.6684519375,73.0,58.0
265,108.9260274375,109.1154211875,77.0,59.0
266,109.1532999375,109.321860375,75.0,53.0
267,109.3805724375,109.541557125,73.0,58.0
268,109.6078449375,109.738526625,75.0,60.0
269,109.8351174375,109.950647625,75.0,60.0
270,110.0623899375,110.181708,75.0,59.0
271,110.2896624375,110.405192625,75.0,60.0
272,110.5169349375,110.67413175,75.0,62.0
273,110.7442074375,110.859737625,77.0,57.0
274,110.9714799375,111.1040555625,78.0,53.0
275,111.1987524375,111.6798125625,78.0,57.0
276,111.6532974375,113.1116293125,77.0,51.0
277,113.4714774375,113.571856125,73.0,58.0
278,113.6987499375,113.8029165,73.0,53.0
279,113.9260224375,114.033976875,73.0,56.0
280,114.15329493750001,114.2745069375,73.0,53.0
281,114.3805674375,114.488521875,73.0,52.0
282,114.6078399375,114.738521625,73.0,52.0
283,114.8351124375,115.2896574375,77.0,53.0
284,115.2896574375,115.746096375,73.0,59.0
285,115.74420243750001,116.0358688125,70.0,58.0
286,116.1987474375,116.36352,77.0,60.0
287,116.4260199375,116.5907925,73.0,53.0
288,116.6532924375,116.79533775,70.0,51.0
289,116.8805649375,116.9979890625,73.0,50.0
290,117.1078374375,117.2214736875,73.0,54.0
291,117.3351099375,117.45632193750001,73.0,54.0
292,117.5623824375,117.6684429375,73.0,54.0
293,117.7896549375,117.969579,73.0,58.0
294,118.0169274375,118.1229879375,73.0,54.0
295,118.2441999375,118.424124,73.0,58.0
296,118.4714724375,118.91654775,80.0,60.0
297,118.9260174375,119.299123125,77.0,60.0
298,119.3805624375,120.1419253125,75.0,60.0
299,120.7441974375,120.859727625,73.0,55.0
300,120.9714699375,121.102151625,73.0,54.0
301,121.1987424375,121.3313180625,73.0,55.0
302,121.4260149375,121.579423875,73.0,58.0
303,121.6532874375,121.776393375,80.0,54.0
304,121.8805599375,122.0017719375,80.0,58.0
305,122.1078324375,122.2290444375,80.0,57.0
306,122.3351049375,122.4714684375,80.0,59.0
307,122.5623774375,122.6684379375,75.0,54.0
308,122.7896499375,122.94684675,75.0,59.0
309,123.0169224375,123.2138919375,73.0,58.0
310,123.4714674375,123.6608611875,77.0,59.0
311,123.6987399375,123.867300375,75.0,53.0
312,123.9260124375,124.086997125,73.0,58.0
313,124.1532849375,124.283966625,75.0,60.0
314,124.3805574375,124.496087625,75.0,60.0
315,124.6078299375,124.727148,75.0,59.0
316,124.8351024375,124.950632625,75.0,60.0
317,125.0623749375,125.21957175,75.0,62.0
318,125.2896474375,125.405177625,77.0,57.0
319,125.5169199375,125.64949556250001,78.0,53.0
320,125.7441924375,126.2252525625,78.0,57.0
321,126.1987374375,127.6570693125,77.0,51.0
322,128.0169174375,128.117296125,73.0,58.0
323,128.2441899375,128.3483565,73.0,53.0
324,128.4714624375,128.579416875,73.0,56.0
325,128.6987349375,128.8199469375,73.0,53.0
326,128.9260074375,129.033961875,82.0,52.0
327,129.1532799375,129.283961625,82.0,52.0
328,129.3805524375,129.8350974375,84.0,53.0
329,129.8350974375,130.0623699375,82.0,59.0
330,130.0623699375,130.2896424375,77.0,59.0
331,130.2896424375,130.5813088125,73.0,58.0
332,130.7441874375,130.90896,70.0,60.0
333,130.9714599375,131.1362325,73.0,53.0
334,131.1987324375,131.34077775,75.0,51.0
335,131.4260049375,131.5207018125,77.0,44.0
336,131.6532774375,131.768807625,73.0,59.0
337,131.8805499375,132.8199429375,73.0,58.0
338,133.0169124375,133.1722153125,80.0,51.0
339,133.2441849375,133.5358513125,80.0,59.0
340,133.6987299375,134.071835625,77.0,58.0
341,134.1532749375,134.6078199375,75.0,60.0
342,134.6078199375,135.1116073125,75.0,58.0
343,135.0623649375,136.8805449375,73.0,51.0
344,142.5623574375,142.662736125,73.0,58.0
345,142.7896299375,142.8937965,73.0,53.0
346,143.0169024375,143.124856875,73.0,56.0
347,143.2441749375,143.3653869375,73.0,53.0
348,143.4714474375,143.579401875,73.0,52.0
349,143.6987199375,143.829401625,73.0,52.0
350,143.9259924375,144.3805374375,77.0,53.0
351,144.3805374375,144.836976375,73.0,59.0
352,144.8350824375,145.1267488125,70.0,58.0
353,145.2896274375,145.4544,77.0,60.0
354,145.5168999375,145.6816725,73.0,53.0
355,145.7441724375,145.88621775000001,70.0,51.0
356,145.9714449375,146.0888690625,73.0,50.0
357,146.1987174375,146.3123536875,73.0,54.0
358,146.4259899375,146.5472019375,73.0,54.0
359,146.6532624375,146.7593229375,73.0,54.0
360,146.8805349375,147.060459,73.0,58.0
361,147.1078074375,147.2138679375,73.0,54.0
362,147.3350799375,147.515004,73.0,58.0
363,147.5623524375,148.00742775,80.0,60.0
364,148.0168974375,148.390003125,77.0,60.0
365,148.4714424375,149.2328053125,75.0,60.0
366,149.8350774375,149.950607625,73.0,55.0
367,150.0623499375,150.193031625,73.0,54.0
368,150.28962243750001,150.4221980625,73.0,55.0
369,150.5168949375,150.670303875,73.0,58.0
370,150.7441674375,150.867273375,80.0,54.0
371,150.9714399375,151.0926519375,80.0,58.0
372,151.1987124375,151.3199244375,80.0,57.0
373,151.4259849375,151.5623484375,80.0,59.0
374,151.6532574375,151.7593179375,75.0,54.0
375,151.8805299375,152.03772675,75.0,59.0
376,152.1078024375,152.3047719375,73.0,58.0
377,152.5623474375,152.7517411875,77.0,59.0
378,152.7896199375,152.958180375,75.0,53.0
379,153.0168924375,153.177877125,73.0,58.0
380,153.2441649375,153.374846625,75.0,60.0
381,153.4714374375,153.586967625,75.0,60.0
382,153.6987099375,153.818028,75.0,59.0
383,153.9259824375,154.041512625,75.0,60.0
384,154.1532549375,154.31045175,75.0,62.0
385,154.3805274375,154.496057625,77.0,57.0
386,154.6077999375,154.7403755625,78.0,53.0
387,154.8350724375,155.3161325625,78.0,57.0
388,155.2896174375,156.7479493125,77.0,51.0
389,157.1077974375,157.208176125,73.0,58.0
390,157.3350699375,157.4392365,73.0,53.0
391,157.5623424375,157.670296875,73.0,56.0
392,157.7896149375,157.9108269375,73.0,53.0
393,158.0168874375,158.124841875,82.0,52.0
394,158.2441599375,158.374841625,82.0,52.0
395,158.4714324375,158.9259774375,84.0,53.0
396,158.9259774375,159.1532499375,82.0,59.0
397,159.1532499375,159.3805224375,77.0,59.0
398,159.3805224375,159.6721888125,73.0,58.0
399,159.8350674375,159.99984,70.0,60.0
400,160.0623399375,160.2271125,73.0,53.0
401,160.2896124375,160.43165775,75.0,51.0
402,160.5168849375,160.6115818125,77.0,44.0
403,160.7441574375,160.859687625,73.0,59.0
404,160.9714299375,161.9108229375,73.0,58.0
405,162.1077924375,162.2630953125,80.0,51.0
406,162.3350649375,162.6267313125,80.0,59.0
407,162.7896099375,163.162715625,77.0,58.0
408,163.2441549375,163.6986999375,75.0,60.0
409,163.6986999375,164.2024873125,75.0,58.0
410,164.1532449375,165.9714249375,73.0,51.0
