,start,end,pitch,velocity
0,2.7897699375,3.454542,54.0,54.0
1,3.0170424375000002,3.6458296875,61.0,52.0
2,3.4715874375,3.8162840625,66.0,55.0
3,3.6988599375,3.969693,54.0,44.0
4,2.5624974375,4.0151475,49.0,46.0
5,2.3352249375,4.034086875,42.0,58.0
6,4.1534049375,5.0284040625,61.0,43.0
7,4.1534049375,5.0359798125,54.0,44.0
8,4.1534049375,5.2253735625,42.0,39.0
9,5.9715849375,6.1268878125,56.0,43.0
10,5.9715849375,6.3049179375,61.0,52.0
11,6.1988574375,6.515145,56.0,53.0
12,6.4261299375,6.56817525,61.0,50.0
13,6.6534024375,6.96211425,65.0,55.0
14,7.1079474375,7.4677955625,61.0,46.0
15,7.3352199375,7.5435530625,56.0,38.0
16,7.7897649375,8.2215826875,65.0,49.0
17,5.9715849375,8.848476,49.0,54.0
18,8.6988549375,8.85605175,56.0,49.0
19,8.6988549375,8.8844608125,61.0,52.0
20,9.6079449375,9.897717375,54.0,46.0
21,9.6079449375,10.0132475625,61.0,53.0
22,10.0624899375,10.3352169375,54.0,42.0
23,10.2897624375,10.9829435625,61.0,50.0
24,10.7443074375,11.030292,66.0,58.0
25,10.9715799375,11.2443069375,54.0,51.0
26,9.8352174375,11.284079625,49.0,47.0
27,9.6079449375,11.321958375,42.0,56.0
28,11.426124937500001,11.859836625,54.0,46.0
29,11.426124937500001,11.909079,61.0,45.0
30,11.8806699375,12.4374875625,42.0,21.0
31,12.3352149375,12.518926875,54.0,47.0
32,12.3352149375,12.587108625,58.0,49.0
33,13.2443049375,13.4090775,56.0,46.0
34,13.2443049375,13.5700621875,61.0,53.0
35,13.4715774375,13.727259,56.0,50.0
36,13.6988499375,13.8636225,63.0,52.0
37,13.9261224375,14.21968275,56.0,46.0
38,14.3806674375,14.56816725,65.0,52.0
39,14.6079399375,14.79543975,56.0,45.0
40,13.2443049375,14.82574275,49.0,54.0
41,15.0624849375,15.2594544375,56.0,33.0
42,15.0624849375,15.5700601875,68.0,31.0
43,15.5170299375,15.736726687500001,56.0,36.0
44,15.0624849375,16.1003626875,49.0,47.0
45,15.9715749375,16.121196,65.0,53.0
46,15.9715749375,16.124983875,56.0,44.0
47,15.9715749375,16.124983875,61.0,44.0
48,16.8806649375,17.359831125,61.0,52.0
49,17.3352099375,17.609830875,54.0,43.0
50,17.5624824375,17.696952,58.0,41.0
51,18.0170274375,18.17422425,61.0,52.0
52,18.2442999375,18.4374815625,54.0,38.0
53,18.6988449375,18.8579356875,61.0,49.0
54,17.1079374375,18.996193125,49.0,44.0
55,19.6079349375,19.9109649375,54.0,47.0
56,19.3806624375,19.950737625,49.0,42.0
57,16.8806649375,20.00755575,42.0,58.0
58,19.8352074375,20.0549041875,58.0,60.0
59,20.0624799375,20.181798,61.0,59.0
60,20.5170249375,20.6723278125,56.0,51.0
61,20.5170249375,20.806797375,61.0,52.0
62,20.7442974375,21.0435395625,56.0,47.0
63,20.9715699375,21.117403125,61.0,48.0
64,21.1988424375,21.3484635,63.0,45.0
65,21.6533874375,21.909069,61.0,51.0
66,21.8806599375,22.08331125,56.0,43.0
67,22.1079324375,22.8579316875,65.0,53.0
68,23.0170224375,23.2594464375,61.0,52.0
69,23.2442949375,23.4905068125,56.0,54.0
70,20.5170249375,23.556794625,49.0,57.0
71,23.4715674375,23.5927794375,61.0,53.0
72,24.1533849375,24.2594454375,54.0,45.0
73,24.1533849375,24.65906625,58.0,44.0
74,24.6079299375,24.905278125,54.0,48.0
75,24.8352024375,25.00755075,61.0,52.0
76,25.2897474375,25.4791411875,58.0,48.0
77,24.380657437500002,25.8314135625,49.0,55.0
78,24.1533849375,25.8579286875,42.0,57.0
79,25.5170199375,25.8730801875,54.0,43.0
80,25.7442924375,26.7367156875,66.0,55.0
81,26.4261099375,26.78027625,54.0,48.0
82,26.1988374375,27.079518375,49.0,46.0
83,25.9715649375,27.0852001875,42.0,49.0
84,26.6533824375,27.132548625,61.0,52.0
85,27.1079274375,27.397699875,58.0,49.0
86,27.3351999375,27.420427125,54.0,45.0
87,28.0170174375,28.2575475,56.0,50.0
88,28.2442899375,28.56815325,61.0,50.0
89,28.4715624375,28.660956187500002,56.0,47.0
90,28.6988349375,28.88633475,63.0,58.0
91,28.9261074375,29.268910125,56.0,47.0
92,29.3806524375,29.9223185625,65.0,59.0
93,29.8351974375,30.0927729375,56.0,48.0
94,30.0624699375,30.359818125,61.0,54.0
95,27.7897449375,30.7442874375,49.0,56.0
96,30.5170149375,30.7935298125,61.0,54.0
97,30.5170149375,30.799211625,56.0,52.0
98,31.6533774375,31.969665,59.0,52.0
99,31.8806499375,32.170422375,54.0,49.0
100,32.1079224375,32.38633125,63.0,57.0
101,32.3351949375,32.5927704375,59.0,54.0
102,32.5624674375,32.8654974375,54.0,46.0
103,32.7897399375,33.1798910625,59.0,46.0
104,33.0170124375,33.3333,54.0,44.0
105,33.9261024375,34.15905675,59.0,59.0
106,34.1533749375,34.454511,54.0,53.0
107,34.3806474375,34.515117000000004,59.0,63.0
108,31.4261049375,34.54542,47.0,61.0
109,35.0624649375,35.4109494375,58.0,51.0
110,35.5170099375,35.708297625,58.0,59.0
111,35.7442824375,36.23481225,61.0,59.0
112,36.1988274375,36.5662513125,66.0,52.0
113,36.8806449375,37.4942806875,58.0,42.0
114,36.8806449375,37.6609471875,61.0,49.0
115,35.2897374375,37.9980680625,49.0,49.0
116,35.0624649375,38.030265,42.0,58.0
117,37.7897349375,38.0454165,66.0,62.0
118,38.0170074375,38.2594314375,61.0,60.0
119,38.2442799375,38.38632525,58.0,50.0
120,38.6988249375,39.003748875,59.0,59.0
121,38.9260974375,39.200718375,54.0,53.0
122,39.1533699375,39.3579151875,63.0,43.0
123,39.3806424375,39.677990625,59.0,45.0
124,39.6079149375,39.8048844375,54.0,53.0
125,39.8351874375,40.1950355625,66.0,58.0
126,40.2897324375,40.4393535,54.0,49.0
127,40.5170049375,40.814353125,54.0,46.0
128,40.5170049375,41.094655875,63.0,51.0
129,38.6988249375,41.5965493125,47.0,59.0
130,41.1988224375,41.6382159375,59.0,63.0
131,41.6533674375,41.9147308125,54.0,58.0
132,41.8806399375,41.9298823125,59.0,45.0
133,42.3351849375,42.8313965625,63.0,53.0
134,42.7897299375,43.1003356875,56.0,58.0
135,43.0170024375,43.28025975,63.0,59.0
136,43.2442749375,43.52268375,68.0,59.0
137,43.4715474375,43.7556380625,63.0,54.0
138,42.3351849375,43.9904863125,44.0,59.0
139,42.5624574375,43.9904863125,51.0,47.0
140,43.6988199375,44.2442739375,56.0,60.0
141,43.9260924375,44.655258375,63.0,56.0
142,44.6079099375,44.74995525,56.0,58.0
143,44.3806374375,44.9545005,51.0,45.0
144,44.8351824375,45.34086375,56.0,53.0
145,44.1533649375,45.41662125,44.0,58.0
146,44.8351824375,45.44692425,60.0,58.0
147,44.8351824375,45.62874225,63.0,58.0
148,45.7442724375,45.8238178125,63.0,5.0
149,45.2897274375,45.844651125,51.0,56.0
150,45.5169999375,45.9109389375,56.0,60.0
151,45.7442724375,45.9298783125,60.0,53.0
152,45.9715449375,46.0757115,37.0,59.0
153,45.9715449375,46.147681125,56.0,57.0
154,45.9715449375,46.450711125,65.0,58.0
155,46.1988174375,46.49237775,56.0,58.0
156,46.4260899375,46.5851806875,61.0,44.0
157,46.6533624375,47.1363165,65.0,62.0
158,47.1079074375,47.3541193125,61.0,53.0
159,46.8806349375,47.6495735625,49.0,49.0
160,47.3351799375,47.670406875,56.0,58.0
161,47.5624524375,47.8162400625,61.0,55.0
162,47.7897249375,48.08328525,63.0,59.0
163,48.0169974375,48.2935123125,58.0,49.0
164,48.2442699375,48.3957849375,63.0,56.0
165,48.4715424375,48.8503299375,66.0,59.0
166,47.7897249375,49.1060115,51.0,60.0
167,48.9260874375,49.1722993125,63.0,60.0
168,49.1533599375,49.2594204375,58.0,54.0
169,49.6079049375,49.8332835,56.0,55.0
170,49.6079049375,50.0624499375,60.0,54.0
171,50.0624499375,50.2253285625,56.0,53.0
172,50.289722437500004,50.624949375,63.0,60.0
173,50.7442674375,50.9563884375,60.0,60.0
174,49.8351774375,51.0321459375,51.0,38.0
175,50.9715399375,51.1079034375,56.0,58.0
176,49.6079049375,51.253736625,44.0,58.0
177,51.4260849375,51.5321454375,56.0,57.0
178,51.4260849375,51.6874483125,61.0,58.0
179,51.6533574375,51.988584375,56.0,58.0
180,51.8806299375,52.011311625,61.0,54.0
181,52.1079024375,52.261311375,56.0,58.0
182,51.4260849375,52.26509925,49.0,60.0
183,52.1079024375,52.2935083125,61.0,59.0
184,52.1079024375,52.382523375,65.0,62.0
185,52.5624474375,52.996159125,63.0,58.0
186,52.5624474375,53.056765125,60.0,56.0
187,52.5624474375,53.090856,48.0,60.0
188,53.2442649375,53.4715374375,58.0,58.0
189,53.2442649375,53.7120675,61.0,58.0
190,53.6988099375,53.799188625,58.0,51.0
191,53.4715374375,54.026461125,53.0,47.0
192,53.9260824375,54.1798700625,58.0,57.0
193,53.9260824375,54.2272185,65.0,60.0
194,54.1533549375,54.450703125,53.0,53.0
195,54.3806274375,54.50752125,58.0,58.0
196,53.2442649375,54.515097,46.0,58.0
197,54.3806274375,54.6571423125,61.0,58.0
198,54.6078999375,54.90146025,58.0,51.0
199,54.8351724375,55.0283540625,61.0,52.0
200,55.0624449375,55.3351719375,63.0,54.0
201,55.5169899375,55.636308,58.0,59.0
202,55.7442624375,55.93176225,58.0,57.0
203,55.7442624375,55.9847925,67.0,55.0
204,55.2897174375,56.1306256875,46.0,43.0
205,55.0624449375,56.1533529375,39.0,62.0
206,56.1988074375,56.3465345625,58.0,55.0
207,56.1988074375,56.367367875,63.0,58.0
208,56.8806249375,57.3692608125,66.0,57.0
209,57.3351699375,57.6116848125,58.0,58.0
210,57.5624424375,57.74994225,63.0,58.0
211,57.1078974375,58.1116843125,46.0,43.0
212,58.0169874375,58.117366125,58.0,59.0
213,56.8806249375,58.151457,39.0,61.0
214,58.0169874375,58.28024475,66.0,59.0
215,58.2442599375,58.443123375,63.0,59.0
216,58.4715324375,58.58327475,58.0,50.0
217,58.6988049375,59.09842575,63.0,58.0
218,59.1533499375,59.261304375,56.0,57.0
219,58.9260774375,59.47721325,51.0,51.0
220,59.3806224375,59.6116828125,63.0,59.0
221,59.3806224375,59.6419858125,56.0,57.0
222,59.6078949375,59.943121875,51.0,55.0
223,59.8351674375,60.08327325,56.0,61.0
224,58.6988049375,60.1154701875,44.0,57.0
225,59.8351674375,60.193121625,60.0,60.0
226,60.0624399375,60.390091125,51.0,58.0
227,60.2897124375,60.41660625,56.0,61.0
228,60.5169849375,60.6211515,37.0,59.0
229,60.5169849375,60.693121125,56.0,57.0
230,60.5169849375,60.996151125,65.0,58.0
231,60.7442574375,61.03781775,56.0,58.0
232,60.9715299375,61.1306206875,61.0,44.0
233,61.1988024375,61.6817565,65.0,62.0
234,61.6533474375,61.8995593125,61.0,53.0
235,61.4260749375,62.1950135625,49.0,49.0
236,61.8806199375,62.215846875,56.0,58.0
237,62.1078924375,62.3616800625,61.0,55.0
238,62.335164937500004,62.62872525,63.0,59.0
239,62.5624374375,62.8389523125,58.0,49.0
240,62.7897099375,62.9412249375,63.0,56.0
241,63.0169824375,63.3957699375,66.0,59.0
242,62.335164937500004,63.6514515,51.0,60.0
243,63.4715274375,63.7177393125,63.0,60.0
244,63.6987999375,63.8048604375,58.0,54.0
245,64.1533449375,64.3787235,56.0,55.0
246,64.1533449375,64.6078899375,60.0,54.0
247,64.6078899375,64.7707685625,56.0,53.0
248,64.8351624375,65.170389375,63.0,60.0
249,65.2897074375,65.5018284375,60.0,60.0
250,64.3806174375,65.5775859375,51.0,38.0
251,65.5169799375,65.6533434375,56.0,58.0
252,64.1533449375,65.799176625,44.0,58.0
253,65.9715249375,66.0775854375,56.0,57.0
254,65.9715249375,66.2328883125,61.0,58.0
255,66.1987974375,66.534024375,56.0,58.0
256,66.4260699375,66.556751625,61.0,54.0
257,66.6533424375,66.806751375,56.0,58.0
258,65.9715249375,66.81053925,49.0,60.0
259,66.6533424375,66.8389483125,61.0,59.0
260,66.6533424375,66.927963375,65.0,62.0
261,67.1078874375,67.541599125,63.0,58.0
262,67.1078874375,67.602205125,60.0,56.0
263,67.1078874375,67.636296,48.0,60.0
264,67.7897049375,68.0169774375,58.0,58.0
265,67.7897049375,68.2575075,61.0,58.0
266,68.2442499375,68.344628625,58.0,51.0
267,68.0169774375,68.571901125,53.0,47.0
268,68.4715224375,68.7253100625,58.0,57.0
269,68.4715224375,68.7726585,65.0,60.0
270,68.6987949375,68.996143125,53.0,53.0
271,68.9260674375,69.05296125,58.0,58.0
272,67.7897049375,69.060537,46.0,58.0
273,68.9260674375,69.2025823125,61.0,58.0
274,69.1533399375,69.44690025,58.0,51.0
275,69.3806124375,69.5737940625,61.0,52.0
276,69.6078849375,69.8806119375,63.0,54.0
277,70.0624299375,70.181748,58.0,59.0
278,70.2897024375,70.47720225,58.0,57.0
279,70.2897024375,70.5302325,67.0,55.0
280,69.8351574375,70.6760656875,46.0,43.0
281,69.6078849375,70.6987929375,39.0,62.0
282,70.7442474375,70.8919745625,58.0,55.0
283,70.7442474375,70.912807875,63.0,58.0
284,71.4260649375,71.6912161875,58.0,56.0
285,71.4260649375,71.9563674375,66.0,53.0
286,71.8806099375,72.17417025,58.0,54.0
287,72.1078824375,72.333261,63.0,60.0
288,71.6533374375,72.344624625,46.0,49.0
289,71.4260649375,72.3919730625,39.0,60.0
290,72.5624274375,72.677957625,58.0,59.0
291,72.5624274375,72.81053325,66.0,58.0
292,72.7896999375,73.0396996875,63.0,52.0
293,73.0169724375,73.374926625,58.0,54.0
294,73.6987899375,73.85598675,56.0,61.0
295,73.4715174375,74.06810775,51.0,53.0
296,73.9260624375,74.2101530625,56.0,52.0
297,73.9260624375,74.2518196875,63.0,58.0
298,74.1533349375,74.5283345625,51.0,54.0
299,73.2442449375,74.624925375,44.0,59.0
300,74.3806074375,74.6684859375,56.0,59.0
301,74.3806074375,74.7518191875,63.0,58.0
302,74.9109099375,76.6514385,56.0,38.0
303,75.041591625,76.66659,63.0,52.0
304,74.988561375,76.67416575,60.0,47.0
305,75.079470375,76.67416575,68.0,46.0
306,75.041591625,76.677953625,44.0,58.0
307,76.8806049375,77.359771125,61.0,52.0
308,77.3351499375,77.609770875,54.0,43.0
309,77.5624224375,77.696892,58.0,41.0
310,78.0169674375,78.17416425,61.0,52.0
311,78.2442399375,78.4374215625,54.0,38.0
312,78.6987849375,78.8578756875,61.0,49.0
313,77.1078774375,78.996133125,49.0,44.0
314,79.6078749375,79.9109049375,54.0,47.0
315,79.3806024375,79.950677625,49.0,42.0
316,76.8806049375,80.00749575,42.0,58.0
317,79.8351474375,80.0548441875,58.0,60.0
318,80.0624199375,80.181738,61.0,59.0
319,80.5169649375,80.6722678125,56.0,51.0
320,80.5169649375,80.806737375,61.0,52.0
321,80.7442374375,81.0434795625,56.0,47.0
322,80.9715099375,81.117343125,61.0,48.0
323,81.1987824375,81.3484035,63.0,45.0
324,81.6533274375,81.909009,61.0,51.0
325,81.8805999375,82.08325125,56.0,43.0
326,82.1078724375,82.8578716875,65.0,53.0
327,83.0169624375,83.2593864375,61.0,52.0
328,83.2442349375,83.4904468125,56.0,54.0
329,80.5169649375,83.556734625,49.0,57.0
330,83.4715074375,83.5927194375,61.0,53.0
331,84.1533249375,84.2593854375,54.0,45.0
332,84.1533249375,84.65900625,58.0,44.0
333,84.6078699375,84.905218125,54.0,48.0
334,84.8351424375,85.00749075,61.0,52.0
335,85.2896874375,85.4790811875,58.0,48.0
336,84.3805974375,85.8313535625,49.0,55.0
337,84.1533249375,85.8578686875,42.0,57.0
338,85.5169599375,85.8730201875,54.0,43.0
339,85.7442324375,86.7366556875,66.0,55.0
340,86.4260499375,86.78021625,54.0,48.0
341,86.1987774375,87.079458375,49.0,46.0
342,85.9715049375,87.0851401875,42.0,49.0
343,86.6533224375,87.132488625,61.0,52.0
344,87.1078674375,87.397639875,58.0,49.0
345,87.3351399375,87.420367125,54.0,45.0
346,88.0169574375,88.2574875,56.0,50.0
347,88.2442299375,88.56809325,61.0,50.0
348,88.4715024375,88.6608961875,56.0,47.0
349,88.6987749375,88.88627475,63.0,58.0
350,88.9260474375,89.268850125,56.0,47.0
351,89.3805924375,89.9222585625,65.0,59.0
352,89.8351374375,90.0927129375,56.0,48.0
353,90.06240993750001,90.359758125,61.0,54.0
354,87.7896849375,90.7442274375,49.0,56.0
355,90.5169549375,90.7934698125,61.0,54.0
356,90.5169549375,90.799151625,56.0,52.0
357,91.65331743750001,91.969605,59.0,52.0
358,91.8805899375,92.170362375,54.0,49.0
359,92.1078624375,92.38627125000001,63.0,57.0
360,92.3351349375,92.5927104375,59.0,54.0
361,92.5624074375,92.8654374375,54.0,46.0
362,92.7896799375,93.1798310625,59.0,46.0
363,93.0169524375,93.33324,54.0,44.0
364,93.9260424375,94.15899675,59.0,59.0
365,94.1533149375,94.454451,54.0,53.0
366,94.3805874375,94.515057,59.0,63.0
367,91.4260449375,94.54536,47.0,61.0
368,95.0624049375,95.4108894375,58.0,51.0
369,95.5169499375,95.708237625,58.0,59.0
370,95.7442224375,96.23475225,61.0,59.0
371,96.1987674375,96.5661913125,66.0,52.0
372,96.8805849375,97.4942206875,58.0,42.0
373,96.8805849375,97.6608871875,61.0,49.0
374,95.2896774375,97.9980080625,49.0,49.0
375,95.0624049375,98.030205,42.0,58.0
376,97.7896749375,98.0453565,66.0,62.0
377,98.0169474375,98.2593714375,61.0,60.0
378,98.2442199375,98.38626525,58.0,50.0
379,98.6987649375,99.003688875,59.0,59.0
380,98.9260374375,99.200658375,54.0,53.0
381,99.1533099375,99.35785518750001,63.0,43.0
382,99.3805824375,99.677930625,59.0,45.0
383,99.6078549375,99.8048244375,54.0,53.0
384,99.8351274375,100.1949755625,66.0,58.0
385,100.2896724375,100.4392935,54.0,49.0
386,100.5169449375,100.814293125,54.0,46.0
387,100.5169449375,101.094595875,63.0,51.0
388,98.6987649375,101.5964893125,47.0,59.0
389,101.1987624375,101.6381559375,59.0,63.0
390,101.6533074375,101.9146708125,54.0,58.0
391,101.8805799375,101.9298223125,59.0,45.0
392,102.3351249375,102.8313365625,63.0,53.0
393,102.7896699375,103.1002756875,56.0,58.0
394,103.0169424375,103.28019975,63.0,59.0
395,103.2442149375,103.52262375,68.0,59.0
396,103.4714874375,103.7555780625,63.0,54.0
397,102.3351249375,103.9904263125,44.0,59.0
398,102.5623974375,103.9904263125,51.0,47.0
399,103.6987599375,104.2442139375,56.0,60.0
400,103.9260324375,104.655198375,63.0,56.0
401,104.6078499375,104.74989525,56.0,58.0
402,104.3805774375,104.9544405,51.0,45.0
403,104.8351224375,105.34080375,56.0,53.0
404,104.1533049375,105.41656125,44.0,58.0
405,104.8351224375,105.44686425,60.0,58.0
406,104.8351224375,105.62868225,63.0,58.0
407,105.7442124375,105.8237578125,63.0,5.0
408,105.2896674375,105.844591125,51.0,56.0
409,105.5169399375,105.9108789375,56.0,60.0
410,105.7442124375,105.9298183125,60.0,53.0
411,105.9714849375,106.0756515,37.0,59.0
412,105.9714849375,106.147621125,56.0,57.0
413,105.9714849375,106.450651125,65.0,58.0
414,106.1987574375,106.49231775,56.0,58.0
415,106.4260299375,106.5851206875,61.0,44.0
416,106.6533024375,107.1362565,65.0,62.0
417,107.1078474375,107.3540593125,61.0,53.0
418,106.8805749375,107.6495135625,49.0,49.0
419,107.3351199375,107.670346875,56.0,58.0
420,107.5623924375,107.8161800625,61.0,55.0
421,107.7896649375,108.08322525,63.0,59.0
422,108.0169374375,108.2934523125,58.0,49.0
423,108.2442099375,108.3957249375,63.0,56.0
424,108.4714824375,108.8502699375,66.0,59.0
425,107.7896649375,109.1059515,51.0,60.0
426,108.9260274375,109.1722393125,63.0,60.0
427,109.1532999375,109.2593604375,58.0,54.0
428,109.6078449375,109.8332235,56.0,55.0
429,109.6078449375,110.0623899375,60.0,54.0
430,110.0623899375,110.2252685625,56.0,53.0
431,110.2896624375,110.624889375,63.0,60.0
432,110.7442074375,110.9563284375,60.0,60.0
433,109.8351174375,111.0320859375,51.0,38.0
434,110.9714799375,111.1078434375,56.0,58.0
435,109.6078449375,111.253676625,44.0,58.0
436,111.4260249375,111.5320854375,56.0,57.0
437,111.4260249375,111.6873883125,61.0,58.0
438,111.6532974375,111.988524375,56.0,58.0
439,111.8805699375,112.011251625,61.0,54.0
440,112.1078424375,112.261251375,56.0,58.0
441,111.4260249375,112.26503925,49.0,60.0
442,112.1078424375,112.2934483125,61.0,59.0
443,112.1078424375,112.382463375,65.0,62.0
444,112.5623874375,112.996099125,63.0,58.0
445,112.5623874375,113.056705125,60.0,56.0
446,112.5623874375,113.090796,48.0,60.0
447,113.2442049375,113.4714774375,58.0,58.0
448,113.2442049375,113.7120075,61.0,58.0
449,113.6987499375,113.799128625,58.0,51.0
450,113.4714774375,114.026401125,53.0,47.0
451,113.9260224375,114.1798100625,58.0,57.0
452,113.9260224375,114.2271585,65.0,60.0
453,114.15329493750001,114.450643125,53.0,53.0
454,114.3805674375,114.50746125,58.0,58.0
455,113.2442049375,114.515037,46.0,58.0
456,114.3805674375,114.6570823125,61.0,58.0
457,114.6078399375,114.90140025,58.0,51.0
458,114.8351124375,115.0282940625,61.0,52.0
459,115.0623849375,115.3351119375,63.0,54.0
460,115.5169299375,115.636248,58.0,59.0
461,115.74420243750001,115.93170225,58.0,57.0
462,115.74420243750001,115.9847325,67.0,55.0
463,115.2896574375,116.1305656875,46.0,43.0
464,115.0623849375,116.1532929375,39.0,62.0
465,116.1987474375,116.3464745625,58.0,55.0
466,116.1987474375,116.367307875,63.0,58.0
467,116.8805649375,117.3692008125,66.0,57.0
468,117.3351099375,117.6116248125,58.0,58.0
469,117.5623824375,117.74988225,63.0,58.0
470,117.1078374375,118.1116243125,46.0,43.0
471,118.0169274375,118.117306125,58.0,59.0
472,116.8805649375,118.151397,39.0,61.0
473,118.0169274375,118.28018475,66.0,59.0
474,118.2441999375,118.443063375,63.0,59.0
475,118.4714724375,118.58321475,58.0,50.0
476,118.6987449375,119.09836575,63.0,58.0
477,119.1532899375,119.261244375,56.0,57.0
478,118.9260174375,119.47715325,51.0,51.0
479,119.3805624375,119.6116228125,63.0,59.0
480,119.3805624375,119.6419258125,56.0,57.0
481,119.6078349375,119.943061875,51.0,55.0
482,119.8351074375,120.08321325,56.0,61.0
483,118.6987449375,120.1154101875,44.0,57.0
484,119.8351074375,120.193061625,60.0,60.0
485,120.0623799375,120.39003112500001,51.0,58.0
486,120.2896524375,120.41654625,56.0,61.0
487,120.5169249375,120.6210915,37.0,59.0
488,120.5169249375,120.693061125,56.0,57.0
489,120.5169249375,120.996091125,65.0,58.0
490,120.7441974375,121.03775775,56.0,58.0
491,120.9714699375,121.1305606875,61.0,44.0
492,121.1987424375,121.6816965,65.0,62.0
493,121.6532874375,121.8994993125,61.0,53.0
494,121.4260149375,122.1949535625,49.0,49.0
495,121.8805599375,122.215786875,56.0,58.0
496,122.1078324375,122.3616200625,61.0,55.0
497,122.3351049375,122.62866525,63.0,59.0
498,122.5623774375,122.8388923125,58.0,49.0
499,122.7896499375,122.9411649375,63.0,56.0
500,123.0169224375,123.3957099375,66.0,59.0
501,122.3351049375,123.6513915,51.0,60.0
502,123.4714674375,123.7176793125,63.0,60.0
503,123.6987399375,123.8048004375,58.0,54.0
504,124.1532849375,124.3786635,56.0,55.0
505,124.1532849375,124.6078299375,60.0,54.0
506,124.6078299375,124.7707085625,56.0,53.0
507,124.8351024375,125.170329375,63.0,60.0
508,125.2896474375,125.5017684375,60.0,60.0
509,124.3805574375,125.5775259375,51.0,38.0
510,125.5169199375,125.6532834375,56.0,58.0
511,124.1532849375,125.799116625,44.0,58.0
512,125.9714649375,126.0775254375,56.0,57.0
513,125.9714649375,126.2328283125,61.0,58.0
514,126.1987374375,126.533964375,56.0,58.0
515,126.4260099375,126.556691625,61.0,54.0
516,126.6532824375,126.806691375,56.0,58.0
517,125.9714649375,126.81047925,49.0,60.0
518,126.6532824375,126.8388883125,61.0,59.0
519,126.6532824375,126.927903375,65.0,62.0
520,127.1078274375,127.541539125,63.0,58.0
521,127.1078274375,127.602145125,60.0,56.0
522,127.1078274375,127.636236,48.0,60.0
523,127.7896449375,128.0169174375,58.0,58.0
524,127.7896449375,128.2574475,61.0,58.0
525,128.2441899375,128.344568625,58.0,51.0
526,128.0169174375,128.571841125,53.0,47.0
527,128.4714624375,128.7252500625,58.0,57.0
528,128.4714624375,128.7725985,65.0,60.0
529,128.6987349375,128.996083125,53.0,53.0
530,128.9260074375,129.05290125,58.0,58.0
531,127.7896449375,129.060477,46.0,58.0
532,128.9260074375,129.2025223125,61.0,58.0
533,129.1532799375,129.44684025,58.0,51.0
534,129.3805524375,129.5737340625,61.0,52.0
535,129.6078249375,129.8805519375,63.0,54.0
536,130.0623699375,130.181688,58.0,59.0
537,130.2896424375,130.47714225,58.0,57.0
538,130.2896424375,130.5301725,67.0,55.0
539,129.8350974375,130.6760056875,46.0,43.0
540,129.6078249375,130.6987329375,39.0,62.0
541,130.7441874375,130.8919145625,58.0,55.0
542,130.7441874375,130.912747875,63.0,58.0
543,131.4260049375,131.6911561875,58.0,56.0
544,131.4260049375,131.9563074375,66.0,53.0
545,131.8805499375,132.17411025,58.0,54.0
546,132.1078224375,132.333201,63.0,60.0
547,131.6532774375,132.344564625,46.0,49.0
548,131.4260049375,132.3919130625,39.0,60.0
549,132.5623674375,132.677897625,58.0,59.0
550,132.5623674375,132.81047325,66.0,58.0
551,132.7896399375,133.0396396875,63.0,52.0
552,133.0169124375,133.374866625,58.0,54.0
553,133.6987299375,133.85592675,56.0,61.0
554,133.4714574375,134.06804775,51.0,53.0
555,133.9260024375,134.2100930625,56.0,52.0
556,133.9260024375,134.2517596875,63.0,58.0
557,134.1532749375,134.5282745625,51.0,54.0
558,133.2441849375,134.624865375,44.0,59.0
559,134.3805474375,134.6684259375,56.0,59.0
560,134.3805474375,134.7517591875,63.0,58.0
561,135.0623649375,135.1665315,37.0,59.0
562,135.0623649375,135.238501125,56.0,57.0
563,135.0623649375,135.541531125,65.0,58.0
564,135.2896374375,135.58319775,56.0,58.0
565,135.5169099375,135.6760006875,61.0,44.0
566,135.7441824375,136.2271365,65.0,62.0
567,136.1987274375,136.4449393125,61.0,53.0
568,135.9714549375,136.7403935625,49.0,49.0
569,136.4259999375,136.761226875,56.0,58.0
570,136.6532724375,136.9070600625,61.0,55.0
571,136.8805449375,137.17410525,63.0,59.0
572,137.1078174375,137.3843323125,58.0,49.0
573,137.3350899375,137.4866049375,63.0,56.0
574,137.5623624375,137.9411499375,66.0,59.0
575,136.8805449375,138.1968315,51.0,60.0
576,138.0169074375,138.2631193125,63.0,60.0
577,138.2441799375,138.3502404375,58.0,54.0
578,138.6987249375,138.9241035,56.0,55.0
579,138.6987249375,139.1532699375,60.0,54.0
580,139.1532699375,139.3161485625,56.0,53.0
581,139.3805424375,139.715769375,63.0,60.0
582,139.8350874375,140.0472084375,60.0,60.0
583,138.9259974375,140.1229659375,51.0,38.0
584,140.0623599375,140.1987234375,56.0,58.0
585,138.6987249375,140.344556625,44.0,58.0
586,140.5169049375,140.6229654375,56.0,57.0
587,140.5169049375,140.7782683125,61.0,58.0
588,140.7441774375,141.079404375,56.0,58.0
589,140.9714499375,141.102131625,61.0,54.0
590,141.1987224375,141.352131375,56.0,58.0
591,140.5169049375,141.35591925,49.0,60.0
592,141.1987224375,141.3843283125,61.0,59.0
593,141.1987224375,141.473343375,65.0,62.0
594,141.6532674375,142.086979125,63.0,58.0
595,141.6532674375,142.147585125,60.0,56.0
596,141.6532674375,142.181676,48.0,60.0
597,142.3350849375,142.5623574375,58.0,58.0
598,142.3350849375,142.8028875,61.0,58.0
599,142.7896299375,142.890008625,58.0,51.0
600,142.5623574375,143.117281125,53.0,47.0
601,143.0169024375,143.2706900625,58.0,57.0
602,143.0169024375,143.3180385,65.0,60.0
603,143.2441749375,143.541523125,53.0,53.0
604,143.4714474375,143.59834125,58.0,58.0
605,142.3350849375,143.605917,46.0,58.0
606,143.4714474375,143.7479623125,61.0,58.0
607,143.6987199375,143.99228025,58.0,51.0
608,143.9259924375,144.1191740625,61.0,52.0
609,144.1532649375,144.4259919375,63.0,54.0
610,144.6078099375,144.727128,58.0,59.0
611,144.8350824375,145.02258225,58.0,57.0
612,144.8350824375,145.0756125,67.0,55.0
613,144.3805374375,145.2214456875,46.0,43.0
614,144.1532649375,145.2441729375,39.0,62.0
615,145.2896274375,145.4373545625,58.0,55.0
616,145.2896274375,145.458187875,63.0,58.0
617,145.9714449375,146.4600808125,66.0,57.0
618,146.4259899375,146.7025048125,58.0,58.0
619,146.6532624375,146.84076225,63.0,58.0
620,146.1987174375,147.2025043125,46.0,43.0
621,147.1078074375,147.208186125,58.0,59.0
622,145.9714449375,147.242277,39.0,61.0
623,147.1078074375,147.37106475,66.0,59.0
624,147.3350799375,147.533943375,63.0,59.0
625,147.5623524375,147.67409475,58.0,50.0
626,147.7896249375,148.18924575,63.0,58.0
627,148.2441699375,148.352124375,56.0,57.0
628,148.0168974375,148.56803325,51.0,51.0
629,148.4714424375,148.7025028125,63.0,59.0
630,148.4714424375,148.7328058125,56.0,57.0
631,148.6987149375,149.033941875,51.0,55.0
632,148.9259874375,149.17409325,56.0,61.0
633,147.7896249375,149.2062901875,44.0,57.0
634,148.9259874375,149.283941625,60.0,60.0
635,149.1532599375,149.480911125,51.0,58.0
636,149.3805324375,149.50742625,56.0,61.0
637,149.6078049375,149.7119715,37.0,59.0
638,149.6078049375,149.783941125,56.0,57.0
639,149.6078049375,150.086971125,65.0,58.0
640,149.8350774375,150.12863775,56.0,58.0
641,150.0623499375,150.2214406875,61.0,44.0
642,150.28962243750001,150.7725765,65.0,62.0
643,150.7441674375,150.9903793125,61.0,53.0
644,150.5168949375,151.2858335625,49.0,49.0
645,150.9714399375,151.306666875,56.0,58.0
646,151.1987124375,151.4525000625,61.0,55.0
647,151.4259849375,151.71954525,63.0,59.0
648,151.6532574375,151.9297723125,58.0,49.0
649,151.8805299375,152.0320449375,63.0,56.0
650,152.1078024375,152.4865899375,66.0,59.0
651,151.4259849375,152.7422715,51.0,60.0
652,152.5623474375,152.8085593125,63.0,60.0
653,152.7896199375,152.8956804375,58.0,54.0
654,153.2441649375,153.46954350000001,56.0,55.0
655,153.2441649375,153.6987099375,60.0,54.0
656,153.6987099375,153.8615885625,56.0,53.0
657,153.9259824375,154.261209375,63.0,60.0
658,154.3805274375,154.5926484375,60.0,60.0
659,153.4714374375,154.6684059375,51.0,38.0
660,154.6077999375,154.7441634375,56.0,58.0
661,153.2441649375,154.889996625,44.0,58.0
662,155.0623449375,155.1684054375,56.0,57.0
663,155.0623449375,155.3237083125,61.0,58.0
664,155.2896174375,155.624844375,56.0,58.0
665,155.5168899375,155.647571625,61.0,54.0
666,155.7441624375,155.897571375,56.0,58.0
667,155.0623449375,155.90135925,49.0,60.0
668,155.7441624375,155.9297683125,61.0,59.0
669,155.7441624375,156.018783375,65.0,62.0
670,156.1987074375,156.632419125,63.0,58.0
671,156.1987074375,156.693025125,60.0,56.0
672,156.1987074375,156.727116,48.0,60.0
673,156.8805249375,157.1077974375,58.0,58.0
674,156.8805249375,157.3483275,61.0,58.0
675,157.3350699375,157.435448625,58.0,51.0
676,157.1077974375,157.662721125,53.0,47.0
677,157.5623424375,157.8161300625,58.0,57.0
678,157.5623424375,157.8634785,65.0,60.0
679,157.7896149375,158.086963125,53.0,53.0
680,158.0168874375,158.14378125,58.0,58.0
681,156.8805249375,158.151357,46.0,58.0
682,158.0168874375,158.2934023125,61.0,58.0
683,158.2441599375,158.53772025,58.0,51.0
684,158.4714324375,158.6646140625,61.0,52.0
685,158.6987049375,158.9714319375,63.0,54.0
686,159.1532499375,159.272568,58.0,59.0
687,159.3805224375,159.56802225,58.0,57.0
688,159.3805224375,159.6210525,67.0,55.0
689,158.9259774375,159.7668856875,46.0,43.0
690,158.6987049375,159.7896129375,39.0,62.0
691,159.8350674375,159.9827945625,58.0,55.0
692,159.8350674375,160.003627875,63.0,58.0
693,160.5168849375,160.7820361875,58.0,56.0
694,160.5168849375,161.0471874375,66.0,53.0
695,160.9714299375,161.26499025,58.0,54.0
696,161.1987024375,161.424081,63.0,60.0
697,160.7441574375,161.435444625,46.0,49.0
698,160.5168849375,161.4827930625,39.0,60.0
699,161.6532474375,161.768777625,58.0,59.0
700,161.6532474375,161.90135325,66.0,58.0
701,161.8805199375,162.1305196875,63.0,52.0
702,162.1077924375,162.465746625,58.0,54.0
703,162.7896099375,162.94680675,56.0,61.0
704,162.5623374375,163.15892775,51.0,53.0
705,163.0168824375,163.3009730625,56.0,52.0
706,163.0168824375,163.3426396875,63.0,58.0
707,163.2441549375,163.6191545625,51.0,54.0
708,162.3350649375,163.715745375,44.0,59.0
709,163.4714274375,163.7593059375,56.0,59.0
710,163.4714274375,163.8426391875,63.0,58.0
711,164.0017299375,165.242259,56.0,38.0
712,164.132411625,165.2574105,63.0,52.0
713,164.079381375,165.26498625,60.0,47.0
714,164.170290375,165.26498625,68.0,46.0
715,164.132411625,165.268774125,44.0,58.0
716,166.1683944375,166.8312725625,54.0,54.0
717,166.3956669375,167.02256025,61.0,52.0
718,166.8502119375,167.193014625,66.0,55.0
719,167.0774844375,167.3464235625,54.0,44.0
720,165.94112193750001,167.393772,49.0,46.0
721,165.7138494375,167.4108174375,42.0,58.0
722,167.5320294375,168.405134625,61.0,43.0
723,167.5320294375,168.412710375,54.0,44.0
724,167.5320294375,168.602104125,42.0,39.0
725,169.3502094375,169.503618375,56.0,43.0
726,169.3502094375,169.6816485,61.0,52.0
727,169.5774819375,169.8918755625,56.0,53.0
728,169.8047544375,169.9449058125,61.0,50.0
729,170.0320269375,170.3388448125,65.0,55.0
730,170.4865719375,170.8464200625,61.0,46.0
731,170.7138444375,170.9221775625,56.0,38.0
732,171.1683894375,171.6002071875,65.0,49.0
733,169.3502094375,172.2252065625,49.0,54.0
734,172.0774794375,172.2327823125,56.0,49.0
735,172.0774794375,172.261191375,61.0,52.0
736,172.9865694375,173.2744479375,54.0,46.0
737,172.9865694375,173.389978125,61.0,53.0
738,173.4411144375,173.7119475,54.0,42.0
739,173.6683869375,174.359674125,61.0,50.0
740,174.1229319375,174.4070225625,66.0,58.0
741,174.3502044375,174.6210375,54.0,51.0
742,173.2138419375,174.6608101875,49.0,47.0
743,172.9865694375,174.700582875,42.0,56.0
744,174.8047494375,175.238461125,54.0,46.0
745,174.8047494375,175.2858095625,61.0,45.0
746,175.2592944375,175.814218125,42.0,21.0
747,175.7138394375,175.8956574375,54.0,47.0
748,175.7138394375,175.9638391875,58.0,49.0
749,176.6229294375,176.7858080625,56.0,46.0
750,176.6229294375,176.94679275000001,61.0,53.0
751,176.8502019375,177.1039895625,56.0,50.0
752,177.0774744375,177.2403530625,63.0,52.0
753,177.3047469375,177.5964133125,56.0,46.0
754,177.7592919375,177.9448978125,65.0,52.0
755,177.9865644375,178.17406425,56.0,45.0
756,176.6229294375,178.2024733125,49.0,54.0
757,178.96194225,179.3426236875,51.0,47.0
758,179.2744419375,179.6077749375,53.0,45.0
759,179.670274875,180.5320164375,49.0,39.0
760,178.6532304375,180.5471679375,44.0,40.0
761,179.7592899375,180.579364875,56.0,37.0
762,178.41648825,180.6001981875,37.0,53.0
