,start,end,pitch,velocity
0,8.616662358333334,9.411760000000001,66.0,90.0
1,9.557838358333333,9.928426408333333,69.0,87.0
2,10.028426358333334,10.419602633333334,71.0,88.0
3,10.499014358333334,11.616660858333333,66.0,90.0
4,11.910778358333333,12.3058762,62.0,88.0
5,12.381366358333334,12.955875875,64.0,92.0
6,13.087248358333333,13.315679616666667,62.0,90.0
7,13.322542358333333,13.719600983333335,64.0,92.0
8,13.793130358333334,14.198032116666667,69.0,88.0
9,14.263718358333334,15.482345200000001,66.0,88.0
10,16.146070358333333,16.557834858333333,64.0,88.0
11,16.616658358333332,16.949991525,66.0,86.0
12,17.087246358333335,17.431363833333332,64.0,92.0
13,17.557834358333334,17.927442016666667,66.0,90.0
14,18.028422358333334,18.386265316666666,64.0,88.0
15,18.499010358333333,18.884304283333332,62.0,88.0
16,18.969598358333332,19.313715833333333,59.0,87.0
17,19.440186358333335,19.8235195,57.0,88.0
18,19.910774358333335,21.293126608333335,62.0,87.0
19,21.322538358333333,21.6823421,64.0,92.0
20,21.793126358333335,22.372537833333332,66.0,92.0
21,22.499008358333334,22.6588122,64.0,95.0
22,22.734302358333334,22.938223825,66.0,87.0
23,22.969596358333334,23.121557066666668,64.0,87.0
24,23.204890358333333,23.39214516666667,66.0,89.0
25,23.440184358333333,23.645086216666666,69.0,87.0
26,23.675478358333333,25.5882225,64.0,91.0
27,27.440182358333335,28.23528,66.0,90.0
28,28.381358358333333,28.751946408333335,69.0,87.0
29,28.851946358333333,29.243122633333336,71.0,88.0
30,29.322534358333336,30.440180858333335,66.0,90.0
31,30.734298358333334,31.129396200000002,62.0,88.0
32,31.204886358333333,31.779395875000002,64.0,92.0
33,31.910768358333335,32.139199616666666,62.0,90.0
34,32.14606235833333,32.54312098333333,64.0,92.0
35,32.61665035833333,33.02155211666667,69.0,88.0
36,33.08723835833334,34.3058652,66.0,88.0
37,34.969590358333335,35.38135485833333,64.0,88.0
38,35.440178358333334,35.773511525,66.0,86.0
39,35.91076635833333,36.25488383333334,64.0,92.0
40,36.38135435833333,36.75096201666667,66.0,90.0
41,36.85194235833333,37.20978531666667,64.0,88.0
42,37.32253035833333,37.70782428333334,62.0,88.0
43,37.79311835833334,38.137235833333335,59.0,87.0
44,38.26370635833334,38.6470395,57.0,88.0
45,38.73429435833334,40.11664660833333,62.0,87.0
46,40.146058358333335,40.5058621,66.0,92.0
47,40.616646358333334,41.08723435833333,64.0,92.0
48,41.08723435833333,41.442136141666666,62.0,88.0
49,41.55782235833333,41.957822158333336,59.0,90.0
50,42.02841035833333,42.43135133333333,57.0,89.0
51,42.49899835833333,44.38036996666667,62.0,87.0
52,46.26370235833333,47.61762325,66.0,88.0
53,48.14605435833334,48.93134808333333,57.0,90.0
54,49.087230358333336,49.49997525,59.0,90.0
55,49.557818358333336,49.68036731666667,57.0,88.0
56,49.79311235833333,49.96958285833333,59.0,88.0
57,50.028406358333335,52.024407958333335,62.0,87.0
58,53.780267333333335,54.265618895833335,59.0,89.0
59,54.249017333333335,54.774407958333335,62.0,90.0
60,54.717767333333335,55.212884520833335,59.0,90.0
61,55.186517333333335,55.662103270833335,62.0,90.0
62,55.655267333333335,56.144525145833335,59.0,92.0
63,56.124017333333335,56.600579833333335,62.0,91.0
64,56.592767333333335,57.034173583333335,59.0,97.0
65,57.061517333333335,57.541009520833335,57.0,92.0
66,57.530267333333335,60.244134520833335,66.0,93.0
67,61.280267333333335,61.76842016041667,59.0,89.0
68,61.751720812500004,62.280206058333334,62.0,90.0
69,62.2232318125,62.721265306250004,59.0,90.0
70,62.6947428125,63.173130014583336,62.0,90.0
71,63.1662538125,63.65839341875,59.0,92.0
72,63.6377648125,64.11713432916667,62.0,91.0
73,64.1092758125,64.55328200416666,59.0,97.0
74,64.5807868125,65.06310327291666,57.0,92.0
75,65.0522978125,67.78215003958333,66.0,93.0
76,68.35561936875,68.79435426875,71.0,88.0
77,68.82992736874999,70.14119136041666,69.0,90.0
78,70.25285136875,70.64316732708333,71.0,90.0
79,70.72715936875,71.50482686041666,69.0,90.0
80,72.15008336874999,72.45914525208333,71.0,88.0
81,72.62713688541666,73.01381585208333,69.0,87.0
82,73.10427288541666,73.49890411875,71.0,88.0
83,73.58140888541666,73.95914155208334,69.0,86.0
84,74.05854488541667,74.44522385208333,71.0,87.0
85,74.53568088541667,76.26032871875,69.0,88.0
86,76.44421306041667,77.24877574791667,66.0,90.0
87,77.39659306041666,77.77159268541666,69.0,87.0
88,77.87278306041667,78.26861599791667,71.0,88.0
89,78.34897306041667,79.47992431041666,66.0,90.0
90,79.77754306041666,80.17734424791666,62.0,88.0
91,80.25373306041666,80.83508168541667,64.0,92.0
92,80.96801806041667,81.19916862291666,62.0,90.0
93,81.20611306041667,81.60789837291667,64.0,92.0
94,81.68230306041667,82.09121350000001,69.0,88.0
95,82.15755006041667,83.38610728125,66.0,88.0
96,84.05242138125,84.46418588125,64.0,88.0
97,84.52300938125,84.85634254791667,66.0,86.0
98,84.99359738125001,85.33771485625,64.0,92.0
99,85.46418538125,85.83379303958334,66.0,90.0
100,85.93477338125001,86.29261633958333,64.0,88.0
101,86.40536138125,86.79065530625,62.0,88.0
102,86.87594938125001,87.22006685625,59.0,87.0
103,87.34653738125,87.72987052291667,57.0,88.0
104,87.81712538125001,89.19947763125,62.0,87.0
105,89.22888938125001,89.58869312291668,66.0,92.0
106,89.69947738125,90.17006538125001,64.0,92.0
107,90.17006538125001,90.52496716458334,62.0,88.0
108,90.64065338125,91.04065318125001,59.0,90.0
109,91.11124138125001,91.51418235625,57.0,89.0
110,91.58182938125,93.46320098958334,62.0,87.0
111,95.34105384375,96.68968665625,66.0,88.0
112,97.21605384375,97.99828040625,57.0,90.0
113,98.15355384375,98.56468665625,59.0,90.0
114,98.62230384375,98.74437415625,57.0,88.0
115,98.85667884375,99.03246009375,59.0,88.0
116,99.09105384375,101.08519446875,62.0,87.0
117,121.58279301041667,122.37633285625,66.0,90.0
118,122.52212501041667,122.89198698541666,69.0,87.0
119,122.99179101041666,123.38220087291667,71.0,88.0
120,123.46145701041667,124.57691376041667,66.0,90.0
121,124.87045501041666,125.26477875625,62.0,88.0
122,125.34012101041667,125.91350491875,64.0,92.0
123,126.04462001041666,126.27260371458334,62.0,90.0
124,126.27945301041666,126.67573369791667,64.0,92.0
125,126.74911901041666,127.15322746458334,69.0,88.0
126,127.21878501041667,128.43502425625,66.0,88.0
127,129.09744901041665,129.50840676041668,64.0,88.0
128,129.56711501041667,129.89979509375001,66.0,86.0
129,130.03678101041666,130.38022427291668,64.0,92.0
130,130.50644701041668,130.87533051458334,66.0,90.0
131,130.97611301041667,131.33325486458332,64.0,88.0
132,131.44577901041666,131.83031804791668,62.0,88.0
133,131.91544501041668,132.25888827291666,59.0,87.0
134,132.38511101041667,132.76769310625,57.0,88.0
135,132.85477701041665,134.23264807291667,62.0,87.0
136,134.26188782291666,134.61958743124998,66.0,92.0
137,134.72972382291667,135.19755982291667,64.0,92.0
138,135.19755982291667,135.55038613958334,62.0,88.0
139,135.66539582291665,136.06305642291667,59.0,90.0
140,136.13323182291666,136.53381639791667,57.0,89.0
141,136.60106782291666,138.46420682708333,62.0,87.0
142,140.32924969791668,141.67002231875,66.0,88.0
143,142.19332169791667,142.97098923541665,57.0,90.0
144,143.12535769791666,143.53409431875,59.0,90.0
145,143.59137569791667,143.71273455208333,57.0,88.0
146,143.82438469791666,143.99914144791666,59.0,88.0
147,144.05739369791667,146.03387292708334,62.0,87.0
148,147.76952042708334,148.25392561875,59.0,89.0
149,148.23735642708334,148.76172261041665,62.0,90.0
150,148.70519242708332,149.19934420208332,59.0,90.0
151,149.17302842708332,149.64768703541665,62.0,90.0
152,149.64086442708333,150.12916825208333,59.0,92.0
153,150.10870042708333,150.58433369374998,62.0,91.0
154,150.57653642708334,151.01708199375,59.0,97.0
155,151.04437242708332,151.52292966874998,57.0,92.0
156,151.51220842708332,154.22078393541665,66.0,93.0
157,155.25489642708334,155.73930161875,59.0,89.0
158,155.72273242708332,156.24753501666666,62.0,90.0
159,156.19056842708332,156.68859426458334,59.0,90.0
160,156.66207177083334,157.14045897291666,62.0,90.0
161,157.13358277083333,157.62572237708335,59.0,92.0
162,157.60509377083332,158.0844632875,62.0,91.0
163,158.07660477083334,158.5206109625,59.0,97.0
164,158.54811577083333,159.03043223125,57.0,92.0
165,159.01962677083333,161.74947899791667,66.0,93.0
166,162.32020377083333,162.75635144583333,71.0,88.0
167,162.79171477083332,164.09524622291667,69.0,90.0
168,164.20624777083333,164.59426203125,71.0,90.0
169,164.67775877083332,165.45084034791665,69.0,90.0
170,166.09229177083333,166.39779160625,71.0,88.0
171,166.56380277083332,166.94592314375,69.0,87.0
172,167.03531377083334,167.42529266041666,71.0,88.0
173,167.50682477083333,167.8801043125,69.0,86.0
174,167.97833577083333,168.36045614375,71.0,87.0
175,168.44984677083335,170.15416257291668,69.0,88.0
176,170.33589077083334,171.13254789791665,66.0,90.0
177,171.27891277083333,171.65022768333333,69.0,87.0
178,171.75042377083332,172.14236728958332,71.0,88.0
179,172.22193477083334,173.34177339583334,66.0,90.0
180,173.63646777083335,174.03234054791668,62.0,88.0
181,174.10797877083334,174.68361511666666,64.0,92.0
182,174.81524527083334,175.04412456875,62.0,90.0
183,175.05100077083333,175.44883817708333,64.0,92.0
184,175.52251177083332,175.92820769375,69.0,88.0
185,175.99402277083334,177.21503979791666,66.0,88.0
186,177.88006677083334,178.29022302083334,64.0,88.0
187,178.34881677083334,178.68084802083334,66.0,86.0
188,178.81756677083334,179.16034020833334,64.0,92.0
189,179.28631677083334,179.65448083333334,66.0,90.0
190,179.75506677083334,180.11151208333334,64.0,88.0
191,180.22381677083334,180.60760583333334,62.0,88.0
192,180.69256677083334,181.03534020833334,59.0,87.0
193,181.16131677083334,181.54315270833334,57.0,88.0
194,181.63006677083334,183.00701989583334,62.0,87.0
195,183.03631677083334,183.39471520833334,66.0,92.0
196,183.50506677083334,183.97381677083334,64.0,92.0
197,183.97381677083334,184.32733239583334,62.0,88.0
198,184.44256677083334,184.84100427083334,59.0,90.0
199,184.91131677083334,185.31268395833334,57.0,89.0
200,185.38006677083334,187.25409020833334,62.0,87.0
201,189.12212120416666,190.462893825,66.0,88.0
202,190.98619320416668,191.76386074166666,57.0,90.0
203,191.91822920416666,192.326965825,59.0,90.0
204,192.38424720416668,192.50560605833334,57.0,88.0
205,192.61725620416667,192.79201295416667,59.0,88.0
206,192.85026520416667,194.83278344583334,62.0,87.0
