,start,end,pitch,velocity
0,33.064451062500005,33.192427125,55.0,96.0
1,33.30254606250001,33.4910379375,55.0,99.0
2,33.5406410625,33.6616726875,64.0,112.0
3,33.7787360625,33.898775625000006,64.0,100.0
4,34.0168310625,34.128934125,64.0,112.0
5,34.254926062500004,34.367029125,64.0,127.0
6,34.493021062500006,34.853139750000004,64.0,127.0
7,34.9692110625,35.31345675,62.0,122.0
8,35.445401062500004,36.168614625000004,57.0,117.0
9,36.873971062500004,36.997978875,57.0,107.0
10,37.112066062500006,37.2053199375,60.0,112.0
11,37.35016106250001,37.434486375000006,62.0,107.0
12,37.5882560625,37.66861312500001,62.0,100.0
13,37.8263510625,37.899763687500005,62.0,95.0
14,38.064446062500004,38.143811062500006,62.0,96.0
15,38.302541062500005,38.656707375,62.0,112.0
16,38.77873106250001,38.9850800625,60.0,127.0
17,39.0168260625,39.144802125000005,57.0,100.0
18,39.2549210625,40.398769125,55.0,122.0
19,41.159681062500006,41.2777365,57.0,127.0
20,41.39777606250001,41.681505937500006,57.0,99.0
21,41.8739660625,42.0108706875,55.0,99.0
22,42.112061062500004,42.37297350000001,57.0,102.0
23,42.58825106250001,42.7539255,57.0,127.0
24,42.82634606250001,42.946385625000005,55.0,96.0
25,43.0644410625,43.2459885,55.0,102.0
26,43.3025360625,43.60809131250001,69.0,112.0
27,43.778726062500006,43.931503687500005,67.0,112.0
28,44.01682106250001,44.251939875000005,64.0,122.0
29,44.4930110625,44.600153812500004,57.0,122.0
30,44.731106062500004,44.835272625,60.0,107.0
31,44.969201062500005,45.220192875,62.0,127.0
32,45.44539106250001,45.6894384375,62.0,122.0
33,45.9215810625,46.015827,62.0,117.0
34,46.159676062500004,46.450350375000006,60.0,107.0
35,46.63586606250001,46.8441991875,64.0,117.0
36,46.87396106250001,47.09519100000001,62.0,127.0
37,48.3025310625,48.430507125000005,55.0,96.0
38,48.5406260625,48.72911793750001,55.0,99.0
39,48.778721062500004,48.899752687500005,64.0,112.0
40,49.016816062500006,49.136855625,64.0,100.0
41,49.25491106250001,49.367014125000004,64.0,112.0
42,49.49300606250001,49.605109125000006,64.0,127.0
43,49.7311010625,50.09121975000001,64.0,127.0
44,50.207291062500005,50.41364006250001,62.0,122.0
45,50.445386062500006,50.672568375000004,60.0,127.0
46,50.68348106250001,51.40669462500001,57.0,117.0
47,52.11205106250001,52.236058875000005,57.0,107.0
48,52.3501460625,52.443399937500004,60.0,112.0
49,52.5882410625,52.672566375,62.0,107.0
50,52.826336062500005,52.906693125000004,62.0,100.0
51,53.064431062500006,53.13784368750001,62.0,95.0
52,53.30252606250001,53.3818910625,62.0,96.0
53,53.54062106250001,53.89478737500001,62.0,112.0
54,54.016811062500004,54.22316006250001,60.0,127.0
55,54.254906062500005,54.38288212500001,57.0,100.0
56,54.49300106250001,55.636849125000005,55.0,122.0
57,56.3977610625,56.51581650000001,57.0,127.0
58,56.635856062500004,56.9195859375,57.0,99.0
59,57.112046062500006,57.248950687500006,55.0,99.0
60,57.35014106250001,57.611053500000004,57.0,102.0
61,57.8263310625,57.992005500000005,57.0,127.0
62,58.064426062500004,58.18446562500001,55.0,96.0
63,58.302521062500006,58.48406850000001,55.0,102.0
64,58.54061606250001,58.846171312500005,69.0,112.0
65,59.01680606250001,59.16958368750001,67.0,112.0
66,59.254901062500004,59.49001987500001,64.0,122.0
67,59.731091062500006,59.83823381250001,57.0,122.0
68,59.96918606250001,60.073352625000005,60.0,107.0
69,60.20728106250001,60.458272875000006,62.0,127.0
70,60.564423562500004,60.63882825,62.0,107.0
71,60.683471062500004,60.784661437500006,62.0,107.0
72,60.921566062500006,61.03763737500001,64.0,117.0
73,61.15966106250001,61.324343437500005,62.0,112.0
74,61.39775606250001,61.64378756250001,60.0,107.0
75,61.8739460625,62.061445875000004,69.0,112.0
76,62.112041062500005,63.77473781250001,67.0,127.0
77,65.4453710625,65.62493437500001,64.0,112.0
78,65.6834660625,65.8640214375,67.0,127.0
79,65.9215610625,66.220171875,72.0,122.0
80,66.3977510625,66.69636187500001,71.0,127.0
81,66.87394106250001,67.11699637500001,69.0,127.0
82,67.35013106250001,67.43445637500001,67.0,127.0
83,67.58822606250001,69.04358175,69.0,122.0
84,69.25489106250001,69.40469250000001,69.0,117.0
85,69.49298606250001,69.601120875,64.0,89.0
86,69.73108106250001,70.0763188125,67.0,112.0
87,70.20727106250001,70.53663581250001,69.0,127.0
88,70.6834610625,70.950325875,69.0,122.0
89,71.1596510625,71.37592068750001,67.0,117.0
90,71.3977460625,72.41957043750001,64.0,97.0
91,73.06441106250001,73.20528393750001,57.0,102.0
92,73.3025060625,73.43742656250001,60.0,102.0
93,73.5406010625,73.86103725000001,62.0,127.0
94,74.0167910625,74.366989125,64.0,127.0
95,74.49298106250001,74.72611575,62.0,127.0
96,74.96917106250001,75.15468675000001,60.0,122.0
97,75.20726606250001,76.285638,57.0,112.0
98,76.8739310625,77.02075631250001,57.0,112.0
99,77.11202606250001,77.2925814375,60.0,112.0
100,77.35012106250001,77.81837456250001,62.0,117.0
101,77.82631106250001,78.05646956250001,62.0,127.0
102,78.06440606250001,78.21718368750001,60.0,102.0
103,78.30250106250001,78.60508012500001,60.0,112.0
104,78.54059606250001,79.20230175,69.0,127.0
105,79.2548810625,80.43345131250001,67.0,122.0
106,80.68345106250001,80.863014375,64.0,112.0
107,80.92154606250001,81.10210143750001,67.0,127.0
108,81.15964106250001,81.458251875,72.0,122.0
109,81.6358310625,81.934441875,71.0,127.0
110,82.1120210625,82.35507637500001,69.0,127.0
111,82.58821106250001,82.672536375,67.0,127.0
112,82.82630606250001,84.28166175000001,69.0,122.0
113,84.4929710625,84.6427725,69.0,117.0
114,84.7310660625,84.839200875,64.0,89.0
115,84.9691610625,85.3143988125,67.0,112.0
116,85.44535106250001,85.7747158125,69.0,127.0
117,85.92154106250001,86.18840587500002,69.0,122.0
118,86.39773106250001,86.61400068750001,67.0,117.0
119,86.63582606250002,87.65765043750001,64.0,97.0
120,88.30249106250001,88.44336393750001,57.0,102.0
121,88.54058606250001,88.6755065625,60.0,102.0
122,88.77868106250001,89.09911725,62.0,127.0
123,89.25487106250002,89.51280731250002,62.0,112.0
124,89.7310610625,89.81836256250001,62.0,122.0
125,89.9691560625,90.2469335625,62.0,107.0
126,90.44534606250001,90.62490937500002,64.0,117.0
127,90.68344106250001,91.72709081250001,62.0,127.0
128,92.11201106250002,92.23403475,57.0,102.0
129,92.3501060625,92.47709006250001,60.0,122.0
130,92.5882010625,92.914589625,62.0,117.0
131,93.06439106250001,93.36002568750001,64.0,99.0
132,93.54058106250001,93.79454906250001,55.0,117.0
133,93.77867606250001,94.43145318750001,57.0,99.0
134,94.49296106250002,96.62291925000001,60.0,117.0
135,126.39769106250002,126.52566712500001,55.0,96.0
136,126.63578606250002,126.82427793750001,55.0,99.0
137,126.87388106250002,126.99491268750002,64.0,112.0
138,127.11197606250002,127.23201562500002,64.0,100.0
139,127.3500710625,127.46217412500002,64.0,112.0
140,127.58816606250001,127.70026912500002,64.0,127.0
141,127.82626106250001,128.18637975000001,64.0,127.0
142,128.3024510625,128.64669675000002,62.0,122.0
143,128.77864106250001,129.50185462500002,57.0,117.0
144,130.20721106250002,130.33121887500002,57.0,107.0
145,130.4453060625,130.53855993750003,60.0,112.0
146,130.68340106250002,130.76772637500002,62.0,107.0
147,130.9214960625,131.00185312500003,62.0,100.0
148,131.15959106250003,131.2330036875,62.0,95.0
149,131.39768606250001,131.4770510625,62.0,96.0
150,131.6357810625,131.989947375,62.0,112.0
151,132.1119710625,132.31832006250002,60.0,127.0
152,132.35006606250002,132.478042125,57.0,100.0
153,132.5881610625,133.73200912500002,55.0,122.0
154,134.49292106250002,134.61097650000002,57.0,127.0
155,134.7310160625,135.0147459375,57.0,99.0
156,135.2072060625,135.3441106875,55.0,99.0
157,135.44530106250002,135.70621350000002,57.0,102.0
158,135.92149106250002,136.08716550000003,57.0,127.0
159,136.1595860625,136.27962562500002,55.0,96.0
160,136.39768106250003,136.57922850000003,55.0,102.0
161,136.6357760625,136.9413313125,69.0,112.0
162,137.11196606250002,137.26474368750002,67.0,112.0
163,137.3500610625,137.58517987500002,64.0,122.0
164,137.8262510625,137.93339381250001,57.0,122.0
165,138.06434606250002,138.168512625,60.0,107.0
166,138.3024410625,138.55343287500003,62.0,127.0
167,138.7786310625,139.02267843750002,62.0,122.0
168,139.2548210625,139.34906700000002,62.0,117.0
169,139.4929160625,139.78359037500002,60.0,107.0
170,139.9691060625,140.17743918750003,64.0,117.0
171,140.20720106250002,140.42843100000002,62.0,127.0
172,141.63577106250003,141.763747125,55.0,96.0
173,141.8738660625,142.06235793750002,55.0,99.0
174,142.11196106250003,142.2329926875,64.0,112.0
175,142.35005606250002,142.47009562500003,64.0,100.0
176,142.5881510625,142.70025412500001,64.0,112.0
177,142.82624606250002,142.938349125,64.0,127.0
178,143.0643410625,143.42445975,64.0,127.0
179,143.5405310625,143.74688006250003,62.0,122.0
180,143.77862606250002,144.00580837500002,60.0,127.0
181,144.0167210625,144.73993462500002,57.0,117.0
182,145.44529106250002,145.56929887500002,57.0,107.0
183,145.6833860625,145.77663993750002,60.0,112.0
184,145.92148106250002,146.00580637500002,62.0,107.0
185,146.1595760625,146.23993312500002,62.0,100.0
186,146.39767106250002,146.47108368750003,62.0,95.0
187,146.6357660625,146.7151310625,62.0,96.0
188,146.87386106250003,147.228027375,62.0,112.0
189,147.35005106250003,147.55640006250002,60.0,127.0
190,147.58814606250002,147.71612212500003,57.0,100.0
191,147.8262410625,148.97008912500002,55.0,122.0
192,149.7310010625,149.84905650000002,57.0,127.0
193,149.96909606250003,150.2528259375,57.0,99.0
194,150.4452860625,150.5821906875,55.0,99.0
195,150.68338106250002,150.94429350000001,57.0,102.0
196,151.15957106250002,151.32524550000002,57.0,127.0
197,151.3976660625,151.51770562500002,55.0,96.0
198,151.63576106250002,151.81730850000002,55.0,102.0
199,151.8738560625,152.1794113125,69.0,112.0
200,152.3500460625,152.5028236875,67.0,112.0
201,152.58814106250003,152.82325987500002,64.0,122.0
202,153.0643310625,153.1714738125,57.0,122.0
203,153.30242606250002,153.40659262500003,60.0,107.0
204,153.5405210625,153.79151287500002,62.0,127.0
205,153.89766356250001,153.97206825,62.0,107.0
206,154.0167110625,154.11790143750002,62.0,107.0
207,154.25480606250002,154.37087737500002,64.0,117.0
208,154.4929010625,154.65758343750002,62.0,112.0
209,154.73099606250003,154.9770275625,60.0,107.0
210,155.20718606250003,155.39468587500002,69.0,112.0
211,155.44528106250002,157.10797781250002,67.0,127.0
212,158.7786110625,158.95817437500003,64.0,112.0
213,159.01670606250002,159.1972614375,67.0,127.0
214,159.2548010625,159.55341187500002,72.0,122.0
215,159.7309910625,160.02960187500003,71.0,127.0
216,160.2071810625,160.450236375,69.0,127.0
217,160.68337106250002,160.767696375,67.0,127.0
218,160.92146606250003,162.37682175,69.0,122.0
219,162.58813106250003,162.73793250000003,69.0,117.0
220,162.8262260625,162.934360875,64.0,89.0
221,163.06432106250003,163.40955881250002,67.0,112.0
222,163.54051106250003,163.86987581250003,69.0,127.0
223,164.0167010625,164.28356587500002,69.0,122.0
224,164.4928910625,164.70916068750003,67.0,117.0
225,164.73098606250002,165.75281043750002,64.0,97.0
226,166.39765106250002,166.53852393750003,57.0,102.0
227,166.6357460625,166.77066656250003,60.0,102.0
228,166.87384106250002,167.19427725000003,62.0,127.0
229,167.35003106250002,167.70022912500002,64.0,127.0
230,167.82622106250003,168.05935575,62.0,127.0
231,168.30241106250003,168.48792675,60.0,122.0
232,168.54050606250001,169.61887800000002,57.0,112.0
233,170.2071710625,170.35399631250002,57.0,112.0
234,170.44526606250002,170.6258214375,60.0,112.0
235,170.6833610625,171.15161456250001,62.0,117.0
236,171.15955106250001,171.38970956250003,62.0,127.0
237,171.39764606250003,171.55042368750003,60.0,102.0
238,171.63574106250002,171.93832012500002,60.0,112.0
239,171.8738360625,172.53554175000002,69.0,127.0
240,172.58812106250002,173.76669131250003,67.0,122.0
241,174.01669106250003,174.19625437500002,64.0,112.0
242,174.25478606250002,174.43534143750003,67.0,127.0
243,174.49288106250003,174.79149187500002,72.0,122.0
244,174.9690710625,175.26768187500002,71.0,127.0
245,175.4452610625,175.68831637500003,69.0,127.0
246,175.9214510625,176.005776375,67.0,127.0
247,176.15954606250003,177.61490175000003,69.0,122.0
248,177.82621106250002,177.97601250000002,69.0,117.0
249,178.0643060625,178.172440875,64.0,89.0
250,178.30240106250002,178.64763881250002,67.0,112.0
251,178.77859106250003,179.10795581250002,69.0,127.0
252,179.25478106250003,179.52164587500002,69.0,122.0
253,179.73097106250003,179.94724068750003,67.0,117.0
254,179.96906606250002,180.9908904375,64.0,97.0
255,181.6357310625,181.77660393750003,57.0,102.0
256,181.87382606250003,182.00874656250002,60.0,102.0
257,182.11192106250002,182.43235725000002,62.0,127.0
258,182.58811106250002,182.84604731250002,62.0,112.0
259,183.06430106250002,183.15160256250002,62.0,122.0
260,183.3023960625,183.58017356250002,62.0,107.0
261,183.7785860625,183.95814937500003,64.0,117.0
262,184.01668106250003,185.0603308125,62.0,127.0
263,185.4452510625,185.56727475000002,57.0,102.0
264,185.68334606250002,185.81033006250001,60.0,122.0
265,185.9214410625,186.247829625,62.0,117.0
266,186.3976310625,186.69326568750003,64.0,99.0
267,186.8738210625,187.12778906250003,55.0,117.0
268,187.11191606250003,187.76469318750003,57.0,99.0
269,187.82620106250002,189.25477106250003,60.0,117.0
270,189.25477106250003,189.43433437500002,64.0,112.0
271,189.4928660625,189.67342143750002,67.0,127.0
272,189.73096106250003,190.02957187500002,72.0,122.0
273,190.20715106250003,190.50576187500002,71.0,127.0
274,190.68334106250003,190.92639637500002,69.0,127.0
275,191.1595310625,191.243856375,67.0,127.0
276,191.39762606250002,192.85298175000003,69.0,122.0
277,193.06429106250002,193.21409250000002,69.0,117.0
278,193.30238606250003,193.41052087500003,64.0,89.0
279,193.54048106250002,193.88571881250002,67.0,112.0
280,194.01667106250002,194.34603581250002,69.0,127.0
281,194.49286106250003,194.75972587500002,69.0,122.0
282,194.96905106250003,195.18532068750002,67.0,117.0
283,195.20714606250002,196.2289704375,64.0,97.0
284,196.8738110625,197.01468393750002,57.0,102.0
285,197.11190606250003,197.24682656250002,60.0,102.0
286,197.3500010625,197.67043725000002,62.0,127.0
287,197.82619106250002,198.17638912500001,64.0,127.0
288,198.30238106250002,198.53551575000003,62.0,127.0
289,198.77857106250002,198.96408675000004,60.0,122.0
290,199.0166660625,200.09503800000002,57.0,112.0
291,200.68333106250003,200.8301563125,57.0,112.0
292,200.92142606250002,201.10198143750003,60.0,112.0
293,201.15952106250003,201.6277745625,62.0,117.0
294,201.6357110625,201.86586956250002,62.0,127.0
295,201.87380606250002,202.02658368750002,60.0,102.0
296,202.1119010625,202.414480125,60.0,112.0
297,202.34999606250003,203.01170175000001,69.0,127.0
298,203.06428106250002,204.24285131250002,67.0,122.0
299,204.49285106250002,204.67241437500002,64.0,112.0
300,204.7309460625,204.91150143750002,67.0,127.0
301,204.96904106250003,205.267651875,72.0,122.0
302,205.44523106250003,205.74384187500002,71.0,127.0
303,205.92142106250003,206.16447637500002,69.0,127.0
304,206.39761106250003,206.48193637500003,67.0,127.0
305,206.63570606250002,208.09106175000002,69.0,122.0
306,208.30237106250001,208.45217250000002,69.0,117.0
307,208.54046606250003,208.64860087500003,64.0,89.0
308,208.77856106250002,209.1237988125,67.0,112.0
309,209.25475106250002,209.58411581250002,69.0,127.0
310,209.73094106250002,209.997805875,69.0,122.0
311,210.20713106250003,210.42340068750002,67.0,117.0
312,210.4452260625,211.46705043750003,64.0,97.0
313,212.11189106250004,212.25276393750002,57.0,102.0
314,212.34998606250002,212.48490656250002,60.0,102.0
315,212.5880810625,212.90851725000002,62.0,127.0
316,213.0642710625,213.3222073125,62.0,112.0
317,213.54046106250001,213.6277625625,62.0,122.0
318,213.77855606250003,214.05633356250001,62.0,107.0
319,214.25474606250003,214.43430937500003,64.0,117.0
320,214.49284106250002,215.53649081250003,62.0,127.0
321,215.92141106250003,216.04343475000002,57.0,102.0
322,216.15950606250001,216.28649006250004,60.0,122.0
323,216.39760106250003,216.72398962500003,62.0,117.0
324,216.87379106250003,217.16942568750002,64.0,99.0
325,217.34998106250004,217.60394906250002,55.0,117.0
326,217.58807606250002,218.24085318750002,57.0,99.0
327,218.3023610625,219.25474106250002,60.0,117.0
328,219.73093106250002,219.87180393750003,57.0,102.0
329,219.96902606250003,220.10394656250003,60.0,102.0
330,220.20712106250002,220.52755725000003,62.0,127.0
331,220.68331106250002,220.94124731250002,62.0,112.0
332,221.15950106250003,221.24680256250002,62.0,122.0
333,221.3975960625,221.67537356250003,62.0,107.0
334,221.87378606250002,222.053349375,64.0,117.0
335,222.11188106250003,223.15553081250002,62.0,127.0
336,223.5404510625,223.66247475000003,57.0,102.0
337,223.77854606250003,223.90553006250002,60.0,122.0
338,224.0166410625,224.343029625,62.0,117.0
339,224.49283106250002,224.78846568750004,64.0,99.0
340,224.96902106250002,225.22298906250003,55.0,117.0
341,225.20711606250003,225.85989318750003,57.0,99.0
342,225.92140106250002,228.05135925000002,60.0,117.0
