,start,end,pitch,velocity
0,1.1597210625,1.2281733750000001,48.0,73.0
1,1.6359110625000002,1.7162681250000003,48.0,59.0
2,2.1121010625000003,2.2033708125,48.0,75.0
3,2.5882910625,2.6666640000000004,48.0,75.0
4,3.3025760625000005,3.3343220625000005,64.0,79.0
5,3.3025760625000005,3.3442426875000004,60.0,95.0
6,3.3025760625000005,3.3482109375,67.0,85.0
7,3.0644810625000005,3.4484092500000005,48.0,96.0
8,3.4216235625,3.4999965000000004,64.0,77.0
9,3.4216235625,3.5019806250000003,60.0,69.0
10,3.4216235625,3.5188456875000003,67.0,79.0
11,3.7787660625000004,3.8234088750000006,60.0,81.0
12,3.7787660625000004,3.8283691875000003,64.0,85.0
13,3.7787660625000004,3.8343215625000004,67.0,83.0
14,3.5406710625000004,3.8888850000000006,43.0,79.0
15,4.254956062500001,4.305551250000001,60.0,92.0
16,4.254956062500001,4.305551250000001,64.0,79.0
17,4.254956062500001,4.3065433125000006,55.0,89.0
18,4.3740035625,4.460313,64.0,61.0
19,4.3740035625,4.4613050625,60.0,64.0
20,4.3740035625,4.462297125,55.0,63.0
21,4.0168610625,4.5049558125,48.0,59.0
22,4.731146062500001,4.7807491875000006,55.0,89.0
23,4.731146062500001,4.78967775,60.0,97.0
24,4.731146062500001,4.792653937500001,64.0,88.0
25,4.4930510625,4.808526937500001,43.0,77.0
26,5.2073360625000005,5.25793125,64.0,79.0
27,5.2073360625000005,5.2618995,60.0,86.0
28,5.2073360625000005,5.270828062500001,57.0,76.0
29,4.969241062500001,5.2906693125,45.0,86.0
30,5.3263835625,5.433526312500001,60.0,68.0
31,5.3263835625,5.4365025000000005,57.0,58.0
32,5.3263835625,5.4374945625,64.0,66.0
33,5.6835260625,5.73412125,60.0,92.0
34,5.6835260625,5.737097437500001,64.0,83.0
35,5.6835260625,5.738089500000001,57.0,88.0
36,5.445431062500001,5.805549750000001,40.0,78.0
37,6.1597160625,6.201382687500001,56.0,66.0
38,6.1597160625,6.217255687500001,52.0,86.0
39,6.1597160625,6.219239812500001,57.0,76.0
40,6.1597160625,6.2232080625,60.0,86.0
41,6.278763562500001,6.3561444375,52.0,41.0
42,5.921621062500001,6.378961875000001,45.0,81.0
43,6.278763562500001,6.3888825,57.0,52.0
44,6.278763562500001,6.397811062500001,60.0,61.0
45,6.635906062500001,6.675588562500001,52.0,86.0
46,6.397811062500001,6.6815409375,40.0,72.0
47,6.635906062500001,6.693445687500001,57.0,100.0
48,6.635906062500001,6.702374250000001,60.0,92.0
49,7.112096062500001,7.160707125000001,55.0,78.0
50,7.112096062500001,7.162691250000001,60.0,92.0
51,7.112096062500001,7.163683312500001,64.0,79.0
52,7.231143562500001,7.322413312500001,55.0,56.0
53,7.231143562500001,7.327373625000001,60.0,66.0
54,7.231143562500001,7.327373625000001,64.0,66.0
55,6.8740010625000005,7.335310125,48.0,76.0
56,7.588286062500001,7.635905062500001,55.0,79.0
57,7.588286062500001,7.641857437500001,60.0,93.0
58,7.588286062500001,7.645825687500001,64.0,78.0
59,7.3501910625,7.707333562500001,43.0,62.0
60,8.0644760625,8.116063312500001,55.0,73.0
61,8.0644760625,8.116063312500001,64.0,73.0
62,8.0644760625,8.117055375000001,60.0,85.0
63,8.183523562500001,8.27380125,55.0,49.0
64,8.183523562500001,8.280745687500001,60.0,60.0
65,8.183523562500001,8.280745687500001,64.0,62.0
66,7.826381062500001,8.309515500000002,48.0,59.0
67,8.540666062500001,8.5942374375,55.0,88.0
68,8.540666062500001,8.605150125000002,60.0,95.0
69,8.540666062500001,8.605150125000002,64.0,85.0
70,8.3025710625,8.692451625,43.0,55.0
71,9.0168560625,9.074395687500001,52.0,63.0
72,9.0168560625,9.081340125,60.0,77.0
73,9.0168560625,9.0823321875,57.0,85.0
74,9.135903562500001,9.212292375,52.0,55.0
75,9.135903562500001,9.223205062500002,57.0,69.0
76,9.135903562500001,9.227173312500002,60.0,66.0
77,8.778761062500001,9.260903437500001,45.0,72.0
78,9.493046062500001,9.550585687500002,52.0,81.0
79,9.493046062500001,9.558522187500001,57.0,95.0
80,9.493046062500001,9.569434875,60.0,89.0
81,9.254951062500002,9.6745935,40.0,66.0
82,9.9692360625,10.009910625000002,52.0,76.0
83,9.9692360625,10.018839187500001,57.0,90.0
84,9.9692360625,10.02776775,60.0,83.0
85,9.7311410625,10.235108812500002,45.0,71.0
86,10.207331062500002,10.298600812500002,52.0,49.0
87,10.207331062500002,10.303561125000002,57.0,65.0
88,10.207331062500002,10.312489687500001,60.0,64.0
89,10.445426062500001,10.494037125000002,52.0,76.0
90,10.207331062500002,10.502965687500001,40.0,68.0
91,10.445426062500001,10.507926000000001,57.0,93.0
92,10.445426062500001,10.508918062500001,60.0,86.0
93,10.921616062500002,10.9751874375,65.0,79.0
94,10.921616062500002,10.982131875,62.0,95.0
95,10.921616062500002,11.001973125000001,57.0,90.0
96,11.0406635625,11.123996812500001,57.0,65.0
97,11.0406635625,11.124988875000001,65.0,56.0
98,11.0406635625,11.129949187500001,62.0,66.0
99,10.6835210625,11.159711062500001,50.0,66.0
100,11.3978060625,11.450385375000002,57.0,89.0
101,11.3978060625,11.453361562500001,62.0,93.0
102,11.3978060625,11.456337750000001,65.0,77.0
103,11.159711062500001,11.5942344375,45.0,71.0
104,11.873996062500002,11.9216150625,62.0,92.0
105,11.873996062500002,11.9275674375,65.0,81.0
106,11.873996062500002,11.929551562500002,57.0,89.0
107,11.9930435625,12.081337125000001,57.0,50.0
108,11.9930435625,12.0882815625,65.0,62.0
109,11.9930435625,12.0922498125,62.0,63.0
110,11.635901062500002,12.144829125000001,50.0,58.0
111,12.3501860625,12.402765375000001,62.0,99.0
112,12.112091062500001,12.405741562500001,45.0,85.0
113,12.3501860625,12.409709812500001,65.0,89.0
114,12.3501860625,12.418638375,57.0,92.0
115,12.826376062500001,13.058518687500001,52.0,68.0
116,12.826376062500001,13.059510750000001,60.0,82.0
117,12.826376062500001,13.063479000000001,57.0,82.0
118,12.588281062500002,13.0714155,45.0,96.0
119,13.302566062500002,13.355145375000001,52.0,77.0
120,13.302566062500002,13.359113625,57.0,92.0
121,13.302566062500002,13.365066,60.0,83.0
122,13.064471062500001,13.451375437500001,40.0,72.0
123,13.778756062500001,13.825383000000002,57.0,81.0
124,13.778756062500001,13.833319500000002,52.0,68.0
125,13.778756062500001,13.834311562500002,60.0,78.0
126,13.897803562500002,13.998001875000002,57.0,65.0
127,13.897803562500002,14.000978062500002,60.0,63.0
128,13.897803562500002,14.002962187500001,52.0,55.0
129,13.540661062500002,14.0505811875,45.0,68.0
130,14.254946062500002,14.307525375,52.0,85.0
131,14.254946062500002,14.313477750000002,57.0,93.0
132,14.0168510625,14.316453937500002,40.0,75.0
133,14.254946062500002,14.322406312500002,60.0,88.0
134,14.731136062500001,14.777763000000002,65.0,75.0
135,14.731136062500001,14.787683625000001,62.0,90.0
136,14.731136062500001,14.794628062500001,57.0,81.0
137,14.850183562500002,14.937485062500002,65.0,60.0
138,14.850183562500002,14.939469187500002,57.0,56.0
139,14.850183562500002,14.941453312500002,62.0,64.0
140,14.493041062500001,14.994032625000001,50.0,74.0
141,15.207326062500002,15.261889500000002,57.0,83.0
142,15.207326062500002,15.265857750000002,65.0,83.0
143,15.207326062500002,15.266849812500002,62.0,93.0
144,14.969231062500002,15.396810000000002,45.0,69.0
145,15.683516062500003,15.730143000000002,62.0,86.0
146,15.683516062500003,15.742047750000001,57.0,77.0
147,15.683516062500003,15.743039812500001,65.0,78.0
148,15.802563562500001,15.904746000000001,57.0,46.0
149,15.802563562500001,15.917642812500002,65.0,55.0
150,15.802563562500001,15.918634875000002,62.0,59.0
151,15.445421062500001,15.957325312500002,50.0,66.0
152,15.921611062500002,16.2142695,45.0,68.0
153,16.159706062500003,16.233118687500003,62.0,95.0
154,16.159706062500003,16.237086937500003,65.0,82.0
155,16.159706062500003,16.246015500000002,57.0,86.0
156,16.635896062500002,16.700380125000002,55.0,82.0
157,16.635896062500002,16.710300750000002,59.0,81.0
158,16.635896062500002,16.714269,50.0,72.0
159,16.754943562500003,16.841253000000002,50.0,55.0
160,16.754943562500003,16.85315775,55.0,68.0
161,16.754943562500003,16.871014875,59.0,67.0
162,16.3978010625,16.885895812500003,43.0,89.0
163,17.1120860625,17.144824125000003,55.0,69.0
164,17.1120860625,17.164665375000002,59.0,92.0
165,17.1120860625,17.165657437500002,62.0,89.0
166,16.8739910625,17.277760500000003,38.0,72.0
167,17.5882760625,17.648791875,59.0,88.0
168,17.5882760625,17.650776,55.0,78.0
169,17.5882760625,17.656728375,62.0,79.0
170,17.7073235625,17.806529812500003,55.0,48.0
171,17.7073235625,17.806529812500003,62.0,62.0
172,17.7073235625,17.810498062500002,59.0,61.0
173,17.350181062500003,17.818434562500002,43.0,72.0
174,17.8263710625,18.082323187500002,38.0,85.0
175,18.064466062500003,18.115061250000004,55.0,85.0
176,18.064466062500003,18.115061250000004,59.0,95.0
177,18.064466062500003,18.122997750000003,62.0,82.0
178,18.540656062500002,18.593235375000003,55.0,77.0
179,18.540656062500002,18.602163937500002,64.0,77.0
180,18.540656062500002,18.6081163125,60.0,92.0
181,18.659703562500003,18.746013,55.0,62.0
182,18.659703562500003,18.755933625,64.0,68.0
183,18.659703562500003,18.7608939375,60.0,68.0
184,18.3025610625,18.798592312500002,48.0,88.0
185,19.0168460625,19.06744125,55.0,81.0
186,19.0168460625,19.073393625,64.0,88.0
187,19.0168460625,19.079346,60.0,95.0
188,18.778751062500003,19.164663375000003,43.0,69.0
189,19.493036062500003,19.558512187500003,55.0,83.0
190,19.493036062500003,19.562480437500003,60.0,95.0
191,19.493036062500003,19.569424875000003,64.0,85.0
192,19.6120835625,19.712281875000002,55.0,45.0
193,19.6120835625,19.714266000000002,60.0,51.0
194,19.6120835625,19.72617075,64.0,50.0
195,19.254941062500002,19.7380755,48.0,59.0
196,19.969226062500002,20.025773625000003,55.0,85.0
197,19.969226062500002,20.031726000000003,64.0,86.0
198,19.969226062500002,20.032718062500003,60.0,92.0
199,19.7311310625,20.1279560625,43.0,62.0
200,20.4454160625,20.498987437500002,60.0,95.0
201,20.4454160625,20.503947750000002,64.0,92.0
202,20.4454160625,20.505931875,57.0,92.0
203,20.207321062500004,20.523789,45.0,60.0
204,20.564463562500002,20.644820625,64.0,52.0
205,20.564463562500002,20.650773,57.0,45.0
206,20.564463562500002,20.663669812500004,60.0,55.0
207,20.921606062500004,20.9811298125,60.0,90.0
208,20.921606062500004,20.9850980625,64.0,82.0
209,20.921606062500004,20.989066312500004,57.0,88.0
210,20.683511062500003,21.061486875000003,40.0,81.0
211,21.397796062500003,21.450375375000004,60.0,93.0
212,21.397796062500003,21.453351562500004,57.0,81.0
213,21.397796062500003,21.459303937500003,64.0,82.0
214,21.516843562500004,21.596208562500003,57.0,49.0
215,21.516843562500004,21.598192687500003,60.0,55.0
216,21.516843562500004,21.611089500000002,64.0,62.0
217,21.1597010625,21.661684687500003,45.0,72.0
218,21.873986062500002,21.937478062500002,64.0,77.0
219,21.873986062500002,21.939462187500002,57.0,85.0
220,21.873986062500002,21.940454250000002,60.0,93.0
221,21.6358910625,21.983112937500003,40.0,76.0
222,22.3501760625,22.394818875000002,60.0,95.0
223,22.3501760625,22.396803000000002,64.0,73.0
224,22.3501760625,22.4037474375,55.0,81.0
225,22.112081062500003,22.560493312500004,48.0,70.0
226,22.588271062500002,22.67061225,55.0,54.0
227,22.588271062500002,22.6815249375,64.0,63.0
228,22.588271062500002,22.682517,60.0,69.0
229,22.826366062500004,22.871008875,55.0,73.0
230,22.826366062500004,22.874977125,60.0,90.0
231,22.826366062500004,22.885889812500004,64.0,81.0
232,22.826366062500004,23.128945125,43.0,52.0
233,23.302556062500003,23.339262375000004,55.0,68.0
234,23.302556062500003,23.340254437500004,60.0,79.0
235,23.302556062500003,23.353151250000003,64.0,75.0
236,23.0644610625,23.499976500000002,48.0,74.0
237,23.421603562500003,23.5148574375,55.0,59.0
238,23.421603562500003,23.5148574375,60.0,63.0
239,23.421603562500003,23.52775425,64.0,66.0
240,23.7787460625,23.817436500000003,55.0,65.0
241,23.7787460625,23.829341250000002,60.0,88.0
242,23.7787460625,23.830333312500002,64.0,71.0
243,23.540651062500004,23.836285687500002,43.0,63.0
244,24.254936062500004,24.315451875,52.0,73.0
245,24.254936062500004,24.315451875,57.0,92.0
246,24.254936062500004,24.320412187500004,60.0,82.0
247,24.3739835625,24.474181875000003,52.0,53.0
248,24.3739835625,24.486086625000002,57.0,66.0
249,24.3739835625,24.494023125000002,60.0,58.0
250,24.016841062500003,24.530729437500003,45.0,92.0
251,24.731126062500003,24.785689500000004,57.0,93.0
252,24.731126062500003,24.791641875000003,52.0,79.0
253,24.731126062500003,24.802554562500003,60.0,89.0
254,24.493031062500002,24.916641750000004,40.0,70.0
255,25.207316062500002,25.264855687500003,57.0,92.0
256,25.207316062500002,25.270808062500002,52.0,74.0
257,25.207316062500002,25.272792187500002,60.0,90.0
258,25.326363562500003,25.418625375,57.0,58.0
259,25.326363562500003,25.426561875000004,52.0,46.0
260,25.326363562500003,25.436482500000004,60.0,64.0
261,24.969221062500004,25.476165,45.0,67.0
262,25.6835060625,25.724180625000002,52.0,82.0
263,25.445411062500003,25.732117125000002,40.0,73.0
264,25.6835060625,25.756918687500004,57.0,96.0
265,25.6835060625,25.756918687500004,60.0,90.0
266,26.159696062500004,26.2073150625,65.0,66.0
267,26.159696062500004,26.218227750000004,62.0,79.0
268,26.159696062500004,26.220211875000004,57.0,76.0
269,26.278743562500004,26.376957750000003,65.0,66.0
270,26.278743562500004,26.381918062500002,57.0,67.0
271,26.278743562500004,26.385886312500002,62.0,69.0
272,25.921601062500002,26.388862500000002,50.0,73.0
273,26.635886062500003,26.710290750000002,57.0,85.0
274,26.635886062500003,26.710290750000002,65.0,83.0
275,26.635886062500003,26.717235187500002,62.0,92.0
276,26.3977910625,26.808504937500004,45.0,62.0
277,27.1120760625,27.168623625000002,57.0,86.0
278,27.1120760625,27.171599812500002,62.0,97.0
279,27.1120760625,27.172591875000002,65.0,85.0
280,27.231123562500002,27.328345687500004,57.0,51.0
281,27.231123562500002,27.346202812500003,62.0,59.0
282,27.231123562500002,27.346202812500003,65.0,56.0
283,26.873981062500004,27.388861500000004,50.0,35.0
284,27.588266062500004,27.647789812500005,65.0,81.0
285,27.350171062500003,27.653742187500004,45.0,71.0
286,27.588266062500004,27.654734250000004,57.0,78.0
287,27.588266062500004,27.669615187500003,62.0,90.0
288,28.064456062500003,28.111083000000004,65.0,78.0
289,28.064456062500003,28.121003625000004,57.0,86.0
290,28.064456062500003,28.121995687500004,62.0,92.0
291,27.826361062500002,28.196400375000003,50.0,89.0
292,28.183503562500004,28.298582812500005,57.0,58.0
293,28.183503562500004,28.308503437500004,62.0,70.0
294,28.183503562500004,28.311479625000004,65.0,70.0
295,28.540646062500002,28.610090437500002,57.0,86.0
296,28.540646062500002,28.611082500000002,65.0,85.0
297,28.540646062500002,28.614058687500002,62.0,92.0
298,28.302551062500005,28.678542750000002,45.0,78.0
299,29.016836062500005,29.069415375000002,57.0,83.0
300,29.016836062500005,29.0743756875,65.0,79.0
301,29.016836062500005,29.07536775,62.0,90.0
302,28.778741062500004,29.233105687500004,50.0,62.0
303,29.135883562500002,29.237073937500003,57.0,59.0
304,29.135883562500002,29.247986625000003,65.0,67.0
305,29.135883562500002,29.250962812500003,62.0,69.0
306,29.493026062500004,29.558502187500004,57.0,89.0
307,29.493026062500004,29.572391062500003,62.0,96.0
308,29.493026062500004,29.580327562500003,65.0,89.0
309,29.254931062500003,29.585287875000002,45.0,62.0
310,29.969216062500003,30.204334875000004,55.0,86.0
311,29.969216062500003,30.213263437500004,59.0,77.0
312,29.7311210625,30.219215812500003,43.0,90.0
313,30.445406062500002,30.494017125000003,55.0,92.0
314,30.445406062500002,30.501953625000002,59.0,99.0
315,30.445406062500002,30.501953625000002,62.0,92.0
316,30.207311062500004,30.593223375000004,38.0,67.0
317,30.921596062500004,30.965246812500002,59.0,95.0
318,30.921596062500004,30.9731833125,62.0,85.0
319,30.921596062500004,30.980127750000005,55.0,89.0
320,31.040643562500005,31.130921250000004,55.0,43.0
321,31.040643562500005,31.150762500000003,59.0,66.0
322,31.040643562500005,31.150762500000003,62.0,68.0
323,30.683501062500003,31.176556125000005,43.0,62.0
324,31.159691062500002,31.440444750000005,38.0,66.0
325,31.397786062500003,31.458301875000004,55.0,86.0
326,31.397786062500003,31.464254250000003,59.0,95.0
327,31.397786062500003,31.468222500000003,62.0,81.0
328,31.635881062500005,31.724174625000003,55.0,73.0
329,31.635881062500005,31.738063500000003,60.0,81.0
330,31.635881062500005,31.743023812500002,64.0,77.0
331,31.635881062500005,31.762865062500005,48.0,83.0
332,31.873976062500002,31.968222000000004,60.0,76.0
333,31.873976062500002,31.972190250000004,64.0,69.0
334,31.873976062500002,31.978142625000004,55.0,69.0
335,31.873976062500002,31.988063250000003,48.0,79.0
336,32.1120710625,32.2033408125,55.0,76.0
337,32.1120710625,32.210285250000005,60.0,81.0
338,32.1120710625,32.2152455625,64.0,74.0
339,32.1120710625,32.2251661875,48.0,74.0
340,32.3501660625,32.438459625,60.0,85.0
341,32.3501660625,32.44441200000001,64.0,77.0
342,32.3501660625,32.4454040625,55.0,81.0
343,32.3501660625,32.4632611875,48.0,88.0
344,32.5882610625,32.767824375000004,60.0,90.0
345,32.5882610625,32.77080056250001,55.0,82.0
346,32.5882610625,32.771792625,64.0,88.0
347,32.5882610625,32.800562437500005,48.0,93.0
348,33.7787360625,33.859093125,64.0,63.0
349,33.7787360625,33.860085187500005,60.0,67.0
350,33.7787360625,33.864053437500004,55.0,64.0
351,33.5406410625,33.872982,48.0,62.0
352,34.254926062500004,34.3184180625,55.0,71.0
353,34.254926062500004,34.329330750000004,60.0,79.0
354,34.254926062500004,34.3303228125,64.0,73.0
355,34.0168310625,34.352148187500006,43.0,67.0
356,34.73111606250001,34.8045286875,55.0,73.0
357,34.73111606250001,34.80552075000001,60.0,73.0
358,34.73111606250001,34.8144493125,64.0,72.0
359,34.493021062500006,35.006909437500006,48.0,62.0
360,35.2073060625,35.270798062500006,64.0,74.0
361,35.2073060625,35.272782187500006,60.0,85.0
362,34.9692110625,35.3580995625,43.0,65.0
363,35.683496062500005,35.744011875000005,64.0,78.0
364,35.683496062500005,35.7549245625,60.0,86.0
365,35.683496062500005,35.761869000000004,57.0,72.0
366,35.445401062500004,35.8898450625,45.0,72.0
367,36.1596860625,36.2410351875,52.0,63.0
368,36.1596860625,36.24202725000001,57.0,85.0
369,36.1596860625,36.2430193125,60.0,81.0
370,35.921591062500006,36.34520175,40.0,64.0
371,36.6358760625,36.69143156250001,52.0,64.0
372,36.6358760625,36.707304562500006,57.0,82.0
373,36.6358760625,36.714249,60.0,78.0
374,36.3977810625,36.8977805625,45.0,50.0
375,36.873971062500004,36.902740875000006,60.0,39.0
376,36.873971062500004,36.910677375000006,57.0,53.0
377,37.112066062500006,37.15472475000001,52.0,67.0
378,37.112066062500006,37.1755580625,57.0,83.0
379,37.112066062500006,37.184486625000005,60.0,82.0
380,36.873971062500004,37.231113562500006,40.0,72.0
381,37.5882560625,37.65472425,62.0,89.0
382,37.5882560625,37.657700437500004,65.0,79.0
383,37.5882560625,37.659684562500004,57.0,79.0
384,37.35016106250001,37.802541562500004,50.0,73.0
385,38.064446062500004,38.12793806250001,57.0,79.0
386,38.064446062500004,38.128930125000004,62.0,89.0
387,38.064446062500004,38.13885075,65.0,81.0
388,37.8263510625,38.2172236875,45.0,70.0
389,38.540636062500006,38.59718362500001,62.0,85.0
390,38.540636062500006,38.6041280625,65.0,81.0
391,38.540636062500006,38.6120645625,57.0,89.0
392,38.302541062500005,38.822381812500005,50.0,59.0
393,39.0168260625,39.066429187500006,57.0,81.0
394,39.0168260625,39.068413312500006,62.0,90.0
395,38.77873106250001,39.069405375,45.0,69.0
396,39.0168260625,39.072381562500006,65.0,76.0
397,39.493016062500004,39.586269937500006,55.0,74.0
398,39.493016062500004,39.589246125,50.0,72.0
399,39.493016062500004,39.589246125,59.0,71.0
400,39.2549210625,39.70134918750001,43.0,74.0
401,39.96920606250001,40.026745687500004,50.0,73.0
402,39.96920606250001,40.043610750000006,55.0,88.0
403,39.96920606250001,40.0525393125,59.0,86.0
404,39.731111062500005,40.145793187500004,38.0,70.0
405,40.4453960625,40.50392775,50.0,69.0
406,40.4453960625,40.507896,55.0,81.0
407,40.4453960625,40.512856312500006,59.0,83.0
408,40.2073010625,40.663649812500005,43.0,56.0
409,40.921586062500005,40.9791256875,55.0,88.0
410,40.921586062500005,40.9830939375,59.0,85.0
411,40.6834910625,41.042617687500005,38.0,66.0
412,41.39777606250001,41.46821250000001,60.0,99.0
413,41.39777606250001,41.46821250000001,64.0,90.0
414,41.39777606250001,41.4791251875,57.0,90.0
415,41.159681062500006,41.628926625000005,45.0,82.0
416,41.8739660625,41.945394562500006,52.0,76.0
417,41.8739660625,41.951346937500006,60.0,78.0
418,41.8739660625,41.952339,57.0,86.0
419,41.6358710625,42.05848968750001,40.0,48.0
420,42.350156062500005,42.4235686875,52.0,73.0
421,42.350156062500005,42.424560750000005,57.0,79.0
422,42.350156062500005,42.4295210625,60.0,78.0
423,42.112061062500004,42.600155812500006,45.0,63.0
424,42.82634606250001,42.883885687500005,52.0,75.0
425,42.82634606250001,42.89479837500001,57.0,86.0
426,42.82634606250001,42.895790437500004,60.0,81.0
427,42.58825106250001,43.03963950000001,40.0,67.0
428,43.3025360625,43.374956625,60.0,76.0
429,43.3025360625,43.382893125,57.0,71.0
430,43.3025360625,43.386861375,64.0,78.0
431,43.0644410625,43.521781875,45.0,73.0
432,43.778726062500006,43.8362656875,60.0,82.0
433,43.778726062500006,43.841226000000006,64.0,79.0
434,43.778726062500006,43.8481704375,57.0,78.0
435,43.540631062500005,43.93646400000001,40.0,65.0
436,44.2549160625,44.314439812500005,60.0,85.0
437,44.2549160625,44.32138425,64.0,77.0
438,44.2549160625,44.322376312500005,57.0,75.0
439,44.01682106250001,44.4771380625,45.0,54.0
440,44.4930110625,44.79062981250001,40.0,67.0
441,44.731106062500004,44.79261393750001,60.0,89.0
442,44.731106062500004,44.80055043750001,64.0,79.0
443,44.731106062500004,44.801542500000004,57.0,83.0
444,45.207296062500006,45.2727721875,57.0,83.0
445,45.207296062500006,45.277732500000006,65.0,83.0
446,45.207296062500006,45.2807086875,62.0,90.0
447,44.969201062500005,45.3570975,50.0,89.0
448,45.6834860625,45.750946312500005,65.0,75.0
449,45.6834860625,45.752930437500005,57.0,79.0
450,45.6834860625,45.762851062500005,62.0,86.0
451,45.44539106250001,45.84816843750001,45.0,72.0
452,46.159676062500004,46.22118393750001,57.0,89.0
453,46.159676062500004,46.22515218750001,65.0,88.0
454,46.159676062500004,46.236064875000004,62.0,99.0
455,45.9215810625,46.4473741875,50.0,66.0
456,46.397771062500006,46.663643812500005,45.0,65.0
457,46.63586606250001,46.672572375,65.0,68.0
458,46.63586606250001,46.714239000000006,57.0,85.0
459,46.63586606250001,46.7152310625,62.0,96.0
460,46.87396106250001,46.923564187500006,59.0,96.0
461,46.87396106250001,46.925548312500005,62.0,90.0
462,46.87396106250001,46.929516562500005,55.0,97.0
463,47.1120560625,47.156698875000004,59.0,89.0
464,47.1120560625,47.15769093750001,62.0,74.0
465,47.1120560625,47.160667125,55.0,82.0
466,46.87396106250001,47.191421062500005,43.0,100.0
467,47.2311035625,47.29062731250001,55.0,70.0
468,47.2311035625,47.29261143750001,59.0,83.0
469,47.2311035625,47.29459556250001,62.0,82.0
470,47.350151062500004,47.42455575,59.0,75.0
471,47.350151062500004,47.430508125,55.0,68.0
472,47.350151062500004,47.434476375,62.0,66.0
473,47.588246062500005,47.630904750000006,55.0,93.0
474,47.588246062500005,47.6338809375,59.0,99.0
475,47.588246062500005,47.638841250000006,62.0,96.0
476,47.350151062500004,47.715230062500005,38.0,95.0
477,47.826341062500006,47.88288862500001,59.0,97.0
478,47.826341062500006,47.8838806875,62.0,90.0
479,47.826341062500006,47.88487275000001,55.0,92.0
480,47.826341062500006,48.307491375000005,43.0,89.0
481,48.3025310625,48.708284625000005,38.0,74.0
482,49.016816062500006,49.097173125000005,64.0,63.0
483,49.016816062500006,49.09816518750001,60.0,67.0
484,49.016816062500006,49.10213343750001,55.0,64.0
485,48.778721062500004,49.111062000000004,48.0,62.0
486,49.49300606250001,49.556498062500005,55.0,71.0
487,49.49300606250001,49.56741075000001,60.0,79.0
488,49.49300606250001,49.568402812500004,64.0,73.0
489,49.25491106250001,49.5902281875,43.0,67.0
490,49.969196062500004,50.04260868750001,55.0,73.0
491,49.969196062500004,50.04360075,60.0,73.0
492,49.969196062500004,50.052529312500006,64.0,72.0
493,49.7311010625,50.2449894375,48.0,62.0
494,50.445386062500006,50.5088780625,64.0,74.0
495,50.445386062500006,50.5108621875,60.0,85.0
496,50.207291062500005,50.596179562500005,43.0,65.0
497,50.92157606250001,50.98209187500001,64.0,78.0
498,50.92157606250001,50.993004562500005,60.0,86.0
499,50.92157606250001,50.99994900000001,57.0,72.0
500,50.68348106250001,51.127925062500005,45.0,72.0
501,51.397766062500004,51.47911518750001,52.0,63.0
502,51.397766062500004,51.48010725,57.0,85.0
503,51.397766062500004,51.48109931250001,60.0,81.0
504,51.1596710625,51.583281750000005,40.0,64.0
505,51.87395606250001,51.929511562500004,52.0,64.0
506,51.87395606250001,51.9453845625,57.0,82.0
507,51.87395606250001,51.952329000000006,60.0,78.0
508,51.635861062500005,52.13586056250001,45.0,50.0
509,52.11205106250001,52.140820875,60.0,39.0
510,52.11205106250001,52.148757375,57.0,53.0
511,52.3501460625,52.39280475,52.0,67.0
512,52.3501460625,52.413638062500006,57.0,83.0
513,52.3501460625,52.42256662500001,60.0,82.0
514,52.11205106250001,52.4691935625,40.0,72.0
515,52.826336062500005,52.892804250000005,62.0,89.0
516,52.826336062500005,52.89578043750001,65.0,79.0
517,52.826336062500005,52.89776456250001,57.0,79.0
518,52.5882410625,53.04062156250001,50.0,73.0
519,53.30252606250001,53.366018062500004,57.0,79.0
520,53.30252606250001,53.36701012500001,62.0,89.0
521,53.30252606250001,53.37693075000001,65.0,81.0
522,53.064431062500006,53.455303687500006,45.0,70.0
523,53.7787160625,53.835263625,62.0,85.0
524,53.7787160625,53.842208062500006,65.0,81.0
525,53.7787160625,53.850144562500006,57.0,89.0
526,53.54062106250001,54.06046181250001,50.0,59.0
527,54.254906062500005,54.3045091875,57.0,81.0
528,54.254906062500005,54.3064933125,62.0,90.0
529,54.016811062500004,54.307485375000006,45.0,69.0
530,54.254906062500005,54.31046156250001,65.0,76.0
531,54.73109606250001,54.8243499375,55.0,74.0
532,54.73109606250001,54.827326125000006,50.0,72.0
533,54.73109606250001,54.827326125000006,59.0,71.0
534,54.49300106250001,54.939429187500004,43.0,74.0
535,55.2072860625,55.26482568750001,50.0,73.0
536,55.2072860625,55.28169075,55.0,88.0
537,55.2072860625,55.290619312500006,59.0,86.0
538,54.96919106250001,55.38387318750001,38.0,70.0
539,55.683476062500006,55.742007750000006,50.0,69.0
540,55.683476062500006,55.745976000000006,55.0,81.0
541,55.683476062500006,55.75093631250001,59.0,83.0
542,55.445381062500005,55.90172981250001,43.0,56.0
543,56.15966606250001,56.217205687500005,55.0,88.0
544,56.15966606250001,56.221173937500005,59.0,85.0
545,55.92157106250001,56.28069768750001,38.0,66.0
546,56.635856062500004,56.7062925,60.0,99.0
547,56.635856062500004,56.7062925,64.0,90.0
548,56.635856062500004,56.71720518750001,57.0,90.0
549,56.3977610625,56.86700662500001,45.0,82.0
550,57.112046062500006,57.18347456250001,52.0,76.0
551,57.112046062500006,57.18942693750001,60.0,78.0
552,57.112046062500006,57.190419000000006,57.0,86.0
553,56.873951062500005,57.2965696875,40.0,48.0
554,57.58823606250001,57.661648687500005,52.0,73.0
555,57.58823606250001,57.66264075000001,57.0,79.0
556,57.58823606250001,57.667601062500005,60.0,78.0
557,57.35014106250001,57.83823581250001,45.0,63.0
558,58.064426062500004,58.12196568750001,52.0,75.0
559,58.064426062500004,58.132878375000004,57.0,86.0
560,58.064426062500004,58.13387043750001,60.0,81.0
561,57.8263310625,58.2777195,40.0,67.0
562,58.54061606250001,58.61303662500001,60.0,76.0
563,58.54061606250001,58.620973125000006,57.0,71.0
564,58.54061606250001,58.624941375000006,64.0,78.0
565,58.302521062500006,58.759861875000006,45.0,73.0
566,59.01680606250001,59.074345687500006,60.0,82.0
567,59.01680606250001,59.07930600000001,64.0,79.0
568,59.01680606250001,59.086250437500006,57.0,78.0
569,58.77871106250001,59.174544000000004,40.0,65.0
570,59.492996062500005,59.55251981250001,60.0,85.0
571,59.492996062500005,59.559464250000005,64.0,77.0
572,59.492996062500005,59.56045631250001,57.0,75.0
573,59.254901062500004,59.71521806250001,45.0,54.0
574,59.731091062500006,60.028709812500004,40.0,67.0
575,59.96918606250001,60.030693937500004,60.0,89.0
576,59.96918606250001,60.038630437500004,64.0,79.0
577,59.96918606250001,60.03962250000001,57.0,83.0
578,60.4453760625,60.51085218750001,57.0,83.0
579,60.4453760625,60.51581250000001,65.0,83.0
580,60.4453760625,60.518788687500006,62.0,90.0
581,60.20728106250001,60.595177500000005,50.0,89.0
582,60.921566062500006,60.98902631250001,65.0,75.0
583,60.921566062500006,60.99101043750001,57.0,79.0
584,60.921566062500006,61.00093106250001,62.0,86.0
585,60.683471062500004,61.086248437500004,45.0,72.0
586,61.39775606250001,61.459263937500005,57.0,89.0
587,61.39775606250001,61.463232187500004,65.0,88.0
588,61.39775606250001,61.47414487500001,62.0,99.0
589,61.15966106250001,61.68545418750001,50.0,66.0
590,61.63585106250001,61.90172381250001,45.0,65.0
591,61.8739460625,61.910652375000005,65.0,68.0
592,61.8739460625,61.95231900000001,57.0,85.0
593,61.8739460625,61.953311062500006,62.0,96.0
594,62.112041062500005,62.3977550625,43.0,100.0
595,62.350136062500006,62.420572500000006,67.0,74.0
596,62.350136062500006,62.43346931250001,59.0,86.0
597,62.350136062500006,62.440413750000005,55.0,79.0
598,62.350136062500006,62.44140581250001,62.0,88.0
599,62.82632606250001,62.885849812500005,67.0,77.0
600,62.82632606250001,62.895770437500005,59.0,88.0
601,62.82632606250001,62.903706937500004,62.0,81.0
602,62.82632606250001,62.905691062500004,55.0,81.0
603,62.58823106250001,62.92652437500001,38.0,75.0
604,63.302516062500004,63.33426206250001,67.0,55.0
605,63.302516062500004,63.347158875000005,59.0,89.0
606,63.302516062500004,63.35211918750001,55.0,73.0
607,63.302516062500004,63.35608743750001,62.0,81.0
608,63.06442106250001,63.421563562500005,43.0,95.0
609,63.540611062500005,63.5783094375,55.0,58.0
610,63.77870606250001,63.84120600000001,59.0,95.0
611,63.77870606250001,63.85211868750001,55.0,85.0
612,63.77870606250001,63.853110750000006,62.0,89.0
613,63.540611062500005,63.855094875000006,38.0,85.0
614,64.01680106250001,64.08525337500001,62.0,77.0
615,64.01680106250001,64.08922162500001,59.0,86.0
616,64.01680106250001,64.09815018750001,55.0,79.0
617,64.01680106250001,64.12195968750001,43.0,88.0
618,64.25489606250001,64.3461658125,59.0,75.0
619,64.25489606250001,64.3501340625,62.0,70.0
620,64.25489606250001,64.3541023125,55.0,73.0
621,64.25489606250001,64.3739435625,43.0,78.0
622,64.49299106250001,64.57731637500001,59.0,86.0
623,64.49299106250001,64.58326875,55.0,86.0
624,64.49299106250001,64.58624493750001,62.0,82.0
625,64.49299106250001,64.59914175,43.0,89.0
626,64.73108606250001,64.81144312500001,59.0,81.0
627,64.73108606250001,64.81441931250001,55.0,81.0
628,64.73108606250001,64.82037168750001,62.0,73.0
629,64.73108606250001,64.825332,43.0,95.0
630,64.96918106250001,65.1398158125,59.0,93.0
631,64.96918106250001,65.1477523125,55.0,92.0
632,64.96918106250001,65.1517205625,62.0,90.0
633,64.96918106250001,65.18148243750001,43.0,102.0
634,65.4453710625,65.89279125,40.0,38.0
635,65.4711646875,65.90271187500001,64.0,67.0
636,66.1596560625,66.2152115625,55.0,85.0
637,66.1596560625,66.216203625,60.0,97.0
638,66.1596560625,66.2191798125,64.0,90.0
639,65.9215610625,66.27374325000001,48.0,102.0
640,66.27870356250001,66.36302887500001,55.0,76.0
641,66.27870356250001,66.3640209375,64.0,86.0
642,66.27870356250001,66.3719574375,60.0,86.0
643,66.63584606250001,66.68544918750001,55.0,100.0
644,66.63584606250001,66.6904095,60.0,117.0
645,66.63584606250001,66.6904095,64.0,107.0
646,66.3977510625,66.7707665625,43.0,93.0
647,67.11203606250001,67.1507265,55.0,93.0
648,67.11203606250001,67.16263125,60.0,96.0
649,67.11203606250001,67.16461537500001,64.0,93.0
650,67.2310835625,67.327313625,55.0,65.0
651,67.2310835625,67.33822631250001,60.0,72.0
652,67.2310835625,67.343186625,64.0,72.0
653,66.87394106250001,67.34517075000001,48.0,92.0
654,67.58822606250001,67.6338609375,60.0,102.0
655,67.58822606250001,67.63584506250001,55.0,93.0
656,67.58822606250001,67.64774981250001,64.0,96.0
657,67.35013106250001,67.71818625,43.0,92.0
658,68.0644160625,68.116995375,64.0,95.0
659,68.0644160625,68.12393981250001,60.0,112.0
660,68.0644160625,68.132868375,57.0,95.0
661,67.82632106250001,68.2191778125,45.0,76.0
662,68.18346356250001,68.2906063125,60.0,67.0
663,68.18346356250001,68.2945745625,64.0,67.0
664,68.18346356250001,68.30548725000001,57.0,71.0
665,68.5406060625,68.60608218750001,60.0,112.0
666,68.5406060625,68.61203456250001,64.0,95.0
667,68.5406060625,68.6179869375,57.0,95.0
668,68.3025110625,68.68048687500001,40.0,81.0
669,69.0167960625,69.05052618750001,60.0,83.0
670,69.0167960625,69.05846268750001,57.0,89.0
671,69.0167960625,69.06639918750001,64.0,86.0
672,69.13584356250001,69.23604187500001,64.0,70.0
673,69.13584356250001,69.238026,57.0,59.0
674,69.13584356250001,69.24199425,60.0,77.0
675,68.7787010625,69.28366087500001,45.0,97.0
676,69.49298606250001,69.5475495,57.0,99.0
677,69.49298606250001,69.5475495,60.0,102.0
678,69.49298606250001,69.5485415625,64.0,96.0
679,69.25489106250001,69.5763193125,40.0,86.0
680,69.96917606250001,70.0078665,60.0,90.0
681,69.96917606250001,70.01381887500001,55.0,79.0
682,69.96917606250001,70.0148109375,64.0,83.0
683,70.0882235625,70.1596520625,55.0,60.0
684,69.73108106250001,70.16262825000001,48.0,90.0
685,70.0882235625,70.18346156250001,64.0,69.0
686,70.0882235625,70.1894139375,60.0,75.0
687,70.44536606250001,70.4989374375,55.0,93.0
688,70.44536606250001,70.49992950000001,60.0,107.0
689,70.44536606250001,70.5068739375,64.0,93.0
690,70.20727106250001,70.60608018750001,43.0,92.0
691,70.9215560625,70.958262375,55.0,82.0
692,70.9215560625,70.96818300000001,60.0,99.0
693,70.9215560625,70.978103625,64.0,90.0
694,71.04060356250001,71.1398098125,60.0,79.0
695,71.04060356250001,71.14477012500001,64.0,72.0
696,71.04060356250001,71.1517145625,55.0,66.0
697,70.6834610625,71.164611375,48.0,96.0
698,71.3977460625,71.4453650625,55.0,85.0
699,71.3977460625,71.4652063125,60.0,102.0
700,71.3977460625,71.47115868750001,64.0,88.0
701,71.1596510625,71.533658625,43.0,92.0
702,71.87393606250001,71.93048362500001,57.0,90.0
703,71.87393606250001,71.93246775,64.0,90.0
704,71.87393606250001,71.93445187500001,60.0,97.0
705,71.9929835625,72.09119775,60.0,65.0
706,71.9929835625,72.09318187500001,57.0,62.0
707,71.9929835625,72.09318187500001,64.0,66.0
708,71.6358410625,72.11699137500001,45.0,93.0
709,72.35012606250001,72.40667362500001,60.0,97.0
710,72.35012606250001,72.4136180625,57.0,92.0
711,72.35012606250001,72.41560218750001,64.0,90.0
712,72.11203106250001,72.5584591875,40.0,85.0
713,72.82631606250001,72.87790331250001,60.0,88.0
714,72.82631606250001,72.8798874375,57.0,81.0
715,72.82631606250001,72.8838556875,64.0,78.0
716,72.9453635625,73.04754600000001,60.0,67.0
717,72.9453635625,73.06044281250001,57.0,63.0
718,72.9453635625,73.06837931250001,64.0,72.0
719,72.58822106250001,73.0782999375,45.0,90.0
720,73.3025060625,73.37393456250001,60.0,90.0
721,73.3025060625,73.38286312500001,57.0,89.0
722,73.3025060625,73.39377581250001,64.0,83.0
723,73.06441106250001,73.4532995625,40.0,82.0
724,73.7786960625,73.83325950000001,65.0,86.0
725,73.7786960625,73.83722775000001,62.0,96.0
726,73.7786960625,73.8441721875,57.0,82.0
727,73.5406010625,73.97810062500001,50.0,85.0
728,73.89774356250001,73.98702918750001,57.0,68.0
729,73.89774356250001,73.9919895,65.0,72.0
730,73.89774356250001,73.9929815625,62.0,76.0
731,74.2548860625,74.31341775000001,57.0,97.0
732,74.2548860625,74.3183780625,65.0,96.0
733,74.2548860625,74.323338375,62.0,100.0
734,74.0167910625,74.44437,45.0,90.0
735,74.73107606250001,74.78365537500001,65.0,97.0
736,74.73107606250001,74.7866315625,57.0,97.0
737,74.73107606250001,74.78762362500001,62.0,107.0
738,74.8501235625,74.95230600000001,62.0,63.0
739,74.8501235625,74.96421075,65.0,65.0
740,74.8501235625,74.96619487500001,57.0,69.0
741,74.49298106250001,74.97413137500001,50.0,73.0
742,75.20726606250001,75.2866310625,65.0,90.0
743,75.20726606250001,75.31143262500001,57.0,86.0
744,75.20726606250001,75.32333737500001,62.0,102.0
745,74.96917106250001,75.32730562500001,45.0,89.0
746,75.68345606250001,75.73008300000001,57.0,83.0
747,75.68345606250001,75.74397187500001,60.0,81.0
748,75.44536106250001,75.910638375,45.0,107.0
749,75.80250356250001,75.92948756250001,57.0,71.0
750,75.80250356250001,75.9354399375,60.0,72.0
751,76.1596460625,76.22611425000001,57.0,97.0
752,76.1596460625,76.232066625,52.0,93.0
753,76.1596460625,76.24198725000001,60.0,93.0
754,75.92155106250001,76.3342490625,40.0,78.0
755,76.6358360625,76.6993280625,64.0,92.0
756,76.6358360625,76.708256625,60.0,97.0
757,76.6358360625,76.72710581250001,57.0,79.0
758,76.75488356250001,76.84615331250001,57.0,42.0
759,76.75488356250001,76.8699628125,64.0,52.0
760,76.3977410625,76.8808755,45.0,67.0
761,76.75488356250001,76.88285962500001,60.0,63.0
762,77.11202606250001,77.16262125000002,60.0,93.0
763,77.11202606250001,77.16956568750001,64.0,86.0
764,77.11202606250001,77.18246250000001,57.0,90.0
765,76.8739310625,77.18643075000001,40.0,83.0
766,77.58821606250001,77.6358350625,65.0,90.0
767,77.58821606250001,77.63682712500001,62.0,97.0
768,77.58821606250001,77.6437715625,57.0,93.0
769,77.35012106250001,77.78166825000001,50.0,89.0
770,77.7072635625,77.79853331250001,57.0,68.0
771,77.7072635625,77.80547775000001,62.0,74.0
772,77.7072635625,77.81341425000001,65.0,76.0
773,78.06440606250001,78.1338504375,57.0,95.0
774,78.06440606250001,78.13781868750002,62.0,97.0
775,78.06440606250001,78.14178693750002,65.0,90.0
776,77.82631106250001,78.255874125,45.0,92.0
777,78.54059606250001,78.59615156250001,62.0,97.0
778,78.54059606250001,78.60309600000001,65.0,99.0
779,78.54059606250001,78.60706425000001,57.0,92.0
780,78.65964356250001,78.7747228125,57.0,55.0
781,78.65964356250001,78.78067518750001,62.0,61.0
782,78.65964356250001,78.787619625,65.0,66.0
783,78.30250106250001,78.80547675000001,50.0,73.0
784,78.7786910625,79.07035743750001,45.0,88.0
785,79.0167860625,79.07630981250001,65.0,92.0
786,79.0167860625,79.105079625,57.0,96.0
787,79.0167860625,79.11698437500002,62.0,100.0
788,79.4929760625,79.52968237500001,59.0,97.0
789,79.4929760625,79.5326585625,55.0,96.0
790,79.4929760625,79.54257918750001,62.0,92.0
791,79.61202356250001,79.68642825,62.0,69.0
792,79.61202356250001,79.69436475,59.0,68.0
793,79.2548810625,79.698333,43.0,96.0
794,79.61202356250001,79.70329331250001,55.0,66.0
795,79.96916606250001,80.015793,55.0,97.0
796,79.96916606250001,80.0167850625,59.0,99.0
797,79.96916606250001,80.02670568750001,62.0,97.0
798,79.7310710625,80.13880875000001,38.0,89.0
799,80.44535606250001,80.49595125,59.0,92.0
800,80.44535606250001,80.49694331250001,62.0,89.0
801,80.44535606250001,80.50388775,55.0,88.0
802,80.5644035625,80.65468125000001,59.0,81.0
803,80.5644035625,80.656665375,62.0,86.0
804,80.20726106250001,80.65964156250001,43.0,90.0
805,80.5644035625,80.676506625,55.0,74.0
806,80.92154606250001,80.98503806250001,59.0,97.0
807,80.92154606250001,81.0028951875,55.0,97.0
808,80.68345106250001,81.0068634375,38.0,86.0
809,80.92154606250001,81.01281581250001,62.0,95.0
810,81.3977360625,81.44932331250001,64.0,92.0
811,81.3977360625,81.45329156250001,60.0,97.0
812,81.3977360625,81.458251875,55.0,90.0
813,81.15964106250001,81.60706125000002,48.0,97.0
814,81.51678356250001,81.61102950000001,55.0,69.0
815,81.51678356250001,81.6120215625,60.0,79.0
816,81.51678356250001,81.61698187500001,64.0,73.0
817,81.8739260625,81.934441875,64.0,92.0
818,81.8739260625,81.94535456250001,55.0,96.0
819,81.8739260625,81.946346625,60.0,102.0
820,81.6358310625,82.06638618750002,43.0,92.0
821,82.3501160625,82.3977350625,55.0,88.0
822,82.3501160625,82.40467950000001,60.0,102.0
823,82.3501160625,82.40467950000001,64.0,95.0
824,82.46916356250001,82.55646506250001,55.0,62.0
825,82.46916356250001,82.5634095,60.0,59.0
826,82.46916356250001,82.5792825,64.0,62.0
827,82.1120210625,82.58523487500001,48.0,76.0
828,82.82630606250001,82.8937663125,64.0,88.0
829,82.82630606250001,82.91162343750001,60.0,99.0
830,82.58821106250001,82.96023450000001,43.0,89.0
831,83.30249606250001,83.349123,57.0,97.0
832,83.30249606250001,83.35805156250001,60.0,97.0
833,83.30249606250001,83.36003568750002,64.0,90.0
834,83.4215435625,83.50090856250002,57.0,59.0
835,83.4215435625,83.513805375,60.0,69.0
836,83.4215435625,83.52074981250001,64.0,70.0
837,83.06440106250001,83.5306704375,45.0,95.0
838,83.77868606250001,83.83126537500002,60.0,93.0
839,83.77868606250001,83.8401939375,57.0,89.0
840,83.77868606250001,83.84713837500001,64.0,88.0
841,83.54059106250001,83.98404300000001,40.0,81.0
842,84.2548760625,84.3084474375,64.0,86.0
843,84.2548760625,84.31043156250001,60.0,102.0
844,84.2548760625,84.32233631250001,57.0,95.0
845,84.37392356250001,84.46221712500001,57.0,52.0
846,84.37392356250001,84.46618537500001,60.0,59.0
847,84.37392356250001,84.47809012500001,64.0,66.0
848,84.01678106250002,84.51082818750001,45.0,72.0
849,84.7310660625,84.79356600000001,60.0,96.0
850,84.7310660625,84.80547075000001,64.0,85.0
851,84.7310660625,84.81241518750001,57.0,92.0
852,84.4929710625,84.823327875,40.0,75.0
853,85.20725606250001,85.25289093750001,60.0,90.0
854,85.20725606250001,85.2588433125,55.0,76.0
855,85.20725606250001,85.2826528125,64.0,83.0
856,85.32630356250002,85.43344631250001,64.0,69.0
857,85.32630356250002,85.43443837500001,60.0,65.0
858,85.32630356250002,85.44138281250001,55.0,61.0
859,84.9691610625,85.45031137500001,48.0,92.0
860,85.68344606250001,85.745946,60.0,102.0
861,85.68344606250001,85.75189837500001,64.0,92.0
862,85.68344606250001,85.75685868750001,55.0,95.0
863,85.44535106250001,85.87193793750001,43.0,54.0
864,86.15963606250001,86.2052709375,55.0,74.0
865,86.15963606250001,86.20725506250001,60.0,90.0
866,86.15963606250001,86.20725506250001,64.0,78.0
867,86.2786835625,86.36995331250002,55.0,70.0
868,86.2786835625,86.36995331250002,60.0,76.0
869,86.2786835625,86.38384218750001,64.0,73.0
870,85.92154106250001,86.40963581250001,48.0,74.0
871,86.63582606250002,86.72015137500001,60.0,99.0
872,86.63582606250002,86.73503231250001,64.0,88.0
873,86.39773106250001,86.74197675,43.0,89.0
874,87.1120160625,87.15963506250002,57.0,76.0
875,87.1120160625,87.15963506250002,60.0,83.0
876,87.1120160625,87.16558743750001,64.0,73.0
877,87.23106356250001,87.32332537500001,60.0,75.0
878,87.23106356250001,87.32431743750001,57.0,66.0
879,87.23106356250001,87.3263015625,64.0,72.0
880,86.8739210625,87.35110312500001,45.0,90.0
881,87.5882060625,87.63681712500001,60.0,97.0
882,87.5882060625,87.64177743750001,57.0,88.0
883,87.5882060625,87.6516980625,64.0,89.0
884,87.3501110625,87.7856265,40.0,79.0
885,88.06439606250001,88.10903887500001,60.0,93.0
886,88.06439606250001,88.11399918750001,57.0,89.0
887,88.06439606250001,88.12193568750001,64.0,83.0
888,88.1834435625,88.27570537500002,57.0,55.0
889,88.1834435625,88.28562600000001,60.0,60.0
890,88.1834435625,88.29157837500001,64.0,66.0
891,87.82630106250001,88.30546725,45.0,75.0
892,88.54058606250001,88.603086,60.0,92.0
893,88.54058606250001,88.60407806250001,57.0,83.0
894,88.54058606250001,88.61300662500001,64.0,83.0
895,88.30249106250001,88.67749068750001,40.0,83.0
896,89.01677606250001,89.06340300000001,65.0,79.0
897,89.01677606250001,89.07629981250001,62.0,96.0
898,89.01677606250001,89.0782839375,57.0,86.0
899,88.77868106250001,89.232053625,50.0,75.0
900,89.13582356250001,89.236021875,65.0,66.0
901,89.13582356250001,89.24098218750001,57.0,61.0
902,89.13582356250001,89.24296631250002,62.0,71.0
903,89.4929660625,89.5544739375,65.0,92.0
904,89.4929660625,89.56141837500002,62.0,99.0
905,89.4929660625,89.5624104375,57.0,92.0
906,89.25487106250002,89.66459287500001,45.0,74.0
907,89.9691560625,90.013798875,62.0,93.0
908,89.9691560625,90.01578300000001,65.0,82.0
909,89.9691560625,90.01875918750001,57.0,90.0
910,90.08820356250001,90.18740981250001,62.0,65.0
911,90.08820356250001,90.18939393750001,57.0,69.0
912,90.08820356250001,90.20030662500001,65.0,64.0
913,89.7310610625,90.23998912500001,50.0,74.0
914,90.44534606250001,90.50288568750001,57.0,89.0
915,90.44534606250001,90.51479043750001,62.0,97.0
916,90.44534606250001,90.51479043750001,65.0,90.0
917,90.2072510625,90.57530625000001,45.0,88.0
918,90.92153606250001,90.9810598125,65.0,72.0
919,90.92153606250001,90.98205187500001,57.0,85.0
920,90.92153606250001,90.99098043750001,62.0,82.0
921,91.0405835625,91.13086125000001,62.0,69.0
922,91.0405835625,91.1338374375,57.0,63.0
923,91.0405835625,91.1378056875,65.0,68.0
924,90.68344106250001,91.18740881250001,50.0,82.0
925,91.39772606250001,91.45923393750002,57.0,95.0
926,91.39772606250001,91.46419425,65.0,89.0
927,91.39772606250001,91.47213075,62.0,97.0
928,91.15963106250001,91.5157815,45.0,81.0
929,91.87391606250002,91.91756681250001,65.0,82.0
930,91.87391606250002,91.92153506250001,62.0,95.0
931,91.87391606250002,91.92649537500002,57.0,88.0
932,91.63582106250001,92.0961380625,50.0,82.0
933,91.99296356250001,92.10605868750001,62.0,56.0
934,91.99296356250001,92.10804281250002,57.0,61.0
935,91.99296356250001,92.113003125,65.0,58.0
936,92.3501060625,92.38978856250002,65.0,69.0
937,92.3501060625,92.42947106250001,57.0,90.0
938,92.3501060625,92.44633612500002,62.0,99.0
939,92.11201106250002,92.46816150000001,45.0,90.0
940,92.8262960625,92.87292300000001,59.0,89.0
941,92.8262960625,92.8778833125,62.0,82.0
942,92.8262960625,92.88085950000001,55.0,75.0
943,92.5882010625,93.0068514375,43.0,90.0
944,92.94534356250001,93.03363712500001,59.0,68.0
945,92.94534356250001,93.03760537500001,55.0,59.0
946,92.94534356250001,93.0395895,62.0,72.0
947,93.30248606250001,93.3540733125,55.0,89.0
948,93.30248606250001,93.3580415625,59.0,96.0
949,93.30248606250001,93.36300187500001,62.0,89.0
950,93.06439106250001,93.438398625,38.0,74.0
951,93.77867606250001,93.81339825,59.0,95.0
952,93.77867606250001,93.82232681250001,55.0,90.0
953,93.77867606250001,93.83026331250001,62.0,90.0
954,93.8977235625,93.98304093750001,55.0,62.0
955,93.8977235625,93.99196950000001,59.0,77.0
956,93.8977235625,94.00089806250001,62.0,76.0
957,93.54058106250001,94.02470756250001,43.0,89.0
958,94.25486606250001,94.31141362500001,59.0,97.0
959,94.01677106250001,94.3124056875,38.0,82.0
960,94.25486606250001,94.31835806250001,55.0,86.0
961,94.25486606250001,94.32133425,62.0,88.0
962,94.73105606250002,94.7846274375,60.0,92.0
963,94.73105606250002,94.7885956875,64.0,85.0
964,94.73105606250002,94.7925639375,55.0,83.0
965,94.85010356250001,94.94335743750001,55.0,58.0
966,94.49296106250002,94.95030187500001,48.0,95.0
967,94.85010356250001,94.9572463125,60.0,76.0
968,94.85010356250001,94.96220662500001,64.0,75.0
969,95.2072460625,95.27768250000001,55.0,86.0
970,95.2072460625,95.28065868750001,64.0,93.0
971,95.2072460625,95.287603125,60.0,100.0
972,94.9691510625,95.42252362500001,43.0,79.0
973,95.68343606250001,95.72609475000002,55.0,88.0
974,95.68343606250001,95.7270868125,64.0,86.0
975,95.68343606250001,95.72907093750001,60.0,96.0
976,95.80248356250002,95.89573743750002,55.0,65.0
977,95.80248356250002,95.90168981250001,60.0,73.0
978,95.4453410625,95.90565806250001,48.0,78.0
979,95.80248356250002,95.90764218750002,64.0,72.0
980,96.15962606250001,96.22113393750001,55.0,95.0
981,96.15962606250001,96.22113393750001,64.0,90.0
982,96.15962606250001,96.2270863125,60.0,107.0
983,95.92153106250001,96.25387200000002,43.0,90.0
984,96.63581606250001,96.66756206250001,64.0,79.0
985,96.63581606250001,96.67748268750002,60.0,95.0
986,96.63581606250001,96.68145093750002,67.0,85.0
987,96.39772106250001,96.78164925000002,48.0,96.0
988,96.7548635625,96.83323650000001,64.0,77.0
989,96.7548635625,96.835220625,60.0,69.0
990,96.7548635625,96.85208568750001,67.0,79.0
991,97.11200606250001,97.15664887500002,60.0,81.0
992,97.11200606250001,97.1616091875,64.0,85.0
993,97.11200606250001,97.16756156250001,67.0,83.0
994,96.87391106250001,97.222125,43.0,79.0
995,97.5881960625,97.63879125000001,60.0,92.0
996,97.5881960625,97.63879125000001,64.0,79.0
997,97.5881960625,97.63978331250001,55.0,89.0
998,97.70724356250001,97.79355300000002,64.0,61.0
999,97.70724356250001,97.7945450625,60.0,64.0
1000,97.70724356250001,97.79553712500001,55.0,63.0
1001,97.35010106250002,97.8381958125,48.0,59.0
1002,98.0643860625,98.11398918750001,55.0,89.0
1003,98.0643860625,98.12291775000001,60.0,97.0
1004,98.0643860625,98.12589393750001,64.0,88.0
1005,97.8262910625,98.14176693750001,43.0,77.0
1006,98.54057606250001,98.59117125000002,64.0,79.0
1007,98.54057606250001,98.59513950000002,60.0,86.0
1008,98.54057606250001,98.6040680625,57.0,76.0
1009,98.30248106250001,98.6239093125,45.0,86.0
1010,98.65962356250002,98.76676631250001,60.0,68.0
1011,98.65962356250002,98.7697425,57.0,58.0
1012,98.65962356250002,98.77073456250001,64.0,66.0
1013,99.01676606250001,99.06736125,60.0,92.0
1014,99.01676606250001,99.07033743750002,64.0,83.0
1015,99.01676606250001,99.0713295,57.0,88.0
1016,98.77867106250001,99.13878975000002,40.0,78.0
1017,99.49295606250001,99.5346226875,56.0,66.0
1018,99.49295606250001,99.55049568750002,52.0,86.0
1019,99.49295606250001,99.55247981250001,57.0,76.0
1020,99.49295606250001,99.55644806250001,60.0,86.0
1021,99.6120035625,99.68938443750001,52.0,41.0
1022,99.25486106250001,99.712201875,45.0,81.0
1023,99.6120035625,99.72212250000001,57.0,52.0
1024,99.6120035625,99.73105106250001,60.0,61.0
1025,99.96914606250002,100.00882856250001,52.0,86.0
1026,99.73105106250001,100.0147809375,40.0,72.0
1027,99.96914606250002,100.0266856875,57.0,100.0
1028,99.96914606250002,100.03561425000001,60.0,92.0
1029,100.4453360625,100.493947125,55.0,78.0
1030,100.4453360625,100.49593125000001,60.0,92.0
1031,100.4453360625,100.49692331250002,64.0,79.0
1032,100.56438356250001,100.65565331250001,55.0,56.0
1033,100.56438356250001,100.66061362500001,60.0,66.0
1034,100.56438356250001,100.66061362500001,64.0,66.0
1035,100.20724106250002,100.66855012500001,48.0,76.0
1036,100.9215260625,100.9691450625,55.0,79.0
1037,100.9215260625,100.97509743750001,60.0,93.0
1038,100.9215260625,100.97906568750001,64.0,78.0
1039,100.6834310625,101.04057356250001,43.0,62.0
1040,101.39771606250001,101.4493033125,55.0,73.0
1041,101.39771606250001,101.4493033125,64.0,73.0
1042,101.39771606250001,101.45029537500001,60.0,85.0
1043,101.51676356250002,101.60704125000001,55.0,49.0
1044,101.51676356250002,101.6139856875,60.0,60.0
1045,101.51676356250002,101.6139856875,64.0,62.0
1046,101.15962106250001,101.6427555,48.0,59.0
1047,101.87390606250001,101.92747743750002,55.0,88.0
1048,101.87390606250001,101.93839012500001,60.0,95.0
1049,101.87390606250001,101.93839012500001,64.0,85.0
1050,101.63581106250001,102.02569162500001,43.0,55.0
1051,102.35009606250001,102.4076356875,52.0,63.0
1052,102.35009606250001,102.41458012500001,60.0,77.0
1053,102.35009606250001,102.4155721875,57.0,85.0
1054,102.46914356250001,102.54553237500001,52.0,55.0
1055,102.46914356250001,102.55644506250002,57.0,69.0
1056,102.46914356250001,102.56041331250002,60.0,66.0
1057,102.11200106250001,102.59414343750001,45.0,72.0
1058,102.82628606250002,102.8838256875,52.0,81.0
1059,102.82628606250002,102.8917621875,57.0,95.0
1060,102.82628606250002,102.90267487500002,60.0,89.0
1061,102.58819106250002,103.00783350000002,40.0,66.0
1062,103.3024760625,103.343150625,52.0,76.0
1063,103.3024760625,103.35207918750001,57.0,90.0
1064,103.3024760625,103.36100775000001,60.0,83.0
1065,103.0643810625,103.5683488125,45.0,71.0
1066,103.5405710625,103.63184081250002,52.0,49.0
1067,103.5405710625,103.636801125,57.0,65.0
1068,103.5405710625,103.64572968750001,60.0,64.0
1069,103.77866606250001,103.82727712500001,52.0,76.0
1070,103.5405710625,103.83620568750001,40.0,68.0
1071,103.77866606250001,103.84116600000002,57.0,93.0
1072,103.77866606250001,103.8421580625,60.0,86.0
1073,104.25485606250001,104.30842743750001,65.0,79.0
1074,104.25485606250001,104.31537187500001,62.0,95.0
1075,104.25485606250001,104.33521312500001,57.0,90.0
1076,104.3739035625,104.45723681250001,57.0,65.0
1077,104.3739035625,104.45822887500002,65.0,56.0
1078,104.3739035625,104.4631891875,62.0,66.0
1079,104.01676106250001,104.49295106250001,50.0,66.0
1080,104.73104606250001,104.78362537500001,57.0,89.0
1081,104.73104606250001,104.78660156250001,62.0,93.0
1082,104.73104606250001,104.78957775,65.0,77.0
1083,104.49295106250001,104.92747443750001,45.0,71.0
1084,105.20723606250002,105.25485506250001,62.0,92.0
1085,105.20723606250002,105.2608074375,65.0,81.0
1086,105.20723606250002,105.26279156250001,57.0,89.0
1087,105.32628356250001,105.41457712500001,57.0,50.0
1088,105.32628356250001,105.4215215625,65.0,62.0
1089,105.32628356250001,105.42548981250002,62.0,63.0
1090,104.96914106250001,105.478069125,50.0,58.0
1091,105.68342606250002,105.736005375,62.0,99.0
1092,105.44533106250002,105.73898156250002,45.0,85.0
1093,105.68342606250002,105.74294981250002,65.0,89.0
1094,105.68342606250002,105.75187837500002,57.0,92.0
1095,106.1596160625,106.39175868750002,52.0,68.0
1096,106.1596160625,106.39275075,60.0,82.0
1097,106.1596160625,106.396719,57.0,82.0
1098,105.9215210625,106.40465550000002,45.0,96.0
1099,106.63580606250001,106.68838537500001,52.0,77.0
1100,106.63580606250001,106.69235362500001,57.0,92.0
1101,106.63580606250001,106.69830600000002,60.0,83.0
1102,106.39771106250001,106.78461543750001,40.0,72.0
1103,107.11199606250001,107.158623,57.0,81.0
1104,107.11199606250001,107.1665595,52.0,68.0
1105,107.11199606250001,107.16755156250001,60.0,78.0
1106,107.2310435625,107.33124187500002,57.0,65.0
1107,107.2310435625,107.33421806250001,60.0,63.0
1108,107.2310435625,107.3362021875,52.0,55.0
1109,106.87390106250001,107.38382118750002,45.0,68.0
1110,107.58818606250001,107.64076537500002,52.0,85.0
1111,107.58818606250001,107.64671775000001,57.0,93.0
1112,107.35009106250001,107.64969393750002,40.0,75.0
1113,107.58818606250001,107.65564631250001,60.0,88.0
1114,108.06437606250002,108.11100300000001,65.0,75.0
1115,108.06437606250002,108.12092362500002,62.0,90.0
1116,108.06437606250002,108.12786806250001,57.0,81.0
1117,108.18342356250001,108.2707250625,65.0,60.0
1118,108.18342356250001,108.27270918750001,57.0,56.0
1119,108.18342356250001,108.2746933125,62.0,64.0
1120,107.82628106250002,108.327272625,50.0,74.0
1121,108.5405660625,108.59512950000001,57.0,83.0
1122,108.5405660625,108.59909775000001,65.0,83.0
1123,108.5405660625,108.60008981250002,62.0,93.0
1124,108.30247106250002,108.73005,45.0,69.0
1125,109.01675606250001,109.06338300000002,62.0,86.0
1126,109.01675606250001,109.07528775000002,57.0,77.0
1127,109.01675606250001,109.0762798125,65.0,78.0
1128,109.13580356250002,109.237986,57.0,46.0
1129,109.13580356250002,109.25088281250001,65.0,55.0
1130,109.13580356250002,109.25187487500001,62.0,59.0
1131,108.7786610625,109.29056531250001,50.0,66.0
1132,109.25485106250001,109.54750950000002,45.0,68.0
1133,109.49294606250001,109.56635868750001,62.0,95.0
1134,109.49294606250001,109.57032693750001,65.0,82.0
1135,109.49294606250001,109.57925550000002,57.0,86.0
1136,109.96913606250001,110.03362012500001,55.0,82.0
1137,109.96913606250001,110.04354075,59.0,81.0
1138,109.96913606250001,110.047509,50.0,72.0
1139,110.0881835625,110.17449300000001,50.0,55.0
1140,110.0881835625,110.18639775000001,55.0,68.0
1141,110.0881835625,110.20425487500002,59.0,67.0
1142,109.73104106250001,110.21913581250001,43.0,89.0
1143,110.44532606250002,110.47806412500002,55.0,69.0
1144,110.44532606250002,110.49790537500002,59.0,92.0
1145,110.44532606250002,110.4988974375,62.0,89.0
1146,110.20723106250001,110.61100050000002,38.0,72.0
1147,110.92151606250002,110.98203187500002,59.0,88.0
1148,110.92151606250002,110.98401600000001,55.0,78.0
1149,110.92151606250002,110.98996837500002,62.0,79.0
1150,111.04056356250001,111.1397698125,55.0,48.0
1151,111.04056356250001,111.1397698125,62.0,62.0
1152,111.04056356250001,111.1437380625,59.0,61.0
1153,110.68342106250002,111.1516745625,43.0,72.0
1154,111.1596110625,111.41556318750001,38.0,85.0
1155,111.3977060625,111.44830125000001,55.0,85.0
1156,111.3977060625,111.44830125000001,59.0,95.0
1157,111.3977060625,111.45623775000001,62.0,82.0
1158,111.87389606250001,111.92647537500001,55.0,77.0
1159,111.87389606250001,111.93540393750001,64.0,77.0
1160,111.87389606250001,111.9413563125,60.0,92.0
1161,111.99294356250002,112.07925300000001,55.0,62.0
1162,111.99294356250002,112.08917362500002,64.0,68.0
1163,111.99294356250002,112.09413393750002,60.0,68.0
1164,111.63580106250001,112.13183231250001,48.0,88.0
1165,112.35008606250001,112.40068125,55.0,81.0
1166,112.35008606250001,112.40663362500001,64.0,88.0
1167,112.35008606250001,112.41258600000002,60.0,95.0
1168,112.11199106250001,112.497903375,43.0,69.0
1169,112.82627606250001,112.89175218750002,55.0,83.0
1170,112.82627606250001,112.89572043750002,60.0,95.0
1171,112.82627606250001,112.90266487500001,64.0,85.0
1172,112.94532356250001,113.045521875,55.0,45.0
1173,112.94532356250001,113.04750600000001,60.0,51.0
1174,112.94532356250001,113.05941075000001,64.0,50.0
1175,112.58818106250001,113.07131550000001,48.0,59.0
1176,113.30246606250002,113.35901362500002,55.0,85.0
1177,113.30246606250002,113.36496600000001,64.0,86.0
1178,113.30246606250002,113.36595806250001,60.0,92.0
1179,113.06437106250002,113.46119606250001,43.0,62.0
1180,113.77865606250002,113.83222743750001,60.0,95.0
1181,113.77865606250002,113.83718775000001,64.0,92.0
1182,113.77865606250002,113.839171875,57.0,92.0
1183,113.54056106250002,113.85702900000001,45.0,60.0
1184,113.89770356250001,113.97806062500001,64.0,52.0
1185,113.89770356250001,113.98401300000002,57.0,45.0
1186,113.89770356250001,113.99690981250001,60.0,55.0
1187,114.25484606250001,114.31436981250002,60.0,90.0
1188,114.25484606250001,114.31833806250002,64.0,82.0
1189,114.25484606250001,114.32230631250002,57.0,88.0
1190,114.0167510625,114.39472687500002,40.0,81.0
1191,114.73103606250001,114.78361537500001,60.0,93.0
1192,114.73103606250001,114.7865915625,57.0,81.0
1193,114.73103606250001,114.79254393750001,64.0,82.0
1194,114.85008356250002,114.92944856250001,57.0,49.0
1195,114.85008356250002,114.9314326875,60.0,55.0
1196,114.85008356250002,114.94432950000001,64.0,62.0
1197,114.49294106250001,114.99492468750002,45.0,72.0
1198,115.20722606250001,115.27071806250001,64.0,77.0
1199,115.20722606250001,115.27270218750002,57.0,85.0
1200,115.20722606250001,115.27369425,60.0,93.0
1201,114.96913106250001,115.31635293750001,40.0,76.0
1202,115.68341606250002,115.72805887500002,60.0,95.0
1203,115.68341606250002,115.73004300000001,64.0,73.0
1204,115.68341606250002,115.73698743750002,55.0,81.0
1205,115.44532106250001,115.89373331250002,48.0,70.0
1206,115.92151106250002,116.00385225000001,55.0,54.0
1207,115.92151106250002,116.01476493750002,64.0,63.0
1208,115.92151106250002,116.01575700000001,60.0,69.0
1209,116.15960606250002,116.20424887500002,55.0,73.0
1210,116.15960606250002,116.20821712500002,60.0,90.0
1211,116.15960606250002,116.21912981250001,64.0,81.0
1212,116.15960606250002,116.46218512500002,43.0,52.0
1213,116.6357960625,116.67250237500001,55.0,68.0
1214,116.6357960625,116.67349443750001,60.0,79.0
1215,116.6357960625,116.68639125000001,64.0,75.0
1216,116.39770106250002,116.8332165,48.0,74.0
1217,116.75484356250001,116.84809743750002,55.0,59.0
1218,116.75484356250001,116.84809743750002,60.0,63.0
1219,116.75484356250001,116.86099425000002,64.0,66.0
1220,117.11198606250001,117.15067650000002,55.0,65.0
1221,117.11198606250001,117.16258125000002,60.0,88.0
1222,117.11198606250001,117.1635733125,64.0,71.0
1223,116.87389106250001,117.16952568750001,43.0,63.0
1224,117.58817606250001,117.64869187500001,52.0,73.0
1225,117.58817606250001,117.64869187500001,57.0,92.0
1226,117.58817606250001,117.65365218750001,60.0,82.0
1227,117.70722356250002,117.80742187500002,52.0,53.0
1228,117.70722356250002,117.81932662500002,57.0,66.0
1229,117.70722356250002,117.82726312500002,60.0,58.0
1230,117.35008106250001,117.86396943750002,45.0,92.0
1231,118.06436606250001,118.11892950000001,57.0,93.0
1232,118.06436606250001,118.12488187500001,52.0,79.0
1233,118.06436606250001,118.13579456250001,60.0,89.0
1234,117.82627106250001,118.24988175000001,40.0,70.0
1235,118.54055606250002,118.5980956875,57.0,92.0
1236,118.54055606250002,118.60404806250001,52.0,74.0
1237,118.54055606250002,118.6060321875,60.0,90.0
1238,118.65960356250001,118.75186537500001,57.0,58.0
1239,118.65960356250001,118.75980187500001,52.0,46.0
1240,118.65960356250001,118.76972250000001,60.0,64.0
1241,118.30246106250002,118.80940500000001,45.0,67.0
1242,119.01674606250002,119.057420625,52.0,82.0
1243,118.77865106250002,119.06535712500002,40.0,73.0
1244,119.01674606250002,119.09015868750001,57.0,96.0
1245,119.01674606250002,119.09015868750001,60.0,90.0
1246,119.49293606250001,119.54055506250002,65.0,66.0
1247,119.49293606250001,119.55146775000001,62.0,79.0
1248,119.49293606250001,119.55345187500001,57.0,76.0
1249,119.61198356250001,119.71019775,65.0,66.0
1250,119.61198356250001,119.71515806250001,57.0,67.0
1251,119.61198356250001,119.71912631250001,62.0,69.0
1252,119.2548410625,119.72210250000002,50.0,73.0
1253,119.96912606250001,120.04353075000002,57.0,85.0
1254,119.96912606250001,120.04353075000002,65.0,83.0
1255,119.96912606250001,120.05047518750001,62.0,92.0
1256,119.73103106250001,120.14174493750001,45.0,62.0
1257,120.44531606250001,120.50186362500001,57.0,86.0
1258,120.44531606250001,120.50483981250001,62.0,97.0
1259,120.44531606250001,120.50583187500001,65.0,85.0
1260,120.5643635625,120.66158568750001,57.0,51.0
1261,120.5643635625,120.67944281250001,62.0,59.0
1262,120.5643635625,120.67944281250001,65.0,56.0
1263,120.20722106250001,120.72210150000001,50.0,35.0
1264,120.92150606250001,120.98102981250001,65.0,81.0
1265,120.68341106250001,120.98698218750002,45.0,71.0
1266,120.92150606250001,120.98797425000001,57.0,78.0
1267,120.92150606250001,121.00285518750002,62.0,90.0
1268,121.39769606250002,121.44432300000001,65.0,78.0
1269,121.39769606250002,121.45424362500002,57.0,86.0
1270,121.39769606250002,121.45523568750001,62.0,92.0
1271,121.15960106250002,121.52964037500001,50.0,89.0
1272,121.51674356250001,121.63182281250002,57.0,58.0
1273,121.51674356250001,121.64174343750001,62.0,70.0
1274,121.51674356250001,121.64471962500001,65.0,70.0
1275,121.87388606250002,121.94333043750001,57.0,86.0
1276,121.87388606250002,121.94432250000001,65.0,85.0
1277,121.87388606250002,121.94729868750001,62.0,92.0
1278,121.63579106250002,122.01178275000001,45.0,78.0
1279,122.35007606250001,122.40265537500001,57.0,83.0
1280,122.35007606250001,122.40761568750001,65.0,79.0
1281,122.35007606250001,122.40860775000002,62.0,90.0
1282,122.1119810625,122.56634568750002,50.0,62.0
1283,122.46912356250002,122.57031393750002,57.0,59.0
1284,122.46912356250002,122.58122662500001,65.0,67.0
1285,122.46912356250002,122.58420281250001,62.0,69.0
1286,122.82626606250001,122.89174218750001,57.0,89.0
1287,122.82626606250001,122.9056310625,62.0,96.0
1288,122.82626606250001,122.9135675625,65.0,89.0
1289,122.58817106250001,122.91852787500001,45.0,62.0
1290,123.30245606250001,123.53757487500002,55.0,86.0
1291,123.30245606250001,123.54650343750001,59.0,77.0
1292,123.06436106250001,123.55245581250001,43.0,90.0
1293,123.77864606250002,123.82725712500002,55.0,92.0
1294,123.77864606250002,123.83519362500002,59.0,99.0
1295,123.77864606250002,123.83519362500002,62.0,92.0
1296,123.54055106250001,123.92646337500001,38.0,67.0
1297,124.25483606250002,124.29848681250002,59.0,95.0
1298,124.25483606250002,124.30642331250002,62.0,85.0
1299,124.25483606250002,124.31336775000001,55.0,89.0
1300,124.37388356250001,124.46416125000002,55.0,43.0
1301,124.37388356250001,124.48400250000002,59.0,66.0
1302,124.37388356250001,124.48400250000002,62.0,68.0
1303,124.01674106250002,124.50979612500001,43.0,62.0
1304,124.49293106250002,124.77368475000002,38.0,66.0
1305,124.7310260625,124.79154187500001,55.0,86.0
1306,124.7310260625,124.79749425000001,59.0,95.0
1307,124.7310260625,124.80146250000001,62.0,81.0
1308,124.96912106250001,125.057414625,55.0,73.0
1309,124.96912106250001,125.07130350000001,60.0,81.0
1310,124.96912106250001,125.07626381250002,64.0,77.0
1311,124.96912106250001,125.09610506250002,48.0,83.0
1312,125.20721606250001,125.30146200000001,60.0,76.0
1313,125.20721606250001,125.30543025000001,64.0,69.0
1314,125.20721606250001,125.31138262500001,55.0,69.0
1315,125.20721606250001,125.32130325000001,48.0,79.0
1316,125.44531106250001,125.53658081250002,55.0,76.0
1317,125.44531106250001,125.54352525000002,60.0,81.0
1318,125.44531106250001,125.54848556250002,64.0,74.0
1319,125.44531106250001,125.55840618750001,48.0,74.0
1320,125.68340606250001,125.77169962500001,60.0,85.0
1321,125.68340606250001,125.77765200000002,64.0,77.0
1322,125.68340606250001,125.7786440625,55.0,81.0
1323,125.68340606250001,125.79650118750001,48.0,88.0
1324,125.92150106250001,126.101064375,60.0,90.0
1325,125.92150106250001,126.10404056250002,55.0,82.0
1326,125.92150106250001,126.105032625,64.0,88.0
1327,125.92150106250001,126.13380243750001,48.0,93.0
1328,127.11197606250002,127.19233312500002,64.0,63.0
1329,127.11197606250002,127.19332518750001,60.0,67.0
1330,127.11197606250002,127.19729343750001,55.0,64.0
1331,126.87388106250002,127.20622200000001,48.0,62.0
1332,127.58816606250001,127.65165806250002,55.0,71.0
1333,127.58816606250001,127.66257075000001,60.0,79.0
1334,127.58816606250001,127.66356281250002,64.0,73.0
1335,127.3500710625,127.68538818750001,43.0,67.0
1336,128.06435606250002,128.1377686875,55.0,73.0
1337,128.06435606250002,128.13876075000002,60.0,73.0
1338,128.06435606250002,128.1476893125,64.0,72.0
1339,127.82626106250001,128.3401494375,48.0,62.0
1340,128.54054606250003,128.60403806250002,64.0,74.0
1341,128.54054606250003,128.6060221875,60.0,85.0
1342,128.3024510625,128.69133956250002,43.0,65.0
1343,129.0167360625,129.077251875,64.0,78.0
1344,129.0167360625,129.08816456250003,60.0,86.0
1345,129.0167360625,129.095109,57.0,72.0
1346,128.77864106250001,129.22308506250002,45.0,72.0
1347,129.4929260625,129.5742751875,52.0,63.0
1348,129.4929260625,129.57526725000002,57.0,85.0
1349,129.4929260625,129.5762593125,60.0,81.0
1350,129.25483106250002,129.67844175000002,40.0,64.0
1351,129.9691160625,130.0246715625,52.0,64.0
1352,129.9691160625,130.0405445625,57.0,82.0
1353,129.9691160625,130.047489,60.0,78.0
1354,129.73102106250002,130.23102056250002,45.0,50.0
1355,130.20721106250002,130.23598087500002,60.0,39.0
1356,130.20721106250002,130.24391737500002,57.0,53.0
1357,130.4453060625,130.48796475,52.0,67.0
1358,130.4453060625,130.5087980625,57.0,83.0
1359,130.4453060625,130.51772662500002,60.0,82.0
1360,130.20721106250002,130.5643535625,40.0,72.0
1361,130.9214960625,130.98796425,62.0,89.0
1362,130.9214960625,130.9909404375,65.0,79.0
1363,130.9214960625,130.9929245625,57.0,79.0
1364,130.68340106250002,131.1357815625,50.0,73.0
1365,131.39768606250001,131.4611780625,57.0,79.0
1366,131.39768606250001,131.462170125,62.0,89.0
1367,131.39768606250001,131.47209075,65.0,81.0
1368,131.15959106250003,131.5504636875,45.0,70.0
1369,131.87387606250002,131.930423625,62.0,85.0
1370,131.87387606250002,131.9373680625,65.0,81.0
1371,131.87387606250002,131.9453045625,57.0,89.0
1372,131.6357810625,132.15562181250002,50.0,59.0
1373,132.35006606250002,132.39966918750002,57.0,81.0
1374,132.35006606250002,132.4016533125,62.0,90.0
1375,132.1119710625,132.40264537500002,45.0,69.0
1376,132.35006606250002,132.40562156250002,65.0,76.0
1377,132.82625606250002,132.9195099375,55.0,74.0
1378,132.82625606250002,132.922486125,50.0,72.0
1379,132.82625606250002,132.922486125,59.0,71.0
1380,132.5881610625,133.03458918750002,43.0,74.0
1381,133.30244606250002,133.3599856875,50.0,73.0
1382,133.30244606250002,133.37685075000002,55.0,88.0
1383,133.30244606250002,133.3857793125,59.0,86.0
1384,133.0643510625,133.47903318750002,38.0,70.0
1385,133.77863606250003,133.83716775000002,50.0,69.0
1386,133.77863606250003,133.841136,55.0,81.0
1387,133.77863606250003,133.8460963125,59.0,83.0
1388,133.5405410625,133.9968898125,43.0,56.0
1389,134.2548260625,134.3123656875,55.0,88.0
1390,134.2548260625,134.31633393750002,59.0,85.0
1391,134.0167310625,134.3758576875,38.0,66.0
1392,134.7310160625,134.8014525,60.0,99.0
1393,134.7310160625,134.8014525,64.0,90.0
1394,134.7310160625,134.8123651875,57.0,90.0
1395,134.49292106250002,134.962166625,45.0,82.0
1396,135.2072060625,135.2786345625,52.0,76.0
1397,135.2072060625,135.28458693750002,60.0,78.0
1398,135.2072060625,135.285579,57.0,86.0
1399,134.96911106250002,135.3917296875,40.0,48.0
1400,135.6833960625,135.7568086875,52.0,73.0
1401,135.6833960625,135.75780075,57.0,79.0
1402,135.6833960625,135.7627610625,60.0,78.0
1403,135.44530106250002,135.9333958125,45.0,63.0
1404,136.1595860625,136.21712568750002,52.0,75.0
1405,136.1595860625,136.228038375,57.0,86.0
1406,136.1595860625,136.2290304375,60.0,81.0
1407,135.92149106250002,136.3728795,40.0,67.0
1408,136.6357760625,136.70819662500003,60.0,76.0
1409,136.6357760625,136.71613312500003,57.0,71.0
1410,136.6357760625,136.720101375,64.0,78.0
1411,136.39768106250003,136.855021875,45.0,73.0
1412,137.11196606250002,137.16950568750002,60.0,82.0
1413,137.11196606250002,137.17446600000002,64.0,79.0
1414,137.11196606250002,137.1814104375,57.0,78.0
1415,136.8738710625,137.26970400000002,40.0,65.0
1416,137.58815606250002,137.6476798125,60.0,85.0
1417,137.58815606250002,137.65462425,64.0,77.0
1418,137.58815606250002,137.6556163125,57.0,75.0
1419,137.3500610625,137.8103780625,45.0,54.0
1420,137.8262510625,138.1238698125,40.0,67.0
1421,138.06434606250002,138.1258539375,60.0,89.0
1422,138.06434606250002,138.1337904375,64.0,79.0
1423,138.06434606250002,138.13478250000003,57.0,83.0
1424,138.54053606250002,138.60601218750003,57.0,83.0
1425,138.54053606250002,138.6109725,65.0,83.0
1426,138.54053606250002,138.61394868750003,62.0,90.0
1427,138.3024410625,138.69033750000003,50.0,89.0
1428,139.01672606250003,139.0841863125,65.0,75.0
1429,139.01672606250003,139.08617043750002,57.0,79.0
1430,139.01672606250003,139.09609106250002,62.0,86.0
1431,138.7786310625,139.1814084375,45.0,72.0
1432,139.4929160625,139.55442393750002,57.0,89.0
1433,139.4929160625,139.5583921875,65.0,88.0
1434,139.4929160625,139.56930487500003,62.0,99.0
1435,139.2548210625,139.78061418750002,50.0,66.0
1436,139.73101106250002,139.99688381250002,45.0,65.0
1437,139.9691060625,140.005812375,65.0,68.0
1438,139.9691060625,140.047479,57.0,85.0
1439,139.9691060625,140.04847106250003,62.0,96.0
1440,140.20720106250002,140.25680418750002,59.0,96.0
1441,140.20720106250002,140.2587883125,62.0,90.0
1442,140.20720106250002,140.26275656250002,55.0,97.0
1443,140.4452960625,140.489938875,59.0,89.0
1444,140.4452960625,140.49093093750002,62.0,74.0
1445,140.4452960625,140.49390712500002,55.0,82.0
1446,140.20720106250002,140.5246610625,43.0,100.0
1447,140.56434356250003,140.6238673125,55.0,70.0
1448,140.56434356250003,140.62585143750002,59.0,83.0
1449,140.56434356250003,140.62783556250002,62.0,82.0
1450,140.68339106250002,140.75779575,59.0,75.0
1451,140.68339106250002,140.763748125,55.0,68.0
1452,140.68339106250002,140.76771637500002,62.0,66.0
1453,140.9214860625,140.96414475,55.0,93.0
1454,140.9214860625,140.96712093750003,59.0,99.0
1455,140.9214860625,140.97208125,62.0,96.0
1456,140.68339106250002,141.0484700625,38.0,95.0
1457,141.15958106250002,141.216128625,59.0,97.0
1458,141.15958106250002,141.21712068750003,62.0,90.0
1459,141.15958106250002,141.21811275000002,55.0,92.0
1460,141.15958106250002,141.640731375,43.0,89.0
1461,141.63577106250003,142.04152462500002,38.0,74.0
1462,142.35005606250002,142.430413125,64.0,63.0
1463,142.35005606250002,142.43140518750002,60.0,67.0
1464,142.35005606250002,142.4353734375,55.0,64.0
1465,142.11196106250003,142.44430200000002,48.0,62.0
1466,142.82624606250002,142.88973806250002,55.0,71.0
1467,142.82624606250002,142.90065075,60.0,79.0
1468,142.82624606250002,142.90164281250003,64.0,73.0
1469,142.5881510625,142.92346818750002,43.0,67.0
1470,143.30243606250002,143.37584868750002,55.0,73.0
1471,143.30243606250002,143.37684075,60.0,73.0
1472,143.30243606250002,143.3857693125,64.0,72.0
1473,143.0643410625,143.57822943750003,48.0,62.0
1474,143.77862606250002,143.84211806250002,64.0,74.0
1475,143.77862606250002,143.84410218750003,60.0,85.0
1476,143.5405310625,143.92941956250002,43.0,65.0
1477,144.25481606250003,144.31533187500003,64.0,78.0
1478,144.25481606250003,144.32624456250002,60.0,86.0
1479,144.25481606250003,144.333189,57.0,72.0
1480,144.0167210625,144.46116506250002,45.0,72.0
1481,144.73100606250003,144.8123551875,52.0,63.0
1482,144.73100606250003,144.81334725000002,57.0,85.0
1483,144.73100606250003,144.8143393125,60.0,81.0
1484,144.4929110625,144.91652175000002,40.0,64.0
1485,145.2071960625,145.26275156250003,52.0,64.0
1486,145.2071960625,145.27862456250003,57.0,82.0
1487,145.2071960625,145.285569,60.0,78.0
1488,144.96910106250002,145.46910056250002,45.0,50.0
1489,145.44529106250002,145.47406087500002,60.0,39.0
1490,145.44529106250002,145.48199737500002,57.0,53.0
1491,145.6833860625,145.72604475000003,52.0,67.0
1492,145.6833860625,145.7468780625,57.0,83.0
1493,145.6833860625,145.75580662500002,60.0,82.0
1494,145.44529106250002,145.80243356250003,40.0,72.0
1495,146.1595760625,146.22604425000003,62.0,89.0
1496,146.1595760625,146.22902043750003,65.0,79.0
1497,146.1595760625,146.2310045625,57.0,79.0
1498,145.92148106250002,146.37386156250003,50.0,73.0
1499,146.6357660625,146.6992580625,57.0,79.0
1500,146.6357660625,146.70025012500003,62.0,89.0
1501,146.6357660625,146.71017075,65.0,81.0
1502,146.39767106250002,146.7885436875,45.0,70.0
1503,147.1119560625,147.16850362500003,62.0,85.0
1504,147.1119560625,147.1754480625,65.0,81.0
1505,147.1119560625,147.1833845625,57.0,89.0
1506,146.87386106250003,147.3937018125,50.0,59.0
1507,147.58814606250002,147.63774918750002,57.0,81.0
1508,147.58814606250002,147.63973331250003,62.0,90.0
1509,147.35005106250003,147.64072537500002,45.0,69.0
1510,147.58814606250002,147.6437015625,65.0,76.0
1511,148.06433606250002,148.1575899375,55.0,74.0
1512,148.06433606250002,148.160566125,50.0,72.0
1513,148.06433606250002,148.160566125,59.0,71.0
1514,147.8262410625,148.27266918750001,43.0,74.0
1515,148.54052606250002,148.59806568750002,50.0,73.0
1516,148.54052606250002,148.61493075,55.0,88.0
1517,148.54052606250002,148.6238593125,59.0,86.0
1518,148.3024310625,148.71711318750002,38.0,70.0
1519,149.01671606250002,149.07524775000002,50.0,69.0
1520,149.01671606250002,149.079216,55.0,81.0
1521,149.01671606250002,149.0841763125,59.0,83.0
1522,148.7786210625,149.23496981250003,43.0,56.0
1523,149.49290606250003,149.55044568750003,55.0,88.0
1524,149.49290606250003,149.55441393750002,59.0,85.0
1525,149.2548110625,149.61393768750003,38.0,66.0
1526,149.96909606250003,150.0395325,60.0,99.0
1527,149.96909606250003,150.0395325,64.0,90.0
1528,149.96909606250003,150.0504451875,57.0,90.0
1529,149.7310010625,150.200246625,45.0,82.0
1530,150.4452860625,150.51671456250003,52.0,76.0
1531,150.4452860625,150.52266693750002,60.0,78.0
1532,150.4452860625,150.523659,57.0,86.0
1533,150.20719106250002,150.62980968750003,40.0,48.0
1534,150.9214760625,150.9948886875,52.0,73.0
1535,150.9214760625,150.99588075000003,57.0,79.0
1536,150.9214760625,151.00084106250003,60.0,78.0
1537,150.68338106250002,151.1714758125,45.0,63.0
1538,151.3976660625,151.4552056875,52.0,75.0
1539,151.3976660625,151.466118375,57.0,86.0
1540,151.3976660625,151.46711043750003,60.0,81.0
1541,151.15957106250002,151.6109595,40.0,67.0
1542,151.8738560625,151.94627662500002,60.0,76.0
1543,151.8738560625,151.95421312500002,57.0,71.0
1544,151.8738560625,151.958181375,64.0,78.0
1545,151.63576106250002,152.093101875,45.0,73.0
1546,152.3500460625,152.40758568750002,60.0,82.0
1547,152.3500460625,152.41254600000002,64.0,79.0
1548,152.3500460625,152.4194904375,57.0,78.0
1549,152.11195106250003,152.50778400000002,40.0,65.0
1550,152.82623606250002,152.88575981250003,60.0,85.0
1551,152.82623606250002,152.89270425,64.0,77.0
1552,152.82623606250002,152.89369631250003,57.0,75.0
1553,152.58814106250003,153.0484580625,45.0,54.0
1554,153.0643310625,153.36194981250003,40.0,67.0
1555,153.30242606250002,153.3639339375,60.0,89.0
1556,153.30242606250002,153.3718704375,64.0,79.0
1557,153.30242606250002,153.37286250000002,57.0,83.0
1558,153.77861606250002,153.84409218750002,57.0,83.0
1559,153.77861606250002,153.84905250000003,65.0,83.0
1560,153.77861606250002,153.85202868750002,62.0,90.0
1561,153.5405210625,153.92841750000002,50.0,89.0
1562,154.25480606250002,154.3222663125,65.0,75.0
1563,154.25480606250002,154.3242504375,57.0,79.0
1564,154.25480606250002,154.33417106250002,62.0,86.0
1565,154.0167110625,154.4194884375,45.0,72.0
1566,154.73099606250003,154.79250393750002,57.0,89.0
1567,154.73099606250003,154.79647218750003,65.0,88.0
1568,154.73099606250003,154.80738487500003,62.0,99.0
1569,154.4929010625,155.01869418750002,50.0,66.0
1570,154.9690910625,155.2349638125,45.0,65.0
1571,155.20718606250003,155.24389237500003,65.0,68.0
1572,155.20718606250003,155.285559,57.0,85.0
1573,155.20718606250003,155.28655106250002,62.0,96.0
1574,155.44528106250002,155.73099506250003,43.0,100.0
1575,155.6833760625,155.7538125,67.0,74.0
1576,155.6833760625,155.7667093125,59.0,86.0
1577,155.6833760625,155.77365375000002,55.0,79.0
1578,155.6833760625,155.7746458125,62.0,88.0
1579,156.1595660625,156.21908981250002,67.0,77.0
1580,156.1595660625,156.22901043750002,59.0,88.0
1581,156.1595660625,156.23694693750002,62.0,81.0
1582,156.1595660625,156.23893106250003,55.0,81.0
1583,155.92147106250002,156.259764375,38.0,75.0
1584,156.6357560625,156.6675020625,67.0,55.0
1585,156.6357560625,156.680398875,59.0,89.0
1586,156.6357560625,156.6853591875,55.0,73.0
1587,156.6357560625,156.68932743750003,62.0,81.0
1588,156.39766106250002,156.75480356250003,43.0,95.0
1589,156.87385106250002,156.9115494375,55.0,58.0
1590,157.1119460625,157.17444600000002,59.0,95.0
1591,157.1119460625,157.1853586875,55.0,85.0
1592,157.1119460625,157.18635075,62.0,89.0
1593,156.87385106250002,157.188334875,38.0,85.0
1594,157.35004106250003,157.41849337500003,62.0,77.0
1595,157.35004106250003,157.422461625,59.0,86.0
1596,157.35004106250003,157.43139018750003,55.0,79.0
1597,157.35004106250003,157.45519968750003,43.0,88.0
1598,157.5881360625,157.67940581250002,59.0,75.0
1599,157.5881360625,157.6833740625,62.0,70.0
1600,157.5881360625,157.68734231250002,55.0,73.0
1601,157.5881360625,157.7071835625,43.0,78.0
1602,157.82623106250003,157.91055637500003,59.0,86.0
1603,157.82623106250003,157.91650875000002,55.0,86.0
1604,157.82623106250003,157.91948493750002,62.0,82.0
1605,157.82623106250003,157.93238175000002,43.0,89.0
1606,158.06432606250002,158.14468312500003,59.0,81.0
1607,158.06432606250002,158.14765931250002,55.0,81.0
1608,158.06432606250002,158.15361168750002,62.0,73.0
1609,158.06432606250002,158.15857200000002,43.0,95.0
1610,158.30242106250003,158.4730558125,59.0,93.0
1611,158.30242106250003,158.4809923125,55.0,92.0
1612,158.30242106250003,158.48496056250002,62.0,90.0
1613,158.30242106250003,158.5147224375,43.0,102.0
1614,158.7786110625,159.22603125,40.0,38.0
1615,158.8044046875,159.235951875,64.0,67.0
1616,159.49289606250002,159.54845156250002,55.0,85.0
1617,159.49289606250002,159.549443625,60.0,97.0
1618,159.49289606250002,159.5524198125,64.0,90.0
1619,159.2548010625,159.60698325,48.0,102.0
1620,159.61194356250002,159.69626887500002,55.0,76.0
1621,159.61194356250002,159.6972609375,64.0,86.0
1622,159.61194356250002,159.7051974375,60.0,86.0
1623,159.96908606250003,160.01868918750003,55.0,100.0
1624,159.96908606250003,160.0236495,60.0,117.0
1625,159.96908606250003,160.0236495,64.0,107.0
1626,159.7309910625,160.10400656250002,43.0,93.0
1627,160.44527606250003,160.4839665,55.0,93.0
1628,160.44527606250003,160.49587125000002,60.0,96.0
1629,160.44527606250003,160.49785537500003,64.0,93.0
1630,160.56432356250002,160.660553625,55.0,65.0
1631,160.56432356250002,160.67146631250003,60.0,72.0
1632,160.56432356250002,160.676426625,64.0,72.0
1633,160.2071810625,160.67841075,48.0,92.0
1634,160.92146606250003,160.96710093750002,60.0,102.0
1635,160.92146606250003,160.96908506250003,55.0,93.0
1636,160.92146606250003,160.9809898125,64.0,96.0
1637,160.68337106250002,161.05142625000002,43.0,92.0
1638,161.3976560625,161.450235375,64.0,95.0
1639,161.3976560625,161.45717981250002,60.0,112.0
1640,161.3976560625,161.466108375,57.0,95.0
1641,161.15956106250002,161.5524178125,45.0,76.0
1642,161.51670356250003,161.6238463125,60.0,67.0
1643,161.51670356250003,161.62781456250002,64.0,67.0
1644,161.51670356250003,161.63872725000002,57.0,71.0
1645,161.8738460625,161.9393221875,60.0,112.0
1646,161.8738460625,161.9452745625,64.0,95.0
1647,161.8738460625,161.95122693750002,57.0,95.0
1648,161.63575106250002,162.013726875,40.0,81.0
1649,162.3500360625,162.38376618750002,60.0,83.0
1650,162.3500360625,162.39170268750001,57.0,89.0
1651,162.3500360625,162.39963918750001,64.0,86.0
1652,162.4690835625,162.56928187500003,64.0,70.0
1653,162.4690835625,162.571266,57.0,59.0
1654,162.4690835625,162.57523425000002,60.0,77.0
1655,162.11194106250002,162.61690087500003,45.0,97.0
1656,162.8262260625,162.88078950000002,57.0,99.0
1657,162.8262260625,162.88078950000002,60.0,102.0
1658,162.8262260625,162.8817815625,64.0,96.0
1659,162.58813106250003,162.90955931250002,40.0,86.0
1660,163.30241606250001,163.34110650000002,60.0,90.0
1661,163.30241606250001,163.34705887500002,55.0,79.0
1662,163.30241606250001,163.3480509375,64.0,83.0
1663,163.4214635625,163.4928920625,55.0,60.0
1664,163.06432106250003,163.49586825000003,48.0,90.0
1665,163.4214635625,163.5167015625,64.0,69.0
1666,163.4214635625,163.52265393750002,60.0,75.0
1667,163.77860606250002,163.8321774375,55.0,93.0
1668,163.77860606250002,163.83316950000003,60.0,107.0
1669,163.77860606250002,163.8401139375,64.0,93.0
1670,163.54051106250003,163.93932018750002,43.0,92.0
1671,164.25479606250002,164.29150237500002,55.0,82.0
1672,164.25479606250002,164.30142300000003,60.0,99.0
1673,164.25479606250002,164.311343625,64.0,90.0
1674,164.3738435625,164.47304981250002,60.0,79.0
1675,164.3738435625,164.47801012500003,64.0,72.0
1676,164.3738435625,164.4849545625,55.0,66.0
1677,164.0167010625,164.497851375,48.0,96.0
1678,164.73098606250002,164.77860506250002,55.0,85.0
1679,164.73098606250002,164.7984463125,60.0,102.0
1680,164.73098606250002,164.80439868750003,64.0,88.0
1681,164.4928910625,164.866898625,43.0,92.0
1682,165.20717606250003,165.263723625,57.0,90.0
1683,165.20717606250003,165.26570775000002,64.0,90.0
1684,165.20717606250003,165.26769187500003,60.0,97.0
1685,165.32622356250002,165.42443775,60.0,65.0
1686,165.32622356250002,165.42642187500002,57.0,62.0
1687,165.32622356250002,165.42642187500002,64.0,66.0
1688,164.9690810625,165.45023137500002,45.0,93.0
1689,165.68336606250003,165.739913625,60.0,97.0
1690,165.68336606250003,165.74685806250002,57.0,92.0
1691,165.68336606250003,165.74884218750003,64.0,90.0
1692,165.4452710625,165.89169918750002,40.0,85.0
1693,166.15955606250003,166.2111433125,60.0,88.0
1694,166.15955606250003,166.21312743750002,57.0,81.0
1695,166.15955606250003,166.2170956875,64.0,78.0
1696,166.27860356250002,166.38078600000003,60.0,67.0
1697,166.27860356250002,166.39368281250003,57.0,63.0
1698,166.27860356250002,166.40161931250003,64.0,72.0
1699,165.92146106250001,166.4115399375,45.0,90.0
1700,166.6357460625,166.70717456250003,60.0,90.0
1701,166.6357460625,166.71610312500002,57.0,89.0
1702,166.6357460625,166.7270158125,64.0,83.0
1703,166.39765106250002,166.78653956250002,40.0,82.0
1704,167.1119360625,167.16649950000001,65.0,86.0
1705,167.1119360625,167.17046775000003,62.0,96.0
1706,167.1119360625,167.1774121875,57.0,82.0
1707,166.87384106250002,167.311340625,50.0,85.0
1708,167.23098356250003,167.32026918750003,57.0,68.0
1709,167.23098356250003,167.3252295,65.0,72.0
1710,167.23098356250003,167.32622156250002,62.0,76.0
1711,167.5881260625,167.64665775000003,57.0,97.0
1712,167.5881260625,167.6516180625,65.0,96.0
1713,167.5881260625,167.656578375,62.0,100.0
1714,167.35003106250002,167.77761,45.0,90.0
1715,168.0643160625,168.116895375,65.0,97.0
1716,168.0643160625,168.1198715625,57.0,97.0
1717,168.0643160625,168.12086362500003,62.0,107.0
1718,168.1833635625,168.285546,62.0,63.0
1719,168.1833635625,168.29745075000002,65.0,65.0
1720,168.1833635625,168.29943487500003,57.0,69.0
1721,167.82622106250003,168.30737137500003,50.0,73.0
1722,168.54050606250001,168.6198710625,65.0,90.0
1723,168.54050606250001,168.64467262500003,57.0,86.0
1724,168.54050606250001,168.656577375,62.0,102.0
1725,168.30241106250003,168.66054562500003,45.0,89.0
1726,169.01669606250002,169.06332300000003,57.0,83.0
1727,169.01669606250002,169.07721187500002,60.0,81.0
1728,168.77860106250003,169.243878375,45.0,107.0
1729,169.1357435625,169.2627275625,57.0,71.0
1730,169.1357435625,169.26867993750002,60.0,72.0
1731,169.49288606250002,169.55935425,57.0,97.0
1732,169.49288606250002,169.565306625,52.0,93.0
1733,169.49288606250002,169.57522725,60.0,93.0
1734,169.2547910625,169.6674890625,40.0,78.0
1735,169.96907606250002,170.03256806250002,64.0,92.0
1736,169.96907606250002,170.041496625,60.0,97.0
1737,169.96907606250002,170.06034581250003,57.0,79.0
1738,170.08812356250002,170.17939331250003,57.0,42.0
1739,170.08812356250002,170.20320281250002,64.0,52.0
1740,169.7309810625,170.21411550000002,45.0,67.0
1741,170.08812356250002,170.21609962500003,60.0,63.0
1742,170.44526606250002,170.49586125000002,60.0,93.0
1743,170.44526606250002,170.50280568750003,64.0,86.0
1744,170.44526606250002,170.51570250000003,57.0,90.0
1745,170.2071710625,170.51967075000002,40.0,83.0
1746,170.92145606250003,170.96907506250002,65.0,90.0
1747,170.92145606250003,170.970067125,62.0,97.0
1748,170.92145606250003,170.97701156250002,57.0,93.0
1749,170.6833610625,171.11490825,50.0,89.0
1750,171.04050356250002,171.13177331250003,57.0,68.0
1751,171.04050356250002,171.13871775,62.0,74.0
1752,171.04050356250002,171.14665425,65.0,76.0
1753,171.39764606250003,171.46709043750002,57.0,95.0
1754,171.39764606250003,171.4710586875,62.0,97.0
1755,171.39764606250003,171.47502693750002,65.0,90.0
1756,171.15955106250001,171.589114125,45.0,92.0
1757,171.8738360625,171.92939156250003,62.0,97.0
1758,171.8738360625,171.936336,65.0,99.0
1759,171.8738360625,171.94030425000003,57.0,92.0
1760,171.99288356250003,172.1079628125,57.0,55.0
1761,171.99288356250003,172.11391518750003,62.0,61.0
1762,171.99288356250003,172.120859625,65.0,66.0
1763,171.63574106250002,172.13871675000001,50.0,73.0
1764,172.11193106250002,172.40359743750003,45.0,88.0
1765,172.3500260625,172.40954981250002,65.0,92.0
1766,172.3500260625,172.43831962500002,57.0,96.0
1767,172.3500260625,172.450224375,62.0,100.0
1768,172.8262160625,172.862922375,59.0,97.0
1769,172.8262160625,172.8658985625,55.0,96.0
1770,172.8262160625,172.8758191875,62.0,92.0
1771,172.94526356250003,173.01966825000002,62.0,69.0
1772,172.94526356250003,173.02760475000002,59.0,68.0
1773,172.58812106250002,173.031573,43.0,96.0
1774,172.94526356250003,173.0365333125,55.0,66.0
1775,173.3024060625,173.34903300000002,55.0,97.0
1776,173.3024060625,173.3500250625,59.0,99.0
1777,173.3024060625,173.35994568750002,62.0,97.0
1778,173.06431106250002,173.47204875000003,38.0,89.0
1779,173.77859606250001,173.82919125,59.0,92.0
1780,173.77859606250001,173.83018331250003,62.0,89.0
1781,173.77859606250001,173.83712775,55.0,88.0
1782,173.8976435625,173.98792125000003,59.0,81.0
1783,173.8976435625,173.989905375,62.0,86.0
1784,173.54050106250003,173.99288156250003,43.0,90.0
1785,173.8976435625,174.00974662500002,55.0,74.0
1786,174.25478606250002,174.3182780625,59.0,97.0
1787,174.25478606250002,174.33613518750002,55.0,97.0
1788,174.01669106250003,174.3401034375,38.0,86.0
1789,174.25478606250002,174.34605581250003,62.0,95.0
1790,174.73097606250002,174.78256331250003,64.0,92.0
1791,174.73097606250002,174.78653156250002,60.0,97.0
1792,174.73097606250002,174.79149187500002,55.0,90.0
1793,174.49288106250003,174.94030125,48.0,97.0
1794,174.8500235625,174.94426950000002,55.0,69.0
1795,174.8500235625,174.9452615625,60.0,79.0
1796,174.8500235625,174.950221875,64.0,73.0
1797,175.20716606250002,175.26768187500002,64.0,92.0
1798,175.20716606250002,175.27859456250002,55.0,96.0
1799,175.20716606250002,175.279586625,60.0,102.0
1800,174.9690710625,175.39962618750002,43.0,92.0
1801,175.68335606250002,175.73097506250002,55.0,88.0
1802,175.68335606250002,175.73791950000003,60.0,102.0
1803,175.68335606250002,175.73791950000003,64.0,95.0
1804,175.80240356250002,175.8897050625,55.0,62.0
1805,175.80240356250002,175.89664950000002,60.0,59.0
1806,175.80240356250002,175.91252250000002,64.0,62.0
1807,175.4452610625,175.91847487500002,48.0,76.0
1808,176.15954606250003,176.2270063125,64.0,88.0
1809,176.15954606250003,176.24486343750002,60.0,99.0
1810,175.9214510625,176.29347450000003,43.0,89.0
1811,176.63573606250003,176.682363,57.0,97.0
1812,176.63573606250003,176.69129156250003,60.0,97.0
1813,176.63573606250003,176.6932756875,64.0,90.0
1814,176.75478356250002,176.83414856250002,57.0,59.0
1815,176.75478356250002,176.84704537500002,60.0,69.0
1816,176.75478356250002,176.85398981250003,64.0,70.0
1817,176.3976410625,176.8639104375,45.0,95.0
1818,177.11192606250003,177.16450537500003,60.0,93.0
1819,177.11192606250003,177.17343393750002,57.0,89.0
1820,177.11192606250003,177.18037837500003,64.0,88.0
1821,176.87383106250002,177.31728300000003,40.0,81.0
1822,177.5881160625,177.64168743750002,64.0,86.0
1823,177.5881160625,177.64367156250003,60.0,102.0
1824,177.5881160625,177.65557631250002,57.0,95.0
1825,177.70716356250003,177.795457125,57.0,52.0
1826,177.70716356250003,177.79942537500003,60.0,59.0
1827,177.70716356250003,177.811330125,64.0,66.0
1828,177.35002106250002,177.84406818750003,45.0,72.0
1829,178.0643060625,178.12680600000002,60.0,96.0
1830,178.0643060625,178.13871075000003,64.0,85.0
1831,178.0643060625,178.1456551875,57.0,92.0
1832,177.82621106250002,178.156567875,40.0,75.0
1833,178.5404960625,178.58613093750003,60.0,90.0
1834,178.5404960625,178.59208331250002,55.0,76.0
1835,178.5404960625,178.61589281250002,64.0,83.0
1836,178.6595435625,178.7666863125,64.0,69.0
1837,178.6595435625,178.76767837500003,60.0,65.0
1838,178.6595435625,178.7746228125,55.0,61.0
1839,178.30240106250002,178.78355137500003,48.0,92.0
1840,179.0166860625,179.07918600000002,60.0,102.0
1841,179.0166860625,179.085138375,64.0,92.0
1842,179.0166860625,179.09009868750002,55.0,95.0
1843,178.77859106250003,179.20517793750003,43.0,54.0
1844,179.49287606250002,179.5385109375,55.0,74.0
1845,179.49287606250002,179.5404950625,60.0,90.0
1846,179.49287606250002,179.5404950625,64.0,78.0
1847,179.6119235625,179.70319331250002,55.0,70.0
1848,179.6119235625,179.70319331250002,60.0,76.0
1849,179.6119235625,179.7170821875,64.0,73.0
1850,179.25478106250003,179.74287581250002,48.0,74.0
1851,179.96906606250002,180.05339137500002,60.0,99.0
1852,179.96906606250002,180.06827231250003,64.0,88.0
1853,179.73097106250003,180.07521675,43.0,89.0
1854,180.44525606250002,180.49287506250002,57.0,76.0
1855,180.44525606250002,180.49287506250002,60.0,83.0
1856,180.44525606250002,180.4988274375,64.0,73.0
1857,180.56430356250002,180.656565375,60.0,75.0
1858,180.56430356250002,180.65755743750003,57.0,66.0
1859,180.56430356250002,180.6595415625,64.0,72.0
1860,180.2071610625,180.68434312500003,45.0,90.0
1861,180.92144606250002,180.970057125,60.0,97.0
1862,180.92144606250002,180.97501743750001,57.0,88.0
1863,180.92144606250002,180.98493806250002,64.0,89.0
1864,180.6833510625,181.11886650000002,40.0,79.0
1865,181.39763606250003,181.44227887500003,60.0,93.0
1866,181.39763606250003,181.44723918750003,57.0,89.0
1867,181.39763606250003,181.45517568750003,64.0,83.0
1868,181.51668356250002,181.60894537500002,57.0,55.0
1869,181.51668356250002,181.61886600000003,60.0,60.0
1870,181.51668356250002,181.62481837500002,64.0,66.0
1871,181.1595410625,181.63870725,45.0,75.0
1872,181.87382606250003,181.936326,60.0,92.0
1873,181.87382606250003,181.93731806250003,57.0,83.0
1874,181.87382606250003,181.94624662500001,64.0,83.0
1875,181.6357310625,182.01073068750003,40.0,83.0
1876,182.35001606250003,182.396643,65.0,79.0
1877,182.35001606250003,182.40953981250001,62.0,96.0
1878,182.35001606250003,182.41152393750002,57.0,86.0
1879,182.11192106250002,182.565293625,50.0,75.0
1880,182.46906356250003,182.56926187500002,65.0,66.0
1881,182.46906356250003,182.57422218750003,57.0,61.0
1882,182.46906356250003,182.5762063125,62.0,71.0
1883,182.8262060625,182.88771393750002,65.0,92.0
1884,182.8262060625,182.894658375,62.0,99.0
1885,182.8262060625,182.89565043750002,57.0,92.0
1886,182.58811106250002,182.99783287500003,45.0,74.0
1887,183.3023960625,183.347038875,62.0,93.0
1888,183.3023960625,183.34902300000002,65.0,82.0
1889,183.3023960625,183.3519991875,57.0,90.0
1890,183.42144356250003,183.5206498125,62.0,65.0
1891,183.42144356250003,183.52263393750002,57.0,69.0
1892,183.42144356250003,183.533546625,65.0,64.0
1893,183.06430106250002,183.573229125,50.0,74.0
1894,183.7785860625,183.83612568750002,57.0,89.0
1895,183.7785860625,183.84803043750003,62.0,97.0
1896,183.7785860625,183.84803043750003,65.0,90.0
1897,183.54049106250002,183.90854625000003,45.0,88.0
1898,184.2547760625,184.31429981250002,65.0,72.0
1899,184.2547760625,184.315291875,57.0,85.0
1900,184.2547760625,184.32422043750003,62.0,82.0
1901,184.3738235625,184.46410125000003,62.0,69.0
1902,184.3738235625,184.46707743750002,57.0,63.0
1903,184.3738235625,184.4710456875,65.0,68.0
1904,184.01668106250003,184.5206488125,50.0,82.0
1905,184.73096606250002,184.7924739375,57.0,95.0
1906,184.73096606250002,184.79743425,65.0,89.0
1907,184.73096606250002,184.80537075,62.0,97.0
1908,184.49287106250003,184.84902150000002,45.0,81.0
1909,185.20715606250002,185.25080681250003,65.0,82.0
1910,185.20715606250002,185.25477506250002,62.0,95.0
1911,185.20715606250002,185.25973537500002,57.0,88.0
1912,184.96906106250003,185.4293780625,50.0,82.0
1913,185.3262035625,185.4392986875,62.0,56.0
1914,185.3262035625,185.44128281250002,57.0,61.0
1915,185.3262035625,185.44624312500002,65.0,58.0
1916,185.68334606250002,185.72302856250002,65.0,69.0
1917,185.68334606250002,185.76271106250002,57.0,90.0
1918,185.68334606250002,185.77957612500003,62.0,99.0
1919,185.4452510625,185.80140150000003,45.0,90.0
1920,186.15953606250002,186.20417887500003,65.0,70.0
1921,186.15953606250002,186.208147125,62.0,88.0
1922,186.15953606250002,186.22005187500002,57.0,81.0
1923,185.9214410625,186.25080581250003,50.0,96.0
1924,186.27858356250002,186.36687712500003,62.0,82.0
1925,186.27858356250002,186.36886125,57.0,70.0
1926,186.27858356250002,186.37282950000002,65.0,72.0
1927,186.63572606250003,186.6793768125,62.0,88.0
1928,186.63572606250003,186.6902895,65.0,81.0
1929,186.63572606250003,186.69326568750003,57.0,86.0
1930,186.3976310625,186.74187675000002,45.0,95.0
1931,187.11191606250003,187.17243187500003,62.0,83.0
1932,187.11191606250003,187.17739218750003,65.0,73.0
1933,187.11191606250003,187.18532868750003,57.0,72.0
1934,186.8738210625,187.247828625,50.0,93.0
1935,187.23096356250002,187.33016981250003,62.0,69.0
1936,187.23096356250002,187.3321539375,65.0,66.0
1937,187.23096356250002,187.335130125,57.0,64.0
1938,187.58810606250003,187.650606,57.0,86.0
1939,187.58810606250003,187.65457425000002,62.0,93.0
1940,187.35001106250002,187.65755043750002,45.0,93.0
1941,187.58810606250003,187.6585425,65.0,83.0
1942,188.06429606250003,188.11290712500002,67.0,52.0
1943,188.06429606250003,188.124811875,59.0,89.0
1944,188.06429606250003,188.12878012500002,62.0,78.0
1945,188.06429606250003,188.13274837500003,55.0,78.0
1946,187.82620106250002,188.15556581250001,43.0,102.0
1947,188.18334356250003,188.28056568750003,59.0,69.0
1948,188.18334356250003,188.28155775000002,55.0,63.0
1949,188.18334356250003,188.28850218750003,67.0,65.0
1950,188.18334356250003,188.28949425000002,62.0,69.0
1951,188.5404860625,188.60298600000002,67.0,79.0
1952,188.30239106250002,188.60794631250002,38.0,76.0
1953,188.5404860625,188.60794631250002,59.0,86.0
1954,188.5404860625,188.60993043750003,55.0,77.0
1955,188.5404860625,188.61191456250003,62.0,85.0
1956,189.0166760625,189.0563585625,67.0,65.0
1957,189.0166760625,189.0722315625,62.0,85.0
1958,189.0166760625,189.07520775000003,59.0,92.0
1959,189.0166760625,189.07619981250002,55.0,83.0
1960,188.77858106250002,189.15953306250003,43.0,93.0
1961,189.13572356250003,189.22600125000002,59.0,66.0
1962,189.13572356250003,189.23096156250003,62.0,68.0
1963,189.13572356250003,189.24088218750003,55.0,59.0
1964,189.13572356250003,189.24187425000002,67.0,72.0
1965,189.25477106250003,189.54643743750003,38.0,82.0
1966,189.4928660625,189.561318375,67.0,75.0
1967,189.4928660625,189.56330250000002,59.0,85.0
1968,189.4928660625,189.56627868750002,62.0,81.0
1969,189.4928660625,189.569254875,55.0,77.0
1970,189.96905606250002,190.0246115625,55.0,85.0
1971,189.96905606250002,190.02560362500003,60.0,97.0
1972,189.96905606250002,190.02857981250003,64.0,90.0
1973,189.73096106250003,190.08314325,48.0,102.0
1974,190.0881035625,190.172428875,55.0,76.0
1975,190.0881035625,190.17342093750003,64.0,86.0
1976,190.0881035625,190.18135743750003,60.0,86.0
1977,190.44524606250002,190.49484918750002,55.0,100.0
1978,190.44524606250002,190.49980950000003,60.0,117.0
1979,190.44524606250002,190.49980950000003,64.0,107.0
1980,190.20715106250003,190.5801665625,43.0,93.0
1981,190.92143606250002,190.96012650000003,55.0,93.0
1982,190.92143606250002,190.97203125000001,60.0,96.0
1983,190.92143606250002,190.97401537500002,64.0,93.0
1984,191.04048356250001,191.13671362500003,55.0,65.0
1985,191.04048356250001,191.14762631250002,60.0,72.0
1986,191.04048356250001,191.15258662500003,64.0,72.0
1987,190.68334106250003,191.15457075000003,48.0,92.0
1988,191.39762606250002,191.4432609375,60.0,102.0
1989,191.39762606250002,191.44524506250002,55.0,93.0
1990,191.39762606250002,191.4571498125,64.0,96.0
1991,191.1595310625,191.52758625,43.0,92.0
1992,191.87381606250003,191.92639537500003,64.0,95.0
1993,191.87381606250003,191.9333398125,60.0,112.0
1994,191.87381606250003,191.94226837500003,57.0,95.0
1995,191.6357210625,192.02857781250003,45.0,76.0
1996,191.99286356250002,192.10000631250003,60.0,67.0
1997,191.99286356250002,192.1039745625,64.0,67.0
1998,191.99286356250002,192.11488725,57.0,71.0
1999,192.35000606250003,192.41548218750003,60.0,112.0
2000,192.35000606250003,192.42143456250002,64.0,95.0
2001,192.35000606250003,192.42738693750002,57.0,95.0
2002,192.1119110625,192.48988687500002,40.0,81.0
2003,192.82619606250003,192.8599261875,60.0,83.0
2004,192.82619606250003,192.8678626875,57.0,89.0
2005,192.82619606250003,192.8757991875,64.0,86.0
2006,192.94524356250002,193.04544187500002,64.0,70.0
2007,192.94524356250002,193.04742600000003,57.0,59.0
2008,192.94524356250002,193.05139425000002,60.0,77.0
2009,192.58810106250002,193.09306087500002,45.0,97.0
2010,193.30238606250003,193.3569495,57.0,99.0
2011,193.30238606250003,193.3569495,60.0,102.0
2012,193.30238606250003,193.35794156250003,64.0,96.0
2013,193.06429106250002,193.38571931250002,40.0,86.0
2014,193.7785760625,193.81726650000002,60.0,90.0
2015,193.7785760625,193.823218875,55.0,79.0
2016,193.7785760625,193.82421093750003,64.0,83.0
2017,193.89762356250003,193.96905206250003,55.0,60.0
2018,193.54048106250002,193.97202825000002,48.0,90.0
2019,193.89762356250003,193.99286156250002,64.0,69.0
2020,193.89762356250003,193.99881393750002,60.0,75.0
2021,194.2547660625,194.30833743750003,55.0,93.0
2022,194.2547660625,194.30932950000002,60.0,107.0
2023,194.2547660625,194.31627393750003,64.0,93.0
2024,194.01667106250002,194.4154801875,43.0,92.0
2025,194.7309560625,194.76766237500001,55.0,82.0
2026,194.7309560625,194.77758300000002,60.0,99.0
2027,194.7309560625,194.78750362500003,64.0,90.0
2028,194.8500035625,194.94920981250002,60.0,79.0
2029,194.8500035625,194.95417012500002,64.0,72.0
2030,194.8500035625,194.96111456250003,55.0,66.0
2031,194.49286106250003,194.97401137500003,48.0,96.0
2032,195.20714606250002,195.2547650625,55.0,85.0
2033,195.20714606250002,195.27460631250003,60.0,102.0
2034,195.20714606250002,195.28055868750002,64.0,88.0
2035,194.96905106250003,195.34305862500003,43.0,92.0
2036,195.68333606250002,195.73988362500003,57.0,90.0
2037,195.68333606250002,195.74186775,64.0,90.0
2038,195.68333606250002,195.74385187500002,60.0,97.0
2039,195.8023835625,195.90059775000003,60.0,65.0
2040,195.8023835625,195.902581875,57.0,62.0
2041,195.8023835625,195.902581875,64.0,66.0
2042,195.44524106250003,195.926391375,45.0,93.0
2043,196.15952606250002,196.216073625,60.0,97.0
2044,196.15952606250002,196.22301806250002,57.0,92.0
2045,196.15952606250002,196.22500218750002,64.0,90.0
2046,195.92143106250003,196.36785918750002,40.0,85.0
2047,196.63571606250002,196.68730331250003,60.0,88.0
2048,196.63571606250002,196.6892874375,57.0,81.0
2049,196.63571606250002,196.69325568750003,64.0,78.0
2050,196.75476356250002,196.85694600000002,60.0,67.0
2051,196.75476356250002,196.86984281250002,57.0,63.0
2052,196.75476356250002,196.87777931250002,64.0,72.0
2053,196.3976210625,196.88769993750003,45.0,90.0
2054,197.11190606250003,197.18333456250002,60.0,90.0
2055,197.11190606250003,197.192263125,57.0,89.0
2056,197.11190606250003,197.20317581250004,64.0,83.0
2057,196.8738110625,197.26269956250002,40.0,82.0
2058,197.58809606250003,197.6426595,65.0,86.0
2059,197.58809606250003,197.64662775000002,62.0,96.0
2060,197.58809606250003,197.65357218750003,57.0,82.0
2061,197.3500010625,197.787500625,50.0,85.0
2062,197.70714356250002,197.79642918750002,57.0,68.0
2063,197.70714356250002,197.80138950000003,65.0,72.0
2064,197.70714356250002,197.80238156250002,62.0,76.0
2065,198.06428606250003,198.12281775000002,57.0,97.0
2066,198.06428606250003,198.12777806250003,65.0,96.0
2067,198.06428606250003,198.13273837500003,62.0,100.0
2068,197.82619106250002,198.25377000000003,45.0,90.0
2069,198.54047606250003,198.59305537500003,65.0,97.0
2070,198.54047606250003,198.59603156250003,57.0,97.0
2071,198.54047606250003,198.59702362500002,62.0,107.0
2072,198.65952356250003,198.76170600000003,62.0,63.0
2073,198.65952356250003,198.77361075000002,65.0,65.0
2074,198.65952356250003,198.77559487500002,57.0,69.0
2075,198.30238106250002,198.78353137500002,50.0,73.0
2076,199.0166660625,199.09603106250003,65.0,90.0
2077,199.0166660625,199.12083262500002,57.0,86.0
2078,199.0166660625,199.13273737500003,62.0,102.0
2079,198.77857106250002,199.13670562500002,45.0,89.0
2080,199.4928560625,199.53948300000002,57.0,83.0
2081,199.4928560625,199.553371875,60.0,81.0
2082,199.25476106250002,199.72003837500003,45.0,107.0
2083,199.61190356250003,199.73888756250003,57.0,71.0
2084,199.61190356250003,199.74483993750002,60.0,72.0
2085,199.9690460625,200.03551425000003,57.0,97.0
2086,199.9690460625,200.04146662500003,52.0,93.0
2087,199.9690460625,200.05138725000003,60.0,93.0
2088,199.73095106250003,200.14364906250003,40.0,78.0
2089,200.44523606250002,200.5087280625,64.0,92.0
2090,200.44523606250002,200.51765662500003,60.0,97.0
2091,200.44523606250002,200.53650581250002,57.0,79.0
2092,200.5642835625,200.65555331250002,57.0,42.0
2093,200.5642835625,200.67936281250002,64.0,52.0
2094,200.20714106250003,200.6902755,45.0,67.0
2095,200.5642835625,200.69225962500002,60.0,63.0
2096,200.92142606250002,200.97202125,60.0,93.0
2097,200.92142606250002,200.97896568750002,64.0,86.0
2098,200.92142606250002,200.99186250000002,57.0,90.0
2099,200.68333106250003,200.99583075,40.0,83.0
2100,201.39761606250002,201.44523506250002,65.0,90.0
2101,201.39761606250002,201.44622712500004,62.0,97.0
2102,201.39761606250002,201.45317156250002,57.0,93.0
2103,201.15952106250003,201.59106825000003,50.0,89.0
2104,201.5166635625,201.60793331250002,57.0,68.0
2105,201.5166635625,201.61487775000003,62.0,74.0
2106,201.5166635625,201.62281425000003,65.0,76.0
2107,201.87380606250002,201.9432504375,57.0,95.0
2108,201.87380606250002,201.94721868750003,62.0,97.0
2109,201.87380606250002,201.9511869375,65.0,90.0
2110,201.6357110625,202.06527412500003,45.0,92.0
2111,202.34999606250003,202.40555156250002,62.0,97.0
2112,202.34999606250003,202.41249600000003,65.0,99.0
2113,202.34999606250003,202.41646425000002,57.0,92.0
2114,202.46904356250002,202.58412281250003,57.0,55.0
2115,202.46904356250002,202.59007518750002,62.0,61.0
2116,202.46904356250002,202.59701962500003,65.0,66.0
2117,202.1119010625,202.61487675,50.0,73.0
2118,202.5880910625,202.87975743750002,45.0,88.0
2119,202.82618606250003,202.8857098125,65.0,92.0
2120,202.82618606250003,202.914479625,57.0,96.0
2121,202.82618606250003,202.92638437500003,62.0,100.0
2122,203.30237606250003,203.33908237500003,59.0,97.0
2123,203.30237606250003,203.34205856250003,55.0,96.0
2124,203.30237606250003,203.35197918750004,62.0,92.0
2125,203.42142356250002,203.49582825000002,62.0,69.0
2126,203.42142356250002,203.50376475000002,59.0,68.0
2127,203.06428106250002,203.50773300000003,43.0,96.0
2128,203.42142356250002,203.51269331250003,55.0,66.0
2129,203.77856606250003,203.825193,55.0,97.0
2130,203.77856606250003,203.82618506250003,59.0,99.0
2131,203.77856606250003,203.8361056875,62.0,97.0
2132,203.54047106250002,203.94820875000002,38.0,89.0
2133,204.25475606250004,204.30535125000003,59.0,92.0
2134,204.25475606250004,204.30634331250002,62.0,89.0
2135,204.25475606250004,204.31328775000003,55.0,88.0
2136,204.37380356250003,204.46408125000002,59.0,81.0
2137,204.37380356250003,204.46606537500003,62.0,86.0
2138,204.01666106250002,204.46904156250002,43.0,90.0
2139,204.37380356250003,204.485906625,55.0,74.0
2140,204.7309460625,204.79443806250003,59.0,97.0
2141,204.7309460625,204.8122951875,55.0,97.0
2142,204.49285106250002,204.81626343750003,38.0,86.0
2143,204.7309460625,204.82221581250002,62.0,95.0
2144,205.2071360625,205.25872331250002,64.0,92.0
2145,205.2071360625,205.2626915625,60.0,97.0
2146,205.2071360625,205.267651875,55.0,90.0
2147,204.96904106250003,205.41646125000003,48.0,97.0
2148,205.32618356250003,205.4204295,55.0,69.0
2149,205.32618356250003,205.42142156250003,60.0,79.0
2150,205.32618356250003,205.42638187500003,64.0,73.0
2151,205.68332606250002,205.74384187500002,64.0,92.0
2152,205.68332606250002,205.7547545625,55.0,96.0
2153,205.68332606250002,205.75574662500003,60.0,102.0
2154,205.44523106250003,205.8757861875,43.0,92.0
2155,206.15951606250002,206.20713506250002,55.0,88.0
2156,206.15951606250002,206.21407950000003,60.0,102.0
2157,206.15951606250002,206.21407950000003,64.0,95.0
2158,206.2785635625,206.36586506250003,55.0,62.0
2159,206.2785635625,206.37280950000002,60.0,59.0
2160,206.2785635625,206.38868250000002,64.0,62.0
2161,205.92142106250003,206.394634875,48.0,76.0
2162,206.63570606250002,206.70316631250003,64.0,88.0
2163,206.63570606250002,206.7210234375,60.0,99.0
2164,206.39761106250003,206.76963450000002,43.0,89.0
2165,207.11189606250002,207.15852300000003,57.0,97.0
2166,207.11189606250002,207.16745156250002,60.0,97.0
2167,207.11189606250002,207.16943568750003,64.0,90.0
2168,207.23094356250002,207.3103085625,57.0,59.0
2169,207.23094356250002,207.32320537500001,60.0,69.0
2170,207.23094356250002,207.33014981250003,64.0,70.0
2171,206.87380106250004,207.34007043750003,45.0,95.0
2172,207.58808606250003,207.64066537500003,60.0,93.0
2173,207.58808606250003,207.64959393750001,57.0,89.0
2174,207.58808606250003,207.65653837500003,64.0,88.0
2175,207.3499910625,207.79344300000002,40.0,81.0
2176,208.06427606250003,208.11784743750002,64.0,86.0
2177,208.06427606250003,208.11983156250002,60.0,102.0
2178,208.06427606250003,208.1317363125,57.0,95.0
2179,208.18332356250002,208.27161712500003,57.0,52.0
2180,208.18332356250002,208.27558537500002,60.0,59.0
2181,208.18332356250002,208.28749012500003,64.0,66.0
2182,207.8261810625,208.32022818750002,45.0,72.0
2183,208.54046606250003,208.602966,60.0,96.0
2184,208.54046606250003,208.61487075000002,64.0,85.0
2185,208.54046606250003,208.62181518750003,57.0,92.0
2186,208.30237106250001,208.63272787500003,40.0,75.0
2187,209.01665606250003,209.06229093750002,60.0,90.0
2188,209.01665606250003,209.06824331250002,55.0,76.0
2189,209.01665606250003,209.09205281250001,64.0,83.0
2190,209.13570356250003,209.24284631250003,64.0,69.0
2191,209.13570356250003,209.24383837500002,60.0,65.0
2192,209.13570356250003,209.25078281250003,55.0,61.0
2193,208.77856106250002,209.25971137500002,48.0,92.0
2194,209.49284606250004,209.55534600000001,60.0,102.0
2195,209.49284606250004,209.56129837500004,64.0,92.0
2196,209.49284606250004,209.5662586875,55.0,95.0
2197,209.25475106250002,209.68133793750002,43.0,54.0
2198,209.9690360625,210.01467093750003,55.0,74.0
2199,209.9690360625,210.01665506250004,60.0,90.0
2200,209.9690360625,210.01665506250004,64.0,78.0
2201,210.08808356250003,210.1793533125,55.0,70.0
2202,210.08808356250003,210.1793533125,60.0,76.0
2203,210.08808356250003,210.19324218750003,64.0,73.0
2204,209.73094106250002,210.2190358125,48.0,74.0
2205,210.4452260625,210.529551375,60.0,99.0
2206,210.4452260625,210.54443231250002,64.0,88.0
2207,210.20713106250003,210.55137675000003,43.0,89.0
2208,210.92141606250001,210.9690350625,57.0,76.0
2209,210.92141606250001,210.9690350625,60.0,83.0
2210,210.92141606250001,210.97498743750003,64.0,73.0
2211,211.04046356250004,211.13272537500004,60.0,75.0
2212,211.04046356250004,211.13371743750002,57.0,66.0
2213,211.04046356250004,211.13570156250003,64.0,72.0
2214,210.68332106250003,211.16050312500002,45.0,90.0
2215,211.39760606250002,211.44621712500003,60.0,97.0
2216,211.39760606250002,211.45117743750004,57.0,88.0
2217,211.39760606250002,211.4610980625,64.0,89.0
2218,211.15951106250003,211.59502650000002,40.0,79.0
2219,211.87379606250002,211.91843887500002,60.0,93.0
2220,211.87379606250002,211.92339918750002,57.0,89.0
2221,211.87379606250002,211.93133568750002,64.0,83.0
2222,211.9928435625,212.085105375,57.0,55.0
2223,211.9928435625,212.09502600000002,60.0,60.0
2224,211.9928435625,212.100978375,64.0,66.0
2225,211.63570106250003,212.11486725000003,45.0,75.0
2226,212.34998606250002,212.41248600000003,60.0,92.0
2227,212.34998606250002,212.41347806250002,57.0,83.0
2228,212.34998606250002,212.42240662500004,64.0,83.0
2229,212.11189106250004,212.48689068750002,40.0,83.0
2230,212.82617606250002,212.87280300000003,65.0,79.0
2231,212.82617606250002,212.88569981250004,62.0,96.0
2232,212.82617606250002,212.88768393750001,57.0,86.0
2233,212.5880810625,213.04145362500003,50.0,75.0
2234,212.94522356250002,213.04542187500002,65.0,66.0
2235,212.94522356250002,213.05038218750002,57.0,61.0
2236,212.94522356250002,213.05236631250003,62.0,71.0
2237,213.30236606250003,213.36387393750002,65.0,92.0
2238,213.30236606250003,213.37081837500003,62.0,99.0
2239,213.30236606250003,213.37181043750002,57.0,92.0
2240,213.0642710625,213.47399287500002,45.0,74.0
2241,213.77855606250003,213.82319887500003,62.0,93.0
2242,213.77855606250003,213.825183,65.0,82.0
2243,213.77855606250003,213.82815918750003,57.0,90.0
2244,213.89760356250002,213.99680981250003,62.0,65.0
2245,213.89760356250002,213.9987939375,57.0,69.0
2246,213.89760356250002,214.00970662500004,65.0,64.0
2247,213.54046106250001,214.04938912500003,50.0,74.0
2248,214.25474606250003,214.31228568750004,57.0,89.0
2249,214.25474606250003,214.32419043750002,62.0,97.0
2250,214.25474606250003,214.32419043750002,65.0,90.0
2251,214.01665106250002,214.38470625000002,45.0,88.0
2252,214.73093606250004,214.79045981250002,65.0,72.0
2253,214.73093606250004,214.79145187500004,57.0,85.0
2254,214.73093606250004,214.80038043750002,62.0,82.0
2255,214.84998356250003,214.94026125000002,62.0,69.0
2256,214.84998356250003,214.94323743750002,57.0,63.0
2257,214.84998356250003,214.94720568750003,65.0,68.0
2258,214.49284106250002,214.99680881250003,50.0,82.0
2259,215.2071260625,215.26863393750003,57.0,95.0
2260,215.2071260625,215.27359425000003,65.0,89.0
2261,215.2071260625,215.28153075000003,62.0,97.0
2262,214.96903106250002,215.3251815,45.0,81.0
2263,215.6833160625,215.72696681250002,65.0,82.0
2264,215.6833160625,215.7309350625,62.0,95.0
2265,215.6833160625,215.735895375,57.0,88.0
2266,215.44522106250002,215.90553806250003,50.0,82.0
2267,215.80236356250003,215.91545868750003,62.0,56.0
2268,215.80236356250003,215.9174428125,57.0,61.0
2269,215.80236356250003,215.92240312500002,65.0,58.0
2270,216.15950606250001,216.1991885625,65.0,69.0
2271,216.15950606250001,216.2388710625,57.0,90.0
2272,216.15950606250001,216.25573612500003,62.0,99.0
2273,215.92141106250003,216.27756150000002,45.0,90.0
2274,216.63569606250002,216.68033887500002,59.0,97.0
2275,216.63569606250002,216.68033887500002,62.0,92.0
2276,216.39760106250003,216.75275943750003,43.0,97.0
2277,216.7547435625,216.888672,59.0,59.0
2278,216.63569606250002,216.904545,55.0,89.0
2279,216.7547435625,216.920418,62.0,66.0
2280,216.7547435625,216.92934656250003,67.0,71.0
2281,217.11188606250002,217.16744156250002,67.0,77.0
2282,217.11188606250002,217.18033837500002,55.0,82.0
2283,217.11188606250002,217.18033837500002,59.0,89.0
2284,216.87379106250003,217.18629075,38.0,83.0
2285,217.11188606250002,217.18926693750004,62.0,92.0
2286,217.58807606250002,217.6257744375,67.0,63.0
2287,217.58807606250002,217.64263950000003,59.0,92.0
2288,217.58807606250002,217.65454425000001,55.0,77.0
2289,217.58807606250002,217.65553631250003,62.0,86.0
2290,217.34998106250004,217.70811562500003,43.0,92.0
2291,217.70712356250002,217.807321875,59.0,65.0
2292,217.70712356250002,217.823194875,67.0,63.0
2293,217.70712356250002,217.82517900000002,55.0,52.0
2294,217.70712356250002,217.82716312500003,62.0,58.0
2295,217.8261710625,218.07418668750003,38.0,83.0
2296,218.06426606250002,218.11783743750001,59.0,90.0
2297,218.06426606250002,218.12775806250002,55.0,82.0
2298,218.06426606250002,218.13569456250002,62.0,89.0
2299,218.54045606250003,218.59105125000002,55.0,81.0
2300,218.54045606250003,218.59601156250002,64.0,83.0
2301,218.54045606250003,218.60196393750002,60.0,90.0
2302,218.3023610625,218.71803525,48.0,86.0
2303,218.65950356250002,218.75474156250002,55.0,66.0
2304,218.65950356250002,218.76664631250003,60.0,74.0
2305,218.65950356250002,218.76664631250003,64.0,74.0
2306,219.01664606250003,219.06426506250003,55.0,92.0
2307,219.01664606250003,219.07220156250003,60.0,96.0
2308,219.01664606250003,219.07319362500002,64.0,90.0
2309,218.77855106250001,219.1237888125,43.0,92.0
2310,219.49283606250003,219.54144712500002,55.0,90.0
2311,219.49283606250003,219.54343125000003,64.0,95.0
2312,219.49283606250003,219.54442331250002,60.0,97.0
2313,219.25474106250002,219.63370893750002,48.0,92.0
2314,219.61188356250003,219.69521681250004,60.0,78.0
2315,219.61188356250003,219.70116918750003,55.0,71.0
2316,219.61188356250003,219.70712156250002,64.0,78.0
2317,219.73093106250002,220.0265656875,43.0,93.0
2318,219.96902606250003,220.02954187500004,55.0,88.0
2319,219.96902606250003,220.02954187500004,64.0,88.0
2320,219.96902606250003,220.03747837500003,60.0,96.0
2321,220.44521606250004,220.49184300000002,65.0,79.0
2322,220.44521606250004,220.50473981250002,62.0,96.0
2323,220.44521606250004,220.50672393750003,57.0,86.0
2324,220.20712106250002,220.66049362500002,50.0,75.0
2325,220.56426356250003,220.66446187500003,65.0,66.0
2326,220.56426356250003,220.66942218750003,57.0,61.0
2327,220.56426356250003,220.6714063125,62.0,71.0
2328,220.9214060625,220.98291393750003,65.0,92.0
2329,220.9214060625,220.989858375,62.0,99.0
2330,220.9214060625,220.99085043750003,57.0,92.0
2331,220.68331106250002,221.09303287500003,45.0,74.0
2332,221.3975960625,221.44223887500002,62.0,93.0
2333,221.3975960625,221.44422300000002,65.0,82.0
2334,221.3975960625,221.44719918750002,57.0,90.0
2335,221.51664356250004,221.61584981250002,62.0,65.0
2336,221.51664356250004,221.61783393750002,57.0,69.0
2337,221.51664356250004,221.62874662500002,65.0,64.0
2338,221.15950106250003,221.66842912500002,50.0,74.0
2339,221.87378606250002,221.93132568750002,57.0,89.0
2340,221.87378606250002,221.94323043750003,62.0,97.0
2341,221.87378606250002,221.94323043750003,65.0,90.0
2342,221.63569106250003,222.00374625000003,45.0,88.0
2343,222.34997606250002,222.40949981250003,65.0,72.0
2344,222.34997606250002,222.41049187500002,57.0,85.0
2345,222.34997606250002,222.41942043750004,62.0,82.0
2346,222.4690235625,222.55930125000003,62.0,69.0
2347,222.4690235625,222.56227743750003,57.0,63.0
2348,222.4690235625,222.56624568750001,65.0,68.0
2349,222.11188106250003,222.61584881250002,50.0,82.0
2350,222.82616606250002,222.8876739375,57.0,95.0
2351,222.82616606250002,222.89263425000001,65.0,89.0
2352,222.82616606250002,222.90057075,62.0,97.0
2353,222.58807106250003,222.94422150000003,45.0,81.0
2354,223.30235606250002,223.34600681250004,65.0,82.0
2355,223.30235606250002,223.34997506250002,62.0,95.0
2356,223.30235606250002,223.35493537500003,57.0,88.0
2357,223.06426106250004,223.5245780625,50.0,82.0
2358,223.42140356250002,223.53449868750002,62.0,56.0
2359,223.42140356250002,223.53648281250003,57.0,61.0
2360,223.42140356250002,223.54144312500003,65.0,58.0
2361,223.77854606250003,223.81822856250002,65.0,69.0
2362,223.77854606250003,223.85791106250002,57.0,90.0
2363,223.77854606250003,223.874776125,62.0,99.0
2364,223.5404510625,223.89660150000003,45.0,90.0
2365,224.0166410625,224.2745773125,43.0,102.0
2366,224.0166410625,224.30334712500002,59.0,96.0
2367,224.0166410625,224.31326775000002,55.0,92.0
2368,224.0166410625,224.31326775000002,62.0,95.0
2369,224.96902106250002,225.06921937500002,55.0,92.0
2370,224.96902106250002,225.0801320625,62.0,92.0
2371,224.96902106250002,225.1039415625,59.0,99.0
2372,224.96902106250002,225.14263200000002,43.0,99.0
2373,225.20711606250003,225.56525062500003,64.0,90.0
2374,225.20711606250003,225.56624268750002,57.0,88.0
2375,225.20711606250003,225.57616331250003,60.0,96.0
2376,225.20711606250003,225.6039410625,45.0,112.0
2377,226.1594960625,226.22596425000003,64.0,90.0
2378,226.1594960625,226.22695631250002,60.0,95.0
2379,226.1594960625,226.23092456250004,55.0,86.0
2380,225.92140106250002,226.23985312500002,48.0,88.0
2381,226.27854356250003,226.37378156250003,60.0,79.0
2382,226.27854356250003,226.37477362500002,64.0,81.0
2383,226.27854356250003,226.38271012500002,55.0,71.0
2384,226.6356860625,226.68628125000004,60.0,99.0
2385,226.6356860625,226.69719393750003,64.0,89.0
2386,226.6356860625,226.70017012500003,55.0,93.0
2387,226.39759106250003,226.72199550000002,43.0,85.0
2388,227.11187606250002,227.16247125,60.0,96.0
2389,227.11187606250002,227.17933631250003,55.0,89.0
2390,227.11187606250002,227.18032837500002,64.0,92.0
2391,227.23092356250004,227.34302662500002,55.0,52.0
2392,227.23092356250004,227.34699487500004,60.0,63.0
2393,227.23092356250004,227.35294725000003,64.0,63.0
2394,226.87378106250003,227.3569155,48.0,76.0
2395,227.58806606250002,227.63965331250003,60.0,96.0
2396,227.58806606250002,227.64560568750002,55.0,89.0
2397,227.58806606250002,227.64858187500002,64.0,89.0
2398,227.34997106250003,227.69719293750003,43.0,69.0
2399,228.06425606250002,228.10691475000002,60.0,97.0
2400,228.06425606250002,228.11881950000003,57.0,85.0
2401,228.06425606250002,228.11881950000003,64.0,88.0
2402,227.82616106250003,228.16941468750002,45.0,88.0
2403,228.18330356250002,228.31425581250002,57.0,58.0
2404,228.18330356250002,228.31723200000002,60.0,69.0
2405,228.18330356250002,228.32120025000003,64.0,71.0
2406,228.54044606250002,228.59798568750003,57.0,78.0
2407,228.54044606250002,228.59996981250004,60.0,92.0
2408,228.54044606250002,228.60096187500002,64.0,82.0
2409,228.30235106250004,228.67437450000003,40.0,76.0
2410,229.01663606250003,229.05334237500003,60.0,85.0
2411,229.01663606250003,229.06127887500003,64.0,76.0
2412,229.01663606250003,229.06326300000003,57.0,90.0
2413,228.7785410625,229.23885806250001,45.0,88.0
2414,229.13568356250002,229.25076281250003,64.0,71.0
2415,229.13568356250002,229.25274693750004,57.0,66.0
2416,229.13568356250002,229.25572312500003,60.0,71.0
2417,229.49282606250003,229.54639743750002,60.0,96.0
2418,229.49282606250003,229.55532600000004,57.0,89.0
2419,229.49282606250003,229.55532600000004,64.0,89.0
2420,229.2547310625,229.56227043750002,40.0,74.0
2421,229.96901606250003,230.02258743750002,65.0,78.0
2422,229.96901606250003,230.0235795,62.0,92.0
2423,229.96901606250003,230.03746837500003,57.0,81.0
2424,229.73092106250002,230.18627775000002,50.0,88.0
2425,230.08806356250003,230.1892539375,62.0,63.0
2426,230.08806356250003,230.19024600000003,65.0,64.0
2427,230.08806356250003,230.19223012500004,57.0,61.0
2428,230.44520606250003,230.50373775000003,62.0,96.0
2429,230.44520606250003,230.50373775000003,65.0,85.0
2430,230.44520606250003,230.51068218750004,57.0,86.0
2431,230.20711106250002,230.60988843750002,45.0,72.0
2432,230.92139606250004,230.96008650000002,62.0,95.0
2433,230.92139606250004,230.96603887500004,65.0,83.0
2434,230.92139606250004,230.97397537500004,57.0,89.0
2435,230.56425356250003,231.08607843750002,50.0,63.0
2436,231.04044356250003,231.14957043750002,57.0,65.0
2437,231.04044356250003,231.15651487500003,62.0,72.0
2438,231.04044356250003,231.16246725000002,65.0,70.0
2439,231.3975860625,231.44520506250004,65.0,81.0
2440,231.15949106250002,231.45611775000003,45.0,71.0
2441,231.3975860625,231.48191137500004,57.0,95.0
2442,231.3975860625,231.48290343750003,62.0,100.0
2443,231.8737760625,231.91941093750003,59.0,90.0
2444,231.8737760625,231.93329981250002,62.0,85.0
2445,231.8737760625,231.93627600000002,55.0,83.0
2446,231.99282356250004,232.09202981250002,55.0,55.0
2447,231.63568106250003,232.09302187500003,43.0,88.0
2448,231.99282356250004,232.09302187500003,59.0,61.0
2449,231.99282356250004,232.09302187500003,62.0,64.0
2450,232.34996606250002,232.40452950000002,59.0,97.0
2451,232.34996606250002,232.40948981250003,55.0,92.0
2452,232.34996606250002,232.4213945625,62.0,89.0
2453,232.11187106250003,232.51762462500002,38.0,77.0
2454,232.82615606250002,232.89163218750002,55.0,70.0
2455,232.82615606250002,232.89758456250001,59.0,78.0
2456,232.82615606250002,232.90254487500002,62.0,78.0
2457,232.46901356250004,232.92238612500003,43.0,61.0
2458,232.9452035625,233.05135425000003,55.0,54.0
2459,232.9452035625,233.05730662500002,62.0,62.0
2460,232.9452035625,233.06325900000002,59.0,65.0
2461,232.9452035625,233.21802075000002,38.0,88.0
2462,233.30234606250002,233.3559174375,59.0,96.0
2463,233.30234606250002,233.36087775000001,55.0,89.0
2464,233.30234606250002,233.3638539375,62.0,83.0
2465,233.54044106250004,237.89162718750003,55.0,89.0
2466,233.54044106250004,237.89757956250003,48.0,117.0
2467,233.54044106250004,237.9174208125,60.0,107.0
2468,233.54044106250004,237.92932556250003,64.0,99.0
