,start,end,pitch,velocity
0,34.125002843749996,34.28654131875,61.0,107.0
1,34.35577209375,34.546156725,70.0,97.0
2,34.58654134375,34.738464433333334,68.0,127.0
3,35.04807984375,35.28077217083333,61.0,79.0
4,35.27884909375,35.49807988125,70.0,102.0
5,35.50961834375,36.01346453958333,68.0,112.0
6,36.66346459375,37.359618497916664,73.0,127.0
7,37.58654159375,38.21923395416667,66.0,112.0
8,38.27884934375,40.95577264375,63.0,117.0
9,41.50961884375,41.65577270208333,61.0,95.0
10,41.74038809375,41.9192342625,70.0,85.0
11,41.97115734375,42.315388141666666,68.0,117.0
12,42.43269584375,42.613465089583336,61.0,88.0
13,42.66346509375,42.853849724999996,70.0,95.0
14,42.89423434375,43.730772875,68.0,112.0
15,44.04808059375,44.280772920833336,65.0,99.0
16,44.27884984375,44.84615758333333,66.0,102.0
17,44.97115759375,48.0807732375,73.0,127.0
18,48.43269634375,48.65192713125,66.0,102.0
19,48.66346559375,49.79423491875,73.0,99.0
20,49.81731184375,50.42692727916667,75.0,127.0
21,50.50961959375,51.898081247916664,68.0,107.0
22,52.35577359375,52.680773620833335,68.0,107.0
23,52.81731209375,52.95385056666667,66.0,107.0
24,53.04808134375,53.37115829375,68.0,112.0
25,53.50961984375,54.09615835416667,70.0,117.0
26,54.20192759375,55.10192766875,66.0,107.0
27,56.04808159375,56.33462007916667,71.0,102.0
28,56.50962009375,56.65962010625,70.0,102.0
29,56.74038934375,57.00000475,71.0,99.0
30,57.20192784375,57.644235572916664,78.0,112.0
31,57.89423559375,58.4423125625,71.0,107.0
32,58.58654334375,58.986543377083336,70.0,127.0
33,59.27885109375,59.42885110625,66.0,97.0
34,59.50962034375,60.45769734583333,68.0,117.0
35,63.66346684375,63.82500531875,61.0,107.0
36,63.89423609375,64.084620725,70.0,97.0
37,64.12500534375,64.27692843333334,68.0,127.0
38,64.58654384375,64.81923617083334,61.0,79.0
39,64.81731309375,65.03654388125,70.0,102.0
40,65.04808234375,65.55192853958333,68.0,112.0
41,66.20192859375,66.89808249791666,73.0,127.0
42,67.12500559375,67.75769795416667,66.0,112.0
43,67.81731334375,70.49423664375,63.0,117.0
44,71.04808284375,71.19423670208333,61.0,95.0
45,71.27885209375,71.4576982625,70.0,85.0
46,71.50962134375,71.85385214166666,68.0,117.0
47,71.97115984375,72.15192908958333,61.0,88.0
48,72.20192909375,72.392313725,70.0,95.0
49,72.43269834375,73.269236875,68.0,112.0
50,73.35577534375,73.51923689583333,61.0,102.0
51,73.58654459375,73.86154461666666,73.0,100.0
52,73.81731384375,73.99808308958333,71.0,95.0
53,74.30385234583333,74.44231389583334,70.0,100.0
54,74.43846774166667,74.6192369875,71.0,77.0
55,74.5846216,75.99039094791667,70.0,122.0
56,77.97116034375,78.19039113125,66.0,102.0
57,78.20192959375,79.33269891875,73.0,99.0
58,79.35577584375,79.96539127916667,75.0,127.0
59,80.04808359375,81.43654524791667,68.0,107.0
60,81.89423759375,82.21923762083333,68.0,107.0
61,82.35577609375,82.49231456666666,66.0,107.0
62,82.58654534375,82.90962229375,68.0,112.0
63,83.04808384374999,83.63462235416667,70.0,117.0
64,83.74039159375,84.64039166875,66.0,107.0
65,85.12500709375,85.25385325833334,68.0,122.0
66,85.35577634375,85.46923789166667,70.0,112.0
67,85.58654559375,85.9384687,71.0,112.0
68,86.04808409375,86.42885335625,71.0,117.0
69,86.50962259375,86.93846878333333,68.0,122.0
70,86.97116109375,87.24423803958334,66.0,112.0
71,87.43269959375,87.77693039166667,63.0,122.0
72,87.89423809375,88.06346887708334,66.0,112.0
73,88.35577659375,88.65769969583333,66.0,117.0
74,88.81731509375,88.90193048541667,68.0,99.0
75,89.04808434375,89.5038536125,68.0,127.0
76,89.50962284375,91.36346915208333,66.0,107.0
77,92.04808459375,92.14231537083333,78.0,127.0
78,92.27885384375,92.376930775,77.0,112.0
79,92.50962309375,92.65962310625,78.0,127.0
80,92.74039234375,92.84039235208333,77.0,100.0
81,92.97116159375,93.24039238541667,73.0,122.0
82,93.43270009375,93.51731548541666,70.0,127.0
83,93.66346934375,93.74231550416667,70.0,102.0
84,93.89423859375,93.97500783125,70.0,122.0
85,94.12500784375,94.3038540125,68.0,112.0
86,94.58654634375,95.43077718333333,70.0,127.0
87,95.74039259375,95.95577722708333,78.0,127.0
88,95.97116184375,96.20000801666667,77.0,83.0
89,96.20193109375,96.45770034583333,78.0,127.0
90,96.43270034375,96.62116189791666,77.0,92.0
91,96.66346959375,96.95000807916666,73.0,122.0
92,97.12500809375,97.20962348541667,70.0,127.0
93,97.35577734375,97.44616196666666,70.0,107.0
94,97.58654659375,97.72500814375,70.0,117.0
95,97.81731584375,98.03846970833334,68.0,117.0
96,98.27885434375,99.14616210833333,70.0,127.0
97,99.89423909375,99.97693140833333,73.0,127.0
98,100.12500834375,100.20577758125,73.0,107.0
99,100.35577759375,100.69808531458334,75.0,127.0
100,100.81731609375,100.89808533125,73.0,112.0
101,101.04808534375,101.57500846458333,73.0,122.0
102,101.97116234375,102.11154697083333,73.0,112.0
103,102.20193159375,102.54423931458334,75.0,112.0
104,102.66347009374999,102.9807778125,73.0,127.0
105,103.12500859375,103.24423937291667,66.0,107.0
106,103.35577784375,103.66731633124999,73.0,107.0
107,103.81731634375,104.05770097916667,70.0,107.0
108,104.04808559375,106.04423960625,68.0,122.0
109,106.81731659375,106.95770122083333,78.0,127.0
110,107.04808584375,107.18847047083334,77.0,97.0
111,107.27885509375,107.45962433958333,78.0,117.0
112,107.50962434375,107.62308589166666,77.0,95.0
113,107.74039359375,108.21347055625,73.0,127.0
114,108.20193209375,108.29039363958333,70.0,127.0
115,108.43270134375,108.50770135,70.0,112.0
116,108.66347059375,108.7500090625,70.0,122.0
117,108.89423984375,109.13270140208333,68.0,122.0
118,109.35577834375,109.90000915833333,70.0,127.0
119,110.50962459375,110.69231691666667,78.0,127.0
120,110.74039384375,110.88654770208333,77.0,99.0
121,110.97116309375,111.14616310833333,78.0,122.0
122,111.20193234375,111.28462465833333,77.0,96.0
123,111.43270159375,111.79231700833333,73.0,127.0
124,111.89424009375,112.11731703541666,70.0,127.0
125,112.35577859375,112.45577860208333,70.0,127.0
126,112.58654784375,112.81539401666667,68.0,127.0
127,113.04808634375,113.8269325625,70.0,127.0
128,114.89424034375,114.98270188958334,73.0,117.0
129,115.12500959375,115.50962501041667,75.0,127.0
130,115.58654809375,115.67116348541667,73.0,112.0
131,115.81731734375,116.4923174,73.0,122.0
132,116.74039434375,116.87116358541667,73.0,122.0
133,116.97116359375,117.38654824375,75.0,122.0
134,117.43270209375,117.68654826875,73.0,127.0
135,117.89424059375,118.04616368333333,70.0,127.0
136,118.35577909375,118.42500986875,73.0,112.0
137,118.58654834375,119.07500992291666,68.0,117.0
138,119.27885609375,120.80577929791667,66.0,117.0
139,122.74039484375,122.90193331875,61.0,107.0
140,122.97116409375,123.161548725,70.0,97.0
141,123.20193334375,123.35385643333333,68.0,127.0
142,123.66347184375,123.89616417083333,61.0,79.0
143,123.89424109375,124.11347188124999,70.0,102.0
144,124.12501034375,124.62885653958334,68.0,112.0
145,125.27885659374999,125.97501049791667,73.0,127.0
146,126.20193359375,126.83462595416667,66.0,112.0
147,126.89424134375,129.57116464375,63.0,117.0
148,130.12501084375,130.27116470208333,61.0,95.0
149,130.35578009375,130.5346262625,70.0,85.0
150,130.58654934375,130.93078014166667,68.0,117.0
151,131.04808784375,131.22885708958333,61.0,88.0
152,131.27885709375,131.469241725,70.0,95.0
153,131.50962634375,132.346164875,68.0,112.0
154,132.43270334375,132.63847259166667,61.0,107.0
155,132.66347259375,132.80001106666666,73.0,107.0
156,132.89424184375,133.06539570416666,71.0,90.0
157,133.12501109375,133.27308802916667,70.0,127.0
158,133.35578034375,133.61154959583334,71.0,95.0
159,133.58654959375,135.29231896666667,70.0,122.0
160,137.04808834375,137.26731913125,66.0,102.0
161,137.27885759375,138.40962691875,73.0,99.0
162,138.43270384375,139.04231927916666,75.0,127.0
163,139.12501159375,140.51347324791666,68.0,107.0
164,140.97116559375,141.56347333541666,68.0,127.0
165,141.89424259375,142.11347338125,73.0,117.0
166,142.35578109375,142.49231956666668,65.0,93.0
167,142.58655034375,143.053858075,68.0,117.0
168,143.04808884375,144.24424278958332,66.0,97.0
169,144.20193509375,144.3115504875,68.0,117.0
170,144.43270434375,144.5192428125,70.0,112.0
171,144.66347359375,144.91924284583334,71.0,112.0
172,145.12501209375,145.35578134375,70.0,127.0
173,145.58655059375,145.86539677083334,68.0,127.0
174,146.04808909375,146.34424296458334,66.0,97.0
175,146.50962759375,146.83270454375,63.0,127.0
176,146.97116609374999,147.22501226875,66.0,122.0
177,147.43270459375,147.6807815375,66.0,127.0
178,147.89424309375,147.97308925416667,68.0,112.0
179,148.12501234375,148.3730892875,68.0,127.0
180,148.58655084375,150.39616637916666,66.0,127.0
181,180.66347659375,180.75770737083334,78.0,127.0
182,180.89424584374999,180.992322775,77.0,112.0
183,181.12501509375,181.27501510625,78.0,127.0
184,181.35578434375,181.45578435208333,77.0,100.0
185,181.58655359375,181.85578438541665,73.0,122.0
186,182.04809209375,182.13270748541666,70.0,127.0
187,182.27886134375,182.35770750416665,70.0,102.0
188,182.50963059375,182.59039983125,70.0,122.0
189,182.74039984375,182.9192460125,68.0,112.0
190,183.20193834375,184.04616918333332,70.0,127.0
191,184.35578459375,184.57116922708335,78.0,127.0
192,184.58655384375,184.81540001666667,77.0,83.0
193,184.81732309375,185.07309234583335,78.0,127.0
194,185.04809234375,185.23655389791668,77.0,92.0
195,185.27886159375,185.56540007916666,73.0,122.0
196,185.74040009375,185.82501548541666,70.0,127.0
197,185.97116934375,186.06155396666668,70.0,107.0
198,186.20193859375,186.34040014375,70.0,117.0
199,186.43270784375,186.65386170833332,68.0,117.0
200,186.89424634375,187.76155410833334,70.0,127.0
201,188.50963109375,188.59232340833333,73.0,127.0
202,188.74040034375,188.82116958125,73.0,107.0
203,188.97116959375,189.31347731458334,75.0,127.0
204,189.43270809375,189.51347733125,73.0,112.0
205,189.66347734375,190.19040046458332,73.0,122.0
206,190.58655434375,190.72693897083334,73.0,112.0
207,190.81732359375,191.15963131458332,75.0,112.0
208,191.27886209375,191.5961698125,73.0,127.0
209,191.74040059375,191.85963137291665,66.0,107.0
210,191.97116984375,192.28270833125,73.0,107.0
211,192.43270834375,192.67309297916665,70.0,107.0
212,192.66347759375,194.65963160625,68.0,122.0
213,195.43270859375,195.57309322083333,78.0,127.0
214,195.66347784375,195.80386247083334,77.0,97.0
215,195.89424709375,196.07501633958333,78.0,117.0
216,196.12501634375,196.23847789166666,77.0,95.0
217,196.35578559375,196.82886255625,73.0,127.0
218,196.81732409375,196.90578563958334,70.0,127.0
219,197.04809334375,197.12309335,70.0,112.0
220,197.27886259375,197.3654010625,70.0,122.0
221,197.50963184375,197.74809340208333,68.0,122.0
222,197.97117034375,198.51540115833333,70.0,127.0
223,199.12501659375,199.30770891666666,78.0,127.0
224,199.35578584375,199.50193970208332,77.0,99.0
225,199.58655509375,199.76155510833334,78.0,122.0
226,199.81732434375,199.90001665833333,77.0,96.0
227,200.04809359375,200.40770900833334,73.0,127.0
228,200.50963209374999,200.73270903541666,70.0,127.0
229,200.97117059375,201.07117060208333,70.0,127.0
230,201.20193984375,201.43078601666667,68.0,127.0
231,201.66347834375,202.4423245625,70.0,127.0
232,203.50963234374998,203.59809388958334,73.0,117.0
233,203.74040159375,204.12501701041666,75.0,127.0
234,204.20194009375,204.28655548541667,73.0,112.0
235,204.43270934375,205.1077094,73.0,122.0
236,205.35578634375,205.48655558541665,73.0,122.0
237,205.58655559375,206.00194024375,75.0,122.0
238,206.04809409375,206.30194026875,73.0,127.0
239,206.50963259375,206.66155568333332,70.0,127.0
240,206.97117109375,207.04040186875,73.0,112.0
241,207.20194034375,207.69040192291666,68.0,117.0
242,207.89424809375,209.42117129791666,66.0,117.0
243,210.20194059375,210.29617137083332,78.0,127.0
244,210.43270984375,210.530786775,77.0,112.0
245,210.66347909375,210.81347910624999,78.0,127.0
246,210.89424834375,210.99424835208333,77.0,100.0
247,211.12501759375,211.39424838541666,73.0,122.0
248,211.58655609375,211.67117148541666,70.0,127.0
249,211.81732534374999,211.89617150416666,70.0,102.0
250,212.04809459375,212.12886383125,70.0,122.0
251,212.27886384375,212.4577100125,68.0,112.0
252,212.74040234375,213.58463318333332,70.0,127.0
253,213.89424859375,214.10963322708332,78.0,127.0
254,214.12501784375,214.35386401666668,77.0,83.0
255,214.35578709375,214.61155634583332,78.0,127.0
256,214.58655634375,214.77501789791665,77.0,92.0
257,214.81732559374998,215.10386407916667,73.0,122.0
258,215.27886409375,215.36347948541666,70.0,127.0
259,215.50963334375,215.60001796666666,70.0,107.0
260,215.74040259375,215.87886414375,70.0,117.0
261,215.97117184375,216.19232570833333,68.0,117.0
262,216.43271034375,217.30001810833332,70.0,127.0
263,218.04809509375,218.13078740833333,73.0,127.0
264,218.27886434375,218.35963358125,73.0,107.0
265,218.50963359375,218.85194131458334,75.0,127.0
266,218.97117209375,219.05194133125,73.0,112.0
267,219.20194134375,219.72886446458332,73.0,122.0
268,220.12501834374999,220.26540297083332,73.0,112.0
269,220.35578759375,220.69809531458333,75.0,112.0
270,220.81732609375,221.1346338125,73.0,127.0
271,221.97117234375,222.29617237083332,70.0,89.0
272,222.43271084375,223.90771096666666,73.0,99.0
273,224.74040334375,225.05194183125,68.0,96.0
274,225.43271109375,228.30963441041666,66.0,97.0
