,start,end,pitch,velocity
0,25.064164125,25.402001625000004,63.0,73.0
1,25.564163625000003,25.787136375000003,63.0,74.0
2,25.9138254375,27.341188875000004,63.0,75.0
3,27.2888240625,27.756729000000004,61.0,79.0
4,27.692539875,29.3496328125,58.0,71.0
5,30.315848062500002,30.667199062500003,63.0,71.0
6,30.733077375000004,31.0726040625,65.0,82.0
7,31.118212125000003,32.037130125000004,66.0,72.0
8,31.996589625000002,32.861453625,65.0,76.0
9,32.844561750000004,34.309087312500004,63.0,74.0
10,34.2719251875,34.9323975,61.0,71.0
11,34.874965125,37.912124250000005,63.0,79.0
12,38.8496233125,39.172258125000006,66.0,74.0
13,39.334420125,39.729690000000005,66.0,76.0
14,39.864825,40.788810562500004,66.0,81.0
15,40.763472750000005,41.586107062500005,65.0,78.0
16,41.5590800625,43.7144833125,63.0,77.0
17,44.086104562500005,44.4948879375,63.0,67.0
18,44.493198750000005,44.7702255,65.0,80.0
19,44.895225375,46.302318562500005,66.0,77.0
20,46.260088875,46.717858687500005,65.0,78.0
21,46.6975884375,47.58441187500001,63.0,75.0
22,47.557384875000004,48.471235312500006,61.0,78.0
23,48.422248875,51.0996110625,63.0,77.0
24,51.719542875,52.16886675000001,66.0,78.0
25,52.101299250000004,52.564136625,68.0,77.0
26,52.508393437500004,52.9340686875,70.0,78.0
27,52.901974125,53.36650068750001,73.0,81.0
28,53.31920343750001,54.18913500000001,68.0,77.0
29,54.206026875000006,54.9864315,66.0,74.0
30,54.94082343750001,55.390147312500005,65.0,79.0
31,55.374944625000005,56.15534925000001,63.0,79.0
32,56.135079000000005,56.56244343750001,61.0,78.0
33,56.53034887500001,57.4779830625,63.0,82.0
34,57.702645000000004,57.9323745,66.0,75.0
35,57.898590750000004,58.212779625,65.0,79.0
36,58.20771206250001,59.3969000625,63.0,80.0
37,59.369873062500005,59.65027818750001,66.0,78.0
38,59.604670125000005,59.807372625000006,65.0,78.0
39,59.940818437500006,60.6806825625,65.0,82.0
40,60.663790687500004,61.48135743750001,61.0,78.0
41,61.445884500000005,64.41885450000001,58.0,74.0
42,64.7482460625,65.192502375,66.0,82.0
43,65.16040781250001,65.61648843750001,68.0,75.0
44,65.5590560625,65.976285375,70.0,82.0
45,65.94419081250001,66.37831200000001,73.0,82.0
46,66.3377715,67.178986875,68.0,77.0
47,67.15871662500001,67.9323645,66.0,81.0
48,67.89520237500001,68.77357987500001,65.0,77.0
49,68.73979612500001,68.77357987500001,65.0,83.0
50,69.145201125,69.597903375,70.0,78.0
51,69.5759439375,70.65029032916667,63.0,78.0
52,70.88659146666667,71.098920025,66.0,77.0
53,71.0783721,71.27186506041667,65.0,84.0
54,71.30268694791667,72.32837087083334,63.0,75.0
55,72.49446659791667,72.69652119375,66.0,80.0
56,72.69309653958334,72.90884975208333,65.0,82.0
57,72.94994560208333,73.73076675208333,63.0,82.0
58,73.80610914375,74.42083456666667,70.0,82.0
59,74.54925909791666,77.48848225208333,70.0,78.0
60,77.84811876875,78.31075797708334,66.0,78.0
61,78.24092564375,78.71927712708333,68.0,77.0
62,78.66166545208334,79.10160915208334,70.0,78.0
63,79.07018460208333,79.54853608541667,73.0,81.0
64,79.49965345208334,80.39874474375,68.0,77.0
65,80.41794863541666,81.22276627708334,66.0,74.0
66,81.17562945208333,81.64001446875,65.0,79.0
67,81.62430219375,82.42442595,63.0,79.0
68,82.403679075,82.84109235625,61.0,78.0
69,82.8082431375,83.77815954375,63.0,82.0
70,84.00810407499999,84.243235325,66.0,75.0
71,84.2086572,84.5302337625,65.0,79.0
72,84.52504704374999,85.74855222708332,63.0,80.0
73,85.72061929374999,86.01042347708332,66.0,78.0
74,85.96328665208333,86.17278365208333,65.0,78.0
75,86.23388694375,87.00349252708332,63.0,82.0
76,87.07360062708334,87.47688235208334,66.0,78.0
77,87.45593265208333,88.26641516458332,65.0,83.0
78,88.25085500833333,90.64935147083334,63.0,78.0
79,91.16889799583333,91.61985752083334,66.0,82.0
80,91.58727869583333,92.04852627083334,68.0,75.0
81,91.99022732083333,92.41546672083334,70.0,82.0
82,92.38117322083333,92.82184469583333,73.0,82.0
83,92.78069249583334,93.63631532083333,68.0,77.0
84,93.61402454583333,94.40106037083333,66.0,81.0
85,94.36162284583334,95.25325384583333,65.0,77.0
86,95.21896034583334,95.25325384583333,65.0,83.0
87,95.63219702083333,96.09001524583333,70.0,78.0
88,96.06943914583333,97.15654309583333,63.0,78.0
89,97.39316824583334,97.60750262083333,66.0,77.0
90,97.58692652083333,97.77897012083334,65.0,84.0
91,97.80983427083333,98.83863927083334,63.0,75.0
92,99.00324807083334,99.20557972083333,66.0,80.0
93,99.20386504583334,99.41991409583333,65.0,82.0
94,99.46106629583333,100.24124342083333,63.0,82.0
95,100.70705699583334,101.16822119583334,66.0,80.0
96,101.14741679583334,101.82876089583334,65.0,83.0
97,101.82355979583333,104.45095654583334,63.0,78.0
98,105.1942939125,105.49057696666667,66.0,80.0
99,105.59050675416667,106.4355270625,65.0,83.0
100,106.43026760000001,109.37731975416666,63.0,77.0
101,111.83524189583333,112.69617223750001,65.0,78.0
102,113.43054694375,116.72825509583333,63.0,76.0
103,149.81067922499997,150.13662830416663,63.0,85.0
104,150.22207126666663,150.52586846666665,63.0,86.0
105,150.62871647708332,151.79801924166662,63.0,91.0
106,151.76479142291663,152.14137336874998,61.0,82.0
107,152.1239683208333,154.20149813124996,58.0,77.0
108,154.43883969374997,154.75054827916665,63.0,82.0
109,154.8154216395833,155.1334593333333,65.0,84.0
110,155.19200358541664,155.96731935624996,66.0,79.0
111,155.9404206458333,156.6666858270833,65.0,78.0
112,156.64453394791664,157.84706453124997,63.0,78.0
113,157.83282403749996,158.26795023541663,61.0,78.0
114,158.22681103124998,160.25845480624997,63.0,79.0
115,161.9783899958333,162.25054165416662,66.0,81.0
116,162.34864283333332,162.6049717208333,66.0,82.0
117,162.7236425020833,163.81383141249998,66.0,83.0
118,163.88028704999996,164.29642592291663,65.0,83.0
119,164.2806031520833,165.53060204791663,63.0,78.0
120,165.43250086874997,165.67775381666664,70.0,77.0
121,165.80275370624997,166.78376549791665,70.0,77.0
122,166.93724637499997,167.09389180624999,63.0,83.0
123,167.13186645624998,167.2806005020833,65.0,83.0
124,167.34389158541663,168.45939692916664,66.0,82.0
125,168.42142227916665,168.82964976666665,65.0,82.0
126,168.80433333333332,169.6255351395833,63.0,81.0
127,169.58914276666664,170.40559774166664,61.0,80.0
128,170.33123071874996,172.65084892291662,63.0,77.0
129,173.38660776666663,173.79958208541663,66.0,83.0
130,173.75369604999997,174.2204677895833,68.0,80.0
131,174.15242987499997,174.55907508541662,70.0,78.0
132,174.51318904999997,174.92458109166662,73.0,79.0
133,174.88818871874997,175.71730191041664,68.0,78.0
134,175.67932726041664,176.46730124791662,66.0,82.0
135,176.42141521249997,177.24261701874997,65.0,78.0
136,177.1967309833333,177.59862936249996,63.0,77.0
137,177.54957877291665,177.98786952499998,61.0,76.0
138,177.94514804374998,179.08280526666664,63.0,75.0
139,179.0764761583333,179.31698227499996,66.0,81.0
140,179.27426079374996,179.52109601874997,65.0,77.0
141,179.51002007916662,180.43090534166663,63.0,82.0
142,180.59387988124996,180.80274045624998,66.0,83.0
143,180.7758417458333,180.97362638124997,65.0,82.0
144,180.9941959833333,181.7394484895833,63.0,81.0
145,181.7394484895833,182.5796376208333,61.0,83.0
146,182.54324524791664,185.10969867708332,58.0,82.0
147,185.5986222958333,186.01476116874997,66.0,73.0
148,185.9451409770833,186.36919123541662,68.0,79.0
149,186.32172292291665,186.7093808083333,70.0,80.0
150,186.66982388124995,187.06855770624998,73.0,81.0
151,187.03532988749998,187.86602535624996,68.0,74.0
152,187.83437981458331,188.57805004374995,66.0,78.0
153,188.5464045020833,189.2679228520833,65.0,79.0
154,189.31222661041664,189.7283654833333,65.0,83.0
155,189.69513766458329,190.1033651520833,70.0,78.0
156,190.07804871874998,191.0764655583333,63.0,73.0
157,191.2520983145833,191.49735126249996,66.0,82.0
158,191.47203482916663,191.6698194645833,65.0,81.0
159,191.68564223541665,192.6334262083333,63.0,77.0
160,192.74260332708332,193.07171696041664,66.0,79.0
161,192.95779301041665,193.25367882499995,65.0,84.0
162,193.16190675416664,193.7726657083333,63.0,74.0
163,193.86918461041665,194.5511460333333,70.0,80.0
164,194.62867761041664,197.40715616874996,70.0,77.0
165,197.69038376666663,198.10335808541663,66.0,83.0
166,198.05747204999997,198.5242437895833,68.0,80.0
167,198.45620587499997,198.86285108541665,70.0,78.0
168,198.81696504999996,199.22835709166662,73.0,79.0
169,199.19196471874997,200.02107791041664,68.0,78.0
170,199.98310326041664,200.77107724791665,66.0,82.0
171,200.72519121249996,201.54639301874997,65.0,78.0
172,201.5005069833333,201.90240536249996,63.0,77.0
173,201.85335477291665,202.29164552499998,61.0,76.0
174,202.24892404374998,203.38658126666664,63.0,75.0
175,203.3802521583333,203.62075827499996,66.0,81.0
176,203.57803679374996,203.82487201874997,65.0,77.0
177,203.81379607916665,204.73468134166663,63.0,82.0
178,204.89765588124996,205.10651645624998,66.0,83.0
179,205.0796177458333,205.27740238124997,65.0,82.0
180,205.2979719833333,206.0432244895833,63.0,81.0
181,206.1856294270833,206.42138871249998,66.0,86.0
182,206.48309751874996,207.19353992916663,65.0,83.0
183,207.18404626666663,208.97043709374998,63.0,78.0
184,209.18404449999997,209.5891074333333,66.0,83.0
185,209.56379099999998,210.32803083124998,65.0,89.0
186,210.32328399999997,212.9356234645833,66.0,89.0
187,212.98150949999996,215.8651318020833,68.0,83.0
188,216.0178395083333,216.37835563958333,70.0,83.0
189,216.39567300833332,217.54649087708333,71.0,89.0
190,217.52917350833332,219.02319013958333,70.0,84.0
191,219.04050750833332,219.62142651458333,68.0,78.0
192,219.41834100833333,221.6475586583333,75.0,84.0
193,228.03767841666667,228.45065273541667,66.0,83.0
194,228.40476669999998,228.87153843958333,68.0,80.0
195,228.803500525,229.21014573541666,70.0,78.0
196,229.1642597,229.57565174166666,73.0,79.0
197,229.53925936875,230.36837256041667,68.0,78.0
198,230.33039791041665,231.11837189791666,66.0,82.0
199,231.0724858625,231.89422991874997,65.0,78.0
200,231.84819827916664,232.25137195,63.0,77.0
201,232.20216571458332,232.64184723749997,61.0,76.0
202,232.59899019374998,233.7402573958333,63.0,75.0
203,233.73390820416665,233.9751774875,66.0,81.0
204,233.93232044374997,234.17993891875,65.0,77.0
205,234.16882783333332,235.09263522083333,63.0,82.0
206,235.25612690625,235.46565023124998,66.0,83.0
207,235.43866616666665,235.63707840625,65.0,82.0
208,235.65771327916664,236.40533059791665,63.0,81.0
209,236.40533059791665,237.11167817083333,70.0,83.0
210,237.21167793958332,239.78627516041666,70.0,82.0
211,240.27675021666664,240.69420956874998,66.0,73.0
212,240.62436846041666,241.0497010395833,68.0,79.0
213,241.0021122270833,241.3907541958333,70.0,80.0
214,241.35109685208332,241.7508428770833,73.0,81.0
215,241.7175307083333,242.5503349270833,68.0,74.0
216,242.51860905208332,243.2641671145833,66.0,78.0
217,243.2324412395833,243.9557911895833,65.0,79.0
218,244.00020741458331,244.4174026708333,65.0,83.0
219,244.3840905020833,244.7933542895833,70.0,78.0
220,244.7679735895833,245.7689249458333,63.0,73.0
221,245.9450035520833,246.1908790833333,66.0,82.0
222,246.1654983833333,246.3637851020833,65.0,81.0
223,246.37964803958332,247.32983799583332,63.0,77.0
224,247.43929226458332,247.7692413645833,66.0,79.0
225,247.6550282145833,247.95166514583332,65.0,84.0
226,247.85966010833332,248.4726773458333,63.0,74.0
227,248.6300199020833,248.9892059395833,66.0,78.0
228,248.9828486645833,249.7504896208333,65.0,83.0
229,249.7250605208333,252.37007990416663,63.0,78.0
230,261.53184059166665,261.7292504875,70.0,81.0
231,261.7087198583333,261.9219225458333,68.0,76.0
232,261.8950748,263.780734125,70.0,82.0
233,263.75388637916666,264.1945052666666,68.0,82.0
234,264.1518647291666,264.58774577916665,73.0,83.0
235,264.5466845208333,266.8555906625,70.0,80.0
236,266.8240050791666,266.8555906625,70.0,84.0
237,267.154074425,267.56310772916663,68.0,82.0
238,267.57100412499994,268.9844589791666,66.0,84.0
239,269.0555265416666,269.49140759166664,65.0,84.0
240,269.4377121,269.87359315,66.0,86.0
241,269.83253189166663,270.9143381208333,68.0,82.0
242,270.56215886666666,271.0517354083333,58.0,82.0
243,270.97277145,271.69766058749997,65.0,81.0
244,271.6676542833333,273.4174956,63.0,78.0
245,274.7377729833333,275.2162945708333,63.0,81.0
246,275.2999963666666,275.6000594083333,63.0,77.0
247,275.6869197625,277.0529962416666,63.0,75.0
248,277.0166728208333,277.5709998083333,61.0,77.0
249,277.5236214333333,280.0078275625,58.0,74.0
250,280.27946357916665,280.73271669999997,63.0,77.0
251,280.73745453749996,281.197024775,65.0,83.0
252,281.2428238708333,282.6594372833333,66.0,76.0
253,282.6325895375,283.9149642208333,65.0,82.0
254,283.869165125,285.62374427916666,63.0,71.0
255,287.39727478333333,290.170489,61.0,66.0
256,290.11679350833333,294.2971454625,63.0,74.0
