,start,end,pitch,velocity
0,0.5016886875000001,0.7162155000000001,66.0,74.0
1,0.50675625,0.726350625,63.0,66.0
2,0.13175662500000002,0.9881746875,51.0,69.0
3,0.8310802500000001,1.2077690625000002,66.0,71.0
4,0.8361478125,1.219593375,63.0,70.0
5,1.4628363750000002,1.6199308125,66.0,73.0
6,1.4577688125000001,1.6266875625000001,70.0,73.0
7,1.456079625,1.6317551250000002,63.0,70.0
8,1.1402015625000002,1.6672280625000002,51.0,82.0
9,1.7871603750000002,2.0118223125,70.0,74.0
10,1.7922279375,2.0185790625,66.0,70.0
11,1.7989846875000002,2.0489844375,63.0,66.0
12,2.4527002500000004,2.6114838750000002,68.0,65.0
13,2.435808375,2.6199298125,65.0,76.0
14,2.4374975625000004,2.6216190000000004,62.0,66.0
15,2.0962816875000003,2.8091188125000004,50.0,70.0
16,2.7871593750000003,3.1469563125000004,68.0,69.0
17,2.766889125,3.1706049375000003,65.0,82.0
18,2.7719566875000003,3.2010103125000002,62.0,68.0
19,3.3986452500000004,3.5878342500000002,65.0,73.0
20,3.4054020000000005,3.5996585625,68.0,65.0
21,3.4037128125000002,3.6047261250000004,62.0,65.0
22,3.1013482500000005,3.652023375,50.0,67.0
23,3.7567530000000002,3.9949284375000005,65.0,83.0
24,3.74999625,4.010131125,62.0,69.0
25,3.7635097500000003,4.082766187500001,68.0,73.0
26,4.4172253125,4.5692521875,65.0,76.0
27,4.415536125,4.5760089375,68.0,77.0
28,4.413846937500001,4.5895224375,61.0,71.0
29,4.077698625,4.841211375,49.0,78.0
30,4.7483060625,5.165535375,68.0,75.0
31,4.73648175,5.175670500000001,65.0,76.0
32,4.7415493125,5.1773596875,61.0,70.0
33,5.3429000625,5.532089062500001,61.0,71.0
34,5.347967625000001,5.532089062500001,65.0,79.0
35,5.3496568125,5.53377825,68.0,76.0
36,5.0253328125,5.770264500000001,56.0,73.0
37,5.672291625000001,5.9645210625,65.0,83.0
38,5.6773591875000005,5.969588625,68.0,76.0
39,5.673980812500001,5.989858875,61.0,79.0
40,6.581074500000001,6.755060812500001,60.0,69.0
41,6.597966375,6.765195937500001,66.0,72.0
42,6.587831250000001,6.7702635,63.0,60.0
43,6.121615500000001,6.9712768125,48.0,79.0
44,6.9121552500000005,7.226344125000001,66.0,76.0
45,6.907087687500001,7.2550603125,63.0,74.0
46,6.902020125000001,7.266884625,60.0,73.0
47,7.228033312500001,7.70945175,54.0,68.0
48,7.5506681250000005,7.70945175,60.0,74.0
49,7.5489789375,7.711140937500001,63.0,75.0
50,7.547289750000001,7.714519312500001,66.0,76.0
51,7.896951562500001,8.131748625,60.0,77.0
52,7.891884000000001,8.1469513125,63.0,77.0
53,7.890194812500001,8.158775625,66.0,77.0
54,8.630058937500001,8.820937125,63.0,76.0
55,8.628369750000001,8.839518187500001,59.0,64.0
56,8.631748125000001,8.84458575,66.0,71.0
57,8.216208,9.170598937500001,47.0,71.0
58,9.0388423125,9.486477,66.0,72.0
59,9.0405315,9.5219499375,63.0,74.0
60,9.047288250000001,9.5489769375,59.0,67.0
61,9.756747,9.942557625000001,63.0,83.0
62,9.758436187500001,9.956071125000001,59.0,69.0
63,9.7516794375,9.962827875,66.0,79.0
64,10.1097871875,10.275327562500001,63.0,80.0
65,10.108098,10.280395125,59.0,71.0
66,9.417220312500001,10.334449125,47.0,71.0
67,10.1131655625,10.412151750000001,66.0,81.0
68,10.4070841875,10.902016125000001,46.0,68.0
69,10.7854621875,10.9577593125,65.0,81.0
70,10.790529750000001,10.978029562500002,58.0,72.0
71,11.160461812500001,11.6232991875,65.0,78.0
72,11.15539425,11.643569437500002,58.0,70.0
73,11.788839562500002,11.962825875000002,65.0,80.0
74,11.7922179375,11.972961000000002,58.0,73.0
75,12.1638391875,12.2854606875,65.0,80.0
76,12.16215,12.305730937500002,58.0,73.0
77,11.4611371875,12.353028187500001,53.0,72.0
78,13.03377075,13.2449191875,63.0,73.0
79,13.025324812500001,13.246608375000001,59.0,63.0
80,13.027014000000001,13.249986750000001,56.0,72.0
81,12.548973937500001,13.5253243125,44.0,79.0
82,13.4273514375,13.744918687500002,63.0,76.0
83,13.429040625,13.761810562500001,59.0,61.0
84,13.422283875000002,13.7854591875,56.0,71.0
85,14.109783187500001,14.258431687500002,59.0,66.0
86,14.111472375000002,14.268566812500001,56.0,74.0
87,14.104715625,14.280391125000001,63.0,78.0
88,13.753364625000001,14.307418125000002,51.0,71.0
89,14.466201750000002,14.716201500000002,59.0,77.0
90,14.474647687500001,14.7314041875,56.0,77.0
91,14.4712693125,15.128363250000001,63.0,79.0
92,15.214511812500001,15.314173875000002,63.0,44.0
93,15.22295775,15.4172143125,59.0,60.0
94,15.206065875000002,15.423971062500001,53.0,71.0
95,15.207755062500002,15.442552125,56.0,71.0
96,14.819241937500001,15.743227500000001,41.0,83.0
97,15.624984375000002,15.810795,53.0,78.0
98,15.618227625000001,15.825997687500001,59.0,66.0
99,15.616538437500001,15.831065250000002,56.0,80.0
100,15.623295187500002,15.832754437500002,63.0,78.0
101,16.0084299375,16.260118875,59.0,68.0
102,16.010119125000003,16.270254,53.0,82.0
103,16.006740750000002,16.2820783125,56.0,72.0
104,16.003362375000002,16.2989701875,63.0,80.0
105,15.998294812500001,16.606402312500002,41.0,84.0
106,16.4036998125,16.606402312500002,53.0,83.0
107,16.4003214375,16.611469875,56.0,82.0
108,16.4003214375,16.6165374375,59.0,75.0
109,16.398632250000002,16.6232941875,63.0,82.0
110,16.8158615625,17.0895099375,53.0,86.0
111,16.807415625,17.099645062500002,59.0,84.0
112,16.809104812500003,17.135118000000002,56.0,86.0
113,16.805726437500002,17.236469250000003,63.0,83.0
114,18.20944125,18.442549125000003,58.0,69.0
115,18.219576375000003,18.459441,62.0,71.0
116,18.60133275,18.908764875000003,65.0,77.0
117,18.841197375,19.297278000000002,70.0,74.0
118,17.79052275,19.567548000000002,53.0,83.0
119,17.278698937500003,19.800655875,46.0,84.0
120,19.2955888125,20.827681875000003,62.0,68.0
121,19.072616062500003,20.925654750000003,58.0,65.0
122,21.158762625,22.128356250000003,53.0,59.0
123,21.2297085,22.18241025,62.0,69.0
124,21.1705869375,22.185788625,58.0,64.0
125,20.9982898125,22.1976129375,46.0,60.0
126,21.349640812500002,22.212815625,70.0,70.0
127,21.307411125,22.217883187500004,65.0,48.0
128,23.945922000000003,25.131731625000004,63.0,62.0
129,24.0388273125,25.163826187500003,66.0,62.0
130,23.972949000000003,25.577677125,51.0,63.0
131,24.0658543125,25.630041937500003,70.0,68.0
132,25.8395011875,26.934094687500004,49.0,78.0
133,25.876663312500003,26.949297375000004,65.0,54.0
134,25.74997425,27.021932437500002,61.0,62.0
135,25.94592,27.109770187500004,70.0,78.0
136,27.538823812500002,28.450985062500003,59.0,66.0
137,27.706053375000003,28.530376875,63.0,69.0
138,29.214497812500003,30.239834625000004,82.0,68.0
139,29.403686812500002,30.3327399375,94.0,85.0
140,27.670580437500004,30.5050370625,47.0,68.0
141,29.309092312500002,30.510104625000004,54.0,53.0
142,31.0928743125,32.1671975625,56.0,65.0
143,31.172266125000004,32.2347650625,63.0,72.0
144,31.146928312500002,32.23645425,44.0,66.0
145,32.73645375,33.9036823125,58.0,61.0
146,32.77699425,33.908749875000005,61.0,73.0
147,33.6536825625,34.1705739375,53.0,71.0
148,32.7989536875,34.408749375000006,46.0,70.0
149,34.4459115,34.6638166875,58.0,50.0
150,34.5151681875,34.824289500000006,63.0,69.0
151,34.591181625000004,35.672261625000004,66.0,78.0
152,34.574289750000005,36.11651793750001,51.0,73.0
153,35.961112687500005,36.526990500000004,58.0,69.0
154,36.401990625,36.798949687500006,63.0,68.0
155,36.84455775,37.08780075000001,58.0,66.0
156,36.398612250000006,37.1570574375,66.0,67.0
157,37.2280033125,37.418881500000005,58.0,71.0
158,36.407058187500006,37.726313625,51.0,70.0
159,37.229692500000006,37.8378,65.0,82.0
160,37.888475625000005,38.086110562500004,58.0,62.0
161,37.969556625,38.741515312500006,63.0,68.0
162,38.043880875000006,38.996582625,51.0,74.0
163,38.0320565625,39.16381218750001,66.0,70.0
164,39.611446875000006,40.3057029375,61.0,57.0
165,39.6773251875,40.6671890625,65.0,71.0
166,40.143540937500006,40.766851125,56.0,61.0
167,39.7313791875,40.766851125,68.0,66.0
168,39.714487312500005,40.8158375625,49.0,74.0
169,40.624959375,41.062458937500004,61.0,79.0
170,41.569215187500006,42.44590350000001,63.0,67.0
171,41.6367826875,43.003335375000006,66.0,61.0
172,43.18238925000001,43.4611051875,59.0,70.0
173,43.175632500000006,43.77698325,63.0,67.0
174,43.594551,43.881712875000005,59.0,77.0
175,41.591174625,44.195901750000004,47.0,68.0
176,42.38340356250001,44.20096931250001,54.0,67.0
177,44.008401937500004,44.37157725,59.0,79.0
178,44.01346950000001,44.624955375000006,63.0,82.0
179,44.48306362500001,44.805698437500006,47.0,82.0
180,44.854684875000004,45.34454925000001,56.0,70.0
181,44.92563075,45.494886937500006,59.0,71.0
182,44.9982658125,45.648603,63.0,70.0
183,45.7972515,46.192521375000005,56.0,79.0
184,45.369887062500005,46.314142875,51.0,66.0
185,44.942522625,46.361440125,44.0,78.0
186,46.665493875,47.249952750000006,58.0,72.0
187,47.454344437500005,47.697587437500005,58.0,75.0
188,47.45941200000001,48.064141125000006,61.0,77.0
189,47.077655625000006,48.14184375000001,53.0,71.0
190,46.685764125000006,48.2246139375,46.0,82.0
191,48.322586812500006,48.9070456875,59.0,67.0
192,48.417181312500006,49.288802062500004,63.0,71.0
193,49.219545375,49.680693562500004,59.0,75.0
194,49.6266395625,49.87326093750001,63.0,77.0
195,49.96616625000001,50.768530312500005,59.0,48.0
196,50.0658283125,50.775287062500006,63.0,77.0
197,50.150287687500004,50.793868125,66.0,78.0
198,50.962786875000006,51.214475812500005,59.0,76.0
199,48.824275500000006,51.665488875,54.0,40.0
200,48.3648165,51.68238075000001,47.0,76.0
201,51.37663781250001,51.7347455625,59.0,83.0
202,50.964476062500005,51.785421187500006,63.0,80.0
203,52.506704250000006,52.695893250000005,63.0,75.0
204,51.809069812500006,53.0827171875,51.0,83.0
205,52.19589375,53.102987437500005,58.0,73.0
206,52.569204187500006,53.2550143125,66.0,72.0
207,52.611433875,53.863121812500005,70.0,76.0
208,54.13508100000001,54.2651484375,61.0,66.0
209,53.722919250000004,54.334405125,56.0,72.0
210,53.31075750000001,54.374945625,49.0,83.0
211,54.130013437500004,54.694202062500004,65.0,78.0
212,54.52697250000001,54.7110939375,61.0,68.0
213,54.998255812500005,55.43406618750001,63.0,67.0
214,55.00332337500001,55.5185255625,66.0,74.0
215,55.38845812500001,56.050619625,54.0,67.0
216,55.775282062500004,56.29555181250001,63.0,83.0
217,56.548929937500006,56.95264575,63.0,68.0
218,56.559065062500004,56.99318625000001,66.0,68.0
219,56.1756195,57.4374425625,54.0,69.0
220,54.99656662500001,57.45264525,47.0,73.0
221,57.33946968750001,57.67392881250001,66.0,82.0
222,57.3428480625,57.7110909375,70.0,79.0
223,57.712780125,57.9948744375,63.0,70.0
224,58.170549937500006,58.69250887500001,63.0,71.0
225,58.17730668750001,58.695887250000006,68.0,71.0
226,58.570887375000005,59.113116562500004,51.0,68.0
227,58.17561750000001,59.221224562500005,44.0,72.0
228,58.97460318750001,59.39014331250001,71.0,70.0
229,58.979670750000004,59.39858925000001,68.0,71.0
230,59.702643,59.950953562500004,65.0,64.0
231,59.841156375000004,60.226291125,70.0,74.0
232,60.63676368750001,61.126628062500004,58.0,71.0
233,60.23811543750001,61.16885775000001,53.0,69.0
234,59.83608881250001,61.23642525,46.0,76.0
235,61.04385787500001,61.493181750000005,61.0,84.0
236,61.445884500000005,61.9509515625,63.0,79.0
237,61.83608681250001,62.4273024375,58.0,70.0
238,62.25838368750001,62.74993725,66.0,77.0
239,61.477979062500005,62.92392356250001,51.0,82.0
240,62.636761687500005,63.092842312500004,58.0,69.0
241,63.0151396875,63.38507175000001,65.0,82.0
242,63.4070311875,63.719530875000004,58.0,87.0
243,63.82594968750001,64.02020625,58.0,83.0
244,63.045545062500004,64.192503375,51.0,82.0
245,63.827638875000005,64.28203031250001,63.0,82.0
246,64.54047600000001,64.70263800000001,58.0,69.0
247,64.6232461875,64.7752730625,63.0,77.0
248,64.68574612500001,65.14689431250001,66.0,81.0
249,65.0624349375,65.56074525000001,58.0,77.0
250,64.66040831250001,65.60297493750001,51.0,84.0
251,65.51682637500001,65.928988125,63.0,72.0
252,65.90871787500001,65.9509475625,58.0,54.0
253,65.5185155625,65.98304212500001,66.0,74.0
254,66.23304187500001,66.459393,61.0,69.0
255,66.32763637500001,67.17223012500001,65.0,78.0
256,66.39689306250001,67.2212165625,68.0,74.0
257,66.73979812500001,67.26175706250001,56.0,67.0
258,66.35804175000001,67.30905431250001,49.0,84.0
259,67.16885175,67.449256875,61.0,83.0
260,67.935742875,68.32594518750001,63.0,70.0
261,67.9306753125,68.8495933125,66.0,76.0
262,68.33776950000001,69.7448626875,54.0,51.0
263,69.5218899375,69.9644570625,66.0,73.0
264,68.753309625,69.989794875,59.0,74.0
265,69.1299984375,70.0421596875,63.0,78.0
266,69.9475651875,70.50161868750001,54.0,60.0
267,67.918851,70.54070139583334,47.0,78.0
268,70.36817287500001,70.68111221666666,59.0,82.0
269,70.36648368750001,70.71707108541666,63.0,82.0
270,71.05953650208333,71.30782392916667,56.0,72.0
271,71.13830354791666,71.57837160833333,59.0,73.0
272,71.24789248125,71.72220708333333,63.0,81.0
273,71.63659072916667,72.14343954583333,51.0,76.0
274,72.02700130416666,72.32323388958334,56.0,74.0
275,72.02015199583333,72.35405577708333,59.0,81.0
276,72.03727526666667,72.45850772916667,63.0,82.0
277,71.21022128541667,72.5886445875,44.0,78.0
278,72.44309678541667,72.73419238958333,51.0,77.0
279,72.76158962291666,72.9585072375,58.0,68.0
280,72.8043978,73.318095925,61.0,73.0
281,72.90028811666667,73.3489178125,65.0,81.0
282,73.66056134166666,73.92254738541666,58.0,77.0
283,73.21878095416666,73.98419116041667,53.0,75.0
284,72.84206899583333,74.00131443125,46.0,83.0
285,73.66741065,74.02015002916667,61.0,79.0
286,74.3763140625,74.51330022916666,58.0,63.0
287,74.4174099125,74.77014929166667,63.0,77.0
288,74.51330022916666,75.03898482708333,66.0,80.0
289,74.87519176458333,75.33208820208333,58.0,75.0
290,75.26829511458334,75.73208810208334,65.0,82.0
291,74.47049205208333,75.83898462708333,51.0,82.0
292,75.65967432708334,76.10231043541667,58.0,79.0
293,76.02200325208334,76.46020114375,63.0,79.0
294,76.40084366041667,76.65747748541666,58.0,72.0
295,76.03946133541666,76.67842718541667,66.0,80.0
296,76.83554993541667,77.03457208541667,58.0,77.0
297,76.84078736041667,77.84113553541667,65.0,83.0
298,76.02898648541667,77.87256008541667,51.0,84.0
299,78.61976605208334,78.81529658541666,63.0,75.0
300,77.89874721041667,79.21508669375,51.0,83.0
301,78.29853731875001,79.23603639375,58.0,73.0
302,78.68436096041667,79.39315914375,66.0,72.0
303,78.72800616875,80.02165014375001,70.0,76.0
304,80.30272528541667,80.43715252708333,61.0,66.0
305,79.87674805208333,80.50873066875,56.0,72.0
306,79.45077081875,80.55063006875,49.0,83.0
307,80.29748786041667,80.88058784375,65.0,78.0
308,80.70775281875,80.89804592708333,61.0,68.0
309,81.19483334375,81.64525189375,63.0,67.0
310,81.20007076875,81.73254231041666,66.0,74.0
311,81.59811506875,82.27746891875,54.0,67.0
312,81.9956572,82.528160325,63.0,83.0
313,82.7874962625,83.20070485625,63.0,68.0
314,82.79786969999999,83.24219860625,66.0,68.0
315,82.40540798125,83.69690095,54.0,69.0
316,81.19308753541667,83.71246110625,47.0,73.0
317,83.5966243875,83.938947825,66.0,82.0
318,83.6000822,83.9769837625,70.0,79.0
319,83.97871266874999,84.2674400125,63.0,70.0
320,84.4472462625,84.98147829375,63.0,71.0
321,84.45416188749999,84.98493610625,68.0,71.0
322,84.85699704375,85.41510283541666,51.0,68.0
323,84.45243298125,85.52683456874999,44.0,72.0
324,85.27194655208332,85.70141540208333,71.0,70.0
325,85.27718397708333,85.71014444375,68.0,71.0
326,86.02438994375,86.28102376874999,65.0,64.0
327,86.16754622708332,86.56802072083333,70.0,74.0
328,86.99644035208333,87.50306947708333,58.0,71.0
329,86.58036202708332,87.54671468541666,53.0,69.0
330,86.16230880208333,87.61654701875,46.0,76.0
331,87.41752486875,87.88190988541666,61.0,84.0
332,87.83302725208333,88.35286047708333,63.0,79.0
333,88.23529485208333,88.84036934583334,58.0,70.0
334,88.66752141458332,89.16787227083333,66.0,77.0
335,87.86619761041666,89.34448379583333,51.0,82.0
336,89.05298904583333,89.51595129583333,58.0,69.0
337,89.43707624583332,89.81259007083334,65.0,82.0
338,89.83488084583333,90.15209572083333,58.0,87.0
339,90.26012024583333,90.45730787083333,58.0,83.0
340,89.46794039583332,90.63220472083333,51.0,82.0
341,90.26183492083334,90.72308249583332,63.0,82.0
342,90.98542777083333,91.15003657083334,58.0,69.0
343,91.06944684583333,91.22376759583334,63.0,77.0
344,91.13288982083333,91.60099609583334,66.0,81.0
345,91.51526234583334,92.02109147083333,58.0,77.0
346,91.10716969583333,92.06395834583333,51.0,84.0
347,91.97650992083334,92.39489062083334,63.0,72.0
348,92.37431452083334,92.41718139583332,58.0,54.0
349,91.97822459583332,92.44976022083333,66.0,74.0
350,92.70353212083333,92.93329857083333,61.0,69.0
351,92.79955392083333,93.65689142083333,65.0,78.0
352,92.86985559583333,93.70661699583333,68.0,74.0
353,93.21793462083333,93.74776919583333,56.0,67.0
354,92.83041807083333,93.79578009583334,49.0,84.0
355,93.65346207083333,93.93809812083333,61.0,83.0
356,94.43192452083333,94.82801444583333,63.0,70.0
357,94.42678049583333,95.35956369583333,66.0,76.0
358,94.84001717083333,96.26834144583333,54.0,51.0
359,96.04200434583333,96.49124919583333,66.0,73.0
360,95.26182722083334,96.51696932083334,59.0,74.0
361,95.64419974583333,96.57012424583333,63.0,78.0
362,96.47410244583334,97.03651584583334,54.0,60.0
363,94.41477777083333,97.07595337083333,47.0,78.0
364,96.90105652083334,97.21655672083334,59.0,82.0
365,96.89934184583333,97.25256489583333,63.0,82.0
366,97.59549989583333,97.84412777083334,56.0,72.0
367,97.67437494583334,98.11504642083334,59.0,73.0
368,97.78411414583333,98.25907912083333,63.0,81.0
369,98.17334537083333,98.68088917083334,51.0,76.0
370,98.56429127083334,98.86093004583333,56.0,74.0
371,98.55743257083333,98.89179419583333,59.0,81.0
372,98.57457932083334,98.99638937083333,63.0,82.0
373,97.74639129583333,99.12670467083333,44.0,78.0
374,98.98095729583333,99.27245204583333,51.0,77.0
375,99.29988684583333,99.49707447083333,58.0,68.0
376,99.34275372083333,99.85715622083333,61.0,73.0
377,99.43877552083333,99.88802037083333,65.0,81.0
378,100.20009122083333,100.46433899583334,58.0,77.0
379,99.75770507083334,100.52675219583334,53.0,75.0
380,99.38047657083334,100.54408919583334,46.0,83.0
381,100.20694992083334,100.56315989583334,61.0,79.0
382,101.18902559583334,101.51842859583334,58.0,66.0
383,101.26877579583333,101.72473889583334,63.0,72.0
384,101.33118899583334,101.79755429583334,66.0,66.0
385,101.66232569583335,102.03686325833334,58.0,64.0
386,102.01253309583333,102.7223465375,66.0,74.0
387,102.33665262083333,102.75916277500001,58.0,71.0
388,102.696049225,103.3955577375,65.0,83.0
389,103.09226206666666,103.63924616666667,58.0,68.0
390,104.021433775,105.04702896250001,58.0,72.0
391,103.56035422916666,105.35558409583334,63.0,76.0
392,101.08326989583334,105.57122205833333,39.0,83.0
393,106.12171246666666,106.33209096666667,56.0,62.0
394,106.19183863333333,106.82297413333333,61.0,72.0
395,106.29702788333333,107.2139275125,65.0,75.0
396,106.22865487083334,107.3401546125,49.0,72.0
397,106.73882273333334,107.50144479583334,56.0,66.0
398,107.20340858750001,107.56455834583333,61.0,77.0
399,108.02739104583334,108.58664722500001,59.0,64.0
400,108.16413707083333,109.01266368750001,63.0,75.0
401,108.94604382916667,109.64905865,59.0,72.0
402,109.33173774583334,109.6753559625,63.0,76.0
403,109.7595073625,110.48180687916667,59.0,70.0
404,109.75775420833334,110.522129425,63.0,68.0
405,109.764766825,110.53264835,66.0,75.0
406,108.523533675,110.963924275,54.0,64.0
407,108.06946674583334,111.34085242083333,47.0,81.0
408,113.07464430833333,113.32638031875,56.0,68.0
409,110.64134390833334,113.50172747083333,59.0,69.0
410,110.65010967916666,113.69964405833333,63.0,72.0
411,113.15797760833334,113.88193565208334,61.0,77.0
412,113.25346368125,114.37032706041667,65.0,83.0
413,113.75519959166667,114.41159251041668,56.0,69.0
414,113.18922759583333,114.55774097916668,49.0,73.0
415,114.34453615416668,115.21798817916668,61.0,84.0
416,115.14749303541667,115.29708029166667,58.0,62.0
417,116.21565335000001,116.70781914583334,51.0,78.0
418,115.21970757291668,116.72144311250001,63.0,78.0
419,116.6396993125,116.77934497083334,58.0,79.0
420,115.76095346250001,118.30352624166667,46.0,50.0
421,117.29535270833334,118.31885320416667,70.0,71.0
422,117.24596582916668,118.3205562,63.0,71.0
423,115.19563606041667,118.33588316250001,39.0,83.0
424,118.44998388333335,119.19110045208333,56.0,72.0
425,118.52832169166668,119.22740748333334,59.0,70.0
426,118.62709545000001,119.22740748333334,63.0,76.0
427,119.14269107708333,119.65444732708333,51.0,65.0
428,119.45562310833333,119.77028404583334,59.0,72.0
429,118.53853966666668,119.79448873333334,44.0,80.0
430,119.47118326458333,119.81523560833334,56.0,72.0
431,119.45908092083333,119.82733795208333,63.0,77.0
432,120.17657701458333,120.40306373333333,56.0,69.0
433,120.24054654583333,120.43418404583333,64.0,70.0
434,120.32007623333334,120.87159732708334,65.0,82.0
435,120.77132076458334,121.04967467083333,56.0,76.0
436,120.28722701458334,121.52424720208333,49.0,78.0
437,121.37585349374999,121.52773881875,56.0,79.0
438,121.37061606875,121.73898162708332,63.0,82.0
439,121.64296216874999,121.89435856875,56.0,73.0
440,121.95197024375,122.50888310208333,61.0,71.0
441,122.69393878541666,122.95231841875,58.0,75.0
442,122.43206753541666,122.97675973541666,49.0,59.0
443,122.69219297708332,123.00469266875,54.0,74.0
444,121.93625796875,123.04135464375,42.0,76.0
445,123.43066990208332,123.59826750208333,54.0,64.0
446,123.49351900208333,123.82173096874999,59.0,66.0
447,123.58255522708333,123.99456599374999,63.0,69.0
448,124.09931449374999,124.26342047708333,54.0,66.0
449,123.56684295208332,124.58115759374999,47.0,74.0
450,124.39086448541666,124.73129711041666,54.0,83.0
451,124.38038963541666,124.75050100208333,59.0,80.0
452,125.14156206874999,125.33550236874999,65.0,75.0
453,125.17298661874999,125.75452626874998,68.0,73.0
454,125.23583571875,125.89420090208333,71.0,67.0
455,125.21488601875,125.91011320208332,41.0,72.0
456,125.78104676874999,125.94193780208333,65.0,65.0
457,126.08338046875,126.22659116874999,68.0,80.0
458,126.08514850208333,126.25134363541666,65.0,83.0
459,126.78528970208332,127.14420046874999,58.0,65.0
460,126.84186676875,127.49603910208333,62.0,66.0
461,126.91082006874998,127.56322436874999,66.0,77.0
462,127.42708580208333,127.64632193541665,58.0,68.0
463,127.75770803541666,128.01937696874998,58.0,73.0
464,127.75594000208332,128.30403033541666,62.0,74.0
465,127.77362033541665,128.3553033020833,65.0,82.0
466,126.90374793541666,128.50205006874998,46.0,73.0
467,128.29342213541665,128.91576986875,58.0,68.0
468,128.57984353541667,129.18627896875,63.0,69.0
469,128.6258124020833,129.23224783541664,68.0,74.0
470,129.43203560208332,129.60883893541666,63.0,83.0
471,129.15268633541666,129.6335914020833,46.0,54.0
472,128.64172470208334,129.73260126875,39.0,83.0
473,129.42673150208333,129.77503406875,68.0,84.0
474,129.71138486875,130.05791940208331,63.0,76.0
475,129.97482183541666,130.22941863541666,68.0,71.0
476,130.28422766875,130.85707046874998,63.0,70.0
477,130.28953176874998,130.88889506875,67.0,74.0
478,130.84115816874998,131.2513419020833,58.0,59.0
479,131.12581153541666,131.30791896875,63.0,78.0
480,130.27715553541665,131.35035176875,51.0,83.0
481,131.11697136875,131.47057803541665,67.0,82.0
482,131.1240435020833,131.5059387020833,70.0,78.0
483,131.83302486875,132.02397246875,63.0,70.0
484,131.92142653541666,132.11237413541664,68.0,71.0
485,131.96739540208333,132.13889463541665,71.0,74.0
486,132.50310950208333,132.90975716875,51.0,57.0
487,132.81958746875,133.02114326875,56.0,75.0
488,132.81605140208333,133.02998343541665,59.0,73.0
489,131.96032326875,133.04059163541666,44.0,81.0
490,132.82135550208332,133.06180803541665,63.0,82.0
491,133.53917703541666,133.74073283541665,56.0,69.0
492,133.59575410208333,133.93875256874998,61.0,73.0
493,133.69299593541666,134.21986986874998,65.0,82.0
494,134.22694200208332,134.43556993541665,56.0,76.0
495,134.54518800208334,134.82984136874998,56.0,81.0
496,133.69830003541665,134.94476353541666,49.0,82.0
497,134.53988390208332,134.95006763541664,61.0,83.0
498,135.09151030208332,135.40975630208334,59.0,65.0
499,135.40091613541665,135.86767693541665,58.0,75.0
500,135.40268416875,135.8765171020833,54.0,70.0
501,135.96166556875,136.41523654374998,49.0,52.0
502,135.39561203541666,136.44023651875,42.0,77.0
503,136.23487958125,136.55630783125,61.0,81.0
504,136.23666529374998,136.58666494374998,54.0,79.0
505,137.05630733125,137.14737866874998,59.0,62.0
506,137.10273585624998,137.89023506875,63.0,73.0
507,137.75987805625,138.42237739375,54.0,51.0
508,137.08309301875,138.55273440624998,47.0,78.0
509,138.07773488125,139.06880531874998,59.0,68.0
510,138.08844915625,139.86344738124998,63.0,75.0
511,139.59023336874998,139.96880441874998,53.0,71.0
512,139.34201933125,140.12773283125,41.0,65.0
513,139.71166181875,140.12773283125,56.0,68.0
514,139.81701885625,140.23308986875,59.0,69.0
515,139.98309011875,140.69201798125,63.0,80.0
516,141.21880316875,143.89296411249998,53.0,68.0
517,140.85273210625,144.3692386125,46.0,82.0
518,141.58665994375,147.462490375,58.0,70.0
519,142.04201663125,147.462490375,62.0,49.0
520,149.64928696249996,150.07966632916663,63.0,77.0
521,149.07966721249997,150.47048876874996,51.0,83.0
522,149.47681876041665,150.47048876874996,58.0,60.0
523,150.02745118541662,150.50213431041664,66.0,76.0
524,150.41669134791664,150.7094126083333,63.0,71.0
525,150.9989693145833,151.66036113541665,61.0,75.0
526,151.18567801041664,151.76320914583332,65.0,77.0
527,150.61605826041665,151.93093051666665,49.0,82.0
528,150.80909606458331,151.93567734791662,56.0,69.0
529,151.76162686874997,152.06858862291665,66.0,76.0
530,151.94833556458332,152.17301891041663,65.0,78.0
531,152.13662653749998,152.49738571249998,63.0,76.0
532,152.68725896249998,153.13187882291663,59.0,73.0
533,152.1619429708333,153.4768152270833,47.0,65.0
534,152.5037148208333,153.5670050208333,54.0,68.0
535,153.07966367916663,153.6999162958333,63.0,80.0
536,153.43567602291662,153.8802958833333,59.0,71.0
537,153.64928342916664,154.56700413749996,66.0,78.0
538,154.40561187499998,154.7299786770833,54.0,78.0
539,153.65086570624996,154.75529511041663,47.0,72.0
540,154.59864967916664,154.82333302499998,59.0,80.0
541,154.95466202291664,155.2331427895833,59.0,74.0
542,154.7774469895833,155.31067436666663,63.0,81.0
543,155.74738284166665,156.20940774999997,56.0,80.0
544,155.5559273145833,156.54168593749998,51.0,71.0
545,155.16352259791663,156.5575087083333,44.0,82.0
546,156.1302938958333,156.62079979166663,63.0,81.0
547,156.6951668145833,156.73947057291664,58.0,57.0
548,156.68409087499998,157.31067259999998,61.0,76.0
549,157.24896379374997,157.65244444999996,56.0,75.0
550,157.62554573958332,157.90719106041664,61.0,78.0
551,157.05434371249996,157.97997580624997,53.0,75.0
552,156.67934404374998,158.07491243124997,46.0,82.0
553,158.19674776666665,158.44991209999998,58.0,72.0
554,158.5749119895833,158.74896246874997,58.0,61.0
555,158.18883638124998,158.82016493749998,63.0,77.0
556,158.19200093541664,159.58282249166663,51.0,82.0
557,158.77744345624998,159.75845524791663,66.0,82.0
558,160.1081384833333,160.34864459999997,58.0,67.0
559,159.72680970624998,160.36130281666664,63.0,77.0
560,160.29168262499996,160.72206199166664,66.0,82.0
561,160.6587709083333,160.89453019374997,63.0,74.0
562,160.8628846520833,160.9435807833333,58.0,58.0
563,159.72048059791663,160.95940355416664,51.0,82.0
564,161.2378843208333,161.46731449791665,58.0,71.0
565,161.22997293541664,161.71889655416663,63.0,77.0
566,161.61446626666662,161.73313704791664,58.0,63.0
567,161.80750407083332,162.19832651041665,66.0,82.0
568,161.23630204374996,162.22680749791664,51.0,80.0
569,162.15718730624997,162.39452886874997,63.0,75.0
570,162.36446560416664,162.4340857958333,58.0,65.0
571,162.7521234895833,163.1366168208333,61.0,70.0
572,162.75370576666663,163.22522433749998,65.0,76.0
573,163.12079404999997,163.68408469166664,56.0,65.0
574,162.75528804374997,163.7252238958333,49.0,83.0
575,163.3312369020833,163.97047684374996,61.0,80.0
576,163.90402120624998,164.25845127291663,65.0,79.0
577,164.28693226041665,164.73471667499996,63.0,74.0
578,164.8407292395833,165.3961084958333,59.0,72.0
579,164.27427404374998,165.66351332291663,47.0,75.0
580,164.66193192916663,165.6999056958333,54.0,65.0
581,165.20781752291663,166.0084497270833,66.0,78.0
582,165.60180451666665,166.20939891666663,59.0,67.0
583,166.36129751666664,166.65560105416665,59.0,75.0
584,166.1745888208333,166.82648697916665,54.0,58.0
585,165.78851321249996,166.89452489374997,47.0,73.0
586,166.73629718541665,167.03060072291663,63.0,80.0
587,166.90876538749995,167.04642349374996,59.0,70.0
588,167.3090814895833,167.71414442291663,63.0,74.0
589,167.29642327291663,167.75686590416663,56.0,75.0
590,167.66667611041663,168.0970554770833,51.0,58.0
591,168.0638276583333,168.4673083145833,59.0,83.0
592,167.30275238124997,168.55908038541662,44.0,78.0
593,168.24104269166662,168.57015632499997,51.0,74.0
594,168.4293336645833,168.5812322645833,56.0,83.0
595,168.8138269958333,169.20781398958331,56.0,82.0
596,168.82015610416664,169.30591516874998,61.0,75.0
597,169.18566211041664,169.64294018749996,53.0,70.0
598,169.5733199958333,169.9198386770833,61.0,78.0
599,169.57490227291663,169.93566144791663,65.0,83.0
600,168.80116877916663,170.00844619374996,46.0,79.0
601,170.3328129958333,170.5416735708333,58.0,71.0
602,170.33123071874996,170.75686325416663,63.0,77.0
603,170.6935721708333,170.77110374791664,58.0,53.0
604,170.8976859145833,171.31857161874996,66.0,79.0
605,171.2726855833333,171.52268536249997,65.0,82.0
606,171.47996388124997,171.61762198749997,63.0,72.0
607,170.34863576666663,171.68407762499996,51.0,81.0
608,171.84863444166663,172.2695201458333,63.0,78.0
609,172.21888727916664,172.3644567708333,58.0,62.0
610,172.61603882708332,172.7394564395833,58.0,80.0
611,172.61603882708332,173.2805952020833,63.0,83.0
612,172.97838027916663,173.2948356958333,58.0,75.0
613,172.61920338124997,173.32173440624996,66.0,79.0
614,171.86445721249999,173.35337994791664,51.0,79.0
615,173.3850254895833,173.8169871333333,63.0,76.0
616,173.3897723208333,173.99894899791664,66.0,77.0
617,173.9736325645833,174.57964468749998,63.0,78.0
618,173.40084826041664,174.61129022916663,51.0,84.0
619,174.5385054833333,174.75369516666663,66.0,79.0
620,173.78534159166662,174.7568597208333,58.0,62.0
621,174.70622685416663,174.9894544520833,63.0,76.0
622,175.2742643270833,175.75052972916663,61.0,82.0
623,175.08755563124998,175.87078278749996,56.0,72.0
624,174.89610010416663,175.90717516041664,49.0,83.0
625,175.46255529999996,175.92299793124997,65.0,82.0
626,176.06382059166663,176.31698492499996,66.0,74.0
627,176.2616052270833,176.4609721395833,65.0,74.0
628,176.44989619999996,176.6413517270833,63.0,74.0
629,176.9878704083333,177.4578067020833,59.0,72.0
630,177.36445235416664,177.6666672770833,66.0,77.0
631,176.80116171249998,177.82173043124996,54.0,58.0
632,176.43407342916663,177.83122409374997,47.0,77.0
633,177.95780626041665,178.37078057916665,59.0,67.0
634,177.96888219999997,178.5733120458333,63.0,78.0
635,178.49894502291664,178.8723624145833,59.0,72.0
636,178.3217299895833,179.01634962916663,54.0,66.0
637,177.9704644770833,179.09704576041665,47.0,72.0
638,178.87078013749996,179.1286913020833,63.0,79.0
639,179.0432483395833,179.16033684374997,59.0,83.0
640,179.47362770624997,179.93407033749997,56.0,76.0
641,179.47204542916663,180.10495626249997,63.0,80.0
642,179.83913371249997,180.29324723541663,51.0,63.0
643,180.24736119999997,180.62552542291664,59.0,83.0
644,180.43248761874997,180.6476773020833,51.0,74.0
645,179.46729859791662,180.7046392770833,44.0,82.0
646,180.62710769999995,180.7568544208333,56.0,82.0
647,180.99577826041664,181.4356512895833,58.0,74.0
648,180.9941959833333,181.46729683124997,61.0,77.0
649,181.37710703749997,181.90242302916664,53.0,63.0
650,181.7536889833333,182.01160014791662,58.0,76.0
651,181.75210670624998,182.0384988583333,61.0,80.0
652,180.98786687499995,182.0432456895833,46.0,82.0
653,181.75527126041663,182.0432456895833,65.0,83.0
654,182.4752073333333,182.7125488958333,58.0,71.0
655,182.47837188749997,182.9261563020833,63.0,75.0
656,183.06697896249997,183.50368743749996,66.0,78.0
657,182.48786554999998,183.88976304583332,51.0,81.0
658,183.43406724583332,184.0606489708333,65.0,78.0
659,183.83596562499997,184.0938767895833,58.0,67.0
660,184.02425659791663,184.38818032708332,63.0,76.0
661,184.3834334958333,184.4498891333333,58.0,62.0
662,184.58912951666665,184.82330652499996,58.0,79.0
663,184.5875472395833,184.9957747270833,66.0,80.0
664,184.03058570624998,185.08438224374999,51.0,82.0
665,184.95938235416662,185.1951416395833,58.0,78.0
666,184.9483064145833,185.23153401249996,65.0,83.0
667,185.1476733270833,185.3517870708333,63.0,76.0
668,185.3612807333333,185.57330586249998,58.0,71.0
669,185.5511539833333,185.91982454374997,63.0,78.0
670,185.87235623124997,186.07646997499995,58.0,66.0
671,185.5464071520833,186.68248209791665,51.0,83.0
672,186.1017864083333,186.69197576041665,66.0,76.0
673,186.6714061583333,186.80748198749995,63.0,75.0
674,187.0558994895833,187.4261523270833,61.0,72.0
675,187.06697542916663,187.6729875520833,65.0,83.0
676,187.41032955624996,188.03691128124996,56.0,70.0
677,187.60969646874997,188.06380999166663,61.0,81.0
678,187.07172226041664,188.07330365416664,49.0,83.0
679,187.9957720770833,188.42140461249997,65.0,80.0
680,188.5891259833333,188.96570792916663,63.0,77.0
681,188.60653103124997,189.04640406041665,66.0,75.0
682,189.1397584083333,189.57013777499998,63.0,85.0
683,189.52108718541663,189.7236186520833,66.0,87.0
684,188.5891259833333,189.94830199791664,47.0,79.0
685,188.9593788208333,189.99102347916664,54.0,66.0
686,189.90083368541664,190.01633991249997,63.0,75.0
687,190.09703604374997,190.49418759166664,63.0,78.0
688,190.0938714895833,190.69038994999997,66.0,77.0
689,190.43722561666664,191.15083258124997,54.0,72.0
690,190.6397570833333,191.19197178541663,63.0,78.0
691,190.08596010416665,191.19830089374997,47.0,77.0
692,191.19355406249997,191.29798434999998,66.0,74.0
693,191.60652838124997,191.9546293395833,56.0,73.0
694,191.6176043208333,192.2062113958333,63.0,75.0
695,192.13342664999996,192.57013512499998,56.0,82.0
696,192.51791998124997,192.72203372499996,59.0,82.0
697,191.9498825083333,192.77424886874996,51.0,63.0
698,191.61918659791664,192.7900716395833,44.0,78.0
699,193.09228656249996,193.45146346041662,58.0,71.0
700,193.10019794791663,193.65399492708332,61.0,75.0
701,193.6682354208333,194.0622224145833,58.0,81.0
702,194.04007053541665,194.30589308541664,65.0,84.0
703,193.46728623124997,194.37867783124997,53.0,65.0
704,194.2283615083333,194.4372220833333,58.0,76.0
705,193.09545111666665,194.4419689145833,46.0,82.0
706,194.61601939374998,194.81538630624996,58.0,73.0
707,194.6270953333333,195.03215826666664,63.0,77.0
708,195.00525955624997,195.07013291666664,58.0,64.0
709,195.20937329999998,195.67930959374996,66.0,78.0
710,195.5954489083333,195.8470309645833,58.0,81.0
711,194.62076622499995,196.03373966041664,51.0,82.0
712,195.9562080833333,196.40873932916662,63.0,83.0
713,196.37709378749997,196.63816950624997,58.0,83.0
714,196.57487842291664,196.66032138541664,63.0,78.0
715,196.76000484166664,196.98468818749996,63.0,87.0
716,196.75684028749998,196.9862704645833,58.0,82.0
717,196.76475167291665,197.01633372916663,66.0,83.0
718,197.11127035416663,197.23785252083331,58.0,84.0
719,197.10968807708332,197.38658656666664,63.0,86.0
720,196.17614459791662,197.41506755416663,51.0,85.0
721,197.32646003749997,197.51000417916663,58.0,78.0
722,197.68721921249997,197.8834215708333,58.0,76.0
723,197.6888014895833,198.0875353145833,63.0,79.0
724,198.0448138333333,198.1872187708333,58.0,70.0
725,198.26949717916665,198.69829426874998,66.0,74.0
726,197.68563693541665,198.78215495416663,51.0,82.0
727,198.64607912499997,198.85810425416662,63.0,77.0
728,198.8375346520833,198.97677503541664,58.0,69.0
729,199.20936976666664,199.40398984791665,56.0,72.0
730,199.21411659791664,199.6397491333333,61.0,76.0
731,199.57012894166664,199.69512883124997,56.0,65.0
732,199.78373634791663,200.18879928124997,65.0,82.0
733,199.21886342916665,200.2948118458333,49.0,77.0
734,200.1381664145833,200.37709025416663,61.0,77.0
735,200.34544471249995,200.49259648124996,56.0,77.0
736,200.7410139833333,201.0970263270833,59.0,68.0
737,201.28057046874997,201.78531685833332,59.0,76.0
738,200.7457608145833,201.8375320020833,63.0,75.0
739,200.72360893541662,202.1081013833333,47.0,78.0
740,201.08120355624996,202.14291147916663,54.0,66.0
741,201.65873469166664,202.3122151270833,66.0,81.0
742,202.0558862395833,202.4593668958333,59.0,74.0
743,202.64607559166663,202.91506269583329,59.0,70.0
744,202.45303778749997,203.4229736395833,54.0,71.0
745,202.84702478124996,203.4419609645833,63.0,83.0
746,202.26158226041665,203.4846824458333,47.0,81.0
747,203.37550532708332,203.81063152499996,59.0,71.0
748,204.34069434791664,204.7758205458333,56.0,78.0
749,203.77265687499997,205.13025061249996,44.0,82.0
750,204.1634793145833,205.13974427499997,51.0,69.0
751,204.7188585708333,205.1555670458333,63.0,82.0
752,205.26316188749996,205.64449066458332,58.0,75.0
753,205.26157961041662,205.74259184374998,61.0,78.0
754,205.82170569791663,206.25050278749995,58.0,81.0
755,206.20303447499998,206.57170503541664,65.0,83.0
756,205.63816155624997,206.60651513124998,53.0,69.0
757,206.39765455624996,206.63341384166665,58.0,77.0
758,205.28373148958332,206.64923661249998,46.0,83.0
759,206.77740105624997,206.97043886041664,58.0,76.0
760,206.77898333333331,207.2061981458333,63.0,78.0
761,207.1539830020833,207.2156918083333,58.0,60.0
762,207.3818309020833,207.6761344395833,58.0,72.0
763,207.3628435770833,207.78689383541663,66.0,78.0
764,206.78214788749997,208.21885547916662,51.0,82.0
765,208.13974162499997,208.37550091041663,58.0,71.0
766,207.75050146249998,208.38024774166664,65.0,83.0
767,208.33277942916664,208.7251841458333,63.0,82.0
768,208.6777158333333,208.76632334999996,58.0,69.0
769,208.8865764083333,209.1286648020833,58.0,82.0
770,208.8818295770833,209.2710697395833,66.0,80.0
771,209.23151281249997,209.43404427916664,63.0,84.0
772,208.33752626041664,209.53056318124996,51.0,83.0
773,209.43087972499995,209.54955050624997,58.0,78.0
774,210.22201826666662,210.6951191145833,49.0,78.0
775,209.8454363208333,210.72201782499997,42.0,83.0
776,210.38973963749999,210.76948613749997,54.0,84.0
777,210.5859419958333,210.8470177145833,57.0,89.0
778,210.98309354374996,211.22834649166663,54.0,86.0
779,210.77897979999997,211.24416926249995,66.0,85.0
780,211.14448580624997,211.30113123749996,57.0,87.0
781,211.73625743541663,212.26632025833328,52.0,83.0
782,211.937206625,212.34385183541661,56.0,79.0
783,211.34227044166664,212.40714291874997,40.0,88.0
784,211.53689052291662,212.4229656895833,47.0,74.0
785,212.4799276645833,212.75682615416662,52.0,82.0
786,212.65872497499998,212.79954763541662,56.0,82.0
787,212.3090417395833,212.81695268333328,64.0,78.0
788,213.44511668541662,213.85334417291665,50.0,85.0
789,213.81062269166665,214.17138186666665,62.0,77.0
790,212.86283871874997,214.28055898541663,38.0,83.0
791,213.24258521874998,214.3011285875,45.0,79.0
792,214.21885017916662,214.34859689999996,50.0,82.0
793,214.40714115208328,214.68245736458329,50.0,74.0
794,214.41188798333332,214.77581171249997,54.0,76.0
795,214.39606521249996,214.7916344833333,57.0,82.0
796,214.4023943208333,215.3042922583333,38.0,85.0
797,214.77106488124997,215.3137859208333,45.0,76.0
798,214.96410268541663,215.37391244999998,50.0,91.0
799,215.3470137395833,215.4324567020833,54.0,74.0
800,215.3375200770833,215.44669719583328,57.0,79.0
801,215.33593779999995,215.52581104999996,62.0,82.0
802,215.9202325208333,216.3374236770833,56.0,78.0
803,215.91708390833332,216.48698277083332,59.0,71.0
804,216.5043001395833,217.00178091458332,56.0,87.0
805,216.28547157083332,217.14189417083333,51.0,75.0
806,216.91047115208332,217.21746087083332,68.0,83.0
807,215.9422728083333,217.23320393333333,44.0,82.0
808,217.08364483958331,217.32766230833332,59.0,74.0
809,217.26941297708333,217.48509293333333,56.0,86.0
810,217.9809994020833,218.40133917083332,54.0,86.0
811,218.33679261458332,218.45801419583333,58.0,83.0
812,217.80310279583333,218.4737572583333,49.0,78.0
813,217.44258666458333,218.50366907708332,42.0,82.0
814,218.9476234395833,219.1570061708333,53.0,82.0
815,218.95234635833333,219.5804945520833,63.0,82.0
816,219.53326536458331,219.95517943958333,56.0,80.0
817,219.33962569583332,219.9567537458333,53.0,78.0
818,218.94604913333333,220.30782403958332,41.0,85.0
819,219.8937814958333,220.31412126458332,63.0,83.0
820,220.09214408333332,220.44793729583333,59.0,83.0
821,220.28735805833333,220.66519155833333,56.0,82.0
822,220.62268528958333,221.07923410208332,53.0,84.0
823,220.8053048145833,221.08553132708332,56.0,83.0
824,221.00524170833333,221.24296195208333,59.0,99.0
825,221.37992659583333,221.45391898958331,53.0,80.0
826,221.37362937083333,221.45864190833333,56.0,84.0
827,220.4369171520833,221.48540511458333,41.0,84.0
828,221.37520367708333,221.52633707708333,63.0,84.0
829,221.9750143583333,222.17059499166666,62.0,82.0
830,221.97973727708333,222.22755696666667,38.0,85.0
831,221.9813115833333,222.36996190416667,65.0,84.0
832,222.51711367291665,222.83040453541668,65.0,82.0
833,222.32091131458333,222.84306275208334,62.0,79.0
834,222.89844245,223.08040431458332,65.0,89.0
835,222.90002472708332,223.1927459875,68.0,83.0
836,223.08356886875,223.33356864791665,62.0,79.0
837,223.25129023958334,223.40477111666667,65.0,84.0
838,223.828821375,224.12787174375,62.0,78.0
839,224.00128957708333,224.14369451458333,65.0,82.0
840,224.24337797083334,224.26552985,62.0,67.0
841,223.4395812125,224.34464370416666,50.0,86.0
842,224.2180615375,224.39527657083332,65.0,86.0
843,224.21173242916666,224.44274488333332,68.0,83.0
844,224.37470696875,224.63103585625,62.0,84.0
845,224.550339725,224.68958010833333,50.0,84.0
846,224.77344079374998,224.99337730833332,62.0,83.0
847,225.37787063958334,225.60888309375,58.0,85.0
848,225.56457933541665,225.71964248958332,62.0,89.0
849,225.91109801666667,226.031351075,62.0,83.0
850,225.92217395625,226.21014838541666,58.0,89.0
851,224.98230136875,226.35888243125,46.0,86.0
852,225.19432649791668,226.36204698541667,53.0,78.0
853,226.29242679375,226.44748994791667,58.0,81.0
854,226.51078103125,226.84464149583334,58.0,77.0
855,226.48071776666666,226.88261614583334,62.0,93.0
856,227.018691975,227.18799562291667,58.0,83.0
857,226.85097060416666,227.28609680208334,53.0,78.0
858,227.22280571875,227.43957767916666,58.0,73.0
859,227.2180588875,227.51710925625,62.0,96.0
860,227.22755254999998,227.71489389166666,70.0,86.0
861,227.22122344166667,227.90793169583333,65.0,96.0
862,227.60413449583334,227.99021010416666,58.0,87.0
863,227.83356467291665,228.01236198333334,62.0,83.0
864,227.41109669166667,228.03134930833332,53.0,89.0
865,226.49021142916666,228.04717207916667,46.0,84.0
866,228.10888088541665,228.60255133541665,63.0,82.0
867,228.10571633125,228.6041336125,66.0,84.0
868,228.80033597083332,228.93957635416666,63.0,82.0
869,228.44590590416666,228.95539912499999,58.0,76.0
870,228.803500525,229.03293070208332,66.0,85.0
871,228.1104631625,229.03767753333332,51.0,91.0
872,228.79558913958334,229.14685465208333,70.0,83.0
873,229.17217108541666,229.35096839583332,63.0,84.0
874,229.52660115208332,229.9237527,61.0,82.0
875,229.53134798333332,229.97596784375,65.0,82.0
876,229.90318309791667,230.23387900833333,56.0,76.0
877,230.09622090208333,230.40001810208332,61.0,89.0
878,230.30508147708332,230.5788154125,56.0,76.0
879,229.52976570625,230.75603044583332,49.0,84.0
880,230.66109382083334,230.78134687916668,56.0,80.0
881,230.47913195625,230.82723291458333,68.0,83.0
882,230.67216976041666,230.96647329791665,61.0,84.0
883,230.89052399791666,231.08989091041667,65.0,77.0
884,231.43957414583332,231.96089643124998,59.0,75.0
885,231.65951066041666,232.003753475,63.0,80.0
886,231.06932130833331,232.32914954791664,47.0,83.0
887,231.26077683541666,232.39422876249998,54.0,83.0
888,232.19899111874997,232.41327633749998,66.0,66.0
889,232.1831181395833,232.45772067916664,63.0,77.0
890,232.36565739999998,232.52438719166665,59.0,71.0
891,232.56248234166665,233.00057656666664,59.0,68.0
892,232.5783553208333,233.02914792916664,63.0,79.0
893,232.9640687145833,233.21327448749997,54.0,75.0
894,232.5402601708333,233.4164486208333,47.0,85.0
895,233.16406825208333,233.43073430208332,59.0,84.0
896,233.35454400208332,233.63549573333333,54.0,79.0
897,233.15771906041664,233.69740035208332,63.0,83.0
898,233.57676571041665,233.71327333124998,47.0,91.0
899,233.16565555,233.77517794999997,66.0,81.0
900,233.77041605624999,233.99263776458332,59.0,86.0
901,233.94343152916665,234.19581189791666,63.0,82.0
902,234.4783509270833,234.97834977083332,51.0,76.0
903,234.86882621458332,235.24025392708333,56.0,82.0
904,234.8640643208333,235.29422205625,59.0,83.0
905,234.1164470020833,235.37517425,44.0,84.0
906,235.24025392708333,235.43866616666665,51.0,82.0
907,234.85612783124998,235.45930103958332,63.0,83.0
908,235.62914191666664,236.01961720416665,58.0,81.0
909,235.62755461875,236.07517263124998,61.0,80.0
910,236.0132680125,236.2735848708333,53.0,74.0
911,236.19104537916664,236.48945738749998,58.0,84.0
912,236.38469572499997,236.63072690208332,53.0,77.0
913,236.57993336874998,236.69263152083332,58.0,78.0
914,235.63390381041665,236.70374260625,46.0,83.0
915,236.57199687916665,236.84342482291666,61.0,83.0
916,236.5783460708333,236.879932675,65.0,85.0
917,236.78469479999998,237.0116784020833,58.0,78.0
918,237.15294791666665,237.52278833124998,58.0,80.0
919,237.15136061874998,237.52913752291664,63.0,82.0
920,237.68310542083333,237.93707308749998,58.0,83.0
921,237.68469271874997,237.95770796041666,63.0,86.0
922,237.68628001666664,238.0164379833333,66.0,83.0
923,238.0894536875,238.31008809791666,58.0,83.0
924,237.51643913958333,238.49104006041665,46.0,69.0
925,237.14501142708332,238.5259606145833,39.0,86.0
926,238.08469179374998,238.69738878958333,65.0,84.0
927,238.43865922916666,238.72119825833332,58.0,82.0
928,239.0307213520833,239.15135599374997,58.0,87.0
929,238.84183289999999,239.32754606249998,46.0,80.0
930,239.2323081875,239.50056153541664,58.0,84.0
931,239.23389548541664,239.5021488333333,66.0,84.0
932,239.23072088958332,239.5116726208333,63.0,84.0
933,239.42754583124997,239.68151349791665,46.0,75.0
934,239.60691049583332,239.78627516041666,58.0,86.0
935,239.60532319791665,239.9354811645833,63.0,87.0
936,238.64342066041664,239.9735763145833,39.0,83.0
937,239.59897400625,240.06722689166665,66.0,84.0
938,239.87040194999997,240.07198878541666,58.0,82.0
939,240.20373451249998,240.69103497291664,63.0,82.0
940,240.2021472145833,240.69579686666665,58.0,77.0
941,240.9307169583333,241.0322518083333,58.0,83.0
942,240.55611464999998,241.0782543270833,46.0,73.0
943,240.93706615,241.1369471958333,63.0,83.0
944,240.19738532083332,241.1670867770833,39.0,86.0
945,240.93547885208332,241.3399927958333,66.0,83.0
946,241.13060202083332,241.5049673458333,58.0,81.0
947,241.3273024458333,241.5366932208333,63.0,79.0
948,241.5049673458333,241.8317438583333,66.0,81.0
949,241.8729874958333,242.3076319833333,56.0,74.0
950,242.0363757520833,242.35997967708332,61.0,83.0
951,242.2394213520833,242.5328856958333,65.0,89.0
952,242.4218451333333,242.6931013645833,56.0,78.0
953,241.6889774208333,242.70420542083332,49.0,88.0
954,242.6074415020833,242.8231774520833,61.0,82.0
955,242.8168322770833,243.0103601145833,65.0,77.0
956,242.9833931208333,243.2911341083333,61.0,75.0
957,243.22609606458332,243.57032180833332,63.0,84.0
958,243.58618474583332,244.0811083958333,54.0,83.0
959,243.20071536458332,244.1794586083333,47.0,77.0
960,243.9859307708333,244.2698773520833,59.0,86.0
961,244.17469972708332,244.5490650520833,54.0,82.0
962,244.37774532708332,244.6029990395833,59.0,78.0
963,244.7346614208333,245.1137856270833,59.0,75.0
964,244.5554102270833,245.3660063333333,63.0,78.0
965,245.1106130395833,245.6356762708333,54.0,77.0
966,244.73942030208332,245.7086457833333,47.0,83.0
967,245.86568886458332,246.0116278895833,47.0,84.0
968,245.4992550083333,246.38599321458332,66.0,80.0
969,245.4929098333333,246.4605490208333,63.0,83.0
970,245.4976687145833,246.5240007708333,59.0,82.0
971,247.0109929520833,247.42977450208332,56.0,84.0
972,246.6255235708333,247.5884038770833,51.0,76.0
973,246.2511582458333,247.61378457708332,44.0,83.0
974,247.1838989708333,247.6455104520833,59.0,83.0
975,247.3679090458333,247.69151297083332,63.0,82.0
976,247.5884038770833,247.80889870833332,68.0,64.0
977,248.1548135958333,248.4377123333333,58.0,73.0
978,248.3550677583333,248.5060530395833,61.0,78.0
979,247.9659417895833,248.6999499270833,53.0,81.0
980,248.5743937458333,248.9923845770833,58.0,78.0
981,248.5585005583333,248.9923845770833,61.0,79.0
982,248.56962578958328,249.0289389083333,65.0,85.0
983,248.9240438708333,249.15926304583328,53.0,79.0
984,247.77558653958332,249.17197759583328,46.0,82.0
985,249.9618690145833,250.3941637145833,63.0,77.0
986,249.3897142645833,250.7851361270833,51.0,83.0
987,249.7870439520833,250.7867254458333,58.0,60.0
988,250.3401268770833,250.8169225020833,66.0,76.0
989,250.7326886083333,251.0251232583333,63.0,71.0
990,251.3147010895833,251.97767518749995,61.0,75.0
991,251.50299206249997,252.08052319791665,65.0,77.0
992,250.9313534520833,252.24824456874998,49.0,82.0
993,251.1248278395833,252.25299139999996,56.0,69.0
994,252.0789409208333,252.38432039791664,66.0,76.0
995,252.26564961666662,252.48875068541665,65.0,78.0
996,252.45235831249997,252.81311748749997,63.0,76.0
997,253.00299073749997,253.44761059791662,59.0,73.0
998,252.4776747458333,253.79412927916664,47.0,65.0
999,252.8194465958333,253.8827367958333,54.0,68.0
1000,253.39697773124996,254.0156480708333,63.0,80.0
1001,253.75140779791664,254.19760993541664,59.0,71.0
1002,253.96659748124998,254.8843181895833,66.0,78.0
1003,254.7229259270833,255.04729272916663,54.0,78.0
1004,253.9681797583333,255.07102688541664,47.0,72.0
1005,254.91438145416663,255.13906479999997,59.0,80.0
1006,255.27039379791663,255.54887456458331,59.0,74.0
1007,255.0931787645833,255.62798841874996,63.0,81.0
1008,256.06437611666666,256.52394635416664,56.0,80.0
1009,255.8716590895833,256.8571742583333,51.0,71.0
1010,255.48083664999996,256.8713877708333,44.0,82.0
1011,256.446561675,256.9361382166666,63.0,81.0
1012,257.0103643375,257.05458415416666,58.0,57.0
1013,256.9993093833333,257.62312465416665,61.0,76.0
1014,257.56153276666663,257.9658282333333,56.0,75.0
1015,257.9374012083333,258.2200921791666,61.0,78.0
1016,257.36886070833333,258.29115974166666,53.0,75.0
1017,256.99299226666665,258.38591649166665,46.0,82.0
1018,258.50752098749996,258.76178493333333,58.0,72.0
1019,258.88654798749997,259.0602686958333,58.0,61.0
1020,258.5012038708333,259.1313362583333,63.0,77.0
1021,258.50278314999997,259.8909695375,51.0,82.0
1022,259.0886957208333,260.066269525,66.0,82.0
1023,260.4152902208333,260.6569199333333,58.0,67.0
1024,260.03468394166663,260.66797488749995,63.0,77.0
1025,260.6000658833333,261.02805053749995,66.0,82.0
1026,260.96487937083333,261.20019196666664,63.0,74.0
1027,261.1686063833333,261.25072889999996,58.0,58.0
1028,260.02994610416664,261.2649424125,51.0,82.0
1029,261.54447482499995,261.77347030416666,58.0,71.0
1030,261.53657842916664,262.02457569166666,63.0,77.0
1031,261.9187639875,262.0387892041666,58.0,63.0
1032,262.11143604583333,262.501518,66.0,82.0
1033,261.5413162666666,262.5315243041666,51.0,80.0
1034,262.4620360208333,262.6989278958333,63.0,75.0
1035,262.6689215916666,262.7368305958333,58.0,65.0
1036,263.0558449875,263.439609825,61.0,70.0
1037,263.05742426666666,263.5280494583333,65.0,76.0
1038,263.4238170333333,263.9844611375,56.0,65.0
1039,263.0590035458333,264.027101675,49.0,83.0
1040,263.6322818833333,264.2718899458333,61.0,80.0
1041,264.20398094166666,264.55773947499995,65.0,79.0
1042,264.5861665,265.0346817833333,63.0,74.0
1043,265.1389142083333,265.694820475,59.0,72.0
1044,264.5751115458333,265.960139375,47.0,75.0
1045,264.9620349416666,265.9964627958333,54.0,65.0
1046,265.50688625416666,266.30600151249996,66.0,78.0
1047,265.89854748749997,266.50499068749997,59.0,67.0
1048,266.6566014875,266.9503474125,59.0,75.0
1049,266.471825825,267.1224888416666,54.0,58.0
1050,266.0864817083333,267.1888185666666,47.0,73.0
1051,267.0324699291666,267.324636575,63.0,80.0
1052,267.2046113583333,267.3404293666666,59.0,70.0
1053,267.6025897083333,268.006885175,63.0,74.0
1054,267.5915347541666,268.0495257125,56.0,75.0
1055,267.96108607916665,268.3890707333333,51.0,58.0
1056,268.3559058708333,268.7586220583333,59.0,83.0
1057,267.59627259166666,268.8517995291666,44.0,78.0
1058,268.5343644166666,268.8628544833333,51.0,74.0
1059,268.7222986375,268.8723301583333,56.0,83.0
1060,269.106063475,269.49930398749996,56.0,82.0
1061,269.1108013125,269.5972192958333,61.0,75.0
1062,269.47561479999996,269.93360575833333,53.0,70.0
1063,269.86411747499994,270.2084003333333,61.0,78.0
1064,269.86569675416666,270.22419312499994,65.0,83.0
1065,269.09184996249996,270.29683996666665,46.0,79.0
1066,270.6205921958333,270.83063632499994,58.0,71.0
1067,270.6205921958333,271.0438390125,63.0,77.0
1068,270.9806678458333,271.05963180416666,58.0,53.0
1069,271.1843948583333,271.6060623958333,66.0,79.0
1070,271.5586840208333,271.80821012916664,65.0,82.0
1071,271.7671488708333,271.9045461583333,63.0,72.0
1072,270.6363849875,271.9708758833333,51.0,81.0
1073,272.4683488208333,272.71629564999995,63.0,69.0
1074,272.65628304166665,273.1205911166666,65.0,72.0
1075,272.1224866833333,273.3969649708333,51.0,82.0
1076,273.0779505791666,273.41907487916666,66.0,74.0
1077,272.3072623458333,273.45539829999996,58.0,70.0
1078,273.6528081958333,274.02551807916666,66.0,71.0
1079,273.61174693749996,274.09658564166665,63.0,68.0
1080,273.71755864166664,274.1739703208333,70.0,69.0
1081,275.0536288166666,275.79115218749996,66.0,62.0
1082,273.6796559416666,275.8179999333333,51.0,80.0
1083,274.55141804166664,275.8274756083333,63.0,63.0
1084,274.10132347916664,275.91591524166665,58.0,58.0
1085,276.31863142916666,276.6992377083333,61.0,61.0
1086,276.40233322499995,276.72608545416665,65.0,69.0
1087,276.3438998958333,276.8429521125,56.0,62.0
1088,276.4718215083333,276.8619034625,68.0,57.0
1089,276.1780755833333,276.99140435416666,49.0,71.0
1090,277.77156826249995,279.04288799166665,59.0,65.0
1091,277.80631240416665,279.3729573375,54.0,54.0
1092,277.92791689999996,279.84832036666666,63.0,49.0
1093,279.73935010416665,280.3947509583333,54.0,63.0
1094,277.6089025083333,280.4531842875,47.0,74.0
1095,280.17838971249995,280.58742301666666,63.0,67.0
1096,280.1673347583333,280.6411185083333,59.0,68.0
1097,280.1799689916666,280.78009507499996,66.0,71.0
1098,281.1070058625,281.42917881249997,56.0,65.0
1099,281.197024775,281.9819265208333,59.0,69.0
1100,281.3233671083333,282.3783255916666,63.0,76.0
1101,282.34516072916665,282.7210291708333,59.0,77.0
1102,281.23492747499995,282.82684087499996,44.0,71.0
1103,281.8666391416666,282.83315799166667,51.0,61.0
1104,283.79809756249995,286.36758476666665,53.0,68.0
1105,283.62911469166664,286.47497575,46.0,47.0
1106,283.8391588208333,286.84136851666665,56.0,67.0
1107,283.95444619999995,286.84610635416664,61.0,71.0
1108,292.64048161666665,292.79683025416665,63.0,73.0
1109,292.6941771083333,293.4838166916666,65.0,83.0
1110,293.47907885416663,293.7507148708333,63.0,62.0
1111,293.71281217083333,293.95128332499996,65.0,76.0
1112,293.9181184625,294.1439553833333,66.0,77.0
1113,294.10763196249997,294.23713285416665,68.0,74.0
1114,294.3382067208333,294.6319526458333,70.0,82.0
1115,294.576677875,294.9320156875,73.0,83.0
1116,294.87516163749996,295.2620850333333,77.0,77.0
1117,295.21154809999996,295.5700444708333,75.0,75.0
1118,295.6221606833333,295.8211498583333,70.0,46.0
1119,295.7848264375,295.8906381416666,75.0,75.0
1120,295.7958813916666,296.149639925,80.0,68.0
1121,296.4733921541666,296.5713074625,82.0,81.0
1122,297.80788305,297.92317042916665,82.0,56.0
1123,297.87579205416665,297.95001817499997,85.0,70.0
1124,297.93896322083333,297.99739654999996,92.0,76.0
1125,298.442753275,298.6164739833333,89.0,66.0
1126,292.55520054166664,299.2750333958333,58.0,68.0
1127,292.4035897416666,299.28608835,51.0,83.0
