,start,end,pitch,velocity
0,26.876476012500003,27.211841262500005,58.0,95.0
1,27.242329012500004,27.539584575000006,60.0,107.0
2,27.608182012500006,27.887144925000005,63.0,122.0
3,27.974035012500003,28.345985562500005,65.0,117.0
4,28.339888012500005,28.655436225000006,67.0,102.0
5,28.705741012500006,29.079215950000005,63.0,100.0
6,29.071594012500004,29.452690887500005,67.0,95.0
7,29.437447012500005,30.478603675000006,65.0,107.0
8,32.730124012500006,32.92981877500001,65.0,117.0
9,33.09597701250001,33.26670841250001,65.0,122.0
10,33.46183001250001,33.624939475000005,65.0,122.0
11,33.8276830125,34.002987575000006,65.0,122.0
12,34.193536012500005,34.4374380125,63.0,127.0
13,34.559389012500006,34.81701050000001,63.0,107.0
14,34.92524201250001,35.38560703750001,60.0,96.0
15,35.6569480125,36.731641200000006,60.0,107.0
16,38.583772012500006,38.90084461250001,58.0,96.0
17,38.94962501250001,39.2666976125,60.0,117.0
18,39.31547801250001,39.614257962500005,63.0,100.0
19,39.68133101250001,40.00754993750001,65.0,95.0
20,40.047184012500004,40.32767131250001,67.0,112.0
21,40.413037012500006,40.64779268750001,70.0,117.0
22,40.77889001250001,41.047182212500005,67.0,112.0
23,41.14474301250001,42.484679625000005,65.0,112.0
24,44.437420012500006,44.67217568750001,65.0,100.0
25,44.80327301250001,45.01973603750001,65.0,112.0
26,45.16912601250001,45.35815006250001,65.0,122.0
27,45.53497901250001,45.77278346250001,65.0,107.0
28,45.90083201250001,46.135587687500006,63.0,102.0
29,46.266685012500005,46.515160175000005,63.0,112.0
30,46.63253801250001,47.006012950000006,60.0,97.0
31,46.99839101250001,47.231622300000005,67.0,117.0
32,47.36424401250001,49.07460678750001,67.0,127.0
33,50.291068012500006,50.498384712500005,72.0,112.0
34,50.65692101250001,50.86271332500001,72.0,127.0
35,51.02277401250001,51.24076142500001,72.0,127.0
36,51.38862701250001,51.62338268750001,72.0,127.0
37,51.75448001250001,51.989235687500006,70.0,117.0
38,52.12033301250001,52.32155216250001,67.0,107.0
39,52.486186012500006,52.70264903750001,67.0,112.0
40,52.85203901250001,55.04715701250001,65.0,107.0
41,56.14471601250001,56.35813026250001,65.0,122.0
42,56.51056901250001,56.70416622500001,65.0,102.0
43,56.87642201250001,57.07916555000001,65.0,107.0
44,57.24227501250001,57.44044538750001,65.0,102.0
45,57.60812801250001,57.84593246250001,63.0,112.0
46,57.97398101250001,58.23312688750001,63.0,107.0
47,58.33983401250001,58.61727253750001,70.0,127.0
48,58.70568701250001,61.02580478750001,67.0,122.0
49,61.99836401250001,62.18891245000001,72.0,102.0
50,62.36421701250001,62.56391177500001,72.0,100.0
51,62.73007001250001,62.94043548750001,72.0,107.0
52,63.09592301250001,63.35506888750001,75.0,117.0
53,63.46177601250001,63.80019003750001,67.0,127.0
54,63.82762901250001,64.11116508750001,65.0,99.0
55,64.19348201250001,64.48616441250002,67.0,117.0
56,64.55933501250001,65.3825042625,65.0,107.0
57,67.85201201250001,68.10201156250001,65.0,97.0
58,68.21786501250001,68.44652313750001,65.0,99.0
59,68.58371801250001,68.76664451250001,65.0,97.0
60,68.94957101250002,69.17518036250002,65.0,112.0
61,69.31542401250002,69.56237478750002,63.0,97.0
62,69.68127701250002,69.999874,60.0,97.0
63,70.0471300125,70.4129830125,63.0,117.0
64,70.77883601250001,72.54102796250001,63.0,127.0
65,79.20260201250001,79.53796726250002,58.0,95.0
66,79.56845501250001,79.86571057500001,60.0,107.0
67,79.93430801250001,80.21327092500002,63.0,122.0
68,80.30016101250001,80.67211156250002,65.0,117.0
69,80.66601401250001,80.98156222500002,67.0,102.0
70,81.03186701250002,81.40534195000001,63.0,100.0
71,81.39772001250002,81.77881688750001,67.0,95.0
72,81.76357301250002,82.80472967500002,65.0,107.0
73,85.05625001250002,85.25594477500002,65.0,117.0
74,85.42210301250002,85.59283441250001,65.0,122.0
75,85.78795601250002,85.95106547500001,65.0,122.0
76,86.15380901250002,86.32911357500001,65.0,122.0
77,86.51966201250002,86.76356401250001,63.0,127.0
78,86.88551501250001,87.14313650000001,63.0,107.0
79,87.25136801250001,87.71173303750001,60.0,96.0
80,87.98307401250001,89.05776720000001,60.0,107.0
81,90.90989801250001,91.22697061250001,58.0,96.0
82,91.27575101250002,91.59282361250001,60.0,117.0
83,91.64160401250001,91.94038396250002,63.0,100.0
84,92.00745701250001,92.33367593750002,65.0,95.0
85,92.37331001250001,92.65379731250002,67.0,112.0
86,92.73916301250001,92.97391868750002,70.0,117.0
87,93.10501601250002,93.37330821250002,67.0,112.0
88,93.47086901250002,94.81080562500001,65.0,112.0
89,96.73866011250001,96.96381057291669,65.0,100.0
90,97.09332854375002,97.3071837979167,65.0,112.0
91,97.45477404375002,97.6415208854167,65.0,122.0
92,97.81621954375002,98.05115911875002,65.0,107.0
93,98.17766504375003,98.4095925729167,63.0,102.0
94,98.53911054375003,98.78459227916669,63.0,112.0
95,98.90055604375003,99.26953165833336,67.0,97.0
96,99.26200154375002,99.26953165833336,67.0,117.0
97,102.51501104375002,102.71983016041669,72.0,112.0
98,102.87645654375002,103.07976963750002,72.0,127.0
99,103.23790204375003,103.45326332083336,72.0,127.0
100,103.59934754375003,103.8312750729167,72.0,127.0
101,103.96079304375003,104.1927205729167,70.0,117.0
102,104.32223854375002,104.52103356875003,70.0,107.0
103,104.68368404375002,104.8975392979167,67.0,112.0
104,105.04512954375002,105.65506882500003,65.0,107.0
105,108.29813904375003,108.50918426250001,65.0,122.0
106,108.66162301250002,108.85522022500002,65.0,102.0
107,109.02747601250002,109.23021955000002,65.0,107.0
108,109.39332901250002,109.59149938750002,65.0,102.0
109,109.75918201250002,109.99698646250002,63.0,112.0
110,110.12503501250002,110.38418088750002,63.0,107.0
111,110.49088801250002,110.76832653750002,70.0,127.0
112,110.85674101250002,113.17685878750002,67.0,122.0
113,114.14941801250002,114.33996645000002,72.0,102.0
114,114.51527101250002,114.71496577500002,72.0,100.0
115,114.88112401250002,115.09148948750003,72.0,107.0
116,115.24697701250003,115.50612288750003,75.0,117.0
117,115.61283001250003,115.95124403750002,67.0,127.0
118,115.97868301250003,116.26221908750003,65.0,99.0
119,116.34453601250001,116.63721841250002,67.0,117.0
120,116.71038901250002,117.53355826250002,65.0,107.0
121,120.00306601250003,120.25306556250003,65.0,97.0
122,120.36891901250002,120.59757713750002,65.0,99.0
123,120.73477201250002,120.91769851250002,65.0,97.0
124,121.10062501250002,121.32623436250002,65.0,112.0
125,121.46647801250002,121.71342878750002,63.0,97.0
126,121.83233101250002,122.15092800000002,60.0,97.0
127,122.19818401250002,122.56403701250002,63.0,117.0
128,122.92989001250002,124.69208196250003,63.0,127.0
129,152.06642401250002,152.40178926250002,58.0,95.0
130,152.4322770125,152.729532575,60.0,107.0
131,152.7981300125,153.07709292500002,63.0,122.0
132,153.1639830125,153.53593356250002,65.0,117.0
133,153.5298360125,153.845384225,67.0,102.0
134,153.89568901250001,154.26916395,63.0,100.0
135,154.2615420125,154.6426388875,67.0,95.0
136,154.62739501250002,155.668551675,65.0,107.0
137,157.92007201250001,158.11974830416668,65.0,117.0
138,158.28489988125003,158.45459691458336,65.0,122.0
139,158.64853638125,158.81065765416668,65.0,122.0
140,159.01217288125002,159.18641537083334,65.0,122.0
141,159.37580938125,159.61823371458334,63.0,127.0
142,159.73944588125002,159.99550658333337,63.0,107.0
143,160.10308238125003,160.5606583104167,60.0,96.0
144,160.83035538125003,161.89853760000003,60.0,107.0
145,163.73944738125002,164.05459901458335,58.0,96.0
146,164.10308388125003,164.41823551458336,60.0,117.0
147,164.46672038125,164.76369018958334,63.0,100.0
148,164.83035688125003,165.15459942708335,65.0,95.0
149,165.19399338125,165.47278136458334,67.0,112.0
150,165.55762988125002,165.79096330208336,70.0,117.0
151,165.92126638125,166.18793314791668,67.0,112.0
152,166.28490288125002,167.61672156250003,65.0,112.0
153,169.55763138125002,169.79096480208335,65.0,100.0
154,169.92126788125003,170.13641947708336,65.0,112.0
155,170.28490438125002,170.47278323958335,65.0,122.0
156,170.64854088125003,170.88490460625002,65.0,107.0
157,171.01217738125,171.24551080208334,63.0,102.0
158,171.37581388125002,171.62278367083334,63.0,112.0
159,171.73642007708335,171.96823834583336,67.0,117.0
160,172.46672338125,174.16672401875002,67.0,127.0
161,175.37581538125002,175.58187606458335,72.0,112.0
162,175.73945188125003,175.9439974125,72.0,127.0
163,176.10308838125002,176.31975512916668,72.0,127.0
164,176.46672488125003,176.70005830208336,72.0,127.0
165,176.83036138125001,177.06369480208335,70.0,117.0
166,177.19399788125003,177.39399795625002,70.0,107.0
167,177.55763438125,177.77278597708334,67.0,112.0
168,177.92127088125002,178.534907475,65.0,107.0
169,181.19399938125002,181.4061206729167,65.0,122.0
170,181.55763588125,181.75006019583336,65.0,102.0
171,181.92127238125002,182.12278760833334,65.0,107.0
172,182.28490888125003,182.48187865208337,65.0,102.0
173,182.64854538125002,182.88490910625,63.0,112.0
174,183.01218188125003,183.26975773541668,63.0,107.0
175,183.37581838125,183.6515760604167,70.0,127.0
176,183.73945488125003,186.0472987875,67.0,122.0
177,187.0198580125,187.21040645000002,72.0,102.0
178,187.3857110125,187.585405775,72.0,100.0
179,187.7515640125,187.96192948750002,72.0,107.0
180,188.1174170125,188.3765628875,75.0,117.0
181,188.48327001250001,188.8216840375,67.0,127.0
182,188.8491230125,189.1326590875,65.0,99.0
183,189.21497601250002,189.5076584125,67.0,117.0
184,189.5808290125,190.4039982625,65.0,107.0
185,192.8735060125,193.12350556250001,65.0,97.0
186,193.23935901250002,193.4680171375,65.0,99.0
187,193.6052120125,193.7881385125,65.0,97.0
188,193.97106501250002,194.1966743625,65.0,112.0
189,194.3369180125,194.58386878750002,63.0,97.0
190,194.70277101250002,195.02136800000002,60.0,97.0
191,195.0686240125,195.4344770125,63.0,117.0
192,195.8003300125,197.5625219625,63.0,127.0
