,start,end,pitch,velocity
0,1.935546875,2.302734375,68.0,84.0
1,2.404296875,2.771484375,69.0,84.0
2,2.873046875,3.228515625,71.0,84.0
3,3.341796875,3.44140625,71.0,84.0
4,3.576171875,3.75390625,71.0,84.0
5,4.279296875,4.37890625,71.0,84.0
6,4.513671875,4.8125,71.0,84.0
7,5.216796875,5.611328125,71.0,84.0
8,5.685546875,6.142578125,75.0,84.0
9,6.388671875,6.75,76.0,84.0
10,7.091796875,8.419921875,76.0,84.0
11,9.904296875,9.982421875,80.0,85.0
12,10.138671875,10.2109375,80.0,85.0
13,10.373046875,10.88671875,80.0,85.0
14,10.841796875,11.046875,81.0,85.0
15,11.076171875,11.66796875,76.0,85.0
16,12.013671875,12.173828125,73.0,85.0
17,12.248046875,12.552734375,72.0,85.0
18,12.716796875,13.0390625,72.0,85.0
19,13.185546875,13.529296875,78.0,85.0
20,13.654296875,13.75390625,80.0,85.0
21,13.888671875,15.98046875,80.0,85.0
22,17.169921875,17.384765625,71.0,85.0
23,17.404296875,17.51953125,80.0,85.0
24,17.638671875,17.73828125,80.0,85.0
25,17.873046875,18.244140625,80.0,85.0
26,18.341796875,18.45703125,81.0,85.0
27,18.576171875,18.99609375,83.0,85.0
28,19.279296875,19.431640625,76.0,85.0
29,19.513671875,21.103515625,78.0,85.0
30,21.623046875,21.869140625,80.0,85.0
31,22.091796875,22.203125,81.0,85.0
32,22.326171875,22.853515625,83.0,85.0
33,23.029296875,23.13671875,71.0,85.0
34,23.263671875,24.1484375,77.0,85.0
35,24.435546875,24.568359375,80.0,85.0
36,24.669921875,24.77734375,81.0,85.0
37,24.904296875,25.01953125,83.0,85.0
38,25.138671875,25.630859375,78.0,85.0
39,25.607421875,25.810546875,76.0,85.0
40,26.310546875,26.453125,80.0,85.0
41,26.544921875,26.666015625,81.0,85.0
42,26.779296875,26.86328125,83.0,85.0
43,27.013671875,27.517578125,78.0,85.0
44,27.482421875,27.666015625,76.0,85.0
45,28.185546875,28.302734375,80.0,85.0
46,28.419921875,28.529296875,81.0,85.0
47,28.654296875,28.79296875,83.0,85.0
48,28.888671875,29.44140625,78.0,85.0
49,29.591796875,32.4296875,76.0,85.0
50,32.873046875,33.197265625,71.0,86.0
51,33.341796875,33.453125,71.0,86.0
52,33.576171875,33.978515625,71.0,86.0
53,34.279296875,34.392578125,71.0,86.0
54,34.513671875,34.943359375,71.0,86.0
55,35.216796875,35.4921875,71.0,86.0
56,35.451171875,35.943359375,78.0,86.0
57,36.154296875,36.416015625,75.0,86.0
58,36.623046875,38.57421875,76.0,86.0
59,39.904296875,39.986328125,80.0,86.0
60,40.138671875,40.23046875,80.0,86.0
61,40.373046875,40.654296875,80.0,86.0
62,40.841796875,41.015625,81.0,86.0
63,41.076171875,41.57421875,76.0,86.0
64,42.013671875,42.08984375,73.0,86.0
65,42.248046875,42.52734375,72.0,86.0
66,42.716796875,42.95703125,72.0,86.0
67,43.185546875,43.53515625,78.0,86.0
68,43.654296875,43.744140625,80.0,86.0
69,43.888671875,45.97265625,80.0,86.0
70,47.169921875,47.28515625,71.0,86.0
71,47.404296875,47.498046875,80.0,86.0
72,47.638671875,47.73046875,80.0,86.0
73,47.873046875,48.185546875,80.0,87.0
74,48.341796875,48.453125,81.0,87.0
75,48.576171875,49.01953125,83.0,87.0
76,49.279296875,49.615234375,76.0,88.0
77,49.748046875,50.9140625,78.0,88.0
78,51.623046875,51.91796875,80.0,88.0
79,52.091796875,52.19140625,81.0,88.0
80,52.326171875,52.767578125,83.0,88.0
81,53.029296875,53.416015625,71.0,88.0
82,54.435546875,54.568359375,80.0,88.0
83,53.498046875,54.650390625,77.0,88.0
84,54.669921875,54.787109375,81.0,88.0
85,54.904296875,55.03515625,83.0,88.0
86,55.138671875,55.646484375,78.0,88.0
87,55.607421875,55.794921875,76.0,88.0
88,56.310546875,56.447265625,80.0,89.0
89,56.544921875,56.673828125,81.0,89.0
90,56.779296875,56.923828125,83.0,89.0
91,57.013671875,57.52734375,78.0,89.0
92,57.482421875,57.685546875,76.0,89.0
93,58.185546875,58.30859375,80.0,89.0
94,58.419921875,58.525390625,81.0,89.0
95,58.654296875,58.77734375,83.0,89.0
96,58.888671875,59.38671875,78.0,89.0
97,59.591796875,61.224609375,76.0,89.0
98,61.466796875,61.8046875,71.0,89.0
99,61.935546875,62.2890625,83.0,89.0
100,62.404296875,62.515625,81.0,89.0
101,62.638671875,63.091796875,80.0,89.0
102,63.341796875,63.603515625,71.0,89.0
103,63.810546875,64.0859375,83.0,89.0
104,64.279296875,64.41015625,81.0,89.0
105,64.513671875,64.943359375,80.0,89.0
106,65.216796875,65.466796875,71.0,89.0
107,65.685546875,65.974609375,83.0,89.0
108,66.154296875,66.259765625,81.0,89.0
109,66.388671875,66.7109375,78.0,89.0
110,66.857421875,66.974609375,76.0,90.0
111,67.091796875,67.21875,78.0,90.0
112,67.326171875,67.4453125,76.0,90.0
113,67.560546875,67.830078125,78.0,90.0
114,68.029296875,68.150390625,80.0,90.0
115,68.263671875,68.8515625,80.0,90.0
116,68.966796875,69.2265625,71.0,90.0
117,69.435546875,69.779296875,83.0,90.0
118,69.904296875,70.0078125,81.0,90.0
119,70.138671875,70.51953125,80.0,90.0
120,70.841796875,71.0703125,71.0,90.0
121,71.310546875,71.57421875,83.0,90.0
122,71.779296875,71.88671875,85.0,90.0
123,72.013671875,72.419921875,80.0,90.0
124,72.716796875,72.84375,78.0,91.0
125,72.8984375,73.02734375,78.0,91.0
126,73.185546875,73.33984375,76.0,91.0
127,73.419921875,73.818359375,78.0,91.0
128,74.123046875,74.509765625,81.0,91.0
129,74.591796875,74.732421875,80.0,91.0
130,74.826171875,75.18359375,76.0,91.0
131,75.294921875,75.60546875,78.0,91.0
132,75.763671875,76.505859375,80.0,91.0
133,76.935546875,77.07421875,83.0,91.0
134,77.169921875,77.443359375,85.0,91.0
135,77.638671875,77.962890625,85.0,91.0
136,78.107421875,78.265625,83.0,91.0
137,78.341796875,78.466796875,85.0,91.0
138,78.576171875,78.7109375,83.0,91.0
139,78.810546875,79.03515625,85.0,92.0
140,79.044921875,79.267578125,85.0,92.0
141,79.279296875,79.388671875,83.0,92.0
142,79.513671875,79.787109375,88.0,92.0
143,79.982421875,80.390625,83.0,92.0
144,80.451171875,80.7265625,88.0,92.0
145,80.919921875,81.4765625,85.0,92.0
146,81.388671875,81.7734375,83.0,92.0
147,81.857421875,81.95703125,83.0,92.0
148,82.091796875,82.30078125,83.0,92.0
149,82.326171875,82.46484375,80.0,92.0
150,82.560546875,82.66015625,83.0,92.0
151,82.794921875,82.91015625,83.0,92.0
152,83.029296875,83.1015625,85.0,92.0
153,83.263671875,84.15625,80.0,92.0
154,84.435546875,84.6953125,83.0,92.0
155,84.669921875,84.861328125,81.0,92.0
156,85.138671875,85.24609375,80.0,92.0
157,85.373046875,85.65234375,80.0,92.0
158,85.841796875,86.04296875,81.0,92.0
159,86.076171875,86.607421875,73.0,92.0
160,86.779296875,86.966796875,76.0,92.0
161,87.013671875,87.5,80.0,92.0
162,87.716796875,87.904296875,78.0,92.0
163,87.951171875,88.322265625,75.0,92.0
164,88.419921875,88.80078125,76.0,92.0
165,89.123046875,90.20703125,78.0,92.0
166,90.294921875,90.416015625,77.0,90.0
167,90.529296875,90.642578125,78.0,90.0
168,90.998046875,91.640625,80.0,89.0
169,91.935546875,92.173828125,83.0,89.0
170,92.404296875,92.54296875,81.0,90.0
171,92.638671875,92.755859375,80.0,89.0
172,92.873046875,93.177734375,80.0,90.0
173,93.341796875,93.462890625,81.0,89.0
174,93.576171875,93.994140625,73.0,89.0
175,94.044921875,94.310546875,75.0,89.0
176,94.513671875,97.064453125,75.0,89.0
177,128.966796875,129.078125,71.0,86.0
178,129.201171875,129.603515625,71.0,86.0
179,129.904296875,130.017578125,71.0,86.0
180,130.138671875,130.568359375,71.0,86.0
181,130.841796875,131.1171875,71.0,86.0
182,131.076171875,131.568359375,78.0,86.0
183,131.779296875,132.041015625,75.0,86.0
184,132.248046875,134.19921875,76.0,86.0
185,135.529296875,135.611328125,80.0,86.0
186,135.763671875,135.85546875,80.0,86.0
187,135.998046875,136.279296875,80.0,86.0
188,136.466796875,136.640625,81.0,86.0
189,136.701171875,137.19921875,76.0,86.0
190,137.638671875,137.71484375,73.0,86.0
191,137.873046875,138.15234375,72.0,86.0
192,138.341796875,138.58203125,72.0,86.0
193,138.810546875,139.16015625,78.0,86.0
194,139.279296875,139.369140625,80.0,86.0
195,139.513671875,141.59765625,80.0,86.0
196,142.794921875,142.91015625,71.0,88.0
197,143.029296875,143.123046875,80.0,88.0
198,143.263671875,143.35546875,80.0,88.0
199,143.498046875,143.810546875,80.0,88.0
200,143.966796875,144.078125,81.0,88.0
201,144.201171875,144.64453125,83.0,88.0
202,144.904296875,145.240234375,76.0,88.0
203,145.373046875,146.5390625,78.0,89.0
204,147.248046875,147.54296875,80.0,89.0
205,147.716796875,147.81640625,81.0,89.0
206,147.951171875,148.392578125,83.0,89.0
207,148.419921875,148.806640625,85.0,89.0
208,149.123046875,149.759765625,77.0,89.0
209,150.060546875,150.193359375,80.0,89.0
210,150.294921875,150.412109375,81.0,89.0
211,150.529296875,150.66015625,83.0,89.0
212,150.763671875,151.271484375,78.0,89.0
213,151.232421875,151.419921875,76.0,89.0
214,151.935546875,152.072265625,80.0,90.0
215,152.169921875,152.298828125,81.0,90.0
216,152.404296875,152.548828125,83.0,90.0
217,152.638671875,153.15234375,78.0,90.0
218,153.107421875,153.310546875,76.0,90.0
219,153.810546875,153.93359375,80.0,90.0
220,154.044921875,154.150390625,81.0,90.0
221,154.279296875,154.40234375,83.0,90.0
222,154.513671875,155.01171875,78.0,90.0
223,155.216796875,156.849609375,76.0,90.0
224,157.091796875,157.4296875,71.0,91.0
225,157.560546875,157.9140625,83.0,92.0
226,158.029296875,158.140625,81.0,92.0
227,158.263671875,158.716796875,80.0,92.0
228,158.966796875,159.228515625,71.0,93.0
229,159.435546875,159.7109375,83.0,94.0
230,159.904296875,160.03515625,81.0,94.0
231,160.138671875,160.568359375,80.0,94.0
232,160.841796875,161.091796875,71.0,95.0
233,161.310546875,161.599609375,83.0,95.0
234,161.779296875,161.884765625,81.0,95.0
235,162.013671875,162.3359375,78.0,95.0
236,162.482421875,162.599609375,76.0,95.0
237,162.716796875,162.84375,78.0,95.0
238,162.951171875,163.0703125,76.0,95.0
239,163.185546875,163.455078125,78.0,95.0
240,163.654296875,163.775390625,80.0,95.0
241,163.888671875,164.4765625,80.0,95.0
242,164.591796875,164.8515625,71.0,95.0
243,165.060546875,165.404296875,83.0,95.0
244,165.529296875,165.6328125,81.0,95.0
245,165.763671875,166.14453125,80.0,95.0
246,166.466796875,166.6953125,71.0,95.0
247,166.935546875,167.19921875,83.0,95.0
248,167.404296875,167.51171875,85.0,95.0
249,167.638671875,167.830078125,80.0,95.0
250,167.859375,168.142578125,78.0,95.0
251,168.341796875,168.509765625,78.0,95.0
252,168.548828125,168.716796875,76.0,95.0
253,168.810546875,168.96484375,76.0,95.0
254,169.044921875,169.443359375,78.0,95.0
255,169.748046875,170.134765625,81.0,95.0
256,170.216796875,170.357421875,80.0,95.0
257,170.451171875,170.80859375,76.0,95.0
258,170.919921875,171.23046875,78.0,95.0
259,171.388671875,172.130859375,80.0,95.0
260,172.560546875,172.69921875,83.0,95.0
261,172.794921875,173.068359375,85.0,95.0
262,173.263671875,173.587890625,85.0,95.0
263,173.732421875,173.890625,83.0,95.0
264,173.966796875,174.091796875,85.0,95.0
265,174.201171875,174.3359375,83.0,95.0
266,174.435546875,174.66015625,85.0,95.0
267,174.669921875,174.892578125,85.0,95.0
268,174.904296875,175.013671875,83.0,95.0
269,175.138671875,175.412109375,88.0,95.0
270,175.607421875,176.015625,83.0,95.0
271,176.076171875,176.3515625,88.0,95.0
272,176.544921875,177.1015625,85.0,95.0
273,177.013671875,177.3984375,83.0,95.0
274,177.482421875,177.58203125,83.0,95.0
275,177.716796875,177.92578125,83.0,95.0
276,177.951171875,178.08984375,80.0,95.0
277,178.185546875,178.28515625,83.0,95.0
278,178.419921875,178.53515625,83.0,95.0
279,178.654296875,178.7265625,85.0,95.0
280,178.888671875,179.78125,80.0,95.0
281,180.060546875,180.3203125,83.0,95.0
282,180.294921875,180.486328125,81.0,95.0
283,180.763671875,180.87109375,80.0,95.0
284,180.998046875,181.27734375,80.0,95.0
285,181.466796875,181.66796875,81.0,95.0
286,181.701171875,182.232421875,73.0,95.0
287,182.404296875,182.591796875,76.0,95.0
288,182.638671875,183.125,80.0,95.0
289,183.341796875,183.529296875,78.0,95.0
290,183.576171875,183.947265625,75.0,95.0
291,184.044921875,184.42578125,76.0,95.0
292,184.748046875,185.83203125,78.0,95.0
293,185.919921875,186.041015625,77.0,95.0
294,186.154296875,186.267578125,78.0,95.0
295,186.623046875,187.265625,80.0,95.0
296,187.560546875,187.798828125,83.0,95.0
297,188.029296875,188.16796875,81.0,95.0
298,188.263671875,188.380859375,80.0,95.0
299,188.498046875,188.802734375,80.0,95.0
300,188.966796875,189.087890625,81.0,95.0
301,189.201171875,189.619140625,73.0,95.0
302,189.669921875,189.935546875,75.0,95.0
303,190.138671875,192.689453125,75.0,95.0
304,192.716796875,193.017578125,71.0,63.0
305,193.185546875,193.4765625,83.0,100.0
306,193.654296875,193.755859375,81.0,95.0
307,193.888671875,194.2265625,80.0,85.0
308,194.591796875,194.826171875,71.0,77.0
309,195.060546875,195.34375,83.0,104.0
310,195.529296875,195.65625,81.0,98.0
311,195.763671875,196.12109375,80.0,86.0
312,196.701171875,196.806640625,71.0,67.0
313,196.935546875,197.22265625,83.0,111.0
314,197.404296875,197.490234375,85.0,117.0
315,197.638671875,197.873046875,78.0,114.0
316,198.107421875,198.244140625,76.0,70.0
317,198.341796875,198.53125,78.0,93.0
318,198.576171875,198.708984375,76.0,81.0
319,198.810546875,198.916015625,78.0,93.0
320,199.044921875,199.251953125,83.0,90.0
321,199.513671875,200.455078125,80.0,112.0
322,200.216796875,200.52734375,71.0,73.0
323,200.685546875,200.943359375,83.0,93.0
324,201.154296875,201.259765625,81.0,98.0
325,201.388671875,201.7734375,80.0,95.0
326,202.091796875,202.359375,71.0,79.0
327,202.560546875,202.822265625,83.0,98.0
328,203.029296875,203.150390625,85.0,108.0
329,203.263671875,203.6171875,78.0,104.0
330,203.966796875,204.255859375,78.0,112.0
331,204.435546875,204.5546875,76.0,83.0
332,204.669921875,204.9296875,78.0,100.0
333,205.373046875,205.716796875,81.0,95.0
334,205.841796875,205.99609375,80.0,98.0
335,206.310546875,206.5625,83.0,86.0
336,206.779296875,207.041015625,78.0,87.0
337,207.013671875,207.041015625,78.0,93.0
338,207.482421875,208.001953125,80.0,95.0
339,208.185546875,208.3359375,83.0,87.0
340,208.419921875,208.578125,85.0,93.0
341,208.654296875,208.759765625,80.0,93.0
342,208.888671875,209.22265625,83.0,86.0
343,209.357421875,209.51953125,83.0,67.0
344,209.591796875,209.79296875,85.0,100.0
345,209.826171875,210.005859375,83.0,75.0
346,210.060546875,210.259765625,85.0,117.0
347,210.294921875,210.537109375,85.0,114.0
348,210.529296875,210.693359375,83.0,70.0
349,210.763671875,211.005859375,88.0,112.0
350,211.232421875,211.568359375,85.0,104.0
351,211.701171875,211.962890625,88.0,85.0
352,212.169921875,212.560546875,85.0,98.0
353,212.638671875,213.01953125,83.0,86.0
354,213.107421875,213.20703125,83.0,83.0
355,213.341796875,213.57421875,83.0,85.0
356,213.576171875,213.740234375,80.0,71.0
357,213.810546875,213.8828125,83.0,68.0
358,214.044921875,214.1484375,83.0,70.0
359,214.279296875,214.41796875,85.0,93.0
360,214.513671875,215.27734375,80.0,65.0
361,215.685546875,215.9453125,83.0,108.0
362,216.154296875,216.306640625,81.0,104.0
363,216.388671875,216.48046875,80.0,104.0
364,216.623046875,216.89453125,80.0,112.0
365,217.091796875,217.330078125,81.0,72.0
366,217.326171875,217.96875,73.0,98.0
367,218.029296875,218.21875,76.0,74.0
368,218.263671875,218.70703125,80.0,93.0
369,218.966796875,219.16015625,78.0,95.0
370,219.201171875,219.5234375,75.0,68.0
371,219.669921875,220.15234375,76.0,85.0
372,220.373046875,221.41796875,78.0,111.0
373,221.544921875,221.666015625,77.0,79.0
374,221.779296875,221.876953125,78.0,93.0
375,222.013671875,222.787109375,80.0,100.0
376,223.185546875,223.462890625,83.0,98.0
377,223.654296875,223.82421875,81.0,90.0
378,223.888671875,223.9921875,80.0,90.0
379,224.123046875,224.2734375,80.0,114.0
380,224.591796875,224.744140625,81.0,73.0
381,224.826171875,225.416015625,73.0,95.0
382,225.294921875,225.845703125,76.0,95.0
383,225.998046875,227.9296875,75.0,86.0
