,start,end,pitch,velocity
0,2.873046875,3.6640625,52.0,76.0
1,2.873046875,3.6953125,56.0,76.0
2,2.873046875,3.71484375,59.0,76.0
3,3.810546875,4.30859375,52.0,76.0
4,3.810546875,4.3359375,59.0,76.0
5,3.810546875,4.3515625,56.0,76.0
6,2.873046875,4.486328125,40.0,76.0
7,4.748046875,5.48828125,63.0,76.0
8,4.748046875,5.546875,59.0,76.0
9,4.748046875,5.55078125,56.0,76.0
10,5.685546875,6.107421875,59.0,76.0
11,5.685546875,6.1328125,63.0,76.0
12,5.685546875,6.162109375,56.0,76.0
13,4.748046875,6.3046875,44.0,76.0
14,6.623046875,7.435546875,61.0,76.0
15,6.623046875,7.439453125,64.0,76.0
16,6.623046875,7.44140625,68.0,76.0
17,7.560546875,8.359375,64.0,76.0
18,7.560546875,8.3671875,68.0,76.0
19,7.560546875,8.392578125,61.0,76.0
20,6.623046875,8.3984375,49.0,76.0
21,8.498046875,9.26953125,64.0,76.0
22,8.498046875,9.2890625,61.0,76.0
23,8.498046875,9.302734375,68.0,76.0
24,9.435546875,9.84375,64.0,76.0
25,9.435546875,9.861328125,68.0,76.0
26,9.435546875,9.87890625,61.0,76.0
27,8.498046875,10.322265625,47.0,76.0
28,10.373046875,11.265625,57.0,76.0
29,10.373046875,11.26953125,61.0,76.0
30,10.373046875,11.27734375,64.0,76.0
31,11.310546875,11.794921875,57.0,76.0
32,11.310546875,11.80078125,61.0,76.0
33,11.310546875,11.80078125,64.0,76.0
34,10.373046875,11.833984375,45.0,76.0
35,12.248046875,13.091796875,60.0,76.0
36,12.248046875,13.09765625,56.0,76.0
37,12.248046875,13.09765625,63.0,76.0
38,13.185546875,13.59375,60.0,76.0
39,13.185546875,13.6015625,56.0,76.0
40,13.185546875,13.638671875,63.0,76.0
41,12.248046875,13.654296875,44.0,76.0
42,14.123046875,14.8828125,61.0,76.0
43,14.123046875,14.896484375,64.0,76.0
44,14.123046875,14.8984375,68.0,76.0
45,15.060546875,15.90625,64.0,76.0
46,15.060546875,15.91015625,61.0,76.0
47,15.060546875,15.912109375,68.0,76.0
48,14.123046875,15.998046875,49.0,76.0
49,15.998046875,16.82421875,61.0,76.0
50,15.998046875,16.82421875,64.0,76.0
51,15.998046875,16.826171875,68.0,76.0
52,16.935546875,17.384765625,64.0,75.0
53,16.935546875,17.392578125,68.0,75.0
54,16.935546875,17.41796875,61.0,75.0
55,15.998046875,17.734375,47.0,76.0
56,17.873046875,18.466796875,55.0,75.0
57,17.873046875,18.48046875,57.0,75.0
58,17.873046875,18.685546875,61.0,75.0
59,17.873046875,18.693359375,64.0,75.0
60,18.810546875,19.271484375,57.0,75.0
61,18.810546875,19.2734375,64.0,75.0
62,17.873046875,19.3046875,45.0,75.0
63,18.810546875,19.306640625,61.0,75.0
64,19.748046875,20.49609375,57.0,75.0
65,19.748046875,20.509765625,64.0,75.0
66,19.748046875,20.525390625,60.0,75.0
67,19.748046875,21.18359375,45.0,75.0
68,20.685546875,21.1875,60.0,75.0
69,20.685546875,21.1875,64.0,75.0
70,20.685546875,21.193359375,57.0,75.0
71,21.623046875,22.185546875,63.0,75.0
72,21.623046875,22.359375,59.0,75.0
73,21.623046875,22.416015625,56.0,75.0
74,21.623046875,22.92578125,44.0,75.0
75,22.560546875,22.927734375,63.0,75.0
76,22.560546875,22.931640625,59.0,75.0
77,22.560546875,22.939453125,56.0,75.0
78,23.498046875,24.251953125,61.0,74.0
79,23.498046875,24.26171875,65.0,74.0
80,23.498046875,24.287109375,68.0,74.0
81,23.498046875,24.3125,49.0,74.0
82,24.435546875,25.232421875,65.0,73.0
83,24.435546875,25.275390625,68.0,73.0
84,24.435546875,25.291015625,61.0,73.0
85,24.435546875,25.33203125,49.0,73.0
86,25.373046875,26.076171875,61.0,73.0
87,25.373046875,26.095703125,57.0,73.0
88,25.373046875,26.103515625,54.0,73.0
89,26.310546875,26.708984375,57.0,73.0
90,26.310546875,26.71875,61.0,73.0
91,26.310546875,26.73046875,54.0,73.0
92,25.373046875,26.8046875,42.0,73.0
93,27.248046875,27.935546875,47.0,73.0
94,27.248046875,27.955078125,51.0,73.0
95,27.248046875,27.982421875,59.0,73.0
96,27.248046875,28.01953125,63.0,73.0
97,27.248046875,28.025390625,66.0,73.0
98,28.185546875,28.56640625,51.0,73.0
99,28.185546875,28.595703125,63.0,73.0
100,28.185546875,28.607421875,66.0,73.0
101,28.185546875,28.611328125,59.0,73.0
102,28.185546875,28.625,47.0,73.0
103,29.123046875,29.962890625,52.0,73.0
104,29.123046875,29.984375,56.0,73.0
105,29.123046875,30.001953125,59.0,73.0
106,30.060546875,30.83984375,52.0,73.0
107,30.060546875,30.865234375,56.0,73.0
108,30.060546875,30.89453125,59.0,73.0
109,29.123046875,30.998046875,40.0,73.0
110,30.998046875,31.634765625,56.0,73.0
111,30.998046875,31.73828125,61.0,73.0
112,30.998046875,31.7890625,52.0,73.0
113,30.998046875,31.798828125,40.0,73.0
114,31.935546875,32.009765625,56.0,73.0
115,31.935546875,32.009765625,56.0,73.0
116,31.935546875,32.609375,52.0,73.0
117,31.935546875,32.787109375,40.0,73.0
118,31.935546875,32.873046875,59.0,73.0
119,32.873046875,33.634765625,64.0,75.0
120,32.873046875,33.6484375,68.0,75.0
121,32.873046875,33.771484375,59.0,74.0
122,32.873046875,34.0,40.0,81.0
123,33.810546875,34.068359375,52.0,61.0
124,33.341796875,34.08203125,47.0,54.0
125,33.810546875,34.27734375,64.0,88.0
126,33.810546875,34.283203125,68.0,88.0
127,34.279296875,34.298828125,63.0,53.0
128,34.279296875,34.48828125,59.0,72.0
129,34.748046875,35.27734375,59.0,76.0
130,34.748046875,35.29296875,63.0,78.0
131,34.748046875,35.86328125,39.0,45.0
132,35.685546875,36.240234375,63.0,83.0
133,36.154296875,36.4765625,59.0,48.0
134,36.623046875,37.08984375,61.0,66.0
135,36.623046875,37.08984375,64.0,65.0
136,35.216796875,37.408203125,56.0,69.0
137,37.560546875,37.640625,56.0,41.0
138,36.623046875,37.728515625,37.0,76.0
139,37.091796875,37.861328125,49.0,77.0
140,37.560546875,38.298828125,64.0,67.0
141,38.029296875,38.349609375,56.0,88.0
142,37.560546875,38.53125,61.0,64.0
143,38.498046875,39.4453125,59.0,88.0
144,38.966796875,39.662109375,54.0,66.0
145,38.498046875,39.703125,47.0,71.0
146,39.435546875,39.9453125,66.0,95.0
147,39.435546875,39.99609375,63.0,93.0
148,39.904296875,40.638671875,59.0,74.0
149,40.841796875,41.416015625,52.0,72.0
150,40.373046875,41.5078125,45.0,73.0
151,41.779296875,42.248046875,57.0,69.0
152,41.310546875,42.248046875,61.0,79.0
153,41.310546875,42.248046875,64.0,69.0
154,42.716796875,43.130859375,56.0,74.0
155,42.248046875,43.75,44.0,90.0
156,43.185546875,44.1484375,60.0,89.0
157,43.185546875,44.197265625,63.0,67.0
158,43.654296875,44.416015625,56.0,72.0
159,44.591796875,45.166015625,56.0,89.0
160,44.123046875,45.92578125,49.0,93.0
161,45.529296875,46.34765625,56.0,72.0
162,45.060546875,46.482421875,61.0,68.0
163,45.060546875,46.5390625,64.0,70.0
164,46.466796875,46.8359375,56.0,64.0
165,45.998046875,47.193359375,49.0,65.0
166,46.935546875,47.4609375,64.0,82.0
167,46.935546875,47.720703125,61.0,92.0
168,47.404296875,47.861328125,49.0,82.0
169,47.873046875,48.490234375,64.0,75.0
170,47.873046875,48.5234375,57.0,83.0
171,47.873046875,48.541015625,61.0,77.0
172,48.341796875,49.060546875,52.0,61.0
173,48.810546875,49.380859375,61.0,88.0
174,47.873046875,49.396484375,45.0,66.0
175,48.810546875,49.3984375,64.0,67.0
176,49.279296875,50.349609375,57.0,73.0
177,49.748046875,50.513671875,64.0,75.0
178,49.748046875,50.55859375,60.0,76.0
179,50.216796875,50.78125,52.0,58.0
180,49.748046875,50.865234375,45.0,75.0
181,50.685546875,51.150390625,64.0,69.0
182,50.685546875,51.16015625,60.0,78.0
183,51.154296875,51.490234375,57.0,61.0
184,51.623046875,52.19140625,66.0,83.0
185,51.623046875,52.2265625,63.0,74.0
186,51.623046875,52.296875,59.0,63.0
187,52.091796875,52.66796875,56.0,70.0
188,52.560546875,53.0859375,63.0,79.0
189,52.560546875,53.095703125,66.0,74.0
190,51.623046875,53.4140625,44.0,83.0
191,53.029296875,53.49609375,59.0,72.0
192,53.498046875,53.923828125,65.0,71.0
193,53.498046875,54.259765625,61.0,70.0
194,53.498046875,54.30859375,56.0,85.0
195,54.435546875,54.470703125,56.0,33.0
196,53.498046875,54.58203125,49.0,66.0
197,54.435546875,55.271484375,65.0,74.0
198,54.904296875,55.32421875,56.0,69.0
199,54.435546875,55.474609375,61.0,89.0
200,55.373046875,56.41015625,57.0,88.0
201,55.373046875,56.44140625,42.0,86.0
202,55.841796875,56.52734375,54.0,74.0
203,56.310546875,56.826171875,66.0,92.0
204,56.779296875,57.103515625,57.0,71.0
205,56.310546875,57.189453125,61.0,89.0
206,57.248046875,57.8828125,66.0,62.0
207,57.248046875,57.99609375,59.0,73.0
208,57.248046875,58.0703125,63.0,69.0
209,57.716796875,58.142578125,54.0,59.0
210,57.248046875,58.248046875,47.0,68.0
211,58.185546875,58.697265625,66.0,93.0
212,58.185546875,58.728515625,63.0,86.0
213,58.654296875,59.01171875,59.0,66.0
214,59.123046875,59.919921875,68.0,86.0
215,59.123046875,59.951171875,59.0,78.0
216,59.123046875,59.955078125,64.0,86.0
217,59.591796875,60.2890625,47.0,45.0
218,60.060546875,60.546875,52.0,69.0
219,60.060546875,60.62109375,64.0,100.0
220,60.060546875,60.634765625,68.0,112.0
221,59.123046875,60.826171875,40.0,77.0
222,60.529296875,60.912109375,59.0,90.0
223,60.529296875,61.017578125,47.0,41.0
224,60.998046875,61.513671875,59.0,75.0
225,60.998046875,61.587890625,64.0,95.0
226,60.998046875,61.76171875,68.0,99.0
227,61.701171875,62.02734375,59.0,93.0
228,61.466796875,62.041015625,52.0,96.0
229,60.998046875,62.267578125,40.0,82.0
230,61.232421875,62.3046875,47.0,68.0
231,62.169921875,62.375,52.0,82.0
232,61.935546875,62.396484375,68.0,117.0
233,61.935546875,62.408203125,64.0,102.0
234,62.404296875,62.78515625,59.0,96.0
235,62.873046875,63.34765625,61.0,102.0
236,62.873046875,63.400390625,64.0,92.0
237,63.341796875,63.611328125,57.0,79.0
238,63.107421875,63.94140625,52.0,57.0
239,63.810546875,64.248046875,64.0,100.0
240,63.810546875,64.2578125,61.0,127.0
241,62.873046875,64.294921875,45.0,93.0
242,64.279296875,64.556640625,57.0,96.0
243,64.044921875,64.69921875,52.0,79.0
244,64.748046875,65.0234375,47.0,69.0
245,64.748046875,65.34765625,63.0,99.0
246,64.748046875,65.3515625,66.0,93.0
247,64.748046875,65.4296875,59.0,92.0
248,65.685546875,66.068359375,54.0,85.0
249,65.216796875,66.072265625,47.0,92.0
250,65.685546875,66.181640625,66.0,107.0
251,65.685546875,66.244140625,63.0,112.0
252,66.388671875,66.451171875,44.0,36.0
253,66.154296875,66.5078125,59.0,95.0
254,66.623046875,66.818359375,44.0,96.0
255,66.623046875,67.171875,68.0,92.0
256,66.623046875,67.177734375,63.0,100.0
257,66.623046875,67.205078125,59.0,83.0
258,67.560546875,67.8828125,56.0,93.0
259,67.560546875,68.013671875,68.0,117.0
260,67.560546875,68.048828125,63.0,122.0
261,67.091796875,68.166015625,44.0,102.0
262,68.029296875,68.2734375,59.0,96.0
263,68.498046875,68.9140625,49.0,99.0
264,68.498046875,69.142578125,64.0,76.0
265,68.498046875,69.16015625,61.0,76.0
266,68.966796875,69.353515625,49.0,72.0
267,69.435546875,69.796875,49.0,95.0
268,69.435546875,69.982421875,61.0,112.0
269,69.435546875,70.068359375,64.0,85.0
270,69.904296875,70.115234375,56.0,97.0
271,70.373046875,71.0390625,64.0,85.0
272,70.373046875,71.173828125,61.0,81.0
273,70.373046875,71.505859375,45.0,85.0
274,70.841796875,71.609375,52.0,73.0
275,71.310546875,71.759765625,64.0,88.0
276,71.310546875,72.009765625,57.0,92.0
277,71.310546875,72.16015625,61.0,107.0
278,71.779296875,72.201171875,45.0,73.0
279,72.248046875,72.6171875,59.0,79.0
280,72.248046875,72.98828125,66.0,93.0
281,72.248046875,73.091796875,63.0,93.0
282,72.716796875,73.32421875,59.0,72.0
283,72.248046875,73.400390625,47.0,75.0
284,73.419921875,73.595703125,47.0,77.0
285,73.185546875,73.7109375,66.0,100.0
286,73.185546875,73.71484375,63.0,100.0
287,73.654296875,73.990234375,59.0,97.0
288,74.123046875,74.685546875,59.0,99.0
289,74.123046875,74.935546875,68.0,112.0
290,74.123046875,74.94921875,64.0,97.0
291,74.591796875,75.15234375,52.0,92.0
292,74.826171875,75.375,59.0,79.0
293,75.294921875,75.521484375,52.0,99.0
294,75.060546875,75.595703125,68.0,127.0
295,75.060546875,75.60546875,64.0,122.0
296,74.123046875,75.8984375,40.0,82.0
297,75.763671875,75.91015625,68.0,93.0
298,75.529296875,75.919921875,59.0,96.0
299,75.763671875,75.931640625,64.0,89.0
300,74.357421875,76.01953125,47.0,75.0
301,75.998046875,76.5078125,59.0,72.0
302,75.998046875,76.57421875,64.0,122.0
303,75.998046875,76.58203125,68.0,127.0
304,76.701171875,76.830078125,68.0,38.0
305,76.701171875,76.849609375,64.0,53.0
306,76.701171875,76.861328125,59.0,96.0
307,76.466796875,77.078125,52.0,97.0
308,76.935546875,77.2421875,59.0,93.0
309,75.998046875,77.349609375,40.0,92.0
310,76.232421875,77.43359375,47.0,77.0
311,76.935546875,77.435546875,68.0,127.0
312,76.935546875,77.44140625,64.0,102.0
313,77.169921875,77.521484375,52.0,96.0
314,77.404296875,77.69921875,59.0,112.0
315,77.638671875,77.71484375,64.0,33.0
316,77.873046875,78.1328125,57.0,112.0
317,77.873046875,78.416015625,61.0,112.0
318,77.873046875,78.484375,64.0,89.0
319,78.341796875,78.736328125,57.0,89.0
320,78.107421875,78.90625,52.0,93.0
321,78.810546875,79.2578125,64.0,97.0
322,77.873046875,79.544921875,45.0,83.0
323,79.279296875,79.57421875,57.0,89.0
324,78.576171875,79.654296875,61.0,85.0
325,79.044921875,79.712890625,52.0,88.0
326,79.748046875,80.40625,66.0,96.0
327,79.748046875,80.5546875,59.0,89.0
328,79.748046875,80.580078125,63.0,97.0
329,80.216796875,80.833984375,54.0,85.0
330,79.748046875,81.029296875,47.0,79.0
331,80.919921875,81.056640625,54.0,96.0
332,80.685546875,81.1484375,66.0,127.0
333,80.685546875,81.162109375,63.0,127.0
334,81.154296875,81.525390625,59.0,96.0
335,81.623046875,81.693359375,59.0,69.0
336,81.623046875,82.142578125,63.0,107.0
337,81.623046875,82.166015625,68.0,102.0
338,82.091796875,82.466796875,59.0,88.0
339,82.326171875,82.48046875,63.0,72.0
340,81.857421875,82.599609375,56.0,97.0
341,82.794921875,82.974609375,56.0,95.0
342,82.560546875,83.017578125,68.0,117.0
343,82.560546875,83.044921875,63.0,122.0
344,81.623046875,83.384765625,44.0,99.0
345,83.029296875,83.41015625,59.0,93.0
346,83.498046875,84.001953125,65.0,60.0
347,83.498046875,84.005859375,56.0,97.0
348,83.498046875,84.03125,61.0,89.0
349,83.966796875,84.501953125,49.0,93.0
350,84.201171875,84.650390625,56.0,79.0
351,83.732421875,84.712890625,44.0,66.0
352,83.498046875,84.71875,37.0,90.0
353,84.669921875,84.8671875,49.0,79.0
354,84.435546875,84.919921875,61.0,72.0
355,84.435546875,85.15625,65.0,74.0
356,84.904296875,85.404296875,56.0,100.0
357,85.841796875,86.12890625,57.0,96.0
358,86.076171875,86.25390625,64.0,68.0
359,86.076171875,86.2734375,61.0,66.0
360,85.607421875,86.4921875,52.0,64.0
361,86.310546875,86.7890625,64.0,89.0
362,85.373046875,86.8203125,45.0,83.0
363,86.544921875,86.861328125,52.0,70.0
364,86.779296875,87.072265625,57.0,83.0
365,86.310546875,87.1484375,61.0,99.0
366,87.248046875,88.060546875,66.0,77.0
367,87.248046875,88.068359375,63.0,75.0
368,87.248046875,88.087890625,59.0,83.0
369,87.716796875,88.375,54.0,66.0
370,88.185546875,88.49609375,59.0,60.0
371,87.248046875,88.822265625,47.0,69.0
372,88.185546875,89.0,66.0,107.0
373,88.185546875,89.015625,63.0,117.0
374,88.654296875,89.052734375,59.0,74.0
375,88.419921875,89.080078125,54.0,63.0
376,89.123046875,89.771484375,65.0,73.0
377,89.123046875,89.853515625,61.0,102.0
378,89.123046875,90.0,56.0,102.0
379,90.060546875,90.134765625,56.0,78.0
380,89.826171875,90.18359375,49.0,66.0
381,90.060546875,90.583984375,65.0,93.0
382,90.060546875,90.595703125,61.0,112.0
383,90.294921875,90.625,49.0,88.0
384,89.123046875,90.794921875,37.0,95.0
385,90.763671875,90.810546875,65.0,34.0
386,90.529296875,90.865234375,56.0,96.0
387,90.763671875,90.88671875,61.0,66.0
388,89.591796875,91.0546875,44.0,64.0
389,90.998046875,91.494140625,61.0,93.0
390,90.998046875,91.525390625,65.0,81.0
391,90.998046875,91.54296875,56.0,97.0
392,91.701171875,91.783203125,65.0,37.0
393,91.701171875,91.78515625,61.0,36.0
394,91.701171875,91.8984375,56.0,75.0
395,91.466796875,91.958984375,49.0,89.0
396,91.232421875,92.1953125,44.0,36.0
397,90.998046875,92.22265625,37.0,88.0
398,91.935546875,92.23046875,56.0,72.0
399,92.169921875,92.34375,49.0,89.0
400,91.935546875,92.482421875,65.0,92.0
401,92.404296875,92.74609375,56.0,102.0
402,91.935546875,92.79296875,61.0,99.0
403,92.873046875,92.951171875,57.0,92.0
404,92.873046875,93.396484375,61.0,72.0
405,92.873046875,93.51171875,64.0,83.0
406,93.341796875,93.630859375,57.0,96.0
407,93.107421875,93.953125,52.0,65.0
408,93.576171875,94.40625,61.0,92.0
409,93.810546875,94.546875,64.0,93.0
410,92.873046875,94.572265625,45.0,76.0
411,94.279296875,94.57421875,57.0,85.0
412,94.044921875,94.708984375,52.0,75.0
413,94.513671875,94.79296875,61.0,86.0
414,94.748046875,95.0390625,59.0,75.0
415,94.748046875,95.080078125,66.0,89.0
416,94.748046875,95.28515625,63.0,92.0
417,94.982421875,95.8046875,54.0,96.0
418,95.216796875,95.806640625,59.0,73.0
419,94.748046875,96.21484375,47.0,83.0
420,95.451171875,96.275390625,63.0,73.0
421,95.685546875,96.291015625,66.0,107.0
422,95.919921875,96.4921875,54.0,81.0
423,96.623046875,98.416015625,63.0,88.0
424,96.623046875,98.4296875,66.0,100.0
425,96.623046875,98.43359375,54.0,69.0
426,96.154296875,98.43359375,59.0,74.0
427,96.623046875,98.4609375,47.0,66.0
428,98.498046875,99.212890625,45.0,84.0
429,98.498046875,99.224609375,49.0,84.0
430,98.498046875,99.2265625,52.0,84.0
431,99.435546875,99.986328125,49.0,84.0
432,99.435546875,100.013671875,52.0,84.0
433,99.435546875,100.072265625,45.0,84.0
434,100.373046875,101.10546875,52.0,84.0
435,100.373046875,101.126953125,45.0,84.0
436,100.373046875,101.138671875,48.0,84.0
437,101.310546875,101.93359375,52.0,84.0
438,101.310546875,101.97265625,48.0,84.0
439,101.310546875,102.0,45.0,84.0
440,102.248046875,103.0390625,52.0,83.0
441,102.248046875,103.04296875,59.0,83.0
442,102.248046875,103.064453125,56.0,83.0
443,102.248046875,103.1484375,40.0,83.0
444,103.185546875,103.98046875,52.0,83.0
445,103.185546875,103.99609375,59.0,83.0
446,103.185546875,103.998046875,40.0,83.0
447,103.185546875,104.009765625,56.0,83.0
448,104.123046875,104.91015625,59.0,83.0
449,104.123046875,104.916015625,52.0,83.0
450,104.123046875,104.9453125,56.0,83.0
451,104.123046875,104.96484375,40.0,83.0
452,105.060546875,105.51953125,52.0,83.0
453,105.060546875,105.525390625,59.0,83.0
454,105.060546875,105.53125,40.0,83.0
455,105.060546875,105.5390625,56.0,83.0
456,105.998046875,106.755859375,45.0,83.0
457,105.998046875,106.76171875,52.0,83.0
458,105.998046875,106.767578125,49.0,83.0
459,106.935546875,107.763671875,45.0,83.0
460,106.935546875,107.7734375,52.0,83.0
461,106.935546875,107.77734375,49.0,83.0
462,107.873046875,108.6640625,45.0,83.0
463,107.873046875,108.673828125,52.0,83.0
464,107.873046875,108.6875,48.0,83.0
465,108.810546875,109.5625,52.0,83.0
466,108.810546875,109.580078125,45.0,83.0
467,108.810546875,109.609375,48.0,83.0
468,109.748046875,110.572265625,52.0,83.0
469,109.748046875,110.587890625,40.0,83.0
470,109.748046875,110.591796875,59.0,83.0
471,109.748046875,110.611328125,56.0,83.0
472,110.685546875,111.509765625,52.0,83.0
473,110.685546875,111.509765625,59.0,83.0
474,110.685546875,111.521484375,40.0,83.0
475,110.685546875,111.54296875,56.0,83.0
476,111.623046875,112.412109375,59.0,83.0
477,111.623046875,112.435546875,52.0,83.0
478,111.623046875,112.443359375,40.0,83.0
479,111.623046875,112.458984375,56.0,83.0
480,112.560546875,113.099609375,59.0,79.0
481,112.560546875,113.130859375,52.0,79.0
482,112.560546875,113.130859375,56.0,79.0
483,112.560546875,113.17578125,40.0,79.0
484,113.498046875,114.314453125,45.0,79.0
485,113.498046875,114.3203125,49.0,79.0
486,113.498046875,114.326171875,52.0,79.0
487,114.435546875,115.234375,49.0,79.0
488,114.435546875,115.27734375,52.0,79.0
489,114.435546875,115.287109375,45.0,79.0
490,115.373046875,116.20703125,45.0,79.0
491,115.373046875,116.208984375,52.0,79.0
492,115.373046875,116.2265625,48.0,79.0
493,116.310546875,116.62109375,45.0,79.0
494,116.310546875,116.638671875,48.0,79.0
495,116.310546875,116.64453125,52.0,79.0
496,117.248046875,118.0859375,40.0,79.0
497,117.248046875,118.103515625,52.0,79.0
498,117.248046875,118.103515625,56.0,79.0
499,117.248046875,118.103515625,59.0,79.0
500,118.185546875,119.0,40.0,77.0
501,118.185546875,119.0078125,59.0,77.0
502,118.185546875,119.03125,56.0,77.0
503,118.185546875,119.033203125,52.0,77.0
504,119.123046875,119.939453125,53.0,77.0
505,119.123046875,119.94140625,56.0,77.0
506,119.123046875,119.958984375,49.0,77.0
507,120.060546875,120.431640625,53.0,77.0
508,120.060546875,120.4453125,56.0,77.0
509,120.060546875,120.46875,49.0,77.0
510,120.998046875,121.791015625,49.0,77.0
511,120.998046875,121.802734375,45.0,77.0
512,120.998046875,121.837890625,42.0,77.0
513,121.935546875,122.755859375,45.0,76.0
514,121.935546875,122.763671875,49.0,76.0
515,121.935546875,122.787109375,42.0,76.0
516,122.873046875,123.6953125,49.0,75.0
517,122.873046875,123.69921875,45.0,75.0
518,122.873046875,123.728515625,42.0,75.0
519,123.810546875,124.107421875,45.0,75.0
520,123.810546875,124.12890625,42.0,75.0
521,123.810546875,124.1484375,49.0,75.0
522,124.748046875,125.533203125,45.0,75.0
523,124.748046875,125.54296875,52.0,75.0
524,124.748046875,125.560546875,48.0,75.0
525,125.685546875,126.119140625,52.0,75.0
526,125.685546875,126.12109375,48.0,75.0
527,125.685546875,126.1640625,45.0,75.0
528,126.623046875,128.60546875,51.0,75.0
529,126.623046875,128.61328125,54.0,75.0
530,126.623046875,128.634765625,47.0,75.0
531,128.498046875,129.259765625,64.0,75.0
532,128.498046875,129.2734375,68.0,75.0
533,128.498046875,129.396484375,59.0,74.0
534,128.498046875,129.625,40.0,81.0
535,129.435546875,129.693359375,52.0,61.0
536,128.966796875,129.70703125,47.0,54.0
537,129.435546875,129.90234375,64.0,88.0
538,129.435546875,129.908203125,68.0,88.0
539,129.904296875,129.923828125,63.0,53.0
540,129.904296875,130.11328125,59.0,72.0
541,130.373046875,130.90234375,59.0,76.0
542,130.373046875,130.91796875,63.0,78.0
543,130.373046875,131.48828125,39.0,45.0
544,131.310546875,131.865234375,63.0,83.0
545,131.779296875,132.1015625,59.0,48.0
546,132.248046875,132.71484375,61.0,66.0
547,132.248046875,132.71484375,64.0,65.0
548,130.841796875,133.033203125,56.0,69.0
549,133.185546875,133.265625,56.0,41.0
550,132.248046875,133.353515625,37.0,76.0
551,132.716796875,133.486328125,49.0,77.0
552,133.185546875,133.923828125,64.0,67.0
553,133.654296875,133.974609375,56.0,88.0
554,133.185546875,134.15625,61.0,64.0
555,134.123046875,135.0703125,59.0,88.0
556,134.591796875,135.287109375,54.0,66.0
557,134.123046875,135.328125,47.0,71.0
558,135.060546875,135.5703125,66.0,95.0
559,135.060546875,135.62109375,63.0,93.0
560,135.529296875,136.263671875,59.0,74.0
561,136.466796875,137.041015625,52.0,72.0
562,135.998046875,137.1328125,45.0,73.0
563,137.404296875,137.873046875,57.0,69.0
564,136.935546875,137.873046875,61.0,79.0
565,136.935546875,137.873046875,64.0,69.0
566,138.341796875,138.755859375,56.0,74.0
567,137.873046875,139.375,44.0,90.0
568,138.810546875,139.7734375,60.0,89.0
569,138.810546875,139.822265625,63.0,67.0
570,139.279296875,140.041015625,56.0,72.0
571,140.216796875,140.791015625,56.0,89.0
572,139.748046875,141.55078125,49.0,93.0
573,141.154296875,141.97265625,56.0,72.0
574,140.685546875,142.107421875,61.0,68.0
575,140.685546875,142.1640625,64.0,70.0
576,142.091796875,142.4609375,56.0,64.0
577,141.623046875,142.818359375,49.0,65.0
578,142.560546875,143.0859375,64.0,82.0
579,142.560546875,143.345703125,61.0,92.0
580,143.029296875,143.486328125,49.0,82.0
581,143.498046875,144.115234375,64.0,75.0
582,143.498046875,144.1484375,57.0,83.0
583,143.498046875,144.166015625,61.0,77.0
584,143.966796875,144.685546875,52.0,61.0
585,144.435546875,145.005859375,61.0,88.0
586,143.498046875,145.021484375,45.0,66.0
587,144.435546875,145.0234375,64.0,67.0
588,144.904296875,145.974609375,57.0,73.0
589,145.373046875,146.138671875,64.0,75.0
590,145.373046875,146.18359375,60.0,76.0
591,145.841796875,146.40625,52.0,58.0
592,145.373046875,146.490234375,45.0,75.0
593,146.310546875,146.775390625,64.0,69.0
594,146.310546875,146.78515625,60.0,78.0
595,146.779296875,147.115234375,57.0,61.0
596,147.248046875,147.81640625,66.0,83.0
597,147.248046875,147.8515625,63.0,74.0
598,147.248046875,147.921875,59.0,63.0
599,147.716796875,148.29296875,56.0,70.0
600,148.185546875,148.7109375,63.0,79.0
601,148.185546875,148.720703125,66.0,74.0
602,147.248046875,149.0390625,44.0,83.0
603,148.654296875,149.12109375,59.0,72.0
604,149.123046875,149.548828125,65.0,71.0
605,149.123046875,149.884765625,61.0,70.0
606,149.123046875,149.93359375,56.0,85.0
607,150.060546875,150.095703125,56.0,33.0
608,149.123046875,150.20703125,49.0,66.0
609,150.060546875,150.896484375,65.0,74.0
610,150.529296875,150.94921875,56.0,69.0
611,150.060546875,151.099609375,61.0,89.0
612,150.998046875,152.03515625,57.0,88.0
613,150.998046875,152.06640625,42.0,86.0
614,151.466796875,152.15234375,54.0,74.0
615,151.935546875,152.451171875,66.0,92.0
616,152.404296875,152.728515625,57.0,71.0
617,151.935546875,152.814453125,61.0,89.0
618,152.873046875,153.5078125,66.0,62.0
619,152.873046875,153.62109375,59.0,73.0
620,152.873046875,153.6953125,63.0,69.0
621,153.341796875,153.767578125,54.0,59.0
622,152.873046875,153.873046875,47.0,68.0
623,153.810546875,154.322265625,66.0,93.0
624,153.810546875,154.353515625,63.0,86.0
625,154.279296875,154.63671875,59.0,66.0
626,154.748046875,155.544921875,68.0,86.0
627,154.748046875,155.576171875,59.0,78.0
628,154.748046875,155.580078125,64.0,86.0
629,155.216796875,155.9140625,47.0,45.0
630,155.685546875,156.171875,52.0,69.0
631,155.685546875,156.24609375,64.0,100.0
632,155.685546875,156.259765625,68.0,112.0
633,154.748046875,156.451171875,40.0,77.0
634,156.154296875,156.537109375,59.0,90.0
635,156.154296875,156.642578125,47.0,41.0
636,156.623046875,157.138671875,59.0,75.0
637,156.623046875,157.212890625,64.0,95.0
638,156.623046875,157.38671875,68.0,99.0
639,157.326171875,157.65234375,59.0,93.0
640,157.091796875,157.666015625,52.0,96.0
641,156.623046875,157.892578125,40.0,82.0
642,156.857421875,157.9296875,47.0,68.0
643,157.794921875,158.0,52.0,82.0
644,157.560546875,158.021484375,68.0,117.0
645,157.560546875,158.033203125,64.0,102.0
646,158.029296875,158.41015625,59.0,96.0
647,158.498046875,158.97265625,61.0,102.0
648,158.498046875,159.025390625,64.0,92.0
649,158.966796875,159.236328125,57.0,79.0
650,158.732421875,159.56640625,52.0,57.0
651,159.435546875,159.873046875,64.0,100.0
652,159.435546875,159.8828125,61.0,127.0
653,158.498046875,159.919921875,45.0,93.0
654,159.904296875,160.181640625,57.0,96.0
655,159.669921875,160.32421875,52.0,79.0
656,160.373046875,160.6484375,47.0,69.0
657,160.373046875,160.97265625,63.0,99.0
658,160.373046875,160.9765625,66.0,93.0
659,160.373046875,161.0546875,59.0,92.0
660,161.310546875,161.693359375,54.0,85.0
661,160.841796875,161.697265625,47.0,92.0
662,161.310546875,161.806640625,66.0,107.0
663,161.310546875,161.869140625,63.0,112.0
664,162.013671875,162.076171875,44.0,36.0
665,161.779296875,162.1328125,59.0,95.0
666,162.248046875,162.443359375,44.0,96.0
667,162.248046875,162.796875,68.0,92.0
668,162.248046875,162.802734375,63.0,100.0
669,162.248046875,162.830078125,59.0,83.0
670,163.185546875,163.5078125,56.0,93.0
671,163.185546875,163.638671875,68.0,117.0
672,163.185546875,163.673828125,63.0,122.0
673,162.716796875,163.791015625,44.0,102.0
674,163.654296875,163.8984375,59.0,96.0
675,164.123046875,164.5390625,49.0,99.0
676,164.123046875,164.767578125,64.0,76.0
677,164.123046875,164.78515625,61.0,76.0
678,164.591796875,164.978515625,49.0,72.0
679,165.060546875,165.421875,49.0,95.0
680,165.060546875,165.607421875,61.0,112.0
681,165.060546875,165.693359375,64.0,85.0
682,165.529296875,165.740234375,56.0,97.0
683,165.998046875,166.6640625,64.0,85.0
684,165.998046875,166.798828125,61.0,81.0
685,165.998046875,167.130859375,45.0,85.0
686,166.466796875,167.234375,52.0,73.0
687,166.935546875,167.384765625,64.0,88.0
688,166.935546875,167.634765625,57.0,92.0
689,166.935546875,167.78515625,61.0,107.0
690,167.404296875,167.826171875,45.0,73.0
691,167.873046875,168.2421875,59.0,79.0
692,167.873046875,168.61328125,66.0,93.0
693,167.873046875,168.716796875,63.0,93.0
694,168.341796875,168.94921875,59.0,72.0
695,167.873046875,169.025390625,47.0,75.0
696,169.044921875,169.220703125,47.0,77.0
697,168.810546875,169.3359375,66.0,100.0
698,168.810546875,169.33984375,63.0,100.0
699,169.279296875,169.615234375,59.0,97.0
700,169.748046875,170.310546875,59.0,99.0
701,169.748046875,170.560546875,68.0,112.0
702,169.748046875,170.57421875,64.0,97.0
703,170.216796875,170.77734375,52.0,92.0
704,170.451171875,171.0,59.0,79.0
705,170.919921875,171.146484375,52.0,99.0
706,170.685546875,171.220703125,68.0,127.0
707,170.685546875,171.23046875,64.0,122.0
708,169.748046875,171.5234375,40.0,82.0
709,171.388671875,171.53515625,68.0,93.0
710,171.154296875,171.544921875,59.0,96.0
711,171.388671875,171.556640625,64.0,89.0
712,169.982421875,171.64453125,47.0,75.0
713,171.623046875,172.1328125,59.0,72.0
714,171.623046875,172.19921875,64.0,122.0
715,171.623046875,172.20703125,68.0,127.0
716,172.326171875,172.455078125,68.0,38.0
717,172.326171875,172.474609375,64.0,53.0
718,172.326171875,172.486328125,59.0,96.0
719,172.091796875,172.703125,52.0,97.0
720,172.560546875,172.8671875,59.0,93.0
721,171.623046875,172.974609375,40.0,92.0
722,171.857421875,173.05859375,47.0,77.0
723,172.560546875,173.060546875,68.0,127.0
724,172.560546875,173.06640625,64.0,102.0
725,172.794921875,173.146484375,52.0,96.0
726,173.029296875,173.32421875,59.0,112.0
727,173.263671875,173.33984375,64.0,33.0
728,173.498046875,173.7578125,57.0,112.0
729,173.498046875,174.041015625,61.0,112.0
730,173.498046875,174.109375,64.0,89.0
731,173.966796875,174.361328125,57.0,89.0
732,173.732421875,174.53125,52.0,93.0
733,174.435546875,174.8828125,64.0,97.0
734,173.498046875,175.169921875,45.0,83.0
735,174.904296875,175.19921875,57.0,89.0
736,174.201171875,175.279296875,61.0,85.0
737,174.669921875,175.337890625,52.0,88.0
738,175.373046875,176.03125,66.0,96.0
739,175.373046875,176.1796875,59.0,89.0
740,175.373046875,176.205078125,63.0,97.0
741,175.841796875,176.458984375,54.0,85.0
742,175.373046875,176.654296875,47.0,79.0
743,176.544921875,176.681640625,54.0,96.0
744,176.310546875,176.7734375,66.0,127.0
745,176.310546875,176.787109375,63.0,127.0
746,176.779296875,177.150390625,59.0,96.0
747,177.248046875,177.318359375,59.0,69.0
748,177.248046875,177.767578125,63.0,107.0
749,177.248046875,177.791015625,68.0,102.0
750,177.716796875,178.091796875,59.0,88.0
751,177.951171875,178.10546875,63.0,72.0
752,177.482421875,178.224609375,56.0,97.0
753,178.419921875,178.599609375,56.0,95.0
754,178.185546875,178.642578125,68.0,117.0
755,178.185546875,178.669921875,63.0,122.0
756,177.248046875,179.009765625,44.0,99.0
757,178.654296875,179.03515625,59.0,93.0
758,179.123046875,179.626953125,65.0,60.0
759,179.123046875,179.630859375,56.0,97.0
760,179.123046875,179.65625,61.0,89.0
761,179.591796875,180.126953125,49.0,93.0
762,179.826171875,180.275390625,56.0,79.0
763,179.357421875,180.337890625,44.0,66.0
764,179.123046875,180.34375,37.0,90.0
765,180.294921875,180.4921875,49.0,79.0
766,180.060546875,180.544921875,61.0,72.0
767,180.060546875,180.78125,65.0,74.0
768,180.529296875,181.029296875,56.0,100.0
769,181.466796875,181.75390625,57.0,96.0
770,181.701171875,181.87890625,64.0,68.0
771,181.701171875,181.8984375,61.0,66.0
772,181.232421875,182.1171875,52.0,64.0
773,181.935546875,182.4140625,64.0,89.0
774,180.998046875,182.4453125,45.0,83.0
775,182.169921875,182.486328125,52.0,70.0
776,182.404296875,182.697265625,57.0,83.0
777,181.935546875,182.7734375,61.0,99.0
778,182.873046875,183.685546875,66.0,77.0
779,182.873046875,183.693359375,63.0,75.0
780,182.873046875,183.712890625,59.0,83.0
781,183.341796875,184.0,54.0,66.0
782,183.810546875,184.12109375,59.0,60.0
783,182.873046875,184.447265625,47.0,69.0
784,183.810546875,184.625,66.0,107.0
785,183.810546875,184.640625,63.0,117.0
786,184.279296875,184.677734375,59.0,74.0
787,184.044921875,184.705078125,54.0,63.0
788,184.748046875,185.396484375,65.0,73.0
789,184.748046875,185.478515625,61.0,102.0
790,184.748046875,185.625,56.0,102.0
791,185.685546875,185.759765625,56.0,78.0
792,185.451171875,185.80859375,49.0,66.0
793,185.685546875,186.208984375,65.0,93.0
794,185.685546875,186.220703125,61.0,112.0
795,185.919921875,186.25,49.0,88.0
796,184.748046875,186.419921875,37.0,95.0
797,186.388671875,186.435546875,65.0,34.0
798,186.154296875,186.490234375,56.0,96.0
799,186.388671875,186.51171875,61.0,66.0
800,185.216796875,186.6796875,44.0,64.0
801,186.623046875,187.119140625,61.0,93.0
802,186.623046875,187.150390625,65.0,81.0
803,186.623046875,187.16796875,56.0,97.0
804,187.326171875,187.408203125,65.0,37.0
805,187.326171875,187.41015625,61.0,36.0
806,187.326171875,187.5234375,56.0,75.0
807,187.091796875,187.583984375,49.0,89.0
808,186.857421875,187.8203125,44.0,36.0
809,186.623046875,187.84765625,37.0,88.0
810,187.560546875,187.85546875,56.0,72.0
811,187.794921875,187.96875,49.0,89.0
812,187.560546875,188.107421875,65.0,92.0
813,188.029296875,188.37109375,56.0,102.0
814,187.560546875,188.41796875,61.0,99.0
815,188.498046875,188.576171875,57.0,92.0
816,188.498046875,189.021484375,61.0,72.0
817,188.498046875,189.13671875,64.0,83.0
818,188.966796875,189.255859375,57.0,96.0
819,188.732421875,189.578125,52.0,65.0
820,189.201171875,190.03125,61.0,92.0
821,189.435546875,190.171875,64.0,93.0
822,188.498046875,190.197265625,45.0,76.0
823,189.904296875,190.19921875,57.0,85.0
824,189.669921875,190.333984375,52.0,75.0
825,190.138671875,190.373046875,61.0,86.0
826,190.373046875,190.78125,59.0,89.0
827,190.373046875,191.005859375,63.0,117.0
828,190.373046875,191.021484375,66.0,93.0
829,190.841796875,191.189453125,59.0,73.0
830,191.076171875,191.212890625,63.0,56.0
831,190.607421875,191.224609375,54.0,86.0
832,190.373046875,191.24609375,47.0,90.0
833,191.310546875,192.333984375,54.0,76.0
834,191.310546875,192.341796875,59.0,89.0
835,191.310546875,192.349609375,63.0,96.0
836,191.310546875,192.349609375,66.0,96.0
837,191.310546875,192.35546875,47.0,66.0
838,194.123046875,197.341796875,45.0,76.0
839,194.123046875,197.375,57.0,76.0
840,194.123046875,197.38671875,64.0,76.0
841,194.123046875,197.39453125,61.0,76.0
842,197.873046875,198.66796875,56.0,78.0
843,197.873046875,198.689453125,59.0,78.0
844,197.873046875,198.72265625,63.0,78.0
845,198.810546875,199.1640625,56.0,78.0
846,198.810546875,199.16796875,59.0,78.0
847,198.810546875,199.201171875,63.0,78.0
848,197.873046875,199.322265625,44.0,78.0
849,199.748046875,200.533203125,68.0,78.0
850,199.748046875,200.53515625,61.0,78.0
851,199.748046875,200.537109375,64.0,78.0
852,200.685546875,201.0703125,64.0,78.0
853,200.685546875,201.08203125,68.0,78.0
854,200.685546875,201.126953125,61.0,78.0
855,199.748046875,201.162109375,49.0,78.0
856,201.623046875,202.13671875,61.0,99.0
857,201.623046875,202.216796875,64.0,90.0
858,202.091796875,202.353515625,57.0,96.0
859,202.326171875,202.5,61.0,76.0
860,201.857421875,202.70703125,52.0,65.0
861,202.560546875,203.04296875,64.0,95.0
862,202.794921875,203.130859375,52.0,56.0
863,201.623046875,203.142578125,45.0,85.0
864,203.029296875,203.31640625,57.0,85.0
865,202.560546875,203.3984375,61.0,95.0
866,203.498046875,203.765625,59.0,88.0
867,203.498046875,204.037109375,63.0,69.0
868,203.498046875,204.05078125,66.0,77.0
869,203.966796875,204.337890625,59.0,77.0
870,204.201171875,204.33984375,66.0,70.0
871,204.201171875,204.3671875,63.0,86.0
872,203.732421875,204.53125,54.0,96.0
873,204.669921875,204.759765625,54.0,95.0
874,203.498046875,204.8125,47.0,66.0
875,204.435546875,204.97265625,63.0,112.0
876,204.435546875,204.97265625,66.0,99.0
877,204.904296875,205.251953125,59.0,100.0
878,205.138671875,205.3046875,63.0,45.0
879,205.373046875,205.9296875,59.0,75.0
880,205.373046875,206.015625,64.0,95.0
881,205.373046875,206.0234375,68.0,100.0
882,206.076171875,206.130859375,64.0,30.0
883,206.076171875,206.1328125,68.0,46.0
884,206.076171875,206.2578125,59.0,90.0
885,205.841796875,206.404296875,52.0,86.0
886,206.310546875,206.58984375,59.0,68.0
887,206.310546875,206.861328125,68.0,117.0
888,206.310546875,206.880859375,64.0,99.0
889,206.779296875,206.9765625,59.0,88.0
890,205.373046875,207.13671875,40.0,85.0
891,206.544921875,207.14453125,52.0,86.0
892,205.607421875,207.318359375,47.0,70.0
893,207.013671875,207.7265625,59.0,63.0
894,207.013671875,207.744140625,68.0,102.0
895,207.013671875,207.75390625,64.0,92.0
896,207.951171875,208.12109375,68.0,93.0
897,207.951171875,208.12890625,59.0,89.0
898,207.951171875,208.1328125,64.0,90.0
899,207.716796875,208.306640625,52.0,93.0
900,207.248046875,208.529296875,40.0,74.0
901,207.482421875,208.572265625,47.0,74.0
902,208.419921875,208.630859375,52.0,90.0
903,208.185546875,208.630859375,68.0,127.0
904,208.185546875,208.642578125,64.0,122.0
905,208.654296875,209.021484375,59.0,117.0
906,209.123046875,209.67578125,61.0,100.0
907,209.123046875,209.783203125,64.0,90.0
908,209.826171875,209.923828125,64.0,36.0
909,209.826171875,209.978515625,61.0,82.0
910,209.591796875,209.986328125,57.0,88.0
911,209.357421875,210.12109375,52.0,37.0
912,210.060546875,210.56640625,61.0,117.0
913,209.123046875,210.6953125,45.0,74.0
914,210.060546875,210.76953125,64.0,96.0
915,210.529296875,210.8671875,57.0,96.0
916,210.294921875,210.95703125,52.0,86.0
917,210.763671875,211.021484375,61.0,93.0
918,210.998046875,211.546875,63.0,112.0
919,210.998046875,211.546875,66.0,107.0
920,211.466796875,211.814453125,59.0,99.0
921,211.701171875,211.82421875,66.0,96.0
922,211.701171875,211.833984375,63.0,112.0
923,211.232421875,212.01953125,54.0,96.0
924,210.998046875,212.26953125,47.0,75.0
925,212.169921875,212.298828125,54.0,86.0
926,211.935546875,212.39453125,66.0,107.0
927,211.935546875,212.419921875,63.0,127.0
928,212.404296875,212.796875,59.0,96.0
929,212.873046875,213.412109375,59.0,78.0
930,212.873046875,213.412109375,63.0,112.0
931,212.873046875,213.416015625,68.0,99.0
932,213.341796875,213.8671875,56.0,93.0
933,213.576171875,213.916015625,59.0,96.0
934,214.044921875,214.22265625,56.0,97.0
935,213.810546875,214.23046875,63.0,112.0
936,213.810546875,214.23046875,68.0,122.0
937,213.107421875,214.26953125,51.0,34.0
938,212.873046875,214.31640625,44.0,89.0
939,214.279296875,214.517578125,59.0,90.0
940,214.748046875,215.04296875,61.0,78.0
941,214.748046875,215.12890625,65.0,69.0
942,214.982421875,215.341796875,56.0,95.0
943,215.216796875,215.599609375,61.0,63.0
944,214.748046875,215.861328125,49.0,81.0
945,215.451171875,215.880859375,56.0,69.0
946,215.919921875,216.142578125,49.0,66.0
947,215.685546875,216.26171875,61.0,77.0
948,215.685546875,216.419921875,65.0,81.0
949,216.388671875,216.5234375,61.0,28.0
950,216.154296875,216.580078125,56.0,102.0
951,216.623046875,217.1640625,61.0,60.0
952,216.623046875,217.24609375,64.0,82.0
953,217.091796875,217.34375,57.0,96.0
954,216.857421875,217.72265625,52.0,69.0
955,217.560546875,217.83984375,57.0,97.0
956,216.623046875,218.12109375,45.0,79.0
957,217.560546875,218.123046875,61.0,102.0
958,217.560546875,218.255859375,64.0,89.0
959,218.029296875,218.369140625,57.0,117.0
960,218.263671875,218.408203125,61.0,35.0
961,217.794921875,218.443359375,52.0,76.0
962,218.498046875,219.076171875,66.0,100.0
963,218.498046875,219.173828125,63.0,112.0
964,218.498046875,219.28125,59.0,96.0
965,218.966796875,219.59765625,54.0,96.0
966,219.669921875,219.78515625,54.0,72.0
967,218.498046875,219.802734375,47.0,78.0
968,219.435546875,219.90234375,66.0,112.0
969,219.435546875,219.962890625,63.0,127.0
970,219.904296875,220.10546875,59.0,102.0
971,220.373046875,220.89453125,65.0,66.0
972,220.373046875,220.953125,61.0,61.0
973,220.373046875,221.142578125,56.0,97.0
974,221.310546875,221.63671875,56.0,102.0
975,221.310546875,221.83984375,61.0,102.0
976,221.310546875,221.876953125,65.0,86.0
977,222.013671875,222.087890625,65.0,34.0
978,222.013671875,222.09765625,61.0,35.0
979,220.373046875,222.158203125,37.0,90.0
980,221.779296875,222.158203125,56.0,99.0
981,220.841796875,222.2890625,44.0,39.0
982,221.544921875,222.32421875,49.0,75.0
983,222.248046875,222.78125,65.0,72.0
984,222.248046875,222.810546875,61.0,73.0
985,222.248046875,223.048828125,56.0,85.0
986,222.716796875,223.244140625,49.0,53.0
987,222.716796875,223.4375,44.0,25.0
988,223.185546875,223.490234375,56.0,99.0
989,222.248046875,223.556640625,37.0,97.0
990,223.419921875,223.646484375,49.0,77.0
991,223.185546875,223.74609375,61.0,122.0
992,223.185546875,223.75,65.0,83.0
993,223.654296875,223.87890625,56.0,97.0
994,223.888671875,224.056640625,61.0,24.0
995,224.123046875,224.94921875,64.0,90.0
996,224.123046875,224.951171875,57.0,107.0
997,224.123046875,224.974609375,61.0,90.0
998,224.123046875,225.228515625,45.0,83.0
999,225.060546875,225.251953125,57.0,97.0
1000,225.060546875,225.859375,61.0,117.0
1001,225.060546875,225.861328125,64.0,99.0
1002,225.529296875,225.86328125,57.0,99.0
1003,225.294921875,225.875,45.0,65.0
1004,225.998046875,227.728515625,59.0,75.0
1005,225.998046875,227.744140625,47.0,75.0
1006,225.998046875,227.748046875,63.0,75.0
1007,225.998046875,227.759765625,66.0,75.0
1008,227.873046875,230.21484375,47.0,75.0
1009,227.873046875,230.251953125,63.0,75.0
1010,227.873046875,230.251953125,66.0,75.0
1011,227.873046875,230.25390625,59.0,75.0
1012,229.748046875,230.25390625,59.0,75.0
1013,229.748046875,230.576171875,52.0,75.0
1014,229.748046875,230.599609375,56.0,75.0
1015,230.685546875,231.142578125,52.0,75.0
1016,230.685546875,231.353515625,59.0,75.0
1017,230.685546875,231.3671875,56.0,75.0
1018,231.623046875,232.44140625,59.0,75.0
1019,231.623046875,232.462890625,51.0,75.0
1020,231.623046875,232.53515625,56.0,75.0
1021,232.560546875,233.302734375,59.0,75.0
1022,232.560546875,233.330078125,56.0,75.0
1023,232.560546875,233.3671875,51.0,75.0
1024,233.498046875,234.26953125,49.0,75.0
1025,233.498046875,234.275390625,56.0,75.0
1026,233.498046875,234.283203125,52.0,75.0
1027,234.435546875,234.869140625,52.0,75.0
1028,234.435546875,234.873046875,56.0,75.0
1029,234.435546875,234.90234375,49.0,75.0
1030,235.373046875,236.1640625,47.0,75.0
1031,235.373046875,236.189453125,51.0,75.0
1032,235.373046875,236.193359375,54.0,75.0
1033,236.310546875,236.81640625,47.0,75.0
1034,236.310546875,236.81640625,54.0,75.0
1035,236.310546875,236.828125,51.0,75.0
1036,237.248046875,238.177734375,49.0,75.0
1037,237.248046875,238.193359375,45.0,75.0
1038,238.185546875,238.193359375,45.0,73.0
1039,237.248046875,238.212890625,52.0,75.0
1040,238.185546875,238.212890625,52.0,73.0
1041,238.185546875,239.140625,49.0,73.0
1042,239.357421875,240.431640625,45.0,72.0
1043,239.357421875,240.453125,49.0,72.0
1044,239.357421875,240.458984375,52.0,72.0
1045,240.529296875,241.224609375,52.0,71.0
1046,240.529296875,241.23828125,45.0,71.0
1047,240.529296875,241.267578125,49.0,71.0
1048,242.169921875,246.818359375,47.0,70.0
1049,242.169921875,246.8203125,40.0,70.0
1050,242.169921875,246.837890625,44.0,70.0
