,start,end,pitch,velocity
0,1.1204248125000003,1.2317051,74.0,108.0
1,1.3033513125000002,1.4024365000000003,75.0,112.0
2,1.4862778125000002,1.8658503000000004,77.0,117.0
3,2.0350573125,2.5807880375000005,70.0,109.0
4,2.5838368125000004,3.643286125000001,70.0,116.0
5,4.0472488125,4.1691998125000005,75.0,112.0
6,4.230175312500001,4.314016625000001,77.0,108.0
7,4.413101812500001,4.807918175000001,77.0,117.0
8,4.961881312500001,5.405478075000001,70.0,116.0
9,5.510660812500001,6.286574050000001,70.0,105.0
10,6.791146312500001,7.336877037500002,70.0,112.0
11,7.3399258125000015,7.728644625000001,74.0,117.0
12,7.888705312500002,8.286570450000001,74.0,111.0
13,8.437484812500001,9.033520325000001,74.0,117.0
14,9.535043812500001,9.678336237500002,74.0,114.0
15,9.717970312500002,9.876506612500002,75.0,112.0
16,9.900896812500001,10.161567075000002,74.0,120.0
17,10.266749812500002,10.721017287500002,72.0,120.0
18,10.815529312500002,11.361260037500003,77.0,105.0
19,11.364308812500003,12.208819487500001,77.0,117.0
20,12.461867812500001,12.751501437500002,72.0,117.0
21,12.827720812500003,12.935952325000002,74.0,108.0
22,13.010647312500002,13.103634950000002,75.0,116.0
23,13.193573812500002,13.600585275000002,77.0,120.0
24,13.742353312500002,14.192047625000002,70.0,112.0
25,14.291132812500003,15.390216200000003,70.0,116.0
26,15.754544812500002,15.868873875000002,75.0,112.0
27,15.937471312500003,16.030458950000003,77.0,114.0
28,16.120397812500002,16.524360500000004,77.0,117.0
29,16.669177312500004,17.0975302,70.0,116.0
30,17.217956812500002,18.187467262500004,70.0,112.0
31,18.681368812500004,18.905453775,70.0,112.0
32,19.047221812500002,19.472525925000003,74.0,114.0
33,19.596001312500004,20.102097962500004,74.0,111.0
34,20.144780812500002,21.054840150000004,74.0,111.0
35,21.242339812500003,21.367339587500005,74.0,102.0
36,21.425266312500003,21.530449050000005,75.0,112.0
37,21.608192812500004,21.894777662500005,74.0,120.0
38,21.974045812500005,22.809410162500004,72.0,117.0
39,23.071604812500006,24.897821037500005,77.0,111.0
40,34.36731618750001,34.47402331250001,77.0,115.0
41,34.565486562500006,34.653901037500006,70.0,117.0
42,34.76518132500001,34.999937,69.0,118.0
43,35.111217287500004,35.5441433375,72.0,112.0
44,35.51060681250001,35.7926185,77.0,111.0
45,35.87645981250001,36.134081300000005,79.0,114.0
46,36.2423128125,36.495361137500005,81.0,102.0
47,36.608165812500005,38.449625912500004,82.0,102.0
48,46.42979447500001,46.68284280000001,77.0,121.0
49,46.81546451250001,47.05631773750001,72.0,118.0
50,47.17369557500001,47.46332920000001,70.0,117.0
51,47.550219287500006,47.80021883750001,69.0,115.0
52,47.91454790000001,48.02887696250001,70.0,120.0
53,48.09290123750001,48.184364487500005,69.0,112.0
54,48.272778962500006,49.01363128750001,67.0,115.0
55,57.82763981250001,58.11270027500001,74.0,97.0
56,58.19349281250001,58.76056496250001,75.0,102.0
57,58.92519881250001,59.70111205000001,77.0,92.0
58,60.04257485000001,60.19958676250001,86.0,101.0
59,60.42062295000001,60.53190323750001,82.0,117.0
60,60.79257350000001,60.91147572500001,86.0,106.0
61,61.14775578750001,61.26208485000001,82.0,107.0
62,61.499889300000014,61.60507203750001,86.0,101.0
63,61.83830332500001,61.94196167500001,82.0,113.0
64,62.20568071250001,62.27427815000001,86.0,101.0
65,62.37488772500001,62.45720465000001,87.0,117.0
66,62.58982636250001,62.68738716250001,86.0,109.0
67,62.95263058750001,63.05476455000001,84.0,94.0
68,63.31543481250001,63.46787356250001,81.0,94.0
69,63.707202400000014,63.813909525000014,84.0,96.0
70,64.05476275000001,64.18281130000001,81.0,106.0
71,64.44043278750001,64.55018868750001,84.0,104.0
72,64.80018823750001,64.90841975000001,81.0,115.0
73,65.14469981250001,65.5242723,82.0,93.0
74,65.51055281250001,65.68433298750001,81.0,100.0
75,65.69347931250002,65.8916496875,82.0,87.0
76,65.87640581250001,68.20871868750001,79.0,105.0
77,68.4373768125,68.56847413750002,77.0,78.0
78,68.62030331250001,68.78798593750001,79.0,49.0
79,68.8032298125,70.17975172500002,77.0,94.0
80,70.26664181250001,71.39011540000001,77.0,84.0
81,71.75749278750001,71.86267552500001,86.0,104.0
82,72.10352875000001,72.21633342500002,79.0,101.0
83,72.47395491250002,72.57456448750001,86.0,112.0
84,72.83828352500001,72.95413697500001,79.0,106.0
85,73.2071853,73.31694120000002,86.0,104.0
86,73.57456268750002,73.70108685000001,79.0,109.0
87,73.96023272500001,74.0471228125,86.0,96.0
88,74.14925677500001,74.22547615000002,87.0,117.0
89,74.34132960000001,74.43126846250001,86.0,109.0
90,74.67212168750001,74.77120687500002,84.0,94.0
91,75.03949907500001,75.13858426250002,81.0,104.0
92,75.40077891250002,75.49224216250002,84.0,96.0
93,75.76663191250002,75.87181465000002,81.0,99.0
94,76.14620440000002,76.25291152500002,84.0,82.0
95,76.51663056250001,76.60961820000001,81.0,89.0
96,76.85961775000001,76.94345906250001,84.0,91.0
97,77.02272721250002,77.11114168750001,86.0,104.0
98,77.21632442500001,77.30931206250001,84.0,96.0
99,77.58065303750001,77.68888455000001,82.0,110.0
100,77.92516461250001,78.07912775000001,79.0,78.0
101,78.29254200000001,78.40991983750001,82.0,96.0
102,78.67363887500001,78.81540691250001,79.0,85.0
103,79.06388207500001,79.16449165000002,82.0,110.0
104,79.43583262500002,79.56388117500002,79.0,91.0
105,79.80473440000002,79.90686836250002,82.0,104.0
106,80.17363617500001,80.30320911250001,79.0,58.0
107,80.53186723750001,80.65991578750001,82.0,88.0
108,80.88400075000001,81.02272001250002,77.0,99.0
109,81.27729272500001,81.38399985000001,82.0,104.0
110,81.61570675000002,81.78338937500001,77.0,58.0
111,81.97088903750002,82.12790095000001,82.0,81.0
112,82.31235183750002,82.49070517500002,77.0,87.0
113,82.69497310000001,82.83064358750002,81.0,94.0
114,83.06539926250001,83.19802097500002,77.0,80.0
115,83.46936195000002,83.57302030000001,86.0,104.0
116,83.81539791250002,83.92667820000001,79.0,101.0
117,84.18582407500001,84.28490926250001,86.0,112.0
118,84.55015268750002,84.66600613750002,79.0,106.0
119,84.91905446250001,85.02728597500001,86.0,104.0
120,85.28643185000001,85.41143162500002,79.0,109.0
121,85.67057750000002,85.75899197500001,86.0,96.0
122,85.86112593750002,85.93734531250001,87.0,117.0
123,86.05319876250002,86.14313762500001,86.0,109.0
124,86.38399085000002,86.48307603750001,84.0,94.0
125,86.74984385000002,86.85045342500001,81.0,104.0
126,87.11112368750001,87.20411132500001,84.0,96.0
127,87.47850107500001,87.58215942500001,81.0,99.0
128,87.85654917500001,87.96325630000001,84.0,82.0
129,88.22849972500002,88.32148736250002,81.0,89.0
130,88.57148691250002,88.65380383750002,84.0,91.0
131,88.73459637500001,88.82301085000002,86.0,104.0
132,88.92819358750002,89.01965683750002,84.0,96.0
133,89.29252220000002,89.40075371250002,82.0,110.0
134,89.63550938750002,89.78947252500002,79.0,78.0
135,90.00288677500002,90.12178900000002,82.0,96.0
136,90.38550803750002,90.52575168750002,79.0,85.0
137,90.77575123750002,90.87483642500001,82.0,110.0
138,91.14770178750001,91.27575033750001,79.0,91.0
139,91.51507917500001,91.61873752500001,82.0,104.0
140,91.88550533750002,92.01507827500002,79.0,58.0
141,94.41293981250001,94.67970762500002,82.0,112.0
142,94.77879281250001,95.06080450000002,84.0,111.0
143,95.14464581250002,95.42360872500002,86.0,111.0
144,95.51049881250002,95.80622998750002,82.0,116.0
145,95.87635181250002,96.15531472500001,86.0,114.0
146,96.24220481250002,96.49372875000002,82.0,112.0
147,96.60805781250002,96.88397195000002,86.0,108.0
148,96.97391081250002,97.13549588750001,82.0,112.0
149,97.33976381250001,97.42360512500002,86.0,108.0
150,97.52269031250002,97.64006815000002,87.0,109.0
151,97.70561681250001,97.92360422500002,86.0,117.0
152,98.07146981250001,98.37329853750002,84.0,117.0
153,98.43732281250001,98.69189552500002,81.0,117.0
154,98.80317581250002,99.10500453750002,84.0,117.0
155,99.16902881250002,99.37786990000002,81.0,117.0
156,99.53488181250002,99.84280808750002,84.0,114.0
157,99.90073481250002,100.12177100000002,81.0,120.0
158,100.26658781250002,100.35652667500001,84.0,111.0
159,100.44951431250001,100.56994092500001,86.0,111.0
160,100.63244081250002,100.83365996250002,84.0,114.0
161,100.99829381250002,101.29402498750002,82.0,116.0
162,101.36414681250002,101.61262197500002,79.0,111.0
163,101.72999981250001,102.01201150000001,82.0,109.0
164,102.09585281250001,102.34127920000002,79.0,108.0
165,102.46170581250001,102.75591260000002,82.0,116.0
166,102.82755881250002,103.07908275000001,79.0,111.0
167,103.19341181250002,103.43883820000002,82.0,112.0
168,103.55926481250002,103.78334977500002,84.0,111.0
169,103.92511781250002,104.87328683750002,86.0,120.0
170,105.02267681250002,105.29249340000001,89.0,108.0
171,105.38852981250002,106.01657746250002,84.0,117.0
172,106.12023581250001,106.36871097500001,82.0,112.0
173,106.48608881250001,106.71017377500002,84.0,111.0
174,106.85194181250002,109.04401103750001,86.0,108.0
175,109.04705981250002,109.38242506250002,84.0,117.0
176,109.41291281250002,109.67968062500002,82.0,116.0
177,109.77876581250001,110.87327603750002,84.0,117.0
178,110.87632481250002,111.19492180000002,81.0,117.0
179,111.24217781250002,112.16443225000002,77.0,123.0
180,112.33973681250002,112.59126075000002,84.0,114.0
181,112.70558981250002,113.62174670000002,82.0,109.0
182,113.80314881250003,114.03333132500002,84.0,111.0
183,114.16900181250001,115.14003665000001,81.0,120.0
184,115.26656081250002,115.58363341250002,82.0,109.0
185,115.63241381250002,118.30466510000002,79.0,117.0
186,129.1689748125,129.45098650000003,77.0,111.0
187,129.53482781250003,129.79244930000002,79.0,114.0
188,129.9006808125,130.15372913750002,81.0,102.0
189,130.26653381250003,132.10799391250004,82.0,102.0
190,140.21925980000003,140.37169855000002,72.0,104.0
191,140.38389365000003,140.50432026250002,70.0,107.0
192,140.56224698750003,140.85188061250003,69.0,101.0
193,140.88084397500003,141.16285566250002,70.0,93.0
194,141.27108717500002,141.45858683750004,69.0,99.0
195,141.63541578750002,141.8335861625,65.0,99.0
196,141.96925665000003,142.35035352500003,67.0,101.0
197,143.47992466250003,143.62321708750002,86.0,96.0
198,143.84120450000003,143.98907008750004,82.0,63.0
199,144.17961852500002,144.29089881250002,86.0,96.0
200,144.89455626250003,145.02108042500004,84.0,78.0
201,145.26040926250002,145.39760413750002,81.0,91.0
202,146.35949265000002,146.46619977500004,84.0,101.0
203,146.71315055000002,146.83205277500002,81.0,104.0
204,147.05918651250002,147.14150343750003,84.0,99.0
205,147.23906423750003,147.3244299375,86.0,104.0
206,147.41132002500004,147.51192960000003,84.0,106.0
207,147.79851445000003,147.88997770000003,82.0,107.0
208,148.17351377500003,148.59272033750003,79.0,101.0
209,149.28174348750002,149.42960907500003,82.0,110.0
210,149.64912087500002,149.82594982500004,79.0,99.0
211,149.99820561250002,150.10796151250003,82.0,107.0
212,150.19485160000002,150.30613188750002,84.0,80.0
213,150.37320493750002,150.54698511250004,82.0,117.0
214,150.76497252500002,151.03021595,82.0,88.0
215,151.48600781250002,151.77106827500003,74.0,97.0
216,151.85186081250004,152.41893296250004,75.0,102.0
217,152.58356681250004,153.35948005000003,77.0,92.0
218,153.67807703750003,153.80307681250002,86.0,101.0
219,154.0363081,154.18874685000003,79.0,96.0
220,154.40825865000002,154.53478281250003,86.0,101.0
221,154.74972145000004,154.89911142500003,82.0,70.0
222,155.13234271250002,155.25581810000003,86.0,99.0
223,155.49972010000002,155.62319548750003,82.0,99.0
224,155.87929258750003,155.96313390000003,86.0,96.0
225,156.03020695000004,156.12776775000003,87.0,120.0
226,156.24057242500004,156.35032832500002,86.0,106.0
227,156.61099858750003,156.72990081250003,84.0,101.0
228,156.98752230000002,157.09880258750002,81.0,101.0
229,157.36099723750002,157.46922875,84.0,78.0
230,158.07898375000002,158.19331281250004,84.0,99.0
231,158.4280684875,158.55306826250003,81.0,99.0
232,158.80306781250002,159.18264030000003,82.0,93.0
233,159.16892081250003,159.34270098750002,81.0,100.0
234,159.35184731250004,159.55001768750003,82.0,87.0
235,159.53477381250002,161.86708668750003,79.0,105.0
236,162.09574481250002,162.22684213750003,77.0,78.0
237,162.27867131250002,162.44635393750002,79.0,49.0
238,162.46159781250003,163.83811972500004,77.0,94.0
239,163.92500981250004,165.04848340000004,77.0,84.0
240,165.40366568750002,165.52256791250002,86.0,96.0
241,165.76342113750002,165.89146968750003,79.0,101.0
242,166.11707903750002,166.22988371250003,86.0,96.0
243,166.49207836250002,166.64299272500003,79.0,89.0
244,166.86098013750004,166.97378481250004,86.0,87.0
245,167.20244293750002,167.31219883750003,79.0,94.0
246,168.33201407500002,168.45853823750002,84.0,91.0
247,169.05914691250004,169.17804913750004,84.0,78.0
248,169.40670726250002,169.53628020000002,81.0,91.0
249,169.77560903750003,169.89756003750003,84.0,87.0
250,170.13993765000004,170.28475446250002,81.0,89.0
251,171.20243573750002,171.51036201250002,82.0,99.0
252,171.58200822500004,171.91889786250002,79.0,94.0
253,171.96005632500004,172.32286055000003,82.0,70.0
254,172.33505565000004,172.73444517500002,79.0,96.0
255,172.70548181250004,173.08048113750004,82.0,101.0
256,173.06828603750003,173.47682188750002,79.0,91.0
257,174.13078412500002,174.53931997500004,82.0,93.0
258,174.53169803750004,174.90822175000002,77.0,101.0
259,174.90364858750004,175.30913566250004,82.0,113.0
260,175.24816016250003,175.65822040000003,77.0,85.0
261,175.62468387500002,175.99663442500002,82.0,104.0
262,175.97681738750003,176.41126782500004,77.0,87.0
263,176.36858497500003,176.72224287500003,82.0,96.0
264,176.72834042500003,176.92955957500004,77.0,80.0
265,177.09419342500004,177.37620511250003,86.0,89.0
266,177.44175377500002,177.66431435000004,79.0,85.0
267,177.81522871250004,178.12925253750004,86.0,109.0
268,178.19022803750002,178.48900798750003,79.0,67.0
269,178.55455665000002,178.91888526250003,86.0,91.0
270,178.93412913750004,179.15668971250003,79.0,74.0
271,179.29693336250003,179.62620106250003,86.0,109.0
272,179.65821320000003,179.91431030000004,79.0,99.0
273,180.02101742500003,180.37619971250004,84.0,87.0
274,180.41735817500003,180.68412598750004,81.0,42.0
275,180.76949168750002,181.07589357500004,84.0,99.0
276,181.14601540000004,181.39601495000002,81.0,94.0
277,181.51949033750003,181.85333120000004,84.0,101.0
278,181.89144088750004,182.08198932500002,81.0,85.0
279,182.23900123750002,182.54082996250003,84.0,101.0
280,182.59875668750004,182.73137840000004,81.0,85.0
281,182.95698775000002,183.28930422500002,82.0,107.0
282,183.29692616250003,183.56064520000004,79.0,89.0
283,183.68107181250002,184.06216868750002,82.0,101.0
284,184.06674185000003,184.26186345000002,79.0,89.0
285,184.40210710000002,184.82436243750004,82.0,104.0
286,185.18564227500002,185.49814171250003,82.0,93.0
287,185.51795875000002,185.74661687500003,81.0,96.0
288,185.90820195000003,186.41582298750004,82.0,96.0
289,188.80301381250004,189.15667171250004,86.0,71.0
290,189.16886681250003,189.44173217500003,82.0,63.0
291,189.53471981250004,190.09112125000004,86.0,80.0
292,190.26642581250005,190.49965710000004,86.0,76.0
293,190.63227881250003,190.84416867500002,82.0,65.0
294,190.99813181250002,191.35788726250004,86.0,69.0
295,191.72983781250002,191.94172767500004,84.0,71.0
296,192.09569081250004,192.28776363750003,81.0,58.0
297,192.46154381250003,192.77251886250002,84.0,78.0
298,193.19324981250003,193.43257865000004,84.0,78.0
299,193.55910281250004,193.76184635000004,81.0,62.0
300,193.92495581250003,194.28928442500003,84.0,71.0
301,194.65666181250003,194.91123452500003,82.0,55.0
302,195.02251481250002,195.24659977500002,79.0,57.0
303,195.38836781250004,195.85787916250004,82.0,57.0
304,196.12007381250004,196.45543906250003,82.0,42.0
305,196.48592681250003,196.74354830000004,79.0,60.0
306,196.85177981250004,197.20238893750005,82.0,59.0
307,197.21763281250003,197.48744940000003,79.0,66.0
308,198.31519181250005,198.97372721250002,82.0,55.0
309,200.51030981250003,200.70848018750004,86.0,89.0
310,200.87616281250004,201.10329655000004,82.0,65.0
311,201.24201581250003,201.46610077500003,86.0,89.0
312,201.60786881250004,201.82890500000005,82.0,45.0
313,201.97372181250003,202.20085555000003,86.0,82.0
314,202.70542781250003,203.13987825000004,86.0,80.0
315,203.43713381250004,203.69475530000003,84.0,69.0
316,203.80298681250002,204.02707177500002,81.0,58.0
317,204.16883981250004,204.38682722500005,84.0,69.0
318,204.53469281250003,204.73591196250004,81.0,69.0
319,204.90054581250004,205.25115493750005,84.0,71.0
320,205.63225181250004,205.92493421250003,84.0,66.0
321,205.99810481250003,206.20237273750004,81.0,67.0
322,206.36395781250005,206.65359143750004,82.0,40.0
323,206.72981081250003,206.96913965000005,79.0,64.0
324,207.09566381250005,207.72066268750004,82.0,38.0
325,208.55907581250003,209.12767235000004,81.0,87.0
326,211.48589981250004,211.75266762500004,82.0,112.0
327,209.29078181250003,211.94321606250003,79.0,62.0
328,211.85175281250002,212.13376450000004,84.0,111.0
329,212.21760581250004,212.49656872500003,86.0,111.0
330,212.58345881250003,212.87918998750004,82.0,116.0
331,212.94931181250004,213.22827472500003,86.0,114.0
332,213.31516481250003,213.56668875000003,82.0,112.0
333,213.68101781250004,213.95693195000004,86.0,108.0
334,214.04687081250003,214.20845588750004,82.0,112.0
335,214.41272381250005,214.49656512500005,86.0,108.0
336,214.59565031250003,214.71302815000004,87.0,109.0
337,214.77857681250003,214.99656422500004,86.0,117.0
338,215.14442981250005,215.44625853750003,84.0,117.0
339,215.51028281250004,215.76485552500003,81.0,117.0
340,215.87613581250002,216.17796453750003,84.0,117.0
341,216.24198881250004,216.45082990000003,81.0,117.0
342,216.60784181250003,216.91576808750003,84.0,114.0
343,216.97369481250004,217.19473100000005,81.0,120.0
344,217.33954781250003,217.42948667500005,84.0,111.0
345,217.52247431250004,217.64290092500005,86.0,111.0
346,217.70540081250005,217.90661996250003,84.0,114.0
347,218.07125381250003,218.36698498750005,82.0,116.0
348,218.43710681250005,218.68558197500005,79.0,111.0
349,218.80295981250003,219.08497150000005,82.0,109.0
350,219.16881281250005,219.41423920000003,79.0,108.0
351,219.53466581250004,219.82887260000004,82.0,116.0
352,219.90051881250002,220.15204275000005,79.0,111.0
353,220.26637181250004,220.51179820000004,82.0,112.0
354,220.63222481250003,220.85630977500003,84.0,111.0
355,220.99807781250004,221.94624683750004,86.0,120.0
356,222.09563681250003,222.36545340000004,89.0,108.0
357,222.46148981250005,223.08953746250003,84.0,117.0
358,223.19319581250005,223.36697598750004,81.0,102.0
359,223.37612231250003,223.56819513750003,82.0,102.0
360,223.55904881250004,223.96910905000004,81.0,105.0
361,223.92490181250002,226.91575008750004,79.0,102.0
