,start,end,pitch,velocity
0,25.266722812500003,25.350564125000005,74.0,102.0
1,25.449649312500004,25.530441850000006,74.0,102.0
2,25.632575812500004,25.847514450000006,74.0,105.0
3,25.998428812500006,26.082270125000004,74.0,100.0
4,26.181355312500006,26.262147850000005,74.0,89.0
5,26.364281812500003,26.448123125000006,74.0,97.0
6,26.547208312500004,26.628000850000003,74.0,87.0
7,26.730134812500005,26.804829800000004,74.0,89.0
8,26.913061312500005,26.993853850000004,74.0,89.0
9,27.095987812500006,27.275865537500003,74.0,94.0
10,27.278914312500003,27.536535800000006,74.0,111.0
11,27.644767312500004,27.937449712500005,75.0,112.0
12,28.193546812500006,28.274339350000005,75.0,102.0
13,28.376473312500003,28.464887787500004,75.0,102.0
14,28.559399812500004,28.646289900000006,75.0,102.0
15,28.742326312500005,28.972508825000006,75.0,105.0
16,29.108179312500006,29.188971850000005,75.0,105.0
17,29.291105812500007,29.379520287500004,75.0,109.0
18,29.474032312500004,29.563971175000006,75.0,96.0
19,29.656958812500005,29.737751350000003,75.0,96.0
20,29.839885312500005,29.917629075000004,75.0,102.0
21,30.022811812500006,30.269762587500004,75.0,116.0
22,30.388664812500004,30.496896325000005,77.0,105.0
23,30.571591312500004,30.882566362500004,74.0,105.0
24,31.120370812500006,31.201163350000005,74.0,100.0
25,31.303297312500007,31.381041075000006,74.0,97.0
26,31.486223812500004,31.548723700000007,74.0,94.0
27,31.669150312500005,32.079210550000006,74.0,114.0
28,32.2179298125,32.46335620000001,75.0,109.0
29,32.583782812500004,32.77585563750001,74.0,117.0
30,32.949635812500006,33.033477125000005,72.0,108.0
31,33.132562312500006,33.542622550000004,70.0,105.0
32,33.68134181250001,35.1417050375,72.0,108.0
33,36.974018812500006,37.057860125000005,74.0,102.0
34,37.15694531250001,37.23773785000001,74.0,102.0
35,37.33987181250001,37.554810450000005,74.0,105.0
36,37.70572481250001,37.78956612500001,74.0,100.0
37,37.88865131250001,37.969443850000005,74.0,89.0
38,38.07157781250001,38.15541912500001,74.0,97.0
39,38.2545043125,38.335296850000006,74.0,87.0
40,38.437430812500004,38.51212580000001,74.0,89.0
41,38.620357312500005,38.70114985000001,74.0,89.0
42,38.803283812500005,38.98316153750001,74.0,94.0
43,38.986210312500006,39.24383180000001,74.0,111.0
44,39.35206331250001,39.644745712500004,75.0,112.0
45,39.90084281250001,39.981635350000005,75.0,102.0
46,40.08376931250001,40.17218378750001,75.0,102.0
47,40.266695812500004,40.353585900000006,75.0,102.0
48,40.449622312500004,40.679804825000005,75.0,105.0
49,40.815475312500006,40.89626785000001,75.0,105.0
50,40.998401812500006,41.08681628750001,75.0,109.0
51,41.18132831250001,41.271267175000006,75.0,96.0
52,41.36425481250001,41.44504735000001,75.0,96.0
53,41.54718131250001,41.62492507500001,75.0,102.0
54,41.73010781250001,41.97705858750001,75.0,116.0
55,42.09596081250001,42.20419232500001,77.0,105.0
56,42.27888731250001,42.58986236250001,74.0,105.0
57,42.827666812500006,42.90845935000001,74.0,100.0
58,43.010593312500006,43.088337075000005,74.0,97.0
59,43.19351981250001,43.25601970000001,74.0,94.0
60,43.37644631250001,43.786506550000006,74.0,114.0
61,43.92522581250001,44.170652200000006,75.0,109.0
62,44.29107881250001,44.48315163750001,74.0,117.0
63,44.656931812500005,44.74077312500001,74.0,108.0
64,44.839858312500006,45.24991855000001,77.0,105.0
65,45.38863781250001,46.84900103750001,77.0,108.0
66,47.58375581250001,47.68284100000001,82.0,109.0
67,47.76668231250001,47.86576750000001,81.0,105.0
68,47.94960881250001,48.04564522500001,82.0,109.0
69,48.13253531250001,48.237718050000005,81.0,100.0
70,48.31546181250001,48.59137595000001,82.0,112.0
71,48.681314812500005,48.96789966250001,79.0,114.0
72,49.41302081250001,49.50600845000001,82.0,109.0
73,49.59594731250001,49.69198372500001,82.0,111.0
74,49.77887381250001,49.89625165000001,82.0,116.0
75,50.32765331250001,50.420640950000006,82.0,105.0
76,50.51057981250001,50.699603862500005,84.0,108.0
77,50.876432812500006,51.08070073750001,82.0,109.0
78,51.24228581250001,51.38862701250001,81.0,114.0
79,51.60813881250001,51.853565200000006,77.0,102.0
80,52.33984481250001,52.42216173750001,81.0,105.0
81,52.52277131250001,52.60661262500001,81.0,105.0
82,52.705697812500006,52.888624312500006,81.0,111.0
83,53.07155081250001,53.14014825000001,81.0,111.0
84,53.25447731250001,53.32917230000001,81.0,100.0
85,53.43740381250001,53.64319612500001,82.0,105.0
86,53.80325681250001,53.92063465000001,81.0,114.0
87,54.16910981250001,54.39319477500001,79.0,111.0
88,54.53496281250001,54.89776703750001,75.0,109.0
89,55.26666881250001,55.35355890000001,79.0,108.0
90,55.44959531250001,55.54563172500001,79.0,100.0
91,55.63252181250001,55.865753100000006,81.0,97.0
92,55.99837481250001,56.18435008750001,79.0,111.0
93,56.36422781250001,56.58221522500001,77.0,100.0
94,56.73008081250001,56.93892190000001,75.0,105.0
95,57.09593381250001,57.40081131250001,74.0,105.0
96,57.82763981250001,58.03190773750001,74.0,105.0
97,58.19349281250001,58.67519926250001,75.0,105.0
98,58.92519881250001,59.12336918750001,77.0,108.0
99,59.29105181250001,59.65385603750001,81.0,114.0
100,59.83983131250001,59.96025792500001,81.0,89.0
101,60.02275781250001,60.30781827500001,82.0,112.0
102,60.38861081250001,60.76513452500001,79.0,111.0
103,61.12031681250001,61.20720690000001,82.0,109.0
104,61.30324331250001,61.38403585000001,82.0,90.0
105,61.48616981250001,61.71635232500001,82.0,109.0
106,61.85202281250001,61.92976657500001,82.0,102.0
107,62.03494931250001,62.47244852500001,84.0,114.0
108,62.58372881250001,62.78799673750001,82.0,105.0
109,62.949581812500014,63.15842290000001,81.0,114.0
110,63.31543481250001,63.65080006250001,77.0,109.0
111,64.04714081250002,64.12336018750001,81.0,108.0
112,64.23006731250001,64.30323791250001,81.0,105.0
113,64.4129938125,64.77579803750001,81.0,108.0
114,64.7788468125,64.95872453750002,81.0,100.0
115,64.96177331250001,65.05476095000002,81.0,102.0
116,65.14469981250001,65.37793110000001,82.0,105.0
117,65.51055281250001,65.72854022500002,81.0,102.0
118,65.87640581250001,66.05323476250001,79.0,114.0
119,66.24225881250001,66.61268497500001,75.0,109.0
120,66.97396481250001,67.04865980000001,79.0,108.0
121,67.15689131250001,67.23768385000001,79.0,108.0
122,67.33981781250002,67.56390277500002,81.0,111.0
123,67.70567081250002,67.89469486250002,79.0,111.0
124,68.07152381250002,68.29865755000002,77.0,102.0
125,68.4373768125,68.698047075,75.0,109.0
126,68.8032298125,69.2544485125,74.0,105.0
127,69.53493581250001,69.78645975,74.0,108.0
128,69.90078881250001,70.45719025000001,75.0,109.0
129,70.63249481250001,70.99529903750002,77.0,105.0
130,70.99834781250001,71.25292052500001,82.0,109.0
131,71.36420081250002,71.5501760875,81.0,114.0
132,71.73005381250002,71.99377285000001,82.0,112.0
133,72.27883331250001,72.3779185,81.0,108.0
134,72.4617598125,72.89316147500001,82.0,112.0
135,73.01053931250001,73.10962450000001,81.0,108.0
136,73.19346581250001,73.50139208750001,82.0,112.0
137,73.74224531250002,73.83523295000002,82.0,102.0
138,73.92517181250001,74.17212258750001,82.0,102.0
139,74.29102481250001,74.46480498750002,84.0,102.0
140,74.65687781250001,75.04864540000001,81.0,108.0
141,75.20565731250001,75.28644985000001,79.0,111.0
142,75.38858381250002,75.82303425,81.0,114.0
143,75.93736331250001,76.01510707500002,79.0,108.0
144,76.12028981250002,76.41602098750002,81.0,117.0
145,76.66906931250001,76.74681307500002,81.0,102.0
146,76.85199581250001,77.05626373750002,81.0,114.0
147,77.21784881250001,77.44498255000002,82.0,109.0
148,77.58370181250001,78.0242498,79.0,111.0
149,78.13248131250002,78.20717630000001,77.0,105.0
150,78.31540781250001,78.74985825000002,79.0,111.0
151,78.86418731250001,78.94802862500002,77.0,111.0
152,79.04711381250002,79.32607672500001,79.0,117.0
153,79.59589331250001,79.67363707500002,79.0,111.0
154,79.77881981250002,79.96784386250002,79.0,97.0
155,80.14467281250002,80.36266022500001,81.0,111.0
156,80.51052581250002,80.96784206250001,77.0,105.0
157,81.05930531250002,81.17058560000001,75.0,105.0
158,81.24223181250001,81.67058470000002,77.0,105.0
159,81.79101131250002,81.88399895000002,75.0,102.0
160,81.97393781250001,82.26357143750002,77.0,102.0
161,82.52271731250002,82.60350985000001,82.0,105.0
162,82.70564381250001,82.87942398750002,82.0,105.0
163,83.07149681250002,83.28033790000002,81.0,117.0
164,83.43734981250002,83.86875147500001,82.0,109.0
165,83.98612931250001,84.06692185000001,81.0,111.0
166,84.16905581250002,84.61417696250001,82.0,105.0
167,84.71783531250001,84.79253030000001,81.0,105.0
168,84.90076181250001,85.25441971250001,82.0,105.0
169,85.44954131250002,85.51813875000002,82.0,105.0
170,85.63246781250001,85.83368696250001,82.0,96.0
171,85.99832081250001,86.15380833750001,84.0,102.0
172,86.36417381250001,86.77728282500001,81.0,108.0
173,86.91295331250001,86.99984340000002,79.0,105.0
174,87.09587981250002,87.50289127500001,81.0,111.0
175,87.64465931250001,87.72545185000001,79.0,105.0
176,87.82758581250002,88.04557322500001,81.0,111.0
177,88.37636531250001,88.46935295000002,79.0,97.0
178,88.55929181250002,88.77423045000002,79.0,105.0
179,88.92514481250002,89.20105895000002,77.0,105.0
180,89.29099781250001,90.00898432500001,79.0,111.0
181,90.75440981250001,91.44800612500002,77.0,111.0
182,91.48611581250002,92.07605377500002,82.0,105.0
183,92.21782181250002,94.19037923750001,79.0,108.0
184,118.92509081250002,119.00893212500002,74.0,102.0
185,119.10801731250002,119.18880985000003,74.0,102.0
186,119.29094381250002,119.50588245000002,74.0,105.0
187,119.65679681250002,119.74063812500002,74.0,100.0
188,119.83972331250003,119.92051585000002,74.0,89.0
189,120.02264981250002,120.10649112500002,74.0,97.0
190,120.20557631250001,120.28636885000002,74.0,87.0
191,120.38850281250002,120.46319780000002,74.0,89.0
192,120.57142931250002,120.65222185000002,74.0,89.0
193,120.75435581250002,120.93423353750002,74.0,94.0
194,120.93728231250002,121.19490380000002,74.0,111.0
195,121.30313531250002,121.59581771250002,75.0,112.0
196,121.85191481250003,121.93270735000002,75.0,102.0
197,122.03484131250002,122.12325578750003,75.0,102.0
198,122.21776781250001,122.30465790000002,75.0,102.0
199,122.40069431250002,122.63087682500002,75.0,105.0
200,122.76654731250002,122.84733985000003,75.0,105.0
201,122.94947381250002,123.03788828750002,75.0,109.0
202,123.13240031250002,123.22233917500002,75.0,96.0
203,123.31532681250002,123.39611935000002,75.0,96.0
204,123.49825331250003,123.57599707500002,75.0,102.0
205,123.68117981250002,123.92813058750002,75.0,116.0
206,124.04703281250002,124.15526432500002,77.0,105.0
207,124.22995931250003,124.54093436250002,74.0,105.0
208,124.77873881250002,124.85953135000003,74.0,100.0
209,124.96166531250002,125.03940907500002,74.0,97.0
210,125.14459181250002,125.20709170000002,74.0,94.0
211,125.32751831250002,125.73757855000002,74.0,114.0
212,125.87629781250003,126.12172420000002,75.0,109.0
213,126.24215081250003,126.43422363750003,74.0,117.0
214,126.60800381250002,126.69184512500003,72.0,108.0
215,126.79093031250002,127.20099055000003,70.0,105.0
216,127.33970981250002,128.80007303750003,72.0,108.0
217,130.63238681250002,130.71622812500001,74.0,102.0
218,130.81531331250002,130.89610585000003,74.0,102.0
219,130.99823981250003,131.21317845000002,74.0,105.0
220,131.36409281250002,131.44793412500002,74.0,100.0
221,131.54701931250003,131.62781185000003,74.0,89.0
222,131.72994581250003,131.81378712500003,74.0,97.0
223,131.9128723125,131.99366485000002,74.0,87.0
224,132.09579881250002,132.17049380000003,74.0,89.0
225,132.27872531250003,132.35951785000003,74.0,89.0
226,132.46165181250004,132.64152953750002,74.0,94.0
227,132.64457831250002,132.90219980000003,74.0,111.0
228,133.01043131250003,133.30311371250002,75.0,112.0
229,133.55921081250003,133.64000335000003,75.0,102.0
230,133.74213731250003,133.8305517875,75.0,102.0
231,133.9250638125,134.01195390000004,75.0,102.0
232,134.10799031250002,134.33817282500002,75.0,105.0
233,134.47384331250004,134.55463585,75.0,105.0
234,134.65676981250002,134.74518428750002,75.0,109.0
235,134.83969631250002,134.92963517500002,75.0,96.0
236,135.02262281250003,135.10341535000003,75.0,96.0
237,135.2055493125,135.28329307500002,75.0,102.0
238,135.38847581250002,135.63542658750004,75.0,116.0
239,135.75432881250003,135.86256032500003,77.0,105.0
240,135.9372553125,136.2482303625,74.0,105.0
241,136.48603481250004,136.56682735,74.0,100.0
242,136.66896131250002,136.74670507500002,74.0,97.0
243,136.85188781250002,136.91438770000002,74.0,94.0
244,137.03481431250003,137.44487455000004,74.0,114.0
245,137.58359381250003,137.82902020000003,75.0,109.0
246,137.9494468125,138.1415196375,74.0,117.0
247,138.31529981250003,138.39914112500003,74.0,108.0
248,138.49822631250004,138.90828655,77.0,105.0
249,139.04700581250003,140.5073690375,77.0,108.0
250,141.2421238125,141.34120900000002,82.0,109.0
251,141.42505031250002,141.52413550000003,81.0,105.0
252,141.60797681250003,141.704013225,82.0,109.0
253,141.79090331250003,141.89608605000004,81.0,100.0
254,141.97382981250001,142.24974395000004,82.0,112.0
255,142.33968281250003,142.62626766250003,79.0,114.0
256,143.07138881250003,143.16437645000002,82.0,109.0
257,143.2543153125,143.35035172500002,82.0,111.0
258,143.43724181250002,143.55461965000003,82.0,116.0
259,143.98602131250001,144.07900895000003,82.0,105.0
260,144.16894781250002,144.35797186250002,84.0,108.0
261,144.53480081250004,144.73906873750002,82.0,109.0
262,144.90065381250002,145.04699501250002,81.0,114.0
263,145.2665068125,145.51193320000002,77.0,102.0
264,145.99821281250001,146.08052973750003,81.0,105.0
265,146.18113931250002,146.26498062500002,81.0,105.0
266,146.36406581250003,146.54699231250004,81.0,111.0
267,146.72991881250002,146.79851625000003,81.0,111.0
268,146.91284531250002,146.98754030000003,81.0,100.0
269,147.09577181250003,147.30156412500003,82.0,105.0
270,147.46162481250002,147.57900265000004,81.0,114.0
271,147.82747781250004,148.05156277500004,79.0,111.0
272,148.19333081250002,148.5561350375,75.0,109.0
273,148.92503681250003,149.01192690000002,79.0,108.0
274,149.10796331250003,149.20399972500002,79.0,100.0
275,149.2908898125,149.52412110000003,81.0,97.0
276,149.65674281250003,149.84271808750003,79.0,111.0
277,150.02259581250001,150.24058322500002,77.0,100.0
278,150.38844881250003,150.59728990000002,75.0,105.0
279,150.75430181250002,151.05917931250002,74.0,105.0
280,151.48600781250002,151.69027573750003,74.0,105.0
281,151.85186081250004,152.33356726250003,75.0,105.0
282,152.58356681250004,152.78173718750003,77.0,108.0
283,152.94941981250003,153.31222403750002,81.0,114.0
284,153.49819931250002,153.61862592500003,81.0,89.0
285,153.68112581250003,153.96618627500004,82.0,112.0
286,154.04697881250002,154.42350252500003,79.0,111.0
287,154.77868481250002,154.8655749,82.0,109.0
288,154.96161131250003,155.04240385000003,82.0,90.0
289,155.14453781250003,155.37472032500003,82.0,109.0
290,155.51039081250002,155.58813457500003,82.0,102.0
291,155.69331731250003,156.13081652500003,84.0,114.0
292,156.24209681250002,156.44636473750003,82.0,105.0
293,156.60794981250004,156.81679090000003,81.0,114.0
294,156.97380281250003,157.30916806250002,77.0,109.0
295,157.70550881250003,157.78172818750002,81.0,108.0
296,157.88843531250004,157.96160591250003,81.0,105.0
297,158.07136181250002,158.43416603750003,81.0,108.0
298,158.43721481250003,158.6170925375,81.0,100.0
299,158.62014131250004,158.71312895000003,81.0,102.0
300,158.80306781250002,159.03629910000004,82.0,105.0
301,159.16892081250003,159.38690822500004,81.0,102.0
302,159.53477381250002,159.71160276250004,79.0,114.0
303,159.90062681250004,160.27105297500003,75.0,109.0
304,160.63233281250004,160.70702780000002,79.0,108.0
305,160.81525931250002,160.89605185000002,79.0,108.0
306,160.99818581250003,161.22227077500003,81.0,111.0
307,161.36403881250004,161.55306286250004,79.0,111.0
308,161.72989181250003,161.95702555000003,77.0,102.0
309,162.09574481250002,162.35641507500003,75.0,109.0
310,162.46159781250003,162.91281651250003,74.0,105.0
311,163.19330381250003,163.44482775000003,74.0,108.0
312,163.55915681250002,164.11555825000002,75.0,109.0
313,164.29086281250002,164.65366703750004,77.0,105.0
314,164.65671581250004,164.91128852500003,82.0,109.0
315,165.02256881250003,165.20854408750003,81.0,114.0
316,165.38842181250004,165.65214085000002,82.0,112.0
317,165.93720131250004,166.03628650000002,81.0,108.0
318,166.12012781250002,166.55152947500002,82.0,112.0
319,166.66890731250004,166.76799250000002,81.0,108.0
320,166.85183381250002,167.15976008750002,82.0,112.0
321,167.40061331250004,167.49360095000003,82.0,102.0
322,167.58353981250002,167.83049058750004,82.0,102.0
323,167.94939281250004,168.12317298750003,84.0,102.0
324,168.31524581250002,168.70701340000002,81.0,108.0
325,168.86402531250002,168.94481785000002,79.0,111.0
326,169.04695181250003,169.48140225000003,81.0,114.0
327,169.59573131250002,169.67347507500003,79.0,108.0
328,169.77865781250003,170.07438898750004,81.0,117.0
329,170.32743731250002,170.40518107500003,81.0,102.0
330,170.51036381250003,170.71463173750004,81.0,114.0
331,170.87621681250002,171.10335055000002,82.0,109.0
332,171.24206981250003,171.68261780000003,79.0,111.0
333,171.79084931250003,171.86554430000004,77.0,105.0
334,171.97377581250004,172.40822625000004,79.0,111.0
335,172.52255531250003,172.60639662500003,77.0,111.0
336,172.70548181250004,172.98444472500003,79.0,117.0
337,173.25426131250003,173.33200507500004,79.0,111.0
338,173.43718781250004,173.62621186250004,79.0,97.0
339,173.80304081250003,174.02102822500004,81.0,111.0
340,174.16889381250002,174.62621006250004,77.0,105.0
341,174.71767331250004,174.82895360000003,75.0,105.0
342,174.90059981250002,175.32895270000003,77.0,105.0
343,175.44937931250004,175.54236695000003,75.0,102.0
344,175.63230581250002,175.92193943750004,77.0,102.0
345,176.18108531250002,176.26187785000002,82.0,105.0
346,176.36401181250002,176.53779198750004,82.0,105.0
347,176.72986481250004,176.93870590000003,81.0,117.0
348,177.09571781250003,177.52711947500003,82.0,109.0
349,177.64449731250002,177.72528985000002,81.0,111.0
350,177.82742381250003,178.27254496250004,82.0,105.0
351,178.37620331250002,178.45089830000003,81.0,105.0
352,178.55912981250003,178.91278771250003,82.0,105.0
353,179.10790931250003,179.17650675000004,82.0,105.0
354,179.29083581250003,179.49205496250002,82.0,96.0
355,179.65668881250002,179.81217633750003,84.0,102.0
356,180.02254181250004,180.43565082500004,81.0,108.0
357,180.57132131250003,180.65821140000003,79.0,105.0
358,180.75424781250004,181.16125927500002,81.0,111.0
359,181.30302731250003,181.38381985000004,79.0,105.0
360,181.48595381250004,181.70394122500002,81.0,111.0
361,182.03473331250004,182.12772095000003,79.0,97.0
362,182.21765981250005,182.43259845000003,79.0,105.0
363,182.58351281250003,182.85942695000003,77.0,105.0
364,182.94936581250002,183.66735232500002,79.0,111.0
365,184.41277781250002,185.10637412500003,77.0,111.0
366,185.14448381250003,185.73442177500004,82.0,105.0
367,185.87618981250003,187.84874723750002,79.0,108.0
368,188.07130781250004,188.32588052500003,82.0,109.0
369,188.43716081250003,188.62313608750003,81.0,114.0
370,188.80301381250004,189.06673285000002,82.0,112.0
371,189.35179331250004,189.45087850000004,81.0,108.0
372,189.53471981250004,189.96612147500002,82.0,112.0
373,190.08349931250004,190.18258450000005,81.0,108.0
374,190.26642581250005,190.57435208750005,82.0,112.0
375,190.81520531250004,190.90819295000003,82.0,102.0
376,190.99813181250002,191.24508258750004,82.0,102.0
377,191.36398481250004,191.53776498750003,84.0,102.0
378,191.72983781250002,192.12160540000002,81.0,108.0
379,192.27861731250005,192.35940985000002,79.0,111.0
380,192.46154381250003,192.89599425000003,81.0,114.0
381,193.01032331250002,193.08806707500003,79.0,108.0
382,193.19324981250003,193.48898098750004,81.0,117.0
383,193.74202931250002,193.81977307500003,81.0,102.0
384,193.92495581250003,194.12922373750004,81.0,114.0
385,194.29080881250005,194.51794255000004,82.0,109.0
386,194.65666181250003,195.09720980000003,79.0,111.0
387,195.20544131250003,195.28013630000004,77.0,105.0
388,195.38836781250004,195.82281825000004,79.0,111.0
389,195.93714731250003,196.02098862500003,77.0,111.0
390,196.12007381250004,196.39903672500003,79.0,117.0
391,196.66885331250003,196.74659707500004,79.0,111.0
392,196.85177981250004,197.04080386250004,79.0,97.0
393,197.21763281250003,197.43562022500004,81.0,111.0
394,197.58348581250004,198.04080206250003,77.0,105.0
395,198.13226531250004,198.24354560000003,75.0,105.0
396,198.31519181250005,198.74354470000003,77.0,105.0
397,198.86397131250004,198.95695895000003,75.0,102.0
398,199.04689781250002,199.33653143750004,77.0,102.0
399,199.59567731250004,199.67646985000005,82.0,105.0
400,199.77860381250002,199.95238398750004,82.0,105.0
401,200.14445681250004,200.35329790000003,81.0,117.0
402,200.51030981250003,200.94171147500003,82.0,109.0
403,201.05908931250005,201.13988185000002,81.0,111.0
404,201.24201581250003,201.68713696250003,82.0,105.0
405,201.79079531250002,201.86549030000003,81.0,105.0
406,201.97372181250003,202.32737971250003,82.0,105.0
407,202.52250131250003,202.59109875000004,82.0,105.0
408,202.70542781250003,202.90664696250005,82.0,96.0
409,203.07128081250005,203.22676833750003,84.0,102.0
410,203.43713381250004,203.85024282500004,81.0,108.0
411,203.98591331250003,204.07280340000003,79.0,105.0
412,204.16883981250004,204.57585127500005,81.0,111.0
413,204.71761931250003,204.79841185000004,79.0,105.0
414,204.90054581250004,205.11853322500002,81.0,111.0
415,205.44932531250004,205.54231295000002,79.0,97.0
416,205.63225181250004,205.84719045000003,79.0,105.0
417,205.99810481250003,206.27401895000003,77.0,105.0
418,206.36395781250005,207.08194432500002,79.0,111.0
419,207.82736981250002,208.52096612500003,77.0,111.0
420,208.55907581250003,209.14901377500004,82.0,105.0
421,209.29078181250003,211.26333923750005,79.0,108.0
