,start,end,pitch,velocity
0,1.4862778125000002,2.0762157750000005,58.0,63.0
1,1.4862778125000002,2.0884108750000006,65.0,94.0
2,1.4862778125000002,2.1326181125000003,62.0,94.0
3,2.0350573125,2.4374956125000002,55.0,87.0
4,1.8521308125000002,2.4390200000000006,50.0,58.0
5,2.4009103125,2.5320076375000005,62.0,94.0
6,1.4862778125000002,2.7759096375000003,43.0,105.0
7,2.7667633125000006,3.1554821250000007,55.0,58.0
8,2.4009103125,3.3887134125000005,65.0,100.0
9,2.7667633125000006,3.442066975000001,62.0,1.0
10,3.1326163125000006,3.5792618500000004,50.0,51.0
11,3.3155428125000004,3.856700375000001,55.0,82.0
12,3.4984693125000006,4.0990779875,58.0,102.0
13,2.9496898125000004,4.140236450000001,43.0,100.0
14,4.0472488125,4.158529100000001,50.0,66.0
15,4.230175312500001,4.286577650000001,58.0,2.0
16,3.4984693125000006,4.3719433500000004,62.0,100.0
17,4.230175312500001,4.388711612500001,55.0,92.0
18,3.4984693125000006,4.504565062500001,65.0,102.0
19,4.5960283125000005,5.192063825000001,58.0,77.0
20,4.961881312500001,5.434441437500001,63.0,79.0
21,4.413101812500001,5.655477625000001,51.0,116.0
22,5.510660812500001,5.783526175000001,58.0,85.0
23,4.961881312500001,5.812489537500001,65.0,97.0
24,5.693587312500001,5.951208800000001,63.0,112.0
25,6.242366812500001,6.385659237500001,63.0,90.0
26,6.059440312500001,6.5350492125000015,58.0,90.0
27,6.425293312500001,6.580780837500001,63.0,93.0
28,5.876513812500001,6.972548425000001,51.0,112.0
29,6.974072812500001,7.094499425000001,58.0,96.0
30,6.425293312500001,7.236267462500002,65.0,105.0
31,7.156999312500001,7.321633162500001,63.0,96.0
32,7.705778812500001,7.826205425000001,58.0,85.0
33,7.888705312500002,7.948156425000001,58.0,59.0
34,7.888705312500002,8.5441919375,62.0,108.0
35,8.437484812500001,8.689008750000001,53.0,82.0
36,7.3399258125000015,8.690533137500001,46.0,112.0
37,8.620411312500002,8.989313087500001,58.0,109.0
38,9.169190812500002,9.259129675000002,58.0,102.0
39,8.986264312500001,9.426812300000002,53.0,60.0
40,9.535043812500001,9.675287462500002,53.0,28.0
41,8.803337812500002,9.716445925000002,46.0,99.0
42,9.3521173125,9.882604162500002,58.0,102.0
43,9.3521173125,9.960347925000002,62.0,100.0
44,9.900896812500001,10.099067187500001,46.0,99.0
45,10.083823312500002,10.281993687500002,58.0,102.0
46,10.083823312500002,10.321627762500002,62.0,94.0
47,10.449676312500001,10.922236437500002,48.0,48.0
48,10.632602812500002,11.251504137500001,53.0,92.0
49,10.815529312500002,11.262174850000003,57.0,105.0
50,10.815529312500002,11.266748012500003,65.0,84.0
51,10.266749812500002,11.580771837500002,41.0,108.0
52,11.547235312500002,11.897844437500002,53.0,97.0
53,11.364308812500003,11.914612700000003,57.0,82.0
54,11.364308812500003,12.172234187500003,60.0,102.0
55,12.096014812500002,12.210343875000001,53.0,76.0
56,11.913088312500003,12.329246100000002,48.0,67.0
57,12.278941312500002,12.820098875000003,53.0,78.0
58,11.730161812500002,12.906988962500002,41.0,105.0
59,12.827720812500003,13.033513125000002,48.0,82.0
60,12.278941312500002,13.111256887500002,57.0,105.0
61,12.278941312500002,13.161561675000002,60.0,80.0
62,13.010647312500002,13.187476262500002,53.0,80.0
63,12.278941312500002,13.341439400000002,65.0,100.0
64,13.193573812500002,13.341439400000002,65.0,89.0
65,13.193573812500002,14.222535375000003,58.0,57.0
66,13.742353312500002,14.367352187500002,55.0,80.0
67,13.559426812500002,14.454242275000002,50.0,67.0
68,13.193573812500002,14.519790937500003,43.0,102.0
69,14.474059312500003,14.868875675000002,55.0,82.0
70,14.291132812500003,15.042655850000003,65.0,97.0
71,14.291132812500003,15.067046050000002,58.0,52.0
72,14.291132812500003,15.083814312500003,62.0,94.0
73,14.839912312500003,15.384118650000003,50.0,78.0
74,15.022838812500003,15.777410625000003,55.0,82.0
75,14.656985812500002,15.833812962500003,43.0,105.0
76,15.754544812500002,15.900886012500003,50.0,89.0
77,15.205765312500002,16.073141800000002,58.0,102.0
78,15.205765312500002,16.102105162500003,62.0,105.0
79,15.937471312500003,16.123446587500002,55.0,87.0
80,15.205765312500002,16.288080437500003,65.0,105.0
81,16.303324312500003,16.925274412500002,58.0,90.0
82,16.120397812500002,17.306371287500003,51.0,102.0
83,16.669177312500004,17.312468837500003,65.0,102.0
84,17.217956812500002,17.454236875000003,58.0,102.0
85,17.400883312500003,17.693565712500003,63.0,96.0
86,17.9496628125,18.060943100000003,63.0,87.0
87,18.132589312500002,18.188991650000002,63.0,87.0
88,17.766736312500004,18.216430625000005,58.0,87.0
89,17.583809812500004,18.506064250000005,51.0,109.0
90,18.681368812500004,18.777405225000003,58.0,109.0
91,18.132589312500002,18.899356225000002,65.0,108.0
92,18.864295312500005,19.047221812500002,63.0,99.0
93,19.413074812500003,19.524355100000005,58.0,105.0
94,19.230148312500003,19.730147412500003,53.0,100.0
95,19.596001312500004,20.140207650000004,58.0,102.0
96,19.596001312500004,20.211853862500003,62.0,105.0
97,19.047221812500002,20.271304975000003,46.0,109.0
98,20.144780812500002,20.431365662500003,53.0,66.0
99,20.327707312500003,20.458804637500002,62.0,41.0
100,20.327707312500003,20.470999737500005,58.0,82.0
101,20.510633812500004,20.908498950000002,58.0,63.0
102,20.510633812500004,20.923742825000005,65.0,92.0
103,20.510633812500004,20.932889150000005,62.0,89.0
104,20.876486812500005,21.137157075000005,53.0,73.0
105,21.059413312500002,21.618863525000005,58.0,99.0
106,20.510633812500004,21.731668200000005,46.0,109.0
107,21.608192812500004,21.794168087500005,53.0,78.0
108,21.791119312500005,21.967948262500006,58.0,105.0
109,21.059413312500002,21.978618975000003,62.0,97.0
110,21.974045812500005,22.403923087500004,57.0,97.0
111,21.974045812500005,22.428313287500004,53.0,84.0
112,22.339898812500003,22.650873862500003,48.0,58.0
113,22.522825312500004,22.873434437500006,53.0,50.0
114,22.522825312500004,22.902397800000003,57.0,89.0
115,22.522825312500004,22.914592900000002,60.0,89.0
116,22.522825312500004,22.932885550000005,65.0,76.0
117,21.974045812500005,23.228616725000006,41.0,100.0
118,23.071604812500006,23.565506362500003,57.0,114.0
119,23.071604812500006,23.600567275000003,60.0,108.0
120,23.071604812500006,23.768249900000004,65.0,100.0
121,24.169163812500003,24.342943987500004,65.0,114.0
122,23.620384312500004,24.428309687500004,48.0,80.0
123,24.352090312500003,24.544163137500004,67.0,97.0
124,23.437457812500003,24.611236187500005,41.0,97.0
125,24.535016812500004,24.736235962500004,69.0,105.0
126,24.717943312500005,24.867333287500003,65.0,82.0
127,24.900869812500005,25.422210337500005,67.0,92.0
128,24.900869812500005,25.448124925000005,62.0,78.0
129,24.900869812500005,25.493856550000004,70.0,79.0
130,25.266722812500003,25.794160887500006,50.0,43.0
131,25.632575812500004,26.123428587500005,62.0,97.0
132,25.632575812500004,26.164587050000005,67.0,102.0
133,25.998428812500006,26.448123125000006,50.0,32.0
134,26.364281812500003,26.798732250000004,62.0,78.0
135,26.364281812500003,26.810927350000004,67.0,89.0
136,26.730134812500005,27.202694937500006,50.0,36.0
137,24.900869812500005,27.243853400000006,43.0,102.0
138,27.095987812500006,27.365804400000005,62.0,94.0
139,27.095987812500006,27.592938137500006,67.0,108.0
140,27.461840812500004,27.599035687500006,62.0,60.0
141,27.095987812500006,27.667633125000005,70.0,102.0
142,27.827693812500005,28.288058837500007,67.0,100.0
143,27.827693812500005,28.294156387500006,70.0,63.0
144,28.193546812500006,28.720984887500006,58.0,33.0
145,28.559399812500004,28.957264950000006,67.0,97.0
146,28.559399812500004,28.963362500000006,63.0,87.0
147,28.559399812500004,28.990801475000005,70.0,85.0
148,28.925252812500005,29.457264050000006,58.0,27.0
149,29.291105812500007,29.727080637500006,67.0,100.0
150,29.291105812500007,29.874946225000006,63.0,50.0
151,29.656958812500005,30.195067600000005,58.0,17.0
152,27.827693812500005,30.237750450000004,51.0,93.0
153,30.022811812500006,30.358177062500005,67.0,105.0
154,30.022811812500006,30.391713587500004,70.0,96.0
155,30.022811812500006,30.393237975000005,63.0,93.0
156,30.754517812500005,31.301772925000005,58.0,93.0
157,30.754517812500005,31.353602100000007,62.0,100.0
158,31.486223812500004,31.740796525000004,58.0,96.0
159,31.120370812500006,31.748418462500005,53.0,41.0
160,31.486223812500004,32.01366188750001,70.0,87.0
161,30.754517812500005,32.0350033125,46.0,96.0
162,31.852076812500005,32.460307425,58.0,70.0
163,31.486223812500004,32.692014325,62.0,105.0
164,32.583782812500004,33.05939171250001,53.0,57.0
165,32.2179298125,33.158476900000004,46.0,55.0
166,32.949635812500006,33.353598500000004,62.0,108.0
167,32.949635812500006,33.3901838,58.0,105.0
168,33.31548881250001,33.55176887500001,46.0,102.0
169,33.68134181250001,34.29719436250001,57.0,89.0
170,33.68134181250001,34.483169637500005,53.0,64.0
171,34.0471948125,34.554815850000004,48.0,45.0
172,33.68134181250001,34.87188845000001,41.0,100.0
173,34.413047812500004,34.905424975,57.0,92.0
174,34.413047812500004,35.027375975000005,60.0,102.0
175,34.778900812500005,35.063961275000004,53.0,53.0
176,35.14475381250001,35.275851137500005,60.0,80.0
177,35.14475381250001,35.281948687500005,57.0,102.0
178,35.14475381250001,35.44048498750001,65.0,97.0
179,35.51060681250001,35.974020612500006,48.0,49.0
180,35.87645981250001,36.181337312500006,65.0,100.0
181,35.87645981250001,36.20267873750001,69.0,114.0
182,35.51060681250001,36.252983525000005,41.0,36.0
183,36.2423128125,36.44048318750001,48.0,78.0
184,36.608165812500005,37.015177275000006,67.0,92.0
185,36.608165812500005,37.094445425,70.0,93.0
186,36.974018812500006,37.507554437500005,50.0,55.0
187,37.33987181250001,37.78346857500001,62.0,94.0
188,37.33987181250001,37.786517350000004,67.0,94.0
189,37.70572481250001,38.16608983750001,50.0,39.0
190,38.07157781250001,38.65236945000001,62.0,89.0
191,38.07157781250001,38.797186262500006,70.0,79.0
192,36.608165812500005,38.87645441250001,43.0,105.0
193,38.437430812500004,38.922186037500005,50.0,44.0
194,38.803283812500005,38.97401521250001,62.0,94.0
195,38.803283812500005,39.246880575000006,67.0,105.0
196,39.16913681250001,39.27279516250001,62.0,80.0
197,39.53498981250001,40.11578145000001,70.0,72.0
198,39.53498981250001,40.12492777500001,63.0,87.0
199,39.90084281250001,40.425232112500005,58.0,43.0
200,40.266695812500004,40.74230471250001,67.0,102.0
201,40.266695812500004,40.83834112500001,63.0,77.0
202,40.632548812500005,41.09291383750001,58.0,32.0
203,39.53498981250001,41.219438000000004,51.0,99.0
204,40.998401812500006,41.591388550000005,70.0,72.0
205,40.998401812500006,41.609681200000004,63.0,90.0
206,41.36425481250001,41.649315275000006,58.0,30.0
207,41.73010781250001,41.94199767500001,63.0,90.0
208,41.73010781250001,41.957241550000006,67.0,108.0
209,41.73010781250001,42.01974143750001,70.0,87.0
210,42.461813812500004,42.98315433750001,70.0,82.0
211,42.461813812500004,43.03041035000001,58.0,65.0
212,42.827666812500006,43.32766591250001,53.0,42.0
213,43.19351981250001,43.58833617500001,62.0,102.0
214,43.19351981250001,43.73162860000001,58.0,82.0
215,43.55937281250001,44.10967670000001,53.0,50.0
216,43.92522581250001,44.42217613750001,62.0,100.0
217,43.92522581250001,44.53040765000001,58.0,96.0
218,43.92522581250001,44.533456425000004,70.0,74.0
219,44.29107881250001,44.79412668750001,53.0,52.0
220,42.461813812500004,44.81394372500001,46.0,77.0
221,44.656931812500005,44.82156566250001,62.0,97.0
222,44.656931812500005,44.86119973750001,58.0,99.0
223,45.02278481250001,45.15083336250001,46.0,105.0
224,45.38863781250001,45.82613702500001,57.0,87.0
225,45.38863781250001,45.987722100000006,60.0,92.0
226,45.75449081250001,46.19808757500001,48.0,44.0
227,46.12034381250001,46.28192888750001,57.0,97.0
228,46.12034381250001,46.396257950000006,65.0,97.0
229,46.12034381250001,46.509062625000006,60.0,100.0
230,45.38863781250001,46.74686707500001,41.0,100.0
231,46.486196812500005,46.76211095000001,57.0,57.0
232,46.852049812500006,47.33985381250001,57.0,94.0
233,46.852049812500006,47.35967085000001,60.0,102.0
234,46.852049812500006,47.54869490000001,69.0,100.0
235,47.21790281250001,47.67674345000001,48.0,58.0
236,47.94960881250001,48.14168163750001,48.0,84.0
237,47.58375581250001,48.143206025000005,57.0,97.0
238,47.58375581250001,48.17979132500001,60.0,100.0
239,47.58375581250001,48.19198642500001,65.0,87.0
240,48.31546181250001,48.722473275000006,62.0,78.0
241,48.31546181250001,48.76515612500001,55.0,78.0
242,48.31546181250001,48.769729287500006,58.0,79.0
243,48.681314812500005,49.17521636250001,50.0,52.0
244,49.04716781250001,49.50143528750001,55.0,92.0
245,49.04716781250001,49.55936201250001,58.0,105.0
246,49.41302081250001,49.94045888750001,50.0,64.0
247,49.77887381250001,50.34747035000001,58.0,90.0
248,49.77887381250001,50.35966545000001,55.0,89.0
249,49.77887381250001,50.36576300000001,62.0,94.0
250,50.14472681250001,50.65996978750001,50.0,53.0
251,48.31546181250001,50.69198192500001,43.0,92.0
252,50.51057981250001,50.89929862500001,58.0,116.0
253,50.51057981250001,50.90234740000001,55.0,97.0
254,50.51057981250001,50.90234740000001,62.0,108.0
255,50.876432812500006,51.08222512500001,43.0,97.0
256,51.24228581250001,51.78344337500001,57.0,92.0
257,51.24228581250001,51.90386998750001,53.0,80.0
258,51.97399181250001,52.03039415000001,53.0,44.0
259,51.60813881250001,52.07155261250001,48.0,31.0
260,51.97399181250001,52.54868590000001,57.0,105.0
261,51.97399181250001,52.58222242500001,60.0,100.0
262,52.33984481250001,52.78344157500001,48.0,31.0
263,51.24228581250001,52.91301451250001,41.0,100.0
264,52.705697812500006,53.26819680000001,57.0,114.0
265,52.705697812500006,53.28953822500001,65.0,97.0
266,52.705697812500006,53.30478210000001,60.0,100.0
267,53.07155081250001,53.41911116250001,53.0,48.0
268,53.43740381250001,53.75752518750001,57.0,102.0
269,53.43740381250001,53.77886661250001,60.0,94.0
270,53.80325681250001,53.90539077500001,53.0,67.0
271,53.43740381250001,53.93740291250001,65.0,102.0
272,54.16910981250001,54.53953597500001,63.0,93.0
273,54.16910981250001,54.765145325000006,67.0,100.0
274,54.53496281250001,55.01666926250001,58.0,46.0
275,54.90081581250001,55.09593741250001,63.0,105.0
276,54.90081581250001,55.10660812500001,67.0,102.0
277,55.26666881250001,55.77276546250001,58.0,28.0
278,54.16910981250001,56.13556968750001,51.0,105.0
279,55.99837481250001,56.16605743750001,58.0,41.0
280,55.63252181250001,56.18282570000001,63.0,96.0
281,55.63252181250001,56.20111835000001,70.0,93.0
282,56.36422781250001,56.51056901250001,63.0,99.0
283,56.36422781250001,56.75599540000001,67.0,105.0
284,56.73008081250001,56.83526355000001,63.0,99.0
285,57.09593381250001,57.63709137500001,62.0,100.0
286,57.09593381250001,57.90995673750001,58.0,72.0
287,57.09593381250001,58.00294437500001,46.0,93.0
288,57.46178681250001,58.17062700000001,53.0,71.0
289,57.82763981250001,58.23465127500001,62.0,97.0
290,58.19349281250001,58.31544381250001,58.0,99.0
291,57.82763981250001,58.42672410000001,65.0,102.0
292,58.55934581250001,58.86117453750001,57.0,94.0
293,58.55934581250001,59.15538132500001,60.0,100.0
294,59.29105181250001,59.33830782500001,57.0,73.0
295,58.92519881250001,59.40690526250001,48.0,53.0
296,58.55934581250001,59.57458788750001,41.0,94.0
297,59.29105181250001,59.67977062500001,60.0,111.0
298,59.65690481250001,59.86879467500001,57.0,105.0
299,59.29105181250001,59.990745675000014,65.0,94.0
300,60.02275781250001,60.52885446250001,58.0,63.0
301,60.02275781250001,60.52885446250001,62.0,82.0
302,60.02275781250001,60.64470791250001,55.0,76.0
303,60.38861081250001,60.85812216250001,50.0,48.0
304,60.02275781250001,60.94196347500001,43.0,105.0
305,60.75446381250001,61.191963025000014,58.0,99.0
306,60.75446381250001,61.32153596250001,62.0,105.0
307,61.12031681250001,61.72549865000001,55.0,82.0
308,61.48616981250001,62.06238828750001,67.0,102.0
309,61.48616981250001,62.10202236250001,62.0,97.0
310,61.48616981250001,62.11421746250001,58.0,77.0
311,62.21787581250001,62.27427815000001,55.0,78.0
312,61.85202281250001,62.54866790000001,50.0,57.0
313,62.21787581250001,62.58830197500001,62.0,102.0
314,62.21787581250001,62.62183850000001,58.0,105.0
315,62.58372881250001,62.79866745000001,55.0,111.0
316,62.949581812500014,63.76970228750001,53.0,94.0
317,62.949581812500014,64.20415272500001,57.0,94.0
318,63.68128781250001,64.24988435000002,60.0,87.0
319,63.31543481250001,64.61726173750002,48.0,55.0
320,64.04714081250002,64.77122487500002,53.0,94.0
321,64.4129938125,64.92518801250002,57.0,117.0
322,64.4129938125,64.93738311250002,65.0,92.0
323,64.4129938125,64.96939525,60.0,108.0
324,62.949581812500014,65.16146807500002,41.0,94.0
325,64.7788468125,65.1828095,48.0,82.0
326,65.14469981250001,65.49530893750001,57.0,111.0
327,65.14469981250001,65.51055281250001,60.0,102.0
328,65.14469981250001,65.62335748750002,65.0,94.0
329,65.51055281250001,65.63860136250001,53.0,102.0
330,65.87640581250001,66.42670970000002,63.0,65.0
331,65.87640581250001,66.44195357500001,67.0,92.0
332,66.24225881250001,66.72701403750001,58.0,63.0
333,66.60811181250001,66.81237973750001,63.0,102.0
334,66.60811181250001,66.82609922500001,67.0,105.0
335,66.97396481250001,67.48615901250001,58.0,50.0
336,65.87640581250001,67.85506078750001,51.0,105.0
337,67.70567081250002,67.88554853750001,58.0,61.0
338,67.33981781250002,67.94499965000001,63.0,102.0
339,67.33981781250002,67.98920688750002,70.0,96.0
340,68.07152381250002,68.1995723625,63.0,96.0
341,68.07152381250002,68.42823048750002,67.0,102.0
342,68.4373768125,68.52731567500001,63.0,99.0
343,68.8032298125,69.31847278750001,62.0,94.0
344,68.8032298125,69.47700908750001,58.0,68.0
345,69.16908281250001,69.63554538750002,53.0,66.0
346,69.53493581250001,69.87030106250002,58.0,38.0
347,68.8032298125,70.03036175000001,46.0,85.0
348,69.90078881250001,70.04408123750001,53.0,67.0
349,69.53493581250001,70.16603223750002,62.0,105.0
350,70.08371531250002,70.32609292500001,58.0,99.0
351,69.53493581250001,70.37944648750002,65.0,105.0
352,70.4495683125,71.08676228750001,48.0,62.0
353,70.63249481250001,71.10200616250002,53.0,102.0
354,70.26664181250001,71.44042018750001,41.0,105.0
355,70.99834781250001,71.55474925000001,57.0,117.0
356,70.99834781250001,71.62944423750001,60.0,108.0
357,71.36420081250002,71.64926127500001,48.0,84.0
358,71.73005381250002,72.18127251250002,62.0,84.0
359,71.73005381250002,72.21176026250001,55.0,73.0
360,72.09590681250002,72.55932061250002,50.0,67.0
361,72.4617598125,72.911454125,58.0,109.0
362,72.4617598125,72.96328330000001,55.0,100.0
363,72.8276128125,73.37181915000001,50.0,58.0
364,73.19346581250001,73.79864765,58.0,93.0
365,73.19346581250001,73.83675733750002,62.0,94.0
366,73.55931881250001,74.01053751250001,50.0,50.0
367,71.73005381250002,74.03492771250001,43.0,100.0
368,73.92517181250001,74.14925677500001,58.0,102.0
369,73.92517181250001,74.18889085,62.0,108.0
370,73.92517181250001,74.26968338750001,67.0,100.0
371,74.29102481250001,74.37181735000001,43.0,94.0
372,74.65687781250001,75.18431588750002,60.0,71.0
373,74.65687781250001,75.24986455000001,65.0,92.0
374,75.02273081250001,75.54407133750001,57.0,71.0
375,75.38858381250002,75.84894883750002,65.0,105.0
376,75.38858381250002,75.86114393750002,62.0,100.0
377,75.75443681250002,76.2605334625,57.0,80.0
378,76.12028981250002,76.55778902500002,69.0,102.0
379,76.12028981250002,76.57760606250001,65.0,102.0
380,76.12028981250002,76.62943523750002,62.0,94.0
381,76.48614281250002,77.01053211250002,57.0,58.0
382,76.85199581250001,77.01815405,65.0,102.0
383,74.65687781250001,77.02730037500001,50.0,102.0
384,76.85199581250001,77.16297086250002,62.0,100.0
385,77.58370181250001,78.00595715000001,67.0,89.0
386,77.58370181250001,78.06235948750002,63.0,90.0
387,78.31540781250001,78.43583442500001,67.0,94.0
388,78.31540781250001,78.43735881250001,63.0,102.0
389,77.94955481250001,78.44650513750001,58.0,59.0
390,77.58370181250001,78.93888230000002,51.0,99.0
391,78.68126081250001,79.10961370000001,58.0,33.0
392,79.04711381250002,79.58827137500002,70.0,74.0
393,79.04711381250002,79.65534442500001,63.0,93.0
394,79.41296681250002,79.84436847500001,58.0,45.0
395,79.04711381250002,79.92973417500001,51.0,90.0
396,79.77881981250002,80.00290477500002,63.0,102.0
397,79.96174631250001,80.07912415000001,58.0,87.0
398,79.77881981250002,80.09894118750002,67.0,105.0
399,80.14467281250002,80.32455053750002,63.0,105.0
400,80.51052581250002,80.99832981250002,62.0,102.0
401,80.51052581250002,81.31540241250002,58.0,102.0
402,80.51052581250002,81.39619495000001,46.0,102.0
403,80.87637881250001,81.59741410000001,53.0,87.0
404,81.24223181250001,81.71784071250002,62.0,111.0
405,81.24223181250001,81.77729182500002,65.0,105.0
406,81.60808481250001,81.91601108750001,58.0,74.0
407,81.97393781250001,82.54863190000002,62.0,94.0
408,81.97393781250001,82.59588791250002,58.0,68.0
409,82.52271731250002,82.65991218750001,46.0,1.0
410,82.33979081250001,82.95411897500001,53.0,44.0
411,82.70564381250001,82.97241162500002,58.0,96.0
412,82.70564381250001,83.05930171250002,62.0,105.0
413,82.70564381250001,83.10350895000002,65.0,108.0
414,82.88857031250001,83.14771618750001,46.0,96.0
415,83.07149681250002,83.37637431250002,53.0,102.0
416,83.43734981250002,83.88856851250002,62.0,84.0
417,83.43734981250002,83.91905626250002,55.0,73.0
418,83.80320281250002,84.26661661250002,50.0,67.0
419,84.16905581250002,84.61875012500002,58.0,109.0
420,84.16905581250002,84.67057930000001,55.0,100.0
421,84.53490881250002,85.07911515000002,50.0,58.0
422,84.90076181250001,85.50594365000002,58.0,93.0
423,84.90076181250001,85.54405333750002,62.0,94.0
424,85.26661481250001,85.71783351250002,50.0,50.0
425,83.43734981250002,85.74222371250002,43.0,100.0
426,85.63246781250001,85.85655277500001,58.0,102.0
427,85.63246781250001,85.89618685000002,62.0,108.0
428,85.63246781250001,85.97697938750001,67.0,100.0
429,85.99832081250001,86.07911335000001,43.0,94.0
430,86.36417381250001,86.89161188750002,60.0,71.0
431,86.36417381250001,86.95716055000001,65.0,92.0
432,86.73002681250001,87.25136733750001,57.0,71.0
433,87.09587981250002,87.55624483750002,65.0,105.0
434,87.09587981250002,87.56843993750002,62.0,100.0
435,87.46173281250002,87.96782946250002,57.0,80.0
436,87.82758581250002,88.26508502500002,69.0,102.0
437,87.82758581250002,88.28490206250001,65.0,102.0
438,87.82758581250002,88.33673123750002,62.0,94.0
439,88.19343881250002,88.71782811250002,57.0,58.0
440,88.55929181250002,88.72545005000002,65.0,102.0
441,86.36417381250001,88.73459637500001,50.0,102.0
442,88.55929181250002,88.87026686250002,62.0,100.0
443,89.29099781250001,89.81538711250002,67.0,89.0
444,89.29099781250001,89.82605782500002,63.0,99.0
445,89.29099781250001,89.97697218750001,51.0,99.0
446,89.65685081250001,89.98002096250002,58.0,55.0
447,90.02270381250001,90.33063008750001,63.0,112.0
448,90.02270381250001,90.37636171250001,67.0,102.0
449,90.75440981250001,90.79099511250001,64.0,69.0
450,90.75440981250001,91.25745768750002,65.0,73.0
451,90.75440981250001,91.29251860000002,60.0,71.0
452,90.75440981250001,91.67971302500001,41.0,97.0
453,91.48611581250002,91.69190812500001,60.0,102.0
454,91.12026281250002,91.74373730000002,48.0,57.0
455,91.85196881250002,92.01965143750002,60.0,80.0
456,91.48611581250002,92.03946847500002,65.0,105.0
457,91.48611581250002,92.08672448750002,69.0,102.0
458,92.21782181250002,92.58367481250002,67.0,80.0
459,92.21782181250002,92.64922347500001,62.0,80.0
460,92.58367481250002,93.04099106250001,50.0,60.0
461,92.94952781250002,93.44647813750002,62.0,100.0
462,92.94952781250002,93.59891688750001,70.0,93.0
463,93.31538081250001,93.89922122500002,50.0,60.0
464,93.68123381250001,94.19952556250001,67.0,94.0
465,93.68123381250001,94.21629382500002,62.0,73.0
466,94.04708681250001,94.55013468750002,50.0,50.0
467,94.41293981250001,94.75287822500002,62.0,82.0
468,94.41293981250001,95.06232888750002,67.0,97.0
469,92.21782181250002,95.12482877500001,43.0,102.0
470,94.41293981250001,95.13397510000001,70.0,85.0
471,94.77879281250001,95.15836530000001,50.0,67.0
472,95.14464581250002,95.71324235000002,58.0,54.0
473,95.14464581250002,95.75287642500001,55.0,67.0
474,95.51049881250002,96.06385147500002,50.0,62.0
475,95.87635181250002,96.23000971250002,62.0,94.0
476,96.24220481250002,96.75135023750002,50.0,58.0
477,96.60805781250002,97.17970312500002,58.0,54.0
478,96.60805781250002,97.22238597500002,62.0,87.0
479,96.97391081250002,97.44951971250002,50.0,44.0
480,95.14464581250002,97.49372695000001,43.0,94.0
481,97.33976381250001,97.76201915000001,58.0,41.0
482,97.70561681250001,97.82604342500002,55.0,97.0
483,97.33976381250001,97.98000656250002,67.0,97.0
484,98.07146981250001,98.60348105000001,65.0,73.0
485,98.07146981250001,98.87939518750002,62.0,58.0
486,98.43732281250001,98.90683416250002,57.0,64.0
487,98.80317581250002,99.23152870000001,65.0,80.0
488,98.80317581250002,99.23152870000001,69.0,82.0
489,99.16902881250002,99.69036933750002,57.0,51.0
490,99.53488181250002,100.06231988750002,62.0,73.0
491,99.53488181250002,100.06994182500002,65.0,78.0
492,99.90073481250002,100.39463636250002,57.0,51.0
493,100.26658781250002,100.65530662500002,65.0,100.0
494,98.07146981250001,100.66902611250002,50.0,102.0
495,100.63244081250002,100.80774537500002,57.0,82.0
496,100.26658781250002,100.83670873750002,62.0,92.0
497,100.99829381250002,101.57603667500001,67.0,80.0
498,100.99829381250002,101.57908545000002,63.0,72.0
499,101.36414681250002,101.83060938750002,58.0,41.0
500,101.72999981250001,102.27573053750002,67.0,97.0
501,101.72999981250001,102.28945002500002,63.0,90.0
502,102.09585281250001,102.62024211250002,58.0,52.0
503,102.46170581250001,102.79707106250002,67.0,92.0
504,102.46170581250001,102.81841248750001,63.0,57.0
505,102.82755881250002,103.31231403750002,58.0,34.0
506,100.99829381250002,103.37481392500001,51.0,96.0
507,103.19341181250002,103.48914298750002,63.0,77.0
508,103.19341181250002,103.63395980000001,70.0,87.0
509,103.55926481250002,103.76810590000002,51.0,90.0
510,103.92511781250002,104.49371435000002,62.0,78.0
511,103.92511781250002,104.54401913750002,58.0,43.0
512,103.92511781250002,104.83212837500002,46.0,52.0
513,104.65682381250002,104.83365276250002,58.0,65.0
514,104.29097081250002,104.88395755000002,53.0,25.0
515,104.65682381250002,105.06383527500002,62.0,97.0
516,105.02267681250002,105.18426188750001,58.0,99.0
517,104.65682381250002,105.19798137500001,65.0,105.0
518,105.38852981250002,105.96017512500002,60.0,84.0
519,105.38852981250002,106.06535786250002,57.0,82.0
520,105.38852981250002,106.33669883750002,41.0,89.0
521,105.75438281250001,106.34127200000002,48.0,64.0
522,106.12023581250001,106.41901576250002,60.0,97.0
523,106.48608881250001,106.63243001250002,57.0,76.0
524,106.12023581250001,106.67663725000001,65.0,94.0
525,106.85194181250002,107.37328233750002,58.0,61.0
526,106.85194181250002,107.39919692500001,62.0,87.0
527,106.85194181250002,107.51352598750002,55.0,69.0
528,107.21779481250002,107.73913533750002,50.0,55.0
529,107.58364781250002,108.05315916250002,62.0,84.0
530,107.94950081250002,108.44035358750001,50.0,58.0
531,108.31535381250002,108.88090157500002,58.0,82.0
532,108.31535381250002,108.91748687500002,62.0,94.0
533,109.04705981250002,109.20254733750002,55.0,84.0
534,106.85194181250002,109.28791303750002,43.0,97.0
535,108.68120681250002,109.34888853750002,50.0,57.0
536,109.04705981250002,109.45712005000001,58.0,93.0
537,109.41291281250002,109.53791258750002,55.0,89.0
538,109.04705981250002,109.56535156250001,62.0,97.0
539,109.77876581250001,110.32906970000002,65.0,82.0
540,109.77876581250001,110.34126480000002,62.0,82.0
541,110.14461881250001,110.60803261250003,57.0,80.0
542,110.51047181250001,110.99217826250002,62.0,67.0
543,110.51047181250001,111.00284897500002,65.0,87.0
544,110.51047181250001,111.04248305000002,69.0,92.0
545,109.77876581250001,111.26047046250002,50.0,84.0
546,111.24217781250002,111.70864038750003,62.0,76.0
547,111.24217781250002,111.71778671250001,65.0,89.0
548,111.60803081250002,112.14918837500002,50.0,3.0
549,111.60803081250002,112.15223715000002,53.0,44.0
550,110.87632481250002,112.17510296250002,57.0,58.0
551,111.97388381250002,112.30315151250002,65.0,105.0
552,111.97388381250002,112.42357812500002,62.0,100.0
553,111.97388381250002,112.44949271250002,69.0,97.0
554,112.33973681250002,112.47693168750001,50.0,92.0
555,112.70558981250002,113.01656486250002,67.0,87.0
556,112.70558981250002,113.03790628750002,63.0,59.0
557,112.70558981250002,113.53180783750003,51.0,102.0
558,113.07144281250002,113.70253923750002,58.0,63.0
559,113.43729581250003,113.77723422500002,63.0,90.0
560,113.43729581250003,113.81381952500001,70.0,77.0
561,113.80314881250003,113.97388021250002,51.0,41.0
562,114.16900181250001,114.61564735000002,60.0,87.0
563,114.16900181250001,114.71015937500002,65.0,87.0
564,114.53485481250001,115.06686605000002,57.0,60.0
565,114.16900181250001,115.08820747500002,53.0,87.0
566,114.90070781250002,115.09278063750001,60.0,97.0
567,114.90070781250002,115.34735335000002,69.0,94.0
568,115.26656081250002,115.35345090000003,60.0,66.0
569,115.26656081250002,115.63546258750002,65.0,89.0
570,115.63241381250002,116.03180333750002,67.0,76.0
571,115.63241381250002,116.14765678750003,62.0,71.0
572,115.99826681250002,116.42661970000002,50.0,62.0
573,116.36411981250002,116.88546033750002,62.0,94.0
574,116.36411981250002,117.04399663750002,70.0,85.0
575,116.72997281250002,117.15832570000002,50.0,58.0
576,117.09582581250002,117.64612970000002,67.0,78.0
577,117.09582581250002,117.65222725000002,62.0,64.0
578,117.46167881250003,117.97692178750002,50.0,50.0
579,115.63241381250002,118.28179928750002,43.0,97.0
580,117.82753181250003,118.59429872500002,62.0,73.0
581,118.55923781250002,118.59429872500002,62.0,78.0
582,117.82753181250003,118.60801821250001,67.0,84.0
583,118.55923781250002,118.60801821250001,67.0,92.0
584,117.82753181250003,118.63240841250003,70.0,63.0
585,118.55923781250002,118.63240841250003,70.0,79.0
586,118.92509081250002,119.45252888750002,50.0,43.0
587,119.29094381250002,119.78179658750003,62.0,97.0
588,119.29094381250002,119.82295505000002,67.0,102.0
589,119.65679681250002,120.10649112500002,50.0,32.0
590,120.02264981250002,120.45710025000002,62.0,78.0
591,120.02264981250002,120.46929535000002,67.0,89.0
592,120.38850281250002,120.86106293750002,50.0,36.0
593,118.55923781250002,120.90222140000002,43.0,102.0
594,120.75435581250002,121.02417240000003,62.0,94.0
595,120.75435581250002,121.25130613750002,67.0,108.0
596,121.12020881250002,121.25740368750002,62.0,60.0
597,120.75435581250002,121.32600112500002,70.0,102.0
598,121.48606181250003,121.94642683750003,67.0,100.0
599,121.48606181250003,121.95252438750002,70.0,63.0
600,121.85191481250003,122.37935288750002,58.0,33.0
601,122.21776781250001,122.61563295000002,67.0,97.0
602,122.21776781250001,122.62173050000003,63.0,87.0
603,122.21776781250001,122.64916947500002,70.0,85.0
604,122.58362081250002,123.11563205000002,58.0,27.0
605,122.94947381250002,123.38544863750002,67.0,100.0
606,122.94947381250002,123.53331422500003,63.0,50.0
607,123.31532681250002,123.85343560000003,58.0,17.0
608,121.48606181250003,123.89611845000002,51.0,93.0
609,123.68117981250002,124.01654506250001,67.0,105.0
610,123.68117981250002,124.05008158750002,70.0,96.0
611,123.68117981250002,124.05160597500002,63.0,93.0
612,124.41288581250002,124.96014092500002,58.0,93.0
613,124.41288581250002,125.01197010000003,62.0,100.0
614,125.14459181250002,125.39916452500002,58.0,96.0
615,124.77873881250002,125.40678646250002,53.0,41.0
616,125.14459181250002,125.67202988750002,70.0,87.0
617,124.41288581250002,125.69337131250002,46.0,96.0
618,125.51044481250003,126.11867542500002,58.0,70.0
619,125.14459181250002,126.35038232500003,62.0,105.0
620,126.24215081250003,126.71775971250003,53.0,57.0
621,125.87629781250003,126.81684490000002,46.0,55.0
622,126.60800381250002,127.01196650000003,62.0,108.0
623,126.60800381250002,127.04855180000003,58.0,105.0
624,126.97385681250002,127.21013687500002,46.0,102.0
625,127.33970981250002,127.95556236250002,57.0,89.0
626,127.33970981250002,128.14153763750002,53.0,64.0
627,127.70556281250002,128.21318385000004,48.0,45.0
628,127.33970981250002,128.53025645000002,41.0,100.0
629,128.07141581250002,128.563792975,57.0,92.0
630,128.07141581250002,128.685743975,60.0,102.0
631,128.4372688125,128.72232927500002,53.0,53.0
632,128.80312181250002,128.9342191375,60.0,80.0
633,128.80312181250002,128.94031668750003,57.0,102.0
634,128.80312181250002,129.0988529875,65.0,97.0
635,129.1689748125,129.63238861250002,48.0,49.0
636,129.53482781250003,129.83970531250003,65.0,100.0
637,129.53482781250003,129.86104673750003,69.0,114.0
638,129.1689748125,129.91135152500001,41.0,36.0
639,129.9006808125,130.09885118750003,48.0,78.0
640,130.26653381250003,130.673545275,67.0,92.0
641,130.26653381250003,130.75281342500003,70.0,93.0
642,130.63238681250002,131.16592243750003,50.0,55.0
643,130.99823981250003,131.44183657500002,62.0,94.0
644,130.99823981250003,131.44488535000002,67.0,94.0
645,131.36409281250002,131.82445783750003,50.0,39.0
646,131.72994581250003,132.31073745000003,62.0,89.0
647,131.72994581250003,132.45555426250002,70.0,79.0
648,130.26653381250003,132.53482241250003,43.0,105.0
649,132.09579881250002,132.58055403750004,50.0,44.0
650,132.46165181250004,132.63238321250003,62.0,94.0
651,132.46165181250004,132.90524857500003,67.0,105.0
652,132.82750481250002,132.9311631625,62.0,80.0
653,133.1933578125,133.77414945,70.0,72.0
654,133.1933578125,133.78329577500003,63.0,87.0
655,133.55921081250003,134.08360011250002,58.0,43.0
656,133.9250638125,134.4006727125,67.0,102.0
657,133.9250638125,134.49670912500002,63.0,77.0
658,134.29091681250003,134.75128183750002,58.0,32.0
659,133.1933578125,134.87780600000002,51.0,99.0
660,134.65676981250002,135.24975655000003,70.0,72.0
661,134.65676981250002,135.26804920000004,63.0,90.0
662,135.02262281250003,135.30768327500002,58.0,30.0
663,135.38847581250002,135.60036567500003,63.0,90.0
664,135.38847581250002,135.61560955000002,67.0,108.0
665,135.38847581250002,135.6781094375,70.0,87.0
666,136.12018181250002,136.64152233750002,70.0,82.0
667,136.12018181250002,136.68877835000004,58.0,65.0
668,136.48603481250004,136.98603391250003,53.0,42.0
669,136.85188781250002,137.24670417500002,62.0,102.0
670,136.85188781250002,137.38999660000002,58.0,82.0
671,137.2177408125,137.76804470000002,53.0,50.0
672,137.58359381250003,138.08054413750003,62.0,100.0
673,137.58359381250003,138.18877565000003,58.0,96.0
674,137.58359381250003,138.19182442500002,70.0,74.0
675,137.9494468125,138.45249468750004,53.0,52.0
676,136.12018181250002,138.47231172500003,46.0,77.0
677,138.31529981250003,138.47993366250003,62.0,97.0
678,138.31529981250003,138.5195677375,58.0,99.0
679,138.68115281250002,138.80920136250003,46.0,105.0
680,139.04700581250003,139.48450502500003,57.0,87.0
681,139.04700581250003,139.64609010000004,60.0,92.0
682,139.41285881250002,139.856455575,48.0,44.0
683,139.77871181250003,139.9402968875,57.0,97.0
684,139.77871181250003,140.05462595000003,65.0,97.0
685,139.77871181250003,140.16743062500004,60.0,100.0
686,139.04700581250003,140.40523507500004,41.0,100.0
687,140.14456481250002,140.42047895000002,57.0,57.0
688,140.51041781250004,140.99822181250002,57.0,94.0
689,140.51041781250004,141.01803885,60.0,102.0
690,140.51041781250004,141.2070629,69.0,100.0
691,140.87627081250002,141.33511145000003,48.0,58.0
692,141.60797681250003,141.80004963750002,48.0,84.0
693,141.2421238125,141.80157402500004,57.0,97.0
694,141.2421238125,141.83815932500002,60.0,100.0
695,141.2421238125,141.85035442500003,65.0,87.0
696,141.97382981250001,142.38084127500002,62.0,78.0
697,141.97382981250001,142.42352412500003,55.0,78.0
698,141.97382981250001,142.42809728750004,58.0,79.0
699,142.33968281250003,142.83358436250003,50.0,52.0
700,142.70553581250002,143.1598032875,55.0,92.0
701,142.70553581250002,143.21773001250003,58.0,105.0
702,143.07138881250003,143.59882688750002,50.0,64.0
703,143.43724181250002,144.00583835000003,58.0,90.0
704,143.43724181250002,144.01803345000002,55.0,89.0
705,143.43724181250002,144.024131,62.0,94.0
706,143.80309481250004,144.3183377875,50.0,53.0
707,141.97382981250001,144.35034992500002,43.0,92.0
708,144.16894781250002,144.55766662500002,58.0,116.0
709,144.16894781250002,144.56071540000002,55.0,97.0
710,144.16894781250002,144.56071540000002,62.0,108.0
711,144.53480081250004,144.74059312500003,43.0,97.0
712,144.90065381250002,145.44181137500001,57.0,92.0
713,144.90065381250002,145.56223798750003,53.0,80.0
714,145.63235981250003,145.68876215000003,53.0,44.0
715,145.2665068125,145.72992061250002,48.0,31.0
716,145.63235981250003,146.20705390000003,57.0,105.0
717,145.63235981250003,146.24059042500002,60.0,100.0
718,145.99821281250001,146.44180957500004,48.0,31.0
719,144.90065381250002,146.57138251250004,41.0,100.0
720,146.36406581250003,146.92656480000002,57.0,114.0
721,146.36406581250003,146.94790622500003,65.0,97.0
722,146.36406581250003,146.96315010000004,60.0,100.0
723,146.72991881250002,147.07747916250003,53.0,48.0
724,147.09577181250003,147.41589318750002,57.0,102.0
725,147.09577181250003,147.43723461250002,60.0,94.0
726,147.46162481250002,147.56375877500003,53.0,67.0
727,147.09577181250003,147.59577091250003,65.0,102.0
728,147.82747781250004,148.19790397500003,63.0,93.0
729,147.82747781250004,148.42351332500002,67.0,100.0
730,148.19333081250002,148.6750372625,58.0,46.0
731,148.55918381250004,148.75430541250003,63.0,105.0
732,148.55918381250004,148.76497612500003,67.0,102.0
733,148.92503681250003,149.43113346250001,58.0,28.0
734,147.82747781250004,149.79393768750003,51.0,105.0
735,149.65674281250003,149.82442543750003,58.0,41.0
736,149.2908898125,149.84119370000002,63.0,96.0
737,149.2908898125,149.85948635000003,70.0,93.0
738,150.02259581250001,150.16893701250004,63.0,99.0
739,150.02259581250001,150.4143634,67.0,105.0
740,150.38844881250003,150.49363155000003,63.0,99.0
741,150.75430181250002,151.29545937500004,62.0,100.0
742,150.75430181250002,151.56832473750003,58.0,72.0
743,150.75430181250002,151.66131237500002,46.0,93.0
744,151.12015481250003,151.82899500000002,53.0,71.0
745,151.48600781250002,151.89301927500003,62.0,97.0
746,151.85186081250004,151.97381181250003,58.0,99.0
747,151.48600781250002,152.08509210000003,65.0,102.0
748,152.21771381250002,152.51954253750003,57.0,94.0
749,152.21771381250002,152.81374932500003,60.0,100.0
750,152.94941981250003,152.99667582500004,57.0,73.0
751,152.58356681250004,153.06527326250003,48.0,53.0
752,152.21771381250002,153.23295588750003,41.0,94.0
753,152.94941981250003,153.33813862500003,60.0,111.0
754,153.31527281250004,153.52716267500003,57.0,105.0
755,152.94941981250003,153.64911367500002,65.0,94.0
756,153.68112581250003,154.18722246250002,58.0,63.0
757,153.68112581250003,154.18722246250002,62.0,82.0
758,153.68112581250003,154.30307591250002,55.0,76.0
759,154.04697881250002,154.51649016250002,50.0,48.0
760,153.68112581250003,154.60033147500002,43.0,105.0
761,154.41283181250003,154.85033102500003,58.0,99.0
762,154.41283181250003,154.97990396250003,62.0,105.0
763,154.77868481250002,155.38386665000002,55.0,82.0
764,155.14453781250003,155.72075628750002,67.0,102.0
765,155.14453781250003,155.76039036250003,62.0,97.0
766,155.14453781250003,155.77258546250002,58.0,77.0
767,155.87624381250004,155.93264615000004,55.0,78.0
768,155.51039081250002,156.20703590000002,50.0,57.0
769,155.87624381250004,156.24666997500003,62.0,102.0
770,155.87624381250004,156.28020650000002,58.0,105.0
771,156.24209681250002,156.45703545000003,55.0,111.0
772,156.60794981250004,157.42807028750002,53.0,94.0
773,156.60794981250004,157.86252072500002,57.0,94.0
774,157.33965581250004,157.90825235000003,60.0,87.0
775,156.97380281250003,158.27562973750003,48.0,55.0
776,157.70550881250003,158.42959287500003,53.0,94.0
777,158.07136181250002,158.58355601250003,57.0,117.0
778,158.07136181250002,158.59575111250004,65.0,92.0
779,158.07136181250002,158.62776325000002,60.0,108.0
780,156.60794981250004,158.81983607500004,41.0,94.0
781,158.43721481250003,158.84117750000001,48.0,82.0
782,158.80306781250002,159.15367693750002,57.0,111.0
783,158.80306781250002,159.16892081250003,60.0,102.0
784,158.80306781250002,159.28172548750004,65.0,94.0
785,159.16892081250003,159.29696936250002,53.0,102.0
786,159.53477381250002,160.08507770000003,63.0,65.0
787,159.53477381250002,160.10032157500004,67.0,92.0
788,159.90062681250004,160.38538203750002,58.0,63.0
789,160.26647981250002,160.47074773750003,63.0,102.0
790,160.26647981250002,160.48446722500003,67.0,105.0
791,160.63233281250004,161.14452701250002,58.0,50.0
792,159.53477381250002,161.51342878750003,51.0,105.0
793,161.36403881250004,161.54391653750002,58.0,61.0
794,160.99818581250003,161.60336765000002,63.0,102.0
795,160.99818581250003,161.64757488750004,70.0,96.0
796,161.72989181250003,161.85794036250002,63.0,96.0
797,161.72989181250003,162.08659848750003,67.0,102.0
798,162.09574481250002,162.18568367500004,63.0,99.0
799,162.46159781250003,162.97684078750004,62.0,94.0
800,162.46159781250003,163.13537708750002,58.0,68.0
801,162.82745081250002,163.29391338750003,53.0,66.0
802,163.19330381250003,163.52866906250003,58.0,38.0
803,162.46159781250003,163.68872975000002,46.0,85.0
804,163.55915681250002,163.70244923750002,53.0,67.0
805,163.19330381250003,163.82440023750002,62.0,105.0
806,163.74208331250003,163.98446092500004,58.0,99.0
807,163.19330381250003,164.03781448750001,65.0,105.0
808,164.10793631250002,164.74513028750002,48.0,62.0
809,164.29086281250002,164.76037416250003,53.0,102.0
810,163.92500981250004,165.09878818750002,41.0,105.0
811,164.65671581250004,165.21311725000004,57.0,117.0
812,164.65671581250004,165.28781223750002,60.0,108.0
813,165.02256881250003,165.30762927500004,48.0,84.0
814,165.38842181250004,165.83964051250004,62.0,84.0
815,165.38842181250004,165.87012826250003,55.0,73.0
816,165.75427481250003,166.21768861250004,50.0,67.0
817,166.12012781250002,166.56982212500003,58.0,109.0
818,166.12012781250002,166.62165130000002,55.0,100.0
819,166.48598081250003,167.03018715000002,50.0,58.0
820,166.85183381250002,167.45701565000002,58.0,93.0
821,166.85183381250002,167.49512533750004,62.0,94.0
822,167.21768681250003,167.66890551250003,50.0,50.0
823,165.38842181250004,167.69329571250003,43.0,100.0
824,167.58353981250002,167.80762477500002,58.0,102.0
825,167.58353981250002,167.84725885000003,62.0,108.0
826,167.58353981250002,167.92805138750003,67.0,100.0
827,167.94939281250004,168.03018535000004,43.0,94.0
828,168.31524581250002,168.84268388750002,60.0,71.0
829,168.31524581250002,168.90823255000004,65.0,92.0
830,168.68109881250004,169.20243933750004,57.0,71.0
831,169.04695181250003,169.50731683750004,65.0,105.0
832,169.04695181250003,169.51951193750003,62.0,100.0
833,169.41280481250004,169.91890146250003,57.0,80.0
834,169.77865781250003,170.21615702500003,69.0,102.0
835,169.77865781250003,170.23597406250002,65.0,102.0
836,169.77865781250003,170.28780323750004,62.0,94.0
837,170.14451081250002,170.66890011250004,57.0,58.0
838,170.51036381250003,170.67652205000002,65.0,102.0
839,168.31524581250002,170.68566837500003,50.0,102.0
840,170.51036381250003,170.82133886250003,62.0,100.0
841,171.24206981250003,171.66432515000002,67.0,89.0
842,171.24206981250003,171.72072748750003,63.0,90.0
843,171.97377581250004,172.09420242500002,67.0,94.0
844,171.97377581250004,172.09572681250003,63.0,102.0
845,171.60792281250002,172.10487313750002,58.0,59.0
846,171.24206981250003,172.59725030000004,51.0,99.0
847,172.33962881250002,172.76798170000004,58.0,33.0
848,172.70548181250004,173.24663937500003,70.0,74.0
849,172.70548181250004,173.31371242500003,63.0,93.0
850,173.07133481250003,173.50273647500003,58.0,45.0
851,172.70548181250004,173.58810217500002,51.0,90.0
852,173.43718781250004,173.66127277500004,63.0,102.0
853,173.62011431250002,173.73749215000004,58.0,87.0
854,173.43718781250004,173.75730918750003,67.0,105.0
855,173.80304081250003,173.98291853750004,63.0,105.0
856,174.16889381250002,174.65669781250003,62.0,102.0
857,174.16889381250002,174.97377041250002,58.0,102.0
858,174.16889381250002,175.05456295000002,46.0,102.0
859,174.53474681250003,175.25578210000003,53.0,87.0
860,174.90059981250002,175.37620871250002,62.0,111.0
861,174.90059981250002,175.43565982500004,65.0,105.0
862,175.26645281250003,175.57437908750003,58.0,74.0
863,175.63230581250002,176.20699990000003,62.0,94.0
864,175.63230581250002,176.25425591250004,58.0,68.0
865,176.18108531250002,176.31828018750002,46.0,1.0
866,175.99815881250004,176.61248697500002,53.0,44.0
867,176.36401181250002,176.63077962500003,58.0,96.0
868,176.36401181250002,176.71766971250003,62.0,105.0
869,176.36401181250002,176.76187695000004,65.0,108.0
870,176.54693831250003,176.80608418750003,46.0,96.0
871,176.72986481250004,177.03474231250004,53.0,102.0
872,177.09571781250003,177.54693651250003,62.0,84.0
873,177.09571781250003,177.57742426250002,55.0,73.0
874,177.46157081250004,177.92498461250003,50.0,67.0
875,177.82742381250003,178.27711812500004,58.0,109.0
876,177.82742381250003,178.32894730000004,55.0,100.0
877,178.19327681250005,178.73748315000003,50.0,58.0
878,178.55912981250003,179.16431165000003,58.0,93.0
879,178.55912981250003,179.20242133750003,62.0,94.0
880,178.92498281250002,179.37620151250002,50.0,50.0
881,177.09571781250003,179.40059171250005,43.0,100.0
882,179.29083581250003,179.51492077500004,58.0,102.0
883,179.29083581250003,179.55455485000005,62.0,108.0
884,179.29083581250003,179.63534738750002,67.0,100.0
885,179.65668881250002,179.73748135000002,43.0,94.0
886,180.02254181250004,180.54997988750003,60.0,71.0
887,180.02254181250004,180.61552855000002,65.0,92.0
888,180.38839481250002,180.90973533750002,57.0,71.0
889,180.75424781250004,181.21461283750003,65.0,105.0
890,180.75424781250004,181.22680793750004,62.0,100.0
891,181.12010081250003,181.62619746250004,57.0,80.0
892,181.48595381250004,181.92345302500004,69.0,102.0
893,181.48595381250004,181.94327006250003,65.0,102.0
894,181.48595381250004,181.99509923750003,62.0,94.0
895,181.85180681250003,182.37619611250003,57.0,58.0
896,182.21765981250005,182.38381805000003,65.0,102.0
897,180.02254181250004,182.39296437500002,50.0,102.0
898,182.21765981250005,182.52863486250004,62.0,100.0
899,182.94936581250002,183.47375511250004,67.0,89.0
900,182.94936581250002,183.48442582500005,63.0,99.0
901,182.94936581250002,183.63534018750002,51.0,99.0
902,183.31521881250004,183.63838896250004,58.0,55.0
903,183.68107181250002,183.98899808750002,63.0,112.0
904,183.68107181250002,184.03472971250002,67.0,102.0
905,184.41277781250002,184.44936311250004,64.0,69.0
906,184.41277781250002,184.91582568750005,65.0,73.0
907,184.41277781250002,184.95088660000002,60.0,71.0
908,184.41277781250002,185.33808102500004,41.0,97.0
909,185.14448381250003,185.35027612500002,60.0,102.0
910,184.77863081250004,185.40210530000004,48.0,57.0
911,185.51033681250004,185.67801943750004,60.0,80.0
912,185.14448381250003,185.69783647500003,65.0,105.0
913,185.14448381250003,185.74509248750005,69.0,102.0
914,185.87618981250003,186.24204281250005,67.0,80.0
915,185.87618981250003,186.30759147500004,62.0,80.0
916,186.24204281250005,186.69935906250004,50.0,60.0
917,186.60789581250003,187.10484613750003,62.0,100.0
918,186.60789581250003,187.25728488750002,70.0,93.0
919,186.97374881250002,187.55758922500004,50.0,60.0
920,187.33960181250004,187.85789356250004,67.0,94.0
921,187.33960181250004,187.87466182500003,62.0,73.0
922,187.70545481250002,188.20850268750004,50.0,50.0
923,188.07130781250004,188.41124622500004,62.0,82.0
924,188.07130781250004,188.72069688750003,67.0,97.0
925,185.87618981250003,188.78319677500002,43.0,102.0
926,188.07130781250004,188.79234310000004,70.0,85.0
927,188.43716081250003,188.81673330000004,50.0,67.0
928,188.80301381250004,189.25423251250004,62.0,84.0
929,188.80301381250004,189.28472026250003,55.0,73.0
930,189.16886681250003,189.63228061250004,50.0,67.0
931,189.53471981250004,189.98441412500003,58.0,109.0
932,189.53471981250004,190.03624330000002,55.0,100.0
933,189.90057281250003,190.44477915000004,50.0,58.0
934,190.26642581250005,190.87160765000004,58.0,93.0
935,190.26642581250005,190.90971733750004,62.0,94.0
936,190.63227881250003,191.08349751250003,50.0,50.0
937,188.80301381250004,191.10788771250003,43.0,100.0
938,190.99813181250002,191.22221677500002,58.0,102.0
939,190.99813181250002,191.26185085000003,62.0,108.0
940,190.99813181250002,191.34264338750003,67.0,100.0
941,191.36398481250004,191.44477735000004,43.0,94.0
942,191.72983781250002,192.25727588750004,60.0,71.0
943,191.72983781250002,192.32282455000004,65.0,92.0
944,192.09569081250004,192.61703133750004,57.0,71.0
945,192.46154381250003,192.92190883750004,65.0,105.0
946,192.46154381250003,192.93410393750003,62.0,100.0
947,192.82739681250004,193.33349346250003,57.0,80.0
948,193.19324981250003,193.63074902500003,69.0,102.0
949,193.19324981250003,193.65056606250005,65.0,102.0
950,193.19324981250003,193.70239523750004,62.0,94.0
951,193.55910281250004,194.08349211250004,57.0,58.0
952,193.92495581250003,194.09111405000004,65.0,102.0
953,191.72983781250002,194.10026037500003,50.0,102.0
954,193.92495581250003,194.23593086250003,62.0,100.0
955,194.65666181250003,195.07891715000002,67.0,89.0
956,194.65666181250003,195.13531948750003,63.0,90.0
957,195.38836781250004,195.50879442500005,67.0,94.0
958,195.38836781250004,195.51031881250003,63.0,102.0
959,195.02251481250002,195.51946513750002,58.0,59.0
960,194.65666181250003,196.01184230000004,51.0,99.0
961,195.75422081250002,196.18257370000003,58.0,33.0
962,196.12007381250004,196.66123137500003,70.0,74.0
963,196.12007381250004,196.72830442500003,63.0,93.0
964,196.48592681250003,196.91732847500003,58.0,45.0
965,196.12007381250004,197.00269417500004,51.0,90.0
966,196.85177981250004,197.07586477500004,63.0,102.0
967,197.03470631250002,197.15208415000004,58.0,87.0
968,196.85177981250004,197.17190118750003,67.0,105.0
969,197.21763281250003,197.39751053750004,63.0,105.0
970,197.58348581250004,198.07128981250003,62.0,102.0
971,197.58348581250004,198.38836241250004,58.0,102.0
972,197.58348581250004,198.46915495000005,46.0,102.0
973,197.94933881250003,198.67037410000003,53.0,87.0
974,198.31519181250005,198.79080071250004,62.0,111.0
975,198.31519181250005,198.85025182500004,65.0,105.0
976,198.68104481250003,198.98897108750003,58.0,74.0
977,199.04689781250002,199.62159190000003,62.0,94.0
978,199.04689781250002,199.66884791250004,58.0,68.0
979,199.59567731250004,199.73287218750002,46.0,1.0
980,199.41275081250004,200.02707897500002,53.0,44.0
981,199.77860381250002,200.04537162500003,58.0,96.0
982,199.77860381250002,200.13226171250002,62.0,105.0
983,199.77860381250002,200.17646895000004,65.0,108.0
984,199.96153031250003,200.22067618750003,46.0,96.0
985,200.14445681250004,200.44933431250004,53.0,102.0
986,200.51030981250003,200.96152851250002,62.0,84.0
987,200.51030981250003,200.99201626250004,55.0,73.0
988,200.87616281250004,201.33957661250003,50.0,67.0
989,201.24201581250003,201.69171012500004,58.0,109.0
990,201.24201581250003,201.74353930000004,55.0,100.0
991,201.60786881250004,202.15207515000003,50.0,58.0
992,201.97372181250003,202.57890365000003,58.0,93.0
993,201.97372181250003,202.61701333750003,62.0,94.0
994,202.33957481250005,202.79079351250004,50.0,50.0
995,200.51030981250003,202.81518371250004,43.0,100.0
996,202.70542781250003,202.92951277500003,58.0,102.0
997,202.70542781250003,202.96914685000004,62.0,108.0
998,202.70542781250003,203.04993938750005,67.0,100.0
999,203.07128081250005,203.15207335000002,43.0,94.0
1000,203.43713381250004,203.96457188750003,60.0,71.0
1001,203.43713381250004,204.03012055000005,65.0,92.0
1002,203.80298681250002,204.32432733750002,57.0,71.0
1003,204.16883981250004,204.62920483750003,65.0,105.0
1004,204.16883981250004,204.64139993750004,62.0,100.0
1005,204.53469281250003,205.04078946250004,57.0,80.0
1006,204.90054581250004,205.33804502500004,69.0,102.0
1007,204.90054581250004,205.35786206250003,65.0,102.0
1008,204.90054581250004,205.40969123750003,62.0,94.0
1009,205.26639881250003,205.79078811250002,57.0,58.0
1010,205.63225181250004,205.79841005000003,65.0,102.0
1011,203.43713381250004,205.80755637500005,50.0,102.0
1012,205.63225181250004,205.94322686250004,62.0,100.0
1013,206.36395781250005,206.88834711250004,67.0,89.0
1014,206.36395781250005,206.89901782500004,63.0,99.0
1015,206.36395781250005,207.04993218750005,51.0,99.0
1016,206.72981081250003,207.05298096250004,58.0,55.0
1017,207.09566381250005,207.40359008750005,63.0,112.0
1018,207.09566381250005,207.44932171250002,67.0,102.0
1019,207.82736981250002,207.86395511250004,64.0,69.0
1020,207.82736981250002,208.33041768750005,65.0,73.0
1021,207.82736981250002,208.36547860000005,60.0,71.0
1022,207.82736981250002,208.75267302500004,41.0,97.0
1023,208.55907581250003,208.76486812500005,60.0,102.0
1024,208.19322281250004,208.81669730000004,48.0,57.0
1025,208.92492881250004,209.09261143750004,60.0,80.0
1026,208.55907581250003,209.11242847500003,65.0,105.0
1027,208.55907581250003,209.15968448750004,69.0,102.0
1028,209.29078181250003,209.65663481250004,67.0,80.0
1029,209.29078181250003,209.72218347500004,62.0,80.0
1030,209.65663481250004,210.11395106250004,50.0,60.0
1031,210.02248781250003,210.51943813750003,62.0,100.0
1032,210.02248781250003,210.67187688750005,70.0,93.0
1033,210.38834081250005,210.97218122500004,50.0,60.0
1034,210.75419381250003,211.27248556250004,67.0,94.0
1035,210.75419381250003,211.28925382500003,62.0,73.0
1036,211.12004681250005,211.62309468750004,50.0,50.0
1037,211.48589981250004,211.82583822500004,62.0,82.0
1038,211.48589981250004,212.13528888750002,67.0,97.0
1039,209.29078181250003,212.19778877500005,43.0,102.0
1040,211.48589981250004,212.20693510000004,70.0,85.0
1041,211.85175281250002,212.23132530000004,50.0,67.0
1042,212.21760581250004,212.78620235000002,58.0,54.0
1043,212.21760581250004,212.82583642500003,55.0,67.0
1044,212.58345881250003,213.13681147500003,50.0,62.0
1045,212.94931181250004,213.30296971250004,62.0,94.0
1046,213.31516481250003,213.82431023750004,50.0,58.0
1047,213.68101781250004,214.25266312500003,58.0,54.0
1048,213.68101781250004,214.29534597500003,62.0,87.0
1049,214.04687081250003,214.52247971250003,50.0,44.0
1050,212.21760581250004,214.56668695000005,43.0,94.0
1051,214.41272381250005,214.83497915000004,58.0,41.0
1052,214.77857681250003,214.89900342500005,55.0,97.0
1053,214.41272381250005,215.05296656250005,67.0,97.0
1054,215.14442981250005,215.67644105000005,65.0,73.0
1055,215.14442981250005,215.95235518750005,62.0,58.0
1056,215.51028281250004,215.97979416250004,57.0,64.0
1057,215.87613581250002,216.30448870000004,65.0,80.0
1058,215.87613581250002,216.30448870000004,69.0,82.0
1059,216.24198881250004,216.76332933750004,57.0,51.0
1060,216.60784181250003,217.13527988750005,62.0,73.0
1061,216.60784181250003,217.14290182500002,65.0,78.0
1062,216.97369481250004,217.46759636250005,57.0,51.0
1063,217.33954781250003,217.72826662500003,65.0,100.0
1064,215.14442981250005,217.74198611250003,50.0,102.0
1065,217.70540081250005,217.88070537500005,57.0,82.0
1066,217.33954781250003,217.90966873750003,62.0,92.0
1067,218.07125381250003,218.64899667500003,67.0,80.0
1068,218.07125381250003,218.65204545000003,63.0,72.0
1069,218.43710681250005,218.90356938750003,58.0,41.0
1070,218.80295981250003,219.34869053750003,67.0,97.0
1071,218.80295981250003,219.36241002500003,63.0,90.0
1072,219.16881281250005,219.69320211250005,58.0,52.0
1073,219.53466581250004,219.87003106250003,67.0,92.0
1074,219.53466581250004,219.89137248750004,63.0,57.0
1075,219.90051881250002,220.38527403750004,58.0,34.0
1076,218.07125381250003,220.44777392500004,51.0,96.0
1077,220.26637181250004,220.56210298750003,63.0,77.0
1078,220.26637181250004,220.70691980000004,70.0,87.0
1079,220.63222481250003,220.84106590000005,51.0,90.0
1080,220.99807781250004,221.56667435000003,62.0,78.0
1081,220.99807781250004,221.61697913750004,58.0,43.0
1082,220.99807781250004,221.90508837500005,46.0,52.0
1083,221.72978381250005,221.90661276250003,58.0,65.0
1084,221.36393081250003,221.95691755000004,53.0,25.0
1085,221.72978381250005,222.13679527500003,62.0,97.0
1086,222.09563681250003,222.25722188750004,58.0,99.0
1087,221.72978381250005,222.27094137500004,65.0,105.0
1088,222.46148981250005,223.03313512500003,60.0,84.0
1089,222.46148981250005,223.13831786250003,57.0,82.0
1090,222.46148981250005,223.40965883750005,41.0,89.0
1091,222.82734281250004,223.41423200000003,48.0,64.0
1092,223.19319581250005,223.49197576250003,60.0,97.0
1093,223.55904881250004,223.70539001250003,57.0,76.0
1094,223.19319581250005,223.74959725000005,65.0,94.0
1095,223.91727987500005,224.74959545000004,62.0,80.0
1096,223.89746283750003,225.50264287500005,43.0,78.0
1097,224.28923042500003,225.78617895000005,50.0,66.0
1098,225.70538641250005,228.00111398750005,43.0,44.0
1099,223.91118232500003,228.27855251250003,55.0,73.0
1100,224.66880291250004,228.28465006250005,58.0,70.0
1101,225.11544845000003,228.29074761250004,62.0,82.0
1102,225.76331313750003,228.32428413750003,67.0,78.0
