,start,end,pitch,velocity
0,0.24470898125,0.7760140666666666,68.0,86.0
1,0.77380948125,1.3481039822916667,75.0,93.0
2,1.83201048125,2.089946975,71.0,86.0
3,1.30290998125,2.185846440625,73.0,89.0
4,2.09656073125,2.185846440625,73.0,76.0
5,2.36111098125,2.787698259375,75.0,99.0
6,2.89021148125,3.1823190489583335,78.0,96.0
7,3.15476173125,3.382936321875,80.0,93.0
8,3.41931198125,3.9869927260416667,83.0,102.0
9,3.94841248125,4.60978810625,80.0,112.0
10,5.00661348125,5.539020859375,78.0,100.0
11,5.53571398125,6.319444096875,80.0,100.0
12,6.59391498125,7.561727979166666,80.0,107.0
13,7.65211598125,11.139770110416666,78.0,117.0
14,10.82671898125,11.383376798958333,73.0,89.0
15,11.35581948125,11.932318567708334,75.0,85.0
16,11.88491998125,13.450175627083333,73.0,73.0
17,14.26587223125,14.540343115625,66.0,86.0
18,14.53042248125,14.800484194791666,68.0,99.0
19,14.79497273125,15.105819275,73.0,95.0
20,15.32407323125,15.57539596875,73.0,78.0
21,15.05952298125,15.85317373125,75.0,97.0
22,15.58862348125,15.85317373125,75.0,85.0
23,15.85317373125,16.040563491666667,78.0,82.0
24,16.11772398125,17.759037823958334,78.0,107.0
25,18.49867623125,18.753305846875,66.0,81.0
26,18.76322648125,19.023367560416666,68.0,83.0
27,19.02777673125,19.293429273958335,73.0,75.0
28,19.29232698125,19.692459234375,75.0,83.0
29,19.55687723125,19.8280412375,73.0,82.0
30,19.82142748125,20.07054563333333,75.0,88.0
31,20.08597773125,20.40564261666667,66.0,70.0
32,20.35052798125,21.550924740625,68.0,57.0
33,26.96428423125,27.185845065625,80.0,99.0
34,27.22883448125,27.443781559375,78.0,97.0
35,27.49338473125,27.782185420833333,70.0,90.0
36,27.75793498125,28.011462304166667,68.0,90.0
37,28.02248523125,28.357582214583335,68.0,82.0
38,28.28703548125,28.543869682291668,70.0,81.0
39,28.55158573125,28.861329982291668,66.0,67.0
40,28.81613598125,30.343913675,71.0,73.0
41,31.8650776125,31.940033516666666,85.0,83.0
42,31.936726638541668,32.051365080208335,87.0,55.0
43,32.03593298229167,32.10537742291667,85.0,60.0
44,32.13844620416667,32.20237918125,87.0,38.0
45,32.17702644895834,32.23765254791667,85.0,63.0
46,32.23985713333333,32.33355201354167,87.0,51.0
47,32.3148130375,32.378746014583335,85.0,63.0
48,32.399689576041666,32.46472484583333,87.0,48.0
49,32.4470881625,32.51983948125,85.0,62.0
50,32.54849909166666,32.623454995833335,87.0,53.0
51,32.595897678125,32.664239826041666,85.0,72.0
52,32.68077421666667,32.76344616979166,87.0,52.0
53,32.743604901041664,32.80533329270833,85.0,66.0
54,32.82186768333333,32.899028172916665,87.0,58.0
55,32.891312123958336,32.95744968645833,85.0,86.0
56,35.16534198125,36.361329569791664,80.0,97.0
57,36.48809323125,36.781303091666665,75.0,85.0
58,36.75264348125,37.00286392604167,78.0,89.0
59,37.01719373125,37.28946003020833,80.0,95.0
60,37.28174398125,38.93297845833333,83.0,86.0
61,38.86904548125,38.93297845833333,83.0,88.0
62,39.39814598125,40.93694660208333,85.0,97.0
63,40.98544748125,41.18937163229167,83.0,89.0
64,41.24999773125,41.483683785416666,85.0,76.0
65,41.51454798125,41.828701403125,87.0,107.0
66,42.57274898125,43.658507298958334,80.0,107.0
67,43.63094998125,45.40343665625,78.0,107.0
68,45.74735198125,47.5793624625,75.0,117.0
69,47.86375398125,49.727730951041664,68.0,99.0
70,49.98015598125,50.914900197916666,75.0,127.0
71,51.03835698125,51.926804904166666,75.0,107.0
72,52.09655798125,53.962739536458336,70.0,96.0
73,54.21295998125,54.72111691979167,75.0,102.0
74,54.74206048125,55.041884097916665,75.0,97.0
75,55.27116098125,55.572086890625,73.0,92.0
76,55.758374358333334,56.041663584375,73.0,99.0
77,56.054891096875004,56.363533055208336,75.0,68.0
78,57.12301273125,57.35559649270834,71.0,95.0
79,56.32936198125,57.5661344,73.0,96.0
80,57.38756298125,58.344353052083335,68.0,89.0
81,58.44576398125,59.0343882875,73.0,100.0
82,59.23941473125,59.454361809375,71.0,93.0
83,59.50396498125,59.938268308333335,73.0,112.0
84,60.03306548125,60.430993148958336,75.0,107.0
85,60.56216598125,62.6454992,78.0,127.0
86,62.67856798125,63.59347092916666,75.0,117.0
87,63.73676898125,64.61198939166667,75.0,112.0
88,64.79496998125,66.610446071875,68.0,102.0
89,66.91137198125,68.058858690625,75.0,122.0
90,67.96957298125,69.16776515520833,68.0,102.0
91,69.02777398125,71.154096615625,70.0,107.0
92,71.14417598125,71.71295901875,75.0,112.0
93,71.93782673125,72.2089907375,75.0,102.0
94,72.20237698125,72.98280021875,73.0,112.0
95,73.26057798125,74.24161849166667,73.0,127.0
96,74.31877898125,75.27887593020833,68.0,100.0
97,75.37697998125,75.79254433229167,68.0,112.0
98,75.90608048125,76.04386706979167,68.0,102.0
99,76.17063073125,76.36353195520833,68.0,95.0
100,76.43518098125,77.010577775,71.0,122.0
101,76.96428148125,77.6322708625,68.0,107.0
102,77.49338198125,81.53100956666665,66.0,117.0
103,81.64954396249999,81.90924204791666,78.0,112.0
104,81.9081644625,82.20881079374999,80.0,86.0
105,82.16678496249999,82.48036231875,78.0,89.0
106,82.68402596249999,83.09243083541666,73.0,100.0
107,83.2012669625,83.51376673333333,75.0,96.0
108,83.7185079625,83.94049055833332,73.0,107.0
109,83.97712846249999,84.20449898541666,71.0,90.0
110,84.2357489625,85.20126549583333,68.0,100.0
111,85.2702309625,85.46958426458333,68.0,96.0
112,85.5288514625,85.75191164374999,71.0,82.0
113,85.78747196249999,86.18402339583332,80.0,117.0
114,85.78747196249999,86.28639401041666,63.0,93.0
115,86.30471296249999,86.63014375833333,78.0,112.0
116,86.30471296249999,86.74544539791665,61.0,88.0
117,85.78747196249999,86.76591952083332,73.0,122.0
118,86.82195396249999,87.28423810625,78.0,117.0
119,87.33919496249999,87.57626375416666,76.0,92.0
120,86.82195396249999,87.77561705625,61.0,88.0
121,87.5978154625,87.83919459583333,75.0,97.0
122,87.8564359625,88.08380648541666,68.0,117.0
123,88.1150564625,88.38445281666667,66.0,69.0
124,88.3736769625,88.66462502499999,64.0,82.0
125,88.63229746249999,88.93509896458333,66.0,95.0
126,88.8909179625,89.15923673124999,68.0,122.0
127,89.14953846249999,89.42001240208333,66.0,112.0
128,89.4081589625,89.60966743541667,68.0,107.0
129,87.8564359625,89.68186565833332,76.0,100.0
130,89.66677946249999,89.92647754791666,63.0,112.0
131,90.4426409625,90.94982454062499,66.0,102.0
132,90.4426409625,91.00355258124999,68.0,99.0
133,90.96407891874999,91.00355258124999,68.0,100.0
134,90.96407891874999,91.43228041562499,71.0,92.0
135,89.9253999625,91.49806985312499,61.0,112.0
136,91.49039441874999,91.95420995312499,75.0,95.0
137,92.01670991874998,92.51232368124998,73.0,117.0
138,92.54302541874999,92.81276211249998,71.0,107.0
139,92.80618316874998,93.07263039062498,73.0,100.0
140,92.01670991874998,93.33030568749999,76.0,97.0
141,93.59565641874998,93.81056858124998,78.0,117.0
142,93.06934091874999,93.92460360624999,75.0,127.0
143,93.85881416874999,94.08030527499999,80.0,95.0
144,94.64828741874999,95.07262929062499,80.0,117.0
145,94.12197191874999,95.07920823437499,83.0,100.0
146,94.64828741874999,95.10442751874999,76.0,99.0
147,95.17460291874998,95.56933954374999,76.0,100.0
148,95.17460291874998,95.61758513124998,80.0,127.0
149,95.70091841874999,96.08907609999999,76.0,93.0
150,95.70091841874999,96.29083037499998,78.0,122.0
151,96.22723391874999,96.91034757812498,80.0,122.0
152,96.22723391874999,97.15809583437499,76.0,112.0
153,97.28421195624999,98.26747127812499,80.0,127.0
154,97.28421195624999,98.28867664375,68.0,117.0
155,97.28421195624999,98.30653379374999,56.0,107.0
156,98.35564095624999,100.46613287187499,78.0,127.0
157,98.35564095624999,101.97841026249999,66.0,112.0
158,101.56992795624998,102.11345495937499,73.0,95.0
159,98.35564095624999,102.37796399374999,61.0,117.0
160,102.10564245625,102.75519628749998,75.0,95.0
161,102.64135695625,104.21611951874999,73.0,73.0
162,105.03109770624998,105.30532685312498,66.0,86.0
163,105.29541495624999,105.56523881562498,68.0,99.0
164,105.55973220624999,105.87030497499998,73.0,95.0
165,106.08836670624999,106.33946809374999,73.0,78.0
166,105.82404945624998,106.61700120624998,75.0,97.0
167,106.35268395624999,106.61700120624998,75.0,85.0
168,106.61700120624998,106.80422592499998,78.0,82.0
169,106.88131845624999,108.52118672812499,78.0,107.0
170,109.26017370624999,109.51457905937498,66.0,81.0
171,109.52449095624999,109.78440291874999,68.0,83.0
172,109.78880820624998,110.05422677812498,73.0,75.0
173,110.05312545624999,110.45290529687499,75.0,83.0
174,110.31744270624999,110.58836788749998,73.0,82.0
175,110.58175995624998,110.83065869999999,75.0,88.0
176,110.84607720624999,111.16546054999999,66.0,70.0
177,111.11039445624999,112.30973397812498,68.0,57.0
178,117.71832570624998,117.93969140312498,80.0,99.0
179,117.98264295624999,118.19740072187498,78.0,97.0
180,118.24696020624998,118.53550653749998,70.0,90.0
181,118.51127745624999,118.76458148749998,68.0,90.0
182,118.77559470624999,119.11039655624998,68.0,82.0
183,119.03991195624998,119.29651995312499,70.0,81.0
184,119.30422920624999,119.613700653125,66.0,67.0
185,119.56854645624999,121.09497857499998,71.0,73.0
186,122.61480276249998,122.68969264999998,85.0,83.0
187,122.68638868437499,122.80092615937498,87.0,55.0
188,122.78550765312498,122.85489093124998,85.0,60.0
189,122.88793058749998,122.95180725624999,87.0,38.0
190,122.92647685312498,122.98704955624999,85.0,63.0
191,122.98925219999998,123.08286455937498,87.0,51.0
192,123.06414208749999,123.12801875624999,85.0,63.0
193,123.14894387187499,123.21392186249999,87.0,48.0
194,123.19630071249998,123.26898795624999,85.0,62.0
195,123.29762232499999,123.37251221249998,87.0,53.0
196,123.34497916562498,123.41326112187498,85.0,72.0
197,123.42978094999998,123.51238009062499,87.0,52.0
198,123.49255629687498,123.55423032187498,85.0,66.0
199,123.57075014999998,123.64784268124998,87.0,58.0
200,123.64013342812498,123.70621274062498,85.0,86.0
201,125.91216045624998,127.10709469062499,80.0,97.0
202,127.23374670624999,127.52669832499998,75.0,85.0
203,127.49806395624998,127.74806402187498,78.0,89.0
204,127.76238120624998,128.034407709375,80.0,95.0
205,128.02669845625,129.67574158333332,83.0,86.0
206,129.61192116249998,129.67574158333332,83.0,88.0
207,130.1400901625,131.67618167083333,85.0,97.0
208,131.7245971625,131.92816229791666,83.0,89.0
209,131.9886816625,132.22195630416667,85.0,76.0
210,132.2527661625,132.56636650625,87.0,107.0
211,133.3091041625,134.39295096458332,80.0,107.0
212,134.3654421625,136.13480831249998,78.0,107.0
213,136.4781181625,138.306903325,75.0,117.0
214,138.5907941625,140.45148953541667,68.0,99.0
215,140.7034701625,141.63656872916667,75.0,127.0
216,141.7598081625,142.64669194166666,75.0,107.0
217,142.8161461625,144.682755796875,70.0,96.0
218,144.93341841875,145.442473346875,75.0,102.0
219,145.46345391875002,145.76380736875,75.0,97.0
220,145.99348941875002,146.29494710937502,73.0,92.0
221,146.481563775,146.765353615625,73.0,99.0
222,146.778604503125,147.08779187812502,75.0,68.0
223,147.84861366875,148.08160844062502,71.0,95.0
224,147.05356041875,148.2925184,73.0,96.0
225,148.11363141875,149.07211228125,68.0,89.0
226,149.17370241875,149.7633669125,73.0,100.0
227,149.96875566875,150.184082590625,71.0,93.0
228,150.23377341875002,150.66884422500002,73.0,112.0
229,150.76380891875002,151.162439784375,75.0,107.0
230,151.29384441875,153.3808592,78.0,127.0
231,153.41398641875,154.3305061375,75.0,117.0
232,154.47405741875,155.350824475,75.0,112.0
233,155.53412841875002,157.352812728125,68.0,102.0
234,157.65427041875,158.803784909375,75.0,122.0
235,158.71434141875,159.914650978125,68.0,102.0
236,159.77441241875,161.904492584375,70.0,107.0
237,161.89455441875,162.46434258125,75.0,112.0
238,162.68960766875,162.9612508625,75.0,102.0
239,162.95462541875,163.73642778125,73.0,112.0
240,164.01469641875002,164.997470575,73.0,127.0
241,165.07476741875,166.038134559375,68.0,100.0
242,166.13746495625,166.558224053125,68.0,112.0
243,166.67317945625,166.812688440625,68.0,102.0
244,166.94103670625,167.136349284375,68.0,95.0
245,167.20889395625002,167.791483475,71.0,122.0
246,167.74460845625,168.42094801250002,68.0,107.0
247,168.28032295625002,170.45291300000002,66.0,117.0
248,170.45291300000002,172.39753698750002,75.0,117.0
249,172.68293524375,174.55351063645836,68.0,99.0
250,174.80682924375,175.74488242708335,75.0,127.0
251,175.86877624375,176.76036924583335,75.0,107.0
252,176.93072324375,178.79793123958333,70.0,96.0
253,179.0477111625,179.55497347291666,75.0,102.0
254,179.5758801625,179.87517592916666,75.0,97.0
255,180.1040491625,180.40444528125,73.0,92.0
256,180.59040478333333,180.87319526875,73.0,99.0
257,180.88639949375,181.19449807708332,75.0,68.0
258,181.95264066250002,182.18481495208334,71.0,95.0
259,181.1603871625,182.39498220000002,73.0,96.0
260,182.2167251625,183.17183077083334,68.0,89.0
261,183.2730631625,183.86065117500002,73.0,100.0
262,184.0653166625,184.27988531875,71.0,93.0
263,184.3294011625,184.76293988333333,73.0,112.0
264,184.8575701625,185.25479726458335,75.0,107.0
265,185.38573916250002,187.4654046,78.0,127.0
266,187.4984151625,188.41170739166668,75.0,117.0
267,188.5547531625,189.42843271666666,75.0,112.0
268,189.6110911625,191.42337104375,68.0,102.0
269,191.7237671625,192.86923368125,75.0,122.0
270,192.7801051625,193.97618787708333,68.0,102.0
271,193.83644316250002,195.97774460312502,70.0,107.0
272,195.96769995625002,196.54359304375,75.0,112.0
273,196.77127170625002,197.0458253875,75.0,102.0
274,197.03912895625,197.82930784375,73.0,112.0
275,198.11055795625,199.10386192500002,73.0,127.0
276,199.18198695625,200.154085559375,68.0,100.0
277,200.25341595625,200.674175053125,68.0,112.0
278,200.78913045625,200.928639440625,68.0,102.0
279,201.05698770625,201.252300284375,68.0,95.0
280,201.32484495625002,201.907434475,71.0,122.0
281,201.86055945625,202.53689901250002,68.0,107.0
282,202.39627395625,204.53607298125002,66.0,117.0
283,204.53607298125002,205.08721933541668,75.0,122.0
284,205.32972373125003,205.60970607916667,75.0,102.0
285,205.59427398125,205.98669018541668,73.0,117.0
286,206.12337448125,206.38131097500002,73.0,127.0
287,206.38792473125002,206.61058785833336,75.0,112.0
288,206.65247498125,207.38549963229167,73.0,127.0
289,207.44612573125002,207.68091407812503,71.0,86.0
290,207.71067598125,208.25079940833334,68.0,112.0
291,208.76887698125,209.09074645208335,73.0,127.0
292,209.29797748125003,209.98029666770836,73.0,127.0
293,210.35617848125003,210.7948909791667,71.0,122.0
294,210.88527898125002,211.8762401260417,73.0,127.0
295,211.94347998125002,217.23448498125,80.0,127.0
296,217.23448498125,222.82751818333335,78.0,127.0
