,start,end,pitch,velocity
0,11.88491998125,12.210096330208334,73.0,127.0
1,12.41402048125,12.708332634375,73.0,127.0
2,12.94312098125,13.149249717708333,75.0,107.0
3,13.47222148125,13.700396071875,73.0,102.0
4,13.73677173125,14.02777700625,71.0,71.0
5,14.00132198125,15.72089860625,73.0,107.0
6,16.11772398125,16.6269832125,78.0,107.0
7,16.64682448125,16.91137473125,73.0,102.0
8,16.91137473125,17.194663957291667,75.0,99.0
9,17.17592498125,17.590387039583334,71.0,78.0
10,17.70502548125,17.925484022916667,71.0,95.0
11,17.96957573125,18.225307639583335,68.0,92.0
12,18.23412598125,19.091709708333333,73.0,92.0
13,20.35052798125,20.858684919791667,68.0,102.0
14,21.14417873125,21.255510294791666,68.0,86.0
15,21.40872898125,21.794531429166668,68.0,100.0
16,21.93782948125,22.322529636458334,71.0,89.0
17,22.46692998125,23.025792384375,73.0,122.0
18,22.99603048125,23.345457269791666,75.0,117.0
19,23.52513098125,23.947309088541665,73.0,96.0
20,24.05423148125,24.34523675625,71.0,99.0
21,24.58333198125,24.959213794791665,68.0,107.0
22,25.11243248125,25.477291367708332,68.0,117.0
23,25.64153298125,26.040562941666668,71.0,107.0
24,26.17063348125,26.43518373125,68.0,102.0
25,26.43518373125,26.571868027083333,66.0,85.0
26,26.69973398125,28.718031930208333,66.0,122.0
27,28.81613598125,29.183199453125,71.0,85.0
28,29.34523648125,29.452158873958332,71.0,78.0
29,29.60978673125,29.716709123958335,71.0,72.0
30,29.87433698125,30.316356357291667,71.0,88.0
31,30.40343748125,30.672396902083335,68.0,102.0
32,30.66798773125,30.907185248958335,66.0,88.0
33,30.93253798125,32.377643721875,73.0,99.0
34,33.04893998125,33.430333258333334,75.0,112.0
35,33.57804048125,33.84699990208333,73.0,122.0
36,33.84259073125,34.150130396875,75.0,93.0
37,34.10714098125,34.36728206041667,73.0,122.0
38,34.63624148125,34.890871096875,71.0,96.0
39,34.90079173125,35.189592420833335,73.0,96.0
40,35.16534198125,36.58509498958333,68.0,97.0
41,37.28174398125,37.805333017708335,71.0,92.0
42,38.07539473125,38.28593263854167,71.0,73.0
43,38.33994498125,38.74117952708333,68.0,97.0
44,38.86904548125,39.244927294791665,71.0,86.0
45,39.39814598125,40.031964288541666,73.0,122.0
46,39.92724648125,40.031964288541666,73.0,127.0
47,40.19179673125,40.4232782,75.0,92.0
48,40.45634698125,40.92371908958334,73.0,112.0
49,40.98544748125,41.41754622291667,71.0,97.0
50,41.51454798125,41.83751974479166,68.0,112.0
51,42.04364848125,42.35339273229167,68.0,112.0
52,42.57274898125,43.016972942708335,71.0,107.0
53,43.10184948125,43.3994685125,68.0,117.0
54,43.36639973125,43.496470270833335,66.0,82.0
55,43.63094998125,45.253524847916665,66.0,107.0
56,45.74735198125,46.19598511354167,78.0,127.0
57,46.27645248125,46.703039759375,80.0,122.0
58,46.80555298125,47.132933915625,78.0,127.0
59,47.33465348125,47.58818080416667,75.0,127.0
60,47.59920373125,47.728171978125,73.0,122.0
61,47.86375398125,49.57120538645833,73.0,127.0
62,49.98015598125,50.426584528125,80.0,127.0
63,50.50925648125,50.88844517291667,78.0,127.0
64,51.03835698125,51.456125917708334,78.0,127.0
65,51.56745748125,51.822087096875,75.0,127.0
66,51.83200773125,51.994044759375,73.0,72.0
67,52.09655798125,54.12918573541667,73.0,122.0
68,54.21295998125,54.68915043125,75.0,122.0
69,55.00661073125,55.30533205520833,75.0,107.0
70,55.27116098125,55.61507630625,73.0,122.0
71,55.80026148125,56.05158421875,73.0,127.0
72,56.06481173125,56.328259688541664,75.0,100.0
73,56.32936198125,57.324732296875,73.0,127.0
74,57.12301273125,57.38756298125,71.0,93.0
75,57.38756298125,57.74580811145833,68.0,112.0
76,57.91666348125,58.111769290625,68.0,107.0
77,58.18121373125,58.375217247916666,71.0,82.0
78,58.44576398125,58.99360345729167,73.0,117.0
79,59.23941473125,59.52490854270833,71.0,95.0
80,59.50396498125,59.930552259375,73.0,117.0
81,60.03306548125,60.41445875833333,78.0,127.0
82,60.56216598125,62.42724524375,78.0,127.0
83,62.67856798125,63.065472721875,78.0,127.0
84,63.20766848125,63.64307410104167,80.0,122.0
85,63.73676898125,64.05863845208333,78.0,122.0
86,64.26586948125,64.546954121875,75.0,99.0
87,64.53041973125,64.699070515625,73.0,90.0
88,64.79496998125,66.378964603125,73.0,127.0
89,66.91137198125,67.33024321041667,80.0,127.0
90,67.44047248125,67.81855888020833,78.0,122.0
91,67.96957298125,68.3201020625,78.0,127.0
92,68.49867348125,68.89329427083334,75.0,122.0
93,68.76322373125,68.98809144375,73.0,102.0
94,69.02777398125,69.85339121979166,73.0,127.0
95,71.14417598125,71.75374384895834,75.0,122.0
96,71.93782673125,72.20678615208334,75.0,122.0
97,72.20237698125,72.53306479375,73.0,117.0
98,72.73147748125,72.98059563333334,73.0,122.0
99,72.99602773125,73.21317939479167,75.0,97.0
100,73.26057798125,73.83487248229167,71.0,117.0
101,73.52512823125,74.05533102395833,73.0,100.0
102,74.05422873125,74.29011937083334,71.0,95.0
103,74.31877898125,74.871027628125,68.0,117.0
104,75.37697998125,75.73522511145833,68.0,117.0
105,75.90608048125,76.02512809375,68.0,117.0
106,76.17063073125,76.31613336875,68.0,112.0
107,76.43518098125,77.010577775,71.0,117.0
108,77.22883173125,77.486768225,68.0,99.0
109,77.49338198125,78.40062393125,66.0,112.0
110,102.64135695625,102.97059815937499,73.0,127.0
111,103.17707145624999,103.47492989687498,73.0,127.0
112,103.44492870624998,103.47492989687498,73.0,99.0
113,103.70951145624998,103.91545864687498,75.0,107.0
114,104.23814595624998,104.46611958437498,73.0,102.0
115,104.50246320624998,104.79321218124998,71.0,71.0
116,104.76678045624999,106.48484258124999,73.0,107.0
117,106.88131845624999,107.39012916249999,78.0,107.0
118,107.40995295624998,107.67427020624999,73.0,102.0
119,107.67427020624999,107.95730992812499,75.0,99.0
120,107.93858745624999,108.35268448124998,71.0,78.0
121,108.46722195624999,108.68748633124999,71.0,95.0
122,108.73153920624999,108.98704588124998,68.0,92.0
123,108.99585645624998,110.49035024062499,73.0,92.0
124,111.11039445624999,111.61810384062498,68.0,102.0
125,111.90334620624998,112.01457971562499,68.0,86.0
126,112.16766345624998,112.55312611249998,68.0,100.0
127,112.69629795624999,113.080659290625,71.0,89.0
128,113.22493245624999,113.78330264687499,73.0,122.0
129,113.75356695624998,114.10268599062499,75.0,117.0
130,114.28220145625,114.70400773437498,73.0,96.0
131,114.81083595624999,115.10158493124999,71.0,99.0
132,115.33947045624998,115.71502121562499,68.0,107.0
133,115.86810495624998,116.23264249687499,68.0,117.0
134,116.39673945624999,116.79541797499999,71.0,107.0
135,116.92537395624998,117.18969120624999,68.0,102.0
136,117.18969120624999,117.32625511874998,66.0,85.0
137,117.45400845624998,119.47052880937498,66.0,122.0
138,119.56854645624999,119.93528664062498,71.0,85.0
139,120.09718095624999,120.20400917812498,71.0,78.0
140,120.36149820624999,120.46832642812498,71.0,72.0
141,120.62581545624998,121.06744552812498,71.0,88.0
142,121.15444995624998,121.42317249374999,68.0,102.0
143,121.41876720624998,121.65775405312499,66.0,88.0
144,121.68308445624999,123.12691743437499,73.0,99.0
145,123.79762245624998,124.17867982499999,75.0,112.0
146,124.32625695624998,124.59497949374999,73.0,122.0
147,124.59057420624998,124.89784300937498,75.0,93.0
148,124.85489145624999,125.11480341874999,73.0,122.0
149,125.38352595624998,125.63793130937498,71.0,96.0
150,125.64784320624999,125.93638953749999,73.0,96.0
151,125.91216045624998,127.33066303124998,68.0,97.0
152,128.02669845625,128.549826346875,71.0,92.0
153,128.81965020624997,129.02983491041667,71.0,73.0
154,129.0837521625,129.48428032083334,68.0,97.0
155,129.61192116249998,129.98714122291668,71.0,86.0
156,130.1400901625,130.50650740625,73.0,122.0
157,130.6682591625,130.8993331,73.0,127.0
158,130.9323436625,131.1634176,75.0,92.0
159,131.19642816249998,131.66297744583332,73.0,112.0
160,131.7245971625,132.15593517916668,71.0,97.0
161,132.2527661625,132.57516932291665,68.0,112.0
162,132.7809351625,133.09013409791666,68.0,112.0
163,133.3091041625,133.75254605208332,71.0,107.0
164,133.8372731625,134.134368225,68.0,117.0
165,134.1013576625,134.23119920833332,66.0,82.0
166,134.3654421625,135.98516042916665,66.0,107.0
167,136.4781181625,136.92596146041666,78.0,127.0
168,137.0062871625,137.43212341875,80.0,122.0
169,137.5344561625,137.86126073124998,78.0,127.0
170,138.06262516249998,138.31570614166665,75.0,127.0
171,138.3267096625,138.45545085625,73.0,122.0
172,138.5907941625,140.29523953958332,73.0,127.0
173,140.7034701625,141.14911275625,80.0,127.0
174,141.2316391625,141.61016027916668,78.0,127.0
175,141.7598081625,142.17684160208333,78.0,127.0
176,142.2879771625,142.54215849375,75.0,127.0
177,142.5520616625,142.71381341875,73.0,72.0
178,142.8161461625,144.84949613125,73.0,122.0
179,144.93341841875,145.41045036875,75.0,122.0
180,145.72847166875002,146.027720878125,75.0,107.0
181,145.99348941875002,146.33801249375,73.0,122.0
182,146.52352491875,146.77529178125002,73.0,127.0
183,146.78854266875,147.052456178125,75.0,100.0
184,147.05356041875,148.05068970312502,73.0,127.0
185,147.84861366875,148.11363141875,71.0,93.0
186,148.11363141875,148.47250962187502,68.0,112.0
187,148.64366691875,148.839117509375,68.0,107.0
188,148.90868466875,149.10303101875002,71.0,82.0
189,149.17370241875,149.72251000937501,73.0,117.0
190,149.96875566875,150.254753990625,71.0,95.0
191,150.23377341875002,150.661114540625,73.0,117.0
192,150.76380891875002,151.145876175,78.0,127.0
193,151.29384441875,153.16221955625,78.0,127.0
194,153.41398641875,153.801574878125,78.0,127.0
195,153.94402191875,154.380196965625,80.0,122.0
196,154.47405741875,154.79649568125,78.0,122.0
197,155.00409291875002,155.28567427812501,75.0,99.0
198,155.26911066875002,155.438059484375,73.0,90.0
199,155.53412841875002,157.120922196875,73.0,127.0
200,157.65427041875,158.07388185625,80.0,127.0
201,158.18430591875,158.563060453125,78.0,122.0
202,158.71434141875,159.0654899375,78.0,127.0
203,159.24437691875,159.6396950625,75.0,122.0
204,159.50939466875002,159.73465975625,73.0,102.0
205,159.77441241875,160.601488646875,73.0,127.0
206,161.89455441875,162.505199484375,75.0,122.0
207,162.68960766875,162.95904238125001,75.0,122.0
208,162.95462541875,163.28589760625,73.0,117.0
209,163.48466091875,163.7342193,73.0,122.0
210,163.74967866875,163.967214071875,75.0,97.0
211,164.01469641875002,164.590005784375,71.0,117.0
212,164.27971416875,164.810853909375,73.0,100.0
213,164.80974966875002,165.0460571625,71.0,95.0
214,165.07476741875,165.62799197187502,68.0,117.0
215,166.13746495625,166.50018831562502,68.0,117.0
216,166.67317945625,166.79371521875,68.0,117.0
217,166.94103670625,167.08835819375003,68.0,112.0
218,167.20889395625002,167.791483475,71.0,117.0
219,168.01246570625003,168.27362652500003,68.0,99.0
220,168.28032295625002,169.201082253125,66.0,112.0
221,170.45291300000002,170.96166300000002,78.0,127.0
222,171.05291300000002,171.518112128125,80.0,122.0
223,171.62098824375002,171.949528096875,78.0,127.0
224,172.15196174375,172.40638654583333,75.0,127.0
225,172.41744849375002,172.546873284375,73.0,122.0
226,172.68293524375,174.39643097604167,73.0,127.0
227,174.80682924375,175.254838134375,80.0,127.0
228,175.33780274375002,175.71833375208334,78.0,127.0
229,175.86877624375,176.28802406979167,78.0,127.0
230,176.39974974375002,176.65528074062502,75.0,127.0
231,176.66523649375,176.827847128125,73.0,72.0
232,176.93072324375,178.96408440416667,73.0,122.0
233,179.0477111625,179.5230632625,75.0,122.0
234,179.8399646625,180.13816007708334,75.0,107.0
235,180.1040491625,180.44735901250002,73.0,122.0
236,180.6322181625,180.8830984375,73.0,127.0
237,180.8963026625,181.15928681041666,75.0,100.0
238,181.1603871625,182.15400509375002,73.0,127.0
239,181.95264066250002,182.2167251625,71.0,93.0
240,182.2167251625,182.57433958958333,68.0,112.0
241,182.7448941625,182.93965648125,68.0,107.0
242,183.0089786625,183.20264062916667,71.0,82.0
243,183.2730631625,183.81993814791667,73.0,117.0
244,184.0653166625,184.35030785208335,71.0,95.0
245,184.3294011625,184.75523741875,73.0,117.0
246,184.8575701625,185.23829198333334,78.0,127.0
247,185.38573916250002,187.2475348875,78.0,127.0
248,187.4984151625,187.88463874375,78.0,127.0
249,188.0265841625,188.46122323541667,80.0,122.0
250,188.5547531625,188.87605597083333,78.0,122.0
251,189.0829221625,189.36351194375,75.0,99.0
252,189.3470066625,189.51536053125,73.0,90.0
253,189.6110911625,191.19229710625,73.0,127.0
254,191.7237671625,192.14190095416666,80.0,127.0
255,192.25193616250002,192.62935692708334,78.0,122.0
256,192.7801051625,193.130017125,78.0,127.0
257,193.3082741625,193.70220020833335,75.0,122.0
258,193.5723586625,193.79683048750002,73.0,102.0
259,193.83644316250002,194.660779790625,73.0,127.0
260,195.96769995625002,196.584887703125,75.0,122.0
261,196.77127170625002,197.04359324375,75.0,122.0
262,197.03912895625,197.37395051875,73.0,117.0
263,197.57484345625,197.8270757,73.0,122.0
264,197.84270070625,198.062566865625,75.0,97.0
265,198.11055795625,198.69203140312501,71.0,117.0
266,198.37841520625,198.915245778125,73.0,100.0
267,198.91412970625,199.1529690875,71.0,95.0
268,199.18198695625,199.741138965625,68.0,117.0
269,200.25341595625,200.616139315625,68.0,117.0
270,200.78913045625,200.90966621875,68.0,117.0
271,201.05698770625,201.20430919375,68.0,112.0
272,201.32484495625002,201.907434475,71.0,117.0
273,202.12841670625,202.389577525,68.0,99.0
274,202.39627395625,203.317033253125,66.0,112.0
275,204.53607298125002,205.14564084895835,75.0,122.0
276,205.32972373125003,205.59868315208334,75.0,122.0
277,205.59427398125,205.92496179375001,73.0,117.0
278,206.12337448125,206.37249263333334,73.0,122.0
279,206.38792473125002,206.6050763947917,75.0,97.0
280,206.65247498125,207.09008518645834,71.0,117.0
281,206.91702523125002,207.44722802395836,73.0,100.0
282,207.44612573125002,207.68201637083334,71.0,95.0
283,207.71067598125,208.262924628125,68.0,117.0
284,208.76887698125,209.09074645208335,73.0,127.0
285,209.29797748125003,209.98029666770836,73.0,127.0
286,210.35617848125003,210.7948909791667,71.0,122.0
287,210.88527898125002,211.8762401260417,73.0,127.0
288,211.94347998125002,217.23448498125,80.0,127.0
289,217.23448498125,222.82751818333335,78.0,127.0
