,start,end,pitch,velocity
0,25.954598770833332,26.428926104166667,70.0,127.0
1,26.66608977083333,26.873607979166664,70.0,127.0
2,27.021835270833332,27.161168925,67.0,122.0
3,27.19970802083333,27.35238213125,70.0,102.0
4,27.377580770833333,27.638460804166666,67.0,107.0
5,27.73332627083333,27.90230538333333,67.0,122.0
6,27.911199020833333,28.06831995,65.0,90.0
7,28.089071770833332,28.532271372916664,63.0,112.0
8,28.80056277083333,29.224492825,60.0,117.0
9,29.33418102083333,29.537252410416666,63.0,95.0
10,29.512053770833333,29.72550107083333,60.0,100.0
11,29.86779927083333,30.01899110833333,58.0,127.0
12,30.045672020833333,30.227991589583333,55.0,90.0
13,30.223544770833332,31.418256741666664,58.0,127.0
14,31.646526770833333,32.114925012499995,60.0,107.0
15,32.18014502083333,32.26167003125,67.0,96.0
16,32.358017770833335,32.58480552708333,67.0,96.0
17,32.71376327083333,32.98501921458333,60.0,99.0
18,33.06950877083333,33.33928244166667,63.0,127.0
19,33.425254270833335,33.592751110416664,65.0,93.0
20,33.603127020833334,33.755801131249996,63.0,112.0
21,33.78099977083333,34.32647620416667,60.0,107.0
22,34.492490770833335,34.576980327083334,63.0,127.0
23,34.670363520833334,34.84823627083333,63.0,107.0
24,35.02610902083333,35.19360586041667,67.0,102.0
25,35.20398177083333,35.430769527083335,65.0,100.0
26,35.559727270833335,35.80133775625,63.0,112.0
27,35.91547277083333,37.003461091666665,65.0,117.0
28,37.33845477083333,37.83056937916666,67.0,112.0
29,38.04994577083333,38.43978354791666,67.0,112.0
30,38.58356402083333,38.74216722291666,70.0,127.0
31,38.761436770833335,39.057891354166664,67.0,100.0
32,39.11718227083333,39.441800039583335,65.0,97.0
33,39.47292777083333,39.92946782916666,63.0,112.0
34,40.18441877083333,40.41861789166666,60.0,97.0
35,40.54016427083333,40.78325702916666,60.0,96.0
36,40.71803702083333,40.92703750208333,63.0,112.0
37,40.895909770833335,41.10491025208333,65.0,93.0
38,41.07378252083333,41.31242846041666,67.0,95.0
39,41.25165527083333,41.39691801666667,65.0,117.0
40,41.42952802083333,41.58961349583333,63.0,117.0
41,41.60740077083333,42.773949556249995,60.0,107.0
42,43.030382770833334,43.264581891666666,58.0,127.0
43,43.38612827083333,43.5343555625,58.0,122.0
44,43.56400102083333,43.72112195,55.0,96.0
45,43.74187377083333,44.06649153958333,58.0,122.0
46,44.27549202083333,44.40444976458333,60.0,95.0
47,44.45336477083333,44.674223435416664,63.0,112.0
48,44.80911027083333,44.97216029166666,65.0,102.0
49,44.98698302083333,45.13965713125,63.0,112.0
50,45.164855770833334,45.787410395833334,60.0,117.0
51,45.87634677083333,46.070524522916664,70.0,127.0
52,46.232092270833334,46.396624564583334,70.0,117.0
53,46.40996502083333,46.56856822291667,67.0,99.0
54,46.58783777083333,46.782015522916666,65.0,102.0
55,46.76571052083333,46.95692372708333,67.0,102.0
56,46.94358327083333,47.09032828958333,65.0,89.0
57,47.12145602083333,47.22225057916666,63.0,112.0
58,47.299328770833334,48.532579837499995,63.0,112.0
59,48.72231077083333,48.98022625833333,70.0,127.0
60,49.433801770833334,49.67541225625,70.0,127.0
61,50.14529277083333,50.50844963541667,70.0,127.0
62,50.67891102083333,50.852336952083334,67.0,127.0
63,50.85678377083333,51.228834272916664,70.0,127.0
64,51.568274770833334,51.94180754583333,63.0,127.0
65,52.27976577083333,52.718518554166664,63.0,127.0
66,52.99125677083333,53.361824999999996,63.0,127.0
67,53.52487502083333,53.68496049583333,60.0,107.0
68,53.702747770833334,54.21116738125,63.0,127.0
69,54.41423877083333,54.6158278875,67.0,117.0
70,54.76998427083333,54.90635337916667,67.0,99.0
71,54.94785702083333,55.167233412499996,70.0,95.0
72,55.12572977083333,55.34955298125,67.0,102.0
73,55.48147527083333,55.6652771125,65.0,112.0
74,55.83722077083333,56.003235337499994,63.0,127.0
75,56.01509352083333,56.19296627083333,60.0,92.0
76,56.19296627083333,56.32785310625,63.0,127.0
77,56.37083902083333,56.51313722083333,65.0,112.0
78,56.54871177083333,56.84664862708333,67.0,127.0
79,57.26020277083333,57.33579868958333,65.0,112.0
80,57.43807552083333,57.62928872708333,65.0,100.0
81,57.79382102083333,57.91833194583333,67.0,127.0
82,57.97169377083333,58.228126985416665,70.0,122.0
83,58.32743927083333,58.47121974375,70.0,127.0
84,58.50531202083333,58.653539312499994,67.0,97.0
85,58.68318477083333,58.84178797291666,65.0,102.0
86,58.86105752083333,59.01817844999999,67.0,102.0
87,59.03893027083333,59.204944837499994,65.0,112.0
88,59.21680302083333,59.391711224999995,63.0,127.0
89,59.39467577083333,59.84232219166666,65.0,99.0
90,60.10616677083333,60.41299726458333,63.0,127.0
91,60.46191227083333,60.62644456458333,60.0,102.0
92,60.63978502083333,60.75095548958333,58.0,122.0
93,60.81765777083333,61.487645129166665,58.0,122.0
94,62.95213077083333,63.11369851875,67.0,112.0
95,63.13000352083333,63.33307491041666,70.0,117.0
96,63.30787627083333,63.4561035625,67.0,96.0
97,63.48574902083333,63.742182235416664,65.0,97.0
98,63.66362177083333,64.53964506458333,67.0,100.0
99,65.79809477083333,65.88110205416666,63.0,127.0
100,65.97596752083334,66.14791117916667,63.0,112.0
101,66.33171302083333,66.41027348541667,63.0,117.0
102,66.50958577083333,66.80900489999999,60.0,107.0
103,66.86533127083332,67.06099129583333,58.0,100.0
104,67.22107677083333,67.31001314583332,67.0,122.0
105,67.39894952083333,67.6183259125,67.0,102.0
106,67.75469502083332,67.89254640208333,70.0,127.0
107,67.93256777083333,68.10154688333333,72.0,107.0
108,68.11044052083334,68.24680962916666,70.0,102.0
109,68.28831327083333,68.64850558958334,72.0,112.0
110,68.64405877083333,69.35554977083333,70.0,122.0
111,69.71129527083333,69.95290575624999,65.0,97.0
112,69.88916802083332,70.11150895833333,67.0,99.0
113,70.06704077083333,70.25528943124999,70.0,107.0
114,70.24491352083334,70.47614809583332,72.0,88.0
115,70.42278627083333,71.00828407291667,70.0,127.0
116,71.13427727083332,71.27954001666666,67.0,107.0
117,71.31215002083333,71.43814321875,70.0,117.0
118,71.49002277083333,71.8161228125,72.0,107.0
119,72.02364102083332,72.19410240625,72.0,117.0
120,72.20151377083333,72.47573426041666,70.0,127.0
121,72.55725927083333,72.78404702708333,67.0,127.0
122,72.91300477083333,73.07457251875,65.0,127.0
123,73.09087752083333,73.22428208333334,67.0,93.0
124,73.26875027083332,73.45848120416666,63.0,112.0
125,73.44662302083333,73.62597804375,65.0,96.0
126,73.62449577083333,74.19220629791667,67.0,112.0
127,75.75896877083333,76.11619654375,67.0,107.0
128,76.11471427083333,76.48231795416666,75.0,112.0
129,76.47045977083333,76.78321935625,72.0,117.0
130,76.82620527083333,77.14785849375,70.0,117.0
131,77.18195077083332,77.57771763958333,72.0,117.0
132,77.53769627083332,77.88751267916666,75.0,102.0
133,77.89344177083333,79.34310468333332,72.0,122.0
134,94.25773477083332,94.73206210416666,70.0,127.0
135,94.96922577083333,95.17674397916666,70.0,127.0
136,95.32497127083333,95.464304925,67.0,122.0
137,95.50284402083332,95.65551813124999,70.0,102.0
138,95.68071677083333,95.94159680416666,67.0,107.0
139,96.03646227083333,96.20544138333332,67.0,122.0
140,96.21433502083333,96.37145595,65.0,90.0
141,96.39220777083332,96.83540737291666,63.0,112.0
142,97.10369877083333,97.527628825,60.0,117.0
143,97.63731702083332,97.84038841041667,63.0,95.0
144,97.81518977083333,98.02863707083333,60.0,100.0
145,98.17093527083333,98.32212710833333,58.0,127.0
146,98.34880802083333,98.53112758958333,55.0,90.0
147,98.52668077083332,99.72139274166666,58.0,127.0
148,99.94966277083333,100.41806101249999,60.0,107.0
149,100.48328102083333,100.56480603125,67.0,96.0
150,100.66115377083332,100.88794152708333,67.0,96.0
151,101.01689927083333,101.28815521458333,60.0,99.0
152,101.37264477083333,101.64241844166666,63.0,127.0
153,101.72839027083333,101.89588711041667,65.0,93.0
154,101.90626302083332,102.05893713124999,63.0,112.0
155,102.08413577083333,102.62961220416666,60.0,107.0
156,102.79562677083332,102.88011632708333,63.0,127.0
157,102.97349952083333,103.15137227083333,63.0,107.0
158,103.32924502083333,103.49674186041666,67.0,102.0
159,103.50711777083333,103.73390552708332,65.0,100.0
160,103.86286327083333,104.10447375625,63.0,112.0
161,104.21860877083333,105.30659709166666,65.0,117.0
162,105.64159077083333,106.13370537916666,67.0,112.0
163,106.35308177083333,106.74291954791666,67.0,112.0
164,106.88670002083333,107.04530322291666,70.0,127.0
165,107.06457277083332,107.36102735416667,67.0,100.0
166,107.42031827083333,107.74493603958332,65.0,97.0
167,107.77606377083333,108.23260382916666,63.0,112.0
168,108.48755477083333,108.72175389166667,60.0,97.0
169,108.84330027083332,109.08639302916666,60.0,96.0
170,109.02117302083333,109.23017350208333,63.0,112.0
171,109.19904577083332,109.40804625208332,65.0,93.0
172,109.37691852083333,109.61556446041666,67.0,95.0
173,109.55479127083333,109.70005401666666,65.0,117.0
174,109.73266402083333,109.89274949583333,63.0,117.0
175,109.91053677083333,111.07708555625,60.0,107.0
176,111.33351877083332,111.56771789166666,58.0,127.0
177,111.68926427083333,111.83749156249999,58.0,122.0
178,111.86713702083333,112.02425794999999,55.0,96.0
179,112.04500977083333,112.36962753958333,58.0,122.0
180,112.57862802083332,112.70758576458333,60.0,95.0
181,112.75650077083333,112.97735943541666,63.0,112.0
182,113.11224627083332,113.27529629166666,65.0,102.0
183,113.29011902083333,113.44279313125,63.0,112.0
184,113.46799177083332,114.09054639583333,60.0,117.0
185,114.17948277083333,114.37366052291667,70.0,127.0
186,114.53522827083333,114.69976056458333,70.0,117.0
187,114.71310102083332,114.87170422291666,67.0,99.0
188,114.89097377083333,115.08515152291666,65.0,102.0
189,115.06884652083333,115.26005972708333,67.0,102.0
190,115.24671927083332,115.39346428958332,65.0,89.0
191,115.42459202083333,115.52538657916666,63.0,112.0
192,115.60246477083332,116.83571583749999,63.0,112.0
193,117.02544677083333,117.28336225833333,70.0,127.0
194,117.73693777083332,117.97854825625,70.0,127.0
195,118.44842877083333,118.81158563541666,70.0,127.0
196,118.98204702083332,119.15547295208333,67.0,127.0
197,119.15991977083333,119.53197027291667,70.0,127.0
198,119.87141077083332,120.24494354583332,63.0,127.0
199,120.58290177083333,121.02165455416666,63.0,127.0
200,121.29439277083333,121.66496099999999,63.0,127.0
201,121.82801102083333,121.98809649583333,60.0,107.0
202,122.00588377083332,122.51430338124999,63.0,127.0
203,122.71737477083333,122.9189638875,67.0,117.0
204,123.07312027083333,123.20948937916665,67.0,99.0
205,123.25099302083332,123.47036941249999,70.0,95.0
206,123.42886577083333,123.65268898125,67.0,102.0
207,123.78461127083332,123.96841311249999,65.0,112.0
208,124.14035677083332,124.3063713375,63.0,127.0
209,124.31822952083333,124.49610227083333,60.0,92.0
210,124.49610227083333,124.63098910625,63.0,127.0
211,124.67397502083332,124.81627322083332,65.0,112.0
212,124.85184777083333,125.14978462708332,67.0,127.0
213,125.56333877083333,125.63893468958332,65.0,112.0
214,125.74121152083333,125.93242472708333,65.0,100.0
215,126.09695702083333,126.22146794583333,67.0,127.0
216,126.27482977083332,126.53126298541666,70.0,122.0
217,126.63057527083333,126.77435574375,70.0,127.0
218,126.80844802083332,126.9566753125,67.0,97.0
219,126.98632077083333,127.14492397291666,65.0,102.0
220,127.16419352083332,127.32131444999999,67.0,102.0
221,127.34206627083333,127.50808083749999,65.0,112.0
222,127.51993902083332,127.69484722499999,63.0,127.0
223,127.69781177083333,128.14545819166665,65.0,99.0
224,128.40930277083334,128.71613326458333,63.0,127.0
225,128.76504827083332,128.92958056458332,60.0,102.0
226,128.94292102083332,129.05409148958333,58.0,122.0
227,129.12079377083333,129.79078112916665,58.0,122.0
228,131.25526677083332,131.41683451875,67.0,112.0
229,131.43313952083332,131.63621091041665,70.0,117.0
230,131.61101227083333,131.7592395625,67.0,96.0
231,131.78888502083333,132.04531823541666,65.0,97.0
232,131.96675777083334,132.84278106458333,67.0,100.0
233,134.10123077083333,134.18423805416666,63.0,127.0
234,134.27910352083333,134.45104717916666,63.0,112.0
235,134.63484902083331,134.71340948541666,63.0,117.0
236,134.81272177083332,135.11214089999999,60.0,107.0
237,135.16846727083333,135.36412729583333,58.0,100.0
238,135.52421277083332,135.61314914583332,67.0,122.0
239,135.70208552083332,135.9214619125,67.0,102.0
240,136.05783102083333,136.19568240208332,70.0,127.0
241,136.23570377083334,136.40468288333332,72.0,107.0
242,136.41357652083332,136.54994562916667,70.0,102.0
243,136.59144927083332,136.95164158958332,72.0,112.0
244,136.94719477083333,137.65868577083333,70.0,122.0
245,138.0144312708333,138.25604175625,65.0,97.0
246,138.19230402083332,138.41464495833333,67.0,99.0
247,138.37017677083333,138.55842543125,70.0,107.0
248,138.54804952083333,138.77928409583333,72.0,88.0
249,138.72592227083334,139.31142007291666,70.0,127.0
250,139.43741327083333,139.58267601666665,67.0,107.0
251,139.61528602083334,139.74127921874998,70.0,117.0
252,139.79315877083332,140.1192588125,72.0,107.0
253,140.32677702083333,140.49723840625,72.0,117.0
254,140.50464977083334,140.77887026041665,70.0,127.0
255,140.86039527083332,141.0871830270833,67.0,127.0
256,141.21614077083333,141.37770851874998,65.0,127.0
257,141.39401352083334,141.52741808333332,67.0,93.0
258,141.57188627083332,141.76161720416667,63.0,112.0
259,141.74975902083332,141.92911404375,65.0,96.0
260,141.92763177083333,142.49534229791666,67.0,112.0
261,144.06210477083332,144.41933254375,67.0,107.0
262,144.41785027083333,144.78545395416666,75.0,112.0
263,144.77359577083334,145.08635535624998,72.0,117.0
264,145.12934127083332,145.45099449375,70.0,117.0
265,145.48508677083333,145.88085363958334,72.0,117.0
266,145.84083227083332,146.19064867916666,75.0,102.0
267,146.19657777083333,147.63495875,72.0,122.0
268,173.90105477083335,174.15897025833334,70.0,127.0
269,174.61254577083335,174.85415625625,70.0,127.0
270,175.32403677083335,175.68719363541666,70.0,127.0
271,175.85765502083333,176.03108095208333,67.0,127.0
272,176.03552777083334,176.40757827291668,70.0,127.0
273,176.74701877083334,177.12055154583334,63.0,127.0
274,177.45850977083333,177.89726255416667,63.0,127.0
275,178.17000077083333,178.540569,63.0,127.0
276,178.70361902083334,178.86370449583333,60.0,107.0
277,178.88149177083335,179.38991138125002,63.0,127.0
278,179.59298277083334,179.7945718875,67.0,117.0
279,179.94872827083333,180.08509737916668,67.0,99.0
280,180.12660102083333,180.34597741250002,70.0,95.0
281,180.30447377083334,180.52829698125,67.0,102.0
282,180.66021927083335,180.8440211125,65.0,112.0
283,181.01596477083334,181.1819793375,63.0,127.0
284,181.19383752083334,181.37171027083335,60.0,92.0
285,181.37171027083335,181.50659710625,63.0,127.0
286,181.54958302083332,181.69188122083335,65.0,112.0
287,181.72745577083333,182.02539262708333,67.0,127.0
288,182.43894677083335,182.51454268958332,65.0,112.0
289,182.61681952083333,182.80803272708334,65.0,100.0
290,182.97256502083334,183.09707594583335,67.0,127.0
291,183.15043777083335,183.40687098541667,70.0,122.0
292,183.50618327083333,183.64996374375,70.0,127.0
293,183.68405602083334,183.8322833125,67.0,97.0
294,183.86192877083334,184.02053197291667,65.0,102.0
295,184.03980152083335,184.19692245,67.0,102.0
296,184.21767427083336,184.38368883750002,65.0,112.0
297,184.39554702083333,184.570455225,63.0,127.0
298,184.57341977083334,185.02106619166668,65.0,99.0
299,185.28491077083333,185.59174126458333,63.0,127.0
300,185.64065627083335,185.80518856458335,60.0,102.0
301,185.81852902083335,185.92969948958336,58.0,122.0
302,185.99640177083333,186.66638912916667,58.0,122.0
303,188.13087477083334,188.29244251875002,67.0,112.0
304,188.30874752083332,188.51181891041668,70.0,117.0
305,188.48662027083333,188.6348475625,67.0,96.0
306,188.66449302083333,188.9209262354167,65.0,97.0
307,188.84236577083334,189.71838906458333,67.0,100.0
308,190.97683877083335,191.05984605416666,63.0,127.0
309,191.15471152083333,191.32665517916666,63.0,112.0
310,191.51045702083334,191.58901748541666,63.0,117.0
311,191.68832977083335,191.9877489,60.0,107.0
312,192.04407527083333,192.23973529583333,58.0,100.0
313,192.39982077083334,192.48875714583335,67.0,122.0
314,192.57769352083335,192.7970699125,67.0,102.0
315,192.93343902083333,193.07129040208332,70.0,127.0
316,193.11131177083334,193.28029088333335,72.0,107.0
317,193.28918452083335,193.42555362916667,70.0,102.0
318,193.46705727083332,193.82724958958335,72.0,112.0
319,193.82280277083333,194.53429377083333,70.0,122.0
320,194.89003927083334,195.13164975625,65.0,97.0
321,195.06791202083335,195.29025295833333,67.0,99.0
322,195.24578477083332,195.43403343125001,70.0,107.0
323,195.42365752083333,195.65489209583333,72.0,88.0
324,195.60153027083334,196.18702807291666,70.0,127.0
325,196.31302127083333,196.45828401666668,67.0,107.0
326,196.49089402083334,196.61688721875,70.0,117.0
327,196.66876677083334,196.9948668125,72.0,107.0
328,197.20238502083333,197.37284640625,72.0,117.0
329,197.38025777083334,197.65447826041668,70.0,127.0
330,197.73600327083335,197.96279102708334,67.0,127.0
331,198.09174877083333,198.25331651875,65.0,127.0
332,198.26962152083334,198.40302608333334,67.0,93.0
333,198.44749427083335,198.63722520416667,63.0,112.0
334,198.62536702083332,198.80472204375002,65.0,96.0
335,198.80323977083333,199.37095029791666,67.0,112.0
336,200.93771277083334,201.29494054375,67.0,107.0
337,201.29345827083336,201.66106195416666,75.0,112.0
338,201.64920377083334,201.96196335625,72.0,117.0
339,202.00494927083332,202.32660249375,70.0,117.0
340,202.36069477083333,202.75646163958334,72.0,117.0
341,202.71644027083335,203.06625667916666,75.0,102.0
342,203.07218577083333,204.52184868333333,72.0,122.0
