,start,end,pitch,velocity
0,3.898377770833333,5.44290615,67.0,56.0
1,3.898377770833333,5.471069335416666,39.0,58.0
2,3.898377770833333,5.494785702083333,51.0,59.0
3,3.898377770833333,5.5407361625,63.0,59.0
4,3.898377770833333,5.561487983333333,58.0,58.0
5,8.878814770833333,11.355692814583334,67.0,53.0
6,8.878814770833333,11.4461114625,39.0,58.0
7,8.878814770833333,11.471310102083333,51.0,45.0
8,8.878814770833333,11.475756920833332,58.0,45.0
9,8.878814770833333,11.481686012499999,63.0,62.0
10,11.724778770833332,14.235749091666666,67.0,58.0
11,11.724778770833332,14.286146370833332,58.0,56.0
12,11.724778770833332,14.293557735416666,51.0,54.0
13,11.724778770833332,14.296522281249999,63.0,65.0
14,11.724778770833332,14.314309556249999,39.0,53.0
15,14.926488270833332,15.036176466666666,67.0,70.0
16,14.926488270833332,15.046552377083332,63.0,85.0
17,14.926488270833332,15.0569282875,58.0,96.0
18,14.570742770833332,15.062857379166665,39.0,75.0
19,15.637979270833332,15.752114285416665,63.0,93.0
20,15.637979270833332,15.768419287499999,67.0,66.0
21,15.637979270833332,15.769901560416665,58.0,97.0
22,15.282233770833333,15.793617927083332,51.0,66.0
23,15.993724770833332,16.12268251458333,63.0,40.0
24,15.993724770833332,16.414690279166667,46.0,72.0
25,16.349470270833333,16.48732165208333,62.0,95.0
26,16.349470270833333,16.500662108333334,58.0,97.0
27,16.349470270833333,16.503626654166666,53.0,89.0
28,16.705215770833334,17.105429458333333,46.0,71.0
29,17.06096127083333,17.154344464583332,53.0,93.0
30,17.06096127083333,17.1558267375,58.0,112.0
31,17.06096127083333,17.175096285416664,62.0,97.0
32,17.772452270833334,17.90733910625,63.0,81.0
33,17.772452270833334,17.916232743749998,58.0,100.0
34,17.772452270833334,17.919197289583334,67.0,72.0
35,17.416706770833333,18.062977762499997,39.0,40.0
36,18.12819777083333,18.546198733333334,51.0,86.0
37,18.483943270833333,18.587702375,67.0,90.0
38,18.483943270833333,18.598078285416666,63.0,107.0
39,18.483943270833333,18.63958192708333,58.0,107.0
40,19.19543427083333,19.327356560416664,55.0,93.0
41,19.19543427083333,19.346626108333332,58.0,102.0
42,19.19543427083333,19.355519745833334,62.0,93.0
43,18.839688770833334,19.514122947916665,43.0,78.0
44,19.551179770833333,20.043294379166667,50.0,78.0
45,19.906925270833334,20.044776652083332,58.0,107.0
46,19.906925270833334,20.049223470833333,55.0,88.0
47,19.906925270833334,20.072939837499998,62.0,89.0
48,20.26267077083333,20.4998344375,60.0,99.0
49,20.26267077083333,20.508728075,56.0,102.0
50,20.26267077083333,20.508728075,63.0,107.0
51,20.26267077083333,20.514657166666666,44.0,100.0
52,21.32990727083333,21.58782275833333,51.0,107.0
53,21.32990727083333,21.60561003333333,39.0,100.0
54,21.685652770833332,21.82795097083333,44.0,117.0
55,21.685652770833332,21.8872418875,60.0,99.0
56,21.685652770833332,21.913922799999998,63.0,96.0
57,21.685652770833332,21.924298710416664,56.0,107.0
58,22.752889270833332,22.979677027083333,51.0,112.0
59,22.752889270833332,23.018216122916666,39.0,99.0
60,23.108634770833334,23.379890714583333,65.0,72.0
61,23.108634770833334,23.381372987499997,46.0,89.0
62,23.108634770833334,23.385819806249998,58.0,100.0
63,23.108634770833334,23.385819806249998,62.0,86.0
64,23.108634770833334,23.387302079166666,53.0,96.0
65,24.175871270833333,24.32706310833333,53.0,86.0
66,24.175871270833333,24.330027654166667,58.0,96.0
67,24.175871270833333,24.334474472916664,62.0,88.0
68,24.175871270833333,24.361155385416666,46.0,102.0
69,24.53161677083333,24.681326335416664,63.0,122.0
70,24.53161677083333,24.70059588333333,39.0,99.0
71,24.53161677083333,24.708007247916665,51.0,107.0
72,24.887362270833332,25.074128658333333,58.0,90.0
73,24.887362270833332,25.08746911458333,46.0,97.0
74,24.887362270833332,25.094880479166665,34.0,96.0
75,25.243107770833333,25.49361189375,39.0,73.0
76,25.243107770833333,25.502505531249998,58.0,100.0
77,25.243107770833333,25.50547007708333,55.0,89.0
78,25.243107770833333,25.50695235,51.0,72.0
79,25.243107770833333,25.512881441666664,63.0,92.0
80,26.310344270833333,26.403727464583334,63.0,75.0
81,26.310344270833333,26.43040837708333,58.0,95.0
82,26.310344270833333,26.440784287499998,67.0,93.0
83,25.954598770833332,26.48080565625,51.0,92.0
84,27.021835270833332,27.1078071,63.0,86.0
85,26.66608977083333,27.11225391875,46.0,69.0
86,27.021835270833332,27.12855892083333,67.0,69.0
87,27.021835270833332,27.1344880125,58.0,97.0
88,27.73332627083333,27.82670946458333,63.0,86.0
89,27.73332627083333,27.857837195833334,67.0,69.0
90,27.73332627083333,27.8637662875,58.0,97.0
91,27.377580770833333,27.91564583958333,51.0,92.0
92,28.444817270833333,28.555987739583333,63.0,107.0
93,28.444817270833333,28.563399104166667,58.0,107.0
94,28.444817270833333,28.563399104166667,67.0,83.0
95,28.089071770833332,28.69383912083333,46.0,97.0
96,29.156308270833332,29.279336922916666,60.0,92.0
97,29.156308270833332,29.28081919583333,63.0,102.0
98,29.156308270833332,29.283783741666664,67.0,82.0
99,28.80056277083333,29.285266014583332,48.0,92.0
100,29.86779927083333,30.010097470833333,67.0,89.0
101,29.86779927083333,30.02047338125,63.0,117.0
102,29.86779927083333,30.027884745833333,60.0,90.0
103,29.512053770833333,30.035296110416667,43.0,57.0
104,30.579290270833333,30.715659379166667,58.0,95.0
105,30.579290270833333,30.715659379166667,62.0,90.0
106,30.579290270833333,30.726035289583333,53.0,88.0
107,30.223544770833332,30.82386530208333,46.0,92.0
108,31.29078127083333,31.412327649999998,62.0,93.0
109,31.29078127083333,31.41529219583333,53.0,95.0
110,31.29078127083333,31.430114924999998,58.0,107.0
111,30.93503577083333,31.477547658333332,41.0,68.0
112,32.00227227083333,32.111960466666666,55.0,89.0
113,32.00227227083333,32.111960466666666,60.0,100.0
114,32.00227227083333,32.12233637708333,63.0,97.0
115,31.646526770833333,32.22313093541666,48.0,82.0
116,32.71376327083333,32.83679192291667,55.0,90.0
117,32.71376327083333,32.841238741666665,60.0,100.0
118,32.71376327083333,32.8619905625,63.0,99.0
119,32.358017770833335,32.98798376041667,43.0,71.0
120,33.425254270833335,33.52753110208333,55.0,89.0
121,33.425254270833335,33.531977920833334,60.0,97.0
122,33.425254270833335,33.54235383125,63.0,100.0
123,33.06950877083333,33.64166611666666,48.0,81.0
124,33.78099977083333,34.224199372916665,43.0,76.0
125,34.13674527083333,34.247915739583334,60.0,92.0
126,34.13674527083333,34.26422074166666,55.0,86.0
127,34.13674527083333,34.27756119791667,63.0,99.0
128,34.84823627083333,34.93865491875,63.0,102.0
129,34.84823627083333,34.950513102083335,67.0,95.0
130,34.84823627083333,34.96681810416666,58.0,112.0
131,34.492490770833335,35.021662202083334,51.0,102.0
132,35.559727270833335,35.63828773541667,67.0,85.0
133,35.559727270833335,35.65755728333333,63.0,127.0
134,35.20398177083333,35.688685014583335,46.0,100.0
135,35.559727270833335,35.69461410625,58.0,112.0
136,36.27121827083333,36.40314056041667,58.0,102.0
137,36.27121827083333,36.40314056041667,62.0,93.0
138,36.27121827083333,36.406105106249996,53.0,93.0
139,35.91547277083333,36.52172239375,46.0,96.0
140,36.626963770833335,37.07016337291667,41.0,71.0
141,36.98270927083333,37.10425565,53.0,95.0
142,36.98270927083333,37.10722019583333,58.0,107.0
143,36.98270927083333,37.132418835416665,62.0,96.0
144,37.694200270833335,37.800923920833334,63.0,96.0
145,37.694200270833335,37.80981755833333,67.0,72.0
146,37.694200270833335,37.81871119583333,58.0,112.0
147,37.33845477083333,37.85280347291666,51.0,99.0
148,38.04994577083333,38.48721628125,46.0,99.0
149,38.40569127083333,38.49907446458333,63.0,112.0
150,38.40569127083333,38.54650719791667,67.0,82.0
151,38.40569127083333,38.54798947083333,58.0,112.0
152,39.11718227083333,39.23724637708333,63.0,112.0
153,39.11718227083333,39.23872865,67.0,79.0
154,39.11718227083333,39.2476222875,58.0,102.0
155,38.761436770833335,39.37954457708333,51.0,83.0
156,39.828673270833335,39.901304643749995,67.0,85.0
157,39.828673270833335,39.92205646458333,63.0,112.0
158,39.828673270833335,39.96207783333333,58.0,112.0
159,39.47292777083333,40.005063747916665,46.0,89.0
160,40.54016427083333,40.65133473958333,55.0,95.0
161,40.54016427083333,40.65874610416667,60.0,107.0
162,40.54016427083333,40.66763974166666,63.0,102.0
163,40.18441877083333,40.80697339583333,48.0,71.0
164,41.25165527083333,41.37171937708333,55.0,95.0
165,41.25165527083333,41.37320165,60.0,107.0
166,41.25165527083333,41.39840028958333,63.0,117.0
167,40.895909770833335,41.46065575208333,43.0,69.0
168,41.963146270833334,42.066905375,60.0,100.0
169,41.963146270833334,42.0757990125,55.0,93.0
170,41.963146270833334,42.08617492291666,63.0,117.0
171,41.60740077083333,42.2180972125,48.0,77.0
172,42.67463727083333,42.750233189583334,63.0,85.0
173,42.67463727083333,42.78580773958333,55.0,93.0
174,42.67463727083333,42.806559560416666,60.0,107.0
175,42.31889177083333,42.813970925,43.0,75.0
176,43.38612827083333,43.50174555833333,62.0,96.0
177,43.38612827083333,43.513603741666664,58.0,112.0
178,43.38612827083333,43.51508601458333,65.0,90.0
179,43.030382770833334,43.57585920416666,46.0,81.0
180,43.74187377083333,44.158392460416664,41.0,85.0
181,44.097619270833334,44.214718831249996,62.0,96.0
182,44.097619270833334,44.22954156041666,65.0,90.0
183,44.097619270833334,44.23102383333333,58.0,127.0
184,44.80911027083333,44.918798466666665,55.0,92.0
185,44.80911027083333,44.92769210416667,60.0,100.0
186,44.80911027083333,44.93806801458333,63.0,107.0
187,44.45336477083333,44.96030210833333,48.0,89.0
188,45.52060127083333,45.6154667375,55.0,90.0
189,45.52060127083333,45.61843128333333,63.0,99.0
190,45.52060127083333,45.64214765,60.0,99.0
191,45.164855770833334,45.68809811041666,43.0,93.0
192,46.232092270833334,46.30768818958333,67.0,59.0
193,46.232092270833334,46.313617281249996,63.0,61.0
194,46.232092270833334,46.33436910208333,58.0,89.0
195,45.87634677083333,46.5226177625,51.0,107.0
196,46.40996502083333,46.53299367291667,63.0,88.0
197,46.40996502083333,46.55671003958333,58.0,93.0
198,46.40996502083333,46.559674585416666,67.0,71.0
199,46.94358327083333,47.02362600833333,67.0,63.0
200,46.94358327083333,47.02659055416667,63.0,90.0
201,46.94358327083333,47.047342375,58.0,96.0
202,46.58783777083333,47.22817967083333,46.0,88.0
203,47.12145602083333,47.23855558125,67.0,77.0
204,47.12145602083333,47.262271947916666,58.0,82.0
205,47.12145602083333,47.26820103958333,63.0,85.0
206,47.65507427083333,47.720294279166666,67.0,53.0
207,47.65507427083333,47.733634735416665,63.0,86.0
208,47.65507427083333,47.74401064583333,58.0,86.0
209,47.83294702083333,47.933741579166664,67.0,81.0
210,47.83294702083333,47.942635216666666,63.0,93.0
211,47.83294702083333,47.9633870375,58.0,93.0
212,47.299328770833334,47.979692039583334,51.0,89.0
213,48.18869252083333,48.25835934791667,67.0,55.0
214,48.18869252083333,48.28800480625,63.0,53.0
215,48.18869252083333,48.29541617083333,58.0,86.0
216,48.366565270833334,48.434749825,67.0,69.0
217,48.366565270833334,48.44067891666666,63.0,99.0
218,48.366565270833334,48.45401937291666,58.0,97.0
219,48.01081977083333,48.63485666875,46.0,99.0
220,48.54443802083333,48.63782121458333,63.0,97.0
221,48.54443802083333,48.64671485208333,67.0,85.0
222,48.54443802083333,48.65412621666666,58.0,97.0
223,49.07805627083333,49.15958128125,63.0,107.0
224,49.07805627083333,49.16106355416667,67.0,81.0
225,49.07805627083333,49.16847491875,58.0,97.0
226,49.25592902083333,49.34931221458333,63.0,107.0
227,49.25592902083333,49.35375903333333,67.0,89.0
228,49.25592902083333,49.37006403541666,58.0,99.0
229,48.72231077083333,49.430837225,51.0,97.0
230,49.61167452083333,49.690234985416666,67.0,68.0
231,49.61167452083333,49.69912862291667,63.0,67.0
232,49.61167452083333,49.71395135208333,58.0,96.0
233,49.433801770833334,50.0622854875,46.0,96.0
234,49.78954727083333,50.142328225,63.0,96.0
235,49.78954727083333,50.15566868125,67.0,79.0
236,49.78954727083333,50.213477325,58.0,97.0
237,50.501038270833334,50.570705097916665,67.0,67.0
238,50.501038270833334,50.584045554166664,63.0,100.0
239,50.501038270833334,50.594421464583334,58.0,99.0
240,50.67891102083333,50.81083331041666,67.0,81.0
241,50.67891102083333,50.81676240208333,63.0,96.0
242,50.14529277083333,50.83603195,51.0,76.0
243,50.67891102083333,50.83603195,58.0,99.0
244,51.03465652083333,51.102841075,67.0,52.0
245,51.03465652083333,51.12062835,63.0,38.0
246,51.03465652083333,51.138415625,58.0,82.0
247,51.21252927083333,51.322217466666665,63.0,102.0
248,51.39040202083333,51.458586575,63.0,34.0
249,50.85678377083333,51.51491294583333,46.0,81.0
250,51.21252927083333,51.522324310416664,67.0,71.0
251,51.21252927083333,51.534182493749995,58.0,100.0
252,51.92402027083333,51.989240279166665,63.0,107.0
253,51.92402027083333,51.990722552083334,67.0,88.0
254,51.92402027083333,52.011474372916666,58.0,99.0
255,52.10189302083333,52.227886218749994,63.0,92.0
256,52.10189302083333,52.23085076458333,67.0,72.0
257,52.10189302083333,52.24567349375,58.0,88.0
258,51.568274770833334,52.282730316666665,51.0,95.0
259,52.635511270833334,52.708142643749994,63.0,99.0
260,52.635511270833334,52.708142643749994,67.0,77.0
261,52.635511270833334,52.72592991875,58.0,97.0
262,52.27976577083333,52.856369935416666,46.0,83.0
263,52.81338402083333,52.90676721458333,67.0,72.0
264,52.81338402083333,52.918625397916664,63.0,81.0
265,52.81338402083333,52.9349304,58.0,92.0
266,53.34700227083333,53.415186825,67.0,83.0
267,53.34700227083333,53.41815137083333,63.0,112.0
268,53.34700227083333,53.43149182708333,58.0,99.0
269,53.52487502083333,53.621222760416664,63.0,93.0
270,53.52487502083333,53.62418730625,67.0,85.0
271,53.52487502083333,53.64197458125,58.0,93.0
272,52.99125677083333,53.699783225,51.0,90.0
273,53.88062052083333,53.9310178,67.0,44.0
274,53.88062052083333,53.962145531249995,63.0,95.0
275,53.88062052083333,53.97845053333333,58.0,97.0
276,54.05849327083333,54.113337368749995,67.0,64.0
277,54.05849327083333,54.12964237083333,63.0,90.0
278,54.05849327083333,54.14742964583333,58.0,92.0
279,54.23636602083333,54.31492648541666,67.0,77.0
280,54.23636602083333,54.32826694166666,63.0,96.0
281,53.702747770833334,54.3668060375,46.0,88.0
282,54.23636602083333,54.36977058333333,58.0,100.0
283,54.41423877083333,54.46760059583333,63.0,45.0
284,54.76998427083333,54.85002700833333,62.0,88.0
285,54.76998427083333,54.851509281249996,58.0,112.0
286,54.76998427083333,54.87077882916667,55.0,92.0
287,54.41423877083333,54.97305566041666,43.0,66.0
288,54.94785702083333,55.109424768749996,58.0,112.0
289,54.94785702083333,55.11535386041666,55.0,85.0
290,54.94785702083333,55.12869431666666,62.0,83.0
291,55.12572977083333,55.69936938958333,43.0,89.0
292,55.48147527083333,55.79571712916666,62.0,95.0
293,55.48147527083333,55.8431498625,58.0,122.0
294,55.48147527083333,55.85945486458333,55.0,93.0
295,55.83722077083333,55.99285942708333,63.0,117.0
296,55.83722077083333,55.99730624583333,60.0,95.0
297,55.83722077083333,56.00471761041666,67.0,90.0
298,55.83722077083333,56.00768215625,48.0,95.0
299,56.19296627083333,56.35601629166666,48.0,107.0
300,56.19296627083333,56.35601629166666,63.0,117.0
301,56.19296627083333,56.36046311041667,67.0,95.0
302,56.19296627083333,56.36194538333333,60.0,95.0
303,56.54871177083333,56.72213770208333,63.0,127.0
304,56.54871177083333,56.725102247916666,67.0,97.0
305,56.54871177083333,56.73399588541666,48.0,112.0
306,56.54871177083333,56.741407249999995,60.0,97.0
307,57.61594827083333,57.693026462499994,53.0,86.0
308,57.61594827083333,57.69450873541666,58.0,107.0
309,57.61594827083333,57.698955554166666,62.0,92.0
310,57.26020277083333,57.817537387499996,46.0,97.0
311,57.79382102083333,57.88423966875,53.0,59.0
312,57.79382102083333,57.88572194166667,62.0,85.0
313,57.79382102083333,57.890168760416664,58.0,95.0
314,58.32743927083333,58.41044655416666,58.0,102.0
315,58.32743927083333,58.417857918749995,53.0,93.0
316,58.32743927083333,58.42675155625,62.0,95.0
317,57.97169377083333,58.49641838333333,41.0,79.0
318,58.68318477083333,58.74988705208333,53.0,83.0
319,58.68318477083333,58.7958375125,46.0,112.0
320,58.68318477083333,58.822518425,58.0,99.0
321,58.68318477083333,58.822518425,62.0,89.0
322,59.03893027083333,59.16344119583333,46.0,122.0
323,59.03893027083333,59.17085256041666,53.0,90.0
324,59.03893027083333,59.17381710625,62.0,92.0
325,59.03893027083333,59.179746197916664,58.0,102.0
326,59.39467577083333,59.56810170208333,46.0,127.0
327,59.39467577083333,59.57106624791666,62.0,100.0
328,59.39467577083333,59.58588897708333,53.0,96.0
329,59.39467577083333,59.58588897708333,58.0,117.0
330,60.46191227083333,60.530096824999994,58.0,107.0
331,60.46191227083333,60.53454364375,63.0,90.0
332,60.46191227083333,60.538990462499996,55.0,82.0
333,60.10616677083333,60.72131003125,51.0,99.0
334,60.63978502083333,60.75688458125,55.0,78.0
335,60.63978502083333,60.75984912708333,58.0,112.0
336,60.63978502083333,60.771707310416666,63.0,100.0
337,61.17340327083333,61.241587824999996,58.0,117.0
338,61.17340327083333,61.254928281249995,55.0,83.0
339,61.17340327083333,61.254928281249995,63.0,102.0
340,60.81765777083333,61.370545568749996,46.0,93.0
341,61.35127602083333,61.45355285208333,55.0,76.0
342,61.35127602083333,61.45651739791666,58.0,100.0
343,61.35127602083333,61.465411035416665,63.0,90.0
344,61.88489427083333,61.967901554166666,63.0,96.0
345,61.88489427083333,61.97234837291666,58.0,100.0
346,61.88489427083333,61.99013564791667,55.0,76.0
347,62.06276702083333,62.17838430833333,55.0,69.0
348,62.06276702083333,62.181348854166664,58.0,92.0
349,62.06276702083333,62.18431339999999,63.0,93.0
350,61.52914877083333,62.19913612916666,51.0,95.0
351,62.41851252083333,62.497072985416665,55.0,64.0
352,62.41851252083333,62.50300207708333,63.0,90.0
353,62.41851252083333,62.50448435,58.0,93.0
354,62.24063977083333,62.842442575,46.0,86.0
355,62.59638527083333,62.87505257916666,63.0,122.0
356,62.59638527083333,62.90321576458333,58.0,112.0
357,62.59638527083333,62.91507394791666,55.0,81.0
358,63.30787627083333,63.38198991666666,58.0,122.0
359,63.30787627083333,63.39088355416666,62.0,95.0
360,63.30787627083333,63.3938481,55.0,90.0
361,63.48574902083333,63.61025994583333,62.0,86.0
362,63.48574902083333,63.62063585625,55.0,68.0
363,63.48574902083333,63.625082674999994,58.0,96.0
364,62.95213077083333,63.64879904166666,43.0,67.0
365,64.01936727083333,64.09348091666666,55.0,81.0
366,64.01936727083333,64.09792773541666,58.0,100.0
367,64.01936727083333,64.10089228125,62.0,89.0
368,63.66362177083333,64.27728275833333,50.0,58.0
369,64.19724002083333,64.29803457916667,55.0,83.0
370,64.19724002083333,64.3098927625,62.0,95.0
371,64.19724002083333,64.32026867291667,58.0,100.0
372,64.73085827083332,64.80645418958333,58.0,112.0
373,64.73085827083332,64.80941873541666,62.0,89.0
374,64.73085827083332,64.81979464583333,55.0,86.0
375,64.37511277083333,64.98284466666667,43.0,69.0
376,64.90873102083333,65.03472421875,58.0,100.0
377,64.90873102083333,65.03768876458334,62.0,92.0
378,64.90873102083333,65.0569583125,55.0,75.0
379,65.44234927083333,65.49571109583333,58.0,107.0
380,65.44234927083333,65.51498064375,55.0,86.0
381,65.44234927083333,65.51498064375,62.0,93.0
382,65.08660377083334,65.65876111666667,50.0,89.0
383,65.62022202083332,65.69285339375,62.0,86.0
384,65.62022202083332,65.70174703125,58.0,122.0
385,65.62022202083332,65.71212294166666,55.0,85.0
386,66.15384027083333,66.2309184625,67.0,66.0
387,66.15384027083333,66.23240073541666,63.0,90.0
388,66.15384027083333,66.25018801041666,58.0,96.0
389,65.79809477083333,66.43991894375,51.0,72.0
390,66.33171302083333,66.46067076458333,63.0,74.0
391,66.33171302083333,66.47994031249999,67.0,68.0
392,66.33171302083333,66.48735167708332,58.0,78.0
393,66.68745852083333,66.75860762083333,67.0,63.0
394,66.68745852083333,66.77935944166666,63.0,59.0
395,66.68745852083333,66.78528853333333,58.0,78.0
396,66.86533127083332,67.09953039166666,67.0,88.0
397,66.86533127083332,67.10990630208333,63.0,102.0
398,66.86533127083332,67.12621130416666,58.0,102.0
399,66.50958577083333,67.15437448958333,46.0,72.0
400,67.57682227083333,67.65686500833333,58.0,100.0
401,67.57682227083333,67.6716877375,55.0,88.0
402,67.57682227083333,67.67613455624999,62.0,92.0
403,67.22107677083333,67.71467365208333,43.0,69.0
404,67.75469502083332,67.87179458125,58.0,99.0
405,67.75469502083332,67.87920594583333,55.0,79.0
406,67.75469502083332,67.87920594583333,62.0,88.0
407,68.28831327083333,68.35946237083333,60.0,100.0
408,68.28831327083333,68.36983828125,63.0,112.0
409,68.28831327083333,68.38169646458333,56.0,95.0
410,67.93256777083333,68.4899023875,44.0,66.0
411,68.46618602083333,68.54474648541667,60.0,89.0
412,68.46618602083333,68.56698057916667,63.0,93.0
413,68.46618602083333,68.59217921874999,56.0,97.0
414,68.99980427083332,69.09022291875,58.0,107.0
415,68.99980427083332,69.09615201041666,53.0,88.0
416,68.99980427083332,69.10504564791667,62.0,93.0
417,68.64405877083333,69.19101747708334,46.0,66.0
418,69.17767702083333,69.29774112708333,58.0,95.0
419,69.17767702083333,69.31108158333333,62.0,81.0
420,69.17767702083333,69.32293976666666,53.0,76.0
421,69.71129527083333,69.78540891666667,58.0,99.0
422,69.71129527083333,69.78985573541667,62.0,90.0
423,69.71129527083333,69.79874937291666,53.0,82.0
424,69.35554977083333,69.89657938541666,46.0,92.0
425,69.88916802083332,69.99144485208333,53.0,76.0
426,69.88916802083332,69.992927125,58.0,107.0
427,69.88916802083332,69.992927125,62.0,93.0
428,70.42278627083333,70.48800627916667,62.0,95.0
429,70.42278627083333,70.49097082499999,58.0,127.0
430,70.42278627083333,70.50727582708333,53.0,93.0
431,70.60065902083333,70.69255994166666,53.0,85.0
432,70.60065902083333,70.6955244875,58.0,122.0
433,70.60065902083333,70.69997130624999,62.0,96.0
434,70.06704077083333,70.70886494375,46.0,92.0
435,70.77853177083333,71.29288047291666,41.0,85.0
436,71.13427727083332,71.29880956458332,58.0,127.0
437,71.13427727083332,71.30473865625,53.0,97.0
438,71.13427727083332,71.31363229374999,62.0,100.0
439,71.49002277083333,71.771654625,55.0,96.0
440,71.49002277083333,71.7894419,48.0,89.0
441,71.49002277083333,71.7894419,63.0,112.0
442,71.49002277083333,71.79092417291666,60.0,99.0
443,72.91300477083333,73.05678524375,62.0,96.0
444,72.91300477083333,73.06271433541666,55.0,96.0
445,72.91300477083333,73.06716115416667,43.0,88.0
446,72.91300477083333,73.06864342708333,58.0,117.0
447,73.26875027083332,73.43328256458334,58.0,102.0
448,73.26875027083332,73.43624711041666,55.0,92.0
449,73.26875027083332,73.44069392916666,62.0,95.0
450,73.26875027083332,73.47330393333333,43.0,89.0
451,73.62449577083333,73.9328085375,55.0,89.0
452,73.62449577083333,73.9328085375,58.0,102.0
453,73.62449577083333,73.93577308333333,43.0,89.0
454,73.62449577083333,73.941702175,62.0,89.0
455,74.33598677083333,74.49162542708333,63.0,77.0
456,74.33598677083333,74.49607224583333,60.0,88.0
457,74.33598677083333,74.50793042916666,55.0,79.0
458,74.33598677083333,74.51385952083334,48.0,72.0
459,75.04747777083332,75.23720870416666,55.0,88.0
460,75.04747777083332,75.23869097708332,60.0,88.0
461,75.04747777083332,75.24462006875,63.0,90.0
462,75.04747777083332,75.26092507083332,48.0,99.0
463,75.75896877083333,76.86177982083333,62.0,89.0
464,75.75896877083333,76.929964375,58.0,100.0
465,75.75896877083333,76.94923392291666,43.0,74.0
466,75.75896877083333,76.95812756041666,55.0,92.0
467,77.18195077083332,77.29312123958333,63.0,32.0
468,77.53769627083332,77.60439855208332,60.0,99.0
469,77.53769627083332,77.61329218958333,63.0,100.0
470,77.53769627083332,77.61625673541667,55.0,88.0
471,77.18195077083332,77.79857630416666,48.0,88.0
472,77.71556902083333,77.81784585208332,55.0,72.0
473,77.71556902083333,77.819328125,60.0,97.0
474,77.71556902083333,77.82525721666666,63.0,95.0
475,78.24918727083333,78.34553501041667,60.0,93.0
476,78.24918727083333,78.35591092083332,55.0,89.0
477,78.24918727083333,78.36035773958334,63.0,93.0
478,77.89344177083333,78.37221592291667,43.0,75.0
479,78.96067827083333,79.03479191666666,60.0,97.0
480,78.96067827083333,79.04220328125,63.0,99.0
481,78.96067827083333,79.04516782708333,55.0,81.0
482,79.13855102083333,79.23489876041667,60.0,96.0
483,79.13855102083333,79.23786330624999,63.0,96.0
484,79.13855102083333,79.24082785208333,55.0,77.0
485,78.60493277083333,79.26306194583333,48.0,85.0
486,79.67216927083332,79.75369428124999,55.0,93.0
487,79.67216927083332,79.76258791875,60.0,112.0
488,79.67216927083332,79.77148155625,63.0,100.0
489,79.31642377083332,79.88709884375,43.0,83.0
490,80.38366027083333,80.46073846249999,63.0,100.0
491,80.38366027083333,80.46222073541666,55.0,83.0
492,80.38366027083333,80.46222073541666,60.0,112.0
493,80.56153302083332,80.66232757916666,55.0,78.0
494,80.56153302083332,80.66380985208333,60.0,99.0
495,80.56153302083332,80.66973894374999,63.0,107.0
496,80.02791477083333,80.73347667916666,48.0,85.0
497,81.09515127083333,81.16630037083333,63.0,100.0
498,81.09515127083333,81.16926491666666,60.0,107.0
499,81.09515127083333,81.17371173541666,55.0,85.0
500,80.73940577083333,81.32193902708333,43.0,73.0
501,81.80664227083332,81.87630909791666,60.0,99.0
502,81.80664227083332,81.87779137083334,55.0,79.0
503,81.80664227083332,81.88075591666666,63.0,97.0
504,81.98451502083333,82.07048685,60.0,107.0
505,81.98451502083333,82.07493366874999,63.0,100.0
506,81.98451502083333,82.07938048749999,55.0,78.0
507,81.45089677083332,82.13718913125,48.0,69.0
508,82.51813327083333,82.61744555624999,60.0,102.0
509,82.51813327083333,82.62337464791666,55.0,89.0
510,82.16238777083333,82.6307860125,43.0,81.0
511,82.51813327083333,82.63671510416667,63.0,102.0
512,83.22962427083333,83.33931246666667,67.0,70.0
513,83.22962427083333,83.34968837708333,63.0,85.0
514,83.22962427083333,83.3600642875,58.0,96.0
515,82.87387877083333,83.36599337916667,39.0,75.0
516,83.94111527083334,84.05525028541666,63.0,93.0
517,83.94111527083334,84.07155528749999,67.0,66.0
518,83.94111527083334,84.07303756041667,58.0,97.0
519,83.58536977083332,84.09675392708333,51.0,66.0
520,84.29686077083333,84.42581851458333,63.0,40.0
521,84.29686077083333,84.71782627916666,46.0,72.0
522,84.65260627083333,84.79045765208333,62.0,95.0
523,84.65260627083333,84.80379810833332,58.0,97.0
524,84.65260627083333,84.80676265416666,53.0,89.0
525,85.00835177083333,85.40856545833333,46.0,71.0
526,85.36409727083333,85.45748046458333,53.0,93.0
527,85.36409727083333,85.4589627375,58.0,112.0
528,85.36409727083333,85.47823228541667,62.0,97.0
529,86.07558827083334,86.21047510625,63.0,81.0
530,86.07558827083334,86.21936874375,58.0,100.0
531,86.07558827083334,86.22233328958333,67.0,72.0
532,85.71984277083332,86.36611376249999,39.0,40.0
533,86.43133377083333,86.84933473333332,51.0,86.0
534,86.78707927083333,86.890838375,67.0,90.0
535,86.78707927083333,86.90121428541666,63.0,107.0
536,86.78707927083333,86.94271792708332,58.0,107.0
537,87.49857027083333,87.63049256041666,55.0,93.0
538,87.49857027083333,87.64976210833333,58.0,102.0
539,87.49857027083333,87.65865574583333,62.0,93.0
540,87.14282477083333,87.81725894791666,43.0,78.0
541,87.85431577083332,88.34643037916666,50.0,78.0
542,88.21006127083334,88.34791265208332,58.0,107.0
543,88.21006127083334,88.35235947083333,55.0,88.0
544,88.21006127083334,88.3760758375,62.0,89.0
545,88.56580677083333,88.8029704375,60.0,99.0
546,88.56580677083333,88.811864075,56.0,102.0
547,88.56580677083333,88.811864075,63.0,107.0
548,88.56580677083333,88.81779316666666,44.0,100.0
549,89.63304327083333,89.89095875833333,51.0,107.0
550,89.63304327083333,89.90874603333333,39.0,100.0
551,89.98878877083332,90.13108697083332,44.0,117.0
552,89.98878877083332,90.19037788749999,60.0,99.0
553,89.98878877083332,90.21705879999999,63.0,96.0
554,89.98878877083332,90.22743471041666,56.0,107.0
555,91.05602527083333,91.28281302708334,51.0,112.0
556,91.05602527083333,91.32135212291666,39.0,99.0
557,91.41177077083333,91.68302671458333,65.0,72.0
558,91.41177077083333,91.6845089875,46.0,89.0
559,91.41177077083333,91.68895580625,58.0,100.0
560,91.41177077083333,91.68895580625,62.0,86.0
561,91.41177077083333,91.69043807916667,53.0,96.0
562,92.47900727083334,92.63019910833333,53.0,86.0
563,92.47900727083334,92.63316365416667,58.0,96.0
564,92.47900727083334,92.63761047291666,62.0,88.0
565,92.47900727083334,92.66429138541666,46.0,102.0
566,92.83475277083333,92.98446233541667,63.0,122.0
567,92.83475277083333,93.00373188333333,39.0,99.0
568,92.83475277083333,93.01114324791666,51.0,107.0
569,93.19049827083333,93.37726465833333,58.0,90.0
570,93.19049827083333,93.39060511458332,46.0,97.0
571,93.19049827083333,93.39801647916666,34.0,96.0
572,93.54624377083333,93.79674789375,39.0,73.0
573,93.54624377083333,93.80564153124999,58.0,100.0
574,93.54624377083333,93.80860607708333,55.0,89.0
575,93.54624377083333,93.81008835,51.0,72.0
576,93.54624377083333,93.81601744166666,63.0,92.0
577,94.61348027083334,94.70686346458334,63.0,75.0
578,94.61348027083334,94.73354437708333,58.0,95.0
579,94.61348027083334,94.74392028749999,67.0,93.0
580,94.25773477083332,94.78394165625,51.0,92.0
581,95.32497127083333,95.4109431,63.0,86.0
582,94.96922577083333,95.41538991875,46.0,69.0
583,95.32497127083333,95.43169492083332,67.0,69.0
584,95.32497127083333,95.4376240125,58.0,97.0
585,96.03646227083333,96.12984546458333,63.0,86.0
586,96.03646227083333,96.16097319583332,67.0,69.0
587,96.03646227083333,96.1669022875,58.0,97.0
588,95.68071677083333,96.21878183958333,51.0,92.0
589,96.74795327083334,96.85912373958332,63.0,107.0
590,96.74795327083334,96.86653510416666,58.0,107.0
591,96.74795327083334,96.86653510416666,67.0,83.0
592,96.39220777083332,96.99697512083333,46.0,97.0
593,97.45944427083333,97.58247292291666,60.0,92.0
594,97.45944427083333,97.58395519583333,63.0,102.0
595,97.45944427083333,97.58691974166666,67.0,82.0
596,97.10369877083333,97.58840201458332,48.0,92.0
597,98.17093527083333,98.31323347083332,67.0,89.0
598,98.17093527083333,98.32360938125,63.0,117.0
599,98.17093527083333,98.33102074583333,60.0,90.0
600,97.81518977083333,98.33843211041666,43.0,57.0
601,98.88242627083334,99.01879537916666,58.0,95.0
602,98.88242627083334,99.01879537916666,62.0,90.0
603,98.88242627083334,99.02917128958333,53.0,88.0
604,98.52668077083332,99.12700130208333,46.0,92.0
605,99.59391727083333,99.71546364999999,62.0,93.0
606,99.59391727083333,99.71842819583333,53.0,95.0
607,99.59391727083333,99.733250925,58.0,107.0
608,99.23817177083333,99.78068365833333,41.0,68.0
609,100.30540827083333,100.41509646666667,55.0,89.0
610,100.30540827083333,100.41509646666667,60.0,100.0
611,100.30540827083333,100.42547237708332,63.0,97.0
612,99.94966277083333,100.52626693541666,48.0,82.0
613,101.01689927083333,101.13992792291666,55.0,90.0
614,101.01689927083333,101.14437474166667,60.0,100.0
615,101.01689927083333,101.16512656249999,63.0,99.0
616,100.66115377083332,101.29111976041666,43.0,71.0
617,101.72839027083333,101.83066710208332,55.0,89.0
618,101.72839027083333,101.83511392083332,60.0,97.0
619,101.72839027083333,101.84548983124999,63.0,100.0
620,101.37264477083333,101.94480211666666,48.0,81.0
621,102.08413577083333,102.52733537291667,43.0,76.0
622,102.43988127083333,102.55105173958333,60.0,92.0
623,102.43988127083333,102.56735674166666,55.0,86.0
624,102.43988127083333,102.58069719791666,63.0,99.0
625,103.15137227083333,103.24179091875,63.0,102.0
626,103.15137227083333,103.25364910208333,67.0,95.0
627,103.15137227083333,103.26995410416666,58.0,112.0
628,102.79562677083332,103.32479820208333,51.0,102.0
629,103.86286327083333,103.94142373541666,67.0,85.0
630,103.86286327083333,103.96069328333333,63.0,127.0
631,103.50711777083333,103.99182101458332,46.0,100.0
632,103.86286327083333,103.99775010625,58.0,112.0
633,104.57435427083333,104.70627656041665,58.0,102.0
634,104.57435427083333,104.70627656041665,62.0,93.0
635,104.57435427083333,104.70924110624999,53.0,93.0
636,104.21860877083333,104.82485839374999,46.0,96.0
637,104.93009977083332,105.37329937291666,41.0,71.0
638,105.28584527083333,105.40739165,53.0,95.0
639,105.28584527083333,105.41035619583333,58.0,107.0
640,105.28584527083333,105.43555483541667,62.0,96.0
641,105.99733627083333,106.10405992083332,63.0,96.0
642,105.99733627083333,106.11295355833333,67.0,72.0
643,105.99733627083333,106.12184719583333,58.0,112.0
644,105.64159077083333,106.15593947291666,51.0,99.0
645,106.35308177083333,106.79035228125,46.0,99.0
646,106.70882727083332,106.80221046458333,63.0,112.0
647,106.70882727083332,106.84964319791666,67.0,82.0
648,106.70882727083332,106.85112547083332,58.0,112.0
649,107.42031827083333,107.54038237708333,63.0,112.0
650,107.42031827083333,107.54186465,67.0,79.0
651,107.42031827083333,107.55075828749999,58.0,102.0
652,107.06457277083332,107.68268057708333,51.0,83.0
653,108.13180927083333,108.20444064374999,67.0,85.0
654,108.13180927083333,108.22519246458333,63.0,112.0
655,108.13180927083333,108.26521383333333,58.0,112.0
656,107.77606377083333,108.30819974791666,46.0,89.0
657,108.84330027083332,108.95447073958333,55.0,95.0
658,108.84330027083332,108.96188210416666,60.0,107.0
659,108.84330027083332,108.97077574166666,63.0,102.0
660,108.48755477083333,109.11010939583333,48.0,71.0
661,109.55479127083333,109.67485537708333,55.0,95.0
662,109.55479127083333,109.67633765,60.0,107.0
663,109.55479127083333,109.70153628958333,63.0,117.0
664,109.19904577083332,109.76379175208332,43.0,69.0
665,110.26628227083333,110.370041375,60.0,100.0
666,110.26628227083333,110.3789350125,55.0,93.0
667,110.26628227083333,110.38931092291666,63.0,117.0
668,109.91053677083333,110.5212332125,48.0,77.0
669,110.97777327083332,111.05336918958332,63.0,85.0
670,110.97777327083332,111.08894373958333,55.0,93.0
671,110.97777327083332,111.10969556041667,60.0,107.0
672,110.62202777083333,111.11710692499999,43.0,75.0
673,111.68926427083333,111.80488155833332,62.0,96.0
674,111.68926427083333,111.81673974166667,58.0,112.0
675,111.68926427083333,111.81822201458333,65.0,90.0
676,111.33351877083332,111.87899520416666,46.0,81.0
677,112.04500977083333,112.46152846041666,41.0,85.0
678,112.40075527083333,112.51785483124999,62.0,96.0
679,112.40075527083333,112.53267756041666,65.0,90.0
680,112.40075527083333,112.53415983333333,58.0,127.0
681,113.11224627083332,113.22193446666667,55.0,92.0
682,113.11224627083332,113.23082810416666,60.0,100.0
683,113.11224627083332,113.24120401458333,63.0,107.0
684,112.75650077083333,113.26343810833333,48.0,89.0
685,113.82373727083333,113.9186027375,55.0,90.0
686,113.82373727083333,113.92156728333333,63.0,99.0
687,113.82373727083333,113.94528365,60.0,99.0
688,113.46799177083332,113.99123411041666,43.0,93.0
689,114.53522827083333,114.61082418958333,67.0,59.0
690,114.53522827083333,114.61675328125,63.0,61.0
691,114.53522827083333,114.63750510208332,58.0,89.0
692,114.17948277083333,114.8257537625,51.0,107.0
693,114.71310102083332,114.83612967291666,63.0,88.0
694,114.71310102083332,114.85984603958333,58.0,93.0
695,114.71310102083332,114.86281058541667,67.0,71.0
696,115.24671927083332,115.32676200833333,67.0,63.0
697,115.24671927083332,115.32972655416665,63.0,90.0
698,115.24671927083332,115.350478375,58.0,96.0
699,114.89097377083333,115.53131567083332,46.0,88.0
700,115.42459202083333,115.54169158124999,67.0,77.0
701,115.42459202083333,115.56540794791665,58.0,82.0
702,115.42459202083333,115.57133703958333,63.0,85.0
703,115.95821027083333,116.02343027916666,67.0,53.0
704,115.95821027083333,116.03677073541667,63.0,86.0
705,115.95821027083333,116.04714664583332,58.0,86.0
706,116.13608302083333,116.23687757916666,67.0,81.0
707,116.13608302083333,116.24577121666665,63.0,93.0
708,116.13608302083333,116.2665230375,58.0,93.0
709,115.60246477083332,116.28282803958332,51.0,89.0
710,116.49182852083332,116.56149534791666,67.0,55.0
711,116.49182852083332,116.59114080625,63.0,53.0
712,116.49182852083332,116.59855217083333,58.0,86.0
713,116.66970127083333,116.73788582499999,67.0,69.0
714,116.66970127083333,116.74381491666666,63.0,99.0
715,116.66970127083333,116.75715537291666,58.0,97.0
716,116.31395577083333,116.93799266875,46.0,99.0
717,116.84757402083332,116.94095721458332,63.0,97.0
718,116.84757402083332,116.94985085208333,67.0,85.0
719,116.84757402083332,116.95726221666666,58.0,97.0
720,117.38119227083332,117.46271728125,63.0,107.0
721,117.38119227083332,117.46419955416665,67.0,81.0
722,117.38119227083332,117.47161091874999,58.0,97.0
723,117.55906502083333,117.65244821458333,63.0,107.0
724,117.55906502083333,117.65689503333333,67.0,89.0
725,117.55906502083333,117.67320003541666,58.0,99.0
726,117.02544677083333,117.733973225,51.0,97.0
727,117.91481052083333,117.99337098541666,67.0,68.0
728,117.91481052083333,118.00226462291666,63.0,67.0
729,117.91481052083333,118.01708735208332,58.0,96.0
730,117.73693777083332,118.3654214875,46.0,96.0
731,118.09268327083333,118.445464225,63.0,96.0
732,118.09268327083333,118.45880468125,67.0,79.0
733,118.09268327083333,118.516613325,58.0,97.0
734,118.80417427083333,118.87384109791667,67.0,67.0
735,118.80417427083333,118.88718155416666,63.0,100.0
736,118.80417427083333,118.89755746458333,58.0,99.0
737,118.98204702083332,119.11396931041666,67.0,81.0
738,118.98204702083332,119.11989840208332,63.0,96.0
739,118.44842877083333,119.13916795,51.0,76.0
740,118.98204702083332,119.13916795,58.0,99.0
741,119.33779252083333,119.405977075,67.0,52.0
742,119.33779252083333,119.42376435,63.0,38.0
743,119.33779252083333,119.44155162499999,58.0,82.0
744,119.51566527083332,119.62535346666667,63.0,102.0
745,119.69353802083333,119.761722575,63.0,34.0
746,119.15991977083333,119.81804894583333,46.0,81.0
747,119.51566527083332,119.82546031041666,67.0,71.0
748,119.51566527083332,119.83731849374999,58.0,100.0
749,120.22715627083333,120.29237627916666,63.0,107.0
750,120.22715627083333,120.29385855208332,67.0,88.0
751,120.22715627083333,120.31461037291666,58.0,99.0
752,120.40502902083333,120.53102221875,63.0,92.0
753,120.40502902083333,120.53398676458333,67.0,72.0
754,120.40502902083333,120.54880949375,58.0,88.0
755,119.87141077083332,120.58586631666667,51.0,95.0
756,120.93864727083333,121.01127864374999,63.0,99.0
757,120.93864727083333,121.01127864374999,67.0,77.0
758,120.93864727083333,121.02906591874999,58.0,97.0
759,120.58290177083333,121.15950593541666,46.0,83.0
760,121.11652002083332,121.20990321458332,67.0,72.0
761,121.11652002083332,121.22176139791667,63.0,81.0
762,121.11652002083332,121.2380664,58.0,92.0
763,121.65013827083332,121.71832282499999,67.0,83.0
764,121.65013827083332,121.72128737083332,63.0,112.0
765,121.65013827083332,121.73462782708333,58.0,99.0
766,121.82801102083333,121.92435876041667,63.0,93.0
767,121.82801102083333,121.92732330624999,67.0,85.0
768,121.82801102083333,121.94511058124999,58.0,93.0
769,121.29439277083333,122.002919225,51.0,90.0
770,122.18375652083333,122.23415379999999,67.0,44.0
771,122.18375652083333,122.26528153125,63.0,95.0
772,122.18375652083333,122.28158653333332,58.0,97.0
773,122.36162927083333,122.41647336874999,67.0,64.0
774,122.36162927083333,122.43277837083333,63.0,90.0
775,122.36162927083333,122.45056564583332,58.0,92.0
776,122.53950202083332,122.61806248541666,67.0,77.0
777,122.53950202083332,122.63140294166666,63.0,96.0
778,122.00588377083332,122.6699420375,46.0,88.0
779,122.53950202083332,122.67290658333333,58.0,100.0
780,122.71737477083333,122.77073659583333,63.0,45.0
781,123.07312027083333,123.15316300833332,62.0,88.0
782,123.07312027083333,123.15464528125,58.0,112.0
783,123.07312027083333,123.17391482916666,55.0,92.0
784,122.71737477083333,123.27619166041666,43.0,66.0
785,123.25099302083332,123.41256076875,58.0,112.0
786,123.25099302083332,123.41848986041666,55.0,85.0
787,123.25099302083332,123.43183031666666,62.0,83.0
788,123.42886577083333,124.00250538958333,43.0,89.0
789,123.78461127083332,124.09885312916666,62.0,95.0
790,123.78461127083332,124.1462858625,58.0,122.0
791,123.78461127083332,124.16259086458332,55.0,93.0
792,124.14035677083332,124.29599542708333,63.0,117.0
793,124.14035677083332,124.30044224583332,60.0,95.0
794,124.14035677083332,124.30785361041666,67.0,90.0
795,124.14035677083332,124.31081815625,48.0,95.0
796,124.49610227083333,124.65915229166666,48.0,107.0
797,124.49610227083333,124.65915229166666,63.0,117.0
798,124.49610227083333,124.66359911041665,67.0,95.0
799,124.49610227083333,124.66508138333333,60.0,95.0
800,124.85184777083333,125.02527370208333,63.0,127.0
801,124.85184777083333,125.02823824791666,67.0,97.0
802,124.85184777083333,125.03713188541666,48.0,112.0
803,124.85184777083333,125.04454324999999,60.0,97.0
804,125.91908427083332,125.9961624625,53.0,86.0
805,125.91908427083332,125.99764473541666,58.0,107.0
806,125.91908427083332,126.00209155416665,62.0,92.0
807,125.56333877083333,126.12067338749999,46.0,97.0
808,126.09695702083333,126.18737566875,53.0,59.0
809,126.09695702083333,126.18885794166665,62.0,85.0
810,126.09695702083333,126.19330476041667,58.0,95.0
811,126.63057527083333,126.71358255416666,58.0,102.0
812,126.63057527083333,126.72099391875,53.0,93.0
813,126.63057527083333,126.72988755624999,62.0,95.0
814,126.27482977083332,126.79955438333333,41.0,79.0
815,126.98632077083333,127.05302305208333,53.0,83.0
816,126.98632077083333,127.0989735125,46.0,112.0
817,126.98632077083333,127.125654425,58.0,99.0
818,126.98632077083333,127.125654425,62.0,89.0
819,127.34206627083333,127.46657719583332,46.0,122.0
820,127.34206627083333,127.47398856041666,53.0,90.0
821,127.34206627083333,127.47695310625,62.0,92.0
822,127.34206627083333,127.48288219791667,58.0,102.0
823,127.69781177083333,127.87123770208332,46.0,127.0
824,127.69781177083333,127.87420224791666,62.0,100.0
825,127.69781177083333,127.88902497708332,53.0,96.0
826,127.69781177083333,127.88902497708332,58.0,117.0
827,128.76504827083332,128.83323282499998,58.0,107.0
828,128.76504827083332,128.83767964375,63.0,90.0
829,128.76504827083332,128.8421264625,55.0,82.0
830,128.40930277083334,129.02444603125,51.0,99.0
831,128.94292102083332,129.06002058125,55.0,78.0
832,128.94292102083332,129.06298512708332,58.0,112.0
833,128.94292102083332,129.07484331041667,63.0,100.0
834,129.4765392708333,129.544723825,58.0,117.0
835,129.4765392708333,129.55806428124998,55.0,83.0
836,129.4765392708333,129.55806428124998,63.0,102.0
837,129.12079377083333,129.67368156875,46.0,93.0
838,129.65441202083332,129.75668885208333,55.0,76.0
839,129.65441202083332,129.75965339791665,58.0,100.0
840,129.65441202083332,129.76854703541667,63.0,90.0
841,130.18803027083334,130.27103755416667,63.0,96.0
842,130.18803027083334,130.27548437291665,58.0,100.0
843,130.18803027083334,130.29327164791667,55.0,76.0
844,130.36590302083331,130.48152030833333,55.0,69.0
845,130.36590302083331,130.48448485416665,58.0,92.0
846,130.36590302083331,130.4874494,63.0,93.0
847,129.83228477083333,130.50227212916667,51.0,95.0
848,130.72164852083333,130.80020898541667,55.0,64.0
849,130.72164852083333,130.80613807708332,63.0,90.0
850,130.72164852083333,130.80762034999998,58.0,93.0
851,130.54377577083332,131.145578575,46.0,86.0
852,130.89952127083333,131.17818857916666,63.0,122.0
853,130.89952127083333,131.20635176458333,58.0,112.0
854,130.89952127083333,131.21820994791665,55.0,81.0
855,131.61101227083333,131.68512591666666,58.0,122.0
856,131.61101227083333,131.69401955416666,62.0,95.0
857,131.61101227083333,131.69698409999998,55.0,90.0
858,131.78888502083333,131.91339594583332,62.0,86.0
859,131.78888502083333,131.92377185625,55.0,68.0
860,131.78888502083333,131.92821867499998,58.0,96.0
861,131.25526677083332,131.95193504166667,43.0,67.0
862,132.32250327083332,132.39661691666666,55.0,81.0
863,132.32250327083332,132.40106373541667,58.0,100.0
864,132.32250327083332,132.40402828125,62.0,89.0
865,131.96675777083334,132.58041875833334,50.0,58.0
866,132.50037602083333,132.60117057916665,55.0,83.0
867,132.50037602083333,132.6130287625,62.0,95.0
868,132.50037602083333,132.62340467291665,58.0,100.0
869,133.03399427083332,133.10959018958332,58.0,112.0
870,133.03399427083332,133.11255473541667,62.0,89.0
871,133.03399427083332,133.12293064583332,55.0,86.0
872,132.67824877083333,133.28598066666666,43.0,69.0
873,133.21186702083332,133.33786021875,58.0,100.0
874,133.21186702083332,133.34082476458332,62.0,92.0
875,133.21186702083332,133.3600943125,55.0,75.0
876,133.7454852708333,133.79884709583334,58.0,107.0
877,133.7454852708333,133.81811664375,55.0,86.0
878,133.7454852708333,133.81811664375,62.0,93.0
879,133.38973977083333,133.96189711666665,50.0,89.0
880,133.92335802083332,133.99598939375,62.0,86.0
881,133.92335802083332,134.00488303125,58.0,122.0
882,133.92335802083332,134.01525894166667,55.0,85.0
883,134.45697627083334,134.5340544625,67.0,66.0
884,134.45697627083334,134.53553673541666,63.0,90.0
885,134.45697627083334,134.55332401041667,58.0,96.0
886,134.10123077083333,134.74305494375,51.0,72.0
887,134.63484902083331,134.76380676458334,63.0,74.0
888,134.63484902083331,134.7830763125,67.0,68.0
889,134.63484902083331,134.79048767708332,58.0,78.0
890,134.99059452083333,135.06174362083334,67.0,63.0
891,134.99059452083333,135.08249544166665,63.0,59.0
892,134.99059452083333,135.08842453333332,58.0,78.0
893,135.16846727083333,135.40266639166666,67.0,88.0
894,135.16846727083333,135.41304230208334,63.0,102.0
895,135.16846727083333,135.42934730416667,58.0,102.0
896,134.81272177083332,135.4575104895833,46.0,72.0
897,135.87995827083333,135.96000100833334,58.0,100.0
898,135.87995827083333,135.9748237375,55.0,88.0
899,135.87995827083333,135.97927055625,62.0,92.0
900,135.52421277083332,136.01780965208332,43.0,69.0
901,136.05783102083333,136.17493058124998,58.0,99.0
902,136.05783102083333,136.18234194583331,55.0,79.0
903,136.05783102083333,136.18234194583331,62.0,88.0
904,136.59144927083332,136.66259837083334,60.0,100.0
905,136.59144927083332,136.67297428125,63.0,112.0
906,136.59144927083332,136.68483246458334,56.0,95.0
907,136.23570377083334,136.7930383875,44.0,66.0
908,136.76932202083333,136.84788248541665,60.0,89.0
909,136.76932202083333,136.87011657916665,63.0,93.0
910,136.76932202083333,136.89531521875,56.0,97.0
911,137.30294027083332,137.39335891874998,58.0,107.0
912,137.30294027083332,137.39928801041665,53.0,88.0
913,137.30294027083332,137.40818164791665,62.0,93.0
914,136.94719477083333,137.49415347708333,46.0,66.0
915,137.48081302083332,137.60087712708332,58.0,95.0
916,137.48081302083332,137.61421758333333,62.0,81.0
917,137.48081302083332,137.62607576666667,53.0,76.0
918,138.0144312708333,138.08854491666665,58.0,99.0
919,138.0144312708333,138.09299173541666,62.0,90.0
920,138.0144312708333,138.10188537291666,53.0,82.0
921,137.65868577083333,138.19971538541665,46.0,92.0
922,138.19230402083332,138.29458085208333,53.0,76.0
923,138.19230402083332,138.296063125,58.0,107.0
924,138.19230402083332,138.296063125,62.0,93.0
925,138.72592227083334,138.79114227916665,62.0,95.0
926,138.72592227083334,138.794106825,58.0,127.0
927,138.72592227083334,138.81041182708333,53.0,93.0
928,138.90379502083331,138.99569594166667,53.0,85.0
929,138.90379502083331,138.9986604875,58.0,122.0
930,138.90379502083331,139.00310730625,62.0,96.0
931,138.37017677083333,139.01200094375,46.0,92.0
932,139.08166777083332,139.59601647291666,41.0,85.0
933,139.43741327083333,139.60194556458333,58.0,127.0
934,139.43741327083333,139.60787465625,53.0,97.0
935,139.43741327083333,139.61676829375,62.0,100.0
936,139.79315877083332,140.074790625,55.0,96.0
937,139.79315877083332,140.09257789999998,48.0,89.0
938,139.79315877083332,140.09257789999998,63.0,112.0
939,139.79315877083332,140.09406017291667,60.0,99.0
940,141.21614077083333,141.35992124375,62.0,96.0
941,141.21614077083333,141.36585033541667,55.0,96.0
942,141.21614077083333,141.37029715416665,43.0,88.0
943,141.21614077083333,141.37177942708334,58.0,117.0
944,141.57188627083332,141.73641856458332,58.0,102.0
945,141.57188627083332,141.73938311041667,55.0,92.0
946,141.57188627083332,141.74382992916665,62.0,95.0
947,141.57188627083332,141.77643993333334,43.0,89.0
948,141.92763177083333,142.2359445375,55.0,89.0
949,141.92763177083333,142.2359445375,58.0,102.0
950,141.92763177083333,142.23890908333334,43.0,89.0
951,141.92763177083333,142.24483817499998,62.0,89.0
952,142.63912277083332,142.79476142708333,63.0,77.0
953,142.63912277083332,142.7992082458333,60.0,88.0
954,142.63912277083332,142.81106642916666,55.0,79.0
955,142.63912277083332,142.81699552083333,48.0,72.0
956,143.35061377083332,143.54034470416667,55.0,88.0
957,143.35061377083332,143.54182697708333,60.0,88.0
958,143.35061377083332,143.54775606875,63.0,90.0
959,143.35061377083332,143.56406107083333,48.0,99.0
960,144.06210477083332,145.16491582083333,62.0,89.0
961,144.06210477083332,145.233100375,58.0,100.0
962,144.06210477083332,145.25236992291667,43.0,74.0
963,144.06210477083332,145.26126356041667,55.0,92.0
964,145.48508677083333,145.59625723958334,63.0,32.0
965,145.84083227083332,145.90753455208332,60.0,99.0
966,145.84083227083332,145.9164281895833,63.0,100.0
967,145.84083227083332,145.91939273541666,55.0,88.0
968,145.48508677083333,146.10171230416665,48.0,88.0
969,146.01870502083332,146.12098185208333,55.0,72.0
970,146.01870502083332,146.122464125,60.0,97.0
971,146.01870502083332,146.12839321666667,63.0,95.0
972,146.5523232708333,146.64867101041665,60.0,93.0
973,146.5523232708333,146.65904692083333,55.0,89.0
974,146.5523232708333,146.66349373958332,63.0,93.0
975,146.19657777083333,146.67535192291666,43.0,75.0
976,147.26381427083334,147.33610825,60.0,97.0
977,147.26381427083334,147.34329215625002,63.0,99.0
978,147.26381427083334,147.34616571875,55.0,81.0
979,147.4366829375,147.53007371875,60.0,96.0
980,147.4366829375,147.53294728125002,63.0,96.0
981,147.4366829375,147.53582084375,55.0,77.0
982,146.90806877083332,147.5573725625,48.0,85.0
983,147.9539241875,148.03294715625,55.0,93.0
984,147.9539241875,148.04156784375002,60.0,112.0
985,147.9539241875,148.05018853125,63.0,100.0
986,147.6090966875,148.16225746875,43.0,83.0
987,148.6435791875,148.7202024625,63.0,100.0
988,148.6435791875,148.7216847354167,55.0,83.0
989,148.6435791875,148.7216847354167,60.0,112.0
990,148.82099702083335,148.92179157916667,55.0,78.0
991,148.82099702083335,148.92327385208333,60.0,99.0
992,148.82099702083335,148.92920294375,63.0,107.0
993,148.29875168750002,148.99294067916668,48.0,85.0
994,149.35461527083334,149.42576437083335,63.0,100.0
995,149.35461527083334,149.42872891666667,60.0,107.0
996,149.35461527083334,149.43317573541668,55.0,85.0
997,148.99886977083335,149.58140302708335,43.0,73.0
998,150.06610627083333,150.13577309791668,60.0,99.0
999,150.06610627083333,150.13725537083334,55.0,79.0
1000,150.06610627083333,150.14021991666667,63.0,97.0
1001,150.24397902083334,150.32995085000002,60.0,107.0
1002,150.24397902083334,150.33439766875,63.0,100.0
1003,150.24397902083334,150.3388444875,55.0,78.0
1004,149.71036077083335,150.39665313125002,48.0,69.0
1005,150.77759727083335,150.87690955625,60.0,102.0
1006,150.77759727083335,150.88283864791669,55.0,89.0
1007,150.42185177083334,150.89025001250002,43.0,81.0
1008,150.77759727083335,150.89617910416666,63.0,102.0
1009,151.48908827083335,151.57654237291666,63.0,93.0
1010,151.48908827083335,151.58691828333335,67.0,69.0
1011,151.48908827083335,151.59136510208333,58.0,93.0
1012,151.13334277083334,151.73514557500002,51.0,97.0
1013,151.66696102083333,151.78702512708335,63.0,72.0
1014,151.66696102083333,151.78850740000001,67.0,66.0
1015,151.66696102083333,151.79295421875,58.0,71.0
1016,152.20057927083334,152.29692701041668,63.0,99.0
1017,152.20057927083334,152.31174973958335,58.0,102.0
1018,152.20057927083334,152.31619655833333,67.0,81.0
1019,151.84483377083333,152.35918247291667,46.0,89.0
1020,152.91207027083334,152.98766618958334,67.0,82.0
1021,152.91207027083334,152.99359528125,63.0,97.0
1022,152.91207027083334,153.02027619375002,58.0,92.0
1023,153.08994302083335,153.18925530625,67.0,75.0
1024,153.08994302083335,153.19073757916667,63.0,73.0
1025,153.08994302083335,153.22482985625,58.0,82.0
1026,152.55632477083333,153.23965258541668,51.0,72.0
1027,153.62356127083333,153.70656855416667,67.0,78.0
1028,153.62356127083333,153.71101537291668,63.0,112.0
1029,153.62356127083333,153.74214310416667,58.0,117.0
1030,153.26781577083335,153.88295903125,46.0,81.0
1031,153.97930677083335,154.04304450625,61.0,35.0
1032,154.33505227083333,154.40027227916667,63.0,90.0
1033,154.33505227083333,154.40768364375,60.0,90.0
1034,154.33505227083333,154.40916591666667,55.0,76.0
1035,154.51292502083334,154.62409548958334,60.0,88.0
1036,154.51292502083334,154.62854230833335,55.0,69.0
1037,154.51292502083334,154.62854230833335,63.0,89.0
1038,153.97930677083335,154.67597504166667,48.0,79.0
1039,155.04654327083335,155.14733782916667,60.0,99.0
1040,155.04654327083335,155.15623146666667,55.0,82.0
1041,155.04654327083335,155.15771373958333,63.0,102.0
1042,154.69079777083334,155.24368556875,43.0,75.0
1043,155.75803427083335,155.83807700833333,58.0,85.0
1044,155.75803427083335,155.83807700833333,62.0,75.0
1045,155.75803427083335,155.84104155416668,53.0,73.0
1046,155.40228877083334,156.0307724875,46.0,86.0
1047,155.93590702083333,156.05152430833334,58.0,93.0
1048,155.93590702083333,156.05152430833334,62.0,89.0
1049,155.93590702083333,156.06041794583334,53.0,73.0
1050,156.46952527083334,156.58366028541667,53.0,90.0
1051,156.46952527083334,156.58514255833333,58.0,96.0
1052,156.46952527083334,156.60589437916667,62.0,90.0
1053,156.11377977083333,156.62812847291667,41.0,45.0
1054,157.18101627083334,157.25512991666668,63.0,96.0
1055,157.18101627083334,157.25661218958334,55.0,72.0
1056,157.18101627083334,157.26105900833335,60.0,96.0
1057,157.35888902083335,157.45078994166667,55.0,69.0
1058,157.35888902083335,157.45375448750002,60.0,96.0
1059,157.35888902083335,157.46116585208335,63.0,102.0
1060,156.82527077083333,157.4804354,48.0,93.0
1061,157.89250727083333,157.97996137291668,60.0,100.0
1062,157.89250727083333,157.98885501041667,55.0,83.0
1063,157.89250727083333,158.00367773958334,63.0,112.0
1064,157.53676177083335,158.1474582125,43.0,71.0
1065,158.60399827083333,158.68107646250002,60.0,95.0
1066,158.60399827083333,158.68404100833334,63.0,96.0
1067,158.60399827083333,158.68552328125,55.0,73.0
1068,158.78187102083334,158.88414785208334,55.0,73.0
1069,158.78187102083334,158.88711239791667,60.0,95.0
1070,158.78187102083334,158.90045285416667,63.0,102.0
1071,158.24825277083335,158.9300983125,48.0,78.0
1072,159.31548927083333,159.39701428125,60.0,93.0
1073,159.31548927083333,159.41776610208333,55.0,79.0
1074,159.31548927083333,159.42517746666667,63.0,99.0
1075,158.95974377083334,159.48002156458335,43.0,75.0
1076,160.02698027083335,160.09812937083333,67.0,50.0
1077,160.02698027083335,160.10998755416668,63.0,82.0
1078,160.02698027083335,160.12481028333335,58.0,89.0
1079,160.20485302083335,160.32195258125,63.0,96.0
1080,160.20485302083335,160.32788167291667,67.0,88.0
1081,160.20485302083335,160.33677531041667,58.0,88.0
1082,159.67123477083334,160.39013713541667,51.0,96.0
1083,160.38272577083333,160.77404582083335,46.0,93.0
1084,160.73847127083334,160.79183309583334,68.0,57.0
1085,160.73847127083334,160.8155494625,67.0,83.0
1086,160.73847127083334,160.842230375,63.0,102.0
1087,160.73847127083334,160.86742901458334,58.0,102.0
1088,161.44996227083334,161.52407591666667,58.0,96.0
1089,161.44996227083334,161.5285227354167,62.0,88.0
1090,161.44996227083334,161.53296955416667,53.0,83.0
1091,161.62783502083334,161.7404877625,62.0,89.0
1092,161.09421677083333,161.74641685416668,46.0,97.0
1093,161.62783502083334,161.75234594583333,58.0,93.0
1094,161.62783502083334,161.75679276458334,53.0,74.0
1095,161.80570777083335,162.19554554791668,41.0,72.0
1096,162.16145327083333,162.25928328333333,53.0,92.0
1097,162.16145327083333,162.26076555625002,58.0,122.0
1098,162.16145327083333,162.2741060125,62.0,93.0
1099,162.87294427083333,162.95743382708335,67.0,59.0
1100,162.87294427083333,162.96039837291667,63.0,76.0
1101,162.87294427083333,162.97522110208334,58.0,95.0
1102,163.05081702083334,163.17532794583335,63.0,95.0
1103,163.05081702083334,163.18570385625,58.0,100.0
1104,163.05081702083334,163.18570385625,67.0,88.0
1105,162.51719877083335,163.19459749375,51.0,79.0
1106,163.58443527083335,163.68226528333335,63.0,112.0
1107,163.58443527083335,163.69264119375,67.0,85.0
1108,163.58443527083335,163.70005255833334,58.0,107.0
1109,163.22868977083334,163.75786120208335,46.0,75.0
1110,164.29592627083335,164.37152218958335,67.0,88.0
1111,164.29592627083335,164.37893355416668,63.0,117.0
1112,164.29592627083335,164.39672082916667,58.0,97.0
1113,164.47379902083333,164.5953454,63.0,97.0
1114,164.47379902083333,164.6042390375,67.0,85.0
1115,164.47379902083333,164.60868585625002,58.0,89.0
1116,163.94018077083334,164.66056540833335,51.0,83.0
1117,165.00741727083334,165.09487137291666,67.0,74.0
1118,165.00741727083334,165.10969410208332,63.0,102.0
1119,165.00741727083334,165.13489274166668,58.0,96.0
1120,164.65167177083333,165.24309866458333,46.0,72.0
1121,165.71890827083334,165.79005737083332,60.0,92.0
1122,165.71890827083334,165.7959864625,55.0,79.0
1123,165.71890827083334,165.79746873541666,63.0,97.0
1124,165.89678102083334,166.00350467083334,60.0,90.0
1125,165.89678102083334,166.01239830833333,55.0,70.0
1126,165.89678102083334,166.01980967291667,63.0,99.0
1127,165.36316277083336,166.06131331458334,48.0,73.0
1128,166.43039927083333,166.52971155625,55.0,88.0
1129,166.43039927083333,166.534158375,60.0,102.0
1130,166.43039927083333,166.54749883125,63.0,112.0
1131,166.07465377083335,166.63643520625,43.0,70.0
1132,167.14189027083333,167.21600391666666,60.0,100.0
1133,167.14189027083333,167.22045073541668,55.0,77.0
1134,167.14189027083333,167.22045073541668,63.0,99.0
1135,167.31976302083334,167.40721712291668,55.0,52.0
1136,167.31976302083334,167.42203985208334,60.0,90.0
1137,167.31976302083334,167.44279167291668,63.0,96.0
1138,166.78614477083335,167.4857775875,48.0,69.0
1139,167.85338127083332,167.91711900625,63.0,89.0
1140,167.85338127083332,167.96010492083334,60.0,96.0
1141,167.85338127083332,167.97344537708335,55.0,89.0
1142,167.49763577083334,168.00605538125,43.0,74.0
1143,168.56487227083335,168.64491500833333,62.0,85.0
1144,168.56487227083335,168.64639728125002,58.0,96.0
1145,168.56487227083335,168.65380864583335,53.0,82.0
1146,168.74274502083335,168.85984458125,62.0,83.0
1147,168.74274502083335,168.86577367291667,58.0,92.0
1148,168.74274502083335,168.8731850375,53.0,69.0
1149,168.20912677083334,168.89986595,46.0,88.0
1150,169.27636327083334,169.37271101041668,53.0,86.0
1151,169.27636327083334,169.38753373958335,62.0,89.0
1152,169.27636327083334,169.39049828541667,58.0,102.0
1153,168.92061777083333,169.49425738958334,41.0,70.0
1154,169.98785427083334,170.05900337083335,55.0,83.0
1155,169.98785427083334,170.06048564375,63.0,102.0
1156,169.98785427083334,170.06641473541669,60.0,100.0
1157,169.63210877083333,170.1553511104167,48.0,63.0
1158,170.16572702083334,170.27541521666666,55.0,74.0
1159,170.16572702083334,170.29468476458334,60.0,97.0
1160,170.16572702083334,170.32433022291667,63.0,102.0
1161,170.69934527083333,170.79865755625002,55.0,83.0
1162,170.69934527083333,170.80162210208334,60.0,99.0
1163,170.69934527083333,170.803104375,63.0,107.0
1164,170.34359977083335,170.9009343875,43.0,67.0
1165,171.41083627083333,171.49236128125,58.0,102.0
1166,171.41083627083333,171.50273719166668,53.0,90.0
1167,171.41083627083333,171.50273719166668,62.0,85.0
1168,171.05509077083335,171.60946084166667,46.0,81.0
1169,171.58870902083333,171.69395039791667,53.0,69.0
1170,171.58870902083333,171.69395039791667,62.0,79.0
1171,171.58870902083333,171.69691494375002,58.0,93.0
1172,171.76658177083334,172.19199409791668,46.0,75.0
1173,172.12232727083335,172.22015728333335,53.0,92.0
1174,172.12232727083335,172.22905092083334,62.0,93.0
1175,172.12232727083335,172.23201546666667,58.0,107.0
1176,172.83381827083335,172.902002825,58.0,122.0
1177,172.83381827083335,172.90348509791667,63.0,107.0
1178,172.83381827083335,172.91534328125002,55.0,90.0
1179,172.47807277083334,173.0176201125,51.0,88.0
1180,173.01169102083333,173.151024675,55.0,74.0
1181,173.01169102083333,173.16881195000002,58.0,99.0
1182,173.01169102083333,173.26367741666667,63.0,96.0
1183,173.54530927083334,173.60608246041667,58.0,117.0
1184,173.54530927083334,173.61497609791667,55.0,79.0
1185,173.54530927083334,173.61645837083333,63.0,102.0
1186,173.18956377083333,173.69057201666666,46.0,73.0
1187,173.72318202083335,173.81211839583335,58.0,100.0
1188,173.72318202083335,173.81508294166667,55.0,79.0
1189,173.72318202083335,173.82249430625,63.0,100.0
1190,174.25680027083334,174.33832528125,63.0,107.0
1191,174.25680027083334,174.33980755416667,67.0,81.0
1192,174.25680027083334,174.34721891875,58.0,97.0
1193,174.43467302083334,174.52805621458333,63.0,107.0
1194,174.43467302083334,174.53250303333334,67.0,89.0
1195,174.43467302083334,174.54880803541667,58.0,99.0
1196,173.90105477083335,174.609581225,51.0,97.0
1197,174.79041852083333,174.86897898541667,67.0,68.0
1198,174.79041852083333,174.87787262291667,63.0,67.0
1199,174.79041852083333,174.89269535208334,58.0,96.0
1200,174.61254577083335,175.24102948750001,46.0,96.0
1201,174.96829127083333,175.321072225,63.0,96.0
1202,174.96829127083333,175.33441268125,67.0,79.0
1203,174.96829127083333,175.392221325,58.0,97.0
1204,175.67978227083333,175.74944909791668,67.0,67.0
1205,175.67978227083333,175.76278955416666,63.0,100.0
1206,175.67978227083333,175.77316546458334,58.0,99.0
1207,175.85765502083333,175.98957731041668,67.0,81.0
1208,175.85765502083333,175.99550640208335,63.0,96.0
1209,175.32403677083335,176.01477595,51.0,76.0
1210,175.85765502083333,176.01477595,58.0,99.0
1211,176.21340052083335,176.281585075,67.0,52.0
1212,176.21340052083335,176.29937235,63.0,38.0
1213,176.21340052083335,176.31715962500002,58.0,82.0
1214,176.39127327083332,176.50096146666667,63.0,102.0
1215,176.56914602083333,176.63733057500002,63.0,34.0
1216,176.03552777083334,176.69365694583334,46.0,81.0
1217,176.39127327083332,176.70106831041667,67.0,71.0
1218,176.39127327083332,176.71292649375002,58.0,100.0
1219,177.10276427083335,177.16798427916666,63.0,107.0
1220,177.10276427083335,177.16946655208335,67.0,88.0
1221,177.10276427083335,177.19021837291666,58.0,99.0
1222,177.28063702083335,177.40663021875,63.0,92.0
1223,177.28063702083335,177.40959476458335,67.0,72.0
1224,177.28063702083335,177.42441749375,58.0,88.0
1225,176.74701877083334,177.46147431666668,51.0,95.0
1226,177.81425527083334,177.88688664375002,63.0,99.0
1227,177.81425527083334,177.88688664375002,67.0,77.0
1228,177.81425527083334,177.90467391875,58.0,97.0
1229,177.45850977083333,178.03511393541666,46.0,83.0
1230,177.99212802083335,178.08551121458333,67.0,72.0
1231,177.99212802083335,178.09736939791668,63.0,81.0
1232,177.99212802083335,178.1136744,58.0,92.0
1233,178.52574627083334,178.593930825,67.0,83.0
1234,178.52574627083334,178.59689537083335,63.0,112.0
1235,178.52574627083334,178.61023582708333,58.0,99.0
1236,178.70361902083334,178.79996676041668,63.0,93.0
1237,178.70361902083334,178.80293130625,67.0,85.0
1238,178.70361902083334,178.82071858125,58.0,93.0
1239,178.17000077083333,178.878527225,51.0,90.0
1240,179.05936452083333,179.1097618,67.0,44.0
1241,179.05936452083333,179.14088953125,63.0,95.0
1242,179.05936452083333,179.15719453333332,58.0,97.0
1243,179.23723727083333,179.29208136875002,67.0,64.0
1244,179.23723727083333,179.30838637083335,63.0,90.0
1245,179.23723727083333,179.32617364583334,58.0,92.0
1246,179.41511002083334,179.49367048541666,67.0,77.0
1247,179.41511002083334,179.50701094166666,63.0,96.0
1248,178.88149177083335,179.5455500375,46.0,88.0
1249,179.41511002083334,179.54851458333334,58.0,100.0
1250,179.59298277083334,179.64634459583334,63.0,45.0
1251,179.94872827083333,180.02877100833334,62.0,88.0
1252,179.94872827083333,180.03025328125,58.0,112.0
1253,179.94872827083333,180.04952282916668,55.0,92.0
1254,179.59298277083334,180.15179966041666,43.0,66.0
1255,180.12660102083333,180.28816876875,58.0,112.0
1256,180.12660102083333,180.29409786041668,55.0,85.0
1257,180.12660102083333,180.30743831666666,62.0,83.0
1258,180.30447377083334,180.87811338958335,43.0,89.0
1259,180.66021927083335,180.97446112916668,62.0,95.0
1260,180.66021927083335,181.0218938625,58.0,122.0
1261,180.66021927083335,181.03819886458334,55.0,93.0
1262,181.01596477083334,181.17160342708334,63.0,117.0
1263,181.01596477083334,181.17605024583332,60.0,95.0
1264,181.01596477083334,181.18346161041666,67.0,90.0
1265,181.01596477083334,181.18642615625,48.0,95.0
1266,181.37171027083335,181.53476029166666,48.0,107.0
1267,181.37171027083335,181.53476029166666,63.0,117.0
1268,181.37171027083335,181.53920711041667,67.0,95.0
1269,181.37171027083335,181.54068938333333,60.0,95.0
1270,181.72745577083333,181.90088170208332,63.0,127.0
1271,181.72745577083333,181.90384624791668,67.0,97.0
1272,181.72745577083333,181.91273988541667,48.0,112.0
1273,181.72745577083333,181.92015125,60.0,97.0
1274,182.79469227083334,182.8717704625,53.0,86.0
1275,182.79469227083334,182.87325273541666,58.0,107.0
1276,182.79469227083334,182.87769955416667,62.0,92.0
1277,182.43894677083335,182.9962813875,46.0,97.0
1278,182.97256502083334,183.06298366875,53.0,59.0
1279,182.97256502083334,183.06446594166667,62.0,85.0
1280,182.97256502083334,183.06891276041668,58.0,95.0
1281,183.50618327083333,183.58919055416666,58.0,102.0
1282,183.50618327083333,183.59660191875,53.0,93.0
1283,183.50618327083333,183.60549555625,62.0,95.0
1284,183.15043777083335,183.67516238333334,41.0,79.0
1285,183.86192877083334,183.92863105208335,53.0,83.0
1286,183.86192877083334,183.9745815125,46.0,112.0
1287,183.86192877083334,184.001262425,58.0,99.0
1288,183.86192877083334,184.001262425,62.0,89.0
1289,184.21767427083336,184.34218519583334,46.0,122.0
1290,184.21767427083336,184.34959656041667,53.0,90.0
1291,184.21767427083336,184.35256110625,62.0,92.0
1292,184.21767427083336,184.35849019791667,58.0,102.0
1293,184.57341977083334,184.74684570208333,46.0,127.0
1294,184.57341977083334,184.74981024791668,62.0,100.0
1295,184.57341977083334,184.76463297708335,53.0,96.0
1296,184.57341977083334,184.76463297708335,58.0,117.0
1297,185.64065627083335,185.708840825,58.0,107.0
1298,185.64065627083335,185.71328764375,63.0,90.0
1299,185.64065627083335,185.7177344625,55.0,82.0
1300,185.28491077083333,185.90005403125002,51.0,99.0
1301,185.81852902083335,185.93562858125,55.0,78.0
1302,185.81852902083335,185.93859312708332,58.0,112.0
1303,185.81852902083335,185.95045131041667,63.0,100.0
1304,186.35214727083334,186.420331825,58.0,117.0
1305,186.35214727083334,186.43367228125,55.0,83.0
1306,186.35214727083334,186.43367228125,63.0,102.0
1307,185.99640177083333,186.54928956875,46.0,93.0
1308,186.53002002083335,186.63229685208333,55.0,76.0
1309,186.53002002083335,186.63526139791668,58.0,100.0
1310,186.53002002083335,186.64415503541667,63.0,90.0
1311,187.06363827083334,187.14664555416667,63.0,96.0
1312,187.06363827083334,187.15109237291668,58.0,100.0
1313,187.06363827083334,187.16887964791667,55.0,76.0
1314,187.24151102083334,187.35712830833333,55.0,69.0
1315,187.24151102083334,187.36009285416668,58.0,92.0
1316,187.24151102083334,187.3630574,63.0,93.0
1317,186.70789277083333,187.37788012916667,51.0,95.0
1318,187.59725652083335,187.67581698541667,55.0,64.0
1319,187.59725652083335,187.68174607708335,63.0,90.0
1320,187.59725652083335,187.68322835,58.0,93.0
1321,187.41938377083335,188.021186575,46.0,86.0
1322,187.77512927083333,188.05379657916666,63.0,122.0
1323,187.77512927083333,188.08195976458333,58.0,112.0
1324,187.77512927083333,188.09381794791668,55.0,81.0
1325,188.48662027083333,188.56073391666666,58.0,122.0
1326,188.48662027083333,188.5696275541667,62.0,95.0
1327,188.48662027083333,188.5725921,55.0,90.0
1328,188.66449302083333,188.78900394583334,62.0,86.0
1329,188.66449302083333,188.79937985625,55.0,68.0
1330,188.66449302083333,188.803826675,58.0,96.0
1331,188.13087477083334,188.82754304166667,43.0,67.0
1332,189.19811127083335,189.2722249166667,55.0,81.0
1333,189.19811127083335,189.27667173541667,58.0,100.0
1334,189.19811127083335,189.27963628125002,62.0,89.0
1335,188.84236577083334,189.45602675833334,50.0,58.0
1336,189.37598402083333,189.47677857916668,55.0,83.0
1337,189.37598402083333,189.4886367625,62.0,95.0
1338,189.37598402083333,189.49901267291668,58.0,100.0
1339,189.90960227083335,189.98519818958334,58.0,112.0
1340,189.90960227083335,189.98816273541667,62.0,89.0
1341,189.90960227083335,189.99853864583332,55.0,86.0
1342,189.55385677083333,190.16158866666666,43.0,69.0
1343,190.08747502083332,190.21346821875,58.0,100.0
1344,190.08747502083332,190.21643276458335,62.0,92.0
1345,190.08747502083332,190.2357023125,55.0,75.0
1346,190.62109327083334,190.67445509583334,58.0,107.0
1347,190.62109327083334,190.69372464375,55.0,86.0
1348,190.62109327083334,190.69372464375,62.0,93.0
1349,190.26534777083333,190.83750511666668,50.0,89.0
1350,190.79896602083335,190.87159739375,62.0,86.0
1351,190.79896602083335,190.88049103125002,58.0,122.0
1352,190.79896602083335,190.89086694166667,55.0,85.0
1353,191.33258427083334,191.4096624625,67.0,66.0
1354,191.33258427083334,191.41114473541666,63.0,90.0
1355,191.33258427083334,191.42893201041667,58.0,96.0
1356,190.97683877083335,191.61866294375,51.0,72.0
1357,191.51045702083334,191.63941476458334,63.0,74.0
1358,191.51045702083334,191.65868431250001,67.0,68.0
1359,191.51045702083334,191.66609567708335,58.0,78.0
1360,191.86620252083333,191.93735162083334,67.0,63.0
1361,191.86620252083333,191.95810344166668,63.0,59.0
1362,191.86620252083333,191.96403253333335,58.0,78.0
1363,192.04407527083333,192.27827439166668,67.0,88.0
1364,192.04407527083333,192.28865030208334,63.0,102.0
1365,192.04407527083333,192.30495530416667,58.0,102.0
1366,191.68832977083335,192.33311848958334,46.0,72.0
1367,192.75556627083336,192.83560900833334,58.0,100.0
1368,192.75556627083336,192.8504317375,55.0,88.0
1369,192.75556627083336,192.85487855625001,62.0,92.0
1370,192.39982077083334,192.89341765208334,43.0,69.0
1371,192.93343902083333,193.05053858125,58.0,99.0
1372,192.93343902083333,193.05794994583334,55.0,79.0
1373,192.93343902083333,193.05794994583334,62.0,88.0
1374,193.46705727083332,193.53820637083334,60.0,100.0
1375,193.46705727083332,193.54858228125,63.0,112.0
1376,193.46705727083332,193.56044046458334,56.0,95.0
1377,193.11131177083334,193.66864638750002,44.0,66.0
1378,193.64493002083333,193.72349048541668,60.0,89.0
1379,193.64493002083333,193.74572457916668,63.0,93.0
1380,193.64493002083333,193.77092321875,56.0,97.0
1381,194.17854827083335,194.26896691875,58.0,107.0
1382,194.17854827083335,194.27489601041668,53.0,88.0
1383,194.17854827083335,194.28378964791668,62.0,93.0
1384,193.82280277083333,194.36976147708333,46.0,66.0
1385,194.35642102083335,194.47648512708332,58.0,95.0
1386,194.35642102083335,194.48982558333333,62.0,81.0
1387,194.35642102083335,194.50168376666667,53.0,76.0
1388,194.89003927083334,194.96415291666668,58.0,99.0
1389,194.89003927083334,194.96859973541666,62.0,90.0
1390,194.89003927083334,194.97749337291668,53.0,82.0
1391,194.53429377083333,195.07532338541668,46.0,92.0
1392,195.06791202083335,195.17018885208333,53.0,76.0
1393,195.06791202083335,195.171671125,58.0,107.0
1394,195.06791202083335,195.171671125,62.0,93.0
1395,195.60153027083334,195.66675027916668,62.0,95.0
1396,195.60153027083334,195.669714825,58.0,127.0
1397,195.60153027083334,195.68601982708333,53.0,93.0
1398,195.77940302083334,195.87130394166667,53.0,85.0
1399,195.77940302083334,195.8742684875,58.0,122.0
1400,195.77940302083334,195.87871530625,62.0,96.0
1401,195.24578477083332,195.88760894375,46.0,92.0
1402,195.95727577083335,196.4716244729167,41.0,85.0
1403,196.31302127083333,196.47755356458333,58.0,127.0
1404,196.31302127083333,196.48348265625,53.0,97.0
1405,196.31302127083333,196.49237629375,62.0,100.0
1406,196.66876677083334,196.950398625,55.0,96.0
1407,196.66876677083334,196.9681859,48.0,89.0
1408,196.66876677083334,196.9681859,63.0,112.0
1409,196.66876677083334,196.96966817291667,60.0,99.0
1410,198.09174877083333,198.23552924375,62.0,96.0
1411,198.09174877083333,198.24145833541667,55.0,96.0
1412,198.09174877083333,198.24590515416668,43.0,88.0
1413,198.09174877083333,198.24738742708334,58.0,117.0
1414,198.44749427083335,198.61202656458335,58.0,102.0
1415,198.44749427083335,198.61499111041667,55.0,92.0
1416,198.44749427083335,198.61943792916668,62.0,95.0
1417,198.44749427083335,198.65204793333334,43.0,89.0
1418,198.80323977083333,199.11155253750002,55.0,89.0
1419,198.80323977083333,199.11155253750002,58.0,102.0
1420,198.80323977083333,199.11451708333334,43.0,89.0
1421,198.80323977083333,199.120446175,62.0,89.0
1422,199.51473077083335,199.67036942708333,63.0,77.0
1423,199.51473077083335,199.67481624583334,60.0,88.0
1424,199.51473077083335,199.68667442916666,55.0,79.0
1425,199.51473077083335,199.69260352083333,48.0,72.0
1426,200.22622177083335,200.41595270416667,55.0,88.0
1427,200.22622177083335,200.41743497708333,60.0,88.0
1428,200.22622177083335,200.42336406875,63.0,90.0
1429,200.22622177083335,200.43966907083333,48.0,99.0
1430,200.93771277083334,202.04052382083333,62.0,89.0
1431,200.93771277083334,202.108708375,58.0,100.0
1432,200.93771277083334,202.12797792291667,43.0,74.0
1433,200.93771277083334,202.13687156041667,55.0,92.0
1434,202.36069477083333,202.47186523958334,63.0,32.0
1435,202.71644027083335,202.78314255208335,60.0,99.0
1436,202.71644027083335,202.79203618958334,63.0,100.0
1437,202.71644027083335,202.79500073541666,55.0,88.0
1438,202.36069477083333,202.97732030416665,48.0,88.0
1439,202.89431302083335,202.99658985208333,55.0,72.0
1440,202.89431302083335,202.99807212500002,60.0,97.0
1441,202.89431302083335,203.00400121666667,63.0,95.0
1442,203.42793127083334,203.52427901041668,60.0,93.0
1443,203.42793127083334,203.53465492083333,55.0,89.0
1444,203.42793127083334,203.53910173958334,63.0,93.0
1445,203.07218577083333,203.55095992291666,43.0,75.0
1446,204.13942227083334,204.21353591666667,60.0,97.0
1447,204.13942227083334,204.22094728125,63.0,99.0
1448,204.13942227083334,204.22391182708333,55.0,81.0
1449,204.31729502083334,204.41364276041668,60.0,96.0
1450,204.31729502083334,204.41660730625,63.0,96.0
1451,204.31729502083334,204.41957185208332,55.0,77.0
1452,203.78367677083332,204.44180594583332,48.0,85.0
1453,204.85091327083333,204.93243828125,55.0,93.0
1454,204.85091327083333,204.94133191875,60.0,112.0
1455,204.85091327083333,204.95022555625002,63.0,100.0
1456,204.49516777083335,205.06584284375,43.0,83.0
1457,205.56240427083333,205.6394824625,63.0,100.0
1458,205.56240427083333,205.64096473541667,55.0,83.0
1459,205.56240427083333,205.64096473541667,60.0,112.0
1460,205.74027702083333,205.84107157916668,55.0,78.0
1461,205.74027702083333,205.84255385208334,60.0,99.0
1462,205.74027702083333,205.84848294375,63.0,107.0
1463,205.20665877083334,205.91222067916667,48.0,85.0
1464,206.27389527083335,206.34504437083334,63.0,100.0
1465,206.27389527083335,206.34800891666669,60.0,107.0
1466,206.27389527083335,206.35245573541667,55.0,85.0
1467,205.91814977083334,206.50068302708334,43.0,73.0
1468,206.98538627083335,207.05505309791667,60.0,99.0
1469,206.98538627083335,207.05653537083333,55.0,79.0
1470,206.98538627083335,207.05949991666668,63.0,97.0
1471,207.16325902083332,207.24923085,60.0,107.0
1472,207.16325902083332,207.25367766875002,63.0,100.0
1473,207.16325902083332,207.2581244875,55.0,78.0
1474,206.62964077083333,207.31593313125,48.0,69.0
1475,207.69687727083334,207.79618955625,60.0,102.0
1476,207.69687727083334,207.80211864791667,55.0,89.0
1477,207.34113177083333,207.8095300125,43.0,81.0
1478,207.69687727083334,207.81545910416668,63.0,102.0
1479,208.40836827083334,208.49878691875,63.0,107.0
1480,208.40836827083334,208.51360964791667,58.0,112.0
1481,208.40836827083334,208.52843237708333,67.0,86.0
1482,208.05262277083335,208.63960284583334,51.0,100.0
1483,208.76411377083335,209.17766791458334,46.0,97.0
1484,209.11985927083333,209.22806519375,63.0,107.0
1485,209.11985927083333,209.22806519375,67.0,83.0
1486,209.11985927083333,209.25622837916666,58.0,107.0
1487,209.83135027083335,209.96771937916668,53.0,89.0
1488,209.83135027083335,209.96771937916668,58.0,95.0
1489,209.83135027083335,209.97661301666668,62.0,88.0
1490,209.47560477083334,210.06406711875002,46.0,93.0
1491,210.18709577083334,210.63918901041666,41.0,71.0
1492,210.54284127083332,210.65252946666666,53.0,92.0
1493,210.54284127083332,210.66586992291667,58.0,97.0
1494,210.54284127083332,210.68069265208334,62.0,90.0
1495,211.25433227083334,211.37143183125,63.0,68.0
1496,211.25433227083334,211.37884319583333,58.0,95.0
1497,211.25433227083334,211.39218365208333,67.0,72.0
1498,210.89858677083333,211.5063186666667,51.0,99.0
1499,211.96582327083334,212.0962632875,67.0,88.0
1500,211.96582327083334,212.10515692500002,63.0,102.0
1501,211.96582327083334,212.13628465625,58.0,102.0
1502,211.61007777083333,212.1674123875,46.0,66.0
1503,212.32156877083332,212.71733563958333,43.0,77.0
1504,212.67731427083334,212.75142791666667,58.0,100.0
1505,212.67731427083334,212.7543924625,62.0,88.0
1506,212.67731427083334,212.76625064583334,55.0,88.0
1507,212.85518702083334,212.93078293958334,63.0,69.0
1508,212.85518702083334,212.9559815791667,55.0,58.0
1509,212.85518702083334,212.96191067083333,62.0,81.0
1510,212.85518702083334,212.97376885416668,58.0,90.0
1511,213.38880527083333,213.50886937708333,55.0,93.0
1512,213.03305977083335,213.52072756041667,38.0,71.0
1513,213.38880527083333,213.52517437916669,58.0,107.0
1514,213.38880527083333,213.53999710833335,62.0,93.0
1515,213.74455077083334,213.99209034791667,60.0,95.0
1516,213.74455077083334,214.00394853125,56.0,97.0
1517,213.74455077083334,214.01284216875,63.0,107.0
1518,213.74455077083334,214.026182625,44.0,69.0
1519,213.74455077083334,214.03655853541667,51.0,68.0
1520,214.81178727083335,215.09786594375,39.0,92.0
1521,214.81178727083335,215.11417094583334,51.0,102.0
1522,215.16753277083333,215.38394461666667,60.0,97.0
1523,215.16753277083333,215.40617871041667,56.0,102.0
1524,215.16753277083333,215.41210780208334,63.0,102.0
1525,215.16753277083333,215.4150723479167,44.0,54.0
1526,215.16753277083333,215.41803689375,51.0,96.0
1527,216.23476927083334,216.50009612291666,51.0,99.0
1528,216.23476927083334,216.53863521875002,39.0,86.0
1529,216.59051477083335,216.86177071458334,58.0,117.0
1530,216.59051477083335,216.86473526041667,53.0,99.0
1531,216.59051477083335,216.86621753333333,62.0,100.0
1532,216.59051477083335,216.87066435208334,46.0,122.0
1533,217.65775127083333,217.75113446458334,58.0,127.0
1534,217.65775127083333,217.80449628958334,46.0,107.0
1535,218.01349677083334,218.17802906458334,63.0,69.0
1536,218.01349677083334,218.1972986125,58.0,100.0
1537,218.01349677083334,218.20174543125,67.0,76.0
1538,218.01349677083334,218.23583770833335,51.0,112.0
1539,218.36924227083335,218.52043410833335,46.0,112.0
1540,218.36924227083335,218.54711502083333,58.0,112.0
1541,218.72498777083334,219.02292462708334,63.0,107.0
1542,218.72498777083334,219.0244069,58.0,117.0
1543,218.72498777083334,219.04219417500002,67.0,88.0
1544,218.72498777083334,219.0510878125,51.0,117.0
