,start,end,pitch,velocity
0,16.83386805416667,17.302222687500002,57.0,68.0
1,17.213615054166667,17.57912154166667,59.0,64.0
2,17.59336205416667,18.077539479166667,62.0,64.0
3,18.35285605416667,19.354438766666668,62.0,74.0
4,19.87184405416667,20.09494541666667,66.0,86.0
5,20.125008720833335,20.275325241666668,64.0,79.0
6,20.378173387500002,21.009502775,62.0,81.0
7,21.011085054166667,22.51583254166667,57.0,86.0
8,22.90982005416667,23.34178226666667,62.0,69.0
9,23.289567054166668,23.582288700000003,64.0,67.0
10,23.66931405416667,24.170896550000002,66.0,76.0
11,24.42880805416667,25.699378225000004,66.0,90.0
12,25.568049054166668,25.7895681375,69.0,70.0
13,25.94779605416667,26.38450510416667,66.0,59.0
14,26.327543054166668,26.734188800000002,62.0,60.0
15,26.70729005416667,28.381341412500003,64.0,72.0
16,28.60602505416667,28.756341575000004,69.0,71.0
17,28.98577205416667,29.153493645833336,69.0,79.0
18,29.55539255416667,29.661405258333335,69.0,76.0
19,29.74526605416667,31.32121610416667,69.0,79.0
20,31.64400105416667,32.003178425,57.0,60.0
21,32.02374805416667,32.46045710416667,62.0,65.0
22,32.40349505416667,32.83071042916667,61.0,77.0
23,32.78324205416667,34.20254646666667,59.0,62.0
24,35.44147105416667,35.6440027875,57.0,68.0
25,35.63134455416667,35.791154750000004,62.0,60.0
26,35.82121805416667,35.97786369166667,66.0,67.0
27,36.20096505416667,36.55064875,62.0,60.0
28,36.58071205416667,36.816471650000004,69.0,75.0
29,36.77058555416667,36.90349700416667,66.0,81.0
30,37.15033255416667,37.59178844166667,71.0,95.0
31,37.71995305416667,38.14875070833334,69.0,70.0
32,38.09970005416667,38.329130533333334,62.0,69.0
33,38.47944705416667,38.65508004166667,66.0,74.0
34,38.85919405416667,41.10761275,64.0,75.0
35,41.17881531250001,41.64558766666667,57.0,68.0
36,41.5585623125,41.92248652083334,59.0,64.0
37,41.9383093125,42.4224867375,62.0,64.0
38,42.69780331250001,43.699386025,62.0,74.0
39,44.15191786666667,44.53799398333334,66.0,76.0
40,44.490525608333336,44.8908422375,64.0,67.0
41,44.862361212500005,45.356032312500005,62.0,77.0
42,45.311728495833336,46.46995684583334,57.0,72.0
43,47.25476731250001,47.686729525000004,62.0,69.0
44,47.6345143125,47.92565367916667,64.0,67.0
45,48.014261312500004,48.514261529166674,66.0,76.0
46,48.77375531250001,50.04274320416667,66.0,90.0
47,49.912996312500006,50.13293311666667,69.0,70.0
48,50.29274331250001,50.727870083333336,66.0,59.0
49,50.6724903125,51.07913605833334,62.0,60.0
50,51.052237312500004,52.72628867083334,64.0,72.0
51,52.95097231250001,53.09970655416667,69.0,71.0
52,53.33071931250001,53.49844090416667,69.0,79.0
53,53.90033981250001,54.004770237500004,69.0,76.0
54,54.090213312500005,55.66458108333334,69.0,79.0
55,55.98894831250001,56.346543404166674,57.0,60.0
56,56.36869531250001,56.80382208333334,62.0,65.0
57,56.7484423125,57.17407540833334,61.0,77.0
58,57.128189312500005,58.547493725,59.0,62.0
59,59.786418312500004,59.98895004583334,57.0,68.0
60,59.97629181250001,60.13610200833334,62.0,60.0
61,60.166165312500006,60.32122867083334,66.0,67.0
62,60.54591231250001,60.89559600833334,62.0,60.0
63,60.9256593125,61.15983662916667,69.0,75.0
64,61.11553281250001,61.24844426250001,66.0,81.0
65,61.49527981250001,61.93515342083334,71.0,95.0
66,62.06490031250001,62.49369796666667,69.0,70.0
67,62.40350805416667,62.84021710416667,64.0,84.0
68,62.78325505416667,63.09654632916667,66.0,84.0
69,63.163002054166675,65.44148405416668,62.0,84.0
70,65.82123105416667,66.03167418333334,62.0,84.0
71,66.20097805416667,67.224712675,67.0,84.0
72,67.34021905416667,67.58230776666667,71.0,84.0
73,67.71996605416668,68.21996627083334,74.0,84.0
74,68.47946005416668,68.68357406666668,73.0,84.0
75,68.66933355416667,69.02218180833334,71.0,84.0
76,69.23895405416667,70.35920770416668,69.0,84.0
77,70.37819505416667,70.56173943750001,74.0,84.0
78,70.75794205416668,71.56332215,66.0,84.0
79,71.51743605416668,71.75161337083334,62.0,84.0
80,71.76901844166667,71.88927165833334,66.0,84.0
81,72.05541097083334,72.17249962916668,71.0,84.0
82,72.31965159166667,72.64243654166667,69.0,84.0
83,72.65667705416668,72.98420884166667,69.0,84.0
84,73.04433545,73.2484494625,61.0,84.0
85,73.27851276666668,73.45414575416667,64.0,84.0
86,73.5807280875,73.71680409583334,71.0,84.0
87,73.8180699625,74.1218675625,69.0,84.0
88,74.17566505416667,74.44307023333334,69.0,84.0
89,74.5680702875,74.87977928333333,67.0,84.0
90,74.82914635,75.14401990416667,64.0,84.0
91,75.09655152916667,75.25003260833334,71.0,86.0
92,75.34971619583334,76.73104590833334,69.0,86.0
93,77.97313505416668,78.18357818333334,62.0,89.0
94,78.35288205416667,79.37661667500001,67.0,90.0
95,79.49212305416667,79.73421176666668,71.0,94.0
96,79.87187005416668,80.37187027083334,74.0,94.0
97,80.63136405416667,80.83547806666668,73.0,94.0
98,80.82123755416667,81.17408580833334,71.0,94.0
99,81.39085805416667,82.51111170416668,69.0,94.0
100,82.53009905416667,82.71364343750001,74.0,93.0
101,82.90984605416668,83.71522615,66.0,93.0
102,83.66934005416667,83.90351737083334,62.0,91.0
103,83.92092244166668,84.04117565833334,66.0,89.0
104,84.20731497083334,84.32440362916668,71.0,90.0
105,84.47155559166667,84.79434054166667,69.0,87.0
106,84.80858105416668,85.13611284166667,69.0,89.0
107,85.18832805416667,85.39244206666667,61.0,87.0
108,85.43041676666668,85.60604975416668,64.0,85.0
109,85.73263208750001,85.86870809583334,71.0,85.0
110,85.9699739625,86.2737715625,69.0,87.0
111,86.32756905416667,86.59497423333335,69.0,83.0
112,86.71364517083335,86.94624020833334,64.0,83.0
113,86.93041741666667,87.18832892083334,66.0,81.0
114,87.16301245416668,87.43674675000001,64.0,82.0
115,87.46681005416667,88.92883600416667,62.0,80.0
116,89.78643131250001,90.25320366666668,57.0,68.0
117,90.16617831250001,90.53010252083334,59.0,64.0
118,90.5459253125,91.0301027375,62.0,64.0
119,91.3054193125,92.307002025,62.0,74.0
120,92.68516674583334,93.06491374583334,66.0,70.0
121,93.00004030000001,93.29750878333334,64.0,63.0
122,93.27693915416667,93.89402802916668,62.0,55.0
123,93.86712928333334,95.06807917083334,57.0,65.0
124,95.86238331250001,96.29434552500001,62.0,69.0
125,96.24213031250001,96.53326967916668,64.0,67.0
126,96.6218773125,97.12187752916668,66.0,76.0
127,97.38137131250001,98.56808068750001,66.0,90.0
128,98.5206123125,98.74054911666667,69.0,70.0
129,98.76428330416668,99.04592899583334,66.0,84.0
130,98.97314415416668,99.24687845000001,64.0,74.0
131,99.18516956250001,99.57704736250001,62.0,67.0
132,99.58939304583335,99.97056601875,64.0,90.0
133,100.04926975000001,100.93044289791668,64.0,94.0
134,101.50760359375,101.65266537291667,69.0,71.0
135,101.87797409375001,102.04155439791668,69.0,79.0
136,102.43352984375001,102.53538173125001,69.0,76.0
137,102.61871509375001,104.17843208333335,69.0,79.0
138,104.50279931250002,104.8622401875,57.0,60.0
139,104.8846760625,105.32538075000001,62.0,75.0
140,105.2692910625,105.70038037500001,61.0,75.0
141,105.6539060625,107.080816725,59.0,75.0
142,108.3197413125,108.52227304583334,57.0,75.0
143,108.5096148125,108.66942500833333,62.0,75.0
144,108.69948831250001,108.85455167083333,66.0,75.0
145,109.0792353125,109.42891900833334,62.0,75.0
146,109.4589823125,109.69315962916667,69.0,75.0
147,109.6488558125,109.78176726250001,66.0,75.0
148,110.02860281250001,110.46847642083334,71.0,75.0
149,110.59822331250001,111.02702096666667,69.0,75.0
150,110.93683105416667,111.37354010416666,64.0,75.0
151,111.31657805416667,111.62986932916667,66.0,75.0
152,111.69632505416668,113.97480705416667,62.0,76.0
153,114.35455405416667,114.56499718333333,62.0,80.0
154,114.73430105416668,115.758035675,67.0,80.0
155,115.87354205416668,116.11563076666667,71.0,80.0
156,116.25328905416667,116.75328927083333,74.0,80.0
157,117.01278305416668,117.21689706666668,73.0,80.0
158,117.20265655416668,117.55550480833334,71.0,80.0
159,117.77227705416666,118.89253070416667,69.0,80.0
160,118.91151805416668,119.0950624375,74.0,79.0
161,119.29126505416667,120.09664515,66.0,79.0
162,120.05075905416668,120.28493637083334,62.0,79.0
163,120.30234144166667,120.42259465833334,66.0,79.0
164,120.58873397083335,120.70582262916668,71.0,78.0
165,120.85297459166668,121.17575954166668,69.0,78.0
166,121.19000005416667,121.51753184166667,69.0,78.0
167,121.56974705416667,121.77386106666667,61.0,78.0
168,121.82765855833334,122.00329154583333,64.0,78.0
169,122.1140510875,122.25012709583334,71.0,78.0
170,122.3513929625,122.65519056250001,69.0,78.0
171,122.70898805416667,122.97639323333334,69.0,78.0
172,123.1013932875,123.41310228333334,67.0,78.0
173,123.36246935,123.67734290416666,64.0,78.0
174,123.62987452916667,123.78335560833334,71.0,78.0
175,123.88303919583333,125.26436890833334,69.0,78.0
176,126.50645805416667,126.71690118333333,62.0,81.0
177,126.88620505416668,127.909939675,67.0,81.0
178,128.02544605416668,128.26753476666667,71.0,84.0
179,128.40519305416666,128.90519327083334,74.0,84.0
180,129.16468705416668,129.36880106666666,73.0,86.0
181,129.35456055416668,129.70740880833335,71.0,86.0
182,129.92418105416667,131.04443470416666,69.0,86.0
183,131.06342205416667,131.24696643750002,74.0,86.0
184,131.44316905416667,132.24854915,66.0,86.0
185,132.20266305416666,132.43684037083335,62.0,86.0
186,132.45424544166667,132.57449865833334,66.0,86.0
187,132.74063797083335,132.85772662916668,71.0,86.0
188,133.00487859166668,133.32766354166668,69.0,86.0
189,133.34190405416666,133.66943584166668,69.0,86.0
190,133.72165105416667,133.92576506666668,61.0,86.0
191,133.96373976666666,134.1393727541667,64.0,86.0
192,134.2659550875,134.40203109583334,71.0,86.0
193,134.5032969625,135.24222133333333,69.0,86.0
194,135.24696817083333,135.47956320833333,64.0,86.0
195,135.46374041666667,135.72165192083335,66.0,86.0
196,135.69633545416667,135.97006975,64.0,86.0
197,136.00013305416667,137.46215900416666,62.0,86.0
198,138.27861505416666,138.7469696875,57.0,68.0
199,138.65836205416667,139.02386854166667,59.0,64.0
200,139.03810905416668,139.52228647916667,62.0,64.0
201,139.79760305416667,140.79918576666668,62.0,74.0
202,141.31500877500002,141.713743125,66.0,84.0
203,141.62197093333333,141.89412295,64.0,80.0
204,141.86880648333334,142.35140162916667,62.0,76.0
205,142.33716111666666,143.65836422083333,57.0,53.0
206,144.35456705416667,144.78652926666666,62.0,69.0
207,144.73431405416667,145.0270357,64.0,67.0
208,145.11406105416668,145.61564355000002,66.0,76.0
209,145.87355505416667,147.04602391666668,66.0,90.0
210,146.97165679583333,147.41153040416668,69.0,83.0
211,147.3672265875,147.61247985833336,66.0,80.0
212,147.56342920416668,147.82134070833334,64.0,67.0
213,147.78020145,148.19634087083335,62.0,59.0
214,148.16944212500002,148.53969545,64.0,74.0
215,148.5966575,149.69475924166667,64.0,97.0
216,150.05077205416669,150.201088575,69.0,71.0
217,150.43051905416667,150.59824064583336,69.0,79.0
218,151.00013955416668,151.10615225833334,69.0,76.0
219,151.19001305416668,152.76596310416667,69.0,79.0
220,153.08874805416667,153.447925425,57.0,60.0
221,153.46849505416668,153.90520410416667,62.0,65.0
222,153.8482420541667,154.2754574291667,61.0,77.0
223,154.22798905416667,155.64729346666667,59.0,62.0
224,156.88621805416668,157.0887497875,57.0,68.0
225,157.07609155416668,157.23590175,62.0,60.0
226,157.26596505416668,157.42261069166668,66.0,67.0
227,157.64571205416667,157.99539575,62.0,60.0
228,158.02545905416667,158.26121865000002,69.0,75.0
229,158.21533255416668,158.34824400416667,66.0,81.0
230,158.59507955416666,159.03653544166667,71.0,95.0
231,159.16470005416667,159.59349770833336,69.0,70.0
232,159.54444705416668,159.77387753333335,64.0,69.0
233,159.92419405416666,160.49381455416668,66.0,74.0
234,160.68368805416668,162.55235975,62.0,75.0
235,178.1661545,178.37396700000002,62.0,92.0
236,178.5411545,179.55209200000002,67.0,92.0
237,179.6661545,179.90521700000002,71.0,92.0
238,180.0411545,180.5349045,74.0,92.0
239,180.7911545,180.992717,73.0,92.0
240,180.9786545,181.32709200000002,71.0,92.0
241,181.5411545,182.64740450000002,69.0,92.0
242,182.6661545,182.8474045,74.0,93.0
243,183.0411545,183.836467,66.0,93.0
244,183.7911545,184.02240450000002,62.0,93.0
245,184.039592,184.158342,66.0,93.0
246,184.3224045,184.43828662916667,71.0,93.0
247,184.58543859166667,184.90822354166667,69.0,94.0
248,184.92246405416668,185.24999584166667,69.0,95.0
249,185.3022110541667,185.50632506666668,61.0,95.0
250,185.54429976666668,185.71993275416668,64.0,95.0
251,185.84651508750002,185.98259109583336,71.0,96.0
252,186.08385696250002,186.38765456250002,69.0,97.0
253,186.4414520541667,186.70885723333333,69.0,98.0
254,186.83385728750002,187.14556628333335,67.0,98.0
255,187.09493335000002,187.4098069041667,64.0,98.0
256,187.36233852916666,187.51581960833335,71.0,98.0
257,187.61550319583336,188.99683290833335,69.0,99.0
258,190.23892205416666,190.44936518333336,62.0,100.0
259,190.61866905416667,191.64240367500003,67.0,100.0
260,191.75791005416667,191.99999876666666,71.0,99.0
261,192.13765705416668,192.63765727083336,74.0,99.0
262,192.89715105416667,193.10126506666668,73.0,97.0
263,193.08702455416667,193.43987280833335,71.0,97.0
264,193.6566450541667,194.77689870416668,69.0,96.0
265,194.7958860541667,194.9794304375,74.0,94.0
266,195.17563305416667,195.98101315000002,66.0,92.0
267,195.93512705416668,196.16930437083334,62.0,91.0
268,196.18670944166666,196.30696265833333,66.0,91.0
269,196.47310197083334,196.59019062916667,71.0,91.0
270,196.73734259166667,197.06012754166667,69.0,91.0
271,197.07436805416668,197.40189984166668,69.0,91.0
272,197.46202645000002,197.6661404625,61.0,91.0
273,197.69620376666668,197.87183675416668,64.0,91.0
274,197.9984190875,198.13449509583336,71.0,91.0
275,198.23576096250002,198.97468533333335,69.0,91.0
276,198.97943217083335,199.21202720833335,64.0,91.0
277,199.1962044166667,199.45411592083335,66.0,91.0
278,199.42879945416666,199.70253375000001,64.0,91.0
279,199.7325970541667,201.1946230041667,62.0,91.0
280,202.39082605416667,202.60126918333336,62.0,91.0
281,202.77057305416668,203.79430767500003,67.0,91.0
282,203.90981405416667,204.1519027666667,71.0,76.0
283,204.28956105416668,204.78956127083336,74.0,81.0
284,205.04905505416667,205.2531690666667,73.0,100.0
285,205.23892855416668,205.59177680833335,71.0,67.0
286,205.8085490541667,206.92880270416669,69.0,83.0
287,206.9477900541667,207.13133443750002,74.0,77.0
288,207.32753705416667,208.13291715000003,66.0,95.0
289,208.0870310541667,208.32120837083335,62.0,98.0
290,208.33861344166667,208.45886665833333,66.0,67.0
291,208.62500597083334,208.74209462916667,71.0,86.0
292,208.88924659166668,209.21203154166668,69.0,100.0
293,209.22627205416669,209.55380384166668,69.0,71.0
294,209.60601905416667,209.81013306666668,61.0,76.0
295,209.83228497500002,210.00791796250002,64.0,62.0
296,210.1503230875,210.28639909583336,71.0,85.0
297,210.38766496250003,210.69146256250002,69.0,90.0
298,210.7452600541667,211.01266523333334,69.0,85.0
299,211.1376652875,211.44937428333336,67.0,95.0
300,211.39874135000002,211.7136149041667,64.0,71.0
301,211.66614652916667,211.81962760833335,71.0,72.0
302,211.91931119583336,213.30064090833335,69.0,108.0
303,214.54273005416667,214.75317318333333,62.0,88.0
304,214.92247705416668,215.94621167500003,67.0,88.0
305,216.06171805416668,216.30380676666667,71.0,76.0
306,216.44146505416668,216.94146527083336,74.0,81.0
307,217.20095905416667,217.4050730666667,73.0,100.0
308,217.39083255416668,217.74368080833335,71.0,67.0
309,217.9604530541667,219.0807067041667,69.0,83.0
310,219.0996940541667,219.28323843750002,74.0,77.0
311,219.47944105416667,220.28482115000003,66.0,95.0
312,220.2389350541667,220.47311237083335,62.0,98.0
313,220.49051744166667,220.61077065833334,66.0,67.0
314,220.77690997083334,220.89399862916667,71.0,86.0
315,221.04115059166668,221.36393554166668,69.0,100.0
316,221.3781760541667,221.70570784166668,69.0,71.0
317,221.76583445,221.9699484625,61.0,76.0
318,222.0000117666667,222.17564475416668,64.0,62.0
319,222.3022270875,222.43830309583336,71.0,85.0
320,222.53956896250003,223.27849333333336,69.0,90.0
321,223.28324017083335,223.51583520833336,64.0,66.0
322,223.50001241666666,223.75792392083335,66.0,63.0
323,223.73260745416667,224.00634175000002,64.0,64.0
324,224.03640505416666,225.4984310041667,62.0,60.0
325,226.32754528750002,226.59653274583334,62.0,74.0
326,226.60286186250002,226.78165940833335,66.0,63.0
327,226.86235564583336,227.03640635416667,71.0,81.0
328,227.12026715000002,227.37343181666668,69.0,86.0
329,227.52374833750002,227.73102690833335,69.0,72.0
330,227.84020417083335,228.17564735416667,61.0,90.0
331,228.13925493333335,228.33862210833334,64.0,71.0
332,228.42881202083333,228.610774125,71.0,87.0
333,228.7009640375,230.4588761916667,69.0,93.0
334,230.84178775,231.33071201250002,64.0,65.0
335,231.39242090000002,232.22469974166668,66.0,92.0
336,232.16773769166667,232.93039625,64.0,92.0
337,233.0791304916667,235.45887835833335,62.0,77.0
