,start,end,pitch,velocity
0,2.337026329166667,7.971522441666667,66.0,64.0
1,2.4430390333333336,7.976269279166668,69.0,56.0
2,2.308545304166667,7.9778515583333345,62.0,54.0
3,2.3908238208333334,7.998421187500001,50.0,58.0
4,8.462028983333335,11.514245495833334,64.0,64.0
5,8.435130237500001,11.517410054166668,61.0,81.0
6,8.466775820833334,11.525321450000002,45.0,74.0
7,8.387661862500002,11.528486008333335,57.0,11.0
8,11.455701166666667,14.243677058333335,66.0,61.0
9,11.556967033333335,14.243677058333335,69.0,57.0
10,11.393992279166667,14.256335291666668,62.0,58.0
11,11.514245495833334,14.289563154166668,50.0,79.0
12,14.507917679166669,17.82912165,66.0,71.0
13,17.59336205416667,17.82912165,66.0,53.0
14,14.574373404166668,17.837033045833333,69.0,59.0
15,14.431968279166668,17.84494444166667,62.0,58.0
16,17.59336205416667,17.84494444166667,62.0,46.0
17,14.555386054166668,17.92089384166667,50.0,70.0
18,17.59336205416667,17.92089384166667,50.0,58.0
19,17.973109054166667,18.368678845833337,57.0,65.0
20,18.35285605416667,18.960451254166667,62.0,62.0
21,18.732603054166667,19.27848936666667,57.0,56.0
22,19.11235005416667,19.802223770833336,66.0,67.0
23,19.492097054166667,19.893995962500004,57.0,63.0
24,19.681970554166668,20.24209737916667,62.0,64.0
25,20.06171755416667,20.26583156666667,57.0,59.0
26,21.011085054166667,21.587034670833336,57.0,58.0
27,21.39083205416667,21.802224637500004,62.0,60.0
28,21.770579054166667,22.272161550000003,57.0,63.0
29,22.15032605416667,22.89083270416667,66.0,64.0
30,22.530073054166667,23.14241509166667,57.0,60.0
31,20.63133805416667,23.248427795833337,50.0,66.0
32,23.289567054166668,23.604440608333334,57.0,66.0
33,22.90982005416667,23.66931405416667,62.0,61.0
34,24.049061054166668,24.47152959166667,57.0,46.0
35,24.42880805416667,25.011086787500002,62.0,61.0
36,24.808555054166668,25.302226154166668,57.0,58.0
37,25.18830205416667,25.92880870416667,66.0,63.0
38,25.568049054166668,26.0933657375,57.0,59.0
39,25.94779605416667,26.3591886375,62.0,61.0
40,23.66931405416667,26.405074733333336,50.0,61.0
41,26.292732912500004,26.686720425000004,57.0,59.0
42,26.70729005416667,27.411404283333336,57.0,59.0
43,26.70729005416667,27.598113225000002,61.0,69.0
44,27.846531054166668,28.318050245833337,57.0,72.0
45,27.46678405416667,28.346531270833335,52.0,59.0
46,28.60602505416667,28.971531541666668,52.0,63.0
47,28.22627805416667,29.25634179166667,61.0,72.0
48,28.98577205416667,29.490519108333338,57.0,59.0
49,29.36551905416667,29.632924233333338,52.0,58.0
50,27.087037054166668,29.67881032916667,49.0,67.0
51,26.70729005416667,29.712038191666668,45.0,58.0
52,29.74526605416667,30.056975050000002,62.0,56.0
53,29.74526605416667,30.18672194166667,66.0,64.0
54,30.12501305416667,30.517418287500004,57.0,55.0
55,30.50476005416667,31.05539320416667,62.0,56.0
56,30.88450705416667,31.35444396666667,57.0,59.0
57,31.26425405416667,31.982608795833336,66.0,76.0
58,32.02374805416667,32.306976025000004,62.0,58.0
59,31.64400105416667,32.310140583333336,57.0,58.0
60,29.74526605416667,32.41931784583333,50.0,64.0
61,32.40349505416667,32.77374837916667,57.0,58.0
62,33.16298905416667,33.63767280416667,55.0,67.0
63,33.54273605416667,34.104445158333334,62.0,62.0
64,34.68197705416667,34.935141720833336,71.0,75.0
65,34.30223005416667,35.18039499166667,67.0,81.0
66,35.06172405416667,35.18039499166667,67.0,61.0
67,33.92248305416667,35.22786336666667,55.0,64.0
68,32.789571170833334,35.40824319166667,43.0,75.0
69,33.16298905416667,35.424065983333335,50.0,66.0
70,34.30223005416667,35.537990083333334,62.0,62.0
71,36.20096505416667,36.62343359166667,57.0,46.0
72,36.58071205416667,37.1629907875,62.0,61.0
73,36.96045905416667,37.45413015416667,57.0,58.0
74,37.34020605416667,38.08071270416667,66.0,63.0
75,37.71995305416667,38.2452697375,57.0,59.0
76,38.09970005416667,38.511092637500006,62.0,61.0
77,35.82121805416667,38.55697873333334,50.0,61.0
78,38.4446369125,38.838624425000006,57.0,59.0
79,38.85919405416667,39.563308283333335,57.0,59.0
80,38.85919405416667,39.750017225,61.0,69.0
81,39.99843505416667,40.469954245833335,57.0,72.0
82,39.61868805416667,40.49843527083334,52.0,59.0
83,40.757929054166674,41.07122032916667,64.0,60.0
84,40.757929054166674,41.10444819166667,73.0,77.0
85,40.757929054166674,41.12343554166667,52.0,63.0
86,40.37818205416667,41.40824579166667,61.0,72.0
87,41.13767605416667,41.40824579166667,61.0,90.0
88,41.13767605416667,41.44622049166667,57.0,67.0
89,41.13767605416667,41.449385050000004,64.0,75.0
90,41.13767605416667,41.490524308333335,69.0,71.0
91,39.23894105416667,41.83071432916667,49.0,67.0
92,38.85919405416667,41.86394219166667,45.0,58.0
93,41.89717005416667,42.276917054166674,57.0,79.0
94,41.89717005416667,42.276917054166674,62.0,79.0
95,42.276917054166674,42.69938559166667,57.0,46.0
96,42.65666405416667,43.2389427875,62.0,61.0
97,41.89717005416667,43.41615805416667,50.0,61.0
98,43.03641105416667,43.41615805416667,50.0,70.0
99,43.03641105416667,43.53008215416667,57.0,58.0
100,43.41615805416667,44.15666470416667,66.0,63.0
101,43.795905054166674,44.17565205416667,57.0,59.0
102,44.17565205416667,44.58704463750001,62.0,61.0
103,43.41615805416667,44.63293073333334,50.0,73.0
104,44.17565205416667,44.91457642500001,57.0,59.0
105,44.93514605416667,45.314893054166674,57.0,79.0
106,44.93514605416667,45.314893054166674,62.0,79.0
107,45.314893054166674,45.73736159166667,57.0,46.0
108,45.69464005416667,46.2769187875,62.0,61.0
109,46.07438705416667,46.56805815416667,57.0,58.0
110,46.45413405416667,47.19464070416667,66.0,63.0
111,46.833881054166675,47.359197737500004,57.0,59.0
112,47.21362805416667,47.359197737500004,57.0,59.0
113,47.21362805416667,47.62502063750001,62.0,61.0
114,47.97312205416667,48.35286905416667,57.0,79.0
115,47.97312205416667,48.35286905416667,62.0,79.0
116,48.35286905416667,48.77533759166667,57.0,46.0
117,48.73261605416667,49.3148947875,62.0,61.0
118,49.11236305416667,49.60603415416667,57.0,58.0
119,49.49211005416667,50.232616704166674,66.0,63.0
120,49.87185705416667,50.397173737500005,57.0,59.0
121,50.25160405416667,50.397173737500005,57.0,59.0
122,50.25160405416667,50.66299663750001,62.0,61.0
123,51.01109805416667,51.71521228333334,57.0,59.0
124,51.01109805416667,51.901921225,61.0,69.0
125,51.01109805416667,52.15033905416667,45.0,58.0
126,52.15033905416667,52.530086054166674,45.0,79.0
127,52.15033905416667,52.62185824583334,57.0,72.0
128,51.77059205416667,52.650339270833335,52.0,59.0
129,52.90983305416667,53.22312432916667,64.0,60.0
130,52.90983305416667,53.275339541666675,52.0,63.0
131,51.39084505416667,53.98261832916667,49.0,67.0
132,52.530086054166674,54.011099354166674,61.0,72.0
133,53.28958005416667,54.011099354166674,61.0,74.0
134,52.530086054166674,54.049074054166674,45.0,79.0
135,53.28958005416667,54.049074054166674,57.0,67.0
136,53.28958005416667,54.052238612500005,64.0,75.0
137,53.28958005416667,54.093377870833336,69.0,71.0
138,54.049074054166674,54.42882105416667,57.0,79.0
139,54.049074054166674,54.42882105416667,62.0,79.0
140,54.42882105416667,54.85128959166667,57.0,46.0
141,54.049074054166674,55.18831505416667,50.0,79.0
142,54.80856805416667,55.3908467875,62.0,61.0
143,55.18831505416667,55.568062054166674,50.0,79.0
144,55.18831505416667,55.68198615416667,57.0,58.0
145,55.94780905416667,56.11394836666667,74.0,75.0
146,55.568062054166674,56.308568704166674,66.0,63.0
147,55.94780905416667,56.473125737500006,57.0,59.0
148,56.32755605416667,56.473125737500006,57.0,73.0
149,56.32755605416667,56.7389486375,62.0,73.0
150,56.32755605416667,56.78008789583334,74.0,72.0
151,55.568062054166674,57.087050054166674,50.0,79.0
152,57.087050054166674,57.46679705416667,50.0,79.0
153,57.460467937500006,57.46679705416667,50.0,66.0
154,57.087050054166674,57.46679705416667,55.0,79.0
155,57.460467937500006,57.46679705416667,55.0,67.0
156,57.087050054166674,58.22629105416667,43.0,74.0
157,57.087050054166674,58.22629105416667,43.0,75.0
158,57.84021493750001,58.401924041666675,62.0,62.0
159,58.979455937500006,59.23262060416667,71.0,75.0
160,58.599708937500004,59.35920293750001,62.0,62.0
161,58.599708937500004,59.47787387500001,67.0,81.0
162,59.35920293750001,59.47787387500001,67.0,61.0
163,58.2199619375,59.52534225000001,55.0,64.0
164,59.36553205416667,60.125026054166675,62.0,79.0
165,60.125026054166675,60.50477305416667,57.0,79.0
166,60.125026054166675,60.50477305416667,62.0,79.0
167,60.50477305416667,60.92724159166667,57.0,46.0
168,60.125026054166675,61.26426705416667,50.0,79.0
169,60.88452005416667,61.466798787500004,62.0,61.0
170,61.26426705416667,61.644014054166675,50.0,79.0
171,61.644014054166675,62.34812828333334,57.0,59.0
172,61.644014054166675,62.534837225000004,61.0,69.0
173,61.644014054166675,62.78325505416667,45.0,58.0
174,62.78325505416667,63.163002054166675,45.0,79.0
175,62.02376105416667,63.163002054166675,49.0,67.0
176,62.78325505416667,63.25477424583334,57.0,72.0
177,63.163002054166675,63.25477424583334,57.0,79.0
178,62.40350805416667,63.28325527083334,52.0,59.0
179,63.163002054166675,63.54274905416667,62.0,79.0
180,63.54274905416667,63.92249605416667,69.0,79.0
181,63.163002054166675,64.30224305416667,50.0,79.0
182,63.92249605416667,64.50477478750001,62.0,61.0
183,64.30224305416667,64.68199005416668,50.0,79.0
184,64.30224305416667,64.79591415416667,57.0,58.0
185,64.68199005416668,65.06173705416667,66.0,63.0
186,65.06173705416667,65.47312963750001,62.0,73.0
187,65.06173705416667,65.5870537375,57.0,59.0
188,65.44148405416668,65.5870537375,57.0,73.0
189,65.44148405416668,65.82123105416667,69.0,79.0
190,64.68199005416668,66.20097805416667,50.0,79.0
191,65.82123105416667,66.20097805416667,62.0,79.0
192,66.20097805416667,67.34021905416667,43.0,76.0
193,66.96047205416667,67.39243426666667,67.0,76.0
194,66.96047205416667,67.39401654583334,55.0,53.0
195,66.96047205416667,67.42091529166667,59.0,63.0
196,66.96047205416667,67.42091529166667,62.0,69.0
197,67.34021905416667,67.71996605416668,43.0,79.0
198,68.47946005416668,68.97313115416668,67.0,85.0
199,68.47946005416668,69.0000299,62.0,74.0
200,66.58072505416668,69.00635901666668,50.0,62.0
201,68.47946005416668,69.03800460000001,59.0,65.0
202,68.85920705416667,69.1187008375,55.0,58.0
203,67.71996605416668,69.23895405416667,43.0,79.0
204,69.23895405416667,70.37819505416667,50.0,81.0
205,69.99844805416667,70.4573090125,69.0,69.0
206,69.99844805416667,70.48895459583333,66.0,58.0
207,69.99844805416667,70.56965083333334,62.0,65.0
208,70.37819505416667,70.75794205416668,50.0,79.0
209,69.99844805416667,71.68041080833333,57.0,59.0
210,69.61870105416668,71.77851211666668,54.0,50.0
211,71.51743605416668,72.03484134166668,62.0,79.0
212,71.51743605416668,72.05541097083334,69.0,85.0
213,71.51743605416668,72.08705655416668,66.0,91.0
214,70.75794205416668,72.27693005416667,50.0,79.0
215,71.89718305416667,72.27693005416667,57.0,79.0
216,72.27693005416667,73.41617105416667,45.0,79.0
217,73.03642405416667,73.63927241666667,69.0,48.0
218,73.01427214583335,73.6471838125,61.0,82.0
219,73.01427214583335,73.65509520833334,64.0,82.0
220,73.41617105416667,73.79591805416668,45.0,79.0
221,73.41617105416667,73.88769024583334,57.0,58.0
222,74.55541205416668,74.914589425,69.0,96.0
223,74.55541205416668,74.93832361250001,64.0,96.0
224,72.65667705416668,74.94939956666667,49.0,71.0
225,74.55541205416668,74.96364007916668,61.0,96.0
226,73.03642405416667,74.96838691666667,52.0,58.0
227,74.93515905416668,75.27851363333335,57.0,53.0
228,73.79591805416668,75.31490605416667,45.0,79.0
229,75.31490605416667,76.45414705416667,50.0,86.0
230,76.07440005416667,76.50161542916668,62.0,85.0
231,76.07440005416667,76.59655217916668,69.0,71.0
232,76.07440005416667,76.68357753333333,66.0,81.0
233,76.45414705416667,76.83389405416668,50.0,79.0
234,76.07440005416667,77.6819956875,57.0,57.0
235,75.69465305416668,77.73262862083334,54.0,58.0
236,77.59338805416668,77.78009699583335,62.0,79.0
237,77.59338805416668,77.781679275,69.0,69.0
238,77.59338805416668,77.85446411666668,66.0,74.0
239,76.83389405416668,78.16300855416668,50.0,79.0
240,77.97313505416668,78.29750228333334,62.0,46.0
241,78.35288205416667,79.49212305416667,43.0,76.0
242,79.11237605416667,79.54433826666667,67.0,76.0
243,79.11237605416667,79.54592054583334,55.0,53.0
244,79.11237605416667,79.57281929166668,59.0,63.0
245,79.11237605416667,79.57281929166668,62.0,69.0
246,79.49212305416667,79.87187005416668,43.0,79.0
247,80.63136405416667,81.12503515416667,67.0,85.0
248,80.63136405416667,81.1519339,62.0,74.0
249,78.73262905416668,81.15826301666668,50.0,62.0
250,80.63136405416667,81.18990860000001,59.0,65.0
251,81.01111105416668,81.2706048375,55.0,58.0
252,79.87187005416668,81.39085805416667,43.0,79.0
253,81.39085805416667,81.96522539166668,74.0,74.0
254,81.39085805416667,82.53009905416667,50.0,86.0
255,82.15035205416667,82.57756742916668,62.0,85.0
256,82.15035205416667,82.67250417916668,69.0,71.0
257,82.15035205416667,82.71680799583334,74.0,63.0
258,82.15035205416667,82.75952953333334,66.0,81.0
259,82.53009905416667,82.90984605416668,50.0,79.0
260,82.90984605416668,83.55541595416668,74.0,65.0
261,82.15035205416667,83.7579476875,57.0,57.0
262,81.77060505416668,83.80858062083334,54.0,58.0
263,83.66934005416667,83.85604899583335,62.0,79.0
264,83.66934005416667,83.857631275,69.0,69.0
265,83.66934005416667,83.93041611666668,66.0,74.0
266,83.66934005416667,84.00794779583335,74.0,74.0
267,82.90984605416668,84.23896055416668,50.0,79.0
268,84.42883405416667,85.56807505416667,45.0,79.0
269,85.18832805416667,85.79117641666667,69.0,48.0
270,85.16617614583335,85.7990878125,61.0,82.0
271,85.16617614583335,85.80699920833334,64.0,82.0
272,85.56807505416667,85.94782205416668,45.0,79.0
273,85.56807505416667,86.03959424583334,57.0,58.0
274,86.70731605416667,87.066493425,69.0,96.0
275,86.70731605416667,87.0902276125,64.0,96.0
276,84.80858105416668,87.10130356666667,49.0,71.0
277,86.70731605416667,87.11554407916668,61.0,96.0
278,85.18832805416667,87.12029091666668,52.0,58.0
279,87.08706305416668,87.43041763333335,57.0,53.0
280,85.94782205416668,87.46681005416667,45.0,79.0
281,87.46681005416667,88.60605105416667,50.0,83.0
282,88.22630405416668,88.64402575416668,74.0,74.0
283,88.22630405416668,88.69307640833334,69.0,83.0
284,88.22630405416668,88.87503851250001,66.0,81.0
285,88.60605105416667,88.98579805416668,50.0,79.0
286,88.22630405416668,90.05383649166667,57.0,58.0
287,89.74529205416667,90.05383649166667,57.0,67.0
288,87.84655705416668,90.18516566250001,54.0,62.0
289,88.98579805416668,90.20731757083334,74.0,71.0
290,88.98579805416668,90.28959608750002,69.0,73.0
291,88.98579805416668,90.31491255416668,50.0,79.0
292,88.98579805416668,90.31491255416668,66.0,63.0
293,88.60605105416667,90.53484935833335,62.0,54.0
294,90.50478605416667,90.53484935833335,62.0,79.0
295,90.50478605416667,90.88453305416668,57.0,79.0
296,90.88453305416668,91.30700159166668,57.0,46.0
297,91.26428005416668,91.84655878750002,62.0,61.0
298,90.50478605416667,92.02377405416668,50.0,61.0
299,91.64402705416667,92.02377405416668,50.0,70.0
300,91.64402705416667,92.13769815416667,57.0,58.0
301,92.02377405416668,92.76428070416668,66.0,63.0
302,92.40352105416667,92.78326805416667,57.0,59.0
303,92.78326805416667,93.19466063750001,62.0,61.0
304,92.02377405416668,93.24054673333335,50.0,73.0
305,92.78326805416667,93.52219242500001,57.0,59.0
306,93.54276205416667,93.92250905416668,57.0,79.0
307,93.54276205416667,93.92250905416668,62.0,79.0
308,93.92250905416668,94.34497759166668,57.0,46.0
309,94.30225605416668,94.88453478750002,62.0,61.0
310,94.68200305416667,95.17567415416667,57.0,58.0
311,95.06175005416668,95.80225670416668,66.0,63.0
312,95.44149705416667,95.9668137375,57.0,59.0
313,95.82124405416667,95.9668137375,57.0,59.0
314,95.82124405416667,96.23263663750001,62.0,61.0
315,96.58073805416667,96.96048505416668,57.0,79.0
316,96.58073805416667,96.96048505416668,62.0,79.0
317,96.96048505416668,97.38295359166668,57.0,46.0
318,97.34023205416668,97.92251078750002,62.0,61.0
319,97.71997905416667,98.21365015416667,57.0,58.0
320,98.09972605416668,98.84023270416668,66.0,63.0
321,98.47947305416668,99.0047897375,57.0,59.0
322,98.85922005416667,99.0047897375,57.0,59.0
323,98.85922005416667,99.27061263750001,62.0,61.0
324,99.61562762291668,100.30235625833335,57.0,59.0
325,99.61562762291668,100.48445508750001,61.0,69.0
326,99.61562762291668,100.72673912291668,45.0,58.0
327,100.72673912291668,101.09710962291668,45.0,79.0
328,100.72673912291668,101.18661582708334,57.0,72.0
329,100.35636862291668,101.21439361458334,52.0,59.0
330,101.46748012291668,101.77303578541668,64.0,60.0
331,101.46748012291668,101.82396172916668,52.0,63.0
332,99.98599812291668,102.51377678541668,49.0,67.0
333,101.09710962291668,102.54155457291668,61.0,72.0
334,101.83785062291668,102.54155457291668,61.0,74.0
335,101.09710962291668,102.57859162291668,45.0,79.0
336,101.83785062291668,102.57859162291668,57.0,67.0
337,101.83785062291668,102.58167804375002,64.0,75.0
338,101.83785062291668,102.62180151458334,69.0,71.0
339,102.57859162291668,102.94896212291668,57.0,79.0
340,102.57859162291668,102.94896212291668,62.0,79.0
341,102.94896212291668,103.36514059166667,57.0,46.0
342,102.57859162291668,103.70216605416668,50.0,79.0
343,103.32241905416667,103.90469778750001,62.0,61.0
344,103.70216605416668,104.08191305416668,50.0,79.0
345,103.70216605416668,104.19583715416668,57.0,58.0
346,104.46166005416667,104.62779936666668,74.0,75.0
347,104.08191305416668,104.82377868750001,66.0,63.0
348,104.46166005416667,104.9904451875,57.0,59.0
349,104.8430094375,104.9904451875,57.0,73.0
350,104.8430094375,105.2596756875,62.0,73.0
351,104.8430094375,105.3013423125,74.0,72.0
352,104.08191305416668,105.61223943750001,50.0,79.0
353,105.61223943750001,105.9968544375,50.0,79.0
354,105.9904441875,105.9968544375,50.0,66.0
355,105.61223943750001,105.9968544375,55.0,79.0
356,105.9904441875,105.9968544375,55.0,67.0
357,105.61223943750001,106.75961405416668,43.0,74.0
358,105.61223943750001,106.75961405416668,43.0,75.0
359,106.3735379375,106.93524704166667,62.0,62.0
360,107.5127789375,107.76594360416667,71.0,75.0
361,107.13303193750001,107.89252593750001,62.0,62.0
362,107.13303193750001,108.01119687500001,67.0,81.0
363,107.89252593750001,108.01119687500001,67.0,61.0
364,106.7532849375,108.05866525,55.0,64.0
365,107.89885505416667,108.65834905416668,62.0,79.0
366,108.65834905416668,109.03809605416667,57.0,79.0
367,108.65834905416668,109.03809605416667,62.0,79.0
368,109.03809605416667,109.46056459166667,57.0,46.0
369,108.65834905416668,109.79759005416668,50.0,79.0
370,109.41784305416667,110.0001217875,62.0,61.0
371,109.79759005416668,110.17733705416667,50.0,79.0
372,110.17733705416667,110.88145128333333,57.0,59.0
373,110.17733705416667,111.068160225,61.0,69.0
374,110.17733705416667,111.31657805416667,45.0,58.0
375,111.31657805416667,111.69632505416668,45.0,79.0
376,110.55708405416667,111.69632505416668,49.0,67.0
377,111.31657805416667,111.78809724583334,57.0,72.0
378,111.69632505416668,111.78809724583334,57.0,79.0
379,110.93683105416667,111.81657827083333,52.0,59.0
380,111.69632505416668,112.07607205416667,62.0,79.0
381,112.07607205416667,112.45581905416667,69.0,79.0
382,111.69632505416668,112.83556605416668,50.0,79.0
383,112.45581905416667,113.0380977875,62.0,61.0
384,112.83556605416668,113.21531305416667,50.0,79.0
385,112.83556605416668,113.32923715416668,57.0,58.0
386,113.21531305416667,113.59506005416667,66.0,63.0
387,113.59506005416667,114.0064526375,62.0,73.0
388,113.59506005416667,114.12037673750001,57.0,59.0
389,113.97480705416667,114.12037673750001,57.0,73.0
390,113.97480705416667,114.35455405416667,69.0,79.0
391,113.21531305416667,114.73430105416668,50.0,79.0
392,114.35455405416667,114.73430105416668,62.0,79.0
393,114.73430105416668,115.87354205416668,43.0,76.0
394,115.49379505416667,115.92575726666666,67.0,76.0
395,115.49379505416667,115.92733954583333,55.0,53.0
396,115.49379505416667,115.95423829166667,59.0,63.0
397,115.49379505416667,115.95423829166667,62.0,69.0
398,115.87354205416668,116.25328905416667,43.0,79.0
399,117.01278305416668,117.50645415416668,67.0,85.0
400,117.01278305416668,117.53335290000001,62.0,74.0
401,115.11404805416667,117.53968201666667,50.0,62.0
402,117.01278305416668,117.5713276,59.0,65.0
403,117.39253005416667,117.65202383750001,55.0,58.0
404,116.25328905416667,117.77227705416666,43.0,79.0
405,117.77227705416666,118.91151805416668,50.0,81.0
406,118.53177105416667,118.9906320125,69.0,69.0
407,118.53177105416667,119.02227759583334,66.0,58.0
408,118.53177105416667,119.10297383333334,62.0,65.0
409,118.91151805416668,119.29126505416667,50.0,79.0
410,118.53177105416667,120.21373380833334,57.0,59.0
411,118.15202405416667,120.31183511666667,54.0,50.0
412,120.05075905416668,120.56816434166667,62.0,79.0
413,120.05075905416668,120.58873397083335,69.0,85.0
414,120.05075905416668,120.62037955416668,66.0,91.0
415,119.29126505416667,120.81025305416668,50.0,79.0
416,120.43050605416667,120.81025305416668,57.0,79.0
417,120.81025305416668,121.94949405416668,45.0,79.0
418,121.56974705416667,122.17259541666667,69.0,48.0
419,121.54759514583334,122.1805068125,61.0,82.0
420,121.54759514583334,122.18841820833333,64.0,82.0
421,121.94949405416668,122.32924105416667,45.0,79.0
422,121.94949405416668,122.42101324583334,57.0,58.0
423,123.08873505416668,123.447912425,69.0,96.0
424,123.08873505416668,123.47164661250001,64.0,96.0
425,121.19000005416667,123.48272256666667,49.0,71.0
426,123.08873505416668,123.49696307916668,61.0,96.0
427,121.56974705416667,123.50170991666667,52.0,58.0
428,123.46848205416667,123.81183663333334,57.0,53.0
429,122.32924105416667,123.84822905416667,45.0,79.0
430,123.84822905416667,124.98747005416666,50.0,86.0
431,124.60772305416667,125.03493842916667,62.0,85.0
432,124.60772305416667,125.12987517916667,69.0,71.0
433,124.60772305416667,125.21690053333334,66.0,81.0
434,124.98747005416666,125.36721705416667,50.0,79.0
435,124.60772305416667,126.2153186875,57.0,57.0
436,124.22797605416667,126.26595162083333,54.0,58.0
437,126.12671105416668,126.31341999583334,62.0,79.0
438,126.12671105416668,126.31500227500001,69.0,69.0
439,126.12671105416668,126.38778711666667,66.0,74.0
440,125.36721705416667,126.69633155416668,50.0,79.0
441,126.50645805416667,126.83082528333334,62.0,46.0
442,126.88620505416668,128.02544605416668,43.0,76.0
443,127.64569905416667,128.07766126666667,67.0,76.0
444,127.64569905416667,128.07924354583335,55.0,53.0
445,127.64569905416667,128.10614229166669,59.0,63.0
446,127.64569905416667,128.10614229166669,62.0,69.0
447,128.02544605416668,128.40519305416666,43.0,79.0
448,129.16468705416668,129.65835815416668,67.0,85.0
449,129.16468705416668,129.6852569,62.0,74.0
450,127.26595205416668,129.69158601666666,50.0,62.0
451,129.16468705416668,129.72323160000002,59.0,65.0
452,129.5444340541667,129.8039278375,55.0,58.0
453,128.40519305416666,129.92418105416667,43.0,79.0
454,129.92418105416667,130.49854839166667,74.0,74.0
455,129.92418105416667,131.06342205416667,50.0,86.0
456,130.68367505416668,131.11089042916666,62.0,85.0
457,130.68367505416668,131.20582717916668,69.0,71.0
458,130.68367505416668,131.25013099583333,74.0,63.0
459,130.68367505416668,131.29285253333333,66.0,81.0
460,131.06342205416667,131.44316905416667,50.0,79.0
461,131.44316905416667,132.08873895416667,74.0,65.0
462,130.68367505416668,132.2912706875,57.0,57.0
463,130.30392805416668,132.34190362083334,54.0,58.0
464,132.20266305416666,132.38937199583333,62.0,79.0
465,132.20266305416666,132.390954275,69.0,69.0
466,132.20266305416666,132.46373911666666,66.0,74.0
467,132.20266305416666,132.54127079583333,74.0,74.0
468,131.44316905416667,132.77228355416668,50.0,79.0
469,132.96215705416668,134.10139805416668,45.0,79.0
470,133.72165105416667,134.32449941666667,69.0,48.0
471,133.69949914583333,134.3324108125,61.0,82.0
472,133.69949914583333,134.34032220833333,64.0,82.0
473,134.10139805416668,134.4811450541667,45.0,79.0
474,134.10139805416668,134.57291724583334,57.0,58.0
475,135.24063905416668,135.599816425,69.0,96.0
476,135.24063905416668,135.6235506125,64.0,96.0
477,133.34190405416666,135.63462656666667,49.0,71.0
478,135.24063905416668,135.64886707916668,61.0,96.0
479,133.72165105416667,135.65361391666667,52.0,58.0
480,135.62038605416666,135.96374063333334,57.0,53.0
481,134.4811450541667,136.00013305416667,45.0,79.0
482,136.00013305416667,137.13937405416667,50.0,83.0
483,136.75962705416669,137.17734875416667,74.0,74.0
484,136.75962705416669,137.22639940833335,69.0,83.0
485,136.75962705416669,137.4083615125,66.0,81.0
486,137.13937405416667,137.51912105416667,50.0,79.0
487,136.75962705416669,138.58715949166668,57.0,58.0
488,138.27861505416666,138.58715949166668,57.0,67.0
489,136.37988005416668,138.71848866250002,54.0,62.0
490,137.51912105416667,138.74064057083334,74.0,71.0
491,137.51912105416667,138.8229190875,69.0,73.0
492,137.51912105416667,138.84823555416668,50.0,79.0
493,137.51912105416667,138.84823555416668,66.0,63.0
494,137.13937405416667,139.06817235833336,62.0,54.0
495,139.03810905416668,139.7485524,66.0,53.0
496,139.4178560541667,139.81342584583334,57.0,65.0
497,139.03810905416668,140.17735005416668,50.0,58.0
498,139.79760305416667,140.4051982541667,62.0,62.0
499,140.17735005416668,140.55709705416666,50.0,68.0
500,140.17735005416668,140.72323636666667,57.0,68.0
501,140.55709705416666,141.24697077083334,66.0,68.0
502,140.93684405416667,141.33874296250002,57.0,68.0
503,141.12671755416667,141.68684437916667,62.0,64.0
504,141.50646455416668,141.71057856666667,57.0,59.0
505,140.55709705416666,141.88621155416666,50.0,68.0
506,142.45583205416668,143.03178167083334,57.0,58.0
507,142.07608505416667,143.21532605416667,50.0,66.0
508,142.83557905416666,143.2469716375,62.0,60.0
509,143.21532605416667,143.59507305416668,50.0,62.0
510,143.21532605416667,143.71690855,57.0,63.0
511,143.59507305416668,144.33557970416666,66.0,64.0
512,143.97482005416668,144.58716209166667,57.0,60.0
513,143.59507305416668,144.92418755416668,50.0,62.0
514,144.35456705416667,145.11406105416668,62.0,61.0
515,145.49380805416666,145.91627659166667,57.0,46.0
516,145.11406105416668,146.25330205416668,50.0,61.0
517,146.25330205416668,146.44317555416666,50.0,62.0
518,145.87355505416667,146.4558337875,62.0,61.0
519,146.25330205416668,146.74697315416668,57.0,58.0
520,146.6330490541667,147.37355570416668,66.0,63.0
521,147.01279605416667,147.751720425,57.0,59.0
522,147.39254305416668,147.80393563750002,62.0,61.0
523,146.6330490541667,147.96216355416666,50.0,62.0
524,147.77229005416666,148.16627756666668,66.0,59.0
525,148.15203705416667,148.85615128333333,57.0,59.0
526,148.15203705416667,149.042860225,61.0,69.0
527,148.15203705416667,149.29127805416667,45.0,58.0
528,149.29127805416667,149.48115155416667,45.0,62.0
529,149.29127805416667,149.76279724583333,57.0,56.0
530,148.9115310541667,149.79127827083335,52.0,59.0
531,150.05077205416669,150.41627854166668,52.0,69.0
532,149.67102505416668,150.70108879166668,61.0,68.0
533,150.43051905416667,150.93526610833334,57.0,68.0
534,149.67102505416668,151.00013955416668,45.0,62.0
535,150.81026605416668,151.07767123333335,52.0,58.0
536,148.53178405416668,151.12355732916666,49.0,67.0
537,151.19001305416668,151.50172205,62.0,56.0
538,151.19001305416668,151.63146894166667,66.0,64.0
539,151.5697600541667,151.9621652875,57.0,55.0
540,151.19001305416668,152.32925405416668,50.0,64.0
541,151.94950705416667,152.50014020416668,62.0,56.0
542,152.32925405416668,152.5191275541667,50.0,62.0
543,152.32925405416668,152.79919096666669,57.0,59.0
544,152.70900105416666,153.42735579583334,66.0,76.0
545,153.46849505416668,153.75172302500002,62.0,58.0
546,153.08874805416667,153.75488758333336,57.0,58.0
547,152.70900105416666,154.03811555416667,50.0,62.0
548,153.8482420541667,154.21849537916668,66.0,58.0
549,154.60773605416668,155.08241980416668,55.0,67.0
550,154.22798905416667,155.36723005416667,43.0,75.0
551,154.98748305416666,155.54919215833334,62.0,62.0
552,155.36723005416667,155.55710355416667,43.0,62.0
553,156.1267240541667,156.37988872083335,71.0,75.0
554,155.74697705416668,156.62514199166668,67.0,81.0
555,156.50647105416667,156.62514199166668,67.0,61.0
556,155.36723005416667,156.67261036666667,55.0,64.0
557,154.60773605416668,156.86881298333333,50.0,66.0
558,155.74697705416668,156.98273708333335,62.0,62.0
559,155.74697705416668,157.07609155416668,43.0,62.0
560,157.26596505416668,157.8672311375,62.0,54.0
561,157.26596505416668,157.89729444166667,69.0,63.0
562,157.26596505416668,157.92261090833335,66.0,62.0
563,157.26596505416668,158.40520605416668,50.0,60.0
564,158.02545905416667,158.55710485416668,69.0,55.0
565,158.02545905416667,158.57767448333334,62.0,52.0
566,158.40520605416668,158.59507955416666,50.0,62.0
567,158.02545905416667,158.6172314625,66.0,58.0
568,159.16470005416667,159.39413053333334,64.0,46.0
569,159.16470005416667,159.40045965000002,57.0,51.0
570,159.16470005416667,159.41944700000002,61.0,50.0
571,158.7849530541667,159.92419405416666,45.0,74.0
572,159.54444705416668,160.18685239583334,64.0,60.0
573,159.54444705416668,160.188434675,57.0,62.0
574,159.54444705416668,160.20583974583334,61.0,77.0
575,159.92419405416666,160.30394105416667,45.0,62.0
576,160.30394105416667,160.61565005,62.0,56.0
577,160.30394105416667,160.74539694166668,66.0,64.0
578,160.30394105416667,161.44318205416667,50.0,64.0
579,161.0634350541667,161.61406820416667,62.0,56.0
580,161.44318205416667,161.63305555416667,50.0,62.0
581,161.44318205416667,161.91311896666667,57.0,59.0
582,161.82292905416668,162.54128379583335,66.0,76.0
583,162.58242305416667,162.865651025,62.0,58.0
584,162.20267605416666,162.86881558333334,57.0,58.0
585,161.82292905416668,163.15204355416668,50.0,62.0
586,162.96217005416668,163.3309795,66.0,58.0
587,163.34035450000002,163.635667,74.0,77.0
588,163.34035450000002,163.64191700000003,69.0,83.0
589,163.34035450000002,163.66066700000002,66.0,76.0
590,163.34035450000002,163.71222950000003,50.0,86.0
591,163.90285450000002,164.29816700000003,72.0,74.0
592,163.90285450000002,164.30285450000002,67.0,87.0
593,163.90285450000002,164.31066700000002,64.0,79.0
594,163.90285450000002,164.3309795,48.0,87.0
595,164.46535450000002,165.59035450000002,47.0,83.0
596,164.46535450000002,165.59035450000002,62.0,65.0
597,164.46535450000002,165.59035450000002,66.0,64.0
598,164.46535450000002,165.59035450000002,71.0,69.0
599,165.96535450000002,166.17629200000002,43.0,71.0
600,165.96535450000002,166.18097950000003,55.0,85.0
601,166.15285450000002,166.23566700000003,45.0,68.0
602,166.15285450000002,166.25129200000003,57.0,76.0
603,166.34035450000002,166.635667,46.0,73.0
604,166.34035450000002,166.65597950000003,58.0,95.0
605,166.34035450000002,166.71691700000002,62.0,98.0
606,166.90285450000002,167.21535450000002,45.0,81.0
607,166.90285450000002,167.24816700000002,57.0,85.0
608,166.90285450000002,167.35910450000003,60.0,90.0
609,167.46535450000002,169.27684869583337,55.0,90.0
610,167.46535450000002,169.2956843166667,43.0,76.0
611,167.46535450000002,169.4241090041667,58.0,93.0
612,169.4241090041667,169.7580131916667,46.0,91.0
613,169.4241090041667,169.7580131916667,58.0,91.0
614,169.4241090041667,169.7580131916667,70.0,91.0
615,170.04054750416668,170.39872780833335,45.0,90.0
616,170.04054750416668,170.39872780833335,57.0,90.0
617,170.04054750416668,170.39872780833335,69.0,90.0
618,170.6155000541667,171.07277873333334,43.0,89.0
619,170.6155000541667,171.07277873333334,55.0,89.0
620,170.6155000541667,171.07277873333334,67.0,89.0
621,171.18512055416667,171.53796880833335,41.0,88.0
622,171.18512055416667,171.53796880833335,53.0,88.0
623,171.18512055416667,171.53796880833335,65.0,88.0
624,171.7547410541667,173.2737290541667,52.0,87.0
625,171.7547410541667,173.2737290541667,64.0,87.0
626,173.2737290541667,173.6629697291667,50.0,87.0
627,173.2737290541667,173.90980527916668,62.0,87.0
628,173.65347605416667,173.97309644583336,52.0,68.0
629,173.65347605416667,173.99208379583334,64.0,75.0
630,171.7547410541667,174.08543826666667,40.0,87.0
631,174.03322305416668,177.7911545,69.0,67.0
632,174.03322305416668,178.13959200000002,61.0,90.0
633,174.03322305416668,178.142717,57.0,67.0
634,174.03322305416668,178.14740450000002,64.0,74.0
635,174.03322305416668,178.1817795,45.0,74.0
636,177.7911545,178.1817795,69.0,77.0
637,177.7911545,178.1817795,74.0,87.0
638,178.5411545,179.6661545,43.0,76.0
639,179.2911545,179.71771700000002,67.0,76.0
640,179.2911545,179.7192795,55.0,53.0
641,179.2911545,179.745842,59.0,63.0
642,179.2911545,179.745842,62.0,69.0
643,179.6661545,180.0411545,43.0,79.0
644,180.7911545,181.27865450000002,67.0,85.0
645,180.7911545,181.305217,62.0,74.0
646,178.9161545,181.31146700000002,50.0,62.0
647,180.7911545,181.34271700000002,59.0,65.0
648,181.1661545,181.4224045,55.0,58.0
649,180.0411545,181.5411545,43.0,79.0
650,181.5411545,182.6661545,50.0,81.0
651,182.2911545,182.7442795,69.0,69.0
652,182.2911545,182.7755295,66.0,58.0
653,182.2911545,182.855217,62.0,65.0
654,182.6661545,183.0411545,50.0,79.0
655,182.2911545,183.95209200000002,57.0,59.0
656,181.9161545,184.048967,54.0,50.0
657,183.7911545,184.30209200000002,62.0,79.0
658,183.7911545,184.3224045,69.0,85.0
659,183.7911545,184.3536545,66.0,91.0
660,183.0411545,184.54271705416667,50.0,79.0
661,184.1661545,184.54271705416667,57.0,79.0
662,184.54271705416667,185.68195805416667,45.0,79.0
663,185.3022110541667,185.9050594166667,69.0,48.0
664,185.28005914583335,185.91297081250002,61.0,82.0
665,185.28005914583335,185.92088220833335,64.0,82.0
666,185.68195805416667,186.06170505416668,45.0,79.0
667,185.68195805416667,186.15347724583336,57.0,58.0
668,186.82119905416667,187.18037642500002,69.0,96.0
669,186.82119905416667,187.20411061250002,64.0,96.0
670,184.92246405416668,187.2151865666667,49.0,71.0
671,186.82119905416667,187.22942707916667,61.0,96.0
672,185.3022110541667,187.2341739166667,52.0,58.0
673,187.20094605416668,187.54430063333334,57.0,53.0
674,186.06170505416668,187.5806930541667,45.0,79.0
675,187.5806930541667,188.71993405416669,50.0,86.0
676,188.34018705416668,188.76740242916668,62.0,85.0
677,188.34018705416668,188.86233917916667,69.0,71.0
678,188.34018705416668,188.94936453333335,66.0,81.0
679,188.71993405416669,189.09968105416667,50.0,79.0
680,188.34018705416668,189.94778268750002,57.0,57.0
681,187.96044005416667,189.99841562083336,54.0,58.0
682,189.85917505416668,190.04588399583335,62.0,79.0
683,189.85917505416668,190.047466275,69.0,69.0
684,189.85917505416668,190.12025111666668,66.0,74.0
685,189.09968105416667,190.42879555416667,50.0,79.0
686,190.23892205416666,190.56328928333335,62.0,46.0
687,190.61866905416667,191.75791005416667,43.0,76.0
688,191.3781630541667,191.8101252666667,67.0,76.0
689,191.3781630541667,191.81170754583334,55.0,53.0
690,191.3781630541667,191.83860629166668,59.0,63.0
691,191.3781630541667,191.83860629166668,62.0,69.0
692,191.75791005416667,192.13765705416668,43.0,79.0
693,192.89715105416667,193.39082215416667,67.0,85.0
694,192.89715105416667,193.4177209,62.0,74.0
695,190.99841605416668,193.42405001666668,50.0,62.0
696,192.89715105416667,193.4556956,59.0,65.0
697,193.27689805416668,193.53639183750002,55.0,58.0
698,192.13765705416668,193.6566450541667,43.0,79.0
699,193.6566450541667,194.23101239166667,74.0,74.0
700,193.6566450541667,194.7958860541667,50.0,86.0
701,194.41613905416668,194.84335442916668,62.0,85.0
702,194.41613905416668,194.93829117916667,69.0,71.0
703,194.41613905416668,194.98259499583335,74.0,63.0
704,194.41613905416668,195.02531653333335,66.0,81.0
705,194.7958860541667,195.17563305416667,50.0,79.0
706,195.17563305416667,195.82120295416667,74.0,65.0
707,194.41613905416668,196.02373468750002,57.0,57.0
708,194.03639205416667,196.07436762083336,54.0,58.0
709,195.93512705416668,196.12183599583335,62.0,79.0
710,195.93512705416668,196.123418275,69.0,69.0
711,195.93512705416668,196.19620311666668,66.0,74.0
712,195.93512705416668,196.27373479583335,74.0,74.0
713,195.17563305416667,196.50474755416667,50.0,79.0
714,196.69462105416667,197.83386205416667,45.0,79.0
715,197.45411505416666,198.0569634166667,69.0,48.0
716,197.43196314583335,198.06487481250002,61.0,82.0
717,197.43196314583335,198.07278620833335,64.0,82.0
718,197.83386205416667,198.21360905416668,45.0,79.0
719,197.83386205416667,198.30538124583336,57.0,58.0
720,198.97310305416667,199.33228042500002,69.0,96.0
721,198.97310305416667,199.35601461250002,64.0,96.0
722,197.07436805416668,199.3670905666667,49.0,71.0
723,198.97310305416667,199.38133107916667,61.0,96.0
724,197.45411505416666,199.3860779166667,52.0,58.0
725,199.35285005416668,199.69620463333334,57.0,53.0
726,198.21360905416668,199.7325970541667,45.0,79.0
727,199.7325970541667,200.8718380541667,50.0,83.0
728,200.49209105416668,200.9098127541667,74.0,74.0
729,200.49209105416668,200.95886340833334,69.0,83.0
730,200.49209105416668,201.14082551250002,66.0,81.0
731,200.8718380541667,201.25158505416667,50.0,79.0
732,200.49209105416668,202.31962349166668,57.0,58.0
733,202.0110790541667,202.31962349166668,57.0,67.0
734,200.11234405416667,202.45095266250001,54.0,62.0
735,201.25158505416667,202.47310457083336,74.0,71.0
736,201.25158505416667,202.55538308750002,69.0,73.0
737,201.25158505416667,202.58069955416667,50.0,79.0
738,201.25158505416667,202.58069955416667,66.0,63.0
739,200.8718380541667,202.80063635833335,62.0,54.0
740,202.77057305416668,203.90981405416667,43.0,76.0
741,203.5300670541667,203.9620292666667,67.0,76.0
742,203.5300670541667,203.96361154583334,55.0,53.0
743,203.5300670541667,203.99051029166668,59.0,63.0
744,203.5300670541667,203.99051029166668,62.0,69.0
745,203.90981405416667,204.28956105416668,43.0,79.0
746,205.04905505416667,205.54272615416667,67.0,85.0
747,205.04905505416667,205.5696249,62.0,74.0
748,203.15032005416668,205.57595401666669,50.0,62.0
749,205.04905505416667,205.60759960000001,59.0,65.0
750,205.42880205416668,205.68829583750002,55.0,58.0
751,204.28956105416668,205.8085490541667,43.0,79.0
752,205.8085490541667,206.9477900541667,50.0,81.0
753,206.56804305416668,207.0269040125,69.0,69.0
754,206.56804305416668,207.05854959583334,66.0,58.0
755,206.56804305416668,207.13924583333335,62.0,65.0
756,206.9477900541667,207.32753705416667,50.0,79.0
757,206.56804305416668,208.25000580833336,57.0,59.0
758,206.18829605416667,208.34810711666668,54.0,50.0
759,208.0870310541667,208.60443634166668,62.0,79.0
760,208.0870310541667,208.62500597083334,69.0,85.0
761,208.0870310541667,208.65665155416667,66.0,91.0
762,207.32753705416667,208.84652505416668,50.0,79.0
763,208.46677805416667,208.84652505416668,57.0,79.0
764,208.84652505416668,209.98576605416667,45.0,79.0
765,209.60601905416667,210.2088674166667,69.0,48.0
766,209.58386714583335,210.21677881250002,61.0,82.0
767,209.58386714583335,210.22469020833336,64.0,82.0
768,209.98576605416667,210.36551305416668,45.0,79.0
769,209.98576605416667,210.45728524583336,57.0,58.0
770,211.12500705416667,211.48418442500002,69.0,96.0
771,211.12500705416667,211.50791861250002,64.0,96.0
772,209.22627205416669,211.5189945666667,49.0,71.0
773,211.12500705416667,211.53323507916667,61.0,96.0
774,209.60601905416667,211.5379819166667,52.0,58.0
775,211.50475405416668,211.84810863333334,57.0,53.0
776,210.36551305416668,211.8845010541667,45.0,79.0
777,211.8845010541667,213.0237420541667,50.0,86.0
778,212.64399505416668,213.07121042916668,62.0,85.0
779,212.64399505416668,213.16614717916667,69.0,71.0
780,212.64399505416668,213.25317253333336,66.0,81.0
781,213.0237420541667,213.40348905416667,50.0,79.0
782,212.64399505416668,214.25159068750003,57.0,57.0
783,212.26424805416667,214.30222362083333,54.0,58.0
784,214.1629830541667,214.34969199583335,62.0,79.0
785,214.1629830541667,214.351274275,69.0,69.0
786,214.1629830541667,214.42405911666668,66.0,74.0
787,213.40348905416667,214.73260355416667,50.0,79.0
788,214.54273005416667,214.86709728333335,62.0,46.0
789,214.92247705416668,216.06171805416668,43.0,76.0
790,215.6819710541667,216.1139332666667,67.0,76.0
791,215.6819710541667,216.11551554583335,55.0,53.0
792,215.6819710541667,216.14241429166668,59.0,63.0
793,215.6819710541667,216.14241429166668,62.0,69.0
794,216.06171805416668,216.44146505416668,43.0,79.0
795,217.20095905416667,217.69463015416667,67.0,85.0
796,217.20095905416667,217.7215289,62.0,74.0
797,215.3022240541667,217.7278580166667,50.0,62.0
798,217.20095905416667,217.75950360000002,59.0,65.0
799,217.58070605416668,217.84019983750002,55.0,58.0
800,216.44146505416668,217.9604530541667,43.0,79.0
801,217.9604530541667,218.53482039166667,74.0,74.0
802,217.9604530541667,219.0996940541667,50.0,86.0
803,218.71994705416668,219.14716242916668,62.0,85.0
804,218.71994705416668,219.24209917916667,69.0,71.0
805,218.71994705416668,219.28640299583336,74.0,63.0
806,218.71994705416668,219.32912453333336,66.0,81.0
807,219.0996940541667,219.47944105416667,50.0,79.0
808,219.47944105416667,220.12501095416667,74.0,65.0
809,218.71994705416668,220.3275426875,57.0,57.0
810,218.34020005416667,220.37817562083336,54.0,58.0
811,220.2389350541667,220.42564399583335,62.0,79.0
812,220.2389350541667,220.427226275,69.0,69.0
813,220.2389350541667,220.50001111666668,66.0,74.0
814,220.2389350541667,220.57754279583335,74.0,74.0
815,219.47944105416667,220.80855555416667,50.0,79.0
816,220.99842905416668,222.13767005416668,45.0,79.0
817,221.75792305416667,222.3607714166667,69.0,48.0
818,221.73577114583335,222.36868281250003,61.0,82.0
819,221.73577114583335,222.37659420833336,64.0,82.0
820,222.13767005416668,222.51741705416669,45.0,79.0
821,222.13767005416668,222.60918924583336,57.0,58.0
822,223.27691105416667,223.63608842500003,69.0,96.0
823,223.27691105416667,223.65982261250002,64.0,96.0
824,221.3781760541667,223.67089856666666,49.0,71.0
825,223.27691105416667,223.68513907916667,61.0,96.0
826,221.75792305416667,223.6898859166667,52.0,58.0
827,223.65665805416668,224.00001263333334,57.0,53.0
828,222.51741705416669,224.03640505416666,45.0,79.0
829,224.03640505416666,225.1756460541667,50.0,83.0
830,224.79589905416668,225.2136207541667,74.0,74.0
831,224.79589905416668,225.26267140833335,69.0,83.0
832,224.79589905416668,225.44463351250002,66.0,81.0
833,225.1756460541667,225.55539305416667,50.0,79.0
834,224.79589905416668,226.62343149166668,57.0,58.0
835,226.3148870541667,226.62343149166668,57.0,67.0
836,224.41615205416667,226.75476066250002,54.0,62.0
837,225.55539305416667,226.77691257083336,74.0,71.0
838,225.55539305416667,226.85919108750002,69.0,73.0
839,225.55539305416667,226.88450755416667,50.0,79.0
840,225.55539305416667,226.88450755416667,66.0,63.0
841,225.1756460541667,227.10444435833335,62.0,54.0
842,227.07438105416668,228.2041283791667,61.0,85.0
843,227.07438105416668,228.21678661250002,64.0,65.0
844,227.07438105416668,228.24843219583335,45.0,63.0
845,227.07438105416668,228.25159675416668,57.0,63.0
846,227.07438105416668,228.36393857500002,52.0,63.0
847,228.5933690541667,232.53482645833336,61.0,81.0
848,228.5933690541667,232.55223152916668,52.0,81.0
849,228.5933690541667,232.55697836666667,64.0,81.0
850,228.5933690541667,232.57438343750002,57.0,81.0
851,228.5933690541667,232.58071255416667,45.0,81.0
852,232.96045955416668,233.43672558333336,74.0,63.0
853,233.34020655416668,233.5300800541667,62.0,62.0
854,232.96045955416668,233.5728015916667,69.0,62.0
855,233.7199535541667,234.1709031166667,74.0,63.0
856,234.09970055416667,234.28957405416668,62.0,62.0
857,233.7199535541667,234.3417892666667,69.0,66.0
858,234.8591945541667,235.0490680541667,62.0,62.0
859,234.47944755416668,235.11552377916667,74.0,73.0
860,234.47944755416668,235.14242252500003,69.0,79.0
861,235.23894155416667,235.36552388750002,74.0,74.0
862,235.36552388750002,235.49210622083336,74.0,62.0
863,234.8591945541667,235.59495436666668,66.0,58.0
864,235.49210622083336,235.61868855416668,74.0,62.0
865,235.61868855416668,235.7452708875,74.0,62.0
866,235.7452708875,235.87185322083334,74.0,62.0
867,235.23894155416667,235.92881527083335,69.0,86.0
868,235.87185322083334,235.9984355541667,74.0,62.0
869,235.61868855416668,236.27375212916667,62.0,59.0
870,236.3781825541667,236.56805605416668,62.0,62.0
871,235.9984355541667,236.67723331666667,74.0,83.0
872,235.9984355541667,236.71520801666668,69.0,86.0
873,236.75792955416668,237.3892589416667,74.0,71.0
874,236.75792955416668,237.45096782916667,69.0,71.0
875,237.51742355416667,237.70729705416667,74.0,62.0
876,237.1376765541667,237.89717055416668,62.0,72.0
877,237.89717055416668,238.08704405416668,62.0,63.0
878,238.2769175541667,238.6376772041667,74.0,62.0
879,235.61868855416668,241.45413412083334,66.0,64.0
880,238.6566645541667,241.65824813333336,62.0,61.0
881,233.34020655416668,241.74052665000002,57.0,60.0
882,237.51742355416667,241.82280516666668,69.0,68.0
883,239.03641155416668,241.85286847083336,74.0,62.0
884,233.15033305416668,241.88609633333334,50.0,65.0
