,start,end,pitch,velocity
0,32.99126665833333,33.869737475,60.0,95.0
1,34.24126465833333,34.44091711666667,63.0,102.0
2,34.657930658333335,35.01209675833333,62.0,100.0
3,35.074596658333334,35.3332768,60.0,68.0
4,35.49126265833333,35.91834530833333,58.0,96.0
5,35.90792865833333,36.170081016666664,53.0,88.0
6,36.32459465833333,36.84542715833333,56.0,96.0
7,37.15792665833333,38.3749386,55.0,90.0
8,40.49125465833333,40.89924011666667,63.0,96.0
9,40.90792065833333,41.29333670833333,67.0,90.0
10,41.32458665833333,41.72562768333333,65.0,95.0
11,41.74125265833333,42.149238116666666,62.0,85.0
12,42.15791865833333,42.586737416666665,58.0,81.0
13,42.57458465833333,43.150972625,63.0,90.0
14,43.407916658333335,44.440901116666666,63.0,99.0
15,46.32457865833333,46.73082800833333,60.0,93.0
16,46.74124465833333,47.140549574999994,62.0,83.0
17,47.15791065833333,47.53985449166667,63.0,100.0
18,47.57457665833333,47.994714875,67.0,92.0
19,47.991242658333334,49.203046275,65.0,85.0
20,49.65790665833333,50.01728108333333,65.0,95.0
21,50.07457265833333,50.45651649166666,67.0,102.0
22,50.49123865833333,50.85755751666667,70.0,107.0
23,50.90790465833333,51.307209574999995,65.0,89.0
24,51.32457065833333,52.15790265833333,67.0,100.0
25,52.15790265833333,52.80199885,62.0,93.0
26,52.99123465833333,53.32977578333333,60.0,100.0
27,53.40790065833333,53.72560848333333,62.0,88.0
28,53.82456665833333,54.14921891666666,63.0,90.0
29,54.24123265833333,54.567621024999994,67.0,92.0
30,54.65789865833333,55.03984249166666,65.0,86.0
31,55.07456465833333,55.341925341666666,62.0,89.0
32,55.49123065833333,56.23949335,62.0,93.0
33,56.32456265833333,56.671784325,58.0,77.0
34,56.94956165833333,58.90962796666666,60.0,85.0
35,59.65789065833333,60.442611625,60.0,92.0
36,60.90788865833333,61.232540916666665,63.0,112.0
37,61.324554658333334,61.71170681666666,62.0,100.0
38,61.74122065833333,62.14399779166666,60.0,96.0
39,62.15788665833333,62.472122266666666,58.0,97.0
40,62.57455265833333,63.338440325,53.0,83.0
41,63.40788465833333,64.48253571666666,55.0,93.0
42,67.15787865833333,67.43565599166666,63.0,97.0
43,67.57454465833332,67.93044686666666,67.0,90.0
44,67.99121065833333,68.192599225,65.0,97.0
45,68.40787665833334,68.692598425,62.0,97.0
46,68.82454265833333,69.015514575,58.0,99.0
47,69.24120865833333,70.05197125,62.0,100.0
48,70.07454065833333,72.171759525,63.0,102.0
49,72.99120265833334,73.32279935,60.0,100.0
50,73.40786865833333,73.72557648333333,62.0,100.0
51,73.82453465833333,74.09536755833334,63.0,100.0
52,74.24120065833333,74.52939464166667,67.0,99.0
53,74.65786665833333,75.58842072499999,65.0,122.0
54,76.32453065833333,76.59362745,65.0,96.0
55,76.74119665833334,77.0415434,67.0,99.0
56,77.15786265833333,77.44605664166666,70.0,117.0
57,77.57452865833334,77.86793096666666,65.0,96.0
58,77.99119465833333,78.77765173333333,67.0,107.0
59,78.82452665833333,79.26549817499999,62.0,97.0
60,79.65785865833332,79.94084431666667,60.0,112.0
61,80.07452465833333,80.338413125,62.0,97.0
62,80.49119065833332,80.74813469166666,63.0,99.0
63,80.90785665833333,81.17348123333333,67.0,96.0
64,81.32452265833334,81.66306378333333,65.0,107.0
65,81.74118865833333,81.93563279166666,62.0,88.0
66,82.15785465833333,82.807159175,62.0,96.0
67,82.99118665833333,83.24639458333333,58.0,93.0
68,83.61618565833334,85.49118265833333,60.0,90.0
69,86.32451465833333,86.71513903333333,75.0,127.0
70,86.74118065833333,86.91999981666666,74.0,97.0
71,87.15784665833333,87.70472078333333,72.0,112.0
72,87.99117865833333,88.79499681666667,70.0,127.0
73,88.82451065833332,89.327982075,65.0,96.0
74,89.65784265833332,90.06582811666667,67.0,122.0
75,90.07450865833333,90.411313675,70.0,122.0
76,90.49117465833334,90.88353514166666,65.0,112.0
77,90.90784065833333,91.265478975,67.0,86.0
78,91.32450665833333,92.34186614166666,60.0,102.0
79,92.99117065833333,93.3123507,58.0,117.0
80,93.40783665833332,93.75679443333333,60.0,96.0
81,93.82450265833333,94.22207146666666,63.0,112.0
82,94.24116865833332,94.57970978333333,70.0,112.0
83,94.65783465833333,95.28283365833333,65.0,107.0
84,95.49116665833333,95.76720788333333,63.0,122.0
85,95.90783265833333,96.24463767499999,65.0,97.0
86,96.32449865833333,96.76720628333332,67.0,127.0
87,96.74116465833333,97.00505312499999,70.0,112.0
88,97.15783065833332,97.484219025,65.0,112.0
89,97.57449665833333,98.327967675,63.0,122.0
90,98.40782865833333,99.3123411,67.0,122.0
91,99.65782665833333,99.984215025,75.0,127.0
92,100.07449265833333,100.28977009166667,74.0,97.0
93,100.28282565833332,100.83143589166666,72.0,97.0
94,101.32449065833333,101.86789256666667,70.0,127.0
95,101.94948965833333,102.53282205833332,65.0,107.0
96,102.99115465833333,103.34532075833333,67.0,107.0
97,103.40782065833334,103.78282005833333,70.0,112.0
98,103.82448665833333,104.213374925,65.0,99.0
99,104.24115265833333,104.61267984166666,67.0,100.0
100,104.65781865833333,105.67344203333333,60.0,100.0
101,106.32448265833332,106.68385708333332,58.0,127.0
102,106.74114865833333,107.140453575,60.0,112.0
103,107.15781465833332,107.44774475,63.0,127.0
104,107.57448065833333,107.94948005833332,70.0,127.0
105,107.99114665833334,108.34531275833332,65.0,112.0
106,108.40781265833333,109.067533825,67.0,107.0
107,109.24114465833333,109.4581582,63.0,127.0
108,109.65781065833333,110.03107394999999,75.0,127.0
109,110.07447665833332,110.27239300833332,74.0,97.0
110,110.28280965833333,110.82968378333332,72.0,117.0
111,111.32447465833333,111.7498212,75.0,127.0
112,111.74114065833332,111.97030695833332,74.0,95.0
113,111.94947365833333,112.49634778333333,72.0,102.0
114,112.57447265833333,113.20467998333332,70.0,122.0
115,113.40780465833333,115.33314879999999,72.0,107.0
116,116.32446665833332,117.27238180833332,72.0,90.0
117,117.57446465833333,117.76370046666666,70.0,117.0
118,117.78279765833332,117.99633898333333,68.0,90.0
119,117.99113065833333,118.82619876666666,67.0,96.0
120,119.24112865833332,119.66994741666666,65.0,92.0
121,119.65779465833333,121.20987550833333,67.0,100.0
122,122.99112265833332,123.46681634166666,65.0,100.0
123,123.40778865833333,123.807093575,67.0,81.0
124,123.82445465833332,125.65604895,60.0,82.0
125,126.32445065833333,126.78104714999999,63.0,93.0
126,126.74111665833333,127.12306049166666,65.0,59.0
127,127.15778265833333,129.2619459583333,60.0,93.0
128,146.32441865833331,147.202889475,60.0,95.0
129,147.57441665833332,147.77406911666665,63.0,102.0
130,147.99108265833334,148.34524875833333,62.0,100.0
131,148.40774865833333,148.6664288,60.0,68.0
132,148.82441465833332,149.2514973083333,58.0,96.0
133,149.24108065833332,149.50323301666666,53.0,88.0
134,149.65774665833334,150.17857915833332,56.0,96.0
135,150.49107865833332,151.7080906,55.0,90.0
136,153.82440665833332,154.23239211666666,63.0,96.0
137,154.24107265833334,154.6264887083333,67.0,90.0
138,154.65773865833333,155.0587796833333,65.0,95.0
139,155.07440465833332,155.48239011666666,62.0,85.0
140,155.4910706583333,155.91988941666665,58.0,81.0
141,155.90773665833333,156.484124625,63.0,90.0
142,156.74106865833332,157.77405311666666,63.0,99.0
143,159.65773065833332,160.06398000833332,60.0,93.0
144,160.0743966583333,160.47370157499998,62.0,83.0
145,160.49106265833333,160.87300649166667,63.0,100.0
146,160.90772865833333,161.32786687499998,67.0,92.0
147,161.32439465833332,162.536198275,65.0,85.0
148,162.99105865833332,163.35043308333331,65.0,95.0
149,163.40772465833334,163.78966849166665,67.0,102.0
150,163.82439065833333,164.19070951666666,70.0,107.0
151,164.24105665833332,164.640361575,65.0,89.0
152,164.6577226583333,165.49105465833333,67.0,100.0
153,165.49105465833333,166.13515085,62.0,93.0
154,166.32438665833334,166.66292778333332,60.0,100.0
155,166.74105265833333,167.05876048333332,62.0,88.0
156,167.15771865833332,167.48237091666667,63.0,90.0
157,167.57438465833332,167.90077302499998,67.0,92.0
158,167.99105065833334,168.37299449166665,65.0,86.0
159,168.40771665833333,168.67507734166665,62.0,89.0
160,168.82438265833332,169.57264535,62.0,93.0
161,169.65771465833333,170.004936325,58.0,77.0
162,170.28271365833334,172.24277996666666,60.0,85.0
163,172.99104265833333,173.775763625,60.0,92.0
164,174.24104065833333,174.56569291666665,63.0,112.0
165,174.65770665833332,175.04485881666665,62.0,100.0
166,175.07437265833332,175.47714979166665,60.0,96.0
167,175.49103865833334,175.80527426666666,58.0,97.0
168,175.90770465833333,176.671592325,53.0,83.0
169,176.74103665833331,177.81568771666664,55.0,93.0
170,180.49103065833333,180.76880799166665,63.0,97.0
171,180.90769665833332,181.26359886666665,67.0,90.0
172,181.3243626583333,181.525751225,65.0,97.0
173,181.74102865833333,182.02575042499998,62.0,97.0
174,182.15769465833333,182.34866657499998,58.0,99.0
175,182.57436065833332,183.38512325,62.0,100.0
176,183.40769265833333,185.50491152499998,63.0,102.0
177,186.32435465833333,186.65595134999998,60.0,100.0
178,186.74102065833333,187.0587284833333,62.0,100.0
179,187.15768665833332,187.42851955833333,63.0,100.0
180,187.5743526583333,187.86254664166665,67.0,99.0
181,187.99101865833333,188.921572725,65.0,122.0
182,189.65768265833333,189.92677945,65.0,96.0
183,190.07434865833332,190.37469539999998,67.0,99.0
184,190.4910146583333,190.77920864166666,70.0,117.0
185,190.90768065833333,191.20108296666666,65.0,96.0
186,191.32434665833333,192.1108037333333,67.0,107.0
187,192.1576786583333,192.598650175,62.0,97.0
188,192.99101065833332,193.27399631666665,60.0,112.0
189,193.40767665833332,193.671565125,62.0,97.0
190,193.82434265833334,194.08128669166666,63.0,99.0
191,194.24100865833333,194.50663323333333,67.0,96.0
192,194.65767465833332,194.99621578333333,65.0,107.0
193,195.0743406583333,195.26878479166666,62.0,88.0
194,195.49100665833333,196.140311175,62.0,96.0
195,196.32433865833332,196.57954658333333,58.0,93.0
196,196.94933765833332,198.82433465833333,60.0,90.0
197,199.6576666583333,200.04829103333333,75.0,127.0
198,200.07433265833333,200.25315181666664,74.0,97.0
199,200.49099865833333,201.0378727833333,72.0,112.0
200,201.32433065833334,202.12814881666665,70.0,127.0
201,202.15766265833332,202.66113407499998,65.0,96.0
202,202.99099465833334,203.39898011666665,67.0,122.0
203,203.40766065833333,203.744465675,70.0,122.0
204,203.82432665833332,204.21668714166665,65.0,112.0
205,204.2409926583333,204.598630975,67.0,86.0
206,204.65765865833333,205.67501814166667,60.0,102.0
207,206.32432265833333,206.64550269999998,58.0,117.0
208,206.74098865833332,207.08994643333332,60.0,96.0
209,207.1576546583333,207.55522346666666,63.0,112.0
210,207.57432065833333,207.9128617833333,70.0,112.0
211,207.99098665833333,208.61598565833333,65.0,107.0
212,208.8243186583333,209.1003598833333,63.0,122.0
213,209.24098465833333,209.577789675,65.0,97.0
214,209.65765065833332,210.10035828333332,67.0,127.0
215,210.07431665833332,210.338205125,70.0,112.0
216,210.49098265833334,210.817371025,65.0,112.0
217,210.90764865833333,211.66111967499998,63.0,122.0
218,211.7409806583333,212.64549309999998,67.0,122.0
219,212.99097865833332,213.31736702499998,75.0,127.0
220,213.4076446583333,213.62292209166665,74.0,97.0
221,213.61597765833332,214.16458789166666,72.0,97.0
222,214.65764265833332,215.20104456666667,70.0,127.0
223,215.28264165833332,215.86597405833334,65.0,107.0
224,216.3243066583333,216.67847275833333,67.0,107.0
225,216.74097265833333,217.1159720583333,70.0,112.0
226,217.15763865833333,217.546526925,65.0,99.0
227,217.57430465833332,217.94583184166666,67.0,100.0
228,217.9909706583333,219.00659403333333,60.0,100.0
229,219.65763465833334,220.01700908333333,58.0,127.0
230,220.07430065833333,220.473605575,60.0,112.0
231,220.49096665833332,220.78089674999998,63.0,127.0
232,220.9076326583333,221.28263205833332,70.0,127.0
233,221.32429865833333,221.67846475833332,65.0,112.0
234,221.74096465833333,222.40068582499998,67.0,107.0
235,222.5742966583333,222.7913102,63.0,127.0
236,222.99096265833333,223.36422595,75.0,127.0
237,223.40762865833332,223.60554500833334,74.0,97.0
238,223.61596165833333,224.16283578333332,72.0,117.0
239,224.65762665833333,225.0829732,75.0,127.0
240,225.07429265833332,225.30345895833332,74.0,95.0
241,225.28262565833333,225.82949978333332,72.0,102.0
242,225.90762465833333,226.53783198333332,70.0,122.0
243,226.74095665833332,228.6663008,72.0,107.0
244,239.65760265833333,240.04822703333332,75.0,127.0
245,240.07426865833332,240.25308781666666,74.0,97.0
246,240.49093465833332,241.03780878333333,72.0,112.0
247,241.32426665833333,242.12808481666664,70.0,127.0
248,242.1575986583333,242.661070075,65.0,96.0
249,242.99093065833333,243.39891611666667,67.0,122.0
250,243.40759665833332,243.74440167499998,70.0,122.0
251,243.8242626583333,244.21662314166664,65.0,112.0
252,244.24092865833333,244.59856697499998,67.0,86.0
253,244.65759465833332,246.088147925,60.0,102.0
254,246.32425865833332,246.6454387,58.0,117.0
255,246.7409246583333,247.08988243333332,60.0,96.0
256,247.15759065833333,247.55515946666665,63.0,112.0
257,247.57425665833333,247.91279778333333,70.0,112.0
258,247.99092265833332,248.61592165833332,65.0,107.0
259,248.82425465833333,249.10029588333333,63.0,122.0
260,249.24092065833332,249.57772567499998,65.0,97.0
261,249.65758665833332,250.1002942833333,67.0,127.0
262,250.07425265833334,250.338141125,70.0,112.0
263,250.49091865833333,250.817307025,65.0,112.0
264,250.90758465833332,251.661055675,63.0,122.0
265,251.74091665833333,252.6454291,67.0,122.0
266,252.9909146583333,253.317303025,75.0,127.0
267,253.40758065833333,253.62285809166664,74.0,97.0
268,253.6159136583333,254.16452389166665,72.0,97.0
269,254.65757865833334,255.20098056666666,70.0,127.0
270,255.2825776583333,255.86591005833333,65.0,107.0
271,256.32424265833333,256.6784087583333,67.0,107.0
272,256.7409086583333,257.11590805833333,70.0,112.0
273,257.1575746583333,257.546462925,65.0,99.0
274,257.57424065833334,257.9457678416667,67.0,100.0
275,257.9909066583333,259.0065300333333,60.0,100.0
276,259.6575706583333,260.0169450833333,58.0,127.0
277,260.07423665833335,260.473541575,60.0,112.0
278,260.4909026583333,260.78083275,63.0,127.0
279,260.90756865833333,261.2825680583333,70.0,127.0
280,261.3242346583333,261.67840075833334,65.0,112.0
281,261.7409006583333,262.400621825,67.0,107.0
282,262.5742326583333,262.7912462,63.0,127.0
283,262.9908986583333,263.36416195,75.0,127.0
284,263.40756465833334,263.6054810083333,74.0,97.0
285,263.6158976583333,264.1627717833333,72.0,117.0
286,264.65756265833335,265.08290919999996,75.0,127.0
287,265.0742286583333,265.30339495833334,74.0,95.0
288,265.2825616583333,265.82943578333334,72.0,102.0
289,265.9075606583333,266.5377679833333,70.0,122.0
290,266.74089265833334,268.6662368,72.0,107.0
291,269.6575546583333,270.6471364083333,72.0,127.0
292,270.9075526583333,271.12283009166663,70.0,117.0
293,271.1158856583333,271.3398436333333,68.0,93.0
294,271.32421865833334,272.3710919833333,67.0,102.0
295,272.57421665833334,272.97178546666663,65.0,99.0
296,272.9908826583333,275.2946984166667,67.0,117.0
297,276.3242106583333,277.13150103333334,67.0,89.0
298,277.15754265833334,279.43358068333333,60.0,102.0
299,279.6575386583333,280.08462130833334,63.0,102.0
300,280.0742046583333,280.51517617499997,65.0,92.0
301,280.49087065833334,284.4127393833333,60.0,95.0
