,start,end,pitch,velocity
0,3.407980658333333,5.026033625,55.0,55.0
1,4.241312658333333,5.2777693333333335,60.0,55.0
2,3.824646658333333,5.309019283333333,63.0,81.0
3,2.991314658333333,5.685754791666667,36.0,58.0
4,5.907976658333333,6.2968649249999995,60.0,48.0
5,5.074644658333333,6.324642658333333,55.0,56.0
6,5.491310658333333,6.324642658333333,63.0,102.0
7,6.741308658333333,8.366306058333333,56.0,74.0
8,7.157974658333333,8.55206965,63.0,82.0
9,7.574640658333333,8.8124859,60.0,45.0
10,6.324642658333333,9.30206845,36.0,75.0
11,8.407972658333334,9.611095733333332,55.0,31.0
12,8.824638658333333,9.633665141666667,63.0,102.0
13,9.241304658333332,9.649290116666666,60.0,45.0
14,10.074636658333333,11.597203666666665,55.0,59.0
15,10.491302658333332,11.869772675,63.0,107.0
16,10.907968658333333,11.8958143,60.0,59.0
17,9.657970658333333,12.427063449999999,36.0,83.0
18,11.741300658333333,12.807271174999999,55.0,38.0
19,12.157966658333333,12.982618116666666,63.0,97.0
20,12.574632658333332,13.046854125,60.0,44.0
21,14.241296658333333,15.067684224999999,60.0,30.0
22,13.824630658333332,15.206572891666665,63.0,90.0
23,12.991298658333333,15.590252833333333,36.0,72.0
24,13.407964658333333,15.631919433333332,56.0,62.0
25,15.907960658333332,16.284696166666667,56.0,52.0
26,15.491294658333333,16.326362766666666,63.0,85.0
27,16.324626658333333,17.71872165,36.0,90.0
28,16.741292658333332,17.862818641666667,48.0,88.0
29,17.15795865833333,17.951360166666667,63.0,107.0
30,17.57462465833333,17.986082333333332,60.0,70.0
31,17.991290658333334,18.892330883333333,46.0,86.0
32,18.407956658333333,19.532954858333333,53.0,47.0
33,18.824622658333332,19.565940916666666,62.0,96.0
34,20.074620658333334,20.675314141666664,56.0,59.0
35,19.65795465833333,20.868022166666666,44.0,82.0
36,20.907952658333333,21.307257574999998,56.0,63.0
37,20.491286658333333,21.315938116666665,63.0,90.0
38,21.74128465833333,22.388853066666666,51.0,73.0
39,21.324618658333332,22.463505724999997,39.0,89.0
40,22.15795065833333,23.0416298,63.0,107.0
41,22.574616658333333,23.071143641666666,58.0,55.0
42,23.407948658333332,24.065933716666667,48.0,63.0
43,22.991282658333333,24.157947458333332,41.0,79.0
44,23.82461465833333,24.645793899999997,60.0,93.0
45,24.24128065833333,24.651002225,56.0,85.0
46,24.657946658333334,25.8541253,36.0,77.0
47,25.074612658333333,26.053777758333332,48.0,66.0
48,25.491278658333332,26.32461065833333,55.0,88.0
49,25.90794465833333,26.32461065833333,63.0,107.0
50,26.741276658333334,27.404470041666666,49.0,82.0
51,27.157942658333333,27.868010966666667,56.0,92.0
52,27.157942658333333,27.887108158333334,61.0,69.0
53,27.574608658333332,28.105857808333333,49.0,73.0
54,27.99127465833333,28.680509666666666,65.0,69.0
55,27.99127465833333,28.744745674999997,61.0,65.0
56,26.32461065833333,28.9166204,37.0,89.0
57,28.40794065833333,28.940925916666664,49.0,65.0
58,27.99127465833333,28.942662024999997,56.0,58.0
59,29.241272658333333,29.578077675,56.0,88.0
60,28.82460665833333,29.668355308333332,65.0,92.0
61,30.07460465833333,30.774256316666666,50.0,89.0
62,30.49127065833333,31.270783299999998,59.0,107.0
63,30.90793665833333,31.51731068333333,50.0,66.0
64,31.741268658333333,32.359323225,50.0,61.0
65,29.657938658333332,32.58154509166666,43.0,95.0
66,31.324602658333333,33.0207805,62.0,99.0
67,33.40793265833333,34.324597858333334,43.0,43.0
68,32.99126665833333,34.338486724999996,36.0,66.0
69,33.82459865833333,34.64230568333333,48.0,72.0
70,34.24126465833333,34.763833266666666,63.0,66.0
71,34.657930658333335,35.59369305,46.0,69.0
72,35.49126265833333,36.359316825,62.0,69.0
73,35.074596658333334,36.37320569166666,53.0,48.0
74,36.74126065833333,37.32112084166666,51.0,53.0
75,37.15792665833333,37.96521703333333,63.0,93.0
76,37.57459265833333,37.98952255,55.0,49.0
77,36.32459465833333,37.994730874999995,39.0,73.0
78,37.99125865833333,39.18049286666667,46.0,53.0
79,38.40792465833333,39.369728675,53.0,56.0
80,39.241256658333334,39.701325366666666,58.0,47.0
81,38.82459065833333,39.736047533333334,62.0,78.0
82,40.07458865833333,40.513824066666665,51.0,63.0
83,39.657922658333334,40.81417080833333,39.0,78.0
84,40.49125465833333,41.15618415,63.0,95.0
85,40.90792065833333,41.270767299999996,55.0,59.0
86,41.32458665833333,42.324585058333334,38.0,69.0
87,42.15791865833333,42.982570116666665,56.0,66.0
88,41.74125265833333,42.984306225,50.0,70.0
89,42.57458465833333,42.989514549999996,53.0,55.0
90,43.407916658333335,44.03812398333333,43.0,50.0
91,42.99125065833333,44.213470924999996,36.0,70.0
92,43.824582658333334,44.581525891666665,63.0,92.0
93,44.24124865833333,44.67006741666666,60.0,56.0
94,44.65791465833333,45.57631596666666,46.0,81.0
95,45.07458065833333,46.30374535833333,53.0,52.0
96,45.90791265833333,46.30548146666666,58.0,59.0
97,45.49124665833333,46.30548146666666,62.0,73.0
98,46.74124465833333,47.29853543333333,56.0,59.0
99,46.32457865833333,47.786381875,44.0,52.0
100,47.15791065833333,47.982562116666664,63.0,59.0
101,47.57457665833333,47.998187091666665,56.0,48.0
102,47.991242658333334,49.01901879166667,46.0,71.0
103,48.407908658333334,49.64922611666666,53.0,65.0
104,48.82457465833333,49.72735099166666,62.0,73.0
105,50.07457265833333,50.67005781666666,50.0,55.0
106,49.65790665833333,50.713460524999995,43.0,72.0
107,50.90790465833333,51.32457065833333,55.0,55.0
108,50.49123865833333,51.32457065833333,62.0,89.0
109,51.32457065833333,52.11276384166666,48.0,92.0
110,51.74123665833333,52.223874775,55.0,59.0
111,52.15790265833333,52.998179091666664,46.0,79.0
112,52.574568658333334,53.048526233333334,58.0,58.0
113,53.40790065833333,53.99296916666666,56.0,59.0
114,53.82456665833333,54.60234319166666,63.0,72.0
115,54.24123265833333,54.609287625,56.0,40.0
116,52.99123465833333,54.61623205833333,44.0,47.0
117,54.65789865833333,55.52768893333333,46.0,63.0
118,55.49123065833333,56.301993249999995,62.0,65.0
119,55.07456465833333,56.31935433333333,53.0,54.0
120,57.15789465833333,57.61275504166667,48.0,77.0
121,56.741228658333334,57.7915742,43.0,42.0
122,56.32456265833333,59.44955765833333,36.0,67.0
123,57.99122665833333,59.513793666666665,43.0,64.0
124,57.99122665833333,59.62143238333333,60.0,76.0
125,57.99122665833333,59.63532125,64.0,79.0
126,57.57456065833333,59.63705735833333,55.0,86.0
127,60.07455665833333,60.99122185833333,43.0,43.0
128,59.65789065833333,61.005110724999994,36.0,66.0
129,60.49122265833333,61.30892968333333,48.0,72.0
130,60.90788865833333,61.430457266666664,63.0,66.0
131,61.324554658333334,62.26031705,46.0,69.0
132,62.15788665833333,63.025940825,62.0,69.0
133,61.74122065833333,63.03982969166666,53.0,48.0
134,63.40788465833333,63.98774484166666,51.0,53.0
135,63.82455065833333,64.63184103333333,63.0,93.0
136,64.24121665833333,64.65614655,55.0,49.0
137,62.99121865833333,64.661354875,39.0,73.0
138,64.65788265833334,65.84711686666667,46.0,53.0
139,65.07454865833333,66.036352675,53.0,56.0
140,65.90788065833333,66.36794936666666,58.0,47.0
141,65.49121465833333,66.40267153333333,62.0,78.0
142,66.74121265833332,67.18044806666667,51.0,63.0
143,66.32454665833333,67.48079480833333,39.0,78.0
144,67.15787865833333,67.82280815,63.0,95.0
145,67.57454465833332,67.9373913,55.0,59.0
146,67.99121065833333,68.99120905833333,38.0,69.0
147,68.82454265833333,69.64919411666666,56.0,66.0
148,68.40787665833334,69.650930225,50.0,70.0
149,69.24120865833333,69.65613855,53.0,55.0
150,70.07454065833333,70.70474798333333,43.0,50.0
151,69.65787465833333,70.880094925,36.0,70.0
152,70.49120665833333,71.24814989166666,63.0,92.0
153,70.90787265833333,71.33669141666667,60.0,56.0
154,71.32453865833332,72.24293996666667,46.0,81.0
155,71.74120465833333,72.97036935833333,53.0,52.0
156,72.57453665833333,72.97210546666666,58.0,59.0
157,72.15787065833332,72.97210546666666,62.0,73.0
158,73.40786865833333,73.96515943333333,56.0,59.0
159,72.99120265833334,74.453005875,44.0,52.0
160,73.82453465833333,74.64918611666667,63.0,59.0
161,74.24120065833333,74.66481109166666,56.0,48.0
162,74.65786665833333,75.68564279166667,46.0,71.0
163,75.07453265833333,76.31585011666667,53.0,65.0
164,75.49119865833333,76.39397499166667,62.0,73.0
165,76.74119665833334,77.33668181666667,50.0,55.0
166,76.32453065833333,77.380084525,43.0,72.0
167,77.57452865833334,77.99119465833333,55.0,55.0
168,77.15786265833333,77.99119465833333,62.0,89.0
169,77.99119465833333,78.77938784166666,48.0,92.0
170,78.40786065833333,78.890498775,55.0,59.0
171,78.82452665833333,79.66480309166667,46.0,79.0
172,79.24119265833333,79.71515023333333,58.0,58.0
173,80.07452465833333,80.65959316666667,56.0,59.0
174,80.49119065833332,81.26896719166666,63.0,72.0
175,80.90785665833333,81.27591162499999,56.0,40.0
176,79.65785865833332,81.28285605833332,44.0,47.0
177,81.32452265833334,82.400909825,46.0,97.0
178,82.15785465833333,83.005075525,62.0,85.0
179,81.74118865833333,83.02938104166667,53.0,58.0
180,83.82451865833333,84.29326790833333,63.0,95.0
181,83.82451865833333,84.390489975,48.0,43.0
182,84.24118465833332,84.53285085833333,62.0,79.0
183,84.44951765833333,84.75333661666666,63.0,32.0
184,84.86618365833333,85.28805798333333,63.0,24.0
185,84.65785065833333,85.55021034166666,48.0,76.0
186,84.65785065833333,85.56062699166667,60.0,73.0
187,83.40785265833333,85.796737725,43.0,58.0
188,82.99118665833333,85.82104324166666,36.0,78.0
189,85.90784865833334,86.3123619,60.0,85.0
190,85.49118265833333,86.32451465833333,63.0,99.0
191,86.74118065833333,87.23944374999999,56.0,107.0
192,86.94951365833333,87.380068525,60.0,92.0
193,87.36617965833332,87.56235989999999,56.0,97.0
194,86.53284765833332,87.59534595833333,51.0,73.0
195,86.32451465833333,87.650901425,44.0,96.0
196,87.57451265833333,87.93562319166666,63.0,100.0
197,87.15784665833333,87.94777595,68.0,127.0
198,87.78284565833333,88.04326190833333,60.0,93.0
199,88.61617765833333,88.84360785,62.0,95.0
200,88.40784465833333,88.8748578,58.0,97.0
201,88.19951165833334,89.14048237499999,53.0,52.0
202,89.03284365833333,89.21513503333333,58.0,89.0
203,88.82451065833332,89.2706905,65.0,107.0
204,87.99117865833333,89.28457936666666,46.0,99.0
205,89.24117665833333,89.60923162499999,62.0,79.0
206,89.44950965833333,89.62659270833333,65.0,89.0
207,90.28284165833333,90.47728579166666,58.0,96.0
208,90.07450865833333,90.58492450833333,55.0,79.0
209,89.86617565833333,90.588396725,50.0,63.0
210,90.69950765833333,90.81409080833333,50.0,82.0
211,89.65784265833332,90.83492410833333,43.0,76.0
212,90.90784065833333,91.11617365833332,58.0,117.0
213,90.49117465833334,91.18040966666666,62.0,100.0
214,91.11617365833332,91.484228625,55.0,97.0
215,91.74117265833333,92.22728299166667,48.0,93.0
216,91.94950565833332,92.32624116666666,55.0,95.0
217,91.32450665833333,92.5831852,36.0,81.0
218,91.53283965833333,92.61617125833332,43.0,60.0
219,92.36617165833333,92.952976275,48.0,95.0
220,92.15783865833333,92.98596233333333,63.0,127.0
221,92.57450465833332,93.00679563333333,60.0,97.0
222,92.78283765833334,93.03110115,55.0,88.0
223,93.40783665833332,93.66478069166666,53.0,90.0
224,93.61616965833333,93.86790536666666,56.0,93.0
225,93.19950365833333,93.88005812499999,48.0,66.0
226,92.99117065833333,94.16130767499999,41.0,75.0
227,94.03283565833333,94.17866875833333,48.0,82.0
228,94.24116865833332,94.55714037499999,56.0,99.0
229,93.82450265833333,94.57623756666666,60.0,96.0
230,94.44950165833333,94.64220968333333,53.0,90.0
231,95.28283365833333,95.52762493333333,62.0,96.0
232,95.07450065833333,95.57970818333332,58.0,102.0
233,95.69949965833332,95.89220768333333,58.0,99.0
234,95.49116665833333,95.92866595833333,65.0,107.0
235,94.86616765833332,95.93908260833332,53.0,58.0
236,94.65783465833333,96.00852694166666,46.0,122.0
237,95.90783265833333,96.18560999166667,62.0,99.0
238,96.11616565833333,96.32449865833333,65.0,97.0
239,96.74116465833333,97.25331661666667,56.0,100.0
240,96.94949765833333,97.39914971666666,60.0,95.0
241,97.36616365833333,97.52762173333333,56.0,107.0
242,96.53283165833332,97.55019114166666,51.0,83.0
243,96.32449865833333,97.63005212499999,44.0,82.0
244,97.15783065833332,97.88699615833333,68.0,127.0
245,97.57449665833333,97.90262113333333,63.0,117.0
246,97.78282965833333,97.973801575,60.0,100.0
247,98.40782865833333,98.61442554999999,55.0,99.0
248,98.61616165833333,98.8331752,59.0,112.0
249,98.19949565833333,98.95123056666667,50.0,90.0
250,99.03282765833333,99.161299675,50.0,83.0
251,97.99116265833332,99.182132975,43.0,82.0
252,99.24116065833333,99.56581291666666,59.0,117.0
253,98.82449465833332,99.58664621666667,62.0,117.0
254,99.44949365833332,99.59706286666666,55.0,99.0
255,100.07449265833333,100.55539466666666,56.0,107.0
256,100.28282565833332,100.66824170833333,60.0,96.0
257,99.86615965833333,100.87657470833332,51.0,39.0
258,100.69949165833333,100.87831081666666,56.0,96.0
259,99.65782665833333,100.91303298333332,44.0,93.0
260,100.49115865833333,101.171713125,68.0,122.0
261,100.90782465833333,101.17692145,63.0,117.0
262,101.11615765833334,101.32275455,60.0,100.0
263,101.94948965833333,102.12830881666666,62.0,97.0
264,101.74115665833332,102.223794775,53.0,76.0
265,102.36615565833333,102.51198875833333,53.0,76.0
266,101.53282365833333,102.53282205833332,50.0,66.0
267,101.32449065833333,102.53629427499999,46.0,102.0
268,102.15782265833333,102.59358585,65.0,122.0
269,102.57448865833332,102.86615485833333,62.0,102.0
270,102.78282165833333,102.94601584166666,65.0,102.0
271,103.40782065833334,103.66997301666666,55.0,90.0
272,103.19948765833333,103.92865315833333,50.0,92.0
273,104.03281965833332,104.22899989999999,50.0,83.0
274,103.82448665833333,104.24636098333333,58.0,122.0
275,102.99115465833333,104.567541025,43.0,74.0
276,103.61615365833333,104.56927713333333,62.0,112.0
277,104.24115265833333,104.69080471666666,55.0,93.0
278,104.44948565833333,104.74983239999999,58.0,107.0
279,104.65781865833333,104.999832,48.0,107.0
280,104.86615165833332,105.16997061666666,55.0,97.0
281,105.07448465833333,105.31580371666666,60.0,99.0
282,105.49115065833332,105.86441395,36.0,67.0
283,105.49115065833332,106.2706633,64.0,107.0
284,105.28281765833333,106.27760773333333,55.0,83.0
285,105.49115065833332,106.27760773333333,60.0,102.0
286,106.74114865833333,107.01371766666666,53.0,90.0
287,106.94948165833333,107.12830081666667,56.0,93.0
288,106.53281565833333,107.29843943333333,48.0,73.0
289,106.32448265833332,107.74809149166666,41.0,79.0
290,107.57448065833333,107.90954956666666,56.0,112.0
291,107.36614765833333,107.91823010833333,48.0,77.0
292,107.78281365833332,107.95642449166667,53.0,93.0
293,107.15781465833332,107.99809109166667,60.0,100.0
294,108.40781265833333,108.911284075,55.0,92.0
295,108.61614565833332,109.150867025,62.0,95.0
296,109.03281165833333,109.15433924166666,55.0,89.0
297,107.99114665833334,109.19774195,43.0,92.0
298,108.19947965833333,109.20989470833332,50.0,82.0
299,109.44947765833332,109.7081578,62.0,99.0
300,109.24114465833333,109.713366125,67.0,97.0
301,108.82447865833333,109.73072720833333,70.0,127.0
302,110.28280965833333,110.51892039166667,60.0,95.0
303,110.07447665833332,110.55885088333333,56.0,117.0
304,110.69947565833333,110.90260033333333,56.0,100.0
305,110.49114265833333,110.91996141666667,63.0,102.0
306,109.86614365833333,110.94600304166666,51.0,64.0
307,109.65781065833333,110.94773914999999,44.0,95.0
308,110.90780865833332,111.23940535,60.0,93.0
309,111.11614165833333,111.27412751666667,63.0,112.0
310,111.94947365833333,112.1456539,58.0,95.0
311,111.74114065833332,112.22551488333333,53.0,95.0
312,112.36613965833332,112.59356985,53.0,86.0
313,111.53280765833333,112.6248198,50.0,66.0
314,111.32447465833333,112.630028125,46.0,102.0
315,112.15780665833333,112.71856964999999,65.0,100.0
316,112.57447265833333,112.82447225833333,58.0,112.0
317,112.78280565833333,112.973777575,62.0,93.0
318,113.40780465833333,113.8956511,51.0,102.0
319,113.61613765833333,113.91822050833333,56.0,96.0
320,113.19947165833332,114.18558119166666,48.0,55.0
321,114.03280365833332,114.18731729999999,51.0,96.0
322,112.99113865833333,114.2081506,44.0,99.0
323,114.24113665833333,114.56926113333333,56.0,99.0
324,113.82447065833333,114.61613605833332,63.0,127.0
325,114.44946965833333,114.62655270833332,60.0,72.0
326,115.07446865833333,115.59356505,48.0,93.0
327,115.28280165833333,115.63349554166666,55.0,86.0
328,115.69946765833333,115.98766164166666,48.0,86.0
329,114.86613565833333,116.34529995833333,43.0,89.0
330,115.49113465833332,116.36613325833333,60.0,112.0
331,115.90780065833333,116.37134158333333,55.0,89.0
332,114.65780265833332,116.38870266666666,36.0,77.0
333,116.32446665833332,116.38870266666666,36.0,76.0
334,116.74113265833333,117.59182574166667,43.0,63.0
335,117.15779865833333,117.72724219166666,48.0,63.0
336,117.15779865833333,117.96508903333333,63.0,93.0
337,117.57446465833333,118.077936075,60.0,52.0
338,118.40779665833333,118.87307369166666,58.0,66.0
339,117.99113065833333,118.9164764,46.0,82.0
340,118.82446265833333,119.6664752,65.0,76.0
341,120.49112665833333,121.17341723333332,56.0,42.0
342,120.49112665833333,122.06924913333333,63.0,97.0
343,121.32445865833333,122.34529035833333,56.0,56.0
344,120.07446065833332,122.37827641666667,51.0,58.0
345,119.65779465833333,122.49285956666667,44.0,67.0
346,120.90779265833332,123.01716428333333,60.0,60.0
347,123.40778865833333,123.93730169999999,43.0,57.0
348,122.99112265833332,124.00153770833333,36.0,82.0
349,123.82445465833332,124.52931464166666,63.0,99.0
350,124.24112065833333,124.72549488333333,60.0,68.0
351,125.07445265833333,125.84528475833332,53.0,40.0
352,125.49111865833332,125.84528475833332,58.0,60.0
353,124.65778665833332,125.900840225,46.0,65.0
354,125.49111865833332,126.26368686666666,65.0,59.0
355,126.32445065833333,127.42340723333332,48.0,71.0
356,127.15778265833333,127.5622959,63.0,107.0
357,127.57444865833332,128.06403120833332,62.0,61.0
358,127.99111465833333,128.61090533333333,60.0,71.0
359,127.99111465833333,129.55013994166666,36.0,66.0
360,126.74111665833333,129.75326461666666,55.0,61.0
361,128.82444665833333,129.82965338333332,63.0,88.0
362,130.07444465833333,130.59180494166665,55.0,65.0
363,129.6577786583333,130.723749175,36.0,100.0
364,130.07444465833333,130.932082175,48.0,53.0
365,130.49111065833333,131.05013754166666,63.0,127.0
366,130.90777665833332,131.348748175,55.0,102.0
367,131.9494416583333,132.161246875,58.0,107.0
368,131.53277565833332,132.44423253333332,50.0,69.0
369,131.32444265833334,132.4789547,46.0,102.0
370,131.74110865833333,132.48763524166665,53.0,92.0
371,132.15777465833332,133.01020384999998,65.0,102.0
372,133.82443865833332,134.359160025,56.0,81.0
373,133.40777265833333,134.45985430833332,51.0,62.0
374,132.99110665833334,134.53103475,44.0,99.0
375,133.82443865833332,134.640409575,63.0,127.0
376,134.2411046583333,134.65777065833333,60.0,82.0
377,135.07443665833333,135.567491425,55.0,64.0
378,134.65777065833333,135.713324525,43.0,90.0
379,135.49110265833332,136.28624027499998,58.0,97.0
380,135.49110265833332,136.30533746666666,62.0,97.0
381,137.15776665833332,137.442488425,53.0,96.0
382,136.74110065833332,137.525821625,48.0,61.0
383,136.32443465833333,137.57443265833334,41.0,93.0
384,137.15776665833332,137.67859915833333,68.0,107.0
385,137.57443265833334,137.96852925,65.0,92.0
386,138.40776465833332,139.02408311666667,43.0,61.0
387,138.8244306583333,139.15429124166667,48.0,93.0
388,137.99109865833333,139.15949956666665,36.0,89.0
389,139.24109665833333,139.66297098333334,55.0,97.0
390,138.8244306583333,139.66817930833332,63.0,122.0
391,141.32442665833332,142.015397775,61.0,117.0
392,141.32442665833332,142.1247726,56.0,102.0
393,140.49109465833334,142.26886959166666,49.0,99.0
394,140.07442865833332,142.27234180833332,44.0,45.0
395,139.65776265833333,142.27407791666667,37.0,97.0
396,142.57442465833333,142.95636849166667,56.0,97.0
397,142.15775865833334,142.99803509166665,61.0,112.0
398,140.90776065833333,143.01018785,53.0,88.0
399,143.82442265833333,144.13865826666665,55.0,102.0
400,143.40775665833334,144.54490761666665,50.0,78.0
401,144.65775465833332,146.23066880833332,50.0,90.0
402,142.99109065833332,146.23414102499999,43.0,100.0
403,144.65775465833332,146.2879603833333,55.0,89.0
404,144.65775465833332,146.307057575,62.0,92.0
405,144.24108865833333,146.31573811666667,59.0,77.0
406,146.74108465833334,147.65774985833332,43.0,43.0
407,146.32441865833331,147.67163872499998,36.0,66.0
408,147.15775065833333,147.97545768333333,48.0,72.0
409,147.57441665833332,148.09698526666665,63.0,66.0
410,147.99108265833334,148.92684505,46.0,69.0
411,148.82441465833332,149.692468825,62.0,69.0
412,148.40774865833333,149.70635769166665,53.0,48.0
413,150.07441265833333,150.65427284166665,51.0,53.0
414,150.49107865833332,151.29836903333333,63.0,93.0
415,150.9077446583333,151.32267455,55.0,49.0
416,149.65774665833334,151.327882875,39.0,73.0
417,151.32441065833333,152.51364486666665,46.0,53.0
418,151.74107665833333,152.702880675,53.0,56.0
419,152.57440865833334,153.03447736666666,58.0,47.0
420,152.15774265833332,153.06919953333332,62.0,78.0
421,153.40774065833332,153.84697606666666,51.0,63.0
422,152.99107465833333,154.1473228083333,39.0,78.0
423,153.82440665833332,154.48933614999999,63.0,95.0
424,154.24107265833334,154.6039193,55.0,59.0
425,154.65773865833333,155.65773705833334,38.0,69.0
426,155.4910706583333,156.31572211666665,56.0,66.0
427,155.07440465833332,156.317458225,50.0,70.0
428,155.90773665833333,156.32266654999998,53.0,55.0
429,156.74106865833332,157.37127598333333,43.0,50.0
430,156.32440265833333,157.54662292499998,36.0,70.0
431,157.15773465833334,157.91467789166666,63.0,92.0
432,157.57440065833333,158.00321941666667,60.0,56.0
433,157.99106665833332,158.90946796666665,46.0,81.0
434,158.40773265833332,159.63689735833333,53.0,52.0
435,159.24106465833333,159.63863346666665,58.0,59.0
436,158.82439865833334,159.63863346666665,62.0,73.0
437,160.0743966583333,160.63168743333333,56.0,59.0
438,159.65773065833332,161.119533875,44.0,52.0
439,160.49106265833333,161.31571411666667,63.0,59.0
440,160.90772865833333,161.33133909166665,56.0,48.0
441,161.32439465833332,162.35217079166665,46.0,71.0
442,161.74106065833334,162.98237811666667,53.0,65.0
443,162.15772665833333,163.06050299166665,62.0,73.0
444,163.40772465833334,164.00320981666667,50.0,55.0
445,162.99105865833332,164.046612525,43.0,72.0
446,164.24105665833332,164.6577226583333,55.0,55.0
447,163.82439065833333,164.6577226583333,62.0,89.0
448,164.6577226583333,165.44591584166665,48.0,92.0
449,165.07438865833333,165.557026775,55.0,59.0
450,165.49105465833333,166.33133109166667,46.0,79.0
451,165.90772065833332,166.38167823333333,58.0,58.0
452,166.74105265833333,167.32612116666667,56.0,59.0
453,167.15771865833332,167.93549519166666,63.0,72.0
454,167.57438465833332,167.942439625,56.0,40.0
455,166.32438665833334,167.94938405833332,44.0,47.0
456,167.99105065833334,168.86084093333332,46.0,63.0
457,168.82438265833332,169.63514525,62.0,65.0
458,168.40771665833333,169.65250633333332,53.0,54.0
459,170.49104665833332,170.94590704166666,48.0,77.0
460,170.07438065833333,171.1247262,43.0,42.0
461,169.65771465833333,172.78270965833332,36.0,67.0
462,171.32437865833333,172.84694566666667,43.0,64.0
463,171.32437865833333,172.95458438333333,60.0,76.0
464,171.32437865833333,172.96847325,64.0,79.0
465,170.90771265833334,172.97020935833334,55.0,86.0
466,173.40770865833332,174.32437385833333,43.0,43.0
467,172.99104265833333,174.338262725,36.0,66.0
468,173.8243746583333,174.64208168333332,48.0,72.0
469,174.24104065833333,174.76360926666666,63.0,66.0
470,174.65770665833332,175.59346904999998,46.0,69.0
471,175.49103865833334,176.359092825,62.0,69.0
472,175.07437265833332,176.37298169166667,53.0,48.0
473,176.74103665833331,177.32089684166667,51.0,53.0
474,177.15770265833333,177.96499303333331,63.0,93.0
475,177.57436865833333,177.98929855,55.0,49.0
476,176.32437065833332,177.99450687499998,39.0,73.0
477,177.99103465833332,179.18026886666667,46.0,53.0
478,178.4077006583333,179.369504675,53.0,56.0
479,179.24103265833332,179.70110136666665,58.0,47.0
480,178.82436665833333,179.73582353333333,62.0,78.0
481,180.07436465833334,180.51360006666667,51.0,63.0
482,179.65769865833332,180.81394680833333,39.0,78.0
483,180.49103065833333,181.15596015,63.0,95.0
484,180.90769665833332,181.27054329999999,55.0,59.0
485,181.3243626583333,182.32436105833332,38.0,69.0
486,182.15769465833333,182.98234611666666,56.0,66.0
487,181.74102865833333,182.98408222499998,50.0,70.0
488,182.57436065833332,182.98929055,53.0,55.0
489,183.40769265833333,184.03789998333332,43.0,50.0
490,182.9910266583333,184.213246925,36.0,70.0
491,183.82435865833332,184.58130189166667,63.0,92.0
492,184.24102465833332,184.66984341666665,60.0,56.0
493,184.65769065833334,185.57609196666667,46.0,81.0
494,185.07435665833333,186.3035213583333,53.0,52.0
495,185.9076886583333,186.30525746666666,58.0,59.0
496,185.49102265833332,186.30525746666666,62.0,73.0
497,186.74102065833333,187.2983114333333,56.0,59.0
498,186.32435465833333,187.786157875,44.0,52.0
499,187.15768665833332,187.98233811666665,63.0,59.0
500,187.5743526583333,187.99796309166666,56.0,48.0
501,187.99101865833333,189.01879479166666,46.0,71.0
502,188.40768465833332,189.64900211666665,53.0,65.0
503,188.82435065833332,189.72712699166667,62.0,73.0
504,190.07434865833332,190.66983381666665,50.0,55.0
505,189.65768265833333,190.71323652499999,43.0,72.0
506,190.90768065833333,191.32434665833333,55.0,55.0
507,190.4910146583333,191.32434665833333,62.0,89.0
508,191.32434665833333,192.11253984166666,48.0,92.0
509,191.74101265833332,192.22365077499998,55.0,59.0
510,192.1576786583333,192.99795509166665,46.0,79.0
511,192.57434465833333,193.04830223333332,58.0,58.0
512,193.40767665833332,193.99274516666665,56.0,59.0
513,193.82434265833334,194.60211919166665,63.0,72.0
514,194.24100865833333,194.609063625,56.0,40.0
515,192.99101065833332,194.61600805833334,44.0,47.0
516,194.65767465833332,195.734061825,46.0,97.0
517,195.49100665833333,196.33822752499998,62.0,85.0
518,195.0743406583333,196.36253304166667,53.0,58.0
519,197.15767065833333,197.62641990833333,63.0,95.0
520,197.15767065833333,197.723641975,48.0,43.0
521,197.57433665833332,197.86600285833333,62.0,79.0
522,197.78266965833333,198.08648861666666,63.0,32.0
523,198.19933565833333,198.62120998333333,63.0,24.0
524,197.99100265833331,198.88336234166667,48.0,76.0
525,197.99100265833331,198.89377899166666,60.0,73.0
526,196.74100465833334,199.129889725,43.0,58.0
527,196.32433865833332,199.15419524166666,36.0,78.0
528,199.24100065833332,199.6455139,60.0,85.0
529,198.82433465833333,199.6576666583333,63.0,99.0
530,200.07433265833333,200.57259575,56.0,107.0
531,200.28266565833331,200.713220525,60.0,92.0
532,200.69933165833334,200.8955119,56.0,97.0
533,199.86599965833332,200.92849795833334,51.0,73.0
534,199.6576666583333,200.98405342499998,44.0,96.0
535,200.90766465833332,201.26877519166666,63.0,100.0
536,200.49099865833333,201.28092794999998,68.0,127.0
537,201.11599765833333,201.37641390833332,60.0,93.0
538,201.9493296583333,202.17675985,62.0,95.0
539,201.74099665833333,202.20800979999999,58.0,97.0
540,201.53266365833332,202.473634375,53.0,52.0
541,202.36599565833333,202.54828703333334,58.0,89.0
542,202.15766265833332,202.60384249999998,65.0,107.0
543,201.32433065833334,202.61773136666665,46.0,99.0
544,202.57432865833331,202.942383625,62.0,79.0
545,202.78266165833332,202.95974470833332,65.0,89.0
546,203.61599365833334,203.81043779166666,58.0,96.0
547,203.40766065833333,203.91807650833331,55.0,79.0
548,203.19932765833332,203.92154872499998,50.0,63.0
549,204.03265965833333,204.14724280833332,50.0,82.0
550,202.99099465833334,204.16807610833334,43.0,76.0
551,204.2409926583333,204.44932565833332,58.0,117.0
552,203.82432665833332,204.51356166666665,62.0,100.0
553,204.44932565833332,204.817380625,55.0,97.0
554,205.07432465833332,205.56043499166665,48.0,93.0
555,205.28265765833333,205.65939316666666,55.0,95.0
556,204.65765865833333,205.9163372,36.0,81.0
557,204.86599165833331,205.94932325833332,43.0,60.0
558,205.69932365833333,206.28612827499998,48.0,95.0
559,205.49099065833332,206.31911433333332,63.0,127.0
560,205.90765665833334,206.3399476333333,60.0,97.0
561,206.11598965833332,206.36425315,55.0,88.0
562,206.74098865833332,206.99793269166665,53.0,90.0
563,206.94932165833333,207.20105736666665,56.0,93.0
564,206.5326556583333,207.213210125,48.0,66.0
565,206.32432265833333,207.494459675,41.0,75.0
566,207.36598765833332,207.51182075833333,48.0,82.0
567,207.57432065833333,207.890292375,56.0,99.0
568,207.1576546583333,207.90938956666665,60.0,96.0
569,207.78265365833332,207.97536168333332,53.0,90.0
570,208.61598565833333,208.8607769333333,62.0,96.0
571,208.40765265833332,208.91286018333332,58.0,102.0
572,209.03265165833332,209.22535968333332,58.0,99.0
573,208.8243186583333,209.26181795833332,65.0,107.0
574,208.19931965833334,209.27223460833332,53.0,58.0
575,207.99098665833333,209.34167894166666,46.0,122.0
576,209.24098465833333,209.51876199166665,62.0,99.0
577,209.4493176583333,209.65765065833332,65.0,97.0
578,210.07431665833332,210.58646861666665,56.0,100.0
579,210.28264965833333,210.73230171666665,60.0,95.0
580,210.69931565833332,210.86077373333333,56.0,107.0
581,209.86598365833333,210.88334314166664,51.0,83.0
582,209.65765065833332,210.963204125,44.0,82.0
583,210.49098265833334,211.22014815833333,68.0,127.0
584,210.90764865833333,211.2357731333333,63.0,117.0
585,211.1159816583333,211.306953575,60.0,100.0
586,211.7409806583333,211.94757754999998,55.0,99.0
587,211.94931365833332,212.16632719999998,59.0,112.0
588,211.53264765833333,212.28438256666666,50.0,90.0
589,212.36597965833332,212.494451675,50.0,83.0
590,211.32431465833332,212.515284975,43.0,82.0
591,212.57431265833333,212.89896491666667,59.0,117.0
592,212.15764665833333,212.91979821666666,62.0,117.0
593,212.78264565833334,212.93021486666666,55.0,99.0
594,213.4076446583333,213.88854666666666,56.0,107.0
595,213.61597765833332,214.00139370833332,60.0,96.0
596,213.19931165833333,214.20972670833333,51.0,39.0
597,214.0326436583333,214.21146281666665,56.0,96.0
598,212.99097865833332,214.24618498333334,44.0,93.0
599,213.82431065833333,214.50486512499998,68.0,122.0
600,214.24097665833332,214.51007345,63.0,117.0
601,214.44930965833333,214.65590655,60.0,100.0
602,215.28264165833332,215.46146081666666,62.0,97.0
603,215.07430865833334,215.556946775,53.0,76.0
604,215.6993076583333,215.84514075833332,53.0,76.0
605,214.86597565833333,215.86597405833334,50.0,66.0
606,214.65764265833332,215.869446275,46.0,102.0
607,215.49097465833333,215.92673785,65.0,122.0
608,215.90764065833332,216.19930685833333,62.0,102.0
609,216.11597365833333,216.27916784166666,65.0,102.0
610,216.74097265833333,217.00312501666664,55.0,90.0
611,216.53263965833332,217.26180515833332,50.0,92.0
612,217.36597165833334,217.5621519,50.0,83.0
613,217.15763865833333,217.57951298333333,58.0,122.0
614,216.3243066583333,217.90069302499998,43.0,74.0
615,216.94930565833332,217.90242913333333,62.0,112.0
616,217.57430465833332,218.02395671666665,55.0,93.0
617,217.78263765833333,218.0829844,58.0,107.0
618,217.9909706583333,218.33298399999998,48.0,107.0
619,218.19930365833332,218.50312261666664,55.0,97.0
620,218.40763665833333,218.64895571666665,60.0,99.0
621,218.82430265833332,219.19756594999998,36.0,67.0
622,218.82430265833332,219.60381529999998,64.0,107.0
623,218.6159696583333,219.6107597333333,55.0,83.0
624,218.82430265833332,219.6107597333333,60.0,102.0
625,220.07430065833333,220.34686966666666,53.0,90.0
626,220.2826336583333,220.46145281666665,56.0,93.0
627,219.86596765833332,220.6315914333333,48.0,73.0
628,219.65763465833334,221.08124349166667,41.0,79.0
629,220.9076326583333,221.24270156666665,56.0,112.0
630,220.69929965833333,221.25138210833333,48.0,77.0
631,221.11596565833332,221.28957649166665,53.0,93.0
632,220.49096665833332,221.33124309166666,60.0,100.0
633,221.74096465833333,222.24443607499998,55.0,92.0
634,221.94929765833334,222.48401902499998,62.0,95.0
635,222.36596365833333,222.48749124166665,55.0,89.0
636,221.32429865833333,222.53089394999998,43.0,92.0
637,221.53263165833332,222.54304670833332,50.0,82.0
638,222.78262965833332,223.0413098,62.0,99.0
639,222.5742966583333,223.04651812499998,67.0,97.0
640,222.15763065833332,223.06387920833333,70.0,127.0
641,223.61596165833333,223.85207239166667,60.0,95.0
642,223.40762865833332,223.89200288333333,56.0,117.0
643,224.03262765833333,224.23575233333332,56.0,100.0
644,223.82429465833332,224.25311341666665,63.0,102.0
645,223.1992956583333,224.27915504166666,51.0,64.0
646,222.99096265833333,224.28089115,44.0,95.0
647,224.24096065833334,224.57255734999998,60.0,93.0
648,224.44929365833332,224.60727951666667,63.0,112.0
649,225.28262565833333,225.4788059,58.0,95.0
650,225.07429265833332,225.55866688333333,53.0,95.0
651,225.69929165833332,225.92672184999998,53.0,86.0
652,224.8659596583333,225.9579718,50.0,66.0
653,224.65762665833333,225.96318012499998,46.0,102.0
654,225.4909586583333,226.05172165,65.0,100.0
655,225.90762465833333,226.15762425833333,58.0,112.0
656,226.11595765833331,226.306929575,62.0,93.0
657,226.74095665833332,227.2288031,51.0,102.0
658,226.94928965833333,227.25137250833333,56.0,96.0
659,226.53262365833334,227.51873319166666,48.0,55.0
660,227.36595565833332,227.5204693,51.0,96.0
661,226.32429065833333,227.5413026,44.0,99.0
662,227.57428865833333,227.9024131333333,56.0,99.0
663,227.1576226583333,227.9492880583333,63.0,127.0
664,227.7826216583333,227.95970470833333,60.0,72.0
665,228.40762065833331,228.92671704999998,48.0,93.0
666,228.61595365833332,228.96664754166665,55.0,86.0
667,229.03261965833332,229.32081364166666,48.0,86.0
668,228.19928765833333,229.6784519583333,43.0,89.0
669,228.82428665833334,229.69928525833333,60.0,112.0
670,229.24095265833333,229.70449358333332,55.0,89.0
671,227.99095465833332,229.72185466666664,36.0,77.0
672,229.65761865833332,229.72185466666664,36.0,100.0
673,230.28261765833332,231.30518546666664,48.0,86.0
674,230.0742846583333,231.33817152499998,43.0,76.0
675,231.11594965833334,231.775670825,55.0,90.0
676,230.49095065833333,231.83122629166667,63.0,127.0
677,230.90761665833332,231.83296239999999,60.0,86.0
678,231.7409486583333,232.26351726666667,48.0,93.0
679,231.94928165833332,232.30344775833333,55.0,88.0
680,231.32428265833332,232.59685006666666,36.0,78.0
681,232.3659476583333,232.59858617499998,48.0,99.0
682,231.53261565833333,232.6055306083333,43.0,78.0
683,232.15761465833333,232.64372499166666,63.0,127.0
684,232.57428065833332,232.86421074999998,55.0,99.0
685,232.9909466583333,233.21143241666667,56.0,96.0
686,232.9909466583333,233.23573793333333,53.0,86.0
687,232.9909466583333,233.2409462583333,60.0,86.0
688,232.9909466583333,233.27393231666665,41.0,85.0
689,233.61594565833332,233.838167525,62.0,92.0
690,233.61594565833332,233.88504245,43.0,88.0
691,233.61594565833332,233.93886180833331,55.0,90.0
692,234.24094465833332,234.43018046666666,56.0,100.0
693,234.24094465833332,234.473583175,60.0,89.0
694,234.24094465833332,234.48052760833332,44.0,99.0
695,234.86594365833332,235.46663714166667,62.0,85.0
696,234.86594365833332,235.46837324999998,53.0,85.0
697,234.86594365833332,235.47010935833333,58.0,92.0
698,234.86594365833332,235.49788709166666,46.0,107.0
699,235.49094265833332,235.786081075,48.0,97.0
700,235.49094265833332,235.79302550833333,55.0,93.0
701,235.49094265833332,235.79302550833333,63.0,97.0
702,235.49094265833332,235.79996994166666,60.0,97.0
703,236.3242746583333,236.44753835,62.0,90.0
704,236.3242746583333,236.45101056666667,53.0,92.0
705,236.3242746583333,236.45448278333333,46.0,112.0
706,236.3242746583333,236.457955,58.0,107.0
707,236.53260765833332,236.66281578333331,58.0,96.0
708,236.53260765833332,236.66628799999998,46.0,90.0
709,236.53260765833332,236.66802410833333,62.0,82.0
710,236.53260765833332,236.68017686666664,53.0,83.0
711,237.5742726583333,237.68711969999998,62.0,86.0
712,237.5742726583333,237.6940641333333,53.0,96.0
713,237.5742726583333,237.69580024166666,58.0,99.0
714,237.5742726583333,237.71663354166665,46.0,107.0
715,237.78260565833332,237.93711929999998,58.0,107.0
716,237.78260565833332,237.96142481666666,62.0,90.0
717,237.78260565833332,237.96316092499998,46.0,83.0
718,237.78260565833332,237.96316092499998,53.0,99.0
719,240.07426865833332,240.57253175,56.0,107.0
720,240.28260165833333,240.713156525,60.0,92.0
721,240.69926765833333,240.8954479,56.0,97.0
722,239.8659356583333,240.92843395833333,51.0,73.0
723,239.65760265833333,240.98398942499998,44.0,96.0
724,240.9076006583333,241.26871119166665,63.0,100.0
725,240.49093465833332,241.28086395,68.0,127.0
726,241.11593365833332,241.3763499083333,60.0,93.0
727,241.94926565833333,242.17669585,62.0,95.0
728,241.74093265833332,242.20794579999998,58.0,97.0
729,241.5325996583333,242.47357037499998,53.0,52.0
730,242.36593165833332,242.54822303333333,58.0,89.0
731,242.1575986583333,242.60377849999998,65.0,107.0
732,241.32426665833333,242.61766736666667,46.0,99.0
733,242.57426465833333,242.94231962499998,62.0,79.0
734,242.78259765833332,242.9596807083333,65.0,89.0
735,243.61592965833333,243.81037379166665,58.0,96.0
736,243.40759665833332,243.91801250833333,55.0,79.0
737,243.1992636583333,243.921484725,50.0,63.0
738,244.03259565833332,244.1471788083333,50.0,82.0
739,242.99093065833333,244.16801210833333,43.0,76.0
740,244.24092865833333,244.4492616583333,58.0,117.0
741,243.8242626583333,244.51349766666667,62.0,100.0
742,244.4492616583333,244.817316625,55.0,97.0
743,245.07426065833332,245.56037099166664,48.0,93.0
744,245.28259365833333,245.65932916666665,55.0,95.0
745,244.65759465833332,245.91627319999998,36.0,81.0
746,244.86592765833333,245.9492592583333,43.0,60.0
747,245.69925965833332,246.286064275,48.0,95.0
748,245.4909266583333,246.3190503333333,63.0,127.0
749,245.90759265833333,246.33988363333333,60.0,97.0
750,246.1159256583333,246.36418915,55.0,88.0
751,246.7409246583333,246.99786869166667,53.0,90.0
752,246.94925765833332,247.20099336666667,56.0,93.0
753,246.53259165833333,247.21314612499998,48.0,66.0
754,246.32425865833332,247.494395675,41.0,75.0
755,247.36592365833332,247.51175675833332,48.0,82.0
756,247.57425665833333,247.890228375,56.0,99.0
757,247.15759065833333,247.90932556666667,60.0,96.0
758,247.78258965833334,247.9752976833333,53.0,90.0
759,248.61592165833332,248.86071293333333,62.0,96.0
760,248.4075886583333,248.9127961833333,58.0,102.0
761,249.0325876583333,249.22529568333331,58.0,99.0
762,248.82425465833333,249.26175395833332,65.0,107.0
763,248.19925565833333,249.2721706083333,53.0,58.0
764,247.99092265833332,249.34161494166665,46.0,122.0
765,249.24092065833332,249.51869799166664,62.0,99.0
766,249.44925365833333,249.65758665833332,65.0,97.0
767,250.07425265833334,250.58640461666664,56.0,100.0
768,250.28258565833332,250.73223771666665,60.0,95.0
769,250.6992516583333,250.86070973333332,56.0,107.0
770,249.86591965833333,250.88327914166666,51.0,83.0
771,249.65758665833332,250.963140125,44.0,82.0
772,250.49091865833333,251.22008415833332,68.0,127.0
773,250.90758465833332,251.23570913333333,63.0,117.0
774,251.11591765833333,251.30688957499999,60.0,100.0
775,251.74091665833333,251.94751355,55.0,99.0
776,251.94924965833331,252.16626319999997,59.0,112.0
777,251.53258365833332,252.28431856666666,50.0,90.0
778,252.36591565833334,252.49438767499998,50.0,83.0
779,251.3242506583333,252.51522097499998,43.0,82.0
780,252.57424865833332,252.89890091666666,59.0,117.0
781,252.15758265833333,252.91973421666665,62.0,117.0
782,252.78258165833333,252.93015086666665,55.0,99.0
783,253.40758065833333,253.88848266666665,56.0,107.0
784,253.6159136583333,254.00132970833332,60.0,96.0
785,253.19924765833332,254.20966270833333,51.0,39.0
786,254.03257965833333,254.21139881666664,56.0,96.0
787,252.9909146583333,254.24612098333333,44.0,93.0
788,253.82424665833332,254.504801125,68.0,122.0
789,254.24091265833331,254.51000944999998,63.0,117.0
790,254.44924565833333,254.65584255,60.0,100.0
791,255.2825776583333,255.46139681666665,62.0,97.0
792,255.07424465833333,255.556882775,53.0,76.0
793,255.69924365833333,255.84507675833333,53.0,76.0
794,254.86591165833332,255.86591005833333,50.0,66.0
795,254.65757865833334,255.869382275,46.0,102.0
796,255.49091065833332,255.92667385,65.0,122.0
797,255.9075766583333,256.1992428583333,62.0,102.0
798,256.1159096583333,256.27910384166665,65.0,102.0
799,256.7409086583333,257.00306101666666,55.0,90.0
800,256.5325756583333,257.26174115833334,50.0,92.0
801,257.3659076583333,257.5620879,50.0,83.0
802,257.1575746583333,257.5794489833333,58.0,122.0
803,256.32424265833333,257.900629025,43.0,74.0
804,256.94924165833334,257.9023651333333,62.0,112.0
805,257.57424065833334,258.02389271666664,55.0,93.0
806,257.7825736583333,258.0829204,58.0,107.0
807,257.9909066583333,258.33292,48.0,107.0
808,258.19923965833334,258.50305861666664,55.0,97.0
809,258.4075726583333,258.64889171666664,60.0,99.0
810,258.82423865833334,259.19750195,36.0,67.0
811,258.82423865833334,259.6037513,64.0,107.0
812,258.6159056583333,259.61069573333333,55.0,83.0
813,258.82423865833334,259.61069573333333,60.0,102.0
814,260.07423665833335,260.3468056666667,53.0,90.0
815,260.28256965833333,260.46138881666667,56.0,93.0
816,259.8659036583333,260.6315274333333,48.0,73.0
817,259.6575706583333,261.08117949166666,41.0,79.0
818,260.90756865833333,261.24263756666664,56.0,112.0
819,260.6992356583333,261.2513181083333,48.0,77.0
820,261.1159016583333,261.28951249166664,53.0,93.0
821,260.4909026583333,261.3311790916666,60.0,100.0
822,261.7409006583333,262.244372075,55.0,92.0
823,261.9492336583333,262.483955025,62.0,95.0
824,262.3658996583333,262.48742724166664,55.0,89.0
825,261.3242346583333,262.53082995,43.0,92.0
826,261.53256765833333,262.54298270833334,50.0,82.0
827,262.78256565833334,263.0412458,62.0,99.0
828,262.5742326583333,263.04645412499997,67.0,97.0
829,262.15756665833334,263.0638152083333,70.0,127.0
830,263.6158976583333,263.85200839166663,60.0,95.0
831,263.40756465833334,263.8919388833333,56.0,117.0
832,264.03256365833334,264.2356883333333,56.0,100.0
833,263.8242306583333,264.25304941666667,63.0,102.0
834,263.1992316583333,264.2790910416667,51.0,64.0
835,262.9908986583333,264.28082715,44.0,95.0
836,264.2408966583333,264.57249335,60.0,93.0
837,264.4492296583333,264.60721551666666,63.0,112.0
838,265.2825616583333,265.4787419,58.0,95.0
839,265.0742286583333,265.5586028833333,53.0,95.0
840,265.6992276583333,265.92665784999997,53.0,86.0
841,264.86589565833333,265.9579078,50.0,66.0
842,264.65756265833335,265.963116125,46.0,102.0
843,265.49089465833333,266.05165765,65.0,100.0
844,265.9075606583333,266.1575602583333,58.0,112.0
845,266.11589365833333,266.30686557499996,62.0,93.0
846,266.74089265833334,267.2287391,51.0,102.0
847,266.9492256583333,267.2513085083333,56.0,96.0
848,266.5325596583333,267.5186691916667,48.0,55.0
849,267.36589165833334,267.5204053,51.0,96.0
850,266.3242266583333,267.5412386,44.0,99.0
851,267.5742246583333,267.9023491333333,56.0,99.0
852,267.1575586583333,267.9492240583333,63.0,127.0
853,267.7825576583333,267.9596407083333,60.0,72.0
854,268.4075566583333,268.92665304999997,48.0,93.0
855,268.61588965833334,268.96658354166664,55.0,86.0
856,269.0325556583333,269.3207496416667,48.0,86.0
857,267.99089065833334,269.6575546583333,36.0,77.0
858,268.1992236583333,269.6575546583333,43.0,89.0
859,269.24088865833335,269.6575546583333,55.0,89.0
860,268.8242226583333,269.6575546583333,60.0,112.0
861,269.6575546583333,272.76518857499997,36.0,82.0
862,270.4908866583333,272.983938225,48.0,85.0
863,270.07422065833333,272.9960909833333,43.0,60.0
864,272.1575506583333,273.7287287,55.0,30.0
865,270.9075526583333,273.8346313083333,63.0,88.0
866,271.32421865833334,273.94574224166666,60.0,55.0
867,273.82421465833335,275.77907264166663,48.0,74.0
868,273.4075486583333,276.25997465,43.0,61.0
869,274.2408806583333,276.286016275,55.0,45.0
870,274.65754665833333,276.31726622499997,63.0,88.0
871,275.4908786583333,276.31900233333334,60.0,63.0
872,272.9908826583333,276.33636341666664,36.0,69.0
873,276.3242106583333,276.33636341666664,36.0,86.0
874,277.15754265833334,278.90580374999996,48.0,69.0
875,276.7408766583333,278.9127481833333,43.0,43.0
876,277.5742086583333,279.10719231666667,60.0,57.0
877,277.5742086583333,279.12455339999997,63.0,56.0
878,279.6575386583333,280.1037185,53.0,40.0
879,279.6575386583333,280.58635661666665,57.0,45.0
880,279.6575386583333,280.6037177,60.0,47.0
881,280.49087065833334,282.41447869166666,53.0,67.0
882,280.9075366583333,282.6158672583333,60.0,36.0
883,280.9075366583333,282.65406164166666,57.0,54.0
884,280.0742046583333,282.67315883333333,48.0,63.0
885,279.6575386583333,282.74781149166665,41.0,64.0
886,283.4075326583333,283.817254225,72.0,59.0
887,283.82419865833333,284.67489174166667,67.0,52.0
888,284.6575306583333,285.46829325,74.0,76.0
889,283.82419865833333,287.01342966666664,48.0,64.0
890,284.2408646583333,287.1748877416667,55.0,33.0
891,286.32419465833334,287.6314842333333,72.0,53.0
892,285.4908626583333,288.26689988333334,75.0,60.0
893,287.9908586583333,288.7356491333333,72.0,48.0
894,288.8241906583333,289.66273098333335,74.0,50.0
895,284.6575306583333,289.7894668916667,60.0,32.0
896,287.1575266583333,290.13495245,48.0,42.0
897,288.40752465833333,290.55161845,55.0,31.0
898,289.65752265833333,291.92661625,75.0,48.0
899,290.4908546583333,291.973491175,72.0,30.0
900,292.15751865833334,293.0585588833333,74.0,34.0
901,290.4908546583333,293.7095995083333,48.0,39.0
902,292.99085065833333,295.5203605,75.0,52.0
903,291.3241866583333,299.817228625,60.0,40.0
904,293.8241826583333,299.8241730583333,48.0,42.0
905,293.8241826583333,299.8241730583333,72.0,25.0
906,290.90752065833334,299.8397980333333,55.0,37.0
907,293.4075166583333,299.98215891666666,67.0,1.0
