,start,end,pitch,velocity
0,19.6486924875,20.137916266666668,65.0,100.0
1,20.165933487500002,20.827570933333334,67.0,96.0
2,20.9417949875,21.187484462500002,65.0,89.0
3,21.200415487500003,21.437484279166668,64.0,85.0
4,21.459035987500002,21.706880633333334,65.0,72.0
5,21.7176564875,21.9374839125,64.0,89.0
6,21.9762769875,22.834034979166667,60.0,88.0
7,23.786620487500002,24.2521373875,62.0,112.0
8,24.3038614875,24.956878250000003,64.0,95.0
9,25.079722987500002,25.247826312500003,62.0,97.0
10,25.3383434875,25.4935157875,60.0,79.0
11,25.5969639875,25.81463624166667,62.0,82.0
12,25.8555844875,25.974118883333336,60.0,77.0
13,26.114204987500003,26.853428583333333,57.0,81.0
14,27.9245484875,28.4417894875,58.0,97.0
15,28.4417894875,29.060323516666667,60.0,88.0
16,29.2176509875,29.3340302125,57.0,93.0
17,29.4762714875,30.002133170833336,57.0,92.0
18,29.993512487500002,30.086184833333334,55.0,74.0
19,30.2521329875,30.603425833333336,55.0,85.0
20,30.7693739875,31.306011525000002,53.0,82.0
21,31.5452354875,31.907304187500003,62.0,99.0
22,32.0624764875,32.1788557125,62.0,90.0
23,32.3210969875,32.66161397916667,62.0,96.0
24,32.838337987500005,33.39652723333334,65.0,112.0
25,33.6141994875,35.133594925000004,64.0,99.0
26,36.2004044875,36.689628266666666,65.0,100.0
27,36.7176454875,37.379282933333336,67.0,96.0
28,37.4935069875,37.739196462500004,65.0,89.0
29,37.752127487500005,37.98919627916667,64.0,85.0
30,38.010747987500004,38.258592633333336,65.0,72.0
31,38.2693684875,38.4891959125,64.0,89.0
32,38.5279889875,39.38574697916667,60.0,88.0
33,40.338332487500004,40.8038493875,62.0,112.0
34,40.8555734875,41.508590250000005,64.0,95.0
35,41.6314349875,41.799538312500005,62.0,97.0
36,41.8900554875,42.045227787500004,60.0,79.0
37,42.1486759875,42.36634824166667,62.0,82.0
38,42.4072964875,42.525830883333334,60.0,77.0
39,42.665916987500005,43.405140583333335,57.0,81.0
40,44.4762604875,44.993501487500005,58.0,97.0
41,44.993501487500005,45.612035516666666,60.0,88.0
42,45.5107424875,45.76074230416667,58.0,99.0
43,45.7693629875,46.004276608333335,57.0,90.0
44,46.0279834875,46.46979350833333,69.0,112.0
45,46.5452244875,46.637896833333336,67.0,88.0
46,46.8038449875,47.174534370833335,67.0,112.0
47,47.321085987500005,47.805999425,65.0,96.0
48,47.838326987500004,48.103413,62.0,99.0
49,48.0969474875,48.54306785,68.0,127.0
50,48.6141884875,48.70255049166667,67.0,86.0
51,48.8728089875,49.2478087125,67.0,117.0
52,49.6486704875,49.74996351666667,65.0,112.0
53,49.907290987500005,51.474100183333334,64.0,102.0
54,52.752116487500004,52.853409516666666,65.0,95.0
55,53.0107369875,53.10556450416667,65.0,92.0
56,53.2693574875,53.61418482083334,65.0,100.0
57,53.7865984875,53.90082254166667,65.0,96.0
58,54.0452189875,54.377115295833335,67.0,112.0
59,54.5624599875,56.084010595833334,67.0,127.0
60,56.8900444875,56.9805616625,64.0,100.0
61,57.148664987500005,57.24349250416667,64.0,90.0
62,57.407285487500005,57.754267991666666,64.0,99.0
63,58.4417674875,58.84693960416667,64.0,102.0
64,58.9590084875,59.0753877125,65.0,99.0
65,59.2176289875,59.98486980416667,62.0,99.0
66,59.993490487500004,60.157283470833335,62.0,99.0
67,60.252110987500004,60.37711089583333,64.0,95.0
68,60.5107314875,60.659438275,65.0,99.0
69,60.7693519875,60.879265700000005,64.0,96.0
70,61.0279724875,61.15943790833334,62.0,93.0
71,61.2865929875,61.39435152916667,64.0,102.0
72,61.5452134875,61.83400637916667,65.0,117.0
73,62.062454487500005,62.187454395833335,62.0,100.0
74,62.321074987500005,62.45469557916667,64.0,93.0
75,62.579695487500004,62.724091933333334,65.0,102.0
76,62.8383159875,62.91805730833334,64.0,96.0
77,63.0969364875,63.206850200000005,62.0,92.0
78,63.3555569875,63.44391899166667,64.0,100.0
79,63.6141774875,63.91590140416667,65.0,127.0
80,64.1314184875,64.23055634583334,67.0,112.0
81,64.3900389875,66.7176234875,69.0,122.0
82,67.7521054875,68.25210512083333,69.0,112.0
83,68.2693464875,68.60770830833333,67.0,117.0
84,68.7865874875,69.11632862500001,65.0,127.0
85,69.0452079875,69.11632862500001,65.0,102.0
86,69.3038284875,69.44822493333334,65.0,107.0
87,69.5624489875,69.70469026250001,64.0,96.0
88,69.8210694875,70.0861555,65.0,112.0
89,70.0796899875,70.6098620125,69.0,99.0
90,70.5969309875,70.85555148750001,64.0,107.0
91,71.1141719875,71.34262009583334,65.0,107.0
92,71.3727924875,71.59477508333333,64.0,93.0
93,71.6314129875,71.83615421666667,62.0,92.0
94,71.8900334875,72.13356779166666,62.0,122.0
95,72.1486539875,72.530119225,60.0,102.0
96,72.9245154875,73.12279120416667,62.0,112.0
97,73.18313598750001,73.35339448333333,64.0,95.0
98,73.4417564875,73.668049425,65.0,85.0
99,73.70037698750001,73.89003202083333,67.0,112.0
100,73.9589974875,74.15727320416667,64.0,107.0
101,74.2176179875,74.521497075,60.0,100.0
102,74.7348589875,74.9805484625,55.0,86.0
103,74.9934794875,75.97839255833334,57.0,92.0
104,76.5452024875,76.74132303333333,55.0,93.0
105,76.8038229875,77.08399519583334,57.0,93.0
106,77.0624434875,77.17020202916667,58.0,99.0
107,77.3210639875,77.43528804166667,58.0,107.0
108,77.5796844875,77.71330507916667,58.0,107.0
109,77.83830498750001,77.97408075,57.0,90.0
110,78.0969254875,78.31459774166667,58.0,117.0
111,78.35554598750001,78.69821815,69.0,122.0
112,78.8727869875,79.27580393333334,67.0,112.0
113,79.3900279875,79.62494160833333,65.0,112.0
114,79.6486484875,79.76071737083333,64.0,92.0
115,79.9072689875,80.14218260833334,64.0,107.0
116,80.16588948750001,80.60769950833334,62.0,96.0
117,81.20037148750001,81.30813002916668,70.0,122.0
118,81.4589919875,81.57321604166667,70.0,122.0
119,81.7176124875,81.82537102916667,70.0,127.0
120,81.9762329875,82.06243982083333,70.0,107.0
121,82.2348534875,82.39433612916667,70.0,127.0
122,82.4934739875,82.7068359,69.0,122.0
123,83.01071498750001,83.1788183125,67.0,99.0
124,83.2693354875,84.11631762500001,69.0,122.0
125,84.3038174875,84.80381712083333,69.0,112.0
126,84.8210584875,85.15942030833334,67.0,117.0
127,85.33829948750001,85.668040625,65.0,127.0
128,85.5969199875,85.668040625,65.0,102.0
129,85.85554048750001,85.99993693333333,65.0,107.0
130,86.1141609875,86.2564022625,64.0,96.0
131,86.3727814875,86.6378675,65.0,112.0
132,86.6314019875,87.1615740125,69.0,99.0
133,87.1486429875,87.4072634875,64.0,107.0
134,87.66588398750001,87.89433209583333,65.0,107.0
135,87.9245044875,88.14648708333334,64.0,93.0
136,88.18312498750001,88.38786621666667,62.0,92.0
137,88.4417454875,88.68527979166667,62.0,122.0
138,88.7003659875,89.081831225,60.0,102.0
139,89.4762274875,89.67450320416667,62.0,112.0
140,89.7348479875,89.90510648333334,64.0,95.0
141,89.99346848750001,90.219761425,65.0,85.0
142,90.2520889875,90.44174402083334,67.0,112.0
143,90.51070948750001,90.70898520416667,64.0,107.0
144,90.7693299875,91.06243322083334,67.0,127.0
145,91.2865709875,91.49131221666667,70.0,122.0
146,91.5451914875,92.03226009583334,69.0,112.0
147,93.0969144875,93.25424195833334,67.0,112.0
148,93.35553498750001,93.47191421250001,69.0,117.0
149,93.6141554875,93.86200013333334,70.0,127.0
150,93.8727759875,94.14001717083333,69.0,117.0
151,94.3900169875,94.78441325,67.0,107.0
152,95.16587848750001,95.36415420416667,65.0,117.0
153,95.4244989875,95.5538092375,67.0,99.0
154,95.68311948750001,95.9482055,69.0,122.0
155,95.9417399875,96.26070527083334,67.0,122.0
156,96.4589809875,97.10768740833333,65.0,107.0
157,97.7520834875,97.97837642500001,62.0,107.0
158,98.01070398750001,98.2176003875,64.0,99.0
159,98.2693244875,98.48699674166667,65.0,96.0
160,98.5279449875,98.7607034375,69.0,112.0
161,98.7865654875,99.12277213750001,67.0,107.0
162,99.0451859875,99.47622015416667,65.0,122.0
163,99.5624269875,99.69820275000001,64.0,96.0
164,99.82104748750001,100.38139190416668,64.0,122.0
165,100.33828848750001,100.62061586666667,65.0,102.0
166,100.5969089875,102.08613203333334,62.0,100.0
167,116.8900004875,117.37922426666667,65.0,100.0
168,117.4072414875,118.06887893333334,67.0,96.0
169,118.1831029875,118.4287924625,65.0,89.0
170,118.4417234875,118.67879227916667,64.0,85.0
171,118.7003439875,118.94818863333334,65.0,72.0
172,118.9589644875,119.1787919125,64.0,89.0
173,119.2175849875,120.07534297916668,60.0,88.0
174,121.0279284875,121.4934453875,62.0,112.0
175,121.5451694875,122.19818625,64.0,95.0
176,122.32103098750001,122.4891343125,62.0,97.0
177,122.5796514875,122.7348237875,60.0,79.0
178,122.83827198750001,123.05594424166667,62.0,82.0
179,123.0968924875,123.21542688333334,60.0,77.0
180,123.3555129875,124.09473658333334,57.0,81.0
181,125.16585648750001,125.6830974875,58.0,97.0
182,125.6830974875,126.30163151666667,60.0,88.0
183,126.2003384875,126.45033830416668,58.0,99.0
184,126.45895898750001,126.69387260833334,57.0,90.0
185,126.7175794875,127.15938950833333,69.0,112.0
186,127.2348204875,127.32749283333334,67.0,88.0
187,127.49344098750001,127.86413037083334,67.0,112.0
188,128.0106819875,128.495595425,65.0,96.0
189,128.5279229875,128.793009,62.0,99.0
190,128.7865434875,129.23266385,68.0,127.0
191,129.3037844875,129.39214649166667,67.0,86.0
192,129.5624049875,129.9374047125,67.0,117.0
193,130.3382664875,130.43955951666666,65.0,112.0
194,130.5968869875,132.16369618333334,64.0,102.0
195,133.4417124875,133.54300551666668,65.0,95.0
196,133.70033298750002,133.79516050416666,65.0,92.0
197,133.9589534875,134.30378082083334,65.0,100.0
198,134.4761944875,134.59041854166668,65.0,96.0
199,134.73481498750002,135.06671129583333,67.0,112.0
200,135.2520559875,136.77360659583334,67.0,127.0
201,137.5796404875,137.6701576625,64.0,100.0
202,137.8382609875,137.93308850416668,64.0,90.0
203,138.0968814875,138.44386399166666,64.0,99.0
204,139.1313634875,139.53653560416666,64.0,102.0
205,139.6486044875,139.7649837125,65.0,99.0
206,139.9072249875,140.67446580416666,62.0,99.0
207,140.6830864875,140.84687947083333,62.0,99.0
208,140.9417069875,141.06670689583333,64.0,95.0
209,141.2003274875,141.349034275,65.0,99.0
210,141.4589479875,141.5688617,64.0,96.0
211,141.71756848750002,141.84903390833333,62.0,93.0
212,141.9761889875,142.08394752916666,64.0,102.0
213,142.2348094875,142.52360237916668,65.0,117.0
214,142.75205048750001,142.87705039583335,62.0,100.0
215,143.0106709875,143.14429157916666,64.0,93.0
216,143.2692914875,143.41368793333334,65.0,102.0
217,143.5279119875,143.60765330833334,64.0,96.0
218,143.7865324875,143.8964462,62.0,92.0
219,144.04515298750002,144.1335149916667,64.0,100.0
220,144.3037734875,144.60549740416667,65.0,127.0
221,144.8210144875,144.92015234583334,67.0,112.0
222,145.07963498750001,147.40721948750002,69.0,122.0
223,148.4417014875,148.94170112083333,69.0,112.0
224,148.9589424875,149.29730430833334,67.0,117.0
225,149.4761834875,149.80592462500002,65.0,127.0
226,149.73480398750002,149.80592462500002,65.0,102.0
227,149.9934244875,150.13782093333333,65.0,107.0
228,150.2520449875,150.3942862625,64.0,96.0
229,150.5106654875,150.7757515,65.0,112.0
230,150.7692859875,151.2994580125,69.0,99.0
231,151.2865269875,151.5451474875,64.0,107.0
232,151.8037679875,152.03221609583335,65.0,107.0
233,152.06238848750002,152.28437108333333,64.0,93.0
234,152.3210089875,152.52575021666667,62.0,92.0
235,152.5796294875,152.82316379166667,62.0,122.0
236,152.8382499875,153.21971522500002,60.0,102.0
237,153.6141114875,153.81238720416667,62.0,112.0
238,153.8727319875,154.04299048333334,64.0,95.0
239,154.1313524875,154.35764542500002,65.0,85.0
240,154.38997298750002,154.57962802083333,67.0,112.0
241,154.6485934875,154.84686920416667,64.0,107.0
242,154.9072139875,155.211093075,60.0,100.0
243,155.4244549875,155.67014446250002,55.0,86.0
244,155.68307548750002,156.66798855833335,57.0,92.0
245,157.2347984875,157.43091903333334,55.0,93.0
246,157.4934189875,157.77359119583335,57.0,93.0
247,157.7520394875,157.85979802916668,58.0,99.0
248,158.01065998750002,158.12488404166666,58.0,107.0
249,158.2692804875,158.40290107916667,58.0,107.0
250,158.5279009875,158.66367675,57.0,90.0
251,158.7865214875,159.00419374166668,58.0,117.0
252,159.04514198750002,159.38781415,69.0,122.0
253,159.5623829875,159.96539993333334,67.0,112.0
254,160.0796239875,160.31453760833335,65.0,112.0
255,160.33824448750002,160.45031337083333,64.0,92.0
256,160.5968649875,160.83177860833334,64.0,107.0
257,160.8554854875,161.29729550833335,62.0,96.0
258,161.8899674875,161.99772602916667,70.0,122.0
259,162.1485879875,162.26281204166668,70.0,122.0
260,162.40720848750001,162.51496702916668,70.0,127.0
261,162.6658289875,162.75203582083333,70.0,107.0
262,162.9244494875,163.08393212916667,70.0,127.0
263,163.1830699875,163.3964319,69.0,122.0
264,163.70031098750002,163.8684143125,67.0,99.0
265,163.9589314875,164.80591362500002,69.0,122.0
266,164.9934134875,165.49341312083334,69.0,112.0
267,165.5106544875,165.84901630833335,67.0,117.0
268,166.02789548750002,166.357636625,65.0,127.0
269,166.2865159875,166.357636625,65.0,102.0
270,166.5451364875,166.68953293333334,65.0,107.0
271,166.8037569875,166.9459982625,64.0,96.0
272,167.06237748750002,167.3274635,65.0,112.0
273,167.3209979875,167.8511700125,69.0,99.0
274,167.8382389875,168.0968594875,64.0,107.0
275,168.35547998750002,168.58392809583333,65.0,107.0
276,168.6141004875,168.83608308333334,64.0,93.0
277,168.8727209875,169.07746221666667,62.0,92.0
278,169.1313414875,169.37487579166668,62.0,122.0
279,169.38996198750002,169.771427225,60.0,102.0
280,170.1658234875,170.36409920416668,62.0,112.0
281,170.4244439875,170.59470248333335,64.0,95.0
282,170.68306448750002,170.909357425,65.0,85.0
283,170.9416849875,171.13134002083333,67.0,112.0
284,171.2003054875,171.39858120416667,64.0,107.0
285,171.4589259875,171.75202922083335,67.0,127.0
286,171.9761669875,172.18090821666667,70.0,122.0
287,172.2347874875,172.72185609583335,69.0,112.0
288,173.7865104875,173.94383795833335,67.0,112.0
289,174.04513098750002,174.16151021250002,69.0,117.0
290,174.3037514875,174.55159613333333,70.0,127.0
291,174.5623719875,174.82961317083334,69.0,117.0
292,175.0796129875,175.47400925,67.0,107.0
293,175.8554744875,176.05375020416668,65.0,117.0
294,176.1140949875,176.2434052375,67.0,99.0
295,176.37271548750002,176.6378015,69.0,122.0
296,176.6313359875,176.95030127083334,67.0,122.0
297,177.1485769875,177.79728340833333,65.0,107.0
298,178.4416794875,178.66797242500002,62.0,107.0
299,178.70029998750002,178.9071963875,64.0,99.0
300,178.9589204875,179.17659274166667,65.0,96.0
301,179.2175409875,179.4502994375,69.0,112.0
302,179.4761614875,179.81236813750002,67.0,107.0
303,179.7347819875,180.16581615416666,65.0,122.0
304,180.2520229875,180.38779875,64.0,96.0
305,180.5106434875,181.07098790416669,64.0,122.0
306,181.02788448750002,181.31021186666666,65.0,102.0
307,181.2865049875,182.77572803333334,62.0,100.0
308,183.6140894875,184.11408912083334,69.0,112.0
309,184.1313304875,184.46969230833335,67.0,117.0
310,184.64857148750002,184.978312625,65.0,127.0
311,184.9071919875,184.978312625,65.0,102.0
312,185.1658124875,185.31020893333334,65.0,107.0
313,185.4244329875,185.56667426250002,64.0,96.0
314,185.68305348750002,185.9481395,65.0,112.0
315,185.9416739875,186.4718460125,69.0,99.0
316,186.4589149875,186.71753548750002,64.0,107.0
317,186.9761559875,187.20460409583333,65.0,107.0
318,187.2347764875,187.45675908333334,64.0,93.0
319,187.4933969875,187.69813821666668,62.0,92.0
320,187.7520174875,187.99555179166668,62.0,122.0
321,188.01063798750002,188.392103225,60.0,102.0
322,188.7864994875,188.98477520416668,62.0,112.0
323,189.04511998750002,189.21537848333335,64.0,95.0
324,189.3037404875,189.530033425,65.0,85.0
325,189.5623609875,189.75201602083334,67.0,112.0
326,189.8209814875,190.01925720416668,64.0,107.0
327,190.0796019875,190.38348107500002,60.0,100.0
328,190.5968429875,190.8425324625,55.0,86.0
329,190.8554634875,191.84037655833333,57.0,92.0
330,192.4071864875,192.60330703333335,55.0,93.0
331,192.66580698750002,192.94597919583333,57.0,93.0
332,192.9244274875,193.03218602916667,58.0,99.0
333,193.1830479875,193.29727204166667,58.0,107.0
334,193.4416684875,193.57528907916668,58.0,107.0
335,193.70028898750002,193.83606475000002,57.0,90.0
336,193.9589094875,194.17658174166667,58.0,117.0
337,194.2175299875,194.56020215,69.0,122.0
338,194.7347709875,195.13778793333333,67.0,112.0
339,195.2520119875,195.48692560833334,65.0,112.0
340,195.5106324875,195.62270137083334,64.0,92.0
341,195.7692529875,196.00416660833335,64.0,107.0
342,196.02787348750002,196.46968350833333,62.0,96.0
343,197.0623554875,197.17011402916668,70.0,122.0
344,197.32097598750002,197.43520004166666,70.0,122.0
345,197.5795964875,197.68735502916667,70.0,127.0
346,197.8382169875,197.92442382083334,70.0,107.0
347,198.0968374875,198.25632012916668,70.0,127.0
348,198.35545798750002,198.5688199,69.0,122.0
349,198.8726989875,199.0408023125,67.0,99.0
350,199.1313194875,199.978301625,69.0,122.0
351,200.1658014875,200.66580112083335,69.0,112.0
352,200.68304248750002,201.02140430833333,67.0,117.0
353,201.2002834875,201.530024625,65.0,127.0
354,201.4589039875,201.530024625,65.0,102.0
355,201.71752448750001,201.86192093333335,65.0,107.0
356,201.97614498750002,202.1183862625,64.0,96.0
357,202.2347654875,202.4998515,65.0,112.0
358,202.4933859875,203.02355801250002,69.0,99.0
359,203.01062698750002,203.2692474875,64.0,107.0
360,203.5278679875,203.75631609583334,65.0,107.0
361,203.7864884875,204.00847108333335,64.0,93.0
362,204.04510898750002,204.2498502166667,62.0,92.0
363,204.30372948750002,204.54726379166667,62.0,122.0
364,204.5623499875,204.943815225,60.0,102.0
365,205.33821148750002,205.53648720416666,62.0,112.0
366,205.5968319875,205.76709048333333,64.0,95.0
367,205.8554524875,206.081745425,65.0,85.0
368,206.1140729875,206.30372802083335,67.0,112.0
369,206.37269348750002,206.5709692041667,64.0,107.0
370,206.63131398750002,206.92441722083333,67.0,127.0
371,207.1485549875,207.35329621666668,70.0,122.0
372,207.4071754875,207.89424409583333,69.0,112.0
373,208.95889848750002,209.11622595833333,67.0,112.0
374,209.2175189875,209.3338982125,69.0,117.0
375,209.4761394875,209.72398413333335,70.0,127.0
376,209.7347599875,210.00200117083335,69.0,117.0
377,210.2520009875,210.64639725,67.0,107.0
378,211.02786248750002,211.2261382041667,65.0,117.0
379,211.2864829875,211.4157932375,67.0,99.0
380,211.5451034875,211.8101895,69.0,122.0
381,211.8037239875,212.12268927083335,67.0,122.0
382,212.32096498750002,212.96967140833334,65.0,107.0
383,213.6140674875,213.840360425,62.0,107.0
384,213.8726879875,214.0795843875,64.0,99.0
385,214.1313084875,214.34898074166668,65.0,96.0
386,214.3899289875,214.62268743750002,69.0,112.0
387,214.64854948750002,214.9847561375,67.0,107.0
388,214.9071699875,215.33820415416668,65.0,122.0
389,215.4244109875,215.56018675,64.0,96.0
390,215.68303148750002,216.24337590416667,64.0,122.0
391,216.2002724875,216.48259986666667,65.0,102.0
392,216.4588929875,217.94811603333335,62.0,100.0
