,start,end,pitch,velocity
0,3.6142214875,3.8556006208333335,50.0,38.0
1,2.5797394875,3.9310316000000003,38.0,69.0
2,3.0969804875,3.9310316000000003,45.0,52.0
3,4.1314624875,4.689651733333333,62.0,54.0
4,3.6142214875,4.691806904166667,65.0,93.0
5,4.3900829875000005,4.743531004166667,57.0,51.0
6,5.1659444875,5.782323345833333,43.0,45.0
7,4.648703487500001,5.7995647125000005,36.0,66.0
8,5.6831854875,5.892237058333333,48.0,52.0
9,6.200426487500001,6.670253729166667,55.0,70.0
10,5.6831854875,6.721977829166667,64.0,86.0
11,7.2349084875,7.943959691666667,53.0,27.0
12,7.7521494875000005,7.993528620833334,58.0,52.0
13,6.7176674875,8.103442333333334,46.0,89.0
14,7.7521494875000005,8.726286704166666,65.0,89.0
15,8.2693904875,8.769390120833334,62.0,59.0
16,9.8211134875,10.021544375,53.0,52.0
17,8.786631487500001,10.224130433333334,41.0,70.0
18,9.3038724875,10.336199316666667,48.0,42.0
19,9.8211134875,10.471975079166667,60.0,71.0
20,9.8211134875,10.892233391666666,65.0,82.0
21,10.596974987500001,10.9073195875,60.0,65.0
22,10.3383544875,10.909474758333333,57.0,69.0
23,11.3728364875,12.0581808125,50.0,50.0
24,10.8555954875,12.256456529166668,43.0,72.0
25,11.6314569875,12.452577075,55.0,61.0
26,12.407318487500001,12.943956025,58.0,52.0
27,11.890077487500001,12.969818075000001,62.0,99.0
28,12.6659389875,12.976283587500001,55.0,55.0
29,12.9245594875,14.336196383333334,38.0,64.0
30,13.9590414875,14.3792998,50.0,42.0
31,13.4418004875,14.487058341666668,45.0,57.0
32,13.9590414875,14.976282120833334,62.0,72.0
33,13.9590414875,14.976282120833334,65.0,71.0
34,14.4762824875,15.060333783333334,57.0,66.0
35,15.510764487500001,15.810333233333333,52.0,62.0
36,14.993523487500001,16.478436191666667,40.0,68.0
37,16.545246487500002,17.032315095833333,55.0,59.0
38,16.0280054875,17.04309095,58.0,62.0
39,16.0280054875,17.053866804166667,62.0,73.0
40,18.0969694875,18.28231417916667,55.0,40.0
41,17.579728487500002,18.482745066666666,52.0,50.0
42,17.0624874875,18.56033121666667,45.0,77.0
43,18.0969694875,19.1055894375,61.0,69.0
44,18.0969694875,19.120675633333335,64.0,70.0
45,18.0969694875,19.124985975,67.0,75.0
46,18.0969694875,19.133606658333335,57.0,66.0
47,20.165933487500002,20.443950525,50.0,40.0
48,19.1314514875,20.525847016666667,38.0,78.0
49,19.6486924875,20.547398725,45.0,55.0
50,20.165933487500002,21.16593275416667,65.0,86.0
51,20.6831744875,21.2133465125,62.0,70.0
52,21.200415487500003,22.657310970833333,36.0,71.0
53,21.7176564875,22.689638533333333,43.0,51.0
54,22.2348974875,22.771535025000002,48.0,41.0
55,22.2348974875,23.1659312875,64.0,63.0
56,22.2348974875,23.2693794875,60.0,70.0
57,22.7521384875,23.349120808333335,55.0,65.0
58,24.3038614875,24.431016566666667,53.0,48.0
59,23.786620487500002,24.435326908333334,50.0,60.0
60,23.2693794875,24.4848958375,46.0,95.0
61,24.3038614875,25.4288606625,65.0,66.0
62,24.3038614875,25.4417916875,58.0,90.0
63,24.8211024875,25.443946858333334,55.0,50.0
64,24.3038614875,25.461188225,62.0,77.0
65,25.8555844875,26.55170466666667,48.0,56.0
66,25.3383434875,26.640066670833335,41.0,70.0
67,26.372825487500002,27.428859195833333,57.0,77.0
68,26.372825487500002,27.456876416666667,60.0,83.0
69,26.8900664875,27.480583295833334,53.0,63.0
70,27.9245484875,28.5840307625,50.0,55.0
71,27.407307487500002,28.657306570833335,43.0,66.0
72,28.4417894875,29.55816797916667,58.0,89.0
73,28.4417894875,29.58403002916667,62.0,61.0
74,28.9590304875,29.635754129166667,55.0,66.0
75,29.4762714875,30.704718862500002,38.0,76.0
76,30.5107534875,30.784460183333334,50.0,40.0
77,29.993512487500002,30.788770525,45.0,56.0
78,30.5107534875,31.523683779166667,62.0,82.0
79,30.5107534875,31.536614804166668,65.0,76.0
80,31.027994487500003,31.609890612500003,57.0,73.0
81,32.0624764875,32.650838125,46.0,55.0
82,31.5452354875,32.6702346625,40.0,67.0
83,33.096958487500004,33.504285775,52.0,63.0
84,32.5797174875,33.52152714166667,55.0,74.0
85,32.5797174875,33.5495443625,58.0,83.0
86,34.1314404875,34.78230207916667,52.0,59.0
87,34.3900609875,35.1917845375,57.0,85.0
88,34.9073019875,35.209025904166666,52.0,70.0
89,33.6141994875,35.284456883333334,45.0,93.0
90,35.1659224875,35.646525583333336,61.0,107.0
91,34.6486814875,35.66376695,64.0,102.0
92,35.424542987500004,35.69178417083334,57.0,85.0
93,36.7176454875,36.93962808333333,50.0,57.0
94,35.6831634875,36.99997286666667,38.0,85.0
95,36.2004044875,37.094800383333336,45.0,51.0
96,36.7176454875,37.73488612083334,62.0,83.0
97,36.7176454875,37.74350680416667,65.0,86.0
98,37.2348864875,37.79954124583333,57.0,71.0
99,38.2693684875,38.94393695833333,43.0,56.0
100,37.752127487500005,39.0516955,36.0,83.0
101,38.7866094875,39.18962643333334,48.0,50.0
102,38.7866094875,39.79738460833333,64.0,89.0
103,38.7866094875,39.80169495,60.0,83.0
104,39.3038504875,39.92885002916667,55.0,72.0
105,40.8555734875,41.37928,53.0,47.0
106,40.338332487500004,41.413762733333336,50.0,51.0
107,39.8210914875,41.44824546666667,46.0,95.0
108,40.8555734875,41.9417795875,58.0,88.0
109,40.8555734875,41.943934758333334,65.0,42.0
110,40.8555734875,41.950400270833335,62.0,82.0
111,42.924537487500004,43.2930717,53.0,72.0
112,41.8900554875,43.7262610375,41.0,67.0
113,42.4072964875,43.952553975,48.0,59.0
114,42.924537487500004,44.00212290416667,65.0,92.0
115,43.4417784875,44.09695042083334,57.0,77.0
116,44.4762604875,45.12065656666667,50.0,63.0
117,43.9590194875,45.24781164583334,43.0,65.0
118,44.993501487500005,45.99350075416667,58.0,95.0
119,45.5107424875,46.06462139166667,55.0,69.0
120,47.0624654875,47.370654916666666,50.0,52.0
121,46.0279834875,47.45686175,38.0,67.0
122,46.5452244875,47.56462029166667,45.0,45.0
123,47.0624654875,48.2003956875,62.0,69.0
124,47.0624654875,48.2262577375,65.0,82.0
125,47.579706487500005,48.23487842083333,57.0,78.0
126,48.6141884875,49.202550125,52.0,61.0
127,48.0969474875,49.26720525,40.0,71.0
128,49.6486704875,50.06030811666667,52.0,73.0
129,49.1314294875,50.09910119166667,55.0,77.0
130,49.1314294875,50.12496324166667,58.0,90.0
131,50.6831524875,50.905135083333334,57.0,83.0
132,50.4245319875,51.329703737500004,52.0,47.0
133,51.4590139875,51.68746209583333,52.0,73.0
134,50.165911487500004,51.752117220833334,45.0,75.0
135,50.9417729875,51.89435849583334,61.0,88.0
136,51.2003934875,52.24996168333333,67.0,95.0
137,51.9762549875,52.2607375375,61.0,82.0
138,51.7176344875,52.28228924583333,57.0,88.0
139,51.2003934875,52.31677197916667,64.0,42.0
140,52.234875487500005,53.769357120833334,46.0,92.0
141,53.2693574875,53.8447881,65.0,93.0
142,53.5279779875,54.06246035416667,53.0,49.0
143,53.2693574875,54.187460262500004,62.0,69.0
144,53.7865984875,54.232718850000005,58.0,95.0
145,52.752116487500004,54.27366709583333,50.0,59.0
146,54.3038394875,54.99995966666667,65.0,61.0
147,54.3038394875,55.1572871375,62.0,63.0
148,54.3038394875,55.168062991666666,57.0,67.0
149,54.3038394875,55.18745952916667,58.0,61.0
150,55.338321487500004,55.76935565416667,58.0,72.0
151,54.3038394875,55.92237278333334,46.0,65.0
152,55.338321487500004,55.93745897916667,53.0,51.0
153,54.821080487500005,55.997803762500006,50.0,44.0
154,55.8555624875,56.366337975,58.0,75.0
155,55.338321487500004,56.400820708333335,62.0,65.0
156,55.338321487500004,56.413751733333335,65.0,56.0
157,56.8900444875,57.5236647125,52.0,63.0
158,56.3728034875,57.74564730833333,45.0,72.0
159,57.665905987500004,57.780130041666666,52.0,50.0
160,57.407285487500005,58.4999571,60.0,86.0
161,57.407285487500005,58.52797432083334,64.0,83.0
162,58.9590084875,59.60987007916667,45.0,53.0
163,58.4417674875,59.6184907625,38.0,68.0
164,59.476249487500006,59.6702148625,50.0,69.0
165,57.9245264875,59.95900775416667,57.0,83.0
166,59.993490487500004,60.474093583333335,62.0,93.0
167,59.476249487500006,60.55814524583334,65.0,93.0
168,59.734869987500005,60.57323144166667,64.0,82.0
169,60.252110987500004,60.64650725,57.0,71.0
170,61.0279724875,61.676678908333336,50.0,63.0
171,60.5107314875,62.092626879166666,43.0,72.0
172,61.5452134875,62.105557904166666,58.0,89.0
173,61.8038339875,62.4115921625,50.0,77.0
174,62.062454487500005,62.4115921625,55.0,88.0
175,61.5452134875,62.60986787916667,62.0,89.0
176,62.321074987500005,62.612023050000005,57.0,74.0
177,63.3555569875,63.584005095833334,58.0,99.0
178,63.0969364875,63.680987783333336,53.0,89.0
179,62.579695487500004,64.1702115625,46.0,96.0
180,62.8383159875,64.17883224583333,50.0,56.0
181,63.8727979875,64.19176327083333,53.0,95.0
182,63.6141774875,64.22409083333334,65.0,86.0
183,64.1314184875,64.46762513750001,58.0,107.0
184,64.3900389875,64.62926295,62.0,89.0
185,65.1659004875,65.77796900416666,55.0,78.0
186,64.9072799875,65.85555515416667,52.0,49.0
187,65.4245209875,66.22193419583334,57.0,68.0
188,65.68314148750001,66.22839970833334,61.0,122.0
189,66.20038248750001,66.28443415,64.0,88.0
190,65.9417619875,67.00857155,52.0,72.0
191,66.7176234875,67.62064006666667,73.0,112.0
192,66.7176234875,67.63788143333333,69.0,99.0
193,66.7176234875,67.7068469,64.0,76.0
194,67.7521054875,67.90296744583334,64.0,43.0
195,66.7176234875,68.00641564583334,57.0,71.0
196,68.01072598750001,68.28443268333334,52.0,67.0
197,64.6486594875,68.288743025,45.0,72.0
198,67.7521054875,68.68529445833333,73.0,127.0
199,68.2693464875,68.7090013375,69.0,112.0
200,68.52796698750001,68.7865874875,64.0,86.0
201,69.3038284875,69.86417290416667,50.0,97.0
202,69.5624489875,70.16805199166667,57.0,117.0
203,70.0796899875,70.3512415125,50.0,96.0
204,68.7865874875,70.47839659166667,38.0,89.0
205,69.0452079875,70.51072415416667,45.0,72.0
206,70.3383104875,70.82322392500001,62.0,112.0
207,69.8210694875,70.82968943750001,65.0,117.0
208,70.5969309875,70.94391349166666,57.0,107.0
209,71.3727924875,71.95899895416667,48.0,97.0
210,72.1486539875,72.478395125,48.0,102.0
211,71.6314129875,72.4848606375,55.0,95.0
212,70.85555148750001,72.48917097916667,36.0,90.0
213,71.1141719875,72.49563649166667,43.0,75.0
214,72.4072744875,72.90942929166667,60.0,107.0
215,71.8900334875,72.91373963333334,64.0,102.0
216,72.6658949875,72.93529134166667,55.0,99.0
217,73.4417564875,74.02580778333333,58.0,107.0
218,73.70037698750001,74.07968705416667,53.0,86.0
219,73.18313598750001,74.5021005375,50.0,62.0
220,74.2176179875,74.50425570833333,53.0,88.0
221,72.9245154875,74.53658327083333,46.0,95.0
222,74.4762384875,74.56460049166667,63.0,36.0
223,73.9589974875,74.5926177125,65.0,96.0
224,74.4762384875,74.80382445416667,58.0,96.0
225,74.7348589875,74.9934794875,62.0,90.0
226,75.7693409875,76.09908212500001,57.0,92.0
227,75.51072048750001,76.16589242083333,53.0,86.0
228,76.2865819875,76.59261624583334,53.0,68.0
229,76.2865819875,76.61416795416667,57.0,89.0
230,74.9934794875,76.88787465,41.0,71.0
231,75.2520999875,77.055977975,48.0,68.0
232,76.02796148750001,77.05813314583334,65.0,100.0
233,76.5452024875,77.06459865833334,60.0,99.0
234,76.8038229875,77.068909,57.0,96.0
235,77.5796844875,77.82537396250001,55.0,93.0
236,77.83830498750001,78.16373578333334,58.0,107.0
237,78.0969254875,78.67451127083334,62.0,96.0
238,77.0624434875,78.7046836625,43.0,69.0
239,77.3210639875,78.70683883333334,50.0,69.0
240,78.6141664875,79.01933860416666,58.0,100.0
241,78.35554598750001,79.08399372916666,55.0,93.0
242,78.8727869875,79.12063163333333,62.0,96.0
243,79.9072689875,80.23916529583333,57.0,93.0
244,79.6486484875,80.33830315416667,50.0,93.0
245,79.1314074875,80.68313048750001,38.0,92.0
246,80.4245099875,80.70037185416668,57.0,96.0
247,79.3900279875,80.72407873333334,45.0,77.0
248,80.4245099875,80.87278552083333,50.0,73.0
249,80.68313048750001,81.17019909583334,62.0,99.0
250,80.16588948750001,81.17019909583334,65.0,107.0
251,80.9417509875,81.20037148750001,57.0,96.0
252,81.7176124875,82.00856055,52.0,86.0
253,81.9762329875,82.14218114166667,55.0,95.0
254,82.2348534875,82.35985339583334,58.0,127.0
255,82.4934739875,82.7068359,55.0,97.0
256,81.20037148750001,82.80166341666667,40.0,90.0
257,81.4589919875,82.8426116625,46.0,95.0
258,82.7520944875,82.85769785833334,55.0,35.0
259,82.7520944875,82.900801275,58.0,117.0
260,82.4934739875,82.93959435000001,52.0,43.0
261,83.01071498750001,83.1529562625,64.0,107.0
262,83.7865764875,84.37924846666667,52.0,97.0
263,84.0451969875,84.41157602916667,57.0,97.0
264,84.3038174875,85.12278240416667,67.0,99.0
265,83.2693354875,85.27795470416667,45.0,99.0
266,84.5624379875,85.29088572916667,52.0,97.0
267,83.52795598750001,85.29950641250001,49.0,99.0
268,84.8210584875,85.32752363333334,57.0,99.0
269,85.0796789875,85.34260982916668,61.0,127.0
270,85.85554048750001,86.41588490416667,50.0,97.0
271,86.1141609875,86.71976399166667,57.0,117.0
272,86.6314019875,86.9029535125,50.0,96.0
273,85.33829948750001,87.03010859166668,38.0,89.0
274,85.5969199875,87.06243615416668,45.0,72.0
275,86.8900224875,87.374935925,62.0,112.0
276,86.3727814875,87.3814014375,65.0,117.0
277,87.1486429875,87.49562549166667,57.0,107.0
278,87.9245044875,88.51071095416667,48.0,97.0
279,88.7003659875,89.030107125,48.0,102.0
280,88.18312498750001,89.0365726375,55.0,95.0
281,87.4072634875,89.04088297916667,36.0,90.0
282,87.66588398750001,89.04734849166667,43.0,75.0
283,88.9589864875,89.46114129166666,60.0,107.0
284,88.4417454875,89.46545163333333,64.0,102.0
285,89.2176069875,89.48700334166666,55.0,99.0
286,89.99346848750001,90.57751978333334,58.0,107.0
287,90.2520889875,90.63139905416666,53.0,86.0
288,89.7348479875,91.05381253750001,50.0,62.0
289,90.7693299875,91.05596770833334,53.0,88.0
290,89.4762274875,91.08829527083334,46.0,95.0
291,91.02795048750001,91.11631249166668,63.0,36.0
292,90.51070948750001,91.14432971250001,65.0,96.0
293,91.02795048750001,91.35553645416667,58.0,96.0
294,91.2865709875,91.5451914875,62.0,90.0
295,92.32105298750001,92.650794125,57.0,92.0
296,92.0624324875,92.71760442083334,53.0,86.0
297,92.83829398750001,93.14432824583334,53.0,68.0
298,92.83829398750001,93.16587995416667,57.0,89.0
299,91.5451914875,93.43958665000001,41.0,71.0
300,91.8038119875,93.607689975,48.0,68.0
301,92.5796734875,93.60984514583333,65.0,100.0
302,93.0969144875,93.61631065833333,60.0,99.0
303,93.35553498750001,93.620621,57.0,96.0
304,94.1313964875,94.3770859625,55.0,93.0
305,94.3900169875,94.71544778333333,58.0,107.0
306,94.6486374875,95.22622327083333,62.0,96.0
307,93.6141554875,95.2563956625,43.0,69.0
308,93.8727759875,95.25855083333333,50.0,69.0
309,95.16587848750001,95.57105060416667,58.0,100.0
310,94.9072579875,95.63570572916667,55.0,93.0
311,95.4244989875,95.67234363333334,62.0,96.0
312,96.4589809875,96.79087729583334,57.0,93.0
313,96.2003604875,96.89001515416668,50.0,93.0
314,95.68311948750001,97.2348424875,38.0,92.0
315,96.9762219875,97.25208385416667,57.0,96.0
316,95.9417399875,97.27579073333334,45.0,77.0
317,96.9762219875,97.42449752083334,50.0,73.0
318,97.2348424875,97.72191109583333,62.0,99.0
319,96.7176014875,97.72191109583333,65.0,107.0
320,97.49346298750001,97.7520834875,57.0,96.0
321,98.01070398750001,98.3598416625,46.0,81.0
322,97.7520834875,98.3986347375,40.0,92.0
323,98.2693244875,98.57751391666667,52.0,93.0
324,98.5279449875,98.76932412083333,55.0,81.0
325,98.7865654875,99.69389240833334,45.0,75.0
326,99.0451859875,99.69604757916667,52.0,76.0
327,99.5624269875,99.82104748750001,64.0,86.0
328,99.3038064875,99.84259919583334,57.0,92.0
329,100.33828848750001,100.90940875833334,50.0,79.0
330,100.0796679875,101.85983909583334,45.0,72.0
331,99.82104748750001,101.86630460833334,38.0,93.0
332,100.5969089875,101.883545975,57.0,79.0
333,101.1141499875,101.89432182916667,50.0,72.0
334,101.3727704875,101.91802870833334,64.0,82.0
335,100.85552948750001,101.935270075,65.0,99.0
336,101.6313909875,101.93742524583334,62.0,66.0
337,102.4072524875,103.02363134583334,43.0,45.0
338,101.8900114875,103.0408727125,36.0,66.0
339,102.9244934875,103.13354505833334,48.0,52.0
340,103.4417344875,103.91156172916666,55.0,70.0
341,102.9244934875,103.96328582916667,64.0,86.0
342,104.47621648750001,105.18526769166667,53.0,27.0
343,104.99345748750001,105.23483662083333,58.0,52.0
344,103.9589754875,105.34475033333334,46.0,89.0
345,104.99345748750001,105.96759470416667,65.0,89.0
346,105.51069848750001,106.01069812083334,62.0,59.0
347,107.0624214875,107.26285237500001,53.0,52.0
348,106.0279394875,107.46543843333333,41.0,70.0
349,106.5451804875,107.57750731666667,48.0,42.0
350,107.0624214875,107.71328307916667,60.0,71.0
351,107.0624214875,108.13354139166667,65.0,82.0
352,107.83828298750001,108.1486275875,60.0,65.0
353,107.5796624875,108.15078275833334,57.0,69.0
354,108.6141444875,109.2994888125,50.0,50.0
355,108.0969034875,109.49776452916667,43.0,72.0
356,108.8727649875,109.693885075,55.0,61.0
357,109.64862648750001,110.18526402500001,58.0,52.0
358,109.1313854875,110.21112607500001,62.0,99.0
359,109.9072469875,110.21759158750001,55.0,55.0
360,110.16586748750001,111.57750438333333,38.0,64.0
361,111.2003494875,111.6206078,50.0,42.0
362,110.68310848750001,111.72836634166667,45.0,57.0
363,111.2003494875,112.21759012083334,62.0,72.0
364,111.2003494875,112.21759012083334,65.0,71.0
365,111.7175904875,112.30164178333334,57.0,66.0
366,112.7520724875,113.05164123333334,52.0,62.0
367,112.2348314875,113.71974419166668,40.0,68.0
368,113.7865544875,114.27362309583334,55.0,59.0
369,113.2693134875,114.28439895000001,58.0,62.0
370,113.2693134875,114.29517480416668,62.0,73.0
371,115.33827748750001,115.52362217916667,55.0,40.0
372,114.82103648750001,115.72405306666667,52.0,50.0
373,114.30379548750001,115.80163921666667,45.0,77.0
374,115.33827748750001,116.3468974375,61.0,69.0
375,115.33827748750001,116.36198363333334,64.0,70.0
376,115.33827748750001,116.366293975,67.0,75.0
377,115.33827748750001,116.3727594875,57.0,66.0
378,117.4072414875,117.62922408333334,50.0,57.0
379,116.3727594875,117.68956886666668,38.0,85.0
380,116.8900004875,117.78439638333334,45.0,51.0
381,117.4072414875,118.42448212083333,62.0,83.0
382,117.4072414875,118.43310280416667,65.0,86.0
383,117.9244824875,118.48913724583333,57.0,71.0
384,118.9589644875,119.63353295833333,43.0,56.0
385,118.4417234875,119.7412915,36.0,83.0
386,119.47620548750001,119.87922243333334,48.0,50.0
387,119.47620548750001,120.48698060833334,64.0,89.0
388,119.47620548750001,120.49129095,60.0,83.0
389,119.99344648750001,120.61844602916668,55.0,72.0
390,121.5451694875,122.068876,53.0,47.0
391,121.0279284875,122.10335873333334,50.0,51.0
392,120.51068748750001,122.13784146666667,46.0,95.0
393,121.5451694875,122.6313755875,58.0,88.0
394,121.5451694875,122.63353075833334,65.0,42.0
395,121.5451694875,122.63999627083334,62.0,82.0
396,123.6141334875,123.98266770000001,53.0,72.0
397,122.5796514875,124.4158570375,41.0,67.0
398,123.0968924875,124.64214997500001,48.0,59.0
399,123.6141334875,124.69171890416668,65.0,92.0
400,124.13137448750001,124.78654642083333,57.0,77.0
401,125.16585648750001,125.81025256666668,50.0,63.0
402,124.64861548750001,125.93740764583333,43.0,65.0
403,125.6830974875,126.68309675416667,58.0,95.0
404,126.2003384875,126.75421739166667,55.0,69.0
405,127.7520614875,128.06025091666666,50.0,52.0
406,126.7175794875,128.14645775,38.0,67.0
407,127.2348204875,128.25421629166667,45.0,45.0
408,127.7520614875,128.88999168750001,62.0,69.0
409,127.7520614875,128.91585373750002,65.0,82.0
410,128.2693024875,128.92447442083335,57.0,78.0
411,129.3037844875,129.892146125,52.0,61.0
412,128.7865434875,129.95680125,40.0,71.0
413,130.3382664875,130.74990411666667,52.0,73.0
414,129.8210254875,130.78869719166667,55.0,77.0
415,129.8210254875,130.81455924166667,58.0,90.0
416,131.37274848750002,131.59473108333333,57.0,83.0
417,131.1141279875,132.0192997375,52.0,47.0
418,132.1486099875,132.37705809583335,52.0,73.0
419,130.8555074875,132.44171322083335,45.0,75.0
420,131.6313689875,132.58395449583332,61.0,88.0
421,131.8899894875,132.93955768333333,67.0,95.0
422,132.6658509875,132.9503335375,61.0,82.0
423,132.40723048750002,132.97188524583333,57.0,88.0
424,131.8899894875,133.00636797916667,64.0,42.0
425,132.9244714875,134.45895312083334,46.0,92.0
426,133.9589534875,134.5343841,65.0,93.0
427,134.2175739875,134.75205635416668,53.0,49.0
428,133.9589534875,134.8770562625,62.0,69.0
429,134.4761944875,134.92231485,58.0,95.0
430,133.4417124875,134.96326309583333,50.0,59.0
431,134.9934354875,135.68955566666668,65.0,61.0
432,134.9934354875,135.84688313750001,62.0,63.0
433,134.9934354875,135.85765899166668,57.0,67.0
434,134.9934354875,135.87705552916668,58.0,61.0
435,136.02791748750002,136.45895165416667,58.0,72.0
436,134.9934354875,136.61196878333334,46.0,65.0
437,136.02791748750002,136.62705497916667,53.0,51.0
438,135.5106764875,136.6873997625,50.0,44.0
439,136.5451584875,137.05593397500002,58.0,75.0
440,136.02791748750002,137.09041670833335,62.0,65.0
441,136.02791748750002,137.10334773333335,65.0,56.0
442,137.5796404875,138.21326071250002,52.0,63.0
443,137.06239948750002,138.43524330833333,45.0,72.0
444,138.3555019875,138.46972604166666,52.0,50.0
445,138.0968814875,139.1895531,60.0,86.0
446,138.0968814875,139.21757032083335,64.0,83.0
447,139.6486044875,140.29946607916668,45.0,53.0
448,139.1313634875,140.3080867625,38.0,68.0
449,140.1658454875,140.3598108625,50.0,69.0
450,138.6141224875,140.6486037541667,57.0,83.0
451,140.6830864875,141.16368958333334,62.0,93.0
452,140.1658454875,141.24774124583334,65.0,93.0
453,140.4244659875,141.26282744166667,64.0,82.0
454,140.9417069875,141.33610325,57.0,71.0
455,141.71756848750002,142.36627490833334,50.0,63.0
456,141.2003274875,142.78222287916668,43.0,72.0
457,142.2348094875,142.79515390416668,58.0,89.0
458,142.4934299875,143.1011881625,50.0,77.0
459,142.75205048750001,143.1011881625,55.0,88.0
460,142.2348094875,143.29946387916667,62.0,89.0
461,143.0106709875,143.30161905,57.0,74.0
462,144.04515298750002,144.27360109583333,58.0,99.0
463,143.7865324875,144.37058378333333,53.0,89.0
464,143.2692914875,144.8598075625,46.0,96.0
465,143.5279119875,144.86842824583334,50.0,56.0
466,144.5623939875,144.88135927083334,53.0,95.0
467,144.3037734875,144.91368683333334,65.0,86.0
468,144.8210144875,145.15722113750002,58.0,107.0
469,145.07963498750001,145.31885895,62.0,89.0
470,145.8554964875,146.46756500416666,55.0,78.0
471,145.5968759875,146.54515115416666,52.0,49.0
472,146.1141169875,146.91153019583334,57.0,68.0
473,146.37273748750002,146.91799570833334,61.0,122.0
474,146.8899784875,146.97403015,64.0,88.0
475,146.6313579875,147.69816755,52.0,72.0
476,147.40721948750002,148.31023606666668,73.0,112.0
477,147.40721948750002,148.32747743333334,69.0,99.0
478,147.40721948750002,148.3964429,64.0,76.0
479,148.4417014875,148.59256344583335,64.0,43.0
480,147.40721948750002,148.69601164583335,57.0,71.0
481,148.70032198750002,148.97402868333333,52.0,67.0
482,145.3382554875,148.978339025,45.0,72.0
483,148.4417014875,149.37489045833334,73.0,127.0
484,148.9589424875,149.3985973375,69.0,112.0
485,149.2175629875,149.4761834875,64.0,86.0
486,149.9934244875,150.55376890416667,50.0,97.0
487,150.2520449875,150.85764799166668,57.0,117.0
488,150.7692859875,151.04083751250002,50.0,96.0
489,149.4761834875,151.16799259166666,38.0,89.0
490,149.73480398750002,151.20032015416666,45.0,72.0
491,151.02790648750002,151.512819925,62.0,112.0
492,150.5106654875,151.5192854375,65.0,117.0
493,151.2865269875,151.63350949166667,57.0,107.0
494,152.06238848750002,152.64859495416667,48.0,97.0
495,152.8382499875,153.16799112500001,48.0,102.0
496,152.3210089875,153.17445663750001,55.0,95.0
497,151.5451474875,153.17876697916668,36.0,90.0
498,151.8037679875,153.18523249166668,43.0,75.0
499,153.0968704875,153.59902529166666,60.0,107.0
500,152.5796294875,153.60333563333333,64.0,102.0
501,153.35549098750002,153.62488734166666,55.0,99.0
502,154.1313524875,154.71540378333333,58.0,107.0
503,154.38997298750002,154.76928305416666,53.0,86.0
504,153.8727319875,155.1916965375,50.0,62.0
505,154.9072139875,155.19385170833334,53.0,88.0
506,153.6141114875,155.22617927083334,46.0,95.0
507,155.1658344875,155.25419649166668,63.0,36.0
508,154.6485934875,155.2822137125,65.0,96.0
509,155.1658344875,155.49342045416668,58.0,96.0
510,155.4244549875,155.68307548750002,62.0,90.0
511,156.4589369875,156.78867812500002,57.0,92.0
512,156.2003164875,156.85548842083335,53.0,86.0
513,156.9761779875,157.28221224583334,53.0,68.0
514,156.9761779875,157.30376395416667,57.0,89.0
515,155.68307548750002,157.57747065,41.0,71.0
516,155.9416959875,157.745573975,48.0,68.0
517,156.71755748750002,157.74772914583335,65.0,100.0
518,157.2347984875,157.75419465833335,60.0,99.0
519,157.4934189875,157.758505,57.0,96.0
520,158.2692804875,158.5149699625,55.0,93.0
521,158.5279009875,158.85333178333335,58.0,107.0
522,158.7865214875,159.36410727083333,62.0,96.0
523,157.7520394875,159.3942796625,43.0,69.0
524,158.01065998750002,159.39643483333333,50.0,69.0
525,159.3037624875,159.70893460416667,58.0,100.0
526,159.04514198750002,159.77358972916667,55.0,93.0
527,159.5623829875,159.81022763333334,62.0,96.0
528,160.5968649875,160.92876129583334,57.0,93.0
529,160.33824448750002,161.02789915416668,50.0,93.0
530,159.8210034875,161.37272648750002,38.0,92.0
531,161.1141059875,161.38996785416668,57.0,96.0
532,160.0796239875,161.41367473333335,45.0,77.0
533,161.1141059875,161.56238152083333,50.0,73.0
534,161.37272648750002,161.85979509583333,62.0,99.0
535,160.8554854875,161.85979509583333,65.0,107.0
536,161.6313469875,161.8899674875,57.0,96.0
537,162.40720848750001,162.69815655,52.0,86.0
538,162.6658289875,162.83177714166666,55.0,95.0
539,162.9244494875,163.04944939583334,58.0,127.0
540,163.1830699875,163.3964319,55.0,97.0
541,161.8899674875,163.49125941666668,40.0,90.0
542,162.1485879875,163.5322076625,46.0,95.0
543,163.4416904875,163.54729385833335,55.0,35.0
544,163.4416904875,163.59039727500002,58.0,117.0
545,163.1830699875,163.62919035000002,52.0,43.0
546,163.70031098750002,163.8425522625,64.0,107.0
547,164.4761724875,165.06884446666666,52.0,97.0
548,164.73479298750001,165.10117202916666,57.0,97.0
549,164.9934134875,165.81237840416668,67.0,99.0
550,163.9589314875,165.96755070416668,45.0,99.0
551,165.2520339875,165.98048172916668,52.0,97.0
552,164.2175519875,165.98910241250002,49.0,99.0
553,165.5106544875,166.01711963333335,57.0,99.0
554,165.7692749875,166.03220582916668,61.0,127.0
555,166.5451364875,167.10548090416668,50.0,97.0
556,166.8037569875,167.40935999166666,57.0,117.0
557,167.3209979875,167.5925495125,50.0,96.0
558,166.02789548750002,167.71970459166667,38.0,89.0
559,166.2865159875,167.75203215416667,45.0,72.0
560,167.5796184875,168.064531925,62.0,112.0
561,167.06237748750002,168.0709974375,65.0,117.0
562,167.8382389875,168.18522149166668,57.0,107.0
563,168.6141004875,169.20030695416668,48.0,97.0
564,169.38996198750002,169.719703125,48.0,102.0
565,168.8727209875,169.7261686375,55.0,95.0
566,168.0968594875,169.73047897916666,36.0,90.0
567,168.35547998750002,169.73694449166666,43.0,75.0
568,169.6485824875,170.15073729166667,60.0,107.0
569,169.1313414875,170.15504763333334,64.0,102.0
570,169.9072029875,170.17659934166667,55.0,99.0
571,170.68306448750002,171.26711578333334,58.0,107.0
572,170.9416849875,171.32099505416667,53.0,86.0
573,170.4244439875,171.74340853750002,50.0,62.0
574,171.4589259875,171.74556370833335,53.0,88.0
575,170.1658234875,171.77789127083335,46.0,95.0
576,171.71754648750002,171.80590849166668,63.0,36.0
577,171.2003054875,171.83392571250002,65.0,96.0
578,171.71754648750002,172.04513245416666,58.0,96.0
579,171.9761669875,172.2347874875,62.0,90.0
580,173.01064898750002,173.340390125,57.0,92.0
581,172.7520284875,173.40720042083333,53.0,86.0
582,173.5278899875,173.83392424583334,53.0,68.0
583,173.5278899875,173.85547595416668,57.0,89.0
584,172.2347874875,174.12918265000002,41.0,71.0
585,172.4934079875,174.297285975,48.0,68.0
586,173.2692694875,174.29944114583333,65.0,100.0
587,173.7865104875,174.30590665833333,60.0,99.0
588,174.04513098750002,174.310217,57.0,96.0
589,174.8209924875,175.0666819625,55.0,93.0
590,175.0796129875,175.40504378333333,58.0,107.0
591,175.33823348750002,175.91581927083334,62.0,96.0
592,174.3037514875,175.9459916625,43.0,69.0
593,174.5623719875,175.94814683333334,50.0,69.0
594,175.8554744875,176.26064660416668,58.0,100.0
595,175.5968539875,176.32530172916668,55.0,93.0
596,176.1140949875,176.36193963333335,62.0,96.0
597,177.1485769875,177.48047329583335,57.0,93.0
598,176.8899564875,177.57961115416668,50.0,93.0
599,176.37271548750002,177.9244384875,38.0,92.0
600,177.66581798750002,177.94167985416667,57.0,96.0
601,176.6313359875,177.96538673333333,45.0,77.0
602,177.66581798750002,178.11409352083334,50.0,73.0
603,177.9244384875,178.41150709583334,62.0,99.0
604,177.4071974875,178.41150709583334,65.0,107.0
605,178.1830589875,178.4416794875,57.0,96.0
606,178.70029998750002,179.04297215,46.0,83.0
607,178.4416794875,179.05805834583333,40.0,92.0
608,178.9589204875,179.1916789375,52.0,79.0
609,179.2175409875,179.4761614875,55.0,112.0
610,179.99340248750002,180.07529897916666,61.0,86.0
611,179.7347819875,180.08176449166666,52.0,89.0
612,179.4761614875,180.12917825,45.0,102.0
613,179.99340248750002,180.44814353333334,64.0,99.0
614,180.2520229875,180.5106434875,57.0,88.0
615,181.02788448750002,181.3123670375,55.0,93.0
616,181.2865049875,181.50202207083333,58.0,117.0
617,180.7692639875,181.60115992916667,50.0,88.0
618,180.5106434875,181.978314825,43.0,92.0
619,181.8037459875,182.08176302500001,50.0,112.0
620,181.5451254875,182.3727110875,62.0,112.0
621,182.06236648750001,182.42228001666666,58.0,117.0
622,182.32098698750002,182.43305587083333,55.0,85.0
623,182.5796074875,184.48693367500002,45.0,92.0
624,182.5796074875,184.50848538333335,61.0,127.0
625,182.5796074875,184.53650260416669,57.0,107.0
626,182.5796074875,184.54512328750002,64.0,100.0
627,185.1658124875,185.7261569041667,50.0,97.0
628,185.4244329875,186.03003599166667,57.0,117.0
629,185.9416739875,186.2132255125,50.0,96.0
630,184.64857148750002,186.34038059166667,38.0,89.0
631,184.9071919875,186.37270815416667,45.0,72.0
632,186.2002944875,186.68520792500001,62.0,112.0
633,185.68305348750002,186.69167343750001,65.0,117.0
634,186.4589149875,186.80589749166668,57.0,107.0
635,187.2347764875,187.82098295416668,48.0,97.0
636,188.01063798750002,188.340379125,48.0,102.0
637,187.4933969875,188.3468446375,55.0,95.0
638,186.71753548750002,188.35115497916667,36.0,90.0
639,186.9761559875,188.35762049166667,43.0,75.0
640,188.2692584875,188.77141329166668,60.0,107.0
641,187.7520174875,188.77572363333334,64.0,102.0
642,188.5278789875,188.79727534166668,55.0,99.0
643,189.3037404875,189.88779178333334,58.0,107.0
644,189.5623609875,189.94167105416668,53.0,86.0
645,189.04511998750002,190.36408453750002,50.0,62.0
646,190.0796019875,190.36623970833335,53.0,88.0
647,188.7864994875,190.39856727083335,46.0,95.0
648,190.33822248750002,190.4265844916667,63.0,36.0
649,189.8209814875,190.4546017125,65.0,96.0
650,190.33822248750002,190.66580845416667,58.0,96.0
651,190.5968429875,190.8554634875,62.0,90.0
652,191.6313249875,191.961066125,57.0,92.0
653,191.37270448750002,192.02787642083334,53.0,86.0
654,192.1485659875,192.45460024583335,53.0,68.0
655,192.1485659875,192.47615195416668,57.0,89.0
656,190.8554634875,192.74985865000002,41.0,71.0
657,191.1140839875,192.917961975,48.0,68.0
658,191.8899454875,192.92011714583333,65.0,100.0
659,192.4071864875,192.92658265833333,60.0,99.0
660,192.66580698750002,192.930893,57.0,96.0
661,193.4416684875,193.68735796250002,55.0,93.0
662,193.70028898750002,194.02571978333333,58.0,107.0
663,193.9589094875,194.53649527083334,62.0,96.0
664,192.9244274875,194.5666676625,43.0,69.0
665,193.1830479875,194.56882283333334,50.0,69.0
666,194.4761504875,194.88132260416668,58.0,100.0
667,194.2175299875,194.94597772916669,55.0,93.0
668,194.7347709875,194.98261563333335,62.0,96.0
669,195.7692529875,196.10114929583335,57.0,93.0
670,195.5106324875,196.2002871541667,50.0,93.0
671,194.99339148750002,196.5451144875,38.0,92.0
672,196.2864939875,196.56235585416667,57.0,96.0
673,195.2520119875,196.58606273333334,45.0,77.0
674,196.2864939875,196.73476952083334,50.0,73.0
675,196.5451144875,197.03218309583335,62.0,99.0
676,196.02787348750002,197.03218309583335,65.0,107.0
677,196.8037349875,197.0623554875,57.0,96.0
678,197.5795964875,197.87054455,52.0,86.0
679,197.8382169875,198.00416514166668,55.0,95.0
680,198.0968374875,198.22183739583335,58.0,127.0
681,198.35545798750002,198.5688199,55.0,97.0
682,197.0623554875,198.66364741666666,40.0,90.0
683,197.32097598750002,198.7045956625,46.0,95.0
684,198.6140784875,198.71968185833333,55.0,35.0
685,198.6140784875,198.762785275,58.0,117.0
686,198.35545798750002,198.80157835,52.0,43.0
687,198.8726989875,199.0149402625,64.0,107.0
688,199.64856048750002,200.24123246666667,52.0,97.0
689,199.9071809875,200.27356002916667,57.0,97.0
690,200.1658014875,200.98476640416666,67.0,99.0
691,199.1313194875,201.13993870416667,45.0,99.0
692,200.4244219875,201.15286972916667,52.0,97.0
693,199.38993998750001,201.1614904125,49.0,99.0
694,200.68304248750002,201.18950763333333,57.0,99.0
695,200.9416629875,201.20459382916667,61.0,127.0
696,201.71752448750001,202.27786890416667,50.0,97.0
697,201.97614498750002,202.58174799166667,57.0,117.0
698,202.4933859875,202.7649375125,50.0,96.0
699,201.2002834875,202.89209259166668,38.0,89.0
700,201.4589039875,202.92442015416668,45.0,72.0
701,202.7520064875,203.236919925,62.0,112.0
702,202.2347654875,203.2433854375,65.0,117.0
703,203.01062698750002,203.35760949166666,57.0,107.0
704,203.7864884875,204.37269495416666,48.0,97.0
705,204.5623499875,204.892091125,48.0,102.0
706,204.04510898750002,204.8985566375,55.0,95.0
707,203.2692474875,204.90286697916667,36.0,90.0
708,203.5278679875,204.90933249166667,43.0,75.0
709,204.8209704875,205.32312529166668,60.0,107.0
710,204.30372948750002,205.32743563333335,64.0,102.0
711,205.0795909875,205.34898734166669,55.0,99.0
712,205.8554524875,206.43950378333335,58.0,107.0
713,206.1140729875,206.49338305416669,53.0,86.0
714,205.5968319875,206.9157965375,50.0,62.0
715,206.63131398750002,206.91795170833333,53.0,88.0
716,205.33821148750002,206.95027927083333,46.0,95.0
717,206.8899344875,206.97829649166667,63.0,36.0
718,206.37269348750002,207.0063137125,65.0,96.0
719,206.8899344875,207.21752045416667,58.0,96.0
720,207.1485549875,207.4071754875,62.0,90.0
721,208.1830369875,208.512778125,57.0,92.0
722,207.9244164875,208.57958842083335,53.0,86.0
723,208.70027798750002,209.00631224583333,53.0,68.0
724,208.70027798750002,209.02786395416666,57.0,89.0
725,207.4071754875,209.30157065,41.0,71.0
726,207.66579598750002,209.469673975,48.0,68.0
727,208.4416574875,209.47182914583334,65.0,100.0
728,208.95889848750002,209.47829465833334,60.0,99.0
729,209.2175189875,209.482605,57.0,96.0
730,209.99338048750002,210.2390699625,55.0,93.0
731,210.2520009875,210.57743178333334,58.0,107.0
732,210.5106214875,211.08820727083335,62.0,96.0
733,209.4761394875,211.11837966250002,43.0,69.0
734,209.7347599875,211.12053483333335,50.0,69.0
735,211.02786248750002,211.43303460416666,58.0,100.0
736,210.7692419875,211.49768972916667,55.0,93.0
737,211.2864829875,211.53432763333333,62.0,96.0
738,212.32096498750002,212.65286129583333,57.0,93.0
739,212.0623444875,212.75199915416667,50.0,93.0
740,211.5451034875,213.0968264875,38.0,92.0
741,212.8382059875,213.11406785416668,57.0,96.0
742,211.8037239875,213.13777473333334,45.0,77.0
743,212.8382059875,213.28648152083335,50.0,73.0
744,213.0968264875,213.58389509583336,62.0,99.0
745,212.5795854875,213.58389509583336,65.0,107.0
746,213.35544698750002,213.6140674875,57.0,96.0
747,213.6140674875,214.46967030833335,40.0,72.0
748,213.8726879875,214.47182547916668,46.0,74.0
749,214.1313084875,214.58604953333335,52.0,83.0
750,214.3899289875,214.6593253416667,64.0,96.0
751,215.1657904875,215.38130757083334,57.0,89.0
752,214.9071699875,215.4308765,52.0,86.0
753,214.64854948750002,215.46535923333334,45.0,79.0
754,215.4244109875,215.70027285416668,61.0,96.0
755,216.2002724875,216.81665134583335,50.0,85.0
756,215.68303148750002,217.63346109166667,38.0,81.0
757,215.9416519875,217.77354719583334,45.0,86.0
758,216.97613398750002,218.29940887916666,50.0,92.0
759,217.2347544875,218.58173625833334,64.0,83.0
760,216.7175134875,218.58820177083334,65.0,100.0
761,217.4933749875,218.62699484583334,62.0,71.0
762,218.7864774875,219.09897725833335,50.0,57.0
763,217.7519954875,219.53216659583333,38.0,74.0
764,218.2692364875,219.56449415833333,45.0,62.0
765,219.30371848750002,219.85113187916667,62.0,57.0
766,218.7864774875,219.8985456375,65.0,89.0
767,216.4588929875,219.90932149166667,57.0,83.0
768,220.5968209875,220.89207939166667,55.0,25.0
769,220.33820048750002,221.04078617916667,43.0,35.0
770,219.8209594875,221.04294135,36.0,74.0
771,220.8554414875,221.19380330833334,48.0,43.0
772,221.37268248750001,221.92225105,60.0,49.0
773,220.8554414875,221.96966480833333,64.0,83.0
774,222.4071644875,223.10112949583333,53.0,58.0
775,221.8899234875,223.16793979166667,46.0,72.0
776,222.9244054875,223.87699099583335,58.0,92.0
777,223.4416464875,223.94811163333335,62.0,74.0
778,224.99336948750002,225.2390589625,53.0,56.0
779,223.95888748750002,225.54293805,41.0,76.0
780,225.2519899875,225.5623345875,60.0,69.0
781,224.4761284875,226.02785148750002,48.0,40.0
782,224.99336948750002,226.05155836666668,65.0,92.0
783,225.5106104875,226.10112729583335,57.0,86.0
784,225.7692309875,226.10328246666668,60.0,61.0
785,226.5450924875,227.37483325833335,50.0,64.0
786,226.02785148750002,227.49336765416666,43.0,67.0
787,227.5795744875,228.09466031666668,58.0,63.0
788,227.0623334875,228.103281,62.0,93.0
789,227.8381949875,228.1097465125,55.0,59.0
790,229.1312974875,229.64422814583335,50.0,37.0
791,228.0968154875,229.97612445416667,38.0,75.0
792,229.9071589875,230.12914158333334,57.0,45.0
793,229.64853848750002,230.133451925,62.0,54.0
794,229.1312974875,230.133451925,65.0,88.0
795,228.61405648750002,230.14853812083334,45.0,50.0
796,230.68302048750002,231.2907786625,52.0,66.0
797,230.1657794875,231.3618993,40.0,72.0
798,231.7175024875,231.78862312500002,55.0,42.0
799,231.2002614875,231.85112307916668,58.0,93.0
800,232.2347434875,233.08388079583335,64.0,57.0
801,232.2347434875,233.1248290416667,61.0,58.0
802,232.2347434875,233.5795700875,52.0,62.0
803,232.2347434875,233.6700872625,45.0,65.0
804,233.7864664875,234.03000079166668,61.0,43.0
805,233.26922548750002,234.06017318333335,64.0,82.0
806,232.2347434875,234.14853518750002,57.0,54.0
807,234.30370748750002,236.41577490416668,45.0,39.0
808,234.30370748750002,236.43086110000002,50.0,41.0
809,234.30370748750002,236.43301627083335,65.0,61.0
810,234.30370748750002,236.43948178333335,62.0,65.0
811,234.30370748750002,236.46534383333335,38.0,54.0
812,234.30370748750002,236.48689554166668,57.0,47.0
