,start,end,pitch,velocity
0,4.637087500000001,4.918000916666667,62.0,95.0
1,4.974452416666667,5.21369925,70.0,97.0
2,5.348107583333333,5.607515666666667,70.0,99.0
3,5.748644416666667,6.06853625,69.0,83.0
4,6.178751083333334,7.662619083333333,70.0,99.0
5,8.423370250000001,8.713692250000001,62.0,95.0
6,8.7499825,8.989229333333334,69.0,89.0
7,9.139766666666667,9.403207,69.0,97.0
8,9.564497000000001,9.791647083333334,67.0,95.0
9,10.022829416666667,11.47175125,69.0,99.0
10,32.57923591666667,32.900471833333334,62.0,99.0
11,32.90181591666667,33.223051833333336,62.0,96.0
12,33.224395916666666,33.54563183333334,62.0,97.0
13,33.54697591666667,33.86821183333333,62.0,100.0
14,33.86955591666667,34.19213591666667,62.0,99.0
15,34.19213591666667,34.51471591666667,63.0,102.0
16,34.51471591666667,35.158531833333335,62.0,107.0
17,35.15987591666667,35.482455916666666,62.0,97.0
18,35.482455916666666,35.80503591666667,63.0,117.0
19,35.80503591666667,36.45019591666667,62.0,122.0
20,36.45019591666667,36.77277591666667,60.0,117.0
21,36.77277591666667,37.740515916666666,58.0,107.0
22,37.740515916666666,38.06175183333333,67.0,122.0
23,38.06309591666667,38.384331833333334,67.0,107.0
24,38.38567591666667,38.706911833333336,67.0,107.0
25,38.708255916666666,39.19212591666667,67.0,117.0
26,39.19212591666667,39.67599591666667,65.0,117.0
27,39.67599591666667,40.32115591666667,60.0,100.0
28,40.32115591666667,42.90179591666667,62.0,117.0
29,42.90179591666667,43.22303183333334,63.0,112.0
30,43.224375916666666,43.54561183333334,63.0,117.0
31,43.54695591666667,43.868191833333334,63.0,117.0
32,43.86953591666667,44.19211591666667,63.0,127.0
33,44.19211591666667,44.51469591666667,62.0,122.0
34,44.51469591666667,45.48243591666667,60.0,117.0
35,45.48243591666667,45.80367183333333,62.0,122.0
36,45.80501591666667,46.126251833333335,62.0,97.0
37,46.12759591666667,46.44883183333334,62.0,107.0
38,46.45017591666667,46.77275591666667,62.0,117.0
39,46.77275591666667,47.09533591666667,60.0,107.0
40,47.09533591666667,48.06173183333333,58.0,112.0
41,48.06307591666667,48.384311833333335,58.0,99.0
42,48.38565591666667,48.70689183333334,58.0,97.0
43,48.708235916666666,49.02947183333334,58.0,99.0
44,49.03081591666667,49.35339591666667,58.0,112.0
45,49.35339591666667,50.32113591666667,60.0,99.0
46,50.32113591666667,50.80500591666667,58.0,107.0
47,50.80500591666667,53.22435591666667,57.0,99.0
48,53.22435591666667,53.54559183333334,62.0,99.0
49,53.54693591666667,53.868171833333335,62.0,96.0
50,53.86951591666667,54.19075183333334,62.0,97.0
51,54.19209591666667,54.51333183333334,62.0,100.0
52,54.51467591666667,54.83725591666667,62.0,99.0
53,54.83725591666667,55.15983591666667,63.0,102.0
54,55.15983591666667,55.80365183333333,62.0,107.0
55,55.80499591666667,56.12757591666667,62.0,97.0
56,56.12757591666667,56.45015591666667,63.0,117.0
57,56.45015591666667,57.09531591666667,62.0,122.0
58,57.09531591666667,57.41789591666667,60.0,117.0
59,57.41789591666667,58.38563591666667,58.0,107.0
60,58.38563591666667,58.70687183333334,67.0,122.0
61,58.70821591666667,59.02945183333334,67.0,102.0
62,59.03079591666667,59.35337591666667,67.0,112.0
63,59.35337591666667,59.83724591666667,70.0,117.0
64,59.83724591666667,60.32111591666667,69.0,122.0
65,60.32111591666667,60.96627591666667,62.0,122.0
66,60.96627591666667,63.54691591666667,65.0,117.0
67,63.54691591666667,63.868151833333336,63.0,112.0
68,63.86949591666667,64.19073183333333,63.0,117.0
69,64.19207591666667,64.51331183333333,63.0,117.0
70,64.51465591666667,64.83723591666667,63.0,127.0
71,64.83723591666667,65.15981591666667,67.0,102.0
72,65.15981591666667,65.52137433333334,69.0,127.0
73,65.48239591666668,66.12755591666667,70.0,122.0
74,66.12755591666667,66.44879183333333,62.0,122.0
75,66.45013591666667,66.77137183333333,62.0,97.0
76,66.77271591666667,67.09395183333334,62.0,107.0
77,67.09529591666667,67.41787591666667,62.0,117.0
78,67.41787591666667,67.74045591666668,67.0,127.0
79,67.74045591666668,68.06303591666668,69.0,127.0
80,68.06303591666668,68.70685183333333,70.0,127.0
81,68.70819591666667,69.02943183333333,70.0,127.0
82,69.03077591666667,69.35201183333334,70.0,112.0
83,69.35335591666667,69.67459183333334,70.0,117.0
84,69.67593591666667,69.99851591666668,70.0,122.0
85,69.99851591666668,70.32647225000001,72.0,117.0
86,70.32109591666666,70.64233183333334,70.0,102.0
87,70.64367591666667,71.28883591666667,70.0,122.0
88,71.28883591666667,73.54689591666667,69.0,127.0
89,73.54689591666667,73.86947591666667,62.0,102.0
90,73.86947591666667,74.19071183333334,70.0,127.0
91,74.19205591666667,74.51463591666668,70.0,127.0
92,74.51463591666668,74.83721591666666,69.0,96.0
93,74.83721591666666,76.12753591666667,70.0,127.0
94,76.12753591666667,76.45011591666668,62.0,122.0
95,76.45011591666668,76.77135183333334,69.0,100.0
96,76.77269591666668,77.09527591666667,69.0,90.0
97,77.09527591666667,77.41785591666667,67.0,127.0
98,77.41785591666667,78.70817591666668,69.0,127.0
99,78.70817591666668,79.03075591666668,67.0,122.0
100,79.03075591666668,79.35333591666667,65.0,97.0
101,79.35333591666667,79.67591591666667,67.0,122.0
102,79.67591591666667,79.99849591666667,69.0,112.0
103,79.99849591666667,80.64365591666667,70.0,127.0
104,80.64365591666667,80.96623591666668,67.0,122.0
105,80.96623591666668,83.54687591666668,65.0,127.0
106,83.54687591666668,83.86945591666667,62.0,107.0
107,83.86945591666667,84.19203591666667,63.0,127.0
108,84.19203591666667,84.51461591666667,62.0,117.0
109,84.51461591666667,84.83719591666667,60.0,102.0
110,84.83719591666667,85.15977591666667,62.0,95.0
111,85.15977591666667,86.12751591666667,63.0,117.0
112,86.12751591666667,86.77267591666667,67.0,122.0
113,86.77267591666667,87.09391183333334,62.0,127.0
114,87.09525591666667,87.41783591666668,62.0,112.0
115,87.41783591666668,87.74041591666668,60.0,96.0
116,87.74041591666668,88.86810183333334,62.0,127.0
117,88.86944591666668,89.03073591666667,62.0,86.0
118,89.03073591666667,89.35331591666667,67.0,100.0
119,89.35331591666667,89.67589591666668,62.0,99.0
120,89.67589591666668,89.99847591666668,67.0,117.0
121,89.99847591666668,90.32105591666667,69.0,112.0
122,90.32105591666667,90.64363591666667,72.0,117.0
123,90.64363591666667,90.96621591666667,70.0,112.0
124,90.96621591666667,91.28879591666667,69.0,102.0
125,91.28879591666667,91.93395591666668,67.0,112.0
126,91.93395591666668,94.19201591666668,69.0,127.0
127,94.19201591666668,94.51459591666668,62.0,102.0
128,94.51459591666668,94.83583183333334,70.0,127.0
129,94.83717591666667,95.15975591666667,70.0,127.0
130,95.15975591666667,95.48233591666667,69.0,96.0
131,95.48233591666667,96.77265591666668,70.0,127.0
132,96.77265591666668,97.09523591666667,72.0,117.0
133,97.09523591666667,97.41781591666667,69.0,127.0
134,97.41781591666667,97.74039591666667,67.0,122.0
135,97.74039591666667,98.06297591666667,65.0,107.0
136,98.06297591666667,99.35329591666667,69.0,122.0
137,99.35329591666667,99.67587591666667,67.0,122.0
138,99.67587591666667,99.99845591666667,65.0,97.0
139,99.99845591666667,100.32103591666667,67.0,122.0
140,100.32103591666667,100.64361591666668,69.0,112.0
141,100.64361591666668,101.28877591666668,70.0,127.0
142,101.28877591666668,101.6127,75.0,127.0
143,101.61135591666667,104.19065183333333,74.0,122.0
144,104.19199591666667,104.51457591666667,74.0,127.0
145,104.51457591666667,104.83715591666667,75.0,127.0
146,104.83715591666667,105.15839183333334,74.0,117.0
147,105.15973591666668,105.48231591666668,74.0,127.0
148,105.48231591666668,105.80355183333334,72.0,97.0
149,105.80489591666667,106.77263591666667,72.0,122.0
150,106.77263591666667,107.41779591666668,74.0,127.0
151,107.41779591666668,107.73903183333334,72.0,122.0
152,107.74037591666668,108.06295591666667,72.0,122.0
153,108.06295591666667,108.38419183333335,70.0,127.0
154,108.38553591666667,109.67451183333334,70.0,127.0
155,109.67585591666668,109.99709183333334,70.0,127.0
156,109.99843591666668,110.31967183333335,70.0,127.0
157,110.32101591666667,110.64225183333335,70.0,127.0
158,110.64359591666667,110.96483183333333,70.0,122.0
159,110.96617591666667,111.28875591666667,70.0,117.0
160,111.28875591666667,111.61133591666668,72.0,127.0
161,111.61133591666668,111.93257183333334,70.0,122.0
162,111.93391591666668,112.57907591666667,70.0,122.0
163,112.57907591666667,113.54681591666667,69.0,107.0
164,113.54681591666667,114.19197591666668,70.0,127.0
165,114.19197591666668,114.51321183333334,69.0,112.0
166,114.51455591666668,115.15971591666667,69.0,127.0
167,115.15971591666667,117.41912,67.0,107.0
168,138.38547591666668,138.70671183333334,62.0,99.0
169,138.70805591666667,139.02929183333333,62.0,96.0
170,139.03063591666668,139.35187183333335,62.0,97.0
171,139.35321591666667,139.67445183333334,62.0,100.0
172,139.6757959166667,139.99837591666667,62.0,99.0
173,139.99837591666667,140.32095591666666,63.0,102.0
174,140.32095591666666,140.96477183333334,62.0,107.0
175,140.96611591666667,141.28869591666668,62.0,97.0
176,141.28869591666668,141.61127591666667,63.0,117.0
177,141.61127591666667,142.25643591666667,62.0,122.0
178,142.25643591666667,142.57901591666666,60.0,117.0
179,142.57901591666666,143.54675591666668,58.0,107.0
180,143.54675591666668,143.86799183333335,67.0,122.0
181,143.86933591666667,144.19057183333334,67.0,107.0
182,144.1919159166667,144.51315183333335,67.0,107.0
183,144.51449591666668,144.99836591666667,67.0,117.0
184,144.99836591666667,145.48223591666667,65.0,117.0
185,145.48223591666667,146.12739591666667,60.0,100.0
186,146.12739591666667,148.7080359166667,62.0,117.0
187,148.7080359166667,149.02927183333335,63.0,112.0
188,149.03061591666668,149.35185183333334,63.0,117.0
189,149.35319591666666,149.67443183333333,63.0,117.0
190,149.67577591666668,149.99835591666667,63.0,127.0
191,149.99835591666667,150.32093591666668,62.0,122.0
192,150.32093591666668,151.28867591666668,60.0,117.0
193,151.28867591666668,151.60991183333334,62.0,122.0
194,151.61125591666666,151.93249183333333,62.0,97.0
195,151.93383591666668,152.25507183333335,62.0,107.0
196,152.25641591666667,152.57899591666668,62.0,117.0
197,152.57899591666668,152.90157591666667,60.0,107.0
198,152.90157591666667,153.86797183333334,58.0,112.0
199,153.86931591666666,154.19055183333333,58.0,99.0
200,154.19189591666668,154.51313183333335,58.0,97.0
201,154.51447591666667,154.83571183333333,58.0,99.0
202,154.83705591666669,155.15963591666667,58.0,112.0
203,155.15963591666667,156.12737591666667,60.0,99.0
204,156.12737591666667,156.6112459166667,58.0,107.0
205,156.6112459166667,159.03059591666667,57.0,99.0
206,159.03059591666667,159.35183183333334,62.0,99.0
207,159.3531759166667,159.67441183333335,62.0,96.0
208,159.67575591666667,159.99699183333334,62.0,97.0
209,159.9983359166667,160.31957183333336,62.0,100.0
210,160.32091591666668,160.64349591666667,62.0,99.0
211,160.64349591666667,160.96607591666668,63.0,102.0
212,160.96607591666668,161.60989183333334,62.0,107.0
213,161.6112359166667,161.93381591666667,62.0,97.0
214,161.93381591666667,162.2563959166667,63.0,117.0
215,162.2563959166667,162.90155591666667,62.0,122.0
216,162.90155591666667,163.22413591666668,60.0,117.0
217,163.22413591666668,164.19187591666667,58.0,107.0
218,164.19187591666667,164.51311183333334,67.0,122.0
219,164.51445591666666,164.83569183333336,67.0,102.0
220,164.83703591666668,165.15961591666667,67.0,112.0
221,165.15961591666667,165.64348591666666,70.0,117.0
222,165.64348591666666,166.1273559166667,69.0,122.0
223,166.1273559166667,166.77251591666666,62.0,122.0
224,166.77251591666666,169.35315591666668,65.0,117.0
225,169.35315591666668,169.67439183333335,63.0,112.0
226,169.67573591666667,169.99697183333333,63.0,117.0
227,169.99831591666668,170.31955183333335,63.0,117.0
228,170.32089591666667,170.6434759166667,63.0,127.0
229,170.6434759166667,170.96605591666668,67.0,102.0
230,170.96605591666668,171.32761433333334,69.0,127.0
231,171.28863591666666,171.93379591666667,70.0,122.0
232,171.93379591666667,172.25503183333333,62.0,122.0
233,172.25637591666668,172.57761183333335,62.0,97.0
234,172.57895591666667,172.90019183333334,62.0,107.0
235,172.9015359166667,173.22411591666668,62.0,117.0
236,173.22411591666668,173.54669591666666,67.0,127.0
237,173.54669591666666,173.86927591666668,69.0,127.0
238,173.86927591666668,174.51309183333333,70.0,127.0
239,174.51443591666668,174.83567183333335,70.0,127.0
240,174.83701591666667,175.15825183333334,70.0,112.0
241,175.1595959166667,175.48083183333335,70.0,117.0
242,175.48217591666668,175.80475591666666,70.0,122.0
243,175.80475591666666,176.13271225,72.0,117.0
244,176.12733591666668,176.44857183333335,70.0,102.0
245,176.44991591666667,177.09507591666667,70.0,122.0
246,177.09507591666667,179.35313591666667,69.0,127.0
247,179.35313591666667,179.6757159166667,62.0,102.0
248,179.6757159166667,179.99695183333336,70.0,127.0
249,179.99829591666668,180.32087591666667,70.0,127.0
250,180.32087591666667,180.64345591666668,69.0,96.0
251,180.64345591666668,181.9337759166667,70.0,127.0
252,181.9337759166667,182.25635591666668,62.0,122.0
253,182.25635591666668,182.57759183333334,69.0,100.0
254,182.57893591666667,182.90151591666668,69.0,90.0
255,182.90151591666668,183.22409591666667,67.0,127.0
256,183.22409591666667,184.51441591666668,69.0,127.0
257,184.51441591666668,184.83699591666667,67.0,122.0
258,184.83699591666667,185.15957591666668,65.0,97.0
259,185.15957591666668,185.48215591666667,67.0,122.0
260,185.48215591666667,185.8047359166667,69.0,112.0
261,185.8047359166667,186.4498959166667,70.0,127.0
262,186.4498959166667,186.77247591666668,67.0,122.0
263,186.77247591666668,189.35311591666667,65.0,127.0
264,189.35311591666667,189.67569591666668,62.0,107.0
265,189.67569591666668,189.99827591666667,63.0,127.0
266,189.99827591666667,190.3208559166667,62.0,117.0
267,190.3208559166667,190.64343591666668,60.0,102.0
268,190.64343591666668,190.9660159166667,62.0,95.0
269,190.9660159166667,191.93375591666668,63.0,117.0
270,191.93375591666668,192.5789159166667,67.0,122.0
271,192.5789159166667,192.90015183333335,62.0,127.0
272,192.90149591666668,193.2240759166667,62.0,112.0
273,193.2240759166667,193.54665591666668,60.0,96.0
274,193.54665591666668,194.67434183333336,62.0,127.0
275,194.67568591666668,194.8369759166667,62.0,86.0
276,194.8369759166667,195.15955591666668,67.0,100.0
277,195.15955591666668,195.4821359166667,62.0,99.0
278,195.4821359166667,195.80471591666668,67.0,117.0
279,195.80471591666668,196.12729591666667,69.0,112.0
280,196.12729591666667,196.44987591666668,72.0,117.0
281,196.44987591666668,196.77245591666667,70.0,112.0
282,196.77245591666667,197.0950359166667,69.0,102.0
283,197.0950359166667,197.7401959166667,67.0,112.0
284,197.7401959166667,199.99825591666666,69.0,127.0
285,199.99825591666666,200.32083591666668,62.0,102.0
286,200.32083591666668,200.64207183333335,70.0,127.0
287,200.64341591666667,200.96599591666669,70.0,127.0
288,200.96599591666669,201.28857591666667,69.0,96.0
289,201.28857591666667,202.57889591666668,70.0,127.0
290,202.57889591666668,202.90147591666667,72.0,117.0
291,202.90147591666667,203.22405591666669,69.0,127.0
292,203.22405591666669,203.54663591666667,67.0,122.0
293,203.54663591666667,203.8692159166667,65.0,107.0
294,203.8692159166667,205.15953591666667,69.0,122.0
295,205.15953591666667,205.4821159166667,67.0,122.0
296,205.4821159166667,205.80469591666667,65.0,97.0
297,205.80469591666667,206.1272759166667,67.0,122.0
298,206.1272759166667,206.44985591666668,69.0,112.0
299,206.44985591666668,207.09501591666668,70.0,127.0
300,207.09501591666668,207.41894000000002,75.0,127.0
301,207.41759591666667,209.99689183333334,74.0,122.0
302,209.9982359166667,210.32081591666667,74.0,127.0
303,210.32081591666667,210.6433959166667,75.0,127.0
304,210.6433959166667,210.96463183333336,74.0,117.0
305,210.96597591666668,211.28855591666667,74.0,127.0
306,211.28855591666667,211.60979183333333,72.0,97.0
307,211.61113591666668,212.57887591666668,72.0,122.0
308,212.57887591666668,213.22403591666668,74.0,127.0
309,213.22403591666668,213.54527183333335,72.0,122.0
310,213.54661591666667,213.86919591666668,72.0,122.0
311,213.86919591666668,214.19043183333335,70.0,127.0
312,214.19177591666667,215.48075183333336,70.0,127.0
313,215.48209591666668,215.80333183333335,70.0,127.0
314,215.80467591666667,216.12591183333333,70.0,127.0
315,216.12725591666668,216.44849183333335,70.0,127.0
316,216.44983591666667,216.77107183333334,70.0,122.0
317,216.7724159166667,217.09499591666668,70.0,117.0
318,217.09499591666668,217.4175759166667,72.0,127.0
319,217.4175759166667,217.73881183333336,70.0,122.0
320,217.74015591666668,218.38531591666668,70.0,127.0
321,218.38531591666668,219.0304759166667,69.0,127.0
322,219.0304759166667,219.35305591666668,62.0,112.0
323,219.35305591666668,219.99821591666668,70.0,127.0
324,219.99821591666668,220.31945183333335,69.0,112.0
325,220.32079591666667,220.96595591666667,69.0,127.0
326,220.96595591666667,225.8046559166667,67.0,107.0
327,225.8046559166667,226.12723591666668,62.0,102.0
328,226.12723591666668,226.44847183333334,70.0,127.0
329,226.4498159166667,226.77239591666668,70.0,127.0
330,226.77239591666668,227.09497591666667,69.0,96.0
331,227.09497591666667,228.38529591666668,70.0,127.0
332,228.38529591666668,228.7078759166667,62.0,122.0
333,228.7078759166667,229.02911183333336,69.0,100.0
334,229.03045591666668,229.35303591666667,69.0,90.0
335,229.35303591666667,229.6756159166667,67.0,127.0
336,229.6756159166667,230.9659359166667,69.0,127.0
337,230.9659359166667,231.28851591666668,67.0,122.0
338,231.28851591666668,231.61109591666667,65.0,97.0
339,231.61109591666667,231.9336759166667,67.0,122.0
340,231.9336759166667,232.25625591666667,69.0,112.0
341,232.25625591666667,232.90141591666668,70.0,127.0
342,232.90141591666668,233.2239959166667,67.0,122.0
343,233.2239959166667,235.80463591666668,65.0,127.0
344,235.80463591666668,236.12721591666667,62.0,107.0
345,236.12721591666667,236.4497959166667,63.0,127.0
346,236.4497959166667,236.77237591666668,62.0,117.0
347,236.77237591666668,237.0949559166667,60.0,102.0
348,237.0949559166667,237.41753591666668,62.0,95.0
349,237.41753591666668,238.38527591666667,63.0,117.0
350,238.38527591666667,239.03043591666668,67.0,122.0
351,239.03043591666668,239.35167183333334,62.0,127.0
352,239.3530159166667,239.67559591666668,62.0,112.0
353,239.67559591666668,239.99817591666667,60.0,96.0
354,239.99817591666667,241.12586183333335,62.0,127.0
355,241.12720591666667,241.28849591666668,62.0,86.0
356,241.28849591666668,241.6110759166667,67.0,100.0
357,241.6110759166667,241.93365591666668,62.0,99.0
358,241.93365591666668,242.25623591666667,67.0,117.0
359,242.25623591666667,242.57881591666668,69.0,112.0
360,242.57881591666668,242.90139591666667,72.0,117.0
361,242.90139591666667,243.2239759166667,70.0,112.0
362,243.2239759166667,243.54655591666668,69.0,102.0
363,243.54655591666668,244.19171591666668,67.0,112.0
364,244.19171591666668,246.44977591666668,69.0,127.0
365,246.44977591666668,246.77235591666667,62.0,102.0
366,246.77235591666667,247.09359183333333,70.0,127.0
367,247.09493591666669,247.41751591666667,70.0,127.0
368,247.41751591666667,247.7400959166667,69.0,96.0
369,247.7400959166667,249.03041591666667,70.0,127.0
370,249.03041591666667,249.35299591666669,72.0,117.0
371,249.35299591666669,249.67557591666667,69.0,127.0
372,249.67557591666667,249.9981559166667,67.0,122.0
373,249.9981559166667,250.32073591666668,65.0,107.0
374,250.32073591666668,251.6110559166667,69.0,122.0
375,251.6110559166667,251.93363591666667,67.0,122.0
376,251.93363591666667,252.2562159166667,65.0,97.0
377,252.2562159166667,252.57879591666668,67.0,122.0
378,252.57879591666668,252.9013759166667,69.0,112.0
379,252.9013759166667,253.54653591666667,70.0,127.0
380,253.54653591666667,253.87046,75.0,127.0
381,253.8691159166667,256.44841183333335,74.0,122.0
382,256.4497559166667,256.7723359166667,74.0,127.0
383,256.7723359166667,257.0949159166667,75.0,127.0
384,257.0949159166667,257.41615183333334,74.0,117.0
385,257.41749591666667,257.7400759166667,74.0,127.0
386,257.7400759166667,258.0613118333334,72.0,97.0
387,258.0626559166667,259.0303959166667,72.0,122.0
388,259.0303959166667,259.67555591666667,74.0,127.0
389,259.67555591666667,259.99679183333336,72.0,122.0
390,259.9981359166667,260.3207159166667,72.0,122.0
391,260.3207159166667,260.64195183333334,70.0,127.0
392,260.64329591666666,261.93227183333335,70.0,127.0
393,261.93361591666667,262.25485183333336,70.0,127.0
394,262.2561959166667,262.5774318333333,70.0,127.0
395,262.5787759166667,262.90001183333334,70.0,127.0
396,262.90135591666666,263.22259183333335,70.0,122.0
397,263.2239359166667,263.5465159166667,70.0,117.0
398,263.5465159166667,263.8690959166667,72.0,127.0
399,263.8690959166667,264.19033183333335,70.0,122.0
400,264.19167591666667,264.8368359166667,70.0,127.0
401,264.8368359166667,265.8045759166667,69.0,127.0
402,265.8045759166667,266.44973591666667,70.0,127.0
403,266.44973591666667,266.77097183333336,69.0,112.0
404,266.7723159166667,267.41747591666666,69.0,127.0
405,267.41747591666666,269.67688000000004,67.0,107.0
