,start,end,pitch,velocity
0,11.611535916666668,13.349435666666668,43.0,53.0
1,12.579275916666667,13.35884425,70.0,79.0
2,12.256695916666667,13.409919416666668,55.0,37.0
3,11.934115916666668,13.41529575,50.0,51.0
4,13.224435916666668,13.659918916666667,67.0,50.0
5,13.547015916666668,13.82658525,70.0,77.0
6,13.869595916666668,14.284917666666667,72.0,67.0
7,14.192175916666667,14.684110416666668,69.0,63.0
8,14.837335916666667,15.237872750000001,65.0,50.0
9,14.514755916666667,15.710990083333334,60.0,58.0
10,14.192175916666667,15.81851675,53.0,66.0
11,15.159915916666668,16.158569833333335,72.0,68.0
12,15.805075916666668,16.200236416666666,69.0,54.0
13,16.12765591666667,16.74593425,65.0,42.0
14,16.77281591666667,17.451578,51.0,72.0
15,17.095395916666668,17.537599333333333,63.0,64.0
16,17.417975916666666,18.033566083333334,67.0,68.0
17,17.417975916666666,18.065824083333336,70.0,60.0
18,17.74055591666667,18.106146583333334,63.0,59.0
19,18.38571591666667,18.799693583333333,60.0,56.0
20,18.063135916666667,18.810446250000002,53.0,60.0
21,19.030875916666666,19.460982583333333,69.0,59.0
22,18.708295916666668,19.474423416666667,72.0,81.0
23,19.99861591666667,20.813130416666667,58.0,52.0
24,20.321195916666667,20.920657083333335,62.0,51.0
25,20.966355916666668,21.292968166666668,58.0,72.0
26,19.676035916666667,21.297000416666666,53.0,38.0
27,19.353455916666668,21.301032666666668,46.0,50.0
28,20.64377591666667,21.903182,70.0,102.0
29,21.288935916666667,21.97173025,65.0,78.0
30,21.61151591666667,22.012052750000002,62.0,76.0
31,22.579255916666668,23.201566500000002,60.0,66.0
32,22.25667591666667,23.4435015,55.0,63.0
33,21.934095916666667,23.83462975,48.0,69.0
34,23.22441591666667,23.940812333333334,63.0,95.0
35,24.192155916666668,24.55909066666667,63.0,88.0
36,23.86957591666667,24.571187416666668,62.0,75.0
37,22.901835916666666,24.602101333333334,67.0,73.0
38,25.48247591666667,25.831937583333335,70.0,107.0
39,25.805055916666667,26.296990416666667,74.0,95.0
40,25.159895916666667,26.50666741666667,55.0,74.0
41,24.51473591666667,26.534893166666667,43.0,72.0
42,26.12763591666667,26.591344666666668,72.0,77.0
43,24.837315916666668,26.594032833333333,50.0,59.0
44,26.450215916666668,26.837311916666668,70.0,69.0
45,26.77279591666667,27.134354333333334,69.0,63.0
46,27.417955916666667,29.139726666666668,53.0,54.0
47,27.74053591666667,29.139726666666668,58.0,41.0
48,28.063115916666668,29.189457750000003,62.0,50.0
49,27.09537591666667,29.251285583333335,46.0,77.0
50,28.38569591666667,29.73246741666667,65.0,67.0
51,29.030855916666667,29.747252333333336,70.0,83.0
52,30.64375591666667,31.095367916666667,62.0,58.0
53,30.321175916666668,31.247249333333336,50.0,66.0
54,29.676015916666667,31.665259250000002,38.0,66.0
55,29.99859591666667,31.696173166666668,45.0,55.0
56,30.96633591666667,32.15047333333334,69.0,99.0
57,31.61149591666667,32.1692905,62.0,85.0
58,30.96633591666667,32.18004316666667,66.0,107.0
59,33.224395916666666,33.841330166666665,62.0,74.0
60,32.90181591666667,33.940792333333334,55.0,86.0
61,32.57923591666667,33.97439441666667,50.0,40.0
62,33.86955591666667,34.31310341666667,67.0,61.0
63,32.256655916666666,34.646436083333334,43.0,96.0
64,33.54697591666667,34.85208083333333,70.0,127.0
65,34.51471591666667,34.892403333333334,67.0,65.0
66,34.19213591666667,34.912564583333335,62.0,63.0
67,35.482455916666666,36.29428225,53.0,71.0
68,35.15987591666667,36.43272283333334,48.0,60.0
69,34.83729591666667,36.54293766666667,41.0,68.0
70,35.80503591666667,36.81175433333333,60.0,66.0
71,36.12761591666667,37.40449508333334,69.0,102.0
72,36.77277591666667,37.42600041666667,65.0,69.0
73,37.41793591666667,38.30234275,39.0,71.0
74,38.06309591666667,38.378955500000004,51.0,74.0
75,37.740515916666666,38.38567591666667,46.0,63.0
76,38.22438591666667,38.3950845,58.0,24.0
77,38.38567591666667,38.723040833333336,63.0,96.0
78,38.708255916666666,39.198846333333336,41.0,73.0
79,39.03083591666667,39.45691033333333,53.0,71.0
80,39.67599591666667,39.978414666666666,57.0,66.0
81,39.35341591666667,39.99051141666667,60.0,92.0
82,40.64373591666667,41.07653075,58.0,69.0
83,40.966315916666666,41.29158408333333,62.0,92.0
84,41.28889591666667,41.661207000000005,65.0,95.0
85,41.61147591666667,42.03620625,62.0,78.0
86,40.32115591666667,42.0563675,53.0,51.0
87,39.99857591666667,42.120883500000005,46.0,72.0
88,41.93405591666667,42.585936333333336,58.0,89.0
89,43.54695591666667,44.10071825,55.0,48.0
90,43.224375916666666,44.24722333333334,48.0,62.0
91,42.57921591666667,44.29964258333334,36.0,66.0
92,42.90179591666667,44.33727691666667,43.0,41.0
93,44.83727591666667,45.14641508333334,55.0,73.0
94,43.86953591666667,45.174640833333335,63.0,107.0
95,44.19211591666667,45.18001716666667,60.0,72.0
96,45.80501591666667,46.673293750000006,55.0,72.0
97,46.45017591666667,46.76469141666667,70.0,122.0
98,46.12759591666667,46.919261000000006,62.0,81.0
99,45.48243591666667,46.97033616666667,50.0,48.0
100,45.15985591666667,47.05904566666667,43.0,76.0
101,46.77275591666667,47.18404541666667,69.0,83.0
102,47.09533591666667,47.79560333333334,67.0,79.0
103,47.41791591666667,47.81576458333333,62.0,72.0
104,48.38565591666667,49.14775116666667,51.0,73.0
105,49.35339591666667,49.69210491666667,51.0,75.0
106,48.06307591666667,49.701513500000004,46.0,47.0
107,47.74049591666667,49.79694341666667,39.0,71.0
108,48.708235916666666,49.83592183333334,55.0,63.0
109,49.67597591666667,50.302318750000005,58.0,102.0
110,49.03081591666667,50.31172733333334,63.0,122.0
111,49.99855591666667,50.35070575,55.0,64.0
112,51.28887591666667,51.725703,57.0,75.0
113,50.96629591666667,51.944788583333334,50.0,75.0
114,51.61145591666667,51.98645516666667,66.0,127.0
115,50.32113591666667,52.18269133333334,38.0,71.0
116,50.64371591666667,52.25392775,45.0,56.0
117,51.93403591666667,52.279465333333334,62.0,122.0
118,52.25661591666667,52.6369915,57.0,100.0
119,52.57919591666667,53.161184000000006,58.0,107.0
120,52.90177591666667,53.16387216666667,55.0,78.0
121,53.86951591666667,54.112795000000006,70.0,58.0
122,53.86951591666667,54.13564441666667,67.0,55.0
123,53.54693591666667,54.30903116666667,55.0,78.0
124,54.51467591666667,54.69075083333334,55.0,71.0
125,53.22435591666667,54.80499791666667,50.0,72.0
126,54.19209591666667,54.92999766666667,70.0,122.0
127,54.19209591666667,55.00257816666667,67.0,99.0
128,52.90177591666667,55.04693291666667,43.0,81.0
129,54.83725591666667,55.43268483333334,62.0,75.0
130,55.15983591666667,55.44612566666667,67.0,79.0
131,56.12757591666667,57.073810583333334,53.0,71.0
132,56.77273591666667,57.24585325,69.0,122.0
133,55.80499591666667,57.40579916666667,48.0,53.0
134,55.48241591666667,57.46225066666667,41.0,53.0
135,56.45015591666667,57.50526133333334,60.0,79.0
136,57.41789591666667,58.107410666666674,65.0,82.0
137,57.41789591666667,58.12622783333334,69.0,92.0
138,57.74047591666667,58.15310950000001,60.0,77.0
139,58.06305591666667,59.27273091666667,39.0,93.0
140,58.38563591666667,59.278107250000005,46.0,63.0
141,58.70821591666667,59.32649425,51.0,86.0
142,59.03079591666667,59.35337591666667,55.0,73.0
143,59.35337591666667,60.22703008333334,41.0,85.0
144,59.67595591666667,60.241815,48.0,69.0
145,59.99853591666667,60.43133075,53.0,99.0
146,60.32111591666667,60.721652750000004,69.0,97.0
147,61.61143591666667,62.044230750000004,62.0,71.0
148,61.28885591666667,62.106058583333336,58.0,96.0
149,62.25659591666667,62.556326500000004,58.0,72.0
150,60.96627591666667,62.55767058333334,53.0,62.0
151,60.64369591666667,62.64369191666667,46.0,83.0
152,62.57917591666667,63.25928208333334,65.0,95.0
153,61.934015916666674,63.27003475,70.0,127.0
154,62.90175591666667,63.274067,62.0,96.0
155,63.86949591666667,64.67191366666667,48.0,78.0
156,64.19207591666667,64.79288116666667,55.0,79.0
157,63.22433591666667,64.99987,36.0,85.0
158,63.54691591666667,65.00390225000001,43.0,56.0
159,64.83723591666667,65.18669758333334,48.0,55.0
160,65.48239591666668,65.74852441666667,55.0,79.0
161,64.51465591666667,65.7498685,63.0,127.0
162,65.15981591666667,65.76465341666668,60.0,97.0
163,66.45013591666667,67.31841375,55.0,86.0
164,66.77271591666667,67.49583275,62.0,78.0
165,67.41787591666667,67.5724455,55.0,78.0
166,66.12755591666667,67.645026,50.0,56.0
167,65.80497591666668,67.67190766666667,43.0,79.0
168,67.09529591666667,67.93131575000001,70.0,127.0
169,67.74045591666668,68.14636908333334,67.0,107.0
170,68.06303591666668,68.45550825000001,65.0,82.0
171,69.03077591666667,69.790183,51.0,96.0
172,69.35335591666667,70.07512866666667,55.0,73.0
173,69.99851591666668,70.25389175000001,51.0,92.0
174,68.70819591666667,70.30362283333334,46.0,44.0
175,68.38561591666667,70.40174091666667,39.0,72.0
176,70.32109591666666,70.90711625,58.0,127.0
177,69.67593591666667,70.91114850000001,63.0,127.0
178,70.64367591666667,70.919213,55.0,92.0
179,70.96625591666667,71.61141591666667,38.0,97.0
180,71.28883591666667,71.61141591666667,45.0,79.0
181,71.61276000000001,71.93534000000001,50.0,97.0
182,72.25792,72.41921,50.0,97.0
183,71.93534000000001,72.41921,54.0,97.0
184,72.25792,72.90308,57.0,97.0
185,72.25792,72.90308,62.0,97.0
186,73.22566,73.54824,54.0,97.0
187,73.54824,74.03211,43.0,97.0
188,74.19340000000001,74.35469,50.0,97.0
189,74.51598,74.83856,55.0,97.0
190,74.83856,75.32243000000001,58.0,97.0
191,74.83856,75.32243000000001,62.0,97.0
192,75.48237591666667,75.84393433333334,67.0,97.0
193,75.80495591666667,76.03345008333334,62.0,97.0
194,75.96624591666667,76.12484775,67.0,79.0
195,76.61140591666667,76.76463141666667,60.0,93.0
196,76.45011591666668,77.18936175,53.0,85.0
197,77.09527591666667,77.55495241666667,69.0,102.0
198,76.77269591666668,77.68936075,65.0,102.0
199,77.41785591666667,78.09527391666667,53.0,102.0
200,77.74043591666667,78.2175855,60.0,99.0
201,76.12753591666667,78.31032725,41.0,95.0
202,76.28882591666667,78.31301541666667,48.0,95.0
203,78.22430591666667,78.322424,53.0,99.0
204,78.06301591666667,78.67054158333333,69.0,127.0
205,78.38559591666667,78.68801466666667,65.0,107.0
206,78.54688591666667,78.73774575,60.0,93.0
207,79.19204591666667,79.40978741666667,51.0,96.0
208,78.70817591666668,79.63828158333334,39.0,92.0
209,79.03075591666668,79.65575466666667,46.0,40.0
210,79.51462591666667,79.71220616666668,51.0,97.0
211,79.35333591666667,79.84795858333334,55.0,95.0
212,79.67591591666667,79.96354975,63.0,107.0
213,79.83720591666668,79.98908733333334,58.0,102.0
214,80.48236591666667,80.73102133333335,60.0,82.0
215,80.32107591666667,80.78881691666668,53.0,86.0
216,80.15978591666668,80.91381666666668,48.0,72.0
217,79.99849591666667,80.96623591666668,41.0,75.0
218,80.64365591666667,81.30225675,69.0,102.0
219,80.96623591666668,81.31972983333334,65.0,89.0
220,81.77268591666667,82.26058816666666,58.0,97.0
221,82.25655591666667,82.53612525000001,65.0,107.0
222,82.41784591666668,82.65037233333334,58.0,96.0
223,81.93397591666667,82.66784541666667,62.0,82.0
224,82.74042591666667,82.92187716666668,58.0,96.0
225,82.57913591666667,82.99848991666667,70.0,127.0
226,81.61139591666667,83.16515625000001,53.0,59.0
227,81.28881591666668,83.21219916666668,46.0,99.0
228,83.06300591666667,83.21623141666667,58.0,81.0
229,82.90171591666667,83.23101633333334,65.0,107.0
230,83.22429591666668,83.56031675,62.0,117.0
231,83.54687591666668,83.75655291666668,63.0,117.0
232,83.70816591666667,83.89364941666668,62.0,89.0
233,83.86945591666667,84.56569108333333,60.0,97.0
234,84.83719591666667,85.27536708333334,60.0,82.0
235,84.51461591666667,85.29149608333334,48.0,97.0
236,83.86945591666667,85.54821600000001,36.0,81.0
237,84.19203591666667,85.59525891666667,43.0,61.0
238,85.15977591666667,85.69875333333334,67.0,127.0
239,85.48235591666668,85.854667,63.0,117.0
240,85.80493591666666,86.18262333333334,60.0,107.0
241,86.12751591666667,86.35063375,62.0,93.0
242,86.28880591666667,86.51998825000001,58.0,97.0
243,87.09525591666667,87.52805075,55.0,97.0
244,86.77267591666667,87.94874883333334,50.0,64.0
245,87.41783591666668,88.02267341666668,62.0,72.0
246,86.45009591666667,88.16649033333334,43.0,85.0
247,88.06299591666667,88.20009241666668,50.0,83.0
248,88.38557591666667,88.7659515,65.0,92.0
249,87.74041591666668,89.07777883333334,70.0,127.0
250,88.70815591666667,89.16245608333334,67.0,82.0
251,89.67589591666668,90.43127075000001,51.0,96.0
252,89.99847591666668,90.7498185,55.0,88.0
253,90.64363591666667,90.86675375,51.0,99.0
254,89.35331591666667,90.91514075,46.0,35.0
255,89.03073591666667,90.95546325000001,39.0,77.0
256,90.32105591666667,91.50384925,63.0,127.0
257,91.28879591666667,91.50922558333333,55.0,93.0
258,90.96621591666667,91.55089216666667,58.0,127.0
259,91.93395591666668,92.20949300000001,74.0,97.0
260,91.93395591666668,92.48503008333334,62.0,107.0
261,92.57911591666667,92.81164233333334,69.0,89.0
262,92.57911591666667,92.82642725000001,66.0,90.0
263,92.57911591666667,92.85734116666667,62.0,69.0
264,92.25653591666668,93.00115808333334,50.0,79.0
265,92.90169591666667,93.38959816666667,69.0,127.0
266,92.90169591666667,93.41647983333334,66.0,127.0
267,93.22427591666667,93.612716,50.0,92.0
268,91.93395591666668,93.94336050000001,45.0,53.0
269,91.61137591666667,94.064328,38.0,83.0
270,93.54685591666667,94.16782241666667,66.0,127.0
271,93.54685591666667,94.18529550000001,69.0,122.0
272,93.86943591666667,94.19470408333333,62.0,100.0
273,94.67588591666667,95.00518633333334,55.0,92.0
274,95.15975591666667,95.52803475,55.0,99.0
275,94.83717591666667,95.59120666666668,62.0,93.0
276,95.48233591666667,95.91781891666668,70.0,127.0
277,95.80491591666667,96.19873233333334,55.0,100.0
278,94.51459591666668,96.42453833333335,50.0,85.0
279,94.19201591666668,96.47292533333334,43.0,97.0
280,96.12749591666667,96.48905433333334,67.0,97.0
281,96.45007591666668,96.67857008333334,62.0,97.0
282,96.61136591666667,96.76996775,67.0,79.0
283,97.25652591666667,97.40975141666667,60.0,93.0
284,97.09523591666667,97.83448175000001,53.0,85.0
285,97.74039591666667,98.20007241666667,69.0,102.0
286,97.41781591666667,98.33448075000001,65.0,102.0
287,98.06297591666667,98.74039391666668,53.0,102.0
288,98.38555591666668,98.8627055,60.0,99.0
289,96.77265591666668,98.95544725,41.0,95.0
290,96.93394591666667,98.95813541666668,48.0,95.0
291,98.86942591666667,98.967544,53.0,99.0
292,98.70813591666668,99.31566158333334,69.0,127.0
293,99.03071591666668,99.33313466666667,65.0,107.0
294,99.19200591666667,99.38286575000001,60.0,93.0
295,99.83716591666668,100.05490741666667,51.0,96.0
296,99.35329591666667,100.28340158333334,39.0,92.0
297,99.67587591666667,100.30087466666667,46.0,40.0
298,100.15974591666668,100.35732616666667,51.0,97.0
299,99.99845591666667,100.49307858333334,55.0,95.0
300,100.32103591666667,100.60866975,63.0,107.0
301,100.48232591666667,100.63420733333334,58.0,102.0
302,101.12748591666667,101.37614133333334,60.0,82.0
303,100.96619591666668,101.43393691666667,53.0,86.0
304,100.80490591666667,101.55893666666667,48.0,72.0
305,100.64361591666668,101.61135591666667,41.0,75.0
306,101.28877591666668,101.94737675,69.0,102.0
307,101.61135591666667,101.96484983333335,65.0,89.0
308,102.41780591666668,102.90570816666667,58.0,97.0
309,102.90167591666668,103.18124525,65.0,107.0
310,103.06296591666667,103.29549233333334,58.0,96.0
311,102.57909591666667,103.31296541666667,62.0,82.0
312,103.38554591666667,103.56699716666667,58.0,96.0
313,103.22425591666668,103.64360991666668,70.0,127.0
314,102.25651591666667,103.81027625,53.0,59.0
315,101.93393591666667,103.85731916666667,46.0,99.0
316,103.70812591666667,103.86135141666668,58.0,81.0
317,103.54683591666667,103.87613633333333,65.0,107.0
318,103.86941591666667,104.20543675,62.0,117.0
319,104.19199591666667,104.40167291666667,63.0,117.0
320,104.35328591666668,104.53876941666667,62.0,89.0
321,104.51457591666667,105.21081108333334,60.0,97.0
322,105.48231591666668,105.92048708333334,60.0,82.0
323,105.15973591666668,105.93661608333333,48.0,97.0
324,104.51457591666667,106.193336,36.0,81.0
325,104.83715591666667,106.24037891666667,43.0,61.0
326,105.80489591666667,106.34387333333333,67.0,127.0
327,106.12747591666667,106.49978700000001,63.0,117.0
328,106.45005591666667,106.82774333333334,60.0,107.0
329,106.77263591666667,106.99575375,62.0,93.0
330,106.93392591666667,107.16510825,58.0,97.0
331,107.74037591666668,108.17317075000001,55.0,97.0
332,107.41779591666668,108.59386883333335,50.0,64.0
333,108.06295591666667,108.66779341666667,62.0,72.0
334,107.09521591666667,108.81161033333333,43.0,85.0
335,108.70811591666667,108.84521241666667,50.0,83.0
336,109.03069591666667,109.4110715,65.0,92.0
337,108.38553591666667,109.72289883333335,70.0,127.0
338,109.35327591666668,109.80757608333334,67.0,82.0
339,110.32101591666667,111.07639075,51.0,96.0
340,110.64359591666667,111.39493850000001,55.0,88.0
341,111.28875591666667,111.51187375,51.0,99.0
342,109.99843591666668,111.56026075000001,46.0,35.0
343,109.67585591666668,111.60058325,39.0,77.0
344,110.96617591666667,112.14896925000001,63.0,127.0
345,111.93391591666668,112.15434558333334,55.0,93.0
346,111.61133591666668,112.19601216666668,58.0,127.0
347,112.57907591666667,112.854613,74.0,97.0
348,112.57907591666667,113.13015008333333,62.0,107.0
349,113.22423591666667,113.45676233333334,69.0,89.0
350,113.22423591666667,113.47154725,66.0,90.0
351,113.22423591666667,113.50246116666668,62.0,69.0
352,112.90165591666667,113.64627808333334,50.0,79.0
353,113.54681591666667,114.03471816666668,69.0,127.0
354,113.54681591666667,114.06159983333335,66.0,127.0
355,113.86939591666668,114.25783600000001,50.0,92.0
356,112.57907591666667,114.5884805,45.0,53.0
357,112.25649591666668,114.70944800000001,38.0,83.0
358,114.19197591666668,114.81294241666667,66.0,127.0
359,114.19197591666668,114.8304155,69.0,122.0
360,114.51455591666668,114.83982408333334,62.0,100.0
361,115.48229591666667,116.30756308333333,55.0,96.0
362,115.80487591666667,116.33310066666667,62.0,81.0
363,116.45003591666668,116.80084166666667,55.0,83.0
364,114.83713591666667,117.08175508333333,43.0,96.0
365,115.15971591666667,117.09788408333334,50.0,67.0
366,116.12745591666668,117.35057175,70.0,127.0
367,116.77261591666668,117.42315225,67.0,97.0
368,117.09519591666667,117.44465758333334,62.0,81.0
369,118.06293591666667,118.8949235,53.0,93.0
370,117.41777591666667,119.15970791666668,41.0,83.0
371,119.03067591666668,119.16239608333333,53.0,92.0
372,118.38551591666668,119.19734225,60.0,85.0
373,117.74035591666667,119.20540675000001,48.0,63.0
374,119.67583591666667,119.99841591666667,60.0,92.0
375,119.35325591666667,119.99841591666667,65.0,100.0
376,118.70809591666668,119.99841591666667,69.0,127.0
377,119.99841591666667,120.95674733333334,39.0,93.0
378,120.32099591666667,120.99572575,46.0,58.0
379,120.64357591666668,121.01185475000001,51.0,100.0
380,120.96615591666668,121.33981108333334,58.0,117.0
381,121.28873591666667,122.01454091666668,41.0,77.0
382,121.61131591666667,122.09787408333334,48.0,72.0
383,121.93389591666667,122.38147566666667,60.0,107.0
384,122.25647591666667,122.57905591666668,57.0,82.0
385,123.22421591666668,123.59249475000001,58.0,102.0
386,123.54679591666667,123.86668775000001,62.0,112.0
387,123.86937591666667,124.14222483333334,65.0,107.0
388,124.19195591666667,124.29410625000001,62.0,93.0
389,122.90163591666668,124.52260041666668,53.0,60.0
390,122.57905591666668,124.61937441666667,46.0,96.0
391,124.51453591666667,124.86802983333334,58.0,122.0
392,124.83711591666668,125.22824416666667,55.0,99.0
393,126.12743591666667,126.45539225,55.0,92.0
394,126.45001591666667,126.73764975,63.0,127.0
395,125.80485591666667,126.83576783333334,48.0,90.0
396,126.77259591666667,126.91506875,62.0,93.0
397,125.48227591666668,126.96345575000001,43.0,58.0
398,125.15969591666668,126.967488,36.0,81.0
399,127.09517591666668,127.39893875000001,60.0,99.0
400,127.41775591666668,127.773938,58.0,90.0
401,128.38549591666668,128.741678,55.0,74.0
402,128.70807591666667,128.94732275,70.0,77.0
403,128.70807591666667,128.96882808333334,67.0,77.0
404,128.06291591666667,129.19463408333334,50.0,70.0
405,129.35323591666668,129.531999,50.0,72.0
406,127.74033591666668,129.57904191666668,43.0,79.0
407,129.0306559166667,129.64221383333333,70.0,127.0
408,129.0306559166667,129.69732125000002,67.0,99.0
409,129.67581591666666,130.17447083333334,62.0,102.0
410,129.99839591666668,130.36129841666667,67.0,92.0
411,130.96613591666667,131.70000541666667,51.0,90.0
412,131.28871591666666,131.97688658333334,55.0,77.0
413,131.93387591666666,132.24435916666667,51.0,71.0
414,130.64355591666668,132.25645591666668,46.0,65.0
415,130.32097591666667,132.35860625,39.0,86.0
416,131.61129591666668,132.73629366666668,63.0,127.0
417,132.25645591666668,132.83441175000002,58.0,122.0
418,132.57903591666667,132.93252983333335,55.0,88.0
419,133.54677591666666,134.2806454166667,50.0,79.0
420,133.86935591666668,134.40430108333334,57.0,79.0
421,134.19193591666667,134.90833233333333,66.0,127.0
422,133.22419591666667,135.1798371666667,45.0,68.0
423,132.90161591666669,135.1852135,38.0,89.0
424,134.51451591666668,135.22284783333333,50.0,95.0
425,134.83709591666667,135.2497295,57.0,100.0
426,135.15967591666669,135.44193341666667,66.0,107.0
427,135.48225591666667,138.08305716666666,50.0,95.0
428,138.06289591666666,138.08305716666666,50.0,54.0
429,135.48225591666667,138.08977758333333,45.0,72.0
430,135.48225591666667,138.09246575,38.0,63.0
431,135.48225591666667,138.09918616666667,66.0,89.0
432,135.48225591666667,138.10053025000002,62.0,90.0
433,135.48225591666667,138.10187433333334,57.0,88.0
434,138.06289591666666,139.39757066666667,43.0,53.0
435,138.06289591666666,139.47687158333335,55.0,48.0
436,138.06289591666666,139.71880658333333,82.0,79.0
437,138.06289591666666,140.0400425,74.0,57.0
438,138.06289591666666,140.11127891666666,79.0,68.0
439,140.64353591666668,141.44057733333335,65.0,51.0
440,140.64353591666668,141.89890975,60.0,44.0
441,140.64353591666668,141.9432645,53.0,41.0
442,140.64353591666668,142.05482341666666,77.0,60.0
443,140.64353591666668,142.06019975,81.0,56.0
444,140.64353591666668,142.19998441666667,72.0,41.0
445,143.22417591666667,143.74433616666667,82.0,73.0
446,143.22417591666667,143.75508883333333,51.0,63.0
447,143.22417591666667,143.86933591666667,79.0,48.0
448,143.22417591666667,143.90428208333333,75.0,88.0
449,144.51449591666668,145.30481691666668,53.0,52.0
450,144.51449591666668,145.30884916666668,60.0,57.0
451,144.51449591666668,145.38142966666666,81.0,75.0
452,144.51449591666668,145.39352641666667,77.0,75.0
453,144.51449591666668,145.45669833333335,72.0,72.0
454,145.80481591666668,146.79406125,65.0,40.0
455,145.80481591666668,147.15293150000002,77.0,52.0
456,145.80481591666668,147.16771641666668,70.0,54.0
457,145.80481591666668,147.21207116666668,74.0,49.0
458,147.09513591666666,147.4432535,69.0,90.0
459,145.80481591666668,147.74029591666667,58.0,51.0
460,147.41771591666668,147.7658335,70.0,107.0
461,147.74029591666667,147.84916666666666,69.0,58.0
462,148.38545591666667,150.19996841666668,55.0,54.0
463,148.38545591666667,150.30211875,48.0,45.0
464,148.38545591666667,150.32093591666668,67.0,63.0
465,148.38545591666667,150.3814196666667,63.0,67.0
466,148.38545591666667,150.451312,60.0,71.0
467,150.9660959166667,152.46206066666667,50.0,53.0
468,150.9660959166667,152.48222191666667,43.0,43.0
469,150.9660959166667,152.65829683333334,62.0,64.0
470,150.9660959166667,152.7013075,67.0,61.0
471,150.9660959166667,152.73625366666667,70.0,61.0
472,153.54673591666668,154.98893733333335,65.0,56.0
473,153.54673591666668,155.09243175,74.0,65.0
474,153.54673591666668,155.1273779166667,70.0,59.0
475,153.54673591666668,155.22146375,58.0,59.0
476,153.54673591666668,155.26178625,46.0,53.0
477,156.12737591666667,156.93113775,62.0,61.0
478,156.12737591666667,157.225492,69.0,70.0
479,156.12737591666667,157.31151333333335,66.0,75.0
480,156.12737591666667,157.4593625,57.0,54.0
481,157.09511591666669,157.51178175,62.0,67.0
482,157.7402759166667,158.17844708333334,57.0,62.0
483,156.12737591666667,158.18382341666668,54.0,66.0
484,156.12737591666667,158.68785466666668,50.0,61.0
485,158.38543591666667,158.70801591666668,62.0,100.0
486,158.06285591666668,158.70801591666668,66.0,127.0
487,157.41769591666667,158.70801591666668,69.0,127.0
488,158.70801591666668,158.97011216666667,55.0,78.0
489,159.67575591666667,159.919035,70.0,58.0
490,159.67575591666667,159.94188441666668,67.0,55.0
491,159.3531759166667,160.11527116666667,55.0,78.0
492,160.32091591666668,160.49699083333334,55.0,71.0
493,159.03059591666667,160.61123791666668,50.0,72.0
494,159.9983359166667,160.73623766666668,70.0,122.0
495,159.9983359166667,160.80881816666667,67.0,99.0
496,158.70801591666668,160.85317291666667,43.0,81.0
497,160.64349591666667,161.23892483333336,62.0,75.0
498,160.96607591666668,161.25236566666666,67.0,79.0
499,161.93381591666667,162.88005058333334,53.0,71.0
500,162.57897591666668,163.05209325,69.0,122.0
501,161.6112359166667,163.21203916666667,48.0,53.0
502,161.28865591666667,163.26849066666668,41.0,53.0
503,162.2563959166667,163.31150133333335,60.0,79.0
504,163.22413591666668,163.91365066666668,65.0,82.0
505,163.22413591666668,163.93246783333333,69.0,92.0
506,163.54671591666667,163.9593495,60.0,77.0
507,163.8692959166667,165.07897091666666,39.0,93.0
508,164.19187591666667,165.08434725,46.0,63.0
509,164.51445591666666,165.13273425,51.0,86.0
510,164.83703591666668,165.15961591666667,55.0,73.0
511,165.15961591666667,166.03327008333335,41.0,85.0
512,165.48219591666668,166.048055,48.0,69.0
513,165.80477591666667,166.23757075,53.0,99.0
514,166.1273559166667,166.52789275,69.0,97.0
515,167.41767591666667,167.85047075,62.0,71.0
516,167.09509591666668,167.91229858333335,58.0,96.0
517,168.06283591666667,168.3625665,58.0,72.0
518,166.77251591666666,168.36391058333334,53.0,62.0
519,166.44993591666667,168.44993191666669,46.0,83.0
520,168.3854159166667,169.06552208333335,65.0,95.0
521,167.74025591666668,169.07627475,70.0,127.0
522,168.70799591666668,169.080307,62.0,96.0
523,169.67573591666667,170.47815366666669,48.0,78.0
524,169.99831591666668,170.59912116666666,55.0,79.0
525,169.03057591666666,170.80611000000002,36.0,85.0
526,169.35315591666668,170.81014225,43.0,56.0
527,170.6434759166667,170.99293758333334,48.0,55.0
528,171.28863591666666,171.55476441666667,55.0,79.0
529,170.32089591666667,171.55610850000002,63.0,127.0
530,170.96605591666668,171.57089341666668,60.0,97.0
531,172.25637591666668,173.12465375000002,55.0,86.0
532,172.57895591666667,173.30207275,62.0,78.0
533,173.22411591666668,173.37868550000002,55.0,78.0
534,171.93379591666667,173.451266,50.0,56.0
535,171.61121591666668,173.47814766666667,43.0,79.0
536,172.9015359166667,173.73755575,70.0,127.0
537,173.54669591666666,173.95260908333336,67.0,107.0
538,173.86927591666668,174.26174825,65.0,82.0
539,174.83701591666667,175.59642300000002,51.0,96.0
540,175.1595959166667,175.88136866666667,55.0,73.0
541,175.80475591666666,176.06013175,51.0,92.0
542,174.51443591666668,176.10986283333335,46.0,44.0
543,174.19185591666667,176.20798091666668,39.0,72.0
544,176.12733591666668,176.71335625,58.0,127.0
545,175.48217591666668,176.7173885,63.0,127.0
546,176.44991591666667,176.72545300000002,55.0,92.0
547,177.74023591666668,177.9821709166667,69.0,96.0
548,177.74023591666668,177.99292358333335,66.0,117.0
549,177.4176559166667,178.15958991666668,50.0,99.0
550,178.06281591666666,178.596417,69.0,122.0
551,178.06281591666666,178.61792233333335,66.0,127.0
552,176.77249591666668,178.79399725000002,38.0,97.0
553,177.09507591666667,178.82625525,45.0,79.0
554,178.38539591666668,178.92034108333334,50.0,102.0
555,178.70797591666667,179.0507171666667,69.0,127.0
556,178.70797591666667,179.22007166666668,66.0,127.0
557,179.03055591666669,179.35313591666667,62.0,95.0
558,179.83700591666667,180.16630633333335,55.0,92.0
559,180.32087591666667,180.68915475,55.0,99.0
560,179.99829591666668,180.75232666666668,62.0,93.0
561,180.64345591666668,181.0789389166667,70.0,127.0
562,180.96603591666667,181.35985233333335,55.0,100.0
563,179.6757159166667,181.58565833333336,50.0,85.0
564,179.35313591666667,181.63404533333335,43.0,97.0
565,181.28861591666669,181.65017433333335,67.0,97.0
566,181.61119591666667,181.83969008333335,62.0,97.0
567,181.77248591666668,181.93108775000002,67.0,79.0
568,182.4176459166667,182.57087141666668,60.0,93.0
569,182.25635591666668,182.99560175000002,53.0,85.0
570,182.90151591666668,183.36119241666668,69.0,102.0
571,182.57893591666667,183.49560075000002,65.0,102.0
572,183.22409591666667,183.9015139166667,53.0,102.0
573,183.5466759166667,184.02382550000002,60.0,99.0
574,181.9337759166667,184.11656725,41.0,95.0
575,182.09506591666667,184.11925541666668,48.0,95.0
576,184.03054591666668,184.12866400000001,53.0,99.0
577,183.86925591666667,184.47678158333335,69.0,127.0
578,184.1918359166667,184.49425466666668,65.0,107.0
579,184.35312591666667,184.54398575000002,60.0,93.0
580,184.99828591666667,185.2160274166667,51.0,96.0
581,184.51441591666668,185.44452158333334,39.0,92.0
582,184.83699591666667,185.46199466666667,46.0,40.0
583,185.3208659166667,185.51844616666668,51.0,97.0
584,185.15957591666668,185.65419858333334,55.0,95.0
585,185.48215591666667,185.76978975,63.0,107.0
586,185.64344591666668,185.79532733333335,58.0,102.0
587,186.28860591666668,186.53726133333333,60.0,82.0
588,186.12731591666667,186.59505691666666,53.0,86.0
589,185.96602591666667,186.72005666666666,48.0,72.0
590,185.8047359166667,186.77247591666668,41.0,75.0
591,186.4498959166667,187.10849675,69.0,102.0
592,186.77247591666668,187.12596983333336,65.0,89.0
593,187.5789259166667,188.06682816666668,58.0,97.0
594,188.0627959166667,188.34236525,65.0,107.0
595,188.22408591666667,188.45661233333334,58.0,96.0
596,187.74021591666667,188.47408541666667,62.0,82.0
597,188.54666591666668,188.7281171666667,58.0,96.0
598,188.38537591666667,188.80472991666667,70.0,127.0
599,187.41763591666668,188.97139625,53.0,59.0
600,187.09505591666667,189.01843916666667,46.0,99.0
601,188.86924591666667,189.0224714166667,58.0,81.0
602,188.7079559166667,189.03725633333335,65.0,107.0
603,189.03053591666668,189.36655675,62.0,117.0
604,189.35311591666667,189.56279291666667,63.0,117.0
605,189.51440591666668,189.69988941666668,62.0,89.0
606,189.67569591666668,190.37193108333335,60.0,97.0
607,190.64343591666668,191.08160708333335,60.0,82.0
608,190.3208559166667,191.09773608333333,48.0,97.0
609,189.67569591666668,191.354456,36.0,81.0
610,189.99827591666667,191.40149891666667,43.0,61.0
611,190.9660159166667,191.50499333333335,67.0,127.0
612,191.28859591666668,191.660907,63.0,117.0
613,191.61117591666667,191.98886333333334,60.0,107.0
614,191.93375591666668,192.15687375000002,62.0,93.0
615,192.0950459166667,192.32622825,58.0,97.0
616,192.90149591666668,193.33429075,55.0,97.0
617,192.5789159166667,193.75498883333336,50.0,64.0
618,193.2240759166667,193.82891341666667,62.0,72.0
619,192.25633591666667,193.97273033333335,43.0,85.0
620,193.86923591666667,194.00633241666668,50.0,83.0
621,194.19181591666668,194.5721915,65.0,92.0
622,193.54665591666668,194.88401883333336,70.0,127.0
623,194.51439591666667,194.96869608333336,67.0,82.0
624,195.4821359166667,196.23751075,51.0,96.0
625,195.80471591666668,196.5560585,55.0,88.0
626,196.44987591666668,196.67299375000002,51.0,99.0
627,195.15955591666668,196.72138075,46.0,35.0
628,194.8369759166667,196.76170325,39.0,77.0
629,196.12729591666667,197.31008925,63.0,127.0
630,197.0950359166667,197.31546558333335,55.0,93.0
631,196.77245591666667,197.35713216666667,58.0,127.0
632,197.7401959166667,198.015733,74.0,97.0
633,197.7401959166667,198.29127008333336,62.0,107.0
634,198.38535591666667,198.61788233333334,69.0,89.0
635,198.38535591666667,198.63266725000003,66.0,90.0
636,198.38535591666667,198.6635811666667,62.0,69.0
637,198.06277591666668,198.80739808333334,50.0,79.0
638,198.70793591666668,199.19583816666668,69.0,127.0
639,198.70793591666668,199.22271983333334,66.0,127.0
640,199.03051591666667,199.418956,50.0,92.0
641,197.7401959166667,199.7496005,45.0,53.0
642,197.41761591666668,199.87056800000002,38.0,83.0
643,199.3530959166667,199.97406241666667,66.0,127.0
644,199.3530959166667,199.99153550000003,69.0,122.0
645,199.67567591666668,200.00094408333334,62.0,100.0
646,200.4821259166667,200.81142633333334,55.0,92.0
647,200.96599591666669,201.33427475000002,55.0,99.0
648,200.64341591666667,201.39744666666667,62.0,93.0
649,201.28857591666667,201.72405891666668,70.0,127.0
650,201.6111559166667,202.00497233333334,55.0,100.0
651,200.32083591666668,202.23077833333335,50.0,85.0
652,199.99825591666666,202.27916533333334,43.0,97.0
653,201.93373591666668,202.29529433333335,67.0,97.0
654,202.25631591666667,202.48481008333334,62.0,97.0
655,202.41760591666667,202.57620775,67.0,79.0
656,203.06276591666668,203.21599141666667,60.0,93.0
657,202.90147591666667,203.64072175,53.0,85.0
658,203.54663591666667,204.00631241666667,69.0,102.0
659,203.22405591666669,204.14072075,65.0,102.0
660,203.8692159166667,204.54663391666668,53.0,102.0
661,204.19179591666668,204.6689455,60.0,99.0
662,202.57889591666668,204.76168725000002,41.0,95.0
663,202.7401859166667,204.76437541666667,48.0,95.0
664,204.67566591666667,204.773784,53.0,99.0
665,204.51437591666667,205.12190158333334,69.0,127.0
666,204.83695591666668,205.13937466666667,65.0,107.0
667,204.9982459166667,205.18910575,60.0,93.0
668,205.64340591666667,205.86114741666668,51.0,96.0
669,205.15953591666667,206.08964158333333,39.0,92.0
670,205.4821159166667,206.1071146666667,46.0,40.0
671,205.96598591666668,206.16356616666667,51.0,97.0
672,205.80469591666667,206.29931858333336,55.0,95.0
673,206.1272759166667,206.41490975000002,63.0,107.0
674,206.28856591666667,206.44044733333334,58.0,102.0
675,206.93372591666667,207.18238133333335,60.0,82.0
676,206.77243591666667,207.24017691666668,53.0,86.0
677,206.6111459166667,207.36517666666668,48.0,72.0
678,206.44985591666668,207.41759591666667,41.0,75.0
679,207.09501591666668,207.75361675000002,69.0,102.0
680,207.41759591666667,207.77108983333335,65.0,89.0
681,208.22404591666668,208.71194816666667,58.0,97.0
682,208.70791591666668,208.98748525000002,65.0,107.0
683,208.8692059166667,209.10173233333336,58.0,96.0
684,208.3853359166667,209.1192054166667,62.0,82.0
685,209.19178591666667,209.37323716666668,58.0,96.0
686,209.03049591666667,209.4498499166667,70.0,127.0
687,208.06275591666667,209.61651625000002,53.0,59.0
688,207.7401759166667,209.6635591666667,46.0,99.0
689,209.5143659166667,209.66759141666668,58.0,81.0
690,209.35307591666668,209.68237633333334,65.0,107.0
691,209.67565591666667,210.01167675000002,62.0,117.0
692,209.9982359166667,210.2079129166667,63.0,117.0
693,210.15952591666667,210.34500941666667,62.0,89.0
694,210.32081591666667,211.01705108333334,60.0,97.0
695,211.28855591666667,211.72672708333334,60.0,82.0
696,210.96597591666668,211.74285608333335,48.0,97.0
697,210.32081591666667,211.99957600000002,36.0,81.0
698,210.6433959166667,212.0466189166667,43.0,61.0
699,211.61113591666668,212.15011333333334,67.0,127.0
700,211.93371591666667,212.306027,63.0,117.0
701,212.2562959166667,212.63398333333333,60.0,107.0
702,212.57887591666668,212.80199375,62.0,93.0
703,212.74016591666668,212.97134825,58.0,97.0
704,213.54661591666667,213.97941075,55.0,97.0
705,213.22403591666668,214.40010883333335,50.0,64.0
706,213.86919591666668,214.47403341666669,62.0,72.0
707,212.9014559166667,214.61785033333334,43.0,85.0
708,214.5143559166667,214.65145241666667,50.0,83.0
709,214.83693591666668,215.21731150000002,65.0,92.0
710,214.19177591666667,215.52913883333335,70.0,127.0
711,215.1595159166667,215.61381608333335,67.0,82.0
712,216.12725591666668,216.88263075,51.0,96.0
713,216.44983591666667,217.20117850000003,55.0,88.0
714,217.09499591666668,217.31811375,51.0,99.0
715,215.80467591666667,217.36650075,46.0,35.0
716,215.48209591666668,217.40682325,39.0,77.0
717,216.7724159166667,217.95520925000002,63.0,127.0
718,217.74015591666668,217.96058558333334,55.0,93.0
719,217.4175759166667,218.0022521666667,58.0,127.0
720,218.38531591666668,218.660853,74.0,97.0
721,218.38531591666668,218.93639008333335,62.0,107.0
722,219.0304759166667,219.26300233333333,69.0,89.0
723,219.0304759166667,219.27778725000002,66.0,90.0
724,219.0304759166667,219.30870116666668,62.0,69.0
725,218.70789591666667,219.45251808333336,50.0,79.0
726,219.35305591666668,219.84095816666667,69.0,127.0
727,219.35305591666668,219.86783983333333,66.0,127.0
728,219.6756359166667,220.064076,50.0,92.0
729,218.38531591666668,220.3947205,45.0,53.0
730,218.06273591666667,220.515688,38.0,83.0
731,219.99821591666668,220.6191824166667,66.0,127.0
732,219.99821591666668,220.63665550000002,69.0,122.0
733,220.32079591666667,220.64337591666668,62.0,100.0
734,220.64337591666668,220.77778425000002,55.0,92.0
735,220.64337591666668,220.78316058333334,43.0,74.0
736,221.2885359166667,221.43100875000002,55.0,79.0
737,221.2885359166667,221.45117000000002,43.0,74.0
738,221.9336959166667,222.04525483333336,42.0,69.0
739,221.9336959166667,222.06138383333334,54.0,96.0
740,222.57885591666667,222.69579116666668,42.0,79.0
741,222.57885591666667,222.71460833333336,54.0,85.0
742,223.22401591666667,223.37589733333334,43.0,76.0
743,223.22401591666667,223.41218758333335,55.0,96.0
744,223.22401591666667,223.41218758333335,62.0,78.0
745,223.86917591666668,224.02777775,43.0,86.0
746,223.86917591666668,224.0465949166667,55.0,93.0
747,223.86917591666668,224.06003575000003,62.0,89.0
748,224.51433591666668,224.65680875,55.0,99.0
749,224.51433591666668,224.66218508333336,62.0,102.0
750,224.51433591666668,224.67697,43.0,107.0
751,225.15949591666669,225.31809775000002,55.0,100.0
752,225.15949591666669,225.32750633333336,62.0,112.0
753,225.15949591666669,225.33825900000002,43.0,127.0
754,225.48207591666667,225.580194,43.0,100.0
755,225.48207591666667,225.65411858333334,55.0,92.0
756,225.48207591666667,225.65411858333334,62.0,89.0
757,225.8046559166667,226.08556933333335,55.0,112.0
758,225.8046559166667,226.08825750000003,62.0,102.0
759,225.8046559166667,226.09228975000002,43.0,127.0
760,228.0627159166667,228.27776925,67.0,102.0
761,228.0627159166667,228.30733908333335,63.0,127.0
762,228.0627159166667,228.31809175,39.0,112.0
763,228.0627159166667,228.34228525,51.0,112.0
764,228.38529591666668,228.7078759166667,60.0,96.0
765,228.38529591666668,228.71862858333336,69.0,102.0
766,228.38529591666668,228.73072533333334,65.0,112.0
767,228.38529591666668,228.73475758333333,41.0,107.0
768,228.38529591666668,228.76432741666667,53.0,117.0
769,231.4498059166667,231.66754741666668,51.0,96.0
770,230.9659359166667,231.89604158333336,39.0,92.0
771,231.28851591666668,231.91351466666669,46.0,40.0
772,231.77238591666668,231.9699661666667,51.0,97.0
773,231.61109591666667,232.10571858333336,55.0,95.0
774,231.9336759166667,232.22130975000002,63.0,107.0
775,232.0949659166667,232.24684733333333,58.0,102.0
776,232.74012591666667,232.98878133333335,60.0,82.0
777,232.5788359166667,233.04657691666668,53.0,86.0
778,232.41754591666668,233.17157666666668,48.0,72.0
779,232.25625591666667,233.2239959166667,41.0,75.0
780,232.90141591666668,233.56001675000002,69.0,102.0
781,233.2239959166667,233.57748983333335,65.0,89.0
782,234.03044591666668,234.51834816666667,58.0,97.0
783,234.51431591666667,234.79388525000002,65.0,107.0
784,234.67560591666668,234.90813233333336,58.0,96.0
785,234.1917359166667,234.92560541666668,62.0,82.0
786,234.99818591666667,235.17963716666668,58.0,96.0
787,234.8368959166667,235.2562499166667,70.0,127.0
788,233.86915591666667,235.42291625000001,53.0,59.0
789,233.54657591666668,235.46995916666668,46.0,99.0
790,235.3207659166667,235.47399141666668,58.0,81.0
791,235.15947591666668,235.48877633333333,65.0,107.0
792,235.48205591666667,235.81807675000002,62.0,117.0
793,235.80463591666668,236.01431291666668,63.0,117.0
794,235.9659259166667,236.1514094166667,62.0,89.0
795,236.12721591666667,236.82345108333334,60.0,97.0
796,237.0949559166667,237.53312708333334,60.0,82.0
797,236.77237591666668,237.54925608333335,48.0,97.0
798,236.12721591666667,237.80597600000002,36.0,81.0
799,236.4497959166667,237.85301891666668,43.0,61.0
800,237.41753591666668,237.95651333333333,67.0,127.0
801,237.74011591666667,238.11242700000003,63.0,117.0
802,238.06269591666668,238.44038333333336,60.0,107.0
803,238.38527591666667,238.60839375,62.0,93.0
804,238.54656591666668,238.77774825,58.0,97.0
805,239.3530159166667,239.78581075000002,55.0,97.0
806,239.03043591666668,240.20650883333334,50.0,64.0
807,239.67559591666668,240.28043341666668,62.0,72.0
808,238.7078559166667,240.42425033333336,43.0,85.0
809,240.32075591666668,240.45785241666667,50.0,83.0
810,240.64333591666667,241.02371150000002,65.0,92.0
811,239.99817591666667,241.33553883333335,70.0,127.0
812,240.9659159166667,241.42021608333334,67.0,82.0
813,241.93365591666668,242.68903075,51.0,96.0
814,242.25623591666667,243.00757850000002,55.0,88.0
815,242.90139591666667,243.12451375,51.0,99.0
816,241.6110759166667,243.17290075000003,46.0,35.0
817,241.28849591666668,243.21322325000003,39.0,77.0
818,242.57881591666668,243.76160925000002,63.0,127.0
819,243.54655591666668,243.76698558333334,55.0,93.0
820,243.2239759166667,243.8086521666667,58.0,127.0
821,244.19171591666668,244.46725300000003,74.0,97.0
822,244.19171591666668,244.74279008333335,62.0,107.0
823,244.83687591666668,245.06940233333336,69.0,89.0
824,244.83687591666668,245.08418725,66.0,90.0
825,244.83687591666668,245.11510116666668,62.0,69.0
826,244.51429591666667,245.25891808333336,50.0,79.0
827,245.15945591666667,245.6473581666667,69.0,127.0
828,245.15945591666667,245.67423983333336,66.0,127.0
829,245.4820359166667,245.87047600000002,50.0,92.0
830,244.19171591666668,246.2011205,45.0,53.0
831,243.8691359166667,246.322088,38.0,83.0
832,245.80461591666668,246.42558241666669,66.0,127.0
833,245.80461591666668,246.4430555,69.0,122.0
834,246.1271959166667,246.45246408333335,62.0,100.0
835,246.93364591666668,247.26294633333336,55.0,92.0
836,247.41751591666667,247.78579475,55.0,99.0
837,247.09493591666669,247.84896666666668,62.0,93.0
838,247.7400959166667,248.1755789166667,70.0,127.0
839,248.06267591666668,248.45649233333336,55.0,100.0
840,246.77235591666667,248.68229833333334,50.0,85.0
841,246.44977591666668,248.73068533333335,43.0,97.0
842,248.3852559166667,248.74681433333336,67.0,97.0
843,248.70783591666668,248.93633008333336,62.0,97.0
844,248.8691259166667,249.02772775000003,67.0,79.0
845,249.5142859166667,249.66751141666668,60.0,93.0
846,249.35299591666669,250.09224175000003,53.0,85.0
847,249.9981559166667,250.4578324166667,69.0,102.0
848,249.67557591666667,250.59224075,65.0,102.0
849,250.32073591666668,250.9981539166667,53.0,102.0
850,250.6433159166667,251.12046550000002,60.0,99.0
851,249.03041591666667,251.21320725,41.0,95.0
852,249.19170591666668,251.21589541666668,48.0,95.0
853,251.1271859166667,251.22530400000002,53.0,99.0
854,250.96589591666668,251.57342158333336,69.0,127.0
855,251.28847591666667,251.59089466666668,65.0,107.0
856,251.44976591666668,251.64062575000003,60.0,93.0
857,252.09492591666668,252.31266741666667,51.0,96.0
858,251.6110559166667,252.54116158333335,39.0,92.0
859,251.93363591666667,252.55863466666668,46.0,40.0
860,252.41750591666667,252.61508616666669,51.0,97.0
861,252.2562159166667,252.75083858333335,55.0,95.0
862,252.57879591666668,252.86642975,63.0,107.0
863,252.7400859166667,252.89196733333335,58.0,102.0
864,253.3852459166667,253.63390133333334,60.0,82.0
865,253.22395591666668,253.69169691666667,53.0,86.0
866,253.06266591666667,253.81669666666667,48.0,72.0
867,252.9013759166667,253.8691159166667,41.0,75.0
868,253.54653591666667,254.20513675,69.0,102.0
869,253.8691159166667,254.22260983333334,65.0,89.0
870,254.67556591666667,255.1634681666667,58.0,97.0
871,255.1594359166667,255.43900525,65.0,107.0
872,255.32072591666667,255.55325233333335,58.0,96.0
873,254.83685591666668,255.57072541666668,62.0,82.0
874,255.6433059166667,255.82475716666667,58.0,96.0
875,255.48201591666668,255.90136991666668,70.0,127.0
876,254.5142759166667,256.06803625000003,53.0,59.0
877,254.19169591666667,256.1150791666667,46.0,99.0
878,255.96588591666668,256.11911141666667,58.0,81.0
879,255.80459591666667,256.1338963333333,65.0,107.0
880,256.12717591666666,256.46319675,62.0,117.0
881,256.4497559166667,256.6594329166667,63.0,117.0
882,256.6110459166667,256.79652941666666,62.0,89.0
883,256.7723359166667,257.46857108333336,60.0,97.0
884,257.7400759166667,258.17824708333336,60.0,82.0
885,257.41749591666667,258.19437608333334,48.0,97.0
886,256.7723359166667,258.451096,36.0,81.0
887,257.0949159166667,258.4981389166667,43.0,61.0
888,258.0626559166667,258.6016333333333,67.0,127.0
889,258.38523591666666,258.757547,63.0,117.0
890,258.7078159166667,259.08550333333335,60.0,107.0
891,259.0303959166667,259.25351375,62.0,93.0
892,259.1916859166667,259.42286825,58.0,97.0
893,259.9981359166667,260.43093075,55.0,97.0
894,259.67555591666667,260.85162883333334,50.0,64.0
895,260.3207159166667,260.9255534166667,62.0,72.0
896,259.3529759166667,261.0693703333333,43.0,85.0
897,260.9658759166667,261.10297241666666,50.0,83.0
898,261.2884559166667,261.6688315,65.0,92.0
899,260.64329591666666,261.98065883333334,70.0,127.0
900,261.6110359166667,262.06533608333336,67.0,82.0
901,262.5787759166667,263.33415075,51.0,96.0
902,262.90135591666666,263.65269850000004,55.0,88.0
903,263.5465159166667,263.76963375,51.0,99.0
904,262.2561959166667,263.81802075,46.0,35.0
905,261.93361591666667,263.85834325,39.0,77.0
906,263.2239359166667,264.40672925,63.0,127.0
907,264.19167591666667,264.41210558333336,55.0,93.0
908,263.8690959166667,264.4537721666667,58.0,127.0
909,265.4819959166667,265.83952208333335,57.0,85.0
910,265.15941591666666,265.983339,50.0,97.0
911,265.8045759166667,266.1916719166667,66.0,117.0
912,264.5142559166667,266.42823058333335,38.0,96.0
913,264.8368359166667,266.49677883333334,45.0,72.0
914,265.8045759166667,266.531725,62.0,107.0
915,266.1271559166667,266.81532658333333,50.0,79.0
916,266.44973591666667,266.8247351666667,66.0,127.0
917,266.7723159166667,267.2037666666667,62.0,93.0
918,267.7400559166667,268.20779691666667,55.0,92.0
919,267.41747591666666,268.52500058333334,50.0,66.0
920,268.0626359166667,268.7440861666667,62.0,88.0
921,268.70779591666667,269.11774133333336,50.0,76.0
922,267.0948959166667,269.1217735833333,43.0,96.0
923,268.3852159166667,269.3408591666667,70.0,122.0
924,269.3529559166667,269.67822408333336,62.0,100.0
925,269.0303759166667,269.72661108333335,67.0,99.0
926,270.3206959166667,270.95241508333334,53.0,82.0
927,269.9981159166667,271.14596308333336,48.0,43.0
928,270.6432759166667,271.39596258333336,60.0,74.0
929,271.2884359166667,271.5075215,48.0,56.0
930,269.67553591666666,271.5505321666667,41.0,89.0
931,271.93359591666666,272.30321883333335,60.0,96.0
932,271.6110159166667,272.305907,65.0,100.0
933,270.96585591666667,272.31531558333336,69.0,122.0
934,272.5787559166667,273.40133491666666,46.0,38.0
935,272.2561759166667,273.40267900000003,39.0,86.0
936,272.9013359166667,273.4456896666667,51.0,89.0
937,273.22391591666667,273.467195,63.0,71.0
938,273.5464959166667,274.43896725,41.0,83.0
939,273.8690759166667,274.46316075000004,48.0,93.0
940,274.19165591666666,274.63385933333336,53.0,102.0
941,274.5142359166667,274.92821358333333,65.0,93.0
942,275.48197591666667,275.87982458333335,58.0,95.0
943,275.8045559166667,276.10831875,62.0,102.0
944,275.1593959166667,276.31799575,53.0,59.0
945,276.1271359166667,276.5075115,65.0,112.0
946,276.44971591666666,276.6755219166667,53.0,40.0
947,276.44971591666666,276.7561669166667,62.0,112.0
948,274.8368159166667,276.7749840833333,46.0,75.0
949,276.7722959166667,277.14998333333335,58.0,86.0
950,277.0948759166667,277.4913805,55.0,92.0
951,278.0626159166667,278.8851949166667,48.0,86.0
952,278.3851959166667,279.01153875,55.0,89.0
953,277.4174559166667,279.3408391666667,36.0,76.0
954,277.74003591666667,279.3610004166667,43.0,71.0
955,279.0303559166667,279.5101936666667,48.0,70.0
956,278.70777591666666,279.89728966666667,63.0,127.0
957,279.6755159166667,279.97121425,55.0,89.0
958,279.3529359166667,279.9913755,60.0,100.0
959,280.6432559166667,281.0881475,55.0,90.0
960,280.3206759166667,281.4429855,50.0,62.0
961,280.96583591666666,281.50615741666667,62.0,92.0
962,279.99809591666667,281.59621100000004,43.0,92.0
963,281.6109959166667,281.967178,67.0,89.0
964,281.9335759166667,282.33411275000003,62.0,92.0
965,281.2884159166667,282.4429835,70.0,127.0
966,282.25615591666667,282.63518741666667,67.0,92.0
967,283.22389591666666,284.0397545,51.0,95.0
968,283.5464759166667,284.29513033333336,55.0,82.0
969,284.1916359166667,284.55319433333335,51.0,93.0
970,282.9013159166667,284.5585706666667,46.0,62.0
971,282.5787359166667,284.64459200000005,39.0,82.0
972,284.8367959166667,285.1593759166667,55.0,90.0
973,284.51421591666667,285.1862575833334,58.0,122.0
974,283.8690559166667,285.18894575,63.0,127.0
975,285.8045359166667,286.6150181666667,50.0,96.0
976,286.1271159166667,286.6862545833333,62.0,95.0
977,285.1593759166667,287.09082366666667,38.0,99.0
978,285.48195591666666,287.16474825,45.0,78.0
979,287.0948559166667,287.51958625000003,66.0,127.0
980,286.44969591666666,287.5625969166667,69.0,107.0
981,286.7722759166667,287.6459300833333,50.0,102.0
982,287.4174359166667,287.81797275,62.0,107.0
983,288.3851759166667,288.83544383333333,55.0,97.0
984,288.70775591666666,289.18221733333337,62.0,90.0
985,288.0625959166667,289.1916259166667,50.0,85.0
986,289.3529159166667,289.7440441666667,50.0,96.0
987,287.74001591666666,289.81528058333333,43.0,93.0
988,289.0303359166667,290.3233440833333,70.0,127.0
989,289.99807591666666,290.35694616666666,62.0,97.0
990,289.6754959166667,290.3811396666667,67.0,96.0
991,290.96581591666666,291.38248175,53.0,95.0
992,291.2883959166667,291.76554550000003,60.0,95.0
993,290.6432359166667,291.84619050000003,48.0,85.0
994,291.9335559166667,292.23731875000004,48.0,74.0
995,290.3206559166667,292.24269508333333,41.0,89.0
996,292.25613591666666,292.8797905833334,65.0,102.0
997,292.5787159166667,292.8891991666667,60.0,95.0
998,291.6109759166667,292.90398408333334,69.0,102.0
999,292.9012959166667,293.80586400000004,39.0,93.0
1000,293.5464559166667,293.8367779166667,51.0,99.0
1001,293.22387591666666,293.8609714166667,46.0,97.0
1002,293.8690359166667,294.16473425000004,63.0,127.0
1003,294.1916159166667,295.0693023333333,41.0,81.0
1004,294.51419591666667,295.1714526666667,48.0,79.0
1005,294.8367759166667,295.2883879166667,53.0,97.0
1006,295.1593559166667,295.80317183333335,69.0,112.0
1007,296.4496759166667,296.82333108333336,62.0,90.0
1008,296.1270959166667,296.91472875,58.0,100.0
1009,297.0948359166667,297.3730611666667,58.0,92.0
1010,295.8045159166667,297.39859875,53.0,72.0
1011,296.77225591666667,297.47117925000003,65.0,117.0
1012,295.48193591666666,297.5168780833333,46.0,58.0
1013,297.4174159166667,297.92010308333334,62.0,99.0
1014,297.73999591666666,298.0854253333334,65.0,107.0
1015,299.03031591666667,299.4416054166667,60.0,90.0
1016,298.7077359166667,299.52090633333336,48.0,93.0
1017,298.3851559166667,299.97655058333333,43.0,54.0
1018,298.0625759166667,299.97789466666666,36.0,90.0
1019,299.6754759166667,300.20638883333334,48.0,89.0
1020,299.99805591666666,300.44832383333335,63.0,117.0
1021,299.3528959166667,300.48864633333335,67.0,117.0
1022,300.3206359166667,300.81122633333337,62.0,93.0
1023,301.28837591666667,301.8434823333333,55.0,96.0
1024,300.9657959166667,302.1351484166667,50.0,79.0
1025,301.6109559166667,302.1418688333334,62.0,93.0
1026,302.25611591666666,302.5612228333334,50.0,77.0
1027,300.6432159166667,302.5746636666667,43.0,90.0
1028,302.5786959166667,303.0222434166667,67.0,99.0
1029,302.9012759166667,303.19831833333336,62.0,96.0
1030,301.9335359166667,303.26149025,70.0,127.0
1031,304.1915959166667,304.6096058333334,63.0,97.0
1032,303.8690159166667,304.63648750000004,51.0,92.0
1033,304.8367559166667,305.09481991666667,51.0,88.0
1034,303.54643591666667,305.1230456666667,46.0,34.0
1035,304.51417591666666,305.26551850000004,70.0,127.0
1036,303.2238559166667,305.2682066666667,39.0,83.0
1037,305.4819159166667,305.80718408333337,70.0,102.0
1038,305.1593359166667,305.82465716666667,63.0,99.0
1039,305.80449591666667,307.79105108333334,38.0,83.0
1040,306.1270759166667,307.79508333333337,45.0,42.0
1041,307.0948159166667,307.9765345833334,69.0,107.0
1042,306.4496559166667,307.9940076666667,50.0,90.0
1043,307.7399759166667,308.01282483333335,66.0,95.0
1044,306.77223591666666,308.10556658333337,62.0,81.0
1045,308.40260900000004,310.00341225,66.0,96.0
1046,308.40664125,310.047767,38.0,59.0
1047,308.3958885833334,310.06120783333336,45.0,79.0
1048,308.39992083333334,310.22115375000004,62.0,96.0
1049,308.40260900000004,310.25341175,50.0,89.0
1050,308.39857675,310.3945405,57.0,89.0
1051,313.26953475,313.85689916666666,55.0,72.0
1052,313.192922,313.91603883333335,59.0,69.0
1053,313.1189974166667,313.96039358333337,62.0,72.0
1054,315.85420700000003,317.5719455,79.0,65.0
1055,315.25340175,317.8488266666667,74.0,51.0
1056,314.4778656666667,318.0974820833334,67.0,60.0
1057,314.8286714166667,318.10957883333333,71.0,64.0
1058,313.82598525000003,318.1875356666667,50.0,58.0
1059,314.14587708333335,318.19022383333333,55.0,66.0
1060,313.22518,318.23457858333336,43.0,81.0
