,start,end,pitch,velocity
0,32.740179708333336,32.86885611458334,69.0,102.0
1,33.034297208333335,33.31493432291667,69.0,102.0
2,33.328414708333334,33.632336125,71.0,112.0
3,33.62253220833333,34.03184572916667,73.0,122.0
4,34.21076720833334,34.9191001875,73.0,127.0
5,35.09311970833333,35.199737302083335,69.0,99.0
6,35.38723720833334,35.61640376041667,69.0,102.0
7,35.68135470833334,35.786746812500006,71.0,97.0
8,35.975472208333336,36.07596235416667,73.0,127.0
9,36.269589708333335,36.734050260416666,73.0,112.0
10,37.15194220833334,37.29287351041667,69.0,97.0
11,37.44605970833334,37.72179486458334,69.0,117.0
12,38.034294708333334,38.438706270833336,69.0,96.0
13,38.62252970833334,39.058804,66.0,102.0
14,39.504882208333335,39.71076445833334,71.0,95.0
15,39.798999708333334,40.207087739583336,73.0,117.0
16,40.38723470833334,40.5220385625,73.0,96.0
17,40.68135220833334,40.89091092708334,73.0,102.0
18,40.975469708333335,41.93747903125,64.0,100.0
19,42.15193970833334,42.29899845833334,69.0,92.0
20,42.446057208333336,42.702184531250005,71.0,102.0
21,42.740174708333335,43.07963532291667,69.0,81.0
22,43.03429220833333,43.34066460416667,73.0,117.0
23,43.62252720833334,44.460762083333336,73.0,112.0
24,44.504879708333334,44.58453653125,69.0,92.0
25,44.79899720833334,45.07350687500001,69.0,97.0
26,45.09311470833334,45.207085239583336,71.0,96.0
27,45.38723220833334,45.47669294791667,73.0,122.0
28,45.681349708333336,46.41786894791667,73.0,112.0
29,46.56370220833334,46.64335903125,69.0,97.0
30,46.85781970833334,47.21321168750001,69.0,99.0
31,47.446054708333335,47.628652656250004,66.0,99.0
32,47.740172208333334,47.88845644791667,73.0,122.0
33,48.32840720833334,48.977916687500006,71.0,102.0
34,48.916642208333336,48.977916687500006,71.0,93.0
35,49.210759708333335,49.35659296875,71.0,88.0
36,49.50487720833334,49.72791631250001,73.0,117.0
37,49.79899470833334,49.92889660416667,71.0,83.0
38,50.09311220833334,50.22546508333334,71.0,107.0
39,50.38722970833334,52.12987589583334,69.0,93.0
40,55.681344708333334,55.794089750000005,71.0,86.0
41,55.97546220833334,56.10658959375,71.0,83.0
42,56.26957970833334,56.38722670833334,71.0,93.0
43,56.56369720833334,56.71075595833334,71.0,97.0
44,56.857814708333336,57.20217728125,73.0,122.0
45,57.44604970833334,58.17153954166667,71.0,102.0
46,58.03428470833334,58.17153954166667,71.0,95.0
47,58.32840220833334,58.465657041666674,71.0,99.0
48,58.622519708333336,58.75242160416667,71.0,97.0
49,58.916637208333334,59.07227438541667,71.0,107.0
50,59.21075470833334,59.544087875,73.0,127.0
51,59.79898970833334,60.12987189583334,71.0,117.0
52,60.68134220833334,60.883547989583334,78.0,122.0
53,60.97545970833334,61.095557687500005,76.0,97.0
54,61.26957720833334,61.374969312500006,76.0,112.0
55,61.56369470833334,61.69237111458334,76.0,127.0
56,62.15192970833334,62.290410031250005,73.0,112.0
57,62.44604720833334,62.64580201041667,71.0,96.0
58,62.74016470833334,63.03918416666667,71.0,107.0
59,63.328399708333336,64.1837914375,73.0,122.0
60,65.09310470833334,65.20830072916667,71.0,81.0
61,65.38722220833334,65.53428095833334,71.0,82.0
62,65.68133970833334,65.80388866666667,71.0,86.0
63,65.97545720833334,66.1543786875,71.0,93.0
64,66.26957470833334,66.64089805208334,73.0,102.0
65,66.85780970833333,67.16540759375,71.0,100.0
66,67.44604470833333,67.53918191666668,71.0,96.0
67,67.74016220833335,67.83697588541668,71.0,89.0
68,68.03427970833334,68.13109338541668,71.0,86.0
69,68.32839720833334,68.49874026041667,71.0,99.0
70,68.62251470833334,68.97545570833334,73.0,102.0
71,69.21074970833334,70.1984943125,76.0,107.0
72,70.09310220833333,70.32839620833334,78.0,117.0
73,70.38721970833333,70.53305296875,76.0,93.0
74,70.68133720833333,70.80511165625,76.0,93.0
75,70.97545470833334,71.10045464583334,76.0,100.0
76,71.56368970833334,71.83697388541667,73.0,112.0
77,71.85780720833334,72.1396698125,78.0,112.0
78,72.44604220833334,72.94604195833334,78.0,127.0
79,73.03427720833334,74.61025681250001,76.0,107.0
80,76.85780470833333,77.00976541666667,73.0,92.0
81,77.15192220833335,77.34922603125001,73.0,99.0
82,77.44603970833334,77.59554943750001,71.0,89.0
83,77.74015720833334,77.9190786875,73.0,102.0
84,78.03427470833334,78.48770585416668,78.0,112.0
85,78.62250970833334,78.92275465625,76.0,100.0
86,79.21074470833334,79.29897995833333,76.0,90.0
87,79.50486220833334,79.67765623958334,76.0,102.0
88,79.79897970833333,80.01344038541667,74.0,99.0
89,80.09309720833333,80.30755788541667,73.0,117.0
90,80.38721470833335,80.70339102083334,74.0,107.0
91,80.97544970833334,81.62128271875001,73.0,122.0
92,81.85780220833334,82.07961582291668,73.0,127.0
93,82.15191970833334,82.25363534375,71.0,85.0
94,82.44603720833334,82.62495868750001,71.0,97.0
95,82.74015470833334,83.06736042708334,73.0,117.0
96,83.32838970833333,83.50976216666668,71.0,102.0
97,83.62250720833335,83.98035016666667,69.0,107.0
98,84.21074220833334,84.51221264583334,78.0,127.0
99,84.79897720833334,84.95461438541668,76.0,127.0
100,85.09309470833334,85.27446716666667,78.0,117.0
101,85.38721220833334,85.4926043125,76.0,107.0
102,85.68132970833334,86.30387841666668,73.0,117.0
103,86.85779970833335,86.94113300000001,73.0,127.0
104,87.15191720833334,87.26833871875,73.0,122.0
105,87.44603470833334,87.55387779166668,71.0,97.0
106,87.74015220833334,87.81858354166667,73.0,127.0
107,88.03426970833334,88.42397539583334,78.0,112.0
108,88.62250470833334,89.00363196875,76.0,127.0
109,89.21073970833334,89.33328866666668,76.0,109.0
110,89.50485720833333,89.72299435416667,76.0,112.0
111,89.79897470833333,89.92397464583334,74.0,102.0
112,90.09309220833335,90.21073920833334,73.0,117.0
113,90.38720970833334,90.56368020833334,74.0,102.0
114,90.68132720833334,91.04529761458333,73.0,127.0
115,91.85779720833334,91.97666969791668,73.0,127.0
116,92.15191470833334,92.24137544791667,71.0,93.0
117,92.44603220833334,92.58696351041668,71.0,93.0
118,92.74014970833333,92.89946335416667,73.0,117.0
119,93.03426720833335,93.31490432291668,71.0,99.0
120,93.32838470833335,93.75485508333334,73.0,100.0
121,94.21073720833334,94.34921753125,71.0,99.0
122,94.50485470833334,94.74505066666667,66.0,107.0
123,94.79897220833334,96.57103014583333,69.0,107.0
124,96.56367720833335,96.83941236458334,71.0,99.0
125,96.85779470833334,97.24382392708334,73.0,117.0
126,97.74014720833334,98.08941173958334,73.0,117.0
127,98.18132345833334,100.1102440625,69.0,95.0
128,112.15190470833335,112.26464975,71.0,86.0
129,112.44602220833335,112.57714959375001,71.0,83.0
130,112.74013970833334,112.85778670833334,71.0,93.0
131,113.03425720833334,113.18131595833334,71.0,97.0
132,113.32837470833334,113.67273728125001,73.0,122.0
133,113.91660970833334,114.64209954166668,71.0,102.0
134,114.50484470833334,114.64209954166668,71.0,95.0
135,114.79896220833334,114.93621704166668,71.0,99.0
136,115.09307970833333,115.22298160416668,71.0,97.0
137,115.38719720833335,115.54283438541667,71.0,107.0
138,115.68131470833335,116.01464787500001,73.0,127.0
139,116.26954970833334,116.60043189583334,71.0,117.0
140,117.15190220833334,117.35410798958334,78.0,122.0
141,117.44601970833334,117.56611768750001,76.0,97.0
142,117.74013720833334,117.8455293125,76.0,112.0
143,118.03425470833334,118.16293111458334,76.0,127.0
144,118.62248970833335,118.76097003125001,73.0,112.0
145,118.91660720833335,119.11636201041668,71.0,96.0
146,119.21072470833334,119.50974416666668,71.0,107.0
147,119.79895970833334,120.65435143750001,73.0,122.0
148,121.56366470833335,121.67886072916667,71.0,81.0
149,121.85778220833335,122.00484095833335,71.0,82.0
150,122.15189970833335,122.27444866666667,71.0,86.0
151,122.44601720833334,122.6249386875,71.0,93.0
152,122.74013470833334,123.11145805208334,73.0,102.0
153,123.32836970833334,123.63596759375001,71.0,100.0
154,123.91660470833334,124.00974191666667,71.0,96.0
155,124.21072220833334,124.30753588541667,71.0,89.0
156,124.50483970833334,124.60165338541668,71.0,86.0
157,124.79895720833335,124.96930026041667,71.0,99.0
158,125.09307470833335,125.44601570833335,73.0,102.0
159,125.68130970833334,126.66905431250001,76.0,107.0
160,126.56366220833334,126.79895620833334,78.0,117.0
161,126.85777970833334,127.00361296875,76.0,93.0
162,127.15189720833334,127.27567165625001,76.0,93.0
163,127.44601470833334,127.57101464583334,76.0,100.0
164,128.03424970833333,128.3075338854167,73.0,112.0
165,128.32836720833333,128.61022981250002,78.0,112.0
166,128.91660220833333,129.41660195833333,78.0,127.0
167,129.50483720833336,131.08081681250002,76.0,107.0
168,133.32836470833334,133.4803254166667,73.0,92.0
169,133.62248220833334,133.81978603125,73.0,99.0
170,133.91659970833334,134.06610943750002,71.0,89.0
171,134.21071720833334,134.3896386875,73.0,102.0
172,134.50483470833333,134.95826585416668,78.0,112.0
173,135.09306970833333,135.39331465625,76.0,100.0
174,135.68130470833336,135.76953995833335,76.0,90.0
175,135.97542220833336,136.14821623958335,76.0,102.0
176,136.26953970833335,136.48400038541666,74.0,99.0
177,136.56365720833335,136.77811788541666,73.0,117.0
178,136.85777470833335,137.17395102083336,74.0,107.0
179,137.44600970833335,138.09184271875,73.0,122.0
180,138.32836220833335,138.55017582291669,73.0,127.0
181,138.62247970833334,138.72419534375,71.0,85.0
182,138.91659720833334,139.0955186875,71.0,97.0
183,139.21071470833334,139.53792042708335,73.0,117.0
184,139.79894970833334,139.98032216666667,71.0,102.0
185,140.09306720833334,140.4509101666667,69.0,107.0
186,140.68130220833334,140.98277264583334,78.0,127.0
187,141.26953720833333,141.42517438541668,76.0,127.0
188,141.56365470833333,141.7450271666667,78.0,117.0
189,141.85777220833333,141.9631643125,76.0,107.0
190,142.15188970833336,142.77443841666667,73.0,117.0
191,143.32835970833335,143.411693,73.0,127.0
192,143.62247720833335,143.73889871875002,73.0,122.0
193,143.91659470833335,144.02443779166668,71.0,97.0
194,144.21071220833335,144.28914354166668,73.0,127.0
195,144.50482970833335,144.89453539583334,78.0,112.0
196,145.09306470833334,145.47419196875,76.0,127.0
197,145.53424095833336,145.65678991666667,76.0,73.0
198,145.82835845833335,146.04649560416667,76.0,112.0
199,146.26953470833334,146.39453464583335,74.0,102.0
200,146.56365220833334,146.68129920833334,73.0,117.0
201,146.85776970833334,147.03424020833336,74.0,102.0
202,147.15188720833333,147.51585761458335,73.0,127.0
203,148.32835720833336,148.44722969791667,73.0,127.0
204,148.62247470833336,148.7119354479167,71.0,93.0
205,148.91659220833336,149.05752351041667,71.0,93.0
206,149.21070970833335,149.37002335416668,73.0,117.0
207,149.50482720833335,149.78546432291668,71.0,99.0
208,149.79894470833335,150.22541508333333,73.0,100.0
209,150.68129720833335,150.81977753125,71.0,99.0
210,150.97541470833335,151.2156106666667,66.0,107.0
211,151.26953220833335,153.04159014583334,69.0,107.0
212,153.03423720833334,153.30997236458333,71.0,99.0
213,153.32835470833334,153.71438392708333,73.0,117.0
214,154.21070720833333,154.55997173958335,73.0,117.0
215,154.65188345833334,156.58080406250002,69.0,95.0
216,168.62246470833335,168.77442541666667,74.0,92.0
217,168.91658220833335,169.11388603125002,74.0,99.0
218,169.21069970833335,169.3602094375,72.0,89.0
219,169.50481720833335,169.6837386875,74.0,102.0
220,169.79893470833335,170.25236585416667,79.0,112.0
221,170.38716970833335,170.68741465625,77.0,100.0
222,170.97540470833334,171.06363995833334,77.0,90.0
223,171.26952220833334,171.44231623958333,77.0,102.0
224,171.56363970833334,171.77810038541668,75.0,99.0
225,171.85775720833334,172.07221788541668,74.0,117.0
226,172.15187470833334,172.46805102083334,75.0,107.0
227,172.74010970833334,173.38594271875002,74.0,122.0
228,173.62246220833336,173.84427582291667,74.0,127.0
229,173.91657970833336,174.01829534375003,72.0,85.0
230,174.21069720833336,174.38961868750002,72.0,97.0
231,174.50481470833336,174.83202042708334,74.0,117.0
232,175.09304970833335,175.27442216666668,72.0,102.0
233,175.38716720833335,175.74501016666667,70.0,107.0
234,175.97540220833335,176.27687264583335,79.0,127.0
235,176.56363720833335,176.71927438541667,77.0,127.0
236,176.85775470833335,177.03912716666667,79.0,117.0
237,177.15187220833334,177.2572643125,77.0,107.0
238,177.44598970833334,178.06853841666668,74.0,117.0
239,178.62245970833334,178.705793,74.0,127.0
240,178.91657720833334,179.03299871875,74.0,122.0
241,179.21069470833334,179.31853779166667,72.0,97.0
242,179.50481220833333,179.5832435416667,74.0,127.0
243,179.79892970833333,180.18863539583336,79.0,112.0
244,180.38716470833336,180.76829196875002,77.0,127.0
245,180.82834095833334,180.95088991666668,77.0,73.0
246,181.12245845833334,181.34059560416668,77.0,112.0
247,181.56363470833335,181.68863464583336,75.0,102.0
248,181.85775220833335,181.97539920833336,74.0,117.0
249,182.15186970833335,182.32834020833334,75.0,102.0
250,182.44598720833335,182.80995761458334,74.0,127.0
251,183.62245720833334,183.74132969791668,74.0,127.0
252,183.91657470833334,184.00603544791667,72.0,93.0
253,184.21069220833334,184.3516235104167,72.0,93.0
254,184.50480970833334,184.6641233541667,74.0,117.0
255,184.79892720833334,185.07956432291667,72.0,99.0
256,185.09304470833334,185.51951508333335,74.0,100.0
257,185.97539720833333,186.11387753125,72.0,99.0
258,186.26951470833336,186.50971066666668,67.0,107.0
259,186.56363220833336,188.33569014583335,70.0,107.0
260,188.32833720833335,188.60407236458335,72.0,99.0
261,188.62245470833335,189.00848392708335,74.0,117.0
262,189.50480720833335,189.85407173958336,74.0,117.0
263,190.09304220833334,192.02196281250002,70.0,95.0
