,start,end,pitch,velocity
0,1.8578422083333335,8.203427270833334,52.0,61.0
1,1.8578422083333335,8.229162552083334,61.0,53.0
2,1.8578422083333335,8.23161353125,57.0,59.0
3,1.8578422083333335,8.234064510416667,45.0,73.0
4,8.328427208333334,12.878670031250001,52.0,69.0
5,8.328427208333334,12.890924927083335,61.0,64.0
6,8.328427208333334,12.895826885416668,57.0,71.0
7,8.328427208333334,12.899503354166667,45.0,82.0
8,13.034307208333335,17.63111863541667,45.0,69.0
9,13.034307208333335,17.63111863541667,52.0,81.0
10,13.034307208333335,17.6396970625,61.0,83.0
11,13.034307208333335,17.643373531250003,57.0,85.0
12,17.740187208333335,19.942391989583335,52.0,76.0
13,17.740187208333335,19.95464688541667,61.0,75.0
14,17.740187208333335,19.95832335416667,57.0,79.0
15,17.740187208333335,19.970578250000003,45.0,63.0
16,20.093127208333335,22.4926358125,52.0,82.0
17,20.093127208333335,22.49998875,57.0,76.0
18,20.093127208333335,22.501214239583334,45.0,71.0
19,22.446067208333336,22.501214239583334,45.0,86.0
20,20.093127208333335,22.504890708333335,61.0,73.0
21,23.034302208333337,23.81861554166667,52.0,66.0
22,23.622537208333334,24.159301645833335,64.0,100.0
23,23.622537208333334,24.161752625000002,61.0,127.0
24,24.799007208333336,25.52082057291667,52.0,81.0
25,24.799007208333336,25.59189896875,56.0,89.0
26,24.799007208333336,25.677683239583335,59.0,82.0
27,24.799007208333336,26.050232072916668,40.0,72.0
28,25.975477208333334,26.56493769791667,59.0,85.0
29,25.975477208333334,26.593123958333337,56.0,102.0
30,26.563712208333335,27.185035427083335,52.0,62.0
31,27.151947208333336,27.357829458333335,54.0,92.0
32,27.151947208333336,27.441162750000004,57.0,77.0
33,28.328417208333335,29.279397125000003,50.0,42.0
34,27.151947208333336,29.306357895833337,38.0,66.0
35,28.328417208333335,29.37130884375,66.0,99.0
36,27.740182208333334,29.379887270833336,45.0,37.0
37,28.328417208333335,29.382338250000004,62.0,97.0
38,29.504887208333336,30.70831797916667,50.0,50.0
39,29.504887208333336,30.769592458333335,45.0,48.0
40,29.504887208333336,30.78552382291667,38.0,58.0
41,29.504887208333336,30.81861204166667,57.0,77.0
42,29.504887208333336,30.82719046875,62.0,90.0
43,29.504887208333336,30.835768895833336,66.0,93.0
44,32.740179708333336,32.992630562500004,59.0,72.0
45,32.44606220833334,33.13601284375,57.0,66.0
46,31.857827208333337,34.03919866666667,45.0,76.0
47,32.15194470833334,34.235277,52.0,73.0
48,33.91664970833334,34.64581601041667,59.0,45.0
49,33.034297208333335,34.66052188541667,64.0,88.0
50,34.799002208333334,35.420325427083334,57.0,64.0
51,34.504884708333336,35.564933197916666,52.0,57.0
52,34.21076720833334,35.84434482291667,45.0,75.0
53,35.38723720833334,36.014687875,61.0,95.0
54,35.09311970833333,36.044099625,64.0,1.0
55,35.09311970833333,36.05758001041667,59.0,74.0
56,36.563707208333334,37.493853802083336,38.0,79.0
57,37.15194220833334,37.813706583333335,50.0,79.0
58,37.740177208333336,37.85659871875,38.0,36.0
59,36.85782470833334,37.85904969791667,45.0,41.0
60,37.44605970833334,38.935029552083336,57.0,82.0
61,39.504882208333335,39.883558489583336,52.0,55.0
62,39.210764708333336,40.29532298958333,47.0,55.0
63,38.91664720833334,40.33576414583334,40.0,74.0
64,39.798999708333334,41.196057833333334,59.0,92.0
65,40.38723470833334,41.199734302083336,56.0,85.0
66,40.975469708333335,41.205861750000004,52.0,73.0
67,42.15193970833334,42.525714031250004,59.0,82.0
68,41.85782220833334,42.61272379166667,57.0,88.0
69,41.269587208333334,43.49385080208334,45.0,59.0
70,41.56370470833333,43.666644833333336,52.0,40.0
71,42.446057208333336,43.72179186458334,61.0,100.0
72,44.210762208333335,44.79899720833334,59.0,86.0
73,43.32840970833334,44.899487354166666,57.0,39.0
74,44.504879708333334,44.94973242708333,61.0,92.0
75,43.91664470833334,45.59433994791667,52.0,70.0
76,43.62252720833334,45.81860454166667,45.0,72.0
77,45.38723220833334,45.92032017708333,61.0,73.0
78,44.79899720833334,45.92277115625,64.0,88.0
79,46.26958470833333,47.19360385416667,57.0,56.0
80,45.975467208333335,47.490172333333334,50.0,67.0
81,46.85781970833334,48.25120136458334,62.0,63.0
82,46.56370220833334,48.253652343750005,66.0,102.0
83,48.916642208333336,49.42154391666667,52.0,79.0
84,49.210759708333335,49.551445812500006,56.0,102.0
85,48.62252470833334,49.66051438541667,47.0,50.0
86,49.50487720833334,49.97546520833334,59.0,95.0
87,48.32840720833334,50.11272004166667,40.0,72.0
88,49.79899470833334,50.17154354166667,47.0,53.0
89,50.09311220833334,50.681347208333335,59.0,90.0
90,51.26958220833334,51.959532843750004,57.0,59.0
91,50.681347208333335,52.78918929166667,45.0,95.0
92,50.975464708333334,52.9926205625,52.0,60.0
93,51.85781720833334,53.97546320833334,64.0,89.0
94,51.85781720833334,53.98894359375,61.0,107.0
95,53.622522208333336,54.37742379166667,52.0,32.0
96,53.03428720833334,54.38477672916667,45.0,74.0
97,54.210757208333334,54.71688440625,61.0,117.0
98,54.210757208333334,54.73281577083334,64.0,95.0
99,55.387227208333336,56.104138614583334,62.0,107.0
100,55.387227208333336,56.12252095833334,66.0,112.0
101,55.387227208333336,56.34678555208334,59.0,90.0
102,55.97546220833334,56.65928539583334,54.0,44.0
103,55.387227208333336,56.70953046875,47.0,72.0
104,56.56369720833334,57.13109888541667,66.0,107.0
105,56.56369720833334,57.14457927083334,62.0,90.0
106,57.151932208333335,57.264677250000005,59.0,56.0
107,58.32840220833334,58.92766661458334,61.0,67.0
108,57.74016720833334,59.14825473958334,49.0,89.0
109,58.916637208333334,59.231588031250006,64.0,85.0
110,58.916637208333334,59.308793875000006,68.0,99.0
111,60.093107208333336,60.97545970833334,66.0,99.0
112,60.093107208333336,61.00242047916667,62.0,93.0
113,60.093107208333336,61.09433219791667,57.0,92.0
114,60.093107208333336,61.409283020833335,50.0,66.0
115,61.26957720833334,61.84065535416667,62.0,99.0
116,61.26957720833334,61.89825336458334,66.0,102.0
117,61.857812208333335,62.6837921875,59.0,72.0
118,63.03428220833334,63.41295848958334,57.0,83.0
119,62.74016470833334,63.76589948958334,52.0,69.0
120,62.44604720833334,64.13722283333334,45.0,69.0
121,63.91663470833334,64.22913455208334,52.0,56.0
122,63.328399708333336,64.24138944791667,61.0,117.0
123,63.328399708333336,64.25609532291666,64.0,96.0
124,64.21075220833333,64.34678155208334,57.0,77.0
125,64.79898720833334,65.26467325,59.0,79.0
126,64.79898720833334,65.47545745833334,62.0,82.0
127,64.79898720833334,65.53918291666668,66.0,86.0
128,65.38722220833334,66.07839833333334,59.0,46.0
129,65.09310470833334,66.23035904166667,54.0,64.0
130,64.79898720833334,66.48893734375001,47.0,71.0
131,66.26957470833334,66.51099615625,54.0,50.0
132,65.97545720833334,66.54285888541668,62.0,81.0
133,65.97545720833334,66.57962357291667,66.0,88.0
134,67.15192720833333,68.09065222916666,68.0,88.0
135,67.15192720833333,68.13476985416668,64.0,74.0
136,67.15192720833333,68.13599534375001,61.0,95.0
137,67.15192720833333,68.47300497916667,49.0,53.0
138,68.62251470833334,68.8014361875,49.0,54.0
139,68.32839720833334,68.8602596875,64.0,86.0
140,68.32839720833334,68.89334790625,68.0,100.0
141,68.91663220833334,69.00854392708334,61.0,76.0
142,69.50486720833334,70.46810202083334,62.0,96.0
143,69.50486720833334,70.48893534375,66.0,93.0
144,69.50486720833334,70.50119023958334,57.0,88.0
145,69.50486720833334,70.9337880625,50.0,72.0
146,70.68133720833333,71.08329779166667,57.0,74.0
147,70.68133720833333,71.19481734375,66.0,100.0
148,70.68133720833333,71.52202306250001,62.0,99.0
149,71.56368970833334,71.62128771875001,68.0,29.0
150,71.85780720833334,72.03917966666667,64.0,99.0
151,71.85780720833334,72.04163064583334,68.0,102.0
152,71.85780720833334,72.17275803125001,59.0,85.0
153,72.44604220833334,73.05511053125001,52.0,99.0
154,72.15192470833334,73.20584575000001,47.0,53.0
155,73.03427720833334,73.44604170833334,56.0,127.0
156,73.03427720833334,73.45094366666667,59.0,100.0
157,73.62251220833333,74.03060023958334,56.0,112.0
158,73.62251220833333,74.03305121875,59.0,95.0
159,71.85780720833334,74.08819825,40.0,74.0
160,73.32839470833333,74.09800216666667,47.0,96.0
161,74.21074720833334,75.42765836458334,52.0,102.0
162,74.21074720833334,75.43746228125,56.0,122.0
163,74.21074720833334,75.43991326041667,47.0,72.0
164,74.21074720833334,75.44113875000001,59.0,99.0
165,74.21074720833334,75.45952109375,40.0,89.0
166,76.56368720833333,77.23770647916668,61.0,127.0
167,76.56368720833333,77.24751039583334,64.0,99.0
168,76.56368720833333,77.31368683333334,33.0,93.0
169,76.56368720833333,77.43623579166668,57.0,112.0
170,77.15192220833335,77.81858854166667,52.0,59.0
171,77.74015720833334,77.97912767708334,57.0,102.0
172,78.03427470833334,78.3602549375,52.0,74.0
173,77.74015720833334,78.3602549375,61.0,127.0
174,76.56368720833333,78.367607875,45.0,96.0
175,77.74015720833334,78.43746078125001,64.0,100.0
176,77.44603970833334,78.44971567708333,33.0,98.0
177,78.32839220833334,78.55020582291667,57.0,97.0
178,78.62250970833334,78.86148017708334,33.0,111.0
179,78.91662720833334,78.97912717708334,44.0,75.0
180,78.91662720833334,79.24873488541667,32.0,112.0
181,79.21074470833334,79.24873488541667,32.0,86.0
182,78.91662720833334,79.81736205208334,64.0,92.0
183,78.91662720833334,79.97667569791668,61.0,102.0
184,78.91662720833334,79.98280314583334,56.0,100.0
185,80.09309720833333,80.37128334375001,56.0,107.0
186,79.21074470833334,80.38598921875001,44.0,37.0
187,80.38721470833335,80.66417535416667,44.0,81.0
188,80.09309720833333,80.691136125,61.0,122.0
189,79.79897970833333,80.897018375,32.0,114.0
190,80.09309720833333,80.9043713125,64.0,99.0
191,80.68133220833334,80.95093991666667,56.0,90.0
192,80.97544970833334,81.15682216666667,32.0,93.0
193,81.26956720833334,81.602900375,30.0,104.0
194,81.71074345833334,81.83206692708335,30.0,81.0
195,81.26956720833334,82.02569428125001,57.0,95.0
196,81.26956720833334,82.10412561458334,61.0,122.0
197,81.26956720833334,82.22790006250001,66.0,99.0
198,81.85780220833334,82.48647836458333,54.0,69.0
199,82.74015470833334,82.91539971875001,54.0,96.0
200,81.26956720833334,82.98402713541667,42.0,96.0
201,82.44603720833334,83.11638001041668,66.0,122.0
202,82.15191970833334,83.14824273958334,30.0,108.0
203,82.44603720833334,83.16172312500001,61.0,127.0
204,83.03427220833333,83.37986027083333,57.0,73.0
205,83.32838970833333,83.57593860416667,30.0,81.0
206,83.62250720833335,84.25976179166668,62.0,122.0
207,83.62250720833335,84.32103627083335,66.0,117.0
208,83.62250720833335,84.35780095833334,38.0,117.0
209,83.62250720833335,84.44481071875,50.0,92.0
210,83.62250720833335,84.44603620833334,57.0,96.0
211,84.50485970833334,84.7426046875,38.0,120.0
212,84.79897720833334,85.43255532291667,68.0,127.0
213,84.79897720833334,85.43500630208334,52.0,99.0
214,84.79897720833334,85.43623179166667,64.0,112.0
215,84.79897720833334,85.56123172916668,59.0,107.0
216,84.79897720833334,85.56613368750001,40.0,114.0
217,85.68132970833334,85.89824136458334,40.0,111.0
218,85.97544720833334,86.46564304166667,61.0,127.0
219,85.97544720833334,86.67887822916667,33.0,100.0
220,85.97544720833334,86.69603508333334,57.0,102.0
221,85.97544720833334,86.73279977083334,64.0,97.0
222,86.56368220833333,87.17397602083334,52.0,52.0
223,86.85779970833335,87.23279952083334,57.0,82.0
224,87.44603470833334,87.70461301041668,52.0,74.0
225,85.97544720833334,87.74260318750001,45.0,78.0
226,87.15191720833334,87.76588748958333,61.0,117.0
227,87.15191720833334,87.82471098958334,64.0,99.0
228,86.85779970833335,87.89824036458334,33.0,95.0
229,87.74015220833334,88.02324030208334,57.0,96.0
230,88.03426970833334,88.24015195833334,33.0,104.0
231,88.32838720833334,89.03917116666668,32.0,114.0
232,88.32838720833334,89.07593585416667,64.0,90.0
233,88.32838720833334,89.18745540625001,56.0,112.0
234,88.32838720833334,89.35044552083335,61.0,100.0
235,88.32838720833334,89.64333753125001,44.0,89.0
236,89.50485720833333,89.92397464583334,56.0,99.0
237,89.50485720833333,89.93132758333334,61.0,127.0
238,89.79897470833333,90.00853342708334,44.0,89.0
239,89.21073970833334,90.21564116666667,32.0,114.0
240,89.50485720833333,90.24382742708335,64.0,97.0
241,90.09309220833335,90.56122922916667,61.0,127.0
242,90.38720970833334,90.59676842708333,32.0,114.0
243,90.68132720833334,91.367601375,57.0,89.0
244,90.68132720833334,91.41416997916667,30.0,114.0
245,90.68132720833334,91.647013,66.0,93.0
246,90.68132720833334,91.65804240625,61.0,96.0
247,91.26956220833334,91.92274815625001,54.0,59.0
248,91.56367970833334,91.96441480208334,57.0,61.0
249,92.15191470833334,92.31858129166667,54.0,78.0
250,90.68132720833334,92.33451265625001,42.0,89.0
251,91.85779720833334,92.50485570833334,61.0,107.0
252,91.56367970833334,92.54652235416667,30.0,114.0
253,91.85779720833334,92.76588498958334,66.0,107.0
254,92.44603220833334,92.89211041666667,57.0,92.0
255,92.74014970833333,92.93745353125,61.0,100.0
256,92.74014970833333,92.95215940625,30.0,108.0
257,93.03426720833335,93.72789431250001,57.0,89.0
258,93.03426720833335,93.74382567708334,38.0,120.0
259,93.03426720833335,94.03794317708333,66.0,107.0
260,93.03426720833335,94.044070625,62.0,107.0
261,93.62250220833334,94.31245284375001,50.0,74.0
262,93.91661970833334,94.32838420833335,57.0,42.0
263,94.50485470833334,94.73402126041667,50.0,70.0
264,94.21073720833334,94.90804078125001,62.0,99.0
265,93.91661970833334,94.98034466666667,38.0,121.0
266,94.21073720833334,95.15558967708334,66.0,102.0
267,94.79897220833334,95.22666807291667,57.0,60.0
268,95.09308970833334,95.25485433333334,38.0,93.0
269,95.38720720833334,99.65558742708335,50.0,61.0
270,95.38720720833334,99.65558742708335,66.0,83.0
271,93.32838470833335,99.66416585416667,45.0,37.0
272,95.38720720833334,99.66661683333334,62.0,85.0
273,95.38720720833334,99.69235211458334,57.0,72.0
274,95.38720720833334,99.71686190625,38.0,42.0
275,100.09308720833334,100.79774371875001,28.0,108.0
276,100.09308720833334,101.13352786458334,68.0,112.0
277,100.09308720833334,101.13842982291668,59.0,100.0
278,100.09308720833334,101.14088080208334,64.0,117.0
279,100.09308720833334,101.39578263541668,52.0,112.0
280,101.26955720833334,101.60411586458333,59.0,96.0
281,101.56367470833334,101.69357660416668,52.0,62.0
282,101.26955720833334,101.84676280208335,68.0,127.0
283,101.26955720833334,101.86269416666667,64.0,117.0
284,100.97543970833334,101.94480196875001,28.0,111.0
285,101.85779220833334,102.161713625,59.0,82.0
286,102.15190970833333,102.37249783333334,28.0,93.0
287,102.44602720833333,102.91784069791667,62.0,117.0
288,102.44602720833333,102.96195832291667,66.0,112.0
289,102.44602720833333,102.99382105208333,59.0,102.0
290,102.44602720833333,103.07102689583334,47.0,95.0
291,102.44602720833333,103.22666407291668,35.0,114.0
292,103.32837970833334,104.33328116666668,61.0,100.0
293,103.32837970833334,104.35043802083334,68.0,107.0
294,103.32837970833334,104.39333015625,64.0,100.0
295,103.32837970833334,104.48769285416667,49.0,107.0
296,103.32837970833334,104.53548694791668,37.0,120.0
297,104.79896720833334,105.27445716666668,66.0,127.0
298,104.79896720833334,105.27568265625001,69.0,99.0
299,104.79896720833334,105.32102577083334,62.0,100.0
300,104.79896720833334,105.37127084375001,50.0,86.0
301,104.79896720833334,105.53793742708334,38.0,121.0
302,105.68131970833335,106.85533872916668,39.0,120.0
303,105.68131970833335,107.044064125,63.0,100.0
304,105.68131970833335,107.05509353125001,69.0,79.0
305,105.68131970833335,107.05877000000001,66.0,112.0
306,105.68131970833335,107.06489744791668,51.0,112.0
307,107.15190720833334,107.87372057291667,40.0,121.0
308,107.15190720833334,107.94234798958334,52.0,90.0
309,107.15190720833334,107.96685778125001,59.0,90.0
310,107.15190720833334,107.97421071875,56.0,100.0
311,108.03425970833334,108.37004385416668,40.0,112.0
312,107.74014220833334,108.41293598958335,47.0,26.0
313,108.03425970833334,108.46073008333335,52.0,55.0
314,108.03425970833334,108.49381830208334,56.0,64.0
315,108.03425970833334,108.51220064583335,59.0,72.0
316,108.62249470833333,108.86023968750001,40.0,75.0
317,108.62249470833333,108.95582787500001,52.0,95.0
318,108.91661220833335,109.16783757291668,42.0,99.0
319,108.91661220833335,109.21440617708335,54.0,117.0
320,109.21072970833335,109.4337688125,52.0,96.0
321,109.21072970833335,109.43621979166667,40.0,77.0
322,109.50484720833335,109.63720008333334,30.0,112.0
323,109.79896470833334,110.2720036875,30.0,117.0
324,109.79896470833334,110.2720036875,62.0,99.0
325,109.79896470833334,110.27690564583334,69.0,97.0
326,109.79896470833334,110.27813113541667,66.0,127.0
327,109.79896470833334,110.28793505208334,42.0,117.0
328,109.79896470833334,110.33818012500001,50.0,90.0
329,110.38719970833334,111.56366970833334,52.0,95.0
330,110.38719970833334,111.68131670833334,68.0,127.0
331,110.38719970833334,111.69969905208335,64.0,99.0
332,110.38719970833334,111.71195394791667,71.0,100.0
333,110.38719970833334,111.73646373958334,74.0,117.0
334,110.38719970833334,111.82960094791667,32.0,120.0
335,110.38719970833334,111.90313032291668,44.0,122.0
336,111.85778720833333,112.57469861458334,62.0,107.0
337,111.85778720833333,112.59308095833335,66.0,112.0
338,111.85778720833333,112.81734555208334,59.0,90.0
339,112.44602220833335,113.12984539583334,54.0,44.0
340,111.85778720833333,113.18009046875001,47.0,72.0
341,113.03425720833334,113.60165888541667,66.0,107.0
342,113.03425720833334,113.61513927083334,62.0,90.0
343,113.62249220833334,113.73523725000001,59.0,56.0
344,114.79896220833334,115.39822661458334,61.0,67.0
345,114.21072720833334,115.61881473958334,49.0,89.0
346,115.38719720833335,115.70214803125,64.0,85.0
347,115.38719720833335,115.77935387500001,68.0,99.0
348,116.56366720833334,117.44601970833334,66.0,99.0
349,116.56366720833334,117.47298047916668,62.0,93.0
350,116.56366720833334,117.56489219791668,57.0,92.0
351,116.56366720833334,117.87984302083335,50.0,66.0
352,117.74013720833334,118.31121535416668,62.0,99.0
353,117.74013720833334,118.36881336458335,66.0,102.0
354,118.32837220833335,119.15435218750001,59.0,72.0
355,119.50484220833334,119.88351848958334,57.0,83.0
356,119.21072470833334,120.23645948958334,52.0,69.0
357,118.91660720833335,120.60778283333335,45.0,69.0
358,120.38719470833334,120.69969455208334,52.0,56.0
359,119.79895970833334,120.71194944791668,61.0,117.0
360,119.79895970833334,120.72665532291667,64.0,96.0
361,120.68131220833334,120.81734155208335,57.0,77.0
362,121.26954720833334,121.73523325000001,59.0,79.0
363,121.26954720833334,121.94601745833334,62.0,82.0
364,121.26954720833334,122.00974291666668,66.0,86.0
365,121.85778220833335,122.54895833333335,59.0,46.0
366,121.56366470833335,122.70091904166668,54.0,64.0
367,121.26954720833334,122.95949734375002,47.0,71.0
368,122.74013470833334,122.98155615625001,54.0,50.0
369,122.44601720833334,123.01341888541667,62.0,81.0
370,122.44601720833334,123.05018357291668,66.0,88.0
371,123.62248720833334,124.56121222916667,68.0,88.0
372,123.62248720833334,124.60532985416667,64.0,74.0
373,123.62248720833334,124.60655534375,61.0,95.0
374,123.62248720833334,124.94356497916668,49.0,53.0
375,125.09307470833335,125.27199618750001,49.0,54.0
376,124.79895720833335,125.33081968750001,64.0,86.0
377,124.79895720833335,125.36390790625,68.0,100.0
378,125.38719220833335,125.47910392708334,61.0,76.0
379,125.97542720833334,126.93866202083335,62.0,96.0
380,125.97542720833334,126.95949534375,66.0,93.0
381,125.97542720833334,126.97175023958334,57.0,88.0
382,125.97542720833334,127.4043480625,50.0,72.0
383,127.15189720833334,127.55385779166667,57.0,74.0
384,127.15189720833334,127.66537734375001,66.0,100.0
385,127.15189720833334,127.9925830625,62.0,99.0
386,128.03424970833333,128.09184771875002,68.0,29.0
387,128.32836720833333,128.5097396666667,64.0,99.0
388,128.32836720833333,128.51219064583333,68.0,102.0
389,128.32836720833333,128.64331803125,59.0,85.0
390,128.91660220833333,129.52567053125,52.0,99.0
391,128.62248470833333,129.67640575000001,47.0,53.0
392,129.50483720833336,129.91660170833333,56.0,127.0
393,129.50483720833336,129.92150366666667,59.0,100.0
394,130.09307220833335,130.50116023958336,56.0,112.0
395,130.09307220833335,130.50361121875,59.0,95.0
396,128.32836720833333,130.55875825,40.0,74.0
397,129.79895470833335,130.56856216666668,47.0,96.0
398,130.68130720833335,131.89821836458333,52.0,102.0
399,130.68130720833335,131.90802228125,56.0,122.0
400,130.68130720833335,131.91047326041667,47.0,72.0
401,130.68130720833335,131.91169875,59.0,99.0
402,130.68130720833335,131.93008109375,40.0,89.0
403,133.03424720833334,133.67762923958335,33.0,114.0
404,133.03424720833334,133.70826647916667,61.0,127.0
405,133.03424720833334,133.71807039583334,64.0,99.0
406,133.03424720833334,133.90679579166667,57.0,112.0
407,133.62248220833334,134.28914854166666,52.0,59.0
408,134.21071720833334,134.44968767708335,57.0,102.0
409,134.50483470833333,134.8308149375,52.0,74.0
410,134.21071720833334,134.8308149375,61.0,127.0
411,133.03424720833334,134.838167875,45.0,96.0
412,134.21071720833334,134.90802078125,64.0,100.0
413,133.91659970833334,134.91414822916667,33.0,100.0
414,134.79895220833333,135.02076582291667,57.0,97.0
415,135.09306970833333,135.35164801041668,33.0,112.0
416,135.38718720833333,135.44968717708335,44.0,75.0
417,135.38718720833333,135.71929488541667,32.0,112.0
418,135.82836345833334,135.90924577083334,32.0,81.0
419,135.38718720833333,136.28792205208333,64.0,92.0
420,135.38718720833333,136.44723569791668,61.0,102.0
421,135.38718720833333,136.45336314583335,56.0,100.0
422,136.56365720833335,136.84184334375,56.0,107.0
423,135.68130470833336,136.85654921875002,44.0,37.0
424,136.26953970833335,137.0072844375,32.0,114.0
425,136.85777470833335,137.13473535416668,44.0,81.0
426,136.56365720833335,137.16169612500002,61.0,122.0
427,137.15189220833335,137.37125484375002,32.0,117.0
428,136.56365720833335,137.3749313125,64.0,99.0
429,137.15189220833335,137.42149991666668,56.0,90.0
430,137.44600970833335,137.61635276041667,33.0,87.0
431,137.59306845833333,137.74012720833335,32.0,100.0
432,137.74012720833335,138.05997998958335,30.0,111.0
433,138.18130345833333,138.26463675000002,30.0,93.0
434,137.74012720833335,138.49625428125,57.0,95.0
435,137.74012720833335,138.57468561458333,61.0,122.0
436,137.74012720833335,138.6984600625,66.0,99.0
437,138.32836220833335,138.95703836458335,54.0,69.0
438,139.21071470833334,139.38595971875,54.0,96.0
439,137.74012720833335,139.4545871354167,42.0,96.0
440,138.91659720833334,139.58694001041667,66.0,122.0
441,138.91659720833334,139.63228312500001,61.0,127.0
442,138.62247970833334,139.6494399791667,30.0,117.0
443,139.50483220833334,139.85042027083335,57.0,73.0
444,139.79894970833334,140.03424370833335,30.0,108.0
445,140.09306720833334,140.73032179166668,62.0,122.0
446,140.09306720833334,140.76586098958333,38.0,120.0
447,140.09306720833334,140.79159627083334,66.0,117.0
448,140.09306720833334,140.91537071875,50.0,92.0
449,140.09306720833334,140.91659620833335,57.0,96.0
450,140.97541970833333,141.2450274166667,38.0,112.0
451,141.26953720833333,141.90311532291668,68.0,127.0
452,141.26953720833333,141.90556630208334,52.0,99.0
453,141.26953720833333,141.90679179166668,64.0,112.0
454,141.26953720833333,142.00360546875,40.0,114.0
455,141.26953720833333,142.03179172916668,59.0,107.0
456,142.15188970833336,142.367575875,40.0,98.0
457,142.44600720833336,142.9362030416667,61.0,127.0
458,142.44600720833336,143.14453627083336,33.0,108.0
459,142.44600720833336,143.16659508333333,57.0,102.0
460,142.44600720833336,143.20335977083334,64.0,97.0
461,143.03424220833335,143.64453602083336,52.0,52.0
462,143.32835970833335,143.70335952083335,57.0,82.0
463,143.91659470833335,144.17517301041667,52.0,74.0
464,142.44600720833336,144.21316318750002,45.0,78.0
465,143.62247720833335,144.23644748958336,61.0,117.0
466,143.62247720833335,144.29527098958334,64.0,99.0
467,143.32835970833335,144.30262392708335,33.0,112.0
468,144.21071220833335,144.49380030208334,57.0,96.0
469,144.50482970833335,144.76830996875,33.0,108.0
470,144.79894720833335,145.1310548854167,32.0,108.0
471,145.24012345833336,145.33448615625002,32.0,108.0
472,144.79894720833335,145.54649585416666,64.0,90.0
473,144.79894720833335,145.65801540625,56.0,112.0
474,144.79894720833335,145.82100552083335,61.0,100.0
475,144.79894720833335,146.11389753125002,44.0,89.0
476,145.97541720833334,146.39453464583335,56.0,99.0
477,145.97541720833334,146.40188758333335,61.0,127.0
478,146.26953470833334,146.47909342708334,44.0,89.0
479,145.68129970833334,146.71071095833335,32.0,114.0
480,145.97541720833334,146.71438742708335,64.0,97.0
481,146.56365220833334,147.0317892291667,61.0,127.0
482,146.85776970833334,147.0661029375,32.0,100.0
483,147.15188720833333,147.44355372916667,30.0,112.0
484,147.59306345833335,147.67272028125,30.0,104.0
485,147.15188720833333,147.838161375,57.0,89.0
486,147.15188720833333,148.11757300000002,66.0,93.0
487,147.15188720833333,148.12860240625002,61.0,96.0
488,147.74012220833333,148.39330815625001,54.0,59.0
489,148.03423970833333,148.43497480208333,57.0,61.0
490,148.62247470833336,148.78914129166668,54.0,78.0
491,147.15188720833333,148.80507265625002,42.0,89.0
492,148.32835720833336,148.97541570833334,61.0,107.0
493,148.03423970833333,149.00850392708335,30.0,111.0
494,148.32835720833336,149.23644498958333,66.0,107.0
495,148.91659220833336,149.36267041666667,57.0,92.0
496,149.21070970833335,149.40801353125002,61.0,100.0
497,149.21070970833335,149.44477821875,30.0,98.0
498,149.50482720833335,150.19845431250002,57.0,89.0
499,149.50482720833335,150.25605232291667,26.0,104.0
500,149.50482720833335,150.50850317708336,66.0,107.0
501,149.50482720833335,150.51463062500002,62.0,107.0
502,150.09306220833335,150.78301284375002,50.0,74.0
503,150.38717970833335,150.79894420833335,57.0,42.0
504,150.97541470833335,151.2045812604167,50.0,70.0
505,150.68129720833335,151.37860078125001,62.0,99.0
506,149.50482720833335,151.39820861458335,38.0,85.0
507,150.38717970833335,151.40188508333335,26.0,100.0
508,150.68129720833335,151.62614967708333,66.0,102.0
509,151.26953220833335,151.6972280729167,57.0,60.0
510,151.56364970833334,151.75605157291668,26.0,90.0
511,151.85776720833334,154.11634451041667,26.0,100.0
512,151.85776720833334,154.21070720833333,38.0,42.0
513,149.79894470833335,154.21070720833333,45.0,37.0
514,151.85776720833334,154.21070720833333,50.0,61.0
515,151.85776720833334,154.21070720833333,57.0,72.0
516,151.85776720833334,154.21070720833333,62.0,85.0
517,151.85776720833334,154.21070720833333,66.0,83.0
518,154.21070720833333,154.65310894791668,57.0,99.0
519,154.50482470833333,154.8308049375,54.0,112.0
520,154.21070720833333,154.90188333333333,30.0,108.0
521,154.21070720833333,154.90555980208333,61.0,127.0
522,154.21070720833333,154.99011858333336,42.0,112.0
523,154.21070720833333,155.07467736458335,66.0,100.0
524,154.79894220833336,155.19967730208336,57.0,102.0
525,155.09305970833336,155.2928145104167,61.0,117.0
526,155.09305970833336,155.36389290625002,30.0,108.0
527,155.38717720833336,155.85163776041668,59.0,102.0
528,155.38717720833336,156.13840232291668,28.0,98.0
529,155.38717720833336,156.22541208333334,64.0,93.0
530,155.38717720833336,156.24747089583335,68.0,97.0
531,155.97541220833335,156.27320617708335,47.0,88.0
532,155.38717720833336,156.29036303125002,40.0,77.0
533,156.26952970833335,156.42516688541667,59.0,96.0
534,156.26952970833335,156.49624528125,28.0,100.0
535,156.56364720833335,157.24134294791668,62.0,102.0
536,156.56364720833335,157.25237235416668,57.0,107.0
537,156.56364720833335,157.26707822916669,66.0,102.0
538,156.56364720833335,157.2854605729167,26.0,112.0
539,157.15188220833335,157.79526423958333,50.0,85.0
540,157.44599970833335,157.93742103125,62.0,127.0
541,156.56364720833335,158.22663657291668,38.0,85.0
542,156.85776470833335,158.23153853125,45.0,67.0
543,158.03423470833334,158.24992087500002,62.0,32.0
544,157.44599970833335,158.40310707291667,66.0,102.0
545,157.44599970833335,158.47418546875002,26.0,111.0
546,158.03423470833334,158.51340113541667,50.0,75.0
547,158.32835220833334,158.61879323958334,57.0,127.0
548,158.62246970833334,158.8626656666667,26.0,100.0
549,158.91658720833334,159.2670772291667,31.0,120.0
550,159.35776345833335,159.58447903125,31.0,98.0
551,158.91658720833334,159.76217502083335,55.0,100.0
552,158.91658720833334,159.76462600000002,62.0,100.0
553,158.91658720833334,159.77197893750002,59.0,102.0
554,158.91658720833334,159.82467498958334,43.0,78.0
555,159.79893970833334,159.9582533541667,31.0,95.0
556,160.09305720833333,160.43496880208335,29.0,98.0
557,160.53423345833335,160.71683140625,29.0,104.0
558,160.0795768229167,160.76217452083336,60.0,117.0
559,160.68129220833333,160.76217452083336,60.0,112.0
560,160.0795768229167,160.7707529479167,57.0,107.0
561,160.68129220833333,160.7707529479167,57.0,117.0
562,160.0795768229167,160.79403725,53.0,117.0
563,160.97540970833336,161.11634101041668,53.0,85.0
564,160.97540970833336,161.13349786458335,29.0,112.0
565,160.0795768229167,161.14942922916669,41.0,97.0
566,161.26952720833336,161.5722231354167,28.0,112.0
567,161.26952720833336,161.7633995104167,55.0,99.0
568,161.26952720833336,161.78545832291667,59.0,96.0
569,161.26952720833336,161.83692888541668,40.0,86.0
570,161.71070345833334,161.91045826041668,28.0,104.0
571,161.26952720833336,161.91168375,52.0,107.0
572,162.15187970833335,162.57835008333333,27.0,111.0
573,162.15187970833335,162.88104601041667,51.0,127.0
574,162.15187970833335,162.93129108333335,58.0,117.0
575,162.15187970833335,162.98888909375,39.0,100.0
576,162.74011470833335,163.18864389583334,27.0,111.0
577,163.32834970833335,163.52687902083335,27.0,111.0
578,163.62246720833335,164.3479570416667,29.0,117.0
579,163.62246720833335,164.37001585416667,53.0,102.0
580,163.62246720833335,164.37614330208334,57.0,99.0
581,163.62246720833335,164.38472172916667,60.0,100.0
582,164.21070220833334,164.84673130208336,48.0,52.0
583,164.50481970833334,165.2131526875,57.0,99.0
584,164.50481970833334,165.22418209375002,53.0,99.0
585,164.50481970833334,165.22418209375002,60.0,100.0
586,165.38717220833334,165.48030941666667,57.0,97.0
587,165.38717220833334,165.50481920833334,60.0,95.0
588,165.09305470833334,165.6383975729167,48.0,67.0
589,164.50481970833334,165.78177985416667,29.0,120.0
590,163.62246720833335,165.84550531250002,41.0,88.0
591,165.97540720833334,166.9925635625,69.0,102.0
592,165.97540720833334,167.01829884375002,65.0,122.0
593,165.97540720833334,167.05261255208333,60.0,107.0
594,165.97540720833334,167.05996548958333,29.0,122.0
595,165.97540720833334,167.22785756250002,53.0,99.0
596,165.97540720833334,167.23521050000002,41.0,73.0
597,165.97540720833334,167.26339676041667,48.0,92.0
598,167.15187720833333,167.3369261354167,29.0,111.0
599,167.15187720833333,167.56854366666667,60.0,61.0
600,167.15187720833333,167.573445625,69.0,127.0
601,167.15187720833333,167.57712209375,65.0,117.0
602,167.44599470833336,167.71927888541668,29.0,108.0
603,167.74011220833336,167.99378855208334,31.0,98.0
604,167.44599470833336,168.17025905208334,48.0,102.0
605,167.44599470833336,168.17761198958334,53.0,112.0
606,167.44599470833336,168.20824922916668,41.0,79.0
607,167.74011220833336,168.28790605208334,65.0,127.0
608,167.74011220833336,168.28913154166668,69.0,127.0
609,168.03422970833336,168.3369256354167,60.0,102.0
610,168.03422970833336,168.36143542708334,33.0,93.0
611,168.32834720833335,168.97172923958334,34.0,114.0
612,168.32834720833335,169.00236647916668,62.0,127.0
613,168.32834720833335,169.01217039583335,65.0,99.0
614,168.32834720833335,169.20089579166668,58.0,112.0
615,168.91658220833335,169.58324854166668,53.0,59.0
616,169.50481720833335,169.74378767708333,58.0,102.0
617,169.79893470833335,170.12491493750002,53.0,74.0
618,169.50481720833335,170.12491493750002,62.0,127.0
619,168.32834720833335,170.13226787500003,46.0,96.0
620,169.50481720833335,170.20212078125002,65.0,100.0
621,169.21069970833335,170.20824822916668,34.0,100.0
622,170.09305220833335,170.3148658229167,58.0,97.0
623,170.38716970833335,170.64574801041667,34.0,112.0
624,170.68128720833334,170.74378717708333,45.0,75.0
625,170.68128720833334,171.0133948854167,33.0,112.0
626,171.12246345833336,171.20334577083335,33.0,81.0
627,170.68128720833334,171.58202205208335,65.0,92.0
628,170.68128720833334,171.74133569791667,62.0,102.0
629,170.68128720833334,171.74746314583334,57.0,100.0
630,171.85775720833334,172.13594334375,57.0,107.0
631,170.97540470833334,172.15064921875,45.0,37.0
632,171.56363970833334,172.30138443750002,33.0,114.0
633,172.15187470833334,172.42883535416667,45.0,81.0
634,171.85775720833334,172.455796125,62.0,122.0
635,172.44599220833334,172.66535484375,33.0,117.0
636,171.85775720833334,172.6690313125,65.0,99.0
637,172.44599220833334,172.7155999166667,57.0,90.0
638,172.74010970833334,172.9104527604167,34.0,87.0
639,172.88716845833335,173.03422720833333,33.0,100.0
640,173.03422720833333,173.35407998958334,31.0,111.0
641,173.47540345833335,173.55873675,31.0,93.0
642,173.03422720833333,173.79035428125002,58.0,95.0
643,173.03422720833333,173.86878561458335,62.0,122.0
644,173.03422720833333,173.99256006250002,67.0,99.0
645,173.62246220833336,174.25113836458334,55.0,69.0
646,174.50481470833336,174.68005971875002,55.0,96.0
647,173.03422720833333,174.74868713541667,43.0,96.0
648,174.21069720833336,174.88104001041668,67.0,122.0
649,174.21069720833336,174.926383125,62.0,127.0
650,173.91657970833336,174.94353997916667,31.0,117.0
651,174.79893220833335,175.14452027083334,58.0,73.0
652,175.09304970833335,175.32834370833334,31.0,108.0
653,175.38716720833335,175.61510827083333,39.0,112.0
654,175.38716720833335,176.02442179166667,63.0,122.0
655,175.38716720833335,176.08569627083335,67.0,117.0
656,175.68128470833335,176.13716683333334,39.0,93.0
657,175.38716720833335,176.20947071875003,51.0,92.0
658,175.38716720833335,176.21069620833336,58.0,96.0
659,176.26951970833335,176.47785293750002,39.0,111.0
660,176.56363720833335,177.1972153229167,69.0,127.0
661,176.56363720833335,177.19966630208336,53.0,99.0
662,176.56363720833335,177.2008917916667,65.0,112.0
663,176.56363720833335,177.28667606250002,41.0,112.0
664,176.56363720833335,177.32589172916667,60.0,107.0
665,177.44598970833334,177.70946996875,41.0,117.0
666,177.74010720833334,178.23030304166667,62.0,127.0
667,177.74010720833334,178.43863627083334,34.0,108.0
668,177.74010720833334,178.46069508333335,58.0,102.0
669,177.74010720833334,178.49745977083336,65.0,97.0
670,178.32834220833334,178.93863602083334,53.0,52.0
671,178.62245970833334,178.99745952083336,58.0,82.0
672,179.21069470833334,179.46927301041669,53.0,74.0
673,177.74010720833334,179.5072631875,46.0,78.0
674,178.91657720833334,179.53054748958334,62.0,117.0
675,178.91657720833334,179.58937098958336,65.0,99.0
676,178.62245970833334,179.59672392708336,34.0,112.0
677,179.50481220833333,179.78790030208336,58.0,96.0
678,179.79892970833333,180.06240996875002,34.0,108.0
679,180.09304720833336,180.42515488541667,33.0,108.0
680,180.53422345833334,180.62858615625,33.0,108.0
681,180.09304720833336,180.84059585416668,65.0,90.0
682,180.09304720833336,180.95211540625002,57.0,112.0
683,180.09304720833336,181.11510552083334,62.0,100.0
684,180.09304720833336,181.40799753125,45.0,89.0
685,181.26951720833335,181.68863464583336,57.0,99.0
686,181.26951720833335,181.69598758333333,62.0,127.0
687,181.56363470833335,181.77319342708336,45.0,89.0
688,180.97539970833336,182.00481095833334,33.0,114.0
689,181.26951720833335,182.00848742708334,65.0,97.0
690,181.85775220833335,182.32588922916668,62.0,127.0
691,182.15186970833335,182.36020293750002,33.0,100.0
692,182.44598720833335,182.73765372916668,31.0,112.0
693,182.88716345833333,182.96682028125002,31.0,104.0
694,182.44598720833335,183.132261375,58.0,89.0
695,182.44598720833335,183.411673,67.0,93.0
696,182.44598720833335,183.42270240625,62.0,96.0
697,183.03422220833335,183.68740815625,55.0,59.0
698,183.32833970833335,183.72907480208335,58.0,61.0
699,183.91657470833334,184.08324129166667,55.0,78.0
700,182.44598720833335,184.09917265625,43.0,89.0
701,183.62245720833334,184.26951570833336,62.0,107.0
702,183.32833970833335,184.30260392708334,31.0,111.0
703,183.62245720833334,184.53054498958335,67.0,107.0
704,184.21069220833334,184.6567704166667,58.0,92.0
705,184.50480970833334,184.70211353125,62.0,100.0
706,184.50480970833334,184.73887821875002,31.0,98.0
707,184.79892720833334,185.4925543125,58.0,89.0
708,184.79892720833334,185.5501523229167,27.0,104.0
709,184.79892720833334,185.80260317708334,67.0,107.0
710,184.79892720833334,185.808730625,63.0,107.0
711,185.38716220833334,186.07711284375,51.0,74.0
712,185.68127970833334,186.09304420833334,58.0,42.0
713,186.26951470833336,186.49868126041667,51.0,70.0
714,185.97539720833333,186.67270078125,63.0,99.0
715,184.79892720833334,186.69230861458334,39.0,85.0
716,185.68127970833334,186.69598508333334,27.0,100.0
717,185.97539720833333,186.92024967708335,67.0,102.0
718,186.56363220833336,186.99132807291667,58.0,60.0
719,186.85774970833336,187.0501515729167,27.0,90.0
720,187.15186720833336,189.41044451041668,27.0,100.0
721,187.15186720833336,189.50480720833335,39.0,42.0
722,185.09304470833334,189.50480720833335,46.0,37.0
723,187.15186720833336,189.50480720833335,51.0,61.0
724,187.15186720833336,189.50480720833335,58.0,72.0
725,187.15186720833336,189.50480720833335,63.0,85.0
726,187.15186720833336,189.50480720833335,67.0,83.0
727,189.50480720833335,190.29524798958334,34.0,112.0
728,189.50480720833335,190.29647347916668,74.0,78.0
729,189.50480720833335,190.31363033333335,70.0,95.0
730,189.50480720833335,190.53421845833336,65.0,81.0
731,190.09304220833334,190.78421833333334,58.0,43.0
732,190.97539470833334,191.13593384375002,58.0,49.0
733,189.50480720833335,191.20701223958335,46.0,85.0
734,190.38715970833334,191.30505140625002,70.0,88.0
735,190.38715970833334,191.33078668750002,74.0,78.0
736,191.26951220833334,191.37000235416667,65.0,54.0
737,190.38715970833334,191.79524723958335,34.0,108.0
738,191.85774720833334,192.52196256250002,72.0,81.0
739,191.85774720833334,192.5391194166667,68.0,88.0
740,191.85774720833334,192.5391194166667,75.0,76.0
741,192.44598220833333,193.20946221875002,56.0,46.0
742,192.74009970833336,193.41289348958335,68.0,57.0
743,191.85774720833334,193.55259930208334,44.0,86.0
744,192.74009970833336,193.61877573958336,72.0,72.0
745,192.74009970833336,193.63348161458336,75.0,76.0
746,194.21068720833335,194.29402050000002,39.0,92.0
747,194.21068720833335,194.82465748958336,67.0,73.0
748,194.21068720833335,194.84916728125,70.0,76.0
749,194.79892220833335,194.93127508333336,63.0,26.0
750,195.09303970833335,196.0244117916667,51.0,28.0
751,195.09303970833335,196.10406861458335,58.0,40.0
752,195.09303970833335,196.34426457291667,70.0,66.0
753,195.09303970833335,197.03544069791667,63.0,82.0
754,195.09303970833335,197.2425484375,67.0,68.0
755,197.15186220833334,197.838136375,58.0,72.0
756,197.44597970833334,198.132253875,67.0,97.0
757,197.44597970833334,198.17882247916668,63.0,93.0
758,196.85774470833334,198.18127345833335,55.0,31.0
759,197.44597970833334,198.19107737500002,70.0,97.0
760,198.03421470833334,198.24499891666667,58.0,41.0
761,196.56362720833334,198.28298909375002,51.0,97.0
762,198.32833220833334,198.38470472916669,67.0,48.0
763,198.32833220833334,198.4104400104167,63.0,39.0
764,198.32833220833334,198.4104400104167,70.0,42.0
765,198.91656720833336,199.62735116666667,74.0,82.0
766,198.91656720833336,199.65676291666668,70.0,96.0
767,198.91656720833336,199.67391977083335,65.0,85.0
768,199.50480220833336,200.20210578125003,58.0,73.0
769,200.38715470833336,200.60651734375003,58.0,47.0
770,198.91656720833336,200.67024280208335,46.0,89.0
771,199.79891970833336,200.7572525625,70.0,107.0
772,200.68127220833335,200.78053686458335,65.0,69.0
773,199.79891970833336,200.7891152916667,74.0,93.0
774,201.26950720833335,201.9030853229167,72.0,99.0
775,201.26950720833335,201.92146766666667,68.0,95.0
776,201.26950720833335,201.92514413541667,75.0,96.0
777,202.15185970833335,202.55627127083335,68.0,93.0
778,201.85774220833335,202.61264379166667,56.0,75.0
779,201.26950720833335,202.83445740625,44.0,86.0
780,202.15185970833335,203.01092790625,72.0,112.0
781,203.03421220833334,203.0758788541667,68.0,61.0
782,202.15185970833335,203.07710434375002,75.0,96.0
783,204.21068220833334,207.6788177291667,51.0,46.0
784,203.62244720833334,207.70210203125,39.0,96.0
785,204.50479970833334,207.75724906250002,58.0,99.0
786,204.50479970833334,207.75847455208336,55.0,82.0
787,204.50479970833334,207.7707294479167,63.0,90.0
