,start,end,pitch,velocity
0,36.701615350000004,37.34677668333334,69.0,122.0
1,37.34677668333334,37.66935735,66.0,122.0
2,37.66935735,38.15322835,64.0,112.0
3,38.15322835,40.57258335,66.0,112.0
4,40.57258335,41.217744683333336,62.0,107.0
5,41.217744683333336,41.552422125,64.0,117.0
6,41.54032535,42.024196350000004,69.0,117.0
7,42.024196350000004,45.088712683333334,66.0,107.0
8,45.088712683333334,45.4354869,62.0,96.0
9,45.41129335,48.314519350000005,59.0,97.0
10,48.314519350000005,48.95968068333334,69.0,112.0
11,48.95968068333334,52.18548735,64.0,107.0
12,52.18548735,52.83064868333334,69.0,102.0
13,52.83064868333334,53.153229350000004,66.0,99.0
14,53.153229350000004,53.56653582916667,64.0,97.0
15,53.47581001666667,56.05645535,66.0,100.0
16,56.05645535,56.701616683333334,62.0,96.0
17,56.701616683333334,57.02419735,64.0,96.0
18,57.02419735,57.50806835,69.0,100.0
19,57.50806835,59.927423350000005,66.0,93.0
20,59.927423350000005,60.2479878875,62.0,117.0
21,60.25000401666667,60.57056855416667,62.0,92.0
22,60.57258468333334,60.89314922083334,62.0,93.0
23,60.895165350000006,61.217746016666666,62.0,99.0
24,61.217746016666666,63.79839135,59.0,83.0
25,63.79839135,64.16331072916667,57.0,89.0
26,64.12097201666667,64.7237946375,59.0,77.0
27,64.44355268333334,65.26613338333334,69.0,96.0
28,65.25000435,68.63710135000001,64.0,70.0
29,68.63710135000001,69.28024655416667,71.0,127.0
30,69.28226268333334,69.60282722083333,71.0,112.0
31,69.60484335000001,70.25000468333333,71.0,122.0
32,70.25000468333333,70.57258535,74.0,122.0
33,70.57258535,71.21774668333333,73.0,112.0
34,71.21774668333333,71.54032735,74.0,107.0
35,71.54032735,72.19153707083333,73.0,127.0
36,72.18548868333333,72.50806935,69.0,122.0
37,72.50806935,73.15121455416667,67.0,117.0
38,73.15323068333333,73.47379522083334,67.0,112.0
39,73.47581135,74.12097268333333,67.0,122.0
40,74.12097268333333,74.44355335,71.0,122.0
41,74.44355335,76.05645668333334,69.0,127.0
42,76.05645668333334,76.37903735,57.0,102.0
43,76.37903735,77.02218255416668,67.0,112.0
44,77.02419868333334,77.34476322083334,67.0,112.0
45,77.34677935,77.99194068333334,67.0,117.0
46,77.99194068333334,78.31452135,66.0,117.0
47,78.31452135,79.28024722083333,64.0,122.0
48,79.28226335000001,79.60484401666668,64.0,127.0
49,79.60484401666668,79.94758597500001,62.0,107.0
50,79.92742468333334,80.25000535000001,64.0,127.0
51,80.25000535000001,80.57258601666668,66.0,127.0
52,80.57258601666668,84.12097335,69.0,127.0
53,84.12097335,84.76411855416667,71.0,127.0
54,84.76613468333333,85.08669922083334,71.0,112.0
55,85.08871535,85.73387668333334,71.0,112.0
56,85.73387668333334,86.05645735,74.0,117.0
57,86.05645735,86.70161868333334,73.0,127.0
58,86.70161868333334,87.02419935,74.0,112.0
59,87.02419935,87.66936068333334,73.0,127.0
60,87.66936068333334,87.99194135,69.0,112.0
61,87.99194135,88.63508655416668,67.0,107.0
62,88.63710268333334,88.95766722083334,67.0,112.0
63,88.95968335,89.60484468333334,67.0,127.0
64,89.60484468333334,89.92742535000001,71.0,117.0
65,89.92742535000001,91.54032868333334,69.0,122.0
66,91.54032868333334,91.86290935000001,59.0,112.0
67,91.86290935000001,92.50605455416667,67.0,102.0
68,92.50807068333334,92.82863522083333,67.0,117.0
69,92.83065135000001,93.47581268333334,67.0,127.0
70,93.47581268333334,93.79839335,66.0,117.0
71,93.79839335,94.44153855416667,64.0,127.0
72,94.44355468333333,94.76411922083334,64.0,102.0
73,94.76613535,95.40928055416667,64.0,127.0
74,95.41129668333333,95.73387735,64.0,107.0
75,95.73387735,98.63710335,62.0,100.0
76,98.63710335,99.28226468333334,69.0,122.0
77,99.28226468333334,99.60484535,66.0,122.0
78,99.60484535,100.08871635,64.0,112.0
79,100.08871635,102.50807135000001,66.0,112.0
80,102.50807135000001,103.15323268333334,62.0,107.0
81,103.15323268333334,103.487910125,64.0,117.0
82,103.47581335000001,103.95968435,69.0,117.0
83,103.95968435,107.02420068333333,66.0,107.0
84,107.02420068333333,107.37097490000001,62.0,96.0
85,107.34678135,108.91532984166668,59.0,97.0
86,108.91532984166668,109.2883137375,71.0,107.0
87,109.2883137375,110.83871706666667,69.0,127.0
88,110.83871706666667,111.18549128333333,64.0,97.0
89,111.18549128333333,114.11895922083333,69.0,122.0
90,114.12097535000001,114.76613668333334,69.0,102.0
91,114.76613668333334,115.08871735000001,66.0,99.0
92,115.08871735000001,115.50202382916667,64.0,97.0
93,115.41129801666668,117.99194335,66.0,100.0
94,117.99194335,118.63710468333333,62.0,96.0
95,118.63710468333333,118.95968535,64.0,96.0
96,118.95968535,119.44355635000001,69.0,100.0
97,119.44355635000001,122.50807268333334,66.0,93.0
98,122.50807268333334,122.83065335,62.0,99.0
99,122.83065335,124.44355668333334,59.0,97.0
100,124.44355668333334,124.80041154583334,71.0,117.0
101,124.76613735000001,125.73387935000001,69.0,102.0
102,125.73387935000001,126.09678260000001,64.0,99.0
103,126.05646001666668,126.37904068333334,62.0,86.0
104,126.37904068333334,126.74396006250001,59.0,93.0
105,126.70162135000001,128.709686,62.0,100.0
106,160.57259135,161.21775268333334,69.0,122.0
107,161.21775268333334,161.54033335,66.0,122.0
108,161.54033335,162.02420435000002,64.0,112.0
109,162.02420435000002,164.44355935000002,66.0,112.0
110,164.44355935000002,165.08872068333335,62.0,107.0
111,165.08872068333335,165.423398125,64.0,117.0
112,165.41130135,165.89517235,69.0,117.0
113,165.89517235,168.95968868333335,66.0,107.0
114,168.95968868333335,169.3064629,62.0,96.0
115,169.28226935,172.18549535,59.0,97.0
116,172.18549535,172.83065668333333,69.0,112.0
117,172.83065668333333,176.05646335,64.0,107.0
118,176.05646335,176.70162468333334,69.0,102.0
119,176.70162468333334,177.02420535000002,66.0,99.0
120,177.02420535000002,177.43751182916668,64.0,97.0
121,177.34678601666667,179.92743135,66.0,100.0
122,179.92743135,180.57259268333334,62.0,96.0
123,180.57259268333334,180.89517335000002,64.0,96.0
124,180.89517335000002,181.37904435000002,69.0,100.0
125,181.37904435000002,183.79839935,66.0,93.0
126,183.79839935,184.1189638875,62.0,117.0
127,184.12098001666666,184.44154455416668,62.0,92.0
128,184.44356068333335,184.76412522083334,62.0,93.0
129,184.76614135,185.08872201666668,62.0,99.0
130,185.08872201666668,187.66936735000002,59.0,83.0
131,187.66936735000002,188.03428672916667,57.0,89.0
132,187.99194801666667,188.5947706375,59.0,77.0
133,188.31452868333335,189.13710938333335,69.0,96.0
134,189.12098035,192.50807735,64.0,70.0
135,192.50807735,193.15122255416668,71.0,127.0
136,193.15323868333334,193.47380322083333,71.0,112.0
137,193.47581935000002,194.12098068333333,71.0,122.0
138,194.12098068333333,194.44356135,74.0,122.0
139,194.44356135,195.08872268333334,73.0,112.0
140,195.08872268333334,195.41130335,74.0,107.0
141,195.41130335,196.06251307083335,73.0,127.0
142,196.05646468333333,196.37904535,69.0,122.0
143,196.37904535,197.02219055416668,67.0,117.0
144,197.02420668333335,197.34477122083334,67.0,112.0
145,197.34678735,197.99194868333333,67.0,122.0
146,197.99194868333333,198.31452935000002,71.0,122.0
147,198.31452935000002,199.92743268333334,69.0,127.0
148,199.92743268333334,200.25001335000002,57.0,102.0
149,200.25001335000002,200.8931585541667,67.0,112.0
150,200.89517468333335,201.21573922083334,67.0,112.0
151,201.21775535,201.86291668333334,67.0,117.0
152,201.86291668333334,202.18549735000002,66.0,117.0
153,202.18549735000002,203.15122322083334,64.0,122.0
154,203.15323935,203.4758200166667,64.0,127.0
155,203.4758200166667,203.81856197500002,62.0,107.0
156,203.79840068333334,204.12098135000002,64.0,127.0
157,204.12098135000002,204.44356201666668,66.0,127.0
158,204.44356201666668,207.99194935,69.0,127.0
159,207.99194935,208.63509455416667,71.0,127.0
160,208.63711068333333,208.95767522083335,71.0,112.0
161,208.95969135,209.60485268333335,71.0,112.0
162,209.60485268333335,209.92743335,74.0,117.0
163,209.92743335,210.57259468333334,73.0,127.0
164,210.57259468333334,210.89517535000002,74.0,112.0
165,210.89517535000002,211.54033668333335,73.0,127.0
166,211.54033668333335,211.86291735,69.0,112.0
167,211.86291735,212.50606255416668,67.0,107.0
168,212.50807868333334,212.82864322083336,67.0,112.0
169,212.83065935000002,213.47582068333335,67.0,127.0
170,213.47582068333335,213.79840135,71.0,117.0
171,213.79840135,215.41130468333336,69.0,122.0
172,215.41130468333336,215.73388535,59.0,112.0
173,215.73388535,216.37703055416668,67.0,102.0
174,216.37904668333334,216.69961122083333,67.0,117.0
175,216.70162735000002,217.34678868333336,67.0,127.0
176,217.34678868333336,217.66936935,66.0,117.0
177,217.66936935,218.31251455416668,64.0,127.0
178,218.31453068333334,218.63509522083334,64.0,102.0
179,218.63711135,219.28025655416667,64.0,127.0
180,219.28227268333333,219.60485335,64.0,107.0
181,219.60485335,222.50807935,62.0,100.0
182,222.50807935,223.15324068333334,69.0,122.0
183,223.15324068333334,223.47582135000002,66.0,122.0
184,223.47582135000002,223.95969235,64.0,112.0
185,223.95969235,226.37904735,66.0,112.0
186,226.37904735,227.02420868333334,62.0,107.0
187,227.02420868333334,227.358886125,64.0,117.0
188,227.34678935000002,227.83066035000002,69.0,117.0
189,227.83066035000002,230.89517668333335,66.0,107.0
190,230.89517668333335,231.2419509,62.0,96.0
191,231.21775735,232.7863058416667,59.0,97.0
192,232.7863058416667,233.15928973750002,71.0,107.0
193,233.15928973750002,234.7096930666667,69.0,127.0
194,234.7096930666667,235.05646728333335,64.0,97.0
195,235.05646728333335,237.98993522083333,69.0,122.0
196,237.99195135000002,238.63711268333336,69.0,102.0
197,238.63711268333336,238.95969335,66.0,99.0
198,238.95969335,239.37299982916667,64.0,97.0
199,239.2822740166667,241.86291935,66.0,100.0
200,241.86291935,242.50808068333333,62.0,96.0
201,242.50808068333333,242.83066135,64.0,96.0
202,242.83066135,243.31453235,69.0,100.0
203,243.31453235,246.37904868333334,66.0,93.0
204,246.37904868333334,246.70162935000002,62.0,99.0
205,246.70162935000002,248.31453268333334,59.0,97.0
206,248.31453268333334,248.67138754583334,71.0,117.0
207,248.63711335000002,249.60485535,69.0,102.0
208,249.60485535,249.96775860000002,64.0,99.0
209,249.9274360166667,250.25001668333334,62.0,86.0
210,250.25001668333334,250.61493606250002,59.0,93.0
211,250.57259735000002,253.47582335,62.0,100.0
212,253.47582335,254.12098468333335,69.0,102.0
213,254.12098468333335,254.44356535,66.0,99.0
214,254.44356535,254.8568718291667,64.0,97.0
215,254.76614601666668,257.34679135,66.0,100.0
216,257.34679135,257.99195268333335,62.0,96.0
217,257.99195268333335,258.31453335000003,64.0,96.0
218,258.31453335000003,258.79840435,69.0,100.0
219,258.79840435,261.86292068333336,66.0,93.0
220,261.86292068333336,262.18550135000004,62.0,99.0
221,262.18550135000004,263.79840468333333,59.0,97.0
222,263.79840468333333,264.15525954583336,71.0,117.0
223,264.12098535,265.08872735,69.0,102.0
224,265.08872735,265.4516306,64.0,99.0
225,265.4113080166667,265.73388868333336,62.0,86.0
226,265.73388868333336,266.09880806250004,59.0,93.0
227,266.05646935,268.06453400000004,62.0,100.0
