,start,end,pitch,velocity
0,14.3234979,14.4815857875,71.0,120.0
1,14.54408565,14.8933495875,76.0,117.0
2,14.98526115,15.257319375,76.0,114.0
3,15.42643665,15.727906574999999,76.0,111.0
4,15.86761215,16.0881999,76.0,108.0
5,16.0881999,16.30878765,76.0,108.0
6,16.30878765,16.42827268125,74.0,111.0
7,16.5293754,16.637831043749998,76.0,111.0
8,16.74996315,16.89885988125,78.0,116.0
9,16.9705509,17.48525565,76.0,114.0
10,17.63231415,17.78121088125,76.0,112.0
11,17.8529019,17.977901624999998,76.0,108.0
12,18.07348965,18.22973930625,74.0,102.0
13,18.2940774,18.389665425,71.0,100.0
14,18.51466515,18.610253175,71.0,100.0
15,18.7352529,18.84370854375,71.0,102.0
16,18.95584065,19.07348745,71.0,102.0
17,19.1764284,19.297751662499998,71.0,100.0
18,19.39701615,19.52753056875,69.0,94.0
19,19.6176039,21.005468493749998,71.0,105.0
20,21.3823059,21.53855555625,64.0,105.0
21,21.60289365,21.908040037499998,76.0,111.0
22,22.04406915,22.30325975625,76.0,111.0
23,22.48524465,22.81428804375,76.0,105.0
24,22.92642015,23.064287493749998,76.0,108.0
25,23.1470079,23.3124487125,76.0,100.0
26,23.36759565,23.49075714375,74.0,111.0
27,23.5881834,23.702153737499998,76.0,111.0
28,23.80877115,23.9815648875,78.0,112.0
29,24.0293589,24.457666781249998,76.0,117.0
30,24.4705344,24.911709899999998,76.0,111.0
31,24.911709899999998,25.06060663125,76.0,105.0
32,25.132297649999998,25.352885399999998,74.0,105.0
33,25.352885399999998,25.573473149999998,71.0,114.0
34,25.573473149999998,25.707664031249998,71.0,108.0
35,25.794060899999998,25.908031237499998,71.0,97.0
36,26.014648649999998,26.128618987499998,71.0,108.0
37,26.235236399999998,26.345530274999998,71.0,102.0
38,26.455824149999998,26.566118024999998,69.0,111.0
39,26.676411899999998,27.7903800375,71.0,111.0
40,28.220526149999998,28.3492023375,74.0,114.0
41,28.441113899999998,28.57530478125,71.0,108.0
42,28.661701649999998,28.94662749375,69.0,114.0
43,29.102877149999998,29.198465175,69.0,108.0
44,29.323464899999998,29.47971455625,69.0,111.0
45,29.544052649999998,29.87309604375,71.0,117.0
46,29.985228149999998,30.12309549375,69.0,111.0
47,30.205815899999997,30.3050803875,67.0,114.0
48,30.426403649999997,30.551403375,71.0,108.0
49,30.646991399999997,31.33265165625,74.0,108.0
50,31.970517899999997,32.10470878125,64.0,117.0
51,32.19110565,32.31059068125,76.0,108.0
52,32.4116934,32.51647258125,76.0,111.0
53,32.63228115,32.727869175,76.0,102.0
54,32.8528689,32.953971618749996,76.0,105.0
55,33.07345665,33.19294168125,76.0,105.0
56,33.2940444,33.4411029,78.0,112.0
57,33.51463215,33.6469848,76.0,111.0
58,33.7352199,33.8822784,74.0,114.0
59,33.95580765,35.10470218125,71.0,117.0
60,35.27933415,35.4227161875,74.0,105.0
61,35.4999219,35.63227455,71.0,102.0
62,35.72050965,36.01462665,69.0,114.0
63,36.16168515,36.295876031249996,69.0,108.0
64,36.3822729,36.77381615625,69.0,120.0
65,36.8234484,37.16719764375,69.0,117.0
66,37.2646239,37.38778539375,67.0,108.0
67,37.48521165,37.65616715625,71.0,108.0
68,37.7057994,38.1469749,66.0,111.0
69,38.1469749,38.441091899999996,66.0,109.0
70,38.588150399999996,38.698444275,66.0,105.0
71,38.808738149999996,38.9374143375,66.0,105.0
72,39.029325899999996,39.1580020875,62.0,102.0
73,39.249913649999996,39.345501675,64.0,111.0
74,39.470501399999996,39.571604118749995,64.0,108.0
75,39.691089149999996,39.805059487499996,64.0,105.0
76,39.911676899999996,40.033000162499995,64.0,108.0
77,40.132264649999996,40.257264375,62.0,102.0
78,40.352852399999996,40.453955118749995,64.0,111.0
79,40.573440149999996,41.014615649999996,66.0,102.0
80,41.014615649999996,42.338142149999996,64.0,114.0
81,42.558729899999996,42.7168177875,71.0,120.0
82,42.779317649999996,43.1285815875,76.0,117.0
83,43.220493149999996,43.492551375,76.0,114.0
84,43.661668649999996,43.963138574999995,76.0,111.0
85,44.102844149999996,44.323431899999996,76.0,108.0
86,44.323431899999996,44.544019649999996,76.0,108.0
87,44.544019649999996,44.66528825416666,74.0,111.0
88,44.767900149999996,44.87797472916666,76.0,111.0
89,44.991780649999995,45.142899987499995,78.0,116.0
90,45.215661149999995,45.73804898333333,76.0,114.0
91,45.887302649999995,46.038421987499994,76.0,112.0
92,46.111183149999995,46.238048766666665,76.0,108.0
93,46.335063649999995,46.49364567083333,74.0,102.0
94,46.558944149999995,46.65595903333333,71.0,100.0
95,46.782824649999995,46.8785773125,71.0,100.0
96,47.003577037499994,47.11203268125,71.0,102.0
97,47.224164787499994,47.3418115875,71.0,102.0
98,47.444752537499994,47.5660758,71.0,100.0
99,47.665340287499994,47.79585470625,69.0,94.0
100,47.885928037499994,49.27379263125,71.0,105.0
101,49.650630037499994,49.80687969375,64.0,105.0
102,49.871217787499994,50.176364174999996,76.0,111.0
103,50.312393287499994,50.571583893749995,76.0,111.0
104,50.753568787499994,51.08261218125,76.0,105.0
105,51.194744287499994,51.332611631249996,76.0,108.0
106,51.415332037499994,51.580772849999995,76.0,100.0
107,51.635919787499994,51.75908128125,74.0,111.0
108,51.85650753749999,51.970477875,76.0,111.0
109,52.07709528749999,52.249889024999995,78.0,112.0
110,52.29768303749999,52.72599091875,76.0,117.0
111,52.73885853749999,53.18003403749999,76.0,111.0
112,53.18003403749999,53.32893076875,76.0,105.0
113,53.4006217875,53.62120953749999,74.0,105.0
114,53.62120953749999,53.8417972875,71.0,114.0
115,53.8417972875,53.97598816874999,71.0,108.0
116,54.06238503749999,54.176355375,71.0,97.0
117,54.2829727875,54.39694312499999,71.0,108.0
118,54.50356053749999,54.6138544125,71.0,102.0
119,54.7241482875,54.8344421625,69.0,111.0
120,54.94473603749999,56.058704174999995,71.0,111.0
121,56.4888502875,56.617526475,74.0,114.0
122,56.70943803749999,56.84362891875,71.0,108.0
123,56.9300257875,57.214951631249996,69.0,114.0
124,57.3712012875,57.4667893125,69.0,108.0
125,57.59178903749999,57.74803869375,69.0,111.0
126,57.8123767875,58.14142018125,71.0,117.0
127,58.2535522875,58.391419631249995,69.0,111.0
128,58.47414003749999,58.573404524999994,67.0,114.0
129,58.6947277875,58.819727512499995,71.0,108.0
130,58.91531553749999,59.600975793749996,74.0,108.0
131,60.23884203749999,60.37303291875,64.0,117.0
132,60.4594297875,60.57891481874999,76.0,108.0
133,60.68001753749999,60.784796718749995,76.0,111.0
134,60.9006052875,60.9961933125,76.0,102.0
135,61.12119303749999,61.22229575625,76.0,105.0
136,61.3417807875,61.46126581874999,76.0,105.0
137,61.56236853749999,61.70942703749999,78.0,112.0
138,61.7829562875,61.915308937499994,76.0,111.0
139,62.00354403749999,62.15060253749999,74.0,114.0
140,62.2241317875,63.37302631874999,71.0,117.0
141,63.5476582875,63.691040324999996,74.0,105.0
142,63.76824603749999,63.90059868749999,71.0,102.0
143,63.9888337875,64.2829507875,69.0,114.0
144,64.4300092875,64.56420016874999,69.0,108.0
145,64.65059703749999,65.04214029375,69.0,120.0
146,65.09177253749999,65.43552178125,69.0,117.0
147,65.53294803749999,65.65610953125,67.0,108.0
148,65.7535357875,65.92449129375,71.0,108.0
149,65.97412353749999,66.41529903749999,66.0,111.0
150,66.41529903749999,66.70941603749999,66.0,109.0
151,66.85647453749999,66.96676841249999,66.0,105.0
152,67.0770622875,67.205738475,66.0,105.0
153,67.29765003749999,67.426326225,62.0,102.0
154,67.5182377875,67.6138258125,64.0,111.0
155,67.73882553749999,67.83992825625,64.0,108.0
156,67.9594132875,68.07338362499999,64.0,105.0
157,68.18000103749999,68.3013243,64.0,108.0
158,68.4005887875,68.5255885125,62.0,102.0
159,68.62117653749999,68.72227925625,64.0,111.0
160,68.8417642875,69.2829397875,66.0,102.0
161,69.2829397875,70.6064662875,64.0,114.0
162,71.0476417875,72.13771291875,80.0,116.0
163,72.3711682875,72.52374148125,79.0,108.0
164,72.59175603749999,72.8123437875,77.0,117.0
165,72.8123437875,73.81601805,72.0,114.0
166,73.91528253749999,74.1358702875,77.0,114.0
167,74.1358702875,74.27006116875,77.0,105.0
168,74.35645803749999,74.46307544999999,75.0,116.0
169,74.5770457875,74.68550143125,72.0,108.0
170,75.0182212875,75.13770631874999,72.0,102.0
171,75.23880903749999,75.35829406875,70.0,97.0
172,75.4593967875,75.63035229375,68.0,100.0
173,75.67998453749999,75.970425075,70.0,112.0
174,76.12116003749999,77.8785091125,72.0,111.0
175,78.1064497875,79.03108010624999,77.0,111.0
176,79.20938853749999,79.5255643125,75.0,116.0
177,79.6505640375,79.82519600625,72.0,102.0
178,79.8711517875,80.15607763124999,70.0,112.0
179,80.3123272875,80.76085571249999,72.0,111.0
180,81.1946782875,81.42813365625,68.0,116.0
181,81.4152660375,81.5402657625,70.0,116.0
182,81.6358537875,81.911588475,72.0,108.0
183,82.0770292875,82.205705475,72.0,105.0
184,82.2976170375,82.38401390625,70.0,112.0
185,82.5182047875,82.6505574375,68.0,112.0
186,82.73879253749999,83.014527225,70.0,116.0
187,83.1799680375,85.07150799375,67.0,120.0
188,85.1652577875,86.25532891875,80.0,116.0
189,86.4887842875,86.64135748125,79.0,108.0
190,86.7093720375,86.9299597875,77.0,117.0
191,86.9299597875,87.93363405,72.0,114.0
192,88.03289853749999,88.2534862875,77.0,114.0
193,88.2534862875,88.38767716875,77.0,105.0
194,88.4740740375,88.58069144999999,75.0,116.0
195,88.6946617875,88.80311743125,72.0,108.0
196,89.1358372875,89.25532231874999,72.0,102.0
197,89.3564250375,89.47591006875,70.0,97.0
198,89.5770127875,89.74796829374999,68.0,100.0
199,89.79760053749999,90.08804107499999,70.0,112.0
200,90.2387760375,91.9961251125,72.0,111.0
201,92.2240657875,93.14869610624999,77.0,111.0
202,93.32700453749999,93.6431803125,75.0,116.0
203,93.7681800375,93.94281200625,72.0,102.0
204,93.9887677875,94.27369363125,70.0,112.0
205,94.4299432875,94.87847171249999,72.0,111.0
206,95.3122942875,95.54574965625,68.0,116.0
207,95.5328820375,95.6578817625,70.0,116.0
208,95.7534697875,96.029204475,72.0,108.0
209,96.1946452875,96.323321475,72.0,105.0
210,96.4152330375,96.50162990625,70.0,112.0
211,96.6358207875,96.7681734375,68.0,112.0
212,96.85640853749999,97.132143225,70.0,116.0
213,97.2975840375,99.18912399375,67.0,120.0
214,136.16819668124998,136.32628456875,71.0,120.0
215,136.38878443125,136.73804836875,76.0,117.0
216,136.82995993125,137.10201815624998,76.0,114.0
217,137.27113543125,137.57260535625,76.0,111.0
218,137.71231093125,137.93289868124998,76.0,108.0
219,137.93289868124998,138.15348643125,76.0,108.0
220,138.15348643125,138.27297146249998,74.0,111.0
221,138.37407418125,138.482529825,76.0,111.0
222,138.59466193125,138.7435586625,78.0,116.0
223,138.81524968125,139.32995443125,76.0,114.0
224,139.47701293125,139.6259096625,76.0,112.0
225,139.69760068124998,139.82260040625,76.0,108.0
226,139.91818843125,140.0744380875,74.0,102.0
227,140.13877618125,140.23436420625,71.0,100.0
228,140.35936393125,140.45495195625,71.0,100.0
229,140.57995168125,140.688407325,71.0,102.0
230,140.80053943125,140.91818623125,71.0,102.0
231,141.02112718125,141.14245044375,71.0,100.0
232,141.24171493125,141.37222935,69.0,94.0
233,141.46230268124998,142.850167275,71.0,105.0
234,143.22700468124998,143.3832543375,64.0,105.0
235,143.44759243125,143.75273881875,76.0,111.0
236,143.88876793125,144.1479585375,76.0,111.0
237,144.32994343125,144.658986825,76.0,105.0
238,144.77111893125,144.908986275,76.0,108.0
239,144.99170668124998,145.15714749375,76.0,100.0
240,145.21229443125,145.335455925,74.0,111.0
241,145.43288218125,145.54685251875,76.0,111.0
242,145.65346993125,145.82626366875,78.0,112.0
243,145.87405768125,146.3023655625,76.0,117.0
244,146.31523318125,146.75640868124998,76.0,111.0
245,146.75640868124998,146.9053054125,76.0,105.0
246,146.97699643125,147.19758418125,74.0,105.0
247,147.19758418125,147.41817193125,71.0,114.0
248,147.41817193125,147.5523628125,71.0,108.0
249,147.63875968125,147.75273001875,71.0,97.0
250,147.85934743125,147.97331776875,71.0,108.0
251,148.07993518125,148.19022905625,71.0,102.0
252,148.30052293125,148.41081680625,69.0,111.0
253,148.52111068124998,149.63507881875,71.0,111.0
254,150.06522493125,150.19390111875,74.0,114.0
255,150.28581268124998,150.4200035625,71.0,108.0
256,150.50640043125,150.791326275,69.0,114.0
257,150.94757593125,151.04316395625,69.0,108.0
258,151.16816368125,151.3244133375,69.0,111.0
259,151.38875143125,151.717794825,71.0,117.0
260,151.82992693125,151.967794275,69.0,111.0
261,152.05051468124998,152.14977916875,67.0,114.0
262,152.27110243125,152.39610215624998,71.0,108.0
263,152.49169018125,153.1773504375,74.0,108.0
264,153.81521668124998,153.9494075625,64.0,117.0
265,154.03580443125,154.15528946249998,76.0,108.0
266,154.25639218125,154.3611713625,76.0,111.0
267,154.47697993124999,154.57256795625,76.0,102.0
268,154.69756768125,154.7986704,76.0,105.0
269,154.91815543125,155.0376404625,76.0,105.0
270,155.13874318125,155.28580168125,78.0,112.0
271,155.35933093124999,155.49168358125,76.0,111.0
272,155.57991868124998,155.72697718125,74.0,114.0
273,155.80050643125,156.9494009625,71.0,117.0
274,157.12403293124999,157.26741496875,74.0,105.0
275,157.34462068124998,157.47697333125,71.0,102.0
276,157.56520843125,157.85932543125,69.0,114.0
277,158.00638393124999,158.1405748125,69.0,108.0
278,158.22697168125,158.61851493749998,69.0,120.0
279,158.66814718125,159.011896425,69.0,117.0
280,159.10932268124998,159.232484175,67.0,108.0
281,159.32991043125,159.5008659375,71.0,108.0
282,159.55049818125,159.99167368125,66.0,111.0
283,159.99167368125,160.28579068124998,66.0,109.0
284,160.43284918125,160.54314305625,66.0,105.0
285,160.65343693124998,160.78211311875,66.0,105.0
286,160.87402468124998,161.00270086875,62.0,102.0
287,161.09461243125,161.19020045625,64.0,111.0
288,161.31520018125,161.4163029,64.0,108.0
289,161.53578793124998,161.64975826875,64.0,105.0
290,161.75637568125,161.87769894375,64.0,108.0
291,161.97696343125,162.10196315625,62.0,102.0
292,162.19755118125,162.2986539,64.0,111.0
293,162.41813893124998,162.85931443125,66.0,102.0
294,162.85931443125,164.18284093124998,64.0,114.0
295,164.40342868125,164.56151656875,71.0,120.0
296,164.62401643125,164.97328036875,76.0,117.0
297,165.06519193125,165.33725015624998,76.0,114.0
298,165.50636743125,165.80783735625,76.0,111.0
299,165.94754293124998,166.16813068125,76.0,108.0
300,166.16813068125,166.38871843125,76.0,108.0
301,166.38871843125,166.50820346249998,74.0,111.0
302,166.60930618125,166.717761825,76.0,111.0
303,166.82989393125,166.9787906625,78.0,116.0
304,167.05048168125,167.56518643125,76.0,114.0
305,167.71224493124998,167.8611416625,76.0,112.0
306,167.93283268125,168.05783240625,76.0,108.0
307,168.15342043125,168.3096700875,74.0,102.0
308,168.37400818125,168.46959620625,71.0,100.0
309,168.59459593125,168.69018395625,71.0,100.0
310,168.81518368125,168.923639325,71.0,102.0
311,169.03577143125,169.15341823125,71.0,102.0
312,169.25635918125,169.37768244375,71.0,100.0
313,169.47694693124998,169.60746135,69.0,94.0
314,169.69753468125,171.085399275,71.0,105.0
315,171.46223668125,171.6184863375,64.0,105.0
316,171.68282443125,171.99044187083334,76.0,111.0
317,172.1276819625,172.389179975,76.0,111.0
318,172.5727849625,172.90475761666667,76.0,105.0
319,173.0178879625,173.15698265,76.0,108.0
320,173.2404394625,173.4073530875,76.0,100.0
321,173.46299096250002,173.58724888333333,74.0,111.0
322,173.6855424625,173.80052740416667,76.0,111.0
323,173.9080939625,174.08242597083333,78.0,112.0
324,174.1306454625,174.56276629166666,76.0,117.0
325,174.5757484625,175.0208514625,76.0,111.0
326,175.0208514625,175.171073725,76.0,105.0
327,175.2434029625,175.4659544625,74.0,105.0
328,175.4659544625,175.68850596250002,71.0,114.0
329,175.68850596250002,175.82389145833335,71.0,108.0
330,175.9110574625,176.02604240416667,71.0,97.0
331,176.1336089625,176.24859390416668,71.0,108.0
332,176.35616046250001,176.4674362125,71.0,102.0
333,176.57789373333333,176.68818760833332,69.0,111.0
334,176.79848148333332,177.9124496208333,71.0,111.0
335,178.34259573333333,178.47127192083332,74.0,114.0
336,178.56318348333332,178.6973743645833,71.0,108.0
337,178.7837712333333,179.06869707708333,69.0,114.0
338,179.22494673333333,179.32053475833334,69.0,108.0
339,179.44553448333332,179.60178413958332,69.0,111.0
340,179.6661222333333,179.99516562708334,71.0,117.0
341,180.10729773333333,180.24516507708333,69.0,111.0
342,180.32788548333332,180.4271499708333,67.0,114.0
343,180.5484732333333,180.67347295833332,71.0,108.0
344,180.76906098333333,181.45472123958334,74.0,108.0
345,182.09258748333332,182.2267783645833,64.0,117.0
346,182.3131752333333,182.43266026458332,76.0,108.0
347,182.53376298333333,182.63854216458333,76.0,111.0
348,182.75435073333333,182.84993875833334,76.0,102.0
349,182.97493848333332,183.07604120208333,76.0,105.0
350,183.1955262333333,183.31501126458332,76.0,105.0
351,183.41611398333333,183.56317248333332,78.0,112.0
352,183.63670173333333,183.76905438333333,76.0,111.0
353,183.85728948333332,184.00434798333333,74.0,114.0
354,184.0778772333333,185.22677176458333,71.0,117.0
355,185.40140373333332,185.54478577083333,74.0,105.0
356,185.62199148333332,185.75434413333332,71.0,102.0
357,185.8425792333333,186.13669623333334,69.0,114.0
358,186.28375473333332,186.41794561458332,69.0,108.0
359,186.50434248333332,186.89588573958332,69.0,120.0
360,186.94551798333333,187.28926722708331,69.0,117.0
361,187.38669348333332,187.50985497708334,67.0,108.0
362,187.6072812333333,187.77823673958332,71.0,108.0
363,187.82786898333333,188.26904448333332,66.0,111.0
364,188.26904448333332,188.56316148333332,66.0,109.0
365,188.71021998333333,188.82051385833333,66.0,105.0
366,188.93080773333332,189.05948392083332,66.0,105.0
367,189.15139548333332,189.28007167083334,62.0,102.0
368,189.3719832333333,189.46757125833332,64.0,111.0
369,189.59257098333333,189.69367370208332,64.0,108.0
370,189.81315873333332,189.92712907083333,64.0,105.0
371,190.03374648333332,190.15506974583332,64.0,108.0
372,190.25433423333334,190.37933395833332,62.0,102.0
373,190.47492198333333,190.57602470208332,64.0,111.0
374,190.69550973333332,191.1366852333333,66.0,102.0
375,191.1366852333333,192.46021173333332,64.0,114.0
376,192.9013872333333,193.9914583645833,80.0,116.0
377,194.22491373333332,194.37748692708334,79.0,108.0
378,194.44550148333332,194.6660892333333,77.0,117.0
379,194.6660892333333,195.6697634958333,72.0,114.0
380,195.76902798333333,195.98961573333332,77.0,114.0
381,195.98961573333332,196.12380661458332,77.0,105.0
382,196.21020348333332,196.31682089583333,75.0,116.0
383,196.4307912333333,196.53924687708331,72.0,108.0
384,196.87196673333332,196.99145176458333,72.0,102.0
385,197.09255448333332,197.21203951458332,70.0,97.0
386,197.31314223333334,197.48409773958332,68.0,100.0
387,197.53372998333333,197.82417052083332,70.0,112.0
388,197.97490548333332,199.73225455833332,72.0,111.0
389,199.9601952333333,200.88482555208333,77.0,111.0
390,201.06313398333333,201.37930975833333,75.0,116.0
391,201.50430948333332,201.67894145208334,72.0,102.0
392,201.7248972333333,202.00982307708333,70.0,112.0
393,202.16607273333332,202.61460115833333,72.0,111.0
394,203.04842373333332,203.28187910208334,68.0,116.0
395,203.26901148333332,203.39401120833332,70.0,116.0
396,203.4895992333333,203.7653339208333,72.0,108.0
397,203.93077473333332,204.0594509208333,72.0,105.0
398,204.15136248333332,204.23775935208332,70.0,112.0
399,204.37195023333334,204.5043028833333,68.0,112.0
400,204.59253798333333,204.86827267083333,70.0,116.0
401,205.03371348333332,206.92525343958332,67.0,120.0
402,207.0190032333333,208.1090743645833,80.0,116.0
403,208.34252973333332,208.49510292708334,79.0,108.0
404,208.56311748333331,208.7837052333333,77.0,117.0
405,208.7837052333333,209.7873794958333,72.0,114.0
406,209.88664398333333,210.10723173333332,77.0,114.0
407,210.10723173333332,210.2414226145833,77.0,105.0
408,210.32781948333331,210.43443689583333,75.0,116.0
409,210.5484072333333,210.6568628770833,72.0,108.0
410,210.98958273333332,211.10906776458333,72.0,102.0
411,211.21017048333331,211.32965551458332,70.0,97.0
412,211.43075823333334,211.60171373958332,68.0,100.0
413,211.65134598333333,211.94178652083332,70.0,112.0
414,212.09252148333331,213.84987055833332,72.0,111.0
415,214.0778112333333,215.00244155208333,77.0,111.0
416,215.18074998333333,215.49692575833333,75.0,116.0
417,215.6219254833333,215.79655745208333,72.0,102.0
418,215.8425132333333,216.12743907708332,70.0,112.0
419,216.28368873333332,216.73221715833333,72.0,111.0
420,217.16603973333332,217.39949510208334,68.0,116.0
421,217.3866274833333,217.51162720833332,70.0,116.0
422,217.6072152333333,217.8829499208333,72.0,108.0
423,218.04839073333332,218.17706692083334,72.0,105.0
424,218.2689784833333,218.3553753520833,70.0,112.0
425,218.48956623333333,218.6219188833333,68.0,112.0
426,218.71015398333333,218.98588867083333,70.0,116.0
427,219.1513294833333,221.0428694395833,67.0,120.0
