,start,end,pitch,velocity
0,0.42646965,0.6948514124999999,64.0,100.0
1,0.86764515,0.977939025,64.0,108.0
2,0.6470574,1.13786514375,59.0,84.0
3,1.0882329,1.3639675875,64.0,92.0
4,1.30882065,1.5735259499999998,59.0,71.0
5,1.5294084,1.7591873062499999,64.0,78.0
6,1.9705838999999998,2.0919071625,64.0,94.0
7,1.7499961499999999,2.2610244374999997,59.0,82.0
8,2.19117165,2.60845014375,66.0,116.0
9,2.6323471499999997,2.74815571875,64.0,82.0
10,2.4117593999999998,2.93197884375,59.0,78.0
11,2.8529348999999997,3.1213166625,66.0,109.0
12,3.0735226499999997,3.1580812875,59.0,67.0
13,0.42646965,3.7352859,40.0,93.0
14,3.51469815,3.75918290625,64.0,102.0
15,0.42646965,3.84741800625,52.0,105.0
16,3.7352859,3.8492562374999997,66.0,109.0
17,3.2941104,3.86947678125,59.0,73.0
18,3.95587365,4.257343575,67.0,102.0
19,4.39704915,4.477931325,64.0,76.0
20,4.1764614,4.6801367625,59.0,45.0
21,4.6176369,5.0294007,64.0,94.0
22,4.6176369,5.1470475,67.0,100.0
23,5.27940015,5.5293996,64.0,105.0
24,3.95587365,5.5992523875,52.0,100.0
25,5.4999879,5.63785524375,67.0,97.0
26,5.0588124,5.67461986875,59.0,84.0
27,5.72057565,6.17829523125,66.0,112.0
28,6.16175115,6.272045025,62.0,82.0
29,5.9411634,6.4209417562499995,59.0,66.0
30,6.3823389,7.06799915625,66.0,116.0
31,7.04410215,7.19116065,62.0,71.0
32,3.95587365,7.2646899,40.0,93.0
33,6.8235144,7.433807175,59.0,80.0
34,7.2646899,7.4448365625,66.0,93.0
35,5.72057565,7.49814526875,52.0,94.0
36,7.48527765,7.49814526875,52.0,105.0
37,7.48527765,7.753659412499999,64.0,100.0
38,7.9264531499999995,8.036747025,64.0,108.0
39,7.7058653999999995,8.19667314375,59.0,84.0
40,8.1470409,8.4227755875,64.0,92.0
41,8.36762865,8.63233395,59.0,71.0
42,8.5882164,8.81799530625,64.0,78.0
43,9.0293919,9.1507151625,64.0,94.0
44,8.80880415,9.319832437499999,59.0,82.0
45,9.24997965,9.667258143749999,66.0,116.0
46,9.69115515,9.80696371875,64.0,82.0
47,9.4705674,9.99078684375,59.0,78.0
48,9.9117429,10.180124662499999,66.0,109.0
49,10.13233065,10.216889287499999,59.0,67.0
50,7.48527765,10.7940939,40.0,93.0
51,10.57350615,10.81799090625,64.0,102.0
52,10.7940939,10.9080642375,66.0,109.0
53,10.3529184,10.92828478125,59.0,73.0
54,11.01468165,11.316151575,67.0,102.0
55,11.45585715,11.536739325,64.0,76.0
56,11.2352694,11.7389447625,59.0,45.0
57,11.6764449,12.0882087,64.0,94.0
58,11.6764449,12.2058555,67.0,100.0
59,12.33820815,12.588207599999999,64.0,105.0
60,11.01468165,12.658060387499999,52.0,100.0
61,12.5587959,12.696663243749999,67.0,97.0
62,12.1176204,12.733427868749999,59.0,84.0
63,12.77938365,13.23710323125,66.0,112.0
64,13.22055915,13.330853025,62.0,82.0
65,12.9999714,13.47974975625,59.0,66.0
66,13.4411469,14.126807156249999,66.0,116.0
67,14.10291015,14.24996865,62.0,71.0
68,11.01468165,14.3234979,40.0,93.0
69,13.8823224,14.492615175,59.0,80.0
70,14.3234979,14.5036445625,66.0,93.0
71,12.77938365,14.55695326875,52.0,94.0
72,14.54408565,14.55695326875,52.0,97.0
73,14.54408565,14.683791225,59.0,92.0
74,14.54408565,14.85842319375,67.0,89.0
75,14.7646734,15.07349625,59.0,84.0
76,14.98526115,15.124966725,64.0,76.0
77,15.2058489,15.507318824999999,67.0,108.0
78,14.54408565,16.169082075,40.0,97.0
79,16.0881999,16.37312574375,59.0,84.0
80,16.30878765,16.62680165625,67.0,100.0
81,16.74996315,16.85106586875,64.0,92.0
82,16.5293754,16.8639334875,59.0,84.0
83,16.9705509,17.47606449375,67.0,108.0
84,16.30878765,17.49812326875,40.0,111.0
85,16.30878765,17.49812326875,52.0,111.0
86,17.4117264,17.65621115625,64.0,114.0
87,17.63231415,17.7646668,59.0,100.0
88,18.07348965,18.31062148125,55.0,82.0
89,18.07348965,18.3933418875,62.0,87.0
90,18.51466515,18.67091480625,55.0,87.0
91,18.2940774,18.8271644625,50.0,64.0
92,18.7352529,19.2168694875,67.0,117.0
93,19.1764284,19.477898324999998,62.0,84.0
94,19.39701615,19.705839,55.0,60.0
95,18.07348965,19.7315742375,31.0,102.0
96,18.07348965,19.7315742375,43.0,102.0
97,18.95584065,19.7462800875,50.0,57.0
98,19.83819165,20.0918675625,55.0,9.0
99,20.27936715,20.38782279375,55.0,57.0
100,19.6176039,20.404366875,62.0,84.0
101,20.0587794,20.601057618749998,50.0,52.0
102,20.4999549,20.79958659375,55.0,97.0
103,20.4999549,20.83267475625,62.0,92.0
104,20.4999549,21.03488019375,67.0,100.0
105,19.83819165,21.058777199999998,31.0,94.0
106,19.83819165,21.058777199999998,43.0,94.0
107,20.72054265,21.07348305,50.0,69.0
108,20.9411304,21.213188625,55.0,92.0
109,21.16171815,21.28487964375,62.0,80.0
110,21.60289365,21.7683344625,59.0,89.0
111,21.60289365,21.874951875,64.0,89.0
112,21.8234814,22.12311309375,59.0,87.0
113,22.04406915,22.362083156249998,64.0,80.0
114,22.2646569,22.73708233125,67.0,102.0
115,22.7058324,23.02016994375,64.0,97.0
116,22.92642015,23.198478375,59.0,78.0
117,21.60289365,23.24075769375,40.0,97.0
118,21.60289365,23.24075769375,52.0,97.0
119,23.1470079,23.85840339375,67.0,100.0
120,23.5881834,23.869432781249998,59.0,78.0
121,23.80877115,24.117594,64.0,76.0
122,24.0293589,24.15252039375,59.0,67.0
123,24.24994665,24.411711,59.0,102.0
124,24.4705344,24.70766623125,59.0,80.0
125,24.24994665,24.71869561875,67.0,102.0
126,23.36759565,24.772004324999997,40.0,102.0
127,23.36759565,24.772004324999997,52.0,102.0
128,24.691122149999998,24.801416024999998,64.0,100.0
129,25.132297649999998,25.38045886875,55.0,89.0
130,25.132297649999998,25.50545859375,59.0,87.0
131,25.573473149999998,25.7352375,55.0,84.0
132,25.352885399999998,25.882296,50.0,66.0
133,25.794060899999998,26.128618987499998,62.0,102.0
134,26.235236399999998,26.286706875,62.0,14.0
135,26.455824149999998,26.57163271875,55.0,52.0
136,25.132297649999998,26.771999925,31.0,102.0
137,25.132297649999998,26.771999925,43.0,102.0
138,26.014648649999998,26.8050880875,50.0,76.0
139,26.676411899999998,27.39699855,62.0,97.0
140,27.338175149999998,27.5109688875,55.0,47.0
141,27.117587399999998,27.665380312499998,50.0,64.0
142,26.235236399999998,28.25177608125,67.0,100.0
143,27.999938399999998,28.2683201625,55.0,84.0
144,27.558762899999998,28.2830260125,62.0,84.0
145,28.220526149999998,28.47236383125,59.0,80.0
146,26.896999649999998,28.48706968125,31.0,94.0
147,26.896999649999998,28.48706968125,43.0,94.0
148,27.779350649999998,28.521996075,50.0,82.0
149,28.441113899999998,28.521996075,55.0,57.0
150,28.661701649999998,29.1469947,57.0,89.0
151,28.661701649999998,29.192950481249998,60.0,94.0
152,29.102877149999998,29.42089115625,52.0,66.0
153,29.323464899999998,29.797728562499998,57.0,105.0
154,29.764640399999998,30.075301481249998,60.0,111.0
155,28.661701649999998,30.13044841875,33.0,108.0
156,28.661701649999998,30.13044841875,45.0,108.0
157,29.544052649999998,30.32162446875,52.0,58.0
158,30.426403649999997,30.937431937499998,59.0,92.0
159,30.426403649999997,31.09000513125,62.0,97.0
160,30.867579149999997,31.2094901625,54.0,19.0
161,31.308754649999997,31.551401175,54.0,63.0
162,31.088166899999997,31.5918422625,66.0,105.0
163,30.426403649999997,31.685592056249998,35.0,102.0
164,30.426403649999997,31.685592056249998,47.0,102.0
165,31.529342399999997,31.783018312499998,62.0,114.0
166,31.749930149999997,32.03485599375,59.0,84.0
167,31.970517899999997,32.09367939375,62.0,84.0
168,32.63228115,32.86573651875,59.0,58.0
169,32.19110565,32.90250114375,64.0,92.0
170,32.8528689,33.37676480625,67.0,105.0
171,32.19110565,33.73338166875,40.0,97.0
172,32.19110565,33.73338166875,52.0,97.0
173,33.51463215,33.757278675,59.0,82.0
174,33.2940444,33.79588153125,64.0,105.0
175,33.95580765,34.25543934375,59.0,94.0
176,33.95580765,34.67087960625,62.0,87.0
177,34.6175709,34.90249674375,59.0,100.0
178,34.39698315,34.9153643625,54.0,65.0
179,35.0587464,35.27749591875,54.0,87.0
180,33.95580765,35.374922175,35.0,102.0
181,33.95580765,35.374922175,47.0,102.0
182,34.83815865,35.4447749625,66.0,109.0
183,35.27933415,35.566098225,59.0,94.0
184,35.4999219,35.60470108125,62.0,80.0
185,35.72050965,35.963156175,57.0,82.0
186,35.72050965,36.115729368749996,60.0,84.0
187,36.16168515,36.31058188125,57.0,71.0
188,35.9410974,36.4410963,52.0,52.0
189,36.3822729,37.05322730625,69.0,102.0
190,36.8234484,37.104697781249996,64.0,105.0
191,35.72050965,37.139624175,33.0,102.0
192,35.72050965,37.139624175,45.0,102.0
193,36.60286065,37.1469771,52.0,76.0
194,37.04403615,37.2352122,60.0,89.0
195,37.2646239,37.3418296125,57.0,76.0
196,37.48521165,37.98521055,59.0,87.0
197,37.48521165,38.04219571875,62.0,87.0
198,38.367562649999996,38.61940033125,54.0,79.0
199,38.1469749,38.6580031875,66.0,102.0
200,37.48521165,38.828958693749996,35.0,94.0
201,37.48521165,38.828958693749996,47.0,94.0
202,38.588150399999996,38.860208625,62.0,105.0
203,38.808738149999996,39.0624140625,59.0,92.0
204,39.249913649999996,39.498074868749995,59.0,92.0
205,39.249913649999996,39.85101526875,64.0,100.0
206,39.691089149999996,39.8638828875,59.0,58.0
207,39.911676899999996,40.373072943749996,67.0,114.0
208,40.352852399999996,40.610204775,64.0,92.0
209,39.249913649999996,40.91718939375,40.0,100.0
210,39.249913649999996,40.91718939375,52.0,100.0
211,40.573440149999996,40.92638055,59.0,100.0
212,41.014615649999996,41.19660054375,59.0,78.0
213,41.014615649999996,41.46865876875,64.0,84.0
214,41.455791149999996,41.59365849375,59.0,92.0
215,41.014615649999996,41.79218746875,40.0,97.0
216,41.014615649999996,41.79218746875,52.0,97.0
217,41.676378899999996,41.963142975,59.0,97.0
218,41.676378899999996,41.9815252875,67.0,108.0
219,42.117554399999996,42.431891943749996,67.0,108.0
220,41.896966649999996,42.624906225,40.0,89.0
221,41.896966649999996,42.624906225,52.0,89.0
222,42.558729899999996,42.771964725,59.0,71.0
223,42.779317649999996,42.919023225,59.0,92.0
224,42.779317649999996,43.093655193749996,67.0,89.0
225,42.999905399999996,43.30872825,59.0,84.0
226,43.220493149999996,43.360198725,64.0,76.0
227,43.441080899999996,43.742550824999995,67.0,108.0
228,42.779317649999996,44.404314074999995,40.0,97.0
229,42.779317649999996,44.404314074999995,52.0,97.0
230,44.323431899999996,44.60931812916666,59.0,84.0
231,44.544019649999996,44.866780704166665,67.0,100.0
232,44.991780649999995,45.09439254583333,64.0,92.0
233,44.767900149999996,45.107452241666664,59.0,84.0
234,45.215661149999995,45.72872062916666,67.0,108.0
235,44.544019649999996,45.75110867916666,40.0,111.0
236,44.544019649999996,45.75110867916666,52.0,111.0
237,45.663422149999995,45.91155637083333,64.0,114.0
238,45.887302649999995,46.021630949999995,59.0,100.0
239,46.335063649999995,46.575735187499994,55.0,82.0
240,46.335063649999995,46.659690375,62.0,87.0
241,46.782824649999995,46.93923894375,55.0,87.0
242,46.558944149999995,47.095488599999996,50.0,64.0
243,47.003577037499994,47.485193624999994,67.0,117.0
244,47.444752537499994,47.74622246249999,62.0,84.0
245,47.665340287499994,47.9741631375,55.0,60.0
246,46.335063649999995,47.999898374999994,31.0,102.0
247,46.335063649999995,47.999898374999994,43.0,102.0
248,47.224164787499994,48.014604225,50.0,57.0
249,48.106515787499994,48.360191699999994,55.0,9.0
250,48.547691287499994,48.65614693125,55.0,57.0
251,47.885928037499994,48.672691012499996,62.0,84.0
252,48.327103537499994,48.86938175624999,50.0,52.0
253,48.768279037499994,49.067910731249995,55.0,97.0
254,48.768279037499994,49.100998893749995,62.0,92.0
255,48.768279037499994,49.303204331249994,67.0,100.0
256,48.106515787499994,49.3271013375,31.0,94.0
257,48.106515787499994,49.3271013375,43.0,94.0
258,48.988866787499994,49.341807187499995,50.0,69.0
259,49.209454537499994,49.481512762499996,55.0,92.0
260,49.430042287499994,49.55320378125,62.0,80.0
261,49.871217787499994,50.036658599999996,59.0,89.0
262,49.871217787499994,50.143276012499996,64.0,89.0
263,50.091805537499994,50.391437231249995,59.0,87.0
264,50.312393287499994,50.63040729375,64.0,80.0
265,50.532981037499994,51.005406468749996,67.0,102.0
266,50.974156537499994,51.28849408124999,64.0,97.0
267,51.194744287499994,51.466802512499996,59.0,78.0
268,49.871217787499994,51.50908183125,40.0,97.0
269,49.871217787499994,51.50908183125,52.0,97.0
270,51.415332037499994,52.12672753125,67.0,100.0
271,51.85650753749999,52.13775691875,59.0,78.0
272,52.07709528749999,52.3859181375,64.0,76.0
273,52.29768303749999,52.42084453125,59.0,67.0
274,52.51827078749999,52.6800351375,59.0,102.0
275,52.73885853749999,52.97599036875,59.0,80.0
276,52.51827078749999,52.98701975624999,67.0,102.0
277,51.635919787499994,53.0403284625,40.0,102.0
278,51.635919787499994,53.0403284625,52.0,102.0
279,52.95944628749999,53.0697401625,64.0,100.0
280,53.4006217875,53.64878300625,55.0,89.0
281,53.4006217875,53.773782731249995,59.0,87.0
282,53.8417972875,54.0035616375,55.0,84.0
283,53.62120953749999,54.1506201375,50.0,66.0
284,54.06238503749999,54.39694312499999,62.0,102.0
285,54.50356053749999,54.555031012499995,62.0,14.0
286,54.7241482875,54.83995685625,55.0,52.0
287,53.4006217875,55.0403240625,31.0,102.0
288,53.4006217875,55.0403240625,43.0,102.0
289,54.2829727875,55.073412225,50.0,76.0
290,54.94473603749999,55.665322687499994,62.0,97.0
291,55.6064992875,55.779293024999994,55.0,47.0
292,55.38591153749999,55.93370444999999,50.0,64.0
293,54.50356053749999,56.520100218749995,67.0,100.0
294,56.26826253749999,56.5366443,55.0,84.0
295,55.82708703749999,56.55135015,62.0,84.0
296,56.4888502875,56.740687968749995,59.0,80.0
297,55.1653237875,56.755393818749994,31.0,94.0
298,55.1653237875,56.755393818749994,43.0,94.0
299,56.0476747875,56.79032021249999,50.0,82.0
300,56.70943803749999,56.79032021249999,55.0,57.0
301,56.9300257875,57.415318837499996,57.0,89.0
302,56.9300257875,57.46127461875,60.0,94.0
303,57.3712012875,57.689215293749996,52.0,66.0
304,57.59178903749999,58.0660527,57.0,105.0
305,58.03296453749999,58.343625618749996,60.0,111.0
306,56.9300257875,58.398772556249995,33.0,108.0
307,56.9300257875,58.398772556249995,45.0,108.0
308,57.8123767875,58.58994860625,52.0,58.0
309,58.6947277875,59.205756075,59.0,92.0
310,58.6947277875,59.35832926875,62.0,97.0
311,59.1359032875,59.4778143,54.0,19.0
312,59.5770787875,59.8197253125,54.0,63.0
313,59.35649103749999,59.8601664,66.0,105.0
314,58.6947277875,59.95391619375,35.0,102.0
315,58.6947277875,59.95391619375,47.0,102.0
316,59.79766653749999,60.05134244999999,62.0,114.0
317,60.0182542875,60.303180131249995,59.0,84.0
318,60.23884203749999,60.36200353125,62.0,84.0
319,60.9006052875,61.13406065625,59.0,58.0
320,60.4594297875,61.170825281249996,64.0,92.0
321,61.12119303749999,61.64508894375,67.0,105.0
322,60.4594297875,62.001705806249994,40.0,97.0
323,60.4594297875,62.001705806249994,52.0,97.0
324,61.7829562875,62.0256028125,59.0,82.0
325,61.56236853749999,62.06420566875,64.0,105.0
326,62.2241317875,62.52376348125,59.0,94.0
327,62.2241317875,62.93920374375,62.0,87.0
328,62.88589503749999,63.170820881249995,59.0,100.0
329,62.6653072875,63.183688499999995,54.0,65.0
330,63.32707053749999,63.545820056249994,54.0,87.0
331,62.2241317875,63.6432463125,35.0,102.0
332,62.2241317875,63.6432463125,47.0,102.0
333,63.1064827875,63.713099099999994,66.0,109.0
334,63.5476582875,63.83442236249999,59.0,94.0
335,63.76824603749999,63.87302521875,62.0,80.0
336,63.9888337875,64.2314803125,57.0,82.0
337,63.9888337875,64.38405350625,60.0,84.0
338,64.4300092875,64.57890601874999,57.0,71.0
339,64.20942153749999,64.7094204375,52.0,52.0
340,64.65059703749999,65.32155144375,69.0,102.0
341,65.09177253749999,65.37302191875,64.0,105.0
342,63.9888337875,65.4079483125,33.0,102.0
343,63.9888337875,65.4079483125,45.0,102.0
344,64.8711847875,65.41530123749999,52.0,76.0
345,65.3123602875,65.5035363375,60.0,89.0
346,65.53294803749999,65.61015375,57.0,76.0
347,65.7535357875,66.2535346875,59.0,87.0
348,65.7535357875,66.31051985625,62.0,87.0
349,66.6358867875,66.88772446875,54.0,79.0
350,66.41529903749999,66.92632732499999,66.0,102.0
351,65.7535357875,67.09728283125,35.0,94.0
352,65.7535357875,67.09728283125,47.0,94.0
353,66.85647453749999,67.1285327625,62.0,105.0
354,67.0770622875,67.3307382,59.0,92.0
355,67.5182377875,67.76639900625,59.0,92.0
356,67.5182377875,68.11933940624999,64.0,100.0
357,67.9594132875,68.132207025,59.0,58.0
358,68.18000103749999,68.64139708124999,67.0,114.0
359,68.62117653749999,68.8785289125,64.0,92.0
360,67.5182377875,69.18551353125,40.0,100.0
361,67.5182377875,69.18551353125,52.0,100.0
362,68.8417642875,69.19470468749999,59.0,100.0
363,69.2829397875,69.46492468125,59.0,78.0
364,69.2829397875,69.73698290624999,64.0,84.0
365,69.7241152875,69.86198263125,59.0,92.0
366,69.2829397875,70.06051160625,40.0,97.0
367,69.2829397875,70.06051160625,52.0,97.0
368,69.94470303749999,70.2314671125,59.0,97.0
369,69.94470303749999,70.249849425,67.0,108.0
370,70.38587853749999,70.70021608124999,67.0,108.0
371,70.1652907875,70.89323036249999,40.0,89.0
372,70.1652907875,70.89323036249999,52.0,89.0
373,70.82705403749999,71.04028886249999,59.0,71.0
374,71.0476417875,71.5954347,53.0,92.0
375,71.0476417875,71.62852286249999,60.0,92.0
376,71.70940503749999,71.8491106125,56.0,102.0
377,71.70940503749999,71.85830176875,53.0,29.0
378,71.9299927875,71.99065441875,53.0,41.0
379,71.4888172875,72.03477196875,48.0,80.0
380,71.9299927875,72.426315225,65.0,111.0
381,72.15058053749999,72.6799911375,48.0,62.0
382,72.3711682875,72.691020525,53.0,87.0
383,71.0476417875,72.72962338125,29.0,105.0
384,71.0476417875,72.72962338125,41.0,105.0
385,72.59175603749999,72.749843925,56.0,93.0
386,72.8123437875,73.2976368375,53.0,71.0
387,72.8123437875,73.33256323124999,56.0,79.0
388,72.8123437875,73.35094554375,60.0,102.0
389,73.2535192875,73.54028336249999,48.0,45.0
390,73.47410703749999,73.72594471875,53.0,87.0
391,73.47410703749999,73.79395927499999,56.0,96.0
392,73.47410703749999,73.81785628124999,60.0,97.0
393,73.47410703749999,73.87484144999999,65.0,97.0
394,73.6946947875,74.08072335,48.0,64.0
395,72.8123437875,74.12667913125,29.0,97.0
396,72.8123437875,74.12667913125,41.0,97.0
397,73.91528253749999,74.1873407625,53.0,97.0
398,74.1358702875,74.52741354375,55.0,120.0
399,74.5770457875,74.6726338125,56.0,112.0
400,75.0182212875,75.146897475,56.0,63.0
401,74.79763353749999,75.3638087625,51.0,63.0
402,75.23880903749999,75.4189557,56.0,82.0
403,75.23880903749999,75.43549978125,60.0,102.0
404,74.5770457875,75.5917494375,32.0,96.0
405,74.5770457875,75.5917494375,44.0,96.0
406,75.9005722875,76.0476307875,56.0,87.0
407,76.12116003749999,76.47961513125,56.0,25.0
408,75.9005722875,76.61932070625,60.0,92.0
409,75.9005722875,76.79579090624999,63.0,96.0
410,76.7829232875,76.89689362499999,56.0,96.0
411,76.56233553749999,77.0917461375,51.0,68.0
412,76.3417477875,77.10461375624999,32.0,105.0
413,76.3417477875,77.10461375624999,44.0,105.0
414,77.0035110375,77.2461575625,60.0,108.0
415,77.0035110375,77.30865742499999,63.0,93.0
416,77.0035110375,77.31233388749999,56.0,102.0
417,77.2240987875,77.3564514375,51.0,72.0
418,77.44468653749999,77.56417156875,56.0,99.0
419,77.44468653749999,77.588068575,60.0,105.0
420,77.44468653749999,77.63953905,63.0,105.0
421,78.1064497875,78.3490963125,53.0,89.0
422,78.1064497875,78.43549318125,56.0,90.0
423,78.1064497875,78.455713725,60.0,73.0
424,78.5476252875,78.64688977499999,53.0,105.0
425,78.32703753749999,78.808654125,48.0,71.0
426,78.7682130375,79.029241875,55.0,114.0
427,78.9888007875,79.25718255,48.0,58.0
428,79.20938853749999,79.36747642499999,56.0,109.0
429,79.20938853749999,79.39137343125,53.0,92.0
430,79.4299762875,79.66894635,48.0,58.0
431,78.1064497875,79.6799757375,29.0,102.0
432,78.1064497875,79.6799757375,41.0,102.0
433,79.6505640375,79.98696035625,60.0,108.0
434,79.6505640375,80.00534266874999,53.0,89.0
435,80.3123272875,80.42629762499999,53.0,69.0
436,80.09173953749999,80.61195898125,48.0,64.0
437,80.5329150375,80.793943875,65.0,97.0
438,80.5329150375,80.79945856875,56.0,112.0
439,80.5329150375,80.81048795625,53.0,97.0
440,80.7535027875,80.85828196874999,48.0,84.0
441,80.97409053749999,81.14504604375,48.0,94.0
442,79.8711517875,81.20019298125,29.0,97.0
443,79.8711517875,81.20019298125,41.0,97.0
444,81.1946782875,81.34357501874999,53.0,120.0
445,81.4152660375,81.67813310624999,55.0,100.0
446,81.6358537875,81.749824125,56.0,112.0
447,82.2976170375,82.46489608125,56.0,102.0
448,81.6358537875,82.7755571625,32.0,109.0
449,81.6358537875,82.7755571625,44.0,109.0
450,82.0770292875,82.78842478125,51.0,102.0
451,82.73879253749999,82.90055688749999,60.0,114.0
452,82.73879253749999,82.93548328124999,56.0,109.0
453,82.73879253749999,82.96305674999999,63.0,112.0
454,82.9593802875,83.058644775,51.0,93.0
455,83.4005557875,83.6284964625,60.0,102.0
456,83.4005557875,83.69099632499999,64.0,105.0
457,83.8417312875,83.92812815625,60.0,97.0
458,83.62114353749999,84.102760125,55.0,71.0
459,84.0623190375,84.29577440624999,67.0,114.0
460,84.0623190375,84.323347875,60.0,120.0
461,84.2829067875,84.558641475,55.0,105.0
462,83.4005557875,84.5770237875,48.0,102.0
463,84.50349453749999,84.6432001125,60.0,117.0
464,84.50349453749999,84.7902586125,64.0,120.0
465,84.50349453749999,84.97591996874999,67.0,114.0
466,84.7240822875,84.985111125,60.0,89.0
467,84.9446700375,85.14503724375,64.0,100.0
468,85.6064332875,85.7534917875,53.0,102.0
469,85.38584553749999,85.89503559375,48.0,87.0
470,85.8270210375,86.08069695,65.0,100.0
471,85.8270210375,86.102755725,53.0,94.0
472,86.0476087875,86.73326904375,48.0,69.0
473,86.26819653749999,86.76635720624999,60.0,105.0
474,85.1652577875,86.7902542125,29.0,105.0
475,85.1652577875,86.7902542125,41.0,105.0
476,86.7093720375,86.84723938125,53.0,69.0
477,86.9299597875,87.38767936874999,53.0,82.0
478,86.9299597875,87.53657609999999,65.0,94.0
479,87.5917230375,87.77370793124999,53.0,89.0
480,87.8123107875,87.87481065,53.0,80.0
481,87.3711352875,87.87664888124999,48.0,66.0
482,87.8123107875,88.0402514625,56.0,116.0
483,87.8123107875,88.04944261874999,60.0,120.0
484,87.8123107875,88.06966316249999,65.0,102.0
485,86.9299597875,88.24613336249999,29.0,92.0
486,86.9299597875,88.24613336249999,41.0,92.0
487,88.03289853749999,88.24613336249999,48.0,76.0
488,88.2534862875,88.5953973,55.0,120.0
489,88.6946617875,88.81414681875,56.0,105.0
490,89.1358372875,89.25899878125,56.0,82.0
491,89.3564250375,89.55127755,63.0,99.0
492,89.3564250375,89.6799537375,56.0,90.0
493,89.79760053749999,89.90605618125,60.0,89.0
494,89.79760053749999,89.926276725,56.0,93.0
495,89.79760053749999,89.94649726875,63.0,96.0
496,88.6946617875,90.35642283749999,32.0,96.0
497,88.6946617875,90.35642283749999,44.0,96.0
498,88.91524953749999,90.52002541875,51.0,87.0
499,90.2387760375,90.69098092499999,56.0,112.0
500,90.2387760375,90.896862825,68.0,96.0
501,90.9005392875,91.029215475,56.0,99.0
502,90.67995153749999,91.19833274999999,51.0,63.0
503,90.4593637875,91.37847941249998,32.0,99.0
504,90.4593637875,91.37847941249998,44.0,99.0
505,91.1211270375,91.41708226875,60.0,108.0
506,91.1211270375,91.5255379125,63.0,109.0
507,91.1211270375,91.55127314999999,68.0,93.0
508,91.1211270375,91.588037775,56.0,99.0
509,91.3417147875,91.676272875,51.0,77.0
510,91.56230253749999,91.6873022625,32.0,82.0
511,91.56230253749999,91.6873022625,44.0,82.0
512,92.0034780375,92.2461245625,55.0,97.0
513,92.2240657875,92.50899163125,53.0,89.0
514,92.6652412875,92.86560849374999,53.0,92.0
515,92.8858290375,93.161563725,53.0,57.0
516,92.8858290375,93.20568127499999,65.0,108.0
517,92.44465353749999,93.54943051875,48.0,82.0
518,92.2240657875,93.5953863,29.0,97.0
519,92.2240657875,93.5953863,41.0,97.0
520,93.32700453749999,93.5953863,60.0,100.0
521,93.5475922875,93.867444525,56.0,96.0
522,93.7681800375,93.95384139375,53.0,105.0
523,94.4299432875,94.55310478125,56.0,93.0
524,94.20935553749999,94.7608249125,51.0,87.0
525,94.6505310375,94.89869225625,60.0,105.0
526,93.9887677875,94.90420695,32.0,102.0
527,93.9887677875,94.90420695,44.0,102.0
528,94.6505310375,94.9372951125,56.0,105.0
529,94.6505310375,94.96486858124999,63.0,105.0
530,94.8711187875,95.2424415,51.0,48.0
531,95.09170653749999,95.24427973125,60.0,102.0
532,95.09170653749999,95.31045605624999,56.0,102.0
533,95.09170653749999,95.38214707499999,63.0,102.0
534,95.7534697875,95.98692515625,56.0,85.0
535,95.7534697875,96.0181750875,60.0,94.0
536,95.7534697875,96.23876283749999,63.0,87.0
537,96.1946452875,96.3564096375,56.0,96.0
538,95.97405753749999,96.52736514374999,51.0,61.0
539,95.7534697875,96.63949725,32.0,99.0
540,95.7534697875,96.63949725,44.0,99.0
541,96.4152330375,96.6872912625,56.0,19.0
542,96.4152330375,96.72589411874999,68.0,109.0
543,96.6358207875,96.74611466249999,51.0,90.0
544,96.85640853749999,96.97221710624999,60.0,105.0
545,96.85640853749999,97.17993723749998,63.0,102.0
546,97.0769962875,97.18545193124999,56.0,99.0
547,97.5181717875,97.7314066125,60.0,100.0
548,97.5181717875,97.81412701874999,64.0,97.0
549,97.9593472875,98.088023475,60.0,82.0
550,98.1799350375,98.22772905,60.0,38.0
551,97.73875953749999,98.24427313125,55.0,73.0
552,98.1799350375,98.36927285624999,72.0,123.0
553,98.4005227875,98.6946397875,55.0,76.0
554,98.62111053749999,98.77368373125,67.0,105.0
555,98.62111053749999,98.80677189375,60.0,108.0
556,98.8416982875,99.07515365625,55.0,50.0
557,97.5181717875,99.11008005,36.0,105.0
558,97.5181717875,99.11008005,48.0,105.0
559,99.0622860375,99.15787406249999,60.0,82.0
560,99.2828737875,99.50346153749999,60.0,92.0
561,99.2828737875,99.55493201249999,64.0,102.0
562,99.7240492875,99.79941676874999,60.0,67.0
563,99.50346153749999,100.0034604375,55.0,58.0
564,99.9446370375,100.14868070624999,67.0,100.0
565,99.9446370375,100.15971009375,60.0,100.0
566,100.1652247875,100.44647416875,55.0,73.0
567,100.38581253749999,100.51816518749999,60.0,114.0
568,100.38581253749999,100.6247826,64.0,111.0
569,99.2828737875,100.78654695,36.0,102.0
570,99.2828737875,100.78654695,48.0,102.0
571,100.6064002875,100.86375266249999,55.0,76.0
572,100.8269880375,100.95014953124999,60.0,87.0
573,101.0475757875,101.5365453,60.0,100.0
574,101.0475757875,101.55676584374999,64.0,102.0
575,101.4887512875,101.75529481875,55.0,78.0
576,101.7093390375,101.93727971249999,60.0,44.0
577,101.7093390375,101.94647086875,64.0,73.0
578,101.7093390375,101.96301495,67.0,100.0
579,101.9299267875,102.19830855,55.0,80.0
580,102.15051453749999,102.32514650625,60.0,100.0
581,102.15051453749999,102.35455820625,67.0,100.0
582,102.15051453749999,102.39499929375,72.0,111.0
583,102.15051453749999,102.40419044999999,64.0,102.0
584,101.0475757875,102.56779303125,36.0,102.0
585,101.0475757875,102.56779303125,48.0,102.0
586,102.3711022875,102.6431605125,55.0,69.0
587,102.5916900375,102.74793969375,60.0,87.0
588,102.8122777875,103.30860022499999,60.0,92.0
589,102.8122777875,103.39499709374999,64.0,97.0
590,103.4740410375,103.50529096874999,64.0,25.0
591,102.8122777875,103.54205559374999,67.0,97.0
592,103.4740410375,103.5843349125,60.0,108.0
593,103.2534532875,103.72955518124999,55.0,51.0
594,103.6946287875,103.94279000625,60.0,111.0
595,103.6946287875,103.96301054999999,72.0,108.0
596,103.6946287875,103.96668701249999,64.0,114.0
597,103.6946287875,103.970363475,67.0,120.0
598,104.1358042875,104.22036292499999,64.0,49.0
599,104.1358042875,104.23139231249999,67.0,25.0
600,104.1358042875,104.5181563875,60.0,102.0
601,103.91521653749999,104.57146509374999,55.0,111.0
602,102.8122777875,104.588009175,36.0,100.0
603,102.8122777875,104.588009175,48.0,100.0
604,104.79756753749999,105.35455160625,49.0,93.0
605,105.0181552875,105.50528656875,54.0,93.0
606,105.2387430375,105.50528656875,57.0,105.0
607,105.4593307875,105.7975653375,49.0,61.0
608,105.67991853749999,105.8269770375,57.0,117.0
609,105.67991853749999,105.84719758124999,61.0,93.0
610,105.67991853749999,105.8563887375,54.0,96.0
611,104.5769797875,105.90234451875,42.0,109.0
612,106.3416817875,106.82697483749999,66.0,63.0
613,106.3416817875,106.86190123124999,54.0,105.0
614,106.7828572875,107.02550381249999,49.0,20.0
615,107.0034450375,107.15050353749999,61.0,99.0
616,107.0034450375,107.25160625625,54.0,96.0
617,107.44462053749999,107.53837033125,54.0,99.0
618,107.44462053749999,107.59719373125,57.0,102.0
619,106.3416817875,107.67807590625,42.0,87.0
620,107.44462053749999,107.8589634375,61.0,82.0
621,107.2240327875,107.95784399166666,49.0,54.0
622,107.8869485,108.36642590416666,54.0,102.0
623,108.55859,108.8552316625,54.0,82.0
624,109.006351,109.20038076666667,61.0,90.0
625,109.006351,109.46717169583333,54.0,102.0
626,108.3347095,109.78060439583334,49.0,77.0
627,109.6779925,109.88694763333334,57.0,100.0
628,109.6779925,109.91120135416666,54.0,85.0
629,109.6779925,109.92052970833333,61.0,87.0
630,109.901873,110.15560423333334,49.0,63.0
631,110.1257535,110.204111675,57.0,100.0
632,110.1257535,110.25075344583333,54.0,82.0
633,108.110829,110.338439975,42.0,96.0
634,110.1257535,110.62575328333332,66.0,105.0
635,110.5735145,110.71530548333332,54.0,90.0
636,110.349634,110.93732031249999,49.0,82.0
637,110.797395,110.95224567916667,57.0,105.0
638,110.797395,110.96717104583333,54.0,96.0
639,110.797395,110.99515610833333,61.0,96.0
640,111.02119318125,111.1112665125,42.0,85.0
641,110.797395,111.159060525,66.0,82.0
642,111.24178093124999,111.3612659625,54.0,112.0
643,111.24178093124999,111.40722174375,66.0,2.0
644,111.68295643124999,112.16457301874999,63.0,68.0
645,111.68295643124999,112.20133764375,66.0,105.0
646,111.68295643124999,112.25096988749999,70.0,72.0
647,112.34471968125,112.467881175,63.0,105.0
648,112.12413193124999,112.6700866125,58.0,72.0
649,112.56530743124999,112.7509687875,63.0,105.0
650,112.56530743124999,112.78957164375,70.0,99.0
651,113.00648293124999,113.08368864375,66.0,105.0
652,113.00648293124999,113.0965562625,63.0,79.0
653,111.68295643124999,113.2730264625,39.0,102.0
654,111.68295643124999,113.2730264625,51.0,102.0
655,112.78589518125,113.3281734,58.0,59.0
656,113.22707068125,113.74729012499999,63.0,105.0
657,113.22707068125,113.75464305,66.0,119.0
658,113.88883393124999,114.01751011875,63.0,87.0
659,113.66824618125,114.18846562499999,58.0,90.0
660,114.10942168125,114.18846562499999,58.0,59.0
661,114.10942168125,114.29508303749999,66.0,112.0
662,114.10942168125,114.2987595,63.0,63.0
663,114.55059718125,114.673758675,70.0,102.0
664,114.55059718125,114.67927336875,63.0,102.0
665,113.44765843124999,114.8281701,39.0,93.0
666,113.44765843124999,114.8281701,51.0,93.0
667,114.77118493124999,114.89618465625,58.0,40.0
668,114.99177268125,115.100228325,63.0,93.0
669,115.21236043124999,115.81897674375,66.0,102.0
670,115.21236043124999,115.88882953125,63.0,96.0
671,115.65353593124999,116.21971115625,58.0,39.0
672,116.09471143124999,116.232578775,63.0,109.0
673,116.09471143124999,116.24176993124999,70.0,99.0
674,116.53588693124999,116.63515141875,63.0,68.0
675,116.31529918125,116.81529808124999,58.0,59.0
676,115.21236043124999,116.83735685625,39.0,96.0
677,115.21236043124999,116.83735685625,51.0,96.0
678,116.75647468125,116.94765073125,66.0,112.0
679,116.75647468125,116.96235658124999,63.0,96.0
680,116.97706243124999,117.26750296875,39.0,99.0
681,116.97706243124999,117.26750296875,51.0,99.0
682,117.19765018125,117.3538998375,70.0,96.0
683,117.19765018125,117.35941453125,63.0,102.0
684,117.63882568125,117.73809016874999,63.0,93.0
685,117.41823793124999,117.94764853125,58.0,93.0
686,117.85941343124999,118.041398325,63.0,102.0
687,117.85941343124999,118.0965452625,66.0,109.0
688,118.08000118125,118.16639805,39.0,70.0
689,118.08000118125,118.16639805,51.0,70.0
690,118.30058893124999,118.38514756875,63.0,116.0
691,118.74176443124999,119.01382265625,53.0,73.0
692,118.74176443124999,119.27485149374999,58.0,79.0
693,118.74176443124999,119.3980129875,61.0,99.0
694,119.18293993124999,119.45499815625,53.0,66.0
695,118.74176443124999,119.7436004625,34.0,102.0
696,118.74176443124999,119.7436004625,46.0,102.0
697,119.62411543125,119.80058563125,53.0,108.0
698,119.62411543125,119.84286494999999,61.0,102.0
699,120.06529093124999,120.1700701125,53.0,84.0
700,120.28587868125,120.5634516,61.0,59.0
701,120.28587868125,120.600216225,58.0,57.0
702,120.28587868125,120.614922075,53.0,78.0
703,120.28587868125,120.67558370625,65.0,97.0
704,120.72705418125,121.01014179375,61.0,112.0
705,120.94764193124999,121.16822968125,58.0,36.0
706,121.16822968125,121.31528818125,53.0,92.0
707,120.50646643125,121.72521375,34.0,109.0
708,120.50646643125,121.72521375,46.0,109.0
709,121.38881743125,121.74175783125,53.0,108.0
710,121.38881743125,121.91638979999999,58.0,112.0
711,121.38881743125,121.96050735,61.0,99.0
712,121.82999293124999,122.14984516874999,53.0,66.0
713,122.27116843125,122.5230061125,53.0,89.0
714,122.27116843125,122.79874079999999,58.0,85.0
715,122.27116843125,122.90351998125,61.0,74.0
716,122.71234393124999,122.95499045625,53.0,55.0
717,123.15351943125,123.4494746625,53.0,114.0
718,122.27116843125,123.49543044375,34.0,93.0
719,122.27116843125,123.49543044375,46.0,93.0
720,123.15351943125,123.57263615625,65.0,92.0
721,123.15351943125,123.58550377499999,58.0,116.0
722,123.15351943125,123.5928567,61.0,99.0
723,123.59469493124999,123.909032475,34.0,70.0
724,123.59469493124999,123.909032475,46.0,70.0
725,123.81528268125,124.05425274375,53.0,100.0
726,123.81528268125,124.12410553125,58.0,109.0
727,124.25645818125,124.61307504375,53.0,92.0
728,123.81528268125,124.76381000625,61.0,99.0
729,124.47704593124999,125.09101516874999,34.0,40.0
730,124.47704593124999,125.09101516874999,46.0,40.0
731,124.91822143125,125.12777979375,53.0,105.0
732,124.91822143125,125.1553532625,58.0,112.0
733,124.91822143125,125.1553532625,61.0,99.0
734,124.91822143125,125.25645598125,65.0,105.0
735,125.35939693124999,125.4494702625,34.0,116.0
736,125.35939693124999,125.4494702625,46.0,116.0
737,125.80057243125,126.20498330625,59.0,97.0
738,125.80057243125,126.3244683375,62.0,97.0
739,125.80057243125,126.39615935625,66.0,93.0
740,126.68292343125,126.90351118125,59.0,102.0
741,126.68292343125,126.91086410625,62.0,108.0
742,126.68292343125,126.91637879999999,66.0,109.0
743,127.12409893124999,127.25461335,59.0,105.0
744,125.80057243125,127.4163777,35.0,105.0
745,125.80057243125,127.4163777,47.0,105.0
746,126.90351118125,127.4935834125,54.0,72.0
747,127.34468668125,127.7215240875,59.0,100.0
748,127.34468668125,127.7399064,62.0,94.0
749,127.34468668125,127.74542109375,66.0,82.0
750,127.34468668125,127.77850925625,71.0,100.0
751,128.00644993125,128.12042026875,59.0,92.0
752,127.78586218125,128.35387563749998,54.0,90.0
753,128.22703768125,128.4494636625,62.0,105.0
754,128.22703768125,128.46049305,59.0,102.0
755,128.44762543125,128.78218351875,54.0,57.0
756,128.66821318125,128.8465216125,62.0,100.0
757,128.66821318125,128.85203630625,59.0,97.0
758,128.66821318125,128.86306569375,66.0,93.0
759,127.56527443125,128.87409508125,35.0,87.0
760,127.56527443125,128.87409508125,47.0,87.0
761,129.32997643125,129.96232798124998,62.0,100.0
762,129.32997643125,129.9641662125,59.0,92.0
763,129.77115193125,130.30423899375,54.0,65.0
764,130.21232743125,130.69394401875,66.0,109.0
765,130.21232743125,130.747252725,59.0,105.0
766,130.65350293125,130.9494581625,54.0,68.0
767,129.32997643125,130.9788698625,35.0,102.0
768,129.32997643125,130.9788698625,47.0,102.0
769,130.87409068124998,131.13511951875,62.0,97.0
770,130.87409068124998,131.14247244375,59.0,94.0
771,130.87409068124998,131.14982536875,66.0,105.0
772,131.31526618125,131.5340157,59.0,97.0
773,131.31526618125,131.5450450875,66.0,102.0
774,131.31526618125,131.5671038625,62.0,100.0
775,131.75644168125,131.89982371874999,59.0,100.0
776,131.53585393125,132.05791160625,54.0,87.0
777,131.97702943125,132.20497010625,66.0,96.0
778,131.97702943125,132.21599949375,59.0,102.0
779,131.97702943125,132.23070534375,62.0,102.0
780,131.97702943125,132.25276411875,71.0,102.0
781,131.09467843125,132.4273960875,35.0,52.0
782,131.09467843125,132.4273960875,47.0,52.0
783,132.19761718125,132.467837175,54.0,85.0
784,132.41820493125,132.56158696875,59.0,111.0
785,132.85938043125,133.1038651875,59.0,100.0
786,132.85938043125,133.37776164375,63.0,82.0
787,132.85938043125,133.54687891875,66.0,74.0
788,133.30055593125,133.6112170125,59.0,78.0
789,133.74173143125,133.91820163124999,59.0,105.0
790,133.74173143125,133.92187809375,63.0,109.0
791,133.74173143125,133.93658394375,66.0,102.0
792,132.85938043125,134.3979799875,35.0,102.0
793,132.85938043125,134.3979799875,47.0,102.0
794,134.18290693125,134.3979799875,59.0,87.0
795,134.18290693125,134.4347446125,63.0,77.0
796,134.18290693125,134.4935680125,66.0,54.0
797,134.62408243125,135.13878718125,59.0,102.0
798,134.62408243125,135.328125,63.0,96.0
799,134.62408243125,135.34466908125,66.0,87.0
800,134.62408243125,135.3685660875,71.0,97.0
801,135.28584568125,135.409007175,59.0,111.0
802,135.06525793125,135.61672730625,54.0,99.0
803,135.50643343125,135.7876828125,59.0,117.0
804,135.50643343125,136.3317992625,63.0,116.0
805,135.50643343125,136.3317992625,66.0,109.0
806,135.94760893125,136.34282865,59.0,120.0
807,134.62408243125,136.3685638875,35.0,102.0
808,134.62408243125,136.3685638875,47.0,102.0
809,135.72702118125,136.4126814375,54.0,79.0
810,136.38878443125,136.52849000625,59.0,92.0
811,136.38878443125,136.703121975,67.0,89.0
812,136.60937218125,136.91819503125,59.0,84.0
813,136.82995993125,136.96966550625,64.0,76.0
814,137.05054768125,137.35201760625,67.0,108.0
815,136.38878443125,138.01378085625,40.0,97.0
816,136.38878443125,138.01378085625,52.0,97.0
817,137.93289868124998,138.217824525,59.0,84.0
818,138.15348643125,138.4715004375,67.0,100.0
819,138.59466193125,138.69576465,64.0,92.0
820,138.37407418125,138.70863226875,59.0,84.0
821,138.81524968125,139.320763275,67.0,108.0
822,138.15348643125,139.34282205,40.0,111.0
823,138.15348643125,139.34282205,52.0,111.0
824,139.25642518125,139.5009099375,64.0,114.0
825,139.47701293125,139.60936558125,59.0,100.0
826,139.91818843125,140.1553202625,55.0,82.0
827,139.91818843125,140.23804066875,62.0,87.0
828,140.35936393125,140.51561358749998,55.0,87.0
829,140.13877618125,140.67186324375,50.0,64.0
830,140.57995168125,141.06156826875,67.0,117.0
831,141.02112718125,141.32259710625,62.0,84.0
832,141.24171493125,141.55053778125,55.0,60.0
833,139.91818843125,141.57627301875,31.0,102.0
834,139.91818843125,141.57627301875,43.0,102.0
835,140.80053943125,141.59097886875,50.0,57.0
836,141.68289043125,141.93656634375,55.0,9.0
837,142.12406593125,142.232521575,55.0,57.0
838,141.46230268124998,142.24906565625,62.0,84.0
839,141.90347818125,142.4457564,50.0,52.0
840,142.34465368125,142.64428537499998,55.0,97.0
841,142.34465368125,142.6773735375,62.0,92.0
842,142.34465368125,142.879578975,67.0,100.0
843,141.68289043125,142.90347598124998,31.0,94.0
844,141.68289043125,142.90347598124998,43.0,94.0
845,142.56524143125,142.91818183125,50.0,69.0
846,142.78582918125,143.05788740625,55.0,92.0
847,143.00641693125,143.129578425,62.0,80.0
848,143.44759243125,143.61303324375,59.0,89.0
849,143.44759243125,143.71965065625,64.0,89.0
850,143.66818018125,143.967811875,59.0,87.0
851,143.88876793125,144.2067819375,64.0,80.0
852,144.10935568125,144.58178111249998,67.0,102.0
853,144.55053118125,144.864868725,64.0,97.0
854,144.77111893125,145.04317715625,59.0,78.0
855,143.44759243125,145.085456475,40.0,97.0
856,143.44759243125,145.085456475,52.0,97.0
857,144.99170668124998,145.703102175,67.0,100.0
858,145.43288218125,145.7141315625,59.0,78.0
859,145.65346993125,145.96229278125,64.0,76.0
860,145.87405768125,145.997219175,59.0,67.0
861,146.09464543125,146.25640978125,59.0,102.0
862,146.31523318125,146.5523650125,59.0,80.0
863,146.09464543125,146.5633944,67.0,102.0
864,145.21229443125,146.61670310625,40.0,102.0
865,145.21229443125,146.61670310625,52.0,102.0
866,146.53582093125,146.64611480625,64.0,100.0
867,146.97699643125,147.22515765,55.0,89.0
868,146.97699643125,147.35015737499998,59.0,87.0
869,147.41817193125,147.57993628125,55.0,84.0
870,147.19758418125,147.72699478125,50.0,66.0
871,147.63875968125,147.97331776875,62.0,102.0
872,148.07993518125,148.13140565625,62.0,14.0
873,148.30052293125,148.4163315,55.0,52.0
874,146.97699643125,148.61669870625,31.0,102.0
875,146.97699643125,148.61669870625,43.0,102.0
876,147.85934743125,148.64978686875,50.0,76.0
877,148.52111068124998,149.24169733125,62.0,97.0
878,149.18287393125,149.35566766875,55.0,47.0
879,148.96228618125,149.51007909375,50.0,64.0
880,148.07993518125,150.0964748625,67.0,100.0
881,149.84463718125,150.11301894374998,55.0,84.0
882,149.40346168125,150.12772479375,62.0,84.0
883,150.06522493125,150.3170626125,59.0,80.0
884,148.74169843125,150.3317684625,31.0,94.0
885,148.74169843125,150.3317684625,43.0,94.0
886,149.62404943125,150.36669485624998,50.0,82.0
887,150.28581268124998,150.36669485624998,55.0,57.0
888,150.50640043125,150.99169348125,57.0,89.0
889,150.50640043125,151.0376492625,60.0,94.0
890,150.94757593125,151.2655899375,52.0,66.0
891,151.16816368125,151.64242734375,57.0,105.0
892,151.60933918125,151.9200002625,60.0,111.0
893,150.50640043125,151.97514719999998,33.0,108.0
894,150.50640043125,151.97514719999998,45.0,108.0
895,151.38875143125,152.16632325,52.0,58.0
896,152.27110243125,152.78213071875,59.0,92.0
897,152.27110243125,152.9347039125,62.0,97.0
898,152.71227793125,153.05418894375,54.0,19.0
899,153.15345343125,153.39609995625,54.0,63.0
900,152.93286568125,153.43654104375,66.0,105.0
901,152.27110243125,153.5302908375,35.0,102.0
902,152.27110243125,153.5302908375,47.0,102.0
903,153.37404118125,153.62771709375,62.0,114.0
904,153.59462893124999,153.879554775,59.0,84.0
905,153.81521668124998,153.938378175,62.0,84.0
906,154.47697993124999,154.7104353,59.0,58.0
907,154.03580443125,154.747199925,64.0,92.0
908,154.69756768125,155.2214635875,67.0,105.0
909,154.03580443125,155.57808045,40.0,97.0
910,154.03580443125,155.57808045,52.0,97.0
911,155.35933093124999,155.60197745624998,59.0,82.0
912,155.13874318125,155.6405803125,64.0,105.0
913,155.80050643125,156.100138125,59.0,94.0
914,155.80050643125,156.5155783875,62.0,87.0
915,156.46226968125,156.747195525,59.0,100.0
916,156.24168193124999,156.76006314375,54.0,65.0
917,156.90344518125,157.1221947,54.0,87.0
918,155.80050643125,157.21962095625,35.0,102.0
919,155.80050643125,157.21962095625,47.0,102.0
920,156.68285743125,157.28947374375,66.0,109.0
921,157.12403293124999,157.41079700625,59.0,94.0
922,157.34462068124998,157.4493998625,62.0,80.0
923,157.56520843125,157.80785495625,57.0,82.0
924,157.56520843125,157.96042814999998,60.0,84.0
925,158.00638393124999,158.1552806625,57.0,71.0
926,157.78579618125,158.28579508125,52.0,52.0
927,158.22697168125,158.8979260875,69.0,102.0
928,158.66814718125,158.9493965625,64.0,105.0
929,157.56520843125,158.98432295625,33.0,102.0
930,157.56520843125,158.98432295625,45.0,102.0
931,158.44755943125,158.99167588125,52.0,76.0
932,158.88873493124999,159.07991098125,60.0,89.0
933,159.10932268124998,159.18652839375,57.0,76.0
934,159.32991043125,159.82990933125,59.0,87.0
935,159.32991043125,159.88689449999998,62.0,87.0
936,160.21226143125,160.46409911249998,54.0,79.0
937,159.99167368125,160.50270196875,66.0,102.0
938,159.32991043125,160.673657475,35.0,94.0
939,159.32991043125,160.673657475,47.0,94.0
940,160.43284918125,160.70490740625,62.0,105.0
941,160.65343693124998,160.90711284374999,59.0,92.0
942,161.09461243125,161.34277365,59.0,92.0
943,161.09461243125,161.69571405,64.0,100.0
944,161.53578793124998,161.70858166874999,59.0,58.0
945,161.75637568125,162.217771725,67.0,114.0
946,162.19755118125,162.45490355625,64.0,92.0
947,161.09461243125,162.761888175,40.0,100.0
948,161.09461243125,162.761888175,52.0,100.0
949,162.41813893124998,162.77107933125,59.0,100.0
950,162.85931443125,163.041299325,59.0,78.0
951,162.85931443125,163.31335754999998,64.0,84.0
952,163.30048993125,163.438357275,59.0,92.0
953,162.85931443125,163.63688625,40.0,97.0
954,162.85931443125,163.63688625,52.0,97.0
955,163.52107768125,163.80784175624999,59.0,97.0
956,163.52107768125,163.82622406874998,67.0,108.0
957,163.96225318125,164.276590725,67.0,108.0
958,163.74166543125,164.46960500625,40.0,89.0
959,163.74166543125,164.46960500625,52.0,89.0
960,164.40342868125,164.61666350625,59.0,71.0
961,164.62401643125,164.76372200625,59.0,92.0
962,164.62401643125,164.93835397499998,67.0,89.0
963,164.84460418125,165.15342703125,59.0,84.0
964,165.06519193125,165.20489750625,64.0,76.0
965,165.28577968125,165.58724960625,67.0,108.0
966,164.62401643125,166.24901285625,40.0,97.0
967,164.62401643125,166.24901285625,52.0,97.0
968,166.16813068125,166.453056525,59.0,84.0
969,166.38871843125,166.7067324375,67.0,100.0
970,166.82989393125,166.93099665,64.0,92.0
971,166.60930618125,166.94386426875,59.0,84.0
972,167.05048168125,167.555995275,67.0,108.0
973,166.38871843125,167.57805405,40.0,111.0
974,166.38871843125,167.57805405,52.0,111.0
975,167.49165718125,167.7361419375,64.0,114.0
976,167.71224493124998,167.84459758124999,59.0,100.0
977,168.15342043125,168.3905522625,55.0,82.0
978,168.15342043125,168.47327266874998,62.0,87.0
979,168.59459593125,168.7508455875,55.0,87.0
980,168.37400818125,168.90709524375,50.0,64.0
981,168.81518368125,169.29680026875,67.0,117.0
982,169.25635918125,169.55782910624998,62.0,84.0
983,169.47694693124998,169.78576978125,55.0,60.0
984,168.15342043125,169.81150501874998,31.0,102.0
985,168.15342043125,169.81150501874998,43.0,102.0
986,169.03577143125,169.82621086875,50.0,57.0
987,169.91812243125,170.17179834375,55.0,9.0
988,170.35929793125,170.467753575,55.0,57.0
989,169.69753468125,170.48429765625,62.0,84.0
990,170.13871018125,170.6809884,50.0,52.0
991,170.57988568125,170.87951737499998,55.0,97.0
992,170.57988568125,170.91260553749999,62.0,92.0
993,170.57988568125,171.114810975,67.0,100.0
994,169.91812243125,171.13870798124998,31.0,94.0
995,169.91812243125,171.13870798124998,43.0,94.0
996,170.80047343125,171.15341383125,50.0,69.0
997,171.02106118125,171.29311940624999,55.0,92.0
998,171.24164893124998,171.364810425,62.0,80.0
999,171.68282443125,171.8494925875,59.0,89.0
1000,171.68282443125,171.95705914583334,64.0,89.0
1001,171.9051304625,172.20742958333335,59.0,87.0
1002,172.1276819625,172.44852704166667,64.0,80.0
1003,172.3502334625,172.82686459166666,67.0,102.0
1004,172.79533646250002,173.11247235,64.0,97.0
1005,173.0178879625,173.29236814583334,59.0,78.0
1006,171.68282443125,173.33502385,40.0,97.0
1007,171.68282443125,173.33502385,52.0,97.0
1008,173.2404394625,173.95816805,67.0,100.0
1009,173.6855424625,173.969295625,59.0,78.0
1010,173.9080939625,174.2196660625,64.0,76.0
1011,174.1306454625,174.25490338333333,59.0,67.0
1012,174.3531969625,174.51640139583333,59.0,102.0
1013,174.5757484625,174.814991325,59.0,80.0
1014,174.3531969625,174.8261189,67.0,102.0
1015,173.46299096250002,174.87990217916666,40.0,102.0
1016,173.46299096250002,174.87990217916666,52.0,102.0
1017,174.7982999625,174.90957571250001,64.0,100.0
1018,175.2434029625,175.4937734,55.0,89.0
1019,175.2434029625,175.61988591666668,59.0,87.0
1020,175.68850596250002,175.85171039583335,55.0,84.0
1021,175.4659544625,176.0000780625,50.0,66.0
1022,175.9110574625,176.24859390416668,62.0,102.0
1023,176.35616046250001,176.40808914583334,62.0,14.0
1024,176.57789373333333,176.69370230208332,55.0,52.0
1025,175.2434029625,176.89406950833333,31.0,102.0
1026,175.2434029625,176.89406950833333,43.0,102.0
1027,176.1336089625,176.92715767083334,50.0,76.0
1028,176.79848148333332,177.51906813333332,62.0,97.0
1029,177.46024473333333,177.63303847083333,55.0,47.0
1030,177.23965698333333,177.78744989583333,50.0,64.0
1031,176.35616046250001,178.3738456645833,67.0,100.0
1032,178.12200798333333,178.39038974583332,55.0,84.0
1033,177.68083248333332,178.40509559583333,62.0,84.0
1034,178.34259573333333,178.59443341458334,59.0,80.0
1035,177.0190692333333,178.60913926458332,31.0,94.0
1036,177.0190692333333,178.60913926458332,43.0,94.0
1037,177.9014202333333,178.64406565833332,50.0,82.0
1038,178.56318348333332,178.64406565833332,55.0,57.0
1039,178.7837712333333,179.26906428333334,57.0,89.0
1040,178.7837712333333,179.31502006458334,60.0,94.0
1041,179.22494673333333,179.54296073958332,52.0,66.0
1042,179.44553448333332,179.9197981458333,57.0,105.0
1043,179.88670998333333,180.19737106458334,60.0,111.0
1044,178.7837712333333,180.25251800208332,33.0,108.0
1045,178.7837712333333,180.25251800208332,45.0,108.0
1046,179.6661222333333,180.44369405208332,52.0,58.0
1047,180.5484732333333,181.05950152083332,59.0,92.0
1048,180.5484732333333,181.21207471458334,62.0,97.0
1049,180.98964873333333,181.33155974583332,54.0,19.0
1050,181.4308242333333,181.67347075833334,54.0,63.0
1051,181.21023648333332,181.71391184583334,66.0,105.0
1052,180.5484732333333,181.80766163958333,35.0,102.0
1053,180.5484732333333,181.80766163958333,47.0,102.0
1054,181.65141198333333,181.90508789583333,62.0,114.0
1055,181.87199973333333,182.1569255770833,59.0,84.0
1056,182.09258748333332,182.21574897708334,62.0,84.0
1057,182.75435073333333,182.9878061020833,59.0,58.0
1058,182.3131752333333,183.02457072708333,64.0,92.0
1059,182.97493848333332,183.49883438958332,67.0,105.0
1060,182.3131752333333,183.85545125208333,40.0,97.0
1061,182.3131752333333,183.85545125208333,52.0,97.0
1062,183.63670173333333,183.87934825833332,59.0,82.0
1063,183.41611398333333,183.91795111458333,64.0,105.0
1064,184.0778772333333,184.3775089270833,59.0,94.0
1065,184.0778772333333,184.7929491895833,62.0,87.0
1066,184.73964048333332,185.02456632708333,59.0,100.0
1067,184.51905273333333,185.03743394583333,54.0,65.0
1068,185.18081598333333,185.39956550208333,54.0,87.0
1069,184.0778772333333,185.49699175833334,35.0,102.0
1070,184.0778772333333,185.49699175833334,47.0,102.0
1071,184.9602282333333,185.56684454583333,66.0,109.0
1072,185.40140373333332,185.68816780833333,59.0,94.0
1073,185.62199148333332,185.7267706645833,62.0,80.0
1074,185.8425792333333,186.08522575833334,57.0,82.0
1075,185.8425792333333,186.23779895208332,60.0,84.0
1076,186.28375473333332,186.43265146458333,57.0,71.0
1077,186.06316698333333,186.5631658833333,52.0,52.0
1078,186.50434248333332,187.17529688958334,69.0,102.0
1079,186.94551798333333,187.22676736458334,64.0,105.0
1080,185.8425792333333,187.26169375833334,33.0,102.0
1081,185.8425792333333,187.26169375833334,45.0,102.0
1082,186.72493023333334,187.26904668333333,52.0,76.0
1083,187.16610573333332,187.35728178333332,60.0,89.0
1084,187.38669348333332,187.46389919583333,57.0,76.0
1085,187.6072812333333,188.10728013333332,59.0,87.0
1086,187.6072812333333,188.16426530208332,62.0,87.0
1087,188.48963223333334,188.74146991458332,54.0,79.0
1088,188.26904448333332,188.78007277083333,66.0,102.0
1089,187.6072812333333,188.9510282770833,35.0,94.0
1090,187.6072812333333,188.9510282770833,47.0,94.0
1091,188.71021998333333,188.98227820833333,62.0,105.0
1092,188.93080773333332,189.18448364583332,59.0,92.0
1093,189.3719832333333,189.6201444520833,59.0,92.0
1094,189.3719832333333,189.97308485208333,64.0,100.0
1095,189.81315873333332,189.98595247083333,59.0,58.0
1096,190.03374648333332,190.49514252708332,67.0,114.0
1097,190.47492198333333,190.7322743583333,64.0,92.0
1098,189.3719832333333,191.03925897708334,40.0,100.0
1099,189.3719832333333,191.03925897708334,52.0,100.0
1100,190.69550973333332,191.04845013333332,59.0,100.0
1101,191.1366852333333,191.31867012708332,59.0,78.0
1102,191.1366852333333,191.59072835208332,64.0,84.0
1103,191.57786073333332,191.71572807708333,59.0,92.0
1104,191.1366852333333,191.91425705208331,40.0,97.0
1105,191.1366852333333,191.91425705208331,52.0,97.0
1106,191.79844848333332,192.08521255833332,59.0,97.0
1107,191.79844848333332,192.10359487083332,67.0,108.0
1108,192.23962398333333,192.55396152708332,67.0,108.0
1109,192.01903623333334,192.74697580833333,40.0,89.0
1110,192.01903623333334,192.74697580833333,52.0,89.0
1111,192.68079948333332,192.89403430833332,59.0,71.0
1112,192.9013872333333,193.44918014583334,53.0,92.0
1113,192.9013872333333,193.48226830833332,60.0,92.0
1114,193.56315048333332,193.70285605833334,56.0,102.0
1115,193.56315048333332,193.71204721458332,53.0,29.0
1116,193.78373823333334,193.84439986458332,53.0,41.0
1117,193.34256273333332,193.88851741458333,48.0,80.0
1118,193.78373823333334,194.28006067083334,65.0,111.0
1119,194.00432598333333,194.53373658333334,48.0,62.0
1120,194.22491373333332,194.54476597083334,53.0,87.0
1121,192.9013872333333,194.58336882708332,29.0,105.0
1122,192.9013872333333,194.58336882708332,41.0,105.0
1123,194.44550148333332,194.60358937083333,56.0,93.0
1124,194.6660892333333,195.15138228333333,53.0,71.0
1125,194.6660892333333,195.18630867708333,56.0,79.0
1126,194.6660892333333,195.20469098958333,60.0,102.0
1127,195.10726473333332,195.39402880833333,48.0,45.0
1128,195.32785248333332,195.57969016458333,53.0,87.0
1129,195.32785248333332,195.64770472083333,56.0,96.0
1130,195.32785248333332,195.67160172708333,60.0,97.0
1131,195.32785248333332,195.72858689583333,65.0,97.0
1132,195.54844023333334,195.9344687958333,48.0,64.0
1133,194.6660892333333,195.9804245770833,29.0,97.0
1134,194.6660892333333,195.9804245770833,41.0,97.0
1135,195.76902798333333,196.04108620833333,53.0,97.0
1136,195.98961573333332,196.38115898958333,55.0,120.0
1137,196.4307912333333,196.52637925833332,56.0,112.0
1138,196.87196673333332,197.00064292083331,56.0,63.0
1139,196.65137898333333,197.21755420833333,51.0,63.0
1140,197.09255448333332,197.2727011458333,56.0,82.0
1141,197.09255448333332,197.2892452270833,60.0,102.0
1142,196.4307912333333,197.4454948833333,32.0,96.0
1143,196.4307912333333,197.4454948833333,44.0,96.0
1144,197.75431773333332,197.90137623333334,56.0,87.0
1145,197.97490548333332,198.3333605770833,56.0,25.0
1146,197.75431773333332,198.47306615208333,60.0,92.0
1147,197.75431773333332,198.64953635208332,63.0,96.0
1148,198.63666873333332,198.75063907083333,56.0,96.0
1149,198.41608098333333,198.9454915833333,51.0,68.0
1150,198.1954932333333,198.95835920208333,32.0,105.0
1151,198.1954932333333,198.95835920208333,44.0,105.0
1152,198.85725648333332,199.0999030083333,60.0,108.0
1153,198.85725648333332,199.16240287083332,63.0,93.0
1154,198.85725648333332,199.16607933333333,56.0,102.0
1155,199.07784423333334,199.2101968833333,51.0,72.0
1156,199.29843198333333,199.41791701458334,56.0,99.0
1157,199.29843198333333,199.44181402083333,60.0,105.0
1158,199.29843198333333,199.49328449583334,63.0,105.0
1159,199.9601952333333,200.20284175833334,53.0,89.0
1160,199.9601952333333,200.28923862708334,56.0,90.0
1161,199.9601952333333,200.30945917083332,60.0,73.0
1162,200.40137073333332,200.50063522083332,53.0,105.0
1163,200.18078298333333,200.66239957083332,48.0,71.0
1164,200.62195848333332,200.8829873208333,55.0,114.0
1165,200.84254623333334,201.11092799583332,48.0,58.0
1166,201.06313398333333,201.22122187083332,56.0,109.0
1167,201.06313398333333,201.2451188770833,53.0,92.0
1168,201.28372173333332,201.52269179583334,48.0,58.0
1169,199.9601952333333,201.5337211833333,29.0,102.0
1170,199.9601952333333,201.5337211833333,41.0,102.0
1171,201.50430948333332,201.84070580208333,60.0,108.0
1172,201.50430948333332,201.85908811458333,53.0,89.0
1173,202.16607273333332,202.28004307083333,53.0,69.0
1174,201.94548498333333,202.46570442708332,48.0,64.0
1175,202.38666048333332,202.6476893208333,65.0,97.0
1176,202.38666048333332,202.6532040145833,56.0,112.0
1177,202.38666048333332,202.6642334020833,53.0,97.0
1178,202.60724823333334,202.71202741458333,48.0,84.0
1179,202.82783598333333,202.9987914895833,48.0,94.0
1180,201.7248972333333,203.05393842708332,29.0,97.0
1181,201.7248972333333,203.05393842708332,41.0,97.0
1182,203.04842373333332,203.19732046458333,53.0,120.0
1183,203.26901148333332,203.53187855208333,55.0,100.0
1184,203.4895992333333,203.60356957083332,56.0,112.0
1185,204.15136248333332,204.31864152708332,56.0,102.0
1186,203.4895992333333,204.62930260833332,32.0,109.0
1187,203.4895992333333,204.62930260833332,44.0,109.0
1188,203.93077473333332,204.6421702270833,51.0,102.0
1189,204.59253798333333,204.75430233333333,60.0,114.0
1190,204.59253798333333,204.78922872708333,56.0,109.0
1191,204.59253798333333,204.81680219583333,63.0,112.0
1192,204.81312573333332,204.91239022083332,51.0,93.0
1193,205.2543012333333,205.48224190833332,60.0,102.0
1194,205.2543012333333,205.54474177083333,64.0,105.0
1195,205.69547673333332,205.78187360208332,60.0,97.0
1196,205.47488898333333,205.95650557083331,55.0,71.0
1197,205.91606448333332,206.14951985208333,67.0,114.0
1198,205.91606448333332,206.1770933208333,60.0,120.0
1199,206.13665223333334,206.4123869208333,55.0,105.0
1200,205.2543012333333,206.4307692333333,48.0,102.0
1201,206.35723998333333,206.49694555833332,60.0,117.0
1202,206.35723998333333,206.64400405833334,64.0,120.0
1203,206.35723998333333,206.82966541458333,67.0,114.0
1204,206.57782773333332,206.83885657083331,60.0,89.0
1205,206.79841548333332,206.99878268958332,64.0,100.0
1206,207.46017873333332,207.6072372333333,53.0,102.0
1207,207.23959098333333,207.74878103958332,48.0,87.0
1208,207.68076648333331,207.93444239583332,65.0,100.0
1209,207.68076648333331,207.95650117083332,53.0,94.0
1210,207.90135423333334,208.58701448958334,48.0,69.0
1211,208.12194198333333,208.62010265208332,60.0,105.0
1212,207.0190032333333,208.6439996583333,29.0,105.0
1213,207.0190032333333,208.6439996583333,41.0,105.0
1214,208.56311748333331,208.70098482708332,53.0,69.0
1215,208.7837052333333,209.24142481458333,53.0,82.0
1216,208.7837052333333,209.39032154583333,65.0,94.0
1217,209.44546848333331,209.62745337708333,53.0,89.0
1218,209.66605623333334,209.7285560958333,53.0,80.0
1219,209.22488073333332,209.73039432708333,48.0,66.0
1220,209.66605623333334,209.89399690833332,56.0,116.0
1221,209.66605623333334,209.90318806458333,60.0,120.0
1222,209.66605623333334,209.92340860833332,65.0,102.0
1223,208.7837052333333,210.09987880833333,29.0,92.0
1224,208.7837052333333,210.09987880833333,41.0,92.0
1225,209.88664398333333,210.09987880833333,48.0,76.0
1226,210.10723173333332,210.4491427458333,55.0,120.0
1227,210.5484072333333,210.66789226458332,56.0,105.0
1228,210.98958273333332,211.11274422708334,56.0,82.0
1229,211.21017048333331,211.40502299583332,63.0,99.0
1230,211.21017048333331,211.53369918333334,56.0,90.0
1231,211.65134598333333,211.75980162708333,60.0,89.0
1232,211.65134598333333,211.78002217083332,56.0,93.0
1233,211.65134598333333,211.8002427145833,63.0,96.0
1234,210.5484072333333,212.21016828333333,32.0,96.0
1235,210.5484072333333,212.21016828333333,44.0,96.0
1236,210.76899498333333,212.37377086458332,51.0,87.0
1237,212.09252148333331,212.54472637083333,56.0,112.0
1238,212.09252148333331,212.7506082708333,68.0,96.0
1239,212.75428473333332,212.8829609208333,56.0,99.0
1240,212.53369698333333,213.05207819583333,51.0,63.0
1241,212.3131092333333,213.23222485833332,32.0,99.0
1242,212.3131092333333,213.23222485833332,44.0,99.0
1243,212.97487248333331,213.27082771458333,60.0,108.0
1244,212.97487248333331,213.37928335833334,63.0,109.0
1245,212.97487248333331,213.40501859583333,68.0,93.0
1246,212.97487248333331,213.44178322083332,56.0,99.0
1247,213.19546023333334,213.53001832083334,51.0,77.0
1248,213.41604798333333,213.54104770833334,32.0,82.0
1249,213.41604798333333,213.54104770833334,44.0,82.0
1250,213.8572234833333,214.0998700083333,55.0,97.0
1251,214.0778112333333,214.36273707708332,53.0,89.0
1252,214.51898673333332,214.71935393958333,53.0,92.0
1253,214.7395744833333,215.01530917083332,53.0,57.0
1254,214.7395744833333,215.05942672083333,65.0,108.0
1255,214.29839898333333,215.40317596458334,48.0,82.0
1256,214.0778112333333,215.4491317458333,29.0,97.0
1257,214.0778112333333,215.4491317458333,41.0,97.0
1258,215.18074998333333,215.4491317458333,60.0,100.0
1259,215.40133773333332,215.72118997083334,56.0,96.0
1260,215.6219254833333,215.80758683958334,53.0,105.0
1261,216.28368873333332,216.40685022708334,56.0,93.0
1262,216.06310098333333,216.6145703583333,51.0,87.0
1263,216.5042764833333,216.7524377020833,60.0,105.0
1264,215.8425132333333,216.7579523958333,32.0,102.0
1265,215.8425132333333,216.7579523958333,44.0,102.0
1266,216.5042764833333,216.79104055833332,56.0,105.0
1267,216.5042764833333,216.81861402708333,63.0,105.0
1268,216.72486423333334,217.09618694583332,51.0,48.0
1269,216.94545198333333,217.09802517708331,60.0,102.0
1270,216.94545198333333,217.16420150208333,56.0,102.0
1271,216.94545198333333,217.23589252083332,63.0,102.0
1272,217.6072152333333,217.84067060208332,56.0,85.0
1273,217.6072152333333,217.8719205333333,60.0,94.0
1274,217.6072152333333,218.09250828333333,63.0,87.0
1275,218.04839073333332,218.21015508333332,56.0,96.0
1276,217.82780298333333,218.38111058958333,51.0,61.0
1277,217.6072152333333,218.49324269583332,32.0,99.0
1278,217.6072152333333,218.49324269583332,44.0,99.0
1279,218.2689784833333,218.5410367083333,56.0,19.0
1280,218.2689784833333,218.57963956458332,68.0,109.0
1281,218.48956623333333,218.59986010833333,51.0,90.0
1282,218.71015398333333,218.82596255208333,60.0,105.0
1283,218.71015398333333,219.03368268333332,63.0,102.0
1284,218.93074173333332,219.03919737708333,56.0,99.0
1285,219.3719172333333,219.58515205833334,60.0,100.0
1286,219.3719172333333,219.66787246458333,64.0,97.0
1287,219.81309273333332,219.94176892083334,60.0,82.0
1288,220.0336804833333,220.08147449583333,60.0,38.0
1289,219.59250498333333,220.09801857708334,55.0,73.0
1290,220.0336804833333,220.22301830208332,72.0,123.0
1291,220.25426823333333,220.5483852333333,55.0,76.0
1292,220.47485598333333,220.62742917708331,67.0,105.0
1293,220.47485598333333,220.66051733958332,60.0,108.0
1294,220.69544373333332,220.92889910208334,55.0,50.0
1295,219.3719172333333,220.9638254958333,36.0,105.0
1296,219.3719172333333,220.9638254958333,48.0,105.0
1297,220.9160314833333,221.01161950833333,60.0,82.0
1298,221.1366192333333,221.35720698333333,60.0,92.0
1299,221.1366192333333,221.40867745833333,64.0,102.0
1300,221.57779473333332,221.65316221458332,60.0,67.0
1301,221.35720698333333,221.85720588333334,55.0,58.0
1302,221.7983824833333,222.00242615208333,67.0,100.0
1303,221.7983824833333,222.01345553958333,60.0,100.0
1304,222.01897023333333,222.3002196145833,55.0,73.0
1305,222.23955798333333,222.37191063333333,60.0,114.0
1306,222.23955798333333,222.47852804583331,64.0,111.0
1307,221.1366192333333,222.6402923958333,36.0,102.0
1308,221.1366192333333,222.6402923958333,48.0,102.0
1309,222.46014573333332,222.71749810833333,55.0,76.0
1310,222.6807334833333,222.80389497708333,60.0,87.0
1311,222.9013212333333,223.39029074583334,60.0,100.0
1312,222.9013212333333,223.41051128958333,64.0,102.0
1313,223.34249673333332,223.6090402645833,55.0,78.0
1314,223.5630844833333,223.79102515833333,60.0,44.0
1315,223.5630844833333,223.80021631458334,64.0,73.0
1316,223.5630844833333,223.8167603958333,67.0,100.0
1317,223.78367223333333,224.05205399583332,55.0,80.0
1318,224.00425998333333,224.17889195208332,60.0,100.0
1319,224.00425998333333,224.20830365208332,67.0,100.0
1320,224.00425998333333,224.24874473958332,72.0,111.0
1321,224.00425998333333,224.25793589583333,64.0,102.0
1322,222.9013212333333,224.42153847708332,36.0,102.0
1323,222.9013212333333,224.42153847708332,48.0,102.0
1324,224.22484773333332,224.49690595833331,55.0,69.0
1325,224.4454354833333,224.6016851395833,60.0,87.0
1326,224.6660232333333,225.16234567083333,60.0,92.0
1327,224.6660232333333,225.24874253958333,64.0,97.0
1328,225.3277864833333,225.35903641458333,64.0,25.0
1329,224.6660232333333,225.39580103958332,67.0,97.0
1330,225.3277864833333,225.4380803583333,60.0,108.0
1331,225.10719873333332,225.58330062708333,55.0,51.0
1332,225.54837423333333,225.79653545208333,60.0,111.0
1333,225.54837423333333,225.81675599583332,72.0,108.0
1334,225.54837423333333,225.82043245833333,64.0,114.0
1335,225.54837423333333,225.82410892083334,67.0,120.0
1336,225.98954973333332,226.07410837083333,64.0,49.0
1337,225.98954973333332,226.08513775833333,67.0,25.0
1338,225.98954973333332,226.3719018333333,60.0,102.0
1339,225.76896198333333,226.42521053958333,55.0,111.0
1340,224.6660232333333,226.4417546208333,36.0,100.0
1341,224.6660232333333,226.4417546208333,48.0,100.0
1342,226.4307252333333,226.69910699583332,65.0,100.0
1343,226.87190073333332,226.98219460833332,65.0,108.0
1344,226.65131298333333,227.14212072708332,60.0,84.0
1345,227.0924884833333,227.36822317083332,65.0,92.0
1346,227.31307623333333,227.57778153333334,60.0,71.0
1347,227.53366398333333,227.76344288958333,65.0,78.0
1348,227.9748394833333,228.09616274583334,65.0,94.0
1349,227.75425173333332,228.26528002083333,60.0,82.0
1350,228.1954272333333,228.61270572708332,67.0,116.0
1351,228.63660273333332,228.75241130208332,65.0,82.0
1352,228.41601498333333,228.93623442708332,60.0,78.0
1353,228.8571904833333,229.12557224583333,67.0,109.0
1354,229.07777823333333,229.16233687083331,60.0,67.0
1355,226.4307252333333,229.7395414833333,41.0,93.0
1356,229.51895373333332,229.76343848958334,65.0,102.0
1357,226.4307252333333,229.85167358958333,53.0,105.0
1358,229.7395414833333,229.85351182083332,67.0,109.0
1359,229.29836598333333,229.87373236458333,60.0,73.0
1360,229.9601292333333,230.26159915833333,68.0,102.0
1361,230.40130473333332,230.48218690833332,65.0,76.0
1362,230.18071698333333,230.68439234583332,60.0,45.0
1363,230.6218924833333,231.03365628333333,65.0,94.0
1364,230.6218924833333,231.15130308333332,68.0,100.0
1365,231.28365573333332,231.53365518333334,65.0,105.0
1366,229.9601292333333,231.60350797083333,53.0,100.0
1367,231.5042434833333,231.64211082708331,68.0,97.0
1368,231.06306798333333,231.67887545208333,60.0,84.0
1369,231.7248312333333,232.18255081458332,67.0,112.0
1370,232.16600673333332,232.27630060833332,63.0,82.0
1371,231.94541898333333,232.42519733958332,60.0,66.0
1372,232.3865944833333,233.07225473958331,67.0,116.0
1373,233.04835773333332,233.19541623333333,63.0,71.0
1374,229.9601292333333,233.2689454833333,41.0,93.0
1375,232.82776998333333,233.43806275833333,60.0,80.0
1376,233.2689454833333,233.44909214583333,67.0,93.0
1377,231.7248312333333,233.50240085208333,53.0,94.0
1378,233.48953323333333,233.50240085208333,53.0,105.0
1379,233.48953323333333,233.75791499583332,65.0,100.0
1380,233.93070873333332,234.04100260833332,65.0,108.0
1381,233.71012098333333,234.20092872708332,60.0,84.0
1382,234.15129648333334,234.42703117083332,65.0,92.0
1383,234.37188423333333,234.63658953333334,60.0,71.0
1384,234.59247198333333,234.82225088958333,65.0,78.0
1385,235.0336474833333,235.15497074583334,65.0,94.0
1386,234.81305973333332,235.32408802083333,60.0,82.0
1387,235.25423523333333,235.67151372708332,67.0,116.0
1388,235.69541073333332,235.81121930208332,65.0,82.0
1389,235.47482298333333,235.99504242708332,60.0,78.0
1390,235.91599848333334,236.18438024583332,67.0,109.0
1391,236.13658623333333,236.2211448708333,60.0,67.0
1392,233.48953323333333,236.7983494833333,41.0,93.0
1393,236.57776173333332,236.82224648958334,65.0,102.0
1394,236.7983494833333,236.91231982083332,67.0,109.0
1395,236.35717398333333,236.93254036458333,60.0,73.0
1396,237.01893723333333,237.32040715833332,68.0,102.0
1397,237.46011273333332,237.54099490833332,65.0,76.0
1398,237.23952498333333,237.74320034583332,60.0,45.0
1399,237.68070048333334,238.09246428333333,65.0,94.0
1400,237.68070048333334,238.21011108333332,68.0,100.0
1401,238.34246373333332,238.59246318333334,65.0,105.0
1402,237.01893723333333,238.66231597083333,53.0,100.0
1403,238.5630514833333,238.7009188270833,68.0,97.0
1404,238.12187598333333,238.73768345208333,60.0,84.0
1405,238.78363923333333,239.24135881458332,67.0,112.0
1406,239.22481473333332,239.33510860833331,63.0,82.0
1407,239.00422698333333,239.48400533958332,60.0,66.0
1408,239.44540248333334,240.1310627395833,67.0,116.0
1409,240.10716573333332,240.25422423333333,63.0,71.0
1410,237.01893723333333,240.3277534833333,41.0,93.0
1411,239.88657798333332,240.49687075833333,60.0,80.0
1412,240.3277534833333,240.50790014583333,67.0,93.0
1413,238.78363923333333,240.56120885208333,53.0,94.0
1414,240.5483412333333,240.56120885208333,53.0,105.0
1415,240.5483412333333,240.81672299583332,65.0,100.0
1416,240.98951673333332,241.0998106083333,65.0,108.0
1417,240.76892898333332,241.25973672708332,60.0,84.0
1418,241.21010448333334,241.48583917083332,65.0,92.0
1419,241.43069223333333,241.69539753333333,60.0,71.0
1420,241.65127998333332,241.8810588895833,65.0,78.0
1421,242.0924554833333,242.21377874583334,65.0,94.0
1422,241.87186773333332,242.38289602083333,60.0,82.0
1423,242.3130432333333,242.73032172708332,67.0,116.0
1424,242.75421873333332,242.87002730208332,65.0,82.0
1425,242.53363098333332,243.05385042708332,60.0,78.0
1426,242.97480648333334,243.24318824583332,67.0,109.0
1427,243.19539423333333,243.2799528708333,60.0,67.0
1428,240.5483412333333,243.8571574833333,41.0,93.0
1429,243.63656973333332,243.88105448958333,65.0,102.0
1430,243.8571574833333,243.97112782083332,67.0,109.0
1431,243.41598198333332,243.9913483645833,60.0,73.0
1432,244.0777452333333,244.37921515833332,68.0,102.0
1433,244.51892073333332,244.59980290833332,65.0,76.0
1434,244.29833298333332,244.80200834583331,60.0,45.0
1435,244.73950848333334,245.15127228333333,65.0,94.0
1436,244.73950848333334,245.26891908333332,68.0,100.0
1437,245.40127173333332,245.65127118333334,65.0,105.0
1438,244.0777452333333,245.72112397083333,53.0,100.0
1439,245.6218594833333,245.75972682708334,68.0,97.0
1440,245.18068398333332,245.79649145208333,60.0,84.0
1441,245.8424472333333,246.30016681458332,67.0,112.0
1442,246.28362273333332,246.3939166083333,63.0,82.0
1443,246.06303498333332,246.54281333958332,60.0,66.0
1444,246.50421048333334,247.18987073958334,67.0,116.0
1445,247.16597373333332,247.31303223333333,63.0,71.0
1446,244.0777452333333,247.3865614833333,41.0,93.0
1447,246.94538598333332,247.55567875833333,60.0,80.0
1448,247.3865614833333,247.56670814583333,67.0,93.0
1449,245.8424472333333,247.62001685208332,53.0,94.0
1450,247.6071492333333,247.62001685208332,53.0,105.0
1451,247.6071492333333,247.87553099583332,65.0,100.0
1452,248.04832473333332,248.1586186083333,65.0,108.0
1453,247.82773698333332,248.31854472708332,60.0,84.0
1454,248.26891248333334,248.54464717083331,65.0,92.0
1455,248.48950023333333,248.75420553333333,60.0,71.0
1456,248.71008798333332,248.93986688958333,65.0,78.0
1457,249.1512634833333,249.27258674583334,65.0,94.0
1458,248.93067573333332,249.44170402083333,60.0,82.0
1459,249.3718512333333,249.78912972708332,67.0,116.0
1460,249.81302673333332,249.92883530208331,65.0,82.0
1461,249.59243898333332,250.11265842708332,60.0,78.0
1462,250.03361448333334,250.30199624583332,67.0,109.0
1463,250.25420223333333,250.3387608708333,60.0,67.0
1464,247.6071492333333,250.9159654833333,41.0,93.0
1465,250.69537773333332,250.93986248958333,65.0,102.0
1466,250.9159654833333,251.02993582083332,67.0,109.0
1467,250.47478998333332,251.0501563645833,60.0,73.0
1468,251.1365532333333,251.43802315833332,68.0,102.0
1469,251.57772873333332,251.65861090833332,65.0,76.0
1470,251.35714098333332,251.8608163458333,60.0,45.0
1471,251.79831648333334,252.21008028333333,65.0,94.0
1472,251.79831648333334,252.32772708333331,68.0,100.0
1473,252.46007973333332,252.71007918333333,65.0,105.0
1474,251.1365532333333,252.77993197083333,53.0,100.0
1475,252.6806674833333,252.81853482708334,68.0,97.0
1476,252.23949198333332,252.85529945208333,60.0,84.0
1477,252.9012552333333,253.35897481458332,67.0,112.0
1478,253.34243073333332,253.4527246083333,63.0,82.0
1479,253.12184298333332,253.60162133958332,60.0,66.0
1480,253.56301848333334,254.24867873958334,67.0,116.0
1481,254.22478173333332,254.37184023333333,63.0,71.0
1482,251.1365532333333,254.4453694833333,41.0,93.0
1483,254.00419398333332,254.61448675833333,60.0,80.0
1484,254.4453694833333,254.62551614583333,67.0,93.0
1485,252.9012552333333,254.67882485208332,53.0,94.0
1486,254.90125083333334,257.78359743333334,48.0,66.0
1487,254.67882485208332,257.7964650520833,41.0,100.0
1488,255.13838266458333,258.3258756520833,56.0,44.0
1489,255.0391181770833,258.3460961958333,53.0,52.0
1490,255.27257354583332,258.35528735208334,60.0,64.0
1491,255.35345572083332,258.3975666708333,65.0,40.0
