,start,end,pitch,velocity
0,0.7816459083333334,2.4810137333333335,47.0,56.0
1,0.6851268791666667,4.750002058333334,59.0,56.0
2,0.6867091583333333,4.791141316666667,74.0,56.0
3,0.6819623208333334,4.843356529166667,90.0,56.0
4,0.6835446000000001,4.8623438791666675,71.0,56.0
5,0.6851268791666667,4.886078066666667,78.0,56.0
6,5.10759715,7.284813283333334,67.0,62.0
7,5.1234199416666675,7.365509520833334,91.0,62.0
8,5.1234199416666675,7.4003196625,74.0,62.0
9,5.1234199416666675,7.409813337500001,71.0,62.0
10,5.134495895833334,7.441458920833334,55.0,62.0
11,5.131331337500001,7.4572817125,43.0,62.0
12,8.653484762500002,11.979435570833335,73.0,65.0
13,8.6250037375,12.632916866666667,90.0,63.0
14,12.757916920833335,12.957284095833334,73.0,35.0
15,13.1819677375,13.400322262500001,73.0,43.0
16,8.640826529166667,13.808550287500001,57.0,65.0
17,8.6344974125,13.8370313125,64.0,65.0
18,8.623421458333334,13.890828804166668,45.0,63.0
19,13.672474279166668,13.955702250000002,73.0,33.0
20,8.632915133333334,14.292727712500001,69.0,63.0
21,14.275322641666667,14.552221495833335,73.0,27.0
22,12.765828316666667,15.283234470833335,97.0,76.0
23,16.158234850000003,16.2294374125,59.0,33.0
24,15.979437304166668,16.702538883333336,74.0,42.0
25,15.914563858333334,16.707285720833333,78.0,34.0
26,16.031652516666668,16.718361675,73.0,37.0
27,16.113931033333333,16.721526233333336,71.0,50.0
28,17.685134245833336,17.775324158333333,62.0,27.0
29,17.674058291666668,17.7864001125,66.0,34.0
30,17.677222850000003,17.808552020833336,71.0,33.0
31,20.356021479166667,21.41931307916667,78.0,17.0
32,15.93038665,23.485769670833335,95.0,73.0
33,23.39874431666667,25.87184665416667,78.0,1.0
34,20.359186037500002,25.89083400416667,74.0,24.0
35,17.756336808333334,25.898745400000003,59.0,22.0
36,20.343363245833334,25.906656795833335,71.0,18.0
37,17.666146895833336,25.90982135416667,54.0,33.0
38,20.433553158333336,25.914568191666667,83.0,14.0
39,16.099690520833335,25.98102391666667,47.0,62.0
40,26.223112629166668,26.596530512500003,71.0,95.0
41,26.223112629166668,26.60760646666667,74.0,95.0
42,26.60285962916667,26.98735346666667,73.0,107.0
43,26.60285962916667,26.988935745833334,76.0,90.0
44,27.55222712916667,27.726277837500003,71.0,89.0
45,26.982606629166668,27.846531054166668,74.0,99.0
46,27.742100629166668,27.846531054166668,74.0,83.0
47,26.982606629166668,28.0870374875,78.0,89.0
48,27.93197412916667,28.0870374875,78.0,100.0
49,28.12184762916667,28.36393634166667,83.0,95.0
50,28.31172112916667,28.501594629166668,86.0,99.0
51,28.501594629166668,28.909822654166668,85.0,122.0
52,29.261088629166668,29.775329358333337,81.0,117.0
53,29.83070912916667,30.00159527916667,78.0,88.0
54,30.40032962916667,30.659823412500003,81.0,102.0
55,30.020582629166668,30.795899420833337,85.0,107.0
56,30.78007662916667,31.20254516666667,81.0,102.0
57,31.15982362916667,31.514254162500002,76.0,97.0
58,31.15982362916667,31.51583644166667,83.0,99.0
59,31.53957062916667,32.0933683375,85.0,117.0
60,31.53957062916667,32.269001325000005,78.0,102.0
61,32.10919112916667,32.27216588333334,66.0,93.0
62,32.29906462916667,32.610773625,73.0,93.0
63,32.48893812916667,32.6629888375,78.0,99.0
64,32.67881162916667,32.9003307125,85.0,100.0
65,32.86868512916667,33.02058392916667,81.0,93.0
66,33.05855862916667,33.63450824583334,83.0,102.0
67,33.62817912916667,33.75317918333334,57.0,95.0
68,33.81805262916667,34.039571712500006,59.0,89.0
69,34.00792612916667,34.15033125416667,62.0,102.0
70,34.19779962916667,34.389255408333334,67.0,99.0
71,34.38767312916667,34.650331470833336,69.0,93.0
72,34.57754662916667,34.765837850000004,71.0,90.0
73,34.76742012916667,35.07754684583334,74.0,95.0
74,35.14716712916667,35.306977325000005,66.0,97.0
75,35.33704062916667,35.96995229583334,71.0,96.0
76,35.71678762916667,36.0142561125,73.0,99.0
77,36.09653462916667,36.450965162500005,74.0,99.0
78,36.47628162916667,36.63450954583334,71.0,90.0
79,36.66615512916667,36.87026914166667,73.0,95.0
80,37.04590212916667,37.29906679583334,78.0,117.0
81,36.85602862916667,37.308560470833335,74.0,97.0
82,37.23577562916667,37.42090229166667,76.0,92.0
83,37.42564912916667,37.598117558333335,74.0,96.0
84,37.61552262916667,38.060143075000006,73.0,112.0
85,37.99526962916667,38.10602917083334,69.0,89.0
86,38.18514312916667,38.28166215833334,69.0,92.0
87,38.37501662916667,38.547485058333336,69.0,90.0
88,38.56489012916667,38.708877533333336,73.0,100.0
89,38.75476362916667,38.984194108333334,73.0,96.0
90,38.94463712916667,39.08387769583334,69.0,89.0
91,39.13451062916667,39.47153609166667,69.0,93.0
92,39.32438412916667,39.92406793333334,78.0,112.0
93,40.27375162916667,40.48261247916667,61.0,102.0
94,40.46362512916667,40.64084039583334,68.0,85.0
95,40.65349862916667,41.14558745,69.0,99.0
96,41.03324562916667,41.216790012500006,66.0,100.0
97,41.22311912916667,41.4066635125,68.0,79.0
98,41.60286612916667,41.80223330416667,73.0,117.0
99,41.79273962916667,41.979448570833334,71.0,86.0
100,41.41299262916667,42.01267643333334,69.0,99.0
101,41.98261312916667,42.01267643333334,69.0,77.0
102,42.17248662916667,42.82913248333334,71.0,93.0
103,42.55223362916667,42.91457555833334,73.0,102.0
104,42.931980629166674,43.28324660416667,74.0,97.0
105,43.049069287500004,43.303816233333336,57.0,89.0
106,43.167740225,43.43039856666667,59.0,88.0
107,43.319639025,43.53008215416667,62.0,90.0
108,43.43830996250001,43.67723411666667,67.0,90.0
109,43.57596825,43.789575937500004,69.0,93.0
110,43.699386025,43.919322829166674,74.0,86.0
111,43.80856328750001,44.05856339583334,79.0,76.0
112,43.92565194583334,44.18672800833334,80.0,112.0
113,44.05698111666667,44.35603187916667,81.0,99.0
114,44.33229769166667,44.447804070833335,93.0,59.0
115,44.411411650000005,45.107614483333336,98.0,127.0
116,45.599703304166674,45.806981875000005,81.0,92.0
117,45.90191862500001,45.996855375,93.0,53.0
118,45.98577942083334,46.417741633333335,98.0,75.0
119,62.09654589583334,62.29116623333334,59.0,76.0
120,62.27534344166667,62.53167266666667,62.0,64.0
121,62.4446473125,62.61869802083334,71.0,82.0
122,62.631356254166676,62.96363487916667,74.0,83.0
123,63.03009060416667,63.38293885833334,73.0,92.0
124,63.43357179166667,63.816483350000006,74.0,81.0
125,63.80382511666667,64.186736675,73.0,65.0
126,64.18198983750001,64.54433176666667,74.0,82.0
127,64.56490139583335,64.93357244166667,73.0,95.0
128,64.92882560416668,66.8497125125,71.0,88.0
129,67.98578895416668,68.13768775416668,59.0,96.0
130,68.1598396625,68.34180176666668,61.0,79.0
131,68.34338404583335,68.61870062083334,64.0,92.0
132,68.515852475,68.743700675,69.0,88.0
133,68.71838420833333,68.92566277916667,71.0,90.0
134,68.92249822083333,69.12661223333333,73.0,100.0
135,69.12502995416668,69.30066294166667,74.0,102.0
136,69.31015661666667,69.49053644166668,76.0,89.0
137,69.49844783750001,70.79433447500001,73.0,96.0
138,72.17249962916668,72.4984491375,90.0,73.0
139,72.16775279166667,72.50952509166667,86.0,73.0
140,72.36237312916667,72.69781631250001,85.0,78.0
141,72.55066435,72.69781631250001,85.0,80.0
142,72.37344908333334,72.70730998750001,88.0,78.0
143,72.54908207083334,72.70730998750001,88.0,80.0
144,72.72787961666667,73.07123419583334,86.0,80.0
145,72.91775311666667,73.07123419583334,86.0,75.0
146,72.73737329166667,73.08231015000001,83.0,80.0
147,72.91933539583334,73.08231015000001,83.0,75.0
148,73.10287977916667,73.44623435833334,81.0,72.0
149,73.29908239583334,73.44623435833334,81.0,68.0
150,73.09655066250001,73.44781663750001,78.0,73.0
151,73.29591783750001,73.44781663750001,78.0,68.0
152,73.49212045416667,73.81490540416668,79.0,65.0
153,73.68515851250001,73.81490540416668,79.0,62.0
154,73.49053817500001,73.82123452083334,76.0,65.0
155,73.68357623333334,73.82123452083334,76.0,62.0
156,73.87661429166667,74.22155115000001,78.0,60.0
157,74.07598146666668,74.22155115000001,78.0,96.0
158,73.87977885000001,74.22471570833333,74.0,60.0
159,74.0743991875,74.22471570833333,74.0,72.0
160,79.76743962916667,80.01585745833334,71.0,69.0
161,79.76743962916667,80.022186575,74.0,89.0
162,80.14718662916667,80.41142725,74.0,97.0
163,80.14718662916667,80.48895892916667,71.0,95.0
164,80.52693362916668,80.86870592916668,76.0,69.0
165,80.52693362916668,80.87978188333334,73.0,85.0
166,80.90668062916667,82.34813695000001,71.0,86.0
167,80.90668062916667,82.34813695000001,74.0,96.0
168,82.42566862916668,82.73104850833334,71.0,107.0
169,82.42566862916668,82.73737762500001,74.0,102.0
170,82.80541562916667,83.19782086250001,73.0,99.0
171,82.80541562916667,83.21839049166667,69.0,83.0
172,83.18516262916667,84.66301137083335,67.0,107.0
173,83.18516262916667,84.70098607083334,71.0,97.0
174,100.65352462916668,100.77852468333334,66.0,102.0
175,100.78010696250001,100.92884120416667,67.0,85.0
176,100.90668929583335,101.0459298625,68.0,60.0
177,101.03327162916668,101.14719572916668,69.0,78.0
178,101.15985396250001,101.29751225000001,70.0,112.0
179,101.28643629583334,101.42251230416667,72.0,90.0
180,101.41301862916667,101.82599349166668,78.0,127.0
181,101.79276562916668,101.92251252083334,74.0,102.0
182,102.17251262916668,102.2990949625,78.0,112.0
183,102.55225962916667,102.62029763333334,74.0,117.0
184,102.74213312916667,102.83706987916668,78.0,99.0
185,102.93200662916668,103.04276617083335,71.0,107.0
186,103.31175362916667,103.471563825,78.0,107.0
187,103.69150062916668,103.84498170833335,71.0,99.0
188,108.43833812916668,108.65352809583334,85.0,74.0
189,108.62821162916667,108.86555350416668,86.0,67.0
190,108.81808512916668,109.04276877083335,85.0,99.0
191,109.00795862916668,109.26428785416668,86.0,100.0
192,109.19783212916667,109.43992084166668,85.0,72.0
193,109.38770562916667,109.62979434166668,86.0,100.0
194,109.57757912916668,109.78802225833334,85.0,112.0
195,109.76745262916668,110.65194668333335,83.0,99.0
196,137.48898362916668,137.87980658333333,71.0,90.0
197,137.8687306291667,138.22157888333334,74.0,96.0
198,138.24847762916667,138.66778160833334,71.0,79.0
199,138.62822462916668,138.97632604583336,74.0,89.0
200,139.0079716291667,139.36873127916667,71.0,88.0
201,139.38771862916667,139.7136681375,74.0,100.0
202,139.76746562916668,140.1029088125,71.0,97.0
203,140.1472126291667,140.50639,74.0,112.0
204,140.52695962916667,140.79594708750002,76.0,93.0
205,140.90670662916668,141.2437320916667,76.0,99.0
206,141.2864536291667,141.59816262500001,76.0,117.0
207,141.66620062916667,142.05702358333335,76.0,96.0
208,142.04594762916668,142.42727690833334,69.0,88.0
209,142.42569462916668,142.77379604583334,73.0,102.0
210,142.8054416291667,143.17727723333334,69.0,74.0
211,143.18518862916667,143.57601158333335,73.0,99.0
212,143.56493562916668,143.97474593333334,69.0,70.0
213,143.9446826291667,144.30227772083336,73.0,99.0
214,144.32442962916667,144.63772090416668,69.0,81.0
215,144.70417662916668,145.08075907083335,73.0,107.0
216,145.0839236291667,145.38930350833334,74.0,93.0
217,145.46367062916667,145.8560758625,74.0,100.0
218,146.1978481625,146.6978483791667,78.0,122.0
219,146.8022788041667,146.8908864375,76.0,81.0
220,146.87822820416667,146.9731649541667,74.0,75.0
221,146.990570025,147.2722157166667,76.0,107.0
222,147.34341827916668,147.4478487041667,74.0,92.0
223,147.43519047083333,147.54595001250001,76.0,72.0
224,147.52538038333336,147.60607662083333,74.0,39.0
225,147.5950006666667,147.72474755833335,73.0,122.0
226,147.73107667500003,148.01272236666668,74.0,95.0
227,148.07443125416668,148.1915199125,72.0,112.0
228,148.17569712083335,148.29436805833333,74.0,70.0
229,148.26746931250003,148.39721620416668,72.0,71.0
230,148.38455797083336,148.51746942083335,71.0,83.0
231,148.50481118750002,148.89088730416668,72.0,93.0
232,149.04595066250002,149.15512792500002,71.0,127.0
233,149.25481151250003,149.83709024583334,71.0,122.0
234,150.03171058333334,150.1899385,69.0,117.0
235,150.22158408333334,150.3845588375,66.0,102.0
236,150.41303986250003,150.59025512916668,67.0,92.0
237,150.58234373333335,150.7516476041667,69.0,99.0
238,150.78329318750002,151.1345591625,67.0,127.0
239,151.14405283750003,151.28329340416667,66.0,102.0
240,151.27379972916668,151.38614155000002,67.0,72.0
241,151.35924280416668,151.4810783,66.0,78.0
242,151.4826605791667,151.57285049166669,64.0,89.0
243,151.566521375,153.05861062916668,66.0,122.0
244,153.05544607083334,153.25006640833334,76.0,117.0
245,153.21525626666667,153.35924367083334,73.0,102.0
246,153.38456013750002,153.560193125,70.0,117.0
247,153.541205775,153.66620582916667,62.0,78.0
248,153.63772480416668,153.7563957416667,64.0,81.0
249,153.74373750833334,153.82918058333334,62.0,67.0
250,153.83709197916667,154.00956040833336,61.0,100.0
251,153.9541806375,154.05228194583336,64.0,81.0
252,154.03804143333335,154.18519339583335,62.0,75.0
253,154.17411744166668,154.28171242500002,64.0,59.0
254,154.25956051666668,154.36082638333335,62.0,76.0
255,154.33234535833336,154.92253548750003,61.0,97.0
256,154.95576335,155.26272550833335,59.0,100.0
257,155.31810527916667,156.10766258333334,58.0,127.0
258,161.4035509541667,161.5554497541667,59.0,96.0
259,161.5776016625,161.75956376666667,61.0,79.0
260,161.76114604583336,162.03646262083336,64.0,92.0
261,161.933614475,162.16146267500002,69.0,88.0
262,162.13614620833334,162.3434247791667,71.0,90.0
263,162.34026022083336,162.54437423333334,73.0,100.0
264,162.5427919541667,162.71842494166668,74.0,102.0
265,162.72791861666667,162.9082984416667,76.0,89.0
266,162.91620983750002,164.212096475,73.0,96.0
267,165.5902616291667,165.91621113750003,90.0,73.0
268,165.5855147916667,165.92728709166667,86.0,73.0
269,165.7801351291667,166.11557831250002,85.0,78.0
270,165.96842635000002,166.11557831250002,85.0,80.0
271,165.79121108333334,166.1250719875,88.0,78.0
272,165.96684407083336,166.1250719875,88.0,80.0
273,166.1456416166667,166.48899619583335,86.0,80.0
274,166.33551511666667,166.48899619583335,86.0,75.0
275,166.15513529166668,166.50007215000002,83.0,80.0
276,166.33709739583335,166.50007215000002,83.0,75.0
277,166.52064177916668,166.86399635833334,81.0,72.0
278,166.71684439583336,166.86399635833334,81.0,68.0
279,166.5143126625,166.86557863750002,78.0,73.0
280,166.71367983750002,166.86557863750002,78.0,68.0
281,166.90988245416668,167.23266740416668,79.0,65.0
282,167.10292051250002,167.23266740416668,79.0,62.0
283,166.90830017500002,167.23899652083335,76.0,65.0
284,167.10133823333334,167.23899652083335,76.0,62.0
285,167.29437629166668,167.63931315000002,78.0,60.0
286,167.49374346666667,167.63931315000002,78.0,96.0
287,167.29754085000002,167.64247770833336,74.0,60.0
288,167.49216118750002,167.64247770833336,74.0,72.0
289,173.18520162916667,173.43361945833334,71.0,69.0
290,173.18520162916667,173.43994857500002,74.0,89.0
291,173.56494862916668,173.82918925,74.0,97.0
292,173.56494862916668,173.90672092916668,71.0,95.0
293,173.9446956291667,174.2864679291667,76.0,69.0
294,173.9446956291667,174.29754388333336,73.0,85.0
295,174.3244426291667,175.76589895,71.0,86.0
296,174.3244426291667,175.76589895,74.0,96.0
297,175.84343062916668,176.14881050833336,71.0,107.0
298,175.84343062916668,176.155139625,74.0,102.0
299,176.22317762916668,176.61558286250002,73.0,99.0
300,176.22317762916668,176.63615249166668,69.0,83.0
301,176.6029246291667,178.08077337083336,67.0,107.0
302,176.6029246291667,178.11874807083336,71.0,97.0
303,194.07128662916668,194.19628668333334,66.0,102.0
304,194.19786896250002,194.34660320416668,67.0,85.0
305,194.32445129583334,194.4636918625,68.0,60.0
306,194.4510336291667,194.56495772916668,69.0,78.0
307,194.5776159625,194.71527425000002,70.0,112.0
308,194.70419829583335,194.84027430416668,72.0,90.0
309,194.8307806291667,195.2437554916667,78.0,127.0
310,195.21052762916668,195.34027452083336,74.0,102.0
311,195.5902746291667,195.71685696250003,78.0,112.0
312,195.9700216291667,196.03805963333335,74.0,117.0
313,196.1598951291667,196.2548318791667,78.0,99.0
314,196.34976862916668,196.46052817083336,71.0,107.0
315,196.72951562916668,196.88932582500001,78.0,107.0
316,197.1092626291667,197.26274370833335,71.0,99.0
317,201.8561001291667,202.07129009583335,85.0,74.0
318,202.0459736291667,202.2833155041667,86.0,67.0
319,202.23584712916667,202.46053077083334,85.0,99.0
320,202.42572062916668,202.68204985416668,86.0,100.0
321,202.61559412916668,202.85768284166667,85.0,72.0
322,202.80546762916669,203.04755634166668,86.0,100.0
323,202.9953411291667,203.20578425833335,85.0,112.0
324,203.1852146291667,204.06970868333335,83.0,99.0
325,208.8814196291667,209.0855336416667,78.0,127.0
326,209.0712931291667,209.21369825416667,74.0,99.0
327,209.2611666291667,209.4367996166667,71.0,107.0
328,209.4510401291667,209.6219262791667,66.0,117.0
329,209.64091362916668,209.81496433750002,62.0,96.0
330,209.83078712916668,210.0143315125,61.0,102.0
331,210.02066062916668,210.21686324583337,59.0,97.0
332,210.2105341291667,210.4605342375,64.0,100.0
333,210.4004076291667,210.58078745416668,62.0,95.0
334,210.5902811291667,210.75167360416668,61.0,97.0
335,210.78015462916667,210.99534459583336,59.0,99.0
336,210.97002812916668,211.19471177083335,57.0,97.0
337,211.15990162916668,211.38142071250002,59.0,92.0
338,211.3497751291667,211.471610625,61.0,99.0
339,211.5396486291667,211.76433227083336,62.0,95.0
340,211.7295221291667,211.85135762500002,66.0,102.0
341,211.9193956291667,212.1614843416667,71.0,97.0
342,212.10926912916668,212.27540844166668,73.0,117.0
343,212.29914262916668,212.7358516791667,74.0,117.0
344,212.6788896291667,213.0871176541667,76.0,127.0
345,213.0586366291667,215.4225617041667,74.0,127.0
346,230.52699862916668,230.65199868333335,66.0,102.0
347,230.65358096250003,230.8023152041667,67.0,85.0
348,230.78016329583335,230.91940386250002,68.0,60.0
349,230.9067456291667,231.02066972916668,69.0,78.0
350,231.0333279625,231.17098625000003,70.0,112.0
351,231.15991029583336,231.2959863041667,72.0,90.0
352,231.2864926291667,231.6994674916667,78.0,127.0
353,231.66623962916668,231.79598652083337,74.0,102.0
354,232.0459866291667,232.1725689625,78.0,112.0
355,232.4257336291667,232.49377163333335,74.0,117.0
356,232.61560712916668,232.7105438791667,78.0,99.0
357,232.80548062916668,232.91624017083336,71.0,107.0
358,233.1852276291667,233.34503782500002,78.0,107.0
359,233.5649746291667,233.71845570833335,71.0,99.0
360,238.3118121291667,238.52700209583335,85.0,74.0
361,238.5016856291667,238.7390275041667,86.0,67.0
362,238.69155912916668,238.91624277083335,85.0,99.0
363,238.88143262916668,239.13776185416668,86.0,100.0
364,239.0713061291667,239.31339484166668,85.0,72.0
365,239.2611796291667,239.50326834166668,86.0,100.0
366,239.4510531291667,239.66149625833336,85.0,112.0
367,239.6409266291667,240.52542068333335,83.0,99.0
368,245.3371316291667,245.7390305375,71.0,97.0
369,245.7168786291667,245.99377748333336,78.0,127.0
370,246.09662562916668,246.33080294583337,78.0,127.0
371,246.4763726291667,247.11877797083335,78.0,127.0
372,247.23586662916668,247.98586695416668,74.0,117.0
373,247.9953606291667,248.7548546291667,71.0,112.0
374,248.7548546291667,249.33555108333337,66.0,112.0
375,249.3244751291667,249.51751318750001,64.0,96.0
376,249.51434862916668,252.01276743333335,66.0,117.0
