,start,end,pitch,velocity
0,46.34970362916667,46.72945062916667,69.0,99.0
1,46.72945062916667,47.10919762916667,71.0,93.0
2,47.10919762916667,48.62818562916667,78.0,112.0
3,48.62818562916667,49.007932629166675,71.0,112.0
4,49.007932629166675,50.90666762916667,69.0,96.0
5,50.90666762916667,51.28641462916667,66.0,107.0
6,51.28641462916667,51.675655304166675,69.0,97.0
7,51.66616162916667,53.18514962916667,76.0,99.0
8,53.18514962916667,53.564896629166675,69.0,95.0
9,53.564896629166675,55.46363162916667,71.0,100.0
10,55.46363162916667,55.84337862916667,69.0,100.0
11,55.84337862916667,56.223125629166674,71.0,100.0
12,56.223125629166674,56.601290350000006,78.0,95.0
13,56.60287262916667,56.98103735000001,78.0,122.0
14,56.98261962916667,57.36078435,78.0,117.0
15,57.36236662916667,57.742113629166674,78.0,122.0
16,57.742113629166674,58.12186062916667,71.0,117.0
17,58.12186062916667,59.64084862916667,69.0,99.0
18,59.64084862916667,60.028507025,71.0,112.0
19,60.02059562916667,60.40034262916667,69.0,96.0
20,60.40034262916667,64.57755962916667,66.0,99.0
21,64.57755962916667,64.95730662916667,69.0,99.0
22,64.95730662916667,65.33705362916668,71.0,93.0
23,65.33705362916668,66.85604162916667,78.0,112.0
24,66.85604162916667,67.23578862916668,71.0,112.0
25,67.23578862916668,69.13452362916668,69.0,96.0
26,69.13452362916668,69.51427062916667,66.0,107.0
27,69.51427062916667,69.90351130416667,69.0,97.0
28,69.89401762916667,70.27218235000001,76.0,99.0
29,70.27376462916668,71.41300562916668,76.0,122.0
30,71.41300562916668,71.79275262916667,69.0,95.0
31,71.79275262916667,73.69148762916667,71.0,100.0
32,73.69148762916667,74.07123462916667,69.0,100.0
33,74.07123462916667,74.45098162916668,71.0,100.0
34,74.45098162916668,74.82914635,78.0,95.0
35,74.83072862916667,75.20889335000001,78.0,122.0
36,75.21047562916668,75.58864035,78.0,117.0
37,75.59022262916668,75.96996962916667,78.0,122.0
38,75.96996962916667,76.34971662916668,71.0,117.0
39,76.34971662916668,77.10921062916667,69.0,112.0
40,77.10921062916667,78.24845162916668,71.0,127.0
41,78.24845162916668,79.00794562916667,74.0,127.0
42,79.00794562916667,82.42408635000001,71.0,112.0
43,82.42566862916668,82.80541562916667,71.0,117.0
44,82.80541562916667,83.18516262916667,73.0,127.0
45,83.18516262916667,83.56490962916668,74.0,117.0
46,83.56490962916668,83.94465662916667,71.0,107.0
47,83.94465662916667,84.32440362916668,74.0,122.0
48,84.32440362916668,84.70415062916668,71.0,127.0
49,84.70415062916668,85.08389762916667,74.0,127.0
50,85.08389762916667,85.46364462916668,71.0,117.0
51,85.46364462916668,85.84339162916667,74.0,127.0
52,85.84339162916667,86.22155635000001,76.0,127.0
53,86.22313862916667,87.36237962916667,76.0,127.0
54,87.36237962916667,87.74212662916668,78.0,127.0
55,87.74212662916668,88.12187362916667,69.0,117.0
56,88.12187362916667,88.50162062916668,66.0,127.0
57,88.50162062916668,88.88136762916668,69.0,122.0
58,88.88136762916668,89.26111462916667,66.0,122.0
59,89.26111462916667,89.64086162916668,69.0,117.0
60,89.64086162916668,90.02060862916667,66.0,127.0
61,90.02060862916667,90.40035562916667,69.0,127.0
62,90.40035562916667,90.77852035000001,71.0,112.0
63,90.78010262916668,91.91776135,71.0,127.0
64,91.91934362916668,92.29909062916667,71.0,107.0
65,92.29909062916667,92.67883762916668,74.0,127.0
66,92.67883762916668,93.05858462916667,71.0,107.0
67,93.05858462916667,93.43833162916667,74.0,127.0
68,93.43833162916667,93.81807862916668,71.0,117.0
69,93.81807862916668,94.19782562916667,74.0,127.0
70,94.19782562916667,94.57757262916668,71.0,117.0
71,94.57757262916668,94.95731962916668,74.0,127.0
72,94.95731962916668,95.33548435000002,76.0,100.0
73,95.33706662916667,96.09656062916667,76.0,127.0
74,96.09656062916667,96.47472535000001,69.0,112.0
75,96.47630762916667,96.85605462916668,69.0,112.0
76,96.85605462916668,97.61554862916668,79.0,127.0
77,97.61554862916668,98.37504262916667,78.0,127.0
78,98.37504262916667,98.75478962916668,76.0,107.0
79,98.75478962916668,99.13453662916667,79.0,102.0
80,99.13453662916667,101.03327162916668,78.0,127.0
81,101.03327162916668,101.41301862916667,71.0,112.0
82,101.41301862916667,101.79276562916668,74.0,127.0
83,101.79276562916668,102.17251262916668,71.0,112.0
84,102.17251262916668,102.55225962916667,74.0,127.0
85,102.55225962916667,102.93200662916668,71.0,127.0
86,102.93200662916668,103.31175362916667,74.0,127.0
87,103.31175362916667,103.69150062916668,71.0,117.0
88,103.69150062916668,104.07124762916668,74.0,122.0
89,104.07124762916668,104.44941235,76.0,127.0
90,104.45099462916667,105.59023562916667,76.0,127.0
91,105.59023562916667,105.96998262916668,78.0,127.0
92,105.96998262916668,106.34972962916667,69.0,117.0
93,106.34972962916667,106.72947662916668,66.0,122.0
94,106.72947662916668,107.10922362916668,69.0,117.0
95,107.10922362916668,107.48897062916667,66.0,127.0
96,107.48897062916667,107.86871762916668,69.0,122.0
97,107.86871762916668,108.24846462916668,66.0,127.0
98,108.24846462916668,108.62821162916667,69.0,127.0
99,108.62821162916667,109.00637635000001,71.0,127.0
100,109.00795862916668,110.14561735000001,71.0,122.0
101,110.14719962916668,110.52694662916667,71.0,112.0
102,110.52694662916667,110.90669362916668,74.0,127.0
103,110.90669362916668,111.28644062916668,71.0,112.0
104,111.28644062916668,111.66618762916667,74.0,127.0
105,111.66618762916667,112.04593462916668,71.0,117.0
106,112.04593462916668,112.42568162916668,74.0,127.0
107,112.42568162916668,112.80542862916668,71.0,112.0
108,112.80542862916668,113.56492262916667,74.0,122.0
109,113.56492262916667,114.75954340000001,73.0,127.0
110,114.70416362916667,115.46365762916668,74.0,117.0
111,115.46365762916668,119.26112762916668,71.0,99.0
112,119.26112762916668,119.64087462916667,69.0,99.0
113,119.64087462916667,120.02062162916668,71.0,93.0
114,120.02062162916668,121.53960962916668,78.0,112.0
115,121.53960962916668,121.91935662916667,71.0,112.0
116,121.91935662916667,123.81809162916667,69.0,96.0
117,123.81809162916667,124.19783862916668,66.0,107.0
118,124.19783862916668,124.58707930416668,69.0,97.0
119,124.57758562916668,126.09657362916668,76.0,99.0
120,126.09657362916668,126.47632062916668,69.0,95.0
121,126.47632062916668,128.37505562916667,71.0,100.0
122,128.37505562916667,128.75480262916668,69.0,100.0
123,128.75480262916668,129.13454962916668,71.0,100.0
124,129.13454962916668,129.51271435,78.0,95.0
125,129.51429662916667,129.89246135000002,78.0,122.0
126,129.89404362916667,130.27220835,78.0,117.0
127,130.27379062916668,130.6535376291667,78.0,122.0
128,130.6535376291667,131.03328462916667,71.0,117.0
129,131.03328462916667,131.7927786291667,69.0,99.0
130,131.7927786291667,132.9320196291667,71.0,117.0
131,132.9320196291667,133.69151362916668,74.0,127.0
132,133.69151362916668,136.70892,71.0,112.0
133,157.99532162916668,158.3750686291667,69.0,99.0
134,158.3750686291667,158.75481562916667,71.0,93.0
135,158.75481562916667,160.27380362916668,78.0,112.0
136,160.27380362916668,160.6535506291667,71.0,112.0
137,160.6535506291667,162.55228562916668,69.0,96.0
138,162.55228562916668,162.93203262916668,66.0,107.0
139,162.93203262916668,163.32127330416668,69.0,97.0
140,163.3117796291667,163.68994435000002,76.0,99.0
141,163.69152662916667,164.83076762916667,76.0,122.0
142,164.83076762916667,165.21051462916668,69.0,95.0
143,165.21051462916668,167.10924962916667,71.0,100.0
144,167.10924962916667,167.48899662916668,69.0,100.0
145,167.48899662916668,167.8687436291667,71.0,100.0
146,167.8687436291667,168.24690835,78.0,95.0
147,168.2484906291667,168.62665535000002,78.0,122.0
148,168.62823762916668,169.00640235,78.0,117.0
149,169.00798462916669,169.3877316291667,78.0,122.0
150,169.3877316291667,169.76747862916667,71.0,117.0
151,169.76747862916667,170.5269726291667,69.0,112.0
152,170.5269726291667,171.6662136291667,71.0,127.0
153,171.6662136291667,172.42570762916668,74.0,127.0
154,172.42570762916668,175.84184835000002,71.0,112.0
155,175.84343062916668,176.22317762916668,71.0,117.0
156,176.22317762916668,176.6029246291667,73.0,127.0
157,176.6029246291667,176.98267162916667,74.0,117.0
158,176.98267162916667,177.36241862916668,71.0,107.0
159,177.36241862916668,177.7421656291667,74.0,122.0
160,177.7421656291667,178.12191262916667,71.0,127.0
161,178.12191262916667,178.50165962916668,74.0,127.0
162,178.50165962916668,178.8814066291667,71.0,117.0
163,178.8814066291667,179.26115362916667,74.0,127.0
164,179.26115362916667,179.63931835000002,76.0,127.0
165,179.64090062916668,180.78014162916668,76.0,127.0
166,180.78014162916668,181.1598886291667,78.0,127.0
167,181.1598886291667,181.5396356291667,69.0,117.0
168,181.5396356291667,181.91938262916668,66.0,127.0
169,181.91938262916668,182.29912962916669,69.0,122.0
170,182.29912962916669,182.6788766291667,66.0,122.0
171,182.6788766291667,183.05862362916668,69.0,117.0
172,183.05862362916668,183.43837062916668,66.0,127.0
173,183.43837062916668,183.8181176291667,69.0,127.0
174,183.8181176291667,184.19628235000002,71.0,112.0
175,184.19786462916667,185.33552335000002,71.0,127.0
176,185.33710562916667,185.71685262916668,71.0,107.0
177,185.71685262916668,186.0965996291667,74.0,127.0
178,186.0965996291667,186.47634662916667,71.0,107.0
179,186.47634662916667,186.85609362916668,74.0,127.0
180,186.85609362916668,187.2358406291667,71.0,117.0
181,187.2358406291667,187.6155876291667,74.0,127.0
182,187.6155876291667,187.99533462916668,71.0,117.0
183,187.99533462916668,188.3750816291667,74.0,127.0
184,188.3750816291667,188.75324635,76.0,100.0
185,188.7548286291667,189.51432262916668,76.0,127.0
186,189.51432262916668,189.89248735,69.0,112.0
187,189.8940696291667,190.27381662916667,69.0,112.0
188,190.27381662916667,191.0333106291667,79.0,127.0
189,191.0333106291667,191.79280462916668,78.0,127.0
190,191.79280462916668,192.1725516291667,76.0,107.0
191,192.1725516291667,192.55229862916667,79.0,102.0
192,192.55229862916667,194.4510336291667,78.0,127.0
193,194.4510336291667,194.8307806291667,71.0,112.0
194,194.8307806291667,195.21052762916668,74.0,127.0
195,195.21052762916668,195.5902746291667,71.0,112.0
196,195.5902746291667,195.9700216291667,74.0,127.0
197,195.9700216291667,196.34976862916668,71.0,127.0
198,196.34976862916668,196.72951562916668,74.0,127.0
199,196.72951562916668,197.1092626291667,71.0,117.0
200,197.1092626291667,197.48900962916667,74.0,122.0
201,197.48900962916667,197.86717435000003,76.0,127.0
202,197.86875662916668,199.00799762916668,76.0,127.0
203,199.00799762916668,199.3877446291667,78.0,127.0
204,199.3877446291667,199.7674916291667,69.0,117.0
205,199.7674916291667,200.14723862916668,66.0,122.0
206,200.14723862916668,200.5269856291667,69.0,117.0
207,200.5269856291667,200.9067326291667,66.0,127.0
208,200.9067326291667,201.28647962916668,69.0,122.0
209,201.28647962916668,201.6662266291667,66.0,127.0
210,201.6662266291667,202.0459736291667,69.0,127.0
211,202.0459736291667,202.42413835000002,71.0,127.0
212,202.42572062916668,203.56337935000002,71.0,122.0
213,203.56496162916667,203.94470862916668,71.0,112.0
214,203.94470862916668,204.3244556291667,74.0,127.0
215,204.3244556291667,204.70420262916667,71.0,112.0
216,204.70420262916667,205.08394962916668,74.0,127.0
217,205.08394962916668,205.4636966291667,71.0,117.0
218,205.4636966291667,205.8434436291667,74.0,127.0
219,205.8434436291667,206.22319062916668,71.0,112.0
220,206.22319062916668,206.9826846291667,74.0,122.0
221,206.9826846291667,208.17730540000002,73.0,127.0
222,208.1219256291667,208.8814196291667,74.0,117.0
223,208.8814196291667,213.0586366291667,71.0,99.0
224,213.0586366291667,213.43838362916668,74.0,117.0
225,213.43838362916668,213.8181306291667,71.0,107.0
226,213.8181306291667,214.1978776291667,74.0,122.0
227,214.1978776291667,214.57762462916668,71.0,127.0
228,214.57762462916668,214.9573716291667,74.0,127.0
229,214.9573716291667,215.3371186291667,71.0,117.0
230,215.3371186291667,215.71686562916668,74.0,127.0
231,215.71686562916668,216.09503035000003,76.0,127.0
232,216.09661262916669,217.23585362916668,76.0,127.0
233,217.23585362916668,217.6156006291667,78.0,127.0
234,217.6156006291667,217.99534762916667,69.0,117.0
235,217.99534762916667,218.37509462916668,66.0,127.0
236,218.37509462916668,218.7548416291667,69.0,122.0
237,218.7548416291667,219.1345886291667,66.0,122.0
238,219.1345886291667,219.51433562916668,69.0,117.0
239,219.51433562916668,219.8940826291667,66.0,127.0
240,219.8940826291667,220.2738296291667,69.0,127.0
241,220.2738296291667,220.65199435000002,71.0,112.0
242,220.65357662916668,221.79123535000002,71.0,127.0
243,221.79281762916668,222.1725646291667,71.0,107.0
244,222.1725646291667,222.5523116291667,74.0,127.0
245,222.5523116291667,222.93205862916668,71.0,107.0
246,222.93205862916668,223.31180562916668,74.0,127.0
247,223.31180562916668,223.6915526291667,71.0,117.0
248,223.6915526291667,224.07129962916667,74.0,127.0
249,224.07129962916667,224.45104662916668,71.0,117.0
250,224.45104662916668,224.8307936291667,74.0,127.0
251,224.8307936291667,225.20895835000002,76.0,100.0
252,225.2105406291667,225.9700346291667,76.0,127.0
253,225.9700346291667,226.34819935000002,69.0,112.0
254,226.3497816291667,226.72952862916668,69.0,112.0
255,226.72952862916668,227.4890226291667,79.0,127.0
256,227.4890226291667,228.2485166291667,78.0,127.0
257,228.2485166291667,228.6282636291667,76.0,107.0
258,228.6282636291667,229.00801062916668,79.0,102.0
259,229.00801062916668,230.9067456291667,78.0,127.0
260,230.9067456291667,231.2864926291667,71.0,112.0
261,231.2864926291667,231.66623962916668,74.0,127.0
262,231.66623962916668,232.0459866291667,71.0,112.0
263,232.0459866291667,232.4257336291667,74.0,127.0
264,232.4257336291667,232.80548062916668,71.0,127.0
265,232.80548062916668,233.1852276291667,74.0,127.0
266,233.1852276291667,233.5649746291667,71.0,117.0
267,233.5649746291667,233.94472162916668,74.0,122.0
268,233.94472162916668,234.32288635000003,76.0,127.0
269,234.3244686291667,235.4637096291667,76.0,127.0
270,235.4637096291667,235.8434566291667,78.0,127.0
271,235.8434566291667,236.22320362916668,69.0,117.0
272,236.22320362916668,236.60295062916668,66.0,122.0
273,236.60295062916668,236.9826976291667,69.0,117.0
274,236.9826976291667,237.3624446291667,66.0,127.0
275,237.3624446291667,237.74219162916668,69.0,122.0
276,237.74219162916668,238.1219386291667,66.0,127.0
277,238.1219386291667,238.5016856291667,69.0,127.0
278,238.5016856291667,238.87985035000003,71.0,127.0
279,238.88143262916668,240.01909135000002,71.0,122.0
280,240.02067362916668,240.4004206291667,71.0,112.0
281,240.4004206291667,240.7801676291667,74.0,127.0
282,240.7801676291667,241.15991462916668,71.0,112.0
283,241.15991462916668,241.5396616291667,74.0,127.0
284,241.5396616291667,241.9194086291667,71.0,117.0
285,241.9194086291667,242.29915562916668,74.0,127.0
286,242.29915562916668,242.67890262916669,71.0,112.0
287,242.67890262916669,243.4383966291667,74.0,122.0
288,243.4383966291667,244.63301740000003,73.0,127.0
289,244.5776376291667,245.3371316291667,74.0,117.0
290,245.3371316291667,249.1298547916667,71.0,99.0
291,249.1298547916667,249.50960179166668,69.0,99.0
292,249.50960179166668,249.8893487916667,71.0,93.0
293,249.8893487916667,251.4083367916667,78.0,112.0
294,251.4083367916667,251.78808379166668,71.0,112.0
295,251.78808379166668,253.6868187916667,69.0,96.0
296,253.6868187916667,254.0665657916667,66.0,107.0
297,254.0665657916667,254.45738874583336,69.0,97.0
298,254.44631279166668,255.9653007916667,76.0,99.0
299,255.9653007916667,256.3450477916667,69.0,95.0
300,256.3450477916667,258.2437827916667,71.0,100.0
301,258.2437827916667,258.62352979166667,69.0,100.0
302,258.62352979166667,259.0032767916667,71.0,100.0
303,259.0032767916667,259.38144151250003,78.0,95.0
304,259.3830237916667,259.76118851250004,78.0,122.0
305,259.7627707916667,260.14093551250005,78.0,117.0
306,260.1425177916667,260.5222647916667,78.0,122.0
307,260.5222647916667,260.90201179166667,71.0,117.0
308,260.90201179166667,261.6615057916667,69.0,99.0
309,261.6615057916667,262.8007467916667,71.0,117.0
310,262.8007467916667,263.5602407916667,74.0,127.0
311,263.5602407916667,267.3577107916667,71.0,112.0
312,267.3577107916667,267.7374577916667,69.0,100.0
313,267.7374577916667,268.11720479166667,71.0,100.0
314,268.11720479166667,268.4953695125,78.0,95.0
315,268.4969517916667,268.8751165125,78.0,122.0
316,268.8766987916667,269.25486351250004,78.0,117.0
317,269.2564457916667,269.6361927916667,78.0,122.0
318,269.6361927916667,270.0159397916667,71.0,117.0
319,270.0159397916667,270.77543379166667,69.0,99.0
320,270.77543379166667,271.9146747916667,71.0,117.0
321,271.9146747916667,272.6741687916667,74.0,127.0
322,272.6741687916667,275.696322,71.0,112.0
