,start,end,pitch,velocity
0,26.223112629166668,26.648745725,62.0,93.0
1,26.223112629166668,26.655074841666668,59.0,81.0
2,26.223112629166668,26.685138145833335,66.0,96.0
3,26.60285962916667,27.148745941666668,47.0,90.0
4,26.982606629166668,27.27691055416667,62.0,90.0
5,26.982606629166668,27.32437892916667,66.0,99.0
6,27.742100629166668,28.037986833333335,62.0,102.0
7,27.742100629166668,28.069632416666668,66.0,112.0
8,26.223112629166668,28.47786044166667,35.0,81.0
9,28.40665787916667,28.898746700000004,61.0,100.0
10,28.501594629166668,28.96678470416667,57.0,88.0
11,28.501594629166668,28.998430287500003,64.0,86.0
12,28.88134162916667,29.487354550000003,45.0,51.0
13,29.261088629166668,29.819633175000003,57.0,81.0
14,29.261088629166668,29.865519270833335,64.0,75.0
15,29.261088629166668,29.90665852916667,61.0,92.0
16,28.40665787916667,30.03482314166667,33.0,71.0
17,29.64083562916667,30.183557383333337,45.0,18.0
18,30.020582629166668,30.482608145833336,61.0,122.0
19,30.40032962916667,30.63292466666667,57.0,58.0
20,30.78007662916667,31.26900089166667,66.0,96.0
21,30.78007662916667,31.32121610416667,57.0,81.0
22,30.78007662916667,31.39241866666667,61.0,100.0
23,31.15982362916667,31.678811195833337,54.0,39.0
24,31.53957062916667,32.16140634166667,61.0,67.0
25,31.53957062916667,32.18039369166667,66.0,67.0
26,30.78007662916667,32.468368500000004,42.0,102.0
27,32.29906462916667,32.56488752916667,61.0,107.0
28,32.29906462916667,32.58071032083333,66.0,96.0
29,33.05855862916667,33.19621691666667,31.0,74.0
30,33.05855862916667,33.47628032916667,67.0,93.0
31,33.05855862916667,33.48260944583333,71.0,86.0
32,33.05855862916667,33.49526767916667,62.0,90.0
33,33.81805262916667,34.04748310833334,67.0,64.0
34,33.81805262916667,34.06963501666667,62.0,64.0
35,33.81805262916667,34.08071097083334,71.0,63.0
36,34.57754662916667,34.856027762500005,67.0,112.0
37,34.57754662916667,34.898749300000006,71.0,107.0
38,34.95729362916667,35.01425567916667,62.0,75.0
39,35.33704062916667,35.435141937500006,35.0,71.0
40,35.33704062916667,35.74052181666667,62.0,102.0
41,35.33704062916667,35.78799019166667,59.0,93.0
42,35.33704062916667,35.78799019166667,66.0,100.0
43,36.09653462916667,36.23893975416667,62.0,75.0
44,36.09653462916667,36.250015708333336,59.0,65.0
45,36.09653462916667,36.29115496666667,66.0,75.0
46,36.47628162916667,36.91773751666667,54.0,53.0
47,35.71678762916667,36.93672486666667,47.0,48.0
48,36.85602862916667,37.238940187500006,66.0,127.0
49,37.23577562916667,37.41615545416667,62.0,72.0
50,37.42564912916667,37.556978300000004,59.0,65.0
51,37.61552262916667,37.973117720833336,61.0,112.0
52,37.99526962916667,38.60444710833334,52.0,58.0
53,38.37501662916667,39.00476373750001,64.0,93.0
54,38.75476362916667,39.204130912500005,52.0,53.0
55,37.61552262916667,39.237358775000004,45.0,83.0
56,39.13451062916667,39.54273865416667,61.0,127.0
57,39.70413112916667,39.814890670833336,61.0,77.0
58,39.51425762916667,39.82438434583334,57.0,89.0
59,39.89400462916667,40.33546051666667,66.0,99.0
60,39.89400462916667,40.341789633333335,57.0,92.0
61,39.89400462916667,40.395587125000006,61.0,107.0
62,40.27375162916667,40.89084050416667,54.0,79.0
63,41.03324562916667,41.48103063333334,54.0,52.0
64,39.89400462916667,41.73103074166667,42.0,99.0
65,41.60286612916667,41.743688975000005,54.0,85.0
66,41.41299262916667,41.784828233333336,61.0,127.0
67,40.65349862916667,41.80223330416667,66.0,96.0
68,41.79273962916667,41.93672703333334,57.0,90.0
69,42.55223362916667,42.9541325375,50.0,48.0
70,42.17248662916667,42.976284445833336,59.0,90.0
71,42.931980629166674,42.98894267916667,55.0,93.0
72,42.17248662916667,42.996854075,62.0,89.0
73,43.69147462916667,44.700968737500006,55.0,69.0
74,43.69147462916667,46.28324790416667,67.0,75.0
75,43.69147462916667,46.28324790416667,71.0,72.0
76,43.69147462916667,46.337045395833336,62.0,73.0
77,42.17248662916667,46.72945062916667,43.0,83.0
78,43.31172762916667,46.72945062916667,50.0,42.0
79,47.10919762916667,47.689894083333336,47.0,79.0
80,47.86869162916667,48.36394500833334,47.0,53.0
81,46.72945062916667,48.514261529166674,35.0,67.0
82,47.488944629166674,48.927236391666675,66.0,90.0
83,48.24843862916667,48.963628812500005,62.0,73.0
84,48.62818562916667,49.02850225833334,59.0,44.0
85,49.38767962916667,50.031667250000005,45.0,59.0
86,50.14717362916667,50.443059833333336,45.0,58.0
87,49.007932629166675,50.50476872083334,33.0,63.0
88,49.76742662916667,50.57755356250001,61.0,99.0
89,50.526920629166675,51.14400950416667,57.0,82.0
90,50.90666762916667,51.340212120833336,61.0,50.0
91,51.66616162916667,52.245275804166674,42.0,62.0
92,51.28641462916667,52.60128861666667,30.0,66.0
93,52.42565562916667,52.901921658333336,42.0,58.0
94,53.18514962916667,53.58388397916667,54.0,55.0
95,52.80540262916667,53.61236500416667,57.0,74.0
96,52.045908629166675,53.63609919166667,61.0,79.0
97,53.94464362916667,54.460466637500005,47.0,73.0
98,54.32439062916667,54.84179591666667,66.0,92.0
99,54.32439062916667,54.84337819583334,62.0,72.0
100,54.704137629166674,55.23261887083334,47.0,86.0
101,53.564896629166675,55.37977083333334,35.0,68.0
102,55.08388462916667,55.45888479166667,61.0,95.0
103,55.46363162916667,55.88135332916667,62.0,77.0
104,56.223125629166674,56.76110054583334,43.0,88.0
105,55.84337862916667,57.4035058875,31.0,79.0
106,56.98261962916667,57.52850594166667,43.0,45.0
107,56.60287262916667,58.17565812083334,62.0,93.0
108,57.36236662916667,58.18515179583334,59.0,82.0
109,57.742113629166674,58.21679737916667,55.0,58.0
110,58.50160762916667,59.07281040833334,45.0,92.0
111,58.12186062916667,59.677241050000006,33.0,66.0
112,58.88135462916667,59.70255751666667,61.0,112.0
113,59.261101629166674,60.31173499583334,45.0,82.0
114,59.64084862916667,60.36236792916667,57.0,85.0
115,60.02059562916667,60.42882365416667,61.0,65.0
116,61.15983662916667,61.94939393333334,62.0,72.0
117,61.53958362916667,62.384520704166675,42.0,58.0
118,61.91933062916667,62.47312833750001,61.0,97.0
119,60.40034262916667,62.59812839166667,35.0,73.0
120,60.780089629166675,62.71363477083334,47.0,83.0
121,62.299077629166675,63.33547048333334,62.0,56.0
122,63.05857162916667,63.55857184583334,47.0,77.0
123,63.43831862916667,64.28009114583334,62.0,86.0
124,63.43831862916667,64.34654687083334,66.0,96.0
125,63.818065629166675,64.37028105833333,47.0,79.0
126,62.67882462916667,64.51743302083334,35.0,69.0
127,64.19781262916668,64.62661028333333,61.0,117.0
128,64.57755962916667,64.97154714166668,57.0,88.0
129,64.95730662916667,65.51585117500001,62.0,76.0
130,64.95730662916667,65.5300916875,59.0,85.0
131,65.33705362916668,65.876610825,43.0,78.0
132,65.71680062916667,66.53009212083334,62.0,99.0
133,64.95730662916667,66.81964920833335,31.0,77.0
134,66.09654762916668,67.19939620833334,43.0,71.0
135,66.85604162916667,67.3671178,55.0,68.0
136,66.47629462916667,67.39401654583334,59.0,99.0
137,67.61553562916667,68.22945994583334,45.0,92.0
138,68.37502962916668,68.8481311,45.0,83.0
139,67.23578862916668,68.86078933333334,33.0,86.0
140,67.99528262916667,69.47629592916667,64.0,102.0
141,68.75477662916667,69.50477695416667,61.0,112.0
142,69.13452362916668,69.57597951666668,57.0,73.0
143,69.89401762916667,70.4383216625,54.0,75.0
144,70.27376462916668,70.94781555416667,61.0,122.0
145,70.65351162916667,71.1266131,54.0,74.0
146,69.51427062916667,71.27060050416668,42.0,100.0
147,71.03325862916667,71.87028430833334,66.0,112.0
148,71.41300562916668,71.95889194166668,61.0,82.0
149,72.17249962916668,72.6788289625,47.0,69.0
150,72.55224662916667,73.24053806666667,62.0,97.0
151,72.93199362916667,73.52693059583333,47.0,90.0
152,71.79275262916667,73.670918,35.0,72.0
153,73.31174062916668,73.68832307083333,61.0,117.0
154,73.69148762916667,74.11079160833334,62.0,93.0
155,74.45098162916668,74.9478172875,43.0,72.0
156,74.83072862916667,75.50003271666668,59.0,85.0
157,75.59022262916668,75.63610872500001,59.0,27.0
158,74.07123462916667,75.78484296666667,31.0,69.0
159,75.21047562916668,76.31015965,43.0,75.0
160,75.59022262916668,76.37977993333334,55.0,97.0
161,74.83072862916667,76.39876728333334,62.0,81.0
162,75.96996962916667,76.40667867916667,59.0,89.0
163,76.72946362916667,77.29750185,45.0,82.0
164,77.10921062916667,77.9857932875,61.0,100.0
165,76.34971662916668,78.14402120416668,33.0,77.0
166,77.48895762916668,78.51743908750001,45.0,67.0
167,78.24845162916668,78.6408568625,61.0,70.0
168,77.10921062916667,78.69623663333334,64.0,83.0
169,77.86870462916667,78.84022403750001,57.0,95.0
170,79.00794562916667,79.60288259583334,47.0,88.0
171,79.38769262916668,80.23262970416667,59.0,88.0
172,80.14718662916667,80.5300981875,61.0,112.0
173,79.76743962916667,80.80383248333334,47.0,82.0
174,80.52693362916668,80.9573135625,62.0,95.0
175,78.62819862916668,81.04908575416667,35.0,82.0
176,80.90668062916667,81.39085805416667,59.0,88.0
177,81.28642762916668,81.82914938333334,54.0,86.0
178,81.66617462916668,82.18674447500001,66.0,127.0
179,82.04592162916667,82.46680788750001,54.0,86.0
180,82.61554212916667,82.69465608750001,54.0,127.0
181,80.90668062916667,82.74687130000001,47.0,86.0
182,82.42566862916668,82.78009916250001,62.0,127.0
183,82.80541562916667,82.889276425,61.0,127.0
184,83.18516262916667,83.45098552916667,62.0,96.0
185,83.18516262916667,83.53168176666668,67.0,100.0
186,83.18516262916667,83.553833675,71.0,93.0
187,83.18516262916667,84.06965668333333,43.0,96.0
188,83.94465662916667,84.08864403333334,67.0,102.0
189,83.94465662916667,84.10288454583335,62.0,102.0
190,83.94465662916667,84.12503645416668,71.0,102.0
191,83.18516262916667,84.86554310416668,31.0,72.0
192,83.18516262916667,84.86554310416668,31.0,102.0
193,84.32440362916668,84.88294817500001,43.0,95.0
194,84.70415062916668,85.05383432500001,71.0,117.0
195,84.70415062916668,85.12029005000001,67.0,127.0
196,85.08389762916667,85.22472047500001,62.0,77.0
197,85.46364462916668,85.63453077916668,33.0,72.0
198,85.46364462916668,85.63453077916668,33.0,112.0
199,85.46364462916668,85.71680929583334,45.0,96.0
200,85.46364462916668,85.92250558750001,69.0,117.0
201,85.46364462916668,85.93991065833335,73.0,122.0
202,85.46364462916668,86.05067020000001,64.0,112.0
203,86.22313862916667,86.59972107083334,73.0,127.0
204,86.22313862916667,86.60763246666667,69.0,122.0
205,86.22313862916667,86.61079702500001,64.0,102.0
206,86.98263262916667,87.30858213750001,69.0,127.0
207,86.98263262916667,87.33548088333335,73.0,127.0
208,87.74212662916668,87.91143050000001,30.0,89.0
209,87.74212662916668,87.91143050000001,30.0,122.0
210,87.74212662916668,88.14560781666667,73.0,122.0
211,87.74212662916668,88.15984832916668,69.0,86.0
212,87.74212662916668,88.28801294166668,66.0,99.0
213,88.50162062916668,88.56174723750001,69.0,100.0
214,88.50162062916668,88.56649407500001,73.0,102.0
215,88.50162062916668,88.62978524166668,66.0,117.0
216,87.74212662916668,88.7611144125,42.0,83.0
217,88.88136762916668,89.34022858750001,42.0,95.0
218,89.26111462916667,89.36079821666668,61.0,107.0
219,89.26111462916667,89.57598818333334,66.0,122.0
220,89.26111462916667,89.60446920833334,69.0,100.0
221,89.64086162916668,89.71364647083334,61.0,112.0
222,90.02060862916667,90.59655824583334,62.0,117.0
223,90.02060862916667,90.60130508333334,59.0,97.0
224,90.02060862916667,90.60605192083334,66.0,112.0
225,90.02060862916667,90.87978621666667,47.0,112.0
226,90.78010262916668,91.15352051250001,62.0,117.0
227,90.78010262916668,91.167761025,59.0,112.0
228,90.78010262916668,91.19465977083334,66.0,127.0
229,91.15984962916667,91.58864728333334,47.0,99.0
230,90.02060862916667,91.67409035833334,35.0,75.0
231,90.02060862916667,91.67409035833334,35.0,99.0
232,91.53959662916668,91.85921702083334,62.0,122.0
233,91.53959662916668,91.88136892916667,66.0,127.0
234,91.91934362916668,92.07440698750001,59.0,112.0
235,92.29909062916667,92.94307825000001,55.0,117.0
236,92.29909062916667,92.94307825000001,62.0,107.0
237,92.29909062916667,92.94624280833334,59.0,102.0
238,92.29909062916667,93.27377459583334,43.0,107.0
239,93.05858462916667,93.45415442083335,59.0,117.0
240,93.05858462916667,93.47472405,55.0,107.0
241,93.05858462916667,93.49371140000001,62.0,102.0
242,92.29909062916667,93.8734584,31.0,73.0
243,93.43833162916667,93.9494078,43.0,89.0
244,93.81807862916668,94.16618004583334,62.0,117.0
245,93.81807862916668,94.18833195416667,59.0,127.0
246,94.19782562916667,94.33073707916668,55.0,93.0
247,94.57757262916668,94.9130158125,61.0,127.0
248,94.57757262916668,95.0554209375,57.0,117.0
249,94.57757262916668,95.06333233333335,64.0,102.0
250,94.57757262916668,95.42250970416667,45.0,95.0
251,95.33706662916667,95.45890212500001,57.0,99.0
252,95.33706662916667,95.47156035833335,61.0,117.0
253,95.33706662916667,95.48738315000001,64.0,95.0
254,96.09656062916667,96.14561128333334,57.0,89.0
255,94.57757262916668,96.26111766250001,33.0,64.0
256,95.71681362916668,96.3845354375,45.0,96.0
257,96.09656062916667,96.4509911625,64.0,117.0
258,96.09656062916667,96.50162409583334,61.0,127.0
259,96.47630762916667,96.61396591666667,57.0,92.0
260,96.85605462916668,97.46048527083335,57.0,112.0
261,96.85605462916668,97.47314350416667,62.0,117.0
262,96.85605462916668,97.4810549,66.0,127.0
263,96.85605462916668,97.72947272916667,50.0,112.0
264,97.61554862916668,98.07440958750001,57.0,112.0
265,97.61554862916668,98.11871340416667,62.0,127.0
266,97.61554862916668,98.22630838750001,66.0,127.0
267,97.99529562916668,98.52535915000001,50.0,93.0
268,98.37504262916667,98.9620682,57.0,100.0
269,98.37504262916667,99.00004290000001,62.0,127.0
270,98.37504262916667,99.00162517916668,66.0,127.0
271,96.85605462916668,99.05067583333334,38.0,77.0
272,98.75478962916668,99.22947337916668,50.0,95.0
273,99.13453662916667,99.68675205833334,57.0,112.0
274,99.13453662916667,99.76903057500002,60.0,112.0
275,99.13453662916667,99.77219513333334,66.0,112.0
276,99.13453662916667,99.77852425,62.0,127.0
277,99.51428362916667,99.97472686666667,50.0,85.0
278,99.89403062916668,100.24054976666667,60.0,102.0
279,99.89403062916668,100.25637255833334,57.0,127.0
280,99.89403062916668,100.26903079166668,62.0,117.0
281,99.89403062916668,100.46365112916668,66.0,122.0
282,99.13453662916667,100.76903100833334,38.0,99.0
283,100.27377762916667,100.775360125,50.0,95.0
284,100.65352462916668,101.003208325,66.0,127.0
285,100.65352462916668,101.01428427916667,62.0,127.0
286,100.65352462916668,101.02852479166668,60.0,127.0
287,101.03327162916668,101.1313729375,57.0,85.0
288,101.41301862916667,102.01112015416668,55.0,117.0
289,101.41301862916667,102.04434801666667,59.0,107.0
290,101.41301862916667,102.04909485416668,62.0,107.0
291,101.41301862916667,102.27852533333335,43.0,107.0
292,102.17251262916668,102.52219632500001,59.0,100.0
293,102.17251262916668,102.53960139583334,55.0,102.0
294,102.17251262916668,102.54118367500001,62.0,100.0
295,101.41301862916667,102.90985472083334,31.0,76.0
296,102.55225962916667,103.03801933333334,43.0,95.0
297,102.93200662916668,103.300677675,62.0,117.0
298,102.93200662916668,103.34023465416668,59.0,127.0
299,103.31175362916667,103.45732331250001,55.0,95.0
300,103.69150062916668,104.11396916666668,64.0,99.0
301,103.69150062916668,104.22156415,57.0,112.0
302,103.69150062916668,104.25004517500001,61.0,127.0
303,103.69150062916668,104.56966556666667,45.0,107.0
304,104.45099462916667,104.85605809583335,57.0,107.0
305,104.45099462916667,104.87979228333334,64.0,112.0
306,104.45099462916667,104.89245051666667,61.0,127.0
307,103.69150062916668,105.21207090833335,33.0,73.0
308,104.83074162916668,105.21365318750001,45.0,107.0
309,105.21048862916668,105.54909637083334,64.0,117.0
310,105.21048862916668,105.55700776666667,61.0,127.0
311,105.59023562916667,105.74371670833334,57.0,100.0
312,105.96998262916668,106.50321070833334,66.0,112.0
313,105.96998262916668,106.52378033750001,61.0,127.0
314,105.96998262916668,106.52536261666668,57.0,112.0
315,105.96998262916668,106.89245138333334,42.0,92.0
316,106.72947662916668,107.21998317083334,61.0,127.0
317,106.72947662916668,107.25321103333334,66.0,127.0
318,105.96998262916668,107.36555285416668,30.0,66.0
319,107.10922362916668,107.5301098875,42.0,99.0
320,107.48897062916667,107.88454042083335,66.0,127.0
321,107.48897062916667,107.92251512083334,61.0,127.0
322,107.86871762916668,108.10605950416668,57.0,97.0
323,108.24846462916668,108.39086975416667,35.0,78.0
324,108.24846462916668,108.84656615416668,59.0,117.0
325,108.24846462916668,108.86238894583335,62.0,122.0
326,108.24846462916668,108.86871806250001,66.0,117.0
327,109.00795862916668,109.49213605416668,59.0,117.0
328,109.00795862916668,109.57441457083334,66.0,92.0
329,109.00795862916668,109.58865508333335,62.0,99.0
330,109.38770562916667,109.82916151666667,54.0,81.0
331,109.57757912916668,109.94150333750001,47.0,17.0
332,109.95732612916667,110.02219957500002,54.0,100.0
333,109.76745262916668,110.12663,66.0,127.0
334,109.76745262916668,110.13612367500001,62.0,127.0
335,110.14719962916668,110.26112372916668,59.0,102.0
336,110.52694662916667,110.94150377083335,55.0,117.0
337,110.52694662916667,110.94941516666668,59.0,100.0
338,110.52694662916667,110.97473163333335,62.0,102.0
339,110.90669362916668,111.40669384583335,43.0,88.0
340,111.28644062916668,111.58232683333334,55.0,107.0
341,111.28644062916668,111.58390911250001,59.0,107.0
342,111.28644062916668,111.60447874166668,62.0,99.0
343,110.52694662916667,112.15194733333334,31.0,95.0
344,111.66618762916667,112.23739040833334,43.0,97.0
345,112.04593462916668,112.41144111666668,62.0,122.0
346,112.04593462916668,112.46523860833335,59.0,127.0
347,112.42568162916668,112.6709349,55.0,89.0
348,112.80542862916668,113.06808697083335,57.0,117.0
349,112.80542862916668,113.28485921666667,64.0,107.0
350,112.80542862916668,113.30226428750001,61.0,127.0
351,113.18517562916668,113.39720103750001,57.0,64.0
352,112.80542862916668,113.70891003333334,45.0,100.0
353,113.56492262916667,114.07758107916668,57.0,117.0
354,113.56492262916667,114.11397350000001,64.0,102.0
355,113.56492262916667,114.12821401250001,61.0,127.0
356,113.94466962916668,114.44625212500002,45.0,95.0
357,114.32441662916668,114.71049274583335,57.0,100.0
358,114.32441662916668,114.79910037916667,64.0,99.0
359,114.32441662916668,114.81967000833335,61.0,127.0
360,114.70416362916667,115.02061946250001,45.0,92.0
361,112.80542862916668,115.08391062916668,33.0,82.0
362,115.08391062916668,115.72631597083334,55.0,107.0
363,115.08391062916668,115.73106280833335,62.0,102.0
364,115.08391062916668,115.73739192500001,59.0,107.0
365,115.08391062916668,115.94783505416667,43.0,93.0
366,115.84340462916668,116.39403777916668,55.0,88.0
367,115.84340462916668,116.40353145416668,59.0,77.0
368,115.84340462916668,116.41935424583335,62.0,76.0
369,116.22315162916668,116.72473412500001,43.0,42.0
370,116.60289862916667,117.15353177916668,62.0,93.0
371,116.60289862916667,117.16144317500002,59.0,90.0
372,116.98264562916668,117.503215475,43.0,46.0
373,117.36239262916668,118.03486127500001,62.0,99.0
374,117.36239262916668,118.0396081125,59.0,96.0
375,117.74213962916667,118.18834235416668,43.0,33.0
376,118.12188662916668,118.57125391250001,55.0,61.0
377,118.12188662916668,118.67726661666667,62.0,59.0
378,118.12188662916668,118.68992485000001,59.0,63.0
379,115.08391062916668,118.94625407500001,31.0,76.0
380,118.88138062916667,118.99372245,59.0,92.0
381,118.88138062916667,119.02536803333335,62.0,93.0
382,118.50163362916668,119.19150734583334,43.0,47.0
383,119.64087462916667,120.10764698333334,62.0,99.0
384,119.64087462916667,120.11872293750001,66.0,107.0
385,119.64087462916667,120.16777359166667,59.0,90.0
386,120.02062162916668,120.58707757083334,47.0,63.0
387,120.40036862916668,120.81809032916668,62.0,71.0
388,120.40036862916668,120.86555870416667,66.0,69.0
389,120.78011562916667,121.10290057916667,47.0,54.0
390,119.64087462916667,121.43201464583335,35.0,85.0
391,121.15986262916668,121.51587544166668,66.0,92.0
392,121.15986262916668,121.51904000000002,62.0,93.0
393,121.53960962916668,122.00638198333334,59.0,71.0
394,122.29910362916668,122.79752156666667,45.0,68.0
395,122.67885062916667,122.99055962500002,57.0,67.0
396,122.67885062916667,123.2991040625,64.0,86.0
397,122.67885062916667,123.31967369166668,61.0,112.0
398,123.05859762916668,123.79752200000001,45.0,58.0
399,121.91935662916667,123.81334479166668,33.0,95.0
400,123.43834462916668,124.25321840000001,61.0,100.0
401,123.43834462916668,124.27853486666667,64.0,83.0
402,123.81809162916667,124.32283868333334,57.0,73.0
403,124.57758562916668,125.11556054583335,42.0,95.0
404,124.95733262916667,125.56651010833335,61.0,122.0
405,124.19783862916668,125.82442161250002,30.0,95.0
406,125.33707962916668,125.92726975833334,42.0,97.0
407,125.71682662916668,125.96524445833334,61.0,102.0
408,126.09657362916668,126.63771310416668,57.0,81.0
409,125.71682662916668,126.82758660416668,66.0,117.0
410,127.23581462916668,127.57758692916669,62.0,97.0
411,127.61556162916668,128.24847329583335,42.0,56.0
412,126.47632062916668,128.27537204166669,35.0,88.0
413,126.85606762916667,128.28644799583336,47.0,81.0
414,127.99530862916667,128.37347335,66.0,122.0
415,128.37505562916667,128.4161948875,62.0,56.0
416,129.13454962916668,129.6029042625,43.0,73.0
417,128.75480262916668,130.5063856666667,31.0,88.0
418,129.89404362916667,130.95417067083335,43.0,61.0
419,130.6535376291667,131.1044871916667,59.0,70.0
420,130.27379062916668,131.10606947083335,55.0,89.0
421,129.51429662916667,131.1519555666667,62.0,93.0
422,131.41303162916668,131.90986728750002,45.0,75.0
423,131.03328462916667,132.92252595416667,33.0,86.0
424,132.17252562916667,133.19467797083334,45.0,55.0
425,131.7927786291667,133.37031095833333,64.0,99.0
426,132.55227262916668,133.37189323750002,61.0,93.0
427,132.9320196291667,133.38929830833334,57.0,85.0
428,133.69151362916668,134.25164045416668,47.0,89.0
429,134.0712606291667,134.46366586250002,66.0,76.0
430,134.0712606291667,134.50796967916668,62.0,77.0
431,134.45100762916667,135.01271673333335,47.0,96.0
432,134.83075462916668,135.45417262083333,61.0,100.0
433,133.31176662916667,135.48107136666667,35.0,88.0
434,135.21050162916669,135.958919675,62.0,77.0
435,135.96999562916668,136.46050217083334,47.0,76.0
436,136.7294896291667,137.68202168750003,47.0,76.0
437,135.59024862916667,137.81493313750002,35.0,83.0
438,136.34974262916668,137.82126225416667,66.0,93.0
439,137.48898362916668,137.82284453333335,61.0,95.0
440,137.10923662916667,137.82759137083335,62.0,95.0
441,137.8687306291667,138.32284475,67.0,73.0
442,137.8687306291667,138.33075614583333,71.0,73.0
443,137.8687306291667,138.40037642916667,62.0,78.0
444,138.24847762916667,138.8307563625,55.0,47.0
445,138.62822462916668,139.22949071250002,67.0,58.0
446,138.62822462916668,139.23581982916667,62.0,47.0
447,138.62822462916668,139.23740210833336,71.0,53.0
448,137.8687306291667,139.5902503625,43.0,69.0
449,139.0079716291667,139.71999725416669,55.0,44.0
450,139.38771862916667,139.7389846041667,71.0,69.0
451,139.38771862916667,139.99689610833335,67.0,81.0
452,139.76746562916668,140.01588345833335,62.0,63.0
453,140.1472126291667,140.80069392500002,73.0,58.0
454,140.1472126291667,140.80227620416667,69.0,66.0
455,140.1472126291667,140.8117698791667,64.0,68.0
456,140.1472126291667,141.199428275,57.0,66.0
457,140.90670662916668,141.48265624583334,64.0,61.0
458,140.90670662916668,141.50797271250002,69.0,55.0
459,140.90670662916668,141.51588410833335,73.0,57.0
460,141.2864536291667,141.61556769583333,57.0,44.0
461,140.1472126291667,141.68677025833335,45.0,66.0
462,141.66620062916667,141.78803612500002,69.0,85.0
463,141.66620062916667,141.80702347500002,73.0,73.0
464,141.66620062916667,141.81493487083335,64.0,75.0
465,142.42569462916668,142.832340375,73.0,86.0
466,142.42569462916668,142.86240367916668,69.0,78.0
467,142.42569462916668,143.00955564166668,66.0,79.0
468,142.8054416291667,143.33866970833336,54.0,51.0
469,143.18518862916667,143.72316354583336,73.0,56.0
470,143.18518862916667,143.73582177916668,66.0,53.0
471,143.18518862916667,143.73898633750002,69.0,53.0
472,143.56493562916668,143.90987248750002,54.0,51.0
473,143.9446826291667,144.02221430833336,69.0,90.0
474,142.42569462916668,144.0348725416667,42.0,100.0
475,143.9446826291667,144.05069533333335,73.0,95.0
476,144.70417662916668,145.1883540541667,66.0,66.0
477,144.70417662916668,145.1931008916667,62.0,77.0
478,144.70417662916668,145.22474647500002,59.0,72.0
479,145.0839236291667,145.69784794583336,47.0,40.0
480,145.46367062916667,145.88297460833334,59.0,56.0
481,145.46367062916667,145.90512651666668,62.0,62.0
482,145.46367062916667,146.04120252500002,66.0,56.0
483,145.84341762916668,146.30544314583335,47.0,56.0
484,144.70417662916668,146.3940507791667,35.0,73.0
485,146.2231646291667,146.54278502083335,66.0,127.0
486,146.2231646291667,146.6741141916667,62.0,127.0
487,146.60291162916667,146.8212661541667,59.0,93.0
488,146.98265862916668,147.28487395000002,60.0,112.0
489,147.3624056291667,147.54911457083335,60.0,53.0
490,146.98265862916668,147.60449434166668,67.0,127.0
491,146.98265862916668,147.6187348541667,64.0,122.0
492,146.98265862916668,147.7453171875,48.0,102.0
493,147.74215262916667,148.24215284583335,60.0,100.0
494,147.74215262916667,148.3434187125,67.0,99.0
495,147.74215262916667,148.3497478291667,64.0,100.0
496,146.98265862916668,148.99215317083335,36.0,85.0
497,148.12189962916668,149.38455840416668,48.0,79.0
498,148.5016466291667,149.724748425,64.0,127.0
499,148.5016466291667,149.73107754166668,67.0,117.0
500,148.8813936291667,149.8260142916667,60.0,89.0
501,149.64088762916668,150.31335627500002,48.0,79.0
502,150.0206346291667,150.63614122500002,60.0,95.0
503,150.0206346291667,150.63614122500002,67.0,97.0
504,150.0206346291667,150.65354629583334,64.0,112.0
505,150.40038162916667,150.8181033291667,48.0,86.0
506,150.78012862916668,150.95892617500002,64.0,127.0
507,150.78012862916668,150.96683757083335,60.0,92.0
508,150.78012862916668,150.97316668750003,67.0,102.0
509,149.26114062916668,151.0317110166667,36.0,95.0
510,151.53962262916667,152.1693697375,70.0,112.0
511,151.53962262916667,152.20259760000002,66.0,127.0
512,151.53962262916667,152.2326609041667,61.0,112.0
513,151.53962262916667,152.42411668333335,42.0,107.0
514,152.2991166291667,152.90354727083334,70.0,85.0
515,152.2991166291667,152.9241169,66.0,74.0
516,152.2991166291667,152.94152197083335,61.0,67.0
517,152.67886362916667,153.31652213333334,42.0,79.0
518,151.53962262916667,153.36715506666667,30.0,93.0
519,153.05861062916668,153.64721847916667,70.0,122.0
520,153.05861062916668,153.6709526666667,66.0,127.0
521,153.05861062916668,153.68044634166668,61.0,122.0
522,153.4383576291667,153.68361090000002,30.0,48.0
523,153.4383576291667,153.693104575,42.0,89.0
524,153.81810462916667,154.03804143333335,70.0,85.0
525,153.81810462916667,154.1029148791667,61.0,90.0
526,153.81810462916667,154.10607943750003,66.0,90.0
527,153.81810462916667,154.13614274166667,42.0,95.0
528,153.81810462916667,154.15671237083336,30.0,85.0
529,154.19785162916668,154.41304159583333,42.0,67.0
530,154.19785162916668,154.43044666666668,70.0,49.0
531,154.19785162916668,154.4431049,30.0,75.0
532,154.19785162916668,154.4431049,61.0,75.0
533,154.19785162916668,154.4478517375,66.0,57.0
534,154.5775986291667,154.75164933750003,66.0,93.0
535,154.5775986291667,154.75639617500002,70.0,88.0
536,154.5775986291667,154.76272529166667,61.0,89.0
537,154.5775986291667,154.7706366875,42.0,96.0
538,154.5775986291667,154.80069999166668,30.0,83.0
539,154.95734562916667,155.0712697291667,66.0,100.0
540,154.95734562916667,155.09658619583334,70.0,95.0
541,154.95734562916667,155.09975075416668,61.0,95.0
542,154.95734562916667,155.10291531250002,42.0,112.0
543,154.95734562916667,155.1266495,30.0,93.0
544,155.33709262916668,155.3893078416667,66.0,107.0
545,155.33709262916668,155.40354835416667,70.0,93.0
546,155.33709262916668,155.41620658750003,42.0,102.0
547,155.33709262916668,155.42253570416668,61.0,102.0
548,155.33709262916668,155.42886482083335,30.0,92.0
549,155.52696612916668,155.59025729583334,70.0,66.0
550,155.52696612916668,155.59342185416668,66.0,78.0
551,155.52696612916668,155.60133325,42.0,81.0
552,155.52696612916668,155.60449780833335,61.0,74.0
553,155.52696612916668,155.6076623666667,30.0,90.0
554,155.71683962916669,155.78013079583334,66.0,96.0
555,155.71683962916669,155.78487763333334,70.0,86.0
556,155.71683962916669,155.79120675000001,30.0,102.0
557,155.71683962916669,155.79437130833335,42.0,88.0
558,155.71683962916669,155.7959535875,61.0,93.0
559,155.9067131291667,155.96051062083336,70.0,99.0
560,155.9067131291667,155.96367517916667,66.0,117.0
561,155.9067131291667,155.97475113333334,42.0,88.0
562,155.9067131291667,155.97949797083334,30.0,112.0
563,155.9067131291667,155.98108025000002,61.0,102.0
564,156.0965866291667,156.2294980791667,66.0,127.0
565,156.0965866291667,156.25323226666669,70.0,127.0
566,156.0965866291667,156.25481454583334,42.0,112.0
567,156.0965866291667,156.26272594166667,61.0,127.0
568,156.0965866291667,156.27696645416668,30.0,117.0
569,158.3750686291667,158.933613175,62.0,76.0
570,158.3750686291667,158.94785368750001,59.0,85.0
571,158.75481562916667,159.294372825,43.0,78.0
572,159.13456262916668,159.94785412083334,62.0,99.0
573,158.3750686291667,160.23741120833336,31.0,77.0
574,159.5143096291667,160.61715820833334,43.0,71.0
575,160.27380362916668,160.78487980000003,55.0,68.0
576,159.89405662916667,160.81177854583333,59.0,99.0
577,161.03329762916667,161.64722194583334,45.0,92.0
578,161.7927916291667,162.26589310000003,45.0,83.0
579,160.6535506291667,162.27855133333335,33.0,86.0
580,161.41304462916668,162.89405792916668,64.0,102.0
581,162.1725386291667,162.92253895416667,61.0,112.0
582,162.55228562916668,162.9937415166667,57.0,73.0
583,163.3117796291667,163.85608366250003,54.0,75.0
584,163.69152662916667,164.3655775541667,61.0,122.0
585,164.07127362916668,164.54437510000002,54.0,74.0
586,162.93203262916668,164.6883625041667,42.0,100.0
587,164.4510206291667,165.28804630833335,66.0,112.0
588,164.83076762916667,165.3766539416667,61.0,82.0
589,165.5902616291667,166.09659096250002,47.0,69.0
590,165.97000862916667,166.65830006666667,62.0,97.0
591,166.34975562916668,166.94469259583335,47.0,90.0
592,165.21051462916668,167.08868,35.0,72.0
593,166.7295026291667,167.10608507083336,61.0,117.0
594,167.10924962916667,167.52855360833334,62.0,93.0
595,167.8687436291667,168.36557928750003,43.0,72.0
596,168.2484906291667,168.9177947166667,59.0,85.0
597,169.00798462916669,169.05387072500002,59.0,27.0
598,167.48899662916668,169.20260496666668,31.0,69.0
599,168.62823762916668,169.72792165,43.0,75.0
600,169.00798462916669,169.79754193333335,55.0,97.0
601,168.2484906291667,169.81652928333335,62.0,81.0
602,169.3877316291667,169.82444067916668,59.0,89.0
603,170.14722562916668,170.71526385,45.0,82.0
604,170.5269726291667,171.4035552875,61.0,100.0
605,169.76747862916667,171.5617832041667,33.0,77.0
606,170.90671962916667,171.93520108750002,45.0,67.0
607,171.6662136291667,172.05861886250003,61.0,70.0
608,170.5269726291667,172.11399863333335,64.0,83.0
609,171.28646662916668,172.25798603750002,57.0,95.0
610,172.42570762916668,173.02064459583335,47.0,88.0
611,172.8054546291667,173.65039170416668,59.0,88.0
612,173.56494862916668,173.94786018750003,61.0,112.0
613,173.18520162916667,174.22159448333335,47.0,82.0
614,173.9446956291667,174.37507556250003,62.0,95.0
615,172.04596062916667,174.46684775416668,35.0,82.0
616,174.3244426291667,174.80862005416668,59.0,88.0
617,174.70418962916668,175.24691138333336,54.0,86.0
618,175.0839366291667,175.60450647500002,66.0,127.0
619,175.4636836291667,175.88456988750002,54.0,86.0
620,176.03330412916668,176.1124180875,54.0,127.0
621,174.3244426291667,176.16463330000002,47.0,86.0
622,175.84343062916668,176.1978611625,62.0,127.0
623,176.22317762916668,176.30703842500003,61.0,127.0
624,176.6029246291667,176.86874752916668,62.0,96.0
625,176.6029246291667,176.9494437666667,67.0,100.0
626,176.6029246291667,176.971595675,71.0,93.0
627,176.6029246291667,177.48741868333335,43.0,96.0
628,177.36241862916668,177.50640603333335,67.0,102.0
629,177.36241862916668,177.52064654583336,62.0,102.0
630,177.36241862916668,177.54279845416667,71.0,102.0
631,176.6029246291667,178.2833051041667,31.0,72.0
632,176.6029246291667,178.2833051041667,31.0,102.0
633,177.7421656291667,178.300710175,43.0,95.0
634,178.12191262916667,178.471596325,71.0,117.0
635,178.12191262916667,178.53805205,67.0,127.0
636,178.50165962916668,178.642482475,62.0,77.0
637,178.8814066291667,179.0522927791667,33.0,72.0
638,178.8814066291667,179.0522927791667,33.0,112.0
639,178.8814066291667,179.13457129583335,45.0,96.0
640,178.8814066291667,179.34026758750002,69.0,117.0
641,178.8814066291667,179.35767265833334,73.0,122.0
642,178.8814066291667,179.46843220000002,64.0,112.0
643,179.64090062916668,180.01748307083335,73.0,127.0
644,179.64090062916668,180.02539446666668,69.0,122.0
645,179.64090062916668,180.02855902500002,64.0,102.0
646,180.4003946291667,180.7263441375,69.0,127.0
647,180.4003946291667,180.75324288333334,73.0,127.0
648,181.1598886291667,181.3291925,30.0,89.0
649,181.1598886291667,181.3291925,30.0,122.0
650,181.1598886291667,181.5633698166667,73.0,122.0
651,181.1598886291667,181.57761032916667,69.0,86.0
652,181.1598886291667,181.70577494166668,66.0,99.0
653,181.91938262916668,181.97950923750003,69.0,100.0
654,181.91938262916668,181.98425607500002,73.0,102.0
655,181.91938262916668,182.04754724166668,66.0,117.0
656,181.1598886291667,182.17887641250002,42.0,83.0
657,182.29912962916669,182.75799058750002,42.0,95.0
658,182.6788766291667,182.77856021666668,61.0,107.0
659,182.6788766291667,182.99375018333336,66.0,122.0
660,182.6788766291667,183.02223120833335,69.0,100.0
661,183.05862362916668,183.13140847083335,61.0,112.0
662,183.43837062916668,184.01432024583335,62.0,117.0
663,183.43837062916668,184.01906708333334,59.0,97.0
664,183.43837062916668,184.02381392083336,66.0,112.0
665,183.43837062916668,184.29754821666668,47.0,112.0
666,184.19786462916667,184.5712825125,62.0,117.0
667,184.19786462916667,184.58552302500001,59.0,112.0
668,184.19786462916667,184.61242177083335,66.0,127.0
669,184.57761162916668,185.00640928333334,47.0,99.0
670,183.43837062916668,185.09185235833334,35.0,75.0
671,183.43837062916668,185.09185235833334,35.0,99.0
672,184.9573586291667,185.27697902083335,62.0,122.0
673,184.9573586291667,185.2991309291667,66.0,127.0
674,185.33710562916667,185.4921689875,59.0,112.0
675,185.71685262916668,186.36084025000002,55.0,117.0
676,185.71685262916668,186.36084025000002,62.0,107.0
677,185.71685262916668,186.36400480833336,59.0,102.0
678,185.71685262916668,186.69153659583336,43.0,107.0
679,186.47634662916667,186.87191642083334,59.0,117.0
680,186.47634662916667,186.89248605000003,55.0,107.0
681,186.47634662916667,186.9114734,62.0,102.0
682,185.71685262916668,187.29122040000001,31.0,73.0
683,186.85609362916668,187.36716980000003,43.0,89.0
684,187.2358406291667,187.58394204583334,62.0,117.0
685,187.2358406291667,187.60609395416668,59.0,127.0
686,187.6155876291667,187.7484990791667,55.0,93.0
687,187.99533462916668,188.33077781250003,61.0,127.0
688,187.99533462916668,188.4731829375,57.0,117.0
689,187.99533462916668,188.48109433333335,64.0,102.0
690,187.99533462916668,188.8402717041667,45.0,95.0
691,188.7548286291667,188.87666412500002,57.0,99.0
692,188.7548286291667,188.88932235833335,61.0,117.0
693,188.7548286291667,188.90514515,64.0,95.0
694,189.51432262916668,189.56337328333336,57.0,89.0
695,187.99533462916668,189.6788796625,33.0,64.0
696,189.13457562916668,189.80229743750002,45.0,96.0
697,189.51432262916668,189.8687531625,64.0,117.0
698,189.51432262916668,189.91938609583335,61.0,127.0
699,189.8940696291667,190.03172791666668,57.0,92.0
700,190.27381662916667,190.87824727083336,57.0,112.0
701,190.27381662916667,190.89090550416668,62.0,117.0
702,190.27381662916667,190.8988169,66.0,127.0
703,190.27381662916667,191.14723472916668,50.0,112.0
704,191.0333106291667,191.49217158750002,57.0,112.0
705,191.0333106291667,191.53647540416668,62.0,127.0
706,191.0333106291667,191.64407038750002,66.0,127.0
707,191.41305762916667,191.94312115000002,50.0,93.0
708,191.79280462916668,192.37983020000001,57.0,100.0
709,191.79280462916668,192.41780490000002,62.0,127.0
710,191.79280462916668,192.41938717916668,66.0,127.0
711,190.27381662916667,192.46843783333335,38.0,77.0
712,192.1725516291667,192.6472353791667,50.0,95.0
713,192.55229862916667,193.10451405833336,57.0,112.0
714,192.55229862916667,193.18679257500003,60.0,112.0
715,192.55229862916667,193.18995713333337,66.0,112.0
716,192.55229862916667,193.19628625,62.0,127.0
717,192.93204562916668,193.3924888666667,50.0,85.0
718,193.3117926291667,193.65831176666669,60.0,102.0
719,193.3117926291667,193.67413455833335,57.0,127.0
720,193.3117926291667,193.68679279166668,62.0,117.0
721,193.3117926291667,193.88141312916667,66.0,122.0
722,192.55229862916667,194.18679300833335,38.0,99.0
723,193.6915396291667,194.19312212500003,50.0,95.0
724,194.07128662916668,194.420970325,66.0,127.0
725,194.07128662916668,194.43204627916668,62.0,127.0
726,194.07128662916668,194.4462867916667,60.0,127.0
727,194.4510336291667,194.5491349375,57.0,85.0
728,194.8307806291667,195.42888215416667,55.0,117.0
729,194.8307806291667,195.46211001666668,59.0,107.0
730,194.8307806291667,195.46685685416668,62.0,107.0
731,194.8307806291667,195.69628733333334,43.0,107.0
732,195.5902746291667,195.93995832500002,59.0,100.0
733,195.5902746291667,195.95736339583334,55.0,102.0
734,195.5902746291667,195.95894567500002,62.0,100.0
735,194.8307806291667,196.32761672083336,31.0,76.0
736,195.9700216291667,196.45578133333336,43.0,95.0
737,196.34976862916668,196.718439675,62.0,117.0
738,196.34976862916668,196.75799665416667,59.0,127.0
739,196.72951562916668,196.8750853125,55.0,95.0
740,197.1092626291667,197.53173116666667,64.0,99.0
741,197.1092626291667,197.63932615000002,57.0,112.0
742,197.1092626291667,197.667807175,61.0,127.0
743,197.1092626291667,197.9874275666667,45.0,107.0
744,197.86875662916668,198.27382009583334,57.0,107.0
745,197.86875662916668,198.29755428333334,64.0,112.0
746,197.86875662916668,198.3102125166667,61.0,127.0
747,197.1092626291667,198.62983290833336,33.0,73.0
748,198.2485036291667,198.6314151875,45.0,107.0
749,198.62825062916667,198.96685837083336,64.0,117.0
750,198.62825062916667,198.9747697666667,61.0,127.0
751,199.00799762916668,199.16147870833336,57.0,100.0
752,199.3877446291667,199.92097270833335,66.0,112.0
753,199.3877446291667,199.9415423375,61.0,127.0
754,199.3877446291667,199.9431246166667,57.0,112.0
755,199.3877446291667,200.31021338333335,42.0,92.0
756,200.14723862916668,200.63774517083334,61.0,127.0
757,200.14723862916668,200.67097303333335,66.0,127.0
758,199.3877446291667,200.7833148541667,30.0,66.0
759,200.5269856291667,200.9478718875,42.0,99.0
760,200.9067326291667,201.30230242083334,66.0,127.0
761,200.9067326291667,201.34027712083335,61.0,127.0
762,201.28647962916668,201.52382150416668,57.0,97.0
763,201.6662266291667,201.8086317541667,35.0,78.0
764,201.6662266291667,202.2643281541667,59.0,117.0
765,201.6662266291667,202.28015094583336,62.0,122.0
766,201.6662266291667,202.28648006250003,66.0,117.0
767,202.42572062916668,202.9098980541667,59.0,117.0
768,202.42572062916668,202.99217657083335,66.0,92.0
769,202.42572062916668,203.00641708333336,62.0,99.0
770,202.80546762916669,203.2469235166667,54.0,81.0
771,202.9953411291667,203.3592653375,47.0,17.0
772,203.3750881291667,203.439961575,54.0,100.0
773,203.1852146291667,203.54439200000002,66.0,127.0
774,203.1852146291667,203.55388567500003,62.0,127.0
775,203.56496162916667,203.6788857291667,59.0,102.0
776,203.94470862916668,204.35926577083336,55.0,117.0
777,203.94470862916668,204.3671771666667,59.0,100.0
778,203.94470862916668,204.39249363333334,62.0,102.0
779,204.3244556291667,204.82445584583334,43.0,88.0
780,204.70420262916667,205.00008883333336,55.0,107.0
781,204.70420262916667,205.00167111250002,59.0,107.0
782,204.70420262916667,205.02224074166668,62.0,99.0
783,203.94470862916668,205.56970933333335,31.0,95.0
784,205.08394962916668,205.65515240833335,43.0,97.0
785,205.4636966291667,205.8292031166667,62.0,122.0
786,205.4636966291667,205.88300060833336,59.0,127.0
787,205.8434436291667,206.08869690000003,55.0,89.0
788,206.22319062916668,206.48584897083336,57.0,117.0
789,206.22319062916668,206.7026212166667,64.0,107.0
790,206.22319062916668,206.72002628750002,61.0,127.0
791,206.6029376291667,206.8149630375,57.0,64.0
792,206.22319062916668,207.12667203333336,45.0,100.0
793,206.9826846291667,207.49534307916667,57.0,117.0
794,206.9826846291667,207.53173550000002,64.0,102.0
795,206.9826846291667,207.5459760125,61.0,127.0
796,207.36243162916668,207.864014125,45.0,95.0
797,207.7421786291667,208.12825474583335,57.0,100.0
798,207.7421786291667,208.21686237916668,64.0,99.0
799,207.7421786291667,208.23743200833334,61.0,127.0
800,208.1219256291667,208.43838146250002,45.0,92.0
801,206.22319062916668,208.50167262916668,33.0,82.0
802,208.50167262916668,209.14407797083337,55.0,107.0
803,208.50167262916668,209.14882480833336,62.0,102.0
804,208.50167262916668,209.155153925,59.0,107.0
805,208.50167262916668,209.3655970541667,43.0,93.0
806,209.2611666291667,209.81179977916668,55.0,88.0
807,209.2611666291667,209.8212934541667,59.0,77.0
808,209.2611666291667,209.83711624583336,62.0,76.0
809,209.64091362916668,210.142496125,43.0,42.0
810,210.02066062916668,210.5712937791667,62.0,93.0
811,210.02066062916668,210.57920517500003,59.0,90.0
812,210.4004076291667,210.92097747500003,43.0,46.0
813,210.78015462916667,211.452623275,62.0,99.0
814,210.78015462916667,211.45737011250003,59.0,96.0
815,211.15990162916668,211.6061043541667,43.0,33.0
816,211.5396486291667,211.9890159125,55.0,61.0
817,211.5396486291667,212.0950286166667,62.0,59.0
818,211.5396486291667,212.10768685000002,59.0,63.0
819,208.50167262916668,212.36401607500002,31.0,76.0
820,212.29914262916668,212.41148445000002,59.0,92.0
821,212.29914262916668,212.44313003333335,62.0,93.0
822,212.29914262916668,212.59977567083337,35.0,117.0
823,211.9193956291667,212.60926934583335,43.0,47.0
824,212.6788896291667,213.06021890833335,33.0,102.0
825,213.0586366291667,213.3244595291667,62.0,96.0
826,213.0586366291667,213.4051557666667,67.0,100.0
827,213.0586366291667,213.427307675,71.0,93.0
828,213.0586366291667,213.94313068333335,43.0,96.0
829,213.8181306291667,213.96211803333335,67.0,102.0
830,213.8181306291667,213.97635854583336,62.0,102.0
831,213.8181306291667,213.99851045416668,71.0,102.0
832,213.0586366291667,214.7390171041667,31.0,72.0
833,213.0586366291667,214.7390171041667,31.0,102.0
834,214.1978776291667,214.756422175,43.0,95.0
835,214.57762462916668,214.927308325,71.0,117.0
836,214.57762462916668,214.99376405,67.0,127.0
837,214.9573716291667,215.098194475,62.0,77.0
838,215.3371186291667,215.5080047791667,33.0,72.0
839,215.3371186291667,215.5080047791667,33.0,112.0
840,215.3371186291667,215.59028329583336,45.0,96.0
841,215.3371186291667,215.79597958750003,69.0,117.0
842,215.3371186291667,215.81338465833335,73.0,122.0
843,215.3371186291667,215.92414420000003,64.0,112.0
844,216.09661262916669,216.47319507083336,73.0,127.0
845,216.09661262916669,216.4811064666667,69.0,122.0
846,216.09661262916669,216.48427102500003,64.0,102.0
847,216.85610662916667,217.1820561375,69.0,127.0
848,216.85610662916667,217.20895488333335,73.0,127.0
849,217.6156006291667,217.7849045,30.0,89.0
850,217.6156006291667,217.7849045,30.0,122.0
851,217.6156006291667,218.0190818166667,73.0,122.0
852,217.6156006291667,218.03332232916668,69.0,86.0
853,217.6156006291667,218.16148694166668,66.0,99.0
854,218.37509462916668,218.43522123750003,69.0,100.0
855,218.37509462916668,218.43996807500002,73.0,102.0
856,218.37509462916668,218.50325924166668,66.0,117.0
857,217.6156006291667,218.63458841250002,42.0,83.0
858,218.7548416291667,219.21370258750002,42.0,95.0
859,219.1345886291667,219.23427221666668,61.0,107.0
860,219.1345886291667,219.44946218333337,66.0,122.0
861,219.1345886291667,219.47794320833336,69.0,100.0
862,219.51433562916668,219.58712047083336,61.0,112.0
863,219.8940826291667,220.47003224583335,62.0,117.0
864,219.8940826291667,220.47477908333335,59.0,97.0
865,219.8940826291667,220.47952592083337,66.0,112.0
866,219.8940826291667,220.7532602166667,47.0,112.0
867,220.65357662916668,221.0269945125,62.0,117.0
868,220.65357662916668,221.04123502500002,59.0,112.0
869,220.65357662916668,221.06813377083336,66.0,127.0
870,221.0333236291667,221.46212128333335,47.0,99.0
871,219.8940826291667,221.54756435833335,35.0,75.0
872,219.8940826291667,221.54756435833335,35.0,99.0
873,221.4130706291667,221.73269102083336,62.0,122.0
874,221.4130706291667,221.7548429291667,66.0,127.0
875,221.79281762916668,221.9478809875,59.0,112.0
876,222.1725646291667,222.81655225000003,55.0,117.0
877,222.1725646291667,222.81655225000003,62.0,107.0
878,222.1725646291667,222.81971680833337,59.0,102.0
879,222.1725646291667,223.14724859583336,43.0,107.0
880,222.93205862916668,223.32762842083335,59.0,117.0
881,222.93205862916668,223.34819805,55.0,107.0
882,222.93205862916668,223.3671854,62.0,102.0
883,222.1725646291667,223.74693240000002,31.0,73.0
884,223.31180562916668,223.82288180000003,43.0,89.0
885,223.6915526291667,224.03965404583334,62.0,117.0
886,223.6915526291667,224.0618059541667,59.0,127.0
887,224.07129962916667,224.2042110791667,55.0,93.0
888,224.45104662916668,224.7864898125,61.0,127.0
889,224.45104662916668,224.92889493750002,57.0,117.0
890,224.45104662916668,224.93680633333335,64.0,102.0
891,224.45104662916668,225.2959837041667,45.0,95.0
892,225.2105406291667,225.33237612500002,57.0,99.0
893,225.2105406291667,225.34503435833335,61.0,117.0
894,225.2105406291667,225.36085715000002,64.0,95.0
895,225.9700346291667,226.01908528333337,57.0,89.0
896,224.45104662916668,226.13459166250001,33.0,64.0
897,225.59028762916668,226.25800943750002,45.0,96.0
898,225.9700346291667,226.32446516250002,64.0,117.0
899,225.9700346291667,226.37509809583335,61.0,127.0
900,226.3497816291667,226.4874399166667,57.0,92.0
901,226.72952862916668,227.33395927083336,57.0,112.0
902,226.72952862916668,227.3466175041667,62.0,117.0
903,226.72952862916668,227.35452890000002,66.0,127.0
904,226.72952862916668,227.6029467291667,50.0,112.0
905,227.4890226291667,227.94788358750003,57.0,112.0
906,227.4890226291667,227.99218740416669,62.0,127.0
907,227.4890226291667,228.09978238750003,66.0,127.0
908,227.86876962916668,228.39883315000003,50.0,93.0
909,228.2485166291667,228.83554220000002,57.0,100.0
910,228.2485166291667,228.87351690000003,62.0,127.0
911,228.2485166291667,228.87509917916668,66.0,127.0
912,226.72952862916668,228.92414983333336,38.0,77.0
913,228.6282636291667,229.1029473791667,50.0,95.0
914,229.00801062916668,229.56022605833334,57.0,112.0
915,229.00801062916668,229.64250457500003,60.0,112.0
916,229.00801062916668,229.64566913333334,66.0,112.0
917,229.00801062916668,229.65199825000002,62.0,127.0
918,229.38775762916669,229.8482008666667,50.0,85.0
919,229.7675046291667,230.1140237666667,60.0,102.0
920,229.7675046291667,230.12984655833336,57.0,127.0
921,229.7675046291667,230.14250479166668,62.0,117.0
922,229.7675046291667,230.33712512916668,66.0,122.0
923,229.00801062916668,230.64250500833336,38.0,99.0
924,230.14725162916668,230.64883412500004,50.0,95.0
925,230.52699862916668,230.87668232500002,66.0,127.0
926,230.52699862916668,230.8877582791667,62.0,127.0
927,230.52699862916668,230.9019987916667,60.0,127.0
928,230.9067456291667,231.00484693750002,57.0,85.0
929,231.2864926291667,231.88459415416668,55.0,117.0
930,231.2864926291667,231.9178220166667,59.0,107.0
931,231.2864926291667,231.92256885416668,62.0,107.0
932,231.2864926291667,232.15199933333335,43.0,107.0
933,232.0459866291667,232.39567032500003,59.0,100.0
934,232.0459866291667,232.41307539583335,55.0,102.0
935,232.0459866291667,232.41465767500003,62.0,100.0
936,231.2864926291667,232.78332872083337,31.0,76.0
937,232.4257336291667,232.91149333333337,43.0,95.0
938,232.80548062916668,233.17415167500002,62.0,117.0
939,232.80548062916668,233.21370865416668,59.0,127.0
940,233.1852276291667,233.3307973125,55.0,95.0
941,233.5649746291667,233.98744316666668,64.0,99.0
942,233.5649746291667,234.09503815000002,57.0,112.0
943,233.5649746291667,234.123519175,61.0,127.0
944,233.5649746291667,234.4431395666667,45.0,107.0
945,234.3244686291667,234.72953209583335,57.0,107.0
946,234.3244686291667,234.75326628333335,64.0,112.0
947,234.3244686291667,234.7659245166667,61.0,127.0
948,233.5649746291667,235.08554490833336,33.0,73.0
949,234.7042156291667,235.08712718750002,45.0,107.0
950,235.08396262916668,235.42257037083337,64.0,117.0
951,235.08396262916668,235.4304817666667,61.0,127.0
952,235.4637096291667,235.61719070833337,57.0,100.0
953,235.8434566291667,236.37668470833336,66.0,112.0
954,235.8434566291667,236.39725433750002,61.0,127.0
955,235.8434566291667,236.3988366166667,57.0,112.0
956,235.8434566291667,236.76592538333335,42.0,92.0
957,236.60295062916668,237.09345717083335,61.0,127.0
958,236.60295062916668,237.12668503333336,66.0,127.0
959,235.8434566291667,237.2390268541667,30.0,66.0
960,236.9826976291667,237.40358388750002,42.0,99.0
961,237.3624446291667,237.75801442083335,66.0,127.0
962,237.3624446291667,237.79598912083335,61.0,127.0
963,237.74219162916668,237.97953350416668,57.0,97.0
964,238.1219386291667,238.2643437541667,35.0,78.0
965,238.1219386291667,238.7200401541667,59.0,117.0
966,238.1219386291667,238.73586294583336,62.0,122.0
967,238.1219386291667,238.7421920625,66.0,117.0
968,238.88143262916668,239.3656100541667,59.0,117.0
969,238.88143262916668,239.44788857083336,66.0,92.0
970,238.88143262916668,239.46212908333337,62.0,99.0
971,239.2611796291667,239.7026355166667,54.0,81.0
972,239.4510531291667,239.8149773375,47.0,17.0
973,239.83080012916668,239.89567357500002,54.0,100.0
974,239.6409266291667,240.00010400000002,66.0,127.0
975,239.6409266291667,240.009597675,62.0,127.0
976,240.02067362916668,240.1345977291667,59.0,102.0
977,240.4004206291667,240.81497777083337,55.0,117.0
978,240.4004206291667,240.8228891666667,59.0,100.0
979,240.4004206291667,240.84820563333335,62.0,102.0
980,240.7801676291667,241.28016784583335,43.0,88.0
981,241.15991462916668,241.45580083333337,55.0,107.0
982,241.15991462916668,241.45738311250003,59.0,107.0
983,241.15991462916668,241.47795274166668,62.0,99.0
984,240.4004206291667,242.02542133333336,31.0,95.0
985,241.5396616291667,242.11086440833336,43.0,97.0
986,241.9194086291667,242.2849151166667,62.0,122.0
987,241.9194086291667,242.33871260833337,59.0,127.0
988,242.29915562916668,242.54440890000004,55.0,89.0
989,242.67890262916669,242.94156097083336,57.0,117.0
990,242.67890262916669,243.15833321666668,64.0,107.0
991,242.67890262916669,243.17573828750002,61.0,127.0
992,243.0586496291667,243.2706750375,57.0,64.0
993,242.67890262916669,243.58238403333337,45.0,100.0
994,243.4383966291667,243.95105507916668,57.0,117.0
995,243.4383966291667,243.98744750000003,64.0,102.0
996,243.4383966291667,244.0016880125,61.0,127.0
997,243.81814362916668,244.31972612500002,45.0,95.0
998,244.1978906291667,244.58396674583335,57.0,100.0
999,244.1978906291667,244.6725743791667,64.0,99.0
1000,244.1978906291667,244.69314400833335,61.0,127.0
1001,244.5776376291667,244.89409346250002,45.0,92.0
1002,242.67890262916669,244.95738462916668,33.0,82.0
1003,244.95738462916668,245.59978997083337,55.0,107.0
1004,244.95738462916668,245.60453680833336,62.0,102.0
1005,244.95738462916668,245.610865925,59.0,107.0
1006,244.95738462916668,245.82130905416668,43.0,93.0
1007,245.7168786291667,246.26751177916668,55.0,88.0
1008,245.7168786291667,246.2770054541667,59.0,77.0
1009,245.7168786291667,246.29282824583336,62.0,76.0
1010,246.09662562916668,246.598208125,43.0,42.0
1011,246.4763726291667,247.0270057791667,62.0,93.0
1012,246.4763726291667,247.03491717500003,59.0,90.0
1013,246.8561196291667,247.37668947500003,43.0,46.0
1014,247.23586662916668,247.908335275,62.0,99.0
1015,247.23586662916668,247.91308211250004,59.0,96.0
1016,247.6156136291667,248.0618163541667,43.0,33.0
1017,247.9953606291667,248.4447279125,55.0,61.0
1018,247.9953606291667,248.5507406166667,62.0,59.0
1019,247.9953606291667,248.56339885000003,59.0,63.0
1020,244.95738462916668,248.81972807500003,31.0,76.0
1021,248.7548546291667,248.86719645000002,59.0,92.0
1022,248.7548546291667,248.89884203333335,62.0,93.0
1023,248.37510762916668,249.06498134583336,43.0,47.0
1024,249.51434862916668,249.98112098333337,62.0,99.0
1025,249.51434862916668,249.9921969375,66.0,107.0
1026,249.51434862916668,250.0412475916667,59.0,90.0
1027,249.89409562916669,250.46055157083336,47.0,63.0
1028,250.2738426291667,250.69156432916668,62.0,71.0
1029,250.2738426291667,250.7390327041667,66.0,69.0
1030,250.6535896291667,250.9763745791667,47.0,54.0
1031,249.51434862916668,251.30548864583335,35.0,85.0
1032,251.03333662916668,251.3893494416667,66.0,92.0
1033,251.03333662916668,251.39251400000003,62.0,93.0
1034,251.4130836291667,251.87985598333336,59.0,71.0
1035,252.17257762916668,252.6709955666667,45.0,68.0
1036,252.5523246291667,252.86403362500002,57.0,67.0
1037,252.5523246291667,253.17257806250004,64.0,86.0
1038,252.5523246291667,253.1931476916667,61.0,112.0
1039,252.9320716291667,253.67099600000003,45.0,58.0
1040,251.7928306291667,253.6868187916667,33.0,95.0
1041,253.31181862916668,254.12669240000002,61.0,100.0
1042,253.31181862916668,254.15200886666668,64.0,83.0
1043,253.6915656291667,254.19631268333336,57.0,73.0
1044,254.45105962916668,254.98903454583336,42.0,95.0
1045,254.8308066291667,255.43998410833336,61.0,122.0
1046,254.0713126291667,255.69789561250002,30.0,95.0
1047,255.2105536291667,255.80074375833337,42.0,97.0
1048,255.59030062916668,255.83871845833335,61.0,102.0
1049,255.9700476291667,256.5111871041667,57.0,81.0
1050,255.59030062916668,256.7010606041667,66.0,117.0
1051,257.1092886291667,257.4510609291667,62.0,97.0
1052,257.48903562916666,258.12194729583337,42.0,56.0
1053,256.3497946291667,258.1488460416667,35.0,88.0
1054,256.7295416291667,258.1599219958334,47.0,81.0
1055,257.8687826291667,258.24694735,66.0,122.0
1056,258.2485296291667,258.2896688875,62.0,56.0
1057,259.0080236291667,259.4763782625,43.0,73.0
1058,258.6282766291667,260.3798596666667,31.0,88.0
1059,259.7675176291667,260.82764467083337,43.0,61.0
1060,260.5270116291667,260.9779611916667,59.0,70.0
1061,260.14726462916667,260.97954347083333,55.0,89.0
1062,259.3877706291667,261.0254295666667,62.0,93.0
1063,261.2865056291667,261.78334128750004,45.0,75.0
1064,260.9067586291667,262.7959999541667,33.0,86.0
1065,262.0459996291667,263.06815197083336,45.0,55.0
1066,261.6662526291667,263.2437849583334,64.0,99.0
1067,262.42574662916667,263.24536723750003,61.0,93.0
1068,262.8054936291667,263.26277230833335,57.0,85.0
1069,263.5649876291667,264.1251144541667,47.0,89.0
1070,263.9447346291667,264.3371398625,66.0,76.0
1071,263.9447346291667,264.3814436791667,62.0,77.0
1072,264.3244816291667,264.88619073333336,47.0,96.0
1073,264.70422862916666,265.3276466208334,61.0,100.0
1074,263.1852406291667,265.3545453666667,35.0,88.0
1075,265.0839756291667,265.83239367500005,62.0,77.0
1076,265.8434696291667,266.33397617083335,47.0,76.0
1077,266.6029636291667,267.5554956875,47.0,76.0
1078,265.4637226291667,267.6884071375,35.0,83.0
1079,266.2232166291667,267.6947362541667,66.0,93.0
1080,267.36245762916667,267.69631853333334,61.0,95.0
1081,266.9827106291667,267.70106537083336,62.0,95.0
1082,268.1219516291667,268.5903062625,43.0,73.0
1083,267.7422046291667,269.4937876666667,31.0,88.0
1084,268.8814456291667,269.94157267083335,43.0,61.0
1085,269.64093962916667,270.09188919166667,59.0,70.0
1086,269.2611926291667,270.0934714708334,55.0,89.0
1087,268.5016986291667,270.1393575666667,62.0,93.0
1088,270.4004336291667,270.8972692875,45.0,75.0
1089,270.0206866291667,271.9099279541667,33.0,86.0
1090,271.1599276291667,272.18207997083334,45.0,55.0
1091,270.7801806291667,272.35771295833337,64.0,99.0
1092,271.5396746291667,272.3592952375,61.0,93.0
1093,271.9194216291667,272.37670030833334,57.0,85.0
1094,272.6789156291667,273.2390424541667,47.0,89.0
1095,273.0586626291667,273.45106786250005,66.0,76.0
1096,273.0586626291667,273.4953716791667,62.0,77.0
1097,273.4384096291667,274.00011873333335,47.0,96.0
1098,273.8181566291667,274.44157462083336,61.0,100.0
1099,272.2991686291667,274.4684733666667,35.0,88.0
1100,274.1979036291667,274.57765062916667,62.0,77.0
1101,274.9573976291667,275.4558155666667,47.0,50.0
1102,275.3371446291667,276.2358791958334,59.0,59.0
1103,275.7168916291667,276.31341087500005,47.0,40.0
1104,274.57765062916667,276.43682865000005,35.0,78.0
1105,276.0966386291667,276.7279680166667,66.0,92.0
1106,276.4763856291667,276.9320820291667,59.0,48.0
1107,277.2358796291667,277.83556343333333,43.0,61.0
1108,276.85613262916667,278.65993087916667,31.0,70.0
1109,277.9953736291667,279.01752597083333,43.0,38.0
1110,278.3751206291667,279.1393614666667,55.0,64.0
1111,278.7548676291667,279.1567665375,59.0,52.0
1112,277.6156266291667,279.1820830041667,62.0,60.0
1113,279.5143616291667,280.0032858916667,45.0,54.0
1114,279.1346146291667,280.9289192041667,33.0,73.0
1115,280.2738556291667,281.4130966291667,45.0,43.0
1116,280.6536026291667,281.4257548625,61.0,42.0
1117,279.8941086291667,281.4558181666667,64.0,73.0
1118,281.0333496291667,281.48588147083336,57.0,40.0
1119,282.1725906291667,286.5808203875,59.0,45.0
1120,281.79284362916667,286.64411155416667,47.0,39.0
1121,281.4130966291667,286.6583520666667,35.0,55.0
