,start,end,pitch,velocity
0,2.7800000000000002,2.83625,65.0,76.0
1,2.7800000000000002,2.8475,62.0,88.0
2,2.7800000000000002,2.85875,57.0,78.0
3,2.48,2.96375,38.0,88.0
4,2.93,3.0187500000000003,65.0,77.0
5,2.93,3.02,57.0,63.0
6,2.93,3.02125,62.0,69.0
7,3.38,3.45875,62.0,77.0
8,3.38,3.46,57.0,72.0
9,3.38,3.4725,65.0,74.0
10,3.08,3.53375,50.0,58.0
11,3.68,3.7225,36.0,54.0
12,3.98,4.02625,57.0,66.0
13,3.98,4.035,62.0,92.0
14,3.98,4.04,65.0,73.0
15,4.13,4.2,57.0,53.0
16,4.13,4.22625,65.0,70.0
17,4.13,4.22875,62.0,71.0
18,3.68,4.28875,38.0,47.0
19,4.58,4.66625,62.0,88.0
20,4.58,4.67125,57.0,78.0
21,4.58,4.68375,65.0,86.0
22,4.28,4.755,45.0,63.0
23,5.18,5.2375,62.0,85.0
24,5.18,5.2375,65.0,72.0
25,4.88,5.2700000000000005,38.0,71.0
26,5.33,5.40875,57.0,55.0
27,5.33,5.425,65.0,67.0
28,5.33,5.43625,62.0,73.0
29,5.78,5.8625,62.0,86.0
30,5.78,5.87,57.0,74.0
31,5.78,5.87125,65.0,77.0
32,5.48,5.985,45.0,52.0
33,6.38,6.43,62.0,90.0
34,6.38,6.43875,65.0,78.0
35,6.38,6.44125,57.0,78.0
36,6.53,6.63625,65.0,62.0
37,6.53,6.6450000000000005,62.0,66.0
38,6.08,6.705,38.0,48.0
39,6.68,7.0625,45.0,95.0
40,6.98,7.065,57.0,74.0
41,6.98,7.08,62.0,89.0
42,6.98,7.095,65.0,79.0
43,7.58,7.62875,60.0,88.0
44,7.58,7.635,64.0,79.0
45,7.58,7.64875,57.0,76.0
46,7.73,7.815,57.0,64.0
47,7.73,7.82375,60.0,79.0
48,7.73,7.82375,64.0,72.0
49,7.28,7.915,45.0,61.0
50,8.18,8.26,60.0,93.0
51,8.18,8.26375,57.0,82.0
52,8.18,8.26625,64.0,89.0
53,7.88,8.38625,52.0,69.0
54,8.78,8.8375,60.0,89.0
55,8.78,8.852500000000001,64.0,78.0
56,8.78,8.8625,57.0,76.0
57,8.93,9.005,57.0,59.0
58,8.93,9.02375,60.0,72.0
59,8.93,9.03875,64.0,74.0
60,8.48,9.120000000000001,45.0,69.0
61,9.38,9.41625,63.0,71.0
62,9.38,9.48375,57.0,85.0
63,9.38,9.49,60.0,90.0
64,9.38,9.49625,64.0,86.0
65,9.08,9.57625,52.0,74.0
66,9.98,10.043750000000001,57.0,86.0
67,9.98,10.045,53.0,75.0
68,9.98,10.045,60.0,78.0
69,10.13,10.2175,60.0,74.0
70,10.13,10.22375,53.0,64.0
71,10.13,10.227500000000001,57.0,74.0
72,9.68,10.321250000000001,41.0,75.0
73,10.58,10.635,53.0,86.0
74,10.58,10.64625,60.0,89.0
75,10.58,10.651250000000001,57.0,95.0
76,10.28,10.755,48.0,75.0
77,11.18,11.24,53.0,79.0
78,11.18,11.2425,57.0,92.0
79,11.18,11.24375,60.0,82.0
80,11.33,11.42875,53.0,59.0
81,11.33,11.44125,60.0,69.0
82,11.33,11.445,57.0,65.0
83,10.88,11.58125,41.0,59.0
84,11.78,11.855,53.0,83.0
85,11.78,11.86375,60.0,83.0
86,11.78,11.86875,57.0,95.0
87,11.48,12.0,48.0,82.0
88,12.38,12.4425,58.0,100.0
89,12.38,12.445,62.0,82.0
90,12.38,12.45125,55.0,79.0
91,11.93,12.620000000000001,43.0,64.0
92,12.530000000000001,12.6225,55.0,59.0
93,12.530000000000001,12.625,58.0,64.0
94,12.530000000000001,12.62625,62.0,69.0
95,12.98,13.0525,58.0,97.0
96,12.98,13.05625,55.0,79.0
97,12.98,13.08125,62.0,88.0
98,12.68,13.1725,50.0,78.0
99,13.280000000000001,13.32625,62.0,43.0
100,13.58,13.6325,58.0,122.0
101,13.58,13.655000000000001,62.0,92.0
102,13.58,13.66,55.0,97.0
103,13.73,13.845,55.0,58.0
104,13.73,13.845,62.0,69.0
105,13.73,13.852500000000001,58.0,73.0
106,13.280000000000001,13.97375,43.0,59.0
107,14.18,14.3175,58.0,96.0
108,14.18,14.32,55.0,82.0
109,14.18,14.32875,62.0,85.0
110,13.88,14.4425,50.0,90.0
111,14.48,14.67875,64.0,99.0
112,14.48,14.68125,60.0,97.0
113,14.48,14.686250000000001,57.0,92.0
114,14.48,14.69125,45.0,96.0
115,16.88,17.14875,48.0,112.0
116,16.88,17.14875,60.0,112.0
117,17.18,17.34125,50.0,112.0
118,17.18,17.34125,62.0,112.0
119,17.48,17.72,50.0,127.0
120,17.48,17.72,62.0,127.0
121,17.78,18.225,53.0,127.0
122,17.78,18.225,65.0,127.0
123,18.38,19.04,50.0,100.0
124,18.38,19.04,62.0,100.0
125,19.28,19.52375,45.0,107.0
126,19.28,19.52375,57.0,107.0
127,19.580000000000002,19.735,48.0,107.0
128,19.580000000000002,19.735,60.0,107.0
129,19.88,20.1275,48.0,112.0
130,19.88,20.1275,60.0,112.0
131,20.18,20.4075,53.0,107.0
132,20.18,20.4075,65.0,107.0
133,20.48,20.65625,50.0,127.0
134,20.48,20.65625,62.0,127.0
135,23.18,23.23125,62.0,97.0
136,23.18,23.23875,65.0,90.0
137,22.88,23.32875,38.0,88.0
138,23.330000000000002,23.368750000000002,57.0,59.0
139,23.330000000000002,23.43375,62.0,76.0
140,23.330000000000002,23.435,65.0,73.0
141,23.78,23.85625,62.0,86.0
142,23.78,23.86375,57.0,81.0
143,23.78,23.87,65.0,77.0
144,23.48,23.9225,50.0,63.0
145,24.38,24.445,62.0,89.0
146,24.38,24.45625,65.0,72.0
147,24.080000000000002,24.5675,38.0,64.0
148,24.98,25.048750000000002,62.0,89.0
149,24.98,25.056250000000002,65.0,77.0
150,24.98,25.0625,57.0,78.0
151,24.68,25.0825,50.0,96.0
152,25.580000000000002,25.63625,62.0,88.0
153,25.580000000000002,25.642500000000002,65.0,77.0
154,25.580000000000002,25.655,57.0,75.0
155,25.28,25.74625,38.0,66.0
156,26.18,26.2425,62.0,93.0
157,26.18,26.25625,57.0,82.0
158,26.18,26.26875,65.0,88.0
159,25.88,26.31625,50.0,63.0
160,26.78,26.830000000000002,62.0,99.0
161,26.78,26.84,65.0,88.0
162,26.78,26.85125,57.0,88.0
163,26.93,26.985,62.0,63.0
164,26.93,26.9875,57.0,48.0
165,26.93,27.00875,65.0,69.0
166,26.48,27.0475,38.0,73.0
167,27.38,27.4425,62.0,97.0
168,27.38,27.4425,65.0,92.0
169,27.38,27.45375,57.0,88.0
170,27.080000000000002,27.51125,50.0,79.0
171,27.98,28.04125,60.0,99.0
172,27.98,28.05125,64.0,92.0
173,27.98,28.0575,57.0,90.0
174,27.68,28.22625,45.0,71.0
175,28.580000000000002,28.653750000000002,60.0,78.0
176,28.580000000000002,28.65625,57.0,85.0
177,28.580000000000002,28.665,64.0,78.0
178,28.28,28.85875,52.0,70.0
179,29.18,29.2225,60.0,86.0
180,29.18,29.23375,57.0,86.0
181,29.18,29.23875,64.0,83.0
182,29.330000000000002,29.395,57.0,61.0
183,29.330000000000002,29.40625,64.0,72.0
184,29.330000000000002,29.41125,60.0,69.0
185,28.88,29.462500000000002,45.0,61.0
186,29.78,29.83125,63.0,72.0
187,29.78,29.84,60.0,89.0
188,29.78,29.86,64.0,76.0
189,29.78,29.87125,57.0,79.0
190,29.48,29.905,52.0,72.0
191,30.38,30.425,53.0,71.0
192,30.38,30.431250000000002,57.0,83.0
193,30.38,30.43875,60.0,82.0
194,30.080000000000002,30.68,41.0,70.0
195,30.98,31.04375,65.0,83.0
196,30.98,31.052500000000002,60.0,82.0
197,30.98,31.0625,69.0,77.0
198,30.68,31.24625,48.0,70.0
199,31.580000000000002,31.62,53.0,72.0
200,31.580000000000002,31.655,60.0,83.0
201,31.580000000000002,31.65875,57.0,83.0
202,31.28,31.94125,41.0,61.0
203,32.18,32.2575,57.0,85.0
204,32.18,32.26,60.0,83.0
205,32.18,32.27,53.0,83.0
206,31.88,32.37375,48.0,60.0
207,32.78,32.83625,58.0,107.0
208,32.78,32.84375,62.0,93.0
209,32.78,32.85375,55.0,92.0
210,32.480000000000004,33.10625,43.0,70.0
211,33.38,33.45875,70.0,97.0
212,33.38,33.46,62.0,83.0
213,33.38,33.46875,67.0,92.0
214,33.08,33.6475,50.0,60.0
215,33.980000000000004,34.04625,55.0,79.0
216,33.980000000000004,34.04875,58.0,99.0
217,33.980000000000004,34.0575,62.0,90.0
218,33.68,34.35625,43.0,62.0
219,34.58,34.6325,58.0,92.0
220,34.58,34.6375,62.0,82.0
221,34.58,34.66375,55.0,85.0
222,34.28,34.78875,50.0,76.0
223,34.88,34.987500000000004,60.0,107.0
224,34.88,34.99,57.0,102.0
225,34.88,35.0025,64.0,107.0
226,34.88,35.015,45.0,89.0
227,37.28,37.54875,48.0,112.0
228,37.28,37.54875,60.0,112.0
229,37.58,37.74125,50.0,112.0
230,37.58,37.74125,62.0,112.0
231,37.88,38.12,50.0,127.0
232,37.88,38.12,62.0,127.0
233,38.18,38.625,53.0,127.0
234,38.18,38.625,65.0,127.0
235,38.78,39.44,50.0,100.0
236,38.78,39.44,62.0,100.0
237,39.68,39.92375,45.0,107.0
238,39.68,39.92375,57.0,107.0
239,39.980000000000004,40.135,48.0,107.0
240,39.980000000000004,40.135,60.0,107.0
241,40.28,40.5275,48.0,112.0
242,40.28,40.5275,60.0,112.0
243,40.58,40.8075,53.0,107.0
244,40.58,40.8075,65.0,107.0
245,40.88,41.05625,50.0,127.0
246,40.88,41.05625,62.0,127.0
247,43.58,43.63125,62.0,97.0
248,43.58,43.63875,65.0,90.0
249,43.28,43.72875,38.0,88.0
250,43.730000000000004,43.768750000000004,57.0,59.0
251,43.730000000000004,43.83375,62.0,76.0
252,43.730000000000004,43.835,65.0,73.0
253,44.18,44.25625,62.0,86.0
254,44.18,44.26375,57.0,81.0
255,44.18,44.27,65.0,77.0
256,43.88,44.3225,50.0,63.0
257,44.78,44.845,62.0,89.0
258,44.78,44.85625,65.0,72.0
259,44.480000000000004,44.9675,38.0,64.0
260,45.38,45.448750000000004,62.0,89.0
261,45.38,45.456250000000004,65.0,77.0
262,45.38,45.4625,57.0,78.0
263,45.08,45.4825,50.0,96.0
264,45.980000000000004,46.03625,62.0,88.0
265,45.980000000000004,46.042500000000004,65.0,77.0
266,45.980000000000004,46.055,57.0,75.0
267,45.68,46.14625,38.0,66.0
268,46.58,46.6425,62.0,93.0
269,46.58,46.65625,57.0,82.0
270,46.58,46.66875,65.0,88.0
271,46.28,46.71625,50.0,63.0
272,47.18,47.230000000000004,62.0,99.0
273,47.18,47.24,65.0,88.0
274,47.18,47.25125,57.0,88.0
275,47.33,47.385,62.0,63.0
276,47.33,47.3875,57.0,48.0
277,47.33,47.40875,65.0,69.0
278,46.88,47.4475,38.0,73.0
279,47.78,47.8425,62.0,97.0
280,47.78,47.8425,65.0,92.0
281,47.78,47.85375,57.0,88.0
282,47.480000000000004,47.91125,50.0,79.0
283,48.38,48.441250000000004,60.0,99.0
284,48.38,48.45125,64.0,92.0
285,48.38,48.4575,57.0,90.0
286,48.08,48.62625,45.0,71.0
287,48.980000000000004,49.05375,60.0,78.0
288,48.980000000000004,49.05625,57.0,85.0
289,48.980000000000004,49.065,64.0,78.0
290,48.68,49.25875,52.0,70.0
291,49.58,49.6225,60.0,86.0
292,49.58,49.63375,57.0,86.0
293,49.58,49.63875,64.0,83.0
294,49.730000000000004,49.795,57.0,61.0
295,49.730000000000004,49.80625,64.0,72.0
296,49.730000000000004,49.81125,60.0,69.0
297,49.28,49.862500000000004,45.0,61.0
298,50.18,50.23125,63.0,72.0
299,50.18,50.24,60.0,89.0
300,50.18,50.26,64.0,76.0
301,50.18,50.27125,57.0,79.0
302,49.88,50.305,52.0,72.0
303,50.78,50.825,53.0,71.0
304,50.78,50.831250000000004,57.0,83.0
305,50.78,50.838750000000005,60.0,82.0
306,50.480000000000004,51.08,41.0,70.0
307,51.38,51.44375,65.0,83.0
308,51.38,51.4525,60.0,82.0
309,51.38,51.4625,69.0,77.0
310,51.08,51.64625,48.0,70.0
311,51.980000000000004,52.02,53.0,72.0
312,51.980000000000004,52.055,60.0,83.0
313,51.980000000000004,52.05875,57.0,83.0
314,51.68,52.34125,41.0,61.0
315,52.58,52.6575,57.0,85.0
316,52.58,52.660000000000004,60.0,83.0
317,52.58,52.67,53.0,83.0
318,52.28,52.77375,48.0,60.0
319,53.18,53.23625,58.0,107.0
320,53.18,53.24375,62.0,93.0
321,53.18,53.253750000000004,55.0,92.0
322,52.88,53.50625,43.0,70.0
323,53.78,53.85875,70.0,97.0
324,53.78,53.86,62.0,83.0
325,53.78,53.86875,67.0,92.0
326,53.480000000000004,54.0475,50.0,60.0
327,54.38,54.44625,55.0,79.0
328,54.38,54.448750000000004,58.0,99.0
329,54.38,54.4575,62.0,90.0
330,54.08,54.75625,43.0,62.0
331,54.980000000000004,55.0325,58.0,92.0
332,54.980000000000004,55.0375,62.0,82.0
333,54.980000000000004,55.06375,55.0,85.0
334,54.68,55.18875,50.0,76.0
335,55.28,55.3875,60.0,107.0
336,55.28,55.39,57.0,102.0
337,55.28,55.4025,64.0,107.0
338,55.28,55.415,45.0,89.0
339,57.68,57.948750000000004,48.0,112.0
340,57.68,57.948750000000004,60.0,112.0
341,57.980000000000004,58.14125,50.0,112.0
342,57.980000000000004,58.14125,62.0,112.0
343,58.28,58.52,50.0,127.0
344,58.28,58.52,62.0,127.0
345,58.58,59.025,53.0,127.0
346,58.58,59.025,65.0,127.0
347,59.18,59.84,50.0,100.0
348,59.18,59.84,62.0,100.0
349,60.08,60.338750000000005,43.0,102.0
350,60.08,60.338750000000005,55.0,102.0
351,60.38,60.612500000000004,45.0,112.0
352,60.38,60.612500000000004,57.0,112.0
353,60.68,60.8425,48.0,117.0
354,60.68,60.8425,60.0,117.0
355,60.980000000000004,61.215,45.0,100.0
356,60.980000000000004,61.215,57.0,100.0
357,61.28,61.54625,48.0,122.0
358,61.28,61.54625,60.0,122.0
359,61.58,61.823750000000004,50.0,122.0
360,61.58,61.823750000000004,62.0,122.0
361,61.88,62.06375,53.0,122.0
362,61.88,62.06375,65.0,122.0
363,62.18,62.68125,55.0,127.0
364,62.18,62.68125,67.0,127.0
365,64.58,64.6275,70.0,78.0
366,64.58,64.63250000000001,67.0,83.0
367,64.58,64.63625,62.0,61.0
368,64.28,64.74125000000001,43.0,76.0
369,64.73,64.8075,62.0,59.0
370,64.73,64.83,67.0,75.0
371,64.73,64.83500000000001,70.0,75.0
372,65.18,65.25750000000001,67.0,88.0
373,65.18,65.26,70.0,81.0
374,65.18,65.2675,62.0,81.0
375,64.88,65.305,55.0,73.0
376,65.78,65.81875,67.0,83.0
377,65.78,65.8225,70.0,90.0
378,65.78,65.825,62.0,73.0
379,65.93,66.01375,62.0,58.0
380,65.93,66.0275,67.0,78.0
381,65.93,66.045,70.0,82.0
382,65.48,66.25125,43.0,75.0
383,66.08,66.255,55.0,89.0
384,66.38,66.4325,67.0,66.0
385,66.38,66.48375,62.0,81.0
386,66.68,66.95375,43.0,78.0
387,66.68,66.9675,64.0,69.0
388,66.68,66.96875,67.0,73.0
389,66.68,66.9725,60.0,99.0
390,66.68,66.97375,48.0,97.0
391,66.68,66.98,36.0,71.0
392,68.78,68.8175,65.0,71.0
393,68.78,68.83375,69.0,69.0
394,68.78,68.84125,62.0,62.0
395,68.78,68.84125,62.0,72.0
396,68.48,68.88125000000001,38.0,73.0
397,68.93,69.02,65.0,68.0
398,68.93,69.02875,69.0,68.0
399,69.38,69.44875,65.0,85.0
400,69.38,69.46375,62.0,78.0
401,69.38,69.465,69.0,78.0
402,69.08,69.495,50.0,57.0
403,69.98,70.0325,65.0,73.0
404,69.98,70.04,69.0,63.0
405,69.98,70.0475,62.0,74.0
406,70.13,70.2075,65.0,69.0
407,70.13,70.20875,69.0,66.0
408,70.13,70.21625,62.0,64.0
409,69.68,70.25125,38.0,71.0
410,70.58,70.65,65.0,82.0
411,70.58,70.65625,69.0,72.0
412,70.58,70.68125,62.0,82.0
413,70.28,70.70875,50.0,71.0
414,71.18,71.24625,64.0,78.0
415,71.18,71.24875,67.0,69.0
416,71.18,71.26125,60.0,68.0
417,70.88,71.30125,36.0,74.0
418,71.33,71.40875,64.0,69.0
419,71.33,71.40875,67.0,71.0
420,71.33,71.4225,60.0,67.0
421,71.78,71.85000000000001,64.0,88.0
422,71.78,71.8525,67.0,83.0
423,71.78,71.86125,60.0,89.0
424,71.48,71.9675,48.0,64.0
425,72.38,72.42,64.0,90.0
426,72.38,72.4375,67.0,88.0
427,72.38,72.43875,60.0,88.0
428,72.08,72.60375,36.0,72.0
429,72.53,72.62375,64.0,75.0
430,72.53,72.63375,60.0,71.0
431,72.53,72.635,67.0,69.0
432,72.98,73.04,67.0,85.0
433,72.98,73.04625,70.0,96.0
434,72.98,73.0525,62.0,78.0
435,72.68,73.0775,43.0,85.0
436,73.13,73.23,62.0,70.0
437,73.13,73.23375,70.0,79.0
438,73.13,73.24125000000001,67.0,79.0
439,73.58,73.65125,62.0,77.0
440,73.58,73.6575,70.0,79.0
441,73.58,73.665,67.0,89.0
442,73.73,73.76625,70.0,50.0
443,73.73,73.7675,67.0,53.0
444,73.28,73.77,55.0,79.0
445,74.18,74.24375,67.0,85.0
446,74.18,74.245,70.0,81.0
447,73.88,74.3775,43.0,75.0
448,74.33,74.43375,62.0,54.0
449,74.33,74.435,67.0,72.0
450,74.33,74.45125,70.0,72.0
451,74.48,74.73375,55.0,78.0
452,74.78,74.8275,70.0,74.0
453,74.78,74.8625,67.0,89.0
454,74.78,74.87875,62.0,88.0
455,75.38,75.425,64.0,89.0
456,75.38,75.435,67.0,81.0
457,75.38,75.43625,60.0,77.0
458,75.08,75.51375,36.0,81.0
459,75.53,75.63125000000001,64.0,70.0
460,75.53,75.635,67.0,70.0
461,75.53,75.65625,60.0,65.0
462,75.98,76.06375,67.0,77.0
463,75.98,76.0675,64.0,83.0
464,75.98,76.07625,60.0,83.0
465,75.68,76.1375,48.0,85.0
466,76.58,76.625,69.0,69.0
467,76.58,76.64,62.0,75.0
468,76.58,76.64,65.0,92.0
469,76.28,76.72500000000001,38.0,85.0
470,76.73,76.81625,65.0,76.0
471,76.73,76.82125,62.0,66.0
472,76.73,76.82375,69.0,69.0
473,77.18,77.255,62.0,75.0
474,77.18,77.25750000000001,65.0,86.0
475,77.18,77.27,69.0,77.0
476,76.88,77.35125000000001,50.0,74.0
477,77.78,77.83375,65.0,79.0
478,77.78,77.83500000000001,62.0,93.0
479,77.78,77.84625,57.0,89.0
480,77.48,77.92375,38.0,76.0
481,77.93,78.01875,57.0,58.0
482,77.93,78.02875,62.0,75.0
483,77.93,78.03875000000001,65.0,72.0
484,78.38,78.46000000000001,57.0,82.0
485,78.38,78.465,62.0,95.0
486,78.38,78.465,65.0,86.0
487,78.08,78.50750000000001,50.0,75.0
488,78.98,79.02625,65.0,77.0
489,78.98,79.02625,65.0,93.0
490,78.98,79.0275,57.0,59.0
491,78.98,79.0275,57.0,93.0
492,78.98,79.03125,62.0,79.0
493,78.98,79.03125,62.0,100.0
494,78.68,79.09125,38.0,79.0
495,79.28,79.5275,45.0,86.0
496,79.28,79.535,38.0,67.0
497,79.28,79.53750000000001,62.0,107.0
498,79.28,79.5475,50.0,92.0
499,79.28,79.5625,57.0,90.0
500,79.28,79.56875000000001,65.0,99.0
501,81.98,82.03625,65.0,76.0
502,81.98,82.0475,62.0,88.0
503,81.98,82.05875,57.0,78.0
504,81.68,82.16375000000001,38.0,88.0
505,82.13,82.21875,65.0,77.0
506,82.13,82.22,57.0,63.0
507,82.13,82.22125,62.0,69.0
508,82.58,82.65875,62.0,77.0
509,82.58,82.66,57.0,72.0
510,82.58,82.6725,65.0,74.0
511,82.28,82.73375,50.0,58.0
512,83.18,83.22625000000001,57.0,66.0
513,83.18,83.235,62.0,92.0
514,83.18,83.24,65.0,73.0
515,83.33,83.4,57.0,53.0
516,83.33,83.42625,65.0,70.0
517,83.33,83.42875000000001,62.0,71.0
518,82.88,83.48875,38.0,47.0
519,83.78,83.86625000000001,62.0,88.0
520,83.78,83.87125,57.0,78.0
521,83.78,83.88375,65.0,86.0
522,83.48,83.955,45.0,63.0
523,84.38,84.4375,62.0,85.0
524,84.38,84.4375,65.0,72.0
525,84.08,84.47,38.0,71.0
526,84.53,84.60875,57.0,55.0
527,84.53,84.625,65.0,67.0
528,84.53,84.63625,62.0,73.0
529,84.98,85.0625,62.0,86.0
530,84.98,85.07000000000001,57.0,74.0
531,84.98,85.07125,65.0,77.0
532,84.68,85.185,45.0,52.0
533,85.58,85.63,62.0,90.0
534,85.58,85.63875,65.0,78.0
535,85.58,85.64125,57.0,78.0
536,85.73,85.83625,65.0,62.0
537,85.73,85.845,62.0,66.0
538,85.28,85.905,38.0,48.0
539,85.88,86.2625,45.0,95.0
540,86.18,86.265,57.0,74.0
541,86.18,86.28,62.0,89.0
542,86.18,86.295,65.0,79.0
543,86.78,86.82875,60.0,88.0
544,86.78,86.83500000000001,64.0,79.0
545,86.78,86.84875,57.0,76.0
546,86.93,87.015,57.0,64.0
547,86.93,87.02375,60.0,79.0
548,86.93,87.02375,64.0,72.0
549,86.48,87.115,45.0,61.0
550,87.38,87.46000000000001,60.0,93.0
551,87.38,87.46375,57.0,82.0
552,87.38,87.46625,64.0,89.0
553,87.08,87.58625,52.0,69.0
554,87.98,88.03750000000001,60.0,89.0
555,87.98,88.0525,64.0,78.0
556,87.98,88.0625,57.0,76.0
557,88.13,88.205,57.0,59.0
558,88.13,88.22375,60.0,72.0
559,88.13,88.23875,64.0,74.0
560,87.68,88.32000000000001,45.0,69.0
561,88.58,88.61625000000001,63.0,71.0
562,88.58,88.68375,57.0,85.0
563,88.58,88.69,60.0,90.0
564,88.58,88.69625,64.0,86.0
565,88.28,88.77625,52.0,74.0
566,89.18,89.24375,57.0,86.0
567,89.18,89.245,53.0,75.0
568,89.18,89.245,60.0,78.0
569,89.33,89.4175,60.0,74.0
570,89.33,89.42375,53.0,64.0
571,89.33,89.4275,57.0,74.0
572,88.88,89.52125,41.0,75.0
573,89.78,89.83500000000001,53.0,86.0
574,89.78,89.84625,60.0,89.0
575,89.78,89.85125000000001,57.0,95.0
576,89.48,89.955,48.0,75.0
577,90.38,90.44,53.0,79.0
578,90.38,90.4425,57.0,92.0
579,90.38,90.44375000000001,60.0,82.0
580,90.53,90.62875,53.0,59.0
581,90.53,90.64125,60.0,69.0
582,90.53,90.645,57.0,65.0
583,90.08,90.78125,41.0,59.0
584,90.98,91.055,53.0,83.0
585,90.98,91.06375,60.0,83.0
586,90.98,91.06875000000001,57.0,95.0
587,90.68,91.2,48.0,82.0
588,91.58,91.6425,58.0,100.0
589,91.58,91.645,62.0,82.0
590,91.58,91.65125,55.0,79.0
591,91.73,91.8225,55.0,59.0
592,91.73,91.825,58.0,64.0
593,91.73,91.82625,62.0,69.0
594,91.28,91.97,43.0,64.0
595,92.18,92.2525,58.0,97.0
596,92.18,92.25625000000001,55.0,79.0
597,92.18,92.28125,62.0,88.0
598,91.88,92.3725,50.0,78.0
599,92.48,92.52625,62.0,43.0
600,92.78,92.8325,58.0,122.0
601,92.78,92.855,62.0,92.0
602,92.78,92.86,55.0,97.0
603,92.93,93.045,55.0,58.0
604,92.93,93.045,62.0,69.0
605,92.93,93.0525,58.0,73.0
606,92.48,93.17375,43.0,59.0
607,93.38,93.5175,58.0,96.0
608,93.38,93.52,55.0,82.0
609,93.38,93.52875,62.0,85.0
610,93.08,93.6425,50.0,90.0
611,93.68,93.87875,64.0,99.0
612,93.68,93.88125000000001,60.0,97.0
613,93.68,93.88625,57.0,92.0
614,93.68,93.89125,45.0,96.0
615,96.08,96.34875,48.0,112.0
616,96.08,96.34875,60.0,112.0
617,96.38,96.54125,50.0,112.0
618,96.38,96.54125,62.0,112.0
619,96.68,96.92,50.0,127.0
620,96.68,96.92,62.0,127.0
621,96.98,97.425,53.0,127.0
622,96.98,97.425,65.0,127.0
623,97.58,98.24000000000001,50.0,100.0
624,97.58,98.24000000000001,62.0,100.0
625,98.48,98.73875,43.0,102.0
626,98.48,98.73875,55.0,102.0
627,98.78,99.0125,45.0,112.0
628,98.78,99.0125,57.0,112.0
629,99.08,99.2425,48.0,117.0
630,99.08,99.2425,60.0,117.0
631,99.38,99.61500000000001,45.0,100.0
632,99.38,99.61500000000001,57.0,100.0
633,99.68,99.94625,48.0,122.0
634,99.68,99.94625,60.0,122.0
635,99.98,100.22375,50.0,122.0
636,99.98,100.22375,62.0,122.0
637,100.28,100.46375,53.0,122.0
638,100.28,100.46375,65.0,122.0
639,100.58,101.08125,55.0,127.0
640,100.58,101.08125,67.0,127.0
641,103.58,103.63625,65.0,76.0
642,103.58,103.64750000000001,62.0,88.0
643,103.58,103.65875,57.0,78.0
644,103.28,103.76375,38.0,88.0
645,103.73,103.81875000000001,65.0,77.0
646,103.73,103.82000000000001,57.0,63.0
647,103.73,103.82125,62.0,69.0
648,104.18,104.25875,62.0,77.0
649,104.18,104.26,57.0,72.0
650,104.18,104.27250000000001,65.0,74.0
651,103.88,104.33375000000001,50.0,58.0
652,104.78,104.82625,57.0,66.0
653,104.78,104.83500000000001,62.0,92.0
654,104.78,104.84,65.0,73.0
655,104.93,105.0,57.0,53.0
656,104.93,105.02625,65.0,70.0
657,104.93,105.02875,62.0,71.0
658,104.48,105.08875,38.0,47.0
659,105.38,105.46625,62.0,88.0
660,105.38,105.47125,57.0,78.0
661,105.38,105.48375,65.0,86.0
662,105.08,105.555,45.0,63.0
663,105.98,106.03750000000001,62.0,85.0
664,105.98,106.03750000000001,65.0,72.0
665,105.68,106.07000000000001,38.0,71.0
666,106.13,106.20875000000001,57.0,55.0
667,106.13,106.22500000000001,65.0,67.0
668,106.13,106.23625,62.0,73.0
669,106.58,106.66250000000001,62.0,86.0
670,106.58,106.67,57.0,74.0
671,106.58,106.67125,65.0,77.0
672,106.28,106.785,45.0,52.0
673,107.18,107.23,62.0,90.0
674,107.18,107.23875,65.0,78.0
675,107.18,107.24125000000001,57.0,78.0
676,107.33,107.43625,65.0,62.0
677,107.33,107.44500000000001,62.0,66.0
678,106.88,107.505,38.0,48.0
679,107.48,107.8625,45.0,95.0
680,107.78,107.86500000000001,57.0,74.0
681,107.78,107.88,62.0,89.0
682,107.78,107.895,65.0,79.0
683,108.38,108.42875000000001,60.0,88.0
684,108.38,108.435,64.0,79.0
685,108.38,108.44875,57.0,76.0
686,108.53,108.61500000000001,57.0,64.0
687,108.53,108.62375,60.0,79.0
688,108.53,108.62375,64.0,72.0
689,108.08,108.715,45.0,61.0
690,108.98,109.06,60.0,93.0
691,108.98,109.06375,57.0,82.0
692,108.98,109.06625,64.0,89.0
693,108.68,109.18625,52.0,69.0
694,109.58,109.6375,60.0,89.0
695,109.58,109.6525,64.0,78.0
696,109.58,109.66250000000001,57.0,76.0
697,109.73,109.805,57.0,59.0
698,109.73,109.82375,60.0,72.0
699,109.73,109.83875,64.0,74.0
700,109.28,109.92,45.0,69.0
701,110.18,110.28375,57.0,85.0
702,110.18,110.29,60.0,90.0
703,110.18,110.29625,64.0,86.0
704,109.88,110.37625,52.0,74.0
705,110.78,110.84375,57.0,86.0
706,110.78,110.845,53.0,75.0
707,110.78,110.845,60.0,78.0
708,110.93,111.0175,60.0,74.0
709,110.93,111.02375,53.0,64.0
710,110.93,111.0275,57.0,74.0
711,110.48,111.12125,41.0,75.0
712,111.38,111.435,53.0,86.0
713,111.38,111.44625,60.0,89.0
714,111.38,111.45125,57.0,95.0
715,111.08,111.555,48.0,75.0
716,111.98,112.04,53.0,79.0
717,111.98,112.0425,57.0,92.0
718,111.98,112.04375,60.0,82.0
719,112.13,112.22875,53.0,59.0
720,112.13,112.24125000000001,60.0,69.0
721,112.13,112.245,57.0,65.0
722,111.68,112.38125000000001,41.0,59.0
723,112.58,112.655,53.0,83.0
724,112.58,112.66375000000001,60.0,83.0
725,112.58,112.66875,57.0,95.0
726,112.28,112.8,48.0,82.0
727,113.18,113.2425,58.0,100.0
728,113.18,113.245,62.0,82.0
729,113.18,113.25125,55.0,79.0
730,113.33,113.4225,55.0,59.0
731,113.33,113.425,58.0,64.0
732,113.33,113.42625,62.0,69.0
733,112.88,113.57000000000001,43.0,64.0
734,113.78,113.8525,58.0,97.0
735,113.78,113.85625,55.0,79.0
736,113.78,113.88125000000001,62.0,88.0
737,113.48,113.9725,50.0,78.0
738,114.08,114.12625,62.0,43.0
739,114.38,114.4325,58.0,122.0
740,114.38,114.455,62.0,92.0
741,114.38,114.46000000000001,55.0,97.0
742,114.53,114.645,55.0,58.0
743,114.53,114.645,62.0,69.0
744,114.53,114.6525,58.0,73.0
745,114.08,114.77375,43.0,59.0
746,114.98,115.1175,58.0,96.0
747,114.98,115.12,55.0,82.0
748,114.98,115.12875,62.0,85.0
749,114.68,115.2425,50.0,90.0
750,115.28,115.47875,64.0,99.0
751,115.28,115.48125,60.0,97.0
752,115.28,115.48625,57.0,92.0
753,115.28,115.49125000000001,45.0,96.0
754,117.68,117.94875,48.0,112.0
755,117.68,117.94875,60.0,112.0
756,117.98,118.14125,50.0,112.0
757,117.98,118.14125,62.0,112.0
758,118.28,118.52,50.0,127.0
759,118.28,118.52,62.0,127.0
760,118.58,119.025,53.0,127.0
761,118.58,119.025,65.0,127.0
762,119.18,119.84,50.0,100.0
763,119.18,119.84,62.0,100.0
764,120.08,120.32375,45.0,107.0
765,120.08,120.32375,57.0,107.0
766,120.38,120.535,48.0,107.0
767,120.38,120.535,60.0,107.0
768,120.68,120.92750000000001,48.0,112.0
769,120.68,120.92750000000001,60.0,112.0
770,120.98,121.2075,53.0,107.0
771,120.98,121.2075,65.0,107.0
772,121.28,121.45625,50.0,127.0
773,121.28,121.45625,62.0,127.0
774,123.98,124.03625000000001,65.0,76.0
775,123.98,124.0475,62.0,88.0
776,123.98,124.05875,57.0,78.0
777,123.68,124.16375000000001,38.0,88.0
778,124.13000000000001,124.21875,65.0,77.0
779,124.13000000000001,124.22,57.0,63.0
780,124.13000000000001,124.22125,62.0,69.0
781,124.58,124.65875,62.0,77.0
782,124.58,124.66,57.0,72.0
783,124.58,124.6725,65.0,74.0
784,124.28,124.73375,50.0,58.0
785,125.18,125.22625000000001,57.0,66.0
786,125.18,125.235,62.0,92.0
787,125.18,125.24000000000001,65.0,73.0
788,125.33,125.4,57.0,53.0
789,125.33,125.42625,65.0,70.0
790,125.33,125.42875000000001,62.0,71.0
791,124.88000000000001,125.48875,38.0,47.0
792,125.78,125.86625000000001,62.0,88.0
793,125.78,125.87125,57.0,78.0
794,125.78,125.88375,65.0,86.0
795,125.48,125.955,45.0,63.0
796,126.38000000000001,126.4375,62.0,85.0
797,126.38000000000001,126.4375,65.0,72.0
798,126.08,126.47,38.0,71.0
799,126.53,126.60875,57.0,55.0
800,126.53,126.625,65.0,67.0
801,126.53,126.63625,62.0,73.0
802,126.98,127.0625,62.0,86.0
803,126.98,127.07000000000001,57.0,74.0
804,126.98,127.07125,65.0,77.0
805,126.68,127.185,45.0,52.0
806,127.58,127.63000000000001,62.0,90.0
807,127.58,127.63875,65.0,78.0
808,127.58,127.64125,57.0,78.0
809,127.73,127.83625,65.0,62.0
810,127.73,127.845,62.0,66.0
811,127.28,127.905,38.0,48.0
812,127.88000000000001,128.2625,45.0,95.0
813,128.18,128.26500000000001,57.0,74.0
814,128.18,128.28,62.0,89.0
815,128.18,128.29500000000002,65.0,79.0
816,128.78,128.82875,60.0,88.0
817,128.78,128.835,64.0,79.0
818,128.78,128.84875,57.0,76.0
819,128.93,129.01500000000001,57.0,64.0
820,128.93,129.02375,60.0,79.0
821,128.93,129.02375,64.0,72.0
822,128.48,129.115,45.0,61.0
823,129.38,129.46,60.0,93.0
824,129.38,129.46375,57.0,82.0
825,129.38,129.46625,64.0,89.0
826,129.08,129.58625,52.0,69.0
827,129.98,130.0375,60.0,89.0
828,129.98,130.0525,64.0,78.0
829,129.98,130.0625,57.0,76.0
830,130.13,130.205,57.0,59.0
831,130.13,130.22375,60.0,72.0
832,130.13,130.23875,64.0,74.0
833,129.68,130.32,45.0,69.0
834,130.58,130.61625,63.0,71.0
835,130.58,130.68375,57.0,85.0
836,130.58,130.69,60.0,90.0
837,130.58,130.69625,64.0,86.0
838,130.28,130.77625,52.0,74.0
839,131.18,131.24375,57.0,86.0
840,131.18,131.245,53.0,75.0
841,131.18,131.245,60.0,78.0
842,131.33,131.4175,60.0,74.0
843,131.33,131.42375,53.0,64.0
844,131.33,131.4275,57.0,74.0
845,130.88,131.52125,41.0,75.0
846,131.78,131.835,53.0,86.0
847,131.78,131.84625,60.0,89.0
848,131.78,131.85125,57.0,95.0
849,131.48,131.955,48.0,75.0
850,132.38,132.44,53.0,79.0
851,132.38,132.4425,57.0,92.0
852,132.38,132.44375,60.0,82.0
853,132.53,132.62875,53.0,59.0
854,132.53,132.64125,60.0,69.0
855,132.53,132.645,57.0,65.0
856,132.08,132.78125,41.0,59.0
857,132.98,133.055,53.0,83.0
858,132.98,133.06375,60.0,83.0
859,132.98,133.06875,57.0,95.0
860,132.68,133.2,48.0,82.0
861,133.58,133.6425,58.0,100.0
862,133.58,133.645,62.0,82.0
863,133.58,133.65125,55.0,79.0
864,133.73,133.8225,55.0,59.0
865,133.73,133.825,58.0,64.0
866,133.73,133.82625000000002,62.0,69.0
867,133.28,133.97,43.0,64.0
868,134.18,134.2525,58.0,97.0
869,134.18,134.25625,55.0,79.0
870,134.18,134.28125,62.0,88.0
871,133.88,134.3725,50.0,78.0
872,134.48,134.52625,62.0,43.0
873,134.78,134.8325,58.0,122.0
874,134.78,134.855,62.0,92.0
875,134.78,134.86,55.0,97.0
876,134.93,135.04500000000002,55.0,58.0
877,134.93,135.04500000000002,62.0,69.0
878,134.93,135.0525,58.0,73.0
879,134.48,135.17375,43.0,59.0
880,135.38,135.5175,58.0,96.0
881,135.38,135.52,55.0,82.0
882,135.38,135.52875,62.0,85.0
883,135.08,135.6425,50.0,90.0
884,135.68,135.87875,64.0,99.0
885,135.68,135.88125,60.0,97.0
886,135.68,135.88625,57.0,92.0
887,135.68,135.89125,45.0,96.0
888,138.08,138.34875,48.0,112.0
889,138.08,138.34875,60.0,112.0
890,138.38,138.54125,50.0,112.0
891,138.38,138.54125,62.0,112.0
892,138.68,138.92000000000002,50.0,127.0
893,138.68,138.92000000000002,62.0,127.0
894,138.98,139.425,53.0,127.0
895,138.98,139.425,65.0,127.0
896,139.58,140.24,50.0,100.0
897,139.58,140.24,62.0,100.0
898,140.48,140.73875,43.0,102.0
899,140.48,140.73875,55.0,102.0
900,140.78,141.01250000000002,45.0,112.0
901,140.78,141.01250000000002,57.0,112.0
902,141.08,141.2425,48.0,117.0
903,141.08,141.2425,60.0,117.0
904,141.38,141.615,45.0,100.0
905,141.38,141.615,57.0,100.0
906,141.68,141.94625,48.0,122.0
907,141.68,141.94625,60.0,122.0
908,141.98,142.22375,50.0,122.0
909,141.98,142.22375,62.0,122.0
910,142.28,142.46375,53.0,122.0
911,142.28,142.46375,65.0,122.0
912,142.58,143.08125,55.0,127.0
913,142.58,143.08125,67.0,127.0
914,144.98,145.0275,70.0,78.0
915,144.98,145.0325,67.0,83.0
916,144.98,145.03625,62.0,61.0
917,144.68,145.14125,43.0,76.0
918,145.13,145.2075,62.0,59.0
919,145.13,145.23,67.0,75.0
920,145.13,145.235,70.0,75.0
921,145.58,145.6575,67.0,88.0
922,145.58,145.66,70.0,81.0
923,145.58,145.6675,62.0,81.0
924,145.28,145.705,55.0,73.0
925,146.18,146.21875,67.0,83.0
926,146.18,146.2225,70.0,90.0
927,146.18,146.225,62.0,73.0
928,146.33,146.41375,62.0,58.0
929,146.33,146.4275,67.0,78.0
930,146.33,146.445,70.0,82.0
931,145.88,146.65125,43.0,75.0
932,146.48,146.655,55.0,89.0
933,146.78,146.8325,67.0,66.0
934,146.78,146.88375,62.0,81.0
935,147.08,147.35375,43.0,78.0
936,147.08,147.3675,64.0,69.0
937,147.08,147.36875,67.0,73.0
938,147.08,147.3725,60.0,99.0
939,147.08,147.37375,48.0,97.0
940,147.08,147.38,36.0,71.0
941,149.18,149.245,62.0,93.0
942,149.18,149.245,65.0,83.0
943,148.88,149.25125,38.0,85.0
944,149.18,149.255,57.0,77.0
945,149.33,149.42125000000001,62.0,79.0
946,149.33,149.4375,57.0,58.0
947,149.33,149.44625,65.0,73.0
948,149.78,149.85625000000002,62.0,99.0
949,149.78,149.86125,57.0,81.0
950,149.78,149.87375,65.0,89.0
951,149.48,149.89625,50.0,82.0
952,150.38,150.4275,62.0,97.0
953,150.38,150.4325,65.0,86.0
954,150.38,150.45000000000002,57.0,89.0
955,150.08,150.51375000000002,38.0,72.0
956,150.53,150.6225,62.0,76.0
957,150.53,150.62625,57.0,56.0
958,150.53,150.63125,65.0,70.0
959,150.98,151.06375,62.0,97.0
960,150.98,151.06625,57.0,81.0
961,150.68,151.07,50.0,79.0
962,150.98,151.07375,65.0,89.0
963,151.58,151.635,64.0,85.0
964,151.58,151.63750000000002,60.0,95.0
965,151.58,151.6425,55.0,82.0
966,151.28,151.77125,36.0,71.0
967,151.73,151.8175,60.0,75.0
968,151.73,151.83,55.0,59.0
969,151.73,151.83,64.0,75.0
970,152.18,152.24875,55.0,77.0
971,152.18,152.25,60.0,89.0
972,152.18,152.27125,64.0,85.0
973,151.88,152.425,48.0,72.0
974,152.78,152.84125,65.0,92.0
975,152.78,152.845,60.0,85.0
976,152.78,152.85125,69.0,81.0
977,152.48,152.89625,41.0,72.0
978,152.93,153.035,65.0,60.0
979,152.93,153.04625000000001,60.0,56.0
980,152.93,153.05,69.0,71.0
981,153.38,153.435,67.0,90.0
982,153.38,153.445,70.0,92.0
983,153.38,153.45000000000002,62.0,76.0
984,153.08,153.5,43.0,75.0
985,153.53,153.635,67.0,74.0
986,153.53,153.64375,70.0,71.0
987,153.53,153.64625,62.0,69.0
988,153.98,154.0575,62.0,82.0
989,153.98,154.0625,67.0,93.0
990,153.98,154.0675,70.0,95.0
991,153.68,154.09125,55.0,79.0
992,154.58,154.63750000000002,67.0,88.0
993,154.58,154.645,70.0,89.0
994,154.58,154.64875,62.0,81.0
995,154.28,154.73,43.0,66.0
996,154.73,154.82500000000002,62.0,68.0
997,154.73,154.82750000000001,67.0,79.0
998,154.73,154.83625,70.0,79.0
999,155.18,155.2425,70.0,86.0
1000,155.18,155.27,62.0,86.0
1001,155.18,155.27,67.0,100.0
1002,154.88,155.275,55.0,76.0
1003,155.78,155.8425,64.0,89.0
1004,155.78,155.8475,67.0,79.0
1005,155.78,155.85750000000002,60.0,82.0
1006,155.48,155.8725,36.0,71.0
1007,155.93,156.025,64.0,76.0
1008,155.93,156.0275,67.0,72.0
1009,155.93,156.04,60.0,63.0
1010,156.38,156.44,64.0,93.0
1011,156.38,156.4475,67.0,86.0
1012,156.38,156.46,60.0,88.0
1013,156.08,156.54500000000002,48.0,77.0
1014,156.98,157.035,65.0,100.0
1015,156.98,157.04500000000002,60.0,99.0
1016,156.98,157.05,69.0,96.0
1017,156.68,157.0825,41.0,81.0
1018,157.58,157.64375,62.0,86.0
1019,157.58,157.645,65.0,82.0
1020,157.58,157.67125000000001,57.0,76.0
1021,157.28,157.67625,38.0,83.0
1022,157.73,157.82875,62.0,69.0
1023,157.73,157.83375,65.0,62.0
1024,157.73,157.84625,57.0,44.0
1025,158.18,158.25625,62.0,92.0
1026,158.18,158.2675,57.0,85.0
1027,158.18,158.27,65.0,83.0
1028,157.88,158.305,50.0,71.0
1029,158.78,158.835,62.0,96.0
1030,158.78,158.84,65.0,86.0
1031,158.78,158.84625,57.0,86.0
1032,158.48,159.00125,38.0,59.0
1033,158.93,159.02,57.0,50.0
1034,158.93,159.02375,62.0,73.0
1035,158.93,159.03625,65.0,72.0
1036,159.38,159.45000000000002,57.0,86.0
1037,159.38,159.45375,62.0,99.0
1038,159.38,159.46125,65.0,89.0
1039,159.08,159.54875,50.0,69.0
1040,159.98,160.035,65.0,82.0
1041,159.98,160.04,62.0,97.0
1042,159.98,160.0525,57.0,82.0
1043,159.68,160.06625,38.0,79.0
1044,160.13,160.2775,62.0,63.0
1045,160.13,160.29125,65.0,66.0
1046,160.13,160.30625,57.0,57.0
1047,160.58,160.6575,57.0,79.0
1048,160.58,160.66,62.0,86.0
1049,160.58,160.66125,65.0,77.0
1050,160.28,160.71125,50.0,92.0
1051,161.18,161.25375,69.0,93.0
1052,161.18,161.275,65.0,102.0
1053,161.18,161.28125,60.0,92.0
1054,160.88,161.29875,41.0,82.0
1055,161.78,161.82,62.0,66.0
1056,161.78,161.82375,58.0,100.0
1057,161.78,161.82500000000002,55.0,79.0
1058,161.48,162.00875,43.0,82.0
1059,161.93,162.01,55.0,58.0
1060,161.93,162.01125,62.0,69.0
1061,161.93,162.01625,58.0,79.0
1062,162.38,162.455,70.0,88.0
1063,162.38,162.46,62.0,76.0
1064,162.38,162.46625,67.0,88.0
1065,162.08,162.49125,50.0,75.0
1066,162.98,163.0375,70.0,89.0
1067,162.98,163.04625000000001,67.0,89.0
1068,162.98,163.0575,62.0,74.0
1069,162.68,163.08625,43.0,73.0
1070,163.13,163.23125000000002,62.0,62.0
1071,163.13,163.23625,67.0,82.0
1072,163.13,163.2375,70.0,88.0
1073,163.58,163.67625,62.0,81.0
1074,163.28,163.68125,55.0,90.0
1075,163.58,163.68125,67.0,90.0
1076,163.58,163.68625,70.0,89.0
1077,164.18,164.23125000000002,60.0,88.0
1078,163.88,164.2375,36.0,85.0
1079,164.18,164.24,55.0,71.0
1080,164.18,164.2575,64.0,78.0
1081,164.33,164.42000000000002,55.0,56.0
1082,164.33,164.42625,60.0,75.0
1083,164.33,164.445,64.0,72.0
1084,164.78,164.8625,60.0,82.0
1085,164.78,164.8675,55.0,70.0
1086,164.78,164.88,64.0,76.0
1087,164.48,164.92625,48.0,79.0
1088,165.38,165.45250000000001,60.0,96.0
1089,165.38,165.45375,55.0,79.0
1090,165.38,165.47,64.0,86.0
1091,165.08,165.54,36.0,78.0
1092,165.98,166.07,60.0,85.0
1093,165.98,166.07625000000002,55.0,79.0
1094,165.98,166.08625,64.0,77.0
1095,165.68,166.16125,48.0,61.0
1096,166.58,166.63750000000002,62.0,79.0
1097,166.58,166.64000000000001,65.0,67.0
1098,166.58,166.6525,57.0,73.0
1099,166.28,166.71625,38.0,78.0
1100,166.73,166.82375,57.0,68.0
1101,166.73,166.83,62.0,75.0
1102,166.73,166.83,65.0,73.0
1103,167.18,167.26500000000001,62.0,97.0
1104,167.18,167.2675,57.0,88.0
1105,167.18,167.27125,65.0,86.0
1106,166.88,167.28,50.0,88.0
1107,167.78,167.83375,65.0,89.0
1108,167.78,167.835,62.0,97.0
1109,167.78,167.8425,57.0,88.0
1110,167.48,167.9375,38.0,76.0
1111,167.93,168.02375,62.0,76.0
1112,167.93,168.025,57.0,66.0
1113,167.93,168.03,65.0,72.0
1114,168.38,168.4625,60.0,102.0
1115,168.38,168.4675,55.0,93.0
1116,168.38,168.4675,64.0,96.0
1117,168.08,168.47625,36.0,88.0
1118,168.98,169.065,55.0,90.0
1119,168.98,169.06625,60.0,97.0
1120,168.98,169.07125,64.0,86.0
1121,168.68,169.10750000000002,48.0,77.0
1122,169.58,169.64000000000001,55.0,78.0
1123,169.28,169.6425,36.0,69.0
1124,169.58,169.66375,64.0,88.0
1125,169.58,169.665,60.0,95.0
1126,170.18,170.22375,58.0,107.0
1127,170.18,170.22375,62.0,78.0
1128,170.18,170.23250000000002,55.0,85.0
1129,170.33,170.395,55.0,65.0
1130,170.33,170.41,62.0,76.0
1131,170.33,170.41125,58.0,86.0
1132,169.88,170.42875,43.0,86.0
1133,170.78,170.84,67.0,99.0
1134,170.78,170.85125,62.0,90.0
1135,170.78,170.85375,70.0,100.0
1136,170.48,170.88875000000002,50.0,86.0
1137,171.38,171.42375,67.0,89.0
1138,171.38,171.42875,70.0,90.0
1139,171.38,171.43375,62.0,76.0
1140,171.08,171.5875,43.0,70.0
1141,171.53,171.61125,67.0,89.0
1142,171.53,171.615,62.0,63.0
1143,171.53,171.62375,70.0,89.0
1144,171.53,171.75125,55.0,75.0
1145,171.68,172.0075,50.0,34.0
1146,171.98,172.0425,70.0,95.0
1147,171.98,172.05625,62.0,83.0
1148,171.98,172.05875,67.0,97.0
1149,172.58,172.63125,60.0,88.0
1150,172.58,172.63625,55.0,82.0
1151,172.58,172.63750000000002,64.0,78.0
1152,172.28,172.71125,36.0,88.0
1153,172.73,172.82750000000001,60.0,68.0
1154,172.73,172.83125,55.0,60.0
1155,172.73,172.83625,64.0,71.0
1156,173.18,173.25125,60.0,92.0
1157,173.18,173.26125,55.0,82.0
1158,173.18,173.26500000000001,64.0,83.0
1159,172.88,173.26875,48.0,88.0
1160,173.78,173.84625,65.0,90.0
1161,173.78,173.8475,69.0,82.0
1162,173.78,173.86,60.0,85.0
1163,173.48,173.875,41.0,90.0
1164,174.38,174.42625,65.0,75.0
1165,174.38,174.435,62.0,89.0
1166,174.38,174.45875,57.0,76.0
1167,174.08,174.47125,38.0,76.0
1168,174.53,174.6275,62.0,68.0
1169,174.53,174.62875,57.0,58.0
1170,174.53,174.63750000000002,65.0,64.0
1171,174.98,175.06,62.0,97.0
1172,174.98,175.06375,57.0,88.0
1173,174.98,175.07,65.0,88.0
1174,174.68,175.10125,50.0,67.0
1175,175.58,175.63375,62.0,93.0
1176,175.58,175.635,65.0,78.0
1177,175.58,175.6475,57.0,83.0
1178,175.28,175.7075,38.0,59.0
1179,175.73,175.79625000000001,57.0,51.0
1180,175.73,175.81125,62.0,76.0
1181,175.73,175.82125,65.0,72.0
1182,176.18,176.24625,62.0,100.0
1183,176.18,176.25125,65.0,89.0
1184,176.18,176.25875,57.0,83.0
1185,175.88,176.32500000000002,50.0,73.0
1186,176.78,176.83375,60.0,86.0
1187,176.78,176.83375,64.0,74.0
1188,176.78,176.85,55.0,74.0
1189,176.48,176.87125,36.0,69.0
1190,176.93,177.03125,60.0,78.0
1191,176.93,177.0325,55.0,69.0
1192,176.93,177.04625000000001,64.0,77.0
1193,177.38,177.4375,55.0,75.0
1194,177.38,177.45875,60.0,95.0
1195,177.38,177.46375,64.0,89.0
1196,177.08,177.47875,48.0,72.0
1197,177.68,178.01375000000002,41.0,81.0
1198,177.98,178.05625,60.0,92.0
1199,177.98,178.0575,65.0,99.0
1200,177.98,178.05875,69.0,92.0
1201,178.58,178.65,70.0,92.0
1202,178.58,178.655,67.0,93.0
1203,178.58,178.66125,62.0,79.0
1204,178.28,178.69875,43.0,77.0
1205,178.73,178.8475,62.0,63.0
1206,178.73,178.84875,67.0,69.0
1207,178.73,178.8525,70.0,66.0
1208,179.18,179.2675,67.0,88.0
1209,179.18,179.2725,62.0,78.0
1210,179.18,179.27875,70.0,85.0
1211,178.88,179.31,55.0,77.0
1212,179.78,179.83875,62.0,72.0
1213,179.78,179.84,67.0,90.0
1214,179.78,179.84,70.0,86.0
1215,179.48,179.9425,43.0,79.0
1216,179.93,180.0375,62.0,71.0
1217,179.93,180.04125,67.0,82.0
1218,179.93,180.0425,70.0,78.0
1219,180.38,180.46375,62.0,79.0
1220,180.38,180.465,67.0,92.0
1221,180.38,180.46875,70.0,86.0
1222,180.08,180.48875,55.0,79.0
1223,180.98,181.02125,64.0,71.0
1224,180.98,181.03125,60.0,82.0
1225,180.68,181.03375,36.0,72.0
1226,180.98,181.0625,55.0,77.0
1227,181.13,181.225,60.0,75.0
1228,181.13,181.2275,64.0,69.0
1229,181.13,181.23125000000002,55.0,56.0
1230,181.58,181.6525,60.0,89.0
1231,181.58,181.6625,55.0,86.0
1232,181.58,181.6725,64.0,78.0
1233,181.28,181.70000000000002,48.0,74.0
1234,181.88,182.15875,41.0,77.0
1235,182.18,182.24625,65.0,86.0
1236,182.18,182.25375,69.0,76.0
1237,182.18,182.25625,60.0,82.0
1238,182.78,182.81875,57.0,59.0
1239,182.78,182.83875,62.0,72.0
1240,182.78,182.83875,62.0,76.0
1241,182.78,182.84875,65.0,61.0
1242,182.78,182.84875,65.0,69.0
1243,182.48,182.89625,38.0,60.0
1244,182.93,183.0075,57.0,55.0
1245,183.38,183.45125000000002,62.0,89.0
1246,183.38,183.45875,65.0,79.0
1247,183.38,183.46875,57.0,81.0
1248,183.08,183.4775,50.0,83.0
1249,183.98,184.0325,62.0,81.0
1250,183.98,184.04125,57.0,75.0
1251,183.98,184.04500000000002,65.0,72.0
1252,183.68,184.09875,38.0,66.0
1253,184.13,184.22875,62.0,73.0
1254,184.13,184.22875,65.0,72.0
1255,184.13,184.23625,57.0,60.0
1256,184.58,184.63,62.0,90.0
1257,184.58,184.64000000000001,57.0,79.0
1258,184.58,184.64000000000001,65.0,82.0
1259,184.28,184.68875,50.0,65.0
1260,185.18,185.23875,64.0,61.0
1261,185.18,185.25125,60.0,68.0
1262,185.18,185.25125,67.0,55.0
1263,184.88,185.28625,36.0,74.0
1264,185.78,185.85375,64.0,76.0
1265,185.78,185.86375,67.0,70.0
1266,185.78,185.865,60.0,79.0
1267,185.48,185.87125,48.0,69.0
1268,186.38,186.44125,65.0,77.0
1269,186.38,186.45000000000002,69.0,72.0
1270,186.08,186.46375,41.0,58.0
1271,186.38,186.46375,60.0,77.0
1272,186.53,186.61125,65.0,66.0
1273,186.53,186.62,69.0,66.0
1274,186.53,186.62875,60.0,63.0
1275,186.98,187.03125,58.0,81.0
1276,186.98,187.0375,62.0,72.0
1277,186.98,187.04500000000002,55.0,66.0
1278,186.68,187.1025,43.0,82.0
1279,187.13,187.2075,55.0,62.0
1280,187.13,187.21,62.0,72.0
1281,187.13,187.21125,58.0,72.0
1282,187.58,187.6425,58.0,66.0
1283,187.28,187.65,50.0,48.0
1284,187.58,187.6525,55.0,63.0
1285,187.58,187.65875,62.0,67.0
1286,188.18,188.22125,58.0,72.0
1287,188.18,188.2225,55.0,51.0
1288,187.88,188.30875,43.0,53.0
1289,188.33,188.40625,55.0,57.0
1290,188.33,188.42625,58.0,74.0
1291,188.33,188.4275,62.0,73.0
1292,188.48,188.835,50.0,38.0
1293,188.78,188.84625,58.0,79.0
1294,188.78,188.8525,62.0,72.0
1295,188.78,188.855,55.0,65.0
1296,189.38,189.44125,64.0,66.0
1297,189.38,189.44875,55.0,56.0
1298,189.38,189.44875,55.0,56.0
1299,189.38,189.45250000000001,60.0,73.0
1300,189.08,189.49,36.0,66.0
1301,189.53,189.61625,60.0,67.0
1302,189.53,189.6175,64.0,67.0
1303,189.68,189.83125,48.0,67.0
