,start,end,pitch,velocity
0,4.037809675,4.518901462500001,79.0,78.0
1,4.542010675,4.8035649437500005,77.0,80.0
2,4.794111175,5.38654735,72.0,85.0
3,5.298312175,5.596631100000001,79.0,75.0
4,5.5504126750000005,5.7941098250000005,77.0,80.0
5,5.8025131750000005,6.13129424375,72.0,79.0
6,6.054613675000001,6.59662975,80.0,78.0
7,6.558814675000001,6.84137731875,77.0,80.0
8,6.810915175000001,7.417006793750001,72.0,79.0
9,7.315116175,7.61028384375,80.0,72.0
10,7.567216675,7.82351885,77.0,79.0
11,7.819317175,8.071417675000001,72.0,78.0
12,8.071417675000001,8.5525094625,79.0,78.0
13,8.575618675000001,8.83717294375,77.0,80.0
14,8.827719175,9.42015535,72.0,85.0
15,9.331920175,9.6302391,79.0,75.0
16,9.584020675,9.827717825,77.0,80.0
17,9.836121175,10.164902243750001,72.0,79.0
18,10.088221675,10.630237750000001,80.0,78.0
19,10.592422675,10.874985318750001,77.0,80.0
20,10.844523175,11.45061479375,72.0,79.0
21,11.348724175000001,11.643891843750001,80.0,72.0
22,11.600824675,12.105025675,77.0,79.0
23,12.105025675,12.6197308625,79.0,79.0
24,12.609226675,12.8550246625,77.0,78.0
25,12.861327175000001,13.3781332,73.0,80.0
26,13.365528175000001,13.66279668125,79.0,80.0
27,13.617628675,13.867628337500001,77.0,80.0
28,13.869729175,14.135485118750001,73.0,76.0
29,14.121829675,14.62918193125,80.0,79.0
30,14.626030675,14.88338326875,77.0,78.0
31,14.878131175,15.358172543750001,73.0,78.0
32,15.382332175,15.66069314375,80.0,77.0
33,15.634432675000001,15.89178526875,77.0,78.0
34,15.886533175,16.1491378625,73.0,78.0
35,16.138633675,16.65438928125,82.0,75.0
36,16.642834675,16.9516577875,77.0,79.0
37,16.894935175,17.40438826875,73.0,78.0
38,17.399136175000002,17.726866825000002,82.0,75.0
39,17.651236675,17.95060601875,77.0,78.0
40,17.903337175,18.1680427,73.0,78.0
41,18.155437675,18.6869495625,80.0,78.0
42,18.659638675,18.9642601125,77.0,75.0
43,18.911739175,19.46951153125,73.0,72.0
44,19.415940175,19.718460775,80.0,74.0
45,19.668040675,19.95060331875,77.0,69.0
46,19.920141175,20.172241675000002,73.0,78.0
47,20.1197207375,20.282535643750002,80.0,79.0
48,20.2835860625,20.413837987500003,77.0,80.0
49,20.420140500000002,20.50942609375,80.0,74.0
50,20.50312358125,20.611316712500003,77.0,78.0
51,20.61656880625,20.70060230625,80.0,75.0
52,20.691148537500002,20.805644181250003,77.0,78.0
53,20.78463580625,20.919089406250002,80.0,82.0
54,20.89177851875,22.130222225,77.0,80.0
55,22.19324735,24.21005135,79.0,82.0
56,24.180639625,25.7247551875,75.0,89.0
57,25.718452675,26.264670425000002,72.0,79.0
58,26.222653675,26.95899721875,70.0,78.0
59,26.978955175000003,28.22580223125,68.0,78.0
60,28.239457675,29.001011268750002,68.0,79.0
61,28.995759175,30.294076750000002,70.0,81.0
62,30.256261675,31.011512756250003,72.0,81.0
63,31.012563175,31.741553787500003,70.0,83.0
64,31.768864675000003,32.3339899625,68.0,79.0
65,32.273065675,32.560880412500005,70.0,80.0
66,32.525166175,36.09494022916667,72.0,82.0
67,62.541218674999996,64.247098725,77.0,70.0
68,62.541218674999996,64.27335919375,80.0,70.0
69,64.558022675,66.44352433125,79.0,71.0
70,68.087429675,68.58081228333333,75.0,82.0
71,68.59347050833333,70.09979928333333,72.0,78.0
72,70.11245750833332,70.6208962125,70.0,79.0
73,70.61878650833333,72.25527741666666,68.0,69.0
74,70.61878650833333,72.30359667916666,72.0,73.0
75,72.63762984166667,74.39392999166665,75.0,80.0
76,75.66283584166666,76.16073432916666,75.0,79.0
77,76.16703684166666,76.53993549791666,70.0,79.0
78,76.67123784166665,78.02102593541666,72.0,79.0
79,78.18384084166667,78.44434469166666,77.0,74.0
80,78.43594134166666,78.75841989791665,79.0,78.0
81,78.68804184166666,80.20484651666666,80.0,78.0
82,80.70484584166665,81.65652522916666,79.0,82.0
83,81.71324784166666,82.51996944166666,75.0,80.0
84,82.72164984166666,84.55568097916665,77.0,78.0
85,84.73845384166665,85.96429252291667,75.0,82.0
86,86.25105684166667,86.54307325416666,70.0,69.0
87,86.50315734166666,86.78046789166666,72.0,74.0
88,86.75525784166666,88.65336452291666,75.0,80.0
89,88.77206184166666,90.53571492291667,77.0,61.0
90,88.77206184166666,90.55147120416666,80.0,69.0
91,90.78886584166666,92.36239312916666,82.0,70.0
92,92.80566984166666,94.13865123541666,73.0,70.0
93,92.80566984166666,94.21848306041666,77.0,77.0
94,94.31827284166665,94.76154955416666,75.0,79.0
95,94.82247384166666,96.23318622291666,68.0,70.0
96,94.82247384166666,96.38549694166666,72.0,77.0
97,96.33507684166666,96.84663077291665,70.0,72.0
98,96.83927784166666,98.39074633541667,72.0,73.0
99,98.35188084166666,98.82246844166666,77.0,79.0
100,98.85608184166666,100.37708819166666,70.0,71.0
101,98.85608184166666,100.47162587916665,75.0,78.0
102,100.87288584166666,101.87918700416665,73.0,69.0
103,100.87288584166666,101.92015333541666,77.0,75.0
104,101.88128784166666,102.40649721666666,75.0,78.0
105,102.38548884166666,102.92645449791667,73.0,72.0
106,102.88968984166667,104.79514945416666,72.0,78.0
107,104.90649384166666,106.67014692291666,77.0,61.0
108,104.90649384166666,106.68590320416666,80.0,69.0
109,106.92329784166665,108.49682512916667,82.0,70.0
110,108.94010184166666,110.27308323541666,73.0,70.0
111,108.94010184166666,110.35291506041666,77.0,77.0
112,110.45270484166666,110.89598155416667,75.0,79.0
113,110.95690584166667,112.36761822291666,68.0,70.0
114,110.95690584166667,112.51992894166666,72.0,77.0
115,112.46950884166665,112.98106277291666,70.0,72.0
116,112.97370984166666,114.52517833541665,72.0,73.0
117,114.48631284166666,114.95690044166666,77.0,79.0
118,114.99051384166665,116.51152019166666,70.0,71.0
119,114.99051384166665,116.60605787916666,75.0,78.0
120,117.00731784166666,117.88861917291666,77.0,79.0
121,118.01571984166665,118.95689504166666,79.0,74.0
122,119.02412184166667,120.86445549166666,77.0,78.0
123,121.04092584166666,121.18168195416666,80.0,85.0
124,121.18063153541667,121.29302634166666,77.0,80.0
125,121.31298429791667,121.39281612291666,80.0,74.0
126,121.41172366041667,121.49680757916667,77.0,73.0
127,121.49260590416665,121.57558898541666,80.0,75.0
128,121.60710154791667,121.68693337291666,77.0,75.0
129,121.67012667291667,121.77831980416667,80.0,77.0
130,121.79302566666667,122.94113336041667,77.0,82.0
131,122.98315011041666,124.74785361041666,79.0,83.0
132,125.07453384166666,126.59133851666667,75.0,85.0
133,126.58713684166666,127.13755626666666,72.0,81.0
134,127.09133784166667,127.60709344791667,70.0,80.0
135,127.59553884166667,129.04826797291668,68.0,76.0
136,129.10814184166668,129.84973747916666,68.0,80.0
137,129.86444334166666,131.13650044791666,70.0,79.0
138,131.12494584166666,131.93691953541668,72.0,78.0
139,131.88124734166666,132.63754884166667,70.0,80.0
140,132.63754884166667,133.14174984166667,70.0,80.0
141,133.14174984166667,136.67115684166666,72.0,79.0
142,137.17535784166665,138.88123789166667,77.0,70.0
143,137.17535784166665,138.90749836041667,80.0,70.0
144,139.19216184166666,141.07766349791666,79.0,71.0
145,142.72156884166668,143.21316481666668,75.0,82.0
146,143.22576984166665,144.72576781666666,72.0,78.0
147,144.73837284166666,145.24467467916668,70.0,79.0
148,145.24257384166668,146.87702541666667,68.0,69.0
149,145.24257384166668,146.92534467916664,72.0,73.0
150,147.25937784166666,149.01567799166668,75.0,80.0
151,150.28458384166666,150.78248232916667,75.0,79.0
152,150.78878484166665,151.16168349791667,70.0,79.0
153,151.29298584166668,152.64277393541664,72.0,79.0
154,152.80558884166666,153.06609269166665,77.0,74.0
155,153.05768934166667,153.38016789791666,79.0,78.0
156,153.30978984166666,154.82659451666666,80.0,78.0
157,155.32659384166666,156.27827322916664,79.0,82.0
158,156.33499584166668,157.14171744166666,75.0,80.0
159,157.34339784166667,159.17742897916668,77.0,78.0
160,159.36020184166665,160.58604052291668,75.0,82.0
161,160.87280484166666,161.16482125416667,70.0,69.0
162,161.12490534166665,161.40221589166666,72.0,74.0
163,161.37700584166666,163.27511252291666,75.0,80.0
164,163.39380984166667,165.15746292291666,77.0,61.0
165,163.39380984166667,165.17321920416666,80.0,69.0
166,165.41061384166665,166.98414112916666,82.0,70.0
167,167.42741784166668,168.76039923541668,73.0,70.0
168,167.42741784166668,168.84023106041667,77.0,77.0
169,168.94002084166667,169.38329755416666,75.0,79.0
170,169.44422184166666,170.85493422291665,68.0,70.0
171,169.44422184166666,171.00724494166667,72.0,77.0
172,170.95682484166667,171.46837877291665,70.0,72.0
173,171.46102584166667,173.01249433541665,72.0,73.0
174,172.97362884166665,173.44421644166667,77.0,79.0
175,173.47782984166668,174.99883619166667,70.0,71.0
176,173.47782984166668,175.09337387916668,75.0,78.0
177,175.49463384166665,176.50093500416665,73.0,69.0
178,175.49463384166665,176.54190133541667,77.0,75.0
179,176.50303584166664,177.02824521666668,75.0,78.0
180,177.00723684166667,177.54820249791666,73.0,72.0
181,177.51143784166666,179.41689745416664,72.0,78.0
182,179.52824184166667,181.29189492291667,77.0,61.0
183,179.52824184166667,181.30765120416666,80.0,69.0
184,181.54504584166665,183.11857312916666,82.0,70.0
185,183.56184984166669,184.89483123541666,73.0,70.0
186,183.56184984166669,184.97466306041667,77.0,77.0
187,185.07445284166667,185.51772955416666,75.0,79.0
188,185.57865384166666,186.98936622291666,68.0,70.0
189,185.57865384166666,187.14167694166667,72.0,77.0
190,187.09125684166668,187.60281077291665,70.0,72.0
191,187.59545784166664,189.14692633541665,72.0,73.0
192,189.10806084166666,189.57864844166664,77.0,79.0
193,189.61226184166668,191.13326819166667,70.0,71.0
194,189.61226184166668,191.22780587916668,75.0,78.0
195,191.62906584166666,192.51036717291666,77.0,79.0
196,192.63746784166665,193.57864304166668,79.0,74.0
197,193.64586984166667,195.48620349166669,77.0,78.0
198,195.66267384166667,197.42632692291664,77.0,61.0
199,195.66267384166667,197.44208320416666,80.0,69.0
200,197.67947784166665,199.25300512916664,82.0,70.0
201,199.6962818416667,201.0292632354167,73.0,70.0
202,199.6962818416667,201.10909506041668,77.0,77.0
203,201.20888484166665,201.65216155416664,75.0,79.0
204,201.71308584166667,203.12379822291666,68.0,70.0
205,201.71308584166667,203.27610894166668,72.0,77.0
206,203.22568884166668,203.73724277291666,70.0,72.0
207,203.72988984166665,205.28135833541666,72.0,73.0
208,205.24249284166666,205.71308044166665,77.0,79.0
209,205.74669384166668,207.26770019166668,70.0,71.0
210,205.74669384166668,207.36223787916668,75.0,78.0
211,207.76349784166666,208.76979900416666,73.0,69.0
212,207.76349784166666,208.81076533541665,77.0,75.0
213,208.77189984166665,209.29710921666668,75.0,78.0
214,209.27610084166668,209.81706649791664,73.0,72.0
215,209.78030184166664,211.68576145416665,72.0,78.0
216,211.79710584166668,213.56075892291665,77.0,61.0
217,211.79710584166668,213.57651520416664,80.0,69.0
218,213.81390984166666,215.38743712916664,82.0,70.0
219,215.8307138416667,217.16369523541664,73.0,70.0
220,215.8307138416667,217.24352706041668,77.0,77.0
221,217.34331684166665,217.78659355416664,75.0,79.0
222,217.84751784166667,219.25823022291667,68.0,70.0
223,217.84751784166667,219.41054094166668,72.0,77.0
224,219.36012084166669,219.87167477291666,70.0,72.0
225,219.86432184166665,221.41579033541666,72.0,73.0
226,221.37692484166666,221.84751244166665,77.0,79.0
227,221.8811258416667,223.40213219166668,70.0,71.0
228,221.8811258416667,223.4966698791667,75.0,78.0
229,223.89792984166667,224.77923117291664,77.0,79.0
230,224.90633184166666,225.8475070416667,79.0,74.0
231,225.91473384166665,227.7550674916667,77.0,78.0
