,start,end,pitch,velocity
0,36.320678575,36.46413845833333,77.0,74.0
1,36.573843075,36.715193254166664,77.0,78.0
2,36.826967675,36.97297588125,77.0,77.0
3,37.079068174999996,37.2408326625,77.0,79.0
4,37.331168675,37.507639024999996,77.0,79.0
5,37.583269175,37.75028575625,72.0,78.0
6,37.835369675,38.01289044375,72.0,78.0
7,38.087470175,38.2450329875,77.0,79.0
8,38.339570675,38.4803267875,75.0,82.0
9,38.591671175,38.717721425,75.0,79.0
10,38.843771675,38.9908303,75.0,78.0
11,39.095872175,39.24818289375,75.0,80.0
12,39.347972675,39.4887287875,75.0,80.0
13,39.59482108125,39.73137551875,75.0,74.0
14,39.852173675,40.02759360625,72.0,73.0
15,40.104274175,40.31750918125,68.0,71.0
16,40.356374675,40.608475175,70.0,76.0
17,40.5811642875,40.608475175,70.0,70.0
18,40.84271855625,40.99923095,70.0,78.0
19,41.09271821875,41.25448270625,70.0,76.0
20,41.35952458125,41.50868404375,70.0,80.0
21,41.61792759375,42.037044675,70.0,80.0
22,42.129481525,42.29334685,68.0,74.0
23,42.35532155625,42.52338855625,70.0,79.0
24,42.59586745,42.7660352875,72.0,78.0
25,42.877379675,43.381580675,75.0,78.0
26,43.381580675,44.210361068750004,72.0,78.0
27,44.389982675,44.53178920625,77.0,73.0
28,44.642083174999996,44.793343475,77.0,78.0
29,44.894183675,45.0475448125,77.0,78.0
30,45.146284175,45.30279656875,77.0,78.0
31,45.398384675,45.608468425,77.0,79.0
32,45.650485175,45.817501756249996,72.0,80.0
33,45.902585675,46.105316493749996,72.0,78.0
34,46.154686175,46.347963225,77.0,78.0
35,46.406786675,46.583257025,75.0,79.0
36,46.658887175000004,47.07170174375,77.0,78.0
37,47.163088175,47.415188674999996,75.0,82.0
38,47.415188674999996,47.667289175,75.0,82.0
39,47.667289175,47.93304511875,72.0,79.0
40,47.919389675,48.2408178125,75.0,79.0
41,48.423590675,48.5769518125,70.0,75.0
42,48.675691175,48.829052312499996,70.0,73.0
43,48.927791675,49.06959820625,70.0,78.0
44,49.179892175,49.352160850000004,70.0,76.0
45,49.431992675000004,49.826950124999996,70.0,79.0
46,49.936193675,50.129470725000004,70.0,78.0
47,50.188294174999996,50.36056285,68.0,76.0
48,50.440394675,50.93304106875,70.0,78.0
49,50.944595675,51.37421694375,72.0,73.0
50,51.448796675,52.34270303125,72.0,77.0
51,52.457198675,52.688290800000004,65.0,81.0
52,52.709299175,52.865811568750004,72.0,79.0
53,52.961399674999996,53.102155787499996,72.0,78.0
54,53.213500175,53.37001256875,72.0,79.0
55,53.465600675000005,53.643121443750005,72.0,79.0
56,53.717701175,53.930936181250004,70.0,77.0
57,53.969801675,54.16833081875,65.0,80.0
58,54.221902175,54.4382884375,72.0,72.0
59,54.474002675,54.902573525,70.0,74.0
60,54.978203675,55.47295090625,72.0,76.0
61,55.482404675,56.00656363125,70.0,73.0
62,56.238706175000004,56.49185709375,72.0,79.0
63,56.490806675,56.88051203125,77.0,79.0
64,56.995007675,57.142066299999996,77.0,80.0
65,57.247108175,57.406771825,77.0,79.0
66,57.499208675000006,57.6819815375,77.0,79.0
67,57.751309175,57.90782156875,75.0,85.0
68,58.003409675,58.1819808625,72.0,82.0
69,58.255510175,58.448787225000004,77.0,80.0
70,58.507610675,58.91202189375,75.0,81.0
71,59.011811675000004,59.43092875625,72.0,78.0
72,59.516012675,61.7618079625,75.0,80.0
73,62.541218674999996,62.684075625000006,77.0,74.0
74,62.793319175,62.9340752875,77.0,78.0
75,63.045419675000005,63.19142788125,77.0,77.0
76,63.297520175,63.459284662499996,77.0,79.0
77,63.549620675,63.726091025,77.0,79.0
78,63.801721175,63.96873775625,72.0,78.0
79,64.053821675,64.23134244375001,72.0,78.0
80,64.305922175,64.4634849875,77.0,79.0
81,64.558022675,64.6987787875,75.0,82.0
82,64.810123175,65.062223675,75.0,79.0
83,65.314324175,65.46663489375,75.0,80.0
84,65.56642467500001,65.7071807875,75.0,80.0
85,65.81327308125,65.94982751875,75.0,74.0
86,66.070625675,66.24604560625,72.0,73.0
87,66.574826675,66.82692717500001,70.0,76.0
88,66.7996162875,66.82692717500001,70.0,70.0
89,67.06117055625,67.21768295,70.0,78.0
90,67.31117021875,67.47293470625,70.0,76.0
91,67.57797658125,68.08217758125,70.0,80.0
92,68.087429675,68.34030600833333,70.0,79.0
93,68.348744825,68.51330175,68.0,74.0
94,68.57553802291666,68.74431435624999,70.0,79.0
95,68.81709914999999,68.98798518749999,72.0,78.0
96,69.09979950833333,69.35296400833333,75.0,78.0
97,69.35296400833333,69.60612850833333,75.0,78.0
98,69.60612850833333,70.43840680208332,72.0,78.0
99,70.61878650833333,70.76119153958332,77.0,73.0
100,70.87195100833333,71.02384970833333,77.0,78.0
101,71.12502684166665,71.27838797916665,77.0,78.0
102,71.37712734166666,71.53363973541666,77.0,78.0
103,71.62922784166666,71.83931159166666,77.0,79.0
104,71.88132834166666,72.13342884166666,72.0,80.0
105,72.38552934166665,72.57880639166666,77.0,78.0
106,72.63762984166667,72.81410019166665,75.0,79.0
107,72.88973034166666,73.30254491041666,77.0,78.0
108,73.39393134166666,73.64603184166666,75.0,82.0
109,73.64603184166666,73.89813234166665,75.0,82.0
110,73.89813234166665,74.16388828541666,72.0,79.0
111,74.15023284166666,74.47166097916666,75.0,79.0
112,74.65443384166666,74.80779497916666,70.0,75.0
113,74.90653434166666,75.05989547916666,70.0,73.0
114,75.15863484166665,75.30044137291667,70.0,78.0
115,75.41073534166667,75.58300401666666,70.0,76.0
116,75.66283584166666,76.05779329166666,70.0,79.0
117,76.16703684166666,76.36031389166666,70.0,78.0
118,76.41913734166666,76.59140601666665,68.0,76.0
119,76.67123784166665,77.16388423541666,70.0,78.0
120,77.17543884166666,77.60506011041666,72.0,73.0
121,77.67963984166666,78.57354619791666,72.0,77.0
122,78.68804184166666,78.91913396666666,65.0,81.0
123,78.94014234166666,79.09665473541666,72.0,79.0
124,79.19224284166665,79.33299895416665,72.0,78.0
125,79.44434334166667,79.60085573541666,72.0,79.0
126,79.69644384166666,79.87396461041666,72.0,79.0
127,79.94854434166666,80.16177934791666,70.0,77.0
128,80.20064484166666,80.39917398541667,65.0,80.0
129,80.45274534166666,80.66913160416667,72.0,72.0
130,80.70484584166665,81.13341669166667,70.0,74.0
131,81.20904684166666,81.70379407291666,72.0,76.0
132,81.71324784166666,82.23740679791666,70.0,73.0
133,82.46954934166666,82.72270026041666,72.0,79.0
134,82.72164984166666,83.11135519791667,77.0,79.0
135,83.22585084166666,83.37290946666666,77.0,80.0
136,83.47795134166665,83.63761499166665,77.0,79.0
137,83.73005184166666,83.91282470416667,77.0,79.0
138,83.98215234166666,84.13866473541665,75.0,85.0
139,84.23425284166666,84.41282402916666,72.0,82.0
140,84.48635334166666,84.67963039166666,77.0,80.0
141,84.73845384166665,85.14286506041665,75.0,81.0
142,85.24265484166666,85.49475534166666,77.0,78.0
143,85.49475534166666,87.74055062916666,75.0,80.0
144,88.77206184166666,89.23214525416665,77.0,82.0
145,89.27626284166666,89.49895161666666,72.0,82.0
146,89.52836334166666,90.15651375416667,80.0,79.0
147,90.28466484166665,90.75630286041667,77.0,80.0
148,90.78886584166666,91.24264674166666,70.0,80.0
149,91.29306684166666,91.79726784166667,72.0,79.0
150,91.79726784166667,92.31092261041667,70.0,78.0
151,92.30146884166666,92.79831691041666,68.0,78.0
152,92.80566984166666,93.19117352291666,70.0,81.0
153,93.30987084166667,93.50839998541666,72.0,77.0
154,93.56197134166666,94.23318892291667,75.0,82.0
155,94.31827284166665,94.82982677291666,77.0,82.0
156,94.82247384166666,96.32772391041667,72.0,81.0
157,96.83927784166666,97.26469743541666,72.0,79.0
158,97.34347884166667,97.49683997916667,70.0,74.0
159,97.59557934166666,98.27730111041666,72.0,79.0
160,98.35188084166666,98.86763644791665,68.0,78.0
161,98.85608184166666,99.39494666041666,70.0,79.0
162,99.36028284166666,99.92225687291666,68.0,78.0
163,99.86448384166667,100.36133191041665,67.0,79.0
164,100.36868484166666,100.87288584166666,68.0,79.0
165,100.87288584166666,101.25733910416666,68.0,78.0
166,101.37708684166665,101.83717025416667,67.0,87.0
167,101.88128784166666,102.34032083541666,68.0,74.0
168,102.38548884166666,102.91279905416667,70.0,73.0
169,102.88968984166667,104.82876285416665,72.0,79.0
170,104.90649384166666,105.46846787291666,77.0,80.0
171,105.41069484166667,105.65544241041667,72.0,80.0
172,105.66279534166665,106.42224809791665,80.0,78.0
173,106.41909684166666,106.91069281666665,77.0,79.0
174,106.92329784166665,107.47266684791666,70.0,79.0
175,107.42749884166666,107.67959934166666,72.0,79.0
176,107.67959934166666,108.23001876666666,70.0,79.0
177,108.43590084166667,108.87497587916667,68.0,78.0
178,108.94010184166666,109.33085761666666,77.0,80.0
179,109.44430284166666,109.91909211666666,75.0,83.0
180,109.94850384166666,110.41383934791666,72.0,84.0
181,110.45270484166666,110.97056128541666,70.0,76.0
182,110.95690584166667,112.76992860416667,72.0,78.0
183,112.97370984166666,113.41593613541666,72.0,79.0
184,113.47791084166667,113.72580966666666,70.0,77.0
185,113.73001134166665,114.47055656041667,72.0,74.0
186,114.48631284166666,114.98421132916667,68.0,78.0
187,114.99051384166665,115.47160562916666,70.0,79.0
188,115.49471484166666,116.04093259166666,68.0,78.0
189,115.99891584166666,116.25101634166666,67.0,78.0
190,116.25101634166666,117.00731784166666,68.0,79.0
191,117.00731784166666,117.35395602916665,67.0,70.0
192,117.51151884166666,117.73630845416666,68.0,78.0
193,117.76361934166667,118.39807226666666,67.0,84.0
194,118.51992084166666,119.03147477291665,63.0,81.0
195,119.02412184166667,121.04092584166666,65.0,82.0
196,137.17535784166665,137.31821479166666,77.0,74.0
197,137.42745834166666,137.56821445416665,77.0,78.0
198,137.67955884166668,137.82556704791665,77.0,77.0
199,137.93165934166666,138.09342382916668,77.0,79.0
200,138.18375984166664,138.36023019166666,77.0,79.0
201,138.43586034166668,138.60287692291666,72.0,78.0
202,138.68796084166667,138.86548161041668,72.0,78.0
203,138.94006134166665,139.09762415416668,77.0,79.0
204,139.19216184166666,139.33291795416665,75.0,82.0
205,139.44426234166667,139.69636284166666,75.0,79.0
206,139.94846334166667,140.10077406041665,75.0,80.0
207,140.20056384166668,140.34131995416666,75.0,80.0
208,140.44741224791665,140.58396668541667,75.0,74.0
209,140.70476484166664,140.88018477291666,72.0,73.0
210,141.20896584166667,141.46106634166665,70.0,76.0
211,141.43375545416666,141.46106634166665,70.0,70.0
212,141.69530972291665,141.85182211666665,70.0,78.0
213,141.94530938541666,142.10707387291666,70.0,76.0
214,142.21211574791664,142.71631674791666,70.0,80.0
215,142.72156884166668,142.97366934166666,70.0,79.0
216,142.98207269166664,143.14593801666666,68.0,74.0
217,143.20791272291666,143.37597972291667,70.0,79.0
218,143.44845861666664,143.61862645416664,72.0,78.0
219,143.72997084166667,143.98207134166665,75.0,78.0
220,143.98207134166665,144.23417184166667,75.0,78.0
221,144.23417184166667,145.06295223541667,72.0,78.0
222,145.24257384166668,145.38438037291667,77.0,73.0
223,145.49467434166667,145.64593464166666,77.0,78.0
224,145.74677484166665,145.90013597916666,77.0,78.0
225,145.99887534166666,146.15538773541667,77.0,78.0
226,146.25097584166667,146.46105959166667,77.0,79.0
227,146.50307634166666,146.75517684166667,72.0,80.0
228,147.00727734166668,147.20055439166666,77.0,78.0
229,147.25937784166666,147.43584819166665,75.0,79.0
230,147.51147834166665,147.92429291041668,77.0,78.0
231,148.01567934166667,148.26777984166665,75.0,82.0
232,148.26777984166665,148.51988034166666,75.0,82.0
233,148.51988034166666,148.78563628541667,72.0,79.0
234,148.77198084166668,149.09340897916667,75.0,79.0
235,149.27618184166664,149.42954297916668,70.0,75.0
236,149.52828234166668,149.68164347916667,70.0,73.0
237,149.78038284166666,149.92218937291665,70.0,78.0
238,150.03248334166665,150.20475201666665,70.0,76.0
239,150.28458384166666,150.67954129166668,70.0,79.0
240,150.78878484166665,150.98206189166666,70.0,78.0
241,151.04088534166667,151.21315401666666,68.0,76.0
242,151.29298584166668,151.78563223541664,70.0,78.0
243,151.79718684166664,152.22680811041667,72.0,73.0
244,152.30138784166667,153.19529419791667,72.0,77.0
245,153.30978984166666,153.54088196666666,65.0,81.0
246,153.56189034166667,153.71840273541665,72.0,79.0
247,153.81399084166668,153.95474695416667,72.0,78.0
248,154.06609134166666,154.22260373541667,72.0,79.0
249,154.31819184166665,154.49571261041666,72.0,79.0
250,154.57029234166666,154.78352734791667,70.0,77.0
251,154.82239284166667,155.02092198541666,65.0,80.0
252,155.07449334166665,155.29087960416666,72.0,72.0
253,155.32659384166666,155.75516469166666,70.0,74.0
254,155.83079484166666,156.32554207291668,72.0,76.0
255,156.33499584166668,156.85915479791666,70.0,73.0
256,157.09129734166666,157.34444826041667,72.0,79.0
257,157.34339784166667,157.73310319791665,77.0,79.0
258,157.84759884166667,157.99465746666667,77.0,80.0
259,158.09969934166668,158.25936299166665,77.0,79.0
260,158.35179984166666,158.53457270416666,77.0,79.0
261,158.60390034166664,158.76041273541665,75.0,85.0
262,158.85600084166666,159.03457202916667,72.0,82.0
263,159.10810134166667,159.30137839166667,77.0,80.0
264,159.36020184166665,159.76461306041665,75.0,81.0
265,159.86440284166667,160.11650334166666,77.0,78.0
266,160.11650334166666,162.36229862916667,75.0,80.0
267,163.39380984166667,163.85389325416668,77.0,82.0
268,163.89801084166666,164.12069961666668,72.0,82.0
269,164.15011134166667,164.77826175416666,80.0,79.0
270,164.90641284166668,165.37805086041666,77.0,80.0
271,165.41061384166665,165.86439474166667,70.0,80.0
272,165.91481484166667,166.41901584166666,72.0,79.0
273,166.41901584166666,166.93267061041666,70.0,78.0
274,166.92321684166666,167.42006491041667,68.0,78.0
275,167.42741784166668,167.81292152291667,70.0,81.0
276,167.93161884166665,168.13014798541667,72.0,77.0
277,168.18371934166666,168.85493692291666,75.0,82.0
278,168.94002084166667,169.45157477291667,77.0,82.0
279,169.44422184166666,170.94947191041666,72.0,81.0
280,171.46102584166667,171.88644543541665,72.0,79.0
281,171.96522684166666,172.11858797916665,70.0,74.0
282,172.21732734166665,172.89904911041668,72.0,79.0
283,172.97362884166665,173.48938444791668,68.0,78.0
284,173.47782984166668,174.01669466041665,70.0,79.0
285,173.98203084166667,174.54400487291667,68.0,78.0
286,174.48623184166667,174.98307991041668,67.0,79.0
287,174.99043284166666,175.49463384166665,68.0,79.0
288,175.49463384166665,175.87908710416667,68.0,78.0
289,175.99883484166668,176.45891825416666,67.0,87.0
290,176.50303584166664,176.96206883541666,68.0,74.0
291,177.00723684166667,177.53454705416667,70.0,73.0
292,177.51143784166666,179.45051085416668,72.0,79.0
293,179.52824184166667,180.09021587291664,77.0,80.0
294,180.03244284166666,180.27719041041667,72.0,80.0
295,180.28454334166668,181.04399609791665,80.0,78.0
296,181.04084484166668,181.53244081666668,77.0,79.0
297,181.54504584166665,182.09441484791665,70.0,79.0
298,182.04924684166667,182.30134734166666,72.0,79.0
299,182.30134734166666,182.85176676666669,70.0,79.0
300,183.05764884166666,183.49672387916667,68.0,78.0
301,183.56184984166669,183.95260561666666,77.0,80.0
302,184.06605084166665,184.54084011666666,75.0,83.0
303,184.57025184166667,185.03558734791665,72.0,84.0
304,185.07445284166667,185.59230928541666,70.0,76.0
305,185.57865384166666,187.39167660416666,72.0,78.0
306,187.59545784166664,188.03768413541667,72.0,79.0
307,188.09965884166667,188.34755766666666,70.0,77.0
308,188.35175934166665,189.09230456041666,72.0,74.0
309,189.10806084166666,189.60595932916667,68.0,78.0
310,189.61226184166668,190.09335362916667,70.0,79.0
311,190.11646284166665,190.66268059166669,68.0,78.0
312,190.62066384166667,190.87276434166665,67.0,78.0
313,190.87276434166665,191.62906584166666,68.0,79.0
314,191.62906584166666,191.97570402916665,67.0,70.0
315,192.13326684166668,192.35805645416667,68.0,78.0
316,192.38536734166667,193.01982026666667,67.0,84.0
317,193.14166884166667,193.65322277291665,63.0,81.0
318,193.64586984166667,195.66267384166667,65.0,82.0
319,195.66267384166667,196.1227572541667,77.0,82.0
320,196.16687484166667,196.38956361666666,72.0,82.0
321,196.41897534166668,197.04712575416667,80.0,79.0
322,197.17527684166666,197.64691486041667,77.0,80.0
323,197.67947784166665,198.13325874166668,70.0,80.0
324,198.18367884166668,198.68787984166667,72.0,79.0
325,198.68787984166667,199.20153461041667,70.0,78.0
326,199.19208084166667,199.68892891041668,68.0,78.0
327,199.6962818416667,200.08178552291668,70.0,81.0
328,200.20048284166666,200.39901198541668,72.0,77.0
329,200.45258334166664,201.12380092291664,75.0,82.0
330,201.20888484166665,201.72043877291668,77.0,82.0
331,201.71308584166667,203.21833591041667,72.0,81.0
332,203.72988984166665,204.15530943541665,72.0,79.0
333,204.23409084166667,204.38745197916666,70.0,74.0
334,204.48619134166665,205.1679131104167,72.0,79.0
335,205.24249284166666,205.75824844791669,68.0,78.0
336,205.74669384166668,206.28555866041665,70.0,79.0
337,206.25089484166665,206.81286887291668,68.0,78.0
338,206.75509584166667,207.25194391041668,67.0,79.0
339,207.25929684166664,207.76349784166666,68.0,79.0
340,207.76349784166666,208.14795110416668,68.0,78.0
341,208.2676988416667,208.72778225416664,67.0,87.0
342,208.77189984166665,209.23093283541664,68.0,74.0
343,209.27610084166668,209.80341105416665,70.0,73.0
344,209.78030184166664,211.7193748541667,72.0,79.0
345,211.79710584166668,212.35907987291665,77.0,80.0
346,212.30130684166664,212.54605441041667,72.0,80.0
347,212.55340734166668,213.31286009791665,80.0,78.0
348,213.3097088416667,213.8013048166667,77.0,79.0
349,213.81390984166666,214.36327884791666,70.0,79.0
350,214.31811084166668,214.57021134166666,72.0,79.0
351,214.57021134166666,215.1206307666667,70.0,79.0
352,215.32651284166667,215.76558787916667,68.0,78.0
353,215.8307138416667,216.22146961666664,77.0,80.0
354,216.33491484166666,216.8097041166667,75.0,83.0
355,216.83911584166668,217.30445134791665,72.0,84.0
356,217.34331684166665,217.86117328541667,70.0,76.0
357,217.84751784166667,219.66054060416667,72.0,78.0
358,219.86432184166665,220.30654813541668,72.0,79.0
359,220.36852284166667,220.61642166666667,70.0,77.0
360,220.62062334166666,221.36116856041667,72.0,74.0
361,221.37692484166666,221.87482332916665,68.0,78.0
362,221.8811258416667,222.36221762916665,70.0,79.0
363,222.38532684166665,222.9315445916667,68.0,78.0
364,222.88952784166668,223.14162834166666,67.0,78.0
365,223.14162834166666,223.89792984166667,68.0,79.0
366,223.89792984166667,224.24456802916666,67.0,70.0
367,224.4021308416667,224.62692045416668,68.0,78.0
368,224.65423134166667,225.28868426666668,67.0,84.0
369,225.41053284166668,225.92208677291666,63.0,81.0
370,225.91473384166665,227.93153784166668,65.0,82.0
371,227.89477318541668,228.43678926041667,72.0,81.0
372,228.44309177291666,228.96094821666668,65.0,80.0
373,228.95779696041666,229.18678824791664,68.0,75.0
374,229.2119982979167,229.8138882416667,72.0,74.0
375,229.90737551041667,230.4735512166667,70.0,74.0
376,230.4367865604167,230.82439107916667,68.0,71.0
377,230.9399371416667,231.2939282604167,67.0,78.0
378,231.26766779166667,232.25401099791668,68.0,72.0
379,232.28867481666668,232.83279172916667,67.0,72.0
380,232.83699340416666,233.1668248916667,68.0,73.0
381,233.21829541041666,234.88636038541665,67.0,79.0
382,235.41051934166666,236.01556054166667,63.0,70.0
383,235.88635903541666,238.67311997916664,65.0,77.0
