,start,end,pitch,velocity
0,4.794111175,5.19852239375,53.0,74.0
1,4.542010675,5.46112708125,48.0,64.0
2,5.298312175,5.703773812500001,56.0,73.0
3,4.037809675,5.8046140125,41.0,79.0
4,5.8025131750000005,6.191168112500001,60.0,71.0
5,6.558814675000001,6.8235202,53.0,73.0
6,6.810915175000001,7.0525114875,56.0,72.0
7,6.306714175000001,7.643897243750001,48.0,55.0
8,6.054613675000001,7.8707876937500005,41.0,80.0
9,7.567216675,7.92330863125,53.0,69.0
10,7.315116175,7.9306615625,60.0,73.0
11,8.827719175,9.323516825,53.0,74.0
12,9.331920175,9.609230725,60.0,74.0
13,8.575618675000001,9.91070090625,48.0,55.0
14,8.071417675000001,9.913852162500001,41.0,80.0
15,9.836121175,10.31196086875,53.0,77.0
16,10.592422675,10.914901231250001,53.0,73.0
17,10.844523175,11.29305198125,60.0,75.0
18,10.340322175,11.45691730625,48.0,61.0
19,11.348724175000001,11.735278275,53.0,78.0
20,10.088221675,11.97162249375,41.0,79.0
21,11.852925175000001,12.0861181375,53.0,77.0
22,12.357126175000001,12.701663525,53.0,73.0
23,12.609226675,12.88548680625,58.0,67.0
24,12.861327175000001,13.16489819375,61.0,73.0
25,13.365528175000001,13.569309412500001,58.0,68.0
26,12.105025675,13.936955975,46.0,78.0
27,13.869729175,14.21531694375,53.0,71.0
28,14.373930175,14.68800538125,53.0,74.0
29,14.626030675,14.859223637500001,58.0,70.0
30,14.878131175,15.20166015,61.0,72.0
31,15.382332175,15.57140755,58.0,69.0
32,14.121829675,15.857121450000001,46.0,77.0
33,15.886533175,16.23422178125,53.0,72.0
34,16.642834675,16.909641037500002,58.0,70.0
35,16.390734175000002,17.16069111875,53.0,73.0
36,16.894935175,17.30564890625,61.0,78.0
37,17.399136175000002,17.64598458125,58.0,75.0
38,16.138633675,17.92959764375,46.0,79.0
39,17.651236675,17.970563975,53.0,78.0
40,17.903337175,18.37917686875,58.0,73.0
41,18.407538175,18.78043683125,53.0,72.0
42,18.659638675,18.94220131875,58.0,67.0
43,18.911739175,19.448503156250002,61.0,72.0
44,19.415940175,19.6953515625,58.0,75.0
45,18.155437675,19.743670825000002,46.0,82.0
46,19.668040675,19.75627585,53.0,74.0
47,20.172241675000002,20.758375337500002,61.0,72.0
48,20.676442675,21.01152625625,56.0,73.0
49,20.928543175,21.27833261875,61.0,79.0
50,20.424342175,21.6617354625,44.0,60.0
51,21.432744175,21.69429844375,61.0,79.0
52,20.172241675000002,21.7541723125,37.0,76.0
53,21.684844675,22.0104744875,56.0,72.0
54,21.936945175,22.1197180375,61.0,64.0
55,22.189045675000003,22.252070800000002,61.0,58.0
56,22.189045675000003,22.57875103125,63.0,56.0
57,22.693246675,22.953750525,58.0,48.0
58,22.945347175000002,23.404380168750002,63.0,77.0
59,23.449548175,23.7247578875,58.0,71.0
60,22.441146175,23.74471584375,46.0,64.0
61,22.189045675000003,23.7709763125,39.0,80.0
62,23.701648675,23.8760181875,63.0,78.0
63,24.205849675,24.79723543125,63.0,72.0
64,24.710050675,25.418032912500003,55.0,66.0
65,24.962151175000002,25.464251337500002,60.0,74.0
66,24.205849675,25.557738606250002,48.0,78.0
67,25.466352175,25.759419006250003,63.0,75.0
68,25.718452675,26.151225200000003,60.0,69.0
69,26.222653675,26.68168666875,65.0,73.0
70,26.726854675000002,26.8802158125,60.0,69.0
71,26.978955175000003,27.189038925000002,65.0,79.0
72,26.474754175,28.007315131250003,48.0,62.0
73,26.222653675,28.047231043750003,41.0,78.0
74,27.483156175,28.1281132875,60.0,74.0
75,28.239457675,28.684835225,65.0,75.0
76,28.743658675000002,29.0104650375,58.0,75.0
77,28.995759175,29.410674581250003,65.0,79.0
78,29.499960175000002,29.9138251625,61.0,74.0
79,28.239457675,30.11445514375,46.0,78.0
80,28.491558175,30.1176064,53.0,70.0
81,30.256261675,30.768866025,61.0,72.0
82,30.760462675000003,31.03252113125,58.0,72.0
83,31.012563175,31.5188650125,65.0,75.0
84,31.516764175000002,31.6953353625,61.0,78.0
85,30.256261675,31.758360487500003,46.0,78.0
86,30.508362175000002,31.77621760625,53.0,67.0
87,32.273065675,32.7289474125,65.0,79.0
88,32.777266675,32.9852495875,60.0,75.0
89,33.029540075,33.15928688125,67.0,79.0
90,32.525166175,33.638189727083336,55.0,61.0
91,32.273065675,34.09177612291667,48.0,78.0
92,33.789033575,34.107598904166665,55.0,63.0
93,34.042198075,34.523210625,60.0,76.0
94,34.548527075,35.9346027125,55.0,58.0
95,34.295362575,36.0358685125,48.0,82.0
96,34.801691575,36.17616383958333,60.0,59.0
97,36.826967675,37.5454541,53.0,74.0
98,37.079068174999996,37.60952964375,60.0,76.0
99,36.573843075,38.06331054375,48.0,67.0
100,36.320678575,38.0727643125,41.0,80.0
101,37.583269175,38.17465493125,65.0,80.0
102,37.835369675,38.2030162375,53.0,77.0
103,38.087470175,38.33011690625,60.0,71.0
104,38.843771675,39.49188004375,58.0,70.0
105,39.095872175,39.51919093125,67.0,79.0
106,39.600073175,39.818560274999996,63.0,79.0
107,38.591671175,40.146290925,46.0,72.0
108,38.339570675,40.19145893125,39.0,72.0
109,39.852173675,40.20931605,58.0,76.0
110,40.356374675,40.90154200625,63.0,78.0
111,40.860575675,41.0307435125,58.0,72.0
112,41.112676175,41.457213525,58.0,74.0
113,41.112676175,41.5979696375,67.0,78.0
114,40.608475175,41.7135157,46.0,58.0
115,40.356374675,41.71666695625,39.0,81.0
116,41.616877175,41.85742306875,63.0,82.0
117,41.868977675,42.13053194375,58.0,76.0
118,42.373178675,42.94985856875,63.0,74.0
119,42.877379675,43.15153896875,56.0,74.0
120,43.129480175,43.63683243125,60.0,81.0
121,42.625279175,43.8290590625,51.0,60.0
122,43.633681175,43.8836808375,56.0,75.0
123,42.373178675,43.92044549375,44.0,75.0
124,43.885781675,44.0013277375,63.0,78.0
125,44.389982675,44.92884749375,65.0,74.0
126,44.894183675,45.2093093,60.0,77.0
127,45.146284175,45.65363643125,68.0,78.0
128,44.642083174999996,45.734518675000004,48.0,67.0
129,44.389982675,45.8122496625,41.0,78.0
130,45.650485175,45.92884614375,65.0,79.0
131,45.902585675,46.0601484875,60.0,77.0
132,46.406786675,46.60531581875,67.0,70.0
133,46.406786675,46.78388700625,63.0,63.0
134,46.658887175000004,46.98241615,58.0,61.0
135,46.910987675,47.170441106249996,63.0,74.0
136,47.163088175,47.5181297125,67.0,80.0
137,47.667289175,47.90783506875,63.0,79.0
138,46.406786675,48.03178448125,51.0,75.0
139,47.919389675,48.1336751,58.0,76.0
140,48.423590675,48.6861953625,63.0,77.0
141,48.675691175,49.003421825000004,58.0,75.0
142,48.927791675,49.1021611875,63.0,74.0
143,49.179892175,49.650479775,67.0,83.0
144,48.423590675,49.870017293749996,51.0,79.0
145,49.684093175,49.953000375,63.0,77.0
146,49.936193675,50.0517397375,58.0,75.0
147,50.944595675,51.2786288375,60.0,81.0
148,50.692495175,51.339553125,55.0,51.0
149,51.196696175,51.751317275,67.0,79.0
150,51.700897175,52.06329164375,64.0,79.0
151,51.952997675,52.10951006875,55.0,66.0
152,50.440394675,52.1651822625,48.0,80.0
153,52.205098175,52.52547589375,60.0,80.0
154,52.457198675,52.978206375,65.0,79.0
155,52.961399674999996,53.29018074375,60.0,79.0
156,53.213500175,53.745012062499995,68.0,81.0
157,52.709299175,53.96034790625,48.0,64.0
158,53.717701175,53.989759631249996,65.0,79.0
159,52.457198675,54.010768006250004,41.0,80.0
160,53.969801675,54.14207035,60.0,81.0
161,54.474002675,54.776523275,63.0,71.0
162,54.726103175,55.04017838125,58.0,76.0
163,54.978203675,55.18723700625,63.0,73.0
164,55.230304175,55.692488425,67.0,79.0
165,54.474002675,55.846899981250004,51.0,79.0
166,55.734505174999995,55.97400065,63.0,80.0
167,55.986605675,56.10845425,58.0,79.0
168,56.490806675,56.64311739375,56.0,73.0
169,56.490806675,56.787024762499996,61.0,74.0
170,56.742907175,57.07588991875,56.0,74.0
171,56.995007675,57.1105537375,61.0,70.0
172,57.247108175,57.55698170625,56.0,78.0
173,57.247108175,57.639964787500006,65.0,79.0
174,57.751309175,57.888914031249996,56.0,76.0
175,57.751309175,58.323787393749996,61.0,75.0
176,56.490806675,58.354249537499996,49.0,79.0
177,58.255510175,58.381560425,56.0,69.0
178,58.507610675,58.7723162,63.0,74.0
179,58.759711175,59.07798805625,58.0,70.0
180,59.011811675000004,59.278618037499996,63.0,73.0
181,58.507610675,59.427777500000005,51.0,80.0
182,59.263912175,59.79017196875,67.0,80.0
183,59.768113174999996,60.0328187,63.0,82.0
184,59.94983561875,60.040171631250004,58.0,78.0
185,60.5181121625,62.372101256250005,67.0,72.0
186,60.364751025000004,62.37630293125,58.0,67.0
187,60.4424820125,62.381555025,63.0,76.0
188,60.42777615,62.41831968125,39.0,81.0
189,63.045419675000005,63.7639061,53.0,74.0
190,63.297520175,63.82798164375,60.0,76.0
191,62.793319175,64.28176254375,48.0,67.0
192,62.541218674999996,64.2912163125,41.0,80.0
193,63.801721175,64.39310693125,65.0,80.0
194,64.053821675,64.4214682375,53.0,77.0
195,64.305922175,64.54856890625,60.0,71.0
196,65.062223675,65.71033204375,58.0,70.0
197,65.314324175,65.73764293125001,67.0,79.0
198,65.818525175,66.037012275,63.0,79.0
199,64.810123175,66.364742925,46.0,72.0
200,64.558022675,66.40991093125,39.0,72.0
201,66.070625675,66.42776805,58.0,76.0
202,66.574826675,67.11999400625,63.0,78.0
203,67.079027675,67.2491955125,58.0,72.0
204,67.331128175,67.675665525,58.0,74.0
205,67.331128175,67.8164216375,67.0,78.0
206,66.82692717500001,67.9319677,46.0,58.0
207,66.574826675,67.93511895625,39.0,81.0
208,67.835329175,68.07587506875001,63.0,82.0
209,68.087429675,68.34979967708333,58.0,76.0
210,68.59347050833333,69.17258430208332,63.0,74.0
211,69.09979950833333,69.37511590208332,56.0,74.0
212,69.35296400833333,69.86245756458332,60.0,81.0
213,68.84663500833332,70.05549549583333,51.0,60.0
214,69.85929300833332,70.11034780416666,56.0,75.0
215,68.59347050833333,70.14726762708332,44.0,75.0
216,70.11245750833332,70.2284912375,63.0,78.0
217,70.61878650833333,71.15969066041666,65.0,74.0
218,71.12502684166665,71.44015246666666,60.0,77.0
219,71.37712734166666,71.88447959791665,68.0,78.0
220,70.87195100833333,71.96536184166666,48.0,67.0
221,70.61878650833333,72.04309282916665,41.0,78.0
222,71.88132834166666,72.15968931041665,65.0,79.0
223,72.13342884166666,72.29099165416666,60.0,77.0
224,72.63762984166667,72.83615898541666,67.0,70.0
225,72.63762984166667,73.01473017291666,63.0,63.0
226,72.88973034166666,73.21325931666667,58.0,61.0
227,73.14183084166666,73.40128427291666,63.0,74.0
228,73.39393134166666,73.74897287916666,67.0,80.0
229,73.89813234166665,74.13867823541666,63.0,79.0
230,72.63762984166667,74.26262764791666,51.0,75.0
231,74.15023284166666,74.36451826666666,58.0,76.0
232,74.65443384166666,74.91703852916666,63.0,77.0
233,74.90653434166666,75.23426499166666,58.0,75.0
234,75.15863484166665,75.33300435416666,63.0,74.0
235,75.41073534166667,75.88132294166665,67.0,83.0
236,74.65443384166666,76.10086046041665,51.0,79.0
237,75.91493634166666,76.18384354166666,63.0,77.0
238,76.16703684166666,76.28258290416666,58.0,75.0
239,77.17543884166666,77.50947200416665,60.0,81.0
240,76.92333834166666,77.57039629166665,55.0,51.0
241,77.42753934166666,77.98216044166666,67.0,79.0
242,77.93174034166665,78.29413481041667,64.0,79.0
243,78.18384084166667,78.34035323541666,55.0,66.0
244,76.67123784166665,78.39602542916666,48.0,80.0
245,78.43594134166666,78.75631906041666,60.0,80.0
246,78.68804184166666,79.20904954166666,65.0,79.0
247,79.19224284166665,79.52102391041666,60.0,79.0
248,79.44434334166667,79.97585522916665,68.0,81.0
249,78.94014234166666,80.19119107291667,48.0,64.0
250,79.94854434166666,80.22060279791665,65.0,79.0
251,78.68804184166666,80.24161117291666,41.0,80.0
252,80.20064484166666,80.37291351666666,60.0,81.0
253,80.70484584166665,81.00736644166666,63.0,71.0
254,80.95694634166667,81.27102154791666,58.0,76.0
255,81.20904684166666,81.41808017291666,63.0,73.0
256,81.46114734166666,81.92333159166665,67.0,79.0
257,80.70484584166665,82.07774314791666,51.0,79.0
258,81.96534834166665,82.20484381666665,63.0,80.0
259,82.21744884166665,82.33929741666665,58.0,79.0
260,82.72164984166666,82.87396056041666,56.0,73.0
261,82.72164984166666,83.01786792916666,61.0,74.0
262,82.97375034166666,83.30673308541665,56.0,74.0
263,83.22585084166666,83.34139690416666,61.0,70.0
264,83.47795134166665,83.78782487291666,56.0,78.0
265,83.47795134166665,83.87080795416666,65.0,79.0
266,83.98215234166666,84.11975719791666,56.0,76.0
267,83.98215234166666,84.55463056041665,61.0,75.0
268,82.72164984166666,84.58509270416666,49.0,79.0
269,84.48635334166666,84.61240359166666,56.0,69.0
270,84.73845384166665,85.00315936666667,63.0,74.0
271,84.99055434166667,85.30883122291667,58.0,70.0
272,85.24265484166666,85.50946120416666,63.0,73.0
273,85.49475534166666,86.02101513541666,67.0,80.0
274,85.99895634166666,86.26366186666667,63.0,82.0
275,86.24685516666666,86.49895566666666,58.0,78.0
276,84.73845384166665,86.50315734166666,51.0,80.0
277,86.74895532916666,88.60294442291666,67.0,72.0
278,86.59559419166666,88.60714609791665,58.0,67.0
279,86.67332517916665,88.61239819166666,63.0,76.0
280,86.65861931666666,88.64916284791666,39.0,81.0
281,88.77206184166666,89.03466652916666,60.0,74.0
282,88.77206184166666,89.24054860416666,65.0,78.0
283,89.52416166666666,89.58718679166665,65.0,80.0
284,89.52416166666666,89.63445563541666,60.0,80.0
285,89.77626216666665,89.83928729166666,65.0,75.0
286,89.77626216666665,89.83928729166666,68.0,75.0
287,89.77626216666665,89.86554776041666,60.0,75.0
288,90.02836266666665,90.20273217916666,60.0,79.0
289,90.02836266666665,90.22163971666666,65.0,82.0
290,88.76786016666667,90.41386634791667,53.0,83.0
291,90.53256366666666,90.78466416666666,53.0,97.0
292,91.03676466666666,91.33928526666666,58.0,73.0
293,91.29306684166666,91.33928526666666,58.0,64.0
294,91.03676466666666,91.37394908541665,65.0,79.0
295,91.54096566666666,91.69852847916667,62.0,79.0
296,91.54516734166666,91.71428476041666,58.0,75.0
297,91.79306616666666,92.00314991666666,58.0,73.0
298,91.79306616666666,92.09138509166667,65.0,79.0
299,91.04096634166666,92.12079681666665,53.0,65.0
300,90.78886584166666,92.40335946041665,46.0,79.0
301,92.29726716666666,92.54936766666665,53.0,75.0
302,92.54936766666665,92.80146816666667,58.0,65.0
303,92.80146816666667,92.92751841666666,65.0,85.0
304,92.80146816666667,93.05671992291666,56.0,82.0
305,92.80146816666667,93.27520702291666,61.0,82.0
306,93.30566916666666,93.39810601666666,56.0,65.0
307,93.55776966666666,93.72583666666665,56.0,78.0
308,93.55776966666666,93.79201304791667,61.0,78.0
309,93.80987016666666,93.93592041666666,56.0,76.0
310,93.80987016666666,93.93592041666666,61.0,76.0
311,93.80987016666666,93.93592041666666,65.0,76.0
312,94.06197066666667,94.17646631041666,56.0,76.0
313,94.06197066666667,94.31407116666666,61.0,76.0
314,94.31407116666666,94.44012141666666,61.0,76.0
315,94.31407116666666,94.48739026041666,56.0,76.0
316,94.56617166666666,94.67436479791667,61.0,70.0
317,94.56617166666666,94.69222191666665,65.0,72.0
318,92.80146816666667,94.70062526666666,49.0,82.0
319,94.81827216666666,95.25944804166666,56.0,74.0
320,94.81827216666666,95.26364971666666,60.0,77.0
321,95.57877534166666,95.69011972916667,56.0,73.0
322,95.32247316666667,95.88969929166666,51.0,53.0
323,95.83087584166665,96.05146377916665,56.0,78.0
324,95.83087584166665,96.05881671041666,60.0,80.0
325,95.83087584166665,96.05881671041666,63.0,79.0
326,94.81827216666666,96.28150548541666,44.0,76.0
327,96.07877466666666,96.29200967291666,51.0,75.0
328,96.33087516666666,96.42961452916666,56.0,78.0
329,96.58297566666666,96.70902591666666,51.0,75.0
330,96.58297566666666,96.70902591666666,56.0,75.0
331,96.83927784166666,97.05251284791666,60.0,80.0
332,96.83507616666665,97.21322691666666,68.0,80.0
333,96.83927784166666,97.30566376666667,65.0,80.0
334,97.59557934166666,97.71112540416667,60.0,80.0
335,97.59137766666666,97.73948671041666,65.0,72.0
336,97.84347816666666,97.95902422916666,60.0,80.0
337,97.84347816666666,97.99158721041667,68.0,72.0
338,98.09978034166666,98.21427598541666,60.0,80.0
339,98.09978034166666,98.31196492916666,65.0,84.0
340,98.35188084166666,98.47267899791666,60.0,75.0
341,98.60398134166667,98.67856107291666,65.0,73.0
342,96.83927784166666,98.71427531041667,53.0,80.0
343,98.59977966666666,98.72582991666667,68.0,76.0
344,98.85188016666666,99.09452689791667,58.0,71.0
345,98.85188016666666,99.10398066666666,63.0,75.0
346,99.10398066666666,99.23003091666666,58.0,69.0
347,99.10398066666666,99.23003091666666,67.0,69.0
348,99.60818166666667,99.73423191666666,63.0,97.0
349,99.61238334166666,99.76469406041666,58.0,78.0
350,99.86028216666666,99.93276106041665,58.0,65.0
351,99.86028216666666,100.03990377291666,67.0,75.0
352,100.11658434166665,100.21847496041666,58.0,78.0
353,100.11658434166665,100.29830678541666,63.0,79.0
354,100.36868484166666,100.45376876041666,58.0,76.0
355,98.85188016666666,100.61658366666666,51.0,79.0
356,100.61658366666666,100.74263391666666,51.0,70.0
357,100.87288584166666,101.05250744791667,56.0,77.0
358,100.87288584166666,101.38443977291666,61.0,77.0
359,101.62918734166666,101.79830476041666,56.0,79.0
360,101.62498566666666,101.87708616666666,61.0,80.0
361,101.87708616666666,101.96532134166665,56.0,69.0
362,101.87708616666666,102.09557326666666,65.0,80.0
363,102.13338834166666,102.23002686666666,56.0,79.0
364,102.13338834166666,102.40649721666666,61.0,79.0
365,102.38548884166666,102.49053071666665,56.0,76.0
366,102.63338766666666,102.75943791666666,56.0,77.0
367,100.87288584166666,102.76363959166666,49.0,78.0
368,102.88968984166667,103.02624427916666,60.0,77.0
369,102.88968984166667,103.14179034166666,64.0,77.0
370,103.13758866666666,103.26363891666665,60.0,77.0
371,103.13758866666666,103.26363891666665,67.0,77.0
372,103.39389084166666,103.47792434166666,60.0,67.0
373,102.88968984166667,103.71216772291666,48.0,77.0
374,103.64178966666665,103.89389016666667,64.0,78.0
375,103.64599134166666,103.89809184166666,60.0,80.0
376,103.89389016666667,103.89809184166666,60.0,77.0
377,103.89389016666667,104.01994041666666,64.0,77.0
378,103.89809184166666,104.26678882291665,55.0,77.0
379,103.89389016666667,104.39809116666666,48.0,77.0
380,104.15019234166667,104.41699870416666,60.0,77.0
381,104.15019234166667,104.52834309166667,64.0,77.0
382,104.15019234166667,104.52834309166667,67.0,77.0
383,104.40229284166665,104.77939317291666,52.0,77.0
384,104.65439334166666,104.89598965416667,60.0,77.0
385,104.65019166666666,104.90229216666665,67.0,77.0
386,104.90649384166666,105.16909852916666,60.0,73.0
387,104.90649384166666,105.37498060416667,65.0,73.0
388,105.66279534166665,105.77308931041665,60.0,78.0
389,105.65859366666666,105.78044224166666,65.0,74.0
390,105.91069416666666,105.99997976041666,60.0,68.0
391,105.91069416666666,106.03674441666666,68.0,97.0
392,106.16699634166666,106.34136585416667,60.0,79.0
393,106.16699634166666,106.36027339166665,65.0,82.0
394,104.90649384166666,106.55250002291666,53.0,73.0
395,106.67119734166667,106.77623921666665,60.0,72.0
396,106.66699566666665,106.79304591666667,53.0,97.0
397,106.91909616666666,107.17119666666666,62.0,82.0
398,106.92329784166665,107.17539834166666,58.0,72.0
399,107.17119666666666,107.17539834166666,58.0,70.0
400,107.42749884166666,107.50628024791666,58.0,64.0
401,107.17119666666666,107.50838108541666,65.0,70.0
402,107.67539766666667,107.83296047916666,62.0,79.0
403,107.67959934166666,107.84871676041666,58.0,75.0
404,107.92749816666665,108.13758191666666,58.0,73.0
405,107.92749816666665,108.22581709166667,65.0,79.0
406,107.17539834166666,108.25522881666666,53.0,72.0
407,106.92329784166665,108.53779146041666,46.0,72.0
408,108.43590084166667,108.55039648541666,53.0,73.0
409,108.43169916666666,108.55774941666667,58.0,70.0
410,108.43169916666666,108.55774941666667,62.0,70.0
411,108.68800134166666,108.76153065416666,58.0,62.0
412,108.68379966666666,108.80984991666666,46.0,63.0
413,108.93590016666667,109.18800066666665,65.0,76.0
414,108.94010184166666,109.19535359791666,56.0,76.0
415,108.94010184166666,109.41384069791667,61.0,76.0
416,109.69640334166667,109.86447034166666,56.0,78.0
417,109.69220166666666,109.92644504791666,61.0,78.0
418,109.94430216666666,110.03673901666666,56.0,62.0
419,109.94430216666666,110.07035241666665,65.0,97.0
420,110.20060434166666,110.31509998541665,56.0,74.0
421,110.20060434166666,110.50417536041667,61.0,75.0
422,110.45270484166666,110.62602393541667,56.0,69.0
423,108.94010184166666,110.70480534166666,49.0,76.0
424,110.70060366666667,110.70480534166666,49.0,79.0
425,110.70480534166666,110.81299847291666,61.0,80.0
426,110.95690584166667,111.20900634166665,56.0,76.0
427,111.20480466666666,111.20900634166665,56.0,97.0
428,110.95690584166667,111.20900634166665,60.0,76.0
429,111.20480466666666,111.45690516666666,63.0,77.0
430,111.71320734166666,111.82455172916667,56.0,73.0
431,111.70900566666666,111.83505591666666,60.0,97.0
432,111.46110684166666,112.02833296666665,51.0,53.0
433,111.96530784166666,112.18589577916666,56.0,78.0
434,111.96530784166666,112.19324871041667,60.0,80.0
435,111.96530784166666,112.19324871041667,63.0,79.0
436,112.21740834166667,112.43064334791666,51.0,75.0
437,112.46950884166665,112.56824820416666,56.0,78.0
438,110.95690584166667,112.59555909166666,44.0,76.0
439,112.71740766666666,112.96950816666666,44.0,73.0
440,112.97370984166666,113.18694484791666,60.0,78.0
441,112.97370984166666,113.44009576666666,65.0,78.0
442,113.73001134166665,113.84555740416667,60.0,80.0
443,113.72580966666666,113.87391871041666,65.0,72.0
444,113.97791016666666,114.11131334791666,60.0,65.0
445,113.97791016666666,114.23001066666666,68.0,97.0
446,114.23421234166666,114.34870798541667,60.0,80.0
447,114.23421234166666,114.44639692916667,65.0,84.0
448,114.48631284166666,114.60711099791666,60.0,75.0
449,112.97370984166666,114.73841334166667,53.0,79.0
450,114.73421166666665,114.73841334166667,53.0,67.0
451,114.73841334166667,114.81299307291667,65.0,66.0
452,114.73421166666665,114.86026191666666,60.0,97.0
453,114.99051384166665,115.23316057291666,58.0,71.0
454,114.99051384166665,115.24261434166667,63.0,75.0
455,115.23841266666666,115.36446291666667,58.0,97.0
456,115.23841266666666,115.49051316666666,67.0,97.0
457,115.49051316666666,115.56299206041666,58.0,65.0
458,115.99471416666665,116.14702488541667,58.0,78.0
459,115.99471416666665,116.17433577291666,67.0,75.0
460,114.99051384166665,116.54513359166666,51.0,79.0
461,116.49891516666666,116.60080578541667,58.0,78.0
462,116.49891516666666,116.68063761041665,63.0,79.0
463,116.75101566666666,116.83609958541666,58.0,76.0
464,117.01151951666665,117.28883006666666,56.0,74.0
465,117.03462872916666,117.51992219166667,61.0,76.0
466,117.00731784166666,117.61761113541667,49.0,82.0
467,117.51151884166666,117.83294697916666,56.0,79.0
468,117.76361934166667,117.98315686041667,61.0,79.0
469,118.03252654166667,118.29408081041666,58.0,62.0
470,118.05038366041666,118.56088717291667,63.0,70.0
471,118.26782034166666,118.70374412291666,46.0,62.0
472,118.01571984166665,118.74576087291666,39.0,62.0
473,118.51992084166666,118.88021447291666,58.0,76.0
474,118.77202134166666,118.94954211041666,63.0,76.0
475,119.03882770416666,119.28567611041666,60.0,73.0
476,119.02517226041667,119.38126421666666,48.0,73.0
477,119.05773524166666,119.51571781666667,65.0,75.0
478,119.78042334166666,120.05563305416666,68.0,73.0
479,119.78042334166666,120.10605315416666,60.0,72.0
480,120.28462434166667,120.44323757291666,60.0,74.0
481,119.02412184166667,121.01466537291665,41.0,72.0
482,119.52832284166666,121.02201830416666,48.0,57.0
483,120.53672484166665,121.04722835416666,60.0,73.0
484,120.28462434166667,121.06823672916667,65.0,78.0
485,121.04092584166666,121.37285816666666,56.0,79.0
486,121.04092584166666,121.64386620416667,61.0,79.0
487,121.54512684166666,121.82663906666666,56.0,74.0
488,121.04092584166666,122.15647055416666,49.0,84.0
489,122.04932784166667,122.17747892916665,56.0,79.0
490,122.04932784166667,122.21004191041666,61.0,83.0
491,122.04932784166667,122.22789902916666,65.0,80.0
492,122.30142834166666,122.40121812291666,49.0,78.0
493,122.55352884166666,122.72579751666666,56.0,77.0
494,122.80562934166666,122.97369634166665,61.0,74.0
495,123.05772984166666,123.27201526666667,58.0,69.0
496,123.05772984166666,123.27621694166666,63.0,74.0
497,123.30562866666666,123.37390588541666,58.0,72.0
498,123.30562866666666,123.45163687291665,67.0,72.0
499,123.55772916666666,123.63651057291666,58.0,69.0
500,123.05772984166666,123.91592196041665,51.0,74.0
501,124.06193016666666,124.18798041666666,58.0,73.0
502,124.06193016666666,124.24155177291667,67.0,73.0
503,124.06613184166666,124.34029113541666,51.0,66.0
504,124.56613116666666,124.68797974166665,58.0,74.0
505,124.56613116666666,124.92327354166666,63.0,78.0
506,124.81823166666666,124.97474406041667,58.0,68.0
507,125.07453384166666,125.34239062291667,60.0,73.0
508,125.07453384166666,125.40646616666666,63.0,75.0
509,125.57873484166666,125.65646582916666,60.0,71.0
510,125.07453384166666,125.91802009791667,48.0,80.0
511,125.83083534166667,125.92957470416667,63.0,64.0
512,125.83083534166667,125.93797805416666,60.0,65.0
513,126.08293584166665,126.40646481666667,67.0,84.0
514,126.08293584166665,126.40751523541667,60.0,80.0
515,126.08293584166665,126.42957402916666,63.0,80.0
516,126.33503634166667,126.53881757916666,55.0,65.0
517,126.58713684166666,126.70163248541667,60.0,73.0
518,126.83923734166666,126.97999345416666,60.0,77.0
519,126.83923734166666,127.01255643541666,63.0,76.0
520,127.09133784166667,127.28356447291665,60.0,74.0
521,127.09133784166667,127.34343834166665,65.0,76.0
522,127.33923666666666,127.46528691666666,60.0,97.0
523,127.33923666666666,127.46528691666666,68.0,97.0
524,127.59553884166667,127.67011857291666,60.0,69.0
525,128.09553816666667,128.22789092916668,60.0,79.0
526,128.09553816666667,128.27305893541666,68.0,78.0
527,127.34343834166665,128.43902509791667,48.0,62.0
528,127.09133784166667,128.47578975416667,41.0,80.0
529,128.59973916666667,128.70057936666666,60.0,79.0
530,128.59973916666667,128.79406663541667,65.0,80.0
531,128.85183966666665,128.95162944791667,60.0,74.0
532,129.10814184166668,129.36969611041667,58.0,70.0
533,129.10814184166668,129.45162877291665,61.0,73.0
534,129.61234284166665,129.72683848541666,58.0,48.0
535,129.36024234166666,130.19112357291667,53.0,64.0
536,130.11654384166667,130.27830832916666,58.0,76.0
537,130.11654384166667,130.28145958541666,61.0,80.0
538,130.11654384166667,130.28566126041665,65.0,80.0
539,130.62074484166666,130.69952624791665,58.0,68.0
540,129.10814184166668,130.90855957916665,46.0,79.0
541,130.36864434166665,130.90855957916665,53.0,72.0
542,130.87284534166668,131.25099609166665,61.0,82.0
543,130.87284534166668,131.37704634166667,58.0,79.0
544,131.37284466666665,131.37704634166667,58.0,70.0
545,131.37284466666665,131.49889491666667,61.0,97.0
546,131.12494584166666,131.62914684166665,46.0,78.0
547,131.62494516666666,131.62914684166665,46.0,97.0
548,131.62914684166665,131.72893662291665,58.0,71.0
549,131.37704634166667,132.05771769166665,53.0,70.0
550,132.13334784166665,132.47893561041667,53.0,75.0
551,132.12914616666666,132.53985989791667,58.0,78.0
552,132.12914616666666,132.56401952916667,61.0,79.0
553,132.63334716666665,132.82977547291665,58.0,70.0
554,132.63334716666665,132.85918719791667,61.0,70.0
555,132.63334716666665,132.88544766666666,53.0,70.0
556,132.88544766666666,133.13754816666665,46.0,59.0
557,133.14174984166667,133.68796759166668,60.0,79.0
558,133.14174984166667,133.71107680416665,65.0,80.0
559,133.89805134166667,134.00204279791666,60.0,77.0
560,133.64595084166666,134.21212654791665,55.0,64.0
561,134.39805066666668,134.65120158541666,60.0,84.0
562,134.39805066666668,134.66275619166666,65.0,89.0
563,134.40225234166667,134.93061297291666,55.0,70.0
564,133.14174984166667,134.94426841666666,48.0,79.0
565,134.65435284166665,134.95372218541667,60.0,77.0
566,134.90645334166666,135.02830191666666,65.0,74.0
567,135.15855384166667,136.36023289166667,60.0,78.0
568,135.15855384166667,136.36338414791666,64.0,76.0
569,135.15855384166667,136.36863624166665,48.0,79.0
570,137.67955884166668,138.39804526666666,53.0,74.0
571,137.93165934166666,138.46212081041665,60.0,76.0
572,137.42745834166666,138.91590171041668,48.0,67.0
573,137.17535784166665,138.92535547916668,41.0,80.0
574,138.43586034166668,139.02724609791665,65.0,80.0
575,138.68796084166667,139.05560740416666,53.0,77.0
576,138.94006134166665,139.18270807291668,60.0,71.0
577,139.69636284166666,140.34447121041666,58.0,70.0
578,139.94846334166667,140.37178209791665,67.0,79.0
579,140.45266434166666,140.67115144166667,63.0,79.0
580,139.44426234166667,140.99888209166664,46.0,72.0
581,139.19216184166666,141.04405009791668,39.0,72.0
582,140.70476484166664,141.06190721666667,58.0,76.0
583,141.20896584166667,141.75413317291668,63.0,78.0
584,141.71316684166666,141.88333467916667,58.0,72.0
585,141.96526734166667,142.30980469166667,58.0,74.0
586,141.96526734166667,142.45056080416666,67.0,78.0
587,141.46106634166665,142.56610686666664,46.0,58.0
588,141.20896584166667,142.56925812291666,39.0,81.0
589,142.46946834166667,142.71001423541668,63.0,82.0
590,142.72156884166668,142.98312311041667,58.0,76.0
591,143.22576984166665,143.80244973541664,63.0,74.0
592,143.72997084166667,144.00413013541666,56.0,74.0
593,143.98207134166665,144.48942359791667,60.0,81.0
594,143.47787034166666,144.68165022916668,51.0,60.0
595,144.48627234166668,144.73627200416666,56.0,75.0
596,143.22576984166665,144.77303666041666,44.0,75.0
597,144.73837284166666,144.85391890416668,63.0,78.0
598,145.24257384166668,145.78143866041665,65.0,74.0
599,145.74677484166665,146.06190046666666,60.0,77.0
600,145.99887534166666,146.50622759791668,68.0,78.0
601,145.49467434166667,146.58710984166666,48.0,67.0
602,145.24257384166668,146.66484082916668,41.0,78.0
603,146.50307634166666,146.78143731041666,65.0,79.0
604,146.75517684166667,146.91273965416667,60.0,77.0
605,147.25937784166666,147.45790698541666,67.0,70.0
606,147.25937784166666,147.63647817291667,63.0,63.0
607,147.51147834166665,147.83500731666666,58.0,61.0
608,147.76357884166666,148.02303227291668,63.0,74.0
609,148.01567934166667,148.37072087916667,67.0,80.0
610,148.51988034166666,148.76042623541667,63.0,79.0
611,147.25937784166666,148.88437564791667,51.0,75.0
612,148.77198084166668,148.98626626666666,58.0,76.0
613,149.27618184166664,149.53878652916666,63.0,77.0
614,149.52828234166668,149.85601299166666,58.0,75.0
615,149.78038284166666,149.95475235416666,63.0,74.0
616,150.03248334166665,150.50307094166666,67.0,83.0
617,149.27618184166664,150.72260846041667,51.0,79.0
618,150.53668434166667,150.80559154166667,63.0,77.0
619,150.78878484166665,150.90433090416667,58.0,75.0
620,151.79718684166664,152.13122000416666,60.0,81.0
621,151.54508634166666,152.19214429166666,55.0,51.0
622,152.04928734166668,152.60390844166665,67.0,79.0
623,152.55348834166665,152.91588281041666,64.0,79.0
624,152.80558884166666,152.96210123541667,55.0,66.0
625,151.29298584166668,153.01777342916665,48.0,80.0
626,153.05768934166667,153.37806706041667,60.0,80.0
627,153.30978984166666,153.83079754166667,65.0,79.0
628,153.81399084166668,154.14277191041668,60.0,79.0
629,154.06609134166666,154.59760322916668,68.0,81.0
630,153.56189034166667,154.81293907291666,48.0,64.0
631,154.57029234166666,154.84235079791665,65.0,79.0
632,153.30978984166666,154.86335917291666,41.0,80.0
633,154.82239284166667,154.99466151666667,60.0,81.0
634,155.32659384166666,155.62911444166667,63.0,71.0
635,155.57869434166668,155.89276954791666,58.0,76.0
636,155.83079484166666,156.03982817291666,63.0,73.0
637,156.08289534166664,156.54507959166665,67.0,79.0
638,155.32659384166666,156.69949114791666,51.0,79.0
639,156.58709634166667,156.82659181666668,63.0,80.0
640,156.83919684166665,156.96104541666665,58.0,79.0
641,157.34339784166667,157.49570856041666,56.0,73.0
642,157.34339784166667,157.63961592916667,61.0,74.0
643,157.59549834166666,157.92848108541665,56.0,74.0
644,157.84759884166667,157.96314490416665,61.0,70.0
645,158.09969934166668,158.40957287291667,56.0,78.0
646,158.09969934166668,158.49255595416668,65.0,79.0
647,158.60390034166664,158.74150519791667,56.0,76.0
648,158.60390034166664,159.17637856041665,61.0,75.0
649,157.34339784166667,159.20684070416667,49.0,79.0
650,159.10810134166667,159.23415159166666,56.0,69.0
651,159.36020184166665,159.62490736666666,63.0,74.0
652,159.61230234166666,159.93057922291666,58.0,70.0
653,159.86440284166667,160.13120920416668,63.0,73.0
654,159.36020184166665,160.28036866666667,51.0,80.0
655,160.11650334166666,160.64276313541666,67.0,80.0
656,160.62070434166668,160.88540986666666,63.0,82.0
657,160.80242678541666,160.89276279791665,58.0,78.0
658,161.37070332916664,163.22469242291666,67.0,72.0
659,161.21734219166666,163.22889409791668,58.0,67.0
660,161.29507317916665,163.23414619166667,63.0,76.0
661,161.28036731666668,163.27091084791667,39.0,81.0
662,163.39380984166667,163.65641452916668,60.0,74.0
663,163.39380984166667,163.86229660416666,65.0,78.0
664,164.14590966666668,164.20893479166665,65.0,80.0
665,164.14590966666668,164.25620363541668,60.0,80.0
666,164.39801016666667,164.46103529166666,65.0,75.0
667,164.39801016666667,164.46103529166666,68.0,75.0
668,164.39801016666667,164.48729576041666,60.0,75.0
669,164.65011066666665,164.82448017916667,60.0,79.0
670,164.65011066666665,164.84338771666665,65.0,82.0
671,163.38960816666668,165.03561434791666,53.0,83.0
672,165.15431166666667,165.40641216666666,53.0,97.0
673,165.65851266666667,165.96103326666667,58.0,73.0
674,165.91481484166667,165.96103326666667,58.0,64.0
675,165.65851266666667,165.99569708541668,65.0,79.0
676,166.16271366666666,166.32027647916667,62.0,79.0
677,166.16691534166665,166.33603276041666,58.0,75.0
678,166.41481416666664,166.62489791666667,58.0,73.0
679,166.41481416666664,166.71313309166666,65.0,79.0
680,165.66271434166666,166.74254481666668,53.0,65.0
681,165.41061384166665,167.02510746041668,46.0,79.0
682,166.91901516666667,167.17111566666665,53.0,75.0
683,167.17111566666665,167.42321616666666,58.0,65.0
684,167.42321616666666,167.54926641666668,65.0,85.0
685,167.42321616666666,167.67846792291667,56.0,82.0
686,167.42321616666666,167.89695502291664,61.0,82.0
687,167.92741716666666,168.01985401666667,56.0,65.0
688,168.17951766666667,168.34758466666665,56.0,78.0
689,168.17951766666667,168.41376104791667,61.0,78.0
690,168.43161816666668,168.55766841666667,56.0,76.0
691,168.43161816666668,168.55766841666667,61.0,76.0
692,168.43161816666668,168.55766841666667,65.0,76.0
693,168.68371866666666,168.79821431041665,56.0,76.0
694,168.68371866666666,168.93581916666665,61.0,76.0
695,168.93581916666665,169.06186941666667,61.0,76.0
696,168.93581916666665,169.10913826041667,56.0,76.0
697,169.18791966666666,169.29611279791666,61.0,70.0
698,169.18791966666666,169.31396991666668,65.0,72.0
699,167.42321616666666,169.32237326666666,49.0,82.0
700,169.44002016666667,169.88119604166667,56.0,74.0
701,169.44002016666667,169.88539771666666,60.0,77.0
702,170.20052334166667,170.31186772916666,56.0,73.0
703,169.94422116666667,170.51144729166668,51.0,53.0
704,170.45262384166665,170.67321177916665,56.0,78.0
705,170.45262384166665,170.68056471041666,60.0,80.0
706,170.45262384166665,170.68056471041666,63.0,79.0
707,169.44002016666667,170.90325348541666,44.0,76.0
708,170.70052266666664,170.91375767291666,51.0,75.0
709,170.95262316666668,171.05136252916668,56.0,78.0
710,171.20472366666667,171.33077391666666,51.0,75.0
711,171.20472366666667,171.33077391666666,56.0,75.0
712,171.46102584166667,171.67426084791668,60.0,80.0
713,171.45682416666665,171.83497491666668,68.0,80.0
714,171.46102584166667,171.92741176666667,65.0,80.0
715,172.21732734166665,172.33287340416666,60.0,80.0
716,172.21312566666666,172.36123471041668,65.0,72.0
717,172.46522616666667,172.58077222916666,60.0,80.0
718,172.46522616666667,172.61333521041666,68.0,72.0
719,172.72152834166667,172.83602398541666,60.0,80.0
720,172.72152834166667,172.93371292916666,65.0,84.0
721,172.97362884166665,173.09442699791668,60.0,75.0
722,173.22572934166666,173.30030907291666,65.0,73.0
723,171.46102584166667,173.33602331041666,53.0,80.0
724,173.22152766666665,173.34757791666667,68.0,76.0
725,173.47362816666666,173.71627489791666,58.0,71.0
726,173.47362816666666,173.72572866666667,63.0,75.0
727,173.72572866666667,173.85177891666666,58.0,69.0
728,173.72572866666667,173.85177891666666,67.0,69.0
729,174.22992966666666,174.35597991666668,63.0,97.0
730,174.23413134166668,174.38644206041667,58.0,78.0
731,174.48203016666668,174.55450906041665,58.0,65.0
732,174.48203016666668,174.66165177291668,67.0,75.0
733,174.73833234166665,174.84022296041667,58.0,78.0
734,174.73833234166665,174.92005478541665,63.0,79.0
735,174.99043284166666,175.07551676041666,58.0,76.0
736,173.47362816666666,175.23833166666668,51.0,79.0
737,175.23833166666668,175.36438191666667,51.0,70.0
738,175.49463384166665,175.67425544791666,56.0,77.0
739,175.49463384166665,176.00618777291666,61.0,77.0
740,176.25093534166666,176.42005276041667,56.0,79.0
741,176.24673366666667,176.49883416666665,61.0,80.0
742,176.49883416666665,176.58706934166668,56.0,69.0
743,176.49883416666665,176.71732126666666,65.0,80.0
744,176.75513634166668,176.85177486666666,56.0,79.0
745,176.75513634166668,177.02824521666668,61.0,79.0
746,177.00723684166667,177.11227871666665,56.0,76.0
747,177.25513566666666,177.38118591666665,56.0,77.0
748,175.49463384166665,177.38538759166667,49.0,78.0
749,177.51143784166666,177.64799227916666,60.0,77.0
750,177.51143784166666,177.76353834166667,64.0,77.0
751,177.75933666666668,177.88538691666668,60.0,77.0
752,177.75933666666668,177.88538691666668,67.0,77.0
753,178.01563884166666,178.09967234166666,60.0,67.0
754,177.51143784166666,178.33391572291666,48.0,77.0
755,178.26353766666665,178.51563816666666,64.0,78.0
756,178.26773934166667,178.51983984166668,60.0,80.0
757,178.51563816666666,178.51983984166668,60.0,77.0
758,178.51563816666666,178.64168841666668,64.0,77.0
759,178.51983984166668,178.88853682291665,55.0,77.0
760,178.51563816666666,179.01983916666666,48.0,77.0
761,178.77194034166666,179.03874670416667,60.0,77.0
762,178.77194034166666,179.15009109166667,64.0,77.0
763,178.77194034166666,179.15009109166667,67.0,77.0
764,179.02404084166665,179.40114117291665,52.0,77.0
765,179.27614134166666,179.51773765416667,60.0,77.0
766,179.27193966666667,179.52404016666668,67.0,77.0
767,179.52824184166667,179.79084652916666,60.0,73.0
768,179.52824184166667,179.99672860416666,65.0,73.0
769,180.28454334166668,180.39483731041668,60.0,78.0
770,180.28034166666666,180.40219024166666,65.0,74.0
771,180.53244216666667,180.62172776041666,60.0,68.0
772,180.53244216666667,180.65849241666666,68.0,97.0
773,180.78874434166667,180.96311385416666,60.0,79.0
774,180.78874434166667,180.98202139166665,65.0,82.0
775,179.52824184166667,181.17424802291666,53.0,73.0
776,181.29294534166667,181.39798721666665,60.0,72.0
777,181.28874366666668,181.41479391666667,53.0,97.0
778,181.54084416666666,181.79294466666667,62.0,82.0
779,181.54504584166665,181.79714634166666,58.0,72.0
780,181.79294466666667,181.79714634166666,58.0,70.0
781,182.04924684166667,182.12802824791666,58.0,64.0
782,181.79294466666667,182.13012908541668,65.0,70.0
783,182.29714566666667,182.45470847916667,62.0,79.0
784,182.30134734166666,182.47046476041666,58.0,75.0
785,182.54924616666665,182.75932991666667,58.0,73.0
786,182.54924616666665,182.84756509166667,65.0,79.0
787,181.79714634166666,182.87697681666668,53.0,72.0
788,181.54504584166665,183.15953946041668,46.0,72.0
789,183.05764884166666,183.17214448541665,53.0,73.0
790,183.05344716666667,183.17949741666666,58.0,70.0
791,183.05344716666667,183.17949741666666,62.0,70.0
792,183.30974934166665,183.38327865416665,58.0,62.0
793,183.30554766666666,183.43159791666665,46.0,63.0
794,183.55764816666667,183.80974866666668,65.0,76.0
795,183.56184984166669,183.81710159791666,56.0,76.0
796,183.56184984166669,184.03558869791667,61.0,76.0
797,184.31815134166666,184.48621834166667,56.0,78.0
798,184.31394966666664,184.54819304791667,61.0,78.0
799,184.56605016666668,184.65848701666667,56.0,62.0
800,184.56605016666668,184.69210041666668,65.0,97.0
801,184.82235234166666,184.93684798541665,56.0,74.0
802,184.82235234166666,185.12592336041666,61.0,75.0
803,185.07445284166667,185.24777193541667,56.0,69.0
804,183.56184984166669,185.32655334166668,49.0,76.0
805,185.32235166666666,185.32655334166668,49.0,79.0
806,185.32655334166668,185.43474647291666,61.0,80.0
807,185.57865384166666,185.83075434166665,56.0,76.0
808,185.82655266666666,185.83075434166665,56.0,97.0
809,185.57865384166666,185.83075434166665,60.0,76.0
810,185.82655266666666,186.07865316666667,63.0,77.0
811,186.33495534166667,186.44629972916667,56.0,73.0
812,186.33075366666668,186.45680391666667,60.0,97.0
813,186.08285484166666,186.65008096666668,51.0,53.0
814,186.58705584166665,186.80764377916665,56.0,78.0
815,186.58705584166665,186.81499671041666,60.0,80.0
816,186.58705584166665,186.81499671041666,63.0,79.0
817,186.83915634166667,187.05239134791668,51.0,75.0
818,187.09125684166668,187.18999620416668,56.0,78.0
819,185.57865384166666,187.21730709166667,44.0,76.0
820,187.33915566666667,187.59125616666665,44.0,73.0
821,187.59545784166664,187.80869284791666,60.0,78.0
822,187.59545784166664,188.06184376666667,65.0,78.0
823,188.35175934166665,188.46730540416667,60.0,80.0
824,188.34755766666666,188.49566671041669,65.0,72.0
825,188.59965816666667,188.73306134791665,60.0,65.0
826,188.59965816666667,188.85175866666668,68.0,97.0
827,188.85596034166667,188.97045598541666,60.0,80.0
828,188.85596034166667,189.06814492916666,65.0,84.0
829,189.10806084166666,189.22885899791666,60.0,75.0
830,187.59545784166664,189.36016134166667,53.0,79.0
831,189.35595966666665,189.36016134166667,53.0,67.0
832,189.36016134166667,189.43474107291667,65.0,66.0
833,189.35595966666665,189.48200991666667,60.0,97.0
834,189.61226184166668,189.85490857291666,58.0,71.0
835,189.61226184166668,189.86436234166666,63.0,75.0
836,189.86016066666667,189.98621091666666,58.0,97.0
837,189.86016066666667,190.11226116666666,67.0,97.0
838,190.11226116666666,190.18474006041666,58.0,65.0
839,190.61646216666668,190.76877288541667,58.0,78.0
840,190.61646216666668,190.79608377291666,67.0,75.0
841,189.61226184166668,191.16688159166665,51.0,79.0
842,191.12066316666665,191.22255378541666,58.0,78.0
843,191.12066316666665,191.30238561041665,63.0,79.0
844,191.37276366666669,191.45784758541666,58.0,76.0
845,191.63326751666665,191.91057806666666,56.0,74.0
846,191.65637672916665,192.14167019166666,61.0,76.0
847,191.62906584166666,192.23935913541666,49.0,82.0
848,192.13326684166668,192.45469497916667,56.0,79.0
849,192.38536734166667,192.60490486041667,61.0,79.0
850,192.65427454166667,192.91582881041666,58.0,62.0
851,192.67213166041665,193.18263517291666,63.0,70.0
852,192.88956834166666,193.32549212291667,46.0,62.0
853,192.63746784166665,193.36750887291666,39.0,62.0
854,193.14166884166667,193.50196247291666,58.0,76.0
855,193.39376934166665,193.57129011041667,63.0,76.0
856,193.66057570416666,193.90742411041668,60.0,73.0
857,193.64692026041666,194.00301221666666,48.0,73.0
858,193.67948324166667,194.13746581666666,65.0,75.0
859,194.40217134166664,194.67738105416666,68.0,73.0
860,194.40217134166664,194.72780115416668,60.0,72.0
861,194.90637234166667,195.06498557291667,60.0,74.0
862,193.64586984166667,195.63641337291665,41.0,72.0
863,194.15007084166666,195.64376630416666,48.0,57.0
864,195.15847284166665,195.66897635416666,60.0,73.0
865,195.66267384166667,195.66897635416666,60.0,74.0
866,194.90637234166667,195.68998472916667,65.0,78.0
867,195.66267384166667,195.68998472916667,65.0,78.0
868,196.41477366666666,196.47779879166666,65.0,80.0
869,196.41477366666666,196.52506763541666,60.0,80.0
870,196.66687416666667,196.72989929166667,65.0,75.0
871,196.66687416666667,196.72989929166667,68.0,75.0
872,196.66687416666667,196.75615976041666,60.0,75.0
873,196.91897466666666,197.09334417916665,60.0,79.0
874,196.91897466666666,197.11225171666666,65.0,82.0
875,195.65847216666668,197.30447834791667,53.0,83.0
876,197.42317566666668,197.67527616666666,53.0,97.0
877,197.92737666666665,198.22989726666668,58.0,73.0
878,198.18367884166668,198.22989726666668,58.0,64.0
879,197.92737666666665,198.26456108541666,65.0,79.0
880,198.43157766666667,198.58914047916664,62.0,79.0
881,198.43577934166666,198.60489676041666,58.0,75.0
882,198.68367816666665,198.89376191666668,58.0,73.0
883,198.68367816666665,198.98199709166667,65.0,79.0
884,197.93157834166666,199.01140881666666,53.0,65.0
885,197.67947784166665,199.29397146041669,46.0,79.0
886,199.18787916666668,199.43997966666666,53.0,75.0
887,199.43997966666666,199.69208016666664,58.0,65.0
888,199.69208016666664,199.8181304166667,65.0,85.0
889,199.69208016666664,199.94733192291665,56.0,82.0
890,199.69208016666664,200.16581902291665,61.0,82.0
891,200.19628116666667,200.28871801666668,56.0,65.0
892,200.44838166666665,200.61644866666666,56.0,78.0
893,200.44838166666665,200.68262504791664,61.0,78.0
894,200.7004821666667,200.82653241666668,56.0,76.0
895,200.7004821666667,200.82653241666668,61.0,76.0
896,200.7004821666667,200.82653241666668,65.0,76.0
897,200.95258266666667,201.06707831041666,56.0,76.0
898,200.95258266666667,201.20468316666665,61.0,76.0
899,201.20468316666665,201.33073341666665,61.0,76.0
900,201.20468316666665,201.37800226041668,56.0,76.0
901,201.45678366666664,201.56497679791664,61.0,70.0
902,201.45678366666664,201.5828339166667,65.0,72.0
903,199.69208016666664,201.59123726666667,49.0,82.0
904,201.70888416666668,202.15006004166668,56.0,74.0
905,201.70888416666668,202.15426171666667,60.0,77.0
906,202.46938734166667,202.58073172916664,56.0,73.0
907,202.21308516666664,202.7803112916667,51.0,53.0
908,202.72148784166666,202.94207577916666,56.0,78.0
909,202.72148784166666,202.94942871041667,60.0,80.0
910,202.72148784166666,202.94942871041667,63.0,79.0
911,201.70888416666668,203.17211748541666,44.0,76.0
912,202.96938666666665,203.18262167291664,51.0,75.0
913,203.2214871666667,203.3202265291667,56.0,78.0
914,203.47358766666667,203.59963791666667,51.0,75.0
915,203.47358766666667,203.59963791666667,56.0,75.0
916,203.72988984166665,203.9431248479167,60.0,80.0
917,203.72568816666666,204.1038389166667,68.0,80.0
918,203.72988984166665,204.19627576666664,65.0,80.0
919,204.48619134166665,204.60173740416667,60.0,80.0
920,204.48198966666666,204.6300987104167,65.0,72.0
921,204.73409016666665,204.84963622916666,60.0,80.0
922,204.73409016666665,204.88219921041667,68.0,72.0
923,204.99039234166668,205.10488798541667,60.0,80.0
924,204.99039234166668,205.20257692916664,65.0,84.0
925,205.24249284166666,205.3632909979167,60.0,75.0
926,205.49459334166664,205.56917307291667,65.0,73.0
927,203.72988984166665,205.60488731041664,53.0,80.0
928,205.49039166666665,205.61644191666664,68.0,76.0
929,205.7424921666667,205.98513889791667,58.0,71.0
930,205.7424921666667,205.99459266666668,63.0,75.0
931,205.99459266666668,206.12064291666667,58.0,69.0
932,205.99459266666668,206.12064291666667,67.0,69.0
933,206.49879366666664,206.6248439166667,63.0,97.0
934,206.5029953416667,206.65530606041665,58.0,78.0
935,206.75089416666668,206.82337306041666,58.0,65.0
936,206.75089416666668,206.9305157729167,67.0,75.0
937,207.00719634166666,207.10908696041668,58.0,78.0
938,207.00719634166666,207.18891878541666,63.0,79.0
939,207.25929684166664,207.34438076041664,58.0,76.0
940,205.7424921666667,207.5071956666667,51.0,79.0
941,207.5071956666667,207.63324591666668,51.0,70.0
942,207.76349784166666,207.94311944791667,56.0,77.0
943,207.76349784166666,208.27505177291664,61.0,77.0
944,208.51979934166667,208.68891676041665,56.0,79.0
945,208.51559766666668,208.76769816666666,61.0,80.0
946,208.76769816666666,208.85593334166668,56.0,69.0
947,208.76769816666666,208.98618526666667,65.0,80.0
948,209.0240003416667,209.12063886666664,56.0,79.0
949,209.0240003416667,209.29710921666668,61.0,79.0
950,209.27610084166668,209.38114271666666,56.0,76.0
951,209.52399966666667,209.65004991666666,56.0,77.0
952,207.76349784166666,209.65425159166665,49.0,78.0
953,209.78030184166664,209.91685627916667,60.0,77.0
954,209.78030184166664,210.03240234166668,64.0,77.0
955,210.0282006666667,210.15425091666668,60.0,77.0
956,210.0282006666667,210.15425091666668,67.0,77.0
957,210.28450284166667,210.36853634166664,60.0,67.0
958,209.78030184166664,210.6027797229167,48.0,77.0
959,210.53240166666666,210.78450216666664,64.0,78.0
960,210.53660334166665,210.7887038416667,60.0,80.0
961,210.78450216666664,210.7887038416667,60.0,77.0
962,210.78450216666664,210.9105524166667,64.0,77.0
963,210.7887038416667,211.15740082291666,55.0,77.0
964,210.78450216666664,211.28870316666666,48.0,77.0
965,211.04080434166667,211.30761070416668,60.0,77.0
966,211.04080434166667,211.41895509166665,64.0,77.0
967,211.04080434166667,211.41895509166665,67.0,77.0
968,211.29290484166665,211.67000517291666,52.0,77.0
969,211.54500534166664,211.78660165416665,60.0,77.0
970,211.54080366666665,211.7929041666667,67.0,77.0
971,211.79710584166668,212.0597105291667,60.0,73.0
972,211.79710584166668,212.26559260416667,65.0,73.0
973,212.55340734166668,212.66370131041668,60.0,78.0
974,212.5492056666667,212.67105424166664,65.0,74.0
975,212.80130616666668,212.89059176041667,60.0,68.0
976,212.80130616666668,212.92735641666667,68.0,97.0
977,213.05760834166665,213.23197785416664,60.0,79.0
978,213.05760834166665,213.25088539166666,65.0,82.0
979,211.79710584166668,213.4431120229167,53.0,73.0
980,213.56180934166667,213.66685121666666,60.0,72.0
981,213.55760766666668,213.68365791666668,53.0,97.0
982,213.80970816666667,214.06180866666665,62.0,82.0
983,213.81390984166666,214.06601034166664,58.0,72.0
984,214.06180866666665,214.06601034166664,58.0,70.0
985,214.31811084166668,214.39689224791664,58.0,64.0
986,214.06180866666665,214.3989930854167,65.0,70.0
987,214.56600966666667,214.72357247916665,62.0,79.0
988,214.57021134166666,214.73932876041664,58.0,75.0
989,214.81811016666666,215.02819391666668,58.0,73.0
990,214.81811016666666,215.11642909166665,65.0,79.0
991,214.06601034166664,215.1458408166667,53.0,72.0
992,213.81390984166666,215.4284034604167,46.0,72.0
993,215.32651284166667,215.44100848541666,53.0,73.0
994,215.32231116666668,215.44836141666667,58.0,70.0
995,215.32231116666668,215.44836141666667,62.0,70.0
996,215.57861334166665,215.65214265416665,58.0,62.0
997,215.57441166666666,215.70046191666665,46.0,63.0
998,215.82651216666665,216.0786126666667,65.0,76.0
999,215.8307138416667,216.08596559791664,56.0,76.0
1000,215.8307138416667,216.30445269791664,61.0,76.0
1001,216.58701534166664,216.75508234166665,56.0,78.0
1002,216.58281366666665,216.81705704791665,61.0,78.0
1003,216.8349141666667,216.92735101666665,56.0,62.0
1004,216.8349141666667,216.96096441666668,65.0,97.0
1005,217.09121634166667,217.20571198541666,56.0,74.0
1006,217.09121634166667,217.39478736041667,61.0,75.0
1007,217.34331684166665,217.51663593541667,56.0,69.0
1008,215.8307138416667,217.5954173416667,49.0,76.0
1009,217.59121566666664,217.5954173416667,49.0,79.0
1010,217.5954173416667,217.7036104729167,61.0,80.0
1011,217.84751784166667,218.09961834166666,56.0,76.0
1012,218.09541666666667,218.09961834166666,56.0,97.0
1013,217.84751784166667,218.09961834166666,60.0,76.0
1014,218.09541666666667,218.34751716666665,63.0,77.0
1015,218.60381934166668,218.71516372916665,56.0,73.0
1016,218.5996176666667,218.72566791666668,60.0,97.0
1017,218.35171884166664,218.9189449666667,51.0,53.0
1018,218.85591984166666,219.07650777916666,56.0,78.0
1019,218.85591984166666,219.08386071041667,60.0,80.0
1020,218.85591984166666,219.08386071041667,63.0,79.0
1021,219.10802034166664,219.3212553479167,51.0,75.0
1022,219.36012084166669,219.45886020416668,56.0,78.0
1023,217.84751784166667,219.48617109166668,44.0,76.0
1024,219.60801966666668,219.86012016666666,44.0,73.0
1025,219.86432184166665,220.07755684791664,60.0,78.0
1026,219.86432184166665,220.33070776666665,65.0,78.0
1027,220.62062334166666,220.73616940416667,60.0,80.0
1028,220.61642166666667,220.7645307104167,65.0,72.0
1029,220.86852216666665,221.00192534791665,60.0,65.0
1030,220.86852216666665,221.1206226666667,68.0,97.0
1031,221.12482434166668,221.23931998541667,60.0,80.0
1032,221.12482434166668,221.33700892916664,65.0,84.0
1033,221.37692484166666,221.49772299791664,60.0,75.0
1034,219.86432184166665,221.62902534166665,53.0,79.0
1035,221.62482366666666,221.62902534166665,53.0,67.0
1036,221.62902534166665,221.70360507291667,65.0,66.0
1037,221.62482366666666,221.75087391666665,60.0,97.0
1038,221.8811258416667,222.12377257291666,58.0,71.0
1039,221.8811258416667,222.13322634166667,63.0,75.0
1040,222.12902466666668,222.25507491666667,58.0,97.0
1041,222.12902466666668,222.38112516666666,67.0,97.0
1042,222.38112516666666,222.4536040604167,58.0,65.0
1043,222.8853261666667,223.03763688541665,58.0,78.0
1044,222.8853261666667,223.06494777291664,67.0,75.0
1045,221.8811258416667,223.43574559166666,51.0,79.0
1046,223.38952716666665,223.49141778541667,58.0,78.0
1047,223.38952716666665,223.57124961041666,63.0,79.0
1048,223.6416276666667,223.7267115854167,58.0,76.0
1049,223.90213151666666,224.45150052291666,56.0,74.0
1050,223.92524072916666,224.6825926479167,61.0,76.0
1051,223.89792984166667,224.78028159166666,49.0,82.0
1052,225.15843234166664,225.7466668416667,46.0,62.0
1053,224.90633184166666,225.78868359166665,39.0,62.0
1054,224.92313854166667,225.80549029166667,58.0,62.0
1055,224.94099566041666,225.82334741041666,63.0,70.0
1056,225.4063311666667,225.93679263541668,51.0,73.0
1057,225.92943970416667,226.1762881104167,60.0,73.0
1058,225.91578426041667,226.27187621666667,48.0,73.0
1059,225.94834724166668,226.40632981666664,65.0,75.0
1060,226.67103534166665,226.94624505416664,68.0,73.0
1061,226.67103534166665,226.9966651541667,60.0,72.0
1062,225.91473384166665,227.90527737291666,41.0,72.0
1063,227.89687402291668,227.90527737291666,41.0,73.0
1064,226.41893484166667,227.91263030416667,48.0,57.0
1065,227.42733684166666,227.93784035416667,60.0,73.0
1066,227.17523634166668,227.95884872916668,65.0,78.0
1067,228.38321790416666,229.24246044166665,60.0,75.0
1068,228.13847033541668,229.25821672291664,48.0,66.0
1069,228.67523431666666,229.35590566666667,65.0,76.0
1070,229.82649326666666,230.04287952916667,58.0,60.0
1071,229.89056881041665,230.36955976041668,63.0,60.0
1072,229.93678723541666,230.45254284166668,67.0,65.0
1073,230.4252319541667,230.83279442916665,58.0,59.0
1074,230.69203831666664,231.2456089979167,63.0,73.0
1075,230.15737517291666,231.32859207916664,46.0,57.0
1076,229.90632509166664,231.43363395416668,39.0,80.0
1077,231.45989442291665,231.79287716666664,58.0,55.0
1078,231.17943261666665,231.94308704791666,67.0,80.0
1079,232.38636376041666,232.96829574791667,56.0,66.0
1080,232.04182641041666,233.07543846041665,49.0,80.0
1081,232.77922037291665,233.21619457291666,61.0,78.0
1082,233.13741316666665,233.2519088104167,65.0,78.0
1083,233.5964461604167,234.92207462291668,51.0,70.0
1084,233.88005922291666,235.14476339791668,67.0,68.0
1085,233.77501734791667,235.1500154916667,63.0,74.0
1086,233.66052170416668,235.16051967916667,58.0,61.0
1087,236.35904747291664,236.55652619791664,55.0,65.0
1088,236.56913122291667,236.8779543354167,56.0,72.0
1089,236.81387879166664,237.0502230104167,60.0,76.0
1090,237.04392049791664,237.18572702916669,65.0,78.0
1091,237.3790040791667,237.5512727541667,68.0,70.0
1092,237.72879352291665,237.88530591666665,72.0,78.0
1093,238.2361457791667,238.3968598479167,72.0,45.0
1094,238.34328849166667,238.52185967916665,77.0,73.0
1095,239.19937977291664,239.36744677291665,72.0,68.0
1096,239.33593421041667,239.4472785979167,79.0,71.0
1097,236.09329152916666,240.28341192291668,48.0,53.0
1098,235.72774580416666,240.35589081666666,41.0,80.0
