,start,end,pitch,velocity
0,18.818163,19.2102080625,69.0,96.0
1,19.272708,19.5927834375,62.0,88.0
2,19.727253,20.49240375,62.0,95.0
3,20.636343,21.0965698125,69.0,100.0
4,21.090888,21.51513,71.0,93.0
5,21.545433,21.94694775,73.0,100.0
6,21.999978,22.6495985625,69.0,99.0
7,22.909068,23.3200524375,67.0,117.0
8,23.363613,23.79543075,69.0,97.0
9,23.818158,25.5662623125,66.0,95.0
10,26.090883,26.4147463125,69.0,97.0
11,26.545428,26.8636095,62.0,93.0
12,26.999973,27.5586845625,62.0,97.0
13,27.909063,28.299214125,69.0,112.0
14,28.363608,28.791637875,71.0,107.0
15,28.818153,29.3484555,69.0,112.0
16,29.272698,29.640121875,67.0,117.0
17,30.181788,30.564363375,66.0,100.0
18,30.636333,31.0018629375,67.0,96.0
19,31.090878,32.5018614375,64.0,95.0
20,33.363603,33.7821631875,69.0,96.0
21,33.818148,34.162844625,62.0,88.0
22,34.272693,34.624965375,62.0,96.0
23,34.727238,35.4564039375,69.0,100.0
24,35.636328,35.9829185625,71.0,107.0
25,36.090873,36.4033726875,73.0,112.0
26,36.545418,37.1382204375,69.0,99.0
27,37.454508,37.7177653125,71.0,97.0
28,37.909053,38.12874975,73.0,112.0
29,38.363598,39.18935475,74.0,100.0
30,40.4090505,40.6003381875,62.0,93.0
31,40.636323,40.973443875,69.0,97.0
32,41.090868,41.41662525,62.0,100.0
33,41.545413,41.7935188125,62.0,102.0
34,41.999958,42.367381875,69.0,107.0
35,42.454503,42.7101845625,67.0,112.0
36,42.909048,43.3238203125,66.0,117.0
37,43.818138,44.3995768125,64.0,102.0
38,44.727228,46.939347,62.0,97.0
39,47.909043,48.3010880625,69.0,96.0
40,48.363588,48.6836634375,62.0,88.0
41,48.818133,49.58328375,62.0,95.0
42,49.333284,50.344646625,69.0,100.0
43,50.181768,50.60601,71.0,93.0
44,50.636313,51.03782775,73.0,100.0
45,51.090858,51.7404785625,69.0,99.0
46,51.999948,52.4109324375,67.0,117.0
47,52.454493,52.88631075,69.0,97.0
48,52.909038,54.6571423125,66.0,95.0
49,55.181763000000004,55.5056263125,69.0,97.0
50,55.636308,55.9544895,62.0,93.0
51,56.090853,56.6495645625,62.0,97.0
52,56.999943,57.390094125,69.0,112.0
53,57.454488,57.882517875,71.0,107.0
54,57.909033,58.4393355,69.0,112.0
55,58.363578,58.731001875,67.0,117.0
56,59.272668,59.655243375,66.0,100.0
57,59.727213,60.0927429375,67.0,96.0
58,60.181758,61.5927414375,64.0,95.0
59,62.454483,62.8730431875,69.0,96.0
60,62.909028,63.253724625,62.0,88.0
61,63.363573,63.715845375,62.0,96.0
62,63.818118,64.5472839375,69.0,100.0
63,64.727208,65.0737985625,71.0,107.0
64,65.181753,65.4942526875,73.0,112.0
65,65.636298,66.2291004375,69.0,99.0
66,66.545388,66.8086453125,71.0,97.0
67,66.999933,67.21962975,73.0,112.0
68,67.454478,68.28023475,74.0,100.0
69,69.4999305,69.6192485625,69.0,102.0
70,69.727203,69.9715209375,69.0,112.0
71,70.181748,70.503717375,69.0,112.0
72,70.636293,70.9109139375,69.0,96.0
73,71.090838,71.7669736875,74.0,127.0
74,71.999928,72.31053375,69.0,122.0
75,72.45447300000001,72.753715125,74.0,127.0
76,72.909018,75.026440125,76.0,127.0
77,75.636288,75.8938635,69.0,107.0
78,76.090833,76.58325675,76.0,122.0
79,76.7726505,76.9487866875,73.0,122.0
80,76.999923,77.6949980625,74.0,127.0
81,78.363558,78.6874213125,69.0,127.0
82,78.818103,79.18931475,66.0,122.0
83,79.272648,79.6002991875,69.0,122.0
84,79.727193,80.200677375,76.0,122.0
85,80.4090105,80.5396921875,73.0,127.0
86,80.636283,81.7518121875,74.0,127.0
87,82.2271905,82.393857,69.0,100.0
88,82.454463,82.84840200000001,66.0,112.0
89,82.909008,83.181735,69.0,107.0
90,83.363553,83.776431375,76.0,99.0
91,83.818098,84.276430875,78.0,127.0
92,84.272643,85.121127,74.0,127.0
93,85.181733,85.4752933125,74.0,122.0
94,85.636278,85.818096,74.0,95.0
95,85.8635505,86.3692318125,73.0,127.0
96,86.545368,86.844610125,71.0,117.0
97,86.999913,87.314306625,69.0,102.0
98,87.454458,87.8881696875,67.0,102.0
99,87.909003,89.1949865625,69.0,127.0
100,90.181728,90.454455,62.0,112.0
101,90.636273,90.996121125,74.0,127.0
102,91.090818,91.40899950000001,73.0,127.0
103,91.545363,92.21960475,71.0,127.0
104,92.908998,93.1987704375,66.0,127.0
105,93.363543,93.7631638125,64.0,127.0
106,93.818088,94.2101330625,66.0,122.0
107,94.272633,94.7404355625,73.0,127.0
108,95.181723,95.5813438125,71.0,127.0
109,95.636268,96.109752375,69.0,112.0
110,96.7726305,97.0131605625,69.0,89.0
111,96.999903,97.367326875,74.0,127.0
112,97.454448,97.58323575,76.0,127.0
113,97.6817205,97.965811125,76.0,96.0
114,98.1362655,98.6381589375,78.0,127.0
115,98.818083,99.193082625,71.0,122.0
116,99.272628,99.4184611875,71.0,127.0
117,99.727173,99.8843698125,73.0,127.0
118,99.9544455,100.283990625,74.0,127.0
119,100.636263,100.9260354375,78.0,127.0
120,101.090808,101.177929125,76.0,107.0
121,101.3180805,101.757474,76.0,127.0
122,101.999898,102.06807975,74.0,112.0
123,102.2271705,103.94686575,76.0,127.0
124,104.727168,104.9847435,69.0,107.0
125,105.181713,105.67413675,76.0,122.0
126,105.8635305,106.0396666875,73.0,122.0
127,106.090803,106.7858780625,74.0,127.0
128,107.454438,107.7783013125,69.0,127.0
129,107.908983,108.28019475,66.0,122.0
130,108.363528,108.6911791875,69.0,122.0
131,108.818073,109.291557375,76.0,122.0
132,109.4998905,109.6305721875,73.0,127.0
133,109.727163,110.8426921875,74.0,127.0
134,111.3180705,111.484737,69.0,100.0
135,111.545343,111.939282,66.0,112.0
136,111.999888,112.272615,69.0,107.0
137,112.454433,112.867311375,76.0,99.0
138,112.908978,113.367310875,78.0,127.0
139,113.363523,114.212007,74.0,127.0
140,114.272613,114.5661733125,74.0,122.0
141,114.727158,114.908976,74.0,95.0
142,114.9544305,115.4601118125,73.0,127.0
143,115.636248,115.935490125,71.0,117.0
144,116.090793,116.405186625,69.0,102.0
145,116.545338,116.9790496875,67.0,102.0
146,116.999883,118.2858665625,69.0,127.0
147,119.272608,119.545335,62.0,112.0
148,119.727153,120.087001125,74.0,127.0
149,120.181698,120.4998795,73.0,127.0
150,120.636243,121.31048475,71.0,127.0
151,121.999878,122.2896504375,66.0,127.0
152,122.454423,122.8540438125,64.0,127.0
153,122.908968,123.3010130625,66.0,122.0
154,123.363513,123.8313155625,73.0,127.0
155,124.272603,124.6722238125,71.0,127.0
156,124.727148,125.200632375,69.0,112.0
157,125.8635105,126.1040405625,69.0,89.0
158,126.090783,126.458206875,74.0,127.0
159,126.545328,126.67411575,76.0,127.0
160,126.7726005,127.056691125,76.0,96.0
161,127.2271455,127.7290389375,78.0,127.0
162,127.908963,128.283962625,71.0,122.0
163,128.363508,128.5093411875,71.0,127.0
164,128.818053,128.9752498125,73.0,127.0
165,129.0453255,129.374870625,74.0,127.0
166,129.727143,130.4089605,74.0,127.0
167,130.636233,130.9847175,73.0,122.0
168,131.090778,133.0207003125,74.0,107.0
169,146.090763,146.4828080625,69.0,96.0
170,146.545308,146.86538343750001,62.0,88.0
171,146.999853,147.76500375,62.0,95.0
172,147.424095,148.405154625,69.0,100.0
173,148.363488,148.78773,71.0,93.0
174,148.818033,149.21954775,73.0,100.0
175,149.272578,149.9221985625,69.0,99.0
176,150.181668,150.5926524375,67.0,117.0
177,150.636213,151.06803075,69.0,97.0
178,151.090758,152.8388623125,66.0,95.0
179,153.363483,153.6873463125,69.0,97.0
180,153.818028,154.1362095,62.0,93.0
181,154.272573,154.8312845625,62.0,97.0
182,155.18166300000001,155.571814125,69.0,112.0
183,155.636208,156.064237875,71.0,107.0
184,156.090753,156.6210555,69.0,112.0
185,156.545298,156.912721875,67.0,117.0
186,157.454388,157.836963375,66.0,100.0
187,157.908933,158.2744629375,67.0,96.0
188,158.363478,159.7744614375,64.0,95.0
189,160.636203,161.0547631875,69.0,96.0
190,161.090748,161.435444625,62.0,88.0
191,161.545293,161.897565375,62.0,96.0
192,161.999838,162.7290039375,69.0,100.0
193,162.908928,163.2555185625,71.0,107.0
194,163.363473,163.6759726875,73.0,112.0
195,163.818018,164.4108204375,69.0,99.0
196,164.727108,164.9903653125,71.0,97.0
197,165.181653,165.40134975,73.0,112.0
198,165.636198,166.46195475,74.0,100.0
199,167.6816505,167.8009685625,69.0,102.0
200,167.908923,168.1532409375,69.0,112.0
201,168.363468,168.685437375,69.0,112.0
202,168.818013,169.0926339375,69.0,96.0
203,169.272558,169.9486936875,74.0,127.0
204,170.181648,170.49225375,69.0,122.0
205,170.636193,170.935435125,74.0,127.0
206,171.090738,173.208160125,76.0,127.0
207,173.818008,174.0755835,69.0,107.0
208,174.272553,174.76497675,76.0,122.0
209,174.9543705,175.1305066875,73.0,122.0
210,175.181643,175.8767180625,74.0,127.0
211,176.545278,176.8691413125,69.0,127.0
212,176.999823,177.37103475,66.0,122.0
213,177.454368,177.7820191875,69.0,122.0
214,177.908913,178.382397375,76.0,122.0
215,178.5907305,178.7214121875,73.0,127.0
216,178.818003,179.9335321875,74.0,127.0
217,180.4089105,180.575577,69.0,100.0
218,180.636183,181.030122,66.0,112.0
219,181.090728,181.363455,69.0,107.0
220,181.545273,181.958151375,76.0,99.0
221,181.999818,182.458150875,78.0,127.0
222,182.454363,183.302847,74.0,127.0
223,183.363453,183.6570133125,74.0,122.0
224,183.817998,183.999816,74.0,95.0
225,184.0452705,184.5509518125,73.0,127.0
226,184.727088,185.026330125,71.0,117.0
227,185.181633,185.496026625,69.0,102.0
228,185.636178,186.0698896875,67.0,102.0
229,186.090723,187.3767065625,69.0,127.0
230,188.363448,188.636175,62.0,112.0
231,188.817993,189.177841125,74.0,127.0
232,189.272538,189.5907195,73.0,127.0
233,189.727083,190.40132475,71.0,127.0
234,191.090718,191.3804904375,66.0,127.0
235,191.545263,191.9448838125,64.0,127.0
236,191.999808,192.3918530625,66.0,122.0
237,192.454353,192.9221555625,73.0,127.0
238,193.363443,193.7630638125,71.0,127.0
239,193.817988,194.291472375,69.0,112.0
240,194.9543505,195.1948805625,69.0,89.0
241,195.181623,195.549046875,74.0,127.0
242,195.636168,195.76495575,76.0,127.0
243,195.8634405,196.147531125,76.0,96.0
244,196.3179855,196.8198789375,78.0,127.0
245,196.999803,197.374802625,71.0,122.0
246,197.454348,197.6001811875,71.0,127.0
247,197.908893,198.0660898125,73.0,127.0
248,198.1361655,198.465710625,74.0,127.0
249,198.817983,199.1077554375,78.0,127.0
250,199.272528,199.359649125,76.0,107.0
251,199.4998005,199.939194,76.0,127.0
252,200.18161800000001,200.24979975,74.0,112.0
253,200.4088905,202.12858575,76.0,127.0
254,202.908888,203.1664635,70.0,107.0
255,203.363433,203.85585675,77.0,122.0
256,204.0452505,204.2213866875,74.0,122.0
257,204.272523,204.9675980625,75.0,127.0
258,205.636158,205.9600213125,70.0,127.0
259,206.090703,206.46191475,67.0,122.0
260,206.545248,206.8728991875,70.0,122.0
261,206.999793,207.473277375,77.0,122.0
262,207.6816105,207.8122921875,74.0,127.0
263,207.908883,209.0244121875,75.0,127.0
264,209.4997905,209.666457,70.0,100.0
265,209.727063,210.121002,67.0,112.0
266,210.181608,210.45433500000001,70.0,107.0
267,210.636153,211.049031375,77.0,99.0
268,211.090698,211.549030875,79.0,127.0
269,211.545243,212.393727,75.0,127.0
270,212.454333,212.7478933125,75.0,122.0
271,212.908878,213.090696,75.0,95.0
272,213.1361505,213.6418318125,74.0,127.0
273,213.817968,214.117210125,72.0,117.0
274,214.272513,214.586906625,70.0,102.0
275,214.727058,215.1607696875,68.0,102.0
276,215.181603,216.4675865625,70.0,127.0
277,217.454328,217.727055,63.0,112.0
278,217.908873,218.268721125,75.0,127.0
279,218.363418,218.6815995,74.0,127.0
280,218.817963,219.49220475,72.0,127.0
281,220.181598,220.4713704375,67.0,127.0
282,220.636143,221.0357638125,65.0,127.0
283,221.090688,221.4827330625,67.0,122.0
284,221.545233,222.0130355625,74.0,127.0
285,222.454323,222.8539438125,72.0,127.0
286,222.908868,223.382352375,70.0,112.0
287,224.0452305,224.2857605625,70.0,89.0
288,224.272503,224.63992687500001,75.0,127.0
289,224.727048,224.85583575,77.0,127.0
290,224.9543205,225.238411125,77.0,96.0
291,225.4088655,225.9107589375,79.0,127.0
292,226.090683,226.465682625,72.0,122.0
293,226.545228,226.6910611875,72.0,127.0
294,226.999773,227.1569698125,74.0,127.0
295,227.2270455,227.556590625,75.0,127.0
296,227.908863,228.5906805,75.0,127.0
297,228.817953,229.1664375,74.0,122.0
298,229.272498,231.2024203125,75.0,107.0
299,231.999768,232.272495,63.0,112.0
300,232.454313,232.814161125,75.0,127.0
301,232.908858,233.2270395,74.0,127.0
302,233.363403,234.03764475,72.0,127.0
303,234.727038,235.0168104375,67.0,127.0
304,235.181583,235.5812038125,65.0,127.0
305,235.636128,236.0281730625,67.0,122.0
306,236.090673,236.5584755625,74.0,127.0
307,236.999763,237.3993838125,72.0,127.0
308,237.454308,237.927792375,70.0,112.0
309,238.5906705,238.8312005625,70.0,89.0
310,238.817943,239.185366875,75.0,127.0
311,239.272488,239.40127575,77.0,127.0
312,239.4997605,239.783851125,77.0,96.0
313,239.9543055,240.4561989375,79.0,127.0
314,240.636123,241.011122625,72.0,122.0
315,241.090668,241.2365011875,72.0,127.0
316,241.545213,241.7024098125,74.0,127.0
317,241.7724855,242.102030625,75.0,127.0
318,242.454303,243.0925599375,75.0,127.0
319,243.363393,245.6758906875,74.0,97.0
320,246.090663,250.5054313125,75.0,127.0
