,start,end,pitch,velocity
0,0.636363,1.6382559375,38.0,63.0
1,1.090908,1.6609831875,45.0,39.0
2,1.545453,2.0151495,57.0,72.0
3,1.999998,2.087119125,54.0,40.0
4,2.909088,3.52272375,47.0,37.0
5,2.454543,3.545451,40.0,66.0
6,3.818178,4.1969655,52.0,44.0
7,3.363633,4.2367381875,62.0,64.0
8,3.363633,4.2405260625,59.0,25.0
9,4.272723,5.43181275,42.0,66.0
10,4.727268,5.6496155625,54.0,47.0
11,5.181813,6.0965848125,61.0,92.0
12,5.636358,6.124993875,57.0,68.0
13,6.545448,7.1496140625,54.0,44.0
14,6.090903,7.3333260000000005,47.0,71.0
15,6.999993,7.81059825,66.0,95.0
16,7.454538,7.859840625,59.0,65.0
17,8.363628,8.7594609375,52.0,71.0
18,7.909083,8.776506375,40.0,82.0
19,8.818173,9.67423275,42.0,96.0
20,9.272718,9.727263,54.0,88.0
21,9.727263,10.60605,37.0,67.0
22,9.727263,10.6230954375,61.0,85.0
23,9.727263,10.624989375,64.0,78.0
24,9.727263,10.6268833125,57.0,86.0
25,10.636353,11.06817075,38.0,66.0
26,10.636353,11.17423125,62.0,83.0
27,10.636353,11.178019125,66.0,79.0
28,10.636353,11.2215796875,57.0,86.0
29,11.545443,12.678017625,60.0,97.0
30,11.545443,12.8693053125,64.0,95.0
31,12.454533,14.2177888125,48.0,89.0
32,11.999988,14.352258375,43.0,56.0
33,11.545443,14.393925,36.0,89.0
34,11.545443,14.62877325,55.0,90.0
35,13.363623,14.746197375,64.0,92.0
36,12.909078,14.905288125,60.0,64.0
37,15.636348,16.1647565625,57.0,82.0
38,15.181803,16.4090745,45.0,100.0
39,16.090893,16.4980895625,64.0,90.0
40,16.545438,18.35604225,45.0,69.0
41,16.545438,18.46210275,61.0,78.0
42,16.545438,18.4791481875,64.0,72.0
43,16.545438,18.6533904375,57.0,69.0
44,18.818163,19.8465710625,38.0,78.0
45,19.272708,19.87119225,45.0,50.0
46,19.727253,20.666646,66.0,107.0
47,20.181798,20.6761156875,62.0,53.0
48,20.636343,21.647705625,43.0,72.0
49,21.090888,21.7102055625,50.0,48.0
50,21.545433,22.40149275,62.0,96.0
51,21.999978,22.4223260625,59.0,52.0
52,22.909068,23.503764375,57.0,64.0
53,22.454523000000002,24.215884875,45.0,75.0
54,23.363613,24.215884875,64.0,93.0
55,23.818158,24.238612125,57.0,82.0
56,24.727248,25.087096125,59.0,66.0
57,24.272703,25.1268688125,47.0,92.0
58,25.181793,26.003761875,45.0,79.0
59,25.636338,26.12876175,64.0,76.0
60,26.545428,27.170427375,50.0,53.0
61,26.090883,27.17421525,43.0,90.0
62,27.6817905,27.9147448125,55.0,60.0
63,27.454518,27.9545175,59.0,65.0
64,26.999973,27.965881125,62.0,92.0
65,27.909063,29.291637375,40.0,67.0
66,28.363608,29.32572825,47.0,55.0
67,28.818153,29.6344400625,52.0,52.0
68,28.818153,29.761333875000002,67.0,86.0
69,29.272698,29.7670156875,64.0,57.0
70,29.727243,31.405271625,45.0,70.0
71,30.636333,32.272695,64.0,90.0
72,31.090878,32.4261039375,61.0,66.0
73,31.545423,32.6041340625,57.0,46.0
74,30.181788,32.655270375,52.0,54.0
75,31.545423,32.7404975625,45.0,51.0
76,32.454513,33.0359518125,64.0,97.0
77,32.6817855,33.3995878125,61.0,89.0
78,32.909058,33.4526180625,57.0,77.0
79,33.818148,34.4033746875,50.0,77.0
80,33.363603,34.511329125,38.0,82.0
81,33.5908755,34.5776169375,45.0,46.0
82,34.272693,35.1988284375,66.0,122.0
83,34.0454205,35.2272375,57.0,58.0
84,34.727238,35.253752625,62.0,65.0
85,35.636328,36.26511525,50.0,58.0
86,35.181783,36.314357625,43.0,71.0
87,36.090873,36.8957964375,62.0,96.0
88,36.545418,36.9109479375,59.0,62.0
89,37.454508,37.8048864375,64.0,95.0
90,36.999963,37.867386375,45.0,92.0
91,37.909053,38.7556430625,46.0,85.0
92,38.363598,38.8635975,58.0,74.0
93,39.272688,39.94692975,54.0,78.0
94,38.818143,40.0813993125,47.0,70.0
95,40.181778,40.636323,62.0,55.0
96,39.727233,40.640110875,66.0,100.0
97,40.4090505,40.6647320625,59.0,48.0
98,41.3181405,41.4563979375,64.0,23.0
99,41.090868,41.6874583125,47.0,54.0
100,40.636323,41.6912461875,40.0,70.0
101,41.999958,42.496169625,64.0,47.0
102,41.545413,42.5056393125,67.0,92.0
103,42.454503,43.63632,45.0,75.0
104,42.909048,43.64389575,52.0,58.0
105,43.818138,44.272683,61.0,62.0
106,43.363593,44.272683,64.0,89.0
107,44.272683,45.1609396875,43.0,73.0
108,44.727228,45.4260909375,55.0,66.0
109,45.181773,45.4980605625,59.0,66.0
110,45.636318,47.4999525,38.0,74.0
111,45.636318,47.882527875,62.0,67.0
112,45.636318,47.927982375,57.0,72.0
113,45.636318,47.9450278125,66.0,69.0
114,47.909043,48.973435875,38.0,66.0
115,48.363588,48.9753298125,45.0,45.0
116,49.272678,49.8238138125,62.0,60.0
117,48.818133,49.8276016875,66.0,117.0
118,49.727223,50.8238128125,43.0,73.0
119,50.181768,50.8332825,50.0,55.0
120,50.636313,51.541615125,62.0,97.0
121,51.090858,51.6003271875,59.0,82.0
122,51.999948,52.556765625,57.0,72.0
123,52.454493,53.2480528125,64.0,93.0
124,51.545403,53.302977,45.0,82.0
125,52.909038,53.3389618125,57.0,69.0
126,53.818128,54.34085475,54.0,65.0
127,53.363583,54.4601728125,47.0,95.0
128,54.272673,55.21964175,66.0,97.0
129,54.727218,55.2518386875,62.0,55.0
130,56.090853,57.344639625,52.0,82.0
131,57.454488,57.7253210625,52.0,47.0
132,56.545398,57.9715329375,55.0,85.0
133,55.181763000000004,58.0150935,40.0,92.0
134,55.636308,58.02266925,47.0,55.0
135,57.909033,58.7935018125,59.0,93.0
136,58.363578,58.79539575,55.0,78.0
137,56.999943,58.818123,64.0,95.0
138,59.272668,59.91660675,52.0,63.0
139,58.818123,60.5510758125,45.0,83.0
140,59.727213,60.5548636875,64.0,100.0
141,60.181758,60.564333375,61.0,86.0
142,60.636303,61.5131960625,45.0,93.0
143,61.090848,61.5245596875,57.0,85.0
144,61.545393,62.132513625,43.0,107.0
145,61.999938,62.4791041875,55.0,86.0
146,62.909028,63.7518301875,54.0,73.0
147,62.454483,63.82569375,42.0,97.0
148,63.363573,64.3237993125,66.0,102.0
149,63.818118,64.32569325,61.0,90.0
150,64.272663,65.575692,43.0,83.0
151,64.727208,65.814328125,50.0,56.0
152,65.181753,66.0131915625,62.0,100.0
153,65.636298,66.090843,59.0,90.0
154,66.090843,66.97720575,45.0,88.0
155,66.545388,67.0321299375,57.0,85.0
156,66.999933,67.6078869375,46.0,95.0
157,67.454478,67.912810875,58.0,107.0
158,68.363568,69.0548551875,54.0,76.0
159,67.909023,69.0775824375,47.0,85.0
160,68.818113,69.602203125,66.0,112.0
161,69.272658,69.7253090625,62.0,69.0
162,69.4999305,69.727203,59.0,59.0
163,70.636293,71.806746375,52.0,95.0
164,71.090838,72.1533369375,59.0,83.0
165,69.727203,72.594624375,40.0,95.0
166,70.181748,72.6419728125,47.0,60.0
167,71.999928,72.8540938125,52.0,63.0
168,71.545383,73.34083575,67.0,102.0
169,72.45447300000001,73.352199375,64.0,97.0
170,72.909018,73.3995478125,59.0,88.0
171,73.818108,74.412804375,52.0,90.0
172,73.363563,74.99234925,45.0,92.0
173,74.272653,75.0756825,64.0,112.0
174,74.9544705,75.1306066875,59.0,64.0
175,74.4999255,75.1798490625,52.0,68.0
176,74.727198,75.6722728125,61.0,107.0
177,75.181743,75.67416675,57.0,70.0
178,75.181743,75.696894,64.0,71.0
179,75.181743,75.7025758125,45.0,96.0
180,77.454468,77.9487856875,50.0,95.0
181,77.6817405,78.0813613125,57.0,90.0
182,78.1362855,78.321891375,50.0,75.0
183,76.999923,78.46204275,38.0,99.0
184,77.909013,78.844618125,66.0,127.0
185,77.2271955,78.85598175,45.0,93.0
186,78.5908305,78.91658775,57.0,92.0
187,78.363558,78.920375625,62.0,82.0
188,79.272648,79.7726475,50.0,88.0
189,79.4999205,79.8768140625,57.0,92.0
190,78.818103,80.094616875,38.0,74.0
191,79.0453755,80.09840475,45.0,82.0
192,79.9544655,80.314313625,50.0,89.0
193,80.181738,80.5093891875,61.0,117.0
194,80.4090105,80.6722678125,62.0,93.0
195,79.727193,80.693101125,66.0,127.0
196,81.090828,81.4790851875,59.0,86.0
197,81.3181005,81.5586305625,61.0,112.0
198,80.8635555,81.6514335,54.0,96.0
199,81.999918,82.284008625,62.0,86.0
200,80.636283,82.3313570625,47.0,93.0
201,81.7726455,82.4298418125,54.0,92.0
202,82.2271905,82.4601448125,61.0,107.0
203,81.545373,82.46203875,66.0,117.0
204,82.909008,83.412795375,59.0,77.0
205,83.1362805,83.4999165,62.0,100.0
206,83.5908255,83.73476475,59.0,97.0
207,82.6817355,83.7404465625,54.0,90.0
208,82.454463,83.8465070625,47.0,89.0
209,83.818098,84.132491625,66.0,112.0
210,83.363553,84.230976375,71.0,127.0
211,84.0453705,84.272643,62.0,90.0
212,84.727188,84.9980210625,55.0,89.0
213,84.9544605,85.2139299375,59.0,99.0
214,84.4999155,85.2896874375,50.0,93.0
215,84.272643,85.6760506875,43.0,99.0
216,85.4090055,86.03779275,50.0,97.0
217,85.636278,86.0624139375,59.0,96.0
218,85.8635505,86.0756715,55.0,93.0
219,85.181733,86.0775654375,62.0,99.0
220,86.545368,86.81051925,57.0,90.0
221,86.3180955,87.1381704375,52.0,85.0
222,87.2271855,87.397639875,52.0,95.0
223,86.090823,87.4752913125,45.0,95.0
224,86.999913,87.503700375,61.0,122.0
225,86.7726405,87.8332455,64.0,93.0
226,87.6817305,87.86165456250001,61.0,117.0
227,87.454458,88.0055938125,57.0,95.0
228,88.363548,88.8389263125,50.0,93.0
229,88.5908205,88.9544565,57.0,86.0
230,89.0453655,89.2555925625,50.0,97.0
231,87.909003,89.3427136875,38.0,88.0
232,88.818093,89.56809225,66.0,127.0
233,88.1362755,89.5851376875,45.0,93.0
234,89.272638,89.587031625,62.0,100.0
235,89.4999105,89.685516375,57.0,112.0
236,89.9544555,90.291576375,52.0,89.0
237,90.181728,90.49233375,59.0,99.0
238,90.4090005,90.5775609375,52.0,112.0
239,89.727183,90.609757875,40.0,127.0
240,90.636273,91.3464995625,42.0,122.0
241,90.8635455,91.496120625,54.0,100.0
242,91.999908,92.276422875,55.0,83.0
243,92.2271805,92.52263475,59.0,92.0
244,91.7726355,92.5472559375,50.0,89.0
245,91.545363,93.0131645625,43.0,99.0
246,92.908998,93.2631643125,55.0,93.0
247,92.6817255,93.2821036875,50.0,88.0
248,93.1362705,93.2896794375,59.0,95.0
249,92.454453,93.363543,62.0,100.0
250,93.818088,94.533996375,57.0,93.0
251,94.0453605,94.6305871875,61.0,127.0
252,93.5908155,94.9336171875,52.0,82.0
253,93.363543,95.1230109375,43.0,90.0
254,94.95445050000001,95.1874048125,61.0,122.0
255,94.272633,95.20445025,64.0,90.0
256,94.727178,95.2063441875,57.0,97.0
257,94.4999055,95.2139199375,67.0,99.0
258,95.636268,96.155206875,54.0,96.0
259,95.8635405,96.337024875,57.0,92.0
260,95.181723,96.420358125,42.0,83.0
261,95.4089955,96.420358125,49.0,34.0
262,96.3180855,96.579448875,54.0,88.0
263,96.54535800000001,96.9714939375,61.0,102.0
264,96.090813,96.999903,66.0,112.0
265,96.7726305,97.0169484375,57.0,95.0
266,97.6817205,97.920356625,62.0,86.0
267,97.454448,97.9866444375,59.0,83.0
268,97.2271755,98.0169474375,54.0,99.0
269,98.1362655,98.2404320625,54.0,99.0
270,96.999903,98.291568375,47.0,78.0
271,97.908993,98.6817195,66.0,127.0
272,98.363538,98.73474975,62.0,99.0
273,98.5908105,98.8540678125,59.0,92.0
274,99.272628,99.7707335625,52.0,89.0
275,99.4999005,99.799142625,59.0,90.0
276,99.9544455,100.132475625,52.0,95.0
277,99.727173,100.4487631875,67.0,127.0
278,98.818083,100.4828540625,40.0,75.0
279,100.181718,100.4828540625,64.0,97.0
280,100.4089905,100.60596,59.0,88.0
281,99.0453555,100.6078539375,47.0,72.0
282,101.3180805,101.5927014375,56.0,117.0
283,101.090808,101.647625625,52.0,95.0
284,101.7726255,101.9146708125,52.0,93.0
285,101.545353,101.9525495625,59.0,112.0
286,100.8635355,102.0358828125,47.0,92.0
287,100.636263,102.0756555,40.0,92.0
288,101.999898,102.37110975,56.0,127.0
289,102.2271705,102.41656425,59.0,97.0
290,102.908988,103.4373965625,48.0,107.0
291,103.1362605,103.4998965,55.0,93.0
292,102.454443,103.7745174375,36.0,95.0
293,102.6817155,103.7972446875,43.0,95.0
294,103.5908055,103.8161840625,48.0,97.0
295,103.818078,104.132471625,60.0,107.0
296,103.363533,104.1457291875,64.0,117.0
297,104.0453505,104.2517896875,55.0,92.0
298,104.727168,105.1684554375,52.0,99.0
299,104.9544405,105.2877735,57.0,102.0
300,104.4998955,105.526409625,49.0,117.0
301,105.4089855,105.5737580625,52.0,97.0
302,104.272623,105.59837925,45.0,127.0
303,105.636258,105.939288,61.0,127.0
304,105.181713,105.973378875,64.0,127.0
305,105.8635305,106.1116363125,57.0,107.0
306,106.545348,107.030196,50.0,93.0
307,106.7726205,107.155195875,57.0,93.0
308,107.2271655,107.420347125,50.0,97.0
309,106.090803,107.814286125,38.0,96.0
310,106.999893,107.93171025,66.0,127.0
311,106.3180755,107.9847405,45.0,97.0
312,107.454438,108.011255625,62.0,97.0
313,107.6817105,108.033982875,57.0,107.0
314,108.363528,108.867315375,50.0,92.0
315,108.5908005,108.908982,57.0,100.0
316,107.908983,109.1002696875,38.0,85.0
317,108.1362555,109.1646635625,45.0,73.0
318,109.0453455,109.34079975,50.0,97.0
319,109.272618,109.6154206875,61.0,127.0
320,109.4998905,109.757466,62.0,83.0
321,108.818073,109.7745114375,66.0,127.0
322,110.181708,110.5661773125,59.0,92.0
323,110.4089805,110.60595,61.0,100.0
324,109.9544355,110.7328438125,54.0,93.0
325,110.8635255,111.0851161875,54.0,99.0
326,109.727163,111.1949645625,47.0,88.0
327,111.090798,111.4298128125,61.0,127.0
328,110.636253,111.4866309375,66.0,122.0
329,111.3180705,111.5472369375,59.0,97.0
330,111.545343,112.9184476875,38.0,93.0
331,111.7726155,112.9714779375,45.0,83.0
332,111.999888,113.0017809375,50.0,95.0
333,112.6817055,113.011250625,60.0,117.0
334,112.2271605,113.3085988125,57.0,90.0
335,113.1362505,113.44685625,60.0,90.0
336,112.908978,113.4563259375,62.0,97.0
337,112.454433,113.4714774375,66.0,117.0
338,113.818068,114.3540523125,55.0,99.0
339,114.0453405,114.4373855625,59.0,89.0
340,114.4998855,114.6646580625,55.0,93.0
341,113.363523,114.84837,43.0,86.0
342,113.5907955,115.0756425,50.0,88.0
343,114.727158,115.0889000625,62.0,100.0
344,114.272613,115.1078394375,67.0,112.0
345,114.9544305,115.208218125,59.0,85.0
346,115.636248,115.88624775,57.0,85.0
347,115.8635205,116.1229899375,61.0,117.0
348,115.4089755,116.181702,52.0,85.0
349,116.3180655,116.488519875,52.0,88.0
350,115.181703,116.541550125,45.0,76.0
351,116.545338,116.9222315625,61.0,117.0
352,116.090793,116.93170125,64.0,90.0
353,116.7726105,117.0756405,57.0,96.0
354,117.45442800000001,117.9411699375,50.0,89.0
355,117.6817005,118.0131395625,57.0,97.0
356,118.1362455,118.43169975,50.0,99.0
357,116.999883,118.480942125,38.0,81.0
358,118.363518,118.670335875,57.0,112.0
359,117.908973,118.670335875,66.0,127.0
360,117.2271555,118.70442675,45.0,68.0
361,118.5907905,119.0150325,62.0,92.0
362,119.04533550000001,119.3805624375,59.0,90.0
363,119.272608,119.5926834375,64.0,127.0
364,119.4998805,119.685486375,59.0,102.0
365,118.818063,119.6987439375,40.0,100.0
366,119.9544255,120.2441979375,54.0,100.0
367,119.727153,120.2517736875,42.0,122.0
368,120.181698,120.58321275,61.0,117.0
369,120.4089705,120.609727875,54.0,92.0
370,121.090788,121.4070755625,55.0,89.0
371,120.8635155,121.6229844375,50.0,83.0
372,121.3180605,121.662757125,59.0,93.0
373,120.636243,122.238514125,43.0,83.0
374,121.999878,122.32563525,59.0,107.0
375,121.545333,122.3313170625,62.0,102.0
376,121.7726055,122.359726125,50.0,88.0
377,122.2271505,122.488513875,55.0,97.0
378,122.908968,123.4563159375,61.0,127.0
379,123.1362405,123.47714925,64.0,89.0
380,122.6816955,123.5472249375,57.0,93.0
381,122.454423,124.056694125,43.0,92.0
382,123.363513,124.26502725,67.0,112.0
383,124.0453305,124.29533025,57.0,95.0
384,123.818058,124.3180575,61.0,97.0
385,123.5907855,124.3180575,64.0,96.0
386,124.9544205,125.230935375,61.0,117.0
387,124.4998755,125.2555565625,54.0,86.0
388,124.727148,125.276389875,57.0,86.0
389,124.272603,125.518813875,42.0,96.0
390,125.4089655,125.700631875,54.0,86.0
391,125.636238,126.0472224375,57.0,92.0
392,125.8635105,126.0775254375,61.0,127.0
393,125.181693,126.1078284375,66.0,122.0
394,126.7726005,127.0510093125,62.0,107.0
395,126.545328,127.1191910625,59.0,86.0
396,126.3180555,127.1343425625,54.0,89.0
397,127.2271455,127.397599875,54.0,107.0
398,126.090783,127.458205875,47.0,86.0
399,126.999873,127.7631298125,66.0,127.0
400,127.454418,127.7820691875,62.0,127.0
401,127.6816905,127.999872,59.0,97.0
402,128.363508,128.874871125,52.0,95.0
403,128.5907805,128.9146438125,59.0,88.0
404,127.908963,129.1797950625,40.0,83.0
405,128.1362355,129.215779875,47.0,77.0
406,129.0453255,129.545325,52.0,93.0
407,129.272598,129.6532794375,64.0,107.0
408,128.818053,129.6760066875,67.0,122.0
409,129.49987050000001,129.7479763125,59.0,97.0
410,130.181688,130.5850966875,57.0,82.0
411,129.9544155,131.1191870625,52.0,69.0
412,129.727143,131.1949445625,45.0,72.0
413,130.4089605,131.545323,61.0,96.0
414,130.636233,131.545323,64.0,79.0
415,131.545323,131.8199439375,74.0,96.0
416,131.7725955,132.0320649375,73.0,82.0
417,131.999868,132.272595,69.0,79.0
418,132.2271405,132.67979156250001,74.0,95.0
419,132.6816855,132.939261,73.0,72.0
420,132.454413,133.071836625,55.0,68.0
421,132.908958,133.1343365625,69.0,81.0
422,131.545323,133.211988,43.0,86.0
423,131.999868,133.352139375,50.0,54.0
424,132.908958,133.5131240625,59.0,67.0
425,133.5907755,133.859714625,73.0,76.0
426,133.1362305,133.9487296875,74.0,92.0
427,133.818048,134.049108375,69.0,74.0
428,133.363503,134.4676685625,45.0,88.0
429,133.818048,134.5017594375,52.0,62.0
430,134.0453205,134.6570623125,74.0,83.0
431,134.4998655,134.757441,73.0,89.0
432,134.727138,135.1494860625,69.0,79.0
433,134.272593,135.246076875,64.0,93.0
434,135.181683,135.4089555,74.0,89.0
435,135.4089555,135.6267583125,73.0,74.0
436,135.636228,135.927894375,69.0,76.0
437,135.636228,136.124863875,54.0,73.0
438,135.181683,136.1760001875,47.0,72.0
439,135.8635005,136.1987274375,74.0,92.0
440,136.3180455,136.5358483125,73.0,72.0
441,136.545318,136.7555450625,69.0,69.0
442,136.545318,136.9638781875,59.0,59.0
443,136.090773,136.999863,66.0,97.0
444,136.7725905,137.230923375,74.0,81.0
445,137.2271355,137.4108474375,73.0,61.0
446,137.454408,137.8938015,69.0,76.0
447,137.6816805,137.9146348125,74.0,99.0
448,136.999863,138.1987254375,42.0,89.0
449,137.454408,138.299104125,49.0,58.0
450,138.1362255,138.3540283125,73.0,83.0
451,138.363498,138.609709875,74.0,78.0
452,138.363498,138.7422855,61.0,86.0
453,137.908953,138.818043,66.0,93.0
454,138.5907705,138.8426641875,81.0,85.0
455,138.818043,139.0926639375,74.0,93.0
456,139.0453155,139.3313000625,73.0,79.0
457,139.272588,139.56804225,69.0,69.0
458,139.4998605,139.8028905,55.0,50.0
459,139.4998605,139.943041875,74.0,93.0
460,138.818043,140.1911476875,43.0,93.0
461,139.9544055,140.20440525,73.0,59.0
462,139.272588,140.31046575,50.0,72.0
463,140.181678,140.4525110625,69.0,66.0
464,140.4089505,140.6229654375,55.0,50.0
465,139.727133,140.632435125,62.0,107.0
466,140.181678,140.6797835625,59.0,83.0
467,140.4089505,140.8994803125,74.0,95.0
468,140.8634955,141.1267528125,73.0,59.0
469,141.090768,141.336979875,69.0,67.0
470,141.090768,141.636222,52.0,60.0
471,141.3180405,141.6419038125,74.0,99.0
472,140.636223,141.65894925,45.0,82.0
473,141.999858,142.4032666875,61.0,112.0
474,141.545313,142.454403,64.0,102.0
475,142.454403,142.72713,72.0,100.0
476,142.6816755,142.91652375,71.0,70.0
477,142.454403,142.9373570625,60.0,100.0
478,142.454403,142.96197825,64.0,96.0
479,142.908948,143.18925075,67.0,72.0
480,142.454403,143.193038625,36.0,64.0
481,142.454403,143.3161445625,48.0,93.0
482,142.908948,143.397583875,55.0,92.0
483,143.363493,143.6153866875,60.0,117.0
484,143.1362205,144.1229619375,72.0,97.0
485,143.818038,145.064248875,64.0,97.0
486,143.818038,145.08318825,61.0,127.0
487,143.818038,145.162733625,57.0,99.0
488,143.818038,145.2252335625,52.0,93.0
489,143.818038,146.056672125,45.0,92.0
490,145.181673,146.1153841875,61.0,112.0
491,145.636218,146.1362175,57.0,78.0
492,145.181673,146.14379325,64.0,99.0
493,146.090763,147.155155875,38.0,66.0
494,146.545308,147.1570498125,45.0,45.0
495,147.454398,148.0055338125,62.0,60.0
496,146.999853,148.0093216875,66.0,117.0
497,147.908943,149.0055328125,43.0,73.0
498,148.363488,149.0150025,50.0,55.0
499,148.818033,149.723335125,62.0,97.0
500,149.272578,149.7820471875,59.0,82.0
501,150.181668,150.738485625,57.0,72.0
502,150.636213,151.4297728125,64.0,93.0
503,149.727123,151.484697,45.0,82.0
504,151.090758,151.5206818125,57.0,69.0
505,151.99984800000001,152.52257475,54.0,65.0
506,151.545303,152.6418928125,47.0,95.0
507,152.454393,153.40136175,66.0,97.0
508,152.908938,153.4335586875,62.0,55.0
509,154.272573,155.526359625,52.0,82.0
510,155.636208,155.9070410625,52.0,47.0
511,154.727118,156.1532529375,55.0,85.0
512,153.363483,156.1968135,40.0,92.0
513,153.818028,156.20438925,47.0,55.0
514,156.090753,156.9752218125,59.0,93.0
515,156.545298,156.97711575,55.0,78.0
516,155.18166300000001,156.999843,64.0,95.0
517,157.454388,158.09832675,52.0,63.0
518,156.999843,158.7327958125,45.0,83.0
519,157.908933,158.7365836875,64.0,100.0
520,158.363478,158.746053375,61.0,86.0
521,158.818023,159.6949160625,45.0,93.0
522,159.272568,159.7062796875,57.0,85.0
523,159.727113,160.314233625,43.0,107.0
524,160.181658,160.6608241875,55.0,86.0
525,161.090748,161.9335501875,54.0,73.0
526,160.636203,162.00741375,42.0,97.0
527,161.545293,162.5055193125,66.0,102.0
528,161.999838,162.50741325,61.0,90.0
529,162.454383,163.757412,43.0,83.0
530,162.908928,163.996048125,50.0,56.0
531,163.363473,164.1949115625,62.0,100.0
532,163.818018,164.272563,59.0,90.0
533,164.272563,165.15892575,45.0,88.0
534,164.727108,165.2138499375,57.0,85.0
535,165.181653,165.7896069375,46.0,95.0
536,165.636198,166.094530875,58.0,107.0
537,166.545288,167.2365751875,54.0,76.0
538,166.090743,167.2593024375,47.0,85.0
539,166.999833,167.783923125,66.0,112.0
540,167.454378,167.9070290625,62.0,69.0
541,167.6816505,167.908923,59.0,59.0
542,168.818013,169.988466375,52.0,95.0
543,169.272558,170.3350569375,59.0,83.0
544,167.908923,170.776344375,40.0,95.0
545,168.363468,170.8236928125,47.0,60.0
546,170.181648,171.0358138125,52.0,63.0
547,169.727103,171.52255575,67.0,102.0
548,170.636193,171.533919375,64.0,97.0
549,171.090738,171.5812678125,59.0,88.0
550,171.999828,172.594524375,52.0,90.0
551,171.545283,173.17406925,45.0,92.0
552,172.454373,173.2574025,64.0,112.0
553,173.1361905,173.3123266875,59.0,64.0
554,172.6816455,173.3615690625,52.0,68.0
555,172.908918,173.8539928125,61.0,107.0
556,173.363463,173.85588675,57.0,70.0
557,173.363463,173.878614,64.0,71.0
558,173.363463,173.8842958125,45.0,96.0
559,175.636188,176.1305056875,50.0,95.0
560,175.8634605,176.2630813125,57.0,90.0
561,176.3180055,176.503611375,50.0,75.0
562,175.181643,176.64376275,38.0,99.0
563,176.090733,177.026338125,66.0,127.0
564,175.4089155,177.03770175,45.0,93.0
565,176.7725505,177.09830775,57.0,92.0
566,176.545278,177.102095625,62.0,82.0
567,177.454368,177.9543675,50.0,88.0
568,177.68164050000001,178.0585340625,57.0,92.0
569,176.999823,178.276336875,38.0,74.0
570,177.2270955,178.28012475,45.0,82.0
571,178.1361855,178.496033625,50.0,89.0
572,178.363458,178.6911091875,61.0,117.0
573,178.5907305,178.8539878125,62.0,93.0
574,177.908913,178.874821125,66.0,127.0
575,179.272548,179.6608051875,59.0,86.0
576,179.4998205,179.7403505625,61.0,112.0
577,179.0452755,179.8331535,54.0,96.0
578,180.181638,180.465728625,62.0,86.0
579,178.818003,180.5130770625,47.0,93.0
580,179.9543655,180.6115618125,54.0,92.0
581,180.4089105,180.6418648125,61.0,107.0
582,179.727093,180.64375875,66.0,117.0
583,181.090728,181.59451537500001,59.0,77.0
584,181.3180005,181.6816365,62.0,100.0
585,181.7725455,181.91648475,59.0,97.0
586,180.8634555,181.9221665625,54.0,90.0
587,180.636183,182.0282270625,47.0,89.0
588,181.999818,182.314211625,66.0,112.0
589,181.545273,182.412696375,71.0,127.0
590,182.2270905,182.454363,62.0,90.0
591,182.908908,183.1797410625,55.0,89.0
592,183.1361805,183.3956499375,59.0,99.0
593,182.6816355,183.4714074375,50.0,93.0
594,182.454363,183.8577706875,43.0,99.0
595,183.5907255,184.21951275,50.0,97.0
596,183.817998,184.2441339375,59.0,96.0
597,184.0452705,184.2573915,55.0,93.0
598,183.363453,184.2592854375,62.0,99.0
599,184.727088,184.99223925,57.0,90.0
600,184.4998155,185.3198904375,52.0,85.0
601,185.4089055,185.579359875,52.0,95.0
602,184.272543,185.6570113125,45.0,95.0
603,185.181633,185.685420375,61.0,122.0
604,184.9543605,186.0149655,64.0,93.0
605,185.8634505,186.0433745625,61.0,117.0
606,185.636178,186.1873138125,57.0,95.0
607,186.545268,187.0206463125,50.0,93.0
608,186.7725405,187.1361765,57.0,86.0
609,187.2270855,187.4373125625,50.0,97.0
610,186.090723,187.5244336875,38.0,88.0
611,186.999813,187.74981225,66.0,127.0
612,186.3179955,187.7668576875,45.0,93.0
613,187.454358,187.768751625,62.0,100.0
614,187.6816305,187.867236375,57.0,112.0
615,188.1361755,188.473296375,52.0,89.0
616,188.363448,188.67405375,59.0,99.0
617,188.5907205,188.7592809375,52.0,112.0
618,187.908903,188.791477875,40.0,127.0
619,188.817993,189.5282195625,42.0,122.0
620,189.0452655,189.677840625,54.0,100.0
621,190.181628,190.458142875,55.0,83.0
622,190.4089005,190.70435475,59.0,92.0
623,189.9543555,190.7289759375,50.0,89.0
624,189.727083,191.1948845625,43.0,99.0
625,191.090718,191.4448843125,55.0,93.0
626,190.8634455,191.4638236875,50.0,88.0
627,191.3179905,191.4713994375,59.0,95.0
628,190.636173,191.545263,62.0,100.0
629,191.999808,192.715716375,57.0,93.0
630,192.2270805,192.8123071875,61.0,127.0
631,191.7725355,193.1153371875,52.0,82.0
632,191.545263,193.3047309375,43.0,90.0
633,193.1361705,193.3691248125,61.0,122.0
634,192.454353,193.38617025,64.0,90.0
635,192.908898,193.3880641875,57.0,97.0
636,192.6816255,193.3956399375,67.0,99.0
637,193.817988,194.336926875,54.0,96.0
638,194.0452605,194.518744875,57.0,92.0
639,193.363443,194.602078125,42.0,83.0
640,193.5907155,194.602078125,49.0,34.0
641,194.4998055,194.761168875,54.0,88.0
642,194.727078,195.1532139375,61.0,102.0
643,194.272533,195.181623,66.0,112.0
644,194.9543505,195.1986684375,57.0,95.0
645,195.8634405,196.102076625,62.0,86.0
646,195.636168,196.1683644375,59.0,83.0
647,195.4088955,196.1986674375,54.0,99.0
648,196.3179855,196.4221520625,54.0,99.0
649,195.181623,196.473288375,47.0,78.0
650,196.090713,196.8634395,66.0,127.0
651,196.545258,196.91646975,62.0,99.0
652,196.7725305,196.999803,59.0,92.0
653,197.6816205,197.912680875,55.0,92.0
654,197.454348,197.939196,52.0,96.0
655,197.2270755,198.1873018125,47.0,96.0
656,196.999803,198.200559375,40.0,93.0
657,198.1361655,198.3123016875,52.0,89.0
658,197.908893,198.336922875,59.0,102.0
659,198.363438,198.6816195,55.0,96.0
660,198.5907105,198.8028315,59.0,100.0
661,198.817983,198.927831375,68.0,117.0
662,198.817983,198.927831375,68.0,127.0
663,198.817983,198.9373010625,71.0,97.0
664,198.817983,198.9373010625,71.0,100.0
665,198.817983,198.9410889375,64.0,97.0
666,198.817983,198.9410889375,64.0,112.0
667,199.4998005,199.65889125,56.0,102.0
668,199.272528,199.7630578125,52.0,100.0
669,199.0452555,199.8577546875,47.0,99.0
670,198.817983,200.0471484375,40.0,92.0
671,199.9543455,200.1191180625,47.0,99.0
672,199.727073,200.238436125,59.0,112.0
673,200.18161800000001,200.4391935,56.0,127.0
674,200.4088905,200.496011625,59.0,90.0
675,200.636163,201.1569958125,43.0,117.0
676,200.636163,201.1835109375,64.0,97.0
677,200.636163,201.1910866875,57.0,107.0
678,200.636163,201.1948745625,61.0,117.0
679,201.3179805,201.3804804375,64.0,58.0
680,201.3179805,201.4751773125,57.0,97.0
681,201.3179805,201.5054803125,43.0,117.0
682,201.545253,202.1948735625,67.0,96.0
683,201.545253,202.272525,57.0,107.0
684,201.545253,202.272525,64.0,96.0
685,201.545253,202.2782068125,61.0,127.0
686,201.545253,202.302828,45.0,127.0
687,202.454343,202.7744184375,62.0,97.0
688,202.454343,202.7819941875,65.0,92.0
689,202.454343,202.7857820625,58.0,127.0
690,202.454343,202.787676,46.0,122.0
691,204.9410829375,205.1872948125,58.0,112.0
692,204.4638106875,205.230855375,51.0,97.0
693,204.727068,205.230855375,51.0,97.0
694,204.71949225,205.291461375,55.0,73.0
695,204.9543405,205.291461375,55.0,89.0
696,205.397521875,205.859642625,51.0,99.0
697,205.4088855,205.859642625,51.0,97.0
698,204.24979575,205.939188,39.0,95.0
699,204.272523,205.939188,39.0,83.0
700,205.5963853125,205.958127375,58.0,117.0
701,205.636158,205.958127375,58.0,117.0
702,206.090703,206.0963848125,51.0,97.0
703,205.821763875,206.102066625,55.0,97.0
704,205.8634305,206.102066625,55.0,88.0
705,205.181613,206.200551375,63.0,127.0
706,205.185400875,206.200551375,63.0,127.0
707,206.3179755,206.5092631875,58.0,127.0
708,206.28009675,206.5774449375,51.0,96.0
709,204.4997955,206.59827825,46.0,38.0
710,206.041460625,206.662672125,39.0,78.0
711,206.727066,206.8918385625,58.0,117.0
712,206.7725205,206.8918385625,58.0,92.0
713,206.4978995625,206.912671875,55.0,85.0
714,206.545248,206.912671875,55.0,93.0
715,206.999793,207.0774444375,55.0,102.0
716,207.18918675,207.420247125,51.0,112.0
717,207.427822875,207.7478983125,55.0,102.0
718,206.999793,207.81039825,62.0,100.0
719,207.67403475,207.8198679375,58.0,127.0
720,206.9638081875,207.821761875,63.0,127.0
721,206.999793,207.829337625,43.0,88.0
722,206.999793,207.829337625,59.0,100.0
723,207.88615575,207.908883,48.0,97.0
724,208.5907005,208.8028215,60.0,93.0
725,208.363428,208.8918365625,48.0,95.0
726,208.817973,209.0244121875,60.0,38.0
727,208.817973,209.2895634375,67.0,127.0
728,209.0452455,209.52251775,48.0,97.0
729,207.908883,209.5603965,36.0,95.0
730,208.1361555,209.575548,43.0,89.0
731,209.272518,209.5925934375,60.0,100.0
732,209.4997905,209.617214625,67.0,97.0
733,209.727063,210.0888050625,60.0,100.0
734,209.727063,210.1001686875,67.0,127.0
735,210.181608,210.3009260625,67.0,68.0
736,209.727063,210.3350169375,36.0,86.0
737,209.727063,210.450547125,48.0,117.0
738,209.727063,210.5774409375,43.0,73.0
739,210.181608,210.594486375,60.0,112.0
740,210.636153,211.488424875,37.0,102.0
741,210.636153,211.5281975625,61.0,127.0
742,211.999788,212.2706210625,56.0,89.0
743,212.2270605,212.4865299375,60.0,99.0
744,211.7725155,212.5622874375,51.0,93.0
745,211.545243,212.9486506875,44.0,99.0
746,212.6816055,213.31039275,51.0,97.0
747,212.908878,213.3350139375,60.0,96.0
748,213.1361505,213.3482715,56.0,93.0
749,212.454333,213.3501654375,63.0,99.0
750,213.817968,214.08311925,58.0,90.0
751,213.5906955,214.4107704375,53.0,85.0
752,214.4997855,214.670239875,53.0,95.0
753,213.363423,214.7478913125,46.0,95.0
754,214.272513,214.776300375,62.0,122.0
755,214.0452405,215.1058455,65.0,93.0
756,214.9543305,215.1342545625,62.0,117.0
757,214.727058,215.2781938125,58.0,95.0
758,215.181603,215.700541875,65.0,100.0
759,215.181603,215.7137994375,68.0,107.0
760,215.181603,215.9562234375,61.0,117.0
761,215.636148,216.1494050625,49.0,90.0
762,216.090693,216.1797080625,61.0,95.0
763,216.090693,216.49220775,65.0,97.0
764,215.181603,216.5130410625,37.0,99.0
765,216.090693,216.5850106875,68.0,117.0
766,216.3179655,216.62857125,49.0,100.0
767,216.545238,216.8274346875,61.0,112.0
768,216.7725105,217.0319799375,63.0,117.0
769,217.6816005,217.814176125,70.0,117.0
770,217.2270555,217.9903123125,51.0,107.0
771,217.454328,218.1115243125,63.0,107.0
772,218.1361455,218.3994028125,51.0,102.0
773,216.999783,218.5319784375,39.0,107.0
774,218.363418,218.6721298125,63.0,102.0
775,217.908873,218.7478873125,70.0,127.0
776,219.272508,219.549022875,56.0,83.0
777,219.4997805,219.79523475,60.0,92.0
778,219.0452355,219.8198559375,51.0,89.0
779,218.817963,220.2857645625,44.0,99.0
780,220.181598,220.5357643125,56.0,93.0
781,219.9543255,220.5547036875,51.0,88.0
782,220.4088705,220.5622794375,60.0,95.0
783,219.727053,220.636143,63.0,100.0
784,221.090688,221.806596375,58.0,93.0
785,221.3179605,221.9031871875,62.0,127.0
786,220.8634155,222.2062171875,53.0,82.0
787,220.636143,222.3956109375,44.0,90.0
788,222.2270505,222.4600048125,62.0,122.0
789,221.545233,222.47705025,65.0,90.0
790,221.999778,222.4789441875,58.0,97.0
791,221.7725055,222.4865199375,68.0,99.0
792,222.908868,223.427806875,55.0,96.0
793,223.1361405,223.609624875,58.0,92.0
794,222.454323,223.692958125,43.0,83.0
795,222.68159550000001,223.692958125,50.0,34.0
796,223.5906855,223.852048875,55.0,88.0
797,223.817958,224.2440939375,62.0,102.0
798,223.363413,224.272503,67.0,112.0
799,224.0452305,224.2895484375,58.0,95.0
800,224.9543205,225.192956625,63.0,86.0
801,224.727048,225.2592444375,60.0,83.0
802,224.4997755,225.2895474375,55.0,99.0
803,225.4088655,225.5130320625,55.0,99.0
804,224.272503,225.564168375,48.0,78.0
805,225.181593,225.9543195,67.0,127.0
806,225.636138,226.00734975,63.0,99.0
807,225.86341050000001,226.1266678125,60.0,92.0
808,226.545228,227.0433335625,53.0,89.0
809,226.7725005,227.071742625,60.0,90.0
810,227.2270455,227.405075625,53.0,95.0
811,226.999773,227.7213631875,68.0,127.0
812,226.090683,227.7554540625,41.0,75.0
813,227.454318,227.7554540625,65.0,97.0
814,227.6815905,227.87856,60.0,88.0
815,226.3179555,227.8804539375,48.0,72.0
816,228.363408,228.5925744375,58.0,117.0
817,228.5906805,228.8842408125,62.0,69.0
818,228.1361355,229.26492225,53.0,71.0
819,227.908863,229.31037675,46.0,107.0
820,229.0452255,229.68916425,62.0,59.0
821,228.817953,229.715679375,65.0,95.0
822,229.272498,229.727043,58.0,86.0
823,230.181588,230.68916325,51.0,93.0
824,230.4088605,230.787648,55.0,57.0
825,230.8634055,231.4259049375,51.0,75.0
826,229.9543155,231.44673825,46.0,47.0
827,230.636133,231.5243896875,63.0,117.0
828,231.090678,231.5395411875,58.0,89.0
829,229.727043,231.545223,39.0,90.0
830,231.3179505,231.545223,55.0,67.0
831,231.545223,232.655070375,36.0,57.0
832,231.7724955,232.920221625,43.0,62.0
833,232.2270405,232.9334791875,55.0,63.0
834,231.999768,232.973251875,48.0,86.0
835,232.454313,233.32552425,63.0,107.0
836,232.908858,233.363403,60.0,66.0
837,233.3615090625,234.0319629375,68.0,69.0
838,233.3463575625,234.181584,63.0,70.0
839,233.3577211875,234.730825875,44.0,81.0
840,233.814160125,234.783856125,51.0,35.0
841,234.2705990625,234.7857500625,56.0,72.0
842,234.7118865,235.215673875,63.0,72.0
843,234.26491725,235.2251435625,68.0,97.0
844,236.0509003125,236.450521125,58.0,89.0
845,235.605825,236.511127125,53.0,50.0
846,235.1664315,236.5887785625,46.0,79.0
847,236.056582125,236.920217625,65.0,92.0
848,236.5168089375,236.927793375,62.0,79.0
849,236.999763,238.1380194375,43.0,71.0
850,238.33309500000001,238.817943,58.0,77.0
851,237.8804439375,238.8349884375,62.0,93.0
852,237.41642925,238.874761125,55.0,71.0
853,239.2062001875,239.848245,43.0,65.0
854,238.7668066875,239.852032875,36.0,76.0
855,240.14369925,240.5963503125,60.0,93.0
856,239.6910481875,240.60582,63.0,117.0
857,241.0546831875,241.564152375,48.0,57.0
858,240.556577625,241.6607431875,41.0,79.0
859,241.988394375,242.503545375,56.0,61.0
860,241.518697875,242.5357423125,60.0,99.0
861,244.1986194375,246.15884475000001,58.0,63.0
862,244.8804369375,246.1967235,53.0,24.0
863,242.9940751875,246.200511375,46.0,67.0
864,243.545211,246.2024053125,62.0,89.0
865,242.5205908125,246.2440719375,34.0,95.0
866,246.030057,247.298995125,63.0,63.0
867,246.9637681875,247.420207125,58.0,88.0
868,246.0433145625,247.4827070625,70.0,66.0
869,246.0319509375,247.49217675,51.0,81.0
870,246.50732925,247.5054343125,55.0,47.0
871,246.0471024375,247.5243736875,67.0,56.0
872,247.405055625,247.5433130625,63.0,61.0
873,247.87285818750001,248.5622514375,62.0,48.0
874,247.8804339375,248.995963125,50.0,57.0
875,247.848237,249.018690375,72.0,69.0
876,247.8652824375,249.056569125,65.0,56.0
877,247.867176375,249.0774024375,69.0,55.0
878,249.1872508125,249.2876295,62.0,68.0
879,249.6342200625,250.6948250625,58.0,71.0
880,250.120962,250.9145218125,50.0,46.0
881,249.647477625,250.999749,43.0,67.0
882,249.6455836875,251.109597375,62.0,66.0
883,250.5736130625,251.120961,55.0,66.0
884,251.026264125,251.1380064375,58.0,66.0
885,251.4107334375,251.836869375,58.0,81.0
886,251.41641525,251.8463390625,61.0,70.0
887,251.412627375,252.283838625,42.0,86.0
888,252.37095975,253.11338325,56.0,53.0
889,252.38611125,253.1266408125,44.0,52.0
890,252.3804294375,253.12853475,60.0,69.0
891,252.3880051875,253.14368625,63.0,50.0
892,254.0130035625,254.571715125,67.0,39.0
893,254.1190640625,254.5811848125,60.0,66.0
894,254.0092156875,254.6076999375,64.0,40.0
895,254.208079125,254.6114878125,55.0,56.0
896,255.1380024375,255.367168875,52.0,63.0
897,255.3463355625,255.41641125,55.0,67.0
898,255.545199,255.8084563125,60.0,75.0
899,255.75732,255.9902743125,64.0,79.0
900,255.980804625,256.0395166875,67.0,57.0
901,256.1872438125,256.5130010625,72.0,69.0
902,256.41641025,256.6910311875,76.0,66.0
903,256.662622125,256.753531125,79.0,62.0
904,254.969442,258.4145143125,48.0,60.0
905,254.776260375,258.4523930625,43.0,57.0
906,257.192924625,258.46186275,88.0,59.0
907,257.8614845625,258.4637566875,96.0,65.0
908,257.503530375,258.4675445625,91.0,63.0
909,256.9220915625,258.4789081875,84.0,72.0
910,254.2573215,258.5300445,36.0,78.0
