,start,end,pitch,velocity
0,26.570012566666662,26.956836981249996,61.0,63.0
1,26.975418066666663,27.461904666666662,63.0,79.0
2,27.380823566666663,27.765828812499993,70.0,90.0
3,27.783456999999995,28.169674562499996,68.0,97.0
4,28.168071999999995,28.918071249999993,66.0,92.0
5,28.937301999999995,29.369319249999997,68.0,83.0
6,29.323266599999997,29.727872024999996,63.0,93.0
7,29.718003599999996,31.005031562499994,61.0,93.0
8,32.82393999999999,33.25017842708333,66.0,91.0
9,33.21132706666666,33.638692031249995,65.0,93.0
10,33.61673256666666,33.935989397916664,63.0,89.0
11,34.020715599999996,34.4368341875,63.0,87.0
12,34.415452599999995,34.86940015,61.0,90.0
13,35.2049266,35.55361095,54.0,90.0
14,35.5996636,36.027295349999996,61.0,93.0
15,35.9944006,37.506376625,58.0,84.0
16,39.080093,39.4599003125,58.0,84.0
17,39.464708,39.8188743125,61.0,87.0
18,39.849323,40.208297,63.0,87.0
19,40.233938,40.461501874999996,66.0,90.0
20,40.618553,41.259578,73.0,90.0
21,41.387783,41.8060518125,70.0,92.0
22,41.772397999999995,42.0624618125,68.0,88.0
23,42.028808,42.3188718125,66.0,88.0
24,42.3493205,44.3573313125,68.0,96.0
25,45.233933,45.576881375,66.0,72.0
26,45.618548,45.999957875,68.0,87.0
27,46.003163,46.4086113125,70.0,87.0
28,46.387778,46.4086113125,70.0,84.0
29,46.580085499999996,46.7547648125,68.0,57.0
30,46.9647005,47.45828975,66.0,79.0
31,47.541623,47.9502764375,65.0,72.0
32,47.926238,48.679442375,68.0,97.0
33,48.695468,50.308986008333335,66.0,96.0
34,50.223542933333334,50.308986008333335,66.0,109.0
35,50.60328993333333,50.975167174999996,65.0,105.0
36,50.985035599999996,52.87353112499999,63.0,108.0
37,52.94724899999999,53.08346681249999,61.0,90.0
38,53.331863999999996,53.674812374999995,58.0,95.0
39,53.71647899999999,54.101895281249995,61.0,93.0
40,54.09743099999999,56.46821166249999,63.0,103.0
41,56.333717933333325,56.46821166249999,63.0,97.0
42,56.71346493333333,57.054924683333326,70.0,99.0
43,57.09196173333332,57.942270672916656,68.0,101.0
44,57.83270273333332,57.942270672916656,68.0,101.0
45,58.20307323333332,58.53332026249999,63.0,96.0
46,58.57344373333332,58.990110545833325,68.0,100.0
47,58.94381423333332,59.64134534166666,65.0,98.0
48,59.68455523333332,60.05085549999999,63.0,99.0
49,60.055542999999986,61.83715206249999,61.0,97.0
50,62.33554899999999,62.68170249999999,61.0,91.0
51,62.72016399999999,63.08715081249999,66.0,101.0
52,63.10477899999999,64.70687174999999,70.0,106.0
53,64.60321339999999,64.70687174999999,70.0,105.0
54,64.96906639999999,65.2693707375,68.0,97.0
55,65.70077239999999,66.07565749999999,66.0,90.0
56,66.06784499999999,66.3787825,73.0,97.0
57,66.47409499999999,67.8037825,70.0,91.0
58,68.31784499999999,68.6475325,61.0,101.0
59,68.69284499999999,69.0225325,58.0,90.0
60,69.06784499999999,70.05534499999999,68.0,93.0
61,70.19284499999999,70.56472,70.0,94.0
62,70.56784499999999,70.92097,68.0,94.0
63,70.94284499999999,71.70222,65.0,77.0
64,71.69284499999999,72.0850325,63.0,90.0
65,72.25534499999999,74.05796864583333,61.0,85.0
66,75.45266033333333,75.804327,61.0,90.0
67,75.85266033333333,76.22266033333332,63.0,91.0
68,76.25266033333332,76.63571942083333,70.0,97.0
69,76.64995993333332,77.03287149166665,68.0,99.0
70,77.02970693333332,77.76466475,66.0,98.0
71,77.80037899999999,78.194859125,68.0,99.0
72,78.189989,78.60232624999999,63.0,98.0
73,78.57959899999999,80.40427249999999,61.0,90.0
74,81.690818,82.10599615624999,66.0,91.0
75,82.07176999999999,82.44825771874999,65.0,93.0
76,82.4289125,82.71016221874999,63.0,89.0
77,82.78843599999999,83.1837485,63.0,87.0
78,83.16343599999999,83.60330089166666,61.0,90.0
79,83.94789556666666,84.30600375833333,54.0,90.0
80,84.35330106666666,84.79249035833332,61.0,93.0
81,84.75870656666666,86.32150962499999,58.0,84.0
82,87.895226,88.276635875,58.0,84.0
83,88.27984099999999,88.63400731249999,61.0,87.0
84,88.664456,89.02342999999999,63.0,87.0
85,89.049071,89.276634875,66.0,90.0
86,89.433686,90.074711,73.0,90.0
87,89.81830099999999,90.2365698125,70.0,92.0
88,90.587531,90.87599225,68.0,88.0
89,90.7798385,91.06990231249999,66.0,88.0
90,90.972146,92.9801568125,68.0,96.0
91,94.049066,94.39267296249999,66.0,72.0
92,94.43719346666666,94.8447273125,68.0,87.0
93,94.84815196666666,95.27803387499999,70.0,87.0
94,95.25559799999999,95.6129694375,68.0,84.0
95,95.64021299999999,95.81489231249999,70.0,57.0
96,95.83252049999999,96.01630917499999,68.0,74.0
97,96.02617759999998,96.53275674999999,66.0,79.0
98,96.42091459999999,96.84032266249999,65.0,72.0
99,96.81565159999998,97.58658487499999,68.0,97.0
100,97.60444199999998,99.23876437499997,66.0,96.0
101,124.96702074999997,125.33400756249998,61.0,63.0
102,125.35163574999997,125.81317374999998,63.0,79.0
103,125.73625074999997,126.10323756249997,70.0,90.0
104,126.12086574999996,126.50708331249997,68.0,97.0
105,126.50548074999998,127.25547999999996,66.0,92.0
106,127.27471074999997,127.70419749999996,68.0,83.0
107,127.65932574999997,128.05355612499997,63.0,93.0
108,128.04394074999996,129.30397112499998,61.0,93.0
109,131.14650174999997,131.57462431249996,66.0,91.0
110,131.53679534999998,131.95291393749997,65.0,93.0
111,131.93153234999997,132.24238773749997,63.0,89.0
112,132.32491974999996,132.7303680625,63.0,87.0
113,132.70953475,133.1504627333333,61.0,90.0
114,133.4732476833333,133.80869086666664,54.0,90.0
115,133.8529946833333,134.26438726666663,61.0,93.0
116,134.2327416833333,135.76251412499997,58.0,84.0
117,137.36617475,137.7459820625,58.0,84.0
118,137.75078975,138.10495606249998,61.0,87.0
119,138.13540475,138.49437874999998,63.0,87.0
120,138.52001975,138.74758362499998,66.0,90.0
121,138.90463474999999,139.54565975,73.0,90.0
122,139.67386474999998,140.09213356249998,70.0,92.0
123,140.05847974999998,140.3485435625,68.0,88.0
124,140.31488975,140.6049535625,66.0,88.0
125,140.63540225,142.64341306249997,68.0,96.0
126,143.52001474999997,143.862963125,66.0,72.0
127,143.90462975,144.286039625,68.0,87.0
128,144.28924475,144.6946930625,70.0,87.0
129,144.67385975,144.6946930625,70.0,84.0
130,144.86616725,145.04084656249998,68.0,57.0
131,145.25078225,145.7443715,66.0,79.0
132,145.82770474999998,146.23635818749997,65.0,72.0
133,146.21231974999998,146.96552412499997,68.0,97.0
134,146.98154975,148.606548125,66.0,96.0
135,148.52000974999999,148.606548125,66.0,109.0
136,148.90462474999998,149.279624375,65.0,105.0
137,149.28923974999998,151.138596875,63.0,108.0
138,151.21231475,151.3485325625,61.0,90.0
139,151.59692975,151.93987812499998,58.0,95.0
140,151.98154474999998,152.36956525,61.0,93.0
141,152.36487775,154.74769025,63.0,103.0
142,154.61487775,154.74769025,63.0,97.0
143,154.98987775,155.32707285,70.0,99.0
144,155.36365815,156.2035956625,68.0,101.0
145,156.09536415,156.2035956625,68.0,101.0
146,156.46121714999998,156.787905125,63.0,96.0
147,156.82957174999999,157.262263625,68.0,100.0
148,157.21418675,157.938545,65.0,98.0
149,157.98341675,158.3632240625,63.0,99.0
150,158.36803175,160.16539504375,61.0,97.0
151,160.64533348333333,160.97866693333333,61.0,91.0
152,161.01570398333334,161.36909916875,66.0,101.0
153,161.38607448333335,162.97249479166666,70.0,106.0
154,162.86755648333335,162.97249479166666,70.0,105.0
155,163.23792698333332,163.54193943541668,68.0,97.0
156,163.97866798333334,164.35675453541666,66.0,90.0
157,164.34903848333335,164.65613735625,73.0,97.0
158,164.75027319166668,166.07069483749999,70.0,91.0
159,166.59126468333332,166.9251255875,61.0,101.0
160,166.97101168333333,167.3048725875,58.0,90.0
161,167.35075868333334,168.34711975,68.0,93.0
162,168.48461975,168.85649475,70.0,94.0
163,168.85961975,169.21274474999998,68.0,94.0
164,169.23461975,169.99399474999998,65.0,77.0
165,169.98461975,170.37680724999998,63.0,90.0
166,170.54711975,172.407021,61.0,85.0
167,173.83883774999998,174.181369875,61.0,90.0
168,174.22844775,174.58883699999998,63.0,91.0
169,174.61805775,174.993057375,70.0,97.0
170,175.00766775,175.4005245,68.0,99.0
171,175.39727775,176.1407835,66.0,98.0
172,176.17649775,176.57097787499998,68.0,99.0
173,176.56610775,176.978445,63.0,98.0
174,176.95571775,178.78039125,61.0,90.0
175,180.07259775,180.49513632291666,66.0,91.0
176,180.45964248333334,180.85007471875,65.0,93.0
177,180.83001298333332,181.12167975208334,63.0,89.0
178,181.20228275,181.60773106250002,63.0,87.0
179,181.58689775000002,182.02920500000002,61.0,90.0
180,182.35612775,182.695871,54.0,90.0
181,182.74074275,183.157409,61.0,93.0
182,183.12535775,184.628561375,58.0,84.0
183,186.20227775,186.583687625,58.0,84.0
184,186.58689275,186.94105906250002,61.0,87.0
185,186.97150775,187.33048175000002,63.0,87.0
186,187.35612275,187.583686625,66.0,90.0
187,187.74073775,188.37407075000002,73.0,90.0
188,188.12407075000002,188.53188325,70.0,92.0
189,188.87535275,189.163814,68.0,88.0
190,189.06766025000002,189.3577240625,66.0,88.0
191,189.25996775000002,191.2679785625,68.0,96.0
192,192.33688775000002,192.679961,66.0,72.0
193,192.72216875,193.108532,68.0,87.0
194,193.11177874999998,193.524116,70.0,87.0
195,193.50138875,193.863401375,68.0,84.0
196,193.89099875,194.067946625,70.0,57.0
197,194.08580375,194.2708685,68.0,74.0
198,194.28060875,194.78060825,66.0,79.0
199,194.67021875,195.084179375,65.0,72.0
200,195.05982875,195.821191625,68.0,97.0
201,195.83904875,197.485151,66.0,96.0
