,start,end,pitch,velocity
0,1.5897419999999998,2.19871575,70.0,59.0
1,1.5897419999999998,2.2772413124999997,78.0,67.0
2,2.5098176999999997,2.9313603374999997,68.0,58.0
3,2.6693921999999994,3.054321333333333,73.0,66.0
4,2.1666644999999995,3.3459879999999997,66.0,57.0
5,2.8289666999999996,3.690988,70.0,60.0
6,1.7820494999999998,3.7543213333333334,61.0,46.0
7,1.5897419999999998,3.8843213333333333,54.0,61.0
8,3.599321333333333,3.9176546666666665,68.0,60.0
9,4.595987999999999,5.013175499999999,66.0,56.0
10,4.595987999999999,5.033487999999999,61.0,57.0
11,4.970987999999999,5.8007951874999995,58.0,52.0
12,5.347269999999999,5.844064374999999,61.0,56.0
13,5.731884999999999,6.088866654166666,68.0,64.0
14,6.1192720666666665,6.387853210416666,58.0,40.0
15,6.1192720666666665,6.5635289270833335,66.0,60.0
16,6.1192720666666665,6.62771813125,61.0,42.0
17,6.524677566666666,6.907279,58.0,35.0
18,4.595987999999999,7.144779,54.0,53.0
19,6.926029,7.1775915,65.0,72.0
20,6.926029,7.2025915,61.0,63.0
21,7.6773109999999996,8.2910924375,61.0,64.0
22,7.6773109999999996,8.898463625,68.0,67.0
23,8.831156,9.335963187499999,61.0,58.0
24,8.446541,9.36320675,58.0,46.0
25,9.215771,9.9064754375,65.0,72.0
26,7.6773109999999996,10.186923875,46.0,60.0
27,9.985001,10.186923875,68.0,72.0
28,9.985001,10.206154625,58.0,67.0
29,8.061926,10.241411,53.0,37.0
30,10.752949000000001,11.331074000000001,63.0,61.0
31,10.752949000000001,11.459199,66.0,72.0
32,11.502949000000001,12.25165025,58.0,52.0
33,11.877949000000001,12.410741,63.0,69.0
34,12.254897,12.6250265,70.0,75.0
35,12.839312,12.93346775,68.0,57.0
36,12.839312,12.9497015,63.0,60.0
37,12.449702,12.982169,60.0,39.0
38,10.752949000000001,13.295480375,48.0,72.0
39,11.127949000000001,13.318207625,54.0,60.0
40,13.228922,13.418856875,66.0,72.0
41,13.423727,13.782492875,65.0,60.0
42,13.813337,14.31658325,66.0,69.0
43,13.813337,14.31983,63.0,63.0
44,13.813337,14.73216725,59.0,62.0
45,13.813337,14.7938555,54.0,60.0
46,14.592557,15.000024125,66.0,56.0
47,14.592557,15.055218875000001,63.0,56.0
48,14.982167,15.094179875,54.0,40.0
49,14.982167,15.100673375,59.0,53.0
50,13.813337,15.1185305,47.0,59.0
51,15.371777,15.75814025,68.0,63.0
52,15.371777,15.857166125000001,65.0,66.0
53,15.371777,15.873399875,61.0,67.0
54,15.371777,16.282490375000002,58.0,47.0
55,16.150997,16.513009625000002,65.0,61.0
56,16.150997,16.525996625,61.0,61.0
57,16.150997,16.52762,68.0,59.0
58,16.540607,16.69969775,58.0,53.0
59,15.371777,16.724048375000002,46.0,70.0
60,16.930217,17.409112625,66.0,70.0
61,16.930217,17.43346325,63.0,60.0
62,16.930217,17.50489175,71.0,63.0
63,17.70812193333333,18.03565372083333,66.0,73.0
64,17.70812193333333,18.081539816666666,71.0,72.0
65,17.70812193333333,18.087868933333333,63.0,70.0
66,16.930217,18.284071549999997,44.0,64.0
67,16.930217,18.374261462499998,56.0,70.0
68,18.46761593333333,18.958122475,61.0,62.0
69,18.46761593333333,19.106856716666666,66.0,69.0
70,19.228424999999998,19.644008999999997,63.0,64.0
71,19.228424999999998,19.648879124999997,68.0,69.0
72,18.46761593333333,19.793359499999998,47.0,70.0
73,20.00632993333333,20.52373522083333,63.0,63.0
74,20.00632993333333,20.53797573333333,66.0,69.0
75,20.00632993333333,20.920887291666663,44.0,70.0
76,20.76582393333333,21.12183674583333,66.0,70.0
77,20.76582393333333,21.14557093333333,63.0,62.0
78,21.14557093333333,21.628166079166665,44.0,69.0
79,21.52531793333333,21.977849774999996,70.0,61.0
80,21.52531793333333,22.088609316666663,66.0,66.0
81,21.52531793333333,22.11867262083333,61.0,62.0
82,21.52531793333333,22.397153754166663,49.0,69.0
83,22.28481193333333,22.506331016666664,70.0,67.0
84,22.28481193333333,22.518989249999997,66.0,73.0
85,22.28481193333333,22.59810320833333,61.0,70.0
86,22.664558933333332,22.990508441666663,49.0,58.0
87,23.045620999999997,23.457958249999997,66.0,67.0
88,23.045620999999997,23.482308874999998,58.0,66.0
89,23.045620999999997,23.485555624999996,61.0,70.0
90,23.824841,24.146269249999996,66.0,28.0
91,23.435230999999998,24.214450999999997,49.0,48.0
92,23.824841,24.243671749999997,63.0,69.0
93,23.824841,24.2599055,59.0,59.0
94,24.604060999999998,25.134904624999997,61.0,66.0
95,24.604060999999998,25.138151374999996,66.0,66.0
96,24.604060999999998,25.1560085,58.0,49.0
97,25.383280999999997,25.631657374999996,61.0,67.0
98,25.578086,25.724189749999997,63.0,69.0
99,24.214450999999997,25.805358499999997,54.0,43.0
100,23.045620999999997,25.881657124999997,42.0,70.0
101,25.772890999999998,26.003410249999998,66.0,70.0
102,24.604060999999998,26.048864749999996,49.0,58.0
103,26.16460706666666,26.671363941666662,70.0,61.0
104,26.16460706666666,26.696701785416664,66.0,67.0
105,26.16460706666666,26.70683692291666,68.0,64.0
106,26.16460706666666,26.71528287083333,61.0,64.0
107,26.16460706666666,27.20345866041666,54.0,63.0
108,26.975418066666663,27.402783031249996,70.0,55.0
109,26.975418066666663,27.419674927083328,68.0,60.0
110,26.975418066666663,27.421364116666663,66.0,56.0
111,26.975418066666663,27.45683709791666,61.0,55.0
112,27.380823566666663,27.977367062499994,54.0,31.0
113,27.783456999999995,28.137623312499993,61.0,58.0
114,27.783456999999995,28.148841249999993,70.0,44.0
115,27.783456999999995,28.168071999999995,66.0,53.0
116,27.783456999999995,28.174482249999993,68.0,58.0
117,28.168071999999995,28.693712499999993,54.0,27.0
118,28.552686999999995,28.815507249999996,70.0,67.0
119,28.552686999999995,28.823520062499995,61.0,69.0
120,28.552686999999995,28.844353374999994,66.0,72.0
121,28.552686999999995,28.860378999999995,68.0,72.0
122,26.16460706666666,29.020635249999994,42.0,66.0
123,28.937301999999995,29.076724937499993,54.0,62.0
124,29.323266599999997,29.831490487499995,61.0,67.0
125,29.323266599999997,29.836424699999995,65.0,69.0
126,29.323266599999997,29.838069437499996,68.0,64.0
127,29.323266599999997,29.890701037499994,73.0,64.0
128,29.323266599999997,30.229516962499996,53.0,54.0
129,30.112740599999995,30.504188124999995,61.0,54.0
130,30.112740599999995,30.504188124999995,65.0,59.0
131,30.112740599999995,30.505832862499997,68.0,60.0
132,30.112740599999995,30.538727612499994,73.0,45.0
133,30.507477599999994,31.003428999999997,53.0,35.0
134,30.900864999999996,31.448941374999997,61.0,43.0
135,30.900864999999996,31.463364437499994,68.0,50.0
136,30.900864999999996,31.484197749999996,65.0,46.0
137,30.900864999999996,31.543492562499996,73.0,41.0
138,31.477787499999994,31.867210187499996,53.0,27.0
139,31.670094999999996,31.977786999999996,61.0,67.0
140,31.670094999999996,31.995415187499994,65.0,69.0
141,31.670094999999996,32.01785106249999,68.0,70.0
142,29.323266599999997,32.0595176875,41.0,55.0
143,32.05470999999999,32.1364406875,53.0,49.0
144,31.670094999999996,32.2470175,73.0,54.0
145,32.439325,32.839965625,70.0,64.0
146,32.439325,32.85759381249999,61.0,67.0
147,32.439325,32.867209187499995,66.0,70.0
148,33.21132706666666,33.59477310208333,61.0,58.0
149,33.21132706666666,33.62686770416666,66.0,57.0
150,33.21132706666666,33.638692031249995,70.0,58.0
151,32.439325,34.070057725,58.0,61.0
152,34.020715599999996,34.3907815375,70.0,51.0
153,34.020715599999996,34.4022947,61.0,57.0
154,34.020715599999996,34.415452599999995,66.0,55.0
155,34.415452599999995,34.8973606875,58.0,48.0
156,32.439325,35.078281812499995,51.0,66.0
157,34.8101896,35.1128213,61.0,73.0
158,34.8101896,35.1309134125,66.0,73.0
159,34.8101896,35.1473607875,70.0,75.0
160,35.2049266,35.318413487499996,58.0,58.0
161,35.5996636,35.938479525,68.0,64.0
162,35.5996636,35.9763084875,61.0,69.0
163,35.5996636,35.991111124999996,65.0,69.0
164,35.9944006,36.4310571875,53.0,37.0
165,36.387788,36.698685125,68.0,57.0
166,36.387788,36.724326125,61.0,51.0
167,36.387788,36.7355440625,65.0,54.0
168,36.387788,37.26599225,58.0,41.0
169,37.157018,37.52240225,68.0,51.0
170,37.157018,37.538427875,65.0,56.0
171,37.157018,37.5528509375,61.0,49.0
172,36.772403,38.0432350625,53.0,30.0
173,37.541633,38.0560555625,58.0,31.0
174,37.926248,38.192273375,61.0,69.0
175,37.926248,38.20188875,65.0,76.0
176,37.926248,38.219516937499996,68.0,76.0
177,38.310863,38.365350125,58.0,31.0
178,35.5996636,38.3733629375,46.0,66.0
179,38.695478,39.1073365625,66.0,73.0
180,38.695478,39.13778525,63.0,67.0
181,38.695478,39.15060575,71.0,69.0
182,39.080093,39.4518875,54.0,27.0
183,39.464708,39.807656375,66.0,69.0
184,39.464708,39.858938375,63.0,59.0
185,39.464708,39.9022075625,71.0,57.0
186,39.464708,40.320476375,59.0,59.0
187,40.233938,40.608937624999996,66.0,69.0
188,40.233938,40.6265658125,63.0,59.0
189,40.233938,40.685860625,71.0,57.0
190,39.849323,40.8621425,54.0,27.0
191,38.695478,41.1393858125,47.0,75.0
192,40.618553,41.1490011875,59.0,36.0
193,41.003168,41.2900266875,63.0,70.0
194,41.003168,41.2964369375,66.0,78.0
195,41.003168,41.33009075,71.0,67.0
196,41.387783,41.43265475,54.0,61.0
197,41.387783,41.47111625,47.0,57.0
198,41.772397999999995,42.128166875,71.0,67.0
199,41.772397999999995,42.16342325,68.0,75.0
200,41.772397999999995,42.2131026875,64.0,75.0
201,42.157013,42.794832875,52.0,45.0
202,42.541628,42.9695121875,68.0,67.0
203,42.541628,43.0111788125,64.0,58.0
204,42.541628,43.060858249999995,71.0,57.0
205,42.926243,43.56085775,52.0,36.0
206,43.310857999999996,43.7066909375,68.0,72.0
207,43.310857999999996,43.7739985625,71.0,52.0
208,43.310857999999996,43.798037,64.0,67.0
209,41.772397999999995,44.0464341875,40.0,72.0
210,43.695473,44.253164749999996,52.0,42.0
211,44.080087999999996,44.336498,71.0,80.0
212,44.080087999999996,44.3749595,68.0,82.0
213,44.080087999999996,44.6041259375,64.0,82.0
214,44.2723955,44.6105361875,40.0,69.0
215,44.464703,44.666625875,52.0,64.0
216,44.6570105,44.7739975625,71.0,47.0
217,44.849318,45.129766437499995,49.0,54.0
218,44.849318,45.362138,66.0,73.0
219,44.849318,45.423035375,61.0,67.0
220,44.849318,45.423035375,68.0,72.0
221,44.849318,45.461496874999995,73.0,64.0
222,45.233933,45.666624875,49.0,30.0
223,45.618548,45.9951501875,61.0,66.0
224,45.618548,45.9951501875,66.0,69.0
225,45.618548,46.064060375,73.0,63.0
226,44.849318,46.096111625,37.0,66.0
227,46.003163,46.4630984375,49.0,42.0
228,46.387778,46.6586110625,68.0,73.0
229,46.387778,46.7227135625,65.0,76.0
230,46.387778,46.762777625,61.0,75.0
231,46.772393,47.256366875,49.0,43.0
232,47.157008,47.3348924375,70.0,75.0
233,46.387778,47.530405062499995,37.0,69.0
234,47.157008,47.581687062499995,61.0,78.0
235,47.157008,47.592905,66.0,82.0
236,47.541623,47.6618151875,49.0,73.0
237,47.926238,48.185853125,54.0,76.0
238,47.926238,48.33008375,61.0,75.0
239,47.926238,48.4054041875,66.0,78.0
240,47.926238,48.4054041875,70.0,76.0
241,48.310852999999994,48.626557812499996,54.0,44.0
242,48.695468,48.77880125,66.0,72.0
243,48.695468,48.796429437499995,61.0,75.0
244,48.695468,48.83008325,70.0,75.0
245,48.8877755,48.972711312499996,66.0,73.0
246,48.8877755,48.9823266875,61.0,70.0
247,48.8877755,48.999954875,70.0,75.0
248,48.8877755,49.0496343125,54.0,60.0
249,47.926238,49.0784804375,42.0,73.0
250,49.2723905,49.524175541666665,66.0,76.0
251,49.2723905,49.527340099999996,63.0,72.0
252,49.2723905,49.557403404166664,71.0,78.0
253,49.46404893333333,49.78050476666667,53.0,61.0
254,49.65392243333333,49.78683388333333,69.0,66.0
255,49.65392243333333,49.8311377,68.0,64.0
256,49.65392243333333,49.86753012083333,61.0,91.0
257,50.03366943333333,50.372277175,53.0,48.0
258,50.223542933333334,50.511517741666665,65.0,85.0
259,50.223542933333334,50.596960816666666,70.0,80.0
260,50.223542933333334,50.61753044583333,62.0,91.0
261,50.60328993333333,50.677657054166666,53.0,76.0
262,49.46404893333333,50.68873300833333,41.0,51.0
263,50.985035599999996,51.261351499999996,51.0,72.0
264,50.985035599999996,51.489970012499995,58.0,80.0
265,50.985035599999996,51.509706862499996,66.0,78.0
266,50.985035599999996,51.540956875,61.0,85.0
267,51.379772599999995,51.6248384875,51.0,45.0
268,51.7745096,51.8847070125,61.0,80.0
269,51.7745096,51.889641225,58.0,78.0
270,51.7745096,51.9570754625,66.0,82.0
271,52.1692466,52.2926019125,56.0,75.0
272,51.9718781,52.297536125,51.0,44.0
273,52.1692466,52.36003615,65.0,82.0
274,52.3666151,52.455430925,61.0,82.0
275,52.3666151,52.47845725,58.0,76.0
276,52.3666151,52.4998388375,66.0,69.0
277,52.562633999999996,52.7533389375,51.0,44.0
278,52.754941499999994,52.9520566875,58.0,76.0
279,52.754941499999994,53.056223249999995,65.0,80.0
280,52.94724899999999,53.360710125,51.0,46.0
281,53.331863999999996,53.623530374999994,58.0,82.0
282,53.331863999999996,53.63314575,66.0,63.0
283,53.331863999999996,53.663594437499995,61.0,80.0
284,50.985035599999996,53.81904299999999,39.0,60.0
285,53.71647899999999,53.870324999999994,51.0,61.0
286,53.9087865,53.96647874999999,51.0,40.0
287,53.9087865,54.006542812499994,61.0,49.0
288,53.9087865,54.11082384375,58.0,44.0
289,54.09743099999999,54.11082384375,58.0,76.0
290,54.09743099999999,54.174811874999996,61.0,78.0
291,54.09743099999999,54.22391896875,66.0,78.0
292,54.63314474999999,54.75219224999999,61.0,85.0
293,54.454573499999995,54.83688184166666,51.0,75.0
294,54.814729933333325,55.03308445833333,66.0,93.0
295,55.00460343333332,55.11852753333333,68.0,56.0
296,54.09743099999999,55.19447693333333,39.0,85.0
297,55.19447693333333,55.29416052083332,51.0,58.0
298,55.384350433333324,55.45238843749999,71.0,97.0
299,55.384350433333324,55.57422393333333,61.0,59.0
300,55.384350433333324,55.72928729166666,70.0,93.0
301,55.384350433333324,55.79099617916666,51.0,70.0
302,55.764097433333326,55.98086967916666,61.0,64.0
303,55.764097433333326,56.001439308333325,68.0,66.0
304,55.95397093333332,56.169160899999994,51.0,78.0
305,56.14384443333333,56.40017365833332,61.0,88.0
306,56.14384443333333,56.412831891666656,66.0,101.0
307,55.384350433333324,56.49352812916666,39.0,73.0
308,56.333717933333325,56.533085108333324,51.0,95.0
309,56.52359143333332,56.662831999999995,61.0,82.0
310,56.71346493333333,56.92549034166666,66.0,82.0
311,56.903338433333325,57.01568025416666,68.0,69.0
312,57.09196173333332,57.34504824166665,56.0,85.0
313,57.09196173333332,57.49628286249999,71.0,85.0
314,57.09196173333332,57.50554212499999,66.0,91.0
315,57.09196173333332,57.52406064999999,63.0,78.0
316,57.46233223333332,57.77714715833332,56.0,67.0
317,57.83270273333332,58.039492929166656,63.0,93.0
318,57.83270273333332,58.04875219166666,66.0,97.0
319,57.83270273333332,58.04875219166666,71.0,91.0
320,57.09196173333332,58.108937397916655,44.0,70.0
321,58.017887983333324,58.14134481666665,56.0,78.0
322,58.20307323333332,58.409863429166656,68.0,66.0
323,58.388258483333324,58.508628895833326,70.0,67.0
324,58.57344373333332,58.835789504166655,49.0,66.0
325,58.57344373333332,58.940727812499986,68.0,73.0
326,58.57344373333332,58.94227102291666,66.0,78.0
327,58.57344373333332,58.954616706249986,61.0,75.0
328,58.94381423333332,59.11665379999999,49.0,44.0
329,59.128999483333324,59.47776503749999,61.0,72.0
330,59.128999483333324,59.53332061249999,68.0,72.0
331,58.57344373333332,59.618197185416655,37.0,72.0
332,59.31418473333332,59.67992560208332,49.0,44.0
333,59.68455523333332,59.906777533333326,66.0,72.0
334,59.869740483333324,59.99937015833332,68.0,67.0
335,60.055542999999986,60.235230499999986,66.0,67.0
336,60.055542999999986,60.31804299999999,61.0,73.0
337,60.055542999999986,60.35866799999999,70.0,70.0
338,60.618042999999986,60.73991799999999,61.0,82.0
339,60.618042999999986,60.861555704166655,73.0,80.0
340,60.80617593333332,60.99604943333332,54.0,61.0
341,60.99604943333332,61.05934059999999,73.0,63.0
342,60.99604943333332,61.108391254166655,61.0,76.0
343,60.99604943333332,61.13370772083332,71.0,97.0
344,61.18592293333332,61.393201504166655,54.0,53.0
345,61.37579643333332,61.74740856249999,61.0,64.0
346,60.430542999999986,61.833946937499995,49.0,50.0
347,61.37579643333332,61.85157512499999,70.0,48.0
348,61.75862649999999,61.88683149999999,54.0,55.0
349,61.95093399999999,62.151254312499994,61.0,60.0
350,62.143241499999995,62.37240793749999,49.0,13.0
351,62.33554899999999,62.57112568749999,61.0,88.0
352,62.143241499999995,62.60477949999999,54.0,82.0
353,60.055542999999986,62.60958718749999,42.0,76.0
354,62.33554899999999,62.611189749999994,66.0,95.0
355,62.52785649999999,62.69292043749999,49.0,69.0
356,62.72016399999999,62.971766312499994,61.0,67.0
357,63.10477899999999,63.457342749999995,58.0,91.0
358,63.10477899999999,63.51824012499999,68.0,78.0
359,63.10477899999999,63.590355437499994,61.0,91.0
360,63.10477899999999,63.60958618749999,65.0,93.0
361,63.68170149999999,64.07272655,58.0,45.0
362,63.87150739999999,64.1108362375,61.0,85.0
363,63.87150739999999,64.11845817499999,65.0,78.0
364,63.87150739999999,64.23126285,68.0,80.0
365,63.10477899999999,64.3242504875,46.0,73.0
366,64.2373604,64.35321384999999,58.0,60.0
367,64.4202869,64.47059168749999,46.0,60.0
368,64.4202869,64.49498188749999,58.0,75.0
369,64.4202869,64.49650627499999,65.0,63.0
370,64.4202869,64.502603825,70.0,69.0
371,64.4202869,64.50412821249999,61.0,75.0
372,64.7861399,64.99040782499999,58.0,67.0
373,64.7861399,65.16876116249999,62.0,99.0
374,64.7861399,65.21449278749999,65.0,80.0
375,64.7861399,65.2358342125,70.0,73.0
376,65.1519929,65.4126631625,58.0,76.0
377,65.33491939999999,65.4797362125,65.0,88.0
378,65.33491939999999,65.5666263,62.0,97.0
379,65.33491939999999,65.5681506875,68.0,80.0
380,65.5178459,65.69467485,58.0,72.0
381,64.7861399,65.7449796375,46.0,63.0
382,65.70077239999999,65.81967462499999,50.0,82.0
383,66.06784499999999,66.4787825,61.0,80.0
384,66.06784499999999,66.5069075,66.0,78.0
385,66.06784499999999,66.511595,58.0,80.0
386,66.44284499999999,66.6475325,51.0,49.0
387,66.63034499999999,66.77878249999999,56.0,78.0
388,66.63034499999999,66.949095,65.0,75.0
389,66.81784499999999,67.02096999999999,51.0,47.0
390,67.00534499999999,67.074095,61.0,82.0
391,67.00534499999999,67.12253249999999,66.0,72.0
392,67.38034499999999,67.43347,68.0,64.0
393,67.19284499999999,67.4787825,51.0,72.0
394,67.38034499999999,67.486595,61.0,70.0
395,67.38034499999999,67.48971999999999,70.0,60.0
396,67.56784499999999,67.636595,68.0,43.0
397,67.56784499999999,67.75846999999999,51.0,56.0
398,67.75534499999999,67.92097,61.0,76.0
399,67.75534499999999,68.05847,70.0,66.0
400,66.06784499999999,68.20378249999999,39.0,80.0
401,68.13034499999999,68.486595,51.0,88.0
402,68.31784499999999,68.5381575,61.0,95.0
403,68.50534499999999,68.75534499999999,63.0,82.0
404,68.69284499999999,68.9444075,65.0,76.0
405,68.88034499999999,68.99597,66.0,88.0
406,69.06784499999999,69.09440749999999,67.0,75.0
407,69.06784499999999,69.3662825,56.0,76.0
408,69.06784499999999,69.5506575,66.0,93.0
409,69.06784499999999,69.67097,59.0,95.0
410,69.44284499999999,69.83972,56.0,38.0
411,69.81784499999999,70.18972,66.0,82.0
412,69.81784499999999,70.23347,59.0,103.0
413,69.06784499999999,70.28659499999999,44.0,69.0
414,70.19284499999999,70.45846999999999,56.0,56.0
415,70.56784499999999,70.799095,56.0,80.0
416,70.56784499999999,71.074095,66.0,85.0
417,70.56784499999999,71.105345,63.0,82.0
418,70.56784499999999,71.1444075,60.0,88.0
419,71.31784499999999,71.48971999999999,66.0,80.0
420,71.31784499999999,71.517845,63.0,80.0
421,71.31784499999999,71.5225325,60.0,97.0
422,71.13034499999999,71.5506575,56.0,44.0
423,70.56784499999999,71.574095,44.0,72.0
424,71.50534499999999,71.62253249999999,51.0,70.0
425,71.69284499999999,71.9256575,61.0,67.0
426,71.88034499999999,72.02878249999999,63.0,70.0
427,72.06784499999999,72.26628249999999,49.0,78.0
428,72.06784499999999,72.38972,56.0,88.0
429,72.06784499999999,72.42253249999999,61.0,80.0
430,72.06784499999999,72.47097,65.0,75.0
431,72.44284499999999,72.6162825,49.0,52.0
432,72.63034499999999,72.736595,61.0,75.0
433,72.63034499999999,72.73971999999999,58.0,78.0
434,72.63034499999999,72.76472,66.0,82.0
435,72.81784499999999,73.04440749999999,49.0,66.0
436,73.00534499999999,73.0881575,61.0,97.0
437,73.00534499999999,73.13815749999999,68.0,85.0
438,73.56722773333333,73.71228951249999,61.0,88.0
439,73.75241298333333,73.98235133541667,63.0,61.0
440,73.93759823333333,74.05333901458333,65.0,75.0
441,72.06784499999999,74.19531437291666,37.0,72.0
442,73.38034499999999,74.26012921041666,49.0,69.0
443,74.12278348333332,74.33420331041665,66.0,82.0
444,74.30796873333333,74.610437975,68.0,64.0
445,74.49315398333333,74.72617875625,70.0,61.0
446,74.67833923333333,74.92525289999999,71.0,66.0
447,75.05266033333332,75.66266033333332,66.0,45.0
448,74.86352448333332,75.67432699999999,73.0,67.0
449,75.05266033333332,75.68266033333333,61.0,51.0
450,75.05266033333332,75.699327,70.0,51.0
451,75.85266033333333,76.32099366666667,66.0,67.0
452,75.85266033333333,76.33266033333332,61.0,54.0
453,75.85266033333333,76.33266033333332,70.0,61.0
454,76.64995993333332,77.0787575875,66.0,55.0
455,76.64995993333332,77.08033986666665,61.0,46.0
456,76.64995993333332,77.0882512625,70.0,47.0
457,75.05266033333332,77.568236375,54.0,55.0
458,77.41076899999999,77.759794625,61.0,67.0
459,77.41076899999999,77.78576862499999,66.0,72.0
460,77.41076899999999,77.79713224999999,70.0,66.0
461,75.05266033333332,77.92050875,42.0,59.0
462,77.80037899999999,77.970833375,54.0,59.0
463,78.189989,78.56336524999999,61.0,69.0
464,78.189989,78.57148212499999,68.0,70.0
465,78.189989,78.60232624999999,65.0,72.0
466,78.96920899999999,79.29875412499999,61.0,75.0
467,78.57959899999999,79.535766875,58.0,28.0
468,79.358819,79.67050699999999,63.0,57.0
469,79.55362399999999,79.72894849999999,65.0,64.0
470,79.74842899999999,80.02115599999999,58.0,57.0
471,79.74842899999999,80.24031162499999,61.0,69.0
472,79.74842899999999,80.41725949999999,66.0,70.0
473,80.13803899999999,80.516285375,58.0,33.0
474,80.527649,80.75329812499999,61.0,78.0
475,80.527649,80.782518875,68.0,85.0
476,78.189989,80.81173962499999,46.0,69.0
477,80.722454,80.957843375,58.0,62.0
478,80.91725899999999,81.188362625,61.0,63.0
479,81.11206399999999,81.40235675,65.0,57.0
480,81.306203,81.6796000625,68.0,63.0
481,81.690818,82.1223651875,58.0,56.0
482,82.07176999999999,82.37534112499999,70.0,66.0
483,82.07176999999999,82.39022206249999,66.0,73.0
484,82.07176999999999,82.43784106249998,63.0,49.0
485,82.4289125,82.68040034375,65.0,56.0
486,82.4289125,82.8056235,68.0,70.0
487,82.4289125,82.847811,58.0,56.0
488,82.78843599999999,83.15874849999999,66.0,73.0
489,82.78843599999999,83.2774985,73.0,76.0
490,83.16343599999999,83.55262520416666,58.0,36.0
491,82.78843599999999,83.5593819625,63.0,57.0
492,81.306203,83.89553068958332,51.0,69.0
493,83.54249006666666,83.92931448124999,66.0,91.0
494,83.54249006666666,83.96140908333332,70.0,80.0
495,83.94789556666666,84.09654425,58.0,73.0
496,84.35330106666666,84.83134171875,61.0,69.0
497,84.35330106666666,84.87863902708332,65.0,70.0
498,84.35330106666666,84.88032821666665,68.0,69.0
499,84.35330106666666,85.14215260208333,46.0,70.0
500,84.75870656666666,85.16749044583332,53.0,45.0
501,85.16411206666666,85.63539596041666,56.0,70.0
502,85.56951756666666,86.34234293749999,58.0,70.0
503,85.972151,86.34394549999999,68.0,66.0
504,86.356766,86.75580406249999,66.0,63.0
505,85.972151,86.8423424375,61.0,72.0
506,86.74138099999999,86.99138074999999,58.0,64.0
507,86.74138099999999,87.07311143749999,65.0,62.0
508,87.125996,87.42727775,68.0,62.0
509,87.510611,87.88240549999999,63.0,67.0
510,87.510611,87.895226,66.0,73.0
511,87.895226,88.33913581249999,54.0,45.0
512,88.27984099999999,88.6884944375,61.0,63.0
513,88.27984099999999,88.73657131249999,68.0,69.0
514,88.27984099999999,88.74778925,59.0,66.0
515,88.664456,88.8583660625,70.0,70.0
516,89.049071,89.372788625,71.0,66.0
517,89.049071,89.39842962499999,63.0,61.0
518,89.049071,89.6372114375,59.0,66.0
519,88.664456,89.71573699999999,54.0,56.0
520,89.62599349999999,89.98176237499999,66.0,60.0
521,89.62599349999999,90.000993125,73.0,64.0
522,89.62599349999999,90.0122110625,63.0,53.0
523,89.81830099999999,90.0362495,54.0,34.0
524,89.81830099999999,90.0442623125,59.0,61.0
525,87.510611,90.17246731249999,47.0,62.0
526,90.202916,90.34233893749999,73.0,63.0
527,90.587531,91.03304337499999,59.0,73.0
528,90.587531,91.0538766875,56.0,67.0
529,90.587531,91.07471,52.0,78.0
530,90.587531,91.125992,64.0,75.0
531,91.1644535,91.50419674999999,56.0,76.0
532,91.35676099999999,91.82791437499999,52.0,55.0
533,91.741376,92.01381162499999,59.0,66.0
534,91.9336835,92.058683375,64.0,45.0
535,92.125991,92.1981063125,59.0,67.0
536,92.125991,92.295862625,52.0,91.0
537,92.125991,92.31349081249999,66.0,69.0
538,92.125991,92.340734375,56.0,80.0
539,92.510606,92.6564391875,52.0,24.0
540,92.7029135,92.97695168749999,68.0,99.0
541,92.89522099999999,93.04425931249999,52.0,76.0
542,90.587531,93.18207968749999,40.0,75.0
543,93.27983599999999,93.4577204375,70.0,93.0
544,93.4721435,93.66925868749999,68.0,63.0
545,93.664451,94.02182243749999,37.0,69.0
546,93.664451,94.1243864375,65.0,80.0
547,94.049066,94.53479611041666,49.0,56.0
548,94.43719346666666,94.76082328541666,53.0,60.0
549,94.43719346666666,94.77623422916666,63.0,82.0
550,94.84815196666666,95.14952153333333,61.0,85.0
551,95.25559799999999,95.61777712499999,61.0,75.0
552,95.25559799999999,95.62418737499999,66.0,72.0
553,95.25559799999999,95.63380274999999,58.0,70.0
554,95.83252049999999,96.07716446249998,61.0,78.0
555,95.83252049999999,96.11992763749998,56.0,80.0
556,95.44790549999999,96.12486184999999,37.0,48.0
557,95.83252049999999,96.20216451249999,65.0,76.0
558,96.02617759999998,96.31071718749999,49.0,47.0
559,96.42091459999999,96.67091469999998,63.0,64.0
560,96.61828309999999,96.77617789999998,65.0,64.0
561,96.81565159999998,97.09032276249998,58.0,76.0
562,96.81565159999998,97.11170434999998,61.0,91.0
563,96.81565159999998,97.14953331249998,66.0,70.0
564,97.60444199999998,97.77164962499998,61.0,73.0
565,97.40775709999998,97.98755849999998,54.0,55.0
566,97.79924699999998,98.02489612499998,66.0,63.0
567,97.99405199999998,98.22132449999998,68.0,52.0
568,98.18885699999998,98.26353224999998,61.0,56.0
569,98.18885699999998,98.29924649999998,70.0,72.0
570,98.38299599999998,98.55286762499998,71.0,101.0
571,98.38299599999998,98.57370093749998,63.0,57.0
572,98.38299599999998,98.79805968749997,54.0,57.0
573,98.76761099999997,98.96953387499998,63.0,61.0
574,98.76761099999997,98.99036718749997,73.0,75.0
575,99.15222599999997,99.32209762499998,63.0,64.0
576,99.15222599999997,99.32850787499997,71.0,93.0
577,97.21038859999999,99.59132812499998,49.0,49.0
578,99.53684099999998,99.61857168749998,54.0,72.0
579,96.81565159999998,99.64902037499998,42.0,70.0
580,99.53684099999998,99.65703318749998,70.0,70.0
581,99.92145599999998,100.53042974999998,70.0,59.0
582,99.92145599999998,100.60895531249997,78.0,67.0
583,100.88299349999997,101.39100581249997,68.0,58.0
584,101.07530099999998,101.51280056249998,73.0,66.0
585,100.49837849999997,101.79324899999997,66.0,57.0
586,101.26760849999998,102.12497943749997,70.0,60.0
587,100.11376349999998,102.18630994791664,61.0,46.0
588,99.92145599999998,102.31806673541664,54.0,61.0
589,102.03683849999997,102.3518505270833,68.0,60.0
590,103.03867499999997,103.45586249999997,66.0,56.0
591,103.03867499999997,103.47617499999997,61.0,57.0
592,103.41367499999997,104.24348218749998,58.0,52.0
593,103.78995699999997,104.28675137499997,61.0,56.0
594,104.17457199999997,104.53034087499998,68.0,64.0
595,104.55918699999997,104.81399443749997,58.0,40.0
596,104.55918699999997,104.98066093749998,66.0,60.0
597,104.55918699999997,105.04155831249997,61.0,42.0
598,104.94380199999998,105.30918624999997,58.0,35.0
599,103.03867499999997,105.55277574999997,54.0,53.0
600,105.32841699999997,105.58642956249997,65.0,72.0
601,105.32841699999997,105.61207056249997,61.0,63.0
602,106.09764699999997,106.71142843749998,61.0,64.0
603,106.09764699999997,107.31879962499997,68.0,67.0
604,107.25149199999997,107.75629918749998,61.0,58.0
605,106.86687699999997,107.78354274999997,58.0,46.0
606,107.63610699999997,108.32681143749997,65.0,72.0
607,106.09764699999997,108.60725987499997,46.0,60.0
608,108.40533699999997,108.60725987499997,68.0,72.0
609,108.40533699999997,108.62649062499997,58.0,67.0
610,106.48226199999998,108.66174699999998,53.0,37.0
611,109.17456699999997,109.76751512499997,63.0,61.0
612,109.17456699999997,109.89892524999998,66.0,72.0
613,109.94379699999998,110.71108712499996,58.0,52.0
614,110.32841199999997,110.87227139999997,63.0,69.0
615,110.71437659999997,111.08937674999997,70.0,75.0
616,111.30648209999997,111.40187687499997,68.0,57.0
617,111.30648209999997,111.41832424999997,63.0,60.0
618,110.91174509999996,111.45121899999997,60.0,39.0
619,109.17456699999997,111.76865333749997,48.0,72.0
620,109.55918199999996,111.79167966249997,54.0,60.0
621,111.70121909999997,111.89365338749997,66.0,72.0
622,111.89858759999997,112.26152631249997,65.0,60.0
623,112.29197499999997,112.78876937499996,66.0,69.0
624,112.29197499999997,112.79197449999997,63.0,63.0
625,112.29197499999997,113.19902537499996,59.0,62.0
626,112.29197499999997,113.25992274999996,54.0,60.0
627,113.06120499999996,113.46344818749996,66.0,56.0
628,113.06120499999996,113.51793531249996,63.0,56.0
629,113.44581999999997,113.55639681249997,54.0,40.0
630,113.44581999999997,113.56280706249997,59.0,53.0
631,112.29197499999997,113.58043524999997,47.0,59.0
632,113.82963374999997,114.20150874999997,68.0,63.0
633,113.82963374999997,114.29682124999997,65.0,66.0
634,113.82963374999997,114.31244624999997,61.0,67.0
635,113.82963374999997,114.70619624999998,58.0,47.0
636,114.57963374999997,114.92807124999997,65.0,61.0
637,114.57963374999997,114.94057124999998,61.0,61.0
638,114.57963374999997,114.94213374999997,68.0,59.0
639,114.95463374999997,115.10775874999997,58.0,53.0
640,113.82963374999997,115.13119624999997,46.0,70.0
641,115.33091574999997,115.80367168749997,66.0,70.0
642,115.33091574999997,115.82771012499997,63.0,60.0
643,115.33091574999997,115.89822287499997,71.0,63.0
644,116.10014574999997,116.43187618749997,66.0,73.0
645,116.10014574999997,116.47835049999998,71.0,72.0
646,116.10014574999997,116.48476074999998,63.0,70.0
647,115.33091574999997,116.68347849999998,44.0,64.0
648,115.33091574999997,116.77482456249997,56.0,70.0
649,116.86937574999997,117.36617012499997,61.0,62.0
650,116.86937574999997,117.51681099999998,66.0,69.0
651,117.63860574999997,118.04886174999997,63.0,64.0
652,117.63860574999997,118.05366943749998,68.0,69.0
653,116.86937574999997,118.19629749999997,47.0,70.0
654,118.40783574999998,118.93187368749997,63.0,63.0
655,118.40783574999998,118.94629674999997,66.0,69.0
656,118.40783574999998,119.33411687499998,44.0,70.0
657,119.17706574999997,119.53764231249997,66.0,70.0
658,119.17706574999997,119.56168074999998,63.0,62.0
659,119.56168074999998,120.04657624999997,44.0,69.0
660,119.94501374999997,120.39188874999998,70.0,61.0
661,119.94501374999997,120.50126374999998,66.0,66.0
662,119.94501374999997,120.53095124999997,61.0,62.0
663,119.94501374999997,120.81222137499998,49.0,69.0
664,120.69696174999997,120.92423424999997,70.0,67.0
665,120.69696174999997,120.93722124999998,66.0,73.0
666,120.69696174999997,121.01838999999998,61.0,70.0
667,121.08657174999998,121.42098699999998,49.0,58.0
668,121.47618174999998,121.88851899999997,66.0,67.0
669,121.47618174999998,121.91286962499997,58.0,66.0
670,121.47618174999998,121.91611637499997,61.0,70.0
671,122.25540174999998,122.57682999999997,66.0,28.0
672,121.86579174999997,122.64501174999998,49.0,48.0
673,122.25540174999998,122.67423249999997,63.0,69.0
674,122.25540174999998,122.69046624999997,59.0,59.0
675,123.03462174999997,123.56546537499997,61.0,66.0
676,123.03462174999997,123.56871212499998,66.0,66.0
677,123.03462174999997,123.58656924999998,58.0,49.0
678,123.81317574999997,124.05836781249997,61.0,67.0
679,124.00548324999997,124.14971387499997,63.0,69.0
680,122.64501174999998,124.22984199999998,54.0,43.0
681,121.47618174999998,124.30516243749997,42.0,70.0
682,124.19779074999997,124.42535462499997,66.0,70.0
683,123.03462174999997,124.47022637499997,49.0,58.0
684,124.58240574999996,125.06317449999997,70.0,61.0
685,124.58240574999996,125.08721293749997,66.0,67.0
686,124.58240574999996,125.09682831249997,68.0,64.0
687,124.58240574999996,125.10484112499996,61.0,64.0
688,124.58240574999996,125.56798168749997,54.0,63.0
689,125.35163574999997,125.75708406249997,70.0,55.0
690,125.35163574999997,125.77310968749997,68.0,60.0
691,125.35163574999997,125.77471224999996,66.0,56.0
692,125.35163574999997,125.80836606249997,61.0,55.0
693,125.73625074999997,126.31477581249997,54.0,31.0
694,126.12086574999996,126.47503206249996,61.0,58.0
695,126.12086574999996,126.48624999999997,70.0,44.0
696,126.12086574999996,126.50548074999998,66.0,53.0
697,126.12086574999996,126.51189099999996,68.0,58.0
698,126.50548074999998,127.03112124999997,54.0,27.0
699,126.89009574999997,127.15291599999998,70.0,67.0
700,126.89009574999997,127.16092881249998,61.0,69.0
701,126.89009574999997,127.18176212499996,66.0,72.0
702,126.89009574999997,127.19778774999997,68.0,72.0
703,124.58240574999996,127.35804399999996,42.0,66.0
704,127.27471074999997,127.41413368749997,54.0,62.0
705,127.65932574999997,128.15451756249996,61.0,67.0
706,127.65932574999997,128.15932524999997,65.0,69.0
707,127.65932574999997,128.16092781249998,68.0,64.0
708,127.65932574999997,128.21220981249996,73.0,64.0
709,127.65932574999997,128.54233768749998,53.0,54.0
710,128.42855574999996,128.80996562499996,61.0,54.0
711,128.42855574999996,128.80996562499996,65.0,59.0
712,128.42855574999996,128.81156818749997,68.0,60.0
713,128.42855574999996,128.84361943749997,73.0,45.0
714,128.81317074999998,129.30234774999997,53.0,35.0
715,129.19845174999998,129.75364599999997,61.0,43.0
716,129.19845174999998,129.76825637499996,68.0,50.0
717,129.19845174999998,129.78936024999996,65.0,46.0
718,129.19845174999998,129.84942512499995,73.0,41.0
719,129.78286674999995,130.17734687499996,53.0,27.0
720,129.97767174999996,130.28935974999996,61.0,67.0
721,129.97767174999996,130.30721687499997,65.0,69.0
722,129.97767174999996,130.32994412499997,68.0,70.0
723,127.65932574999997,130.37215187499996,41.0,55.0
724,130.36728174999996,130.45007387499996,53.0,49.0
725,129.97767174999996,130.56208674999996,73.0,54.0
726,130.75689174999997,131.16273549999997,70.0,64.0
727,130.75689174999997,131.18059262499997,61.0,67.0
728,130.75689174999997,131.19033287499997,66.0,70.0
729,131.53679534999998,131.91015076249997,61.0,58.0
730,131.53679534999998,131.94140077499998,66.0,57.0
731,131.53679534999998,131.95291393749997,70.0,58.0
732,130.75689174999997,132.37299662499998,58.0,61.0
733,132.32491974999996,132.68549631249996,70.0,51.0
734,132.32491974999996,132.69671424999999,61.0,57.0
735,132.32491974999996,132.70953475,66.0,55.0
736,132.70953475,133.17736147916665,58.0,48.0
737,130.75689174999997,133.35141218749996,51.0,66.0
738,133.0935006833333,133.38464004999997,61.0,73.0
739,133.0935006833333,133.4020451208333,66.0,73.0
740,133.0935006833333,133.41786791249996,70.0,75.0
741,133.4732476833333,133.5824249458333,58.0,58.0
742,133.8529946833333,134.17894419166663,68.0,64.0
743,133.8529946833333,134.21533661249998,61.0,69.0
744,133.8529946833333,134.22957712499996,65.0,69.0
745,134.2327416833333,134.65889526249998,53.0,37.0
746,134.61448735,134.93356642499998,68.0,57.0
747,134.61448735,134.95988222499997,61.0,51.0
748,134.61448735,134.97139538749997,65.0,54.0
749,134.61448735,135.51580349999998,58.0,41.0
750,135.40396134999997,135.77896149999998,68.0,51.0
751,135.40396134999997,135.79540887499996,65.0,56.0
752,135.40396134999997,135.8102115125,61.0,49.0
753,135.00922434999998,136.31350118749998,53.0,30.0
754,135.79869834999997,136.3266590875,58.0,31.0
755,136.19343535,136.46646177499997,61.0,69.0
756,136.19343535,136.47633019999998,65.0,76.0
757,136.19343535,136.49442231249998,68.0,76.0
758,136.58817234999998,136.64409342499997,58.0,31.0
759,133.8529946833333,136.6523171125,46.0,66.0
760,136.98155974999997,137.3934183125,66.0,73.0
761,136.98155974999997,137.423867,63.0,67.0
762,136.98155974999997,137.43668749999998,71.0,69.0
763,137.36617475,137.73796925,54.0,27.0
764,137.75078975,138.093738125,66.0,69.0
765,137.75078975,138.14502012499997,63.0,59.0
766,137.75078975,138.1882893125,71.0,57.0
767,137.75078975,138.606558125,59.0,59.0
768,138.52001975,138.89501937499998,66.0,69.0
769,138.52001975,138.91264756249998,63.0,59.0
770,138.52001975,138.971942375,71.0,57.0
771,138.13540475,139.14822425,54.0,27.0
772,136.98155974999997,139.4254675625,47.0,75.0
773,138.90463474999999,139.4350829375,59.0,36.0
774,139.28924974999998,139.57610843749998,63.0,70.0
775,139.28924974999998,139.5825186875,66.0,78.0
776,139.28924974999998,139.61617249999998,71.0,67.0
777,139.67386474999998,139.71873649999998,54.0,61.0
778,139.67386474999998,139.757198,47.0,57.0
779,140.05847974999998,140.414248625,71.0,67.0
780,140.05847974999998,140.449505,68.0,75.0
781,140.05847974999998,140.4991844375,64.0,75.0
782,140.44309475,141.080914625,52.0,45.0
783,140.82770975,141.25559393749998,68.0,67.0
784,140.82770975,141.29726056249999,64.0,58.0
785,140.82770975,141.34694,71.0,57.0
786,141.21232475,141.8469395,52.0,36.0
787,141.59693975,141.99277268749998,68.0,72.0
788,141.59693975,142.0600803125,71.0,52.0
789,141.59693975,142.08411875,64.0,67.0
790,140.05847974999998,142.33251593749998,40.0,72.0
791,141.98155475,142.5392465,52.0,42.0
792,142.36616974999998,142.62257975,71.0,80.0
793,142.36616974999998,142.66104124999998,68.0,82.0
794,142.36616974999998,142.89020768749998,64.0,82.0
795,142.55847724999998,142.8966179375,40.0,69.0
796,142.75078474999998,142.952707625,52.0,64.0
797,142.94309224999998,143.0600793125,71.0,47.0
798,143.13539974999998,143.4158481875,49.0,54.0
799,143.13539974999998,143.64821974999998,66.0,73.0
800,143.13539974999998,143.70911712499998,61.0,67.0
801,143.13539974999998,143.70911712499998,68.0,72.0
802,143.13539974999998,143.747578625,73.0,64.0
803,143.52001474999997,143.952706625,49.0,30.0
804,143.90462975,144.2812319375,61.0,66.0
805,143.90462975,144.2812319375,66.0,69.0
806,143.90462975,144.350142125,73.0,63.0
807,143.13539974999998,144.38219337499999,37.0,66.0
808,144.28924475,144.74918018749997,49.0,42.0
809,144.67385975,144.9446928125,68.0,73.0
810,144.67385975,145.00879531249998,65.0,76.0
811,144.67385975,145.04885937499998,61.0,75.0
812,145.05847475,145.542448625,49.0,43.0
813,145.44308974999998,145.6209741875,70.0,75.0
814,144.67385975,145.8164868125,37.0,69.0
815,145.44308974999998,145.86776881249997,61.0,78.0
816,145.44308974999998,145.87898675,66.0,82.0
817,145.82770474999998,145.9478969375,49.0,73.0
818,146.21231974999998,146.471934875,54.0,76.0
819,146.21231974999998,146.6161655,61.0,75.0
820,146.21231974999998,146.69148593749998,66.0,78.0
821,146.21231974999998,146.69148593749998,70.0,76.0
822,146.59693474999997,146.91263956249998,54.0,44.0
823,146.98154975,147.06488299999998,66.0,72.0
824,146.98154975,147.0825111875,61.0,75.0
825,146.98154975,147.116165,70.0,75.0
826,147.17385725,147.2587930625,66.0,73.0
827,147.17385725,147.2684084375,61.0,70.0
828,147.17385725,147.28603662499998,70.0,75.0
829,147.17385725,147.33571606249998,54.0,60.0
830,146.21231974999998,147.36456218749998,42.0,73.0
831,147.55847225,147.811677125,66.0,76.0
832,147.55847225,147.81488224999998,63.0,72.0
833,147.55847225,147.8453309375,71.0,78.0
834,147.75077975,148.07129225,53.0,61.0
835,147.94308725,148.0777025,69.0,66.0
836,147.94308725,148.12257424999999,68.0,64.0
837,147.94308725,148.15943318749999,61.0,91.0
838,148.32770225,148.67065062499998,53.0,48.0
839,148.52000974999999,148.811676125,65.0,85.0
840,148.52000974999999,148.8982145,70.0,80.0
841,148.52000974999999,148.9190478125,62.0,91.0
842,148.90462474999998,148.9799451875,53.0,76.0
843,147.75077975,148.99116312499999,41.0,51.0
844,149.28923974999998,149.55847025,51.0,72.0
845,149.28923974999998,149.78122643749998,58.0,80.0
846,149.28923974999998,149.8004571875,66.0,78.0
847,149.28923974999998,149.83090587499998,61.0,85.0
848,149.67385474999998,149.91263656249998,51.0,45.0
849,150.05846974999997,150.16584143749998,61.0,80.0
850,150.05846974999997,150.17064912499998,58.0,78.0
851,150.05846974999997,150.23635418749998,66.0,82.0
852,150.44308475,150.56327693749998,56.0,75.0
853,150.25077725,150.56808462499998,51.0,44.0
854,150.44308475,150.62898199999998,65.0,82.0
855,150.63539225,150.721930625,61.0,82.0
856,150.63539225,150.74436649999998,58.0,76.0
857,150.63539225,150.7651998125,66.0,69.0
858,150.82769975,151.01840468749998,51.0,44.0
859,151.02000725,151.2171224375,58.0,76.0
860,151.02000725,151.32128899999998,65.0,80.0
861,151.21231475,151.625775875,51.0,46.0
862,151.59692975,151.888596125,58.0,82.0
863,151.59692975,151.89821149999997,66.0,63.0
864,151.59692975,151.9286601875,61.0,80.0
865,149.28923974999998,152.08410874999998,39.0,60.0
866,151.98154474999998,152.13539075,51.0,61.0
867,152.17385224999998,152.23154449999998,51.0,40.0
868,152.17385224999998,152.27160856249998,61.0,49.0
869,152.17385224999998,152.37894025,58.0,44.0
870,152.36487775,152.37894025,58.0,76.0
871,152.36487775,152.44612775,61.0,78.0
872,152.36487775,152.49769025,66.0,78.0
873,152.92737775,153.05237775,61.0,85.0
874,152.73987775,153.13675275,51.0,75.0
875,153.11487775,153.33050275,66.0,93.0
876,153.30237775,153.41487775,68.0,56.0
877,152.36487775,153.48987775,39.0,85.0
878,153.48987775,153.58831525,51.0,58.0
879,153.67737775,153.74456525,71.0,97.0
880,153.67737775,153.86487775,61.0,59.0
881,153.67737775,154.01800275,70.0,93.0
882,153.67737775,154.07894025,51.0,70.0
883,154.05237775,154.26644025,61.0,64.0
884,154.05237775,154.28675275,68.0,66.0
885,154.23987775,154.45237774999998,51.0,78.0
886,154.42737775,154.68050275,61.0,88.0
887,154.42737775,154.69300275,66.0,101.0
888,153.67737775,154.77269024999998,39.0,73.0
889,154.61487775,154.81175274999998,51.0,95.0
890,154.80237775,154.93987775,61.0,82.0
891,154.98987775,155.19925275,66.0,82.0
892,155.17737775,155.28831524999998,68.0,69.0
893,155.36365815,155.6136577,56.0,85.0
894,155.36365815,155.763047675,71.0,85.0
895,155.36365815,155.77219399999998,66.0,91.0
896,155.36365815,155.79048665,63.0,78.0
897,155.72951115,156.0404862,56.0,67.0
898,156.09536415,156.299632075,63.0,93.0
899,156.09536415,156.3087784,66.0,97.0
900,156.09536415,156.3087784,71.0,91.0
901,155.36365815,156.3682295125,44.0,70.0
902,156.27829065,156.40024165,56.0,78.0
903,156.46121714999998,156.665485075,68.0,66.0
904,156.64414365,156.763045875,70.0,67.0
905,156.82957174999999,157.102007375,49.0,66.0
906,156.82957174999999,157.210981625,68.0,73.0
907,156.82957174999999,157.2125841875,66.0,78.0
908,156.82957174999999,157.2254046875,61.0,75.0
909,157.21418675,157.39367375,49.0,44.0
910,157.40649425,157.768673375,61.0,72.0
911,157.40649425,157.826365625,68.0,72.0
912,156.82957174999999,157.9145065625,37.0,72.0
913,157.59880175,157.9786090625,49.0,44.0
914,157.98341675,158.21418575,66.0,72.0
915,158.17572425,158.3103395,68.0,67.0
916,158.36803175,158.5523264375,66.0,67.0
917,158.36803175,158.63726225,61.0,73.0
918,158.36803175,158.678928875,70.0,70.0
919,158.94495425,159.069954125,61.0,82.0
920,158.94495425,159.19335143749998,73.0,80.0
921,159.13726175,159.32956925,54.0,61.0
922,159.32956925,159.39367175,73.0,63.0
923,159.32956925,159.44335118749999,61.0,76.0
924,159.32956925,159.4689921875,71.0,97.0
925,159.52187675,159.7318124375,54.0,53.0
926,159.71418425,160.07897526041666,61.0,64.0
927,158.75264675,160.16230862291667,49.0,50.0
928,159.71418425,160.1792839375,70.0,48.0
929,160.08977773333334,160.21323456666667,54.0,55.0
930,160.27496298333332,160.46786428541668,61.0,60.0
931,160.46014823333334,160.68082732291666,49.0,13.0
932,160.64533348333333,160.87218541458333,61.0,88.0
933,160.46014823333334,160.90459283333334,54.0,82.0
934,158.36803175,160.90922246458334,42.0,76.0
935,160.64533348333333,160.910765675,66.0,95.0
936,160.83051873333332,160.98946940625,49.0,69.0
937,161.01570398333334,161.25798801875,61.0,67.0
938,161.38607448333335,161.725580775,58.0,91.0
939,161.38607448333335,161.78422277083334,68.0,78.0
940,161.38607448333335,161.85366723958333,61.0,91.0
941,161.38607448333335,161.87218576458332,65.0,93.0
942,161.94163023333334,162.33051925833334,58.0,45.0
943,162.12681548333333,162.36909951875,61.0,85.0
944,162.12681548333333,162.37681557083334,65.0,78.0
945,162.12681548333333,162.49101314166666,68.0,80.0
946,161.38607448333335,162.58514897708332,46.0,73.0
947,162.49718598333334,162.614469975,58.0,60.0
948,162.68237123333333,162.73329717708333,46.0,60.0
949,162.68237123333333,162.75798854375,58.0,75.0
950,162.68237123333333,162.75953175416666,65.0,63.0
951,162.68237123333333,162.76570459583334,70.0,69.0
952,162.68237123333333,162.76724780625,61.0,75.0
953,163.05274173333333,163.25953192916666,58.0,67.0
954,163.05274173333333,163.44008754791668,62.0,99.0
955,163.05274173333333,163.48638386041668,65.0,80.0
956,163.05274173333333,163.50798880625,70.0,73.0
957,163.42311223333334,163.68700121458335,58.0,76.0
958,163.60829748333333,163.75490247291665,65.0,88.0
959,163.60829748333333,163.84286546666667,62.0,97.0
960,163.60829748333333,163.84440867708332,68.0,80.0
961,163.79348273333332,163.97249514166666,58.0,72.0
962,163.05274173333333,164.02342108541666,46.0,63.0
963,163.97866798333334,164.09903839583333,50.0,82.0
964,164.34903848333335,164.75490282291668,61.0,80.0
965,164.34903848333335,164.78268061041666,66.0,78.0
966,164.34903848333335,164.78731024166666,58.0,80.0
967,164.71940898333332,164.92156954791668,51.0,49.0
968,164.90459423333334,165.05119922291667,56.0,78.0
969,164.90459423333334,165.21940915833332,65.0,75.0
970,165.08977948333333,165.2903968375,51.0,47.0
971,165.27496473333332,165.34286599166666,61.0,82.0
972,165.27496473333332,165.39070551458335,66.0,72.0
973,165.64533523333333,165.6978043875,68.0,64.0
974,165.46014998333334,165.74255748958333,51.0,72.0
975,165.64533523333333,165.75027354166667,61.0,70.0
976,165.64533523333333,165.7533599625,70.0,60.0
977,165.83177068333333,165.90139096666667,68.0,43.0
978,165.83177068333333,166.02480874166667,51.0,56.0
979,166.02164418333334,166.189365775,61.0,76.0
980,166.02164418333334,166.32860634166667,70.0,66.0
981,164.34903848333335,166.47575830416667,39.0,80.0
982,166.40139118333335,166.76215083333332,51.0,88.0
983,166.59126468333332,166.81436604583334,61.0,95.0
984,166.78113818333333,167.03430285,63.0,82.0
985,166.97101168333333,167.22575862916668,65.0,76.0
986,167.16088518333333,167.27797384166666,66.0,88.0
987,167.35075868333334,167.37765742916667,67.0,75.0
988,167.35075868333334,167.65297400416668,56.0,76.0
989,167.35075868333334,167.83968294583335,66.0,93.0
990,167.35075868333334,167.96151844166667,59.0,95.0
991,167.73050568333332,168.13149475,56.0,38.0
992,168.10961975,168.48149475,66.0,82.0
993,168.10961975,168.52524474999998,59.0,103.0
994,167.35075868333334,168.57836975,44.0,69.0
995,168.48461975,168.75024475,56.0,56.0
996,168.85961975,169.09086975,56.0,80.0
997,168.85961975,169.36586975,66.0,85.0
998,168.85961975,169.39711975,63.0,82.0
999,168.85961975,169.43618225,60.0,88.0
1000,169.60961975,169.78149475,66.0,80.0
1001,169.60961975,169.80961975,63.0,80.0
1002,169.60961975,169.81430724999998,60.0,97.0
1003,169.42211975,169.84243225,56.0,44.0
1004,168.85961975,169.86586975,44.0,72.0
1005,169.79711975,169.91430725,51.0,70.0
1006,169.98461975,170.21743225,61.0,67.0
1007,170.17211975,170.32055725,63.0,70.0
1008,170.35961975,170.55805725,49.0,78.0
1009,170.35961975,170.68149474999998,56.0,88.0
1010,170.35961975,170.71430725,61.0,80.0
1011,170.35961975,170.76274475,65.0,75.0
1012,170.73461975,170.90805724999998,49.0,52.0
1013,170.92211975,171.02836975,61.0,75.0
1014,170.92211975,171.03149475,58.0,78.0
1015,170.92211975,171.05649474999998,66.0,82.0
1016,171.11156775,171.346957125,49.0,66.0
1017,171.30637275,171.392411625,61.0,97.0
1018,171.30637275,171.444359625,68.0,85.0
1019,171.89078775,172.043385,61.0,88.0
1020,172.08559275,172.327475625,63.0,61.0
1021,172.28039775,172.402150875,65.0,75.0
1022,170.35961975,172.551501375,37.0,72.0
1023,171.69598274999998,172.619683125,49.0,69.0
1024,172.47520275,172.697605125,66.0,82.0
1025,172.67000775,172.98818925,68.0,64.0
1026,172.86481275,173.109942375,70.0,61.0
1027,173.05961775,173.31935775,71.0,66.0
1028,173.44922775,174.043383,66.0,45.0
1029,173.25442275,174.054746625,73.0,67.0
1030,173.44922775,174.0628635,61.0,51.0
1031,173.44922775,174.07909725,70.0,51.0
1032,174.22844775,174.684616125,66.0,67.0
1033,174.22844775,174.69597975,61.0,54.0
1034,174.22844775,174.69597975,70.0,61.0
1035,175.00766775,175.447602375,66.0,55.0
1036,175.00766775,175.44922574999998,61.0,46.0
1037,175.00766775,175.457342625,70.0,47.0
1038,173.44922775,175.944355125,54.0,55.0
1039,175.78688775,176.135913375,61.0,67.0
1040,175.78688775,176.161887375,66.0,72.0
1041,175.78688775,176.173251,70.0,66.0
1042,173.44922775,176.2966275,42.0,59.0
1043,176.17649775,176.346952125,54.0,59.0
1044,176.56610775,176.939484,61.0,69.0
1045,176.56610775,176.947600875,68.0,70.0
1046,176.56610775,176.978445,65.0,72.0
1047,177.34532775,177.674872875,61.0,75.0
1048,176.95571775,177.911885625,58.0,28.0
1049,177.73493775,178.04662575,63.0,57.0
1050,177.92974275,178.10506725,65.0,64.0
1051,178.12454775,178.39727475,58.0,57.0
1052,178.12454775,178.616430375,61.0,69.0
1053,178.12454775,178.79337825,66.0,70.0
1054,178.51415775,178.89240412499998,58.0,33.0
1055,178.90376775,179.129416875,61.0,78.0
1056,178.90376775,179.15863762499998,68.0,85.0
1057,176.56610775,179.187858375,46.0,69.0
1058,179.09857275,179.333962125,58.0,62.0
1059,179.29337775,179.56448137499999,61.0,63.0
1060,179.48818275,179.78039024999998,65.0,57.0
1061,179.68298775,180.061234125,68.0,63.0
1062,180.07259775,180.5121116375,58.0,56.0
1063,180.45964248333334,180.77445740833332,70.0,66.0
1064,180.45964248333334,180.7898895125,66.0,73.0
1065,180.45964248333334,180.8392722458333,63.0,49.0
1066,180.83001298333332,181.09081554374998,65.0,56.0
1067,180.83001298333332,181.2199109375,68.0,70.0
1068,180.83001298333332,181.26318012500002,58.0,56.0
1069,181.20228275,181.58209006250001,66.0,73.0
1070,181.20228275,181.7038848125,73.0,76.0
1071,181.58689775000002,181.981128125,58.0,36.0
1072,181.20228275,181.987538375,63.0,57.0
1073,179.68298775,182.3064483125,51.0,69.0
1074,181.97151275000002,182.3384995625,66.0,91.0
1075,181.97151275000002,182.36894825000002,70.0,80.0
1076,182.35612775,182.49715325,58.0,73.0
1077,182.74074275,183.1942679375,61.0,69.0
1078,182.74074275,183.2391396875,65.0,70.0
1079,182.74074275,183.24074225,68.0,69.0
1080,182.74074275,183.4891394375,46.0,70.0
1081,183.12535775,183.513177875,53.0,45.0
1082,183.50997275,183.9570876875,56.0,70.0
1083,183.89458775,184.6493946875,58.0,70.0
1084,184.27920275,184.65099725000002,68.0,66.0
1085,184.66381775000002,185.0628558125,66.0,63.0
1086,184.27920275,185.1493941875,61.0,72.0
1087,185.04843275000002,185.29843250000002,58.0,64.0
1088,185.04843275000002,185.38016318750002,65.0,62.0
1089,185.43304775000001,185.7343295,68.0,62.0
1090,185.81766275,186.18945725,63.0,67.0
1091,185.81766275,186.20227775,66.0,73.0
1092,186.20227775,186.64618756250002,54.0,45.0
1093,186.58689275,186.9955461875,61.0,63.0
1094,186.58689275,187.04362306250002,68.0,69.0
1095,186.58689275,187.054841,59.0,66.0
1096,186.97150775,187.1654178125,70.0,70.0
1097,187.35612275,187.679840375,71.0,66.0
1098,187.35612275,187.705481375,63.0,61.0
1099,187.35612275,187.9442631875,59.0,66.0
1100,186.97150775,188.02278875000002,54.0,56.0
1101,187.93304525000002,188.28344575,66.0,60.0
1102,187.93304525000002,188.30219575,73.0,64.0
1103,187.93304525000002,188.31313325,63.0,53.0
1104,188.12407075000002,188.33657075,54.0,34.0
1105,188.12407075000002,188.34438325,59.0,61.0
1106,185.81766275,188.46938325,47.0,62.0
1107,188.49907075000002,188.63500825,73.0,63.0
1108,188.87535275,189.320865125,59.0,73.0
1109,188.87535275,189.3416984375,56.0,67.0
1110,188.87535275,189.36253175000002,52.0,78.0
1111,188.87535275,189.41381375,64.0,75.0
1112,189.45227525,189.7920185,56.0,76.0
1113,189.64458275,190.115736125,52.0,55.0
1114,190.02919775,190.301633375,59.0,66.0
1115,190.22150525,190.346505125,64.0,45.0
1116,190.41381275,190.4859280625,59.0,67.0
1117,190.41381275,190.583684375,52.0,91.0
1118,190.41381275,190.6013125625,66.0,69.0
1119,190.41381275,190.62855612500002,56.0,80.0
1120,190.79842775,190.9442609375,52.0,24.0
1121,190.99073525,191.2647734375,68.0,99.0
1122,191.18304275,191.3320810625,52.0,76.0
1123,188.87535275,191.4699014375,40.0,75.0
1124,191.56765775,191.7455421875,70.0,93.0
1125,191.75996525,191.9570804375,68.0,63.0
1126,191.95227275,192.3096441875,37.0,69.0
1127,191.95227275,192.4122081875,65.0,80.0
1128,192.33688775000002,192.814701125,49.0,56.0
1129,192.72216875,193.028986625,53.0,60.0
1130,192.72216875,193.043597,63.0,82.0
1131,193.11177874999998,193.39749275,61.0,85.0
1132,193.50138875,193.8682715,61.0,75.0
1133,193.50138875,193.874765,66.0,72.0
1134,193.50138875,193.88450525,58.0,70.0
1135,194.08580375,194.330933375,61.0,78.0
1136,194.08580375,194.373141125,56.0,80.0
1137,193.69619375,194.37801125,37.0,48.0
1138,194.08580375,194.454309875,65.0,76.0
1139,194.28060875,194.561452625,49.0,47.0
1140,194.67021875,194.91697175,63.0,64.0
1141,194.86502375,195.02086775,65.0,64.0
1142,195.045218375,195.8163215,54.0,62.0
1143,195.4396985,195.84554225,61.0,54.0
1144,195.83904875,196.243269125,66.0,58.0
1145,196.17671075,196.256256125,68.0,73.0
1146,196.655606375,197.04034625,73.0,64.0
1147,197.18969675,197.33904725,73.0,61.0
1148,197.512748375,197.61177425,61.0,62.0
1149,197.199437,197.629631375,54.0,69.0
1150,198.199436,198.6994355,74.0,93.0
1151,198.199436,198.74164325,71.0,80.0
1152,198.918591125,199.110149375,71.0,80.0
1153,198.201059375,199.18320125,47.0,66.0
1154,198.20917624999998,199.194564875,59.0,66.0
1155,199.08579875,199.2968375,74.0,80.0
1156,199.658850125,199.94552425208332,73.0,67.0
1157,199.66372025,199.9895382625,68.0,58.0
1158,199.6734605,200.02651003124998,61.0,48.0
1159,200.52300683125,200.683243,71.0,97.0
1160,200.253628975,200.690286375,61.0,40.0
1161,200.52652811041668,200.69909059375001,66.0,76.0
1162,199.6734605,201.1640070375,49.0,62.0
1163,201.07946523750002,201.1640070375,56.0,75.0
1164,201.69783086666666,202.27979537916667,61.0,76.0
1165,201.64144293333334,202.29745335833334,58.0,51.0
1166,201.77360215208336,202.29745335833334,66.0,76.0
1167,202.48462793750002,202.66124225000002,58.0,56.0
1168,202.652396,202.82047475000002,61.0,61.0
1169,202.801013,202.893014,66.0,67.0
1170,202.97970725000002,203.174633625,68.0,73.0
1171,203.13914566666668,203.30239027500002,70.0,62.0
1172,203.29884147916667,203.38046378333334,72.0,63.0
1173,203.47273247500002,203.64904475000003,73.0,48.0
1174,203.62944458333337,203.85930108333335,78.0,55.0
1175,203.83079175000003,203.92704204375002,80.0,62.0
1176,204.01307074375,204.27294910833336,82.0,61.0
1177,204.1940894666667,204.49452587083337,85.0,51.0
1178,204.44394258750003,204.7347964666667,90.0,43.0
1179,204.76550774583336,204.98618520833335,92.0,58.0
1180,202.19154168333336,205.0884134416667,49.0,46.0
1181,202.37868006250002,205.0884134416667,54.0,54.0
1182,205.01356777083336,205.1048429791667,94.0,69.0
1183,201.71192785000002,205.12857453333336,42.0,69.0
