,start,end,pitch,velocity
0,15.936450177083334,16.293006989583333,74.0,102.0
1,16.428252677083332,16.549154125,62.0,105.0
2,16.674153927083335,16.780711135416666,64.0,92.0
3,16.920055177083334,17.266366104166668,66.0,105.0
4,17.411857677083333,17.7417751875,71.0,102.0
5,17.903660177083335,18.9835765,69.0,66.0
6,19.870870177083333,20.196689333333335,67.0,105.0
7,20.362672677083335,20.536852729166668,66.0,99.0
8,20.608573927083334,21.192589395833334,62.0,100.0
9,21.346277677083336,21.723326260416666,66.0,93.0
10,21.838080177083334,23.39135640625,64.0,111.0
11,23.805290177083336,24.129060156250002,74.0,102.0
12,24.297092677083334,24.4302891875,62.0,100.0
13,24.542993927083334,24.659797020833334,64.0,97.0
14,24.788895177083333,25.141353635416667,66.0,102.0
15,25.280697677083335,25.598320125,71.0,102.0
16,25.772500177083334,26.35241729166667,73.0,99.0
17,26.510203927083335,27.24380932291667,69.0,105.0
18,27.247907677083333,27.397497604166666,66.0,105.0
19,27.493808927083336,28.655692333333334,71.0,100.0
20,29.706920177083333,29.85241175,73.0,99.0
21,29.952821427083336,30.10241135416667,73.0,68.0
22,30.198722677083335,30.342165072916668,73.0,93.0
23,30.444623927083335,30.56962372916667,74.0,97.0
24,30.690525177083334,30.82167251041667,76.0,94.0
25,30.936426427083333,31.061426229166667,74.0,87.0
26,31.182327677083336,31.514294364583336,73.0,102.0
27,31.674130177083335,32.16183432291667,74.0,97.0
28,32.16593267708333,32.32781766666667,73.0,102.0
29,32.411833927083336,32.65773517708333,74.0,102.0
30,32.903636427083335,33.393389750000004,78.0,105.0
31,33.641340177083336,33.99994616666667,73.0,105.0
32,34.133142677083335,34.27658507291667,71.0,108.0
33,34.37904392708334,34.7581416875,73.0,96.0
34,34.870846427083336,35.321665385416665,69.0,108.0
35,35.60855017708334,35.73150080208333,71.0,102.0
36,35.85445142708333,36.00199217708334,71.0,105.0
37,36.100352677083336,36.225352479166666,73.0,105.0
38,36.34625392708333,36.47740126041667,74.0,76.0
39,36.592155177083335,36.713056625,76.0,105.0
40,36.83805642708334,36.950761166666666,74.0,100.0
41,37.08395767708333,37.21510501041667,76.0,105.0
42,37.329858927083336,37.46510461458333,79.0,102.0
43,37.57576017708333,37.94051369791667,78.0,109.0
44,38.06756267708334,38.17207070833334,76.0,97.0
45,38.31346392708333,38.698709218750004,76.0,108.0
46,38.80526642708333,39.48149486458333,74.0,105.0
47,39.54297017708333,39.93231382291667,74.0,105.0
48,40.03477267708333,40.176165895833336,73.0,105.0
49,40.280673927083335,40.612640614583334,74.0,92.0
50,40.77247642708333,41.16796760416667,78.0,109.0
51,41.510180177083335,41.85034357291667,73.0,105.0
52,42.00198267708333,42.15772013541667,71.0,97.0
53,42.247883927083336,42.6515718125,73.0,102.0
54,42.739686427083335,43.23968563541667,69.0,92.0
55,43.477390177083336,44.872879770833336,71.0,114.0
56,45.44460017708334,45.54705903125,74.0,111.0
57,45.69050142708333,45.80935369791667,74.0,100.0
58,45.936402677083336,46.06140247916667,74.0,105.0
59,46.18230392708333,46.29910702083333,76.0,108.0
60,46.428205177083335,46.801155406250004,78.0,109.0
61,46.92000767708333,47.036810770833334,76.0,100.0
62,47.165908927083336,47.561400104166665,74.0,105.0
63,47.657711427083335,49.22943025,76.0,102.0
64,49.87082267708333,50.03680602083333,73.0,105.0
65,50.116723927083335,50.42819884375,74.0,105.0
66,50.60852642708333,51.09827975,76.0,114.0
67,51.346230177083335,51.70278698958334,78.0,109.0
68,51.83803267708333,51.96918001041667,76.0,102.0
69,52.083933927083336,52.51835946875,74.0,109.0
70,52.575736427083335,52.919998177083336,69.0,105.0
71,53.06753892708333,54.2827009375,76.0,92.0
72,54.78884767708333,54.944585135416666,78.0,105.0
73,55.034748927083335,55.14745366666667,76.0,92.0
74,55.28065017708334,55.573682500000004,74.0,111.0
75,55.772452677083336,55.90155083333334,73.0,93.0
76,56.01835392708333,56.319582958333335,71.0,102.0
77,56.51015642708334,56.83392640625,66.0,93.0
78,57.00195892708334,57.98146557291667,73.0,96.0
79,58.723267677083335,58.86671007291667,74.0,105.0
80,58.96916892708334,59.09211955208333,73.0,109.0
81,59.215070177083334,59.52654509375,71.0,105.0
82,59.70687267708333,59.835970833333334,73.0,96.0
83,59.952773927083335,60.23760954166667,74.0,100.0
84,60.444576427083334,60.72326451041667,76.0,105.0
85,60.93637892708333,61.32162421875,69.0,102.0
86,61.42818142708334,61.87695120833334,78.0,102.0
87,61.91998392708334,62.583917302083336,78.0,105.0
88,62.903588927083334,63.047031322916666,78.0,112.0
89,63.14949017708334,63.45891591666667,79.0,108.0
90,63.641292677083335,63.79498095833333,78.0,112.0
91,63.88719392708334,64.24989827083334,74.0,108.0
92,64.37899642708334,64.72735653125,76.0,102.0
93,64.87079892708334,65.69661729166667,76.0,111.0
94,65.85440392708334,65.97735455208334,73.0,112.0
95,66.10030517708334,66.22530497916667,74.0,87.0
96,66.34620642708333,66.87899246875,76.0,111.0
97,67.08391017708334,67.44866369791667,78.0,109.0
98,67.57571267708333,67.67817153125,76.0,105.0
99,67.82161392708333,68.12694131250001,74.0,108.0
100,68.31341642708334,68.60439957291666,69.0,105.0
101,68.80521892708333,69.71095519791668,76.0,94.0
102,70.28062642708333,70.40357705208334,76.0,102.0
103,70.52652767708334,70.66382254166668,78.0,109.0
104,70.77242892708334,70.88513366666668,76.0,105.0
105,71.01833017708334,71.3236575625,74.0,111.0
106,71.51013267708333,71.63923083333333,73.0,109.0
107,71.75603392708334,72.07980390625,71.0,102.0
108,72.24783642708334,72.54291792708334,76.0,97.0
109,72.73963892708333,73.75193240625,73.0,96.0
110,74.46094767708334,74.59209501041667,74.0,102.0
111,74.70684892708334,74.82570119791667,73.0,102.0
112,74.95275017708333,75.23758579166667,71.0,108.0
113,75.44455267708334,75.55725741666667,69.0,102.0
114,75.69045392708334,75.98143707291666,71.0,108.0
115,76.18225642708333,76.450698625,74.0,108.0
116,76.67405892708334,77.01422232291667,69.0,105.0
117,77.16586142708334,77.48963140625,76.0,97.0
118,77.65766392708333,78.10643370833334,74.0,105.0
119,78.39536767708334,78.52036747916667,78.0,112.0
120,78.64126892708333,78.77856379166667,78.0,93.0
121,78.88717017708333,79.204792625,79.0,100.0
122,79.37897267708334,79.52241507291667,78.0,105.0
123,79.62487392708334,80.22118445833334,76.0,100.0
124,80.36257767708334,80.49372501041667,74.0,97.0
125,80.60847892708334,80.73142955208334,76.0,94.0
126,80.85438017708334,81.18839604166666,77.0,102.0
127,81.34618267708333,81.52036272916666,76.0,105.0
128,81.59208392708334,81.73142796875,74.0,92.0
129,81.83798517708334,82.22323046875,77.0,100.0
130,82.32978767708333,82.47527925,74.0,108.0
131,82.57568892708333,83.06339307291667,69.0,102.0
132,83.31339267708334,86.04904408333334,74.0,97.0
133,102.49369017708334,102.98139432291667,74.0,97.0
134,102.98549267708334,103.14737766666667,73.0,102.0
135,103.23139392708333,103.47729517708333,74.0,102.0
136,103.72319642708334,104.21294975,78.0,105.0
137,104.46090017708333,104.81950616666667,73.0,105.0
138,104.95270267708334,105.09614507291667,71.0,108.0
139,105.19860392708334,105.57770168750001,73.0,96.0
140,105.69040642708333,106.14122538541667,69.0,108.0
141,106.42811017708334,106.55106080208334,71.0,102.0
142,106.67401142708334,106.82155217708333,71.0,105.0
143,106.91991267708333,107.04491247916667,73.0,105.0
144,107.16581392708333,107.29696126041667,74.0,76.0
145,107.41171517708334,107.532616625,76.0,105.0
146,107.65761642708334,107.77032116666668,74.0,100.0
147,107.90351767708334,108.03466501041667,76.0,105.0
148,108.14941892708333,108.28466461458333,79.0,102.0
149,108.39532017708333,108.76007369791667,78.0,109.0
150,108.88712267708334,108.99163070833333,76.0,97.0
151,109.13302392708334,109.51826921875,76.0,108.0
152,109.62482642708333,110.30105486458334,74.0,105.0
153,110.36253017708334,110.75187382291666,74.0,105.0
154,110.85433267708333,110.99572589583333,73.0,105.0
155,111.10023392708334,111.43220061458334,74.0,92.0
156,111.59203642708334,111.98752760416667,78.0,109.0
157,112.32974017708334,112.66990357291667,73.0,105.0
158,112.82154267708334,112.97728013541668,71.0,97.0
159,113.06744392708333,113.4711318125,73.0,102.0
160,113.55924642708334,114.05924563541667,69.0,92.0
161,114.29695017708333,115.69243977083333,71.0,114.0
162,115.77235767708333,115.89530830208334,74.0,111.0
163,116.01825892708334,116.13711119791667,74.0,105.0
164,116.26416017708334,116.61661863541667,74.0,111.0
165,116.75596267708333,116.86866741666667,76.0,105.0
166,117.00186392708333,117.14325714583333,78.0,112.0
167,117.24776517708334,117.64325635416667,79.0,102.0
168,117.73956767708334,117.88915760416667,78.0,105.0
169,117.98546892708333,118.598172875,74.0,108.0
170,118.72317267708334,120.30103903125,76.0,111.0
171,120.69038267708333,120.85636602083333,73.0,105.0
172,120.93628392708334,121.24775884375,74.0,105.0
173,121.42808642708334,121.91783975,76.0,114.0
174,122.16579017708334,122.52234698958334,78.0,109.0
175,122.65759267708334,122.78874001041667,76.0,102.0
176,122.90349392708333,123.33791946875,74.0,109.0
177,123.39529642708334,123.73955817708334,69.0,105.0
178,123.88709892708334,125.1022609375,76.0,92.0
179,125.60840767708333,125.76414513541667,78.0,105.0
180,125.85430892708334,125.96701366666667,76.0,92.0
181,126.10021017708334,126.3932425,74.0,111.0
182,126.59201267708333,126.72111083333334,73.0,93.0
183,126.83791392708333,127.13914295833334,71.0,102.0
184,127.32971642708334,127.65348640625001,66.0,93.0
185,127.82151892708333,128.80102557291667,73.0,96.0
186,129.54282767708335,129.68627007291667,74.0,105.0
187,129.78872892708333,129.91167955208334,73.0,109.0
188,130.03463017708333,130.34610509375,71.0,105.0
189,130.52643267708333,130.65553083333333,73.0,96.0
190,130.77233392708334,131.05716954166667,74.0,100.0
191,131.26413642708334,131.54282451041666,76.0,105.0
192,131.75593892708335,132.14118421875,69.0,102.0
193,132.24774142708333,132.69651120833333,78.0,102.0
194,132.73954392708333,133.40347730208333,78.0,105.0
195,133.72314892708334,133.86659132291666,78.0,112.0
196,133.96905017708335,134.27847591666668,79.0,108.0
197,134.46085267708335,134.61454095833335,78.0,112.0
198,134.70675392708333,135.06945827083334,74.0,108.0
199,135.19855642708333,135.54691653125,76.0,102.0
200,135.69035892708334,136.51617729166668,76.0,111.0
201,136.67396392708335,136.79691455208334,73.0,112.0
202,136.91986517708335,137.04486497916668,74.0,87.0
203,137.16576642708333,137.69855246875,76.0,111.0
204,137.90347017708334,138.26822369791668,78.0,109.0
205,138.39527267708334,138.49773153125,76.0,105.0
206,138.64117392708334,138.9465013125,74.0,108.0
207,139.13297642708335,139.42395957291666,69.0,105.0
208,139.62477892708333,140.53051519791669,76.0,94.0
209,141.10018642708334,141.22313705208333,76.0,102.0
210,141.34608767708335,141.48338254166669,78.0,109.0
211,141.59198892708335,141.70469366666669,76.0,105.0
212,141.83789017708335,142.1432175625,74.0,111.0
213,142.32969267708333,142.45879083333332,73.0,109.0
214,142.57559392708333,142.89936390625002,71.0,102.0
215,143.06739642708334,143.36247792708335,76.0,97.0
216,143.55919892708334,144.57149240625,73.0,96.0
217,145.28050767708334,145.41165501041667,74.0,102.0
218,145.52640892708334,145.64526119791668,73.0,102.0
219,145.77231017708334,146.05714579166667,71.0,108.0
220,146.26411267708335,146.37681741666668,69.0,102.0
221,146.51001392708335,146.80099707291666,71.0,108.0
222,147.00181642708333,147.270258625,74.0,108.0
223,147.49361892708333,147.83378232291668,69.0,105.0
224,147.98542142708334,148.30919140625,76.0,97.0
225,148.47722392708334,148.92599370833335,74.0,105.0
226,149.21492767708335,149.33992747916668,78.0,112.0
227,149.46082892708333,149.59812379166667,78.0,93.0
228,149.70673017708333,150.024352625,79.0,100.0
229,150.19853267708334,150.34197507291668,78.0,105.0
230,150.44443392708334,151.04074445833334,76.0,100.0
231,151.18213767708335,151.31328501041668,74.0,97.0
232,151.42803892708335,151.55098955208334,76.0,94.0
233,151.67394017708335,152.00795604166666,77.0,102.0
234,152.16574267708333,152.33992272916666,76.0,105.0
235,152.41164392708333,152.55098796875,74.0,92.0
236,152.65754517708334,153.04279046875,77.0,100.0
237,153.14934767708334,153.29483925,74.0,108.0
238,153.39524892708334,153.88295307291668,69.0,102.0
239,154.13295267708335,156.86860408333334,74.0,97.0
240,162.24769392708333,162.39318550000002,71.0,114.0
241,162.49359517708334,163.0612172291667,83.0,114.0
242,163.23129892708334,163.41982321875,80.0,105.0
243,163.47720017708335,164.532526375,78.0,99.0
244,165.19850892708334,165.38293486458335,80.0,93.0
245,165.44441017708334,165.79686863541667,78.0,105.0
246,165.93621267708335,167.21694835416668,76.0,105.0
247,167.41162017708334,167.62063623958335,75.0,109.0
248,167.65752142708334,167.86038995833334,73.0,105.0
249,167.90342267708334,168.88292932291668,71.0,105.0
250,168.88702767708335,169.04276513541666,76.0,102.0
251,169.13292892708333,169.26202708333335,75.0,112.0
252,169.37883017708333,169.69850180208334,73.0,105.0
253,169.87063267708334,169.97718988541666,75.0,109.0
254,170.11653392708334,170.39522201041666,76.0,100.0
255,170.60833642708334,170.89112286458334,78.0,105.0
256,171.10013892708335,171.45259738541668,71.0,117.0
257,171.59194142708333,171.91571140625,80.0,109.0
258,172.08374392708333,172.61652996875,80.0,109.0
259,173.06734892708334,173.20464379166668,80.0,99.0
260,173.31325017708335,173.63702015625,81.0,105.0
261,173.80505267708335,173.92800330208334,80.0,112.0
262,174.05095392708333,174.39111732291667,76.0,102.0
263,174.54275642708333,174.86857558333335,80.0,105.0
264,175.03455892708334,175.89111494791666,78.0,109.0
265,176.01816392708335,176.15955714583333,75.0,105.0
266,176.26406517708335,176.4218518125,76.0,94.0
267,176.50996642708333,177.07758847916668,78.0,105.0
268,177.24767017708334,177.59193192708335,80.0,109.0
269,177.73947267708334,177.91570190625,78.0,109.0
270,177.98537392708334,178.29684884375,76.0,108.0
271,178.47717642708335,179.0284050625,83.0,105.0
272,179.21488017708333,180.23741954166667,78.0,96.0
273,180.44438642708334,180.54889445833334,78.0,105.0
274,180.69028767708335,180.80913994791666,80.0,105.0
275,180.93618892708335,181.04684448958335,78.0,105.0
276,181.18209017708335,181.53864698958333,76.0,100.0
277,181.67389267708333,181.81733507291668,75.0,99.0
278,181.91979392708333,182.26610485416668,73.0,105.0
279,182.41159642708334,182.72921887500002,78.0,105.0
280,182.90339892708334,184.13905270833334,75.0,105.0
281,184.62470767708334,184.75585501041667,76.0,100.0
282,184.87060892708334,184.99970708333333,75.0,105.0
283,185.11651017708334,185.43413262500002,73.0,109.0
284,185.60831267708335,185.7456075416667,71.0,108.0
285,185.85421392708335,186.11650859375,73.0,102.0
286,186.34601642708333,186.62470451041668,76.0,102.0
287,186.83781892708333,187.19437573958334,71.0,108.0
288,187.32962142708334,187.70667001041667,78.0,109.0
289,187.82142392708334,188.27839041666667,76.0,97.0
290,188.55912767708335,188.69642254166666,80.0,102.0
291,188.80502892708333,188.93412708333335,80.0,102.0
292,189.05093017708333,189.40748698958333,81.0,105.0
293,189.54273267708334,189.66568330208335,80.0,109.0
294,189.78863392708334,190.40748540625,78.0,102.0
295,190.52633767708335,190.65748501041668,76.0,100.0
296,190.77223892708335,190.8849436666667,78.0,99.0
297,191.01814017708335,191.37059863541668,79.0,105.0
298,191.50994267708333,191.67592602083334,78.0,109.0
299,191.75584392708333,191.89313879166667,76.0,89.0
300,192.00174517708334,192.37264622916666,79.0,105.0
301,192.49354767708334,192.64313760416667,76.0,94.0
302,192.73944892708334,193.44026748958333,71.0,111.0
303,193.47715267708335,193.91977492708335,78.0,109.0
304,193.96895517708333,196.23124667708333,76.0,100.0
305,198.88698017708333,199.14517648958335,79.0,108.0
306,199.37878267708334,199.59394627083333,78.0,102.0
307,199.62468392708334,199.7701755,76.0,94.0
308,199.87058517708334,200.28451894791667,79.0,105.0
309,200.36238767708335,202.01402440625,76.0,100.0
310,202.82140017708335,203.92795580208335,71.0,108.0
311,203.80500517708333,204.77426593750002,78.0,105.0
312,204.78861017708334,208.59598119791667,76.0,100.0
