,start,end,pitch,velocity
0,0.19877017708333333,0.9385231041666667,62.0,67.0
1,0.19877017708333333,1.0491786666666667,66.0,70.0
2,0.6905726770833334,1.4180305416666668,57.0,48.0
3,0.19877017708333333,1.4282764270833335,50.0,73.0
4,1.1823751770833333,1.598358125,66.0,90.0
5,1.1823751770833333,1.62294825,62.0,73.0
6,2.1659801770833336,2.813520135416667,57.0,49.0
7,2.1659801770833336,2.82171684375,61.0,23.0
8,2.6577826770833335,3.3401586458333337,49.0,26.0
9,2.1659801770833336,3.614748375,42.0,44.0
10,3.1495851770833334,3.71925640625,57.0,87.0
11,3.1495851770833334,3.938518354166667,66.0,52.0
12,3.6413876770833333,3.95286259375,61.0,52.0
13,3.8872889270833335,4.024583791666667,57.0,55.0
14,4.133190177083334,4.8094186145833335,59.0,78.0
15,4.133190177083334,4.889336520833334,55.0,64.0
16,4.624992677083333,5.192614729166666,50.0,46.0
17,5.1167951770833335,5.438515979166667,55.0,94.0
18,4.133190177083334,5.53892565625,43.0,78.0
19,5.1167951770833335,5.694663114583333,62.0,92.0
20,5.608597677083334,5.8893349375,55.0,64.0
21,5.362696427083334,5.9405643645833335,50.0,73.0
22,5.854498927083333,6.102449354166667,59.0,69.0
23,6.100400177083333,6.5553174895833335,61.0,46.0
24,6.100400177083333,6.8278580416666665,57.0,66.0
25,6.592202677083334,7.16187390625,52.0,43.0
26,6.100400177083333,7.3237588958333335,45.0,80.0
27,7.084005177083333,7.584004385416667,57.0,84.0
28,7.084005177083333,7.645479697916667,61.0,68.0
29,7.084005177083333,7.6803157083333335,64.0,84.0
30,7.575807677083334,7.895479302083333,52.0,60.0
31,7.821708927083334,7.983593916666667,57.0,69.0
32,8.067610177083333,8.73564190625,62.0,76.0
33,8.067610177083333,8.924166197916668,66.0,82.0
34,8.559412677083333,9.157772385416667,57.0,51.0
35,9.051215177083334,9.364739270833333,62.0,66.0
36,8.067610177083333,9.4057228125,50.0,97.0
37,9.297116427083333,9.499984958333334,57.0,67.0
38,9.051215177083334,9.569656979166666,66.0,59.0
39,9.543017677083334,9.850394239583334,62.0,71.0
40,9.788918927083333,10.196705166666668,66.0,93.0
41,10.526622677083333,10.706950260416667,54.0,34.0
42,10.280721427083334,11.186457697916667,49.0,24.0
43,10.034820177083335,11.477440843750001,42.0,82.0
44,11.018425177083333,11.491785083333333,54.0,85.0
45,11.018425177083333,11.5081785,61.0,63.0
46,11.510227677083334,11.645473364583333,49.0,39.0
47,12.002030177083334,12.293013322916668,55.0,73.0
48,12.002030177083334,12.2950625,59.0,84.0
49,12.247931427083333,12.483586791666667,50.0,76.0
50,12.493832677083335,12.7745699375,55.0,89.0
51,12.739733927083334,13.122930041666667,57.0,89.0
52,12.985635177083333,13.59219159375,59.0,84.0
53,12.002030177083334,13.674158677083334,43.0,94.0
54,13.477437677083334,13.848338729166667,62.0,82.0
55,13.969240177083334,15.833991322916667,55.0,57.0
56,13.969240177083334,15.8483355625,43.0,49.0
57,13.969240177083334,15.8483355625,59.0,60.0
58,13.969240177083334,15.85448309375,62.0,55.0
59,15.936450177083334,16.5368590625,57.0,78.0
60,15.936450177083334,16.594236020833335,62.0,80.0
61,15.936450177083334,16.670055572916667,66.0,54.0
62,15.936450177083334,17.34218565625,50.0,80.0
63,16.920055177083334,17.4712838125,62.0,84.0
64,16.920055177083334,17.55530007291667,66.0,85.0
65,17.411857677083333,17.80939803125,57.0,89.0
66,17.903660177083335,18.596282031250002,61.0,68.0
67,17.903660177083335,18.606527916666668,66.0,77.0
68,18.395462677083334,19.045051812500002,49.0,6.0
69,17.903660177083335,19.059396052083333,42.0,55.0
70,18.887265177083336,19.155707375000002,57.0,94.0
71,18.887265177083336,19.452838052083333,61.0,96.0
72,19.379067677083334,19.52455925,57.0,94.0
73,18.887265177083336,19.53070678125,66.0,70.0
74,19.870870177083333,20.553246145833334,64.0,89.0
75,19.870870177083333,20.592180510416668,59.0,84.0
76,20.854475177083334,21.01840934375,59.0,94.0
77,20.854475177083334,21.383162864583333,67.0,89.0
78,19.870870177083333,21.4302939375,52.0,73.0
79,21.346277677083336,21.508162666666667,64.0,82.0
80,21.100376427083333,21.54709703125,59.0,73.0
81,21.838080177083334,22.46717754166667,61.0,50.0
82,21.838080177083334,22.516357791666668,57.0,87.0
83,22.329882677083333,22.909799791666668,52.0,52.0
84,22.821685177083335,23.14545515625,57.0,100.0
85,22.821685177083335,23.344225333333334,64.0,94.0
86,21.838080177083334,23.534798802083333,45.0,92.0
87,23.067586427083334,23.639306833333332,52.0,73.0
88,23.313487677083334,23.639306833333332,57.0,80.0
89,23.805290177083336,24.10447003125,57.0,89.0
90,23.805290177083336,24.59422335416667,62.0,87.0
91,24.297092677083334,24.68028879166667,57.0,51.0
92,24.788895177083333,25.03684560416667,57.0,92.0
93,23.805290177083336,25.204878125,50.0,67.0
94,24.788895177083333,25.268402614583334,62.0,87.0
95,24.788895177083333,25.29709109375,66.0,57.0
96,25.280697677083335,25.49381209375,57.0,60.0
97,25.772500177083334,26.52659734375,61.0,54.0
98,25.772500177083334,26.620859489583335,57.0,80.0
99,26.264302677083336,26.934383583333336,49.0,30.0
100,25.772500177083334,26.940531114583333,42.0,70.0
101,26.756105177083334,26.989711364583336,57.0,92.0
102,26.756105177083334,27.309382989583334,66.0,68.0
103,26.756105177083334,27.321678052083335,61.0,102.0
104,27.247907677083333,27.456923739583335,57.0,94.0
105,27.739710177083335,28.06348015625,55.0,78.0
106,27.739710177083335,28.391348489583333,59.0,80.0
107,28.231512677083334,28.77659378125,55.0,57.0
108,27.985611427083334,28.81757732291667,50.0,51.0
109,28.723315177083336,29.17413413541667,62.0,87.0
110,27.739710177083335,29.1761833125,43.0,100.0
111,28.723315177083336,29.211019322916666,59.0,105.0
112,28.969216427083335,29.241756979166666,50.0,64.0
113,29.215117677083335,29.506100822916668,55.0,84.0
114,29.461018927083334,29.590117083333336,62.0,67.0
115,29.706920177083333,30.194624322916667,57.0,80.0
116,29.706920177083333,30.395443677083335,61.0,1.0
117,29.706920177083333,30.54708278125,54.0,90.0
118,29.706920177083333,30.66183669791667,42.0,93.0
119,30.690525177083334,31.133147427083333,54.0,79.0
120,30.690525177083334,31.196671916666666,46.0,46.0
121,30.690525177083334,31.237655458333336,58.0,70.0
122,31.674130177083335,32.36265367708334,59.0,76.0
123,31.674130177083335,32.40158804166667,62.0,87.0
124,32.16593267708333,32.73355472916667,54.0,41.0
125,32.65773517708333,32.98150515625,59.0,102.0
126,32.903636427083335,33.17617697916667,54.0,70.0
127,31.674130177083335,33.206914635416666,47.0,100.0
128,33.14953767708334,33.37699633333334,59.0,82.0
129,32.65773517708333,33.38519304166667,66.0,99.0
130,33.641340177083336,34.28683095833333,61.0,54.0
131,33.641340177083336,34.374945572916666,57.0,87.0
132,34.133142677083335,34.77863345833333,52.0,57.0
133,34.62494517708333,34.90978079166667,57.0,111.0
134,34.62494517708333,35.07371495833333,64.0,97.0
135,33.641340177083336,35.16387875,45.0,97.0
136,34.870846427083336,35.368796458333335,52.0,76.0
137,35.11674767708333,35.46920613541667,57.0,84.0
138,35.362648927083335,35.49174708333334,64.0,80.0
139,35.60855017708334,36.27863108333334,59.0,87.0
140,35.60855017708334,36.38313911458334,55.0,82.0
141,36.100352677083336,36.715105802083336,50.0,47.0
142,35.60855017708334,36.76633522916667,43.0,94.0
143,36.592155177083335,36.8728924375,55.0,84.0
144,36.592155177083335,36.8851875,59.0,94.0
145,36.592155177083335,36.924121864583334,62.0,84.0
146,37.08395767708333,37.40977683333333,43.0,94.0
147,37.57576017708333,37.85034990625,57.0,87.0
148,38.06756267708334,38.3237098125,57.0,52.0
149,37.57576017708333,38.36879170833333,66.0,68.0
150,37.57576017708333,38.43846372916667,50.0,66.0
151,38.559365177083336,39.06756109375,57.0,97.0
152,38.559365177083336,39.319609875000005,61.0,79.0
153,38.559365177083336,39.39952778125,49.0,94.0
154,39.051167677083335,39.44665885416667,52.0,84.0
155,39.29706892708334,39.44665885416667,57.0,92.0
156,39.54297017708333,39.88313357291667,59.0,87.0
157,39.54297017708333,40.29911652083334,62.0,94.0
158,40.03477267708333,40.397477020833335,59.0,78.0
159,40.52657517708334,40.82780420833333,59.0,100.0
160,40.52657517708334,41.06550875,62.0,100.0
161,40.52657517708334,41.10444311458333,66.0,90.0
162,40.77247642708333,41.18231184375,54.0,61.0
163,41.018377677083336,41.233541270833335,59.0,89.0
164,39.54297017708333,41.33190177083333,47.0,78.0
165,41.510180177083335,42.30935923958334,61.0,82.0
166,41.510180177083335,42.338047718750005,57.0,92.0
167,42.00198267708333,42.6515718125,52.0,76.0
168,42.49378517708333,42.967145083333335,61.0,96.0
169,42.49378517708333,42.981489322916666,57.0,97.0
170,41.510180177083335,43.042964635416666,45.0,92.0
171,42.49378517708333,43.3769805,64.0,97.0
172,42.98558767708334,43.4138656875,52.0,87.0
173,43.477390177083336,44.17001203125,59.0,82.0
174,43.477390177083336,44.27042170833334,55.0,73.0
175,43.969192677083335,44.57574909375,50.0,66.0
176,44.46099517708333,44.74583079166667,55.0,102.0
177,43.477390177083336,45.02246969791667,43.0,94.0
178,44.46099517708333,45.05935488541667,62.0,97.0
179,44.95279767708333,45.2827151875,55.0,84.0
180,44.706896427083336,45.29705942708333,50.0,78.0
181,45.198698927083335,45.3441905,59.0,69.0
182,45.44460017708334,45.868779833333335,59.0,97.0
183,45.44460017708334,45.874927364583336,55.0,92.0
184,45.44460017708334,45.958943625,43.0,100.0
185,46.428205177083335,46.917958500000005,57.0,79.0
186,46.428205177083335,46.94869615625,42.0,85.0
187,46.428205177083335,46.96099121875,61.0,90.0
188,47.41181017708333,47.95074375,64.0,69.0
189,47.41181017708333,48.19254664583333,67.0,84.0
190,47.90361267708334,48.32369397916667,59.0,66.0
191,48.14951392708333,48.54500510416667,62.0,97.0
192,47.41181017708333,48.686398322916666,52.0,100.0
193,48.395415177083336,48.901561916666665,67.0,111.0
194,48.64131642708333,49.05115184375,59.0,100.0
195,48.887217677083335,49.30524980208334,62.0,89.0
196,49.13311892708334,49.335987458333335,67.0,80.0
197,49.37902017708333,50.067543677083336,61.0,59.0
198,49.37902017708333,50.08598627083334,64.0,92.0
199,49.37902017708333,50.096232156250004,57.0,78.0
200,49.87082267708333,50.600329718750004,52.0,38.0
201,50.36262517708334,51.167951770833334,57.0,87.0
202,50.36262517708334,51.21303366666667,61.0,74.0
203,50.60852642708333,51.2458205,49.0,46.0
204,49.37902017708333,51.249918854166665,45.0,102.0
205,50.854427677083336,51.30319745833334,52.0,69.0
206,51.346230177083335,51.85442609375,62.0,80.0
207,51.346230177083335,52.126966645833335,66.0,87.0
208,52.083933927083336,52.64950680208334,62.0,92.0
209,51.346230177083335,52.74376894791667,50.0,97.0
210,51.83803267708333,52.78065413541667,57.0,55.0
211,52.32983517708333,52.81344096875,54.0,35.0
212,52.575736427083335,52.88926052083333,66.0,102.0
213,52.575736427083335,52.97737513541667,69.0,92.0
214,52.82163767708334,53.00606361458333,62.0,76.0
215,53.313440177083336,53.854422927083334,61.0,77.0
216,53.805242677083335,53.975324375,57.0,82.0
217,53.55934142708333,54.13925854166667,52.0,60.0
218,54.05114392708334,54.68638882291667,57.0,89.0
219,54.05114392708334,54.690487177083334,61.0,74.0
220,54.05114392708334,54.69458553125,64.0,97.0
221,53.313440177083336,54.889257354166666,45.0,87.0
222,54.78884767708333,55.04294563541667,57.0,87.0
223,54.78884767708333,55.12081436458334,61.0,93.0
224,55.28065017708334,55.87286235416667,59.0,87.0
225,55.28065017708334,55.87286235416667,62.0,82.0
226,55.772452677083336,56.12491113541667,54.0,36.0
227,56.264255177083335,56.61056610416667,54.0,40.0
228,55.28065017708334,56.754008500000005,47.0,89.0
229,56.01835392708333,56.79704121875,66.0,105.0
230,56.51015642708334,56.86261488541667,59.0,87.0
231,56.756057677083334,56.913844312500004,62.0,82.0
232,57.24786017708333,57.82777729166667,57.0,78.0
233,57.24786017708333,57.87695754166667,61.0,63.0
234,57.73966267708334,58.122858791666665,52.0,27.0
235,57.24786017708333,58.13925220833333,45.0,97.0
236,57.985563927083334,58.149498093750005,64.0,89.0
237,57.985563927083334,58.169989864583336,57.0,94.0
238,58.23146517708334,58.80933311458334,57.0,60.0
239,58.23146517708334,59.09826708333333,64.0,69.0
240,58.96916892708334,59.12490638541667,57.0,97.0
241,58.723267677083335,59.21711935416667,52.0,76.0
242,59.215070177083334,59.538840156250004,55.0,97.0
243,59.215070177083334,59.75400375,59.0,89.0
244,59.70687267708333,59.903593677083336,55.0,78.0
245,59.46097142708334,60.05113442708333,50.0,82.0
246,59.215070177083334,60.34826510416667,43.0,78.0
247,59.952773927083335,60.71506780208333,55.0,73.0
248,60.69047767708334,60.97736246875,50.0,53.0
249,59.952773927083335,60.97941164583334,62.0,87.0
250,60.93637892708333,61.03883778125,55.0,49.0
251,61.182280177083335,61.46711579166667,57.0,82.0
252,61.182280177083335,61.85031190625,62.0,87.0
253,61.674082677083334,61.96096746875,57.0,58.0
254,61.182280177083335,62.0777705625,50.0,80.0
255,61.91998392708334,62.114655750000004,66.0,99.0
256,62.16588517708333,62.204819541666666,66.0,38.0
257,62.16588517708333,62.737605583333334,59.0,84.0
258,62.65768767708334,62.956867531250005,54.0,29.0
259,62.16588517708333,62.958916708333334,62.0,89.0
260,62.16588517708333,63.03883461458334,47.0,64.0
261,62.903588927083334,63.04498214583334,59.0,82.0
262,63.14949017708334,63.585964895833335,59.0,92.0
263,63.14949017708334,64.00604619791667,64.0,102.0
264,63.14949017708334,64.36670136458334,52.0,89.0
265,63.641292677083335,64.55112730208333,55.0,62.0
266,64.13309517708333,64.62899603125,59.0,100.0
267,64.13309517708333,64.62899603125,64.0,102.0
268,64.62489767708334,64.794979375,52.0,78.0
269,64.13309517708333,64.92202835416667,67.0,100.0
270,65.11670017708333,65.37694566666667,57.0,97.0
271,65.11670017708333,65.63514197916668,61.0,96.0
272,65.60850267708334,65.82161709375,57.0,89.0
273,65.36260142708333,65.91792841666667,52.0,73.0
274,65.85440392708334,66.34415725000001,61.0,109.0
275,66.34620642708333,66.63923875,62.0,89.0
276,65.11670017708333,66.77243526041667,45.0,102.0
277,66.10030517708334,66.81546797916667,52.0,92.0
278,66.59210767708333,67.02243486458333,64.0,105.0
279,67.08391017708334,67.82571228125,62.0,94.0
280,67.08391017708334,67.844154875,66.0,102.0
281,67.57571267708333,68.13513802083334,57.0,64.0
282,68.06751517708334,68.33800655208334,62.0,100.0
283,67.08391017708334,68.4957931875,50.0,100.0
284,68.31341642708334,68.56546520833334,57.0,80.0
285,68.06751517708334,68.67407159375,69.0,105.0
286,68.55931767708334,68.89128436458334,62.0,105.0
287,68.80521892708333,69.06751359375001,69.0,10.0
288,69.05112017708333,69.64743070833333,61.0,99.0
289,69.54292267708334,69.96710233333333,57.0,94.0
290,70.03472517708333,70.06341365625,57.0,48.0
291,69.29702142708334,70.12488896875,52.0,76.0
292,69.05112017708333,70.56341286458334,45.0,100.0
293,70.03472517708333,70.59619969791667,61.0,93.0
294,70.52652767708334,70.84005177083334,57.0,94.0
295,70.28062642708333,70.9056254375,52.0,76.0
296,70.03472517708333,70.93636309375,64.0,100.0
297,71.01833017708334,71.78472240625,62.0,89.0
298,71.01833017708334,71.7908699375,59.0,92.0
299,71.51013267708333,72.07160719791666,54.0,45.0
300,72.00193517708334,72.31545927083333,59.0,108.0
301,72.24783642708334,72.516278625,54.0,61.0
302,71.01833017708334,72.6515243125,47.0,71.0
303,72.00193517708334,72.78677,66.0,87.0
304,72.49373767708333,72.87693379166667,59.0,94.0
305,72.73963892708333,72.88308132291667,62.0,73.0
306,72.98554017708334,73.30521180208333,57.0,100.0
307,72.98554017708334,73.71299804166667,61.0,96.0
308,73.47734267708334,73.86053879166667,57.0,78.0
309,73.23144142708334,74.11668592708334,52.0,66.0
310,72.98554017708334,74.34414458333333,45.0,92.0
311,73.96914517708333,74.46299685416668,61.0,93.0
312,73.96914517708333,74.53676722916667,57.0,97.0
313,73.96914517708333,74.89332404166667,64.0,94.0
314,74.46094767708334,74.90971745833333,52.0,66.0
315,74.95275017708333,75.53881482291666,59.0,87.0
316,74.95275017708333,75.79291278125,55.0,82.0
317,75.44455267708334,76.01627308333333,50.0,48.0
318,75.93635517708334,76.20274819791666,55.0,80.0
319,75.93635517708334,76.28266610416667,59.0,114.0
320,74.95275017708333,76.37078071875,43.0,92.0
321,76.18225642708333,76.5613541875,50.0,73.0
322,75.93635517708334,76.70274740625,62.0,97.0
323,76.42815767708333,76.73963259375,55.0,94.0
324,76.67405892708334,76.85438651041667,59.0,94.0
325,76.91996017708334,77.23143509375001,57.0,92.0
326,76.91996017708334,77.40151679166667,62.0,84.0
327,77.41176267708333,77.71913923958334,57.0,89.0
328,76.91996017708334,77.74577854166667,50.0,80.0
329,77.90356517708334,78.21094173958333,59.0,87.0
330,77.90356517708334,78.48348229166668,62.0,84.0
331,78.39536767708334,78.76626872916667,59.0,87.0
332,77.90356517708334,78.80110473958334,47.0,92.0
333,78.88717017708333,79.401513625,64.0,82.0
334,78.88717017708333,79.63307063541667,67.0,92.0
335,79.37897267708334,79.71708689583333,59.0,78.0
336,79.62487392708334,79.98757827083334,64.0,100.0
337,79.87077517708333,80.19044680208333,59.0,73.0
338,78.88717017708333,80.35438096875001,52.0,100.0
339,80.11667642708333,80.37077438541667,64.0,108.0
340,80.11667642708333,80.37077438541667,71.0,100.0
341,80.36257767708334,80.47528241666667,59.0,80.0
342,80.85438017708334,81.51831355208334,58.0,70.0
343,80.85438017708334,81.60437898958334,55.0,84.0
344,81.34618267708333,81.91380472916667,50.0,37.0
345,80.85438017708334,82.16175515625001,43.0,100.0
346,81.83798517708334,82.26011565625001,55.0,82.0
347,81.83798517708334,82.26831236458334,58.0,90.0
348,81.83798517708334,82.30109919791667,62.0,94.0
349,82.82159017708334,83.15560604166667,57.0,82.0
350,82.82159017708334,83.57773652083334,62.0,84.0
351,83.31339267708334,83.63306430208334,57.0,51.0
352,83.80519517708333,83.95478510416667,57.0,108.0
353,84.05109642708334,84.34617792708333,57.0,92.0
354,83.80519517708333,84.35027628125,66.0,72.0
355,84.29699767708334,84.614620125,62.0,57.0
356,82.82159017708334,84.67199708333334,50.0,69.0
357,84.54289892708334,84.69863638541666,57.0,71.0
358,84.78880017708333,86.30314204166667,50.0,84.0
359,84.78880017708333,86.31133875,57.0,78.0
360,86.75601017708334,87.49576310416667,62.0,67.0
361,86.75601017708334,87.60641866666667,66.0,70.0
362,87.24781267708333,87.97527054166667,57.0,48.0
363,86.75601017708334,87.98551642708334,50.0,73.0
364,87.73961517708334,88.155598125,66.0,90.0
365,87.73961517708334,88.18018825,62.0,73.0
366,88.72322017708333,89.37076013541667,57.0,49.0
367,88.72322017708333,89.37895684375,61.0,23.0
368,89.21502267708334,89.89739864583333,49.0,26.0
369,88.72322017708333,90.171988375,42.0,44.0
370,89.70682517708333,90.27649640625,57.0,87.0
371,89.70682517708333,90.49575835416667,66.0,52.0
372,90.19862767708334,90.51010259375,61.0,52.0
373,90.44452892708334,90.58182379166666,57.0,55.0
374,90.69043017708334,91.36665861458334,59.0,78.0
375,90.69043017708334,91.44657652083333,55.0,64.0
376,91.18223267708333,91.74985472916667,50.0,46.0
377,91.67403517708334,91.99575597916667,55.0,94.0
378,90.69043017708334,92.09616565625001,43.0,78.0
379,91.67403517708334,92.25190311458334,62.0,92.0
380,92.16583767708333,92.4465749375,55.0,64.0
381,91.91993642708334,92.49780436458333,50.0,73.0
382,92.41173892708333,92.65968935416667,59.0,69.0
383,92.65764017708334,93.11255748958334,61.0,46.0
384,92.65764017708334,93.38509804166667,57.0,66.0
385,93.14944267708334,93.71911390625,52.0,43.0
386,92.65764017708334,93.88099889583334,45.0,80.0
387,93.64124517708333,94.14124438541667,57.0,84.0
388,93.64124517708333,94.20271969791666,61.0,68.0
389,93.64124517708333,94.23755570833333,64.0,84.0
390,94.13304767708334,94.45271930208334,52.0,60.0
391,94.37894892708334,94.54083391666667,57.0,69.0
392,94.62485017708333,95.29288190625,62.0,76.0
393,94.62485017708333,95.48140619791667,66.0,82.0
394,95.11665267708334,95.71501238541667,57.0,51.0
395,95.60845517708334,95.92197927083333,62.0,66.0
396,94.62485017708333,95.96296281250001,50.0,97.0
397,95.85435642708333,96.05722495833334,57.0,67.0
398,95.60845517708334,96.12689697916667,66.0,59.0
399,96.10025767708333,96.40763423958333,62.0,71.0
400,96.34615892708334,96.75394516666667,66.0,93.0
401,97.08386267708333,97.26419026041667,54.0,34.0
402,96.83796142708334,97.74369769791667,49.0,24.0
403,96.59206017708334,98.03468084375001,42.0,82.0
404,97.57566517708334,98.04902508333333,54.0,85.0
405,97.57566517708334,98.0654185,61.0,63.0
406,98.06746767708334,98.20271336458333,49.0,39.0
407,98.55927017708333,98.85025332291667,55.0,73.0
408,98.55927017708333,98.85230250000001,59.0,84.0
409,99.05107267708334,99.3318099375,55.0,89.0
410,99.29697392708334,99.68017004166667,57.0,89.0
411,98.80517142708334,100.09410381250001,50.0,76.0
412,99.54287517708333,100.14943159375001,59.0,84.0
413,98.55927017708333,100.23139867708333,43.0,94.0
414,100.03467767708334,100.40557872916666,62.0,82.0
415,100.52648017708334,101.00188926041668,57.0,94.0
416,100.52648017708334,101.24369215625,45.0,100.0
417,100.52648017708334,101.25393804166667,64.0,94.0
418,100.52648017708334,101.32565923958333,61.0,93.0
419,101.01828267708333,101.32975759375,52.0,71.0
420,101.26418392708334,101.37074113541667,57.0,100.0
421,101.51008517708334,101.88098622916667,58.0,93.0
422,101.51008517708334,102.39942803125,61.0,99.0
423,102.00188767708333,102.41172309375,58.0,68.0
424,101.51008517708334,102.42196897916666,46.0,85.0
425,102.49369017708334,103.18221367708334,59.0,76.0
426,102.49369017708334,103.22114804166667,62.0,87.0
427,102.98549267708334,103.55311472916667,54.0,41.0
428,103.47729517708333,103.80106515625,59.0,102.0
429,103.72319642708334,103.99573697916667,54.0,70.0
430,102.49369017708334,104.02647463541668,47.0,100.0
431,103.96909767708334,104.19655633333333,59.0,82.0
432,103.47729517708333,104.20475304166668,66.0,99.0
433,104.46090017708333,105.10639095833334,61.0,54.0
434,104.46090017708333,105.19450557291667,57.0,87.0
435,104.95270267708334,105.59819345833334,52.0,57.0
436,105.44450517708334,105.72934079166667,57.0,111.0
437,105.44450517708334,105.89327495833334,64.0,97.0
438,104.46090017708333,105.98343875,45.0,97.0
439,105.69040642708333,106.18835645833333,52.0,76.0
440,105.93630767708333,106.28876613541667,57.0,84.0
441,106.18220892708334,106.31130708333333,64.0,80.0
442,106.42811017708334,107.09819108333333,59.0,87.0
443,106.42811017708334,107.20269911458334,55.0,82.0
444,106.91991267708333,107.53466580208334,50.0,47.0
445,106.42811017708334,107.58589522916667,43.0,94.0
446,107.41171517708334,107.69245243750001,55.0,84.0
447,107.41171517708334,107.70474750000001,59.0,94.0
448,107.41171517708334,107.74368186458334,62.0,84.0
449,107.90351767708334,108.22933683333333,43.0,94.0
450,108.39532017708333,108.66990990625,57.0,87.0
451,108.88712267708334,109.14326981250001,57.0,52.0
452,108.39532017708333,109.18835170833334,66.0,68.0
453,108.39532017708333,109.25802372916667,50.0,66.0
454,109.37892517708333,109.88712109375001,57.0,97.0
455,109.37892517708333,110.13916987500001,61.0,79.0
456,109.37892517708333,110.21908778125001,49.0,94.0
457,109.87072767708334,110.26621885416667,52.0,84.0
458,110.11662892708334,110.26621885416667,57.0,92.0
459,110.36253017708334,110.70269357291667,59.0,87.0
460,110.36253017708334,111.11867652083333,62.0,94.0
461,110.85433267708333,111.21703702083333,59.0,78.0
462,111.34613517708334,111.64736420833334,59.0,100.0
463,111.34613517708334,111.88506875,62.0,100.0
464,111.34613517708334,111.92400311458334,66.0,90.0
465,111.59203642708334,112.00187184375001,54.0,61.0
466,111.83793767708333,112.05310127083334,59.0,89.0
467,110.36253017708334,112.15146177083334,47.0,78.0
468,112.32974017708334,113.12891923958334,61.0,82.0
469,112.32974017708334,113.15760771875,57.0,92.0
470,112.82154267708334,113.4711318125,52.0,76.0
471,113.31334517708333,113.78670508333333,61.0,96.0
472,113.31334517708333,113.80104932291667,57.0,97.0
473,112.32974017708334,113.86252463541668,45.0,92.0
474,113.31334517708333,114.1965405,64.0,97.0
475,113.80514767708334,114.2334256875,52.0,87.0
476,114.29695017708333,114.98957203125,59.0,82.0
477,114.29695017708333,115.08998170833334,55.0,73.0
478,114.78875267708334,115.39530909375,50.0,66.0
479,115.28055517708334,115.56539079166667,55.0,102.0
480,114.29695017708333,115.84202969791667,43.0,94.0
481,115.28055517708334,115.87891488541668,62.0,97.0
482,115.77235767708333,116.1022751875,55.0,84.0
483,115.52645642708333,116.11661942708334,50.0,78.0
484,116.01825892708334,116.1637505,59.0,69.0
485,116.26416017708334,116.68833983333333,59.0,97.0
486,116.26416017708334,116.69448736458334,55.0,92.0
487,116.26416017708334,116.778503625,43.0,100.0
488,117.24776517708334,117.73751850000001,57.0,79.0
489,117.24776517708334,117.76825615625,42.0,85.0
490,117.24776517708334,117.78055121875,61.0,90.0
491,118.23137017708333,118.77030375000001,64.0,69.0
492,118.23137017708333,119.01210664583334,67.0,84.0
493,118.72317267708334,119.14325397916667,59.0,66.0
494,118.96907392708334,119.36456510416667,62.0,97.0
495,118.23137017708333,119.50595832291667,52.0,100.0
496,119.21497517708333,119.72112191666668,67.0,111.0
497,119.46087642708333,119.87071184375,59.0,100.0
498,119.70677767708334,120.12480980208333,62.0,89.0
499,119.95267892708334,120.15554745833333,67.0,80.0
500,120.19858017708334,120.88710367708333,61.0,59.0
501,120.19858017708334,120.90554627083334,64.0,92.0
502,120.19858017708334,120.91579215625,57.0,78.0
503,120.69038267708333,121.41988971875,52.0,38.0
504,121.18218517708334,121.98751177083334,57.0,87.0
505,121.18218517708334,122.03259366666667,61.0,74.0
506,121.42808642708334,122.0653805,49.0,46.0
507,120.19858017708334,122.06947885416668,45.0,102.0
508,121.67398767708333,122.12275745833334,52.0,69.0
509,122.16579017708334,122.67398609375,62.0,80.0
510,122.16579017708334,122.94652664583334,66.0,87.0
511,122.90349392708333,123.46906680208333,62.0,92.0
512,122.16579017708334,123.56332894791667,50.0,97.0
513,122.65759267708334,123.60021413541668,57.0,55.0
514,123.14939517708333,123.63300096875001,54.0,35.0
515,123.39529642708334,123.70882052083334,66.0,102.0
516,123.39529642708334,123.79693513541667,69.0,92.0
517,123.64119767708334,123.82562361458334,62.0,76.0
518,124.13300017708333,124.67398292708334,61.0,77.0
519,124.62480267708334,124.79488437500001,57.0,82.0
520,124.37890142708333,124.95881854166667,52.0,60.0
521,124.87070392708334,125.50594882291666,57.0,89.0
522,124.87070392708334,125.51004717708334,61.0,74.0
523,124.87070392708334,125.51414553125001,64.0,97.0
524,124.13300017708333,125.70881735416667,45.0,87.0
525,125.60840767708333,125.86250563541667,57.0,87.0
526,125.60840767708333,125.94037436458333,61.0,93.0
527,126.10021017708334,126.69242235416667,59.0,87.0
528,126.10021017708334,126.69242235416667,62.0,82.0
529,126.59201267708333,126.94447113541668,54.0,36.0
530,127.08381517708334,127.43012610416667,54.0,40.0
531,126.10021017708334,127.57356850000001,47.0,89.0
532,126.83791392708333,127.61660121875,66.0,105.0
533,127.32971642708334,127.68217488541667,59.0,87.0
534,127.57561767708334,127.7334043125,62.0,82.0
535,128.06742017708333,128.64733729166667,57.0,78.0
536,128.06742017708333,128.69651754166668,61.0,63.0
537,128.55922267708334,128.94241879166668,52.0,27.0
538,128.06742017708333,128.95881220833334,45.0,97.0
539,128.80512392708334,128.96905809375,64.0,89.0
540,128.80512392708334,128.98954986458332,57.0,94.0
541,129.05102517708335,129.62889311458335,57.0,60.0
542,129.05102517708335,129.91782708333335,64.0,69.0
543,129.78872892708333,129.94446638541666,57.0,97.0
544,129.54282767708335,130.03667935416667,52.0,76.0
545,130.03463017708333,130.35840015625,55.0,97.0
546,130.03463017708333,130.57356375,59.0,89.0
547,130.52643267708333,130.72315367708333,55.0,78.0
548,130.28053142708333,130.87069442708335,50.0,82.0
549,130.03463017708333,131.16782510416667,43.0,78.0
550,130.77233392708334,131.53462780208335,55.0,73.0
551,131.51003767708335,131.79692246875,50.0,53.0
552,130.77233392708334,131.79897164583335,62.0,87.0
553,131.75593892708335,131.85839778125,55.0,49.0
554,132.00184017708335,132.28667579166668,57.0,82.0
555,132.00184017708335,132.66987190625,62.0,87.0
556,132.49364267708333,132.78052746875,57.0,58.0
557,132.00184017708335,132.8973305625,50.0,80.0
558,132.73954392708333,132.93421575,66.0,99.0
559,132.98544517708334,133.02437954166666,66.0,38.0
560,132.98544517708334,133.55716558333333,59.0,84.0
561,133.47724767708334,133.77642753125,54.0,29.0
562,132.98544517708334,133.77847670833333,62.0,89.0
563,132.98544517708334,133.85839461458335,47.0,64.0
564,133.72314892708334,133.86454214583333,59.0,82.0
565,133.96905017708335,134.40552489583334,59.0,92.0
566,133.96905017708335,134.82560619791667,64.0,102.0
567,133.96905017708335,135.18626136458334,52.0,89.0
568,134.46085267708335,135.37068730208333,55.0,62.0
569,134.95265517708333,135.44855603125,59.0,100.0
570,134.95265517708333,135.44855603125,64.0,102.0
571,135.44445767708334,135.614539375,52.0,78.0
572,134.95265517708333,135.74158835416668,67.0,100.0
573,135.93626017708334,136.19650566666667,57.0,97.0
574,135.93626017708334,136.45470197916669,61.0,96.0
575,136.42806267708335,136.64117709375,57.0,89.0
576,136.18216142708334,136.73748841666668,52.0,73.0
577,136.67396392708335,137.16371725000002,61.0,109.0
578,137.16576642708333,137.45879875,62.0,89.0
579,135.93626017708334,137.59199526041667,45.0,102.0
580,136.91986517708335,137.63502797916667,52.0,92.0
581,137.41166767708333,137.84199486458334,64.0,105.0
582,137.90347017708334,138.64527228125002,62.0,94.0
583,137.90347017708334,138.663714875,66.0,102.0
584,138.39527267708334,138.95469802083335,57.0,64.0
585,138.88707517708335,139.15756655208335,62.0,100.0
586,137.90347017708334,139.3153531875,50.0,100.0
587,139.13297642708335,139.38502520833333,57.0,80.0
588,138.88707517708335,139.49363159375,69.0,105.0
589,139.37887767708335,139.71084436458335,62.0,105.0
590,139.62477892708333,139.88707359375002,69.0,10.0
591,139.87068017708333,140.46699070833333,61.0,99.0
592,140.36248267708334,140.78666233333334,57.0,94.0
593,140.85428517708334,140.88297365625002,57.0,48.0
594,140.11658142708333,140.94444896875,52.0,76.0
595,139.87068017708333,141.38297286458334,45.0,100.0
596,140.85428517708334,141.41575969791668,61.0,93.0
597,141.34608767708335,141.65961177083335,57.0,94.0
598,141.10018642708334,141.72518543750002,52.0,76.0
599,140.85428517708334,141.75592309375,64.0,100.0
600,141.83789017708335,142.60428240625,62.0,89.0
601,141.83789017708335,142.61042993750002,59.0,92.0
602,142.32969267708333,142.89116719791667,54.0,45.0
603,142.82149517708334,143.13501927083334,59.0,108.0
604,143.06739642708334,143.335838625,54.0,61.0
605,141.83789017708335,143.4710843125,47.0,71.0
606,142.82149517708334,143.60633,66.0,87.0
607,143.31329767708334,143.69649379166668,59.0,94.0
608,143.55919892708334,143.70264132291666,62.0,73.0
609,143.80510017708335,144.12477180208333,57.0,100.0
610,143.80510017708335,144.53255804166668,61.0,96.0
611,144.29690267708335,144.68009879166667,57.0,78.0
612,144.05100142708335,144.93624592708335,52.0,66.0
613,143.80510017708335,145.16370458333333,45.0,92.0
614,144.78870517708333,145.28255685416667,61.0,93.0
615,144.78870517708333,145.35632722916668,57.0,97.0
616,144.78870517708333,145.71288404166668,64.0,94.0
617,145.28050767708334,145.72927745833334,52.0,66.0
618,145.77231017708334,146.35837482291666,59.0,87.0
619,145.77231017708334,146.61247278125,55.0,82.0
620,146.26411267708335,146.83583308333334,50.0,48.0
621,146.75591517708335,147.02230819791666,55.0,80.0
622,146.75591517708335,147.10222610416668,59.0,114.0
623,145.77231017708334,147.19034071875,43.0,92.0
624,147.00181642708333,147.3809141875,50.0,73.0
625,146.75591517708335,147.52230740625,62.0,97.0
626,147.24771767708333,147.55919259375,55.0,94.0
627,147.49361892708333,147.67394651041667,59.0,94.0
628,147.73952017708334,148.05099509375,57.0,92.0
629,147.73952017708334,148.22107679166666,62.0,84.0
630,148.23132267708334,148.53869923958334,57.0,89.0
631,147.73952017708334,148.56533854166668,50.0,80.0
632,148.72312517708335,149.03050173958334,59.0,87.0
633,148.72312517708335,149.30304229166669,62.0,84.0
634,149.21492767708335,149.58582872916668,59.0,87.0
635,148.72312517708335,149.62066473958333,47.0,92.0
636,149.70673017708333,150.221073625,64.0,82.0
637,149.70673017708333,150.45263063541668,67.0,92.0
638,150.19853267708334,150.53664689583334,59.0,78.0
639,150.44443392708334,150.80713827083335,64.0,100.0
640,150.69033517708334,151.01000680208332,59.0,73.0
641,149.70673017708333,151.17394096875,52.0,100.0
642,150.93623642708334,151.19033438541666,64.0,108.0
643,150.93623642708334,151.19033438541666,71.0,100.0
644,151.18213767708335,151.29484241666668,59.0,80.0
645,151.67394017708335,152.33787355208335,58.0,70.0
646,151.67394017708335,152.42393898958335,55.0,84.0
647,152.16574267708333,152.73336472916668,50.0,37.0
648,151.67394017708335,152.98131515625002,43.0,100.0
649,152.65754517708334,153.07967565625,55.0,82.0
650,152.65754517708334,153.08787236458335,58.0,90.0
651,152.65754517708334,153.12065919791667,62.0,94.0
652,153.64115017708335,153.97516604166668,57.0,82.0
653,153.64115017708335,154.39729652083335,62.0,84.0
654,154.13295267708335,154.45262430208334,57.0,51.0
655,154.62475517708333,154.77434510416668,57.0,108.0
656,154.87065642708333,155.16573792708334,62.0,92.0
657,154.62475517708333,155.16983628125,66.0,72.0
658,155.11655767708334,155.434180125,64.0,83.0
659,153.64115017708335,155.49155708333333,50.0,69.0
660,155.36245892708334,155.51819638541667,57.0,71.0
661,155.60836017708334,156.11450691666667,62.0,80.0
662,155.60836017708334,156.19852317708333,66.0,82.0
663,156.10016267708335,156.42393265625,57.0,47.0
664,155.60836017708334,156.44237525,69.0,89.0
665,156.34606392708335,156.75180098958333,62.0,92.0
666,156.59196517708335,156.88294832291666,57.0,48.0
667,156.83786642708333,157.32352139583332,64.0,94.0
668,155.60836017708334,157.39114423958333,50.0,100.0
669,157.08376767708333,157.42393107291667,57.0,34.0
670,157.32966892708333,157.49975062500002,62.0,49.0
671,157.57557017708334,157.93212698958334,57.0,94.0
672,157.57557017708334,157.95876629166668,62.0,76.0
673,157.57557017708334,157.97720888541667,66.0,41.0
674,158.06737267708334,158.24360190625,57.0,44.0
675,158.06737267708334,158.29688051041668,66.0,41.0
676,158.06737267708334,158.30302804166666,62.0,69.0
677,158.06737267708334,158.31942145833335,69.0,40.0
678,157.57557017708334,158.32147063541666,50.0,89.0
679,158.55917517708335,159.19032171875,62.0,89.0
680,158.55917517708335,159.26614127083334,66.0,96.0
681,158.55917517708335,159.28048551041667,69.0,97.0
682,158.55917517708335,159.49974745833333,50.0,89.0
683,158.55917517708335,159.50999334375,57.0,87.0
684,159.05097767708335,159.53253429166668,54.0,21.0
685,159.54278017708333,159.78253389583335,62.0,89.0
686,159.54278017708333,159.7989273125,57.0,84.0
687,159.54278017708333,159.82146826041668,66.0,79.0
688,159.54278017708333,159.85015673958333,50.0,94.0
689,160.03458267708334,160.24769709375002,62.0,100.0
690,160.03458267708334,160.26409051041668,57.0,97.0
691,160.03458267708334,160.28253310416667,66.0,93.0
692,160.03458267708334,160.30097569791667,50.0,92.0
693,160.52638517708334,160.8317125625,62.0,105.0
694,160.52638517708334,160.83581091666667,57.0,102.0
695,160.52638517708334,160.86040104166668,66.0,105.0
696,160.52638517708334,160.86449939583335,50.0,111.0
697,161.01818767708335,161.37474448958335,57.0,94.0
698,161.01818767708335,161.39113790625,62.0,100.0
699,161.01818767708335,161.41367885416668,66.0,102.0
700,161.01818767708335,161.45466239583334,50.0,108.0
701,161.50999017708335,162.01818609375002,64.0,80.0
702,161.50999017708335,162.29072664583333,68.0,87.0
703,162.24769392708333,162.81326680208335,64.0,92.0
704,161.50999017708335,162.90752894791666,52.0,97.0
705,162.00179267708333,162.94441413541668,59.0,55.0
706,162.49359517708334,162.97720096875,56.0,35.0
707,162.73949642708334,163.05302052083334,68.0,102.0
708,162.73949642708334,163.14113513541668,71.0,92.0
709,162.98539767708334,163.16982361458335,64.0,76.0
710,163.47720017708335,164.01818292708333,63.0,77.0
711,163.96900267708335,164.139084375,59.0,82.0
712,163.72310142708335,164.30301854166666,54.0,60.0
713,164.21490392708333,164.85014882291668,59.0,89.0
714,164.21490392708333,164.85424717708335,63.0,74.0
715,164.21490392708333,164.85834553125,66.0,97.0
716,163.47720017708335,165.05301735416668,47.0,87.0
717,164.95260767708334,165.20670563541668,59.0,87.0
718,164.95260767708334,165.28457436458334,63.0,93.0
719,165.44441017708334,166.03662235416667,61.0,87.0
720,165.44441017708334,166.03662235416667,64.0,82.0
721,165.93621267708335,166.28867113541668,56.0,36.0
722,166.42801517708335,166.77432610416668,56.0,40.0
723,165.44441017708334,166.9177685,49.0,89.0
724,166.18211392708335,166.96080121875,68.0,105.0
725,166.67391642708333,167.0263748854167,61.0,87.0
726,166.91981767708333,167.0776043125,64.0,82.0
727,167.41162017708334,167.99153729166667,59.0,78.0
728,167.41162017708334,168.04071754166668,63.0,63.0
729,167.90342267708334,168.28661879166668,54.0,27.0
730,167.41162017708334,168.30301220833334,47.0,97.0
731,168.14932392708334,168.31325809375,66.0,89.0
732,168.14932392708334,168.33374986458335,59.0,94.0
733,168.39522517708335,168.97309311458335,59.0,60.0
734,168.39522517708335,169.26202708333335,66.0,69.0
735,169.13292892708333,169.28866638541666,59.0,97.0
736,168.88702767708335,169.38087935416667,54.0,76.0
737,169.37883017708333,169.70260015625,57.0,97.0
738,169.37883017708333,169.91776375,61.0,89.0
739,169.87063267708334,170.06735367708333,57.0,78.0
740,169.62473142708333,170.21489442708335,52.0,82.0
741,169.37883017708333,170.51202510416667,45.0,78.0
742,170.11653392708334,170.87882780208335,57.0,73.0
743,170.85423767708335,171.14112246875,52.0,53.0
744,170.11653392708334,171.14317164583335,64.0,87.0
745,171.10013892708335,171.20259778125,57.0,49.0
746,171.34604017708335,171.63087579166668,59.0,82.0
747,171.34604017708335,172.01407190625,64.0,87.0
748,171.83784267708333,172.12472746875,59.0,58.0
749,171.34604017708335,172.2415305625,52.0,80.0
750,172.08374392708333,172.27841575,68.0,99.0
751,172.32964517708334,172.36857954166666,68.0,38.0
752,172.32964517708334,172.90136558333333,61.0,84.0
753,172.82144767708334,173.12062753125,56.0,29.0
754,172.32964517708334,173.12267670833333,64.0,89.0
755,172.32964517708334,173.20259461458335,49.0,64.0
756,173.06734892708334,173.20874214583333,61.0,82.0
757,173.31325017708335,173.74972489583334,61.0,92.0
758,173.31325017708335,174.16980619791667,66.0,102.0
759,173.31325017708335,174.53046136458335,54.0,89.0
760,173.80505267708335,174.71488730208333,57.0,62.0
761,174.29685517708333,174.79275603125,61.0,100.0
762,174.29685517708333,174.79275603125,66.0,102.0
763,174.78865767708334,174.958739375,54.0,78.0
764,174.29685517708333,175.08578835416668,69.0,100.0
765,175.28046017708334,175.54070566666667,59.0,97.0
766,175.28046017708334,175.7989019791667,63.0,96.0
767,175.77226267708335,175.98537709375,59.0,89.0
768,175.52636142708334,176.08168841666668,54.0,73.0
769,176.01816392708335,176.50791725000002,63.0,109.0
770,176.50996642708333,176.80299875,64.0,89.0
771,175.28046017708334,176.93619526041667,47.0,102.0
772,176.26406517708335,176.97922797916667,54.0,92.0
773,176.75586767708333,177.18619486458334,66.0,105.0
774,177.24767017708334,177.98947228125002,64.0,94.0
775,177.24767017708334,178.007914875,68.0,102.0
776,177.73947267708334,178.29889802083335,59.0,64.0
777,178.23127517708335,178.50176655208335,64.0,100.0
778,177.24767017708334,178.6595531875,52.0,100.0
779,178.47717642708335,178.72922520833333,59.0,80.0
780,178.23127517708335,178.83783159375,71.0,105.0
781,178.72307767708335,179.05504436458335,64.0,105.0
782,178.96897892708333,179.23127359375002,71.0,10.0
783,179.21488017708333,179.81119070833333,63.0,99.0
784,179.70668267708334,180.13086233333334,59.0,94.0
785,180.19848517708334,180.22717365625002,59.0,48.0
786,179.46078142708333,180.28864896875,54.0,76.0
787,179.21488017708333,180.72717286458334,47.0,100.0
788,180.19848517708334,180.75995969791668,63.0,93.0
789,180.69028767708335,181.00381177083335,59.0,94.0
790,180.44438642708334,181.06938543750002,54.0,76.0
791,180.19848517708334,181.10012309375,66.0,100.0
792,181.18209017708335,181.94848240625,64.0,89.0
793,181.18209017708335,181.95462993750002,61.0,92.0
794,181.67389267708333,182.23536719791667,56.0,45.0
795,182.16569517708334,182.47921927083334,61.0,108.0
796,182.41159642708334,182.680038625,56.0,61.0
797,181.18209017708335,182.8152843125,49.0,71.0
798,182.16569517708334,182.95053000000001,68.0,87.0
799,182.65749767708334,183.04069379166668,61.0,94.0
800,182.90339892708334,183.04684132291666,64.0,73.0
801,183.14930017708335,183.46897180208333,59.0,100.0
802,183.14930017708335,183.87675804166668,63.0,96.0
803,183.64110267708335,184.02429879166667,59.0,78.0
804,183.39520142708335,184.28044592708335,54.0,66.0
805,183.14930017708335,184.50790458333333,47.0,92.0
806,184.13290517708333,184.62675685416667,63.0,93.0
807,184.13290517708333,184.70052722916668,59.0,97.0
808,184.13290517708333,185.05708404166668,66.0,94.0
809,184.62470767708334,185.07347745833334,54.0,66.0
810,185.11651017708334,185.70257482291666,61.0,87.0
811,185.11651017708334,185.95667278125,57.0,82.0
812,185.60831267708335,186.18003308333334,52.0,48.0
813,186.10011517708335,186.3665081979167,57.0,80.0
814,186.10011517708335,186.44642610416668,61.0,114.0
815,185.11651017708334,186.53454071875,45.0,92.0
816,186.34601642708333,186.7251141875,52.0,73.0
817,186.10011517708335,186.86650740625,64.0,97.0
818,186.59191767708333,186.90339259375,57.0,94.0
819,186.83781892708333,187.01814651041667,61.0,94.0
820,187.08372017708334,187.39519509375,59.0,92.0
821,187.08372017708334,187.56527679166666,64.0,84.0
822,187.57552267708334,187.88289923958334,59.0,89.0
823,187.08372017708334,187.90953854166668,52.0,80.0
824,188.06732517708335,188.37470173958334,61.0,87.0
825,188.06732517708335,188.64724229166669,64.0,84.0
826,188.55912767708335,188.93002872916668,61.0,87.0
827,188.06732517708335,188.96486473958333,49.0,92.0
828,189.05093017708333,189.565273625,66.0,82.0
829,189.05093017708333,189.79683063541668,69.0,92.0
830,189.54273267708334,189.88084689583334,61.0,78.0
831,189.78863392708334,190.15133827083335,66.0,100.0
832,190.03453517708334,190.35420680208335,61.0,73.0
833,189.05093017708333,190.51814096875,54.0,100.0
834,190.28043642708334,190.53453438541666,66.0,108.0
835,190.28043642708334,190.53453438541666,73.0,100.0
836,190.52633767708335,190.63904241666668,61.0,80.0
837,191.01814017708335,191.68207355208335,60.0,70.0
838,191.01814017708335,191.76813898958335,57.0,84.0
839,191.50994267708333,192.07756472916668,52.0,37.0
840,191.01814017708335,192.32551515625002,45.0,100.0
841,192.00174517708334,192.42387565625,57.0,82.0
842,192.00174517708334,192.43207236458335,60.0,90.0
843,192.00174517708334,192.46485919791667,64.0,94.0
844,192.98535017708335,193.31936604166668,59.0,82.0
845,192.98535017708335,193.74149652083335,64.0,84.0
846,193.47715267708335,193.79682430208334,59.0,51.0
847,193.96895517708333,194.11854510416669,59.0,108.0
848,194.21485642708333,194.50993792708334,64.0,92.0
849,193.96895517708333,194.51403628125001,68.0,72.0
850,194.46075767708334,194.778380125,66.0,83.0
851,192.98535017708335,194.83575708333333,52.0,69.0
852,194.70665892708334,194.86239638541667,59.0,71.0
853,194.95256017708334,195.45870691666667,64.0,80.0
854,194.95256017708334,195.54272317708333,68.0,82.0
855,195.44436267708335,195.76813265625,59.0,47.0
856,194.95256017708334,195.78657525,71.0,89.0
857,195.69026392708335,196.09600098958333,64.0,92.0
858,195.93616517708335,196.22714832291666,59.0,48.0
859,196.18206642708333,196.66772139583335,66.0,94.0
860,194.95256017708334,196.73534423958333,52.0,100.0
861,196.42796767708333,196.76813107291667,59.0,34.0
862,196.67386892708333,196.84395062500002,68.0,77.0
863,196.91977017708334,197.25993357291668,54.0,68.0
864,196.91977017708334,197.4464086875,69.0,97.0
865,197.16567142708334,197.78247372916667,49.0,39.0
866,197.41157267708334,198.06935852083333,54.0,74.0
867,197.65747392708334,198.10624370833335,61.0,77.0
868,197.90337517708335,198.24763692708333,49.0,38.0
869,196.91977017708334,198.29066964583333,42.0,96.0
870,198.14927642708335,198.4402595729167,57.0,97.0
871,198.39517767708335,198.51812830208334,49.0,28.0
872,198.39517767708335,198.55911184375,42.0,27.0
873,198.88698017708333,199.18206167708334,57.0,78.0
874,198.88698017708333,199.45870058333335,60.0,92.0
875,199.13288142708333,199.77632303125,52.0,78.0
876,199.62468392708334,200.14722408333333,64.0,84.0
877,199.87058517708334,200.24353540625,52.0,66.0
878,199.37878267708334,200.66156753125,57.0,76.0
879,200.11648642708334,200.6923051875,60.0,76.0
880,198.88698017708333,200.74558379166666,45.0,55.0
881,200.85419017708335,203.31115350000002,45.0,48.0
882,200.85419017708335,204.466889375,57.0,50.0
883,200.93615726041668,204.51197127083333,60.0,69.0
884,200.36238767708335,204.57139740625001,64.0,64.0
885,201.10009142708333,204.712790625,69.0,76.0
886,204.78861017708334,205.5283631041667,64.0,67.0
887,204.78861017708334,205.6390186666667,68.0,70.0
888,205.28041267708335,206.00787054166668,59.0,48.0
889,204.78861017708334,206.01811642708333,52.0,73.0
890,205.77221517708335,206.188198125,68.0,90.0
891,205.77221517708335,206.21278825000002,64.0,73.0
892,206.75582017708334,207.40336013541668,59.0,49.0
893,206.75582017708334,207.41155684375002,63.0,23.0
894,207.24762267708334,207.92999864583334,51.0,26.0
895,206.75582017708334,208.20458837500001,44.0,44.0
896,207.73942517708335,208.30909640625,59.0,87.0
897,207.73942517708335,208.52835835416667,68.0,52.0
898,208.23122767708335,208.54270259375,63.0,52.0
899,208.47712892708333,208.61442379166667,59.0,55.0
900,208.72303017708333,209.39925861458335,61.0,78.0
901,208.72303017708333,209.47917652083333,57.0,64.0
902,209.21483267708334,209.7824547291667,52.0,46.0
903,209.70663517708334,210.02835597916666,57.0,94.0
904,208.72303017708333,210.12876565625,45.0,78.0
905,209.70663517708334,210.28450311458334,64.0,92.0
906,210.19843767708335,210.4791749375,57.0,64.0
907,209.95253642708334,210.53040436458335,52.0,73.0
908,210.44433892708335,210.69228935416666,61.0,69.0
909,210.69024017708335,211.14515748958334,63.0,46.0
910,210.69024017708335,211.41769804166668,59.0,66.0
911,211.18204267708333,211.75171390625002,54.0,43.0
912,210.69024017708335,211.91359889583333,47.0,80.0
913,211.67384517708334,212.1738443854167,59.0,84.0
914,211.67384517708334,212.23531969791668,63.0,68.0
915,211.67384517708334,212.27015570833333,66.0,84.0
916,212.16564767708334,212.48531930208335,54.0,60.0
917,212.41154892708335,212.5734339166667,59.0,69.0
918,212.65745017708335,213.32548190625002,64.0,76.0
919,212.65745017708335,213.51400619791667,68.0,82.0
920,213.14925267708335,213.7476123854167,59.0,51.0
921,213.64105517708333,213.95457927083334,64.0,66.0
922,212.65745017708335,213.9955628125,52.0,97.0
923,213.88695642708333,214.08982495833334,59.0,67.0
924,213.64105517708333,214.15949697916668,68.0,59.0
925,214.13285767708334,214.44023423958333,64.0,71.0
926,214.37875892708334,214.78654516666668,68.0,93.0
927,215.11646267708335,215.29679026041669,56.0,34.0
928,214.87056142708335,215.77629769791668,51.0,24.0
929,214.62466017708334,216.06728084375,44.0,82.0
930,215.60826517708335,216.08162508333334,56.0,85.0
931,215.60826517708335,216.0980185,63.0,63.0
932,216.10006767708333,216.23531336458333,51.0,39.0
933,216.59187017708334,216.88285332291667,57.0,73.0
934,216.59187017708334,216.8849025,61.0,84.0
935,217.08367267708334,217.3644099375,57.0,89.0
936,217.32957392708335,217.7127700416667,59.0,89.0
937,216.83777142708334,218.1267038125,52.0,76.0
938,217.57547517708335,218.18203159375,61.0,84.0
939,216.59187017708334,218.26399867708335,45.0,94.0
940,218.06727767708335,218.43817872916668,64.0,82.0
941,219.05293185416667,219.3316199375,57.0,69.0
942,219.28039051041668,219.61440637500002,59.0,80.0
943,219.53858682291667,219.87670104166668,61.0,99.0
944,219.81727490625002,219.99760248958333,64.0,84.0
945,218.7906371875,220.56727371875002,52.0,53.0
946,218.55088346875002,220.63694573958335,45.0,92.0
947,220.15743830208334,220.65743751041668,69.0,60.0
948,221.10005976041668,224.99964375000002,52.0,18.0
949,220.95046983333333,225.02013552083335,45.0,43.0
950,221.15538754166667,225.10210260416667,61.0,30.0
951,221.28038734375002,225.10415178125,69.0,55.0
952,221.07137128125,225.11644684375,57.0,32.0
953,221.39514126041666,225.21890569791668,76.0,55.0
954,221.62464909375,225.44841353125,88.0,55.0
