,start,end,pitch,velocity
0,16.741649925,17.074982925,75.0,114.0
1,17.074982925,17.408315925,77.0,116.0
2,17.408315925,17.741648925,75.0,114.0
3,17.741648925,18.074981925,74.0,114.0
4,18.074981925,18.4069260375,72.0,116.0
5,18.408314925,18.741647925000002,72.0,108.0
6,18.741647925000002,19.074980925000002,74.0,107.0
7,19.074980925000002,20.741645925,70.0,102.0
8,20.741645925,21.0735900375,72.0,113.0
9,21.074978925,21.408311925,72.0,107.0
10,21.408311925,21.741644925,74.0,113.0
11,21.741644925,22.074977925000002,75.0,114.0
12,22.074977925000002,22.4069220375,77.0,104.0
13,22.408310925000002,22.741643925,77.0,113.0
14,22.741643925,23.073588037500002,79.0,116.0
15,23.074976925,24.741641925,79.0,119.0
16,24.741641925,25.0735860375,77.0,113.0
17,25.074974925,25.408307925000003,77.0,114.0
18,25.408307925000003,25.741640925000002,79.0,114.0
19,25.741640925000002,26.740251037500002,72.0,116.0
20,26.741639925,27.0735840375,72.0,116.0
21,27.074972925,27.408305925,72.0,113.0
22,27.408305925,27.741638925,74.0,113.0
23,27.741638925,28.741637925000003,70.0,108.0
24,28.741637925000003,29.0735820375,72.0,104.0
25,29.074970925000002,29.408303925000002,72.0,113.0
26,29.408303925000002,29.741636925,74.0,108.0
27,29.741636925,30.074969925,72.0,108.0
28,30.074969925,30.408302925,70.0,107.0
29,30.408302925,32.741633925,67.0,107.0
30,32.741633925,33.074966925,75.0,114.0
31,33.074966925,33.408299925,77.0,116.0
32,33.408299925,33.741632925000005,75.0,114.0
33,33.741632925000005,34.074965925,74.0,114.0
34,34.074965925,34.406910037500005,72.0,116.0
35,34.408298925000004,34.741631925,72.0,108.0
36,34.741631925,35.074964925,74.0,107.0
37,35.074964925,36.741629925000005,70.0,102.0
38,36.741629925000005,37.0735740375,72.0,113.0
39,37.074962925,37.408295925000004,72.0,107.0
40,37.408295925000004,37.741628925,74.0,113.0
41,37.741628925,38.074961925000004,75.0,114.0
42,38.074961925000004,38.4069060375,77.0,104.0
43,38.408294925,38.741627925,77.0,113.0
44,38.741627925,39.0735720375,79.0,116.0
45,39.074960925,40.741625925,79.0,119.0
46,40.741625925,41.073570037500005,77.0,113.0
47,41.074958925000004,41.408291925,77.0,114.0
48,41.408291925,41.741624925,79.0,114.0
49,41.741624925,42.7402350375,72.0,116.0
50,42.741623925,43.0735680375,72.0,116.0
51,43.074956925,43.408289925000005,72.0,113.0
52,43.408289925000005,43.741622925,74.0,113.0
53,43.741622925,44.408288925,70.0,108.0
54,44.408288925,45.0735660375,72.0,110.0
55,45.074954925,45.741620925,72.0,113.0
56,45.741620925,46.408286925,70.0,114.0
57,46.408286925,48.741617925,72.0,116.0
58,48.741617925,49.073562037500004,79.0,119.0
59,49.074950925,49.408283925,79.0,120.0
60,49.408283925,49.7402280375,77.0,114.0
61,49.741616925,50.074949925000006,77.0,116.0
62,50.074949925000006,50.4068940375,75.0,117.0
63,50.408282925,50.741615925000005,75.0,117.0
64,50.741615925000005,51.0735600375,74.0,113.0
65,51.074948925,52.741613925,74.0,116.0
66,52.741613925,53.0735580375,77.0,116.0
67,53.074946925,53.408279925,77.0,114.0
68,53.408279925,53.7402240375,75.0,114.0
69,53.741612925000005,54.074945925,75.0,117.0
70,54.074945925,54.406890037500006,74.0,114.0
71,54.408278925000005,54.741611925,74.0,116.0
72,54.741611925,55.074944925000004,75.0,113.0
73,55.074944925000004,56.408276925,79.0,117.0
74,56.408276925,57.074942925,77.0,117.0
75,57.074942925,57.741608925,72.0,117.0
76,57.741608925,58.408274925,77.0,119.0
77,58.408274925,59.741606925,79.0,120.0
78,59.741606925,60.074939925,77.0,114.0
79,60.074939925,60.408272925000006,79.0,117.0
80,60.408272925000006,61.074938925000005,80.0,119.0
81,61.074938925000005,63.741602925,79.0,120.0
82,63.741602925,64.074935925,72.0,113.0
83,64.074935925,64.413824475,74.0,108.0
84,64.408268925,64.741601925,75.0,110.0
85,64.741601925,65.086046025,77.0,107.0
86,65.07493492500001,65.408267925,79.0,110.0
87,65.408267925,65.741600925,82.0,108.0
88,65.741600925,66.074933925,84.0,108.0
89,66.074933925,66.408266925,86.0,107.0
90,66.408266925,66.741599925,84.0,114.0
91,66.741599925,67.074932925,82.0,113.0
92,67.074932925,68.408264925,79.0,116.0
93,68.408264925,68.74159792500001,84.0,110.0
94,68.74159792500001,69.074930925,86.0,110.0
95,69.074930925,69.408263925,84.0,100.0
96,69.408263925,69.741596925,82.0,108.0
97,69.741596925,70.074929925,79.0,114.0
98,70.074929925,70.408262925,77.0,100.0
99,70.408262925,70.741595925,79.0,113.0
100,70.741595925,71.07492892500001,82.0,114.0
101,71.07492892500001,72.40826092500001,79.0,113.0
102,72.40826092500001,72.741593925,77.0,113.0
103,72.741593925,73.10964911250001,79.0,104.0
104,73.074926925,73.40825992500001,77.0,102.0
105,73.40825992500001,73.741592925,75.0,108.0
106,73.741592925,74.074925925,72.0,108.0
107,74.074925925,74.408258925,75.0,100.0
108,74.408258925,74.74159192500001,77.0,91.0
109,74.74159192500001,75.074924925,79.0,100.0
110,75.074924925,76.408256925,82.0,110.0
111,76.408256925,76.741589925,77.0,116.0
112,76.741589925,77.07492292500001,79.0,114.0
113,77.07492292500001,77.408255925,77.0,113.0
114,77.408255925,77.741588925,75.0,110.0
115,77.741588925,78.074921925,72.0,107.0
116,78.074921925,78.40825492500001,75.0,91.0
117,78.40825492500001,78.741587925,74.0,110.0
118,78.741587925,79.074920925,72.0,100.0
119,79.074920925,80.0735310375,74.0,107.0
120,80.074919925,80.41380847500001,74.0,108.0
121,80.408252925,80.74158592500001,75.0,110.0
122,80.74158592500001,81.086030025,77.0,107.0
123,81.074918925,81.408251925,79.0,110.0
124,81.408251925,81.741584925,82.0,108.0
125,81.741584925,82.07491792500001,84.0,108.0
126,82.07491792500001,82.408250925,86.0,107.0
127,82.408250925,82.741583925,84.0,114.0
128,82.741583925,83.074916925,82.0,113.0
129,83.074916925,84.40824892500001,79.0,116.0
130,84.40824892500001,84.741581925,84.0,110.0
131,84.741581925,85.074914925,86.0,110.0
132,85.074914925,85.408247925,84.0,100.0
133,85.408247925,85.74158092500001,82.0,108.0
134,85.74158092500001,86.074913925,79.0,114.0
135,86.074913925,86.408246925,77.0,100.0
136,86.408246925,86.74157992500001,79.0,113.0
137,86.74157992500001,87.074912925,82.0,114.0
138,87.074912925,88.408244925,79.0,113.0
139,88.408244925,88.741577925,77.0,113.0
140,88.741577925,89.1096331125,79.0,104.0
141,89.074910925,89.40824392500001,77.0,102.0
142,89.40824392500001,89.741576925,75.0,108.0
143,89.741576925,90.074909925,72.0,108.0
144,90.074909925,90.40824292500001,75.0,100.0
145,90.40824292500001,90.741575925,77.0,91.0
146,90.741575925,91.074908925,79.0,100.0
147,91.074908925,92.408240925,82.0,110.0
148,92.408240925,92.741573925,77.0,116.0
149,92.741573925,93.07490692500001,79.0,114.0
150,93.07490692500001,93.408239925,77.0,113.0
151,93.408239925,93.741572925,75.0,110.0
152,93.741572925,94.07490592500001,72.0,107.0
153,94.07490592500001,94.408238925,70.0,107.0
154,94.408238925,95.741570925,72.0,108.0
155,134.741531925,135.074864925,75.0,114.0
156,135.074864925,135.408197925,77.0,116.0
157,135.408197925,135.741530925,75.0,114.0
158,135.741530925,136.07486392500002,74.0,114.0
159,136.07486392500002,136.4068080375,72.0,116.0
160,136.408196925,136.741529925,72.0,108.0
161,136.741529925,137.07486292500002,74.0,107.0
162,137.07486292500002,138.741527925,70.0,102.0
163,138.741527925,139.0734720375,72.0,113.0
164,139.074860925,139.408193925,72.0,107.0
165,139.408193925,139.74152692500002,74.0,113.0
166,139.74152692500002,140.074859925,75.0,114.0
167,140.074859925,140.4068040375,77.0,104.0
168,140.408192925,140.74152592500002,77.0,113.0
169,140.74152592500002,141.07347003750002,79.0,116.0
170,141.074858925,142.741523925,79.0,119.0
171,142.741523925,143.0734680375,77.0,113.0
172,143.074856925,143.40818992500002,77.0,114.0
173,143.40818992500002,143.741522925,79.0,114.0
174,143.741522925,144.74013303750002,72.0,116.0
175,144.741521925,145.0734660375,72.0,116.0
176,145.074854925,145.408187925,72.0,113.0
177,145.408187925,145.741520925,74.0,113.0
178,145.741520925,146.741519925,70.0,108.0
179,146.741519925,147.0734640375,72.0,104.0
180,147.07485292500002,147.408185925,72.0,113.0
181,147.408185925,147.741518925,74.0,108.0
182,147.741518925,148.07485192500002,72.0,108.0
183,148.07485192500002,148.408184925,70.0,107.0
184,148.408184925,150.74151592500002,67.0,107.0
185,150.74151592500002,151.074848925,75.0,114.0
186,151.074848925,151.408181925,77.0,116.0
187,151.408181925,151.74151492500002,75.0,114.0
188,151.74151492500002,152.074847925,74.0,114.0
189,152.074847925,152.4067920375,72.0,116.0
190,152.408180925,152.74151392500002,72.0,108.0
191,152.74151392500002,153.074846925,74.0,107.0
192,153.074846925,154.741511925,70.0,102.0
193,154.741511925,155.0734560375,72.0,113.0
194,155.074844925,155.40817792500002,72.0,107.0
195,155.40817792500002,155.741510925,74.0,113.0
196,155.741510925,156.074843925,75.0,114.0
197,156.074843925,156.4067880375,77.0,104.0
198,156.40817692500002,156.741509925,77.0,113.0
199,156.741509925,157.0734540375,79.0,116.0
200,157.074842925,158.741507925,79.0,119.0
201,158.741507925,159.0734520375,77.0,113.0
202,159.07484092500002,159.408173925,77.0,114.0
203,159.408173925,159.741506925,79.0,114.0
204,159.741506925,160.7401170375,72.0,116.0
205,160.741505925,161.0734500375,72.0,116.0
206,161.074838925,161.408171925,72.0,113.0
207,161.408171925,161.74150492500002,74.0,113.0
208,161.74150492500002,162.408170925,70.0,108.0
209,162.408170925,163.07344803750001,72.0,110.0
210,163.074836925,163.74150292500002,72.0,113.0
211,163.74150292500002,164.408168925,70.0,114.0
212,164.408168925,166.741499925,72.0,116.0
213,166.741499925,167.0734440375,79.0,119.0
214,167.074832925,167.40816592500002,79.0,120.0
215,167.40816592500002,167.74011003750002,77.0,114.0
216,167.741498925,168.074831925,77.0,116.0
217,168.074831925,168.4067760375,75.0,117.0
218,168.408164925,168.741497925,75.0,117.0
219,168.741497925,169.0734420375,74.0,113.0
220,169.07483092500001,170.741495925,74.0,116.0
221,170.741495925,171.0734400375,77.0,116.0
222,171.07482892500002,171.408161925,77.0,114.0
223,171.408161925,171.7401060375,75.0,114.0
224,171.741494925,172.074827925,75.0,117.0
225,172.074827925,172.40677203750002,74.0,114.0
226,172.408160925,172.74149392500001,74.0,116.0
227,172.74149392500001,173.074826925,75.0,113.0
228,173.074826925,174.408158925,79.0,117.0
229,174.408158925,175.074824925,77.0,117.0
230,175.074824925,175.741490925,72.0,117.0
231,175.741490925,176.40815692500001,77.0,119.0
232,176.40815692500001,177.741488925,79.0,120.0
233,177.741488925,178.074821925,77.0,114.0
234,178.074821925,178.40815492500002,79.0,117.0
235,178.40815492500002,179.074820925,80.0,119.0
236,179.074820925,180.408152925,79.0,120.0
237,181.741484925,182.07481792500002,72.0,113.0
238,182.07481792500002,182.413706475,74.0,108.0
239,182.408150925,182.741483925,75.0,110.0
240,182.741483925,183.08592802500002,77.0,107.0
241,183.07481692500002,183.408149925,79.0,110.0
242,183.408149925,183.741482925,82.0,108.0
243,183.741482925,184.074815925,84.0,108.0
244,184.074815925,184.408148925,86.0,107.0
245,184.408148925,184.74148192500002,84.0,114.0
246,184.74148192500002,185.074814925,82.0,113.0
247,185.074814925,186.408146925,79.0,116.0
248,186.408146925,186.74147992500002,84.0,110.0
249,186.74147992500002,187.074812925,86.0,110.0
250,187.074812925,187.408145925,84.0,100.0
251,187.408145925,187.741478925,82.0,108.0
252,187.741478925,188.074811925,79.0,114.0
253,188.074811925,188.40814492500002,77.0,100.0
254,188.40814492500002,188.741477925,79.0,113.0
255,188.741477925,189.074810925,82.0,114.0
256,189.074810925,190.40814292500002,79.0,113.0
257,190.40814292500002,190.741475925,77.0,113.0
258,190.741475925,191.1095311125,79.0,104.0
259,191.074808925,191.408141925,77.0,102.0
260,191.408141925,191.741474925,75.0,108.0
261,191.741474925,192.07480792500002,72.0,108.0
262,192.07480792500002,192.408140925,75.0,100.0
263,192.408140925,192.741473925,77.0,91.0
264,192.741473925,193.07480692500002,79.0,100.0
265,193.07480692500002,194.408138925,82.0,110.0
266,194.408138925,194.741471925,77.0,116.0
267,194.741471925,195.074804925,79.0,114.0
268,195.074804925,195.408137925,77.0,113.0
269,195.408137925,195.74147092500002,75.0,110.0
270,195.74147092500002,196.074803925,72.0,107.0
271,196.074803925,196.408136925,75.0,91.0
272,196.408136925,196.74146992500002,74.0,110.0
273,196.74146992500002,197.074802925,72.0,100.0
274,197.074802925,198.07341303750002,74.0,107.0
275,198.074801925,198.413690475,74.0,108.0
276,198.408134925,198.741467925,75.0,110.0
277,198.741467925,199.085912025,77.0,107.0
278,199.074800925,199.40813392500002,79.0,110.0
279,199.40813392500002,199.741466925,82.0,108.0
280,199.741466925,200.074799925,84.0,108.0
281,200.074799925,200.40813292500002,86.0,107.0
282,200.40813292500002,200.741465925,84.0,114.0
283,200.741465925,201.074798925,82.0,113.0
284,201.074798925,202.40813092500002,79.0,116.0
285,202.40813092500002,202.741463925,84.0,110.0
286,202.741463925,203.07479692500002,86.0,110.0
287,203.07479692500002,203.408129925,84.0,100.0
288,203.408129925,203.741462925,82.0,108.0
289,203.741462925,204.07479592500002,79.0,114.0
290,204.07479592500002,204.408128925,77.0,100.0
291,204.408128925,204.741461925,79.0,113.0
292,204.741461925,205.07479492500002,82.0,114.0
293,205.07479492500002,206.408126925,79.0,113.0
294,206.408126925,206.74145992500002,77.0,113.0
295,206.74145992500002,207.10951511250002,79.0,104.0
296,207.074792925,207.408125925,77.0,102.0
297,207.408125925,207.74145892500002,75.0,108.0
298,207.74145892500002,208.074791925,72.0,108.0
299,208.074791925,208.408124925,75.0,100.0
300,208.408124925,208.74145792500002,77.0,91.0
301,208.74145792500002,209.074790925,79.0,100.0
302,209.074790925,210.40812292500001,82.0,110.0
303,210.40812292500001,210.741455925,77.0,116.0
304,210.741455925,211.074788925,79.0,114.0
305,211.074788925,211.40812192500002,77.0,113.0
306,211.40812192500002,211.741454925,75.0,110.0
307,211.741454925,212.074787925,72.0,107.0
308,212.074787925,212.40812092500002,70.0,107.0
309,212.40812092500002,213.741452925,72.0,108.0
310,217.74144892500001,218.074781925,73.0,113.0
311,218.074781925,218.413670475,75.0,108.0
312,218.408114925,218.74144792500002,76.0,110.0
313,218.74144792500002,219.08589202500002,78.0,107.0
314,219.074780925,219.408113925,80.0,110.0
315,219.408113925,219.74144692500002,83.0,108.0
316,219.74144692500002,220.074779925,85.0,108.0
317,220.074779925,220.408112925,87.0,107.0
318,220.408112925,220.74144592500002,85.0,114.0
319,220.74144592500002,221.074778925,83.0,113.0
320,221.074778925,222.40811092500002,80.0,116.0
321,222.40811092500002,222.741443925,85.0,110.0
322,222.741443925,223.074776925,87.0,110.0
323,223.074776925,223.40810992500002,85.0,100.0
324,223.40810992500002,223.741442925,83.0,108.0
325,223.741442925,224.074775925,80.0,114.0
326,224.074775925,224.40810892500002,78.0,100.0
327,224.40810892500002,224.741441925,80.0,113.0
328,224.741441925,225.074774925,83.0,114.0
329,225.074774925,226.408106925,80.0,113.0
330,226.408106925,226.741439925,78.0,113.0
331,226.741439925,227.1094951125,80.0,104.0
332,227.07477292500002,227.408105925,78.0,102.0
333,227.408105925,227.741438925,76.0,108.0
334,227.741438925,228.07477192500002,73.0,108.0
335,228.07477192500002,228.408104925,76.0,100.0
336,228.408104925,228.741437925,78.0,91.0
337,228.741437925,229.07477092500002,80.0,100.0
338,229.07477092500002,230.408102925,83.0,110.0
339,230.408102925,230.74143592500002,78.0,116.0
340,230.74143592500002,231.074768925,80.0,114.0
341,231.074768925,231.408101925,78.0,113.0
342,231.408101925,231.74143492500002,76.0,110.0
343,231.74143492500002,232.074767925,73.0,107.0
344,232.074767925,232.408100925,76.0,91.0
345,232.408100925,232.74143392500002,75.0,110.0
346,232.74143392500002,233.074766925,73.0,100.0
347,233.074766925,234.07337703750002,75.0,107.0
348,234.074765925,234.41365447500002,75.0,108.0
349,234.40809892500002,234.741431925,76.0,110.0
350,234.741431925,235.085876025,78.0,107.0
351,235.074764925,235.40809792500002,80.0,110.0
352,235.40809792500002,235.741430925,83.0,108.0
353,235.741430925,236.074763925,85.0,108.0
354,236.074763925,236.40809692500002,87.0,107.0
355,236.40809692500002,236.741429925,85.0,114.0
356,236.741429925,237.07476292500002,83.0,113.0
357,237.07476292500002,238.408094925,80.0,116.0
358,238.408094925,238.741427925,85.0,110.0
359,238.741427925,239.07476092500002,87.0,110.0
360,239.07476092500002,239.408093925,85.0,100.0
361,239.408093925,239.741426925,83.0,108.0
362,239.741426925,240.07475992500002,80.0,114.0
363,240.07475992500002,240.408092925,78.0,100.0
364,240.408092925,240.74142592500002,80.0,113.0
365,240.74142592500002,241.074758925,83.0,114.0
366,241.074758925,242.408090925,80.0,113.0
367,242.408090925,242.74142392500002,78.0,113.0
368,242.74142392500002,243.1094791125,80.0,104.0
369,243.074756925,243.408089925,78.0,102.0
370,243.408089925,243.74142292500002,76.0,108.0
371,243.74142292500002,244.074755925,73.0,108.0
372,244.074755925,244.40808892500002,76.0,100.0
373,244.40808892500002,244.741421925,78.0,91.0
374,244.741421925,245.074754925,80.0,100.0
375,245.074754925,246.40808692500002,83.0,110.0
376,246.40808692500002,246.741419925,78.0,116.0
377,246.741419925,247.074752925,80.0,114.0
378,247.074752925,247.40808592500002,78.0,113.0
379,247.40808592500002,247.741418925,76.0,110.0
380,247.741418925,248.408084925,73.0,107.0
381,248.408084925,248.741417925,71.0,107.0
382,248.741417925,249.741416925,73.0,108.0
