,start,end,pitch,velocity
0,26.535288937500003,26.8613754375,64.0,85.0
1,26.8613754375,27.1874619375,69.0,87.0
2,27.1874619375,30.1222404375,67.0,100.0
3,30.1222404375,30.44696824375,64.0,83.0
4,30.448326937500003,30.7744134375,64.0,81.0
5,30.7744134375,31.1004999375,67.0,74.0
6,31.1004999375,31.426586437500003,72.0,76.0
7,31.426586437500003,31.7526729375,71.0,75.0
8,31.7526729375,32.078759437500004,69.0,65.0
9,32.078759437500004,32.4048459375,67.0,74.0
10,32.4048459375,33.057018937500004,69.0,81.0
11,33.057018937500004,33.3831054375,67.0,90.0
12,33.3831054375,34.3613649375,69.0,98.0
13,34.3613649375,34.6874514375,67.0,93.0
14,34.6874514375,36.96869824375,64.0,77.0
15,36.970056937500004,37.2961434375,64.0,90.0
16,37.2961434375,37.6222299375,69.0,98.0
17,37.6222299375,40.5570084375,67.0,98.0
18,40.5570084375,40.88173624375,64.0,83.0
19,40.883094937500005,41.2091814375,64.0,95.0
20,41.2091814375,41.5352679375,67.0,90.0
21,41.5352679375,41.861354437500005,72.0,85.0
22,41.861354437500005,42.1874409375,71.0,86.0
23,42.1874409375,42.5135274375,69.0,87.0
24,42.5135274375,42.839613937500005,67.0,90.0
25,42.839613937500005,43.4917869375,69.0,98.0
26,43.4917869375,43.817873437500005,67.0,100.0
27,43.817873437500005,44.796132937500005,69.0,108.0
28,44.796132937500005,45.1222194375,67.0,111.0
29,45.1222194375,45.44694724375,72.0,71.0
30,45.4483059375,45.774392437500005,72.0,108.0
31,45.774392437500005,47.4048249375,69.0,83.0
32,47.4048249375,47.730911437500005,74.0,114.0
33,47.730911437500005,48.0569979375,72.0,81.0
34,48.0569979375,48.38172574375,74.0,111.0
35,48.3830844375,50.01215824375,74.0,112.0
36,50.0135169375,50.3396034375,74.0,104.0
37,50.3396034375,50.665689937500005,72.0,85.0
38,50.665689937500005,50.99041774375,74.0,112.0
39,50.9917764375,52.622208937500005,74.0,112.0
40,52.622208937500005,52.9482954375,69.0,85.0
41,52.9482954375,53.2743819375,71.0,76.0
42,53.2743819375,53.59910974375,72.0,81.0
43,53.600468437500005,54.251282743750004,72.0,87.0
44,54.2526414375,54.578727937500005,72.0,86.0
45,54.578727937500005,54.93334700625,74.0,95.0
46,54.9048144375,55.556987437500005,72.0,81.0
47,55.556987437500005,55.8830739375,69.0,75.0
48,55.8830739375,57.8395929375,71.0,100.0
49,57.8395929375,58.1656794375,74.0,108.0
50,58.1656794375,58.491765937500006,72.0,83.0
51,58.491765937500006,58.81649374375,74.0,111.0
52,58.8178524375,60.1221984375,74.0,108.0
53,60.1221984375,60.4482849375,69.0,77.0
54,60.4482849375,60.7743714375,72.0,74.0
55,60.7743714375,61.1004579375,74.0,85.0
56,61.1004579375,61.4265444375,76.0,83.0
57,61.4265444375,63.0569769375,74.0,108.0
58,63.0569769375,63.3830634375,72.0,86.0
59,63.3830634375,63.7091499375,74.0,77.0
60,63.7091499375,64.03387774375,76.0,95.0
61,64.0352364375,64.35996424375,76.0,81.0
62,64.3613229375,64.68605074375,76.0,95.0
63,64.68740943750001,65.0134959375,76.0,85.0
64,65.0134959375,65.6656689375,79.0,104.0
65,65.6656689375,65.9917554375,74.0,95.0
66,65.9917554375,66.9700149375,76.0,114.0
67,66.9700149375,67.2961014375,64.0,95.0
68,67.2961014375,67.6221879375,67.0,76.0
69,67.6221879375,67.9482744375,72.0,104.0
70,67.9482744375,68.2743609375,71.0,83.0
71,68.2743609375,68.60044743750001,69.0,77.0
72,68.60044743750001,68.9265339375,67.0,86.0
73,68.9265339375,72.1873989375,69.0,104.0
74,72.1873989375,72.51348543750001,64.0,95.0
75,72.51348543750001,72.8395719375,67.0,93.0
76,72.8395719375,73.1656584375,72.0,93.0
77,73.1656584375,73.4917449375,71.0,98.0
78,73.4917449375,73.8178314375,69.0,93.0
79,73.8178314375,74.1439179375,67.0,83.0
80,74.1439179375,77.40342424375001,64.0,95.0
81,77.4047829375,77.7308694375,64.0,86.0
82,77.7308694375,78.0569559375,67.0,81.0
83,78.0569559375,78.38304243750001,72.0,95.0
84,78.38304243750001,78.7091289375,71.0,85.0
85,78.7091289375,79.0352154375,69.0,81.0
86,79.0352154375,79.3613019375,67.0,79.0
87,79.3613019375,82.6221669375,69.0,104.0
88,82.6221669375,82.9482534375,64.0,79.0
89,82.9482534375,83.2743399375,67.0,74.0
90,83.2743399375,83.6384698625,72.0,98.0
91,83.6004264375,83.94961073125,71.0,79.0
92,83.92651293750001,84.27162115,69.0,79.0
93,84.25259943750001,84.6112945875,71.0,79.0
94,84.5786859375,88.49036524375,69.0,77.0
95,88.4917239375,89.1438969375,69.0,95.0
96,89.1438969375,89.79606993750001,72.0,81.0
97,89.79606993750001,93.70910793750001,74.0,111.0
98,93.70910793750001,94.35992224375,76.0,104.0
99,94.3612809375,95.0134539375,76.0,112.0
100,95.0134539375,98.92513324375,69.0,98.0
101,98.9264919375,99.57866493750001,69.0,104.0
102,99.57866493750001,100.2308379375,72.0,104.0
103,100.2308379375,104.1438759375,74.0,111.0
104,104.1438759375,104.79469024375,76.0,104.0
105,104.7960489375,105.44822193750001,76.0,112.0
106,105.44822193750001,108.912891,69.0,111.0
107,105.44822193750001,108.912891,71.0,100.0
108,130.8829689375,131.2090554375,74.0,114.0
109,131.2090554375,131.53514193750001,72.0,81.0
110,131.53514193750001,131.85986974375,74.0,111.0
111,131.86122843750002,133.49030224375,74.0,112.0
112,133.4916609375,133.8177474375,74.0,104.0
113,133.8177474375,134.1438339375,72.0,85.0
114,134.1438339375,134.46856174375,74.0,112.0
115,134.4699204375,136.1003529375,74.0,112.0
116,136.1003529375,136.4264394375,69.0,85.0
117,136.4264394375,136.7525259375,71.0,76.0
118,136.7525259375,137.07725374375,72.0,81.0
119,137.0786124375,137.72942674375,72.0,87.0
120,137.7307854375,138.0568719375,72.0,86.0
121,138.0568719375,138.41149100625,74.0,95.0
122,138.3829584375,139.0351314375,72.0,81.0
123,139.0351314375,139.36121793750002,69.0,75.0
124,139.36121793750002,141.3177369375,71.0,100.0
125,141.3177369375,141.6438234375,74.0,108.0
126,141.6438234375,141.9699099375,72.0,83.0
127,141.9699099375,142.29463774375,74.0,111.0
128,142.2959964375,143.60034243750002,74.0,108.0
129,143.60034243750002,143.9264289375,69.0,77.0
130,143.9264289375,144.2525154375,72.0,74.0
131,144.2525154375,144.5786019375,74.0,85.0
132,144.5786019375,144.9046884375,76.0,83.0
133,144.9046884375,146.5351209375,74.0,108.0
134,146.5351209375,146.8612074375,72.0,86.0
135,146.8612074375,147.18729393750002,74.0,77.0
136,147.18729393750002,147.51202174375,76.0,95.0
137,147.51338043750002,147.83810824375,76.0,81.0
138,147.8394669375,148.16419474375002,76.0,95.0
139,148.1655534375,148.4916399375,76.0,85.0
140,148.4916399375,149.1438129375,79.0,104.0
141,149.1438129375,149.4698994375,74.0,95.0
142,149.4698994375,150.4481589375,76.0,114.0
143,150.4481589375,150.7742454375,64.0,95.0
144,150.7742454375,151.10033193750002,67.0,76.0
145,151.10033193750002,151.42641843750002,72.0,104.0
146,151.42641843750002,151.7525049375,71.0,83.0
147,151.7525049375,152.0785914375,69.0,77.0
148,152.0785914375,152.4046779375,67.0,86.0
149,152.4046779375,155.6655429375,69.0,104.0
150,155.6655429375,155.9916294375,64.0,95.0
151,155.9916294375,156.3177159375,67.0,93.0
152,156.3177159375,156.6438024375,72.0,93.0
153,156.6438024375,156.9698889375,71.0,98.0
154,156.9698889375,157.2959754375,69.0,93.0
155,157.2959754375,157.6220619375,67.0,83.0
156,157.6220619375,160.88156824375,64.0,95.0
157,160.8829269375,161.2090134375,64.0,86.0
158,161.2090134375,161.5350999375,67.0,81.0
159,161.5350999375,161.8611864375,72.0,95.0
160,161.8611864375,162.1872729375,71.0,85.0
161,162.1872729375,162.51335943750001,69.0,81.0
162,162.51335943750001,162.83944593750002,67.0,79.0
163,162.83944593750002,166.1003109375,69.0,104.0
164,166.1003109375,166.42639743750001,64.0,79.0
165,166.42639743750001,166.75248393750002,67.0,74.0
166,166.75248393750002,167.1166138625,72.0,98.0
167,167.07857043750002,167.42775473125002,71.0,79.0
168,167.4046569375,167.74976515,69.0,79.0
169,167.7307434375,168.0894385875,71.0,79.0
170,168.0568299375,171.96850924375002,69.0,77.0
171,171.9698679375,172.6220409375,69.0,95.0
172,172.6220409375,173.2742139375,72.0,81.0
173,173.2742139375,177.1872519375,74.0,111.0
174,177.1872519375,177.83806624375,76.0,104.0
175,177.8394249375,178.49159793750002,76.0,112.0
176,178.49159793750002,182.40327724375,69.0,98.0
177,182.40463593750002,183.0568089375,69.0,104.0
178,183.0568089375,183.7089819375,72.0,104.0
179,183.7089819375,187.6220199375,74.0,111.0
180,187.6220199375,188.27283424375,76.0,104.0
181,188.2741929375,189.13017000000002,76.0,112.0
182,235.2306489375,235.5567354375,74.0,114.0
183,235.5567354375,235.8828219375,72.0,81.0
184,235.8828219375,236.20754974375,74.0,111.0
185,236.2089084375,238.49015524375,74.0,112.0
186,238.4915139375,238.9045568375,74.0,108.0
187,238.8176004375,239.1436869375,72.0,74.0
188,239.1436869375,239.4752082125,74.0,95.0
189,239.4697734375,241.10020593750002,69.0,100.0
190,241.10020593750002,241.7523789375,72.0,90.0
191,241.7523789375,242.4045519375,69.0,93.0
192,242.4045519375,242.72927974375,72.0,100.0
193,242.7306384375,243.0567249375,72.0,104.0
194,243.0567249375,243.54449599375002,69.0,87.0
195,243.5458546875,245.3393304375,69.0,100.0
196,245.3393304375,245.66405824375002,74.0,95.0
197,245.6654169375,245.9915034375,74.0,112.0
198,245.9915034375,246.3175899375,72.0,86.0
199,246.3175899375,246.64231774375,74.0,112.0
200,246.6436764375,246.9697629375,74.0,112.0
201,246.9697629375,247.2958494375,72.0,95.0
202,247.2958494375,248.92492324375002,74.0,112.0
203,248.92628193750002,249.25100974375002,74.0,108.0
204,249.2523684375,249.5784549375,74.0,98.0
205,249.5784549375,249.9045414375,72.0,87.0
206,249.9045414375,250.8828009375,74.0,112.0
207,250.8828009375,251.2088874375,72.0,86.0
208,251.2088874375,251.5349739375,74.0,77.0
209,251.5349739375,251.85970174375,76.0,95.0
210,251.86106043750002,252.18578824375,76.0,81.0
211,252.18714693750002,252.51187474375,76.0,95.0
212,252.51323343750002,252.83931993750002,76.0,85.0
213,252.83931993750002,253.4914929375,79.0,104.0
214,253.4914929375,253.8175794375,74.0,95.0
215,253.8175794375,257.4045309375,76.0,114.0
216,257.4045309375,257.73061743750003,64.0,95.0
217,257.73061743750003,258.0567039375,67.0,76.0
218,258.0567039375,258.38279043750003,72.0,104.0
219,258.38279043750003,258.7088769375,71.0,83.0
220,258.7088769375,259.0349634375,69.0,77.0
221,259.0349634375,259.3610499375,67.0,86.0
222,259.3610499375,262.62191493750004,69.0,104.0
223,262.62191493750004,262.9480014375,64.0,95.0
224,262.9480014375,263.2740879375,67.0,93.0
225,263.2740879375,263.6001744375,72.0,93.0
226,263.6001744375,263.9262609375,71.0,98.0
227,263.9262609375,264.2523474375,69.0,93.0
228,264.2523474375,264.5784339375,67.0,83.0
229,264.5784339375,267.83794024375,64.0,95.0
230,267.8392989375,268.1653854375,64.0,86.0
231,268.1653854375,268.4914719375,67.0,81.0
232,268.4914719375,268.8175584375,72.0,95.0
233,268.8175584375,269.1436449375,71.0,85.0
234,269.1436449375,269.4697314375,69.0,81.0
235,269.4697314375,269.79581793750003,67.0,79.0
236,269.79581793750003,273.0566829375,69.0,104.0
237,273.0566829375,273.38276943750003,64.0,79.0
238,273.38276943750003,273.7088559375,67.0,74.0
239,273.7088559375,274.0729858625,72.0,98.0
240,274.03494243750004,274.38412673125003,71.0,79.0
241,274.3610289375,274.70613715,69.0,79.0
242,274.6871154375,275.0458105875,71.0,79.0
243,275.0132019375,278.27406693750004,69.0,77.0
244,278.27406693750004,278.6001534375,64.0,95.0
245,278.6001534375,278.9262399375,67.0,76.0
246,278.9262399375,279.2523264375,72.0,104.0
247,279.2523264375,279.5784129375,71.0,83.0
248,279.5784129375,279.9044994375,69.0,77.0
249,279.9044994375,280.2305859375,67.0,86.0
250,280.2305859375,283.4914509375,69.0,104.0
251,283.4914509375,283.8175374375,64.0,95.0
252,283.8175374375,284.1436239375,67.0,93.0
253,284.1436239375,284.4697104375,72.0,93.0
254,284.4697104375,284.79579693750003,71.0,98.0
255,284.79579693750003,285.1218834375,69.0,93.0
256,285.1218834375,285.44796993750003,67.0,83.0
257,285.44796993750003,288.70747624375,64.0,95.0
258,288.7088349375,289.03492143750003,64.0,86.0
259,289.03492143750003,289.3610079375,67.0,81.0
260,289.3610079375,289.68709443750004,72.0,95.0
261,289.68709443750004,290.0131809375,71.0,85.0
262,290.0131809375,290.3392674375,69.0,81.0
263,290.3392674375,290.6653539375,67.0,79.0
264,290.6653539375,293.92621893750004,69.0,104.0
265,293.92621893750004,294.2523054375,64.0,79.0
266,294.2523054375,294.5783919375,67.0,74.0
267,294.5783919375,294.94252186250003,72.0,98.0
268,294.9044784375,295.25366273125,71.0,79.0
269,295.2305649375,295.57567315,69.0,79.0
270,295.5566514375,295.9153465875,71.0,79.0
271,295.8827379375,299.1436029375,69.0,77.0
272,299.1436029375,299.47376551875,64.0,79.0
273,299.4696894375,299.7957759375,67.0,68.0
274,299.7957759375,300.16398194375,72.0,73.0
275,300.1218624375,300.505014075,71.0,79.0
276,300.44794893750003,300.80392670000003,69.0,64.0
277,300.7740354375,301.1490349125,67.0,74.0
278,301.10012193750003,304.3609869375,69.0,83.0
279,304.3609869375,304.863703625,64.0,70.0
280,304.8501166875,305.35690945625004,67.0,67.0
281,305.33924643750004,305.9370716875,72.0,87.0
282,305.8283761875,306.4805491875,71.0,75.0
283,306.4805491875,307.168048225,69.0,98.0
284,307.1327221875,307.9207645625,67.0,76.0
285,307.7848951875,314.99955900000003,69.0,75.0
