,start,end,pitch,velocity
0,6.3179259375,6.8478165,72.0,90.0
1,6.3179259375,6.8777077625,67.0,79.0
2,6.9700989375,7.26493548125,71.0,86.0
3,7.2961854375,7.47689170625,72.0,77.0
4,7.6222719375,7.798902125000001,74.0,93.0
5,7.9483584375000005,8.33286876875,69.0,73.0
6,8.2744449375,8.614118375,64.0,72.0
7,6.3179259375,8.9266179375,52.0,74.0
8,8.6005314375,9.43884548125,72.0,75.0
9,6.3179259375,9.5787909375,57.0,60.0
10,9.2527044375,9.69971468125,52.0,63.0
11,9.5787909375,9.89808396875,55.0,70.0
12,6.3179259375,10.8831369375,45.0,59.0
13,10.557050437500001,11.062484512500001,72.0,68.0
14,10.557050437500001,11.0652019,67.0,65.0
15,9.9048774375,11.34373411875,60.0,75.0
16,11.535309937500001,12.09645045625,72.0,98.0
17,12.1874829375,12.35867835,71.0,83.0
18,12.513569437500001,12.62362363125,72.0,59.0
19,12.8396559375,13.1711772125,74.0,90.0
20,13.1657424375,13.46057898125,69.0,68.0
21,13.491828937500001,13.91981746875,64.0,79.0
22,13.8179154375,14.80840318125,79.0,117.0
23,11.535309937500001,15.70242366875,55.0,70.0
24,14.470088437500001,15.72416276875,62.0,64.0
25,11.535309937500001,15.87633646875,48.0,74.0
26,15.1222614375,16.44155306875,64.0,67.0
27,16.752693937500002,17.282584500000002,72.0,90.0
28,16.752693937500002,17.3124757625,67.0,79.0
29,17.4048669375,17.69970348125,71.0,86.0
30,17.730953437500002,17.91165970625,72.0,77.0
31,18.0570399375,18.233670125,74.0,93.0
32,18.3831264375,18.767636768750002,69.0,73.0
33,18.709212937500002,19.048886375000002,64.0,72.0
34,16.752693937500002,19.3613859375,52.0,74.0
35,19.0352994375,19.87361348125,72.0,75.0
36,16.752693937500002,20.0135589375,57.0,60.0
37,19.687472437500002,20.134482681250002,52.0,63.0
38,20.0135589375,20.33285196875,55.0,70.0
39,16.752693937500002,21.3179049375,45.0,59.0
40,20.9918184375,21.4972525125,72.0,68.0
41,20.9918184375,21.4999699,67.0,65.0
42,20.3396454375,21.77850211875,60.0,75.0
43,21.9700779375,22.531218456250002,72.0,98.0
44,22.622250937500002,22.79344635,71.0,83.0
45,22.9483374375,23.05839163125,72.0,59.0
46,23.2744239375,23.6059452125,74.0,90.0
47,23.600510437500002,23.89534698125,69.0,68.0
48,23.9265969375,24.354585468750003,64.0,79.0
49,24.2526834375,25.243171181250002,79.0,117.0
50,21.9700779375,26.137191668750003,55.0,70.0
51,24.9048564375,26.15893076875,62.0,64.0
52,21.9700779375,26.311104468750003,45.0,74.0
53,25.557029437500002,26.535288937500003,64.0,67.0
54,27.513548437500003,27.5787657375,60.0,62.0
55,27.513548437500003,27.5787657375,67.0,76.0
56,27.513548437500003,27.596428756250003,64.0,83.0
57,27.1874619375,27.87631966875,48.0,93.0
58,28.1657214375,28.2309387375,60.0,67.0
59,28.1657214375,28.23773220625,67.0,74.0
60,28.1657214375,28.243166981250003,64.0,74.0
61,28.1657214375,28.29207995625,43.0,76.0
62,28.8178944375,28.8885465125,67.0,75.0
63,28.8178944375,28.896698675,60.0,68.0
64,28.8178944375,28.899416062500002,64.0,79.0
65,28.491807937500003,29.16707873125,43.0,81.0
66,29.470067437500003,29.54751298125,67.0,83.0
67,29.470067437500003,29.548871675,60.0,72.0
68,29.470067437500003,29.552947756250003,64.0,85.0
69,29.470067437500003,29.592349875,43.0,77.0
70,30.1222404375,30.191533818750003,60.0,67.0
71,30.1222404375,30.201044675000002,67.0,85.0
72,30.1222404375,30.20647945,64.0,77.0
73,29.7961539375,30.48501166875,48.0,98.0
74,30.7744134375,30.846424206250003,67.0,86.0
75,30.7744134375,30.853217675,60.0,69.0
76,30.7744134375,30.855935062500002,64.0,79.0
77,30.7744134375,30.889902406250002,43.0,87.0
78,31.426586437500003,31.501314593750003,67.0,76.0
79,31.426586437500003,31.510825450000002,64.0,74.0
80,31.426586437500003,31.51218414375,60.0,70.0
81,31.426586437500003,31.618162256250002,43.0,75.0
82,31.7526729375,32.11952025,48.0,112.0
83,32.078759437500004,32.16979191875,60.0,69.0
84,32.078759437500004,32.16979191875,64.0,76.0
85,32.078759437500004,32.16979191875,67.0,83.0
86,32.078759437500004,32.2091940375,47.0,77.0
87,32.7309324375,32.77169325,67.0,63.0
88,32.7309324375,32.78392149375,69.0,56.0
89,32.7309324375,32.80294320625,72.0,67.0
90,32.7309324375,32.820606225,64.0,67.0
91,32.4048459375,33.05430155,45.0,77.0
92,33.3831054375,33.451040125,72.0,71.0
93,33.3831054375,33.4646270625,64.0,73.0
94,33.3831054375,33.471420531250004,69.0,73.0
95,33.3831054375,33.4972357125,40.0,75.0
96,34.035278437500004,34.084191412500005,72.0,60.0
97,34.035278437500004,34.119517450000004,69.0,73.0
98,34.035278437500004,34.12087614375,64.0,72.0
99,33.7091919375,34.342343225,40.0,79.0
100,34.6874514375,34.76217959375,72.0,81.0
101,34.6874514375,34.764896981250004,64.0,74.0
102,34.6874514375,34.77576653125,69.0,76.0
103,34.6874514375,34.82739689375,40.0,76.0
104,35.3396244375,35.4048417375,72.0,81.0
105,35.3396244375,35.412993900000004,64.0,77.0
106,35.3396244375,35.41706998125,69.0,76.0
107,35.013537937500004,35.824678106250005,45.0,77.0
108,35.991797437500004,36.0678842875,72.0,75.0
109,35.991797437500004,36.076036450000004,64.0,74.0
110,35.991797437500004,36.08282991875,69.0,76.0
111,35.991797437500004,36.10456901875,40.0,77.0
112,36.6439704375,36.721415981250004,72.0,83.0
113,36.6439704375,36.73228553125,64.0,81.0
114,36.6439704375,36.74043769375,69.0,81.0
115,36.3178839375,36.96733955,40.0,77.0
116,36.970056937500004,37.31380645625,45.0,77.0
117,37.2961434375,37.384458531250004,72.0,83.0
118,37.2961434375,37.39261069375,69.0,83.0
119,37.2961434375,37.3939693875,64.0,83.0
120,37.2961434375,37.4374475875,52.0,68.0
121,37.948316437500004,38.01760981875,67.0,87.0
122,37.948316437500004,38.0298380625,60.0,71.0
123,37.948316437500004,38.03391414375,64.0,86.0
124,37.6222299375,38.31516375,48.0,74.0
125,38.6004894375,38.67521759375,60.0,66.0
126,38.6004894375,38.67521759375,67.0,95.0
127,38.6004894375,38.677934981250004,64.0,81.0
128,38.6004894375,38.7173371,43.0,81.0
129,39.2526624375,39.3124449625,67.0,95.0
130,39.2526624375,39.324673206250004,60.0,74.0
131,39.2526624375,39.33282536875,64.0,87.0
132,38.926575937500004,39.6113575875,43.0,76.0
133,39.904835437500005,39.98499836875,67.0,95.0
134,39.904835437500005,39.989074450000004,64.0,83.0
135,39.904835437500005,40.00945485625,60.0,74.0
136,39.904835437500005,40.05021566875,43.0,76.0
137,40.5570084375,40.63173659375,67.0,95.0
138,40.5570084375,40.635812675000004,64.0,85.0
139,40.5570084375,40.63988875625,60.0,71.0
140,40.2309219375,40.9537470125,48.0,98.0
141,41.2091814375,41.27304004375,67.0,93.0
142,41.2091814375,41.2852682875,64.0,85.0
143,41.2091814375,41.2961378375,60.0,81.0
144,41.2091814375,41.3124421625,43.0,79.0
145,41.861354437500005,41.9265717375,67.0,95.0
146,41.861354437500005,41.940158675,64.0,87.0
147,41.861354437500005,41.956463,60.0,81.0
148,41.5352679375,42.01760421875,43.0,85.0
149,42.1874409375,42.40347324375,48.0,98.0
150,42.5135274375,42.59369036875,67.0,95.0
151,42.5135274375,42.6004838375,64.0,86.0
152,42.5135274375,42.614070775,60.0,74.0
153,42.5135274375,42.690157625000005,50.0,77.0
154,43.1657004375,43.24586336875,76.0,68.0
155,43.1657004375,43.2526568375,72.0,74.0
156,43.1657004375,43.256732918750004,69.0,69.0
157,42.839613937500005,43.5135260375,45.0,95.0
158,43.4917869375,43.52303689375,69.0,51.0
159,43.817873437500005,43.88988420625,76.0,83.0
160,43.817873437500005,43.896677675,72.0,75.0
161,43.817873437500005,43.902112450000004,69.0,74.0
162,43.817873437500005,43.936079793750004,40.0,60.0
163,44.4700464375,44.53933981875,76.0,74.0
164,44.4700464375,44.5515680625,72.0,79.0
165,44.4700464375,44.55836153125,69.0,72.0
166,44.1439599375,44.680643968750005,40.0,86.0
167,45.1222194375,45.190154125,76.0,90.0
168,45.1222194375,45.2037410625,72.0,85.0
169,45.1222194375,45.2091758375,69.0,81.0
170,45.1222194375,45.2417844875,52.0,86.0
171,45.774392437500005,45.923848750000005,76.0,87.0
172,45.774392437500005,45.9374356875,72.0,81.0
173,45.774392437500005,45.9537400125,69.0,83.0
174,45.4483059375,46.35863075,57.0,93.0
175,46.4265654375,46.523032693750004,57.0,79.0
176,46.4265654375,46.9156951875,76.0,87.0
177,46.4265654375,46.92248865625,72.0,79.0
178,46.4265654375,46.94422775625,69.0,81.0
179,47.0787384375,47.1385209625,76.0,90.0
180,47.0787384375,47.150749206250005,69.0,86.0
181,47.0787384375,47.150749206250005,72.0,86.0
182,47.0787384375,47.402107550000004,57.0,87.0
183,47.4048249375,47.570585575,55.0,65.0
184,47.730911437500005,47.81922653125,76.0,76.0
185,47.730911437500005,47.83553085625,72.0,86.0
186,47.730911437500005,47.8450417125,69.0,86.0
187,47.730911437500005,47.85183518125,53.0,79.0
188,48.3830844375,48.45237781875,69.0,85.0
189,48.3830844375,48.4591712875,65.0,85.0
190,48.3830844375,48.47139953125,62.0,79.0
191,48.0569979375,48.77302954375,50.0,93.0
192,49.0352574375,49.09639865625,69.0,79.0
193,49.0352574375,49.11542036875,62.0,75.0
194,49.0352574375,49.1167790625,65.0,85.0
195,49.0352574375,49.15346379375,45.0,95.0
196,49.687430437500005,49.75128904375,69.0,85.0
197,49.687430437500005,49.7635172875,65.0,86.0
198,49.687430437500005,49.766234675,62.0,79.0
199,49.3613439375,50.103190725000005,45.0,76.0
200,50.3396034375,50.41161420625,69.0,87.0
201,50.3396034375,50.419766368750004,62.0,79.0
202,50.3396034375,50.42384245,65.0,90.0
203,50.3396034375,50.5298205625,45.0,69.0
204,50.9917764375,51.05563504375,69.0,93.0
205,50.9917764375,51.06922198125,65.0,85.0
206,50.9917764375,51.070580675,62.0,81.0
207,50.665689937500005,51.4347106,50.0,100.0
208,51.643949437500005,51.713242818750004,69.0,95.0
209,51.643949437500005,51.7254710625,65.0,95.0
210,51.643949437500005,51.728188450000005,62.0,79.0
211,51.643949437500005,51.7689492625,45.0,74.0
212,52.2961224375,52.373567981250005,65.0,86.0
213,52.2961224375,52.373567981250005,69.0,87.0
214,52.2961224375,52.38443753125,62.0,74.0
215,51.9700359375,52.66296975,45.0,79.0
216,52.9482954375,53.03117575625,69.0,90.0
217,52.9482954375,53.040686612500004,65.0,90.0
218,52.9482954375,53.04748008125,62.0,79.0
219,52.622208937500005,53.05291485625,50.0,90.0
220,53.600468437500005,53.67791398125,64.0,73.0
221,53.600468437500005,53.68063136875,72.0,74.0
222,53.600468437500005,53.68878353125,69.0,73.0
223,53.2743819375,54.0026417875,57.0,85.0
224,54.2526414375,54.3178587375,72.0,86.0
225,54.2526414375,54.32736959375,64.0,81.0
226,54.2526414375,54.334163062500004,69.0,77.0
227,54.2526414375,54.365413018750004,52.0,90.0
228,54.9048144375,54.9591621875,72.0,69.0
229,54.9048144375,54.983618675,69.0,75.0
230,54.9048144375,54.993129531250005,64.0,79.0
231,54.578727937500005,55.2961182375,52.0,83.0
232,55.556987437500005,55.61541126875,72.0,79.0
233,55.556987437500005,55.63715036875,69.0,77.0
234,55.556987437500005,55.639867756250005,64.0,83.0
235,55.556987437500005,55.69965028125,52.0,77.0
236,55.8830739375,56.72954014375,52.0,86.0
237,56.8613334375,56.9781811,47.0,73.0
238,57.1874199375,57.5352455375,47.0,87.0
239,55.8830739375,57.880353750000005,68.0,75.0
240,55.8830739375,57.88986460625,71.0,81.0
241,55.8830739375,57.914321093750004,64.0,83.0
242,57.513506437500006,58.2852444875,52.0,87.0
243,58.8178524375,58.885787125,69.0,74.0
244,58.8178524375,58.8885045125,62.0,72.0
245,58.8178524375,58.9048088375,65.0,85.0
246,58.491765937500006,59.19964538125,50.0,93.0
247,59.470025437500006,59.54747098125,69.0,85.0
248,59.470025437500006,59.559699225,62.0,81.0
249,59.470025437500006,59.56377530625,65.0,90.0
250,59.470025437500006,59.590949181250004,45.0,68.0
251,59.7961119375,59.8341553625,65.0,58.0
252,60.1221984375,60.199643981250006,69.0,86.0
253,60.1221984375,60.20507875625,62.0,75.0
254,60.1221984375,60.21323091875,65.0,87.0
255,59.7961119375,60.597741250000006,45.0,81.0
256,60.7743714375,60.85181698125,69.0,86.0
257,60.7743714375,60.8613278375,62.0,77.0
258,60.7743714375,60.86812130625,65.0,87.0
259,60.7743714375,60.914316893750005,45.0,68.0
260,61.4265444375,61.4917617375,69.0,86.0
261,61.4265444375,61.50670736875,62.0,79.0
262,61.4265444375,61.50670736875,65.0,90.0
263,61.1004579375,61.83551125625,50.0,108.0
264,62.0787174375,62.1548042875,69.0,90.0
265,62.0787174375,62.16159775625,65.0,90.0
266,62.0787174375,62.16295645,62.0,76.0
267,62.0787174375,62.200999875,45.0,93.0
268,62.7308904375,62.81377075625,69.0,87.0
269,62.7308904375,62.8178468375,65.0,81.0
270,62.7308904375,62.820564225000005,62.0,73.0
271,62.4048039375,62.983607475,45.0,81.0
272,63.3830634375,63.467302450000005,62.0,73.0
273,63.3830634375,63.470019837500004,65.0,87.0
274,63.0569769375,63.472737225,50.0,117.0
275,63.3830634375,63.4754546125,69.0,86.0
276,63.7091499375,63.77844331875,64.0,67.0
277,63.7091499375,63.78931286875,68.0,71.0
278,63.7091499375,63.78931286875,71.0,79.0
279,63.7091499375,63.8042585,52.0,95.0
280,64.0352364375,64.1167580625,64.0,74.0
281,64.0352364375,64.12083414375,71.0,86.0
282,64.0352364375,64.130345,68.0,77.0
283,64.0352364375,64.13985585625001,52.0,98.0
284,64.3613229375,64.44148586875001,64.0,72.0
285,64.3613229375,64.44148586875001,71.0,83.0
286,64.3613229375,64.45507280625,68.0,77.0
287,64.3613229375,64.46865974375,52.0,95.0
288,64.68740943750001,64.76213759375,64.0,68.0
289,64.68740943750001,64.77164845,71.0,83.0
290,64.68740943750001,64.78387669375,68.0,76.0
291,64.68740943750001,64.8069744875,52.0,100.0
292,65.0134959375,65.09094148125,64.0,68.0
293,65.0134959375,65.09365886875,71.0,85.0
294,65.0134959375,65.10724580625,68.0,76.0
295,65.0134959375,65.12083274375,52.0,98.0
296,65.3395824375,65.41702798125,64.0,69.0
297,65.3395824375,65.4211040625,71.0,83.0
298,65.3395824375,65.43061491875,68.0,77.0
299,65.3395824375,65.44556055,52.0,104.0
300,65.6656689375,65.73767970625,64.0,71.0
301,65.6656689375,65.74311448125,71.0,85.0
302,65.6656689375,65.75670141875,68.0,76.0
303,65.6656689375,65.777081825,52.0,104.0
304,65.9917554375,66.0624075125,64.0,69.0
305,65.9917554375,66.06920098125,71.0,85.0
306,65.9917554375,66.07735314375,68.0,75.0
307,65.9917554375,66.09773355,52.0,104.0
308,66.3178419375,68.13985025625,71.0,104.0
309,66.3178419375,68.1439263375,64.0,93.0
310,66.3178419375,68.14800241875,68.0,98.0
311,66.3178419375,68.67789298125,52.0,114.0
312,68.2743609375,68.7172951,64.0,72.0
313,68.2743609375,68.73088203750001,71.0,69.0
314,68.2743609375,68.73631681250001,68.0,69.0
315,69.2526204375,69.31919643125,76.0,81.0
316,69.2526204375,69.32734859375,69.0,79.0
317,69.2526204375,69.32870728750001,72.0,86.0
318,68.9265339375,69.62354383125,45.0,69.0
319,68.9265339375,69.62354383125,57.0,69.0
320,69.9047934375,69.9863150625,69.0,74.0
321,69.9047934375,69.99039114375,76.0,76.0
322,69.9047934375,69.99310853125,72.0,79.0
323,69.9047934375,70.03386934375,40.0,85.0
324,69.9047934375,70.03386934375,52.0,85.0
325,70.55696643750001,70.62625981875,76.0,81.0
326,70.55696643750001,70.635770675,72.0,85.0
327,70.55696643750001,70.64256414375001,69.0,81.0
328,70.2308799375,70.9265311375,40.0,83.0
329,70.2308799375,70.9265311375,52.0,83.0
330,71.2091394375,71.34093273125,40.0,81.0
331,71.2091394375,71.34093273125,52.0,81.0
332,71.2091394375,71.49582381875,76.0,83.0
333,71.2091394375,71.51076945,72.0,87.0
334,71.2091394375,71.51212814375,69.0,87.0
335,71.8613124375,71.9265297375,76.0,77.0
336,71.8613124375,71.940116675,72.0,81.0
337,71.8613124375,71.94826883750001,69.0,83.0
338,71.5352259375,72.3232683125,45.0,98.0
339,71.5352259375,72.3232683125,57.0,98.0
340,72.51348543750001,72.5868549,76.0,93.0
341,72.51348543750001,72.59908314375001,69.0,86.0
342,72.51348543750001,72.6004418375,72.0,90.0
343,72.51348543750001,72.6330504875,40.0,86.0
344,72.51348543750001,72.6330504875,52.0,86.0
345,73.1656584375,73.24989745,76.0,90.0
346,73.1656584375,73.260767,72.0,93.0
347,73.1656584375,73.27163655,69.0,90.0
348,72.8395719375,73.50125579375,40.0,85.0
349,72.8395719375,73.50125579375,52.0,85.0
350,73.4917449375,73.83277706875,45.0,90.0
351,73.4917449375,73.83277706875,57.0,90.0
352,73.8178314375,73.90614653125,76.0,87.0
353,73.8178314375,73.9156573875,69.0,85.0
354,73.8178314375,73.91701608125,72.0,86.0
355,73.8178314375,73.9482660375,40.0,72.0
356,73.8178314375,73.9482660375,52.0,72.0
357,74.47000443750001,74.53658043125,67.0,100.0
358,74.47000443750001,74.54473259375,60.0,83.0
359,74.47000443750001,74.5515260625,64.0,90.0
360,74.1439179375,74.87353648125,48.0,111.0
361,75.1221774375,75.19418820625,67.0,98.0
362,75.1221774375,75.19962298125,60.0,81.0
363,75.1221774375,75.20641645,64.0,98.0
364,75.1221774375,75.2526120375,43.0,85.0
365,75.7743504375,75.83277426875,67.0,93.0
366,75.7743504375,75.84364381875,60.0,69.0
367,75.7743504375,75.85723075625,64.0,93.0
368,75.4482639375,76.124893425,43.0,85.0
369,76.42652343750001,76.5515232625,67.0,98.0
370,76.42652343750001,76.58820799375,64.0,95.0
371,76.42652343750001,76.59500146250001,60.0,85.0
372,76.42652343750001,76.6167405625,43.0,83.0
373,77.0786964375,77.15342459375,67.0,86.0
374,77.0786964375,77.15885936875,60.0,72.0
375,77.0786964375,77.16429414375,64.0,85.0
376,76.7526099375,77.603152225,48.0,108.0
377,77.7308694375,77.798804125,67.0,104.0
378,77.7308694375,77.80831498125,64.0,108.0
379,77.7308694375,77.81103236875,60.0,93.0
380,77.7308694375,77.8613040375,43.0,93.0
381,78.38304243750001,78.4591292875,67.0,100.0
382,78.38304243750001,78.4645640625,64.0,98.0
383,78.38304243750001,78.47407491875,60.0,87.0
384,78.0569559375,78.70777024375,43.0,81.0
385,79.0352154375,79.12624791875,67.0,100.0
386,79.0352154375,79.135758775,60.0,85.0
387,79.0352154375,79.1439109375,64.0,98.0
388,78.7091289375,79.4346714,48.0,95.0
389,79.6873884375,79.7634752875,64.0,74.0
390,79.6873884375,79.77162745,72.0,77.0
391,79.6873884375,79.77706222500001,69.0,74.0
392,79.3613019375,80.05831183125001,45.0,98.0
393,80.33956143750001,80.40749612500001,72.0,85.0
394,80.33956143750001,80.418365675,64.0,87.0
395,80.33956143750001,80.42515914375001,69.0,87.0
396,80.33956143750001,80.48765905625001,40.0,95.0
397,80.9917344375,81.06646259375,72.0,90.0
398,80.9917344375,81.06782128750001,64.0,90.0
399,80.9917344375,81.07189736875,69.0,83.0
400,80.6656479375,81.41157080625,40.0,95.0
401,81.6439074375,81.79336375,40.0,90.0
402,81.6439074375,81.96320046875,72.0,95.0
403,81.6439074375,81.96591785625,64.0,87.0
404,81.6439074375,81.96591785625,69.0,85.0
405,82.29608043750001,82.3776020625,72.0,90.0
406,82.29608043750001,82.3830368375,64.0,81.0
407,82.29608043750001,82.38439553125001,69.0,79.0
408,81.9699939375,82.71863419375,45.0,95.0
409,82.9482534375,83.0352098375,72.0,83.0
410,82.9482534375,83.037927225,69.0,81.0
411,82.9482534375,83.04200330625001,64.0,83.0
412,82.9482534375,83.070535875,40.0,83.0
413,83.6004264375,83.6873828375,72.0,93.0
414,83.6004264375,83.69010022500001,69.0,87.0
415,83.6004264375,83.69689369375,64.0,93.0
416,83.2743399375,83.99852370625,40.0,86.0
417,84.25259943750001,84.34091453125001,69.0,87.0
418,84.25259943750001,84.34091453125001,72.0,87.0
419,84.25259943750001,84.3775992625,64.0,98.0
420,84.25259943750001,84.40205575,40.0,79.0
421,84.9047724375,84.98085928750001,64.0,83.0
422,84.9047724375,84.98221798125,72.0,86.0
423,84.9047724375,84.99308753125,69.0,83.0
424,84.5786859375,85.32460880625,45.0,98.0
425,85.5569454375,85.63439098125001,72.0,86.0
426,85.5569454375,85.63982575625,64.0,77.0
427,85.5569454375,85.64797791875,69.0,81.0
428,85.5569454375,85.69145611875,40.0,76.0
429,86.20911843750001,86.27705312500001,72.0,85.0
430,86.20911843750001,86.29199875625001,64.0,90.0
431,86.20911843750001,86.2960748375,69.0,85.0
432,85.88303193750001,86.59362876875001,40.0,83.0
433,86.8612914375,86.94688914375,72.0,93.0
434,86.8612914375,86.96319346875,64.0,95.0
435,86.8612914375,86.97134563125,69.0,87.0
436,86.8612914375,87.00395428125,40.0,86.0
437,87.1873779375,87.91156170625,45.0,98.0
438,87.1873779375,87.9156377875,69.0,83.0
439,87.1873779375,87.9156377875,72.0,87.0
440,87.1873779375,87.92514864375,64.0,90.0
441,88.16563743750001,88.29743073125,40.0,72.0
442,88.16563743750001,88.6520498,69.0,77.0
443,88.16563743750001,88.6547671875,72.0,85.0
444,88.16563743750001,88.66427804375,64.0,83.0
445,88.8178104375,88.9047668375,72.0,83.0
446,88.8178104375,88.91427769375001,64.0,83.0
447,88.8178104375,88.91699508125001,69.0,79.0
448,88.4917239375,89.05286445625,40.0,81.0
449,89.4699834375,89.57188546875,69.0,67.0
450,89.4699834375,89.5732441625,72.0,98.0
451,89.4699834375,89.5841137125,64.0,86.0
452,89.1438969375,89.72677655625,45.0,87.0
453,90.12215643750001,90.18465635,69.0,90.0
454,90.12215643750001,90.200960675,62.0,85.0
455,90.12215643750001,90.2036780625,65.0,98.0
456,89.79606993750001,90.570525375,38.0,77.0
457,90.7743294375,90.8395467375,69.0,98.0
458,90.7743294375,90.85856845,62.0,86.0
459,90.7743294375,90.85856845,65.0,98.0
460,90.7743294375,90.91835097500001,45.0,79.0
461,91.4265024375,91.49307843125,69.0,95.0
462,91.4265024375,91.50123059375001,65.0,95.0
463,91.4265024375,91.50394798125001,62.0,77.0
464,91.1004159375,91.8612844375,45.0,90.0
465,92.07867543750001,92.15612098125,69.0,90.0
466,92.07867543750001,92.16427314375001,62.0,83.0
467,92.07867543750001,92.16427314375001,65.0,90.0
468,92.07867543750001,92.2199795875,45.0,75.0
469,92.7308484375,92.8015005125,69.0,93.0
470,92.7308484375,92.81101136875,65.0,87.0
471,92.7308484375,92.81644614375,62.0,77.0
472,92.4047619375,93.16291305,50.0,114.0
473,93.3830214375,93.45503220625001,69.0,93.0
474,93.3830214375,93.46861914375,65.0,95.0
475,93.3830214375,93.47813000000001,62.0,87.0
476,93.3830214375,93.51073865000001,45.0,85.0
477,94.03519443750001,94.10312912500001,69.0,100.0
478,94.03519443750001,94.11535736875,65.0,104.0
479,94.03519443750001,94.1167160625,62.0,85.0
480,93.70910793750001,94.3449766125,45.0,67.0
481,94.6873674375,94.77024775625,69.0,93.0
482,94.6873674375,94.777041225,62.0,79.0
483,94.6873674375,94.77839991875,65.0,93.0
484,94.3612809375,95.06100821875,50.0,90.0
485,95.3395404375,95.41426859375001,64.0,76.0
486,95.3395404375,95.41426859375001,69.0,81.0
487,95.3395404375,95.4156272875,72.0,87.0
488,95.0134539375,95.74578986875001,45.0,87.0
489,95.99171343750001,96.07187636875,72.0,83.0
490,95.99171343750001,96.07595245,64.0,81.0
491,95.99171343750001,96.081387225,69.0,76.0
492,95.99171343750001,96.13437628125,40.0,77.0
493,96.6438864375,96.72133198125,72.0,90.0
494,96.6438864375,96.72812545000001,64.0,86.0
495,96.6438864375,96.72948414375,69.0,81.0
496,96.3177999375,97.07730974375,40.0,79.0
497,97.2960594375,97.4101897125,45.0,81.0
498,97.2960594375,97.67513499375,72.0,95.0
499,97.2960594375,97.6764936875,69.0,86.0
500,97.2960594375,97.68464585000001,64.0,90.0
501,97.94823243750001,98.02296059375,72.0,95.0
502,97.94823243750001,98.0243192875,64.0,86.0
503,97.94823243750001,98.02839536875,69.0,85.0
504,97.62214593750001,98.31100366875,45.0,93.0
505,98.6004054375,98.72132918125,40.0,73.0
506,98.6004054375,99.04333960000001,72.0,108.0
507,98.6004054375,99.04605698750001,64.0,95.0
508,98.6004054375,99.05420915,69.0,93.0
509,99.2525784375,99.34496961250001,69.0,87.0
510,99.2525784375,99.34632830625,72.0,98.0
511,99.2525784375,99.34768700000001,64.0,100.0
512,98.9264919375,99.46045858125001,40.0,81.0
513,99.57866493750001,99.94007747500001,45.0,95.0
514,99.90475143750001,100.11127288750001,72.0,90.0
515,99.90475143750001,100.11263158125,69.0,83.0
516,99.90475143750001,100.1330119875,64.0,93.0
517,99.90475143750001,100.29741393125,40.0,61.0
518,100.5569244375,100.70230466875,69.0,87.0
519,100.5569244375,100.7172503,62.0,79.0
520,100.5569244375,100.722685075,65.0,98.0
521,100.2308379375,100.96860864375,50.0,100.0
522,101.2090974375,101.3395320375,45.0,81.0
523,101.2090974375,101.71317281875001,62.0,83.0
524,101.2090974375,101.73627061250001,69.0,93.0
525,101.2090974375,101.7471401625,65.0,98.0
526,101.86127043750001,101.98219418125001,60.0,81.0
527,101.53518393750001,102.2389873,45.0,77.0
528,102.5134434375,102.67241060625,45.0,73.0
529,102.5134434375,102.90067115625,69.0,86.0
530,102.5134434375,102.90610593125001,62.0,86.0
531,102.5134434375,102.90610593125001,65.0,104.0
532,103.1656164375,103.26480108125,69.0,93.0
533,103.1656164375,103.27023585625,65.0,98.0
534,103.1656164375,103.28654018125,62.0,85.0
535,102.8395299375,103.62621361875,50.0,108.0
536,103.81778943750001,103.907463225,69.0,87.0
537,103.81778943750001,103.9101806125,65.0,95.0
538,103.81778943750001,103.9156153875,62.0,85.0
539,103.81778943750001,103.94143056875001,45.0,74.0
540,104.4699624375,104.55827753125,69.0,100.0
541,104.4699624375,104.570505775,65.0,104.0
542,104.4699624375,104.57729924375,62.0,93.0
543,104.1438759375,104.6982229875,45.0,85.0
544,105.1221354375,105.2199613875,69.0,98.0
545,105.1221354375,105.24034179375,65.0,100.0
546,105.1221354375,105.24441787500001,62.0,95.0
547,104.7960489375,105.4563741,50.0,93.0
548,105.77430843750001,105.8558300625,64.0,81.0
549,105.77430843750001,105.86534091875001,72.0,95.0
550,105.77430843750001,105.869417,69.0,86.0
551,106.1003949375,106.1275688125,72.0,45.0
552,106.1003949375,106.13436228125,69.0,53.0
553,106.1003949375,106.14659052500001,64.0,48.0
554,105.44822193750001,106.18327525625,45.0,81.0
555,106.4264814375,106.5188726125,72.0,95.0
556,106.4264814375,106.52159,64.0,85.0
557,106.4264814375,106.52566608125001,69.0,85.0
558,106.4264814375,106.5623508125,52.0,79.0
559,107.0786544375,107.19142601875001,72.0,95.0
560,107.0786544375,107.19686079375,64.0,90.0
561,107.0786544375,107.19686079375,69.0,85.0
562,106.7525679375,107.48897995,52.0,83.0
563,107.7308274375,107.80827298125,64.0,75.0
564,107.7308274375,107.809631675,72.0,87.0
565,107.7308274375,107.81914253125001,69.0,79.0
566,107.7308274375,107.885718525,52.0,77.0
567,108.0569139375,110.47403011875001,69.0,87.0
568,108.0569139375,110.4781062,72.0,104.0
569,108.0569139375,110.48354097500001,64.0,100.0
570,108.0569139375,110.58544300625,57.0,104.0
571,110.6656059375,111.1954965,72.0,90.0
572,110.6656059375,111.2253877625,67.0,79.0
573,111.31777893750001,111.61261548125,71.0,86.0
574,111.6438654375,111.82457170625,72.0,77.0
575,111.9699519375,112.14658212500001,74.0,93.0
576,112.2960384375,112.68054876875,69.0,73.0
577,112.6221249375,112.961798375,64.0,72.0
578,110.6656059375,113.27429793750001,52.0,74.0
579,112.9482114375,113.78652548125001,72.0,75.0
580,110.6656059375,113.9264709375,57.0,60.0
581,113.6003844375,114.04739468125,52.0,63.0
582,113.9264709375,114.24576396875,55.0,70.0
583,110.6656059375,115.23081693750001,45.0,59.0
584,114.9047304375,115.4101645125,72.0,68.0
585,114.9047304375,115.4128819,67.0,65.0
586,114.2525574375,115.69141411875,60.0,75.0
587,115.8829899375,116.44413045625001,72.0,98.0
588,116.5351629375,116.70635835,71.0,83.0
589,116.8612494375,116.97130363125001,72.0,59.0
590,117.18733593750001,117.51885721250001,74.0,90.0
591,117.5134224375,117.80825898125,69.0,68.0
592,117.8395089375,118.26749746875001,64.0,79.0
593,118.1655954375,119.15608318125001,79.0,117.0
594,115.8829899375,120.05010366875,55.0,70.0
595,118.8177684375,120.07184276875,62.0,64.0
596,115.8829899375,120.22401646875001,48.0,74.0
597,119.4699414375,120.78923306875001,64.0,67.0
598,121.10037393750001,121.63026450000001,72.0,90.0
599,121.10037393750001,121.66015576250001,67.0,79.0
600,121.7525469375,122.04738348125001,71.0,86.0
601,122.0786334375,122.25933970625,72.0,77.0
602,122.4047199375,122.581350125,74.0,93.0
603,122.73080643750001,123.11531676875,69.0,73.0
604,123.05689293750001,123.396566375,64.0,72.0
605,121.10037393750001,123.7090659375,52.0,74.0
606,123.3829794375,124.22129348125,72.0,75.0
607,121.10037393750001,124.3612389375,57.0,60.0
608,124.0351524375,124.48216268125,52.0,63.0
609,124.3612389375,124.68053196875,55.0,70.0
610,121.10037393750001,125.6655849375,45.0,59.0
611,125.3394984375,125.84493251250001,72.0,68.0
612,125.3394984375,125.84764990000001,67.0,65.0
613,124.68732543750001,126.12618211875001,60.0,75.0
614,126.3177579375,126.87889845625,72.0,98.0
615,126.96993093750001,127.14112635000001,71.0,83.0
616,127.2960174375,127.40607163125,72.0,59.0
617,127.6221039375,127.9536252125,74.0,90.0
618,127.9481904375,128.24302698125,69.0,68.0
619,128.2742769375,128.70226546875,64.0,79.0
620,128.6003634375,129.59085118125,79.0,117.0
621,126.3177579375,130.48487166875,55.0,70.0
622,129.2525364375,130.50661076875,62.0,64.0
623,126.3177579375,130.65878446875,45.0,74.0
624,129.9047094375,130.8829689375,64.0,67.0
625,130.8829689375,131.048729575,55.0,65.0
626,131.2090554375,131.29737053125,76.0,76.0
627,131.2090554375,131.31367485625,72.0,86.0
628,131.2090554375,131.3231857125,69.0,86.0
629,131.2090554375,131.32997918125,53.0,79.0
630,131.86122843750002,131.93052181875,69.0,85.0
631,131.86122843750002,131.9373152875,65.0,85.0
632,131.86122843750002,131.94954353125001,62.0,79.0
633,131.53514193750001,132.25117354375,50.0,93.0
634,132.5134014375,132.57454265625,69.0,79.0
635,132.5134014375,132.59356436875,62.0,75.0
636,132.5134014375,132.59492306250002,65.0,85.0
637,132.5134014375,132.63160779375,45.0,95.0
638,133.1655744375,133.22943304375,69.0,85.0
639,133.1655744375,133.2416612875,65.0,86.0
640,133.1655744375,133.244378675,62.0,79.0
641,132.8394879375,133.581334725,45.0,76.0
642,133.8177474375,133.88975820625,69.0,87.0
643,133.8177474375,133.89791036875002,62.0,79.0
644,133.8177474375,133.90198645,65.0,90.0
645,133.8177474375,134.0079645625,45.0,69.0
646,134.4699204375,134.53377904375,69.0,93.0
647,134.4699204375,134.54736598125,65.0,85.0
648,134.4699204375,134.54872467500002,62.0,81.0
649,134.1438339375,134.9128546,50.0,100.0
650,135.1220934375,135.19138681875,69.0,95.0
651,135.1220934375,135.2036150625,65.0,95.0
652,135.1220934375,135.20633245,62.0,79.0
653,135.1220934375,135.24709326250002,45.0,74.0
654,135.77426643750002,135.85171198125,65.0,86.0
655,135.77426643750002,135.85171198125,69.0,87.0
656,135.77426643750002,135.86258153125002,62.0,74.0
657,135.44817993750002,136.14111375000002,45.0,79.0
658,136.4264394375,136.50931975625,69.0,90.0
659,136.4264394375,136.5188306125,65.0,90.0
660,136.4264394375,136.52562408125002,62.0,79.0
661,136.1003529375,136.53105885625,50.0,90.0
662,137.0786124375,137.15605798125,64.0,73.0
663,137.0786124375,137.15877536875,72.0,74.0
664,137.0786124375,137.16692753125,69.0,73.0
665,136.7525259375,137.4807857875,45.0,85.0
666,137.7307854375,137.7960027375,72.0,86.0
667,137.7307854375,137.80551359375,64.0,81.0
668,137.7307854375,137.8123070625,69.0,77.0
669,137.7307854375,137.84355701875,52.0,90.0
670,138.3829584375,138.4373061875,72.0,69.0
671,138.3829584375,138.46176267500002,69.0,75.0
672,138.3829584375,138.47127353125,64.0,79.0
673,138.0568719375,138.7742622375,52.0,83.0
674,139.0351314375,139.09355526875,72.0,79.0
675,139.0351314375,139.11529436875,69.0,77.0
676,139.0351314375,139.11801175625,64.0,83.0
677,139.0351314375,139.17779428125002,52.0,77.0
678,139.36121793750002,140.20768414375001,52.0,86.0
679,140.3394774375,140.45632510000002,47.0,73.0
680,140.6655639375,141.01338953750002,47.0,87.0
681,139.36121793750002,141.35849775,68.0,75.0
682,139.36121793750002,141.36800860625002,71.0,81.0
683,139.36121793750002,141.39246509375002,64.0,83.0
684,140.9916504375,141.7633884875,52.0,87.0
685,142.2959964375,142.363931125,69.0,74.0
686,142.2959964375,142.3666485125,62.0,72.0
687,142.2959964375,142.3829528375,65.0,85.0
688,141.9699099375,142.67778938125,50.0,93.0
689,142.9481694375,143.02561498125002,69.0,85.0
690,142.9481694375,143.03784322500002,62.0,81.0
691,142.9481694375,143.04191930625,65.0,90.0
692,142.9481694375,143.06909318125,45.0,68.0
693,143.27425593750002,143.3122993625,65.0,58.0
694,143.60034243750002,143.67778798125,69.0,86.0
695,143.60034243750002,143.68322275625002,62.0,75.0
696,143.60034243750002,143.69137491875,65.0,87.0
697,143.27425593750002,144.07588525,45.0,81.0
698,144.2525154375,144.32996098125,69.0,86.0
699,144.2525154375,144.3394718375,62.0,77.0
700,144.2525154375,144.34626530625002,65.0,87.0
701,144.2525154375,144.39246089375,45.0,68.0
702,144.9046884375,144.9699057375,69.0,86.0
703,144.9046884375,144.98485136875001,62.0,79.0
704,144.9046884375,144.98485136875001,65.0,90.0
705,144.5786019375,145.31365525625,50.0,108.0
706,145.5568614375,145.6329482875,69.0,90.0
707,145.5568614375,145.63974175625,65.0,90.0
708,145.5568614375,145.64110045,62.0,76.0
709,145.5568614375,145.679143875,45.0,93.0
710,146.2090344375,146.29191475625,69.0,87.0
711,146.2090344375,146.2959908375,65.0,81.0
712,146.2090344375,146.298708225,62.0,73.0
713,145.8829479375,146.461751475,45.0,81.0
714,146.8612074375,146.94544645,62.0,73.0
715,146.8612074375,146.9481638375,65.0,87.0
716,146.5351209375,146.95088122500002,50.0,117.0
717,146.8612074375,146.9535986125,69.0,86.0
718,147.18729393750002,147.25658731875,64.0,67.0
719,147.18729393750002,147.26745686875,68.0,71.0
720,147.18729393750002,147.26745686875,71.0,79.0
721,147.18729393750002,147.28240250000002,52.0,95.0
722,147.51338043750002,147.5949020625,64.0,74.0
723,147.51338043750002,147.59897814375,71.0,86.0
724,147.51338043750002,147.608489,68.0,77.0
725,147.51338043750002,147.61799985625,52.0,98.0
726,147.8394669375,147.91962986875,64.0,72.0
727,147.8394669375,147.91962986875,71.0,83.0
728,147.8394669375,147.93321680625002,68.0,77.0
729,147.8394669375,147.94680374375,52.0,95.0
730,148.1655534375,148.24028159375,64.0,68.0
731,148.1655534375,148.24979245,71.0,83.0
732,148.1655534375,148.26202069375,68.0,76.0
733,148.1655534375,148.2851184875,52.0,100.0
734,148.4916399375,148.56908548125,64.0,68.0
735,148.4916399375,148.57180286875,71.0,85.0
736,148.4916399375,148.58538980625,68.0,76.0
737,148.4916399375,148.59897674375,52.0,98.0
738,148.8177264375,148.89517198125,64.0,69.0
739,148.8177264375,148.8992480625,71.0,83.0
740,148.8177264375,148.90875891875,68.0,77.0
741,148.8177264375,148.92370455,52.0,104.0
742,149.1438129375,149.21582370625,64.0,71.0
743,149.1438129375,149.22125848125,71.0,85.0
744,149.1438129375,149.23484541875,68.0,76.0
745,149.1438129375,149.255225825,52.0,104.0
746,149.4698994375,149.5405515125,64.0,69.0
747,149.4698994375,149.54734498125,71.0,85.0
748,149.4698994375,149.55549714375002,68.0,75.0
749,149.4698994375,149.57587755,52.0,104.0
750,149.7959859375,151.61799425625,71.0,104.0
751,149.7959859375,151.6220703375,64.0,93.0
752,149.7959859375,151.62614641875,68.0,98.0
753,149.7959859375,152.15603698125,52.0,114.0
754,151.7525049375,152.19543910000002,64.0,72.0
755,151.7525049375,152.2090260375,71.0,69.0
756,151.7525049375,152.2144608125,68.0,69.0
757,152.7307644375,152.79734043125,76.0,81.0
758,152.7307644375,152.80549259375002,69.0,79.0
759,152.7307644375,152.8068512875,72.0,86.0
760,152.4046779375,153.10168783125002,45.0,69.0
761,152.4046779375,153.10168783125002,57.0,69.0
762,153.3829374375,153.4644590625,69.0,74.0
763,153.3829374375,153.46853514375002,76.0,76.0
764,153.3829374375,153.47125253125,72.0,79.0
765,153.3829374375,153.51201334375,40.0,85.0
766,153.3829374375,153.51201334375,52.0,85.0
767,154.0351104375,154.10440381875,76.0,81.0
768,154.0351104375,154.11391467500002,72.0,85.0
769,154.0351104375,154.12070814375,69.0,81.0
770,153.7090239375,154.4046751375,40.0,83.0
771,153.7090239375,154.4046751375,52.0,83.0
772,154.6872834375,154.81907673125,40.0,81.0
773,154.6872834375,154.81907673125,52.0,81.0
774,154.6872834375,154.97396781875,76.0,83.0
775,154.6872834375,154.98891345,72.0,87.0
776,154.6872834375,154.99027214375002,69.0,87.0
777,155.33945643750002,155.40467373750002,76.0,77.0
778,155.33945643750002,155.418260675,72.0,81.0
779,155.33945643750002,155.4264128375,69.0,83.0
780,155.01336993750002,155.80141231250002,45.0,85.0
781,155.01336993750002,155.80141231250002,57.0,98.0
782,155.9916294375,156.0649989,76.0,93.0
783,155.9916294375,156.07722714375,69.0,86.0
784,155.9916294375,156.07858583750001,72.0,90.0
785,155.9916294375,156.1111944875,40.0,86.0
786,155.9916294375,156.1111944875,52.0,86.0
787,156.6438024375,156.72804145,76.0,90.0
788,156.6438024375,156.738911,72.0,93.0
789,156.6438024375,156.74978055,69.0,90.0
790,156.3177159375,156.97939979375002,40.0,85.0
791,156.3177159375,156.97939979375002,52.0,85.0
792,156.9698889375,157.31092106875002,45.0,83.0
793,156.9698889375,157.31092106875002,57.0,90.0
794,157.2959754375,157.38429053125,76.0,87.0
795,157.2959754375,157.39380138750002,69.0,85.0
796,157.2959754375,157.39516008125,72.0,86.0
797,157.2959754375,157.4264100375,40.0,72.0
798,157.2959754375,157.4264100375,52.0,72.0
799,157.9481484375,158.01472443125002,67.0,100.0
800,157.9481484375,158.02287659375,60.0,83.0
801,157.9481484375,158.0296700625,64.0,90.0
802,157.6220619375,158.35168048125,48.0,78.0
803,158.6003214375,158.67233220625002,67.0,98.0
804,158.6003214375,158.67776698125002,60.0,81.0
805,158.6003214375,158.68456045,64.0,98.0
806,158.6003214375,158.73075603750002,43.0,85.0
807,159.25249443750002,159.31091826875002,67.0,93.0
808,159.25249443750002,159.32178781875,60.0,69.0
809,159.25249443750002,159.33537475625002,64.0,93.0
810,158.92640793750002,159.603037425,43.0,85.0
811,159.9046674375,160.0296672625,67.0,98.0
812,159.9046674375,160.06635199375,64.0,95.0
813,159.9046674375,160.0731454625,60.0,85.0
814,159.9046674375,160.0948845625,43.0,83.0
815,160.5568404375,160.63156859375002,67.0,86.0
816,160.5568404375,160.63700336875002,60.0,72.0
817,160.5568404375,160.64243814375,64.0,85.0
818,160.2307539375,161.08129622500002,48.0,81.0
819,161.2090134375,161.27694812500002,67.0,104.0
820,161.2090134375,161.28645898125,64.0,108.0
821,161.2090134375,161.28917636875,60.0,93.0
822,161.2090134375,161.3394480375,43.0,93.0
823,161.8611864375,161.9372732875,67.0,100.0
824,161.8611864375,161.9427080625,64.0,98.0
825,161.8611864375,161.95221891875,60.0,87.0
826,161.5350999375,162.18591424375,43.0,81.0
827,162.51335943750001,162.60439191875,67.0,100.0
828,162.51335943750001,162.613902775,60.0,85.0
829,162.51335943750001,162.6220549375,64.0,98.0
830,162.1872729375,162.9128154,48.0,95.0
831,163.16553243750002,163.24161928750001,64.0,74.0
832,163.16553243750002,163.24977145,72.0,77.0
833,163.16553243750002,163.255206225,69.0,74.0
834,162.83944593750002,163.53645583125,57.0,98.0
835,163.8177054375,163.885640125,72.0,85.0
836,163.8177054375,163.896509675,64.0,87.0
837,163.8177054375,163.90330314375,69.0,87.0
838,163.8177054375,163.96580305625,52.0,95.0
839,164.4698784375,164.54460659375002,72.0,90.0
840,164.4698784375,164.5459652875,64.0,90.0
841,164.4698784375,164.55004136875002,69.0,83.0
842,164.1437919375,164.88971480625,52.0,95.0
843,165.1220514375,165.27150775,52.0,90.0
844,165.1220514375,165.44134446875,72.0,95.0
845,165.1220514375,165.44406185625002,64.0,87.0
846,165.1220514375,165.44406185625002,69.0,85.0
847,165.7742244375,165.8557460625,72.0,90.0
848,165.7742244375,165.8611808375,64.0,81.0
849,165.7742244375,165.86253953125,69.0,79.0
850,165.4481379375,166.19677819375,57.0,95.0
851,166.42639743750001,166.5133538375,72.0,83.0
852,166.42639743750001,166.51607122500002,69.0,81.0
853,166.42639743750001,166.52014730625,64.0,83.0
854,166.42639743750001,166.548679875,52.0,83.0
855,167.07857043750002,167.1655268375,72.0,93.0
856,167.07857043750002,167.168244225,69.0,87.0
857,167.07857043750002,167.17503769375,64.0,93.0
858,166.75248393750002,167.47666770625,52.0,86.0
859,167.7307434375,167.81905853125,69.0,87.0
860,167.7307434375,167.81905853125,72.0,87.0
861,167.7307434375,167.8557432625,64.0,98.0
862,167.7307434375,167.88019975,52.0,79.0
863,168.3829164375,168.4590032875,64.0,83.0
864,168.3829164375,168.46036198125,72.0,86.0
865,168.3829164375,168.47123153125,69.0,83.0
866,168.0568299375,168.80275280625,57.0,98.0
867,169.0350894375,169.11253498125,72.0,86.0
868,169.0350894375,169.11796975625,64.0,77.0
869,169.0350894375,169.12612191875002,69.0,81.0
870,169.0350894375,169.16960011875,52.0,76.0
871,169.6872624375,169.755197125,72.0,85.0
872,169.6872624375,169.77014275625,64.0,90.0
873,169.6872624375,169.7742188375,69.0,85.0
874,169.3611759375,170.07177276875,52.0,83.0
875,170.33943543750001,170.42503314375,72.0,93.0
876,170.33943543750001,170.44133746875,64.0,95.0
877,170.33943543750001,170.44948963125,69.0,87.0
878,170.33943543750001,170.48209828125002,52.0,86.0
879,170.66552193750002,171.38970570625,57.0,98.0
880,170.66552193750002,171.39378178750002,69.0,83.0
881,170.66552193750002,171.39378178750002,72.0,87.0
882,170.66552193750002,171.40329264375,64.0,90.0
883,171.6437814375,171.77557473125,52.0,72.0
884,171.6437814375,172.1301938,69.0,77.0
885,171.6437814375,172.1329111875,72.0,85.0
886,171.6437814375,172.14242204375,64.0,83.0
887,172.2959544375,172.38291083750002,72.0,83.0
888,172.2959544375,172.39242169375,64.0,83.0
889,172.2959544375,172.39513908125,69.0,79.0
890,171.9698679375,172.53100845625,52.0,81.0
891,172.9481274375,173.05002946875,69.0,67.0
892,172.9481274375,173.05138816250002,72.0,98.0
893,172.9481274375,173.0622577125,64.0,86.0
894,172.6220409375,173.20492055625002,57.0,87.0
895,173.6003004375,173.66280035,69.0,90.0
896,173.6003004375,173.67910467500002,62.0,85.0
897,173.6003004375,173.6818220625,65.0,98.0
898,173.2742139375,174.048669375,50.0,77.0
899,174.25247343750002,174.31769073750002,69.0,98.0
900,174.25247343750002,174.33671245,62.0,86.0
901,174.25247343750002,174.33671245,65.0,98.0
902,174.25247343750002,174.396494975,45.0,79.0
903,174.90464643750002,174.97122243125,69.0,95.0
904,174.90464643750002,174.97937459375,65.0,95.0
905,174.90464643750002,174.98209198125,62.0,77.0
906,174.57855993750002,175.3394284375,45.0,90.0
907,175.5568194375,175.63426498125,69.0,90.0
908,175.5568194375,175.64241714375,62.0,83.0
909,175.5568194375,175.64241714375,65.0,90.0
910,175.5568194375,175.6981235875,45.0,75.0
911,176.2089924375,176.2796445125,69.0,93.0
912,176.2089924375,176.28915536875002,65.0,87.0
913,176.2089924375,176.29459014375,62.0,77.0
914,175.8829059375,176.64105705,50.0,85.0
915,176.8611654375,176.93317620625,69.0,93.0
916,176.8611654375,176.94676314375002,65.0,95.0
917,176.8611654375,176.956274,62.0,87.0
918,176.8611654375,176.98888265,45.0,79.0
919,177.5133384375,177.581273125,69.0,100.0
920,177.5133384375,177.59350136875,65.0,104.0
921,177.5133384375,177.5948600625,62.0,85.0
922,177.1872519375,177.82312061250002,45.0,74.0
923,178.16551143750002,178.24839175625002,69.0,93.0
924,178.16551143750002,178.25518522500002,62.0,79.0
925,178.16551143750002,178.25654391875,65.0,93.0
926,177.8394249375,178.53915221875002,50.0,90.0
927,178.81768443750002,178.89241259375,64.0,76.0
928,178.81768443750002,178.89241259375,69.0,81.0
929,178.81768443750002,178.89377128750002,72.0,87.0
930,178.49159793750002,179.22393386875,57.0,87.0
931,179.4698574375,179.55002036875,72.0,83.0
932,179.4698574375,179.55409645,64.0,81.0
933,179.4698574375,179.559531225,69.0,76.0
934,179.4698574375,179.61252028125,52.0,77.0
935,180.1220304375,180.19947598125,72.0,90.0
936,180.1220304375,180.20626945,64.0,86.0
937,180.1220304375,180.20762814375001,69.0,81.0
938,179.7959439375,180.55545374375,52.0,79.0
939,180.7742034375,180.8883337125,57.0,81.0
940,180.7742034375,181.15327899375,72.0,95.0
941,180.7742034375,181.1546376875,69.0,86.0
942,180.7742034375,181.16278985,64.0,90.0
943,181.4263764375,181.50110459375,72.0,95.0
944,181.4263764375,181.5024632875,64.0,86.0
945,181.4263764375,181.50653936875,69.0,85.0
946,181.1002899375,181.78914766875002,57.0,93.0
947,182.07854943750002,182.19947318125,52.0,86.0
948,182.07854943750002,182.5214836,72.0,108.0
949,182.07854943750002,182.5242009875,64.0,95.0
950,182.07854943750002,182.53235315,69.0,93.0
951,182.73072243750002,182.8231136125,69.0,87.0
952,182.73072243750002,182.82447230625002,72.0,98.0
953,182.73072243750002,182.825831,64.0,100.0
954,182.40463593750002,182.93860258125,52.0,86.0
955,183.0568089375,183.418221475,57.0,89.0
956,183.3828954375,183.5894168875,72.0,90.0
957,183.3828954375,183.59077558125,69.0,83.0
958,183.3828954375,183.6111559875,64.0,93.0
959,183.3828954375,183.77555793125,52.0,85.0
960,184.0350684375,184.18044866875002,69.0,87.0
961,184.0350684375,184.1953943,62.0,79.0
962,184.0350684375,184.200829075,65.0,98.0
963,183.7089819375,184.44675264375002,50.0,84.0
964,184.6872414375,184.8176760375,45.0,81.0
965,184.6872414375,185.19131681875,62.0,83.0
966,184.6872414375,185.2144146125,69.0,93.0
967,184.6872414375,185.2252841625,65.0,98.0
968,185.3394144375,185.46033818125,60.0,81.0
969,185.0133279375,185.7171313,45.0,77.0
970,185.99158743750002,186.15055460625,45.0,73.0
971,185.99158743750002,186.37881515625,69.0,86.0
972,185.99158743750002,186.38424993125,62.0,86.0
973,185.99158743750002,186.38424993125,65.0,104.0
974,186.64376043750002,186.74294508125,69.0,93.0
975,186.64376043750002,186.74837985625,65.0,98.0
976,186.64376043750002,186.76468418125,62.0,85.0
977,186.31767393750002,187.10435761875002,50.0,95.0
978,187.2959334375,187.385607225,69.0,87.0
979,187.2959334375,187.3883246125,65.0,95.0
980,187.2959334375,187.3937593875,62.0,85.0
981,187.2959334375,187.41957456875,45.0,74.0
982,187.9481064375,188.03642153125,69.0,100.0
983,187.9481064375,188.048649775,65.0,104.0
984,187.9481064375,188.05544324375,62.0,93.0
985,187.6220199375,188.17636698750002,45.0,85.0
986,188.6002794375,188.6981053875,69.0,98.0
987,188.6002794375,188.71848579375,65.0,100.0
988,188.6002794375,188.722561875,62.0,95.0
989,188.2741929375,188.93451810000002,50.0,84.0
990,188.9263659375,189.0214745,71.0,65.0
991,188.9263659375,189.05408315,64.0,60.0
992,188.9263659375,189.059517925,68.0,67.0
993,188.9263659375,189.0948439625,47.0,79.0
994,189.2524524375,189.32446320625002,64.0,59.0
995,189.2524524375,189.3258219,71.0,70.0
996,189.2524524375,189.34348491875,68.0,69.0
997,189.2524524375,189.36250663125,47.0,79.0
998,189.5785389375,189.6437562375,64.0,61.0
999,189.5785389375,189.64511493125002,71.0,74.0
1000,189.5785389375,189.65870186875,68.0,74.0
1001,189.5785389375,189.70218006875,47.0,79.0
1002,189.90462543750002,189.972560125,64.0,60.0
1003,189.90462543750002,189.972560125,71.0,74.0
1004,189.90462543750002,189.98750575625002,68.0,74.0
1005,189.90462543750002,190.0187557125,47.0,83.0
1006,190.23071193750002,190.29321185,64.0,61.0
1007,190.23071193750002,190.30272270625,71.0,77.0
1008,190.23071193750002,190.30679878750001,68.0,74.0
1009,190.23071193750002,190.33669005000002,47.0,85.0
1010,190.55679843750002,190.62337443125,64.0,61.0
1011,190.55679843750002,190.6301679,71.0,76.0
1012,190.55679843750002,190.64103745,68.0,73.0
1013,190.55679843750002,190.66957001875,47.0,86.0
1014,190.8828849375,190.94674354375002,64.0,64.0
1015,190.8828849375,190.9481022375,71.0,81.0
1016,190.8828849375,190.95489570625,68.0,74.0
1017,190.8828849375,190.99973260000002,47.0,86.0
1018,191.2089714375,191.28641698125,64.0,65.0
1019,191.2089714375,191.28641698125,71.0,79.0
1020,191.2089714375,191.29728653125,68.0,74.0
1021,191.2089714375,191.33125387500002,47.0,98.0
1022,191.5350579375,193.99565231875002,68.0,88.0
1023,191.5350579375,194.00652186875,64.0,88.0
1024,191.5350579375,194.00652186875,71.0,88.0
1025,191.5350579375,194.02554358125002,47.0,88.0
1026,194.14374993750002,194.66277095,60.0,65.0
1027,194.14374993750002,194.67228180625,69.0,74.0
1028,194.14374993750002,194.67771658125,64.0,81.0
1029,195.1220094375,195.48749805625002,57.0,76.0
1030,194.7959229375,195.9209213625,69.0,82.0
1031,194.7959229375,195.93722568750002,64.0,82.0
1032,194.7959229375,195.94401915625,60.0,82.0
1033,195.7741824375,196.157334075,57.0,59.0
1034,196.1002689375,196.63423558125,69.0,86.0
1035,196.1002689375,196.6546159875,64.0,86.0
1036,196.1002689375,196.657333375,60.0,86.0
1037,196.7524419375,197.1953761,60.0,84.0
1038,196.7524419375,197.21032173125002,69.0,84.0
1039,196.7524419375,197.22254997500002,64.0,84.0
1040,197.0785284375,197.46847354375,57.0,58.0
1041,197.4046149375,197.98477716875,60.0,90.0
1042,197.4046149375,197.99021194375,69.0,86.0
1043,197.4046149375,197.99292933125,64.0,90.0
1044,197.73070143750002,198.113853075,57.0,59.0
1045,198.05678793750002,198.3665701125,69.0,87.0
1046,198.05678793750002,198.36792880625,64.0,90.0
1047,194.46983643750002,198.37879835625,52.0,63.0
1048,198.05678793750002,198.38966790625,60.0,86.0
1049,196.7524419375,198.44537435,48.0,63.0
1050,194.14374993750002,198.47662430625002,45.0,74.0
1051,198.7089609375,199.1084169,62.0,84.0
1052,198.7089609375,199.10977559375002,67.0,84.0
1053,198.7089609375,199.124721225,59.0,84.0
1054,198.7089609375,199.266025375,43.0,77.0
1055,199.3611339375,199.94673094375,57.0,88.0
1056,199.3611339375,199.9480896375,65.0,88.0
1057,199.3611339375,199.961676575,60.0,88.0
1058,200.5024366875,200.83803404375,53.0,58.0
1059,200.0133069375,201.048631575,65.0,81.0
1060,200.0133069375,201.0622185125,57.0,81.0
1061,200.0133069375,201.0649359,60.0,81.0
1062,200.9915664375,201.44672884375,53.0,61.0
1063,201.31765293750001,201.83667395,65.0,82.0
1064,201.31765293750001,201.852978275,57.0,82.0
1065,201.31765293750001,201.852978275,60.0,82.0
1066,201.96982593750002,202.50922735625,65.0,78.0
1067,201.96982593750002,202.526890375,60.0,78.0
1068,201.96982593750002,202.5296077625,57.0,78.0
1069,201.64373943750002,202.79455304375,53.0,60.0
1070,202.6219989375,203.16547643750002,65.0,88.0
1071,202.6219989375,203.17770468125002,57.0,88.0
1072,202.6219989375,203.1872155375,60.0,88.0
1073,203.1111286875,203.59210627500002,53.0,57.0
1074,203.2741719375,203.82716029375,65.0,85.0
1075,203.2741719375,203.83802984375,57.0,68.0
1076,203.2741719375,203.8393885375,60.0,79.0
1077,203.6002584375,203.92226885625,53.0,60.0
1078,199.6872204375,204.005149175,48.0,84.0
1079,203.9263449375,204.0785186375,57.0,90.0
1080,203.9263449375,204.081236025,60.0,90.0
1081,203.9263449375,204.08531210625,65.0,104.0
1082,199.3611339375,204.19536630000002,41.0,84.0
1083,204.2524314375,204.46302896875,55.0,87.0
1084,204.2524314375,204.483409375,40.0,62.0
1085,204.5785179375,205.102973725,62.0,74.0
1086,204.5785179375,205.11927805000002,53.0,86.0
1087,204.5785179375,205.12335413125,57.0,81.0
1088,205.23069093750001,205.78639668125,62.0,79.0
1089,205.23069093750001,205.7959075375,57.0,83.0
1090,205.23069093750001,205.81085316875001,53.0,76.0
1091,205.55677743750002,206.0404724125,50.0,54.0
1092,205.88286393750002,206.39101540000001,62.0,79.0
1093,205.88286393750002,206.40188495,53.0,72.0
1094,205.88286393750002,206.40867841875001,57.0,77.0
1095,206.2089504375,206.58666730000002,50.0,61.0
1096,204.5785179375,206.87335168125,38.0,73.0
1097,206.5350369375,206.91411249375,53.0,90.0
1098,206.5350369375,206.929058125,57.0,87.0
1099,206.5350369375,206.94536245,62.0,87.0
1100,204.9046044375,207.1654708375,45.0,64.0
1101,206.8611234375,207.1763403875,50.0,59.0
1102,207.1872099375,207.6274267125,64.0,61.0
1103,207.1872099375,207.67226360625,59.0,72.0
1104,207.1872099375,207.6926440125,56.0,71.0
1105,207.8393829375,208.21030633125,64.0,75.0
1106,207.8393829375,208.28367579375,59.0,85.0
1107,207.8393829375,208.32987138125,56.0,85.0
1108,208.1654694375,208.53095805625,52.0,80.0
1109,208.4915559375,208.57171886875,64.0,67.0
1110,208.4915559375,209.03910951875,59.0,80.0
1111,208.4915559375,209.0649247,56.0,80.0
1112,208.8176424375,209.19400060625,52.0,80.0
1113,209.14372893750001,209.46573935625,64.0,72.0
1114,207.1872099375,209.4779676,40.0,67.0
1115,209.14372893750001,209.48476106875,59.0,80.0
1116,209.14372893750001,209.52280449375002,56.0,80.0
1117,207.8393829375,209.5513370625,44.0,11.0
1118,207.5132964375,209.62606521875,47.0,69.0
1119,209.46981543750002,209.84889099375002,52.0,87.0
1120,209.79590193750002,210.26736866875,60.0,69.0
1121,209.79590193750002,210.28639038125002,69.0,59.0
1122,209.79590193750002,210.3067707875,64.0,76.0
1123,210.4480749375,211.02823716875,69.0,88.0
1124,210.4480749375,211.0431828,60.0,88.0
1125,210.4480749375,211.04725888125,64.0,88.0
1126,210.7741614375,211.2035086625,57.0,60.0
1127,211.1002479375,211.65867106875,69.0,89.0
1128,211.1002479375,211.66138845625,60.0,89.0
1129,211.1002479375,211.66682323125002,64.0,89.0
1130,211.4263344375,211.91138810625,57.0,60.0
1131,211.7524209375,212.03910531875002,64.0,85.0
1132,211.7524209375,212.07986613125001,69.0,85.0
1133,210.1219884375,212.09209437500002,52.0,65.0
1134,209.79590193750002,212.11790955625,45.0,67.0
1135,211.7524209375,212.25785501250002,60.0,85.0
1136,212.4045939375,212.92361495,69.0,95.0
1137,212.4045939375,212.9317671125,60.0,85.0
1138,212.4045939375,212.94399535625,64.0,93.0
1139,213.05676693750002,213.5622010125,60.0,85.0
1140,213.05676693750002,213.57578795,69.0,90.0
1141,213.05676693750002,213.57986403125,64.0,90.0
1142,213.38285343750002,213.77415723750002,57.0,61.0
1143,213.70893993750002,214.29317825,60.0,84.0
1144,213.70893993750002,214.2958956375,64.0,84.0
1145,213.70893993750002,214.298613025,69.0,84.0
1146,214.0350264375,214.57171046875,57.0,55.0
1147,214.3611129375,214.90459043750002,69.0,84.0
1148,214.3611129375,214.91545998750001,64.0,84.0
1149,214.3611129375,214.91953606875,60.0,84.0
1150,212.4045939375,214.94942733125,45.0,90.0
1151,212.6980717875,215.04589458750002,52.0,63.0
1152,215.0132859375,215.58529600625002,60.0,76.0
1153,215.0132859375,215.5948068625,69.0,85.0
1154,215.0132859375,215.59752425000002,64.0,85.0
1155,215.6654589375,216.18855603125002,60.0,76.0
1156,215.6654589375,216.1926321125,69.0,85.0
1157,215.6654589375,216.1980668875,64.0,87.0
1158,216.1545886875,216.58529460625002,57.0,54.0
1159,216.3176319375,216.90187025,69.0,83.0
1160,216.3176319375,216.907305025,64.0,83.0
1161,216.3176319375,216.92496804375,60.0,69.0
1162,216.6437184375,217.00377228125,57.0,59.0
1163,215.0132859375,217.21029373125,45.0,83.0
1164,216.96980493750002,217.25648931875,60.0,72.0
1165,216.96980493750002,217.25648931875,69.0,87.0
1166,216.96980493750002,217.287739275,64.0,93.0
1167,215.37198108750002,217.33665225000001,52.0,68.0
1168,217.62197793750002,218.16545543750001,60.0,64.0
1169,217.62197793750002,218.17224890625002,69.0,72.0
1170,217.62197793750002,218.200781475,64.0,54.0
1171,218.2741509375,218.58800919375,69.0,98.0
1172,218.2741509375,218.60159613125,64.0,98.0
1173,218.2741509375,218.62877000625,60.0,98.0
1174,217.9480644375,218.679041675,52.0,63.0
1175,217.62197793750002,218.78094370625,45.0,74.0
1176,218.9263239375,219.48882315,59.0,79.0
1177,218.9263239375,219.50376878125002,67.0,86.0
1178,218.9263239375,219.50648616875,62.0,79.0
1179,219.5784969375,219.88284433750002,67.0,94.0
1180,219.5784969375,219.89235519375,62.0,94.0
1181,219.5784969375,219.90730082500002,59.0,94.0
1182,219.2524104375,220.01735501875,50.0,73.0
1183,219.9045834375,220.070344075,55.0,63.0
1184,218.9263239375,220.14235484375,43.0,74.0
1185,220.2306699375,220.7904517625,65.0,95.0
1186,220.2306699375,220.79452784375002,57.0,83.0
1187,220.2306699375,220.80268000625,60.0,87.0
1188,220.88284293750002,221.4263204375,65.0,95.0
1189,220.88284293750002,221.43311390625001,57.0,81.0
1190,220.88284293750002,221.44670084375,60.0,86.0
1191,221.20892943750002,221.60974409375,53.0,60.0
1192,221.53501593750002,222.04316740000002,65.0,87.0
1193,221.53501593750002,222.05403695,57.0,74.0
1194,221.53501593750002,222.06354780625,60.0,83.0
1195,221.8611024375,222.36246043125,53.0,91.0
1196,222.1871889375,222.548601475,65.0,90.0
1197,222.1871889375,222.58256881875002,60.0,90.0
1198,220.5567564375,222.613818775,48.0,77.0
1199,220.2306699375,222.61517746875,41.0,95.0
1200,222.1871889375,222.6545795875,57.0,90.0
1201,222.5132754375,222.7388186,53.0,99.0
1202,222.8393619375,223.36925250000002,57.0,76.0
1203,222.8393619375,223.37061119375,65.0,95.0
1204,222.8393619375,223.38963290625,60.0,86.0
1205,223.4915349375,224.0404472125,65.0,98.0
1206,223.4915349375,224.0458819875,57.0,85.0
1207,223.4915349375,224.04724068125,60.0,86.0
1208,222.8393619375,224.1437079375,41.0,90.0
1209,223.8176214375,224.276859925,53.0,50.0
1210,223.1654484375,224.31762073750002,48.0,67.0
1211,224.1437079375,224.31762073750002,65.0,95.0
1212,224.1437079375,224.4697944375,57.0,86.0
1213,224.1437079375,224.4697944375,60.0,86.0
1214,224.4697944375,224.592076875,64.0,74.0
1215,224.4697944375,224.59479426250002,59.0,83.0
1216,224.4697944375,224.63419638125,56.0,95.0
1217,224.4697944375,224.65050070625,40.0,90.0
1218,225.12196743750002,225.96571625625,53.0,90.0
1219,225.12196743750002,225.97115103125,57.0,81.0
1220,226.1002269375,226.668160925,62.0,83.0
1221,226.1002269375,226.68582394375,53.0,77.0
1222,226.1002269375,226.6926174125,57.0,85.0
1223,226.4263134375,226.90321494375002,50.0,61.0
1224,226.7523999375,227.28364919375,53.0,72.0
1225,226.7523999375,227.28364919375,62.0,73.0
1226,226.7523999375,227.3040296,57.0,83.0
1227,227.0784864375,227.4344642,50.0,60.0
1228,227.4045729375,227.7605507,57.0,84.0
1229,227.4045729375,227.76734416875001,62.0,84.0
1230,227.4045729375,227.76870286250002,53.0,84.0
1231,225.12196743750002,227.83799624375,38.0,76.0
1232,227.7306594375,228.00647426875,50.0,84.0
1233,225.7741404375,228.03636553125,45.0,58.0
1234,228.0567459375,228.4996801,64.0,84.0
1235,228.0567459375,228.5513104625,56.0,84.0
1236,228.0567459375,228.5513104625,59.0,84.0
1237,228.70891893750002,228.972505525,52.0,89.0
1238,228.70891893750002,229.15592918125,64.0,89.0
1239,228.70891893750002,229.2822877,59.0,89.0
1240,228.70891893750002,229.28908116875002,56.0,89.0
1241,229.1980486875,229.689895825,52.0,89.0
1242,229.36109193750002,229.80538479375002,64.0,88.0
1243,229.36109193750002,229.8909825,59.0,88.0
1244,229.36109193750002,229.9127216,56.0,88.0
1245,229.8502216875,230.21027553125,52.0,86.0
1246,230.0132649375,230.31489495,64.0,90.0
1247,230.0132649375,230.33119927500002,59.0,90.0
1248,228.0567459375,230.33663405000001,40.0,84.0
1249,230.0132649375,230.363807925,56.0,90.0
1250,228.3828324375,230.43717738750001,47.0,88.0
1251,230.3393514375,230.68717703750002,52.0,59.0
1252,230.6654379375,231.23744800625002,60.0,68.0
1253,230.6654379375,231.24016539375,69.0,74.0
1254,230.6654379375,231.244241475,64.0,81.0
1255,231.3176109375,231.896414475,69.0,86.0
1256,231.3176109375,231.90184925,64.0,90.0
1257,231.3176109375,231.90320794375,60.0,83.0
1258,231.6436974375,231.99559911875002,57.0,59.0
1259,231.9697839375,232.41407679375,60.0,76.0
1260,231.9697839375,232.52277229375,69.0,87.0
1261,231.9697839375,232.56353310625002,64.0,87.0
1262,232.2958704375,232.70619595,57.0,62.0
1263,232.62195693750002,232.9996738,64.0,62.0
1264,232.7850001875,233.10972799375,69.0,62.0
1265,232.94804343750002,233.3121733625,57.0,71.0
1266,233.27412993750002,233.80130311250002,69.0,64.0
1267,233.27412993750002,233.8393465375,64.0,72.0
1268,232.7850001875,233.86516171875002,60.0,63.0
1269,233.6002164375,234.0513027625,57.0,63.0
1270,233.9263029375,234.5513020625,60.0,77.0
1271,233.9263029375,234.5621716125,64.0,81.0
1272,233.9263029375,234.56488900000002,69.0,77.0
1273,234.2523894375,234.68581274375,57.0,59.0
1274,234.5784759375,235.14233384375,60.0,84.0
1275,234.5784759375,235.14505123125002,69.0,87.0
1276,234.5784759375,235.14776861875,64.0,84.0
1277,235.5567354375,235.64505053125,76.0,76.0
1278,230.6654379375,235.733365625,45.0,68.0
1279,236.2089084375,236.27140835,69.0,79.0
1280,236.2089084375,236.28091920625002,62.0,74.0
1281,236.2089084375,236.28091920625002,65.0,83.0
1282,235.8828219375,236.50917975625,50.0,74.0
1283,236.86108143750002,236.93037481875,69.0,83.0
1284,236.86108143750002,236.93716828750001,62.0,75.0
1285,236.86108143750002,236.93716828750001,65.0,86.0
1286,236.86108143750002,236.994233425,45.0,67.0
1287,237.5132544375,237.581189125,69.0,83.0
1288,237.5132544375,237.58526520625,65.0,86.0
1289,237.5132544375,237.58798259375,62.0,83.0
1290,237.18716793750002,237.79722143125002,45.0,79.0
1291,238.1654274375,238.24015559375002,69.0,83.0
1292,238.1654274375,238.24966645,65.0,85.0
1293,238.1654274375,238.25917730625,62.0,81.0
1294,237.8393409375,238.28635118125,50.0,90.0
1295,238.4915139375,238.85564386250002,45.0,75.0
1296,238.8176004375,238.88145904375,64.0,67.0
1297,238.8176004375,238.8882525125,72.0,75.0
1298,238.8176004375,238.8936872875,69.0,73.0
1299,239.4697734375,239.53906681875,72.0,81.0
1300,239.4697734375,239.5458602875,69.0,75.0
1301,239.4697734375,239.54857767500002,64.0,76.0
1302,239.4697734375,239.57982763125,40.0,86.0
1303,240.12194643750001,240.1925985125,72.0,79.0
1304,240.12194643750001,240.2089028375,69.0,76.0
1305,240.12194643750001,240.2143376125,64.0,83.0
1306,239.7958599375,240.27276144375,40.0,81.0
1307,240.77411943750002,240.86515191875,72.0,65.0
1308,240.77411943750002,240.88417363125,64.0,67.0
1309,240.77411943750002,240.88689101875002,69.0,69.0
1310,240.44803293750002,240.90998881250002,45.0,98.0
1311,241.4262924375,241.4860749625,72.0,79.0
1312,241.4262924375,241.50645536875,69.0,75.0
1313,241.4262924375,241.51189014375,65.0,81.0
1314,241.10020593750002,241.69395510625,41.0,96.0
1315,242.0784654375,242.13688926875,72.0,83.0
1316,242.0784654375,242.157269675,69.0,83.0
1317,242.0784654375,242.15998706250002,65.0,86.0
1318,242.0784654375,242.17493269375,36.0,89.0
1319,242.7306384375,242.79177965625001,72.0,76.0
1320,242.7306384375,242.81351875625,69.0,76.0
1321,242.7306384375,242.8175948375,65.0,79.0
1322,242.4045519375,242.82982308125,36.0,89.0
1323,243.0567249375,243.44938743125002,41.0,85.0
1324,243.3828114375,243.46569175625,72.0,76.0
1325,243.3828114375,243.4752026125,65.0,76.0
1326,243.3828114375,243.483354775,69.0,75.0
1327,244.03498443750001,244.09612565625,72.0,77.0
1328,244.03498443750001,244.11242998125002,64.0,81.0
1329,244.03498443750001,244.11922345000002,69.0,77.0
1330,243.7088979375,244.42221215625,45.0,93.0
1331,244.68715743750002,244.75237473750002,72.0,83.0
1332,244.68715743750002,244.76324428750002,64.0,77.0
1333,244.68715743750002,244.77275514375,69.0,79.0
1334,244.68715743750002,244.78634208125,40.0,87.0
1335,245.01324393750002,245.396395575,40.0,86.0
1336,245.3393304375,245.40590643125,72.0,87.0
1337,245.3393304375,245.429004225,64.0,87.0
1338,245.3393304375,245.4317216125,69.0,85.0
1339,245.6654169375,245.9154165875,45.0,79.0
1340,245.9915034375,246.06894898125,72.0,73.0
1341,245.9915034375,246.07302506250002,69.0,79.0
1342,245.9915034375,246.07438375625,64.0,86.0
1343,246.6436764375,246.71296981875,69.0,79.0
1344,246.6436764375,246.72112198125,62.0,74.0
1345,246.6436764375,246.72791545,65.0,85.0
1346,246.3175899375,247.01324113750002,50.0,98.0
1347,247.2958494375,247.37465367500002,62.0,74.0
1348,247.2958494375,247.37465367500002,69.0,87.0
1349,247.2958494375,247.38416453125,65.0,85.0
1350,247.2958494375,247.396392775,45.0,85.0
1351,247.94802243750001,248.01731581875,69.0,83.0
1352,247.94802243750001,248.0213919,62.0,73.0
1353,247.94802243750001,248.0295440625,65.0,83.0
1354,247.6219359375,248.081174425,45.0,85.0
1355,248.60019543750002,248.66405404375,69.0,74.0
1356,248.60019543750002,248.689869225,62.0,71.0
1357,248.60019543750002,248.689869225,65.0,86.0
1358,248.60019543750002,248.70209746875,45.0,72.0
1359,249.2523684375,249.32437920625,62.0,74.0
1360,249.2523684375,249.3257379,69.0,86.0
1361,249.2523684375,249.33796614375,65.0,77.0
1362,248.92628193750002,249.55943322500002,50.0,79.0
1363,249.9045414375,249.96296526875,69.0,63.0
1364,249.9045414375,249.97926959375002,62.0,59.0
1365,249.9045414375,249.99285653125,65.0,72.0
1366,249.9045414375,250.02003040625002,50.0,73.0
1367,250.5567144375,250.61921435000002,69.0,87.0
1368,250.5567144375,250.6273665125,62.0,76.0
1369,250.5567144375,250.63551867500001,65.0,90.0
1370,250.2306279375,250.70481205625,50.0,85.0
1371,250.8828009375,251.26731126875,50.0,93.0
1372,251.5349739375,251.60426731875,64.0,67.0
1373,251.5349739375,251.61513686875,68.0,71.0
1374,251.5349739375,251.61513686875,71.0,79.0
1375,251.5349739375,251.63008250000001,52.0,95.0
1376,251.86106043750002,251.9425820625,64.0,74.0
1377,251.86106043750002,251.94665814375,71.0,86.0
1378,251.86106043750002,251.95616900000002,68.0,77.0
1379,251.86106043750002,251.96567985625,52.0,98.0
1380,252.18714693750002,252.26730986875,64.0,72.0
1381,252.18714693750002,252.26730986875,71.0,83.0
1382,252.18714693750002,252.28089680625,68.0,77.0
1383,252.18714693750002,252.29448374375002,52.0,95.0
1384,252.51323343750002,252.58796159375,64.0,68.0
1385,252.51323343750002,252.59747245,71.0,83.0
1386,252.51323343750002,252.60970069375,68.0,76.0
1387,252.51323343750002,252.6327984875,52.0,100.0
1388,252.83931993750002,252.91676548125,64.0,68.0
1389,252.83931993750002,252.91948286875,71.0,85.0
1390,252.83931993750002,252.93306980625002,68.0,76.0
1391,252.83931993750002,252.94665674375,52.0,98.0
1392,253.1654064375,253.24285198125,64.0,69.0
1393,253.1654064375,253.24692806250002,71.0,83.0
1394,253.1654064375,253.25643891875,68.0,77.0
1395,253.1654064375,253.27138455000002,52.0,104.0
1396,253.4914929375,253.56350370625,64.0,71.0
1397,253.4914929375,253.56893848125,71.0,85.0
1398,253.4914929375,253.58252541875,68.0,76.0
1399,253.4914929375,253.60290582500002,52.0,104.0
1400,253.8175794375,253.8882315125,64.0,69.0
1401,253.8175794375,253.89502498125,71.0,85.0
1402,253.8175794375,253.90317714375,68.0,75.0
1403,253.8175794375,253.92355755,52.0,104.0
1404,254.1436659375,255.96567425625,71.0,104.0
1405,254.1436659375,255.96975033750002,64.0,93.0
1406,254.1436659375,255.97382641875,68.0,98.0
1407,254.1436659375,256.50371698125,52.0,89.0
1408,258.7088769375,259.15181110000003,64.0,72.0
1409,258.7088769375,259.1653980375,71.0,69.0
1410,258.7088769375,259.1708328125,68.0,69.0
1411,259.6871364375,259.75371243125,76.0,81.0
1412,259.6871364375,259.76186459375003,69.0,79.0
1413,259.6871364375,259.7632232875,72.0,86.0
1414,259.3610499375,260.05805983125003,45.0,69.0
1415,259.3610499375,260.05805983125003,57.0,69.0
1416,260.3393094375,260.4208310625,69.0,74.0
1417,260.3393094375,260.42490714375003,76.0,76.0
1418,260.3393094375,260.42762453125,72.0,79.0
1419,260.3393094375,260.46838534375,40.0,85.0
1420,260.3393094375,260.46838534375,52.0,85.0
1421,260.9914824375,261.06077581875,76.0,81.0
1422,260.9914824375,261.07028667500003,72.0,85.0
1423,260.9914824375,261.07708014375,69.0,81.0
1424,260.6653959375,261.3610471375,40.0,83.0
1425,260.6653959375,261.3610471375,52.0,83.0
1426,261.6436554375,261.77544873125004,40.0,81.0
1427,261.6436554375,261.77544873125004,52.0,81.0
1428,261.6436554375,261.93033981875,76.0,83.0
1429,261.6436554375,261.94528545000003,72.0,87.0
1430,261.6436554375,261.94664414375,69.0,87.0
1431,262.2958284375,262.36104573750004,76.0,77.0
1432,262.2958284375,262.374632675,72.0,81.0
1433,262.2958284375,262.3827848375,69.0,83.0
1434,261.96974193750003,262.7577843125,45.0,89.0
1435,261.96974193750003,262.7577843125,57.0,89.0
1436,262.9480014375,263.0213709,76.0,93.0
1437,262.9480014375,263.03359914375,69.0,86.0
1438,262.9480014375,263.03495783750003,72.0,90.0
1439,262.9480014375,263.0675664875,40.0,86.0
1440,262.9480014375,263.0675664875,52.0,86.0
1441,263.6001744375,263.68441345,76.0,90.0
1442,263.6001744375,263.695283,72.0,93.0
1443,263.6001744375,263.70615255,69.0,90.0
1444,263.2740879375,263.93577179375,40.0,85.0
1445,263.2740879375,263.93577179375,52.0,85.0
1446,263.9262609375,264.26729306875,45.0,90.0
1447,263.9262609375,264.26729306875,57.0,90.0
1448,264.2523474375,264.34066253125,76.0,87.0
1449,264.2523474375,264.35017338750004,69.0,85.0
1450,264.2523474375,264.35153208125,72.0,86.0
1451,264.2523474375,264.3827820375,40.0,72.0
1452,264.2523474375,264.3827820375,52.0,72.0
1453,264.9045204375,264.97109643125003,67.0,100.0
1454,264.9045204375,264.97924859375,60.0,83.0
1455,264.9045204375,264.9860420625,64.0,90.0
1456,264.5784339375,265.30805248125,48.0,95.0
1457,265.55669343750003,265.62870420625,67.0,98.0
1458,265.55669343750003,265.63413898125003,60.0,81.0
1459,265.55669343750003,265.64093245000004,64.0,98.0
1460,265.55669343750003,265.68712803750003,43.0,85.0
1461,266.20886643750003,266.26729026875,67.0,93.0
1462,266.20886643750003,266.27815981875,60.0,69.0
1463,266.20886643750003,266.29174675625,64.0,93.0
1464,265.8827799375,266.559409425,43.0,85.0
1465,266.8610394375,266.9860392625,67.0,98.0
1466,266.8610394375,267.02272399375,64.0,95.0
1467,266.8610394375,267.0295174625,60.0,85.0
1468,266.8610394375,267.0512565625,43.0,83.0
1469,267.5132124375,267.58794059375003,67.0,86.0
1470,267.5132124375,267.59337536875,60.0,72.0
1471,267.5132124375,267.59881014375003,64.0,85.0
1472,267.1871259375,268.037668225,48.0,90.0
1473,268.1653854375,268.23332012500003,67.0,104.0
1474,268.1653854375,268.24283098125,64.0,108.0
1475,268.1653854375,268.24554836875,60.0,93.0
1476,268.1653854375,268.2958200375,43.0,93.0
1477,268.8175584375,268.8936452875,67.0,100.0
1478,268.8175584375,268.8990800625,64.0,98.0
1479,268.8175584375,268.90859091875,60.0,87.0
1480,268.4914719375,269.14228624375,43.0,81.0
1481,269.4697314375,269.56076391875,67.0,100.0
1482,269.4697314375,269.57027477500003,60.0,85.0
1483,269.4697314375,269.5784269375,64.0,98.0
1484,269.1436449375,269.8691874,48.0,95.0
1485,270.1219044375,270.19799128750003,64.0,74.0
1486,270.1219044375,270.20614345,72.0,77.0
1487,270.1219044375,270.211578225,69.0,74.0
1488,269.79581793750003,270.49282783125,45.0,98.0
1489,270.7740774375,270.842012125,72.0,85.0
1490,270.7740774375,270.852881675,64.0,87.0
1491,270.7740774375,270.85967514375,69.0,87.0
1492,270.7740774375,270.92217505625,40.0,95.0
1493,271.4262504375,271.50097859375,72.0,90.0
1494,271.4262504375,271.5023372875,64.0,90.0
1495,271.4262504375,271.50641336875003,69.0,83.0
1496,271.1001639375,271.84608680625,40.0,95.0
1497,272.0784234375,272.22787975,40.0,90.0
1498,272.0784234375,272.39771646875,72.0,95.0
1499,272.0784234375,272.40043385625,64.0,87.0
1500,272.0784234375,272.40043385625,69.0,85.0
1501,272.7305964375,272.8121180625,72.0,90.0
1502,272.7305964375,272.8175528375,64.0,81.0
1503,272.7305964375,272.81891153125,69.0,79.0
1504,272.4045099375,273.15315019375004,45.0,95.0
1505,273.38276943750003,273.4697258375,72.0,83.0
1506,273.38276943750003,273.472443225,69.0,81.0
1507,273.38276943750003,273.47651930625,64.0,83.0
1508,273.38276943750003,273.505051875,40.0,83.0
1509,274.03494243750004,274.1218988375,72.0,93.0
1510,274.03494243750004,274.124616225,69.0,87.0
1511,274.03494243750004,274.13140969375,64.0,93.0
1512,273.7088559375,274.43303970625,40.0,86.0
1513,274.6871154375,274.77543053125004,69.0,87.0
1514,274.6871154375,274.77543053125004,72.0,87.0
1515,274.6871154375,274.8121152625,64.0,98.0
1516,274.6871154375,274.83657175,40.0,79.0
1517,275.3392884375,275.4153752875,64.0,83.0
1518,275.3392884375,275.41673398125,72.0,86.0
1519,275.3392884375,275.42760353125,69.0,83.0
1520,275.0132019375,275.75912480625,45.0,98.0
1521,275.9914614375,276.05939612500003,60.0,64.0
1522,275.9914614375,276.0621135125,69.0,72.0
1523,275.9914614375,276.0621135125,69.0,81.0
1524,275.9914614375,276.06347220625,64.0,75.0
1525,275.9914614375,276.06347220625,64.0,77.0
1526,275.9914614375,276.06890698125,72.0,86.0
1527,275.9914614375,276.12597211875,40.0,76.0
1528,276.6436344375,276.74281908125,64.0,86.0
1529,276.6436344375,276.75097124375003,60.0,75.0
1530,276.6436344375,276.7523299375,69.0,75.0
1531,277.2958074375,277.36102473750003,60.0,63.0
1532,277.2958074375,277.37053559375,64.0,85.0
1533,277.2958074375,277.3718942875,69.0,74.0
1534,276.9697209375,277.39499208125,45.0,74.0
1535,277.62189393750003,277.67216560625,60.0,47.0
1536,277.62189393750003,277.6952634,69.0,62.0
1537,277.62189393750003,277.69933948125004,64.0,63.0
1538,277.9479804375,278.02814336875,69.0,77.0
1539,277.9479804375,278.03357814375,64.0,90.0
1540,277.9479804375,278.03629553125,60.0,74.0
1541,278.27406693750004,278.6218925375,45.0,86.0
1542,278.6001534375,278.67216420625,60.0,64.0
1543,278.6001534375,278.6816750625,64.0,86.0
1544,278.6001534375,278.68303375625,69.0,74.0
1545,279.2523264375,279.4914565375,64.0,90.0
1546,279.2523264375,279.4968913125,69.0,85.0
1547,279.2523264375,279.5023260875,60.0,75.0
1548,279.5784129375,279.87324948125,45.0,90.0
1549,279.9044994375,279.96292326875,60.0,61.0
1550,279.9044994375,279.96835804375,69.0,85.0
1551,279.9044994375,279.972434125,64.0,90.0
1552,280.5566724375,280.62324843125003,76.0,81.0
1553,280.5566724375,280.63140059375,69.0,79.0
1554,280.5566724375,280.6327592875,72.0,86.0
1555,280.2305859375,280.92759583125,45.0,69.0
1556,280.2305859375,280.92759583125,57.0,69.0
1557,281.20884543750003,281.2903670625,69.0,74.0
1558,281.20884543750003,281.29444314375,76.0,76.0
1559,281.20884543750003,281.29716053125003,72.0,79.0
1560,281.20884543750003,281.33792134375,40.0,85.0
1561,281.20884543750003,281.33792134375,52.0,85.0
1562,281.86101843750004,281.93031181875,76.0,81.0
1563,281.86101843750004,281.939822675,72.0,85.0
1564,281.86101843750004,281.94661614375,69.0,81.0
1565,281.5349319375,282.2305831375,40.0,83.0
1566,281.5349319375,282.2305831375,52.0,83.0
1567,282.5131914375,282.64498473125,40.0,81.0
1568,282.5131914375,282.64498473125,52.0,81.0
1569,282.5131914375,282.79987581875,76.0,83.0
1570,282.5131914375,282.81482145,72.0,87.0
1571,282.5131914375,282.81618014375,69.0,87.0
1572,283.1653644375,283.2305817375,76.0,77.0
1573,283.1653644375,283.244168675,72.0,81.0
1574,283.1653644375,283.2523208375,69.0,83.0
1575,282.8392779375,283.6273203125,45.0,98.0
1576,282.8392779375,283.6273203125,57.0,98.0
1577,283.8175374375,283.8909069,76.0,93.0
1578,283.8175374375,283.90313514375003,69.0,86.0
1579,283.8175374375,283.9044938375,72.0,90.0
1580,283.8175374375,283.9371024875,40.0,86.0
1581,283.8175374375,283.9371024875,52.0,86.0
1582,284.4697104375,284.55394945,76.0,90.0
1583,284.4697104375,284.564819,72.0,93.0
1584,284.4697104375,284.57568855,69.0,90.0
1585,284.1436239375,284.80530779375,40.0,85.0
1586,284.1436239375,284.80530779375,52.0,85.0
1587,284.79579693750003,285.13682906875,45.0,90.0
1588,284.79579693750003,285.13682906875,57.0,90.0
1589,285.1218834375,285.21019853125,76.0,87.0
1590,285.1218834375,285.2197093875,69.0,85.0
1591,285.1218834375,285.22106808125,72.0,86.0
1592,285.1218834375,285.2523180375,40.0,72.0
1593,285.1218834375,285.2523180375,52.0,72.0
1594,285.7740564375,285.84063243125,67.0,100.0
1595,285.7740564375,285.84878459375,60.0,83.0
1596,285.7740564375,285.8555780625,64.0,90.0
1597,285.44796993750003,286.17758848125,48.0,80.0
1598,286.4262294375,286.49824020625,67.0,98.0
1599,286.4262294375,286.50367498125,60.0,81.0
1600,286.4262294375,286.51046845,64.0,98.0
1601,286.4262294375,286.5566640375,43.0,85.0
1602,287.0784024375,287.13682626875,67.0,93.0
1603,287.0784024375,287.14769581875004,60.0,69.0
1604,287.0784024375,287.16128275625,64.0,93.0
1605,286.7523159375,287.428945425,43.0,85.0
1606,287.7305754375,287.8555752625,67.0,98.0
1607,287.7305754375,287.89225999375003,64.0,95.0
1608,287.7305754375,287.89905346250004,60.0,85.0
1609,287.7305754375,287.9207925625,43.0,83.0
1610,288.3827484375,288.45747659375,67.0,86.0
1611,288.3827484375,288.46291136875,60.0,72.0
1612,288.3827484375,288.46834614375,64.0,85.0
1613,288.0566619375,288.907204225,48.0,91.0
1614,289.03492143750003,289.102856125,67.0,104.0
1615,289.03492143750003,289.11236698125003,64.0,108.0
1616,289.03492143750003,289.11508436875,60.0,93.0
1617,289.03492143750003,289.16535603750003,43.0,93.0
1618,289.68709443750004,289.7631812875,67.0,100.0
1619,289.68709443750004,289.76861606250003,64.0,98.0
1620,289.68709443750004,289.77812691875,60.0,87.0
1621,289.3610079375,290.01182224375003,43.0,81.0
1622,290.3392674375,290.43029991875,67.0,100.0
1623,290.3392674375,290.439810775,60.0,85.0
1624,290.3392674375,290.4479629375,64.0,98.0
1625,290.0131809375,290.7387234,48.0,95.0
1626,290.9914404375,291.0675272875,64.0,74.0
1627,290.9914404375,291.07567945,72.0,77.0
1628,290.9914404375,291.081114225,69.0,74.0
1629,290.6653539375,291.36236383125004,57.0,98.0
1630,291.6436134375,291.71154812500004,72.0,85.0
1631,291.6436134375,291.72241767500003,64.0,87.0
1632,291.6436134375,291.72921114375004,69.0,87.0
1633,291.6436134375,291.79171105625,52.0,95.0
1634,292.2957864375,292.37051459375,72.0,90.0
1635,292.2957864375,292.3718732875,64.0,90.0
1636,292.2957864375,292.37594936875,69.0,83.0
1637,291.9696999375,292.71562280625,52.0,95.0
1638,292.9479594375,293.09741575000004,52.0,90.0
1639,292.9479594375,293.26725246875003,72.0,95.0
1640,292.9479594375,293.26996985625,64.0,87.0
1641,292.9479594375,293.26996985625,69.0,85.0
1642,293.6001324375,293.6816540625,72.0,90.0
1643,293.6001324375,293.6870888375,64.0,81.0
1644,293.6001324375,293.68844753125,69.0,79.0
1645,293.27404593750003,294.02268619375,57.0,95.0
1646,294.2523054375,294.33926183750003,72.0,83.0
1647,294.2523054375,294.341979225,69.0,81.0
1648,294.2523054375,294.34605530625004,64.0,83.0
1649,294.2523054375,294.37458787500003,52.0,83.0
1650,294.9044784375,294.99143483750004,72.0,93.0
1651,294.9044784375,294.994152225,69.0,87.0
1652,294.9044784375,295.00094569375,64.0,93.0
1653,294.5783919375,295.30257570625,52.0,86.0
1654,295.5566514375,295.64496653125,69.0,87.0
1655,295.5566514375,295.64496653125,72.0,87.0
1656,295.5566514375,295.6816512625,64.0,98.0
1657,295.5566514375,295.70610775,52.0,79.0
1658,296.2088244375,296.2849112875,64.0,83.0
1659,296.2088244375,296.28626998125003,72.0,86.0
1660,296.2088244375,296.29713953125,69.0,83.0
1661,295.8827379375,296.62866080625,57.0,98.0
1662,296.86099743750003,296.93844298125003,72.0,86.0
1663,296.86099743750003,296.94387775625,64.0,77.0
1664,296.86099743750003,296.95202991875,69.0,81.0
1665,296.86099743750003,296.99550811875,52.0,76.0
1666,297.51317043750004,297.57974643125,72.0,70.0
1667,297.51317043750004,297.5892572875,64.0,69.0
1668,297.51317043750004,297.59061598125004,69.0,71.0
1669,297.1870839375,297.60420291875,45.0,61.0
1670,298.1653434375,298.49822340625,69.0,65.0
1671,298.1653434375,298.505016875,72.0,72.0
1672,298.1653434375,298.5213212,64.0,72.0
1673,298.8175164375,298.8772989625,72.0,67.0
1674,298.8175164375,298.8908859,64.0,64.0
1675,298.8175164375,298.8936032875,69.0,70.0
1676,298.4914299375,299.01045095,45.0,81.0
1677,299.4696894375,299.8066454875,69.0,76.0
1678,299.4696894375,299.8120802625,72.0,81.0
1679,299.4696894375,299.81343895625,64.0,75.0
1680,300.1218624375,300.19387320625003,72.0,86.0
1681,300.1218624375,300.19930798125,64.0,76.0
1682,300.1218624375,300.20202536875,69.0,83.0
1683,299.7957759375,300.23735140625,45.0,74.0
1684,300.7740354375,301.09061108125,72.0,77.0
1685,300.7740354375,301.09604585625,69.0,74.0
1686,300.7740354375,301.10419801875,64.0,71.0
1687,301.10012193750003,301.74550146875004,45.0,85.0
1688,301.7522949375,301.8283817875,72.0,81.0
1689,301.7522949375,301.831099175,64.0,75.0
1690,301.7522949375,301.83517525625,69.0,75.0
1691,302.7305544375,302.79441304375,72.0,69.0
1692,302.7305544375,302.79984781875004,64.0,69.0
1693,302.7305544375,302.80392390000003,69.0,68.0
1694,303.3827274375,306.42756013125,72.0,69.0
1695,303.3827274375,306.45745139375003,64.0,64.0
1696,303.3827274375,306.46016878125,69.0,65.0
1697,303.3827274375,306.54440779375,45.0,56.0
1698,306.80663568750003,307.3066349875,62.0,52.0
1699,306.6435924375,307.7848951875,43.0,65.0
1700,307.7848951875,312.65309489375,45.0,72.0
1701,307.7848951875,312.72102958125004,64.0,52.0
1702,308.1109816875,312.83651855,72.0,47.0
1703,307.9479384375,312.8392359375,69.0,61.0
1704,314.1870601375,314.7577115125,67.0,63.0
1705,313.722386875,314.78624408125,64.0,54.0
1706,313.10961599375,315.928905525,57.0,51.0
1707,313.12999640000004,315.93841638125,60.0,64.0
1708,313.1734746,315.99276413125,45.0,59.0
1709,314.65580948125,316.49140473750003,72.0,53.0
