,start,end,pitch,velocity
0,15.480444983333335,15.584272270833335,77.0,107.0
1,15.724744483333335,15.930363229166668,77.0,99.0
2,15.969043983333336,16.1787343875,75.0,97.0
3,16.213343483333336,16.351779866666668,73.0,97.0
4,16.457642983333336,16.99306605416667,73.0,117.0
5,16.946241983333334,16.99306605416667,73.0,127.0
6,17.190541483333334,17.27197465,73.0,117.0
7,17.434840983333334,17.71171375,73.0,127.0
8,17.923439983333335,18.070019683333335,75.0,127.0
9,18.167739483333335,18.27563842916667,77.0,102.0
10,18.412038983333336,18.607478583333336,82.0,127.0
11,18.656338483333336,18.790703208333333,80.0,112.0
12,18.900637983333336,19.134758337500003,77.0,90.0
13,19.144937483333337,19.735327941666668,80.0,112.0
14,20.122135483333334,20.323682570833334,77.0,96.0
15,20.366434983333335,20.70031096666667,85.0,122.0
16,20.855033983333335,21.070831875000003,84.0,102.0
17,21.099333483333336,21.31716720416667,82.0,107.0
18,21.343632983333336,21.62254157916667,84.0,112.0
19,21.832231983333337,22.015456608333334,82.0,127.0
20,22.076531483333337,22.19053791666667,80.0,93.0
21,22.320830983333334,22.5427363625,82.0,122.0
22,22.565130483333334,22.734104304166667,80.0,97.0
23,22.809429983333334,22.915293100000003,77.0,93.0
24,23.053729483333335,23.53418516666667,77.0,102.0
25,24.275226983333337,24.476774070833336,75.0,127.0
26,24.519526483333337,24.6925719625,77.0,82.0
27,24.763825983333337,25.014232970833337,75.0,112.0
28,25.008125483333338,25.23613835,73.0,102.0
29,25.252424983333334,26.009753433333337,73.0,117.0
30,26.229622983333336,26.396560975000003,75.0,127.0
31,26.473922483333336,26.712114495833337,77.0,88.0
32,26.718221983333336,26.954378166666668,75.0,112.0
33,26.962521483333337,27.233286762500004,73.0,95.0
34,27.206820983333337,27.81553390416667,75.0,112.0
35,28.184018983333335,28.434425970833335,75.0,127.0
36,28.672617983333335,28.819197683333336,75.0,127.0
37,28.916917483333336,29.081819645833335,73.0,100.0
38,29.161216983333336,29.429946433333335,70.0,102.0
39,29.405516483333336,29.967405333333335,80.0,127.0
40,30.138414983333337,31.01585735416667,75.0,127.0
41,31.115612983333335,31.339554191666668,75.0,122.0
42,31.359912483333336,31.630677762500003,77.0,90.0
43,31.604211983333336,31.836296508333337,75.0,107.0
44,31.848511483333336,31.960482087500004,73.0,96.0
45,32.09281098333334,32.528478425,73.0,100.0
46,32.58140998333334,32.67709395416667,73.0,112.0
47,32.825709483333334,32.92953677083334,73.0,95.0
48,33.07000898333334,33.29395019166667,73.0,112.0
49,33.55860798333334,33.77644170416667,75.0,112.0
50,33.802907483333335,33.939308037500005,77.0,96.0
51,34.04720698333334,34.260969045833335,82.0,127.0
52,34.291506483333336,34.49305357083334,80.0,112.0
53,34.53580598333334,34.67424236666667,77.0,82.0
54,34.78010548333334,35.15876970833334,80.0,122.0
55,35.75730348333334,35.95070725416667,77.0,95.0
56,36.001602983333335,36.35583725833334,85.0,112.0
57,36.490201983333336,36.697856558333335,84.0,117.0
58,36.73450148333334,36.925869425,82.0,117.0
59,36.978800983333336,37.22717214166667,84.0,117.0
60,37.46739998333334,37.66691124166667,82.0,127.0
61,37.711699483333334,37.811455112500006,80.0,95.0
62,37.95599898333334,38.196226825000004,82.0,122.0
63,38.200298483333334,38.40184557083334,80.0,112.0
64,38.44459798333334,38.544353612500004,77.0,89.0
65,38.688897483333335,39.09606331666667,77.0,99.0
66,39.91039498333334,40.05697468333334,75.0,122.0
67,40.15469448333334,40.46006885833334,77.0,78.0
68,40.398993983333334,40.68604589583334,75.0,112.0
69,40.64329348333334,40.84280474166667,73.0,97.0
70,40.887592983333334,41.49223424583334,73.0,122.0
71,41.864790983333336,42.064302241666674,75.0,122.0
72,42.10909048333334,42.225132745833335,77.0,78.0
73,42.35338998333334,42.495898025,75.0,122.0
74,42.59768948333334,42.68523013750001,73.0,92.0
75,42.84198898333334,43.48123934166667,75.0,122.0
76,43.81918698333334,44.09198809166667,75.0,122.0
77,44.30778598333334,44.44011487916667,75.0,127.0
78,44.552085483333336,44.69052186666667,77.0,97.0
79,44.79638498333334,44.89206895416667,75.0,127.0
80,45.04068448333334,45.146547600000005,77.0,99.0
81,45.28498398333334,45.45395780416667,75.0,127.0
82,45.52928348333334,45.761368008333335,73.0,100.0
83,45.77358298333334,46.526839775000006,75.0,112.0
84,46.750780983333335,46.90957565833334,75.0,127.0
85,46.99508048333334,47.1314810375,73.0,112.0
86,47.239379983333336,47.51218109166667,70.0,96.0
87,47.48367948333334,48.198255520833335,75.0,122.0
88,48.21657798333334,50.20761890833334,73.0,122.0
89,51.39247148333334,51.63066349583334,77.0,96.0
90,51.636770983333335,51.93400204166667,82.0,127.0
91,52.125369983333336,52.30655877916667,82.0,122.0
92,52.36966948333334,52.481640087500004,80.0,96.0
93,52.613968983333336,52.919343358333336,82.0,122.0
94,53.59116698333334,53.920971308333336,77.0,127.0
95,54.07976598333334,54.23245317083334,77.0,112.0
96,54.324065483333335,54.41974945416667,75.0,127.0
97,54.56836498333334,55.097680566666675,77.0,117.0
98,55.54556298333334,55.81225660416667,75.0,117.0
99,56.03416198333334,56.2377449,75.0,127.0
100,56.27846148333334,56.47797274166667,73.0,122.0
101,56.52276098333334,56.88310274583334,70.0,112.0
102,57.011359983333335,57.359486770833335,77.0,122.0
103,57.499958983333336,57.59971461250001,75.0,127.0
104,57.74425848333334,57.99059381250001,75.0,127.0
105,58.23285748333334,58.37740135416667,73.0,122.0
106,58.47715698333334,58.81306879583334,75.0,117.0
107,58.96575598333334,59.11844317083334,77.0,107.0
108,59.21005548333334,59.36274267083334,80.0,112.0
109,59.45435498333334,59.87984327916667,82.0,127.0
110,59.94295398333334,60.10785614583334,82.0,127.0
111,60.187253483333336,60.32568986666667,80.0,102.0
112,60.43155298333334,60.683995800000005,82.0,127.0
113,61.16445148333334,61.35378359583334,85.0,117.0
114,61.40875098333334,61.74262696666667,84.0,122.0
115,61.89734998333334,62.11111204583334,80.0,127.0
116,62.14164948333334,62.35541154583334,77.0,95.0
117,62.38594898333334,62.93969451666667,80.0,127.0
118,62.874547983333336,63.08627421666667,82.0,127.0
119,63.11884748333334,63.269498841666675,85.0,117.0
120,63.36314698333334,63.66241387083334,87.0,122.0
121,63.85174598333334,64.03089895000001,87.0,127.0
122,64.09604548333334,64.2935209125,85.0,127.0
123,64.34034498333334,64.58464448333334,82.0,127.0
124,65.07324348333334,65.28700554583334,89.0,122.0
125,65.31754298333334,65.40304780833334,87.0,117.0
126,65.56184248333334,65.65345479583334,87.0,127.0
127,65.80614198333333,66.01583238750001,87.0,127.0
128,66.05044148333334,66.23366610833334,85.0,100.0
129,66.29474098333334,66.68154852500001,82.0,127.0
130,66.78333998333333,67.12535928333334,85.0,127.0
131,67.27193898333334,68.74995095833334,87.0,127.0
132,70.20353298333335,70.41525921666667,80.0,127.0
133,70.44783248333334,70.69416781250001,82.0,107.0
134,70.69213198333334,70.87535660833333,80.0,99.0
135,70.93643148333334,71.11762027916667,82.0,112.0
136,71.18073098333333,71.67340164166667,85.0,117.0
137,71.66932998333334,71.67340164166667,85.0,127.0
138,71.91362948333334,72.07853164583334,82.0,100.0
139,72.15792898333333,72.36354772916667,85.0,112.0
140,72.64652798333334,72.75646275833334,89.0,127.0
141,72.89082748333334,73.64815593333334,89.0,127.0
142,74.11232498333334,74.30572875416668,80.0,112.0
143,74.35662448333333,74.48895337916667,82.0,117.0
144,74.60092398333335,74.75361117083334,85.0,122.0
145,74.84522348333334,75.00198232916668,82.0,107.0
146,75.08952298333334,75.5190829375,87.0,112.0
147,75.57812198333335,75.78374072916668,87.0,127.0
148,75.82242148333334,75.98325198750001,85.0,117.0
149,76.06672098333334,76.33341460416668,82.0,127.0
150,76.31102048333334,77.00116657083333,89.0,112.0
151,77.04391898333334,77.57527039583334,87.0,117.0
152,78.50971598333334,78.65018819583334,85.0,127.0
153,78.75401548333335,78.8659860875,87.0,107.0
154,78.99831498333334,79.24465031250001,89.0,112.0
155,79.48691398333334,79.65995946250001,89.0,112.0
156,79.73121348333333,80.06712529583334,87.0,127.0
157,80.21981248333334,80.37249967083334,85.0,122.0
158,80.46411198333334,80.60254836666668,82.0,127.0
159,80.70841148333334,80.85499118333334,80.0,107.0
160,80.95271098333335,81.2601211875,82.0,127.0
161,81.44130998333334,81.80368757500001,89.0,112.0
162,81.92990898333335,82.35946893750001,87.0,127.0
163,82.41850798333334,82.81142301250001,85.0,122.0
164,82.90710698333334,83.38959849583334,80.0,122.0
165,84.12860448333335,84.3505098625,77.0,85.0
166,84.37290398333334,84.60906016666668,82.0,127.0
167,84.61720348333334,85.12819660416667,80.0,107.0
168,85.83870098333334,86.05042721666668,80.0,127.0
169,86.08300048333334,86.3293358125,82.0,107.0
170,86.32729998333335,86.51052460833334,80.0,99.0
171,86.57159948333334,86.75278827916668,82.0,112.0
172,86.81589898333334,87.30856964166668,85.0,117.0
173,87.30449798333335,87.30856964166668,85.0,127.0
174,87.54879748333335,87.71369964583334,82.0,100.0
175,87.79309698333334,87.99871572916668,85.0,112.0
176,88.28169598333334,88.39163075833333,89.0,127.0
177,88.52599548333335,89.28332393333334,89.0,127.0
178,89.74749298333334,89.94089675416667,80.0,112.0
179,89.99179248333334,90.12412137916668,82.0,117.0
180,90.23609198333334,90.38877917083335,85.0,122.0
181,90.48039148333334,90.63715032916667,82.0,107.0
182,90.72469098333335,91.15425093750001,87.0,112.0
183,91.21328998333334,91.41890872916667,87.0,127.0
184,91.45758948333334,91.6184199875,85.0,117.0
185,91.70188898333335,91.96858260416667,82.0,127.0
186,91.94618848333334,92.63633457083334,89.0,112.0
187,92.67908698333335,93.21043839583334,87.0,117.0
188,94.14488398333334,94.28535619583334,85.0,127.0
189,94.38918348333334,94.50115408750001,87.0,107.0
190,94.63348298333334,94.8798183125,89.0,112.0
191,95.12208198333335,95.2951274625,89.0,112.0
192,95.36638148333334,95.70229329583334,87.0,127.0
193,95.85498048333335,96.00766767083334,85.0,122.0
194,96.09927998333335,96.23771636666667,82.0,127.0
195,96.34357948333334,96.49015918333335,80.0,107.0
196,96.58787898333334,96.89528918750001,82.0,127.0
197,97.07647798333335,97.438855575,89.0,112.0
198,97.56507698333334,97.9946369375,87.0,127.0
199,98.05367598333335,98.44659101250001,85.0,122.0
200,98.54227498333334,100.38266455000002,87.0,127.0
201,101.47386898333335,101.66523692500002,87.0,122.0
202,101.71816848333334,101.94210969166667,85.0,107.0
203,101.96246798333334,102.10090436666668,82.0,96.0
204,102.20676748333334,102.92948683750001,87.0,122.0
205,102.93966598333334,105.50073907500001,85.0,127.0
206,121.75072748333335,121.98891949583334,77.0,96.0
207,121.99502698333335,122.29225804166668,82.0,127.0
208,122.48362598333334,122.66481477916668,82.0,122.0
209,122.72792548333335,122.83989608750001,80.0,96.0
210,122.97222498333335,123.27759935833335,82.0,122.0
211,123.94942298333335,124.27922730833335,77.0,127.0
212,124.43802198333334,124.59070917083335,77.0,112.0
213,124.68232148333334,124.77800545416667,75.0,127.0
214,124.92662098333335,125.45593656666668,77.0,117.0
215,125.90381898333335,126.17051260416667,75.0,117.0
216,126.39241798333335,126.5960009,75.0,127.0
217,126.63671748333334,126.83622874166667,73.0,122.0
218,126.88101698333334,127.24135874583335,70.0,112.0
219,127.36961598333335,127.71774277083334,77.0,122.0
220,127.85821498333334,127.9579706125,75.0,127.0
221,128.10251448333335,128.34884981250002,75.0,127.0
222,128.59111348333334,128.73565735416668,73.0,122.0
223,128.83541298333336,129.17132479583336,75.0,117.0
224,129.32401198333335,129.47669917083334,77.0,107.0
225,129.56831148333333,129.72099867083335,80.0,112.0
226,129.81261098333334,130.23809927916668,82.0,127.0
227,130.30120998333334,130.46611214583334,82.0,127.0
228,130.54550948333335,130.68394586666668,80.0,102.0
229,130.78980898333336,131.0422518,82.0,127.0
230,131.52270748333333,131.71203959583335,85.0,117.0
231,131.76700698333335,132.1008829666667,84.0,122.0
232,132.25560598333334,132.46936804583333,80.0,127.0
233,132.49990548333335,132.71366754583335,77.0,95.0
234,132.74420498333333,133.29795051666667,80.0,127.0
235,133.23280398333335,133.4445302166667,82.0,127.0
236,133.47710348333334,133.62775484166667,85.0,117.0
237,133.72140298333335,134.02066987083336,87.0,122.0
238,134.21000198333334,134.38915495,87.0,127.0
239,134.45430148333335,134.65177691250003,85.0,127.0
240,134.69860098333334,134.94290048333335,82.0,127.0
241,135.43149948333334,135.64526154583334,89.0,122.0
242,135.67579898333335,135.76130380833334,87.0,117.0
243,135.92009848333333,136.01171079583335,87.0,127.0
244,136.16439798333334,136.37408838750002,87.0,127.0
245,136.40869748333336,136.59192210833334,85.0,100.0
246,136.65299698333334,137.03980452500002,82.0,127.0
247,137.14159598333336,137.48361528333334,85.0,127.0
248,137.63019498333335,139.10820695833334,87.0,127.0
249,140.56178898333334,140.77351521666668,80.0,127.0
250,140.80608848333335,141.05242381250002,82.0,107.0
251,141.05038798333334,141.23361260833335,80.0,99.0
252,141.29468748333335,141.47587627916667,82.0,112.0
253,141.53898698333336,142.03165764166667,85.0,117.0
254,142.02758598333335,142.03165764166667,85.0,127.0
255,142.27188548333334,142.43678764583333,82.0,100.0
256,142.51618498333335,142.72180372916668,85.0,112.0
257,143.00478398333334,143.11471875833334,89.0,127.0
258,143.24908348333335,144.00641193333334,89.0,127.0
259,144.47058098333335,144.66398475416668,80.0,112.0
260,144.71488048333336,144.84720937916669,82.0,117.0
261,144.95917998333334,145.11186717083334,85.0,122.0
262,145.20347948333335,145.3602383291667,82.0,107.0
263,145.44777898333334,145.8773389375,87.0,112.0
264,145.93637798333336,146.1419967291667,87.0,127.0
265,146.18067748333334,146.34150798750002,85.0,117.0
266,146.42497698333335,146.6916706041667,82.0,127.0
267,146.66927648333333,147.35942257083335,89.0,112.0
268,147.40217498333334,147.93352639583335,87.0,117.0
269,148.86797198333335,149.00844419583333,85.0,127.0
270,149.11227148333336,149.22424208750002,87.0,107.0
271,149.35657098333334,149.6029063125,89.0,112.0
272,149.84516998333334,150.01821546250002,89.0,112.0
273,150.08946948333335,150.42538129583335,87.0,127.0
274,150.57806848333334,150.73075567083336,85.0,122.0
275,150.82236798333335,150.96080436666668,82.0,127.0
276,151.06666748333336,151.21324718333335,80.0,107.0
277,151.31096698333334,151.61837718750002,82.0,127.0
278,151.79956598333334,152.161943575,89.0,112.0
279,152.28816498333336,152.7177249375,87.0,127.0
280,152.77676398333335,153.1696790125,85.0,122.0
281,153.26536298333335,153.74785449583334,80.0,122.0
282,154.48686048333334,154.7087658625,77.0,85.0
283,154.73115998333336,154.96731616666668,82.0,127.0
284,154.97545948333334,155.4864526041667,80.0,107.0
285,156.19695698333334,156.40868321666667,80.0,127.0
286,156.44125648333335,156.68759181250002,82.0,107.0
287,156.68555598333336,156.86878060833334,80.0,99.0
288,156.92985548333334,157.1110442791667,82.0,112.0
289,157.17415498333335,157.6668256416667,85.0,117.0
290,157.66275398333335,157.6668256416667,85.0,127.0
291,157.90705348333336,158.07195564583336,82.0,100.0
292,158.15135298333334,158.35697172916667,85.0,112.0
293,158.63995198333336,158.74988675833336,89.0,127.0
294,158.88425148333334,159.64157993333336,89.0,127.0
295,160.10574898333334,160.29915275416667,80.0,112.0
296,160.35004848333335,160.48237737916668,82.0,117.0
297,160.59434798333334,160.74703517083336,85.0,122.0
298,160.83864748333335,160.99540632916668,82.0,107.0
299,161.08294698333336,161.5125069375,87.0,112.0
300,161.57154598333335,161.77716472916669,87.0,127.0
301,161.81584548333336,161.97667598750002,85.0,117.0
302,162.06014498333334,162.32683860416668,82.0,127.0
303,162.30444448333336,162.99459057083334,89.0,112.0
304,163.03734298333336,163.56869439583335,87.0,117.0
305,164.50313998333334,164.64361219583336,85.0,127.0
306,164.74743948333335,164.8594100875,87.0,107.0
307,164.99173898333336,165.2380743125,89.0,112.0
308,165.48033798333336,165.65338346250002,89.0,112.0
309,165.72463748333334,166.06054929583334,87.0,127.0
310,166.21323648333336,166.36592367083335,85.0,122.0
311,166.45753598333334,166.59597236666667,82.0,127.0
312,166.70183548333335,166.84841518333334,80.0,107.0
313,166.94613498333334,167.2535451875,82.0,127.0
314,167.43473398333336,167.797111575,89.0,112.0
315,167.92333298333335,168.35289293750003,87.0,127.0
316,168.41193198333335,168.8048470125,85.0,122.0
317,168.90053098333334,170.74092055000003,87.0,127.0
318,171.83212498333336,172.02349292500003,87.0,122.0
319,172.07642448333334,172.30036569166668,85.0,107.0
320,172.32072398333335,172.45916036666668,82.0,96.0
321,172.56502348333336,173.28774283750002,87.0,122.0
322,173.29792198333334,174.76371898333335,85.0,127.0
323,175.74091698333336,175.95264321666667,80.0,127.0
324,175.98521648333335,176.23155181250002,82.0,107.0
325,176.22951598333336,176.41274060833334,80.0,99.0
326,176.47381548333334,176.6550042791667,82.0,112.0
327,176.71811498333335,177.2107856416667,85.0,117.0
328,177.20671398333334,177.2107856416667,85.0,127.0
329,177.45101348333336,177.61591564583335,82.0,100.0
330,177.69531298333334,177.90093172916667,85.0,112.0
331,178.18391198333336,178.29384675833336,89.0,127.0
332,178.42821148333334,179.18553993333336,89.0,127.0
333,179.64970898333334,179.8431127541667,80.0,112.0
334,179.89400848333335,180.02633737916668,82.0,117.0
335,180.13830798333336,180.29099517083336,85.0,122.0
336,180.38260748333335,180.53936632916668,82.0,107.0
337,180.62690698333336,181.0564669375,87.0,112.0
338,181.11550598333335,181.32112472916668,87.0,127.0
339,181.35980548333336,181.52063598750001,85.0,117.0
340,181.60410498333334,181.87079860416668,82.0,127.0
341,181.84840448333335,182.53855057083334,89.0,112.0
342,182.58130298333336,183.11265439583335,87.0,117.0
343,184.04709998333334,184.18757219583335,85.0,127.0
344,184.29139948333335,184.4033700875,87.0,107.0
345,184.53569898333336,184.78203431250003,89.0,112.0
346,185.02429798333335,185.19734346250002,89.0,112.0
347,185.26859748333334,185.60450929583334,87.0,127.0
348,185.75719648333336,185.90988367083335,85.0,122.0
349,186.00149598333334,186.1399323666667,82.0,127.0
350,186.24579548333335,186.39237518333334,80.0,107.0
351,186.49009498333336,186.7975051875,82.0,127.0
352,186.97869398333336,187.34107157500003,89.0,112.0
353,187.46729298333335,187.89685293750003,87.0,127.0
354,187.95589198333334,188.34880701250003,85.0,122.0
355,188.44449098333334,188.92698249583336,80.0,122.0
356,189.66598848333336,189.88789386250002,77.0,85.0
357,189.91028798333335,190.1464441666667,82.0,127.0
358,190.15458748333336,190.66558060416668,80.0,107.0
359,191.37608498333336,191.5878112166667,80.0,127.0
360,191.62038448333334,191.8667198125,82.0,107.0
361,191.86468398333335,192.04790860833336,80.0,99.0
362,192.10898348333336,192.29017227916668,82.0,112.0
363,192.35328298333334,192.84595364166668,85.0,117.0
364,192.84188198333337,192.84595364166668,85.0,127.0
365,193.08618148333335,193.25108364583335,82.0,100.0
366,193.33048098333336,193.5360997291667,85.0,112.0
367,193.81907998333335,193.92901475833335,89.0,127.0
368,194.06337948333336,194.82070793333335,89.0,127.0
369,195.28487698333336,195.4782807541667,80.0,112.0
370,195.52917648333334,195.6615053791667,82.0,117.0
371,195.77347598333336,195.92616317083335,85.0,122.0
372,196.01777548333334,196.17453432916668,82.0,107.0
373,196.26207498333335,196.69163493750003,87.0,112.0
374,196.75067398333334,196.95629272916668,87.0,127.0
375,196.99497348333335,197.1558039875,85.0,117.0
376,197.23927298333336,197.50596660416667,82.0,127.0
377,197.48357248333335,198.17371857083336,89.0,112.0
378,198.21647098333335,198.74782239583334,87.0,117.0
379,199.68226798333336,199.82274019583335,85.0,127.0
380,199.92656748333334,200.03853808750003,87.0,107.0
381,200.17086698333335,200.41720231250002,89.0,112.0
382,200.65946598333335,200.8325114625,89.0,112.0
383,200.90376548333336,201.23967729583336,87.0,127.0
384,201.39236448333335,201.54505167083335,85.0,122.0
385,201.63666398333336,201.7751003666667,82.0,127.0
386,201.88096348333335,202.02754318333336,80.0,107.0
387,202.12526298333336,202.43267318750003,82.0,127.0
388,202.61386198333335,202.97623957500002,89.0,112.0
389,203.10246098333334,203.53202093750002,87.0,127.0
390,203.59105998333337,203.98397501250003,85.0,122.0
391,204.07965898333336,205.92004855000002,87.0,127.0
392,207.01125298333335,207.20262092500002,87.0,122.0
393,207.25555248333336,207.47949369166668,85.0,107.0
394,207.49985198333334,207.6382883666667,82.0,96.0
395,207.74415148333335,208.4668708375,87.0,122.0
396,208.47704998333336,209.94284698333334,85.0,127.0
