,start,end,pitch,velocity
0,31.285599375,31.8084628125,68.0,89.0
1,31.885299375000002,32.0989425,68.0,89.0
2,32.185149375,32.4044146875,68.0,91.0
3,32.484999375,32.709886875,70.0,88.0
4,32.784849375,33.017233125000004,71.0,88.0
5,33.084699375,34.628926875000005,75.0,86.0
6,34.883799375,35.356063125,73.0,94.0
7,35.483499375,35.6577871875,73.0,93.0
8,35.783349375,35.9388965625,73.0,94.0
9,36.083199375,36.323079375,73.0,94.0
10,36.383049375,37.003364062500005,71.0,98.0
11,36.982749375000004,38.3039634375,68.0,88.0
12,38.481999375,38.673153750000004,66.0,88.0
13,38.781849375,38.9823740625,66.0,89.0
14,39.081699375,39.2859721875,66.0,89.0
15,39.381549375,39.5633334375,66.0,87.0
16,39.681399375000005,39.8744278125,66.0,83.0
17,39.981249375000004,40.1948925,68.0,88.0
18,40.281099375000004,40.824577500000004,70.0,85.0
19,40.880799375,41.6772759375,68.0,89.0
20,41.780349375,42.0483403125,66.0,87.0
21,42.080199375,44.709509062500004,63.0,78.0
22,45.678399375000005,46.201262812500005,68.0,89.0
23,46.278099375000004,46.4917425,68.0,89.0
24,46.577949375,46.7972146875,68.0,91.0
25,46.877799375,47.102686875,70.0,88.0
26,47.177649375,47.410033125000005,71.0,88.0
27,47.477499375,49.021726875,75.0,86.0
28,49.276599375,49.748863125,73.0,94.0
29,49.876299375,50.0505871875,73.0,93.0
30,50.176149375,50.3316965625,73.0,94.0
31,50.475999375,50.715879375,73.0,94.0
32,50.775849375,51.105684375,71.0,98.0
33,51.0663290625,52.387543125,73.0,88.0
34,52.874799375,53.065953750000006,66.0,88.0
35,53.174649375,53.3751740625,66.0,89.0
36,53.474499375,53.6787721875,66.0,89.0
37,53.774349375,53.9561334375,66.0,87.0
38,54.074199375,54.2672278125,68.0,83.0
39,54.374049375000006,54.5876925,70.0,88.0
40,54.673899375000005,55.217377500000005,70.0,85.0
41,55.273599375,56.0700759375,66.0,89.0
42,56.173149375,56.4411403125,70.0,87.0
43,56.472999375,59.102309062500005,68.0,78.0
44,60.071199375,60.286716562500004,73.0,89.0
45,60.371049375000005,60.569700000000005,73.0,93.0
46,60.670899375000005,60.880794375,73.0,96.0
47,60.970749375000004,61.1637778125,73.0,93.0
48,61.270599375,61.510479375,73.0,98.0
49,61.570831250000005,61.93120845833334,71.0,96.0
50,61.87271791666667,63.319887125,68.0,88.0
51,63.68403791666667,63.87837745833334,66.0,89.0
52,63.985924583333336,64.20479241666668,66.0,88.0
53,64.28781125,64.49347154166666,66.0,88.0
54,64.58969791666667,64.81988650000001,66.0,91.0
55,64.89158458333334,65.13875429166667,68.0,91.0
56,65.19347125,65.47460320833333,70.0,87.0
57,65.49535791666668,67.226111175,68.0,91.0
58,67.29914485,67.48828334166667,73.0,92.0
59,67.59877018333333,67.80850791666667,73.0,93.0
60,67.89839551666667,68.10626059166667,73.0,98.0
61,68.19802085,68.39652263333333,73.0,98.0
62,68.49764618333333,68.72798315833333,73.0,98.0
63,68.79727151666667,69.01449988333333,71.0,91.0
64,69.09689685,70.48828199166667,73.0,94.0
65,70.89464885,71.091277975,78.0,87.0
66,71.19427418333333,71.38903065,78.0,89.0
67,71.49389951666667,71.686783325,78.0,91.0
68,71.79352485,72.01449853333334,78.0,93.0
69,72.09315018333334,72.31786918333333,75.0,89.0
70,72.39277551666666,72.62873046666667,73.0,94.0
71,72.69240085,76.52110863333333,75.0,91.0
72,77.18827488333332,77.41316238333333,75.0,101.0
73,77.48812488333333,77.68677550833333,78.0,91.0
74,77.78797488333333,78.00724019583333,80.0,89.0
75,78.08782488333333,78.78685019583332,80.0,92.0
76,78.98737488333333,79.22912894583332,75.0,96.0
77,79.28722488333332,79.48962363333332,78.0,89.0
78,79.58707488333333,79.78572550833333,80.0,89.0
79,79.88692488333332,80.61780925833332,80.0,89.0
80,80.78647488333333,80.98137738333332,75.0,96.0
81,81.08632488333333,81.31683457083332,78.0,92.0
82,81.38617488333333,81.61668457083333,80.0,89.0
83,81.68602488333333,81.94651957083333,78.0,96.0
84,81.98587488333332,82.18452550833332,75.0,92.0
85,82.28572488333333,82.54247144583333,73.0,98.0
86,82.58557488333332,84.23849800833332,75.0,90.0
87,84.38467488333333,84.60768832083333,68.0,90.0
88,84.68452488333332,84.90004207083332,71.0,93.0
89,84.98437488333333,85.18864769583332,73.0,91.0
90,85.28422488333332,86.07507925833333,73.0,98.0
91,86.18377488333333,86.42552894583332,68.0,91.0
92,86.48362488333333,86.67665332083332,71.0,91.0
93,86.78347488333333,86.98587363333333,73.0,94.0
94,87.08332488333333,87.84044613333333,73.0,94.0
95,87.98287488333332,88.24899175833333,73.0,94.0
96,88.28272488333333,88.53010113333333,71.0,91.0
97,88.58257488333332,88.82995113333332,73.0,94.0
98,88.88242488333333,89.12230488333333,78.0,91.0
99,89.18227488333332,89.45026582083332,75.0,91.0
100,89.48212488333333,89.74636769583333,73.0,92.0
101,89.78197488333333,91.46300894583332,75.0,89.0
102,91.58107488333333,91.83219925833333,75.0,91.0
103,91.88092488333334,92.08894582083333,78.0,89.0
104,92.18077488333333,92.37192925833332,80.0,89.0
105,92.48062488333332,93.36330832083333,80.0,92.0
106,93.38017488333332,93.61255863333332,75.0,96.0
107,93.68002488333333,93.87867550833333,78.0,91.0
108,93.97987488333332,94.18789582083333,80.0,89.0
109,94.27972488333333,95.15491207083333,80.0,88.0
110,95.17927488333333,95.40228832083332,75.0,89.0
111,95.47912488333333,95.67777550833333,78.0,93.0
112,95.77897488333333,96.03384738333332,80.0,91.0
113,96.07882488333333,96.44239300833333,78.0,96.0
114,96.37867488333333,96.61480675833333,75.0,91.0
115,96.67852488333332,96.90341238333333,73.0,98.0
116,96.97837488333333,98.60506113333332,75.0,90.0
117,98.77747488333333,99.01735488333333,68.0,93.0
118,99.07732488333333,99.27597550833333,71.0,92.0
119,99.37717488333332,99.57582550833332,73.0,91.0
120,99.67702488333333,100.52222707083332,73.0,94.0
121,100.57657488333334,100.80895863333333,68.0,93.0
122,100.87642488333333,101.07320144583333,71.0,91.0
123,101.17627488333332,101.38054769583333,75.0,94.0
124,101.47612488333333,102.25198675833333,73.0,101.0
125,102.37567488333333,102.60618457083334,73.0,94.0
126,102.67552488333332,102.86293113333333,71.0,94.0
127,102.97537488333333,103.16840332083333,73.0,94.0
128,103.27522488333332,103.73811832083334,75.0,96.0
129,103.87492488333334,104.13354550833333,78.0,91.0
130,104.17477488333333,104.73511957083333,66.0,89.0
131,104.77447488333333,107.09081613333333,68.0,87.0
132,136.60685349791666,137.12971693541667,68.0,89.0
133,137.20655349791667,137.42019662291665,68.0,89.0
134,137.50640349791666,137.72566881041666,68.0,91.0
135,137.80625349791666,138.03114099791665,70.0,88.0
136,138.10610349791665,138.33848724791667,71.0,88.0
137,138.40595349791667,139.95018099791668,75.0,86.0
138,140.20505349791665,140.67731724791668,73.0,94.0
139,140.80475349791666,140.97904131041668,73.0,93.0
140,141.10460349791666,141.26015068541668,73.0,94.0
141,141.40445349791668,141.64433349791668,73.0,94.0
142,141.70430349791667,142.03413849791667,71.0,98.0
143,141.99478318541665,143.31599724791667,73.0,88.0
144,143.80325349791667,143.99440787291667,66.0,88.0
145,144.10310349791666,144.30362818541667,66.0,89.0
146,144.40295349791666,144.60722631041665,66.0,89.0
147,144.70280349791668,144.88458756041666,66.0,87.0
148,145.00265349791667,145.19568193541667,68.0,83.0
149,145.30250349791666,145.51614662291666,70.0,88.0
150,145.60235349791665,146.14583162291666,70.0,85.0
151,146.20205349791667,146.99853006041667,66.0,89.0
152,147.10160349791667,147.36959443541667,70.0,87.0
153,147.40145349791666,150.03076318541667,68.0,78.0
154,150.99965349791665,151.21517068541667,73.0,89.0
155,151.29950349791667,151.49815412291667,73.0,93.0
156,151.59935349791667,151.80924849791666,73.0,96.0
157,151.89920349791666,152.09223193541666,73.0,93.0
158,152.19905349791668,152.43893349791665,73.0,98.0
159,152.49890349791667,152.85684943541668,71.0,96.0
160,152.79875349791666,154.23615943541665,68.0,88.0
161,154.59785349791667,154.79088193541668,66.0,89.0
162,154.89770349791667,155.11509474791666,66.0,88.0
163,155.19755349791666,155.40182631041665,66.0,88.0
164,155.49740349791665,155.72603912291666,66.0,91.0
165,155.79725349791667,156.04275568541667,68.0,91.0
166,156.09710349791666,156.37633881041666,70.0,87.0
167,156.39695349791666,158.12296506041667,68.0,91.0
168,158.19605349791667,158.38533381041665,73.0,92.0
169,158.49590349791666,158.70579849791667,73.0,93.0
170,158.79575349791668,159.00377443541666,73.0,98.0
171,159.09560349791667,159.29425412291667,73.0,98.0
172,159.39545349791666,159.62596318541665,73.0,98.0
173,159.69530349791665,159.91269474791667,71.0,91.0
174,159.99515349791668,161.38758193541668,73.0,94.0
175,161.79425349791666,161.99103006041668,78.0,87.0
176,162.09410349791665,162.28900599791666,78.0,89.0
177,162.39395349791667,162.58698193541667,78.0,91.0
178,162.69380349791666,162.91494287291667,78.0,93.0
179,162.99365349791668,163.21854099791665,75.0,89.0
180,163.29350349791667,163.52963537291666,73.0,94.0
181,163.59335349791667,167.42393724791665,75.0,91.0
182,168.09110349791666,168.31599099791666,75.0,101.0
183,168.39095349791666,168.58960412291665,78.0,91.0
184,168.69080349791665,168.91006881041667,80.0,89.0
185,168.99065349791667,169.68967881041667,80.0,92.0
186,169.89020349791667,170.13195756041665,75.0,96.0
187,170.19005349791667,170.39245224791665,78.0,89.0
188,170.48990349791666,170.68855412291666,80.0,89.0
189,170.78975349791665,171.52063787291667,80.0,89.0
190,171.68930349791665,171.88420599791667,75.0,96.0
191,171.98915349791667,172.21966318541666,78.0,92.0
192,172.28900349791667,172.51951318541666,80.0,89.0
193,172.58885349791666,172.84934818541666,78.0,96.0
194,172.88870349791665,173.08735412291668,75.0,92.0
195,173.18855349791667,173.44530006041666,73.0,98.0
196,173.48840349791666,175.14132662291667,75.0,90.0
197,175.28750349791667,175.51051693541666,68.0,90.0
198,175.58735349791667,175.80287068541668,71.0,93.0
199,175.88720349791666,176.09147631041668,73.0,91.0
200,176.18705349791668,176.97790787291666,73.0,98.0
201,177.08660349791666,177.32835756041666,68.0,91.0
202,177.38645349791665,177.57948193541665,71.0,91.0
203,177.68630349791667,177.88870224791665,73.0,94.0
204,177.98615349791666,178.74327474791667,73.0,94.0
205,178.88570349791667,179.15182037291666,73.0,94.0
206,179.18555349791666,179.43292974791666,71.0,91.0
207,179.48540349791665,179.73277974791665,73.0,94.0
208,179.78525349791667,180.02513349791667,78.0,91.0
209,180.08510349791666,180.35309443541666,75.0,91.0
210,180.38495349791665,180.64919631041667,73.0,92.0
211,180.68480349791668,182.36583756041665,75.0,89.0
212,182.48390349791666,182.73502787291667,75.0,91.0
213,182.78375349791668,182.99177443541666,78.0,89.0
214,183.08360349791667,183.27475787291667,80.0,89.0
215,183.38345349791666,184.26613693541668,80.0,92.0
216,184.28300349791667,184.51538724791666,75.0,96.0
217,184.58285349791666,184.78150412291666,78.0,91.0
218,184.88270349791668,185.09072443541666,80.0,89.0
219,185.18255349791667,186.05774068541666,80.0,88.0
220,186.08210349791665,186.30511693541666,75.0,89.0
221,186.38195349791667,186.58060412291667,78.0,93.0
222,186.68180349791666,186.93667599791667,80.0,91.0
223,186.98165349791668,187.34522162291665,78.0,96.0
224,187.28150349791667,187.51763537291666,75.0,91.0
225,187.58135349791667,187.80624099791666,73.0,98.0
226,187.88120349791666,189.50788974791666,75.0,90.0
227,189.68030349791667,189.92018349791667,68.0,93.0
228,189.98015349791666,190.17880412291666,71.0,92.0
229,190.28000349791665,190.47865412291668,73.0,91.0
230,190.57985349791667,191.42505568541668,73.0,94.0
231,191.47940349791668,191.71178724791667,68.0,93.0
232,191.77925349791667,191.97603006041666,71.0,91.0
233,192.07910349791666,192.28337631041666,75.0,94.0
234,192.37895349791665,193.1548153729167,73.0,101.0
235,193.27850349791666,193.50901318541668,73.0,94.0
236,193.57835349791668,193.76575974791666,71.0,94.0
237,193.87820349791667,194.07123193541668,73.0,94.0
238,194.17805349791666,194.64094693541665,75.0,96.0
239,194.77775349791665,195.03637412291667,78.0,91.0
240,195.07760349791667,195.63794818541666,66.0,89.0
241,195.67730349791668,197.77625349791668,68.0,87.0
242,197.77625349791668,198.00114099791665,75.0,101.0
243,198.07610349791668,198.27475412291665,78.0,91.0
244,198.37595349791667,198.59521881041667,80.0,89.0
245,198.67580349791666,199.37482881041666,80.0,92.0
246,199.57535349791667,199.81710756041667,75.0,96.0
247,199.8752034979167,200.07760224791667,78.0,89.0
248,200.17505349791668,200.37370412291665,80.0,89.0
249,200.47490349791667,201.2057878729167,80.0,89.0
250,201.37445349791665,201.56935599791666,75.0,96.0
251,201.67430349791667,201.90481318541669,78.0,92.0
252,201.97415349791666,202.20466318541668,80.0,89.0
253,202.27400349791668,202.53449818541668,78.0,96.0
254,202.57385349791667,202.77250412291667,75.0,92.0
255,202.87370349791667,203.13045006041665,73.0,98.0
256,203.17355349791666,204.8264766229167,75.0,90.0
257,204.97265349791667,205.19566693541668,68.0,90.0
258,205.27250349791666,205.48802068541667,71.0,93.0
259,205.57235349791665,205.77662631041665,73.0,91.0
260,205.87220349791667,206.66305787291668,73.0,98.0
261,206.77175349791668,207.01350756041666,68.0,91.0
262,207.07160349791667,207.26463193541667,71.0,91.0
263,207.37145349791666,207.57385224791665,73.0,94.0
264,207.67130349791665,208.42842474791667,73.0,94.0
265,208.5708534979167,208.83697037291665,73.0,94.0
266,208.87070349791668,209.11807974791668,71.0,91.0
267,209.17055349791667,209.41792974791667,73.0,94.0
268,209.47040349791666,209.71028349791666,78.0,91.0
269,209.77025349791666,210.0382444354167,75.0,91.0
270,210.07010349791665,210.33434631041666,73.0,92.0
271,210.36995349791667,212.05098756041667,75.0,89.0
272,212.16905349791665,212.42017787291667,75.0,91.0
273,212.46890349791667,212.67692443541665,78.0,89.0
274,212.76875349791666,212.9599078729167,80.0,89.0
275,213.06860349791668,213.95128693541665,80.0,92.0
276,213.96815349791666,214.20053724791666,75.0,96.0
277,214.26800349791665,214.46665412291668,78.0,91.0
278,214.56785349791667,214.77587443541665,80.0,89.0
279,214.86770349791666,215.74289068541668,80.0,88.0
280,215.76725349791667,215.99026693541668,75.0,89.0
281,216.06710349791666,216.26575412291666,78.0,93.0
282,216.36695349791665,216.6218259979167,80.0,91.0
283,216.66680349791665,217.03037162291668,78.0,96.0
284,216.96665349791667,217.20278537291665,75.0,91.0
285,217.2665034979167,217.49139099791665,73.0,98.0
286,217.56635349791668,219.19303974791666,75.0,90.0
287,219.36545349791666,219.60533349791666,68.0,93.0
288,219.66530349791668,219.86395412291665,71.0,92.0
289,219.96515349791667,220.16380412291667,73.0,91.0
290,220.26500349791667,221.11020568541667,73.0,94.0
291,221.16455349791667,221.39693724791667,68.0,93.0
292,221.46440349791666,221.66118006041665,71.0,91.0
293,221.76425349791668,221.96852631041668,75.0,94.0
294,222.06410349791668,222.83996537291665,73.0,101.0
295,222.96365349791665,223.19416318541667,73.0,94.0
296,223.26350349791667,223.45090974791668,71.0,94.0
297,223.56335349791667,223.75638193541667,73.0,94.0
298,223.8632034979167,224.32609693541667,75.0,96.0
299,224.46290349791667,224.72152412291666,78.0,91.0
300,224.76275349791666,225.32309818541665,66.0,89.0
301,225.36245349791665,227.46140349791665,68.0,87.0
302,227.5663509979167,228.07797006041665,68.0,94.0
303,228.01987412291666,228.32347224791667,71.0,93.0
304,228.30285756041667,228.53336724791666,73.0,90.0
305,228.62707037291665,229.62781974791665,73.0,91.0
306,229.64656037291667,230.08321693541666,68.0,91.0
307,230.05885412291667,230.35683006041666,71.0,94.0
308,230.35495599791665,230.75600537291666,75.0,92.0
309,230.72414631041667,231.58808912291667,73.0,92.0
310,231.85420599791667,232.43516537291669,73.0,93.0
311,232.44078756041665,232.93741412291666,71.0,87.0
312,232.89618474791666,233.38718912291665,73.0,92.0
313,233.39655943541666,233.99625943541668,75.0,88.0
314,233.95877818541666,236.23576412291666,78.0,89.0
315,237.24213568541666,238.32721787291666,66.0,86.0
316,238.28973662291668,241.64243443541665,68.0,89.0
317,242.71814631041667,245.69977974791666,78.0,87.0
318,246.77736568541667,249.09183287291665,80.0,80.0
