,start,end,pitch,velocity
0,18.238290918750003,18.410959875000003,70.0,80.0
1,18.49252741875,18.722399587500004,70.0,80.0
2,18.746763918750002,20.0486666625,79.0,69.0
3,20.27218291875,20.53489396875,79.0,82.0
4,20.526419418750002,20.78489319375,77.0,82.0
5,20.780655918750004,21.8304408,75.0,84.0
6,22.306074918750003,22.570904606250004,77.0,82.0
7,22.56031141875,22.88446295625,79.0,82.0
8,22.81454791875,23.137640137500004,77.0,84.0
9,23.323020918750004,23.578316737500003,77.0,81.0
10,23.57725741875,25.994622806250003,72.0,80.0
11,26.373858918750003,26.515807631250002,70.0,79.0
12,26.628095418750004,26.856908268750004,70.0,80.0
13,26.88233191875,28.036989356250004,77.0,67.0
14,28.407750918750004,28.637623087500003,77.0,83.0
15,28.66198741875,28.849486837500002,75.0,78.0
16,28.916223918750003,29.786983931250003,74.0,78.0
17,30.441642918750002,30.609015281250002,75.0,80.0
18,30.695879418750003,30.924692268750004,77.0,79.0
19,30.950115918750004,31.479775293750002,75.0,86.0
20,31.458588918750003,31.96706191875,72.0,72.0
21,31.96706191875,34.00095391875001,70.0,76.0
22,34.50942691875,34.63442653125,70.0,82.0
23,34.763663418750006,34.982942400000006,70.0,81.0
24,35.017899918750004,35.61747433125,79.0,70.0
25,35.780609418750004,35.978702025000004,79.0,80.0
26,36.03484591875,36.504124125000004,79.0,74.0
27,36.54331891875,37.0528512375,77.0,78.0
28,37.051791918750006,37.83356915625,75.0,82.0
29,38.06873791875,38.45962653750001,79.0,84.0
30,38.577210918750005,38.85898970625001,80.0,80.0
31,38.83144741875,39.0655568625,82.0,84.0
32,39.08568391875001,39.602631468750005,83.0,82.0
33,39.59415691875,39.847334100000005,82.0,81.0
34,39.84839341875001,42.171479437500004,80.0,81.0
35,42.64499491875,42.806011368750006,70.0,82.0
36,42.899231418750006,43.107917212500006,70.0,82.0
37,43.15346791875,44.525285700000005,79.0,81.0
38,44.67888691875,44.84414064375,79.0,81.0
39,44.93312341875001,45.1290973875,79.0,81.0
40,45.187359918750005,45.870620512500004,77.0,81.0
41,46.20430591875,46.70430436875,74.0,84.0
42,46.712778918750004,46.9638374625,75.0,85.0
43,46.96701541875,47.155574156250005,77.0,80.0
44,47.221251918750006,47.62167440625,77.0,86.0
45,47.72972491875,50.07505663125001,75.0,81.0
46,50.272089918750005,50.725478343750005,79.0,81.0
47,50.78056291875001,50.952172556250005,80.0,77.0
48,51.034799418750005,51.20217178125001,82.0,80.0
49,51.28903591875,51.650263612500005,84.0,78.0
50,51.797508918750005,52.30598191875001,84.0,80.0
51,52.30598191875001,52.560218418750004,84.0,81.0
52,52.560218418750004,53.08034392500001,80.0,76.0
53,53.322927918750004,54.11741698125,77.0,80.0
54,54.33987391875001,54.7900843875,80.0,84.0
55,54.84834691875,55.38012493125,84.0,82.0
56,55.356819918750006,56.26147813125001,82.0,83.0
57,56.37376591875,56.828213662500005,82.0,81.0
58,56.882238918750005,57.38859328125,79.0,81.0
59,57.39071191875001,58.566555731250006,75.0,83.0
60,58.91613091875001,59.123757393750004,77.0,86.0
61,59.170367418750004,59.32714659375001,79.0,81.0
62,59.42460391875001,60.01358514375001,80.0,82.0
63,60.18731341875001,60.884345156250006,80.0,81.0
64,60.95002291875001,61.43942818125001,79.0,82.0
65,61.45849591875,61.966968918750005,77.0,80.0
66,61.966968918750005,62.10785831250001,77.0,84.0
67,62.22120541875,62.35679821875001,77.0,84.0
68,62.47544191875001,62.90446601250001,77.0,87.0
69,62.98391491875,63.12056703750001,84.0,82.0
70,63.23815141875001,63.858912206250004,84.0,82.0
71,64.00086091875,66.23602348125,82.0,74.0
72,66.54322591875001,66.93941113125001,79.0,82.0
73,67.05169891875,67.21907128125001,80.0,81.0
74,67.30593541875001,67.53474826875001,82.0,81.0
75,67.56017191875,68.04745854375001,84.0,81.0
76,68.06864491875001,68.18834793750001,84.0,86.0
77,68.32288141875,69.02309111250001,84.0,82.0
78,69.33982741875,69.59406391875001,80.0,80.0
79,69.59406391875001,70.78579751250001,77.0,84.0
80,71.11948291875001,71.59405771875001,79.0,84.0
81,71.62795591875,72.11736118125,84.0,82.0
82,72.13642891875001,72.89913841875001,82.0,80.0
83,72.89913841875001,73.40761141875001,82.0,83.0
84,73.40761141875001,73.91608441875,79.0,78.0
85,73.91608441875,75.01883523750001,75.0,86.0
86,75.18726691875001,75.46586775,77.0,87.0
87,75.44150341875,75.6756128625,79.0,84.0
88,75.69573991875001,76.35781413750001,80.0,81.0
89,76.45844941875,77.23810801875001,80.0,81.0
90,77.22115891875,77.7476403375,79.0,82.0
91,77.72963191875,78.42878229375,77.0,82.0
92,78.49234141875,78.690434025,74.0,79.0
93,78.74657791875,78.92666210625,74.0,76.0
94,79.00081441875001,79.77623574375001,77.0,81.0
95,79.76352391875001,83.39274995625001,75.0,80.0
96,100.10244391875001,101.61832905000001,84.0,87.0
97,101.62786291875001,102.22108141875,87.0,81.0
98,102.13633591875,104.1839990625,77.0,86.0
99,104.17022791875002,105.69564691875001,82.0,82.0
100,105.69564691875001,105.94988341875,82.0,84.0
101,105.94988341875,106.20411991875001,86.0,84.0
102,106.20411991875001,108.23801191875,84.0,80.0
103,108.23801191875,109.46576235,80.0,75.0
104,109.76343091875,110.23588708125001,79.0,84.0
105,110.27190391875001,111.75600948750001,77.0,82.0
106,111.79732291875001,112.01660190000001,75.0,84.0
107,112.05155941875002,112.32380433750001,77.0,86.0
108,112.30579591875001,115.31426116875001,75.0,91.0
109,115.86510691875002,116.03777587500001,70.0,80.0
110,116.11934341875,116.34921558750001,70.0,80.0
111,116.37357991875001,117.67548266250002,79.0,69.0
112,117.89899891875001,118.16170996875002,79.0,82.0
113,118.15323541875001,118.41170919375001,77.0,82.0
114,118.40747191875,119.45725680000001,75.0,84.0
115,119.93289091875002,120.19772060625002,77.0,82.0
116,120.18712741875001,120.51127895625001,79.0,82.0
117,120.44136391875001,120.7644561375,77.0,84.0
118,120.94983691875001,121.20513273750001,77.0,81.0
119,121.20407341875001,123.62143880625001,72.0,80.0
120,124.00067491875001,124.14262363125002,70.0,79.0
121,124.25491141875001,124.48372426875001,70.0,80.0
122,124.50914791875002,125.66380535625001,77.0,67.0
123,126.03456691875002,126.26443908750001,77.0,83.0
124,126.28880341875,126.47630283750001,75.0,78.0
125,126.54303991875001,127.41379993125001,74.0,78.0
126,128.06845891875003,128.23583128125,75.0,80.0
127,128.32269541875002,128.55150826875,77.0,79.0
128,128.57693191875,129.10659129375,75.0,86.0
129,129.08540491875002,129.59387791875002,72.0,72.0
130,129.59387791875002,131.62776991875,70.0,76.0
131,132.13624291875,132.26124253125002,70.0,82.0
132,132.39047941875,132.6097584,70.0,81.0
133,132.64471591875002,133.24429033125,79.0,70.0
134,133.40742541875002,133.605518025,79.0,80.0
135,133.66166191875,134.13094012500002,79.0,74.0
136,134.17013491875002,134.6796672375,77.0,78.0
137,134.67860791875,135.46038515625003,75.0,82.0
138,135.69555391875002,136.0864425375,79.0,84.0
139,136.20402691875,136.48580570625,80.0,80.0
140,136.45826341875002,136.6923728625,82.0,84.0
141,136.71249991875,137.22944746875,83.0,82.0
142,137.22097291875002,137.4741501,82.0,81.0
143,137.47520941875,139.7982954375,80.0,81.0
144,140.27181091875002,140.43282736875003,70.0,82.0
145,140.52604741875,140.7347332125,70.0,82.0
146,140.78028391875,142.1521017,79.0,81.0
147,142.30570291875,142.47095664375001,79.0,81.0
148,142.55993941875002,142.75591338750002,79.0,81.0
149,142.81417591875,143.4974365125,77.0,81.0
150,143.83112191875,144.33112036875002,74.0,84.0
151,144.33959491875,144.5906534625,75.0,85.0
152,144.59383141875003,144.78239015625002,77.0,80.0
153,144.84806791875002,145.24849040625003,77.0,86.0
154,145.35654091875003,147.70187263125,75.0,81.0
155,147.89890591875002,148.35229434375,79.0,81.0
156,148.40737891875003,148.57898855625,80.0,77.0
157,148.66161541875002,148.82898778125002,82.0,80.0
158,148.91585191875,149.27707961250002,84.0,78.0
159,149.42432491875002,149.93279791875003,84.0,80.0
160,149.93279791875003,150.18703441875002,84.0,81.0
161,150.18703441875002,150.707159925,80.0,76.0
162,150.94974391875002,151.74423298125,77.0,80.0
163,151.96668991875,152.41690038750002,80.0,84.0
164,152.47516291875002,153.00694093125003,84.0,82.0
165,152.98363591875002,153.88829413125,82.0,83.0
166,154.00058191875002,154.4550296625,82.0,81.0
167,154.50905491875002,155.01540928125002,79.0,81.0
168,155.01752791875,156.19337173125,75.0,83.0
169,156.54294691875,156.75057339375002,77.0,86.0
170,156.79718341875002,156.95396259375002,79.0,81.0
171,157.05141991875,157.64040114375,80.0,82.0
172,157.81412941875,158.51116115625,80.0,81.0
173,158.57683891875,159.06624418125003,79.0,82.0
174,159.08531191875002,159.59378491875,77.0,80.0
175,159.59378491875,159.7346743125,77.0,84.0
176,159.84802141875002,159.98361421875,77.0,84.0
177,160.10225791875,160.53128201250001,77.0,87.0
178,160.61073091875002,160.74738303750001,84.0,82.0
179,160.86496741875,161.48572820625,84.0,82.0
180,161.62767691875,163.86283948125,82.0,74.0
181,164.17004191875003,164.56622713125,79.0,82.0
182,164.67851491875,164.84588728125001,80.0,81.0
183,164.93275141875003,165.16156426875003,82.0,81.0
184,165.18698791875002,165.67427454375002,84.0,81.0
185,165.69546091875003,165.81516393750002,84.0,86.0
186,165.94969741875002,166.64990711250002,84.0,82.0
187,166.96664341875,167.22087991875003,80.0,80.0
188,167.22087991875003,168.41261351250003,77.0,84.0
189,168.74629891875003,169.22087371875003,79.0,84.0
190,169.25477191875,169.74417718125002,84.0,82.0
191,169.76324491875002,170.52595441875002,82.0,80.0
192,170.52595441875002,171.03442741875003,82.0,83.0
193,171.03442741875003,171.54290041875,79.0,78.0
194,171.54290041875,172.6456512375,75.0,86.0
195,172.81408291875002,173.09268375000002,77.0,87.0
196,173.06831941875,173.30242886250002,79.0,84.0
197,173.32255591875003,173.9846301375,80.0,81.0
198,174.08526541875003,174.86492401875003,80.0,81.0
199,174.84797491875003,175.37445633750002,79.0,82.0
200,175.35644791875,176.05559829375002,77.0,82.0
201,176.11915741875,176.31725002500002,74.0,79.0
202,176.37339391875003,176.55347810625003,74.0,76.0
203,176.62763041875002,177.40305174375,77.0,81.0
204,177.39033991875002,181.01956595625,75.0,80.0
205,181.42210708125,181.84053798750003,77.0,74.0
206,181.74519930000002,182.15409633750002,79.0,80.0
207,182.13714723750002,183.0333309,80.0,80.0
208,183.16892370000002,185.15302771875002,80.0,74.0
209,185.88183901875001,186.76319221875002,79.0,67.0
210,186.7261160625,189.86275888125002,77.0,76.0
211,190.51212127500003,191.06508566250002,74.0,72.0
212,191.164661625,191.68266849375001,74.0,71.0
213,191.68266849375001,194.47503271875001,77.0,79.0
214,195.81401161875002,196.38710306250002,80.0,75.0
215,196.36697600625,200.87014001250003,82.0,74.0
