,start,end,pitch,velocity
0,24.7798229375,25.062493316666664,57.0,112.0
1,25.1207319375,25.302550070833334,64.0,96.0
2,25.4616409375,25.838061291666666,64.0,97.0
3,25.9730044375,26.08237940833333,64.0,82.0
4,26.1434589375,26.411924775,67.0,107.0
5,26.4843679375,26.710220149999998,64.0,97.0
6,26.8252769375,27.197435929166666,64.0,96.0
7,27.5070949375,27.792606225,69.0,102.0
8,27.8480039375,28.150560674999998,57.0,97.0
9,28.1889129375,28.454537866666666,69.0,107.0
10,28.5298219375,28.6832309875,67.0,92.0
11,28.8707309375,29.51277622083333,67.0,112.0
12,29.5525489375,29.896298845833332,64.0,107.0
13,30.2343669375,30.461639604166667,62.0,100.0
14,30.5752759375,30.71874180833333,64.0,97.0
15,30.9161849375,31.247150758333333,67.0,97.0
16,31.2570939375,31.386355266666666,64.0,93.0
17,31.5980029375,32.23862776666667,62.0,100.0
18,32.2798209375,32.447434529166664,60.0,97.0
19,32.9616389375,33.21163887083333,62.0,102.0
20,33.3025479375,33.53124105833333,60.0,89.0
21,33.6434569375,33.8565250625,57.0,93.0
22,34.3252749375,34.423286274999995,57.0,93.0
23,35.6889109375,35.971581316666665,57.0,112.0
24,36.0298199375,36.21163807083333,64.0,96.0
25,36.3707289375,36.747149291666666,64.0,97.0
26,36.8820924375,36.991467408333335,64.0,82.0
27,37.0525469375,37.321012775,67.0,107.0
28,37.3934559375,37.61930815,64.0,97.0
29,37.7343649375,38.10652392916666,64.0,96.0
30,38.4161829375,38.701694225,69.0,102.0
31,38.7570919375,39.059648675,57.0,97.0
32,39.0980009375,39.363625866666666,69.0,107.0
33,39.4389099375,39.5923189875,67.0,92.0
34,39.779818937499996,40.421864220833335,67.0,112.0
35,40.461636937499996,40.80538684583333,64.0,107.0
36,41.143454937499996,41.37072760416667,62.0,100.0
37,41.4843639375,41.62782980833333,64.0,97.0
38,41.825272937499996,42.15623875833333,67.0,97.0
39,42.1661819375,42.295443266666666,64.0,93.0
40,42.507090937499996,43.147715766666664,62.0,100.0
41,43.188908937499995,43.35652252916667,60.0,97.0
42,43.870726937499995,44.20169275833333,62.0,97.0
43,44.2116359375,44.451692691666665,55.0,88.0
44,44.552544937499995,44.90765847916666,62.0,93.0
45,44.8934539375,45.20311294583333,60.0,79.0
46,45.234362937499995,45.94032865833333,57.0,88.0
47,46.5979989375,46.803964791666665,64.0,107.0
48,46.9389079375,47.0752715375,69.0,100.0
49,47.2798169375,47.5908964,69.0,100.0
50,47.791180437499996,47.93890767083333,69.0,99.0
51,47.9616349375,48.093737175,67.0,107.0
52,48.3025439375,48.45737344166667,64.0,90.0
53,48.6434529375,48.877827875,64.0,107.0
54,49.3252709375,49.5468617875,69.0,107.0
55,49.3252709375,49.5468617875,69.0,127.0
56,49.6661799375,49.77413445416666,72.0,112.0
57,50.0070889375,50.255668416666666,69.0,117.0
58,50.3479979375,50.488622899999996,67.0,107.0
59,50.6889069375,50.98152049583333,67.0,117.0
60,51.0298159375,51.15481590416667,69.0,99.0
61,51.3707249375,51.588054424999996,64.0,107.0
62,52.0525429375,52.269872424999996,62.0,100.0
63,52.3934519375,52.494304183333334,64.0,99.0
64,52.7343609375,53.03833812916667,67.0,107.0
65,53.075269937499996,53.15055400833333,64.0,99.0
66,53.4161789375,54.062485583333334,62.0,117.0
67,54.0979969375,54.31816733333333,60.0,97.0
68,54.7798149375,54.97157625,62.0,102.0
69,55.120723937499996,55.20453073333333,60.0,96.0
70,55.4616329375,55.761348766666664,57.0,96.0
71,56.1434509375,56.38918950833333,57.0,100.0
72,57.5070869375,57.74288232916666,64.0,102.0
73,57.847995937499995,57.94884818333333,69.0,102.0
74,58.1889049375,58.49856394583333,69.0,107.0
75,58.7002684375,58.849416125,69.0,93.0
76,58.8707229375,59.0326547125,67.0,102.0
77,59.211631937499995,59.360779625,64.0,99.0
78,59.5525409375,59.75140452083333,64.0,107.0
79,60.2343589375,60.48293841666666,69.0,117.0
80,60.575267937499994,60.659074733333334,72.0,127.0
81,60.9161769375,61.240040487499996,69.0,127.0
82,61.257085937499994,61.34515409583333,67.0,107.0
83,61.5979949375,62.072426629166664,67.0,117.0
84,62.2798129375,62.48719924583333,64.0,112.0
85,62.9616309375,63.18748315,62.0,107.0
86,63.3025399375,63.39913082083333,64.0,95.0
87,63.6434489375,63.946005674999995,67.0,127.0
88,63.9843579375,64.06816473333333,64.0,96.0
89,64.3252669375,64.62214185833334,62.0,99.0
90,64.6661759375,64.8536758875,64.0,93.0
91,64.83663043749999,64.9431645,62.0,99.0
92,65.0070849375,65.30395985833333,60.0,100.0
93,65.6889029375,65.99430058333333,62.0,112.0
94,66.0298119375,66.12640282083333,60.0,107.0
95,66.3707209375,66.59515269583333,57.0,96.0
96,67.0525389375,67.27697069583333,57.0,107.0
97,68.4161749375,70.21020854999999,64.0,127.0
98,70.4616289375,70.74998113333334,62.0,107.0
99,70.80253793749999,71.06816286666667,64.0,100.0
100,71.1434469375,72.85935557083333,69.0,107.0
101,73.1889009375,73.77412805416667,69.0,127.0
102,73.8707189375,75.82952523333333,67.0,127.0
103,76.25708193749999,76.55253640416666,69.0,102.0
104,76.5979909375,76.77838861666666,64.0,88.0
105,76.76844543749999,76.89912722083334,69.0,73.0
106,76.9388999375,78.14770643333333,64.0,88.0
107,78.64344493749999,79.29117203749999,64.0,102.0
108,79.3252629375,80.73435347083333,69.0,122.0
109,81.37071693749999,81.69600094166667,67.0,100.0
110,81.7116259375,82.03690994166666,72.0,102.0
111,82.0525349375,83.258500525,69.0,112.0
112,84.09798893749999,84.64770469999999,72.0,112.0
113,84.7798069375,85.94173844583332,74.0,122.0
114,86.82526093749999,87.32668125833332,72.0,122.0
115,87.5070789375,87.656226625,69.0,107.0
116,87.6775334375,87.80537431249999,72.0,96.0
117,87.8479879375,89.37497616666667,69.0,96.0
118,90.2343509375,90.51702131666666,57.0,112.0
119,90.5752599375,90.75707807083333,64.0,96.0
120,90.91616893749999,91.29258929166666,64.0,97.0
121,91.42753243749999,91.53690740833333,64.0,82.0
122,91.5979869375,91.866452775,67.0,107.0
123,91.93889593749999,92.16474815,64.0,97.0
124,92.2798049375,92.65196392916667,64.0,96.0
125,92.9616229375,93.247134225,69.0,102.0
126,93.30253193749999,93.60508867499999,57.0,97.0
127,93.6434409375,93.90906586666667,69.0,107.0
128,93.9843499375,94.13775898749999,67.0,92.0
129,94.3252589375,94.96730422083333,67.0,112.0
130,95.0070769375,95.35082684583332,64.0,107.0
131,95.6888949375,95.91616760416666,62.0,100.0
132,96.02980393749999,96.17326980833333,64.0,97.0
133,96.3707129375,96.70167875833333,67.0,97.0
134,96.7116219375,96.84088326666667,64.0,93.0
135,97.0525309375,97.69315576666666,62.0,100.0
136,97.7343489375,97.90196252916667,60.0,97.0
137,98.4161669375,98.66616687083332,62.0,102.0
138,98.75707593749999,98.98576905833333,60.0,89.0
139,99.0979849375,99.3110530625,57.0,93.0
140,99.7798029375,99.87781427499999,57.0,93.0
141,101.1434389375,101.42610931666667,57.0,112.0
142,101.48434793749999,101.66616607083333,64.0,96.0
143,101.8252569375,102.20167729166667,64.0,97.0
144,102.3366204375,102.44599540833333,64.0,82.0
145,102.5070749375,102.775540775,67.0,107.0
146,102.84798393749999,103.07383614999999,64.0,97.0
147,103.1888929375,103.56105192916667,64.0,96.0
148,103.8707109375,104.156222225,69.0,102.0
149,104.21161993749999,104.514176675,57.0,97.0
150,104.5525289375,104.81815386666666,69.0,107.0
151,104.8934379375,105.04684698749999,67.0,92.0
152,105.23434693749999,105.87639222083332,67.0,112.0
153,105.9161649375,106.25991484583334,64.0,107.0
154,106.59798293749999,106.82525560416666,62.0,100.0
155,106.93889193749999,107.08235780833333,64.0,97.0
156,107.2798009375,107.61076675833333,67.0,97.0
157,107.6207099375,107.74997126666666,64.0,93.0
158,107.96161893749999,108.60224376666666,62.0,100.0
159,108.6434369375,108.81105052916666,60.0,97.0
160,109.32525493749999,109.65622075833333,62.0,97.0
161,109.6661639375,109.90622069166666,55.0,88.0
162,110.0070729375,110.36218647916667,62.0,93.0
163,110.3479819375,110.65764094583334,60.0,79.0
164,110.68889093749999,111.39485665833332,57.0,88.0
165,112.05252693749999,112.25849279166667,64.0,107.0
166,112.3934359375,112.5297995375,69.0,100.0
167,112.7343449375,113.0454244,69.0,100.0
168,113.2457084375,113.39343567083333,69.0,99.0
169,113.41616293749999,113.548265175,67.0,107.0
170,113.7570719375,113.91190144166666,64.0,90.0
171,114.0979809375,114.33235587499999,64.0,107.0
172,114.77979893749999,115.00138978749999,69.0,107.0
173,114.77979893749999,115.00138978749999,69.0,127.0
174,115.1207079375,115.22866245416667,72.0,112.0
175,115.4616169375,115.71019641666666,69.0,117.0
176,115.8025259375,115.94315089999999,67.0,107.0
177,116.14343493749999,116.43604849583333,67.0,117.0
178,116.4843439375,116.60934390416666,69.0,99.0
179,116.8252529375,117.04258242499999,64.0,107.0
180,117.50707093749999,117.724400425,62.0,100.0
181,117.8479799375,117.94883218333332,64.0,99.0
182,118.1888889375,118.49286612916666,67.0,107.0
183,118.52979793749999,118.60508200833333,64.0,99.0
184,118.87070693749999,119.51701358333332,62.0,117.0
185,119.5525249375,119.77269533333333,60.0,97.0
186,120.23434293749999,120.42610425,62.0,102.0
187,120.5752519375,120.65905873333332,60.0,96.0
188,120.9161609375,121.21587676666667,57.0,96.0
189,121.59797893749999,121.84371750833333,57.0,100.0
190,122.9616149375,123.19741032916666,64.0,102.0
191,123.3025239375,123.40337618333332,69.0,102.0
192,123.6434329375,123.95309194583332,69.0,107.0
193,124.1547964375,124.303944125,69.0,93.0
194,124.3252509375,124.4871827125,67.0,102.0
195,124.6661599375,124.81530762499999,64.0,99.0
196,125.0070689375,125.20593252083333,64.0,107.0
197,125.6888869375,125.93746641666667,69.0,117.0
198,126.0297959375,126.11360273333332,72.0,127.0
199,126.3707049375,126.69456848749999,69.0,127.0
200,126.71161393749999,126.79968209583333,67.0,107.0
201,127.0525229375,127.52695462916667,67.0,117.0
202,127.7343409375,127.94172724583333,64.0,112.0
203,128.4161589375,128.64201115,62.0,107.0
204,128.75706793749998,128.85365882083332,64.0,95.0
205,129.0979769375,129.400533675,67.0,127.0
206,129.4388859375,129.52269273333332,64.0,96.0
207,129.7797949375,130.07666985833333,62.0,99.0
208,130.1207039375,130.30820388749999,64.0,93.0
209,130.2911584375,130.3976925,62.0,99.0
210,130.4616129375,130.75848785833332,60.0,100.0
211,131.1434309375,131.44882858333332,62.0,112.0
212,131.48433993749998,131.58093082083332,60.0,107.0
213,131.8252489375,132.04968069583333,57.0,96.0
214,132.50706693749999,132.73149869583332,57.0,107.0
215,133.8707029375,135.66473655,64.0,127.0
216,135.9161569375,136.20450913333332,62.0,107.0
217,136.2570659375,136.52269086666666,64.0,100.0
218,136.5979749375,138.31388357083333,69.0,107.0
219,138.6434289375,139.22865605416666,69.0,127.0
220,139.3252469375,141.28405323333334,67.0,127.0
221,141.7116099375,142.00706440416667,69.0,102.0
222,142.0525189375,142.23291661666667,64.0,88.0
223,142.2229734375,142.35365522083333,69.0,73.0
224,142.3934279375,143.60223443333334,64.0,88.0
225,144.0979729375,144.7457000375,64.0,102.0
226,144.7797909375,146.18888147083334,69.0,122.0
227,146.8252449375,147.15052894166666,67.0,100.0
228,147.16615393749998,147.49143794166667,72.0,102.0
229,147.5070629375,148.713028525,69.0,112.0
230,149.5525169375,150.1022327,72.0,112.0
231,150.2343349375,151.39626644583333,74.0,122.0
232,152.2797889375,152.78120925833332,72.0,122.0
233,152.9616069375,153.110754625,69.0,107.0
234,153.1320614375,153.2599023125,72.0,96.0
235,153.3025159375,154.82950416666665,69.0,96.0
236,180.2343269375,180.44029279166665,64.0,107.0
237,180.5752359375,180.7115995375,69.0,100.0
238,180.91614493749998,181.22722439999998,69.0,100.0
239,181.4275084375,181.57523567083334,69.0,99.0
240,181.5979629375,181.730065175,67.0,107.0
241,181.93887193749998,182.09370144166667,64.0,90.0
242,182.2797809375,182.514155875,64.0,107.0
243,182.96159893749999,183.1831897875,69.0,107.0
244,182.96159893749999,183.1831897875,69.0,127.0
245,183.3025079375,183.41046245416666,72.0,112.0
246,183.6434169375,183.89199641666667,69.0,117.0
247,183.9843259375,184.1249509,67.0,107.0
248,184.3252349375,184.61784849583333,67.0,117.0
249,184.66614393749998,184.79114390416666,69.0,99.0
250,185.0070529375,185.224382425,64.0,107.0
251,185.68887093749998,185.90620042499998,62.0,100.0
252,186.0297799375,186.13063218333332,64.0,99.0
253,186.3706889375,186.67466612916667,67.0,107.0
254,186.7115979375,186.78688200833332,64.0,99.0
255,187.0525069375,187.69881358333333,62.0,117.0
256,187.7343249375,187.9544953333333,60.0,97.0
257,188.41614293749998,188.60790425,62.0,102.0
258,188.7570519375,188.84085873333333,60.0,96.0
259,189.0979609375,189.39767676666665,57.0,96.0
260,189.7797789375,190.02551750833334,57.0,100.0
261,191.14341493749998,191.37921032916665,64.0,102.0
262,191.4843239375,191.58517618333332,69.0,102.0
263,191.8252329375,192.13489194583332,69.0,107.0
264,192.3365964375,192.485744125,69.0,93.0
265,192.5070509375,192.6689827125,67.0,102.0
266,192.84795993749998,192.99710762499998,64.0,99.0
267,193.1888689375,193.38773252083334,64.0,107.0
268,193.87068693749998,194.11926641666665,69.0,117.0
269,194.2115959375,194.29540273333333,72.0,127.0
270,194.5525049375,194.8763684875,69.0,127.0
271,194.8934139375,194.98148209583331,67.0,107.0
272,195.2343229375,195.70875462916666,67.0,117.0
273,195.9161409375,196.12352724583332,64.0,112.0
274,196.59795893749998,196.82381114999998,62.0,107.0
275,196.9388679375,197.03545882083333,64.0,95.0
276,197.2797769375,197.582333675,67.0,127.0
277,197.62068593749999,197.70449273333332,64.0,96.0
278,197.9615949375,198.2584698583333,62.0,99.0
279,198.3025039375,198.4900038875,64.0,93.0
280,198.47295843749998,198.5794925,62.0,99.0
281,198.6434129375,198.94028785833333,60.0,100.0
282,199.32523093749998,199.63062858333333,62.0,112.0
283,199.6661399375,199.76273082083333,60.0,107.0
284,200.0070489375,200.2314806958333,57.0,96.0
285,200.6888669375,200.91329869583333,57.0,107.0
286,202.05250293749998,202.372105125,62.0,117.0
287,202.3934119375,202.56954825416665,60.0,117.0
288,202.7343209375,202.9303436125,57.0,112.0
289,203.4161389375,203.68034341249998,57.0,127.0
