,start,end,pitch,velocity
0,3.3025559374999998,3.884942145833333,52.0,75.0
1,2.9616469375,3.957385308333333,45.0,89.0
2,3.6434649374999997,4.8409078,64.0,102.0
3,3.9843739375,4.958805495833333,60.0,85.0
4,4.6661919375,5.0582372875,52.0,61.0
5,4.3252829375,5.137782720833333,45.0,64.0
6,5.0071009375,5.751418920833333,64.0,96.0
7,5.3480099375,5.767043916666666,60.0,70.0
8,5.6889189374999996,6.973009504166666,41.0,90.0
9,6.0298279374999995,7.1122140125,48.0,53.0
10,6.370736937499999,7.5980093375,60.0,86.0
11,6.7116459375,7.723009304166666,57.0,66.0
12,7.0525549375,7.9389183375,41.0,82.0
13,7.3934639375,8.031247858333334,48.0,68.0
14,7.7343729375,8.423293208333334,60.0,97.0
15,8.0752819375,8.47158865,57.0,90.0
16,8.7570999375,9.960224616666666,50.0,62.0
17,9.0980089375,10.339485879166666,62.0,96.0
18,9.4389179375,10.3423267875,59.0,82.0
19,8.4161909375,10.730110775,43.0,82.0
20,10.1207359375,10.7599403125,50.0,71.0
21,9.7798269375,11.137781120833333,55.0,85.0
22,10.802553937499999,11.210224283333332,59.0,86.0
23,10.4616449375,11.2116447375,62.0,93.0
24,11.484371937499999,11.991474075,52.0,72.0
25,11.825280937499999,12.590905733333333,57.0,97.0
26,12.166189937499999,12.607951183333332,52.0,89.0
27,11.143462937499999,13.413348695833333,45.0,93.0
28,12.8480079375,13.764200875,52.0,127.0
29,13.5298259375,14.119314416666667,57.0,117.0
30,12.5070989375,14.194598487499999,64.0,107.0
31,13.1889169375,14.340905266666667,60.0,117.0
32,14.2116439375,14.593746108333333,52.0,112.0
33,13.8707349375,15.159086866666666,45.0,107.0
34,14.7230074375,15.211643670833332,52.0,96.0
35,15.0639164375,15.536927675,57.0,93.0
36,14.8934619375,15.759938979166666,60.0,96.0
37,14.5525529375,15.76704125,64.0,127.0
38,15.5752799375,15.960223016666665,52.0,99.0
39,16.086643437499998,16.230109308333333,52.0,93.0
40,15.2343709375,16.245734304166668,45.0,82.0
41,15.9161889375,16.507097870833334,64.0,127.0
42,16.2570979375,16.515620595833333,60.0,102.0
43,16.4275524375,16.65624555833333,57.0,96.0
44,16.9389159375,17.308234020833332,48.0,65.0
45,17.2798249375,17.684654375,60.0,102.0
46,16.5980069375,17.865052054166664,41.0,75.0
47,17.6207339375,17.916188404166665,57.0,89.0
48,17.4502794375,17.955961120833333,48.0,79.0
49,17.7911884375,17.997154291666664,60.0,86.0
50,18.4730064375,18.5923245875,60.0,55.0
51,18.3025519375,18.66476775,53.0,77.0
52,18.8139154375,18.974426758333333,53.0,82.0
53,18.6434609375,19.004256295833333,65.0,93.0
54,17.9616429375,19.14204035,41.0,75.0
55,18.9843699375,19.20027897083333,60.0,95.0
56,18.1320974375,19.24431305,48.0,67.0
57,19.1548244375,19.335222116666667,65.0,92.0
58,19.6661879375,20.001415120833332,55.0,79.0
59,19.8366424375,20.0923241875,59.0,88.0
60,20.1775514375,20.32527867083333,55.0,82.0
61,19.3252789375,20.549710429166666,43.0,76.0
62,19.4957334375,20.670449033333334,50.0,72.0
63,20.0070969375,20.751414920833334,67.0,95.0
64,20.348005937499998,20.7570967375,62.0,89.0
65,20.5184604375,20.759937645833332,59.0,89.0
66,21.029823937499998,21.428971558333334,55.0,78.0
67,21.2002784375,21.4900510875,59.0,76.0
68,21.5411874375,21.7031192125,55.0,89.0
69,20.688914937499998,21.900562341666667,43.0,73.0
70,21.370732937499998,21.990050954166666,67.0,99.0
71,21.711641937499998,22.011357766666666,62.0,96.0
72,20.8593694375,22.017039583333332,50.0,67.0
73,21.8820964375,22.046869120833332,59.0,96.0
74,22.393459937499998,22.6320962375,57.0,77.0
75,22.5639144375,22.7002780375,60.0,88.0
76,22.2230054375,22.818175733333334,52.0,79.0
77,22.052550937499998,23.291186970833333,45.0,82.0
78,22.9048234375,23.3565278625,52.0,72.0
79,23.2457324375,23.427550570833333,57.0,89.0
80,22.734368937499998,23.94885725,64.0,99.0
81,23.075277937499997,24.024141320833333,60.0,95.0
82,23.7570959375,24.339482145833333,52.0,55.0
83,23.416186937499997,24.4133457625,45.0,82.0
84,25.1207319375,25.896299912499998,52.0,69.0
85,24.7798229375,25.901981729166664,45.0,79.0
86,26.1434589375,26.24004982083333,45.0,86.0
87,25.8025499375,26.329538433333333,57.0,63.0
88,25.4616409375,26.528402016666664,60.0,102.0
89,25.4616409375,26.542606558333333,64.0,97.0
90,26.4843679375,27.026981429166664,45.0,90.0
91,26.8252769375,27.546867654166665,60.0,93.0
92,26.8252769375,27.561072195833333,64.0,86.0
93,27.1661859375,27.593742641666665,57.0,74.0
94,27.5070949375,28.678969625,41.0,77.0
95,27.8480039375,28.725844612499998,48.0,61.0
96,28.5298219375,28.867890029166666,53.0,79.0
97,28.1889129375,28.931810466666665,57.0,89.0
98,28.8707309375,28.977265,41.0,88.0
99,28.1889129375,29.038344529166665,60.0,93.0
100,29.2116399375,29.762776154166666,41.0,89.0
101,29.5525489375,30.205957854166666,57.0,90.0
102,29.8934579375,30.228685120833333,53.0,83.0
103,29.5525489375,30.235787391666666,60.0,96.0
104,30.2343669375,31.41760525833333,43.0,76.0
105,30.5752759375,31.455957520833334,50.0,60.0
106,31.2570939375,31.599423391666665,55.0,86.0
107,31.5980029375,31.705957454166665,43.0,85.0
108,30.9161849375,31.728684720833332,59.0,96.0
109,30.9161849375,31.752832441666666,62.0,90.0
110,31.9389119375,32.389195908333335,43.0,99.0
111,32.2798209375,32.960218483333335,59.0,90.0
112,32.6207299375,32.9616389375,55.0,88.0
113,32.2798209375,32.97726393333333,62.0,93.0
114,32.9616389375,34.13635453333333,45.0,69.0
115,33.3025479375,34.188911337499995,52.0,78.0
116,33.9843659375,34.4019794625,57.0,88.0
117,34.3252749375,34.440331725,45.0,92.0
118,33.6434569375,34.68180893333333,60.0,95.0
119,33.6434569375,34.71589983333333,64.0,95.0
120,35.0070929375,35.464479179166666,52.0,73.0
121,34.6661839375,35.636354133333334,45.0,96.0
122,35.0070929375,35.677547304166666,60.0,97.0
123,35.3480019375,35.69601320833333,57.0,96.0
124,35.0070929375,35.69601320833333,64.0,95.0
125,36.0298199375,36.805387912499995,52.0,69.0
126,35.6889109375,36.81106972916667,45.0,79.0
127,37.0525469375,37.14913782083333,45.0,86.0
128,36.7116379375,37.23862643333333,57.0,63.0
129,36.3707289375,37.437490016666665,60.0,102.0
130,36.3707289375,37.45169455833333,64.0,97.0
131,37.3934559375,37.936069429166665,45.0,90.0
132,37.7343649375,38.455955654166665,60.0,93.0
133,37.7343649375,38.47016019583333,64.0,86.0
134,38.0752739375,38.50283064166666,57.0,74.0
135,38.4161829375,39.588057625,41.0,77.0
136,38.7570919375,39.6349326125,48.0,61.0
137,39.4389099375,39.77697802916666,53.0,79.0
138,39.0980009375,39.840898466666665,57.0,89.0
139,39.779818937499996,39.886353,41.0,88.0
140,39.0980009375,39.94743252916666,60.0,93.0
141,40.1207279375,40.67186415416666,41.0,89.0
142,40.461636937499996,41.11504585416667,57.0,90.0
143,40.8025459375,41.13777312083333,53.0,83.0
144,40.461636937499996,41.144875391666666,60.0,96.0
145,41.143454937499996,42.32669325833333,43.0,76.0
146,41.4843639375,42.365045520833334,50.0,60.0
147,42.1661819375,42.508511391666666,55.0,86.0
148,42.507090937499996,42.61504545416666,43.0,85.0
149,41.825272937499996,42.63777272083333,59.0,96.0
150,41.825272937499996,42.661920441666666,62.0,90.0
151,42.8479999375,43.29828390833333,43.0,99.0
152,43.188908937499995,43.86930648333333,59.0,90.0
153,43.5298179375,43.870726937499995,55.0,88.0
154,43.188908937499995,43.88635193333333,62.0,93.0
155,43.870726937499995,45.04544253333333,45.0,69.0
156,44.2116359375,45.0979993375,52.0,78.0
157,44.8934539375,45.3110674625,57.0,88.0
158,45.234362937499995,45.349419725,45.0,92.0
159,44.552544937499995,45.59089693333333,60.0,95.0
160,44.552544937499995,45.62498783333333,64.0,95.0
161,45.916180937499995,46.37356717916666,52.0,73.0
162,45.5752719375,46.54544213333333,45.0,96.0
163,45.916180937499995,46.58663530416666,60.0,97.0
164,46.2570899375,46.60510120833333,57.0,96.0
165,45.916180937499995,46.60510120833333,64.0,95.0
166,47.2798169375,47.71305545833333,57.0,93.0
167,47.2798169375,47.72726,60.0,95.0
168,47.2798169375,47.730100908333334,64.0,90.0
169,46.5979989375,47.8636236,45.0,96.0
170,46.9389079375,47.957373575,52.0,96.0
171,47.9616349375,48.0894758125,45.0,92.0
172,47.791180437499996,48.126407620833334,57.0,99.0
173,47.791180437499996,48.18464624166666,60.0,99.0
174,47.791180437499996,48.22015759583333,64.0,97.0
175,48.3025439375,48.73010064166667,45.0,112.0
176,48.6434529375,48.811066529166666,60.0,107.0
177,48.6434529375,48.818168799999995,64.0,102.0
178,48.8139074375,49.1207255375,45.0,95.0
179,48.9843619375,49.347998204166664,60.0,99.0
180,48.9843619375,49.367884562499995,64.0,95.0
181,49.154816437499996,49.38635046666666,57.0,82.0
182,50.0070889375,50.4502706375,57.0,99.0
183,50.0070889375,50.4502706375,60.0,96.0
184,50.0070889375,50.460213816666666,53.0,92.0
185,49.3252709375,50.590895599999996,41.0,89.0
186,50.518452437499995,50.70027057083333,53.0,89.0
187,50.518452437499995,50.70027057083333,57.0,96.0
188,49.6661799375,50.701691024999995,48.0,59.0
189,50.518452437499995,50.754247829166665,60.0,95.0
190,50.6889069375,50.825270537499996,41.0,89.0
191,51.3707249375,51.507088537499996,57.0,100.0
192,51.3707249375,51.515611262499995,60.0,99.0
193,51.0298159375,51.882088437499995,41.0,100.0
194,51.7116339375,51.96021341666666,53.0,112.0
195,51.882088437499995,52.07384975,57.0,95.0
196,51.5411794375,52.096577016666664,48.0,97.0
197,51.882088437499995,52.097997470833334,60.0,96.0
198,52.7343609375,53.20169035833333,59.0,95.0
199,52.7343609375,53.2031108125,55.0,89.0
200,52.7343609375,53.21021308333333,62.0,92.0
201,52.0525429375,53.326690325,43.0,99.0
202,53.245724437499995,53.357940316666664,55.0,88.0
203,53.245724437499995,53.36362213333333,59.0,95.0
204,52.3934519375,53.410497120833334,50.0,96.0
205,53.245724437499995,53.431803933333335,62.0,90.0
206,53.4161789375,53.55112208333333,43.0,77.0
207,54.0979969375,54.204530999999996,59.0,85.0
208,54.0979969375,54.2258378125,62.0,81.0
209,54.2684514375,54.478678654166664,59.0,48.0
210,54.2684514375,54.541178637499996,62.0,49.0
211,53.757087937499996,54.582371808333335,43.0,99.0
212,54.438905937499996,54.785496754166665,55.0,107.0
213,54.0979969375,54.795439933333334,50.0,96.0
214,54.6093604375,54.79970129583333,59.0,79.0
215,54.6093604375,54.82953083333333,62.0,83.0
216,55.4616329375,55.900553275,60.0,100.0
217,55.4616329375,55.90339418333333,64.0,99.0
218,54.7798149375,56.045439599999995,45.0,107.0
219,55.9729964375,56.10225776666667,57.0,95.0
220,55.120723937499996,56.11646230833333,52.0,83.0
221,55.9729964375,56.147712299999995,60.0,95.0
222,56.1434509375,56.242882729166666,45.0,83.0
223,55.9729964375,56.30396225833333,64.0,88.0
224,56.8252689375,57.207371108333334,60.0,100.0
225,56.9957234375,57.46589376666667,52.0,93.0
226,56.484359937499995,57.481518762499995,45.0,97.0
227,57.166177937499995,57.511348299999995,57.0,117.0
228,57.3366324375,57.512768754166665,60.0,100.0
229,56.8252689375,57.54828010833333,64.0,99.0
230,58.1889049375,58.62214345833333,57.0,93.0
231,58.1889049375,58.636348,60.0,95.0
232,58.1889049375,58.63918890833333,64.0,90.0
233,57.5070869375,58.7727116,45.0,96.0
234,57.847995937499995,58.866461574999995,52.0,96.0
235,58.8707229375,58.998563812499995,45.0,92.0
236,58.7002684375,59.03549562083333,57.0,99.0
237,58.7002684375,59.09373424166667,60.0,99.0
238,58.7002684375,59.12924559583333,64.0,97.0
239,59.211631937499995,59.639188641666664,45.0,112.0
240,59.5525409375,59.72015452916666,60.0,107.0
241,59.5525409375,59.7272568,64.0,102.0
242,59.722995437499996,60.0298135375,45.0,95.0
243,59.893449937499994,60.25708620416666,60.0,99.0
244,59.893449937499994,60.2769725625,64.0,95.0
245,60.0639044375,60.29543846666667,57.0,82.0
246,60.9161769375,61.359358637499994,57.0,99.0
247,60.9161769375,61.359358637499994,60.0,96.0
248,60.9161769375,61.36930181666666,53.0,92.0
249,60.2343589375,61.4999836,41.0,89.0
250,61.4275404375,61.60935857083333,53.0,89.0
251,61.4275404375,61.60935857083333,57.0,96.0
252,60.575267937499994,61.610779025,48.0,59.0
253,61.4275404375,61.66333582916666,60.0,95.0
254,61.5979949375,61.7343585375,41.0,89.0
255,62.2798129375,62.4161765375,57.0,100.0
256,62.2798129375,62.4246992625,60.0,99.0
257,61.9389039375,62.7911764375,41.0,100.0
258,62.6207219375,62.869301416666666,53.0,112.0
259,62.7911764375,62.98293775,57.0,95.0
260,62.450267437499996,63.00566501666666,48.0,97.0
261,62.7911764375,63.00708547083333,60.0,96.0
262,63.6434489375,64.11077835833333,59.0,95.0
263,63.6434489375,64.1121988125,55.0,89.0
264,63.6434489375,64.11930108333333,62.0,92.0
265,62.9616309375,64.235778325,43.0,99.0
266,64.1548124375,64.26702831666667,55.0,88.0
267,64.1548124375,64.27271013333333,59.0,95.0
268,63.3025399375,64.31958512083332,50.0,96.0
269,64.1548124375,64.34089193333332,62.0,90.0
270,64.3252669375,64.46021008333334,43.0,77.0
271,65.0070849375,65.113619,59.0,85.0
272,65.0070849375,65.1349258125,62.0,81.0
273,65.1775394375,65.38776665416667,59.0,48.0
274,65.1775394375,65.4502666375,62.0,49.0
275,64.6661759375,65.49145980833333,43.0,99.0
276,65.3479939375,65.69458475416667,55.0,107.0
277,65.0070849375,65.70452793333332,50.0,96.0
278,65.5184484375,65.70878929583333,59.0,79.0
279,65.5184484375,65.73861883333333,62.0,83.0
280,66.3707209375,66.809641275,60.0,100.0
281,66.3707209375,66.81248218333333,64.0,99.0
282,65.6889029375,66.95452759999999,45.0,107.0
283,66.8820844375,67.01134576666666,57.0,95.0
284,66.0298119375,67.02555030833334,52.0,83.0
285,66.8820844375,67.05680029999999,60.0,95.0
286,67.0525389375,67.15197072916666,45.0,83.0
287,66.8820844375,67.21305025833333,64.0,88.0
288,67.7343569375,68.11645910833333,60.0,100.0
289,67.9048114375,68.37498176666666,52.0,93.0
290,67.3934479375,68.3906067625,45.0,97.0
291,68.07526593749999,68.4161749375,57.0,117.0
292,68.2457204375,68.4161749375,60.0,100.0
293,67.7343569375,68.4161749375,64.0,99.0
294,68.7570839375,69.5326519125,52.0,69.0
295,68.4161749375,69.53833372916667,45.0,79.0
296,69.7798109375,69.87640182083334,45.0,86.0
297,69.43890193749999,69.96589043333333,57.0,63.0
298,69.0979929375,70.16475401666666,60.0,102.0
299,69.0979929375,70.17895855833333,64.0,97.0
300,70.1207199375,70.66333342916667,45.0,90.0
301,70.4616289375,71.18321965416666,60.0,93.0
302,70.4616289375,71.19742419583334,64.0,86.0
303,70.80253793749999,71.23009464166667,57.0,74.0
304,71.1434469375,72.315321625,41.0,77.0
305,71.4843559375,72.3621966125,48.0,61.0
306,72.16617393749999,72.50424202916666,53.0,79.0
307,71.8252649375,72.56816246666666,57.0,89.0
308,72.5070829375,72.61361699999999,41.0,88.0
309,71.8252649375,72.67469652916667,60.0,93.0
310,72.8479919375,73.39912815416666,41.0,89.0
311,73.1889009375,73.84230985416666,57.0,90.0
312,73.52980993749999,73.86503712083334,53.0,83.0
313,73.1889009375,73.87213939166666,60.0,96.0
314,73.8707189375,75.05395725833333,43.0,76.0
315,74.2116279375,75.09230952083333,50.0,60.0
316,74.89344593749999,75.23577539166666,55.0,86.0
317,75.2343549375,75.34230945416667,43.0,85.0
318,74.5525369375,75.36503672083333,59.0,96.0
319,74.5525369375,75.38918444166666,62.0,90.0
320,75.5752639375,76.02554790833334,43.0,99.0
321,75.9161729375,76.59657048333332,59.0,90.0
322,76.25708193749999,76.5979909375,55.0,88.0
323,75.9161729375,76.61361593333334,62.0,93.0
324,76.5979909375,77.77270653333333,45.0,69.0
325,76.9388999375,77.82526333749999,52.0,78.0
326,77.6207179375,78.0383314625,57.0,88.0
327,77.9616269375,78.076683725,45.0,92.0
328,77.2798089375,78.31816093333333,60.0,95.0
329,77.2798089375,78.35225183333333,64.0,95.0
330,78.64344493749999,79.10083117916666,52.0,73.0
331,78.3025359375,79.27270613333333,45.0,96.0
332,78.64344493749999,79.31389930416667,60.0,97.0
333,78.9843539375,79.33236520833333,57.0,96.0
334,78.64344493749999,79.33236520833333,64.0,95.0
335,79.6661719375,80.4417399125,52.0,69.0
336,79.3252629375,80.44742172916666,45.0,79.0
337,80.6888989375,80.78548982083333,45.0,86.0
338,80.3479899375,80.87497843333333,57.0,63.0
339,80.00708093749999,81.07384201666666,60.0,102.0
340,80.00708093749999,81.08804655833333,64.0,97.0
341,81.0298079375,81.57242142916667,45.0,90.0
342,81.37071693749999,82.09230765416666,60.0,93.0
343,81.37071693749999,82.10651219583333,64.0,86.0
344,81.7116259375,82.13918264166666,57.0,74.0
345,82.0525349375,83.22440962499999,41.0,77.0
346,82.3934439375,83.2712846125,48.0,61.0
347,83.0752619375,83.41333002916666,53.0,79.0
348,82.73435293749999,83.47725046666666,57.0,89.0
349,83.4161709375,83.522705,41.0,88.0
350,82.73435293749999,83.58378452916666,60.0,93.0
351,83.7570799375,84.30821615416666,41.0,89.0
352,84.09798893749999,84.75139785416667,57.0,90.0
353,84.4388979375,84.77412512083333,53.0,83.0
354,84.09798893749999,84.78122739166666,60.0,96.0
355,84.7798069375,85.96304525833332,43.0,76.0
356,85.1207159375,86.00139752083334,50.0,60.0
357,85.8025339375,86.14486339166666,55.0,86.0
358,86.1434429375,86.25139745416666,43.0,85.0
359,85.46162493749999,86.27412472083333,59.0,96.0
360,85.46162493749999,86.29827244166667,62.0,90.0
361,86.4843519375,86.93463590833333,43.0,99.0
362,86.82526093749999,87.50565848333333,59.0,90.0
363,87.1661699375,87.5070789375,55.0,88.0
364,86.82526093749999,87.52270393333333,62.0,93.0
365,87.5070789375,88.68179453333333,45.0,69.0
366,87.8479879375,88.7343513375,52.0,78.0
367,88.5298059375,88.9474194625,57.0,88.0
368,88.8707149375,88.98577172499999,45.0,92.0
369,88.18889693749999,89.22724893333333,60.0,95.0
370,88.18889693749999,89.26133983333332,64.0,95.0
371,89.55253293749999,90.00991917916666,52.0,73.0
372,89.2116239375,90.18179413333333,45.0,96.0
373,89.55253293749999,90.22298730416667,60.0,97.0
374,89.8934419375,90.24145320833333,57.0,96.0
375,89.55253293749999,90.24145320833333,64.0,95.0
376,90.5752599375,91.3508279125,52.0,69.0
377,90.2343509375,91.35650972916666,45.0,79.0
378,91.5979869375,91.69457782083333,45.0,86.0
379,91.2570779375,91.78406643333334,57.0,63.0
380,90.91616893749999,91.98293001666666,60.0,102.0
381,90.91616893749999,91.99713455833333,64.0,97.0
382,91.93889593749999,92.48150942916666,45.0,90.0
383,92.2798049375,93.00139565416666,60.0,93.0
384,92.2798049375,93.01560019583333,64.0,86.0
385,92.6207139375,93.04827064166666,57.0,74.0
386,92.9616229375,94.13349762499999,41.0,77.0
387,93.30253193749999,94.1803726125,48.0,61.0
388,93.9843499375,94.32241802916667,53.0,79.0
389,93.6434409375,94.38633846666666,57.0,89.0
390,94.3252589375,94.431793,41.0,88.0
391,93.6434409375,94.49287252916666,60.0,93.0
392,94.66616793749999,95.21730415416667,41.0,89.0
393,95.0070769375,95.66048585416667,57.0,90.0
394,95.3479859375,95.68321312083333,53.0,83.0
395,95.0070769375,95.69031539166666,60.0,96.0
396,95.6888949375,96.87213325833333,43.0,76.0
397,96.02980393749999,96.91048552083333,50.0,60.0
398,96.7116219375,97.05395139166666,55.0,86.0
399,97.0525309375,97.16048545416666,43.0,85.0
400,96.3707129375,97.18321272083332,59.0,96.0
401,96.3707129375,97.20736044166667,62.0,90.0
402,97.39343993749999,97.84372390833333,43.0,99.0
403,97.7343489375,98.41474648333333,59.0,90.0
404,98.0752579375,98.4161669375,55.0,88.0
405,97.7343489375,98.43179193333333,62.0,93.0
406,98.4161669375,99.59088253333333,45.0,69.0
407,98.75707593749999,99.6434393375,52.0,78.0
408,99.4388939375,99.85650746249999,57.0,88.0
409,99.0979849375,100.13633693333333,60.0,95.0
410,99.0979849375,100.17042783333333,64.0,95.0
411,99.7798029375,100.28548462083333,45.0,92.0
412,101.48434793749999,102.25991591249999,52.0,69.0
413,101.1434389375,102.26559772916666,45.0,79.0
414,102.5070749375,102.60366582083333,45.0,86.0
415,102.1661659375,102.69315443333333,57.0,63.0
416,101.8252569375,102.89201801666667,60.0,102.0
417,101.8252569375,102.90622255833333,64.0,97.0
418,102.84798393749999,103.39059742916666,45.0,90.0
419,103.1888929375,103.91048365416667,60.0,93.0
420,103.1888929375,103.92468819583333,64.0,86.0
421,103.5298019375,103.95735864166666,57.0,74.0
422,103.8707109375,105.042585625,41.0,77.0
423,104.21161993749999,105.08946061249999,48.0,61.0
424,104.8934379375,105.23150602916667,53.0,79.0
425,104.5525289375,105.29542646666667,57.0,89.0
426,105.23434693749999,105.340881,41.0,88.0
427,104.5525289375,105.40196052916666,60.0,93.0
428,105.57525593749999,106.12639215416667,41.0,89.0
429,105.9161649375,106.56957385416666,57.0,90.0
430,106.2570739375,106.59230112083333,53.0,83.0
431,105.9161649375,106.59940339166667,60.0,96.0
432,106.59798293749999,107.78122125833333,43.0,76.0
433,106.93889193749999,107.81957352083333,50.0,60.0
434,107.6207099375,107.96303939166667,55.0,86.0
435,107.96161893749999,108.06957345416666,43.0,85.0
436,107.2798009375,108.09230072083334,59.0,96.0
437,107.2798009375,108.11644844166666,62.0,90.0
438,108.3025279375,108.75281190833333,43.0,99.0
439,108.6434369375,109.32383448333333,59.0,90.0
440,108.9843459375,109.32525493749999,55.0,88.0
441,108.6434369375,109.34087993333333,62.0,93.0
442,109.32525493749999,110.49997053333333,45.0,69.0
443,109.6661639375,110.5525273375,52.0,78.0
444,110.3479819375,110.7655954625,57.0,88.0
445,110.68889093749999,110.803947725,45.0,92.0
446,110.0070729375,111.04542493333332,60.0,95.0
447,110.0070729375,111.07951583333333,64.0,95.0
448,111.3707089375,111.82809517916667,52.0,73.0
449,111.0297999375,111.99997013333333,45.0,96.0
450,111.3707089375,112.04116330416666,60.0,97.0
451,111.7116179375,112.05962920833333,57.0,96.0
452,111.3707089375,112.05962920833333,64.0,95.0
453,112.7343449375,113.16758345833333,57.0,93.0
454,112.7343449375,113.181788,60.0,95.0
455,112.7343449375,113.18462890833332,64.0,90.0
456,112.05252693749999,113.3181516,45.0,96.0
457,112.3934359375,113.411901575,52.0,96.0
458,113.41616293749999,113.5440038125,45.0,92.0
459,113.2457084375,113.58093562083333,57.0,99.0
460,113.2457084375,113.63917424166667,60.0,99.0
461,113.2457084375,113.67468559583332,64.0,97.0
462,113.7570719375,114.18462864166666,45.0,112.0
463,114.0979809375,114.26559452916666,60.0,107.0
464,114.0979809375,114.27269679999999,64.0,102.0
465,114.26843543749999,114.57525353749999,45.0,95.0
466,114.4388899375,114.80252620416667,60.0,99.0
467,114.4388899375,114.82241256249999,64.0,95.0
468,114.6093444375,114.84087846666667,57.0,82.0
469,115.4616169375,115.9047986375,57.0,99.0
470,115.4616169375,115.9047986375,60.0,96.0
471,115.4616169375,115.91474181666666,53.0,92.0
472,114.77979893749999,116.04542359999999,41.0,89.0
473,115.9729804375,116.15479857083334,53.0,89.0
474,115.9729804375,116.15479857083334,57.0,96.0
475,115.1207079375,116.156219025,48.0,59.0
476,115.9729804375,116.20877582916667,60.0,95.0
477,116.14343493749999,116.2797985375,41.0,89.0
478,116.8252529375,116.96161653749999,57.0,100.0
479,116.8252529375,116.9701392625,60.0,99.0
480,116.4843439375,117.3366164375,41.0,100.0
481,117.1661619375,117.41474141666666,53.0,112.0
482,117.3366164375,117.52837774999999,57.0,95.0
483,116.9957074375,117.55110501666667,48.0,97.0
484,117.3366164375,117.55252547083333,60.0,96.0
485,118.1888889375,118.65621835833333,59.0,95.0
486,118.1888889375,118.6576388125,55.0,89.0
487,118.1888889375,118.66474108333333,62.0,92.0
488,117.50707093749999,118.781218325,43.0,99.0
489,118.7002524375,118.81246831666667,55.0,88.0
490,118.7002524375,118.81815013333333,59.0,95.0
491,117.8479799375,118.86502512083332,50.0,96.0
492,118.7002524375,118.88633193333332,62.0,90.0
493,118.87070693749999,119.00565008333332,43.0,77.0
494,119.5525249375,119.659059,59.0,85.0
495,119.5525249375,119.6803658125,62.0,81.0
496,119.7229794375,119.93320665416667,59.0,48.0
497,119.7229794375,119.99570663749999,62.0,49.0
498,119.2116159375,120.03689980833333,43.0,99.0
499,119.89343393749999,120.24002475416667,55.0,107.0
500,119.5525249375,120.24996793333332,50.0,96.0
501,120.0638884375,120.25422929583333,59.0,79.0
502,120.0638884375,120.28405883333333,62.0,83.0
503,120.9161609375,121.35508127499999,60.0,100.0
504,120.9161609375,121.35792218333333,64.0,99.0
505,120.23434293749999,121.49996759999999,45.0,107.0
506,121.4275244375,121.55678576666666,57.0,95.0
507,120.5752519375,121.57099030833332,52.0,83.0
508,121.4275244375,121.60224029999999,60.0,95.0
509,121.59797893749999,121.69741072916666,45.0,83.0
510,121.4275244375,121.75849025833332,64.0,88.0
511,122.2797969375,122.66189910833333,60.0,100.0
512,122.4502514375,122.92042176666666,52.0,93.0
513,121.9388879375,122.9360467625,45.0,97.0
514,122.62070593749999,122.96587629999999,57.0,117.0
515,122.7911604375,122.96729675416667,60.0,100.0
516,122.2797969375,123.00280810833333,64.0,99.0
517,123.6434329375,124.07667145833332,57.0,93.0
518,123.6434329375,124.090876,60.0,95.0
519,123.6434329375,124.09371690833333,64.0,90.0
520,122.9616149375,124.22723959999999,45.0,96.0
521,123.3025239375,124.320989575,52.0,96.0
522,124.3252509375,124.45309181249999,45.0,92.0
523,124.1547964375,124.49002362083333,57.0,99.0
524,124.1547964375,124.54826224166666,60.0,99.0
525,124.1547964375,124.58377359583334,64.0,97.0
526,124.6661599375,125.09371664166666,45.0,112.0
527,125.0070689375,125.17468252916666,60.0,107.0
528,125.0070689375,125.18178479999999,64.0,102.0
529,125.1775234375,125.4843415375,45.0,95.0
530,125.34797793749999,125.71161420416666,60.0,99.0
531,125.34797793749999,125.73150056249999,64.0,95.0
532,125.5184324375,125.74996646666666,57.0,82.0
533,126.3707049375,126.81388663749999,57.0,99.0
534,126.3707049375,126.81388663749999,60.0,96.0
535,126.3707049375,126.82382981666666,53.0,92.0
536,125.6888869375,126.95451159999999,41.0,89.0
537,126.8820684375,127.06388657083333,53.0,89.0
538,126.8820684375,127.06388657083333,57.0,96.0
539,126.0297959375,127.065307025,48.0,59.0
540,126.8820684375,127.11786382916667,60.0,95.0
541,127.0525229375,127.1888865375,41.0,89.0
542,127.7343409375,127.87070453749999,57.0,100.0
543,127.7343409375,127.8792272625,60.0,99.0
544,127.3934319375,128.2457044375,41.0,100.0
545,128.0752499375,128.32382941666665,53.0,112.0
546,128.2457044375,128.43746575,57.0,95.0
547,127.9047954375,128.46019301666666,48.0,97.0
548,128.2457044375,128.46161347083333,60.0,96.0
549,129.0979769375,129.56530635833332,59.0,95.0
550,129.0979769375,129.5667268125,55.0,89.0
551,129.0979769375,129.57382908333332,62.0,92.0
552,128.4161589375,129.690306325,43.0,99.0
553,129.60934043749998,129.72155631666666,55.0,88.0
554,129.60934043749998,129.72723813333332,59.0,95.0
555,128.75706793749998,129.77411312083333,50.0,96.0
556,129.60934043749998,129.79541993333333,62.0,90.0
557,129.7797949375,129.91473808333333,43.0,77.0
558,130.4616129375,130.56814699999998,59.0,85.0
559,130.4616129375,130.58945381249998,62.0,81.0
560,130.63206743749998,130.84229465416666,59.0,48.0
561,130.63206743749998,130.9047946375,62.0,49.0
562,130.1207039375,130.94598780833334,43.0,99.0
563,130.8025219375,131.14911275416665,55.0,107.0
564,130.4616129375,131.15905593333332,50.0,96.0
565,130.9729764375,131.16331729583334,59.0,79.0
566,130.9729764375,131.19314683333332,62.0,83.0
567,131.8252489375,132.264169275,60.0,100.0
568,131.8252489375,132.26701018333333,64.0,99.0
569,131.1434309375,132.4090556,45.0,107.0
570,132.3366124375,132.46587376666668,57.0,95.0
571,131.48433993749998,132.48007830833333,52.0,83.0
572,132.3366124375,132.5113283,60.0,95.0
573,132.50706693749999,132.60649872916667,45.0,83.0
574,132.3366124375,132.66757825833332,64.0,88.0
575,133.1888849375,133.57098710833333,60.0,100.0
576,133.35933943749998,133.82950976666666,52.0,93.0
577,132.8479759375,133.84513476249998,45.0,97.0
578,133.5297939375,133.8707029375,57.0,117.0
579,133.7002484375,133.8707029375,60.0,100.0
580,133.1888849375,133.8707029375,64.0,99.0
581,134.21161193749998,134.98717991249998,52.0,69.0
582,133.8707029375,134.99286172916666,45.0,79.0
583,135.23433893749998,135.33092982083332,45.0,86.0
584,134.8934299375,135.42041843333334,57.0,63.0
585,134.5525209375,135.61928201666666,60.0,102.0
586,134.5525209375,135.63348655833332,64.0,97.0
587,135.5752479375,136.11786142916665,45.0,90.0
588,135.9161569375,136.63774765416667,60.0,93.0
589,135.9161569375,136.65195219583333,64.0,86.0
590,136.2570659375,136.68462264166666,57.0,74.0
591,136.5979749375,137.769849625,41.0,77.0
592,136.93888393749998,137.8167246125,48.0,61.0
593,137.6207019375,137.95877002916666,53.0,79.0
594,137.2797929375,138.02269046666666,57.0,89.0
595,137.96161093749998,138.068145,41.0,88.0
596,137.2797929375,138.12922452916666,60.0,93.0
597,138.3025199375,138.85365615416666,41.0,89.0
598,138.6434289375,139.29683785416665,57.0,90.0
599,138.9843379375,139.31956512083332,53.0,83.0
600,138.6434289375,139.32666739166666,60.0,96.0
601,139.3252469375,140.50848525833334,43.0,76.0
602,139.6661559375,140.54683752083332,50.0,60.0
603,140.3479739375,140.69030339166667,55.0,86.0
604,140.68888293749998,140.79683745416665,43.0,85.0
605,140.0070649375,140.81956472083334,59.0,96.0
606,140.0070649375,140.84371244166667,62.0,90.0
607,141.0297919375,141.48007590833333,43.0,99.0
608,141.3707009375,142.05109848333333,59.0,90.0
609,141.7116099375,142.0525189375,55.0,88.0
610,141.3707009375,142.06814393333332,62.0,93.0
611,142.0525189375,143.22723453333333,45.0,69.0
612,142.3934279375,143.2797913375,52.0,78.0
613,143.0752459375,143.4928594625,57.0,88.0
614,143.41615493749998,143.531211725,45.0,92.0
615,142.7343369375,143.77268893333334,60.0,95.0
616,142.7343369375,143.80677983333334,64.0,95.0
617,144.0979729375,144.55535917916666,52.0,73.0
618,143.7570639375,144.72723413333333,45.0,96.0
619,144.0979729375,144.76842730416666,60.0,97.0
620,144.43888193749999,144.78689320833334,57.0,96.0
621,144.0979729375,144.78689320833334,64.0,95.0
622,145.1206999375,145.8962679125,52.0,69.0
623,144.7797909375,145.90194972916666,45.0,79.0
624,146.14342693749998,146.24001782083332,45.0,86.0
625,145.8025179375,146.32950643333334,57.0,63.0
626,145.4616089375,146.52837001666666,60.0,102.0
627,145.4616089375,146.5425745583333,64.0,97.0
628,146.4843359375,147.02694942916665,45.0,90.0
629,146.8252449375,147.54683565416667,60.0,93.0
630,146.8252449375,147.56104019583333,64.0,86.0
631,147.16615393749998,147.59371064166666,57.0,74.0
632,147.5070629375,148.678937625,41.0,77.0
633,147.8479719375,148.7258126125,48.0,61.0
634,148.5297899375,148.86785802916665,53.0,79.0
635,148.1888809375,148.93177846666666,57.0,89.0
636,148.87069893749998,148.97723299999998,41.0,88.0
637,148.1888809375,149.03831252916666,60.0,93.0
638,149.2116079375,149.76274415416665,41.0,89.0
639,149.5525169375,150.20592585416665,57.0,90.0
640,149.89342593749998,150.22865312083331,53.0,83.0
641,149.5525169375,150.23575539166666,60.0,96.0
642,150.2343349375,151.41757325833333,43.0,76.0
643,150.5752439375,151.45592552083332,50.0,60.0
644,151.2570619375,151.59939139166667,55.0,86.0
645,151.59797093749998,151.70592545416667,43.0,85.0
646,150.9161529375,151.72865272083334,59.0,96.0
647,150.9161529375,151.75280044166666,62.0,90.0
648,151.9388799375,152.38916390833333,43.0,99.0
649,152.2797889375,152.96018648333333,59.0,90.0
650,152.62069793749998,152.9616069375,55.0,88.0
651,152.2797889375,152.97723193333331,62.0,93.0
652,152.9616069375,154.13632253333333,45.0,69.0
653,153.3025159375,154.1888793375,52.0,78.0
654,153.9843339375,154.4019474625,57.0,88.0
655,154.3252429375,154.440299725,45.0,92.0
656,153.6434249375,154.68177693333334,60.0,95.0
657,153.6434249375,154.71586783333333,64.0,95.0
658,155.0070609375,155.46444717916665,52.0,73.0
659,154.6661519375,155.63632213333332,45.0,96.0
660,155.0070609375,155.67751530416666,60.0,97.0
661,155.34796993749998,155.6888789375,57.0,96.0
662,155.0070609375,155.6888789375,64.0,95.0
663,156.0297879375,156.8053559125,52.0,69.0
664,155.6888789375,156.81103772916666,45.0,79.0
665,157.0525149375,157.1491058208333,45.0,86.0
666,156.7116059375,157.23859443333333,57.0,63.0
667,156.37069693749999,157.43745801666665,60.0,102.0
668,156.37069693749999,157.45166255833334,64.0,97.0
669,157.3934239375,157.93603742916667,45.0,90.0
670,157.7343329375,158.45592365416667,60.0,93.0
671,157.7343329375,158.47012819583333,64.0,86.0
672,158.07524193749998,158.50279864166666,57.0,74.0
673,158.4161509375,159.588025625,41.0,77.0
674,158.7570599375,159.6349006125,48.0,61.0
675,159.4388779375,159.77694602916665,53.0,79.0
676,159.09796893749999,159.84086646666665,57.0,89.0
677,159.7797869375,159.88632099999998,41.0,88.0
678,159.09796893749999,159.94740052916666,60.0,93.0
679,160.1206959375,160.67183215416665,41.0,89.0
680,160.4616049375,161.11501385416665,57.0,90.0
681,160.80251393749998,161.13774112083334,53.0,83.0
682,160.4616049375,161.14484339166665,60.0,96.0
683,161.1434229375,162.32666125833333,43.0,76.0
684,161.4843319375,162.36501352083332,50.0,60.0
685,162.1661499375,162.50847939166667,55.0,86.0
686,162.5070589375,162.61501345416667,43.0,85.0
687,161.82524093749998,162.63774072083334,59.0,96.0
688,161.82524093749998,162.66188844166666,62.0,90.0
689,162.8479679375,163.29825190833333,43.0,99.0
690,163.1888769375,163.86927448333333,59.0,90.0
691,163.52978593749998,163.8706949375,55.0,88.0
692,163.1888769375,163.88631993333334,62.0,93.0
693,163.8706949375,165.04541053333332,45.0,69.0
694,164.2116039375,165.0979673375,52.0,78.0
695,164.8934219375,165.3110354625,57.0,88.0
696,165.2343309375,165.34938772499999,45.0,92.0
697,164.55251293749998,165.59086493333334,60.0,95.0
698,164.55251293749998,165.62495583333333,64.0,95.0
699,165.9161489375,166.37353517916665,52.0,73.0
700,165.5752399375,166.54541013333332,45.0,96.0
701,165.9161489375,166.58660330416666,60.0,97.0
702,166.25705793749998,166.60506920833333,57.0,96.0
703,165.9161489375,166.60506920833333,64.0,95.0
704,166.9388759375,167.7144439125,52.0,69.0
705,166.5979669375,167.72012572916665,45.0,79.0
706,167.9616029375,168.05819382083334,45.0,86.0
707,167.6206939375,168.14768243333333,57.0,63.0
708,167.27978493749998,168.34654601666665,60.0,102.0
709,167.27978493749998,168.36075055833334,64.0,97.0
710,168.3025119375,168.84512542916667,45.0,90.0
711,168.6434209375,169.36501165416666,60.0,93.0
712,168.6434209375,169.37921619583332,64.0,86.0
713,168.9843299375,169.41188664166665,57.0,74.0
714,169.3252389375,170.497113625,41.0,77.0
715,169.6661479375,170.5439886125,48.0,61.0
716,170.3479659375,170.68603402916665,53.0,79.0
717,170.00705693749998,170.74995446666665,57.0,89.0
718,170.6888749375,170.795409,41.0,88.0
719,170.00705693749998,170.85648852916665,60.0,93.0
720,171.02978393749999,171.58092015416665,41.0,89.0
721,171.3706929375,172.02410185416667,57.0,90.0
722,171.7116019375,172.04682912083334,53.0,83.0
723,171.3706929375,172.05393139166665,60.0,96.0
724,172.0525109375,173.23574925833333,43.0,76.0
725,172.3934199375,173.2741015208333,50.0,60.0
726,173.0752379375,173.41756739166667,55.0,86.0
727,173.4161469375,173.52410145416667,43.0,85.0
728,172.73432893749998,173.54682872083333,59.0,96.0
729,172.73432893749998,173.57097644166666,62.0,90.0
730,173.75705593749998,174.20733990833332,43.0,99.0
731,174.0979649375,174.77836248333332,59.0,90.0
732,174.4388739375,174.7797829375,55.0,88.0
733,174.0979649375,174.79540793333334,62.0,93.0
734,174.7797829375,175.95449853333332,45.0,69.0
735,175.1206919375,176.0070553375,52.0,78.0
736,175.8025099375,176.2201234625,57.0,88.0
737,176.1434189375,176.25847572499998,45.0,92.0
738,175.46160093749998,176.49995293333333,60.0,95.0
739,175.46160093749998,176.53404383333333,64.0,95.0
740,176.8252369375,177.28262317916665,52.0,73.0
741,176.48432793749998,177.45449813333332,45.0,96.0
742,176.8252369375,177.49569130416666,60.0,97.0
743,177.1661459375,177.51415720833333,57.0,96.0
744,177.5070549375,177.51415720833333,57.0,73.0
745,176.8252369375,177.51415720833333,64.0,95.0
746,177.5070549375,177.51415720833333,64.0,67.0
747,177.5070549375,177.963020725,60.0,69.0
748,177.5070549375,178.00421389583332,45.0,65.0
749,180.5752359375,181.3508039125,52.0,69.0
750,180.2343269375,181.35648572916665,45.0,79.0
751,181.5979629375,181.69455382083333,45.0,86.0
752,181.2570539375,181.78404243333333,57.0,63.0
753,180.91614493749998,181.98290601666665,60.0,102.0
754,180.91614493749998,181.99711055833333,64.0,97.0
755,181.93887193749998,182.48148542916667,45.0,90.0
756,182.2797809375,183.00137165416666,60.0,93.0
757,182.2797809375,183.01557619583332,64.0,86.0
758,182.6206899375,183.04824664166665,57.0,74.0
759,182.96159893749999,184.133473625,41.0,77.0
760,183.3025079375,184.18034861249998,48.0,61.0
761,183.9843259375,184.32239402916665,53.0,79.0
762,183.6434169375,184.38631446666665,57.0,89.0
763,184.3252349375,184.431769,41.0,88.0
764,183.6434169375,184.49284852916665,60.0,93.0
765,184.66614393749998,185.21728015416667,41.0,89.0
766,185.0070529375,185.66046185416667,57.0,90.0
767,185.3479619375,185.68318912083333,53.0,83.0
768,185.0070529375,185.69029139166665,60.0,96.0
769,185.68887093749998,186.87210925833332,43.0,76.0
770,186.0297799375,186.91046152083334,50.0,60.0
771,186.7115979375,187.05392739166666,55.0,86.0
772,187.0525069375,187.16046145416666,43.0,85.0
773,186.3706889375,187.18318872083333,59.0,96.0
774,186.3706889375,187.20733644166665,62.0,90.0
775,187.39341593749998,187.84369990833332,43.0,99.0
776,187.7343249375,188.41472248333332,59.0,90.0
777,188.0752339375,188.41614293749998,55.0,88.0
778,187.7343249375,188.43176793333333,62.0,93.0
779,188.41614293749998,189.59085853333332,45.0,69.0
780,188.7570519375,189.6434153375,52.0,78.0
781,189.4388699375,189.8564834625,57.0,88.0
782,189.7797789375,189.89483572499998,45.0,92.0
783,189.0979609375,190.13631293333333,60.0,95.0
784,189.0979609375,190.17040383333332,64.0,95.0
785,190.4615969375,190.91898317916664,52.0,73.0
786,190.12068793749998,191.0908581333333,45.0,96.0
787,190.4615969375,191.13205130416665,60.0,97.0
788,190.8025059375,191.15051720833333,57.0,96.0
789,190.4615969375,191.15051720833333,64.0,95.0
790,191.4843239375,192.2598919125,52.0,69.0
791,191.14341493749998,192.26557372916665,45.0,79.0
792,192.5070509375,192.60364182083333,45.0,86.0
793,192.1661419375,192.69313043333332,57.0,63.0
794,191.8252329375,192.89199401666667,60.0,102.0
795,191.8252329375,192.90619855833333,64.0,97.0
796,192.84795993749998,193.39057342916666,45.0,90.0
797,193.1888689375,193.91045965416666,60.0,93.0
798,193.1888689375,193.92466419583332,64.0,86.0
799,193.5297779375,193.95733464166665,57.0,74.0
800,193.87068693749998,195.042561625,41.0,77.0
801,194.2115959375,195.08943661249998,48.0,61.0
802,194.8934139375,195.23148202916667,53.0,79.0
803,194.5525049375,195.29540246666667,57.0,89.0
804,195.2343229375,195.340857,41.0,88.0
805,194.5525049375,195.40193652916665,60.0,93.0
806,195.57523193749998,196.12636815416667,41.0,89.0
807,195.9161409375,196.56954985416667,57.0,90.0
808,196.2570499375,196.59227712083333,53.0,83.0
809,195.9161409375,196.59937939166664,60.0,96.0
810,196.59795893749998,197.78119725833332,43.0,76.0
811,196.9388679375,197.81954952083333,50.0,60.0
812,197.62068593749999,197.96301539166666,55.0,86.0
813,197.9615949375,198.06954945416666,43.0,85.0
814,197.2797769375,198.09227672083333,59.0,96.0
815,197.2797769375,198.11642444166665,62.0,90.0
816,198.3025039375,198.75278790833332,43.0,99.0
817,198.6434129375,199.32381048333332,59.0,90.0
818,198.9843219375,199.32523093749998,55.0,88.0
819,198.6434129375,199.34085593333333,62.0,93.0
820,199.32523093749998,200.49994653333331,45.0,69.0
821,199.6661399375,200.55250333749999,52.0,78.0
822,200.34795793749998,200.7655714625,57.0,88.0
823,200.6888669375,200.803923725,45.0,92.0
824,200.0070489375,201.04540093333333,60.0,95.0
825,200.0070489375,201.07949183333332,64.0,95.0
826,201.3706849375,201.82807117916667,52.0,73.0
827,201.0297759375,201.99994613333334,45.0,96.0
828,201.3706849375,202.04113930416665,60.0,97.0
829,201.7115939375,202.05250293749998,57.0,96.0
830,201.3706849375,202.05250293749998,64.0,95.0
831,202.05250293749998,202.31386650416667,50.0,127.0
832,202.05250293749998,202.37494603333332,62.0,127.0
833,202.3934119375,202.678923225,48.0,97.0
834,202.3934119375,202.74284366249998,60.0,122.0
835,202.7343209375,202.99710495833332,45.0,76.0
836,202.7343209375,203.03119585833332,57.0,107.0
837,203.4161389375,203.64341160416666,60.0,89.0
838,203.4161389375,203.6547752375,57.0,95.0
839,203.4161389375,203.65903659999998,64.0,89.0
840,203.4161389375,203.67892295833332,45.0,100.0
841,204.0979569375,204.588013625,57.0,99.0
842,204.0979569375,204.58943407916667,60.0,96.0
843,204.0979569375,204.61216134583333,45.0,82.0
844,204.0979569375,204.622104525,64.0,89.0
