,start,end,pitch,velocity
0,24.559130043750002,24.793001027083335,64.0,84.0
1,24.801065543750003,25.034936527083335,66.0,94.0
2,25.043001043750003,25.276872027083336,66.0,84.0
3,25.28493654375,25.760743027083336,68.0,65.0
4,25.76880754375,26.486549527083334,68.0,76.0
5,26.49461404375,26.970420527083334,64.0,65.0
6,26.978485043750002,27.938162527083335,69.0,102.0
7,27.946227043750003,28.422033527083336,68.0,72.0
8,28.309130293750002,28.543001277083334,66.0,86.0
9,28.672033543750004,28.905904527083337,64.0,60.0
10,28.91396904375,29.147840027083333,66.0,84.0
11,29.276872293750003,29.752678777083336,68.0,70.0
12,29.63977554375,29.752678777083336,68.0,68.0
13,32.317195043750004,32.55886171041667,64.0,54.0
14,32.567195043750004,32.80886171041667,66.0,82.0
15,32.817195043750004,33.05886171041667,66.0,68.0
16,33.067195043750004,33.55886171041667,68.0,66.0
17,33.567195043750004,34.30080181875,68.0,63.0
18,34.30899854375001,34.792605318750006,64.0,42.0
19,34.800802043750004,35.776212318750005,69.0,50.0
20,35.78440904375,36.26801581875,68.0,78.0
21,36.153261668750005,36.39096669375,66.0,94.0
22,36.52211429375001,36.759819318750004,64.0,57.0
23,36.76801604375,37.25162281875001,75.0,85.0
24,37.09588504375,37.57949181875001,73.0,68.0
25,37.75162304375,39.561617610416675,71.0,68.0
26,39.568562043750006,40.06022871041667,71.0,70.0
27,39.90189537708334,40.14356204375001,69.0,84.0
28,40.318562043750006,40.56022871041667,68.0,72.0
29,40.568562043750006,41.04436852708334,69.0,74.0
30,41.05243304375001,41.28630402708334,61.0,60.0
31,41.294368543750004,43.19935854375001,69.0,59.0
32,43.20717104375001,43.66810854375001,69.0,76.0
33,43.67592104375001,43.90248354375001,69.0,65.0
34,43.91029604375001,44.13685854375001,68.0,76.0
35,44.14467104375001,44.37123354375001,66.0,65.0
36,44.37904604375001,47.058212710416676,68.0,65.0
37,47.06654604375001,47.308212710416676,59.0,54.0
38,47.31654604375001,47.76351578541667,68.0,68.0
39,47.65745516875001,47.87715216041668,66.0,71.0
40,47.99836429375001,48.218061285416674,64.0,69.0
41,48.225637043750005,49.23411047708334,66.0,73.0
42,49.242585043750005,49.46228203541667,68.0,82.0
43,49.56266083333334,50.009630575,66.0,77.0
44,49.924403293750004,50.14410028541667,64.0,59.0
45,50.15167604375,51.05319128541667,66.0,90.0
46,51.060767043750005,51.50773678541667,66.0,77.0
47,51.51531254375001,51.96228228541667,64.0,62.0
48,51.96985804375,52.48740161875,71.0,82.0
49,52.496173543750004,55.49575503541667,66.0,68.0
50,55.50369154375,55.73385028541667,64.0,63.0
51,55.74178679375,55.97194553541667,66.0,84.0
52,55.97988204375,56.213753027083335,66.0,72.0
53,56.22181754375,56.697624027083336,68.0,77.0
54,56.70568854375,57.42343052708333,68.0,74.0
55,57.431495043750004,57.66536602708334,64.0,51.0
56,57.67343054375,58.875043527083335,69.0,85.0
57,58.88310804375,59.11697902708334,68.0,68.0
58,59.24601129375,59.72181777708334,66.0,79.0
59,59.608914543750004,59.842785527083336,64.0,62.0
60,59.85085004375,60.32665652708334,66.0,86.0
61,60.33472104375,60.568592027083334,68.0,81.0
62,60.576656543750005,63.22988252708333,68.0,72.0
63,63.237947043750005,63.47181802708334,64.0,94.0
64,63.47988254375,63.713753527083334,66.0,82.0
65,63.721818043750005,63.95568902708334,66.0,85.0
66,63.96375354375,64.43956002708333,68.0,72.0
67,64.44762454375001,65.16536652708334,68.0,74.0
68,65.17343104375,65.40730202708333,64.0,68.0
69,65.41536654375,66.61697952708333,69.0,102.0
70,66.62504404375001,66.85891502708334,68.0,84.0
71,67.02826987708333,67.50407636041668,66.0,99.0
72,67.35085054375,67.58472152708333,64.0,76.0
73,67.59278604375001,68.31052802708334,75.0,90.0
74,68.31859254375,69.03633452708334,71.0,82.0
75,69.04439904375,69.27827002708334,68.0,81.0
76,69.28633454375,70.48794752708334,71.0,76.0
77,70.49601204375,70.97181852708334,71.0,94.0
78,70.84077013125,71.07464111458333,69.0,84.0
79,71.22181854375,71.45568952708334,68.0,72.0
80,71.46375404375,71.93956052708333,69.0,105.0
81,71.94762504375001,72.18149602708334,61.0,57.0
82,72.18956054375,74.35891552708334,69.0,90.0
83,74.36698004375,74.60085102708334,69.0,77.0
84,74.68956071041667,75.16536719375,68.0,68.0
85,75.09278654375001,75.32665752708334,66.0,72.0
86,75.33472204375,75.81052852708333,68.0,65.0
87,75.81859304375,76.29439952708333,71.0,85.0
88,76.30246404375,76.77827052708334,66.0,77.0
89,76.78633504375,77.26214152708334,68.0,88.0
90,77.27020604375001,78.22988352708333,64.0,63.0
91,78.23794804375001,78.47181902708334,64.0,88.0
92,78.60085129375,79.07665777708334,66.0,86.0
93,78.96375454375,79.19762552708333,68.0,77.0
94,79.20569004375,79.43956102708333,68.0,84.0
95,79.44762554375001,80.16536752708333,69.0,74.0
96,80.17343204375001,80.64923852708334,69.0,74.0
97,80.65730304375,80.89117402708334,68.0,65.0
98,80.89923854375,82.10085152708334,66.0,96.0
99,82.10891604375,82.34278702708333,68.0,88.0
100,82.47181929375,82.94762577708335,66.0,72.0
101,82.83472254375,83.06859352708334,68.0,76.0
102,83.07665804375,83.55246452708334,66.0,76.0
103,83.56052904375001,86.93956152708334,64.0,65.0
104,86.94762604375,89.60085202708333,71.0,103.0
105,89.60891654375001,89.84278752708335,71.0,85.0
106,89.85085204375,90.08472302708333,78.0,96.0
107,90.23391658541667,90.70972306875001,76.0,85.0
108,90.57665854375,90.81052952708333,75.0,82.0
109,90.81859404375001,93.71375552708334,76.0,92.0
110,93.72182004375,93.95569102708333,68.0,86.0
111,94.08472329375,94.56052977708333,69.0,90.0
112,94.44762654375,94.68149752708334,71.0,90.0
113,94.68956204375,95.16536852708333,73.0,82.0
114,95.17343304375001,95.40730402708334,73.0,78.0
115,95.41536854375,95.64923952708334,73.0,76.0
116,95.65730404375,95.89117502708334,73.0,76.0
117,96.04036858541667,96.51617506875,71.0,69.0
118,96.38311054375,97.34278802708334,73.0,78.0
119,97.35085254375,97.58472352708334,73.0,77.0
120,97.59278804375,97.82665902708334,73.0,79.0
121,97.95569129375001,98.43149777708334,75.0,86.0
122,98.31859454375001,98.55246552708334,76.0,76.0
123,98.56053004375,102.90730452708334,78.0,90.0
124,102.91536904375,103.14924002708334,75.0,88.0
125,103.15730454375,103.39117552708333,75.0,84.0
126,103.39924004375001,103.87504652708334,75.0,90.0
127,103.88311104375,104.11698202708334,68.0,76.0
128,104.12504654375,105.32665952708334,71.0,72.0
129,105.33472404375001,105.81053052708333,71.0,88.0
130,105.81859504375001,106.29440152708334,68.0,84.0
131,106.30246604375,106.53633702708333,75.0,94.0
132,106.66536929375,107.14117577708333,76.0,85.0
133,107.02827254375,107.26214352708334,75.0,70.0
134,107.27020804375,109.19762752708334,76.0,99.0
135,109.20569204375,109.43956302708334,76.0,103.0
136,109.56859529375001,110.04440177708334,78.0,84.0
137,109.93149854375,110.16536952708333,80.0,96.0
138,110.17343404375,111.13311152708334,73.0,88.0
139,111.14117604375001,111.37504702708334,76.0,117.0
140,111.48593413125,111.71980511458334,78.0,91.0
141,111.82665996041666,112.30246644375,80.0,76.0
142,112.10891804375001,112.82666002708334,73.0,86.0
143,112.83472454375001,113.06859552708335,73.0,96.0
144,113.07666004375,113.55246652708334,80.0,97.0
145,113.56053104375,113.79440202708334,78.0,84.0
146,113.80246654375,114.03633752708333,76.0,90.0
147,114.04440204375001,117.90730552708334,78.0,97.0
148,117.91537004375002,120.56859602708334,71.0,103.0
149,120.57666054375,120.81053152708333,71.0,85.0
150,120.86496701458333,121.05246702708334,78.0,96.0
151,121.14117671041666,121.61698319375,76.0,85.0
152,121.54440254375001,121.77827352708334,75.0,82.0
153,121.78633804374999,124.68149952708333,76.0,92.0
154,124.68956404375001,124.92343502708334,68.0,86.0
155,125.01214471041666,125.48795119375,69.0,90.0
156,125.41537054375002,125.64924152708335,71.0,90.0
157,125.65730604375,126.13311252708334,73.0,82.0
158,126.14117704375002,126.37504802708335,73.0,78.0
159,126.38311254375,126.61698352708333,73.0,76.0
160,126.62504804375001,126.85891902708335,73.0,76.0
161,126.94762871041667,127.42343519375001,71.0,69.0
162,127.35085454375002,128.31053202708333,73.0,78.0
163,128.31859654375,128.55246752708334,73.0,77.0
164,128.56053204375002,128.79440302708335,73.0,79.0
165,128.88311271041667,129.35891919375,75.0,86.0
166,129.28633854375002,129.52020952708335,76.0,76.0
167,129.52827404375,133.87504852708335,78.0,90.0
168,133.88311304375,134.11698402708333,75.0,88.0
169,134.12504854375,134.35891952708334,75.0,84.0
170,134.36698404375,134.84279052708334,75.0,90.0
171,134.85085504375002,135.08472602708335,68.0,76.0
172,135.09279054375,136.29440352708335,71.0,72.0
173,136.30246804375,136.77827452708334,71.0,88.0
174,136.78633904375002,137.26214552708333,68.0,84.0
175,137.27021004375,137.50408102708334,75.0,94.0
176,137.51214554375,137.98795202708334,76.0,85.0
177,137.99601654375002,138.22988752708335,75.0,70.0
178,138.23795204375,140.16537152708335,76.0,99.0
179,140.17343604375,140.40730702708333,76.0,103.0
180,140.41537154375,140.89117802708333,78.0,84.0
181,140.89924254375,141.13311352708334,80.0,96.0
182,141.14117804375002,141.61698452708333,73.0,88.0
183,141.62504904375,141.85892002708334,73.0,63.0
184,141.86698454375,142.10085552708335,71.0,79.0
185,142.10892004375,142.34279102708334,73.0,84.0
186,142.35085554375001,142.82666202708333,75.0,96.0
187,142.83472654375,143.79440402708335,76.0,90.0
188,143.80246854375,144.03633952708333,71.0,84.0
189,144.04440404375,144.27827502708334,81.0,72.0
190,144.40730729375,144.88311377708334,80.0,91.0
191,144.77021054375,145.00408152708334,76.0,77.0
192,145.01214604375,145.72988802708335,78.0,85.0
193,145.73795254375,148.68291548125,76.0,78.0
194,163.83575804375,164.06962902708332,64.0,63.0
195,164.07769354375,164.31156452708333,66.0,84.0
196,164.31962904374998,164.55350002708332,66.0,72.0
197,164.56156454375,165.03737102708334,68.0,77.0
198,165.04543554375,165.75562503541667,68.0,74.0
199,165.76356154375,165.99372028541666,64.0,51.0
200,166.00165679375,167.18419653541667,69.0,85.0
201,167.19213304375,167.42229178541666,68.0,68.0
202,167.54927591875,168.01752991041667,66.0,79.0
203,167.90641879375,168.13657753541668,64.0,62.0
204,168.14451404375,168.61276803541668,66.0,86.0
205,168.62070454375,168.85086328541666,68.0,81.0
206,168.85879979375,171.47746352708333,68.0,72.0
207,171.48552804374998,171.7193990270833,64.0,94.0
208,171.72746354375,171.96133452708332,66.0,82.0
209,171.96939904374997,172.20710406874997,66.0,85.0
210,172.21530079374998,172.69890756874997,68.0,72.0
211,172.70710429374998,173.42881252708332,68.0,74.0
212,173.43687704374997,173.6707480270833,64.0,68.0
213,173.67881254374998,174.8804255270833,69.0,102.0
214,174.88849004374998,175.12236102708331,68.0,84.0
215,175.2917158770833,175.76752236041665,66.0,99.0
216,175.61429654375,175.84816752708332,64.0,76.0
217,175.85623204374997,176.57397402708332,75.0,90.0
218,176.58203854374997,177.2997805270833,71.0,82.0
219,177.30784504374998,177.5417160270833,68.0,81.0
220,177.54978054375,178.7513935270833,71.0,76.0
221,178.75945804375,179.2352645270833,71.0,94.0
222,179.10421613124998,179.33808711458332,69.0,84.0
223,179.48526454375,179.71913552708332,68.0,72.0
224,179.72720004374997,180.20300652708332,69.0,105.0
225,180.21107104374997,180.4449420270833,61.0,57.0
226,180.45300654374998,182.56246353541667,69.0,90.0
227,182.57040004375,182.80055878541665,69.0,77.0
228,182.88786037708334,183.35611436874999,68.0,68.0
229,183.28468579375,183.51484453541667,66.0,72.0
230,183.52278104375,183.99103503541667,68.0,65.0
231,183.99897154375,184.46722553541667,71.0,85.0
232,184.47516204375,184.95876881875,66.0,77.0
233,184.96696554375,185.45057231875,68.0,88.0
234,185.45876904375,186.41844652708335,64.0,63.0
235,186.42651104375,186.66038202708333,64.0,88.0
236,186.78941429375,187.26522077708336,66.0,86.0
237,187.15231754375,187.38618852708333,68.0,77.0
238,187.39425304375,187.62812402708335,68.0,84.0
239,187.63618854375002,188.35393052708335,69.0,74.0
240,188.36199504375,188.82293254375,69.0,74.0
241,188.83074504375,189.05730754375,68.0,65.0
242,189.06512004375,190.22918254375,66.0,96.0
243,190.23699504375,190.46715378541666,68.0,88.0
244,190.59413791875,191.06239191041666,66.0,72.0
245,190.95128079375,191.18143953541667,68.0,76.0
246,191.18937604375,191.65763003541667,66.0,76.0
247,191.66556654375,195.00798631875,64.0,65.0
248,195.03512243958335,197.58400428541665,71.0,103.0
249,197.59194079374998,197.82209953541667,71.0,85.0
250,197.83003604375,198.06390702708333,78.0,96.0
251,198.21310058541667,198.68890706875,76.0,85.0
252,198.55584254375,198.78971352708334,75.0,82.0
253,198.79777804375,201.69293952708333,76.0,92.0
254,201.70100404375,201.92408098541668,68.0,86.0
255,202.04715791875,202.50100411041666,69.0,90.0
256,202.39331179375,202.61638873541668,71.0,90.0
257,202.62408104375,203.09233503541668,73.0,82.0
258,203.10027154375,203.33043028541667,73.0,78.0
259,203.33836679375,203.56852553541668,73.0,76.0
260,203.57646204375,203.80662078541667,73.0,76.0
261,203.95344618958333,204.42170018125,71.0,69.0
262,204.29074779375,205.23519228541667,73.0,78.0
263,205.24312879375,205.4732875354167,73.0,77.0
264,205.48122404375002,205.71138278541667,73.0,79.0
265,205.83836691875,206.30662091041668,75.0,86.0
266,206.19550979375,206.4256685354167,76.0,76.0
267,206.43360504375002,210.63246603541668,78.0,90.0
268,210.64040254375,210.87056128541667,75.0,88.0
269,210.87849779375,211.10865653541669,75.0,84.0
270,211.11659304375002,211.5848470354167,75.0,90.0
271,211.59278354375002,211.82294228541667,68.0,76.0
272,211.83087879375,212.99866154375002,71.0,72.0
273,213.00647404375002,213.46741154375002,71.0,88.0
274,213.47522404375002,213.93616154375002,68.0,84.0
275,214.30687729375,214.78268377708335,76.0,85.0
276,214.66978054375002,214.90365152708335,75.0,70.0
277,214.91171604375,216.80914554375002,76.0,99.0
278,216.81695804375002,217.04352054375002,76.0,103.0
279,217.16852054375002,217.62945804375002,78.0,84.0
280,217.52008304375002,217.74664554375002,80.0,96.0
281,217.75445804375002,218.68414554375002,73.0,88.0
282,218.69195804375002,218.91852054375002,76.0,90.0
283,219.02594241875002,219.25250491875002,78.0,91.0
284,219.35602054375002,219.81695804375002,80.0,76.0
285,219.62945804375002,220.32477054375002,73.0,86.0
286,220.33258304375002,220.55914554375002,73.0,96.0
287,220.56695804375002,221.02789554375002,80.0,97.0
288,221.03570804375002,221.26227054375002,78.0,84.0
289,221.27008304375002,221.49664554375002,76.0,90.0
290,221.50445804375002,225.1895107354167,78.0,97.0
291,225.19720304375002,227.80831428541669,71.0,103.0
292,227.81625079375002,228.0464095354167,71.0,85.0
293,228.05434604375003,228.28090854375003,78.0,96.0
294,228.36684604375003,228.82778354375003,76.0,85.0
295,228.75747104375003,228.98403354375003,75.0,82.0
296,228.99184604375003,231.79653354375003,76.0,92.0
297,231.80434604375003,232.03090854375003,68.0,86.0
298,232.11684604375003,232.57778354375003,69.0,90.0
299,232.50747104375003,232.73403354375003,71.0,90.0
300,232.74184604375003,233.20278354375003,73.0,82.0
301,233.21059604375003,233.43715854375003,73.0,78.0
302,233.44497104375003,233.67153354375003,73.0,76.0
303,233.67934604375003,233.90590854375003,73.0,76.0
304,233.99184604375003,234.45278354375003,71.0,69.0
305,234.38247104375003,235.3014614854167,73.0,78.0
306,235.30915379375003,235.5322307354167,73.0,77.0
307,235.53992304375004,235.76299998541668,73.0,79.0
308,235.84761537708337,236.30146156875003,75.0,86.0
309,236.23223079375003,236.4553077354167,76.0,76.0
310,236.46300004375004,240.6235620354167,78.0,90.0
311,240.63149854375004,240.8616572854167,75.0,88.0
312,240.86959379375003,241.0997525354167,75.0,84.0
313,241.10768904375004,241.5759430354167,75.0,90.0
314,241.58387954375004,241.8140382854167,68.0,76.0
315,241.82197479375003,242.97545473541672,71.0,72.0
316,242.98314704375005,243.44408454375005,71.0,88.0
317,243.45189704375005,243.91283454375005,68.0,84.0
318,243.92064704375005,244.14720954375005,75.0,94.0
319,244.15502204375005,244.61595954375005,76.0,85.0
320,244.62377204375005,244.85033454375005,75.0,70.0
321,244.85814704375005,246.72533454375005,76.0,99.0
322,246.73314704375005,246.94329167708338,76.0,103.0
323,246.95053804375004,247.3780736770834,78.0,84.0
324,247.38532004375006,247.59546467708338,80.0,96.0
325,247.60271104375005,247.82354437708338,73.0,88.0
326,247.85062771041672,248.13396104375005,73.0,100.0
327,248.18812771041672,248.42979437708337,71.0,79.0
328,248.60271104375005,248.84437771041672,73.0,84.0
329,248.9672943770834,249.45896104375004,75.0,96.0
330,249.35271104375005,250.0131277104167,76.0,90.0
331,250.0610443770834,250.2381277104167,73.0,100.0
332,250.27146104375004,251.25449656250004,71.0,100.0
333,251.67413929375004,252.0193772854167,71.0,84.0
334,252.03128204375005,252.30486683541673,81.0,72.0
335,252.31430079375005,252.87090433541672,80.0,91.0
336,252.88033829375004,253.15392308541672,76.0,77.0
337,253.16335704375004,254.40294037708338,78.0,85.0
338,254.41335704375004,257.18919854375,76.0,78.0
