,start,end,pitch,velocity
0,1.80942704375,2.632504035416667,43.0,65.0
1,2.27096554375,2.6651963458333334,50.0,70.0
2,2.73250404375,3.2307178312500002,55.0,84.0
3,3.1610750437500004,4.059288431250001,57.0,72.0
4,4.446788043750001,4.636691864583334,62.0,65.0
5,3.58964604375,4.7064033937500005,59.0,74.0
6,5.60063404375,6.147243593750001,47.0,68.0
7,6.10910804375,6.6726667270833335,50.0,79.0
8,6.617582043750001,7.810377302083333,57.0,65.0
9,7.634530043750001,9.649790910416666,56.0,51.0
10,10.07626104375,10.35886934375,64.0,60.0
11,9.63508504375,10.425898235416666,45.0,60.0
12,10.07626104375,10.51104304375,52.0,74.0
13,10.51104304375,10.8008158,64.0,66.0
14,10.51104304375,10.980740060416666,57.0,65.0
15,10.96558854375,11.04513400625,59.0,74.0
16,10.96558854375,11.30649766875,62.0,68.0
17,11.42013404375,11.752826379166667,62.0,63.0
18,11.88167254375,12.281672577083333,50.0,65.0
19,11.42013404375,12.304749502083334,43.0,88.0
20,11.88167254375,12.461745439583332,60.0,54.0
21,12.34321104375,12.821658968749999,55.0,65.0
22,12.601831543749999,12.85398653125,60.0,60.0
23,12.86045204375,12.922951997916666,59.0,79.0
24,13.119072543749999,13.20312420625,60.0,51.0
25,13.86949654375,14.28343115625,50.0,81.0
26,13.37769304375,14.32031641875,42.0,54.0
27,14.36130004375,14.46375910625,54.0,51.0
28,14.85310354375,14.95556260625,57.0,72.0
29,13.37769304375,15.1953168125,62.0,48.0
30,15.34490704375,15.84900563125,63.0,53.0
31,15.34490704375,15.84900563125,63.0,53.0
32,15.34490704375,15.86539908125,59.0,42.0
33,15.34490704375,15.86539908125,59.0,60.0
34,15.34490704375,15.86539908125,59.0,76.0
35,15.34490704375,16.42687474375,54.0,47.0
36,16.32851404375,16.510891175,59.0,38.0
37,16.32851404375,16.82441590625,64.0,48.0
38,15.34490704375,16.887940525,47.0,50.0
39,17.31212104375,18.00064594375,40.0,63.0
40,17.31212104375,18.10925255,64.0,69.0
41,17.80392454375,18.18917061875,47.0,54.0
42,17.31212104375,18.47195763125,59.0,45.0
43,17.31212104375,18.7158102,68.0,69.0
44,18.29572804375,18.89613815,52.0,34.0
45,18.78753154375,19.43917118125,54.0,60.0
46,19.27933504375,20.0887616375,59.0,26.0
47,19.27933504375,20.2608928625,68.0,50.0
48,19.27933504375,20.287563258333336,56.0,45.0
49,20.490214793750003,20.764836033333335,59.0,50.0
50,20.71748754375,20.9163512,64.0,79.0
51,20.94476029375,21.14173001041667,68.0,69.0
52,21.17203304375,21.532920164583334,69.0,60.0
53,21.17203304375,21.563162102083336,40.0,56.0
54,21.17203304375,21.885742768750003,60.0,39.0
55,21.17203304375,21.885742768750003,64.0,39.0
56,21.655904043750002,22.149855689583337,52.0,53.0
57,22.62364604375,23.192194468750003,64.0,59.0
58,22.62364604375,23.290984797916668,69.0,37.0
59,23.10751704375,23.98050097291667,60.0,35.0
60,23.59138804375,24.036952589583336,68.0,12.0
61,22.139775043750003,24.284936477083335,57.0,39.0
62,24.075259043750002,24.359533256250003,64.0,81.0
63,25.043001043750003,26.282920481250002,59.0,78.0
64,25.043001043750003,26.337355968750003,56.0,45.0
65,25.043001043750003,26.347436614583337,64.0,57.0
66,25.043001043750003,26.395823714583337,40.0,56.0
67,25.043001043750003,26.415985006250004,52.0,48.0
68,26.978485043750002,28.220420610416667,60.0,44.0
69,26.978485043750002,28.29300126041667,64.0,63.0
70,26.978485043750002,28.375662556250003,57.0,41.0
71,26.978485043750002,28.393807718750004,40.0,30.0
72,26.978485043750002,28.40792062291667,52.0,38.0
73,28.91396904375,30.238565906250003,59.0,60.0
74,28.91396904375,30.28292074791667,64.0,47.0
75,28.91396904375,30.31316268541667,56.0,33.0
76,28.91396904375,30.444211081250003,40.0,57.0
77,30.849453043750003,32.042195043750006,60.0,31.0
78,30.849453043750003,32.08177837708334,64.0,50.0
79,30.849453043750003,32.14427837708334,57.0,29.0
80,30.849453043750003,32.22136171041667,40.0,23.0
81,30.849453043750003,32.27761171041667,52.0,35.0
82,32.817195043750004,33.36511171041667,56.0,45.0
83,32.817195043750004,33.475528377083336,64.0,47.0
84,32.817195043750004,33.50261171041667,59.0,65.0
85,32.817195043750004,34.43194941875,40.0,33.0
86,34.063096793750006,34.474982225000005,52.0,33.0
87,34.30899854375001,34.59998228125001,59.0,45.0
88,34.55490029375,35.0528513375,71.0,42.0
89,34.800802043750004,35.2249825625,61.0,45.0
90,34.800802043750004,35.2495727375,64.0,57.0
91,34.800802043750004,35.286458,69.0,56.0
92,34.800802043750004,36.1839993875,40.0,47.0
93,35.53850729375,36.294655175,52.0,31.0
94,36.76801604375,37.249573637500006,63.0,68.0
95,36.76801604375,37.27416381250001,66.0,78.0
96,36.76801604375,37.31104907500001,59.0,54.0
97,36.76801604375,38.315147887500004,44.0,63.0
98,37.99752479375,38.40531186250001,56.0,21.0
99,38.243426543750004,38.573344725000005,68.0,54.0
100,38.489328293750006,38.694246418750005,78.0,68.0
101,38.73523004375001,39.21613205208334,68.0,39.0
102,38.73523004375001,39.23002091875001,74.0,51.0
103,39.568562043750006,39.80189537708334,61.0,39.0
104,39.568562043750006,39.90189537708334,68.0,38.0
105,38.73523004375001,40.064395377083336,49.0,53.0
106,40.568562043750006,40.94759432708334,64.0,60.0
107,40.568562043750006,40.951626585416676,69.0,47.0
108,40.568562043750006,40.98186852291667,61.0,50.0
109,41.294368543750004,41.953642781250004,54.0,6.0
110,40.568562043750006,42.08469117708334,42.0,56.0
111,41.778239543750004,42.09477182291667,57.0,42.0
112,42.02017504375001,42.17944924791667,64.0,54.0
113,42.50404604375001,43.78724916875001,60.0,47.0
114,42.50404604375001,43.81068666875001,64.0,63.0
115,42.50404604375001,43.87318666875001,54.0,39.0
116,42.50404604375001,43.87709291875001,57.0,39.0
117,42.50404604375001,43.89467104375001,42.0,39.0
118,44.37904604375001,45.23451479375001,59.0,53.0
119,44.37904604375001,45.426962710416674,54.0,27.0
120,44.37904604375001,45.526962710416676,63.0,66.0
121,45.81654604375001,46.04154604375001,66.0,54.0
122,44.37904604375001,46.19571271041668,44.0,50.0
123,46.31654604375001,47.23321271041667,59.0,60.0
124,46.31654604375001,47.26446271041667,56.0,39.0
125,46.31654604375001,47.34684907708334,64.0,38.0
126,47.31654604375001,47.72563699375001,56.0,30.0
127,46.31654604375001,47.945333985416674,49.0,35.0
128,47.77109154375001,48.11768248750001,59.0,76.0
129,47.99836429375001,48.14987946041668,64.0,45.0
130,48.225637043750005,48.58580612708334,61.0,54.0
131,48.225637043750005,48.71080598541667,64.0,68.0
132,48.225637043750005,48.83156856041667,57.0,45.0
133,48.98834804375001,49.278569895833336,61.0,63.0
134,48.98834804375001,49.46796385416667,64.0,56.0
135,48.225637043750005,49.58538810833334,54.0,42.0
136,48.98834804375001,49.72175175833334,57.0,39.0
137,48.225637043750005,49.75205479166667,42.0,12.0
138,49.924403293750004,50.214176050000006,44.0,41.0
139,50.15167604375,50.600539725000004,61.0,63.0
140,50.15167604375,50.73311549583334,64.0,68.0
141,50.15167604375,50.84864581041667,57.0,41.0
142,51.060767043750005,51.384630712500005,61.0,74.0
143,51.060767043750005,51.41493374583334,64.0,63.0
144,51.060767043750005,51.555085275,57.0,39.0
145,50.15167604375,51.57402467083334,45.0,44.0
146,51.96985804375,52.08827903125,35.0,57.0
147,51.96985804375,52.401875350000005,59.0,68.0
148,51.96985804375,52.4238051625,54.0,50.0
149,51.96985804375,52.71547166875,64.0,57.0
150,53.54880454375,53.7483658375,69.0,57.0
151,53.02248904375,54.12472322083334,54.0,50.0
152,54.075120043750005,54.339008945833335,59.0,19.0
153,54.075120043750005,54.87670738541667,68.0,53.0
154,52.496173543750004,55.34694550416667,47.0,31.0
155,55.02750104375001,55.452104239583335,54.0,53.0
156,55.02750104375001,55.54932646666667,66.0,72.0
157,55.02750104375001,55.58702488125,59.0,42.0
158,55.50369154375,55.616786787500004,64.0,79.0
159,55.97988204375,56.413349814583334,59.0,66.0
160,55.97988204375,56.45770465625,56.0,18.0
161,55.97988204375,56.55851111458334,64.0,50.0
162,56.46375304375,56.97988211041667,52.0,5.0
163,56.947624043750004,57.38915633125,59.0,65.0
164,56.947624043750004,57.42343052708333,56.0,44.0
165,56.947624043750004,57.429478914583335,64.0,38.0
166,55.97988204375,57.532301502083335,40.0,47.0
167,57.431495043750004,57.760124097916666,52.0,27.0
168,57.915366043750005,58.397220914583336,64.0,68.0
169,58.15730154375,58.48189833958334,60.0,2.0
170,57.915366043750005,58.60488221875001,57.0,42.0
171,57.915366043750005,59.01214031041667,52.0,27.0
172,58.88310804375,59.28633387708334,60.0,47.0
173,58.88310804375,59.30246291041667,64.0,68.0
174,58.88310804375,59.36697904375,57.0,38.0
175,57.915366043750005,59.44560808125,40.0,35.0
176,59.36697904375,59.564559702083336,52.0,45.0
177,59.85085004375,60.449640406250005,64.0,60.0
178,59.85085004375,60.46375331041667,59.0,50.0
179,59.85085004375,60.47786621458334,68.0,54.0
180,59.85085004375,60.47786621458334,71.0,39.0
181,59.85085004375,61.054479156250004,52.0,56.0
182,60.81859204375,61.183511422916666,71.0,37.0
183,60.81859204375,61.282301752083335,68.0,59.0
184,60.81859204375,61.30246304375,59.0,47.0
185,60.81859204375,61.31859207708334,64.0,60.0
186,61.30246304375,61.77625339791667,52.0,50.0
187,61.78633404375,62.25810826875,64.0,56.0
188,61.78633404375,62.42141473125,69.0,42.0
189,61.78633404375,62.457705056250006,60.0,41.0
190,62.27020504375,63.060527677083336,52.0,19.0
191,62.754076043750004,63.22383413958334,64.0,78.0
192,62.754076043750004,63.25407607708334,60.0,44.0
193,62.754076043750004,63.32262446875,69.0,53.0
194,63.47988254375,63.846818052083336,66.0,91.0
195,63.721818043750005,64.28028582291667,64.0,53.0
196,63.721818043750005,64.29843098541667,68.0,69.0
197,63.721818043750005,64.30851163125,59.0,57.0
198,63.237947043750005,64.91738263958334,52.0,65.0
199,64.68956004375,65.20367298125001,68.0,63.0
200,64.68956004375,65.25810846875001,59.0,53.0
201,64.68956004375,65.28835040625,64.0,54.0
202,63.721818043750005,65.31859234375,40.0,56.0
203,65.17343104375,65.41536654375,52.0,53.0
204,65.65730204375001,66.20367304791667,64.0,74.0
205,65.65730204375001,66.42746338541667,60.0,41.0
206,65.65730204375001,66.43552790208334,69.0,59.0
207,65.65730204375001,66.85891502708334,48.0,35.0
208,66.62504404375001,67.08270536458333,64.0,82.0
209,66.62504404375001,67.17947956458333,60.0,41.0
210,66.62504404375001,67.23593118125001,69.0,60.0
211,67.10891504375,67.60085056041667,48.0,50.0
212,67.59278604375001,68.12302801458334,66.0,84.0
213,67.59278604375001,68.14318930625001,63.0,72.0
214,67.59278604375001,68.15730221041667,59.0,60.0
215,67.59278604375001,68.66738288958334,56.0,42.0
216,68.56052804375,69.06254420625001,66.0,77.0
217,68.56052804375,69.09681840208333,59.0,56.0
218,68.56052804375,69.10286678958333,63.0,65.0
219,67.59278604375001,69.33270551458334,44.0,47.0
220,69.04439904375,69.46980229791667,56.0,41.0
221,69.52827004375,70.13310879375,59.0,59.0
222,69.52827004375,70.18149589375,68.0,60.0
223,69.52827004375,70.36697977708334,65.0,56.0
224,69.52827004375,70.63310882708333,49.0,72.0
225,70.49601204375,70.97988304375001,68.0,79.0
226,70.49601204375,70.98391530208333,65.0,54.0
227,70.49601204375,71.05044756458334,61.0,69.0
228,70.49601204375,71.06456046875,37.0,70.0
229,70.97988304375001,71.47585081875,49.0,54.0
230,71.46375404375,71.92141536458334,64.0,63.0
231,71.46375404375,71.93351213958334,61.0,86.0
232,71.46375404375,72.20367344791667,57.0,50.0
233,71.94762504375001,72.54439927708333,49.0,50.0
234,72.43149604375,72.82867348958334,61.0,76.0
235,72.43149604375,72.88512510625,64.0,77.0
236,72.43149604375,72.91939930208333,54.0,38.0
237,71.46375404375,72.99399608125,42.0,74.0
238,72.43149604375,72.99601221041667,57.0,53.0
239,72.91536704375,73.41939933541667,49.0,50.0
240,73.39923804375,73.87706065625,64.0,74.0
241,73.39923804375,73.96173808125,60.0,57.0
242,73.39923804375,74.00206066458334,57.0,39.0
243,73.88310904375001,74.54036715208333,54.0,29.0
244,74.36698004375,74.81657684791668,60.0,77.0
245,74.36698004375,74.82464136458333,64.0,53.0
246,74.36698004375,74.83068975208334,57.0,74.0
247,73.39923804375,74.86899620625,42.0,82.0
248,74.85085104375,75.34480268958333,54.0,60.0
249,75.33472204375,75.76012529791667,64.0,62.0
250,75.33472204375,75.77827046041668,59.0,76.0
251,75.33472204375,75.83472207708334,52.0,54.0
252,75.33472204375,75.87101240208334,56.0,54.0
253,75.33472204375,75.90125433958333,40.0,42.0
254,75.81859304375,76.16335113125001,66.0,85.0
255,76.30246404375,76.73189955625,59.0,82.0
256,76.30246404375,76.75004471875,54.0,60.0
257,76.30246404375,76.81456085208333,51.0,50.0
258,76.30246404375,76.84077053125,63.0,76.0
259,76.30246404375,76.86698021041667,39.0,47.0
260,77.27020604375001,77.67141574791667,59.0,70.0
261,77.27020604375001,77.76012543125,56.0,54.0
262,77.27020604375001,77.81657704791667,49.0,50.0
263,77.27020604375001,77.97181899375,64.0,72.0
264,78.23794804375001,78.55044806458334,59.0,77.0
265,77.99601254375,78.55649645208334,56.0,41.0
266,77.75407704375,78.63109323125,52.0,50.0
267,78.47988354375,78.65528678125,64.0,63.0
268,78.72181904375,78.96173841458334,66.0,62.0
269,78.96375454375,79.71577072291667,71.0,85.0
270,79.20569004375,79.74601266041667,64.0,85.0
271,79.20569004375,79.75407717708333,61.0,63.0
272,79.20569004375,79.76214169375001,69.0,63.0
273,79.68956104375,80.27020624375001,49.0,39.0
274,80.17343204375001,80.66335143125,54.0,38.0
275,80.17343204375001,80.70165788541667,64.0,57.0
276,80.17343204375001,80.71778691875001,69.0,54.0
277,79.20569004375,80.73593208125,42.0,65.0
278,80.17343204375001,80.73996433958334,61.0,69.0
279,80.65730304375,80.76012563125,49.0,68.0
280,81.14117404375,81.67141601458334,64.0,45.0
281,81.14117404375,81.72786763125,61.0,60.0
282,81.14117404375,81.74802892291667,69.0,42.0
283,82.10891604375,82.33472251041667,66.0,77.0
284,82.10891604375,82.59883543125,47.0,62.0
285,82.10891604375,82.60286768958333,64.0,70.0
286,82.10891604375,82.63915801458333,59.0,65.0
287,82.59278704375001,82.93149674375,66.0,78.0
288,82.83472254375,83.04036771875,68.0,76.0
289,83.07665804375,83.40730322708333,71.0,59.0
290,83.07665804375,83.45165806875,64.0,65.0
291,83.07665804375,83.47585161875,59.0,54.0
292,83.56052904375001,84.09480327291666,47.0,45.0
293,84.04440004375,84.31456135208333,59.0,68.0
294,84.04440004375,84.33270651458334,64.0,76.0
295,84.04440004375,84.34480328958334,56.0,76.0
296,84.04440004375,84.36093232291667,52.0,45.0
297,83.07665804375,84.36899683958333,40.0,50.0
298,84.52827104375001,84.72181944375001,59.0,84.0
299,84.28633554375,84.80448073958334,47.0,78.0
300,84.77020654375,84.92141623125,64.0,94.0
301,85.01214204375,85.30246464375,61.0,72.0
302,85.01214204375,85.42544852291667,64.0,72.0
303,85.01214204375,85.50407756041668,57.0,68.0
304,85.01214204375,85.72585176875,40.0,76.0
305,85.49601304375,85.79440016041667,52.0,70.0
306,85.25407754375,85.90125500625001,47.0,53.0
307,85.73794854375001,86.04238404791667,59.0,74.0
308,85.97988404375,86.12101308541668,61.0,70.0
309,86.22181954375,86.40125503958333,64.0,84.0
310,85.97988404375,86.48190020625,40.0,82.0
311,86.22181954375,86.56657763125,47.0,66.0
312,86.46375504375001,86.63310989375,52.0,53.0
313,86.46375504375001,86.75609377291667,66.0,68.0
314,86.70569054375001,87.00206153125,69.0,86.0
315,86.94762604375,87.69560996458334,59.0,76.0
316,86.94762604375,87.70367448125,68.0,91.0
317,86.94762604375,87.71980351458333,64.0,86.0
318,86.94762604375,87.72988416041667,71.0,76.0
319,86.94762604375,88.13512612291667,52.0,81.0
320,87.91536804375001,88.45770678958334,71.0,68.0
321,87.91536804375001,88.46980356458334,59.0,69.0
322,87.91536804375001,88.47383582291667,64.0,74.0
323,87.91536804375001,88.47383582291667,68.0,60.0
324,86.94762604375,88.65931970625,40.0,86.0
325,88.39923904375001,88.68149712708333,52.0,76.0
326,88.88311004375001,89.44762621041667,51.0,66.0
327,88.88311004375001,89.54641653958333,66.0,88.0
328,88.88311004375001,89.58472299375,59.0,70.0
329,88.88311004375001,89.58875525208333,63.0,88.0
330,88.88311004375001,89.59883589791667,71.0,79.0
331,89.60891654375001,90.00206173125,51.0,65.0
332,89.85085204375,90.14319077291667,71.0,85.0
333,89.85085204375,90.14923916041667,66.0,68.0
334,89.85085204375,90.15327141875,59.0,72.0
335,89.85085204375,90.16335206458334,63.0,65.0
336,90.09278754375,90.36698111041667,51.0,70.0
337,90.33472304375,90.41536821041667,59.0,45.0
338,88.88311004375001,90.43552950208334,39.0,82.0
339,90.33472304375,90.45367466458333,66.0,54.0
340,90.33472304375,90.68552951875,68.0,79.0
341,90.81859404375001,91.03431986458334,37.0,78.0
342,90.81859404375001,91.13512632291668,49.0,68.0
343,90.57665854375,91.53230376875001,71.0,81.0
344,90.81859404375001,91.57262635208335,68.0,78.0
345,90.81859404375001,91.58673925625001,64.0,68.0
346,90.81859404375001,91.59681990208334,61.0,72.0
347,91.54440054375,92.15327155208334,49.0,63.0
348,91.78633604375,92.35286833958334,68.0,77.0
349,91.78633604375,92.37907801875001,61.0,77.0
350,91.78633604375,92.38512640625001,64.0,86.0
351,92.27020704375,92.42343286041667,49.0,79.0
352,92.75407804375001,93.16940065208334,59.0,74.0
353,92.75407804375001,93.27020711041666,64.0,85.0
354,92.75407804375001,93.32464259791666,68.0,72.0
355,93.23794904375,93.94157812291667,56.0,54.0
356,93.72182004375,94.06052974375001,63.0,91.0
357,93.47988454375,94.08875555208334,59.0,63.0
358,93.96375554375001,94.14520716875,64.0,79.0
359,92.75407804375001,94.25609427291667,47.0,81.0
360,94.20569104375001,94.27020717708334,64.0,47.0
361,94.20569104375001,94.29641685625,56.0,65.0
362,94.20569104375001,94.39923944375,66.0,84.0
363,94.44762654375,94.83270721458334,71.0,88.0
364,94.68956204375,95.31254595625,61.0,69.0
365,94.68956204375,95.32061047291667,64.0,81.0
366,94.68956204375,95.56456210208333,69.0,48.0
367,95.65730404375,96.23391698541667,64.0,79.0
368,95.65730404375,96.26415892291666,61.0,77.0
369,94.68956204375,96.94762671041667,57.0,42.0
370,96.62504604375,97.34682028541667,64.0,69.0
371,96.62504604375,97.36899770625001,61.0,54.0
372,95.65730404375,97.39520738541667,69.0,44.0
373,97.35085254375,97.83673967291668,57.0,42.0
374,94.68956204375,98.13109453125,45.0,41.0
375,97.59278804375,98.17141711458333,61.0,74.0
376,97.59278804375,98.17141711458333,64.0,85.0
377,97.59278804375,98.19762679375,69.0,56.0
378,98.07665904375,98.21980421458335,57.0,45.0
379,98.56053004375,99.07867523958333,59.0,76.0
380,98.56053004375,99.16536879375,66.0,77.0
381,98.56053004375,99.27827202708335,64.0,84.0
382,98.56053004375,99.35286880625,71.0,86.0
383,99.04440104375001,99.73593334791667,54.0,60.0
384,99.52827204375001,99.87907851875,64.0,82.0
385,99.77020754375,100.07464304791668,66.0,81.0
386,99.28633654375,100.08875595208335,59.0,72.0
387,100.01214304375,100.09077208125001,71.0,47.0
388,98.56053004375,100.20367531458334,47.0,81.0
389,100.01214304375,100.35085274375001,54.0,76.0
390,100.25407854375001,100.57665921041666,63.0,85.0
391,100.25407854375001,100.58472372708334,71.0,96.0
392,100.73794954375,100.86294955208334,61.0,72.0
393,100.73794954375,100.88512697291668,69.0,94.0
394,100.97988504375,101.24601409375,54.0,63.0
395,101.22182054375,101.56053024375001,59.0,63.0
396,101.22182054375,101.56053024375001,68.0,68.0
397,101.46375604375001,101.69359476875,54.0,78.0
398,100.49601404375,102.03028833958334,47.0,72.0
399,101.70569154375,102.03028833958334,66.0,79.0
400,101.94762704375,102.03432059791666,54.0,88.0
401,101.70569154375,102.06456253541667,59.0,60.0
402,101.94762704375,102.14117544375,68.0,72.0
403,102.18956254375001,102.33069158541667,64.0,56.0
404,102.43149804375,102.79641742291668,59.0,70.0
405,102.43149804375,102.80044968125,63.0,82.0
406,102.43149804375,102.80044968125,66.0,90.0
407,102.43149804375,102.83674000625001,71.0,66.0
408,102.91536904375,103.27424003541668,59.0,54.0
409,103.15730454375,103.37504649375,66.0,92.0
410,102.67343354375001,103.47383682291667,56.0,42.0
411,103.39924004375001,103.48391746875001,66.0,57.0
412,103.39924004375001,103.67343361041668,59.0,76.0
413,103.64117554375,103.67343361041668,59.0,69.0
414,103.64117554375,103.84682071875,66.0,94.0
415,103.39924004375001,103.92948201458333,71.0,85.0
416,103.64117554375,103.93351427291668,56.0,39.0
417,102.43149804375,104.05246589375,44.0,72.0
418,103.88311104375,104.34077236458333,51.0,72.0
419,104.12504654375,104.40528849791667,63.0,88.0
420,104.12504654375,104.42141753125,59.0,76.0
421,104.12504654375,104.43351430625,66.0,92.0
422,104.12504654375,104.52020786041666,71.0,65.0
423,104.85085304375,105.13512725625,56.0,54.0
424,105.09278854375,105.21174016458335,71.0,54.0
425,105.09278854375,105.21375629375001,66.0,72.0
426,105.09278854375,105.22585306875001,78.0,85.0
427,104.60891754375001,105.50407889375,51.0,72.0
428,105.33472404375001,105.54843373541667,78.0,79.0
429,105.33472404375001,105.55851438125,66.0,74.0
430,105.33472404375001,105.60690148125,71.0,84.0
431,105.57665954375,105.60690148125,71.0,69.0
432,105.33472404375001,105.67746600208334,56.0,47.0
433,105.57665954375,105.82262730208333,68.0,72.0
434,105.57665954375,105.83674020625,76.0,97.0
435,104.36698204375,105.92141763125,44.0,60.0
436,105.81859504375001,105.97182086041667,51.0,84.0
437,106.06053054375,106.20367571458334,66.0,70.0
438,105.81859504375001,106.22786926458335,56.0,44.0
439,106.06053054375,106.27020797708334,75.0,90.0
440,106.30246604375,106.64520800208334,76.0,96.0
441,106.30246604375,106.66133703541666,71.0,84.0
442,106.30246604375,106.69359510208334,68.0,63.0
443,106.78633704375,107.09077254791667,61.0,60.0
444,107.02827254375,107.38512740625,68.0,69.0
445,107.02827254375,107.39722418125001,64.0,72.0
446,107.27020804375,107.55246612708333,61.0,50.0
447,106.54440154375001,107.57262741875,56.0,57.0
448,107.51214354375,107.83069195208334,63.0,76.0
449,107.51214354375,107.86698227708334,66.0,88.0
450,106.30246604375,107.95972421875001,49.0,85.0
451,107.99601454375001,108.10488551875,64.0,81.0
452,107.75407904375001,108.15528874791667,56.0,54.0
453,107.99601454375001,108.16335326458334,68.0,79.0
454,108.47988554375002,108.59077264791668,68.0,54.0
455,108.47988554375002,108.59077264791668,76.0,94.0
456,108.72182104375,108.83069201875,68.0,66.0
457,108.72182104375,108.85690169791667,76.0,94.0
458,108.47988554375002,108.99601461041667,56.0,63.0
459,108.96375654375001,109.07262751875001,66.0,81.0
460,108.96375654375001,109.07262751875001,75.0,72.0
461,108.96375654375001,109.14924042708334,61.0,54.0
462,109.20569204375,109.30649850208334,66.0,79.0
463,109.20569204375,109.33875656875,75.0,76.0
464,108.23795004375,109.34278882708334,49.0,78.0
465,109.44762754375,109.59077271458334,71.0,86.0
466,109.44762754375,109.69157917291668,64.0,72.0
467,109.20569204375,109.73593401458334,56.0,63.0
468,109.68956304375001,109.91335338125,47.0,63.0
469,109.93149854375,110.11093403958334,64.0,68.0
470,110.17343404375,110.67948246458334,68.0,65.0
471,110.17343404375,110.74399859791667,64.0,81.0
472,110.17343404375,110.75004698541667,61.0,66.0
473,110.89924054375001,111.27222443958334,57.0,69.0
474,111.14117604375001,111.49803090625001,68.0,63.0
475,111.14117604375001,111.51415993958334,61.0,69.0
476,111.14117604375001,111.53633736041667,64.0,76.0
477,111.38311154375,111.68956317708333,57.0,53.0
478,110.65730504375,111.69359543541668,52.0,60.0
479,111.62504704375002,111.72182124375001,61.0,31.0
480,110.17343404375,111.75811156875,45.0,63.0
481,112.10891804375001,112.57867613958334,68.0,79.0
482,112.10891804375001,112.64924066041667,61.0,70.0
483,112.10891804375001,112.66738582291667,64.0,68.0
484,112.83472454375001,112.97383745625001,61.0,51.0
485,112.59278904375,113.16335359791668,58.0,44.0
486,113.07666004375,113.43553103541667,61.0,77.0
487,113.07666004375,113.43754716458334,64.0,76.0
488,113.07666004375,113.43754716458334,68.0,86.0
489,113.31859554375,113.53835362291667,58.0,48.0
490,112.10891804375001,113.62706330625001,46.0,79.0
491,113.56053104375,113.73391815208333,66.0,72.0
492,113.80246654375,113.98391816875001,68.0,65.0
493,114.04440204375001,114.17545043958333,35.0,97.0
494,114.04440204375001,114.69359563541667,59.0,90.0
495,114.04440204375001,114.73795047708333,64.0,77.0
496,114.04440204375001,115.23593438125,71.0,97.0
497,114.77020854375002,115.46577310625,52.0,70.0
498,114.52827304375,115.51416020625001,47.0,63.0
499,115.25407954375001,115.52020859375,59.0,79.0
500,115.01214404375,115.76416022291667,54.0,79.0
501,115.49601504375,115.78835377291668,64.0,65.0
502,115.73795054375,115.86295055208333,66.0,94.0
503,116.22182154375,116.33472477708334,83.0,66.0
504,116.22182154375,116.34077316458334,71.0,66.0
505,116.22182154375,116.49399898125,54.0,79.0
506,116.46375704375001,116.49399898125,54.0,81.0
507,116.46375704375001,116.69762802708334,59.0,56.0
508,116.58472479375001,116.70166028541666,81.0,85.0
509,116.58472479375001,116.72182157708335,69.0,53.0
510,116.70569254375,117.01416030625,59.0,54.0
511,116.94762804375,117.09278934375001,80.0,96.0
512,116.94762804375,117.10891837708334,68.0,59.0
513,115.97988604375001,117.33472484375,47.0,78.0
514,116.94762804375,117.33674097291667,54.0,86.0
515,117.27020871041668,117.37303129791667,78.0,91.0
516,117.27020871041668,117.38916033125,66.0,84.0
517,117.51214421041666,117.62907970208335,76.0,72.0
518,117.51214421041666,117.64319260625001,64.0,60.0
519,117.91537004375002,118.38916039791667,68.0,85.0
520,117.91537004375002,118.40327330208333,40.0,82.0
521,117.91537004375002,118.43956362708334,64.0,85.0
522,117.91537004375002,118.53835395625,59.0,74.0
523,118.39924104375001,118.75206364791667,52.0,54.0
524,118.64117654375,119.15528948125001,54.0,60.0
525,118.88311204375,119.16738625625001,56.0,60.0
526,119.12504754375001,119.30851529791667,68.0,103.0
527,119.36698304375,119.46577337291667,68.0,22.0
528,119.36698304375,119.64924112708334,71.0,90.0
529,119.60891854375001,119.90327340208333,76.0,96.0
530,119.85085404375,120.15125728958333,39.0,86.0
531,120.09278954375,120.45367666458333,51.0,60.0
532,119.85085404375,120.51819279791667,66.0,85.0
533,119.85085404375,120.55649925208334,75.0,101.0
534,120.57666054375,120.60085409375,75.0,31.0
535,120.57666054375,120.99601541041667,71.0,78.0
536,120.57666054375,121.03835412291667,66.0,78.0
537,120.57666054375,121.15932187291668,78.0,94.0
538,120.33472504375001,121.21980574791667,54.0,77.0
539,121.06053154375002,121.27020897708334,59.0,72.0
540,120.81859604375,121.27222510625,56.0,63.0
541,121.30246704375,121.49803157291666,73.0,84.0
542,121.54440254375001,121.78230578541667,75.0,84.0
543,121.78633804374999,122.19561226458333,76.0,96.0
544,121.78633804374999,122.23391871875,71.0,77.0
545,121.78633804374999,122.26617678541666,68.0,60.0
546,122.02827354375,122.61698326041667,56.0,63.0
547,122.51214454375,122.71778971875,68.0,86.0
548,122.27020904375001,122.76214456041669,61.0,59.0
549,122.51214454375,122.83270908125002,64.0,68.0
550,122.75408004375001,123.03432199791666,56.0,60.0
551,122.99601554375002,123.37101556875001,64.0,76.0
552,122.99601554375002,123.37101556875001,71.0,94.0
553,121.78633804374999,123.39722524791668,49.0,72.0
554,123.23795104375,123.61093493958333,56.0,65.0
555,123.47988654375001,124.13714465208335,66.0,72.0
556,123.72182204375,124.26012853125002,63.0,82.0
557,123.72182204375,124.26617691875,71.0,86.0
558,123.96375754375,124.67746726875001,56.0,60.0
559,124.44762854375,124.79440276041666,63.0,68.0
560,124.68956404375001,124.87706405624999,64.0,68.0
561,124.20569304375002,124.94561244791666,59.0,54.0
562,124.93149954375,124.99399954791667,63.0,31.0
563,124.93149954375,125.08472536041668,66.0,70.0
564,123.72182204375,125.20972536875001,47.0,63.0
565,125.17343504375,125.29238666458335,56.0,74.0
566,125.17343504375,125.36899957291666,68.0,68.0
567,125.41537054375002,126.13512865625,71.0,84.0
568,125.65730604375,126.25408027708335,64.0,66.0
569,125.65730604375,126.26012866458333,61.0,68.0
570,125.65730604375,126.28633834375,69.0,66.0
571,126.38311254375,126.54037061875002,61.0,57.0
572,126.14117704375002,126.71174159791667,57.0,56.0
573,126.62504804375001,126.95569322708334,61.0,76.0
574,126.62504804375001,127.10891904375,64.0,70.0
575,126.62504804375001,127.15932227291668,69.0,70.0
576,125.89924154375001,127.29037066875,52.0,76.0
577,127.10891904375,127.29641905625002,61.0,53.0
578,126.86698354375,127.34480615625,57.0,39.0
579,125.65730604375,127.36899970625001,45.0,72.0
580,127.35085454375002,127.45569326041667,61.0,51.0
581,127.35085454375002,127.47787068125001,64.0,79.0
582,127.35085454375002,127.53029003958335,69.0,53.0
583,127.59279004375,127.64319327291668,64.0,68.0
584,127.59279004375,127.67746746875,61.0,60.0
585,127.59279004375,127.75004811875002,69.0,41.0
586,128.07666104375,128.13714491875,69.0,27.0
587,128.07666104375,128.34077396458335,57.0,63.0
588,128.31859654375,128.43149977708333,81.0,72.0
589,128.31859654375,128.44561268125,69.0,59.0
590,128.56053204375002,128.66335463125,57.0,57.0
591,128.56053204375002,128.69158043958333,69.0,60.0
592,128.56053204375002,128.70569334375,81.0,63.0
593,128.80246754375,128.97383852291668,57.0,23.0
594,129.04440304375,129.14319337291667,80.0,79.0
595,127.83472554375001,129.15529014791667,52.0,90.0
596,129.04440304375,129.16537079375001,68.0,69.0
597,127.59279004375,129.17343531041666,45.0,48.0
598,129.04440304375,129.25206434791667,57.0,39.0
599,129.28633854375002,129.41133855208335,78.0,60.0
600,129.28633854375002,129.41738693958334,66.0,65.0
601,129.52827404375,129.76214502708333,78.0,82.0
602,129.52827404375,129.84077406458334,66.0,74.0
603,129.77020954375,130.28029022291668,54.0,74.0
604,130.01214504375,130.30649990208335,59.0,50.0
605,130.25408054375,130.57262895208333,66.0,79.0
606,130.25408054375,130.59480637291668,64.0,79.0
607,130.73795154375,130.93351607291666,59.0,65.0
608,130.49601604375002,130.97988704375,54.0,85.0
609,129.52827404375,131.05851608125002,47.0,76.0
610,130.97988704375,131.08875801875,64.0,82.0
611,131.22182254375,131.60690321458333,59.0,90.0
612,131.22182254375,131.60891934375002,63.0,81.0
613,131.70569354375002,131.8407741979167,47.0,60.0
614,131.70569354375002,131.94762904375,66.0,96.0
615,131.70569354375002,131.96375807708333,54.0,74.0
616,131.70569354375002,131.96779033541668,59.0,62.0
617,131.94762904375,132.16133873541668,47.0,50.0
618,132.18956454375,132.44158068958333,64.0,74.0
619,132.18956454375,132.45972585208335,59.0,78.0
620,132.18956454375,132.49601617708333,56.0,56.0
621,132.43150004375002,132.75004845208335,47.0,50.0
622,131.46375804375,132.89722588125,35.0,85.0
623,132.67343554375,133.08875815208333,59.0,70.0
624,132.67343554375,133.11900008958335,63.0,63.0
625,132.67343554375,133.13714525208334,54.0,85.0
626,132.67343554375,133.24601622708335,66.0,60.0
627,132.91537104375,133.43351623958333,47.0,50.0
628,133.15730654375,133.46577430625,46.0,77.0
629,133.39924204375,133.99803240625002,63.0,88.0
630,133.39924204375,134.00206466458334,59.0,70.0
631,133.39924204375,134.01214531041668,54.0,81.0
632,133.64117754375002,134.07262918541667,66.0,2.0
633,134.36698404375,134.88311311041667,66.0,60.0
634,134.36698404375,134.90125827291666,59.0,90.0
635,134.36698404375,134.90730666041668,63.0,97.0
636,134.36698404375,134.90932278958334,54.0,76.0
637,135.09279054375,135.19158087291666,54.0,37.0
638,134.85085504375002,135.21577442291667,61.0,62.0
639,135.09279054375,135.26819378125,63.0,74.0
640,133.39924204375,135.29440346041667,44.0,77.0
641,135.33472604375,135.69359703541667,54.0,84.0
642,135.33472604375,135.69359703541667,63.0,72.0
643,135.33472604375,135.71980671458334,59.0,86.0
644,135.33472604375,135.86295188541666,66.0,69.0
645,136.06053254375,136.20166158541667,59.0,60.0
646,136.06053254375,136.21375836041668,54.0,56.0
647,136.06053254375,136.23190352291667,63.0,63.0
648,135.33472604375,136.64722613125,44.0,33.0
649,136.30246804375,136.81658098125,66.0,74.0
650,136.30246804375,136.83875840208333,59.0,85.0
651,136.30246804375,136.86900033958335,54.0,86.0
652,136.30246804375,136.87908098541666,63.0,77.0
653,136.78633904375002,136.92141969791666,44.0,69.0
654,137.02827454375,137.17343584375,61.0,51.0
655,137.02827454375,137.21980681458334,63.0,74.0
656,137.27021004375,137.74400039791666,64.0,68.0
657,137.27021004375,137.75004878541668,59.0,82.0
658,137.27021004375,137.75609717291667,56.0,63.0
659,137.27021004375,138.14924236041668,49.0,38.0
660,137.99601654375002,138.15327461875,59.0,65.0
661,137.99601654375002,138.15932300625002,56.0,50.0
662,137.99601654375002,138.20367784791668,64.0,54.0
663,138.23795204375,138.60287142291668,49.0,63.0
664,138.23795204375,138.75609723958334,59.0,78.0
665,138.23795204375,138.82867788958333,64.0,38.0
666,138.23795204375,138.84279079375,56.0,60.0
667,137.27021004375,139.02424241875002,37.0,66.0
668,138.96375854375,139.25206501458334,49.0,47.0
669,139.20569404375001,139.41537147708334,59.0,82.0
670,139.20569404375001,139.44158115625,56.0,60.0
671,139.20569404375001,139.50408116041666,64.0,79.0
672,139.20569404375001,139.60891987708334,37.0,74.0
673,139.44762954375,139.61295213541666,54.0,74.0
674,139.44762954375,139.61698439375002,49.0,45.0
675,139.44762954375,139.76214569375,63.0,88.0
676,139.93150054375002,140.06254893958334,56.0,60.0
677,139.93150054375002,140.10488765208333,64.0,82.0
678,140.17343604375,140.50609735625,54.0,57.0
679,140.17343604375,140.54037155208334,63.0,79.0
680,140.17343604375,140.54843606875,35.0,91.0
681,140.41537154375,140.72585543541666,47.0,65.0
682,140.65730704375,140.86698447708335,59.0,79.0
683,140.89924254375,141.04238771458333,61.0,63.0
684,141.14117804375002,141.91738777291667,64.0,72.0
685,141.14117804375002,141.91940390208333,61.0,70.0
686,141.14117804375002,141.94561358125,69.0,54.0
687,141.14117804375002,142.58875878541667,57.0,47.0
688,142.10892004375,142.62706523958335,64.0,76.0
689,142.10892004375,142.63109749791667,69.0,72.0
690,142.10892004375,142.64319427291667,61.0,76.0
691,141.14117804375002,142.65327491875001,45.0,45.0
692,143.07666204375002,143.61900078958334,63.0,90.0
693,143.07666204375002,143.63109756458334,59.0,72.0
694,143.07666204375002,143.64319433958335,66.0,92.0
695,143.07666204375002,143.66537176041666,71.0,72.0
696,143.07666204375002,144.27222663958335,47.0,54.0
697,143.07666204375002,144.49198471875002,35.0,57.0
698,144.04440404375,144.51416213958333,63.0,91.0
699,144.04440404375,144.52625891458334,66.0,90.0
700,144.04440404375,144.59279117708334,59.0,72.0
701,144.04440404375,144.62706537291666,69.0,57.0
702,144.52827504375,144.65730731041668,47.0,53.0
703,145.01214604375,145.43150091041667,40.0,88.0
704,145.01214604375,145.50206543125,59.0,63.0
705,145.01214604375,145.50811381875002,68.0,69.0
706,145.01214604375,145.53230736875,64.0,68.0
707,145.97988804375,146.39722678125,64.0,65.0
708,145.97988804375,146.4415816229167,61.0,50.0
709,145.97988804375,146.45367839791666,69.0,57.0
710,146.94763004375,148.38686301250002,71.0,19.0
711,146.94763004375,148.40221388125002,64.0,31.0
712,146.94763004375,148.47238928125,59.0,38.0
713,145.49601704375002,148.48993313125,52.0,50.0
714,148.96800304375,151.75832581041666,76.0,56.0
715,148.96800304375,151.77848710208335,72.0,60.0
716,148.96800304375,151.80268065208332,69.0,52.0
717,152.83897104375,153.41961624375,52.0,75.0
718,153.32284204375,153.71598723125,59.0,69.0
719,153.80671304375,153.89340659791668,66.0,63.0
720,154.29058404375002,154.42566469791666,68.0,69.0
721,156.69457804375,158.66275435416668,66.0,75.0
722,156.69457804375,159.67612292291668,57.0,74.0
723,156.69457804375,159.69830034375002,64.0,80.0
724,156.69457804375,159.71644550625,60.0,83.0
725,164.31962904374998,164.75309681458333,59.0,66.0
726,164.31962904374998,164.79745165625,56.0,18.0
727,164.31962904374998,164.8982581145833,64.0,50.0
728,164.80350004375,165.31911707708332,52.0,5.0
729,165.28737104375,165.721894875,59.0,65.0
730,165.28737104375,165.75562503541667,56.0,44.0
731,165.28737104375,165.76157741666665,64.0,38.0
732,164.31962904374998,165.86276789791665,40.0,47.0
733,165.76356154375,166.08697425833333,52.0,27.0
734,166.23975204375,166.71395841666666,64.0,68.0
735,166.47784729375,166.79729175416668,60.0,2.0
736,166.23975204375,166.91832350625,57.0,42.0
737,166.23975204375,167.31911717708334,52.0,27.0
738,167.19213304375,167.58895846041668,60.0,47.0
739,167.19213304375,167.60483147708334,64.0,68.0
740,167.19213304375,167.66832354375,57.0,38.0
741,166.23975204375,167.7457045,40.0,35.0
742,167.66832354375,167.86276799791668,52.0,45.0
743,168.14451404375,168.7337997875,64.0,60.0
744,168.14451404375,168.74768867708335,59.0,50.0
745,168.14451404375,168.76157756666666,68.0,54.0
746,168.14451404375,168.76157756666666,71.0,39.0
747,168.14451404375,169.3290379125,52.0,56.0
748,169.09689504375,169.45602204583332,71.0,37.0
749,169.09689504375,169.55324427291666,68.0,59.0
750,169.09689504375,169.57308554375,59.0,47.0
751,169.09689504375,169.58895856041667,64.0,60.0
752,169.57308554375,170.03935540833334,52.0,50.0
753,170.04927604375,170.51356178125,64.0,56.0
754,170.04927604375,170.674276075,69.0,42.0
755,170.04927604375,170.7099903625,60.0,41.0
756,170.52546654374999,171.3081086770833,52.0,19.0
757,171.00165704375,171.4714151395833,64.0,78.0
758,171.00165704375,171.5016570770833,60.0,44.0
759,171.00165704375,171.57020546874998,69.0,53.0
760,171.72746354375,172.09644828124996,66.0,91.0
761,171.96939904374997,172.53702224999998,64.0,53.0
762,171.96939904374997,172.55546488124997,68.0,69.0
763,171.96939904374997,172.56571078749997,59.0,57.0
764,171.48552804374998,173.18082863958332,52.0,65.0
765,172.95300604374998,173.46711898124997,68.0,63.0
766,172.95300604374998,173.52155446874997,59.0,53.0
767,172.95300604374998,173.55179640625,64.0,54.0
768,171.96939904374997,173.58203834374999,40.0,56.0
769,173.43687704374997,173.67881254374998,52.0,53.0
770,173.92074804374997,174.46711904791664,64.0,74.0
771,173.92074804374997,174.69090938541666,60.0,41.0
772,173.92074804374997,174.6989739020833,69.0,59.0
773,173.92074804374997,175.12236102708331,48.0,35.0
774,174.88849004374998,175.3461513645833,64.0,82.0
775,174.88849004374998,175.4429255645833,60.0,41.0
776,174.88849004374998,175.49937718124997,69.0,60.0
777,175.37236104374998,175.86429656041665,48.0,50.0
778,175.85623204374997,176.3864740145833,66.0,84.0
779,175.85623204374997,176.40663530624997,63.0,72.0
780,175.85623204374997,176.42074821041663,59.0,60.0
781,175.85623204374997,176.93082888958332,56.0,42.0
782,176.82397404374998,177.32599020624997,66.0,77.0
783,176.82397404374998,177.36026440208332,59.0,56.0
784,176.82397404374998,177.3663127895833,63.0,65.0
785,175.85623204374997,177.5961515145833,44.0,47.0
786,177.30784504374998,177.73324829791665,56.0,41.0
787,177.79171604374997,178.39655479374997,59.0,59.0
788,177.79171604374997,178.44494189374998,68.0,60.0
789,177.79171604374997,178.6304257770833,65.0,56.0
790,177.79171604374997,178.89655482708332,49.0,72.0
791,178.75945804375,179.24332904374998,68.0,79.0
792,178.75945804375,179.2473613020833,65.0,54.0
793,178.75945804375,179.3138935645833,61.0,69.0
794,178.75945804375,179.32800646874998,37.0,70.0
795,179.24332904374998,179.73929681874998,49.0,54.0
796,179.72720004374997,180.18486136458333,64.0,63.0
797,179.72720004374997,180.1969581395833,61.0,86.0
798,179.72720004374997,180.46711944791664,57.0,50.0
799,180.21107104374997,180.80263436041665,49.0,50.0
800,180.69494204375,181.07378822916667,61.0,76.0
801,180.69494204375,181.1276343875,64.0,77.0
802,180.69494204375,181.16032669791664,54.0,38.0
803,179.72720004374997,181.23148055,42.0,74.0
804,180.69494204375,181.23340362708333,57.0,53.0
805,181.15648054374998,181.63786031458332,49.0,50.0
806,181.61801904375,182.08825716249999,64.0,74.0
807,181.61801904375,182.1715905,60.0,57.0
808,181.61801904375,182.21127304166666,57.0,39.0
809,182.09420954375,182.74103497291665,54.0,29.0
810,182.57040004375,183.01286038333333,60.0,77.0
811,182.57040004375,183.02079689166666,64.0,53.0
812,182.57040004375,183.02674927291667,57.0,74.0
813,181.61801904375,183.0644476875,42.0,82.0
814,183.04659054375,183.53270167916665,54.0,60.0
815,183.52278104375,183.94143185833332,64.0,62.0
816,183.52278104375,183.95928900208332,59.0,76.0
817,183.52278104375,184.01484456041666,52.0,54.0
818,183.52278104375,184.05055884791668,56.0,54.0
819,183.52278104375,184.08032075416665,40.0,42.0
820,183.99897154375,184.338257275,66.0,85.0
821,184.47516204375,184.91163765000002,59.0,82.0
822,184.47516204375,184.93008028125,54.0,60.0
823,184.47516204375,184.99565408125,51.0,50.0
824,184.47516204375,185.0222934375,63.0,76.0
825,184.47516204375,185.04893279375,39.0,47.0
826,185.45876904375,185.85997874791667,59.0,70.0
827,185.45876904375,185.94868843125002,56.0,54.0
828,185.45876904375,186.00514004791668,49.0,50.0
829,185.45876904375,186.16038199375,64.0,72.0
830,186.42651104375,186.73901106458334,59.0,77.0
831,186.18457554375001,186.74505945208335,56.0,41.0
832,185.94264004375,186.81965623125,52.0,50.0
833,186.66844654375,186.84384978125001,64.0,63.0
834,186.91038204375002,187.15030141458334,66.0,62.0
835,187.15231754375,187.90433372291668,71.0,85.0
836,187.39425304375,187.93457566041667,64.0,85.0
837,187.39425304375,187.94264017708335,61.0,63.0
838,187.39425304375,187.95070469375,69.0,63.0
839,187.87812404375,188.45574504375,49.0,39.0
840,188.36199504375,188.83660441875,54.0,38.0
841,188.36199504375,188.87371379375,64.0,57.0
842,188.36199504375,188.88933879375,69.0,54.0
843,187.39425304375,188.90691691875,42.0,65.0
844,188.36199504375,188.91082316875,61.0,69.0
845,188.83074504375,188.93035441875,49.0,68.0
846,189.29949504375,189.81316691875,64.0,45.0
847,189.29949504375,189.86785441875,61.0,60.0
848,189.29949504375,189.88738566875,69.0,42.0
849,190.23699504375,190.45921727708333,66.0,77.0
850,190.23699504375,190.719137925,47.0,62.0
851,190.23699504375,190.72310617916668,64.0,70.0
852,190.23699504375,190.75882046666666,59.0,65.0
853,190.71318554375,191.04651889375,66.0,78.0
854,190.95128079375,191.15366175625,68.0,76.0
855,191.18937604375,191.51477288541668,71.0,59.0
856,191.18937604375,191.55842368125,64.0,65.0
857,191.18937604375,191.58223320625,59.0,54.0
858,191.66556654375,192.18983397083335,47.0,45.0
859,192.14175704375,192.39944937291668,59.0,68.0
860,192.14175704375,192.41675706666666,64.0,76.0
861,192.14175704375,192.42829552916666,56.0,76.0
862,192.14175704375,192.44368014583333,52.0,45.0
863,191.18937604375,192.45137245416666,40.0,50.0
864,192.60329554375,192.78791094375,59.0,84.0
865,192.37252629375,192.86675710416668,47.0,78.0
866,192.83406479375,192.978295575,64.0,94.0
867,193.06483404375,193.35515664375,61.0,72.0
868,193.06483404375,193.47814052291668,64.0,72.0
869,193.06483404375,193.55676956041668,57.0,68.0
870,193.06483404375,193.77854376875,40.0,76.0
871,193.54870504375,193.84709216041668,52.0,70.0
872,193.30676954375002,193.95394700625002,47.0,53.0
873,193.79064054375002,194.0961006625,59.0,74.0
874,194.03257604375,194.17601873125,61.0,70.0
875,194.27847779375,194.460854925,64.0,84.0
876,194.03257604375,194.542822175,40.0,82.0
877,194.27847779375,194.6288877875,47.0,66.0
878,194.52437954375,194.69651076875,52.0,53.0
879,194.52437954375,194.821510825,66.0,68.0
880,194.77028129375,195.0673194125,69.0,86.0
881,195.01618304375,195.71883462916668,59.0,76.0
882,195.01618304375,195.7264103875,68.0,91.0
883,195.01618304375,195.74156190416667,64.0,86.0
884,195.01618304375,195.75103160208334,71.0,76.0
885,195.01618304375,196.14154389583334,52.0,81.0
886,195.92527404375,196.45900422916665,71.0,68.0
887,195.92527404375,196.47090899166665,59.0,69.0
888,195.92527404375,196.47487724583334,64.0,74.0
889,195.92527404375,196.47487724583334,68.0,60.0
890,195.01618304375,196.6574169375,40.0,86.0
891,196.40146454375,196.67924233541666,52.0,76.0
892,196.87765504375,197.43321062708333,51.0,66.0
893,196.87765504375,197.53043285416666,66.0,88.0
894,196.87765504375,197.56813126875,59.0,70.0
895,196.87765504375,197.57209952291666,63.0,88.0
896,196.87765504375,197.58202015833334,71.0,79.0
897,197.59194079374998,197.98124573125,51.0,65.0
898,197.83003604375,198.12237477291666,71.0,85.0
899,197.83003604375,198.12842316041667,66.0,68.0
900,197.83003604375,198.13245541875,59.0,72.0
901,197.83003604375,198.14253606458334,63.0,65.0
902,198.07197154375,198.34616511041668,51.0,70.0
903,198.31390704375,198.39455221041666,59.0,45.0
904,196.87765504375,198.41471350208334,39.0,82.0
905,198.31390704375,198.43285866458334,66.0,54.0
906,198.31390704375,198.66471351875,68.0,79.0
907,198.79777804375,199.01350386458333,37.0,78.0
908,198.79777804375,199.11431032291668,49.0,68.0
909,198.55584254375,199.51148776875,71.0,81.0
910,198.79777804375,199.55181035208332,68.0,78.0
911,198.79777804375,199.56592325625,64.0,68.0
912,198.79777804375,199.57600390208333,61.0,72.0
913,199.52358454375,200.13245555208334,49.0,63.0
914,199.76552004375,200.33205233958333,68.0,77.0
915,199.76552004375,200.35826201875,61.0,77.0
916,199.76552004375,200.36431040625,64.0,86.0
917,200.24939104375,200.40261686041666,49.0,79.0
918,200.73326204375,201.14858465208334,59.0,74.0
919,200.73326204375,201.24939111041667,64.0,85.0
920,200.73326204375,201.30382659791667,68.0,72.0
921,201.21713304375,201.91061944583333,56.0,54.0
922,201.70100404375,202.02408099375,63.0,91.0
923,201.45906854375,202.05100407291667,59.0,63.0
924,201.93177329375,202.10485023125,64.0,79.0
925,200.73326204375,202.21061947083334,47.0,81.0
926,202.16254254375,202.22408101041668,64.0,47.0
927,202.16254254375,202.2490810125,56.0,65.0
928,202.16254254375,202.34715794375,66.0,84.0
929,202.39331179375,202.7649540666667,71.0,88.0
930,202.62408104375,203.2371763125,61.0,69.0
931,202.62408104375,203.24511282083336,64.0,81.0
932,202.62408104375,203.4851921979167,69.0,48.0
933,203.57646204375,204.14392238958334,64.0,79.0
934,203.57646204375,204.17368429583334,61.0,77.0
935,202.62408104375,204.84630337708333,57.0,42.0
936,204.52884304375002,205.23916053958334,64.0,69.0
937,204.52884304375002,205.2609859375,61.0,54.0
938,203.57646204375,205.28677958958335,69.0,44.0
939,205.24312879375,205.72130342083335,57.0,42.0
940,202.62408104375,206.010985975,45.0,41.0
941,205.48122404375002,206.0506685166667,61.0,74.0
942,205.48122404375002,206.0506685166667,64.0,85.0
943,205.48122404375002,206.07646216875,69.0,56.0
944,205.95741454375002,206.09828756666667,57.0,45.0
945,206.43360504375002,206.9435257041667,59.0,76.0
946,206.43360504375002,207.02884316875,66.0,77.0
947,206.43360504375002,207.13995428541668,64.0,84.0
948,206.43360504375002,207.21336698750002,71.0,86.0
949,206.90979554375002,207.56991443125003,54.0,60.0
950,207.38598604375002,207.69670001875002,64.0,82.0
951,207.60027154375,207.86991413125003,66.0,81.0
952,207.14789079375,207.88241411875003,59.0,72.0
953,207.81455704375003,207.88419983125002,71.0,47.0
954,206.43360504375002,207.98419973125002,47.0,81.0
955,207.81455704375003,208.11455674375003,54.0,76.0
956,208.02884254375002,208.32509529375002,63.0,85.0
957,208.02884254375002,208.33329201875003,71.0,96.0
958,208.48902979375003,208.61607903125002,61.0,72.0
959,208.48902979375003,208.63862002500002,69.0,94.0
960,208.73493154375004,208.98877771875004,54.0,63.0
961,208.96570079375005,209.29324424375002,59.0,63.0
962,208.96570079375005,209.29324424375002,68.0,68.0
963,209.19647004375003,209.42630876875003,54.0,78.0
964,208.24312804375003,209.76300233958335,47.0,72.0
965,209.43840554375004,209.76300233958335,66.0,79.0
966,209.68034104375002,209.7670345979167,54.0,88.0
967,209.43840554375004,209.7972765354167,59.0,60.0
968,209.68034104375002,209.87388944375002,68.0,72.0
969,209.92227654375003,210.0634055854167,64.0,56.0
970,210.16421204375,210.52333904583335,59.0,70.0
971,210.16421204375,210.52730730000002,63.0,82.0
972,210.16421204375,210.52730730000002,66.0,90.0
973,210.16421204375,210.5630215875,71.0,66.0
974,210.64040254375,210.99357716458334,59.0,54.0
975,210.87849779375,211.09278351875002,66.0,92.0
976,210.40230729375,211.19000574583333,56.0,42.0
977,211.11659304375002,211.19992638125,66.0,57.0
978,211.11659304375002,211.38643432708335,59.0,76.0
979,211.35468829375,211.38643432708335,59.0,69.0
980,211.35468829375,211.55706925625,66.0,94.0
981,211.11659304375002,211.63841846666668,71.0,85.0
982,211.35468829375,211.64238672083334,56.0,39.0
983,210.16421204375,211.75945021875,44.0,72.0
984,211.59278354375002,212.04318039166668,51.0,72.0
985,211.83087879375,212.10608341875002,63.0,88.0
986,211.83087879375,212.12170841875002,59.0,76.0
987,211.83087879375,212.13342716875002,66.0,92.0
988,211.83087879375,212.21741154375002,71.0,65.0
989,212.53772404375002,212.81311466875002,56.0,54.0
990,212.77209904375002,212.88733341875002,71.0,54.0
991,212.77209904375002,212.88928654375002,66.0,72.0
992,212.77209904375002,212.90100529375002,78.0,85.0
993,212.30334904375002,213.17053654375002,51.0,72.0
994,213.00647404375002,213.21350529375002,78.0,79.0
995,213.00647404375002,213.22327091875002,66.0,74.0
996,213.00647404375002,213.27014591875002,71.0,84.0
997,213.24084904375002,213.27014591875002,71.0,69.0
998,213.00647404375002,213.33850529375002,56.0,47.0
999,213.24084904375002,213.47913029375002,68.0,72.0
1000,213.24084904375002,213.49280216875002,76.0,97.0
1001,212.06897404375002,213.57483341875002,44.0,60.0
1002,213.47522404375002,213.62366154375002,51.0,84.0
1003,213.70959904375002,213.84827091875002,66.0,70.0
1004,213.47522404375002,213.87170841875002,56.0,44.0
1005,213.70959904375002,213.91272404375002,75.0,90.0
1006,213.94397404375002,214.28671600208335,76.0,96.0
1007,213.94397404375002,214.30284503541668,71.0,84.0
1008,213.94397404375002,214.33510310208334,68.0,63.0
1009,214.42784504375,214.73228054791667,61.0,60.0
1010,214.66978054375002,215.02663540625002,68.0,69.0
1011,214.66978054375002,215.03873218125003,64.0,72.0
1012,214.91171604375,215.19397412708335,61.0,50.0
1013,214.18590954375003,215.21413541875,56.0,57.0
1014,215.15365154375002,215.47219995208334,63.0,76.0
1015,215.15365154375002,215.50849027708335,66.0,88.0
1016,213.94397404375002,215.60123221875003,49.0,85.0
1017,215.63752254375,215.74639351875,64.0,81.0
1018,215.39558704375003,215.7967967479167,56.0,54.0
1019,215.63752254375,215.80486126458334,68.0,79.0
1020,216.11383304375002,216.22125491875002,68.0,54.0
1021,216.11383304375002,216.22125491875002,76.0,94.0
1022,216.34820804375002,216.45367679375002,68.0,66.0
1023,216.34820804375002,216.47906741875002,76.0,94.0
1024,216.11383304375002,216.61383304375002,56.0,63.0
1025,216.58258304375002,216.68805179375002,66.0,81.0
1026,216.58258304375002,216.68805179375002,75.0,72.0
1027,216.58258304375002,216.76227054375002,61.0,54.0
1028,216.81695804375002,216.91461429375002,66.0,79.0
1029,216.81695804375002,216.94586429375002,75.0,76.0
1030,215.87945804375002,216.94977054375002,49.0,78.0
1031,217.05133304375002,217.19000491875002,71.0,86.0
1032,217.05133304375002,217.28766116875002,64.0,72.0
1033,216.81695804375002,217.33062991875002,56.0,63.0
1034,217.28570804375002,217.50250491875002,47.0,63.0
1035,217.52008304375002,217.69391116875002,64.0,68.0
1036,217.75445804375002,218.24469241875002,68.0,65.0
1037,217.75445804375002,218.30719241875002,64.0,81.0
1038,217.75445804375002,218.31305179375002,61.0,66.0
1039,218.45758304375002,218.81891116875002,57.0,69.0
1040,218.69195804375002,219.03766116875002,68.0,63.0
1041,218.69195804375002,219.05328616875002,61.0,69.0
1042,218.69195804375002,219.07477054375002,64.0,76.0
1043,218.92633304375002,219.22320804375002,57.0,53.0
1044,218.22320804375002,219.22711429375002,52.0,60.0
1045,219.16070804375002,219.25445804375002,61.0,31.0
1046,217.75445804375002,219.28961429375002,45.0,63.0
1047,219.62945804375002,220.08453616875002,68.0,79.0
1048,219.62945804375002,220.15289554375002,61.0,70.0
1049,219.62945804375002,220.17047366875002,64.0,68.0
1050,220.33258304375002,220.46734866875002,61.0,51.0
1051,220.09820804375002,220.65094241875002,58.0,44.0
1052,220.56695804375002,220.91461429375002,61.0,77.0
1053,220.56695804375002,220.91656741875002,64.0,76.0
1054,220.56695804375002,220.91656741875002,68.0,86.0
1055,220.80133304375002,221.01422366875002,58.0,48.0
1056,219.62945804375002,221.10016116875002,46.0,79.0
1057,221.03570804375002,221.20367679375002,66.0,72.0
1058,221.27008304375002,221.44586429375002,68.0,65.0
1059,221.50445804375002,221.63141116875002,35.0,97.0
1060,221.50445804375002,222.13336429375002,59.0,90.0
1061,221.50445804375002,222.17633304375002,64.0,77.0
1062,221.50445804375002,222.65218533750001,71.0,97.0
1063,222.20758304375002,222.86809445000003,52.0,70.0
1064,221.97320804375002,222.91354900000002,47.0,63.0
1065,222.66923079375002,222.91923081875,59.0,79.0
1066,222.44195804375002,223.14839750833335,54.0,79.0
1067,222.89650354375001,223.17112478333334,64.0,65.0
1068,223.12377629375,223.2412005479167,66.0,94.0
1069,223.58181829375002,223.68951061041668,83.0,66.0
1070,223.58181829375002,223.6952798416667,71.0,66.0
1071,223.58181829375002,223.8414337,54.0,79.0
1072,223.81258754375,223.8414337,54.0,81.0
1073,223.81258754375,224.03566448541667,59.0,56.0
1074,223.92797216875002,224.03951063958334,81.0,85.0
1075,223.92797216875002,224.05874141041667,69.0,53.0
1076,224.04335679375,224.3375875875,59.0,54.0
1077,224.27412604375002,224.41258759375,80.0,96.0
1078,224.27412604375002,224.42797221041667,68.0,59.0
1079,223.35104904375,224.64335684375,47.0,78.0
1080,224.27412604375002,224.64527992083333,54.0,86.0
1081,224.58181837708335,224.67989530833336,78.0,91.0
1082,224.58181837708335,224.69527992500002,66.0,84.0
1083,224.81258762708333,224.92412609791668,76.0,72.0
1084,224.81258762708333,224.9375876375,64.0,60.0
1085,225.19720304375002,225.66347290833335,68.0,85.0
1086,225.19720304375002,225.6773617979167,40.0,82.0
1087,225.19720304375002,225.7130760854167,64.0,85.0
1088,225.19720304375002,225.8102983125,59.0,74.0
1089,225.67339354375002,226.02061578333337,52.0,54.0
1090,225.91148879375,226.4174412,54.0,60.0
1091,226.14958404375002,226.4293459625,56.0,60.0
1092,226.38767929375,226.56823485833337,68.0,103.0
1093,226.62577454375003,226.72299677083336,68.0,22.0
1094,226.62577454375003,226.9035523354167,71.0,90.0
1095,226.86386979375,227.1535523479167,76.0,96.0
1096,227.10196504375003,227.3975999791667,39.0,86.0
1097,227.34006029375,227.6952190416667,51.0,60.0
1098,227.10196504375003,227.75871110833336,66.0,85.0
1099,227.10196504375003,227.7964095229167,75.0,101.0
1100,227.81625079375002,227.84006031875003,75.0,31.0
1101,227.81625079375002,228.22622104375003,71.0,78.0
1102,227.81625079375002,228.26723666875003,66.0,78.0
1103,227.81625079375002,228.38442416875003,78.0,94.0
1104,227.57815554375003,228.44301791875003,54.0,77.0
1105,228.28872104375003,228.49184604375003,59.0,72.0
1106,228.05434604375003,228.49379916875003,56.0,63.0
1107,228.52309604375003,228.71254916875003,73.0,84.0
1108,228.75747104375003,228.98793979375003,75.0,84.0
1109,228.99184604375003,229.38833041875003,76.0,96.0
1110,228.99184604375003,229.42543979375003,71.0,77.0
1111,228.99184604375003,229.45668979375003,68.0,60.0
1112,229.22622104375003,229.79653354375003,56.0,63.0
1113,229.69497104375003,229.89418979375003,68.0,86.0
1114,229.46059604375003,229.93715854375003,61.0,59.0
1115,229.69497104375003,230.00551791875003,64.0,68.0
1116,229.92934604375003,230.20083041875003,56.0,60.0
1117,230.16372104375003,230.52700229375003,64.0,76.0
1118,230.16372104375003,230.52700229375003,71.0,94.0
1119,228.99184604375003,230.55239291875003,49.0,72.0
1120,230.39809604375003,230.75942416875003,56.0,65.0
1121,230.63247104375003,231.26918979375003,66.0,72.0
1122,230.86684604375003,231.38833041875003,63.0,82.0
1123,230.86684604375003,231.39418979375003,71.0,86.0
1124,231.10122104375003,231.79262729375003,56.0,60.0
1125,231.56997104375003,231.90590854375003,63.0,68.0
1126,231.80434604375003,231.98598666875003,64.0,68.0
1127,231.33559604375003,232.05239291875003,59.0,54.0
1128,232.03872104375003,232.09926791875003,63.0,31.0
1129,232.03872104375003,232.18715854375003,66.0,70.0
1130,230.86684604375003,232.30825229375003,47.0,63.0
1131,232.27309604375003,232.38833041875003,56.0,74.0
1132,232.27309604375003,232.46254916875003,68.0,68.0
1133,232.50747104375003,233.20473666875003,71.0,84.0
1134,232.74184604375003,233.31997104375003,64.0,66.0
1135,232.74184604375003,233.32583041875003,61.0,68.0
1136,232.74184604375003,233.35122104375003,69.0,66.0
1137,233.44497104375003,233.59731479375003,61.0,57.0
1138,233.21059604375003,233.76333041875003,57.0,56.0
1139,233.67934604375003,233.99965854375003,61.0,76.0
1140,233.67934604375003,234.14809604375003,64.0,70.0
1141,233.67934604375003,234.19692416875003,69.0,70.0
1142,232.97622104375003,234.32387729375003,52.0,76.0
1143,234.14809604375003,234.32973666875003,61.0,53.0
1144,233.91372104375003,234.37661166875003,57.0,39.0
1145,232.74184604375003,234.40004916875003,45.0,72.0
1146,234.38247104375003,234.48403354375003,61.0,51.0
1147,234.38247104375003,234.50551791875003,64.0,79.0
1148,234.38247104375003,234.55629916875003,69.0,53.0
1149,234.61684604375003,234.66492297083337,64.0,68.0
1150,234.61684604375003,234.69761528125002,61.0,60.0
1151,234.61684604375003,234.76684605625002,69.0,41.0
1152,235.07838454375002,235.13607685625004,69.0,27.0
1153,235.07838454375002,235.3303076416667,57.0,63.0
1154,235.30915379375003,235.41684611041669,81.0,72.0
1155,235.30915379375003,235.43030765000003,69.0,59.0
1156,235.53992304375004,235.63799997500004,57.0,57.0
1157,235.53992304375004,235.6649230541667,69.0,60.0
1158,235.53992304375004,235.67838459375002,81.0,63.0
1159,235.77069229375002,235.93415384583335,57.0,23.0
1160,236.00146154375003,236.09569232083336,80.0,79.0
1161,234.84761529375004,236.10723078333336,52.0,90.0
1162,236.00146154375003,236.11684616875004,68.0,69.0
1163,234.61684604375003,236.12453847708338,45.0,48.0
1164,236.00146154375003,236.19953848333336,57.0,39.0
1165,236.23223079375003,236.3514615729167,78.0,60.0
1166,236.23223079375003,236.3572308041667,66.0,65.0
1167,236.46300004375004,236.6860769854167,78.0,82.0
1168,236.46300004375004,236.7610769916667,66.0,74.0
1169,236.69376929375002,237.18030779583336,54.0,74.0
1170,236.92453854375003,237.2053077979167,59.0,50.0
1171,237.15530779375004,237.4591539729167,66.0,79.0
1172,237.15530779375004,237.48030782083336,64.0,79.0
1173,237.61684629375003,237.80338477083336,59.0,65.0
1174,237.38607704375002,237.84761554375004,54.0,85.0
1175,236.46300004375004,237.92261555000002,47.0,76.0
1176,237.84761554375004,237.95146170625003,64.0,82.0
1177,238.07838479375002,238.4456925166667,59.0,90.0
1178,238.07838479375002,238.44761559375004,63.0,81.0
1179,238.53992329375004,238.66876945833337,47.0,60.0
1180,238.53992329375004,238.77069254375004,66.0,96.0
1181,238.53992329375004,238.7860771604167,54.0,74.0
1182,238.53992329375004,238.78992331458338,59.0,62.0
1183,238.77069254375004,238.97453871458336,47.0,50.0
1184,239.00146179375002,239.24184642916669,64.0,74.0
1185,239.00146179375002,239.2591541229167,59.0,78.0
1186,239.00146179375002,239.2937695104167,56.0,56.0
1187,239.23223104375003,239.5360772229167,47.0,50.0
1188,238.30915404375003,239.67646185000004,35.0,85.0
1189,239.46300029375004,239.8591541729167,59.0,70.0
1190,239.46300029375004,239.8880003291667,63.0,63.0
1191,239.46300029375004,239.9053080229167,54.0,85.0
1192,239.46300029375004,240.0091541854167,66.0,60.0
1193,239.69376954375002,240.1890382041667,47.0,50.0
1194,239.92453879375003,240.22078423750003,46.0,77.0
1195,240.15530804375004,240.74459378750004,63.0,88.0
1196,240.15530804375004,240.7485620416667,59.0,70.0
1197,240.15530804375004,240.75848267708338,54.0,81.0
1198,240.39340329375003,240.81800648958338,66.0,2.0
1199,241.10768904375004,241.61562557708336,66.0,60.0
1200,241.10768904375004,241.63348272083337,59.0,90.0
1201,241.10768904375004,241.63943510208338,63.0,97.0
1202,241.10768904375004,241.6414192291667,54.0,76.0
1203,241.82197479375003,241.91919702083337,54.0,37.0
1204,241.58387954375004,241.94300654583338,61.0,62.0
1205,241.82197479375003,241.99459385000003,63.0,74.0
1206,240.15530804375004,242.02038750208337,44.0,77.0
1207,242.06007004375004,242.40237776458338,54.0,84.0
1208,242.06007004375004,242.40237776458338,63.0,72.0
1209,242.06007004375004,242.42737776666672,59.0,86.0
1210,242.06007004375004,242.5639162395834,66.0,69.0
1211,242.75237779375004,242.88699318958336,59.0,60.0
1212,242.75237779375004,242.8985316520834,54.0,56.0
1213,242.75237779375004,242.91583934583338,63.0,63.0
1214,242.06007004375004,243.31713141875005,44.0,33.0
1215,242.98314704375005,243.48119391875005,66.0,74.0
1216,242.98314704375005,243.50267829375005,59.0,85.0
1217,242.98314704375005,243.53197516875005,54.0,86.0
1218,242.98314704375005,243.54174079375005,63.0,77.0
1219,243.45189704375005,243.58275641875005,44.0,69.0
1220,243.68627204375005,243.82689704375005,61.0,51.0
1221,243.68627204375005,243.87181891875005,63.0,74.0
1222,243.92064704375005,244.37963141875005,64.0,68.0
1223,243.92064704375005,244.38549079375005,59.0,82.0
1224,243.92064704375005,244.39135016875005,56.0,63.0
1225,243.92064704375005,244.77220954375005,49.0,38.0
1226,244.62377204375005,244.77611579375005,59.0,65.0
1227,244.62377204375005,244.78197516875005,56.0,50.0
1228,244.62377204375005,244.82494391875005,64.0,54.0
1229,244.85814704375005,245.21166266875005,49.0,63.0
1230,244.85814704375005,245.36010016875005,59.0,78.0
1231,244.85814704375005,245.43041266875005,64.0,38.0
1232,244.85814704375005,245.44408454375005,56.0,60.0
1233,243.92064704375005,245.61986579375005,37.0,66.0
1234,245.56127204375005,245.84056891875005,49.0,47.0
1235,245.79564704375005,245.99877204375005,59.0,82.0
1236,245.79564704375005,246.02416266875005,56.0,60.0
1237,245.79564704375005,246.08470954375005,64.0,79.0
1238,245.79564704375005,246.18627204375005,37.0,74.0
1239,246.03002204375005,246.19017829375005,54.0,74.0
1240,246.03002204375005,246.19408454375005,49.0,45.0
1241,246.03002204375005,246.33470954375005,63.0,88.0
1242,246.49877204375005,246.62572516875005,56.0,60.0
1243,246.49877204375005,246.66674079375005,64.0,82.0
1244,246.73314704375005,247.03205966875007,54.0,57.0
1245,246.73314704375005,247.06285672708339,63.0,79.0
1246,246.73314704375005,247.07010309375005,35.0,91.0
1247,246.95053804375004,247.2295231604167,47.0,65.0
1248,247.16792904375006,247.35633457708337,59.0,79.0
1249,247.38532004375006,247.5139430520834,61.0,63.0
1250,247.85271104375005,248.01521104375004,57.0,84.0
1251,247.85271104375005,248.01521104375004,69.0,90.0
1252,247.85271104375005,248.03187771041672,64.0,77.0
1253,247.85271104375005,248.03604437708339,61.0,79.0
1254,247.85271104375005,248.03812771041672,45.0,86.0
1255,248.1860443770834,248.30479437708337,44.0,86.0
1256,248.1860443770834,248.30479437708337,56.0,82.0
1257,248.1860443770834,248.35062771041672,59.0,84.0
1258,248.1860443770834,248.36729437708337,64.0,78.0
1259,248.1860443770834,248.37146104375006,68.0,79.0
1260,248.60271104375005,248.76104437708338,57.0,77.0
1261,248.60271104375005,248.7693777104167,45.0,86.0
1262,248.60271104375005,248.78187771041672,61.0,58.0
1263,248.60271104375005,248.78604437708339,69.0,80.0
1264,248.60271104375005,248.80687771041673,64.0,80.0
1265,248.97771104375005,249.15687771041672,71.0,80.0
1266,248.97771104375005,249.19229437708339,66.0,83.0
1267,248.97771104375005,249.19646104375005,59.0,86.0
1268,248.97771104375005,249.19646104375005,63.0,80.0
1269,248.97771104375005,249.2006277104167,47.0,91.0
1270,249.35271104375005,250.07354437708338,71.0,84.0
1271,249.35271104375005,250.89735381250006,59.0,91.0
1272,249.35271104375005,250.93009189791672,47.0,86.0
1273,249.3568777104167,251.0104490166667,35.0,100.0
1274,249.35271104375005,251.2872346479167,69.0,73.0
1275,249.35271104375005,251.3854489041667,66.0,86.0
1276,249.35271104375005,251.41521080000004,63.0,84.0
1277,254.41335704375004,255.74989561666672,71.0,19.0
1278,254.41335704375004,255.76335715625004,64.0,31.0
1279,254.41335704375004,255.8248956229167,59.0,38.0
1280,255.87874178125003,256.1595110354167,59.0,69.0
1281,256.13835718750005,256.63841729375,64.0,77.0
1282,256.36888604375,256.69896416875,61.0,63.0
1283,256.38646416875,256.71849541875,69.0,81.0
1284,256.87083916875,257.22435479375,59.0,67.0
1285,256.87474541875,257.25755791875,71.0,56.0
1286,256.37865166875,257.53880791875,52.0,62.0
1287,257.37279229375,257.70872979375,68.0,76.0
1288,257.40990166875,257.71068291875,64.0,57.0
1289,257.37669854375,257.71458916875,59.0,67.0
1290,257.72630791875,257.80443291875,52.0,84.0
1291,256.36497979375,257.81224541875,40.0,78.0
1292,258.13646416875,258.59349541875,68.0,78.0
1293,258.13255791875,258.65208916875,59.0,82.0
1294,258.13646416875,258.77708916875,64.0,80.0
1295,258.14037041875,259.39037041875,50.0,86.0
1296,259.12865166875,259.61302666875,59.0,68.0
1297,259.12865166875,259.61693291875,64.0,74.0
1298,259.12669854375,259.71458916875,68.0,71.0
1299,259.79271416875,260.36434977708336,50.0,14.0
1300,260.06394653125,260.59015624375,59.0,74.0
1301,260.07402717708334,260.61233366458333,64.0,76.0
1302,260.05789814375004,260.67483366875,68.0,76.0
1303,260.7554788354167,261.2111240270834,50.0,15.0
1304,258.14037041875,261.28572080625,38.0,86.0
1305,261.0155594979167,261.46515630208336,68.0,79.0
1306,261.00951111041667,261.4812853354167,59.0,76.0
1307,261.01152723958336,261.4812853354167,64.0,79.0
1308,261.45910791458334,261.52160791875,50.0,73.0
1309,261.44096275208335,261.88451116875,38.0,84.0
1310,261.93693052708335,262.40395006875,69.0,86.0
1311,261.9409627854167,262.46551720625,61.0,76.0
1312,261.93088213958333,262.50469629375,64.0,83.0
1313,261.94686071458335,263.00283040625,49.0,83.0
1314,262.87596478958335,263.35544219375,64.0,80.0
1315,262.87223344791664,263.36663621875,69.0,83.0
1316,262.87783046041665,263.40021829375,61.0,79.0
1317,263.3349198145833,263.9307112625,49.0,68.0
1318,263.78112103125,264.2749737125,69.0,82.0
1319,263.78931775625,264.34464587499997,64.0,79.0
1320,263.78931775625,264.393826225,61.0,75.0
1321,264.24013763125,264.93685925625,49.0,59.0
1322,261.94499504375,264.9553018875,37.0,90.0
1323,264.73603949375,265.1930069125,69.0,86.0
1324,265.18685936875,265.2503839875,49.0,79.0
1325,264.738088675,265.25243316875,61.0,80.0
1326,264.73194113125,265.25243316875,64.0,84.0
1327,265.17866264375,265.262679075,37.0,90.0
1328,265.6848104125,266.07415485,48.0,83.0
1329,265.69505631875,266.1930073625,69.0,84.0
1330,265.69505631875,266.2257942625,61.0,79.0
1331,265.69095795625,266.3159582375,64.0,86.0
1332,266.188909,266.82773306666667,48.0,51.0
1333,266.6438272375,267.12336800208334,69.0,82.0
1334,266.639728875,267.22455848333334,64.0,83.0
1335,266.639728875,267.2265426104167,61.0,76.0
1336,267.14717752708333,267.24241562708335,48.0,90.0
1337,265.68071205,267.28209816875,36.0,91.0
1338,267.66602676875004,267.95174116875,47.0,79.0
1339,267.65486605,268.1950448375,71.0,86.0
1340,267.6593303375,268.23745556875,64.0,82.0
1341,267.66156248125003,268.253080575,59.0,80.0
1342,268.71692004375006,268.80754504375005,64.0,72.0
1343,268.70620575625003,268.83879504375005,59.0,83.0
1344,268.7039736125,268.85442004375005,69.0,82.0
1345,268.15486625,269.06379504375,47.0,79.0
1346,269.30442004375004,269.37629504375,64.0,80.0
1347,267.66602676875004,269.39817004375004,35.0,98.0
1348,269.29817004375,269.42317004375,71.0,90.0
1349,269.32317004375005,269.44504504375004,47.0,79.0
1350,270.06067004375006,270.55129504375003,68.0,61.0
1351,270.05442004375004,270.56692004375003,59.0,78.0
1352,270.06067004375006,270.57004504375004,64.0,72.0
1353,270.72317004375003,270.86067004375,59.0,61.0
1354,270.89192004375,271.14817004375004,64.0,78.0
1355,271.07317004375005,271.20754504375003,66.0,68.0
1356,271.18567004375006,271.25129504375,68.0,75.0
1357,271.34192004375006,271.47629504375004,71.0,90.0
1358,271.50442004375003,271.69192004375003,76.0,76.0
1359,271.67629504375003,271.75754504375004,78.0,75.0
1360,271.91067004375003,272.06067004375006,83.0,12.0
1361,272.01379504375006,272.21692004375006,88.0,62.0
1362,270.55442004375004,272.45129504375006,52.0,80.0
1363,272.18254504375005,272.51067004375005,90.0,75.0
1364,270.07317004375005,272.57004504375004,40.0,84.0
1365,272.37004504375005,272.71692004375006,92.0,49.0
1366,272.69192004375003,272.75442004375003,95.0,80.0
