,start,end,pitch,velocity
0,27.68693936458333,28.151085375,74.0,94.0
1,28.152054364583332,28.616200375,74.0,94.0
2,28.617169364583333,29.099726177083333,74.0,82.0
3,29.082284364583334,29.330345697916666,72.0,84.0
4,29.314841864583332,30.942744364583334,69.0,66.0
5,30.942744364583334,31.187898729166665,65.0,64.0
6,31.175301864583332,31.436929052083332,67.0,85.0
7,31.407859364583334,32.123942666666665,69.0,91.0
8,32.105531864583334,32.802235375,72.0,93.0
9,32.80320436458333,35.12877936458333,72.0,95.0
10,35.12877936458333,35.592925375,67.0,94.0
11,35.593894364583335,36.058040375,67.0,91.0
12,36.05900936458333,36.523155375,67.0,93.0
13,36.52412436458333,36.76734075,67.0,92.0
14,36.756681864583335,38.38458436458333,60.0,87.0
15,38.38458436458333,38.67625022916667,67.0,95.0
16,38.61714186458333,38.84969936458333,60.0,91.0
17,38.84969936458333,39.313845375,62.0,84.0
18,39.314814364583334,39.778960375,62.0,89.0
19,39.77992936458333,42.57061936458333,62.0,97.0
20,42.57061936458333,43.034765375,77.0,79.0
21,43.035734364583334,43.499880375,77.0,80.0
22,43.50084936458333,43.965964364583336,77.0,79.0
23,43.965964364583336,44.23049852083333,76.0,83.0
24,44.198521864583334,45.82642436458333,77.0,98.0
25,45.82642436458333,46.1859195,74.0,91.0
26,46.05898186458333,46.361306614583334,72.0,80.0
27,46.29153936458333,47.45432686458333,69.0,90.0
28,47.45432686458333,47.918472875,72.0,97.0
29,47.919441864583334,48.459169062499996,72.0,93.0
30,48.15199936458333,50.012459364583336,69.0,82.0
31,50.012459364583336,50.47757436458333,67.0,84.0
32,50.47757436458333,50.94268936458333,69.0,73.0
33,50.94268936458333,51.37485871875,67.0,72.0
34,51.17524686458333,51.407804364583335,60.0,56.0
35,51.407804364583335,53.26826436458333,67.0,86.0
36,53.26826436458333,53.544426395833334,65.0,79.0
37,53.50082186458333,53.73531734375,64.0,77.0
38,53.733379364583335,54.197525375,62.0,68.0
39,54.19849436458333,54.662640375,62.0,81.0
40,54.66360936458333,57.46895136458333,62.0,80.0
41,57.46895136458333,57.93406636458333,77.0,91.0
42,57.93406636458333,58.399181364583335,69.0,84.0
43,58.399181364583335,58.929218666666664,77.0,96.0
44,58.86429636458333,59.123985572916666,69.0,73.0
45,59.09685386458333,60.7305938125,77.0,91.0
46,60.7305938125,60.9686888125,65.0,87.0
47,60.9686888125,61.2782123125,67.0,66.0
48,61.2067838125,62.47945973958333,69.0,82.0
49,62.37480886458333,62.839923864583334,72.0,66.0
50,62.839923864583334,64.93294136458333,69.0,107.0
51,64.93294136458333,65.39805636458333,67.0,89.0
52,65.39805636458333,65.86317136458334,60.0,64.0
53,65.86317136458334,66.32731737499999,67.0,89.0
54,66.32828636458333,66.56084386458333,67.0,93.0
55,66.56084386458333,68.187777375,60.0,79.0
56,68.18874636458332,68.43874567708333,60.0,81.0
57,68.42130386458334,68.65386136458334,62.0,65.0
58,68.65386136458334,69.1238213125,65.0,91.0
59,69.11897636458333,69.1238213125,65.0,85.0
60,69.58409136458333,69.88641611458333,65.0,85.0
61,69.81664886458333,72.37478136458333,62.0,64.0
62,72.37478136458333,72.838927375,77.0,100.0
63,72.83989636458332,73.304042375,77.0,97.0
64,73.30501136458334,73.76915737499999,77.0,99.0
65,73.77012636458333,74.00268386458333,77.0,98.0
66,74.00268386458333,75.63058636458334,69.0,95.0
67,75.63058636458334,75.90093445833332,65.0,66.0
68,75.86314386458334,76.15384073958333,67.0,66.0
69,76.09570136458333,77.27205471875,69.0,91.0
70,77.02593136458333,77.490077375,72.0,75.0
71,77.49104636458333,77.72651083333334,72.0,68.0
72,77.72360386458334,79.83353381250001,69.0,72.0
73,79.83353381250001,80.302917375,67.0,90.0
74,80.30388636458333,80.768032375,67.0,89.0
75,80.76900136458335,81.233147375,67.0,85.0
76,81.23411636458334,81.46667386458334,67.0,82.0
77,81.46667386458334,83.09457636458333,60.0,83.0
78,83.09457636458333,83.326164875,65.0,87.0
79,83.32713386458335,83.558722375,65.0,80.0
80,83.55969136458334,84.023837375,65.0,79.0
81,84.02480636458334,84.48992136458334,65.0,90.0
82,84.48992136458334,87.29653175000001,62.0,86.0
83,87.29752381250002,88.46457987500001,62.0,66.0
84,88.46554886458335,88.69713737500001,62.0,84.0
85,88.69810636458335,88.94713668750002,62.0,68.0
86,88.93066386458335,89.17775620833335,65.0,64.0
87,89.16322136458335,89.60701859375001,69.0,72.0
88,89.39577886458335,89.86089386458335,72.0,72.0
89,89.86089386458335,90.63317856250002,69.0,87.0
90,90.55856636458336,90.79499982291668,67.0,87.0
91,90.79112386458335,91.07697579166668,65.0,66.0
92,91.02368136458335,91.37154862500002,67.0,89.0
93,91.37251761458334,91.72038487500002,67.0,84.0
94,91.72135386458335,92.06922112500001,67.0,87.0
95,92.07019011458335,92.32794134375001,67.0,87.0
96,92.30274761458335,92.65158386458334,64.0,74.0
97,92.65158386458334,92.88414136458334,60.0,62.0
98,92.88414136458334,94.97715886458334,62.0,80.0
99,94.97715886458334,95.20874737500002,74.0,91.0
100,95.20971636458334,95.44130487500001,74.0,87.0
101,95.44227386458334,95.67386237500001,74.0,77.0
102,95.67483136458335,96.02269862500002,74.0,79.0
103,96.02366761458335,96.37250386458335,74.0,77.0
104,96.37250386458335,96.64478993750002,72.0,76.0
105,96.60506136458335,96.95389761458335,74.0,86.0
106,96.95389761458335,97.36378020833335,77.0,87.0
107,97.30273386458335,98.00040636458334,74.0,90.0
108,98.00040636458334,98.23296386458335,72.0,93.0
109,98.23296386458335,98.47521126041669,65.0,64.0
110,98.46552136458335,98.81338862500002,67.0,62.0
111,98.81435761458334,99.16319386458335,67.0,77.0
112,99.16319386458335,99.39575136458335,69.0,92.0
113,99.39575136458335,99.74458761458335,77.0,95.0
114,99.74458761458335,100.09342386458334,76.0,68.0
115,100.09342386458334,100.42869426041668,72.0,66.0
116,100.32598136458336,102.40640200000001,74.0,81.0
117,124.55892375833335,124.92714856250002,74.0,94.0
118,125.03858236458335,125.39129457291669,74.0,94.0
119,125.50369736458336,125.98528518750003,74.0,82.0
120,125.96881236458336,126.21687369791668,72.0,84.0
121,126.20136986458336,127.51435075000002,69.0,66.0
122,127.82927236458335,128.07539571875003,65.0,64.0
123,128.06182986458336,128.32345705208334,67.0,85.0
124,128.29438736458334,129.0104706666667,69.0,91.0
125,128.99205986458335,129.59574037500002,72.0,93.0
126,129.68973236458336,130.9697676041667,72.0,95.0
127,132.01530736458335,132.33991887500002,67.0,94.0
128,132.48042236458335,132.83797952083336,67.0,91.0
129,132.94553736458334,133.2759628125,67.0,93.0
130,133.41065236458334,133.62964401041668,67.0,92.0
131,133.64320986458335,134.99591932291668,60.0,87.0
132,135.27111236458336,135.46491028125,67.0,95.0
133,135.50366986458334,135.68487091666668,60.0,91.0
134,135.73622736458336,136.05890089583335,62.0,84.0
135,136.20134236458335,136.50560509375003,62.0,89.0
136,136.66645736458335,138.4842818229167,62.0,97.0
137,139.45714736458336,139.78757281250003,77.0,79.0
138,139.92226236458336,140.28563345833336,77.0,80.0
139,140.38737736458336,140.84570943750003,77.0,79.0
140,140.85249236458336,141.09377077083334,76.0,83.0
141,141.08504986458337,142.4668290104167,77.0,98.0
142,142.71295236458334,142.98620742708334,74.0,91.0
143,142.94550986458336,143.17128443750002,72.0,80.0
144,143.17806736458334,144.11895625000002,69.0,90.0
145,144.34085486458335,144.758489375,72.0,97.0
146,144.80596986458335,145.08503886458334,72.0,93.0
147,145.03852736458336,146.0724644729167,69.0,82.0
148,146.92482677708335,147.1986394583334,67.0,84.0
149,147.39340636458337,147.73836665625004,67.0,73.0
150,147.85852136458337,148.29069071875003,67.0,72.0
151,148.32363636458336,148.5368140729167,60.0,56.0
152,148.55619386458338,149.6937876354167,67.0,86.0
153,149.95153886458337,150.22770089583338,60.0,72.0
154,150.18409636458338,150.46025839583336,65.0,79.0
155,150.41665386458337,150.65114934375003,60.0,77.0
156,150.64921136458338,150.9728538854167,62.0,68.0
157,151.11432636458338,151.45831766666672,62.0,81.0
158,151.57944136458337,153.10269298958337,62.0,80.0
159,154.3701313645834,154.8042386979167,77.0,91.0
160,154.83524636458338,155.26644672916672,69.0,84.0
161,155.30036136458338,155.82942967708337,77.0,96.0
162,155.76547636458338,156.0251655729167,69.0,73.0
163,155.99803386458336,156.64338092708337,77.0,91.0
164,157.62593636458337,157.86430780208337,65.0,87.0
165,157.85849386458338,158.16081861458338,67.0,66.0
166,158.09105136458336,159.35848973958338,69.0,82.0
167,159.25383886458337,159.69763609375005,72.0,66.0
168,159.71895386458337,159.9350385416667,72.0,66.0
169,159.95151136458338,160.6821295104167,69.0,107.0
170,161.81197136458337,162.2431717291667,67.0,89.0
171,162.27708636458337,162.7082867291667,60.0,64.0
172,162.74220136458337,163.09782054166672,67.0,89.0
173,163.20731636458336,163.43987386458338,67.0,93.0
174,163.43987386458338,164.04219343750003,60.0,79.0
175,164.85736886458338,165.1228720104167,60.0,81.0
176,165.08992636458336,165.3554295104167,67.0,81.0
177,165.32248386458338,165.5531033854167,60.0,65.0
178,165.55504136458336,166.02597030208338,65.0,91.0
179,166.13643511458338,166.3903103854167,65.0,85.0
180,166.48527136458335,166.70038705208336,65.0,85.0
181,166.71782886458337,167.55988081250004,62.0,64.0
182,169.27596136458337,169.63061155208337,77.0,100.0
183,169.74107636458336,170.06665686458336,77.0,97.0
184,170.20619136458336,170.5501826666667,77.0,99.0
185,170.67130636458336,170.87382518750005,77.0,98.0
186,170.90386386458337,171.84281477083337,69.0,95.0
187,172.53176636458338,172.8030834479167,65.0,66.0
188,172.76432386458336,173.05502073958337,67.0,66.0
189,172.99688136458337,174.17323471875002,69.0,91.0
190,174.15966886458338,174.4920322916667,72.0,75.0
191,174.62478386458338,174.86024833333337,72.0,68.0
192,174.85734136458336,175.9106330416667,69.0,72.0
193,176.7236388125,177.11259623958335,67.0,90.0
194,177.19399136458335,177.5001920729167,67.0,89.0
195,177.65910636458335,178.00406665625002,67.0,85.0
196,178.12422136458335,178.33836806250002,67.0,82.0
197,178.35677886458336,179.14650537500003,60.0,83.0
198,179.98468136458337,180.12130889583335,65.0,87.0
199,180.21723886458335,180.3461144791667,60.0,80.0
200,180.44979636458336,180.7821597916667,65.0,79.0
201,180.91491136458336,181.3606465729167,65.0,90.0
202,181.38002636458336,182.6426197916667,62.0,86.0
203,184.17071636458337,185.15617877083335,62.0,66.0
204,185.33390700000004,185.44590700000003,62.0,84.0
205,185.57390700000002,185.82990700000002,62.0,68.0
206,185.81390700000003,186.06890700000002,65.0,64.0
207,186.05390700000004,186.51290700000004,69.0,72.0
208,186.41390700000002,186.83690700000002,72.0,72.0
209,186.77390700000004,187.51059207083335,69.0,87.0
210,187.48992277708336,187.73106453750003,67.0,87.0
211,187.72614327708337,188.0164976416667,65.0,66.0
212,187.96236377708337,188.20153703333335,67.0,89.0
213,188.31669452708334,188.53519848958337,67.0,84.0
214,188.67102527708334,188.83047411458335,67.0,87.0
215,188.90724577708335,189.17004108333336,67.0,87.0
216,189.26157652708335,189.57063168125003,64.0,74.0
217,189.61590727708335,189.8501592729167,60.0,62.0
218,189.85212777708335,190.72631597916669,62.0,80.0
219,191.9200175729167,192.0230709479167,74.0,91.0
220,192.1490250729167,192.26734561458335,74.0,87.0
221,192.37803257291668,192.53642942708333,74.0,77.0
222,192.60704007291667,192.83127658333333,74.0,79.0
223,192.95055132291668,193.26066564583334,74.0,77.0
224,193.2940625729167,193.56123798958333,72.0,76.0
225,193.52307007291668,193.76448214583334,74.0,86.0
226,193.8665813229167,194.27020704166668,77.0,87.0
227,194.2100925729167,194.64616102083335,74.0,90.0
228,194.90471877708336,195.13011250416668,72.0,93.0
229,195.14093927708336,195.3870022979167,65.0,64.0
230,195.37715977708336,195.60058500000002,67.0,62.0
231,195.73149052708334,195.97066378333335,67.0,77.0
232,196.08582127708334,196.22263231666668,69.0,92.0
233,196.32204177708334,196.67932528333336,77.0,95.0
234,196.67637252708334,197.01101823541669,76.0,68.0
235,197.14881352708335,197.490349,72.0,66.0
236,197.38503402708335,199.908947,74.0,81.0
