,start,end,pitch,velocity
0,0.42538642708333335,1.3827481354166666,38.0,82.0
1,1.42732165625,2.454450614583333,36.0,82.0
2,2.5125899895833332,3.5668506562499998,34.0,82.0
3,3.57847853125,4.605607489583333,33.0,82.0
4,4.6637468645833335,5.1356447916666665,62.0,48.0
5,4.6637468645833335,5.176342354166667,65.0,46.0
6,4.6637468645833335,5.202505072916667,69.0,45.0
7,5.710255614583334,5.964130885416666,69.0,53.0
8,5.710255614583334,5.99707653125,72.0,56.0
9,5.710255614583334,6.0290531875,77.0,44.0
10,6.756764364583333,7.013546604166667,81.0,55.0
11,6.756764364583333,7.038740333333333,86.0,42.0
12,4.6637468645833335,7.593971364583333,46.0,45.0
13,4.6637468645833335,7.803273114583333,31.0,82.0
14,8.003853958333334,8.442806239583334,34.0,82.0
15,8.307147697916667,8.745130989583334,36.0,82.0
16,8.63660415625,8.745130989583334,36.0,82.0
17,9.082339364583333,9.263540416666666,62.0,55.0
18,9.314896864583334,9.50869478125,64.0,58.0
19,9.547454364583333,9.748035208333333,65.0,54.0
20,9.780011864583333,10.01450734375,69.0,58.0
21,10.012569364583333,10.314894114583334,62.0,55.0
22,10.245126864583334,10.413731052083333,64.0,47.0
23,10.477684364583332,10.7034589375,65.0,44.0
24,10.012569364583333,10.737373572916667,57.0,45.0
25,10.012569364583333,10.774195177083334,53.0,46.0
26,9.082339364583333,10.842024447916666,50.0,55.0
27,10.710241864583333,11.007721666666667,69.0,57.0
28,10.942799364583333,11.269348854166667,62.0,49.0
29,11.175356864583334,11.4011314375,64.0,49.0
30,11.407914364583332,11.629812979166667,65.0,48.0
31,11.640471864583333,11.884657239583333,69.0,62.0
32,11.873029364583333,12.174385125,62.0,46.0
33,12.105586864583334,12.2732220625,64.0,51.0
34,10.942799364583333,12.282911958333333,57.0,52.0
35,10.942799364583333,12.400159697916667,50.0,54.0
36,10.942799364583333,12.49705865625,53.0,61.0
37,12.338144364583332,12.555198031249999,65.0,49.0
38,12.570701864583333,12.8197321875,69.0,55.0
39,12.803259364583333,13.088142302083334,62.0,44.0
40,13.035816864583333,13.313916875,64.0,48.0
41,13.268374364583334,13.510621760416667,65.0,50.0
42,12.803259364583333,13.702481697916667,57.0,46.0
43,13.500931864583332,13.763528041666666,69.0,59.0
44,13.733489364583333,14.04356603125,62.0,48.0
45,13.966046864583333,14.166627708333333,64.0,40.0
46,14.198604364583334,14.449572666666667,65.0,45.0
47,14.431161864583332,14.826509614583333,69.0,49.0
48,14.663719364583333,15.012555614583333,62.0,43.0
49,14.896276864583333,15.13077234375,64.0,46.0
50,14.663719364583333,15.269337854166666,57.0,44.0
51,15.128834364583334,15.400151447916667,65.0,47.0
52,15.361391864583332,15.632708947916667,69.0,54.0
53,15.593949364583333,15.769336479166666,57.0,49.0
54,12.803259364583333,15.849762614583334,50.0,51.0
55,15.593949364583333,15.867204427083333,62.0,47.0
56,12.803259364583333,15.882708260416667,53.0,50.0
57,15.826506864583333,15.981545197916667,64.0,50.0
58,16.05906436458333,16.34007134375,65.0,50.0
59,16.291621864583334,16.557125010416666,67.0,49.0
60,16.524179364583333,16.762550802083332,69.0,64.0
61,16.75673686458333,17.230572770833334,60.0,46.0
62,16.989294364583333,17.272239322916665,62.0,48.0
63,16.524179364583333,17.341037583333332,53.0,58.0
64,17.221851864583332,17.440843510416666,65.0,62.0
65,17.686966864583333,17.864291958333332,62.0,48.0
66,17.454409364583334,17.95053203125,60.0,52.0
67,17.454409364583334,18.1220431875,53.0,45.0
68,16.524179364583333,18.170492666666668,41.0,59.0
69,17.91952436458333,18.17727559375,65.0,54.0
70,18.152081864583334,18.382701385416667,67.0,63.0
71,18.384639364583332,18.734444604166665,60.0,49.0
72,18.617196864583335,18.838126489583335,62.0,44.0
73,18.849754364583333,19.104598625,65.0,47.0
74,18.384639364583332,19.1220404375,53.0,44.0
75,19.082311864583332,19.275140791666665,67.0,53.0
76,19.314869364583334,19.608473208333333,60.0,44.0
77,18.384639364583332,19.635604916666665,41.0,51.0
78,19.314869364583334,19.65982965625,53.0,44.0
79,19.547426864583333,19.682116416666666,62.0,53.0
80,19.77998436458333,20.054208416666665,65.0,57.0
81,20.012541864583334,20.12009970833333,67.0,62.0
82,20.245099364583332,20.446649197916667,67.0,56.0
83,20.477656864583334,20.86040775,60.0,47.0
84,20.710214364583333,20.941802875,62.0,51.0
85,20.941802875,21.304204979166666,67.0,52.0
86,21.175329364583334,21.490250979166667,60.0,44.0
87,21.407886864583332,21.60168478125,62.0,48.0
88,21.640444364583335,21.88366075,64.0,54.0
89,20.245099364583332,21.895288625,48.0,62.0
90,21.873001864583333,22.193737416666668,67.0,62.0
91,22.105559364583332,22.42241895833333,60.0,48.0
92,22.338116864583334,22.5580775,62.0,49.0
93,22.105559364583332,22.777069145833334,48.0,61.0
94,22.570674364583333,22.795479947916665,64.0,56.0
95,22.80323186458333,23.06195208333333,67.0,69.0
96,23.035789364583334,23.34392805208333,60.0,54.0
97,23.035789364583334,23.391408541666667,48.0,66.0
98,23.268346864583332,23.41563328125,62.0,57.0
99,23.500904364583334,23.708268135416667,64.0,55.0
100,23.733461864583333,24.034817625,67.0,60.0
101,23.96601936458333,24.14625142708333,65.0,61.0
102,24.198576864583334,24.495087677083333,62.0,46.0
103,24.431134364583333,24.651094999999998,64.0,55.0
104,24.66369186458333,24.989272364583332,69.0,63.0
105,24.896249364583333,25.193729166666667,62.0,47.0
106,25.128806864583332,25.3429535625,64.0,52.0
107,25.361364364583334,25.594890854166668,65.0,42.0
108,25.593921864583333,26.092951499999998,69.0,57.0
109,25.82647936458333,26.129773104166667,62.0,43.0
110,26.059036864583334,26.28578042708333,64.0,47.0
111,26.291594364583332,26.523182875,65.0,50.0
112,26.523182875,26.856515291666668,69.0,57.0
113,26.756709364583333,27.076475927083333,62.0,39.0
114,26.989266864583332,27.18306478125,64.0,46.0
115,25.82647936458333,27.272211822916667,57.0,50.0
116,23.96601936458333,27.291591614583332,50.0,64.0
117,27.454381864583333,27.59585434375,67.0,37.0
118,27.221824364583334,27.635582916666667,65.0,49.0
119,27.68693936458333,27.911744947916667,65.0,45.0
120,27.68693936458333,28.068721260416666,69.0,44.0
121,27.68693936458333,28.361356114583334,62.0,37.0
122,28.152054364583332,28.368139041666666,64.0,42.0
123,27.68693936458333,28.4243404375,57.0,57.0
124,28.384611864583334,28.737324072916667,69.0,47.0
125,28.617169364583333,29.116198999999998,62.0,40.0
126,28.84972686458333,29.12879586458333,64.0,42.0
127,29.082284364583334,29.333252666666667,65.0,44.0
128,27.68693936458333,29.382671135416665,50.0,46.0
129,28.617169364583333,29.405926885416665,57.0,47.0
130,29.314841864583332,29.692747802083332,69.0,48.0
131,29.54739936458333,29.82937533333333,62.0,37.0
132,29.779956864583333,29.960188927083333,64.0,44.0
133,30.012514364583332,30.231506010416666,65.0,42.0
134,30.245071864583334,30.589063166666666,69.0,51.0
135,30.477629364583333,30.733442614583332,62.0,42.0
136,30.71018686458333,30.882667010416665,64.0,40.0
137,29.54739936458333,31.024139489583334,50.0,45.0
138,29.54739936458333,31.047395239583334,53.0,57.0
139,29.54739936458333,31.053209177083332,57.0,60.0
140,30.942744364583334,31.193712666666666,65.0,51.0
141,31.407859364583334,31.589060416666666,65.0,47.0
142,31.175301864583332,31.708246135416665,69.0,49.0
143,31.640416864583333,31.975687260416667,60.0,48.0
144,31.87297436458333,32.150105385416666,65.0,62.0
145,32.105531864583334,32.33808936458333,67.0,59.0
146,32.33808936458333,32.538670208333336,69.0,48.0
147,32.57064686458333,32.961149666666664,60.0,40.0
148,32.80320436458333,33.0522346875,65.0,50.0
149,31.407859364583334,33.13847476041666,53.0,62.0
150,33.035761864583336,33.528977562499996,72.0,53.0
151,33.268319364583334,33.54254341666667,60.0,39.0
152,33.50087686458333,33.68401589583333,65.0,44.0
153,33.73343436458333,33.97568176041666,67.0,47.0
154,33.96599186458333,34.337114875,72.0,54.0
155,34.198549364583336,34.497967145833336,60.0,44.0
156,34.431106864583334,34.60164903125,65.0,48.0
157,34.198549364583336,34.65397446875,48.0,52.0
158,34.198549364583336,34.673354260416666,57.0,48.0
159,33.268319364583334,34.73924555208333,53.0,57.0
160,34.66366436458333,34.90203580208333,67.0,57.0
161,34.89622186458333,35.137500270833335,69.0,51.0
162,35.12877936458333,35.42819714583333,67.0,58.0
163,35.361336864583336,35.632653947916666,60.0,41.0
164,35.593894364583335,35.83517277083333,64.0,47.0
165,35.82645186458333,36.109396822916665,72.0,66.0
166,35.82645186458333,36.32257453125,60.0,57.0
167,36.05900936458333,36.351644218749996,62.0,40.0
168,36.29156686458333,36.56482192708333,64.0,48.0
169,36.52412436458333,36.7498989375,67.0,55.0
170,35.12877936458333,36.83904597916666,48.0,45.0
171,35.12877936458333,36.88071253125,55.0,64.0
172,35.12877936458333,36.88846444791667,52.0,59.0
173,36.756681864583335,37.03671985416666,72.0,59.0
174,36.989239364583334,37.52702858333333,62.0,46.0
175,37.22179686458333,37.52993555208333,64.0,44.0
176,37.45435436458333,37.699508729166666,67.0,54.0
177,37.68691186458333,37.960166927083336,72.0,60.0
178,36.989239364583334,38.176251604166666,48.0,59.0
179,37.919469364583335,38.21791815625,62.0,48.0
180,36.989239364583334,38.22179411458333,60.0,66.0
181,36.989239364583334,38.2498948125,55.0,60.0
182,36.989239364583334,38.26055369791666,52.0,63.0
183,38.152026864583334,38.406871125,64.0,46.0
184,38.38458436458333,38.64427357291667,67.0,61.0
185,38.61714186458333,38.946598322916664,72.0,61.0
186,38.84969936458333,39.05900111458333,65.0,56.0
187,39.082256864583336,39.34679102083333,64.0,45.0
188,39.314814364583334,39.545433885416664,65.0,52.0
189,39.54737186458333,39.65396071875,67.0,45.0
190,39.54737186458333,39.858417520833335,72.0,55.0
191,39.77992936458333,40.0638433125,64.0,46.0
192,40.01248686458333,40.274114052083334,65.0,57.0
193,39.77992936458333,40.3545401875,62.0,51.0
194,40.245044364583336,40.400082697916666,67.0,56.0
195,38.84969936458333,40.455315104166665,50.0,57.0
196,39.77992936458333,40.514423468749996,57.0,45.0
197,40.477601864583335,40.70434542708333,69.0,55.0
198,40.71015936458333,41.19949910416666,64.0,48.0
199,40.94271686458333,41.23438272916667,65.0,51.0
200,40.71015936458333,41.316746843749996,62.0,49.0
201,41.17527436458333,41.40589388541667,67.0,54.0
202,41.40783186458333,41.65976915625,69.0,62.0
203,41.640389364583335,42.0056984375,64.0,45.0
204,40.71015936458333,42.068682760416664,57.0,45.0
205,42.10550436458333,42.21984513541667,72.0,59.0
206,41.640389364583335,42.22953503125,62.0,47.0
207,41.872946864583334,42.22953503125,65.0,55.0
208,40.71015936458333,42.360348625,50.0,46.0
209,42.33806186458333,42.4708134375,72.0,47.0
210,42.45434061458333,42.5870921875,69.0,57.0
211,42.57061936458333,42.5870921875,69.0,52.0
212,42.803176864583335,43.14038523958333,64.0,48.0
213,43.035734364583334,43.265384895833336,65.0,53.0
214,43.26829186458333,43.5289500625,69.0,55.0
215,43.50084936458333,43.769259479166664,72.0,60.0
216,43.73340686458333,44.05898736458333,64.0,46.0
217,43.50084936458333,44.11809572916667,62.0,46.0
218,43.965964364583336,44.178173083333334,65.0,53.0
219,44.198521864583334,44.62100132291667,69.0,58.0
220,44.66363686458333,45.00278321875,64.0,44.0
221,44.43107936458333,45.098713187499996,62.0,59.0
222,44.89619436458333,45.104527125,65.0,49.0
223,45.128751864583336,45.43204560416667,72.0,66.0
224,45.361309364583335,45.64328533333333,64.0,44.0
225,45.361309364583335,45.68398289583333,62.0,48.0
226,45.59386686458333,45.75375014583333,65.0,55.0
227,44.43107936458333,45.760533072916665,57.0,55.0
228,42.57061936458333,45.79057175,50.0,63.0
229,45.82642436458333,46.04347803125,67.0,50.0
230,46.05898186458333,46.243089885416666,69.0,60.0
231,46.29153936458333,46.4940581875,67.0,58.0
232,46.524096864583335,46.89812684375,60.0,46.0
233,46.75665436458333,47.01246761458333,65.0,61.0
234,46.98921186458333,47.546380875,72.0,70.0
235,47.22176936458333,47.558977739583334,60.0,42.0
236,47.45432686458333,47.67525648958333,65.0,52.0
237,46.29153936458333,47.878744302083334,53.0,67.0
238,47.686884364583335,47.92041085416667,67.0,52.0
239,47.919441864583334,48.383587874999996,72.0,61.0
240,48.26827811458333,48.45238613541667,69.0,36.0
241,48.38455686458333,48.65006001041667,60.0,44.0
242,48.15199936458333,48.80994329166666,57.0,54.0
243,48.61711436458333,48.862268729166665,65.0,53.0
244,48.849671864583335,49.1335858125,67.0,61.0
245,49.082229364583334,49.29540707291667,69.0,51.0
246,49.31478686458333,49.51246073958333,60.0,50.0
247,48.15199936458333,49.623894541666665,53.0,66.0
248,48.15199936458333,49.68881684375,48.0,49.0
249,49.54734436458333,49.77796388541667,65.0,54.0
250,49.77990186458333,50.08513358333333,72.0,58.0
251,50.012459364583336,50.34772976041666,67.0,56.0
252,50.245016864583334,50.505675062499996,60.0,49.0
253,50.47757436458333,50.75955033333333,64.0,43.0
254,50.71013186458333,50.95334825,72.0,64.0
255,50.94268936458333,51.22563432291667,60.0,46.0
256,51.17524686458333,51.442687989583334,64.0,51.0
257,50.012459364583336,51.63260994791666,48.0,44.0
258,50.012459364583336,51.66749357291667,52.0,62.0
259,50.012459364583336,51.67136953125,55.0,63.0
260,51.407804364583335,51.67524548958333,67.0,52.0
261,51.64036186458333,52.12388766666667,72.0,50.0
262,52.10547686458333,52.40198767708333,60.0,47.0
263,52.33803436458333,52.58997165625,64.0,46.0
264,52.570591864583335,52.78570755208333,67.0,60.0
265,52.803149364583334,53.01342010416666,60.0,48.0
266,51.87291936458333,53.28183021875,48.0,47.0
267,51.87291936458333,53.31477586458333,55.0,59.0
268,51.87291936458333,53.33318666666666,52.0,64.0
269,53.03570686458333,53.33512464583333,64.0,47.0
270,53.26826436458333,53.53279852083333,72.0,63.0
271,53.50082186458333,53.6917128125,60.0,49.0
272,53.733379364583335,53.906828499999996,65.0,63.0
273,53.965936864583334,54.18492851041667,62.0,32.0
274,54.19849436458333,54.4126410625,65.0,56.0
275,54.43105186458333,54.66070239583333,69.0,58.0
276,54.66360936458333,54.95236826041666,64.0,44.0
277,54.43105186458333,55.00953864583333,62.0,48.0
278,54.896166864583336,55.128724364583334,65.0,60.0
279,53.733379364583335,55.16457697916667,50.0,45.0
280,53.733379364583335,55.26632088541667,53.0,57.0
281,53.733379364583335,55.304111479166664,57.0,54.0
282,55.128724364583334,55.387444583333334,69.0,54.0
283,55.36128186458333,55.67717246875,72.0,51.0
284,55.59965330208333,55.772133447916666,64.0,47.0
285,55.83446929375,56.0323039625,64.0,50.0
286,56.07068979375,56.282303991666666,65.0,58.0
287,55.59383936458333,56.44864259375,57.0,59.0
288,56.301989033333335,56.52541425625,69.0,64.0
289,56.545099297916664,56.82844925,62.0,51.0
290,56.77127886458334,56.922441239583335,64.0,55.0
291,55.59383936458333,57.099766333333335,50.0,46.0
292,56.53525677708333,57.118177135416666,57.0,61.0
293,57.003836364583336,57.186975395833336,65.0,56.0
294,55.59383936458333,57.201510239583335,53.0,57.0
295,57.236393864583334,57.3807733125,69.0,63.0
296,57.46895136458333,57.7528653125,62.0,57.0
297,57.70150886458333,57.886585875,64.0,59.0
298,57.93406636458333,58.12398832291667,65.0,59.0
299,58.166623864583336,58.34491794791667,69.0,47.0
300,58.399181364583335,58.615266041666665,62.0,43.0
301,58.63173886458333,58.7761183125,64.0,50.0
302,58.86429636458333,59.07553609375,65.0,53.0
303,57.46895136458333,59.10751275,50.0,49.0
304,57.46895136458333,59.125923552083336,57.0,60.0
305,57.46895136458333,59.12786153125,53.0,63.0
306,59.09685386458333,59.504798479166666,69.0,60.0
307,59.561968864583335,59.86623159375,62.0,49.0
308,59.794526364583334,59.92533995833333,64.0,50.0
309,60.02708386458333,60.34491244791667,69.0,69.0
310,60.25964136458333,60.4330905,62.0,45.0
311,59.329411364583336,60.6055939375,50.0,55.0
312,60.4924988125,60.638332,64.0,57.0
313,59.329411364583336,60.640316125,53.0,66.0
314,59.329411364583336,60.644284375,57.0,66.0
315,60.7305938125,60.9428951875,65.0,57.0
316,61.2067838125,61.422061375,65.0,60.0
317,61.444578864583335,61.682950302083334,60.0,48.0
318,61.67713636458333,61.902910937499996,65.0,49.0
319,61.90969386458333,62.143220354166665,67.0,49.0
320,62.14225136458333,62.40097158333333,69.0,61.0
321,62.37480886458333,62.583141624999996,60.0,46.0
322,62.60736636458333,62.80407125,65.0,54.0
323,62.14225136458333,62.89321829166666,48.0,56.0
324,61.2067838125,62.90969111458333,53.0,69.0
325,62.14225136458333,62.9145360625,57.0,54.0
326,62.839923864583334,63.1703493125,69.0,56.0
327,63.07248136458333,63.36608520833333,60.0,49.0
328,63.30503886458333,63.5191855625,65.0,53.0
329,63.53759636458333,63.72945630208333,67.0,49.0
330,63.77015386458333,64.02306014583333,69.0,59.0
331,64.00271136458333,64.28759430208333,60.0,44.0
332,63.07248136458333,64.52984169791667,57.0,60.0
333,63.07248136458333,64.54340755208334,53.0,63.0
334,64.23526886458333,64.61801975,65.0,51.0
335,64.46782636458333,64.67519013541667,67.0,49.0
336,64.70038386458333,64.97654589583333,69.0,61.0
337,64.93294136458333,65.14418109374999,67.0,63.0
338,65.16549886458333,65.46879260416667,60.0,49.0
339,65.39805636458333,65.60251316666667,64.0,57.0
340,65.63061386458332,65.82344279166666,67.0,57.0
341,65.86317136458334,66.24204629166667,60.0,54.0
342,66.09572886458334,66.34088322916666,64.0,54.0
343,64.93294136458333,66.61123132291667,52.0,58.0
344,66.32828636458333,66.61995222916667,72.0,60.0
345,64.93294136458333,66.62673515624999,55.0,61.0
346,63.07248136458333,66.63448707291667,48.0,57.0
347,66.56084386458333,66.78952540625,60.0,49.0
348,66.79340136458333,67.0540595625,67.0,49.0
349,67.02595886458333,67.36995016666667,60.0,43.0
350,67.25851636458333,67.43874842708333,64.0,46.0
351,67.49107386458333,67.74494913541666,72.0,53.0
352,67.72363136458333,68.03758398958333,60.0,45.0
353,66.79340136458333,68.09959932291666,48.0,49.0
354,66.79340136458333,68.16549061458333,52.0,61.0
355,67.95618886458332,68.17227354166667,64.0,51.0
356,66.79340136458333,68.17421152083332,55.0,57.0
357,68.18874636458332,68.43971466666666,67.0,54.0
358,68.42130386458334,68.74688436458334,72.0,64.0
359,68.65386136458334,68.84378332291666,65.0,60.0
360,68.88641886458333,69.1587049375,62.0,48.0
361,69.11897636458333,69.35734780208332,65.0,55.0
362,69.35153386458333,69.65192063541666,72.0,63.0
363,69.58409136458333,69.90579590624999,64.0,43.0
364,69.81664886458333,70.05211333333332,65.0,49.0
365,70.04920636458333,70.29339173958333,67.0,54.0
366,68.65386136458334,70.3331203125,50.0,46.0
367,68.65386136458334,70.38156979166666,53.0,59.0
368,68.65386136458334,70.38932170833333,57.0,53.0
369,70.28176386458333,70.60153042708333,72.0,54.0
370,70.51432136458334,70.8214910625,64.0,49.0
371,70.74687886458334,70.91935901041667,65.0,58.0
372,70.97943636458334,71.20424194791667,67.0,60.0
373,71.21199386458333,71.42323359375,69.0,64.0
374,71.44455136458333,71.66257402083333,62.0,67.0
375,71.44455136458333,71.72071339583333,64.0,59.0
376,70.51432136458334,71.77206984375,50.0,49.0
377,70.51432136458334,71.7982325625,57.0,52.0
378,70.51432136458334,71.80695346875,53.0,58.0
379,71.67710886458333,71.83505416666667,65.0,60.0
380,71.90966636458333,72.10152630208333,67.0,49.0
381,72.14222386458333,72.41741690625,69.0,66.0
382,72.37478136458333,72.65288137499999,72.0,67.0
383,72.60733886458333,72.77691204166666,64.0,48.0
384,72.83989636458332,73.09667860416667,65.0,55.0
385,73.07245386458334,73.34861589583333,72.0,64.0
386,73.30501136458334,73.50462321875,64.0,48.0
387,73.53756886458333,73.69163820833333,65.0,59.0
388,73.30501136458334,73.87865319791666,62.0,45.0
389,72.37478136458333,73.92322671875,50.0,56.0
390,72.37478136458333,73.9842730625,53.0,70.0
391,73.77012636458333,74.02400163541667,67.0,60.0
392,72.37478136458333,74.0772960625,57.0,64.0
393,74.00268386458333,74.11702463541667,69.0,59.0
394,74.00268386458333,74.13059048958333,64.0,62.0
395,74.23524136458333,74.3796208125,69.0,60.0
396,74.23524136458333,74.41353544791667,65.0,64.0
397,74.46779886458333,74.58795357291666,64.0,60.0
398,74.46779886458333,74.61411629166666,67.0,70.0
399,74.70035636458333,74.86411560416667,67.0,56.0
400,74.70035636458333,74.87283651041666,64.0,51.0
401,74.93291386458333,75.03271979166666,65.0,54.0
402,74.93291386458333,75.03271979166666,69.0,60.0
403,75.16547136458333,75.31954070833334,65.0,67.0
404,75.16547136458333,75.32826161458333,69.0,64.0
405,75.39802886458332,75.51527660416666,64.0,53.0
406,75.39802886458332,75.53271841666667,67.0,54.0
407,75.39802886458332,75.57535395833332,62.0,57.0
408,74.46779886458333,75.62864838541667,53.0,32.0
409,74.81663511458333,75.6354313125,57.0,20.0
410,74.23524136458333,75.652873125,50.0,70.0
411,75.63058636458334,75.78562469791666,67.0,70.0
412,75.63058636458334,75.81178741666666,64.0,67.0
413,75.86314386458334,75.98814352083333,69.0,54.0
414,76.09570136458333,76.34666966666666,65.0,61.0
415,76.09570136458333,76.35345259374999,69.0,59.0
416,76.32825886458333,76.43484771874999,60.0,39.0
417,76.32825886458333,76.44744458333334,67.0,56.0
418,76.56081636458333,76.69647490625,60.0,62.0
419,76.56081636458333,76.7400794375,67.0,67.0
420,76.09570136458333,76.76430417708333,57.0,62.0
421,76.79337386458333,76.89511777083334,60.0,54.0
422,76.79337386458333,76.91837352083333,65.0,60.0
423,77.02593136458333,77.14511708333333,60.0,59.0
424,77.02593136458333,77.20713241666667,65.0,72.0
425,77.25848886458333,77.34763590624999,60.0,45.0
426,77.25848886458333,77.38930245833333,67.0,61.0
427,77.49104636458333,77.6470536875,60.0,60.0
428,77.49104636458333,77.67515438541666,67.0,66.0
429,77.72360386458334,77.82437878125,60.0,44.0
430,77.72360386458334,77.84957251041666,69.0,59.0
431,77.02593136458333,77.85054149999999,57.0,49.0
432,76.09570136458333,77.85344846875,53.0,72.0
433,77.95616136458332,78.20131572916667,69.0,69.0
434,78.18871886458334,78.38833071875,60.0,58.0
435,78.42127636458333,78.58600459375,65.0,59.0
436,77.95616136458332,78.74976383333333,57.0,66.0
437,78.65383386458333,78.76623665625,60.0,50.0
438,78.65383386458333,78.83115895833333,67.0,60.0
439,78.88639136458333,78.98813527083334,60.0,46.0
440,78.88639136458333,79.1351218125,69.0,61.0
441,79.1192488125,79.2581375625,57.0,61.0
442,77.95616136458332,79.27698675,53.0,67.0
443,79.1192488125,79.3156771875,60.0,55.0
444,79.3573438125,79.5587325,65.0,58.0
445,79.5954388125,79.886113125,69.0,69.0
446,79.83254175,79.9307559375,60.0,57.0
447,79.83254175,79.969446375,67.0,60.0
448,80.07132886458334,80.13140621875,60.0,47.0
449,80.07132886458334,80.36493270833334,67.0,58.0
450,80.53644386458333,80.58004839583334,64.0,37.0
451,80.53644386458333,80.59070728125,62.0,40.0
452,80.30388636458333,80.60136616666668,60.0,60.0
453,80.76900136458335,80.96086130208334,64.0,60.0
454,81.00155886458334,81.20117071875,65.0,55.0
455,81.23411636458334,81.40175156250001,67.0,75.0
456,79.83254175,81.49089860416667,55.0,59.0
457,79.83254175,81.50446445833335,52.0,58.0
458,79.83254175,81.50930940625001,48.0,57.0
459,81.46667386458334,81.63624704166668,60.0,58.0
460,81.69923136458334,82.04419165625,64.0,60.0
461,81.93178886458334,82.15271848958334,60.0,57.0
462,82.16434636458334,82.34264044791668,62.0,58.0
463,82.39690386458334,82.62074045833334,64.0,59.0
464,82.62946136458334,82.85329795833334,67.0,70.0
465,81.69923136458334,82.87073977083334,55.0,63.0
466,82.86201886458333,83.02287113541668,60.0,61.0
467,81.69923136458334,83.17694047916667,48.0,49.0
468,81.69923136458334,83.21473107291668,52.0,64.0
469,83.09457636458333,83.23217288541667,55.0,60.0
470,83.09457636458333,83.25155267708334,62.0,60.0
471,83.32713386458335,83.55969136458334,64.0,51.0
472,83.55969136458334,84.03449626041667,65.0,67.0
473,84.25736386458334,84.430813,64.0,64.0
474,83.79224886458334,84.66337050000001,57.0,57.0
475,84.02480636458334,84.73119977083334,62.0,60.0
476,84.48992136458334,84.74379663541667,65.0,60.0
477,84.72247886458334,84.90271092708333,67.0,60.0
478,83.55969136458334,84.96085030208334,50.0,67.0
479,84.95503636458334,85.2854618125,57.0,62.0
480,84.95503636458334,85.37073289583334,69.0,62.0
481,86.11782386458334,86.22441271875,65.0,59.0
482,86.11782386458334,86.23507160416668,74.0,76.0
483,85.65270886458335,86.31259077083334,57.0,60.0
484,86.35038136458334,86.44824931250001,65.0,58.0
485,86.35038136458334,86.52673746875,74.0,69.0
486,86.58323881250001,86.68046093750002,64.0,58.0
487,85.88526636458334,86.681453,62.0,53.0
488,86.58323881250001,86.69137362500001,72.0,57.0
489,86.82133381250001,86.92946862500001,72.0,61.0
490,86.82133381250001,86.93343687500001,64.0,66.0
491,85.42015136458333,87.00684950000002,50.0,63.0
492,86.82133381250001,87.09514306250001,57.0,53.0
493,87.05942881250002,87.16756362500001,67.0,63.0
494,87.29653175000001,87.89578298958335,65.0,78.0
495,87.29653175000001,87.94810842708335,62.0,75.0
496,87.29653175000001,87.99849588541669,69.0,75.0
497,88.23299136458336,88.71361019791668,65.0,73.0
498,88.23299136458336,88.81147814583335,69.0,67.0
499,88.23299136458336,88.83085793750001,62.0,69.0
500,87.29653175000001,89.15159348958335,50.0,75.0
501,89.16322136458335,89.77077783333336,65.0,70.0
502,89.16322136458335,89.85314194791668,60.0,70.0
503,89.16322136458335,89.90740536458335,69.0,66.0
504,89.16322136458335,90.41224893750001,53.0,69.0
505,90.09345136458334,90.58376009375002,65.0,72.0
506,90.09345136458334,90.63511654166668,60.0,72.0
507,90.09345136458334,90.91127857291669,69.0,76.0
508,89.86089386458335,90.92581341666668,41.0,59.0
509,90.55856636458336,91.09344861458335,53.0,55.0
510,91.02368136458335,91.55178068750001,67.0,70.0
511,91.02368136458335,91.56437755208334,60.0,69.0
512,91.02368136458335,91.57988138541668,64.0,73.0
513,91.02368136458335,91.64480368750002,72.0,60.0
514,91.72135386458335,92.33666225000002,52.0,38.0
515,91.02368136458335,92.36960789583335,48.0,78.0
516,91.95391136458335,92.39092566666667,67.0,73.0
517,91.95391136458335,92.39577061458336,64.0,73.0
518,91.95391136458335,92.40352253125002,60.0,64.0
519,91.95391136458335,92.74848282291669,72.0,70.0
520,92.88414136458334,93.09635008333335,65.0,67.0
521,92.88414136458334,93.19906297916668,62.0,70.0
522,93.58181386458335,93.85216195833335,64.0,73.0
523,93.81437136458335,93.98394454166669,65.0,69.0
524,93.34925636458335,94.31049403125002,62.0,64.0
525,92.88414136458334,94.31243201041669,50.0,69.0
526,93.11669886458336,94.32696685416668,57.0,50.0
527,94.04692886458335,94.35022260416669,69.0,70.0
528,94.27948636458335,94.54014456250002,74.0,62.0
529,94.51204386458335,94.70390380208335,76.0,69.0
530,94.74460136458335,95.29886340625002,77.0,70.0
531,94.74460136458335,95.37832055208335,74.0,72.0
532,94.74460136458335,95.41320417708334,69.0,69.0
533,95.20971636458334,95.97424914583335,57.0,42.0
534,95.67483136458335,96.05952022916668,74.0,78.0
535,95.67483136458335,96.09634183333335,77.0,80.0
536,95.67483136458335,96.11184566666668,69.0,76.0
537,95.67483136458335,96.12444253125001,62.0,56.0
538,94.74460136458335,96.19227180208335,50.0,63.0
539,96.13994636458335,96.56145683333335,76.0,75.0
540,96.60506136458335,97.14769553125001,72.0,75.0
541,96.60506136458335,97.24556347916668,69.0,73.0
542,96.60506136458335,97.28432306250002,77.0,75.0
543,97.07017636458335,97.60505861458336,48.0,34.0
544,96.60506136458335,97.95777082291669,41.0,47.0
545,97.53529136458334,97.99168545833335,72.0,76.0
546,97.53529136458334,98.02947605208335,69.0,69.0
547,97.53529136458334,98.43838965625001,53.0,51.0
548,98.00040636458334,98.53044366666668,77.0,67.0
549,98.46552136458335,99.01300047916668,76.0,72.0
550,98.46552136458335,99.02269037500001,67.0,63.0
551,99.39575136458335,99.74652559375002,72.0,76.0
552,99.39575136458335,99.75330852083334,67.0,63.0
553,99.39575136458335,99.83082768750002,60.0,58.0
554,98.93063636458335,99.85214545833335,55.0,48.0
555,98.46552136458335,99.86861828125001,48.0,75.0
556,100.32598136458336,100.82210403125002,69.0,54.0
557,100.32598136458336,100.85892563541668,65.0,69.0
558,101.02365386458335,101.25330439583335,64.0,55.0
559,101.25621136458335,101.41609464583335,65.0,66.0
560,100.79109636458335,101.61667548958334,62.0,58.0
561,100.55853886458335,101.63605528125001,57.0,50.0
562,100.32598136458336,101.68547375000001,50.0,72.0
563,101.48876886458335,101.72617131250001,69.0,60.0
564,101.72132636458335,101.92481417708335,74.0,58.0
565,101.95388386458335,101.98876748958335,74.0,45.0
566,102.18644136458335,102.71647866666669,62.0,64.0
567,102.18644136458335,102.71647866666669,69.0,62.0
568,102.18644136458335,102.72713755208335,65.0,66.0
569,102.18644136458335,102.75039330208335,46.0,80.0
570,102.41899886458334,102.76395915625001,53.0,46.0
571,102.65155636458334,102.82985044791668,58.0,57.0
572,102.88411386458336,103.15736892708335,69.0,69.0
573,103.11667136458335,103.43256196875001,60.0,57.0
574,103.11667136458335,103.46647660416669,64.0,61.0
575,103.11667136458335,103.48682538541668,67.0,63.0
576,103.11667136458335,103.54884071875001,48.0,67.0
577,103.34922886458335,103.64089472916669,55.0,57.0
578,103.58178636458335,103.82500275000001,60.0,56.0
579,103.81434386458335,103.96453725000002,72.0,52.0
580,104.04690136458335,104.26104806250001,65.0,66.0
581,104.04690136458335,104.32209440625002,69.0,62.0
582,104.74457386458334,104.86182160416668,69.0,55.0
583,104.74457386458334,104.90639512500002,77.0,67.0
584,104.27945886458335,105.01976690625001,60.0,39.0
585,104.51201636458335,105.10794495833335,65.0,55.0
586,104.97713136458336,105.21356482291668,67.0,52.0
587,104.97713136458336,105.27267318750002,76.0,67.0
588,105.20968886458334,105.33275054166668,60.0,67.0
589,104.16318011458335,105.34244043750002,53.0,32.0
590,105.32596761458335,105.57596692708336,72.0,48.0
591,105.90736136458335,106.08953140625002,74.0,69.0
592,105.90736136458335,106.13410492708334,69.0,63.0
593,106.37247636458335,106.56918125000001,58.0,60.0
594,106.13991886458335,106.60697184375002,53.0,66.0
595,105.90736136458335,106.62828961458335,46.0,69.0
596,106.60503386458335,106.79011087500001,67.0,60.0
597,106.83759136458335,106.95483910416668,67.0,39.0
598,106.83759136458335,107.08662168750001,60.0,52.0
599,106.83759136458335,107.09534259375002,64.0,59.0
600,107.07014886458335,107.33371403125001,52.0,58.0
601,106.83759136458335,107.40154330208335,48.0,66.0
602,107.30270636458334,107.45968267708335,60.0,51.0
603,107.53526386458336,107.70386805208335,65.0,53.0
604,107.76782136458334,108.07499106250002,60.0,72.0
605,107.76782136458334,108.11375064583335,65.0,78.0
606,107.76782136458334,108.11471963541669,69.0,73.0
607,107.76782136458334,108.28526180208334,41.0,69.0
608,108.23293636458335,108.49747052083335,60.0,64.0
609,108.00037886458335,108.56433080208335,53.0,55.0
610,108.69805136458335,109.62440540625002,45.0,50.0
611,108.69805136458335,109.62440540625002,57.0,53.0
612,108.69805136458335,109.62440540625002,61.0,76.0
613,108.69805136458335,109.62440540625002,64.0,72.0
614,108.69805136458335,109.62440540625002,69.0,73.0
615,109.62828136458334,110.07886152083336,69.0,63.0
616,109.62828136458334,110.11471413541668,62.0,54.0
617,109.62828136458334,110.11665211458335,65.0,63.0
618,109.62828136458334,110.30948104166669,46.0,67.0
619,109.86083886458334,110.32692285416668,53.0,54.0
620,110.09339636458336,110.32692285416668,58.0,51.0
621,110.32595386458334,110.42575979166668,62.0,40.0
622,110.32595386458334,110.54010056250002,69.0,61.0
623,110.55851136458335,110.89281277083334,60.0,57.0
624,110.55851136458335,111.00909152083335,64.0,66.0
625,110.55851136458335,111.08176573958335,67.0,62.0
626,110.90734761458334,111.18641661458335,48.0,31.0
627,111.48874136458335,111.70773301041669,69.0,55.0
628,111.48874136458335,111.76393440625002,65.0,66.0
629,111.48874136458335,111.80366297916669,60.0,56.0
630,111.72129886458335,111.88602709375002,67.0,57.0
631,111.95385636458334,112.18156891666668,65.0,63.0
632,112.18641386458334,112.49842851041669,64.0,61.0
633,111.48874136458335,112.70385430208336,50.0,64.0
634,112.65152886458336,112.89668322916668,67.0,60.0
635,112.88408636458335,113.02652783333335,69.0,66.0
636,113.34920136458335,113.62923935416669,65.0,66.0
637,113.34920136458335,113.63117733333334,62.0,54.0
638,113.81431636458335,113.98873448958335,62.0,50.0
639,113.58175886458335,114.05656376041668,58.0,75.0
640,114.04687386458335,114.16702857291668,67.0,52.0
641,114.74454636458336,114.88311187500001,62.0,63.0
642,113.34920136458335,114.88892581250002,46.0,62.0
643,114.74454636458336,114.91218156250002,65.0,73.0
644,114.97710386458334,115.15927390625001,46.0,66.0
645,115.20966136458335,115.46062966666668,60.0,61.0
646,115.20966136458335,115.47225754166668,67.0,63.0
647,115.20966136458335,115.48388541666668,64.0,62.0
648,115.67477636458335,115.80462096875002,60.0,51.0
649,115.44221886458335,116.07593805208334,57.0,58.0
650,115.90733386458335,116.39958057291668,60.0,62.0
651,115.90733386458335,116.41605339583334,64.0,62.0
652,115.90733386458335,116.44221611458335,72.0,49.0
653,115.20966136458335,116.49066559375001,45.0,63.0
654,116.37244886458335,116.77361055208334,57.0,62.0
655,116.60500636458335,116.87147850000002,60.0,52.0
656,116.83756386458334,116.94124575000001,69.0,55.0
657,117.07012136458334,117.40248479166668,65.0,67.0
658,117.07012136458334,117.40345378125002,69.0,64.0
659,117.53523636458334,117.74938306250002,64.0,60.0
660,117.76779386458335,117.93930502083334,65.0,57.0
661,118.00035136458335,118.14085485416669,72.0,41.0
662,117.30267886458336,118.31817994791669,57.0,52.0
663,118.23290886458335,118.41798587500001,64.0,57.0
664,118.00035136458335,118.47709423958335,62.0,49.0
665,118.46546636458335,118.67476811458334,65.0,57.0
666,117.07012136458334,118.68252003125002,50.0,64.0
667,118.69802386458335,118.83658937500002,67.0,50.0
668,119.16313886458335,119.34627789583335,62.0,44.0
669,119.39569636458334,119.53716884375001,64.0,54.0
670,118.93058136458335,119.56817651041669,57.0,66.0
671,119.62825386458334,119.78135421875001,69.0,52.0
672,119.86081136458336,120.02360161458336,62.0,52.0
673,120.09336886458334,120.23968629166669,64.0,52.0
674,120.32592636458335,120.49549954166667,65.0,45.0
675,118.93058136458335,120.57980163541669,50.0,56.0
676,119.86081136458336,120.60208839583335,57.0,47.0
677,120.55848386458335,120.73483996875001,69.0,62.0
678,120.79104136458335,121.10111803125002,62.0,50.0
679,121.02359886458335,121.19511002083334,64.0,49.0
680,121.25615636458335,121.46352013541667,65.0,39.0
681,121.48871386458335,121.74743408333335,69.0,57.0
682,121.72127136458334,121.90634837500002,62.0,49.0
683,121.95382886458336,122.11855709375001,64.0,48.0
684,122.18638636458334,122.43250971875001,65.0,47.0
685,120.79104136458335,122.43929264583335,57.0,58.0
686,120.79104136458335,122.46836233333335,50.0,53.0
687,122.41894386458335,122.61467976041669,69.0,57.0
688,122.65150136458334,122.86564806250001,62.0,40.0
689,122.65150136458334,122.88599684375001,57.0,59.0
690,122.65150136458334,122.89471775000001,50.0,47.0
691,122.88405886458335,123.05266305208335,64.0,49.0
692,123.11661636458335,123.336577,65.0,57.0
693,123.34917386458335,123.56235157291668,69.0,63.0
694,123.58173136458335,123.76099443750002,67.0,52.0
695,123.81512175833335,124.03516318333335,65.0,57.0
696,124.06305575833335,124.33165092500002,64.0,60.0
697,124.31098975833335,124.45148569166669,62.0,55.0
698,124.55892375833335,124.79827294791669,65.0,45.0
699,124.55892375833335,124.95524926041669,69.0,44.0
700,124.55892375833335,125.24788411458336,62.0,37.0
701,125.03858236458335,125.25466704166669,64.0,42.0
702,124.55892375833335,125.31086843750002,57.0,57.0
703,125.27113986458335,125.62385207291669,69.0,47.0
704,125.50369736458336,126.00272700000002,62.0,40.0
705,125.73625486458336,126.01532386458335,64.0,42.0
706,125.96881236458336,126.2197806666667,65.0,44.0
707,124.55892375833335,126.26919913541668,50.0,46.0
708,125.50369736458336,126.29245488541669,57.0,47.0
709,126.20136986458336,126.57927580208336,69.0,48.0
710,126.43392736458335,126.71590333333336,62.0,37.0
711,126.66648486458335,126.84671692708335,64.0,44.0
712,126.89904236458335,127.1180340104167,65.0,42.0
713,127.13159986458335,127.47559116666669,69.0,51.0
714,127.36415736458335,127.61997061458335,62.0,42.0
715,127.59671486458335,127.76919501041668,64.0,40.0
716,126.43392736458335,127.91066748958335,50.0,45.0
717,126.43392736458335,127.93392323958335,53.0,57.0
718,126.43392736458335,127.93973717708336,57.0,60.0
719,127.82927236458335,128.0802406666667,65.0,51.0
720,128.29438736458334,128.47558841666668,65.0,47.0
721,128.06182986458336,128.59477413541669,69.0,49.0
722,128.52694486458336,128.8622152604167,60.0,48.0
723,128.75950236458334,129.03663338541668,65.0,62.0
724,128.99205986458335,129.22461736458337,67.0,59.0
725,129.22461736458337,129.42519820833334,69.0,48.0
726,129.45717486458335,129.8476776666667,60.0,40.0
727,129.68973236458336,129.93876268750003,65.0,50.0
728,128.29438736458334,130.0250027604167,53.0,62.0
729,129.92228986458335,130.41550556250002,72.0,53.0
730,130.15484736458336,130.4290714166667,60.0,39.0
731,130.38740486458335,130.57054389583334,65.0,44.0
732,130.61996236458336,130.86220976041668,67.0,47.0
733,130.85251986458334,131.22364287500002,72.0,54.0
734,131.08507736458336,131.38449514583334,60.0,44.0
735,131.31763486458334,131.48817703125002,65.0,48.0
736,131.08507736458336,131.54050246875002,48.0,52.0
737,131.08507736458336,131.55988226041669,57.0,48.0
738,130.15484736458336,131.62577355208336,53.0,57.0
739,131.55019236458335,131.78856380208336,67.0,57.0
740,131.78274986458337,132.02402827083336,69.0,51.0
741,132.01530736458335,132.31472514583336,67.0,58.0
742,132.24786486458336,132.51918194791668,60.0,41.0
743,132.48042236458335,132.72170077083337,64.0,47.0
744,132.71297986458336,132.9959248229167,72.0,66.0
745,132.71297986458336,133.20910253125,60.0,57.0
746,132.94553736458334,133.23817221875,62.0,40.0
747,133.17809486458336,133.45134992708336,64.0,48.0
748,133.41065236458334,133.6364269375,67.0,55.0
749,132.01530736458335,133.72557397916668,48.0,45.0
750,132.01530736458335,133.76724053125002,55.0,64.0
751,132.01530736458335,133.77499244791667,52.0,59.0
752,133.64320986458335,133.92324785416668,72.0,59.0
753,133.87576736458334,134.41355658333336,62.0,46.0
754,134.10832486458335,134.41646355208334,64.0,44.0
755,134.34088236458336,134.5860367291667,67.0,54.0
756,134.57343986458335,134.84669492708335,72.0,60.0
757,133.87576736458334,135.06277960416668,48.0,59.0
758,134.80599736458336,135.10444615625002,62.0,48.0
759,133.87576736458334,135.10832211458336,60.0,66.0
760,133.87576736458334,135.13642281250003,55.0,60.0
761,133.87576736458334,135.1470816979167,52.0,63.0
762,135.03855486458335,135.293399125,64.0,46.0
763,135.27111236458336,135.5308015729167,67.0,61.0
764,135.50366986458334,135.83312632291668,72.0,61.0
765,135.73622736458336,135.94552911458337,65.0,56.0
766,135.96878486458334,136.23331902083336,64.0,45.0
767,136.20134236458335,136.43196188541668,65.0,52.0
768,136.43389986458334,136.54048871875003,67.0,45.0
769,136.43389986458334,136.74494552083334,72.0,55.0
770,136.66645736458335,136.9503713125,64.0,46.0
771,136.89901486458336,137.16064205208335,65.0,57.0
772,136.66645736458335,137.24106818750002,62.0,51.0
773,137.13157236458335,137.28661069791667,67.0,56.0
774,135.73622736458336,137.34184310416668,50.0,57.0
775,136.66645736458335,137.40095146875,57.0,45.0
776,137.36412986458336,137.59087342708335,69.0,55.0
777,137.59668736458335,138.08602710416667,64.0,48.0
778,137.82924486458336,138.1209107291667,65.0,51.0
779,137.59668736458335,138.20327484375002,62.0,49.0
780,138.06180236458334,138.29242188541667,67.0,54.0
781,138.29435986458336,138.54629715625003,69.0,62.0
782,138.52691736458334,138.89222643750003,64.0,45.0
783,137.59668736458335,138.9552107604167,57.0,45.0
784,138.99203236458337,139.10637313541667,72.0,59.0
785,138.52691736458334,139.11606303125,62.0,47.0
786,138.75947486458335,139.11606303125,65.0,55.0
787,137.59668736458335,139.24687662500003,50.0,46.0
788,139.22458986458335,139.35734143750003,72.0,47.0
789,139.34086861458334,139.47362018750002,69.0,57.0
790,139.45714736458336,139.47362018750002,69.0,52.0
791,139.68970486458335,140.02691323958337,64.0,48.0
792,139.92226236458336,140.15191289583336,65.0,53.0
793,140.15481986458335,140.41547806250003,69.0,55.0
794,140.38737736458336,140.6557874791667,72.0,60.0
795,140.61993486458334,140.94551536458334,64.0,46.0
796,140.38737736458336,141.0046237291667,62.0,46.0
797,140.85249236458336,141.06470108333335,65.0,53.0
798,141.08504986458337,141.5075293229167,69.0,58.0
799,141.55016486458334,141.88931121875,64.0,44.0
800,141.31760736458335,141.9852411875,62.0,59.0
801,141.78272236458335,141.99105512500003,65.0,49.0
802,142.01527986458336,142.3185736041667,72.0,66.0
803,142.24783736458335,142.52981333333335,64.0,44.0
804,142.24783736458335,142.57051089583337,62.0,48.0
805,142.48039486458336,142.64027814583335,65.0,55.0
806,141.31760736458335,142.6470610729167,57.0,55.0
807,139.45714736458336,142.67709975000002,50.0,63.0
808,142.71295236458334,142.93000603125003,67.0,50.0
809,142.94550986458336,143.12961788541668,69.0,60.0
810,143.17806736458334,143.38058618750003,67.0,58.0
811,143.41062486458335,143.78465484375002,60.0,46.0
812,143.64318236458337,143.89899561458336,65.0,61.0
813,143.87573986458335,144.432908875,72.0,70.0
814,144.10829736458336,144.44550573958335,60.0,42.0
815,144.34085486458335,144.56178448958335,65.0,52.0
816,143.17806736458334,144.76527230208336,53.0,67.0
817,144.57341236458336,144.80693885416667,67.0,52.0
818,144.80596986458335,145.270299025,72.0,61.0
819,145.15480611458335,145.3401809229167,69.0,36.0
820,145.27128327708337,145.5409683479167,60.0,44.0
821,145.03852736458336,145.7033699416667,57.0,54.0
822,145.50750377708337,145.7565195541667,65.0,53.0
823,145.74372427708337,146.03211013750004,67.0,61.0
824,145.97994477708338,146.1964802354167,69.0,51.0
825,146.21616527708335,146.41695270208336,60.0,50.0
826,145.03852736458336,146.5301416916667,53.0,66.0
827,145.03852736458336,146.59608658125003,48.0,49.0
828,146.45238577708335,146.6866377729167,65.0,54.0
829,146.68860627708335,146.99864568333336,72.0,58.0
830,146.92482677708335,147.2635617604167,67.0,56.0
831,147.1608488645834,147.42150706250004,60.0,49.0
832,147.39340636458337,147.67538233333337,64.0,43.0
833,147.62596386458338,147.86918025000003,72.0,64.0
834,147.85852136458337,148.1414663229167,60.0,46.0
835,148.09107886458338,148.35851998958339,64.0,51.0
836,146.92482677708335,148.5484419479167,48.0,44.0
837,146.92482677708335,148.58332557291672,52.0,62.0
838,146.92482677708335,148.58720153125003,55.0,63.0
839,148.32363636458336,148.59107748958337,67.0,52.0
840,148.55619386458338,149.0397196666667,72.0,50.0
841,149.02130886458337,149.31781967708338,60.0,47.0
842,149.2538663645834,149.50580365625004,64.0,46.0
843,149.48642386458337,149.70153955208337,67.0,60.0
844,149.71898136458339,149.92925210416672,60.0,48.0
845,148.78875136458336,150.19766221875005,48.0,47.0
846,148.78875136458336,150.23060786458336,55.0,59.0
847,148.78875136458336,150.2490186666667,52.0,64.0
848,149.95153886458337,150.25095664583338,64.0,47.0
849,150.18409636458338,150.44863052083338,72.0,63.0
850,150.41665386458337,150.60754481250004,60.0,49.0
851,150.64921136458338,150.82266050000004,65.0,63.0
852,150.88176886458336,151.1007605104167,62.0,32.0
853,151.11432636458338,151.32847306250005,65.0,56.0
854,151.3468838645834,151.57653439583336,69.0,58.0
855,151.57944136458337,151.8682002604167,64.0,44.0
856,151.3468838645834,151.92537064583337,62.0,48.0
857,151.8119988645834,152.04455636458337,65.0,60.0
858,150.64921136458338,152.08040897916672,50.0,45.0
859,150.64921136458338,152.1821528854167,53.0,57.0
860,150.64921136458338,152.21994347916672,57.0,54.0
861,152.04455636458337,152.30327658333337,69.0,54.0
862,152.27711386458338,152.59300446875005,72.0,51.0
863,152.50967136458337,152.79358531250006,62.0,57.0
864,152.74222886458338,152.92730587500003,64.0,59.0
865,152.97478636458337,153.1647083229167,65.0,59.0
866,153.20734386458338,153.3856379479167,69.0,47.0
867,153.43990136458336,153.65598604166672,62.0,43.0
868,153.67245886458338,153.81683831250004,64.0,50.0
869,152.50967136458337,154.0009463333334,50.0,46.0
870,152.50967136458337,154.00869825000004,57.0,59.0
871,152.50967136458337,154.10269023958338,53.0,57.0
872,153.9050163645834,154.11625609375005,65.0,53.0
873,154.13757386458337,154.5455184791667,69.0,60.0
874,154.3701313645834,154.65404531250005,62.0,57.0
875,154.60268886458337,154.78776587500005,64.0,59.0
876,154.83524636458338,155.0251683229167,65.0,59.0
877,155.06780386458337,155.24609794791672,69.0,47.0
878,155.30036136458338,155.5164460416667,62.0,43.0
879,155.53291886458337,155.67729831250006,64.0,50.0
880,155.76547636458338,155.97671609375004,65.0,53.0
881,154.3701313645834,156.00869275000005,50.0,49.0
882,154.3701313645834,156.02710355208336,57.0,60.0
883,154.3701313645834,156.02904153125004,53.0,63.0
884,155.99803386458336,156.40597847916672,69.0,60.0
885,156.4631488645834,156.76741159375004,62.0,49.0
886,156.69570636458337,156.82651995833336,64.0,50.0
887,156.92826386458339,157.2460924479167,69.0,69.0
888,157.16082136458337,157.33427050000003,62.0,45.0
889,156.23059136458338,157.50384367708338,50.0,55.0
890,157.39337886458338,157.53582033333336,64.0,57.0
891,156.23059136458338,157.53775831250005,53.0,66.0
892,156.23059136458338,157.54163427083338,57.0,66.0
893,157.62593636458337,157.83330013541672,65.0,57.0
894,157.85849386458338,158.0154701770834,69.0,66.0
895,158.09105136458336,158.3013221041667,65.0,60.0
896,158.32360886458338,158.56198030208338,60.0,48.0
897,158.55616636458336,158.78194093750005,65.0,49.0
898,158.78872386458337,159.02225035416672,67.0,49.0
899,159.0212813645834,159.2800015833334,69.0,61.0
900,159.25383886458337,159.46217162500005,60.0,46.0
901,159.48639636458338,159.68310125000005,65.0,54.0
902,159.0212813645834,159.7722482916667,48.0,56.0
903,158.09105136458336,159.78872111458338,53.0,69.0
904,159.0212813645834,159.79356606250005,57.0,54.0
905,159.71895386458337,160.04937931250004,69.0,56.0
906,159.95151136458338,160.24511520833337,60.0,49.0
907,160.18406886458337,160.39821556250004,65.0,53.0
908,160.41662636458338,160.60848630208338,67.0,49.0
909,160.64918386458336,160.90209014583337,69.0,59.0
910,160.88174136458338,161.16662430208336,60.0,44.0
911,159.95151136458338,161.4088716979167,57.0,60.0
912,159.95151136458338,161.42243755208338,53.0,63.0
913,161.11429886458336,161.49704975000003,65.0,51.0
914,161.34685636458337,161.5542201354167,67.0,49.0
915,161.5794138645834,161.85557589583337,69.0,61.0
916,161.81197136458337,162.02321109375004,67.0,63.0
917,162.04452886458338,162.3478226041667,60.0,49.0
918,162.27708636458337,162.4815431666667,64.0,57.0
919,162.50964386458338,162.7024727916667,67.0,57.0
920,162.74220136458337,163.1210762916667,60.0,54.0
921,162.97475886458338,163.2199132291667,64.0,54.0
922,161.81197136458337,163.4902613229167,52.0,58.0
923,163.20731636458336,163.4989822291667,72.0,60.0
924,161.81197136458337,163.50576515625005,55.0,61.0
925,159.95151136458338,163.5135170729167,48.0,57.0
926,163.43987386458338,163.66855540625005,60.0,49.0
927,163.67243136458336,163.93405862500003,67.0,49.0
928,163.90528881250003,164.25747100000004,60.0,43.0
929,164.14338381250002,164.32790743750002,64.0,46.0
930,164.38147881250003,164.64139918750004,72.0,53.0
931,164.61957381250002,164.93876398958338,60.0,45.0
932,163.67243136458336,165.0007793229167,48.0,49.0
933,163.67243136458336,165.06667061458336,52.0,61.0
934,164.85736886458338,165.0734535416667,64.0,51.0
935,163.67243136458336,165.07539152083336,55.0,57.0
936,165.08992636458336,165.3408946666667,67.0,54.0
937,165.32248386458338,165.64806436458338,72.0,64.0
938,165.55504136458336,165.7449633229167,65.0,60.0
939,165.78759886458337,166.05988493750004,62.0,48.0
940,166.02015636458336,166.25852780208336,65.0,55.0
941,166.25271386458337,166.5531006354167,72.0,63.0
942,166.48527136458335,166.80697590625005,64.0,43.0
943,166.71782886458337,166.95329333333336,65.0,49.0
944,166.95038636458338,167.19457173958338,67.0,54.0
945,165.55504136458336,167.23430031250004,50.0,46.0
946,165.55504136458336,167.2827497916667,53.0,59.0
947,165.55504136458336,167.29050170833338,57.0,53.0
948,167.18294386458336,167.50271042708337,72.0,54.0
949,167.41550136458338,167.72267106250004,64.0,49.0
950,167.64805886458336,167.8205390104167,65.0,58.0
951,167.88061636458337,168.1054219479167,67.0,60.0
952,168.11317386458336,168.32441359375002,69.0,64.0
953,168.34573136458337,168.56375402083336,62.0,67.0
954,168.34573136458337,168.62189339583335,64.0,59.0
955,167.41550136458338,168.67324984375003,50.0,49.0
956,167.41550136458338,168.69941256250004,57.0,52.0
957,167.41550136458338,168.70813346875002,53.0,58.0
958,168.57828886458336,168.7362341666667,65.0,60.0
959,168.81084636458337,169.00270630208337,67.0,49.0
960,169.04340386458335,169.31859690625004,69.0,66.0
961,169.27596136458337,169.55406137500003,72.0,67.0
962,169.50851886458338,169.6780920416667,64.0,48.0
963,169.74107636458336,169.9978586041667,65.0,55.0
964,169.97363386458338,170.24979589583336,72.0,64.0
965,170.20619136458336,170.40580321875004,64.0,48.0
966,170.43874886458337,170.59281820833337,65.0,59.0
967,170.20619136458336,170.7798331979167,62.0,45.0
968,169.27596136458337,170.82440671875003,50.0,56.0
969,169.27596136458337,170.88545306250003,53.0,70.0
970,170.67130636458336,170.9251816354167,67.0,60.0
971,169.27596136458337,170.97847606250002,57.0,64.0
972,170.90386386458337,171.0182046354167,69.0,59.0
973,170.90386386458337,171.03177048958338,64.0,62.0
974,171.13642136458336,171.28080081250005,69.0,60.0
975,171.13642136458336,171.3147154479167,65.0,64.0
976,171.36897886458337,171.4891335729167,64.0,60.0
977,171.36897886458337,171.5152962916667,67.0,70.0
978,171.60153636458335,171.7652956041667,67.0,56.0
979,171.60153636458335,171.77401651041671,64.0,51.0
980,171.83409386458337,171.9338997916667,65.0,54.0
981,171.83409386458337,171.9338997916667,69.0,60.0
982,172.06665136458338,172.22072070833337,65.0,67.0
983,172.06665136458338,172.22944161458338,69.0,64.0
984,172.29920886458336,172.4164566041667,64.0,53.0
985,172.29920886458336,172.4338984166667,67.0,54.0
986,172.29920886458336,172.47653395833336,62.0,57.0
987,171.36897886458337,172.5298283854167,53.0,32.0
988,171.71781511458337,172.53661131250004,57.0,20.0
989,171.13642136458336,172.55405312500002,50.0,70.0
990,172.53176636458338,172.6868046979167,67.0,70.0
991,172.53176636458338,172.71296741666671,64.0,67.0
992,172.76432386458336,172.88932352083336,69.0,54.0
993,172.99688136458337,173.2478496666667,65.0,61.0
994,172.99688136458337,173.25463259375005,69.0,59.0
995,173.22943886458336,173.33602771875005,60.0,39.0
996,173.22943886458336,173.34862458333336,67.0,56.0
997,173.46199636458337,173.59765490625003,60.0,62.0
998,173.46199636458337,173.64125943750003,67.0,67.0
999,172.99688136458337,173.66548417708336,57.0,62.0
1000,173.69455386458336,173.79629777083338,60.0,54.0
1001,173.69455386458336,173.81955352083338,65.0,60.0
1002,173.92711136458337,174.04629708333337,60.0,59.0
1003,173.92711136458337,174.1083124166667,65.0,72.0
1004,174.15966886458338,174.24881590625003,60.0,45.0
1005,174.15966886458338,174.29048245833337,67.0,61.0
1006,174.39222636458337,174.54823368750004,60.0,60.0
1007,174.39222636458337,174.57633438541671,67.0,66.0
1008,174.62478386458338,174.72555878125004,60.0,44.0
1009,174.62478386458338,174.7507525104167,69.0,59.0
1010,173.92711136458337,174.75172150000003,57.0,49.0
1011,172.99688136458337,174.75462846875004,53.0,72.0
1012,174.85734136458336,175.1024957291667,69.0,69.0
1013,175.08989886458338,175.28951071875002,60.0,58.0
1014,175.32245636458336,175.48718459375004,65.0,59.0
1015,174.85734136458336,175.65094383333337,57.0,66.0
1016,175.55501386458337,175.66741665625003,60.0,50.0
1017,175.55501386458337,175.73233895833337,67.0,60.0
1018,175.78757136458336,175.88931527083338,60.0,46.0
1019,175.78757136458336,176.0356326979167,69.0,61.0
1020,176.02012886458337,176.15578740625003,57.0,61.0
1021,174.85734136458336,176.17419820833337,53.0,67.0
1022,176.02012886458337,176.21198880208337,60.0,55.0
1023,176.25268636458335,176.44939125000002,65.0,58.0
1024,176.48554381250003,176.776218125,69.0,69.0
1025,176.72264675000002,176.82086093750002,60.0,57.0
1026,176.72264675000002,176.85955137500002,67.0,60.0
1027,176.96143386458337,177.02151121875002,60.0,47.0
1028,176.96143386458337,177.25503770833336,67.0,58.0
1029,177.42654886458337,177.47015339583336,64.0,37.0
1030,177.42654886458337,177.48081228125002,62.0,40.0
1031,177.19399136458335,177.49147116666668,60.0,60.0
1032,177.65910636458335,177.85096630208335,64.0,60.0
1033,177.89166386458336,178.09127571875,65.0,55.0
1034,178.12422136458335,178.29185656250002,67.0,75.0
1035,176.72264675000002,178.3810036041667,55.0,59.0
1036,176.72264675000002,178.39456945833336,52.0,58.0
1037,176.72264675000002,178.39941440625003,48.0,57.0
1038,178.35677886458336,178.52635204166668,60.0,58.0
1039,178.58933636458335,178.93429665625,64.0,60.0
1040,178.82189386458336,179.04282348958336,60.0,57.0
1041,179.05445136458337,179.2327454479167,62.0,58.0
1042,179.28700886458336,179.51084545833336,64.0,59.0
1043,179.51956636458337,179.74340295833335,67.0,70.0
1044,178.58933636458335,179.76084477083336,55.0,63.0
1045,179.75212386458335,179.9129761354167,60.0,61.0
1046,178.58933636458335,180.0670454791667,48.0,49.0
1047,178.58933636458335,180.1048360729167,52.0,64.0
1048,179.98468136458337,180.12227788541668,55.0,60.0
1049,179.98468136458337,180.14165767708337,62.0,60.0
1050,180.21723886458335,180.44979636458336,64.0,51.0
1051,180.44979636458336,180.9246012604167,65.0,67.0
1052,181.14746886458335,181.32091800000003,64.0,64.0
1053,180.68235386458335,181.55347550000002,57.0,57.0
1054,180.91491136458336,181.62130477083335,62.0,60.0
1055,181.38002636458336,181.6339016354167,65.0,60.0
1056,181.61258386458337,181.79281592708335,67.0,60.0
1057,180.44979636458336,181.85095530208335,50.0,67.0
1058,181.84514136458336,182.17556681250002,57.0,62.0
1059,181.84514136458336,182.26083789583336,69.0,62.0
1060,183.00792886458336,183.11451771875002,65.0,59.0
1061,183.00792886458336,183.12517660416668,74.0,76.0
1062,182.54281386458337,183.20269577083337,57.0,60.0
1063,183.24048636458335,183.33835431250003,65.0,58.0
1064,183.24048636458335,183.41684246875002,74.0,69.0
1065,183.47304386458336,183.56800484375003,64.0,58.0
1066,182.77537136458335,183.56897383333336,62.0,53.0
1067,183.47304386458336,183.5786637291667,72.0,57.0
1068,183.70560136458334,183.8112212291667,72.0,61.0
1069,183.70560136458334,183.81509718750002,64.0,66.0
1070,182.31025636458335,183.88680241666668,50.0,63.0
1071,183.70560136458334,183.97304248958335,57.0,53.0
1072,183.93815886458336,184.0437787291667,67.0,63.0
1073,184.17071636458337,184.59997875000002,65.0,69.0
1074,184.17071636458337,184.59997875000002,65.0,78.0
1075,184.17071636458337,184.7036606354167,69.0,69.0
1076,184.17071636458337,184.7036606354167,69.0,75.0
1077,184.17071636458337,184.81606342708335,62.0,75.0
1078,184.63583136458337,184.81606342708335,62.0,47.0
1079,184.86838886458335,185.0088923541667,64.0,52.0
1080,184.86838886458335,185.21722511458336,67.0,61.0
1081,185.10094636458336,185.36490700000004,62.0,69.0
1082,185.10094636458336,185.58990700000004,65.0,73.0
1083,185.33390700000004,185.58990700000004,65.0,62.0
1084,185.10094636458336,185.69090700000004,69.0,67.0
1085,185.33390700000004,185.69090700000004,69.0,66.0
1086,185.57390700000002,185.71090700000002,62.0,51.0
1087,184.17071636458337,185.72990700000003,50.0,67.0
1088,184.17071636458337,185.72990700000003,50.0,75.0
1089,184.40327386458335,185.89990700000004,57.0,58.0
1090,185.81390700000003,185.91690700000004,64.0,43.0
1091,185.81390700000003,185.99290700000003,67.0,53.0
1092,186.05390700000004,186.47590700000003,69.0,64.0
1093,186.05390700000004,186.47590700000003,69.0,66.0
1094,186.05390700000004,186.47690700000004,65.0,60.0
1095,186.05390700000004,186.47690700000004,65.0,70.0
1096,186.53390700000003,186.72690700000004,62.0,48.0
1097,186.05390700000004,186.76590700000003,60.0,70.0
1098,186.29390700000005,186.81390700000003,57.0,59.0
1099,186.05390700000004,186.91290700000005,50.0,64.0
1100,187.01390700000005,187.3285054354167,60.0,72.0
1101,187.01390700000005,187.3285054354167,60.0,76.0
1102,186.05390700000004,187.34130071250001,53.0,69.0
1103,187.01390700000005,187.34130071250001,53.0,67.0
1104,187.01390700000005,187.37673378750003,65.0,62.0
1105,187.01390700000005,187.37673378750003,65.0,72.0
1106,187.01390700000005,187.3905133166667,69.0,56.0
1107,187.01390700000005,187.3905133166667,69.0,76.0
1108,187.48992277708336,187.56767869166669,60.0,55.0
1109,187.48992277708336,187.61098578333335,53.0,55.0
1110,187.48992277708336,187.69956847083336,67.0,66.0
1111,187.72614327708337,187.84819053541668,69.0,62.0
1112,186.77390700000004,187.8629543166667,41.0,59.0
1113,187.96236377708337,188.21826931875003,60.0,66.0
1114,187.96236377708337,188.21826931875003,60.0,69.0
1115,187.96236377708337,188.22811183958336,64.0,59.0
1116,187.96236377708337,188.22811183958336,64.0,73.0
1117,187.96236377708337,188.2911039729167,67.0,62.0
1118,187.96236377708337,188.2911039729167,67.0,70.0
1119,187.96236377708337,188.39149768541668,48.0,75.0
1120,187.96236377708337,188.39149768541668,48.0,78.0
1121,188.19858427708334,188.42496225625,55.0,61.0
1122,188.43480477708334,188.51157643958337,60.0,62.0
1123,187.96236377708337,188.59326936250002,72.0,60.0
1124,188.67102527708334,188.98008043125003,64.0,70.0
1125,188.90724577708335,188.98008043125003,64.0,73.0
1126,188.90724577708335,188.98598594375002,60.0,64.0
1127,188.67102527708334,188.99582846458335,72.0,78.0
1128,188.90724577708335,188.99582846458335,72.0,70.0
1129,188.90724577708335,189.0538993375,62.0,70.0
1130,188.90724577708335,189.27830881250003,67.0,73.0
1131,189.14346627708335,189.27830881250003,67.0,63.0
1132,188.67102527708334,189.29602535,52.0,38.0
1133,189.14346627708335,189.35606472708335,64.0,64.0
1134,189.37968677708335,189.59720648750002,67.0,67.0
1135,189.61590727708335,189.79700966041668,69.0,64.0
1136,189.85212777708335,189.9830333041667,65.0,67.0
1137,189.85212777708335,189.9830333041667,65.0,70.0
1138,189.85212777708335,190.03224590833335,69.0,54.0
1139,189.85212777708335,190.16333920833335,50.0,62.0
1140,189.85212777708335,190.16333920833335,50.0,69.0
1141,189.85212777708335,190.16906439583335,62.0,70.0
1142,190.08795757291668,190.29883531250002,57.0,50.0
1143,190.08795757291668,190.29883531250002,57.0,61.0
1144,190.31696507291667,190.59845345833335,62.0,50.0
1145,190.31696507291667,190.59845345833335,62.0,64.0
1146,190.54597257291667,190.65570533333334,77.0,72.0
1147,190.54597257291667,190.65856792708334,69.0,59.0
1148,190.54597257291667,190.8121937916667,64.0,53.0
1149,190.54597257291667,190.8121937916667,64.0,73.0
1150,190.7749800729167,190.94196470833336,65.0,69.0
1151,190.7749800729167,191.05742265625003,76.0,63.0
1152,190.7749800729167,191.07746081250002,67.0,69.0
1153,191.00398757291669,191.1232623125,74.0,61.0
1154,191.00398757291669,191.14520886458334,65.0,69.0
1155,191.00398757291669,191.30265152083334,69.0,70.0
1156,191.23299507291668,191.4324224375,72.0,62.0
1157,191.23299507291668,191.4896743125,74.0,62.0
1158,191.46200257291667,191.65093376041668,76.0,69.0
1159,191.46200257291667,191.65761314583335,69.0,53.0
1160,191.69101007291667,191.99062821875,74.0,72.0
1161,191.69101007291667,191.99062821875,74.0,72.0
1162,191.69101007291667,192.00971217708334,69.0,54.0
1163,191.69101007291667,192.00971217708334,69.0,69.0
1164,191.69101007291667,192.23681128125003,77.0,70.0
1165,192.37803257291668,192.50589509375,64.0,58.0
1166,191.9200175729167,192.58032253125,57.0,67.0
1167,192.1490250729167,192.58032253125,57.0,42.0
1168,192.60704007291667,192.65379577083334,65.0,43.0
1169,192.1490250729167,192.69578047916667,62.0,62.0
1170,192.60704007291667,192.69578047916667,62.0,56.0
1171,192.60704007291667,192.83032238541668,67.0,61.0
1172,192.83604757291667,192.90188722916668,57.0,64.0
1173,192.60704007291667,192.98585664583334,74.0,78.0
1174,192.60704007291667,193.02211616666668,77.0,80.0
1175,192.60704007291667,193.03738333333334,69.0,76.0
1176,191.69101007291667,193.10894817708333,50.0,63.0
1177,191.69101007291667,193.10894817708333,50.0,69.0
1178,193.0650550729167,193.26352823958334,65.0,69.0
1179,193.2940625729167,193.47440597916668,67.0,59.0
1180,193.0650550729167,193.48013116666667,76.0,75.0
1181,193.2940625729167,193.62421505208334,52.0,69.0
1182,193.52307007291668,193.68051272916668,60.0,66.0
1183,193.52307007291668,193.7606653541667,69.0,69.0
1184,193.52307007291668,193.7606653541667,69.0,73.0
1185,193.52307007291668,193.79024548958336,65.0,59.0
1186,193.75207757291668,194.01352780208336,60.0,53.0
1187,193.52307007291668,194.05742090625,72.0,75.0
1188,193.98108507291667,194.14234452083335,65.0,67.0
1189,193.52307007291668,194.1919628125,77.0,75.0
1190,193.75207757291668,194.26257345833335,57.0,60.0
1191,193.98108507291667,194.5078023229167,48.0,34.0
1192,194.2100925729167,194.70589985625003,60.0,64.0
1193,194.2100925729167,194.70589985625003,69.0,69.0
1194,194.4391000729167,194.70589985625003,69.0,69.0
1195,194.66849827708336,194.81515183750003,57.0,67.0
1196,193.52307007291668,194.84467940000002,53.0,67.0
1197,194.4391000729167,194.84467940000002,53.0,51.0
1198,193.52307007291668,194.86141168541667,41.0,47.0
1199,194.4391000729167,194.89586050833336,72.0,76.0
1200,194.90471877708336,195.13011250416668,60.0,63.0
1201,195.14093927708336,195.32302591250001,67.0,64.0
1202,194.90471877708336,195.44310466666667,77.0,67.0
1203,195.37715977708336,195.52676609375,67.0,42.0
1204,195.37715977708336,195.52676609375,67.0,63.0
1205,195.37715977708336,195.75117556875003,62.0,54.0
1206,195.37715977708336,195.89192361666667,64.0,63.0
1207,195.37715977708336,195.93326220416668,76.0,72.0
1208,196.08582127708334,196.36436461666668,67.0,53.0
1209,196.32204177708334,196.36436461666668,67.0,63.0
1210,196.08582127708334,196.42538824583335,62.0,51.0
1211,195.84960077708334,196.4942858916667,60.0,59.0
1212,196.32204177708334,196.4942858916667,60.0,58.0
1213,196.32204177708334,196.56121503333335,64.0,61.0
1214,196.32204177708334,196.67834103125003,72.0,76.0
1215,196.55826227708334,196.68523079583335,67.0,63.0
1216,195.61338027708334,196.78562450833334,55.0,53.0
1217,195.84960077708334,196.78562450833334,55.0,48.0
1218,195.37715977708336,196.80235679375002,48.0,73.0
1219,195.37715977708336,196.80235679375002,48.0,75.0
1220,196.79448277708335,196.85747491041667,69.0,44.0
1221,197.03070327708335,197.10944344375002,69.0,48.0
1222,196.79448277708335,197.1773568375,60.0,58.0
1223,197.26692377708335,197.71030963541668,69.0,54.0
1224,197.26692377708335,197.71030963541668,69.0,70.0
1225,197.26692377708335,197.80139465625,65.0,69.0
1226,197.26692377708335,197.80139465625,65.0,75.0
1227,197.96806086458335,198.1347270729167,64.0,55.0
1228,197.96806086458335,198.1347270729167,64.0,58.0
1229,198.20061836458333,198.32561802083333,65.0,61.0
1230,198.20061836458333,198.32561802083333,65.0,66.0
1231,197.73550336458334,198.56108248958336,62.0,58.0
1232,197.73550336458334,198.56108248958336,62.0,59.0
1233,197.50294586458335,198.58046228125002,57.0,50.0
1234,197.50294586458335,198.58046228125002,57.0,66.0
1235,197.26692377708335,198.62988075,50.0,70.0
1236,197.26692377708335,198.62988075,50.0,72.0
1237,198.43317586458335,198.6705783125,69.0,56.0
1238,198.43317586458335,198.6705783125,69.0,60.0
1239,198.66573336458333,198.86922117708335,74.0,46.0
1240,198.66573336458333,198.86922117708335,74.0,58.0
1241,198.89829086458334,198.90507379166667,74.0,45.0
1242,198.89829086458334,199.06011212500002,76.0,59.0
1243,199.13084836458333,199.66088566666667,62.0,57.0
1244,199.13084836458333,199.66088566666667,62.0,64.0
1245,199.13084836458333,199.66088566666667,69.0,62.0
1246,199.13084836458333,199.66088566666667,69.0,64.0
1247,199.13084836458333,199.6725135416667,65.0,66.0
1248,199.13084836458333,199.69480030208334,46.0,80.0
1249,199.36340586458334,199.70836615625,53.0,46.0
1250,199.13084836458333,199.73549786458335,77.0,63.0
1251,199.59596336458335,199.77425744791668,58.0,57.0
1252,199.13084836458333,199.79945117708334,74.0,67.0
1253,199.13084836458333,199.91960588541667,50.0,62.0
1254,199.82852086458334,200.10177592708334,69.0,69.0
1255,200.06107836458335,200.37696896875002,60.0,57.0
1256,200.06107836458335,200.41088360416668,64.0,61.0
1257,200.06107836458335,200.43123238541668,67.0,63.0
1258,200.06107836458335,200.49324771875,48.0,67.0
1259,200.29363586458334,200.58530172916667,55.0,57.0
1260,200.52619336458335,200.76940975000002,60.0,56.0
1261,200.75875086458333,200.90894425000002,72.0,52.0
1262,200.99130836458335,201.20545506250002,65.0,66.0
1263,200.99130836458335,201.26650140625,69.0,62.0
1264,201.68898086458336,201.80622860416668,69.0,55.0
1265,201.68898086458336,201.850802125,77.0,67.0
1266,201.22386586458333,201.96417390625,60.0,39.0
1267,201.45642336458334,202.05235195833333,65.0,55.0
1268,201.92153836458334,202.15797182291666,67.0,52.0
1269,201.92153836458334,202.21708018750002,76.0,67.0
1270,202.15409586458335,202.27715754166667,60.0,67.0
1271,201.10758711458334,202.2868474375,53.0,32.0
1272,202.27037461458335,202.52037392708334,72.0,48.0
1273,202.85176836458334,203.03393840625,74.0,69.0
1274,202.85176836458334,203.07851192708335,69.0,63.0
1275,203.31688336458333,203.51358825,58.0,60.0
1276,203.08432586458335,203.55137884375,53.0,66.0
1277,202.85176836458334,203.57269661458335,46.0,69.0
1278,203.54944086458335,203.734517875,67.0,60.0
1279,203.78199836458333,203.89924610416668,67.0,39.0
1280,203.78199836458333,204.0310286875,60.0,52.0
1281,203.78199836458333,204.03974959375,64.0,59.0
1282,204.01455586458334,204.27812103125,52.0,58.0
1283,203.78199836458333,204.34595030208334,48.0,66.0
1284,204.24711336458336,204.40408967708333,60.0,51.0
1285,204.47967086458334,204.64827505208333,65.0,53.0
1286,204.71222836458335,205.05525067708334,41.0,69.0
1287,204.94478586458334,205.16377751041668,48.0,66.0
1288,205.17734336458335,205.46028832291668,53.0,50.0
1289,204.71222836458335,205.490327,60.0,62.0
1290,204.71222836458335,205.50001689583334,65.0,52.0
1291,204.71222836458335,205.58335,69.0,67.0
1292,205.64245836458335,205.88955070833333,57.0,57.0
1293,205.40990086458334,205.93993816666668,55.0,56.0
1294,205.87501586458333,206.04846500000002,60.0,50.0
1295,206.10757336458335,206.35757267708334,65.0,53.0
1296,206.34013086458333,206.47772738541667,69.0,63.0
1297,206.57268836458334,207.02326852083334,69.0,63.0
1298,206.57268836458334,207.0591211354167,62.0,54.0
1299,206.57268836458334,207.06105911458334,65.0,63.0
1300,206.57268836458334,207.25388804166667,46.0,67.0
1301,206.80524586458336,207.27132985416668,53.0,54.0
1302,207.03780336458334,207.27132985416668,58.0,51.0
1303,207.27036086458335,207.37016679166666,62.0,40.0
1304,207.27036086458335,207.4845075625,69.0,61.0
1305,207.50291836458334,207.83721977083334,60.0,57.0
1306,207.50291836458334,207.95349852083334,64.0,66.0
1307,207.50291836458334,208.02617273958333,67.0,62.0
1308,207.85175461458334,208.13082361458333,48.0,31.0
1309,208.43314836458333,208.65214001041667,69.0,55.0
1310,208.43314836458333,208.70834140625,65.0,66.0
1311,208.43314836458333,208.74806997916667,60.0,56.0
1312,208.66570586458334,208.83043409375,67.0,57.0
1313,208.89826336458333,209.12597591666668,65.0,63.0
1314,209.13082086458334,209.44283551041667,64.0,61.0
1315,209.36337836458335,209.53488952083333,65.0,62.0
1316,208.43314836458333,209.64826130208334,50.0,64.0
1317,209.59593586458334,209.84109022916667,67.0,60.0
1318,209.82849336458335,209.97093483333333,69.0,66.0
1319,210.29360836458335,210.57364635416667,65.0,66.0
1320,210.29360836458335,210.57558433333335,62.0,54.0
1321,210.75872336458335,210.93314148958333,62.0,50.0
1322,210.52616586458333,211.00097076041666,58.0,75.0
1323,210.99128086458333,211.11143557291666,67.0,52.0
1324,211.68895336458334,211.827518875,62.0,63.0
1325,210.29360836458335,211.8333328125,46.0,62.0
1326,211.68895336458334,211.8565885625,65.0,73.0
1327,211.92151086458335,212.10368090625002,46.0,66.0
1328,212.15406836458334,212.40503666666666,60.0,61.0
1329,212.15406836458334,212.41666454166668,67.0,63.0
1330,212.15406836458334,212.42829241666666,64.0,62.0
1331,212.61918336458334,212.74902796875,60.0,51.0
1332,212.38662586458335,213.02034505208334,57.0,58.0
1333,212.85174086458335,213.3439875729167,60.0,62.0
1334,212.85174086458335,213.36046039583334,64.0,62.0
1335,212.85174086458335,213.38662311458333,72.0,49.0
1336,212.15406836458334,213.43507259375002,45.0,63.0
1337,214.013559375,214.38662036458334,65.0,75.0
1338,214.013559375,214.60851897916666,57.0,78.0
1339,214.013559375,214.61530190625,38.0,69.0
1340,214.013559375,214.63855765625001,62.0,93.0
1341,214.013559375,214.66181340625002,50.0,67.0
1342,214.71220086458334,214.874022125,60.0,51.0
1343,214.82847961458333,214.91665766666668,62.0,62.0
1344,214.94475836458335,215.25289705208334,57.0,80.0
1345,214.94475836458335,215.29940855208335,60.0,80.0
1346,214.94475836458335,215.3032845104167,65.0,72.0
1347,214.94475836458335,215.49417545833333,41.0,62.0
1348,214.94475836458335,215.55522180208334,53.0,73.0
1349,215.64243086458333,215.78777930208335,62.0,54.0
1350,215.75870961458335,215.84398069791666,65.0,61.0
1351,215.87498836458334,216.40696364583334,43.0,69.0
1352,215.87498836458334,216.45056817708334,60.0,91.0
1353,215.87498836458334,216.45638211458333,55.0,72.0
1354,215.87498836458334,216.54165319791667,67.0,70.0
1355,216.80521836458334,216.88467551041668,67.0,60.0
1356,216.68893961458335,216.88952045833335,65.0,58.0
1357,216.92149711458333,217.23448075000002,65.0,75.0
1358,216.92149711458333,217.23544973958334,60.0,88.0
1359,216.92149711458333,217.27227134375002,69.0,78.0
1360,216.92149711458333,217.42343371875,45.0,70.0
1361,216.92149711458333,217.46800723958336,57.0,72.0
1362,217.73544836458333,217.94765708333335,67.0,61.0
1363,217.96800586458335,218.32846998958334,67.0,57.0
1364,217.96800586458335,218.34688079166668,60.0,80.0
1365,217.96800586458335,218.3681985625,65.0,82.0
1366,217.96800586458335,218.40308218750002,72.0,78.0
1367,218.43312086458334,219.01645259375002,55.0,44.0
1368,218.89823586458334,219.09300277083335,67.0,63.0
1369,218.89823586458334,219.11432054166667,72.0,67.0
1370,218.89823586458334,219.12691740625002,74.0,70.0
1371,218.89823586458334,219.1588940625,76.0,69.0
1372,218.89823586458334,219.5426139375,60.0,55.0
1373,219.93117876041669,220.03679862500002,76.0,64.0
1374,219.93408572916667,220.0426125625,79.0,76.0
1375,219.93311673958334,220.05617841666668,84.0,70.0
1376,219.94086865625002,220.54939411458335,60.0,48.0
1377,220.97574953125002,221.06877253125,76.0,54.0
1378,219.43796306250002,221.09105929166668,55.0,36.0
1379,220.97768751041667,221.1007491875,88.0,70.0
1380,221.50191087500002,221.59590286458334,55.0,69.0
1381,217.96800586458335,221.62884851041667,48.0,72.0
1382,222.14047501041668,222.3798154375,86.0,76.0
1383,222.14531995833335,222.43989279166667,74.0,73.0
1384,222.92729455208334,223.06973602083335,52.0,58.0
1385,223.12496842708333,223.22477435416667,53.0,64.0
1386,223.32458028125,223.45442488541667,57.0,76.0
1387,223.53388203125002,223.76547054166667,62.0,48.0
1388,223.74415277083335,223.8332998125,64.0,60.0
1389,223.96314441666667,224.09977194791668,65.0,50.0
1390,224.21217473958333,224.3090736979167,69.0,37.0
1391,224.45926708333334,224.57070088541667,74.0,56.0
1392,224.74608800000001,224.84589392708335,76.0,58.0
1393,225.09589323958335,225.18504028125,77.0,69.0
1394,225.48155109375,225.55519430208335,81.0,57.0
1395,225.92728630208333,225.97379780208334,86.0,61.0
1396,222.68892311458333,226.02321627083333,50.0,47.0
1397,222.1433819791667,226.02806121875,38.0,78.0
