,start,end,pitch,velocity
0,13.663854539583335,13.824327550000001,63.0,100.0
1,13.866557289583335,14.038854627083335,65.0,96.0
2,14.069260039583334,14.302368202083334,68.0,117.0
3,14.474665539583334,15.045611618750002,68.0,117.0
4,16.907098539583334,17.027031,63.0,112.0
5,17.109801289583334,17.255071593750003,65.0,92.0
6,17.312504039583335,17.484801377083336,68.0,112.0
7,17.717909539583335,17.82263929375,72.0,127.0
8,18.123315039583336,18.631761104166667,68.0,112.0
9,20.150342539583335,20.29899122291667,63.0,99.0
10,20.353045289583335,20.5033831625,65.0,95.0
11,20.555748039583335,20.763518358333336,68.0,99.0
12,20.961153539583336,21.052369777083335,72.0,127.0
13,21.163856289583336,21.635140183333334,72.0,112.0
14,23.393586539583335,23.560816308333337,72.0,127.0
15,23.596289289583336,23.68412714791667,70.0,97.0
16,23.798992039583336,23.905410983333336,70.0,100.0
17,24.001694789583336,24.128384008333335,68.0,117.0
18,24.609803039583337,24.903722027083337,72.0,107.0
19,25.015208539583334,25.430749177083335,73.0,112.0
20,25.420614039583334,25.751695197916668,72.0,107.0
21,26.231425039583335,26.51183051041667,72.0,102.0
22,26.636830539583336,26.900344114583337,73.0,112.0
23,27.042236039583337,27.265209064583335,75.0,107.0
24,27.447641539583337,27.7804118875,72.0,122.0
25,28.663858039583335,28.739871570833337,65.0,95.0
26,28.866560789583335,29.26520953125,68.0,99.0
27,30.488182789583337,30.677372022916668,68.0,88.0
28,30.690885539583334,30.853047739583335,71.0,102.0
29,30.893588289583334,31.36318299375,71.0,117.0
30,31.501696539583335,31.771966872916668,70.0,122.0
31,31.907102039583336,31.967912864583337,68.0,77.0
32,32.109804789583336,32.505075152083336,68.0,112.0
33,33.93412953958334,34.23480528541667,63.0,100.0
34,34.33953503958334,34.6317648375,65.0,93.0
35,34.74494053958334,35.01521087291667,68.0,93.0
36,35.15034603958333,35.3513596,72.0,117.0
37,35.35304878958333,36.501697706250006,70.0,99.0
38,36.366562539583335,36.63345449375,72.0,107.0
39,36.771968039583335,37.95440074791667,68.0,97.0
40,39.60980653958334,39.770279550000005,63.0,100.0
41,39.81250928958334,39.98480662708334,65.0,96.0
42,40.01521203958334,40.248320202083335,68.0,117.0
43,40.42061753958334,40.99156361875,68.0,117.0
44,42.853050539583336,42.972983000000006,63.0,112.0
45,43.055753289583336,43.20102359375,65.0,92.0
46,43.258456039583336,43.430753377083334,68.0,112.0
47,43.66386153958334,43.768591293750006,72.0,127.0
48,44.06926703958334,44.57771310416667,68.0,112.0
49,46.09629453958334,46.24494322291667,63.0,99.0
50,46.29899728958334,46.449335162500006,65.0,95.0
51,46.50170003958334,46.709470358333334,68.0,99.0
52,46.907105539583334,46.99832177708334,72.0,127.0
53,47.109808289583334,47.58109218333334,72.0,112.0
54,49.33953853958334,49.506768308333335,72.0,127.0
55,49.54224128958334,49.63007914791667,70.0,97.0
56,49.74494403958334,49.85136298333334,70.0,100.0
57,49.94764678958334,50.07433600833334,68.0,117.0
58,50.55575503958334,50.84967402708334,72.0,107.0
59,50.96116053958334,51.37670117708334,73.0,112.0
60,51.36656603958334,51.69764719791667,72.0,107.0
61,52.17737703958334,52.45778251041667,72.0,102.0
62,52.582782539583334,52.84629611458334,73.0,112.0
63,52.988188039583335,53.21116106458334,75.0,107.0
64,53.393593539583335,53.72636388750001,72.0,122.0
65,54.60981003958334,54.685823570833335,65.0,95.0
66,54.81251278958334,55.211161531250006,68.0,99.0
67,56.43413478958334,56.62332402291667,68.0,88.0
68,56.63683753958334,56.79899973958334,71.0,102.0
69,56.83954028958334,57.30913499375001,71.0,117.0
70,57.44764853958334,57.71791887291667,70.0,122.0
71,57.85305403958334,57.91386486458334,68.0,77.0
72,58.05575678958334,58.45102715208334,68.0,112.0
73,59.88008153958334,60.180757285416675,63.0,100.0
74,60.28548703958334,60.577716837500006,65.0,93.0
75,60.69089253958334,60.961162872916674,68.0,93.0
76,61.09629803958334,61.29731160000001,72.0,117.0
77,61.29900078958334,62.447649706250004,70.0,99.0
78,62.31251453958334,62.57940649375001,72.0,107.0
79,62.71792003958334,63.90035274791667,68.0,97.0
80,65.96116403958334,66.19933977083333,68.0,100.0
81,66.36656953958334,66.60981283958334,72.0,122.0
82,66.77197503958334,66.97467778958334,68.0,99.0
83,67.17738053958334,67.39190761666667,68.0,107.0
84,67.58278603958334,67.69934012083334,65.0,99.0
85,67.78548878958334,68.52873220625001,68.0,112.0
86,69.60981353958334,69.84967846041667,70.0,107.0
87,70.01521903958334,70.23143530625,70.0,102.0
88,70.42062453958334,70.60136782500001,70.0,122.0
89,70.82603003958334,70.94089493125,70.0,112.0
90,71.02873278958334,71.8885302875,68.0,102.0
91,72.65035478958335,72.871638625,68.0,77.0
92,72.85305753958333,73.13684138958334,73.0,112.0
93,73.25846303958333,73.52535499375,73.0,117.0
94,73.66386853958333,73.92400373541668,73.0,102.0
95,74.06927403958333,74.27704435833334,73.0,112.0
96,74.27197678958333,74.55576063958334,75.0,112.0
97,74.88008503958334,75.24663917916668,72.0,99.0
98,75.28549053958334,75.68245009166667,70.0,97.0
99,75.69089603958334,76.2263691375,68.0,95.0
100,76.50170703958334,76.78549088958334,70.0,102.0
101,76.90711253958334,77.15542340833333,72.0,102.0
102,77.31251803958334,77.72130191875,72.0,112.0
103,78.93414003958334,79.15542387500001,68.0,99.0
104,79.33954553958334,79.57434289166667,75.0,122.0
105,79.74495103958334,79.98650515000001,75.0,117.0
106,80.15035653958334,80.38515389166668,75.0,112.0
107,80.55576203958334,80.63515395,75.0,127.0
108,80.75846478958334,80.99326214166668,75.0,122.0
109,82.17738403958334,82.33447867083333,73.0,117.0
110,82.38008678958334,82.55407331666667,71.0,90.0
111,82.58278953958335,82.82772202916668,73.0,107.0
112,82.98819503958335,83.08447884583335,73.0,107.0
113,83.19089778958335,83.41387081458333,73.0,107.0
114,83.59630328958335,83.84123577916667,78.0,97.0
115,83.95947905000001,84.11826287083333,73.0,89.0
116,84.09968178541668,84.2331277625,75.0,92.0
117,84.21623586666668,84.9729928,73.0,72.0
118,86.23143903958334,86.42569584166668,73.0,127.0
119,86.63684453958334,86.80238511875001,73.0,127.0
120,87.24495278958334,87.43414202291667,65.0,96.0
121,87.44765553958334,87.72468263125,73.0,100.0
122,87.85306103958334,88.13346651041667,71.0,127.0
123,88.25846653958334,88.47975037500001,73.0,127.0
124,88.66387203958334,90.44765623958334,75.0,122.0
125,91.70441328958334,91.88177819583333,73.0,117.0
126,91.90711603958334,92.14529177083334,72.0,86.0
127,92.10981878958334,92.29225126458334,73.0,90.0
128,92.31252153958334,92.52704861666668,72.0,83.0
129,92.51522428958334,93.20441363958334,70.0,99.0
130,94.74495453958335,94.90542755000001,63.0,100.0
131,94.94765728958335,95.11995462708335,65.0,96.0
132,95.15036003958335,95.38346820208334,68.0,117.0
133,95.55576553958335,96.12671161875001,68.0,117.0
134,97.98819853958334,98.10813100000001,63.0,112.0
135,98.19090128958334,98.33617159375001,65.0,92.0
136,98.39360403958334,98.56590137708334,68.0,112.0
137,98.59630678958334,98.71455006041667,65.0,96.0
138,98.79900953958334,98.90373929375001,72.0,127.0
139,99.20441503958334,99.71286110416668,68.0,112.0
140,101.23144253958334,101.38009122291668,63.0,99.0
141,101.43414528958334,101.5844831625,65.0,95.0
142,101.63684803958334,101.84461835833334,68.0,99.0
143,102.04225353958334,102.13346977708335,72.0,127.0
144,102.24495628958334,102.71624018333334,72.0,112.0
145,104.47468653958335,104.64191630833334,72.0,127.0
146,104.67738928958335,104.76522714791668,70.0,97.0
147,104.88009203958335,104.98651098333335,70.0,100.0
148,105.08279478958335,105.20948400833335,68.0,117.0
149,105.69090303958335,105.98482202708334,72.0,107.0
150,106.09630853958335,106.51184917708335,73.0,112.0
151,106.50171403958335,106.83279519791668,72.0,107.0
152,107.31252503958335,107.59293051041668,72.0,102.0
153,107.71793053958334,107.98144411458334,73.0,112.0
154,108.12333603958334,108.34630906458334,75.0,107.0
155,108.52874153958334,108.86151188750001,72.0,122.0
156,109.74495803958334,109.82097157083334,65.0,95.0
157,109.94766078958334,110.34630953125001,68.0,99.0
158,111.56928278958334,111.75847202291668,68.0,88.0
159,111.77198553958334,111.93414773958334,71.0,102.0
160,111.97468828958334,112.44428299375001,71.0,117.0
161,112.58279653958334,112.85306687291667,70.0,122.0
162,112.98820203958334,113.04901286458335,68.0,77.0
163,113.19090478958334,113.58617515208334,68.0,112.0
164,115.01522953958334,115.31590528541668,63.0,100.0
165,115.42063503958335,115.7128648375,65.0,93.0
166,115.82604053958335,116.09631087291667,68.0,93.0
167,116.23144603958335,116.43245960000002,72.0,117.0
168,116.43414878958335,117.58279770625,70.0,99.0
169,117.44766253958335,117.71455449375001,72.0,107.0
170,117.85306803958335,119.03550074791667,68.0,97.0
171,150.28550803958333,150.52368377083334,68.0,100.0
172,150.69091353958333,150.93415683958335,72.0,122.0
173,151.09631903958334,151.29902178958335,68.0,99.0
174,151.50172453958334,151.71625161666668,68.0,107.0
175,151.90713003958334,152.02368412083334,65.0,99.0
176,152.10983278958335,152.85307620625002,68.0,112.0
177,153.93415753958334,154.17402246041667,70.0,107.0
178,154.33956303958334,154.55577930625,70.0,102.0
179,154.74496853958334,154.925711825,70.0,122.0
180,155.15037403958334,155.26523893125002,70.0,112.0
181,155.35307678958335,156.2128742875,68.0,102.0
182,156.97469878958336,157.195982625,68.0,100.0
183,157.17740153958334,157.46118538958333,73.0,112.0
184,157.58280703958334,157.84969899375002,73.0,117.0
185,157.98821253958334,158.24834773541667,73.0,102.0
186,158.39361803958334,158.60138835833334,73.0,112.0
187,158.59632078958336,158.88010463958335,75.0,112.0
188,159.20442903958335,159.5709831791667,72.0,99.0
189,159.60983453958335,160.00679409166668,70.0,97.0
190,160.01524003958335,160.55071313750003,68.0,95.0
191,160.82605103958335,161.10983488958334,70.0,102.0
192,161.23145653958335,161.47976740833334,72.0,102.0
193,161.63686203958335,162.04564591875,72.0,112.0
194,163.25848403958335,163.47976787500002,68.0,99.0
195,163.66388953958335,163.89868689166667,75.0,122.0
196,164.06929503958335,164.31084915000002,75.0,117.0
197,164.47470053958335,164.70949789166667,75.0,112.0
198,164.88010603958335,164.95949795,75.0,127.0
199,165.08280878958334,165.3176061416667,75.0,122.0
200,166.50172803958336,166.65882267083336,73.0,117.0
201,166.70443078958334,166.87841731666668,71.0,90.0
202,166.90713353958336,167.1520660291667,73.0,107.0
203,167.31253903958336,167.40882284583336,73.0,107.0
204,167.51524178958334,167.73821481458336,73.0,107.0
205,167.92064728958334,168.16557977916668,78.0,97.0
206,168.28382305000002,168.44260687083334,73.0,89.0
207,168.4240257854167,168.5574717625,75.0,92.0
208,168.5405798666667,169.2973368,73.0,72.0
209,170.55578303958336,170.75003984166668,73.0,127.0
210,170.96118853958336,171.12672911875,73.0,127.0
211,171.56929678958335,171.75848602291668,63.0,88.0
212,171.77199953958333,172.04902663125,73.0,100.0
213,172.17740503958333,172.4578105104167,71.0,127.0
214,172.58281053958333,172.804094375,73.0,127.0
215,172.98821603958334,174.77200023958335,75.0,122.0
216,176.02875728958335,176.20612219583336,73.0,117.0
217,176.23146003958334,176.46963577083335,72.0,86.0
218,176.43416278958335,176.61659526458334,73.0,90.0
219,176.63686553958334,176.8513926166667,72.0,83.0
220,176.83956828958335,177.52875763958335,70.0,99.0
221,179.06929853958334,179.22977155,63.0,100.0
222,179.27200128958336,179.44429862708336,65.0,96.0
223,179.47470403958334,179.70781220208335,68.0,117.0
224,179.88010953958334,180.45105561875002,68.0,117.0
225,182.31254253958335,182.432475,63.0,112.0
226,182.51524528958336,182.66051559375,65.0,92.0
227,182.71794803958335,182.89024537708335,68.0,112.0
228,182.92065078958336,183.03889406041668,65.0,96.0
229,183.12335353958335,183.22808329375002,72.0,127.0
230,183.52875903958335,184.03720510416667,68.0,112.0
231,185.55578653958335,185.7044352229167,63.0,99.0
232,185.75848928958334,185.90882716250002,65.0,95.0
233,185.96119203958335,186.16896235833335,68.0,99.0
234,186.36659753958335,186.45781377708335,72.0,127.0
235,186.56930028958334,187.04058418333335,72.0,112.0
236,188.79903053958336,188.96626030833335,72.0,127.0
237,189.00173328958334,189.08957114791667,70.0,97.0
238,189.20443603958336,189.31085498333334,70.0,100.0
239,189.40713878958334,189.53382800833336,68.0,117.0
240,190.01524703958336,190.30916602708334,72.0,107.0
241,190.42065253958336,190.83619317708335,73.0,112.0
242,190.82605803958336,191.15713919791668,72.0,107.0
243,191.63686903958336,191.9172745104167,72.0,102.0
244,192.04227453958336,192.30578811458335,73.0,112.0
245,192.44768003958336,192.67065306458335,75.0,107.0
246,192.85308553958336,193.18585588750003,72.0,122.0
247,194.06930203958336,194.14531557083336,65.0,95.0
248,194.27200478958335,194.67065353125003,68.0,99.0
249,195.89362678958335,196.0828160229167,68.0,88.0
250,196.09632953958334,196.25849173958335,71.0,102.0
251,196.29903228958335,196.76862699375002,71.0,117.0
252,196.90714053958334,197.17741087291668,70.0,122.0
253,197.31254603958334,197.37335686458334,68.0,77.0
254,197.51524878958335,197.91051915208334,68.0,112.0
255,199.33957353958334,199.64024928541667,63.0,100.0
256,199.74497903958334,200.0372088375,65.0,93.0
257,200.15038453958334,200.42065487291669,68.0,93.0
258,200.55579003958334,200.7568036,72.0,117.0
259,200.75849278958336,201.90714170625003,70.0,99.0
260,201.77200653958334,202.03889849375003,72.0,107.0
261,202.17741203958334,203.3598447479167,68.0,97.0
262,205.42065603958335,205.64700744375003,68.0,100.0
263,205.82606153958335,206.17741297291667,63.0,97.0
264,206.23146703958335,206.56085900833335,65.0,97.0
265,206.63687253958335,206.84971042708335,68.0,107.0
266,207.04227803958335,207.22639970416668,72.0,112.0
267,207.24498078958334,208.14869721666668,70.0,97.0
268,208.25849453958335,208.5439675791667,72.0,112.0
269,208.66390003958335,209.44092724791668,72.0,127.0
270,209.47471103958335,209.8378868,73.0,127.0
271,209.88011653958336,210.27200852291668,75.0,112.0
272,210.28552203958336,211.3412655291667,72.0,112.0
273,212.31254953958336,212.64869826666668,63.0,97.0
274,212.71795503958336,212.99160375208336,65.0,96.0
275,213.12336053958336,213.39869844166668,68.0,100.0
276,213.52876603958336,214.09126617083336,72.0,112.0
277,217.98822653958334,218.29734823333334,68.0,102.0
278,218.39363203958334,221.61998414375003,68.0,107.0
