,start,end,pitch,velocity
0,33.39199215,33.844063483333336,64.0,103.0
1,34.01375215,34.18862215,71.0,102.0
2,34.32463215,34.48395815,69.0,93.0
3,34.635512150000004,35.072039483333334,71.0,102.0
4,35.257272150000006,35.38939615,69.0,102.0
5,35.56815215,35.68214148333334,71.0,95.0
6,35.87903215,36.228772150000005,72.0,87.0
7,36.345352150000004,36.443797483333334,74.0,95.0
8,36.50079215,36.584988816666666,72.0,103.0
9,36.81167215,36.93731948333333,69.0,95.0
10,37.122552150000004,37.741721483333336,71.0,93.0
11,38.21063215,38.28835215,71.0,93.0
12,38.36607215,38.455450150000004,72.0,102.0
13,38.676952150000005,38.77928348333334,72.0,85.0
14,38.832392150000004,38.913998150000005,71.0,103.0
15,38.98783215,39.092754150000005,69.0,105.0
16,39.29871215,39.42176881666667,67.0,102.0
17,39.609592150000005,39.74171615,69.0,90.0
18,39.92047215,40.02798481666667,69.0,102.0
19,40.07591215,40.165290150000004,67.0,83.0
20,40.231352150000006,40.39326881666667,69.0,102.0
21,40.542232150000004,40.68860481666667,71.0,87.0
22,40.85311215,40.99041748333334,67.0,87.0
23,41.163992150000006,41.277981483333335,66.0,87.0
24,41.47487215,41.62124481666667,64.0,87.0
25,41.78575215,41.90880881666667,67.0,87.0
26,42.096632150000005,42.68082748333334,66.0,93.0
27,43.34015215,43.79222348333334,64.0,103.0
28,43.96191215,44.13678215,71.0,102.0
29,44.27279215,44.43211815,69.0,93.0
30,44.58367215,45.020199483333336,71.0,102.0
31,45.20543215,45.337556150000005,69.0,102.0
32,45.516312150000005,45.630301483333334,71.0,95.0
33,45.82719215,46.13807215,72.0,87.0
34,46.13807215,46.448952150000004,72.0,95.0
35,46.448952150000004,46.53314881666667,72.0,103.0
36,46.75983215,46.885479483333334,69.0,95.0
37,47.07071215,47.68988148333334,71.0,93.0
38,48.31423215,48.40361015,72.0,102.0
39,48.62511215,48.72744348333334,72.0,85.0
40,48.780552150000005,48.86215815,71.0,103.0
41,48.935992150000004,49.04091415,69.0,105.0
42,49.24651749166667,49.36925630416667,67.0,102.0
43,49.55659449166667,49.68837721666667,69.0,90.0
44,49.86667149166667,49.97390645416667,69.0,102.0
45,50.02170999166667,50.110857129166675,67.0,83.0
46,50.17674849166667,50.33824692916667,69.0,102.0
47,50.48682549166667,50.63282007916667,71.0,87.0
48,50.79690249166667,50.93385316666667,67.0,87.0
49,51.10697949166667,51.22067439166667,66.0,87.0
50,51.41705649166667,51.56305107916667,64.0,87.0
51,51.72713349166667,51.849872304166674,62.0,87.0
52,52.03721049166667,52.61989685416667,64.0,93.0
53,53.27751849166667,53.420929104166675,69.0,93.0
54,53.74263399166667,53.82402920416667,69.0,85.0
55,53.89767249166667,54.00361546666667,69.0,93.0
56,54.207749491666675,54.31886041666667,69.0,93.0
57,54.51782649166667,54.634105366666674,72.0,93.0
58,54.827903491666675,54.90542274166667,72.0,87.0
59,54.98294199166667,55.07725707916667,71.0,71.0
60,55.137980491666674,55.22195967916667,69.0,87.0
61,55.448057491666674,55.55270847916667,69.0,87.0
62,55.758134491666674,55.87441336666667,71.0,87.0
63,56.06821149166667,56.167694529166674,71.0,90.0
64,56.22324999166667,56.34082085416667,69.0,93.0
65,56.37828849166667,56.49844332916667,67.0,93.0
66,56.68836549166667,56.790432504166674,69.0,95.0
67,56.99844249166667,57.28655570416667,67.0,93.0
68,57.30851949166667,57.83306641666667,64.0,102.0
69,58.23875049166667,58.54882749166667,69.0,105.0
70,58.703865991666675,58.790429154166674,69.0,74.0
71,58.85890449166667,58.96355547916667,69.0,87.0
72,59.16898149166667,59.307224154166676,69.0,93.0
73,59.47905849166667,59.61342519166667,69.0,93.0
74,59.78913549166667,59.91187430416667,69.0,80.0
75,59.94417399166667,60.06045286666667,69.0,87.0
76,60.09921249166667,60.22841124166667,69.0,83.0
77,60.40928949166667,60.52686035416667,67.0,83.0
78,60.56432799166667,60.71936649166667,69.0,100.0
79,60.71936649166667,60.833061391666675,71.0,80.0
80,61.02944349166667,61.11988261666667,71.0,87.0
81,61.339520491666676,61.480347129166674,69.0,93.0
82,61.64959749166667,61.74003661666667,67.0,87.0
83,61.80463599166667,61.89119915416667,69.0,87.0
84,61.959674491666675,62.897657416666675,71.0,87.0
85,63.199982491666674,63.32530527916667,69.0,87.0
86,63.66509799166667,63.74261724166667,69.0,87.0
87,63.82013649166667,63.97000704166667,69.0,90.0
88,64.13021349166667,64.28008404166667,69.0,102.0
89,64.44029049166667,64.58757706666667,72.0,87.0
90,64.75036749166668,64.88861015416667,71.0,95.0
91,65.06044449166667,65.20773106666667,69.0,90.0
92,65.37052149166666,65.50876415416667,69.0,87.0
93,65.68059849166667,65.83046904166667,71.0,66.0
94,65.99067549166668,66.11470629166666,69.0,93.0
95,66.30075249166667,66.44416310416668,67.0,95.0
96,66.61082949166666,66.72452439166668,69.0,95.0
97,66.76586799166667,66.84338724166668,67.0,74.0
98,66.92090649166667,67.61211980416667,64.0,95.0
99,68.00617599166668,68.11470294166668,67.0,87.0
100,68.16121449166667,68.47129149166668,69.0,87.0
101,68.62632999166667,68.70384924166667,69.0,95.0
102,68.78136849166667,68.88601947916668,69.0,93.0
103,69.09144549166668,69.21160032916667,69.0,93.0
104,69.40152249166667,69.53330521666668,69.0,87.0
105,69.71159949166668,69.87697389166667,69.0,93.0
106,70.02167649166667,70.17413101666668,67.0,83.0
107,70.33175349166667,70.46095224166667,69.0,93.0
108,70.64183049166667,70.89666988333335,71.0,93.0
109,71.10780921666668,71.21532188333335,71.0,90.0
110,71.26324921666668,71.35651321666667,69.0,95.0
111,71.57412921666668,71.73863655000001,67.0,87.0
112,71.88500921666667,72.46402321666667,71.0,71.0
113,72.50676921666667,72.74640588333334,71.0,95.0
114,72.81764921666668,72.97956588333334,74.0,93.0
115,73.12852921666668,73.54821721666667,76.0,95.0
116,73.75028921666667,74.25287855,74.0,102.0
117,74.37204921666668,74.83318788333334,71.0,93.0
118,74.99380921666668,75.16479321666668,69.0,93.0
119,75.30468921666667,75.51712388333334,67.0,93.0
120,75.61556921666667,75.81375521666668,69.0,95.0
121,75.92644921666667,76.02878055000001,71.0,93.0
122,76.08188921666668,76.18940188333335,69.0,87.0
123,76.23732921666668,76.40831321666667,67.0,87.0
124,76.54820921666668,76.85908921666667,66.0,68.0
125,76.85908921666667,77.05727521666668,64.0,93.0
126,77.48084921666667,77.70882788333334,64.0,102.0
127,77.79172921666668,77.96530388333335,66.0,87.0
128,78.10260921666668,78.52229721666667,67.0,90.0
129,78.72436921666667,78.91866921666667,67.0,93.0
130,79.03524921666667,79.20623321666667,71.0,87.0
131,79.34612921666667,79.69068788333334,69.0,93.0
132,79.96788921666668,80.09353655000001,66.0,83.0
133,80.12332921666668,80.20493521666668,64.0,69.0
134,80.27876921666667,80.43809521666668,62.0,80.0
135,80.58964921666667,80.87980388333334,64.0,93.0
136,81.05596921666668,81.13757521666668,66.0,90.0
137,81.21140921666668,81.32280788333334,67.0,71.0
138,81.52228921666668,81.67254788333334,69.0,102.0
139,81.83316921666668,82.16218388333334,71.0,93.0
140,82.45492921666667,82.69456588333334,71.0,95.0
141,82.76580921666668,82.92772588333334,74.0,93.0
142,83.07668921666668,83.49637721666667,76.0,95.0
143,83.69844921666667,84.20103855,74.0,102.0
144,84.32020921666668,84.78134788333334,71.0,93.0
145,84.94196921666668,85.11295321666668,69.0,93.0
146,85.25284921666668,85.46528388333334,67.0,93.0
147,85.56372921666667,85.76191521666668,69.0,95.0
148,85.87460921666667,85.97694055000001,71.0,93.0
149,86.03004921666667,86.13756188333335,69.0,87.0
150,86.18548921666668,86.35647321666667,67.0,87.0
151,86.49636921666668,86.80724921666668,66.0,68.0
152,86.80724921666668,87.00543521666668,64.0,93.0
153,87.42900921666669,87.65698788333334,64.0,102.0
154,87.73988921666668,87.91346388333335,66.0,87.0
155,88.05076921666668,88.47045721666667,67.0,90.0
156,88.67252921666667,88.86682921666667,67.0,93.0
157,88.98340921666667,89.15439321666668,71.0,87.0
158,89.29428921666667,89.63884788333334,69.0,93.0
159,89.91604921666668,90.09869121666668,67.0,68.0
160,90.22692921666668,90.44324988333335,66.0,85.0
161,90.53780921666667,91.75024121666668,64.0,93.0
162,95.51188921666667,95.96396055000001,64.0,103.0
163,96.13364921666667,96.30851921666668,71.0,102.0
164,96.44452921666668,96.60385521666667,69.0,93.0
165,96.75540921666668,97.19193655000001,71.0,102.0
166,97.37716921666667,97.50929321666668,69.0,102.0
167,97.68804921666668,97.80203855,71.0,95.0
168,97.99892921666668,98.34866921666668,72.0,87.0
169,98.46524921666668,98.56369455000001,74.0,95.0
170,98.62068921666668,98.70488588333335,72.0,103.0
171,98.93156921666667,99.05721655,69.0,95.0
172,99.24244921666667,99.86161855,71.0,93.0
173,100.33052921666668,100.40824921666668,71.0,93.0
174,100.48596921666667,100.57534721666667,72.0,102.0
175,100.79684921666669,100.89918055000001,72.0,85.0
176,100.95228921666668,101.03389521666668,71.0,103.0
177,101.10772921666668,101.21265121666667,69.0,105.0
178,101.41860921666668,101.54166588333334,67.0,102.0
179,101.72948921666668,101.86161321666668,69.0,90.0
180,102.04036921666668,102.14788188333334,69.0,102.0
181,102.19580921666667,102.28518721666669,67.0,83.0
182,102.35124921666667,102.51316588333334,69.0,102.0
183,102.66212921666667,102.80850188333335,71.0,87.0
184,102.97300921666667,103.11031455000001,67.0,87.0
185,103.28388921666668,103.39787855,66.0,87.0
186,103.59476921666668,103.74114188333334,64.0,87.0
187,103.90564921666669,104.02870588333334,67.0,87.0
188,104.21652921666669,104.80072455000001,66.0,93.0
189,105.46004921666668,105.91212055000001,64.0,103.0
190,106.08180921666667,106.25667921666667,71.0,102.0
191,106.39268921666667,106.55201521666667,69.0,93.0
192,106.70356921666668,107.14009655000001,71.0,102.0
193,107.32532921666669,107.45745321666668,69.0,102.0
194,107.63620921666669,107.75019855000002,71.0,95.0
195,107.94708921666668,108.25796921666668,72.0,87.0
196,108.25796921666668,108.56884921666668,72.0,95.0
197,108.56884921666668,108.65304588333335,72.0,103.0
198,108.87972921666668,109.00537655000001,69.0,95.0
199,109.19060921666667,109.80977855,71.0,93.0
200,110.43412921666668,110.52350721666667,72.0,102.0
201,110.74500921666669,110.84734055000001,72.0,85.0
202,110.90044921666669,110.98205521666668,71.0,103.0
203,111.05588921666669,111.16081121666667,69.0,105.0
204,111.36676921666668,111.48982588333334,67.0,102.0
205,111.67764921666668,111.80977321666668,69.0,90.0
206,111.98852921666668,112.09604188333334,69.0,102.0
207,112.14396921666668,112.23334721666669,67.0,83.0
208,112.29940921666667,112.46132588333334,69.0,102.0
209,112.61028921666667,112.75666188333335,71.0,87.0
210,112.92116921666667,113.05847455000001,67.0,87.0
211,113.23204921666668,113.34603855,66.0,87.0
212,113.54292921666668,113.68930188333334,64.0,87.0
213,113.85380921666668,113.97686588333335,62.0,87.0
214,114.16468921666669,114.74888455000001,64.0,93.0
215,115.4077709125,115.551181525,69.0,93.0
216,115.87288641250001,115.95428162500001,69.0,85.0
217,116.0279249125,116.1338678875,69.0,93.0
218,116.3380019125,116.44911283750001,69.0,93.0
219,116.6480789125,116.7643577875,72.0,93.0
220,116.9581559125,117.0356751625,72.0,87.0
221,117.11319441250001,117.2075095,71.0,71.0
222,117.26823291250001,117.3522121,69.0,87.0
223,117.5783099125,117.6829609,69.0,87.0
224,117.88838691250001,118.0046657875,71.0,87.0
225,118.1984639125,118.29794695000001,71.0,90.0
226,118.3535024125,118.47107327500001,69.0,93.0
227,118.50854091250001,118.62869575,67.0,93.0
228,118.8186179125,118.920684925,69.0,95.0
229,119.12869491250001,119.416808125,67.0,93.0
230,119.4387719125,119.9633188375,64.0,102.0
231,120.36900291250001,120.6790799125,69.0,105.0
232,120.8341184125,120.920681575,69.0,74.0
233,120.98915691250001,121.0938079,69.0,87.0
234,121.2992339125,121.437476575,69.0,93.0
235,121.6093109125,121.74367761250001,69.0,93.0
236,121.9193879125,122.042126725,69.0,80.0
237,122.0744264125,122.19070528750001,69.0,87.0
238,122.2294649125,122.3586636625,69.0,83.0
239,122.5395419125,122.657112775,67.0,83.0
240,122.6945804125,122.8496189125,69.0,100.0
241,122.8496189125,122.9633138125,71.0,80.0
242,123.1596959125,123.2501350375,71.0,87.0
243,123.4697729125,123.61059955,69.0,93.0
244,123.7798499125,123.8702890375,67.0,87.0
245,123.9348884125,124.021451575,69.0,87.0
246,124.0899269125,125.0279098375,71.0,87.0
247,125.3302349125,125.4555577,69.0,87.0
248,125.79617683333333,125.87389683333333,69.0,87.0
249,125.95161683333333,126.1018755,69.0,90.0
250,126.26249683333333,126.4127555,69.0,102.0
251,126.57337683333334,126.72104483333334,72.0,87.0
252,126.88425683333334,127.0228575,71.0,95.0
253,127.19513683333334,127.34280483333333,69.0,90.0
254,127.50601683333333,127.64461750000001,69.0,87.0
255,127.81689683333333,127.9671555,71.0,66.0
256,128.12777683333334,128.25212883333333,69.0,93.0
257,128.43865683333334,128.58243883333333,67.0,95.0
258,128.74953683333334,128.86352616666667,69.0,95.0
259,128.90497683333334,128.98269683333334,67.0,74.0
260,129.06041683333333,129.75342016666667,64.0,95.0
261,130.14849683333333,130.25730483333334,67.0,87.0
262,130.30393683333332,130.61481683333335,69.0,87.0
263,130.77025683333335,130.84797683333335,69.0,95.0
264,130.92569683333335,131.03061883333334,69.0,93.0
265,131.23657683333334,131.35704283333334,69.0,93.0
266,131.54745683333334,131.67958083333335,69.0,87.0
267,131.85833683333334,132.0241395,69.0,93.0
268,132.16921683333334,132.32206616666667,67.0,83.0
269,132.48009683333333,132.60963016666668,69.0,93.0
270,132.79097683333333,133.0461575,71.0,93.0
271,133.25729683333333,133.3648095,71.0,90.0
272,133.41273683333333,133.50600083333333,69.0,95.0
273,133.72361683333332,133.88812416666667,67.0,87.0
274,134.03449683333332,134.61351083333335,71.0,71.0
275,134.65625683333334,134.8958935,71.0,95.0
276,134.96713683333334,135.1290535,74.0,93.0
277,135.27801683333334,135.69770483333335,76.0,95.0
278,135.89977683333333,136.40236616666667,74.0,102.0
279,136.52153683333333,136.9826755,71.0,93.0
280,137.14329683333332,137.31428083333333,69.0,93.0
281,137.45417683333335,137.66661150000002,67.0,93.0
282,137.76505683333335,137.96324283333334,69.0,95.0
283,138.07593683333334,138.17826816666667,71.0,93.0
284,138.23137683333334,138.3388895,69.0,87.0
285,138.38681683333334,138.55780083333335,67.0,87.0
286,138.69769683333334,139.00857683333334,66.0,68.0
287,139.00857683333334,139.20676283333333,64.0,93.0
288,139.63033683333333,139.8583155,64.0,102.0
289,139.94121683333333,140.1147915,66.0,87.0
290,140.25209683333333,140.67178483333333,67.0,90.0
291,140.87385683333335,141.06815683333335,67.0,93.0
292,141.18473683333335,141.35572083333335,71.0,87.0
293,141.49561683333334,141.84017550000002,69.0,93.0
294,142.11737683333334,142.24302416666666,66.0,83.0
295,142.27281683333334,142.35442283333333,64.0,69.0
296,142.42825683333334,142.58758283333333,62.0,80.0
297,142.73913683333333,143.0292915,64.0,93.0
298,143.20545683333333,143.28706283333332,66.0,90.0
299,143.36089683333333,143.4722955,67.0,71.0
300,143.67177683333333,143.8220355,69.0,102.0
301,143.98265683333335,144.3116715,71.0,93.0
302,144.60441683333335,144.8440535,71.0,95.0
303,144.91529683333334,145.0772135,74.0,93.0
304,145.22617683333334,145.64586483333335,76.0,95.0
305,145.84793683333334,146.35052616666667,74.0,102.0
306,146.46969683333333,146.9308355,71.0,93.0
307,147.09145683333332,147.26244083333333,69.0,93.0
308,147.40233683333332,147.61477150000002,67.0,93.0
309,147.71321683333335,147.91140283333334,69.0,95.0
310,148.02409683333335,148.12642816666667,71.0,93.0
311,148.17953683333334,148.2870495,69.0,87.0
312,148.33497683333334,148.50596083333335,67.0,87.0
313,148.64585683333334,148.95673683333334,66.0,68.0
314,148.95673683333334,149.15492283333333,64.0,93.0
315,149.57849683333333,149.8064755,64.0,102.0
316,149.88937683333333,150.0629515,66.0,87.0
317,150.20025683333333,150.61994483333334,67.0,90.0
318,150.82201683333335,151.01631683333335,67.0,93.0
319,151.13289683333335,151.30388083333332,71.0,87.0
320,151.44377683333335,151.78833550000002,69.0,93.0
321,152.06553683333334,152.24817883333333,67.0,68.0
322,152.37641683333334,152.5927375,66.0,85.0
323,152.68729683333333,153.89972883333334,64.0,93.0
324,182.51935040833334,182.66276102083333,69.0,93.0
325,182.98446590833333,183.06586112083335,69.0,85.0
326,183.13950440833335,183.24544738333333,69.0,93.0
327,183.44958140833333,183.56069233333335,69.0,93.0
328,183.75965840833334,183.87593728333334,72.0,93.0
329,184.06973540833334,184.14725465833334,72.0,87.0
330,184.22477390833333,184.31908899583334,71.0,71.0
331,184.37981240833335,184.46379159583333,69.0,87.0
332,184.68988940833333,184.79454039583334,69.0,87.0
333,184.99996640833334,185.11624528333334,71.0,87.0
334,185.31004340833334,185.40952644583334,71.0,90.0
335,185.46508190833333,185.58265277083333,69.0,93.0
336,185.62012040833335,185.74027524583335,67.0,93.0
337,185.93019740833333,186.03226442083334,69.0,95.0
338,186.08523590833335,186.24027440833333,67.0,93.0
339,186.24027440833333,187.17050540833333,64.0,102.0
340,187.48058240833333,187.79065940833334,69.0,105.0
341,187.94569790833333,188.03226107083333,69.0,74.0
342,188.10073640833335,188.20538739583333,69.0,87.0
343,188.41081340833335,188.54905607083333,69.0,93.0
344,188.72089040833333,188.85525710833335,69.0,93.0
345,189.03096740833334,189.15370622083333,71.0,80.0
346,189.18600590833333,189.30228478333333,69.0,87.0
347,189.34104440833335,189.47024315833335,69.0,83.0
348,189.65112140833335,189.76869227083333,67.0,83.0
349,189.80615990833334,189.96119840833333,69.0,100.0
350,189.96119840833333,190.07489330833334,71.0,80.0
351,190.42631390833333,190.51675303333334,69.0,87.0
352,190.58135240833334,190.72217904583334,67.0,93.0
353,190.89142940833335,190.98186853333334,67.0,87.0
354,191.04646790833334,191.13303107083334,69.0,87.0
355,191.20150640833333,192.13948933333333,71.0,87.0
356,192.44181440833333,192.56713719583334,69.0,87.0
357,192.90692990833335,192.98444915833335,69.0,87.0
358,193.06196840833334,193.21183895833335,69.0,90.0
359,193.37204540833335,193.52191595833335,69.0,102.0
360,193.52708390833334,193.68212240833333,67.0,100.0
361,193.68212240833333,193.82940898333334,69.0,87.0
362,193.99219940833333,194.13044207083334,71.0,95.0
363,194.30227640833334,194.61235340833335,69.0,90.0
364,194.92243040833335,195.07230095833333,71.0,66.0
365,195.23250740833333,195.35653820833335,69.0,93.0
366,195.54258440833334,195.68599502083333,67.0,95.0
367,195.85266140833335,195.96635630833333,69.0,95.0
368,196.00769990833334,196.08521915833333,67.0,74.0
369,196.16273840833333,196.85395172083335,64.0,95.0
370,197.24800790833334,197.35653485833333,67.0,87.0
371,197.40304640833335,197.55808490833334,69.0,87.0
372,197.55808490833334,197.71312340833333,69.0,87.0
373,197.86816190833335,197.94568115833334,69.0,95.0
374,198.02320040833334,198.12785139583335,69.0,93.0
375,198.33404934583334,198.45482844583333,69.0,93.0
376,198.64573734583334,198.77820474583334,69.0,87.0
377,198.95742534583334,199.12365894583334,69.0,93.0
378,199.26911334583335,199.42235994583334,67.0,83.0
379,199.58080134583335,199.71067134583333,69.0,93.0
380,199.89248934583333,200.14833324583333,71.0,93.0
381,200.20417734583333,200.46781344583334,71.0,90.0
382,200.51586534583333,200.82755334583334,71.0,95.0
383,200.82755334583334,201.13924134583334,72.0,87.0
384,201.13924134583334,201.71976024583333,71.0,71.0
385,202.38599334583333,202.53014904583333,69.0,93.0
386,202.85352534583333,202.93534344583333,69.0,85.0
387,203.00936934583333,203.11586274583334,69.0,93.0
388,203.32105734583334,203.43274554583334,69.0,93.0
389,203.63274534583334,203.74962834583334,69.0,93.0
390,203.94443334583335,204.02235534583335,69.0,87.0
391,204.25612134583335,204.34053684583333,67.0,87.0
392,204.56780934583333,204.67300404583335,69.0,87.0
393,204.87949734583333,205.34702934583333,71.0,87.0
394,205.34702934583333,205.46521104583334,69.0,93.0
395,205.50287334583334,205.62365244583333,67.0,93.0
396,205.81456134583334,205.91715864583333,69.0,95.0
397,205.97040534583334,206.12624934583334,67.0,93.0
398,206.12624934583334,207.06131334583333,64.0,102.0
399,207.37300134583333,207.68468934583333,69.0,105.0
400,207.84053334583334,207.92754624583333,69.0,74.0
401,207.99637734583334,208.10157204583334,69.0,87.0
402,208.30806534583334,208.46390934583334,69.0,93.0
403,208.46390934583334,208.61975334583335,69.0,93.0
404,208.61975334583335,208.75481814583333,69.0,93.0
405,208.93115181250002,209.24203181250002,69.0,80.0
406,209.24203181250002,209.7083518125,69.0,83.0
407,209.8637918125,210.1746718125,71.0,80.0
408,210.3301118125,210.42078514583335,69.0,87.0
409,210.4855518125,210.62674314583336,67.0,93.0
410,210.7964318125,210.88710514583335,69.0,87.0
411,211.1073118125,212.0477238125,71.0,87.0
412,212.35083181250002,212.47647914583334,69.0,87.0
413,212.66171181250002,212.81715181250001,69.0,100.0
414,212.81715181250001,212.8948718125,69.0,87.0
415,212.9725918125,213.1228504791667,69.0,90.0
416,213.2834718125,213.43373047916668,69.0,102.0
417,213.5943518125,213.74201981250002,69.0,87.0
418,213.9052318125,214.04383247916667,67.0,95.0
419,214.2161118125,214.5269918125,69.0,90.0
420,214.83787181250003,214.98813047916667,71.0,66.0
421,215.14875181250002,215.2731038125,69.0,93.0
422,215.45963181250002,215.6034138125,67.0,95.0
423,215.77051181250002,215.88450114583335,69.0,95.0
424,215.92595181250002,216.00367181250002,67.0,74.0
425,216.08139181250002,216.77439514583335,64.0,95.0
426,217.1694718125,217.27827981250002,67.0,87.0
427,217.3249118125,217.4803518125,69.0,87.0
428,217.4803518125,217.6357918125,69.0,87.0
429,217.7912318125,217.8689518125,69.0,95.0
430,217.9466718125,218.05159381250002,69.0,93.0
431,218.25755181250003,218.37801781250002,69.0,93.0
432,218.56843181250002,218.7005558125,69.0,87.0
433,218.87931181250002,219.04511447916667,69.0,93.0
434,219.19019181250002,219.6565118125,69.0,83.0
435,219.8119518125,220.1228318125,71.0,93.0
436,220.2782718125,220.4337118125,71.0,90.0
437,220.4337118125,220.7445918125,69.0,95.0
438,220.7445918125,221.0554718125,67.0,87.0
439,221.0554718125,221.67723181250003,71.0,71.0
440,221.67723181250003,221.91686847916668,71.0,95.0
441,221.98811181250002,222.15002847916668,74.0,93.0
442,222.29899181250002,222.7186798125,76.0,95.0
443,222.92075181250001,223.42334114583335,74.0,102.0
444,223.5425118125,224.00365047916668,71.0,93.0
445,224.1642718125,224.3352558125,69.0,93.0
446,224.4751518125,224.68758647916667,67.0,93.0
447,224.78603181250003,224.98421781250002,69.0,95.0
448,225.09691181250003,225.19924314583335,71.0,93.0
449,225.25235181250002,225.35986447916667,69.0,87.0
450,225.40779181250002,225.5787758125,67.0,87.0
451,225.71867181250002,226.02955181250002,66.0,68.0
452,226.02955181250002,226.2277378125,64.0,93.0
453,226.6513118125,226.87929047916668,64.0,102.0
454,226.9621918125,227.13576647916668,66.0,87.0
455,227.2730718125,227.69275981250001,67.0,90.0
456,227.8948318125,228.0891318125,67.0,93.0
457,228.2057118125,228.3766958125,71.0,87.0
458,228.51659181250002,228.86115047916667,69.0,93.0
459,229.13835181250002,229.26399914583334,66.0,83.0
460,229.29379181250002,229.3753978125,64.0,69.0
461,229.44923181250002,229.6085578125,62.0,80.0
462,229.7601118125,230.05026647916668,64.0,93.0
463,230.2264318125,230.3080378125,66.0,90.0
464,230.3818718125,230.49327047916668,67.0,71.0
465,230.6927518125,230.84301047916668,69.0,102.0
466,231.0036318125,231.33264647916667,71.0,93.0
467,231.62539181250003,231.86502847916668,71.0,95.0
468,231.93627181250002,232.09818847916668,74.0,93.0
469,232.24715181250002,232.66683981250003,76.0,95.0
470,232.86891181250002,233.37150114583335,74.0,102.0
471,233.4906718125,233.95181047916668,71.0,93.0
472,234.1124318125,234.2834158125,69.0,93.0
473,234.4233118125,234.63574647916667,67.0,93.0
474,234.7341918125,234.93237781250002,69.0,95.0
475,235.04507181250003,235.14740314583335,71.0,93.0
476,235.20051181250003,235.30802447916668,69.0,87.0
477,235.35595181250002,235.52693581250003,67.0,87.0
478,235.66683181250002,235.97714971250002,66.0,68.0
479,235.97714971250002,236.1748238,64.0,93.0
480,236.59730371250004,236.82469351250003,64.0,102.0
481,236.90738071250001,237.0805070375,66.0,87.0
482,237.21745771250002,237.63606166250003,67.0,90.0
483,237.83761171250003,238.03140983750004,67.0,93.0
484,238.1476887125,238.31823106250002,71.0,87.0
485,238.45776571250002,238.80143438750002,69.0,93.0
486,239.07791971250003,239.26008995000004,67.0,68.0
487,239.3879967125,239.60375862500004,66.0,85.0
488,239.69807371250002,240.90737401250001,64.0,93.0
489,241.55853571250003,241.79755340000003,71.0,95.0
490,241.86861271250004,242.03011115000004,74.0,93.0
491,242.17868971250002,242.59729366250002,76.0,95.0
492,242.79884371250003,243.30013486250002,74.0,102.0
493,243.41899771250002,243.87894526250003,71.0,93.0
494,244.03915171250003,244.20969406250003,69.0,93.0
495,244.34922871250004,244.56111466250002,67.0,93.0
496,244.65930571250001,244.85697980000003,69.0,95.0
497,244.96938271250002,245.07144972500004,71.0,93.0
498,245.12442121250004,245.231656175,69.0,87.0
499,245.27945971250003,245.45000206250003,67.0,87.0
500,245.58953671250003,245.8996137125,66.0,68.0
501,245.8996137125,246.09728780000003,64.0,93.0
502,246.51976771250003,246.74715751250002,64.0,102.0
503,246.82984471250003,247.00297103750003,66.0,87.0
504,247.13992171250004,247.55852566250002,67.0,90.0
505,247.76007571250003,247.95387383750003,67.0,93.0
506,248.07015271250003,248.24069506250004,71.0,87.0
507,248.38022971250004,248.72389838750001,69.0,93.0
508,249.00038371250002,249.12570650000004,66.0,83.0
509,249.1554222125,249.23681742500003,64.0,69.0
510,249.31046071250003,249.46937517500004,62.0,80.0
511,249.62053771250004,249.90994291250001,64.0,93.0
512,250.08565321250003,250.16704842500002,66.0,90.0
513,250.24069171250002,250.35180263750001,67.0,71.0
514,250.55076871250003,250.70063926250003,69.0,102.0
515,250.86084571250004,251.18901053750002,71.0,93.0
516,251.48099971250002,251.72001740000002,71.0,95.0
517,251.79107671250003,251.95257515000003,74.0,93.0
518,252.10115371250004,252.5197576625,76.0,95.0
519,252.72130771250002,253.22259886250004,74.0,102.0
520,253.34146171250003,253.80140926250002,71.0,93.0
521,253.96161571250002,254.13215806250003,69.0,93.0
522,254.27169271250003,254.48357866250004,67.0,93.0
523,254.58176971250003,254.77944380000002,69.0,95.0
524,254.8918467125,254.99391372500003,71.0,93.0
525,255.04688521250003,255.15412017500003,69.0,87.0
526,255.20192371250002,255.37246606250002,67.0,87.0
527,255.51200071250003,255.82207771250003,66.0,68.0
528,255.82207771250003,256.01975180000005,64.0,93.0
529,256.4422317125,256.66962151250004,64.0,102.0
530,256.75230871250005,256.92543503750005,66.0,87.0
531,257.06238571250003,257.4809896625,67.0,90.0
532,257.68253971250004,257.87633783750005,67.0,93.0
533,257.9926167125,258.16315906250003,71.0,87.0
534,258.3026937125,258.6463623875,69.0,93.0
535,258.9228477125,259.10501795000005,67.0,68.0
536,259.23292471250005,259.44868662500005,66.0,85.0
537,259.54300171250003,260.7523020125,64.0,93.0
538,261.4034637125,261.6424814,71.0,95.0
539,261.71354071250005,261.87503915,74.0,93.0
540,262.0236177125,262.4422216625,76.0,95.0
541,262.64377171250004,263.1450628625,74.0,102.0
542,263.26392571250005,263.72387326250004,71.0,93.0
543,263.8840797125,264.0546220625,69.0,93.0
544,264.19415671250005,264.4060426625,67.0,93.0
545,264.5042337125,264.7019078,69.0,95.0
546,264.8143107125,264.916377725,71.0,93.0
547,264.96934921250005,265.07658417500005,69.0,87.0
548,265.12438771250004,265.29493006250004,67.0,87.0
549,265.4344647125,265.74454171250005,66.0,68.0
550,265.74454171250005,265.94221580000004,64.0,93.0
551,266.3646957125,266.59208551250003,64.0,102.0
552,266.67477271250004,266.84789903750004,66.0,87.0
553,266.9848497125,267.40345366250006,67.0,90.0
554,267.60500371250004,267.79880183750004,67.0,93.0
555,267.9150807125,268.0856230625,71.0,87.0
556,268.22515771250005,268.56882638750005,69.0,93.0
557,268.8453117125,268.9706345,66.0,83.0
558,269.00035021250005,269.081745425,64.0,69.0
559,269.15538871250004,269.314303175,62.0,80.0
560,269.4654657125,269.7548709125,64.0,93.0
561,269.93058121250004,270.01197642500006,66.0,90.0
562,270.08561971250003,270.1967306375,67.0,71.0
563,270.3956967125,270.5455672625,69.0,102.0
564,270.70577371250005,271.03393853750003,71.0,93.0
565,271.3259277125,271.56494540000006,71.0,95.0
566,271.63600471250004,271.79750315,74.0,93.0
567,271.9460817125,272.36468566250005,76.0,95.0
568,272.56623571250003,273.0675268625,74.0,85.0
569,273.18638971250004,273.6463372625,71.0,77.0
570,273.8065437125,273.9770860625,69.0,69.0
571,274.11662071250004,274.32850666250005,67.0,66.0
572,274.4266977125,274.6243718,69.0,60.0
573,274.73677471250005,274.838841725,71.0,57.0
574,274.89181321250004,274.99904817500004,69.0,55.0
575,275.04685171250003,275.21739406250003,67.0,52.0
576,275.3569287125,275.66700571250004,66.0,49.0
577,275.66700571250004,275.86467980000003,64.0,44.0
578,276.28715971250006,276.5145495125,64.0,38.0
579,276.59723671250003,276.77036303750003,66.0,33.0
580,276.9073137125,277.32591766250005,67.0,30.0
581,277.5274677125,277.7212658375,67.0,22.0
582,277.8375447125,278.0080870625,71.0,16.0
583,278.14762171250004,278.49129038750004,69.0,13.0
584,278.7677757125,278.94994595000003,67.0,5.0
585,279.07785271250003,279.29361462500003,66.0,2.0
586,279.3879297125,280.5972300125,64.0,1.0
