,start,end,pitch,velocity
0,1.1121121416666668,1.6804104666666668,64.0,80.0
1,1.1030915333333333,1.7345341166666668,59.0,45.0
2,1.039947275,1.7525753333333334,55.0,60.0
3,0.9884009416666667,1.83247215,52.0,52.0
4,2.929120391666667,3.087625366666667,52.0,69.0
5,2.9226771,3.087625366666667,59.0,68.0
6,1.0489678833333334,3.328604475,40.0,74.0
7,2.5786053250000003,3.331181791666667,47.0,29.0
8,3.2371097333333334,4.954891291666667,52.0,54.0
9,3.443295066666667,4.966489216666667,55.0,70.0
10,3.5605629750000003,4.9755098250000005,59.0,60.0
11,3.509016641666667,5.5533114875,40.0,61.0
12,6.0326388500000006,6.3517597625,67.0,69.0
13,5.96028755,6.3646796375,64.0,64.0
14,5.8788923375,6.3672636125,59.0,63.0
15,5.9874192875,6.6540848375,40.0,74.0
16,7.8608011625000005,7.968036125,59.0,59.0
17,7.854341225000001,8.0649351875,67.0,80.0
18,8.1153227,8.372428212500001,59.0,66.0
19,8.485025183333333,9.471433816666666,59.0,68.0
20,8.478548516666667,9.489758416666668,64.0,74.0
21,9.394208716666666,9.722742616666666,47.0,52.0
22,8.46429985,9.765936316666666,40.0,68.0
23,9.738449416666667,9.878501716666667,59.0,68.0
24,9.738449416666667,10.154679616666666,64.0,74.0
25,9.731904916666666,10.310438716666667,67.0,80.0
26,10.025098516666667,10.438710916666667,59.0,55.0
27,10.378501516666667,10.663841716666667,64.0,65.0
28,11.319512150000001,11.427024816666668,52.0,83.0
29,11.319512150000001,11.43220615,59.0,83.0
30,11.006773516666666,11.517698150000001,40.0,80.0
31,11.63039215,12.064328816666666,47.0,53.0
32,11.94127215,12.066919483333335,52.0,69.0
33,11.94127215,12.066919483333335,55.0,80.0
34,11.94127215,12.078577483333333,59.0,80.0
35,12.563032150000002,12.85836815,59.0,90.0
36,12.563032150000002,12.886865483333334,52.0,87.0
37,12.563032150000002,12.910181483333334,55.0,93.0
38,12.25215215,13.300076816666667,40.0,69.0
39,12.87391215,13.325983483333335,47.0,68.0
40,13.18479215,13.325983483333335,55.0,93.0
41,13.18479215,13.337641483333334,52.0,87.0
42,13.18479215,13.346708816666666,59.0,83.0
43,13.806552150000002,14.162768816666667,52.0,83.0
44,13.806552150000002,14.180903483333335,59.0,85.0
45,13.806552150000002,14.183494150000001,55.0,93.0
46,13.49567215,14.214582150000002,40.0,74.0
47,14.42831215,14.557845483333335,55.0,80.0
48,14.42831215,14.569503483333333,52.0,72.0
49,14.42831215,14.569503483333333,59.0,74.0
50,14.11743215,14.590228816666666,47.0,68.0
51,14.739192150000001,15.428309483333333,43.0,69.0
52,15.050072150000002,15.547480150000002,50.0,72.0
53,15.050072150000002,15.552661483333335,55.0,87.0
54,15.050072150000002,15.55913815,59.0,80.0
55,15.67183215,15.770277483333334,50.0,70.0
56,15.360952150000001,15.78064015,38.0,80.0
57,15.67183215,15.79229815,55.0,85.0
58,15.67183215,15.803956150000001,59.0,80.0
59,15.982712150000001,16.590223483333332,45.0,69.0
60,16.293592150000002,16.781932816666668,52.0,71.0
61,16.293592150000002,16.801362816666668,57.0,80.0
62,16.91535215,17.017683483333336,57.0,93.0
63,16.91535215,17.031932150000003,60.0,80.0
64,16.60447215,17.033227483333334,40.0,68.0
65,16.91535215,17.03581815,52.0,87.0
66,17.22623215,17.831152816666666,45.0,64.0
67,17.537112150000002,17.942551483333332,52.0,80.0
68,17.537112150000002,17.96068615,57.0,83.0
69,17.537112150000002,17.96845815,60.0,80.0
70,17.847992150000003,18.132965483333336,40.0,74.0
71,18.15887215,18.222343483333333,52.0,68.0
72,18.15887215,18.234001483333333,60.0,64.0
73,18.15887215,18.23659215,57.0,83.0
74,18.46975215,19.097988816666668,48.0,67.0
75,18.780632150000002,19.205501483333336,60.0,87.0
76,18.780632150000002,19.21197815,55.0,90.0
77,18.780632150000002,19.23011281666667,64.0,93.0
78,19.09151215,19.47234015,43.0,61.0
79,19.40239215,19.489179483333334,55.0,85.0
80,19.40239215,19.489179483333334,60.0,87.0
81,19.40239215,19.50990481666667,64.0,93.0
82,19.71327215,20.231405483333333,47.0,68.0
83,20.02415215,20.421819483333337,63.0,68.0
84,20.02415215,20.452907483333334,59.0,68.0
85,20.02415215,20.500834816666668,66.0,67.0
86,20.335032150000004,20.711974150000003,54.0,54.0
87,20.64591215,20.822077483333334,63.0,93.0
88,20.64591215,20.876481483333336,66.0,70.0
89,20.64591215,20.903683483333335,59.0,80.0
90,20.956792150000002,21.394614816666667,40.0,61.0
91,21.267672150000003,21.452904816666667,59.0,63.0
92,21.267672150000003,21.47751615,52.0,68.0
93,21.267672150000003,21.489174150000004,55.0,63.0
94,21.57855215,22.252125483333337,47.0,65.0
95,21.88943215,22.27285081666667,55.0,80.0
96,21.88943215,22.311710816666668,59.0,80.0
97,21.88943215,22.314301483333335,52.0,74.0
98,22.200312150000002,22.730103483333334,40.0,65.0
99,22.51119215,22.835025483333332,55.0,93.0
100,22.51119215,22.86481815,59.0,87.0
101,22.51119215,22.869999483333334,52.0,80.0
102,22.822072150000004,23.214558150000002,47.0,65.0
103,23.13295215,23.231397483333335,55.0,93.0
104,23.13295215,23.237874150000003,52.0,74.0
105,23.13295215,23.237874150000003,59.0,80.0
106,23.443832150000002,23.895903483333335,40.0,71.0
107,23.754712150000003,24.07206881666667,55.0,87.0
108,23.754712150000003,24.074659483333335,52.0,69.0
109,23.754712150000003,24.101861483333337,64.0,85.0
110,24.37647215,24.437352816666667,52.0,53.0
111,24.06559215,24.515072816666667,42.0,61.0
112,24.37647215,24.544865483333336,55.0,85.0
113,24.37647215,24.610927483333334,64.0,83.0
114,24.687352150000002,25.406262150000003,43.0,66.0
115,24.99823215,25.432168816666668,59.0,74.0
116,24.99823215,25.447712816666666,55.0,68.0
117,24.99823215,25.452894150000002,62.0,80.0
118,25.61999215,25.770250816666668,55.0,83.0
119,25.61999215,25.770250816666668,59.0,87.0
120,25.61999215,25.781908816666668,62.0,87.0
121,25.309112150000004,25.820768816666668,50.0,68.0
122,26.241752150000003,26.58760615,60.0,69.0
123,26.241752150000003,26.58760615,64.0,80.0
124,26.241752150000003,26.618694150000003,57.0,68.0
125,25.930872150000003,26.862216816666667,45.0,74.0
126,26.55263215,27.020247483333335,52.0,66.0
127,26.863512150000002,27.02542881666667,57.0,72.0
128,26.863512150000002,27.028019483333335,60.0,80.0
129,26.863512150000002,27.031905483333333,64.0,80.0
130,27.48527215,27.811696150000003,63.0,68.0
131,27.48527215,27.820763483333337,59.0,68.0
132,27.48527215,27.83889815,66.0,64.0
133,27.64071215,27.949001483333333,54.0,56.0
134,27.174392150000003,28.236565483333337,47.0,74.0
135,28.107032150000002,28.292264816666666,63.0,72.0
136,28.107032150000002,28.376461483333337,66.0,64.0
137,28.107032150000002,28.430865483333335,59.0,69.0
138,28.41791215,28.99563081666667,52.0,85.0
139,28.573352150000005,29.01635615,64.0,69.0
140,28.573352150000005,29.043558150000003,67.0,68.0
141,28.728792150000004,29.17827281666667,59.0,63.0
142,28.884232150000003,29.37257281666667,47.0,60.0
143,29.35055215,29.43604415,59.0,47.0
144,29.661432150000003,29.907545483333337,59.0,68.0
145,29.661432150000003,30.03319281666667,64.0,80.0
146,29.661432150000003,30.697698816666666,52.0,70.0
147,30.90495215,31.16790481666667,59.0,61.0
148,30.90495215,31.294847483333335,64.0,66.0
149,31.215832150000004,31.368681483333333,59.0,65.0
150,31.52671215,31.679561483333337,59.0,68.0
151,31.52671215,31.889405483333334,64.0,72.0
152,31.83759215,31.99950881666667,59.0,63.0
153,32.14847215,32.369974150000004,59.0,74.0
154,32.14847215,32.627745483333335,67.0,71.0
155,32.770232150000005,32.90235615,59.0,74.0
156,32.770232150000005,33.13810681666667,64.0,87.0
157,33.08111215,33.26893548333334,59.0,74.0
158,30.90495215,33.362199483333335,52.0,71.0
159,33.39199215,33.79613615,40.0,74.0
160,33.702872150000005,33.81038481666667,59.0,74.0
161,33.702872150000005,33.816861483333334,52.0,80.0
162,34.32463215,34.44768881666667,55.0,87.0
163,34.32463215,34.456756150000004,52.0,87.0
164,34.01375215,34.458051483333335,47.0,58.0
165,34.32463215,34.46841415,59.0,87.0
166,34.635512150000004,35.08110681666667,40.0,68.0
167,34.94639215,35.26633948333333,55.0,93.0
168,34.94639215,35.28317881666667,52.0,87.0
169,34.94639215,35.293541483333335,59.0,87.0
170,35.257272150000006,35.63810015,47.0,60.0
171,35.56815215,35.65753015,55.0,87.0
172,35.56815215,35.666597483333334,52.0,80.0
173,35.56815215,35.68214148333334,59.0,80.0
174,35.87903215,36.49820148333334,45.0,64.0
175,36.189912150000005,36.61219081666667,60.0,63.0
176,36.189912150000005,36.61478148333334,57.0,87.0
177,36.189912150000005,36.63291615,52.0,68.0
178,36.50079215,36.886801483333336,40.0,50.0
179,36.81167215,36.94638681666667,57.0,87.0
180,36.81167215,36.95545415,60.0,80.0
181,36.81167215,36.96193081666667,52.0,85.0
182,37.122552150000004,37.51503815,40.0,68.0
183,37.43343215,37.93343081666667,55.0,83.0
184,37.43343215,37.939907483333336,52.0,74.0
185,37.43343215,37.958042150000004,59.0,80.0
186,38.05519215,38.096642816666666,60.0,66.0
187,37.744312150000006,38.16400015,47.0,51.0
188,38.05519215,38.192497483333334,55.0,74.0
189,38.05519215,38.21063215,52.0,74.0
190,38.05519215,38.215813483333335,59.0,59.0
191,38.36607215,38.82462015,45.0,65.0
192,38.676952150000005,39.03575948333334,52.0,72.0
193,38.676952150000005,39.04223615,57.0,80.0
194,38.676952150000005,39.051303483333335,60.0,80.0
195,38.98783215,39.33498148333334,40.0,58.0
196,39.29871215,39.430836150000005,52.0,69.0
197,39.29871215,39.43342681666667,57.0,85.0
198,39.29871215,39.44897081666667,60.0,80.0
199,39.609592150000005,40.16010881666667,45.0,59.0
200,39.92047215,40.33109281666667,52.0,87.0
201,39.92047215,40.33368348333334,57.0,93.0
202,39.92047215,40.34922748333334,60.0,80.0
203,40.231352150000006,40.582387483333335,40.0,68.0
204,40.542232150000004,40.67047015,52.0,83.0
205,40.542232150000004,40.701558150000004,57.0,87.0
206,40.542232150000004,40.743008816666666,60.0,85.0
207,40.85311215,41.26632348333334,48.0,87.0
208,41.163992150000006,41.53186681666667,55.0,80.0
209,41.163992150000006,41.54482015,60.0,83.0
210,41.163992150000006,41.55000148333334,64.0,87.0
211,41.47487215,41.81295415,43.0,74.0
212,41.78575215,41.92694348333334,55.0,80.0
213,41.78575215,41.93212481666667,60.0,71.0
214,41.78575215,41.977461483333336,64.0,74.0
215,42.096632150000005,42.85699281666667,47.0,69.0
216,42.40751215,42.85699281666667,63.0,83.0
217,42.40751215,42.85958348333334,59.0,68.0
218,42.40751215,42.89844348333334,66.0,65.0
219,42.71839215000001,43.029272150000004,54.0,61.0
220,43.029272150000004,43.15491948333334,63.0,87.0
221,43.029272150000004,43.19118881666667,59.0,80.0
222,43.029272150000004,43.205437483333334,66.0,70.0
223,43.34015215,43.744296150000004,52.0,69.0
224,43.65103215,43.79481415,64.0,90.0
225,43.65103215,43.80258615,59.0,74.0
226,43.65103215,43.81553948333333,67.0,83.0
227,43.96191215,44.40491615,47.0,55.0
228,44.27279215,44.61476015,67.0,80.0
229,44.27279215,44.65621081666667,64.0,87.0
230,44.27279215,44.67434548333333,59.0,68.0
231,44.58367215,45.116054150000004,52.0,80.0
232,44.89455215,45.32589815,59.0,80.0
233,44.89455215,45.32589815,64.0,93.0
234,45.20543215,45.64325481666667,47.0,70.0
235,45.516312150000005,45.657503483333336,64.0,90.0
236,45.516312150000005,45.66268481666667,67.0,74.0
237,45.516312150000005,45.68470548333333,59.0,74.0
238,45.82719215,46.29739815,45.0,71.0
239,46.13807215,46.53962548333334,64.0,87.0
240,46.13807215,46.54480681666667,57.0,80.0
241,46.13807215,46.55387415,60.0,80.0
242,46.448952150000004,46.80257815,52.0,68.0
243,46.75983215,46.94895081666667,60.0,85.0
244,46.75983215,46.94895081666667,64.0,93.0
245,46.75983215,46.95413215,57.0,80.0
246,47.07071215,47.49299081666667,40.0,74.0
247,47.38159215,47.779259483333334,52.0,70.0
248,47.38159215,47.79221281666667,59.0,74.0
249,47.38159215,47.801280150000004,55.0,83.0
250,47.69247215,48.099206816666666,47.0,63.0
251,48.003352150000005,48.162678150000005,55.0,80.0
252,48.003352150000005,48.16526881666667,52.0,74.0
253,48.003352150000005,48.18599415,59.0,80.0
254,48.31423215,48.82329815,45.0,85.0
255,48.62511215,48.93081081666667,57.0,74.0
256,48.62511215,48.93081081666667,60.0,83.0
257,48.62511215,48.933401483333334,64.0,87.0
258,48.935992150000004,49.33824860416667,52.0,74.0
259,49.24651749166667,49.36925630416667,60.0,87.0
260,49.24651749166667,49.37442425416667,57.0,80.0
261,49.24651749166667,49.380884191666674,64.0,87.0
262,49.86667149166667,50.259435691666674,60.0,83.0
263,49.86667149166667,50.264603641666675,64.0,87.0
264,49.86667149166667,50.27106357916667,57.0,74.0
265,49.55659449166667,50.27752351666667,45.0,74.0
266,50.17674849166667,50.60568834166667,52.0,68.0
267,50.48682549166667,50.63023610416667,57.0,74.0
268,50.48682549166667,50.636696041666674,60.0,74.0
269,50.48682549166667,50.65219989166667,64.0,87.0
270,51.10697949166667,51.46356804166667,62.0,87.0
271,51.10697949166667,51.475195929166674,66.0,68.0
272,51.10697949166667,51.477779904166674,59.0,80.0
273,50.79690249166667,51.482947854166675,47.0,69.0
274,51.41705649166667,51.66253411666667,54.0,63.0
275,51.72713349166667,51.88863192916667,62.0,93.0
276,51.72713349166667,51.91834764166667,59.0,72.0
277,51.72713349166667,51.922223604166675,66.0,72.0
278,52.03721049166667,52.51912182916667,40.0,65.0
279,52.34728749166667,52.758139516666674,64.0,83.0
280,52.34728749166667,52.763307466666674,67.0,80.0
281,52.34728749166667,52.76589144166667,59.0,71.0
282,52.96744149166667,53.15865564166667,59.0,83.0
283,52.96744149166667,53.15865564166667,64.0,93.0
284,52.96744149166667,53.15865564166667,67.0,85.0
285,52.65736449166667,53.18578737916667,47.0,67.0
286,53.27751849166667,53.415761154166674,57.0,66.0
287,53.27751849166667,53.42480506666667,60.0,67.0
288,53.27751849166667,53.78010162916667,45.0,87.0
289,53.58759549166667,53.89896447916667,57.0,83.0
290,53.58759549166667,53.91059236666667,60.0,93.0
291,53.89767249166667,54.28268476666667,52.0,66.0
292,54.207749491666675,54.34211619166667,60.0,80.0
293,54.207749491666675,54.35762004166667,57.0,71.0
294,54.207749491666675,54.37312389166667,64.0,87.0
295,54.827903491666675,54.99844584166667,57.0,68.0
296,54.827903491666675,55.01007372916667,60.0,68.0
297,55.137980491666674,55.33565457916667,52.0,70.0
298,54.51782649166667,55.358910354166674,45.0,71.0
299,55.448057491666674,55.55658444166667,64.0,80.0
300,55.448057491666674,55.56821232916667,60.0,68.0
301,55.448057491666674,55.58888412916667,57.0,67.0
302,56.06821149166667,56.45451575416667,59.0,74.0
303,56.06821149166667,56.45709972916667,52.0,74.0
304,56.06821149166667,56.46355966666667,55.0,80.0
305,56.37828849166667,56.77622064166667,47.0,61.0
306,56.68836549166667,56.77880461666667,52.0,74.0
307,56.68836549166667,56.77880461666667,55.0,93.0
308,56.68836549166667,56.790432504166674,59.0,83.0
309,55.758134491666674,56.79430846666667,40.0,74.0
310,57.30851949166667,57.49456569166667,52.0,74.0
311,57.30851949166667,57.495857679166676,55.0,83.0
312,57.30851949166667,57.50360960416667,59.0,80.0
313,57.61859649166667,57.75942312916667,55.0,80.0
314,57.61859649166667,57.75942312916667,59.0,80.0
315,57.61859649166667,57.76200710416667,52.0,66.0
316,56.99844249166667,57.92608951666667,40.0,50.0
317,57.61859649166667,57.99844081666667,47.0,64.0
318,57.92867349166667,58.03720044166667,55.0,80.0
319,57.92867349166667,58.04236839166667,52.0,68.0
320,57.92867349166667,58.06045621666667,59.0,80.0
321,58.23875049166667,58.37699315416667,57.0,66.0
322,58.23875049166667,58.386037066666674,60.0,67.0
323,58.23875049166667,58.741333629166675,45.0,87.0
324,58.54882749166667,58.860196479166675,57.0,83.0
325,58.54882749166667,58.87182436666667,60.0,93.0
326,58.85890449166667,59.24391676666667,52.0,66.0
327,59.16898149166667,59.30334819166667,60.0,80.0
328,59.16898149166667,59.31885204166667,57.0,71.0
329,59.16898149166667,59.334355891666675,64.0,87.0
330,59.78913549166667,59.959677841666675,57.0,68.0
331,59.78913549166667,59.97130572916667,60.0,68.0
332,60.09921249166667,60.29688657916667,52.0,70.0
333,59.47905849166667,60.32014235416667,45.0,71.0
334,60.40928949166667,60.51781644166667,64.0,80.0
335,60.40928949166667,60.52944432916667,60.0,68.0
336,60.40928949166667,60.55011612916667,57.0,67.0
337,61.02944349166667,61.415747754166674,59.0,74.0
338,61.02944349166667,61.418331729166674,52.0,74.0
339,61.02944349166667,61.42479166666667,55.0,80.0
340,61.339520491666676,61.73745264166667,47.0,61.0
341,61.64959749166667,61.74003661666667,52.0,74.0
342,61.64959749166667,61.74003661666667,55.0,93.0
343,61.64959749166667,61.75166450416667,59.0,83.0
344,60.71936649166667,61.75554046666667,40.0,74.0
345,62.26975149166667,62.455797691666675,52.0,74.0
346,62.26975149166667,62.45708967916667,55.0,83.0
347,62.26975149166667,62.46484160416667,59.0,80.0
348,62.579828491666674,62.72065512916667,55.0,80.0
349,62.579828491666674,62.72065512916667,59.0,80.0
350,62.579828491666674,62.72323910416667,52.0,66.0
351,61.959674491666675,62.887321516666674,40.0,50.0
352,62.579828491666674,62.95967281666667,47.0,64.0
353,62.889905491666674,62.99843244166667,55.0,80.0
354,62.889905491666674,63.00360039166667,52.0,68.0
355,62.889905491666674,63.021688216666675,59.0,80.0
356,63.199982491666674,63.33822515416667,57.0,66.0
357,63.199982491666674,63.34726906666667,60.0,67.0
358,63.199982491666674,63.70256562916667,45.0,87.0
359,63.510059491666674,63.82142847916667,57.0,83.0
360,63.510059491666674,63.83305636666667,60.0,93.0
361,63.82013649166667,64.20514876666667,52.0,66.0
362,64.13021349166667,64.26458019166667,60.0,80.0
363,64.13021349166667,64.28008404166667,57.0,71.0
364,64.13021349166667,64.29558789166667,64.0,87.0
365,64.75036749166668,64.92090984166667,57.0,68.0
366,64.75036749166668,64.93253772916667,60.0,68.0
367,65.06044449166667,65.25811857916668,52.0,70.0
368,64.44029049166667,65.28137435416667,45.0,71.0
369,65.37052149166666,65.47904844166666,64.0,80.0
370,65.37052149166666,65.49067632916667,60.0,68.0
371,65.37052149166666,65.51134812916666,57.0,67.0
372,65.99067549166668,66.37697975416667,59.0,74.0
373,65.99067549166668,66.37956372916668,52.0,74.0
374,65.99067549166668,66.38602366666667,55.0,80.0
375,66.30075249166667,66.69868464166667,47.0,61.0
376,66.61082949166666,66.70126861666667,52.0,74.0
377,66.61082949166666,66.70126861666667,55.0,93.0
378,66.61082949166666,66.71289650416668,59.0,83.0
379,65.68059849166667,66.71677246666667,40.0,74.0
380,67.23098349166668,67.41702969166667,52.0,74.0
381,67.23098349166668,67.41832167916667,55.0,83.0
382,67.23098349166668,67.42607360416667,59.0,80.0
383,67.54106049166667,67.68188712916667,55.0,80.0
384,67.54106049166667,67.68188712916667,59.0,80.0
385,67.54106049166667,67.68447110416668,52.0,66.0
386,66.92090649166667,67.84855351666667,40.0,50.0
387,67.54106049166667,67.92090481666668,47.0,64.0
388,67.85113749166668,67.95966444166667,55.0,80.0
389,67.85113749166668,67.96483239166668,52.0,68.0
390,67.85113749166668,67.98292021666667,59.0,80.0
391,68.16121449166667,68.29945715416667,57.0,66.0
392,68.16121449166667,68.30850106666668,60.0,67.0
393,68.16121449166667,68.66379762916668,45.0,87.0
394,68.47129149166668,68.78266047916668,57.0,83.0
395,68.47129149166668,68.79428836666668,60.0,93.0
396,68.78136849166667,69.16638076666668,52.0,66.0
397,69.09144549166668,69.22581219166668,60.0,80.0
398,69.09144549166668,69.24131604166666,57.0,71.0
399,69.09144549166668,69.25681989166668,64.0,87.0
400,69.71159949166668,69.88214184166668,57.0,68.0
401,69.71159949166668,69.89376972916668,60.0,68.0
402,70.02167649166667,70.21935057916667,52.0,70.0
403,69.40152249166667,70.24260635416667,45.0,71.0
404,70.33175349166667,70.44028044166667,64.0,80.0
405,70.33175349166667,70.45190832916667,60.0,68.0
406,70.33175349166667,70.47258012916667,57.0,67.0
407,70.64183049166667,70.83578921666667,63.0,69.0
408,70.64183049166667,70.85133321666667,59.0,70.0
409,70.64183049166667,71.08449321666667,47.0,80.0
410,70.95236921666668,71.27231655000001,63.0,71.0
411,70.95236921666668,71.29045121666668,59.0,71.0
412,71.26324921666668,71.77879188333334,54.0,68.0
413,71.57412921666668,71.84614921666667,63.0,87.0
414,71.57412921666668,71.87723721666667,66.0,65.0
415,71.57412921666668,71.89148588333335,59.0,72.0
416,72.19588921666667,72.26195121666667,63.0,74.0
417,72.19588921666667,72.28915321666668,59.0,66.0
418,72.19588921666667,72.30340188333334,66.0,67.0
419,71.88500921666667,72.42645855,47.0,69.0
420,72.50676921666667,72.83578388333333,54.0,87.0
421,72.50676921666667,72.84873721666668,63.0,93.0
422,72.50676921666667,72.86298588333334,66.0,87.0
423,72.50676921666667,72.89018788333334,59.0,80.0
424,73.12852921666668,73.55339855000001,40.0,80.0
425,73.43940921666668,73.69977121666668,59.0,83.0
426,73.43940921666668,73.70236188333334,52.0,74.0
427,74.06116921666667,74.22049521666668,54.0,72.0
428,73.75028921666667,74.22308588333334,42.0,65.0
429,74.06116921666667,74.25028788333334,59.0,80.0
430,74.37204921666668,74.87204788333334,43.0,87.0
431,74.68292921666668,75.04691788333334,62.0,83.0
432,74.68292921666668,75.04821321666668,55.0,74.0
433,74.68292921666668,75.04821321666668,59.0,80.0
434,74.99380921666668,75.42774588333334,50.0,61.0
435,75.30468921666667,75.43292721666667,55.0,74.0
436,75.30468921666667,75.43292721666667,59.0,80.0
437,75.30468921666667,75.46012921666667,62.0,80.0
438,75.92644921666667,76.35520455000001,57.0,74.0
439,75.92644921666667,76.36686255000001,60.0,87.0
440,75.92644921666667,76.36945321666667,64.0,87.0
441,75.61556921666667,76.49510055,45.0,74.0
442,76.23732921666668,76.53525588333335,52.0,60.0
443,76.54820921666668,76.70105855000001,64.0,93.0
444,76.54820921666668,76.70753521666667,60.0,90.0
445,76.54820921666668,76.72178388333334,57.0,80.0
446,77.16996921666667,77.50416521666668,55.0,87.0
447,77.16996921666667,77.51193721666668,59.0,74.0
448,77.16996921666667,77.52877655,52.0,71.0
449,76.85908921666667,77.58965721666668,40.0,69.0
450,77.79172921666668,77.92255788333334,55.0,90.0
451,77.48084921666667,77.92773921666668,47.0,55.0
452,77.79172921666668,77.93292055,52.0,74.0
453,77.79172921666668,77.95623655000001,59.0,80.0
454,78.10260921666668,78.52747855000001,48.0,80.0
455,78.41348921666668,78.82022388333334,60.0,72.0
456,78.41348921666668,78.82929121666668,55.0,80.0
457,78.41348921666668,78.83576788333335,64.0,83.0
458,79.03524921666667,79.25934188333335,55.0,85.0
459,79.03524921666667,79.29302055000001,60.0,90.0
460,79.03524921666667,79.30208788333334,64.0,93.0
461,78.72436921666667,79.34742455000001,43.0,74.0
462,79.34612921666667,79.95104988333334,50.0,80.0
463,79.65700921666668,80.05467655000001,62.0,87.0
464,79.65700921666668,80.05856255,57.0,87.0
465,79.65700921666668,80.10260388333334,66.0,66.0
466,79.96788921666668,80.37462388333334,45.0,70.0
467,80.27876921666667,80.40830255,62.0,80.0
468,80.27876921666667,80.42255121666668,66.0,65.0
469,80.27876921666667,80.43809521666668,57.0,80.0
470,80.58964921666667,81.19197921666668,48.0,66.0
471,80.90052921666668,81.30726388333335,55.0,71.0
472,80.90052921666668,81.31633121666667,60.0,70.0
473,80.90052921666668,81.32021721666668,64.0,83.0
474,81.21140921666668,81.59482788333334,43.0,74.0
475,81.52228921666668,81.68420588333335,55.0,83.0
476,81.52228921666668,81.70234055,60.0,83.0
477,81.52228921666668,81.73472388333334,64.0,90.0
478,81.83316921666668,82.29689855000001,47.0,67.0
479,82.14404921666667,82.57539521666668,59.0,80.0
480,82.14404921666667,82.57798588333334,63.0,87.0
481,82.14404921666667,82.57798588333334,66.0,80.0
482,82.45492921666667,82.87979855,54.0,61.0
483,82.76580921666668,82.90829588333334,59.0,87.0
484,82.76580921666668,82.90829588333334,63.0,95.0
485,82.76580921666668,82.94067921666668,66.0,80.0
486,83.07668921666668,83.50155855000001,40.0,80.0
487,83.38756921666668,83.64793121666668,59.0,83.0
488,83.38756921666668,83.65052188333334,52.0,74.0
489,84.00932921666667,84.16865521666668,54.0,72.0
490,83.69844921666667,84.17124588333334,42.0,65.0
491,84.00932921666667,84.19844788333334,59.0,80.0
492,84.32020921666668,84.82020788333334,43.0,87.0
493,84.63108921666668,84.99507788333334,62.0,83.0
494,84.63108921666668,84.99637321666668,55.0,74.0
495,84.63108921666668,84.99637321666668,59.0,80.0
496,84.94196921666668,85.37590588333335,50.0,61.0
497,85.25284921666668,85.38108721666667,55.0,74.0
498,85.25284921666668,85.38108721666667,59.0,80.0
499,85.25284921666668,85.40828921666667,62.0,80.0
500,85.87460921666667,86.30336455000001,57.0,74.0
501,85.87460921666667,86.31502255000001,60.0,87.0
502,85.87460921666667,86.31761321666667,64.0,87.0
503,85.56372921666667,86.44326055,45.0,74.0
504,86.18548921666668,86.48341588333335,52.0,60.0
505,86.49636921666668,86.64921855000001,64.0,93.0
506,86.49636921666668,86.65569521666667,60.0,90.0
507,86.49636921666668,86.66994388333335,57.0,80.0
508,87.11812921666667,87.45232521666668,55.0,87.0
509,87.11812921666667,87.46009721666667,59.0,74.0
510,87.11812921666667,87.47693655,52.0,71.0
511,86.80724921666668,87.53781721666668,40.0,69.0
512,87.73988921666668,87.87071788333334,55.0,90.0
513,87.42900921666669,87.87589921666668,47.0,55.0
514,87.73988921666668,87.88108055000001,52.0,74.0
515,87.73988921666668,87.90439655,59.0,80.0
516,88.05076921666668,88.47563855000001,48.0,80.0
517,88.36164921666668,88.76838388333334,60.0,72.0
518,88.36164921666668,88.77745121666668,55.0,80.0
519,88.36164921666668,88.78392788333335,64.0,83.0
520,88.98340921666667,89.20750188333335,55.0,85.0
521,88.98340921666667,89.24118055000001,60.0,90.0
522,88.98340921666667,89.25024788333334,64.0,93.0
523,88.67252921666667,89.29558455000002,43.0,74.0
524,89.29428921666667,89.51320055000001,63.0,70.0
525,89.29428921666667,89.52485855,59.0,74.0
526,89.29428921666667,89.54040255000001,66.0,68.0
527,89.29428921666667,89.61423655000002,47.0,80.0
528,90.55723921666667,90.87718655,67.0,69.0
529,90.48470055000001,90.89013988333335,64.0,64.0
530,90.40309455,90.89273055000001,59.0,63.0
531,90.51190255,91.18029455000001,40.0,74.0
532,92.39013588333334,92.49764855000001,59.0,59.0
533,92.38365921666667,92.59479855000001,67.0,80.0
534,92.64531655000002,92.90308788333334,59.0,66.0
535,93.01578188333335,93.99246321666668,59.0,68.0
536,93.00930521666668,94.01059788333335,64.0,74.0
537,93.91603855000001,94.24116721666668,47.0,52.0
538,92.99505655000002,94.28391321666668,40.0,68.0
539,94.25671121666667,94.39531188333333,59.0,68.0
540,94.25671121666667,94.66862721666668,64.0,74.0
541,94.25023455000002,94.82277188333335,67.0,80.0
542,94.54038921666668,94.94971455000001,59.0,55.0
543,94.89012921666668,95.17251188333334,64.0,65.0
544,95.51188921666667,95.91603321666668,40.0,74.0
545,95.82276921666667,95.93028188333335,59.0,74.0
546,95.82276921666667,95.93675855000001,52.0,80.0
547,96.44452921666668,96.56758588333335,55.0,87.0
548,96.44452921666668,96.57665321666667,52.0,87.0
549,96.13364921666667,96.57794855,47.0,58.0
550,96.44452921666668,96.58831121666668,59.0,87.0
551,96.75540921666668,97.20100388333334,40.0,68.0
552,97.06628921666668,97.38623655,55.0,93.0
553,97.06628921666668,97.40307588333334,52.0,87.0
554,97.06628921666668,97.41343855000001,59.0,87.0
555,97.37716921666667,97.75799721666668,47.0,60.0
556,97.68804921666668,97.77742721666668,55.0,87.0
557,97.68804921666668,97.78649455000001,52.0,80.0
558,97.68804921666668,97.80203855,59.0,80.0
559,97.99892921666668,98.61809855000001,45.0,64.0
560,98.30980921666668,98.73208788333335,60.0,63.0
561,98.30980921666668,98.73467855000001,57.0,87.0
562,98.30980921666668,98.75281321666668,52.0,68.0
563,98.62068921666668,99.00669855000001,40.0,50.0
564,98.93156921666667,99.06628388333334,57.0,87.0
565,98.93156921666667,99.07535121666668,60.0,80.0
566,98.93156921666667,99.08182788333335,52.0,85.0
567,99.24244921666667,99.63493521666668,40.0,68.0
568,99.55332921666668,100.05332788333334,55.0,83.0
569,99.55332921666668,100.05980455000001,52.0,74.0
570,99.55332921666668,100.07793921666668,59.0,80.0
571,100.17508921666668,100.21653988333334,60.0,66.0
572,99.86420921666668,100.28389721666667,47.0,51.0
573,100.17508921666668,100.31239455000001,55.0,74.0
574,100.17508921666668,100.33052921666668,52.0,74.0
575,100.17508921666668,100.33571055000002,59.0,59.0
576,100.48596921666667,100.94451721666668,45.0,65.0
577,100.79684921666669,101.15565655,52.0,72.0
578,100.79684921666669,101.16213321666667,57.0,80.0
579,100.79684921666669,101.17120055000001,60.0,80.0
580,101.10772921666668,101.45487855000002,40.0,58.0
581,101.41860921666668,101.55073321666669,52.0,69.0
582,101.41860921666668,101.55332388333335,57.0,85.0
583,101.41860921666668,101.56886788333334,60.0,80.0
584,101.72948921666668,102.28000588333335,45.0,59.0
585,102.04036921666668,102.45098988333335,52.0,87.0
586,102.04036921666668,102.45358055000001,57.0,93.0
587,102.04036921666668,102.46912455,60.0,80.0
588,102.35124921666667,102.70228455000002,40.0,68.0
589,102.66212921666667,102.79036721666668,52.0,83.0
590,102.66212921666667,102.82145521666668,57.0,87.0
591,102.66212921666667,102.86290588333335,60.0,85.0
592,102.97300921666667,103.38622055000002,48.0,87.0
593,103.28388921666668,103.65176388333335,55.0,80.0
594,103.28388921666668,103.66471721666667,60.0,83.0
595,103.28388921666668,103.66989855000001,64.0,87.0
596,103.59476921666668,103.93285121666668,43.0,74.0
597,103.90564921666669,104.04684055000001,55.0,80.0
598,103.90564921666669,104.05202188333334,60.0,71.0
599,103.90564921666669,104.09735855000001,64.0,74.0
600,104.21652921666669,104.97688988333334,47.0,69.0
601,104.52740921666668,104.97688988333334,63.0,83.0
602,104.52740921666668,104.97948055,59.0,68.0
603,104.52740921666668,105.01834055,66.0,65.0
604,104.83828921666668,105.14916921666668,54.0,61.0
605,105.14916921666668,105.27481655000001,63.0,87.0
606,105.14916921666668,105.31108588333335,59.0,80.0
607,105.14916921666668,105.32533455000001,66.0,70.0
608,105.46004921666668,105.86419321666668,52.0,69.0
609,105.77092921666667,105.91471121666669,64.0,90.0
610,105.77092921666667,105.92248321666668,59.0,74.0
611,105.77092921666667,105.93543655000002,67.0,83.0
612,106.08180921666667,106.52481321666667,47.0,55.0
613,106.39268921666667,106.73465721666668,67.0,80.0
614,106.39268921666667,106.77610788333334,64.0,87.0
615,106.39268921666667,106.79424255,59.0,68.0
616,106.70356921666668,107.23595121666668,52.0,80.0
617,107.01444921666668,107.44579521666668,59.0,80.0
618,107.01444921666668,107.44579521666668,64.0,93.0
619,107.32532921666669,107.76315188333334,47.0,70.0
620,107.63620921666669,107.77740055000001,64.0,90.0
621,107.63620921666669,107.78258188333334,67.0,74.0
622,107.63620921666669,107.80460255000001,59.0,74.0
623,107.94708921666668,108.41729521666667,45.0,71.0
624,108.25796921666668,108.65952255000002,64.0,87.0
625,108.25796921666668,108.66470388333335,57.0,80.0
626,108.25796921666668,108.67377121666668,60.0,80.0
627,108.56884921666668,108.92247521666667,52.0,68.0
628,108.87972921666668,109.06884788333335,60.0,85.0
629,108.87972921666668,109.06884788333335,64.0,93.0
630,108.87972921666668,109.07402921666667,57.0,80.0
631,109.19060921666667,109.61288788333334,40.0,74.0
632,109.50148921666667,109.89915655000001,52.0,70.0
633,109.50148921666667,109.91210988333334,59.0,74.0
634,109.50148921666667,109.92117721666668,55.0,83.0
635,109.81236921666668,110.21910388333335,47.0,63.0
636,110.12324921666668,110.28257521666669,55.0,80.0
637,110.12324921666668,110.28516588333335,52.0,74.0
638,110.12324921666668,110.30589121666668,59.0,80.0
639,110.43412921666668,110.94319521666668,45.0,85.0
640,110.74500921666669,111.05070788333335,57.0,74.0
641,110.74500921666669,111.05070788333335,60.0,83.0
642,110.74500921666669,111.05329855000002,64.0,87.0
643,111.05588921666669,111.45873788333334,52.0,74.0
644,111.36676921666668,111.48982588333334,60.0,87.0
645,111.36676921666668,111.49500721666668,57.0,80.0
646,111.36676921666668,111.50148388333335,64.0,87.0
647,111.98852921666668,112.38231055000001,60.0,83.0
648,111.98852921666668,112.38749188333335,64.0,87.0
649,111.98852921666668,112.39396855000001,57.0,74.0
650,111.67764921666668,112.40044521666667,45.0,74.0
651,112.29940921666667,112.72945988333335,52.0,68.0
652,112.61028921666667,112.75407121666669,57.0,74.0
653,112.61028921666667,112.76054788333334,60.0,74.0
654,112.61028921666667,112.77609188333335,64.0,87.0
655,113.23204921666668,113.58956121666668,62.0,87.0
656,113.23204921666668,113.60121921666668,66.0,68.0
657,113.23204921666668,113.60380988333335,59.0,80.0
658,112.92116921666667,113.60899121666668,47.0,69.0
659,113.54292921666668,113.78904255,54.0,63.0
660,113.85380921666668,114.01572588333335,62.0,93.0
661,113.85380921666668,114.04551855000001,59.0,72.0
662,113.85380921666668,114.04940455000002,66.0,72.0
663,114.16468921666669,114.64784855000002,40.0,65.0
664,114.47556921666668,114.88748521666668,64.0,83.0
665,114.47556921666668,114.89266655000002,67.0,80.0
666,114.47556921666668,114.89525721666668,59.0,71.0
667,115.09732921666668,115.2889080625,59.0,83.0
668,115.09732921666668,115.2889080625,64.0,93.0
669,115.09732921666668,115.2889080625,67.0,85.0
670,114.78644921666668,115.3160398,47.0,67.0
671,115.4077709125,115.546013575,57.0,66.0
672,115.4077709125,115.55505748750001,60.0,67.0
673,115.4077709125,115.91035405000001,45.0,87.0
674,115.7178479125,116.02921690000001,57.0,83.0
675,115.7178479125,116.0408447875,60.0,93.0
676,116.0279249125,116.4129371875,52.0,66.0
677,116.3380019125,116.4723686125,60.0,80.0
678,116.3380019125,116.48787246250001,57.0,71.0
679,116.3380019125,116.50337631250001,64.0,87.0
680,116.9581559125,117.12869826250001,57.0,68.0
681,116.9581559125,117.14032615,60.0,68.0
682,117.26823291250001,117.465907,52.0,70.0
683,116.6480789125,117.48916277500001,45.0,71.0
684,117.5783099125,117.6868368625,64.0,80.0
685,117.5783099125,117.69846475,60.0,68.0
686,117.5783099125,117.71913655,57.0,67.0
687,118.1984639125,118.58476817500001,59.0,74.0
688,118.1984639125,118.58735215,52.0,74.0
689,118.1984639125,118.5938120875,55.0,80.0
690,118.50854091250001,118.9064730625,47.0,61.0
691,118.8186179125,118.9090570375,52.0,74.0
692,118.8186179125,118.9090570375,55.0,93.0
693,118.8186179125,118.920684925,59.0,83.0
694,117.88838691250001,118.92456088750001,40.0,74.0
695,119.4387719125,119.62481811250001,52.0,74.0
696,119.4387719125,119.6261101,55.0,83.0
697,119.4387719125,119.633862025,59.0,80.0
698,119.74884891250001,119.88967555,55.0,80.0
699,119.74884891250001,119.88967555,59.0,80.0
700,119.74884891250001,119.892259525,52.0,66.0
701,119.12869491250001,120.05634193750001,40.0,50.0
702,119.74884891250001,120.1286932375,47.0,64.0
703,120.0589259125,120.1674528625,55.0,80.0
704,120.0589259125,120.1726208125,52.0,68.0
705,120.0589259125,120.19070863750001,59.0,80.0
706,120.36900291250001,120.507245575,57.0,66.0
707,120.36900291250001,120.5162894875,60.0,67.0
708,120.36900291250001,120.87158605,45.0,87.0
709,120.6790799125,120.9904489,57.0,83.0
710,120.6790799125,121.0020767875,60.0,93.0
711,120.98915691250001,121.3741691875,52.0,66.0
712,121.2992339125,121.4336006125,60.0,80.0
713,121.2992339125,121.4491044625,57.0,71.0
714,121.2992339125,121.4646083125,64.0,87.0
715,121.9193879125,122.0899302625,57.0,68.0
716,121.9193879125,122.10155815,60.0,68.0
717,122.2294649125,122.42713900000001,52.0,70.0
718,121.6093109125,122.450394775,45.0,71.0
719,122.5395419125,122.6480688625,64.0,80.0
720,122.5395419125,122.65969675000001,60.0,68.0
721,122.5395419125,122.68036855,57.0,67.0
722,123.1596959125,123.546000175,59.0,74.0
723,123.1596959125,123.54858415000001,52.0,74.0
724,123.1596959125,123.55504408750001,55.0,80.0
725,123.4697729125,123.86770506250001,47.0,61.0
726,123.7798499125,123.8702890375,52.0,74.0
727,123.7798499125,123.8702890375,55.0,93.0
728,123.7798499125,123.881916925,59.0,83.0
729,122.8496189125,123.8857928875,40.0,74.0
730,124.40000391250001,124.5860501125,52.0,74.0
731,124.40000391250001,124.5873421,55.0,83.0
732,124.40000391250001,124.59509402500001,59.0,80.0
733,124.7100809125,124.85090755,55.0,80.0
734,124.7100809125,124.85090755,59.0,80.0
735,124.7100809125,124.85349152500001,52.0,66.0
736,124.0899269125,125.0175739375,40.0,50.0
737,124.7100809125,125.08992523750001,47.0,64.0
738,125.0201579125,125.12868486250001,55.0,80.0
739,125.0201579125,125.13385281250001,52.0,68.0
740,125.0201579125,125.1519406375,59.0,80.0
741,125.3302349125,125.46847757500001,57.0,66.0
742,125.3302349125,125.47752483333333,60.0,67.0
743,125.3302349125,125.8337415,45.0,87.0
744,125.64073683333334,125.95291216666666,57.0,83.0
745,125.64073683333334,125.96457016666668,60.0,93.0
746,125.95161683333333,126.33762616666667,52.0,66.0
747,126.26249683333333,126.3972115,60.0,80.0
748,126.26249683333333,126.4127555,57.0,71.0
749,126.26249683333333,126.42829950000001,64.0,87.0
750,126.88425683333334,127.05524083333333,57.0,68.0
751,126.88425683333334,127.06689883333334,60.0,68.0
752,127.19513683333334,127.39332283333333,52.0,70.0
753,126.57337683333334,127.41663883333334,45.0,71.0
754,127.50601683333333,127.61482483333333,64.0,80.0
755,127.50601683333333,127.62648283333334,60.0,68.0
756,127.50601683333333,127.64720816666667,57.0,67.0
757,128.12777683333334,128.5150815,59.0,74.0
758,128.12777683333334,128.51767216666667,52.0,74.0
759,128.12777683333334,128.52414883333333,55.0,80.0
760,128.43865683333334,128.83761950000002,47.0,61.0
761,128.74953683333334,128.84021016666668,52.0,74.0
762,128.74953683333334,128.84021016666668,55.0,93.0
763,128.74953683333334,128.85186816666666,59.0,83.0
764,127.81689683333333,128.85575416666666,40.0,74.0
765,129.37129683333333,129.55782483333334,52.0,74.0
766,129.37129683333333,129.55912016666667,55.0,83.0
767,129.37129683333333,129.56689216666666,59.0,80.0
768,129.68217683333333,129.82336816666668,55.0,80.0
769,129.68217683333333,129.82336816666668,59.0,80.0
770,129.68217683333333,129.82595883333335,52.0,66.0
771,129.06041683333333,129.99046616666666,40.0,50.0
772,129.68217683333333,130.06300483333334,47.0,64.0
773,129.99305683333333,130.10186483333334,55.0,80.0
774,129.99305683333333,130.10704616666666,52.0,68.0
775,129.99305683333333,130.12518083333333,59.0,80.0
776,130.30393683333332,130.44253750000001,57.0,66.0
777,130.30393683333332,130.45160483333333,60.0,67.0
778,130.30393683333332,130.8078215,45.0,87.0
779,130.61481683333335,130.92699216666668,57.0,83.0
780,130.61481683333335,130.93865016666666,60.0,93.0
781,130.92569683333335,131.31170616666668,52.0,66.0
782,131.23657683333334,131.3712915,60.0,80.0
783,131.23657683333334,131.3868355,57.0,71.0
784,131.23657683333334,131.4023795,64.0,87.0
785,131.85833683333334,132.02932083333334,57.0,68.0
786,131.85833683333334,132.04097883333333,60.0,68.0
787,132.16921683333334,132.36740283333333,52.0,70.0
788,131.54745683333334,132.39071883333332,45.0,71.0
789,132.48009683333333,132.58890483333334,64.0,80.0
790,132.48009683333333,132.60056283333333,60.0,68.0
791,132.48009683333333,132.62128816666666,57.0,67.0
792,132.79097683333333,132.98527683333333,63.0,69.0
793,132.79097683333333,133.00082083333334,59.0,70.0
794,132.79097683333333,133.23398083333333,47.0,80.0
795,133.10185683333333,133.42180416666667,63.0,71.0
796,133.10185683333333,133.43993883333334,59.0,71.0
797,133.41273683333333,133.9282795,54.0,68.0
798,133.72361683333332,133.99563683333332,63.0,87.0
799,133.72361683333332,134.02672483333333,66.0,65.0
800,133.72361683333332,134.0409735,59.0,72.0
801,134.34537683333335,134.41143883333334,63.0,74.0
802,134.34537683333335,134.43864083333332,59.0,66.0
803,134.34537683333335,134.4528895,66.0,67.0
804,134.03449683333332,134.57594616666668,47.0,69.0
805,134.65625683333334,134.9852715,54.0,87.0
806,134.65625683333334,134.99822483333332,63.0,93.0
807,134.65625683333334,135.0124735,66.0,87.0
808,134.65625683333334,135.03967550000002,59.0,80.0
809,135.27801683333334,135.70288616666667,40.0,80.0
810,135.58889683333334,135.84925883333335,59.0,83.0
811,135.58889683333334,135.85184950000001,52.0,74.0
812,136.21065683333333,136.36998283333332,54.0,72.0
813,135.89977683333333,136.37257350000002,42.0,65.0
814,136.21065683333333,136.3997755,59.0,80.0
815,136.52153683333333,137.0215355,43.0,87.0
816,136.83241683333333,137.1964055,62.0,83.0
817,136.83241683333333,137.19770083333333,55.0,74.0
818,136.83241683333333,137.19770083333333,59.0,80.0
819,137.14329683333332,137.5772335,50.0,61.0
820,137.45417683333335,137.58241483333333,55.0,74.0
821,137.45417683333335,137.58241483333333,59.0,80.0
822,137.45417683333335,137.60961683333335,62.0,80.0
823,138.07593683333334,138.50469216666667,57.0,74.0
824,138.07593683333334,138.51635016666668,60.0,87.0
825,138.07593683333334,138.51894083333335,64.0,87.0
826,137.76505683333335,138.64458816666667,45.0,74.0
827,138.38681683333334,138.6847435,52.0,60.0
828,138.69769683333334,138.85054616666667,64.0,93.0
829,138.69769683333334,138.85702283333333,60.0,90.0
830,138.69769683333334,138.8712715,57.0,80.0
831,139.31945683333333,139.65365283333333,55.0,87.0
832,139.31945683333333,139.66142483333334,59.0,74.0
833,139.31945683333333,139.67826416666668,52.0,71.0
834,139.00857683333334,139.73914483333334,40.0,69.0
835,139.94121683333333,140.0720455,55.0,90.0
836,139.63033683333333,140.07722683333333,47.0,55.0
837,139.94121683333333,140.08240816666668,52.0,74.0
838,139.94121683333333,140.10572416666668,59.0,80.0
839,140.25209683333333,140.67696616666666,48.0,80.0
840,140.56297683333332,140.96971150000002,60.0,72.0
841,140.56297683333332,140.97877883333334,55.0,80.0
842,140.56297683333332,140.9852555,64.0,83.0
843,141.18473683333335,141.4088295,55.0,85.0
844,141.18473683333335,141.44250816666667,60.0,90.0
845,141.18473683333335,141.4515755,64.0,93.0
846,140.87385683333335,141.49691216666668,43.0,74.0
847,141.49561683333334,142.1005375,50.0,80.0
848,141.80649683333334,142.20416416666666,62.0,87.0
849,141.80649683333334,142.20805016666668,57.0,87.0
850,141.80649683333334,142.2520915,66.0,66.0
851,142.11737683333334,142.5241115,45.0,70.0
852,142.42825683333334,142.55779016666668,62.0,80.0
853,142.42825683333334,142.57203883333335,66.0,65.0
854,142.42825683333334,142.58758283333333,57.0,80.0
855,142.73913683333333,143.34146683333333,48.0,66.0
856,143.05001683333333,143.4567515,55.0,71.0
857,143.05001683333333,143.46581883333334,60.0,70.0
858,143.05001683333333,143.46970483333334,64.0,83.0
859,143.36089683333333,143.7443155,43.0,74.0
860,143.67177683333333,143.8336935,55.0,83.0
861,143.67177683333333,143.85182816666668,60.0,83.0
862,143.67177683333333,143.8842115,64.0,90.0
863,143.98265683333335,144.44638616666668,47.0,67.0
864,144.29353683333335,144.72488283333334,59.0,80.0
865,144.29353683333335,144.7274735,63.0,87.0
866,144.29353683333335,144.7274735,66.0,80.0
867,144.60441683333335,145.02928616666668,54.0,61.0
868,144.91529683333334,145.0577835,59.0,87.0
869,144.91529683333334,145.0577835,63.0,95.0
870,144.91529683333334,145.09016683333334,66.0,80.0
871,145.22617683333334,145.65104616666667,40.0,80.0
872,145.53705683333334,145.79741883333332,59.0,83.0
873,145.53705683333334,145.80000950000002,52.0,74.0
874,146.15881683333333,146.31814283333333,54.0,72.0
875,145.84793683333334,146.32073350000002,42.0,65.0
876,146.15881683333333,146.3479355,59.0,80.0
877,146.46969683333333,146.9696955,43.0,87.0
878,146.78057683333333,147.1445655,62.0,83.0
879,146.78057683333333,147.14586083333333,55.0,74.0
880,146.78057683333333,147.14586083333333,59.0,80.0
881,147.09145683333332,147.5253935,50.0,61.0
882,147.40233683333332,147.53057483333333,55.0,74.0
883,147.40233683333332,147.53057483333333,59.0,80.0
884,147.40233683333332,147.55777683333335,62.0,80.0
885,148.02409683333335,148.45285216666667,57.0,74.0
886,148.02409683333335,148.46451016666668,60.0,87.0
887,148.02409683333335,148.46710083333335,64.0,87.0
888,147.71321683333335,148.59274816666667,45.0,74.0
889,148.33497683333334,148.6329035,52.0,60.0
890,148.64585683333334,148.79870616666668,64.0,93.0
891,148.64585683333334,148.80518283333333,60.0,90.0
892,148.64585683333334,148.8194315,57.0,80.0
893,149.26761683333334,149.60181283333333,55.0,87.0
894,149.26761683333334,149.60958483333334,59.0,74.0
895,149.26761683333334,149.62642416666668,52.0,71.0
896,148.95673683333334,149.68730483333334,40.0,69.0
897,149.88937683333333,150.0202055,55.0,90.0
898,149.57849683333333,150.02538683333333,47.0,55.0
899,149.88937683333333,150.03056816666668,52.0,74.0
900,149.88937683333333,150.05388416666668,59.0,80.0
901,150.20025683333333,150.62512616666666,48.0,80.0
902,150.51113683333335,150.9178715,60.0,72.0
903,150.51113683333335,150.92693883333334,55.0,80.0
904,150.51113683333335,150.9334155,64.0,83.0
905,151.13289683333335,151.3569895,55.0,85.0
906,151.13289683333335,151.39066816666667,60.0,90.0
907,151.13289683333335,151.39973550000002,64.0,93.0
908,150.82201683333335,151.44507216666668,43.0,74.0
909,151.44377683333335,151.66268816666667,63.0,70.0
910,151.44377683333335,151.67434616666668,59.0,74.0
911,151.44377683333335,151.68989016666666,66.0,68.0
912,151.44377683333335,151.76372416666666,47.0,80.0
913,152.70672683333333,153.02667416666668,67.0,69.0
914,152.63418816666666,153.0396275,64.0,64.0
915,152.55258216666667,153.04221816666666,59.0,63.0
916,152.66139016666668,153.32978216666666,40.0,74.0
917,155.48521683333334,155.59272950000002,52.0,83.0
918,155.48521683333334,155.59791083333334,59.0,83.0
919,155.17433683333334,155.68340283333333,40.0,80.0
920,155.79609683333334,156.2300335,47.0,53.0
921,156.10697683333333,156.23262416666668,52.0,69.0
922,156.10697683333333,156.23262416666668,55.0,80.0
923,156.10697683333333,156.24428216666666,59.0,80.0
924,156.72873683333333,157.02407283333335,59.0,90.0
925,156.72873683333333,157.05257016666667,52.0,87.0
926,156.72873683333333,157.07588616666666,55.0,93.0
927,156.41785683333333,157.4657815,40.0,69.0
928,157.03961683333333,157.49168816666668,47.0,68.0
929,157.35049683333335,157.49168816666668,55.0,93.0
930,157.35049683333335,157.5033461666667,52.0,87.0
931,157.35049683333335,157.5124135,59.0,83.0
932,157.97225683333335,158.3284735,52.0,83.0
933,157.97225683333335,158.34660816666667,59.0,85.0
934,157.97225683333335,158.34919883333333,55.0,93.0
935,157.66137683333335,158.38028683333334,40.0,74.0
936,158.59401683333334,158.72355016666666,55.0,80.0
937,158.59401683333334,158.73520816666667,52.0,72.0
938,158.59401683333334,158.73520816666667,59.0,74.0
939,158.28313683333334,158.7559335,47.0,68.0
940,158.90489683333334,159.59401416666668,43.0,69.0
941,159.21577683333334,159.71318483333334,50.0,72.0
942,159.21577683333334,159.71836616666667,55.0,87.0
943,159.21577683333334,159.72484283333335,59.0,80.0
944,159.83753683333333,159.93598216666666,50.0,70.0
945,159.52665683333333,159.94634483333334,38.0,80.0
946,159.83753683333333,159.95800283333335,55.0,85.0
947,159.83753683333333,159.96966083333334,59.0,80.0
948,160.14841683333333,160.75592816666668,45.0,69.0
949,160.45929683333333,160.9476375,52.0,71.0
950,160.45929683333333,160.9670675,57.0,80.0
951,161.08105683333335,161.18338816666667,57.0,93.0
952,161.08105683333335,161.19763683333335,60.0,80.0
953,160.77017683333332,161.19893216666668,40.0,68.0
954,161.08105683333335,161.20152283333334,52.0,87.0
955,161.39193683333335,161.9968575,45.0,64.0
956,161.70281683333334,162.10825616666668,52.0,80.0
957,161.70281683333334,162.12639083333335,57.0,83.0
958,161.70281683333334,162.13416283333333,60.0,80.0
959,162.01369683333334,162.29867016666668,40.0,74.0
960,162.32457683333334,162.38804816666666,52.0,68.0
961,162.32457683333334,162.39970616666668,60.0,64.0
962,162.32457683333334,162.40229683333334,57.0,83.0
963,162.63545683333334,163.2636935,48.0,67.0
964,162.94633683333333,163.37120616666667,60.0,87.0
965,162.94633683333333,163.37768283333332,55.0,90.0
966,162.94633683333333,163.39581750000002,64.0,93.0
967,163.25721683333333,163.63804483333334,43.0,61.0
968,163.56809683333336,163.65488416666668,55.0,85.0
969,163.56809683333336,163.65488416666668,60.0,87.0
970,163.56809683333336,163.6756095,64.0,93.0
971,163.87897683333335,164.39711016666666,47.0,68.0
972,164.18985683333335,164.58752416666667,63.0,68.0
973,164.18985683333335,164.61861216666668,59.0,68.0
974,164.18985683333335,164.6665395,66.0,67.0
975,164.50073683333335,164.87767883333333,54.0,54.0
976,164.81161683333335,164.98778216666668,63.0,93.0
977,164.81161683333335,165.04218616666668,66.0,70.0
978,164.81161683333335,165.06938816666667,59.0,80.0
979,165.12249683333334,165.5603195,40.0,61.0
980,165.43337683333334,165.6186095,59.0,63.0
981,165.43337683333334,165.64322083333334,52.0,68.0
982,165.43337683333334,165.65487883333333,55.0,63.0
983,165.74425683333334,166.41783016666668,47.0,65.0
984,166.05513683333334,166.4385555,55.0,80.0
985,166.05513683333334,166.4774155,59.0,80.0
986,166.05513683333334,166.48000616666667,52.0,74.0
987,166.36601683333333,166.89580816666668,40.0,65.0
988,166.67689683333333,167.00073016666667,55.0,93.0
989,166.67689683333333,167.03052283333335,59.0,87.0
990,166.67689683333333,167.03570416666668,52.0,80.0
991,166.98777683333333,167.38026283333335,47.0,65.0
992,167.29865683333333,167.39710216666668,55.0,93.0
993,167.29865683333333,167.40357883333334,52.0,74.0
994,167.29865683333333,167.40357883333334,59.0,80.0
995,167.60953683333332,168.06160816666667,40.0,71.0
996,167.92041683333335,168.2377735,55.0,87.0
997,167.92041683333335,168.24036416666667,52.0,69.0
998,167.92041683333335,168.26756616666668,64.0,85.0
999,168.54217683333334,168.6030575,52.0,53.0
1000,168.23129683333335,168.6807775,42.0,61.0
1001,168.54217683333334,168.71057016666668,55.0,85.0
1002,168.54217683333334,168.77663216666667,64.0,83.0
1003,168.85305683333334,169.57196683333333,43.0,66.0
1004,169.16393683333334,169.5978735,59.0,74.0
1005,169.16393683333334,169.6134175,55.0,68.0
1006,169.16393683333334,169.61859883333335,62.0,80.0
1007,169.78569683333333,169.9359555,55.0,83.0
1008,169.78569683333333,169.9359555,59.0,87.0
1009,169.78569683333333,169.9476135,62.0,87.0
1010,169.47481683333334,169.98647350000002,50.0,68.0
1011,170.40745683333336,170.75331083333333,60.0,69.0
1012,170.40745683333336,170.75331083333333,64.0,80.0
1013,170.40745683333336,170.78439883333334,57.0,68.0
1014,170.09657683333333,171.0279215,45.0,74.0
1015,170.71833683333335,171.18595216666668,52.0,66.0
1016,171.02921683333335,171.1911335,57.0,72.0
1017,171.02921683333335,171.19372416666667,60.0,80.0
1018,171.02921683333335,171.19761016666666,64.0,80.0
1019,171.65097683333335,171.97740083333335,63.0,68.0
1020,171.65097683333335,171.98646816666667,59.0,68.0
1021,171.65097683333335,172.00460283333334,66.0,64.0
1022,171.80641683333334,172.11470616666668,54.0,56.0
1023,171.34009683333335,172.40227016666668,47.0,74.0
1024,172.27273683333334,172.4579695,63.0,72.0
1025,172.27273683333334,172.54216616666668,66.0,64.0
1026,172.27273683333334,172.59657016666668,59.0,69.0
1027,172.66263216666667,173.11211283333336,59.0,63.0
1028,172.68853883333333,173.15874483333334,67.0,68.0
1029,172.58361683333334,173.1613355,52.0,85.0
1030,172.73905683333334,173.18206083333334,64.0,69.0
1031,173.51625683333333,173.60174883333335,59.0,47.0
1032,173.19760483333334,173.68465016666667,47.0,60.0
1033,173.82713683333333,174.07325016666667,59.0,68.0
1034,173.82713683333333,174.19889750000002,64.0,80.0
1035,173.82713683333333,174.8634035,52.0,70.0
1036,175.07065683333335,175.33360950000002,59.0,61.0
1037,175.07065683333335,175.46055216666667,64.0,66.0
1038,175.38153683333334,175.53438616666668,59.0,65.0
1039,175.69241683333334,175.84526616666668,59.0,68.0
1040,175.69241683333334,176.05511016666668,64.0,72.0
1041,176.00329683333334,176.1652135,59.0,63.0
1042,176.31417683333333,176.53567883333335,59.0,74.0
1043,176.31417683333333,176.79345016666667,67.0,71.0
1044,176.93593683333336,177.06806083333333,59.0,74.0
1045,176.93593683333336,177.3038115,64.0,87.0
1046,177.24681683333336,177.43464016666667,59.0,74.0
1047,177.42298216666666,177.43464016666667,59.0,63.0
1048,175.07065683333335,177.52790416666667,52.0,71.0
1049,177.57712683333335,177.89661913333333,67.0,69.0
1050,177.50458816666668,177.90953900833333,64.0,64.0
1051,177.53179016666667,178.19894420833333,40.0,74.0
1052,179.40566053333333,179.51289549583333,59.0,59.0
1053,179.39920059583335,179.60979455833333,67.0,80.0
1054,179.66018207083334,179.91728758333335,59.0,66.0
1055,180.02969049583334,181.00384907083333,59.0,68.0
1056,180.02323055833335,181.02193689583333,64.0,74.0
1057,180.92762180833333,181.25191067083335,47.0,52.0
1058,180.00901869583333,181.29454625833333,40.0,68.0
1059,181.26741452083334,181.40565718333335,59.0,68.0
1060,181.26741452083334,181.67826654583334,64.0,74.0
1061,181.26095458333333,181.83201305833333,67.0,80.0
1062,181.55035978333333,181.95862783333334,59.0,55.0
1063,181.89919640833335,182.02193522083334,45.0,102.0
1064,182.05423490833334,182.17697372083333,47.0,64.0
1065,181.89919640833335,182.18084968333335,64.0,65.0
1066,182.20927340833333,182.44829109583333,50.0,69.0
1067,182.51935040833334,182.65759307083334,57.0,66.0
1068,182.51935040833334,182.66663698333335,60.0,67.0
1069,182.51935040833334,183.02193354583335,45.0,87.0
1070,182.82942740833334,183.14079639583335,57.0,83.0
1071,182.82942740833334,183.15242428333335,60.0,93.0
1072,183.13950440833335,183.52451668333333,52.0,66.0
1073,183.44958140833333,183.58394810833335,60.0,80.0
1074,183.44958140833333,183.59945195833333,57.0,71.0
1075,183.44958140833333,183.61495580833335,64.0,87.0
1076,184.06973540833334,184.24027775833335,57.0,68.0
1077,184.06973540833334,184.25190564583335,60.0,68.0
1078,184.37981240833335,184.57748649583334,52.0,70.0
1079,183.75965840833334,184.60074227083334,45.0,71.0
1080,184.68988940833333,184.79841635833333,64.0,80.0
1081,184.68988940833333,184.81004424583335,60.0,68.0
1082,184.68988940833333,184.83071604583333,57.0,67.0
1083,185.31004340833334,185.69634767083335,59.0,74.0
1084,185.31004340833334,185.69893164583334,52.0,74.0
1085,185.31004340833334,185.70539158333335,55.0,80.0
1086,185.62012040833335,186.01805255833335,47.0,61.0
1087,185.93019740833333,186.02063653333335,52.0,74.0
1088,185.93019740833333,186.02063653333335,55.0,93.0
1089,185.93019740833333,186.03226442083334,59.0,83.0
1090,184.99996640833334,186.03614038333333,40.0,74.0
1091,186.55035140833334,186.73639760833333,52.0,74.0
1092,186.55035140833334,186.73768959583333,55.0,83.0
1093,186.55035140833334,186.74544152083334,59.0,80.0
1094,186.86042840833335,187.00125504583335,55.0,80.0
1095,186.86042840833335,187.00125504583335,59.0,80.0
1096,186.86042840833335,187.00383902083334,52.0,66.0
1097,186.24027440833333,187.16792143333333,40.0,50.0
1098,186.86042840833335,187.24027273333334,47.0,64.0
1099,187.17050540833333,187.27903235833335,55.0,80.0
1100,187.17050540833333,187.28420030833334,52.0,68.0
1101,187.17050540833333,187.30228813333335,59.0,80.0
1102,187.48058240833333,187.61882507083334,57.0,66.0
1103,187.48058240833333,187.62786898333334,60.0,67.0
1104,187.48058240833333,187.98316554583334,45.0,87.0
1105,187.79065940833334,188.10202839583334,57.0,83.0
1106,187.79065940833334,188.11365628333334,60.0,93.0
1107,188.10073640833335,188.48574868333333,52.0,66.0
1108,188.41081340833335,188.54518010833334,60.0,80.0
1109,188.41081340833335,188.56068395833333,57.0,71.0
1110,188.41081340833335,188.57618780833334,64.0,87.0
1111,189.03096740833334,189.20150975833334,57.0,68.0
1112,189.03096740833334,189.21313764583334,60.0,68.0
1113,189.34104440833335,189.53871849583334,52.0,70.0
1114,188.72089040833333,189.56197427083333,45.0,71.0
1115,189.65112140833335,189.75964835833335,64.0,80.0
1116,189.65112140833335,189.77127624583335,60.0,68.0
1117,189.65112140833335,189.79194804583335,57.0,67.0
1118,190.27127540833334,190.65757967083334,59.0,74.0
1119,190.27127540833334,190.66016364583334,52.0,74.0
1120,190.27127540833334,190.66662358333335,55.0,80.0
1121,190.58135240833334,190.97928455833335,47.0,61.0
1122,190.89142940833335,190.98186853333334,52.0,74.0
1123,190.89142940833335,190.98186853333334,55.0,93.0
1124,190.89142940833335,190.99349642083334,59.0,83.0
1125,189.96119840833333,190.99737238333333,40.0,74.0
1126,191.51158340833334,191.69762960833333,52.0,74.0
1127,191.51158340833334,191.69892159583333,55.0,83.0
1128,191.51158340833334,191.70667352083333,59.0,80.0
1129,191.82166040833334,191.96248704583334,55.0,80.0
1130,191.82166040833334,191.96248704583334,59.0,80.0
1131,191.82166040833334,191.96507102083334,52.0,66.0
1132,191.20150640833333,192.12915343333333,40.0,50.0
1133,191.82166040833334,192.20150473333334,47.0,64.0
1134,192.13173740833335,192.24026435833335,55.0,80.0
1135,192.13173740833335,192.24543230833333,52.0,68.0
1136,192.13173740833335,192.26352013333334,59.0,80.0
1137,192.44181440833333,192.58005707083333,57.0,66.0
1138,192.44181440833333,192.58910098333334,60.0,67.0
1139,192.44181440833333,192.94439754583334,45.0,87.0
1140,192.75189140833334,193.06326039583334,57.0,83.0
1141,192.75189140833334,193.07488828333334,60.0,93.0
1142,193.06196840833334,193.44698068333335,52.0,66.0
1143,193.37204540833335,193.50641210833334,60.0,80.0
1144,193.37204540833335,193.52191595833335,57.0,71.0
1145,193.37204540833335,193.53741980833334,64.0,87.0
1146,193.99219940833333,194.16274175833334,57.0,68.0
1147,193.99219940833333,194.17436964583334,60.0,68.0
1148,194.30227640833334,194.49995049583333,52.0,70.0
1149,193.68212240833333,194.52320627083333,45.0,71.0
1150,194.61235340833335,194.72088035833335,64.0,80.0
1151,194.61235340833335,194.73250824583334,60.0,68.0
1152,194.61235340833335,194.75318004583335,57.0,67.0
1153,195.23250740833333,195.61881167083334,59.0,74.0
1154,195.23250740833333,195.62139564583333,52.0,74.0
1155,195.23250740833333,195.62785558333334,55.0,80.0
1156,195.54258440833334,195.94051655833334,47.0,61.0
1157,195.85266140833335,195.94310053333334,52.0,74.0
1158,195.85266140833335,195.94310053333334,55.0,93.0
1159,195.85266140833335,195.95472842083333,59.0,83.0
1160,194.92243040833335,195.95860438333335,40.0,74.0
1161,196.47281540833333,196.65886160833332,52.0,74.0
1162,196.47281540833333,196.66015359583335,55.0,83.0
1163,196.47281540833333,196.66790552083333,59.0,80.0
1164,196.78289240833334,196.92371904583334,55.0,80.0
1165,196.78289240833334,196.92371904583334,59.0,80.0
1166,196.78289240833334,196.92630302083333,52.0,66.0
1167,196.16273840833333,197.09038543333335,40.0,50.0
1168,196.78289240833334,197.16273673333333,47.0,64.0
1169,197.09296940833335,197.20149635833334,55.0,80.0
1170,197.09296940833335,197.20666430833333,52.0,68.0
1171,197.09296940833335,197.22475213333334,59.0,80.0
1172,197.40304640833335,197.54128907083333,57.0,66.0
1173,197.40304640833335,197.55033298333333,60.0,67.0
1174,197.40304640833335,197.90562954583334,45.0,87.0
1175,197.71312340833333,198.02449239583333,57.0,83.0
1176,197.71312340833333,198.03612028333333,60.0,93.0
1177,198.02320040833334,198.40937394583335,52.0,66.0
1178,198.33404934583334,198.46911414583334,60.0,80.0
1179,198.33404934583334,198.48469854583334,57.0,71.0
1180,198.33404934583334,198.50028294583333,64.0,87.0
1181,198.95742534583334,199.12885374583334,57.0,68.0
1182,198.95742534583334,199.14054204583334,60.0,68.0
1183,199.26911334583335,199.46781444583334,52.0,70.0
1184,198.64573734583334,199.49119104583335,45.0,71.0
1185,199.58080134583335,199.68989214583334,64.0,80.0
1186,199.58080134583335,199.70158044583334,60.0,68.0
1187,199.58080134583335,199.72235964583334,57.0,67.0
1188,199.89248934583333,200.08729434583333,63.0,69.0
1189,199.89248934583333,200.10287874583335,59.0,70.0
1190,199.89248934583333,200.33664474583333,47.0,80.0
1191,200.20417734583333,200.52495624583335,63.0,71.0
1192,200.20417734583333,200.54313804583333,59.0,71.0
1193,200.51586534583333,201.03274794583334,54.0,68.0
1194,200.82755334583334,201.10028034583334,63.0,87.0
1195,200.82755334583334,201.13144914583333,66.0,65.0
1196,200.82755334583334,201.14573484583335,59.0,72.0
1197,201.45092934583334,201.51716304583334,63.0,74.0
1198,201.45092934583334,201.54443574583334,59.0,66.0
1199,201.45092934583334,201.55872144583333,66.0,67.0
1200,201.13924134583334,201.68209794583333,47.0,69.0
1201,201.76261734583335,202.09248714583333,54.0,87.0
1202,201.76261734583335,202.10547414583334,63.0,93.0
1203,201.76261734583335,202.11975984583333,66.0,87.0
1204,201.76261734583335,202.14703254583333,59.0,80.0
1205,202.38599334583333,202.52495424583333,57.0,66.0
1206,202.38599334583333,202.53404514583335,60.0,67.0
1207,202.38599334583333,202.89118764583333,45.0,87.0
1208,202.69768134583333,203.01066804583334,57.0,83.0
1209,202.69768134583333,203.02235634583334,60.0,93.0
1210,203.00936934583333,203.39638194583333,52.0,66.0
1211,203.32105734583334,203.45612214583335,60.0,80.0
1212,203.32105734583334,203.47170654583334,57.0,71.0
1213,203.32105734583334,203.48729094583334,64.0,87.0
1214,203.94443334583335,204.11586174583334,57.0,68.0
1215,203.94443334583335,204.12755004583335,60.0,68.0
1216,204.25612134583335,204.45482244583334,52.0,70.0
1217,203.63274534583334,204.47819904583335,45.0,71.0
1218,204.56780934583333,204.67690014583334,64.0,80.0
1219,204.56780934583333,204.68858844583335,60.0,68.0
1220,204.56780934583333,204.70936764583334,57.0,67.0
1221,205.19118534583333,205.57949664583333,59.0,74.0
1222,205.19118534583333,205.58209404583334,52.0,74.0
1223,205.19118534583333,205.58858754583335,55.0,80.0
1224,205.50287334583334,205.90287294583334,47.0,61.0
1225,205.81456134583334,205.90547034583335,52.0,74.0
1226,205.81456134583334,205.90547034583335,55.0,93.0
1227,205.81456134583334,205.91715864583333,59.0,83.0
1228,204.87949734583333,205.92105474583335,40.0,74.0
1229,206.43793734583335,206.62495014583334,52.0,74.0
1230,206.43793734583335,206.62624884583335,55.0,83.0
1231,206.43793734583335,206.63404104583333,59.0,80.0
1232,206.74962534583335,206.89118364583334,55.0,80.0
1233,206.74962534583335,206.89118364583334,59.0,80.0
1234,206.74962534583335,206.89378104583335,52.0,66.0
1235,206.12624934583334,207.05871594583334,40.0,50.0
1236,206.74962534583335,207.13144314583334,47.0,64.0
1237,207.06131334583333,207.17040414583334,55.0,80.0
1238,207.06131334583333,207.17559894583334,52.0,68.0
1239,207.06131334583333,207.19378074583335,59.0,80.0
1240,207.37300134583333,207.51196224583333,57.0,66.0
1241,207.37300134583333,207.52105314583335,60.0,67.0
1242,207.37300134583333,207.87819564583333,45.0,87.0
1243,207.68468934583333,207.99767604583334,57.0,83.0
1244,207.68468934583333,208.00936434583335,60.0,93.0
1245,207.99637734583334,208.38338994583333,52.0,66.0
1246,208.30806534583334,208.44313014583335,60.0,80.0
1247,208.30806534583334,208.45871454583335,57.0,71.0
1248,208.30806534583334,208.47429894583334,64.0,87.0
1249,208.93115181250002,209.10213581250002,57.0,68.0
1250,208.93115181250002,209.1137938125,60.0,68.0
1251,209.24203181250002,209.4402178125,52.0,70.0
1252,208.61975334583335,209.4635338125,45.0,71.0
1253,209.5529118125,209.66171981250002,64.0,80.0
1254,209.5529118125,209.6733778125,60.0,68.0
1255,209.5529118125,209.69410314583334,57.0,67.0
1256,210.1746718125,210.56197647916667,59.0,74.0
1257,210.1746718125,210.56456714583334,52.0,74.0
1258,210.1746718125,210.57104381250002,55.0,80.0
1259,210.4855518125,210.88451447916668,47.0,61.0
1260,210.7964318125,210.88710514583335,52.0,74.0
1261,210.7964318125,210.88710514583335,55.0,93.0
1262,210.7964318125,210.89876314583336,59.0,83.0
1263,209.8637918125,210.90264914583335,40.0,74.0
1264,211.41819181250003,211.6047198125,52.0,74.0
1265,211.41819181250003,211.60601514583334,55.0,83.0
1266,211.41819181250003,211.61378714583336,59.0,80.0
1267,211.72907181250002,211.87026314583335,55.0,80.0
1268,211.72907181250002,211.87026314583335,59.0,80.0
1269,211.72907181250002,211.8728538125,52.0,66.0
1270,211.1073118125,212.03736114583336,40.0,50.0
1271,211.72907181250002,212.1098998125,47.0,64.0
1272,212.03995181250002,212.1487598125,55.0,80.0
1273,212.03995181250002,212.15394114583336,52.0,68.0
1274,212.03995181250002,212.17207581250003,59.0,80.0
1275,212.35083181250002,212.48943247916668,57.0,66.0
1276,212.35083181250002,212.4984998125,60.0,67.0
1277,212.35083181250002,212.85471647916668,45.0,87.0
1278,212.66171181250002,212.97388714583334,57.0,83.0
1279,212.66171181250002,212.98554514583336,60.0,93.0
1280,212.9725918125,213.35860114583335,52.0,66.0
1281,213.2834718125,213.41818647916668,60.0,80.0
1282,213.2834718125,213.43373047916668,57.0,71.0
1283,213.2834718125,213.4492744791667,64.0,87.0
1284,213.9052318125,214.0762158125,57.0,68.0
1285,213.9052318125,214.08787381250002,60.0,68.0
1286,214.2161118125,214.41429781250002,52.0,70.0
1287,213.5943518125,214.43761381250002,45.0,71.0
1288,214.5269918125,214.6357998125,64.0,80.0
1289,214.5269918125,214.64745781250002,60.0,68.0
1290,214.5269918125,214.66818314583335,57.0,67.0
1291,215.14875181250002,215.5360564791667,59.0,74.0
1292,215.14875181250002,215.53864714583335,52.0,74.0
1293,215.14875181250002,215.5451238125,55.0,80.0
1294,215.45963181250002,215.85859447916667,47.0,61.0
1295,215.77051181250002,215.86118514583336,52.0,74.0
1296,215.77051181250002,215.86118514583336,55.0,93.0
1297,215.77051181250002,215.87284314583334,59.0,83.0
1298,214.83787181250003,215.87672914583334,40.0,74.0
1299,216.3922718125,216.57879981250002,52.0,74.0
1300,216.3922718125,216.58009514583335,55.0,83.0
1301,216.3922718125,216.58786714583334,59.0,80.0
1302,216.7031518125,216.84434314583334,55.0,80.0
1303,216.7031518125,216.84434314583334,59.0,80.0
1304,216.7031518125,216.84693381250003,52.0,66.0
1305,216.08139181250002,217.01144114583334,40.0,50.0
1306,216.7031518125,217.08397981250002,47.0,64.0
1307,217.0140318125,217.12283981250002,55.0,80.0
1308,217.0140318125,217.12802114583334,52.0,68.0
1309,217.0140318125,217.1461558125,59.0,80.0
1310,217.3249118125,217.46351247916667,57.0,66.0
1311,217.3249118125,217.47257981250002,60.0,67.0
1312,217.3249118125,217.82879647916667,45.0,87.0
1313,217.6357918125,217.94796714583336,57.0,83.0
1314,217.6357918125,217.95962514583334,60.0,93.0
1315,217.9466718125,218.33268114583333,52.0,66.0
1316,218.25755181250003,218.3922664791667,60.0,80.0
1317,218.25755181250003,218.40781047916667,57.0,71.0
1318,218.25755181250003,218.42335447916668,64.0,87.0
1319,218.87931181250002,219.05029581250002,57.0,68.0
1320,218.87931181250002,219.0619538125,60.0,68.0
1321,219.19019181250002,219.3883778125,52.0,70.0
1322,218.56843181250002,219.4116938125,45.0,71.0
1323,219.50107181250002,219.60987981250003,64.0,80.0
1324,219.50107181250002,219.6215378125,60.0,68.0
1325,219.50107181250002,219.64226314583334,57.0,67.0
1326,219.8119518125,220.0062518125,63.0,69.0
1327,219.8119518125,220.02179581250002,59.0,70.0
1328,219.8119518125,220.25495581250001,47.0,80.0
1329,220.1228318125,220.44277914583336,63.0,71.0
1330,220.1228318125,220.46091381250002,59.0,71.0
1331,220.4337118125,220.94925447916668,54.0,68.0
1332,220.7445918125,221.0166118125,63.0,87.0
1333,220.7445918125,221.0476998125,66.0,65.0
1334,220.7445918125,221.0619484791667,59.0,72.0
1335,221.3663518125,221.43241381250002,63.0,74.0
1336,221.3663518125,221.4596158125,59.0,66.0
1337,221.3663518125,221.47386447916668,66.0,67.0
1338,221.0554718125,221.59692114583333,47.0,69.0
1339,221.67723181250003,222.0062464791667,54.0,87.0
1340,221.67723181250003,222.0191998125,63.0,93.0
1341,221.67723181250003,222.03344847916668,66.0,87.0
1342,221.67723181250003,222.06065047916667,59.0,80.0
1343,222.29899181250002,222.72386114583335,40.0,80.0
1344,222.60987181250002,222.8702338125,59.0,83.0
1345,222.60987181250002,222.8728244791667,52.0,74.0
1346,223.2316318125,223.3909578125,54.0,72.0
1347,222.92075181250001,223.39354847916667,42.0,65.0
1348,223.2316318125,223.42075047916668,59.0,80.0
1349,223.5425118125,224.04251047916668,43.0,87.0
1350,223.8533918125,224.21738047916668,62.0,83.0
1351,223.8533918125,224.2186758125,55.0,74.0
1352,223.8533918125,224.2186758125,59.0,80.0
1353,224.1642718125,224.5982084791667,50.0,61.0
1354,224.4751518125,224.6033898125,55.0,74.0
1355,224.4751518125,224.6033898125,59.0,80.0
1356,224.4751518125,224.63059181250003,62.0,80.0
1357,225.09691181250003,225.52566714583335,57.0,74.0
1358,225.09691181250003,225.53732514583334,60.0,87.0
1359,225.09691181250003,225.5399158125,64.0,87.0
1360,224.78603181250003,225.66556314583335,45.0,74.0
1361,225.40779181250002,225.70571847916668,52.0,60.0
1362,225.71867181250002,225.87152114583336,64.0,93.0
1363,225.71867181250002,225.8779978125,60.0,90.0
1364,225.71867181250002,225.8922464791667,57.0,80.0
1365,226.34043181250001,226.6746278125,55.0,87.0
1366,226.34043181250001,226.68239981250002,59.0,74.0
1367,226.34043181250001,226.69923914583336,52.0,71.0
1368,226.02955181250002,226.76011981250002,40.0,69.0
1369,226.9621918125,227.09302047916668,55.0,90.0
1370,226.6513118125,227.0982018125,47.0,55.0
1371,226.9621918125,227.10338314583333,52.0,74.0
1372,226.9621918125,227.12669914583336,59.0,80.0
1373,227.2730718125,227.69794114583334,48.0,80.0
1374,227.5839518125,227.99068647916667,60.0,72.0
1375,227.5839518125,227.99975381250002,55.0,80.0
1376,227.5839518125,228.00623047916667,64.0,83.0
1377,228.2057118125,228.42980447916668,55.0,85.0
1378,228.2057118125,228.46348314583335,60.0,90.0
1379,228.2057118125,228.47255047916667,64.0,93.0
1380,227.8948318125,228.51788714583336,43.0,74.0
1381,228.51659181250002,229.12151247916668,50.0,80.0
1382,228.82747181250002,229.22513914583334,62.0,87.0
1383,228.82747181250002,229.22902514583336,57.0,87.0
1384,228.82747181250002,229.2730664791667,66.0,66.0
1385,229.13835181250002,229.54508647916668,45.0,70.0
1386,229.44923181250002,229.57876514583336,62.0,80.0
1387,229.44923181250002,229.5930138125,66.0,65.0
1388,229.44923181250002,229.6085578125,57.0,80.0
1389,229.7601118125,230.3624418125,48.0,66.0
1390,230.0709918125,230.47772647916668,55.0,71.0
1391,230.0709918125,230.48679381250003,60.0,70.0
1392,230.0709918125,230.49067981250002,64.0,83.0
1393,230.3818718125,230.76529047916668,43.0,74.0
1394,230.6927518125,230.8546684791667,55.0,83.0
1395,230.6927518125,230.87280314583336,60.0,83.0
1396,230.6927518125,230.90518647916667,64.0,90.0
1397,231.0036318125,231.46736114583334,47.0,67.0
1398,231.31451181250003,231.74585781250002,59.0,80.0
1399,231.31451181250003,231.74844847916668,63.0,87.0
1400,231.31451181250003,231.74844847916668,66.0,80.0
1401,231.62539181250003,232.05026114583336,54.0,61.0
1402,231.93627181250002,232.07875847916668,59.0,87.0
1403,231.93627181250002,232.07875847916668,63.0,95.0
1404,231.93627181250002,232.11114181250002,66.0,80.0
1405,232.24715181250002,232.67202114583336,40.0,80.0
1406,232.55803181250002,232.8183938125,59.0,83.0
1407,232.55803181250002,232.82098447916667,52.0,74.0
1408,233.1797918125,233.3391178125,54.0,72.0
1409,232.86891181250002,233.34170847916667,42.0,65.0
1410,233.1797918125,233.3689104791667,59.0,80.0
1411,233.4906718125,233.99067047916668,43.0,87.0
1412,233.8015518125,234.16554047916668,62.0,83.0
1413,233.8015518125,234.1668358125,55.0,74.0
1414,233.8015518125,234.1668358125,59.0,80.0
1415,234.1124318125,234.5463684791667,50.0,61.0
1416,234.4233118125,234.5515498125,55.0,74.0
1417,234.4233118125,234.5515498125,59.0,80.0
1418,234.4233118125,234.5787518125,62.0,80.0
1419,235.04507181250003,235.47382714583335,57.0,74.0
1420,235.04507181250003,235.48548514583334,60.0,87.0
1421,235.04507181250003,235.48807581250003,64.0,87.0
1422,234.7341918125,235.61372314583335,45.0,74.0
1423,235.35595181250002,235.65387847916668,52.0,60.0
1424,235.66683181250002,235.81952723750004,64.0,93.0
1425,235.66683181250002,235.82598717500002,60.0,90.0
1426,235.66683181250002,235.8401990375,57.0,80.0
1427,236.28722671250003,236.62055948750003,55.0,87.0
1428,236.28722671250003,236.62831141250004,59.0,74.0
1429,236.28722671250003,236.64510725000002,52.0,71.0
1430,235.97714971250002,236.70583066250003,40.0,69.0
1431,236.90738071250001,237.03787145000004,55.0,90.0
1432,236.59730371250004,237.04303940000003,47.0,55.0
1433,236.90738071250001,237.04820735,52.0,74.0
1434,236.90738071250001,237.07146312500004,59.0,80.0
1435,237.21745771250002,237.6412296125,48.0,80.0
1436,237.52753471250003,237.93321878750004,60.0,72.0
1437,237.52753471250003,237.94226270000001,55.0,80.0
1438,237.52753471250003,237.94872263750003,64.0,83.0
1439,238.1476887125,238.37120255000002,55.0,85.0
1440,238.1476887125,238.40479422500002,60.0,90.0
1441,238.1476887125,238.41383813750002,64.0,93.0
1442,237.83761171250003,238.45905770000002,43.0,74.0
1443,238.45776571250002,238.6761116,63.0,70.0
1444,238.45776571250002,238.68773948750004,59.0,74.0
1445,238.45776571250002,238.70324333750003,66.0,68.0
1446,238.45776571250002,238.77688662500003,47.0,80.0
1447,239.54691117500002,239.84277631250004,52.0,66.0
1448,239.61280253750002,240.31564373750004,55.0,70.0
1449,239.69290576250003,240.32856361250003,59.0,59.0
1450,240.29497193750004,241.19031927500004,52.0,93.0
1451,240.56887328750003,241.3931613125,55.0,80.0
1452,239.72908141250002,241.42029305000003,64.0,70.0
1453,240.90608202500002,241.43321292500002,59.0,80.0
1454,241.58566745000002,241.64509887500003,59.0,68.0
1455,241.2742984625,241.68644247500004,52.0,56.0
1456,241.83631302500004,242.04561500000003,52.0,87.0
1457,241.56370366250002,242.05207493750004,64.0,93.0
1458,239.67223396250003,242.05853487500002,40.0,80.0
1459,240.02882251250003,242.05853487500002,47.0,59.0
1460,242.17868971250002,242.60246161250004,40.0,80.0
1461,242.48876671250002,242.74845620000002,59.0,83.0
1462,242.48876671250002,242.751040175,52.0,74.0
1463,243.10892071250004,243.26783517500002,54.0,72.0
1464,242.79884371250003,243.27041915000004,42.0,65.0
1465,243.10892071250004,243.29755088750002,59.0,80.0
1466,243.41899771250002,243.91770488750004,43.0,87.0
1467,243.72907471250002,244.09212320000003,62.0,83.0
1468,243.72907471250002,244.09341518750003,55.0,74.0
1469,243.72907471250002,244.09341518750003,59.0,80.0
1470,244.03915171250003,244.47196752500003,50.0,61.0
1471,244.34922871250004,244.477135475,55.0,74.0
1472,244.34922871250004,244.477135475,59.0,80.0
1473,244.34922871250004,244.50426721250003,62.0,80.0
1474,244.96938271250002,245.39703057500003,57.0,74.0
1475,244.96938271250002,245.40865846250003,60.0,87.0
1476,244.96938271250002,245.41124243750002,64.0,87.0
1477,244.65930571250001,245.53656522500003,45.0,74.0
1478,245.27945971250003,245.5766168375,52.0,60.0
1479,245.58953671250003,245.74199123750003,64.0,93.0
1480,245.58953671250003,245.748451175,60.0,90.0
1481,245.58953671250003,245.76266303750003,57.0,80.0
1482,246.20969071250002,246.54302348750002,55.0,87.0
1483,246.20969071250002,246.55077541250003,59.0,74.0
1484,246.20969071250002,246.56757125000001,52.0,71.0
1485,245.8996137125,246.62829466250002,40.0,69.0
1486,246.82984471250003,246.96033545000003,55.0,90.0
1487,246.51976771250003,246.96550340000002,47.0,55.0
1488,246.82984471250003,246.97067135000003,52.0,74.0
1489,246.82984471250003,246.99392712500003,59.0,80.0
1490,247.13992171250004,247.56369361250003,48.0,80.0
1491,247.44999871250002,247.85568278750003,60.0,72.0
1492,247.44999871250002,247.86472670000003,55.0,80.0
1493,247.44999871250002,247.87118663750002,64.0,83.0
1494,248.07015271250003,248.29366655,55.0,85.0
1495,248.07015271250003,248.32725822500004,60.0,90.0
1496,248.07015271250003,248.3363021375,64.0,93.0
1497,247.76007571250003,248.38152170000004,43.0,74.0
1498,248.38022971250004,248.983587875,50.0,80.0
1499,248.69030671250002,249.08694687500002,62.0,87.0
1500,248.69030671250002,249.0908228375,57.0,87.0
1501,248.69030671250002,249.1347504125,66.0,66.0
1502,249.00038371250002,249.40606778750004,45.0,70.0
1503,249.31046071250003,249.43965946250003,62.0,80.0
1504,249.31046071250003,249.45387132500002,66.0,65.0
1505,249.31046071250003,249.46937517500004,57.0,80.0
1506,249.62053771250004,250.22131190000002,48.0,66.0
1507,249.93061471250002,250.33629878750003,55.0,71.0
1508,249.93061471250002,250.34534270000003,60.0,70.0
1509,249.93061471250002,250.34921866250002,64.0,83.0
1510,250.24069171250002,250.62312001250004,43.0,74.0
1511,250.55076871250003,250.71226715000003,55.0,83.0
1512,250.55076871250003,250.730354975,60.0,83.0
1513,250.55076871250003,250.76265466250004,64.0,90.0
1514,250.86084571250004,251.32337723750004,47.0,67.0
1515,251.17092271250002,251.60115455000002,59.0,80.0
1516,251.17092271250002,251.60373852500004,63.0,87.0
1517,251.17092271250002,251.60373852500004,66.0,80.0
1518,251.48099971250002,251.90477161250004,54.0,61.0
1519,251.79107671250003,251.93319533750002,59.0,87.0
1520,251.79107671250003,251.93319533750002,63.0,95.0
1521,251.79107671250003,251.96549502500002,66.0,80.0
1522,252.10115371250004,252.52492561250003,40.0,80.0
1523,252.41123071250001,252.6709202,59.0,83.0
1524,252.41123071250001,252.67350417500003,52.0,74.0
1525,253.03138471250003,253.19029917500004,54.0,72.0
1526,252.72130771250002,253.19288315000003,42.0,65.0
1527,253.03138471250003,253.22001488750004,59.0,80.0
1528,253.34146171250003,253.84016888750003,43.0,87.0
1529,253.65153871250004,254.01458720000002,62.0,83.0
1530,253.65153871250004,254.01587918750002,55.0,74.0
1531,253.65153871250004,254.01587918750002,59.0,80.0
1532,253.96161571250002,254.39443152500002,50.0,61.0
1533,254.27169271250003,254.39959947500003,55.0,74.0
1534,254.27169271250003,254.39959947500003,59.0,80.0
1535,254.27169271250003,254.42673121250002,62.0,80.0
1536,254.8918467125,255.31949457500002,57.0,74.0
1537,254.8918467125,255.33112246250002,60.0,87.0
1538,254.8918467125,255.33370643750004,64.0,87.0
1539,254.58176971250003,255.45902922500002,45.0,74.0
1540,255.20192371250002,255.49908083750003,52.0,60.0
1541,255.51200071250003,255.66445523750002,64.0,93.0
1542,255.51200071250003,255.67091517500003,60.0,90.0
1543,255.51200071250003,255.68512703750002,57.0,80.0
1544,256.13215471250004,256.4654874875,55.0,87.0
1545,256.13215471250004,256.47323941250005,59.0,74.0
1546,256.13215471250004,256.49003525,52.0,71.0
1547,255.82207771250003,256.5507586625,40.0,69.0
1548,256.75230871250005,256.88279945000005,55.0,90.0
1549,256.4422317125,256.88796740000004,47.0,55.0
1550,256.75230871250005,256.89313535,52.0,74.0
1551,256.75230871250005,256.916391125,59.0,80.0
1552,257.06238571250003,257.48615761250005,48.0,80.0
1553,257.3724627125,257.7781467875,60.0,72.0
1554,257.3724627125,257.78719070000005,55.0,80.0
1555,257.3724627125,257.79365063750004,64.0,83.0
1556,257.9926167125,258.21613055,55.0,85.0
1557,257.9926167125,258.249722225,60.0,90.0
1558,257.9926167125,258.2587661375,64.0,93.0
1559,257.68253971250004,258.3039857,43.0,74.0
1560,258.3026937125,258.52103960000005,63.0,70.0
1561,258.3026937125,258.5326674875,59.0,74.0
1562,258.3026937125,258.54817133750004,66.0,68.0
1563,258.3026937125,258.621814625,47.0,80.0
1564,259.39183917500003,259.68770431250005,52.0,66.0
1565,259.4577305375,260.16057173750005,55.0,70.0
1566,259.53783376250004,260.1734916125,59.0,59.0
1567,260.13989993750005,261.035247275,52.0,93.0
1568,260.4138012875,261.23808931250005,55.0,80.0
1569,259.5740094125,261.26522105000004,64.0,70.0
1570,260.751010025,261.278140925,59.0,80.0
1571,261.43059545000006,261.490026875,59.0,68.0
1572,261.1192264625,261.531370475,52.0,56.0
1573,261.681241025,261.89054300000004,52.0,87.0
1574,261.40863166250006,261.8970029375,64.0,93.0
1575,259.51716196250004,261.903462875,40.0,80.0
1576,259.8737505125,261.903462875,47.0,59.0
1577,262.0236177125,262.44738961250005,40.0,80.0
1578,262.3336947125,262.5933842,59.0,83.0
1579,262.3336947125,262.59596817500005,52.0,74.0
1580,262.9538487125,263.11276317500005,54.0,72.0
1581,262.64377171250004,263.11534715000005,42.0,65.0
1582,262.9538487125,263.14247888750003,59.0,80.0
1583,263.26392571250005,263.76263288750005,43.0,87.0
1584,263.57400271250003,263.93705120000004,62.0,83.0
1585,263.57400271250003,263.93834318750004,55.0,74.0
1586,263.57400271250003,263.93834318750004,59.0,80.0
1587,263.8840797125,264.316895525,50.0,61.0
1588,264.19415671250005,264.32206347500005,55.0,74.0
1589,264.19415671250005,264.32206347500005,59.0,80.0
1590,264.19415671250005,264.34919521250004,62.0,80.0
1591,264.8143107125,265.241958575,57.0,74.0
1592,264.8143107125,265.25358646250004,60.0,87.0
1593,264.8143107125,265.25617043750003,64.0,87.0
1594,264.5042337125,265.38149322500004,45.0,74.0
1595,265.12438771250004,265.42154483750005,52.0,60.0
1596,265.4344647125,265.5869192375,64.0,93.0
1597,265.4344647125,265.59337917500005,60.0,90.0
1598,265.4344647125,265.6075910375,57.0,80.0
1599,266.05461871250003,266.3879514875,55.0,87.0
1600,266.05461871250003,266.39570341250004,59.0,74.0
1601,266.05461871250003,266.41249925000005,52.0,71.0
1602,265.74454171250005,266.4732226625,40.0,69.0
1603,266.67477271250004,266.80526345000004,55.0,90.0
1604,266.3646957125,266.8104314,47.0,55.0
1605,266.67477271250004,266.81559935,52.0,74.0
1606,266.67477271250004,266.838855125,59.0,80.0
1607,266.9848497125,267.40862161250004,48.0,80.0
1608,267.2949267125,267.7006107875,60.0,72.0
1609,267.2949267125,267.70965470000004,55.0,80.0
1610,267.2949267125,267.7161146375,64.0,83.0
1611,267.9150807125,268.13859455000005,55.0,85.0
1612,267.9150807125,268.172186225,60.0,90.0
1613,267.9150807125,268.18123013750005,64.0,93.0
1614,267.60500371250004,268.22644970000005,43.0,74.0
1615,268.22515771250005,268.82851587500005,50.0,80.0
1616,268.5352347125,268.931874875,62.0,87.0
1617,268.5352347125,268.9357508375,57.0,87.0
1618,268.5352347125,268.97967841250005,66.0,66.0
1619,268.8453117125,269.2509957875,45.0,70.0
1620,269.15538871250004,269.28458746250004,62.0,80.0
1621,269.15538871250004,269.298799325,66.0,65.0
1622,269.15538871250004,269.314303175,57.0,80.0
1623,269.4654657125,270.0662399,48.0,66.0
1624,269.77554271250006,270.1812267875,55.0,71.0
1625,269.77554271250006,270.19027070000004,60.0,70.0
1626,269.77554271250006,270.19414666250003,64.0,83.0
1627,270.08561971250003,270.46804801250005,43.0,74.0
1628,270.3956967125,270.55719515000004,55.0,83.0
1629,270.3956967125,270.57528297500005,60.0,83.0
1630,270.3956967125,270.6075826625,64.0,90.0
1631,270.70577371250005,271.1683052375,47.0,67.0
1632,271.0158507125,271.44608255,59.0,80.0
1633,271.0158507125,271.448666525,63.0,87.0
1634,271.0158507125,271.448666525,66.0,80.0
1635,271.3259277125,271.7496996125,54.0,61.0
1636,271.63600471250004,271.7781233375,59.0,87.0
1637,271.63600471250004,271.7781233375,63.0,95.0
1638,271.63600471250004,271.81042302500003,66.0,80.0
1639,271.9460817125,272.36985361250004,40.0,80.0
1640,272.2561587125,272.51584820000005,59.0,83.0
1641,272.2561587125,272.51843217500004,52.0,74.0
1642,272.8763127125,273.03522717500005,54.0,72.0
1643,272.56623571250003,273.03781115000004,42.0,65.0
1644,272.8763127125,273.0649428875,59.0,80.0
1645,273.18638971250004,273.68509688750004,43.0,87.0
1646,273.4964667125,273.85951520000003,62.0,83.0
1647,273.4964667125,273.86080718750003,55.0,74.0
1648,273.4964667125,273.86080718750003,59.0,80.0
1649,273.8065437125,274.23935952500005,50.0,61.0
1650,274.11662071250004,274.24452747500004,55.0,74.0
1651,274.11662071250004,274.24452747500004,59.0,80.0
1652,274.11662071250004,274.2716592125,62.0,80.0
1653,274.73677471250005,275.164422575,57.0,74.0
1654,274.73677471250005,275.17605046250003,60.0,87.0
1655,274.73677471250005,275.1786344375,64.0,87.0
1656,274.4266977125,275.30395722500003,45.0,74.0
1657,275.04685171250003,275.34400883750004,52.0,60.0
1658,275.3569287125,275.5093832375,64.0,93.0
1659,275.3569287125,275.51584317500004,60.0,90.0
1660,275.3569287125,275.5300550375,57.0,80.0
1661,275.9770827125,276.31041548750005,55.0,87.0
1662,275.9770827125,276.31816741250003,59.0,74.0
1663,275.9770827125,276.33496325000004,52.0,71.0
1664,275.66700571250004,276.3956866625,40.0,69.0
1665,276.59723671250003,276.72772745000003,55.0,90.0
1666,276.28715971250006,276.7328954,47.0,55.0
1667,276.59723671250003,276.73806335,52.0,74.0
1668,276.59723671250003,276.761319125,59.0,80.0
1669,276.9073137125,277.33108561250003,48.0,80.0
1670,277.21739071250005,277.62307478750006,60.0,72.0
1671,277.21739071250005,277.63211870000004,55.0,80.0
1672,277.21739071250005,277.6385786375,64.0,83.0
1673,277.8375447125,278.06105855000004,55.0,85.0
1674,277.8375447125,278.094650225,60.0,90.0
1675,277.8375447125,278.10369413750004,64.0,93.0
1676,277.5274677125,278.14891370000004,43.0,74.0
1677,278.14762171250004,278.36596760000003,63.0,70.0
1678,278.14762171250004,278.3775954875,59.0,74.0
1679,278.14762171250004,278.3930993375,66.0,68.0
1680,278.14762171250004,278.46674262500005,47.0,80.0
1681,279.236767175,279.5326323125,52.0,66.0
1682,279.3026585375,280.00549973750003,55.0,70.0
1683,279.3827617625,280.0184196125,59.0,59.0
1684,279.98482793750003,280.88017527500006,52.0,93.0
1685,280.25872928750005,281.08301731250003,55.0,80.0
1686,279.41893741250004,281.11014905,64.0,70.0
1687,280.595938025,281.12306892500004,59.0,80.0
1688,281.27552345000004,281.33495487500005,59.0,68.0
1689,280.9641544625,281.376298475,52.0,56.0
1690,281.52616902500006,281.735471,52.0,87.0
1691,281.25355966250004,281.7419309375,64.0,93.0
1692,279.3620899625,281.74839087500004,40.0,80.0
1693,279.71867851250005,281.74839087500004,47.0,59.0
