,start,end,pitch,velocity
0,18.52205673125,18.789363577083332,71.0,117.0
1,18.98359373125,19.091285697916668,78.0,119.0
2,19.21436223125,19.319169591666668,78.0,116.0
3,19.44513073125,19.70859143541667,78.0,117.0
4,19.90666773125,20.193205285416667,71.0,117.0
5,20.36820473125,20.64512693125,69.0,117.0
6,20.82974173125,20.919164525,76.0,117.0
7,21.06051023125,21.424932154166665,76.0,119.0
8,22.21435273125,22.529736347916668,71.0,116.0
9,22.67588973125,22.9556965375,74.0,114.0
10,23.13742673125,23.426848891666666,74.0,116.0
11,23.59896373125,23.8556936875,71.0,107.0
12,24.06050073125,24.451845645833334,73.0,116.0
13,25.90664873125,26.150878727083334,71.0,113.0
14,26.36818573125,26.457608525,78.0,116.0
15,26.59895423125,26.697992379166667,78.0,114.0
16,26.82972273125,27.103760325,78.0,116.0
17,27.29125973125,27.600874135416667,83.0,116.0
18,27.75279673125,28.037411214583333,81.0,114.0
19,28.21433373125,28.327794910416667,78.0,108.0
20,28.44510223125,28.734524391666667,78.0,113.0
21,29.59894473125,29.868174647916668,71.0,117.0
22,30.06048173125,30.29701944375,74.0,116.0
23,30.52201873125,30.78163329375,74.0,114.0
24,30.98355573125,31.256631789583334,76.0,116.0
25,31.44509273125,31.843168393750002,73.0,119.0
26,33.29124073125,33.55854757708333,71.0,117.0
27,33.75277773125,33.86046969791667,78.0,119.0
28,33.98354623125,34.08835359166667,78.0,116.0
29,34.21431473125,34.47777543541667,78.0,117.0
30,34.67585173125,34.96238928541667,71.0,117.0
31,35.13738873125,35.41431093125,69.0,117.0
32,35.59892573125,35.688348525,76.0,117.0
33,35.82969423125,36.194116154166665,76.0,119.0
34,36.98353673125,37.29892034791667,71.0,116.0
35,37.44507373125,37.610457822916665,74.0,114.0
36,37.67584223125,37.84122632291667,74.0,114.0
37,37.90661073125,38.19603289166667,74.0,116.0
38,38.36814773125,38.6248776875,78.0,107.0
39,38.82968473125,39.22102964583333,73.0,116.0
40,40.67583273125,40.920062727083334,71.0,113.0
41,41.13736973125,41.226792525,78.0,116.0
42,41.36813823125,41.467176379166666,78.0,114.0
43,41.598906731250004,41.872944325,78.0,116.0
44,42.060443731250004,42.37005813541667,83.0,116.0
45,42.521980731250004,42.80659521458333,81.0,114.0
46,42.983517731250004,43.09697891041667,78.0,108.0
47,43.21428623125,43.50370839166667,78.0,113.0
48,44.36812873125,44.63735864791667,71.0,117.0
49,44.82966573125,45.702739889583334,74.0,116.0
50,46.21427673125,46.61235239375,73.0,119.0
51,47.13735073125,47.548887889583334,71.0,104.0
52,47.59888773125,47.910425206250004,69.0,110.0
53,48.06042473125,48.327731577083334,71.0,117.0
54,48.52196173125,48.629653697916666,78.0,119.0
55,48.75273023125,48.85753759166667,78.0,116.0
56,48.98349873125,49.24695943541667,78.0,117.0
57,49.44503573125,49.731573285416665,71.0,117.0
58,49.90657273125,50.18349493125,69.0,117.0
59,50.36810973125,50.457532525,76.0,117.0
60,50.59887823125,50.96330015416667,76.0,119.0
61,51.75272073125,52.068104347916666,71.0,116.0
62,52.21425773125,52.37964182291667,74.0,114.0
63,52.67579473125,52.965216891666664,74.0,116.0
64,53.13733173125,53.3940616875,71.0,107.0
65,53.59886873125,53.990213645833336,73.0,116.0
66,55.44501673125,55.7017466875,71.0,116.0
67,55.90655373125,56.00751495,78.0,110.0
68,56.13732223125,56.259437229166664,78.0,107.0
69,56.36809073125,56.59982076666667,78.0,110.0
70,56.82962773125,57.136357529166666,83.0,119.0
71,57.29116473125,57.61904830833333,81.0,110.0
72,57.75270173125,57.85654755625,78.0,107.0
73,57.98347023125,58.846929035416665,78.0,113.0
74,59.13731273125,59.416158002083336,71.0,113.0
75,59.59884973125,60.9978837625,74.0,117.0
76,60.98346073125,61.66230473541667,73.0,120.0
77,61.90653473125,62.17384157708334,69.0,113.0
78,62.82960873125,63.07864640416667,71.0,119.0
79,79.44494073125,79.71224757708333,71.0,117.0
80,79.90647773125,80.01416969791667,78.0,119.0
81,80.13724623125,80.24205359166666,78.0,116.0
82,80.36801473125,80.63147543541666,78.0,117.0
83,80.82955173125,81.11608928541666,71.0,117.0
84,81.29108873125,81.56801093125,69.0,117.0
85,81.75262573125,81.842048525,76.0,117.0
86,81.98339423125,82.34781615416667,76.0,119.0
87,83.13723673125,83.45262034791666,71.0,116.0
88,83.59877373125,83.8785805375,74.0,114.0
89,84.06031073125,84.34973289166666,74.0,116.0
90,84.52184773125,84.7785776875,71.0,107.0
91,84.98338473125,85.37472964583334,73.0,116.0
92,86.82953273125,87.07376272708333,71.0,113.0
93,87.29106973125,87.38049252500001,78.0,116.0
94,87.52183823125,87.62087637916667,78.0,114.0
95,87.75260673125,88.026644325,78.0,116.0
96,88.21414373125,88.52375813541667,83.0,116.0
97,88.67568073125,88.96029521458334,81.0,114.0
98,89.13721773125,89.25067891041667,78.0,108.0
99,89.36798623125,89.65740839166666,78.0,113.0
100,90.52182873125,90.79105864791667,71.0,117.0
101,90.98336573125,91.21990344375,74.0,116.0
102,91.44490273125,91.70451729375,74.0,114.0
103,91.90643973125,92.17951578958333,76.0,116.0
104,92.36797673125,92.76605239375,73.0,119.0
105,94.21412473125,94.48143157708334,71.0,117.0
106,94.67566173125,94.78335369791667,78.0,119.0
107,94.90643023125,95.01123759166667,78.0,116.0
108,95.13719873125,95.40065943541667,78.0,117.0
109,95.59873573125,95.88527328541667,71.0,117.0
110,96.06027273125,96.33719493125,69.0,117.0
111,96.52180973125,96.611232525,76.0,117.0
112,96.75257823125,97.11700015416667,76.0,119.0
113,97.90642073125,98.22180434791667,71.0,116.0
114,98.36795773125,98.53334182291667,74.0,114.0
115,98.59872623125,98.76411032291666,74.0,114.0
116,98.82949473125,99.11891689166667,74.0,116.0
117,99.29103173125,99.5477616875,78.0,107.0
118,99.75256873125001,100.14391364583334,73.0,116.0
119,101.59871673125001,101.84294672708333,71.0,113.0
120,102.06025373125,102.149676525,78.0,116.0
121,102.29102223125,102.39006037916667,78.0,114.0
122,102.52179073125001,102.795828325,78.0,116.0
123,102.98332773125,103.29294213541667,83.0,116.0
124,103.44486473125001,103.72947921458334,81.0,114.0
125,103.90640173125,104.01986291041666,78.0,108.0
126,104.13717023125,104.42659239166667,78.0,113.0
127,105.29101273125,105.56024264791667,71.0,117.0
128,105.75254973125,106.62562388958334,74.0,116.0
129,107.13716073125,107.53523639375,73.0,119.0
130,108.06023473125,108.47177188958334,71.0,104.0
131,108.52177173125,108.83330920625001,69.0,110.0
132,108.98330873125,109.25061557708334,71.0,117.0
133,109.44484573125,109.55253769791666,78.0,119.0
134,109.67561423125,109.78042159166667,78.0,116.0
135,109.90638273125,110.16984343541667,78.0,117.0
136,110.36791973125,110.65445728541667,71.0,117.0
137,110.82945673125,111.10637893125,69.0,117.0
138,111.29099373125,111.380416525,76.0,117.0
139,111.52176223125001,111.88618415416667,76.0,119.0
140,112.67560473125,112.99098834791667,71.0,116.0
141,113.13714173125,113.30252582291666,74.0,114.0
142,113.59867873125,113.88810089166667,74.0,116.0
143,114.06021573125,114.3169456875,71.0,107.0
144,114.52175273125,114.91309764583333,73.0,116.0
145,116.36790073125,116.6246306875,71.0,116.0
146,116.82943773125,116.93039895,78.0,110.0
147,117.06020623125,117.18232122916667,78.0,107.0
148,117.29097473125,117.52270476666666,78.0,110.0
149,117.75251173125,118.05924152916667,83.0,119.0
150,118.21404873125,118.54193230833333,81.0,110.0
151,118.67558573125,118.77943155625,78.0,107.0
152,118.90635423125,119.76981303541668,78.0,113.0
153,120.06019673125,120.33904200208333,71.0,113.0
154,120.52173373125,121.9207677625,74.0,117.0
155,121.90634473125,122.58518873541666,73.0,120.0
156,122.82941873125,123.09672557708333,69.0,113.0
157,123.75249273125,124.00153040416667,71.0,119.0
158,153.29086073125,153.62259045,71.0,114.0
159,153.75239773125,153.85143587916667,78.0,113.0
160,153.98316623125,154.09181973333332,78.0,108.0
161,154.21393473125,154.52547220625002,78.0,114.0
162,154.67547173125,155.01777833958334,71.0,110.0
163,155.13700873125,155.41873860833334,69.0,100.0
164,155.59854573125,155.70046848541668,76.0,108.0
165,155.82931423125,156.33700493125,76.0,110.0
166,156.98315673125,157.3091172375,71.0,113.0
167,157.44469373125,157.71680825416666,74.0,107.0
168,157.90623073125,158.19180675,74.0,108.0
169,158.36776773125,158.63122843541666,71.0,114.0
170,158.82930473125,159.5821869625,73.0,116.0
171,160.67545273125,160.94564418333334,71.0,114.0
172,161.13698973125,161.226412525,78.0,110.0
173,161.36775823125,161.47256559166667,78.0,108.0
174,161.59852673125,161.87352586041666,78.0,116.0
175,162.06006373125,162.35621663958332,83.0,114.0
176,162.52160073125,162.81967671041667,81.0,108.0
177,162.98313773125,163.095637375,78.0,107.0
178,163.21390623125,163.60813575208334,78.0,108.0
179,164.36774873125,164.66967085208333,71.0,104.0
180,164.82928573125,166.05908952916667,74.0,108.0
181,166.21389673125,166.88504845208334,73.0,116.0
182,167.13697073125,167.72062272916668,69.0,108.0
183,168.06004473125,168.48696645625,71.0,113.0
