,start,end,pitch,velocity
0,3.75287273125,4.265371108333333,47.0,94.0
1,4.44517823125,4.636523779166667,47.0,91.0
2,4.21440973125,4.920176727083334,71.0,93.0
3,4.21440973125,4.939407435416666,62.0,90.0
4,4.21440973125,4.9605612145833335,66.0,102.0
5,4.67594673125,5.182675895833333,54.0,96.0
6,5.13748373125,5.4865210875,47.0,88.0
7,5.13748373125,5.6019053375,71.0,92.0
8,5.13748373125,5.612482227083333,62.0,92.0
9,5.13748373125,5.61632836875,66.0,100.0
10,5.59902073125,6.08363458125,42.0,107.0
11,6.29132623125,6.51632551875,42.0,100.0
12,6.06055773125,6.687478822916667,69.0,88.0
13,6.06055773125,6.780747758333334,61.0,100.0
14,6.06055773125,6.780747758333334,66.0,98.0
15,6.52209473125,6.9519010625,49.0,100.0
16,6.98363173125,7.342284441666667,42.0,91.0
17,7.21440023125,7.397091960416667,61.0,91.0
18,7.21440023125,7.449014872916667,66.0,98.0
19,7.21440023125,7.4509379437500005,69.0,91.0
20,7.44516873125,7.881705810416666,43.0,104.0
21,8.13747423125,8.346127416666667,43.0,92.0
22,7.90670573125,8.475934697916667,67.0,89.0
23,7.90670573125,8.582665129166667,59.0,89.0
24,7.90670573125,8.629780364583333,62.0,91.0
25,8.36824273125,8.827856660416666,50.0,113.0
26,8.82977973125,9.075932797916666,59.0,94.0
27,8.82977973125,9.182663229166668,67.0,91.0
28,8.82977973125,9.214393897916667,43.0,94.0
29,8.82977973125,9.281701377083333,62.0,107.0
30,9.29131673125,9.762469085416667,45.0,94.0
31,9.983622231250001,10.218236872916666,45.0,96.0
32,10.21439073125,10.602851039583333,52.0,107.0
33,9.752853731250001,10.717273754166667,69.0,91.0
34,9.752853731250001,10.718235289583333,61.0,91.0
35,9.752853731250001,10.7480428875,64.0,107.0
36,10.90669623125,11.057657291666667,61.0,89.0
37,10.67592773125,11.065349575,45.0,100.0
38,10.90669623125,11.115349416666668,69.0,89.0
39,10.90669623125,11.215349100000001,64.0,98.0
40,11.13746473125,11.675924564583333,47.0,91.0
41,11.82977023125,12.048038770833333,54.0,110.0
42,11.59900173125,12.293230302083334,71.0,94.0
43,11.59900173125,12.312461010416667,62.0,89.0
44,11.59900173125,12.332653254166667,66.0,96.0
45,12.52207573125,12.901882220833334,71.0,92.0
46,12.06053873125,12.918228322916667,47.0,96.0
47,12.52207573125,12.9288052125,62.0,89.0
48,12.52207573125,12.952843597916667,66.0,98.0
49,12.98361273125,13.467265045833333,42.0,91.0
50,13.67591823125,13.922071297916666,42.0,98.0
51,13.90668673125,14.331685385416668,49.0,107.0
52,13.44514973125,14.445146564583334,69.0,90.0
53,13.44514973125,14.468223414583333,61.0,91.0
54,13.44514973125,14.475915697916667,66.0,100.0
55,14.36822373125,14.761491716666667,42.0,100.0
56,14.82976073125,15.300913085416667,43.0,96.0
57,15.522066231250001,15.743219377083333,43.0,98.0
58,15.29129773125,15.77591158125,67.0,90.0
59,15.29129773125,15.918218822916668,59.0,93.0
60,15.29129773125,16.004757010416668,62.0,98.0
61,15.752834731250001,16.4134095625,50.0,110.0
62,16.21437173125,16.665331841666667,59.0,94.0
63,16.21437173125,16.673985660416665,67.0,100.0
64,16.44514023125,16.699947116666667,43.0,96.0
65,16.21437173125,16.71148554166667,62.0,104.0
66,16.67590873125,17.179753289583335,45.0,108.0
67,17.36821423125,17.568213597916667,45.0,107.0
68,17.59898273125,18.021096779166665,52.0,114.0
69,17.13744573125,18.350903427083335,61.0,93.0
70,17.13744573125,18.36051878125,69.0,93.0
71,17.13744573125,18.407634016666666,64.0,104.0
72,18.06051973125,18.468210747916668,45.0,107.0
73,18.52205673125,18.997055227083333,47.0,102.0
74,19.21436223125,19.438399983333333,47.0,96.0
75,18.98359373125,19.6153225,62.0,89.0
76,18.98359373125,19.676860766666668,71.0,93.0
77,18.98359373125,19.728783679166668,66.0,96.0
78,19.44513073125,19.931667652083334,54.0,104.0
79,19.90666773125,19.985513635416666,47.0,82.0
80,20.13743623125,20.277820402083332,47.0,81.0
81,19.90666773125,20.36339705416667,62.0,102.0
82,19.90666773125,20.381666227083333,71.0,98.0
83,19.90666773125,20.390320045833334,66.0,110.0
84,20.36820473125,20.836472479166666,42.0,100.0
85,21.06051023125,21.278778770833334,42.0,102.0
86,20.82974173125,21.543201010416666,69.0,87.0
87,20.82974173125,21.570124002083332,61.0,98.0
88,20.82974173125,21.572047072916668,66.0,88.0
89,21.29127873125,21.9864688375,49.0,107.0
90,21.98358423125,22.18550666875,42.0,102.0
91,21.75281573125,22.226852691666668,69.0,107.0
92,21.75281573125,22.244160329166668,66.0,108.0
93,21.75281573125,22.261467966666668,61.0,104.0
94,22.21435273125,22.689351227083332,43.0,113.0
95,22.90665823125,23.15473436875,43.0,108.0
96,22.67588973125,23.17204200625,59.0,91.0
97,22.67588973125,23.180695825,67.0,93.0
98,22.67588973125,23.199926533333333,62.0,107.0
99,23.13742673125,23.834539908333333,50.0,113.0
100,23.59896373125,23.92780884375,59.0,93.0
101,23.82973223125,24.02300085,43.0,93.0
102,23.59896373125,24.043193093750002,67.0,93.0
103,23.59896373125,24.04896230625,62.0,104.0
104,24.06050073125,24.539345368750002,45.0,102.0
105,24.752806231250002,24.97203630625,45.0,100.0
106,24.522037731250002,25.18549716875,69.0,93.0
107,24.522037731250002,25.247996970833334,64.0,108.0
108,24.522037731250002,25.25472771875,61.0,93.0
109,24.983574731250002,25.669149483333335,52.0,113.0
110,25.44511173125,25.907610266666666,61.0,92.0
111,25.67588023125,25.913379479166668,45.0,102.0
112,25.44511173125,25.925879439583333,69.0,92.0
113,25.44511173125,25.956648572916666,64.0,110.0
114,25.90664873125,26.58164659375,47.0,107.0
115,26.59895423125,26.82972273125,54.0,104.0
116,26.36818573125,27.039337452083334,71.0,100.0
117,26.36818573125,27.061452766666665,62.0,92.0
118,26.36818573125,27.079721939583333,66.0,104.0
119,26.82972273125,27.36049028125,47.0,110.0
120,27.52202823125,27.658566260416666,47.0,102.0
121,27.29125973125,27.756642872916668,71.0,96.0
122,27.29125973125,27.772027439583333,62.0,98.0
123,27.29125973125,27.78741200625,66.0,108.0
124,27.75279673125,28.264333572916666,42.0,104.0
125,28.44510223125,28.663370770833335,42.0,96.0
126,28.21433373125,28.828754862500002,69.0,91.0
127,28.21433373125,28.901831554166666,66.0,93.0
128,28.21433373125,28.913369979166667,61.0,94.0
129,28.67587073125,29.33933016875,49.0,108.0
130,29.36817623125,29.5902909125,42.0,100.0
131,29.13740773125,29.660482997916667,69.0,96.0
132,29.13740773125,29.661444533333334,66.0,96.0
133,29.13740773125,29.674906029166667,61.0,102.0
134,29.59894473125,30.108558502083334,43.0,96.0
135,30.29125023125,30.525864872916667,43.0,96.0
136,30.06048173125,30.744133412500002,67.0,92.0
137,30.06048173125,30.7556718375,59.0,93.0
138,30.06048173125,30.774902545833335,62.0,100.0
139,30.52201873125,31.18547816875,50.0,110.0
140,31.21432423125,31.434515841666666,43.0,96.0
141,30.98355573125,31.455669620833334,59.0,94.0
142,30.98355573125,31.471054187500002,62.0,100.0
143,30.98355573125,31.47393879375,67.0,89.0
144,31.44509273125,31.934514258333333,45.0,110.0
145,32.13739823125,32.372974408333334,45.0,104.0
146,32.36816673125,32.77393467708333,52.0,114.0
147,31.90662973125,32.853742116666666,61.0,93.0
148,31.90662973125,32.859511329166665,69.0,89.0
149,31.90662973125,32.88451125,64.0,102.0
150,32.82970373125,33.249894708333336,45.0,102.0
151,33.06047223125,33.25662545625,61.0,92.0
152,33.06047223125,33.30758683333333,69.0,92.0
153,33.06047223125,33.3633558875,64.0,110.0
154,33.29124073125,33.779700722916665,47.0,108.0
155,33.98354623125,34.219122408333334,47.0,100.0
156,33.75277773125,34.4306602,71.0,94.0
157,33.75277773125,34.492198466666665,62.0,89.0
158,33.75277773125,34.492198466666665,66.0,94.0
159,34.21431473125,34.922966333333335,54.0,108.0
160,34.90662023125,35.1056580625,47.0,91.0
161,34.67585173125,35.19508085625,71.0,92.0
162,34.67585173125,35.21431156458333,62.0,94.0
163,34.67585173125,35.22969613125,66.0,102.0
164,35.13738873125,35.64315636041667,42.0,96.0
165,35.82969423125,36.088347258333336,42.0,100.0
166,36.06046273125,36.471038354166666,49.0,108.0
167,35.59892573125,36.5998841,69.0,89.0
168,35.59892573125,36.61623020208334,66.0,102.0
169,35.59892573125,36.619114808333336,61.0,94.0
170,36.52199973125,36.94411377916667,42.0,107.0
171,36.75276823125,37.02584428958333,66.0,107.0
172,36.75276823125,37.03161350208333,61.0,100.0
173,36.75276823125,37.03353657291667,69.0,92.0
174,36.98353673125,37.4941120375,43.0,96.0
175,37.67584223125,37.89507230625,43.0,108.0
176,37.44507373125,37.9787258875,67.0,94.0
177,37.44507373125,38.002764272916664,59.0,91.0
178,37.44507373125,38.0248795875,62.0,102.0
179,37.90661073125,38.527762610416666,50.0,104.0
180,38.48353198125,38.709492804166665,43.0,86.0
181,38.13737923125,38.83160780208333,59.0,107.0
182,38.13737923125,38.845069297916666,67.0,96.0
183,38.13737923125,38.850838510416665,62.0,108.0
184,38.82968473125,39.28641405416667,45.0,104.0
185,39.52199023125,39.743143377083335,45.0,96.0
186,39.29122173125,39.827758493750004,69.0,96.0
187,39.29122173125,39.86333530416667,64.0,108.0
188,39.29122173125,39.959488845833334,61.0,92.0
189,39.75275873125,40.39506438958333,52.0,113.0
190,40.21429573125,40.53641009583333,61.0,104.0
191,40.21429573125,40.67583273125,69.0,91.0
192,40.44506423125,40.68737115625,45.0,96.0
193,40.21429573125,40.735447927083335,64.0,108.0
194,40.67583273125,41.15083122708334,47.0,110.0
195,41.36813823125,41.580637558333336,47.0,107.0
196,41.13736973125,41.824867554166666,71.0,102.0
197,41.13736973125,41.859482829166666,66.0,108.0
198,41.13736973125,41.86429050625,62.0,92.0
199,41.598906731250004,42.321019829166666,54.0,89.0
200,42.29121223125,42.427750260416666,47.0,90.0
201,42.060443731250004,42.56236521875,71.0,98.0
202,42.060443731250004,42.58351899791667,62.0,96.0
203,42.060443731250004,42.59505742291667,66.0,107.0
204,42.521980731250004,42.98736387291667,42.0,110.0
205,43.21428623125,43.472939258333334,42.0,104.0
206,43.44505473125,43.87005338541667,49.0,108.0
207,42.983517731250004,43.963322320833335,69.0,92.0
208,42.983517731250004,43.97774535208333,66.0,100.0
209,42.983517731250004,43.98062995833333,61.0,96.0
210,43.90659173125,44.30370585833333,42.0,107.0
211,44.13736023125,44.39216711666667,66.0,98.0
212,44.13736023125,44.39601325833333,61.0,91.0
213,44.13736023125,44.40466707708333,69.0,91.0
214,44.36812873125,44.83158880208333,43.0,93.0
215,45.06043423125,45.28062584166667,43.0,96.0
216,44.82966573125,45.45658682291667,67.0,91.0
217,44.82966573125,45.519086625,59.0,91.0
218,44.82966573125,45.54312501041667,62.0,98.0
219,45.29120273125,45.9863928375,50.0,110.0
220,45.75273973125,46.10946937083333,59.0,100.0
221,45.98350823125,46.17485377916667,43.0,96.0
222,45.75273973125,46.193122952083336,67.0,94.0
223,45.75273973125,46.20081523541667,62.0,108.0
224,46.21427673125,46.68158294375,45.0,108.0
225,46.90658223125,47.13831226666667,45.0,110.0
226,46.67581373125,47.27677336666667,69.0,89.0
227,46.67581373125,47.2786964375,61.0,91.0
228,46.67581373125,47.370042302083334,64.0,102.0
229,47.13735073125,47.83446390833333,52.0,100.0
230,47.59888773125,47.90465599375,61.0,102.0
231,47.59888773125,48.02100177916667,69.0,93.0
232,47.82965623125,48.04311709375,45.0,104.0
233,47.59888773125,48.080616975,64.0,113.0
234,48.06042473125,48.604653777083335,47.0,113.0
235,48.75273023125,48.958498810416664,47.0,104.0
236,48.52196173125,49.14984435833333,62.0,93.0
237,48.52196173125,49.163305854166666,66.0,104.0
238,48.52196173125,49.163305854166666,71.0,100.0
239,48.98349873125,49.665227341666665,54.0,108.0
240,49.67580423125,49.82484222083333,47.0,90.0
241,49.44503573125,49.92868804583333,71.0,100.0
242,49.44503573125,49.939264935416666,62.0,100.0
243,49.44503573125,49.95657257291667,66.0,108.0
244,49.90657273125,50.377725085416664,42.0,107.0
245,50.59887823125,50.84118515625,42.0,107.0
246,50.82964673125,51.0979151125,49.0,89.0
247,50.36810973125,51.14695341875,69.0,82.0
248,50.36810973125,51.17195333958333,61.0,96.0
249,50.36810973125,51.172914875000004,66.0,91.0
250,51.06041523125,51.34695278541667,42.0,108.0
251,51.52195223125,51.6632979375,42.0,94.0
252,51.29118373125,51.76137455,69.0,91.0
253,51.29118373125,51.78637447083334,61.0,100.0
254,51.29118373125,51.791182147916665,66.0,100.0
255,51.75272073125,52.252719147916665,43.0,108.0
256,52.44502623125,52.63060256666667,43.0,110.0
257,52.21425773125,52.680602408333336,71.0,91.0
258,52.21425773125,52.71041000625,66.0,107.0
259,52.21425773125,52.714256147916664,62.0,92.0
260,52.67579473125,53.36329255416667,50.0,108.0
261,53.13733173125,53.549830425,71.0,94.0
262,53.13733173125,53.569061133333335,62.0,93.0
263,53.368100231250004,53.5786764875,43.0,107.0
264,53.13733173125,53.596945660416665,66.0,107.0
265,53.59886873125,54.068098014583335,45.0,114.0
266,54.291174231250004,54.526750408333335,45.0,107.0
267,54.06040573125,54.588288675,69.0,91.0
268,54.06040573125,54.62194241458334,61.0,91.0
269,54.06040573125,54.62290395,64.0,108.0
270,54.52194273125,55.19694059375,52.0,114.0
271,55.214248231250004,55.39117074791667,45.0,108.0
272,54.752711231250004,55.444055195833336,69.0,100.0
273,54.752711231250004,55.449824408333335,61.0,102.0
274,54.752711231250004,55.4709781875,64.0,116.0
275,55.44501673125,55.89405377083333,47.0,114.0
276,56.13732223125,56.37385994375,47.0,107.0
277,55.90655373125,56.56905163333333,71.0,100.0
278,55.90655373125,56.60270537291667,66.0,107.0
279,55.90655373125,56.608474585416666,62.0,94.0
280,56.36809073125,57.08347308125,54.0,104.0
281,57.06039623125,57.2709724875,47.0,107.0
282,56.82962773125,57.289241660416664,71.0,96.0
283,56.82962773125,57.340203037500004,62.0,94.0
284,56.82962773125,57.34789532083333,66.0,107.0
285,57.29116473125,57.80654771458333,42.0,107.0
286,57.98347023125,58.21231566041667,42.0,104.0
287,57.75270173125,58.25462321875,69.0,91.0
288,57.75270173125,58.27673853333334,61.0,96.0
289,57.75270173125,58.281546210416664,66.0,100.0
290,58.21423873125,58.850775177083335,49.0,107.0
291,58.90654423125,59.10942820416667,42.0,100.0
292,58.44500723125,59.148851156250004,61.0,104.0
293,58.44500723125,59.15558190416667,69.0,96.0
294,58.44500723125,59.17192800625,66.0,108.0
295,59.13731273125,59.61711890416667,43.0,116.0
296,59.714233981250004,59.96711779583333,43.0,108.0
297,59.59884973125,60.10461736041667,71.0,94.0
298,59.59884973125,60.141155706250004,62.0,98.0
299,59.59884973125,60.14211724166667,67.0,110.0
300,60.06038673125,60.78730750625,50.0,116.0
301,60.75269223125,60.919999393750004,43.0,87.0
302,60.29115523125,61.01230679375,71.0,104.0
303,60.29115523125,61.02192214791667,62.0,107.0
304,60.29115523125,61.02480675416667,67.0,114.0
305,60.98346073125,61.42672855833334,45.0,110.0
306,61.67576623125,62.03249587083334,45.0,114.0
307,61.44499773125,62.20845685208334,69.0,91.0
308,61.44499773125,62.23441830833333,64.0,100.0
309,61.44499773125,62.251725945833336,61.0,89.0
310,62.13730323125,62.37191787291667,45.0,113.0
311,62.36807173125,62.780570425,52.0,113.0
312,62.59884023125,62.825762589583334,61.0,92.0
313,62.59884023125,62.83633947916667,69.0,98.0
314,62.59884023125,62.8555701875,64.0,110.0
315,62.82960873125,63.14787695416667,62.0,89.0
316,62.82960873125,63.15845384375,71.0,94.0
317,62.82960873125,63.16037691458333,66.0,96.0
318,62.82960873125,63.190184512500004,47.0,102.0
319,64.67575673125,65.18825510833334,47.0,94.0
320,65.36806223125001,65.55940777916666,47.0,91.0
321,65.13729373125,65.84306072708334,71.0,93.0
322,65.13729373125,65.86229143541667,62.0,90.0
323,65.13729373125,65.88344521458333,66.0,102.0
324,65.59883073125,66.10555989583334,54.0,96.0
325,66.06036773125,66.4094050875,47.0,88.0
326,66.06036773125,66.5247893375,71.0,92.0
327,66.06036773125,66.53536622708333,62.0,92.0
328,66.06036773125,66.53921236875,66.0,100.0
329,66.52190473125,67.00651858125,42.0,107.0
330,67.21421023125001,67.43920951875,42.0,100.0
331,66.98344173125,67.61036282291667,69.0,88.0
332,66.98344173125,67.70363175833333,61.0,100.0
333,66.98344173125,67.70363175833333,66.0,98.0
334,67.44497873125,67.8747850625,49.0,100.0
335,67.90651573125,68.26516844166667,42.0,91.0
336,68.13728423125,68.31997596041667,61.0,91.0
337,68.13728423125,68.37189887291667,66.0,98.0
338,68.13728423125,68.37382194375,69.0,91.0
339,68.36805273125,68.80458981041667,43.0,104.0
340,69.06035823125,69.26901141666667,43.0,92.0
341,68.82958973125,69.39881869791667,67.0,89.0
342,68.82958973125,69.50554912916667,59.0,89.0
343,68.82958973125,69.55266436458334,62.0,91.0
344,69.29112673125,69.75074066041667,50.0,113.0
345,69.75266373125,69.99881679791667,59.0,94.0
346,69.75266373125,70.10554722916667,67.0,91.0
347,69.75266373125,70.13727789791666,43.0,94.0
348,69.75266373125,70.20458537708333,62.0,107.0
349,70.21420073125,70.68535308541666,45.0,94.0
350,70.90650623125,71.14112087291667,45.0,96.0
351,71.13727473125,71.52573503958334,52.0,107.0
352,70.67573773125,71.64015775416667,69.0,91.0
353,70.67573773125,71.64111928958333,61.0,91.0
354,70.67573773125,71.6709268875,64.0,107.0
355,71.82958023125,71.98054129166667,61.0,89.0
356,71.59881173125,71.988233575,45.0,100.0
357,71.82958023125,72.03823341666667,69.0,89.0
358,71.82958023125,72.13823310000001,64.0,98.0
359,72.06034873125,72.59880856458334,47.0,91.0
360,72.75265423125,72.97092277083334,54.0,110.0
361,72.52188573125,73.21611430208334,71.0,94.0
362,72.52188573125,73.23534501041667,62.0,89.0
363,72.52188573125,73.25553725416667,66.0,96.0
364,73.44495973125,73.82476622083334,71.0,92.0
365,72.98342273125,73.84111232291667,47.0,96.0
366,73.44495973125,73.8516892125,62.0,89.0
367,73.44495973125,73.87572759791666,66.0,98.0
368,73.90649673125,74.39014904583334,42.0,91.0
369,74.59880223125,74.84495529791667,42.0,98.0
370,74.82957073125,75.25456938541667,49.0,107.0
371,74.36803373125,75.36803056458334,69.0,90.0
372,74.36803373125,75.39110741458333,61.0,91.0
373,74.36803373125,75.39879969791667,66.0,100.0
374,75.29110773125,75.68437571666666,42.0,100.0
375,75.75264473125,76.22379708541666,43.0,96.0
376,76.44495023125,76.66610337708333,43.0,98.0
377,76.21418173125001,76.69879558125,67.0,90.0
378,76.21418173125001,76.84110282291667,59.0,93.0
379,76.21418173125001,76.92764101041666,62.0,98.0
380,76.67571873125,77.3362935625,50.0,110.0
381,77.13725573125001,77.58821584166667,59.0,94.0
382,77.13725573125001,77.59686966041667,67.0,100.0
383,77.36802423125,77.62283111666667,43.0,96.0
384,77.13725573125001,77.63436954166667,62.0,104.0
385,77.59879273125,78.10263728958333,45.0,108.0
386,78.29109823125,78.49109759791666,45.0,107.0
387,78.52186673125,78.94398077916667,52.0,114.0
388,78.06032973125001,79.27378742708333,61.0,93.0
389,78.06032973125001,79.28340278125,69.0,93.0
390,78.06032973125001,79.33051801666667,64.0,104.0
391,78.98340373125001,79.39109474791667,45.0,107.0
392,79.44494073125,79.91993922708333,47.0,102.0
393,80.13724623125,80.36128398333334,47.0,96.0
394,79.90647773125,80.5382065,62.0,89.0
395,79.90647773125,80.59974476666667,71.0,93.0
396,79.90647773125,80.65166767916666,66.0,96.0
397,80.36801473125,80.85455165208333,54.0,104.0
398,80.82955173125,80.90839763541666,47.0,82.0
399,81.06032023125,81.20070440208333,47.0,81.0
400,80.82955173125,81.28628105416666,62.0,102.0
401,80.82955173125,81.30455022708334,71.0,98.0
402,80.82955173125,81.31320404583333,66.0,110.0
403,81.29108873125,81.75935647916667,42.0,100.0
404,81.98339423125,82.20166277083334,42.0,102.0
405,81.75262573125,82.46608501041666,69.0,87.0
406,81.75262573125,82.49300800208333,61.0,98.0
407,81.75262573125,82.49493107291667,66.0,88.0
408,82.21416273125,82.9093528375,49.0,107.0
409,82.90646823125,83.10839066875,42.0,102.0
410,82.67569973125,83.14973669166666,69.0,107.0
411,82.67569973125,83.16704432916667,66.0,108.0
412,82.67569973125,83.18435196666667,61.0,104.0
413,83.13723673125,83.61223522708333,43.0,113.0
414,83.82954223125,84.07761836875,43.0,108.0
415,83.59877373125,84.09492600625,59.0,91.0
416,83.59877373125,84.103579825,67.0,93.0
417,83.59877373125,84.12281053333334,62.0,107.0
418,84.06031073125,84.75742390833334,50.0,113.0
419,84.52184773125,84.85069284375,59.0,93.0
420,84.75261623125,84.94588485,43.0,93.0
421,84.52184773125,84.96607709375,67.0,93.0
422,84.52184773125,84.97184630625,62.0,104.0
423,84.98338473125,85.46222936875,45.0,102.0
424,85.67569023125,85.89492030625,45.0,100.0
425,85.44492173125,86.10838116875,69.0,93.0
426,85.44492173125,86.17088097083334,64.0,108.0
427,85.44492173125,86.17761171875,61.0,93.0
428,85.90645873125,86.59203348333334,52.0,113.0
429,86.36799573125,86.83049426666666,61.0,92.0
430,86.59876423125,86.83626347916666,45.0,102.0
431,86.36799573125,86.84876343958334,69.0,92.0
432,86.36799573125,86.87953257291667,64.0,110.0
433,86.82953273125,87.50453059375,47.0,107.0
434,87.52183823125,87.75260673125,54.0,104.0
435,87.29106973125,87.96222145208334,71.0,100.0
436,87.29106973125,87.98433676666667,62.0,92.0
437,87.29106973125,88.00260593958333,66.0,104.0
438,87.75260673125,88.28337428125,47.0,110.0
439,88.44491223125,88.58145026041667,47.0,102.0
440,88.21414373125,88.67952687291667,71.0,96.0
441,88.21414373125,88.69491143958334,62.0,98.0
442,88.21414373125,88.71029600625,66.0,108.0
443,88.67568073125,89.18721757291667,42.0,104.0
444,89.36798623125,89.58625477083334,42.0,96.0
445,89.13721773125,89.7516388625,69.0,91.0
446,89.13721773125,89.82471555416667,66.0,93.0
447,89.13721773125,89.83625397916667,61.0,94.0
448,89.59875473125,90.26221416875,49.0,108.0
449,90.29106023125,90.5131749125,42.0,100.0
450,90.06029173125,90.58336699791667,69.0,96.0
451,90.06029173125,90.58432853333333,66.0,96.0
452,90.06029173125,90.59779002916667,61.0,102.0
453,90.52182873125,91.03144250208334,43.0,96.0
454,91.21413423125,91.44874887291667,43.0,96.0
455,90.98336573125,91.6670174125,67.0,92.0
456,90.98336573125,91.6785558375,59.0,93.0
457,90.98336573125,91.69778654583334,62.0,100.0
458,91.44490273125,92.10836216875,50.0,110.0
459,92.13720823125,92.35739984166666,43.0,96.0
460,91.90643973125,92.37855362083333,59.0,94.0
461,91.90643973125,92.3939381875,62.0,100.0
462,91.90643973125,92.39682279375,67.0,89.0
463,92.36797673125,92.85739825833333,45.0,110.0
464,93.06028223125,93.29585840833333,45.0,104.0
465,93.29105073125,93.69681867708333,52.0,114.0
466,92.82951373125,93.77662611666666,61.0,93.0
467,92.82951373125,93.78239532916666,69.0,89.0
468,92.82951373125,93.80739525,64.0,102.0
469,93.75258773125,94.17277870833334,45.0,102.0
470,93.98335623125,94.17950945625,61.0,92.0
471,93.98335623125,94.23047083333333,69.0,92.0
472,93.98335623125,94.2862398875,64.0,110.0
473,94.21412473125,94.70258472291667,47.0,108.0
474,94.90643023125,95.14200640833333,47.0,100.0
475,94.67566173125,95.3535442,71.0,94.0
476,94.67566173125,95.41508246666668,62.0,89.0
477,94.67566173125,95.41508246666668,66.0,94.0
478,95.13719873125,95.84585033333333,54.0,108.0
479,95.82950423125,96.0285420625,47.0,91.0
480,95.59873573125,96.11796485625,71.0,92.0
481,95.59873573125,96.13719556458334,62.0,94.0
482,95.59873573125,96.15258013125,66.0,102.0
483,96.06027273125,96.56604036041666,42.0,96.0
484,96.75257823125,97.01123125833334,42.0,100.0
485,96.98334673125,97.39392235416666,49.0,108.0
486,96.52180973125,97.52276810000001,69.0,89.0
487,96.52180973125,97.53911420208334,66.0,102.0
488,96.52180973125,97.54199880833333,61.0,94.0
489,97.44488373125,97.86699777916667,42.0,107.0
490,97.67565223125,97.94872828958333,66.0,107.0
491,97.67565223125,97.95449750208333,61.0,100.0
492,97.67565223125,97.95642057291667,69.0,92.0
493,97.90642073125,98.4169960375,43.0,96.0
494,98.59872623125,98.81795630625,43.0,108.0
495,98.36795773125,98.9016098875,67.0,94.0
496,98.36795773125,98.92564827291667,59.0,91.0
497,98.36795773125,98.9477635875,62.0,102.0
498,98.82949473125,99.45064661041667,50.0,104.0
499,99.40641598125,99.63237680416667,43.0,86.0
500,99.06026323125,99.75449180208334,59.0,107.0
501,99.06026323125,99.76795329791666,67.0,96.0
502,99.06026323125,99.77372251041666,62.0,108.0
503,99.75256873125001,100.20929805416667,45.0,104.0
504,100.44487423125,100.66602737708334,45.0,96.0
505,100.21410573125,100.75064249375001,69.0,96.0
506,100.21410573125,100.78621930416666,64.0,108.0
507,100.21410573125,100.88237284583333,61.0,92.0
508,100.67564273125001,101.31794838958334,52.0,113.0
509,101.13717973125,101.45929409583333,61.0,104.0
510,101.13717973125,101.59871673125001,69.0,91.0
511,101.36794823125,101.61025515625,45.0,96.0
512,101.13717973125,101.65833192708334,64.0,108.0
513,101.59871673125001,102.07371522708334,47.0,110.0
514,102.29102223125,102.50352155833333,47.0,107.0
515,102.06025373125,102.74775155416667,71.0,102.0
516,102.06025373125,102.78236682916666,66.0,108.0
517,102.06025373125,102.78717450625,62.0,92.0
518,102.52179073125001,103.24390382916667,54.0,89.0
519,103.21409623125,103.35063426041667,47.0,90.0
520,102.98332773125,103.48524921875,71.0,98.0
521,102.98332773125,103.50640299791667,62.0,96.0
522,102.98332773125,103.51794142291666,66.0,107.0
523,103.44486473125001,103.91024787291667,42.0,110.0
524,104.13717023125,104.39582325833334,42.0,104.0
525,104.36793873125,104.79293738541666,49.0,108.0
526,103.90640173125,104.88620632083334,69.0,92.0
527,103.90640173125,104.90062935208333,66.0,100.0
528,103.90640173125,104.90351395833333,61.0,96.0
529,104.82947573125,105.22658985833334,42.0,107.0
530,105.06024423125,105.31505111666667,66.0,98.0
531,105.06024423125,105.31889725833334,61.0,91.0
532,105.06024423125,105.32755107708333,69.0,91.0
533,105.29101273125,105.75447280208334,43.0,93.0
534,105.98331823125,106.20350984166667,43.0,96.0
535,105.75254973125,106.37947082291667,67.0,91.0
536,105.75254973125,106.441970625,59.0,91.0
537,105.75254973125,106.46600901041667,62.0,98.0
538,106.21408673125,106.9092768375,50.0,110.0
539,106.67562373125,107.03235337083333,59.0,100.0
540,106.90639223125,107.09773777916666,43.0,96.0
541,106.67562373125,107.11600695208334,67.0,94.0
542,106.67562373125,107.12369923541667,62.0,108.0
543,107.13716073125,107.60446694375,45.0,108.0
544,107.82946623125,108.06119626666667,45.0,110.0
545,107.59869773125,108.19965736666667,69.0,89.0
546,107.59869773125,108.2015804375,61.0,91.0
547,107.59869773125,108.29292630208333,64.0,102.0
548,108.06023473125,108.75734790833333,52.0,100.0
549,108.52177173125,108.82753999375001,61.0,102.0
550,108.52177173125,108.94388577916666,69.0,93.0
551,108.75254023125,108.96600109375,45.0,104.0
552,108.52177173125,109.00350097500001,64.0,113.0
553,108.98330873125,109.52753777708334,47.0,113.0
554,109.67561423125,109.88138281041667,47.0,104.0
555,109.44484573125,110.07272835833334,62.0,93.0
556,109.44484573125,110.08618985416666,66.0,104.0
557,109.44484573125,110.08618985416666,71.0,100.0
558,109.90638273125,110.58811134166668,54.0,108.0
559,110.59868823125001,110.74772622083333,47.0,90.0
560,110.36791973125,110.85157204583334,71.0,100.0
561,110.36791973125,110.86214893541667,62.0,100.0
562,110.36791973125,110.87945657291667,66.0,108.0
563,110.82945673125,111.30060908541667,42.0,107.0
564,111.52176223125001,111.76406915625,42.0,107.0
565,111.75253073125,112.0207991125,49.0,89.0
566,111.29099373125,112.06983741875,69.0,82.0
567,111.29099373125,112.09483733958334,61.0,96.0
568,111.29099373125,112.095798875,66.0,91.0
569,111.98329923125,112.26983678541667,42.0,108.0
570,112.44483623125001,112.5861819375,42.0,94.0
571,112.21406773125,112.68425855,69.0,91.0
572,112.21406773125,112.70925847083333,61.0,100.0
573,112.21406773125,112.71406614791667,66.0,100.0
574,112.67560473125,113.17560314791668,43.0,108.0
575,113.36791023125001,113.55348656666666,43.0,110.0
576,113.13714173125,113.60348640833334,71.0,91.0
577,113.13714173125,113.63329400625,66.0,107.0
578,113.13714173125,113.63714014791667,62.0,92.0
579,113.59867873125,114.28617655416667,50.0,108.0
580,114.06021573125,114.472714425,71.0,94.0
581,114.06021573125,114.49194513333333,62.0,93.0
582,114.29098423125001,114.5015604875,43.0,107.0
583,114.06021573125,114.51982966041666,66.0,107.0
584,114.52175273125,114.99098201458334,45.0,114.0
585,115.21405823125001,115.44963440833334,45.0,107.0
586,114.98328973125,115.511172675,69.0,91.0
587,114.98328973125,115.54482641458334,61.0,91.0
588,114.98328973125,115.54578795,64.0,108.0
589,115.44482673125,116.11982459375,52.0,114.0
590,116.13713223125,116.31405474791667,45.0,108.0
591,115.67559523125,116.36693919583334,69.0,100.0
592,115.67559523125,116.37270840833334,61.0,102.0
593,115.67559523125,116.3938621875,64.0,116.0
594,116.36790073125,116.81693777083333,47.0,114.0
595,117.06020623125,117.29674394375,47.0,107.0
596,116.82943773125,117.49193563333334,71.0,100.0
597,116.82943773125,117.52558937291667,66.0,107.0
598,116.82943773125,117.53135858541667,62.0,94.0
599,117.29097473125,118.00635708125,54.0,104.0
600,117.98328023125,118.1938564875,47.0,107.0
601,117.75251173125,118.21212566041667,71.0,96.0
602,117.75251173125,118.2630870375,62.0,94.0
603,117.75251173125,118.27077932083334,66.0,107.0
604,118.21404873125,118.72943171458334,42.0,107.0
605,118.90635423125,119.13519966041667,42.0,104.0
606,118.67558573125,119.17750721875001,69.0,91.0
607,118.67558573125,119.19962253333334,61.0,96.0
608,118.67558573125,119.20443021041667,66.0,100.0
609,119.13712273125,119.77365917708333,49.0,107.0
610,119.82942823125,120.03231220416667,42.0,100.0
611,119.36789123125,120.07173515625,61.0,104.0
612,119.36789123125,120.07846590416666,69.0,96.0
613,119.36789123125,120.09481200625,66.0,108.0
614,120.06019673125,120.54000290416667,43.0,116.0
615,120.63711798125,120.89000179583333,43.0,108.0
616,120.52173373125,121.02750136041666,71.0,94.0
617,120.52173373125,121.06403970625,62.0,98.0
618,120.52173373125,121.06500124166666,67.0,110.0
619,120.98327073125,121.71019150625,50.0,116.0
620,121.67557623125,121.84288339375,43.0,87.0
621,121.21403923125,121.93519079375,71.0,104.0
622,121.21403923125,121.94480614791667,62.0,107.0
623,121.21403923125,121.94769075416667,67.0,114.0
624,121.90634473125,122.34961255833333,45.0,110.0
625,122.59865023125,122.95537987083334,45.0,114.0
626,122.36788173125001,123.13134085208334,69.0,91.0
627,122.36788173125001,123.15730230833333,64.0,100.0
628,122.36788173125001,123.17460994583334,61.0,89.0
629,123.06018723125,123.29480187291666,45.0,113.0
630,123.29095573125001,123.703454425,52.0,113.0
631,123.52172423125,123.74864658958333,61.0,92.0
632,123.52172423125,123.75922347916666,69.0,98.0
633,123.52172423125,123.7784541875,64.0,110.0
634,123.75249273125,124.1996067,47.0,100.0
635,124.44479823125,124.67364366041667,47.0,98.0
636,124.21402973125001,124.88229684583334,71.0,88.0
637,124.21402973125001,124.96018121458333,62.0,88.0
638,124.21402973125001,124.96883503333333,66.0,92.0
639,124.67556673125,125.39479522291667,54.0,102.0
640,125.36787223125,125.58133309375,47.0,79.0
641,125.13710373125001,125.6303714,71.0,91.0
642,125.13710373125001,125.66017899791667,62.0,92.0
643,125.13710373125001,125.6765251,66.0,98.0
644,125.59864073125,126.08133151041667,42.0,98.0
645,126.29094623125,126.52171473125,42.0,93.0
646,126.06017773125001,126.75056016041667,69.0,90.0
647,126.06017773125001,126.80344460833334,66.0,98.0
648,126.06017773125001,126.81402149791667,61.0,94.0
649,126.52171473125,127.07940527291667,49.0,107.0
650,127.21402023125,127.41978881041666,42.0,94.0
651,126.98325173125001,127.46786558125,69.0,91.0
652,126.98325173125001,127.49094243125,61.0,90.0
653,126.98325173125001,127.50728853333334,66.0,96.0
654,127.44478873125,127.9899793125,43.0,94.0
655,128.13709423125,128.35728584166668,43.0,93.0
656,128.36786273125,128.82555358958334,50.0,104.0
657,127.90632573125,128.89093799791667,71.0,88.0
658,127.90632573125,128.91978406041667,67.0,87.0
659,127.90632573125,128.93709169791666,62.0,88.0
660,128.82939973125,129.25728299166667,43.0,98.0
661,129.06016823125,129.31785972291667,71.0,92.0
662,129.06016823125,129.33612889583333,67.0,90.0
663,129.06016823125,129.34189810833334,62.0,96.0
664,129.29093673125,129.78035825833334,45.0,96.0
665,129.98324223125,130.23035683333333,45.0,90.0
666,129.75247373125,130.50439442708333,61.0,88.0
667,130.21401073125,130.64189399166668,52.0,102.0
668,129.75247373125,130.72073989583333,64.0,89.0
669,129.75247373125,130.73035525,69.0,88.0
670,130.90631623125,131.04093118958335,61.0,89.0
671,130.67554773125,131.12362323541666,45.0,100.0
672,130.90631623125,131.19189225,69.0,88.0
673,130.90631623125,131.25823819375,64.0,96.0
674,131.13708473125,131.66304460416666,47.0,88.0
675,131.82939023125,132.04862030625,47.0,91.0
676,131.59862173125,132.29765797916667,71.0,90.0
677,131.59862173125,132.33515786041667,66.0,90.0
678,131.59862173125,132.33708093125,62.0,88.0
679,132.06015873125,132.71111820833335,54.0,107.0
680,132.75246423125,133.00246343958332,47.0,100.0
681,132.52169573125,133.04092485625,71.0,92.0
682,132.52169573125,133.05342481666668,62.0,92.0
683,132.52169573125,133.05342481666668,66.0,100.0
684,132.98323273125,133.464961975,42.0,100.0
685,133.67553823125002,133.91303747916666,42.0,98.0
686,133.90630673125,134.34668995208332,49.0,98.0
687,133.44476973125,134.45534345416667,69.0,91.0
688,133.44476973125,134.47361262708333,61.0,96.0
689,133.44476973125,134.48418951666667,66.0,107.0
690,134.36784373125,134.7976500625,42.0,96.0
691,134.59861223125,134.80245773958333,61.0,94.0
692,134.59861223125,134.9014958875,69.0,91.0
693,134.59861223125,134.9130343125,66.0,98.0
694,134.82938073125,135.30918690416667,43.0,104.0
695,135.52168623125002,135.75726240833333,43.0,91.0
696,135.75245473125,136.18995334583335,50.0,107.0
697,135.29091773125,136.26591464375,67.0,88.0
698,135.29091773125,136.28226074583333,59.0,89.0
699,135.29091773125,136.31206834375,62.0,91.0
700,136.44476023125,136.53129841875,59.0,90.0
701,136.21399173125,136.63033656666667,43.0,93.0
702,136.44476023125,136.71495168333334,67.0,88.0
703,136.44476023125,136.75437463541667,62.0,94.0
704,136.67552873125,137.16975793541667,45.0,98.0
705,137.36783423125001,137.60244887291668,45.0,92.0
706,137.13706573125,137.60341040833333,69.0,89.0
707,137.13706573125,137.62552572291668,61.0,87.0
708,137.13706573125,137.64667950208334,64.0,89.0
709,137.59860273125,138.02360138541667,52.0,104.0
710,137.82937123125,138.10052421875,61.0,102.0
711,137.82937123125,138.11687032083333,69.0,96.0
712,137.82937123125,138.14667791875002,64.0,107.0
713,138.06013973125,138.46013846458334,45.0,98.0
714,138.29090823125,138.50340755833332,61.0,98.0
715,138.29090823125,138.54090743958332,69.0,92.0
716,138.29090823125,138.5534074,64.0,104.0
717,138.52167673125,138.98994447916667,47.0,93.0
718,139.21398223125001,139.4303277,47.0,87.0
719,138.98321373125,139.57744261875,71.0,93.0
720,138.98321373125,139.61398096458333,62.0,92.0
721,138.98321373125,139.6322501375,66.0,100.0
722,139.44475073125,140.16205615208332,54.0,100.0
723,140.13705623125,140.34378634583334,47.0,98.0
724,139.90628773125,140.40724768333334,71.0,92.0
725,139.90628773125,140.411093825,62.0,94.0
726,139.90628773125,140.41590150208333,66.0,104.0
727,140.36782473125,140.82936173125,42.0,102.0
728,141.06013023125,141.29186026666667,42.0,102.0
729,140.82936173125,141.30820636875,69.0,93.0
730,140.82936173125,141.31782172291668,61.0,100.0
731,140.82936173125,141.32455247083334,66.0,102.0
732,141.29089873125,141.67070522083333,49.0,108.0
733,141.52166723125,141.81493553333334,69.0,94.0
734,141.52166723125,141.82743549375,61.0,102.0
735,141.52166723125,141.82743549375,66.0,107.0
736,141.75243573125,142.15820367708332,42.0,102.0
737,141.98320423125,142.22070347916667,61.0,96.0
738,141.98320423125,142.24185725833334,66.0,107.0
739,141.98320423125,142.24185725833334,69.0,96.0
740,142.21397273125,142.70531732916666,43.0,108.0
741,142.90627823125,143.14281594375,43.0,102.0
742,142.67550973125,143.27454629583335,67.0,92.0
743,142.67550973125,143.27550783125,59.0,92.0
744,142.67550973125,143.31589231875,62.0,98.0
745,143.36781523125,143.45531495416668,62.0,89.0
746,143.36781523125,143.45627648958333,59.0,85.0
747,143.36781523125,143.47550719791667,67.0,88.0
748,143.13704673125,143.76492935833335,50.0,107.0
749,143.59858373125,143.85915982916666,59.0,91.0
750,143.71396798125,143.91781348958332,43.0,96.0
751,143.59858373125,143.94665955208333,67.0,90.0
752,143.59858373125,144.05242844791667,62.0,100.0
753,144.06012073125,144.541849975,45.0,114.0
754,144.75242623125,144.98127166041667,45.0,110.0
755,144.52165773125,145.03319457291667,69.0,91.0
756,144.52165773125,145.04184839166666,61.0,91.0
757,144.52165773125,145.05723295833334,64.0,102.0
758,144.98319473125,145.46011629791667,50.0,89.0
759,145.21396323125,145.6322311375,61.0,107.0
760,145.21396323125,145.7360769625,69.0,100.0
761,145.21396323125,145.857230425,64.0,114.0
762,145.44473173125002,145.8745380625,45.0,98.0
763,145.90626873125,146.34665195208333,47.0,104.0
764,146.59857423125,146.8206889125,47.0,98.0
765,146.36780573125,146.92068859583333,71.0,86.0
766,146.36780573125,146.99280375208335,66.0,87.0
767,146.36780573125,147.00626524791667,62.0,90.0
768,146.82934273125,147.56107118333333,54.0,87.0
769,147.52164823125,147.74472444791667,47.0,88.0
770,147.29087973125002,147.75145519583333,71.0,91.0
771,147.29087973125002,147.77164743958335,62.0,96.0
772,147.29087973125002,147.78126279375,66.0,107.0
773,147.75241673125,148.21395373125,42.0,102.0
774,148.44472223125,148.6783753375,42.0,96.0
775,148.21395373125,148.74279821041668,69.0,92.0
776,148.21395373125,148.76587506041668,66.0,102.0
777,148.21395373125,148.80049033541667,61.0,96.0
778,148.67549073125,149.0822202125,49.0,107.0
779,148.90625923125,149.20241213958334,69.0,88.0
780,148.90625923125,149.20625828125,66.0,91.0
781,148.90625923125,149.21683517083335,61.0,92.0
782,149.13702773125001,149.56394945625001,42.0,104.0
783,149.36779623125,149.62933386458334,61.0,96.0
784,149.36779623125,149.6302954,66.0,92.0
785,149.36779623125,149.64279536041667,69.0,94.0
786,149.59856473125,150.10721696666667,43.0,94.0
787,150.06010173125,150.47452349583332,59.0,87.0
788,150.29087023125,150.50625416458334,43.0,94.0
789,150.06010173125,150.5822154625,67.0,89.0
790,150.06010173125,150.587984675,62.0,96.0
791,150.52163873125,150.9629834875,50.0,100.0
792,150.75240723125,151.03990632083332,59.0,102.0
793,150.75240723125,151.05913702916666,67.0,93.0
794,150.75240723125,151.09279076875,62.0,110.0
795,151.21394423125,151.36971296875,59.0,93.0
796,150.98317573125001,151.41682820416668,43.0,107.0
797,151.21394423125,151.45336655,67.0,89.0
798,151.21394423125,151.48702028958334,62.0,102.0
799,151.44471273125,151.94278807708332,45.0,108.0
800,152.13701823125,152.36297905416666,45.0,88.0
801,151.90624973125,152.43124806875,69.0,91.0
802,151.90624973125,152.43894035208334,61.0,89.0
803,151.90624973125,152.47067102083332,64.0,91.0
804,152.36778673125,152.76778546458334,52.0,107.0
805,152.59855523125,152.895669675,69.0,100.0
806,152.59855523125,152.91778498958334,64.0,110.0
807,152.59855523125,152.92066959583335,61.0,102.0
808,152.82932373125,153.23893781875,45.0,113.0
809,153.06009223125,153.25143777916668,61.0,94.0
810,153.06009223125,153.27739923541668,69.0,92.0
811,153.06009223125,153.287976125,64.0,107.0
812,153.29086073125,154.66970251875,71.0,86.0
813,153.29086073125,154.73700999791666,66.0,87.0
814,153.29086073125,154.76777913125,62.0,84.0
815,153.29086073125,154.76874066666667,47.0,90.0
816,155.07931660625,156.54854272291666,66.0,76.0
817,155.13700873125,156.55238886458335,69.0,89.0
818,155.13700873125,156.57161957291666,42.0,92.0
819,155.02162448125,156.57161957291666,61.0,75.0
820,156.98315673125,158.40430607708333,67.0,96.0
821,156.92546460625,158.4168060375,62.0,75.0
822,156.86777248125,158.41969064375002,59.0,76.0
823,156.98315673125,158.42642139166668,43.0,88.0
824,158.82930473125,159.92353203541666,69.0,91.0
825,158.77161260625,159.94180120833335,64.0,70.0
826,158.71392048125,159.9744934125,61.0,77.0
827,159.98314723125,160.33122305208335,61.0,91.0
828,160.21391573125,160.39756899583332,64.0,102.0
829,158.82930473125,160.4129535625,45.0,88.0
830,160.67545273125,161.84660286875,71.0,89.0
831,160.67545273125,162.05525605416668,66.0,92.0
832,160.67545273125,162.06967908541668,62.0,85.0
833,162.06006373125,162.11967892708333,66.0,81.0
834,162.06006373125,162.15429420208335,71.0,98.0
835,160.67545273125,162.449485575,47.0,88.0
836,162.52160073125,163.349482725,42.0,86.0
837,162.52160073125,163.71678925416666,54.0,87.0
838,162.52160073125,163.73217382083334,69.0,85.0
839,162.52160073125,163.81871200833334,61.0,86.0
840,162.52160073125,163.83121196875,66.0,90.0
841,163.90621173125,164.27351826041667,69.0,94.0
842,163.67544323125,164.318710425,42.0,94.0
843,164.36774873125,165.85332095,59.0,87.0
844,164.36774873125,165.86774398125002,67.0,89.0
845,164.36774873125,165.87255165833332,62.0,91.0
846,164.36774873125,166.16870456666666,43.0,88.0
847,166.21389673125,167.38120072708332,69.0,90.0
848,166.21389673125,167.38312379791668,61.0,88.0
849,166.21389673125,167.38600840416666,64.0,93.0
850,166.21389673125,167.4744696625,45.0,88.0
851,169.90619273125,170.41869110833335,47.0,94.0
852,170.59849823125,170.78984377916666,47.0,91.0
853,170.36772973125,171.07349672708332,71.0,93.0
854,170.36772973125,171.09272743541666,62.0,90.0
855,170.36772973125,171.11388121458333,66.0,102.0
856,170.82926673125002,171.33599589583335,54.0,96.0
857,171.29080373125,171.6398410875,47.0,88.0
858,171.29080373125,171.7552253375,71.0,92.0
859,171.29080373125,171.76580222708333,62.0,92.0
860,171.29080373125,171.76964836875,66.0,100.0
861,171.75234073125,172.23695458125,42.0,107.0
862,172.44464623125,172.66964551875,42.0,100.0
863,172.21387773125,172.84079882291667,69.0,88.0
864,172.21387773125,172.93406775833333,61.0,100.0
865,172.21387773125,172.93406775833333,66.0,98.0
866,172.67541473125002,173.1052210625,49.0,100.0
867,173.13695173125,173.49560444166667,42.0,91.0
868,173.36772023125,173.55041196041668,61.0,91.0
869,173.36772023125,173.60233487291666,66.0,98.0
870,173.36772023125,173.60425794375,69.0,91.0
871,173.59848873125,174.03502581041667,43.0,104.0
872,174.29079423125,174.49944741666667,43.0,92.0
873,174.06002573125,174.62925469791668,67.0,89.0
874,174.06002573125,174.73598512916666,59.0,89.0
875,174.06002573125,174.78310036458333,62.0,91.0
876,174.52156273125001,174.98117666041668,50.0,113.0
877,174.98309973125,175.22925279791667,59.0,94.0
878,174.98309973125,175.33598322916666,67.0,91.0
879,174.98309973125,175.36771389791667,43.0,94.0
880,174.98309973125,175.43502137708333,62.0,107.0
881,175.44463673125,175.91578908541666,45.0,94.0
882,176.13694223125,176.37155687291667,45.0,96.0
883,176.36771073125,176.75617103958334,52.0,107.0
884,175.90617373125,176.87059375416666,69.0,91.0
885,175.90617373125,176.87155528958334,61.0,91.0
886,175.90617373125,176.9013628875,64.0,107.0
887,177.06001623125,177.21097729166667,61.0,89.0
888,176.82924773125,177.218669575,45.0,100.0
889,177.06001623125,177.26866941666668,69.0,89.0
890,177.06001623125,177.3686691,64.0,98.0
891,177.29078473125,177.82924456458335,47.0,91.0
892,177.98309023125,178.20135877083334,54.0,110.0
893,177.75232173125,178.44655030208332,71.0,94.0
894,177.75232173125,178.46578101041666,62.0,89.0
895,177.75232173125,178.48597325416668,66.0,96.0
896,178.67539573125,179.05520222083334,71.0,92.0
897,178.21385873125,179.07154832291667,47.0,96.0
898,178.67539573125,179.0821252125,62.0,89.0
899,178.67539573125,179.10616359791666,66.0,98.0
900,179.13693273125,179.62058504583334,42.0,91.0
901,179.82923823125,180.07539129791667,42.0,98.0
902,180.06000673125,180.48500538541666,49.0,107.0
903,179.59846973125,180.59846656458333,69.0,90.0
904,179.59846973125,180.62154341458333,61.0,91.0
905,179.59846973125,180.62923569791667,66.0,100.0
906,180.52154373125,180.91481171666666,42.0,100.0
907,180.98308073125,181.45423308541666,43.0,96.0
908,181.67538623125,181.89653937708334,43.0,98.0
909,181.44461773125,181.92923158125,67.0,90.0
910,181.44461773125,182.07153882291666,59.0,93.0
911,181.44461773125,182.15807701041666,62.0,98.0
912,181.90615473125,182.5667295625,50.0,110.0
913,182.36769173125,182.81865184166668,59.0,94.0
914,182.36769173125,182.82730566041667,67.0,100.0
915,182.59846023125002,182.85326711666667,43.0,96.0
916,182.36769173125,182.86480554166667,62.0,104.0
917,182.82922873125,183.33307328958333,45.0,108.0
918,183.52153423125,183.72153359791668,45.0,107.0
919,183.75230273125,184.17441677916668,52.0,114.0
920,183.29076573125,184.50422342708333,61.0,93.0
921,183.29076573125,184.51383878125,69.0,93.0
922,183.29076573125,184.56095401666667,64.0,104.0
923,184.21383973125,184.62153074791667,45.0,107.0
924,184.67537673125,184.88210684583333,76.0,108.0
925,184.67537673125,184.92152979791666,67.0,100.0
926,184.67537673125,184.93979897083332,71.0,113.0
927,184.67537673125,184.9782603875,52.0,104.0
928,185.13691373125,185.32825927916667,66.0,100.0
929,185.13691373125,185.3590284125,74.0,102.0
930,185.13691373125,185.3936436875,69.0,110.0
931,185.13691373125,185.40998978958334,50.0,102.0
932,185.59845073125,185.81095005833333,74.0,98.0
933,185.59845073125,185.81671927083335,66.0,104.0
934,185.59845073125,185.85133454583334,71.0,114.0
935,185.59845073125,185.88402675,47.0,91.0
936,186.05998773125,186.14748745416668,64.0,104.0
937,186.05998773125,186.18306426458332,73.0,108.0
938,186.05998773125,186.18594887083333,69.0,116.0
939,186.05998773125,186.19748729583333,45.0,100.0
940,186.29075623125001,186.57633225,66.0,110.0
941,186.29075623125001,186.5994091,71.0,117.0
942,186.29075623125001,186.60710138333334,74.0,113.0
943,186.29075623125001,186.61383213125,47.0,108.0
