,start,end,pitch,velocity
0,22.676924966666668,22.901924985416667,79.0,98.0
1,22.907694216666666,23.005771147916665,76.0,92.0
2,23.138463466666668,23.288463479166666,76.0,97.0
3,23.369232716666666,23.47500195625,74.0,92.0
4,23.600001966666667,23.75384813333333,74.0,93.0
5,23.830771216666665,23.938463533333334,72.0,85.0
6,24.061540466666667,24.228848172916667,72.0,107.0
7,24.292309716666665,24.498078964583332,67.0,92.0
8,24.523078966666667,24.621155897916665,67.0,89.0
9,24.75384821666667,24.850002070833334,69.0,93.0
10,24.984617466666666,25.094232860416668,72.0,92.0
11,25.215386716666668,25.307694416666667,74.0,90.0
12,25.446155966666666,26.078848327083332,76.0,100.0
13,26.369232966666665,26.46346374375,81.0,117.0
14,26.600002216666667,26.684617608333333,79.0,93.0
15,26.830771466666665,26.928848397916667,79.0,95.0
16,27.061540716666666,27.148079185416666,76.0,102.0
17,27.292309966666668,27.384617666666667,76.0,93.0
18,27.523079216666666,27.613463839583332,74.0,96.0
19,27.753848466666668,27.851925397916666,72.0,83.0
20,27.984617716666666,28.069233108333332,74.0,85.0
21,28.215386966666667,28.642310079166666,69.0,97.0
22,29.600002466666666,29.7346178625,67.0,90.0
23,29.830771716666668,29.944233264583332,69.0,88.0
24,30.061540966666666,30.700002558333335,72.0,96.0
25,31.446156466666668,31.609618018749998,74.0,112.0
26,31.676925716666666,31.928848814583333,72.0,90.0
27,31.907694966666668,32.29423346041666,76.0,107.0
28,32.369233466666664,32.92500274375,79.0,112.0
29,33.523079716666665,33.609618185416664,76.0,93.0
30,33.753848966666666,34.17307977083333,74.0,100.0
31,34.21538746666667,34.37884901875,72.0,86.0
32,34.676925966666666,34.99038753125,72.0,100.0
33,34.90769521666667,35.538464499999996,76.0,95.0
34,35.600002966666665,36.715387675,74.0,99.0
35,37.44615696666666,37.671156985416665,79.0,127.0
36,37.676926216666665,37.775003147916664,76.0,92.0
37,37.90769546666667,38.05769547916667,76.0,97.0
38,38.13846471666667,38.24423395625,74.0,92.0
39,38.36923396666667,38.52308013333333,74.0,93.0
40,38.600003216666664,38.707695533333336,72.0,85.0
41,38.830772466666666,38.998080172916666,72.0,107.0
42,39.06154171666667,39.26731096458333,67.0,92.0
43,39.29231096666667,39.39038789791667,67.0,89.0
44,39.52308021666666,39.619234070833336,69.0,93.0
45,39.753849466666665,39.86346486041667,72.0,92.0
46,39.98461871666667,40.076926416666666,74.0,90.0
47,40.21538796666667,40.84808032708333,76.0,100.0
48,41.13846496666667,41.23269574375,81.0,117.0
49,41.36923421666667,41.453849608333336,79.0,93.0
50,41.600003466666664,41.69808039791667,79.0,95.0
51,41.830772716666665,41.917311185416665,76.0,102.0
52,42.06154196666667,42.153849666666666,76.0,93.0
53,42.29231121666667,42.382695839583334,74.0,96.0
54,42.52308046666667,42.62115739791667,72.0,83.0
55,42.753849716666664,42.83846510833333,74.0,85.0
56,42.984618966666666,43.411542079166665,69.0,97.0
57,44.36923446666667,44.5038498625,67.0,90.0
58,44.60000371666666,44.713465264583334,69.0,88.0
59,44.830772966666665,45.753849966666664,72.0,96.0
60,45.984619216666665,46.14808076875,74.0,112.0
61,46.44615771666667,46.698080814583335,72.0,90.0
62,46.67692696666666,47.063465460416666,76.0,107.0
63,47.138465466666666,47.69423474375,79.0,112.0
64,48.29231171666667,48.37885018541667,76.0,93.0
65,48.52308096666667,48.942311770833335,74.0,100.0
66,48.984619466666665,49.14808101875,72.0,86.0
67,49.44615796666667,49.86731184791667,69.0,100.0
68,49.907696466666664,50.20769649166667,72.0,99.0
69,50.36923496666667,53.13077365833333,72.0,122.0
70,54.061542966666664,54.207696825,76.0,97.0
71,54.292312216666666,54.57115839375,79.0,102.0
72,54.75385071666667,54.892312266666664,76.0,85.0
73,54.98461996666666,55.34231230416667,79.0,99.0
74,55.44615846666667,55.896158504166664,76.0,96.0
75,55.90769696666667,57.35192785625,81.0,112.0
76,57.75385096666667,57.919235595833335,76.0,97.0
77,57.98462021666666,58.184620233333334,79.0,100.0
78,58.446158716666666,58.59615872916667,76.0,96.0
79,58.67692796666667,59.06346646041666,79.0,96.0
80,59.138466466666664,59.455774185416665,76.0,112.0
81,59.60000496666667,61.02115893125,69.0,100.0
82,61.446158966666665,61.54808205208333,74.0,122.0
83,61.67692821666667,61.91923592916667,76.0,102.0
84,62.13846671666666,62.29231288333333,72.0,92.0
85,62.369235966666665,62.71923599583333,74.0,97.0
86,62.83077446666667,63.169236033333334,76.0,96.0
87,63.292312966666664,63.63077453333333,76.0,96.0
88,63.53846683333333,63.89423609375,79.0,117.0
89,63.98462071666667,64.1538515,76.0,90.0
90,64.21538996666666,65.0769285,79.0,99.0
91,65.13846696666667,65.69231316666666,84.0,127.0
92,65.60000546666667,66.1730824375,83.0,102.0
93,66.06154396666666,66.53846708333333,81.0,117.0
94,66.52308246666666,66.61346708958334,79.0,96.0
95,66.75385171666666,67.038467125,79.0,96.0
96,66.9807748125,68.36731338958333,81.0,117.0
97,68.83077496666667,68.95000574583334,74.0,112.0
98,69.06154421666666,69.25192884791667,76.0,96.0
99,69.52308271666666,69.70000580833333,72.0,102.0
100,69.75385196666667,70.10962122708334,74.0,96.0
101,70.21539046666666,70.57500588125,76.0,99.0
102,70.6730828125,70.961544375,76.0,102.0
103,71.36923671666666,71.50000595833333,76.0,97.0
104,70.92308283333334,71.51731365208333,79.0,102.0
105,71.60000596666667,72.19231370833333,79.0,107.0
106,72.52308296666666,72.992313775,84.0,127.0
107,72.98462146666667,73.42692919583334,83.0,112.0
108,73.44615996666667,73.84616,81.0,112.0
109,73.90769846666667,74.07692925,79.0,95.0
110,74.13846771666667,74.3076985,79.0,95.0
111,74.2500061875,76.038467875,81.0,112.0
112,78.06154496666666,78.42116038125,78.0,127.0
113,78.98462196666667,79.27885276041667,76.0,112.0
114,79.44616046666667,80.00000666666666,74.0,95.0
115,79.90769896666667,81.29231446666667,76.0,117.0
116,81.29231446666667,81.42500678541667,76.0,95.0
117,81.52308371666666,81.63077603333333,78.0,107.0
118,81.75385296666667,82.02500683541666,79.0,95.0
119,82.21539146666666,82.47692995,78.0,112.0
120,82.67692996666666,82.93846845,78.0,117.0
121,83.13846846666667,83.45000695416667,76.0,102.0
122,83.60000696666667,84.94808400208333,78.0,122.0
123,84.98462246666666,85.05962247291667,74.0,107.0
124,85.21539171666667,85.33846865,74.0,97.0
125,85.44616096666667,85.98269947291666,79.0,117.0
126,86.13846871666667,86.76539184583334,81.0,127.0
127,86.83077646666666,87.24039188541667,83.0,122.0
128,87.29231496666667,88.07693041666667,81.0,112.0
129,87.98462271666666,88.52116122291666,74.0,107.0
130,88.67693046666666,89.03654588125,81.0,112.0
131,89.13846896666666,89.50962284375,79.0,112.0
132,89.60000746666667,89.84616133333333,78.0,127.0
133,90.06154596666667,90.30193060208333,76.0,127.0
134,90.52308446666666,90.59616139583333,74.0,99.0
135,90.75385371666667,92.515392325,76.0,122.0
136,92.83077696666666,93.18846930416666,78.0,127.0
137,93.75385396666667,94.17500784791666,76.0,127.0
138,94.44616171666667,94.57693095833334,74.0,100.0
139,94.67693096666666,95.54423873125,76.0,117.0
140,96.06154646666667,96.1730849375,76.0,99.0
141,96.29231571666666,96.4038541875,78.0,112.0
142,96.52308496666667,96.900008075,79.0,102.0
143,96.98462346666666,97.33846965,78.0,117.0
144,97.44616196666666,97.79616199583333,83.0,112.0
145,97.90770046666667,98.3077005,85.0,127.0
146,98.36923896666667,98.91539285833333,76.0,122.0
147,98.83077746666666,98.93462362916667,74.0,99.0
148,99.06154671666667,99.52885444791667,74.0,102.0
149,99.75385446666667,99.83462370416666,74.0,95.0
150,99.98462371666666,100.08846987916667,74.0,97.0
151,100.21539296666667,100.74039301041667,79.0,122.0
152,100.90770071666667,101.4346238375,81.0,117.0
153,101.60000846666667,101.91539310833333,83.0,107.0
154,102.06154696666667,102.68462394166667,81.0,122.0
155,102.75385471666667,103.18270090625,74.0,107.0
156,103.44616246666666,103.74616249166667,81.0,122.0
157,103.90770096666667,104.35000869583334,79.0,122.0
158,104.36923946666667,104.76154719166666,78.0,112.0
159,104.83077796666666,105.10770106666666,76.0,127.0
160,105.29231646666666,105.37500878125,74.0,92.0
161,105.52308571666667,108.28654748541666,74.0,117.0
162,138.98462696666667,139.20962698541666,79.0,99.0
163,139.21539621666668,139.31347314791665,76.0,92.0
164,139.44616546666666,139.59616547916667,76.0,97.0
165,139.67693471666666,139.78270395625,74.0,92.0
166,139.90770396666667,140.06155013333333,74.0,93.0
167,140.13847321666665,140.24616553333334,72.0,85.0
168,140.36924246666666,140.53655017291666,72.0,107.0
169,140.60001171666667,140.80578096458333,67.0,92.0
170,140.83078096666668,140.92885789791666,67.0,89.0
171,141.06155021666666,141.15770407083332,69.0,93.0
172,141.29231946666667,141.40193486041667,72.0,92.0
173,141.52308871666668,141.61539641666667,74.0,90.0
174,141.75385796666666,142.38655032708334,76.0,100.0
175,142.67693496666666,142.77116574375,81.0,117.0
176,142.90770421666667,142.99231960833333,79.0,93.0
177,143.13847346666665,143.23655039791666,79.0,95.0
178,143.36924271666666,143.45578118541667,76.0,102.0
179,143.60001196666667,143.69231966666666,76.0,93.0
180,143.83078121666668,143.92116583958332,74.0,96.0
181,144.06155046666666,144.15962739791667,72.0,83.0
182,144.29231971666667,144.37693510833333,74.0,85.0
183,144.52308896666668,144.95001207916667,69.0,97.0
184,145.90770446666667,146.0423198625,67.0,90.0
185,146.13847371666665,146.25193526458332,69.0,88.0
186,146.36924296666666,147.00770455833333,72.0,96.0
187,147.75385846666666,147.91732001875,74.0,112.0
188,147.98462771666667,148.23655081458332,72.0,90.0
189,148.21539696666667,148.60193546041666,76.0,107.0
190,148.67693546666666,149.23270474375,79.0,112.0
191,149.83078171666668,149.91732018541666,76.0,93.0
192,150.06155096666666,150.48078177083335,74.0,100.0
193,150.52308946666668,150.68655101875,72.0,86.0
194,150.98462796666666,151.29808953124999,72.0,100.0
195,151.21539721666667,151.8461665,76.0,95.0
196,151.90770496666667,153.023089675,74.0,99.0
197,153.75385896666666,153.97885898541668,79.0,127.0
198,153.98462821666666,154.08270514791667,76.0,92.0
199,154.21539746666667,154.36539747916666,76.0,97.0
200,154.44616671666665,154.55193595625,74.0,92.0
201,154.67693596666666,154.83078213333334,74.0,93.0
202,154.90770521666667,155.01539753333333,72.0,85.0
203,155.13847446666668,155.30578217291668,72.0,107.0
204,155.36924371666666,155.57501296458332,67.0,92.0
205,155.60001296666667,155.69808989791667,67.0,89.0
206,155.83078221666668,155.92693607083334,69.0,93.0
207,156.06155146666666,156.17116686041666,72.0,92.0
208,156.29232071666667,156.38462841666666,74.0,90.0
209,156.52308996666667,157.15578232708333,76.0,100.0
210,157.44616696666665,157.54039774375,81.0,117.0
211,157.67693621666666,157.76155160833332,79.0,93.0
212,157.90770546666667,158.00578239791668,79.0,95.0
213,158.13847471666668,158.22501318541666,76.0,102.0
214,158.36924396666666,158.46155166666668,76.0,93.0
215,158.60001321666667,158.69039783958334,74.0,96.0
216,158.83078246666668,158.92885939791665,72.0,83.0
217,159.06155171666666,159.29232096666667,74.0,85.0
218,159.52309021666667,159.75385946666665,69.0,97.0
219,160.67693646666666,160.8115518625,67.0,90.0
220,160.90770571666667,161.02116726458334,69.0,88.0
221,161.13847496666668,162.06155196666666,72.0,96.0
222,162.29232121666666,162.45578276875,74.0,112.0
223,162.75385971666665,163.00578281458334,72.0,90.0
224,162.98462896666666,163.37116746041667,76.0,107.0
225,163.44616746666668,164.00193674375,79.0,112.0
226,164.60001371666667,164.68655218541667,76.0,93.0
227,164.83078296666667,165.25001377083333,74.0,100.0
228,165.29232146666666,165.45578301875,72.0,86.0
229,165.75385996666665,166.17501384791666,69.0,100.0
230,166.21539846666667,166.51539849166667,72.0,99.0
231,166.68078312083333,167.00001391666666,72.0,99.0
232,168.52309096666667,168.669244825,76.0,97.0
233,168.75386021666665,169.03270639375,79.0,102.0
234,169.21539871666667,169.35386026666666,76.0,85.0
235,169.44616796666668,169.80386030416668,79.0,99.0
236,169.90770646666667,170.35770650416666,76.0,96.0
237,170.36924496666666,171.81347585625,81.0,112.0
238,172.21539896666667,172.38078359583332,76.0,97.0
239,172.44616821666668,172.64616823333333,79.0,100.0
240,172.90770671666667,173.05770672916665,76.0,96.0
241,173.13847596666668,173.52501446041666,79.0,96.0
242,173.60001446666666,173.91732218541668,76.0,112.0
243,174.06155296666665,175.48270693125,69.0,100.0
244,175.90770696666667,176.00963005208334,74.0,122.0
245,176.13847621666667,176.38078392916665,76.0,102.0
246,176.60001471666666,176.75386088333335,72.0,92.0
247,176.83078396666667,177.18078399583334,74.0,97.0
248,177.29232246666666,177.63078403333333,76.0,96.0
249,177.7500148125,178.10578407291666,76.0,117.0
250,178.00001483333332,178.35578409375,79.0,117.0
251,178.44616871666668,178.6153995,76.0,90.0
252,178.67693796666666,179.24616878333333,79.0,99.0
253,179.60001496666666,180.00578423125,84.0,127.0
254,180.06155346666665,180.35001502916666,83.0,102.0
255,180.52309196666667,180.76347660208333,81.0,117.0
256,180.98463046666666,181.15386125,79.0,96.0
257,181.21539971666667,181.61539975,79.0,96.0
258,181.500015125,182.82886138958332,81.0,117.0
259,183.29232296666666,183.41155374583334,74.0,112.0
260,183.52309221666667,183.71347684791667,76.0,96.0
261,183.98463071666666,184.16155380833334,72.0,77.0
262,184.21539996666667,184.57116922708335,74.0,96.0
263,184.67693846666666,185.03655388125,76.0,99.0
264,185.1346308125,185.538477,76.0,102.0
265,185.3654000625,185.84616933333334,79.0,102.0
266,185.83078471666667,185.96155395833333,76.0,97.0
267,186.06155396666668,186.65386170833332,79.0,107.0
268,186.98463096666666,187.26540022083333,84.0,127.0
269,187.44616946666667,187.70001564166665,83.0,112.0
270,187.90770796666666,188.11924644583334,81.0,112.0
271,188.36924646666665,188.45963108958333,79.0,95.0
272,188.60001571666666,188.884631125,79.0,95.0
273,188.84616958333334,189.57886195208334,81.0,112.0
274,192.52309296666667,192.88270838125,78.0,127.0
275,193.44616996666667,193.74040076041666,76.0,112.0
276,193.90770846666666,194.38463158333334,74.0,95.0
277,194.36924696666668,195.75386246666667,76.0,117.0
278,195.75386246666667,195.88655478541668,76.0,95.0
279,195.98463171666666,196.09232403333334,78.0,107.0
280,196.21540096666666,196.48655483541665,79.0,95.0
281,196.67693946666665,196.93847795,78.0,112.0
282,197.13847796666667,197.40001645,78.0,117.0
283,197.60001646666666,197.91155495416666,76.0,102.0
284,198.06155496666668,199.40963200208333,78.0,122.0
285,199.44617046666667,199.52117047291668,74.0,107.0
286,199.67693971666665,199.80001665,74.0,97.0
287,199.90770896666666,200.44424747291666,79.0,117.0
288,200.60001671666666,201.22693984583333,81.0,127.0
289,201.29232446666666,201.70193988541666,83.0,122.0
290,201.75386296666667,202.38463225,81.0,112.0
291,202.44617071666667,202.98270922291667,74.0,107.0
292,203.13847846666667,203.49809388124999,81.0,112.0
293,203.60001696666666,203.97117084375,79.0,112.0
294,204.06155546666668,204.30770933333332,78.0,127.0
295,204.52309396666666,204.76347860208332,76.0,127.0
296,204.98463246666665,205.05770939583334,74.0,99.0
297,205.21540171666666,206.976940325,76.0,122.0
298,207.29232496666665,207.65001730416665,78.0,127.0
299,208.21540196666666,208.63655584791667,76.0,127.0
300,208.90770971666666,209.03847895833334,74.0,100.0
301,209.13847896666667,210.00578673125,76.0,117.0
302,210.52309446666666,210.6346329375,76.0,99.0
303,210.75386371666667,210.8654021875,78.0,112.0
304,210.98463296666665,211.361556075,79.0,102.0
305,211.44617146666667,211.80001765,78.0,117.0
306,211.90770996666666,212.25770999583332,83.0,112.0
307,212.36924846666668,212.7692485,85.0,127.0
308,212.83078696666666,213.37694085833334,76.0,122.0
309,213.29232546666665,213.39617162916667,74.0,99.0
310,213.52309471666666,213.99040244791667,74.0,102.0
311,214.21540246666666,214.29617170416665,74.0,95.0
312,214.44617171666667,214.55001787916666,74.0,97.0
313,214.67694096666668,215.20194101041668,79.0,122.0
314,215.36924871666668,215.8961718375,81.0,117.0
315,216.06155646666667,216.37694110833334,83.0,107.0
316,216.52309496666666,217.14617194166667,81.0,122.0
317,217.21540271666666,217.64424890625,74.0,107.0
318,217.90771046666666,218.20771049166666,81.0,122.0
319,218.36924896666667,218.81155669583333,79.0,122.0
320,218.83078746666666,219.22309519166666,78.0,112.0
321,219.29232596666665,219.56924906666666,76.0,127.0
322,219.75386446666667,219.83655678125,74.0,92.0
323,219.98463371666668,222.06155696666667,74.0,117.0
324,222.06155696666667,223.15386475,79.0,127.0
325,222.98463396666668,223.46155708333333,77.0,112.0
326,223.44617246666667,224.0192494375,75.0,95.0
327,223.90771096666666,225.29232646666665,77.0,117.0
328,225.29232646666665,225.42501878541665,77.0,95.0
329,225.52309571666666,225.63078803333335,79.0,107.0
330,225.75386496666667,226.02501883541666,80.0,95.0
331,226.21540346666666,226.47694195,79.0,112.0
332,226.67694196666667,226.93848045,79.0,117.0
333,227.13848046666666,227.45001895416667,77.0,102.0
334,227.60001896666665,228.94809600208333,79.0,122.0
335,228.98463446666668,229.05963447291666,75.0,107.0
336,229.21540371666666,229.33848065,75.0,97.0
337,229.44617296666667,229.98271147291666,80.0,117.0
338,230.13848071666666,230.76540384583333,82.0,127.0
339,230.83078846666666,231.24040388541667,84.0,122.0
340,231.29232696666668,232.038480875,82.0,112.0
341,231.98463471666668,232.52117322291667,75.0,107.0
342,232.67694246666667,233.03655788125,82.0,112.0
343,233.13848096666666,233.50963484375,80.0,112.0
344,233.60001946666665,233.84617333333333,79.0,127.0
345,234.06155796666667,234.30194260208333,77.0,127.0
346,234.52309646666666,234.59617339583332,75.0,99.0
347,234.75386571666667,236.515404325,77.0,122.0
348,236.83078896666666,237.18848130416666,79.0,127.0
349,237.75386596666667,238.17501984791667,77.0,127.0
350,238.44617371666666,238.57694295833332,75.0,100.0
351,238.67694296666667,239.54425073125,77.0,117.0
352,240.06155846666667,240.1730969375,77.0,99.0
353,240.29232771666668,240.4038661875,79.0,112.0
354,240.52309696666666,240.900020075,80.0,102.0
355,240.98463546666667,241.33848165,79.0,117.0
356,241.44617396666666,241.79617399583333,84.0,112.0
357,241.90771246666665,242.3077125,86.0,127.0
358,242.36925096666667,242.91540485833332,77.0,122.0
359,242.83078946666666,242.93463562916668,75.0,99.0
360,243.06155871666667,243.52886644791667,75.0,102.0
361,243.75386646666666,243.83463570416666,75.0,95.0
362,243.98463571666667,244.08848187916666,75.0,97.0
363,244.21540496666665,244.74040501041665,80.0,122.0
364,244.90771271666665,245.4346358375,82.0,117.0
365,245.60002046666668,245.91540510833335,84.0,107.0
366,246.06155896666667,246.68463594166667,82.0,122.0
367,246.75386671666666,247.18271290625,75.0,107.0
368,247.44617446666666,247.74617449166666,82.0,122.0
369,247.90771296666668,248.35002069583334,80.0,122.0
370,248.36925146666667,248.76155919166666,79.0,112.0
371,248.83078996666666,249.10771306666666,77.0,127.0
372,249.29232846666667,249.37502078125,75.0,92.0
373,249.52309771666665,252.28655948541666,75.0,117.0
374,253.45002112083333,254.13848271666666,80.0,118.0
375,254.07886732708334,254.8500212375,82.0,107.0
376,254.83271354375,255.34425204791665,84.0,107.0
377,255.30386742916667,256.1538675,82.0,109.0
378,256.0038674875,257.2250214354167,75.0,102.0
379,259.23079083333334,259.7923293416667,80.0,106.0
380,259.66540625416667,260.19425245208333,79.0,116.0
381,260.1596370645833,260.92309866666665,77.0,92.0
382,260.9384832833333,261.07886791041665,75.0,100.0
383,261.27502177291666,264.36348356875,75.0,112.0
