,start,end,pitch,velocity
0,0.5230769666666667,1.730769375,69.0,66.0
1,0.5230769666666667,1.8826924645833334,41.0,59.0
2,0.5230769666666667,1.9480770854166667,60.0,66.0
3,0.5230769666666667,2.09423094375,65.0,67.0
4,2.3692309666666667,3.4826925979166665,52.0,43.0
5,2.3692309666666667,3.58269260625,40.0,54.0
6,2.3692309666666667,3.707692616666667,71.0,68.0
7,2.3692309666666667,3.7711541604166667,67.0,69.0
8,2.3692309666666667,3.77884646875,64.0,69.0
9,4.215384966666667,5.173077354166667,50.0,42.0
10,4.215384966666667,5.196154279166667,38.0,44.0
11,4.215384966666667,5.559615847916667,65.0,72.0
12,4.215384966666667,5.565385079166667,69.0,69.0
13,4.215384966666667,5.569231233333333,62.0,77.0
14,6.061538966666666,7.1192313625,48.0,68.0
15,6.061538966666666,7.242308295833333,60.0,81.0
16,6.061538966666666,7.29807753125,67.0,76.0
17,6.061538966666666,7.384616,64.0,75.0
18,7.676923716666667,7.859616039583333,64.0,70.0
19,7.907692966666667,8.736539189583333,69.0,97.0
20,7.446154466666667,8.755769960416666,60.0,88.0
21,7.907692966666667,8.755769960416666,65.0,96.0
22,7.907692966666667,9.019231520833333,41.0,74.0
23,8.830769966666667,9.280770004166667,60.0,66.0
24,8.830769966666667,9.284616158333334,65.0,89.0
25,8.830769966666667,9.303846929166667,69.0,86.0
26,9.753846966666666,10.561539341666666,71.0,77.0
27,9.753846966666666,10.573077804166667,67.0,79.0
28,9.753846966666666,10.607693191666666,64.0,85.0
29,9.753846966666666,10.821154747916667,52.0,59.0
30,9.753846966666666,10.915385525,40.0,57.0
31,10.676923966666667,11.128847081249999,67.0,72.0
32,10.676923966666667,11.1346163125,71.0,69.0
33,10.676923966666667,11.178847085416667,64.0,59.0
34,11.600000966666666,12.355770260416667,69.0,85.0
35,11.600000966666666,12.359616414583334,65.0,92.0
36,11.600000966666666,12.392308725,62.0,92.0
37,11.600000966666666,12.423077958333334,38.0,59.0
38,11.600000966666666,12.4500010375,50.0,59.0
39,12.523077966666667,12.919231845833334,69.0,85.0
40,12.523077966666667,13.301924185416667,62.0,77.0
41,12.523077966666667,13.317308802083334,65.0,90.0
42,14.830770466666667,15.353847433333334,59.0,74.0
43,15.292308966666667,15.746155158333334,62.0,83.0
44,15.753847466666667,15.84807824375,67.0,69.0
45,16.215385966666666,16.750001395833333,71.0,92.0
46,13.446154966666667,16.96730910625,43.0,69.0
47,14.369231966666666,17.02115526458333,55.0,89.0
48,13.907693466666666,17.038462958333334,50.0,65.0
49,17.138462966666665,22.225001852083334,71.0,66.0
50,17.138462966666665,22.257694162499998,67.0,74.0
51,16.676924466666666,22.26346339375,74.0,85.0
52,17.138462966666665,22.301924935416668,43.0,67.0
53,17.138462966666665,22.34038647708333,50.0,60.0
54,17.138462966666665,22.4307711,55.0,61.0
55,22.676924966666668,23.463463493749998,60.0,83.0
56,22.676924966666668,23.478848110416667,67.0,82.0
57,22.676924966666668,23.49807888125,64.0,82.0
58,23.138463466666668,23.836540447916665,55.0,41.0
59,23.600001966666667,24.1500020125,67.0,62.0
60,23.600001966666667,24.17884816875,64.0,69.0
61,23.600001966666667,24.22500201875,60.0,72.0
62,22.676924966666668,24.817309760416666,48.0,69.0
63,24.061540466666667,24.817309760416666,55.0,42.0
64,24.523078966666667,25.042309779166665,64.0,90.0
65,24.523078966666667,25.05577131875,60.0,88.0
66,24.523078966666667,25.05577131875,67.0,88.0
67,24.984617466666666,25.5346175125,55.0,49.0
68,24.984617466666666,25.711540604166668,48.0,52.0
69,25.446155966666666,25.882694464583334,64.0,96.0
70,25.446155966666666,25.894232927083333,67.0,92.0
71,25.446155966666666,25.95577139375,60.0,97.0
72,25.907694466666666,26.332694502083335,48.0,82.0
73,26.369232966666665,26.90192531875,64.0,88.0
74,26.369232966666665,26.905771472916665,60.0,92.0
75,26.830771466666665,27.4730792125,52.0,42.0
76,27.292309966666668,27.8653869375,60.0,92.0
77,27.292309966666668,27.875002322916668,57.0,82.0
78,27.292309966666668,27.89423309375,64.0,83.0
79,27.984617716666666,28.04423310625,64.0,30.0
80,27.753848466666668,28.400002366666666,52.0,49.0
81,28.215386966666667,28.744233164583335,60.0,89.0
82,28.215386966666667,28.751925472916668,57.0,82.0
83,28.215386966666667,28.809617785416666,64.0,79.0
84,28.676925466666667,29.24423320625,52.0,56.0
85,29.138463966666666,29.515387075,64.0,95.0
86,26.369232966666665,29.865387104166665,45.0,65.0
87,29.600002466666666,29.915387108333334,52.0,61.0
88,29.138463966666666,29.92500249375,60.0,102.0
89,30.061540966666666,30.61346408958333,65.0,89.0
90,30.061540966666666,30.621156397916668,60.0,92.0
91,30.061540966666666,30.6346179375,57.0,92.0
92,30.523079466666665,31.15961798125,48.0,55.0
93,30.984617966666665,31.409618002083334,57.0,92.0
94,30.984617966666665,31.44807954375,65.0,86.0
95,30.984617966666665,31.513464164583333,60.0,93.0
96,30.061540966666666,31.684618025,41.0,90.0
97,31.446156466666668,31.694233410416665,48.0,71.0
98,31.907694966666668,32.4576950125,64.0,88.0
99,31.907694966666668,32.45961808958333,67.0,86.0
100,31.907694966666668,32.47884886041667,59.0,95.0
101,32.369233466666664,33.021156597916665,47.0,58.0
102,32.83077196666667,33.24807969375,67.0,90.0
103,32.83077196666667,33.27692585,59.0,89.0
104,32.83077196666667,33.31538739166667,64.0,96.0
105,31.907694966666668,33.62692587916666,40.0,71.0
106,33.29231046666666,33.66346434375,47.0,90.0
107,33.753848966666666,34.29807978125,65.0,81.0
108,33.753848966666666,34.32115670625,62.0,90.0
109,33.753848966666666,34.37500286458333,57.0,88.0
110,34.21538746666667,34.8346182875,45.0,54.0
111,34.676925966666666,35.100002925,62.0,92.0
112,34.676925966666666,35.11731061875,65.0,86.0
113,33.753848966666666,35.20577216458333,38.0,82.0
114,34.676925966666666,35.25577216875,57.0,77.0
115,35.13846446666667,35.49231065,45.0,68.0
116,35.600002966666665,36.14807993541667,55.0,90.0
117,35.600002966666665,36.194233785416664,59.0,83.0
118,35.600002966666665,36.24038763541667,62.0,83.0
119,36.523079966666664,36.72115690625,55.0,99.0
120,36.06154146666667,36.74231075416667,50.0,75.0
121,35.600002966666665,36.81731076041667,43.0,81.0
122,36.753849216666666,37.01154154583333,57.0,97.0
123,36.98461846666667,37.04808001041667,59.0,100.0
124,37.44615696666666,37.915387775,67.0,92.0
125,37.44615696666666,37.975003164583335,48.0,81.0
126,37.44615696666666,37.98461855,64.0,89.0
127,37.90769546666667,38.011541629166665,55.0,64.0
128,37.44615696666666,38.01346470625,60.0,92.0
129,38.36923396666667,38.875003239583336,64.0,97.0
130,38.36923396666667,38.90192631875,67.0,96.0
131,38.830772466666666,39.16731095625,60.0,75.0
132,39.29231096666667,39.561541758333334,60.0,93.0
133,39.29231096666667,39.56731098958333,48.0,58.0
134,39.29231096666667,39.83077255,64.0,92.0
135,39.29231096666667,39.85000332083333,67.0,92.0
136,39.753849466666665,40.2807725875,60.0,69.0
137,40.21538796666667,40.70192646875,64.0,96.0
138,40.21538796666667,40.71154185416667,67.0,96.0
139,40.676926466666664,41.061541883333334,60.0,83.0
140,41.13846496666667,41.63654193125,60.0,93.0
141,41.13846496666667,41.66731116458333,64.0,93.0
142,41.600003466666664,42.14615735833333,57.0,79.0
143,41.600003466666664,42.28269583125,52.0,57.0
144,42.06154196666667,42.60384970416666,60.0,93.0
145,42.06154196666667,42.650003554166666,64.0,82.0
146,42.52308046666667,43.034618970833336,57.0,66.0
147,42.52308046666667,43.11731128541667,52.0,52.0
148,42.984618966666666,43.590388247916664,60.0,95.0
149,42.984618966666666,43.75961903125,64.0,95.0
150,43.44615746666667,43.9269267375,52.0,52.0
151,41.13846496666667,43.95961904791667,45.0,78.0
152,43.44615746666667,43.97692674166667,57.0,54.0
153,43.907695966666665,44.355772927083336,64.0,93.0
154,43.907695966666665,44.42884985625,60.0,99.0
155,44.36923446666667,44.755772960416664,57.0,88.0
156,44.830772966666665,45.18461915,65.0,81.0
157,44.830772966666665,45.18461915,69.0,73.0
158,45.29231146666667,46.130773075,48.0,88.0
159,44.830772966666665,46.23654231458333,41.0,89.0
160,45.753849966666664,46.28654231875,60.0,90.0
161,45.753849966666664,46.29615770416667,57.0,92.0
162,46.21538846666667,46.686542352083336,53.0,77.0
163,46.67692696666666,46.963465452083334,59.0,82.0
164,46.67692696666666,47.146157775,55.0,89.0
165,47.138465466666666,47.89231168333333,47.0,57.0
166,47.60000396666667,47.955773227083334,59.0,81.0
167,47.60000396666667,48.13269631875,52.0,78.0
168,47.60000396666667,48.13461939583333,64.0,85.0
169,48.061542466666666,48.223080941666666,59.0,55.0
170,48.061542466666666,48.321157872916665,47.0,51.0
171,46.67692696666666,48.482696347916665,40.0,77.0
172,48.52308096666667,48.967311772916666,62.0,78.0
173,48.52308096666667,48.97500408125,65.0,72.0
174,48.52308096666667,49.140388710416666,57.0,73.0
175,48.52308096666667,49.45961950625,38.0,85.0
176,49.44615796666667,50.04423493958333,62.0,79.0
177,49.44615796666667,50.29808111458333,55.0,86.0
178,49.44615796666667,50.3076965,59.0,85.0
179,49.44615796666667,50.3653888125,43.0,72.0
180,50.36923496666667,51.167311956249996,60.0,77.0
181,50.36923496666667,51.33269658541666,64.0,74.0
182,50.36923496666667,51.992312025,55.0,69.0
183,51.29231196666667,52.16731203958334,62.0,100.0
184,52.215388966666666,53.021158264583335,64.0,72.0
185,52.215388966666666,53.02885057291667,60.0,72.0
186,52.215388966666666,53.0423121125,55.0,69.0
187,50.36923496666667,53.1692352,36.0,74.0
188,50.83077346666666,53.1692352,43.0,59.0
189,51.75385046666667,53.19038904791667,48.0,64.0
190,53.138465966666665,53.19038904791667,60.0,77.0
191,53.138465966666665,53.192312125,64.0,72.0
192,54.75385071666667,54.98269688958333,55.0,53.0
193,54.52308146666667,55.042312279166666,52.0,48.0
194,54.061542966666664,55.20769690833333,40.0,56.0
195,55.215389216666665,55.28269691458333,52.0,55.0
196,54.292312216666666,55.28654306875,47.0,43.0
197,54.98461996666666,55.40577384791666,59.0,56.0
198,54.98461996666666,55.426927695833335,64.0,64.0
199,55.44615846666667,55.69423541041667,55.0,41.0
200,55.67692771666667,55.7884661875,59.0,39.0
201,55.67692771666667,56.00000466666667,64.0,47.0
202,56.60000471666667,56.83077396666667,59.0,47.0
203,56.369235466666666,56.9192355125,57.0,50.0
204,55.90769696666667,57.01538936666667,45.0,62.0
205,56.138466216666664,57.04038936875,52.0,49.0
206,57.061543216666664,57.20192784375,59.0,47.0
207,57.292312466666665,57.35577401041667,57.0,51.0
208,56.83077396666667,57.55962018125,64.0,62.0
209,56.83077396666667,57.58654326041667,60.0,59.0
210,57.52308171666667,57.72115865625,59.0,41.0
211,58.446158716666666,58.65577411875,55.0,43.0
212,58.215389466666664,58.723081816666664,52.0,47.0
213,57.75385096666667,58.80769720833333,40.0,51.0
214,57.98462021666666,58.85385105833333,47.0,53.0
215,58.90769721666667,58.98077414583333,52.0,48.0
216,58.67692796666667,59.138466466666664,59.0,62.0
217,58.67692796666667,59.146158774999996,64.0,63.0
218,59.138466466666664,59.37115879375,55.0,51.0
219,59.369235716666665,59.56346650208333,59.0,46.0
220,59.369235716666665,59.64615881666666,64.0,53.0
221,60.292312716666665,60.50769735,59.0,55.0
222,60.06154346666666,60.60192812708333,57.0,54.0
223,59.60000496666667,60.626928129166664,45.0,51.0
224,59.83077421666667,60.68462044166667,52.0,53.0
225,60.75385121666667,60.832697377083335,57.0,40.0
226,60.523081966666666,60.97885123541667,60.0,68.0
227,60.98462046666667,61.20769740833333,59.0,45.0
228,60.523081966666666,61.21731279375,64.0,72.0
229,61.215389716666664,61.484620508333336,60.0,53.0
230,62.13846671666666,62.4000052,53.0,56.0
231,61.90769746666667,62.432697510416666,50.0,59.0
232,61.446158966666665,62.54615905833333,38.0,62.0
233,61.67692821666667,62.64808214375,45.0,59.0
234,62.600005216666666,62.71731291875,50.0,39.0
235,62.369235966666665,62.838466775,57.0,65.0
236,62.83077446666667,63.06731294791667,53.0,46.0
237,62.369235966666665,63.1038514125,62.0,68.0
238,63.06154371666667,63.292312966666664,57.0,46.0
239,63.98462071666667,64.20577458125,55.0,49.0
240,63.75385146666667,64.269236125,52.0,52.0
241,63.292312966666664,64.41731306041666,40.0,59.0
242,63.523082216666666,64.453851525,47.0,53.0
243,64.44615921666667,64.6038515375,52.0,43.0
244,64.21538996666666,64.69231308333333,59.0,59.0
245,64.21538996666666,64.7192361625,64.0,68.0
246,64.67692846666667,64.89423617708333,55.0,55.0
247,64.90769771666666,65.00000541666667,59.0,39.0
248,64.90769771666666,65.06154388333333,64.0,64.0
249,65.83077471666667,66.04615935,59.0,47.0
250,65.60000546666667,66.05962088958333,57.0,56.0
251,66.06154396666666,66.37692860833333,60.0,63.0
252,65.13846696666667,66.49039015625,45.0,58.0
253,65.36923621666666,66.4961593875,52.0,54.0
254,66.29231321666667,66.52692862083333,57.0,47.0
255,66.52308246666666,66.69808248125,59.0,39.0
256,66.75385171666666,67.038467125,64.0,47.0
257,67.67692871666667,67.823082575,60.0,47.0
258,67.44615946666667,67.89615950416666,57.0,51.0
259,68.13846721666667,68.26539030416667,57.0,43.0
260,67.21539021666666,68.27885184375,52.0,59.0
261,66.98462096666667,68.28077492083334,45.0,62.0
262,68.36923646666666,68.60577494791667,60.0,35.0
263,67.90769796666666,68.653851875,69.0,63.0
264,68.60000571666667,68.85769804583333,64.0,41.0
265,69.52308271666666,69.7730827375,53.0,44.0
266,69.29231346666667,69.82500581875,50.0,41.0
267,68.83077496666667,69.98846737083333,38.0,57.0
268,69.06154421666666,70.09423661041667,45.0,48.0
269,69.98462121666667,70.15000584583333,50.0,30.0
270,69.75385196666667,70.20000585,57.0,53.0
271,69.75385196666667,70.28654431875,62.0,59.0
272,70.21539046666666,70.46346741041667,53.0,47.0
273,70.44615971666667,70.63077511666667,57.0,51.0
274,70.44615971666667,70.72885204791666,62.0,43.0
275,71.36923671666666,71.60000596666667,55.0,56.0
276,71.13846746666667,71.61346750625,52.0,47.0
277,70.67692896666667,71.80192906041667,40.0,53.0
278,70.90769821666666,71.88269829791666,47.0,51.0
279,71.83077521666667,71.96154445833334,52.0,53.0
280,71.60000596666667,72.023082925,64.0,65.0
281,71.60000596666667,72.02692907916666,59.0,63.0
282,72.06154446666666,72.29231371666667,55.0,50.0
283,72.29231371666667,72.3692368,59.0,41.0
284,72.29231371666667,72.4730829625,64.0,51.0
285,73.21539071666666,73.42308304166667,59.0,44.0
286,72.98462146666667,73.45962150625,57.0,50.0
287,72.52308296666666,73.60577536458334,45.0,59.0
288,72.75385221666667,73.71539075833333,52.0,48.0
289,73.67692921666666,73.83654461458333,57.0,47.0
290,73.44615996666667,73.88462154166666,60.0,47.0
291,73.44615996666667,73.91923692916667,64.0,57.0
292,73.90769846666667,74.13846771666667,59.0,44.0
293,74.13846771666667,74.3653908125,60.0,47.0
294,75.06154471666666,75.28269858125,60.0,56.0
295,74.83077546666667,75.31731396875,57.0,61.0
296,74.36923696666666,75.66731399791666,45.0,64.0
297,74.60000621666667,75.68462169166666,52.0,64.0
298,75.52308321666666,75.74808323541667,57.0,61.0
299,75.29231396666667,75.74808323541667,69.0,76.0
300,75.29231396666667,75.80385247083333,64.0,65.0
301,75.75385246666667,75.99039094791667,60.0,51.0
302,75.98462171666667,76.07692941666667,64.0,40.0
303,75.98462171666667,76.20192942708333,69.0,54.0
304,76.67692946666666,77.15577566041667,57.0,53.0
305,76.90769871666667,77.21731412708333,61.0,61.0
306,76.21539096666666,77.51731415208333,45.0,65.0
307,77.13846796666667,77.54616030833333,64.0,59.0
308,76.44616021666667,77.55962184791666,52.0,58.0
309,77.36923721666666,77.6423141625,57.0,76.0
310,77.60000646666667,77.87500648958333,61.0,71.0
311,77.83077571666666,77.96154495833333,64.0,63.0
312,77.13846796666667,78.00962188541666,69.0,66.0
313,78.52308346666666,78.59616039583334,62.0,67.0
314,78.29231421666667,78.807698875,57.0,59.0
315,79.21539121666666,79.46923739166667,57.0,65.0
316,78.75385271666667,79.48077585416667,66.0,95.0
317,78.06154496666666,79.56154509166667,50.0,91.0
318,79.44616046666667,79.69808356458333,62.0,71.0
319,78.75385271666667,79.869237425,69.0,100.0
320,79.67692971666666,79.91731435208334,66.0,73.0
321,80.36923746666666,80.48462209166667,57.0,55.0
322,80.13846821666667,80.65000672083333,52.0,74.0
323,80.60000671666667,81.29231446666667,61.0,85.0
324,80.60000671666667,81.35962216458333,64.0,88.0
325,79.90769896666667,81.40192986041667,45.0,90.0
326,81.06154521666667,81.42500678541667,52.0,67.0
327,81.29231446666667,81.54616064166666,57.0,63.0
328,81.52308371666666,81.68846834583333,61.0,68.0
329,80.60000671666667,81.70577603958333,69.0,96.0
330,82.21539146666666,82.35962224791666,55.0,58.0
331,81.98462221666666,82.48462225833333,47.0,56.0
332,82.44616071666667,82.91346844791667,64.0,68.0
333,82.44616071666667,82.93654537291667,59.0,77.0
334,82.44616071666667,82.93654537291667,67.0,78.0
335,82.90769921666667,83.09616077083334,55.0,64.0
336,82.67692996666666,83.41923772083334,47.0,62.0
337,81.75385296666667,83.42116079791667,40.0,81.0
338,83.13846846666667,83.54423773124999,64.0,77.0
339,83.13846846666667,83.54423773124999,67.0,83.0
340,83.13846846666667,83.56346850208334,59.0,81.0
341,83.36923771666666,83.57116081041667,55.0,67.0
342,84.06154546666667,84.23269932708334,59.0,72.0
343,83.83077621666666,84.36346856875,54.0,59.0
344,84.29231471666667,84.7961609125,62.0,83.0
345,83.60000696666667,84.85769937916666,47.0,75.0
346,84.52308396666666,84.93077630833334,54.0,84.0
347,84.29231471666667,85.16923786666666,71.0,95.0
348,84.29231471666667,85.19231479166666,66.0,92.0
349,84.98462246666666,85.22116094791667,62.0,76.0
350,84.75385321666667,85.22885325625,59.0,80.0
351,85.21539171666667,85.28846864583333,45.0,79.0
352,86.13846871666667,86.23269949375,55.0,75.0
353,85.90769946666667,86.41539181666667,50.0,61.0
354,86.36923796666666,86.85962262291666,59.0,76.0
355,85.44616096666667,86.97885340208333,43.0,90.0
356,86.60000721666667,86.99231494166666,50.0,63.0
357,86.83077646666666,87.069238025,55.0,56.0
358,86.36923796666666,87.18654572708333,62.0,75.0
359,86.36923796666666,87.20000726666666,67.0,84.0
360,87.06154571666667,87.28654573541667,59.0,63.0
361,87.75385346666667,88.08269964791667,54.0,48.0
362,87.98462271666666,88.49039198958333,69.0,73.0
363,87.98462271666666,88.50385352916666,66.0,76.0
364,87.98462271666666,88.53077660833333,62.0,64.0
365,87.52308421666666,88.85577663541666,50.0,33.0
366,87.29231496666667,88.88654586875,42.0,67.0
367,88.44616121666667,88.90000740833334,54.0,54.0
368,88.67693046666666,88.915392025,57.0,65.0
369,88.90769971666667,89.10577665625,62.0,65.0
370,88.90769971666667,89.10769973333333,69.0,74.0
371,88.90769971666667,89.12500742708333,66.0,74.0
372,89.60000746666667,89.73269978541667,52.0,50.0
373,89.36923821666667,90.05577673541667,47.0,56.0
374,89.13846896666666,90.46731523125,40.0,77.0
375,90.29231521666667,90.51346908125,47.0,61.0
376,89.83077671666666,90.51539215833333,55.0,84.0
377,89.83077671666666,90.69616140416666,59.0,90.0
378,89.83077671666666,90.7269306375,64.0,92.0
379,90.52308446666666,90.74231525416667,52.0,59.0
380,90.75385371666667,90.82693064583333,55.0,59.0
381,91.44616146666667,91.65193071458333,59.0,68.0
382,91.67693071666666,92.02885382291666,64.0,81.0
383,91.67693071666666,92.05962305625,61.0,84.0
384,90.98462296666666,92.31539230833333,45.0,85.0
385,91.21539221666667,92.38654616041667,52.0,79.0
386,92.13846921666666,92.39808462291667,59.0,77.0
387,91.90769996666667,92.45577693541667,57.0,80.0
388,92.36923846666667,92.72116157291667,61.0,74.0
389,92.36923846666667,92.77116157708333,69.0,84.0
390,92.36923846666667,92.77308465416667,64.0,75.0
391,92.60000771666667,92.77693080833333,59.0,65.0
392,93.29231546666666,93.44039240208333,62.0,63.0
393,93.06154621666667,93.69808473125,57.0,63.0
394,93.52308471666666,94.21731554375,66.0,84.0
395,93.98462321666666,94.26731554791667,57.0,59.0
396,92.83077696666666,94.3038540125,50.0,91.0
397,94.21539246666667,94.48462325833333,62.0,67.0
398,93.52308471666666,94.53077710833334,69.0,80.0
399,93.52308471666666,94.57116172708334,74.0,93.0
400,94.44616171666667,94.6961617375,66.0,55.0
401,95.13846946666666,95.26923870833333,57.0,63.0
402,94.90770021666667,95.44231564583333,52.0,71.0
403,95.36923871666667,96.03077723333334,61.0,80.0
404,94.67693096666666,96.07116185208334,45.0,77.0
405,95.83077721666666,96.08462339166667,52.0,65.0
406,95.36923871666667,96.1961618625,64.0,85.0
407,96.06154646666667,96.30385417916666,57.0,67.0
408,95.36923871666667,96.39616187916667,69.0,95.0
409,96.29231571666666,96.64039266875,61.0,64.0
410,96.98462346666666,97.0730850125,58.0,67.0
411,96.98462346666666,97.30000810833333,54.0,59.0
412,97.21539271666667,97.44808504375,66.0,92.0
413,97.21539271666667,97.66923890833333,61.0,90.0
414,96.52308496666667,97.89039277291667,42.0,88.0
415,97.67693121666666,97.91731585208333,58.0,72.0
416,96.75385421666667,97.93077739166667,49.0,62.0
417,97.67693121666666,97.95577739375,54.0,81.0
418,97.90770046666667,97.98270047291666,61.0,44.0
419,97.90770046666667,98.04423893958334,66.0,95.0
420,98.13846971666666,98.18077741249999,70.0,73.0
421,98.83077746666666,99.10962364375,59.0,56.0
422,99.52308521666667,99.59616214583333,59.0,67.0
423,98.60000821666667,99.70000830833334,54.0,64.0
424,98.36923896666667,99.7038544625,47.0,71.0
425,99.06154671666667,100.02308525833334,71.0,100.0
426,99.98462371666666,100.29039297291666,69.0,90.0
427,100.90770071666667,101.19616227916667,52.0,59.0
428,101.13846996666666,101.43846999166666,55.0,76.0
429,100.21539296666667,101.47308537916666,40.0,61.0
430,100.67693146666667,101.53077769166667,47.0,55.0
431,101.36923921666667,101.54423923125,52.0,57.0
432,101.13846996666666,101.63847000833333,59.0,71.0
433,101.60000846666667,101.83077771666666,55.0,63.0
434,101.13846996666666,101.95385465,62.0,71.0
435,101.83077771666666,102.03270081041667,59.0,59.0
436,100.21539296666667,102.10193158541666,67.0,95.0
437,102.52308546666667,102.8653931875,54.0,76.0
438,102.75385471666667,103.3961624625,62.0,75.0
439,103.21539321666667,103.40962400208333,54.0,67.0
440,102.29231621666666,103.42885477291667,50.0,58.0
441,102.06154696666667,103.46154708333333,42.0,79.0
442,102.75385471666667,103.66731633124999,66.0,87.0
443,103.44616246666666,103.73462402916667,57.0,65.0
444,102.75385471666667,103.73847018333333,69.0,92.0
445,103.67693171666667,103.80962403541666,62.0,75.0
446,103.90770096666667,104.4807779375,40.0,89.0
447,104.13847021666666,104.53654717291667,47.0,74.0
448,104.36923946666667,104.56539332916667,55.0,64.0
449,104.60000871666666,104.80577796458333,59.0,79.0
450,104.60000871666666,104.83462412083334,64.0,72.0
451,104.60000871666666,104.88654720208334,67.0,79.0
452,104.83077796666666,105.31539339166666,45.0,83.0
453,105.06154721666667,105.37116262708334,52.0,72.0
454,105.29231646666666,105.44808571041666,57.0,74.0
455,105.52308571666667,105.61731649375,61.0,61.0
456,105.52308571666667,105.66347034375,64.0,54.0
457,105.52308571666667,105.76923958333333,69.0,75.0
458,106.44616271666666,106.66539350416667,64.0,92.0
459,106.21539346666667,106.67885504375,62.0,89.0
460,105.98462421666666,106.776931975,57.0,76.0
461,106.67693196666667,107.39231664166667,69.0,100.0
462,107.13847046666666,107.50962434375,66.0,102.0
463,107.60000896666666,108.40962441875,62.0,79.0
464,107.60000896666666,108.42116288125,69.0,74.0
465,107.36923971666667,108.42308595833333,64.0,82.0
466,107.60000896666666,108.43654749791666,66.0,64.0
467,106.90770121666667,108.5653936625,57.0,69.0
468,108.75385521666666,109.00193216041667,57.0,100.0
469,108.52308596666667,109.04039370208334,64.0,102.0
470,108.52308596666667,109.07116293541667,69.0,117.0
471,108.52308596666667,109.07693216666667,66.0,127.0
472,107.60000896666666,109.09231678333333,38.0,73.0
473,107.60000896666666,109.09231678333333,50.0,73.0
474,108.98462446666666,109.20385525416667,62.0,112.0
475,109.21539371666667,109.25577833541666,61.0,39.0
476,109.44616296666666,109.94423993125,52.0,84.0
477,109.44616296666666,109.9961630125,61.0,80.0
478,109.44616296666666,110.007701475,57.0,85.0
479,109.44616296666666,110.007701475,64.0,80.0
480,110.13847071666666,110.515393825,52.0,62.0
481,110.36923996666667,110.72693230416667,61.0,83.0
482,110.36923996666667,110.73270153541667,57.0,83.0
483,110.36923996666667,110.73270153541667,64.0,83.0
484,111.06154771666667,111.27885542708333,64.0,90.0
485,111.06154771666667,111.29616312083333,61.0,91.0
486,110.83077846666667,111.49039390625,52.0,40.0
487,111.52308621666667,111.80577854791666,57.0,77.0
488,111.52308621666667,111.83462470416667,64.0,74.0
489,111.52308621666667,111.89039393958333,61.0,75.0
490,111.98462471666667,112.03654779791667,57.0,68.0
491,111.75385546666666,112.23847089166667,52.0,83.0
492,112.21539396666667,112.56924015,64.0,91.0
493,109.44616296666666,112.59424015208333,45.0,80.0
494,112.21539396666667,112.68270169791667,61.0,100.0
495,112.44616321666666,112.776932475,52.0,81.0
496,112.67693246666667,112.80770170833333,57.0,80.0
497,112.90770171666666,112.961547875,45.0,72.0
498,113.13847096666666,113.68077870416667,54.0,72.0
499,113.13847096666666,113.68270178125,66.0,86.0
500,113.13847096666666,113.69424024375,62.0,74.0
501,113.13847096666666,113.70577870625,57.0,84.0
502,113.83077871666667,114.35385568333334,54.0,61.0
503,114.06154796666667,114.48077877083334,66.0,101.0
504,113.13847096666666,114.49424031041667,50.0,57.0
505,113.13847096666666,114.51539415833334,45.0,59.0
506,114.06154796666667,114.53654800625,62.0,94.0
507,114.52308646666667,114.62693262916666,57.0,57.0
508,114.75385571666666,114.97500958125,66.0,95.0
509,114.75385571666666,114.99616342916667,57.0,92.0
510,114.75385571666666,114.99616342916667,62.0,84.0
511,114.75385571666666,115.2807788375,54.0,72.0
512,115.21539421666667,115.50770193333334,57.0,85.0
513,115.21539421666667,115.53270193541667,66.0,91.0
514,115.21539421666667,115.56731732291667,62.0,76.0
515,115.67693271666667,115.77500964791666,57.0,61.0
516,115.44616346666666,115.94039427708333,54.0,72.0
517,114.75385571666666,116.34039431041667,45.0,64.0
518,116.13847121666667,116.39424046875,54.0,80.0
519,115.90770196666666,116.42500970208333,62.0,95.0
520,115.90770196666666,116.46347124374999,66.0,105.0
521,116.36924046666667,116.53462509583333,57.0,63.0
522,116.60000971666666,116.66924049166667,62.0,50.0
523,116.60000971666666,116.66924049166667,66.0,44.0
524,116.83077896666667,117.21539438333333,55.0,63.0
525,116.83077896666667,117.29808669791666,67.0,75.0
526,116.83077896666667,117.33654823958334,59.0,77.0
527,116.83077896666667,117.34039439375,62.0,75.0
528,117.52308671666667,117.80000981666666,55.0,59.0
529,116.83077896666667,118.05385599166667,50.0,61.0
530,117.75385596666666,118.05385599166667,59.0,100.0
531,117.75385596666666,118.16731753958334,62.0,92.0
532,116.83077896666667,118.2461637,43.0,62.0
533,117.98462521666667,118.25385600833333,55.0,69.0
534,118.21539446666667,118.269240625,50.0,47.0
535,117.75385596666666,118.30577908958334,67.0,95.0
536,118.67693296666667,119.07308684583333,57.0,69.0
537,118.67693296666667,119.146163775,69.0,75.0
538,118.67693296666667,119.20770224166667,62.0,75.0
539,118.67693296666667,119.20770224166667,66.0,75.0
540,119.36924071666667,119.67500997291667,57.0,84.0
541,118.67693296666667,119.87500998958333,50.0,65.0
542,119.83077921666667,119.89231768333333,57.0,44.0
543,119.83077921666667,120.10577923958333,62.0,58.0
544,119.60000996666666,120.14039462708334,69.0,96.0
545,119.60000996666666,120.17693309166667,66.0,103.0
546,120.06154846666666,120.28077925416666,57.0,56.0
547,120.29231771666666,120.33847156666667,50.0,67.0
548,120.52308696666667,121.00962546875,52.0,62.0
549,120.52308696666667,121.00962546875,69.0,79.0
550,120.52308696666667,121.0153947,57.0,74.0
551,120.52308696666667,121.01924085416667,64.0,72.0
552,120.52308696666667,121.03077931666667,61.0,68.0
553,121.21539471666667,121.53654858958333,52.0,65.0
554,121.44616396666666,121.70385629583333,57.0,97.0
555,121.44616396666666,121.71539475833333,69.0,87.0
556,121.67693321666667,121.72308706666666,52.0,58.0
557,121.44616396666666,121.72693322083333,61.0,84.0
558,121.44616396666666,121.73654860625,64.0,83.0
559,120.52308696666667,121.75193322291666,45.0,74.0
560,121.90770246666666,121.95193323958333,52.0,67.0
561,122.13847171666667,122.66731791458334,52.0,90.0
562,122.13847171666667,122.89424101041666,69.0,89.0
563,122.13847171666667,122.90001024166666,64.0,75.0
564,122.13847171666667,122.90577947291666,57.0,94.0
565,122.13847171666667,122.92885639791666,61.0,79.0
566,123.06154871666666,123.14039487708334,57.0,69.0
567,122.83077946666667,123.31924104583334,52.0,76.0
568,122.13847171666667,123.50962567708333,45.0,81.0
569,123.52308721666667,123.64424107291667,52.0,59.0
570,123.29231796666667,123.83847185833334,57.0,90.0
571,123.29231796666667,123.83847185833334,69.0,90.0
572,123.29231796666667,123.87885647708333,64.0,76.0
573,123.29231796666667,123.91347186458333,61.0,85.0
574,123.75385646666666,123.94231802083333,44.0,84.0
575,124.21539496666666,124.65770269583334,66.0,89.0
576,124.21539496666666,124.66539500416667,61.0,87.0
577,124.21539496666666,124.67885654375,57.0,90.0
578,124.90770271666666,125.20193351041667,54.0,56.0
579,125.13847196666667,125.36154890833333,66.0,105.0
580,125.13847196666667,125.37308737083333,57.0,104.0
581,125.13847196666667,125.37501044791667,61.0,94.0
582,125.36924121666667,125.51347199791667,54.0,29.0
583,125.60001046666666,125.64808739375,57.0,71.0
584,125.60001046666666,125.65193354791667,61.0,67.0
585,124.21539496666666,125.65577970208334,42.0,83.0
586,125.60001046666666,125.65577970208334,68.0,82.0
587,125.83077971666667,126.25962590625,57.0,90.0
588,125.83077971666667,126.2653951375,69.0,92.0
589,125.83077971666667,126.28270283125,61.0,83.0
590,126.29231821666667,126.58462593333333,54.0,80.0
591,126.52308746666667,126.70770286666666,66.0,94.0
592,126.52308746666667,126.72501056041666,57.0,94.0
593,126.52308746666667,126.73654902291666,61.0,80.0
594,126.75385671666666,127.08077982083333,54.0,81.0
595,126.98462596666667,127.21924137083333,57.0,106.0
596,126.06154896666666,127.23654906458333,42.0,79.0
597,126.98462596666667,127.24616445,61.0,90.0
598,126.98462596666667,127.25001060416666,68.0,111.0
599,127.44616446666667,127.49039523958334,57.0,79.0
600,127.44616446666667,127.49616447083334,61.0,79.0
601,127.44616446666667,127.55962601458333,69.0,93.0
602,127.21539521666666,127.57116447708333,54.0,62.0
603,127.67693371666667,127.72116448958333,42.0,75.0
604,127.90770296666666,128.42885685625,50.0,63.0
605,127.90770296666666,128.4346260875,69.0,79.0
606,127.90770296666666,128.44808762708334,66.0,83.0
607,127.90770296666666,128.45577993541667,62.0,76.0
608,127.90770296666666,128.47116455208334,57.0,85.0
609,128.60001071666667,128.9423184375,50.0,53.0
610,128.83077996666665,129.15962614791667,69.0,89.0
611,128.83077996666665,129.161549225,57.0,99.0
612,128.83077996666665,129.18077999583332,62.0,85.0
613,128.83077996666665,129.18077999583332,66.0,87.0
614,127.90770296666666,129.31924154583334,38.0,67.0
615,129.29231846666667,129.36154924166667,50.0,41.0
616,129.52308771666668,129.85001082083332,57.0,91.0
617,129.52308771666668,129.86731851458333,62.0,75.0
618,129.52308771666668,129.86731851458333,66.0,89.0
619,129.52308771666668,130.04231852916666,50.0,75.0
620,129.98462621666667,130.37501086458334,57.0,77.0
621,129.98462621666667,130.3961647125,62.0,68.0
622,129.98462621666667,130.40385702083333,66.0,73.0
623,130.44616471666666,130.74808781875,50.0,67.0
624,130.67693396666667,130.9500109125,57.0,104.0
625,130.67693396666667,130.96539552916667,69.0,100.0
626,130.67693396666667,130.96731860625,66.0,92.0
627,129.52308771666668,130.97116476041666,38.0,85.0
628,130.67693396666667,130.99231860833333,62.0,90.0
629,131.13847246666666,131.2615494,38.0,102.0
630,131.13847246666666,131.27885709375,57.0,97.0
631,131.13847246666666,131.28847247916667,66.0,99.0
632,131.13847246666666,131.2961647875,62.0,79.0
633,130.90770321666668,131.29808786458332,50.0,81.0
634,131.13847246666666,131.29808786458332,69.0,93.0
635,131.60001096666667,132.000011,43.0,99.0
636,131.60001096666667,132.000011,55.0,117.0
637,131.60001096666667,132.000011,59.0,102.0
638,131.60001096666667,132.000011,62.0,102.0
639,132.06154946666666,132.52501104375,50.0,51.0
640,132.52308796666668,132.59808797291666,55.0,72.0
641,132.52308796666668,132.60385720416667,59.0,77.0
642,132.52308796666668,132.61924182083334,62.0,89.0
643,132.98462646666667,134.18462656666668,55.0,112.0
644,132.98462646666667,134.21347272291666,62.0,100.0
645,132.98462646666667,134.2153958,59.0,100.0
646,132.98462646666667,134.45385735833332,50.0,93.0
647,134.36924196666666,134.64424198958332,55.0,112.0
648,134.36924196666666,134.72308815,62.0,107.0
649,134.36924196666666,134.72501122708334,59.0,107.0
650,132.98462646666667,134.9653958625,43.0,77.0
651,134.60001121666667,134.96731893958332,50.0,97.0
652,134.83078046666665,135.05001125416666,55.0,100.0
653,134.83078046666665,135.05001125416666,59.0,97.0
654,134.83078046666665,135.05001125416666,62.0,97.0
655,135.75385746666666,136.04616518333333,53.0,112.0
656,135.75385746666666,136.06539595416666,60.0,93.0
657,135.75385746666666,136.07693441666666,65.0,97.0
658,135.75385746666666,136.07693441666666,69.0,93.0
659,136.21539596666668,136.75962678125,69.0,97.0
660,136.21539596666668,136.93270371875,60.0,99.0
661,136.21539596666668,136.99039603125,53.0,117.0
662,136.21539596666668,137.04039603541668,65.0,100.0
663,137.13847296666665,138.01924227083333,71.0,107.0
664,137.13847296666665,138.02693457916666,62.0,102.0
665,137.13847296666665,138.02885765625,67.0,112.0
666,138.06154996666666,138.73655002291667,62.0,66.0
667,138.06154996666666,138.7500115625,71.0,72.0
668,138.06154996666666,138.76924233333332,67.0,70.0
669,138.52308846666668,138.80385772083332,55.0,22.0
670,137.60001146666667,138.9346269625,50.0,56.0
671,137.13847296666665,138.98462696666667,43.0,90.0
672,138.98462696666667,139.56539624583334,64.0,96.0
673,138.98462696666667,139.61347317291666,60.0,102.0
674,139.44616546666666,140.17693475833335,43.0,62.0
675,139.90770396666667,140.33655015625,48.0,82.0
676,138.98462696666667,140.54808863541666,36.0,92.0
677,139.90770396666667,140.561550175,60.0,100.0
678,139.90770396666667,140.63270402708332,64.0,96.0
679,140.83078096666668,141.55770410416667,64.0,92.0
680,140.83078096666668,141.56731948958333,60.0,95.0
681,140.36924246666666,141.57885795208333,55.0,89.0
682,140.83078096666668,141.83655028125,36.0,65.0
683,141.29231946666667,141.86155028333334,43.0,56.0
684,141.75385796666666,141.94231952083334,48.0,59.0
685,141.75385796666666,142.2577041625,60.0,99.0
686,141.75385796666666,142.47885802708333,64.0,95.0
687,142.21539646666668,142.71539650833333,59.0,97.0
688,142.67693496666666,143.42885810625,60.0,85.0
689,142.67693496666666,143.42885810625,64.0,89.0
690,143.60001196666667,144.12308893333332,60.0,107.0
691,142.67693496666666,144.15962739791667,45.0,79.0
692,143.60001196666667,144.18847355416668,64.0,93.0
693,144.06155046666666,144.43462742083332,57.0,93.0
694,143.13847346666665,144.52116588958333,52.0,67.0
695,144.52308896666668,145.08655055208334,57.0,89.0
696,144.52308896666668,145.16924286666668,64.0,82.0
697,144.52308896666668,145.24039671875,60.0,88.0
698,144.98462746666667,145.54039674375,52.0,55.0
699,144.52308896666668,145.60578136458332,45.0,69.0
700,145.44616596666665,145.9038583125,60.0,102.0
701,145.44616596666665,145.90962754375,64.0,99.0
702,145.90770446666667,146.4000122,55.0,100.0
703,146.36924296666666,147.14424303125,57.0,93.0
704,146.36924296666666,147.15193533958333,60.0,88.0
705,146.83078146666668,147.41155074583332,48.0,63.0
706,146.36924296666666,147.484627675,41.0,78.0
707,147.29231996666667,147.80193539375,57.0,102.0
708,147.29231996666667,147.81347385625,60.0,102.0
709,147.75385846666666,148.17308927083334,53.0,85.0
710,148.21539696666667,149.00385857083333,59.0,92.0
711,148.21539696666667,149.00578164791668,55.0,95.0
712,148.67693546666666,149.31732013541668,47.0,55.0
713,148.21539696666667,149.40385860416666,40.0,86.0
714,149.13847396666665,149.59039708125,52.0,93.0
715,149.13847396666665,149.62693554583333,55.0,97.0
716,149.13847396666665,149.62693554583333,59.0,95.0
717,149.60001246666667,149.9884740375,40.0,72.0
718,150.06155096666666,150.08847404583332,62.0,95.0
719,150.06155096666666,150.08847404583332,62.0,99.0
720,150.06155096666666,150.09039712291667,65.0,86.0
721,150.06155096666666,150.09039712291667,65.0,96.0
722,150.06155096666666,150.0923202,57.0,93.0
723,150.06155096666666,150.0923202,57.0,95.0
724,150.06155096666666,150.09808943125,38.0,74.0
725,150.06155096666666,150.09808943125,38.0,85.0
726,150.52308946666668,151.18462798333334,45.0,54.0
727,150.98462796666666,151.34808953541668,50.0,72.0
728,150.98462796666666,151.45193569791667,65.0,93.0
729,150.98462796666666,151.48462800833335,62.0,100.0
730,151.44616646666665,151.87116650208333,57.0,99.0
731,151.90770496666667,152.67116656875,62.0,88.0
732,151.90770496666667,152.68078195416666,59.0,97.0
733,152.36924346666666,152.90001274166667,50.0,77.0
734,152.83078196666668,153.34424354791668,59.0,100.0
735,153.06155121666666,153.63270511041668,50.0,83.0
736,151.90770496666667,153.64424357291668,43.0,83.0
737,153.29232046666667,153.8653974375,55.0,112.0
738,153.52308971666668,153.86732051458333,59.0,100.0
739,152.83078196666668,153.88462820833334,62.0,99.0
740,153.75385896666666,154.223089775,67.0,92.0
741,153.75385896666666,154.28270516458332,48.0,81.0
742,153.75385896666666,154.29232055,64.0,89.0
743,154.21539746666667,154.31924362916666,55.0,64.0
744,153.75385896666666,154.32116670625,60.0,92.0
745,154.67693596666666,155.18270523958333,64.0,97.0
746,154.67693596666666,155.20962831875,67.0,96.0
747,155.13847446666668,155.47501295625,60.0,75.0
748,155.60001296666667,155.86924375833334,60.0,93.0
749,155.60001296666667,155.87501298958333,48.0,58.0
750,155.60001296666667,156.13847455,64.0,92.0
751,155.60001296666667,156.15770532083334,67.0,92.0
752,156.06155146666666,156.5884745875,60.0,69.0
753,156.52308996666667,157.00962846875,64.0,96.0
754,156.52308996666667,157.01924385416666,67.0,96.0
755,156.98462846666666,157.36924388333333,60.0,83.0
756,157.44616696666665,157.94424393124999,60.0,93.0
757,157.44616696666665,157.97501316458334,64.0,93.0
758,157.90770546666667,158.45385935833335,57.0,79.0
759,157.90770546666667,158.59039783125,52.0,57.0
760,158.36924396666666,158.91155170416667,60.0,93.0
761,158.36924396666666,158.95770555416667,64.0,82.0
762,158.83078246666668,159.34232097083333,57.0,66.0
763,158.83078246666668,159.42501328541667,52.0,52.0
764,159.29232096666667,159.89809024791666,60.0,95.0
765,159.29232096666667,160.06732103125,64.0,95.0
766,159.75385946666665,160.2346287375,52.0,52.0
767,157.44616696666665,160.26732104791665,45.0,78.0
768,159.75385946666665,160.28462874166667,57.0,54.0
769,160.21539796666667,160.66347492708334,64.0,93.0
770,160.21539796666667,160.73655185625,60.0,99.0
771,160.67693646666666,161.06347496041667,57.0,88.0
772,161.13847496666668,161.68270578125,65.0,93.0
773,161.13847496666668,161.70578270625,60.0,92.0
774,161.13847496666668,161.9423211875,57.0,81.0
775,162.06155196666666,162.52693662083334,60.0,96.0
776,161.60001346666667,162.53462892916667,48.0,51.0
777,162.06155196666666,162.56347508541666,65.0,96.0
778,161.13847496666668,162.5884750875,41.0,73.0
779,162.52309046666667,162.60001355,57.0,75.0
780,162.98462896666666,163.65385979166666,67.0,95.0
781,162.98462896666666,163.66732133125,64.0,96.0
782,162.98462896666666,163.68078287083333,59.0,97.0
783,163.44616746666668,164.12501367708333,47.0,59.0
784,163.90770596666667,164.38078292916666,64.0,97.0
785,163.90770596666667,164.38270600625,59.0,89.0
786,163.90770596666667,164.40385985416665,67.0,97.0
787,164.36924446666666,164.69039833958334,47.0,39.0
788,162.98462896666666,164.700013725,40.0,77.0
789,164.83078296666667,165.31539839166666,69.0,95.0
790,164.83078296666667,165.52885994791666,62.0,99.0
791,164.83078296666667,165.59616764583333,65.0,93.0
792,164.83078296666667,165.669244575,38.0,85.0
793,165.75385996666665,166.20386000416667,71.0,107.0
794,165.75385996666665,166.26732154791665,67.0,107.0
795,165.75385996666665,166.48655233541666,62.0,99.0
796,165.75385996666665,166.71347543125,43.0,83.0
797,166.67693696666666,167.43270626041667,64.0,93.0
798,166.67693696666666,167.44232164583335,60.0,93.0
799,166.67693696666666,167.48655241875,55.0,96.0
800,166.67693696666666,168.53270635208332,48.0,79.0
801,167.60001396666667,168.59039866458332,60.0,107.0
802,168.06155246666665,168.60770635833333,55.0,97.0
803,167.60001396666667,168.6115525125,64.0,95.0
804,168.52309096666667,168.6115525125,64.0,85.0
805,168.52309096666667,169.30770641666666,67.0,81.0
806,168.52309096666667,169.35578334375,59.0,79.0
807,168.52309096666667,169.78270645625,40.0,70.0
808,168.98462946666666,169.8115526125,47.0,45.0
809,169.44616796666668,169.89616800416667,64.0,88.0
810,169.44616796666668,169.89809108125,67.0,89.0
811,169.44616796666668,170.00386032083333,59.0,66.0
812,170.36924496666666,170.89232193333333,60.0,88.0
813,170.36924496666666,171.04809117708334,64.0,86.0
814,170.36924496666666,171.19424503541666,57.0,90.0
815,170.83078346666667,171.40001428333332,52.0,48.0
816,170.36924496666666,171.46347582708333,45.0,72.0
817,171.29232196666666,171.4961681375,59.0,122.0
818,171.52309121666667,171.80962970208333,60.0,95.0
819,171.75386046666665,171.93078355833333,59.0,88.0
820,172.21539896666667,172.95193748958334,52.0,102.0
821,172.67693746666666,173.06732211458333,47.0,49.0
822,172.21539896666667,173.09809134791666,55.0,89.0
823,172.21539896666667,173.12309135,40.0,75.0
824,172.21539896666667,173.12501442708333,59.0,86.0
825,174.06155296666665,174.50962992708332,60.0,93.0
826,174.06155296666665,174.52309146666667,64.0,88.0
827,174.52309146666667,175.03078381666666,52.0,53.0
828,174.06155296666665,175.12116843958333,45.0,89.0
829,174.98462996666666,175.24424537291665,59.0,127.0
830,175.21539921666667,175.4653992375,60.0,54.0
831,175.90770696666667,176.71539934166665,53.0,96.0
832,175.90770696666667,176.75001472916668,57.0,95.0
833,175.90770696666667,177.2423224625,38.0,78.0
834,176.36924546666665,177.27693785,45.0,54.0
835,176.83078396666667,177.29809169791668,57.0,56.0
836,176.83078396666667,177.30963016041667,53.0,72.0
837,177.75386096666668,178.55578411041665,59.0,83.0
838,177.75386096666668,178.684630275,52.0,88.0
839,178.67693796666666,178.76732258958333,55.0,93.0
840,178.67693796666666,178.79232259166668,59.0,83.0
841,178.21539946666667,178.80578413125,47.0,45.0
842,177.75386096666668,178.81924567083334,40.0,76.0
843,180.52309196666667,181.01732277708334,59.0,100.0
844,180.06155346666665,181.25963048958334,52.0,69.0
845,180.98463046666666,181.34809203541667,60.0,92.0
846,181.44616896666668,182.20578441458332,57.0,85.0
847,181.44616896666668,182.23078441666667,64.0,72.0
848,181.44616896666668,182.24232287916666,60.0,76.0
849,181.44616896666668,182.44424597291666,52.0,51.0
850,182.60001521666666,182.69809214791667,52.0,89.0
851,179.60001496666666,182.700015225,45.0,88.0
852,182.36924596666665,182.76539984583334,64.0,122.0
853,182.36924596666665,182.77116907708333,60.0,122.0
854,182.83078446666667,182.88847677916667,59.0,86.0
855,183.29232296666666,183.39424605208333,38.0,76.0
856,183.29232296666666,183.9807845625,62.0,102.0
857,183.29232296666666,184.02501533541667,65.0,97.0
858,183.29232296666666,184.02501533541667,69.0,99.0
859,184.21539996666667,184.4192461375,57.0,65.0
860,183.75386146666668,184.500015375,50.0,55.0
861,184.21539996666667,184.59809230625,69.0,82.0
862,184.21539996666667,184.79232309166667,62.0,76.0
863,184.21539996666667,185.01540003333332,65.0,85.0
864,185.13847696666667,185.57886161875,67.0,95.0
865,185.13847696666667,185.67886162708334,71.0,93.0
866,185.13847696666667,185.78463086666667,64.0,85.0
867,185.13847696666667,186.31347706458334,40.0,82.0
868,185.60001546666666,186.39616937916668,47.0,54.0
869,186.06155396666668,186.54809246874999,71.0,122.0
870,186.52309246666667,186.61732324375,64.0,75.0
871,186.06155396666668,186.86732326458332,52.0,55.0
872,186.98463096666666,187.71155410416665,57.0,88.0
873,186.98463096666666,187.71540025833332,64.0,92.0
874,186.98463096666666,187.7423233375,60.0,89.0
875,187.44616946666667,188.100015675,52.0,58.0
876,187.90770796666666,188.45386185833334,60.0,97.0
877,187.90770796666666,188.50770801666667,64.0,92.0
878,188.60001571666666,188.6654003375,64.0,24.0
879,188.36924646666665,188.71347726458333,52.0,47.0
880,188.83078496666667,188.87501573958332,69.0,49.0
881,188.83078496666667,190.21924662083333,60.0,85.0
882,186.98463096666666,190.29809278125,45.0,72.0
883,188.83078496666667,190.36540047916665,57.0,90.0
884,188.83078496666667,190.37501586458333,52.0,67.0
885,188.83078496666667,190.4423235625,64.0,69.0
886,190.67693896666665,191.36924671666665,57.0,102.0
887,190.67693896666665,191.39809287291666,64.0,102.0
888,190.67693896666665,191.43078518333334,61.0,127.0
889,191.13847746666667,191.60963135208334,52.0,57.0
890,191.83078521666667,191.976939075,52.0,78.0
891,190.67693896666665,192.0807852375,45.0,102.0
892,191.60001596666666,192.09040062291666,61.0,127.0
893,191.60001596666666,192.14232370416667,64.0,127.0
894,192.06155446666668,192.4269391125,57.0,102.0
895,192.52309296666667,192.92693915416666,57.0,117.0
896,192.52309296666667,192.93655453958334,62.0,127.0
897,192.52309296666667,192.98270838958334,66.0,127.0
898,193.44616996666667,193.58847767083333,57.0,34.0
899,192.52309296666667,193.75193922291666,38.0,95.0
900,193.44616996666667,193.78655461041666,62.0,90.0
901,193.44616996666667,193.89232385,66.0,127.0
902,193.44616996666667,193.89617000416666,69.0,112.0
903,192.98463146666666,193.91732385208334,50.0,47.0
904,193.44616996666667,193.91924692916666,54.0,48.0
905,193.90770846666666,193.97693924166666,57.0,55.0
906,194.36924696666668,194.90386239583333,57.0,107.0
907,194.36924696666668,194.91540085833333,61.0,127.0
908,194.36924696666668,195.04040086875,64.0,97.0
909,195.06155471666668,195.10193933541666,61.0,25.0
910,194.83078546666667,195.34424704791667,52.0,52.0
911,194.36924696666668,195.58463168333333,33.0,81.0
912,194.36924696666668,195.58463168333333,45.0,81.0
913,195.52309321666667,195.62117014791667,52.0,82.0
914,195.29232396666666,195.75578554375,61.0,127.0
915,195.29232396666666,195.76732400625,64.0,102.0
916,195.75386246666667,195.81347785625,57.0,102.0
917,196.21540096666666,196.58463176666666,59.0,107.0
918,196.21540096666666,196.65193946458334,64.0,97.0
919,196.21540096666666,196.66924715833332,67.0,100.0
920,197.13847796666667,197.55963184791668,67.0,102.0
921,197.13847796666667,197.56732415625,71.0,107.0
922,197.13847796666667,197.6423241625,55.0,72.0
923,196.67693946666665,197.67886262708333,52.0,69.0
924,197.60001646666666,197.70386262916668,59.0,86.0
925,196.21540096666666,197.79040109791666,40.0,79.0
926,196.21540096666666,197.81924725416667,28.0,79.0
927,198.06155496666668,198.54040116041668,59.0,99.0
928,198.06155496666668,198.5884780875,62.0,97.0
929,198.06155496666668,198.7269396375,66.0,93.0
930,198.75386271666667,198.89424734375,59.0,97.0
931,198.52309346666667,199.07501658958333,54.0,90.0
932,198.98463196666665,199.27693968333332,62.0,107.0
933,199.21540121666666,199.34809353541667,54.0,96.0
934,198.06155496666668,199.36732430625,35.0,77.0
935,198.06155496666668,199.36732430625,47.0,77.0
936,199.44617046666667,199.8346320375,57.0,102.0
937,199.90770896666666,200.65001672083332,59.0,99.0
938,199.90770896666666,200.65001672083332,62.0,99.0
939,199.90770896666666,200.84232442916667,31.0,95.0
940,199.90770896666666,200.84232442916667,43.0,95.0
941,200.36924746666668,200.8615552,50.0,53.0
942,200.83078596666667,201.31924754583332,59.0,97.0
943,200.83078596666667,201.34232447083332,62.0,100.0
944,201.29232446666666,201.40193986041666,55.0,93.0
945,201.75386296666667,202.49040148958332,57.0,97.0
946,201.75386296666667,202.50193995208332,66.0,95.0
947,201.75386296666667,202.5115553375,61.0,100.0
948,202.21540146666666,202.7423245875,54.0,78.0
949,202.90770921666666,203.01155537916665,54.0,100.0
950,201.75386296666667,203.05963230625,30.0,100.0
951,201.75386296666667,203.05963230625,42.0,100.0
952,202.67693996666665,203.14809385208332,66.0,122.0
953,202.67693996666665,203.16347846875,61.0,117.0
954,203.13847846666667,203.24809386041667,57.0,99.0
955,203.60001696666666,204.27886317708334,59.0,107.0
956,203.60001696666666,204.30386317916665,67.0,97.0
957,203.60001696666666,204.3115554875,64.0,100.0
958,204.06155546666668,204.64040166875,35.0,59.0
959,204.06155546666668,204.64040166875,47.0,59.0
960,203.60001696666666,204.67117090208333,28.0,85.0
961,203.60001696666666,204.67117090208333,40.0,85.0
962,204.52309396666666,204.98655554375,64.0,127.0
963,204.52309396666666,204.99617092916665,67.0,122.0
964,204.98463246666665,205.12501709375,59.0,96.0
965,205.44617096666667,205.50578635624998,57.0,71.0
966,205.44617096666667,205.61155559583332,61.0,122.0
967,205.44617096666667,205.64040175208333,64.0,100.0
968,206.13847871666667,206.34424796458333,69.0,100.0
969,206.36924796666668,206.69424799375,73.0,127.0
970,205.90770946666666,206.78655569375,57.0,100.0
971,206.60001721666666,206.81732492708332,71.0,97.0
972,205.67694021666668,206.82117108125,52.0,112.0
973,205.44617096666667,206.83463262083333,33.0,96.0
974,205.44617096666667,206.83463262083333,45.0,96.0
975,206.83078646666667,206.884632625,69.0,102.0
976,207.29232496666665,207.85578655208334,66.0,112.0
977,207.29232496666665,207.90386347916666,62.0,99.0
978,207.29232496666665,207.95194040625,69.0,96.0
979,207.75386346666667,208.31732505208333,57.0,86.0
980,207.29232496666665,208.56155584166666,38.0,89.0
981,207.29232496666665,208.56155584166666,50.0,89.0
982,208.44617121666667,208.56924815,57.0,95.0
983,208.21540196666666,208.63655584791667,66.0,127.0
984,208.21540196666666,208.6500173875,69.0,99.0
985,208.67694046666668,209.00194049375,64.0,99.0
986,209.13847896666667,209.24232512916666,64.0,81.0
987,209.13847896666667,209.28655590208334,69.0,99.0
988,209.13847896666667,209.36924821666668,73.0,112.0
989,209.83078671666667,209.99809442291667,69.0,100.0
990,209.60001746666666,210.12309443333334,57.0,100.0
991,209.36924821666668,210.42117138125,52.0,99.0
992,209.13847896666667,210.46540215416667,33.0,89.0
993,209.13847896666667,210.46540215416667,45.0,89.0
994,210.29232521666665,210.5192483125,73.0,112.0
995,210.06155596666667,210.52117138958334,76.0,117.0
996,210.52309446666666,210.63655601458333,69.0,112.0
997,210.98463296666665,211.53847916666666,66.0,102.0
998,210.98463296666665,211.74424841458332,73.0,127.0
999,210.98463296666665,211.76924841666667,70.0,127.0
1000,211.90770996666666,211.93078689166666,70.0,99.0
1001,211.44617146666667,211.93655612291667,54.0,82.0
1002,210.98463296666665,212.23078691666666,30.0,112.0
1003,210.98463296666665,212.23078691666666,42.0,112.0
1004,212.13847921666667,212.35001769583334,54.0,97.0
1005,211.90770996666666,212.35578692708333,73.0,127.0
1006,212.36924846666668,212.43271001041666,70.0,127.0
1007,213.52309471666666,213.61347933958334,61.0,117.0
1008,213.75386396666667,213.92309475,62.0,100.0
1009,213.29232546666665,214.10001784166667,59.0,99.0
1010,213.06155621666667,214.1884793875,54.0,93.0
1011,213.98463321666665,214.19424861875,66.0,127.0
1012,212.83078696666666,214.26347939375,35.0,95.0
1013,212.83078696666666,214.26347939375,47.0,95.0
1014,214.21540246666666,214.32117170625,62.0,96.0
1015,214.67694096666668,215.36732563958333,62.0,100.0
1016,214.67694096666668,215.38271025625,67.0,92.0
1017,214.67694096666668,215.40771025833334,71.0,93.0
1018,215.60001796666666,215.73078720833334,67.0,112.0
1019,215.60001796666666,215.95963338125,55.0,100.0
1020,214.67694096666668,215.9884795375,31.0,79.0
1021,214.67694096666668,215.9884795375,43.0,79.0
1022,215.13847946666667,215.9884795375,50.0,82.0
1023,216.06155646666667,216.15771032083333,69.0,117.0
1024,216.52309496666666,217.12501809375,73.0,127.0
1025,216.52309496666666,217.2000181,66.0,96.0
1026,216.52309496666666,217.23078733333332,69.0,93.0
1027,216.98463346666668,217.56155659166666,54.0,89.0
1028,216.52309496666666,217.74617199166667,30.0,99.0
1029,216.52309496666666,217.74617199166667,42.0,99.0
1030,217.67694121666668,217.80578738124998,54.0,88.0
1031,217.44617196666667,217.9269412375,69.0,112.0
1032,217.44617196666667,217.96347970208333,73.0,127.0
1033,217.90771046666666,217.9961720125,66.0,107.0
1034,218.36924896666667,218.80578746458332,52.0,74.0
1035,218.36924896666667,218.884633625,71.0,97.0
1036,218.83078746666666,218.89424901041667,59.0,53.0
1037,218.36924896666667,219.10194133541665,64.0,99.0
1038,218.36924896666667,219.10963364375,67.0,99.0
1039,219.29232596666665,219.64809522708333,33.0,93.0
1040,219.29232596666665,219.64809522708333,45.0,93.0
1041,219.29232596666665,219.73655677291666,73.0,127.0
1042,219.29232596666665,219.74232600416667,69.0,122.0
1043,219.29232596666665,219.7846337,64.0,99.0
1044,220.21540296666666,220.53847991666666,74.0,99.0
1045,220.21540296666666,220.54424914791667,70.0,112.0
1046,220.21540296666666,220.55963376458334,65.0,97.0
1047,220.21540296666666,221.00963380208333,34.0,117.0
1048,220.21540296666666,221.00963380208333,46.0,117.0
1049,220.67694146666668,221.01732611041666,70.0,95.0
1050,220.67694146666668,221.0192491875,74.0,93.0
1051,220.67694146666668,221.02694149583334,65.0,72.0
1052,220.67694146666668,221.05194149791666,58.0,74.0
1053,221.13847996666667,221.41540306666667,34.0,107.0
1054,221.13847996666667,221.41540306666667,46.0,107.0
1055,221.13847996666667,221.42694152916667,58.0,78.0
1056,221.13847996666667,221.43078768333334,74.0,112.0
1057,221.13847996666667,221.4346338375,65.0,107.0
1058,221.13847996666667,221.4346338375,70.0,127.0
1059,221.60001846666665,221.70194155208333,70.0,127.0
1060,221.60001846666665,221.70386462916667,34.0,107.0
1061,221.60001846666665,221.70386462916667,46.0,107.0
1062,221.60001846666665,221.70771078333334,58.0,100.0
1063,221.60001846666665,221.70771078333334,65.0,99.0
1064,221.60001846666665,221.70963386041666,74.0,107.0
1065,221.83078771666666,222.09617235416667,58.0,95.0
1066,222.06155696666667,222.09617235416667,58.0,117.0
1067,221.83078771666666,222.1038646625,70.0,122.0
1068,221.83078771666666,222.11155697083333,34.0,90.0
1069,221.83078771666666,222.11155697083333,46.0,90.0
1070,221.83078771666666,222.13848005,74.0,93.0
1071,221.83078771666666,222.15194158958334,65.0,95.0
1072,222.06155696666667,222.47501853958335,63.0,127.0
1073,222.06155696666667,222.52117238958334,67.0,127.0
1074,222.06155696666667,222.80386472083333,27.0,95.0
1075,222.06155696666667,222.80386472083333,39.0,95.0
1076,222.98463396666668,223.12694167083333,58.0,34.0
1077,222.98463396666668,223.32501861041666,63.0,90.0
1078,222.98463396666668,223.43078785,67.0,127.0
1079,222.98463396666668,223.43463400416667,70.0,112.0
1080,222.52309546666666,223.45578785208332,51.0,47.0
1081,222.98463396666668,223.45771092916667,55.0,48.0
1082,223.44617246666667,223.51540324166666,58.0,55.0
1083,223.90771096666666,224.44232639583333,58.0,107.0
1084,223.90771096666666,224.45386485833333,62.0,127.0
1085,223.90771096666666,224.57886486875,65.0,97.0
1086,224.60001871666665,224.64040333541666,62.0,25.0
1087,224.36924946666667,224.88271104791667,53.0,52.0
1088,223.90771096666666,225.12309568333333,34.0,81.0
1089,223.90771096666666,225.12309568333333,46.0,81.0
1090,225.06155721666667,225.15963414791668,53.0,82.0
1091,224.83078796666666,225.29424954375,62.0,127.0
1092,224.83078796666666,225.30578800625,65.0,102.0
1093,225.29232646666665,225.35194185625,58.0,102.0
1094,225.75386496666667,226.12309576666667,60.0,107.0
1095,225.75386496666667,226.19040346458334,65.0,97.0
1096,225.75386496666667,226.20771115833332,68.0,100.0
1097,225.75386496666667,226.50578810625,29.0,79.0
1098,225.75386496666667,226.50578810625,41.0,79.0
1099,226.67694196666667,227.09809584791665,68.0,102.0
1100,226.67694196666667,227.10578815625,72.0,107.0
1101,226.67694196666667,227.1807881625,56.0,72.0
1102,226.21540346666666,227.21732662708334,53.0,69.0
1103,227.13848046666666,227.24232662916666,60.0,86.0
1104,227.60001896666665,228.07886516041665,60.0,99.0
1105,227.60001896666665,228.1269420875,63.0,97.0
1106,227.60001896666665,228.2654036375,67.0,93.0
1107,228.29232671666668,228.43271134375,60.0,97.0
1108,228.06155746666667,228.61348058958333,55.0,90.0
1109,228.52309596666666,228.81540368333333,63.0,107.0
1110,228.75386521666667,228.88655753541667,55.0,96.0
1111,227.60001896666665,228.90578830625,36.0,77.0
1112,227.60001896666665,228.90578830625,48.0,77.0
1113,228.98463446666668,229.3730960375,58.0,102.0
1114,229.44617296666667,230.18848072083333,60.0,99.0
1115,229.44617296666667,230.18848072083333,63.0,99.0
1116,229.44617296666667,230.38078842916667,32.0,95.0
1117,229.44617296666667,230.38078842916667,44.0,95.0
1118,229.90771146666665,230.4000192,51.0,53.0
1119,230.36924996666667,230.85771154583333,60.0,97.0
1120,230.36924996666667,230.88078847083332,63.0,100.0
1121,230.83078846666666,230.94040386041667,56.0,93.0
1122,231.29232696666668,232.02886548958332,58.0,97.0
1123,231.29232696666668,232.04040395208332,67.0,95.0
1124,231.29232696666668,232.0500193375,62.0,100.0
1125,231.75386546666667,232.2807885875,55.0,78.0
1126,232.44617321666666,232.55001937916666,55.0,100.0
1127,231.29232696666668,232.59809630625,31.0,100.0
1128,231.29232696666668,232.59809630625,43.0,100.0
1129,232.21540396666666,232.68655785208333,67.0,122.0
1130,232.21540396666666,232.70194246875,62.0,117.0
1131,232.67694246666667,232.78655786041668,58.0,99.0
1132,233.13848096666666,233.81732717708334,60.0,107.0
1133,233.13848096666666,233.84232717916666,68.0,97.0
1134,233.13848096666666,233.8500194875,65.0,100.0
1135,233.60001946666665,234.17886566875,48.0,59.0
1136,233.13848096666666,234.20963490208334,29.0,85.0
1137,233.13848096666666,234.20963490208334,41.0,85.0
1138,234.06155796666667,234.52501954375,65.0,127.0
1139,234.06155796666667,234.53463492916666,68.0,122.0
1140,234.52309646666666,234.66348109375,60.0,96.0
1141,234.98463496666668,235.04425035625,58.0,71.0
1142,234.98463496666668,235.15001959583333,62.0,122.0
1143,234.98463496666668,235.17886575208334,65.0,100.0
1144,235.67694271666667,235.88271196458334,70.0,100.0
1145,235.90771196666665,236.23271199375,74.0,127.0
1146,235.44617346666666,236.32501969375,58.0,100.0
1147,236.13848121666666,236.35578892708332,72.0,97.0
1148,235.21540421666666,236.35963508125,53.0,112.0
1149,234.98463496666668,236.37309662083334,34.0,96.0
1150,234.98463496666668,236.37309662083334,46.0,96.0
1151,236.36925046666667,236.423096625,70.0,102.0
1152,236.83078896666666,237.39425055208332,67.0,112.0
1153,236.83078896666666,237.44232747916666,63.0,99.0
1154,236.83078896666666,237.49040440625,70.0,96.0
1155,237.29232746666668,237.85578905208334,58.0,86.0
1156,236.83078896666666,238.10001984166666,39.0,89.0
1157,236.83078896666666,238.10001984166666,51.0,89.0
1158,237.98463521666667,238.10771215,58.0,95.0
1159,237.75386596666667,238.17501984791667,67.0,127.0
1160,237.75386596666667,238.1884813875,70.0,99.0
1161,238.21540446666666,238.54040449375,65.0,99.0
1162,238.67694296666667,238.78078912916666,65.0,81.0
1163,238.67694296666667,238.82501990208334,70.0,99.0
1164,238.67694296666667,238.90771221666665,74.0,112.0
1165,239.36925071666667,239.53655842291667,70.0,100.0
1166,239.13848146666666,239.66155843333334,58.0,100.0
1167,238.90771221666665,239.95963538125,53.0,99.0
1168,238.67694296666667,240.00386615416667,34.0,89.0
1169,238.67694296666667,240.00386615416667,46.0,89.0
1170,239.83078921666666,240.0577123125,74.0,112.0
1171,239.60001996666668,240.05963538958332,77.0,117.0
1172,240.06155846666667,240.17502001458334,70.0,112.0
1173,240.52309696666666,241.07694316666667,67.0,102.0
1174,240.52309696666666,241.28271241458333,74.0,127.0
1175,240.52309696666666,241.30771241666667,71.0,127.0
1176,241.44617396666666,241.46925089166666,71.0,99.0
1177,240.98463546666667,241.47502012291667,55.0,82.0
1178,240.52309696666666,241.76925091666666,31.0,112.0
1179,240.52309696666666,241.76925091666666,43.0,112.0
1180,241.67694321666667,241.88848169583332,55.0,97.0
1181,241.44617396666666,241.89425092708333,74.0,127.0
1182,241.90771246666665,241.97117401041666,71.0,127.0
1183,243.06155871666667,243.15194333958334,62.0,117.0
1184,243.29232796666668,243.46155875,63.0,100.0
1185,242.83078946666666,243.63848184166667,60.0,99.0
1186,242.60002021666668,243.7269433875,55.0,93.0
1187,243.52309721666666,243.73271261874999,67.0,127.0
1188,242.36925096666667,243.80194339375,36.0,95.0
1189,242.36925096666667,243.80194339375,48.0,95.0
1190,243.75386646666666,243.85963570625,63.0,96.0
1191,244.21540496666665,244.90578963958333,63.0,100.0
1192,244.21540496666665,244.92117425625,68.0,92.0
1193,244.21540496666665,244.94617425833334,72.0,93.0
1194,245.13848196666666,245.26925120833334,68.0,112.0
1195,245.13848196666666,245.49809738125,56.0,100.0
1196,244.21540496666665,245.5269435375,32.0,79.0
1197,244.21540496666665,245.5269435375,44.0,79.0
1198,244.67694346666667,245.5269435375,51.0,82.0
1199,245.60002046666668,245.69617432083334,70.0,117.0
1200,246.06155896666667,246.66348209375,74.0,127.0
1201,246.06155896666667,246.7384821,67.0,96.0
1202,246.06155896666667,246.76925133333333,70.0,93.0
1203,246.52309746666666,247.10002059166666,55.0,89.0
1204,246.06155896666667,247.28463599166668,31.0,99.0
1205,246.06155896666667,247.28463599166668,43.0,99.0
1206,247.21540521666665,247.34425138125,55.0,88.0
1207,246.98463596666667,247.4654052375,70.0,112.0
1208,246.98463596666667,247.50194370208334,74.0,127.0
1209,247.44617446666666,247.5346360125,67.0,107.0
1210,247.90771296666668,248.34425146458332,41.0,74.0
1211,247.90771296666668,248.34425146458332,53.0,74.0
1212,247.90771296666668,248.423097625,72.0,97.0
1213,248.36925146666667,248.43271301041668,60.0,53.0
1214,247.90771296666668,248.64040533541666,65.0,99.0
1215,247.90771296666668,248.64809764375,68.0,99.0
1216,248.83078996666666,249.18655922708334,34.0,93.0
1217,248.83078996666666,249.18655922708334,46.0,93.0
1218,248.83078996666666,249.27502077291666,74.0,127.0
1219,248.83078996666666,249.28079000416668,70.0,122.0
1220,248.83078996666666,249.3230977,65.0,99.0
1221,249.75386696666666,250.30194393541666,67.0,95.0
1222,249.75386696666666,250.31348239791666,70.0,99.0
1223,249.75386696666666,250.53079010833332,63.0,95.0
1224,250.21540546666665,250.93079014166668,51.0,48.0
1225,250.67694396666667,251.40002095,67.0,95.0
1226,250.67694396666667,251.4461748,70.0,86.0
1227,250.67694396666667,251.47502095625,63.0,93.0
1228,249.75386696666666,252.75963644791668,27.0,89.0
1229,249.75386696666666,252.75963644791668,39.0,89.0
1230,251.60002096666668,252.7730979875,67.0,93.0
1231,251.60002096666668,252.80386722083333,70.0,85.0
1232,251.60002096666668,252.82502106875,63.0,75.0
1233,251.13848246666666,252.853867225,51.0,38.0
1234,253.44617496666666,253.80771345833332,60.0,70.0
1235,253.44617496666666,253.82117499791667,63.0,82.0
1236,253.90771346666668,254.5846366,56.0,56.0
1237,254.36925196666667,254.75963661458334,68.0,68.0
1238,254.36925196666667,254.79425200208334,60.0,65.0
1239,253.44617496666666,254.81732892708334,32.0,92.0
1240,253.44617496666666,254.81732892708334,44.0,92.0
1241,255.29232896666667,255.43655974791668,55.0,66.0
1242,255.29232896666667,255.44617513333333,58.0,76.0
1243,255.29232896666667,255.48079052083332,62.0,76.0
1244,255.75386746666666,256.33463674583334,50.0,46.0
1245,255.29232896666667,256.4096367520833,31.0,70.0
1246,255.29232896666667,256.4096367520833,43.0,70.0
1247,256.21540596666665,256.56348291875,67.0,79.0
1248,256.21540596666665,256.5654059958333,70.0,90.0
1249,256.90771371666665,257.46540607083335,60.0,50.0
1250,257.1384829666667,257.5192522291667,68.0,58.0
1251,257.1384829666667,257.56732915625,65.0,42.0
1252,258.29232921666664,258.53463692916665,56.0,95.0
1253,258.5230984666667,258.5904061645833,60.0,88.0
1254,257.8307907166667,260.9057909729167,53.0,82.0
1255,257.60002146666665,261.0615602166667,48.0,58.0
1256,259.2154062166667,261.07502175625,72.0,70.0
1257,257.1384829666667,261.0904063729167,29.0,72.0
1258,257.1384829666667,261.0904063729167,41.0,72.0
1259,258.98463696666664,261.1307909916667,68.0,79.0
1260,258.75386771666666,261.161560225,65.0,86.0
1261,260.16925245,261.30194485208335,77.0,64.0
1262,261.253867925,261.9615602916667,63.0,65.0
1263,261.253867925,262.04040645208335,70.0,57.0
1264,261.253867925,262.084637225,67.0,61.0
1265,261.715406425,262.4000218666667,51.0,82.0
1266,262.176944925,262.823098825,63.0,69.0
1267,262.638483425,263.2980988645833,51.0,39.0
1268,263.100021925,263.8173296770833,63.0,58.0
1269,263.792329675,263.8173296770833,63.0,24.0
1270,262.176944925,263.8942527604167,67.0,62.0
1271,264.023098925,264.0730989291667,63.0,35.0
1272,261.253867925,264.64425282291666,27.0,96.0
1273,261.253867925,264.64425282291666,39.0,96.0
1274,263.561560425,265.01540669999997,51.0,45.0
1275,264.484637425,265.7288682979167,63.0,33.0
1276,265.407714425,265.96925293333334,51.0,38.0
1277,265.869252925,266.7269453041667,63.0,72.0
1278,266.330791425,266.83271454375,51.0,38.0
1279,262.176944925,267.10579148958334,70.0,66.0
1280,264.023098925,267.17502226458333,67.0,56.0
1281,266.792329925,267.27502227291666,65.0,56.0
1282,267.253868425,267.59425306875,63.0,74.0
1283,267.02309917499997,267.6346376875,51.0,56.0
1284,267.715406925,268.4788685270833,63.0,59.0
1285,267.946176175,268.4884839125,51.0,58.0
1286,264.946175925,268.5327146854167,27.0,79.0
1287,264.946175925,268.5327146854167,39.0,79.0
1288,268.407714675,268.72502239375,67.0,61.0
1289,268.176945425,268.82886855625,65.0,59.0
1290,268.869253175,269.4500224541667,51.0,44.0
1291,267.484637675,269.4538686083333,70.0,95.0
1292,269.100022425,269.58079169583334,63.0,65.0
1293,269.561560925,269.9230994166667,67.0,65.0
1294,269.330791675,269.95963788125,65.0,59.0
1295,269.561560925,270.0827148145833,70.0,37.0
1296,269.792330175,270.3442532979167,51.0,48.0
1297,270.023099425,270.3615609916667,63.0,74.0
1298,270.253868675,271.3288687645833,70.0,85.0
1299,270.946176425,271.48656108541667,63.0,40.0
1300,270.715407175,271.4884841625,51.0,38.0
1301,271.176945675,271.92309958333334,65.0,48.0
1302,271.407714925,272.10579190625,67.0,62.0
1303,272.100022675,273.0211765979167,63.0,73.0
1304,271.638484175,273.11348429791667,51.0,36.0
1305,268.638483925,273.14233045416665,27.0,63.0
1306,268.638483925,273.14233045416665,39.0,63.0
1307,272.792330425,273.2230996916667,67.0,52.0
1308,272.33079192499997,273.28271508125,65.0,41.0
1309,271.407714925,273.4750227895833,70.0,31.0
1310,273.484638175,274.2711767020833,67.0,57.0
1311,273.484638175,274.3000228583333,70.0,31.0
1312,273.715407425,274.41156132916666,63.0,61.0
1313,273.715407425,274.44040748541664,65.0,68.0
1314,275.100022925,276.5442538145833,55.0,46.0
1315,275.561561425,276.58463843333334,58.0,56.0
1316,276.023099925,276.6115615125,63.0,51.0
1317,276.484638425,276.65002305416664,67.0,39.0
1318,273.715407425,282.2423312125,27.0,89.0
1319,273.715407425,282.2423312125,39.0,89.0
1320,277.407715425,282.26733121458335,87.0,36.0
1321,274.638484425,282.29233121666664,51.0,75.0
1322,277.407715425,282.33079275833336,79.0,29.0
1323,277.407715425,282.3577158375,82.0,31.0
1324,277.407715425,282.43271584375,75.0,34.0
