,start,end,pitch,velocity
0,11.847916666666666,12.129166666666666,74.0,83.0
1,12.097916666666666,12.397916666666667,76.0,83.0
2,12.347916666666666,12.775,78.0,83.0
3,12.847916666666666,13.302083333333334,69.0,83.0
4,13.347916666666666,13.891666666666666,78.0,72.0
5,13.847916666666666,14.341666666666667,69.0,85.0
6,14.347916666666666,14.86875,76.0,83.0
7,14.847916666666666,15.49375,69.0,83.0
8,15.847916666666666,16.108333333333334,71.0,83.0
9,16.097916666666666,16.364583333333332,73.0,71.0
10,16.347916666666666,16.741666666666667,74.0,84.0
11,16.847916666666666,17.279166666666665,66.0,81.0
12,17.347916666666666,17.854166666666668,74.0,90.0
13,17.847916666666666,18.38125,66.0,78.0
14,18.347916666666666,18.879166666666666,73.0,80.0
15,18.847916666666666,19.570833333333333,66.0,75.0
16,19.847916666666666,20.03125,73.0,76.0
17,20.097916666666666,20.327083333333334,73.0,78.0
18,20.347916666666666,20.725,71.0,84.0
19,20.847916666666666,21.0,67.0,76.0
20,21.097916666666666,21.25625,67.0,75.0
21,21.347916666666666,21.514583333333334,67.0,81.0
22,21.597916666666666,21.766666666666666,69.0,83.0
23,21.847916666666666,22.241666666666667,71.0,77.0
24,22.347916666666666,22.81875,69.0,79.0
25,22.847916666666666,23.097916666666666,73.0,84.0
26,23.097916666666666,23.847916666666666,74.0,85.0
27,24.097916666666666,24.327083333333334,71.0,82.0
28,24.347916666666666,24.764583333333334,76.0,84.0
29,24.847916666666666,24.979166666666668,71.0,76.0
30,25.097916666666666,25.24375,71.0,80.0
31,25.347916666666666,25.825,71.0,83.0
32,25.847916666666666,26.208333333333332,78.0,81.0
33,26.347916666666666,26.808333333333334,78.0,83.0
34,26.847916666666666,27.55625,76.0,84.0
35,27.847916666666666,28.072916666666668,74.0,84.0
36,28.097916666666666,28.26875,76.0,83.0
37,28.347916666666666,28.8125,78.0,79.0
38,28.847916666666666,29.28333333333333,81.0,84.0
39,29.347916666666666,29.733333333333334,76.0,79.0
40,29.847916666666666,30.1875,78.0,81.0
41,30.347916666666666,30.7375,76.0,83.0
42,30.847916666666666,31.566666666666666,74.0,85.0
43,31.847916666666666,32.0625,71.0,82.0
44,32.09791666666666,32.24166666666667,73.0,72.0
45,32.34791666666666,32.74791666666667,74.0,84.0
46,32.84791666666666,33.25208333333333,78.0,81.0
47,33.34791666666666,33.72083333333333,73.0,74.0
48,33.84791666666666,34.24166666666667,78.0,84.0
49,34.34791666666666,34.791666666666664,73.0,83.0
50,34.84791666666666,35.45,71.0,84.0
51,35.84791666666666,36.1,71.0,76.0
52,36.09791666666666,36.302083333333336,69.0,82.0
53,36.34791666666666,36.520833333333336,67.0,81.0
54,36.59791666666666,36.770833333333336,67.0,78.0
55,36.84791666666666,37.02916666666667,69.0,83.0
56,37.09791666666666,37.75208333333333,71.0,78.0
57,37.84791666666666,38.239583333333336,67.0,82.0
58,38.34791666666666,38.489583333333336,69.0,83.0
59,38.59791666666666,38.735416666666666,69.0,83.0
60,38.84791666666666,39.02708333333333,73.0,83.0
61,39.09791666666666,39.635416666666664,74.0,85.0
62,39.84791666666666,40.00416666666666,71.0,84.0
63,40.09791666666666,40.2625,74.0,84.0
64,40.34791666666666,40.75416666666666,79.0,80.0
65,40.84791666666666,41.197916666666664,78.0,79.0
66,41.34791666666666,41.725,74.0,84.0
67,41.84791666666666,42.270833333333336,71.0,85.0
68,42.34791666666666,42.7,76.0,83.0
69,42.84791666666666,43.235416666666666,69.0,87.0
70,43.34791666666666,43.72083333333333,81.0,84.0
71,43.84791666666666,44.166666666666664,79.0,82.0
72,44.34791666666666,44.510416666666664,78.0,83.0
73,44.59791666666666,44.74791666666667,78.0,81.0
74,44.84791666666666,44.979166666666664,69.0,85.0
75,45.09791666666666,45.291666666666664,69.0,74.0
76,45.34791666666666,45.6625,78.0,86.0
77,46.09791666666666,46.28541666666666,74.0,83.0
78,46.34791666666666,46.489583333333336,76.0,76.0
79,46.59791666666666,46.764583333333334,76.0,83.0
80,46.84791666666666,47.02916666666667,69.0,83.0
81,47.09791666666666,47.27708333333333,69.0,76.0
82,47.34791666666666,47.958333333333336,76.0,80.0
83,48.09791666666666,48.3125,73.0,78.0
84,48.34791666666666,48.458333333333336,74.0,85.0
85,48.59791666666666,48.73125,74.0,85.0
86,48.84791666666666,49.0,66.0,83.0
87,49.09791666666666,49.22083333333333,66.0,84.0
88,49.34791666666666,49.4625,74.0,86.0
89,49.59791666666666,49.72708333333333,74.0,84.0
90,49.84791666666666,50.010416666666664,76.0,79.0
91,50.09791666666666,50.260416666666664,74.0,85.0
92,50.34791666666666,50.485416666666666,73.0,76.0
93,50.59791666666666,50.766666666666666,73.0,71.0
94,50.84791666666666,50.99375,69.0,78.0
95,51.09791666666666,51.275,69.0,78.0
96,51.34791666666666,51.99583333333333,73.0,84.0
97,52.34791666666666,52.516666666666666,71.0,81.0
98,52.59791666666666,52.795833333333334,71.0,81.0
99,52.84791666666666,53.014583333333334,67.0,83.0
100,53.09791666666666,53.25,67.0,74.0
101,53.34791666666666,53.520833333333336,67.0,78.0
102,53.59791666666666,53.733333333333334,69.0,79.0
103,53.84791666666666,53.99166666666667,71.0,80.0
104,54.09791666666666,54.27916666666667,71.0,81.0
105,54.34791666666666,54.489583333333336,69.0,81.0
106,54.59791666666666,54.72291666666666,69.0,78.0
107,54.84791666666666,54.97083333333333,69.0,79.0
108,55.09791666666666,55.270833333333336,73.0,85.0
109,55.34791666666666,56.020833333333336,74.0,85.0
110,56.09791666666666,56.270833333333336,71.0,85.0
111,56.34791666666666,56.50625,78.0,84.0
112,56.59791666666666,56.760416666666664,79.0,76.0
113,56.84791666666666,56.975,78.0,87.0
114,57.09791666666666,57.25208333333333,74.0,84.0
115,57.34791666666666,57.87083333333333,71.0,84.0
116,58.09791666666666,58.266666666666666,71.0,83.0
117,58.34791666666666,58.52916666666667,78.0,83.0
118,58.59791666666666,58.766666666666666,79.0,73.0
119,58.84791666666666,59.0,78.0,88.0
120,59.09791666666666,59.27708333333333,74.0,85.0
121,59.34791666666666,59.920833333333334,76.0,83.0
122,60.34791666666666,60.479166666666664,78.0,83.0
123,60.59791666666666,60.78125,78.0,84.0
124,60.84791666666666,60.979166666666664,69.0,84.0
125,61.09791666666666,61.302083333333336,69.0,78.0
126,61.34791666666666,61.46458333333333,78.0,84.0
127,61.59791666666666,61.72291666666666,78.0,83.0
128,61.84791666666666,61.99375,79.0,83.0
129,62.09791666666666,62.208333333333336,74.0,81.0
130,62.34791666666666,62.46875,76.0,79.0
131,62.59791666666666,62.708333333333336,76.0,80.0
132,62.84791666666666,62.96458333333333,76.0,83.0
133,63.09791666666666,63.24583333333333,76.0,83.0
134,63.34791666666666,64.04791666666667,81.0,83.0
135,64.34791666666666,64.50208333333333,83.0,82.0
136,64.59791666666666,64.72708333333333,78.0,84.0
137,64.84791666666666,64.96875,78.0,82.0
138,65.09791666666666,65.23541666666667,78.0,84.0
139,65.34791666666666,65.46875,78.0,83.0
140,65.59791666666666,65.71875,78.0,88.0
141,65.84791666666666,65.97708333333333,83.0,84.0
142,66.09791666666666,66.23541666666667,83.0,85.0
143,66.34791666666666,66.45833333333333,81.0,79.0
144,66.59791666666666,66.72083333333333,81.0,79.0
145,66.84791666666666,66.98541666666667,78.0,81.0
146,67.09791666666666,67.225,76.0,83.0
147,67.34791666666666,67.96041666666666,78.0,83.0
148,68.34791666666666,68.50416666666666,74.0,84.0
149,68.59791666666666,68.74583333333334,74.0,84.0
150,68.84791666666666,68.99583333333334,74.0,85.0
151,69.09791666666666,69.23958333333333,74.0,87.0
152,69.34791666666666,69.4875,74.0,89.0
153,69.59791666666666,69.74375,76.0,84.0
154,69.84791666666666,70.02083333333333,78.0,84.0
155,70.09791666666666,70.23958333333333,79.0,79.0
156,70.34791666666666,70.74375,81.0,82.0
157,70.84791666666666,71.01041666666667,78.0,79.0
158,71.09791666666666,71.26041666666667,76.0,80.0
159,71.34791666666666,71.71458333333334,74.0,85.0
160,71.84791666666666,72.20416666666667,71.0,84.0
161,72.34791666666666,73.51458333333333,76.0,81.0
162,73.84791666666666,73.99583333333334,71.0,85.0
163,74.09791666666666,74.25625,73.0,83.0
164,74.34791666666666,74.72083333333333,74.0,84.0
165,74.84791666666666,75.18333333333334,73.0,84.0
166,75.34791666666666,75.72291666666666,78.0,87.0
167,75.84791666666666,76.15208333333334,76.0,84.0
168,76.34791666666666,76.725,76.0,82.0
169,76.84791666666666,78.36041666666667,74.0,85.0
170,87.84791666666666,88.12916666666666,74.0,83.0
171,88.09791666666666,88.39791666666666,76.0,83.0
172,88.34791666666666,88.775,78.0,83.0
173,88.84791666666666,89.30208333333333,69.0,83.0
174,89.34791666666666,89.89166666666667,78.0,72.0
175,89.84791666666666,90.34166666666667,69.0,85.0
176,90.34791666666666,90.86875,76.0,83.0
177,90.84791666666666,91.49375,69.0,83.0
178,91.84791666666666,92.10833333333333,71.0,83.0
179,92.09791666666666,92.36458333333333,73.0,71.0
180,92.34791666666666,92.74166666666666,74.0,84.0
181,92.84791666666666,93.27916666666667,66.0,81.0
182,93.34791666666666,93.85416666666667,74.0,90.0
183,93.84791666666666,94.38125,66.0,78.0
184,94.34791666666666,94.87916666666666,73.0,80.0
185,94.84791666666666,95.57083333333333,66.0,75.0
186,95.84791666666666,96.03125,73.0,76.0
187,96.09791666666666,96.32708333333333,73.0,78.0
188,96.34791666666666,96.725,71.0,84.0
189,96.84791666666666,97.0,67.0,76.0
190,97.09791666666666,97.25625,67.0,75.0
191,97.34791666666666,97.51458333333333,67.0,81.0
192,97.59791666666666,97.76666666666667,69.0,83.0
193,97.84791666666666,98.24166666666666,71.0,77.0
194,98.34791666666666,98.81875,69.0,79.0
195,98.84791666666666,99.09791666666666,73.0,84.0
196,99.09791666666666,99.84791666666666,74.0,85.0
197,100.09791666666666,100.32708333333333,71.0,82.0
198,100.34791666666666,100.76458333333333,76.0,84.0
199,100.84791666666666,100.97916666666667,71.0,76.0
200,101.09791666666666,101.24375,71.0,80.0
201,101.34791666666666,101.825,71.0,83.0
202,101.84791666666666,102.20833333333333,78.0,81.0
203,102.34791666666666,102.80833333333334,78.0,83.0
204,102.84791666666666,103.55624999999999,76.0,84.0
205,103.84791666666666,104.07291666666667,74.0,84.0
206,104.09791666666666,104.26875,76.0,83.0
207,104.34791666666666,104.8125,78.0,79.0
208,104.84791666666666,105.28333333333333,81.0,84.0
209,105.34791666666666,105.73333333333333,76.0,79.0
210,105.84791666666666,106.1875,78.0,81.0
211,106.34791666666666,106.7375,76.0,83.0
212,106.84791666666666,107.56666666666666,74.0,85.0
213,107.84791666666666,108.0625,71.0,82.0
214,108.09791666666666,108.24166666666666,73.0,72.0
215,108.34791666666666,108.74791666666667,74.0,84.0
216,108.84791666666666,109.25208333333333,78.0,81.0
217,109.34791666666666,109.72083333333333,73.0,74.0
218,109.84791666666666,110.24166666666666,78.0,84.0
219,110.34791666666666,110.79166666666667,73.0,83.0
220,110.84791666666666,111.45,71.0,84.0
221,111.84791666666666,112.1,71.0,76.0
222,112.09791666666666,112.30208333333333,69.0,82.0
223,112.34791666666666,112.52083333333333,67.0,81.0
224,112.59791666666666,112.77083333333333,67.0,78.0
225,112.84791666666666,113.02916666666667,69.0,83.0
226,113.09791666666666,113.75208333333333,71.0,78.0
227,113.84791666666666,114.23958333333333,67.0,82.0
228,114.34791666666666,114.48958333333333,69.0,83.0
229,114.59791666666666,114.73541666666667,69.0,83.0
230,114.84791666666666,115.02708333333334,73.0,83.0
231,115.09791666666666,115.63541666666667,74.0,85.0
232,115.84791666666666,116.00416666666666,71.0,84.0
233,116.09791666666666,116.2625,74.0,84.0
234,116.34791666666666,116.75416666666666,79.0,80.0
235,116.84791666666666,117.19791666666667,78.0,79.0
236,117.34791666666666,117.725,74.0,84.0
237,117.84791666666666,118.27083333333333,71.0,85.0
238,118.34791666666666,118.7,76.0,83.0
239,118.84791666666666,119.23541666666667,69.0,87.0
240,119.34791666666666,119.72083333333333,81.0,84.0
241,119.84791666666666,120.16666666666667,79.0,82.0
242,120.34791666666666,120.51041666666667,78.0,83.0
243,120.59791666666666,120.74791666666667,78.0,81.0
244,120.84791666666666,120.97916666666667,69.0,85.0
245,121.09791666666666,121.29166666666667,69.0,74.0
246,121.34791666666666,121.6625,78.0,86.0
247,122.09791666666666,122.28541666666666,74.0,83.0
248,122.34791666666666,122.48958333333333,76.0,76.0
249,122.59791666666666,122.76458333333333,76.0,83.0
250,122.84791666666666,123.02916666666667,69.0,83.0
251,123.09791666666666,123.27708333333334,69.0,76.0
252,123.34791666666666,123.95833333333333,76.0,80.0
253,124.09791666666666,124.3125,73.0,78.0
254,124.34791666666666,124.45833333333333,74.0,85.0
255,124.59791666666666,124.73125,74.0,85.0
256,124.84791666666666,125.0,66.0,83.0
257,125.09791666666666,125.22083333333333,66.0,84.0
258,125.34791666666666,125.46249999999999,74.0,86.0
259,125.59791666666666,125.72708333333333,74.0,84.0
260,125.84791666666666,126.01041666666667,76.0,79.0
261,126.09791666666666,126.26041666666667,74.0,85.0
262,126.34791666666666,126.48541666666667,73.0,76.0
263,126.59791666666666,126.76666666666667,73.0,71.0
264,126.84791666666666,126.99374999999999,69.0,78.0
265,127.09791666666666,127.27499999999999,69.0,78.0
266,127.34791666666666,127.99583333333334,73.0,84.0
267,128.34791666666666,128.51666666666665,71.0,81.0
268,128.59791666666666,128.79583333333332,71.0,81.0
269,128.84791666666666,129.01458333333332,67.0,83.0
270,129.09791666666666,129.25,67.0,74.0
271,129.34791666666666,129.52083333333334,67.0,78.0
272,129.59791666666666,129.73333333333332,69.0,79.0
273,129.84791666666666,129.99166666666667,71.0,80.0
274,130.09791666666666,130.27916666666667,71.0,81.0
275,130.34791666666666,130.48958333333334,69.0,81.0
276,130.59791666666666,130.72291666666666,69.0,78.0
277,130.84791666666666,130.97083333333333,69.0,79.0
278,131.09791666666666,131.27083333333334,73.0,85.0
279,131.34791666666666,132.02083333333334,74.0,85.0
280,132.09791666666666,132.27083333333334,71.0,85.0
281,132.34791666666666,132.50625,78.0,84.0
282,132.59791666666666,132.76041666666666,79.0,76.0
283,132.84791666666666,132.975,78.0,87.0
284,133.09791666666666,133.25208333333333,74.0,84.0
285,133.34791666666666,133.87083333333334,71.0,84.0
286,134.09791666666666,134.26666666666665,71.0,83.0
287,134.34791666666666,134.52916666666667,78.0,83.0
288,134.59791666666666,134.76666666666665,79.0,73.0
289,134.84791666666666,135.0,78.0,88.0
290,135.09791666666666,135.27708333333334,74.0,85.0
291,135.34791666666666,135.92083333333332,76.0,83.0
292,136.34791666666666,136.47916666666666,78.0,83.0
293,136.59791666666666,136.78125,78.0,84.0
294,136.84791666666666,136.97916666666666,69.0,84.0
295,137.09791666666666,137.30208333333334,69.0,78.0
296,137.34791666666666,137.46458333333334,78.0,84.0
297,137.59791666666666,137.72291666666666,78.0,83.0
298,137.84791666666666,137.99375,79.0,83.0
299,138.09791666666666,138.20833333333334,74.0,81.0
300,138.34791666666666,138.46875,76.0,79.0
301,138.59791666666666,138.70833333333334,76.0,80.0
302,138.84791666666666,138.96458333333334,76.0,83.0
303,139.09791666666666,139.24583333333334,76.0,83.0
304,139.34791666666666,140.04791666666665,81.0,83.0
305,140.34791666666666,140.50208333333333,83.0,82.0
306,140.59791666666666,140.72708333333333,78.0,84.0
307,140.84791666666666,140.96875,78.0,82.0
308,141.09791666666666,141.23541666666665,78.0,84.0
309,141.34791666666666,141.46875,78.0,83.0
310,141.59791666666666,141.71875,78.0,88.0
311,141.84791666666666,141.97708333333333,83.0,84.0
312,142.09791666666666,142.23541666666665,83.0,85.0
313,142.34791666666666,142.45833333333334,81.0,79.0
314,142.59791666666666,142.72083333333333,81.0,79.0
315,142.84791666666666,142.98541666666665,78.0,81.0
316,143.09791666666666,143.225,76.0,83.0
317,143.34791666666666,143.96041666666667,78.0,83.0
318,144.34791666666666,144.50416666666666,74.0,84.0
319,144.59791666666666,144.74583333333334,74.0,84.0
320,144.84791666666666,144.99583333333334,74.0,85.0
321,145.09791666666666,145.23958333333334,74.0,87.0
322,145.34791666666666,145.4875,74.0,89.0
323,145.59791666666666,145.74375,76.0,84.0
324,145.84791666666666,146.02083333333334,78.0,84.0
325,146.09791666666666,146.23958333333334,79.0,79.0
326,146.34791666666666,146.74375,81.0,82.0
327,146.84791666666666,147.01041666666666,78.0,79.0
328,147.09791666666666,147.26041666666666,76.0,80.0
329,147.34791666666666,147.71458333333334,74.0,85.0
330,147.84791666666666,148.20416666666665,71.0,84.0
331,148.34791666666666,149.51458333333332,76.0,81.0
332,149.84791666666666,149.99583333333334,71.0,85.0
333,150.09791666666666,150.25625,73.0,83.0
334,150.34791666666666,150.72083333333333,74.0,84.0
335,150.84791666666666,151.18333333333334,73.0,84.0
336,151.34791666666666,151.72291666666666,78.0,87.0
337,151.84791666666666,152.15208333333334,76.0,84.0
338,152.34791666666666,152.725,76.0,82.0
339,152.84791666666666,154.36041666666665,74.0,85.0
340,166.84791666666666,167.23541666666665,69.0,87.0
341,167.34791666666666,167.72083333333333,81.0,84.0
342,167.84791666666666,168.16666666666666,79.0,82.0
343,168.34791666666666,168.51041666666666,78.0,83.0
344,168.59791666666666,168.74791666666667,78.0,81.0
345,168.84791666666666,168.97916666666666,69.0,85.0
346,169.09791666666666,169.29166666666666,69.0,74.0
347,169.34791666666666,169.6625,78.0,86.0
348,170.09791666666666,170.28541666666666,74.0,83.0
349,170.34791666666666,170.48958333333334,76.0,76.0
350,170.59791666666666,170.76458333333332,76.0,83.0
351,170.84791666666666,171.02916666666667,69.0,83.0
352,171.09791666666666,171.27708333333334,69.0,76.0
353,171.34791666666666,171.95833333333334,76.0,80.0
354,172.09791666666666,172.3125,73.0,78.0
355,172.34791666666666,172.45833333333334,74.0,85.0
356,172.59791666666666,172.73125,74.0,85.0
357,172.84791666666666,173.0,66.0,83.0
358,173.09791666666666,173.22083333333333,66.0,84.0
359,173.34791666666666,173.4625,74.0,86.0
360,173.59791666666666,173.72708333333333,74.0,84.0
361,173.84791666666666,174.01041666666666,76.0,79.0
362,174.09791666666666,174.26041666666666,74.0,85.0
363,174.34791666666666,174.48541666666665,73.0,76.0
364,174.59791666666666,174.76666666666665,73.0,71.0
365,174.84791666666666,174.99375,69.0,78.0
366,175.09791666666666,175.275,69.0,78.0
367,175.34791666666666,175.99583333333334,73.0,84.0
368,176.34791666666666,176.51666666666665,71.0,81.0
369,176.59791666666666,176.79583333333332,71.0,81.0
370,176.84791666666666,177.01458333333332,67.0,83.0
371,177.09791666666666,177.25,67.0,74.0
372,177.34791666666666,177.52083333333334,67.0,78.0
373,177.59791666666666,177.73333333333332,69.0,79.0
374,177.84791666666666,177.99166666666667,71.0,80.0
375,178.09791666666666,178.27916666666667,71.0,81.0
376,178.34791666666666,178.48958333333334,69.0,81.0
377,178.59791666666666,178.72291666666666,69.0,78.0
378,178.84791666666666,178.97083333333333,69.0,79.0
379,179.09791666666666,179.27083333333334,73.0,85.0
380,179.34791666666666,180.02083333333334,74.0,85.0
381,180.09791666666666,180.27083333333334,71.0,85.0
382,180.34791666666666,180.50625,78.0,84.0
383,180.59791666666666,180.76041666666666,79.0,76.0
384,180.84791666666666,180.975,78.0,87.0
385,181.09791666666666,181.25208333333333,74.0,84.0
386,181.34791666666666,181.87083333333334,71.0,84.0
387,182.09791666666666,182.26666666666665,71.0,83.0
388,182.34791666666666,182.52916666666667,78.0,83.0
389,182.59791666666666,182.76666666666665,79.0,73.0
390,182.84791666666666,183.0,78.0,88.0
391,183.09791666666666,183.27708333333334,74.0,85.0
392,183.34791666666666,183.92083333333332,76.0,83.0
393,184.34791666666666,184.47916666666666,78.0,83.0
394,184.59791666666666,184.78125,78.0,84.0
395,184.84791666666666,184.97916666666666,69.0,84.0
396,185.09791666666666,185.30208333333334,69.0,78.0
397,185.34791666666666,185.46458333333334,78.0,84.0
398,185.59791666666666,185.72291666666666,78.0,83.0
399,185.84791666666666,185.99375,79.0,83.0
400,186.09791666666666,186.20833333333334,74.0,81.0
401,186.34791666666666,186.46875,76.0,79.0
402,186.59791666666666,186.70833333333334,76.0,80.0
403,186.84791666666666,186.96458333333334,76.0,83.0
404,187.09791666666666,187.24583333333334,76.0,83.0
405,187.34791666666666,188.04791666666665,81.0,83.0
406,188.34791666666666,188.50208333333333,83.0,82.0
407,188.59791666666666,188.72708333333333,78.0,84.0
408,188.84791666666666,188.96875,78.0,82.0
409,189.09791666666666,189.23541666666665,78.0,84.0
410,189.34791666666666,189.46875,78.0,83.0
411,189.59791666666666,189.71875,78.0,88.0
412,189.84791666666666,189.97708333333333,83.0,84.0
413,190.09791666666666,190.23541666666665,83.0,85.0
414,190.34791666666666,190.45833333333334,81.0,79.0
415,190.59791666666666,190.72083333333333,81.0,79.0
416,190.84791666666666,190.98541666666665,78.0,81.0
417,191.09791666666666,191.225,76.0,83.0
418,191.34791666666666,191.96041666666667,78.0,83.0
419,192.34791666666666,192.50416666666666,74.0,84.0
420,192.59791666666666,192.74583333333334,74.0,84.0
421,192.84791666666666,192.99583333333334,74.0,85.0
422,193.09791666666666,193.23958333333334,74.0,87.0
423,193.34791666666666,193.4875,74.0,89.0
424,193.59791666666666,193.74375,76.0,84.0
425,193.84791666666666,194.02083333333334,78.0,84.0
426,194.09791666666666,194.23958333333334,79.0,79.0
427,194.34791666666666,194.74375,81.0,82.0
428,194.84791666666666,195.01041666666666,78.0,79.0
429,195.09791666666666,195.26041666666666,76.0,80.0
430,195.34791666666666,195.71458333333334,74.0,85.0
431,195.84791666666666,196.20416666666665,71.0,84.0
432,196.34791666666666,197.51458333333332,76.0,81.0
433,197.84791666666666,197.99583333333334,71.0,85.0
434,198.09791666666666,198.25625,73.0,83.0
435,198.34791666666666,198.72083333333333,74.0,84.0
436,198.84791666666666,199.18333333333334,73.0,84.0
437,199.34791666666666,199.72291666666666,78.0,87.0
438,199.84791666666666,200.15208333333334,76.0,84.0
439,200.34791666666666,200.725,76.0,82.0
440,200.84791666666666,202.36041666666665,74.0,85.0
