,start,end,pitch,velocity
0,0.34791666666666665,1.475,62.0,70.0
1,0.34791666666666665,1.6895833333333332,66.0,71.0
2,0.34791666666666665,1.8604166666666666,50.0,67.0
3,1.5979166666666667,1.9458333333333333,62.0,71.0
4,1.8479166666666667,1.9958333333333333,66.0,77.0
5,1.3479166666666667,2.0208333333333335,57.0,55.0
6,2.3479166666666664,3.3604166666666666,61.0,58.0
7,2.3479166666666664,3.4583333333333335,49.0,76.0
8,2.3479166666666664,3.4625,64.0,75.0
9,4.347916666666666,4.99375,62.0,69.0
10,4.347916666666666,5.020833333333333,59.0,62.0
11,5.347916666666666,5.485416666666667,59.0,70.0
12,4.847916666666666,5.497916666666667,54.0,51.0
13,4.347916666666666,5.664583333333333,47.0,73.0
14,5.347916666666666,5.76875,62.0,74.0
15,5.347916666666666,5.841666666666667,66.0,72.0
16,5.847916666666666,5.979166666666667,59.0,48.0
17,6.347916666666666,7.079166666666667,55.0,67.0
18,6.347916666666666,7.102083333333333,59.0,67.0
19,7.347916666666666,7.63125,55.0,76.0
20,6.347916666666666,7.925,43.0,61.0
21,7.347916666666666,8.2125,59.0,79.0
22,7.347916666666666,8.225,62.0,77.0
23,7.847916666666666,8.310416666666667,55.0,83.0
24,8.347916666666666,8.639583333333333,59.0,68.0
25,8.347916666666666,8.952083333333333,64.0,70.0
26,8.847916666666666,9.64375,59.0,68.0
27,9.347916666666666,10.275,64.0,78.0
28,8.347916666666666,10.3125,52.0,74.0
29,9.347916666666666,10.322916666666666,67.0,76.0
30,10.347916666666666,10.733333333333333,55.0,72.0
31,10.347916666666666,10.989583333333334,43.0,67.0
32,10.347916666666666,11.391666666666666,59.0,72.0
33,11.347916666666666,12.2875,61.0,75.0
34,11.347916666666666,12.297916666666666,57.0,68.0
35,11.347916666666666,12.339583333333334,45.0,74.0
36,12.347916666666666,12.635416666666666,57.0,70.0
37,12.847916666666666,13.427083333333334,57.0,76.0
38,12.347916666666666,13.433333333333334,62.0,73.0
39,12.347916666666666,13.804166666666667,50.0,78.0
40,13.347916666666666,13.91875,66.0,75.0
41,13.847916666666666,14.797916666666666,57.0,83.0
42,14.347916666666666,15.097916666666666,61.0,73.0
43,14.347916666666666,15.758333333333333,45.0,68.0
44,15.347916666666666,15.829166666666666,64.0,80.0
45,14.847916666666666,15.84375,52.0,71.0
46,16.347916666666666,17.072916666666668,62.0,76.0
47,17.347916666666666,17.59375,59.0,77.0
48,16.847916666666666,17.810416666666665,54.0,66.0
49,16.347916666666666,17.9125,47.0,71.0
50,17.347916666666666,17.975,66.0,72.0
51,17.847916666666666,18.39375,59.0,74.0
52,18.347916666666666,19.366666666666667,61.0,74.0
53,19.347916666666666,19.7625,57.0,84.0
54,18.347916666666666,19.766666666666666,45.0,74.0
55,18.847916666666666,19.779166666666665,52.0,66.0
56,20.347916666666666,21.341666666666665,55.0,72.0
57,20.347916666666666,21.385416666666668,59.0,76.0
58,20.347916666666666,21.685416666666665,43.0,78.0
59,20.847916666666666,21.7375,50.0,69.0
60,21.347916666666666,21.85625,62.0,84.0
61,21.847916666666666,21.9625,55.0,84.0
62,22.347916666666666,22.5625,57.0,74.0
63,22.347916666666666,23.422916666666666,62.0,78.0
64,22.847916666666666,23.458333333333332,57.0,78.0
65,22.347916666666666,23.529166666666665,50.0,81.0
66,23.347916666666666,23.6,66.0,83.0
67,24.347916666666666,25.391666666666666,67.0,73.0
68,24.347916666666666,25.441666666666666,59.0,72.0
69,24.847916666666666,25.53125,47.0,63.0
70,24.347916666666666,25.54375,40.0,81.0
71,25.347916666666666,25.822916666666668,64.0,84.0
72,25.847916666666666,26.06458333333333,59.0,84.0
73,26.347916666666666,27.01875,61.0,69.0
74,26.347916666666666,27.029166666666665,57.0,73.0
75,26.847916666666666,27.635416666666668,52.0,77.0
76,26.347916666666666,28.14375,45.0,81.0
77,27.347916666666666,28.195833333333333,57.0,84.0
78,27.847916666666666,28.260416666666668,52.0,77.0
79,28.847916666666666,29.152083333333334,62.0,77.0
80,28.347916666666666,29.18125,50.0,79.0
81,28.597916666666666,29.185416666666665,57.0,73.0
82,29.097916666666666,29.572916666666668,66.0,69.0
83,29.597916666666666,29.912499999999998,61.0,70.0
84,29.347916666666666,29.9875,49.0,76.0
85,29.847916666666666,30.2625,57.0,75.0
86,30.097916666666666,30.34583333333333,61.0,70.0
87,30.597916666666666,31.164583333333333,59.0,75.0
88,30.847916666666666,31.391666666666666,62.0,77.0
89,31.097916666666666,31.787499999999998,54.0,61.0
90,30.347916666666666,32.11875,47.0,83.0
91,31.347916666666666,32.61666666666667,66.0,76.0
92,32.59791666666666,32.90833333333333,54.0,75.0
93,32.34791666666666,32.922916666666666,47.0,81.0
94,32.84791666666666,33.16875,59.0,79.0
95,33.09791666666666,33.854166666666664,62.0,76.0
96,33.34791666666666,34.172916666666666,45.0,83.0
97,33.59791666666666,34.17916666666667,52.0,76.0
98,33.84791666666666,34.25625,57.0,73.0
99,34.34791666666666,35.0125,55.0,76.0
100,34.84791666666666,35.54375,50.0,70.0
101,34.34791666666666,35.6375,43.0,79.0
102,35.34791666666666,35.68958333333333,59.0,80.0
103,35.34791666666666,35.72083333333333,55.0,79.0
104,36.84791666666666,37.41458333333333,52.0,75.0
105,37.09791666666666,37.425,55.0,74.0
106,36.59791666666666,37.447916666666664,47.0,75.0
107,36.34791666666666,37.65625,40.0,83.0
108,37.59791666666666,37.78125,47.0,72.0
109,37.34791666666666,37.91875,59.0,83.0
110,37.84791666666666,37.9375,52.0,77.0
111,38.34791666666666,38.68333333333333,54.0,70.0
112,38.34791666666666,38.822916666666664,61.0,77.0
113,38.84791666666666,39.35,54.0,78.0
114,39.09791666666666,39.454166666666666,57.0,78.0
115,38.59791666666666,39.46666666666667,49.0,70.0
116,38.34791666666666,39.62708333333333,42.0,80.0
117,39.59791666666666,39.735416666666666,49.0,71.0
118,39.34791666666666,39.87083333333333,66.0,77.0
119,39.84791666666666,39.94583333333333,54.0,83.0
120,40.34791666666666,40.62291666666667,55.0,72.0
121,40.34791666666666,41.175,59.0,77.0
122,40.84791666666666,41.2,55.0,77.0
123,41.09791666666666,41.42916666666667,62.0,76.0
124,40.59791666666666,41.85625,50.0,74.0
125,41.34791666666666,41.891666666666666,67.0,83.0
126,40.34791666666666,41.89375,43.0,82.0
127,41.59791666666666,41.89791666666667,62.0,83.0
128,41.84791666666666,42.166666666666664,55.0,84.0
129,42.09791666666666,42.43333333333333,62.0,76.0
130,42.84791666666666,43.06875,57.0,79.0
131,43.09791666666666,43.25,61.0,74.0
132,43.34791666666666,43.6625,62.0,77.0
133,43.59791666666666,43.84583333333333,64.0,83.0
134,43.84791666666666,43.983333333333334,66.0,85.0
135,42.59791666666666,44.09583333333333,52.0,75.0
136,42.34791666666666,44.12916666666666,45.0,84.0
137,44.34791666666666,44.59375,57.0,68.0
138,44.34791666666666,45.077083333333334,66.0,78.0
139,44.84791666666666,45.37916666666666,57.0,74.0
140,45.34791666666666,45.860416666666666,66.0,88.0
141,45.59791666666666,45.9,57.0,74.0
142,44.34791666666666,46.045833333333334,50.0,83.0
143,45.84791666666666,46.09375,62.0,73.0
144,46.09791666666666,46.479166666666664,57.0,65.0
145,46.34791666666666,46.983333333333334,64.0,79.0
146,46.84791666666666,47.55416666666667,52.0,70.0
147,46.34791666666666,47.75833333333333,45.0,75.0
148,47.34791666666666,48.04375,61.0,87.0
149,47.59791666666666,48.12708333333333,49.0,64.0
150,47.84791666666666,48.260416666666664,52.0,77.0
151,48.09791666666666,48.27708333333333,57.0,83.0
152,48.34791666666666,49.01875,62.0,83.0
153,49.09791666666666,49.37916666666666,59.0,83.0
154,48.84791666666666,49.452083333333334,54.0,70.0
155,49.59791666666666,49.8125,54.0,72.0
156,49.34791666666666,49.822916666666664,66.0,83.0
157,48.34791666666666,49.860416666666666,47.0,83.0
158,49.84791666666666,50.15208333333333,59.0,79.0
159,50.09791666666666,50.42916666666667,62.0,70.0
160,50.34791666666666,51.13125,61.0,84.0
161,50.84791666666666,51.53333333333333,52.0,76.0
162,50.34791666666666,51.75416666666666,45.0,78.0
163,51.34791666666666,51.827083333333334,61.0,82.0
164,51.34791666666666,51.860416666666666,57.0,80.0
165,51.84791666666666,52.25,52.0,78.0
166,52.34791666666666,52.61666666666667,55.0,76.0
167,52.34791666666666,52.7875,59.0,77.0
168,52.84791666666666,53.1875,55.0,80.0
169,53.09791666666666,53.4625,62.0,78.0
170,52.59791666666666,53.704166666666666,50.0,76.0
171,52.34791666666666,53.895833333333336,43.0,79.0
172,53.59791666666666,53.9125,55.0,83.0
173,53.34791666666666,53.952083333333334,67.0,79.0
174,53.84791666666666,54.06875,62.0,76.0
175,54.09791666666666,54.229166666666664,55.0,76.0
176,54.34791666666666,54.83541666666667,42.0,72.0
177,54.34791666666666,54.864583333333336,61.0,70.0
178,54.59791666666666,54.90208333333333,49.0,66.0
179,54.84791666666666,55.168749999999996,57.0,83.0
180,55.09791666666666,55.24583333333333,61.0,83.0
181,55.34791666666666,55.81875,62.0,75.0
182,55.84791666666666,56.34583333333333,59.0,81.0
183,55.59791666666666,56.34791666666666,54.0,69.0
184,55.34791666666666,56.375,47.0,67.0
185,56.34791666666666,56.672916666666666,55.0,73.0
186,56.34791666666666,56.96666666666667,62.0,79.0
187,56.59791666666666,57.1,50.0,71.0
188,56.34791666666666,57.15416666666667,43.0,76.0
189,56.84791666666666,57.20625,55.0,81.0
190,57.09791666666666,57.375,59.0,83.0
191,57.59791666666666,57.75625,55.0,71.0
192,57.34791666666666,57.87916666666666,62.0,85.0
193,57.84791666666666,58.07083333333333,59.0,74.0
194,58.09791666666666,58.208333333333336,55.0,71.0
195,58.34791666666666,58.604166666666664,57.0,70.0
196,58.34791666666666,58.791666666666664,61.0,77.0
197,59.09791666666666,59.24583333333333,61.0,83.0
198,58.84791666666666,59.31875,57.0,82.0
199,58.59791666666666,59.68541666666667,52.0,76.0
200,59.34791666666666,59.70625,64.0,84.0
201,59.59791666666666,59.92916666666667,57.0,83.0
202,58.34791666666666,59.93958333333333,45.0,76.0
203,59.84791666666666,60.14375,61.0,84.0
204,60.09791666666666,60.30416666666667,57.0,84.0
205,60.34791666666666,60.59375,57.0,68.0
206,60.34791666666666,61.077083333333334,66.0,78.0
207,60.84791666666666,61.37916666666666,57.0,74.0
208,61.34791666666666,61.860416666666666,66.0,88.0
209,61.59791666666666,61.9,57.0,74.0
210,60.34791666666666,62.045833333333334,50.0,83.0
211,61.84791666666666,62.09375,62.0,73.0
212,62.09791666666666,62.479166666666664,57.0,65.0
213,62.34791666666666,62.983333333333334,64.0,79.0
214,62.84791666666666,63.55416666666667,52.0,70.0
215,62.34791666666666,63.75833333333333,45.0,75.0
216,63.34791666666666,64.04375,61.0,87.0
217,63.59791666666666,64.12708333333333,49.0,64.0
218,63.84791666666666,64.26041666666667,52.0,77.0
219,64.09791666666666,64.27708333333334,57.0,83.0
220,64.34791666666666,65.01875,62.0,83.0
221,65.09791666666666,65.37916666666666,59.0,83.0
222,64.84791666666666,65.45208333333333,54.0,70.0
223,65.59791666666666,65.8125,54.0,72.0
224,65.34791666666666,65.82291666666667,66.0,83.0
225,64.34791666666666,65.86041666666667,47.0,83.0
226,65.84791666666666,66.15208333333334,59.0,79.0
227,66.09791666666666,66.42916666666666,62.0,70.0
228,66.34791666666666,67.13125,61.0,84.0
229,66.84791666666666,67.53333333333333,52.0,76.0
230,66.34791666666666,67.75416666666666,45.0,78.0
231,67.34791666666666,67.82708333333333,61.0,82.0
232,67.34791666666666,67.86041666666667,57.0,80.0
233,67.84791666666666,68.25,52.0,78.0
234,68.34791666666666,68.61666666666666,55.0,76.0
235,68.34791666666666,68.7875,59.0,77.0
236,68.84791666666666,69.1875,55.0,80.0
237,69.09791666666666,69.4625,62.0,78.0
238,68.59791666666666,69.70416666666667,50.0,76.0
239,68.34791666666666,69.89583333333333,43.0,79.0
240,69.59791666666666,69.9125,55.0,83.0
241,69.34791666666666,69.95208333333333,67.0,79.0
242,69.84791666666666,70.06875,62.0,76.0
243,70.09791666666666,70.22916666666667,55.0,76.0
244,70.34791666666666,70.83541666666666,42.0,72.0
245,70.34791666666666,70.86458333333333,61.0,70.0
246,70.59791666666666,70.90208333333334,49.0,66.0
247,70.84791666666666,71.16875,57.0,83.0
248,71.09791666666666,71.24583333333334,61.0,83.0
249,71.34791666666666,71.81875,62.0,75.0
250,71.84791666666666,72.34583333333333,59.0,81.0
251,71.59791666666666,72.34791666666666,54.0,69.0
252,71.34791666666666,72.375,47.0,67.0
253,72.59791666666666,73.11458333333333,56.0,72.0
254,72.84791666666666,73.1625,59.0,74.0
255,73.09791666666666,73.5375,64.0,85.0
256,72.34791666666666,73.79375,44.0,83.0
257,73.34791666666666,73.83958333333334,56.0,72.0
258,73.59791666666666,74.23958333333333,59.0,72.0
259,74.09791666666666,74.31458333333333,56.0,63.0
260,73.84791666666666,74.62083333333334,64.0,74.0
261,74.84791666666666,75.18125,55.0,67.0
262,74.59791666666666,75.3,52.0,79.0
263,75.09791666666666,75.69375,61.0,85.0
264,74.34791666666666,75.91666666666667,45.0,83.0
265,75.34791666666666,75.96041666666666,49.0,80.0
266,75.59791666666666,76.15208333333334,52.0,78.0
267,75.84791666666666,76.17708333333333,57.0,83.0
268,76.22291666666666,76.43333333333334,62.0,68.0
269,76.29791666666667,76.475,66.0,68.0
270,76.29583333333333,76.62708333333333,50.0,71.0
271,76.375,76.6375,69.0,74.0
272,77.3125,77.50208333333333,49.0,77.0
273,77.21041666666666,77.51666666666667,61.0,67.0
274,77.3125,77.54791666666667,64.0,76.0
275,77.39583333333333,77.69791666666667,69.0,75.0
276,78.2,78.43125,59.0,64.0
277,78.26666666666667,78.44583333333333,62.0,73.0
278,78.34583333333333,78.50416666666666,66.0,72.0
279,78.30416666666666,78.51458333333333,47.0,75.0
280,79.02291666666666,79.50625,61.0,72.0
281,79.05208333333333,79.54791666666667,64.0,72.0
282,78.97083333333333,79.55833333333334,57.0,60.0
283,79.04583333333333,79.71666666666667,45.0,73.0
284,80.59791666666666,80.95208333333333,50.0,77.0
285,80.34791666666666,80.975,43.0,83.0
286,80.84791666666666,81.27083333333333,55.0,84.0
287,81.09791666666666,81.425,59.0,81.0
288,81.34791666666666,81.89166666666667,42.0,88.0
289,81.59791666666666,81.89791666666666,49.0,76.0
290,82.09791666666666,82.17708333333333,61.0,73.0
291,81.84791666666666,82.20625,57.0,81.0
292,82.34791666666666,82.675,55.0,80.0
293,82.34791666666666,82.84583333333333,59.0,82.0
294,82.59791666666666,82.93958333333333,50.0,58.0
295,82.34791666666666,82.94375,43.0,84.0
296,82.84791666666666,83.13541666666667,55.0,83.0
297,83.09791666666666,83.27708333333334,59.0,83.0
298,83.34791666666666,83.66458333333333,57.0,79.0
299,83.34791666666666,83.71875,61.0,87.0
300,83.59791666666666,83.95208333333333,52.0,75.0
301,83.34791666666666,83.96666666666667,45.0,84.0
302,83.84791666666666,83.99583333333334,57.0,84.0
303,84.34791666666666,84.65833333333333,55.0,83.0
304,84.34791666666666,84.7,60.0,84.0
305,84.34791666666666,84.7125,64.0,84.0
306,84.84791666666666,85.20208333333333,60.0,78.0
307,85.09791666666666,85.27083333333333,55.0,76.0
308,84.34791666666666,85.62916666666666,48.0,88.0
309,85.34791666666666,85.64166666666667,60.0,84.0
310,85.59791666666666,85.78125,55.0,83.0
311,85.84791666666666,85.95625,48.0,83.0
312,86.09791666666666,86.21458333333334,55.0,83.0
313,85.84791666666666,86.24375,64.0,88.0
314,86.34791666666666,86.60833333333333,57.0,84.0
315,86.34791666666666,86.67708333333333,61.0,76.0
316,86.84791666666666,87.2,57.0,84.0
317,87.09791666666666,87.24375,64.0,84.0
318,87.59791666666666,87.85625,57.0,80.0
319,87.34791666666666,87.96041666666666,69.0,74.0
320,87.84791666666666,88.29375,61.0,71.0
321,86.34791666666666,88.30833333333334,45.0,84.0
322,86.59791666666666,88.31875,52.0,82.0
323,88.09791666666666,88.33333333333333,57.0,66.0
324,88.34791666666666,88.63541666666667,57.0,70.0
325,88.84791666666666,89.42708333333333,57.0,76.0
326,88.34791666666666,89.43333333333334,62.0,73.0
327,88.34791666666666,89.80416666666666,50.0,78.0
328,89.34791666666666,89.91875,66.0,75.0
329,89.84791666666666,90.79791666666667,57.0,83.0
330,90.34791666666666,91.09791666666666,61.0,73.0
331,90.34791666666666,91.75833333333333,45.0,68.0
332,91.34791666666666,91.82916666666667,64.0,80.0
333,90.84791666666666,91.84375,52.0,71.0
334,92.34791666666666,93.07291666666667,62.0,76.0
335,93.34791666666666,93.59375,59.0,77.0
336,92.84791666666666,93.81041666666667,54.0,66.0
337,92.34791666666666,93.9125,47.0,71.0
338,93.34791666666666,93.975,66.0,72.0
339,93.84791666666666,94.39375,59.0,74.0
340,94.34791666666666,95.36666666666666,61.0,74.0
341,95.34791666666666,95.7625,57.0,84.0
342,94.34791666666666,95.76666666666667,45.0,74.0
343,94.84791666666666,95.77916666666667,52.0,66.0
344,96.34791666666666,97.34166666666667,55.0,72.0
345,96.34791666666666,97.38541666666667,59.0,76.0
346,96.34791666666666,97.68541666666667,43.0,78.0
347,96.84791666666666,97.7375,50.0,69.0
348,97.34791666666666,97.85625,62.0,84.0
349,97.84791666666666,97.9625,55.0,84.0
350,98.34791666666666,98.5625,57.0,74.0
351,98.34791666666666,99.42291666666667,62.0,78.0
352,98.84791666666666,99.45833333333333,57.0,78.0
353,98.34791666666666,99.52916666666667,50.0,81.0
354,99.34791666666666,99.6,66.0,83.0
355,100.34791666666666,101.39166666666667,67.0,73.0
356,100.34791666666666,101.44166666666666,59.0,72.0
357,100.84791666666666,101.53125,47.0,63.0
358,100.34791666666666,101.54375,40.0,81.0
359,101.34791666666666,101.82291666666667,64.0,84.0
360,101.84791666666666,102.06458333333333,59.0,84.0
361,102.34791666666666,103.01875,61.0,69.0
362,102.34791666666666,103.02916666666667,57.0,73.0
363,102.84791666666666,103.63541666666667,52.0,77.0
364,102.34791666666666,104.14375,45.0,81.0
365,103.34791666666666,104.19583333333333,57.0,84.0
366,103.84791666666666,104.26041666666667,52.0,77.0
367,104.84791666666666,105.15208333333334,62.0,77.0
368,104.34791666666666,105.18124999999999,50.0,79.0
369,104.59791666666666,105.18541666666667,57.0,73.0
370,105.09791666666666,105.57291666666667,66.0,69.0
371,105.59791666666666,105.9125,61.0,70.0
372,105.34791666666666,105.9875,49.0,76.0
373,105.84791666666666,106.2625,57.0,75.0
374,106.09791666666666,106.34583333333333,61.0,70.0
375,106.59791666666666,107.16458333333333,59.0,75.0
376,106.84791666666666,107.39166666666667,62.0,77.0
377,107.09791666666666,107.7875,54.0,61.0
378,106.34791666666666,108.11874999999999,47.0,83.0
379,107.34791666666666,108.61666666666666,66.0,76.0
380,108.59791666666666,108.90833333333333,54.0,75.0
381,108.34791666666666,108.92291666666667,47.0,81.0
382,108.84791666666666,109.16875,59.0,79.0
383,109.09791666666666,109.85416666666667,62.0,76.0
384,109.34791666666666,110.17291666666667,45.0,83.0
385,109.59791666666666,110.17916666666666,52.0,76.0
386,109.84791666666666,110.25625,57.0,73.0
387,110.34791666666666,111.0125,55.0,76.0
388,110.84791666666666,111.54375,50.0,70.0
389,110.34791666666666,111.6375,43.0,79.0
390,111.34791666666666,111.68958333333333,59.0,80.0
391,111.34791666666666,111.72083333333333,55.0,79.0
392,112.84791666666666,113.41458333333333,52.0,75.0
393,113.09791666666666,113.425,55.0,74.0
394,112.59791666666666,113.44791666666667,47.0,75.0
395,112.34791666666666,113.65625,40.0,83.0
396,113.59791666666666,113.78125,47.0,72.0
397,113.34791666666666,113.91875,59.0,83.0
398,113.84791666666666,113.9375,52.0,77.0
399,114.34791666666666,114.68333333333334,54.0,70.0
400,114.34791666666666,114.82291666666667,61.0,77.0
401,114.84791666666666,115.35,54.0,78.0
402,115.09791666666666,115.45416666666667,57.0,78.0
403,114.59791666666666,115.46666666666667,49.0,70.0
404,114.34791666666666,115.62708333333333,42.0,80.0
405,115.59791666666666,115.73541666666667,49.0,71.0
406,115.34791666666666,115.87083333333334,66.0,77.0
407,115.84791666666666,115.94583333333333,54.0,83.0
408,116.34791666666666,116.62291666666667,55.0,72.0
409,116.34791666666666,117.175,59.0,77.0
410,116.84791666666666,117.2,55.0,77.0
411,117.09791666666666,117.42916666666666,62.0,76.0
412,116.59791666666666,117.85625,50.0,74.0
413,117.34791666666666,117.89166666666667,67.0,83.0
414,116.34791666666666,117.89375,43.0,82.0
415,117.59791666666666,117.89791666666666,62.0,83.0
416,117.84791666666666,118.16666666666667,55.0,84.0
417,118.09791666666666,118.43333333333334,62.0,76.0
418,118.84791666666666,119.06875,57.0,79.0
419,119.09791666666666,119.25,61.0,74.0
420,119.34791666666666,119.6625,62.0,77.0
421,119.59791666666666,119.84583333333333,64.0,83.0
422,119.84791666666666,119.98333333333333,66.0,85.0
423,118.59791666666666,120.09583333333333,52.0,75.0
424,118.34791666666666,120.12916666666666,45.0,84.0
425,120.34791666666666,120.59375,57.0,68.0
426,120.34791666666666,121.07708333333333,66.0,78.0
427,120.84791666666666,121.37916666666666,57.0,74.0
428,121.34791666666666,121.86041666666667,66.0,88.0
429,121.59791666666666,121.89999999999999,57.0,74.0
430,120.34791666666666,122.04583333333333,50.0,83.0
431,121.84791666666666,122.09375,62.0,73.0
432,122.09791666666666,122.47916666666667,57.0,65.0
433,122.34791666666666,122.98333333333333,64.0,79.0
434,122.84791666666666,123.55416666666666,52.0,70.0
435,122.34791666666666,123.75833333333333,45.0,75.0
436,123.34791666666666,124.04375,61.0,87.0
437,123.59791666666666,124.12708333333333,49.0,64.0
438,123.84791666666666,124.26041666666667,52.0,77.0
439,124.09791666666666,124.27708333333334,57.0,83.0
440,124.34791666666666,125.01875,62.0,83.0
441,125.09791666666666,125.37916666666666,59.0,83.0
442,124.84791666666666,125.45208333333333,54.0,70.0
443,125.59791666666666,125.8125,54.0,72.0
444,125.34791666666666,125.82291666666667,66.0,83.0
445,124.34791666666666,125.86041666666667,47.0,83.0
446,125.84791666666666,126.15208333333334,59.0,79.0
447,126.09791666666666,126.42916666666666,62.0,70.0
448,126.34791666666666,127.13125,61.0,84.0
449,126.84791666666666,127.53333333333333,52.0,76.0
450,126.34791666666666,127.75416666666666,45.0,78.0
451,127.34791666666666,127.82708333333333,61.0,82.0
452,127.34791666666666,127.86041666666667,57.0,80.0
453,127.84791666666666,128.25,52.0,78.0
454,128.34791666666666,128.61666666666667,55.0,76.0
455,128.34791666666666,128.7875,59.0,77.0
456,128.84791666666666,129.1875,55.0,80.0
457,129.09791666666666,129.4625,62.0,78.0
458,128.59791666666666,129.70416666666665,50.0,76.0
459,128.34791666666666,129.89583333333334,43.0,79.0
460,129.59791666666666,129.9125,55.0,83.0
461,129.34791666666666,129.95208333333332,67.0,79.0
462,129.84791666666666,130.06875,62.0,76.0
463,130.09791666666666,130.22916666666666,55.0,76.0
464,130.34791666666666,130.83541666666667,42.0,72.0
465,130.34791666666666,130.86458333333334,61.0,70.0
466,130.59791666666666,130.90208333333334,49.0,66.0
467,130.84791666666666,131.16875,57.0,83.0
468,131.09791666666666,131.24583333333334,61.0,83.0
469,131.34791666666666,131.81875,62.0,75.0
470,131.84791666666666,132.34583333333333,59.0,81.0
471,131.59791666666666,132.34791666666666,54.0,69.0
472,131.34791666666666,132.375,47.0,67.0
473,132.34791666666666,132.67291666666665,55.0,73.0
474,132.34791666666666,132.96666666666667,62.0,79.0
475,132.59791666666666,133.1,50.0,71.0
476,132.34791666666666,133.15416666666667,43.0,76.0
477,132.84791666666666,133.20625,55.0,81.0
478,133.09791666666666,133.375,59.0,83.0
479,133.59791666666666,133.75625,55.0,71.0
480,133.34791666666666,133.87916666666666,62.0,85.0
481,133.84791666666666,134.07083333333333,59.0,74.0
482,134.09791666666666,134.20833333333334,55.0,71.0
483,134.34791666666666,134.60416666666666,57.0,70.0
484,134.34791666666666,134.79166666666666,61.0,77.0
485,135.09791666666666,135.24583333333334,61.0,83.0
486,134.84791666666666,135.31875,57.0,82.0
487,134.59791666666666,135.68541666666667,52.0,76.0
488,135.34791666666666,135.70625,64.0,84.0
489,135.59791666666666,135.92916666666667,57.0,83.0
490,134.34791666666666,135.93958333333333,45.0,76.0
491,135.84791666666666,136.14375,61.0,84.0
492,136.09791666666666,136.30416666666667,57.0,84.0
493,136.34791666666666,136.59375,57.0,68.0
494,136.34791666666666,137.07708333333332,66.0,78.0
495,136.84791666666666,137.37916666666666,57.0,74.0
496,137.34791666666666,137.86041666666665,66.0,88.0
497,137.59791666666666,137.9,57.0,74.0
498,136.34791666666666,138.04583333333332,50.0,83.0
499,137.84791666666666,138.09375,62.0,73.0
500,138.09791666666666,138.47916666666666,57.0,65.0
501,138.34791666666666,138.98333333333332,64.0,79.0
502,138.84791666666666,139.55416666666667,52.0,70.0
503,138.34791666666666,139.75833333333333,45.0,75.0
504,139.34791666666666,140.04375,61.0,87.0
505,139.59791666666666,140.12708333333333,49.0,64.0
506,139.84791666666666,140.26041666666666,52.0,77.0
507,140.09791666666666,140.27708333333334,57.0,83.0
508,140.34791666666666,141.01875,62.0,83.0
509,141.09791666666666,141.37916666666666,59.0,83.0
510,140.84791666666666,141.45208333333332,54.0,70.0
511,141.59791666666666,141.8125,54.0,72.0
512,141.34791666666666,141.82291666666666,66.0,83.0
513,140.34791666666666,141.86041666666665,47.0,83.0
514,141.84791666666666,142.15208333333334,59.0,79.0
515,142.09791666666666,142.42916666666667,62.0,70.0
516,142.34791666666666,143.13125,61.0,84.0
517,142.84791666666666,143.53333333333333,52.0,76.0
518,142.34791666666666,143.75416666666666,45.0,78.0
519,143.34791666666666,143.82708333333332,61.0,82.0
520,143.34791666666666,143.86041666666665,57.0,80.0
521,143.84791666666666,144.25,52.0,78.0
522,144.34791666666666,144.61666666666667,55.0,76.0
523,144.34791666666666,144.7875,59.0,77.0
524,144.84791666666666,145.1875,55.0,80.0
525,145.09791666666666,145.4625,62.0,78.0
526,144.59791666666666,145.70416666666665,50.0,76.0
527,144.34791666666666,145.89583333333334,43.0,79.0
528,145.59791666666666,145.9125,55.0,83.0
529,145.34791666666666,145.95208333333332,67.0,79.0
530,145.84791666666666,146.06875,62.0,76.0
531,146.09791666666666,146.22916666666666,55.0,76.0
532,146.34791666666666,146.83541666666667,42.0,72.0
533,146.34791666666666,146.86458333333334,61.0,70.0
534,146.59791666666666,146.90208333333334,49.0,66.0
535,146.84791666666666,147.16875,57.0,83.0
536,147.09791666666666,147.24583333333334,61.0,83.0
537,147.34791666666666,147.81875,62.0,75.0
538,147.84791666666666,148.34583333333333,59.0,81.0
539,147.59791666666666,148.34791666666666,54.0,69.0
540,147.34791666666666,148.375,47.0,67.0
541,148.59791666666666,149.11458333333334,56.0,72.0
542,148.84791666666666,149.1625,59.0,74.0
543,149.09791666666666,149.5375,64.0,85.0
544,148.34791666666666,149.79375,44.0,83.0
545,149.34791666666666,149.83958333333334,56.0,72.0
546,149.59791666666666,150.23958333333334,59.0,72.0
547,150.09791666666666,150.31458333333333,56.0,63.0
548,149.84791666666666,150.62083333333334,64.0,74.0
549,150.84791666666666,151.18125,55.0,67.0
550,150.59791666666666,151.3,52.0,79.0
551,151.09791666666666,151.69375,61.0,85.0
552,150.34791666666666,151.91666666666666,45.0,83.0
553,151.34791666666666,151.96041666666667,49.0,80.0
554,151.59791666666666,152.15208333333334,52.0,78.0
555,151.84791666666666,152.17708333333334,57.0,83.0
556,152.34791666666666,152.67291666666665,62.0,76.0
557,152.34791666666666,152.90416666666667,66.0,77.0
558,152.84791666666666,153.24583333333334,62.0,77.0
559,153.09791666666666,153.38541666666666,66.0,83.0
560,152.59791666666666,153.59166666666667,57.0,72.0
561,153.59791666666666,153.75833333333333,62.0,77.0
562,153.59791666666666,153.88333333333333,66.0,83.0
563,153.59791666666666,153.94375,69.0,82.0
564,153.34791666666666,153.95833333333334,54.0,50.0
565,152.34791666666666,153.97291666666666,50.0,86.0
566,153.84791666666666,154.03333333333333,57.0,67.0
567,154.34791666666666,154.62291666666667,61.0,76.0
568,154.34791666666666,154.62708333333333,64.0,84.0
569,154.84791666666666,155.04791666666665,57.0,83.0
570,154.59791666666666,155.14791666666667,52.0,73.0
571,155.09791666666666,155.45416666666665,64.0,86.0
572,155.09791666666666,155.47708333333333,57.0,79.0
573,154.34791666666666,155.75,45.0,80.0
574,155.59791666666666,155.77708333333334,57.0,79.0
575,155.34791666666666,155.79791666666665,52.0,79.0
576,155.59791666666666,155.95,61.0,84.0
577,155.84791666666666,156.09375,57.0,84.0
578,155.59791666666666,156.19375,64.0,87.0
579,156.34791666666666,156.66666666666666,59.0,81.0
580,156.34791666666666,156.86875,62.0,83.0
581,156.84791666666666,156.97916666666666,59.0,79.0
582,156.59791666666666,157.14791666666667,54.0,66.0
583,157.09791666666666,157.45833333333334,59.0,83.0
584,157.09791666666666,157.49791666666667,66.0,78.0
585,157.34791666666666,157.63541666666666,54.0,68.0
586,156.34791666666666,157.74583333333334,47.0,84.0
587,157.59791666666666,157.88125,62.0,79.0
588,157.84791666666666,158.21041666666667,59.0,71.0
589,158.09791666666666,158.39166666666665,62.0,80.0
590,158.34791666666666,158.80625,61.0,85.0
591,158.84791666666666,158.99166666666667,57.0,85.0
592,158.59791666666666,159.16041666666666,52.0,78.0
593,159.09791666666666,159.46666666666667,57.0,83.0
594,159.09791666666666,159.66666666666666,61.0,84.0
595,159.59791666666666,159.81458333333333,57.0,83.0
596,159.34791666666666,159.89166666666665,52.0,75.0
597,158.34791666666666,159.9125,45.0,83.0
598,159.84791666666666,160.11458333333334,62.0,77.0
599,160.09791666666666,160.27708333333334,61.0,84.0
600,160.34791666666666,160.68541666666667,59.0,78.0
601,160.84791666666666,160.99583333333334,55.0,84.0
602,160.59791666666666,161.17083333333332,50.0,82.0
603,160.34791666666666,161.2375,43.0,83.0
604,161.09791666666666,161.45208333333332,55.0,82.0
605,161.09791666666666,161.65833333333333,59.0,84.0
606,161.09791666666666,161.91458333333333,62.0,84.0
607,161.59791666666666,161.93125,50.0,83.0
608,162.09791666666666,162.35625,59.0,71.0
609,161.84791666666666,162.36458333333334,55.0,85.0
610,162.84791666666666,162.99375,52.0,85.0
611,162.59791666666666,163.23333333333332,47.0,72.0
612,162.34791666666666,163.46666666666667,40.0,85.0
613,163.09791666666666,163.64791666666667,52.0,84.0
614,163.09791666666666,163.70416666666665,55.0,81.0
615,163.59791666666666,163.78541666666666,47.0,78.0
616,163.09791666666666,163.86458333333334,59.0,83.0
617,163.84791666666666,163.95,52.0,92.0
618,164.34791666666666,164.52916666666667,55.0,83.0
619,164.34791666666666,164.68333333333334,60.0,82.0
620,164.59791666666666,164.90208333333334,55.0,82.0
621,164.84791666666666,164.91041666666666,60.0,67.0
622,165.09791666666666,165.27291666666667,55.0,84.0
623,165.09791666666666,165.33125,64.0,87.0
624,165.59791666666666,165.69166666666666,55.0,84.0
625,165.59791666666666,165.78958333333333,60.0,87.0
626,164.34791666666666,165.80625,48.0,89.0
627,165.84791666666666,165.99375,55.0,83.0
628,166.34791666666666,166.725,55.0,81.0
629,166.34791666666666,166.77916666666667,60.0,84.0
630,166.34791666666666,166.85,48.0,88.0
631,167.34791666666666,167.85208333333333,57.0,79.0
632,167.34791666666666,168.10208333333333,61.0,83.0
633,167.34791666666666,168.29166666666666,45.0,89.0
634,167.84791666666666,168.36041666666665,52.0,90.0
635,168.09791666666666,168.36458333333334,57.0,85.0
636,168.34791666666666,168.36458333333334,57.0,68.0
637,168.34791666666666,169.07708333333332,66.0,78.0
638,168.84791666666666,169.37916666666666,57.0,74.0
639,169.34791666666666,169.86041666666665,66.0,88.0
640,169.59791666666666,169.9,57.0,74.0
641,168.34791666666666,170.04583333333332,50.0,83.0
642,169.84791666666666,170.09375,62.0,73.0
643,170.09791666666666,170.47916666666666,57.0,65.0
644,170.34791666666666,170.98333333333332,64.0,79.0
645,170.84791666666666,171.55416666666667,52.0,70.0
646,170.34791666666666,171.75833333333333,45.0,75.0
647,171.34791666666666,172.04375,61.0,87.0
648,171.59791666666666,172.12708333333333,49.0,64.0
649,171.84791666666666,172.26041666666666,52.0,77.0
650,172.09791666666666,172.27708333333334,57.0,83.0
651,172.34791666666666,173.01875,62.0,83.0
652,173.09791666666666,173.37916666666666,59.0,83.0
653,172.84791666666666,173.45208333333332,54.0,70.0
654,173.59791666666666,173.8125,54.0,72.0
655,173.34791666666666,173.82291666666666,66.0,83.0
656,172.34791666666666,173.86041666666665,47.0,83.0
657,173.84791666666666,174.15208333333334,59.0,79.0
658,174.09791666666666,174.42916666666667,62.0,70.0
659,174.34791666666666,175.13125,61.0,84.0
660,174.84791666666666,175.53333333333333,52.0,76.0
661,174.34791666666666,175.75416666666666,45.0,78.0
662,175.34791666666666,175.82708333333332,61.0,82.0
663,175.34791666666666,175.86041666666665,57.0,80.0
664,175.84791666666666,176.25,52.0,78.0
665,176.34791666666666,176.61666666666667,55.0,76.0
666,176.34791666666666,176.7875,59.0,77.0
667,176.84791666666666,177.1875,55.0,80.0
668,177.09791666666666,177.4625,62.0,78.0
669,176.59791666666666,177.70416666666665,50.0,76.0
670,176.34791666666666,177.89583333333334,43.0,79.0
671,177.59791666666666,177.9125,55.0,83.0
672,177.34791666666666,177.95208333333332,67.0,79.0
673,177.84791666666666,178.06875,62.0,76.0
674,178.09791666666666,178.22916666666666,55.0,76.0
675,178.34791666666666,178.83541666666667,42.0,72.0
676,178.34791666666666,178.86458333333334,61.0,70.0
677,178.59791666666666,178.90208333333334,49.0,66.0
678,178.84791666666666,179.16875,57.0,83.0
679,179.09791666666666,179.24583333333334,61.0,83.0
680,179.34791666666666,179.81875,62.0,75.0
681,179.84791666666666,180.34583333333333,59.0,81.0
682,179.59791666666666,180.34791666666666,54.0,69.0
683,179.34791666666666,180.375,47.0,67.0
684,180.34791666666666,180.67291666666665,55.0,73.0
685,180.34791666666666,180.96666666666667,62.0,79.0
686,180.59791666666666,181.1,50.0,71.0
687,180.34791666666666,181.15416666666667,43.0,76.0
688,180.84791666666666,181.20625,55.0,81.0
689,181.09791666666666,181.375,59.0,83.0
690,181.59791666666666,181.75625,55.0,71.0
691,181.34791666666666,181.87916666666666,62.0,85.0
692,181.84791666666666,182.07083333333333,59.0,74.0
693,182.09791666666666,182.20833333333334,55.0,71.0
694,182.34791666666666,182.60416666666666,57.0,70.0
695,182.34791666666666,182.79166666666666,61.0,77.0
696,183.09791666666666,183.24583333333334,61.0,83.0
697,182.84791666666666,183.31875,57.0,82.0
698,182.59791666666666,183.68541666666667,52.0,76.0
699,183.34791666666666,183.70625,64.0,84.0
700,183.59791666666666,183.92916666666667,57.0,83.0
701,182.34791666666666,183.93958333333333,45.0,76.0
702,183.84791666666666,184.14375,61.0,84.0
703,184.09791666666666,184.30416666666667,57.0,84.0
704,184.34791666666666,184.59375,57.0,68.0
705,184.34791666666666,185.07708333333332,66.0,78.0
706,184.84791666666666,185.37916666666666,57.0,74.0
707,185.34791666666666,185.86041666666665,66.0,88.0
708,185.59791666666666,185.9,57.0,74.0
709,184.34791666666666,186.04583333333332,50.0,83.0
710,185.84791666666666,186.09375,62.0,73.0
711,186.09791666666666,186.47916666666666,57.0,65.0
712,186.34791666666666,186.98333333333332,64.0,79.0
713,186.84791666666666,187.55416666666667,52.0,70.0
714,186.34791666666666,187.75833333333333,45.0,75.0
715,187.34791666666666,188.04375,61.0,87.0
716,187.59791666666666,188.12708333333333,49.0,64.0
717,187.84791666666666,188.26041666666666,52.0,77.0
718,188.09791666666666,188.27708333333334,57.0,83.0
719,188.34791666666666,189.01875,62.0,83.0
720,189.09791666666666,189.37916666666666,59.0,83.0
721,188.84791666666666,189.45208333333332,54.0,70.0
722,189.59791666666666,189.8125,54.0,72.0
723,189.34791666666666,189.82291666666666,66.0,83.0
724,188.34791666666666,189.86041666666665,47.0,83.0
725,189.84791666666666,190.15208333333334,59.0,79.0
726,190.09791666666666,190.42916666666667,62.0,70.0
727,190.34791666666666,191.13125,61.0,84.0
728,190.84791666666666,191.53333333333333,52.0,76.0
729,190.34791666666666,191.75416666666666,45.0,78.0
730,191.34791666666666,191.82708333333332,61.0,82.0
731,191.34791666666666,191.86041666666665,57.0,80.0
732,191.84791666666666,192.25,52.0,78.0
733,192.34791666666666,192.61666666666667,55.0,76.0
734,192.34791666666666,192.7875,59.0,77.0
735,192.84791666666666,193.1875,55.0,80.0
736,193.09791666666666,193.4625,62.0,78.0
737,192.59791666666666,193.70416666666665,50.0,76.0
738,192.34791666666666,193.89583333333334,43.0,79.0
739,193.59791666666666,193.9125,55.0,83.0
740,193.34791666666666,193.95208333333332,67.0,79.0
741,193.84791666666666,194.06875,62.0,76.0
742,194.09791666666666,194.22916666666666,55.0,76.0
743,194.34791666666666,194.83541666666667,42.0,72.0
744,194.34791666666666,194.86458333333334,61.0,70.0
745,194.59791666666666,194.90208333333334,49.0,66.0
746,194.84791666666666,195.16875,57.0,83.0
747,195.09791666666666,195.24583333333334,61.0,83.0
748,195.34791666666666,195.81875,62.0,75.0
749,195.84791666666666,196.34583333333333,59.0,81.0
750,195.59791666666666,196.34791666666666,54.0,69.0
751,195.34791666666666,196.375,47.0,67.0
752,196.59791666666666,197.11458333333334,56.0,72.0
753,196.84791666666666,197.1625,59.0,74.0
754,197.09791666666666,197.5375,64.0,85.0
755,196.34791666666666,197.79375,44.0,83.0
756,197.34791666666666,197.83958333333334,56.0,72.0
757,197.59791666666666,198.23958333333334,59.0,72.0
758,198.09791666666666,198.31458333333333,56.0,63.0
759,197.84791666666666,198.62083333333334,64.0,74.0
760,198.84791666666666,199.18125,55.0,67.0
761,198.59791666666666,199.3,52.0,79.0
762,199.09791666666666,199.69375,61.0,85.0
763,198.34791666666666,199.91666666666666,45.0,83.0
764,199.34791666666666,199.96041666666667,49.0,80.0
765,199.59791666666666,200.15208333333334,52.0,78.0
766,199.84791666666666,200.17708333333334,57.0,83.0
767,200.34791666666666,201.475,62.0,70.0
768,200.34791666666666,201.68958333333333,66.0,71.0
769,200.34791666666666,201.86041666666665,50.0,67.0
770,201.59791666666666,201.94583333333333,62.0,71.0
771,201.84791666666666,201.99583333333334,66.0,77.0
772,201.34791666666666,202.02083333333334,57.0,55.0
773,202.34791666666666,203.36041666666665,61.0,58.0
774,202.34791666666666,203.45833333333334,49.0,76.0
775,202.34791666666666,203.4625,64.0,75.0
776,204.34791666666666,204.99375,62.0,69.0
777,204.34791666666666,205.02083333333334,59.0,62.0
778,205.34791666666666,205.48541666666665,59.0,70.0
779,204.84791666666666,205.49791666666667,54.0,51.0
780,204.34791666666666,205.66458333333333,47.0,73.0
781,205.34791666666666,205.76874999999998,62.0,74.0
782,205.34791666666666,205.84166666666667,66.0,72.0
783,205.84791666666666,205.97916666666666,59.0,48.0
784,206.34791666666666,207.07916666666665,55.0,67.0
785,206.34791666666666,207.10208333333333,59.0,67.0
786,207.34791666666666,207.63125,55.0,76.0
787,206.34791666666666,207.92499999999998,43.0,61.0
788,207.34791666666666,208.2125,59.0,79.0
789,207.34791666666666,208.225,62.0,77.0
790,207.84791666666666,208.31041666666667,55.0,83.0
791,208.34791666666666,208.63958333333332,59.0,68.0
792,208.34791666666666,208.95208333333332,64.0,70.0
793,208.84791666666666,209.64374999999998,59.0,68.0
794,209.34791666666666,210.275,64.0,78.0
795,208.34791666666666,210.3125,52.0,74.0
796,209.34791666666666,210.32291666666666,67.0,76.0
797,210.34791666666666,210.74608462083333,55.0,72.0
798,210.34791666666666,211.02535040208332,43.0,67.0
799,210.34791666666666,211.5158813,59.0,72.0
800,211.4588161625,212.7857631375,61.0,75.0
801,211.4588161625,212.80100702291665,57.0,68.0
802,211.4588161625,212.86198256458331,45.0,74.0
803,213.53881107708332,213.79490835208333,52.0,73.0
804,213.76746935833333,213.93820087499998,54.0,61.0
805,214.00832274791665,214.39246866041665,57.0,69.0
806,214.26442002291665,214.61198061041665,62.0,74.0
807,214.57539528541665,214.91380954166667,64.0,79.0
808,214.9199070958333,215.07234595,66.0,70.0
809,213.28881135625,216.34368599375,45.0,63.0
810,212.92905566041665,216.41380786666664,38.0,78.0
