,start,end,pitch,velocity
0,27.540625000000002,27.8390625,70.0,85.0
1,27.915625000000002,28.159375,70.0,95.0
2,28.290625000000002,28.5578125,70.0,93.0
3,28.665625000000002,28.9125,66.0,92.0
4,29.040625000000002,29.34375,66.0,95.0
5,29.415625000000002,29.703125,61.0,96.0
6,29.790625000000002,30.171875,68.0,94.0
7,30.165625000000002,30.5,66.0,94.0
8,30.540625000000002,30.8546875,65.0,93.0
9,30.915625000000002,31.765625,66.0,88.0
10,32.415625,32.706250000000004,63.0,95.0
11,32.790625,33.3921875,70.0,92.0
12,33.540625,33.796875,71.0,94.0
13,33.915625,34.559375,70.0,95.0
14,34.665625,35.328125,66.0,95.0
15,35.415625,35.6640625,66.0,91.0
16,35.790625,36.209375,66.0,97.0
17,36.165625,36.515625,68.0,98.0
18,36.540625,36.921875,70.0,94.0
19,36.915625,38.040625,68.0,97.0
20,38.040625,38.354687500000004,65.0,96.0
21,38.415625000000006,38.609375,63.0,98.0
22,38.790625000000006,39.628125000000004,61.0,93.0
23,39.915625000000006,40.528125,73.0,88.0
24,40.665625000000006,40.921875,71.0,93.0
25,41.040625000000006,41.34375,70.0,94.0
26,41.415625000000006,41.704687500000006,68.0,93.0
27,41.790625000000006,42.06875,68.0,93.0
28,42.165625000000006,42.509375000000006,66.0,93.0
29,42.540625000000006,42.807812500000004,65.0,88.0
30,42.915625000000006,43.890625,66.0,92.0
31,44.040625000000006,44.2890625,68.0,84.0
32,44.415625000000006,44.665625000000006,70.0,96.0
33,44.790625000000006,45.40625,71.0,94.0
34,45.540625000000006,45.78125,70.0,89.0
35,45.915625000000006,46.625,66.0,92.0
36,46.665625000000006,47.417187500000004,63.0,97.0
37,47.415625000000006,48.0234375,70.0,94.0
38,48.165625000000006,50.4921875,68.0,94.0
39,51.540625000000006,51.839062500000004,70.0,85.0
40,51.915625000000006,52.159375000000004,70.0,95.0
41,52.290625000000006,52.557812500000004,70.0,93.0
42,52.665625000000006,52.9125,66.0,92.0
43,53.040625000000006,53.34375,66.0,95.0
44,53.415625000000006,53.703125,61.0,96.0
45,53.790625000000006,54.171875,68.0,94.0
46,54.165625000000006,54.5,66.0,94.0
47,54.540625000000006,54.854687500000004,65.0,93.0
48,54.915625000000006,55.765625,66.0,88.0
49,56.415625000000006,56.706250000000004,63.0,95.0
50,56.790625000000006,57.392187500000006,70.0,92.0
51,57.540625000000006,57.796875,71.0,94.0
52,57.915625000000006,58.559375,70.0,95.0
53,58.665625000000006,59.328125,66.0,95.0
54,59.415625000000006,59.6640625,66.0,91.0
55,59.790625000000006,60.209375,66.0,97.0
56,60.165625000000006,60.515625,68.0,98.0
57,60.540625000000006,60.921875,70.0,94.0
58,60.915625000000006,62.040625000000006,68.0,97.0
59,62.040625000000006,62.354687500000004,65.0,96.0
60,62.415625000000006,62.609375,63.0,98.0
61,62.790625000000006,63.628125000000004,61.0,93.0
62,63.915625000000006,64.528125,73.0,88.0
63,64.665625,64.921875,71.0,93.0
64,65.040625,65.34375,70.0,94.0
65,65.415625,65.7046875,68.0,93.0
66,65.790625,66.06875000000001,68.0,93.0
67,66.165625,66.509375,66.0,93.0
68,66.540625,66.8078125,65.0,88.0
69,66.915625,67.890625,66.0,92.0
70,68.040625,68.2890625,68.0,84.0
71,68.415625,68.665625,70.0,96.0
72,68.790625,69.40625,71.0,94.0
73,69.540625,69.78125,70.0,89.0
74,69.915625,70.625,66.0,92.0
75,70.665625,70.9421875,68.0,96.0
76,71.040625,71.33437500000001,70.0,95.0
77,71.415625,72.08125,71.0,93.0
78,72.165625,72.82656250000001,70.0,93.0
79,72.915625,73.61562500000001,68.0,92.0
80,73.665625,73.92812500000001,66.0,95.0
81,74.040625,74.3234375,68.0,94.0
82,74.415625,76.34218750000001,68.0,93.0
83,76.665625,76.953125,61.0,94.0
84,77.040625,77.3171875,68.0,93.0
85,77.415625,77.67031250000001,70.0,89.0
86,77.790625,79.09218750000001,70.0,96.0
87,79.290625,79.5671875,66.0,93.0
88,79.665625,79.9234375,68.0,95.0
89,80.040625,80.30312500000001,70.0,93.0
90,80.415625,80.634375,75.0,94.0
91,80.790625,81.328125,75.0,94.0
92,81.540625,81.86875,73.0,97.0
93,81.915625,82.46406250000001,68.0,97.0
94,82.665625,82.9390625,61.0,97.0
95,83.040625,83.2890625,68.0,92.0
96,83.415625,83.765625,70.0,94.0
97,83.790625,85.071875,70.0,88.0
98,85.290625,85.60781250000001,66.0,94.0
99,85.665625,85.92812500000001,68.0,97.0
100,86.040625,86.30781250000001,70.0,93.0
101,86.415625,86.7546875,78.0,94.0
102,86.790625,87.34218750000001,77.0,94.0
103,87.540625,87.7859375,78.0,89.0
104,87.915625,88.5234375,77.0,97.0
105,88.665625,89.228125,73.0,98.0
106,89.415625,89.67812500000001,66.0,94.0
107,89.790625,90.5828125,75.0,95.0
108,90.915625,91.22500000000001,66.0,88.0
109,91.290625,91.5515625,65.0,93.0
110,91.665625,91.934375,66.0,89.0
111,92.040625,92.30625,68.0,93.0
112,92.415625,92.72187500000001,75.0,95.0
113,92.790625,93.3015625,73.0,99.0
114,93.540625,94.2421875,70.0,99.0
115,94.290625,95.0,66.0,94.0
116,95.040625,95.3171875,63.0,98.0
117,95.415625,96.5625,71.0,95.0
118,96.915625,97.1921875,63.0,100.0
119,97.290625,97.55312500000001,73.0,97.0
120,97.665625,97.91718750000001,71.0,93.0
121,98.040625,98.278125,70.0,93.0
122,98.415625,99.0359375,70.0,94.0
123,99.165625,99.3671875,71.0,93.0
124,99.540625,99.828125,70.0,91.0
125,99.915625,100.55781250000001,68.0,99.0
126,100.665625,100.953125,61.0,94.0
127,101.040625,101.3171875,68.0,93.0
128,101.415625,101.67031250000001,70.0,89.0
129,101.790625,103.09218750000001,70.0,96.0
130,103.290625,103.5671875,66.0,93.0
131,103.665625,103.9234375,68.0,95.0
132,104.040625,104.30312500000001,70.0,93.0
133,104.415625,104.634375,75.0,94.0
134,104.790625,105.328125,75.0,94.0
135,105.540625,105.86875,73.0,97.0
136,105.915625,106.46406250000001,68.0,97.0
137,106.665625,106.9390625,61.0,97.0
138,107.040625,107.2890625,68.0,92.0
139,107.415625,107.765625,70.0,94.0
140,107.790625,109.071875,70.0,88.0
141,109.290625,109.60781250000001,66.0,94.0
142,109.665625,109.92812500000001,68.0,97.0
143,110.040625,110.30781250000001,70.0,93.0
144,110.415625,110.7546875,78.0,94.0
145,110.790625,111.34218750000001,77.0,94.0
146,111.540625,111.7859375,78.0,89.0
147,111.915625,112.5234375,77.0,97.0
148,112.665625,113.228125,73.0,98.0
149,113.415625,113.67812500000001,66.0,94.0
150,113.790625,114.5828125,75.0,95.0
151,114.915625,115.22500000000001,66.0,88.0
152,115.290625,115.5515625,65.0,93.0
153,115.665625,115.934375,66.0,89.0
154,116.040625,116.30625,68.0,93.0
155,116.415625,116.72187500000001,75.0,95.0
156,116.790625,117.3015625,73.0,99.0
157,117.540625,117.915625,70.0,99.0
158,117.915625,118.625,78.0,94.0
159,118.665625,118.828125,66.0,97.0
160,119.040625,119.309375,68.0,93.0
161,119.415625,119.6890625,70.0,93.0
162,119.790625,121.33906250000001,71.0,94.0
163,121.665625,122.040625,73.0,99.0
164,122.040625,122.40156250000001,71.0,94.0
165,122.415625,122.790625,70.0,89.0
166,122.790625,123.1796875,70.0,91.0
167,123.165625,124.2421875,68.0,89.0
168,124.665625,124.95,66.0,94.0
169,125.040625,125.35781250000001,68.0,94.0
170,125.415625,128.66875000000002,70.0,94.0
171,150.540625,150.8390625,70.0,85.0
172,150.915625,151.159375,70.0,95.0
173,151.290625,151.5578125,70.0,93.0
174,151.665625,151.9125,66.0,92.0
175,152.040625,152.34375,66.0,95.0
176,152.415625,152.703125,61.0,96.0
177,152.790625,153.171875,68.0,94.0
178,153.165625,153.5,66.0,94.0
179,153.540625,153.8546875,65.0,93.0
180,153.915625,154.765625,66.0,88.0
181,155.415625,155.70625,63.0,95.0
182,155.790625,156.3921875,70.0,92.0
183,156.540625,156.796875,71.0,94.0
184,156.915625,157.55937500000002,70.0,95.0
185,157.665625,158.328125,66.0,95.0
186,158.415625,158.6640625,66.0,91.0
187,158.790625,159.20937500000002,66.0,97.0
188,159.165625,159.515625,68.0,98.0
189,159.540625,159.921875,70.0,94.0
190,159.915625,161.040625,68.0,97.0
191,161.040625,161.3546875,65.0,96.0
192,161.415625,161.609375,63.0,98.0
193,161.790625,162.628125,61.0,93.0
194,162.915625,163.52812500000002,73.0,88.0
195,163.665625,163.921875,71.0,93.0
196,164.040625,164.34375,70.0,94.0
197,164.415625,164.7046875,68.0,93.0
198,164.790625,165.06875000000002,68.0,93.0
199,165.165625,165.509375,66.0,93.0
200,165.540625,165.8078125,65.0,88.0
201,165.915625,166.890625,66.0,92.0
202,167.040625,167.2890625,68.0,84.0
203,167.415625,167.665625,70.0,96.0
204,167.790625,168.40625,71.0,94.0
205,168.540625,168.78125,70.0,89.0
206,168.915625,169.625,66.0,92.0
207,169.665625,169.94218750000002,68.0,96.0
208,170.040625,170.33437500000002,70.0,95.0
209,170.415625,171.08125,71.0,93.0
210,171.165625,171.82656250000002,70.0,93.0
211,171.915625,172.61562500000002,68.0,92.0
212,172.665625,172.92812500000002,66.0,95.0
213,173.040625,173.3234375,68.0,94.0
214,173.415625,175.34218750000002,68.0,93.0
215,175.665625,175.953125,61.0,94.0
216,176.040625,176.31718750000002,68.0,93.0
217,176.415625,176.67031250000002,70.0,89.0
218,176.790625,178.09218750000002,70.0,96.0
219,178.290625,178.56718750000002,66.0,93.0
220,178.665625,178.9234375,68.0,95.0
221,179.040625,179.30312500000002,70.0,93.0
222,179.415625,179.634375,75.0,94.0
223,179.790625,180.328125,75.0,94.0
224,180.540625,180.86875,73.0,97.0
225,180.915625,181.4640625,68.0,97.0
226,181.665625,181.9390625,61.0,97.0
227,182.040625,182.2890625,68.0,92.0
228,182.415625,182.765625,70.0,94.0
229,182.790625,184.071875,70.0,88.0
230,184.290625,184.60781250000002,66.0,94.0
231,184.665625,184.92812500000002,68.0,97.0
232,185.040625,185.3078125,70.0,93.0
233,185.415625,185.75468750000002,78.0,94.0
234,185.790625,186.34218750000002,77.0,94.0
235,186.540625,186.78593750000002,78.0,89.0
236,186.915625,187.5234375,77.0,97.0
237,187.665625,188.228125,73.0,98.0
238,188.415625,188.67812500000002,66.0,94.0
239,188.790625,189.58281250000002,75.0,95.0
240,189.915625,190.22500000000002,66.0,88.0
241,190.290625,190.55156250000002,65.0,93.0
242,190.665625,190.93437500000002,66.0,89.0
243,191.040625,191.30625,68.0,93.0
244,191.415625,191.721875,75.0,95.0
245,191.790625,192.30156250000002,73.0,99.0
246,192.540625,193.2421875,70.0,99.0
247,193.290625,194.0,66.0,94.0
248,194.040625,194.31718750000002,63.0,98.0
249,194.415625,195.5625,71.0,95.0
250,195.915625,196.19218750000002,63.0,100.0
251,196.290625,196.55312500000002,73.0,97.0
252,196.665625,196.9171875,71.0,93.0
253,197.040625,197.27812500000002,70.0,93.0
254,197.415625,198.03593750000002,70.0,94.0
255,198.165625,198.3671875,71.0,93.0
256,198.540625,198.828125,70.0,91.0
257,198.915625,199.5578125,68.0,99.0
258,199.665625,199.953125,61.0,94.0
259,200.040625,200.31718750000002,68.0,93.0
260,200.415625,200.67031250000002,70.0,89.0
261,200.790625,202.09218750000002,70.0,96.0
262,202.290625,202.56718750000002,66.0,93.0
263,202.665625,202.9234375,68.0,95.0
264,203.040625,203.30312500000002,70.0,93.0
265,203.415625,203.634375,75.0,94.0
266,203.790625,204.328125,75.0,94.0
267,204.540625,204.86875,73.0,97.0
268,204.915625,205.4640625,68.0,97.0
269,205.665625,205.9390625,61.0,97.0
270,206.040625,206.2890625,68.0,92.0
271,206.415625,206.765625,70.0,94.0
272,206.790625,208.071875,70.0,88.0
273,208.290625,208.60781250000002,66.0,94.0
274,208.665625,208.92812500000002,68.0,97.0
275,209.040625,209.3078125,70.0,93.0
276,209.415625,209.75468750000002,78.0,94.0
277,209.790625,210.34218750000002,77.0,94.0
278,210.540625,210.78593750000002,78.0,89.0
279,210.915625,211.5234375,77.0,97.0
280,211.665625,212.228125,73.0,98.0
281,212.415625,212.67812500000002,66.0,94.0
282,212.790625,213.58281250000002,75.0,95.0
283,213.915625,214.22500000000002,66.0,88.0
284,214.290625,214.55156250000002,65.0,93.0
285,214.665625,214.93437500000002,66.0,89.0
286,215.040625,215.30625,68.0,93.0
287,215.415625,215.721875,75.0,95.0
288,215.790625,216.30156250000002,73.0,99.0
289,216.540625,216.915625,70.0,99.0
290,216.915625,217.625,78.0,94.0
291,217.665625,217.828125,66.0,97.0
292,218.040625,218.30937500000002,68.0,93.0
293,218.415625,218.6890625,70.0,93.0
294,218.790625,220.3390625,71.0,94.0
295,220.665625,221.040625,73.0,99.0
296,221.040625,221.4015625,71.0,94.0
297,221.415625,221.790625,70.0,89.0
298,221.790625,222.1796875,70.0,91.0
299,222.165625,223.2421875,68.0,89.0
300,223.665625,223.95000000000002,66.0,94.0
301,224.040625,224.35781250000002,68.0,94.0
302,224.415625,226.290625,70.0,94.0
303,226.665625,226.953125,68.0,94.0
304,227.040625,227.31718750000002,68.0,93.0
305,227.415625,227.67031250000002,70.0,89.0
306,227.790625,229.09218750000002,72.0,96.0
307,229.290625,229.56718750000002,68.0,93.0
308,229.665625,229.9234375,70.0,95.0
309,230.040625,230.30312500000002,72.0,93.0
310,230.415625,230.634375,77.0,94.0
311,230.790625,231.328125,77.0,94.0
312,231.540625,231.86875,75.0,97.0
313,231.915625,232.4640625,70.0,97.0
314,232.665625,232.9390625,63.0,97.0
315,233.040625,233.2890625,70.0,92.0
316,233.415625,233.765625,72.0,94.0
317,233.790625,235.071875,72.0,88.0
318,235.290625,235.60781250000002,68.0,94.0
319,235.665625,235.92812500000002,70.0,97.0
320,236.040625,236.3078125,72.0,93.0
321,236.415625,236.75468750000002,80.0,94.0
322,236.790625,237.34218750000002,79.0,94.0
323,237.540625,237.78593750000002,80.0,89.0
324,237.915625,238.5234375,79.0,97.0
325,238.665625,239.228125,75.0,98.0
326,239.415625,239.67812500000002,68.0,94.0
327,239.790625,240.58281250000002,77.0,95.0
328,240.915625,241.22500000000002,68.0,88.0
329,241.290625,241.55156250000002,67.0,93.0
330,241.665625,241.93437500000002,68.0,89.0
331,242.040625,242.30625,70.0,93.0
332,242.415625,242.721875,77.0,95.0
333,242.790625,243.30156250000002,75.0,99.0
334,243.540625,244.2421875,72.0,99.0
335,244.290625,245.0,68.0,94.0
336,245.040625,245.31718750000002,65.0,98.0
337,245.415625,246.5625,73.0,95.0
338,246.915625,247.19218750000002,65.0,100.0
339,247.290625,247.55312500000002,75.0,97.0
340,247.665625,247.9171875,73.0,93.0
341,248.040625,248.27812500000002,72.0,93.0
342,248.415625,249.03593750000002,72.0,94.0
343,249.165625,249.3671875,73.0,93.0
344,249.540625,249.828125,72.0,91.0
345,249.915625,250.5578125,70.0,99.0
346,250.665625,250.953125,63.0,94.0
347,251.040625,251.31718750000002,70.0,93.0
348,251.415625,251.67031250000002,72.0,89.0
349,251.790625,253.09218750000002,72.0,96.0
350,253.290625,253.56718750000002,68.0,93.0
351,253.665625,253.9234375,70.0,95.0
352,254.040625,254.30312500000002,72.0,93.0
353,254.415625,254.634375,77.0,94.0
354,254.790625,255.328125,77.0,94.0
355,255.540625,255.86875,75.0,97.0
356,255.915625,256.4640625,70.0,97.0
357,256.66562500000003,256.93906250000003,63.0,97.0
358,257.04062500000003,257.2890625,70.0,92.0
359,257.41562500000003,257.765625,72.0,94.0
360,257.79062500000003,259.07187500000003,72.0,88.0
361,259.29062500000003,259.6078125,68.0,94.0
362,259.66562500000003,259.928125,70.0,97.0
363,260.04062500000003,260.3078125,72.0,93.0
364,260.41562500000003,260.7546875,80.0,94.0
365,260.79062500000003,261.3421875,79.0,94.0
366,261.54062500000003,261.7859375,80.0,89.0
367,261.91562500000003,262.5234375,79.0,97.0
368,262.66562500000003,263.22812500000003,75.0,98.0
369,263.41562500000003,263.678125,68.0,94.0
370,263.79062500000003,264.5828125,77.0,95.0
371,264.91562500000003,265.225,68.0,88.0
372,265.29062500000003,265.5515625,67.0,93.0
373,265.66562500000003,265.934375,68.0,89.0
374,266.04062500000003,266.30625000000003,70.0,93.0
375,266.41562500000003,266.721875,77.0,95.0
376,266.79062500000003,267.3015625,75.0,99.0
377,267.54062500000003,267.91562500000003,72.0,99.0
378,267.91562500000003,269.97812500000003,80.0,94.0
379,271.6328125,271.95625,68.0,96.0
380,272.04843750000003,272.33750000000003,70.0,95.0
381,272.44375,272.7390625,72.0,93.0
382,272.8796875,274.5,73.0,99.0
383,274.646875,275.36875000000003,75.0,95.0
384,275.45468750000003,275.8203125,73.0,95.0
385,275.871875,276.2265625,72.0,94.0
386,276.23125,278.5421875,70.0,94.0
387,278.828125,279.303125,68.0,93.0
388,279.5078125,279.97812500000003,68.0,95.0
389,280.090625,283.2296875,68.0,93.0
