,start,end,pitch,velocity
0,3.5406250000000004,3.8859375000000003,56.0,88.0
1,2.7906250000000004,5.1421875,42.0,93.0
2,3.9156250000000004,5.184375,58.0,85.0
3,3.9156250000000004,5.1875,54.0,88.0
4,3.1656250000000004,5.8656250000000005,49.0,80.0
5,5.790625,6.362500000000001,56.0,83.0
6,5.790625,6.6328125,61.0,90.0
7,6.915625,7.8046875,61.0,93.0
8,6.915625,8.096875,65.0,84.0
9,6.165625,8.1203125,49.0,88.0
10,6.540625,8.1625,56.0,94.0
11,5.790625,8.175,41.0,86.0
12,8.040625,8.6234375,61.0,93.0
13,8.790625,9.3078125,58.0,79.0
14,8.790625,9.609375,66.0,89.0
15,9.915625,10.989062500000001,63.0,93.0
16,9.165625,11.100000000000001,46.0,81.0
17,9.540625,11.106250000000001,58.0,97.0
18,8.790625,11.159375,39.0,94.0
19,9.915625,11.175,66.0,93.0
20,11.790625,12.606250000000001,65.0,86.0
21,11.790625,12.615625000000001,56.0,84.0
22,12.540625,13.0234375,61.0,86.0
23,12.915625,13.8375,56.0,94.0
24,11.790625,14.0,37.0,94.0
25,12.165625,14.003125,44.0,74.0
26,14.790625,15.49375,66.0,88.0
27,14.790625,15.5421875,59.0,86.0
28,15.540625,15.971875,61.0,86.0
29,15.165625,16.08125,54.0,86.0
30,15.915625,16.875,66.0,93.0
31,16.665625000000002,17.2625,59.0,79.0
32,16.290625000000002,17.3421875,54.0,80.0
33,14.790625,17.3546875,47.0,95.0
34,17.040625000000002,17.3953125,63.0,93.0
35,17.790625000000002,18.3484375,58.0,87.0
36,17.790625000000002,18.6078125,61.0,92.0
37,18.165625000000002,19.567187500000003,53.0,72.0
38,18.915625000000002,19.884375000000002,58.0,90.0
39,18.540625000000002,19.9765625,65.0,93.0
40,19.665625000000002,20.0734375,53.0,80.0
41,20.040625000000002,20.225,58.0,92.0
42,17.790625000000002,20.2328125,46.0,88.0
43,20.040625000000002,20.4453125,61.0,94.0
44,20.415625000000002,20.5625,58.0,81.0
45,20.790625000000002,21.584375,56.0,85.0
46,20.790625000000002,21.590625000000003,59.0,89.0
47,21.915625000000002,23.0296875,54.0,89.0
48,21.165625000000002,23.098437500000003,51.0,84.0
49,20.790625000000002,23.171875,44.0,93.0
50,22.290625000000002,23.2015625,59.0,86.0
51,21.540625000000002,23.25625,63.0,97.0
52,23.790625000000002,24.053125,61.0,88.0
53,23.790625000000002,24.1234375,56.0,81.0
54,24.540625000000002,24.918750000000003,49.0,93.0
55,24.915625000000002,25.0890625,56.0,89.0
56,25.290625000000002,25.462500000000002,61.0,91.0
57,24.165625000000002,26.629687500000003,44.0,74.0
58,23.790625000000002,26.6359375,37.0,95.0
59,27.165625000000002,28.548437500000002,49.0,86.0
60,28.478125000000002,28.78125,54.0,75.0
61,27.540625000000002,28.915625000000002,61.0,90.0
62,27.915625000000002,28.970312500000002,66.0,89.0
63,29.040625000000002,29.325000000000003,54.0,93.0
64,29.040625000000002,29.35,61.0,90.0
65,26.790625000000002,29.375,42.0,93.0
66,29.790625000000002,30.337500000000002,58.0,81.0
67,29.790625000000002,30.575000000000003,63.0,90.0
68,30.540625000000002,31.043750000000003,58.0,88.0
69,30.915625000000002,31.348437500000003,65.0,85.0
70,31.665625000000002,31.879687500000003,58.0,80.0
71,31.290625000000002,31.990625,66.0,93.0
72,30.165625000000002,32.2109375,46.0,78.0
73,29.790625000000002,32.253125000000004,39.0,93.0
74,32.040625,32.35,63.0,93.0
75,32.040625,32.3875,58.0,89.0
76,32.790625,33.24375,54.0,81.0
77,32.790625,33.589062500000004,59.0,86.0
78,33.540625,34.4515625,54.0,100.0
79,33.915625,34.5375,63.0,94.0
80,34.665625,34.8015625,54.0,85.0
81,32.790625,35.125,47.0,83.0
82,33.165625,35.206250000000004,51.0,82.0
83,35.040625,35.259375,59.0,91.0
84,35.040625,35.2640625,54.0,94.0
85,35.790625,36.221875000000004,56.0,82.0
86,35.790625,36.5703125,61.0,88.0
87,36.540625,37.089062500000004,56.0,91.0
88,37.665625,37.8375,56.0,85.0
89,36.915625,37.859375,65.0,87.0
90,35.790625,37.9390625,37.0,93.0
91,36.165625,37.948437500000004,44.0,78.0
92,38.040625,38.465625,56.0,89.0
93,38.040625,38.546875,61.0,94.0
94,38.790625000000006,39.2328125,58.0,90.0
95,38.790625000000006,39.5625,61.0,93.0
96,39.540625000000006,40.026562500000004,56.0,94.0
97,39.165625000000006,40.75625,53.0,82.0
98,39.915625000000006,40.923437500000006,65.0,97.0
99,41.040625000000006,41.209375,53.0,84.0
100,38.790625000000006,41.21875,46.0,91.0
101,40.665625000000006,41.3671875,61.0,93.0
102,41.415625000000006,41.923437500000006,58.0,82.0
103,41.790625000000006,42.6296875,66.0,92.0
104,42.915625000000006,43.2640625,66.0,94.0
105,42.540625000000006,43.401562500000004,58.0,104.0
106,43.665625000000006,43.803125,58.0,83.0
107,43.290625000000006,44.0359375,65.0,91.0
108,42.165625000000006,44.196875000000006,46.0,82.0
109,41.790625000000006,44.198437500000004,39.0,94.0
110,44.040625000000006,44.198437500000004,61.0,88.0
111,44.790625000000006,45.221875000000004,56.0,84.0
112,44.790625000000006,45.571875000000006,59.0,93.0
113,45.540625000000006,45.7859375,56.0,94.0
114,45.915625000000006,46.365625,56.0,93.0
115,45.915625000000006,46.517187500000006,63.0,93.0
116,45.165625000000006,46.775000000000006,51.0,86.0
117,44.790625000000006,47.0921875,44.0,94.0
118,46.665625000000006,47.1453125,56.0,91.0
119,46.665625000000006,47.165625000000006,59.0,96.0
120,47.790625000000006,47.890625,37.0,94.0
121,47.790625000000006,48.112500000000004,56.0,85.0
122,47.790625000000006,48.259375000000006,61.0,92.0
123,48.915625000000006,49.087500000000006,61.0,94.0
124,49.290625000000006,49.8015625,61.0,94.0
125,49.290625000000006,49.8203125,65.0,94.0
126,48.540625000000006,50.071875000000006,56.0,96.0
127,49.665625000000006,50.1015625,53.0,83.0
128,48.165625000000006,50.103125000000006,49.0,81.0
129,50.040625000000006,50.19375,61.0,94.0
130,50.790625000000006,51.3875,54.0,88.0
131,50.790625000000006,51.3984375,61.0,89.0
132,51.540625000000006,51.71875,54.0,90.0
133,51.540625000000006,52.0125,58.0,89.0
134,51.915625000000006,52.3578125,54.0,85.0
135,52.290625000000006,52.760937500000004,61.0,89.0
136,52.665625000000006,52.8328125,54.0,78.0
137,53.040625000000006,53.19375,54.0,89.0
138,51.165625000000006,53.259375000000006,49.0,93.0
139,53.040625000000006,53.306250000000006,58.0,98.0
140,53.040625000000006,53.353125000000006,61.0,93.0
141,50.790625000000006,53.360937500000006,42.0,93.0
142,53.790625000000006,54.292187500000004,58.0,87.0
143,53.790625000000006,54.589062500000004,63.0,93.0
144,54.165625000000006,55.459375,46.0,79.0
145,54.915625000000006,55.6703125,63.0,95.0
146,54.540625000000006,55.75625,58.0,98.0
147,54.915625000000006,55.9515625,66.0,95.0
148,55.665625000000006,56.157812500000006,46.0,77.0
149,53.790625000000006,56.2,39.0,94.0
150,56.040625000000006,56.303125,63.0,95.0
151,56.040625000000006,56.3203125,58.0,93.0
152,56.790625000000006,57.042187500000004,54.0,90.0
153,56.790625000000006,57.528125,63.0,93.0
154,57.165625000000006,57.778125,54.0,94.0
155,57.540625000000006,57.95,59.0,94.0
156,57.915625000000006,58.4375,63.0,94.0
157,58.665625000000006,58.984375,59.0,83.0
158,56.790625000000006,59.2546875,47.0,93.0
159,59.040625000000006,59.432812500000004,54.0,94.0
160,59.415625000000006,59.7859375,59.0,91.0
161,59.790625000000006,60.110937500000006,56.0,84.0
162,59.790625000000006,60.125,61.0,91.0
163,60.540625000000006,60.728125000000006,56.0,93.0
164,60.915625000000006,61.25,56.0,94.0
165,60.915625000000006,61.4125,65.0,93.0
166,59.790625000000006,62.0765625,37.0,97.0
167,61.853125000000006,62.112500000000004,56.0,93.0
168,60.165625000000006,62.120312500000004,44.0,81.0
169,61.665625000000006,62.1484375,61.0,92.0
170,62.790625000000006,63.553125,58.0,93.0
171,62.790625000000006,63.5921875,65.0,88.0
172,63.540625000000006,63.9609375,61.0,99.0
173,63.915625000000006,64.2578125,58.0,98.0
174,63.165625000000006,65.2,53.0,77.0
175,62.790625000000006,65.24843750000001,46.0,93.0
176,65.040625,65.453125,65.0,89.0
177,65.040625,65.503125,58.0,95.0
178,65.415625,65.653125,61.0,95.0
179,65.790625,66.3046875,58.0,89.0
180,65.790625,66.6109375,63.0,94.0
181,66.540625,66.9703125,58.0,94.0
182,66.915625,67.203125,66.0,93.0
183,67.290625,67.63906250000001,65.0,92.0
184,67.665625,67.9171875,61.0,87.0
185,68.040625,68.1984375,58.0,90.0
186,66.165625,68.228125,46.0,87.0
187,65.790625,68.2828125,39.0,95.0
188,68.790625,69.265625,56.0,86.0
189,68.790625,69.525,59.0,86.0
190,69.540625,69.71875,56.0,95.0
191,69.915625,70.1140625,56.0,93.0
192,69.915625,70.128125,63.0,95.0
193,69.165625,70.80625,51.0,84.0
194,68.790625,71.0734375,44.0,94.0
195,70.665625,71.1015625,56.0,93.0
196,70.665625,71.1046875,59.0,94.0
197,71.040625,71.1828125,51.0,95.0
198,71.790625,72.290625,52.0,87.0
199,71.790625,72.425,59.0,89.0
200,72.540625,72.7703125,56.0,93.0
201,72.915625,73.078125,52.0,78.0
202,73.665625,73.8125,52.0,83.0
203,72.915625,73.8203125,59.0,94.0
204,72.165625,74.1609375,47.0,86.0
205,71.790625,74.17812500000001,40.0,94.0
206,74.040625,74.2140625,56.0,96.0
207,74.040625,74.2234375,52.0,93.0
208,74.040625,74.24843750000001,59.0,94.0
209,74.790625,75.23125,56.0,89.0
210,74.790625,75.415625,61.0,92.0
211,75.540625,75.68125,56.0,92.0
212,75.915625,76.3625,56.0,94.0
213,75.915625,76.4546875,61.0,97.0
214,75.915625,76.79531250000001,65.0,96.0
215,76.665625,76.7984375,56.0,81.0
216,75.165625,77.1328125,44.0,82.0
217,74.790625,77.1421875,37.0,97.0
218,77.040625,77.2828125,61.0,93.0
219,77.040625,77.2984375,56.0,91.0
220,77.790625,78.2515625,54.0,89.0
221,77.790625,78.59375,61.0,92.0
222,78.540625,78.69843750000001,54.0,99.0
223,78.915625,79.3640625,54.0,95.0
224,79.665625,79.87031250000001,54.0,94.0
225,78.915625,79.94843750000001,61.0,94.0
226,80.040625,80.19375000000001,54.0,95.0
227,77.790625,80.3796875,42.0,94.0
228,80.040625,80.4703125,58.0,100.0
229,80.415625,80.53750000000001,54.0,93.0
230,78.165625,80.7,49.0,84.0
231,80.790625,81.16875,56.0,90.0
232,80.790625,81.19843750000001,61.0,94.0
233,81.540625,82.02968750000001,56.0,91.0
234,81.915625,82.36250000000001,65.0,98.0
235,82.290625,82.69843750000001,61.0,94.0
236,82.665625,82.89687500000001,56.0,94.0
237,80.790625,83.1921875,41.0,91.0
238,81.165625,83.20625000000001,49.0,85.0
239,83.040625,83.26093750000001,56.0,94.0
240,83.040625,83.3671875,61.0,95.0
241,83.790625,84.3328125,58.0,89.0
242,83.790625,84.590625,66.0,92.0
243,84.540625,85.0203125,58.0,98.0
244,84.915625,85.3765625,66.0,94.0
245,85.290625,85.796875,63.0,93.0
246,85.665625,85.87031250000001,58.0,76.0
247,84.165625,86.15468750000001,46.0,85.0
248,83.790625,86.2390625,39.0,95.0
249,86.040625,86.35000000000001,63.0,96.0
250,86.040625,86.3515625,58.0,93.0
251,86.040625,86.38125000000001,66.0,93.0
252,86.415625,86.55625,46.0,79.0
253,86.790625,87.4078125,56.0,87.0
254,86.790625,87.6109375,65.0,92.0
255,87.540625,88.31093750000001,56.0,87.0
256,87.915625,88.3609375,61.0,89.0
257,88.665625,88.8765625,56.0,92.0
258,88.290625,88.92812500000001,65.0,97.0
259,87.165625,88.9765625,44.0,78.0
260,86.790625,89.00625000000001,37.0,96.0
261,89.040625,89.2265625,56.0,94.0
262,89.040625,89.3328125,61.0,95.0
263,89.790625,90.2078125,59.0,87.0
264,89.790625,90.58437500000001,66.0,91.0
265,89.790625,90.9421875,47.0,95.0
266,90.540625,90.96875,59.0,97.0
267,90.165625,91.059375,54.0,87.0
268,90.915625,91.25312500000001,63.0,94.0
269,91.290625,91.67500000000001,61.0,89.0
270,91.665625,92.04218750000001,56.0,88.0
271,91.290625,92.04531250000001,49.0,99.0
272,91.290625,92.1015625,65.0,92.0
273,92.040625,92.203125,61.0,93.0
274,92.790625,93.26093750000001,58.0,92.0
275,93.165625,93.575,53.0,82.0
276,92.790625,93.590625,65.0,84.0
277,92.790625,93.65625,46.0,95.0
278,93.540625,94.41250000000001,58.0,97.0
279,94.665625,95.0796875,46.0,87.0
280,94.290625,95.090625,39.0,96.0
281,94.290625,95.125,66.0,93.0
282,95.040625,95.42031250000001,63.0,95.0
283,95.415625,95.528125,58.0,93.0
284,95.790625,96.3921875,59.0,93.0
285,95.790625,96.5328125,56.0,86.0
286,96.540625,97.015625,63.0,95.0
287,96.915625,97.1140625,56.0,94.0
288,96.165625,97.52968750000001,51.0,88.0
289,97.290625,97.765625,59.0,90.0
290,97.290625,97.78437500000001,56.0,86.0
291,97.665625,98.13593750000001,51.0,73.0
292,95.790625,98.20625000000001,44.0,94.0
293,98.040625,98.22500000000001,56.0,88.0
294,98.040625,98.3609375,59.0,95.0
295,98.040625,98.421875,63.0,96.0
296,98.415625,98.6578125,56.0,88.0
297,98.790625,99.25625000000001,56.0,89.0
298,98.790625,99.4109375,61.0,95.0
299,99.540625,99.86875,56.0,93.0
300,99.915625,100.0359375,63.0,93.0
301,100.290625,100.50312500000001,56.0,92.0
302,100.290625,100.7671875,65.0,94.0
303,100.665625,100.93281250000001,56.0,88.0
304,99.165625,101.13593750000001,44.0,82.0
305,98.790625,101.1484375,37.0,98.0
306,101.040625,101.2515625,56.0,89.0
307,101.040625,101.5234375,61.0,94.0
308,101.415625,101.67812500000001,56.0,90.0
309,101.790625,102.2515625,54.0,89.0
310,101.790625,102.59375,61.0,92.0
311,102.540625,102.69843750000001,54.0,99.0
312,102.915625,103.3640625,54.0,95.0
313,103.665625,103.87031250000001,54.0,94.0
314,102.915625,103.94843750000001,61.0,94.0
315,104.040625,104.19375000000001,54.0,95.0
316,101.790625,104.3796875,42.0,94.0
317,104.040625,104.4703125,58.0,100.0
318,104.415625,104.53750000000001,54.0,93.0
319,102.165625,104.7,49.0,84.0
320,104.790625,105.16875,56.0,90.0
321,104.790625,105.19843750000001,61.0,94.0
322,105.540625,106.02968750000001,56.0,91.0
323,105.915625,106.36250000000001,65.0,98.0
324,106.290625,106.69843750000001,61.0,94.0
325,106.665625,106.89687500000001,56.0,94.0
326,104.790625,107.1921875,41.0,91.0
327,105.165625,107.20625000000001,49.0,85.0
328,107.040625,107.26093750000001,56.0,94.0
329,107.040625,107.3671875,61.0,95.0
330,107.790625,108.3328125,58.0,89.0
331,107.790625,108.590625,66.0,92.0
332,108.540625,109.0203125,58.0,98.0
333,108.915625,109.3765625,66.0,94.0
334,109.290625,109.796875,63.0,93.0
335,109.665625,109.87031250000001,58.0,76.0
336,108.165625,110.15468750000001,46.0,85.0
337,107.790625,110.2390625,39.0,95.0
338,110.040625,110.35000000000001,63.0,96.0
339,110.040625,110.3515625,58.0,93.0
340,110.040625,110.38125000000001,66.0,93.0
341,110.415625,110.55625,46.0,79.0
342,110.790625,111.4078125,56.0,87.0
343,110.790625,111.6109375,65.0,92.0
344,111.540625,112.31093750000001,56.0,87.0
345,111.915625,112.3609375,61.0,89.0
346,112.665625,112.8765625,56.0,92.0
347,112.290625,112.92812500000001,65.0,97.0
348,111.165625,112.9765625,44.0,78.0
349,110.790625,113.00625000000001,37.0,96.0
350,113.040625,113.2265625,56.0,94.0
351,113.040625,113.3328125,61.0,95.0
352,113.790625,114.2078125,59.0,87.0
353,113.790625,114.58437500000001,66.0,91.0
354,113.790625,114.9421875,47.0,95.0
355,114.540625,114.96875,59.0,97.0
356,114.165625,115.059375,54.0,87.0
357,114.915625,115.25312500000001,63.0,94.0
358,115.290625,115.67500000000001,61.0,89.0
359,115.665625,116.04218750000001,56.0,88.0
360,115.290625,116.04531250000001,49.0,99.0
361,115.290625,116.1015625,65.0,92.0
362,116.040625,116.203125,61.0,93.0
363,116.790625,117.26093750000001,58.0,92.0
364,117.165625,117.575,53.0,82.0
365,116.790625,117.590625,65.0,84.0
366,116.790625,117.65625,46.0,95.0
367,117.540625,118.41250000000001,58.0,97.0
368,118.665625,119.0796875,46.0,87.0
369,118.290625,119.090625,39.0,96.0
370,118.290625,119.125,66.0,93.0
371,119.040625,119.42031250000001,63.0,95.0
372,119.415625,119.528125,58.0,93.0
373,119.790625,120.3921875,59.0,93.0
374,119.790625,120.5328125,56.0,86.0
375,120.540625,121.015625,63.0,95.0
376,120.915625,121.1140625,56.0,94.0
377,120.165625,121.52968750000001,51.0,88.0
378,121.290625,121.765625,59.0,90.0
379,121.290625,121.78437500000001,56.0,86.0
380,121.665625,122.13593750000001,51.0,73.0
381,119.790625,122.20625000000001,44.0,94.0
382,122.040625,122.22500000000001,56.0,88.0
383,122.040625,122.3609375,59.0,95.0
384,122.040625,122.421875,63.0,96.0
385,122.415625,122.6578125,56.0,88.0
386,122.790625,123.25625000000001,56.0,89.0
387,122.790625,123.4109375,61.0,95.0
388,123.540625,123.86875,56.0,93.0
389,123.915625,124.0359375,63.0,93.0
390,124.290625,124.50312500000001,56.0,92.0
391,124.290625,124.7671875,65.0,94.0
392,124.665625,124.93281250000001,56.0,88.0
393,123.165625,125.13593750000001,44.0,82.0
394,122.790625,125.1484375,37.0,98.0
395,125.040625,125.2515625,56.0,89.0
396,125.040625,125.5234375,61.0,94.0
397,125.415625,125.67812500000001,56.0,90.0
398,125.790625,126.234375,67.0,88.0
399,125.790625,126.40937500000001,58.0,93.0
400,126.540625,126.7703125,63.0,95.0
401,126.540625,126.790625,58.0,94.0
402,126.540625,126.809375,67.0,93.0
403,127.103125,127.22500000000001,58.0,96.0
404,127.103125,127.290625,63.0,100.0
405,127.478125,127.55000000000001,58.0,94.0
406,126.165625,127.80312500000001,46.0,65.0
407,125.790625,127.9078125,39.0,97.0
408,127.665625,128.1046875,63.0,104.0
409,127.665625,128.11875,58.0,100.0
410,127.665625,128.1265625,67.0,88.0
411,128.228125,128.3859375,58.0,98.0
412,128.040625,128.4171875,39.0,97.0
413,128.228125,128.428125,63.0,104.0
414,128.228125,128.6546875,67.0,98.0
415,128.603125,128.690625,58.0,95.0
416,128.790625,129.27031250000002,67.0,94.0
417,128.790625,129.3609375,58.0,90.0
418,128.790625,129.375,62.0,99.0
419,129.540625,129.91093750000002,58.0,99.0
420,129.540625,129.9625,65.0,96.0
421,129.540625,129.96562500000002,62.0,99.0
422,130.103125,130.265625,62.0,97.0
423,130.103125,130.290625,58.0,95.0
424,130.103125,130.4859375,65.0,94.0
425,128.790625,130.83281250000002,38.0,94.0
426,130.665625,131.021875,70.0,95.0
427,130.665625,131.053125,65.0,88.0
428,130.665625,131.065625,62.0,94.0
429,130.665625,131.07500000000002,58.0,94.0
430,131.040625,131.19218750000002,38.0,88.0
431,131.228125,131.3265625,58.0,97.0
432,131.228125,131.459375,62.0,107.0
433,131.603125,131.671875,62.0,50.0
434,131.228125,131.7046875,65.0,98.0
435,131.228125,131.73125000000002,70.0,99.0
436,131.603125,131.740625,58.0,102.0
437,132.165625,132.4015625,60.0,104.0
438,131.978125,132.70781250000002,55.0,93.0
439,132.540625,132.828125,67.0,95.0
440,131.790625,132.8421875,48.0,119.0
441,132.540625,132.8421875,63.0,99.0
442,132.540625,132.8546875,60.0,97.0
443,133.103125,133.4484375,60.0,94.0
444,133.103125,133.5,67.0,92.0
445,133.290625,133.52812500000002,48.0,84.0
446,133.665625,133.90625,60.0,98.0
447,133.478125,133.9203125,55.0,96.0
448,133.853125,133.9640625,63.0,98.0
449,134.040625,134.275,60.0,100.0
450,134.040625,134.2921875,63.0,104.0
451,134.228125,134.33281250000002,55.0,95.0
452,134.040625,134.43437500000002,67.0,98.0
453,134.415625,134.69375,60.0,99.0
454,134.603125,134.78125,63.0,97.0
455,135.165625,135.2921875,56.0,98.0
456,135.353125,135.59843750000002,60.0,98.0
457,135.353125,135.709375,63.0,95.0
458,135.353125,135.7265625,56.0,92.0
459,134.978125,136.13125,51.0,93.0
460,135.915625,136.3359375,68.0,95.0
461,135.915625,136.34843750000002,60.0,104.0
462,135.915625,136.35,63.0,99.0
463,135.915625,136.36875,56.0,94.0
464,136.290625,136.55,51.0,94.0
465,136.478125,136.71875,56.0,94.0
466,136.478125,136.7296875,68.0,93.0
467,136.478125,136.74375,63.0,98.0
468,136.478125,136.7453125,60.0,104.0
469,136.853125,136.9625,56.0,98.0
470,136.665625,137.071875,51.0,93.0
471,137.040625,137.228125,60.0,107.0
472,137.040625,137.2375,56.0,102.0
473,134.790625,137.2640625,44.0,97.0
474,137.040625,137.26875,63.0,107.0
475,137.228125,137.35,51.0,97.0
476,137.415625,137.515625,44.0,90.0
477,137.790625,137.86406250000002,35.0,99.0
478,137.790625,138.0765625,54.0,94.0
479,137.790625,138.1078125,59.0,94.0
480,137.790625,138.146875,63.0,97.0
481,138.353125,138.5734375,59.0,94.0
482,138.353125,138.578125,63.0,102.0
483,138.540625,139.1328125,54.0,87.0
484,138.165625,139.1484375,47.0,94.0
485,138.915625,139.19218750000002,66.0,96.0
486,138.915625,139.196875,63.0,102.0
487,138.915625,139.2140625,59.0,97.0
488,139.290625,139.515625,54.0,93.0
489,139.478125,139.796875,63.0,110.0
490,139.478125,139.80156250000002,59.0,100.0
491,139.478125,139.815625,66.0,100.0
492,139.478125,139.81875,71.0,94.0
493,139.853125,140.09843750000002,54.0,94.0
494,140.040625,140.225,59.0,100.0
495,140.040625,140.234375,63.0,102.0
496,140.040625,140.259375,66.0,96.0
497,139.665625,140.265625,47.0,95.0
498,140.228125,140.3703125,54.0,97.0
499,140.415625,140.5265625,47.0,100.0
500,140.790625,140.8828125,37.0,98.0
501,140.790625,141.33125,65.0,89.0
502,140.790625,141.3546875,61.0,95.0
503,140.790625,141.3578125,68.0,94.0
504,141.540625,141.609375,68.0,75.0
505,141.540625,141.6734375,61.0,107.0
506,141.353125,141.81718750000002,56.0,94.0
507,141.728125,141.81718750000002,56.0,90.0
508,141.728125,141.9078125,65.0,107.0
509,141.728125,141.9171875,61.0,97.0
510,141.728125,141.940625,68.0,100.0
511,142.103125,142.32500000000002,73.0,96.0
512,142.103125,142.33281250000002,61.0,100.0
513,142.103125,142.3375,65.0,110.0
514,142.103125,142.35,68.0,104.0
515,142.290625,142.553125,56.0,88.0
516,141.165625,142.74687500000002,49.0,92.0
517,142.478125,142.8234375,61.0,94.0
518,142.478125,142.86406250000002,65.0,94.0
519,142.478125,142.8765625,68.0,93.0
520,142.665625,142.92656250000002,53.0,96.0
521,142.853125,143.109375,56.0,97.0
522,143.040625,143.2671875,65.0,86.0
523,143.040625,143.2828125,61.0,107.0
524,143.040625,143.2921875,68.0,93.0
525,143.228125,143.3765625,56.0,99.0
526,143.415625,143.51250000000002,49.0,99.0
527,143.790625,143.9359375,35.0,96.0
528,143.790625,144.23906250000002,59.0,94.0
529,143.790625,144.240625,63.0,98.0
530,144.353125,144.4,63.0,97.0
531,144.353125,144.6203125,66.0,94.0
532,144.353125,144.62187500000002,59.0,97.0
533,144.540625,144.853125,54.0,93.0
534,144.728125,144.990625,59.0,99.0
535,144.728125,145.02031250000002,63.0,110.0
536,144.728125,145.0421875,66.0,107.0
537,144.915625,145.1671875,54.0,92.0
538,145.103125,145.20781250000002,66.0,84.0
539,144.728125,145.23125000000002,71.0,102.0
540,145.103125,145.478125,59.0,104.0
541,145.290625,145.9375,54.0,114.0
542,145.853125,146.040625,63.0,107.0
543,145.853125,146.0640625,66.0,98.0
544,145.665625,146.0859375,59.0,107.0
545,146.040625,146.275,54.0,95.0
546,144.165625,146.3,47.0,97.0
547,146.228125,146.4078125,59.0,100.0
548,146.228125,146.42656250000002,63.0,109.0
549,146.228125,146.45000000000002,66.0,100.0
550,146.415625,146.50625,47.0,95.0
551,146.228125,146.52812500000002,71.0,96.0
552,146.790625,146.884375,37.0,100.0
553,146.790625,147.353125,61.0,95.0
554,146.790625,147.3765625,65.0,97.0
555,146.790625,147.409375,68.0,96.0
556,147.540625,147.803125,61.0,102.0
557,147.728125,147.828125,65.0,99.0
558,147.915625,147.9703125,65.0,89.0
559,147.915625,148.1109375,68.0,100.0
560,148.103125,148.1875,61.0,97.0
561,147.165625,148.25625,49.0,94.0
562,147.353125,148.28125,56.0,94.0
563,148.290625,148.4,56.0,82.0
564,148.290625,148.74687500000002,61.0,104.0
565,148.290625,148.7984375,73.0,104.0
566,148.290625,148.821875,65.0,102.0
567,148.290625,148.821875,68.0,104.0
568,148.665625,149.19218750000002,56.0,94.0
569,148.290625,149.540625,49.0,100.0
570,149.040625,149.5765625,73.0,99.0
571,149.040625,149.609375,65.0,102.0
572,149.040625,149.6390625,61.0,97.0
573,149.415625,149.6421875,56.0,88.0
574,149.040625,149.675,68.0,102.0
575,149.790625,150.34843750000002,58.0,93.0
576,149.790625,150.384375,54.0,91.0
577,150.540625,150.740625,58.0,99.0
578,150.540625,150.75,54.0,94.0
579,150.540625,150.775,61.0,94.0
580,151.103125,151.2765625,54.0,91.0
581,151.103125,151.3234375,58.0,96.0
582,151.103125,151.3296875,61.0,94.0
583,151.665625,151.765625,56.0,92.0
584,150.165625,151.803125,49.0,94.0
585,151.665625,151.8609375,54.0,92.0
586,151.665625,151.8609375,66.0,92.0
587,152.228125,152.25625,54.0,80.0
588,152.040625,152.2734375,49.0,87.0
589,149.790625,152.3046875,42.0,91.0
590,152.228125,152.4484375,58.0,100.0
591,152.228125,152.4765625,61.0,97.0
592,152.415625,152.50468750000002,54.0,99.0
593,152.790625,153.23125000000002,63.0,95.0
594,152.790625,153.2359375,58.0,94.0
595,152.790625,153.640625,51.0,93.0
596,153.540625,153.6484375,58.0,95.0
597,153.540625,153.6484375,66.0,95.0
598,154.103125,154.26250000000002,58.0,93.0
599,154.103125,154.265625,63.0,94.0
600,154.478125,154.6046875,58.0,95.0
601,154.665625,154.75468750000002,63.0,89.0
602,155.040625,155.12968750000002,51.0,96.0
603,155.228125,155.31718750000002,63.0,96.0
604,155.228125,155.33437500000002,58.0,93.0
605,155.228125,155.353125,66.0,95.0
606,155.790625,156.034375,54.0,88.0
607,155.790625,156.20625,59.0,88.0
608,156.165625,156.28125,54.0,82.0
609,156.540625,156.6671875,54.0,94.0
610,156.540625,156.6734375,59.0,98.0
611,156.540625,156.6875,63.0,99.0
612,157.103125,157.2296875,54.0,93.0
613,157.103125,157.28750000000002,63.0,95.0
614,157.290625,157.43437500000002,59.0,86.0
615,157.478125,157.5640625,54.0,88.0
616,155.790625,157.8390625,47.0,89.0
617,157.665625,157.92031250000002,59.0,93.0
618,157.665625,157.95625,54.0,93.0
619,158.040625,158.11406250000002,47.0,94.0
620,158.228125,158.346875,54.0,93.0
621,158.228125,158.359375,59.0,95.0
622,158.228125,158.3703125,63.0,95.0
623,158.790625,159.1578125,56.0,85.0
624,158.790625,159.18125,61.0,86.0
625,159.540625,159.63750000000002,61.0,97.0
626,159.540625,159.6515625,56.0,93.0
627,159.540625,159.6734375,65.0,98.0
628,160.103125,160.321875,56.0,90.0
629,160.103125,160.4234375,61.0,95.0
630,160.478125,160.75625000000002,56.0,94.0
631,160.665625,160.7828125,61.0,89.0
632,160.290625,161.09843750000002,44.0,84.0
633,158.790625,161.1125,37.0,95.0
634,161.040625,161.228125,56.0,95.0
635,161.040625,161.25625000000002,61.0,100.0
636,161.040625,161.33125,65.0,95.0
637,161.790625,162.1484375,58.0,89.0
638,161.790625,162.15312500000002,65.0,86.0
639,161.790625,162.18593750000002,61.0,90.0
640,162.540625,162.759375,56.0,95.0
641,162.540625,162.8078125,61.0,95.0
642,162.540625,162.86562500000002,65.0,90.0
643,162.915625,163.1828125,53.0,52.0
644,163.103125,163.2578125,61.0,96.0
645,163.103125,163.2765625,58.0,94.0
646,163.103125,163.30156250000002,65.0,95.0
647,163.478125,163.6359375,58.0,96.0
648,163.478125,163.64687500000002,61.0,95.0
649,163.478125,163.66875000000002,65.0,93.0
650,163.665625,164.02812500000002,53.0,79.0
651,161.790625,164.1796875,46.0,93.0
652,164.040625,164.203125,58.0,97.0
653,164.040625,164.3,61.0,95.0
654,164.415625,164.59062500000002,58.0,96.0
655,164.790625,165.10000000000002,58.0,94.0
656,164.790625,165.171875,66.0,89.0
657,165.353125,165.43125,58.0,94.0
658,165.540625,165.75,58.0,102.0
659,165.540625,165.94375000000002,66.0,94.0
660,165.165625,166.20156250000002,46.0,81.0
661,166.103125,166.34062500000002,58.0,95.0
662,166.103125,166.3453125,63.0,94.0
663,166.478125,166.71718750000002,58.0,97.0
664,166.665625,166.8546875,63.0,93.0
665,166.290625,167.134375,46.0,89.0
666,167.040625,167.2921875,58.0,95.0
667,167.040625,167.3859375,66.0,93.0
668,164.790625,167.40312500000002,39.0,95.0
669,167.790625,168.21562500000002,59.0,87.0
670,167.790625,168.2203125,56.0,86.0
671,168.540625,168.6484375,59.0,98.0
672,168.540625,168.6578125,63.0,96.0
673,168.540625,168.6640625,56.0,93.0
674,169.103125,169.265625,56.0,92.0
675,169.103125,169.27812500000002,59.0,94.0
676,169.478125,169.61406250000002,56.0,89.0
677,169.665625,169.77187500000002,59.0,88.0
678,169.290625,169.9640625,51.0,81.0
679,170.040625,170.22500000000002,51.0,94.0
680,167.790625,170.25468750000002,44.0,95.0
681,170.228125,170.3609375,56.0,96.0
682,170.228125,170.41250000000002,59.0,100.0
683,170.228125,170.4375,63.0,100.0
684,170.415625,170.5421875,44.0,94.0
685,170.790625,171.20625,56.0,89.0
686,170.790625,171.2296875,52.0,89.0
687,171.165625,171.65625,47.0,85.0
688,171.540625,171.796875,56.0,100.0
689,171.540625,171.815625,59.0,98.0
690,171.540625,171.84218750000002,52.0,94.0
691,171.915625,172.1890625,47.0,81.0
692,172.103125,172.33437500000002,52.0,94.0
693,172.103125,172.446875,59.0,94.0
694,172.478125,172.7265625,52.0,97.0
695,172.665625,172.875,56.0,96.0
696,172.290625,173.10000000000002,47.0,93.0
697,170.790625,173.19375000000002,40.0,93.0
698,173.040625,173.20000000000002,52.0,94.0
699,173.040625,173.20625,56.0,98.0
700,173.040625,173.2359375,59.0,99.0
701,173.415625,173.5578125,40.0,95.0
702,173.790625,174.01406250000002,56.0,88.0
703,173.790625,174.0265625,61.0,88.0
704,174.165625,174.259375,56.0,86.0
705,174.165625,174.27187500000002,61.0,93.0
706,174.165625,174.2921875,65.0,86.0
707,174.540625,174.86875,65.0,97.0
708,174.540625,174.87343750000002,61.0,96.0
709,174.540625,174.8828125,56.0,96.0
710,174.915625,175.13906250000002,44.0,77.0
711,173.790625,175.1515625,37.0,95.0
712,175.103125,175.29375000000002,56.0,94.0
713,175.103125,175.3234375,61.0,97.0
714,175.103125,175.41875000000002,65.0,98.0
715,175.665625,175.9390625,56.0,104.0
716,175.853125,175.946875,61.0,92.0
717,175.478125,176.1484375,44.0,95.0
718,176.040625,176.30625,61.0,97.0
719,176.040625,176.31718750000002,65.0,98.0
720,175.290625,176.34218750000002,37.0,99.0
721,176.040625,176.3546875,56.0,94.0
722,176.415625,176.5265625,37.0,95.0
723,176.790625,177.10781250000002,58.0,93.0
724,176.790625,177.14375,61.0,94.0
725,176.790625,177.20781250000002,54.0,89.0
726,177.165625,177.690625,49.0,89.0
727,177.540625,177.90625,61.0,98.0
728,177.540625,177.921875,58.0,100.0
729,177.540625,177.94375000000002,54.0,88.0
730,177.915625,178.18437500000002,49.0,84.0
731,178.103125,178.29375000000002,54.0,90.0
732,178.103125,178.34843750000002,61.0,98.0
733,178.103125,178.35000000000002,58.0,100.0
734,178.665625,178.88125000000002,58.0,96.0
735,178.478125,178.8921875,54.0,97.0
736,178.290625,179.1828125,49.0,90.0
737,179.040625,179.20625,58.0,99.0
738,179.040625,179.2140625,54.0,95.0
739,179.040625,179.23906250000002,61.0,98.0
740,176.790625,179.253125,42.0,95.0
741,179.415625,179.534375,42.0,96.0
742,179.790625,180.009375,56.0,91.0
743,179.790625,180.21718750000002,61.0,94.0
744,179.790625,180.234375,65.0,93.0
745,180.165625,180.28593750000002,56.0,84.0
746,179.790625,180.4453125,41.0,91.0
747,180.540625,180.87343750000002,61.0,99.0
748,180.540625,180.89531250000002,65.0,102.0
749,180.540625,180.89687500000002,56.0,96.0
750,181.103125,181.29375000000002,56.0,95.0
751,181.103125,181.390625,61.0,97.0
752,181.103125,181.51875,65.0,97.0
753,181.290625,181.534375,41.0,97.0
754,181.478125,181.61406250000002,56.0,99.0
755,181.665625,181.7765625,61.0,94.0
756,181.853125,182.253125,61.0,98.0
757,181.853125,182.27187500000002,56.0,94.0
758,181.853125,182.284375,65.0,95.0
759,182.415625,182.55312500000002,56.0,91.0
760,182.415625,182.57656250000002,61.0,94.0
761,182.415625,182.59375,65.0,92.0
762,182.790625,183.2265625,63.0,94.0
763,182.790625,183.26250000000002,58.0,89.0
764,183.540625,183.7140625,66.0,93.0
765,183.540625,183.7421875,58.0,95.0
766,183.540625,183.75625000000002,63.0,102.0
767,183.165625,184.1984375,46.0,80.0
768,184.103125,184.203125,58.0,95.0
769,182.790625,184.21562500000002,39.0,96.0
770,184.290625,184.45625,58.0,93.0
771,184.290625,184.51250000000002,66.0,92.0
772,184.290625,184.540625,63.0,98.0
773,184.665625,184.759375,58.0,102.0
774,184.478125,184.92031250000002,46.0,88.0
775,184.853125,185.0625,58.0,100.0
776,184.853125,185.07656250000002,63.0,102.0
777,184.853125,185.078125,66.0,93.0
778,185.040625,185.27031250000002,46.0,92.0
779,184.290625,185.2984375,39.0,96.0
780,185.228125,185.378125,58.0,99.0
781,185.228125,185.43593750000002,63.0,107.0
782,185.228125,185.4609375,66.0,95.0
783,185.415625,185.52812500000002,39.0,98.0
784,185.790625,185.9921875,56.0,93.0
785,185.790625,186.196875,61.0,94.0
786,186.165625,186.3140625,56.0,92.0
787,185.790625,186.61562500000002,49.0,109.0
788,186.540625,186.93593750000002,56.0,96.0
789,186.540625,186.95781250000002,65.0,100.0
790,186.540625,186.96875,61.0,99.0
791,187.103125,187.30625,56.0,93.0
792,187.103125,187.425,61.0,99.0
793,187.103125,187.55937500000002,65.0,99.0
794,187.478125,187.86406250000002,56.0,100.0
795,187.665625,187.9,61.0,92.0
796,187.290625,188.15468750000002,49.0,99.0
797,188.040625,188.24843750000002,56.0,94.0
798,188.040625,188.2609375,61.0,95.0
799,188.040625,188.29375000000002,65.0,94.0
800,188.415625,188.4953125,49.0,99.0
801,188.790625,189.02968750000002,54.0,93.0
802,188.790625,189.2265625,59.0,88.0
803,188.790625,189.23281250000002,63.0,94.0
804,189.165625,189.609375,42.0,81.0
805,189.540625,189.8234375,54.0,95.0
806,189.728125,189.890625,42.0,93.0
807,188.790625,189.95625,35.0,94.0
808,189.540625,189.95937500000002,59.0,98.0
809,189.540625,189.98281250000002,63.0,104.0
810,190.103125,190.20937500000002,54.0,97.0
811,190.290625,190.59375,56.0,95.0
812,190.290625,190.61562500000002,61.0,87.0
813,190.665625,191.10625000000002,44.0,87.0
814,190.290625,191.19218750000002,37.0,99.0
815,191.228125,191.31718750000002,37.0,98.0
816,191.040625,191.33125,56.0,94.0
817,191.040625,191.38906250000002,61.0,94.0
818,191.040625,191.41250000000002,65.0,91.0
819,191.790625,192.26250000000002,58.0,88.0
820,191.790625,192.26250000000002,65.0,93.0
821,191.790625,192.265625,61.0,93.0
822,192.165625,192.65468750000002,53.0,81.0
823,191.790625,192.70000000000002,46.0,98.0
824,192.540625,192.8203125,58.0,96.0
825,192.540625,192.8390625,61.0,102.0
826,192.540625,192.88125000000002,65.0,98.0
827,192.915625,193.01250000000002,46.0,89.0
828,193.103125,193.221875,58.0,98.0
829,193.290625,193.52812500000002,58.0,90.0
830,193.290625,193.60000000000002,63.0,95.0
831,193.290625,193.63906250000002,66.0,90.0
832,193.853125,193.953125,58.0,96.0
833,193.665625,194.1953125,46.0,87.0
834,194.040625,194.265625,58.0,97.0
835,194.040625,194.353125,66.0,97.0
836,194.228125,194.36875,46.0,94.0
837,193.290625,194.375,39.0,98.0
838,194.415625,194.63125000000002,63.0,99.0
839,194.603125,194.7140625,58.0,95.0
840,194.790625,195.21562500000002,59.0,94.0
841,194.790625,195.23125000000002,56.0,94.0
842,195.165625,195.65312500000002,51.0,93.0
843,194.790625,195.81718750000002,44.0,94.0
844,195.540625,195.84062500000002,63.0,102.0
845,195.540625,195.85000000000002,59.0,104.0
846,195.540625,195.86875,56.0,94.0
847,195.915625,196.046875,51.0,77.0
848,196.103125,196.35000000000002,56.0,96.0
849,196.290625,196.484375,59.0,99.0
850,196.290625,196.4953125,63.0,98.0
851,196.290625,196.51406250000002,68.0,95.0
852,196.665625,196.79531250000002,56.0,95.0
853,196.478125,196.9015625,51.0,93.0
854,196.853125,196.99375,56.0,81.0
855,196.853125,197.08125,63.0,99.0
856,196.853125,197.08281250000002,59.0,102.0
857,196.290625,197.27812500000002,44.0,96.0
858,197.040625,197.30312500000002,51.0,94.0
859,197.228125,197.484375,56.0,102.0
860,197.415625,197.60000000000002,59.0,100.0
861,197.603125,197.72500000000002,56.0,94.0
862,197.790625,197.953125,61.0,95.0
863,197.790625,197.97343750000002,56.0,91.0
864,198.165625,198.2765625,61.0,94.0
865,198.165625,198.3046875,56.0,90.0
866,198.165625,198.3296875,65.0,83.0
867,197.790625,198.80625,37.0,100.0
868,198.540625,198.8609375,56.0,96.0
869,198.540625,198.9234375,61.0,97.0
870,198.540625,198.9375,65.0,97.0
871,198.915625,199.09375,44.0,87.0
872,199.103125,199.203125,56.0,95.0
873,199.290625,199.52031250000002,56.0,89.0
874,199.290625,199.56718750000002,61.0,94.0
875,199.290625,199.63125000000002,65.0,95.0
876,199.665625,199.7609375,56.0,95.0
877,199.478125,199.93437500000002,44.0,93.0
878,199.853125,200.06093750000002,56.0,98.0
879,199.853125,200.096875,61.0,102.0
880,199.853125,200.14531250000002,65.0,93.0
881,200.228125,200.359375,56.0,99.0
882,200.415625,200.65312500000002,61.0,98.0
883,200.415625,200.665625,65.0,94.0
884,200.040625,200.6953125,44.0,90.0
885,200.603125,200.70000000000002,56.0,97.0
886,199.290625,200.71718750000002,37.0,98.0
887,200.790625,201.10781250000002,58.0,93.0
888,200.790625,201.14375,61.0,94.0
889,200.790625,201.20781250000002,54.0,89.0
890,201.165625,201.690625,49.0,89.0
891,201.540625,201.90625,61.0,98.0
892,201.540625,201.921875,58.0,100.0
893,201.540625,201.94375000000002,54.0,88.0
894,201.915625,202.18437500000002,49.0,84.0
895,202.103125,202.29375000000002,54.0,90.0
896,202.103125,202.34843750000002,61.0,98.0
897,202.103125,202.35000000000002,58.0,100.0
898,202.665625,202.88125000000002,58.0,96.0
899,202.478125,202.8921875,54.0,97.0
900,202.290625,203.1828125,49.0,90.0
901,203.040625,203.20625,58.0,99.0
902,203.040625,203.2140625,54.0,95.0
903,203.040625,203.23906250000002,61.0,98.0
904,200.790625,203.253125,42.0,95.0
905,203.415625,203.534375,42.0,96.0
906,203.790625,204.009375,56.0,91.0
907,203.790625,204.21718750000002,61.0,94.0
908,203.790625,204.234375,65.0,93.0
909,204.165625,204.28593750000002,56.0,84.0
910,203.790625,204.4453125,41.0,91.0
911,204.540625,204.87343750000002,61.0,99.0
912,204.540625,204.89531250000002,65.0,102.0
913,204.540625,204.89687500000002,56.0,96.0
914,205.103125,205.29375000000002,56.0,95.0
915,205.103125,205.390625,61.0,97.0
916,205.103125,205.51875,65.0,97.0
917,205.290625,205.534375,41.0,97.0
918,205.478125,205.61406250000002,56.0,99.0
919,205.665625,205.7765625,61.0,94.0
920,205.853125,206.253125,61.0,98.0
921,205.853125,206.27187500000002,56.0,94.0
922,205.853125,206.284375,65.0,95.0
923,206.415625,206.55312500000002,56.0,91.0
924,206.415625,206.57656250000002,61.0,94.0
925,206.415625,206.59375,65.0,92.0
926,206.790625,207.2265625,63.0,94.0
927,206.790625,207.26250000000002,58.0,89.0
928,207.540625,207.7140625,66.0,93.0
929,207.540625,207.7421875,58.0,95.0
930,207.540625,207.75625000000002,63.0,102.0
931,207.165625,208.1984375,46.0,80.0
932,208.103125,208.203125,58.0,95.0
933,206.790625,208.21562500000002,39.0,96.0
934,208.290625,208.45625,58.0,93.0
935,208.290625,208.51250000000002,66.0,92.0
936,208.290625,208.540625,63.0,98.0
937,208.665625,208.759375,58.0,102.0
938,208.478125,208.92031250000002,46.0,88.0
939,208.853125,209.0625,58.0,100.0
940,208.853125,209.07656250000002,63.0,102.0
941,208.853125,209.078125,66.0,93.0
942,209.040625,209.27031250000002,46.0,92.0
943,208.290625,209.2984375,39.0,96.0
944,209.228125,209.378125,58.0,99.0
945,209.228125,209.43593750000002,63.0,107.0
946,209.228125,209.4609375,66.0,95.0
947,209.415625,209.52812500000002,39.0,98.0
948,209.790625,209.9921875,56.0,93.0
949,209.790625,210.196875,61.0,94.0
950,210.165625,210.3140625,56.0,92.0
951,209.790625,210.61562500000002,49.0,109.0
952,210.540625,210.93593750000002,56.0,96.0
953,210.540625,210.95781250000002,65.0,100.0
954,210.540625,210.96875,61.0,99.0
955,211.103125,211.30625,56.0,93.0
956,211.103125,211.425,61.0,99.0
957,211.103125,211.55937500000002,65.0,99.0
958,211.478125,211.86406250000002,56.0,100.0
959,211.665625,211.9,61.0,92.0
960,211.290625,212.15468750000002,49.0,99.0
961,212.040625,212.24843750000002,56.0,94.0
962,212.040625,212.2609375,61.0,95.0
963,212.040625,212.29375000000002,65.0,94.0
964,212.415625,212.4953125,49.0,99.0
965,212.790625,213.02968750000002,54.0,93.0
966,212.790625,213.2265625,59.0,88.0
967,212.790625,213.23281250000002,63.0,94.0
968,213.165625,213.609375,42.0,81.0
969,213.540625,213.8234375,54.0,95.0
970,213.728125,213.890625,42.0,93.0
971,212.790625,213.95625,35.0,94.0
972,213.540625,213.95937500000002,59.0,98.0
973,213.540625,213.98281250000002,63.0,104.0
974,214.103125,214.20937500000002,54.0,97.0
975,214.290625,214.59375,56.0,95.0
976,214.290625,214.61562500000002,61.0,87.0
977,214.665625,215.10625000000002,44.0,87.0
978,214.290625,215.19218750000002,37.0,99.0
979,215.228125,215.31718750000002,37.0,98.0
980,215.040625,215.33125,56.0,94.0
981,215.040625,215.38906250000002,61.0,94.0
982,215.040625,215.41250000000002,65.0,91.0
983,215.790625,216.26250000000002,58.0,88.0
984,215.790625,216.26250000000002,65.0,93.0
985,215.790625,216.265625,61.0,93.0
986,216.165625,216.65468750000002,53.0,81.0
987,215.790625,216.70000000000002,46.0,98.0
988,216.540625,216.8203125,58.0,96.0
989,216.540625,216.8390625,61.0,102.0
990,216.540625,216.88125000000002,65.0,98.0
991,216.915625,217.01250000000002,46.0,89.0
992,217.103125,217.221875,58.0,98.0
993,217.290625,217.52812500000002,58.0,90.0
994,217.290625,217.60000000000002,63.0,95.0
995,217.290625,217.63906250000002,66.0,90.0
996,217.853125,217.953125,58.0,96.0
997,217.665625,218.1953125,46.0,87.0
998,218.040625,218.265625,58.0,97.0
999,218.040625,218.353125,66.0,97.0
1000,218.228125,218.36875,46.0,94.0
1001,217.290625,218.375,39.0,98.0
1002,218.415625,218.63125000000002,63.0,99.0
1003,218.603125,218.7140625,58.0,95.0
1004,218.790625,219.21562500000002,59.0,94.0
1005,218.790625,219.23125000000002,56.0,94.0
1006,219.165625,219.65312500000002,51.0,93.0
1007,218.790625,219.81718750000002,44.0,94.0
1008,219.540625,219.84062500000002,63.0,102.0
1009,219.540625,219.85000000000002,59.0,104.0
1010,219.540625,219.86875,56.0,94.0
1011,219.915625,220.046875,51.0,77.0
1012,220.103125,220.35000000000002,56.0,96.0
1013,220.290625,220.484375,59.0,99.0
1014,220.290625,220.4953125,63.0,98.0
1015,220.290625,220.51406250000002,68.0,95.0
1016,220.665625,220.79531250000002,56.0,95.0
1017,220.478125,220.9015625,51.0,93.0
1018,220.853125,220.99375,56.0,81.0
1019,220.853125,221.08125,63.0,99.0
1020,220.853125,221.08281250000002,59.0,102.0
1021,220.290625,221.27812500000002,44.0,96.0
1022,221.040625,221.30312500000002,51.0,94.0
1023,221.228125,221.484375,56.0,102.0
1024,221.415625,221.60000000000002,59.0,100.0
1025,221.603125,221.72500000000002,56.0,94.0
1026,221.790625,221.953125,61.0,95.0
1027,221.790625,221.97343750000002,56.0,91.0
1028,222.165625,222.2765625,61.0,94.0
1029,222.165625,222.3046875,56.0,90.0
1030,222.165625,222.3296875,65.0,83.0
1031,221.790625,222.80625,37.0,100.0
1032,222.540625,222.8609375,56.0,96.0
1033,222.540625,222.9234375,61.0,97.0
1034,222.540625,222.9375,65.0,97.0
1035,222.915625,223.09375,44.0,87.0
1036,223.103125,223.203125,56.0,95.0
1037,223.290625,223.52031250000002,56.0,89.0
1038,223.290625,223.56718750000002,61.0,94.0
1039,223.290625,223.63125000000002,65.0,95.0
1040,223.665625,223.7609375,56.0,95.0
1041,223.478125,223.93437500000002,44.0,93.0
1042,223.853125,224.06093750000002,56.0,98.0
1043,223.853125,224.096875,61.0,102.0
1044,223.853125,224.14531250000002,65.0,93.0
1045,224.228125,224.359375,56.0,99.0
1046,224.415625,224.65312500000002,61.0,98.0
1047,224.415625,224.665625,65.0,94.0
1048,224.040625,224.6953125,44.0,90.0
1049,224.603125,224.70000000000002,56.0,97.0
1050,223.290625,224.71718750000002,37.0,98.0
1051,224.790625,225.234375,67.0,88.0
1052,224.790625,225.409375,58.0,93.0
1053,225.540625,225.77031250000002,63.0,95.0
1054,225.540625,225.790625,58.0,94.0
1055,225.540625,225.80937500000002,67.0,93.0
1056,226.103125,226.22500000000002,58.0,96.0
1057,226.103125,226.290625,63.0,100.0
1058,226.478125,226.55,58.0,94.0
1059,225.165625,226.80312500000002,46.0,65.0
1060,224.790625,226.9078125,39.0,97.0
1061,226.665625,227.1046875,63.0,104.0
1062,226.665625,227.11875,58.0,100.0
1063,226.665625,227.1265625,67.0,88.0
1064,227.228125,227.3859375,58.0,98.0
1065,227.040625,227.4171875,39.0,97.0
1066,227.228125,227.42812500000002,63.0,104.0
1067,227.228125,227.65468750000002,67.0,98.0
1068,227.603125,227.690625,58.0,95.0
1069,227.790625,228.10781250000002,60.0,93.0
1070,227.790625,228.14375,63.0,94.0
1071,227.790625,228.20781250000002,56.0,89.0
1072,228.165625,228.690625,51.0,89.0
1073,228.540625,228.90625,63.0,98.0
1074,228.540625,228.921875,60.0,100.0
1075,228.540625,228.94375000000002,56.0,88.0
1076,228.915625,229.18437500000002,51.0,84.0
1077,229.103125,229.29375000000002,56.0,90.0
1078,229.103125,229.34843750000002,63.0,98.0
1079,229.103125,229.35000000000002,60.0,100.0
1080,229.665625,229.88125000000002,60.0,96.0
1081,229.478125,229.8921875,56.0,97.0
1082,229.290625,230.1828125,51.0,90.0
1083,230.040625,230.20625,60.0,99.0
1084,230.040625,230.2140625,56.0,95.0
1085,230.040625,230.23906250000002,63.0,98.0
1086,227.790625,230.253125,44.0,95.0
1087,230.415625,230.534375,44.0,96.0
1088,230.790625,231.009375,58.0,91.0
1089,230.790625,231.21718750000002,63.0,94.0
1090,230.790625,231.234375,67.0,93.0
1091,231.165625,231.28593750000002,58.0,84.0
1092,230.790625,231.4453125,43.0,91.0
1093,231.540625,231.87343750000002,63.0,99.0
1094,231.540625,231.89531250000002,67.0,102.0
1095,231.540625,231.89687500000002,58.0,96.0
1096,232.103125,232.29375000000002,58.0,95.0
1097,232.103125,232.390625,63.0,97.0
1098,232.103125,232.51875,67.0,97.0
1099,232.290625,232.534375,43.0,97.0
1100,232.478125,232.61406250000002,58.0,99.0
1101,232.665625,232.7765625,63.0,94.0
1102,232.853125,233.253125,63.0,98.0
1103,232.853125,233.27187500000002,58.0,94.0
1104,232.853125,233.284375,67.0,95.0
1105,233.415625,233.55312500000002,58.0,91.0
1106,233.415625,233.57656250000002,63.0,94.0
1107,233.415625,233.59375,67.0,92.0
1108,233.790625,234.2265625,65.0,94.0
1109,233.790625,234.26250000000002,60.0,89.0
1110,234.540625,234.7140625,68.0,93.0
1111,234.540625,234.7421875,60.0,95.0
1112,234.540625,234.75625000000002,65.0,102.0
1113,234.165625,235.1984375,48.0,80.0
1114,235.103125,235.203125,60.0,95.0
1115,233.790625,235.21562500000002,41.0,96.0
1116,235.290625,235.45625,60.0,93.0
1117,235.290625,235.51250000000002,68.0,92.0
1118,235.290625,235.540625,65.0,98.0
1119,235.665625,235.759375,60.0,102.0
1120,235.478125,235.92031250000002,48.0,88.0
1121,235.853125,236.0625,60.0,100.0
1122,235.853125,236.07656250000002,65.0,102.0
1123,235.853125,236.078125,68.0,93.0
1124,236.040625,236.27031250000002,48.0,92.0
1125,235.290625,236.2984375,41.0,96.0
1126,236.228125,236.378125,60.0,99.0
1127,236.228125,236.43593750000002,65.0,107.0
1128,236.228125,236.4609375,68.0,95.0
1129,236.415625,236.52812500000002,41.0,98.0
1130,236.790625,236.9921875,58.0,93.0
1131,236.790625,237.196875,63.0,94.0
1132,237.165625,237.3140625,58.0,92.0
1133,236.790625,237.61562500000002,51.0,109.0
1134,237.540625,237.93593750000002,58.0,96.0
1135,237.540625,237.95781250000002,67.0,100.0
1136,237.540625,237.96875,63.0,99.0
1137,238.103125,238.30625,58.0,93.0
1138,238.103125,238.425,63.0,99.0
1139,238.103125,238.55937500000002,67.0,99.0
1140,238.478125,238.86406250000002,58.0,100.0
1141,238.665625,238.9,63.0,92.0
1142,238.290625,239.15468750000002,51.0,99.0
1143,239.040625,239.24843750000002,58.0,94.0
1144,239.040625,239.2609375,63.0,95.0
1145,239.040625,239.29375000000002,67.0,94.0
1146,239.415625,239.4953125,51.0,99.0
1147,239.790625,240.02968750000002,56.0,93.0
1148,239.790625,240.2265625,61.0,88.0
1149,239.790625,240.23281250000002,65.0,94.0
1150,240.165625,240.609375,44.0,81.0
1151,240.540625,240.8234375,56.0,95.0
1152,240.728125,240.890625,44.0,93.0
1153,239.790625,240.95625,37.0,94.0
1154,240.540625,240.95937500000002,61.0,98.0
1155,240.540625,240.98281250000002,65.0,104.0
1156,241.103125,241.20937500000002,56.0,97.0
1157,241.290625,241.59375,58.0,95.0
1158,241.290625,241.61562500000002,63.0,87.0
1159,241.665625,242.10625000000002,46.0,87.0
1160,241.290625,242.19218750000002,39.0,99.0
1161,242.228125,242.31718750000002,39.0,98.0
1162,242.040625,242.33125,58.0,94.0
1163,242.040625,242.38906250000002,63.0,94.0
1164,242.040625,242.41250000000002,67.0,91.0
1165,242.790625,243.26250000000002,60.0,88.0
1166,242.790625,243.26250000000002,67.0,93.0
1167,242.790625,243.265625,63.0,93.0
1168,243.165625,243.65468750000002,55.0,81.0
1169,242.790625,243.70000000000002,48.0,98.0
1170,243.540625,243.8203125,60.0,96.0
1171,243.540625,243.8390625,63.0,102.0
1172,243.540625,243.88125000000002,67.0,98.0
1173,243.915625,244.01250000000002,48.0,89.0
1174,244.103125,244.221875,60.0,98.0
1175,244.290625,244.52812500000002,60.0,90.0
1176,244.290625,244.60000000000002,65.0,95.0
1177,244.290625,244.63906250000002,68.0,90.0
1178,244.853125,244.953125,60.0,96.0
1179,244.665625,245.1953125,48.0,87.0
1180,245.040625,245.265625,60.0,97.0
1181,245.040625,245.353125,68.0,97.0
1182,245.228125,245.36875,48.0,94.0
1183,244.290625,245.375,41.0,98.0
1184,245.415625,245.63125000000002,65.0,99.0
1185,245.603125,245.7140625,60.0,95.0
1186,245.790625,246.21562500000002,61.0,94.0
1187,245.790625,246.23125000000002,58.0,94.0
1188,246.165625,246.65312500000002,53.0,93.0
1189,245.790625,246.81718750000002,46.0,94.0
1190,246.540625,246.84062500000002,65.0,102.0
1191,246.540625,246.85000000000002,61.0,104.0
1192,246.540625,246.86875,58.0,94.0
1193,246.915625,247.046875,53.0,77.0
1194,247.103125,247.35000000000002,58.0,96.0
1195,247.290625,247.484375,61.0,99.0
1196,247.290625,247.4953125,65.0,98.0
1197,247.290625,247.51406250000002,70.0,95.0
1198,247.665625,247.79531250000002,58.0,95.0
1199,247.478125,247.9015625,53.0,93.0
1200,247.853125,247.99375,58.0,81.0
1201,247.853125,248.08125,65.0,99.0
1202,247.853125,248.08281250000002,61.0,102.0
1203,247.290625,248.27812500000002,46.0,96.0
1204,248.040625,248.30312500000002,53.0,94.0
1205,248.228125,248.484375,58.0,102.0
1206,248.415625,248.60000000000002,61.0,100.0
1207,248.603125,248.72500000000002,58.0,94.0
1208,248.790625,248.953125,63.0,95.0
1209,248.790625,248.97343750000002,58.0,91.0
1210,249.165625,249.2765625,63.0,94.0
1211,249.165625,249.3046875,58.0,90.0
1212,249.165625,249.3296875,67.0,83.0
1213,248.790625,249.80625,39.0,100.0
1214,249.540625,249.8609375,58.0,96.0
1215,249.540625,249.9234375,63.0,97.0
1216,249.540625,249.9375,67.0,97.0
1217,249.915625,250.09375,46.0,87.0
1218,250.103125,250.203125,58.0,95.0
1219,250.290625,250.52031250000002,58.0,89.0
1220,250.290625,250.56718750000002,63.0,94.0
1221,250.290625,250.63125000000002,67.0,95.0
1222,250.665625,250.7609375,58.0,95.0
1223,250.478125,250.93437500000002,46.0,93.0
1224,250.853125,251.06093750000002,58.0,98.0
1225,250.853125,251.096875,63.0,102.0
1226,250.853125,251.14531250000002,67.0,93.0
1227,251.228125,251.359375,58.0,99.0
1228,251.415625,251.65312500000002,63.0,98.0
1229,251.415625,251.665625,67.0,94.0
1230,251.040625,251.6953125,46.0,90.0
1231,251.603125,251.70000000000002,58.0,97.0
1232,250.290625,251.71718750000002,39.0,98.0
1233,251.790625,252.10781250000002,60.0,93.0
1234,251.790625,252.14375,63.0,94.0
1235,251.790625,252.20781250000002,56.0,89.0
1236,252.165625,252.690625,51.0,89.0
1237,252.540625,252.90625,63.0,98.0
1238,252.540625,252.921875,60.0,100.0
1239,252.540625,252.94375000000002,56.0,88.0
1240,252.915625,253.18437500000002,51.0,84.0
1241,253.103125,253.29375000000002,56.0,90.0
1242,253.103125,253.34843750000002,63.0,98.0
1243,253.103125,253.35000000000002,60.0,100.0
1244,253.665625,253.88125000000002,60.0,96.0
1245,253.478125,253.8921875,56.0,97.0
1246,253.290625,254.1828125,51.0,90.0
1247,254.040625,254.20625,60.0,99.0
1248,254.040625,254.2140625,56.0,95.0
1249,254.040625,254.23906250000002,63.0,98.0
1250,251.790625,254.253125,44.0,95.0
1251,254.415625,254.534375,44.0,96.0
1252,254.790625,255.009375,58.0,91.0
1253,254.790625,255.21718750000002,63.0,94.0
1254,254.790625,255.234375,67.0,93.0
1255,255.165625,255.28593750000002,58.0,84.0
1256,254.790625,255.4453125,43.0,91.0
1257,255.540625,255.87343750000002,63.0,99.0
1258,255.540625,255.89531250000002,67.0,102.0
1259,255.540625,255.89687500000002,58.0,96.0
1260,256.10312500000003,256.29375,58.0,95.0
1261,256.10312500000003,256.390625,63.0,97.0
1262,256.10312500000003,256.51875,67.0,97.0
1263,256.29062500000003,256.534375,43.0,97.0
1264,256.47812500000003,256.6140625,58.0,99.0
1265,256.66562500000003,256.7765625,63.0,94.0
1266,256.85312500000003,257.253125,63.0,98.0
1267,256.85312500000003,257.271875,58.0,94.0
1268,256.85312500000003,257.284375,67.0,95.0
1269,257.41562500000003,257.553125,58.0,91.0
1270,257.41562500000003,257.5765625,63.0,94.0
1271,257.41562500000003,257.59375,67.0,92.0
1272,257.79062500000003,258.2265625,65.0,94.0
1273,257.79062500000003,258.2625,60.0,89.0
1274,258.54062500000003,258.7140625,68.0,93.0
1275,258.54062500000003,258.7421875,60.0,95.0
1276,258.54062500000003,258.75625,65.0,102.0
1277,258.16562500000003,259.1984375,48.0,80.0
1278,259.10312500000003,259.203125,60.0,95.0
1279,257.79062500000003,259.215625,41.0,96.0
1280,259.29062500000003,259.45625,60.0,93.0
1281,259.29062500000003,259.5125,68.0,92.0
1282,259.29062500000003,259.54062500000003,65.0,98.0
1283,259.66562500000003,259.75937500000003,60.0,102.0
1284,259.47812500000003,259.9203125,48.0,88.0
1285,259.85312500000003,260.0625,60.0,100.0
1286,259.85312500000003,260.0765625,65.0,102.0
1287,259.85312500000003,260.078125,68.0,93.0
1288,260.04062500000003,260.2703125,48.0,92.0
1289,259.29062500000003,260.29843750000003,41.0,96.0
1290,260.22812500000003,260.378125,60.0,99.0
1291,260.22812500000003,260.4359375,65.0,107.0
1292,260.22812500000003,260.4609375,68.0,95.0
1293,260.41562500000003,260.528125,41.0,98.0
1294,260.79062500000003,260.9921875,58.0,93.0
1295,260.79062500000003,261.19687500000003,63.0,94.0
1296,261.16562500000003,261.31406250000003,58.0,92.0
1297,260.79062500000003,261.615625,51.0,109.0
1298,261.54062500000003,261.9359375,58.0,96.0
1299,261.54062500000003,261.9578125,67.0,100.0
1300,261.54062500000003,261.96875,63.0,99.0
1301,262.10312500000003,262.30625000000003,58.0,93.0
1302,262.10312500000003,262.425,63.0,99.0
1303,262.10312500000003,262.559375,67.0,99.0
1304,262.47812500000003,262.8640625,58.0,100.0
1305,262.66562500000003,262.90000000000003,63.0,92.0
1306,262.29062500000003,263.1546875,51.0,99.0
1307,263.04062500000003,263.2484375,58.0,94.0
1308,263.04062500000003,263.2609375,63.0,95.0
1309,263.04062500000003,263.29375,67.0,94.0
1310,263.41562500000003,263.4953125,51.0,99.0
1311,263.79062500000003,264.0296875,56.0,93.0
1312,263.79062500000003,264.2265625,61.0,88.0
1313,263.79062500000003,264.2328125,65.0,94.0
1314,264.16562500000003,264.609375,44.0,81.0
1315,264.54062500000003,264.8234375,56.0,95.0
1316,264.72812500000003,264.890625,44.0,93.0
1317,263.79062500000003,264.95625,37.0,94.0
1318,264.54062500000003,264.959375,61.0,98.0
1319,264.54062500000003,264.9828125,65.0,104.0
1320,265.10312500000003,265.209375,56.0,97.0
1321,265.29062500000003,265.59375,58.0,95.0
1322,265.29062500000003,265.615625,63.0,87.0
1323,265.66562500000003,266.10625,46.0,87.0
1324,265.29062500000003,266.1921875,39.0,99.0
1325,266.22812500000003,266.3171875,39.0,98.0
1326,266.04062500000003,266.33125,58.0,94.0
1327,266.04062500000003,266.3890625,63.0,94.0
1328,266.04062500000003,266.4125,67.0,91.0
1329,266.7171875,267.0703125,60.0,93.0
1330,266.71875,267.190625,63.0,98.0
1331,266.725,267.309375,36.0,109.0
1332,266.715625,267.315625,67.0,93.0
1333,267.0703125,267.35625,43.0,70.0
1334,267.25156250000003,267.51718750000003,60.0,104.0
1335,267.45,267.5203125,63.0,109.0
1336,267.8890625,268.2734375,60.0,91.0
1337,267.8859375,268.284375,53.0,86.0
1338,267.890625,268.325,56.0,92.0
1339,269.0859375,269.5765625,65.0,90.0
1340,268.640625,269.6234375,53.0,98.0
1341,269.4828125,269.6546875,60.0,82.0
1342,270.0625,270.15000000000003,65.0,40.0
1343,267.87656250000003,271.125,41.0,100.0
1344,268.240625,271.1296875,48.0,78.0
1345,269.9421875,272.4890625,53.0,82.0
1346,270.0359375,272.5109375,56.0,87.0
1347,270.125,272.5453125,60.0,88.0
1348,270.2546875,272.734375,65.0,77.0
1349,273.50156250000003,275.32187500000003,58.0,91.0
1350,273.9890625,275.3421875,65.0,78.0
1351,273.721875,275.375,61.0,86.0
1352,273.2875,275.4046875,53.0,90.0
1353,272.96875,275.51875,46.0,88.0
1354,275.490625,275.8671875,58.0,82.0
1355,276.75625,277.0375,51.0,96.0
1356,277.09375,277.20468750000003,55.0,99.0
1357,277.496875,277.66875,58.0,85.0
1358,277.93125000000003,278.6375,63.0,94.0
1359,276.46875,280.90781250000003,46.0,88.0
1360,276.0859375,280.9375,39.0,97.0
1361,282.54062500000003,282.8859375,58.0,88.0
1362,281.79062500000003,284.14218750000003,44.0,93.0
1363,282.91562500000003,284.184375,60.0,85.0
1364,282.91562500000003,284.1875,56.0,88.0
1365,282.16562500000003,284.865625,51.0,80.0
1366,284.79062500000003,285.3625,58.0,83.0
1367,284.79062500000003,285.6328125,63.0,90.0
1368,285.91562500000003,286.8046875,63.0,93.0
1369,285.91562500000003,287.096875,67.0,84.0
1370,285.16562500000003,287.1203125,51.0,88.0
1371,285.54062500000003,287.1625,58.0,94.0
1372,284.79062500000003,287.175,43.0,86.0
1373,287.04062500000003,287.6234375,63.0,93.0
1374,287.79062500000003,288.3078125,60.0,79.0
1375,287.79062500000003,288.609375,68.0,89.0
1376,288.91562500000003,289.9890625,65.0,93.0
1377,288.16562500000003,290.1,48.0,81.0
1378,288.54062500000003,290.10625,60.0,97.0
1379,287.79062500000003,290.159375,41.0,94.0
1380,288.91562500000003,290.175,68.0,93.0
1381,290.5578125,290.796875,49.0,81.0
1382,290.625,291.1984375,53.0,82.0
1383,290.7546875,291.2078125,61.0,87.0
1384,290.7,291.2453125,56.0,86.0
1385,291.521875,291.7875,51.0,93.0
1386,291.9015625,292.3875,56.0,85.0
1387,291.903125,292.52500000000003,49.0,86.0
1388,291.1296875,293.26718750000003,44.0,72.0
1389,290.73125,293.346875,37.0,94.0
1390,293.84375,293.98125,55.0,85.0
1391,293.7859375,293.9828125,51.0,80.0
1392,293.7171875,294.0125,46.0,77.0
1393,293.6015625,294.0390625,39.0,79.0
1394,293.9328125,294.0421875,58.0,71.0
1395,293.9875,294.14375,63.0,81.0
1396,295.125,295.396875,58.0,87.0
1397,295.328125,295.56875,60.0,93.0
1398,295.5578125,295.6796875,63.0,93.0
1399,295.8125,295.928125,68.0,88.0
1400,296.09531250000003,296.20625,70.0,82.0
1401,296.3828125,296.58750000000003,72.0,81.0
1402,296.753125,297.01875,75.0,86.0
1403,297.5984375,297.6765625,68.0,65.0
1404,297.88437500000003,298.053125,84.0,92.0
1405,294.925,298.70468750000003,51.0,89.0
1406,294.721875,298.7140625,44.0,95.0
