,start,end,pitch,velocity
0,1.8486826083333336,2.202300722916667,64.0,90.0
1,1.4539461083333336,3.6874968041666674,57.0,81.0
2,1.0592096083333336,3.748352014583334,50.0,94.0
3,2.2434191083333337,4.8256537125,62.0,77.0
4,2.2434191083333337,4.865127362500001,69.0,82.0
5,5.0065746083333345,5.3421006333333345,64.0,88.0
6,4.611838108333334,6.2861787625000005,57.0,77.0
7,4.217101608333334,6.3026261166666675,50.0,92.0
8,5.401311108333334,7.023020229166668,62.0,80.0
9,5.401311108333334,7.646374952083335,69.0,88.0
10,8.164466608333335,8.430913745833335,61.0,85.0
11,7.374993608333335,9.506570708333335,49.0,91.0
12,7.769730108333334,9.534531210416668,56.0,72.0
13,8.559203108333335,10.159530668750001,61.0,90.0
14,8.559203108333335,10.159530668750001,68.0,85.0
15,11.322358608333335,11.631568866666669,54.0,94.0
16,11.717095108333336,12.873344106250002,61.0,94.0
17,10.927622108333335,12.874988841666669,49.0,79.0
18,10.532885608333334,12.888146725000002,42.0,91.0
19,11.717095108333336,12.909528285416668,54.0,90.0
20,11.717095108333336,13.044396589583336,66.0,89.0
21,13.690777608333335,13.92597477291667,62.0,93.0
22,13.690777608333335,13.934198450000002,66.0,94.0
23,14.480250608333336,14.628276795833335,62.0,94.0
24,14.480250608333336,14.69571094791667,66.0,100.0
25,14.480250608333336,14.96215808541667,69.0,98.0
26,14.874987108333336,15.120052685416669,62.0,86.0
27,15.269723608333335,15.458868181250002,62.0,94.0
28,15.269723608333335,15.526302333333335,66.0,98.0
29,15.269723608333335,15.753275820833336,69.0,95.0
30,15.664460108333335,15.848670475000002,62.0,78.0
31,16.059196608333338,16.22038067916667,62.0,97.0
32,16.059196608333338,16.307551656250002,66.0,105.0
33,13.690777608333335,16.475314668750002,38.0,96.0
34,14.677618858333336,16.493406758333336,45.0,80.0
35,16.059196608333338,16.58386720625,69.0,98.0
36,16.453933108333334,16.61511717916667,62.0,86.0
37,16.848669608333335,17.052616800000003,64.0,95.0
38,16.848669608333335,17.30426131875,68.0,89.0
39,17.243406108333335,17.432550681250003,64.0,87.0
40,17.638142608333336,17.77465564791667,64.0,98.0
41,17.638142608333336,17.874984508333338,68.0,103.0
42,17.638142608333336,18.121694820833337,71.0,96.0
43,18.032879108333336,18.17432635416667,64.0,81.0
44,18.427615608333337,18.55919444166667,64.0,98.0
45,18.427615608333337,18.621694387500003,68.0,100.0
46,18.427615608333337,18.975312502083337,71.0,96.0
47,18.822352108333337,18.9966940625,64.0,87.0
48,19.217088608333338,19.391430562500002,68.0,108.0
49,19.217088608333338,19.406233181250002,64.0,101.0
50,16.848669608333335,19.419391064583337,40.0,98.0
51,19.217088608333338,19.468733127083336,71.0,99.0
52,20.006561608333335,20.218732477083336,61.0,93.0
53,20.006561608333335,20.490113820833336,64.0,99.0
54,20.006561608333335,20.50327170416667,68.0,98.0
55,20.401298108333336,20.662811039583335,61.0,92.0
56,20.796034608333336,20.95721867916667,61.0,96.0
57,20.796034608333336,21.01642915416667,64.0,108.0
58,20.796034608333336,21.246692112500003,68.0,97.0
59,20.006561608333335,21.38649462291667,37.0,100.0
60,21.190771108333337,21.46050771666667,61.0,96.0
61,21.585507608333337,21.661165437500003,61.0,86.0
62,21.585507608333337,22.064125614583336,64.0,100.0
63,21.585507608333337,22.085507175000004,68.0,95.0
64,21.980244108333338,22.179257093750003,61.0,90.0
65,21.585507608333337,22.473664733333337,37.0,98.0
66,22.37498060833334,22.516427854166672,61.0,99.0
67,22.37498060833334,22.71873031041667,64.0,108.0
68,22.37498060833334,22.731888193750002,68.0,101.0
69,22.769717108333335,22.843730202083336,61.0,95.0
70,23.164453608333336,23.485177014583336,54.0,95.0
71,23.164453608333336,23.509848045833337,59.0,95.0
72,23.559190108333336,24.195702714583337,49.0,82.0
73,23.953926608333337,24.51971559166667,61.0,98.0
74,23.953926608333337,24.595373420833337,54.0,99.0
75,24.348663108333337,24.84043899791667,49.0,78.0
76,24.743399608333338,25.049320395833337,54.0,86.0
77,24.743399608333338,25.152938727083338,61.0,86.0
78,25.53287260833334,25.71543823958334,54.0,99.0
79,25.73024085833334,26.17431942083334,54.0,94.0
80,25.53287260833334,26.328924550000004,61.0,95.0
81,23.164453608333336,26.34043769791667,42.0,105.0
82,25.138136108333338,26.391424495833338,49.0,88.0
83,26.322345608333336,26.77958205416667,57.0,83.0
84,26.322345608333336,27.314121064583336,62.0,88.0
85,27.506555108333338,27.751620685416672,62.0,82.0
86,27.111818608333337,28.865106562500003,57.0,78.0
87,26.322345608333336,29.097014256250006,50.0,96.0
88,30.269710608333337,30.557539306250003,64.0,78.0
89,29.874974108333337,31.065762550000006,59.0,79.0
90,29.480237608333336,31.59207788333334,52.0,96.0
91,30.664447108333338,31.909511818750005,68.0,92.0
92,30.664447108333338,31.914446025000004,64.0,95.0
93,32.63812960833334,33.29766851041667,61.0,87.0
94,32.63812960833334,33.621681387500004,68.0,90.0
95,33.42760260833334,33.72365498333334,61.0,90.0
96,33.03286610833334,34.66444364166667,56.0,71.0
97,32.63812960833334,34.68911467291667,49.0,94.0
98,33.82233910833334,34.89141712916667,68.0,85.0
99,33.82233910833334,34.93911445625,61.0,87.0
100,35.79602160833334,36.37167900416667,54.0,86.0
101,35.79602160833334,36.641415612500005,59.0,91.0
102,36.58549460833334,37.01312581666667,54.0,71.0
103,36.98023110833334,37.190757241666674,59.0,81.0
104,35.79602160833334,37.26477033541667,42.0,95.0
105,36.19075810833334,37.368388666666675,49.0,77.0
106,37.374967608333336,37.797664610416675,58.0,85.0
107,37.374967608333336,37.950625004166675,54.0,89.0
108,37.769704108333336,38.258190527083336,49.0,79.0
109,38.16444060833334,38.29601944166667,54.0,80.0
110,37.374967608333336,38.314111531250006,42.0,94.0
111,38.16444060833334,38.33055888541667,61.0,81.0
112,38.95391360833334,39.34536063750001,62.0,88.0
113,38.95391360833334,39.58384727291667,66.0,83.0
114,39.74338660833334,40.02957057083334,57.0,85.0
115,39.34865010833334,41.17924062708334,45.0,75.0
116,38.95391360833334,41.19404324583334,38.0,93.0
117,40.13812310833334,41.49831929791667,57.0,89.0
118,40.13812310833334,41.62331918958334,66.0,91.0
119,42.11180560833334,42.65785776666667,59.0,86.0
120,42.11180560833334,42.99996273333334,64.0,88.0
121,42.90127860833334,43.14634418541667,59.0,90.0
122,43.29601510833334,44.33548789166667,68.0,89.0
123,43.29601510833334,44.360158922916675,64.0,96.0
124,42.50654210833334,44.40621151458334,47.0,84.0
125,43.29601510833334,44.42101413333334,59.0,94.0
126,42.11180560833334,44.50325090416667,40.0,95.0
127,45.26969760833334,46.11015740625,64.0,96.0
128,45.26969760833334,46.17430208750001,56.0,84.0
129,46.05917060833334,46.35522298333334,61.0,89.0
130,45.26969760833334,47.17430122083334,37.0,95.0
131,45.66443410833334,47.18252489791667,44.0,77.0
132,46.45390710833334,47.355222116666674,56.0,87.0
133,46.45390710833334,47.78943226666667,64.0,99.0
134,48.42758960833334,48.98186544375001,54.0,86.0
135,48.42758960833334,48.998312797916675,59.0,90.0
136,48.82232610833334,49.34370723541667,49.0,53.0
137,49.21706260833334,49.49337815833334,59.0,94.0
138,49.21706260833334,49.56739125208334,54.0,91.0
139,49.611799108333344,50.220351212500006,49.0,78.0
140,50.006535608333344,50.582193004166676,54.0,94.0
141,50.006535608333344,50.588771945833344,61.0,88.0
142,50.79600860833334,50.87002170208334,54.0,82.0
143,50.40127210833334,50.921008500000006,49.0,73.0
144,50.79600860833334,50.922653235416675,61.0,83.0
145,48.42758960833334,50.94567953125001,42.0,91.0
146,51.58548160833334,52.143046914583344,62.0,84.0
147,51.58548160833334,52.16771794583334,57.0,81.0
148,51.98021810833334,52.75982269583334,45.0,62.0
149,52.37495460833334,52.82396737708334,62.0,86.0
150,52.37495460833334,52.876598910416675,66.0,88.0
151,51.58548160833334,53.02133562708334,38.0,95.0
152,53.16442760833334,53.47034839583334,57.0,81.0
153,53.16442760833334,53.730216591666675,62.0,86.0
154,53.95390060833334,54.39962390625001,66.0,95.0
155,54.34863710833334,54.549294829166676,57.0,91.0
156,53.95390060833334,54.618373716666675,62.0,95.0
157,54.74337360833334,55.06409701458334,64.0,90.0
158,54.74337360833334,55.08054436875001,59.0,88.0
159,55.532846608333344,55.69403067916667,59.0,88.0
160,55.532846608333344,55.94567519791668,68.0,81.0
161,55.927583108333344,56.08876717916667,59.0,59.0
162,56.322319608333345,56.749950816666676,68.0,90.0
163,56.322319608333345,56.846990206250005,64.0,94.0
164,56.717056108333345,56.932516447916676,59.0,73.0
165,55.13811010833334,56.95225327291668,47.0,68.0
166,54.74337360833334,57.238437235416676,40.0,94.0
167,57.11179260833334,57.26475300208334,59.0,92.0
168,57.11179260833334,57.29600297500001,64.0,96.0
169,57.11179260833334,57.35521345000001,68.0,94.0
170,57.90126560833334,58.488436152083345,64.0,100.0
171,57.90126560833334,58.54600189166668,61.0,86.0
172,58.69073860833334,58.83383058958334,64.0,95.0
173,58.69073860833334,58.87494897500001,68.0,87.0
174,59.48021160833334,59.79106660208334,68.0,83.0
175,59.48021160833334,59.96705329166667,64.0,92.0
176,59.87494810833334,60.09040844791667,61.0,74.0
177,57.90126560833334,60.21211886875001,37.0,84.0
178,58.29600210833334,60.24994778333334,44.0,77.0
179,60.26968460833334,60.36014505625001,64.0,89.0
180,60.26968460833334,60.421000266666674,68.0,88.0
181,60.26968460833334,60.43744762083334,61.0,93.0
182,61.059157608333344,61.636459739583344,59.0,90.0
183,61.059157608333344,61.65455182916668,54.0,83.0
184,61.453894108333344,61.99172258958334,49.0,57.0
185,61.848630608333345,62.09205145000001,59.0,95.0
186,61.848630608333345,62.10356459791667,54.0,94.0
187,61.059157608333344,62.460472183333344,42.0,85.0
188,62.243367108333345,62.84205080000001,49.0,67.0
189,62.638103608333346,63.24830044791668,54.0,85.0
190,62.638103608333346,63.26145833125001,61.0,85.0
191,62.638103608333346,63.684155333333344,42.0,80.0
192,63.032840108333346,63.72527371875001,49.0,71.0
193,63.42757660833334,63.78941840000001,54.0,98.0
194,63.42757660833334,63.99829979791668,61.0,96.0
195,63.82231310833334,64.00487873958335,42.0,95.0
196,64.21704960833334,64.59040454791668,57.0,84.0
197,64.21704960833334,64.73020705833335,66.0,88.0
198,65.00652260833334,65.17921982708334,57.0,84.0
199,65.00652260833334,65.44237749375002,62.0,91.0
200,65.79599560833334,66.26638993750001,66.0,89.0
201,65.79599560833334,66.29928464583334,62.0,89.0
202,66.19073210833335,66.43579768541667,57.0,63.0
203,64.61178610833335,66.74665267916667,45.0,68.0
204,64.21704960833334,66.79599474166668,38.0,95.0
205,66.98020510833334,67.23513909791667,38.0,96.0
206,66.58546860833334,67.29434957291667,66.0,97.0
207,66.58546860833334,67.31902060416668,62.0,96.0
208,67.37494160833334,67.43250734791668,62.0,75.0
209,67.37494160833334,67.74336234166668,64.0,94.0
210,67.37494160833334,67.79763861041668,59.0,90.0
211,68.16441460833335,68.59698002291668,68.0,84.0
212,68.16441460833335,68.62822999583334,64.0,96.0
213,68.95388760833335,69.44566349791668,68.0,90.0
214,68.95388760833335,69.46868979375002,64.0,94.0
215,69.34862410833334,69.62987386458335,59.0,66.0
216,67.76967810833334,69.67921592708335,47.0,80.0
217,67.37494160833334,69.77954478750001,40.0,96.0
218,69.74336060833335,70.22033387916667,64.0,94.0
219,70.13809710833334,70.22855755625001,59.0,71.0
220,69.74336060833335,70.27296541250001,68.0,91.0
221,70.53283360833335,71.07066208958335,64.0,95.0
222,70.53283360833335,71.09039891458335,68.0,89.0
223,70.53283360833335,71.14467518333335,61.0,84.0
224,71.32230660833335,71.48349067916668,61.0,89.0
225,71.32230660833335,71.77625358333334,68.0,90.0
226,71.71704310833334,72.00980601250001,61.0,86.0
227,72.11177960833335,72.5624371125,64.0,96.0
228,72.11177960833335,72.60355549791667,68.0,92.0
229,72.50651610833334,72.78447639375001,61.0,77.0
230,72.90125260833335,73.04269985416668,64.0,96.0
231,72.90125260833335,73.06408141458334,68.0,89.0
232,72.90125260833335,73.09039718125001,61.0,92.0
233,70.92757010833334,73.12164715416668,44.0,79.0
234,70.53283360833335,73.12987083125002,37.0,93.0
235,73.69072560833334,74.20388305833335,59.0,92.0
236,73.69072560833334,74.20717252916668,54.0,86.0
237,74.08546210833335,74.68414580000001,49.0,61.0
238,74.48019860833334,74.75651415833335,54.0,97.0
239,74.48019860833334,74.96539555625002,59.0,96.0
240,73.69072560833334,75.13644803958334,42.0,94.0
241,74.87493510833335,75.22032954583335,49.0,87.0
242,75.26967160833334,75.49828983125,54.0,89.0
243,75.26967160833334,75.53611874583335,58.0,87.0
244,75.66440810833335,76.18578923541668,49.0,81.0
245,76.05914460833334,76.19072344166668,54.0,94.0
246,76.05914460833334,76.22197341458335,61.0,94.0
247,75.26967160833334,76.22526288541668,42.0,96.0
248,76.45388110833335,76.60026256041668,42.0,91.0
249,76.84861760833334,77.43085394583335,66.0,88.0
250,76.84861760833334,77.43578815208335,62.0,90.0
251,76.84861760833334,77.66934058125001,57.0,86.0
252,77.63809060833334,78.08710337708335,62.0,90.0
253,77.63809060833334,78.09203758333335,66.0,88.0
254,78.03282710833335,78.49335302500002,57.0,77.0
255,78.42756360833334,78.56407664791668,62.0,88.0
256,78.42756360833334,78.64960288958335,66.0,95.0
257,78.82230010833335,79.02789203541668,57.0,70.0
258,79.21703660833334,79.36177332500002,57.0,94.0
259,79.21703660833334,79.39960223958334,62.0,95.0
260,76.84861760833334,79.40618118125,38.0,94.0
261,77.24335410833335,79.40947065208334,45.0,71.0
262,79.21703660833334,79.45223377291668,66.0,95.0
263,80.00650960833335,80.30091724791667,59.0,89.0
264,80.00650960833335,80.71868004375001,64.0,94.0
265,80.79598260833335,81.14631125208335,56.0,77.0
266,80.79598260833335,81.18742963750002,64.0,89.0
267,80.79598260833335,81.25486378958334,59.0,90.0
268,81.19071910833334,81.71210023541668,52.0,76.0
269,81.58545560833335,82.04104731875002,56.0,80.0
270,81.58545560833335,82.085455175,64.0,89.0
271,81.58545560833335,82.13808670833335,59.0,83.0
272,80.00650960833335,82.41769172916668,40.0,95.0
273,80.40124610833334,82.41769172916668,47.0,82.0
274,81.98019210833334,82.44894170208335,52.0,85.0
275,82.37492860833335,82.58709947708334,56.0,95.0
276,82.37492860833335,82.59532315416668,59.0,94.0
277,82.37492860833335,82.69894148541668,64.0,96.0
278,83.16440160833335,83.64795382083335,64.0,97.0
279,83.55913810833334,83.81407209791668,56.0,81.0
280,83.95387460833335,84.11012447291668,56.0,91.0
281,84.34861110833334,84.47525573541668,56.0,39.0
282,83.95387460833335,84.47690047083334,64.0,97.0
283,84.74334760833335,84.99828159791667,56.0,86.0
284,84.74334760833335,85.21703140833334,64.0,96.0
285,85.13808410833335,85.33874182916668,56.0,57.0
286,83.16440160833335,85.54926796250001,37.0,94.0
287,85.53282060833335,85.70058362083334,56.0,88.0
288,85.53282060833335,85.75157041875,64.0,96.0
289,86.32229360833334,86.82393791041667,59.0,92.0
290,86.32229360833334,86.84038526458335,54.0,86.0
291,86.71703010833335,87.26143753125001,49.0,59.0
292,87.11176660833334,87.42755580833335,59.0,98.0
293,87.11176660833334,87.44564789791669,54.0,100.0
294,87.50650310833335,88.01966055833334,49.0,85.0
295,87.90123960833334,88.26308140000002,58.0,95.0
296,87.90123960833334,88.38150235000002,54.0,96.0
297,88.29597610833335,88.81077829375002,49.0,81.0
298,86.32229360833334,89.15452799583335,42.0,94.0
299,88.69071260833334,89.42590933958334,54.0,93.0
300,88.69071260833334,89.44564616458335,61.0,95.0
301,89.08544910833335,89.53446187708334,49.0,88.0
302,89.48018560833334,89.99498779375001,66.0,83.0
303,89.48018560833334,89.99992200000001,62.0,89.0
304,89.87492210833335,90.29761911041668,57.0,80.0
305,90.26965860833334,90.39136902916668,62.0,95.0
306,90.26965860833334,90.49827683125001,66.0,97.0
307,90.66439510833335,90.88478965416668,57.0,69.0
308,91.05913160833335,91.40617078125001,66.0,86.0
309,91.05913160833335,91.52952593750001,62.0,88.0
310,91.45386810833335,91.71538103958335,57.0,59.0
311,89.48018560833334,92.02788076875001,38.0,94.0
312,92.24334110833335,92.49991983333335,38.0,97.0
313,91.84860460833335,92.51472245208335,62.0,96.0
314,91.84860460833335,92.55090663125002,66.0,98.0
315,92.63807760833335,93.02623516666668,64.0,94.0
316,92.63807760833335,93.09695878958335,59.0,89.0
317,93.42755060833335,93.85518181666669,68.0,93.0
318,93.42755060833335,93.92755017500001,64.0,93.0
319,93.82228710833334,94.29103670208335,59.0,74.0
320,94.21702360833335,94.65781270000001,68.0,90.0
321,94.21702360833335,94.71373370416669,64.0,90.0
322,94.61176010833334,94.80090468125002,59.0,79.0
323,95.00649660833335,95.19893065208335,64.0,98.0
324,95.00649660833335,95.22195694791668,68.0,95.0
325,95.00649660833335,95.23675956666668,59.0,94.0
326,93.03281410833334,95.25156218541669,47.0,79.0
327,92.63807760833335,95.30254898333335,40.0,97.0
328,95.79596960833335,96.32064020625002,61.0,93.0
329,95.79596960833335,96.33050861875002,57.0,91.0
330,96.58544260833335,96.63478467083335,57.0,65.0
331,96.58544260833335,96.84695553958335,64.0,94.0
332,96.58544260833335,96.86175815833334,61.0,83.0
333,96.19070610833334,97.61340224375002,52.0,82.0
334,97.37491560833335,97.76800737291668,61.0,95.0
335,97.37491560833335,97.92590197291668,64.0,95.0
336,98.16438860833335,98.52951987083335,69.0,93.0
337,98.16438860833335,98.61504611250001,61.0,94.0
338,98.16438860833335,98.64300661458334,64.0,95.0
339,97.76965210833335,98.73840126875001,52.0,76.0
340,95.79596960833335,98.83379592291668,45.0,95.0
341,98.55912510833335,99.44234802708336,57.0,88.0
342,98.95386160833336,99.52622953333335,61.0,86.0
343,98.95386160833336,99.54267688750002,64.0,94.0
344,99.74333460833334,100.03116330625002,61.0,86.0
345,99.74333460833334,100.24497891041668,64.0,94.0
346,100.13807110833335,100.43576821875001,57.0,72.0
347,100.53280760833334,100.71208376875002,61.0,95.0
348,99.34859810833335,100.76307056666668,52.0,80.0
349,100.53280760833334,100.94892566875002,64.0,98.0
350,100.92754410833335,101.06570188333335,57.0,68.0
351,101.32228060833334,101.61833298333335,64.0,100.0
352,100.92754410833335,101.62820139583334,52.0,78.0
353,98.95386160833336,101.63478033750002,45.0,94.0
354,101.32228060833334,101.91767482916669,61.0,110.0
355,101.32228060833334,101.96372742083335,57.0,97.0
356,102.11175360833334,102.68083206250002,61.0,90.0
357,102.11175360833334,102.72523991875002,66.0,94.0
358,102.11175360833334,103.07392382708335,42.0,94.0
359,102.50649010833335,103.10188432916668,49.0,72.0
360,102.90122660833335,103.34037096458334,61.0,101.0
361,102.90122660833335,103.42589720625001,66.0,95.0
362,103.29596310833335,103.44234456041669,57.0,97.0
363,103.69069960833335,104.28609382916669,64.0,94.0
364,103.69069960833335,104.30418591875002,68.0,89.0
365,103.69069960833335,104.33379115625002,59.0,85.0
366,104.08543610833335,104.70385662500001,47.0,74.0
367,103.69069960833335,104.76964604166669,40.0,96.0
368,104.48017260833335,104.89958013958335,64.0,100.0
369,104.48017260833335,104.90286961041669,68.0,101.0
370,104.87490910833336,105.05911947500002,59.0,87.0
371,105.26964560833335,105.83214512083335,66.0,92.0
372,105.26964560833335,105.84694773958334,62.0,94.0
373,106.05911860833335,106.32885521666668,66.0,99.0
374,106.05911860833335,106.48017087500001,62.0,95.0
375,106.45385510833334,106.70549962708336,57.0,81.0
376,106.84859160833335,107.26142019791668,66.0,90.0
377,106.84859160833335,107.28609122916669,62.0,94.0
378,105.66438210833336,107.85023547708334,45.0,78.0
379,105.26964560833335,107.86174862500002,38.0,95.0
380,107.63806460833335,107.96372222083335,62.0,94.0
381,107.63806460833335,108.02128796041669,66.0,92.0
382,108.42753760833335,108.93905032291669,61.0,94.0
383,108.42753760833335,108.98181344375001,66.0,89.0
384,108.42753760833335,109.31898420416668,42.0,94.0
385,108.82227410833335,109.32391841041668,49.0,67.0
386,109.21701060833335,109.61997078541668,61.0,99.0
387,109.21701060833335,109.69891808541668,66.0,95.0
388,109.61174710833335,109.71207596875001,57.0,94.0
389,110.00648360833335,110.27293074583335,59.0,88.0
390,110.00648360833335,110.55911470833335,64.0,95.0
391,110.00648360833335,110.55911470833335,68.0,89.0
392,110.40122010833335,110.87325917291669,59.0,84.0
393,110.00648360833335,111.04760112708335,40.0,97.0
394,110.79595660833336,111.11996948541669,64.0,97.0
395,110.79595660833336,111.16766681250002,68.0,103.0
396,111.19069310833335,111.48181127708335,59.0,83.0
397,111.58542960833336,111.76306103333334,59.0,89.0
398,111.58542960833336,111.94727140000002,66.0,85.0
399,111.58542960833336,112.00648187500002,63.0,88.0
400,111.98016610833335,112.24167903958335,59.0,85.0
401,112.37490260833334,112.85023114375002,63.0,96.0
402,112.37490260833334,112.86503376250002,66.0,86.0
403,112.37490260833334,112.89628373541669,59.0,91.0
404,112.76963910833335,113.29266497083336,54.0,77.0
405,113.16437560833334,113.47852007291668,66.0,81.0
406,113.16437560833334,113.52128319375002,63.0,84.0
407,113.16437560833334,113.53444107708334,59.0,90.0
408,113.55911210833335,114.02621696666668,54.0,59.0
409,113.95384860833335,114.14957212291668,63.0,98.0
410,111.58542960833336,114.17095368333335,47.0,94.0
411,113.95384860833335,114.18740103750002,59.0,95.0
412,113.95384860833335,114.19397997916668,66.0,95.0
413,114.74332160833335,115.23674223333335,61.0,86.0
414,114.74332160833335,115.24990011666668,66.0,87.0
415,114.74332160833335,115.65121555833335,42.0,97.0
416,115.13805810833335,115.69562341458335,49.0,78.0
417,115.53279460833335,115.96371528750002,61.0,100.0
418,115.53279460833335,116.01634682083335,66.0,98.0
419,115.92753110833335,116.05088626458335,57.0,95.0
420,116.32226760833335,116.92753024166669,64.0,95.0
421,116.32226760833335,116.93246444791669,68.0,87.0
422,117.11174060833335,117.49496396041668,64.0,100.0
423,117.11174060833335,117.50647710833336,68.0,101.0
424,116.71700410833336,117.50812184375002,47.0,78.0
425,116.32226760833335,117.55252970000002,40.0,97.0
426,117.50647710833336,117.61996385208334,59.0,94.0
427,117.90121360833335,118.43739735416669,62.0,90.0
428,117.90121360833335,118.46700259166668,66.0,87.0
429,118.29595010833336,118.77292337916668,57.0,81.0
430,118.69068660833335,118.82884438333335,62.0,95.0
431,118.69068660833335,118.89134432916669,66.0,98.0
432,119.48015960833335,119.92259343541669,66.0,97.0
433,119.48015960833335,119.92588290625002,62.0,94.0
434,117.90121360833335,120.11996168541668,38.0,96.0
435,119.87489610833335,120.33048781875002,57.0,87.0
436,120.26963260833335,120.64792175416669,62.0,95.0
437,120.26963260833335,120.65779016666669,66.0,95.0
438,120.66436910833335,120.74496114375002,57.0,90.0
439,121.05910560833335,121.54101308541668,57.0,94.0
440,121.05910560833335,121.57884200000002,61.0,94.0
441,121.84857860833336,121.97851270625002,57.0,99.0
442,121.84857860833336,121.98673638333335,54.0,95.0
443,121.84857860833336,122.04265738750001,61.0,96.0
444,121.05910560833335,122.06403894791669,42.0,98.0
445,121.45384210833335,122.23344669583335,49.0,79.0
446,122.24331510833335,122.38805182500002,42.0,94.0
447,122.63805160833336,122.88640665625002,59.0,90.0
448,122.63805160833336,123.14298538125001,64.0,95.0
449,122.63805160833336,123.14463011666669,68.0,93.0
450,123.03278810833335,123.32884048333335,59.0,92.0
451,123.42752460833336,123.62818232916669,59.0,98.0
452,123.42752460833336,123.79759007708336,68.0,98.0
453,123.42752460833336,123.82061637291669,64.0,100.0
454,122.63805160833336,123.90614261458335,40.0,97.0
455,123.82226110833335,123.96370835416668,59.0,99.0
456,124.21699760833336,124.66929984791669,69.0,95.0
457,124.21699760833336,124.71041823333336,66.0,92.0
458,124.61173410833335,125.01633902083336,63.0,82.0
459,125.00647060833336,125.17258888541669,66.0,84.0
460,125.00647060833336,125.19561518125002,69.0,94.0
461,125.40120710833335,125.68245686458336,63.0,82.0
462,125.79594360833335,125.96864082708335,66.0,90.0
463,125.79594360833335,125.98344344583336,69.0,94.0
464,126.19068010833335,126.57061398958335,63.0,76.0
465,124.21699760833336,126.89956107291668,39.0,92.0
466,126.58541660833335,127.03442937708336,69.0,94.0
467,126.58541660833335,127.04758726041669,66.0,83.0
468,126.98015310833335,127.36666593125003,63.0,94.0
469,128.16436260833336,128.33212562083335,62.0,92.0
470,128.16436260833336,128.3551519166667,66.0,87.0
471,128.55909910833336,128.74330947500002,69.0,84.0
472,128.95383560833335,129.13311176875,74.0,96.0
473,128.95383560833335,129.16436174166668,62.0,80.0
474,127.76962610833336,129.80745328958335,57.0,84.0
475,127.37488960833335,129.81896643750002,50.0,99.0
476,129.74330860833336,129.86666376458336,69.0,90.0
477,129.74330860833336,129.87159797083336,66.0,86.0
478,129.74330860833336,129.8781769125,62.0,76.0
479,130.53278160833335,130.99495226041668,59.0,85.0
480,130.53278160833335,131.0936363854167,62.0,87.0
481,130.92751810833335,131.5952806875,54.0,83.0
482,130.53278160833335,131.6512016916667,47.0,95.0
483,131.32225460833337,131.86337256041668,59.0,94.0
484,131.71699110833336,132.09528025416668,62.0,90.0
485,132.11172760833335,132.46041151666668,64.0,94.0
486,132.11172760833335,132.52126672708334,59.0,86.0
487,132.50646410833335,133.11830568333335,47.0,77.0
488,132.11172760833335,133.12817409583334,40.0,96.0
489,132.90120060833334,133.19889771875003,68.0,90.0
490,132.90120060833334,133.23014769166667,59.0,91.0
491,134.48014660833334,134.7350805979167,59.0,93.0
492,134.08541010833335,135.1281723625,52.0,88.0
493,135.07225135833335,135.1281723625,52.0,90.0
494,134.87488310833336,135.3567905854167,57.0,88.0
495,134.87488310833336,135.45876418125002,61.0,98.0
496,135.66435610833335,136.01468475208335,57.0,92.0
497,136.05909260833334,136.3419871,61.0,99.0
498,133.69067360833336,136.58705267708336,45.0,94.0
499,136.05909260833334,136.59527635416669,64.0,101.0
500,136.45382910833337,137.2613941979167,57.0,79.0
501,136.84856560833336,137.46534138958336,61.0,87.0
502,136.84856560833336,137.46698612500003,69.0,95.0
503,137.24330210833335,137.83047265208336,52.0,85.0
504,137.63803860833335,138.09856452500003,57.0,92.0
505,137.63803860833335,138.1676434125,61.0,95.0
506,137.63803860833335,138.18080129583336,64.0,96.0
507,138.03277510833337,138.68244559791668,52.0,85.0
508,138.42751160833336,138.86336649375002,61.0,79.0
509,138.82224810833335,139.08705051041667,57.0,94.0
510,139.21698460833335,139.92422083750003,57.0,96.0
511,139.21698460833335,139.95218133958335,61.0,99.0
512,139.21698460833335,139.96204975208335,64.0,100.0
513,136.84856560833336,140.00810234375,45.0,96.0
514,139.61172110833334,140.03770758125003,52.0,94.0
515,140.00645760833336,140.2416547729167,62.0,93.0
516,140.00645760833336,140.24987845,66.0,94.0
517,140.79593060833335,140.94395679583334,62.0,94.0
518,140.79593060833335,141.01139094791668,66.0,100.0
519,140.79593060833335,141.27783808541668,69.0,98.0
520,141.19066710833334,141.4357326854167,62.0,86.0
521,141.58540360833337,141.77454818125003,62.0,94.0
522,141.58540360833337,141.84198233333336,66.0,98.0
523,141.58540360833337,142.06895582083337,69.0,95.0
524,141.98014010833336,142.16435047500002,62.0,78.0
525,142.37487660833335,142.5360606791667,62.0,97.0
526,142.37487660833335,142.62323165625003,66.0,105.0
527,140.00645760833336,142.79099466875002,38.0,96.0
528,140.99329885833336,142.80908675833336,45.0,80.0
529,142.37487660833335,142.89954720625002,69.0,98.0
530,142.76961310833335,142.9307971791667,62.0,86.0
531,143.16434960833337,143.36829680000002,64.0,95.0
532,143.16434960833337,143.61994131875002,68.0,89.0
533,143.55908610833336,143.74823068125002,64.0,87.0
534,143.95382260833335,144.09033564791667,64.0,98.0
535,143.95382260833335,144.19066450833336,68.0,103.0
536,143.95382260833335,144.43737482083336,71.0,96.0
537,144.34855910833335,144.4900063541667,64.0,81.0
538,144.74329560833337,144.8748744416667,64.0,98.0
539,144.74329560833337,144.93737438750003,68.0,100.0
540,144.74329560833337,145.29099250208336,71.0,96.0
541,145.13803210833336,145.31237406250003,64.0,87.0
542,145.53276860833336,145.70711056250002,68.0,108.0
543,145.53276860833336,145.72191318125002,64.0,101.0
544,143.16434960833337,145.73507106458337,40.0,98.0
545,145.53276860833336,145.78441312708335,71.0,99.0
546,146.32224160833334,146.53441247708335,61.0,93.0
547,146.32224160833334,146.80579382083334,64.0,99.0
548,146.32224160833334,146.8189517041667,68.0,98.0
549,146.71697810833336,146.97849103958336,61.0,92.0
550,147.11171460833336,147.2728986791667,61.0,96.0
551,147.11171460833336,147.3321091541667,64.0,108.0
552,147.11171460833336,147.56237211250001,68.0,97.0
553,146.32224160833334,147.7021746229167,37.0,100.0
554,147.50645110833335,147.7761877166667,61.0,96.0
555,147.90118760833334,147.97684543750003,61.0,86.0
556,147.90118760833334,148.37980561458335,64.0,100.0
557,147.90118760833334,148.40118717500002,68.0,95.0
558,148.29592410833337,148.49493709375002,61.0,90.0
559,147.90118760833334,148.78934473333337,37.0,98.0
560,148.69066060833336,148.83210785416668,61.0,99.0
561,148.69066060833336,149.0344103104167,64.0,108.0
562,148.69066060833336,149.04756819375,68.0,101.0
563,149.08539710833335,149.15941020208336,61.0,95.0
564,149.48013360833335,149.80085701458336,54.0,95.0
565,149.48013360833335,149.82552804583335,59.0,95.0
566,149.87487010833337,150.51138271458336,49.0,82.0
567,150.26960660833336,150.8353955916667,61.0,98.0
568,150.26960660833336,150.91105342083335,54.0,99.0
569,150.66434310833336,151.15611899791668,49.0,78.0
570,151.05907960833335,151.36500039583336,54.0,86.0
571,151.05907960833335,151.46861872708337,61.0,86.0
572,151.84855260833336,152.03111823958335,54.0,99.0
573,152.04592085833335,152.48999942083336,54.0,94.0
574,151.84855260833336,152.64460455000003,61.0,95.0
575,149.48013360833335,152.6561176979167,42.0,105.0
576,151.45381610833334,152.70710449583336,49.0,88.0
577,152.63802560833335,152.87322277291668,62.0,93.0
578,152.63802560833335,152.88144645000003,66.0,94.0
579,153.42749860833337,153.57552479583336,62.0,94.0
580,153.42749860833337,153.6429589479167,66.0,100.0
581,153.42749860833337,153.9094060854167,69.0,98.0
582,153.82223510833336,154.06730068541668,62.0,86.0
583,154.21697160833335,154.40611618125,62.0,94.0
584,154.21697160833335,154.47355033333335,66.0,98.0
585,154.21697160833335,154.70052382083335,69.0,95.0
586,154.61170810833335,154.79591847500004,62.0,78.0
587,155.00644460833337,155.16762867916668,62.0,97.0
588,155.00644460833337,155.25479965625001,66.0,105.0
589,152.63802560833335,155.42256266875003,38.0,96.0
590,153.62486685833335,155.44065475833335,45.0,80.0
591,155.00644460833337,155.53111520625004,69.0,98.0
592,155.40118110833336,155.56236517916668,62.0,86.0
593,155.79591760833335,155.9998648,64.0,95.0
594,155.79591760833335,156.25150931875,68.0,89.0
595,156.19065410833335,156.37979868125004,64.0,87.0
596,156.58539060833337,156.7219036479167,64.0,98.0
597,156.58539060833337,156.82223250833334,68.0,103.0
598,156.58539060833337,157.06894282083337,71.0,96.0
599,156.98012710833336,157.12157435416668,64.0,81.0
600,157.37486360833336,157.50644244166668,64.0,98.0
601,157.37486360833336,157.56894238750002,68.0,100.0
602,157.37486360833336,157.92256050208337,71.0,96.0
603,157.76960010833335,157.9439420625,64.0,87.0
604,158.16433660833334,158.33867856250004,68.0,108.0
605,158.16433660833334,158.35348118125003,64.0,101.0
606,155.79591760833335,158.36663906458335,40.0,98.0
607,158.16433660833334,158.41598112708337,71.0,99.0
608,158.95380960833336,159.16598047708337,61.0,93.0
609,158.95380960833336,159.43736182083336,64.0,99.0
610,158.95380960833336,159.45051970416668,68.0,98.0
611,159.34854610833335,159.61005903958335,61.0,92.0
612,159.74328260833335,159.9044666791667,61.0,96.0
613,159.74328260833335,159.9636771541667,64.0,108.0
614,159.74328260833335,160.19394011250003,68.0,97.0
615,158.95380960833336,160.3337426229167,37.0,100.0
616,160.13801910833337,160.40775571666668,61.0,96.0
617,160.53275560833336,160.60841343750002,61.0,86.0
618,160.53275560833336,161.01137361458336,64.0,100.0
619,160.53275560833336,161.03275517500003,68.0,95.0
620,160.92749210833335,161.12650509375,61.0,90.0
621,160.53275560833336,161.42091273333335,37.0,98.0
622,161.32222860833335,161.4636758541667,61.0,99.0
623,161.32222860833335,161.6659783104167,64.0,108.0
624,161.32222860833335,161.67913619375003,68.0,101.0
625,161.71696510833337,161.79097820208335,61.0,95.0
626,162.11170160833336,162.43242501458334,54.0,95.0
627,162.11170160833336,162.45709604583337,59.0,95.0
628,162.50643810833336,163.14295071458335,49.0,82.0
629,162.90117460833335,163.46696359166668,61.0,98.0
630,162.90117460833335,163.54262142083337,54.0,99.0
631,163.29591110833337,163.7876869979167,49.0,78.0
632,163.69064760833336,163.99656839583335,54.0,86.0
633,163.69064760833336,164.10018672708335,61.0,86.0
634,164.48012060833335,164.66268623958337,54.0,99.0
635,164.67748885833336,165.12156742083337,54.0,94.0
636,164.48012060833335,165.27617255,61.0,95.0
637,162.11170160833336,165.2876856979167,42.0,105.0
638,164.08538410833336,165.33867249583335,49.0,88.0
639,165.26959360833337,165.66104063750004,62.0,88.0
640,165.26959360833337,165.89952727291669,66.0,83.0
641,166.05906660833335,166.34525057083337,57.0,85.0
642,165.66433010833336,167.49492062708336,45.0,75.0
643,165.26959360833337,167.50972324583336,38.0,93.0
644,166.45380310833335,167.8139992979167,57.0,89.0
645,166.45380310833335,167.93899918958337,66.0,91.0
646,168.42748560833337,168.97353776666668,59.0,86.0
647,168.42748560833337,169.31564273333336,64.0,88.0
648,169.21695860833336,169.46202418541668,59.0,90.0
649,169.61169510833335,170.6511678916667,68.0,89.0
650,169.61169510833335,170.67583892291668,64.0,96.0
651,168.82222210833336,170.72189151458335,47.0,84.0
652,169.61169510833335,170.73669413333337,59.0,94.0
653,168.42748560833337,170.8189309041667,40.0,95.0
654,171.58537760833335,172.42583740625003,64.0,96.0
655,171.58537760833335,172.48998208750004,56.0,84.0
656,172.37485060833336,172.67090298333335,61.0,89.0
657,171.58537760833335,173.48998122083336,37.0,95.0
658,171.98011410833337,173.49820489791668,44.0,77.0
659,172.76958710833335,173.6709021166667,56.0,87.0
660,172.76958710833335,174.10511226666668,64.0,99.0
661,174.74326960833335,175.29754544375004,54.0,86.0
662,174.74326960833335,175.31399279791668,59.0,90.0
663,175.13800610833337,175.6593872354167,49.0,53.0
664,175.53274260833336,175.80905815833336,59.0,94.0
665,175.53274260833336,175.88307125208337,54.0,91.0
666,175.92747910833336,176.53603121250003,49.0,78.0
667,176.32221560833335,176.89787300416668,54.0,94.0
668,176.32221560833335,176.90445194583336,61.0,88.0
669,177.11168860833337,177.18570170208335,54.0,82.0
670,176.71695210833337,177.2366885,49.0,73.0
671,177.11168860833337,177.2383332354167,61.0,83.0
672,174.74326960833335,177.26135953125004,42.0,91.0
673,177.90116160833335,178.45872691458337,62.0,84.0
674,177.90116160833335,178.48339794583336,57.0,81.0
675,178.29589810833335,179.07550269583336,45.0,62.0
676,178.69063460833337,179.13964737708335,62.0,86.0
677,178.69063460833337,179.1922789104167,66.0,88.0
678,177.90116160833335,179.33701562708336,38.0,95.0
679,179.48010760833336,179.78602839583337,57.0,81.0
680,179.48010760833336,180.0458965916667,62.0,86.0
681,180.26958060833337,180.71530390625003,66.0,95.0
682,180.66431710833336,180.8649748291667,57.0,91.0
683,180.26958060833337,180.93405371666668,62.0,95.0
684,181.05905360833336,181.37977701458337,64.0,90.0
685,181.05905360833336,181.39622436875004,59.0,88.0
686,181.84852660833337,182.0097106791667,59.0,88.0
687,181.84852660833337,182.26135519791669,68.0,81.0
688,182.24326310833337,182.40444717916668,59.0,59.0
689,182.63799960833336,183.0656308166667,68.0,90.0
690,182.63799960833336,183.16267020625003,64.0,94.0
691,183.03273610833335,183.24819644791668,59.0,73.0
692,181.45379010833335,183.2679332729167,47.0,68.0
693,181.05905360833336,183.5541172354167,40.0,94.0
694,183.42747260833337,183.58043300208337,59.0,92.0
695,183.42747260833337,183.61168297500004,64.0,96.0
696,183.42747260833337,183.67089345000002,68.0,94.0
697,184.21694560833336,184.80411615208337,64.0,100.0
698,184.21694560833336,184.8616818916667,61.0,86.0
699,185.00641860833335,185.14951058958337,64.0,95.0
700,185.00641860833335,185.19062897500004,68.0,87.0
701,185.79589160833336,186.10674660208335,68.0,83.0
702,185.79589160833336,186.2827332916667,64.0,92.0
703,186.19062810833336,186.4060884479167,61.0,74.0
704,184.21694560833336,186.52779886875004,37.0,84.0
705,184.61168210833335,186.56562778333335,44.0,77.0
706,186.58536460833335,186.67582505625003,64.0,89.0
707,186.58536460833335,186.7366802666667,68.0,88.0
708,186.58536460833335,186.75312762083337,61.0,93.0
709,187.37483760833337,187.95213973958337,59.0,90.0
710,187.37483760833337,187.9702318291667,54.0,83.0
711,187.76957410833336,188.30740258958338,49.0,57.0
712,188.16431060833335,188.40773145000003,59.0,95.0
713,188.16431060833335,188.4192445979167,54.0,94.0
714,187.37483760833337,188.77615218333335,42.0,85.0
715,188.55904710833337,189.15773080000002,49.0,67.0
716,188.95378360833337,189.5639804479167,54.0,85.0
717,188.95378360833337,189.57713833125004,61.0,85.0
718,188.95378360833337,189.99983533333335,42.0,80.0
719,189.34852010833336,190.04095371875002,49.0,71.0
720,189.74325660833335,190.10509840000003,54.0,98.0
721,189.74325660833335,190.3139797979167,61.0,96.0
722,190.13799310833338,190.32055873958336,42.0,95.0
723,190.53272960833337,190.9060845479167,57.0,84.0
724,190.53272960833337,191.04588705833336,66.0,88.0
725,191.32220260833336,191.49489982708337,57.0,84.0
726,191.32220260833336,191.75805749375002,62.0,91.0
727,192.11167560833337,192.58206993750002,66.0,89.0
728,192.11167560833337,192.61496464583337,62.0,89.0
729,192.50641210833336,192.7514776854167,57.0,63.0
730,190.92746610833336,193.0623326791667,45.0,68.0
731,190.53272960833337,193.1116747416667,38.0,95.0
732,193.29588510833335,193.5508190979167,38.0,96.0
733,192.90114860833336,193.6100295729167,66.0,97.0
734,192.90114860833336,193.6347006041667,62.0,96.0
735,193.69062160833337,193.74818734791668,62.0,75.0
736,193.69062160833337,194.0590423416667,64.0,94.0
737,193.69062160833337,194.11331861041668,59.0,90.0
738,194.48009460833336,194.9126600229167,68.0,84.0
739,194.48009460833336,194.94390999583337,64.0,96.0
740,195.26956760833338,195.7613434979167,68.0,90.0
741,195.26956760833338,195.78436979375002,64.0,94.0
742,195.66430410833337,195.94555386458336,59.0,66.0
743,194.08535810833337,195.99489592708338,47.0,80.0
744,193.69062160833337,196.09522478750003,40.0,96.0
745,196.05904060833336,196.5360138791667,64.0,94.0
746,196.45377710833336,196.54423755625004,59.0,71.0
747,196.05904060833336,196.58864541250003,68.0,91.0
748,196.84851360833338,197.38634208958337,64.0,95.0
749,196.84851360833338,197.40607891458336,68.0,89.0
750,196.84851360833338,197.46035518333338,61.0,84.0
751,197.63798660833336,197.7991706791667,61.0,89.0
752,197.63798660833336,198.09193358333337,68.0,90.0
753,198.03272310833336,198.32548601250002,61.0,86.0
754,198.42745960833335,198.87811711250004,64.0,96.0
755,198.42745960833335,198.9192354979167,68.0,92.0
756,198.82219610833337,199.10015639375004,61.0,77.0
757,199.21693260833337,199.35837985416669,64.0,96.0
758,199.21693260833337,199.37976141458336,68.0,89.0
759,199.21693260833337,199.40607718125003,61.0,92.0
760,197.24325010833337,199.4373271541667,44.0,79.0
761,196.84851360833338,199.44555083125002,37.0,93.0
762,200.00640560833335,200.51956305833338,59.0,92.0
763,200.00640560833335,200.5228525291667,54.0,86.0
764,200.40114210833337,200.99982580000002,49.0,61.0
765,200.79587860833337,201.07219415833336,54.0,97.0
766,200.79587860833337,201.28107555625002,59.0,96.0
767,200.00640560833335,201.45212803958336,42.0,94.0
768,201.19061510833336,201.53600954583337,49.0,87.0
769,201.58535160833335,201.81396983125003,54.0,89.0
770,201.58535160833335,201.85179874583338,58.0,87.0
771,201.98008810833338,202.5014692354167,49.0,81.0
772,202.37482460833337,202.5064034416667,54.0,94.0
773,202.37482460833337,202.53765341458336,61.0,94.0
774,201.58535160833335,202.54094288541668,42.0,96.0
775,202.76956110833336,202.9159425604167,42.0,91.0
776,203.16429760833336,203.74653394583336,66.0,88.0
777,203.16429760833336,203.75146815208336,62.0,90.0
778,203.16429760833336,203.98502058125004,57.0,86.0
779,203.95377060833337,204.40278337708335,62.0,90.0
780,203.95377060833337,204.40771758333335,66.0,88.0
781,204.34850710833337,204.80903302500002,57.0,77.0
782,204.74324360833336,204.8797566479167,62.0,88.0
783,204.74324360833336,204.96528288958336,66.0,95.0
784,205.13798010833335,205.34357203541668,57.0,70.0
785,205.53271660833337,205.67745332500004,57.0,94.0
786,205.53271660833337,205.71528223958336,62.0,95.0
787,203.16429760833336,205.72186118125003,38.0,94.0
788,203.55903410833335,205.72515065208336,45.0,71.0
789,205.53271660833337,205.7679137729167,66.0,95.0
790,206.32218960833336,206.6165972479167,59.0,89.0
791,206.32218960833336,207.03436004375004,64.0,94.0
792,207.11166260833338,207.46199125208335,56.0,77.0
793,207.11166260833338,207.50310963750002,64.0,89.0
794,207.11166260833338,207.57054378958335,59.0,90.0
795,207.50639910833337,208.02778023541669,52.0,76.0
796,207.90113560833336,208.35672731875002,56.0,80.0
797,207.90113560833336,208.40113517500004,64.0,89.0
798,207.90113560833336,208.45376670833338,59.0,83.0
799,206.32218960833336,208.7333717291667,40.0,95.0
800,206.71692610833335,208.7333717291667,47.0,82.0
801,208.29587210833336,208.76462170208336,52.0,85.0
802,208.69060860833338,208.90277947708336,56.0,95.0
803,208.69060860833338,208.9110031541667,59.0,94.0
804,208.69060860833338,209.0146214854167,64.0,96.0
805,209.48008160833336,209.96363382083337,64.0,97.0
806,209.87481810833336,210.1297520979167,56.0,81.0
807,210.26955460833335,210.4258044729167,56.0,91.0
808,210.66429110833337,210.7909357354167,56.0,39.0
809,210.26955460833335,210.79258047083337,64.0,97.0
810,211.05902760833337,211.3139615979167,56.0,86.0
811,211.05902760833337,211.53271140833337,64.0,96.0
812,211.45376410833336,211.6544218291667,56.0,57.0
813,209.48008160833336,211.86494796250003,37.0,94.0
814,211.84850060833335,212.01626362083337,56.0,88.0
815,211.84850060833335,212.06725041875004,64.0,96.0
816,212.63797360833337,213.1396179104167,59.0,92.0
817,212.63797360833337,213.15606526458336,54.0,86.0
818,213.03271010833336,213.57711753125002,49.0,59.0
819,213.42744660833336,213.74323580833337,59.0,98.0
820,213.42744660833336,213.7613278979167,54.0,100.0
821,213.82218310833338,214.33534055833337,49.0,85.0
822,214.21691960833337,214.57876140000002,58.0,95.0
823,214.21691960833337,214.69718235000002,54.0,96.0
824,214.61165610833336,215.12645829375003,49.0,81.0
825,212.63797360833337,215.47020799583336,42.0,94.0
826,215.00639260833336,215.74158933958336,54.0,93.0
827,215.00639260833336,215.76132616458335,61.0,95.0
828,215.40112910833338,215.85014187708336,49.0,88.0
829,215.79586560833337,216.31066779375004,66.0,83.0
830,215.79586560833337,216.31560200000004,62.0,89.0
831,216.19060210833337,216.6132991104167,57.0,80.0
832,216.58533860833336,216.7070490291667,62.0,95.0
833,216.58533860833336,216.81395683125004,66.0,97.0
834,216.98007510833335,217.2004696541667,57.0,69.0
835,217.37481160833337,217.72185078125003,66.0,86.0
836,217.37481160833337,217.84520593750003,62.0,88.0
837,217.76954810833337,218.03106103958336,57.0,59.0
838,215.79586560833337,218.34356076875002,38.0,94.0
839,218.55902110833335,218.81559983333338,38.0,97.0
840,218.16428460833336,218.83040245208338,62.0,96.0
841,218.16428460833336,218.86658663125004,66.0,98.0
842,218.95375760833338,219.3419151666667,64.0,94.0
843,218.95375760833338,219.41263878958335,59.0,89.0
844,219.74323060833336,220.1708618166667,68.0,93.0
845,219.74323060833336,220.24323017500004,64.0,93.0
846,220.13796710833336,220.60671670208336,59.0,74.0
847,220.53270360833338,220.97349270000004,68.0,90.0
848,220.53270360833338,221.0294137041667,64.0,90.0
849,220.92744010833337,221.11658468125003,59.0,79.0
850,221.32217660833336,221.51461065208338,64.0,98.0
851,221.32217660833336,221.5376369479167,68.0,95.0
852,221.32217660833336,221.5524395666667,59.0,94.0
853,219.34849410833337,221.5672421854167,47.0,79.0
854,218.95375760833338,221.61822898333335,40.0,97.0
855,222.11164960833338,222.63632020625005,61.0,93.0
856,222.11164960833338,222.64618861875005,57.0,91.0
857,222.90112260833337,222.95046467083336,57.0,65.0
858,222.90112260833337,223.16263553958336,64.0,94.0
859,222.90112260833337,223.17743815833336,61.0,83.0
860,222.50638610833337,223.92908224375003,52.0,82.0
861,223.69059560833335,224.0836873729167,61.0,95.0
862,223.69059560833335,224.2415819729167,64.0,95.0
863,224.48006860833337,224.84519987083337,69.0,93.0
864,224.48006860833337,224.93072611250003,61.0,94.0
865,224.48006860833337,224.95868661458337,64.0,95.0
866,224.08533210833338,225.05408126875002,52.0,76.0
867,222.11164960833338,225.1494759229167,45.0,95.0
868,224.87480510833336,225.75802802708336,57.0,88.0
869,225.26954160833336,225.84190953333336,61.0,86.0
870,225.26954160833336,225.85835688750004,64.0,94.0
871,226.05901460833337,226.34684330625004,61.0,86.0
872,226.05901460833337,226.5606589104167,64.0,94.0
873,226.45375110833336,226.75144821875003,57.0,72.0
874,226.84848760833336,227.02776376875002,61.0,95.0
875,225.66427810833338,227.0787505666667,52.0,80.0
876,226.84848760833336,227.26460566875002,64.0,98.0
877,227.24322410833338,227.38138188333338,57.0,68.0
878,227.63796060833337,227.93401298333336,64.0,100.0
879,227.24322410833338,227.94388139583336,52.0,78.0
880,225.26954160833336,227.95046033750003,45.0,94.0
881,227.63796060833337,228.2333548291667,61.0,110.0
882,227.63796060833337,228.27940742083337,57.0,97.0
883,228.42743360833336,228.99651206250005,61.0,90.0
884,228.42743360833336,229.04091991875003,66.0,94.0
885,228.42743360833336,229.38960382708336,42.0,94.0
886,228.82217010833338,229.4175643291667,49.0,72.0
887,229.21690660833337,229.65605096458336,61.0,101.0
888,229.21690660833337,229.74157720625004,66.0,95.0
889,229.61164310833337,229.75802456041671,57.0,97.0
890,230.00637960833336,230.6017738291667,64.0,94.0
891,230.00637960833336,230.61986591875004,68.0,89.0
892,230.00637960833336,230.64947115625003,59.0,85.0
893,230.40111610833335,231.01953662500003,47.0,74.0
894,230.00637960833336,231.0853260416667,40.0,96.0
895,230.79585260833338,231.21526013958336,64.0,100.0
896,230.79585260833338,231.21854961041672,68.0,101.0
897,231.19058910833337,231.37479947500003,59.0,87.0
898,231.58532560833336,232.14782512083337,66.0,92.0
899,231.58532560833336,232.16262773958337,62.0,94.0
900,232.37479860833338,232.6445352166667,66.0,99.0
901,232.37479860833338,232.79585087500004,62.0,95.0
902,232.76953510833337,233.02117962708337,57.0,81.0
903,233.16427160833337,233.5771001979167,66.0,90.0
904,233.16427160833337,233.6017712291667,62.0,94.0
905,231.98006210833336,234.16591547708336,45.0,78.0
906,231.58532560833336,234.17742862500003,38.0,95.0
907,233.95374460833338,234.27940222083336,62.0,94.0
908,233.95374460833338,234.3369679604167,66.0,92.0
909,234.74321760833337,235.2547303229167,61.0,94.0
910,234.74321760833337,235.29749344375003,66.0,89.0
911,234.74321760833337,235.6346642041667,42.0,94.0
912,235.13795410833336,235.6395984104167,49.0,67.0
913,235.53269060833338,235.9356507854167,61.0,99.0
914,235.53269060833338,236.0145980854167,66.0,95.0
915,235.92742710833338,236.02775596875003,57.0,94.0
916,236.32216360833337,236.58861074583336,59.0,88.0
917,236.32216360833337,236.87479470833338,64.0,95.0
918,236.32216360833337,236.87479470833338,68.0,89.0
919,236.71690010833336,237.1889391729167,59.0,84.0
920,236.32216360833337,237.36328112708338,40.0,97.0
921,237.11163660833336,237.4356494854167,64.0,97.0
922,237.11163660833336,237.48334681250003,68.0,103.0
923,237.50637310833338,237.79749127708337,59.0,83.0
924,237.90110960833337,238.07874103333336,59.0,89.0
925,237.90110960833337,238.26295140000005,66.0,85.0
926,237.90110960833337,238.32216187500003,63.0,88.0
927,238.29584610833336,238.55735903958336,59.0,85.0
928,238.69058260833336,239.16591114375004,63.0,96.0
929,238.69058260833336,239.18071376250003,66.0,86.0
930,238.69058260833336,239.2119637354167,59.0,91.0
931,239.08531910833338,239.60834497083337,54.0,77.0
932,239.48005560833337,239.7942000729167,66.0,81.0
933,239.48005560833337,239.83696319375002,63.0,84.0
934,239.48005560833337,239.85012107708337,59.0,90.0
935,239.87479210833337,240.3418969666667,54.0,59.0
936,240.26952860833336,240.4652521229167,63.0,98.0
937,237.90110960833337,240.48663368333337,47.0,94.0
938,240.26952860833336,240.50308103750004,59.0,95.0
939,240.26952860833336,240.5096599791667,66.0,95.0
940,241.05900160833338,241.55242223333337,61.0,86.0
941,241.05900160833338,241.5655801166667,66.0,87.0
942,241.05900160833338,241.96689555833336,42.0,97.0
943,241.45373810833337,242.01130341458338,49.0,78.0
944,241.84847460833336,242.27939528750002,61.0,100.0
945,241.84847460833336,242.33202682083336,66.0,98.0
946,242.24321110833338,242.36656626458338,57.0,95.0
947,242.63794760833338,243.2432102416667,64.0,95.0
948,242.63794760833338,243.2481444479167,68.0,87.0
949,243.42742060833336,243.8106439604167,64.0,100.0
950,243.42742060833336,243.82215710833336,68.0,101.0
951,243.03268410833337,243.82380184375003,47.0,78.0
952,242.63794760833338,243.86820970000002,40.0,97.0
953,243.82215710833336,243.93564385208336,59.0,94.0
954,244.21689360833338,244.7530773541667,62.0,90.0
955,244.21689360833338,244.7826825916667,66.0,87.0
956,244.61163010833337,245.0886033791667,57.0,81.0
957,245.00636660833337,245.14452438333336,62.0,95.0
958,245.00636660833337,245.2070243291667,66.0,98.0
959,245.79583960833338,246.23827343541672,66.0,97.0
960,245.79583960833338,246.24156290625004,62.0,94.0
961,244.21689360833338,246.4356416854167,38.0,96.0
962,246.19057610833337,246.64616781875003,57.0,87.0
963,246.58531260833337,246.96360175416672,62.0,95.0
964,246.58531260833337,246.97347016666671,66.0,95.0
965,246.98004910833336,247.06064114375005,57.0,90.0
966,247.37478560833338,247.8566930854167,57.0,94.0
967,247.37478560833338,247.89452200000002,61.0,94.0
968,248.16425860833337,248.29419270625004,57.0,99.0
969,248.16425860833337,248.30241638333337,54.0,95.0
970,248.16425860833337,248.35833738750003,61.0,96.0
971,247.37478560833338,248.3797189479167,42.0,98.0
972,247.76952210833338,248.54912669583337,49.0,79.0
973,248.55899510833336,248.70373182500003,42.0,94.0
974,248.95373160833338,249.20208665625003,59.0,90.0
975,248.95373160833338,249.45866538125003,64.0,95.0
976,248.95373160833338,249.4603101166667,68.0,93.0
977,249.34846810833338,249.64452048333337,59.0,92.0
978,249.74320460833337,249.9438623291667,59.0,98.0
979,249.74320460833337,250.11327007708337,68.0,98.0
980,249.74320460833337,250.13629637291672,64.0,100.0
981,248.95373160833338,250.22182261458337,40.0,97.0
982,250.13794110833337,250.2793883541667,59.0,99.0
983,250.53267760833336,250.9849798479167,69.0,95.0
984,250.53267760833336,251.02609823333336,66.0,92.0
985,250.92741410833338,251.33201902083337,63.0,82.0
986,251.32215060833337,251.48826888541672,66.0,84.0
987,251.32215060833337,251.51129518125003,69.0,94.0
988,251.71688710833337,251.99813686458336,63.0,82.0
989,252.11162360833336,252.28432082708338,66.0,90.0
990,252.11162360833336,252.29912344583337,69.0,94.0
991,252.50636010833338,252.88629398958338,63.0,76.0
992,250.53267760833336,253.2152410729167,39.0,92.0
993,252.90109660833338,253.35010937708338,69.0,94.0
994,252.90109660833338,253.3632672604167,66.0,83.0
995,253.29583310833337,253.68234593125004,63.0,94.0
996,253.69056960833336,256.69714595000005,63.0,87.0
997,253.69056960833336,256.7135933041667,66.0,87.0
998,253.69056960833336,256.74155380625,69.0,96.0
999,253.69056960833336,256.7629353666667,39.0,95.0
1000,256.84846160833337,257.0803693020834,62.0,94.0
1001,256.84846160833337,257.1724744854167,66.0,90.0
1002,257.2431981083334,257.4635926541667,62.0,91.0
1003,256.84846160833337,257.585303075,38.0,97.0
1004,257.63793460833335,257.81721076875004,62.0,95.0
1005,257.63793460833335,258.1066842020834,66.0,100.0
1006,257.63793460833335,258.11161840833336,69.0,95.0
1007,258.0326711083334,258.3517497791667,62.0,87.0
1008,258.4274076083334,258.6001048270834,66.0,88.0
1009,257.63793460833335,258.8665519645834,45.0,90.0
1010,258.4274076083334,258.87313090625,69.0,93.0
1011,257.63793460833335,258.9997755333334,38.0,95.0
1012,258.82214410833336,259.0672096854167,62.0,90.0
1013,259.2168806083334,259.3484594416667,62.0,93.0
1014,259.2168806083334,259.4438540958334,66.0,99.0
1015,259.2168806083334,259.480038275,38.0,100.0
1016,259.2168806083334,259.6609591708334,69.0,95.0
1017,260.00635360833337,260.19549818125006,59.0,93.0
1018,260.00635360833337,260.4142479916667,66.0,95.0
1019,260.00635360833337,260.4389190229167,62.0,94.0
1020,260.4010901083334,260.6576688333334,59.0,88.0
1021,260.79582660833336,261.0079974770834,59.0,96.0
1022,260.79582660833336,261.2744446145834,62.0,97.0
1023,260.79582660833336,261.2941814395834,66.0,96.0
1024,261.1905631083334,261.36326032708337,59.0,88.0
1025,260.79582660833336,261.48661548333337,54.0,84.0
1026,260.00635360833337,261.50306283750007,47.0,95.0
1027,261.5852996083334,261.5951680208334,62.0,82.0
1028,261.5852996083334,261.84681253958337,59.0,95.0
1029,261.5852996083334,262.04582552500005,64.0,95.0
1030,261.98003610833337,262.2349700979167,59.0,90.0
1031,261.5852996083334,262.4915488229167,52.0,97.0
1032,262.3747726083334,262.5277330020834,59.0,99.0
1033,262.5721408583334,262.67246971875005,59.0,90.0
1034,262.3747726083334,262.677403925,64.0,108.0
1035,262.3747726083334,262.6938512791667,68.0,100.0
1036,263.1642456083334,263.3649033291667,57.0,90.0
1037,263.1642456083334,263.61983731875006,61.0,89.0
1038,263.1642456083334,263.75799509375,64.0,96.0
1039,263.5589821083334,263.7612845645834,57.0,86.0
1040,263.95371860833336,264.1280605625,57.0,95.0
1041,263.95371860833336,264.45371817500006,61.0,99.0
1042,263.95371860833336,264.49648129583335,64.0,97.0
1043,264.3484551083334,264.62970486458335,57.0,80.0
1044,264.74319160833335,264.98661245000005,61.0,97.0
1045,264.74319160833335,265.01128348125,69.0,93.0
1046,264.94055985833336,265.1346386375,57.0,80.0
1047,264.74319160833335,265.1543754625,64.0,97.0
1048,265.13792810833337,265.8287169833334,52.0,81.0
1049,263.1642456083334,266.0063484083334,45.0,96.0
1050,265.5326646083334,266.0096378791667,61.0,100.0
1051,265.5326646083334,266.0984535916667,64.0,101.0
1052,265.92740110833336,266.28924290000003,57.0,95.0
1053,266.3221376083334,266.61818998333337,57.0,83.0
1054,266.3221376083334,266.73825566875,61.0,93.0
1055,266.3221376083334,266.77115037708336,64.0,95.0
1056,266.7168741083334,267.29417623958335,52.0,82.0
1057,267.11161060833336,267.3188472708334,57.0,96.0
1058,267.11161060833336,267.4027287770834,61.0,98.0
1059,267.11161060833336,267.7316758604167,64.0,100.0
1060,266.3221376083334,267.74812321458336,45.0,95.0
1061,267.5063471083334,267.7991100125,57.0,87.0
1062,267.90108360833335,268.0178598229167,57.0,79.0
1063,267.90108360833335,268.26292540000003,61.0,98.0
1064,267.90108360833335,268.2941753729167,67.0,86.0
1065,267.90108360833335,268.30239905,64.0,96.0
1066,268.6905566083334,268.88956959375,57.0,95.0
1067,268.6905566083334,268.88956959375,61.0,99.0
1068,268.2958201083334,268.9027274770834,52.0,81.0
1069,267.90108360833335,268.91424062500005,45.0,94.0
1070,268.6905566083334,268.9356221854167,64.0,100.0
1071,268.6905566083334,268.97180636458336,67.0,94.0
1072,269.4800296083334,269.93562131875007,66.0,90.0
1073,269.4800296083334,269.99483179375005,62.0,94.0
1074,269.87476610833335,270.0474633270834,57.0,87.0
1075,270.26950260833337,270.40437091250004,57.0,95.0
1076,269.4800296083334,270.55239710000006,38.0,97.0
1077,270.26950260833337,270.66094963750004,66.0,98.0
1078,270.26950260833337,270.7596337625,62.0,100.0
1079,270.6642391083334,270.9306862458334,57.0,91.0
1080,271.05897560833336,271.2250938854167,57.0,89.0
1081,271.05897560833336,271.5573304395834,66.0,94.0
1082,271.05897560833336,271.57048832291673,62.0,96.0
1083,271.05897560833336,271.6395672104167,50.0,93.0
1084,271.4537121083334,271.65601456458336,57.0,85.0
1085,271.8484486083334,272.0606194770834,57.0,97.0
1086,271.8484486083334,272.22344828333337,62.0,97.0
1087,271.8484486083334,272.2415403729167,66.0,96.0
1088,272.6379216083334,272.84186880000004,59.0,93.0
1089,272.6379216083334,273.08857911250004,62.0,94.0
1090,272.6379216083334,273.10667120208336,66.0,90.0
1091,273.03265810833335,273.25634212500006,59.0,94.0
1092,273.03265810833335,273.53265767500005,54.0,73.0
1093,273.4273946083334,273.5688418541667,59.0,98.0
1094,272.6379216083334,273.6642365083334,47.0,94.0
1095,273.4273946083334,273.690552275,62.0,100.0
1096,273.4273946083334,273.8155521666667,66.0,97.0
1097,273.8221311083334,274.2744333479167,59.0,94.0
1098,274.21686760833336,274.6116041083334,68.0,93.0
1099,274.21686760833336,274.6757487895834,64.0,94.0
1100,274.6116041083334,274.8089723583334,59.0,94.0
1101,274.21686760833336,275.1675246791667,40.0,96.0
1102,275.0063406083334,275.17410362083336,59.0,96.0
1103,275.0063406083334,275.3862744895834,64.0,98.0
1104,275.0063406083334,275.39120869583337,68.0,95.0
1105,275.40107710833337,275.51620858750005,59.0,95.0
1106,275.7958136083334,276.08364230625006,57.0,84.0
1107,275.7958136083334,276.26620793750004,61.0,83.0
1108,275.7958136083334,276.32048420625006,64.0,93.0
1109,276.19055010833335,276.7563390916667,52.0,81.0
1110,276.5852866083334,277.0770624979167,61.0,99.0
1111,276.5852866083334,277.0951545875,64.0,100.0
1112,276.9800231083334,277.24153603958337,57.0,88.0
1113,277.37475960833336,277.8139039645834,61.0,100.0
1114,275.7958136083334,277.8319960541667,45.0,95.0
1115,277.37475960833336,277.835285525,64.0,103.0
1116,277.7694961083334,278.5935085520834,52.0,86.0
1117,278.16423260833335,278.62640326041674,61.0,100.0
1118,278.16423260833335,278.6313374666667,69.0,83.0
1119,278.16423260833335,278.67903479375,64.0,99.0
1120,278.5589691083334,278.8204820395834,57.0,95.0
1121,278.9537056083334,279.4356130854167,69.0,94.0
1122,278.9537056083334,279.46192885208336,61.0,100.0
1123,278.9537056083334,279.50140250208335,64.0,99.0
1124,279.34844210833336,279.5589682416667,57.0,79.0
1125,279.7431786083334,279.9964678625,57.0,97.0
1126,279.7431786083334,280.17903349375007,69.0,95.0
1127,279.7431786083334,280.18396770000004,61.0,115.0
1128,279.7431786083334,280.1971255833334,64.0,103.0
1129,280.33528335833336,280.43561221875007,57.0,95.0
1130,280.1379151083334,280.6313357333334,52.0,92.0
1131,280.53265160833337,281.05238800000006,57.0,99.0
1132,280.53265160833337,281.07541429583335,61.0,103.0
1133,280.53265160833337,281.0787037666667,64.0,105.0
1134,278.9537056083334,281.4405455583334,45.0,95.0
1135,280.9273881083334,281.4504139708334,52.0,94.0
1136,281.32212460833335,281.6872558708334,57.0,96.0
1137,281.32212460833335,281.7514005520834,61.0,99.0
1138,281.32212460833335,281.81554523333335,69.0,93.0
1139,281.32212460833335,281.90600568125006,64.0,101.0
1140,281.7168611083334,282.0408739854167,45.0,95.0
1141,282.1115976083334,284.36652986458336,62.0,95.0
1142,282.1115976083334,284.38297721875006,57.0,94.0
1143,282.1115976083334,284.39284563125005,66.0,93.0
1144,282.1115976083334,284.3994245729167,38.0,96.0
1145,285.2694896083334,286.42080440000007,47.0,94.0
1146,285.2694896083334,286.6263963270834,59.0,85.0
1147,285.2694896083334,286.6362647395834,62.0,89.0
1148,285.2694896083334,286.68725153750006,66.0,85.0
1149,286.8254093125,288.18231603125,40.0,98.0
1150,286.71027783333335,288.3237632770834,52.0,90.0
1151,286.7793567208334,288.41422372500006,56.0,86.0
1152,286.8648829625,288.53099993958335,59.0,87.0
1153,286.8911987291667,288.6921840104167,64.0,96.0
1154,290.13132750000005,290.46191931875006,57.0,74.0
1155,290.38297201875,290.81718216875004,59.0,89.0
1156,290.6954717479167,291.0671819520834,61.0,72.0
1157,291.06882668750006,291.25961599583337,64.0,78.0
1158,289.88626192291673,293.3053698562501,52.0,85.0
1159,289.6050121666667,293.37127894166673,45.0,94.0
1160,293.3803698500001,293.7303698208334,57.0,89.0
1161,293.3803698500001,294.0371879770834,62.0,94.0
1162,293.9258243500001,294.24765432500004,57.0,96.0
1163,294.3594963333334,294.7164039187501,66.0,95.0
1164,294.3594963333334,294.8266011916667,62.0,96.0
1165,294.7542328333334,295.0552194145834,57.0,89.0
1166,295.1489693333334,295.5667321291667,66.0,94.0
1167,295.1489693333334,295.62923207500006,62.0,95.0
1168,295.5437058333334,295.73285040625007,57.0,73.0
1169,293.3803698500001,296.0420606645834,38.0,99.0
1170,295.9384423333334,296.10291587500006,57.0,96.0
1171,295.9384423333334,296.15883687916676,62.0,101.0
1172,295.9384423333334,296.4121261333334,66.0,96.0
1173,296.3331788333334,296.4236392812501,62.0,77.0
1174,296.3331788333334,296.49436290416674,57.0,94.0
1175,296.3331788333334,296.51409972916673,38.0,100.0
1176,296.7279153333334,296.9203493770834,59.0,94.0
1177,296.7279153333334,296.9894282645834,64.0,95.0
1178,297.1226518333334,297.3792305583334,59.0,96.0
1179,297.5173883333334,297.8923880083334,68.0,95.0
1180,297.7147565833334,297.91376956875007,59.0,90.0
1181,297.5173883333334,297.9779142500001,64.0,95.0
1182,298.3068613333334,298.4400849020834,59.0,88.0
1183,298.3068613333334,298.5552163812501,64.0,95.0
1184,298.3068613333334,298.7344925416667,68.0,94.0
1185,298.7015978333334,298.8002819583334,64.0,40.0
1186,298.7015978333334,298.89074240625007,59.0,89.0
1187,296.7279153333334,298.9746239125001,40.0,98.0
1188,299.0963343333334,299.25093946250007,59.0,94.0
1189,299.0963343333334,299.4318603583334,40.0,95.0
1190,299.0963343333334,299.5338339541667,64.0,100.0
1191,299.4910708333334,299.5716628687501,59.0,92.0
1192,299.0963343333334,299.61278125416675,68.0,97.0
1193,299.8858073333334,300.0453466687501,61.0,90.0
1194,299.8858073333334,300.3348201020834,64.0,97.0
1195,299.8858073333334,300.35126745625007,68.0,93.0
1196,300.2805438333334,300.51574099791674,61.0,83.0
1197,300.6752803333334,300.8233065208334,61.0,94.0
1198,300.6752803333334,300.91541170416673,64.0,103.0
1199,300.6752803333334,301.0996220708334,68.0,95.0
1200,301.0700168333334,301.27560876041673,61.0,83.0
1201,301.4647533333334,301.5782400770834,61.0,84.0
1202,301.4647533333334,301.6522531708334,64.0,90.0
1203,301.4647533333334,301.72955573541674,68.0,90.0
1204,301.8594898333334,302.07001596666674,61.0,81.0
1205,302.2542263333334,302.4071867270834,61.0,96.0
1206,299.8858073333334,302.5058708520834,37.0,93.0
1207,302.2542263333334,302.68679174791674,64.0,105.0
1208,302.2542263333334,302.71475225000006,68.0,98.0
1209,302.64896283333337,302.8989626166667,61.0,94.0
1210,303.0436993333334,303.33152803125006,54.0,96.0
1211,303.0436993333334,303.54040942916674,61.0,98.0
1212,303.4384358333334,304.0700142333334,49.0,82.0
1213,303.8331723333334,304.32001401666673,61.0,94.0
1214,303.8331723333334,304.3512639895834,54.0,95.0
1215,304.2279088333334,304.77231625625006,49.0,81.0
1216,304.6226453333334,305.0913949270834,66.0,93.0
1217,304.6226453333334,305.1259343708334,54.0,100.0
1218,303.0436993333334,305.5667234625001,42.0,101.0
1219,305.0173818333334,305.58810502291675,49.0,89.0
1220,305.4121183333334,306.1325124458334,54.0,96.0
1221,305.4121183333334,306.14895980000006,61.0,94.0
1222,305.8068548333334,306.18843345000005,49.0,98.0
1223,305.4121183333334,306.1933676562501,66.0,94.0
1224,306.2015913333334,306.45488058750004,57.0,89.0
1225,306.2015913333334,306.6769198687501,62.0,94.0
1226,306.5963278333334,306.87922232500006,57.0,96.0
1227,306.9910643333334,307.3479719187501,66.0,95.0
1228,306.9910643333334,307.45816919166674,62.0,96.0
1229,307.3858008333334,307.6867874145834,57.0,89.0
1230,307.7805373333334,308.19830012916674,66.0,94.0
1231,307.7805373333334,308.2608000750001,62.0,95.0
1232,308.1752738333334,308.3644184062501,57.0,73.0
1233,306.2015913333334,308.6736286645834,38.0,99.0
1234,308.5700103333334,308.7344838750001,57.0,96.0
1235,308.5700103333334,308.7904048791667,62.0,101.0
1236,308.5700103333334,309.0436941333334,66.0,96.0
1237,308.9647468333334,309.0552072812501,62.0,77.0
1238,308.9647468333334,309.12593090416675,57.0,94.0
1239,308.9647468333334,309.14566772916675,38.0,100.0
1240,309.3594833333334,309.5519173770834,59.0,94.0
1241,309.3594833333334,309.6209962645834,64.0,95.0
1242,309.7542198333334,310.0107985583334,59.0,96.0
1243,310.1489563333334,310.5239560083334,68.0,95.0
1244,310.3463245833334,310.5453375687501,59.0,90.0
1245,310.1489563333334,310.60948225000004,64.0,95.0
1246,310.9384293333334,311.07165290208343,59.0,88.0
1247,310.9384293333334,311.18678438125005,64.0,95.0
1248,310.9384293333334,311.36606054166674,68.0,94.0
1249,311.3331658333334,311.4318499583334,64.0,40.0
1250,311.3331658333334,311.5223104062501,59.0,89.0
1251,309.3594833333334,311.6061919125001,40.0,98.0
1252,311.7279023333334,311.8825074625001,59.0,94.0
1253,311.7279023333334,312.0634283583334,40.0,95.0
1254,311.7279023333334,312.1654019541667,64.0,100.0
1255,312.1226388333334,312.2032308687501,59.0,92.0
1256,311.7279023333334,312.24434925416676,68.0,97.0
1257,312.5173753333334,312.67691466875004,61.0,90.0
1258,312.5173753333334,312.9663881020834,64.0,97.0
1259,312.5173753333334,312.9828354562501,68.0,93.0
1260,312.9121118333334,313.14730899791675,61.0,83.0
1261,313.3068483333334,313.4548745208334,61.0,94.0
1262,313.3068483333334,313.54697970416674,64.0,103.0
1263,313.3068483333334,313.7311900708334,68.0,95.0
1264,313.7015848333334,313.90717676041675,61.0,83.0
1265,314.0963213333334,314.2098080770834,61.0,84.0
1266,314.0963213333334,314.2838211708334,64.0,90.0
1267,314.0963213333334,314.36112373541675,68.0,90.0
1268,314.4910578333334,314.70158396666676,61.0,81.0
1269,314.8857943333334,315.0387547270834,61.0,96.0
1270,312.5173753333334,315.1374388520834,37.0,93.0
1271,314.8857943333334,315.31835974791676,64.0,105.0
1272,314.8857943333334,315.3463202500001,68.0,98.0
1273,315.2805308333334,315.53053061666674,61.0,94.0
1274,315.6752673333334,315.9630960312501,54.0,96.0
1275,315.6752673333334,316.17197742916676,61.0,98.0
1276,316.07000383333343,316.7015822333334,49.0,82.0
1277,316.4647403333334,316.95158201666675,61.0,94.0
1278,316.4647403333334,316.9828319895834,54.0,95.0
1279,316.8594768333334,317.4038842562501,49.0,81.0
1280,317.2542133333334,317.7229629270834,66.0,93.0
1281,317.2542133333334,317.7575023708334,54.0,100.0
1282,315.6752673333334,318.1982914625001,42.0,101.0
1283,317.6489498333334,318.2196730229167,49.0,89.0
1284,318.0436863333334,318.76408044583343,54.0,96.0
1285,318.0436863333334,318.7805278000001,61.0,94.0
1286,318.4384228333334,318.82000145000006,49.0,98.0
1287,318.0436863333334,318.8249356562501,66.0,94.0
1288,318.7114489125001,318.8249356562501,66.0,82.0
1289,318.8676987770834,321.41045973125006,74.0,75.0
1290,318.64894896666675,321.42197287916673,62.0,83.0
1291,318.8051988312501,321.43677549791676,69.0,75.0
1292,318.6950015583334,321.5765780083334,38.0,82.0
