,start,end,pitch,velocity
0,1.9443056020833334,2.2004935458333335,79.0,88.0
1,2.241335102083333,2.4146023104166665,77.0,81.0
2,2.5383646020833335,2.717819925,79.0,83.0
3,2.8353941020833333,2.9975227041666668,82.0,95.0
4,3.1324236020833336,3.2797007291666667,82.0,95.0
5,3.4294531020833334,3.5284629354166666,79.0,81.0
6,3.5779678520833333,3.6608885875,77.0,81.0
7,3.7264826020833333,4.15470013125,74.0,90.0
8,4.320541602083334,4.6707888875,74.0,90.0
9,4.766085852083333,4.8712838000000005,77.0,79.0
10,4.9146006020833335,5.066828220833333,79.0,80.0
11,5.211630102083333,5.32054091875,77.0,90.0
12,5.508659602083333,5.730194104166666,77.0,78.0
13,5.805689102083333,5.9950454083333335,74.0,93.0
14,6.102718602083334,6.53093613125,72.0,83.0
15,6.993807102083333,7.2054406208333335,74.0,90.0
16,7.290836602083333,7.491331514583334,77.0,80.0
17,7.587866102083334,7.7871233916666664,72.0,83.0
18,7.884895602083334,8.058162810416666,77.0,86.0
19,8.181925102083333,8.28341018125,79.0,80.0
20,8.330439852083334,8.448014029166666,77.0,80.0
21,8.478954602083334,8.674499022916667,74.0,96.0
22,8.775984102083333,8.94058795,72.0,83.0
23,9.073013602083334,11.199641900000001,70.0,84.0
24,38.345258381250005,38.60272023750001,79.0,90.0
25,38.64376488125001,38.952221597916676,77.0,81.0
26,38.94227138125001,39.42112555833334,79.0,85.0
27,39.539284381250006,39.75321403958334,82.0,86.0
28,39.83779088125001,40.038038991666674,84.0,90.0
29,40.13629738125,40.39749056875001,79.0,79.0
30,40.434803881250005,40.59276357083334,77.0,81.0
31,40.73331038125001,41.082811741666674,74.0,93.0
32,41.18107013125001,41.316641833333335,82.0,82.0
33,41.330323381250004,41.59151656875001,79.0,80.0
34,41.628829881250006,41.89126684583334,77.0,80.0
35,41.92733638125001,42.37603669375001,79.0,83.0
36,42.37603669375001,42.53314373125001,82.0,83.0
37,42.52566244375001,42.81867953750001,79.0,90.0
38,42.824913943750005,42.98202098125001,77.0,80.0
39,43.12416544375001,43.47453907500001,74.0,93.0
40,43.423416943750006,43.642868043750006,72.0,81.0
41,43.72266844375001,43.89972558125001,74.0,93.0
42,44.02191994375001,44.136633018750004,77.0,83.0
43,44.32117144375,44.473290956250004,82.0,88.0
44,44.62042294375001,44.766308050000006,82.0,82.0
45,44.770048693750006,44.86481166875001,84.0,81.0
46,44.919674443750004,45.21892594375001,79.0,80.0
47,45.21892594375001,45.354836000000006,77.0,82.0
48,45.518177443750005,45.81742894375001,70.0,80.0
49,45.81742894375001,46.116680443750006,72.0,80.0
50,46.116680443750006,46.41593194375001,77.0,80.0
51,46.41593194375001,46.71518344375001,74.0,80.0
52,46.71518344375001,47.91218944375001,72.0,80.0
53,47.91218944375001,48.303710156250006,77.0,81.0
54,48.361066693750004,48.49448298750001,79.0,79.0
55,48.51069244375001,48.765056218750004,77.0,83.0
56,48.80994394375001,48.99697613125001,74.0,96.0
57,49.10919544375001,49.438372093750004,77.0,85.0
58,49.558072693750006,49.686501462500004,79.0,79.0
59,49.707698443750004,49.95832157500001,77.0,86.0
60,50.00694994375001,50.16530386250001,74.0,96.0
61,50.306201443750005,50.53562759375001,70.0,90.0
62,50.60545294375001,50.78999136875001,72.0,83.0
63,50.904704443750006,51.07802093750001,77.0,81.0
64,51.20395594375,51.40345694375001,74.0,88.0
65,51.50320744375001,52.51318125625001,72.0,90.0
66,52.70021344375001,52.96455226875001,79.0,80.0
67,52.999464943750006,53.24011302500001,77.0,77.0
68,53.29871644375001,53.60295546875001,79.0,80.0
69,53.59796794375001,53.77128443750001,82.0,80.0
70,53.897219443750004,54.10669549375001,82.0,83.0
71,54.19647094375001,54.34110916875001,79.0,78.0
72,54.346096693750006,54.457069125000004,77.0,69.0
73,54.49572244375001,54.94459969375001,74.0,62.0
74,55.094225443750005,55.44709283750001,74.0,90.0
75,55.54310269375001,55.70145661250001,77.0,80.0
76,55.692728443750006,55.927142118750005,79.0,81.0
77,55.99197994375001,56.19522158750001,77.0,83.0
78,56.29123144375001,56.56679220000001,77.0,80.0
79,56.590482943750004,56.88973444375001,74.0,81.0
80,56.88973444375001,57.19397346875001,74.0,85.0
81,57.18898594375001,57.45332476875001,72.0,79.0
82,57.787488943750006,58.06554346250001,74.0,85.0
83,58.08674044375001,58.376016893750005,77.0,78.0
84,58.38599194375001,58.639108837500004,72.0,81.0
85,58.68524344375001,58.929632168750004,77.0,80.0
86,58.98449494375001,59.15282391250001,79.0,71.0
87,59.134120693750006,59.29247461250001,77.0,79.0
88,59.283746443750005,59.609182450000006,74.0,80.0
89,59.58299794375001,59.87601503750001,72.0,80.0
90,59.88224944375001,61.356063081250014,70.0,81.0
91,63.473267443750004,63.73137186250001,79.0,90.0
92,63.77251894375001,64.08174549375,77.0,81.0
93,64.07177044375001,64.551819725,79.0,85.0
94,64.67027344375,64.88473701875,82.0,86.0
95,64.96952494375,65.17027282500001,84.0,90.0
96,65.26877644375001,65.53062150625001,79.0,79.0
97,65.56802794375001,65.7263818625,77.0,81.0
98,65.86727944375001,66.21765307500002,74.0,93.0
99,66.31615669375,66.45206675,82.0,82.0
100,66.46578244375002,66.72762750625,79.0,80.0
101,66.76503394375001,67.02812588750001,77.0,80.0
102,67.06428544375001,67.51316269375,79.0,83.0
103,67.51316269375,67.67026973125002,82.0,83.0
104,67.66278844375,67.95580553750001,79.0,90.0
105,67.96203994375001,68.11914698125001,77.0,80.0
106,68.26129144375001,68.611665075,74.0,93.0
107,68.56054294375001,68.77999404375001,72.0,81.0
108,68.85979444375,69.03685158125,74.0,93.0
109,69.15904594375002,69.27375901875001,77.0,83.0
110,69.45829744375001,69.61041695625,82.0,88.0
111,69.75754894375001,69.90343405000002,82.0,82.0
112,69.90717469375001,70.00193766875,84.0,81.0
113,70.05680044375,70.35605194375,79.0,80.0
114,70.35605194375,70.491962,77.0,82.0
115,70.65530344375001,70.95455494375001,70.0,80.0
116,70.95455494375001,71.25380644375001,72.0,80.0
117,71.25380644375001,71.55305794375,77.0,80.0
118,71.55305794375,71.85230944375002,74.0,80.0
119,71.85230944375002,73.04733188125002,72.0,80.0
120,73.04733188125002,73.43787788541668,77.0,81.0
121,73.49509163125,73.62817577916668,79.0,79.0
122,73.64434488125,73.89807540625002,77.0,83.0
123,73.94285138125001,74.12941794375001,74.0,96.0
124,74.24135788125001,74.56971503125001,77.0,85.0
125,74.68911763125001,74.81722667083335,79.0,79.0
126,74.83837088125001,75.08837007500001,77.0,86.0
127,75.13687738125002,75.29483707083334,74.0,96.0
128,75.43538388125,75.66423886458334,70.0,90.0
129,75.73389038125,75.91796938958335,72.0,83.0
130,76.03239688125001,76.20528189583334,77.0,81.0
131,76.33090338125001,76.52990771458335,74.0,88.0
132,76.62940988125001,77.63686931875002,72.0,90.0
133,77.82343588125,78.08711662291668,79.0,80.0
134,78.12194238125001,78.36199135833334,77.0,77.0
135,78.42044888125001,78.72393048958334,79.0,80.0
136,78.71895538125001,78.89184039583334,82.0,80.0
137,79.01746188125001,79.22641643125002,82.0,83.0
138,79.31596838125002,79.46024652291668,79.0,78.0
139,79.46522163125002,79.57591779166668,77.0,69.0
140,79.61447488125,80.06223463125,74.0,62.0
141,80.21148788125001,80.56347679583334,74.0,90.0
142,80.65924763125001,80.81720732083335,77.0,80.0
143,80.80850088125001,81.04233097291667,79.0,81.0
144,81.10700738125001,81.30974304583334,77.0,83.0
145,81.40551388125002,81.68038861666668,77.0,80.0
146,81.70402038125002,82.00252688125,74.0,81.0
147,82.00252688125,82.30600848958335,74.0,85.0
148,82.30103338125001,82.56471412291668,72.0,79.0
149,82.89804638125001,83.17540867083335,74.0,85.0
150,83.19655288125001,83.48510916458335,77.0,78.0
151,83.49505938125002,83.74754612916668,72.0,81.0
152,83.79356588125,84.03734618958335,77.0,80.0
153,84.09207238125,84.25998228750001,79.0,71.0
154,84.24132563125,84.39928532083334,77.0,79.0
155,84.39057888125001,84.71520470000002,74.0,80.0
156,84.68908538125001,84.98137299583334,72.0,80.0
157,84.98759188125001,86.45773639375001,70.0,81.0
158,95.73382588125001,95.99128773750002,79.0,90.0
159,96.03233238125001,96.34078909791668,77.0,81.0
160,96.33083888125002,96.80969305833335,79.0,85.0
161,96.92785188125,97.14178153958335,82.0,86.0
162,97.22635838125001,97.42660649166667,84.0,90.0
163,97.52486488125001,97.78605806875001,79.0,79.0
164,97.82337138125001,97.98133107083335,77.0,81.0
165,98.12187788125001,98.47137924166668,74.0,93.0
166,98.56963763125,98.70520933333334,82.0,82.0
167,98.71889088125002,98.98008406875002,79.0,80.0
168,99.01739738125002,99.27983434583335,77.0,80.0
169,99.31590388125001,99.76366363125001,79.0,83.0
170,99.76366363125001,99.92037954375002,82.0,83.0
171,99.91291688125001,100.20520449583334,79.0,90.0
172,100.21142338125001,100.36813929375,77.0,80.0
173,100.50992988125002,100.85943124166668,74.0,93.0
174,100.80843638125,101.02734114791667,72.0,81.0
175,101.10694288125,101.28355922708334,74.0,93.0
176,101.40544938125001,101.51987687291668,77.0,83.0
177,101.70395588125001,101.85569668541667,82.0,88.0
178,102.00246238125001,102.14798430000002,82.0,82.0
179,102.15171563125001,102.24624268958334,84.0,81.0
180,102.30096888125001,102.59947538125002,79.0,80.0
181,102.59947538125002,102.73504708333334,77.0,82.0
182,102.89798188125002,103.19648838125002,70.0,80.0
183,103.19648838125002,103.49499488125001,72.0,80.0
184,103.49499488125001,103.79350138125001,77.0,80.0
185,103.79350138125001,104.09200788125001,74.0,80.0
186,104.09200788125001,105.28603388125,72.0,80.0
187,105.28603388125,105.67657988541669,77.0,81.0
188,105.73379363125002,105.86687777916669,79.0,79.0
189,105.88304688125001,106.13677740625002,77.0,83.0
190,106.18155338125001,106.36811994375,74.0,96.0
191,106.48005988125001,106.80841703125002,77.0,85.0
192,106.92781963125,107.05592867083334,79.0,79.0
193,107.07707288125002,107.32707207500002,77.0,86.0
194,107.37557938125002,107.53353907083334,74.0,96.0
195,107.67408588125002,107.90294086458334,70.0,90.0
196,107.97259238125001,108.15667138958335,72.0,83.0
197,108.27109888125001,108.44398389583336,77.0,81.0
198,108.56960538125001,108.76860971458335,74.0,88.0
199,108.86811188125002,109.87557131875002,72.0,90.0
200,110.06213788125001,110.32581862291667,79.0,80.0
201,110.36064438125001,110.60069335833334,77.0,77.0
202,110.65915088125001,110.96263248958334,79.0,80.0
203,110.95765738125002,111.13054239583334,82.0,80.0
204,111.25616388125002,111.46511843125,82.0,83.0
205,111.55467038125002,111.69894852291668,79.0,78.0
206,111.70392363125,111.81461979166667,77.0,69.0
207,111.85317688125002,112.30093663125001,74.0,62.0
208,112.45018988125001,112.80217879583336,74.0,90.0
209,112.89794963125001,113.05590932083334,77.0,80.0
210,113.04720288125002,113.28103297291668,79.0,81.0
211,113.34570938125,113.54844504583335,77.0,83.0
212,113.64421588125,113.91909061666668,77.0,80.0
213,113.94272238125001,114.24122888125001,74.0,81.0
214,114.24122888125001,114.54471048958334,74.0,85.0
215,114.53973538125001,114.80341612291667,72.0,79.0
216,115.13674838125002,115.41411067083334,74.0,85.0
217,115.43525488125002,115.72381116458334,77.0,78.0
218,115.73376138125002,115.98624812916668,72.0,81.0
219,116.03226788125002,116.27604818958335,77.0,80.0
220,116.33077438125002,116.49868428750001,79.0,71.0
221,116.48002763125001,116.63798732083335,77.0,79.0
222,116.62928088125001,116.9539067,74.0,80.0
223,116.92778738125001,117.22007499583336,72.0,80.0
224,117.22629388125002,118.69643839375001,70.0,81.0
225,120.8107124229167,121.06881684166669,79.0,90.0
226,121.10996392291669,121.41919047291668,77.0,81.0
227,121.40921542291669,121.88926470416669,79.0,85.0
228,122.0077184229167,122.22218199791669,82.0,86.0
229,122.30696992291669,122.50771780416669,84.0,90.0
230,122.60622142291669,122.86806648541669,79.0,79.0
231,122.90547292291669,123.0638268416667,77.0,81.0
232,123.20472442291668,123.55509805416669,74.0,93.0
233,123.6536016729167,123.78951172916669,82.0,82.0
234,123.80322742291669,124.06507248541669,79.0,80.0
235,124.10247892291669,124.36557086666669,77.0,80.0
236,124.40173042291669,124.8506076729167,79.0,83.0
237,124.8506076729167,125.00771471041669,82.0,83.0
238,125.0002334229167,125.29325051666669,79.0,90.0
239,125.29948492291669,125.45659196041669,77.0,80.0
240,125.59873642291669,125.9491100541667,74.0,93.0
241,125.89798792291668,126.11743902291668,72.0,81.0
242,126.1972394229167,126.3742965604167,74.0,93.0
243,126.49649092291669,126.61120399791669,77.0,83.0
244,126.79574242291669,126.94786193541668,82.0,88.0
245,127.09499392291669,127.24087902916669,82.0,82.0
246,127.24461967291668,127.3393826479167,84.0,81.0
247,127.3942454229167,127.6934969229167,79.0,80.0
248,127.6934969229167,127.82940697916669,77.0,82.0
249,127.99274842291669,128.2919999229167,70.0,80.0
250,128.2919999229167,128.59125142291668,72.0,80.0
251,128.59125142291668,128.89050292291668,77.0,80.0
252,128.89050292291668,129.18975442291668,74.0,80.0
253,129.18975442291668,130.3867604229167,72.0,80.0
254,130.3867604229167,130.77828113541668,77.0,81.0
255,130.83563767291668,130.96905396666668,79.0,79.0
256,130.9852634229167,131.2396271979167,77.0,83.0
257,131.28451492291669,131.47154711041668,74.0,96.0
258,131.58376642291668,131.91294307291668,77.0,85.0
259,132.0326436729167,132.1610724416667,79.0,79.0
260,132.1822694229167,132.4328925541667,77.0,86.0
261,132.4815209229167,132.63987484166668,74.0,96.0
262,132.7807724229167,133.0101985729167,70.0,90.0
263,133.0800239229167,133.2645623479167,72.0,83.0
264,133.3792754229167,133.5525919166667,77.0,81.0
265,133.6785269229167,133.8780279229167,74.0,88.0
266,133.97777842291669,134.98775223541668,72.0,90.0
267,135.1747844229167,135.43912324791668,79.0,80.0
268,135.4740359229167,135.71416250416667,77.0,77.0
269,135.77262002708335,136.07610163541668,79.0,80.0
270,136.07112652708335,136.24401154166668,82.0,80.0
271,136.36963302708335,136.57858757708334,82.0,83.0
272,136.66813952708335,136.81241766875002,79.0,78.0
273,136.81739277708334,136.9280889375,77.0,69.0
274,136.96664602708336,137.41440577708335,74.0,62.0
275,137.56365902708333,137.9156479416667,74.0,90.0
276,138.01141877708335,138.16937846666667,77.0,80.0
277,138.16067202708334,138.39450211875,79.0,81.0
278,138.45917852708334,138.66191419166668,77.0,83.0
279,138.75768502708334,139.0325597625,77.0,80.0
280,139.05619152708334,139.35469802708334,74.0,81.0
281,139.35469802708334,139.65817963541667,74.0,85.0
282,139.65320452708335,139.91688526875,72.0,79.0
283,140.25021752708335,140.52757981666667,74.0,85.0
284,140.54872402708335,140.83728031041667,77.0,78.0
285,140.84723052708335,141.09971727500002,72.0,81.0
286,141.14573702708336,141.38951733541668,77.0,80.0
287,141.44424352708336,141.61215343333333,79.0,71.0
288,141.59349677708335,141.75145646666667,77.0,79.0
289,141.74275002708333,142.06737584583334,74.0,80.0
290,142.04125652708333,142.3335441416667,72.0,80.0
291,142.33976302708334,143.80990753958335,70.0,81.0
