,start,end,pitch,velocity
0,13.885142900000002,14.701209843750002,50.0,74.0
1,13.6984109,14.85786759375,43.0,75.0
2,13.934282900000001,15.0706610375,55.0,68.0
3,14.205126968750001,15.092854218750002,67.0,57.0
4,14.15029675625,15.103298068750002,62.0,65.0
5,14.041941812500001,15.115047400000002,58.0,66.0
6,15.293898331250002,15.63593441875,55.0,68.0
7,15.061522668750001,16.325228518750002,50.0,59.0
8,15.822618237500002,16.46622049375,55.0,49.0
9,15.57327131875,17.010606175,62.0,71.0
10,17.167263925,17.24689828125,55.0,63.0
11,16.21817905625,18.25211884375,67.0,56.0
12,17.1202666,18.2664791375,62.0,56.0
13,17.506689050000002,18.293894243750003,55.0,79.0
14,18.711648243750002,19.015825375000002,55.0,65.0
15,18.911386875,19.120263875000003,60.0,72.0
16,19.249506518750003,19.467521887500002,60.0,68.0
17,19.6868427375,19.89180329375,55.0,49.0
18,19.61504126875,19.92835676875,60.0,65.0
19,20.08632,20.352638175000003,55.0,54.0
20,20.060210375,20.357860100000003,62.0,62.0
21,20.58893028125,20.924438962500002,62.0,66.0
22,20.603290575000003,20.97274176875,55.0,59.0
23,18.6842331375,21.406161543750002,50.0,67.0
24,18.511909612500002,21.515821968750004,43.0,75.0
25,21.28605726875,22.267779168750003,62.0,70.0
26,22.2769175375,22.8852718,53.0,74.0
27,22.472739725000004,22.972739043750003,60.0,75.0
28,22.675089318750004,22.988404818750002,57.0,72.0
29,23.14506256875,23.41138074375,53.0,70.0
30,23.34871764375,23.975348643750003,60.0,70.0
31,23.6085084125,23.997541825000003,57.0,66.0
32,22.066735056250003,24.231222968750004,48.0,80.0
33,23.90224169375,24.351327243750003,53.0,65.0
34,21.761252443750003,24.372214943750002,41.0,80.0
35,24.271692887500002,24.7155565125,57.0,68.0
36,24.69336333125,24.825216937500002,60.0,64.0
37,22.920519793750003,24.923128031250002,65.0,70.0
38,26.056285756250002,26.342186150000003,53.0,66.0
39,25.809549800000003,26.612420768750003,60.0,62.0
40,26.544535743750004,26.87873894375,53.0,66.0
41,26.338269706250003,27.004065143750005,65.0,65.0
42,27.112420087500002,27.552367268750004,53.0,66.0
43,26.809548437500002,27.553672750000004,60.0,68.0
44,25.511900075,28.663697564583337,48.0,52.0
45,27.818685443750002,28.701010877083338,53.0,72.0
46,25.146365325,28.702254654166673,41.0,68.0
47,28.214694037500006,28.710961093750004,60.0,72.0
48,27.43226299375,28.733349081250005,65.0,76.0
49,28.793050381250005,29.03061180416667,58.0,77.0
50,28.793050381250005,29.07041267083334,62.0,77.0
51,28.793050381250005,29.18235260833334,46.0,79.0
52,29.240810131250004,29.32787452708334,58.0,80.0
53,29.240810131250004,29.336580966666673,62.0,77.0
54,29.240810131250004,29.37389427916667,65.0,76.0
55,29.390063381250005,29.48459043958334,53.0,66.0
56,29.688569881250004,29.783096939583338,62.0,80.0
57,29.688569881250004,29.790559602083338,58.0,81.0
58,29.987076381250006,30.203493593750004,58.0,73.0
59,29.987076381250006,30.23458802083334,55.0,74.0
60,30.285582881250004,30.437323685416672,50.0,64.0
61,30.434836131250005,30.550507400000004,58.0,75.0
62,30.434836131250005,30.595283375000005,62.0,76.0
63,30.584089381250006,30.71966108333334,55.0,74.0
64,30.584089381250006,30.95473495208334,50.0,65.0
65,30.882595881250005,30.964685168750005,58.0,73.0
66,30.882595881250005,30.98458560208334,55.0,74.0
67,30.882595881250005,30.998267150000004,62.0,79.0
68,29.987076381250006,31.026874022916672,43.0,80.0
69,31.181102381250007,31.468414887500003,57.0,80.0
70,31.181102381250007,31.48085265833334,62.0,82.0
71,31.181102381250007,31.653737672916673,50.0,84.0
72,31.628862131250006,31.74204584583334,57.0,81.0
73,31.628862131250006,31.785578043750007,65.0,80.0
74,31.927368631250005,32.07164677291667,50.0,60.0
75,32.076621881250006,32.15497983750001,62.0,82.0
76,32.076621881250006,32.18731804166667,57.0,80.0
77,32.37512838125001,32.59652070208334,58.0,79.0
78,32.37512838125001,32.61144602708334,55.0,75.0
79,32.67363488125,32.87263921458334,50.0,71.0
80,32.972141381250005,33.046768006250005,55.0,75.0
81,32.972141381250005,33.087812650000004,58.0,80.0
82,32.972141381250005,33.11020063750001,62.0,80.0
83,32.972141381250005,33.32039896458334,50.0,67.0
84,32.37512838125001,33.39378181250001,43.0,81.0
85,33.27064788125001,33.42612001666667,55.0,79.0
86,33.27064788125001,33.428607570833336,67.0,78.0
87,33.27064788125001,33.46343332916667,58.0,81.0
88,33.41990113125001,33.53930373125001,62.0,81.0
89,33.56915438125001,33.85149177916667,58.0,75.0
90,33.56915438125001,33.86144199583334,55.0,73.0
91,33.56915438125001,33.931093512500006,39.0,83.0
92,34.016914131250005,34.17238626666667,58.0,82.0
93,34.016914131250005,34.18731159166667,63.0,79.0
94,34.166167381250006,34.312933077083336,55.0,80.0
95,34.46467388125001,34.57412626458334,58.0,77.0
96,34.46467388125001,34.591539143750005,55.0,79.0
97,34.46467388125001,34.621389793750005,63.0,72.0
98,34.76318038125001,35.06790576666667,62.0,77.0
99,34.76318038125001,35.07412465208334,57.0,79.0
100,35.061686881250004,35.251984775000004,45.0,58.0
101,34.76318038125001,35.345268056250006,38.0,80.0
102,35.360193381250006,35.50074019166667,57.0,81.0
103,35.360193381250006,35.516909293750004,62.0,83.0
104,35.360193381250006,35.519396847916674,65.0,81.0
105,35.65869988125001,35.739545391666674,65.0,79.0
106,35.80795313125,35.872629539583336,62.0,79.0
107,35.80795313125,35.931087062500005,57.0,80.0
108,35.93979350208334,36.24700644166667,58.0,71.0
109,35.94228105625,36.25198155,55.0,73.0
110,36.224618454166674,36.39377213750001,50.0,66.0
111,36.37884681250001,36.565413375000006,55.0,80.0
112,36.37014037291667,36.63506489166667,58.0,81.0
113,36.37635925833334,36.64999021666667,62.0,80.0
114,35.93854972500001,36.66118421041667,43.0,80.0
115,36.85023832708334,37.065411762500005,43.0,80.0
116,36.85521343541667,37.079093310416674,50.0,79.0
117,36.82287523125001,37.08531219583334,55.0,76.0
118,36.82287523125001,37.08531219583334,58.0,73.0
119,37.15993882083334,37.48332086250001,55.0,79.0
120,37.153719935416675,37.54550971666667,58.0,74.0
121,37.14128216458334,37.582823029166676,43.0,81.0
122,37.73083250208334,37.87013553541667,50.0,80.0
123,37.729588725000006,37.875110643750006,55.0,80.0
124,37.73332005625001,37.88132952916667,43.0,81.0
125,37.727101170833336,37.88506086041667,58.0,75.0
126,38.05670209791667,38.167398258333336,55.0,77.0
127,38.01565745416667,38.244512437500006,43.0,78.0
128,38.345258381250005,38.51441206458334,55.0,76.0
129,38.345258381250005,38.51441206458334,58.0,73.0
130,38.345258381250005,39.020629337500004,43.0,79.0
131,38.94227138125001,39.023116891666675,58.0,81.0
132,38.94227138125001,39.02684822291667,55.0,79.0
133,38.94227138125001,39.039285993750006,62.0,81.0
134,39.390031131250005,39.536796827083336,55.0,71.0
135,39.390031131250005,39.536796827083336,58.0,75.0
136,39.83779088125001,39.933561716666674,55.0,73.0
137,39.83779088125001,39.93853682500001,58.0,80.0
138,40.13629738125,40.27560041458334,62.0,81.0
139,40.13629738125,40.28306307708334,55.0,75.0
140,39.539284381250006,40.54798759583334,43.0,79.0
141,40.73331038125001,40.91241428125001,55.0,75.0
142,40.73331038125001,40.93853360000001,58.0,75.0
143,40.73331038125001,41.38504957291667,43.0,71.0
144,41.330323381250004,41.39499978958334,62.0,77.0
145,41.330323381250004,41.40121867500001,58.0,79.0
146,41.330323381250004,41.416144,55.0,74.0
147,41.77808313125001,41.860172418750004,55.0,72.0
148,41.77808313125001,41.86141619583334,58.0,75.0
149,41.77808313125001,41.863903750000006,62.0,73.0
150,41.92733638125001,42.03688499375001,43.0,77.0
151,42.076785193750005,42.14536366250001,55.0,75.0
152,42.076785193750005,42.14536366250001,58.0,81.0
153,42.076785193750005,42.14661054375001,62.0,78.0
154,42.226410943750004,42.357333475000004,43.0,70.0
155,42.52566244375001,42.67778195625001,58.0,79.0
156,42.52566244375001,42.693991412500004,62.0,80.0
157,42.52566244375001,42.700225818750006,55.0,78.0
158,43.12416544375001,43.52566120625001,57.0,75.0
159,43.12416544375001,43.533142493750006,62.0,80.0
160,43.12416544375001,43.760074881250006,50.0,75.0
161,43.72266844375001,43.84112216250001,62.0,80.0
162,43.72266844375001,43.848603450000006,57.0,79.0
163,43.72266844375001,43.88226924375001,65.0,78.0
164,44.171545693750005,44.22017406250001,62.0,67.0
165,44.171545693750005,44.221420943750005,65.0,67.0
166,44.171545693750005,44.277530600000006,57.0,73.0
167,44.32117144375,44.73388913750001,43.0,79.0
168,44.62042294375001,44.77254245625001,55.0,70.0
169,44.62042294375001,44.78002374375001,58.0,67.0
170,44.62042294375001,44.785011268750004,62.0,76.0
171,44.919674443750004,45.06680643125001,50.0,72.0
172,44.919674443750004,45.06930019375001,55.0,75.0
173,44.919674443750004,45.071793956250005,58.0,75.0
174,44.919674443750004,45.071793956250005,62.0,75.0
175,45.21892594375001,45.34610783125001,55.0,69.0
176,45.518177443750005,45.72890037500001,53.0,79.0
177,45.518177443750005,45.794985081250005,58.0,67.0
178,45.518177443750005,45.847354093750006,46.0,79.0
179,46.116680443750006,46.283762531250005,53.0,78.0
180,46.116680443750006,46.33239090000001,62.0,79.0
181,46.116680443750006,46.34610659375001,58.0,80.0
182,46.71518344375001,46.86979671875001,48.0,73.0
183,46.71518344375001,46.90969691875001,55.0,73.0
184,46.71518344375001,47.04436009375001,60.0,76.0
185,47.16406069375001,47.280020650000004,60.0,79.0
186,47.16406069375001,47.29997075000001,55.0,80.0
187,47.31368644375001,47.45084338125001,48.0,77.0
188,47.612937943750005,47.70271339375001,60.0,76.0
189,47.612937943750005,47.71767596875001,55.0,75.0
190,47.91218944375001,48.048099500000006,46.0,75.0
191,47.91218944375001,48.12415925625001,53.0,78.0
192,47.91218944375001,48.13912183125001,58.0,69.0
193,48.361066693750004,48.482014175,53.0,73.0
194,48.361066693750004,48.48326105625001,58.0,70.0
195,48.361066693750004,48.50071739375001,62.0,77.0
196,48.51069244375001,48.59672725000001,46.0,73.0
197,48.80994394375001,48.89348498750001,53.0,78.0
198,48.80994394375001,48.89722563125001,58.0,75.0
199,48.80994394375001,48.920916375000004,62.0,76.0
200,49.10919544375001,49.196477131250006,50.0,77.0
201,49.10919544375001,49.37852179375001,57.0,75.0
202,49.10919544375001,49.41592823125001,62.0,80.0
203,49.558072693750006,49.71268596875001,62.0,81.0
204,49.558072693750006,49.715179731250004,57.0,79.0
205,49.558072693750006,49.74011735625001,65.0,76.0
206,50.00694994375001,50.086750343750005,62.0,71.0
207,50.00694994375001,50.09547851250001,65.0,72.0
208,50.00694994375001,50.11293485000001,57.0,75.0
209,50.306201443750005,50.46081471875001,39.0,73.0
210,50.306201443750005,50.54186200000001,63.0,68.0
211,50.306201443750005,50.56679962500001,58.0,80.0
212,50.306201443750005,50.592984131250006,55.0,74.0
213,50.75507869375001,50.8635573625,58.0,83.0
214,50.75507869375001,50.869791768750005,55.0,79.0
215,50.75507869375001,50.877273056250004,63.0,81.0
216,51.20395594375,51.30620020625001,58.0,71.0
217,51.20395594375,51.31368149375001,63.0,68.0
218,51.20395594375,51.33487847500001,55.0,76.0
219,51.50320744375001,51.66779576875001,57.0,70.0
220,51.50320744375001,51.67278329375001,53.0,71.0
221,51.50320744375001,51.677770818750005,41.0,76.0
222,51.95208469375001,52.039366381250005,57.0,69.0
223,51.95208469375001,52.056822718750006,53.0,74.0
224,51.95208469375001,52.075525937500004,60.0,77.0
225,52.400961943750005,52.49821868125001,53.0,80.0
226,52.400961943750005,52.50569996875001,57.0,75.0
227,52.400961943750005,52.53687200000001,60.0,79.0
228,52.70021344375001,52.996971181250004,58.0,79.0
229,52.70021344375001,53.00943999375001,55.0,73.0
230,52.70021344375001,53.15407821875001,43.0,75.0
231,53.14909069375001,53.230137975000005,58.0,78.0
232,53.14909069375001,53.23886614375001,55.0,76.0
233,53.14909069375001,53.25258183750001,62.0,76.0
234,53.59796794375001,53.68649651250001,55.0,75.0
235,53.59796794375001,53.69647156250001,58.0,75.0
236,53.59796794375001,53.69896532500001,62.0,77.0
237,53.897219443750004,54.01816692500001,62.0,73.0
238,53.897219443750004,54.02190756875001,58.0,72.0
239,53.897219443750004,54.024401331250004,55.0,74.0
240,53.897219443750004,54.31741842500001,43.0,75.0
241,54.346096693750006,54.442106550000005,62.0,74.0
242,54.346096693750006,54.45083471875001,55.0,73.0
243,54.49572244375001,54.548091456250006,50.0,61.0
244,54.79497394375001,54.92839023750001,58.0,74.0
245,54.79497394375001,54.93711840625001,55.0,75.0
246,55.094225443750005,55.21392604375001,46.0,81.0
247,55.094225443750005,55.40345199375001,53.0,76.0
248,55.094225443750005,55.405945756250006,58.0,71.0
249,55.54310269375001,55.68649403750001,58.0,83.0
250,55.54310269375001,55.70270349375001,53.0,79.0
251,55.54310269375001,55.70519725625001,62.0,80.0
252,55.99197994375001,56.058064650000006,58.0,65.0
253,55.99197994375001,56.150333862500005,53.0,78.0
254,55.99197994375001,56.17776525000001,62.0,79.0
255,56.29123144375001,56.49571996875001,53.0,73.0
256,56.29123144375001,56.56554531875001,57.0,69.0
257,56.74010869375001,56.86853746250001,60.0,79.0
258,56.74010869375001,56.89846261250001,53.0,80.0
259,56.88973444375001,57.13412316875001,48.0,66.0
260,56.29123144375001,57.30369901875001,41.0,76.0
261,57.18898594375001,57.306192781250004,53.0,77.0
262,57.18898594375001,57.34733986250001,65.0,80.0
263,57.48823744375001,57.73262616875001,57.0,71.0
264,57.48823744375001,57.75008250625001,53.0,75.0
265,57.48823744375001,57.75631691250001,60.0,75.0
266,57.48823744375001,57.979508656250005,41.0,80.0
267,57.937114693750004,58.100456137500004,53.0,83.0
268,57.937114693750004,58.11666559375001,65.0,76.0
269,58.08674044375001,58.16654084375001,41.0,45.0
270,58.08674044375001,58.19272535,48.0,67.0
271,58.38599194375001,58.45706417500001,57.0,75.0
272,58.38599194375001,58.47826115625001,53.0,77.0
273,58.38599194375001,58.48823620625001,60.0,79.0
274,58.68524344375001,58.88474444375001,58.0,73.0
275,58.68524344375001,58.92713840625001,62.0,67.0
276,58.98449494375001,59.09422049375001,53.0,35.0
277,58.68524344375001,59.099208018750005,46.0,79.0
278,59.134120693750006,59.20145228125001,58.0,81.0
279,59.134120693750006,59.255068175000005,65.0,82.0
280,59.283746443750005,59.35731243750001,53.0,51.0
281,59.58299794375001,59.687735968750005,58.0,79.0
282,59.58299794375001,59.71392047500001,62.0,80.0
283,59.88224944375001,60.155316437500005,58.0,72.0
284,59.88224944375001,60.16653836875001,62.0,74.0
285,59.88224944375001,60.240104362500006,46.0,79.0
286,60.18150094375001,60.282498325000006,53.0,48.0
287,60.33112669375001,60.41840838125,58.0,71.0
288,60.33112669375001,60.42090214375001,62.0,75.0
289,60.33112669375001,60.50070254375001,65.0,76.0
290,60.480752443750006,60.58549046875001,53.0,60.0
291,60.78000394375,61.06429286875001,58.0,80.0
292,60.78000394375,61.07426791875001,62.0,80.0
293,61.07925544375001,61.21765926250001,46.0,80.0
294,61.07925544375001,61.22888119375001,53.0,75.0
295,61.07925544375001,61.37351941875001,58.0,74.0
296,61.37850694375001,61.46204798750001,53.0,66.0
297,61.67775844375001,61.80992785625001,53.0,81.0
298,61.67775844375001,61.873518800000014,57.0,88.0
299,61.67775844375001,61.96080048750001,41.0,80.0
300,61.977009943750005,62.09671054375001,53.0,69.0
301,62.27626144375001,62.37227130000001,46.0,83.0
302,62.27626144375001,62.38224635000001,53.0,80.0
303,62.27626144375001,62.38598699375001,58.0,79.0
304,62.27626144375001,62.40094956875001,62.0,79.0
305,62.57551294375001,62.67775720625001,46.0,76.0
306,62.57551294375001,62.68399161250001,53.0,79.0
307,62.57551294375001,62.68773225625001,58.0,81.0
308,62.57551294375001,62.71641052500001,62.0,81.0
309,62.87476444375001,63.30743223750001,53.0,80.0
310,62.87476444375001,63.34234491250001,58.0,81.0
311,62.87476444375001,63.34857931875001,62.0,83.0
312,62.87476444375001,63.41840466875001,46.0,79.0
313,63.473267443750004,63.642843293750005,55.0,76.0
314,63.473267443750004,63.642843293750005,58.0,73.0
315,63.473267443750004,64.15032396250001,43.0,79.0
316,64.07177044375001,64.152817725,58.0,81.0
317,64.07177044375001,64.15655836875001,55.0,79.0
318,64.07177044375001,64.16902718125002,62.0,81.0
319,64.52064769375,64.66777968125001,55.0,71.0
320,64.52064769375,64.66777968125001,58.0,75.0
321,64.96952494375,65.06553480000001,55.0,73.0
322,64.96952494375,65.07052232500001,58.0,80.0
323,65.26877644375001,65.40842714375,62.0,81.0
324,65.26877644375001,65.41590843125002,55.0,75.0
325,64.67027344375,65.68149413750001,43.0,79.0
326,65.86727944375001,66.04683034375,55.0,75.0
327,65.86727944375001,66.07301485,58.0,75.0
328,65.86727944375001,66.52064521875,43.0,71.0
329,66.46578244375002,66.53062026875001,62.0,77.0
330,66.46578244375002,66.536854675,58.0,79.0
331,66.46578244375002,66.55181725000001,55.0,74.0
332,66.91465969375001,66.99695385625,55.0,72.0
333,66.91465969375001,66.99820073750001,58.0,75.0
334,66.91465969375001,67.00069450000001,62.0,73.0
335,67.06428544375001,67.17401099375002,43.0,77.0
336,67.21391119375001,67.28248966250001,55.0,75.0
337,67.21391119375001,67.28248966250001,58.0,81.0
338,67.21391119375001,67.28373654375001,62.0,78.0
339,67.36353694375,67.49445947500001,43.0,70.0
340,67.66278844375,67.81490795625001,58.0,79.0
341,67.66278844375,67.8311174125,62.0,80.0
342,67.66278844375,67.83735181875001,55.0,78.0
343,68.26129144375001,68.66278720625002,57.0,75.0
344,68.26129144375001,68.67026849375,62.0,80.0
345,68.26129144375001,68.89720088125,50.0,75.0
346,68.85979444375,68.97824816250001,62.0,80.0
347,68.85979444375,68.98572945000001,57.0,79.0
348,68.85979444375,69.01939524375001,65.0,78.0
349,69.30867169375001,69.3573000625,62.0,67.0
350,69.30867169375001,69.35854694375001,65.0,67.0
351,69.30867169375001,69.4146566,57.0,73.0
352,69.45829744375001,69.87101513750001,43.0,79.0
353,69.75754894375001,69.90966845625002,55.0,70.0
354,69.75754894375001,69.91714974375,58.0,67.0
355,69.75754894375001,69.92213726875,62.0,76.0
356,70.05680044375,70.20393243125001,50.0,72.0
357,70.05680044375,70.20642619375,55.0,75.0
358,70.05680044375,70.20891995625001,58.0,75.0
359,70.05680044375,70.20891995625001,62.0,75.0
360,70.35605194375,70.48323383125,55.0,69.0
361,70.65530344375001,70.866026375,53.0,79.0
362,70.65530344375001,70.93211108125001,58.0,67.0
363,70.65530344375001,70.98448009375001,46.0,79.0
364,71.25380644375001,71.42088853125001,53.0,78.0
365,71.25380644375001,71.4695169,62.0,79.0
366,71.25380644375001,71.48323259375002,58.0,80.0
367,71.85230944375002,72.00692271875,48.0,73.0
368,71.85230944375002,72.04682291875001,55.0,73.0
369,71.85230944375002,72.18148609375001,60.0,76.0
370,72.30106563125001,72.4167369,60.0,79.0
371,72.30106563125001,72.43663733333334,55.0,80.0
372,72.45031888125001,72.58713436041667,48.0,77.0
373,72.74882538125001,72.83837733125002,60.0,76.0
374,72.74882538125001,72.85330265625001,55.0,75.0
375,73.04733188125002,73.18290358333334,46.0,75.0
376,73.04733188125002,73.25877398541668,53.0,78.0
377,73.04733188125002,73.27369931041667,58.0,69.0
378,73.49509163125,73.61573800833334,53.0,73.0
379,73.49509163125,73.61698178541667,58.0,70.0
380,73.49509163125,73.63439466458334,62.0,77.0
381,73.64434488125,73.73016550000001,46.0,73.0
382,73.94285138125001,74.02618444583334,53.0,78.0
383,73.94285138125001,74.02991577708335,58.0,75.0
384,73.94285138125001,74.05354754166667,62.0,76.0
385,74.24135788125001,74.32842227708335,50.0,77.0
386,74.24135788125001,74.51001373125001,57.0,75.0
387,74.24135788125001,74.54732704375002,62.0,80.0
388,74.68911763125001,74.84334598958334,62.0,81.0
389,74.68911763125001,74.84583354375,57.0,79.0
390,74.68911763125001,74.87070908541668,65.0,76.0
391,75.13687738125002,75.21647911458334,62.0,71.0
392,75.13687738125002,75.22518555416667,65.0,72.0
393,75.13687738125002,75.24259843333334,57.0,75.0
394,75.43538388125,75.58961223958335,39.0,73.0
395,75.43538388125,75.67045775000001,63.0,68.0
396,75.43538388125,75.69533329166667,58.0,80.0
397,75.43538388125,75.72145261041668,55.0,74.0
398,75.88314363125001,75.99135223750001,58.0,83.0
399,75.88314363125001,75.99757112291668,55.0,79.0
400,75.88314363125001,76.00503378541667,63.0,81.0
401,76.33090338125001,76.43289310208334,58.0,71.0
402,76.33090338125001,76.44035576458334,63.0,68.0
403,76.33090338125001,76.46149997500001,55.0,76.0
404,76.62940988125001,76.79358845625,57.0,70.0
405,76.62940988125001,76.79856356458335,53.0,71.0
406,76.62940988125001,76.80353867291667,41.0,76.0
407,77.07716963125002,77.16423402708334,57.0,69.0
408,77.07716963125002,77.18164690625001,53.0,74.0
409,77.07716963125002,77.20030356250001,60.0,77.0
410,77.52492938125,77.62194399375001,53.0,80.0
411,77.52492938125,77.62940665625001,57.0,75.0
412,77.52492938125,77.66050108333334,60.0,79.0
413,77.82343588125,78.11945482708335,58.0,79.0
414,77.82343588125,78.13189259791667,55.0,73.0
415,77.82343588125,78.27617073958335,43.0,75.0
416,78.27119563125001,78.35204114166667,58.0,78.0
417,78.27119563125001,78.36074758125001,55.0,76.0
418,78.27119563125001,78.37442912916667,62.0,76.0
419,78.71895538125001,78.80726355416668,55.0,75.0
420,78.71895538125001,78.81721377083335,58.0,75.0
421,78.71895538125001,78.81970132500001,62.0,77.0
422,79.01746188125001,79.13810825833335,62.0,73.0
423,79.01746188125001,79.14183958958334,58.0,72.0
424,79.01746188125001,79.14432714375,55.0,74.0
425,79.01746188125001,79.43661475833335,43.0,75.0
426,79.46522163125002,79.56099246666668,62.0,74.0
427,79.46522163125002,79.56969890625001,55.0,73.0
428,79.61447488125,79.66671351875002,50.0,61.0
429,79.91298138125,80.04606552916668,58.0,74.0
430,79.91298138125,80.05477196875,55.0,75.0
431,80.21148788125001,80.33089048125001,46.0,81.0
432,80.21148788125001,80.51994459791668,53.0,76.0
433,80.21148788125001,80.52243215208334,58.0,71.0
434,80.65924763125001,80.80228199583334,58.0,83.0
435,80.65924763125001,80.81845109791668,53.0,79.0
436,80.65924763125001,80.82093865208334,62.0,80.0
437,81.10700738125001,81.17292756666667,58.0,65.0
438,81.10700738125001,81.26496707083334,53.0,78.0
439,81.10700738125001,81.29233016666667,62.0,79.0
440,81.40551388125002,81.60949332291668,53.0,73.0
441,81.40551388125002,81.67914483958334,57.0,69.0
442,81.85327363125,81.98138267083334,60.0,79.0
443,81.85327363125,82.01123332083334,53.0,80.0
444,82.00252688125,82.24630718958335,48.0,66.0
445,81.40551388125002,82.41546087291668,41.0,76.0
446,82.30103338125001,82.41794842708335,53.0,77.0
447,82.30103338125001,82.45899307083334,65.0,80.0
448,82.59953988125001,82.84332018958335,57.0,71.0
449,82.59953988125001,82.86073306875001,53.0,75.0
450,82.59953988125001,82.86695195416668,60.0,75.0
451,82.59953988125001,83.08958805208334,41.0,80.0
452,83.04729963125001,83.21023442916668,53.0,83.0
453,83.04729963125001,83.22640353125001,65.0,76.0
454,83.19655288125001,83.27615461458335,41.0,45.0
455,83.19655288125001,83.30227393333334,48.0,67.0
456,83.49505938125002,83.56595467500001,57.0,75.0
457,83.49505938125002,83.58709888541668,53.0,77.0
458,83.49505938125002,83.59704910208335,60.0,79.0
459,83.79356588125,83.99257021458334,58.0,73.0
460,83.79356588125,84.03485863541668,62.0,67.0
461,84.09207238125,84.20152476458334,53.0,35.0
462,83.79356588125,84.20649987291668,46.0,79.0
463,84.24132563125,84.30848959375001,58.0,81.0
464,84.24132563125,84.36197200833334,65.0,82.0
465,84.39057888125001,84.46396172916667,53.0,51.0
466,84.68908538125001,84.79356265625,58.0,79.0
467,84.68908538125001,84.81968197500001,62.0,80.0
468,84.98759188125001,85.25997906250001,58.0,72.0
469,84.98759188125001,85.27117305625,62.0,74.0
470,84.98759188125001,85.34455590416668,46.0,79.0
471,85.28609838125001,85.38684432500001,53.0,48.0
472,85.43535163125001,85.52241602708335,58.0,71.0
473,85.43535163125001,85.52490358125002,62.0,75.0
474,85.43535163125001,85.60450531458335,65.0,76.0
475,85.58460488125002,85.68908215625001,53.0,60.0
476,85.88311138125002,86.16669255625001,58.0,80.0
477,85.88311138125002,86.17664277291668,62.0,80.0
478,86.18161788125,86.41917930416668,58.0,77.0
479,86.18161788125,86.45898017083334,62.0,77.0
480,86.18161788125,86.57092010833334,46.0,79.0
481,86.62937763125001,86.71644202708335,58.0,80.0
482,86.62937763125001,86.72514846666668,62.0,77.0
483,86.62937763125001,86.76246177916667,65.0,76.0
484,86.77863088125001,86.87315793958334,53.0,66.0
485,87.07713738125001,87.17166443958334,62.0,80.0
486,87.07713738125001,87.17912710208334,58.0,81.0
487,87.37564388125001,87.59206109375,58.0,73.0
488,87.37564388125001,87.62315552083335,55.0,74.0
489,87.67415038125002,87.82589118541668,50.0,64.0
490,87.82340363125002,87.93907490000001,58.0,75.0
491,87.82340363125002,87.98385087500002,62.0,76.0
492,87.97265688125,88.10822858333334,55.0,74.0
493,87.97265688125,88.34330245208335,50.0,65.0
494,88.27116338125,88.35325266875,58.0,73.0
495,88.27116338125,88.37315310208334,55.0,74.0
496,88.27116338125,88.38683465000001,62.0,79.0
497,87.37564388125001,88.41544152291668,43.0,80.0
498,88.56966988125001,88.85698238750001,57.0,80.0
499,88.56966988125001,88.86942015833334,62.0,82.0
500,88.56966988125001,89.04230517291668,50.0,84.0
501,89.01742963125001,89.13061334583335,57.0,81.0
502,89.01742963125001,89.17414554375002,65.0,80.0
503,89.31593613125001,89.46021427291667,50.0,60.0
504,89.46518938125001,89.54354733750002,62.0,82.0
505,89.46518938125001,89.57588554166668,57.0,80.0
506,89.76369588125002,89.98508820208335,58.0,79.0
507,89.76369588125002,90.00001352708334,55.0,75.0
508,90.06220238125002,90.26120671458335,50.0,71.0
509,90.36070888125002,90.43533550625001,55.0,75.0
510,90.36070888125002,90.47638015000001,58.0,80.0
511,90.36070888125002,90.49876813750001,62.0,80.0
512,90.36070888125002,90.70896646458334,50.0,67.0
513,89.76369588125002,90.7823493125,43.0,81.0
514,90.65921538125001,90.81468751666668,55.0,79.0
515,90.65921538125001,90.81717507083334,67.0,78.0
516,90.65921538125001,90.85200082916668,58.0,81.0
517,90.80846863125001,90.92787123125001,62.0,81.0
518,90.95772188125001,91.24005927916667,58.0,75.0
519,90.95772188125001,91.25000949583335,55.0,73.0
520,90.95772188125001,91.3196610125,39.0,83.0
521,91.40548163125001,91.56095376666667,58.0,82.0
522,91.40548163125001,91.57587909166668,63.0,79.0
523,91.55473488125001,91.70150057708335,55.0,80.0
524,91.85324138125002,91.96269376458335,58.0,77.0
525,91.85324138125002,91.98010664375002,55.0,79.0
526,91.85324138125002,92.00995729375,63.0,72.0
527,92.15174788125,92.45647326666668,62.0,77.0
528,92.15174788125,92.46269215208335,57.0,79.0
529,92.45025438125,92.640552275,45.0,58.0
530,92.15174788125,92.73383555625001,38.0,80.0
531,92.74876088125,92.88930769166669,57.0,81.0
532,92.74876088125,92.90547679375001,62.0,83.0
533,92.74876088125,92.90796434791667,65.0,81.0
534,93.04726738125001,93.12811289166667,65.0,79.0
535,93.19652063125001,93.26119703958335,62.0,79.0
536,93.19652063125001,93.3196545625,57.0,80.0
537,93.32836100208334,93.63557394166668,58.0,71.0
538,93.33084855625,93.64054905,55.0,73.0
539,93.61318595416668,93.78233963750002,50.0,66.0
540,93.76741431250001,93.95398087500001,55.0,80.0
541,93.75870787291667,94.02363239166668,58.0,81.0
542,93.76492675833335,94.03855771666667,62.0,80.0
543,93.32711722500001,94.04975171041667,43.0,80.0
544,94.23880582708335,94.45397926250001,43.0,80.0
545,94.24378093541668,94.46766081041667,50.0,79.0
546,94.21144273125002,94.47387969583335,55.0,76.0
547,94.21144273125002,94.47387969583335,58.0,73.0
548,94.54850632083334,94.87188836250002,55.0,79.0
549,94.54228743541668,94.93407721666668,58.0,74.0
550,94.52984966458334,94.97139052916668,43.0,81.0
551,95.11940000208335,95.25870303541669,50.0,80.0
552,95.118156225,95.26367814375001,55.0,80.0
553,95.12188755625002,95.26989702916669,43.0,81.0
554,95.11566867083334,95.27362836041668,58.0,75.0
555,95.44526959791668,95.55596575833334,55.0,77.0
556,95.40422495416668,95.63307993750001,43.0,78.0
557,95.73382588125001,95.90297956458335,55.0,76.0
558,95.73382588125001,95.90297956458335,58.0,73.0
559,95.73382588125001,96.40919683750002,43.0,79.0
560,96.33083888125002,96.41168439166668,58.0,81.0
561,96.33083888125002,96.41541572291668,55.0,79.0
562,96.33083888125002,96.42785349375,62.0,81.0
563,96.77859863125002,96.92536432708334,55.0,71.0
564,96.77859863125002,96.92536432708334,58.0,75.0
565,97.22635838125001,97.32212921666668,55.0,73.0
566,97.22635838125001,97.32710432500001,58.0,80.0
567,97.52486488125001,97.66416791458335,62.0,81.0
568,97.52486488125001,97.67163057708335,55.0,75.0
569,96.92785188125,97.93655509583334,43.0,79.0
570,98.12187788125001,98.30098178125002,55.0,75.0
571,98.12187788125001,98.32710110000001,58.0,75.0
572,98.12187788125001,98.77361707291668,43.0,71.0
573,98.71889088125002,98.78356728958335,62.0,77.0
574,98.71889088125002,98.78978617500002,58.0,79.0
575,98.71889088125002,98.80471150000001,55.0,74.0
576,99.16665063125001,99.24873991875,55.0,72.0
577,99.16665063125001,99.24998369583335,58.0,75.0
578,99.16665063125001,99.25247125000001,62.0,73.0
579,99.31590388125001,99.42535626458334,43.0,77.0
580,99.46515713125001,99.53356487083335,55.0,75.0
581,99.46515713125001,99.53356487083335,58.0,81.0
582,99.46515713125001,99.53480864791668,62.0,78.0
583,99.61441038125001,99.74500697500001,43.0,70.0
584,99.91291688125001,100.06465768541668,58.0,79.0
585,99.91291688125001,100.08082678750002,62.0,80.0
586,99.91291688125001,100.08704567291667,55.0,78.0
587,100.50992988125002,100.91042610208335,57.0,75.0
588,100.50992988125002,100.91788876458335,62.0,80.0
589,100.50992988125002,101.14425619375001,50.0,75.0
590,101.10694288125,101.22510170416668,62.0,80.0
591,101.10694288125,101.23256436666668,57.0,79.0
592,101.10694288125,101.26614634791667,65.0,78.0
593,101.55470263125001,101.60320993750001,62.0,67.0
594,101.55470263125001,101.60445371458334,65.0,67.0
595,101.55470263125001,101.66042368333335,57.0,73.0
596,101.70395588125001,102.11564609583334,43.0,79.0
597,102.00246238125001,102.15420318541668,55.0,70.0
598,102.00246238125001,102.16166584791668,58.0,67.0
599,102.00246238125001,102.16664095625,62.0,76.0
600,102.30096888125001,102.44773457708334,50.0,72.0
601,102.30096888125001,102.45022213125002,55.0,75.0
602,102.30096888125001,102.45270968541668,58.0,75.0
603,102.30096888125001,102.45270968541668,62.0,75.0
604,102.59947538125002,102.72634064375,55.0,69.0
605,102.89798188125002,103.10818020833335,53.0,79.0
606,102.89798188125002,103.17410039375001,58.0,67.0
607,102.89798188125002,103.22633903125,46.0,79.0
608,103.49499488125001,103.66166101041668,53.0,78.0
609,103.49499488125001,103.71016831666668,62.0,79.0
610,103.49499488125001,103.72384986458334,58.0,80.0
611,104.09200788125001,104.24623623958334,48.0,73.0
612,104.09200788125001,104.28603710625,55.0,73.0
613,104.09200788125001,104.42036503125001,60.0,76.0
614,104.53976763125002,104.65543890000001,60.0,79.0
615,104.53976763125002,104.67533933333334,55.0,80.0
616,104.68902088125002,104.82583636041667,48.0,77.0
617,104.98752738125,105.07707933125002,60.0,76.0
618,104.98752738125,105.09200465625001,55.0,75.0
619,105.28603388125,105.42160558333335,46.0,75.0
620,105.28603388125,105.49747598541668,53.0,78.0
621,105.28603388125,105.51240131041668,58.0,69.0
622,105.73379363125002,105.85444000833334,53.0,73.0
623,105.73379363125002,105.85568378541669,58.0,70.0
624,105.73379363125002,105.87309666458334,62.0,77.0
625,105.88304688125001,105.96886750000002,46.0,73.0
626,106.18155338125001,106.26488644583335,53.0,78.0
627,106.18155338125001,106.26861777708335,58.0,75.0
628,106.18155338125001,106.29224954166668,62.0,76.0
629,106.48005988125001,106.56712427708334,50.0,77.0
630,106.48005988125001,106.74871573125002,57.0,75.0
631,106.48005988125001,106.78602904375,62.0,80.0
632,106.92781963125,107.08204798958334,62.0,81.0
633,106.92781963125,107.08453554375001,57.0,79.0
634,106.92781963125,107.10941108541668,65.0,76.0
635,107.37557938125002,107.45518111458335,62.0,71.0
636,107.37557938125002,107.46388755416669,65.0,72.0
637,107.37557938125002,107.48130043333335,57.0,75.0
638,107.67408588125002,107.82831423958335,39.0,73.0
639,107.67408588125002,107.90915975000001,63.0,68.0
640,107.67408588125002,107.93403529166667,58.0,80.0
641,107.67408588125002,107.96015461041668,55.0,74.0
642,108.12184563125001,108.23005423750001,58.0,83.0
643,108.12184563125001,108.23627312291669,55.0,79.0
644,108.12184563125001,108.24373578541667,63.0,81.0
645,108.56960538125001,108.67159510208334,58.0,71.0
646,108.56960538125001,108.67905776458335,63.0,68.0
647,108.56960538125001,108.70020197500001,55.0,76.0
648,108.86811188125002,109.03229045625001,57.0,70.0
649,108.86811188125002,109.03726556458335,53.0,71.0
650,108.86811188125002,109.04224067291668,41.0,76.0
651,109.31587163125002,109.40293602708334,57.0,69.0
652,109.31587163125002,109.42034890625001,53.0,74.0
653,109.31587163125002,109.43900556250001,60.0,77.0
654,109.76363138125001,109.86064599375001,53.0,80.0
655,109.76363138125001,109.86810865625002,57.0,75.0
656,109.76363138125001,109.89920308333335,60.0,79.0
657,110.06213788125001,110.35815682708335,58.0,79.0
658,110.06213788125001,110.37059459791668,55.0,73.0
659,110.06213788125001,110.51487273958335,43.0,75.0
660,110.50989763125001,110.59074314166668,58.0,78.0
661,110.50989763125001,110.59944958125001,55.0,76.0
662,110.50989763125001,110.61313112916667,62.0,76.0
663,110.95765738125002,111.04596555416668,55.0,75.0
664,110.95765738125002,111.05591577083334,58.0,75.0
665,110.95765738125002,111.05840332500001,62.0,77.0
666,111.25616388125002,111.37681025833335,62.0,73.0
667,111.25616388125002,111.38054158958334,58.0,72.0
668,111.25616388125002,111.38302914375001,55.0,74.0
669,111.25616388125002,111.67531675833334,43.0,75.0
670,111.70392363125,111.79969446666668,62.0,74.0
671,111.70392363125,111.80840090625001,55.0,73.0
672,111.85317688125002,111.90541551875,50.0,61.0
673,112.15168338125002,112.28476752916669,58.0,74.0
674,112.15168338125002,112.29347396875002,55.0,75.0
675,112.45018988125001,112.56959248125001,46.0,81.0
676,112.45018988125001,112.75864659791668,53.0,76.0
677,112.45018988125001,112.76113415208334,58.0,71.0
678,112.89794963125001,113.04098399583334,58.0,83.0
679,112.89794963125001,113.05715309791668,53.0,79.0
680,112.89794963125001,113.05964065208335,62.0,80.0
681,113.34570938125,113.41162956666668,58.0,65.0
682,113.34570938125,113.50366907083335,53.0,78.0
683,113.34570938125,113.53103216666668,62.0,79.0
684,113.64421588125,113.84819532291668,53.0,73.0
685,113.64421588125,113.91784683958335,57.0,69.0
686,114.09197563125002,114.22008467083334,60.0,79.0
687,114.09197563125002,114.24993532083334,53.0,80.0
688,114.24122888125001,114.48500918958334,48.0,66.0
689,113.64421588125,114.65416287291669,41.0,76.0
690,114.53973538125001,114.65665042708335,53.0,77.0
691,114.53973538125001,114.69769507083335,65.0,80.0
692,114.83824188125001,115.08202218958334,57.0,71.0
693,114.83824188125001,115.09943506875001,53.0,75.0
694,114.83824188125001,115.10565395416668,60.0,75.0
695,114.83824188125001,115.32829005208335,41.0,80.0
696,115.28600163125002,115.44893642916668,53.0,83.0
697,115.28600163125002,115.46510553125,65.0,76.0
698,115.43525488125002,115.51485661458335,41.0,45.0
699,115.43525488125002,115.54097593333336,48.0,67.0
700,115.73376138125002,115.80465667500002,57.0,75.0
701,115.73376138125002,115.82580088541668,53.0,77.0
702,115.73376138125002,115.83575110208335,60.0,79.0
703,116.03226788125002,116.23127221458336,58.0,73.0
704,116.03226788125002,116.27356063541669,62.0,67.0
705,116.33077438125002,116.44022676458334,53.0,35.0
706,116.03226788125002,116.44520187291668,46.0,79.0
707,116.48002763125001,116.54719159375001,58.0,81.0
708,116.48002763125001,116.60067400833336,65.0,82.0
709,116.62928088125001,116.70266372916669,53.0,51.0
710,116.92778738125001,117.03226465625002,58.0,79.0
711,116.92778738125001,117.05838397500001,62.0,80.0
712,117.22629388125002,117.49868106250001,58.0,72.0
713,117.22629388125002,117.50987505625002,62.0,74.0
714,117.22629388125002,117.58325790416669,46.0,79.0
715,117.52480038125002,117.62554632500002,53.0,48.0
716,117.67405363125002,117.76111802708334,58.0,71.0
717,117.67405363125002,117.76360558125,62.0,75.0
718,117.67405363125002,117.84320731458334,65.0,76.0
719,117.82330688125,117.92778415625001,53.0,60.0
720,118.12181338125,118.40539455625002,58.0,80.0
721,118.12181338125,118.41534477291668,62.0,80.0
722,118.42031988125001,118.55837913750001,46.0,80.0
723,118.42031988125001,118.56957313125002,53.0,75.0
724,118.42031988125001,118.71385127291668,58.0,74.0
725,118.71882638125001,118.80215944583335,53.0,66.0
726,119.01733288125001,119.14917325208336,53.0,81.0
727,119.01733288125001,119.21260588333334,57.0,88.0
728,119.01733288125001,119.29967027916669,41.0,80.0
729,119.31583938125002,119.43524198125002,53.0,69.0
730,119.61434588125002,119.71011671666668,46.0,83.0
731,119.61434588125002,119.72006693333336,53.0,80.0
732,119.61434588125002,119.72379826458334,58.0,79.0
733,119.61434588125002,119.73872358958334,62.0,79.0
734,119.91295792291669,120.01520218541668,46.0,76.0
735,119.91295792291669,120.02143659166668,53.0,79.0
736,119.91295792291669,120.02517723541669,58.0,81.0
737,119.91295792291669,120.05385550416669,62.0,81.0
738,120.21220942291669,120.64487721666669,53.0,80.0
739,120.21220942291669,120.67978989166669,58.0,81.0
740,120.21220942291669,120.68602429791669,62.0,83.0
741,120.21220942291669,120.75584964791669,46.0,79.0
742,120.8107124229167,120.9802882729167,55.0,76.0
743,120.8107124229167,120.9802882729167,58.0,73.0
744,120.8107124229167,121.48776894166669,43.0,79.0
745,121.40921542291669,121.4902627041667,58.0,81.0
746,121.40921542291669,121.49400334791669,55.0,79.0
747,121.40921542291669,121.50647216041669,62.0,81.0
748,121.85809267291668,122.00522466041669,55.0,71.0
749,121.85809267291668,122.00522466041669,58.0,75.0
750,122.30696992291669,122.40297977916669,55.0,73.0
751,122.30696992291669,122.40796730416669,58.0,80.0
752,122.60622142291669,122.7458721229167,62.0,81.0
753,122.60622142291669,122.7533534104167,55.0,75.0
754,122.0077184229167,123.01893911666669,43.0,79.0
755,123.20472442291668,123.3842753229167,55.0,75.0
756,123.20472442291668,123.41045982916668,58.0,75.0
757,123.20472442291668,123.8580901979167,43.0,71.0
758,123.80322742291669,123.86806524791669,62.0,77.0
759,123.80322742291669,123.87429965416669,58.0,79.0
760,123.80322742291669,123.88926222916669,55.0,74.0
761,124.25210467291669,124.33439883541669,55.0,72.0
762,124.25210467291669,124.33564571666669,58.0,75.0
763,124.25210467291669,124.33813947916668,62.0,73.0
764,124.40173042291669,124.51145597291669,43.0,77.0
765,124.55135617291668,124.61993464166669,55.0,75.0
766,124.55135617291668,124.61993464166669,58.0,81.0
767,124.55135617291668,124.62118152291669,62.0,78.0
768,124.7009819229167,124.83190445416669,43.0,70.0
769,125.0002334229167,125.15235293541669,58.0,79.0
770,125.0002334229167,125.16856239166668,62.0,80.0
771,125.0002334229167,125.17479679791668,55.0,78.0
772,125.59873642291669,126.00023218541669,57.0,75.0
773,125.59873642291669,126.00771347291669,62.0,80.0
774,125.59873642291669,126.23464586041669,50.0,75.0
775,126.1972394229167,126.31569314166669,62.0,80.0
776,126.1972394229167,126.32317442916668,57.0,79.0
777,126.1972394229167,126.35684022291669,65.0,78.0
778,126.64611667291669,126.69474504166669,62.0,67.0
779,126.64611667291669,126.69599192291669,65.0,67.0
780,126.64611667291669,126.75210157916669,57.0,73.0
781,126.79574242291669,127.20846011666669,43.0,79.0
782,127.09499392291669,127.2471134354167,55.0,70.0
783,127.09499392291669,127.25459472291669,58.0,67.0
784,127.09499392291669,127.25958224791668,62.0,76.0
785,127.3942454229167,127.54137741041669,50.0,72.0
786,127.3942454229167,127.5438711729167,55.0,75.0
787,127.3942454229167,127.54636493541669,58.0,75.0
788,127.3942454229167,127.54636493541669,62.0,75.0
789,127.6934969229167,127.8206788104167,55.0,69.0
790,127.99274842291669,128.20347135416668,53.0,79.0
791,127.99274842291669,128.26955606041668,58.0,67.0
792,127.99274842291669,128.32192507291668,46.0,79.0
793,128.59125142291668,128.7583335104167,53.0,78.0
794,128.59125142291668,128.8069618791667,62.0,79.0
795,128.59125142291668,128.82067757291668,58.0,80.0
796,129.18975442291668,129.34436769791668,48.0,73.0
797,129.18975442291668,129.3842678979167,55.0,73.0
798,129.18975442291668,129.5189310729167,60.0,76.0
799,129.6386316729167,129.7545916291667,60.0,79.0
800,129.6386316729167,129.77454172916669,55.0,80.0
801,129.7882574229167,129.92541436041668,48.0,77.0
802,130.0875089229167,130.1772843729167,60.0,76.0
803,130.0875089229167,130.1922469479167,55.0,75.0
804,130.3867604229167,130.5226704791667,46.0,75.0
805,130.3867604229167,130.5987302354167,53.0,78.0
806,130.3867604229167,130.6136928104167,58.0,69.0
807,130.83563767291668,130.9565851541667,53.0,73.0
808,130.83563767291668,130.9578320354167,58.0,70.0
809,130.83563767291668,130.97528837291668,62.0,77.0
810,130.9852634229167,131.0712982291667,46.0,73.0
811,131.28451492291669,131.3680559666667,53.0,78.0
812,131.28451492291669,131.37179661041668,58.0,75.0
813,131.28451492291669,131.39548735416668,62.0,76.0
814,131.58376642291668,131.67104811041668,50.0,77.0
815,131.58376642291668,131.85309277291668,57.0,75.0
816,131.58376642291668,131.8904992104167,62.0,80.0
817,132.0326436729167,132.1872569479167,62.0,81.0
818,132.0326436729167,132.1897507104167,57.0,79.0
819,132.0326436729167,132.2146883354167,65.0,76.0
820,132.4815209229167,132.56132132291668,62.0,71.0
821,132.4815209229167,132.57004949166668,65.0,72.0
822,132.4815209229167,132.5875058291667,57.0,75.0
823,132.7807724229167,132.9353856979167,39.0,73.0
824,132.7807724229167,133.0164329791667,63.0,68.0
825,132.7807724229167,133.0413706041667,58.0,80.0
826,132.7807724229167,133.0675551104167,55.0,74.0
827,133.22964967291668,133.3381283416667,58.0,83.0
828,133.22964967291668,133.3443627479167,55.0,79.0
829,133.22964967291668,133.3518440354167,63.0,81.0
830,133.6785269229167,133.78077118541668,58.0,71.0
831,133.6785269229167,133.7882524729167,63.0,68.0
832,133.6785269229167,133.8094494541667,55.0,76.0
833,133.97777842291669,134.1423667479167,57.0,70.0
834,133.97777842291669,134.1473542729167,53.0,71.0
835,133.97777842291669,134.15234179791668,41.0,76.0
836,134.4266556729167,134.5139373604167,57.0,69.0
837,134.4266556729167,134.53139369791668,53.0,74.0
838,134.4266556729167,134.5500969166667,60.0,77.0
839,134.8755329229167,134.97278966041668,53.0,80.0
840,134.8755329229167,134.9802709479167,57.0,75.0
841,134.8755329229167,135.0114429791667,60.0,79.0
842,135.1747844229167,135.4715421604167,58.0,79.0
843,135.1747844229167,135.48401097291668,55.0,73.0
844,135.1747844229167,135.6283418854167,43.0,75.0
845,135.62336677708333,135.7042122875,58.0,78.0
846,135.62336677708333,135.71291872708335,55.0,76.0
847,135.62336677708333,135.726600275,62.0,76.0
848,136.07112652708335,136.15943470000002,55.0,75.0
849,136.07112652708335,136.16938491666667,58.0,75.0
850,136.07112652708335,136.17187247083334,62.0,77.0
851,136.36963302708335,136.49027940416667,62.0,73.0
852,136.36963302708335,136.49401073541668,58.0,72.0
853,136.36963302708335,136.49649828958334,55.0,74.0
854,136.36963302708335,136.78878590416667,43.0,75.0
855,136.81739277708334,136.9131636125,62.0,74.0
856,136.81739277708334,136.92187005208334,55.0,73.0
857,136.96664602708336,137.01888466458334,50.0,61.0
858,137.26515252708336,137.39823667500002,58.0,74.0
859,137.26515252708336,137.40694311458336,55.0,75.0
860,137.56365902708333,137.68306162708333,46.0,81.0
861,137.56365902708333,137.87211574375002,53.0,76.0
862,137.56365902708333,137.87460329791668,58.0,71.0
863,138.01141877708335,138.1544531416667,58.0,83.0
864,138.01141877708335,138.17062224375002,53.0,79.0
865,138.01141877708335,138.17310979791668,62.0,80.0
866,138.45917852708334,138.5250987125,58.0,65.0
867,138.45917852708334,138.6171382166667,53.0,78.0
868,138.45917852708334,138.6445013125,62.0,79.0
869,138.75768502708334,138.96166446875,53.0,73.0
870,138.75768502708334,139.03131598541668,57.0,69.0
871,139.20544477708336,139.33355381666667,60.0,79.0
872,139.20544477708336,139.36340446666668,53.0,80.0
873,139.35469802708334,139.59847833541667,48.0,66.0
874,138.75768502708334,139.76763201875002,41.0,76.0
875,139.65320452708335,139.77011957291668,53.0,77.0
876,139.65320452708335,139.81116421666667,65.0,80.0
877,139.95171102708335,140.19549133541668,57.0,71.0
878,139.95171102708335,140.21290421458335,53.0,75.0
879,139.95171102708335,140.21912310000002,60.0,75.0
880,139.95171102708335,140.44175919791667,41.0,80.0
881,140.39947077708334,140.562405575,53.0,83.0
882,140.39947077708334,140.57857467708334,65.0,76.0
883,140.54872402708335,140.6283257604167,41.0,45.0
884,140.54872402708335,140.6544450791667,48.0,67.0
885,140.84723052708335,140.91812582083335,57.0,75.0
886,140.84723052708335,140.93927003125,53.0,77.0
887,140.84723052708335,140.94922024791668,60.0,79.0
888,141.14573702708336,141.3447413604167,58.0,73.0
889,141.14573702708336,141.38702978125002,62.0,67.0
890,141.44424352708336,141.55369591041668,53.0,35.0
891,141.14573702708336,141.55867101875,46.0,79.0
892,141.59349677708335,141.66066073958334,58.0,81.0
893,141.59349677708335,141.7141431541667,65.0,82.0
894,141.74275002708333,141.81613287500002,53.0,51.0
895,142.04125652708333,142.14573380208336,58.0,79.0
896,142.04125652708333,142.17185312083333,62.0,80.0
897,142.33976302708334,142.61215020833333,58.0,72.0
898,142.33976302708334,142.62334420208336,62.0,74.0
899,142.33976302708334,142.69672705000002,46.0,79.0
900,142.63826952708334,142.73901547083335,53.0,48.0
901,142.78752277708335,142.87458717291668,58.0,71.0
902,142.78752277708335,142.87707472708334,62.0,75.0
903,142.78752277708335,142.95667646041667,65.0,76.0
904,142.93677602708334,143.04125330208333,53.0,60.0
905,143.23528252708334,143.51886370208334,58.0,80.0
906,143.23528252708334,143.52881391875002,62.0,80.0
907,143.53378902708334,143.77135045,58.0,77.0
908,143.53378902708334,143.81115131666667,62.0,77.0
909,143.53378902708334,143.92309125416668,46.0,79.0
910,143.98154877708333,144.06861317291668,58.0,80.0
911,143.98154877708333,144.07731961250002,62.0,77.0
912,143.98154877708333,144.11463292500002,65.0,76.0
913,144.13080202708335,144.2253290854167,53.0,66.0
914,144.42930852708335,144.5238355854167,62.0,80.0
915,144.42930852708335,144.53129824791668,58.0,81.0
916,144.72781502708335,144.94423223958336,58.0,73.0
917,144.72781502708335,144.9753266666667,55.0,74.0
918,145.02632152708335,145.17806233125,50.0,64.0
919,145.17557477708334,145.29124604583336,58.0,75.0
920,145.17557477708334,145.33602202083335,62.0,76.0
921,145.32482802708336,145.46039972916668,55.0,74.0
922,145.32482802708336,145.69547359791667,50.0,65.0
923,145.62333452708336,145.70542381458336,58.0,73.0
924,145.62333452708336,145.7253242479167,55.0,74.0
925,145.62333452708336,145.73900579583335,62.0,79.0
926,144.72781502708335,145.76761266875002,43.0,80.0
927,145.92184102708336,146.20915353333334,57.0,80.0
928,145.92184102708336,146.22159130416668,62.0,82.0
929,145.92184102708336,146.39447631875,50.0,84.0
930,146.36960077708335,146.48278449166668,57.0,81.0
931,146.36960077708335,146.52631668958335,65.0,80.0
932,146.66810727708335,146.81238541875,50.0,60.0
933,146.81736052708334,146.89571848333335,62.0,82.0
934,146.81736052708334,146.9280566875,57.0,80.0
935,147.11586702708334,147.33725934791667,58.0,79.0
936,147.11586702708334,147.35218467291668,55.0,75.0
937,147.41437352708334,147.61337786041668,50.0,71.0
938,147.71288002708334,147.78750665208335,55.0,75.0
939,147.71288002708334,147.82855129583334,58.0,80.0
940,147.71288002708334,147.85093928333333,62.0,80.0
941,147.71288002708334,148.06113761041667,50.0,67.0
942,147.11586702708334,148.13452045833336,43.0,81.0
943,148.01138652708335,148.1668586625,55.0,79.0
944,148.01138652708335,148.16934621666667,67.0,78.0
945,148.01138652708335,148.204171975,58.0,81.0
946,148.16063977708336,148.28004237708333,62.0,81.0
947,148.30989302708335,148.59223042500003,58.0,75.0
948,148.30989302708335,148.60218064166668,55.0,73.0
949,148.30989302708335,148.67183215833336,39.0,83.0
950,148.75765277708334,148.91312491250002,58.0,82.0
951,148.75765277708334,148.9280502375,63.0,79.0
952,148.90690602708335,149.05367172291668,55.0,80.0
953,149.20541252708335,149.31486491041667,58.0,77.0
954,149.20541252708335,149.33227778958334,55.0,79.0
955,149.20541252708335,149.36212843958336,63.0,72.0
956,149.50391902708336,149.8086444125,62.0,77.0
957,149.50391902708336,149.81486329791667,57.0,79.0
958,149.80242552708336,149.99272342083336,45.0,58.0
959,149.50391902708336,150.08600670208335,38.0,80.0
960,150.10093202708336,150.2414788375,57.0,81.0
961,150.10093202708336,150.25764793958334,62.0,83.0
962,150.10093202708336,150.26013549375,65.0,81.0
963,150.39943852708333,150.4802840375,65.0,79.0
964,150.54869177708335,150.61336818541668,62.0,79.0
965,150.54869177708335,150.67182570833336,57.0,80.0
966,150.68053214791667,150.9877450875,58.0,71.0
967,150.68301970208336,150.99272019583336,55.0,73.0
968,150.9653571,151.13451078333335,50.0,66.0
969,151.11958545833335,151.30615202083334,55.0,80.0
970,151.11087901875,151.37580353750002,58.0,81.0
971,151.11709790416668,151.39072886250003,62.0,80.0
972,150.67928837083335,151.40192285625002,43.0,80.0
973,151.59097697291668,151.80615040833334,43.0,80.0
974,151.59595208125,151.81983195625003,50.0,79.0
975,151.56361387708336,151.82605084166667,55.0,76.0
976,151.56361387708336,151.82605084166667,58.0,73.0
977,151.90067746666668,152.22405950833334,55.0,79.0
978,151.89445858125,152.2862483625,58.0,74.0
979,151.8820208104167,152.323561675,43.0,81.0
980,152.47157114791668,152.76137120833334,50.0,80.0
981,152.47032737083333,152.76634631666667,55.0,80.0
982,152.47405870208334,152.77256520208334,43.0,81.0
983,152.48898402708335,152.79744074375,67.0,75.0
