,start,end,pitch,velocity
0,16.431517631250003,16.603256718750004,77.0,90.0
1,16.69238713125,16.82608275,76.0,91.0
2,16.953256631250003,17.108691375000003,77.0,91.0
3,17.21412613125,17.3391261,70.0,89.0
4,17.474995631250003,18.15543024375,70.0,88.0
5,18.25760413125,18.403256268750003,70.0,89.0
6,18.518473631250004,18.65977794375,72.0,87.0
7,18.779343131250002,18.941299612500003,73.0,88.0
8,19.040212631250004,19.160864775000004,72.0,91.0
9,19.301082131250002,19.4108647125,72.0,92.0
10,19.56195163125,19.719560287500002,72.0,88.0
11,19.822821131250002,20.00108195625,71.0,83.0
12,20.08369063125,20.344560131250002,72.0,88.0
13,20.866299131250003,21.0152121375,70.0,87.0
14,21.12716863125,21.248907731250004,72.0,90.0
15,21.388038131250003,21.5239076625,66.0,88.0
16,21.64890763125,22.164124893750003,66.0,87.0
17,22.431516131250003,22.603255218750004,66.0,86.0
18,22.69238563125,22.8347769,68.0,88.0
19,22.953255131250003,23.140211606250002,70.0,86.0
20,23.21412463125,23.370646331250004,69.0,87.0
21,23.474994131250003,23.6152114875,73.0,90.0
22,23.73586363125,23.884776637500003,72.0,80.0
23,23.996733131250004,24.164124393750004,71.0,88.0
24,24.257602631250002,24.4347765,72.0,87.0
25,24.518472131250004,24.986950275,77.0,95.0
26,25.040211131250004,25.160863275000004,75.0,93.0
27,25.301080631250002,25.447819725000002,77.0,91.0
28,25.561950131250004,25.714124006250003,70.0,88.0
29,25.822819631250002,26.4195586125,70.0,87.0
30,26.605428131250004,26.728254187500003,70.0,90.0
31,26.866297631250003,26.982601950000003,72.0,88.0
32,27.127167131250005,27.282601875000005,73.0,87.0
33,27.388036631250003,27.501080081250002,72.0,88.0
34,27.64890613125,27.764123493750002,72.0,88.0
35,27.909775631250003,28.069558200000003,72.0,86.0
36,28.17064513125,28.311949443750002,71.0,86.0
37,28.431514631250003,28.568471118750004,72.0,91.0
38,28.69238413125,28.816297143750003,72.0,87.0
39,28.953253631250004,29.109775331250002,72.0,87.0
40,29.214123131250002,29.376079612500003,70.0,88.0
41,29.474992631250004,29.624992593750004,72.0,91.0
42,29.735862131250002,30.590209743750002,66.0,88.0
43,30.779340131250002,30.908687925000002,66.0,88.0
44,31.040209631250004,31.169557425000004,68.0,87.0
45,31.301079131250003,31.448905181250005,70.0,87.0
46,31.561948631250004,31.964122443750004,75.0,91.0
47,32.08368763125,32.24455715625,73.0,86.0
48,32.344557131250006,32.4695571,72.0,70.0
49,32.605426631250005,32.761948331250004,73.0,86.0
50,32.86629613125,33.0065134875,70.0,87.0
51,33.12716563125,33.270643856250004,72.0,88.0
52,33.38803513125001,33.54020900625,73.0,88.0
53,33.648904631250005,34.365208800000005,82.0,87.0
54,34.953252131250004,35.06194775625001,82.0,87.0
55,35.21412163125,35.347817250000006,84.0,86.0
56,35.47499113125,35.604338925,82.0,87.0
57,35.735860631250006,35.8456432125,81.0,91.0
58,35.996730131250004,36.1217301,77.0,92.0
59,36.25759963125,36.383686556250005,77.0,90.0
60,36.51846913125,36.659773443750005,75.0,90.0
61,36.779338631250006,36.98586031875001,77.0,91.0
62,37.040208131250004,37.176077662500006,75.0,93.0
63,37.30107763125,37.4586862875,77.0,88.0
64,37.56194713125,37.68151231875,75.0,92.0
65,37.82281663125001,38.14672959375,77.0,93.0
66,38.34455563125,38.752164225,81.0,93.0
67,39.127164131250005,39.282598875000005,81.0,88.0
68,39.38803363125,39.548903156250006,81.0,81.0
69,39.64890313125,39.7847726625,81.0,87.0
70,39.90977263125001,40.059772593750004,81.0,88.0
71,40.170642131250005,40.310859487500004,82.0,87.0
72,40.431511631250004,40.56194638125,84.0,90.0
73,40.69238113125,40.85759848125,81.0,87.0
74,40.95325063125001,41.1152071125,82.0,86.0
75,41.214120131250006,41.5891200375,77.0,88.0
76,41.73585913125,41.865206925,75.0,95.0
77,41.99672863125001,42.40868505,77.0,89.0
78,42.518467631250005,43.070641406250004,82.0,87.0
79,43.30107613125001,43.40433697500001,82.0,88.0
80,43.561945631250005,43.69781516250001,84.0,90.0
81,43.82281513125,43.959771618750004,82.0,86.0
82,44.08368463125,44.20651068750001,81.0,93.0
83,44.34455413125001,44.476075837500005,77.0,92.0
84,44.605423631250005,44.7456409875,77.0,91.0
85,44.86629313125,45.013032225,76.0,88.0
86,45.12716263125,45.31955388750001,77.0,88.0
87,45.38803213125001,45.699988575000006,75.0,92.0
88,45.909771131250004,46.04890153125,75.0,89.0
89,46.17064063125,46.29020581875,77.0,88.0
90,46.43151013125001,46.760857875000006,70.0,85.0
91,46.953249131250004,47.038031718750005,70.0,81.0
92,47.21411863125,47.365205550000006,70.0,91.0
93,47.47498813125001,47.615205487500006,72.0,87.0
94,47.735857631250006,47.88694455,73.0,88.0
95,47.996727131250005,48.13803144375,72.0,88.0
96,48.25759663125,48.41411833125,72.0,89.0
97,48.51846613125001,48.685857393750005,70.0,90.0
98,49.040205131250005,49.21629204375,70.0,87.0
99,49.30107463125,49.583683256250005,70.0,89.0
100,49.82281363125001,49.99455271875001,77.0,90.0
101,50.083683131250005,50.21737875000001,76.0,91.0
102,50.344552631250004,50.499987375,77.0,91.0
103,50.60542213125001,50.730422100000006,70.0,89.0
104,50.86629163125001,51.54672624375001,70.0,88.0
105,51.64890013125,51.79455226875,70.0,89.0
106,51.90976963125001,52.051073943750005,72.0,87.0
107,52.170639131250006,52.33259561250001,73.0,88.0
108,52.431508631250004,52.552160775000004,72.0,91.0
109,52.69237813125,52.802160712500005,72.0,92.0
110,52.95324763125001,53.110856287500006,72.0,88.0
111,53.214117131250006,53.39237795625001,71.0,83.0
112,53.474986631250005,53.73585613125,72.0,88.0
113,54.25759513125001,54.406508137500005,70.0,87.0
114,54.518464631250005,54.640203731250004,72.0,90.0
115,54.77933413125,54.915203662500005,66.0,88.0
116,55.04020363125001,55.555420893750004,66.0,87.0
117,55.822812131250004,55.994551218750004,66.0,86.0
118,56.08368163125001,56.226072900000005,68.0,88.0
119,56.34455113125001,56.53150760625001,70.0,86.0
120,56.605420631250006,56.761942331250005,73.0,87.0
121,56.866290131250004,57.00650748750001,73.0,90.0
122,57.12715963125001,57.27607263750001,73.0,80.0
123,57.38802913125001,57.555420393750005,72.0,88.0
124,57.648898631250006,57.82607250000001,73.0,87.0
125,57.909768131250004,58.37824627500001,77.0,95.0
126,58.43150713125001,58.55215927500001,75.0,93.0
127,58.692376631250006,58.839115725000006,77.0,91.0
128,58.953246131250005,59.10542000625001,70.0,88.0
129,59.21411563125,59.81085461250001,70.0,87.0
130,59.996724131250005,60.1195501875,70.0,90.0
131,60.25759363125,60.37389795000001,72.0,88.0
132,60.51846313125001,60.67356770833334,73.0,87.0
133,60.77877370625001,60.89157188958334,77.0,88.0
134,61.039077206250006,61.15404458541667,72.0,88.0
135,61.299380706250005,61.458816600000006,72.0,86.0
136,61.559684206250004,61.700681935416675,73.0,86.0
137,61.819987706250004,61.95664704375,72.0,91.0
138,62.08029120625,62.20393536875001,70.0,87.0
139,62.34059470625001,62.496776806250004,72.0,87.0
140,62.60089820625001,62.76250329583334,70.0,88.0
141,62.86120170625001,63.381808706250006,73.0,91.0
142,63.381808706250006,63.5347370125,66.0,90.0
143,63.642112206250005,63.955561004166675,66.0,90.0
144,64.16271920625,64.29178635833334,66.0,88.0
145,64.42302270625001,64.55208985833335,68.0,87.0
146,64.68332620625,64.83083152291667,70.0,87.0
147,64.94362970625001,65.20393320625001,75.0,91.0
148,65.20393320625001,65.72454020625001,73.0,86.0
149,65.72454020625001,65.84926896666667,72.0,70.0
150,65.98484370625,66.14102580625001,73.0,86.0
151,66.24514720625001,66.38506033750001,70.0,87.0
152,66.50545070625,66.64861763125,72.0,88.0
153,66.76575420625001,66.91759791458334,73.0,88.0
154,67.02605770625,67.74080773333334,82.0,87.0
155,68.32757520625,68.43603499791668,82.0,87.0
156,68.58787870625001,68.72128425000001,84.0,86.0
157,68.84818220625,68.97724935833334,82.0,87.0
158,69.10848570625001,69.21803009583334,80.0,91.0
159,69.36878920625,69.63993868541667,77.0,92.0
160,69.88939620625001,70.03039393541667,75.0,90.0
161,70.14969970625,70.35577331041668,77.0,91.0
162,70.41000320625001,70.54557794583334,77.0,93.0
163,70.67030670625,70.82757340416667,77.0,88.0
164,70.93061020625001,71.04991597708334,75.0,92.0
165,71.19091370625,71.51412388541667,77.0,93.0
166,71.71152070625001,72.118244925,81.0,93.0
167,72.49243120625,72.64752870833334,81.0,88.0
168,72.75273470625001,72.91325519791667,81.0,81.0
169,73.01303820625,73.14861294583334,81.0,87.0
170,73.27334170625001,73.42301621875,81.0,88.0
171,73.53364520625001,73.67355833750001,82.0,87.0
172,73.79394870625,73.92410045625,84.0,90.0
173,74.05425220625001,74.21911108958334,81.0,87.0
174,74.31455570625,74.47616079583334,82.0,86.0
175,74.57485920625001,74.9490454875,77.0,88.0
176,75.09546620625001,75.22453335833333,75.0,95.0
177,75.35576970625,75.76683231666667,77.0,89.0
178,75.87637670625,76.42735244791668,82.0,87.0
179,76.65728720625,76.76032400833334,82.0,88.0
180,76.91759070625001,77.05316544583334,84.0,90.0
181,77.17789420625,77.31455354375001,82.0,86.0
182,77.43819770625001,77.56075727083334,80.0,93.0
183,77.69850120625,77.82973755416667,77.0,92.0
184,78.21910820625001,78.365528925,76.0,88.0
185,78.47941170625,78.67138553750002,77.0,88.0
186,78.73971520625001,79.05099480833334,77.0,92.0
187,79.26032220625001,79.39915073958335,75.0,89.0
188,79.52062570625,79.63993147708334,77.0,88.0
189,79.78092920625001,80.10956237500001,72.0,85.0
190,80.30153620625,80.38613484375,71.0,81.0
191,80.56183970625,80.71259881666667,72.0,91.0
192,80.82214320625,80.9620563375,71.0,87.0
193,81.08244670625001,81.23320581666667,72.0,88.0
194,81.34275020625,81.48374793541667,72.0,88.0
195,81.60305370625001,81.75923580625,77.0,89.0
196,81.86335720625001,82.03038528541667,70.0,90.0
197,82.38396420625,82.55966906875001,69.0,87.0
198,82.64426770625,83.16487470625,70.0,89.0
199,99.59794577291667,99.73816312916668,70.0,87.0
200,99.85881527291667,100.00229349791667,72.0,88.0
201,100.11968477291667,100.27185864791667,73.0,88.0
202,100.38055427291667,101.09685844166668,82.0,87.0
203,101.68490177291667,101.79359739791667,82.0,87.0
204,101.94577127291667,102.07946689166667,84.0,86.0
205,102.20664077291667,102.33598856666667,82.0,87.0
206,102.46751027291667,102.57729285416667,81.0,91.0
207,102.72837977291667,102.85337974166667,77.0,92.0
208,102.98924927291668,103.11533619791668,77.0,90.0
209,103.25011877291668,103.39142308541668,75.0,90.0
210,103.51098827291668,103.71750996041668,77.0,91.0
211,103.77185777291668,103.90772730416667,75.0,93.0
212,104.03272727291667,104.19033592916668,77.0,88.0
213,104.29359677291667,104.41316196041667,75.0,92.0
214,104.55446627291667,104.87837923541667,77.0,93.0
215,105.07620527291667,105.48381386666668,81.0,93.0
216,105.85881377291668,106.01424851666667,81.0,88.0
217,106.11968327291667,106.28055279791667,81.0,81.0
218,106.38055277291667,106.51642230416667,81.0,87.0
219,106.64142227291667,106.79142223541668,81.0,88.0
220,106.90229177291667,107.04250912916667,82.0,87.0
221,107.16316127291668,107.29359602291667,84.0,90.0
222,107.42403077291667,107.58924812291667,81.0,87.0
223,107.68490027291668,107.84685675416668,82.0,86.0
224,107.94576977291668,108.32076967916667,77.0,88.0
225,108.46750877291667,108.59685656666667,75.0,95.0
226,108.72837827291667,109.14033469166668,77.0,89.0
227,109.25011727291667,109.80229104791667,82.0,87.0
228,110.03272577291668,110.13598661666667,82.0,88.0
229,110.29359527291668,110.42946480416667,84.0,90.0
230,110.55446477291667,110.69142126041667,82.0,86.0
231,110.81533427291667,110.93816032916668,81.0,93.0
232,111.07620377291667,111.20772547916667,77.0,92.0
233,111.33707327291668,111.47729062916667,77.0,91.0
234,111.59794277291667,111.74468186666667,76.0,88.0
235,111.85881227291668,112.05120352916667,77.0,88.0
236,112.11968177291668,112.43163821666667,75.0,92.0
237,112.64142077291667,112.78055117291667,75.0,89.0
238,112.90229027291667,113.02185546041667,77.0,88.0
239,113.16315977291667,113.49250751666668,72.0,85.0
240,113.68489877291668,113.76968136041668,72.0,81.0
241,113.94576827291668,114.09685519166668,72.0,91.0
242,114.20663777291668,114.34685512916667,71.0,87.0
243,114.46750727291668,114.61859419166667,72.0,88.0
244,114.72837677291668,114.86968108541667,72.0,88.0
245,114.98924627291667,115.14576797291667,77.0,89.0
246,115.25011577291667,115.41750703541668,70.0,90.0
247,115.77185477291667,115.94794168541668,69.0,87.0
248,116.03272427291668,116.29359377291667,70.0,89.0
249,116.29359377291667,116.43381112916668,70.0,87.0
250,116.55446327291668,116.69794149791667,72.0,88.0
251,116.81533277291668,116.96750664791668,73.0,88.0
252,117.07620227291667,117.79250644166667,82.0,87.0
253,118.38054977291668,118.48924539791668,82.0,87.0
254,118.64141927291668,118.77511489166668,84.0,86.0
255,118.90228877291668,119.03163656666668,82.0,87.0
256,119.16315827291668,119.27294085416668,80.0,91.0
257,119.42402777291667,119.54902774166668,77.0,92.0
258,119.94576677291667,120.08707108541668,75.0,90.0
259,120.20663627291668,120.41315796041667,77.0,91.0
260,120.46750577291667,120.60337530416668,77.0,93.0
261,120.72837527291668,120.88598392916668,77.0,88.0
262,120.98924477291668,121.10880996041668,75.0,92.0
263,121.25011427291668,121.57402723541668,77.0,93.0
264,121.77185327291667,122.17946186666668,81.0,93.0
265,122.55446177291668,122.70989651666667,81.0,88.0
266,122.81533127291668,122.97620079791668,81.0,81.0
267,123.07620077291668,123.21207030416667,81.0,87.0
268,123.33707027291668,123.48707023541667,81.0,88.0
269,123.59793977291667,123.73815712916667,82.0,87.0
270,123.85880927291667,123.98924402291668,84.0,90.0
271,124.11967877291667,124.28489612291668,81.0,87.0
272,124.38054827291668,124.54250475416669,82.0,86.0
273,124.64141777291667,125.01641767916668,77.0,88.0
274,125.16315677291668,125.29250456666668,75.0,95.0
275,125.42402627291668,125.83598269166669,77.0,89.0
276,125.94576527291667,126.49793904791667,82.0,87.0
277,126.72837377291668,126.83163461666668,82.0,88.0
278,126.98924327291667,127.12511280416668,84.0,90.0
279,127.25011277291668,127.38706926041667,82.0,86.0
280,127.51098227291668,127.63380832916667,80.0,93.0
281,127.77185177291668,127.90337347916667,77.0,92.0
282,128.03272127291666,128.17293862916668,77.0,91.0
283,128.29359077291667,128.44032986666667,76.0,88.0
284,128.55446027291669,128.7468515291667,77.0,88.0
285,128.81532977291667,129.12728621666668,77.0,92.0
286,129.33706877291667,129.47619917291667,75.0,89.0
287,129.59793827291668,129.71750346041668,77.0,88.0
288,129.8588077729167,130.18815551666668,72.0,85.0
289,130.3805467729167,130.46532936041666,71.0,81.0
290,130.64141627291667,130.79250319166667,72.0,91.0
291,130.90228577291668,131.04250312916668,72.0,87.0
292,131.16315527291667,131.31424219166666,73.0,88.0
293,131.42402477291668,131.5653290854167,72.0,88.0
294,131.68489427291667,131.84141597291668,77.0,89.0
295,131.94576377291668,132.11315503541667,70.0,90.0
296,132.46750277291667,132.64358968541669,69.0,87.0
297,132.7283722729167,133.25011127291668,70.0,89.0
298,149.9457592729167,150.11749836041668,77.0,90.0
299,150.20662877291667,150.34032439166668,76.0,91.0
300,150.46749827291669,150.62293301666668,77.0,91.0
301,150.72836777291667,150.85336774166666,70.0,89.0
302,150.98923727291668,151.66967188541668,70.0,88.0
303,151.77184577291666,151.91749791041667,70.0,89.0
304,152.03271527291668,152.17401958541666,72.0,87.0
305,152.2935847729167,152.4555412541667,73.0,88.0
306,152.5544542729167,152.67510641666667,72.0,91.0
307,152.81532377291668,152.9251063541667,72.0,92.0
308,153.07619327291667,153.23380192916667,72.0,88.0
309,153.33706277291668,153.51532359791668,71.0,83.0
310,153.5979322729167,153.85880177291668,72.0,88.0
311,154.38054077291667,154.5294537791667,70.0,87.0
312,154.6414102729167,154.7631493729167,72.0,90.0
313,154.9022797729167,155.03814930416667,66.0,88.0
314,155.16314927291668,155.67836653541667,66.0,87.0
315,155.9457577729167,156.11749686041668,66.0,86.0
316,156.20662727291668,156.34901854166668,68.0,88.0
317,156.46749677291666,156.65445324791668,70.0,86.0
318,156.72836627291667,156.8848879729167,73.0,87.0
319,156.9892357729167,157.12945312916668,73.0,90.0
320,157.2501052729167,157.39901827916668,73.0,80.0
321,157.51097477291668,157.67836603541667,72.0,88.0
322,157.77184427291667,157.94901814166667,73.0,87.0
323,158.03271377291668,158.5011919166667,77.0,95.0
324,158.55445277291668,158.67510491666667,75.0,93.0
325,158.81532227291666,158.96206136666666,77.0,91.0
326,159.07619177291667,159.2283656479167,70.0,88.0
327,159.33706127291669,159.93380025416667,70.0,87.0
328,160.11966977291667,160.24249582916667,70.0,90.0
329,160.38053927291668,160.49684359166667,72.0,88.0
330,160.6414087729167,160.79684351666668,73.0,87.0
331,160.90227827291667,161.01532172291667,77.0,88.0
332,161.1631477729167,161.27836513541666,72.0,88.0
333,161.42401727291667,161.5837998416667,72.0,86.0
334,161.68488677291668,161.82619108541667,73.0,86.0
335,161.9457562729167,162.08271276041668,72.0,91.0
336,162.20662577291668,162.33053878541668,70.0,87.0
337,162.46749527291666,162.62401697291668,72.0,87.0
338,162.72836477291668,162.89032125416668,70.0,88.0
339,162.9892342729167,163.5109732729167,73.0,91.0
340,163.5109732729167,163.66423410416667,66.0,90.0
341,163.77184277291667,164.0859731291667,66.0,90.0
342,164.2935817729167,164.42292956666668,66.0,88.0
343,164.55445127291668,164.68379906666667,68.0,87.0
344,164.81532077291666,164.96314682291668,70.0,87.0
345,165.07619027291668,165.3370597729167,75.0,91.0
346,165.3370597729167,165.85879877291669,73.0,86.0
347,165.85879877291669,165.98379874166667,72.0,70.0
348,166.11423349166668,166.35988560416666,73.0,86.0
349,166.35336386666668,166.53597251666667,70.0,88.0
350,166.63705944791667,168.56749374791667,70.0,87.0
