,start,end,pitch,velocity
0,34.90166526666667,35.63337126666667,72.0,107.0
1,35.63337126666667,37.09678326666667,70.0,107.0
2,37.09678326666667,37.46263626666667,72.0,110.0
3,37.46263626666667,37.82848926666667,75.0,102.0
4,37.82848926666667,38.560195266666675,72.0,104.0
5,38.560195266666675,39.29190126666667,70.0,104.0
6,39.29190126666667,39.65775426666667,75.0,110.0
7,39.65775426666667,40.02360726666667,77.0,100.0
8,40.02360726666667,41.02523226666667,79.0,113.0
9,41.02523226666667,41.35856526666667,77.0,102.0
10,41.35856526666667,41.69189826666667,75.0,107.0
11,41.69189826666667,42.02523126666667,72.0,92.0
12,42.02523126666667,43.35856326666667,75.0,107.0
13,43.35856326666667,44.02522926666667,72.0,100.0
14,44.02522926666667,45.35982393333334,70.0,98.0
15,45.35982393333334,45.70073293333334,72.0,107.0
16,45.70073293333334,46.04164193333334,75.0,94.0
17,46.04164193333334,46.38255093333334,77.0,100.0
18,46.38255093333334,46.74334629166667,79.0,102.0
19,46.72345993333334,48.08709593333334,77.0,107.0
20,48.08709593333334,48.42800493333334,75.0,91.0
21,48.42800493333334,51.49618593333334,77.0,94.0
22,51.49618593333334,52.179424387500006,72.0,110.0
23,52.178003933333336,53.541639933333336,70.0,104.0
24,53.541639933333336,53.88254893333334,72.0,104.0
25,53.88254893333334,54.223457933333336,75.0,104.0
26,54.223457933333336,54.90527593333334,72.0,104.0
27,54.90527593333334,55.587093933333335,70.0,104.0
28,55.587093933333335,55.92800293333334,75.0,92.0
29,55.92800293333334,56.26891193333334,77.0,89.0
30,56.26891193333334,57.29163893333334,79.0,100.0
31,57.29163893333334,57.63254793333334,77.0,104.0
32,57.63254793333334,57.97345693333334,75.0,98.0
33,57.97345693333334,58.314365933333335,72.0,89.0
34,58.314365933333335,59.678001933333334,75.0,107.0
35,59.678001933333334,60.35981993333334,72.0,104.0
36,60.35981993333334,61.72345593333334,70.0,100.0
37,61.72345593333334,62.06436493333334,72.0,98.0
38,62.06436493333334,62.40527393333333,75.0,98.0
39,62.40527393333333,62.74618293333334,77.0,108.0
40,62.74618293333334,63.0885123875,79.0,96.0
41,63.08709193333334,64.10981893333334,77.0,102.0
42,64.10981893333334,64.44930747916666,75.0,93.0
43,64.45072793333334,67.88513526666667,75.0,100.0
44,67.88513526666667,68.59101726666667,72.0,107.0
45,68.59101726666667,70.00278126666667,70.0,107.0
46,70.00278126666667,70.35572226666666,72.0,110.0
47,70.35572226666666,70.70866326666666,75.0,102.0
48,70.70866326666666,71.41454526666666,72.0,104.0
49,71.41454526666666,72.12042726666667,70.0,104.0
50,72.12042726666667,72.47336826666667,75.0,110.0
51,72.47336826666667,72.82630926666667,77.0,100.0
52,72.82630926666667,73.86625956666667,79.0,113.0
53,73.86625956666667,74.19959256666667,77.0,102.0
54,74.19959256666667,74.53292556666666,75.0,107.0
55,74.53292556666666,74.86625856666667,72.0,92.0
56,74.86625856666667,76.19959056666667,75.0,107.0
57,76.19959056666667,76.86625656666666,72.0,100.0
58,76.86625656666666,78.19958856666666,70.0,98.0
59,78.19958856666666,78.53292156666667,72.0,107.0
60,78.53292156666667,78.86625456666667,75.0,94.0
61,78.86625456666667,79.19958756666666,77.0,100.0
62,79.19958756666666,79.55236499166666,79.0,102.0
63,79.53292056666666,80.86625256666667,77.0,107.0
64,80.86625256666667,81.19958556666667,75.0,91.0
65,81.19958556666667,84.24640791666667,77.0,94.0
66,84.24640791666667,84.96218101041667,72.0,110.0
67,84.96069291666666,86.38926291666667,70.0,104.0
68,86.38926291666667,86.74640541666666,72.0,104.0
69,86.74640541666666,87.10354791666667,75.0,104.0
70,87.10354791666667,87.80679771666667,72.0,104.0
71,87.80679771666667,88.48095471666666,70.0,104.0
72,88.48095471666666,88.81803321666666,75.0,92.0
73,88.81803321666666,89.15511171666667,77.0,89.0
74,89.15511171666667,90.14612219166666,79.0,100.0
75,90.14612219166666,90.46191119166667,77.0,104.0
76,90.46191119166667,90.77770019166667,75.0,98.0
77,90.77770019166667,91.09348919166666,72.0,89.0
78,91.09348919166666,92.35664519166667,75.0,107.0
79,92.35664519166667,92.98822319166666,72.0,104.0
80,92.98822319166666,94.47123635833333,70.0,100.0
81,94.47123635833333,94.81214535833332,72.0,98.0
82,94.81214535833332,95.15305435833334,75.0,98.0
83,95.15305435833334,95.49396335833333,77.0,108.0
84,95.49396335833333,95.83629281249999,79.0,96.0
85,95.83487235833333,97.19850835833333,77.0,102.0
86,97.19850835833333,97.70845140416667,75.0,93.0
87,97.70987185833333,100.61752433333332,75.0,100.0
88,100.61752433333332,100.97896983333332,79.0,113.0
89,100.97896983333332,101.33890931041667,82.0,113.0
90,101.34041533333333,102.5981748875,82.0,117.0
91,102.5981748875,102.9511158875,79.0,110.0
92,102.9511158875,103.3040568875,82.0,114.0
93,103.3040568875,103.6569978875,84.0,117.0
94,103.6569978875,104.0099388875,87.0,87.0
95,104.0099388875,105.05349423125,84.0,100.0
96,105.05349423125,105.39057273125,79.0,100.0
97,105.39057273125,106.06472973125,82.0,116.0
98,106.06472973125,106.73888673124999,79.0,114.0
99,106.73888673124999,107.41304373125,77.0,116.0
100,107.41304373125,108.78031049375,75.0,114.0
101,108.78031049375,109.12513799374999,79.0,113.0
102,109.12513799374999,109.46852871249999,82.0,113.0
103,109.46996549375,110.84927549375,82.0,116.0
104,110.84927549375,111.19410299375,79.0,110.0
105,111.19410299375,111.53893049374999,82.0,113.0
106,111.53893049374999,111.88375799375,84.0,114.0
107,111.88375799375,112.22858549374999,87.0,113.0
108,112.22858549374999,112.91824049374999,84.0,114.0
109,112.91824049374999,113.6179529625,79.0,114.0
110,113.60789549375,117.05617049374999,77.0,116.0
111,117.05617049374999,117.40099799375,79.0,113.0
112,117.40099799375,117.7443887125,82.0,113.0
113,117.74582549374999,119.12513549375,82.0,117.0
114,119.12513549375,119.46996299374999,79.0,110.0
115,119.46996299374999,119.81479049375,82.0,114.0
116,119.81479049375,120.15961799374999,84.0,117.0
117,120.15961799374999,120.50444549375,87.0,87.0
118,120.50444549375,121.53214761874999,84.0,100.0
119,121.53214761874999,121.86922611874999,79.0,100.0
120,121.86922611874999,122.54338311875,82.0,116.0
121,122.54338311875,123.21754011875,79.0,114.0
122,123.21754011875,123.89169711874999,77.0,116.0
123,123.89169711874999,125.57708961875,75.0,114.0
124,125.57708961875,125.91416811875,72.0,113.0
125,125.91416811875,127.26248211875,70.0,114.0
126,127.26248211875,127.59956061874999,72.0,117.0
127,127.59956061874999,127.93663911875,75.0,113.0
128,127.93663911875,128.27371761875,77.0,117.0
129,128.27371761875,128.61079611875,79.0,117.0
130,128.61079611875,129.9648423875,77.0,119.0
131,129.9648423875,130.3122259,75.0,116.0
132,130.31367938749997,132.0578643875,75.0,120.0
133,170.30249218333333,171.03419818333333,72.0,107.0
134,171.03419818333333,172.49761018333334,70.0,107.0
135,172.49761018333334,172.85848969583336,72.0,110.0
136,172.85848969583336,173.16151969583333,75.0,102.0
137,173.16151969583333,173.76757969583335,72.0,104.0
138,173.76757969583335,174.37363969583333,70.0,104.0
139,174.37363969583333,174.67666969583334,75.0,110.0
140,174.67666969583334,174.97969969583335,77.0,100.0
141,174.97969969583335,175.95492941666666,79.0,113.0
142,175.95492941666666,176.29583841666667,77.0,102.0
143,176.29583841666667,176.63674741666668,75.0,107.0
144,176.63674741666668,176.97798295833334,72.0,92.0
145,176.97798295833334,178.35729295833335,75.0,107.0
146,178.35729295833335,179.04694795833333,72.0,100.0
147,179.04694795833333,180.38494967083335,70.0,98.0
148,180.38494967083335,180.71103617083332,72.0,107.0
149,180.71103617083332,181.03712267083333,75.0,94.0
150,181.03712267083333,181.36320917083333,77.0,100.0
151,181.36320917083333,181.70831738333334,79.0,102.0
152,181.68929567083333,183.01091249583334,77.0,107.0
153,183.01091249583334,183.34424549583332,75.0,91.0
154,183.34424549583332,186.71344791458336,77.0,94.0
155,186.71344791458336,187.40453969583334,72.0,110.0
156,187.40310291458334,188.78241291458335,70.0,104.0
157,188.78241291458335,189.12724041458335,72.0,104.0
158,189.12724041458335,189.47206791458333,75.0,104.0
159,189.47206791458333,190.16172291458335,72.0,104.0
160,190.16172291458335,190.85137791458334,70.0,104.0
161,190.85137791458334,191.19620541458335,75.0,92.0
162,191.19620541458335,191.54103291458335,77.0,89.0
163,191.54103291458335,192.57551541458335,79.0,100.0
164,192.57551541458335,192.92034291458336,77.0,104.0
165,192.92034291458336,193.26517041458334,75.0,98.0
166,193.26517041458334,193.60999791458335,72.0,89.0
167,193.60999791458335,194.97154978958332,75.0,107.0
168,194.97154978958332,195.64570678958333,72.0,104.0
169,195.64570678958333,196.99402078958335,70.0,100.0
170,196.99402078958335,197.33109928958334,72.0,98.0
171,197.33109928958334,197.66817778958332,75.0,98.0
172,197.66817778958332,198.00525628958334,77.0,108.0
173,198.00525628958334,198.34373928333332,79.0,96.0
174,198.34233478958333,199.52210953958334,77.0,102.0
175,199.52210953958334,199.85778354583334,75.0,93.0
176,199.85918803958333,203.01757582708333,75.0,100.0
177,203.01757582708333,203.34015582708332,79.0,113.0
178,203.34015582708332,203.66139174375,82.0,113.0
179,203.66273582708334,204.95305582708332,82.0,117.0
180,204.95305582708332,205.27563582708333,79.0,110.0
181,205.27563582708333,205.59821582708332,82.0,114.0
182,205.59821582708332,205.92079582708334,84.0,117.0
183,205.92079582708334,206.24337582708333,87.0,87.0
184,206.24337582708333,207.21111582708332,84.0,100.0
185,207.21111582708332,207.53369582708333,79.0,100.0
186,207.53369582708333,208.17885582708334,82.0,116.0
187,208.17885582708334,208.82401582708331,79.0,114.0
188,208.82401582708331,209.46917582708332,77.0,116.0
189,209.46917582708332,210.8307809833333,75.0,114.0
190,210.8307809833333,211.18792348333332,79.0,113.0
191,211.18792348333332,211.54357788958333,82.0,113.0
192,211.54506598333333,212.9736359833333,82.0,116.0
193,212.9736359833333,213.33077848333332,79.0,110.0
194,213.33077848333332,213.68792098333333,82.0,113.0
195,213.68792098333333,214.0450634833333,84.0,114.0
196,214.0450634833333,214.40220598333332,87.0,113.0
197,214.40220598333332,215.11649098333334,84.0,114.0
198,215.11649098333334,215.8411926395833,79.0,114.0
199,215.83077598333333,219.40220098333333,77.0,116.0
200,219.40220098333333,219.7593434833333,79.0,113.0
201,219.7593434833333,220.11499788958332,82.0,113.0
202,220.11648598333332,221.18791348333332,82.0,117.0
203,221.18791348333332,221.54505598333333,79.0,110.0
204,221.54505598333333,221.9021984833333,82.0,114.0
205,221.9021984833333,222.25934098333332,84.0,117.0
206,222.25934098333332,222.61648348333333,87.0,87.0
207,222.61648348333333,223.67864436041665,84.0,100.0
208,223.67864436041665,224.01955336041667,79.0,100.0
209,224.01955336041667,224.70137136041666,82.0,116.0
210,224.70137136041666,225.38318936041665,79.0,114.0
211,225.38318936041665,226.06500736041664,77.0,116.0
212,226.06500736041664,227.75364276041665,75.0,114.0
213,227.75364276041665,228.08697576041666,72.0,113.0
214,228.08697576041666,229.42030776041665,70.0,114.0
215,229.42030776041665,229.75364076041666,72.0,117.0
216,229.75364076041666,230.08697376041664,75.0,113.0
217,230.08697376041664,230.42030676041665,77.0,117.0
218,230.42030676041665,230.75363976041666,79.0,117.0
219,230.75363976041666,231.92030526041665,77.0,119.0
220,231.92030526041665,232.41891587291664,75.0,116.0
221,232.42030476041666,236.08696776041666,75.0,120.0
222,236.08696776041666,236.42030076041664,79.0,113.0
223,236.42030076041664,236.75918946666664,82.0,113.0
224,236.76062624791666,238.13993624791664,82.0,117.0
225,238.13993624791664,238.48476374791665,79.0,110.0
226,238.48476374791665,238.82959124791665,82.0,114.0
227,238.82959124791665,239.17441874791666,84.0,117.0
228,239.17441874791666,239.51924624791664,87.0,87.0
229,239.51924624791664,240.55372874791664,84.0,100.0
230,240.55372874791664,240.89855624791664,79.0,100.0
231,240.89855624791664,241.58821124791666,82.0,116.0
232,241.58821124791666,242.27786624791665,79.0,114.0
233,242.27786624791665,242.96752124791664,77.0,116.0
234,242.96752124791664,244.34683124791664,75.0,114.0
235,244.34683124791664,244.69165874791665,79.0,113.0
236,244.69165874791665,245.03504946666666,82.0,113.0
237,245.03648624791666,246.41579624791666,82.0,116.0
238,246.41579624791666,246.76062374791664,79.0,110.0
239,246.76062374791664,247.10545124791665,82.0,113.0
240,247.10545124791665,247.45027874791666,84.0,114.0
241,247.45027874791666,247.79510624791666,87.0,113.0
242,247.79510624791666,248.48476124791665,84.0,114.0
243,248.48476124791665,249.18447371666664,79.0,114.0
244,249.17441624791664,252.62269124791666,77.0,116.0
245,252.62269124791666,253.31234624791665,79.0,113.0
246,253.31234624791665,253.65573696666667,82.0,113.0
247,253.65717374791666,254.69165624791665,82.0,117.0
248,254.69165624791665,255.03049702916664,79.0,110.0
249,255.03049702916664,255.36383002916665,82.0,114.0
250,255.36383002916665,255.69716302916663,84.0,117.0
251,255.69716302916663,256.0304960291666,87.0,87.0
252,256.0304960291666,257.0304950291666,84.0,100.0
253,257.0304950291666,257.35543553333326,79.0,100.0
254,257.35543553333326,257.9937325333333,82.0,116.0
255,257.9937325333333,258.6320295333333,79.0,114.0
256,258.6320295333333,259.2703265333333,77.0,116.0
257,259.2703265333333,261.0256432833333,75.0,114.0
258,261.0256432833333,261.3676017208333,72.0,113.0
259,261.3676017208333,262.6028952208333,70.0,114.0
260,262.6028952208333,262.9558362208333,72.0,117.0
261,262.9558362208333,263.3087772208333,75.0,113.0
262,263.3087772208333,263.6617182208333,77.0,117.0
263,263.6617182208333,264.0146592208333,79.0,117.0
264,264.0146592208333,265.0734822208333,77.0,119.0
265,265.0734822208333,265.4249526333333,75.0,116.0
266,265.4264232208333,269.1323037208333,75.0,120.0
267,269.1323037208333,270.01465622083333,72.0,113.0
268,270.01465622083333,271.7793612208333,70.0,114.0
269,271.7793612208333,272.1323022208333,72.0,109.0
270,272.1323022208333,272.4852432208333,75.0,88.0
271,272.4852432208333,272.8381842208333,77.0,96.0
272,272.8381842208333,273.1911252208333,79.0,109.0
273,273.1911252208333,275.4852417208333,77.0,113.0
274,275.4852417208333,275.8367121333333,75.0,104.0
275,275.8381827208333,278.0690639583333,75.0,107.0
