,start,end,pitch,velocity
0,5.1775,5.33375,48.0,76.0
1,5.4775,5.60375,43.0,92.0
2,5.7775,5.925,46.0,102.0
3,6.077500000000001,6.18375,48.0,76.0
4,6.3775,6.51875,46.0,99.0
5,6.6775,6.8125,48.0,80.0
6,6.9775,7.125,46.0,87.0
7,5.1775,7.4350000000000005,67.0,79.0
8,5.1775,7.44125,72.0,83.0
9,7.2775,7.45125,43.0,100.0
10,7.577500000000001,7.71875,48.0,84.0
11,7.8775,8.045,43.0,84.0
12,8.1775,8.33625,46.0,82.0
13,8.477500000000001,8.60375,48.0,84.0
14,8.7775,8.93,46.0,102.0
15,9.0775,9.2425,43.0,97.0
16,7.577500000000001,9.455,75.0,73.0
17,7.577500000000001,9.49,67.0,76.0
18,7.577500000000001,9.49875,72.0,80.0
19,9.3775,9.53,41.0,94.0
20,7.577500000000001,9.5875,60.0,74.0
21,9.6775,9.84125,43.0,94.0
22,9.977500000000001,10.133750000000001,48.0,76.0
23,10.2775,10.40375,43.0,92.0
24,10.5775,10.725,46.0,102.0
25,10.8775,10.98375,48.0,76.0
26,11.1775,11.31875,46.0,99.0
27,11.477500000000001,11.6125,48.0,80.0
28,11.7775,11.925,46.0,87.0
29,9.977500000000001,12.092500000000001,72.0,69.0
30,9.977500000000001,12.09625,67.0,75.0
31,9.977500000000001,12.17875,60.0,77.0
32,12.0775,12.25125,43.0,100.0
33,12.3775,12.51875,48.0,84.0
34,12.6775,12.845,43.0,84.0
35,12.977500000000001,13.13625,46.0,82.0
36,13.2775,13.40375,48.0,84.0
37,13.5775,13.73,46.0,102.0
38,12.3775,13.85,67.0,71.0
39,13.8775,14.0425,43.0,97.0
40,12.3775,14.0625,72.0,79.0
41,13.8775,14.08375,67.0,65.0
42,14.1775,14.33,41.0,94.0
43,14.1775,14.383750000000001,67.0,76.0
44,12.3775,14.635,60.0,76.0
45,14.477500000000001,14.64125,43.0,94.0
46,14.1775,14.651250000000001,75.0,86.0
47,14.1775,14.715,72.0,86.0
48,14.477500000000001,14.790000000000001,67.0,77.0
49,14.7775,14.93375,48.0,76.0
50,15.0775,15.20375,43.0,92.0
51,15.3775,15.525,46.0,102.0
52,15.6775,15.78375,48.0,76.0
53,15.977500000000001,16.11875,46.0,99.0
54,15.3775,16.135,67.0,80.0
55,15.3775,16.3275,72.0,84.0
56,16.2775,16.4125,48.0,80.0
57,16.2775,16.4625,67.0,73.0
58,16.5775,16.65,67.0,58.0
59,16.5775,16.725,46.0,87.0
60,16.5775,16.93875,72.0,85.0
61,16.5775,16.94625,75.0,84.0
62,16.8775,16.9625,67.0,52.0
63,14.7775,16.96625,60.0,85.0
64,16.8775,17.05125,43.0,100.0
65,17.177500000000002,17.31875,48.0,84.0
66,17.4775,17.645,43.0,84.0
67,17.7775,17.93625,46.0,82.0
68,18.0775,18.20375,48.0,84.0
69,18.3775,18.53,46.0,102.0
70,17.177500000000002,18.545,67.0,73.0
71,17.177500000000002,18.7825,72.0,80.0
72,18.677500000000002,18.81375,67.0,73.0
73,18.677500000000002,18.8425,43.0,97.0
74,18.9775,19.13,41.0,94.0
75,18.9775,19.13625,67.0,81.0
76,19.2775,19.44125,43.0,94.0
77,17.177500000000002,19.51125,60.0,83.0
78,18.9775,19.52,75.0,84.0
79,19.2775,19.525000000000002,67.0,83.0
80,18.9775,19.525000000000002,72.0,86.0
81,19.5775,19.73375,48.0,76.0
82,19.8775,20.00375,43.0,92.0
83,20.177500000000002,20.325,46.0,102.0
84,20.4775,20.583750000000002,48.0,76.0
85,20.7775,20.91875,46.0,99.0
86,21.0775,21.212500000000002,48.0,80.0
87,21.3775,21.525000000000002,46.0,87.0
88,19.5775,21.835,67.0,79.0
89,19.5775,21.84125,72.0,83.0
90,21.677500000000002,21.85125,43.0,100.0
91,21.9775,22.118750000000002,48.0,84.0
92,22.2775,22.445,43.0,84.0
93,22.5775,22.736250000000002,46.0,82.0
94,22.8775,23.00375,48.0,84.0
95,23.177500000000002,23.330000000000002,46.0,102.0
96,23.4775,23.642500000000002,43.0,97.0
97,21.9775,23.855,75.0,73.0
98,21.9775,23.89,67.0,76.0
99,21.9775,23.89875,72.0,80.0
100,23.7775,23.93,41.0,94.0
101,21.9775,23.9875,60.0,74.0
102,24.0775,24.24125,43.0,94.0
103,24.3775,24.53375,48.0,76.0
104,24.677500000000002,24.80375,43.0,92.0
105,24.9775,25.125,46.0,102.0
106,25.2775,25.38375,48.0,76.0
107,25.5775,25.71875,46.0,99.0
108,25.8775,26.0125,48.0,80.0
109,26.177500000000002,26.325,46.0,87.0
110,24.3775,26.4925,72.0,69.0
111,24.3775,26.49625,67.0,75.0
112,24.3775,26.57875,60.0,77.0
113,26.4775,26.65125,43.0,100.0
114,26.7775,26.91875,48.0,84.0
115,27.0775,27.245,43.0,84.0
116,27.3775,27.53625,46.0,82.0
117,27.677500000000002,27.80375,48.0,84.0
118,27.9775,28.13,46.0,102.0
119,26.7775,28.25,67.0,71.0
120,28.2775,28.4425,43.0,97.0
121,26.7775,28.462500000000002,72.0,79.0
122,28.2775,28.48375,67.0,65.0
123,28.5775,28.73,41.0,94.0
124,28.5775,28.78375,67.0,76.0
125,26.7775,29.035,60.0,76.0
126,28.8775,29.04125,43.0,94.0
127,28.5775,29.05125,75.0,86.0
128,28.5775,29.115000000000002,72.0,86.0
129,28.8775,29.19,67.0,77.0
130,29.21875,31.5,43.0,78.0
131,29.21875,31.5,55.0,78.0
132,29.115000000000002,31.51875,39.0,68.0
133,29.153750000000002,31.51875,39.0,65.0
134,29.115000000000002,31.51875,51.0,68.0
135,29.302500000000002,31.51875,51.0,63.0
136,29.26125,31.521250000000002,46.0,57.0
137,29.26125,31.521250000000002,58.0,57.0
138,29.153750000000002,31.5225,27.0,65.0
139,29.302500000000002,31.56625,63.0,63.0
140,31.5775,31.7575,48.0,92.0
141,31.8775,32.0275,43.0,102.0
142,32.1775,32.33375,46.0,99.0
143,32.480000000000004,32.6275,48.0,92.0
144,32.78,32.93,46.0,105.0
145,31.5775,33.21625,63.0,83.0
146,33.08,33.2275,43.0,73.0
147,31.5775,33.2425,67.0,80.0
148,33.38,33.5575,46.0,105.0
149,33.3775,33.7575,63.0,82.0
150,33.3775,33.7975,72.0,78.0
151,33.3775,33.80375,67.0,81.0
152,33.68,33.82125,43.0,105.0
153,33.980000000000004,34.16625,43.0,87.0
154,34.28,34.42375,38.0,97.0
155,34.58,34.715,41.0,100.0
156,34.88,35.00875,43.0,94.0
157,35.18,35.323750000000004,41.0,100.0
158,35.480000000000004,35.595,43.0,92.0
159,33.9775,35.645,67.0,82.0
160,33.9775,35.6475,62.0,75.0
161,33.9775,35.6525,70.0,83.0
162,35.78,35.95375,46.0,105.0
163,35.7775,36.11625,67.0,83.0
164,35.7775,36.135,62.0,82.0
165,36.08,36.20375,43.0,92.0
166,35.7775,36.206250000000004,70.0,84.0
167,36.38,36.54875,44.0,93.0
168,36.68,36.85125,39.0,102.0
169,36.980000000000004,37.1,44.0,102.0
170,37.28,37.42,46.0,96.0
171,37.58,37.706250000000004,44.0,96.0
172,37.88,38.00625,39.0,96.0
173,36.3775,38.04125,68.0,76.0
174,36.3775,38.042500000000004,63.0,79.0
175,38.18,38.3725,44.0,93.0
176,38.1775,38.4225,68.0,84.0
177,38.1775,38.4375,63.0,85.0
178,38.480000000000004,38.65125,39.0,85.0
179,38.78,38.9275,43.0,82.0
180,39.08,39.206250000000004,38.0,94.0
181,39.38,39.503750000000004,41.0,92.0
182,39.68,39.823750000000004,43.0,80.0
183,38.7775,39.85875,62.0,86.0
184,38.7775,39.86375,67.0,85.0
185,39.980000000000004,40.11875,41.0,94.0
186,40.28,40.42125,38.0,92.0
187,39.9775,40.48625,62.0,81.0
188,39.9775,40.48625,67.0,82.0
189,39.9775,40.4925,71.0,83.0
190,40.58,40.7425,41.0,84.0
191,40.88,41.0,43.0,84.0
192,40.5775,41.06125,62.0,81.0
193,40.5775,41.066250000000004,67.0,82.0
194,41.18,41.36,48.0,92.0
195,41.480000000000004,41.63,43.0,102.0
196,41.78,41.93625,46.0,99.0
197,42.08,42.2275,48.0,92.0
198,42.38,42.53,46.0,105.0
199,41.1775,42.816250000000004,63.0,83.0
200,42.68,42.8275,43.0,73.0
201,41.1775,42.8425,67.0,80.0
202,42.980000000000004,43.1575,46.0,105.0
203,42.9775,43.3575,63.0,82.0
204,42.9775,43.3975,72.0,78.0
205,42.9775,43.40375,67.0,81.0
206,43.28,43.42125,43.0,105.0
207,43.58,43.76625,43.0,87.0
208,43.88,44.02375,38.0,97.0
209,44.18,44.315,41.0,100.0
210,44.480000000000004,44.60875,43.0,94.0
211,44.78,44.92375,41.0,100.0
212,45.08,45.195,43.0,92.0
213,43.5775,45.245,67.0,82.0
214,43.5775,45.2475,62.0,75.0
215,43.5775,45.2525,70.0,83.0
216,45.38,45.55375,46.0,105.0
217,45.3775,45.71625,67.0,83.0
218,45.3775,45.735,62.0,82.0
219,45.68,45.80375,43.0,92.0
220,45.3775,45.80625,70.0,84.0
221,45.980000000000004,46.14875,44.0,93.0
222,46.28,46.45125,39.0,102.0
223,46.58,46.7,44.0,102.0
224,46.88,47.02,46.0,96.0
225,47.18,47.30625,44.0,96.0
226,47.480000000000004,47.60625,39.0,96.0
227,45.9775,47.64125,68.0,76.0
228,45.9775,47.6425,63.0,79.0
229,47.78,47.972500000000004,44.0,93.0
230,47.7775,48.0225,68.0,84.0
231,47.7775,48.0375,63.0,85.0
232,48.08,48.25125,46.0,85.0
233,48.38,48.54875,43.0,102.0
234,48.68,48.8425,38.0,105.0
235,48.980000000000004,49.1275,41.0,97.0
236,49.28,49.40875,43.0,87.0
237,48.3775,49.45875,62.0,86.0
238,48.3775,49.463750000000005,67.0,85.0
239,49.58,49.715,41.0,97.0
240,49.88,50.02375,38.0,94.0
241,49.5775,50.08625,62.0,81.0
242,49.5775,50.08625,67.0,82.0
243,49.5775,50.0925,71.0,83.0
244,50.18,50.345,36.0,105.0
245,50.480000000000004,50.6425,38.0,84.0
246,50.1775,50.66125,62.0,81.0
247,50.1775,50.66625,67.0,82.0
248,50.78,50.9425,36.0,92.0
249,50.7775,51.04375,67.0,76.0
250,50.7775,51.0475,72.0,79.0
251,50.7775,51.05625,75.0,78.0
252,51.08,51.22375,31.0,82.0
253,51.2275,51.32,75.0,81.0
254,51.2275,51.32125,72.0,81.0
255,51.2275,51.33,67.0,74.0
256,51.38,51.557500000000005,34.0,96.0
257,51.68,51.8275,36.0,89.0
258,51.6775,52.06,72.0,79.0
259,51.6775,52.0625,67.0,73.0
260,51.6775,52.07125,75.0,79.0
261,51.980000000000004,52.1375,36.0,97.0
262,52.1275,52.26,72.0,79.0
263,52.1275,52.27,75.0,80.0
264,52.1275,52.27125,67.0,74.0
265,52.28,52.472500000000004,34.0,96.0
266,52.58,52.8525,36.0,108.0
267,52.5775,53.04,67.0,78.0
268,52.5775,53.05375,72.0,81.0
269,52.5775,53.05625,75.0,80.0
270,53.18,53.52125,55.0,92.0
271,53.18,53.5275,67.0,94.0
272,53.18,53.66875,43.0,111.0
273,53.78,54.23875,56.0,99.0
274,53.78,54.268750000000004,68.0,90.0
275,53.78,54.28375,44.0,116.0
276,54.38,54.8325,57.0,100.0
277,54.38,54.85,45.0,114.0
278,54.38,54.862500000000004,69.0,108.0
279,54.980000000000004,55.4925,59.0,102.0
280,54.980000000000004,55.49875,71.0,102.0
281,54.980000000000004,55.51375,47.0,117.0
282,55.5775,55.706250000000004,36.0,94.0
283,55.88,56.0475,31.0,85.0
284,55.5775,56.05625,60.0,97.0
285,55.5775,56.08,63.0,90.0
286,55.5775,56.105000000000004,55.0,87.0
287,56.18,56.338750000000005,34.0,99.0
288,56.18,56.53375,60.0,92.0
289,56.18,56.56375,63.0,93.0
290,56.480000000000004,56.59125,55.0,33.0
291,56.480000000000004,56.60375,36.0,85.0
292,56.78,56.8375,55.0,66.0
293,56.78,56.90375,60.0,94.0
294,56.78,56.92125,63.0,79.0
295,56.78,56.92875,34.0,105.0
296,57.08,57.215,55.0,37.0
297,57.08,57.245000000000005,31.0,89.0
298,57.38,57.48875,55.0,97.0
299,55.5775,57.54125,48.0,100.0
300,57.38,57.56125,34.0,105.0
301,57.38,57.70125,60.0,111.0
302,57.38,57.73375,63.0,102.0
303,57.68,57.82125,55.0,80.0
304,57.68,57.845,31.0,97.0
305,58.28,58.40875,36.0,84.0
306,57.980000000000004,58.48875,60.0,94.0
307,57.980000000000004,58.5075,53.0,82.0
308,57.980000000000004,58.5075,56.0,90.0
309,57.980000000000004,58.7075,41.0,94.0
310,58.58,58.72125,39.0,99.0
311,58.58,59.0,60.0,100.0
312,58.58,59.011250000000004,56.0,102.0
313,58.88,59.02375,41.0,87.0
314,58.88,59.081250000000004,53.0,49.0
315,59.18,59.22875,53.0,40.0
316,59.18,59.31875,39.0,105.0
317,59.480000000000004,59.61875,36.0,92.0
318,59.18,59.665,60.0,89.0
319,59.480000000000004,59.67875,53.0,52.0
320,59.18,59.68,56.0,79.0
321,59.78,59.96,39.0,99.0
322,59.78,59.96625,53.0,94.0
323,59.78,60.17625,56.0,105.0
324,60.08,60.245000000000005,36.0,100.0
325,59.78,60.275,60.0,105.0
326,60.08,60.2875,53.0,73.0
327,60.38,60.575,44.0,91.0
328,60.38,60.682500000000005,56.0,79.0
329,60.38,60.682500000000005,60.0,89.0
330,60.68,60.83,39.0,87.0
331,60.980000000000004,61.136250000000004,44.0,72.0
332,61.28,61.4125,39.0,63.0
333,60.68,61.49125,51.0,32.0
334,61.58,61.730000000000004,44.0,90.0
335,60.980000000000004,61.81,60.0,100.0
336,60.980000000000004,61.83,56.0,99.0
337,60.980000000000004,61.980000000000004,63.0,96.0
338,61.88,62.02125,39.0,87.0
339,62.18,62.33375,44.0,96.0
340,62.18,62.362500000000004,56.0,99.0
341,61.88,62.628750000000004,51.0,41.0
342,62.480000000000004,62.63,39.0,96.0
343,62.18,62.698750000000004,60.0,100.0
344,62.480000000000004,62.7175,56.0,70.0
345,62.18,62.7675,63.0,102.0
346,62.78,62.93,43.0,89.0
347,63.08,63.25125,38.0,84.0
348,63.38,63.52125,41.0,100.0
349,63.08,63.5225,50.0,47.0
350,63.68,63.80875,43.0,97.0
351,63.38,63.831250000000004,55.0,97.0
352,63.38,63.846250000000005,59.0,105.0
353,63.38,63.9225,62.0,102.0
354,63.980000000000004,64.0975,55.0,64.0
355,63.980000000000004,64.10625,41.0,108.0
356,64.28,64.40875,38.0,94.0
357,64.28,64.45375,55.0,82.0
358,63.68,64.71375,50.0,66.0
359,64.58,64.73375,41.0,105.0
360,64.58,64.94,59.0,105.0
361,64.58,64.95625,55.0,100.0
362,64.58,64.98125,62.0,105.0
363,64.88,65.03625,43.0,94.0
364,64.88,65.05375000000001,50.0,78.0
365,65.18,65.36875,36.0,94.0
366,65.18,65.39,55.0,82.0
367,65.18,65.645,60.0,94.0
368,65.48,65.66,31.0,53.0
369,65.48,65.6825,55.0,51.0
370,65.78,65.94500000000001,34.0,85.0
371,65.78,65.98375,55.0,80.0
372,65.78,66.20875,60.0,111.0
373,66.08,66.22375,36.0,87.0
374,65.78,66.24125000000001,63.0,99.0
375,66.08,66.26625,55.0,51.0
376,66.38,66.43625,55.0,49.0
377,66.38,66.54875,34.0,96.0
378,66.68,66.83,31.0,80.0
379,66.38,66.85,60.0,92.0
380,66.38,66.8725,63.0,72.0
381,66.68,66.875,55.0,48.0
382,66.98,67.1125,55.0,100.0
383,66.98,67.14875,34.0,99.0
384,66.98,67.30125,60.0,111.0
385,66.98,67.33625,63.0,99.0
386,67.28,67.415,31.0,94.0
387,65.18,67.42,48.0,97.0
388,67.28,67.43,55.0,76.0
389,67.58,67.76875,41.0,82.0
390,67.58,67.99375,60.0,80.0
391,67.58,67.995,53.0,60.0
392,67.88,68.015,36.0,94.0
393,67.58,68.02375,56.0,82.0
394,68.18,68.33375,39.0,99.0
395,67.88,68.49375,48.0,44.0
396,68.48,68.6275,41.0,82.0
397,68.48,68.86625000000001,53.0,37.0
398,68.78,68.93125,39.0,102.0
399,68.18,69.12875,56.0,105.0
400,68.18,69.14875,60.0,102.0
401,69.08,69.22125,36.0,89.0
402,69.08,69.25750000000001,53.0,67.0
403,69.38,69.53625,53.0,89.0
404,69.38,69.5575,39.0,90.0
405,68.78,69.7025,48.0,52.0
406,69.68,69.81875000000001,36.0,87.0
407,69.38,69.8475,60.0,100.0
408,69.38,69.88625,56.0,102.0
409,69.68,69.94125,53.0,82.0
410,69.98,70.15,44.0,59.0
411,70.28,70.43625,39.0,70.0
412,70.58,70.73875,44.0,90.0
413,70.88,71.02125,39.0,82.0
414,70.58,71.275,56.0,93.0
415,70.58,71.3075,60.0,92.0
416,71.18,71.32125,44.0,93.0
417,70.58,71.365,63.0,87.0
418,71.48,71.54625,63.0,1.0
419,71.48,71.60875,39.0,79.0
420,71.48,71.6925,56.0,68.0
421,71.78,71.93,44.0,85.0
422,71.78,71.96000000000001,56.0,96.0
423,71.78,72.2025,60.0,100.0
424,72.08,72.20375,39.0,99.0
425,70.28,72.22625000000001,51.0,54.0
426,72.08,72.23375,56.0,48.0
427,71.78,72.235,63.0,96.0
428,72.38,72.50375,43.0,92.0
429,72.68,72.80625,38.0,92.0
430,72.38,72.84125,55.0,87.0
431,72.38,72.85000000000001,62.0,46.0
432,72.38,72.88875,59.0,102.0
433,72.98,73.11875,41.0,94.0
434,72.98,73.2025,55.0,87.0
435,73.28,73.44625,43.0,82.0
436,73.28,73.64,55.0,71.0
437,73.58,73.73375,41.0,94.0
438,72.98,73.91250000000001,62.0,94.0
439,72.98,73.99875,59.0,105.0
440,73.88,74.0275,38.0,82.0
441,73.88,74.0725,55.0,52.0
442,74.18,74.33875,41.0,89.0
443,74.18,74.34875,55.0,94.0
444,74.48,74.62125,38.0,89.0
445,73.58,74.62875,50.0,53.0
446,74.18,74.63250000000001,62.0,100.0
447,74.48,74.66,55.0,58.0
448,74.18,74.66875,59.0,105.0
449,74.78,74.92875000000001,43.0,67.0
450,74.78,75.18125,62.0,89.0
451,74.78,75.1875,55.0,71.0
452,74.78,75.2175,59.0,89.0
453,75.08,75.21875,38.0,84.0
454,75.38,75.5125,41.0,94.0
455,75.08,75.53750000000001,50.0,52.0
456,75.38,75.5625,55.0,84.0
457,75.68,75.80875,43.0,87.0
458,75.68,76.075,55.0,78.0
459,75.98,76.115,41.0,94.0
460,75.38,76.41375000000001,62.0,92.0
461,76.28,76.415,38.0,92.0
462,75.38,76.4575,59.0,97.0
463,76.28,76.4925,55.0,48.0
464,76.58,76.73875,41.0,94.0
465,76.88,77.075,38.0,92.0
466,76.58,77.0775,62.0,92.0
467,76.58,77.08,59.0,94.0
468,76.88,77.08125,55.0,47.0
469,75.98,77.10000000000001,50.0,58.0
470,77.18,77.33625,55.0,69.0
471,77.18,77.3575,62.0,84.0
472,77.18,77.3675,59.0,84.0
473,77.18,77.4025,43.0,94.0
474,78.38,80.6275,36.0,85.0
475,78.38,80.66125,55.0,80.0
476,78.38,80.67625,60.0,97.0
477,78.38,80.69625,48.0,92.0
478,80.78,80.93625,48.0,76.0
479,80.78,80.93625,48.0,76.0
480,80.7775,81.15,60.0,75.0
481,80.7775,81.165,63.0,73.0
482,81.08,81.20625,43.0,92.0
483,81.08,81.20625,43.0,92.0
484,81.38,81.5275,46.0,102.0
485,81.38,81.5275,46.0,102.0
486,81.3775,81.58375,60.0,76.0
487,81.3775,81.605,67.0,76.0
488,81.3775,81.6275,63.0,83.0
489,81.68,81.78625,48.0,76.0
490,81.68,81.78625,48.0,76.0
491,81.98,82.12125,46.0,99.0
492,81.98,82.12125,46.0,99.0
493,81.9775,82.12125,63.0,77.0
494,81.9775,82.13250000000001,60.0,76.0
495,82.28,82.415,48.0,80.0
496,82.28,82.415,48.0,80.0
497,82.58,82.7275,46.0,87.0
498,82.58,82.7275,46.0,87.0
499,82.5775,82.76375,60.0,77.0
500,82.5775,82.86875,63.0,85.0
501,82.5775,82.88250000000001,67.0,77.0
502,80.7775,82.97125,36.0,80.0
503,82.8775,83.04875,55.0,75.0
504,82.88,83.05375000000001,43.0,100.0
505,82.88,83.05375000000001,43.0,100.0
506,83.18,83.32125,48.0,84.0
507,83.18,83.32125,48.0,84.0
508,83.1775,83.5875,67.0,76.0
509,83.1775,83.5975,60.0,77.0
510,83.1775,83.60875,63.0,81.0
511,83.48,83.64875,43.0,84.0
512,83.48,83.64875,43.0,84.0
513,83.78,83.93875,46.0,82.0
514,83.78,83.93875,46.0,82.0
515,83.7775,83.9525,60.0,77.0
516,83.7775,84.115,63.0,82.0
517,83.7775,84.14625,67.0,78.0
518,84.08,84.20625,48.0,84.0
519,84.08,84.20625,48.0,84.0
520,84.0775,84.39625,60.0,77.0
521,84.38,84.53375,46.0,102.0
522,84.38,84.53375,46.0,102.0
523,84.6775,84.80625,60.0,72.0
524,84.68,84.845,43.0,97.0
525,84.68,84.845,43.0,97.0
526,84.9775,85.075,60.0,73.0
527,84.98,85.13375,41.0,94.0
528,84.98,85.13375,41.0,94.0
529,84.9775,85.3025,63.0,78.0
530,84.9775,85.3275,67.0,75.0
531,84.3775,85.40625,55.0,71.0
532,85.2775,85.4325,60.0,75.0
533,85.28,85.44375000000001,43.0,94.0
534,85.28,85.44375000000001,43.0,94.0
535,83.1775,85.46000000000001,36.0,80.0
536,85.58,85.83,53.0,80.0
537,85.5775,86.00125,60.0,76.0
538,85.5775,86.01875,65.0,76.0
539,85.88,86.02375,48.0,94.0
540,86.18,86.33875,51.0,102.0
541,86.1775,86.50875,65.0,83.0
542,86.1775,86.53,68.0,81.0
543,86.48,86.6425,53.0,89.0
544,85.5775,86.8,41.0,78.0
545,86.4775,86.8375,60.0,80.0
546,86.78,86.93875,51.0,96.0
547,86.7775,87.135,65.0,72.0
548,87.08,87.215,53.0,92.0
549,87.0775,87.3,60.0,76.0
550,87.3775,87.49125000000001,60.0,77.0
551,87.38,87.515,51.0,102.0
552,87.3775,87.745,65.0,82.0
553,87.3775,87.78625,41.0,81.0
554,87.3775,87.82375,68.0,78.0
555,87.68,87.85125000000001,48.0,92.0
556,87.6775,87.88125000000001,60.0,80.0
557,87.98,88.12375,53.0,100.0
558,88.28,88.42375,48.0,87.0
559,87.9775,88.4525,60.0,77.0
560,87.9775,88.465,65.0,77.0
561,88.5775,88.62125,60.0,70.0
562,88.58,88.715,51.0,102.0
563,88.5775,88.9625,65.0,81.0
564,88.5775,88.98375,68.0,77.0
565,87.9775,89.00625000000001,41.0,77.0
566,88.88,89.02375,53.0,87.0
567,88.8775,89.06375,60.0,76.0
568,89.1775,89.31875000000001,60.0,76.0
569,89.18,89.345,51.0,99.0
570,89.1775,89.635,65.0,76.0
571,89.48,89.64875,48.0,80.0
572,89.4775,89.65375,60.0,67.0
573,89.7775,89.87375,60.0,77.0
574,89.78,89.95125,51.0,102.0
575,89.7775,90.25125,68.0,81.0
576,90.08,90.25750000000001,53.0,89.0
577,89.7775,90.2625,65.0,83.0
578,90.0775,90.26375,60.0,78.0
579,89.1775,90.315,41.0,73.0
580,90.38,90.785,55.0,94.0
581,90.38,90.785,63.0,87.0
582,90.38,90.8,48.0,105.0
583,90.38,90.8,60.0,97.0
584,90.38,90.82000000000001,67.0,82.0
585,91.88,92.05125,48.0,111.0
586,91.88,92.08125,55.0,89.0
587,91.88,92.0875,60.0,94.0
588,91.88,92.09,67.0,84.0
589,91.88,92.0925,63.0,96.0
590,92.18,92.3875,60.0,100.0
591,92.18,92.3925,63.0,102.0
592,92.18,92.40375,67.0,94.0
593,92.18,92.4175,48.0,114.0
594,92.18,92.4275,55.0,94.0
595,92.78,93.68125,56.0,57.0
596,92.78,93.6875,53.0,76.0
597,92.78,93.69,60.0,100.0
598,92.78,93.80375000000001,41.0,105.0
599,93.98,94.7525,62.0,87.0
600,93.98,94.76125,59.0,100.0
601,93.98,94.94375000000001,55.0,78.0
602,93.98,95.0975,43.0,108.0
603,95.18,97.485,55.0,87.0
604,95.18,97.50375,60.0,94.0
605,95.18,97.515,63.0,79.0
606,95.18,97.52375,48.0,114.0
607,95.18,97.52375,67.0,89.0
608,97.5775,97.75750000000001,48.0,92.0
609,97.8775,98.0275,43.0,102.0
610,98.17750000000001,98.33375000000001,46.0,99.0
611,98.48,98.6275,48.0,92.0
612,98.78,98.93,46.0,105.0
613,97.5775,99.21625,63.0,83.0
614,99.08,99.2275,43.0,73.0
615,97.5775,99.2425,67.0,80.0
616,99.38,99.5575,46.0,105.0
617,99.3775,99.75750000000001,63.0,82.0
618,99.3775,99.7975,72.0,78.0
619,99.3775,99.80375000000001,67.0,81.0
620,99.68,99.82125,43.0,105.0
621,99.98,100.16625,43.0,87.0
622,100.28,100.42375,38.0,97.0
623,100.58,100.715,41.0,100.0
624,100.88,101.00875,43.0,94.0
625,101.18,101.32375,41.0,100.0
626,101.48,101.595,43.0,92.0
627,99.9775,101.645,67.0,82.0
628,99.9775,101.64750000000001,62.0,75.0
629,99.9775,101.6525,70.0,83.0
630,101.78,101.95375,46.0,105.0
631,101.7775,102.11625000000001,67.0,83.0
632,101.7775,102.135,62.0,82.0
633,102.08,102.20375,43.0,92.0
634,101.7775,102.20625,70.0,84.0
635,102.38,102.54875,44.0,93.0
636,102.68,102.85125000000001,39.0,102.0
637,102.98,103.10000000000001,44.0,102.0
638,103.28,103.42,46.0,96.0
639,103.58,103.70625,44.0,96.0
640,103.88,104.00625000000001,39.0,96.0
641,102.3775,104.04125,68.0,76.0
642,102.3775,104.0425,63.0,79.0
643,104.18,104.3725,44.0,93.0
644,104.17750000000001,104.4225,68.0,84.0
645,104.17750000000001,104.4375,63.0,85.0
646,104.48,104.65125,39.0,85.0
647,104.78,104.92750000000001,43.0,82.0
648,105.08,105.20625,38.0,94.0
649,105.38,105.50375,41.0,92.0
650,105.68,105.82375,43.0,80.0
651,104.7775,105.85875,62.0,86.0
652,104.7775,105.86375,67.0,85.0
653,105.98,106.11875,41.0,94.0
654,106.28,106.42125,38.0,92.0
655,105.9775,106.48625,62.0,81.0
656,105.9775,106.48625,67.0,82.0
657,105.9775,106.4925,71.0,83.0
658,106.58,106.7425,41.0,84.0
659,106.88,107.0,43.0,84.0
660,106.5775,107.06125,62.0,81.0
661,106.5775,107.06625,67.0,82.0
662,107.18,107.36,48.0,92.0
663,107.48,107.63,43.0,102.0
664,107.78,107.93625,46.0,99.0
665,108.08,108.2275,48.0,92.0
666,108.38,108.53,46.0,105.0
667,107.17750000000001,108.81625,63.0,83.0
668,108.68,108.8275,43.0,73.0
669,107.17750000000001,108.8425,67.0,80.0
670,108.98,109.1575,46.0,105.0
671,108.9775,109.3575,63.0,82.0
672,108.9775,109.39750000000001,72.0,78.0
673,108.9775,109.40375,67.0,81.0
674,109.28,109.42125,43.0,105.0
675,109.58,109.76625,43.0,87.0
676,109.88,110.02375,38.0,97.0
677,110.18,110.315,41.0,100.0
678,110.48,110.60875,43.0,94.0
679,110.78,110.92375,41.0,100.0
680,111.08,111.19500000000001,43.0,92.0
681,109.5775,111.245,67.0,82.0
682,109.5775,111.2475,62.0,75.0
683,109.5775,111.2525,70.0,83.0
684,111.38,111.55375000000001,46.0,105.0
685,111.3775,111.71625,67.0,83.0
686,111.3775,111.735,62.0,82.0
687,111.68,111.80375000000001,43.0,92.0
688,111.3775,111.80625,70.0,84.0
689,111.98,112.14875,44.0,93.0
690,112.28,112.45125,39.0,102.0
691,112.58,112.7,44.0,102.0
692,112.88,113.02,46.0,96.0
693,113.18,113.30625,44.0,96.0
694,113.48,113.60625,39.0,96.0
695,111.9775,113.64125,68.0,76.0
696,111.9775,113.6425,63.0,79.0
697,113.78,113.9725,44.0,93.0
698,113.7775,114.02250000000001,68.0,84.0
699,113.7775,114.03750000000001,63.0,85.0
700,114.08,114.25125,46.0,85.0
701,114.38,114.54875,43.0,102.0
702,114.68,114.8425,38.0,105.0
703,114.98,115.1275,41.0,97.0
704,115.28,115.40875,43.0,87.0
705,114.3775,115.45875000000001,62.0,86.0
706,114.3775,115.46375,67.0,85.0
707,115.58,115.715,41.0,97.0
708,115.88,116.02375,38.0,94.0
709,115.5775,116.08625,62.0,81.0
710,115.5775,116.08625,67.0,82.0
711,115.5775,116.0925,71.0,83.0
712,116.18,116.345,36.0,105.0
713,116.48,116.6425,38.0,84.0
714,116.17750000000001,116.66125,62.0,81.0
715,116.17750000000001,116.66625,67.0,82.0
716,116.78,116.9425,36.0,92.0
717,116.7775,117.04375,67.0,76.0
718,116.7775,117.0475,72.0,79.0
719,116.7775,117.05625,75.0,78.0
720,117.08,117.22375,31.0,82.0
721,117.2275,117.32000000000001,75.0,81.0
722,117.2275,117.32125,72.0,81.0
723,117.2275,117.33,67.0,74.0
724,117.38,117.5575,34.0,96.0
725,117.68,117.8275,36.0,89.0
726,117.67750000000001,118.06,72.0,79.0
727,117.67750000000001,118.0625,67.0,73.0
728,117.67750000000001,118.07125,75.0,79.0
729,117.98,118.1375,36.0,97.0
730,118.1275,118.26,72.0,79.0
731,118.1275,118.27,75.0,80.0
732,118.1275,118.27125000000001,67.0,74.0
733,118.28,118.4725,34.0,96.0
734,118.58,118.8525,36.0,108.0
735,118.5775,119.04,67.0,78.0
736,118.5775,119.05375000000001,72.0,81.0
737,118.5775,119.05625,75.0,80.0
738,119.18,119.52125000000001,55.0,92.0
739,119.18,119.5275,67.0,94.0
740,119.18,119.66875,43.0,111.0
741,119.78,120.23875,56.0,99.0
742,119.78,120.26875,68.0,90.0
743,119.78,120.28375,44.0,116.0
744,120.38,120.8325,57.0,100.0
745,120.38,120.85000000000001,45.0,114.0
746,120.38,120.8625,69.0,108.0
747,120.98,121.4925,59.0,102.0
748,120.98,121.49875,71.0,102.0
749,120.98,121.51375,47.0,117.0
750,121.58,121.70875000000001,36.0,94.0
751,121.88,122.0475,31.0,85.0
752,121.58,122.06,60.0,97.0
753,121.58,122.08375000000001,63.0,90.0
754,121.58,122.1075,55.0,87.0
755,122.18,122.33875,34.0,99.0
756,122.18,122.53375,60.0,92.0
757,122.18,122.56375,63.0,93.0
758,122.48,122.59125,55.0,33.0
759,122.48,122.60375,36.0,85.0
760,122.78,122.8375,55.0,66.0
761,122.78,122.90375,60.0,94.0
762,122.78,122.92125,63.0,79.0
763,122.78,122.92875000000001,34.0,105.0
764,123.08,123.215,55.0,37.0
765,123.08,123.245,31.0,89.0
766,123.38000000000001,123.48875,55.0,97.0
767,121.58,123.54375,48.0,100.0
768,123.38000000000001,123.56125,34.0,105.0
769,123.38000000000001,123.70125,60.0,111.0
770,123.38000000000001,123.73375,63.0,102.0
771,123.68,123.82125,55.0,80.0
772,123.68,123.845,31.0,97.0
773,124.28,124.40875,36.0,84.0
774,123.98,124.48875,60.0,94.0
775,123.98,124.50750000000001,53.0,82.0
776,123.98,124.50750000000001,56.0,90.0
777,123.98,124.7075,41.0,94.0
778,124.58,124.72125,39.0,99.0
779,124.58,125.0,60.0,100.0
780,124.58,125.01125,56.0,102.0
781,124.88000000000001,125.02375,41.0,87.0
782,124.88000000000001,125.08125,53.0,49.0
783,125.18,125.22875,53.0,40.0
784,125.18,125.31875000000001,39.0,105.0
785,125.48,125.61875,36.0,92.0
786,125.18,125.665,60.0,89.0
787,125.48,125.67875000000001,53.0,52.0
788,125.18,125.68,56.0,79.0
789,125.78,125.96000000000001,39.0,99.0
790,125.78,125.96625,53.0,94.0
791,125.78,126.17625,56.0,105.0
792,126.08,126.245,36.0,100.0
793,125.78,126.275,60.0,105.0
794,126.08,126.28750000000001,53.0,73.0
795,126.38000000000001,126.575,44.0,91.0
796,126.38000000000001,126.6825,56.0,79.0
797,126.38000000000001,126.6825,60.0,89.0
798,126.68,126.83,39.0,87.0
799,126.98,127.13625,44.0,72.0
800,127.28,127.41250000000001,39.0,63.0
801,126.68,127.49125000000001,51.0,32.0
802,127.58,127.73,44.0,90.0
803,126.98,127.81,60.0,100.0
804,126.98,127.83,56.0,99.0
805,126.98,127.98,63.0,96.0
806,127.88000000000001,128.02125,39.0,87.0
807,128.18,128.33375,44.0,96.0
808,128.18,128.3625,56.0,99.0
809,127.88000000000001,128.62875,51.0,41.0
810,128.48,128.63,39.0,96.0
811,128.18,128.69875,60.0,100.0
812,128.48,128.7175,56.0,70.0
813,128.18,128.7675,63.0,102.0
814,128.78,128.93,43.0,89.0
815,129.08,129.25125,38.0,84.0
816,129.38,129.52125,41.0,100.0
817,129.08,129.5225,50.0,47.0
818,129.68,129.80875,43.0,97.0
819,129.38,129.83125,55.0,97.0
820,129.38,129.84625,59.0,105.0
821,129.38,129.9225,62.0,102.0
822,129.98,130.0975,55.0,64.0
823,129.98,130.10625,41.0,108.0
824,130.28,130.40875,38.0,94.0
825,130.28,130.45375,55.0,82.0
826,129.68,130.71375,50.0,66.0
827,130.58,130.73375000000001,41.0,105.0
828,130.58,130.94,59.0,105.0
829,130.58,130.95625,55.0,100.0
830,130.58,130.98125,62.0,105.0
831,130.88,131.03625,43.0,94.0
832,130.88,131.05375,50.0,78.0
833,131.18,131.36875,36.0,94.0
834,131.18,131.39000000000001,55.0,82.0
835,131.18,131.645,60.0,94.0
836,131.48,131.66,31.0,53.0
837,131.48,131.6825,55.0,51.0
838,131.78,131.945,34.0,85.0
839,131.78,131.98375000000001,55.0,80.0
840,131.78,132.20875,60.0,111.0
841,132.08,132.22375,36.0,87.0
842,131.78,132.24125,63.0,99.0
843,132.08,132.26625,55.0,51.0
844,132.38,132.43625,55.0,49.0
845,132.38,132.54875,34.0,96.0
846,132.68,132.83,31.0,80.0
847,132.38,132.85,60.0,92.0
848,132.38,132.8725,63.0,72.0
849,132.68,132.875,55.0,48.0
850,132.98,133.1125,55.0,100.0
851,132.98,133.14875,34.0,99.0
852,132.98,133.30125,60.0,111.0
853,132.98,133.33625,63.0,99.0
854,133.28,133.415,31.0,94.0
855,131.18,133.42000000000002,48.0,97.0
856,133.28,133.43,55.0,76.0
857,133.58,133.76875,41.0,82.0
858,133.58,133.99375,60.0,80.0
859,133.58,133.995,53.0,60.0
860,133.88,134.01500000000001,36.0,94.0
861,133.58,134.02375,56.0,82.0
862,134.18,134.33375,39.0,99.0
863,133.88,134.49375,48.0,44.0
864,134.48,134.6275,41.0,82.0
865,134.48,134.86625,53.0,37.0
866,134.78,134.93125,39.0,102.0
867,134.18,135.12875,56.0,105.0
868,134.18,135.14875,60.0,102.0
869,135.08,135.22125,36.0,89.0
870,135.08,135.2575,53.0,67.0
871,135.38,135.53625,53.0,89.0
872,135.38,135.5575,39.0,90.0
873,134.78,135.70250000000001,48.0,52.0
874,135.68,135.81875,36.0,87.0
875,135.38,135.8475,60.0,100.0
876,135.38,135.88625,56.0,102.0
877,135.68,135.94125,53.0,82.0
878,135.98,136.15,44.0,59.0
879,136.28,136.43625,39.0,70.0
880,136.58,136.73875,44.0,90.0
881,136.88,137.02125,39.0,82.0
882,136.58,137.275,56.0,93.0
883,136.58,137.3075,60.0,92.0
884,137.18,137.32125,44.0,93.0
885,136.58,137.365,63.0,87.0
886,137.48,137.54625000000001,63.0,1.0
887,137.48,137.60875000000001,39.0,79.0
888,137.48,137.6925,56.0,68.0
889,137.78,137.93,44.0,85.0
890,137.78,137.96,56.0,96.0
891,137.78,138.20250000000001,60.0,100.0
892,138.08,138.20375,39.0,99.0
893,136.28,138.22625,51.0,54.0
894,138.08,138.23375000000001,56.0,48.0
895,137.78,138.235,63.0,96.0
896,138.38,138.50375,43.0,92.0
897,138.68,138.80625,38.0,92.0
898,138.38,138.84125,55.0,87.0
899,138.38,138.85,62.0,46.0
900,138.38,138.88875000000002,59.0,102.0
901,138.98,139.11875,41.0,94.0
902,138.98,139.20250000000001,55.0,87.0
903,139.28,139.44625,43.0,82.0
904,139.28,139.64000000000001,55.0,71.0
905,139.58,139.73375000000001,41.0,94.0
906,138.98,139.9125,62.0,94.0
907,138.98,139.99875,59.0,105.0
908,139.88,140.0275,38.0,82.0
909,139.88,140.0725,55.0,52.0
910,140.18,140.33875,41.0,89.0
911,140.18,140.34875,55.0,94.0
912,140.48,140.62125,38.0,89.0
913,139.58,140.62875,50.0,53.0
914,140.18,140.6325,62.0,100.0
915,140.48,140.66,55.0,58.0
916,140.18,140.66875000000002,59.0,105.0
917,140.78,140.92875,43.0,67.0
918,140.78,141.18125,62.0,89.0
919,140.78,141.1875,55.0,71.0
920,140.78,141.2175,59.0,89.0
921,141.08,141.21875,38.0,84.0
922,141.38,141.51250000000002,41.0,94.0
923,141.08,141.5375,50.0,52.0
924,141.38,141.5625,55.0,84.0
925,141.68,141.80875,43.0,87.0
926,141.68,142.07500000000002,55.0,78.0
927,141.98,142.115,41.0,94.0
928,141.38,142.41375,62.0,92.0
929,142.28,142.415,38.0,92.0
930,141.38,142.4575,59.0,97.0
931,142.28,142.4925,55.0,48.0
932,142.58,142.73875,41.0,94.0
933,142.88,143.07500000000002,38.0,92.0
934,142.58,143.07750000000001,62.0,92.0
935,142.58,143.08,59.0,94.0
936,142.88,143.08125,55.0,47.0
937,141.98,143.1,50.0,58.0
938,143.18,143.33625,55.0,69.0
939,143.18,143.35750000000002,62.0,84.0
940,143.18,143.3675,59.0,84.0
941,143.18,143.4025,43.0,94.0
942,144.38,146.6275,36.0,85.0
943,144.38,146.66125,55.0,80.0
944,144.38,146.67625,60.0,97.0
945,144.38,146.69625,48.0,92.0
946,146.78,146.91875000000002,55.0,102.0
947,146.78,146.9225,51.0,90.0
948,146.78,146.9275,58.0,87.0
949,146.78,147.11875,39.0,109.0
950,147.08,147.17625,55.0,94.0
951,147.08,147.185,51.0,74.0
952,147.08,147.1975,58.0,79.0
953,147.38,147.46125,55.0,97.0
954,147.38,147.47625,51.0,87.0
955,147.38,147.48625,39.0,99.0
956,147.38,147.48625,58.0,90.0
957,147.68,147.77625,55.0,100.0
958,147.68,147.7825,51.0,96.0
959,147.68,147.79375000000002,58.0,96.0
960,147.98,148.0875,55.0,97.0
961,147.98,148.09,51.0,93.0
962,147.98,148.10875000000001,58.0,90.0
963,147.98,148.25875,39.0,102.0
964,148.28,148.37,55.0,100.0
965,148.28,148.38875000000002,51.0,85.0
966,148.28,148.40375,58.0,85.0
967,148.58,148.66125,55.0,100.0
968,148.58,148.67000000000002,51.0,96.0
969,148.58,148.69375,58.0,96.0
970,148.58,148.72375,39.0,102.0
971,148.88,148.98875,51.0,90.0
972,148.88,148.98875,55.0,100.0
973,148.88,149.01500000000001,58.0,85.0
974,149.18,149.2975,56.0,72.0
975,149.18,149.30625,51.0,79.0
976,149.18,149.3125,60.0,87.0
977,149.18,149.33,44.0,85.0
978,149.48,149.6,60.0,73.0
979,149.48,149.60625000000002,56.0,68.0
980,149.48,149.60875000000001,51.0,85.0
981,149.78,149.88875000000002,51.0,90.0
982,149.78,149.89125,56.0,87.0
983,149.78,149.90625,60.0,92.0
984,149.78,149.91875000000002,44.0,99.0
985,150.08,150.20000000000002,56.0,68.0
986,150.08,150.20375,51.0,82.0
987,150.08,150.20875,60.0,78.0
988,150.38,150.49125,56.0,87.0
989,150.38,150.5,51.0,99.0
990,150.38,150.50875,60.0,87.0
991,150.38,150.62875,44.0,99.0
992,150.68,150.7675,56.0,87.0
993,150.68,150.77625,51.0,90.0
994,150.68,150.785,60.0,80.0
995,150.98,151.07,56.0,77.0
996,150.98,151.07625000000002,51.0,82.0
997,150.98,151.085,60.0,80.0
998,150.98,151.12125,44.0,105.0
999,151.28,151.3825,56.0,93.0
1000,151.28,151.385,51.0,93.0
1001,151.28,151.40375,60.0,89.0
1002,151.58,151.68875,53.0,76.0
1003,151.58,151.69875,56.0,93.0
1004,151.58,151.70375,60.0,92.0
1005,151.58,151.72,41.0,92.0
1006,151.88,151.99125,53.0,82.0
1007,151.88,151.9975,56.0,102.0
1008,151.88,152.0,60.0,87.0
1009,152.18,152.28875,53.0,94.0
1010,152.18,152.29125,56.0,102.0
1011,152.18,152.3,60.0,94.0
1012,152.18,152.375,41.0,102.0
1013,152.48,152.59375,53.0,87.0
1014,152.48,152.59375,56.0,102.0
1015,152.48,152.60625000000002,60.0,87.0
1016,152.78,152.87,56.0,99.0
1017,152.78,152.87875,53.0,92.0
1018,152.78,152.885,60.0,87.0
1019,152.78,152.91875000000002,41.0,97.0
1020,153.08,153.18875,53.0,89.0
1021,153.08,153.18875,56.0,102.0
1022,153.08,153.1975,60.0,80.0
1023,153.38,153.485,53.0,92.0
1024,153.38,153.485,56.0,99.0
1025,153.38,153.49125,60.0,97.0
1026,153.38,153.53375,41.0,97.0
1027,153.68,153.80625,56.0,109.0
1028,153.68,153.80875,53.0,102.0
1029,153.68,153.815,60.0,102.0
1030,153.98,154.06,44.0,116.0
1031,153.98,154.1125,51.0,74.0
1032,153.98,154.115,56.0,59.0
1033,153.98,154.13,60.0,92.0
1034,154.28,154.4075,60.0,94.0
1035,154.28,154.4125,51.0,85.0
1036,154.28,154.415,56.0,82.0
1037,154.58,154.68875,44.0,112.0
1038,154.58,154.71875,51.0,99.0
1039,154.58,154.72375,56.0,99.0
1040,154.58,154.72375,60.0,92.0
1041,154.88,154.97625,56.0,77.0
1042,154.88,155.00375,60.0,87.0
1043,154.88,155.00625,51.0,87.0
1044,155.18,155.33625,55.0,102.0
1045,155.18,155.33875,50.0,92.0
1046,155.18,155.35375,43.0,105.0
1047,155.48,155.58875,55.0,94.0
1048,155.48,155.595,50.0,87.0
1049,155.48,155.63,59.0,80.0
1050,155.78,155.87375,55.0,102.0
1051,155.78,155.87625,50.0,102.0
1052,155.78,155.90125,59.0,100.0
1053,155.78,155.91375,43.0,111.0
1054,156.08,156.215,50.0,105.0
1055,156.08,156.22125,55.0,108.0
1056,156.08,156.2425,59.0,105.0
1057,156.38,156.48250000000002,55.0,73.0
1058,156.38,156.49125,50.0,76.0
1059,156.38,156.50375,59.0,84.0
1060,156.38,156.5675,43.0,108.0
1061,156.68,156.76875,55.0,97.0
1062,156.68,156.78625,50.0,94.0
1063,156.68,156.80375,59.0,92.0
1064,156.98,157.07,55.0,97.0
1065,156.98,157.07625000000002,50.0,92.0
1066,156.98,157.09375,59.0,97.0
1067,156.98,157.12125,43.0,111.0
1068,157.28,157.35875000000001,55.0,102.0
1069,157.28,157.37375,50.0,102.0
1070,157.28,157.38875000000002,59.0,102.0
1071,157.58,157.63750000000002,55.0,102.0
1072,157.58,157.64375,50.0,94.0
1073,157.58,157.6525,59.0,105.0
1074,157.58,157.655,43.0,120.0
1075,157.73,157.835,43.0,108.0
1076,157.73,157.84375,55.0,111.0
1077,157.73,157.85625000000002,50.0,102.0
1078,157.73,157.87125,59.0,114.0
1079,158.78,159.12125,55.0,92.0
1080,158.78,159.1275,67.0,94.0
1081,158.78,159.26875,43.0,111.0
1082,159.38,159.83875,56.0,99.0
1083,159.38,159.86875,68.0,90.0
1084,159.38,159.88375,44.0,116.0
1085,159.98,160.4325,57.0,100.0
1086,159.98,160.45000000000002,45.0,114.0
1087,159.98,160.4625,69.0,108.0
1088,160.58,161.0925,59.0,102.0
1089,160.58,161.09875,71.0,102.0
1090,160.58,161.11375,47.0,117.0
1091,161.18,161.30875,36.0,94.0
1092,161.48,161.6475,31.0,85.0
1093,161.18,161.66,60.0,97.0
1094,161.18,161.68375,63.0,90.0
1095,161.18,161.7075,55.0,87.0
1096,161.78,161.93875,34.0,99.0
1097,161.78,162.13375,60.0,92.0
1098,161.78,162.16375,63.0,93.0
1099,162.08,162.19125,55.0,33.0
1100,162.08,162.20375,36.0,85.0
1101,162.38,162.4375,55.0,66.0
1102,162.38,162.50375,60.0,94.0
1103,162.38,162.52125,63.0,79.0
1104,162.38,162.52875,34.0,105.0
1105,162.68,162.815,55.0,37.0
1106,162.68,162.845,31.0,89.0
1107,162.98,163.08875,55.0,97.0
1108,161.18,163.14375,48.0,100.0
1109,162.98,163.16125,34.0,105.0
1110,162.98,163.30125,60.0,111.0
1111,162.98,163.33375,63.0,102.0
1112,163.28,163.42125000000001,55.0,80.0
1113,163.28,163.445,31.0,97.0
1114,163.88,164.00875,36.0,84.0
1115,163.58,164.08875,60.0,94.0
1116,163.58,164.10750000000002,53.0,82.0
1117,163.58,164.10750000000002,56.0,90.0
1118,163.58,164.3075,41.0,94.0
1119,164.18,164.32125,39.0,99.0
1120,164.18,164.6,60.0,100.0
1121,164.18,164.61125,56.0,102.0
1122,164.48,164.62375,41.0,87.0
1123,164.48,164.68125,53.0,49.0
1124,164.78,164.82875,53.0,40.0
1125,164.78,164.91875000000002,39.0,105.0
1126,165.08,165.21875,36.0,92.0
1127,164.78,165.26500000000001,60.0,89.0
1128,165.08,165.27875,53.0,52.0
1129,164.78,165.28,56.0,79.0
1130,165.38,165.56,39.0,99.0
1131,165.38,165.56625,53.0,94.0
1132,165.38,165.77625,56.0,105.0
1133,165.68,165.845,36.0,100.0
1134,165.38,165.875,60.0,105.0
1135,165.68,165.88750000000002,53.0,73.0
1136,165.98,166.175,44.0,91.0
1137,165.98,166.2825,56.0,79.0
1138,165.98,166.2825,60.0,89.0
1139,166.28,166.43,39.0,87.0
1140,166.58,166.73625,44.0,72.0
1141,166.88,167.01250000000002,39.0,63.0
1142,166.28,167.09125,51.0,32.0
1143,167.18,167.33,44.0,90.0
1144,166.58,167.41,60.0,100.0
1145,166.58,167.43,56.0,99.0
1146,166.58,167.58,63.0,96.0
1147,167.48,167.62125,39.0,87.0
1148,167.78,167.93375,44.0,96.0
1149,167.78,167.9625,56.0,99.0
1150,167.48,168.22875,51.0,41.0
1151,168.08,168.23,39.0,96.0
1152,167.78,168.29875,60.0,100.0
1153,168.08,168.3175,56.0,70.0
1154,167.78,168.3675,63.0,102.0
1155,168.38,168.53,43.0,89.0
1156,168.68,168.85125,38.0,84.0
1157,168.98,169.12125,41.0,100.0
1158,168.68,169.1225,50.0,47.0
1159,169.28,169.40875,43.0,97.0
1160,168.98,169.43125,55.0,97.0
1161,168.98,169.44625,59.0,105.0
1162,168.98,169.5225,62.0,102.0
1163,169.58,169.6975,55.0,64.0
1164,169.58,169.70625,41.0,108.0
1165,169.88,170.00875,38.0,94.0
1166,169.88,170.05375,55.0,82.0
1167,169.28,170.31375,50.0,66.0
1168,170.18,170.33375,41.0,105.0
1169,170.18,170.54,59.0,105.0
1170,170.18,170.55625,55.0,100.0
1171,170.18,170.58125,62.0,105.0
1172,170.48,170.63625,43.0,94.0
1173,170.48,170.65375,50.0,78.0
1174,170.78,170.96875,36.0,94.0
1175,170.78,170.99,55.0,82.0
1176,170.78,171.245,60.0,94.0
1177,171.08,171.26,31.0,53.0
1178,171.08,171.2825,55.0,51.0
1179,171.38,171.54500000000002,34.0,85.0
1180,171.38,171.58375,55.0,80.0
1181,171.38,171.80875,60.0,111.0
1182,171.68,171.82375,36.0,87.0
1183,171.38,171.84125,63.0,99.0
1184,171.68,171.86625,55.0,51.0
1185,171.98,172.03625,55.0,49.0
1186,171.98,172.14875,34.0,96.0
1187,172.28,172.43,31.0,80.0
1188,171.98,172.45000000000002,60.0,92.0
1189,171.98,172.4725,63.0,72.0
1190,172.28,172.475,55.0,48.0
1191,172.58,172.7125,55.0,100.0
1192,172.58,172.74875,34.0,99.0
1193,172.58,172.90125,60.0,111.0
1194,172.58,172.93625,63.0,99.0
1195,172.88,173.01500000000001,31.0,94.0
1196,170.78,173.02,48.0,97.0
1197,172.88,173.03,55.0,76.0
1198,173.18,173.36875,41.0,82.0
1199,173.18,173.59375,60.0,80.0
1200,173.18,173.595,53.0,60.0
1201,173.48,173.615,36.0,94.0
1202,173.18,173.62375,56.0,82.0
1203,173.78,173.93375,39.0,99.0
1204,173.48,174.09375,48.0,44.0
1205,174.08,174.2275,41.0,82.0
1206,174.08,174.46625,53.0,37.0
1207,174.38,174.53125,39.0,102.0
1208,173.78,174.72875,56.0,105.0
1209,173.78,174.74875,60.0,102.0
1210,174.68,174.82125,36.0,89.0
1211,174.68,174.85750000000002,53.0,67.0
1212,174.98,175.13625,53.0,89.0
1213,174.98,175.1575,39.0,90.0
1214,174.38,175.3025,48.0,52.0
1215,175.28,175.41875000000002,36.0,87.0
1216,174.98,175.4475,60.0,100.0
1217,174.98,175.48625,56.0,102.0
1218,175.28,175.54125,53.0,82.0
1219,175.58,175.75,44.0,59.0
1220,175.88,176.03625,39.0,70.0
1221,176.18,176.33875,44.0,90.0
1222,176.48,176.62125,39.0,82.0
1223,176.18,176.875,56.0,93.0
1224,176.18,176.9075,60.0,92.0
1225,176.78,176.92125000000001,44.0,93.0
1226,176.18,176.965,63.0,87.0
1227,177.08,177.14625,63.0,1.0
1228,177.08,177.20875,39.0,79.0
1229,177.08,177.2925,56.0,68.0
1230,177.38,177.53,44.0,85.0
1231,177.38,177.56,56.0,96.0
1232,177.38,177.8025,60.0,100.0
1233,177.68,177.80375,39.0,99.0
1234,175.88,177.82625000000002,51.0,54.0
1235,177.68,177.83375,56.0,48.0
1236,177.38,177.835,63.0,96.0
1237,177.98,178.10375,43.0,92.0
1238,178.28,178.40625,38.0,92.0
1239,177.98,178.44125,55.0,87.0
1240,177.98,178.45000000000002,62.0,46.0
1241,177.98,178.48875,59.0,102.0
1242,178.58,178.71875,41.0,94.0
1243,178.58,178.8025,55.0,87.0
1244,178.88,179.04625000000001,43.0,82.0
1245,178.88,179.24,55.0,71.0
1246,179.18,179.33375,41.0,94.0
1247,178.58,179.51250000000002,62.0,94.0
1248,178.58,179.59875,59.0,105.0
1249,179.48,179.6275,38.0,82.0
1250,179.48,179.6725,55.0,52.0
1251,179.78,179.93875,41.0,89.0
1252,179.78,179.94875,55.0,94.0
1253,180.08,180.22125,38.0,89.0
1254,179.18,180.22875,50.0,53.0
1255,179.78,180.23250000000002,62.0,100.0
1256,180.08,180.26,55.0,58.0
1257,179.78,180.26875,59.0,105.0
1258,180.38,180.50875,36.0,94.0
1259,180.68,180.8475,31.0,85.0
1260,180.38,180.86,60.0,97.0
1261,180.38,180.88375,63.0,90.0
1262,180.38,180.9075,55.0,87.0
1263,180.98,181.13875000000002,34.0,99.0
1264,180.98,181.33375,60.0,92.0
1265,180.98,181.36375,63.0,93.0
1266,181.28,181.39125,55.0,33.0
1267,181.28,181.40375,36.0,85.0
1268,181.58,181.63750000000002,55.0,66.0
1269,181.58,181.70375,60.0,94.0
1270,181.58,181.72125,63.0,79.0
1271,181.58,181.72875,34.0,105.0
1272,181.88,182.01500000000001,55.0,37.0
1273,181.88,182.04500000000002,31.0,89.0
1274,182.18,182.28875,55.0,97.0
1275,180.38,182.34375,48.0,100.0
1276,182.18,182.36125,34.0,105.0
1277,182.18,182.50125,60.0,111.0
1278,182.18,182.53375,63.0,102.0
1279,182.48,182.62125,55.0,80.0
1280,182.48,182.645,31.0,97.0
1281,183.08,183.20875,36.0,84.0
1282,182.78,183.28875,60.0,94.0
1283,182.78,183.3075,53.0,82.0
1284,182.78,183.3075,56.0,90.0
1285,182.78,183.5075,41.0,94.0
1286,183.38,183.52125,39.0,99.0
1287,183.38,183.8,60.0,100.0
1288,183.38,183.81125,56.0,102.0
1289,183.68,183.82375,41.0,87.0
1290,183.68,183.88125,53.0,49.0
1291,183.98,184.02875,53.0,40.0
1292,183.98,184.11875,39.0,105.0
1293,184.28,184.41875000000002,36.0,92.0
1294,183.98,184.465,60.0,89.0
1295,184.28,184.47875,53.0,52.0
1296,183.98,184.48,56.0,79.0
1297,184.58,184.76,39.0,99.0
1298,184.58,184.76625,53.0,94.0
1299,184.58,184.97625,56.0,105.0
1300,184.88,185.04500000000002,36.0,100.0
1301,184.58,185.07500000000002,60.0,105.0
1302,184.88,185.0875,53.0,73.0
1303,185.18,185.375,44.0,91.0
1304,185.18,185.48250000000002,56.0,79.0
1305,185.18,185.48250000000002,60.0,89.0
1306,185.48,185.63,39.0,87.0
1307,185.78,185.93625,44.0,72.0
1308,186.08,186.2125,39.0,63.0
1309,185.48,186.29125,51.0,32.0
1310,186.38,186.53,44.0,90.0
1311,185.78,186.61,60.0,100.0
1312,185.78,186.63,56.0,99.0
1313,185.78,186.78,63.0,96.0
1314,186.68,186.82125,39.0,87.0
1315,186.98,187.13375,44.0,96.0
1316,186.98,187.1625,56.0,99.0
1317,186.68,187.42875,51.0,41.0
1318,187.28,187.43,39.0,96.0
1319,186.98,187.49875,60.0,100.0
1320,187.28,187.5175,56.0,70.0
1321,186.98,187.5675,63.0,102.0
1322,187.58,187.73,43.0,89.0
1323,187.88,188.05125,38.0,84.0
1324,188.18,188.32125,41.0,100.0
1325,187.88,188.3225,50.0,47.0
1326,188.48,188.60875000000001,43.0,97.0
1327,188.18,188.63125,55.0,97.0
1328,188.18,188.64625,59.0,105.0
1329,188.18,188.7225,62.0,102.0
1330,188.78,188.8975,55.0,64.0
1331,188.78,188.90625,41.0,108.0
1332,189.08,189.20875,38.0,94.0
1333,189.08,189.25375,55.0,82.0
1334,188.48,189.51375000000002,50.0,66.0
1335,189.38,189.53375,41.0,105.0
1336,189.38,189.74,59.0,105.0
1337,189.38,189.75625,55.0,100.0
1338,189.38,189.78125,62.0,105.0
1339,189.68,189.83625,43.0,94.0
1340,189.68,189.85375,50.0,78.0
1341,189.98,190.16875000000002,36.0,94.0
1342,189.98,190.19,55.0,82.0
1343,189.98,190.445,60.0,94.0
1344,190.28,190.46,31.0,53.0
1345,190.28,190.48250000000002,55.0,51.0
1346,190.58,190.745,34.0,85.0
1347,190.58,190.78375,55.0,80.0
1348,190.58,191.00875,60.0,111.0
1349,190.88,191.02375,36.0,87.0
1350,190.58,191.04125,63.0,99.0
1351,190.88,191.06625,55.0,51.0
1352,191.18,191.23625,55.0,49.0
1353,191.18,191.34875,34.0,96.0
1354,191.48000000000002,191.63,31.0,80.0
1355,191.18,191.65,60.0,92.0
1356,191.18,191.6725,63.0,72.0
1357,191.48000000000002,191.675,55.0,48.0
1358,191.78,191.9125,55.0,100.0
1359,191.78,191.94875000000002,34.0,99.0
1360,191.78,192.10125,60.0,111.0
1361,191.78,192.13625000000002,63.0,99.0
1362,192.08,192.215,31.0,94.0
1363,189.98,192.22,48.0,97.0
1364,192.08,192.23000000000002,55.0,76.0
1365,192.38,192.56875,41.0,82.0
1366,192.38,192.79375000000002,60.0,80.0
1367,192.38,192.79500000000002,53.0,60.0
1368,192.68,192.815,36.0,94.0
1369,192.38,192.82375000000002,56.0,82.0
1370,192.98000000000002,193.13375,39.0,99.0
1371,192.68,193.29375000000002,48.0,44.0
1372,193.28,193.4275,41.0,82.0
1373,193.28,193.66625,53.0,37.0
1374,193.58,193.73125000000002,39.0,102.0
1375,192.98000000000002,193.92875,56.0,105.0
1376,192.98000000000002,193.94875000000002,60.0,102.0
1377,193.88,194.02125,36.0,89.0
1378,193.88,194.0575,53.0,67.0
1379,194.18,194.33625,53.0,89.0
1380,194.18,194.35750000000002,39.0,90.0
1381,193.58,194.5025,48.0,52.0
1382,194.48000000000002,194.61875,36.0,87.0
1383,194.18,194.6475,60.0,100.0
1384,194.18,194.68625,56.0,102.0
1385,194.48000000000002,194.74125,53.0,82.0
1386,194.78,194.95000000000002,44.0,59.0
1387,195.08,195.23625,39.0,70.0
1388,195.38,195.53875,44.0,90.0
1389,195.68,195.82125,39.0,82.0
1390,195.38,196.07500000000002,56.0,93.0
1391,195.38,196.10750000000002,60.0,92.0
1392,195.98000000000002,196.12125,44.0,93.0
1393,195.38,196.165,63.0,87.0
1394,196.28,196.34625,63.0,1.0
1395,196.28,196.40875,39.0,79.0
1396,196.28,196.4925,56.0,68.0
1397,196.58,196.73000000000002,44.0,85.0
1398,196.58,196.76,56.0,96.0
1399,196.58,197.0025,60.0,100.0
1400,196.88,197.00375,39.0,99.0
1401,195.08,197.02625,51.0,54.0
1402,196.88,197.03375,56.0,48.0
1403,196.58,197.035,63.0,96.0
1404,197.18,197.30375,43.0,92.0
1405,197.48000000000002,197.60625000000002,38.0,92.0
1406,197.18,197.64125,55.0,87.0
1407,197.18,197.65,62.0,46.0
1408,197.18,197.68875,59.0,102.0
1409,197.78,197.91875000000002,41.0,94.0
1410,197.78,198.0025,55.0,87.0
1411,198.08,198.24625,43.0,82.0
1412,198.08,198.44,55.0,71.0
1413,198.38,198.53375,41.0,94.0
1414,197.78,198.7125,62.0,94.0
1415,197.78,198.79875,59.0,105.0
1416,198.68,198.82750000000001,38.0,82.0
1417,198.68,198.8725,55.0,52.0
1418,198.98000000000002,199.13875000000002,41.0,89.0
1419,198.98000000000002,199.14875,55.0,94.0
1420,199.28,199.42125000000001,38.0,89.0
1421,198.38,199.42875,50.0,53.0
1422,198.98000000000002,199.4325,62.0,100.0
1423,199.28,199.46,55.0,58.0
1424,198.98000000000002,199.46875,59.0,105.0
1425,199.58,199.72875,43.0,67.0
1426,199.58,199.98125000000002,62.0,89.0
1427,199.58,199.9875,55.0,71.0
1428,199.58,200.0175,59.0,89.0
1429,199.88,200.01875,38.0,84.0
1430,200.18,200.3125,41.0,94.0
1431,199.88,200.3375,50.0,52.0
1432,200.18,200.3625,55.0,84.0
1433,200.48000000000002,200.60875000000001,43.0,87.0
1434,200.48000000000002,200.875,55.0,78.0
1435,200.78,200.915,41.0,94.0
1436,200.18,201.21375,62.0,92.0
1437,201.08,201.215,38.0,92.0
1438,200.18,201.2575,59.0,97.0
1439,201.08,201.29250000000002,55.0,48.0
1440,201.38,201.53875,41.0,94.0
1441,201.68,201.875,38.0,92.0
1442,201.38,201.8775,62.0,92.0
1443,201.38,201.88,59.0,94.0
1444,201.68,201.88125,55.0,47.0
1445,200.78,201.9,50.0,58.0
1446,201.98000000000002,202.13625000000002,55.0,69.0
1447,201.98000000000002,202.1575,62.0,84.0
1448,201.98000000000002,202.16750000000002,59.0,84.0
1449,201.98000000000002,202.20250000000001,43.0,94.0
1450,204.38,204.53625,48.0,76.0
1451,204.38,204.53625,48.0,76.0
1452,204.3775,204.75,60.0,75.0
1453,204.3775,204.76500000000001,63.0,73.0
1454,204.68,204.80625,43.0,92.0
1455,204.68,204.80625,43.0,92.0
1456,204.98000000000002,205.1275,46.0,102.0
1457,204.98000000000002,205.1275,46.0,102.0
1458,204.9775,205.18375,60.0,76.0
1459,204.9775,205.205,67.0,76.0
1460,204.9775,205.2275,63.0,83.0
1461,205.28,205.38625000000002,48.0,76.0
1462,205.28,205.38625000000002,48.0,76.0
1463,205.58,205.72125,46.0,99.0
1464,205.58,205.72125,46.0,99.0
1465,205.57750000000001,205.72125,63.0,77.0
1466,205.57750000000001,205.73250000000002,60.0,76.0
1467,205.88,206.01500000000001,48.0,80.0
1468,205.88,206.01500000000001,48.0,80.0
1469,206.18,206.32750000000001,46.0,87.0
1470,206.18,206.32750000000001,46.0,87.0
1471,206.1775,206.36375,60.0,77.0
1472,206.1775,206.46875,63.0,85.0
1473,206.1775,206.48250000000002,67.0,77.0
1474,204.3775,206.57125,36.0,80.0
1475,206.4775,206.64875,55.0,75.0
1476,206.48000000000002,206.65375,43.0,100.0
1477,206.48000000000002,206.65375,43.0,100.0
1478,206.78,206.92125000000001,48.0,84.0
1479,206.78,206.92125000000001,48.0,84.0
1480,206.7775,207.1875,67.0,76.0
1481,206.7775,207.1975,60.0,77.0
1482,206.7775,207.20875,63.0,81.0
1483,207.08,207.24875,43.0,84.0
1484,207.08,207.24875,43.0,84.0
1485,207.38,207.53875,46.0,82.0
1486,207.38,207.53875,46.0,82.0
1487,207.3775,207.5525,60.0,77.0
1488,207.3775,207.715,63.0,82.0
1489,207.3775,207.74625,67.0,78.0
1490,207.68,207.80625,48.0,84.0
1491,207.68,207.80625,48.0,84.0
1492,207.6775,207.99625,60.0,77.0
1493,207.98000000000002,208.13375,46.0,102.0
1494,207.98000000000002,208.13375,46.0,102.0
1495,208.2775,208.40625,60.0,72.0
1496,208.28,208.445,43.0,97.0
1497,208.28,208.445,43.0,97.0
1498,208.57750000000001,208.675,60.0,73.0
1499,208.58,208.73375000000001,41.0,94.0
1500,208.58,208.73375000000001,41.0,94.0
1501,208.57750000000001,208.9025,63.0,78.0
1502,208.57750000000001,208.9275,67.0,75.0
1503,207.9775,209.00625,55.0,71.0
1504,208.8775,209.0325,60.0,75.0
1505,208.88,209.04375000000002,43.0,94.0
1506,208.88,209.04375000000002,43.0,94.0
1507,206.7775,209.06,36.0,80.0
1508,209.18,209.43,53.0,80.0
1509,209.1775,209.60125,60.0,76.0
1510,209.1775,209.61875,65.0,76.0
1511,209.48000000000002,209.62375,48.0,94.0
1512,209.78,209.93875,51.0,102.0
1513,209.7775,210.10875000000001,65.0,83.0
1514,209.7775,210.13,68.0,81.0
1515,210.08,210.2425,53.0,89.0
1516,209.1775,210.4,41.0,78.0
1517,210.07750000000001,210.4375,60.0,80.0
1518,210.38,210.53875,51.0,96.0
1519,210.3775,210.735,65.0,72.0
1520,210.68,210.815,53.0,92.0
1521,210.6775,210.9,60.0,76.0
1522,210.9775,211.09125,60.0,77.0
1523,210.98000000000002,211.115,51.0,102.0
1524,210.9775,211.345,65.0,82.0
1525,210.9775,211.38625000000002,41.0,81.0
1526,210.9775,211.42375,68.0,78.0
1527,211.28,211.45125000000002,48.0,92.0
1528,211.2775,211.48125000000002,60.0,80.0
1529,211.58,211.72375,53.0,100.0
1530,211.88,212.02375,48.0,87.0
1531,211.57750000000001,212.0525,60.0,77.0
1532,211.57750000000001,212.065,65.0,77.0
1533,212.1775,212.22125,60.0,70.0
1534,212.18,212.315,51.0,102.0
1535,212.1775,212.5625,65.0,81.0
1536,212.1775,212.58375,68.0,77.0
1537,211.57750000000001,212.60625000000002,41.0,77.0
1538,212.48000000000002,212.62375,53.0,87.0
1539,212.4775,212.66375,60.0,76.0
1540,212.7775,212.91875000000002,60.0,76.0
1541,212.78,212.945,51.0,99.0
1542,212.7775,213.235,65.0,76.0
1543,213.08,213.24875,48.0,80.0
1544,213.07750000000001,213.25375,60.0,67.0
1545,213.3775,213.47375,60.0,77.0
1546,213.38,213.55125,51.0,102.0
1547,213.3775,213.85125,68.0,81.0
1548,213.68,213.85750000000002,53.0,89.0
1549,213.3775,213.8625,65.0,83.0
1550,213.6775,213.86375,60.0,78.0
1551,212.7775,213.915,41.0,73.0
1552,213.98000000000002,214.385,55.0,94.0
1553,213.98000000000002,214.385,63.0,87.0
1554,213.98000000000002,214.4,48.0,105.0
1555,213.98000000000002,214.4,60.0,97.0
1556,213.98000000000002,214.42000000000002,67.0,82.0
1557,215.48000000000002,215.65125,48.0,111.0
1558,215.48000000000002,215.68125,55.0,89.0
1559,215.48000000000002,215.6875,60.0,94.0
1560,215.48000000000002,215.69,67.0,84.0
1561,215.48000000000002,215.6925,63.0,96.0
1562,215.78,215.9875,60.0,100.0
1563,215.78,215.9925,63.0,102.0
1564,215.78,216.00375,67.0,94.0
1565,215.78,216.0175,48.0,114.0
1566,215.78,216.0275,55.0,94.0
1567,216.18625,217.01901816666665,53.0,85.0
1568,216.26,217.04589983333332,56.0,95.0
1569,216.33875,217.07681374999999,60.0,97.0
1570,216.37,217.19643716666667,65.0,94.0
1571,216.32875,217.20584574999998,41.0,99.0
1572,217.49349434375,218.20569012083334,55.0,82.0
1573,217.674689225,218.28750829583333,67.0,89.0
1574,217.57918365,218.45114464583332,59.0,91.0
1575,217.64238586875,218.47841737083334,62.0,90.0
1576,217.94887196041665,218.92159915208333,50.0,87.0
1577,217.64519485625001,218.98296278333333,43.0,97.0
1578,218.37614465208333,219.30341730208332,55.0,98.0
1579,219.85341725625,220.46490838958334,36.0,98.0
1580,219.69432636041665,220.75704308958333,55.0,84.0
1581,219.84432634791668,220.81884081458333,60.0,93.0
1582,219.95796270208334,220.86659360208333,63.0,89.0
1583,221.45367198958334,223.08288473958333,60.0,81.0
1584,221.17417773333332,223.08850271458334,55.0,78.0
1585,222.01125600833333,223.08850271458334,72.0,88.0
1586,221.70928985208334,223.08990720833333,67.0,81.0
1587,220.88625651458332,223.10535663958333,48.0,70.0
