,start,end,pitch,velocity
0,1.625,2.9600000000000004,48.0,51.0
1,2.881666666666667,2.9600000000000004,48.0,21.0
2,2.02,3.25,60.0,43.0
3,2.4483333333333337,3.331666666666667,55.0,39.0
4,3.2833333333333337,4.073333333333333,48.0,27.0
5,4.108333333333333,4.4783333333333335,55.0,26.0
6,3.6950000000000003,4.493333333333333,60.0,35.0
7,4.481666666666667,4.588333333333334,48.0,27.0
8,4.888333333333334,5.618333333333334,48.0,35.0
9,5.273333333333333,6.043333333333334,60.0,30.0
10,5.67,6.065,55.0,25.0
11,6.106666666666667,6.1850000000000005,48.0,15.0
12,6.486666666666667,7.215000000000001,48.0,25.0
13,6.8916666666666675,7.636666666666667,60.0,34.0
14,7.300000000000001,7.698333333333334,55.0,32.0
15,7.695,7.760000000000001,48.0,17.0
16,8.05,8.718333333333334,48.0,29.0
17,8.46,9.093333333333334,60.0,29.0
18,8.851666666666667,9.26,55.0,34.0
19,9.278333333333334,9.360000000000001,48.0,18.0
20,9.71,9.741666666666667,48.0,22.0
21,1.625,9.790000000000001,36.0,44.0
22,10.096666666666668,10.511666666666667,60.0,38.0
23,10.425,10.598333333333334,43.0,36.0
24,10.883333333333335,10.983333333333334,48.0,19.0
25,10.483333333333334,10.985000000000001,55.0,39.0
26,11.225000000000001,11.373333333333335,36.0,45.0
27,11.285,11.860000000000001,48.0,20.0
28,11.645000000000001,12.05,60.0,45.0
29,12.06,12.536666666666667,55.0,35.0
30,14.425,14.623333333333335,67.0,72.0
31,14.425,14.748333333333335,72.0,73.0
32,14.625000000000002,14.875000000000002,64.0,46.0
33,14.425,14.930000000000001,48.0,69.0
34,14.425,14.945,60.0,66.0
35,14.825000000000001,15.088333333333335,67.0,61.0
36,15.025,15.455000000000002,72.0,73.0
37,15.025,15.485000000000001,64.0,43.0
38,15.025,15.563333333333334,48.0,66.0
39,15.025,15.57,60.0,70.0
40,15.425,15.675,67.0,60.0
41,15.625000000000002,16.043333333333333,72.0,70.0
42,15.825000000000001,16.095000000000002,64.0,48.0
43,15.625000000000002,16.150000000000002,48.0,62.0
44,15.625000000000002,16.158333333333335,60.0,64.0
45,16.025000000000002,16.285,67.0,56.0
46,16.225,16.636666666666667,72.0,72.0
47,16.425,16.695,64.0,50.0
48,16.225,16.735,60.0,70.0
49,16.225,16.740000000000002,48.0,70.0
50,16.625,16.91166666666667,67.0,59.0
51,16.825000000000003,17.09,72.0,73.0
52,16.825000000000003,17.136666666666667,48.0,64.0
53,16.825000000000003,17.14666666666667,60.0,66.0
54,17.025000000000002,17.27166666666667,64.0,56.0
55,17.225,17.298333333333336,60.0,59.0
56,17.225,17.361666666666668,48.0,75.0
57,17.225,17.39666666666667,67.0,67.0
58,17.425,17.73,72.0,73.0
59,17.625,17.903333333333336,71.0,61.0
60,17.825000000000003,18.135,62.0,49.0
61,17.625,18.143333333333334,43.0,69.0
62,17.625,18.168333333333333,55.0,76.0
63,18.025000000000002,18.171666666666667,67.0,53.0
64,18.225,18.48,71.0,72.0
65,18.225,18.683333333333334,43.0,75.0
66,18.225,18.706666666666667,55.0,70.0
67,18.425,18.720000000000002,62.0,43.0
68,18.625,18.793333333333333,67.0,62.0
69,18.825000000000003,19.10666666666667,69.0,69.0
70,19.025000000000002,19.310000000000002,62.0,48.0
71,18.825000000000003,19.338333333333335,43.0,73.0
72,19.225,19.345000000000002,67.0,56.0
73,18.825000000000003,19.361666666666668,55.0,67.0
74,19.425,19.85,62.0,45.0
75,19.425,19.873333333333335,74.0,60.0
76,19.425,19.895,43.0,70.0
77,19.425,19.915000000000003,55.0,63.0
78,19.825000000000003,20.003333333333334,67.0,60.0
79,20.025000000000002,20.248333333333335,69.0,61.0
80,20.025000000000002,20.326666666666668,55.0,63.0
81,20.225,20.416666666666668,62.0,55.0
82,20.025000000000002,20.553333333333335,43.0,66.0
83,20.425,20.616666666666667,55.0,78.0
84,20.425,20.648333333333333,67.0,66.0
85,20.625,20.848333333333336,69.0,64.0
86,20.825000000000003,21.093333333333334,72.0,64.0
87,21.025000000000002,21.32166666666667,64.0,49.0
88,20.825000000000003,21.338333333333335,45.0,69.0
89,20.825000000000003,21.360000000000003,57.0,76.0
90,21.225,21.456666666666667,67.0,59.0
91,21.425,21.55166666666667,72.0,48.0
92,21.425,21.625,69.0,36.0
93,21.425,21.846666666666668,45.0,72.0
94,21.625,21.863333333333333,64.0,53.0
95,21.425,21.886666666666667,57.0,70.0
96,21.825000000000003,22.076666666666668,67.0,58.0
97,22.025000000000002,22.225,69.0,60.0
98,22.225,22.476666666666667,64.0,48.0
99,22.025000000000002,22.546666666666667,45.0,70.0
100,22.025000000000002,22.57,57.0,66.0
101,22.425,22.651666666666667,67.0,57.0
102,22.625,22.94666666666667,72.0,75.0
103,22.825000000000003,23.081666666666667,64.0,48.0
104,22.625,23.113333333333333,45.0,69.0
105,22.625,23.133333333333336,57.0,67.0
106,23.025000000000002,23.325000000000003,67.0,58.0
107,23.225,23.511666666666667,45.0,70.0
108,23.225,23.533333333333335,57.0,64.0
109,23.225,23.55166666666667,72.0,76.0
110,23.425,23.631666666666668,64.0,60.0
111,23.625,23.77166666666667,45.0,73.0
112,23.625,23.886666666666667,67.0,59.0
113,23.825000000000003,24.30666666666667,69.0,64.0
114,24.225,24.483333333333334,60.0,48.0
115,24.025000000000002,24.498333333333335,41.0,66.0
116,24.025000000000002,24.511666666666667,53.0,91.0
117,24.425,24.666666666666668,65.0,60.0
118,24.625,24.85666666666667,67.0,60.0
119,24.625,25.07,41.0,67.0
120,24.825000000000003,25.081666666666667,60.0,50.0
121,24.625,25.10666666666667,53.0,72.0
122,25.025000000000002,25.183333333333334,65.0,62.0
123,25.225,25.46,69.0,57.0
124,25.425,25.685000000000002,60.0,52.0
125,25.225,25.715000000000003,41.0,67.0
126,25.625,25.755000000000003,65.0,67.0
127,25.225,25.76,53.0,67.0
128,25.825000000000003,26.01,67.0,67.0
129,26.025000000000002,26.24666666666667,60.0,53.0
130,25.825000000000003,26.325000000000003,41.0,73.0
131,25.825000000000003,26.345000000000002,53.0,67.0
132,26.225,26.415000000000003,65.0,62.0
133,26.425,26.671666666666667,69.0,64.0
134,26.425,26.723333333333336,53.0,67.0
135,26.625,26.78,60.0,55.0
136,26.425,26.888333333333335,41.0,69.0
137,26.825000000000003,26.98,53.0,78.0
138,26.825000000000003,27.07166666666667,65.0,67.0
139,27.025000000000002,27.215000000000003,67.0,64.0
140,27.225,27.526666666666667,72.0,64.0
141,27.425,27.720000000000002,62.0,53.0
142,27.225,27.725,48.0,75.0
143,27.625,27.761666666666667,64.0,63.0
144,27.825000000000003,28.12,67.0,61.0
145,28.025000000000002,28.325000000000003,62.0,51.0
146,27.825000000000003,28.365000000000002,48.0,72.0
147,27.825000000000003,28.37,60.0,88.0
148,28.225,28.398333333333333,64.0,64.0
149,28.425,28.78166666666667,72.0,69.0
150,28.625000000000004,28.783333333333335,62.0,53.0
151,28.425,28.878333333333334,48.0,72.0
152,28.425,28.90666666666667,60.0,72.0
153,28.825000000000003,28.993333333333336,64.0,55.0
154,29.025000000000002,29.153333333333336,67.0,62.0
155,29.025000000000002,29.38666666666667,72.0,57.0
156,29.225,29.48,64.0,52.0
157,29.025000000000002,29.486666666666668,48.0,73.0
158,29.025000000000002,29.525000000000002,60.0,73.0
159,29.425,29.643333333333334,67.0,59.0
160,29.625000000000004,29.89,72.0,67.0
161,29.625000000000004,29.916666666666668,48.0,72.0
162,29.625000000000004,29.951666666666668,60.0,69.0
163,29.825000000000003,30.08666666666667,64.0,56.0
164,30.025000000000002,30.098333333333336,60.0,62.0
165,30.025000000000002,30.17,48.0,76.0
166,30.025000000000002,30.19166666666667,67.0,61.0
167,30.225,30.660000000000004,72.0,69.0
168,30.425,30.666666666666668,71.0,63.0
169,30.625000000000004,30.905,62.0,51.0
170,30.425,30.928333333333335,55.0,66.0
171,30.425,30.93166666666667,43.0,58.0
172,30.825000000000003,30.956666666666667,67.0,57.0
173,31.025000000000002,31.298333333333336,69.0,61.0
174,31.225,31.488333333333337,62.0,44.0
175,31.025000000000002,31.53166666666667,43.0,76.0
176,31.025000000000002,31.53666666666667,55.0,72.0
177,31.425,31.60666666666667,67.0,62.0
178,31.625000000000004,32.028333333333336,74.0,64.0
179,31.825000000000003,32.07833333333333,62.0,44.0
180,31.625000000000004,32.1,43.0,75.0
181,31.625000000000004,32.11666666666667,55.0,72.0
182,32.025,32.160000000000004,67.0,57.0
183,32.225,32.43666666666667,69.0,61.0
184,32.225,32.705000000000005,43.0,72.0
185,32.425000000000004,32.70666666666667,62.0,47.0
186,32.225,32.711666666666666,55.0,66.0
187,32.625,32.86833333333333,67.0,60.0
188,32.825,33.07,71.0,59.0
189,32.825,33.13666666666667,55.0,60.0
190,33.025,33.27666666666667,72.0,62.0
191,32.825,33.39,43.0,67.0
192,33.225,33.39833333333333,71.0,66.0
193,33.225,33.41833333333334,55.0,78.0
194,33.425000000000004,33.57833333333333,67.0,61.0
195,33.625,33.81666666666667,69.0,60.0
196,33.825,34.11833333333333,60.0,41.0
197,33.625,34.135000000000005,45.0,72.0
198,33.625,34.153333333333336,57.0,80.0
199,34.025000000000006,34.22666666666667,64.0,52.0
200,34.225,34.62666666666667,69.0,72.0
201,34.425000000000004,34.660000000000004,60.0,44.0
202,34.225,34.665,45.0,73.0
203,34.225,34.68,57.0,70.0
204,34.625,34.79333333333334,64.0,61.0
205,34.825,35.031666666666666,67.0,57.0
206,35.025000000000006,35.160000000000004,60.0,45.0
207,34.825,35.315000000000005,45.0,69.0
208,34.825,35.32833333333333,57.0,63.0
209,35.225,35.36666666666667,64.0,60.0
210,35.425000000000004,35.690000000000005,69.0,64.0
211,35.625,35.79,60.0,52.0
212,35.425000000000004,35.913333333333334,45.0,73.0
213,35.425000000000004,35.935,57.0,75.0
214,35.825,35.975,64.0,59.0
215,36.025000000000006,36.24166666666667,67.0,75.0
216,36.025000000000006,36.25666666666667,45.0,73.0
217,36.025000000000006,36.281666666666666,57.0,69.0
218,36.225,36.343333333333334,60.0,50.0
219,36.425000000000004,36.550000000000004,57.0,67.0
220,36.425000000000004,36.63666666666667,45.0,76.0
221,36.425000000000004,36.65166666666667,64.0,61.0
222,36.625,36.79833333333334,67.0,64.0
223,36.825,37.06,69.0,53.0
224,37.025000000000006,37.22,60.0,49.0
225,36.825,37.318333333333335,41.0,75.0
226,36.825,37.32833333333333,53.0,91.0
227,37.225,37.38333333333333,65.0,54.0
228,37.425000000000004,37.63666666666667,67.0,63.0
229,37.625,37.79,60.0,49.0
230,37.425000000000004,37.865,41.0,69.0
231,37.425000000000004,37.885000000000005,53.0,73.0
232,37.825,38.005,65.0,61.0
233,38.025000000000006,38.315000000000005,69.0,64.0
234,38.225,38.46666666666667,60.0,59.0
235,38.025000000000006,38.52333333333333,41.0,73.0
236,38.025000000000006,38.550000000000004,53.0,73.0
237,38.425000000000004,38.59,65.0,54.0
238,38.625,38.91166666666667,69.0,67.0
239,38.825,38.99,60.0,51.0
240,38.625,39.12166666666667,41.0,72.0
241,38.625,39.145,53.0,69.0
242,39.025000000000006,39.24166666666667,65.0,50.0
243,39.225,39.43333333333334,53.0,73.0
244,39.225,39.455000000000005,69.0,64.0
245,39.225,39.63333333333333,41.0,75.0
246,39.425000000000004,39.675000000000004,60.0,53.0
247,39.625,39.74666666666667,53.0,75.0
248,39.625,39.845000000000006,65.0,58.0
249,39.825,40.013333333333335,69.0,69.0
250,40.025000000000006,41.358333333333334,60.0,82.0
251,40.025000000000006,41.44166666666667,67.0,70.0
252,40.025000000000006,41.483333333333334,48.0,60.0
253,40.225,41.495000000000005,62.0,38.0
254,40.025000000000006,41.5,64.0,78.0
255,41.625,41.78333333333334,84.0,50.0
256,41.625,41.79333333333334,76.0,48.0
257,42.425000000000004,42.538333333333334,74.0,44.0
258,42.425000000000004,42.54666666666667,83.0,48.0
259,43.225,43.53,67.0,58.0
260,43.225,43.540000000000006,64.0,49.0
261,43.225,43.540000000000006,72.0,48.0
262,43.625,43.90166666666667,67.0,44.0
263,43.625,43.91166666666667,64.0,40.0
264,43.625,43.925000000000004,72.0,35.0
265,44.025000000000006,44.30666666666667,67.0,50.0
266,44.025000000000006,44.32166666666667,64.0,42.0
267,43.225,44.695,60.0,53.0
268,44.425000000000004,44.718333333333334,67.0,60.0
269,43.225,44.72833333333334,48.0,49.0
270,44.425000000000004,44.730000000000004,64.0,44.0
271,44.025000000000006,44.730000000000004,72.0,38.0
272,44.825,45.1,67.0,52.0
273,44.825,45.105000000000004,64.0,44.0
274,44.825,45.11666666666667,72.0,39.0
275,45.225,45.473333333333336,67.0,40.0
276,45.225,45.473333333333336,72.0,32.0
277,45.225,45.48666666666667,64.0,37.0
278,44.825,45.800000000000004,60.0,52.0
279,45.625,45.848333333333336,67.0,51.0
280,45.625,45.85333333333334,72.0,46.0
281,45.625,45.86166666666667,64.0,45.0
282,44.825,45.88333333333333,48.0,45.0
283,46.025000000000006,46.26166666666667,64.0,50.0
284,46.025000000000006,46.28333333333334,67.0,54.0
285,46.025000000000006,46.32,72.0,60.0
286,46.425000000000004,46.71666666666667,71.0,51.0
287,46.425000000000004,46.720000000000006,62.0,49.0
288,46.425000000000004,46.72666666666667,67.0,50.0
289,46.825,47.045,67.0,39.0
290,46.825,47.050000000000004,71.0,39.0
291,46.825,47.08166666666667,62.0,36.0
292,47.225,47.480000000000004,71.0,45.0
293,47.225,47.495000000000005,62.0,40.0
294,47.225,47.50166666666667,67.0,44.0
295,47.625,47.92,71.0,43.0
296,47.625,47.940000000000005,62.0,43.0
297,47.625,47.940000000000005,67.0,44.0
298,48.025000000000006,48.318333333333335,71.0,49.0
299,48.025000000000006,48.33166666666667,62.0,44.0
300,48.025000000000006,48.33166666666667,67.0,44.0
301,48.425000000000004,48.695,71.0,41.0
302,48.425000000000004,48.7,62.0,36.0
303,48.425000000000004,48.705000000000005,67.0,40.0
304,46.425000000000004,48.78,55.0,46.0
305,48.825,49.123333333333335,55.0,63.0
306,48.825,49.13333333333334,67.0,56.0
307,48.825,49.135000000000005,62.0,52.0
308,48.825,49.135000000000005,71.0,55.0
309,46.425000000000004,49.35666666666667,43.0,52.0
310,49.225,49.38666666666667,62.0,49.0
311,49.225,49.46166666666667,67.0,56.0
312,49.225,49.593333333333334,71.0,61.0
313,49.625,49.88666666666667,64.0,51.0
314,49.625,49.89166666666667,67.0,56.0
315,49.625,49.913333333333334,72.0,62.0
316,50.025000000000006,50.290000000000006,64.0,41.0
317,50.025000000000006,50.29833333333334,67.0,46.0
318,50.025000000000006,50.32,72.0,48.0
319,50.425000000000004,50.70333333333333,72.0,44.0
320,50.425000000000004,50.72166666666667,64.0,44.0
321,50.425000000000004,50.72166666666667,67.0,46.0
322,50.825,51.1,67.0,44.0
323,50.825,51.10166666666667,64.0,40.0
324,50.825,51.120000000000005,72.0,40.0
325,49.625,51.145,57.0,54.0
326,51.225,51.47166666666667,72.0,42.0
327,51.225,51.48166666666667,64.0,48.0
328,51.225,51.48666666666667,67.0,52.0
329,51.625,51.90666666666667,72.0,44.0
330,51.625,51.925000000000004,67.0,43.0
331,51.625,51.93333333333334,64.0,42.0
332,51.225,51.93833333333334,57.0,58.0
333,52.025000000000006,52.263333333333335,72.0,43.0
334,52.025000000000006,52.290000000000006,67.0,56.0
335,52.025000000000006,52.295,64.0,50.0
336,52.025000000000006,52.325,57.0,52.0
337,49.625,52.37166666666667,45.0,37.0
338,52.425000000000004,52.49666666666667,67.0,47.0
339,52.425000000000004,52.54333333333334,64.0,62.0
340,52.425000000000004,52.57166666666667,72.0,61.0
341,52.825,53.080000000000005,69.0,49.0
342,52.825,53.093333333333334,65.0,54.0
343,52.825,53.098333333333336,60.0,48.0
344,53.225,53.46166666666667,69.0,46.0
345,53.225,53.468333333333334,65.0,48.0
346,53.225,53.473333333333336,60.0,46.0
347,53.625,53.83166666666667,69.0,45.0
348,53.625,53.86000000000001,60.0,44.0
349,53.625,53.86000000000001,65.0,48.0
350,54.025000000000006,54.260000000000005,60.0,48.0
351,52.825,54.285000000000004,53.0,54.0
352,52.825,54.290000000000006,41.0,54.0
353,54.025000000000006,54.295,65.0,47.0
354,54.025000000000006,54.315000000000005,69.0,53.0
355,54.425000000000004,54.67166666666667,60.0,54.0
356,54.425000000000004,54.69166666666667,67.0,58.0
357,54.825,55.06666666666667,60.0,52.0
358,54.425000000000004,55.095000000000006,53.0,53.0
359,54.825,55.108333333333334,67.0,57.0
360,55.225,55.475,65.0,60.0
361,55.225,55.47833333333334,60.0,58.0
362,55.225,55.498333333333335,53.0,56.0
363,54.425000000000004,55.690000000000005,41.0,59.0
364,55.62500000000001,55.748333333333335,65.0,57.0
365,55.62500000000001,55.75333333333334,53.0,66.0
366,55.62500000000001,55.800000000000004,60.0,62.0
367,56.025000000000006,56.24666666666667,67.0,48.0
368,56.025000000000006,56.28166666666667,64.0,59.0
369,56.025000000000006,56.28333333333334,60.0,57.0
370,56.425000000000004,56.665000000000006,64.0,47.0
371,56.425000000000004,56.67,60.0,49.0
372,56.425000000000004,56.678333333333335,67.0,47.0
373,56.825,57.083333333333336,64.0,52.0
374,56.825,57.08833333333334,60.0,46.0
375,56.825,57.1,67.0,44.0
376,57.225,57.48500000000001,64.0,54.0
377,57.225,57.49666666666667,60.0,49.0
378,57.225,57.50333333333334,67.0,45.0
379,56.025000000000006,57.53166666666667,48.0,69.0
380,57.62500000000001,57.88,64.0,51.0
381,57.62500000000001,57.88333333333334,60.0,50.0
382,57.62500000000001,57.900000000000006,67.0,47.0
383,58.025000000000006,58.285000000000004,60.0,46.0
384,58.025000000000006,58.285000000000004,64.0,48.0
385,58.025000000000006,58.29333333333334,67.0,42.0
386,58.425000000000004,58.638333333333335,60.0,49.0
387,58.425000000000004,58.645,64.0,52.0
388,58.425000000000004,58.650000000000006,67.0,45.0
389,57.62500000000001,58.73166666666667,48.0,60.0
390,58.825,59.045,60.0,59.0
391,58.825,59.045,64.0,58.0
392,58.825,59.093333333333334,67.0,56.0
393,58.825,59.22833333333334,48.0,54.0
394,59.225,59.44166666666667,62.0,59.0
395,59.225,59.45,67.0,58.0
396,59.225,59.46333333333334,59.0,57.0
397,59.62500000000001,59.93000000000001,67.0,46.0
398,59.62500000000001,59.95,62.0,51.0
399,59.62500000000001,59.955000000000005,59.0,47.0
400,60.025000000000006,60.28333333333334,62.0,46.0
401,60.025000000000006,60.28333333333334,67.0,44.0
402,60.025000000000006,60.288333333333334,59.0,44.0
403,60.425000000000004,60.67333333333334,67.0,41.0
404,60.425000000000004,60.68833333333334,59.0,44.0
405,60.425000000000004,60.69500000000001,62.0,47.0
406,59.225,60.705000000000005,43.0,64.0
407,60.825,61.10333333333334,67.0,53.0
408,60.825,61.13666666666667,62.0,55.0
409,60.825,61.145,59.0,50.0
410,61.225,61.405,67.0,42.0
411,61.225,61.46,59.0,45.0
412,61.225,61.46833333333334,62.0,49.0
413,61.62500000000001,61.84666666666667,67.0,49.0
414,61.62500000000001,61.87666666666667,59.0,49.0
415,61.62500000000001,61.88,62.0,48.0
416,60.825,62.12833333333334,43.0,64.0
417,62.025000000000006,62.15166666666667,62.0,54.0
418,62.025000000000006,62.178333333333335,59.0,57.0
419,62.225,62.443333333333335,43.0,72.0
420,62.025000000000006,62.70166666666667,67.0,57.0
421,62.425000000000004,62.71666666666667,64.0,54.0
422,62.425000000000004,62.720000000000006,60.0,51.0
423,62.425000000000004,62.730000000000004,57.0,47.0
424,62.825,63.03666666666667,67.0,37.0
425,62.825,63.06166666666667,60.0,47.0
426,62.825,63.080000000000005,64.0,47.0
427,62.825,63.085,57.0,46.0
428,63.225,63.46833333333334,60.0,53.0
429,63.225,63.483333333333334,57.0,45.0
430,63.225,63.50333333333334,64.0,44.0
431,63.62500000000001,63.910000000000004,60.0,59.0
432,63.62500000000001,63.913333333333334,57.0,49.0
433,62.425000000000004,63.92333333333334,45.0,64.0
434,63.62500000000001,63.92333333333334,64.0,53.0
435,64.025,64.31333333333333,60.0,58.0
436,64.025,64.32333333333334,57.0,50.0
437,64.025,64.32833333333333,64.0,48.0
438,64.425,64.69666666666667,57.0,44.0
439,64.425,64.70166666666667,60.0,54.0
440,64.425,64.71333333333334,64.0,44.0
441,64.825,65.07333333333334,64.0,56.0
442,64.825,65.08666666666667,60.0,57.0
443,64.825,65.09166666666667,57.0,51.0
444,64.025,65.155,45.0,64.0
445,65.22500000000001,65.49000000000001,60.0,52.0
446,65.22500000000001,65.49333333333334,57.0,46.0
447,65.22500000000001,65.595,64.0,56.0
448,65.22500000000001,65.60333333333334,45.0,49.0
449,65.625,65.90333333333334,65.0,73.0
450,65.625,65.93166666666667,60.0,54.0
451,65.625,65.94,57.0,59.0
452,66.025,66.26333333333334,65.0,47.0
453,66.025,66.29,57.0,45.0
454,66.025,66.29333333333334,60.0,53.0
455,65.625,66.33500000000001,53.0,59.0
456,66.42500000000001,66.65833333333333,65.0,49.0
457,66.42500000000001,66.68666666666667,57.0,51.0
458,66.42500000000001,66.69,60.0,56.0
459,66.42500000000001,66.99333333333334,53.0,48.0
460,66.825,67.015,65.0,43.0
461,66.825,67.05666666666667,57.0,44.0
462,66.825,67.06,60.0,44.0
463,67.22500000000001,67.47833333333334,65.0,52.0
464,67.22500000000001,67.50833333333334,57.0,51.0
465,67.22500000000001,67.50833333333334,60.0,55.0
466,67.22500000000001,67.765,53.0,49.0
467,67.625,67.86333333333334,65.0,49.0
468,67.625,67.88166666666667,60.0,58.0
469,67.625,67.89333333333333,57.0,51.0
470,67.825,68.075,53.0,43.0
471,68.025,68.265,65.0,61.0
472,68.025,68.27166666666668,57.0,59.0
473,68.025,68.27166666666668,60.0,63.0
474,68.22500000000001,68.43333333333334,53.0,50.0
475,65.625,68.49833333333333,41.0,61.0
476,68.42500000000001,68.565,60.0,67.0
477,68.42500000000001,68.56833333333334,57.0,58.0
478,68.42500000000001,68.60333333333334,65.0,66.0
479,68.825,69.09,69.0,66.0
480,68.825,69.10000000000001,64.0,66.0
481,68.825,69.11500000000001,72.0,72.0
482,68.825,69.39,57.0,62.0
483,69.22500000000001,69.49666666666667,69.0,60.0
484,69.42500000000001,69.55666666666667,64.0,55.0
485,69.42500000000001,69.64500000000001,71.0,67.0
486,69.625,69.92833333333334,64.0,69.0
487,69.625,69.93,72.0,72.0
488,69.625,70.23166666666667,57.0,56.0
489,68.825,70.25,45.0,64.0
490,70.025,70.32000000000001,69.0,66.0
491,70.22500000000001,70.37333333333333,71.0,70.0
492,70.42500000000001,70.76666666666667,64.0,64.0
493,70.42500000000001,70.76666666666667,72.0,69.0
494,70.42500000000001,70.77666666666667,69.0,62.0
495,70.825,70.99833333333333,64.0,63.0
496,70.625,71.07000000000001,57.0,57.0
497,71.025,71.26166666666667,64.0,57.0
498,71.025,71.31333333333333,69.0,69.0
499,71.22500000000001,71.43166666666667,57.0,62.0
500,71.42500000000001,71.57000000000001,64.0,66.0
501,70.42500000000001,71.64666666666668,45.0,73.0
502,71.625,71.715,57.0,60.0
503,71.42500000000001,71.91166666666668,72.0,76.0
504,72.025,72.23166666666667,67.0,60.0
505,72.025,72.26333333333334,62.0,64.0
506,72.025,72.27333333333334,55.0,75.0
507,72.025,72.30166666666668,43.0,70.0
508,72.025,72.30833333333334,71.0,72.0
509,72.42500000000001,72.53333333333333,55.0,61.0
510,72.42500000000001,72.545,43.0,63.0
511,72.42500000000001,72.55666666666667,62.0,48.0
512,72.42500000000001,72.575,67.0,53.0
513,72.625,72.72166666666668,57.0,66.0
514,72.625,72.72166666666668,62.0,41.0
515,72.625,72.735,45.0,66.0
516,72.625,72.805,69.0,58.0
517,72.825,72.97333333333334,59.0,72.0
518,72.825,73.02666666666667,47.0,63.0
519,72.825,73.11,62.0,63.0
520,72.825,73.14,71.0,75.0
521,73.22500000000001,73.31833333333334,55.0,66.0
522,73.22500000000001,73.345,43.0,63.0
523,73.22500000000001,73.36833333333334,62.0,48.0
524,73.22500000000001,73.39166666666667,67.0,56.0
525,73.42500000000001,73.47500000000001,57.0,59.0
526,73.42500000000001,73.54666666666667,45.0,64.0
527,73.42500000000001,73.57833333333333,69.0,63.0
528,73.625,73.935,55.0,73.0
529,73.625,73.99166666666667,71.0,67.0
530,73.625,74.08500000000001,67.0,60.0
531,73.625,74.26166666666667,62.0,64.0
532,74.22500000000001,74.47,55.0,58.0
533,74.42500000000001,74.65,67.0,76.0
534,74.42500000000001,74.66166666666668,62.0,72.0
535,74.42500000000001,74.67833333333334,71.0,78.0
536,73.625,74.805,43.0,76.0
537,74.625,74.80666666666667,55.0,67.0
538,74.825,74.99166666666667,62.0,49.0
539,75.025,75.19,67.0,53.0
540,75.22500000000001,75.57166666666667,53.0,72.0
541,75.625,75.74000000000001,67.0,33.0
542,75.22500000000001,75.76333333333334,60.0,64.0
543,75.22500000000001,75.765,65.0,72.0
544,75.22500000000001,75.76833333333335,69.0,67.0
545,75.825,76.16000000000001,53.0,49.0
546,76.025,76.39166666666667,69.0,66.0
547,76.025,76.40666666666667,67.0,67.0
548,76.025,76.41166666666668,65.0,67.0
549,76.025,76.43666666666667,60.0,63.0
550,76.42500000000001,77.12333333333333,53.0,52.0
551,76.825,77.21666666666667,69.0,63.0
552,76.825,77.21833333333333,65.0,67.0
553,76.825,77.24833333333333,60.0,58.0
554,76.825,77.305,67.0,67.0
555,77.42500000000001,77.77000000000001,53.0,42.0
556,77.625,77.985,67.0,69.0
557,77.625,77.99666666666667,65.0,69.0
558,77.625,78.03166666666667,60.0,70.0
559,77.625,78.05333333333334,69.0,72.0
560,75.22500000000001,78.05666666666667,41.0,66.0
561,78.025,78.37333333333333,53.0,69.0
562,78.42500000000001,78.81500000000001,67.0,63.0
563,78.42500000000001,78.82000000000001,62.0,60.0
564,78.42500000000001,78.82833333333333,64.0,67.0
565,78.42500000000001,79.025,72.0,62.0
566,78.825,79.40333333333334,55.0,58.0
567,79.22500000000001,79.57333333333334,62.0,66.0
568,79.22500000000001,79.625,67.0,72.0
569,79.22500000000001,79.63666666666667,64.0,73.0
570,79.22500000000001,79.68333333333334,60.0,64.0
571,78.42500000000001,79.80666666666667,48.0,75.0
572,79.625,79.86833333333334,55.0,67.0
573,80.025,80.40166666666667,71.0,57.0
574,80.025,80.41666666666667,62.0,60.0
575,80.025,80.43333333333334,67.0,67.0
576,80.42500000000001,80.84333333333333,59.0,58.0
577,80.825,81.08833333333334,71.0,64.0
578,80.825,81.16833333333334,62.0,70.0
579,80.825,81.2,67.0,73.0
580,81.22500000000001,81.30333333333334,59.0,61.0
581,80.025,81.31166666666667,47.0,69.0
582,81.625,81.87,60.0,67.0
583,81.625,81.88000000000001,64.0,64.0
584,81.625,81.94166666666668,69.0,72.0
585,82.025,82.10166666666667,69.0,27.0
586,81.625,82.20666666666668,57.0,69.0
587,82.025,82.26166666666667,60.0,58.0
588,82.22500000000001,82.30333333333334,62.0,45.0
589,82.42500000000001,82.65666666666667,57.0,56.0
590,82.42500000000001,82.73833333333334,60.0,61.0
591,82.42500000000001,82.73833333333334,64.0,70.0
592,82.625,82.77166666666668,69.0,17.0
593,81.625,82.90833333333335,33.0,69.0
594,81.625,82.90833333333335,45.0,69.0
595,83.025,83.19000000000001,60.0,51.0
596,82.825,83.20833333333334,57.0,55.0
597,83.22500000000001,83.62833333333334,64.0,66.0
598,83.22500000000001,83.64666666666668,60.0,66.0
599,83.22500000000001,83.66666666666667,69.0,63.0
600,83.825,83.94166666666668,60.0,70.0
601,83.825,83.96833333333333,64.0,75.0
602,83.625,84.25500000000001,57.0,53.0
603,84.22500000000001,84.38166666666667,62.0,70.0
604,84.22500000000001,84.38333333333334,59.0,66.0
605,84.42500000000001,84.52666666666667,57.0,67.0
606,83.22500000000001,84.59,33.0,63.0
607,83.22500000000001,84.59,45.0,63.0
608,84.825,85.07833333333333,55.0,70.0
609,84.825,85.12166666666667,59.0,63.0
610,84.825,85.14666666666668,62.0,64.0
611,85.025,85.22166666666668,67.0,19.0
612,84.825,85.28166666666667,31.0,75.0
613,84.825,85.28166666666667,43.0,75.0
614,85.22500000000001,85.485,55.0,75.0
615,85.42500000000001,85.51666666666667,43.0,73.0
616,85.625,85.76833333333335,47.0,70.0
617,86.025,86.185,59.0,51.0
618,86.025,86.21166666666667,43.0,70.0
619,86.22500000000001,86.385,62.0,52.0
620,86.22500000000001,86.40666666666667,45.0,67.0
621,86.42500000000001,86.88166666666667,31.0,75.0
622,86.42500000000001,86.88666666666667,67.0,69.0
623,86.42500000000001,86.935,59.0,63.0
624,86.42500000000001,86.93833333333333,62.0,44.0
625,87.22500000000001,87.35666666666667,59.0,69.0
626,87.025,87.42666666666668,55.0,64.0
627,87.42500000000001,87.655,62.0,69.0
628,87.625,87.72,55.0,64.0
629,86.42500000000001,87.73333333333333,43.0,69.0
630,87.625,87.73666666666668,67.0,72.0
631,86.825,87.75666666666667,50.0,54.0
632,88.025,88.31500000000001,62.0,67.0
633,88.025,88.31666666666668,65.0,70.0
634,88.025,88.33666666666667,70.0,72.0
635,88.42500000000001,88.52333333333334,60.0,52.0
636,88.42500000000001,88.555,69.0,66.0
637,88.625,88.72666666666667,65.0,70.0
638,88.625,88.765,58.0,60.0
639,88.625,88.88000000000001,62.0,58.0
640,88.625,88.90333333333334,70.0,91.0
641,88.825,89.03333333333335,58.0,69.0
642,89.025,89.06666666666668,65.0,44.0
643,89.025,89.12,60.0,57.0
644,89.025,89.13333333333334,69.0,72.0
645,88.025,89.33166666666668,34.0,78.0
646,88.025,89.33166666666668,46.0,78.0
647,88.22500000000001,89.465,53.0,62.0
648,89.42500000000001,90.06,60.0,67.0
649,89.42500000000001,90.08666666666667,65.0,69.0
650,90.22500000000001,90.37333333333333,60.0,66.0
651,90.025,90.49000000000001,58.0,73.0
652,90.42500000000001,90.53333333333335,60.0,59.0
653,89.825,90.75,53.0,67.0
654,90.625,90.765,58.0,80.0
655,90.42500000000001,90.78,65.0,67.0
656,89.625,90.82166666666667,34.0,76.0
657,89.625,90.82166666666667,46.0,76.0
658,90.825,91.03166666666667,60.0,59.0
659,91.025,91.43666666666667,72.0,73.0
660,91.22500000000001,91.51,62.0,78.0
661,91.22500000000001,91.52666666666667,71.0,62.0
662,91.22500000000001,91.54166666666667,67.0,78.0
663,91.22500000000001,91.61333333333334,55.0,78.0
664,91.625,91.87666666666668,62.0,60.0
665,91.625,91.95666666666668,69.0,62.0
666,92.025,92.095,67.0,61.0
667,91.825,92.14666666666668,55.0,60.0
668,92.025,92.17333333333335,62.0,70.0
669,92.025,92.33666666666667,71.0,70.0
670,92.22500000000001,92.37,55.0,70.0
671,92.42500000000001,92.50500000000001,67.0,64.0
672,92.42500000000001,92.53166666666667,62.0,69.0
673,92.42500000000001,92.55666666666667,72.0,69.0
674,92.42500000000001,92.64833333333334,55.0,63.0
675,91.22500000000001,92.66666666666667,31.0,73.0
676,91.22500000000001,92.66666666666667,43.0,73.0
677,92.825,92.96000000000001,55.0,58.0
678,92.825,93.09166666666667,74.0,80.0
679,92.825,93.12,67.0,75.0
680,93.22500000000001,93.48166666666667,55.0,54.0
681,93.22500000000001,93.52833333333334,72.0,76.0
682,93.22500000000001,93.54666666666667,67.0,75.0
683,93.625,93.86333333333334,55.0,63.0
684,93.625,93.87,62.0,82.0
685,93.625,94.04666666666667,71.0,69.0
686,92.825,94.055,31.0,73.0
687,92.825,94.055,43.0,73.0
688,94.025,94.105,67.0,72.0
689,94.025,94.10666666666667,62.0,57.0
690,94.025,94.13666666666667,55.0,91.0
691,94.42500000000001,94.72833333333334,69.0,70.0
692,94.42500000000001,94.74666666666667,61.0,80.0
693,94.42500000000001,94.75333333333334,33.0,75.0
694,94.42500000000001,94.75333333333334,45.0,75.0
695,94.42500000000001,94.76,57.0,70.0
696,94.42500000000001,94.76833333333335,64.0,78.0
697,94.825,95.09,69.0,69.0
698,94.825,95.10166666666667,57.0,58.0
699,94.825,95.11,61.0,73.0
700,94.825,95.13000000000001,64.0,69.0
701,94.825,95.13333333333334,33.0,53.0
702,94.825,95.13333333333334,45.0,53.0
703,95.22500000000001,95.47333333333334,69.0,75.0
704,95.22500000000001,95.47833333333334,57.0,61.0
705,95.22500000000001,95.48,61.0,69.0
706,95.22500000000001,95.48833333333334,64.0,64.0
707,95.22500000000001,95.49166666666667,33.0,62.0
708,95.22500000000001,95.49166666666667,45.0,62.0
709,95.625,95.89500000000001,69.0,67.0
710,95.625,95.90333333333334,57.0,61.0
711,95.625,95.91000000000001,33.0,66.0
712,95.625,95.91000000000001,45.0,66.0
713,95.625,95.91833333333334,64.0,63.0
714,95.625,95.92166666666667,61.0,63.0
715,96.025,97.03833333333334,61.0,73.0
716,96.825,97.03833333333334,61.0,70.0
717,96.025,97.055,64.0,73.0
718,96.025,97.05666666666667,57.0,78.0
719,96.825,97.05666666666667,57.0,72.0
720,96.025,97.05833333333334,69.0,76.0
721,96.025,97.10333333333334,33.0,72.0
722,96.825,97.10333333333334,33.0,75.0
723,96.025,97.10333333333334,45.0,72.0
724,96.825,97.10333333333334,45.0,75.0
725,97.025,97.24000000000001,62.0,36.0
726,97.22500000000001,97.28500000000001,57.0,46.0
727,97.025,97.305,59.0,66.0
728,97.22500000000001,97.33666666666667,64.0,78.0
729,97.625,97.885,62.0,78.0
730,97.625,97.885,69.0,78.0
731,97.625,97.89333333333335,66.0,82.0
732,98.025,98.14,62.0,51.0
733,97.825,98.25,57.0,63.0
734,98.22500000000001,98.61,69.0,75.0
735,98.22500000000001,98.63833333333334,62.0,70.0
736,98.22500000000001,98.64500000000001,66.0,78.0
737,97.625,98.92166666666667,38.0,80.0
738,97.625,98.92166666666667,50.0,80.0
739,98.825,98.96000000000001,62.0,47.0
740,98.625,99.08166666666668,57.0,69.0
741,99.025,99.47833333333334,69.0,75.0
742,99.025,99.49166666666667,62.0,66.0
743,99.025,99.52166666666668,66.0,80.0
744,99.625,99.73833333333334,62.0,60.0
745,99.42500000000001,99.9,57.0,57.0
746,99.825,100.11333333333334,62.0,75.0
747,99.825,100.135,69.0,76.0
748,100.025,100.275,57.0,64.0
749,99.825,100.29,66.0,76.0
750,99.22500000000001,100.35333333333334,38.0,69.0
751,99.22500000000001,100.35333333333334,50.0,69.0
752,100.22500000000001,100.55333333333334,62.0,73.0
753,100.625,100.72666666666667,69.0,64.0
754,100.42500000000001,100.76333333333334,66.0,62.0
755,100.825,101.19166666666668,61.0,82.0
756,100.825,101.22833333333334,64.0,80.0
757,100.825,101.24666666666667,69.0,45.0
758,101.22500000000001,101.485,57.0,51.0
759,101.42500000000001,101.62,64.0,78.0
760,101.42500000000001,101.85166666666667,61.0,73.0
761,101.42500000000001,101.875,69.0,64.0
762,100.825,102.12333333333333,33.0,70.0
763,100.825,102.12333333333333,45.0,70.0
764,102.025,102.16333333333334,61.0,67.0
765,101.825,102.17,57.0,63.0
766,102.025,102.19500000000001,67.0,62.0
767,101.025,102.28,52.0,66.0
768,102.22500000000001,102.63833333333334,64.0,76.0
769,102.22500000000001,102.64,69.0,70.0
770,102.22500000000001,102.64333333333335,61.0,66.0
771,102.825,102.97500000000001,61.0,60.0
772,102.625,103.07833333333333,57.0,75.0
773,103.025,103.30000000000001,69.0,82.0
774,103.025,103.30333333333334,61.0,76.0
775,103.025,103.305,64.0,80.0
776,102.42500000000001,103.35333333333334,33.0,70.0
777,102.42500000000001,103.35333333333334,45.0,70.0
778,103.22500000000001,103.36833333333334,57.0,58.0
779,103.42500000000001,103.47666666666667,69.0,37.0
780,103.42500000000001,103.59833333333334,61.0,62.0
781,103.625,103.76666666666668,69.0,62.0
782,103.625,103.80666666666667,34.0,91.0
783,103.625,103.80666666666667,46.0,91.0
784,103.825,103.94833333333334,66.0,57.0
785,104.025,104.265,62.0,69.0
786,104.025,104.29666666666667,66.0,76.0
787,104.025,104.30666666666667,69.0,70.0
788,104.42500000000001,104.55333333333334,62.0,58.0
789,104.22500000000001,104.68,59.0,62.0
790,104.625,104.85333333333334,62.0,70.0
791,104.625,104.92833333333334,66.0,75.0
792,104.625,104.94166666666668,69.0,78.0
793,105.025,105.14166666666668,67.0,54.0
794,105.025,105.14833333333334,62.0,64.0
795,104.025,105.44166666666668,35.0,80.0
796,104.025,105.44166666666668,47.0,80.0
797,104.825,105.46000000000001,59.0,60.0
798,105.42500000000001,105.70500000000001,66.0,51.0
799,105.42500000000001,105.85333333333334,62.0,78.0
800,105.42500000000001,105.85333333333334,69.0,78.0
801,106.025,106.13000000000001,62.0,57.0
802,105.825,106.28500000000001,59.0,75.0
803,106.22500000000001,106.55166666666668,69.0,76.0
804,106.22500000000001,106.63833333333334,62.0,75.0
805,106.22500000000001,106.655,66.0,67.0
806,106.625,106.84833333333334,59.0,61.0
807,105.625,106.89,35.0,70.0
808,105.625,106.89,47.0,70.0
809,106.825,106.94000000000001,66.0,67.0
810,106.825,107.08000000000001,62.0,76.0
811,106.825,107.08000000000001,69.0,70.0
812,107.025,107.10333333333334,66.0,73.0
813,107.22500000000001,107.405,55.0,75.0
814,107.22500000000001,107.48666666666668,59.0,75.0
815,107.22500000000001,107.49666666666667,62.0,72.0
816,107.22500000000001,107.64,67.0,78.0
817,107.625,107.86833333333334,55.0,40.0
818,107.825,107.99000000000001,57.0,80.0
819,107.825,108.07666666666667,66.0,76.0
820,108.025,108.24333333333334,55.0,44.0
821,108.22500000000001,108.34666666666668,62.0,72.0
822,108.22500000000001,108.38333333333334,59.0,67.0
823,107.22500000000001,108.68833333333335,31.0,76.0
824,107.22500000000001,108.68833333333335,43.0,76.0
825,108.22500000000001,108.77333333333334,67.0,72.0
826,108.625,108.78833333333334,55.0,69.0
827,109.22500000000001,109.34166666666667,57.0,76.0
828,109.22500000000001,109.38166666666667,66.0,93.0
829,109.025,109.44333333333334,55.0,76.0
830,109.42500000000001,109.67,67.0,63.0
831,109.42500000000001,109.68833333333335,62.0,64.0
832,109.625,109.83333333333334,55.0,56.0
833,109.825,109.92166666666667,59.0,72.0
834,109.825,109.96166666666667,66.0,78.0
835,108.825,109.98166666666667,31.0,72.0
836,108.825,109.98166666666667,43.0,72.0
837,110.025,110.31500000000001,55.0,76.0
838,110.22500000000001,110.31500000000001,62.0,33.0
839,110.42500000000001,110.58833333333334,62.0,70.0
840,110.42500000000001,110.83166666666668,66.0,95.0
841,111.025,111.16666666666667,64.0,67.0
842,110.825,111.26833333333335,62.0,66.0
843,111.22500000000001,111.36833333333334,66.0,66.0
844,111.42500000000001,111.48166666666667,66.0,43.0
845,110.42500000000001,111.70166666666667,38.0,70.0
846,110.42500000000001,111.70166666666667,50.0,70.0
847,111.42500000000001,111.73833333333334,74.0,73.0
848,110.625,111.84833333333334,57.0,59.0
849,111.825,112.055,69.0,73.0
850,111.62500000000001,112.16833333333334,62.0,52.0
851,112.42500000000001,112.54666666666667,62.0,60.0
852,112.42500000000001,112.555,66.0,76.0
853,112.22500000000001,112.68,57.0,62.0
854,112.62500000000001,112.89166666666668,67.0,70.0
855,112.62500000000001,112.91000000000001,64.0,67.0
856,112.825,113.02166666666668,57.0,60.0
857,113.025,113.20166666666667,66.0,70.0
858,113.025,113.25500000000001,62.0,75.0
859,113.025,113.27000000000001,69.0,72.0
860,113.22500000000001,113.31833333333334,57.0,59.0
861,112.025,113.33666666666667,38.0,73.0
862,112.025,113.33666666666667,50.0,73.0
863,113.62500000000001,113.97666666666667,64.0,78.0
864,113.62500000000001,114.025,61.0,91.0
865,113.62500000000001,114.03,69.0,69.0
866,114.025,114.30166666666668,57.0,58.0
867,114.22500000000001,114.31166666666667,61.0,76.0
868,114.22500000000001,114.34666666666668,59.0,76.0
869,114.42500000000001,114.73500000000001,57.0,49.0
870,114.62500000000001,114.78,62.0,69.0
871,113.62500000000001,114.885,33.0,69.0
872,113.62500000000001,114.885,45.0,69.0
873,114.825,114.92833333333334,52.0,46.0
874,115.025,115.09333333333333,61.0,78.0
875,115.025,115.12500000000001,64.0,75.0
876,115.62500000000001,115.69500000000001,57.0,91.0
877,115.62500000000001,115.70666666666668,69.0,82.0
878,115.825,115.9,59.0,78.0
879,115.825,115.90333333333334,71.0,78.0
880,115.42500000000001,116.01,52.0,51.0
881,116.025,116.22500000000001,55.0,43.0
882,116.025,116.24166666666667,57.0,44.0
883,116.22500000000001,116.30166666666668,61.0,69.0
884,116.22500000000001,116.33333333333334,73.0,62.0
885,115.22500000000001,116.41000000000001,33.0,66.0
886,115.22500000000001,116.41000000000001,45.0,66.0
887,116.42500000000001,116.52166666666668,52.0,63.0
888,116.825,117.25833333333334,62.0,70.0
889,116.825,117.25833333333334,66.0,63.0
890,116.825,117.27666666666667,59.0,59.0
891,117.42500000000001,117.805,54.0,67.0
892,117.62500000000001,117.95,59.0,76.0
893,117.62500000000001,117.97166666666668,62.0,72.0
894,117.62500000000001,117.97333333333334,66.0,78.0
895,116.825,118.05333333333334,35.0,64.0
896,116.825,118.05333333333334,47.0,64.0
897,118.025,118.26166666666667,54.0,66.0
898,118.22500000000001,118.32000000000001,57.0,67.0
899,118.22500000000001,118.32666666666667,62.0,69.0
900,118.22500000000001,118.33333333333334,66.0,64.0
901,118.42500000000001,118.67166666666668,59.0,70.0
902,118.42500000000001,118.73500000000001,66.0,73.0
903,118.825,118.9,64.0,67.0
904,118.825,118.91666666666667,57.0,47.0
905,119.025,119.31666666666668,57.0,67.0
906,119.025,119.35833333333333,64.0,80.0
907,119.22500000000001,119.435,54.0,57.0
908,119.42500000000001,119.58500000000001,57.0,76.0
909,119.42500000000001,119.60833333333333,62.0,78.0
910,118.22500000000001,119.67833333333334,35.0,61.0
911,118.22500000000001,119.67833333333334,47.0,61.0
912,119.62500000000001,119.70500000000001,54.0,57.0
913,119.825,119.90166666666667,62.0,39.0
914,120.025,120.23166666666667,59.0,78.0
915,120.025,120.25333333333334,55.0,73.0
916,120.025,120.325,67.0,76.0
917,120.025,120.36000000000001,62.0,66.0
918,120.42500000000001,120.53500000000001,57.0,60.0
919,120.42500000000001,120.62833333333334,66.0,67.0
920,120.62500000000001,120.75000000000001,59.0,69.0
921,120.62500000000001,120.78833333333334,62.0,72.0
922,120.62500000000001,120.905,67.0,80.0
923,121.025,121.11666666666667,57.0,64.0
924,120.825,121.11833333333334,55.0,64.0
925,121.025,121.165,66.0,72.0
926,120.025,121.38333333333334,31.0,75.0
927,120.025,121.38333333333334,43.0,75.0
928,121.42500000000001,121.85000000000001,57.0,64.0
929,121.42500000000001,121.86500000000001,62.0,73.0
930,122.025,122.16000000000001,57.0,69.0
931,121.62500000000001,122.29666666666668,31.0,73.0
932,121.62500000000001,122.29666666666668,43.0,73.0
933,121.825,122.32333333333334,55.0,80.0
934,122.22500000000001,122.37666666666668,62.0,53.0
935,122.42500000000001,122.71833333333335,66.0,82.0
936,122.42500000000001,122.75833333333334,33.0,70.0
937,122.42500000000001,122.75833333333334,45.0,70.0
938,122.825,122.94833333333334,61.0,70.0
939,122.825,122.96000000000001,33.0,57.0
940,122.825,122.96000000000001,45.0,57.0
941,122.825,122.97666666666667,57.0,16.0
942,123.22500000000001,123.59166666666667,66.0,75.0
943,123.22500000000001,123.60666666666667,50.0,75.0
944,123.22500000000001,123.64000000000001,57.0,76.0
945,123.22500000000001,123.66166666666668,62.0,75.0
946,123.825,124.21666666666667,50.0,40.0
947,124.025,124.47666666666667,57.0,72.0
948,124.025,124.47666666666667,62.0,67.0
949,124.025,124.50166666666668,66.0,73.0
950,124.42500000000001,124.85666666666667,50.0,43.0
951,124.825,124.89500000000001,62.0,75.0
952,124.825,124.90666666666668,57.0,75.0
953,124.825,124.91666666666667,66.0,76.0
954,123.22500000000001,124.93,26.0,75.0
955,123.22500000000001,124.93,38.0,75.0
956,126.42500000000001,126.62333333333333,67.0,72.0
957,126.42500000000001,126.74833333333333,72.0,73.0
958,126.62500000000001,126.87500000000001,64.0,46.0
959,126.42500000000001,126.93,36.0,69.0
960,126.42500000000001,126.94500000000001,48.0,66.0
961,126.825,127.08833333333334,67.0,61.0
962,127.025,127.45500000000001,72.0,73.0
963,127.025,127.48500000000001,64.0,43.0
964,127.025,127.56333333333335,36.0,66.0
965,127.025,127.57000000000001,48.0,70.0
966,127.42500000000001,127.67500000000001,67.0,60.0
967,127.62500000000001,128.04333333333335,72.0,70.0
968,127.825,128.095,64.0,48.0
969,127.62500000000001,128.15,36.0,62.0
970,127.62500000000001,128.15833333333333,48.0,64.0
971,128.025,128.285,67.0,56.0
972,128.225,128.63666666666668,72.0,72.0
973,128.425,128.69500000000002,64.0,50.0
974,128.225,128.735,48.0,70.0
975,128.225,128.74,36.0,70.0
976,128.625,128.91166666666666,67.0,59.0
977,128.82500000000002,129.09,72.0,73.0
978,128.82500000000002,129.13666666666668,36.0,64.0
979,128.82500000000002,129.14666666666668,48.0,66.0
980,129.025,129.27166666666668,64.0,56.0
981,129.225,129.29833333333335,48.0,59.0
982,129.225,129.36166666666668,36.0,75.0
983,129.225,129.39666666666668,67.0,67.0
984,129.425,129.73000000000002,72.0,73.0
985,129.625,129.90333333333334,71.0,61.0
986,129.82500000000002,130.13500000000002,62.0,49.0
987,129.625,130.14333333333335,31.0,69.0
988,129.625,130.16833333333335,43.0,76.0
989,130.025,130.17166666666668,67.0,53.0
990,130.225,130.48000000000002,71.0,72.0
991,130.225,130.68333333333334,31.0,75.0
992,130.225,130.70666666666668,43.0,70.0
993,130.425,130.72,62.0,43.0
994,130.625,130.79333333333335,67.0,62.0
995,130.82500000000002,131.10666666666668,69.0,69.0
996,131.025,131.31,62.0,48.0
997,130.82500000000002,131.33833333333334,31.0,73.0
998,131.225,131.345,67.0,56.0
999,130.82500000000002,131.36166666666668,43.0,67.0
1000,131.425,131.85,62.0,45.0
1001,131.425,131.87333333333333,74.0,60.0
1002,131.425,131.895,31.0,70.0
1003,131.425,131.91500000000002,43.0,63.0
1004,131.82500000000002,132.00333333333333,67.0,60.0
1005,132.025,132.24833333333333,69.0,61.0
1006,132.025,132.32666666666668,43.0,63.0
1007,132.225,132.41666666666669,62.0,55.0
1008,132.025,132.55333333333334,31.0,66.0
1009,132.425,132.61666666666667,43.0,78.0
1010,132.425,132.64833333333334,67.0,66.0
1011,132.625,132.84833333333333,69.0,64.0
1012,132.82500000000002,133.09333333333333,72.0,64.0
1013,133.025,133.3216666666667,64.0,49.0
1014,132.82500000000002,133.33833333333334,33.0,69.0
1015,132.82500000000002,133.36,45.0,76.0
1016,133.22500000000002,133.45666666666668,67.0,59.0
1017,133.425,133.55166666666668,72.0,48.0
1018,133.425,133.625,69.0,36.0
1019,133.425,133.84666666666666,33.0,72.0
1020,133.625,133.86333333333334,64.0,53.0
1021,133.425,133.88666666666668,45.0,70.0
1022,133.82500000000002,134.07666666666668,67.0,58.0
1023,134.025,134.22500000000002,69.0,60.0
1024,134.22500000000002,134.4766666666667,64.0,48.0
1025,134.025,134.54666666666668,33.0,70.0
1026,134.025,134.57000000000002,45.0,66.0
1027,134.425,134.65166666666667,67.0,57.0
1028,134.625,134.9466666666667,72.0,75.0
1029,134.82500000000002,135.08166666666668,64.0,48.0
1030,134.625,135.11333333333334,33.0,69.0
1031,134.625,135.13333333333335,45.0,67.0
1032,135.025,135.32500000000002,67.0,58.0
1033,135.22500000000002,135.51166666666668,33.0,70.0
1034,135.22500000000002,135.53333333333333,45.0,64.0
1035,135.22500000000002,135.55166666666668,72.0,76.0
1036,135.425,135.6316666666667,64.0,60.0
1037,135.625,135.77166666666668,33.0,73.0
1038,135.625,135.88666666666668,67.0,59.0
1039,135.82500000000002,136.30666666666667,69.0,64.0
1040,136.22500000000002,136.48333333333335,60.0,48.0
1041,136.025,136.49833333333333,29.0,66.0
1042,136.025,136.51166666666668,41.0,91.0
1043,136.425,136.66666666666669,65.0,60.0
1044,136.625,136.85666666666668,67.0,60.0
1045,136.625,137.07000000000002,29.0,67.0
1046,136.82500000000002,137.08166666666668,60.0,50.0
1047,136.625,137.10666666666668,41.0,72.0
1048,137.025,137.18333333333334,65.0,62.0
1049,137.22500000000002,137.46,69.0,57.0
1050,137.425,137.685,60.0,52.0
1051,137.22500000000002,137.715,29.0,67.0
1052,137.625,137.755,65.0,67.0
1053,137.22500000000002,137.76000000000002,41.0,67.0
1054,137.82500000000002,138.01000000000002,67.0,67.0
1055,138.025,138.24666666666667,60.0,53.0
1056,137.82500000000002,138.32500000000002,29.0,73.0
1057,137.82500000000002,138.345,41.0,67.0
1058,138.22500000000002,138.41500000000002,65.0,62.0
1059,138.425,138.67166666666668,69.0,64.0
1060,138.425,138.72333333333333,41.0,67.0
1061,138.625,138.78,60.0,55.0
1062,138.425,138.88833333333335,29.0,69.0
1063,138.82500000000002,138.98000000000002,41.0,78.0
1064,138.82500000000002,139.0716666666667,65.0,67.0
1065,139.025,139.215,67.0,64.0
1066,139.22500000000002,139.52666666666667,72.0,64.0
1067,139.425,139.72,62.0,53.0
1068,139.22500000000002,139.72500000000002,36.0,75.0
1069,139.625,139.76166666666668,64.0,63.0
1070,139.82500000000002,140.12,67.0,61.0
1071,140.025,140.32500000000002,62.0,51.0
1072,139.82500000000002,140.365,36.0,72.0
1073,139.82500000000002,140.37,48.0,88.0
1074,140.22500000000002,140.39833333333334,64.0,64.0
1075,140.425,140.78166666666667,72.0,69.0
1076,140.625,140.78333333333333,62.0,53.0
1077,140.425,140.87833333333333,36.0,72.0
1078,140.425,140.90666666666667,48.0,72.0
1079,140.82500000000002,140.99333333333334,64.0,55.0
1080,141.025,141.15333333333334,67.0,62.0
1081,141.025,141.38666666666668,72.0,57.0
1082,141.22500000000002,141.48000000000002,64.0,52.0
1083,141.025,141.48666666666668,36.0,73.0
1084,141.025,141.525,48.0,73.0
1085,141.425,141.64333333333335,67.0,59.0
1086,141.625,141.89000000000001,72.0,67.0
1087,141.625,141.91666666666669,36.0,72.0
1088,141.625,141.95166666666668,48.0,69.0
1089,141.82500000000002,142.08666666666667,64.0,56.0
1090,142.025,142.09833333333333,48.0,62.0
1091,142.025,142.17000000000002,36.0,76.0
1092,142.025,142.19166666666666,67.0,61.0
1093,142.22500000000002,142.66,72.0,69.0
1094,142.425,142.66666666666669,71.0,63.0
1095,142.625,142.905,62.0,51.0
1096,142.425,142.92833333333334,43.0,66.0
1097,142.425,142.93166666666667,31.0,58.0
1098,142.82500000000002,142.95666666666668,67.0,57.0
1099,143.025,143.29833333333335,69.0,61.0
1100,143.22500000000002,143.48833333333334,62.0,44.0
1101,143.025,143.53166666666667,31.0,76.0
1102,143.025,143.53666666666666,43.0,72.0
1103,143.425,143.60666666666668,67.0,62.0
1104,143.625,144.02833333333334,74.0,64.0
1105,143.82500000000002,144.07833333333335,62.0,44.0
1106,143.625,144.10000000000002,31.0,75.0
1107,143.625,144.11666666666667,43.0,72.0
1108,144.025,144.16,67.0,57.0
1109,144.22500000000002,144.43666666666667,69.0,61.0
1110,144.22500000000002,144.705,31.0,72.0
1111,144.425,144.70666666666668,62.0,47.0
1112,144.22500000000002,144.71166666666667,43.0,66.0
1113,144.625,144.86833333333334,67.0,60.0
1114,144.82500000000002,145.07000000000002,71.0,59.0
1115,144.82500000000002,145.13666666666668,43.0,60.0
1116,145.025,145.27666666666667,72.0,62.0
1117,144.82500000000002,145.39000000000001,31.0,67.0
1118,145.22500000000002,145.39833333333334,71.0,66.0
1119,145.22500000000002,145.41833333333335,43.0,78.0
1120,145.425,145.57833333333335,67.0,61.0
1121,145.625,145.81666666666666,69.0,60.0
1122,145.82500000000002,146.11833333333334,60.0,41.0
1123,145.625,146.13500000000002,33.0,72.0
1124,145.625,146.15333333333334,45.0,80.0
1125,146.025,146.2266666666667,64.0,52.0
1126,146.22500000000002,146.62666666666667,69.0,72.0
1127,146.425,146.66,60.0,44.0
1128,146.22500000000002,146.66500000000002,33.0,73.0
1129,146.22500000000002,146.68,45.0,70.0
1130,146.625,146.79333333333335,64.0,61.0
1131,146.82500000000002,147.03166666666667,67.0,57.0
1132,147.025,147.16,60.0,45.0
1133,146.82500000000002,147.315,33.0,69.0
1134,146.82500000000002,147.32833333333335,45.0,63.0
1135,147.22500000000002,147.36666666666667,64.0,60.0
1136,147.425,147.69,69.0,64.0
1137,147.625,147.79000000000002,60.0,52.0
1138,147.425,147.91333333333336,33.0,73.0
1139,147.425,147.935,45.0,75.0
1140,147.82500000000002,147.97500000000002,64.0,59.0
1141,148.025,148.24166666666667,67.0,75.0
1142,148.025,148.2566666666667,33.0,73.0
1143,148.025,148.28166666666667,45.0,69.0
1144,148.22500000000002,148.34333333333333,60.0,50.0
1145,148.425,148.55,45.0,67.0
1146,148.425,148.63666666666668,33.0,76.0
1147,148.425,148.65166666666667,64.0,61.0
1148,148.625,148.79833333333335,67.0,64.0
1149,148.82500000000002,149.06,69.0,53.0
1150,149.025,149.22,60.0,49.0
1151,148.82500000000002,149.31833333333336,29.0,75.0
1152,148.82500000000002,149.32833333333335,41.0,91.0
1153,149.22500000000002,149.38333333333335,65.0,54.0
1154,149.425,149.63666666666668,67.0,63.0
1155,149.625,149.79000000000002,60.0,49.0
1156,149.425,149.865,29.0,69.0
1157,149.425,149.88500000000002,41.0,73.0
1158,149.82500000000002,150.005,65.0,61.0
1159,150.025,150.315,69.0,64.0
1160,150.22500000000002,150.46666666666667,60.0,59.0
1161,150.025,150.52333333333334,29.0,73.0
1162,150.025,150.55,41.0,73.0
1163,150.425,150.59,65.0,54.0
1164,150.625,150.9116666666667,69.0,67.0
1165,150.82500000000002,150.99,60.0,51.0
1166,150.625,151.12166666666667,29.0,72.0
1167,150.625,151.145,41.0,69.0
1168,151.025,151.24166666666667,65.0,50.0
1169,151.22500000000002,151.43333333333334,41.0,73.0
1170,151.22500000000002,151.455,69.0,64.0
1171,151.22500000000002,151.63333333333335,29.0,75.0
1172,151.425,151.675,60.0,53.0
1173,151.625,151.74666666666667,41.0,75.0
1174,151.625,151.845,65.0,58.0
1175,151.82500000000002,152.01333333333335,69.0,69.0
1176,152.025,153.35833333333335,60.0,82.0
1177,152.025,153.44166666666666,67.0,70.0
1178,152.025,153.48333333333335,36.0,60.0
1179,152.025,153.48333333333335,48.0,60.0
1180,152.22500000000002,153.495,62.0,38.0
1181,152.025,153.5,64.0,78.0
1182,154.4,154.595,76.0,86.0
1183,154.40333333333334,154.61666666666667,72.0,82.0
1184,154.39666666666668,154.62,69.0,84.0
1185,154.40333333333334,154.64333333333335,64.0,84.0
1186,154.40666666666667,154.65833333333333,36.0,90.0
1187,154.40666666666667,154.66500000000002,48.0,90.0
1188,154.82000000000002,155.15666666666667,62.0,83.0
1189,154.81,155.17333333333335,74.0,87.0
1190,154.82000000000002,155.19166666666666,71.0,79.0
1191,154.82000000000002,155.20166666666668,67.0,79.0
1192,154.82000000000002,155.215,35.0,90.0
1193,154.82000000000002,155.21666666666667,47.0,92.0
1194,155.22500000000002,155.49,69.0,66.0
1195,155.22500000000002,155.5,64.0,66.0
1196,155.22500000000002,155.51500000000001,72.0,72.0
1197,155.22500000000002,155.79000000000002,45.0,62.0
1198,155.625,155.89666666666668,69.0,60.0
1199,155.82500000000002,155.95666666666668,64.0,55.0
1200,155.82500000000002,156.04500000000002,71.0,67.0
1201,156.025,156.32833333333335,64.0,69.0
1202,156.025,156.33,72.0,72.0
1203,156.025,156.6316666666667,45.0,56.0
1204,155.22500000000002,156.65,33.0,64.0
1205,156.425,156.72,69.0,66.0
1206,156.625,156.77333333333334,71.0,70.0
1207,156.82500000000002,157.16666666666669,64.0,64.0
1208,156.82500000000002,157.16666666666669,72.0,69.0
1209,156.82500000000002,157.17666666666668,69.0,62.0
1210,157.22500000000002,157.39833333333334,64.0,63.0
1211,157.025,157.47,45.0,57.0
1212,157.425,157.6616666666667,64.0,57.0
1213,157.425,157.71333333333334,69.0,69.0
1214,157.625,157.83166666666668,45.0,62.0
1215,157.82500000000002,157.97,64.0,66.0
1216,156.82500000000002,158.04666666666668,33.0,73.0
1217,158.025,158.115,45.0,60.0
1218,157.82500000000002,158.31166666666667,72.0,76.0
1219,158.425,158.6316666666667,67.0,60.0
1220,158.425,158.66333333333336,62.0,64.0
1221,158.425,158.67333333333335,43.0,75.0
1222,158.425,158.70166666666668,31.0,70.0
1223,158.425,158.70833333333334,71.0,72.0
1224,158.82500000000002,158.93333333333334,43.0,61.0
1225,158.82500000000002,158.95666666666668,62.0,48.0
1226,158.82500000000002,158.97500000000002,67.0,53.0
1227,159.025,159.12166666666667,45.0,66.0
1228,159.025,159.12166666666667,62.0,41.0
1229,159.025,159.205,69.0,58.0
1230,159.22500000000002,159.37333333333333,47.0,72.0
1231,159.22500000000002,159.51000000000002,62.0,63.0
1232,159.22500000000002,159.54000000000002,71.0,75.0
1233,159.625,159.71833333333333,43.0,66.0
1234,159.625,159.745,31.0,63.0
1235,159.625,159.76833333333335,62.0,48.0
1236,159.625,159.79166666666669,67.0,56.0
1237,159.82500000000002,159.875,45.0,59.0
1238,159.82500000000002,159.9466666666667,33.0,64.0
1239,159.82500000000002,159.97833333333335,69.0,63.0
1240,160.025,160.335,43.0,73.0
1241,160.025,160.39166666666668,71.0,67.0
1242,160.025,160.485,67.0,60.0
1243,160.025,160.6616666666667,62.0,64.0
1244,160.625,160.87,43.0,58.0
1245,160.82500000000002,161.05,67.0,76.0
1246,160.82500000000002,161.06166666666667,62.0,72.0
1247,160.82500000000002,161.07833333333335,71.0,78.0
1248,160.025,161.205,31.0,76.0
1249,161.025,161.20666666666668,43.0,67.0
1250,161.22500000000002,161.39166666666668,62.0,49.0
1251,161.425,161.59,67.0,53.0
1252,161.625,161.97166666666666,41.0,72.0
1253,162.025,162.14000000000001,67.0,33.0
1254,161.625,162.16333333333336,60.0,64.0
1255,161.625,162.16500000000002,65.0,72.0
1256,161.625,162.16833333333335,69.0,67.0
1257,162.22500000000002,162.56,41.0,49.0
1258,162.425,162.79166666666669,69.0,66.0
1259,162.425,162.80666666666667,67.0,67.0
1260,162.425,162.81166666666667,65.0,67.0
1261,162.425,162.83666666666667,60.0,63.0
1262,162.82500000000002,163.52333333333334,41.0,52.0
1263,163.22500000000002,163.61666666666667,69.0,63.0
1264,163.22500000000002,163.61833333333334,65.0,67.0
1265,163.22500000000002,163.64833333333334,60.0,58.0
1266,163.22500000000002,163.705,67.0,67.0
1267,163.82500000000002,164.17000000000002,41.0,42.0
1268,164.025,164.38500000000002,67.0,69.0
1269,164.025,164.39666666666668,65.0,69.0
1270,164.025,164.43166666666667,60.0,70.0
1271,164.025,164.45333333333335,69.0,72.0
1272,161.625,164.45666666666668,29.0,66.0
1273,164.425,164.77333333333334,41.0,69.0
1274,164.82500000000002,165.215,67.0,63.0
1275,164.82500000000002,165.22,62.0,60.0
1276,164.82500000000002,165.22833333333335,64.0,67.0
1277,164.82500000000002,165.425,72.0,62.0
1278,164.82500000000002,165.60000000000002,36.0,75.0
1279,165.22500000000002,165.63333333333335,43.0,58.0
1280,165.63333333333335,165.91666666666669,47.0,65.0
1281,165.63333333333335,165.91833333333335,67.0,74.0
1282,165.63333333333335,165.93166666666667,64.0,69.0
1283,165.63333333333335,165.94500000000002,71.0,75.0
1284,165.63333333333335,166.0666666666667,35.0,75.0
1285,166.025,166.26833333333335,43.0,67.0
1286,166.025,166.40166666666667,71.0,57.0
1287,166.025,166.41666666666669,62.0,60.0
1288,166.025,166.43333333333334,67.0,67.0
1289,166.82500000000002,167.24333333333334,47.0,58.0
1290,166.025,167.31166666666667,31.0,69.0
1291,167.22500000000002,167.48833333333334,71.0,64.0
1292,167.22500000000002,167.56833333333336,62.0,70.0
1293,167.22500000000002,167.60000000000002,67.0,73.0
1294,167.625,167.70333333333335,47.0,61.0
1295,168.025,168.27,60.0,67.0
1296,168.025,168.28,64.0,64.0
1297,168.025,168.34166666666667,69.0,72.0
1298,168.425,168.50166666666667,69.0,27.0
1299,168.025,168.60666666666668,45.0,69.0
1300,168.425,168.6616666666667,60.0,58.0
1301,168.625,168.70333333333335,62.0,45.0
1302,168.82500000000002,169.05666666666667,45.0,56.0
1303,168.82500000000002,169.13833333333335,60.0,61.0
1304,168.82500000000002,169.13833333333335,64.0,70.0
1305,169.025,169.17166666666668,69.0,17.0
1306,168.025,169.30833333333334,33.0,69.0
1307,169.425,169.59,60.0,51.0
1308,169.22500000000002,169.60833333333335,45.0,55.0
1309,169.625,170.02833333333334,64.0,66.0
1310,169.625,170.04666666666668,60.0,66.0
1311,169.625,170.0666666666667,69.0,63.0
1312,170.22500000000002,170.34166666666667,60.0,70.0
1313,170.22500000000002,170.36833333333334,64.0,75.0
1314,170.025,170.655,45.0,53.0
1315,170.625,170.78166666666667,62.0,70.0
1316,170.625,170.78333333333333,59.0,66.0
1317,170.82500000000002,170.92666666666668,57.0,67.0
1318,169.625,170.99,33.0,63.0
1319,171.22500000000002,171.47833333333335,55.0,70.0
1320,171.22500000000002,171.52166666666668,59.0,63.0
1321,171.22500000000002,171.54666666666668,62.0,64.0
1322,171.425,171.62166666666667,67.0,19.0
1323,171.22500000000002,171.68166666666667,31.0,75.0
1324,171.22500000000002,171.68166666666667,43.0,75.0
1325,171.625,171.88500000000002,55.0,75.0
1326,171.82500000000002,171.91666666666669,43.0,73.0
1327,172.025,172.16833333333335,47.0,70.0
1328,172.425,172.585,59.0,51.0
1329,172.425,172.61166666666668,43.0,70.0
1330,172.625,172.78500000000003,62.0,52.0
1331,172.625,172.80666666666667,45.0,67.0
1332,172.82500000000002,173.2866666666667,67.0,69.0
1333,172.82500000000002,173.335,59.0,63.0
1334,172.82500000000002,173.33833333333334,62.0,44.0
1335,173.625,173.7566666666667,59.0,69.0
1336,173.425,173.82666666666668,55.0,64.0
1337,173.82500000000002,174.055,62.0,69.0
1338,174.025,174.12,55.0,64.0
1339,172.82500000000002,174.13333333333335,31.0,69.0
1340,172.82500000000002,174.13333333333335,43.0,69.0
1341,174.025,174.13666666666668,67.0,72.0
1342,173.22500000000002,174.15666666666667,50.0,54.0
1343,174.425,174.715,62.0,67.0
1344,174.425,174.71666666666667,65.0,70.0
1345,174.425,174.73666666666668,70.0,72.0
1346,174.82500000000002,174.92333333333335,60.0,52.0
1347,174.82500000000002,174.955,69.0,66.0
1348,175.025,175.12666666666667,65.0,70.0
1349,175.025,175.16500000000002,58.0,60.0
1350,175.025,175.28,62.0,58.0
1351,175.025,175.30333333333334,70.0,91.0
1352,175.22500000000002,175.43333333333334,58.0,69.0
1353,175.425,175.46666666666667,65.0,44.0
1354,175.425,175.52,60.0,57.0
1355,175.425,175.53333333333333,69.0,72.0
1356,174.425,175.73166666666668,34.0,78.0
1357,174.425,175.73166666666668,46.0,78.0
1358,174.625,175.865,53.0,62.0
1359,175.82500000000002,176.46,60.0,67.0
1360,175.82500000000002,176.48666666666668,65.0,69.0
1361,176.625,176.77333333333334,60.0,66.0
1362,176.425,176.89000000000001,58.0,73.0
1363,176.82500000000002,176.93333333333334,60.0,59.0
1364,176.22500000000002,177.15,53.0,67.0
1365,177.025,177.16500000000002,58.0,80.0
1366,176.82500000000002,177.18,65.0,67.0
1367,176.025,177.22166666666666,34.0,76.0
1368,176.025,177.22166666666666,46.0,76.0
1369,177.22500000000002,177.43166666666667,60.0,59.0
1370,177.425,177.83666666666667,72.0,73.0
1371,177.625,177.91000000000003,62.0,78.0
1372,177.625,177.92666666666668,71.0,62.0
1373,177.625,177.9416666666667,67.0,78.0
1374,177.625,178.01333333333335,55.0,78.0
1375,178.025,178.27666666666667,62.0,60.0
1376,178.025,178.35666666666668,69.0,62.0
1377,178.425,178.495,67.0,61.0
1378,178.22500000000002,178.54666666666668,55.0,60.0
1379,178.425,178.57333333333335,62.0,70.0
1380,178.425,178.73666666666668,71.0,70.0
1381,178.625,178.77,55.0,70.0
1382,178.82500000000002,178.905,67.0,64.0
1383,178.82500000000002,178.93166666666667,62.0,69.0
1384,178.82500000000002,178.95666666666668,72.0,69.0
1385,178.82500000000002,179.04833333333335,55.0,63.0
1386,177.62333333333333,179.065,31.0,73.0
1387,177.625,179.0666666666667,43.0,73.0
1388,179.22500000000002,179.36,55.0,58.0
1389,179.22500000000002,179.49166666666667,74.0,80.0
1390,179.22500000000002,179.52,67.0,75.0
1391,179.625,179.8816666666667,55.0,54.0
1392,179.625,179.92833333333334,72.0,76.0
1393,179.625,179.9466666666667,67.0,75.0
1394,180.025,180.26333333333335,55.0,63.0
1395,180.025,180.27,62.0,82.0
1396,180.025,180.4466666666667,71.0,69.0
1397,179.22333333333336,180.45333333333335,31.0,73.0
1398,179.22500000000002,180.455,43.0,73.0
1399,180.425,180.50500000000002,67.0,72.0
1400,180.425,180.5066666666667,62.0,57.0
1401,180.425,180.5366666666667,55.0,91.0
1402,180.82500000000002,181.12833333333336,69.0,70.0
1403,180.82500000000002,181.14666666666668,61.0,80.0
1404,180.82333333333335,181.15166666666667,33.0,75.0
1405,180.82500000000002,181.15333333333334,45.0,75.0
1406,180.82500000000002,181.16000000000003,57.0,70.0
1407,180.82500000000002,181.16833333333335,64.0,78.0
1408,181.22500000000002,181.49,69.0,69.0
1409,181.22500000000002,181.50166666666667,57.0,58.0
1410,181.22500000000002,181.51000000000002,61.0,73.0
1411,181.22500000000002,181.53,64.0,69.0
1412,181.22333333333336,181.53166666666667,33.0,53.0
1413,181.22500000000002,181.53333333333333,45.0,53.0
1414,181.625,181.87333333333333,69.0,75.0
1415,181.625,181.87833333333336,57.0,61.0
1416,181.625,181.88000000000002,61.0,69.0
1417,181.625,181.88833333333335,64.0,64.0
1418,181.62333333333333,181.89000000000001,33.0,62.0
1419,181.625,181.89166666666668,45.0,62.0
1420,182.025,182.29500000000002,69.0,67.0
1421,182.025,182.30333333333334,57.0,61.0
1422,182.02333333333334,182.30833333333334,33.0,66.0
1423,182.025,182.31,45.0,66.0
1424,182.025,182.31833333333336,64.0,63.0
1425,182.025,182.3216666666667,61.0,63.0
1426,182.425,183.43833333333333,61.0,73.0
1427,183.22500000000002,183.43833333333333,61.0,70.0
1428,182.425,183.455,64.0,73.0
1429,182.425,183.45666666666668,57.0,78.0
1430,183.22500000000002,183.45666666666668,57.0,72.0
1431,182.425,183.45833333333334,69.0,76.0
1432,182.42333333333335,183.50166666666667,33.0,72.0
1433,183.22333333333336,183.50166666666667,33.0,75.0
1434,182.425,183.50333333333336,45.0,72.0
1435,183.22500000000002,183.50333333333336,45.0,75.0
1436,183.425,183.64000000000001,62.0,36.0
1437,183.625,183.685,57.0,46.0
1438,183.425,183.705,59.0,66.0
1439,183.625,183.73666666666668,64.0,78.0
1440,184.025,184.28500000000003,62.0,78.0
1441,184.025,184.28500000000003,69.0,78.0
1442,184.025,184.29333333333335,66.0,82.0
1443,184.425,184.54000000000002,62.0,51.0
1444,184.22500000000002,184.65,57.0,63.0
1445,184.625,185.01000000000002,69.0,75.0
1446,184.625,185.03833333333336,62.0,70.0
1447,184.625,185.04500000000002,66.0,78.0
1448,184.02166666666668,185.31833333333336,38.0,80.0
1449,184.02166666666668,185.31833333333336,50.0,80.0
1450,185.22500000000002,185.36,62.0,47.0
1451,185.025,185.48166666666668,57.0,69.0
1452,185.425,185.87833333333336,69.0,75.0
1453,185.425,185.89166666666668,62.0,66.0
1454,185.425,185.92166666666668,66.0,80.0
1455,186.025,186.13833333333335,62.0,60.0
1456,185.82500000000002,186.3,57.0,57.0
1457,186.22500000000002,186.51333333333335,62.0,75.0
1458,186.22500000000002,186.53500000000003,69.0,76.0
1459,186.425,186.675,57.0,64.0
1460,186.22500000000002,186.69000000000003,66.0,76.0
1461,185.62166666666667,186.75,38.0,69.0
1462,185.62166666666667,186.75,50.0,69.0
1463,186.625,186.95333333333335,62.0,73.0
1464,187.025,187.12666666666667,69.0,64.0
1465,186.82500000000002,187.16333333333336,66.0,62.0
1466,187.22500000000002,187.59166666666667,61.0,82.0
1467,187.22500000000002,187.62833333333336,64.0,80.0
1468,187.22500000000002,187.64666666666668,69.0,45.0
1469,187.625,187.88500000000002,57.0,51.0
1470,187.82500000000002,188.02,64.0,78.0
1471,187.82500000000002,188.25166666666667,61.0,73.0
1472,187.82500000000002,188.275,69.0,64.0
1473,187.2216666666667,188.52,33.0,70.0
1474,187.2216666666667,188.52,45.0,70.0
1475,188.425,188.56333333333333,61.0,67.0
1476,188.22500000000002,188.57000000000002,57.0,63.0
1477,188.425,188.595,67.0,62.0
1478,187.42166666666668,188.67666666666668,52.0,66.0
1479,188.625,189.03833333333336,64.0,76.0
1480,188.625,189.04000000000002,69.0,70.0
1481,188.625,189.04333333333335,61.0,66.0
1482,189.22500000000002,189.375,61.0,60.0
1483,189.025,189.47833333333335,57.0,75.0
1484,189.425,189.70000000000002,69.0,82.0
1485,189.425,189.70333333333335,61.0,76.0
1486,189.425,189.705,64.0,80.0
1487,188.8216666666667,189.75,33.0,70.0
1488,188.8216666666667,189.75,45.0,70.0
1489,189.625,189.76833333333335,57.0,58.0
1490,189.82500000000002,189.87666666666667,69.0,37.0
1491,189.82500000000002,189.99833333333333,61.0,62.0
1492,190.025,190.16666666666669,69.0,62.0
1493,190.02166666666668,190.20333333333335,34.0,91.0
1494,190.02166666666668,190.20333333333335,46.0,91.0
1495,190.22500000000002,190.34833333333336,66.0,57.0
1496,190.425,190.66500000000002,62.0,69.0
1497,190.425,190.6966666666667,66.0,76.0
1498,190.425,190.70666666666668,69.0,70.0
1499,190.82500000000002,190.95333333333335,62.0,58.0
1500,190.625,191.08,59.0,62.0
1501,191.025,191.25333333333336,62.0,70.0
1502,191.025,191.32833333333335,66.0,75.0
1503,191.025,191.34166666666667,69.0,78.0
1504,191.425,191.54166666666669,67.0,54.0
1505,191.425,191.54833333333335,62.0,64.0
1506,190.42166666666668,191.83833333333334,35.0,80.0
1507,190.42166666666668,191.83833333333334,47.0,80.0
1508,191.22500000000002,191.86,59.0,60.0
1509,191.82500000000002,192.10500000000002,66.0,51.0
1510,191.82500000000002,192.25333333333336,62.0,78.0
1511,191.82500000000002,192.25333333333336,69.0,78.0
1512,192.425,192.53,62.0,57.0
1513,192.22500000000002,192.685,59.0,75.0
1514,192.625,192.95166666666668,69.0,76.0
1515,192.625,193.03833333333336,62.0,75.0
1516,192.625,193.055,66.0,67.0
1517,193.025,193.24833333333333,59.0,61.0
1518,192.02166666666668,193.2866666666667,35.0,70.0
1519,192.02166666666668,193.2866666666667,47.0,70.0
1520,193.22500000000002,193.34,66.0,67.0
1521,193.22500000000002,193.48000000000002,62.0,76.0
1522,193.22500000000002,193.48000000000002,69.0,70.0
1523,193.425,193.50333333333336,66.0,73.0
1524,193.625,193.805,55.0,75.0
1525,193.625,193.88666666666668,59.0,75.0
1526,193.625,193.89666666666668,62.0,72.0
1527,193.625,194.04000000000002,67.0,78.0
1528,194.025,194.26833333333335,55.0,40.0
1529,194.22500000000002,194.39000000000001,57.0,80.0
1530,194.22500000000002,194.4766666666667,66.0,76.0
1531,194.425,194.64333333333335,55.0,44.0
1532,194.625,194.74666666666667,62.0,72.0
1533,194.625,194.78333333333336,59.0,67.0
1534,193.625,195.08833333333334,31.0,76.0
1535,193.625,195.08833333333334,43.0,76.0
1536,194.625,195.17333333333335,67.0,72.0
1537,195.025,195.18833333333333,55.0,69.0
1538,195.625,195.74166666666667,57.0,76.0
1539,195.625,195.78166666666667,66.0,93.0
1540,195.425,195.84333333333333,55.0,76.0
1541,195.82500000000002,196.07000000000002,67.0,63.0
1542,195.82500000000002,196.08833333333334,62.0,64.0
1543,196.025,196.23333333333335,55.0,56.0
1544,196.22500000000002,196.3216666666667,59.0,72.0
1545,196.22500000000002,196.36166666666668,66.0,78.0
1546,195.22500000000002,196.3816666666667,31.0,72.0
1547,195.22500000000002,196.3816666666667,43.0,72.0
1548,196.425,196.715,55.0,76.0
1549,196.625,196.715,62.0,33.0
1550,196.82500000000002,196.98833333333334,62.0,70.0
1551,196.82500000000002,197.23166666666668,66.0,95.0
1552,197.425,197.5666666666667,64.0,67.0
1553,197.22500000000002,197.66833333333335,62.0,66.0
1554,197.625,197.76833333333335,66.0,66.0
1555,197.82500000000002,197.8816666666667,66.0,43.0
1556,196.82500000000002,198.1016666666667,38.0,70.0
1557,196.82500000000002,198.1016666666667,50.0,70.0
1558,197.82500000000002,198.13833333333335,74.0,73.0
1559,197.025,198.24833333333333,57.0,59.0
1560,198.22500000000002,198.455,69.0,73.0
1561,198.025,198.56833333333336,62.0,52.0
1562,198.82500000000002,198.9466666666667,62.0,60.0
1563,198.82500000000002,198.955,66.0,76.0
1564,198.625,199.08,57.0,62.0
1565,199.025,199.29166666666669,67.0,70.0
1566,199.025,199.31,64.0,67.0
1567,199.22500000000002,199.42166666666668,57.0,60.0
1568,199.425,199.6016666666667,66.0,70.0
1569,199.425,199.655,62.0,75.0
1570,199.425,199.67000000000002,69.0,72.0
1571,199.625,199.71833333333333,57.0,59.0
1572,198.425,199.73666666666668,38.0,73.0
1573,198.425,199.73666666666668,50.0,73.0
1574,200.025,200.3766666666667,64.0,78.0
1575,200.025,200.425,61.0,91.0
1576,200.025,200.43,69.0,69.0
1577,200.425,200.70166666666668,57.0,58.0
1578,200.625,200.71166666666667,61.0,76.0
1579,200.625,200.74666666666667,59.0,76.0
1580,200.82500000000002,201.13500000000002,57.0,49.0
1581,201.025,201.18,62.0,69.0
1582,200.025,201.28500000000003,33.0,69.0
1583,200.025,201.28500000000003,45.0,69.0
1584,201.22500000000002,201.32833333333335,52.0,46.0
1585,201.425,201.49333333333334,61.0,78.0
1586,201.425,201.525,64.0,75.0
1587,202.025,202.095,57.0,91.0
1588,202.025,202.10666666666668,69.0,82.0
1589,202.22500000000002,202.3,59.0,78.0
1590,202.22500000000002,202.30333333333334,71.0,78.0
1591,201.82500000000002,202.41000000000003,52.0,51.0
1592,202.425,202.625,55.0,43.0
1593,202.425,202.64166666666668,57.0,44.0
1594,202.625,202.70166666666668,61.0,69.0
1595,202.625,202.73333333333335,73.0,62.0
1596,201.625,202.81,33.0,66.0
1597,201.625,202.81,45.0,66.0
1598,202.82500000000002,202.92166666666668,52.0,63.0
1599,203.22500000000002,203.65833333333336,62.0,70.0
1600,203.22500000000002,203.65833333333336,66.0,63.0
1601,203.22500000000002,203.67666666666668,59.0,59.0
1602,203.82500000000002,204.205,54.0,67.0
1603,204.025,204.35000000000002,59.0,76.0
1604,204.025,204.37166666666667,62.0,72.0
1605,204.025,204.37333333333333,66.0,78.0
1606,203.22500000000002,204.45333333333335,35.0,64.0
1607,203.22500000000002,204.45333333333335,47.0,64.0
1608,204.425,204.6616666666667,54.0,66.0
1609,204.625,204.72000000000003,57.0,67.0
1610,204.625,204.7266666666667,62.0,69.0
1611,204.625,204.73333333333335,66.0,64.0
1612,204.82500000000002,205.0716666666667,59.0,70.0
1613,204.82500000000002,205.13500000000002,66.0,73.0
1614,205.22500000000002,205.3,64.0,67.0
1615,205.22500000000002,205.3166666666667,57.0,47.0
1616,205.425,205.71666666666667,57.0,67.0
1617,205.425,205.75833333333335,64.0,80.0
1618,205.625,205.835,54.0,57.0
1619,205.82500000000002,205.985,57.0,76.0
1620,205.82500000000002,206.00833333333335,62.0,78.0
1621,204.625,206.07833333333335,35.0,61.0
1622,204.625,206.07833333333335,47.0,61.0
1623,206.025,206.10500000000002,54.0,57.0
1624,206.22500000000002,206.30166666666668,62.0,39.0
1625,206.425,206.6316666666667,59.0,78.0
1626,206.425,206.65333333333334,55.0,73.0
1627,206.425,206.72500000000002,67.0,76.0
1628,206.425,206.76000000000002,62.0,66.0
1629,206.82500000000002,206.935,57.0,60.0
1630,206.82500000000002,207.02833333333334,66.0,67.0
1631,207.025,207.15,59.0,69.0
1632,207.025,207.18833333333333,62.0,72.0
1633,207.025,207.305,67.0,80.0
1634,207.425,207.51666666666668,57.0,64.0
1635,207.22500000000002,207.51833333333335,55.0,64.0
1636,207.425,207.56500000000003,66.0,72.0
1637,206.425,207.78333333333336,31.0,75.0
1638,206.425,207.78333333333336,43.0,75.0
1639,207.82500000000002,208.25,57.0,64.0
1640,207.82500000000002,208.26500000000001,62.0,73.0
1641,208.425,208.56,57.0,69.0
1642,208.025,208.6966666666667,31.0,73.0
1643,208.025,208.6966666666667,43.0,73.0
1644,208.22500000000002,208.72333333333336,55.0,80.0
1645,208.625,208.77666666666667,62.0,53.0
1646,208.82500000000002,209.11833333333334,66.0,82.0
1647,208.82500000000002,209.15833333333336,45.0,70.0
1648,209.22500000000002,209.34833333333336,61.0,70.0
1649,209.22500000000002,209.36,45.0,57.0
1650,209.22500000000002,209.3766666666667,57.0,16.0
1651,209.625,209.99166666666667,66.0,75.0
1652,209.625,210.0066666666667,50.0,75.0
1653,209.625,210.04000000000002,57.0,76.0
1654,209.625,210.06166666666667,62.0,75.0
1655,210.22500000000002,210.61666666666667,50.0,40.0
1656,210.425,210.8766666666667,57.0,72.0
1657,210.425,210.8766666666667,62.0,67.0
1658,210.425,210.90166666666667,66.0,73.0
1659,210.82500000000002,211.2566666666667,50.0,43.0
1660,209.625,211.33,26.0,75.0
1661,209.625,211.33,38.0,75.0
1662,211.22500000000002,211.48833333333334,28.0,85.0
1663,211.22500000000002,211.48833333333334,40.0,85.0
1664,211.22500000000002,211.48833333333334,59.0,82.0
1665,211.22500000000002,211.48833333333334,64.0,82.0
1666,211.495,211.77333333333334,30.0,58.0
1667,211.495,211.77333333333334,42.0,58.0
1668,211.495,211.77333333333334,61.0,85.0
1669,211.495,211.77333333333334,66.0,85.0
1670,211.78,212.02833333333334,31.0,60.0
1671,211.78,212.02833333333334,43.0,60.0
1672,211.78166666666667,212.02833333333334,62.0,88.0
1673,211.78166666666667,212.02833333333334,67.0,88.0
1674,212.03500000000003,212.28500000000003,64.0,75.0
1675,212.03500000000003,212.28500000000003,69.0,75.0
1676,212.03500000000003,212.35000000000002,33.0,91.0
1677,212.03500000000003,212.35000000000002,45.0,91.0
1678,212.3166666666667,212.54666666666668,66.0,91.0
1679,212.3166666666667,212.54666666666668,71.0,91.0
1680,212.3166666666667,212.55666666666667,35.0,78.0
1681,212.3166666666667,212.55666666666667,47.0,78.0
1682,212.55833333333334,212.81833333333336,68.0,95.0
1683,212.55833333333334,212.81833333333336,73.0,95.0
1684,212.55833333333334,212.8216666666667,37.0,85.0
1685,212.55833333333334,212.8216666666667,49.0,85.0
1686,212.82500000000002,213.1916666666667,38.0,93.0
1687,212.82500000000002,213.1916666666667,50.0,93.0
1688,212.82500000000002,213.1916666666667,69.0,78.0
1689,212.82500000000002,213.1916666666667,74.0,78.0
1690,215.22500000000002,215.45833333333334,62.0,88.0
1691,215.22500000000002,215.55,38.0,88.0
1692,215.22500000000002,215.55,50.0,88.0
1693,215.50500000000002,215.705,61.0,95.0
1694,215.50500000000002,215.73166666666668,37.0,80.0
1695,215.50500000000002,215.73166666666668,49.0,80.0
1696,215.75,215.95666666666668,35.0,85.0
1697,215.75,215.95666666666668,47.0,85.0
1698,215.75,215.95833333333334,59.0,82.0
1699,216.025,216.24833333333333,57.0,99.0
1700,216.025,216.28,61.0,97.0
1701,216.625,216.865,57.0,54.0
1702,216.82500000000002,216.96833333333333,59.0,80.0
1703,216.82500000000002,217.07333333333335,64.0,95.0
1704,216.82500000000002,217.07500000000002,61.0,91.0
1705,216.82500000000002,217.0966666666667,69.0,82.0
1706,216.425,217.16666666666669,52.0,56.0
1707,217.22500000000002,217.31500000000003,59.0,57.0
1708,217.025,217.33,57.0,47.0
1709,216.025,217.36166666666668,33.0,82.0
1710,216.025,217.36166666666668,45.0,82.0
1711,217.22500000000002,217.43,52.0,73.0
1712,217.425,217.5,59.0,75.0
1713,217.425,217.5966666666667,64.0,88.0
1714,217.425,217.60000000000002,61.0,93.0
1715,217.425,217.71666666666667,69.0,78.0
1716,217.82500000000002,218.04833333333335,64.0,76.0
1717,217.82500000000002,218.125,59.0,73.0
1718,218.025,218.185,61.0,52.0
1719,217.82500000000002,218.20000000000002,69.0,67.0
1720,217.625,218.43833333333336,52.0,48.0
1721,218.22500000000002,218.455,57.0,91.0
1722,218.425,218.67833333333334,59.0,82.0
1723,217.425,218.74333333333334,33.0,88.0
1724,217.425,218.74333333333334,45.0,88.0
1725,218.625,218.76666666666668,57.0,93.0
1726,218.425,218.8766666666667,61.0,78.0
1727,218.425,218.92333333333335,64.0,78.0
1728,218.82500000000002,219.00333333333336,59.0,73.0
1729,218.425,219.08166666666668,69.0,78.0
1730,219.025,219.13500000000002,34.0,73.0
1731,219.025,219.13500000000002,46.0,73.0
1732,219.025,219.15166666666667,64.0,59.0
1733,219.22500000000002,219.54833333333335,66.0,76.0
1734,219.22500000000002,219.56,57.0,99.0
1735,219.22500000000002,219.65333333333334,62.0,73.0
1736,219.82500000000002,219.92333333333335,57.0,51.0
1737,219.625,220.09,54.0,66.0
1738,220.025,220.10000000000002,57.0,48.0
1739,220.025,220.10000000000002,57.0,93.0
1740,220.025,220.11166666666668,64.0,51.0
1741,220.025,220.40833333333336,62.0,95.0
1742,220.025,220.43166666666667,66.0,97.0
1743,219.22500000000002,220.50833333333335,35.0,93.0
1744,219.22500000000002,220.50833333333335,47.0,93.0
1745,220.425,220.685,54.0,73.0
1746,220.625,220.7566666666667,57.0,82.0
1747,220.625,220.77,64.0,62.0
1748,220.82500000000002,220.91833333333335,62.0,66.0
1749,220.82500000000002,220.995,54.0,67.0
1750,221.025,221.11333333333334,62.0,78.0
1751,221.025,221.12333333333333,57.0,82.0
1752,221.025,221.17333333333335,66.0,73.0
1753,221.425,221.62500000000003,54.0,72.0
1754,221.62500000000003,221.865,57.0,85.0
1755,221.62500000000003,221.87500000000003,69.0,80.0
1756,221.62500000000003,221.88500000000002,62.0,101.0
1757,220.625,221.95166666666668,35.0,76.0
1758,220.625,221.95166666666668,47.0,76.0
1759,221.82500000000002,221.97333333333336,54.0,73.0
1760,222.025,222.09,64.0,41.0
1761,222.025,222.10000000000002,69.0,55.0
1762,222.025,222.19333333333336,57.0,76.0
1763,222.22500000000002,222.35833333333335,64.0,73.0
1764,222.425,222.735,59.0,88.0
1765,222.425,222.88833333333335,62.0,85.0
1766,222.425,222.89833333333334,67.0,70.0
1767,222.82500000000002,223.13000000000002,55.0,88.0
1768,223.025,223.13500000000002,57.0,88.0
1769,223.22500000000002,223.29833333333335,62.0,64.0
1770,223.025,223.30166666666668,66.0,93.0
1771,223.22500000000002,223.39333333333335,55.0,31.0
1772,223.425,223.495,62.0,99.0
1773,223.425,223.50500000000002,59.0,91.0
1774,222.62500000000003,223.53833333333336,50.0,75.0
1775,223.425,223.54833333333335,67.0,88.0
1776,223.62500000000003,223.86166666666668,55.0,97.0
1777,222.425,223.865,31.0,82.0
1778,222.425,223.865,43.0,82.0
1779,223.82500000000002,223.91000000000003,67.0,61.0
1780,223.82500000000002,223.92333333333335,74.0,80.0
1781,223.82500000000002,223.96,50.0,72.0
1782,224.025,224.21833333333333,66.0,97.0
1783,224.025,224.31500000000003,74.0,88.0
1784,224.025,224.35833333333335,31.0,75.0
1785,224.025,224.35833333333335,43.0,75.0
1786,224.22500000000002,224.41833333333335,50.0,70.0
1787,224.425,224.52,64.0,88.0
1788,224.425,224.56500000000003,73.0,69.0
1789,224.425,224.70833333333334,55.0,85.0
1790,224.62500000000003,224.7266666666667,66.0,91.0
1791,224.62500000000003,224.76000000000002,74.0,75.0
1792,224.82500000000002,224.8766666666667,69.0,42.0
1793,225.025,225.0966666666667,69.0,101.0
1794,225.025,225.14000000000001,76.0,88.0
1795,224.62500000000003,225.26833333333335,57.0,91.0
1796,225.22500000000002,225.34,59.0,93.0
1797,225.425,225.52166666666668,74.0,78.0
1798,225.62500000000003,225.83666666666667,74.0,95.0
1799,225.62500000000003,225.86,78.0,95.0
1800,225.62500000000003,225.87,69.0,85.0
1801,226.025,226.30666666666667,62.0,82.0
1802,226.22500000000002,226.34333333333333,64.0,85.0
1803,226.22500000000002,226.37166666666667,69.0,91.0
1804,226.425,226.51333333333335,66.0,59.0
1805,226.62500000000003,226.69833333333335,64.0,59.0
1806,226.62500000000003,226.75000000000003,69.0,82.0
1807,226.82500000000002,226.90833333333336,66.0,95.0
1808,226.82500000000002,226.93666666666667,74.0,73.0
1809,225.62500000000003,227.01500000000001,38.0,91.0
1810,225.62500000000003,227.01500000000001,50.0,91.0
1811,226.425,227.08333333333334,62.0,60.0
1812,225.82500000000002,227.10333333333335,57.0,64.0
1813,227.025,227.32500000000002,66.0,95.0
1814,227.025,227.77,74.0,80.0
1815,227.62500000000003,227.91500000000002,62.0,82.0
1816,227.82500000000002,228.12166666666667,74.0,62.0
1817,227.82500000000002,228.13000000000002,64.0,91.0
1818,227.82500000000002,228.14666666666668,69.0,97.0
1819,227.425,228.29000000000002,57.0,58.0
1820,228.025,228.29166666666669,62.0,67.0
1821,228.22500000000002,228.44833333333335,64.0,91.0
1822,228.22500000000002,228.49833333333333,73.0,78.0
1823,228.425,228.55,57.0,66.0
1824,227.22500000000002,228.57500000000002,38.0,78.0
1825,227.22500000000002,228.57500000000002,50.0,78.0
1826,228.425,228.68333333333334,74.0,80.0
1827,228.62500000000003,228.73833333333334,73.0,78.0
1828,228.82500000000002,229.15833333333336,33.0,85.0
1829,228.82500000000002,229.15833333333336,45.0,85.0
1830,229.025,229.25500000000002,52.0,73.0
1831,229.22500000000002,229.50500000000002,57.0,75.0
1832,228.82500000000002,229.63000000000002,73.0,80.0
1833,228.82500000000002,229.65,64.0,91.0
1834,228.82500000000002,229.65333333333334,69.0,88.0
1835,229.425,229.74333333333334,59.0,70.0
1836,229.62500000000003,229.74333333333334,61.0,93.0
1837,229.82500000000002,229.9466666666667,64.0,97.0
1838,230.025,230.14166666666668,69.0,69.0
1839,230.425,230.50500000000002,57.0,53.0
1840,230.22500000000002,230.52,64.0,91.0
1841,230.22500000000002,230.72333333333336,69.0,80.0
1842,230.22500000000002,230.73000000000002,76.0,78.0
1843,230.62500000000003,230.81333333333336,57.0,95.0
1844,230.22500000000002,230.87500000000003,33.0,88.0
1845,230.22500000000002,230.87500000000003,45.0,88.0
1846,230.82500000000002,230.97000000000003,64.0,76.0
1847,231.025,231.15333333333334,69.0,75.0
1848,231.22500000000002,231.29500000000002,64.0,52.0
1849,231.22500000000002,231.37166666666667,73.0,88.0
1850,231.425,231.66500000000002,70.0,103.0
1851,231.425,231.745,58.0,101.0
1852,231.425,231.75833333333335,34.0,82.0
1853,231.425,231.75833333333335,46.0,82.0
1854,231.425,231.78333333333336,73.0,64.0
1855,231.425,231.835,64.0,82.0
1856,232.025,232.36,62.0,93.0
1857,232.025,232.38000000000002,66.0,95.0
1858,232.025,232.44500000000002,71.0,88.0
1859,232.425,232.69000000000003,59.0,82.0
1860,232.62500000000003,232.74666666666667,66.0,88.0
1861,232.62500000000003,232.75000000000003,61.0,88.0
1862,232.62500000000003,232.82333333333335,69.0,82.0
1863,232.82500000000002,233.0666666666667,59.0,54.0
1864,232.025,233.11666666666667,35.0,91.0
1865,232.025,233.11666666666667,47.0,91.0
1866,233.025,233.13000000000002,62.0,88.0
1867,233.025,233.13333333333335,66.0,82.0
1868,233.025,233.14833333333334,69.0,80.0
1869,232.22500000000002,233.34500000000003,54.0,75.0
1870,233.82500000000002,233.92333333333335,66.0,56.0
1871,233.82500000000002,233.94000000000003,61.0,58.0
1872,233.62500000000003,234.10666666666668,54.0,67.0
1873,233.425,234.27,35.0,70.0
1874,233.425,234.27,47.0,70.0
1875,234.025,234.30333333333334,59.0,69.0
1876,234.22500000000002,234.405,54.0,76.0
1877,234.425,234.57833333333335,66.0,78.0
1878,234.425,234.75000000000003,74.0,85.0
1879,234.62500000000003,234.775,64.0,75.0
1880,234.62500000000003,234.83333333333334,73.0,72.0
1881,234.82500000000002,234.97500000000002,59.0,78.0
1882,234.425,235.00500000000002,35.0,78.0
1883,234.425,235.00500000000002,47.0,78.0
1884,234.62500000000003,235.01000000000002,54.0,70.0
1885,235.025,235.35500000000002,74.0,73.0
1886,235.22500000000002,235.47833333333335,62.0,80.0
1887,235.22500000000002,235.50500000000002,67.0,67.0
1888,235.22500000000002,235.52333333333334,71.0,72.0
1889,235.22500000000002,235.61166666666668,31.0,69.0
1890,235.22500000000002,235.61166666666668,43.0,69.0
1891,235.425,235.6316666666667,50.0,72.0
1892,235.62500000000003,235.74333333333334,62.0,64.0
1893,235.62500000000003,235.76333333333335,69.0,54.0
1894,235.62500000000003,235.9,55.0,67.0
1895,235.82500000000002,235.985,71.0,70.0
1896,236.025,236.11833333333334,62.0,73.0
1897,235.82500000000002,236.12500000000003,57.0,46.0
1898,236.025,236.15,59.0,93.0
1899,236.025,236.175,67.0,64.0
1900,236.025,236.17833333333334,74.0,73.0
1901,236.22500000000002,236.36833333333334,62.0,75.0
1902,236.425,236.54666666666668,67.0,73.0
1903,236.62500000000003,236.70333333333335,62.0,54.0
1904,236.62500000000003,236.74,71.0,66.0
1905,236.82500000000002,237.17000000000002,62.0,76.0
1906,236.82500000000002,237.17833333333334,71.0,80.0
1907,236.82500000000002,237.30333333333334,67.0,88.0
1908,237.425,237.56333333333336,62.0,46.0
1909,237.22500000000002,237.71166666666667,57.0,59.0
1910,237.62500000000003,237.8516666666667,62.0,93.0
1911,237.62500000000003,237.93166666666667,71.0,85.0
1912,236.82500000000002,237.9366666666667,33.0,82.0
1913,236.82500000000002,237.9366666666667,45.0,82.0
1914,237.62500000000003,237.9466666666667,67.0,95.0
1915,237.82500000000002,238.04666666666668,57.0,91.0
1916,238.025,238.25333333333336,62.0,73.0
1917,238.22500000000002,238.37166666666667,69.0,64.0
1918,238.425,238.88333333333335,69.0,82.0
1919,238.425,239.04833333333335,66.0,91.0
1920,238.425,239.06833333333336,74.0,72.0
1921,239.025,239.24166666666667,62.0,37.0
1922,239.22500000000002,239.50833333333335,69.0,76.0
1923,239.22500000000002,239.65,64.0,82.0
1924,239.22500000000002,239.66333333333336,74.0,80.0
1925,239.22500000000002,239.67833333333334,66.0,82.0
1926,239.62500000000003,239.88500000000002,62.0,49.0
1927,239.82500000000002,240.32333333333335,69.0,75.0
1928,239.82500000000002,240.32500000000002,64.0,78.0
1929,240.425,240.465,66.0,47.0
1930,240.425,240.68333333333334,64.0,70.0
1931,240.62500000000003,240.7266666666667,66.0,72.0
1932,240.22500000000002,240.82333333333335,62.0,72.0
1933,240.82500000000002,240.925,74.0,66.0
1934,240.82500000000002,241.05166666666668,64.0,76.0
1935,240.82500000000002,241.08666666666667,69.0,85.0
1936,238.82500000000002,241.10000000000002,57.0,54.0
1937,240.82500000000002,241.12333333333333,66.0,82.0
1938,241.025,241.14000000000001,62.0,85.0
1939,238.425,241.17166666666668,38.0,76.0
1940,238.425,241.17166666666668,50.0,76.0
1941,241.62500000000003,242.04333333333335,55.0,82.0
1942,241.62500000000003,242.13333333333335,67.0,90.0
1943,241.62500000000003,242.15500000000003,62.0,102.0
1944,241.62500000000003,242.27833333333334,59.0,90.0
1945,242.22500000000002,242.72500000000002,55.0,31.0
1946,242.425,242.87833333333336,67.0,90.0
1947,241.62500000000003,242.9116666666667,31.0,64.0
1948,241.62500000000003,242.9116666666667,43.0,64.0
1949,242.425,242.925,62.0,99.0
1950,242.425,242.93,59.0,90.0
1951,242.82500000000002,242.97500000000002,55.0,75.0
1952,243.22500000000002,243.70000000000002,62.0,92.0
1953,243.22500000000002,243.775,67.0,90.0
1954,243.22500000000002,243.80333333333334,59.0,88.0
1955,243.22500000000002,244.21333333333334,57.0,78.0
1956,243.22500000000002,244.29666666666668,33.0,81.0
1957,243.22500000000002,244.29666666666668,45.0,81.0
1958,244.025,244.36333333333334,67.0,88.0
1959,244.425,244.4716666666667,57.0,55.0
1960,244.025,244.49,62.0,99.0
1961,244.025,244.51000000000002,59.0,88.0
1962,244.425,244.555,33.0,82.0
1963,244.425,244.555,45.0,82.0
1964,244.82500000000002,245.41333333333336,70.0,82.0
1965,244.82500000000002,245.41500000000002,62.0,79.0
1966,244.82500000000002,245.425,65.0,88.0
1967,244.82500000000002,245.8466666666667,58.0,79.0
1968,245.62500000000003,245.98666666666668,62.0,78.0
1969,245.62500000000003,245.99,65.0,85.0
1970,245.62500000000003,246.03000000000003,70.0,82.0
1971,244.82500000000002,246.08666666666667,34.0,84.0
1972,244.82500000000002,246.08666666666667,46.0,84.0
1973,246.025,246.15166666666667,58.0,68.0
1974,246.425,246.90500000000003,64.0,74.0
1975,246.425,246.92333333333335,67.0,81.0
1976,246.425,247.04666666666668,72.0,84.0
1977,246.425,247.39833333333334,36.0,84.0
1978,246.425,247.39833333333334,48.0,84.0
1979,246.425,247.40833333333336,60.0,79.0
1980,247.22500000000002,247.47333333333336,64.0,81.0
1981,247.22500000000002,247.47833333333335,67.0,90.0
1982,247.22500000000002,247.485,72.0,85.0
1983,247.62500000000003,247.71166666666667,36.0,82.0
1984,247.62500000000003,247.71166666666667,48.0,82.0
1985,248.025,249.555,62.0,90.0
1986,248.025,249.59166666666667,66.0,103.0
1987,248.025,249.60000000000002,38.0,93.0
1988,248.025,249.60000000000002,50.0,93.0
1989,248.025,249.60666666666668,69.0,101.0
1990,248.025,249.64333333333335,74.0,99.0
