,start,end,pitch,velocity
0,1.8103435,2.0387916083333333,71.0,85.0
1,2.0689640000000002,2.2693948875000003,76.0,90.0
2,2.3275845,2.5420239979166666,75.0,94.0
3,2.586205,2.9935322875000003,73.0,90.0
4,3.103446,3.2661613979166666,73.0,89.0
5,3.3620665,3.5452560208333335,76.0,88.0
6,3.620687,4.0312470437500005,75.0,91.0
7,4.1379280000000005,4.332970960416667,73.0,88.0
8,4.3965485,4.630384535416667,75.0,83.0
9,4.655169,5.108832460416667,71.0,89.0
10,5.17241,5.344823666666667,76.0,87.0
11,5.4310305,5.768314735416667,76.0,87.0
12,5.948271500000001,6.07434899375,68.0,81.0
13,6.206892,6.37176256875,68.0,87.0
14,6.4655125,6.648702020833333,71.0,84.0
15,6.724133,7.146546483333333,69.0,87.0
16,7.241374,7.432106618750001,69.0,88.0
17,7.499994500000001,7.65839955625,73.0,89.0
18,7.758615000000001,8.09805440625,71.0,86.0
19,8.275856000000001,8.490295497916668,71.0,87.0
20,8.5344765,8.714433264583334,69.0,88.0
21,8.793097,9.9762857875,71.0,87.0
22,10.086199500000001,10.224130433333334,71.0,89.0
23,10.34482,10.517233666666668,76.0,88.0
24,10.6034405,10.770466239583333,75.0,88.0
25,10.862061,11.245681408333335,73.0,94.0
26,11.379302000000001,11.534474300000001,73.0,92.0
27,11.6379225,11.794172385416667,76.0,87.0
28,11.896543000000001,12.262922041666668,75.0,91.0
29,12.413784,12.595895935416667,73.0,89.0
30,12.6724045,12.881456070833334,75.0,87.0
31,12.931025,13.123912789583335,71.0,88.0
32,13.189645500000001,13.331886775000001,76.0,84.0
33,13.448266,13.589429689583334,76.0,83.0
34,13.706886500000001,14.050636247916668,76.0,87.0
35,14.2241275,14.335118797916667,68.0,88.0
36,14.482748,14.643308227083335,68.0,87.0
37,14.7413685,14.901928727083334,71.0,85.0
38,14.999989000000001,15.411626629166667,69.0,87.0
39,15.517230000000001,15.684255739583334,69.0,89.0
40,15.7758505,15.92779004375,68.0,85.0
41,16.034471,16.461194825,64.0,87.0
42,16.551712000000002,16.70796188541667,66.0,82.0
43,16.8103325,18.67563285625,64.0,83.0
44,24.827568,25.004292008333334,68.0,89.0
45,25.086188500000002,25.255369410416666,69.0,87.0
46,25.344809,25.745670775,71.0,88.0
47,25.86205,26.26075660416667,71.0,88.0
48,26.379291000000002,26.53230812916667,69.0,92.0
49,26.6379115,26.792006214583335,68.0,81.0
50,26.896532,27.298471360416666,66.0,87.0
51,27.413773000000003,27.763988260416667,64.0,89.0
52,27.931014,28.31571199375,64.0,87.0
53,28.448255,28.6034273,66.0,86.0
54,28.706875500000002,28.83726333541667,64.0,85.0
55,28.965496,29.11097003125,63.0,91.0
56,29.2241165,29.405150850000002,64.0,80.0
57,29.482737,29.8254091625,68.0,87.0
58,29.999978000000002,30.36527945625,68.0,88.0
59,30.517219,30.663770616666667,66.0,82.0
60,30.7758395,30.94717558125,68.0,86.0
61,31.034460000000003,31.473037264583336,69.0,88.0
62,31.551701,32.52691580208334,68.0,86.0
63,32.844803500000005,32.99027753125,68.0,88.0
64,33.103424000000004,33.29200144791667,68.0,87.0
65,33.3620445,33.51829438541667,69.0,88.0
66,33.620665,34.005362993750005,71.0,88.0
67,34.137906,34.45579369791667,71.0,88.0
68,34.655147,34.83833652083334,69.0,90.0
69,34.9137675,35.04415533541667,68.0,87.0
70,35.172388,35.62281870416667,66.0,87.0
71,35.689629000000004,36.110964897916666,64.0,87.0
72,36.20687,36.55061974791667,64.0,88.0
73,36.724111,36.90083500833334,66.0,82.0
74,36.9827315,37.16915377708334,68.0,86.0
75,37.241352,37.72734302291667,66.0,88.0
76,37.758593000000005,38.133592725,64.0,88.0
77,38.275834,38.6572992375,64.0,89.0
78,38.793075,38.922385250000005,66.0,81.0
79,39.0516955,39.21441089791667,68.0,84.0
80,39.310316,39.68316055416667,66.0,80.0
81,39.827557,40.9978147625,64.0,88.0
82,41.1206595,41.23596113958334,68.0,82.0
83,41.37928,41.55600400833333,68.0,89.0
84,41.6379005,41.80708141041667,69.0,87.0
85,41.896521,42.297382775,71.0,88.0
86,42.413762,42.81246860416667,71.0,88.0
87,42.931003000000004,43.08402012916667,69.0,92.0
88,43.1896235,43.34371821458333,68.0,81.0
89,43.448244,43.850183360416665,66.0,87.0
90,43.965485,44.31570026041667,64.0,89.0
91,44.482726,44.86742399375,64.0,87.0
92,44.999967000000005,45.1551393,66.0,86.0
93,45.258587500000004,45.38897533541667,64.0,85.0
94,45.517208000000004,45.66268203125,63.0,91.0
95,45.7758285,45.95686285,64.0,80.0
96,46.034449,46.3771211625,68.0,87.0
97,46.55169,46.91699145625,68.0,88.0
98,47.068931,47.21548261666667,66.0,82.0
99,47.3275515,47.49888758125,68.0,86.0
100,47.586172000000005,48.024749264583335,69.0,88.0
101,48.103413,49.07862780208333,68.0,86.0
102,49.3965155,49.54198953125,68.0,88.0
103,49.655136,49.84371344791667,68.0,87.0
104,49.913756500000005,50.07000638541667,69.0,88.0
105,50.172377000000004,50.55707499375,71.0,88.0
106,50.689618,51.00750569791667,71.0,88.0
107,51.206859,51.4202209125,71.0,89.0
108,51.4654795,51.63250523958334,76.0,86.0
109,51.7241,51.89651366666667,76.0,87.0
110,51.9827205,52.1443583125,78.0,84.0
111,52.241341000000006,52.616340725,80.0,87.0
112,52.758582000000004,53.12603862708333,80.0,90.0
113,53.275823,53.45362459375,78.0,87.0
114,53.5344435,53.686383043750006,76.0,87.0
115,53.793064,54.076468964583334,76.0,88.0
116,54.0516845,54.21439989791667,78.0,85.0
117,54.310305,54.648666820833334,80.0,84.0
118,54.827546000000005,55.214399164583334,80.0,89.0
119,55.344787000000004,55.511812739583334,78.0,86.0
120,55.6034075,55.862028,76.0,82.0
121,56.1206485,56.6378895,76.0,89.0
122,57.672371500000004,57.82862138541667,71.0,82.0
123,57.930992,58.07431086041667,71.0,83.0
124,58.1896125,58.34047445833333,71.0,83.0
125,58.448233,58.616336325,71.0,85.0
126,58.7068535,58.87387923958334,71.0,89.0
127,58.965474,59.15512903333334,71.0,85.0
128,59.2240945,59.39650816666667,71.0,87.0
129,59.482715,59.649740739583336,71.0,83.0
130,59.741335500000005,59.9159043375,73.0,88.0
131,59.999956000000005,60.17236966666667,71.0,87.0
132,60.258576500000004,60.43099016666667,69.0,87.0
133,60.517197,60.68853308125,71.0,87.0
134,61.034438,61.2219378625,71.0,87.0
135,61.2930585,61.58508414791667,71.0,86.0
136,62.068920000000006,62.21439403125,71.0,88.0
137,62.327540500000005,62.49025589791667,71.0,87.0
138,62.586161000000004,62.74887639791667,69.0,87.0
139,62.8447815,62.98594518958333,69.0,80.0
140,63.103402,63.26719498333333,69.0,83.0
141,63.3620225,63.497798262500005,68.0,89.0
142,63.620643,63.80275493541667,68.0,89.0
143,63.8792635,64.07753921666666,66.0,87.0
144,64.3965045,64.58508194791666,69.0,86.0
145,64.655125,65.05814194583334,68.0,88.0
146,65.172366,65.35447793541667,68.0,83.0
147,65.4309865,65.74995178333333,68.0,87.0
148,65.9482275,66.1098653125,71.0,85.0
149,66.20684800000001,66.34693410416666,71.0,89.0
150,66.4654685,66.61633045833334,71.0,87.0
151,66.724089,67.10770940833333,73.0,93.0
152,67.24133,67.758571,73.0,88.0
153,67.758571,67.89973468958334,75.0,88.0
154,68.0171915,68.15188967708333,75.0,88.0
155,68.275812,68.62602726041666,75.0,88.0
156,68.793053,69.16158721250001,76.0,88.0
157,69.310294,69.50856971666667,71.0,87.0
158,69.5689145,70.10662962291667,68.0,87.0
159,70.0861555,70.6551206,71.0,87.0
160,70.86201700000001,71.00856861666666,69.0,86.0
161,71.1206375,71.25749084791667,69.0,82.0
162,71.37925800000001,71.54628373958333,69.0,88.0
163,71.6378785,71.81352492291667,68.0,83.0
164,71.896499,72.06999025208333,64.0,89.0
165,72.1551195,72.31136938541667,66.0,85.0
166,72.41374,72.58184332500001,68.0,86.0
167,72.6723605,74.56567807708333,66.0,83.0
168,76.2930475,76.52149560833334,71.0,85.0
169,76.551668,76.7520988875,76.0,90.0
170,76.8102885,77.02472799791667,75.0,94.0
171,77.068909,77.4762362875,73.0,90.0
172,77.58615,77.74886539791667,73.0,89.0
173,77.84477050000001,78.02796002083333,76.0,88.0
174,78.103391,78.51395104375,75.0,91.0
175,78.620632,78.81567496041667,73.0,88.0
176,78.8792525,79.11308853541667,75.0,83.0
177,79.137873,79.59153646041668,71.0,89.0
178,79.655114,79.82752766666667,76.0,87.0
179,79.9137345,80.25101873541666,76.0,87.0
180,80.4309755,80.55705299375,68.0,81.0
181,80.68959600000001,80.85446656875,68.0,87.0
182,80.9482165,81.13140602083334,71.0,84.0
183,81.20683700000001,81.62925048333334,69.0,87.0
184,81.724078,81.91481061875,69.0,88.0
185,81.9826985,82.14110355625,73.0,89.0
186,82.241319,82.58075840625,71.0,86.0
187,82.75856,82.97299949791667,71.0,87.0
188,83.01718050000001,83.19713726458333,69.0,88.0
189,83.275801,84.4589897875,71.0,87.0
190,84.5689035,84.70683443333334,71.0,89.0
191,84.827524,84.99993766666667,76.0,88.0
192,85.0861445,85.25317023958334,75.0,88.0
193,85.34476500000001,85.72838540833334,73.0,94.0
194,85.86200600000001,86.0171783,73.0,92.0
195,86.1206265,86.27687638541667,76.0,87.0
196,86.379247,86.74562604166667,75.0,91.0
197,86.896488,87.07859993541668,73.0,89.0
198,87.1551085,87.36416007083334,75.0,87.0
199,87.413729,87.60661678958334,71.0,88.0
200,87.67234950000001,87.814590775,76.0,84.0
201,87.93097,88.07213368958334,76.0,83.0
202,88.18959050000001,88.53334024791667,76.0,87.0
203,88.7068315,88.81782279791668,68.0,88.0
204,88.965452,89.12601222708334,68.0,87.0
205,89.2240725,89.38463272708334,71.0,85.0
206,89.482693,89.89433062916667,69.0,87.0
207,89.99993400000001,90.16695973958333,69.0,89.0
208,90.2585545,90.41049404375,68.0,85.0
209,90.51717500000001,90.943898825,64.0,87.0
210,91.03441600000001,91.19066588541666,66.0,82.0
211,91.2930365,92.32751850000001,64.0,83.0
212,92.84475950000001,93.07320760833333,71.0,85.0
213,93.10338,93.3038108875,76.0,90.0
214,93.36200050000001,93.57643999791667,75.0,94.0
215,93.620621,94.02794828750001,73.0,90.0
216,94.137862,94.30057739791667,73.0,89.0
217,94.3964825,94.57967202083334,76.0,88.0
218,94.655103,95.06566304375,75.0,91.0
219,95.17234400000001,95.36738696041667,73.0,88.0
220,95.4309645,95.66480053541667,75.0,83.0
221,95.68958500000001,96.14324846041667,71.0,89.0
222,96.206826,96.37923966666668,76.0,87.0
223,96.4654465,96.80273073541667,76.0,87.0
224,96.9826875,97.10876499375,68.0,81.0
225,97.241308,97.40617856875001,68.0,87.0
226,97.49992850000001,97.68311802083333,71.0,84.0
227,97.758549,98.18096248333333,69.0,87.0
228,98.27579,98.46652261875,69.0,88.0
229,98.5344105,98.69281555625001,73.0,89.0
230,98.793031,99.13247040625001,71.0,86.0
231,99.310272,99.52471149791667,71.0,87.0
232,99.5688925,99.74884926458334,69.0,88.0
233,99.82751300000001,101.0107017875,71.0,87.0
234,101.1206155,101.25854643333334,71.0,89.0
235,101.379236,101.55164966666668,76.0,88.0
236,101.6378565,101.80488223958334,75.0,88.0
237,101.896477,102.28009740833333,73.0,94.0
238,102.413718,102.5688903,73.0,92.0
239,102.67233850000001,102.82858838541667,76.0,87.0
240,102.930959,103.29733804166668,75.0,91.0
241,103.4482,103.63031193541667,73.0,89.0
242,103.7068205,103.91587207083333,75.0,87.0
243,103.965441,104.15832878958334,71.0,88.0
244,104.2240615,104.36630277500001,76.0,84.0
245,104.48268200000001,104.62384568958333,76.0,83.0
246,104.7413025,105.08505224791666,76.0,87.0
247,105.2585435,105.36953479791667,68.0,88.0
248,105.51716400000001,105.67772422708333,68.0,87.0
249,105.7757845,105.93634472708334,71.0,85.0
250,106.034405,106.44604262916667,69.0,87.0
251,106.551646,106.71867173958334,69.0,89.0
252,106.8102665,106.96220604375,68.0,85.0
253,107.068887,107.495610825,64.0,87.0
254,107.586128,107.74237788541667,66.0,82.0
255,107.84474850000001,109.71004885625,64.0,83.0
256,128.275768,128.45249200833334,68.0,89.0
257,128.5343885,128.70356941041666,69.0,87.0
258,128.793009,129.193870775,71.0,88.0
259,129.31025,129.70895660416667,71.0,88.0
260,129.827491,129.98050812916668,69.0,92.0
261,130.08611150000002,130.24020621458334,68.0,81.0
262,130.344732,130.74667136041668,66.0,87.0
263,130.861973,131.21218826041667,64.0,89.0
264,131.37921400000002,131.76391199375,64.0,87.0
265,131.896455,132.0516273,66.0,86.0
266,132.1550755,132.28546333541667,64.0,85.0
267,132.41369600000002,132.55917003125,63.0,91.0
268,132.6723165,132.85335085,64.0,80.0
269,132.930937,133.2736091625,68.0,87.0
270,133.448178,133.81347945625,68.0,88.0
271,133.965419,134.11197061666667,66.0,82.0
272,134.2240395,134.39537558125,68.0,86.0
273,134.48266,134.92123726458334,69.0,88.0
274,134.999901,135.97511580208334,68.0,86.0
275,136.2930035,136.43847753125002,68.0,88.0
276,136.551624,136.74020144791666,68.0,87.0
277,136.8102445,136.96649438541667,69.0,88.0
278,137.06886500000002,137.45356299375,71.0,88.0
279,137.586106,137.90399369791666,71.0,88.0
280,138.103347,138.28653652083335,69.0,90.0
281,138.3619675,138.49235533541668,68.0,87.0
282,138.620588,139.07101870416668,66.0,87.0
283,139.137829,139.55916489791667,64.0,87.0
284,139.65507,139.99881974791668,64.0,88.0
285,140.172311,140.34903500833335,66.0,82.0
286,140.4309315,140.61735377708334,68.0,86.0
287,140.689552,141.17554302291668,66.0,88.0
288,141.206793,141.581792725,64.0,88.0
289,141.9826545,142.241275,59.0,89.0
290,142.241275,142.4998955,68.0,81.0
291,142.4998955,142.75851600000001,66.0,84.0
292,142.75851600000001,143.0171365,64.0,80.0
293,143.0171365,144.4460147625,64.0,88.0
294,144.5688595,144.72510938541666,71.0,82.0
295,144.82748,144.97079886041666,71.0,83.0
296,145.08610050000001,145.23696245833335,71.0,83.0
297,145.344721,145.512824325,71.0,85.0
298,145.6033415,145.77036723958335,71.0,89.0
299,145.861962,146.05161703333334,71.0,85.0
300,146.1205825,146.29299616666668,71.0,87.0
301,146.37920300000002,146.54622873958334,71.0,83.0
302,146.6378235,146.8123923375,73.0,88.0
303,146.896444,147.06885766666667,71.0,87.0
304,147.1550645,147.32747816666668,69.0,87.0
305,147.41368500000002,147.58502108125,71.0,87.0
306,147.930926,148.1184258625,71.0,87.0
307,148.1895465,148.48157214791667,71.0,86.0
308,148.965408,149.11088203125001,71.0,88.0
309,149.2240285,149.38674389791666,71.0,87.0
310,149.482649,149.64536439791667,69.0,87.0
311,149.74126950000002,149.88243318958334,69.0,80.0
312,149.99989,150.16368298333333,69.0,83.0
313,150.2585105,150.3942862625,68.0,89.0
314,150.517131,150.69924293541666,68.0,89.0
315,150.7757515,150.97402721666668,66.0,87.0
316,151.03437200000002,151.202475325,68.0,86.0
317,151.2929925,151.48156994791668,69.0,86.0
318,151.551613,151.95462994583335,68.0,88.0
319,152.06885400000002,152.25096593541667,68.0,83.0
320,152.3274745,152.64643978333334,68.0,87.0
321,152.8447155,153.0063533125,71.0,85.0
322,153.103336,153.24342210416668,71.0,89.0
323,153.36195650000002,153.51281845833333,71.0,87.0
324,153.620577,154.00419740833334,73.0,93.0
325,154.137818,154.655059,73.0,88.0
326,154.655059,154.79622268958335,75.0,88.0
327,154.9136795,155.04837767708335,75.0,88.0
328,155.1723,155.52251526041667,75.0,88.0
329,155.68954100000002,156.0580752125,76.0,88.0
330,156.206782,156.40505771666668,71.0,87.0
331,156.4654025,157.00311762291668,68.0,87.0
332,156.9826435,157.5516086,71.0,87.0
333,157.758505,157.90505661666668,69.0,86.0
334,158.01712550000002,158.15397884791668,69.0,82.0
335,158.275746,158.44277173958335,69.0,88.0
336,158.5343665,158.71001292291666,68.0,83.0
337,158.792987,158.96647825208333,64.0,89.0
338,159.05160750000002,159.20785738541667,66.0,85.0
339,159.310228,159.478331325,68.0,86.0
340,159.5688485,161.46216607708334,66.0,83.0
341,163.1895355,163.41798360833334,71.0,85.0
342,163.448156,163.64858688750002,76.0,90.0
343,163.70677650000002,163.92121599791668,75.0,94.0
344,163.965397,164.3727242875,73.0,90.0
345,164.482638,164.64535339791667,73.0,89.0
346,164.74125850000001,164.92444802083335,76.0,88.0
347,164.999879,165.41043904375002,75.0,91.0
348,165.51712,165.71216296041666,73.0,88.0
349,165.7757405,166.00957653541667,75.0,83.0
350,166.03436100000002,166.48802446041668,71.0,89.0
351,166.551602,166.72401566666667,76.0,87.0
352,166.8102225,167.14750673541667,76.0,87.0
353,167.3274635,167.45354099375,68.0,81.0
354,167.586084,167.75095456875002,68.0,87.0
355,167.8447045,168.02789402083334,71.0,84.0
356,168.103325,168.52573848333333,69.0,87.0
357,168.620566,168.81129861875002,69.0,88.0
358,168.8791865,169.03759155625,73.0,89.0
359,169.137807,169.47724640625,71.0,86.0
360,169.655048,169.86948749791668,71.0,87.0
361,169.9136685,170.09362526458335,69.0,88.0
362,170.172289,171.3554777875,71.0,87.0
363,171.4653915,171.60332243333335,71.0,89.0
364,171.72401200000002,171.8964256666667,76.0,88.0
365,171.9826325,172.14965823958335,75.0,88.0
366,172.241253,172.62487340833334,73.0,94.0
367,172.758494,172.91366630000002,73.0,92.0
368,173.01711450000002,173.17336438541668,76.0,87.0
369,173.275735,173.64211404166667,75.0,91.0
370,173.792976,173.97508793541667,73.0,89.0
371,174.05159650000002,174.26064807083333,75.0,87.0
372,174.310217,174.50310478958335,71.0,88.0
373,174.5688375,174.711078775,76.0,84.0
374,174.827458,174.96862168958333,76.0,83.0
375,175.0860785,175.42982824791667,76.0,87.0
376,175.6033195,175.71431079791668,68.0,88.0
377,175.86194,176.02250022708333,68.0,87.0
378,176.1205605,176.28112072708333,71.0,85.0
379,176.37918100000002,176.79081862916667,69.0,87.0
380,176.896422,177.06344773958335,69.0,89.0
381,177.1550425,177.30698204375,68.0,85.0
382,177.413663,177.840386825,64.0,87.0
383,177.930904,178.08715388541668,66.0,82.0
384,178.1895245,179.2240065,64.0,83.0
385,179.74124750000001,179.96969560833335,71.0,85.0
386,179.99986800000002,180.2002988875,76.0,90.0
387,180.2584885,180.47292799791668,75.0,94.0
388,180.517109,180.92443628750001,73.0,90.0
389,181.03435000000002,181.19706539791667,73.0,89.0
390,181.2929705,181.47616002083333,76.0,88.0
391,181.551591,181.96215104375,75.0,91.0
392,182.06883200000001,182.26387496041667,73.0,88.0
393,182.32745250000002,182.56128853541668,75.0,83.0
394,182.586073,183.03973646041666,71.0,89.0
395,183.103314,183.27572766666668,76.0,87.0
396,183.36193450000002,183.69921873541668,76.0,87.0
397,183.8791755,184.00525299375002,68.0,81.0
398,184.137796,184.30266656875,68.0,87.0
399,184.39641650000002,184.57960602083335,71.0,84.0
400,184.65503700000002,185.07745048333334,69.0,87.0
401,185.172278,185.36301061875,69.0,88.0
402,185.4308985,185.58930355625,73.0,89.0
403,185.68951900000002,186.02895840625,71.0,86.0
404,186.20676,186.42119949791666,71.0,87.0
405,186.4653805,186.64533726458333,69.0,88.0
406,186.72400100000002,187.90718978750002,71.0,87.0
407,188.01710350000002,188.15503443333333,71.0,89.0
408,188.275724,188.44813766666667,76.0,88.0
409,188.5343445,188.70137023958335,75.0,88.0
410,188.792965,189.17658540833335,73.0,94.0
411,189.310206,189.4653783,73.0,92.0
412,189.5688265,189.72507638541668,76.0,87.0
413,189.827447,190.19382604166668,75.0,91.0
414,190.34468800000002,190.52679993541668,73.0,89.0
415,190.6033085,190.81236007083334,75.0,87.0
416,190.861929,191.05481678958333,71.0,88.0
417,191.1205495,191.262790775,76.0,84.0
418,191.37917000000002,191.52033368958334,76.0,83.0
419,191.6377905,191.98154024791668,76.0,87.0
420,192.1550315,192.26602279791666,68.0,88.0
421,192.413652,192.57421222708334,68.0,87.0
422,192.67227250000002,192.83283272708334,71.0,85.0
423,192.930893,193.34253062916667,69.0,87.0
424,193.448134,193.61515973958333,69.0,89.0
425,193.70675450000002,193.85869404375,68.0,85.0
426,193.965375,194.392098825,64.0,87.0
427,194.482616,194.63886588541666,66.0,82.0
428,194.7412365,196.03433900000002,64.0,83.0
429,196.2929595,196.52140760833333,71.0,85.0
430,196.55158,196.7520108875,76.0,90.0
431,196.8102005,197.02463999791667,75.0,94.0
432,197.068821,197.4761482875,73.0,90.0
433,197.586062,197.74877739791668,73.0,89.0
434,197.8446825,198.02787202083334,76.0,88.0
435,198.103303,198.51386304375,75.0,91.0
436,198.620544,198.81558696041668,73.0,88.0
437,198.8791645,199.1130005354167,75.0,83.0
438,199.137785,199.59144846041667,71.0,89.0
439,199.65502600000002,199.82743966666666,76.0,87.0
440,199.9136465,200.2509307354167,76.0,87.0
441,200.4308875,200.55696499375,68.0,81.0
442,200.68950800000002,200.85437856875,68.0,87.0
443,200.9481285,201.13131802083333,71.0,84.0
444,201.206749,201.62916248333335,69.0,87.0
445,201.72399000000001,201.91472261875,69.0,88.0
446,201.98261050000002,202.14101555625,73.0,89.0
447,202.241231,202.58067040625002,71.0,86.0
448,202.758472,202.97291149791667,71.0,87.0
449,203.01709250000002,203.19704926458334,69.0,88.0
450,203.275713,204.4589017875,71.0,87.0
451,204.5688155,204.70674643333334,71.0,89.0
452,204.827436,204.99984966666668,76.0,88.0
453,205.0860565,205.25308223958334,75.0,88.0
454,205.34467700000002,205.72829740833333,73.0,94.0
455,205.861918,206.0170903,73.0,92.0
456,206.1205385,206.27678838541667,76.0,87.0
457,206.37915900000002,206.74553804166666,75.0,91.0
458,206.8964,207.07851193541669,73.0,89.0
459,207.1550205,207.36407207083334,75.0,87.0
460,207.413641,207.60652878958334,71.0,88.0
461,207.67226150000002,207.814502775,76.0,84.0
462,207.930882,208.07204568958335,76.0,83.0
463,208.1895025,208.53325224791666,76.0,87.0
464,208.70674350000002,208.81773479791667,68.0,88.0
465,208.96536400000002,209.12592422708335,68.0,87.0
466,209.2239845,209.38454472708335,71.0,85.0
467,209.482605,209.89424262916668,69.0,87.0
468,209.99984600000002,210.16687173958334,69.0,89.0
469,210.2584665,210.41040604375002,68.0,85.0
470,210.517087,210.943810825,64.0,87.0
471,211.03432800000002,211.19057788541667,66.0,82.0
472,211.2929485,212.32743050000002,64.0,83.0
473,212.8446715,213.07311960833334,71.0,85.0
474,213.103292,213.30372288750002,76.0,90.0
475,213.36191250000002,213.57635199791667,75.0,94.0
476,213.620533,214.0278602875,73.0,90.0
477,214.137774,214.30048939791666,73.0,89.0
478,214.3963945,214.57958402083335,76.0,88.0
479,214.65501500000002,215.06557504375002,75.0,91.0
480,215.172256,215.36729896041666,73.0,88.0
481,215.4308765,215.66471253541667,75.0,83.0
482,215.68949700000002,216.14316046041668,71.0,89.0
483,216.206738,216.37915166666667,76.0,87.0
484,216.4653585,216.80264273541667,76.0,87.0
485,216.98259950000002,217.10867699375,68.0,81.0
486,217.24122,217.40609056875002,68.0,87.0
487,217.4998405,217.68303002083334,71.0,84.0
488,217.758461,218.18087448333335,69.0,87.0
489,218.275702,218.46643461875001,69.0,88.0
490,218.5343225,218.69272755625002,73.0,89.0
491,218.792943,219.13238240625,71.0,86.0
492,219.31018400000002,219.52462349791668,71.0,87.0
493,219.5688045,219.74876126458335,69.0,88.0
494,219.827425,221.0106137875,71.0,87.0
495,221.1205275,221.25845843333335,71.0,89.0
496,221.37914800000001,221.5515616666667,76.0,88.0
497,221.63776850000002,221.80479423958334,75.0,88.0
498,221.896389,222.28000940833334,73.0,94.0
499,222.41363,222.56880230000002,73.0,92.0
500,222.67225050000002,222.82850038541667,76.0,87.0
501,222.930871,223.29725004166667,75.0,91.0
502,223.448112,223.63022393541667,73.0,89.0
503,223.70673250000002,223.91578407083335,75.0,87.0
504,223.96535300000002,224.15824078958335,71.0,88.0
505,224.2239735,224.366214775,76.0,84.0
506,224.482594,224.62375768958333,76.0,83.0
507,224.7412145,225.08496424791667,76.0,87.0
508,225.2584555,225.36944679791668,68.0,88.0
509,225.517076,225.67763622708335,68.0,87.0
510,225.7756965,225.93625672708333,71.0,85.0
511,226.03431700000002,226.44595462916666,69.0,87.0
512,226.551558,226.71858373958335,69.0,89.0
513,226.8101785,226.96211804375,68.0,85.0
514,227.068799,227.495522825,64.0,87.0
515,227.58604,227.74228988541668,66.0,82.0
516,227.8446605,229.70996085625,64.0,83.0
