,start,end,pitch,velocity
0,0.5193961708333333,1.9956881916666667,40.0,87.0
1,0.41594797083333335,2.2607742041666667,52.0,71.0
2,0.47737033958333336,2.267239716666667,56.0,76.0
3,0.5366375375,2.27262764375,59.0,76.0
4,0.5894392229166667,2.29202418125,64.0,71.0
5,2.586205,2.7402997145833337,57.0,80.0
6,2.586205,2.8954720145833335,64.0,83.0
7,2.586205,2.9051702833333333,61.0,90.0
8,2.8448255000000002,3.0204719229166668,57.0,80.0
9,3.103446,3.1508597583333335,57.0,73.0
10,3.103446,3.4698250416666667,61.0,91.0
11,3.103446,3.479523310416667,64.0,88.0
12,3.3620665,3.5765059979166667,57.0,80.0
13,3.620687,3.68857488125,57.0,70.0
14,3.620687,3.951505722916667,61.0,88.0
15,3.620687,3.967669504166667,64.0,87.0
16,3.8793075000000004,4.0150832625,57.0,82.0
17,2.586205,4.178876245833333,45.0,96.0
18,4.1379280000000005,4.254307225,61.0,90.0
19,4.1379280000000005,4.256462395833333,57.0,88.0
20,4.1379280000000005,4.29633305625,64.0,89.0
21,4.655169,4.908401572916667,56.0,87.0
22,4.655169,4.908401572916667,59.0,87.0
23,5.17241,5.268315102083333,56.0,87.0
24,5.17241,5.399780522916667,59.0,89.0
25,5.17241,5.470901160416667,63.0,90.0
26,4.9137895,5.54417696875,51.0,81.0
27,5.4310305,5.578659702083334,56.0,83.0
28,4.655169,5.671332047916667,44.0,89.0
29,5.6896510000000005,6.034478333333333,61.0,87.0
30,5.6896510000000005,6.034478333333333,64.0,87.0
31,5.948271500000001,6.0732714083333335,56.0,83.0
32,5.6896510000000005,6.224133366666667,49.0,92.0
33,6.206892,6.41055564375,61.0,87.0
34,6.206892,6.49460730625,64.0,86.0
35,6.4655125,6.612064116666667,56.0,77.0
36,6.724133,7.007537964583333,57.0,78.0
37,6.724133,7.043098283333333,54.0,82.0
38,6.724133,7.048486210416667,61.0,86.0
39,7.241374,7.524778964583334,57.0,88.0
40,7.241374,7.572192722916667,61.0,89.0
41,6.9827535,7.5840461625,49.0,76.0
42,7.499994500000001,7.668097825,54.0,85.0
43,6.724133,7.7004253875,42.0,88.0
44,7.758615000000001,7.932106252083334,54.0,78.0
45,7.758615000000001,8.048485477083334,59.0,79.0
46,8.275856000000001,8.3793042,54.0,87.0
47,8.0172355,8.47305413125,51.0,86.0
48,7.758615000000001,8.47951964375,47.0,89.0
49,8.275856000000001,8.580812672916666,59.0,87.0
50,8.275856000000001,8.584045429166666,63.0,94.0
51,8.5344765,8.675640189583333,54.0,89.0
52,8.793097,9.081889891666666,56.0,85.0
53,8.793097,9.1357691625,52.0,83.0
54,9.310338,9.64331189375,56.0,88.0
55,9.310338,9.650854991666668,59.0,90.0
56,9.5689585,9.767234216666667,52.0,87.0
57,9.827579,9.8599065625,52.0,70.0
58,9.827579,10.127147745833334,64.0,88.0
59,9.827579,10.150854625000001,56.0,92.0
60,9.827579,10.155164966666668,59.0,91.0
61,10.086199500000001,10.292018314583334,52.0,87.0
62,9.0517175,10.479518177083333,47.0,78.0
63,10.34482,10.50322505625,56.0,93.0
64,8.793097,10.519388837500001,40.0,87.0
65,10.34482,10.620681866666667,59.0,90.0
66,10.6034405,10.776931752083334,52.0,87.0
67,10.862061,10.964431614583333,52.0,77.0
68,10.862061,11.206888333333334,57.0,88.0
69,11.1206815,11.308181362500001,52.0,86.0
70,11.379302000000001,11.69934486875,57.0,88.0
71,11.379302000000001,11.723051747916667,61.0,88.0
72,10.862061,11.769387920833333,45.0,93.0
73,11.6379225,11.774775847916667,52.0,87.0
74,11.896543000000001,12.024775664583334,54.0,87.0
75,11.896543000000001,12.245680675000001,59.0,89.0
76,12.1551635,12.351284045833333,54.0,86.0
77,12.413784,12.45580983125,54.0,74.0
78,11.896543000000001,12.715507916666667,47.0,81.0
79,12.413784,12.734904454166667,59.0,88.0
80,12.413784,12.765076845833335,63.0,89.0
81,12.6724045,12.8081802625,54.0,88.0
82,12.931025,13.233826502083334,56.0,85.0
83,12.931025,13.2349040875,63.0,88.0
84,12.931025,13.256455795833334,59.0,87.0
85,13.448266,13.568955566666666,56.0,85.0
86,13.448266,13.73598130625,63.0,90.0
87,13.448266,13.7521450875,59.0,90.0
88,13.189645500000001,13.828653652083334,51.0,79.0
89,12.931025,13.870679483333333,44.0,87.0
90,13.706886500000001,14.035550052083334,56.0,83.0
91,13.965507,14.296325722916666,61.0,88.0
92,13.965507,14.30494640625,64.0,89.0
93,14.2241275,14.417015289583334,56.0,81.0
94,13.965507,14.607747908333334,49.0,88.0
95,14.482748,14.702575425000001,61.0,90.0
96,14.482748,14.785549502083335,64.0,87.0
97,14.7413685,14.849127041666668,56.0,83.0
98,14.999989000000001,15.292014647916668,57.0,83.0
99,14.999989000000001,15.334040479166667,61.0,87.0
100,14.999989000000001,15.353437016666668,54.0,85.0
101,15.517230000000001,15.633609225,54.0,88.0
102,15.517230000000001,15.84373838125,61.0,89.0
103,15.2586095,15.9116262625,49.0,79.0
104,14.999989000000001,15.942876239583335,42.0,88.0
105,15.7758505,15.943953825000001,54.0,86.0
106,16.034471,16.313565622916666,54.0,86.0
107,16.034471,16.352358697916667,59.0,88.0
108,16.551712000000002,16.665936054166668,54.0,89.0
109,16.034471,16.730591179166666,47.0,89.0
110,16.2930915,16.746754960416666,51.0,80.0
111,16.551712000000002,16.858823843750002,59.0,92.0
112,16.551712000000002,16.859901429166666,63.0,93.0
113,16.8103325,16.921323797916667,54.0,85.0
114,17.068953,17.509685435416667,56.0,83.0
115,17.586194,17.640073270833334,56.0,54.0
116,17.586194,17.933176504166667,59.0,83.0
117,17.068953,17.935331675,52.0,86.0
118,17.844814500000002,17.942874772916667,56.0,78.0
119,18.103435,18.276926252083335,52.0,78.0
120,18.103435,18.496753677083333,64.0,87.0
121,18.3620555,18.50752953125,52.0,80.0
122,18.620676,19.09589116875,56.0,93.0
123,18.879296500000002,19.129296316666668,52.0,82.0
124,18.620676,19.130373902083335,59.0,89.0
125,17.3275735,19.147615268750002,47.0,76.0
126,17.068953,19.16162387916667,40.0,88.0
127,19.137917,19.16162387916667,40.0,89.0
128,19.137917,19.475201235416666,56.0,82.0
129,19.137917,19.54847704375,59.0,85.0
130,19.137917,19.56140806875,64.0,84.0
131,19.655158,19.80709754375,56.0,81.0
132,19.9137785,20.215502416666666,56.0,87.0
133,19.9137785,20.415933304166668,64.0,88.0
134,19.9137785,20.459036720833335,59.0,92.0
135,20.4310195,20.5344677,56.0,83.0
136,20.68964,20.978432891666667,57.0,94.0
137,20.68964,20.995674258333334,54.0,88.0
138,19.3965375,21.108820727083334,47.0,73.0
139,21.206881,21.544165235416667,56.0,83.0
140,21.206881,21.59265657916667,59.0,91.0
141,21.724122,21.849121908333334,56.0,83.0
142,21.9827425,22.278000904166667,56.0,88.0
143,21.9827425,22.474121450000002,64.0,87.0
144,21.9827425,22.50321625625,59.0,96.0
145,22.499983500000003,22.6616213125,56.0,74.0
146,21.465501500000002,22.915931470833335,47.0,84.0
147,21.206881,23.029077939583335,40.0,88.0
148,23.275845,23.535543085416666,56.0,85.0
149,23.275845,23.660542993750003,59.0,87.0
150,23.793086000000002,23.934249689583336,56.0,77.0
151,23.275845,24.92562827291667,40.0,88.0
152,23.5344655,24.927783443750002,47.0,75.0
153,24.0517065,25.230584945833336,56.0,84.0
154,24.0517065,25.23920562916667,64.0,84.0
155,24.0517065,25.240283214583336,59.0,84.0
156,25.344809,25.529076106250002,59.0,88.0
157,25.344809,25.91700685625,68.0,87.0
158,25.344809,26.248903164583336,40.0,87.0
159,26.120670500000003,26.336187583333334,64.0,91.0
160,25.6034295,26.503213322916668,47.0,82.0
161,25.86205,26.593730497916667,59.0,94.0
162,26.379291000000002,26.871747535416667,63.0,92.0
163,26.6379115,27.199333502083334,47.0,82.0
164,26.896532,27.2068766,59.0,89.0
165,26.379291000000002,27.228428308333335,39.0,89.0
166,27.1551525,27.46872985625,66.0,88.0
167,27.413773000000003,27.894376095833334,64.0,88.0
168,27.931014,28.09372939791667,61.0,88.0
169,27.672393500000002,28.22519481875,44.0,71.0
170,27.413773000000003,28.26829823541667,37.0,89.0
171,28.1896345,28.363125752083334,64.0,91.0
172,28.448255,28.545237687500002,35.0,87.0
173,28.448255,28.858815043750003,59.0,89.0
174,28.448255,28.953642560416668,63.0,96.0
175,28.706875500000002,29.093728664583335,47.0,84.0
176,28.965496,29.14760793541667,54.0,78.0
177,29.2241165,29.447176681250003,59.0,91.0
178,29.482737,29.854503968750002,61.0,84.0
179,29.999978000000002,30.287693306250002,57.0,86.0
180,29.482737,30.316788112500003,45.0,88.0
181,29.7413575,30.353426016666667,52.0,75.0
182,30.2585985,30.629287883333333,61.0,88.0
183,30.7758395,31.157304737500002,54.0,78.0
184,30.517219,31.200408154166666,47.0,92.0
185,31.034460000000003,31.450407970833336,59.0,94.0
186,31.551701,31.761830156250003,64.0,83.0
187,31.551701,31.797390475,59.0,82.0
188,32.068942,32.37174350208333,52.0,88.0
189,32.3275625,32.484889970833336,54.0,89.0
190,31.8103215,32.71010532291667,47.0,70.0
191,32.586183,32.93101033333333,56.0,87.0
192,33.103424000000004,33.2391997625,52.0,83.0
193,32.844803500000005,33.26613939791667,47.0,83.0
194,33.3620445,33.62389775625,52.0,85.0
195,33.103424000000004,33.63790636666667,56.0,88.0
196,31.551701,33.669156343750004,40.0,87.0
197,33.620665,33.669156343750004,40.0,87.0
198,33.103424000000004,33.672389100000004,59.0,88.0
199,33.620665,33.672389100000004,59.0,87.0
200,33.8792855,34.1896301,47.0,82.0
201,33.620665,34.21980249166667,68.0,85.0
202,34.137906,34.52906950625,59.0,88.0
203,34.3965265,34.54415570208334,64.0,87.0
204,34.655147,35.04307775,66.0,87.0
205,34.655147,35.205793147916665,50.0,90.0
206,34.9137675,35.27260344375,57.0,75.0
207,35.172388,35.45471537916667,62.0,91.0
208,35.431008500000004,35.74458585625,66.0,84.0
209,35.689629000000004,35.846956470833334,64.0,83.0
210,35.689629000000004,36.009671868750004,59.0,89.0
211,35.9482495,36.219801025,64.0,80.0
212,35.689629000000004,36.28876649166667,40.0,88.0
213,36.20687,36.46225774375,59.0,89.0
214,36.4654905,36.57971455416667,64.0,83.0
215,36.724111,37.202558925,35.0,87.0
216,36.724111,37.27583473333333,59.0,82.0
217,36.724111,37.33617951666667,63.0,87.0
218,37.4999725,37.63682584791667,59.0,89.0
219,37.241352,37.72842060833334,47.0,82.0
220,37.241352,37.76613609791667,54.0,88.0
221,37.758593000000005,38.102342747916666,59.0,90.0
222,37.758593000000005,38.262902975,40.0,97.0
223,38.275834,38.37604944375,59.0,81.0
224,38.275834,38.419152860416666,64.0,97.0
225,38.5344545,38.890057687500004,54.0,78.0
226,38.793075,39.142212675,59.0,86.0
227,38.793075,39.28122119375,35.0,97.0
228,39.0516955,39.3297125375,54.0,85.0
229,39.310316,39.43962625,59.0,88.0
230,39.310316,39.613117502083334,63.0,89.0
231,39.5689365,39.9374707125,59.0,75.0
232,39.827557,40.01074652083334,64.0,82.0
233,40.0861775,40.74134943333333,47.0,80.0
234,40.344798000000004,40.88574587916667,52.0,87.0
235,40.603418500000004,40.910530343750004,59.0,91.0
236,41.1206595,41.44716788125,52.0,79.0
237,41.37928,41.852339997916665,56.0,86.0
238,41.6379005,41.87389170625,52.0,88.0
239,41.37928,41.887900316666666,59.0,87.0
240,40.862039,41.92238305,47.0,76.0
241,41.37928,41.92561580625,64.0,87.0
242,39.827557,41.927770977083334,40.0,87.0
243,41.896521,41.927770977083334,40.0,87.0
244,41.896521,42.080788106250004,59.0,88.0
245,41.896521,42.46871885625,68.0,87.0
246,42.672382500000005,42.887899583333336,64.0,91.0
247,42.1551415,43.05492532291667,47.0,82.0
248,42.413762,43.14544249791667,59.0,94.0
249,42.931003000000004,43.42345953541667,63.0,92.0
250,43.1896235,43.751045502083336,47.0,82.0
251,43.448244,43.7585886,59.0,89.0
252,42.931003000000004,43.78014030833334,39.0,89.0
253,43.7068645,44.02044185625,66.0,88.0
254,43.965485,44.44608809583333,64.0,88.0
255,44.482726,44.64544139791667,61.0,88.0
256,44.2241055,44.77690681875,44.0,71.0
257,43.965485,44.82001023541667,37.0,89.0
258,44.7413465,44.914837752083336,64.0,91.0
259,44.999967000000005,45.0969496875,35.0,87.0
260,44.999967000000005,45.41052704375,59.0,89.0
261,44.999967000000005,45.50535456041667,63.0,96.0
262,45.258587500000004,45.64544066458333,47.0,84.0
263,45.517208000000004,45.69931993541667,54.0,78.0
264,45.7758285,45.99888868125,59.0,91.0
265,46.034449,46.406215968750004,61.0,84.0
266,46.55169,46.83940530625,57.0,86.0
267,46.034449,46.8685001125,45.0,88.0
268,46.2930695,46.90513801666667,52.0,75.0
269,46.8103105,47.180999883333335,61.0,88.0
270,47.3275515,47.7090167375,54.0,78.0
271,47.068931,47.75212015416667,47.0,92.0
272,47.586172000000005,48.002119970833334,59.0,94.0
273,48.103413,48.31354215625,64.0,83.0
274,48.103413,48.349102475,59.0,82.0
275,48.620654,48.923455502083335,52.0,88.0
276,48.8792745,49.03660197083334,54.0,89.0
277,48.3620335,49.26181732291667,47.0,70.0
278,49.137895,49.482722333333335,56.0,87.0
279,49.655136,49.7909117625,52.0,83.0
280,49.3965155,49.81785139791667,47.0,83.0
281,49.913756500000005,50.175609756250005,52.0,85.0
282,49.655136,50.18961836666667,56.0,88.0
283,48.103413,50.22086834375,40.0,87.0
284,50.172377000000004,50.22086834375,40.0,87.0
285,49.655136,50.2241011,59.0,88.0
286,50.172377000000004,50.2241011,59.0,87.0
287,50.430997500000004,50.741342100000004,47.0,82.0
288,50.172377000000004,50.77151449166667,68.0,85.0
289,50.689618,51.080781506250005,59.0,88.0
290,50.9482385,51.09586770208333,64.0,87.0
291,50.9482385,51.10879872708333,40.0,100.0
292,51.206859,51.594789750000004,66.0,87.0
293,51.206859,51.712246560416666,38.0,100.0
294,51.206859,51.75750514791667,50.0,90.0
295,51.4654795,51.82431544375,57.0,75.0
296,51.7241,52.00642737916667,62.0,91.0
297,51.9827205,52.231642731250005,38.0,100.0
298,51.9827205,52.29629785625,66.0,84.0
299,52.241341000000006,52.398668470833336,64.0,83.0
300,52.241341000000006,52.56138386875,56.0,89.0
301,52.499961500000005,52.771513025000004,64.0,80.0
302,52.248884097916665,52.77905612291667,33.0,100.0
303,52.758582000000004,53.01396974375,56.0,89.0
304,53.0172025,53.131426554166666,64.0,83.0
305,53.0172025,53.23379716875,33.0,100.0
306,53.275823,53.75103816875,35.0,87.0
307,53.274745414583336,53.7736674625,54.0,100.0
308,53.275823,53.827546733333335,59.0,82.0
309,53.275823,53.88789151666667,63.0,87.0
310,54.0516845,54.18853784791667,59.0,89.0
311,53.793064,54.298451560416666,54.0,88.0
312,53.793064,54.30922741458333,47.0,92.0
313,54.310305,54.79952877916667,40.0,97.0
314,54.827546000000005,54.92776144375,57.0,81.0
315,54.827546000000005,55.174528504166666,64.0,82.0
316,54.830778756250005,55.176683675,61.0,97.0
317,55.086166500000004,55.4417696875,52.0,78.0
318,55.344787000000004,55.693924675000005,59.0,86.0
319,55.6034075,55.8814245375,54.0,85.0
320,55.344787000000004,55.98379515208334,35.0,97.0
321,55.862028,55.991338250000005,59.0,88.0
322,55.862028,56.164829502083336,63.0,89.0
323,56.1206485,56.4891827125,59.0,75.0
324,56.379269,56.56245852083334,64.0,82.0
325,56.6378895,57.293061433333335,47.0,80.0
326,56.89651,57.43745787916667,52.0,87.0
327,57.155130500000006,57.46224234375,59.0,91.0
328,57.672371500000004,57.998879881250005,52.0,79.0
329,57.930992,58.40405199791667,56.0,86.0
330,58.1896125,58.42560370625,52.0,88.0
331,57.930992,58.43961231666667,59.0,87.0
332,57.413751000000005,58.47409505,47.0,76.0
333,57.930992,58.47732780625,64.0,87.0
334,58.448233,58.47732780625,64.0,87.0
335,56.379269,58.479482977083336,40.0,87.0
336,58.448233,58.53443983333334,57.0,73.0
337,58.448233,58.79629308958334,61.0,87.0
338,58.7068535,58.86418097083334,57.0,82.0
339,58.448233,59.00103431875,45.0,89.0
340,58.965474,59.10663768958334,61.0,87.0
341,58.965474,59.15512903333334,64.0,88.0
342,59.482715,59.787671672916666,63.0,87.0
343,59.482715,59.79629235625,59.0,84.0
344,59.741335500000005,60.12711107916667,54.0,82.0
345,59.999956000000005,60.13680934791667,59.0,89.0
346,59.482715,60.150817958333334,47.0,89.0
347,59.999956000000005,60.255343743750004,63.0,92.0
348,60.258576500000004,60.33508506458334,59.0,80.0
349,60.517197,60.850170893750004,56.0,87.0
350,60.517197,60.866334675000004,59.0,89.0
351,61.034438,61.13896378541667,56.0,88.0
352,61.034438,61.23055854583333,59.0,89.0
353,60.7758175,61.39111877291667,51.0,85.0
354,60.517197,61.415903237500004,44.0,87.0
355,61.2930585,61.46547216666667,56.0,88.0
356,61.551679,61.900816675,64.0,88.0
357,61.8102995,61.99887694791667,56.0,89.0
358,61.551679,62.1400406375,49.0,88.0
359,62.068920000000006,62.22193712916667,61.0,92.0
360,62.327540500000005,62.43853179791667,56.0,86.0
361,62.586161000000004,62.91374696666667,61.0,87.0
362,62.586161000000004,62.93745384583334,54.0,84.0
363,63.103402,63.20469502916667,54.0,87.0
364,63.103402,63.2585743,57.0,87.0
365,63.103402,63.400815575,61.0,88.0
366,62.8447815,63.42775521041667,49.0,81.0
367,62.586161000000004,63.48702240833334,42.0,87.0
368,63.3620225,63.52473789791667,54.0,83.0
369,63.620643,63.75534117708334,54.0,88.0
370,63.620643,63.9245220875,59.0,88.0
371,63.8792635,64.0150392625,54.0,84.0
372,64.137884,64.19068568541667,54.0,79.0
373,63.620643,64.22732358958334,47.0,89.0
374,64.137884,64.37279762083334,59.0,88.0
375,64.137884,64.38034071875,63.0,89.0
376,64.3965045,64.49779752916668,54.0,82.0
377,64.655125,64.8943489625,56.0,78.0
378,64.655125,64.94499547708334,52.0,80.0
379,65.172366,65.33077105625,52.0,87.0
380,64.9137455,65.33184864166667,47.0,87.0
381,65.172366,65.4762450875,56.0,84.0
382,65.4309865,65.57861570208334,52.0,86.0
383,65.68960700000001,65.92452062083333,52.0,87.0
384,65.68960700000001,65.94607232916667,59.0,88.0
385,66.20684800000001,66.32645998125,52.0,88.0
386,64.655125,66.33939100625,40.0,87.0
387,65.9482275,66.35878754375,47.0,87.0
388,66.20684800000001,66.38788235,56.0,87.0
389,66.4654685,66.633571825,52.0,82.0
390,66.724089,67.18852831458334,64.0,87.0
391,66.724089,67.30275236875,61.0,87.0
392,66.724089,67.44391605833333,45.0,89.0
393,67.24133,67.50318325625,57.0,89.0
394,66.9827095,67.58184699166667,52.0,78.0
395,67.4999505,67.88357090833334,64.0,87.0
396,68.0171915,68.42344120208334,54.0,83.0
397,67.758571,68.4309843,47.0,92.0
398,68.53443250000001,68.62171691875,63.0,89.0
399,68.275812,68.62279450416666,59.0,90.0
400,68.793053,69.09369933125001,56.0,78.0
401,68.793053,69.29628538958333,60.0,82.0
402,69.310294,69.68637131041667,56.0,89.0
403,69.5689145,69.69499199375001,60.0,88.0
404,69.0516735,69.69930233541668,51.0,83.0
405,68.793053,69.75533677708333,44.0,87.0
406,69.827535,70.07753481666667,56.0,88.0
407,69.827535,70.14326752708334,61.0,92.0
408,69.827535,70.56029308333333,49.0,89.0
409,70.344776,70.61740511041667,64.0,88.0
410,70.6033965,70.74456018958334,56.0,83.0
411,70.86201700000001,71.1788271125,54.0,83.0
412,70.86201700000001,71.18421503958334,57.0,76.0
413,71.37925800000001,71.45899932083334,54.0,82.0
414,71.37925800000001,71.69391294166667,57.0,86.0
415,71.37925800000001,71.71438706458333,61.0,88.0
416,71.6378785,71.81029216666667,54.0,85.0
417,71.896499,72.14003330416666,66.0,89.0
418,72.1551195,72.32645558125,54.0,88.0
419,71.1206375,72.70253289166666,49.0,80.0
420,72.41374,72.71007598958333,61.0,89.0
421,70.86201700000001,72.75317940625,42.0,88.0
422,72.6723605,72.80382592083333,54.0,87.0
423,72.930981,73.10231708125,54.0,83.0
424,72.930981,73.28119626041666,59.0,87.0
425,73.18960150000001,73.37494619166667,54.0,87.0
426,73.448222,73.49132541666667,54.0,74.0
427,73.448222,73.75317867291668,63.0,96.0
428,73.448222,73.75748901458334,59.0,93.0
429,73.70684250000001,73.84369584791666,54.0,87.0
430,73.965463,74.12279047083334,54.0,89.0
431,73.965463,74.27904035625001,61.0,88.0
432,74.2240835,74.36524718958334,54.0,83.0
433,74.482704,74.63679871458334,59.0,89.0
434,74.7413245,74.85554855416667,57.0,88.0
435,72.930981,74.87063475000001,47.0,92.0
436,74.999945,75.17990176458333,54.0,88.0
437,74.999945,75.3296861375,59.0,89.0
438,75.2585655,75.38464299375,54.0,85.0
439,75.51718600000001,75.56459975833333,63.0,71.0
440,75.51718600000001,75.59261697916666,54.0,75.0
441,75.51718600000001,75.59261697916666,59.0,74.0
442,74.999945,76.67451273750001,47.0,101.0
443,75.7758065,76.98054699583334,54.0,89.0
444,75.7758065,76.9977883625,59.0,91.0
445,75.7758065,77.00209870416667,63.0,92.0
446,77.068909,77.22300371458334,57.0,80.0
447,77.068909,77.37817601458333,64.0,83.0
448,77.068909,77.38787428333333,61.0,90.0
449,77.3275295,77.50317592291667,57.0,80.0
450,77.58615,77.63356375833334,57.0,73.0
451,77.58615,77.95252904166666,61.0,91.0
452,77.58615,77.96222731041667,64.0,88.0
453,77.84477050000001,78.05920999791667,57.0,80.0
454,78.103391,78.17127888125,57.0,70.0
455,78.103391,78.43420972291668,61.0,88.0
456,78.103391,78.45037350416666,64.0,87.0
457,78.36201150000001,78.4977872625,57.0,82.0
458,77.068909,78.66158024583333,45.0,96.0
459,78.620632,78.737011225,61.0,90.0
460,78.620632,78.73916639583334,57.0,88.0
461,78.620632,78.77903705625,64.0,89.0
462,79.137873,79.39110557291667,56.0,87.0
463,79.137873,79.39110557291667,59.0,87.0
464,79.655114,79.75101910208333,56.0,87.0
465,79.655114,79.88248452291667,59.0,89.0
466,79.655114,79.95360516041667,63.0,90.0
467,79.3964935,80.02688096875,51.0,81.0
468,79.9137345,80.06136370208334,56.0,83.0
469,79.137873,80.15403604791668,44.0,89.0
470,80.172355,80.51718233333334,61.0,87.0
471,80.172355,80.51718233333334,64.0,87.0
472,80.4309755,80.55597540833334,56.0,83.0
473,80.172355,80.70683736666668,49.0,92.0
474,80.68959600000001,80.89325964375,61.0,87.0
475,80.68959600000001,80.97731130625,64.0,86.0
476,80.9482165,81.09476811666667,56.0,77.0
477,81.20683700000001,81.49024196458333,57.0,78.0
478,81.20683700000001,81.52580228333333,54.0,82.0
479,81.20683700000001,81.53119021041667,61.0,86.0
480,81.724078,82.00748296458333,57.0,88.0
481,81.724078,82.05489672291667,61.0,89.0
482,81.4654575,82.0667501625,49.0,76.0
483,81.9826985,82.150801825,54.0,85.0
484,81.20683700000001,82.1831293875,42.0,88.0
485,82.241319,82.41481025208334,54.0,78.0
486,82.241319,82.53118947708333,59.0,79.0
487,82.75856,82.8620082,54.0,87.0
488,82.4999395,82.95575813125001,51.0,86.0
489,82.241319,82.96222364375001,47.0,89.0
490,82.75856,83.06351667291668,59.0,87.0
491,82.75856,83.06674942916666,63.0,94.0
492,83.01718050000001,83.15834418958333,54.0,89.0
493,83.275801,83.56459389166668,56.0,85.0
494,83.275801,83.61847316250001,52.0,83.0
495,83.793042,84.12601589375001,56.0,88.0
496,83.793042,84.13355899166667,59.0,90.0
497,84.0516625,84.24993821666666,52.0,87.0
498,84.310283,84.3426105625,52.0,70.0
499,84.310283,84.60985174583334,64.0,88.0
500,84.310283,84.633558625,56.0,92.0
501,84.310283,84.63786896666667,59.0,91.0
502,84.5689035,84.77472231458334,52.0,87.0
503,83.53442150000001,84.96222217708333,47.0,78.0
504,84.827524,84.98592905625,56.0,93.0
505,83.275801,85.0020928375,40.0,87.0
506,84.827524,85.10338586666667,59.0,90.0
507,85.0861445,85.25963575208334,52.0,87.0
508,85.34476500000001,85.44713561458333,52.0,77.0
509,85.34476500000001,85.68959233333334,57.0,88.0
510,85.6033855,85.7908853625,52.0,86.0
511,85.86200600000001,86.18204886875,57.0,88.0
512,85.86200600000001,86.20575574791667,61.0,88.0
513,85.34476500000001,86.25209192083334,45.0,93.0
514,86.1206265,86.25747984791667,52.0,87.0
515,86.379247,86.50747966458334,54.0,87.0
516,86.379247,86.728384675,59.0,89.0
517,86.6378675,86.83398804583334,54.0,86.0
518,86.896488,86.93851383125,54.0,74.0
519,86.379247,87.19821191666666,47.0,81.0
520,86.896488,87.21760845416667,59.0,88.0
521,86.896488,87.24778084583333,63.0,89.0
522,87.1551085,87.2908842625,54.0,88.0
523,87.413729,87.71653050208333,56.0,85.0
524,87.413729,87.7176080875,63.0,88.0
525,87.413729,87.73915979583333,59.0,87.0
526,87.93097,88.05165956666667,56.0,85.0
527,87.93097,88.21868530625001,63.0,90.0
528,87.93097,88.23484908750001,59.0,90.0
529,87.67234950000001,88.31135765208333,51.0,79.0
530,87.413729,88.35338348333333,44.0,87.0
531,88.18959050000001,88.51825405208334,56.0,83.0
532,88.448211,88.77902972291668,61.0,88.0
533,88.448211,88.78765040625001,64.0,89.0
534,88.7068315,88.89971928958333,56.0,81.0
535,88.448211,89.09045190833334,49.0,88.0
536,88.965452,89.185279425,61.0,90.0
537,88.965452,89.26825350208334,64.0,87.0
538,89.2240725,89.33183104166667,56.0,83.0
539,89.482693,89.77471864791667,57.0,83.0
540,89.482693,89.81674447916667,61.0,87.0
541,89.482693,89.83614101666667,54.0,85.0
542,89.99993400000001,90.116313225,54.0,88.0
543,89.99993400000001,90.32644238125,61.0,89.0
544,89.7413135,90.3943302625,49.0,79.0
545,89.482693,90.42558023958334,42.0,88.0
546,90.2585545,90.426657825,54.0,86.0
547,90.51717500000001,90.79626962291667,54.0,86.0
548,90.51717500000001,90.83506269791667,59.0,88.0
549,91.03441600000001,91.14864005416668,54.0,89.0
550,90.51717500000001,91.21329517916666,47.0,89.0
551,90.7757955,91.22945896041666,51.0,80.0
552,91.03441600000001,91.34152784375,59.0,92.0
553,91.03441600000001,91.34260542916667,63.0,93.0
554,91.2930365,91.40402779791667,54.0,85.0
555,91.551657,91.99238943541667,56.0,83.0
556,92.068898,92.12277727083334,56.0,54.0
557,92.068898,92.41588050416667,59.0,83.0
558,91.551657,92.418035675,52.0,86.0
559,92.32751850000001,92.42557877291667,56.0,78.0
560,92.586139,92.75963025208334,52.0,78.0
561,92.586139,92.97945767708333,64.0,87.0
562,92.84475950000001,92.99023353125,52.0,80.0
563,93.10338,93.57859516875,56.0,93.0
564,93.36200050000001,93.61200031666667,52.0,82.0
565,93.10338,93.61307790208333,59.0,89.0
566,91.8102775,93.63031926875,47.0,76.0
567,91.551657,93.64432787916667,40.0,88.0
568,93.620621,93.77471571458334,57.0,80.0
569,93.620621,93.92988801458334,64.0,83.0
570,93.620621,93.93958628333334,61.0,90.0
571,93.8792415,94.05488792291668,57.0,80.0
572,94.137862,94.18527575833333,57.0,73.0
573,94.137862,94.50424104166667,61.0,91.0
574,94.137862,94.51393931041667,64.0,88.0
575,94.3964825,94.61092199791668,57.0,80.0
576,94.655103,94.72299088125,57.0,70.0
577,94.655103,94.98592172291667,61.0,88.0
578,94.655103,95.00208550416667,64.0,87.0
579,94.9137235,95.0494992625,57.0,82.0
580,93.620621,95.21329224583334,45.0,96.0
581,95.17234400000001,95.288723225,61.0,90.0
582,95.17234400000001,95.29087839583333,57.0,88.0
583,95.17234400000001,95.33074905625,64.0,89.0
584,95.68958500000001,95.94281757291667,56.0,87.0
585,95.68958500000001,95.94281757291667,59.0,87.0
586,96.206826,96.30273110208334,56.0,87.0
587,96.206826,96.43419652291666,59.0,89.0
588,96.206826,96.50531716041667,63.0,90.0
589,95.9482055,96.57859296875,51.0,81.0
590,96.4654465,96.61307570208334,56.0,83.0
591,95.68958500000001,96.70574804791667,44.0,89.0
592,96.724067,97.06889433333333,61.0,87.0
593,96.724067,97.06889433333333,64.0,87.0
594,96.9826875,97.10768740833333,56.0,83.0
595,96.724067,97.25854936666667,49.0,92.0
596,97.241308,97.44497164375001,61.0,87.0
597,97.241308,97.52902330625001,64.0,86.0
598,97.49992850000001,97.64648011666667,56.0,77.0
599,97.758549,98.04195396458334,57.0,78.0
600,97.758549,98.07751428333334,54.0,82.0
601,97.758549,98.08290221041668,61.0,86.0
602,98.27579,98.55919496458334,57.0,88.0
603,98.27579,98.60660872291668,61.0,89.0
604,98.01716950000001,98.61846216250001,49.0,76.0
605,98.5344105,98.702513825,54.0,85.0
606,97.758549,98.7348413875,42.0,88.0
607,98.793031,98.96652225208334,54.0,78.0
608,98.793031,99.08290147708334,59.0,79.0
609,99.310272,99.4137202,54.0,87.0
610,99.0516515,99.50747013125,51.0,86.0
611,98.793031,99.51393564375,47.0,89.0
612,99.310272,99.61522867291667,59.0,87.0
613,99.310272,99.61846142916667,63.0,94.0
614,99.5688925,99.71005618958334,54.0,89.0
615,99.82751300000001,100.11630589166667,56.0,85.0
616,99.82751300000001,100.1701851625,52.0,83.0
617,100.34475400000001,100.67772789375,56.0,88.0
618,100.34475400000001,100.68527099166667,59.0,90.0
619,100.6033745,100.80165021666667,52.0,87.0
620,100.86199500000001,100.89432256250001,52.0,70.0
621,100.86199500000001,101.16156374583333,64.0,88.0
622,100.86199500000001,101.185270625,56.0,92.0
623,100.86199500000001,101.18958096666667,59.0,91.0
624,101.1206155,101.32643431458334,52.0,87.0
625,100.0861335,101.51393417708334,47.0,78.0
626,101.379236,101.53764105625001,56.0,93.0
627,99.82751300000001,101.55380483750001,40.0,87.0
628,101.379236,101.65509786666667,59.0,90.0
629,101.6378565,101.81134775208334,52.0,87.0
630,101.896477,101.99884761458334,52.0,77.0
631,101.896477,102.24130433333333,57.0,88.0
632,102.15509750000001,102.3425973625,52.0,86.0
633,102.413718,102.73376086875001,57.0,88.0
634,102.413718,102.75746774791666,61.0,88.0
635,101.896477,102.80380392083333,45.0,93.0
636,102.67233850000001,102.80919184791667,52.0,87.0
637,102.930959,103.05919166458334,54.0,87.0
638,102.930959,103.28009667500001,59.0,89.0
639,103.18957950000001,103.38570004583333,54.0,86.0
640,103.4482,103.49022583125,54.0,74.0
641,102.930959,103.74992391666667,47.0,81.0
642,103.4482,103.76932045416667,59.0,88.0
643,103.4482,103.79949284583334,63.0,89.0
644,103.7068205,103.84259626250001,54.0,88.0
645,103.965441,104.26824250208334,56.0,85.0
646,103.965441,104.2693200875,63.0,88.0
647,103.965441,104.29087179583334,59.0,87.0
648,104.48268200000001,104.60337156666667,56.0,85.0
649,104.48268200000001,104.77039730625,63.0,90.0
650,104.48268200000001,104.7865610875,59.0,90.0
651,104.2240615,104.86306965208334,51.0,79.0
652,103.965441,104.90509548333334,44.0,87.0
653,104.7413025,105.06996605208333,56.0,83.0
654,104.99992300000001,105.33074172291667,61.0,88.0
655,104.99992300000001,105.33936240625,64.0,89.0
656,105.2585435,105.45143128958334,56.0,81.0
657,104.99992300000001,105.64216390833333,49.0,88.0
658,105.51716400000001,105.736991425,61.0,90.0
659,105.51716400000001,105.81996550208333,64.0,87.0
660,105.7757845,105.88354304166667,56.0,83.0
661,106.034405,106.32643064791667,57.0,83.0
662,106.034405,106.36845647916667,61.0,87.0
663,106.034405,106.38785301666667,54.0,85.0
664,106.551646,106.66802522500001,54.0,88.0
665,106.551646,106.87815438125,61.0,89.0
666,106.2930255,106.9460422625,49.0,79.0
667,106.034405,106.97729223958333,42.0,88.0
668,106.8102665,106.978369825,54.0,86.0
669,107.068887,107.34798162291668,54.0,86.0
670,107.068887,107.38677469791666,59.0,88.0
671,107.586128,107.70035205416667,54.0,89.0
672,107.068887,107.76500717916667,47.0,89.0
673,107.32750750000001,107.78117096041667,51.0,80.0
674,107.586128,107.89323984375001,59.0,92.0
675,107.586128,107.89431742916668,63.0,93.0
676,107.84474850000001,107.95573979791668,54.0,85.0
677,108.103369,108.54410143541666,56.0,83.0
678,108.62061,108.67448927083333,56.0,54.0
679,108.62061,108.96759250416667,59.0,83.0
680,108.103369,108.96974767500001,52.0,86.0
681,108.8792305,108.97729077291667,56.0,78.0
682,109.137851,109.31134225208334,52.0,78.0
683,109.137851,109.53116967708334,64.0,87.0
684,109.3964715,109.54194553125001,52.0,80.0
685,109.65509200000001,110.13030716875001,56.0,93.0
686,109.9137125,110.16371231666668,52.0,82.0
687,109.65509200000001,110.16478990208334,59.0,89.0
688,108.3619895,110.18203126875001,47.0,76.0
689,108.103369,110.19603987916668,40.0,88.0
690,110.17233300000001,110.19603987916668,40.0,86.0
691,110.17233300000001,111.11953058125,52.0,75.0
692,110.17233300000001,111.76608183125,56.0,78.0
693,111.206815,112.02362474583333,51.0,81.0
694,111.206815,112.099055725,39.0,88.0
695,111.206815,112.16909877708333,54.0,84.0
696,112.241297,113.13246013958334,49.0,77.0
697,112.241297,113.17448597083333,37.0,87.0
698,112.241297,113.28547726875,52.0,76.0
699,113.275779,113.46866678958334,35.0,81.0
700,113.275779,113.50530469375,47.0,76.0
701,113.275779,113.53655467083334,51.0,83.0
702,114.31026100000001,114.82750200000001,45.0,80.0
703,114.31026100000001,115.03547598541667,57.0,73.0
704,114.31026100000001,115.36952746458334,61.0,82.0
705,115.34474300000001,115.71112204166667,56.0,78.0
706,115.34474300000001,115.95250117500001,59.0,83.0
707,115.861984,116.07103557083333,56.0,78.0
708,115.34474300000001,116.18310445416667,44.0,87.0
709,115.6033635,116.18956996666667,51.0,71.0
710,116.379225,116.96219871041667,57.0,77.0
711,116.379225,117.05379347083334,54.0,80.0
712,116.379225,117.28655192083333,42.0,86.0
713,117.413707,117.55702586041667,54.0,82.0
714,117.413707,117.72943952708334,59.0,83.0
715,117.67232750000001,117.82426704375,54.0,87.0
716,117.930948,118.021465175,54.0,86.0
717,117.413707,118.17124954791667,47.0,85.0
718,117.930948,118.20573228125001,59.0,88.0
719,117.930948,118.21758572083334,63.0,89.0
720,118.18956850000001,118.30487013958334,54.0,84.0
721,118.448189,118.80486977291667,52.0,82.0
722,118.448189,119.030085125,56.0,80.0
723,118.96543,119.22943842708334,52.0,84.0
724,118.448189,119.38245555625001,40.0,87.0
725,118.7068095,119.38568831250001,47.0,83.0
726,119.48267100000001,120.24667906041667,51.0,82.0
727,119.48267100000001,120.41154962916667,39.0,88.0
728,119.48267100000001,120.49883404791667,54.0,83.0
729,120.51715300000001,121.00745436458334,49.0,82.0
730,120.51715300000001,121.047325025,52.0,81.0
731,120.51715300000001,121.13891978541668,37.0,91.0
732,121.551635,121.64969527291667,35.0,87.0
733,121.551635,121.78654862083334,47.0,84.0
734,121.551635,121.9331002375,54.0,83.0
735,122.586117,123.103358,45.0,80.0
736,122.586117,123.18848724791667,57.0,78.0
737,122.586117,123.57534041250001,61.0,83.0
738,123.620599,124.07102970416668,44.0,87.0
739,123.620599,124.36305535208334,56.0,81.0
740,123.620599,124.59689138750001,59.0,81.0
741,124.65508100000001,124.97943421041667,54.0,80.0
742,124.65508100000001,125.25206332083334,57.0,79.0
743,125.17232200000001,125.55486482291667,54.0,78.0
744,124.9137015,125.573183775,49.0,67.0
745,124.65508100000001,125.64753716875,42.0,87.0
746,126.68417433958334,127.72404426666667,45.0,89.0
747,126.67339848541667,128.6184401625,60.0,72.0
748,126.58288131041667,128.65507806666668,57.0,83.0
749,126.71650190208334,128.67770736041666,69.0,81.0
750,128.793009,128.97727610625,59.0,88.0
751,128.793009,129.36520685625,68.0,87.0
752,128.793009,129.69710316458332,40.0,87.0
753,129.5688705,129.78438758333334,64.0,91.0
754,129.05162950000002,129.95141332291666,47.0,82.0
755,129.31025,130.04193049791667,59.0,94.0
756,129.827491,130.31994753541667,63.0,92.0
757,130.08611150000002,130.64753350208335,47.0,82.0
758,130.344732,130.6550766,59.0,89.0
759,129.827491,130.67662830833333,39.0,89.0
760,130.6033525,130.91692985625,66.0,88.0
761,130.861973,131.34257609583335,64.0,88.0
762,131.37921400000002,131.54192939791668,61.0,88.0
763,131.1205935,131.67339481875,44.0,71.0
764,130.861973,131.71649823541668,37.0,89.0
765,131.6378345,131.81132575208335,64.0,91.0
766,131.896455,131.9934376875,35.0,87.0
767,131.896455,132.30701504375,59.0,89.0
768,131.896455,132.40184256041667,63.0,96.0
769,132.1550755,132.54192866458334,47.0,84.0
770,132.41369600000002,132.59580793541667,54.0,78.0
771,132.6723165,132.89537668125,59.0,91.0
772,132.930937,133.30270396875,61.0,84.0
773,133.448178,133.73589330625,57.0,86.0
774,132.930937,133.7649881125,45.0,88.0
775,133.1895575,133.80162601666666,52.0,75.0
776,133.70679850000002,134.07748788333333,61.0,88.0
777,134.2240395,134.6055047375,54.0,78.0
778,133.965419,134.64860815416668,47.0,92.0
779,134.48266,134.89860797083332,59.0,94.0
780,134.999901,135.21003015625,64.0,83.0
781,134.999901,135.245590475,59.0,82.0
782,135.517142,135.81994350208333,52.0,88.0
783,135.7757625,135.93308997083335,54.0,89.0
784,135.2585215,136.15830532291668,47.0,70.0
785,136.034383,136.37921033333333,56.0,87.0
786,136.551624,136.6873997625,52.0,83.0
787,136.2930035,136.71433939791666,47.0,83.0
788,136.8102445,137.07209775625,52.0,85.0
789,136.551624,137.08610636666668,56.0,88.0
790,134.999901,137.11735634375,40.0,87.0
791,137.06886500000002,137.11735634375,40.0,87.0
792,136.551624,137.12058910000002,59.0,88.0
793,137.06886500000002,137.12058910000002,59.0,87.0
794,137.3274855,137.6378301,47.0,82.0
795,137.06886500000002,137.66800249166667,68.0,85.0
796,137.586106,137.97726950625,59.0,88.0
797,137.8447265,137.99235570208333,64.0,87.0
798,138.103347,138.49127775,66.0,87.0
799,138.103347,138.65399314791668,50.0,90.0
800,138.3619675,138.72080344375001,57.0,75.0
801,138.620588,138.90291537916667,62.0,91.0
802,138.8792085,139.19278585625,66.0,84.0
803,139.137829,139.29515647083335,64.0,83.0
804,139.137829,139.45787186875,69.0,89.0
805,139.39644950000002,139.668001025,64.0,80.0
806,139.137829,139.73696649166666,45.0,88.0
807,139.65507,139.91045774375002,69.0,89.0
808,139.9136905,140.02791455416667,64.0,83.0
809,140.172311,140.26606093125,35.0,87.0
810,140.172311,140.72403473333333,59.0,82.0
811,140.172311,140.78437951666666,63.0,87.0
812,140.9481725,141.08502584791668,59.0,89.0
813,141.206793,141.55054274791667,59.0,90.0
814,141.72403400000002,141.82424944375,59.0,81.0
815,140.689552,141.82855978541667,54.0,88.0
816,141.72403400000002,142.07101650416666,66.0,82.0
817,141.9826545,142.3382576875,54.0,78.0
818,142.241275,142.590412675,59.0,86.0
819,142.4998955,142.77791253750001,54.0,85.0
820,140.689552,142.84903317500002,47.0,31.0
821,142.75851600000001,142.88782625000002,59.0,88.0
822,143.0171365,143.3856707125,59.0,75.0
823,143.275757,143.45894652083334,64.0,82.0
824,143.5343775,144.18954943333333,47.0,80.0
825,143.792998,144.33394587916666,52.0,87.0
826,144.05161850000002,144.35873034375,59.0,91.0
827,144.5688595,144.89536788125,52.0,79.0
828,144.82748,145.30053999791667,56.0,86.0
829,145.08610050000001,145.32209170625,52.0,88.0
830,144.82748,145.33610031666666,59.0,87.0
831,144.310239,145.37058305,47.0,76.0
832,144.82748,145.37381580625,64.0,87.0
833,145.344721,145.37381580625,64.0,87.0
834,143.275757,145.37597097708334,40.0,87.0
835,145.344721,145.43092783333333,57.0,73.0
836,145.344721,145.69278108958335,61.0,87.0
837,145.6033415,145.76066897083334,57.0,82.0
838,145.344721,145.89752231875,45.0,89.0
839,145.861962,146.00312568958333,61.0,87.0
840,145.861962,146.05161703333334,64.0,88.0
841,146.37920300000002,146.68415967291668,63.0,87.0
842,146.37920300000002,146.69278035625,59.0,84.0
843,146.6378235,147.02359907916667,54.0,82.0
844,146.896444,147.03329734791666,59.0,89.0
845,146.37920300000002,147.04730595833334,47.0,89.0
846,146.896444,147.15183174375,63.0,92.0
847,147.1550645,147.23157306458333,59.0,80.0
848,147.41368500000002,147.74665889375,56.0,87.0
849,147.41368500000002,147.762822675,59.0,89.0
850,147.930926,148.03545178541668,56.0,88.0
851,147.930926,148.12704654583334,59.0,89.0
852,147.6723055,148.28760677291666,51.0,85.0
853,147.41368500000002,148.3123912375,44.0,87.0
854,148.1895465,148.36196016666668,56.0,88.0
855,148.448167,148.797304675,64.0,88.0
856,148.70678750000002,148.89536494791668,56.0,89.0
857,148.448167,149.0365286375,49.0,88.0
858,148.965408,149.11842512916667,61.0,92.0
859,149.2240285,149.3350197979167,56.0,86.0
860,149.482649,149.81023496666668,61.0,87.0
861,149.482649,149.83394184583335,54.0,84.0
862,149.99989,150.10118302916666,54.0,87.0
863,149.99989,150.1550623,57.0,87.0
864,149.99989,150.297303575,61.0,88.0
865,149.74126950000002,150.32424321041668,49.0,81.0
866,149.482649,150.38351040833334,42.0,87.0
867,150.2585105,150.42122589791668,54.0,83.0
868,150.517131,150.65182917708333,54.0,88.0
869,150.517131,150.8210100875,59.0,88.0
870,150.7757515,150.91152726250002,54.0,84.0
871,151.03437200000002,151.08717368541667,54.0,79.0
872,150.517131,151.12381158958334,47.0,89.0
873,151.03437200000002,151.26928562083333,59.0,88.0
874,151.03437200000002,151.27682871875,63.0,89.0
875,151.2929925,151.39428552916667,54.0,82.0
876,151.551613,151.7908369625,56.0,78.0
877,151.551613,151.84148347708333,52.0,80.0
878,152.06885400000002,152.22725905625,52.0,87.0
879,151.8102335,152.2283366416667,47.0,87.0
880,152.06885400000002,152.3727330875,56.0,84.0
881,152.3274745,152.47510370208335,52.0,86.0
882,152.586095,152.82100862083334,52.0,87.0
883,152.586095,152.84256032916667,59.0,88.0
884,153.103336,153.22294798125,52.0,88.0
885,151.551613,153.23587900625,40.0,87.0
886,152.8447155,153.25527554375,47.0,87.0
887,153.103336,153.28437035000002,56.0,87.0
888,153.36195650000002,153.530059825,52.0,82.0
889,153.620577,154.08501631458333,64.0,87.0
890,153.620577,154.19924036875,61.0,87.0
891,153.620577,154.34040405833335,45.0,89.0
892,154.137818,154.39967125625,57.0,89.0
893,153.8791975,154.47833499166669,52.0,78.0
894,154.39643850000002,154.78005890833333,64.0,87.0
895,154.9136795,155.31992920208333,54.0,83.0
896,154.655059,155.3274723,47.0,92.0
897,155.4309205,155.51820491875,63.0,89.0
898,155.1723,155.51928250416668,59.0,90.0
899,155.68954100000002,155.99018733125,56.0,78.0
900,155.68954100000002,156.19277338958335,60.0,82.0
901,156.206782,156.58285931041667,56.0,89.0
902,156.4654025,156.59147999375,60.0,88.0
903,155.9481615,156.59579033541667,51.0,83.0
904,155.68954100000002,156.65182477708333,44.0,87.0
905,156.72402300000002,156.97402281666666,56.0,88.0
906,156.72402300000002,157.03975552708334,61.0,92.0
907,156.72402300000002,157.45678108333334,49.0,89.0
908,157.241264,157.51389311041666,64.0,88.0
909,157.4998845,157.64104818958333,56.0,83.0
910,157.758505,158.0753151125,54.0,83.0
911,157.758505,158.08070303958334,57.0,76.0
912,158.275746,158.35548732083333,54.0,82.0
913,158.275746,158.59040094166667,57.0,86.0
914,158.275746,158.61087506458333,61.0,88.0
915,158.5343665,158.70678016666668,54.0,85.0
916,158.792987,159.03652130416668,66.0,89.0
917,159.05160750000002,159.22294358125,54.0,88.0
918,158.01712550000002,159.59902089166667,49.0,80.0
919,159.310228,159.60656398958335,61.0,89.0
920,157.758505,159.64966740625002,42.0,88.0
921,159.5688485,159.70031392083334,54.0,87.0
922,159.827469,159.99880508125,54.0,83.0
923,159.827469,160.17768426041667,59.0,87.0
924,160.0860895,160.27143419166669,54.0,87.0
925,160.34471,160.38781341666666,54.0,74.0
926,160.34471,160.64966667291668,63.0,96.0
927,160.34471,160.65397701458335,59.0,93.0
928,160.6033305,160.74018384791668,54.0,87.0
929,160.861951,161.01927847083334,54.0,89.0
930,160.861951,161.17552835625,61.0,88.0
931,161.1205715,161.26173518958333,54.0,83.0
932,161.37919200000002,161.53328671458334,59.0,89.0
933,161.6378125,161.75203655416666,57.0,88.0
934,159.827469,161.76712275,47.0,92.0
935,161.896433,162.07638976458335,54.0,88.0
936,161.896433,162.2261741375,59.0,89.0
937,162.1550535,162.28113099375,54.0,85.0
938,162.41367400000001,162.46108775833335,63.0,71.0
939,162.41367400000001,162.48910497916668,54.0,75.0
940,162.41367400000001,162.48910497916668,59.0,74.0
941,161.896433,163.57100073750001,47.0,101.0
942,162.6722945,163.87703499583333,54.0,89.0
943,162.6722945,163.8942763625,59.0,91.0
944,162.6722945,163.89858670416666,63.0,92.0
945,163.965397,164.11949171458335,57.0,80.0
946,163.965397,164.27466401458335,64.0,83.0
947,163.965397,164.28436228333334,61.0,90.0
948,164.2240175,164.39966392291666,57.0,80.0
949,164.482638,164.53005175833334,57.0,73.0
950,164.482638,164.84901704166668,61.0,91.0
951,164.482638,164.85871531041667,64.0,88.0
952,164.74125850000001,164.95569799791667,57.0,80.0
953,164.999879,165.06776688125,57.0,70.0
954,164.999879,165.33069772291668,61.0,88.0
955,164.999879,165.34686150416667,64.0,87.0
956,165.2584995,165.3942752625,57.0,82.0
957,163.965397,165.55806824583334,45.0,96.0
958,165.51712,165.633499225,61.0,90.0
959,165.51712,165.63565439583334,57.0,88.0
960,165.51712,165.67552505625,64.0,89.0
961,166.03436100000002,166.28759357291668,56.0,87.0
962,166.03436100000002,166.28759357291668,59.0,87.0
963,166.551602,166.64750710208335,56.0,87.0
964,166.551602,166.77897252291666,59.0,89.0
965,166.551602,166.85009316041666,63.0,90.0
966,166.2929815,166.92336896875,51.0,81.0
967,166.8102225,166.95785170208333,56.0,83.0
968,166.03436100000002,167.05052404791667,44.0,89.0
969,167.06884300000002,167.41367033333333,61.0,87.0
970,167.06884300000002,167.41367033333333,64.0,87.0
971,167.3274635,167.45246340833333,56.0,83.0
972,167.06884300000002,167.60332536666667,49.0,92.0
973,167.586084,167.78974764375002,61.0,87.0
974,167.586084,167.87379930625,64.0,86.0
975,167.8447045,167.99125611666668,56.0,77.0
976,168.103325,168.38672996458334,57.0,78.0
977,168.103325,168.42229028333335,54.0,82.0
978,168.103325,168.42767821041667,61.0,86.0
979,168.620566,168.90397096458335,57.0,88.0
980,168.620566,168.95138472291669,61.0,89.0
981,168.36194550000002,168.9632381625,49.0,76.0
982,168.8791865,169.047289825,54.0,85.0
983,168.103325,169.0796173875,42.0,88.0
984,169.137807,169.31129825208333,54.0,78.0
985,169.137807,169.42767747708334,59.0,79.0
986,169.655048,169.7584962,54.0,87.0
987,169.39642750000002,169.85224613125,51.0,86.0
988,169.137807,169.85871164375,47.0,89.0
989,169.655048,169.96000467291668,59.0,87.0
990,169.655048,169.96323742916667,63.0,94.0
991,169.9136685,170.05483218958335,54.0,89.0
992,170.172289,170.46108189166668,56.0,85.0
993,170.172289,170.51496116250001,52.0,83.0
994,170.68953000000002,171.02250389375,56.0,88.0
995,170.68953000000002,171.03004699166667,59.0,90.0
996,170.9481505,171.14642621666667,52.0,87.0
997,171.206771,171.2390985625,52.0,70.0
998,171.206771,171.50633974583334,64.0,88.0
999,171.206771,171.530046625,56.0,92.0
1000,171.206771,171.53435696666668,59.0,91.0
1001,171.4653915,171.67121031458333,52.0,87.0
1002,170.4309095,171.85871017708334,47.0,78.0
1003,171.72401200000002,171.88241705625,56.0,93.0
1004,170.172289,171.89858083750002,40.0,87.0
1005,171.72401200000002,171.99987386666666,59.0,90.0
1006,171.9826325,172.15612375208335,52.0,87.0
1007,172.241253,172.34362361458335,52.0,77.0
1008,172.241253,172.58608033333334,57.0,88.0
1009,172.4998735,172.6873733625,52.0,86.0
1010,172.758494,173.07853686875,57.0,88.0
1011,172.758494,173.10224374791667,61.0,88.0
1012,172.241253,173.14857992083333,45.0,93.0
1013,173.01711450000002,173.15396784791668,52.0,87.0
1014,173.275735,173.40396766458335,54.0,87.0
1015,173.275735,173.624872675,59.0,89.0
1016,173.5343555,173.73047604583334,54.0,86.0
1017,173.792976,173.83500183125,54.0,74.0
1018,173.275735,174.09469991666668,47.0,81.0
1019,173.792976,174.11409645416668,59.0,88.0
1020,173.792976,174.14426884583335,63.0,89.0
1021,174.05159650000002,174.18737226250002,54.0,88.0
1022,174.310217,174.61301850208335,56.0,85.0
1023,174.310217,174.6140960875,63.0,88.0
1024,174.310217,174.63564779583334,59.0,87.0
1025,174.827458,174.94814756666668,56.0,85.0
1026,174.827458,175.11517330625,63.0,90.0
1027,174.827458,175.13133708750001,59.0,90.0
1028,174.5688375,175.20784565208334,51.0,79.0
1029,174.310217,175.24987148333335,44.0,87.0
1030,175.0860785,175.41474205208334,56.0,83.0
1031,175.34469900000002,175.67551772291668,61.0,88.0
1032,175.34469900000002,175.68413840625,64.0,89.0
1033,175.6033195,175.79620728958335,56.0,81.0
1034,175.34469900000002,175.98693990833334,49.0,88.0
1035,175.86194,176.081767425,61.0,90.0
1036,175.86194,176.16474150208333,64.0,87.0
1037,176.1205605,176.22831904166668,56.0,83.0
1038,176.37918100000002,176.67120664791668,57.0,83.0
1039,176.37918100000002,176.71323247916666,61.0,87.0
1040,176.37918100000002,176.73262901666666,54.0,85.0
1041,176.896422,177.012801225,54.0,88.0
1042,176.896422,177.22293038125,61.0,89.0
1043,176.6378015,177.2908182625,49.0,79.0
1044,176.37918100000002,177.32206823958333,42.0,88.0
1045,177.1550425,177.323145825,54.0,86.0
1046,177.413663,177.69275762291667,54.0,86.0
1047,177.413663,177.73155069791667,59.0,88.0
1048,177.930904,178.04512805416667,54.0,89.0
1049,177.413663,178.10978317916667,47.0,89.0
1050,177.67228350000002,178.12594696041668,51.0,80.0
1051,177.930904,178.23801584375002,59.0,92.0
1052,177.930904,178.23909342916667,63.0,93.0
1053,178.1895245,178.30051579791666,54.0,85.0
1054,178.448145,178.88887743541667,56.0,83.0
1055,178.965386,179.01926527083333,56.0,54.0
1056,178.965386,179.31236850416667,59.0,83.0
1057,178.448145,179.314523675,52.0,86.0
1058,179.2240065,179.32206677291668,56.0,78.0
1059,179.482627,179.65611825208333,52.0,78.0
1060,179.482627,179.87594567708334,64.0,87.0
1061,179.74124750000001,179.88672153125,52.0,80.0
1062,179.99986800000002,180.47508316875002,56.0,93.0
1063,180.2584885,180.50848831666667,52.0,82.0
1064,179.99986800000002,180.50956590208335,59.0,89.0
1065,178.70676550000002,180.52680726875002,47.0,76.0
1066,178.448145,180.54081587916667,40.0,88.0
1067,180.517109,180.67120371458333,57.0,80.0
1068,180.517109,180.82637601458333,64.0,83.0
1069,180.517109,180.83607428333335,61.0,90.0
1070,180.7757295,180.95137592291667,57.0,80.0
1071,181.03435000000002,181.08176375833335,57.0,73.0
1072,181.03435000000002,181.40072904166666,61.0,91.0
1073,181.03435000000002,181.41042731041668,64.0,88.0
1074,181.2929705,181.50740999791668,57.0,80.0
1075,181.551591,181.61947888125002,57.0,70.0
1076,181.551591,181.88240972291666,61.0,88.0
1077,181.551591,181.89857350416668,64.0,87.0
1078,181.8102115,181.9459872625,57.0,82.0
1079,180.517109,182.10978024583335,45.0,96.0
1080,182.06883200000001,182.18521122500002,61.0,90.0
1081,182.06883200000001,182.18736639583335,57.0,88.0
1082,182.06883200000001,182.22723705625,64.0,89.0
1083,182.586073,182.8393055729167,56.0,87.0
1084,182.586073,182.8393055729167,59.0,87.0
1085,183.103314,183.19921910208333,56.0,87.0
1086,183.103314,183.33068452291667,59.0,89.0
1087,183.103314,183.40180516041667,63.0,90.0
1088,182.8446935,183.47508096875,51.0,81.0
1089,183.36193450000002,183.50956370208334,56.0,83.0
1090,182.586073,183.60223604791668,44.0,89.0
1091,183.620555,183.96538233333334,61.0,87.0
1092,183.620555,183.96538233333334,64.0,87.0
1093,183.8791755,184.00417540833334,56.0,83.0
1094,183.620555,184.15503736666668,49.0,92.0
1095,184.137796,184.34145964375,61.0,87.0
1096,184.137796,184.42551130625,64.0,86.0
1097,184.39641650000002,184.54296811666669,56.0,77.0
1098,184.65503700000002,184.93844196458335,57.0,78.0
1099,184.65503700000002,184.97400228333333,54.0,82.0
1100,184.65503700000002,184.97939021041668,61.0,86.0
1101,185.172278,185.45568296458333,57.0,88.0
1102,185.172278,185.50309672291667,61.0,89.0
1103,184.9136575,185.5149501625,49.0,76.0
1104,185.4308985,185.59900182500002,54.0,85.0
1105,184.65503700000002,185.63132938750002,42.0,88.0
1106,185.68951900000002,185.86301025208334,54.0,78.0
1107,185.68951900000002,185.97938947708334,59.0,79.0
1108,186.20676,186.3102082,54.0,87.0
1109,185.9481395,186.40395813125,51.0,86.0
1110,185.68951900000002,186.41042364375,47.0,89.0
1111,186.20676,186.51171667291666,59.0,87.0
1112,186.20676,186.51494942916668,63.0,94.0
1113,186.4653805,186.60654418958333,54.0,89.0
1114,186.72400100000002,187.01279389166666,56.0,85.0
1115,186.72400100000002,187.0666731625,52.0,83.0
1116,187.241242,187.57421589375,56.0,88.0
1117,187.241242,187.58175899166667,59.0,90.0
1118,187.4998625,187.69813821666668,52.0,87.0
1119,187.758483,187.7908105625,52.0,70.0
1120,187.758483,188.05805174583335,64.0,88.0
1121,187.758483,188.08175862500002,56.0,92.0
1122,187.758483,188.0860689666667,59.0,91.0
1123,188.01710350000002,188.22292231458334,52.0,87.0
1124,186.9826215,188.41042217708335,47.0,78.0
1125,188.275724,188.43412905625001,56.0,93.0
1126,186.72400100000002,188.4502928375,40.0,87.0
1127,188.275724,188.55158586666667,59.0,90.0
1128,188.5343445,188.70783575208333,52.0,87.0
1129,188.792965,188.89533561458333,52.0,77.0
1130,188.792965,189.13779233333335,57.0,88.0
1131,189.05158550000002,189.23908536250002,52.0,86.0
1132,189.310206,189.63024886875002,57.0,88.0
1133,189.310206,189.65395574791668,61.0,88.0
1134,188.792965,189.70029192083334,45.0,93.0
1135,189.5688265,189.70567984791668,52.0,87.0
1136,189.827447,189.95567966458333,54.0,87.0
1137,189.827447,190.17658467500002,59.0,89.0
1138,190.0860675,190.28218804583335,54.0,86.0
1139,190.34468800000002,190.38671383125,54.0,74.0
1140,189.827447,190.64641191666666,47.0,81.0
1141,190.34468800000002,190.66580845416667,59.0,88.0
1142,190.34468800000002,190.69598084583333,63.0,89.0
1143,190.6033085,190.7390842625,54.0,88.0
1144,190.861929,191.16473050208333,56.0,85.0
1145,190.861929,191.1658080875,63.0,88.0
1146,190.861929,191.18735979583334,59.0,87.0
1147,191.37917000000002,191.4998595666667,56.0,85.0
1148,191.37917000000002,191.66688530625,63.0,90.0
1149,191.37917000000002,191.6830490875,59.0,90.0
1150,191.1205495,191.75955765208334,51.0,79.0
1151,190.861929,191.80158348333333,44.0,87.0
1152,191.6377905,191.96645405208335,56.0,83.0
1153,191.896411,192.22722972291666,61.0,88.0
1154,191.896411,192.23585040625,64.0,89.0
1155,192.1550315,192.34791928958333,56.0,81.0
1156,191.896411,192.53865190833335,49.0,88.0
1157,192.413652,192.63347942500002,61.0,90.0
1158,192.413652,192.71645350208334,64.0,87.0
1159,192.67227250000002,192.78003104166666,56.0,83.0
1160,192.930893,193.22291864791669,57.0,83.0
1161,192.930893,193.26494447916667,61.0,87.0
1162,192.930893,193.28434101666667,54.0,85.0
1163,193.448134,193.564513225,54.0,88.0
1164,193.448134,193.77464238125,61.0,89.0
1165,193.1895135,193.84253026250002,49.0,79.0
1166,192.930893,193.87378023958334,42.0,88.0
1167,193.70675450000002,193.87485782500002,54.0,86.0
1168,193.965375,194.24446962291668,54.0,86.0
1169,193.965375,194.28326269791668,59.0,88.0
1170,194.482616,194.59684005416668,54.0,89.0
1171,193.965375,194.66149517916668,47.0,89.0
1172,194.2239955,194.67765896041666,51.0,80.0
1173,194.482616,194.78972784375,59.0,92.0
1174,194.482616,194.79080542916668,63.0,93.0
1175,194.7412365,194.85222779791667,54.0,85.0
1176,194.99985700000002,195.44058943541668,56.0,83.0
1177,195.517098,195.57097727083334,56.0,54.0
1178,195.517098,195.86408050416668,59.0,83.0
1179,194.99985700000002,195.866235675,52.0,86.0
1180,195.7757185,195.87377877291667,56.0,78.0
1181,196.03433900000002,196.20783025208334,52.0,78.0
1182,196.03433900000002,196.42765767708335,64.0,87.0
1183,196.2929595,196.43843353125,52.0,80.0
1184,196.55158,197.02679516875,56.0,93.0
1185,196.8102005,197.06020031666668,52.0,82.0
1186,196.55158,197.06127790208333,59.0,89.0
1187,195.2584775,197.07851926875,47.0,76.0
1188,194.99985700000002,197.09252787916668,40.0,88.0
1189,197.068821,197.59037234166667,69.0,87.0
1190,197.32744150000002,197.63886368541668,61.0,76.0
1191,197.586062,197.92550140625002,64.0,87.0
1192,197.8446825,198.17873397916668,61.0,87.0
1193,198.36192350000002,198.44489757708334,61.0,71.0
1194,198.103303,198.47830272500002,69.0,94.0
1195,197.068821,198.55696646041667,45.0,75.0
1196,198.620544,198.80912144791668,64.0,89.0
1197,199.137785,199.51493989583335,68.0,82.0
1198,199.137785,199.93627579375,44.0,87.0
1199,199.65502600000002,200.0364912375,63.0,90.0
1200,199.9136465,200.18735319583334,59.0,84.0
1201,200.172267,200.91472335208334,49.0,90.0
1202,200.4308875,200.94920608541668,56.0,79.0
1203,200.68950800000002,201.17549902291668,64.0,87.0
1204,200.9481285,201.17980936458335,61.0,80.0
1205,201.72399000000001,201.95890362083335,57.0,88.0
1206,201.4653695,202.05265355208334,49.0,71.0
1207,201.206749,202.15610175208334,42.0,87.0
1208,201.98261050000002,202.16148967916666,54.0,87.0
1209,202.241231,202.52355837916667,59.0,86.0
1210,202.4998515,202.67334275208333,54.0,82.0
1211,202.241231,202.91364430000002,47.0,87.0
1212,202.758472,203.03972179375,57.0,87.0
1213,203.01709250000002,203.27894575625,54.0,79.0
1214,203.275713,203.75200575416667,56.0,76.0
1215,203.792954,204.11084169791667,52.0,82.0
1216,204.05157450000002,204.17657440833335,59.0,72.0
1217,204.31019500000002,204.88239285625002,64.0,89.0
1218,203.275713,204.92657385833334,40.0,75.0
1219,203.5343335,204.9373497125,47.0,73.0
1220,205.34467700000002,205.71752155416667,57.0,79.0
1221,205.6032975,205.88023695208335,52.0,77.0
1222,205.34467700000002,206.0052368604167,45.0,78.0
1223,206.1205385,206.28433148333335,52.0,79.0
1224,205.861918,206.41148656250002,61.0,80.0
1225,206.37915900000002,206.74230528541668,59.0,88.0
1226,206.63777950000002,206.93950341666667,54.0,83.0
1227,206.37915900000002,207.22290838125002,47.0,77.0
1228,207.1550205,207.29618418958333,54.0,84.0
1229,206.8964,207.42549443958333,63.0,89.0
1230,207.413641,207.94273543958334,59.0,80.0
1231,207.930882,208.27894208958335,56.0,84.0
1232,207.67226150000002,208.2929507,51.0,78.0
1233,207.413641,208.30480413958335,44.0,79.0
1234,208.1895025,208.36730409375002,59.0,79.0
1235,208.448123,209.00738983125,61.0,82.0
1236,208.448123,209.12161388541668,49.0,83.0
1237,208.96536400000002,209.28109652708335,56.0,81.0
1238,209.2239845,209.6571738375,61.0,80.0
1239,209.99984600000002,210.30264750208335,57.0,76.0
1240,209.7412255,210.34144057708335,49.0,80.0
1241,209.482605,210.39855260416667,42.0,87.0
1242,210.2584665,210.43626809375002,54.0,84.0
1243,210.517087,210.8597591625,59.0,83.0
1244,210.7757075,211.00631077916668,54.0,84.0
1245,211.03432800000002,211.17118134791667,59.0,80.0
1246,210.517087,211.331741575,47.0,87.0
1247,211.2929485,211.41902599375,57.0,83.0
1248,211.551569,211.87268945416668,52.0,86.0
1249,211.551569,212.03863760833335,56.0,80.0
1250,212.06881,212.41902526041667,52.0,84.0
1251,212.32743050000002,212.4632062625,56.0,87.0
1252,211.8101895,212.7412233,47.0,81.0
1253,212.586051,212.87376630625002,56.0,87.0
1254,212.586051,212.91255938125002,52.0,87.0
1255,212.586051,212.95135245625002,59.0,88.0
1256,212.8446715,213.1744126375,47.0,88.0
1257,213.103292,213.21859363958333,52.0,83.0
1258,211.551569,213.54510202083335,40.0,87.0
1259,213.103292,213.58497268125,56.0,89.0
1260,213.36191250000002,213.60005887708334,52.0,87.0
1261,213.103292,213.60867956041668,59.0,87.0
1262,213.103292,213.620533,64.0,86.0
1263,213.620533,213.77462771458335,57.0,80.0
1264,213.620533,213.92980001458335,64.0,83.0
1265,213.620533,213.93949828333334,61.0,90.0
1266,213.8791535,214.0547999229167,57.0,80.0
1267,214.137774,214.18518775833334,57.0,73.0
1268,214.137774,214.50415304166668,61.0,91.0
1269,214.137774,214.51385131041667,64.0,88.0
1270,214.3963945,214.61083399791667,57.0,80.0
1271,214.65501500000002,214.72290288125,57.0,70.0
1272,214.65501500000002,214.98583372291668,61.0,88.0
1273,214.65501500000002,215.00199750416667,64.0,87.0
1274,214.9136355,215.0494112625,57.0,82.0
1275,213.620533,215.21320424583334,45.0,96.0
1276,215.172256,215.288635225,61.0,90.0
1277,215.172256,215.29079039583334,57.0,88.0
1278,215.172256,215.33066105625002,64.0,89.0
1279,215.68949700000002,215.94272957291668,56.0,87.0
1280,215.68949700000002,215.94272957291668,59.0,87.0
1281,216.206738,216.30264310208335,56.0,87.0
1282,216.206738,216.4341085229167,59.0,89.0
1283,216.206738,216.50522916041666,63.0,90.0
1284,215.9481175,216.57850496875,51.0,81.0
1285,216.4653585,216.61298770208333,56.0,83.0
1286,215.68949700000002,216.70566004791667,44.0,89.0
1287,216.723979,217.06880633333336,61.0,87.0
1288,216.723979,217.06880633333336,64.0,87.0
1289,216.98259950000002,217.10759940833333,56.0,83.0
1290,216.723979,217.25846136666667,49.0,92.0
1291,217.24122,217.44488364375002,61.0,87.0
1292,217.24122,217.52893530625002,64.0,86.0
1293,217.4998405,217.64639211666668,56.0,77.0
1294,217.758461,218.04186596458334,57.0,78.0
1295,217.758461,218.07742628333335,54.0,82.0
1296,217.758461,218.08281421041667,61.0,86.0
1297,218.275702,218.55910696458335,57.0,88.0
1298,218.275702,218.60652072291668,61.0,89.0
1299,218.01708150000002,218.6183741625,49.0,76.0
1300,218.5343225,218.702425825,54.0,85.0
1301,217.758461,218.7347533875,42.0,88.0
1302,218.792943,218.96643425208333,54.0,78.0
1303,218.792943,219.08281347708333,59.0,79.0
1304,219.31018400000002,219.4136322,54.0,87.0
1305,219.05156350000001,219.50738213125,51.0,86.0
1306,218.792943,219.51384764375,47.0,89.0
1307,219.31018400000002,219.61514067291668,59.0,87.0
1308,219.31018400000002,219.61837342916667,63.0,94.0
1309,219.5688045,219.70996818958335,54.0,89.0
1310,219.827425,220.11621789166668,56.0,85.0
1311,219.827425,220.1700971625,52.0,83.0
1312,220.34466600000002,220.67763989375,56.0,88.0
1313,220.34466600000002,220.68518299166666,59.0,90.0
1314,220.6032865,220.80156221666667,52.0,87.0
1315,220.861907,220.8942345625,52.0,70.0
1316,220.861907,221.16147574583334,64.0,88.0
1317,220.861907,221.185182625,56.0,92.0
1318,220.861907,221.18949296666668,59.0,91.0
1319,221.1205275,221.32634631458333,52.0,87.0
1320,220.0860455,221.51384617708334,47.0,78.0
1321,221.37914800000001,221.53755305625,56.0,93.0
1322,219.827425,221.55371683750002,40.0,87.0
1323,221.37914800000001,221.6550098666667,59.0,90.0
1324,221.63776850000002,221.81125975208334,52.0,87.0
1325,221.896389,221.99875961458335,52.0,77.0
1326,221.896389,222.24121633333334,57.0,88.0
1327,222.1550095,222.3425093625,52.0,86.0
1328,222.41363,222.73367286875,57.0,88.0
1329,222.41363,222.75737974791667,61.0,88.0
1330,221.896389,222.80371592083335,45.0,93.0
1331,222.67225050000002,222.80910384791667,52.0,87.0
1332,222.930871,223.05910366458335,54.0,87.0
1333,222.930871,223.280008675,59.0,89.0
1334,223.1894915,223.38561204583334,54.0,86.0
1335,223.448112,223.49013783125,54.0,74.0
1336,222.930871,223.74983591666668,47.0,81.0
1337,223.448112,223.76923245416668,59.0,88.0
1338,223.448112,223.79940484583335,63.0,89.0
1339,223.70673250000002,223.84250826250002,54.0,88.0
1340,223.96535300000002,224.26815450208335,56.0,85.0
1341,223.96535300000002,224.2692320875,63.0,88.0
1342,223.96535300000002,224.29078379583333,59.0,87.0
1343,224.482594,224.60328356666668,56.0,85.0
1344,224.482594,224.77030930625,63.0,90.0
1345,224.482594,224.7864730875,59.0,90.0
1346,224.2239735,224.86298165208333,51.0,79.0
1347,223.96535300000002,224.90500748333335,44.0,87.0
1348,224.7412145,225.06987805208334,56.0,83.0
1349,224.99983500000002,225.33065372291668,61.0,88.0
1350,224.99983500000002,225.33927440625,64.0,89.0
1351,225.2584555,225.45134328958335,56.0,81.0
1352,224.99983500000002,225.64207590833334,49.0,88.0
1353,225.517076,225.736903425,61.0,90.0
1354,225.517076,225.81987750208333,64.0,87.0
1355,225.7756965,225.88345504166668,56.0,83.0
1356,226.03431700000002,226.32634264791668,57.0,83.0
1357,226.03431700000002,226.36836847916666,61.0,87.0
1358,226.03431700000002,226.38776501666666,54.0,85.0
1359,226.551558,226.667937225,54.0,88.0
1360,226.551558,226.87806638125002,61.0,89.0
1361,226.29293750000002,226.9459542625,49.0,79.0
1362,226.03431700000002,226.97720423958333,42.0,88.0
1363,226.8101785,226.978281825,54.0,86.0
1364,227.068799,227.34789362291667,54.0,86.0
1365,227.068799,227.38668669791667,59.0,88.0
1366,227.58604,227.70026405416667,54.0,89.0
1367,227.068799,227.76491917916667,47.0,89.0
1368,227.32741950000002,227.78108296041668,51.0,80.0
1369,227.58604,227.89315184375002,59.0,92.0
1370,227.58604,227.89422942916667,63.0,93.0
1371,227.8446605,227.9556517979167,54.0,85.0
1372,228.103281,228.54401343541667,56.0,83.0
1373,228.62052200000002,228.67440127083333,56.0,54.0
1374,228.62052200000002,228.96750450416667,59.0,83.0
1375,228.103281,228.969659675,52.0,86.0
1376,228.8791425,228.97720277291668,56.0,78.0
1377,229.137763,229.31125425208333,52.0,78.0
1378,229.137763,229.53108167708334,64.0,87.0
1379,229.3963835,229.54185753125,52.0,80.0
1380,229.65500400000002,230.13021916875002,56.0,93.0
1381,229.9136245,230.16362431666667,52.0,82.0
1382,229.65500400000002,230.16470190208335,59.0,89.0
1383,228.36190150000002,230.18194326875002,47.0,76.0
1384,228.103281,230.19595187916667,40.0,88.0
1385,230.172245,230.19595187916667,40.0,89.0
1386,230.172245,230.50952923541666,56.0,82.0
1387,230.172245,230.58280504375,59.0,85.0
1388,230.172245,230.59573606875,64.0,84.0
1389,230.68948600000002,230.84142554375,56.0,81.0
1390,230.94810650000002,231.24983041666667,56.0,87.0
1391,230.94810650000002,231.45026130416667,64.0,88.0
1392,230.94810650000002,231.49336472083334,59.0,92.0
1393,231.4653475,231.5687957,56.0,83.0
1394,231.723968,232.0127608916667,57.0,94.0
1395,231.723968,232.03000225833335,54.0,88.0
1396,230.4308655,232.14314872708334,47.0,73.0
1397,232.241209,232.5784932354167,56.0,83.0
1398,232.241209,232.62698457916667,59.0,91.0
1399,232.75845,232.88344990833335,56.0,83.0
1400,233.01707050000002,233.31232890416666,56.0,88.0
1401,233.01707050000002,233.50844945,64.0,87.0
1402,233.01707050000002,233.53754425625002,59.0,96.0
1403,233.5343115,233.6959493125,56.0,74.0
1404,232.4998295,233.95025947083334,47.0,84.0
1405,232.241209,234.06340593958333,40.0,88.0
1406,234.31017300000002,234.56987108541668,56.0,85.0
1407,234.31017300000002,234.69487099375002,59.0,87.0
1408,234.31017300000002,235.95995627291668,40.0,88.0
