,start,end,pitch,velocity
0,3.7796521000000003,7.2413561500000005,71.0,112.0
1,7.209204100000001,10.713777550000001,62.0,99.0
2,10.638756100000002,13.957562150000001,71.0,112.0
3,14.068308100000001,14.934627225000002,73.0,102.0
4,14.925696100000001,15.840243300000003,71.0,83.0
5,15.783084100000002,16.660120575,73.0,97.0
6,16.640472100000004,17.396045275000002,74.0,99.0
7,17.4978601,18.896474275000003,71.0,86.0
8,18.7839421,19.178697825000004,69.0,92.0
9,19.2126361,20.003933775000004,71.0,107.0
10,20.0700241,20.93098455,73.0,112.0
11,20.9274121,22.527869700000004,69.0,95.0
12,22.213494100000002,22.543945725000004,64.0,85.0
13,22.642188100000002,23.106606600000003,66.0,93.0
14,23.070882100000002,23.420982200000005,69.0,96.0
15,23.499576100000002,23.935415000000003,69.0,96.0
16,20.9274121,24.264080400000005,76.0,97.0
17,23.928270100000002,24.308736025,71.0,112.0
18,24.356964100000003,24.841031075000004,64.0,99.0
19,24.785658100000003,25.196489850000003,66.0,92.0
20,25.214352100000003,26.003863550000002,69.0,92.0
21,40.218642100000004,40.583032,69.0,97.0
22,40.647336100000004,41.054595400000004,64.0,88.0
23,41.076030100000004,41.306453125000004,68.0,102.0
24,41.29037710000001,41.45292357500001,69.0,78.0
25,41.504724100000004,43.4838614,69.0,90.0
26,47.077746100000006,47.44392222500001,69.0,102.0
27,47.506440100000006,47.95656880000001,64.0,92.0
28,47.935134100000006,48.158412225000006,68.0,86.0
29,48.1494811,48.28702042500001,69.0,81.0
30,48.363828100000006,49.626689175,69.0,99.0
31,54.36554410000001,54.85496975000001,73.0,112.0
32,54.79423810000001,55.005012650000005,71.0,107.0
33,54.36554410000001,55.221145875000005,65.0,92.0
34,58.866831100000006,58.97043215000001,64.0,69.0
35,59.08117810000001,59.23657967500001,64.0,73.0
36,59.295525100000006,59.42413330000001,61.0,89.0
37,59.50987210000001,59.64741142500001,64.0,93.0
38,59.93856610000001,60.085036550000005,64.0,88.0
39,60.152913100000006,60.30295600000001,61.0,88.0
40,60.36726010000001,60.506585650000005,64.0,90.0
41,60.58160710000001,60.676277025000005,61.0,107.0
42,60.79595410000001,60.89419647500001,61.0,77.0
43,61.01030110000001,61.112115925000005,61.0,95.0
44,61.22464810000001,61.324676700000005,61.0,122.0
45,61.43899510000001,61.54974105000001,69.0,82.0
46,61.65334210000001,61.739080900000005,71.0,99.0
47,65.72593510000002,65.81524635000001,64.0,79.0
48,65.9402821,66.059959175,64.0,78.0
49,66.15462910000001,66.267161275,61.0,85.0
50,66.36897610000001,66.47972205,64.0,90.0
51,66.7976701,66.90662982500001,64.0,95.0
52,67.01201710000001,67.12990795,61.0,93.0
53,67.22636410000001,67.32996515,64.0,96.0
54,67.4407111,67.53716725000001,61.0,93.0
55,67.6550581,67.753300475,61.0,97.0
56,67.86940510000001,67.97657860000001,61.0,99.0
57,68.08375210000001,68.30345777500001,61.0,112.0
58,68.5124461,68.674992575,61.0,127.0
59,82.65934810000002,83.05589005000002,69.0,107.0
60,83.08804210000001,83.42742485000001,71.0,97.0
61,83.51673610000002,83.91149182500001,73.0,127.0
62,83.94543010000001,84.35983430000002,69.0,95.0
63,84.37412410000002,84.793886975,71.0,102.0
64,84.80281810000001,86.64977475,76.0,112.0
65,86.94628810000002,88.68607125000001,71.0,112.0
66,88.6610641,89.42199595000001,77.0,117.0
67,89.5184521,93.09804700000001,73.0,100.0
68,92.955149,94.53953057500001,68.0,122.0
69,100.23580210000002,101.52188410000001,71.0,97.0
70,101.52188410000001,102.41321037500002,68.0,122.0
71,102.37927210000001,103.31168155000002,69.0,100.0
72,108.38098810000001,110.37798765000001,68.0,117.0
73,110.09576410000001,110.51909942500001,69.0,102.0
74,110.52445810000002,110.95315210000001,71.0,112.0
75,110.95315210000001,111.36577007500001,73.0,117.0
76,111.38184610000002,111.82661612500002,69.0,97.0
77,111.81054010000001,113.75573912500002,76.0,122.0
78,113.95401010000002,114.40056635000002,76.0,102.0
79,114.38270410000001,115.39549367500001,71.0,97.0
80,115.24009210000001,116.09033520000001,68.0,117.0
81,116.09748010000001,117.00666862500002,71.0,99.0
82,116.95486810000001,118.65178185000002,69.0,100.0
83,120.38442010000001,122.11884457500001,68.0,112.0
84,123.38527810000002,123.87113130000002,80.0,107.0
85,123.81397210000002,126.63084892500001,78.0,112.0
86,127.67221810000001,129.138708825,71.0,97.0
87,128.9583001,130.60877200000002,76.0,122.0
88,134.09548320000002,137.20887337500002,88.0,117.0
89,137.5321801,141.19215512500003,69.0,107.0
90,140.9617321,142.96587655000002,71.0,117.0
91,142.6765081,142.96587655000002,71.0,100.0
92,143.53389610000002,144.24124120000002,69.0,107.0
93,144.3912841,145.89528555,69.0,107.0
94,146.1060601,147.883353975,69.0,117.0
95,147.8208361,150.123280125,71.0,107.0
96,149.51774985000003,150.123280125,71.0,107.0
97,151.255746775,152.043472,73.0,127.0
98,152.134569475,152.87763907500002,71.0,127.0
99,152.96159165000003,153.72073727500003,73.0,127.0
100,153.829697,154.61027732500003,74.0,122.0
101,154.646001825,155.95530475,71.0,122.0
102,155.97673945000003,156.40543345000003,69.0,93.0
103,154.671008975,157.1878,76.0,127.0
104,156.39828855000002,157.93444205000003,71.0,127.0
105,157.24317297500002,158.07555382500001,73.0,127.0
106,158.0809125,159.872496175,69.0,100.0
107,159.80461962500002,162.90907867500002,88.0,127.0
108,163.24310275000002,163.33598645,66.0,127.0
109,163.273468575,163.37171095000002,78.0,127.0
110,163.44315995000002,163.541402325,68.0,112.0
111,163.46995332500003,163.57355437500001,80.0,122.0
112,163.66286562500002,163.798618725,81.0,127.0
113,163.67536920000003,163.82362587500003,69.0,122.0
114,164.1326428,164.65064805000003,71.0,127.0
115,164.12907035000003,164.8542777,83.0,127.0
116,168.61249510000002,168.71609615000003,64.0,69.0
117,168.82684210000002,168.98224367500003,64.0,73.0
118,169.04118910000003,169.16979730000003,61.0,89.0
119,169.25553610000003,169.39307542500003,64.0,93.0
120,169.6842301,169.83070055000002,64.0,88.0
121,169.8985771,170.04862000000003,61.0,88.0
122,170.11292410000001,170.25224965,64.0,90.0
123,170.32727110000002,170.42194102500002,61.0,107.0
124,170.54161810000002,170.63986047500003,61.0,77.0
125,170.75596510000003,170.85777992500002,61.0,95.0
126,170.97031210000003,171.07034070000003,61.0,122.0
127,171.18465910000003,171.29540505000003,69.0,82.0
128,171.3990061,171.4847449,71.0,99.0
129,175.47159910000002,175.56091035000003,64.0,79.0
130,175.68594610000002,175.80562317500002,64.0,78.0
131,175.90029310000003,176.012825275,61.0,85.0
132,176.11464010000003,176.22538605000003,64.0,90.0
133,176.5433341,176.65229382500002,64.0,95.0
134,176.7576811,176.87557195000002,61.0,93.0
135,176.97202810000002,177.07562915000003,64.0,96.0
136,177.18637510000002,177.28283125000002,61.0,93.0
137,177.40072210000002,177.49896447500004,61.0,97.0
138,177.61506910000003,177.72224260000002,61.0,99.0
139,177.82941610000003,178.04912177500003,61.0,112.0
140,178.2581101,178.420656575,61.0,127.0
141,192.40501210000002,192.80155405000002,69.0,107.0
142,192.83370610000003,193.17308885000003,71.0,97.0
143,193.26240010000004,193.65715582500002,73.0,127.0
144,193.69109410000002,194.10549830000002,69.0,95.0
145,194.11978810000002,194.53955097500003,71.0,102.0
146,194.54848210000003,196.39543875,76.0,112.0
147,196.69195210000004,197.89944020000002,71.0,112.0
148,197.97803410000003,198.41744545000003,71.0,112.0
149,198.40672810000004,199.16765995000003,77.0,117.0
150,199.26411610000002,201.97024697500004,69.0,100.0
151,203.12236210000003,204.28519457500002,68.0,122.0
152,209.98146610000003,211.26754810000003,71.0,97.0
153,211.26754810000003,212.15887437500004,68.0,122.0
154,212.1249361,213.05734555000004,69.0,100.0
155,218.12665210000003,220.12365165000003,68.0,117.0
156,219.84142810000003,220.26476342500004,69.0,102.0
157,220.27012210000004,220.69881610000002,71.0,112.0
158,220.69881610000002,221.11143407500003,73.0,117.0
159,221.12751010000002,221.57228012500002,69.0,97.0
160,221.55620410000003,223.50140312500002,76.0,122.0
161,223.69967410000004,224.14623035000002,76.0,102.0
162,224.12836810000002,225.14115767500002,71.0,97.0
163,224.98575610000003,225.83599920000003,68.0,117.0
164,225.84314410000002,226.75233262500004,71.0,99.0
165,226.70053210000003,228.39744585000003,69.0,100.0
166,230.13008410000003,231.86450857500003,68.0,112.0
167,233.13094210000003,233.61679530000004,80.0,107.0
168,233.55963610000003,236.37651292500004,78.0,112.0
169,237.41788210000004,238.88437282500004,71.0,97.0
170,238.70396410000004,240.35443600000002,76.0,122.0
171,243.84829210000004,246.95453737500003,88.0,117.0
172,247.27784410000004,249.70711010000002,73.0,127.0
173,249.85000810000003,250.23226025000002,73.0,112.0
174,250.27870210000003,250.72525835000002,74.0,99.0
175,250.70739610000004,253.00090900000004,76.0,102.0
176,254.13694810000004,260.7031112,69.0,99.0
177,260.99605210000004,261.23362002500005,81.0,122.0
178,261.85344010000006,262.12494630000003,81.0,117.0
179,262.7108281,262.9966241,81.0,122.0
180,260.99605210000004,263.19132262500005,61.0,127.0
181,263.56821610000003,263.837936075,81.0,117.0
182,263.56821610000003,264.0111999,61.0,102.0
183,263.99691010000004,264.41488675000005,62.0,96.0
184,264.42560410000004,264.69175162500005,81.0,127.0
185,265.28299210000006,265.60987127500005,81.0,117.0
186,266.1403801,266.49405265,81.0,127.0
187,264.42560410000004,266.64945422500006,59.0,99.0
188,266.99776810000003,267.33893707500005,81.0,127.0
189,266.99776810000003,267.44253812500006,59.0,99.0
190,267.42646210000004,267.88552192500003,52.0,100.0
191,267.85515610000004,268.18024905000004,81.0,127.0
192,268.71254410000006,269.00012632500005,81.0,127.0
193,269.5699321,269.85036942500005,81.0,127.0
194,270.42732010000003,270.79171,81.0,122.0
195,267.85515610000004,271.011415675,54.0,102.0
196,271.28470810000005,271.5490694,81.0,127.0
197,272.14209610000006,272.577935,81.0,122.0
198,271.28470810000005,272.95661470000005,57.0,112.0
199,272.9994841,274.81786115000006,56.0,127.0
200,272.9994841,274.92503465000004,83.0,127.0
201,275.5502134,282.17532192500005,69.0,97.0
202,275.569861875,282.8380114,57.0,72.0
203,275.57343432500005,282.839797625,52.0,69.0
