,start,end,pitch,velocity
0,28.215210100000004,28.513509675000005,71.0,117.0
1,28.643904100000004,28.774298525000003,71.0,117.0
2,29.072598100000004,29.240503250000003,71.0,100.0
3,29.501292100000004,29.715639100000004,71.0,127.0
4,29.929986100000004,30.094318800000003,71.0,122.0
5,30.144333100000004,30.324741825000004,69.0,88.0
6,30.358680100000004,30.551592400000004,71.0,117.0
7,30.787374100000005,30.867754225000002,71.0,107.0
8,31.001721100000005,31.191060950000004,71.0,100.0
9,31.430415100000005,31.587602900000004,71.0,96.0
10,31.859109100000005,32.00200710000001,71.0,107.0
11,32.287803100000005,32.373541900000006,71.0,100.0
12,32.5021501,32.60753737500001,71.0,95.0
13,32.716497100000005,32.864753775000004,73.0,102.0
14,32.9308441,33.0237278,71.0,100.0
15,33.145191100000005,33.268440625000004,71.0,97.0
16,33.3595381,33.47564272500001,71.0,85.0
17,33.573885100000005,33.761438725000005,73.0,100.0
18,33.7882321,34.090104125,69.0,86.0
19,34.2169261,34.463425150000006,69.0,107.0
20,35.0743141,35.260081500000005,71.0,97.0
21,35.5030081,35.669127025,71.0,102.0
22,35.9317021,36.112110825,71.0,99.0
23,36.3603961,36.489004300000005,71.0,107.0
24,36.7890901,36.987361075,73.0,122.0
25,37.003437100000006,37.21421165,69.0,92.0
26,37.6464781,37.728644450000004,69.0,95.0
27,37.86082510000001,37.96442615,69.0,89.0
28,38.0751721,38.369899225000005,71.0,96.0
29,38.5038661,38.58424622500001,71.0,79.0
30,38.71821310000001,39.066526975,71.0,99.0
31,39.361254100000004,39.436275550000005,73.0,122.0
32,39.57560110000001,40.42584420000001,69.0,96.0
33,41.933418100000004,42.2477937,71.0,99.0
34,42.362112100000004,42.49429275000001,71.0,93.0
35,42.790806100000005,42.96585615000001,71.0,99.0
36,43.219500100000005,43.321314925,71.0,112.0
37,43.648194100000005,43.84467885000001,71.0,107.0
38,43.86254110000001,44.06438452500001,69.0,88.0
39,44.076888100000005,44.3412494,71.0,112.0
40,44.505582100000005,44.596679575,71.0,97.0
41,44.71992910000001,44.91820007500001,71.0,100.0
42,45.14862310000001,45.412984400000006,71.0,99.0
43,45.57731710000001,45.78273297500001,71.0,99.0
44,46.00601110000001,46.07924632500001,71.0,86.0
45,46.220358100000006,46.34896630000001,71.0,99.0
46,46.43470510000001,46.613327600000005,73.0,112.0
47,46.649052100000006,46.747294475000004,71.0,93.0
48,46.86339910000001,46.952710350000004,71.0,97.0
49,47.077746100000006,47.226002775000005,71.0,99.0
50,47.2920931,47.427846200000005,73.0,107.0
51,47.506440100000006,47.881547350000005,69.0,102.0
52,47.935134100000006,48.126260175000006,69.0,97.0
53,48.792522100000006,49.09439412500001,73.0,117.0
54,49.22121610000001,49.4569978,73.0,107.0
55,49.64991010000001,49.88033312500001,76.0,93.0
56,50.07860410000001,50.2643715,76.0,112.0
57,50.50729810000001,50.58589200000001,73.0,122.0
58,50.7216451,50.934205875,73.0,100.0
59,51.150339100000004,51.398624375000004,76.0,96.0
60,51.579033100000004,51.76480050000001,76.0,117.0
61,52.007727100000004,52.4078415,73.0,112.0
62,52.436421100000004,52.59003645000001,69.0,99.0
63,52.865115100000004,53.13304885000001,64.0,97.0
64,53.293809100000004,53.474217825000004,69.0,117.0
65,53.722503100000004,54.06903075000001,69.0,112.0
66,55.22293210000001,55.578390875000004,73.0,112.0
67,55.65162610000001,55.894552700000006,71.0,107.0
68,56.08032010000001,56.39290947500001,69.0,95.0
69,56.50901410000001,56.928776975000005,76.0,96.0
70,56.93770810000001,57.314601575000005,73.0,117.0
71,57.36640210000001,57.793309875000006,71.0,117.0
72,57.79509610000001,58.09339567500001,69.0,95.0
73,58.22379010000001,58.46493047500001,69.0,99.0
74,58.65248410000001,59.14190975000001,69.0,107.0
75,60.79595410000001,61.34075272500001,69.0,102.0
76,62.08203610000001,62.44285355000001,73.0,127.0
77,62.51073010000001,62.798312325000005,71.0,100.0
78,62.93942410000001,63.17699202500001,69.0,99.0
79,63.36811810000001,63.871833550000005,76.0,112.0
80,63.79681210000001,64.20585762500001,73.0,127.0
81,64.2255061,64.50772965,71.0,107.0
82,64.65420010000001,64.920347625,69.0,99.0
83,65.0828941,65.37047632500001,69.0,97.0
84,65.51158810000001,65.84382595000001,69.0,107.0
85,68.72679310000001,68.88219467500001,64.0,92.0
86,68.94114010000001,69.28588152500001,73.0,102.0
87,69.3698341,69.70743062500001,71.0,107.0
88,69.79852810000001,70.091469,69.0,89.0
89,70.2272221,70.58803955,76.0,122.0
90,70.65591610000001,70.948857,73.0,107.0
91,71.0846101,71.41863417500001,71.0,95.0
92,71.51330410000001,71.806245,69.0,99.0
93,71.9419981,72.36176097500001,78.0,112.0
94,72.15634510000001,72.36176097500001,78.0,127.0
95,72.7993861,72.92442185000002,76.0,97.0
96,73.01373310000001,73.44778577500001,76.0,97.0
97,73.6567741,73.79252720000001,78.0,112.0
98,73.87112110000001,74.32482225000001,76.0,117.0
99,74.2998151,74.92499385,73.0,122.0
100,75.1572031,75.39477102500001,64.0,93.0
101,75.37155010000001,75.61804915,73.0,107.0
102,75.58589710000001,75.86097575000001,76.0,93.0
103,75.80024410000001,76.11104725000001,78.0,117.0
104,76.22893810000001,76.573679525,78.0,122.0
105,76.65763210000001,76.94878677500002,78.0,112.0
106,77.08632610000001,77.17920980000001,76.0,97.0
107,77.30067310000001,77.870478875,76.0,107.0
108,77.94371410000001,78.03659780000001,73.0,112.0
109,78.15806110000001,78.62783827500002,73.0,112.0
110,78.80110210000001,78.90113070000001,76.0,99.0
111,79.65849010000001,79.76030492500001,81.0,100.0
112,79.01544910000001,79.94249987500001,76.0,117.0
113,79.87283710000001,80.43728420000001,81.0,107.0
114,80.3015311,81.12855327500002,78.0,112.0
115,81.1589191,82.00023107500002,76.0,112.0
116,82.23065410000001,82.40391792500002,66.0,117.0
117,82.44500110000001,82.58075420000002,68.0,102.0
118,82.65934810000002,82.986227275,69.0,100.0
119,83.08804210000001,83.361334525,69.0,117.0
120,83.51673610000002,83.78109740000001,69.0,117.0
121,83.94543010000001,84.197287825,69.0,122.0
122,84.37412410000002,84.701003275,71.0,112.0
123,84.80281810000001,85.204718725,71.0,93.0
124,85.23151210000002,85.51016320000001,73.0,127.0
125,85.66020610000001,85.98708527500001,73.0,127.0
126,87.8036761,88.19664560000001,71.0,117.0
127,88.23237010000001,88.555676825,73.0,112.0
128,88.6610641,89.01473665000002,74.0,107.0
129,89.08975810000001,89.49165872500001,76.0,102.0
130,89.5184521,89.93107007500001,69.0,102.0
131,89.94714610000001,90.23294210000002,69.0,99.0
132,90.3758401,90.638415175,69.0,99.0
133,90.80453410000001,91.1975036,69.0,99.0
134,91.2332281,91.47615470000001,71.0,102.0
135,91.66192210000001,91.98522882500001,71.0,112.0
136,92.0906161,92.367480975,73.0,117.0
137,92.51931010000001,93.68571502500001,73.0,122.0
138,95.09147410000001,95.47908492500001,73.0,107.0
139,95.5201681,95.83632992500002,76.0,93.0
140,95.94886210000001,96.34004537500002,80.0,99.0
141,96.3775561,96.72408375,78.0,117.0
142,96.80625010000001,97.06882517500001,80.0,127.0
143,97.2349441,97.59933400000001,80.0,117.0
144,97.66363810000001,98.09054587500002,78.0,117.0
145,98.09233210000001,98.42456995,78.0,127.0
146,98.52102610000001,98.78360117500002,80.0,112.0
147,98.94972010000001,99.26588192500002,80.0,117.0
148,99.37841410000001,99.66421010000002,78.0,127.0
149,99.80710810000001,100.07325562500002,78.0,117.0
150,100.23580210000002,100.50909452500001,78.0,122.0
151,100.66449610000001,100.95029210000001,78.0,122.0
152,101.09319010000002,101.72015507500001,76.0,100.0
153,101.95057810000002,102.14170417500002,76.0,95.0
154,102.37927210000001,102.64006095000002,76.0,96.0
155,102.80796610000002,103.12412792500001,73.0,99.0
156,103.23666010000001,103.52424232500002,76.0,95.0
157,103.66535410000002,103.97615725000001,76.0,122.0
158,104.09404810000001,104.34769205,76.0,95.0
159,104.52274210000002,104.84247637500002,73.0,127.0
160,104.95143610000001,105.21401117500001,76.0,97.0
161,105.38013010000002,105.67842967500002,76.0,112.0
162,105.80882410000001,106.11784102500002,76.0,107.0
163,106.23751810000002,106.51616920000001,73.0,127.0
164,106.66621210000001,107.00023617500001,73.0,122.0
165,107.09490610000002,107.36819852500001,71.0,99.0
166,107.52360010000001,107.78260272500002,69.0,100.0
167,107.95229410000002,108.83647547500001,71.0,112.0
168,109.23837610000001,109.54024812500002,66.0,117.0
169,109.66707010000002,109.94750742500001,68.0,102.0
170,110.09576410000001,110.38870500000002,69.0,112.0
171,110.52445810000002,110.81918522500001,69.0,100.0
172,110.95315210000001,111.23716187500001,69.0,112.0
173,111.38184610000002,111.66049720000001,69.0,102.0
174,111.81054010000001,112.06418405000001,71.0,100.0
175,112.23923410000002,112.51967142500001,71.0,107.0
176,112.66792810000001,112.92335827500001,73.0,127.0
177,113.09662210000002,113.52174365000002,73.0,127.0
178,115.24009210000001,115.54553657500001,71.0,100.0
179,115.66878610000002,115.96708567500002,73.0,112.0
180,116.09748010000001,116.38327610000002,74.0,97.0
181,116.52617410000002,116.84233592500001,76.0,112.0
182,116.95486810000001,117.21565695000001,69.0,95.0
183,117.38356210000002,117.61755757500002,69.0,107.0
184,117.81225610000001,118.05518270000002,69.0,100.0
185,118.24095010000002,118.51781497500002,69.0,107.0
186,118.66964410000001,118.89828090000002,71.0,117.0
187,119.09833810000002,119.29125040000001,71.0,112.0
188,119.52703210000001,119.82711790000002,73.0,112.0
189,119.95572610000002,121.69372302500001,73.0,127.0
190,122.52789010000002,122.87084530000001,73.0,112.0
191,122.95658410000001,123.18522090000002,76.0,96.0
192,123.38527810000002,123.69250880000001,80.0,107.0
193,123.81397210000002,124.19265180000002,78.0,127.0
194,124.24266610000002,124.49809627500001,80.0,117.0
195,124.67136010000002,124.94643875000001,80.0,122.0
196,125.10005410000002,125.33404957500001,78.0,127.0
197,125.52874810000002,125.79668185000001,78.0,127.0
198,125.95744210000002,126.18965135000002,80.0,127.0
199,126.38613610000002,126.62906270000002,80.0,122.0
200,126.81483010000002,127.07026027500001,78.0,122.0
201,127.24352410000002,127.62041757500002,78.0,127.0
202,127.67221810000001,127.94729675000002,78.0,127.0
203,128.10091210000002,128.36170095000003,78.0,112.0
204,128.52960610000002,129.06190115,76.0,102.0
205,129.3869941,129.663858975,76.0,95.0
206,129.81568810000002,130.074690725,76.0,102.0
207,130.24438210000002,130.556971475,73.0,100.0
208,130.6730761,130.949940975,76.0,100.0
209,131.1017701,131.35362782500002,76.0,112.0
210,131.53046410000002,131.7805356,76.0,102.0
211,131.95915810000002,132.24852655,73.0,112.0
212,132.3878521,132.66293075000002,76.0,107.0
213,132.8165461,133.06840382500002,76.0,117.0
214,133.24524010000002,133.514960075,76.0,117.0
215,133.67393410000003,134.01867552500002,73.0,112.0
216,134.1026281,134.422362375,73.0,127.0
217,134.5313221,134.80282830000002,71.0,97.0
218,134.96001610000002,135.30832997500002,69.0,99.0
219,135.38871010000003,135.98173680000002,71.0,127.0
220,136.2460981,136.68372322500002,73.0,112.0
221,136.67479210000002,137.110631,71.0,99.0
222,137.10348610000003,139.37913675000001,69.0,96.0
223,164.9685961,165.32405487500003,73.0,112.0
224,165.39729010000002,165.64021670000002,71.0,107.0
225,165.82598410000003,166.13857347500002,69.0,95.0
226,166.25467810000004,166.674440975,76.0,96.0
227,166.6833721,167.06026557500002,73.0,117.0
228,167.11206610000002,167.538973875,71.0,117.0
229,167.54076010000003,167.83905967500002,69.0,95.0
230,167.9694541,168.21059447500002,69.0,99.0
231,168.39814810000001,168.88757375000003,69.0,107.0
232,170.54161810000002,171.08641672500002,69.0,102.0
233,171.82770010000002,172.18851755000003,73.0,127.0
234,172.25639410000002,172.54397632500002,71.0,100.0
235,172.68508810000003,172.922656025,69.0,99.0
236,173.1137821,173.61749755000002,76.0,112.0
237,173.54247610000002,173.95152162500003,73.0,127.0
238,173.97117010000002,174.25339365000002,71.0,107.0
239,174.39986410000003,174.666011625,69.0,99.0
240,174.8285581,175.11614032500003,69.0,97.0
241,175.25725210000002,175.58948995000003,69.0,107.0
242,178.4724571,178.62785867500003,64.0,92.0
243,178.68680410000002,179.031545525,73.0,102.0
244,179.11549810000002,179.45309462500003,71.0,107.0
245,179.54419210000003,179.83713300000002,69.0,89.0
246,179.9728861,180.33370355000002,76.0,122.0
247,180.40158010000002,180.694521,73.0,107.0
248,180.83027410000003,181.16429817500003,71.0,95.0
249,181.25896810000003,181.55190900000002,69.0,99.0
250,181.6876621,182.10742497500001,78.0,112.0
251,181.90200910000001,182.10742497500001,78.0,127.0
252,182.54505010000003,182.67008585000002,76.0,97.0
253,182.75939710000003,183.19344977500003,76.0,97.0
254,183.4024381,183.53819120000003,78.0,112.0
255,183.61678510000002,184.07048625000002,76.0,117.0
256,184.04547910000002,184.67065785000003,73.0,122.0
257,184.90286710000004,185.14043502500002,64.0,93.0
258,185.1172141,185.36371315000002,73.0,107.0
259,185.33156110000002,185.60663975000003,76.0,93.0
260,185.54590810000002,185.85671125000002,78.0,117.0
261,185.97460210000003,186.31934352500002,78.0,122.0
262,186.40329610000003,186.69445077500004,78.0,112.0
263,186.8319901,186.92487380000003,76.0,97.0
264,187.04633710000002,187.61614287500004,76.0,107.0
265,187.68937810000003,187.78226180000001,73.0,112.0
266,187.90372510000003,188.37350227500002,73.0,112.0
267,188.5467661,188.64679470000002,76.0,99.0
268,189.40415410000003,189.50596892500002,81.0,100.0
269,188.76111310000002,189.68816387500001,76.0,117.0
270,189.61850110000003,190.18294820000003,81.0,107.0
271,190.0471951,190.87421727500003,78.0,112.0
272,190.90458310000002,191.74589507500002,76.0,112.0
273,191.97631810000001,192.14958192500004,66.0,117.0
274,192.19066510000002,192.32641820000003,68.0,102.0
275,192.40501210000002,192.73189127500004,69.0,100.0
276,192.83370610000003,193.10699852500002,69.0,117.0
277,193.26240010000004,193.52676140000003,69.0,117.0
278,193.69109410000002,193.94295182500002,69.0,122.0
279,194.11978810000002,194.44666727500004,71.0,112.0
280,194.54848210000003,194.95038272500003,71.0,93.0
281,194.97717610000004,195.25582720000003,73.0,127.0
282,195.40587010000002,195.73274927500003,73.0,127.0
283,197.54934010000002,197.94230960000002,71.0,117.0
284,197.97803410000003,198.301340825,73.0,112.0
285,198.40672810000004,198.76040065000004,74.0,107.0
286,198.83542210000002,199.237322725,76.0,102.0
287,199.26411610000002,199.676734075,69.0,102.0
288,199.69281010000003,199.97860610000004,69.0,99.0
289,200.12150410000004,200.38407917500004,69.0,99.0
290,200.55019810000002,200.94316760000004,69.0,99.0
291,200.97889210000002,201.22181870000003,71.0,102.0
292,201.40758610000003,201.730892825,71.0,112.0
293,201.83628010000004,202.113144975,73.0,117.0
294,202.26497410000002,203.431379025,73.0,122.0
295,204.83713810000003,205.22474892500003,73.0,107.0
296,205.26583210000004,205.58199392500003,76.0,93.0
297,205.69452610000002,206.08570937500002,80.0,99.0
298,206.12322010000003,206.46974775000004,78.0,117.0
299,206.55191410000003,206.81448917500003,80.0,127.0
300,206.9806081,207.34499800000003,80.0,117.0
301,207.40930210000002,207.83620987500004,78.0,117.0
302,207.83799610000003,208.17023395000004,78.0,127.0
303,208.26669010000003,208.52926517500003,80.0,112.0
304,208.6953841,209.01154592500004,80.0,117.0
305,209.12407810000002,209.40987410000002,78.0,127.0
306,209.55277210000003,209.81891962500004,78.0,117.0
307,209.98146610000003,210.25475852500003,78.0,122.0
308,210.4101601,210.69595610000002,78.0,122.0
309,210.83885410000002,211.465819075,76.0,100.0
310,211.69624210000003,211.88736817500003,76.0,95.0
311,212.1249361,212.38572495000003,76.0,96.0
312,212.55363010000002,212.86979192500002,73.0,99.0
313,212.98232410000003,213.26990632500002,76.0,95.0
314,213.41101810000004,213.72182125000003,76.0,122.0
315,213.8397121,214.09335605000004,76.0,95.0
316,214.26840610000002,214.58814037500002,73.0,127.0
317,214.69710010000003,214.95967517500003,76.0,97.0
318,215.12579410000004,215.42409367500002,76.0,112.0
319,215.55448810000001,215.86350502500002,76.0,107.0
320,215.98318210000002,216.26183320000004,73.0,127.0
321,216.41187610000003,216.74590017500003,73.0,122.0
322,216.84057010000004,217.11386252500003,71.0,99.0
323,217.26926410000002,217.52826672500004,69.0,100.0
324,217.69795810000002,218.58213947500002,71.0,112.0
325,218.98404010000002,219.28591212500004,66.0,117.0
326,219.41273410000002,219.69317142500003,68.0,102.0
327,219.84142810000003,220.13436900000002,69.0,112.0
328,220.27012210000004,220.56484922500002,69.0,100.0
329,220.69881610000002,220.98282587500003,69.0,112.0
330,221.12751010000002,221.4061612,69.0,102.0
331,221.55620410000003,221.80984805000003,71.0,100.0
332,221.98489810000004,222.26533542500002,71.0,107.0
333,222.41359210000002,222.66902227500003,73.0,127.0
334,222.84228610000002,223.26740765000002,73.0,127.0
335,224.98575610000003,225.29120057500003,71.0,100.0
336,225.41445010000004,225.71274967500003,73.0,112.0
337,225.84314410000002,226.12894010000002,74.0,97.0
338,226.27183810000002,226.58799992500002,76.0,112.0
339,226.70053210000003,226.96132095000002,69.0,95.0
340,227.12922610000004,227.36322157500004,69.0,107.0
341,227.55792010000002,227.80084670000002,69.0,100.0
342,227.98661410000003,228.26347897500003,69.0,107.0
343,228.41530810000003,228.64394490000004,71.0,117.0
344,228.84400210000004,229.03691440000003,71.0,112.0
345,229.27269610000002,229.57278190000002,73.0,112.0
346,229.70139010000003,231.43938702500003,73.0,127.0
347,232.27355410000004,232.61650930000002,73.0,112.0
348,232.70224810000002,232.93088490000002,76.0,96.0
349,233.13094210000003,233.43817280000002,80.0,107.0
350,233.55963610000003,233.93831580000003,78.0,127.0
351,233.98833010000004,234.24376027500003,80.0,117.0
352,234.41702410000002,234.69210275000003,80.0,122.0
353,234.84571810000003,235.07971357500003,78.0,127.0
354,235.27441210000003,235.54234585000003,78.0,127.0
355,235.70310610000004,235.93531535000002,80.0,127.0
356,236.13180010000002,236.37472670000002,80.0,122.0
357,236.56049410000003,236.81592427500004,78.0,122.0
358,236.98918810000004,237.36608157500004,78.0,127.0
359,237.41788210000004,237.69296075000003,78.0,127.0
360,237.84657610000002,238.10736495000003,78.0,112.0
361,238.27527010000003,238.80756515000002,76.0,102.0
362,239.13265810000004,239.40952297500004,76.0,95.0
363,239.56135210000002,239.82035472500004,76.0,102.0
364,239.99004610000003,240.30263547500002,73.0,100.0
365,240.41874010000004,240.69560497500004,76.0,100.0
366,240.84743410000004,241.09929182500002,76.0,112.0
367,241.27612810000002,241.52619960000004,76.0,102.0
368,241.70482210000003,241.99419055000004,73.0,112.0
369,242.13351610000004,242.40859475000002,76.0,107.0
370,242.56221010000004,242.81406782500002,76.0,117.0
371,242.99090410000002,243.26062407500004,76.0,117.0
372,243.41959810000003,243.76433952500003,73.0,112.0
373,243.84829210000004,244.16802637500004,73.0,127.0
374,244.27698610000004,244.54849230000002,71.0,97.0
375,244.70568010000002,245.05399397500003,69.0,99.0
376,245.13437410000003,245.72740080000003,71.0,127.0
377,246.89201950000003,247.02241392500002,69.0,112.0
378,247.13673232500003,250.12330052500002,69.0,102.0
379,251.13430387500003,251.39330650000002,71.0,112.0
380,251.37365802500003,251.63266065000002,69.0,78.0
381,251.59514992500004,252.06849955000004,73.0,117.0
382,252.06135465000003,253.66717092500002,71.0,107.0
