,start,end,pitch,velocity
0,1.2074881000000002,2.1863394000000005,71.0,100.0
1,2.0648761,2.4971425500000004,64.0,92.0
2,2.4935701000000003,2.8651049000000004,73.0,100.0
3,1.2074881000000002,3.2920126750000005,45.0,60.0
4,1.2074881000000002,3.3152336000000004,57.0,62.0
5,1.2074881000000002,3.3170198250000005,61.0,59.0
6,2.9222641000000005,3.3563167750000003,64.0,92.0
7,1.2074881000000002,3.4902836500000003,52.0,54.0
8,3.3509581000000006,4.249429275000001,71.0,100.0
9,4.208346100000001,4.65490235,64.0,99.0
10,4.637040100000001,5.8159486000000005,68.0,117.0
11,5.4944281,5.9249083250000005,64.0,102.0
12,5.9231221000000005,6.326808950000001,71.0,96.0
13,3.7796521000000003,6.487569200000001,40.0,66.0
14,3.7796521000000003,6.54830085,52.0,57.0
15,3.7796521000000003,6.576880450000001,59.0,63.0
16,3.7796521000000003,6.585811575000001,56.0,65.0
17,6.351816100000001,6.769792750000001,64.0,90.0
18,6.780510100000001,7.048443850000001,68.0,92.0
19,7.209204100000001,7.682553725000001,62.0,74.0
20,7.209204100000001,7.682553725000001,62.0,107.0
21,6.994857100000001,7.696843525000001,69.0,93.0
22,7.637898100000001,8.018364025,64.0,107.0
23,8.066592100000001,9.352674100000002,73.0,99.0
24,7.209204100000001,9.500930775,66.0,76.0
25,7.209204100000001,9.511648125,50.0,62.0
26,7.209204100000001,9.550945075000001,57.0,86.0
27,7.209204100000001,9.61346295,38.0,63.0
28,9.352674100000002,9.758147175000001,64.0,99.0
29,9.781368100000002,10.217207000000002,73.0,117.0
30,10.210062100000002,10.67805305,74.0,97.0
31,10.638756100000002,11.41397775,71.0,112.0
32,11.067450100000002,11.519365025,64.0,99.0
33,11.496144100000002,11.871251350000001,71.0,97.0
34,11.924838100000002,12.392829050000001,64.0,96.0
35,12.3535321,12.909048075000001,68.0,102.0
36,12.7822261,13.184126725000002,64.0,100.0
37,10.638756100000002,13.312734925,40.0,72.0
38,10.638756100000002,13.730711575000003,59.0,74.0
39,10.638756100000002,13.7324978,56.0,71.0
40,10.638756100000002,13.803946800000002,52.0,79.0
41,13.210920100000001,13.839671300000001,69.0,102.0
42,14.068308100000001,14.450560250000002,69.0,107.0
43,14.497002100000001,14.877468025000002,64.0,96.0
44,14.497002100000001,15.120394625000001,45.0,45.0
45,14.925696100000001,15.293658450000002,71.0,107.0
46,14.925696100000001,15.565164650000002,61.0,102.0
47,15.354390100000002,15.758076950000001,64.0,96.0
48,14.925696100000001,15.840243300000003,57.0,96.0
49,15.354390100000002,15.965279050000001,45.0,58.0
50,15.783084100000002,16.140329100000002,69.0,99.0
51,16.211778100000004,16.611892500000003,71.0,95.0
52,16.211778100000004,16.674410375,57.0,88.0
53,14.068308100000001,16.781583875000003,33.0,89.0
54,15.783084100000002,17.042372725000003,52.0,93.0
55,16.640472100000004,17.110249275,64.0,90.0
56,16.640472100000004,17.553233075,61.0,127.0
57,17.069166100000004,17.583598900000002,57.0,71.0
58,17.069166100000004,17.685413725000004,71.0,100.0
59,17.9265541,18.360606775,68.0,107.0
60,17.9265541,18.59460225,47.0,63.0
61,18.3552481,18.835742625,64.0,93.0
62,18.3552481,19.260864175000002,52.0,86.0
63,18.7839421,19.396617275000004,47.0,58.0
64,18.7839421,19.593102025000004,68.0,107.0
65,19.2126361,19.941415900000003,59.0,69.0
66,19.2126361,20.012864900000004,56.0,70.0
67,19.6413301,20.093245025,68.0,95.0
68,19.6413301,20.311164475,47.0,59.0
69,17.4978601,20.443345125000004,40.0,95.0
70,20.0700241,20.552304850000002,69.0,95.0
71,20.4987181,20.8916876,71.0,96.0
72,20.4987181,20.90240495,56.0,79.0
73,20.0700241,20.9202672,59.0,83.0
74,21.3561061,21.877683800000003,64.0,92.0
75,21.784800100000002,22.217066550000002,68.0,97.0
76,21.3561061,22.333171175000004,50.0,71.0
77,20.9274121,22.483214075000003,38.0,88.0
78,22.213494100000002,22.724354450000003,64.0,90.0
79,22.642188100000002,22.965494825000004,69.0,96.0
80,21.784800100000002,23.354891875000003,66.0,99.0
81,22.213494100000002,23.363823000000004,57.0,78.0
82,21.784800100000002,23.385257700000004,62.0,95.0
83,23.070882100000002,23.4638516,73.0,96.0
84,22.642188100000002,23.822882825000004,38.0,69.0
85,23.499576100000002,23.978284400000003,64.0,90.0
86,23.499576100000002,24.360536550000003,62.0,89.0
87,23.928270100000002,24.378398800000003,57.0,53.0
88,23.499576100000002,24.381971250000003,66.0,97.0
89,23.928270100000002,24.565952425000003,71.0,95.0
90,24.785658100000003,25.183986275000002,66.0,97.0
91,25.214352100000003,25.559093525,64.0,93.0
92,25.214352100000003,25.596604250000002,69.0,93.0
93,25.214352100000003,25.721640000000004,59.0,83.0
94,25.643046100000003,26.069953875000003,66.0,107.0
95,25.643046100000003,26.202134525,52.0,90.0
96,24.785658100000003,26.320025375000004,47.0,55.0
97,26.500434100000003,26.920196975000003,64.0,86.0
98,26.071740100000003,26.925555650000003,56.0,92.0
99,26.071740100000003,26.971997500000004,68.0,99.0
100,26.500434100000003,27.009508225000005,47.0,68.0
101,24.356964100000003,27.093460800000003,40.0,85.0
102,27.357822100000003,27.807950800000004,56.0,79.0
103,26.929128100000003,27.852606425000005,59.0,96.0
104,26.929128100000003,27.863323775000005,71.0,96.0
105,28.215210100000004,28.877899575000004,45.0,63.0
106,28.643904100000004,29.751363600000005,61.0,95.0
107,29.072598100000004,29.858537100000003,45.0,63.0
108,29.501292100000004,29.994290200000005,57.0,75.0
109,29.929986100000004,30.505150550000003,45.0,57.0
110,27.786516100000004,30.590889350000005,33.0,77.0
111,30.358680100000004,31.346462525000003,57.0,78.0
112,30.358680100000004,31.391118150000004,61.0,97.0
113,30.787374100000005,31.464353375000005,52.0,66.0
114,31.216068100000005,32.255651050000004,40.0,83.0
115,31.644762100000005,32.346748525,47.0,56.0
116,32.5021501,32.84153285000001,40.0,79.0
117,32.0734561,33.407766175000006,56.0,95.0
118,32.0734561,33.45063557500001,59.0,82.0
119,33.3595381,33.866826,52.0,66.0
120,32.9308441,34.065096975,40.0,88.0
121,34.2169261,34.59917825,52.0,67.0
122,33.7882321,34.622399175000005,59.0,88.0
123,33.7882321,34.633116525000005,56.0,81.0
124,34.6456201,35.76379695000001,42.0,99.0
125,35.0743141,35.98350262500001,54.0,55.0
126,35.9317021,36.140690425,42.0,73.0
127,35.5030081,36.919484525,66.0,99.0
128,35.5030081,36.946277900000005,61.0,99.0
129,36.7890901,37.278515750000004,54.0,63.0
130,35.5030081,37.337461175,57.0,56.0
131,36.3603961,37.6250434,42.0,82.0
132,37.2177841,38.0323027,66.0,89.0
133,37.6464781,38.0894619,61.0,90.0
134,38.0751721,39.216569875000005,38.0,83.0
135,38.9325601,39.7327889,57.0,92.0
136,38.5038661,39.7756583,50.0,74.0
137,39.361254100000004,39.80245167500001,38.0,89.0
138,39.789948100000004,40.89740760000001,40.0,107.0
139,40.218642100000004,41.184989825,52.0,88.0
140,41.076030100000004,41.533303700000005,56.0,86.0
141,40.647336100000004,41.53508992500001,59.0,112.0
142,41.504724100000004,42.588962675000005,45.0,89.0
143,41.933418100000004,42.69256372500001,52.0,62.0
144,42.790806100000005,43.14983732500001,45.0,77.0
145,42.362112100000004,43.283804200000006,64.0,100.0
146,43.219500100000005,44.29838000000001,45.0,97.0
147,43.648194100000005,44.930703650000005,52.0,79.0
148,44.076888100000005,45.00929755000001,61.0,117.0
149,44.505582100000005,45.075387875000004,57.0,85.0
150,44.934276100000005,46.10425347500001,40.0,88.0
151,45.362970100000005,46.220358100000006,47.0,69.0
152,46.220358100000006,46.55080972500001,40.0,83.0
153,45.791664100000006,47.175988475000004,59.0,97.0
154,46.649052100000006,47.78687742500001,40.0,90.0
155,47.077746100000006,48.1923505,52.0,81.0
156,47.935134100000006,48.429918425000004,56.0,85.0
157,47.506440100000006,48.437063325000004,59.0,100.0
158,48.792522100000006,49.27123040000001,54.0,68.0
159,48.363828100000006,49.99465152500001,42.0,93.0
160,49.22121610000001,50.36618632500001,61.0,112.0
161,49.64991010000001,50.46621492500001,57.0,63.0
162,50.07860410000001,51.10032480000001,42.0,72.0
163,51.36468610000001,51.74157957500001,57.0,67.0
164,50.93599210000001,51.75051070000001,61.0,100.0
165,50.50729810000001,51.827318375000004,54.0,79.0
166,51.79338010000001,53.02230290000001,38.0,90.0
167,52.22207410000001,53.275946850000004,50.0,72.0
168,52.65076810000001,53.315243800000005,57.0,99.0
169,53.07946210000001,53.400982600000006,54.0,93.0
170,53.50815610000001,54.399482375000005,52.0,97.0
171,53.50815610000001,54.406627275000005,40.0,97.0
172,54.79423810000001,54.83710750000001,42.0,28.0
173,54.36554410000001,54.92820497500001,41.0,81.0
174,54.36554410000001,55.24079435000001,53.0,96.0
175,55.65162610000001,56.489365625000005,54.0,79.0
176,55.22293210000001,56.84839685000001,42.0,96.0
177,56.08032010000001,56.90198360000001,61.0,107.0
178,56.50901410000001,57.00379842500001,57.0,100.0
179,56.93770810000001,58.26665950000001,44.0,97.0
180,58.22379010000001,58.68642237500001,56.0,96.0
181,57.79509610000001,58.72214687500001,59.0,99.0
182,57.36640210000001,58.94006632500001,52.0,90.0
183,59.08117810000001,59.52952057500001,52.0,79.0
184,58.65248410000001,60.24222435000001,45.0,96.0
185,59.93856610000001,60.67449080000001,52.0,75.0
186,59.50987210000001,60.737008675000006,57.0,83.0
187,59.50987210000001,60.74593980000001,61.0,112.0
188,60.36726010000001,61.64798342500001,45.0,81.0
189,60.79595410000001,61.70514262500001,52.0,73.0
190,61.22464810000001,62.12490550000001,61.0,117.0
191,61.65334210000001,62.192782050000005,57.0,79.0
192,62.08203610000001,63.28595175000001,42.0,92.0
193,62.93942410000001,63.34668340000001,61.0,112.0
194,62.51073010000001,63.38240790000001,54.0,96.0
195,63.36811810000001,63.77537740000001,42.0,95.0
196,63.79681210000001,64.88998180000002,44.0,100.0
197,65.0828941,65.50444320000001,56.0,112.0
198,64.65420010000001,65.54552637500001,59.0,97.0
199,64.2255061,65.79559787500001,52.0,74.0
200,65.51158810000001,67.081679875,45.0,99.0
201,65.9402821,67.55324327500001,52.0,83.0
202,66.36897610000001,67.58718155000001,61.0,112.0
203,66.7976701,67.60325757500001,57.0,73.0
204,67.6550581,68.128407725,52.0,64.0
205,67.22636410000001,68.3552583,45.0,93.0
206,68.5124461,68.93399520000001,52.0,73.0
207,68.08375210000001,68.95900235,57.0,83.0
208,68.08375210000001,69.021520225,61.0,97.0
209,69.3698341,69.97715060000002,54.0,75.0
210,69.79852810000001,70.32010580000001,61.0,122.0
211,68.94114010000001,70.44514155,42.0,81.0
212,70.2272221,70.621977825,57.0,102.0
213,71.0846101,71.57046330000001,52.0,81.0
214,70.65591610000001,72.02416445000001,44.0,117.0
215,71.51330410000001,72.15277265,59.0,95.0
216,71.51330410000001,72.21350430000001,56.0,89.0
217,71.9419981,72.6350534,52.0,82.0
218,72.7993861,73.33168115000001,52.0,90.0
219,73.22808010000001,73.94614255,57.0,86.0
220,73.22808010000001,74.04974360000001,61.0,102.0
221,72.37069210000001,74.058674725,45.0,100.0
222,73.6567741,74.094399225,52.0,85.0
223,74.08546810000001,74.89998670000001,47.0,99.0
224,74.08546810000001,74.96071835000001,59.0,100.0
225,74.94285610000001,75.70736040000001,49.0,102.0
226,74.94285610000001,75.80024410000001,61.0,112.0
227,76.22893810000001,76.88269645000001,50.0,85.0
228,75.80024410000001,77.31139045,38.0,97.0
229,77.08632610000001,77.856189075,57.0,82.0
230,76.65763210000001,77.86690642500001,66.0,96.0
231,76.65763210000001,77.89548602500001,62.0,83.0
232,77.94371410000001,78.47779537500001,50.0,96.0
233,77.51502010000002,78.74037045000001,38.0,77.0
234,78.37240810000002,79.07796697500001,66.0,122.0
235,78.80110210000001,79.14762975000001,62.0,86.0
236,79.22979610000002,80.86240575000001,40.0,89.0
237,79.65849010000001,80.97672415000001,52.0,89.0
238,80.08718410000002,81.023166,59.0,99.0
239,80.51587810000001,81.03924202500001,56.0,127.0
240,81.37326610000001,81.80553255000001,52.0,85.0
241,80.94457210000002,81.97879637500002,40.0,97.0
242,82.23065410000001,82.546815925,52.0,76.0
243,81.80196010000002,82.55753327500001,56.0,95.0
244,81.80196010000002,82.55753327500001,59.0,88.0
245,82.8736951,83.20414672500002,52.0,75.0
246,83.30238910000001,83.55781927500001,52.0,68.0
247,83.08804210000001,83.62569582500001,57.0,89.0
248,82.65934810000002,84.20979140000001,45.0,89.0
249,83.7310831,84.36697920000002,52.0,82.0
250,84.15977710000001,84.70278950000001,57.0,95.0
251,83.94543010000001,84.72065175000002,61.0,112.0
252,83.51673610000002,84.76352115000002,64.0,97.0
253,84.5884711,84.90820537500001,52.0,86.0
254,84.80281810000001,85.204718725,57.0,96.0
255,85.01716510000001,85.2529468,52.0,69.0
256,85.4458591,85.62090915000002,52.0,82.0
257,84.37412410000002,85.67985457500001,45.0,92.0
258,85.23151210000002,85.70128927500001,61.0,100.0
259,85.66020610000001,86.06746540000002,57.0,99.0
260,85.23151210000002,86.07282407500001,64.0,97.0
261,85.87455310000001,86.23358432500001,61.0,112.0
262,86.30324710000001,86.62476760000001,56.0,78.0
263,86.51759410000001,86.91056360000002,61.0,102.0
264,86.73194110000001,86.96950902500001,56.0,81.0
265,86.94628810000002,87.37319587500001,61.0,70.0
266,86.08890010000002,87.8036761,44.0,90.0
267,87.37498210000001,88.09840322500001,56.0,92.0
268,87.58932910000001,88.15020375000002,61.0,102.0
269,86.94628810000002,88.15556242500001,64.0,92.0
270,88.01802310000001,88.31810890000001,52.0,72.0
271,88.23237010000001,88.72000952500001,56.0,89.0
272,88.44671710000001,88.73072687500002,52.0,72.0
273,87.8036761,88.98972950000001,44.0,34.0
274,88.6610641,89.09511677500001,59.0,86.0
275,88.6610641,89.09511677500001,65.0,86.0
276,89.08975810000001,89.42199595000001,56.0,93.0
277,89.30410510000002,89.87926955000002,57.0,100.0
278,89.73279910000001,90.03109867500001,54.0,99.0
279,89.94714610000001,90.42228195000001,57.0,95.0
280,90.16149310000002,90.4258544,54.0,89.0
281,90.3758401,90.84561727500001,61.0,72.0
282,89.5184521,91.10997857500001,42.0,86.0
283,90.59018710000001,91.2903873,54.0,90.0
284,90.80453410000001,91.52974145000002,57.0,86.0
285,90.3758401,91.63691495,66.0,100.0
286,91.01888110000002,91.64227362500002,61.0,99.0
287,91.44757510000001,91.75301957500001,54.0,90.0
288,91.87626910000002,92.08882987500002,54.0,85.0
289,91.66192210000001,92.1477753,57.0,76.0
290,92.30496310000001,92.45679222500002,54.0,92.0
291,91.2332281,92.47644070000001,42.0,72.0
292,92.0906161,92.58182797500001,61.0,58.0
293,92.0906161,93.08911587500002,66.0,95.0
294,92.51931010000001,93.19450315000002,57.0,95.0
295,92.73365710000002,93.31596645,61.0,93.0
296,93.37669810000001,93.49458895000001,64.0,72.0
297,93.59104510000002,93.86612375000001,52.0,82.0
298,93.37669810000001,93.8696962,59.0,75.0
299,94.01973910000001,94.20907895,52.0,85.0
300,93.8053921,94.30910755000001,64.0,86.0
301,93.8053921,94.52166832500001,68.0,99.0
302,92.9480041,94.55739282500001,40.0,83.0
303,93.16235110000001,94.71815307500002,47.0,65.0
304,94.23408610000001,95.00752152500002,59.0,100.0
305,94.44843310000002,95.07539807500001,64.0,81.0
306,95.09147410000001,95.57732730000001,59.0,93.0
307,95.30582110000002,95.60947935000002,52.0,88.0
308,95.73451510000001,95.86133707500001,52.0,77.0
309,94.6627801,95.95779322500002,40.0,92.0
310,94.87712710000001,95.96672435,47.0,63.0
311,95.5201681,95.98815905000001,64.0,88.0
312,95.5201681,96.35076272500001,68.0,102.0
313,96.16320910000002,96.37398365000001,64.0,86.0
314,95.94886210000001,96.48115715000002,59.0,95.0
315,96.59190310000001,96.929499625,50.0,95.0
316,97.02059710000002,97.29210330000001,50.0,89.0
317,96.80625010000001,97.30996555000002,57.0,82.0
318,97.2349441,97.68150035000001,62.0,79.0
319,97.44929110000001,97.75473557500001,50.0,83.0
320,96.3775561,97.95657900000002,38.0,92.0
321,97.66363810000001,98.37812810000001,57.0,93.0
322,97.87798510000002,98.39599035000002,62.0,90.0
323,97.2349441,98.43350107500001,66.0,100.0
324,98.52102610000001,98.86576752500001,62.0,76.0
325,98.73537310000002,98.8997058,57.0,30.0
326,98.73537310000002,99.047962475,50.0,90.0
327,98.94972010000001,99.39627635000001,62.0,89.0
328,99.16406710000001,99.47487025000001,50.0,90.0
329,98.30667910000001,99.530243225,45.0,60.0
330,98.09233210000001,99.53202945000001,38.0,76.0
331,99.59276110000002,99.83032902500001,62.0,73.0
332,98.94972010000001,99.93214385000002,66.0,107.0
333,99.37841410000001,99.94286120000001,57.0,89.0
334,100.02145510000001,100.32154090000002,49.0,83.0
335,100.23580210000002,100.61090935000001,52.0,95.0
336,100.45014910000002,100.69664815000002,49.0,89.0
337,99.80710810000001,101.10569367500001,37.0,99.0
338,100.66449610000001,101.12176970000002,56.0,96.0
339,100.87884310000001,101.4075657,49.0,93.0
340,101.09319010000002,101.43257285000001,52.0,89.0
341,100.66449610000001,101.52009787500002,61.0,100.0
342,101.30753710000002,101.54689125000002,56.0,117.0
343,101.73623110000001,102.059537825,54.0,99.0
344,101.95057810000002,102.37569965000002,57.0,97.0
345,102.16492510000002,102.434645075,54.0,86.0
346,101.52188410000001,102.77581405000001,42.0,99.0
347,102.59361910000001,102.79010385000001,54.0,92.0
348,102.37927210000001,102.89727735000001,61.0,86.0
349,103.02231310000002,103.24023255000002,61.0,112.0
350,102.80796610000002,103.24916367500002,57.0,99.0
351,102.37927210000001,103.36705452500001,66.0,112.0
352,103.45100710000001,103.78145872500001,54.0,93.0
353,103.66535410000002,104.04939247500002,59.0,92.0
354,103.87970110000002,104.18157312500001,54.0,81.0
355,104.09404810000001,104.49952117500001,62.0,69.0
356,103.23666010000001,104.83354525000001,35.0,82.0
357,104.30839510000001,104.96751212500001,54.0,90.0
358,104.09404810000001,105.21936985,66.0,112.0
359,104.52274210000002,105.22115607500001,59.0,86.0
360,104.73708910000002,105.36584030000002,62.0,79.0
361,105.16578310000001,105.47122757500001,54.0,100.0
362,105.59447710000002,105.83025880000001,54.0,97.0
363,105.38013010000002,105.85883840000001,59.0,88.0
364,106.02317110000001,106.15535175000001,54.0,97.0
365,104.95143610000001,106.17142777500001,35.0,86.0
366,105.80882410000001,106.65192230000001,66.0,107.0
367,106.23751810000002,106.66799832500001,62.0,96.0
368,106.45186510000002,106.71801262500001,59.0,85.0
369,106.88055910000001,107.18064490000002,47.0,95.0
370,107.09490610000002,107.52717255000002,52.0,75.0
371,107.3092531,107.58969042500001,47.0,77.0
372,107.52360010000001,107.96301145000001,56.0,59.0
373,106.66621210000001,108.25237990000001,40.0,82.0
374,107.73794710000001,108.386346775,47.0,76.0
375,107.95229410000002,108.40242280000001,52.0,85.0
376,108.1666411,108.43100240000001,56.0,76.0
377,107.52360010000001,108.46494067500001,59.0,85.0
378,108.80968210000002,109.27588682500001,52.0,93.0
379,109.0240291,109.28124550000001,59.0,97.0
380,109.45272310000001,109.61169712500002,52.0,93.0
381,109.23837610000001,109.67242877500001,64.0,78.0
382,108.59533510000001,110.02431510000001,47.0,90.0
383,108.38098810000001,110.065398275,40.0,85.0
384,109.66707010000002,110.20829627500001,59.0,100.0
385,109.88141710000001,110.22615852500002,64.0,102.0
386,109.23837610000001,110.25473812500002,68.0,127.0
387,110.33333202500002,110.66378365000001,52.0,75.0
388,110.76202602500001,111.01745620000001,52.0,68.0
389,110.54767902500001,111.08533275000002,57.0,89.0
390,110.11898502500001,111.66942832500001,45.0,89.0
391,111.19072002500002,111.82661612500002,52.0,82.0
392,111.61941402500001,112.16242642500002,57.0,95.0
393,111.40506702500001,112.18028867500001,61.0,112.0
394,110.97637302500002,112.22315807500001,64.0,97.0
395,112.04810802500002,112.36784230000002,52.0,86.0
396,112.26245502500001,112.66435565000002,57.0,96.0
397,112.47680202500001,112.71258372500002,52.0,69.0
398,112.90549602500002,113.08054607500002,52.0,82.0
399,111.83376102500002,113.13949150000002,45.0,92.0
400,112.69114902500002,113.16092620000002,61.0,100.0
401,113.09662210000002,113.50388140000001,57.0,99.0
402,112.69114902500002,113.53246100000001,64.0,97.0
403,113.33419002500001,113.69322125000001,61.0,112.0
404,113.73966310000002,114.06118360000002,56.0,78.0
405,113.97723102500001,114.37020052500002,61.0,102.0
406,114.16835710000001,114.43629085000002,56.0,97.0
407,114.38270410000001,114.43629085000002,56.0,86.0
408,114.40592502500002,114.83283280000002,61.0,70.0
409,113.54853702500002,115.00966907500002,44.0,90.0
410,114.81139810000002,115.08826297500002,56.0,85.0
411,115.04896602500001,115.60984067500002,61.0,102.0
412,114.40592502500002,115.61519935000001,64.0,92.0
413,115.47766002500002,115.77774582500001,52.0,72.0
414,115.66878610000002,116.15642552500002,56.0,89.0
415,115.90635402500001,116.19036380000001,52.0,72.0
416,115.26331302500002,116.44936642500001,44.0,34.0
417,116.33504802500002,116.49580827500002,52.0,74.0
418,116.12070102500002,116.55475370000002,61.0,86.0
419,116.54939502500001,116.88163287500001,56.0,93.0
420,116.12070102500002,116.95129565000002,64.0,89.0
421,116.76374202500001,117.33890647500002,61.0,100.0
422,117.19243602500002,117.49073560000001,54.0,99.0
423,117.40678302500001,117.88191887500001,57.0,95.0
424,117.62113002500001,117.88549132500002,54.0,89.0
425,117.83547702500002,118.30525420000002,61.0,72.0
426,116.97808902500002,118.56961550000001,42.0,86.0
427,118.04982402500002,118.75002422500002,54.0,90.0
428,118.26417102500001,118.98937837500002,57.0,86.0
429,117.83547702500002,119.09655187500002,66.0,100.0
430,118.47851802500001,119.10191055000001,61.0,99.0
431,118.90721202500002,119.21265650000001,54.0,90.0
432,119.33590602500001,119.54846680000001,54.0,85.0
433,119.12155902500001,119.60741222500002,57.0,76.0
434,119.76460002500002,119.91642915000001,54.0,92.0
435,118.69286502500002,119.93607762500001,42.0,72.0
436,119.55025302500002,120.04146490000001,61.0,58.0
437,119.55025302500002,120.54875280000002,66.0,95.0
438,119.97894702500001,120.65414007500002,57.0,95.0
439,120.19329402500001,120.77560337500002,61.0,93.0
440,120.83633502500001,120.95422587500002,64.0,72.0
441,121.05068202500001,121.32576067500001,52.0,82.0
442,120.83633502500001,121.32933312500002,59.0,75.0
443,121.47937602500002,121.66871587500002,52.0,85.0
444,121.26502902500002,121.76874447500002,64.0,86.0
445,121.26502902500002,121.98130525000002,68.0,99.0
446,120.40764102500002,122.01702975000002,40.0,83.0
447,120.62198802500002,122.17779000000002,47.0,65.0
448,121.69372302500001,122.46715845000001,59.0,100.0
449,121.90807002500001,122.53503500000002,64.0,81.0
450,122.55111102500001,123.03696422500002,59.0,93.0
451,122.76545802500002,123.06911627500001,52.0,88.0
452,123.19415202500002,123.32097400000002,52.0,77.0
453,122.12241702500002,123.41743015000002,40.0,92.0
454,122.33676402500002,123.42636127500002,47.0,63.0
455,122.97980502500002,123.44779597500002,64.0,88.0
456,122.97980502500002,123.81039965000002,68.0,102.0
457,123.62284602500002,123.83362057500001,64.0,86.0
458,123.40849902500001,123.94079407500001,59.0,95.0
459,124.05154002500002,124.38913655000002,50.0,95.0
460,124.48023402500002,124.75174022500002,50.0,89.0
461,124.26588702500001,124.76960247500001,57.0,82.0
462,124.69458102500002,125.14113727500002,62.0,79.0
463,124.90892802500001,125.21437250000001,50.0,83.0
464,123.83719302500002,125.41621592500002,38.0,92.0
465,125.12327502500001,125.83776502500001,57.0,93.0
466,125.33762202500002,125.85562727500002,62.0,90.0
467,124.69458102500002,125.89313800000002,66.0,100.0
468,125.98066302500001,126.32540445000002,62.0,76.0
469,126.19501002500002,126.35934272500002,57.0,30.0
470,126.19501002500002,126.50759940000002,50.0,90.0
471,126.40935702500002,126.85591327500002,62.0,89.0
472,126.62370402500001,126.93450717500002,50.0,90.0
473,125.76631602500001,126.98988015000002,45.0,60.0
474,125.55196902500002,126.99166637500002,38.0,76.0
475,127.05239802500002,127.28996595000001,62.0,73.0
476,126.40935702500002,127.39178077500002,66.0,107.0
477,126.83805102500001,127.40249812500002,57.0,89.0
478,127.48109202500001,127.78117782500001,49.0,83.0
479,127.69543902500001,128.07054627500003,52.0,95.0
480,127.90978602500002,128.15628507500003,49.0,89.0
481,127.26674502500002,128.5653306,37.0,99.0
482,128.12413302500002,128.58140662500003,56.0,96.0
483,128.33848002500002,128.867202625,49.0,93.0
484,128.55282702500003,128.89220977500003,52.0,89.0
485,128.12413302500002,128.97973480000002,61.0,100.0
486,128.767174025,129.00652817500003,56.0,117.0
487,129.195868025,129.51917475000002,54.0,99.0
488,129.410215025,129.835336575,57.0,97.0
489,129.62456202500002,129.894282,54.0,86.0
490,128.981521025,130.23545097500002,42.0,99.0
491,130.05325602500002,130.24974077500002,54.0,92.0
492,129.83890902500002,130.356914275,61.0,86.0
493,130.481950025,130.699869475,61.0,112.0
494,130.26760302500003,130.70880060000002,57.0,99.0
495,129.83890902500002,130.82669145000003,66.0,112.0
496,130.910644025,131.24109565,54.0,93.0
497,131.124991025,131.5090294,59.0,92.0
498,131.33933802500002,131.64121005,54.0,81.0
499,131.55368502500002,131.95915810000002,62.0,69.0
500,130.6730761,132.26996125000002,35.0,82.0
501,130.696297025,132.29318217500003,47.0,82.0
502,131.76803202500002,132.42714905000003,54.0,90.0
503,131.55368502500002,132.679006775,66.0,112.0
504,131.98237902500003,132.68079300000002,59.0,86.0
505,132.196726025,132.82547722500001,62.0,79.0
506,132.625420025,132.9308645,54.0,100.0
507,133.05411402500002,133.289895725,54.0,97.0
508,132.83976702500001,133.318475325,59.0,88.0
509,132.3878521,133.60784377500002,35.0,86.0
510,133.48280802500003,133.614988675,54.0,97.0
511,132.411073025,133.63106470000002,47.0,86.0
512,133.26846102500002,134.111559225,66.0,107.0
513,133.69715502500003,134.12763525000003,62.0,96.0
514,133.911502025,134.17764955,59.0,85.0
515,134.340196025,134.64028182500002,47.0,95.0
516,134.55454302500002,134.98680947500003,52.0,75.0
517,134.76889002500002,135.04932735000003,47.0,77.0
518,134.98323702500002,135.42264837500002,56.0,59.0
519,134.125849025,135.712016825,40.0,82.0
520,135.19758402500003,135.8459837,47.0,76.0
521,135.41193102500003,135.86205972500002,52.0,85.0
522,135.626278025,135.89063932500002,56.0,76.0
523,134.98323702500002,135.92457760000002,59.0,85.0
524,136.26931902500002,136.73552375000003,52.0,93.0
525,136.48366602500002,136.74088242500002,59.0,97.0
526,136.91236002500003,137.07133405000002,52.0,93.0
527,136.69801302500002,137.13206570000003,64.0,78.0
528,136.054972025,137.483952025,47.0,90.0
529,135.840625025,137.52503520000002,40.0,85.0
530,137.12670702500003,137.5321801,59.0,100.0
531,137.341054025,137.5321801,64.0,102.0
532,136.69801302500002,137.5321801,68.0,127.0
533,137.5321801,138.5110314,71.0,100.0
534,138.38956810000002,138.82183455,64.0,92.0
535,138.81826210000003,139.1897969,73.0,100.0
536,137.5321801,139.61670467500002,45.0,60.0
537,137.5321801,139.63992560000003,57.0,62.0
538,137.5321801,139.64171182500002,61.0,59.0
539,139.2469561,139.681008775,64.0,92.0
540,137.5321801,139.81497565,52.0,54.0
541,139.6756501,140.574121275,71.0,100.0
542,140.53303810000003,140.97959435,64.0,99.0
543,140.9617321,142.1406406,68.0,117.0
544,141.81912010000002,142.24960032500002,64.0,102.0
545,142.24781410000003,142.65150095,71.0,96.0
546,140.10434410000002,142.81226120000002,40.0,66.0
547,140.10434410000002,142.87299285000003,52.0,57.0
548,140.10434410000002,142.90157245000003,59.0,63.0
549,140.10434410000002,142.910503575,56.0,65.0
550,142.6765081,143.09448475000002,64.0,90.0
551,143.1052021,143.37313585,68.0,92.0
552,143.53389610000002,144.00724572500002,62.0,74.0
553,143.53389610000002,144.00724572500002,62.0,107.0
554,143.31954910000002,144.02153552500002,69.0,93.0
555,143.96259010000003,144.343056025,64.0,107.0
556,144.3912841,145.67736610000003,73.0,99.0
557,143.53389610000002,145.82562277500003,66.0,76.0
558,143.53389610000002,145.83634012500002,50.0,62.0
559,143.53389610000002,145.87563707500001,57.0,86.0
560,143.53389610000002,145.93815495,38.0,63.0
561,145.67736610000003,146.08283917500003,64.0,99.0
562,146.1060601,146.54189900000003,73.0,117.0
563,146.53475410000001,147.00274505000002,74.0,97.0
564,146.96344810000002,147.73866975,71.0,112.0
565,147.39214210000003,147.844057025,64.0,99.0
566,147.8208361,148.19594335000002,71.0,97.0
567,148.24953010000002,148.71752105000002,64.0,96.0
568,148.67822410000002,149.23374007500001,68.0,102.0
569,149.10691810000003,149.50881872500003,64.0,100.0
570,146.96344810000002,149.63742692500003,40.0,72.0
571,146.96344810000002,150.055403575,59.0,74.0
572,146.96344810000002,150.05718980000003,56.0,71.0
573,146.96344810000002,150.12863880000003,52.0,79.0
574,149.5356121,150.16436330000002,69.0,102.0
575,150.39300010000002,150.77525225000002,69.0,107.0
576,150.82169410000003,151.202160025,64.0,96.0
577,150.82169410000003,151.44508662500002,45.0,45.0
578,151.2503881,151.61835045,71.0,107.0
579,151.2503881,151.88985665,61.0,102.0
580,151.67908210000002,152.08276895000003,64.0,96.0
581,151.2503881,152.16493530000002,57.0,96.0
582,151.67908210000002,152.28997105000002,45.0,58.0
583,152.10777610000002,152.46502110000003,69.0,99.0
584,152.53647010000003,152.9365845,71.0,95.0
585,152.53647010000003,152.999102375,57.0,88.0
586,150.39300010000002,153.10627587500002,33.0,89.0
587,152.10777610000002,153.367064725,52.0,93.0
588,152.9651641,153.43494127500003,64.0,90.0
589,152.9651641,153.877925075,61.0,127.0
590,153.39385810000002,153.90829090000003,57.0,71.0
591,153.39385810000002,154.01010572500002,71.0,100.0
592,154.25124610000003,154.685298775,68.0,107.0
593,154.25124610000003,154.91929425,47.0,63.0
594,154.6799401,155.16043462500002,64.0,93.0
595,154.6799401,155.58555617500002,52.0,86.0
596,155.10863410000002,155.721309275,47.0,58.0
597,155.10863410000002,155.917794025,68.0,107.0
598,155.53732810000002,156.2661079,59.0,69.0
599,155.53732810000002,156.3375569,56.0,70.0
600,155.96602210000003,156.41793702500001,68.0,95.0
601,155.96602210000003,156.63585647500003,47.0,59.0
602,153.82255210000002,156.768037125,40.0,95.0
603,156.3947161,156.87699685,69.0,95.0
604,156.82341010000002,157.2163796,71.0,96.0
605,156.82341010000002,157.22709695000003,56.0,79.0
606,156.3947161,157.2449592,59.0,83.0
607,157.68079810000003,158.20237580000003,64.0,92.0
608,158.1094921,158.54175855000003,68.0,97.0
609,157.68079810000003,158.65786317500002,50.0,71.0
610,157.25210410000003,158.80790607500003,38.0,88.0
611,158.53818610000002,159.04904645000002,64.0,90.0
612,158.96688010000003,159.290186825,69.0,96.0
613,158.1094921,159.67958387500002,66.0,99.0
614,158.53818610000002,159.68851500000002,57.0,78.0
615,158.1094921,159.7099497,62.0,95.0
616,159.39557410000003,159.78854360000003,73.0,96.0
617,158.96688010000003,160.14757482500002,38.0,69.0
618,159.8242681,160.30297640000003,64.0,90.0
619,159.8242681,160.68522855000003,62.0,89.0
620,160.25296210000002,160.7030908,57.0,53.0
621,159.8242681,160.70666325000002,66.0,97.0
622,160.25296210000002,160.89064442500003,71.0,95.0
623,161.11035010000003,161.50867827500002,66.0,97.0
624,161.5390441,161.883785525,64.0,93.0
625,161.5390441,161.92129625,69.0,93.0
626,161.5390441,162.046332,59.0,83.0
627,161.96773810000002,162.394645875,66.0,107.0
628,161.96773810000002,162.52682652500002,52.0,90.0
629,161.11035010000003,162.64471737500003,47.0,55.0
630,162.82512610000003,163.244888975,64.0,86.0
631,162.39643210000003,163.25024765000003,56.0,92.0
632,162.39643210000003,163.2966895,68.0,99.0
633,162.82512610000003,163.33420022500002,47.0,68.0
634,160.68165610000003,163.41815280000003,40.0,85.0
635,163.68251410000002,164.1326428,56.0,79.0
636,163.2538201,164.17729842500003,59.0,96.0
637,163.2538201,164.18801577500003,71.0,96.0
638,164.11120810000003,164.9685961,33.0,77.0
639,164.53990210000003,164.9685961,45.0,63.0
640,165.39729010000002,166.235029625,54.0,79.0
641,164.9685961,166.59406085000003,42.0,96.0
642,165.82598410000003,166.64764760000003,61.0,107.0
643,166.25467810000004,166.74946242500002,57.0,100.0
644,166.6833721,168.0123235,44.0,97.0
645,167.9694541,168.432086375,56.0,96.0
646,167.54076010000003,168.46781087500003,59.0,99.0
647,167.11206610000002,168.685730325,52.0,90.0
648,168.82684210000002,169.27518457500003,52.0,79.0
649,168.39814810000001,169.98788835000002,45.0,96.0
650,169.6842301,170.42015480000003,52.0,75.0
651,169.25553610000003,170.48267267500003,57.0,83.0
652,169.25553610000003,170.49160380000004,61.0,112.0
653,170.11292410000001,171.393647425,45.0,81.0
654,170.54161810000002,171.450806625,52.0,73.0
655,170.97031210000003,171.87056950000002,61.0,117.0
656,171.3990061,171.93844605,57.0,79.0
657,171.82770010000002,173.03161575000001,42.0,92.0
658,172.68508810000003,173.09234740000002,61.0,112.0
659,172.25639410000002,173.1280719,54.0,96.0
660,173.1137821,173.52104140000003,42.0,95.0
661,173.54247610000002,174.63564580000002,44.0,100.0
662,174.8285581,175.25010720000003,56.0,112.0
663,174.39986410000003,175.291190375,59.0,97.0
664,173.97117010000002,175.54126187500003,52.0,74.0
665,175.25725210000002,176.82734387500003,45.0,99.0
666,175.68594610000002,177.29890727500003,52.0,83.0
667,176.11464010000003,177.33284555000003,61.0,112.0
668,176.5433341,177.34892157500002,57.0,73.0
669,177.40072210000002,177.87407172500002,52.0,64.0
670,176.97202810000002,178.10092230000004,45.0,93.0
671,178.2581101,178.67965920000003,52.0,73.0
672,177.82941610000003,178.70466635000002,57.0,83.0
673,177.82941610000003,178.76718422500002,61.0,97.0
674,179.11549810000002,179.72281460000002,54.0,75.0
675,179.54419210000003,180.06576980000003,61.0,122.0
676,178.68680410000002,180.19080555000002,42.0,81.0
677,179.9728861,180.36764182500002,57.0,102.0
678,180.83027410000003,181.31612730000003,52.0,81.0
679,180.40158010000002,181.76982845000003,44.0,117.0
680,181.25896810000003,181.89843665000004,59.0,95.0
681,181.25896810000003,181.95916830000002,56.0,89.0
682,181.6876621,182.3807174,52.0,82.0
683,182.54505010000003,183.07734515,52.0,90.0
684,182.97374410000003,183.69180655000002,57.0,86.0
685,182.97374410000003,183.79540760000003,61.0,102.0
686,182.11635610000002,183.80433872500004,45.0,100.0
687,183.4024381,183.84006322500002,52.0,85.0
688,183.83113210000002,184.64565070000003,47.0,99.0
689,183.83113210000002,184.70638235,59.0,100.0
690,184.68852010000003,185.45302440000003,49.0,102.0
691,184.68852010000003,185.54590810000002,61.0,112.0
692,185.97460210000003,186.62836045000003,50.0,85.0
693,185.54590810000002,187.05705445,38.0,97.0
694,186.8319901,187.60185307500004,57.0,82.0
695,186.40329610000003,187.61257042500003,66.0,96.0
696,186.40329610000003,187.64115002500003,62.0,83.0
697,187.68937810000003,188.22345937500003,50.0,96.0
698,187.26068410000002,188.48603445000003,38.0,77.0
699,188.11807210000003,188.82363097500001,66.0,122.0
700,188.5467661,188.89329375000003,62.0,86.0
701,188.97546010000002,190.60806975000003,40.0,89.0
702,189.40415410000003,190.72238815000003,52.0,89.0
703,189.83284810000004,190.76883000000004,59.0,99.0
704,190.2615421,190.78490602500003,56.0,127.0
705,191.11893010000003,191.55119655000001,52.0,85.0
706,190.69023610000002,191.72446037500004,40.0,97.0
707,191.97631810000001,192.29247992500004,52.0,76.0
708,191.54762410000004,192.30319727500003,56.0,95.0
709,191.54762410000004,192.30319727500003,59.0,88.0
710,192.61935910000003,192.94981072500002,52.0,75.0
711,193.04805310000003,193.30348327500002,52.0,68.0
712,192.83370610000003,193.371359825,57.0,89.0
713,192.40501210000002,193.95545540000003,45.0,89.0
714,193.4767471,194.11264320000004,52.0,82.0
715,193.90544110000002,194.44845350000003,57.0,95.0
716,193.69109410000002,194.46631575000004,61.0,112.0
717,193.26240010000004,194.50918515000004,64.0,97.0
718,194.33413510000003,194.65386937500003,52.0,86.0
719,194.54848210000003,194.95038272500003,57.0,96.0
720,194.76282910000003,194.99861080000002,52.0,69.0
721,195.1915231,195.36657315000002,52.0,82.0
722,194.11978810000002,195.425518575,45.0,92.0
723,194.97717610000004,195.44695327500003,61.0,100.0
724,195.40587010000002,195.81312940000004,57.0,99.0
725,194.97717610000004,195.81848807500003,64.0,97.0
726,195.62021710000002,195.97924832500001,61.0,112.0
727,196.04891110000003,196.37043160000002,56.0,78.0
728,196.26325810000003,196.65622760000002,61.0,102.0
729,196.47760510000003,196.715173025,56.0,81.0
730,196.69195210000004,197.11885987500003,61.0,70.0
731,195.83456410000002,197.54934010000002,44.0,90.0
732,197.12064610000002,197.84406722500003,56.0,92.0
733,197.33499310000002,197.89586775000004,61.0,102.0
734,196.69195210000004,197.90122642500003,64.0,92.0
735,197.76368710000003,198.06377290000003,52.0,72.0
736,197.97803410000003,198.46567352500003,56.0,89.0
737,198.19238110000003,198.47639087500002,52.0,72.0
738,197.54934010000002,198.73539350000001,44.0,34.0
739,198.6210751,198.78183535000002,52.0,74.0
740,198.40672810000004,198.840780775,61.0,86.0
741,198.83542210000002,199.16765995000003,56.0,93.0
742,198.40672810000004,199.237322725,64.0,89.0
743,199.04976910000002,199.62493355000004,61.0,100.0
744,199.47846310000003,199.77676267500001,54.0,99.0
745,199.69281010000003,200.16794595000002,57.0,95.0
746,199.90715710000003,200.17151840000002,54.0,89.0
747,200.12150410000004,200.59128127500003,61.0,72.0
748,199.26411610000002,200.85564257500002,42.0,86.0
749,200.3358511,201.03605130000003,54.0,90.0
750,200.55019810000002,201.27540545000002,57.0,86.0
751,200.12150410000004,201.38257895000004,66.0,100.0
752,200.76454510000002,201.38793762500003,61.0,99.0
753,201.19323910000003,201.49868357500003,54.0,90.0
754,201.62193310000004,201.83449387500002,54.0,85.0
755,201.40758610000003,201.8934393,57.0,76.0
756,202.0506271,202.20245622500002,54.0,92.0
757,200.97889210000002,202.22210470000002,42.0,72.0
758,201.83628010000004,202.32749197500002,61.0,58.0
759,201.83628010000004,202.83477987500004,66.0,95.0
760,202.26497410000002,202.94016715000004,57.0,95.0
761,202.47932110000002,203.06163045000002,61.0,93.0
762,203.12236210000003,203.24025295,64.0,72.0
763,203.33670910000004,203.61178775000002,52.0,82.0
764,203.12236210000003,203.61536020000003,59.0,75.0
765,203.76540310000001,203.95474295000002,52.0,85.0
766,203.55105610000004,204.05477155000003,64.0,86.0
767,203.55105610000004,204.267332325,68.0,99.0
768,202.69366810000002,204.30305682500003,40.0,83.0
769,202.90801510000003,204.46381707500004,47.0,65.0
770,203.97975010000002,204.75318552500002,59.0,100.0
771,204.19409710000002,204.82106207500001,64.0,81.0
772,204.83713810000003,205.3229913,59.0,93.0
773,205.05148510000004,205.35514335000002,52.0,88.0
774,205.48017910000002,205.60700107500003,52.0,77.0
775,204.40844410000003,205.70345722500002,40.0,92.0
776,204.62279110000003,205.71238835000003,47.0,63.0
777,205.26583210000004,205.73382305,64.0,88.0
778,205.26583210000004,206.09642672500001,68.0,102.0
779,205.90887310000002,206.11964765000002,64.0,86.0
780,205.69452610000002,206.22682115000003,59.0,95.0
781,206.33756710000003,206.67516362500004,50.0,95.0
782,206.76626110000004,207.0377673,50.0,89.0
783,206.55191410000003,207.05562955000002,57.0,82.0
784,206.9806081,207.42716435000003,62.0,79.0
785,207.19495510000002,207.50039957500002,50.0,83.0
786,206.12322010000003,207.70224300000004,38.0,92.0
787,207.40930210000002,208.12379210000003,57.0,93.0
788,207.62364910000002,208.14165435000004,62.0,90.0
789,206.9806081,208.17916507500001,66.0,100.0
790,208.26669010000003,208.61143152500003,62.0,76.0
791,208.48103710000004,208.64536980000003,57.0,30.0
792,208.48103710000004,208.79362647500002,50.0,90.0
793,208.6953841,209.14194035000003,62.0,89.0
794,208.90973110000002,209.22053425000001,50.0,90.0
795,208.05234310000003,209.27590722500003,45.0,60.0
796,207.83799610000003,209.27769345000002,38.0,76.0
797,209.33842510000002,209.57599302500003,62.0,73.0
798,208.6953841,209.67780785000002,66.0,107.0
799,209.12407810000002,209.68852520000002,57.0,89.0
800,209.76711910000003,210.06720490000004,49.0,83.0
801,209.98146610000003,210.35657335000002,52.0,95.0
802,210.19581310000004,210.44231215000002,49.0,89.0
803,209.55277210000003,210.85135767500003,37.0,99.0
804,210.4101601,210.86743370000002,56.0,96.0
805,210.62450710000002,211.15322970000003,49.0,93.0
806,210.83885410000002,211.17823685000002,52.0,89.0
807,210.4101601,211.26576187500004,61.0,100.0
808,211.05320110000002,211.29255525000002,56.0,117.0
809,211.48189510000003,211.80520182500004,54.0,99.0
810,211.69624210000003,212.12136365000003,57.0,97.0
811,211.91058910000004,212.18030907500003,54.0,86.0
812,211.26754810000003,212.52147805,42.0,99.0
813,212.33928310000002,212.53576785,54.0,92.0
814,212.1249361,212.64294135000003,61.0,86.0
815,212.76797710000002,212.98589655000004,61.0,112.0
816,212.55363010000002,212.99482767500004,57.0,99.0
817,212.1249361,213.11271852500002,66.0,112.0
818,213.19667110000003,213.52712272500003,54.0,93.0
819,213.41101810000004,213.79505647500002,59.0,92.0
820,213.62536510000004,213.92723712500003,54.0,81.0
821,213.8397121,214.24518517500002,62.0,69.0
822,212.98232410000003,214.57920925000002,35.0,82.0
823,214.05405910000002,214.71317612500002,54.0,90.0
824,213.8397121,214.96503385000003,66.0,112.0
825,214.26840610000002,214.96682007500002,59.0,86.0
826,214.48275310000002,215.11150430000004,62.0,79.0
827,214.91144710000003,215.21689157500003,54.0,100.0
828,215.34014110000004,215.57592280000003,54.0,97.0
829,215.12579410000004,215.60450240000003,59.0,88.0
830,215.76883510000002,215.90101575000003,54.0,97.0
831,214.69710010000003,215.91709177500002,35.0,86.0
832,215.55448810000001,216.39758630000003,66.0,107.0
833,215.98318210000002,216.41366232500002,62.0,96.0
834,216.19752910000003,216.46367662500003,59.0,85.0
835,216.62622310000003,216.92630890000004,47.0,95.0
836,216.84057010000004,217.27283655000002,52.0,75.0
837,217.05491710000004,217.33535442500002,47.0,77.0
838,217.26926410000002,217.70867545000002,56.0,59.0
839,216.41187610000003,217.99804390000003,40.0,82.0
840,217.48361110000002,218.13201077500003,47.0,76.0
841,217.69795810000002,218.14808680000002,52.0,85.0
842,217.91230510000003,218.17666640000002,56.0,76.0
843,217.26926410000002,218.21060467500004,59.0,85.0
844,218.55534610000004,219.02155082500002,52.0,93.0
845,218.76969310000004,219.02690950000002,59.0,97.0
846,219.19838710000002,219.35736112500004,52.0,93.0
847,218.98404010000002,219.41809277500002,64.0,78.0
848,218.34099910000003,219.76997910000003,47.0,90.0
849,218.12665210000003,219.81106227500004,40.0,85.0
850,219.41273410000002,219.95396027500001,59.0,100.0
851,219.62708110000003,219.97182252500002,64.0,102.0
852,218.98404010000002,220.00040212500002,68.0,127.0
853,220.07899602500004,220.40944765000003,52.0,75.0
854,220.50769002500002,220.76312020000003,52.0,68.0
855,220.29334302500004,220.83099675000003,57.0,89.0
856,219.86464902500003,221.41509232500002,45.0,89.0
857,220.93638402500002,221.57228012500002,52.0,82.0
858,221.36507802500003,221.90809042500004,57.0,95.0
859,221.15073102500003,221.92595267500002,61.0,112.0
860,220.72203702500002,221.96882207500002,64.0,97.0
861,221.79377202500004,222.11350630000004,52.0,86.0
862,222.00811902500004,222.41001965000004,57.0,96.0
863,222.22246602500002,222.45824772500004,52.0,69.0
864,222.65116002500002,222.82621007500003,52.0,82.0
865,221.57942502500003,222.88515550000002,45.0,92.0
866,222.43681302500002,222.90659020000004,61.0,100.0
867,222.84228610000002,223.24954540000002,57.0,99.0
868,222.43681302500002,223.27812500000002,64.0,97.0
869,223.07985402500003,223.43888525000003,61.0,112.0
870,223.48532710000003,223.80684760000003,56.0,78.0
871,223.72289502500004,224.11586452500003,61.0,102.0
872,223.91402110000004,224.18195485000004,56.0,97.0
873,224.12836810000002,224.18195485000004,56.0,86.0
874,224.15158902500002,224.57849680000004,61.0,70.0
875,223.29420102500004,224.75533307500004,44.0,90.0
876,224.55706210000002,224.83392697500003,56.0,85.0
877,224.79463002500003,225.35550467500002,61.0,102.0
878,224.15158902500002,225.36086335000002,64.0,92.0
879,225.22332402500004,225.52340982500002,52.0,72.0
880,225.41445010000004,225.90208952500004,56.0,89.0
881,225.65201802500002,225.93602780000003,52.0,72.0
882,225.00897702500004,226.19503042500003,44.0,34.0
883,226.08071202500003,226.24147227500004,52.0,74.0
884,225.86636502500002,226.30041770000003,61.0,86.0
885,226.29505902500003,226.62729687500004,56.0,93.0
886,225.86636502500002,226.69695965000003,64.0,89.0
887,226.50940602500003,227.08457047500002,61.0,100.0
888,226.93810002500004,227.23639960000003,54.0,99.0
889,227.15244702500001,227.62758287500003,57.0,95.0
890,227.36679402500002,227.63115532500004,54.0,89.0
891,227.58114102500002,228.05091820000004,61.0,72.0
892,226.72375302500004,228.31527950000003,42.0,86.0
893,227.79548802500003,228.49568822500004,54.0,90.0
894,228.00983502500003,228.73504237500003,57.0,86.0
895,227.58114102500002,228.84221587500002,66.0,100.0
896,228.22418202500003,228.84757455000002,61.0,99.0
897,228.65287602500004,228.95832050000004,54.0,90.0
898,229.08157002500002,229.29413080000003,54.0,85.0
899,228.86722302500002,229.35307622500002,57.0,76.0
900,229.51026402500003,229.66209315000003,54.0,92.0
901,228.43852902500004,229.68174162500003,42.0,72.0
902,229.29591702500002,229.78712890000003,61.0,58.0
903,229.29591702500002,230.29441680000002,66.0,95.0
904,229.72461102500003,230.39980407500002,57.0,95.0
905,229.93895802500003,230.52126737500004,61.0,93.0
906,230.58199902500002,230.69988987500003,64.0,72.0
907,230.79634602500002,231.07142467500003,52.0,82.0
908,230.58199902500002,231.07499712500004,59.0,75.0
909,231.22504002500003,231.41437987500004,52.0,85.0
910,231.01069302500002,231.51440847500004,64.0,86.0
911,231.01069302500002,231.72696925000002,68.0,99.0
912,230.15330502500004,231.76269375000004,40.0,83.0
913,230.36765202500004,231.92345400000002,47.0,65.0
914,231.43938702500003,232.21282245000003,59.0,100.0
915,231.65373402500003,232.28069900000003,64.0,81.0
916,232.29677502500002,232.78262822500002,59.0,93.0
917,232.51112202500002,232.81478027500003,52.0,88.0
918,232.93981602500003,233.06663800000004,52.0,77.0
919,231.86808102500004,233.16309415000003,40.0,92.0
920,232.08242802500004,233.17202527500004,47.0,63.0
921,232.72546902500002,233.19345997500002,64.0,88.0
922,232.72546902500002,233.55606365000003,68.0,102.0
923,233.36851002500003,233.57928457500003,64.0,86.0
924,233.15416302500003,233.68645807500002,59.0,95.0
925,233.79720402500004,234.13480055000002,50.0,95.0
926,234.22589802500002,234.49740422500003,50.0,89.0
927,234.01155102500002,234.51526647500003,57.0,82.0
928,234.44024502500002,234.88680127500004,62.0,79.0
929,234.65459202500003,234.96003650000003,50.0,83.0
930,233.58285702500004,235.16187992500002,38.0,92.0
931,234.86893902500003,235.58342902500004,57.0,93.0
932,235.08328602500004,235.60129127500002,62.0,90.0
933,234.44024502500002,235.63880200000003,66.0,100.0
934,235.72632702500002,236.07106845000004,62.0,76.0
935,235.94067402500002,236.10500672500004,57.0,30.0
936,235.94067402500002,236.25326340000004,50.0,90.0
937,236.15502102500002,236.60157727500004,62.0,89.0
938,236.36936802500003,236.68017117500003,50.0,90.0
939,235.51198002500004,236.73554415000004,45.0,60.0
940,235.29763302500004,236.73733037500003,38.0,76.0
941,236.79806202500004,237.03562995000004,62.0,73.0
942,236.15502102500002,237.13744477500003,66.0,107.0
943,236.58371502500003,237.14816212500003,57.0,89.0
944,237.22675602500004,237.52684182500002,49.0,83.0
945,237.44110302500002,237.81621027500003,52.0,95.0
946,237.65545002500002,237.90194907500003,49.0,89.0
947,237.01240902500004,238.31099460000004,37.0,99.0
948,237.86979702500003,238.32707062500003,56.0,96.0
949,238.08414402500003,238.61286662500004,49.0,93.0
950,238.29849102500003,238.63787377500003,52.0,89.0
951,237.86979702500003,238.72539880000002,61.0,100.0
952,238.51283802500004,238.75219217500003,56.0,117.0
953,238.94153202500004,239.26483875000002,54.0,99.0
954,239.15587902500002,239.58100057500002,57.0,97.0
955,239.37022602500002,239.63994600000004,54.0,86.0
956,238.72718502500004,239.98111497500003,42.0,99.0
957,239.79892002500003,239.99540477500003,54.0,92.0
958,239.58457302500003,240.10257827500004,61.0,86.0
959,240.22761402500004,240.44553347500002,61.0,112.0
960,240.01326702500003,240.45446460000002,57.0,99.0
961,239.58457302500003,240.57235545000003,66.0,112.0
962,240.65630802500004,240.98675965000004,54.0,93.0
963,240.87065502500002,241.25469340000004,59.0,92.0
964,241.08500202500002,241.38687405000002,54.0,81.0
965,241.29934902500003,241.70482210000003,62.0,69.0
966,240.41874010000004,242.01562525000003,35.0,82.0
967,240.44196102500004,242.03884617500003,47.0,82.0
968,241.51369602500003,242.17281305000003,54.0,90.0
969,241.29934902500003,242.42467077500004,66.0,112.0
970,241.72804302500003,242.42645700000003,59.0,86.0
971,241.94239002500004,242.57114122500002,62.0,79.0
972,242.37108402500004,242.67652850000002,54.0,100.0
973,242.79977802500002,243.03555972500004,54.0,97.0
974,242.58543102500002,243.06413932500004,59.0,88.0
975,242.13351610000004,243.35350777500003,35.0,86.0
976,243.22847202500003,243.36065267500004,54.0,97.0
977,242.15673702500004,243.37672870000003,47.0,86.0
978,243.01412502500003,243.85722322500004,66.0,107.0
979,243.44281902500003,243.87329925000003,62.0,96.0
980,243.65716602500004,243.92331355000002,59.0,85.0
981,244.08586002500004,244.38594582500002,47.0,95.0
982,244.30020702500002,244.73247347500003,52.0,75.0
983,244.51455402500002,244.79499135000003,47.0,77.0
984,244.72890102500003,245.16831237500003,56.0,59.0
985,243.87151302500004,245.45768082500004,40.0,82.0
986,244.94324802500003,245.59164770000004,47.0,76.0
987,245.15759502500003,245.60772372500003,52.0,85.0
988,245.37194202500004,245.63630332500003,56.0,76.0
989,244.72890102500003,245.67024160000003,59.0,85.0
990,246.01498302500002,246.48118775000003,52.0,93.0
991,246.22933002500002,246.48654642500003,59.0,97.0
992,246.65802402500003,246.81699805000002,52.0,93.0
993,246.44367702500003,246.87772970000003,64.0,78.0
994,245.80063602500002,247.22961602500004,47.0,90.0
995,245.58628902500004,247.27069920000002,40.0,85.0
996,246.87237102500004,247.27784410000004,59.0,100.0
997,247.08671802500004,247.27784410000004,64.0,102.0
998,246.44367702500003,247.27784410000004,68.0,127.0
999,247.70653810000002,248.28348877500002,52.0,75.0
1000,248.13523210000002,249.06585532500003,57.0,95.0
1001,248.56392610000003,249.24090537500004,52.0,52.0
1002,248.99262010000004,249.70532387500003,59.0,97.0
1003,249.42131410000002,250.63773332500003,52.0,79.0
1004,247.27784410000004,250.76634152500003,45.0,102.0
1005,250.27870210000003,250.77527265000003,57.0,83.0
1006,249.85000810000003,250.77705887500002,64.0,52.0
1007,249.85000810000003,250.79313490000004,61.0,127.0
1008,251.13609010000002,251.58264635000003,64.0,99.0
1009,251.56478410000003,252.74369260000003,68.0,117.0
1010,252.42217210000004,252.85265232500004,64.0,102.0
1011,252.85086610000002,253.25455295000003,71.0,96.0
1012,250.70739610000004,253.41531320000004,40.0,66.0
1013,250.70739610000004,253.47604485000002,52.0,57.0
1014,250.70739610000004,253.50462445000002,59.0,63.0
1015,250.70739610000004,253.51355557500003,56.0,65.0
1016,253.27956010000003,253.69753675000004,64.0,90.0
1017,253.70825410000003,253.97618785000003,68.0,92.0
1018,254.13694810000004,254.61029772500004,62.0,74.0
1019,254.13694810000004,254.61029772500004,62.0,107.0
1020,253.92260110000004,254.62458752500004,69.0,93.0
1021,254.56564210000002,254.94610802500003,64.0,107.0
1022,254.99433610000003,256.2804181,73.0,99.0
1023,254.13694810000004,256.42867477500005,66.0,76.0
1024,254.13694810000004,256.43939212500004,50.0,62.0
1025,254.13694810000004,256.47868907500003,57.0,86.0
1026,254.13694810000004,256.54120695000006,38.0,63.0
1027,256.2804181,256.68589117500005,64.0,99.0
1028,256.7091121,257.14495100000005,73.0,117.0
1029,257.13780610000003,257.60579705000004,74.0,97.0
1030,257.56650010000004,258.34172175000003,71.0,112.0
1031,257.99519410000005,258.44710902500003,64.0,99.0
1032,258.42388810000006,258.79899535000004,71.0,97.0
1033,258.8525821,259.32057305,64.0,96.0
1034,259.2812761,259.836792075,68.0,102.0
1035,259.7099701,260.111870725,64.0,100.0
1036,257.56650010000004,260.24047892500005,40.0,72.0
1037,257.56650010000004,260.658455575,59.0,74.0
1038,257.56650010000004,260.66024180000005,56.0,71.0
1039,257.56650010000004,260.7316908,52.0,79.0
1040,260.1386641,260.76741530000004,69.0,102.0
1041,260.99605210000004,261.37830425000004,69.0,107.0
1042,261.42474610000005,261.80521202500006,64.0,96.0
1043,261.42474610000005,262.04813862500004,45.0,45.0
1044,261.85344010000006,262.22140245,71.0,107.0
1045,261.85344010000006,262.49290865000006,61.0,102.0
1046,262.2821341,262.68582095000005,64.0,96.0
1047,261.85344010000006,262.7679873,57.0,96.0
1048,262.2821341,262.89302305,45.0,58.0
1049,262.7108281,263.06807310000005,69.0,99.0
1050,263.1395221,263.53963650000003,71.0,95.0
1051,263.1395221,263.60215437500005,57.0,88.0
1052,260.99605210000004,263.70932787500004,33.0,89.0
1053,262.7108281,263.970116725,52.0,93.0
1054,263.56821610000003,264.037993275,64.0,90.0
1055,263.56821610000003,264.48097707500006,61.0,127.0
1056,263.99691010000004,264.51134290000005,57.0,71.0
1057,263.99691010000004,264.613157725,71.0,100.0
1058,264.85429810000005,265.288350775,68.0,107.0
1059,264.85429810000005,265.52234625000006,47.0,63.0
1060,265.28299210000006,265.76348662500004,64.0,93.0
1061,265.28299210000006,266.188608175,52.0,86.0
1062,265.7116861,266.32436127500006,47.0,58.0
1063,265.7116861,266.520846025,68.0,107.0
1064,266.1403801,266.86915990000006,59.0,69.0
1065,266.1403801,266.94060890000003,56.0,70.0
1066,266.5690741,267.020989025,68.0,95.0
1067,266.5690741,267.238908475,47.0,59.0
1068,264.42560410000004,267.371089125,40.0,95.0
1069,266.99776810000003,267.48004885000006,69.0,95.0
1070,267.42646210000004,267.81943160000003,71.0,96.0
1071,267.42646210000004,267.83014895,56.0,79.0
1072,266.99776810000003,267.84801120000003,59.0,83.0
1073,268.28385010000005,268.8054278,64.0,92.0
1074,268.71254410000006,269.14481055000005,68.0,97.0
1075,268.28385010000005,269.26091517500004,50.0,71.0
1076,267.85515610000004,269.41095807500005,38.0,88.0
1077,269.1412381,269.65209845000004,64.0,90.0
1078,269.5699321,269.893238825,69.0,96.0
1079,268.71254410000006,270.28263587500004,66.0,99.0
1080,269.1412381,270.29156700000004,57.0,78.0
1081,268.71254410000006,270.31300170000003,62.0,95.0
1082,269.9986261,270.3915956,73.0,96.0
1083,269.5699321,270.75062682500004,38.0,69.0
1084,270.42732010000003,270.9060284,64.0,90.0
1085,270.85601410000004,271.28470810000005,57.0,53.0
1086,270.42732010000003,271.28470810000005,62.0,89.0
1087,270.42732010000003,271.28470810000005,66.0,97.0
1088,270.85601410000004,271.28470810000005,71.0,95.0
1089,271.33114995000005,272.436823225,59.0,83.0
1090,271.32579127500003,272.6065146,68.0,78.0
1091,271.32221882500005,272.63866665000006,64.0,89.0
1092,272.18317927500004,273.42460565000005,52.0,95.0
1093,271.797354675,273.908672625,47.0,65.0
1094,271.3275775,273.94796957500006,40.0,93.0
1095,273.08343667500003,273.96940427500004,64.0,88.0
1096,273.0852229,273.97476295,68.0,93.0
1097,272.5993697,274.0212048,59.0,77.0
1098,274.23912425000003,274.76248817500004,52.0,86.0
1099,274.691039175,275.45911592500005,57.0,85.0
1100,275.41803275,275.45911592500005,57.0,82.0
1101,275.491267975,282.35037197500003,40.0,69.0
1102,275.36087355,282.418248525,59.0,55.0
1103,275.30550057500005,282.63438175000005,61.0,66.0
1104,275.53413737500006,282.66117512500006,52.0,52.0
1105,275.48948175000004,282.76834862500004,45.0,70.0
1106,275.494840425,283.05235840000006,33.0,66.0
