,start,end,pitch,velocity
0,5.1206859,5.299565079166667,71.0,112.0
1,5.3793064,5.556030408333333,73.0,127.0
2,5.6379269,5.754306125,75.0,127.0
3,5.8965474,6.0021507708333335,75.0,122.0
4,6.1551679,6.2521505875,75.0,127.0
5,6.4137884000000005,6.499995233333333,75.0,127.0
6,6.672408900000001,6.8987018375,75.0,127.0
7,7.1896499,7.396546300000001,68.0,117.0
8,7.4482704,7.834045979166667,78.0,117.0
9,7.9655114000000005,8.077580283333333,78.0,127.0
10,8.2241319,8.428873129166668,78.0,122.0
11,8.4827524,8.685338458333334,80.0,112.0
12,8.7413729,9.040941645833334,76.0,117.0
13,9.2586139,9.450424104166666,76.0,117.0
14,9.5172344,9.702579091666667,78.0,99.0
15,9.7758549,9.874992758333335,73.0,127.0
16,10.0344754,10.124992575,73.0,112.0
17,10.2930959,10.385768245833333,73.0,102.0
18,10.5517164,10.659474941666668,73.0,112.0
19,10.810336900000001,11.04309535,73.0,127.0
20,11.3275779,11.446112295833334,66.0,117.0
21,11.5861984,11.956887783333334,76.0,122.0
22,12.103439400000001,12.2262841375,76.0,112.0
23,12.3620599,12.532318395833334,76.0,107.0
24,12.620680400000001,12.818956116666667,78.0,117.0
25,12.8793009,13.338352287500001,75.0,127.0
26,13.3965419,13.633610691666668,73.0,127.0
27,13.6551624,13.795248504166667,71.0,99.0
28,30.9827359,31.3965287,63.0,112.0
29,31.4999769,31.9719593125,71.0,107.0
30,32.0172179,32.34911420833333,71.0,117.0
31,32.2758384,32.49135548333334,73.0,112.0
32,32.7930794,32.99782062916667,70.0,127.0
33,33.0516999,33.3103204,68.0,78.0
34,33.3103204,34.09695775416667,66.0,95.0
35,34.3448024,34.601267729166665,59.0,96.0
36,34.6034229,34.72411246666667,68.0,102.0
37,34.862043400000005,34.97411228333333,68.0,107.0
38,35.120663900000004,35.22626727083333,68.0,107.0
39,35.3792844,35.521525675,68.0,127.0
40,35.6379049,35.765059979166665,68.0,127.0
41,35.8965254,36.088335604166666,68.0,117.0
42,36.1551459,36.400835375,66.0,112.0
43,36.4137664,36.637904166666665,68.0,100.0
44,36.6723869,37.11204175,66.0,97.0
45,37.189627900000005,38.1400582375,63.0,107.0
46,39.2585919,39.3685056125,61.0,100.0
47,39.5172124,39.6206606,61.0,97.0
48,39.775832900000005,40.124970575,61.0,102.0
49,40.2930739,40.59264264583334,63.0,107.0
50,40.8103149,40.90514241666667,66.0,112.0
51,41.0689354,41.28445248333333,66.0,102.0
52,41.3275559,41.5861764,68.0,117.0
53,41.5861764,42.25643452916667,66.0,112.0
54,42.362037900000004,42.44177922083333,66.0,117.0
55,42.6206584,42.7047100625,66.0,107.0
56,42.8792789,43.0667787625,68.0,127.0
57,43.1378994,43.359881995833334,66.0,117.0
58,43.3965199,43.51720946666667,68.0,112.0
59,43.6551404,43.82108855416667,68.0,127.0
60,43.9137609,44.038760808333336,68.0,122.0
61,44.1723814,44.310312333333336,68.0,112.0
62,44.4310019,44.620656933333336,71.0,96.0
63,44.689622400000005,44.8383291875,68.0,107.0
64,44.948242900000004,46.448241800000005,69.0,112.0
65,47.5344479,47.62712024583333,63.0,97.0
66,47.7930684,47.920223479166665,63.0,99.0
67,48.0516889,48.39005072083334,71.0,95.0
68,48.5689299,48.7693607875,71.0,100.0
69,48.8275504,49.04522265416667,73.0,112.0
70,49.0861709,49.1960846125,70.0,122.0
71,49.344791400000005,49.538756775,70.0,117.0
72,49.603411900000005,49.78229107916667,68.0,112.0
73,49.862032400000004,50.48487677083334,66.0,99.0
74,50.8965144,51.04306601666667,59.0,95.0
75,51.1551349,51.2650486125,68.0,107.0
76,51.4137554,51.512893258333335,68.0,122.0
77,51.6723759,51.765048245833334,68.0,117.0
78,51.930996400000005,52.023668745833334,68.0,102.0
79,52.189616900000004,52.2736685625,68.0,112.0
80,52.448237400000004,52.538754575,68.0,122.0
81,52.7068579,52.78013370833334,66.0,117.0
82,52.9654784,53.05168523333334,68.0,127.0
83,53.2240989,53.618495162500004,66.0,122.0
84,53.7413399,54.144356845833336,63.0,100.0
85,55.8103039,55.8943555625,61.0,112.0
86,56.0689244,56.17668294166667,61.0,100.0
87,56.3275449,56.7090101375,61.0,122.0
88,56.844785900000005,57.11202708333334,63.0,117.0
89,57.362026900000004,57.48056129583333,66.0,127.0
90,57.6206474,57.72625077083334,66.0,122.0
91,57.8792679,58.04306088333333,68.0,112.0
92,58.1378884,58.53443983333334,66.0,127.0
93,59.430990900000005,59.827542333333334,71.0,127.0
94,59.9482319,60.297369575000005,70.0,122.0
95,60.4654729,60.83185194166667,68.0,127.0
96,60.9827139,61.26719645,66.0,117.0
97,61.2413344,62.71547125,68.0,112.0
98,62.7930574,62.9546952125,68.0,117.0
99,63.0516779,63.245643275,71.0,102.0
100,63.3102984,63.484867237500005,68.0,127.0
101,63.5689189,63.95469447916667,73.0,122.0
102,64.0861599,64.42667689166667,73.0,127.0
103,64.6034009,64.95469374583334,73.0,127.0
104,64.8620214,65.11633155833334,75.0,122.0
105,65.3792624,66.77796827083334,73.0,127.0
106,66.9309854,67.18529555833334,71.0,100.0
107,67.1896059,67.5322780625,75.0,127.0
108,67.7068469,68.1141741875,75.0,127.0
109,68.2240879,68.60124279583333,73.0,127.0
110,68.7413289,69.14434584583334,71.0,112.0
111,68.9999494,69.28227677916666,70.0,112.0
112,69.2585699,69.5107248875,71.0,86.0
113,69.5171904,69.7952074375,70.0,100.0
114,69.7758109,70.78012050833334,68.0,112.0
115,71.0689134,71.26503394583334,68.0,96.0
116,71.3275339,71.51934410416666,71.0,100.0
117,71.5861544,71.82968870416667,68.0,122.0
118,71.8447749,72.17882637916667,73.0,117.0
119,72.3620159,72.72623977083333,73.0,127.0
120,72.8792569,73.09477398333334,73.0,127.0
121,73.13787740000001,73.47408405,75.0,127.0
122,74.6896004,74.82322099166667,76.0,102.0
123,73.6551184,75.02365187916666,73.0,127.0
124,74.94822090000001,75.15942764166667,76.0,90.0
125,75.2068414,75.48916877916668,78.0,127.0
126,75.7240824,76.01072012083334,73.0,117.0
127,76.2413234,78.24132193333334,75.0,127.0
128,79.0861489,79.6098554125,71.0,122.0
129,79.6033899,80.05597577500001,73.0,122.0
130,80.12063090000001,80.2434756375,75.0,127.0
131,80.3792514,80.495630625,75.0,102.0
132,80.63787190000001,80.75640629583333,75.0,127.0
133,80.8964924,81.0322681625,75.0,127.0
134,81.1551129,81.34476793333333,75.0,127.0
135,81.4137334,81.55381950416667,68.0,112.0
136,81.6723539,81.82968137083334,68.0,122.0
137,81.9309744,82.40295681250001,78.0,127.0
138,82.44821540000001,82.56674979583333,78.0,127.0
139,82.7068359,82.926663325,78.0,127.0
140,82.96545640000001,83.18312865416667,80.0,112.0
141,83.2240769,83.650800725,76.0,112.0
142,83.7413179,83.92666259166667,76.0,127.0
143,83.9999384,84.19390377500001,78.0,107.0
144,84.2585589,84.374938125,73.0,122.0
145,84.5171794,84.62493794166667,73.0,127.0
146,84.77579990000001,84.88355844166666,73.0,122.0
147,85.0344204,85.13355825833334,73.0,117.0
148,85.29304090000001,85.46545456666666,73.0,127.0
149,85.8102819,85.93743697916668,66.0,112.0
150,86.0689024,86.47407451666668,76.0,112.0
151,86.5861434,86.7089881375,76.0,97.0
152,86.8447639,87.03441893333334,76.0,102.0
153,87.10338440000001,87.33614285,78.0,112.0
154,87.3620049,87.71545291666666,75.0,122.0
155,88.3964869,88.50855578333334,71.0,100.0
156,88.6551074,88.76502111250001,71.0,95.0
157,88.9137279,89.02148644166667,71.0,97.0
158,89.1723484,89.28441728333334,71.0,100.0
159,89.43096890000001,89.8124341375,71.0,112.0
160,89.94820990000001,90.3426061625,75.0,127.0
161,90.46545090000001,90.68312315416667,75.0,127.0
162,90.7240714,90.85122647916667,73.0,122.0
163,90.9826919,91.09907112500001,73.0,122.0
164,91.2413124,91.8038119875,73.0,127.0
165,92.5344149,92.83613881666668,70.0,127.0
166,93.0516559,93.2262247375,71.0,99.0
167,93.3102764,93.64217270833333,73.0,117.0
168,93.8275174,94.49777552916667,76.0,127.0
169,94.60337890000001,95.87277452083333,75.0,127.0
170,96.1551019,96.33398107916668,71.0,112.0
171,96.4137224,96.59044640833334,73.0,127.0
172,96.6723429,96.788722125,75.0,127.0
173,96.93096340000001,97.03656677083333,75.0,122.0
174,97.1895839,97.2865665875,75.0,127.0
175,97.44820440000001,97.53441123333334,75.0,127.0
176,97.7068249,97.9331178375,75.0,127.0
177,98.2240659,98.4309623,68.0,117.0
178,98.4826864,98.86846197916667,78.0,117.0
179,98.9999274,99.11199628333334,78.0,127.0
180,99.25854790000001,99.46328912916667,78.0,122.0
181,99.5171684,99.71975445833334,80.0,112.0
182,99.77578890000001,100.07535764583334,76.0,117.0
183,100.29302990000001,100.48484010416666,76.0,117.0
184,100.5516504,100.73699509166667,78.0,99.0
185,100.8102709,100.90940875833334,73.0,127.0
186,101.0688914,101.159408575,73.0,112.0
187,101.3275119,101.42018424583334,73.0,102.0
188,101.58613240000001,101.69389094166667,73.0,112.0
189,101.8447529,102.07751135000001,73.0,127.0
190,102.3619939,102.48052829583334,66.0,117.0
191,102.62061440000001,102.99130378333334,76.0,122.0
192,103.1378554,103.26070013750001,76.0,112.0
193,103.3964759,103.56673439583334,76.0,107.0
194,103.6550964,103.85337211666668,78.0,117.0
195,103.9137169,104.37276828750001,75.0,127.0
196,104.43095790000001,104.66802669166667,73.0,127.0
197,104.6895784,104.82966450416667,71.0,99.0
198,104.94819890000001,105.15940564166667,73.0,127.0
199,105.2068194,105.32535379583334,71.0,96.0
200,105.4654399,105.56457775833334,71.0,99.0
201,105.7240604,106.09906012500001,71.0,112.0
202,106.2413014,106.60768044166667,75.0,117.0
203,106.75854240000001,107.05380080416667,75.0,127.0
204,107.0171629,107.28224891250001,76.0,83.0
205,107.27578340000001,107.56242112083333,75.0,102.0
206,107.5344039,108.28655852083334,73.0,117.0
207,108.3102654,108.44388599166668,70.0,122.0
208,108.5688859,108.72621337083334,70.0,122.0
209,108.8275064,109.04302348333334,71.0,100.0
210,109.08612690000001,109.383540475,73.0,127.0
211,109.60336790000001,109.771471225,75.0,117.0
212,109.8619884,110.19388470833334,70.0,127.0
213,110.3792294,110.68095331666667,71.0,100.0
214,110.857677325,111.31026320000001,70.0,122.0
215,111.4460389625,111.59043540833333,71.0,112.0
216,111.6012112625,111.7305215125,70.0,112.0
217,111.74129736666667,113.21543421666667,68.0,127.0
218,130.2930079,130.38568024583333,63.0,97.0
219,130.5516284,130.67878347916667,63.0,99.0
220,130.8102489,131.14861072083335,71.0,95.0
221,131.32748990000002,131.5279207875,71.0,100.0
222,131.5861104,131.80378265416667,73.0,112.0
223,131.8447309,131.9546446125,70.0,122.0
224,132.1033514,132.297316775,70.0,117.0
225,132.36197190000001,132.54085107916669,68.0,112.0
226,132.6205924,133.24343677083334,66.0,99.0
227,133.65507440000002,133.80162601666666,59.0,95.0
228,133.9136949,134.0236086125,68.0,107.0
229,134.1723154,134.27145325833334,68.0,122.0
230,134.4309359,134.52360824583334,68.0,117.0
231,134.68955640000001,134.78222874583335,68.0,102.0
232,134.9481769,135.0322285625,68.0,112.0
233,135.2067974,135.297314575,68.0,122.0
234,135.4654179,135.53869370833334,66.0,117.0
235,135.7240384,135.81024523333335,68.0,127.0
236,135.98265890000002,136.3770551625,66.0,122.0
237,136.4998999,136.90291684583335,63.0,100.0
238,138.5688639,138.6529155625,61.0,112.0
239,138.8274844,138.93524294166667,61.0,100.0
240,139.0861049,139.46757013750002,61.0,122.0
241,139.6033459,139.87058708333333,63.0,117.0
242,140.1205869,140.23912129583334,66.0,127.0
243,140.3792074,140.48481077083335,66.0,122.0
244,140.63782790000002,140.80162088333333,68.0,112.0
245,140.8964484,141.29299983333334,66.0,127.0
246,142.1895509,142.58610233333334,71.0,127.0
247,142.7067919,143.055929575,70.0,122.0
248,143.2240329,143.59041194166667,68.0,127.0
249,143.7412739,144.02575645000002,66.0,117.0
250,143.99989440000002,145.47403125,68.0,112.0
251,145.5516174,145.7132552125,68.0,117.0
252,145.8102379,146.004203275,71.0,102.0
253,146.0688584,146.24342723750001,68.0,127.0
254,146.32747890000002,146.71325447916666,73.0,122.0
255,146.8447199,147.18523689166668,73.0,127.0
256,147.3619609,147.71325374583333,73.0,127.0
257,147.6205814,147.87489155833333,75.0,122.0
258,148.1378224,149.53652827083334,73.0,127.0
259,149.68954540000001,149.94385555833333,71.0,100.0
260,149.9481659,150.2908380625,75.0,127.0
261,150.4654069,150.87273418750001,75.0,127.0
262,150.98264790000002,151.35980279583333,73.0,127.0
263,151.4998889,151.90290584583335,71.0,112.0
264,151.7585094,152.04083677916668,70.0,112.0
265,152.01712990000001,152.2692848875,71.0,86.0
266,152.2757504,152.5537674375,70.0,100.0
267,152.5343709,153.53868050833333,68.0,112.0
268,153.8274734,154.02359394583334,68.0,96.0
269,154.0860939,154.27790410416668,71.0,100.0
270,154.34471440000002,154.58824870416666,68.0,122.0
271,154.6033349,154.93738637916667,73.0,117.0
272,155.1205759,155.48479977083335,73.0,127.0
273,155.63781690000002,155.85333398333333,73.0,127.0
274,155.8964374,156.23264405,75.0,127.0
275,157.4481604,157.58178099166668,76.0,102.0
276,156.4136784,157.78221187916668,73.0,127.0
277,157.7067809,157.91798764166668,76.0,90.0
278,157.96540140000002,158.24772877916666,78.0,127.0
279,158.4826424,158.76928012083334,73.0,117.0
280,158.99988340000002,160.99988193333334,75.0,127.0
281,161.8447089,162.3684154125,71.0,122.0
282,162.3619499,162.814535775,73.0,122.0
283,162.8791909,163.0020356375,75.0,127.0
284,163.1378114,163.254190625,75.0,102.0
285,163.3964319,163.51496629583335,75.0,127.0
286,163.65505240000002,163.79082816250002,75.0,127.0
287,163.9136729,164.10332793333333,75.0,127.0
288,164.1722934,164.31237950416667,68.0,112.0
289,164.4309139,164.58824137083334,68.0,122.0
290,164.6895344,165.1615168125,78.0,127.0
291,165.2067754,165.32530979583333,78.0,127.0
292,165.4653959,165.685223325,78.0,127.0
293,165.7240164,165.94168865416668,80.0,112.0
294,165.98263690000002,166.409360725,76.0,112.0
295,166.4998779,166.68522259166667,76.0,127.0
296,166.7584984,166.952463775,78.0,107.0
297,167.0171189,167.13349812500002,73.0,122.0
298,167.27573940000002,167.38349794166666,73.0,127.0
299,167.5343599,167.64211844166667,73.0,122.0
300,167.7929804,167.89211825833334,73.0,117.0
301,168.0516009,168.22401456666668,73.0,127.0
302,168.5688419,168.69599697916667,66.0,112.0
303,168.8274624,169.23263451666668,76.0,112.0
304,169.34470340000001,169.46754813750002,76.0,97.0
305,169.60332390000002,169.79297893333333,76.0,102.0
306,169.8619444,170.09470285,78.0,112.0
307,170.1205649,170.47401291666668,75.0,122.0
308,171.1550469,171.26711578333334,71.0,100.0
309,171.4136674,171.5235811125,71.0,95.0
310,171.67228790000001,171.78004644166668,71.0,97.0
311,171.9309084,172.04297728333333,71.0,100.0
312,172.1895289,172.5709941375,71.0,112.0
313,172.7067699,173.1011661625,75.0,127.0
314,173.2240109,173.44168315416667,75.0,127.0
315,173.4826314,173.60978647916667,73.0,122.0
316,173.7412519,173.857631125,73.0,122.0
317,173.99987240000002,174.5623719875,73.0,127.0
318,175.29297490000002,175.59469881666666,70.0,127.0
319,175.8102159,175.9847847375,71.0,99.0
320,176.0688364,176.40073270833335,73.0,117.0
321,176.5860774,177.25633552916668,76.0,127.0
322,177.3619389,178.63133452083335,75.0,127.0
323,178.9136619,179.09254107916666,71.0,112.0
324,179.1722824,179.34900640833334,73.0,127.0
325,179.4309029,179.547282125,75.0,127.0
326,179.6895234,179.79512677083335,75.0,122.0
327,179.94814390000002,180.0451265875,75.0,127.0
328,180.2067644,180.29297123333333,75.0,127.0
329,180.4653849,180.6916778375,75.0,127.0
330,180.98262590000002,181.1895223,68.0,117.0
331,181.2412464,181.62702197916667,78.0,117.0
332,181.7584874,181.87055628333334,78.0,127.0
333,182.0171079,182.22184912916669,78.0,122.0
334,182.27572840000002,182.47831445833333,80.0,112.0
335,182.5343489,182.83391764583334,76.0,117.0
336,183.0515899,183.24340010416668,76.0,117.0
337,183.31021040000002,183.4955550916667,78.0,99.0
338,183.5688309,183.66796875833333,73.0,127.0
339,183.8274514,183.917968575,73.0,112.0
340,184.0860719,184.17874424583334,73.0,102.0
341,184.3446924,184.45245094166668,73.0,112.0
342,184.60331290000002,184.83607135,73.0,127.0
343,185.1205539,185.23908829583334,66.0,117.0
344,185.3791744,185.74986378333335,76.0,122.0
345,185.8964154,186.0192601375,76.0,112.0
346,186.1550359,186.32529439583334,76.0,107.0
347,186.4136564,186.61193211666668,78.0,117.0
348,186.6722769,187.1313282875,75.0,127.0
349,187.1895179,187.42658669166667,73.0,127.0
350,187.4481384,187.58822450416667,71.0,99.0
351,187.7067589,187.91796564166668,73.0,127.0
352,187.96537940000002,188.08391379583335,71.0,96.0
353,188.2239999,188.32313775833333,71.0,99.0
354,188.4826204,188.857620125,71.0,112.0
355,188.99986140000001,189.36624044166666,75.0,117.0
356,189.5171024,189.81236080416667,75.0,127.0
357,189.7757229,190.0408089125,76.0,83.0
358,190.0343434,190.32098112083335,75.0,102.0
359,190.29296390000002,191.04511852083334,73.0,117.0
360,191.0688254,191.20244599166668,70.0,122.0
361,191.32744590000001,191.48477337083335,70.0,122.0
362,191.58606640000002,191.80158348333333,71.0,100.0
363,191.8446869,192.142100475,73.0,127.0
364,192.3619279,192.53003122500002,75.0,117.0
365,192.62054840000002,192.95244470833333,70.0,127.0
366,193.1377894,193.43951331666668,71.0,100.0
367,193.61623732500001,194.0688232,70.0,122.0
368,194.2045989625,194.34899540833334,71.0,112.0
369,194.3597712625,194.4890815125,70.0,112.0
370,194.49985736666667,195.97399421666668,68.0,127.0
371,195.98261490000002,196.10545963750002,75.0,127.0
372,196.2412354,196.357614625,75.0,102.0
373,196.4998559,196.61839029583334,75.0,127.0
374,196.7584764,196.8942521625,75.0,127.0
375,197.0170969,197.20675193333335,75.0,127.0
376,197.27571740000002,197.41580350416666,68.0,112.0
377,197.5343379,197.69166537083333,68.0,122.0
378,197.7929584,198.26494081250001,78.0,127.0
379,198.31019940000002,198.42873379583335,78.0,127.0
380,198.5688199,198.788647325,78.0,127.0
381,198.8274404,199.04511265416667,80.0,112.0
382,199.0860609,199.51278472500002,76.0,112.0
383,199.60330190000002,199.78864659166666,76.0,127.0
384,199.8619224,200.055887775,78.0,107.0
385,200.1205429,200.236922125,73.0,122.0
386,200.3791634,200.48692194166668,73.0,127.0
387,200.63778390000002,200.7455424416667,73.0,122.0
388,200.8964044,200.99554225833333,73.0,117.0
389,201.1550249,201.32743856666667,73.0,127.0
390,201.6722659,201.79942097916668,66.0,112.0
391,201.93088640000002,202.33605851666667,76.0,112.0
392,202.4481274,202.5709721375,76.0,97.0
393,202.7067479,202.89640293333335,76.0,102.0
394,202.96536840000002,203.19812685,78.0,112.0
395,203.2239889,203.57743691666667,75.0,122.0
396,204.25847090000002,204.37053978333333,71.0,100.0
397,204.5170914,204.6270051125,71.0,95.0
398,204.7757119,204.88347044166667,71.0,97.0
399,205.0343324,205.14640128333335,71.0,100.0
400,205.29295290000002,205.6744181375,71.0,112.0
401,205.8101939,206.2045901625,75.0,127.0
402,206.32743490000001,206.5451071541667,75.0,127.0
403,206.58605540000002,206.71321047916666,73.0,122.0
404,206.8446759,206.961055125,73.0,122.0
405,207.1032964,207.66579598750002,73.0,127.0
406,208.3963989,208.69812281666668,70.0,127.0
407,208.91363990000002,209.0882087375,71.0,99.0
408,209.1722604,209.50415670833334,73.0,117.0
409,209.6895014,210.35975952916667,76.0,127.0
410,210.4653629,211.73475852083334,75.0,127.0
411,212.0170859,212.19596507916668,71.0,112.0
412,212.27570640000002,212.45243040833333,73.0,127.0
413,212.5343269,212.650706125,75.0,127.0
414,212.7929474,212.89855077083334,75.0,122.0
415,213.0515679,213.1485505875,75.0,127.0
416,213.31018840000002,213.39639523333335,75.0,127.0
417,213.56880890000002,213.7951018375,75.0,127.0
418,214.0860499,214.2929463,68.0,117.0
419,214.3446704,214.7304459791667,78.0,117.0
420,214.8619114,214.97398028333333,78.0,127.0
421,215.1205319,215.32527312916667,78.0,122.0
422,215.3791524,215.58173845833335,80.0,112.0
423,215.63777290000002,215.93734164583333,76.0,117.0
424,216.1550139,216.34682410416667,76.0,117.0
425,216.4136344,216.59897909166668,78.0,99.0
426,216.6722549,216.77139275833335,73.0,127.0
427,216.93087540000002,217.02139257500002,73.0,112.0
428,217.1894959,217.28216824583333,73.0,102.0
429,217.4481164,217.55587494166667,73.0,112.0
430,217.7067369,217.93949535000002,73.0,127.0
431,218.22397790000002,218.34251229583333,66.0,117.0
432,218.4825984,218.85328778333334,76.0,122.0
433,218.9998394,219.12268413750002,76.0,112.0
434,219.25845990000002,219.42871839583333,76.0,107.0
435,219.5170804,219.71535611666667,78.0,117.0
436,219.7757009,220.23475228750002,75.0,127.0
437,220.29294190000002,220.5300106916667,73.0,127.0
438,220.5515624,220.69164850416666,71.0,99.0
439,220.8101829,221.02138964166667,73.0,127.0
440,221.0688034,221.18733779583334,71.0,96.0
441,221.3274239,221.42656175833335,71.0,99.0
442,221.58604440000002,221.961044125,71.0,112.0
443,222.1032854,222.46966444166668,75.0,117.0
444,222.62052640000002,222.91578480416666,75.0,127.0
445,222.8791469,223.1442329125,76.0,83.0
446,223.1377674,223.42440512083334,75.0,102.0
447,223.3963879,223.91362890000002,73.0,117.0
448,223.6550084,223.91362890000002,73.0,127.0
449,224.94811090000002,225.33604165,70.0,127.0
450,225.4653519,225.6722483,71.0,107.0
451,225.7239724,226.05155836666668,73.0,127.0
452,226.24121340000002,226.9136267,76.0,127.0
453,227.0170749,228.43517730833335,75.0,127.0
454,228.56879790000002,228.74767707916666,71.0,112.0
455,228.8274184,229.00414240833334,73.0,127.0
456,229.0860389,229.202418125,75.0,127.0
457,229.3446594,229.45026277083335,75.0,122.0
458,229.60327990000002,229.70026258750002,75.0,127.0
459,229.8619004,229.94810723333333,75.0,127.0
460,230.1205209,230.3468138375,75.0,127.0
461,230.63776190000002,230.84465830000002,68.0,117.0
462,230.89638240000002,231.28215797916667,78.0,117.0
463,231.4136234,231.52569228333334,78.0,127.0
464,231.6722439,231.87698512916668,78.0,122.0
465,231.93086440000002,232.13345045833333,80.0,112.0
466,232.1894849,232.48905364583334,76.0,117.0
467,232.7067259,232.89853610416668,76.0,117.0
468,232.96534640000002,233.1506910916667,78.0,99.0
469,233.22396690000002,233.32310475833333,73.0,127.0
470,233.4825874,233.573104575,73.0,112.0
471,233.7412079,233.83388024583334,73.0,102.0
472,233.9998284,234.10758694166668,73.0,112.0
473,234.25844890000002,234.49120735,73.0,127.0
474,234.7756899,234.89422429583334,66.0,117.0
475,235.0343104,235.40499978333335,76.0,122.0
476,235.55155140000002,235.6743961375,76.0,112.0
477,235.8101719,235.98043039583334,76.0,107.0
478,236.0687924,236.26706811666668,78.0,117.0
479,236.3274129,236.7864642875,75.0,127.0
480,236.8446539,237.08172269166667,73.0,127.0
481,237.1032744,237.24336050416667,71.0,99.0
482,237.3618949,237.57310164166668,73.0,127.0
483,237.62051540000002,237.73904979583335,71.0,96.0
484,237.87913590000002,237.97827375833333,71.0,99.0
485,238.1377564,238.512756125,71.0,112.0
486,238.6549974,239.0213764416667,75.0,117.0
487,239.1722384,239.46749680416667,75.0,127.0
488,239.4308589,239.6959449125,76.0,83.0
489,239.6894794,239.97611712083335,75.0,102.0
490,239.93085853333335,242.01490872916668,73.0,127.0
491,242.7929254,242.90499428333334,70.0,112.0
492,243.0515459,243.21102854166668,70.0,122.0
493,243.3101664,243.46749387083335,71.0,95.0
494,243.56878690000002,244.01921760416667,73.0,127.0
495,244.0860279,244.2347346875,75.0,127.0
496,244.3446484,244.9200790125,70.0,122.0
497,245.1205099,245.70456119583335,71.0,99.0
498,245.64206124166668,245.9330093041667,70.0,117.0
499,245.90283691250002,246.17654360833333,71.0,79.0
500,246.14421604583333,246.42223308333334,70.0,117.0
501,246.38990552083334,246.5752502125,71.0,82.0
502,246.5364571375,246.70240529166668,70.0,107.0
503,246.68085358333335,249.56662732916666,68.0,112.0
