,start,end,pitch,velocity
0,2.5344809,4.288789958333333,56.0,63.0
1,2.5344809,4.349134741666667,44.0,61.0
2,2.5344809,4.353445083333334,68.0,74.0
3,2.5344809,4.355600254166667,32.0,62.0
4,4.6034449,5.883616375,68.0,39.0
5,4.6034449,5.9030129125,56.0,34.0
6,4.6034449,5.905168083333334,63.0,44.0
7,4.6034449,5.948271500000001,59.0,38.0
8,4.6034449,6.0064611125,44.0,44.0
9,6.672408900000001,7.834045979166667,64.0,44.0
10,6.672408900000001,7.8448218333333335,61.0,56.0
11,6.672408900000001,7.849132175,49.0,47.0
12,6.672408900000001,7.943959691666667,56.0,40.0
13,8.7413729,9.8986996375,54.0,41.0
14,8.7413729,9.9116306625,58.0,58.0
15,8.7413729,9.954734079166666,61.0,50.0
16,8.7413729,9.974130616666667,42.0,56.0
17,10.810336900000001,13.706886500000001,47.0,35.0
18,10.810336900000001,13.7909381625,63.0,45.0
19,10.810336900000001,13.812489870833334,66.0,50.0
20,10.810336900000001,13.8168002125,59.0,42.0
21,14.431023900000001,15.064644125000001,56.0,71.0
22,14.1724034,15.290937062500001,51.0,62.0
23,13.913782900000001,15.327574966666667,44.0,75.0
24,15.2068854,15.3297301375,56.0,41.0
25,14.6896444,15.390074920833333,59.0,66.0
26,14.9482649,15.95688485,68.0,100.0
27,16.7586084,17.271539058333335,61.0,53.0
28,16.2413674,17.418090675000002,44.0,53.0
29,15.9827469,17.42240101666667,37.0,86.0
30,16.4999879,17.55817677916667,49.0,58.0
31,17.5344699,17.969814408333335,64.0,53.0
32,17.0172289,17.989210945833335,68.0,99.0
33,18.568951900000002,19.254296225,54.0,56.0
34,18.3103314,19.4159340375,49.0,61.0
35,18.0517109,19.454727112500002,42.0,61.0
36,18.8275724,19.967657770833334,58.0,71.0
37,19.0861929,20.133605925,66.0,78.0
38,19.8620544,20.178864512500002,61.0,66.0
39,20.6379159,21.056019041666666,59.0,86.0
40,20.3792954,21.2780016375,54.0,96.0
41,21.4137774,21.487053208333336,54.0,102.0
42,20.1206749,21.4978290625,47.0,65.0
43,21.1551569,21.7435185375,63.0,127.0
44,20.896536400000002,21.825415029166667,66.0,117.0
45,21.6723979,22.394380129166667,59.0,100.0
46,22.9655004,23.185327825,59.0,93.0
47,22.7068799,23.3211035875,52.0,92.0
48,23.482741400000002,23.5667930625,52.0,85.0
49,22.189638900000002,23.581879258333334,40.0,97.0
50,22.4482594,23.601275795833335,47.0,89.0
51,23.224120900000003,24.1228271375,64.0,97.0
52,23.224120900000003,24.144378845833334,68.0,117.0
53,23.7413619,24.306016658333334,59.0,96.0
54,25.0344644,25.282309045833333,56.0,88.0
55,25.2930849,25.370671050000002,56.0,35.0
56,24.7758439,25.471964079166668,49.0,99.0
57,24.2586029,26.120670500000003,37.0,82.0
58,25.5517054,26.129291183333333,49.0,96.0
59,24.517223400000002,26.196101479166668,44.0,76.0
60,25.2930849,26.24782557916667,61.0,97.0
61,25.2930849,26.262911775000003,64.0,99.0
62,25.810325900000002,26.271532458333333,56.0,96.0
63,26.8448079,27.476272954166667,56.0,93.0
64,27.103428400000002,27.7952382375,59.0,75.0
65,27.6206694,28.0150656625,56.0,82.0
66,26.3275669,28.038772541666667,44.0,82.0
67,26.5861874,28.056013908333334,51.0,60.0
68,27.3620489,28.181013816666667,68.0,112.0
69,27.8792899,28.198255183333334,63.0,102.0
70,28.396530900000002,30.29523640416667,44.0,60.0
71,28.396530900000002,30.316788112500003,68.0,79.0
72,28.396530900000002,30.346960504166667,56.0,66.0
73,28.396530900000002,30.3814432375,51.0,63.0
74,28.137910400000003,30.433167337500002,59.0,77.0
75,28.396530900000002,30.439632850000002,63.0,76.0
76,30.9827359,31.6228216375,56.0,67.0
77,30.724115400000002,31.827562866666668,51.0,58.0
78,30.4654949,31.93963175,44.0,92.0
79,31.4999769,32.495665825,68.0,96.0
80,31.2413564,32.53014855833334,59.0,58.0
81,33.0516999,33.8275614,54.0,59.0
82,32.7930794,33.87713032916667,49.0,35.0
83,32.534458900000004,33.97842335833334,42.0,81.0
84,33.3103204,34.58187119166667,61.0,83.0
85,34.3448024,34.6357504625,58.0,61.0
86,34.6034229,36.15299072916667,40.0,65.0
87,35.120663900000004,36.241352733333336,47.0,63.0
88,36.1551459,36.6141972875,56.0,99.0
89,35.6379049,36.64652485,59.0,92.0
90,37.189627900000005,37.874972225,54.0,72.0
91,36.6723869,38.05816174583334,47.0,82.0
92,37.9654894,38.0689376,54.0,79.0
93,37.7068689,38.72410953333333,66.0,122.0
94,38.2241099,38.7478164125,63.0,59.0
95,38.7413509,40.318935950000004,37.0,63.0
96,39.2585919,40.36850487916667,44.0,34.0
97,39.775832900000005,40.413763466666666,49.0,42.0
98,40.2930739,40.8297114375,52.0,67.0
99,39.775832900000005,40.87928036666667,56.0,99.0
100,41.3275559,41.94608992916667,51.0,89.0
101,40.8103149,42.368503412500004,39.0,73.0
102,42.362037900000004,42.7564341625,51.0,70.0
103,41.8447969,42.83186514166667,54.0,78.0
104,42.8792789,44.2822951125,40.0,78.0
105,43.9137609,44.329708870833336,52.0,57.0
106,43.3965199,44.392208825000004,47.0,58.0
107,43.9137609,45.023673879166665,64.0,70.0
108,44.4310019,45.02798422083333,56.0,64.0
109,45.4654839,46.12065583333334,51.0,89.0
110,44.948242900000004,46.39867287083334,39.0,88.0
111,46.2413454,46.491345216666666,51.0,102.0
112,45.9827249,47.02582758333334,58.0,102.0
113,46.4999659,47.05815514583333,55.0,92.0
114,45.9827249,47.07108617083333,63.0,117.0
115,47.5344479,48.2391887625,56.0,89.0
116,48.3103094,48.49134375,56.0,70.0
117,47.017206900000005,48.581860925,44.0,96.0
118,48.0516889,49.11203295,68.0,102.0
119,48.5689299,49.137895,59.0,90.0
120,48.0516889,49.14867085416667,63.0,90.0
121,49.603411900000005,50.4245319875,49.0,48.0
122,50.1206529,50.43530784166667,54.0,56.0
123,49.0861709,50.53013535833333,42.0,92.0
124,50.1206529,51.183152120833334,61.0,90.0
125,50.1206529,51.2003934875,66.0,90.0
126,50.6378939,51.22410036666667,58.0,86.0
127,51.1551349,52.60772004166667,40.0,86.0
128,51.6723759,52.683151020833336,47.0,62.0
129,52.189616900000004,52.80815092916667,52.0,75.0
130,52.189616900000004,53.245650608333335,64.0,82.0
131,52.189616900000004,53.277978170833336,68.0,88.0
132,52.7068579,53.39651256666667,59.0,76.0
133,53.7413399,54.400822175,54.0,92.0
134,54.517201400000005,54.6400461375,54.0,97.0
135,53.2240989,54.655132333333334,47.0,89.0
136,54.775821900000004,55.33401114583334,63.0,99.0
137,54.258580900000005,55.33616631666667,66.0,117.0
138,55.0344424,55.35987319583334,59.0,89.0
139,55.2930629,56.93961341666667,37.0,71.0
140,55.8103039,56.950389270833334,44.0,37.0
141,56.3275449,57.06030298333334,49.0,65.0
142,56.3275449,57.293061433333335,61.0,63.0
143,56.844785900000005,57.297371775,56.0,75.0
144,56.3275449,57.312457970833336,64.0,73.0
145,58.3965089,58.56245705416667,58.0,72.0
146,58.3965089,58.810301700000004,51.0,66.0
147,57.362026900000004,58.81245687083334,39.0,77.0
148,57.8792679,58.842629262500004,46.0,53.0
149,58.9137499,59.146508350000005,58.0,46.0
150,58.3965089,59.2046979625,63.0,88.0
151,59.430990900000005,59.805990625,40.0,85.0
152,59.430990900000005,59.827542333333334,64.0,95.0
153,59.430990900000005,59.82969750416667,68.0,96.0
154,59.430990900000005,59.8900422875,59.0,89.0
155,60.4654729,61.010731120833334,54.0,93.0
156,60.4654729,61.03228282916667,58.0,95.0
157,60.4654729,61.036593170833335,42.0,96.0
158,60.4654729,61.05814487916667,61.0,82.0
159,62.7930574,63.0969364875,56.0,96.0
160,62.017195900000004,63.112022683333336,51.0,52.0
161,61.499954900000006,63.18960883333334,44.0,93.0
162,63.0516779,63.54521202083333,63.0,127.0
163,62.5344369,63.5624533875,68.0,112.0
164,63.3102984,63.5753844125,59.0,100.0
165,64.0861599,64.72193529583333,49.0,88.0
166,64.6034009,64.78443525,56.0,100.0
167,63.5689189,65.03659023750001,37.0,92.0
168,64.8620214,65.17452117083333,49.0,78.0
169,64.6034009,66.17236526666667,61.0,107.0
170,64.6034009,66.20900317083334,64.0,102.0
171,65.12064190000001,66.21762385416667,56.0,112.0
172,66.4137444,66.49564089166667,56.0,27.0
173,66.1551239,66.76719241666667,49.0,49.0
174,65.63788290000001,67.00857155,37.0,112.0
175,66.9309854,67.12926111666667,49.0,95.0
176,67.1896059,67.70900207083334,56.0,99.0
177,66.6723649,67.70900207083334,61.0,122.0
178,66.6723649,67.7391744625,64.0,99.0
179,68.2240879,69.18098375,46.0,34.0
180,67.7068469,69.2133113125,39.0,99.0
181,69.2585699,69.77150055833333,54.0,88.0
182,68.7413289,69.77796607083333,58.0,92.0
183,68.7413289,69.78443158333333,63.0,99.0
184,70.29305190000001,70.90081007500001,51.0,88.0
185,71.0689134,71.314602875,51.0,86.0
186,69.7758109,71.3598614625,44.0,97.0
187,71.3275339,71.62063713333333,59.0,81.0
188,71.5861544,71.88572314583334,56.0,107.0
189,70.81029290000001,71.9482231,63.0,112.0
190,71.8447749,73.77149762500001,37.0,92.0
191,73.6551184,73.85985962916666,52.0,69.0
192,72.3620159,73.88787685,44.0,60.0
193,72.8792569,73.94822163333333,49.0,55.0
194,73.3964979,74.02149744166667,56.0,88.0
195,72.8792569,74.07753188333334,61.0,90.0
196,74.4309799,75.09477251666667,49.0,93.0
197,73.9137389,75.34692750416667,37.0,92.0
198,75.2068414,75.39218609166667,49.0,83.0
199,74.94822090000001,75.47192741250001,61.0,127.0
200,75.46546190000001,75.53658253750001,56.0,107.0
201,75.9827029,76.61847829583334,58.0,102.0
202,75.9827029,76.73054717916666,55.0,92.0
203,77.0171849,77.56244312083334,58.0,127.0
204,76.4999439,77.65511546666667,46.0,39.0
205,77.0171849,77.66589132083334,63.0,127.0
206,75.9827029,77.70037405416667,39.0,99.0
207,77.27580540000001,77.78011537500001,51.0,107.0
208,77.5344259,77.909425625,55.0,117.0
209,77.79304640000001,77.97623592083333,58.0,112.0
210,78.0516669,78.2003736875,46.0,90.0
211,78.0516669,78.20252885833334,51.0,89.0
212,78.0516669,78.2133047125,39.0,66.0
213,78.0516669,78.21545988333334,67.0,83.0
214,78.0516669,78.22839090833334,63.0,96.0
215,78.0516669,78.23054607916667,58.0,107.0
216,78.3102874,78.50209760416666,46.0,97.0
217,78.3102874,78.53873550833333,51.0,102.0
218,78.3102874,78.5495113625,58.0,112.0
219,78.3102874,78.555976875,63.0,107.0
220,78.3102874,78.56459755833333,67.0,95.0
221,78.3102874,78.56675272916667,39.0,72.0
222,80.63787190000001,81.25856110000001,56.0,107.0
223,80.8964924,81.42450925416667,59.0,92.0
224,81.4137334,81.79735380833334,56.0,102.0
225,80.3792514,81.9115778625,51.0,88.0
226,80.12063090000001,82.03657777083333,44.0,96.0
227,81.6723539,82.14864665416667,63.0,127.0
228,81.9309744,82.17450870416667,59.0,107.0
229,81.1551129,82.1895949,68.0,127.0
230,82.7068359,83.3857147125,49.0,100.0
231,82.96545640000001,83.51286979166667,52.0,96.0
232,82.44821540000001,83.53226632916667,44.0,33.0
233,82.1895949,83.58183525833334,37.0,93.0
234,83.4826974,83.71761102083333,49.0,107.0
235,83.2240769,84.23054167916666,61.0,122.0
236,83.9999384,84.2520933875,52.0,97.0
237,83.7413179,84.271489925,56.0,99.0
238,84.77579990000001,85.40079944166666,54.0,96.0
239,85.0344204,85.41157529583333,58.0,88.0
240,84.2585589,85.668040625,42.0,86.0
241,84.5171794,85.668040625,49.0,72.0
242,85.5516614,85.76717848333334,54.0,97.0
243,85.29304090000001,86.24131606666667,66.0,127.0
244,85.8102819,86.2822643125,61.0,117.0
245,86.0689024,86.30166085,58.0,99.0
246,87.10338440000001,87.39002212083334,63.0,117.0
247,86.8447639,87.45683241666667,59.0,95.0
248,86.5861434,87.46760827083334,54.0,107.0
249,86.3275229,87.73269428333333,47.0,78.0
250,87.62062540000001,87.74131496666666,54.0,83.0
251,87.3620049,88.3253662625,66.0,122.0
252,87.8792459,88.35553865416666,63.0,117.0
253,88.13786640000001,88.98269336666667,59.0,97.0
254,88.9137279,89.55596880833333,52.0,97.0
255,89.1723484,89.64002047083333,59.0,90.0
256,88.3964869,89.81458930833334,40.0,97.0
257,88.6551074,89.81674447916667,47.0,99.0
258,89.6895894,89.82105482083334,52.0,93.0
259,89.94820990000001,90.46545090000001,64.0,96.0
260,90.2068304,90.47191641250001,59.0,100.0
261,89.43096890000001,90.48269226666667,68.0,127.0
262,90.9826919,91.57320870833334,49.0,88.0
263,90.46545090000001,91.8296740375,37.0,83.0
264,90.7240714,91.83829472083333,44.0,86.0
265,91.7585534,91.90294984583333,49.0,90.0
266,91.2413124,91.90510501666667,52.0,85.0
267,92.0171739,92.4309667,56.0,107.0
268,92.27579440000001,92.44605289583333,52.0,96.0
269,91.4999329,92.44820806666667,61.0,107.0
270,93.0516559,93.685276125,52.0,122.0
271,93.3102764,93.737000225,59.0,89.0
272,92.5344149,93.89001735416667,40.0,95.0
273,92.79303540000001,93.91587940416667,47.0,78.0
274,93.8275174,93.98915521250001,52.0,112.0
275,94.3447584,94.60337890000001,59.0,112.0
276,94.0861379,94.60337890000001,64.0,112.0
277,93.5688969,94.60337890000001,68.0,127.0
278,95.12061990000001,95.77148149166668,51.0,112.0
279,95.3792404,95.94389515833333,55.0,99.0
280,94.8619994,95.961136525,46.0,55.0
281,94.60337890000001,95.97622272083333,39.0,97.0
282,95.8964814,96.1227743375,51.0,112.0
283,96.1551019,96.56673952916667,58.0,122.0
284,95.6378609,96.607687775,63.0,127.0
285,96.4137224,96.65079119166667,55.0,107.0
286,97.1895839,97.80165241666667,56.0,99.0
287,97.44820440000001,97.97622125416667,59.0,97.0
288,97.96544540000001,98.03441086666668,56.0,99.0
289,96.6723429,98.07966945416668,44.0,88.0
290,96.93096340000001,98.08397979583334,51.0,73.0
291,97.7068249,98.64863455416668,68.0,127.0
292,98.2240659,98.70466899583333,63.0,122.0
293,98.4826864,98.74992758333333,59.0,112.0
294,99.25854790000001,99.86199573333333,49.0,93.0
295,99.5171684,100.0861335,52.0,95.0
296,98.9999274,100.1572541375,44.0,61.0
297,98.7413069,100.2089782375,37.0,81.0
298,100.0344094,100.39001258750001,49.0,97.0
299,99.77578890000001,100.771477825,61.0,127.0
300,100.29302990000001,100.79518470416667,56.0,117.0
301,100.5516504,100.79949504583334,52.0,100.0
302,101.58613240000001,101.91156319583334,58.0,100.0
303,101.3275119,101.96544246666667,54.0,102.0
304,100.8102709,102.23699399166667,42.0,97.0
305,101.0688914,102.26716638333333,49.0,78.0
306,101.8447529,102.26716638333333,61.0,127.0
307,102.10337340000001,102.38785595,54.0,102.0
308,102.62061440000001,102.8727693875,58.0,97.0
309,102.3619939,102.918027975,66.0,117.0
310,103.3964759,103.89216519166668,59.0,85.0
311,103.6550964,103.96328582916667,63.0,117.0
312,103.1378554,104.08397539583333,54.0,102.0
313,104.1723374,104.30164765,54.0,95.0
314,102.8792349,104.34690623750001,47.0,83.0
315,103.9137169,104.77794040416667,66.0,122.0
316,104.43095790000001,104.78225074583334,63.0,122.0
317,104.6895784,105.46328472916667,59.0,97.0
318,105.4654399,106.14216354166668,52.0,102.0
319,105.7240604,106.16156007916668,59.0,89.0
320,106.2413014,106.3382840875,52.0,96.0
321,104.94819890000001,106.3641461375,40.0,89.0
322,105.2068194,106.37492199166667,47.0,69.0
323,105.9826809,106.95466294583333,68.0,127.0
324,106.4999219,106.96759397083333,64.0,90.0
325,106.75854240000001,107.03871460833334,59.0,102.0
326,107.79302440000001,108.142162075,56.0,88.0
327,107.5344039,108.168024125,49.0,93.0
328,107.27578340000001,108.48267906666668,44.0,47.0
329,107.0171629,108.48483423750001,37.0,89.0
330,108.3102654,108.52362731250001,49.0,99.0
331,108.0516449,108.6141444875,61.0,82.0
332,108.5688859,108.9374201125,56.0,107.0
333,108.8275064,109.06888553333334,61.0,100.0
334,108.0516449,109.07966138750001,64.0,100.0
335,109.60336790000001,110.23267778333334,51.0,102.0
336,109.3447474,110.38785008333333,46.0,64.0
337,109.08612690000001,110.3986259375,39.0,99.0
338,109.8619884,110.43526384166667,55.0,89.0
339,110.3792294,110.60121199583334,51.0,97.0
340,110.6378499,111.11414265416667,58.0,117.0
341,110.8964704,111.11845299583334,55.0,89.0
342,110.12060890000001,111.12922885,63.0,127.0
343,111.6723319,112.36845207916667,56.0,81.0
344,111.41371140000001,112.60767604166666,51.0,65.0
345,112.44819340000001,112.63784843333333,56.0,50.0
346,111.1550909,112.7391414625,44.0,82.0
347,111.93095240000001,113.25422729166667,59.0,74.0
348,112.1895729,113.26069280416667,68.0,117.0
349,112.7068139,113.26715831666667,63.0,83.0
350,113.74129590000001,114.34043339166666,56.0,95.0
351,113.4826754,114.555950475,51.0,27.0
352,114.5171574,114.60336423333334,56.0,92.0
353,113.2240549,114.66370901666667,44.0,96.0
354,114.25853690000001,114.84043302500001,63.0,127.0
355,113.9999164,115.28439821666667,68.0,127.0
356,115.0343984,115.28870855833334,63.0,112.0
357,114.77577790000001,115.31241543750001,59.0,82.0
358,115.8102599,116.45465597916667,49.0,77.0
359,115.2930189,116.84043155833334,37.0,74.0
360,115.5516394,116.87060395,44.0,97.0
361,116.58612140000001,116.9934486875,49.0,89.0
362,116.8447419,117.29948294583333,56.0,112.0
363,117.10336240000001,117.323189825,52.0,90.0
364,116.0688804,117.38353460833333,61.0,112.0
365,118.1378444,118.45249934166667,58.0,68.0
366,117.8792239,118.51499929583333,54.0,90.0
367,117.3619829,118.75422325833334,42.0,82.0
368,117.62060340000001,118.76715428333334,49.0,58.0
369,118.6550854,118.87491282500001,54.0,92.0
370,118.3964649,118.95034380416668,61.0,107.0
371,118.91370590000001,119.28008494166667,58.0,82.0
372,118.3964649,119.46758480416668,66.0,100.0
373,119.1723264,119.47189514583334,61.0,93.0
374,119.6895674,120.10336020000001,54.0,95.0
375,119.94818790000001,120.53223919583334,59.0,68.0
376,120.2068084,120.62275637083334,54.0,72.0
377,119.43094690000001,120.84904930833333,47.0,72.0
378,120.7240494,120.8598251625,54.0,93.0
379,120.4654289,121.51715226666667,66.0,76.0
380,120.4654289,121.53008329166667,63.0,82.0
381,120.9826699,121.80378998750001,59.0,89.0
382,122.27577240000001,122.62059973333334,59.0,83.0
383,122.0171519,122.6701686625,52.0,85.0
384,122.7930134,122.87490989166668,52.0,83.0
385,121.4999109,122.88999608750001,40.0,85.0
386,121.75853140000001,122.89430642916668,47.0,77.0
387,122.5343929,123.14646141666667,64.0,85.0
388,122.5343929,123.58180592500001,68.0,96.0
389,123.3102544,123.60335763333333,64.0,96.0
390,123.0516339,123.64861622083333,59.0,92.0
391,124.3447364,124.69171890416668,52.0,69.0
392,124.08611590000001,124.71327061250001,49.0,95.0
393,123.8274954,124.9848221375,44.0,63.0
394,123.56887490000001,125.15508063333334,37.0,81.0
395,124.60335690000001,125.19387370833334,56.0,90.0
396,124.8619774,125.25206332083334,49.0,89.0
397,125.1205979,125.48697694166667,52.0,90.0
398,125.3792184,125.59473548333334,56.0,102.0
399,124.60335690000001,125.59689065416667,61.0,100.0
400,126.41370040000001,126.7563725625,55.0,72.0
401,126.1550799,126.788700125,51.0,97.0
402,125.6378389,127.01068272083334,39.0,90.0
403,125.89645940000001,127.01930340416668,46.0,32.0
404,126.93094140000001,127.18094121666667,51.0,92.0
405,126.6723209,127.693871875,58.0,97.0
406,127.1895619,127.69602704583333,55.0,86.0
407,126.6723209,127.72835460833333,63.0,97.0
408,127.9654234,129.85766339166668,51.0,39.0
409,128.2240439,129.85766339166668,56.0,88.0
410,129.2585259,129.892146125,63.0,83.0
411,128.7412849,129.9115426625,68.0,100.0
412,127.7068029,129.93524954166668,44.0,72.0
413,129.7757669,129.93524954166668,44.0,96.0
414,128.4826644,129.93955988333335,59.0,67.0
415,130.2930079,130.9977487625,56.0,89.0
416,131.0688694,131.24990375000002,56.0,70.0
417,130.8102489,131.87059295,68.0,102.0
418,131.32748990000002,131.896455,59.0,90.0
419,130.8102489,131.90723085416667,63.0,90.0
420,132.36197190000001,133.1830919875,49.0,48.0
421,132.8792129,133.19386784166667,54.0,56.0
422,131.8447309,133.28869535833334,42.0,92.0
423,132.8792129,133.94171212083333,61.0,90.0
424,132.8792129,133.9589534875,66.0,90.0
425,133.3964539,133.98266036666666,58.0,86.0
426,133.9136949,135.36628004166667,40.0,86.0
427,134.4309359,135.44171102083334,47.0,62.0
428,134.9481769,135.56671092916667,52.0,75.0
429,134.9481769,136.00421060833335,64.0,82.0
430,134.9481769,136.03653817083332,68.0,88.0
431,135.4654179,136.15507256666666,59.0,76.0
432,136.4998999,137.15938217500002,54.0,92.0
433,137.2757614,137.3986061375,54.0,97.0
434,135.98265890000002,137.41369233333333,47.0,89.0
435,137.5343819,138.09257114583335,63.0,99.0
436,137.01714090000002,138.09472631666668,66.0,117.0
437,137.7930024,138.11843319583335,59.0,89.0
438,138.0516229,139.69817341666666,37.0,71.0
439,138.5688639,139.70894927083333,44.0,37.0
440,139.0861049,139.81886298333333,49.0,65.0
441,139.0861049,140.05162143333334,61.0,63.0
442,139.6033459,140.055931775,56.0,75.0
443,139.0861049,140.07101797083334,64.0,73.0
444,141.1550689,141.32101705416667,58.0,72.0
445,141.1550689,141.5688617,51.0,66.0
446,140.1205869,141.57101687083335,39.0,77.0
447,140.63782790000002,141.60118926250001,46.0,53.0
448,141.67230990000002,141.90506835,58.0,46.0
449,141.1550689,141.9632579625,63.0,88.0
450,142.1895509,142.564550625,40.0,85.0
451,142.1895509,142.58610233333334,64.0,95.0
452,142.1895509,142.58825750416668,68.0,96.0
453,142.1895509,142.6486022875,59.0,89.0
454,143.2240329,143.76929112083334,54.0,93.0
455,143.2240329,143.79084282916668,58.0,95.0
456,143.2240329,143.79515317083334,42.0,96.0
457,143.2240329,143.81670487916668,61.0,82.0
458,145.5516174,145.8554964875,56.0,96.0
459,144.7757559,145.87058268333334,51.0,52.0
460,144.2585149,145.94816883333334,44.0,93.0
461,145.8102379,146.30377202083335,63.0,127.0
462,145.29299690000002,146.32101338750002,68.0,112.0
463,146.0688584,146.33394441250002,59.0,100.0
464,146.8447199,147.48049529583335,49.0,88.0
465,147.3619609,147.54299525000002,56.0,100.0
466,146.32747890000002,147.7951502375,37.0,92.0
467,147.6205814,147.93308117083333,49.0,78.0
468,147.3619609,148.93092526666666,61.0,107.0
469,147.3619609,148.96756317083333,64.0,102.0
470,147.8792019,148.97618385416666,56.0,112.0
471,149.1723044,149.25420089166667,56.0,27.0
472,148.9136839,149.52575241666668,49.0,49.0
473,148.3964429,149.76713155000002,37.0,112.0
474,149.68954540000001,149.8878211166667,49.0,95.0
475,149.9481659,150.46756207083334,56.0,99.0
476,149.4309249,150.46756207083334,61.0,122.0
477,149.4309249,150.4977344625,64.0,99.0
478,150.98264790000002,151.93954375,46.0,34.0
479,150.4654069,151.9718713125,39.0,99.0
480,152.01712990000001,152.53006055833333,54.0,88.0
481,151.4998889,152.53652607083333,58.0,92.0
482,151.4998889,152.54299158333333,63.0,99.0
483,153.0516119,153.659370075,51.0,88.0
484,153.8274734,154.073162875,51.0,86.0
485,152.5343709,154.1184214625,44.0,97.0
486,154.0860939,154.37919713333335,59.0,81.0
487,154.34471440000002,154.64428314583333,56.0,107.0
488,153.5688529,154.7067831,63.0,112.0
489,154.6033349,156.530057625,37.0,92.0
490,156.4136784,156.61841962916668,52.0,69.0
491,155.1205759,156.64643685000001,44.0,60.0
492,155.63781690000002,156.70678163333335,49.0,55.0
493,156.1550579,156.78005744166668,56.0,88.0
494,155.63781690000002,156.83609188333335,61.0,90.0
495,157.1895399,157.85333251666668,49.0,93.0
496,156.67229890000002,158.10548750416666,37.0,92.0
497,157.96540140000002,158.15074609166666,49.0,83.0
498,157.7067809,158.2304874125,61.0,127.0
499,158.2240219,158.2951425375,56.0,107.0
500,158.7412629,159.37703829583333,58.0,102.0
501,158.7412629,159.48910717916667,55.0,92.0
502,159.7757449,160.32100312083335,58.0,127.0
503,159.2585039,160.41367546666666,46.0,39.0
504,159.7757449,160.42445132083333,63.0,127.0
505,158.7412629,160.45893405416666,39.0,99.0
506,160.0343654,160.538675375,51.0,107.0
507,160.29298590000002,160.667985625,55.0,117.0
508,160.5516064,160.73479592083334,58.0,112.0
509,160.8102269,160.9589336875,46.0,90.0
510,160.8102269,160.96108885833334,51.0,89.0
511,160.8102269,160.9718647125,39.0,66.0
512,160.8102269,160.97401988333334,67.0,83.0
513,160.8102269,160.98695090833334,63.0,96.0
514,160.8102269,160.98910607916667,58.0,107.0
515,161.0688474,161.26065760416668,46.0,97.0
516,161.0688474,161.29729550833335,51.0,102.0
517,161.0688474,161.30807136250002,58.0,112.0
518,161.0688474,161.31453687500002,63.0,107.0
519,161.0688474,161.32315755833335,67.0,95.0
520,161.0688474,161.32531272916668,39.0,72.0
521,163.3964319,164.0171211,56.0,107.0
522,163.65505240000002,164.18306925416667,59.0,92.0
523,164.1722934,164.55591380833334,56.0,102.0
524,163.1378114,164.6701378625,51.0,88.0
525,162.8791909,164.79513777083335,44.0,96.0
526,164.4309139,164.90720665416669,63.0,127.0
527,164.6895344,164.9330687041667,59.0,107.0
528,163.9136729,164.94815490000002,68.0,127.0
529,165.4653959,166.1442747125,49.0,100.0
530,165.7240164,166.27142979166666,52.0,96.0
531,165.2067754,166.29082632916666,44.0,33.0
532,164.94815490000002,166.34039525833333,37.0,93.0
533,166.2412574,166.47617102083333,49.0,107.0
534,165.98263690000002,166.98910167916668,61.0,122.0
535,166.7584984,167.0106533875,52.0,97.0
536,166.4998779,167.03004992500001,56.0,99.0
537,167.5343599,168.15935944166668,54.0,96.0
538,167.7929804,168.17013529583335,58.0,88.0
539,167.0171189,168.42660062500002,42.0,86.0
540,167.27573940000002,168.42660062500002,49.0,72.0
541,168.31022140000002,168.52573848333333,54.0,97.0
542,168.0516009,168.99987606666667,66.0,127.0
543,168.5688419,169.0408243125,61.0,117.0
544,168.8274624,169.06022085,58.0,99.0
545,169.8619444,170.14858212083334,63.0,117.0
546,169.60332390000002,170.21539241666667,59.0,95.0
547,169.34470340000001,170.22616827083334,54.0,107.0
548,169.0860829,170.49125428333335,47.0,78.0
549,170.3791854,170.49987496666668,54.0,83.0
550,170.1205649,171.0839262625,66.0,122.0
551,170.63780590000002,171.11409865416667,63.0,117.0
552,170.8964264,171.74125336666668,59.0,97.0
553,171.67228790000001,172.31452880833334,52.0,97.0
554,171.9309084,172.39858047083334,59.0,90.0
555,171.1550469,172.57314930833334,40.0,97.0
556,171.4136674,172.57530447916668,47.0,99.0
557,172.4481494,172.57961482083334,52.0,93.0
558,172.7067699,173.2240109,64.0,96.0
559,172.96539040000002,173.2304764125,59.0,100.0
560,172.1895289,173.24125226666666,68.0,127.0
561,173.7412519,174.33176870833333,49.0,88.0
562,173.2240109,174.5882340375,37.0,83.0
563,173.4826314,174.59685472083333,44.0,86.0
564,174.5171134,174.66150984583334,49.0,90.0
565,173.99987240000002,174.66366501666667,52.0,85.0
566,174.7757339,175.18952670000002,56.0,107.0
567,175.0343544,175.20461289583335,52.0,96.0
568,174.2584929,175.20676806666668,61.0,107.0
569,175.8102159,176.44383612500002,52.0,122.0
570,176.0688364,176.49556022500002,59.0,89.0
571,175.29297490000002,176.64857735416666,40.0,95.0
572,175.5515954,176.67443940416666,47.0,78.0
573,176.5860774,176.7477152125,52.0,112.0
574,177.1033184,177.3619389,59.0,112.0
575,176.8446979,177.3619389,64.0,112.0
576,176.32745690000002,177.3619389,68.0,127.0
577,177.8791799,178.53004149166668,51.0,112.0
578,178.1378004,178.70245515833335,55.0,99.0
579,177.62055940000002,178.71969652500002,46.0,55.0
580,177.3619389,178.73478272083335,39.0,97.0
581,178.65504140000002,178.8813343375,51.0,112.0
582,178.9136619,179.32529952916667,58.0,122.0
583,178.3964209,179.366247775,63.0,127.0
584,179.1722824,179.40935119166667,55.0,107.0
585,179.94814390000002,180.56021241666667,56.0,99.0
586,180.2067644,180.73478125416668,59.0,97.0
587,180.7240054,180.79297086666668,56.0,99.0
588,179.4309029,180.83822945416668,44.0,88.0
589,179.6895234,180.84253979583335,51.0,73.0
590,180.4653849,181.40719455416667,68.0,127.0
591,180.98262590000002,181.46322899583333,63.0,122.0
592,181.2412464,181.50848758333333,59.0,112.0
593,182.0171079,182.62055573333333,49.0,93.0
594,182.27572840000002,182.8446935,52.0,95.0
595,181.7584874,182.9158141375,44.0,61.0
596,181.4998669,182.9675382375,37.0,81.0
597,182.7929694,183.1485725875,49.0,97.0
598,182.5343489,183.530037825,61.0,127.0
599,183.0515899,183.55374470416666,56.0,117.0
600,183.31021040000002,183.55805504583333,52.0,100.0
601,184.3446924,184.67012319583333,58.0,100.0
602,184.0860719,184.72400246666666,54.0,102.0
603,183.5688309,184.99555399166667,42.0,97.0
604,183.8274514,185.02572638333334,49.0,78.0
605,184.60331290000002,185.02572638333334,61.0,127.0
606,184.8619334,185.14641595,54.0,102.0
607,185.3791744,185.63132938750002,58.0,97.0
608,185.1205539,185.67658797500002,66.0,117.0
609,186.1550359,186.65072519166668,59.0,85.0
610,186.4136564,186.72184582916668,63.0,117.0
611,185.8964154,186.84253539583335,54.0,102.0
612,186.93089740000002,187.06020765,54.0,95.0
613,185.63779490000002,187.1054662375,47.0,83.0
614,186.6722769,187.53650040416667,66.0,122.0
615,187.1895179,187.54081074583334,63.0,122.0
616,187.4481384,188.22184472916666,59.0,97.0
617,188.2239999,188.90072354166668,52.0,102.0
618,188.4826204,188.92012007916668,59.0,89.0
619,188.99986140000001,189.09684408750002,52.0,96.0
620,187.7067589,189.12270613750002,40.0,89.0
621,187.96537940000002,189.13348199166668,47.0,69.0
622,188.7412409,189.71322294583334,68.0,127.0
623,189.25848190000002,189.72615397083334,64.0,90.0
624,189.5171024,189.79727460833334,59.0,102.0
625,190.5515844,190.900722075,56.0,88.0
626,190.29296390000002,190.926584125,49.0,93.0
627,190.0343434,191.24123906666668,44.0,47.0
628,189.7757229,191.2433942375,37.0,89.0
629,191.0688254,191.2821873125,49.0,99.0
630,190.8102049,191.37270448750002,61.0,82.0
631,191.32744590000001,191.6959801125,56.0,107.0
632,191.58606640000002,191.82744553333333,61.0,100.0
633,190.8102049,191.8382213875,64.0,100.0
634,192.3619279,192.99123778333333,51.0,102.0
635,192.1033074,193.14641008333334,46.0,64.0
636,191.8446869,193.1571859375,39.0,99.0
637,192.62054840000002,193.19382384166667,55.0,89.0
638,193.1377894,193.35977199583334,51.0,97.0
639,193.3964099,193.8727026541667,58.0,117.0
640,193.65503040000002,193.87701299583335,55.0,89.0
641,192.8791689,193.88778885000002,63.0,127.0
642,194.4308919,195.12701207916666,56.0,81.0
643,194.1722714,195.36623604166667,51.0,65.0
644,195.2067534,195.39640843333333,56.0,50.0
645,193.91365090000002,195.4977014625,44.0,82.0
646,194.6895124,195.98261490000002,59.0,74.0
647,195.4653739,195.98261490000002,63.0,83.0
648,194.94813290000002,195.98261490000002,68.0,117.0
649,196.4998559,197.12054510000002,56.0,107.0
650,196.7584764,197.2864932541667,59.0,92.0
651,197.27571740000002,197.65933780833333,56.0,102.0
652,196.2412354,197.7735618625,51.0,88.0
653,195.98261490000002,197.89856177083334,44.0,96.0
654,197.5343379,198.01063065416668,63.0,127.0
655,197.7929584,198.03649270416668,59.0,107.0
656,197.0170969,198.0515789,68.0,127.0
657,198.5688199,199.2476987125,49.0,100.0
658,198.8274404,199.37485379166668,52.0,96.0
659,198.31019940000002,199.39425032916668,44.0,33.0
660,198.0515789,199.44381925833335,37.0,93.0
661,199.3446814,199.57959502083335,49.0,107.0
662,199.0860609,200.09252567916667,61.0,122.0
663,199.8619224,200.1140773875,52.0,97.0
664,199.60330190000002,200.133473925,56.0,99.0
665,200.63778390000002,201.26278344166667,54.0,96.0
666,200.8964044,201.27355929583334,58.0,88.0
667,200.1205429,201.530024625,42.0,86.0
668,200.3791634,201.530024625,49.0,72.0
669,201.4136454,201.62916248333335,54.0,97.0
670,201.1550249,202.10330006666666,66.0,127.0
671,201.6722659,202.1442483125,61.0,117.0
672,201.93088640000002,202.16364485,58.0,99.0
673,202.96536840000002,203.25200612083333,63.0,117.0
674,202.7067479,203.31881641666666,59.0,95.0
675,202.4481274,203.32959227083333,54.0,107.0
676,202.1895069,203.59467828333334,47.0,78.0
677,203.4826094,203.60329896666667,54.0,83.0
678,203.2239889,204.18735026250002,66.0,122.0
679,203.7412299,204.2175226541667,63.0,117.0
680,203.9998504,204.84467736666667,59.0,97.0
681,204.7757119,205.41795280833335,52.0,97.0
682,205.0343324,205.50200447083333,59.0,90.0
683,204.25847090000002,205.67657330833333,40.0,97.0
684,204.5170914,205.67872847916667,47.0,99.0
685,205.5515734,205.68303882083333,52.0,93.0
686,205.8101939,206.32743490000001,64.0,96.0
687,206.0688144,206.33390041250001,59.0,100.0
688,205.29295290000002,206.34467626666668,68.0,127.0
689,206.8446759,207.43519270833335,49.0,88.0
690,206.32743490000001,207.69165803750002,37.0,83.0
691,206.58605540000002,207.70027872083335,44.0,86.0
692,207.62053740000002,207.76493384583335,49.0,90.0
693,207.1032964,207.7670890166667,52.0,85.0
694,207.8791579,208.2929507,56.0,107.0
695,208.1377784,208.30803689583334,52.0,96.0
696,207.3619169,208.31019206666667,61.0,107.0
697,208.91363990000002,209.547260125,52.0,122.0
698,209.1722604,209.598984225,59.0,89.0
699,208.3963989,209.75200135416668,40.0,95.0
700,208.65501940000001,209.77786340416668,47.0,78.0
701,209.6895014,209.85113921250002,52.0,112.0
702,210.2067424,210.4653629,59.0,112.0
703,209.94812190000002,210.4653629,64.0,112.0
704,209.4308809,210.4653629,68.0,127.0
705,210.98260390000002,211.63346549166667,51.0,112.0
706,211.24122440000002,211.80587915833334,55.0,99.0
707,210.7239834,211.823120525,46.0,55.0
708,210.4653629,211.83820672083334,39.0,97.0
709,211.7584654,211.9847583375,51.0,112.0
710,212.0170859,212.4287235291667,58.0,122.0
711,211.4998449,212.469671775,63.0,127.0
712,212.27570640000002,212.51277519166666,55.0,107.0
713,213.0515679,213.66363641666666,56.0,99.0
714,213.31018840000002,213.83820525416667,59.0,97.0
715,213.8274294,213.89639486666667,56.0,99.0
716,212.5343269,213.94165345416667,44.0,88.0
717,212.7929474,213.94596379583334,51.0,73.0
718,213.56880890000002,214.51061855416668,68.0,127.0
719,214.0860499,214.56665299583335,63.0,122.0
720,214.3446704,214.61191158333335,59.0,112.0
721,215.1205319,215.72397973333335,49.0,93.0
722,215.3791524,215.9481175,52.0,95.0
723,214.8619114,216.0192381375,44.0,61.0
724,214.60329090000002,216.0709622375,37.0,81.0
725,215.89639340000002,216.2519965875,49.0,97.0
726,215.63777290000002,216.633461825,61.0,127.0
727,216.1550139,216.65716870416668,56.0,117.0
728,216.4136344,216.66147904583335,52.0,100.0
729,217.4481164,217.77354719583334,58.0,100.0
730,217.1894959,217.82742646666668,54.0,102.0
731,216.6722549,218.0989779916667,42.0,97.0
732,216.93087540000002,218.12915038333335,49.0,78.0
733,217.7067369,218.12915038333335,61.0,127.0
734,217.96535740000002,218.24983995,54.0,102.0
735,218.4825984,218.7347533875,58.0,97.0
736,218.22397790000002,218.780011975,66.0,117.0
737,219.25845990000002,219.75414919166667,59.0,85.0
738,219.5170804,219.82526982916667,63.0,117.0
739,218.9998394,219.94595939583334,54.0,102.0
740,220.0343214,220.16363165,54.0,95.0
741,218.7412189,220.20889023750001,47.0,83.0
742,219.7757009,220.63992440416666,66.0,122.0
743,220.29294190000002,220.64423474583333,63.0,122.0
744,220.5515624,221.32526872916668,59.0,97.0
745,221.3274239,222.00414754166667,52.0,102.0
746,221.58604440000002,222.02354407916667,59.0,89.0
747,222.1032854,222.2002680875,52.0,96.0
748,220.8101829,222.2261301375,40.0,89.0
749,221.0688034,222.23690599166667,47.0,69.0
750,221.8446649,222.81664694583336,68.0,127.0
751,222.3619059,222.82957797083336,64.0,90.0
752,222.62052640000002,222.90069860833333,59.0,102.0
753,223.6550084,224.00414607500002,56.0,88.0
754,223.3963879,224.030008125,49.0,93.0
755,223.1377674,224.34466306666667,44.0,47.0
756,222.8791469,224.3468182375,37.0,89.0
757,224.1722494,224.3856113125,49.0,99.0
758,223.91362890000002,224.4761284875,61.0,82.0
759,224.4308699,224.7994041125,56.0,107.0
760,224.6894904,224.93086953333335,61.0,100.0
761,223.91362890000002,224.94164538750002,64.0,100.0
762,225.4653519,226.09466178333335,51.0,102.0
763,225.2067314,226.24983408333335,46.0,64.0
764,224.94811090000002,226.26060993750002,39.0,99.0
765,225.7239724,226.2972478416667,55.0,89.0
766,226.24121340000002,226.46319599583333,51.0,97.0
767,226.4998339,226.97612665416668,58.0,117.0
768,226.7584544,226.98043699583334,55.0,89.0
769,225.98259290000001,226.99121285,63.0,127.0
770,227.0170749,227.24983335000002,67.0,85.0
771,227.0170749,227.27354022916668,39.0,65.0
772,227.0170749,227.27785057083335,51.0,79.0
773,227.27569540000002,227.27785057083335,51.0,88.0
774,227.0170749,227.27785057083335,70.0,88.0
775,227.0170749,227.28647125416668,63.0,92.0
776,227.27569540000002,227.42440218750002,39.0,65.0
777,227.5343159,227.61190205,67.0,97.0
778,227.5343159,227.65500546666667,63.0,96.0
779,227.5343159,227.66362615,70.0,88.0
780,227.7929364,227.831729475,67.0,112.0
781,227.7929364,227.84681567083334,70.0,95.0
782,227.7929364,227.85328118333334,63.0,97.0
783,227.7929364,227.85543635416667,39.0,88.0
784,227.7929364,227.87052255,51.0,82.0
785,228.0515569,228.6657805875,51.0,107.0
786,228.0515569,228.68086678333333,67.0,117.0
787,228.0515569,228.68302195416666,63.0,112.0
788,228.0515569,228.68948746666666,39.0,99.0
789,228.0515569,228.70888400416666,70.0,112.0
790,229.60327990000002,230.21534841666667,56.0,99.0
791,229.8619004,230.38991725416668,59.0,97.0
792,230.3791414,230.44810686666668,56.0,99.0
793,229.0860389,230.49336545416668,44.0,88.0
794,229.3446594,230.49767579583335,51.0,73.0
795,230.1205209,231.06233055416666,68.0,127.0
796,230.63776190000002,231.11836499583333,63.0,122.0
797,230.89638240000002,231.16362358333333,59.0,112.0
798,231.6722439,232.27569173333333,49.0,93.0
799,231.93086440000002,232.4998295,52.0,95.0
800,231.4136234,232.5709501375,44.0,61.0
801,231.1550029,232.6226742375,37.0,81.0
802,232.4481054,232.8037085875,49.0,97.0
803,232.1894849,233.18517382500002,61.0,127.0
804,232.7067259,233.2088807041667,56.0,117.0
805,232.96534640000002,233.21319104583336,52.0,100.0
806,233.9998284,234.32525919583335,58.0,100.0
807,233.7412079,234.3791384666667,54.0,102.0
808,233.22396690000002,234.65068999166667,42.0,97.0
809,233.4825874,234.68086238333333,49.0,78.0
810,234.25844890000002,234.68086238333333,61.0,127.0
811,234.5170694,234.80155195,54.0,102.0
812,235.0343104,235.28646538750002,58.0,97.0
813,234.7756899,235.33172397500002,66.0,117.0
814,235.8101719,236.30586119166668,59.0,85.0
815,236.0687924,236.37698182916668,63.0,117.0
816,235.55155140000002,236.49767139583335,54.0,102.0
817,236.58603340000002,236.71534365000002,54.0,95.0
818,235.29293090000002,236.7606022375,47.0,83.0
819,236.3274129,237.19163640416667,66.0,122.0
820,236.8446539,237.19594674583334,63.0,122.0
821,237.1032744,237.8769807291667,59.0,97.0
822,237.87913590000002,238.55585954166668,52.0,102.0
823,238.1377564,238.57525607916668,59.0,89.0
824,238.6549974,238.75198008750002,52.0,96.0
825,237.3618949,238.77784213750002,40.0,89.0
826,237.62051540000002,238.78861799166668,47.0,69.0
827,238.3963769,239.36835894583334,68.0,127.0
828,238.91361790000002,239.38128997083334,64.0,90.0
829,239.1722384,239.45241060833334,59.0,102.0
830,240.20672040000002,240.555858075,56.0,88.0
831,239.94809990000002,240.581720125,49.0,93.0
832,239.6894794,240.89637506666668,44.0,47.0
833,239.4308589,240.8985302375,37.0,89.0
834,240.7239614,240.9373233125,49.0,99.0
835,240.4653409,241.02784048750001,61.0,82.0
836,240.9825819,241.35111611250002,56.0,107.0
837,241.24120240000002,241.48258153333333,61.0,100.0
838,240.4653409,241.4933573875,64.0,100.0
839,241.4998229,242.4674946041667,64.0,69.0
840,241.4998229,242.4804256291667,68.0,68.0
841,241.4998229,242.49551182500002,61.0,66.0
842,241.4998229,242.50197733750002,37.0,66.0
843,241.4998229,242.50197733750002,49.0,63.0
844,243.56878690000002,244.60757924166668,46.0,36.0
845,243.56878690000002,244.62051026666668,39.0,48.0
846,243.56878690000002,244.70025158750002,67.0,60.0
847,243.56878690000002,244.70887227083335,63.0,44.0
848,243.56878690000002,244.72611363750002,51.0,38.0
849,243.56878690000002,244.82309632500002,70.0,56.0
850,246.4136124,246.72180182916668,63.0,107.0
851,245.89637140000002,246.74550870833335,56.0,62.0
852,246.1549919,246.88774998333335,59.0,72.0
853,246.93085340000002,247.08602570000002,56.0,68.0
854,245.63775090000001,247.1355946291667,44.0,97.0
855,246.6722329,247.71533558333334,68.0,122.0
856,247.4480944,247.7519734875,63.0,112.0
857,247.7067149,249.15714487083335,37.0,86.0
858,248.22395590000002,249.27352409583335,52.0,63.0
859,247.96533540000001,249.40283434583336,49.0,67.0
860,249.5170584,249.75843753333334,52.0,68.0
861,248.4825764,249.77136855833334,61.0,100.0
862,249.25843790000002,249.79076509583334,56.0,85.0
863,250.29291990000002,250.92869529583334,54.0,78.0
864,249.7756789,251.12912618333334,42.0,73.0
865,250.0342994,251.1528330625,49.0,53.0
866,251.0687814,251.32309155833335,54.0,78.0
867,250.55154040000002,251.3338674125,58.0,62.0
868,251.3274019,251.75412572500002,61.0,34.0
869,251.58602240000002,251.81878085,58.0,56.0
870,250.8101609,251.831711875,66.0,95.0
871,252.3618839,252.93084900000002,59.0,72.0
872,252.1032634,253.04938339583333,54.0,88.0
873,253.1377454,253.23903842916667,54.0,42.0
874,251.8446429,253.30369355416667,47.0,66.0
875,252.87912490000002,253.512745125,63.0,52.0
876,252.62050440000002,253.81015870000002,66.0,122.0
877,253.3963659,254.37050311666667,59.0,86.0
878,254.4308479,255.1205025666667,52.0,73.0
879,254.1722274,255.30153691666666,47.0,61.0
880,255.20670940000002,255.30584725833333,52.0,59.0
881,253.91360690000002,255.30800242916666,40.0,75.0
882,254.6894684,255.3166231125,59.0,72.0
883,255.4653299,255.8726571875,64.0,52.0
884,254.94808890000002,255.8726571875,68.0,112.0
885,256.4998119,257.3209319875,52.0,69.0
886,255.9825709,257.6032593666667,37.0,90.0
887,256.2411914,257.73041444583333,49.0,63.0
888,257.5342939,257.9717935791667,52.0,66.0
889,257.2756734,258.02782802083334,56.0,75.0
890,256.7584324,258.04722455833337,61.0,96.0
891,258.529982825,259.137741,56.0,79.0
892,258.3338622791667,259.67868887916666,51.0,28.0
893,258.8273964,259.7110164416667,59.0,76.0
894,259.31446500833334,259.7261026375,56.0,66.0
895,258.0299831916667,259.7756715666667,44.0,81.0
896,259.58601653333335,259.9653266,63.0,95.0
897,260.12265407083333,262.46101442500003,56.0,60.0
898,260.14420577916667,262.48903164583334,51.0,53.0
899,259.84463703333336,262.49980750000003,59.0,60.0
900,260.10972304583333,262.5062730125,63.0,66.0
901,260.12265407083333,262.5321350625,68.0,76.0
902,260.12049890000003,262.56661779583334,44.0,63.0
