,start,end,pitch,velocity
0,17.237147816666667,17.358416420833333,67.0,81.0
1,17.461028316666667,17.565505883333334,67.0,64.0
2,17.684908816666667,17.819237116666667,67.0,59.0
3,17.908789316666667,18.287520495833334,70.0,73.0
4,18.356550316666667,18.8285650375,72.0,75.0
5,19.028191816666666,19.522594587500002,72.0,90.0
6,19.475952816666666,19.720355695833334,70.0,58.0
7,19.699833316666666,22.483414200000002,68.0,65.0
8,24.401323816666668,24.533786445833336,67.0,71.0
9,24.625204316666668,24.724084870833334,67.0,64.0
10,24.849084816666668,25.01326385,67.0,63.0
11,25.072965316666668,25.4778158875,70.0,72.0
12,25.520726316666668,25.966621645833335,72.0,70.0
13,25.968487316666668,26.479681125,72.0,104.0
14,26.640128816666667,26.921296283333334,70.0,74.0
15,26.862472816666667,28.594088616666667,68.0,74.0
16,29.288940816666667,29.474602383333334,72.0,65.0
17,29.509528816666666,29.62166105,74.0,71.0
18,29.73011681666667,30.05548411666667,74.0,87.0
19,30.171292816666668,30.287101516666667,75.0,74.0
20,30.391880816666667,31.024233083333336,75.0,76.0
21,31.05364481666667,31.45805615,67.0,85.0
22,31.494820816666667,31.94151151666667,72.0,95.0
23,31.935996816666666,32.25584941666667,70.0,67.0
24,32.377172816666665,32.68415778333333,70.0,86.0
25,32.81834881666667,33.05364268333334,70.0,67.0
26,33.25952481666667,35.783419183333336,68.0,86.0
27,36.34775681666667,36.51687428333334,72.0,74.0
28,36.56834481666667,36.66393295,74.0,74.0
29,36.788932816666666,37.07202075,74.0,90.0
30,37.23010881666667,37.33304988333333,75.0,83.0
31,37.450696816666664,37.99665211666667,75.0,87.0
32,38.11246081666667,38.47091631666667,77.0,71.0
33,38.55363681666667,38.94334228333334,74.0,86.0
34,38.994812816666666,39.10878328333334,72.0,63.0
35,39.21540081666667,39.53709165,72.0,74.0
36,39.65657681666667,40.09742364583334,70.0,83.0
37,40.32316981666667,43.274661075000004,68.0,76.0
38,43.45749681666667,43.750407137500005,67.0,104.0
39,43.90525781666667,46.01906287083334,65.0,85.0
40,46.59182381666667,46.77652522916667,77.0,86.0
41,46.81570431666667,47.054510183333335,79.0,74.0
42,47.03958481666667,47.31756977083334,77.0,64.0
43,47.26346531666667,47.38100257916667,75.0,67.0
44,47.48734581666667,47.91831577916667,72.0,90.0
45,47.93510681666667,48.244808175,77.0,87.0
46,48.382867816666675,49.64779264166667,77.0,100.0
47,50.16908281666667,50.31614148333334,77.0,77.0
48,50.38967081666667,50.64886171666667,79.0,76.0
49,50.61025881666667,50.87312618333334,77.0,59.0
50,50.83084681666667,50.946655516666674,75.0,64.0
51,51.05143481666668,51.454007916666676,70.0,76.0
52,51.49261081666668,51.82716928333334,77.0,81.0
53,51.933786816666675,52.27018351666668,77.0,104.0
54,52.374962816666674,52.69849188333334,74.0,74.0
55,52.81613881666667,53.77202015000001,75.0,86.0
56,54.139666816666676,54.41540181666667,75.0,74.0
57,54.360254816666675,54.52201935000001,77.0,72.0
58,54.580842816666674,54.93562185000001,79.0,90.0
59,55.02201881666667,55.12679811666668,80.0,74.0
60,55.24260681666667,55.51650358333334,80.0,86.0
61,55.68378281666668,56.23157635000001,72.0,87.0
62,56.345546816666676,56.68561998333334,75.0,74.0
63,56.786722816666675,57.130472450000006,74.0,77.0
64,57.227898816666674,57.55326611666668,72.0,76.0
65,57.66907481666667,58.06980968333334,74.0,112.0
66,58.11025081666668,60.07277605000001,70.0,100.0
67,60.77277535000001,60.90981225000001,77.0,90.0
68,60.99499735000001,61.13758980000001,79.0,83.0
69,61.21721935000001,61.31721925000001,77.0,65.0
70,61.43944135000001,61.55055235000001,75.0,85.0
71,61.66166335000001,61.81907060000001,75.0,100.0
72,62.05795925000001,62.31907010000001,72.0,93.0
73,62.550551350000006,62.68203270000001,77.0,93.0
74,62.77277335000001,62.91166210000001,79.0,74.0
75,62.99499535000001,63.15795815000001,77.0,67.0
76,63.21721735000001,63.33943945000001,75.0,76.0
77,63.43943935000001,63.54499480000001,75.0,86.0
78,63.88388335000001,64.21721635000002,72.0,104.0
79,64.32832735000001,64.43573465000001,77.0,95.0
80,64.55054935000001,64.68203070000001,79.0,86.0
81,64.77277135000001,64.89869715,77.0,74.0
82,64.99499335000002,65.10054880000001,75.0,87.0
83,65.21721535,65.40054850000001,75.0,104.0
84,65.66165935000001,65.93017760000001,70.0,93.0
85,66.10610335000001,66.48388075000001,77.0,111.0
86,66.55054735000002,66.8820285,74.0,100.0
87,66.99499135,68.17091610000001,75.0,86.0
88,68.32832335,68.57091570000001,70.0,74.0
89,68.55054535000001,68.87091540000002,67.0,65.0
90,68.77276735000001,69.20980395000001,68.0,76.0
91,69.21721135000001,69.32461865,75.0,63.0
92,69.43943335,70.33572875000002,75.0,72.0
93,70.09128455000001,70.35980280000001,72.0,67.0
94,70.32276580000001,70.45980270000001,74.0,72.0
95,70.56906185000001,70.99498735,75.0,83.0
96,70.98572810000002,71.32091295000001,74.0,67.0
97,71.25609820000001,71.54683865000001,75.0,81.0
98,71.68943110000001,72.0863489375,77.0,98.0
99,72.24119961666668,74.24679576250001,77.0,98.0
100,75.01545214583334,75.19082520416667,77.0,90.0
101,75.22813862083335,75.40724302083335,79.0,90.0
102,75.44828777916668,75.66283992500001,77.0,74.0
103,75.65724291250001,75.77104883333334,75.0,86.0
104,75.91283981666668,76.244929225,72.0,83.0
105,76.36060081666668,76.64604845416667,77.0,90.0
106,76.80836181666668,77.88112254583335,77.0,108.0
107,78.59940581666667,78.75425649583335,77.0,87.0
108,78.82328631666668,79.02291309583335,79.0,81.0
109,79.04716681666667,79.28605491666667,77.0,63.0
110,79.26951081666668,79.37796658333335,75.0,75.0
111,79.49009881666667,79.81178965000001,70.0,95.0
112,79.93127481666667,80.25848035000001,77.0,98.0
113,80.37245081666667,80.71068575000001,77.0,108.0
114,80.81362681666667,81.07649418333334,74.0,98.0
115,81.03421481666668,82.24928705,75.0,95.0
116,82.57833081666668,82.84855111666667,75.0,90.0
117,82.79891881666667,82.96987451666668,77.0,68.0
118,83.01950681666668,83.34487411666667,79.0,95.0
119,83.46068281666668,83.60957971666667,80.0,86.0
120,83.68127081666668,83.93494701666667,80.0,77.0
121,84.12244681666668,84.67207858333335,72.0,95.0
122,84.78421081666667,85.12244575000001,74.0,98.0
123,85.22538681666667,85.45516598333334,72.0,72.0
124,85.44597481666668,85.85590085000001,70.0,81.0
125,85.88715081666668,86.40449015000002,74.0,79.0
126,86.55374381666668,89.12836956666668,70.0,95.0
127,89.24030981666668,89.35971275000001,77.0,90.0
128,89.46419031666669,89.57613056666668,79.0,73.0
129,89.68807081666668,89.78508570000001,77.0,72.0
130,89.91195131666669,90.01083187083334,75.0,74.0
131,90.13583181666668,90.38956305000002,75.0,73.0
132,90.58359281666668,90.82799569583335,72.0,87.0
133,91.03135381666668,91.14515973750001,77.0,86.0
134,91.25523431666669,91.36530889583335,79.0,67.0
135,91.47911481666668,91.56120433333335,77.0,74.0
136,91.70145881666669,91.81175281666668,75.0,66.0
137,91.92204681666668,92.11322308333335,75.0,74.0
138,92.34484048333334,92.73454595000001,72.0,87.0
139,92.80439881666668,92.92572221666668,77.0,79.0
140,93.02498681666668,93.16285431666668,79.0,104.0
141,93.24557481666668,93.36505998333335,77.0,74.0
142,93.46616281666668,93.58932445,75.0,81.0
143,93.68675081666667,93.82094185000001,75.0,98.0
144,94.12792681666669,94.40733828333335,70.0,95.0
145,94.56910281666669,94.91836715000001,82.0,111.0
146,95.01027881666668,95.27498441666668,74.0,104.0
147,95.45145481666668,96.65365941666668,75.0,90.0
148,96.77498281666668,97.01211491666668,70.0,85.0
149,96.99557081666669,97.28417345000001,67.0,71.0
150,97.21615881666668,97.45145268333334,68.0,77.0
151,97.65733481666668,97.76027588333335,75.0,73.0
152,97.87792281666668,98.52498095000001,75.0,83.0
153,98.57461325000001,98.75476011666669,79.0,83.0
154,98.79887771666668,98.92571581666668,80.0,74.0
155,99.03233335000002,99.53049458333335,79.0,93.0
156,99.50108285000002,99.80806781666668,77.0,74.0
157,99.76762668333335,100.22902325000001,75.0,72.0
158,100.35769958333334,100.73821388333334,74.0,75.0
159,100.80806675000001,104.34226884166668,75.0,85.0
160,106.14663481666668,106.26611998333334,67.0,81.0
161,106.36722281666668,106.47016388333334,67.0,64.0
162,106.58781081666667,106.72038311666668,67.0,59.0
163,106.80993531666668,107.18866649583335,70.0,73.0
164,107.25769631666668,107.72971103750001,72.0,75.0
165,107.92933781666667,108.4237405875,72.0,90.0
166,108.37709881666667,108.62150169583335,70.0,58.0
167,108.60097931666668,111.38456020000001,68.0,65.0
168,113.30246981666667,113.43493244583334,67.0,71.0
169,113.52635031666668,113.62523087083335,67.0,64.0
170,113.75023081666667,113.91440985000001,67.0,63.0
171,113.97411131666668,114.37896188750001,70.0,72.0
172,114.42187231666668,114.86776764583334,72.0,70.0
173,114.86963331666668,115.38082712500001,72.0,104.0
174,115.54127481666667,115.82244228333334,70.0,74.0
175,115.76361881666668,117.49523461666668,68.0,74.0
176,118.19008681666668,118.37574838333335,72.0,65.0
177,118.41067481666667,118.52280705000001,74.0,71.0
178,118.63126281666668,118.95663011666667,74.0,87.0
179,119.07243881666668,119.18824751666668,75.0,74.0
180,119.29302681666667,119.92537908333334,75.0,76.0
181,119.95479081666667,120.35920215,67.0,85.0
182,120.39596681666667,120.84265751666668,74.0,95.0
183,120.83714281666667,121.15699541666667,72.0,67.0
184,121.27831881666667,121.58530378333334,70.0,86.0
185,121.71949481666667,121.95478868333333,70.0,67.0
186,122.16067081666667,124.68456518333333,68.0,86.0
187,125.24890281666667,125.41802028333333,72.0,74.0
188,125.46949081666668,125.56507895,74.0,74.0
189,125.69007881666667,125.97316675,74.0,90.0
190,126.13125481666667,126.23419588333334,75.0,83.0
191,126.35184281666668,126.89779811666668,75.0,87.0
192,127.01360681666668,127.37206231666667,77.0,71.0
193,127.45478281666666,127.84448828333333,74.0,86.0
194,127.89595881666668,128.00992928333335,72.0,63.0
195,128.11654681666667,128.43823765000002,72.0,74.0
196,128.55772281666668,128.99856964583333,70.0,83.0
197,129.2243158166667,132.175807075,68.0,76.0
198,132.35864281666667,132.6515531375,67.0,104.0
199,132.8064038166667,134.92020887083333,65.0,85.0
200,135.4929698166667,135.67767122916666,77.0,86.0
201,135.71685031666667,135.95565618333333,79.0,74.0
202,135.94073081666667,136.21871577083334,77.0,64.0
203,136.16461131666668,136.2821485791667,75.0,67.0
204,136.3884918166667,136.8194617791667,72.0,90.0
205,136.83625281666667,137.145954175,77.0,87.0
206,137.2840138166667,138.54893864166667,77.0,100.0
207,139.07022881666668,139.21728748333334,77.0,77.0
208,139.29081681666668,139.55000771666667,79.0,76.0
209,139.51140481666667,139.77427218333335,77.0,59.0
210,139.73199281666666,139.84780151666666,75.0,64.0
211,139.95258081666668,140.35515391666667,70.0,76.0
212,140.39375681666667,140.72831528333333,77.0,81.0
213,140.83493281666668,141.17132951666667,77.0,104.0
214,141.27610881666666,141.59963788333334,74.0,74.0
215,141.71728481666668,142.67316615000001,75.0,86.0
216,143.04081281666666,143.31654781666668,75.0,74.0
217,143.26140081666668,143.42316535,77.0,72.0
218,143.48198881666667,143.83676785,79.0,90.0
219,143.92316481666668,144.02794411666667,80.0,74.0
220,144.14375281666668,144.41764958333334,80.0,86.0
221,144.58492881666666,145.13272235,72.0,87.0
222,145.24669281666667,145.58676598333335,75.0,74.0
223,145.68786881666668,146.03161845,74.0,77.0
224,146.12904481666666,146.45441211666667,72.0,76.0
225,146.57022081666668,146.97095568333333,74.0,112.0
226,147.01139681666666,148.97392205,70.0,100.0
227,149.67392135,149.81095825,77.0,90.0
228,149.89614335000002,150.0387358,79.0,83.0
229,150.11836535,150.21836525,77.0,65.0
230,150.34058735,150.45169835000002,75.0,85.0
231,150.56280935,150.72021660000001,75.0,100.0
232,150.95910525,151.22021610000002,72.0,93.0
233,151.45169735000002,151.58317870000002,77.0,93.0
234,151.67391935,151.8128081,79.0,74.0
235,151.89614135,152.05910415,77.0,67.0
236,152.11836335,152.24058545,75.0,76.0
237,152.34058535,152.4461408,75.0,86.0
238,152.78502935,153.11836235,72.0,104.0
239,153.22947335,153.33688065,77.0,95.0
240,153.45169535,153.5831767,79.0,86.0
241,153.67391735,153.79984315000002,77.0,74.0
242,153.89613935,154.0016948,75.0,87.0
243,154.11836135000001,154.3016945,75.0,104.0
244,154.56280535000002,154.83132360000002,70.0,93.0
245,155.00724935,155.38502675,77.0,111.0
246,155.45169335,155.7831745,74.0,100.0
247,155.89613735,157.0720621,75.0,86.0
248,157.22946935000002,157.4720617,70.0,74.0
249,157.45169135,157.7720614,67.0,65.0
250,157.67391335000002,158.11094995000002,68.0,76.0
251,158.11835735,158.22576465,75.0,63.0
252,158.34057935,159.23687475,75.0,72.0
253,158.99243055,159.2609488,72.0,67.0
254,159.2239118,159.3609487,74.0,72.0
255,159.47020785,159.89613335,75.0,83.0
256,159.8868741,160.22205895000002,74.0,67.0
257,160.1572442,160.44798465,75.0,81.0
258,160.59057710000002,160.9874949375,77.0,98.0
259,161.14234561666666,163.14794176249998,77.0,98.0
260,163.91659814583332,164.09197120416667,77.0,90.0
261,164.12928462083332,164.30838902083332,79.0,90.0
262,164.34943377916667,164.563985925,77.0,74.0
263,164.5583889125,164.67219483333332,75.0,86.0
264,164.81398581666667,165.146075225,72.0,83.0
265,165.26174681666666,165.54719445416666,77.0,90.0
266,165.70950781666667,166.78226854583332,77.0,108.0
267,167.50055181666667,167.65540249583333,77.0,87.0
268,167.72443231666665,167.92405909583331,79.0,81.0
269,167.94831281666666,168.18720091666665,77.0,63.0
270,168.17065681666665,168.27911258333333,75.0,75.0
271,168.39124481666667,168.71293565,70.0,95.0
272,168.83242081666666,169.15962635,77.0,98.0
273,169.27359681666667,169.61183175,77.0,108.0
274,169.71477281666665,169.97764018333334,74.0,98.0
275,169.93536081666664,171.15043305,75.0,95.0
276,171.47947681666665,171.74969711666665,75.0,90.0
277,171.70006481666667,171.87102051666665,77.0,68.0
278,171.92065281666666,172.24602011666667,79.0,95.0
279,172.36182881666664,172.51072571666666,80.0,86.0
280,172.58241681666667,172.83609301666667,80.0,77.0
281,173.02359281666665,173.5732245833333,72.0,95.0
282,173.68535681666665,174.02359174999998,74.0,98.0
283,174.12653281666667,174.3563119833333,72.0,72.0
284,174.34712081666666,174.75704685,70.0,81.0
285,174.78829681666664,175.30563615,74.0,79.0
286,175.45488981666668,178.02951556666667,70.0,95.0
287,178.14145581666668,178.26085875,77.0,90.0
288,178.36533631666666,178.47727656666666,79.0,73.0
289,178.58921681666666,178.6862317,77.0,72.0
290,178.81309731666667,178.91197787083334,75.0,74.0
291,179.03697781666668,179.29070905,75.0,73.0
292,179.48473881666666,179.72914169583333,72.0,87.0
293,179.93249981666668,180.0463057375,77.0,86.0
294,180.15638031666666,180.26645489583333,79.0,67.0
295,180.38026081666666,180.46235033333332,77.0,74.0
296,180.60260481666666,180.71289881666667,75.0,66.0
297,180.82319281666668,181.01436908333332,75.0,74.0
298,181.24598648333333,181.63569195,72.0,87.0
299,181.70554481666667,181.82686821666667,77.0,79.0
300,181.92613281666667,182.06400031666666,79.0,104.0
301,182.14672081666666,182.26620598333332,77.0,74.0
302,182.36730881666665,182.49047045,75.0,81.0
303,182.58789681666667,182.72208785,75.0,98.0
304,183.02907281666666,183.30848428333334,70.0,95.0
305,183.47024881666667,183.81951315,82.0,111.0
306,183.91142481666665,184.17613041666667,74.0,104.0
307,184.35260081666667,185.55480541666665,75.0,90.0
308,185.67612881666668,185.91326091666667,70.0,85.0
309,185.89671681666667,186.18531945,67.0,71.0
310,186.11730481666666,186.35259868333333,68.0,77.0
311,186.55848081666667,186.66142188333333,75.0,73.0
312,186.77906881666667,187.42612695,75.0,83.0
313,187.47575925,187.65590611666667,79.0,83.0
314,187.70002371666666,187.82686181666665,80.0,74.0
315,187.93347935,188.43164058333332,79.0,93.0
316,188.40222885,188.70921381666668,77.0,74.0
317,188.66877268333332,189.13016925,75.0,72.0
318,189.25884558333334,189.63935988333333,74.0,75.0
319,189.70921275,193.23427901666665,75.0,85.0
320,203.91524081666665,204.1428526583333,72.0,77.0
321,204.13912131666663,204.26971827499997,74.0,81.0
322,204.36300181666664,204.63130164999998,75.0,93.0
323,204.80593381666665,205.09821291666663,75.0,112.0
324,205.24710981666664,205.46402134999997,72.0,79.0
325,205.46769781666663,205.58350651666663,74.0,77.0
326,205.68828581666665,205.9456384833333,75.0,86.0
327,206.12946181666663,207.16071071666664,77.0,100.0
328,207.45298981666664,207.72321011666665,74.0,108.0
329,207.67357781666664,207.79122474999997,75.0,75.0
330,207.89416581666663,208.17725374999998,77.0,98.0
331,208.33534181666664,208.61842974999996,77.0,112.0
332,208.77651781666663,208.98239994999997,74.0,98.0
333,208.99710581666665,209.12945861666662,75.0,85.0
334,209.21769381666664,209.50078174999996,77.0,100.0
335,209.65886981666665,210.7599715833333,79.0,114.0
336,210.98239781666663,211.47320611666663,80.0,112.0
337,211.42357381666665,211.90335271666663,79.0,81.0
338,211.86474981666663,212.3702639833333,75.0,74.0
339,212.30592581666664,212.79305764999998,80.0,100.0
340,212.74710181666663,213.21217484999997,79.0,76.0
341,213.18827781666664,213.67346190416663,75.0,69.0
342,213.63428281666665,214.12308857499997,80.0,112.0
343,214.08204381666664,214.51114810833332,79.0,90.0
344,214.52980481666665,216.28913241249998,77.0,100.0
345,219.2182356208333,219.3973400208333,80.0,90.0
346,219.43838477916665,219.65293692499998,78.0,74.0
347,219.64733991249997,219.7611458333333,76.0,86.0
348,219.90293681666665,220.23502622499998,73.0,83.0
349,220.35069781666664,220.63614545416664,78.0,90.0
350,220.79845881666665,221.8712195458333,78.0,108.0
351,222.58467381666665,222.7372471833333,78.0,87.0
352,222.80526181666664,223.0019527833333,80.0,81.0
353,223.02584981666664,223.26298191666663,78.0,63.0
354,223.24643781666663,223.3548935833333,76.0,75.0
355,223.46702581666665,223.78871664999997,71.0,95.0
356,223.90820181666663,224.23540734999997,78.0,98.0
357,224.34937781666665,224.68761274999997,78.0,108.0
358,224.79055381666663,225.0534211833333,75.0,98.0
359,225.01114181666665,226.22621404999998,76.0,95.0
360,226.55525781666663,226.82547811666663,76.0,90.0
361,226.77584581666665,226.94680151666662,78.0,68.0
362,226.99643381666664,227.32180111666665,80.0,95.0
363,227.43760981666665,227.58650671666663,81.0,86.0
364,227.65819781666664,227.91187401666664,81.0,77.0
365,228.09937381666663,228.6490055833333,73.0,95.0
366,228.76113781666663,229.09937275,75.0,98.0
367,229.20231381666665,229.4320929833333,73.0,72.0
368,229.42290181666664,229.83282784999997,71.0,81.0
369,229.86407781666665,230.37878314999998,75.0,79.0
370,230.52584181666663,233.07725534999997,71.0,95.0
371,233.18836634999997,233.30688474999997,78.0,90.0
372,233.41058834999998,233.52169934999998,80.0,73.0
373,233.63281034999997,233.72910654999998,78.0,72.0
374,233.85503234999996,233.95318039999998,76.0,74.0
375,234.07725434999998,234.32910594999998,76.0,73.0
376,234.52169834999998,234.76429069999998,73.0,87.0
377,234.96614234999998,235.0791052,78.0,86.0
378,235.18836434999997,235.2976235,80.0,67.0
379,235.41058634999996,235.49206774999996,78.0,74.0
380,235.63280834999998,235.74391934999997,76.0,66.0
381,235.85503034999996,236.04762274999996,76.0,74.0
382,236.28095584999997,236.67354804999997,73.0,87.0
383,236.74391834999997,236.86614044999996,78.0,79.0
384,236.96614034999996,237.10502909999997,80.0,104.0
385,237.18836234999998,237.30873259999998,78.0,74.0
386,237.41058434999997,237.53465829999996,76.0,81.0
387,237.63280634999998,237.76799139999997,76.0,98.0
388,238.07725034999999,238.35873154999996,71.0,95.0
389,238.52169434999996,238.87354584999997,83.0,111.0
390,238.96613834999997,239.23280474999999,75.0,104.0
391,239.41058234999997,240.62169224999997,76.0,90.0
392,240.74391434999998,240.98280299999996,71.0,85.0
393,240.96613634999997,241.2568768,68.0,71.0
394,241.18835835,241.42539514999999,69.0,77.0
395,241.63280234999996,241.73650594999998,76.0,73.0
396,241.85502434999998,242.50687554999996,76.0,83.0
397,242.55687549999996,242.73835679999996,80.0,83.0
398,242.78280119999997,242.91057884999998,81.0,74.0
399,243.01798614999998,243.51983749999997,80.0,93.0
400,243.49020789999997,243.79946685,78.0,74.0
401,243.75872614999997,244.22354049999998,76.0,72.0
402,244.35316999999998,244.73888013333328,75.0,75.0
403,247.43290881666664,247.55231174999997,78.0,90.0
404,247.65678931666662,247.76872956666662,80.0,73.0
405,247.88066981666663,247.97768469999997,78.0,72.0
406,244.80977562499996,248.20192439999997,76.0,85.0
407,248.10377634999995,248.20192439999997,76.0,74.0
408,248.32599834999996,248.57784994999997,76.0,73.0
409,248.77044234999997,249.01303469999996,73.0,87.0
410,249.21488634999997,249.32784919999995,78.0,86.0
411,249.43710834999996,249.54636749999995,80.0,67.0
412,249.65933034999995,249.74081174999995,78.0,74.0
413,249.88155234999996,249.99266334999996,76.0,66.0
414,250.10377434999995,250.29636674999995,76.0,74.0
415,250.52969984999996,250.92229204999995,73.0,87.0
416,250.99266234999996,251.11488444999995,78.0,79.0
417,251.21488434999995,251.35377309999996,80.0,104.0
418,251.43710634999997,251.55747659999997,78.0,74.0
419,251.65932834999995,251.78340229999995,76.0,81.0
420,251.88155034999997,252.01673539999996,76.0,98.0
421,252.32599434999995,252.60747554999995,71.0,95.0
422,252.77043834999995,253.12228984999996,83.0,111.0
423,253.21488234999995,253.48154874999994,75.0,104.0
424,253.65932634999996,254.87043624999995,76.0,90.0
425,254.99265834999997,255.23154699999995,71.0,85.0
426,255.21488034999996,255.50562079999995,68.0,71.0
427,255.43710234999995,255.67413914999995,69.0,77.0
428,255.88154634999995,255.98524994999997,76.0,73.0
429,256.10376834999994,256.75561954999995,76.0,83.0
430,256.8056195,256.98710079999995,80.0,83.0
431,257.0315452,257.15932284999997,81.0,74.0
432,257.26673014999994,257.7685815,80.0,93.0
433,257.73895189999996,258.04821085,78.0,74.0
434,258.00747014999996,260.7861308166666,76.0,72.0
435,260.7861308166666,261.2488171833333,75.0,63.0
436,261.23389181666664,265.1835169708333,76.0,83.0
